0, 0, Header, 0, 1, 384
1, 0, Start_track
1, 0, Title_t, "Prelude & Fugue--Tami Lin       "
1, 0, Text_t, "2008 e-Piano Junior Competition recital round"
1, 0, Text_t, "recorded July 2008"
1, 0, Text_t, "http://www.piano-e-competition.com/"
1, 0, Text_t, "File processed for distribution by software from Zenph Studios, Inc., http://www.zenph.com"
1, 0, Instrument_name_t, "Yamaha Disklavier Pro Mark IV concert grand piano, model DCFIIISM4PRO"
1, 0, Sequencer_specific, 39, 67, 113, 0, 1, 0, 1, 0, 80, 114, 101, 108, 117, 100, 101, 32, 38, 32, 70, 117, 103, 117, 101, 32, 84, 97, 109, 105, 32, 76, 105, 110, 32, 32, 32, 32, 32, 32, 32, 32
1, 0, Sequencer_specific, 6, 67, 113, 0, 0, 0, 69
1, 0, System_exclusive, 21, 67, 113, 126, 21, 0, 2, 2, 0, 3, 14, 1, 4, 1, 13, 13, 10, 11, 9, 2, 7, 247
1, 0, Sequencer_specific, 5, 67, 123, 12, 2, 1
1, 0, Tempo, 512820
1, 0, Time_signature, 4, 2, 24, 8
1, 0, System_exclusive, 5, 126, 127, 9, 1, 247
1, 1, System_exclusive, 8, 67, 16, 76, 0, 0, 126, 0, 247
1, 2, System_exclusive, 8, 67, 16, 76, 8, 9, 7, 1, 247
1, 3, Control_c, 0, 0, 0
1, 3, Control_c, 1, 0, 0
1, 3, Control_c, 2, 0, 0
1, 3, Control_c, 3, 0, 0
1, 3, Control_c, 4, 0, 0
1, 3, Control_c, 5, 0, 0
1, 3, Control_c, 6, 0, 0
1, 3, Control_c, 7, 0, 0
1, 3, Control_c, 8, 0, 0
1, 3, Control_c, 9, 0, 127
1, 3, Control_c, 10, 0, 0
1, 3, Control_c, 11, 0, 0
1, 3, Control_c, 12, 0, 0
1, 3, Control_c, 13, 0, 0
1, 3, Control_c, 14, 0, 0
1, 3, Control_c, 15, 0, 0
1, 4, Control_c, 0, 32, 0
1, 4, Control_c, 1, 32, 0
1, 4, Control_c, 2, 32, 0
1, 4, Control_c, 3, 32, 0
1, 4, Control_c, 4, 32, 0
1, 4, Control_c, 5, 32, 0
1, 4, Control_c, 6, 32, 0
1, 4, Control_c, 7, 32, 0
1, 4, Control_c, 8, 32, 0
1, 4, Control_c, 9, 32, 0
1, 4, Control_c, 10, 32, 0
1, 4, Control_c, 11, 32, 0
1, 4, Control_c, 12, 32, 0
1, 4, Control_c, 13, 32, 0
1, 4, Control_c, 14, 32, 0
1, 4, Control_c, 15, 32, 0
1, 5, Program_c, 0, 0
1, 5, Program_c, 1, 0
1, 5, Program_c, 2, 0
1, 5, Program_c, 3, 0
1, 5, Program_c, 4, 0
1, 5, Program_c, 5, 0
1, 5, Program_c, 6, 0
1, 5, Program_c, 7, 0
1, 5, Program_c, 8, 0
1, 5, Program_c, 9, 0
1, 5, Program_c, 10, 0
1, 5, Program_c, 11, 0
1, 5, Program_c, 12, 0
1, 5, Program_c, 13, 0
1, 5, Program_c, 14, 0
1, 5, Program_c, 15, 0
1, 6, Control_c, 0, 7, 100
1, 6, Control_c, 1, 7, 100
1, 6, Control_c, 2, 7, 100
1, 6, Control_c, 3, 7, 100
1, 6, Control_c, 4, 7, 100
1, 6, Control_c, 5, 7, 100
1, 6, Control_c, 6, 7, 100
1, 6, Control_c, 7, 7, 100
1, 6, Control_c, 8, 7, 100
1, 6, Control_c, 9, 7, 100
1, 6, Control_c, 10, 7, 100
1, 6, Control_c, 11, 7, 100
1, 6, Control_c, 12, 7, 100
1, 6, Control_c, 13, 7, 100
1, 6, Control_c, 14, 7, 100
1, 6, Control_c, 15, 7, 100
1, 1129, Note_on_c, 0, 77, 63
1, 1131, Note_on_c, 0, 49, 53
1, 1224, Note_on_c, 0, 73, 63
1, 1233, Note_off_c, 0, 77, 55
1, 1287, Note_off_c, 0, 73, 63
1, 1311, Note_on_c, 0, 68, 58
1, 1337, Note_off_c, 0, 49, 61
1, 1403, Note_on_c, 0, 73, 56
1, 1403, Note_off_c, 0, 68, 61
1, 1450, Note_off_c, 0, 73, 60
1, 1470, Note_on_c, 0, 77, 64
1, 1471, Note_on_c, 0, 61, 62
1, 1504, Note_off_c, 0, 61, 61
1, 1556, Note_off_c, 0, 77, 61
1, 1564, Note_on_c, 0, 73, 63
1, 1641, Note_on_c, 0, 51, 61
1, 1655, Note_on_c, 0, 78, 70
1, 1660, Note_off_c, 0, 73, 61
1, 1727, Note_off_c, 0, 78, 64
1, 1748, Note_on_c, 0, 73, 65
1, 1832, Note_off_c, 0, 73, 62
1, 1841, Note_on_c, 0, 78, 72
1, 1865, Note_off_c, 0, 51, 60
1, 1900, Note_off_c, 0, 78, 61
1, 1917, Note_on_c, 0, 73, 62
1, 1999, Note_off_c, 0, 73, 60
1, 2009, Note_on_c, 0, 61, 64
1, 2012, Note_on_c, 0, 78, 75
1, 2040, Note_off_c, 0, 61, 62
1, 2065, Note_off_c, 0, 78, 60
1, 2099, Note_on_c, 0, 73, 60
1, 2164, Note_off_c, 0, 73, 59
1, 2180, Note_on_c, 0, 53, 67
1, 2189, Note_on_c, 0, 80, 75
1, 2263, Note_off_c, 0, 80, 61
1, 2283, Note_on_c, 0, 73, 68
1, 2357, Note_off_c, 0, 73, 60
1, 2371, Note_on_c, 0, 80, 75
1, 2386, Note_off_c, 0, 53, 65
1, 2441, Note_off_c, 0, 80, 62
1, 2467, Note_on_c, 0, 73, 67
1, 2535, Note_off_c, 0, 73, 60
1, 2549, Note_on_c, 0, 80, 79
1, 2552, Note_on_c, 0, 61, 56
1, 2583, Note_off_c, 0, 61, 63
1, 2604, Note_off_c, 0, 80, 62
1, 2625, Note_on_c, 0, 73, 66
1, 2697, Note_off_c, 0, 73, 61
1, 2714, Note_on_c, 0, 54, 63
1, 2727, Note_on_c, 0, 82, 83
1, 2801, Note_off_c, 0, 82, 57
1, 2811, Note_on_c, 0, 73, 71
1, 2878, Note_off_c, 0, 73, 62
1, 2896, Note_on_c, 0, 82, 82
1, 2947, Note_off_c, 0, 54, 60
1, 2970, Note_off_c, 0, 82, 61
1, 2971, Note_on_c, 0, 73, 74
1, 3042, Note_off_c, 0, 73, 61
1, 3066, Note_on_c, 0, 82, 77
1, 3073, Note_on_c, 0, 61, 68
1, 3103, Note_off_c, 0, 61, 63
1, 3132, Note_off_c, 0, 82, 60
1, 3139, Note_on_c, 0, 73, 66
1, 3228, Note_off_c, 0, 73, 62
1, 3242, Note_on_c, 0, 53, 63
1, 3254, Note_on_c, 0, 80, 74
1, 3326, Note_off_c, 0, 80, 63
1, 3337, Note_on_c, 0, 73, 70
1, 3409, Note_off_c, 0, 73, 59
1, 3422, Note_on_c, 0, 80, 72
1, 3474, Note_off_c, 0, 53, 64
1, 3501, Note_off_c, 0, 80, 61
1, 3504, Note_on_c, 0, 73, 66
1, 3565, Note_off_c, 0, 73, 60
1, 3596, Note_on_c, 0, 80, 69
1, 3598, Note_on_c, 0, 61, 65
1, 3630, Note_off_c, 0, 61, 62
1, 3646, Note_off_c, 0, 80, 61
1, 3673, Note_on_c, 0, 73, 62
1, 3737, Note_off_c, 0, 73, 56
1, 3755, Note_on_c, 0, 78, 63
1, 3760, Note_on_c, 0, 51, 66
1, 3844, Note_on_c, 0, 77, 67
1, 3850, Note_off_c, 0, 78, 58
1, 3911, Note_off_c, 0, 77, 63
1, 3928, Note_on_c, 0, 75, 67
1, 3956, Note_off_c, 0, 51, 59
1, 4007, Note_on_c, 0, 77, 66
1, 4013, Note_off_c, 0, 75, 61
1, 4079, Note_on_c, 0, 60, 59
1, 4091, Note_on_c, 0, 78, 69
1, 4105, Note_off_c, 0, 77, 59
1, 4112, Note_off_c, 0, 60, 64
1, 4168, Note_off_c, 0, 78, 63
1, 4172, Note_on_c, 0, 75, 62
1, 4241, Note_on_c, 0, 49, 56
1, 4249, Note_on_c, 0, 77, 70
1, 4252, Note_off_c, 0, 75, 63
1, 4348, Note_on_c, 0, 75, 69
1, 4351, Note_off_c, 0, 77, 59
1, 4411, Note_off_c, 0, 49, 59
1, 4425, Note_off_c, 0, 75, 65
1, 4435, Note_on_c, 0, 73, 69
1, 4515, Note_on_c, 0, 75, 69
1, 4528, Note_off_c, 0, 73, 57
1, 4597, Note_on_c, 0, 77, 70
1, 4598, Note_off_c, 0, 75, 65
1, 4601, Note_on_c, 0, 61, 68
1, 4690, Note_on_c, 0, 73, 70
1, 4693, Note_off_c, 0, 77, 60
1, 4792, Note_on_c, 0, 75, 71
1, 4816, Note_off_c, 0, 73, 57
1, 4878, Note_on_c, 0, 77, 73
1, 4884, Note_off_c, 0, 75, 62
1, 4946, Note_off_c, 0, 61, 61
1, 4953, Note_on_c, 0, 60, 67
1, 4963, Note_on_c, 0, 75, 79
1, 4977, Note_off_c, 0, 77, 60
1, 5043, Note_on_c, 0, 58, 65
1, 5050, Note_off_c, 0, 60, 60
1, 5058, Note_on_c, 0, 73, 73
1, 5066, Note_off_c, 0, 75, 63
1, 5114, Note_on_c, 0, 56, 63
1, 5120, Note_off_c, 0, 73, 63
1, 5126, Note_off_c, 0, 58, 62
1, 5132, Note_on_c, 0, 72, 72
1, 5200, Note_on_c, 0, 58, 59
1, 5202, Note_off_c, 0, 72, 63
1, 5208, Note_on_c, 0, 70, 74
1, 5215, Note_off_c, 0, 56, 60
1, 5267, Note_off_c, 0, 58, 64
1, 5269, Note_off_c, 0, 70, 64
1, 5296, Note_on_c, 0, 60, 61
1, 5302, Note_on_c, 0, 68, 72
1, 5379, Note_off_c, 0, 60, 59
1, 5388, Note_on_c, 0, 56, 67
1, 5479, Note_off_c, 0, 56, 63
1, 5481, Note_on_c, 0, 51, 68
1, 5495, Note_off_c, 0, 68, 59
1, 5549, Note_on_c, 0, 56, 58
1, 5573, Note_off_c, 0, 51, 56
1, 5623, Note_off_c, 0, 56, 64
1, 5653, Note_on_c, 0, 80, 68
1, 5656, Note_on_c, 0, 60, 58
1, 5690, Note_off_c, 0, 60, 63
1, 5695, Note_off_c, 0, 80, 62
1, 5734, Note_on_c, 0, 56, 62
1, 5809, Note_off_c, 0, 56, 63
1, 5814, Note_on_c, 0, 70, 65
1, 5827, Note_on_c, 0, 61, 65
1, 5900, Note_off_c, 0, 61, 62
1, 5904, Note_on_c, 0, 56, 68
1, 5981, Note_off_c, 0, 56, 63
1, 5985, Note_off_c, 0, 70, 60
1, 5996, Note_on_c, 0, 61, 68
1, 6059, Note_on_c, 0, 56, 63
1, 6062, Note_off_c, 0, 61, 61
1, 6143, Note_off_c, 0, 56, 63
1, 6145, Note_on_c, 0, 80, 62
1, 6156, Note_on_c, 0, 61, 66
1, 6191, Note_off_c, 0, 80, 59
1, 6241, Note_off_c, 0, 61, 61
1, 6245, Note_on_c, 0, 56, 63
1, 6323, Note_off_c, 0, 56, 64
1, 6343, Note_on_c, 0, 72, 74
1, 6348, Note_on_c, 0, 63, 66
1, 6434, Note_off_c, 0, 63, 63
1, 6436, Note_on_c, 0, 56, 71
1, 6516, Note_off_c, 0, 56, 63
1, 6526, Note_on_c, 0, 63, 71
1, 6528, Note_off_c, 0, 72, 61
1, 6595, Note_off_c, 0, 63, 62
1, 6601, Note_on_c, 0, 56, 66
1, 6681, Note_off_c, 0, 56, 64
1, 6682, Note_on_c, 0, 80, 72
1, 6703, Note_on_c, 0, 63, 70
1, 6723, Note_off_c, 0, 80, 66
1, 6765, Note_off_c, 0, 63, 63
1, 6765, Note_on_c, 0, 56, 64
1, 6850, Note_off_c, 0, 56, 63
1, 6878, Note_on_c, 0, 65, 74
1, 6878, Note_on_c, 0, 73, 74
1, 6965, Note_off_c, 0, 65, 61
1, 6977, Note_on_c, 0, 56, 73
1, 7039, Note_off_c, 0, 56, 62
1, 7063, Note_off_c, 0, 73, 61
1, 7075, Note_on_c, 0, 65, 68
1, 7122, Note_off_c, 0, 65, 61
1, 7141, Note_on_c, 0, 56, 68
1, 7207, Note_off_c, 0, 56, 58
1, 7232, Note_on_c, 0, 65, 67
1, 7240, Note_on_c, 0, 80, 67
1, 7266, Note_off_c, 0, 65, 63
1, 7293, Note_off_c, 0, 80, 63
1, 7307, Note_on_c, 0, 56, 66
1, 7391, Note_off_c, 0, 56, 64
1, 7401, Note_on_c, 0, 63, 68
1, 7416, Note_on_c, 0, 72, 71
1, 7469, Note_off_c, 0, 63, 62
1, 7481, Note_on_c, 0, 56, 63
1, 7563, Note_off_c, 0, 56, 63
1, 7578, Note_on_c, 0, 63, 67
1, 7583, Note_off_c, 0, 72, 62
1, 7633, Note_off_c, 0, 63, 58
1, 7649, Note_on_c, 0, 56, 61
1, 7734, Note_off_c, 0, 56, 64
1, 7749, Note_on_c, 0, 80, 63
1, 7754, Note_on_c, 0, 63, 63
1, 7791, Note_off_c, 0, 80, 60
1, 7792, Note_off_c, 0, 63, 64
1, 7832, Note_on_c, 0, 56, 63
1, 7903, Note_off_c, 0, 56, 61
1, 7924, Note_on_c, 0, 61, 61
1, 7928, Note_on_c, 0, 70, 68
1, 7972, Note_off_c, 0, 61, 61
1, 7989, Note_on_c, 0, 60, 68
1, 8036, Note_off_c, 0, 70, 61
1, 8084, Note_off_c, 0, 60, 61
1, 8088, Note_on_c, 0, 58, 69
1, 8170, Note_on_c, 0, 60, 65
1, 8175, Note_off_c, 0, 58, 63
1, 8250, Note_off_c, 0, 60, 61
1, 8253, Note_on_c, 0, 79, 63
1, 8256, Note_on_c, 0, 61, 66
1, 8299, Note_off_c, 0, 79, 60
1, 8321, Note_off_c, 0, 61, 60
1, 8324, Note_on_c, 0, 58, 63
1, 8396, Note_off_c, 0, 58, 63
1, 8416, Note_on_c, 0, 60, 63
1, 8440, Note_on_c, 0, 68, 70
1, 8498, Note_off_c, 0, 60, 61
1, 8509, Note_on_c, 0, 58, 66
1, 8550, Note_off_c, 0, 68, 58
1, 8580, Note_off_c, 0, 58, 64
1, 8586, Note_on_c, 0, 56, 68
1, 8670, Note_on_c, 0, 58, 69
1, 8674, Note_off_c, 0, 56, 62
1, 8738, Note_off_c, 0, 58, 64
1, 8753, Note_on_c, 0, 80, 80
1, 8757, Note_on_c, 0, 60, 63
1, 8833, Note_off_c, 0, 60, 59
1, 8846, Note_on_c, 0, 56, 66
1, 8935, Note_off_c, 0, 56, 63
1, 8936, Note_on_c, 0, 58, 67
1, 9004, Note_off_c, 0, 58, 65
1, 9022, Note_on_c, 0, 59, 63
1, 9092, Note_off_c, 0, 59, 62
1, 9111, Note_on_c, 0, 78, 69
1, 9117, Note_on_c, 0, 58, 53
1, 9138, Note_off_c, 0, 80, 27
1, 9162, Note_off_c, 0, 58, 62
1, 9175, Note_on_c, 0, 56, 54
1, 9192, Note_on_c, 0, 77, 63
1, 9192, Note_off_c, 0, 78, 58
1, 9267, Note_on_c, 0, 54, 56
1, 9273, Note_off_c, 0, 56, 63
1, 9275, Note_off_c, 0, 77, 62
1, 9290, Note_on_c, 0, 75, 60
1, 9308, Note_off_c, 0, 54, 61
1, 9315, Control_c, 0, 67, 16
1, 9330, Control_c, 0, 67, 30
1, 9345, Control_c, 0, 67, 50
1, 9353, Note_on_c, 0, 77, 54
1, 9355, Note_on_c, 0, 53, 45
1, 9355, Note_off_c, 0, 75, 62
1, 9359, Control_c, 0, 67, 76
1, 9374, Control_c, 0, 67, 104
1, 9389, Control_c, 0, 67, 127
1, 9423, Note_off_c, 0, 53, 59
1, 9442, Note_on_c, 0, 78, 68
1, 9445, Note_on_c, 0, 51, 48
1, 9451, Note_off_c, 0, 77, 53
1, 9547, Note_off_c, 0, 78, 60
1, 9558, Note_on_c, 0, 75, 56
1, 9604, Note_off_c, 0, 75, 65
1, 9606, Note_off_c, 0, 51, 60
1, 9630, Note_on_c, 0, 70, 64
1, 9710, Note_off_c, 0, 70, 59
1, 9712, Note_on_c, 0, 75, 53
1, 9764, Note_on_c, 0, 63, 55
1, 9772, Note_off_c, 0, 75, 62
1, 9788, Note_on_c, 0, 78, 64
1, 9788, Note_off_c, 0, 63, 60
1, 9859, Note_off_c, 0, 78, 61
1, 9870, Note_on_c, 0, 75, 57
1, 9931, Note_on_c, 0, 53, 48
1, 9956, Note_off_c, 0, 75, 64
1, 9958, Note_on_c, 0, 80, 66
1, 10008, Note_off_c, 0, 80, 63
1, 10038, Note_on_c, 0, 75, 61
1, 10112, Note_off_c, 0, 75, 64
1, 10125, Note_on_c, 0, 80, 65
1, 10125, Note_off_c, 0, 53, 63
1, 10171, Note_off_c, 0, 80, 59
1, 10202, Note_on_c, 0, 75, 56
1, 10274, Note_off_c, 0, 75, 62
1, 10281, Note_on_c, 0, 63, 49
1, 10286, Note_on_c, 0, 80, 67
1, 10308, Note_off_c, 0, 63, 57
1, 10332, Note_off_c, 0, 80, 62
1, 10381, Note_on_c, 0, 75, 51
1, 10437, Note_off_c, 0, 75, 60
1, 10455, Note_on_c, 0, 54, 51
1, 10464, Note_on_c, 0, 82, 68
1, 10536, Note_off_c, 0, 82, 60
1, 10561, Note_on_c, 0, 75, 61
1, 10620, Note_off_c, 0, 75, 62
1, 10634, Note_on_c, 0, 82, 69
1, 10661, Note_off_c, 0, 54, 61
1, 10703, Note_off_c, 0, 82, 60
1, 10738, Note_on_c, 0, 75, 58
1, 10784, Note_off_c, 0, 75, 62
1, 10795, Note_on_c, 0, 63, 53
1, 10804, Note_on_c, 0, 82, 70
1, 10836, Note_off_c, 0, 63, 62
1, 10871, Note_off_c, 0, 82, 59
1, 10897, Note_on_c, 0, 75, 59
1, 10955, Note_off_c, 0, 75, 60
1, 10974, Note_on_c, 0, 83, 67
1, 10977, Note_on_c, 0, 56, 52
1, 11052, Note_off_c, 0, 83, 57
1, 11067, Note_on_c, 0, 75, 62
1, 11131, Note_off_c, 0, 75, 63
1, 11144, Note_on_c, 0, 83, 62
1, 11174, Note_off_c, 0, 56, 60
1, 11216, Note_off_c, 0, 83, 58
1, 11222, Note_on_c, 0, 75, 59
1, 11296, Note_off_c, 0, 75, 62
1, 11309, Note_on_c, 0, 83, 61
1, 11320, Note_on_c, 0, 63, 52
1, 11350, Note_off_c, 0, 63, 54
1, 11369, Note_off_c, 0, 83, 55
1, 11394, Note_on_c, 0, 75, 56
1, 11470, Note_off_c, 0, 75, 63
1, 11494, Note_on_c, 0, 82, 68
1, 11502, Note_on_c, 0, 54, 47
1, 11564, Note_off_c, 0, 82, 62
1, 11579, Note_on_c, 0, 75, 61
1, 11652, Note_off_c, 0, 75, 62
1, 11677, Note_on_c, 0, 82, 67
1, 11702, Note_off_c, 0, 54, 58
1, 11738, Note_off_c, 0, 82, 58
1, 11760, Note_on_c, 0, 75, 62
1, 11824, Note_off_c, 0, 75, 63
1, 11833, Note_on_c, 0, 63, 54
1, 11848, Note_on_c, 0, 82, 71
1, 11873, Note_off_c, 0, 63, 62
1, 11907, Note_off_c, 0, 82, 56
1, 11929, Note_on_c, 0, 75, 52
1, 12004, Note_on_c, 0, 53, 54
1, 12006, Note_off_c, 0, 75, 58
1, 12020, Note_on_c, 0, 80, 63
1, 12113, Note_on_c, 0, 78, 65
1, 12116, Note_off_c, 0, 80, 60
1, 12181, Note_off_c, 0, 78, 62
1, 12208, Note_off_c, 0, 53, 63
1, 12211, Note_on_c, 0, 77, 64
1, 12286, Note_off_c, 0, 77, 60
1, 12287, Note_on_c, 0, 78, 65
1, 12353, Note_on_c, 0, 62, 50
1, 12359, Note_on_c, 0, 80, 64
1, 12361, Note_off_c, 0, 78, 59
1, 12381, Note_off_c, 0, 62, 56
1, 12429, Note_off_c, 0, 80, 63
1, 12442, Note_on_c, 0, 77, 56
1, 12509, Note_on_c, 0, 51, 52
1, 12513, Note_off_c, 0, 77, 53
1, 12529, Note_on_c, 0, 78, 68
1, 12602, Note_off_c, 0, 78, 62
1, 12623, Note_on_c, 0, 77, 67
1, 12674, Note_off_c, 0, 51, 58
1, 12700, Note_off_c, 0, 77, 61
1, 12714, Note_on_c, 0, 75, 61
1, 12784, Note_off_c, 0, 75, 63
1, 12786, Note_on_c, 0, 77, 59
1, 12861, Note_on_c, 0, 63, 59
1, 12877, Note_on_c, 0, 78, 68
1, 12877, Note_off_c, 0, 77, 56
1, 12969, Note_on_c, 0, 75, 67
1, 12970, Note_off_c, 0, 78, 62
1, 13055, Note_on_c, 0, 77, 73
1, 13064, Note_off_c, 0, 75, 62
1, 13141, Note_on_c, 0, 78, 71
1, 13151, Note_off_c, 0, 77, 60
1, 13186, Note_off_c, 0, 63, 54
1, 13206, Note_on_c, 0, 61, 53
1, 13211, Note_off_c, 0, 78, 65
1, 13217, Note_on_c, 0, 77, 64
1, 13278, Note_off_c, 0, 61, 63
1, 13294, Note_off_c, 0, 77, 63
1, 13296, Note_on_c, 0, 75, 68
1, 13296, Note_on_c, 0, 60, 52
1, 13350, Note_off_c, 0, 60, 60
1, 13363, Note_on_c, 0, 58, 55
1, 13385, Note_on_c, 0, 73, 62
1, 13386, Note_off_c, 0, 75, 63
1, 13430, Note_off_c, 0, 73, 63
1, 13449, Note_off_c, 0, 58, 62
1, 13455, Note_on_c, 0, 72, 63
1, 13469, Note_on_c, 0, 60, 36
1, 13513, Note_off_c, 0, 60, 53
1, 13534, Note_off_c, 0, 72, 61
1, 13535, Note_on_c, 0, 70, 62
1, 13548, Note_on_c, 0, 61, 57
1, 13623, Note_off_c, 0, 61, 62
1, 13630, Note_on_c, 0, 58, 64
1, 13638, Control_c, 0, 67, 100
1, 13653, Control_c, 0, 67, 50
1, 13668, Control_c, 0, 67, 0
1, 13713, Note_off_c, 0, 58, 64
1, 13730, Note_on_c, 0, 51, 64
1, 13731, Note_off_c, 0, 70, 62
1, 13797, Note_off_c, 0, 51, 61
1, 13813, Note_on_c, 0, 58, 60
1, 13875, Note_off_c, 0, 58, 64
1, 13891, Note_on_c, 0, 61, 62
1, 13898, Control_c, 0, 67, 12
1, 13908, Note_on_c, 0, 82, 61
1, 13913, Control_c, 0, 67, 28
1, 13928, Control_c, 0, 67, 51
1, 13943, Control_c, 0, 67, 81
1, 13943, Note_off_c, 0, 82, 62
1, 13957, Control_c, 0, 67, 114
1, 13961, Note_off_c, 0, 61, 62
1, 13972, Control_c, 0, 67, 127
1, 13977, Note_on_c, 0, 58, 53
1, 14057, Note_off_c, 0, 58, 64
1, 14071, Note_on_c, 0, 72, 64
1, 14078, Note_on_c, 0, 63, 55
1, 14146, Note_off_c, 0, 63, 61
1, 14164, Note_on_c, 0, 58, 55
1, 14231, Note_off_c, 0, 58, 64
1, 14246, Note_off_c, 0, 72, 61
1, 14252, Note_on_c, 0, 63, 63
1, 14307, Note_off_c, 0, 63, 55
1, 14333, Note_on_c, 0, 58, 59
1, 14373, Note_off_c, 0, 58, 64
1, 14408, Note_on_c, 0, 63, 64
1, 14409, Note_on_c, 0, 82, 59
1, 14459, Note_off_c, 0, 82, 56
1, 14466, Note_off_c, 0, 63, 58
1, 14486, Note_on_c, 0, 58, 63
1, 14545, Note_off_c, 0, 58, 62
1, 14584, Note_on_c, 0, 65, 59
1, 14596, Note_on_c, 0, 73, 71
1, 14647, Note_off_c, 0, 65, 59
1, 14671, Note_on_c, 0, 58, 60
1, 14741, Note_off_c, 0, 58, 64
1, 14754, Note_off_c, 0, 73, 59
1, 14765, Note_on_c, 0, 65, 65
1, 14811, Note_off_c, 0, 65, 59
1, 14850, Note_on_c, 0, 58, 54
1, 14894, Note_off_c, 0, 58, 63
1, 14923, Note_on_c, 0, 82, 63
1, 14931, Note_on_c, 0, 65, 60
1, 14966, Note_off_c, 0, 65, 65
1, 14972, Note_off_c, 0, 82, 61
1, 15014, Note_on_c, 0, 58, 54
1, 15056, Note_off_c, 0, 58, 65
1, 15091, Note_on_c, 0, 66, 72
1, 15113, Note_on_c, 0, 75, 67
1, 15168, Note_off_c, 0, 66, 58
1, 15200, Note_on_c, 0, 58, 66
1, 15275, Note_off_c, 0, 58, 64
1, 15289, Note_on_c, 0, 66, 70
1, 15292, Note_off_c, 0, 75, 59
1, 15356, Note_off_c, 0, 66, 65
1, 15363, Note_on_c, 0, 58, 64
1, 15445, Note_off_c, 0, 58, 60
1, 15465, Note_on_c, 0, 82, 64
1, 15468, Note_on_c, 0, 66, 67
1, 15505, Note_off_c, 0, 82, 62
1, 15511, Note_off_c, 0, 66, 61
1, 15548, Note_on_c, 0, 58, 61
1, 15601, Note_off_c, 0, 58, 59
1, 15644, Note_on_c, 0, 73, 71
1, 15655, Note_on_c, 0, 65, 56
1, 15696, Note_off_c, 0, 65, 63
1, 15721, Note_on_c, 0, 58, 62
1, 15790, Note_off_c, 0, 58, 62
1, 15790, Note_off_c, 0, 73, 56
1, 15821, Note_on_c, 0, 65, 57
1, 15861, Note_off_c, 0, 65, 62
1, 15898, Note_on_c, 0, 58, 49
1, 15950, Note_off_c, 0, 58, 63
1, 15979, Note_on_c, 0, 82, 59
1, 15993, Note_on_c, 0, 65, 51
1, 16019, Note_off_c, 0, 65, 63
1, 16030, Note_off_c, 0, 82, 59
1, 16069, Note_on_c, 0, 58, 50
1, 16143, Note_off_c, 0, 58, 62
1, 16164, Note_on_c, 0, 63, 54
1, 16167, Note_on_c, 0, 72, 65
1, 16211, Note_off_c, 0, 63, 62
1, 16233, Note_on_c, 0, 61, 61
1, 16307, Note_off_c, 0, 61, 63
1, 16319, Note_off_c, 0, 72, 59
1, 16321, Note_on_c, 0, 60, 64
1, 16407, Note_off_c, 0, 60, 61
1, 16415, Note_on_c, 0, 61, 68
1, 16466, Note_off_c, 0, 61, 61
1, 16483, Note_on_c, 0, 81, 66
1, 16483, Note_on_c, 0, 63, 60
1, 16543, Note_off_c, 0, 81, 55
1, 16546, Note_off_c, 0, 63, 54
1, 16583, Note_on_c, 0, 60, 47
1, 16641, Note_off_c, 0, 60, 61
1, 16656, Note_on_c, 0, 70, 73
1, 16661, Note_on_c, 0, 61, 57
1, 16737, Note_off_c, 0, 61, 62
1, 16751, Note_on_c, 0, 60, 61
1, 16773, Control_c, 0, 67, 104
1, 16788, Control_c, 0, 67, 46
1, 16802, Note_off_c, 0, 60, 59
1, 16803, Control_c, 0, 67, 0
1, 16818, Note_on_c, 0, 58, 64
1, 16820, Note_off_c, 0, 70, 57
1, 16904, Note_on_c, 0, 60, 60
1, 16909, Note_off_c, 0, 58, 59
1, 16962, Note_off_c, 0, 60, 62
1, 16970, Note_on_c, 0, 61, 73
1, 16979, Note_on_c, 0, 82, 75
1, 17071, Note_on_c, 0, 58, 60
1, 17101, Note_off_c, 0, 61, 62
1, 17134, Note_off_c, 0, 58, 65
1, 17148, Note_on_c, 0, 64, 69
1, 17227, Note_off_c, 0, 64, 55
1, 17242, Note_on_c, 0, 62, 69
1, 17250, Note_off_c, 0, 82, 55
1, 17305, Note_off_c, 0, 62, 63
1, 17309, Note_on_c, 0, 80, 81
1, 17320, Note_on_c, 0, 60, 64
1, 17403, Note_on_c, 0, 62, 62
1, 17413, Note_off_c, 0, 60, 55
1, 17465, Note_off_c, 0, 62, 61
1, 17481, Note_off_c, 0, 80, 60
1, 17482, Note_on_c, 0, 64, 66
1, 17486, Note_on_c, 0, 79, 73
1, 17535, Note_off_c, 0, 79, 61
1, 17554, Note_off_c, 0, 64, 60
1, 17568, Note_on_c, 0, 60, 62
1, 17629, Note_off_c, 0, 60, 62
1, 17658, Note_on_c, 0, 65, 69
1, 17665, Note_on_c, 0, 80, 78
1, 17717, Note_off_c, 0, 80, 60
1, 17737, Note_off_c, 0, 65, 59
1, 17753, Note_on_c, 0, 64, 66
1, 17799, Note_off_c, 0, 64, 63
1, 17830, Note_on_c, 0, 68, 78
1, 17832, Note_on_c, 0, 65, 66
1, 17863, Note_off_c, 0, 68, 62
1, 17900, Note_off_c, 0, 65, 58
1, 17915, Note_on_c, 0, 67, 66
1, 17966, Note_off_c, 0, 67, 61
1, 17997, Note_on_c, 0, 80, 82
1, 18009, Note_on_c, 0, 65, 64
1, 18050, Note_off_c, 0, 65, 59
1, 18090, Note_on_c, 0, 63, 66
1, 18141, Note_off_c, 0, 63, 61
1, 18161, Note_on_c, 0, 62, 72
1, 18243, Note_off_c, 0, 62, 58
1, 18250, Note_on_c, 0, 60, 72
1, 18261, Note_off_c, 0, 80, 56
1, 18335, Note_off_c, 0, 60, 62
1, 18337, Note_on_c, 0, 58, 68
1, 18343, Note_on_c, 0, 78, 81
1, 18418, Note_on_c, 0, 60, 59
1, 18444, Note_off_c, 0, 58, 63
1, 18483, Note_off_c, 0, 60, 63
1, 18495, Note_off_c, 0, 78, 63
1, 18501, Note_on_c, 0, 62, 64
1, 18507, Note_on_c, 0, 77, 66
1, 18555, Note_off_c, 0, 77, 61
1, 18559, Note_off_c, 0, 62, 60
1, 18575, Note_on_c, 0, 58, 71
1, 18647, Note_off_c, 0, 58, 63
1, 18671, Note_on_c, 0, 78, 80
1, 18671, Note_on_c, 0, 63, 76
1, 18704, Note_off_c, 0, 63, 63
1, 18737, Note_off_c, 0, 78, 66
1, 18762, Note_on_c, 0, 77, 64
1, 18831, Note_off_c, 0, 77, 63
1, 18838, Note_on_c, 0, 51, 69
1, 18847, Note_on_c, 0, 75, 68
1, 18868, Note_off_c, 0, 51, 64
1, 18924, Note_on_c, 0, 77, 63
1, 18942, Note_off_c, 0, 75, 60
1, 19016, Note_on_c, 0, 78, 73
1, 19017, Note_off_c, 0, 77, 58
1, 19025, Note_on_c, 0, 63, 65
1, 19105, Note_off_c, 0, 78, 61
1, 19112, Note_on_c, 0, 75, 64
1, 19180, Note_on_c, 0, 81, 73
1, 19186, Note_off_c, 0, 75, 63
1, 19187, Note_off_c, 0, 63, 63
1, 19277, Note_on_c, 0, 79, 70
1, 19306, Note_off_c, 0, 81, 55
1, 19339, Note_on_c, 0, 61, 61
1, 19339, Note_off_c, 0, 79, 61
1, 19344, Note_on_c, 0, 77, 73
1, 19428, Note_off_c, 0, 77, 62
1, 19437, Note_on_c, 0, 79, 69
1, 19450, Note_off_c, 0, 61, 54
1, 19491, Note_on_c, 0, 60, 68
1, 19508, Note_on_c, 0, 81, 80
1, 19527, Note_off_c, 0, 79, 61
1, 19535, Note_off_c, 0, 60, 60
1, 19562, Note_off_c, 0, 81, 64
1, 19600, Note_on_c, 0, 77, 74
1, 19663, Note_on_c, 0, 61, 75
1, 19664, Note_on_c, 0, 82, 78
1, 19680, Note_off_c, 0, 77, 60
1, 19699, Note_off_c, 0, 61, 62
1, 19750, Note_off_c, 0, 82, 63
1, 19757, Note_on_c, 0, 81, 74
1, 19842, Note_on_c, 0, 49, 71
1, 19846, Note_on_c, 0, 82, 74
1, 19872, Note_off_c, 0, 81, 56
1, 19875, Note_off_c, 0, 49, 63
1, 19921, Note_off_c, 0, 82, 60
1, 19937, Note_on_c, 0, 84, 70
1, 20015, Note_on_c, 0, 82, 72
1, 20025, Note_off_c, 0, 84, 59
1, 20029, Note_on_c, 0, 61, 71
1, 20111, Note_on_c, 0, 80, 71
1, 20132, Note_off_c, 0, 82, 60
1, 20179, Note_off_c, 0, 80, 64
1, 20195, Note_on_c, 0, 79, 62
1, 20239, Note_off_c, 0, 61, 61
1, 20275, Note_off_c, 0, 79, 62
1, 20278, Note_on_c, 0, 77, 65
1, 20362, Note_off_c, 0, 77, 61
1, 20367, Note_on_c, 0, 60, 62
1, 20376, Note_on_c, 0, 75, 69
1, 20448, Note_off_c, 0, 75, 65
1, 20464, Note_on_c, 0, 77, 64
1, 20502, Note_off_c, 0, 60, 47
1, 20538, Note_on_c, 0, 58, 52
1, 20545, Note_off_c, 0, 77, 61
1, 20550, Note_on_c, 0, 79, 66
1, 20589, Note_off_c, 0, 58, 57
1, 20607, Note_off_c, 0, 79, 60
1, 20612, Note_on_c, 0, 75, 67
1, 20708, Note_on_c, 0, 80, 70
1, 20710, Note_off_c, 0, 75, 64
1, 20711, Note_on_c, 0, 60, 60
1, 20748, Note_off_c, 0, 80, 59
1, 20772, Note_off_c, 0, 60, 54
1, 20791, Note_on_c, 0, 58, 60
1, 20863, Note_off_c, 0, 58, 64
1, 20881, Note_on_c, 0, 56, 57
1, 20892, Note_on_c, 0, 68, 71
1, 20926, Note_off_c, 0, 68, 63
1, 20961, Note_on_c, 0, 58, 57
1, 20963, Note_off_c, 0, 56, 61
1, 21029, Note_off_c, 0, 58, 64
1, 21053, Note_on_c, 0, 60, 57
1, 21059, Note_on_c, 0, 80, 80
1, 21124, Note_off_c, 0, 60, 59
1, 21140, Note_on_c, 0, 56, 59
1, 21211, Note_off_c, 0, 56, 63
1, 21238, Note_on_c, 0, 62, 65
1, 21303, Note_off_c, 0, 80, 56
1, 21313, Note_off_c, 0, 62, 62
1, 21324, Note_on_c, 0, 60, 63
1, 21387, Note_off_c, 0, 60, 62
1, 21399, Note_on_c, 0, 58, 67
1, 21412, Note_on_c, 0, 78, 77
1, 21492, Note_off_c, 0, 58, 60
1, 21498, Note_on_c, 0, 60, 63
1, 21544, Note_off_c, 0, 60, 61
1, 21571, Note_off_c, 0, 78, 55
1, 21573, Note_on_c, 0, 62, 59
1, 21574, Note_on_c, 0, 77, 70
1, 21619, Note_off_c, 0, 62, 60
1, 21625, Note_off_c, 0, 77, 59
1, 21656, Note_on_c, 0, 58, 60
1, 21725, Note_off_c, 0, 58, 65
1, 21750, Note_on_c, 0, 63, 71
1, 21752, Note_on_c, 0, 78, 69
1, 21781, Note_off_c, 0, 78, 62
1, 21819, Note_off_c, 0, 63, 62
1, 21834, Note_on_c, 0, 62, 61
1, 21902, Note_off_c, 0, 62, 63
1, 21920, Note_on_c, 0, 66, 66
1, 21922, Note_on_c, 0, 63, 66
1, 21962, Note_off_c, 0, 66, 65
1, 21992, Note_off_c, 0, 63, 61
1, 22010, Note_on_c, 0, 65, 69
1, 22082, Note_on_c, 0, 63, 61
1, 22086, Note_off_c, 0, 65, 62
1, 22111, Note_on_c, 0, 78, 76
1, 22167, Note_on_c, 0, 61, 69
1, 22182, Note_off_c, 0, 63, 65
1, 22229, Note_off_c, 0, 61, 63
1, 22269, Note_on_c, 0, 60, 67
1, 22334, Note_off_c, 0, 60, 58
1, 22349, Note_on_c, 0, 58, 69
1, 22388, Note_off_c, 0, 78, 51
1, 22438, Note_off_c, 0, 58, 65
1, 22450, Note_on_c, 0, 56, 66
1, 22457, Note_on_c, 0, 77, 67
1, 22532, Note_on_c, 0, 58, 63
1, 22541, Note_off_c, 0, 56, 61
1, 22600, Note_off_c, 0, 58, 62
1, 22617, Note_on_c, 0, 75, 59
1, 22618, Note_on_c, 0, 60, 58
1, 22618, Note_off_c, 0, 77, 58
1, 22662, Note_off_c, 0, 75, 60
1, 22674, Note_off_c, 0, 60, 56
1, 22696, Note_on_c, 0, 56, 62
1, 22765, Note_off_c, 0, 56, 62
1, 22785, Note_on_c, 0, 77, 58
1, 22788, Note_on_c, 0, 61, 70
1, 22824, Note_off_c, 0, 61, 58
1, 22865, Note_off_c, 0, 77, 58
1, 22868, Note_on_c, 0, 75, 60
1, 22936, Note_off_c, 0, 75, 64
1, 22950, Note_on_c, 0, 49, 64
1, 22957, Note_on_c, 0, 73, 63
1, 22980, Note_off_c, 0, 49, 64
1, 23042, Note_off_c, 0, 73, 59
1, 23046, Note_on_c, 0, 75, 47
1, 23107, Note_off_c, 0, 75, 61
1, 23117, Note_on_c, 0, 77, 65
1, 23130, Note_on_c, 0, 61, 61
1, 23213, Note_off_c, 0, 77, 61
1, 23220, Note_on_c, 0, 73, 64
1, 23293, Note_off_c, 0, 61, 60
1, 23302, Note_on_c, 0, 79, 68
1, 23303, Note_off_c, 0, 73, 61
1, 23392, Note_on_c, 0, 77, 59
1, 23414, Note_off_c, 0, 79, 57
1, 23455, Note_on_c, 0, 59, 51
1, 23456, Note_off_c, 0, 77, 62
1, 23465, Note_on_c, 0, 75, 65
1, 23517, Note_off_c, 0, 75, 64
1, 23550, Note_on_c, 0, 77, 58
1, 23607, Note_off_c, 0, 77, 61
1, 23624, Note_on_c, 0, 58, 54
1, 23625, Note_off_c, 0, 59, 40
1, 23631, Note_on_c, 0, 79, 55
1, 23663, Note_off_c, 0, 79, 52
1, 23664, Note_off_c, 0, 58, 64
1, 23711, Note_on_c, 0, 75, 59
1, 23790, Note_off_c, 0, 75, 65
1, 23796, Note_on_c, 0, 80, 67
1, 23800, Note_on_c, 0, 59, 58
1, 23831, Note_off_c, 0, 59, 62
1, 23859, Note_off_c, 0, 80, 63
1, 23887, Note_on_c, 0, 79, 65
1, 23963, Note_off_c, 0, 79, 59
1, 23972, Note_on_c, 0, 47, 57
1, 23972, Note_on_c, 0, 80, 69
1, 24003, Note_off_c, 0, 47, 65
1, 24045, Note_off_c, 0, 80, 62
1, 24065, Note_on_c, 0, 82, 68
1, 24150, Note_off_c, 0, 82, 60
1, 24156, Note_on_c, 0, 80, 69
1, 24156, Note_on_c, 0, 59, 61
1, 24245, Note_on_c, 0, 78, 66
1, 24257, Note_off_c, 0, 80, 60
1, 24309, Note_off_c, 0, 78, 62
1, 24333, Note_on_c, 0, 77, 62
1, 24365, Note_off_c, 0, 59, 59
1, 24415, Note_off_c, 0, 77, 49
1, 24418, Note_on_c, 0, 75, 59
1, 24476, Note_on_c, 0, 58, 50
1, 24490, Note_off_c, 0, 75, 63
1, 24510, Note_on_c, 0, 73, 57
1, 24558, Control_c, 0, 67, 8
1, 24573, Control_c, 0, 67, 11
1, 24585, Note_on_c, 0, 75, 53
1, 24588, Note_off_c, 0, 73, 60
1, 24588, Control_c, 0, 67, 15
1, 24603, Control_c, 0, 67, 24
1, 24618, Control_c, 0, 67, 36
1, 24633, Control_c, 0, 67, 49
1, 24643, Note_off_c, 0, 58, 60
1, 24648, Control_c, 0, 67, 64
1, 24653, Note_on_c, 0, 56, 49
1, 24657, Note_on_c, 0, 77, 63
1, 24663, Control_c, 0, 67, 80
1, 24677, Control_c, 0, 67, 100
1, 24689, Note_off_c, 0, 56, 61
1, 24692, Control_c, 0, 67, 125
1, 24707, Control_c, 0, 67, 127
1, 24736, Note_on_c, 0, 73, 61
1, 24738, Note_off_c, 0, 77, 60
1, 24743, Note_off_c, 0, 75, 34
1, 24802, Note_off_c, 0, 73, 58
1, 24829, Note_on_c, 0, 58, 49
1, 24836, Note_on_c, 0, 66, 63
1, 24907, Note_off_c, 0, 58, 59
1, 24919, Note_on_c, 0, 54, 56
1, 25009, Note_off_c, 0, 54, 62
1, 25020, Note_on_c, 0, 49, 55
1, 25031, Note_off_c, 0, 66, 61
1, 25086, Note_off_c, 0, 49, 60
1, 25100, Note_on_c, 0, 54, 54
1, 25170, Note_off_c, 0, 54, 62
1, 25190, Note_on_c, 0, 58, 57
1, 25195, Note_on_c, 0, 78, 52
1, 25237, Note_off_c, 0, 78, 62
1, 25248, Note_off_c, 0, 58, 51
1, 25293, Note_on_c, 0, 54, 52
1, 25342, Note_off_c, 0, 54, 60
1, 25369, Note_on_c, 0, 68, 65
1, 25387, Note_on_c, 0, 59, 55
1, 25443, Note_off_c, 0, 59, 51
1, 25473, Note_on_c, 0, 54, 58
1, 25537, Note_off_c, 0, 54, 62
1, 25551, Note_off_c, 0, 68, 62
1, 25557, Note_on_c, 0, 59, 62
1, 25619, Note_off_c, 0, 59, 54
1, 25652, Note_on_c, 0, 54, 59
1, 25708, Note_off_c, 0, 54, 63
1, 25719, Note_on_c, 0, 78, 62
1, 25742, Note_on_c, 0, 59, 59
1, 25762, Note_off_c, 0, 78, 62
1, 25782, Note_off_c, 0, 59, 59
1, 25822, Note_on_c, 0, 54, 58
1, 25879, Note_off_c, 0, 54, 60
1, 25912, Note_on_c, 0, 70, 69
1, 25915, Note_on_c, 0, 61, 61
1, 25990, Note_off_c, 0, 61, 61
1, 25996, Note_on_c, 0, 54, 68
1, 26064, Note_off_c, 0, 70, 60
1, 26069, Note_off_c, 0, 54, 61
1, 26088, Note_on_c, 0, 61, 71
1, 26152, Note_off_c, 0, 61, 59
1, 26168, Note_on_c, 0, 54, 62
1, 26230, Note_off_c, 0, 54, 61
1, 26251, Note_on_c, 0, 61, 66
1, 26254, Note_on_c, 0, 78, 67
1, 26302, Note_off_c, 0, 78, 56
1, 26309, Note_off_c, 0, 61, 55
1, 26335, Note_on_c, 0, 54, 59
1, 26407, Note_off_c, 0, 54, 61
1, 26441, Note_on_c, 0, 63, 67
1, 26448, Note_on_c, 0, 71, 67
1, 26510, Note_off_c, 0, 63, 61
1, 26532, Note_on_c, 0, 54, 64
1, 26582, Note_off_c, 0, 54, 58
1, 26602, Note_off_c, 0, 71, 57
1, 26624, Note_on_c, 0, 63, 67
1, 26689, Note_off_c, 0, 63, 63
1, 26701, Note_on_c, 0, 54, 60
1, 26770, Note_off_c, 0, 54, 57
1, 26786, Note_on_c, 0, 78, 62
1, 26806, Note_on_c, 0, 63, 59
1, 26833, Note_off_c, 0, 78, 61
1, 26841, Note_off_c, 0, 63, 63
1, 26883, Note_on_c, 0, 54, 57
1, 26942, Note_off_c, 0, 54, 59
1, 26965, Note_on_c, 0, 61, 63
1, 26979, Note_on_c, 0, 70, 66
1, 27017, Note_off_c, 0, 61, 57
1, 27050, Note_on_c, 0, 54, 60
1, 27113, Note_off_c, 0, 54, 60
1, 27130, Note_on_c, 0, 61, 65
1, 27159, Note_off_c, 0, 70, 60
1, 27194, Note_off_c, 0, 61, 58
1, 27227, Note_on_c, 0, 54, 58
1, 27283, Note_off_c, 0, 54, 60
1, 27306, Note_on_c, 0, 61, 63
1, 27320, Note_on_c, 0, 78, 62
1, 27346, Note_off_c, 0, 61, 59
1, 27352, Note_off_c, 0, 78, 62
1, 27388, Note_on_c, 0, 54, 55
1, 27453, Note_off_c, 0, 54, 59
1, 27485, Note_on_c, 0, 59, 59
1, 27515, Note_on_c, 0, 68, 64
1, 27559, Note_off_c, 0, 59, 60
1, 27576, Note_on_c, 0, 58, 58
1, 27642, Note_off_c, 0, 68, 59
1, 27658, Note_off_c, 0, 58, 64
1, 27667, Note_on_c, 0, 56, 61
1, 27754, Note_off_c, 0, 56, 62
1, 27764, Note_on_c, 0, 58, 60
1, 27817, Note_off_c, 0, 58, 63
1, 27830, Note_on_c, 0, 77, 57
1, 27845, Note_on_c, 0, 59, 55
1, 27885, Note_off_c, 0, 77, 61
1, 27903, Note_off_c, 0, 59, 53
1, 27933, Note_on_c, 0, 56, 60
1, 28014, Note_off_c, 0, 56, 63
1, 28028, Note_on_c, 0, 66, 66
1, 28034, Note_on_c, 0, 58, 53
1, 28108, Note_off_c, 0, 58, 61
1, 28121, Note_on_c, 0, 56, 58
1, 28174, Note_off_c, 0, 66, 58
1, 28189, Note_off_c, 0, 56, 62
1, 28201, Note_on_c, 0, 54, 55
1, 28271, Note_on_c, 0, 56, 52
1, 28294, Note_off_c, 0, 54, 55
1, 28365, Note_off_c, 0, 56, 62
1, 28370, Note_on_c, 0, 78, 74
1, 28385, Note_on_c, 0, 58, 57
1, 28458, Note_off_c, 0, 58, 60
1, 28483, Note_on_c, 0, 54, 54
1, 28561, Note_on_c, 0, 56, 63
1, 28575, Note_off_c, 0, 54, 56
1, 28625, Note_off_c, 0, 78, 51
1, 28648, Note_off_c, 0, 56, 63
1, 28663, Note_on_c, 0, 58, 61
1, 28739, Note_on_c, 0, 77, 76
1, 28739, Note_off_c, 0, 58, 61
1, 28748, Note_on_c, 0, 56, 50
1, 28815, Note_on_c, 0, 54, 65
1, 28820, Note_off_c, 0, 56, 61
1, 28823, Note_on_c, 0, 75, 69
1, 28843, Note_off_c, 0, 77, 52
1, 28878, Note_off_c, 0, 54, 62
1, 28892, Note_off_c, 0, 75, 64
1, 28901, Note_on_c, 0, 73, 69
1, 28910, Note_on_c, 0, 53, 70
1, 28978, Note_off_c, 0, 53, 57
1, 28982, Note_on_c, 0, 75, 68
1, 28983, Note_off_c, 0, 73, 61
1, 29005, Note_on_c, 0, 51, 69
1, 29071, Note_on_c, 0, 49, 82
1, 29072, Note_on_c, 0, 77, 76
1, 29077, Note_off_c, 0, 75, 63
1, 29083, Note_off_c, 0, 51, 62
1, 29162, Note_on_c, 0, 73, 73
1, 29167, Note_off_c, 0, 77, 61
1, 29226, Note_off_c, 0, 73, 63
1, 29253, Note_off_c, 0, 49, 62
1, 29260, Note_on_c, 0, 68, 72
1, 29340, Note_on_c, 0, 73, 70
1, 29349, Note_off_c, 0, 68, 59
1, 29395, Note_on_c, 0, 61, 76
1, 29408, Note_off_c, 0, 73, 63
1, 29426, Note_on_c, 0, 77, 73
1, 29438, Note_off_c, 0, 61, 63
1, 29501, Note_off_c, 0, 77, 62
1, 29503, Note_on_c, 0, 73, 67
1, 29580, Note_on_c, 0, 51, 73
1, 29581, Note_on_c, 0, 78, 78
1, 29587, Note_off_c, 0, 73, 61
1, 29637, Note_off_c, 0, 78, 63
1, 29664, Note_on_c, 0, 73, 70
1, 29747, Note_on_c, 0, 78, 78
1, 29747, Note_off_c, 0, 73, 63
1, 29775, Note_off_c, 0, 51, 61
1, 29806, Note_off_c, 0, 78, 63
1, 29827, Note_on_c, 0, 73, 72
1, 29914, Note_off_c, 0, 73, 60
1, 29915, Note_on_c, 0, 78, 77
1, 29918, Note_on_c, 0, 61, 48
1, 29951, Note_off_c, 0, 61, 61
1, 29974, Note_off_c, 0, 78, 63
1, 29999, Note_on_c, 0, 73, 69
1, 30078, Note_off_c, 0, 73, 60
1, 30085, Note_on_c, 0, 53, 63
1, 30093, Note_on_c, 0, 80, 82
1, 30176, Note_off_c, 0, 80, 63
1, 30185, Note_on_c, 0, 73, 77
1, 30270, Note_off_c, 0, 73, 60
1, 30273, Note_on_c, 0, 80, 82
1, 30291, Note_off_c, 0, 53, 64
1, 30341, Note_off_c, 0, 80, 63
1, 30352, Note_on_c, 0, 73, 77
1, 30419, Note_on_c, 0, 61, 61
1, 30428, Note_off_c, 0, 73, 61
1, 30439, Note_on_c, 0, 80, 83
1, 30454, Note_off_c, 0, 61, 61
1, 30460, Control_c, 0, 67, 117
1, 30475, Control_c, 0, 67, 63
1, 30490, Control_c, 0, 67, 0
1, 30505, Note_off_c, 0, 80, 64
1, 30516, Note_on_c, 0, 73, 80
1, 30588, Note_off_c, 0, 73, 61
1, 30595, Note_on_c, 0, 54, 62
1, 30615, Note_on_c, 0, 82, 89
1, 30697, Note_on_c, 0, 73, 80
1, 30700, Note_off_c, 0, 82, 56
1, 30770, Note_off_c, 0, 73, 61
1, 30793, Note_on_c, 0, 82, 87
1, 30821, Note_off_c, 0, 54, 61
1, 30867, Note_on_c, 0, 73, 77
1, 30874, Note_off_c, 0, 82, 62
1, 30943, Note_on_c, 0, 61, 68
1, 30951, Note_off_c, 0, 73, 58
1, 30967, Note_on_c, 0, 82, 77
1, 30984, Note_off_c, 0, 61, 59
1, 31043, Note_off_c, 0, 82, 62
1, 31044, Note_on_c, 0, 73, 73
1, 31118, Note_on_c, 0, 53, 63
1, 31124, Note_off_c, 0, 73, 60
1, 31138, Note_on_c, 0, 80, 79
1, 31212, Note_off_c, 0, 80, 62
1, 31222, Note_on_c, 0, 73, 76
1, 31290, Note_off_c, 0, 73, 59
1, 31306, Note_on_c, 0, 80, 79
1, 31313, Note_off_c, 0, 53, 65
1, 31372, Note_off_c, 0, 80, 63
1, 31387, Note_on_c, 0, 73, 75
1, 31453, Note_off_c, 0, 73, 60
1, 31456, Note_on_c, 0, 61, 57
1, 31471, Note_on_c, 0, 80, 75
1, 31495, Note_off_c, 0, 61, 59
1, 31522, Note_off_c, 0, 80, 62
1, 31543, Note_on_c, 0, 73, 73
1, 31617, Note_off_c, 0, 73, 60
1, 31620, Note_on_c, 0, 51, 60
1, 31627, Note_on_c, 0, 78, 72
1, 31715, Note_off_c, 0, 78, 63
1, 31721, Note_on_c, 0, 77, 70
1, 31794, Note_off_c, 0, 77, 63
1, 31801, Note_on_c, 0, 75, 71
1, 31833, Note_off_c, 0, 51, 61
1, 31876, Note_on_c, 0, 77, 71
1, 31900, Note_off_c, 0, 75, 59
1, 31957, Note_on_c, 0, 60, 54
1, 31963, Note_on_c, 0, 78, 72
1, 31985, Note_off_c, 0, 77, 58
1, 31987, Note_off_c, 0, 60, 63
1, 32049, Note_on_c, 0, 75, 68
1, 32051, Note_off_c, 0, 78, 63
1, 32117, Note_on_c, 0, 49, 58
1, 32126, Note_on_c, 0, 77, 73
1, 32131, Note_off_c, 0, 75, 64
1, 32216, Note_on_c, 0, 75, 71
1, 32223, Note_off_c, 0, 77, 61
1, 32295, Note_on_c, 0, 73, 72
1, 32297, Note_off_c, 0, 75, 65
1, 32328, Note_off_c, 0, 49, 57
1, 32385, Note_on_c, 0, 75, 70
1, 32411, Note_off_c, 0, 73, 58
1, 32464, Note_on_c, 0, 77, 74
1, 32479, Note_off_c, 0, 75, 65
1, 32483, Note_on_c, 0, 61, 58
1, 32514, Note_off_c, 0, 61, 63
1, 32551, Note_off_c, 0, 77, 62
1, 32552, Note_on_c, 0, 73, 73
1, 32639, Note_on_c, 0, 75, 74
1, 32647, Note_on_c, 0, 54, 63
1, 32669, Note_off_c, 0, 73, 57
1, 32693, Note_off_c, 0, 54, 60
1, 32714, Note_off_c, 0, 75, 63
1, 32720, Note_on_c, 0, 77, 68
1, 32810, Note_on_c, 0, 75, 65
1, 32817, Note_off_c, 0, 77, 57
1, 32818, Note_on_c, 0, 53, 47
1, 32855, Note_off_c, 0, 53, 58
1, 32898, Note_on_c, 0, 73, 61
1, 32916, Note_off_c, 0, 75, 63
1, 32958, Note_off_c, 0, 73, 62
1, 32979, Note_on_c, 0, 51, 58
1, 32982, Note_on_c, 0, 72, 65
1, 33012, Note_off_c, 0, 51, 63
1, 33054, Note_off_c, 0, 72, 63
1, 33057, Note_on_c, 0, 70, 66
1, 33147, Note_off_c, 0, 70, 60
1, 33149, Note_on_c, 0, 72, 61
1, 33155, Note_on_c, 0, 56, 67
1, 33191, Note_off_c, 0, 56, 63
1, 33222, Note_off_c, 0, 72, 59
1, 33249, Note_on_c, 0, 68, 57
1, 33290, Note_off_c, 0, 68, 65
1, 33337, Note_on_c, 0, 66, 66
1, 33370, Note_off_c, 0, 66, 66
1, 33405, Note_on_c, 0, 68, 61
1, 33441, Note_off_c, 0, 68, 64
1, 33514, Note_on_c, 0, 63, 62
1, 33538, Note_off_c, 0, 63, 65
1, 33589, Note_on_c, 0, 68, 49
1, 33637, Note_off_c, 0, 68, 61
1, 33665, Note_on_c, 0, 72, 61
1, 33677, Note_on_c, 0, 56, 63
1, 33708, Note_off_c, 0, 56, 65
1, 33721, Note_off_c, 0, 72, 60
1, 33743, Note_on_c, 0, 68, 61
1, 33783, Note_off_c, 0, 68, 61
1, 33840, Note_on_c, 0, 66, 70
1, 33869, Note_off_c, 0, 66, 67
1, 33933, Note_on_c, 0, 68, 58
1, 33965, Note_off_c, 0, 68, 66
1, 34029, Note_on_c, 0, 63, 59
1, 34052, Note_off_c, 0, 63, 65
1, 34078, Note_on_c, 0, 68, 57
1, 34181, Note_off_c, 0, 68, 59
1, 34196, Note_on_c, 0, 56, 61
1, 34196, Note_on_c, 0, 73, 65
1, 34222, Note_off_c, 0, 56, 63
1, 34244, Note_off_c, 0, 73, 63
1, 34293, Note_on_c, 0, 68, 58
1, 34318, Note_off_c, 0, 68, 63
1, 34377, Note_on_c, 0, 65, 54
1, 34400, Note_off_c, 0, 65, 64
1, 34449, Note_on_c, 0, 68, 53
1, 34494, Note_off_c, 0, 68, 65
1, 34536, Note_on_c, 0, 61, 61
1, 34567, Note_off_c, 0, 61, 63
1, 34619, Note_on_c, 0, 68, 56
1, 34693, Note_off_c, 0, 68, 62
1, 34712, Note_on_c, 0, 56, 68
1, 34712, Note_on_c, 0, 73, 70
1, 34747, Note_off_c, 0, 56, 62
1, 34757, Note_off_c, 0, 73, 62
1, 34801, Note_on_c, 0, 68, 63
1, 34833, Note_off_c, 0, 68, 66
1, 34889, Note_on_c, 0, 65, 64
1, 34919, Note_off_c, 0, 65, 67
1, 34956, Note_on_c, 0, 68, 51
1, 34985, Note_off_c, 0, 68, 59
1, 35048, Note_on_c, 0, 61, 62
1, 35073, Note_off_c, 0, 61, 66
1, 35113, Note_on_c, 0, 68, 49
1, 35191, Note_off_c, 0, 68, 62
1, 35212, Note_on_c, 0, 56, 68
1, 35220, Note_on_c, 0, 78, 81
1, 35246, Note_off_c, 0, 56, 63
1, 35275, Note_off_c, 0, 78, 61
1, 35310, Note_on_c, 0, 68, 66
1, 35343, Note_off_c, 0, 68, 65
1, 35384, Note_on_c, 0, 63, 66
1, 35424, Note_off_c, 0, 63, 63
1, 35476, Note_on_c, 0, 68, 56
1, 35511, Note_off_c, 0, 68, 65
1, 35568, Note_on_c, 0, 60, 63
1, 35599, Note_off_c, 0, 60, 64
1, 35638, Note_on_c, 0, 68, 54
1, 35708, Note_off_c, 0, 68, 63
1, 35728, Note_on_c, 0, 56, 68
1, 35732, Note_on_c, 0, 78, 76
1, 35763, Note_off_c, 0, 56, 62
1, 35781, Note_off_c, 0, 78, 57
1, 35820, Note_on_c, 0, 68, 62
1, 35855, Note_off_c, 0, 68, 64
1, 35902, Note_on_c, 0, 63, 60
1, 35935, Note_off_c, 0, 63, 64
1, 35966, Note_on_c, 0, 68, 57
1, 36005, Note_off_c, 0, 68, 64
1, 36067, Note_on_c, 0, 60, 60
1, 36100, Note_off_c, 0, 60, 65
1, 36106, Note_on_c, 0, 68, 62
1, 36221, Note_on_c, 0, 77, 71
1, 36222, Note_on_c, 0, 56, 72
1, 36222, Note_off_c, 0, 68, 61
1, 36257, Note_off_c, 0, 56, 63
1, 36304, Note_off_c, 0, 77, 57
1, 36336, Note_on_c, 0, 68, 55
1, 36374, Note_off_c, 0, 68, 65
1, 36401, Note_on_c, 0, 65, 59
1, 36437, Note_off_c, 0, 65, 63
1, 36489, Note_on_c, 0, 68, 58
1, 36538, Note_off_c, 0, 68, 61
1, 36566, Note_on_c, 0, 61, 63
1, 36607, Note_off_c, 0, 61, 58
1, 36659, Note_on_c, 0, 68, 62
1, 36726, Note_on_c, 0, 56, 67
1, 36726, Note_on_c, 0, 77, 70
1, 36729, Note_off_c, 0, 68, 63
1, 36759, Note_off_c, 0, 56, 63
1, 36792, Note_off_c, 0, 77, 61
1, 36824, Note_on_c, 0, 68, 66
1, 36867, Note_off_c, 0, 68, 64
1, 36894, Note_on_c, 0, 65, 63
1, 36932, Note_off_c, 0, 65, 66
1, 36973, Note_on_c, 0, 68, 62
1, 37004, Note_off_c, 0, 68, 66
1, 37057, Note_on_c, 0, 61, 63
1, 37091, Note_off_c, 0, 61, 62
1, 37120, Note_on_c, 0, 68, 65
1, 37186, Note_off_c, 0, 68, 63
1, 37200, Note_on_c, 0, 79, 82
1, 37207, Note_on_c, 0, 56, 76
1, 37240, Note_off_c, 0, 56, 62
1, 37283, Note_off_c, 0, 79, 56
1, 37295, Note_on_c, 0, 70, 67
1, 37337, Note_off_c, 0, 70, 61
1, 37369, Note_on_c, 0, 64, 66
1, 37404, Note_off_c, 0, 64, 64
1, 37451, Note_on_c, 0, 70, 65
1, 37506, Note_off_c, 0, 70, 61
1, 37518, Note_on_c, 0, 61, 77
1, 37559, Note_off_c, 0, 61, 60
1, 37604, Note_on_c, 0, 70, 71
1, 37692, Note_on_c, 0, 79, 81
1, 37692, Note_on_c, 0, 56, 78
1, 37693, Note_off_c, 0, 70, 62
1, 37731, Note_off_c, 0, 56, 57
1, 37777, Note_off_c, 0, 79, 58
1, 37778, Note_on_c, 0, 70, 75
1, 37838, Note_off_c, 0, 70, 61
1, 37861, Note_on_c, 0, 64, 69
1, 37901, Note_off_c, 0, 64, 63
1, 37923, Note_on_c, 0, 70, 60
1, 37969, Note_off_c, 0, 70, 64
1, 38014, Note_on_c, 0, 61, 70
1, 38053, Note_off_c, 0, 61, 60
1, 38073, Note_on_c, 0, 70, 70
1, 38136, Note_off_c, 0, 70, 63
1, 38161, Note_on_c, 0, 80, 78
1, 38171, Note_on_c, 0, 56, 79
1, 38212, Note_off_c, 0, 56, 58
1, 38231, Note_off_c, 0, 80, 62
1, 38261, Note_on_c, 0, 72, 63
1, 38293, Note_off_c, 0, 72, 67
1, 38333, Note_on_c, 0, 63, 73
1, 38367, Note_off_c, 0, 63, 63
1, 38418, Note_on_c, 0, 72, 64
1, 38466, Note_off_c, 0, 72, 63
1, 38489, Note_on_c, 0, 60, 70
1, 38529, Note_off_c, 0, 60, 61
1, 38578, Note_on_c, 0, 72, 68
1, 38639, Note_off_c, 0, 72, 62
1, 38647, Note_on_c, 0, 54, 81
1, 38649, Note_on_c, 0, 80, 80
1, 38688, Note_off_c, 0, 54, 60
1, 38723, Note_off_c, 0, 80, 60
1, 38744, Note_on_c, 0, 72, 71
1, 38784, Note_off_c, 0, 72, 61
1, 38833, Note_on_c, 0, 63, 65
1, 38867, Note_off_c, 0, 63, 63
1, 38911, Note_on_c, 0, 72, 65
1, 38963, Note_off_c, 0, 72, 62
1, 38994, Note_on_c, 0, 60, 60
1, 39039, Note_off_c, 0, 60, 61
1, 39075, Note_on_c, 0, 72, 62
1, 39132, Note_off_c, 0, 72, 58
1, 39166, Note_on_c, 0, 53, 64
1, 39166, Note_on_c, 0, 80, 71
1, 39203, Note_off_c, 0, 53, 64
1, 39254, Note_on_c, 0, 73, 63
1, 39255, Note_off_c, 0, 80, 59
1, 39285, Note_off_c, 0, 73, 64
1, 39335, Note_on_c, 0, 65, 68
1, 39366, Note_off_c, 0, 65, 65
1, 39400, Note_on_c, 0, 68, 64
1, 39431, Note_off_c, 0, 68, 66
1, 39489, Note_on_c, 0, 61, 69
1, 39533, Note_off_c, 0, 61, 57
1, 39583, Note_on_c, 0, 73, 68
1, 39621, Note_off_c, 0, 73, 62
1, 39650, Note_on_c, 0, 56, 76
1, 39704, Note_off_c, 0, 56, 64
1, 39742, Note_on_c, 0, 77, 72
1, 39785, Note_off_c, 0, 77, 60
1, 39812, Note_on_c, 0, 53, 76
1, 39859, Note_off_c, 0, 53, 64
1, 39917, Note_on_c, 0, 80, 75
1, 39969, Note_off_c, 0, 80, 63
1, 39975, Note_on_c, 0, 51, 73
1, 40034, Note_off_c, 0, 51, 62
1, 40069, Note_on_c, 0, 82, 73
1, 40142, Note_on_c, 0, 50, 62
1, 40153, Note_off_c, 0, 82, 61
1, 40157, Note_on_c, 0, 83, 73
1, 40196, Note_off_c, 0, 50, 57
1, 40248, Note_on_c, 0, 82, 75
1, 40288, Note_off_c, 0, 83, 60
1, 40315, Note_on_c, 0, 80, 77
1, 40327, Note_on_c, 0, 53, 54
1, 40349, Note_off_c, 0, 82, 61
1, 40372, Note_off_c, 0, 53, 61
1, 40405, Note_on_c, 0, 78, 76
1, 40416, Note_off_c, 0, 80, 63
1, 40454, Note_off_c, 0, 78, 63
1, 40470, Note_on_c, 0, 58, 65
1, 40477, Note_on_c, 0, 77, 72
1, 40506, Note_off_c, 0, 58, 64
1, 40549, Note_off_c, 0, 77, 61
1, 40558, Note_on_c, 0, 75, 71
1, 40608, Note_off_c, 0, 75, 61
1, 40637, Note_on_c, 0, 62, 74
1, 40639, Note_on_c, 0, 77, 74
1, 40688, Note_off_c, 0, 62, 59
1, 40720, Note_off_c, 0, 77, 60
1, 40723, Note_on_c, 0, 78, 73
1, 40795, Note_on_c, 0, 65, 72
1, 40804, Note_on_c, 0, 80, 76
1, 40807, Note_off_c, 0, 78, 61
1, 40834, Note_off_c, 0, 65, 64
1, 40870, Note_off_c, 0, 80, 63
1, 40888, Note_on_c, 0, 83, 66
1, 40954, Note_on_c, 0, 68, 74
1, 40975, Note_on_c, 0, 82, 56
1, 40984, Note_off_c, 0, 68, 64
1, 40999, Note_off_c, 0, 83, 59
1, 41037, Note_on_c, 0, 80, 65
1, 41037, Note_off_c, 0, 82, 61
1, 41120, Note_off_c, 0, 80, 61
1, 41121, Note_on_c, 0, 82, 69
1, 41126, Note_on_c, 0, 66, 79
1, 41156, Note_off_c, 0, 66, 63
1, 41198, Note_off_c, 0, 82, 62
1, 41212, Note_on_c, 0, 75, 59
1, 41239, Note_off_c, 0, 75, 66
1, 41284, Note_on_c, 0, 63, 68
1, 41326, Note_off_c, 0, 63, 58
1, 41366, Note_on_c, 0, 66, 63
1, 41398, Note_off_c, 0, 66, 66
1, 41460, Note_on_c, 0, 58, 69
1, 41496, Note_off_c, 0, 58, 64
1, 41537, Note_on_c, 0, 70, 63
1, 41568, Note_off_c, 0, 70, 66
1, 41621, Note_on_c, 0, 54, 71
1, 41664, Note_off_c, 0, 54, 62
1, 41701, Note_on_c, 0, 75, 63
1, 41730, Note_off_c, 0, 75, 67
1, 41788, Note_on_c, 0, 51, 70
1, 41841, Note_off_c, 0, 51, 59
1, 41878, Note_on_c, 0, 78, 64
1, 41908, Note_off_c, 0, 78, 65
1, 41953, Note_on_c, 0, 49, 67
1, 42014, Note_off_c, 0, 49, 61
1, 42029, Note_on_c, 0, 80, 62
1, 42084, Note_off_c, 0, 80, 61
1, 42107, Note_on_c, 0, 81, 68
1, 42117, Note_on_c, 0, 48, 69
1, 42174, Note_off_c, 0, 48, 61
1, 42212, Note_on_c, 0, 80, 61
1, 42237, Note_off_c, 0, 81, 60
1, 42282, Note_on_c, 0, 78, 66
1, 42292, Note_on_c, 0, 51, 53
1, 42303, Note_off_c, 0, 80, 58
1, 42336, Note_off_c, 0, 51, 58
1, 42344, Note_off_c, 0, 78, 62
1, 42379, Note_on_c, 0, 76, 58
1, 42437, Note_on_c, 0, 56, 57
1, 42450, Note_off_c, 0, 76, 60
1, 42457, Note_on_c, 0, 75, 61
1, 42477, Note_off_c, 0, 56, 63
1, 42530, Note_off_c, 0, 75, 64
1, 42540, Note_on_c, 0, 73, 61
1, 42611, Note_on_c, 0, 60, 70
1, 42625, Note_on_c, 0, 75, 61
1, 42625, Note_off_c, 0, 73, 60
1, 42648, Note_off_c, 0, 60, 60
1, 42669, Note_off_c, 0, 75, 65
1, 42702, Note_on_c, 0, 76, 59
1, 42775, Note_off_c, 0, 76, 58
1, 42777, Note_on_c, 0, 63, 73
1, 42783, Note_on_c, 0, 78, 69
1, 42816, Note_off_c, 0, 63, 61
1, 42852, Note_off_c, 0, 78, 61
1, 42861, Note_on_c, 0, 81, 66
1, 42935, Note_on_c, 0, 66, 72
1, 42952, Note_on_c, 0, 80, 61
1, 42976, Note_off_c, 0, 81, 59
1, 42978, Note_off_c, 0, 66, 61
1, 43016, Note_on_c, 0, 78, 64
1, 43019, Note_off_c, 0, 80, 61
1, 43093, Note_off_c, 0, 78, 56
1, 43095, Note_on_c, 0, 80, 66
1, 43100, Note_on_c, 0, 64, 69
1, 43149, Note_off_c, 0, 64, 61
1, 43165, Note_off_c, 0, 80, 63
1, 43260, Note_on_c, 0, 61, 70
1, 43319, Note_off_c, 0, 61, 61
1, 43352, Note_on_c, 0, 76, 41
1, 43377, Note_off_c, 0, 76, 60
1, 43418, Note_on_c, 0, 57, 64
1, 43451, Note_off_c, 0, 57, 63
1, 43495, Note_on_c, 0, 73, 60
1, 43527, Note_off_c, 0, 73, 63
1, 43567, Note_on_c, 0, 54, 66
1, 43608, Note_off_c, 0, 54, 59
1, 43669, Note_on_c, 0, 69, 61
1, 43708, Note_off_c, 0, 69, 63
1, 43744, Note_on_c, 0, 63, 72
1, 43779, Note_off_c, 0, 63, 62
1, 43820, Note_on_c, 0, 66, 66
1, 43852, Note_off_c, 0, 66, 66
1, 43901, Note_on_c, 0, 60, 70
1, 43946, Note_off_c, 0, 60, 55
1, 43977, Note_on_c, 0, 75, 61
1, 44011, Note_off_c, 0, 75, 63
1, 44068, Note_on_c, 0, 52, 71
1, 44101, Note_off_c, 0, 52, 66
1, 44140, Note_on_c, 0, 68, 61
1, 44176, Note_off_c, 0, 68, 62
1, 44229, Note_on_c, 0, 61, 70
1, 44265, Note_off_c, 0, 61, 61
1, 44305, Note_on_c, 0, 64, 60
1, 44348, Note_off_c, 0, 64, 62
1, 44397, Note_on_c, 0, 57, 72
1, 44450, Note_off_c, 0, 57, 61
1, 44481, Note_on_c, 0, 73, 57
1, 44523, Note_off_c, 0, 73, 57
1, 44569, Note_on_c, 0, 54, 66
1, 44622, Note_off_c, 0, 54, 56
1, 44643, Note_on_c, 0, 69, 56
1, 44679, Note_off_c, 0, 69, 66
1, 44734, Note_on_c, 0, 51, 62
1, 44775, Note_off_c, 0, 51, 64
1, 44805, Note_on_c, 0, 66, 52
1, 44834, Note_off_c, 0, 66, 58
1, 44879, Control_c, 0, 67, 9
1, 44885, Note_on_c, 0, 48, 64
1, 44894, Control_c, 0, 67, 13
1, 44909, Control_c, 0, 67, 18
1, 44924, Control_c, 0, 67, 26
1, 44926, Note_off_c, 0, 48, 65
1, 44939, Control_c, 0, 67, 38
1, 44953, Control_c, 0, 67, 50
1, 44954, Note_on_c, 0, 63, 51
1, 44968, Control_c, 0, 67, 63
1, 44980, Note_off_c, 0, 63, 64
1, 44983, Control_c, 0, 67, 80
1, 44998, Control_c, 0, 67, 107
1, 45013, Control_c, 0, 67, 127
1, 45057, Note_on_c, 0, 44, 62
1, 45065, Note_on_c, 0, 60, 70
1, 45096, Note_off_c, 0, 44, 62
1, 45132, Note_off_c, 0, 60, 60
1, 45159, Note_on_c, 0, 56, 63
1, 45199, Note_off_c, 0, 56, 61
1, 45246, Note_on_c, 0, 54, 64
1, 45284, Note_off_c, 0, 54, 61
1, 45326, Note_on_c, 0, 56, 60
1, 45367, Note_off_c, 0, 56, 61
1, 45419, Note_on_c, 0, 51, 63
1, 45447, Note_off_c, 0, 51, 65
1, 45488, Note_on_c, 0, 56, 58
1, 45571, Note_off_c, 0, 56, 60
1, 45577, Note_on_c, 0, 60, 65
1, 45578, Note_on_c, 0, 44, 61
1, 45605, Note_off_c, 0, 44, 62
1, 45645, Note_off_c, 0, 60, 62
1, 45664, Note_on_c, 0, 56, 46
1, 45708, Note_off_c, 0, 56, 62
1, 45743, Note_on_c, 0, 54, 59
1, 45776, Note_off_c, 0, 54, 62
1, 45831, Note_on_c, 0, 56, 60
1, 45871, Note_off_c, 0, 56, 62
1, 45925, Note_on_c, 0, 51, 60
1, 45955, Note_off_c, 0, 51, 64
1, 45991, Note_on_c, 0, 56, 59
1, 46079, Note_off_c, 0, 56, 62
1, 46089, Note_on_c, 0, 61, 75
1, 46091, Note_on_c, 0, 44, 60
1, 46126, Note_off_c, 0, 44, 65
1, 46155, Note_off_c, 0, 61, 61
1, 46187, Note_on_c, 0, 56, 60
1, 46223, Note_off_c, 0, 56, 62
1, 46255, Note_on_c, 0, 53, 59
1, 46286, Note_off_c, 0, 53, 66
1, 46346, Note_on_c, 0, 56, 59
1, 46384, Note_off_c, 0, 56, 63
1, 46427, Note_on_c, 0, 49, 58
1, 46457, Note_off_c, 0, 49, 64
1, 46487, Note_on_c, 0, 56, 55
1, 46563, Note_off_c, 0, 56, 59
1, 46581, Note_on_c, 0, 61, 70
1, 46590, Note_on_c, 0, 44, 59
1, 46626, Note_off_c, 0, 44, 65
1, 46635, Note_off_c, 0, 61, 60
1, 46680, Note_on_c, 0, 56, 59
1, 46717, Note_off_c, 0, 56, 61
1, 46759, Note_on_c, 0, 53, 56
1, 46796, Note_off_c, 0, 53, 64
1, 46835, Note_on_c, 0, 56, 57
1, 46873, Note_off_c, 0, 56, 64
1, 46920, Note_on_c, 0, 49, 59
1, 46951, Note_off_c, 0, 49, 64
1, 46984, Note_on_c, 0, 56, 56
1, 47049, Note_off_c, 0, 56, 61
1, 47076, Note_on_c, 0, 44, 62
1, 47082, Note_on_c, 0, 66, 72
1, 47118, Note_off_c, 0, 44, 64
1, 47123, Note_off_c, 0, 66, 59
1, 47156, Note_on_c, 0, 56, 62
1, 47201, Note_off_c, 0, 56, 60
1, 47243, Note_on_c, 0, 51, 58
1, 47283, Note_off_c, 0, 51, 61
1, 47322, Note_on_c, 0, 56, 62
1, 47361, Note_off_c, 0, 56, 63
1, 47422, Note_on_c, 0, 48, 65
1, 47454, Note_off_c, 0, 48, 65
1, 47490, Note_on_c, 0, 56, 55
1, 47547, Note_off_c, 0, 56, 60
1, 47575, Note_on_c, 0, 66, 70
1, 47579, Note_on_c, 0, 44, 67
1, 47622, Note_off_c, 0, 44, 63
1, 47630, Note_off_c, 0, 66, 61
1, 47666, Note_on_c, 0, 56, 66
1, 47711, Note_off_c, 0, 56, 59
1, 47743, Note_on_c, 0, 51, 59
1, 47777, Note_off_c, 0, 51, 62
1, 47830, Note_on_c, 0, 56, 58
1, 47868, Note_off_c, 0, 56, 61
1, 47922, Note_on_c, 0, 48, 40
1, 47950, Note_off_c, 0, 48, 54
1, 47979, Note_on_c, 0, 56, 50
1, 48063, Note_on_c, 0, 65, 67
1, 48063, Note_off_c, 0, 56, 63
1, 48064, Note_on_c, 0, 44, 69
1, 48104, Note_off_c, 0, 44, 60
1, 48152, Note_off_c, 0, 65, 60
1, 48166, Note_on_c, 0, 56, 60
1, 48208, Note_off_c, 0, 56, 62
1, 48244, Note_on_c, 0, 53, 60
1, 48277, Note_off_c, 0, 53, 66
1, 48326, Note_on_c, 0, 56, 64
1, 48366, Note_off_c, 0, 56, 61
1, 48392, Note_on_c, 0, 49, 68
1, 48426, Note_off_c, 0, 49, 65
1, 48484, Note_on_c, 0, 56, 62
1, 48545, Note_on_c, 0, 44, 76
1, 48554, Note_on_c, 0, 65, 69
1, 48556, Note_off_c, 0, 56, 62
1, 48585, Note_off_c, 0, 44, 62
1, 48624, Note_off_c, 0, 65, 62
1, 48644, Note_on_c, 0, 56, 67
1, 48692, Note_off_c, 0, 56, 61
1, 48711, Note_on_c, 0, 53, 66
1, 48711, Control_c, 0, 67, 114
1, 48726, Control_c, 0, 67, 66
1, 48741, Control_c, 0, 67, 8
1, 48752, Note_off_c, 0, 53, 62
1, 48756, Control_c, 0, 67, 0
1, 48799, Note_on_c, 0, 56, 70
1, 48837, Note_off_c, 0, 56, 62
1, 48869, Note_on_c, 0, 49, 70
1, 48921, Note_off_c, 0, 49, 64
1, 48954, Note_on_c, 0, 56, 67
1, 49013, Note_off_c, 0, 56, 60
1, 49024, Note_on_c, 0, 44, 82
1, 49025, Note_on_c, 0, 67, 77
1, 49074, Note_off_c, 0, 44, 61
1, 49115, Note_on_c, 0, 58, 70
1, 49115, Note_off_c, 0, 67, 54
1, 49160, Note_off_c, 0, 58, 60
1, 49187, Note_on_c, 0, 52, 72
1, 49234, Note_off_c, 0, 52, 63
1, 49274, Note_on_c, 0, 58, 68
1, 49314, Note_off_c, 0, 58, 62
1, 49345, Note_on_c, 0, 49, 76
1, 49398, Note_off_c, 0, 49, 60
1, 49427, Note_on_c, 0, 58, 71
1, 49502, Note_on_c, 0, 44, 78
1, 49504, Note_on_c, 0, 67, 76
1, 49506, Note_off_c, 0, 58, 64
1, 49545, Note_off_c, 0, 44, 59
1, 49592, Note_on_c, 0, 58, 73
1, 49595, Note_off_c, 0, 67, 59
1, 49657, Note_off_c, 0, 58, 64
1, 49678, Note_on_c, 0, 52, 66
1, 49713, Note_off_c, 0, 52, 66
1, 49744, Note_on_c, 0, 58, 68
1, 49787, Note_off_c, 0, 58, 62
1, 49824, Note_on_c, 0, 49, 73
1, 49872, Note_off_c, 0, 49, 62
1, 49898, Note_on_c, 0, 58, 66
1, 49945, Note_off_c, 0, 58, 59
1, 49974, Note_on_c, 0, 44, 67
1, 50051, Note_on_c, 0, 48, 61
1, 50060, Note_off_c, 0, 44, 63
1, 50142, Note_on_c, 0, 51, 68
1, 50154, Note_off_c, 0, 48, 65
1, 50203, Note_off_c, 0, 51, 61
1, 50215, Note_on_c, 0, 54, 68
1, 50298, Note_on_c, 0, 57, 69
1, 50325, Note_off_c, 0, 54, 59
1, 50394, Note_on_c, 0, 60, 72
1, 50414, Note_off_c, 0, 57, 60
1, 50453, Note_on_c, 0, 61, 71
1, 50456, Note_off_c, 0, 60, 63
1, 50522, Note_on_c, 0, 64, 72
1, 50537, Note_off_c, 0, 61, 61
1, 50614, Note_on_c, 0, 67, 65
1, 50655, Note_off_c, 0, 64, 58
1, 50682, Note_off_c, 0, 67, 62
1, 50705, Note_on_c, 0, 70, 74
1, 50792, Note_on_c, 0, 73, 75
1, 50816, Note_off_c, 0, 70, 58
1, 50877, Note_on_c, 0, 76, 72
1, 50888, Note_off_c, 0, 73, 61
1, 50937, Note_off_c, 0, 76, 64
1, 50958, Note_on_c, 0, 44, 60
1, 50958, Note_on_c, 0, 72, 79
1, 51046, Note_on_c, 0, 75, 77
1, 51052, Note_off_c, 0, 72, 64
1, 51112, Note_off_c, 0, 75, 64
1, 51121, Note_on_c, 0, 78, 77
1, 51196, Note_off_c, 0, 44, 62
1, 51207, Note_on_c, 0, 75, 73
1, 51249, Note_off_c, 0, 78, 63
1, 51262, Note_off_c, 0, 75, 65
1, 51278, Note_on_c, 0, 72, 70
1, 51357, Note_off_c, 0, 72, 65
1, 51382, Note_on_c, 0, 70, 8
1, 51413, Note_on_c, 0, 69, 15
1, 51429, Note_off_c, 0, 70, 28
1, 51431, Note_on_c, 0, 66, 70
1, 51443, Note_off_c, 0, 69, 42
1, 51508, Note_off_c, 0, 66, 64
1, 51509, Note_on_c, 0, 63, 63
1, 51593, Note_on_c, 0, 60, 66
1, 51595, Note_off_c, 0, 63, 63
1, 51672, Note_off_c, 0, 60, 61
1, 51678, Note_on_c, 0, 56, 67
1, 51762, Note_on_c, 0, 60, 63
1, 51768, Note_off_c, 0, 56, 60
1, 51840, Note_off_c, 0, 60, 62
1, 51848, Note_on_c, 0, 63, 59
1, 51937, Note_off_c, 0, 63, 60
1, 51954, Note_on_c, 0, 56, 54
1, 51988, Note_on_c, 0, 65, 58
1, 52066, Note_on_c, 0, 68, 65
1, 52080, Note_off_c, 0, 65, 62
1, 52144, Note_on_c, 0, 73, 75
1, 52145, Note_off_c, 0, 68, 64
1, 52218, Note_on_c, 0, 68, 73
1, 52230, Note_off_c, 0, 56, 62
1, 52251, Note_off_c, 0, 73, 62
1, 52269, Note_off_c, 0, 68, 66
1, 52301, Note_on_c, 0, 65, 65
1, 52376, Note_on_c, 0, 61, 68
1, 52377, Note_off_c, 0, 65, 65
1, 52464, Note_on_c, 0, 58, 69
1, 52469, Note_off_c, 0, 61, 60
1, 52549, Note_off_c, 0, 58, 64
1, 52561, Note_on_c, 0, 55, 57
1, 52651, Note_on_c, 0, 52, 63
1, 52651, Note_off_c, 0, 55, 64
1, 52734, Note_on_c, 0, 49, 63
1, 52736, Note_off_c, 0, 52, 66
1, 52829, Note_on_c, 0, 52, 60
1, 52846, Note_off_c, 0, 49, 53
1, 52913, Note_off_c, 0, 52, 63
1, 52927, Note_on_c, 0, 55, 58
1, 53015, Note_off_c, 0, 55, 59
1, 53042, Note_on_c, 0, 44, 59
1, 53312, Note_on_c, 0, 73, 66
1, 53313, Note_on_c, 0, 68, 65
1, 53316, Note_on_c, 0, 56, 57
1, 53320, Note_on_c, 0, 65, 56
1, 53321, Note_on_c, 0, 53, 50
1, 53323, Note_on_c, 0, 49, 42
1, 53339, Note_off_c, 0, 56, 61
1, 53340, Note_off_c, 0, 65, 64
1, 53346, Note_off_c, 0, 73, 64
1, 53348, Note_off_c, 0, 68, 62
1, 53354, Note_off_c, 0, 53, 67
1, 53360, Note_off_c, 0, 49, 62
1, 53623, Note_on_c, 0, 68, 61
1, 53627, Note_on_c, 0, 51, 50
1, 53628, Note_on_c, 0, 54, 53
1, 53628, Note_on_c, 0, 63, 64
1, 53629, Note_on_c, 0, 56, 47
1, 53630, Note_on_c, 0, 72, 61
1, 53660, Note_off_c, 0, 63, 66
1, 53661, Note_off_c, 0, 56, 60
1, 53670, Note_off_c, 0, 68, 62
1, 53670, Note_off_c, 0, 72, 59
1, 53679, Note_off_c, 0, 54, 61
1, 53685, Note_off_c, 0, 51, 60
1, 54036, Note_on_c, 0, 49, 34
1, 54047, Note_on_c, 0, 53, 38
1, 54050, Note_on_c, 0, 56, 30
1, 54054, Note_on_c, 0, 68, 52
1, 54057, Note_on_c, 0, 61, 46
1, 54057, Note_on_c, 0, 73, 53
1, 54082, Note_off_c, 0, 44, 35
1, 54524, Control_c, 0, 64, 43
1, 54538, Control_c, 0, 64, 55
1, 54553, Control_c, 0, 64, 61
1, 54568, Control_c, 0, 64, 65
1, 54583, Control_c, 0, 64, 68
1, 54598, Control_c, 0, 64, 71
1, 54612, Control_c, 0, 64, 75
1, 54627, Control_c, 0, 64, 78
1, 54642, Control_c, 0, 64, 81
1, 54657, Control_c, 0, 64, 84
1, 54672, Control_c, 0, 64, 87
1, 54686, Control_c, 0, 64, 90
1, 54701, Control_c, 0, 64, 93
1, 54716, Control_c, 0, 64, 96
1, 54731, Control_c, 0, 64, 99
1, 54746, Control_c, 0, 64, 102
1, 54761, Control_c, 0, 64, 105
1, 54776, Control_c, 0, 64, 107
1, 54791, Control_c, 0, 64, 110
1, 54805, Control_c, 0, 64, 113
1, 54820, Control_c, 0, 64, 114
1, 54835, Control_c, 0, 64, 115
1, 54844, Note_off_c, 0, 73, 62
1, 54851, Note_off_c, 0, 61, 62
1, 54856, Note_off_c, 0, 56, 55
1, 54864, Control_c, 0, 64, 112
1, 54865, Note_off_c, 0, 68, 63
1, 54868, Note_off_c, 0, 53, 56
1, 54886, Note_off_c, 0, 49, 50
1, 54886, Control_c, 0, 64, 104
1, 54901, Control_c, 0, 64, 94
1, 54916, Control_c, 0, 64, 82
1, 54931, Control_c, 0, 64, 69
1, 54946, Control_c, 0, 64, 0
1, 56809, Note_on_c, 0, 68, 78
1, 56844, Note_off_c, 0, 68, 65
1, 57048, Note_on_c, 0, 70, 75
1, 57148, Note_off_c, 0, 70, 62
1, 57149, Note_on_c, 0, 68, 77
1, 57230, Note_off_c, 0, 68, 64
1, 57250, Note_on_c, 0, 66, 78
1, 57343, Note_on_c, 0, 68, 73
1, 57346, Note_off_c, 0, 66, 62
1, 57440, Note_on_c, 0, 77, 83
1, 57446, Note_off_c, 0, 68, 63
1, 57476, Note_off_c, 0, 77, 63
1, 57676, Note_on_c, 0, 73, 83
1, 57713, Note_off_c, 0, 73, 61
1, 57912, Note_on_c, 0, 68, 88
1, 58143, Note_on_c, 0, 66, 77
1, 58170, Note_off_c, 0, 68, 59
1, 58208, Note_off_c, 0, 66, 65
1, 58226, Note_on_c, 0, 65, 74
1, 58287, Note_off_c, 0, 65, 63
1, 58321, Note_on_c, 0, 66, 87
1, 58354, Note_off_c, 0, 66, 67
1, 58546, Note_on_c, 0, 75, 78
1, 58580, Note_off_c, 0, 75, 67
1, 58776, Note_on_c, 0, 65, 79
1, 58803, Note_off_c, 0, 65, 69
1, 58999, Note_on_c, 0, 73, 78
1, 59039, Note_off_c, 0, 73, 64
1, 59225, Note_on_c, 0, 63, 76
1, 59250, Note_off_c, 0, 63, 69
1, 59447, Note_on_c, 0, 72, 72
1, 59489, Note_off_c, 0, 72, 66
1, 59664, Note_on_c, 0, 61, 77
1, 59695, Note_off_c, 0, 61, 63
1, 59888, Note_on_c, 0, 73, 60
1, 59959, Note_off_c, 0, 73, 63
1, 59973, Note_on_c, 0, 72, 63
1, 60082, Note_on_c, 0, 73, 65
1, 60098, Note_off_c, 0, 72, 55
1, 60177, Note_on_c, 0, 75, 59
1, 60178, Note_off_c, 0, 73, 63
1, 60225, Note_off_c, 0, 75, 65
1, 60277, Note_on_c, 0, 61, 72
1, 60292, Note_on_c, 0, 77, 62
1, 60318, Note_off_c, 0, 61, 60
1, 60375, Note_off_c, 0, 77, 52
1, 60380, Note_on_c, 0, 78, 52
1, 60460, Note_off_c, 0, 78, 56
1, 60478, Note_on_c, 0, 80, 59
1, 60482, Note_on_c, 0, 65, 72
1, 60574, Note_off_c, 0, 80, 57
1, 60575, Note_off_c, 0, 65, 64
1, 60580, Note_on_c, 0, 63, 70
1, 60580, Note_on_c, 0, 79, 60
1, 60652, Note_off_c, 0, 79, 61
1, 60672, Note_off_c, 0, 63, 63
1, 60679, Note_on_c, 0, 61, 67
1, 60687, Note_on_c, 0, 77, 65
1, 60765, Note_off_c, 0, 77, 59
1, 60775, Note_on_c, 0, 63, 77
1, 60776, Note_off_c, 0, 61, 62
1, 60787, Note_on_c, 0, 79, 51
1, 60827, Note_off_c, 0, 79, 56
1, 60850, Note_off_c, 0, 63, 65
1, 60866, Note_on_c, 0, 80, 63
1, 60883, Note_on_c, 0, 72, 79
1, 60910, Note_off_c, 0, 72, 65
1, 60984, Note_on_c, 0, 78, 54
1, 60986, Note_off_c, 0, 80, 56
1, 61047, Note_off_c, 0, 78, 62
1, 61096, Note_on_c, 0, 77, 59
1, 61097, Note_on_c, 0, 68, 80
1, 61119, Note_off_c, 0, 68, 71
1, 61181, Note_off_c, 0, 77, 60
1, 61182, Note_on_c, 0, 75, 59
1, 61300, Note_off_c, 0, 75, 40
1, 61304, Note_on_c, 0, 77, 74
1, 61310, Note_on_c, 0, 63, 78
1, 61524, Note_off_c, 0, 63, 61
1, 61533, Note_on_c, 0, 61, 67
1, 61616, Note_off_c, 0, 61, 63
1, 61628, Note_on_c, 0, 60, 70
1, 61721, Note_off_c, 0, 60, 63
1, 61724, Note_on_c, 0, 61, 78
1, 61760, Note_off_c, 0, 61, 63
1, 61821, Note_off_c, 0, 77, 55
1, 61831, Note_on_c, 0, 75, 51
1, 61930, Note_off_c, 0, 75, 54
1, 61941, Note_on_c, 0, 70, 78
1, 61954, Note_on_c, 0, 73, 56
1, 61966, Note_off_c, 0, 70, 65
1, 62014, Note_off_c, 0, 73, 58
1, 62041, Note_on_c, 0, 77, 54
1, 62141, Note_off_c, 0, 77, 57
1, 62146, Note_on_c, 0, 60, 73
1, 62162, Note_on_c, 0, 75, 49
1, 62196, Note_off_c, 0, 60, 61
1, 62223, Note_off_c, 0, 75, 63
1, 62234, Note_on_c, 0, 73, 51
1, 62312, Note_off_c, 0, 73, 58
1, 62360, Note_on_c, 0, 68, 76
1, 62379, Note_on_c, 0, 72, 50
1, 62404, Note_off_c, 0, 68, 65
1, 62455, Note_off_c, 0, 72, 59
1, 62483, Note_on_c, 0, 75, 46
1, 62574, Note_on_c, 0, 58, 70
1, 62592, Note_on_c, 0, 73, 49
1, 62613, Note_off_c, 0, 58, 60
1, 62624, Note_off_c, 0, 75, 36
1, 62662, Note_off_c, 0, 73, 57
1, 62681, Note_on_c, 0, 72, 52
1, 62763, Note_off_c, 0, 72, 61
1, 62786, Note_on_c, 0, 67, 72
1, 62788, Note_on_c, 0, 73, 60
1, 62824, Note_off_c, 0, 67, 61
1, 62878, Note_off_c, 0, 73, 58
1, 62887, Note_on_c, 0, 70, 54
1, 62924, Note_off_c, 0, 70, 64
1, 62979, Note_on_c, 0, 56, 70
1, 63002, Note_on_c, 0, 70, 66
1, 63021, Note_off_c, 0, 56, 57
1, 63086, Note_on_c, 0, 72, 66
1, 63095, Note_off_c, 0, 70, 59
1, 63121, Note_off_c, 0, 72, 70
1, 63205, Note_on_c, 0, 68, 64
1, 63268, Note_off_c, 0, 68, 62
1, 63285, Note_on_c, 0, 67, 66
1, 63377, Note_off_c, 0, 67, 61
1, 63378, Note_on_c, 0, 68, 78
1, 63393, Note_on_c, 0, 78, 82
1, 63414, Note_off_c, 0, 68, 66
1, 63497, Note_on_c, 0, 70, 64
1, 63587, Note_on_c, 0, 56, 77
1, 63590, Note_off_c, 0, 70, 58
1, 63597, Note_on_c, 0, 72, 69
1, 63624, Note_off_c, 0, 56, 61
1, 63679, Note_off_c, 0, 72, 64
1, 63695, Note_on_c, 0, 68, 67
1, 63784, Note_off_c, 0, 68, 59
1, 63799, Note_on_c, 0, 58, 71
1, 63805, Note_on_c, 0, 73, 66
1, 63859, Note_off_c, 0, 78, 47
1, 63905, Note_off_c, 0, 58, 63
1, 63906, Note_on_c, 0, 56, 69
1, 63906, Note_on_c, 0, 72, 69
1, 63911, Note_off_c, 0, 73, 55
1, 63991, Note_off_c, 0, 72, 64
1, 63994, Note_off_c, 0, 56, 60
1, 64001, Note_on_c, 0, 54, 65
1, 64003, Note_on_c, 0, 70, 73
1, 64073, Note_off_c, 0, 70, 61
1, 64087, Note_off_c, 0, 54, 62
1, 64088, Note_on_c, 0, 56, 76
1, 64100, Note_on_c, 0, 72, 66
1, 64170, Note_off_c, 0, 56, 64
1, 64188, Note_on_c, 0, 65, 80
1, 64196, Note_on_c, 0, 73, 75
1, 64199, Note_on_c, 0, 77, 75
1, 64217, Note_off_c, 0, 72, 49
1, 64220, Note_off_c, 0, 65, 68
1, 64263, Note_off_c, 0, 73, 63
1, 64297, Note_on_c, 0, 72, 53
1, 64399, Note_off_c, 0, 72, 60
1, 64409, Note_on_c, 0, 70, 66
1, 64431, Note_on_c, 0, 61, 67
1, 64458, Note_off_c, 0, 61, 64
1, 64484, Note_off_c, 0, 70, 62
1, 64495, Note_on_c, 0, 68, 66
1, 64568, Note_off_c, 0, 68, 61
1, 64603, Note_on_c, 0, 70, 78
1, 64608, Note_on_c, 0, 56, 81
1, 64670, Note_off_c, 0, 77, 54
1, 64848, Note_off_c, 0, 56, 62
1, 64852, Note_on_c, 0, 54, 66
1, 64934, Note_on_c, 0, 53, 69
1, 64934, Note_off_c, 0, 54, 62
1, 65008, Note_off_c, 0, 70, 58
1, 65024, Note_on_c, 0, 54, 74
1, 65027, Note_off_c, 0, 53, 66
1, 65028, Note_on_c, 0, 75, 88
1, 65065, Note_off_c, 0, 54, 64
1, 65140, Note_on_c, 0, 68, 70
1, 65212, Note_off_c, 0, 68, 63
1, 65239, Note_on_c, 0, 66, 71
1, 65244, Note_on_c, 0, 63, 72
1, 65272, Note_off_c, 0, 63, 67
1, 65328, Note_off_c, 0, 66, 61
1, 65339, Note_on_c, 0, 70, 63
1, 65350, Note_off_c, 0, 75, 57
1, 65445, Note_on_c, 0, 53, 70
1, 65453, Note_on_c, 0, 68, 71
1, 65480, Note_off_c, 0, 70, 62
1, 65486, Note_off_c, 0, 53, 64
1, 65531, Note_off_c, 0, 68, 61
1, 65551, Note_on_c, 0, 66, 66
1, 65620, Note_off_c, 0, 66, 65
1, 65640, Note_on_c, 0, 61, 68
1, 65653, Note_on_c, 0, 73, 68
1, 65655, Note_on_c, 0, 65, 57
1, 65673, Note_off_c, 0, 61, 61
1, 65731, Note_off_c, 0, 73, 64
1, 65739, Note_on_c, 0, 68, 57
1, 65751, Note_off_c, 0, 65, 55
1, 65775, Note_off_c, 0, 68, 66
1, 65835, Note_on_c, 0, 51, 55
1, 65841, Note_on_c, 0, 72, 66
1, 65851, Note_on_c, 0, 66, 74
1, 65878, Note_off_c, 0, 51, 61
1, 65888, Note_off_c, 0, 72, 63
1, 65918, Note_off_c, 0, 66, 66
1, 65942, Note_on_c, 0, 65, 61
1, 65992, Note_off_c, 0, 65, 54
1, 66029, Note_on_c, 0, 60, 56
1, 66030, Note_on_c, 0, 66, 73
1, 66031, Note_on_c, 0, 75, 63
1, 66058, Note_off_c, 0, 60, 61
1, 66085, Note_off_c, 0, 66, 64
1, 66121, Note_on_c, 0, 63, 74
1, 66163, Note_off_c, 0, 63, 62
1, 66218, Note_on_c, 0, 49, 61
1, 66232, Note_on_c, 0, 65, 74
1, 66261, Note_off_c, 0, 49, 62
1, 66302, Note_off_c, 0, 75, 58
1, 66440, Note_on_c, 0, 61, 66
1, 66452, Note_on_c, 0, 68, 76
1, 66482, Note_off_c, 0, 68, 62
1, 66515, Note_off_c, 0, 61, 60
1, 66528, Note_on_c, 0, 60, 63
1, 66618, Note_off_c, 0, 65, 63
1, 66631, Note_on_c, 0, 77, 94
1, 66632, Note_on_c, 0, 61, 73
1, 66634, Note_off_c, 0, 60, 60
1, 66731, Note_off_c, 0, 61, 62
1, 66747, Note_on_c, 0, 63, 65
1, 66818, Note_off_c, 0, 63, 62
1, 66838, Note_on_c, 0, 68, 80
1, 66839, Note_on_c, 0, 65, 61
1, 66878, Note_off_c, 0, 68, 62
1, 66916, Note_off_c, 0, 65, 51
1, 66936, Note_on_c, 0, 61, 58
1, 67037, Note_off_c, 0, 61, 60
1, 67051, Note_on_c, 0, 58, 61
1, 67054, Note_on_c, 0, 73, 84
1, 67071, Note_off_c, 0, 77, 38
1, 67141, Note_off_c, 0, 58, 65
1, 67151, Note_on_c, 0, 60, 70
1, 67233, Note_off_c, 0, 60, 61
1, 67257, Note_off_c, 0, 73, 62
1, 67260, Note_on_c, 0, 61, 69
1, 67263, Note_on_c, 0, 77, 74
1, 67313, Note_off_c, 0, 61, 51
1, 67347, Note_on_c, 0, 58, 59
1, 67354, Note_on_c, 0, 73, 75
1, 67354, Note_off_c, 0, 77, 59
1, 67435, Note_off_c, 0, 58, 62
1, 67454, Note_off_c, 0, 73, 63
1, 67456, Note_on_c, 0, 55, 63
1, 67459, Note_on_c, 0, 70, 71
1, 67539, Note_off_c, 0, 55, 63
1, 67551, Note_on_c, 0, 56, 66
1, 67656, Note_off_c, 0, 70, 60
1, 67659, Note_on_c, 0, 58, 63
1, 67674, Note_on_c, 0, 73, 68
1, 67683, Note_off_c, 0, 56, 58
1, 67725, Note_off_c, 0, 58, 63
1, 67757, Note_on_c, 0, 55, 58
1, 67767, Note_on_c, 0, 70, 67
1, 67775, Note_off_c, 0, 73, 61
1, 67811, Note_off_c, 0, 55, 57
1, 67821, Note_off_c, 0, 70, 59
1, 67853, Note_on_c, 0, 63, 73
1, 67857, Note_on_c, 0, 48, 66
1, 67886, Note_off_c, 0, 48, 65
1, 68082, Note_on_c, 0, 60, 49
1, 68083, Note_on_c, 0, 70, 67
1, 68111, Note_off_c, 0, 70, 65
1, 68140, Note_off_c, 0, 60, 53
1, 68169, Note_on_c, 0, 58, 47
1, 68250, Note_off_c, 0, 58, 64
1, 68272, Note_off_c, 0, 63, 62
1, 68273, Note_on_c, 0, 60, 46
1, 68289, Note_on_c, 0, 75, 78
1, 68370, Note_off_c, 0, 60, 57
1, 68382, Note_on_c, 0, 61, 44
1, 68480, Note_off_c, 0, 61, 61
1, 68484, Note_on_c, 0, 63, 54
1, 68502, Note_on_c, 0, 67, 68
1, 68531, Note_off_c, 0, 67, 65
1, 68542, Note_off_c, 0, 63, 64
1, 68587, Note_on_c, 0, 60, 47
1, 68640, Note_off_c, 0, 60, 55
1, 68683, Note_off_c, 0, 75, 53
1, 68695, Note_on_c, 0, 56, 57
1, 68708, Note_on_c, 0, 72, 75
1, 68783, Note_off_c, 0, 56, 63
1, 68807, Note_on_c, 0, 58, 58
1, 68884, Note_off_c, 0, 58, 65
1, 68914, Note_on_c, 0, 60, 53
1, 68915, Note_off_c, 0, 72, 62
1, 68926, Note_on_c, 0, 75, 67
1, 68961, Note_off_c, 0, 60, 57
1, 69009, Note_on_c, 0, 56, 56
1, 69015, Note_off_c, 0, 75, 61
1, 69021, Note_on_c, 0, 72, 67
1, 69091, Note_off_c, 0, 72, 63
1, 69096, Note_off_c, 0, 56, 63
1, 69123, Note_on_c, 0, 53, 59
1, 69123, Note_on_c, 0, 68, 59
1, 69210, Note_off_c, 0, 53, 65
1, 69230, Note_on_c, 0, 55, 49
1, 69296, Note_off_c, 0, 55, 60
1, 69307, Note_off_c, 0, 68, 61
1, 69316, Note_on_c, 0, 56, 61
1, 69334, Note_on_c, 0, 72, 57
1, 69376, Note_off_c, 0, 56, 62
1, 69401, Note_off_c, 0, 72, 62
1, 69415, Note_on_c, 0, 68, 61
1, 69431, Note_on_c, 0, 53, 45
1, 69470, Note_off_c, 0, 68, 61
1, 69475, Note_off_c, 0, 53, 64
1, 69507, Note_on_c, 0, 46, 69
1, 69512, Note_on_c, 0, 61, 62
1, 69542, Note_off_c, 0, 46, 60
1, 69725, Note_on_c, 0, 68, 64
1, 69731, Note_on_c, 0, 58, 52
1, 69754, Note_off_c, 0, 68, 65
1, 69799, Note_off_c, 0, 58, 57
1, 69818, Note_on_c, 0, 56, 56
1, 69916, Note_off_c, 0, 56, 62
1, 69922, Note_off_c, 0, 61, 61
1, 69934, Note_on_c, 0, 58, 55
1, 69938, Note_on_c, 0, 73, 74
1, 70017, Note_off_c, 0, 58, 65
1, 70034, Note_on_c, 0, 60, 55
1, 70122, Note_off_c, 0, 60, 62
1, 70136, Note_on_c, 0, 61, 63
1, 70146, Note_on_c, 0, 65, 71
1, 70180, Note_off_c, 0, 65, 64
1, 70184, Note_off_c, 0, 61, 55
1, 70229, Note_on_c, 0, 58, 48
1, 70296, Note_off_c, 0, 58, 57
1, 70344, Note_on_c, 0, 55, 49
1, 70348, Note_on_c, 0, 70, 72
1, 70363, Note_off_c, 0, 73, 57
1, 70433, Note_off_c, 0, 55, 61
1, 70445, Note_on_c, 0, 72, 72
1, 70462, Note_on_c, 0, 56, 42
1, 70484, Note_off_c, 0, 70, 57
1, 70536, Note_off_c, 0, 56, 55
1, 70541, Note_on_c, 0, 58, 62
1, 70551, Note_on_c, 0, 73, 78
1, 70554, Note_off_c, 0, 72, 64
1, 70589, Note_off_c, 0, 73, 62
1, 70608, Note_off_c, 0, 58, 65
1, 70638, Note_on_c, 0, 70, 79
1, 70645, Note_on_c, 0, 55, 61
1, 70716, Note_off_c, 0, 70, 61
1, 70718, Note_off_c, 0, 55, 57
1, 70747, Note_on_c, 0, 51, 57
1, 70752, Note_on_c, 0, 82, 90
1, 70828, Note_off_c, 0, 51, 61
1, 70849, Note_on_c, 0, 73, 79
1, 70849, Note_on_c, 0, 53, 61
1, 70898, Note_off_c, 0, 53, 66
1, 70936, Note_on_c, 0, 55, 50
1, 70953, Note_on_c, 0, 75, 74
1, 70958, Note_off_c, 0, 73, 63
1, 71002, Note_off_c, 0, 55, 56
1, 71009, Note_off_c, 0, 75, 60
1, 71020, Note_on_c, 0, 51, 56
1, 71034, Note_on_c, 0, 70, 76
1, 71072, Note_off_c, 0, 70, 65
1, 71080, Note_off_c, 0, 82, 58
1, 71089, Note_off_c, 0, 51, 59
1, 71128, Note_on_c, 0, 44, 68
1, 71140, Note_on_c, 0, 72, 85
1, 71147, Control_c, 0, 64, 61
1, 71162, Control_c, 0, 64, 71
1, 71168, Note_off_c, 0, 44, 65
1, 71176, Control_c, 0, 64, 82
1, 71191, Control_c, 0, 64, 92
1, 71206, Control_c, 0, 64, 98
1, 71221, Control_c, 0, 64, 101
1, 71235, Control_c, 0, 64, 104
1, 71242, Note_on_c, 0, 80, 71
1, 71250, Control_c, 0, 64, 106
1, 71265, Control_c, 0, 64, 106
1, 71275, Note_off_c, 0, 72, 58
1, 71280, Control_c, 0, 64, 107
1, 71295, Control_c, 0, 64, 106
1, 71309, Control_c, 0, 64, 105
1, 71319, Note_off_c, 0, 80, 63
1, 71322, Note_on_c, 0, 56, 71
1, 71324, Control_c, 0, 64, 98
1, 71335, Note_on_c, 0, 79, 76
1, 71339, Control_c, 0, 64, 87
1, 71361, Control_c, 0, 64, 73
1, 71376, Control_c, 0, 64, 50
1, 71391, Control_c, 0, 64, 0
1, 71429, Note_off_c, 0, 79, 62
1, 71430, Note_off_c, 0, 56, 60
1, 71430, Note_on_c, 0, 58, 72
1, 71436, Note_on_c, 0, 82, 77
1, 71509, Note_off_c, 0, 58, 61
1, 71519, Note_on_c, 0, 60, 77
1, 71542, Note_on_c, 0, 80, 74
1, 71570, Note_off_c, 0, 60, 61
1, 71579, Note_off_c, 0, 82, 58
1, 71624, Note_off_c, 0, 80, 62
1, 71628, Note_on_c, 0, 75, 71
1, 71727, Note_on_c, 0, 77, 72
1, 71728, Note_on_c, 0, 68, 80
1, 71728, Note_off_c, 0, 75, 62
1, 71734, Note_on_c, 0, 56, 61
1, 71764, Note_off_c, 0, 56, 61
1, 71825, Note_off_c, 0, 77, 54
1, 71835, Note_on_c, 0, 78, 73
1, 71925, Note_on_c, 0, 61, 78
1, 71930, Note_off_c, 0, 78, 63
1, 71931, Note_off_c, 0, 68, 60
1, 71938, Note_on_c, 0, 77, 85
1, 72029, Note_on_c, 0, 67, 68
1, 72037, Note_on_c, 0, 75, 83
1, 72042, Note_off_c, 0, 77, 57
1, 72129, Note_off_c, 0, 75, 63
1, 72130, Note_off_c, 0, 61, 54
1, 72134, Note_off_c, 0, 67, 61
1, 72139, Note_on_c, 0, 73, 81
1, 72146, Note_on_c, 0, 65, 65
1, 72236, Note_off_c, 0, 65, 65
1, 72237, Note_off_c, 0, 73, 63
1, 72244, Note_on_c, 0, 75, 77
1, 72248, Note_on_c, 0, 67, 66
1, 72333, Note_off_c, 0, 67, 62
1, 72333, Note_on_c, 0, 84, 85
1, 72337, Note_off_c, 0, 75, 62
1, 72345, Note_on_c, 0, 68, 75
1, 72366, Note_off_c, 0, 84, 65
1, 72384, Note_on_c, 0, 60, 49
1, 72397, Note_off_c, 0, 68, 59
1, 72452, Note_on_c, 0, 66, 59
1, 72521, Note_off_c, 0, 66, 65
1, 72536, Note_off_c, 0, 60, 61
1, 72552, Note_on_c, 0, 80, 85
1, 72558, Note_on_c, 0, 65, 65
1, 72585, Note_off_c, 0, 80, 65
1, 72638, Note_off_c, 0, 65, 63
1, 72642, Note_on_c, 0, 63, 74
1, 72742, Note_off_c, 0, 63, 63
1, 72761, Note_on_c, 0, 58, 75
1, 72764, Note_on_c, 0, 65, 79
1, 72765, Note_on_c, 0, 75, 92
1, 72798, Note_off_c, 0, 58, 61
1, 72983, Note_on_c, 0, 56, 62
1, 72985, Note_on_c, 0, 73, 77
1, 73018, Note_off_c, 0, 56, 60
1, 73018, Note_off_c, 0, 75, 59
1, 73060, Note_off_c, 0, 73, 60
1, 73081, Note_on_c, 0, 72, 70
1, 73135, Note_off_c, 0, 65, 55
1, 73156, Note_off_c, 0, 72, 57
1, 73187, Note_on_c, 0, 55, 71
1, 73187, Note_on_c, 0, 73, 82
1, 73240, Note_off_c, 0, 73, 60
1, 73278, Note_on_c, 0, 63, 74
1, 73388, Note_off_c, 0, 55, 43
1, 73393, Note_on_c, 0, 61, 67
1, 73394, Note_on_c, 0, 82, 85
1, 73395, Note_off_c, 0, 63, 64
1, 73442, Note_off_c, 0, 82, 64
1, 73452, Note_off_c, 0, 61, 63
1, 73478, Note_on_c, 0, 65, 61
1, 73555, Note_off_c, 0, 65, 62
1, 73589, Note_on_c, 0, 63, 61
1, 73591, Note_on_c, 0, 72, 77
1, 73595, Note_on_c, 0, 56, 54
1, 73645, Note_off_c, 0, 72, 64
1, 73667, Note_off_c, 0, 56, 63
1, 73682, Note_on_c, 0, 61, 62
1, 73688, Note_off_c, 0, 63, 60
1, 73781, Note_on_c, 0, 60, 56
1, 73782, Note_off_c, 0, 61, 51
1, 73797, Note_on_c, 0, 80, 84
1, 73854, Note_off_c, 0, 80, 65
1, 73856, Note_off_c, 0, 60, 62
1, 73889, Note_on_c, 0, 63, 65
1, 73940, Note_off_c, 0, 63, 61
1, 73996, Note_on_c, 0, 61, 65
1, 73999, Note_on_c, 0, 70, 84
1, 74017, Note_on_c, 0, 51, 61
1, 74040, Note_off_c, 0, 70, 64
1, 74047, Note_off_c, 0, 61, 56
1, 74107, Note_on_c, 0, 60, 54
1, 74193, Note_off_c, 0, 60, 60
1, 74196, Note_on_c, 0, 61, 62
1, 74205, Note_on_c, 0, 79, 72
1, 74253, Note_off_c, 0, 51, 57
1, 74263, Note_off_c, 0, 79, 61
1, 74289, Note_on_c, 0, 58, 69
1, 74298, Note_off_c, 0, 61, 62
1, 74327, Note_off_c, 0, 58, 65
1, 74411, Note_on_c, 0, 68, 75
1, 74414, Note_on_c, 0, 60, 70
1, 74420, Note_on_c, 0, 56, 55
1, 74454, Note_off_c, 0, 60, 59
1, 74505, Note_on_c, 0, 70, 69
1, 74505, Note_off_c, 0, 68, 61
1, 74599, Note_off_c, 0, 70, 44
1, 74602, Note_off_c, 0, 56, 0
1, 74602, Note_on_c, 0, 56, 2
1, 74609, Note_on_c, 0, 63, 69
1, 74614, Note_on_c, 0, 72, 72
1, 74653, Note_off_c, 0, 63, 61
1, 74715, Note_on_c, 0, 73, 74
1, 74717, Note_off_c, 0, 72, 63
1, 74814, Note_on_c, 0, 72, 73
1, 74816, Note_off_c, 0, 73, 60
1, 74821, Note_on_c, 0, 68, 74
1, 74884, Note_off_c, 0, 56, 38
1, 74909, Note_on_c, 0, 70, 72
1, 74909, Note_off_c, 0, 72, 63
1, 74992, Note_off_c, 0, 68, 0
1, 75004, Note_on_c, 0, 68, 57
1, 75007, Note_on_c, 0, 63, 60
1, 75013, Note_off_c, 0, 70, 60
1, 75072, Note_on_c, 0, 60, 58
1, 75082, Note_off_c, 0, 63, 60
1, 75118, Note_on_c, 0, 72, 67
1, 75138, Note_off_c, 0, 68, 58
1, 75196, Note_on_c, 0, 56, 71
1, 75210, Note_off_c, 0, 72, 65
1, 75211, Note_off_c, 0, 60, 57
1, 75216, Note_on_c, 0, 77, 72
1, 75290, Note_off_c, 0, 56, 63
1, 75328, Note_on_c, 0, 75, 66
1, 75348, Note_off_c, 0, 77, 55
1, 75406, Note_on_c, 0, 59, 60
1, 75408, Note_off_c, 0, 75, 64
1, 75419, Note_on_c, 0, 74, 69
1, 75493, Note_off_c, 0, 59, 58
1, 75498, Note_on_c, 0, 56, 59
1, 75508, Note_on_c, 0, 77, 72
1, 75514, Note_off_c, 0, 74, 62
1, 75588, Note_off_c, 0, 77, 61
1, 75601, Note_on_c, 0, 80, 73
1, 75602, Note_on_c, 0, 53, 66
1, 75603, Note_off_c, 0, 56, 62
1, 75651, Note_off_c, 0, 53, 66
1, 75696, Note_on_c, 0, 78, 76
1, 75707, Note_off_c, 0, 80, 61
1, 75761, Note_off_c, 0, 78, 62
1, 75780, Note_on_c, 0, 77, 69
1, 75785, Note_on_c, 0, 56, 60
1, 75836, Note_off_c, 0, 56, 56
1, 75866, Note_on_c, 0, 80, 45
1, 75867, Note_off_c, 0, 80, 127
1, 75869, Note_off_c, 0, 77, 59
1, 75880, Note_on_c, 0, 53, 43
1, 75892, Note_on_c, 0, 79, 34
1, 75925, Note_off_c, 0, 79, 35
1, 75954, Note_on_c, 0, 80, 85
1, 75965, Note_off_c, 0, 53, 60
1, 75988, Note_on_c, 0, 82, 69
1, 75988, Control_c, 0, 64, 53
1, 75991, Note_on_c, 0, 50, 52
1, 76003, Control_c, 0, 64, 66
1, 76018, Control_c, 0, 64, 71
1, 76022, Note_off_c, 0, 80, 62
1, 76032, Control_c, 0, 64, 75
1, 76039, Note_on_c, 0, 83, 79
1, 76047, Control_c, 0, 64, 76
1, 76061, Note_off_c, 0, 82, 61
1, 76062, Control_c, 0, 64, 75
1, 76077, Control_c, 0, 64, 71
1, 76092, Control_c, 0, 64, 56
1, 76107, Control_c, 0, 64, 0
1, 76211, Control_c, 0, 64, 43
1, 76213, Note_on_c, 0, 53, 60
1, 76215, Note_on_c, 0, 82, 74
1, 76225, Control_c, 0, 64, 65
1, 76229, Note_off_c, 0, 83, 52
1, 76240, Control_c, 0, 64, 71
1, 76255, Control_c, 0, 64, 77
1, 76270, Control_c, 0, 64, 81
1, 76285, Control_c, 0, 64, 82
1, 76299, Control_c, 0, 64, 83
1, 76305, Note_off_c, 0, 82, 62
1, 76311, Note_on_c, 0, 56, 63
1, 76314, Control_c, 0, 64, 83
1, 76336, Note_on_c, 0, 79, 19
1, 76336, Note_off_c, 0, 53, 60
1, 76359, Control_c, 0, 64, 83
1, 76373, Control_c, 0, 64, 78
1, 76377, Note_off_c, 0, 79, 29
1, 76378, Note_off_c, 0, 50, 28
1, 76378, Note_off_c, 0, 56, 61
1, 76388, Control_c, 0, 64, 69
1, 76391, Note_on_c, 0, 59, 66
1, 76403, Control_c, 0, 64, 13
1, 76409, Note_on_c, 0, 78, 77
1, 76418, Control_c, 0, 64, 0
1, 76471, Note_off_c, 0, 78, 60
1, 76504, Note_on_c, 0, 77, 71
1, 76603, Note_off_c, 0, 77, 61
1, 76607, Note_on_c, 0, 75, 67
1, 76620, Note_on_c, 0, 53, 47
1, 76654, Note_off_c, 0, 53, 64
1, 76691, Note_off_c, 0, 75, 64
1, 76698, Note_on_c, 0, 74, 67
1, 76807, Note_on_c, 0, 75, 69
1, 76810, Note_on_c, 0, 58, 62
1, 76810, Note_off_c, 0, 74, 59
1, 76816, Note_off_c, 0, 59, 46
1, 76816, Note_on_c, 0, 54, 58
1, 76905, Note_off_c, 0, 75, 61
1, 76910, Note_on_c, 0, 78, 68
1, 76981, Note_off_c, 0, 58, 55
1, 76996, Note_off_c, 0, 54, 54
1, 77013, Note_on_c, 0, 77, 72
1, 77014, Note_on_c, 0, 56, 60
1, 77025, Note_on_c, 0, 59, 51
1, 77031, Note_off_c, 0, 78, 49
1, 77053, Note_off_c, 0, 59, 58
1, 77072, Note_off_c, 0, 56, 58
1, 77105, Note_on_c, 0, 75, 70
1, 77117, Note_off_c, 0, 77, 57
1, 77213, Note_on_c, 0, 58, 72
1, 77213, Note_on_c, 0, 74, 71
1, 77225, Note_off_c, 0, 75, 56
1, 77246, Note_off_c, 0, 58, 64
1, 77278, Note_off_c, 0, 74, 64
1, 77311, Note_on_c, 0, 77, 66
1, 77422, Note_off_c, 0, 77, 58
1, 77427, Note_on_c, 0, 46, 67
1, 77432, Note_on_c, 0, 70, 68
1, 77444, Note_on_c, 0, 50, 51
1, 77467, Note_off_c, 0, 46, 58
1, 77469, Note_off_c, 0, 50, 57
1, 77496, Note_off_c, 0, 70, 61
1, 77526, Note_on_c, 0, 68, 60
1, 77602, Note_off_c, 0, 68, 58
1, 77642, Note_on_c, 0, 39, 54
1, 77645, Note_on_c, 0, 51, 52
1, 77645, Note_on_c, 0, 66, 61
1, 77732, Note_off_c, 0, 66, 66
1, 77746, Note_on_c, 0, 65, 61
1, 77851, Note_on_c, 0, 63, 65
1, 77851, Note_off_c, 0, 65, 63
1, 77930, Note_off_c, 0, 39, 59
1, 77930, Note_off_c, 0, 63, 63
1, 77952, Note_on_c, 0, 62, 58
1, 77978, Note_off_c, 0, 51, 60
1, 78009, Note_off_c, 0, 62, 60
1, 78055, Note_on_c, 0, 63, 64
1, 78122, Note_off_c, 0, 63, 63
1, 78161, Note_on_c, 0, 65, 53
1, 78217, Note_off_c, 0, 65, 53
1, 78238, Note_on_c, 0, 51, 59
1, 78251, Note_on_c, 0, 66, 52
1, 78273, Note_off_c, 0, 51, 62
1, 78303, Note_off_c, 0, 66, 57
1, 78355, Note_on_c, 0, 68, 41
1, 78426, Control_c, 0, 67, 8
1, 78429, Note_off_c, 0, 68, 48
1, 78441, Control_c, 0, 67, 23
1, 78456, Control_c, 0, 67, 60
1, 78458, Note_on_c, 0, 54, 53
1, 78462, Note_on_c, 0, 70, 51
1, 78471, Control_c, 0, 67, 106
1, 78486, Control_c, 0, 67, 127
1, 78535, Note_off_c, 0, 54, 60
1, 78551, Note_off_c, 0, 70, 56
1, 78555, Note_on_c, 0, 68, 48
1, 78560, Note_on_c, 0, 53, 55
1, 78626, Note_off_c, 0, 68, 61
1, 78635, Note_off_c, 0, 53, 64
1, 78650, Note_on_c, 0, 66, 53
1, 78667, Note_on_c, 0, 51, 53
1, 78727, Note_off_c, 0, 66, 61
1, 78747, Note_off_c, 0, 51, 58
1, 78753, Note_on_c, 0, 53, 60
1, 78754, Note_on_c, 0, 68, 50
1, 78812, Note_off_c, 0, 68, 53
1, 78825, Note_off_c, 0, 53, 65
1, 78855, Note_on_c, 0, 61, 75
1, 78867, Note_on_c, 0, 70, 56
1, 78882, Note_off_c, 0, 61, 64
1, 78963, Note_off_c, 0, 70, 55
1, 78968, Note_on_c, 0, 68, 46
1, 79064, Note_off_c, 0, 68, 60
1, 79067, Note_on_c, 0, 58, 70
1, 79071, Note_on_c, 0, 66, 54
1, 79096, Note_off_c, 0, 58, 67
1, 79121, Note_off_c, 0, 66, 60
1, 79168, Note_on_c, 0, 65, 54
1, 79270, Note_on_c, 0, 53, 65
1, 79271, Note_off_c, 0, 65, 52
1, 79282, Note_on_c, 0, 66, 59
1, 79484, Note_off_c, 0, 53, 60
1, 79499, Note_on_c, 0, 51, 61
1, 79581, Note_off_c, 0, 51, 63
1, 79604, Note_on_c, 0, 49, 58
1, 79688, Note_off_c, 0, 49, 62
1, 79694, Note_on_c, 0, 51, 66
1, 79717, Note_off_c, 0, 51, 58
1, 79792, Note_on_c, 0, 65, 49
1, 79793, Note_off_c, 0, 66, 56
1, 79874, Note_off_c, 0, 65, 63
1, 79903, Note_on_c, 0, 63, 57
1, 79908, Note_on_c, 0, 60, 61
1, 79940, Note_off_c, 0, 60, 63
1, 79979, Note_off_c, 0, 63, 62
1, 80007, Note_on_c, 0, 66, 53
1, 80111, Note_on_c, 0, 49, 65
1, 80116, Note_off_c, 0, 66, 57
1, 80128, Note_on_c, 0, 65, 53
1, 80146, Note_off_c, 0, 49, 61
1, 80186, Note_off_c, 0, 65, 64
1, 80215, Note_on_c, 0, 63, 53
1, 80301, Note_off_c, 0, 63, 58
1, 80313, Note_on_c, 0, 58, 64
1, 80326, Note_on_c, 0, 61, 58
1, 80349, Note_off_c, 0, 58, 66
1, 80405, Note_off_c, 0, 61, 59
1, 80423, Note_on_c, 0, 65, 49
1, 80534, Note_on_c, 0, 48, 70
1, 80540, Note_off_c, 0, 65, 60
1, 80546, Note_on_c, 0, 63, 49
1, 80569, Note_off_c, 0, 48, 64
1, 80624, Note_off_c, 0, 63, 63
1, 80632, Note_on_c, 0, 61, 55
1, 80742, Note_on_c, 0, 57, 60
1, 80747, Control_c, 0, 67, 118
1, 80748, Note_off_c, 0, 61, 55
1, 80757, Note_on_c, 0, 63, 58
1, 80762, Control_c, 0, 67, 70
1, 80776, Control_c, 0, 67, 0
1, 80778, Note_off_c, 0, 57, 61
1, 80799, Note_off_c, 0, 63, 62
1, 80827, Note_on_c, 0, 60, 56
1, 80893, Note_off_c, 0, 60, 59
1, 80947, Note_on_c, 0, 46, 68
1, 80947, Note_on_c, 0, 61, 68
1, 80995, Note_off_c, 0, 46, 59
1, 81009, Note_off_c, 0, 61, 62
1, 81047, Note_on_c, 0, 65, 67
1, 81144, Note_off_c, 0, 65, 58
1, 81152, Note_on_c, 0, 66, 71
1, 81158, Note_on_c, 0, 58, 64
1, 81240, Note_off_c, 0, 58, 62
1, 81246, Note_off_c, 0, 66, 58
1, 81250, Note_on_c, 0, 65, 76
1, 81261, Note_on_c, 0, 57, 53
1, 81338, Note_off_c, 0, 65, 62
1, 81351, Note_on_c, 0, 73, 89
1, 81353, Note_off_c, 0, 57, 59
1, 81362, Note_on_c, 0, 58, 65
1, 81449, Note_off_c, 0, 58, 62
1, 81467, Note_on_c, 0, 60, 54
1, 81544, Note_off_c, 0, 60, 62
1, 81558, Note_on_c, 0, 61, 67
1, 81563, Note_on_c, 0, 65, 74
1, 81601, Note_off_c, 0, 61, 59
1, 81601, Note_off_c, 0, 65, 65
1, 81654, Note_on_c, 0, 58, 49
1, 81717, Note_off_c, 0, 58, 55
1, 81759, Note_on_c, 0, 55, 57
1, 81777, Note_on_c, 0, 70, 76
1, 81783, Note_off_c, 0, 73, 57
1, 81869, Note_off_c, 0, 55, 56
1, 81877, Note_on_c, 0, 72, 72
1, 81887, Note_on_c, 0, 56, 44
1, 81912, Note_off_c, 0, 70, 61
1, 81969, Note_off_c, 0, 56, 56
1, 81973, Note_on_c, 0, 58, 63
1, 81984, Note_on_c, 0, 73, 77
1, 81988, Note_off_c, 0, 72, 64
1, 82036, Note_off_c, 0, 73, 61
1, 82036, Note_off_c, 0, 58, 65
1, 82073, Note_on_c, 0, 70, 78
1, 82077, Note_on_c, 0, 55, 56
1, 82131, Note_off_c, 0, 55, 56
1, 82141, Note_off_c, 0, 70, 62
1, 82177, Note_on_c, 0, 51, 56
1, 82178, Note_on_c, 0, 82, 89
1, 82257, Note_off_c, 0, 51, 58
1, 82280, Note_on_c, 0, 53, 58
1, 82281, Note_on_c, 0, 73, 73
1, 82339, Note_off_c, 0, 53, 64
1, 82372, Note_on_c, 0, 55, 51
1, 82379, Note_on_c, 0, 75, 75
1, 82384, Note_off_c, 0, 73, 62
1, 82404, Note_off_c, 0, 82, 46
1, 82449, Note_off_c, 0, 55, 61
1, 82451, Note_on_c, 0, 51, 52
1, 82462, Note_on_c, 0, 70, 73
1, 82466, Note_off_c, 0, 75, 62
1, 82529, Note_off_c, 0, 70, 62
1, 82544, Note_off_c, 0, 51, 62
1, 82571, Note_on_c, 0, 44, 62
1, 82576, Note_on_c, 0, 72, 76
1, 82608, Control_c, 0, 64, 10
1, 82620, Note_off_c, 0, 44, 64
1, 82623, Control_c, 0, 64, 65
1, 82638, Control_c, 0, 64, 74
1, 82643, Note_off_c, 0, 72, 65
1, 82653, Control_c, 0, 64, 84
1, 82667, Control_c, 0, 64, 90
1, 82680, Note_on_c, 0, 63, 69
1, 82681, Control_c, 0, 64, 93
1, 82696, Control_c, 0, 64, 94
1, 82755, Control_c, 0, 64, 91
1, 82769, Note_off_c, 0, 63, 63
1, 82770, Control_c, 0, 64, 84
1, 82775, Note_on_c, 0, 65, 72
1, 82778, Note_on_c, 0, 56, 59
1, 82785, Control_c, 0, 64, 70
1, 82799, Control_c, 0, 64, 0
1, 82854, Note_off_c, 0, 56, 59
1, 82865, Note_off_c, 0, 65, 65
1, 82877, Note_on_c, 0, 63, 68
1, 82883, Note_on_c, 0, 55, 41
1, 82951, Note_off_c, 0, 63, 59
1, 82974, Note_off_c, 0, 55, 62
1, 82979, Note_on_c, 0, 56, 61
1, 82986, Note_on_c, 0, 72, 75
1, 83068, Note_off_c, 0, 56, 61
1, 83082, Note_on_c, 0, 58, 57
1, 83167, Note_off_c, 0, 58, 64
1, 83196, Note_on_c, 0, 63, 72
1, 83202, Note_on_c, 0, 60, 50
1, 83228, Note_off_c, 0, 63, 64
1, 83248, Note_off_c, 0, 60, 57
1, 83291, Note_on_c, 0, 56, 45
1, 83378, Note_off_c, 0, 56, 60
1, 83386, Note_off_c, 0, 72, 53
1, 83406, Note_on_c, 0, 53, 51
1, 83410, Note_on_c, 0, 68, 71
1, 83485, Note_off_c, 0, 53, 61
1, 83504, Note_on_c, 0, 70, 68
1, 83518, Note_off_c, 0, 68, 64
1, 83522, Note_on_c, 0, 55, 36
1, 83568, Note_off_c, 0, 55, 62
1, 83590, Note_on_c, 0, 56, 60
1, 83617, Note_on_c, 0, 72, 65
1, 83624, Note_off_c, 0, 70, 63
1, 83649, Note_off_c, 0, 72, 67
1, 83655, Note_off_c, 0, 56, 63
1, 83689, Note_on_c, 0, 68, 76
1, 83706, Note_on_c, 0, 53, 50
1, 83763, Note_off_c, 0, 53, 56
1, 83770, Note_off_c, 0, 68, 61
1, 83801, Note_on_c, 0, 49, 56
1, 83803, Note_on_c, 0, 80, 83
1, 83900, Note_off_c, 0, 49, 59
1, 83905, Note_on_c, 0, 72, 63
1, 83909, Note_on_c, 0, 51, 55
1, 83962, Note_off_c, 0, 51, 59
1, 83997, Note_on_c, 0, 53, 46
1, 84005, Note_on_c, 0, 73, 71
1, 84011, Note_off_c, 0, 72, 60
1, 84046, Note_off_c, 0, 80, 61
1, 84069, Note_on_c, 0, 49, 53
1, 84069, Note_off_c, 0, 53, 59
1, 84105, Note_on_c, 0, 68, 60
1, 84122, Note_off_c, 0, 73, 56
1, 84173, Note_off_c, 0, 68, 63
1, 84177, Note_off_c, 0, 49, 59
1, 84200, Note_on_c, 0, 43, 53
1, 84209, Note_on_c, 0, 70, 64
1, 84237, Note_off_c, 0, 43, 61
1, 84238, Control_c, 0, 64, 60
1, 84253, Control_c, 0, 64, 71
1, 84263, Note_off_c, 0, 70, 58
1, 84268, Control_c, 0, 64, 81
1, 84283, Control_c, 0, 64, 90
1, 84298, Control_c, 0, 64, 93
1, 84307, Note_on_c, 0, 61, 64
1, 84312, Control_c, 0, 64, 94
1, 84357, Control_c, 0, 64, 92
1, 84371, Control_c, 0, 64, 84
1, 84377, Note_off_c, 0, 61, 52
1, 84386, Control_c, 0, 64, 71
1, 84401, Control_c, 0, 64, 0
1, 84404, Note_on_c, 0, 55, 41
1, 84409, Note_on_c, 0, 63, 55
1, 84469, Note_off_c, 0, 55, 58
1, 84482, Note_off_c, 0, 63, 61
1, 84501, Note_on_c, 0, 61, 58
1, 84504, Note_on_c, 0, 53, 42
1, 84555, Note_off_c, 0, 53, 65
1, 84582, Note_off_c, 0, 61, 58
1, 84595, Note_on_c, 0, 55, 48
1, 84617, Note_on_c, 0, 70, 67
1, 84680, Note_off_c, 0, 55, 57
1, 84697, Note_on_c, 0, 56, 42
1, 84745, Note_off_c, 0, 56, 54
1, 84801, Note_on_c, 0, 58, 51
1, 84844, Note_on_c, 0, 61, 60
1, 84872, Note_off_c, 0, 58, 64
1, 84878, Note_off_c, 0, 61, 61
1, 84918, Note_on_c, 0, 55, 41
1, 84975, Note_off_c, 0, 55, 53
1, 85019, Note_off_c, 0, 70, 62
1, 85042, Note_on_c, 0, 52, 48
1, 85049, Note_on_c, 0, 67, 64
1, 85129, Note_off_c, 0, 67, 59
1, 85136, Note_off_c, 0, 52, 53
1, 85138, Note_on_c, 0, 68, 66
1, 85148, Note_on_c, 0, 53, 50
1, 85199, Note_off_c, 0, 53, 63
1, 85233, Note_on_c, 0, 55, 52
1, 85235, Note_on_c, 0, 70, 73
1, 85241, Note_off_c, 0, 68, 62
1, 85290, Note_off_c, 0, 55, 55
1, 85299, Note_off_c, 0, 70, 62
1, 85332, Note_on_c, 0, 52, 53
1, 85332, Note_on_c, 0, 67, 68
1, 85405, Note_off_c, 0, 67, 60
1, 85410, Note_off_c, 0, 52, 63
1, 85443, Note_on_c, 0, 48, 58
1, 85443, Note_on_c, 0, 79, 80
1, 85520, Note_off_c, 0, 48, 62
1, 85539, Note_on_c, 0, 70, 67
1, 85547, Note_on_c, 0, 50, 43
1, 85630, Note_on_c, 0, 52, 59
1, 85646, Note_on_c, 0, 72, 68
1, 85647, Note_off_c, 0, 70, 62
1, 85666, Note_off_c, 0, 50, 37
1, 85677, Note_off_c, 0, 52, 62
1, 85697, Note_off_c, 0, 72, 57
1, 85705, Note_off_c, 0, 79, 55
1, 85726, Note_on_c, 0, 67, 76
1, 85738, Note_on_c, 0, 48, 60
1, 85756, Note_off_c, 0, 67, 63
1, 85775, Note_on_c, 0, 79, 34
1, 85815, Note_off_c, 0, 48, 54
1, 85837, Note_on_c, 0, 41, 59
1, 85845, Note_on_c, 0, 68, 79
1, 85869, Note_off_c, 0, 79, 56
1, 85930, Note_off_c, 0, 41, 62
1, 85941, Note_on_c, 0, 43, 57
1, 85944, Note_on_c, 0, 76, 71
1, 86022, Note_off_c, 0, 43, 60
1, 86029, Note_on_c, 0, 44, 64
1, 86033, Note_off_c, 0, 76, 66
1, 86041, Note_on_c, 0, 77, 73
1, 86120, Note_off_c, 0, 44, 64
1, 86123, Note_on_c, 0, 46, 68
1, 86133, Note_on_c, 0, 73, 74
1, 86142, Note_off_c, 0, 77, 59
1, 86153, Note_off_c, 0, 68, 61
1, 86199, Note_off_c, 0, 46, 62
1, 86223, Note_on_c, 0, 48, 60
1, 86226, Note_off_c, 0, 73, 61
1, 86239, Note_on_c, 0, 70, 79
1, 86310, Note_on_c, 0, 50, 68
1, 86312, Note_off_c, 0, 48, 59
1, 86409, Note_off_c, 0, 50, 62
1, 86423, Note_on_c, 0, 52, 71
1, 86439, Note_on_c, 0, 60, 78
1, 86489, Note_off_c, 0, 60, 56
1, 86516, Note_off_c, 0, 52, 61
1, 86523, Note_on_c, 0, 48, 56
1, 86604, Note_off_c, 0, 70, 57
1, 86624, Note_off_c, 0, 48, 62
1, 86635, Note_on_c, 0, 53, 62
1, 86646, Note_on_c, 0, 61, 79
1, 86722, Note_on_c, 0, 51, 71
1, 86724, Note_on_c, 0, 60, 75
1, 86731, Note_off_c, 0, 53, 65
1, 86739, Note_off_c, 0, 61, 61
1, 86823, Note_on_c, 0, 49, 74
1, 86823, Note_off_c, 0, 51, 63
1, 86825, Note_on_c, 0, 58, 79
1, 86831, Note_off_c, 0, 60, 61
1, 86908, Note_on_c, 0, 60, 76
1, 86915, Note_off_c, 0, 49, 61
1, 86920, Note_off_c, 0, 58, 63
1, 86923, Note_on_c, 0, 51, 75
1, 87012, Note_off_c, 0, 60, 47
1, 87017, Note_off_c, 0, 51, 63
1, 87029, Note_on_c, 0, 68, 90
1, 87035, Note_on_c, 0, 53, 67
1, 87125, Note_off_c, 0, 53, 61
1, 87145, Note_on_c, 0, 51, 59
1, 87238, Note_off_c, 0, 51, 58
1, 87239, Note_on_c, 0, 49, 65
1, 87251, Note_on_c, 0, 65, 75
1, 87306, Note_off_c, 0, 65, 62
1, 87338, Note_off_c, 0, 49, 61
1, 87345, Note_on_c, 0, 48, 62
1, 87443, Note_off_c, 0, 48, 58
1, 87459, Note_on_c, 0, 49, 74
1, 87470, Note_on_c, 0, 60, 83
1, 87481, Note_off_c, 0, 68, 52
1, 87696, Note_off_c, 0, 60, 49
1, 87699, Note_on_c, 0, 58, 77
1, 87765, Note_off_c, 0, 58, 65
1, 87774, Note_on_c, 0, 56, 76
1, 87837, Note_off_c, 0, 56, 64
1, 87884, Note_on_c, 0, 58, 85
1, 87938, Note_off_c, 0, 58, 65
1, 87958, Note_off_c, 0, 49, 56
1, 87967, Note_on_c, 0, 48, 53
1, 87994, Poly_aftertouch_c, 0, 67, 0
1, 88058, Note_off_c, 0, 48, 59
1, 88071, Note_on_c, 0, 46, 54
1, 88093, Note_on_c, 0, 67, 79
1, 88149, Note_off_c, 0, 67, 61
1, 88171, Note_off_c, 0, 46, 62
1, 88197, Note_on_c, 0, 49, 51
1, 88289, Note_off_c, 0, 49, 61
1, 88304, Note_on_c, 0, 56, 84
1, 88306, Note_on_c, 0, 48, 58
1, 88347, Note_off_c, 0, 56, 62
1, 88385, Note_off_c, 0, 48, 61
1, 88394, Note_on_c, 0, 46, 55
1, 88496, Note_off_c, 0, 46, 59
1, 88497, Note_on_c, 0, 44, 60
1, 88506, Note_on_c, 0, 65, 79
1, 88555, Note_off_c, 0, 65, 68
1, 88588, Note_off_c, 0, 44, 62
1, 88619, Note_on_c, 0, 48, 51
1, 88689, Note_off_c, 0, 48, 53
1, 88728, Note_on_c, 0, 46, 62
1, 88731, Note_on_c, 0, 55, 79
1, 88770, Note_off_c, 0, 55, 66
1, 88818, Note_off_c, 0, 46, 58
1, 88832, Note_on_c, 0, 44, 66
1, 88930, Note_off_c, 0, 44, 59
1, 88934, Note_on_c, 0, 46, 70
1, 88943, Note_on_c, 0, 67, 73
1, 88947, Note_on_c, 0, 64, 69
1, 88983, Note_off_c, 0, 64, 64
1, 88994, Note_off_c, 0, 67, 60
1, 89021, Note_off_c, 0, 46, 61
1, 89034, Note_on_c, 0, 43, 62
1, 89142, Note_off_c, 0, 43, 61
1, 89145, Note_on_c, 0, 44, 68
1, 89150, Note_on_c, 0, 53, 77
1, 89165, Note_on_c, 0, 72, 68
1, 89190, Note_off_c, 0, 44, 64
1, 89262, Note_off_c, 0, 72, 59
1, 89265, Note_on_c, 0, 70, 58
1, 89357, Note_off_c, 0, 70, 59
1, 89367, Note_on_c, 0, 68, 61
1, 89378, Note_on_c, 0, 49, 57
1, 89423, Note_off_c, 0, 49, 62
1, 89443, Note_off_c, 0, 68, 63
1, 89456, Note_on_c, 0, 72, 59
1, 89569, Note_off_c, 0, 72, 60
1, 89577, Note_on_c, 0, 70, 61
1, 89578, Note_off_c, 0, 53, 58
1, 89593, Note_on_c, 0, 43, 71
1, 89645, Note_off_c, 0, 43, 59
1, 89669, Note_off_c, 0, 70, 60
1, 89670, Note_on_c, 0, 68, 63
1, 89754, Note_off_c, 0, 68, 62
1, 89784, Note_on_c, 0, 67, 62
1, 89799, Note_on_c, 0, 48, 68
1, 89799, Note_on_c, 0, 52, 70
1, 89828, Note_off_c, 0, 52, 66
1, 89832, Note_off_c, 0, 48, 65
1, 89882, Note_off_c, 0, 67, 59
1, 89886, Note_on_c, 0, 70, 58
1, 89983, Note_off_c, 0, 70, 57
1, 89989, Note_on_c, 0, 68, 63
1, 89999, Note_on_c, 0, 53, 75
1, 90005, Note_on_c, 0, 41, 66
1, 90038, Note_off_c, 0, 53, 65
1, 90044, Note_off_c, 0, 41, 64
1, 90067, Note_off_c, 0, 68, 59
1, 90098, Note_on_c, 0, 65, 62
1, 90187, Note_off_c, 0, 65, 55
1, 90216, Note_on_c, 0, 52, 71
1, 90219, Note_on_c, 0, 46, 65
1, 90230, Note_on_c, 0, 73, 66
1, 90251, Note_off_c, 0, 52, 64
1, 90254, Note_off_c, 0, 46, 61
1, 90314, Note_on_c, 0, 70, 63
1, 90333, Note_off_c, 0, 73, 57
1, 90418, Note_off_c, 0, 70, 48
1, 90427, Note_on_c, 0, 72, 65
1, 90428, Note_on_c, 0, 53, 71
1, 90430, Note_on_c, 0, 44, 70
1, 90470, Note_off_c, 0, 44, 61
1, 90472, Note_off_c, 0, 53, 65
1, 90496, Note_off_c, 0, 72, 64
1, 90514, Note_on_c, 0, 68, 67
1, 90542, Note_off_c, 0, 68, 68
1, 90620, Note_on_c, 0, 58, 78
1, 90627, Note_on_c, 0, 78, 76
1, 90637, Note_on_c, 0, 49, 47
1, 90656, Note_off_c, 0, 58, 59
1, 90671, Note_off_c, 0, 49, 51
1, 90702, Note_off_c, 0, 78, 64
1, 90722, Note_on_c, 0, 76, 69
1, 90771, Note_off_c, 0, 76, 66
1, 90840, Note_on_c, 0, 56, 74
1, 90848, Note_on_c, 0, 76, 70
1, 90849, Note_on_c, 0, 48, 58
1, 90935, Note_off_c, 0, 76, 65
1, 90939, Note_on_c, 0, 77, 74
1, 91026, Note_off_c, 0, 77, 57
1, 91029, Note_off_c, 0, 56, 55
1, 91044, Note_on_c, 0, 55, 61
1, 91050, Note_on_c, 0, 83, 69
1, 91134, Note_off_c, 0, 55, 65
1, 91134, Note_off_c, 0, 83, 61
1, 91139, Note_on_c, 0, 53, 66
1, 91155, Note_on_c, 0, 84, 67
1, 91228, Note_off_c, 0, 53, 64
1, 91236, Note_off_c, 0, 84, 61
1, 91238, Note_on_c, 0, 77, 77
1, 91246, Note_on_c, 0, 55, 70
1, 91278, Note_off_c, 0, 77, 62
1, 91279, Note_on_c, 0, 76, 68
1, 91318, Note_on_c, 0, 77, 65
1, 91326, Note_off_c, 0, 76, 66
1, 91372, Note_on_c, 0, 76, 56
1, 91393, Note_off_c, 0, 77, 60
1, 91437, Control_c, 0, 64, 39
1, 91452, Control_c, 0, 64, 66
1, 91455, Note_on_c, 0, 58, 62
1, 91467, Control_c, 0, 64, 76
1, 91481, Note_off_c, 0, 55, 57
1, 91481, Control_c, 0, 64, 89
1, 91493, Note_off_c, 0, 48, 41
1, 91496, Control_c, 0, 64, 96
1, 91511, Control_c, 0, 64, 99
1, 91526, Control_c, 0, 64, 102
1, 91527, Note_off_c, 0, 58, 61
1, 91541, Control_c, 0, 64, 105
1, 91546, Note_on_c, 0, 77, 75
1, 91555, Control_c, 0, 64, 107
1, 91557, Note_off_c, 0, 76, 64
1, 91578, Control_c, 0, 64, 110
1, 91593, Note_off_c, 0, 77, 56
1, 91623, Control_c, 0, 64, 107
1, 91637, Control_c, 0, 64, 97
1, 91652, Control_c, 0, 64, 83
1, 91667, Control_c, 0, 64, 64
1, 91669, Note_on_c, 0, 77, 85
1, 91675, Note_on_c, 0, 56, 60
1, 91682, Control_c, 0, 64, 0
1, 91683, Note_on_c, 0, 53, 42
1, 91788, Note_off_c, 0, 56, 60
1, 91791, Note_on_c, 0, 58, 64
1, 91803, Note_off_c, 0, 53, 0
1, 91803, Note_on_c, 0, 53, 12
1, 91881, Note_off_c, 0, 58, 64
1, 91905, Note_on_c, 0, 60, 63
1, 91978, Note_off_c, 0, 60, 60
1, 91980, Note_off_c, 0, 53, 59
1, 91983, Note_on_c, 0, 56, 66
1, 92004, Note_off_c, 0, 77, 58
1, 92072, Note_off_c, 0, 56, 62
1, 92082, Note_on_c, 0, 53, 66
1, 92168, Note_off_c, 0, 53, 64
1, 92177, Note_on_c, 0, 54, 62
1, 92259, Note_off_c, 0, 54, 61
1, 92272, Note_on_c, 0, 77, 85
1, 92282, Note_on_c, 0, 56, 62
1, 92326, Note_off_c, 0, 77, 60
1, 92377, Note_off_c, 0, 56, 62
1, 92389, Note_on_c, 0, 53, 50
1, 92463, Note_off_c, 0, 53, 64
1, 92481, Note_on_c, 0, 71, 83
1, 92490, Note_on_c, 0, 50, 52
1, 92557, Note_off_c, 0, 50, 63
1, 92570, Note_on_c, 0, 51, 61
1, 92571, Note_on_c, 0, 70, 80
1, 92573, Note_off_c, 0, 71, 59
1, 92657, Note_off_c, 0, 51, 60
1, 92657, Note_off_c, 0, 70, 61
1, 92669, Note_on_c, 0, 68, 81
1, 92674, Note_on_c, 0, 53, 60
1, 92743, Note_off_c, 0, 53, 65
1, 92758, Note_on_c, 0, 50, 63
1, 92761, Note_on_c, 0, 70, 84
1, 92788, Note_off_c, 0, 68, 59
1, 92828, Note_off_c, 0, 70, 63
1, 92854, Note_off_c, 0, 50, 63
1, 92869, Note_on_c, 0, 46, 69
1, 92869, Note_on_c, 0, 77, 79
1, 92913, Note_off_c, 0, 77, 60
1, 92943, Note_off_c, 0, 46, 61
1, 92957, Note_on_c, 0, 50, 55
1, 93047, Note_off_c, 0, 50, 62
1, 93060, Note_on_c, 0, 53, 54
1, 93089, Note_on_c, 0, 74, 82
1, 93136, Note_off_c, 0, 74, 64
1, 93153, Note_off_c, 0, 53, 64
1, 93175, Note_on_c, 0, 58, 58
1, 93266, Note_off_c, 0, 58, 58
1, 93285, Note_on_c, 0, 68, 79
1, 93301, Note_on_c, 0, 51, 52
1, 93381, Note_off_c, 0, 51, 59
1, 93392, Note_on_c, 0, 54, 51
1, 93498, Note_on_c, 0, 66, 76
1, 93498, Note_off_c, 0, 54, 62
1, 93501, Note_on_c, 0, 58, 58
1, 93511, Note_off_c, 0, 68, 58
1, 93566, Note_off_c, 0, 58, 64
1, 93566, Note_off_c, 0, 66, 65
1, 93587, Note_on_c, 0, 65, 71
1, 93595, Note_on_c, 0, 62, 59
1, 93654, Note_off_c, 0, 62, 52
1, 93654, Note_off_c, 0, 65, 60
1, 93685, Note_on_c, 0, 66, 74
1, 93698, Note_on_c, 0, 63, 56
1, 93724, Note_off_c, 0, 66, 64
1, 93772, Note_off_c, 0, 63, 62
1, 93799, Note_on_c, 0, 65, 52
1, 93879, Note_off_c, 0, 65, 62
1, 93898, Note_on_c, 0, 75, 58
1, 93904, Note_on_c, 0, 66, 60
1, 93944, Note_off_c, 0, 75, 60
1, 93960, Note_off_c, 0, 66, 51
1, 94001, Note_on_c, 0, 63, 52
1, 94072, Note_off_c, 0, 63, 61
1, 94101, Note_on_c, 0, 69, 61
1, 94109, Note_on_c, 0, 60, 49
1, 94185, Note_off_c, 0, 60, 57
1, 94189, Note_off_c, 0, 69, 63
1, 94199, Note_on_c, 0, 68, 64
1, 94204, Note_on_c, 0, 61, 53
1, 94282, Note_off_c, 0, 61, 60
1, 94283, Note_off_c, 0, 68, 63
1, 94296, Note_on_c, 0, 66, 61
1, 94311, Note_on_c, 0, 63, 50
1, 94380, Note_off_c, 0, 66, 63
1, 94391, Note_on_c, 0, 68, 64
1, 94406, Note_on_c, 0, 60, 47
1, 94413, Note_off_c, 0, 63, 64
1, 94431, Note_off_c, 0, 60, 61
1, 94464, Note_off_c, 0, 68, 62
1, 94502, Note_on_c, 0, 56, 53
1, 94502, Note_on_c, 0, 75, 68
1, 94536, Note_off_c, 0, 75, 63
1, 94591, Note_on_c, 0, 44, 60
1, 94695, Note_off_c, 0, 44, 60
1, 94705, Note_on_c, 0, 46, 55
1, 94718, Note_on_c, 0, 72, 65
1, 94753, Note_off_c, 0, 72, 63
1, 94790, Note_off_c, 0, 46, 57
1, 94797, Note_off_c, 0, 56, 42
1, 94807, Note_on_c, 0, 48, 56
1, 94900, Note_off_c, 0, 48, 63
1, 94913, Note_on_c, 0, 66, 76
1, 94921, Note_on_c, 0, 49, 57
1, 95009, Note_on_c, 0, 56, 67
1, 95036, Note_off_c, 0, 66, 58
1, 95063, Note_off_c, 0, 56, 59
1, 95109, Note_on_c, 0, 58, 69
1, 95116, Note_on_c, 0, 65, 72
1, 95166, Note_off_c, 0, 58, 62
1, 95195, Note_on_c, 0, 63, 64
1, 95223, Note_off_c, 0, 65, 34
1, 95229, Note_on_c, 0, 60, 62
1, 95259, Note_off_c, 0, 63, 63
1, 95289, Note_off_c, 0, 49, 61
1, 95310, Note_on_c, 0, 65, 73
1, 95320, Note_on_c, 0, 61, 63
1, 95322, Note_off_c, 0, 60, 58
1, 95336, Control_c, 0, 64, 59
1, 95342, Note_off_c, 0, 61, 39
1, 95351, Control_c, 0, 64, 71
1, 95355, Note_off_c, 0, 65, 67
1, 95366, Control_c, 0, 64, 82
1, 95381, Control_c, 0, 64, 92
1, 95395, Control_c, 0, 64, 96
1, 95411, Control_c, 0, 64, 98
1, 95425, Note_on_c, 0, 51, 55
1, 95426, Control_c, 0, 64, 99
1, 95427, Note_on_c, 0, 68, 85
1, 95470, Control_c, 0, 64, 98
1, 95485, Control_c, 0, 64, 92
1, 95500, Control_c, 0, 64, 78
1, 95507, Note_on_c, 0, 53, 65
1, 95510, Note_off_c, 0, 51, 57
1, 95515, Control_c, 0, 64, 60
1, 95529, Control_c, 0, 64, 0
1, 95530, Note_on_c, 0, 73, 69
1, 95545, Note_off_c, 0, 68, 58
1, 95595, Note_off_c, 0, 53, 66
1, 95610, Note_on_c, 0, 55, 65
1, 95626, Note_on_c, 0, 75, 75
1, 95656, Note_off_c, 0, 73, 51
1, 95708, Note_off_c, 0, 55, 64
1, 95719, Note_on_c, 0, 56, 70
1, 95721, Note_off_c, 0, 75, 63
1, 95723, Note_on_c, 0, 77, 81
1, 95793, Note_off_c, 0, 56, 59
1, 95817, Note_on_c, 0, 75, 77
1, 95820, Note_on_c, 0, 55, 57
1, 95827, Note_off_c, 0, 77, 59
1, 95911, Note_off_c, 0, 55, 63
1, 95913, Note_on_c, 0, 53, 62
1, 95915, Note_on_c, 0, 73, 73
1, 95918, Note_off_c, 0, 75, 62
1, 96004, Note_off_c, 0, 53, 64
1, 96016, Note_on_c, 0, 75, 73
1, 96016, Note_on_c, 0, 55, 68
1, 96028, Note_off_c, 0, 73, 63
1, 96058, Note_off_c, 0, 75, 65
1, 96110, Note_off_c, 0, 55, 64
1, 96128, Note_on_c, 0, 84, 84
1, 96130, Note_on_c, 0, 72, 82
1, 96133, Note_on_c, 0, 56, 67
1, 96164, Note_off_c, 0, 84, 64
1, 96186, Note_off_c, 0, 56, 54
1, 96228, Note_on_c, 0, 54, 62
1, 96305, Note_off_c, 0, 54, 61
1, 96340, Note_on_c, 0, 80, 79
1, 96341, Note_on_c, 0, 53, 62
1, 96380, Note_off_c, 0, 80, 65
1, 96425, Note_off_c, 0, 53, 63
1, 96434, Note_on_c, 0, 51, 68
1, 96512, Note_off_c, 0, 51, 61
1, 96540, Note_on_c, 0, 53, 74
1, 96546, Note_on_c, 0, 75, 87
1, 96712, Note_off_c, 0, 72, 57
1, 96755, Note_on_c, 0, 73, 76
1, 96793, Note_off_c, 0, 75, 62
1, 96854, Note_off_c, 0, 73, 60
1, 96865, Note_on_c, 0, 72, 73
1, 96959, Note_on_c, 0, 70, 82
1, 96961, Note_on_c, 0, 73, 82
1, 96970, Note_off_c, 0, 72, 64
1, 96997, Note_off_c, 0, 70, 62
1, 97017, Note_off_c, 0, 73, 63
1, 97035, Note_off_c, 0, 53, 56
1, 97042, Note_on_c, 0, 51, 59
1, 97145, Note_off_c, 0, 51, 60
1, 97152, Note_on_c, 0, 49, 58
1, 97170, Note_on_c, 0, 82, 85
1, 97221, Note_off_c, 0, 49, 61
1, 97228, Note_off_c, 0, 82, 62
1, 97245, Note_on_c, 0, 53, 55
1, 97326, Note_off_c, 0, 53, 51
1, 97358, Note_on_c, 0, 51, 50
1, 97371, Note_on_c, 0, 72, 82
1, 97404, Note_off_c, 0, 72, 66
1, 97432, Note_off_c, 0, 51, 60
1, 97433, Note_on_c, 0, 49, 60
1, 97554, Note_off_c, 0, 49, 50
1, 97568, Note_on_c, 0, 48, 55
1, 97590, Note_on_c, 0, 80, 85
1, 97593, Note_on_c, 0, 68, 84
1, 97614, Note_off_c, 0, 68, 68
1, 97618, Note_off_c, 0, 80, 58
1, 97657, Note_off_c, 0, 48, 63
1, 97683, Note_on_c, 0, 51, 55
1, 97754, Note_off_c, 0, 51, 48
1, 97797, Note_on_c, 0, 49, 63
1, 97799, Note_on_c, 0, 67, 79
1, 97805, Note_on_c, 0, 70, 76
1, 97824, Note_off_c, 0, 67, 63
1, 97829, Note_off_c, 0, 70, 69
1, 97875, Note_off_c, 0, 49, 62
1, 97895, Note_on_c, 0, 48, 58
1, 97975, Note_off_c, 0, 48, 62
1, 97998, Note_on_c, 0, 49, 64
1, 98008, Note_on_c, 0, 79, 78
1, 98011, Note_on_c, 0, 70, 87
1, 98045, Note_off_c, 0, 70, 62
1, 98046, Note_off_c, 0, 79, 62
1, 98070, Note_off_c, 0, 49, 61
1, 98082, Note_on_c, 0, 46, 64
1, 98182, Note_off_c, 0, 46, 53
1, 98204, Note_on_c, 0, 48, 67
1, 98217, Note_on_c, 0, 63, 68
1, 98224, Note_on_c, 0, 68, 65
1, 98245, Note_off_c, 0, 63, 67
1, 98253, Note_off_c, 0, 48, 65
1, 98326, Note_on_c, 0, 63, 65
1, 98339, Note_off_c, 0, 68, 58
1, 98394, Note_off_c, 0, 63, 63
1, 98418, Note_on_c, 0, 51, 63
1, 98438, Note_on_c, 0, 65, 60
1, 98457, Note_off_c, 0, 51, 60
1, 98511, Note_off_c, 0, 65, 61
1, 98523, Note_on_c, 0, 67, 49
1, 98619, Note_on_c, 0, 54, 72
1, 98639, Note_on_c, 0, 68, 39
1, 98646, Note_off_c, 0, 67, 46
1, 98708, Note_off_c, 0, 68, 53
1, 98724, Note_on_c, 0, 70, 50
1, 98826, Note_off_c, 0, 70, 60
1, 98833, Note_on_c, 0, 56, 65
1, 98853, Note_on_c, 0, 72, 49
1, 98866, Note_off_c, 0, 56, 61
1, 98896, Note_off_c, 0, 72, 51
1, 98950, Note_on_c, 0, 68, 45
1, 99041, Note_off_c, 0, 68, 49
1, 99053, Note_on_c, 0, 58, 73
1, 99081, Note_on_c, 0, 73, 54
1, 99130, Note_off_c, 0, 58, 56
1, 99141, Note_off_c, 0, 73, 46
1, 99154, Note_on_c, 0, 56, 74
1, 99159, Note_off_c, 0, 54, 58
1, 99176, Note_on_c, 0, 72, 47
1, 99240, Note_off_c, 0, 56, 63
1, 99245, Note_off_c, 0, 72, 59
1, 99251, Note_on_c, 0, 54, 70
1, 99265, Note_on_c, 0, 70, 56
1, 99330, Note_on_c, 0, 56, 76
1, 99331, Note_off_c, 0, 70, 58
1, 99349, Note_off_c, 0, 54, 59
1, 99361, Note_on_c, 0, 72, 60
1, 99427, Note_off_c, 0, 56, 63
1, 99465, Note_off_c, 0, 72, 63
1, 99467, Note_on_c, 0, 53, 74
1, 99468, Note_on_c, 0, 65, 81
1, 99477, Note_on_c, 0, 73, 67
1, 99498, Note_off_c, 0, 65, 65
1, 99583, Note_off_c, 0, 73, 51
1, 99601, Note_on_c, 0, 72, 47
1, 99690, Note_off_c, 0, 72, 58
1, 99694, Note_on_c, 0, 61, 74
1, 99697, Note_on_c, 0, 70, 56
1, 99716, Note_off_c, 0, 61, 66
1, 99768, Note_off_c, 0, 70, 62
1, 99779, Note_on_c, 0, 68, 57
1, 99906, Note_on_c, 0, 70, 73
1, 99913, Note_on_c, 0, 56, 74
1, 99918, Note_off_c, 0, 68, 59
1, 100072, Note_off_c, 0, 56, 62
1, 100121, Note_off_c, 0, 53, 58
1, 100136, Note_on_c, 0, 54, 66
1, 100224, Note_off_c, 0, 54, 62
1, 100251, Note_on_c, 0, 53, 31
1, 100259, Note_on_c, 0, 52, 32
1, 100319, Note_off_c, 0, 53, 58
1, 100324, Note_off_c, 0, 52, 62
1, 100332, Note_on_c, 0, 54, 68
1, 100334, Note_on_c, 0, 51, 57
1, 100388, Note_off_c, 0, 54, 59
1, 100449, Note_off_c, 0, 70, 58
1, 100460, Note_on_c, 0, 68, 45
1, 100541, Note_on_c, 0, 63, 75
1, 100544, Note_on_c, 0, 66, 66
1, 100547, Note_off_c, 0, 68, 50
1, 100577, Note_off_c, 0, 63, 65
1, 100632, Note_off_c, 0, 66, 63
1, 100657, Note_on_c, 0, 70, 57
1, 100738, Note_off_c, 0, 51, 50
1, 100750, Note_on_c, 0, 53, 77
1, 100756, Note_off_c, 0, 70, 59
1, 100761, Note_on_c, 0, 68, 65
1, 100799, Note_off_c, 0, 53, 64
1, 100839, Note_on_c, 0, 66, 60
1, 100844, Note_off_c, 0, 68, 64
1, 100928, Note_off_c, 0, 66, 63
1, 100959, Note_on_c, 0, 61, 76
1, 100963, Note_on_c, 0, 65, 61
1, 100977, Note_on_c, 0, 49, 45
1, 100989, Note_off_c, 0, 61, 61
1, 101014, Note_off_c, 0, 49, 49
1, 101046, Note_off_c, 0, 65, 60
1, 101049, Note_on_c, 0, 68, 58
1, 101154, Note_off_c, 0, 68, 53
1, 101170, Note_on_c, 0, 66, 63
1, 101172, Note_on_c, 0, 51, 69
1, 101213, Note_off_c, 0, 51, 63
1, 101239, Note_off_c, 0, 66, 62
1, 101254, Note_on_c, 0, 65, 60
1, 101363, Note_off_c, 0, 65, 62
1, 101370, Note_on_c, 0, 44, 71
1, 101381, Note_on_c, 0, 63, 64
1, 101385, Note_on_c, 0, 60, 65
1, 101407, Note_off_c, 0, 44, 60
1, 101439, Note_off_c, 0, 60, 59
1, 101474, Note_off_c, 0, 63, 61
1, 101483, Note_on_c, 0, 66, 58
1, 101578, Note_off_c, 0, 66, 59
1, 101588, Note_on_c, 0, 65, 65
1, 101588, Note_on_c, 0, 49, 60
1, 101600, Note_on_c, 0, 61, 62
1, 101631, Note_off_c, 0, 65, 66
1, 101679, Note_on_c, 0, 51, 56
1, 101681, Note_off_c, 0, 49, 56
1, 101767, Note_off_c, 0, 51, 56
1, 101806, Note_on_c, 0, 68, 68
1, 101808, Note_on_c, 0, 53, 27
1, 101808, Note_off_c, 0, 61, 62
1, 101844, Note_off_c, 0, 68, 61
1, 101880, Note_off_c, 0, 53, 55
1, 101901, Note_on_c, 0, 54, 52
1, 102005, Note_off_c, 0, 54, 57
1, 102013, Note_on_c, 0, 53, 48
1, 102025, Note_on_c, 0, 73, 81
1, 102110, Note_off_c, 0, 53, 60
1, 102131, Note_on_c, 0, 51, 42
1, 102218, Note_off_c, 0, 51, 59
1, 102233, Note_on_c, 0, 49, 53
1, 102244, Note_on_c, 0, 80, 71
1, 102261, Note_off_c, 0, 73, 53
1, 102332, Note_on_c, 0, 77, 76
1, 102336, Note_off_c, 0, 49, 59
1, 102352, Note_on_c, 0, 53, 55
1, 102360, Note_off_c, 0, 80, 59
1, 102432, Note_off_c, 0, 53, 65
1, 102434, Note_off_c, 0, 77, 59
1, 102441, Note_on_c, 0, 73, 75
1, 102453, Note_on_c, 0, 58, 69
1, 102539, Note_off_c, 0, 58, 62
1, 102548, Note_on_c, 0, 56, 66
1, 102646, Note_off_c, 0, 73, 61
1, 102649, Note_off_c, 0, 56, 63
1, 102650, Note_on_c, 0, 76, 71
1, 102656, Note_on_c, 0, 55, 71
1, 102753, Note_on_c, 0, 73, 72
1, 102753, Note_off_c, 0, 76, 62
1, 102756, Note_on_c, 0, 58, 79
1, 102758, Note_off_c, 0, 55, 64
1, 102858, Note_off_c, 0, 58, 63
1, 102864, Note_on_c, 0, 70, 73
1, 102865, Note_on_c, 0, 61, 79
1, 102865, Note_off_c, 0, 73, 62
1, 102961, Note_on_c, 0, 59, 76
1, 102965, Note_off_c, 0, 61, 58
1, 103050, Note_on_c, 0, 58, 70
1, 103061, Control_c, 0, 64, 30
1, 103075, Note_on_c, 0, 73, 68
1, 103076, Note_off_c, 0, 70, 60
1, 103076, Control_c, 0, 64, 63
1, 103083, Note_off_c, 0, 59, 64
1, 103090, Note_off_c, 0, 58, 62
1, 103092, Control_c, 0, 64, 70
1, 103107, Control_c, 0, 64, 77
1, 103122, Control_c, 0, 64, 85
1, 103136, Control_c, 0, 64, 90
1, 103151, Control_c, 0, 64, 93
1, 103166, Control_c, 0, 64, 96
1, 103181, Note_on_c, 0, 61, 75
1, 103181, Control_c, 0, 64, 100
1, 103188, Note_on_c, 0, 70, 73
1, 103196, Control_c, 0, 64, 103
1, 103198, Note_off_c, 0, 73, 60
1, 103210, Control_c, 0, 64, 103
1, 103221, Note_on_c, 0, 63, 75
1, 103224, Note_off_c, 0, 61, 61
1, 103225, Control_c, 0, 64, 103
1, 103240, Control_c, 0, 64, 97
1, 103254, Control_c, 0, 64, 83
1, 103258, Note_off_c, 0, 70, 61
1, 103266, Note_on_c, 0, 64, 75
1, 103266, Note_on_c, 0, 67, 83
1, 103269, Control_c, 0, 64, 66
1, 103271, Note_off_c, 0, 63, 65
1, 103284, Control_c, 0, 64, 0
1, 103481, Note_off_c, 0, 64, 57
1, 103492, Note_on_c, 0, 70, 71
1, 103500, Note_on_c, 0, 63, 63
1, 103500, Note_off_c, 0, 67, 57
1, 103594, Note_on_c, 0, 61, 68
1, 103594, Note_on_c, 0, 73, 71
1, 103595, Note_off_c, 0, 63, 63
1, 103601, Note_off_c, 0, 70, 59
1, 103680, Note_off_c, 0, 61, 62
1, 103690, Note_on_c, 0, 76, 75
1, 103698, Note_off_c, 0, 73, 58
1, 103706, Note_on_c, 0, 59, 68
1, 103787, Note_off_c, 0, 59, 54
1, 103811, Note_on_c, 0, 58, 56
1, 103893, Note_off_c, 0, 58, 61
1, 103898, Note_on_c, 0, 56, 59
1, 103915, Note_on_c, 0, 73, 67
1, 103938, Note_off_c, 0, 73, 68
1, 103972, Note_off_c, 0, 56, 57
1, 104014, Note_on_c, 0, 55, 47
1, 104093, Note_off_c, 0, 76, 63
1, 104109, Note_on_c, 0, 56, 61
1, 104113, Note_on_c, 0, 71, 68
1, 104121, Note_on_c, 0, 74, 53
1, 104121, Note_off_c, 0, 55, 54
1, 104141, Note_off_c, 0, 74, 64
1, 104178, Note_off_c, 0, 56, 63
1, 104214, Note_on_c, 0, 59, 54
1, 104278, Note_off_c, 0, 59, 46
1, 104326, Note_on_c, 0, 80, 71
1, 104329, Note_on_c, 0, 58, 57
1, 104371, Note_off_c, 0, 80, 62
1, 104411, Note_off_c, 0, 58, 60
1, 104417, Note_on_c, 0, 56, 59
1, 104502, Note_off_c, 0, 56, 62
1, 104539, Note_on_c, 0, 70, 69
1, 104540, Note_on_c, 0, 73, 62
1, 104542, Note_on_c, 0, 55, 57
1, 104549, Note_off_c, 0, 71, 54
1, 104605, Note_off_c, 0, 73, 62
1, 104628, Note_off_c, 0, 55, 53
1, 104655, Note_on_c, 0, 53, 53
1, 104730, Note_off_c, 0, 53, 63
1, 104748, Note_on_c, 0, 51, 49
1, 104765, Note_on_c, 0, 79, 64
1, 104806, Note_off_c, 0, 51, 59
1, 104808, Note_off_c, 0, 79, 56
1, 104852, Note_on_c, 0, 49, 50
1, 104907, Note_off_c, 0, 70, 61
1, 104941, Note_off_c, 0, 49, 62
1, 104962, Note_on_c, 0, 47, 57
1, 104969, Note_on_c, 0, 68, 77
1, 105025, Note_off_c, 0, 68, 61
1, 105053, Note_off_c, 0, 47, 58
1, 105100, Note_on_c, 0, 49, 20
1, 105173, Note_off_c, 0, 49, 37
1, 105174, Note_on_c, 0, 51, 62
1, 105176, Note_on_c, 0, 80, 73
1, 105227, Note_off_c, 0, 51, 61
1, 105230, Note_off_c, 0, 80, 65
1, 105265, Note_on_c, 0, 79, 80
1, 105281, Note_on_c, 0, 47, 60
1, 105346, Note_off_c, 0, 47, 53
1, 105366, Note_on_c, 0, 80, 84
1, 105373, Note_on_c, 0, 44, 71
1, 105376, Note_off_c, 0, 79, 59
1, 105414, Note_off_c, 0, 44, 66
1, 105456, Note_on_c, 0, 82, 83
1, 105475, Note_off_c, 0, 80, 63
1, 105567, Note_on_c, 0, 83, 75
1, 105570, Note_on_c, 0, 56, 69
1, 105638, Note_off_c, 0, 82, 23
1, 105643, Note_off_c, 0, 56, 58
1, 105663, Note_on_c, 0, 80, 80
1, 105667, Note_on_c, 0, 53, 60
1, 105683, Note_off_c, 0, 83, 58
1, 105758, Note_off_c, 0, 80, 62
1, 105761, Note_off_c, 0, 53, 66
1, 105762, Note_on_c, 0, 49, 76
1, 105765, Note_on_c, 0, 77, 82
1, 105813, Note_off_c, 0, 49, 62
1, 105866, Note_on_c, 0, 78, 80
1, 105886, Note_off_c, 0, 77, 55
1, 105973, Note_on_c, 0, 80, 82
1, 105985, Note_on_c, 0, 59, 62
1, 105989, Note_off_c, 0, 78, 62
1, 106060, Note_on_c, 0, 77, 79
1, 106060, Note_off_c, 0, 59, 59
1, 106060, Note_off_c, 0, 80, 63
1, 106071, Note_on_c, 0, 56, 61
1, 106174, Note_on_c, 0, 73, 77
1, 106175, Note_on_c, 0, 53, 72
1, 106178, Note_off_c, 0, 56, 62
1, 106202, Note_off_c, 0, 77, 60
1, 106218, Note_off_c, 0, 53, 68
1, 106271, Note_off_c, 0, 73, 62
1, 106273, Note_on_c, 0, 75, 71
1, 106388, Note_on_c, 0, 49, 63
1, 106391, Note_on_c, 0, 77, 78
1, 106398, Note_off_c, 0, 75, 65
1, 106461, Note_off_c, 0, 49, 56
1, 106478, Note_on_c, 0, 73, 77
1, 106484, Note_on_c, 0, 46, 57
1, 106489, Note_off_c, 0, 77, 60
1, 106574, Note_off_c, 0, 73, 62
1, 106575, Note_off_c, 0, 46, 62
1, 106589, Note_on_c, 0, 70, 76
1, 106593, Note_on_c, 0, 42, 61
1, 106630, Note_off_c, 0, 42, 63
1, 106686, Note_on_c, 0, 72, 69
1, 106697, Note_off_c, 0, 70, 55
1, 106793, Note_on_c, 0, 58, 54
1, 106796, Note_on_c, 0, 73, 74
1, 106802, Note_off_c, 0, 72, 61
1, 106850, Note_off_c, 0, 58, 53
1, 106873, Note_off_c, 0, 73, 64
1, 106883, Note_on_c, 0, 54, 47
1, 106897, Note_on_c, 0, 70, 67
1, 106982, Note_off_c, 0, 54, 59
1, 106986, Note_on_c, 0, 51, 59
1, 106997, Note_on_c, 0, 78, 72
1, 107020, Note_off_c, 0, 70, 62
1, 107027, Note_off_c, 0, 51, 62
1, 107097, Note_on_c, 0, 80, 74
1, 107119, Note_off_c, 0, 78, 57
1, 107195, Note_on_c, 0, 54, 47
1, 107202, Note_on_c, 0, 82, 71
1, 107207, Note_off_c, 0, 80, 62
1, 107276, Note_off_c, 0, 54, 55
1, 107290, Note_on_c, 0, 51, 46
1, 107302, Note_on_c, 0, 78, 68
1, 107321, Note_off_c, 0, 82, 55
1, 107382, Note_off_c, 0, 51, 60
1, 107392, Note_on_c, 0, 48, 64
1, 107403, Note_off_c, 0, 78, 60
1, 107412, Note_on_c, 0, 75, 67
1, 107426, Note_off_c, 0, 48, 64
1, 107506, Note_on_c, 0, 77, 70
1, 107513, Note_off_c, 0, 75, 62
1, 107604, Note_on_c, 0, 58, 51
1, 107604, Note_on_c, 0, 78, 69
1, 107609, Note_off_c, 0, 77, 60
1, 107660, Note_off_c, 0, 58, 53
1, 107696, Note_on_c, 0, 54, 48
1, 107708, Note_off_c, 0, 78, 58
1, 107708, Note_on_c, 0, 75, 61
1, 107776, Note_off_c, 0, 75, 64
1, 107803, Note_off_c, 0, 54, 60
1, 107805, Note_on_c, 0, 51, 51
1, 107809, Note_on_c, 0, 72, 62
1, 107840, Note_off_c, 0, 51, 64
1, 107898, Note_off_c, 0, 72, 60
1, 107902, Note_on_c, 0, 73, 59
1, 108009, Note_off_c, 0, 73, 59
1, 108014, Note_on_c, 0, 75, 63
1, 108015, Note_on_c, 0, 48, 35
1, 108078, Note_off_c, 0, 48, 50
1, 108085, Note_off_c, 0, 75, 63
1, 108109, Note_on_c, 0, 44, 43
1, 108112, Note_on_c, 0, 72, 60
1, 108192, Note_off_c, 0, 44, 59
1, 108193, Note_off_c, 0, 72, 59
1, 108202, Note_on_c, 0, 41, 55
1, 108211, Note_on_c, 0, 68, 59
1, 108237, Note_off_c, 0, 41, 67
1, 108292, Note_off_c, 0, 68, 63
1, 108305, Note_on_c, 0, 70, 58
1, 108382, Note_off_c, 0, 70, 64
1, 108411, Note_on_c, 0, 56, 55
1, 108422, Note_on_c, 0, 72, 49
1, 108449, Note_off_c, 0, 72, 58
1, 108463, Note_off_c, 0, 56, 56
1, 108497, Note_on_c, 0, 53, 54
1, 108500, Note_on_c, 0, 68, 54
1, 108550, Note_off_c, 0, 68, 56
1, 108588, Note_off_c, 0, 53, 66
1, 108602, Note_on_c, 0, 50, 53
1, 108606, Note_on_c, 0, 77, 60
1, 108626, Note_off_c, 0, 50, 62
1, 108685, Note_on_c, 0, 78, 64
1, 108690, Note_off_c, 0, 77, 59
1, 108804, Note_on_c, 0, 53, 48
1, 108808, Note_on_c, 0, 80, 64
1, 108810, Note_off_c, 0, 78, 60
1, 108864, Note_off_c, 0, 53, 57
1, 108899, Note_on_c, 0, 77, 63
1, 108913, Note_on_c, 0, 50, 45
1, 108922, Note_off_c, 0, 80, 52
1, 108984, Note_off_c, 0, 50, 60
1, 108992, Note_off_c, 0, 77, 56
1, 108999, Note_on_c, 0, 46, 54
1, 109010, Note_on_c, 0, 74, 57
1, 109051, Note_off_c, 0, 46, 61
1, 109096, Note_off_c, 0, 74, 61
1, 109105, Note_on_c, 0, 75, 57
1, 109198, Note_on_c, 0, 56, 55
1, 109199, Note_off_c, 0, 75, 60
1, 109205, Note_on_c, 0, 77, 62
1, 109267, Note_off_c, 0, 56, 57
1, 109274, Note_off_c, 0, 77, 60
1, 109283, Note_on_c, 0, 53, 56
1, 109297, Note_on_c, 0, 74, 54
1, 109391, Note_off_c, 0, 53, 64
1, 109393, Note_off_c, 0, 74, 60
1, 109400, Note_on_c, 0, 70, 57
1, 109401, Note_on_c, 0, 50, 58
1, 109436, Control_c, 0, 67, 11
1, 109439, Note_off_c, 0, 50, 64
1, 109451, Control_c, 0, 67, 20
1, 109467, Control_c, 0, 67, 37
1, 109481, Note_off_c, 0, 70, 60
1, 109482, Control_c, 0, 67, 62
1, 109496, Control_c, 0, 67, 99
1, 109510, Note_on_c, 0, 72, 48
1, 109511, Control_c, 0, 67, 127
1, 109608, Note_on_c, 0, 74, 60
1, 109611, Note_off_c, 0, 72, 49
1, 109612, Note_on_c, 0, 46, 52
1, 109661, Note_off_c, 0, 46, 58
1, 109691, Note_on_c, 0, 42, 49
1, 109693, Note_off_c, 0, 74, 60
1, 109704, Note_on_c, 0, 70, 60
1, 109762, Note_off_c, 0, 70, 60
1, 109768, Note_off_c, 0, 42, 61
1, 109781, Note_on_c, 0, 39, 56
1, 109803, Note_on_c, 0, 66, 60
1, 109832, Note_off_c, 0, 39, 58
1, 109881, Note_off_c, 0, 66, 63
1, 109895, Note_on_c, 0, 68, 58
1, 110001, Note_off_c, 0, 68, 61
1, 110003, Note_on_c, 0, 70, 63
1, 110013, Note_on_c, 0, 54, 42
1, 110062, Note_off_c, 0, 70, 61
1, 110066, Note_off_c, 0, 54, 48
1, 110090, Note_on_c, 0, 51, 42
1, 110100, Note_on_c, 0, 66, 56
1, 110186, Note_off_c, 0, 51, 61
1, 110198, Note_on_c, 0, 48, 58
1, 110212, Note_on_c, 0, 75, 57
1, 110216, Note_off_c, 0, 66, 62
1, 110230, Note_off_c, 0, 48, 65
1, 110316, Note_off_c, 0, 75, 64
1, 110319, Note_on_c, 0, 77, 60
1, 110409, Note_on_c, 0, 51, 47
1, 110421, Note_off_c, 0, 77, 58
1, 110425, Note_on_c, 0, 78, 65
1, 110474, Note_off_c, 0, 51, 55
1, 110513, Note_on_c, 0, 48, 44
1, 110521, Note_on_c, 0, 75, 50
1, 110524, Note_off_c, 0, 78, 58
1, 110599, Note_off_c, 0, 48, 63
1, 110609, Note_on_c, 0, 44, 63
1, 110609, Note_off_c, 0, 75, 59
1, 110630, Note_on_c, 0, 72, 57
1, 110658, Note_off_c, 0, 44, 61
1, 110709, Note_off_c, 0, 72, 59
1, 110715, Note_on_c, 0, 73, 59
1, 110820, Note_on_c, 0, 54, 55
1, 110834, Note_off_c, 0, 73, 57
1, 110839, Note_on_c, 0, 75, 60
1, 110871, Note_off_c, 0, 54, 56
1, 110901, Note_off_c, 0, 75, 61
1, 110907, Note_on_c, 0, 51, 49
1, 110922, Note_on_c, 0, 72, 56
1, 111006, Note_off_c, 0, 51, 59
1, 111008, Note_on_c, 0, 48, 65
1, 111015, Note_off_c, 0, 72, 61
1, 111022, Note_on_c, 0, 68, 62
1, 111057, Note_off_c, 0, 48, 66
1, 111124, Note_off_c, 0, 68, 62
1, 111125, Note_on_c, 0, 70, 63
1, 111150, Control_c, 0, 67, 96
1, 111165, Control_c, 0, 67, 42
1, 111180, Control_c, 0, 67, 0
1, 111204, Note_off_c, 0, 70, 53
1, 111224, Note_on_c, 0, 44, 60
1, 111227, Note_on_c, 0, 72, 70
1, 111297, Note_off_c, 0, 44, 61
1, 111314, Note_on_c, 0, 41, 65
1, 111326, Note_on_c, 0, 68, 69
1, 111331, Note_off_c, 0, 72, 63
1, 111404, Note_off_c, 0, 68, 62
1, 111419, Note_off_c, 0, 41, 65
1, 111426, Note_on_c, 0, 37, 77
1, 111436, Note_on_c, 0, 65, 75
1, 111526, Note_on_c, 0, 66, 76
1, 111529, Note_off_c, 0, 65, 64
1, 111633, Note_on_c, 0, 68, 75
1, 111633, Note_off_c, 0, 66, 64
1, 111732, Note_off_c, 0, 68, 62
1, 111739, Note_on_c, 0, 65, 74
1, 111857, Note_on_c, 0, 61, 74
1, 111857, Note_off_c, 0, 65, 65
1, 111869, Note_off_c, 0, 37, 63
1, 111922, Note_off_c, 0, 61, 62
1, 111958, Note_on_c, 0, 65, 76
1, 112054, Note_on_c, 0, 68, 76
1, 112054, Note_off_c, 0, 65, 61
1, 112146, Note_on_c, 0, 70, 78
1, 112157, Note_off_c, 0, 68, 62
1, 112227, Note_off_c, 0, 70, 55
1, 112259, Note_on_c, 0, 71, 74
1, 112352, Note_on_c, 0, 70, 68
1, 112375, Note_off_c, 0, 71, 57
1, 112439, Note_off_c, 0, 70, 62
1, 112451, Note_on_c, 0, 59, 57
1, 112453, Note_on_c, 0, 68, 74
1, 112501, Note_off_c, 0, 59, 56
1, 112549, Note_on_c, 0, 49, 65
1, 112553, Note_on_c, 0, 70, 78
1, 112596, Note_off_c, 0, 68, 55
1, 112634, Note_off_c, 0, 70, 57
1, 112639, Note_off_c, 0, 49, 61
1, 112660, Note_on_c, 0, 78, 80
1, 112661, Note_on_c, 0, 58, 72
1, 112700, Note_off_c, 0, 78, 62
1, 112709, Note_off_c, 0, 58, 61
1, 112748, Note_on_c, 0, 49, 67
1, 112838, Note_off_c, 0, 49, 61
1, 112867, Note_on_c, 0, 56, 66
1, 112890, Note_on_c, 0, 72, 68
1, 112912, Note_off_c, 0, 72, 67
1, 112935, Note_off_c, 0, 56, 59
1, 112968, Note_on_c, 0, 49, 68
1, 113061, Note_off_c, 0, 49, 58
1, 113080, Note_on_c, 0, 54, 67
1, 113085, Note_on_c, 0, 70, 78
1, 113163, Note_on_c, 0, 69, 52
1, 113164, Note_off_c, 0, 70, 0
1, 113170, Note_off_c, 0, 54, 62
1, 113174, Note_on_c, 0, 49, 72
1, 113201, Poly_aftertouch_c, 0, 70, 127
1, 113297, Note_off_c, 0, 49, 62
1, 113306, Note_on_c, 0, 53, 68
1, 113312, Note_on_c, 0, 68, 71
1, 113316, Note_off_c, 0, 69, 55
1, 113327, Poly_aftertouch_c, 0, 70, 0
1, 113395, Note_off_c, 0, 68, 64
1, 113398, Note_off_c, 0, 53, 63
1, 113399, Note_on_c, 0, 66, 75
1, 113401, Note_on_c, 0, 51, 64
1, 113485, Note_off_c, 0, 66, 54
1, 113499, Note_on_c, 0, 68, 80
1, 113504, Note_off_c, 0, 51, 61
1, 113505, Note_on_c, 0, 53, 74
1, 113533, Note_off_c, 0, 53, 68
1, 113583, Note_off_c, 0, 68, 59
1, 113593, Note_on_c, 0, 61, 71
1, 113684, Note_off_c, 0, 61, 51
1, 113700, Note_on_c, 0, 44, 67
1, 113714, Note_on_c, 0, 65, 64
1, 113731, Note_off_c, 0, 44, 65
1, 113788, Note_off_c, 0, 65, 64
1, 113789, Note_on_c, 0, 68, 68
1, 113876, Note_off_c, 0, 68, 60
1, 113915, Note_on_c, 0, 70, 68
1, 114005, Note_off_c, 0, 70, 58
1, 114009, Note_on_c, 0, 68, 61
1, 114102, Note_off_c, 0, 68, 63
1, 114108, Note_on_c, 0, 58, 50
1, 114113, Note_on_c, 0, 66, 62
1, 114170, Note_off_c, 0, 58, 58
1, 114196, Note_on_c, 0, 49, 52
1, 114217, Note_on_c, 0, 68, 67
1, 114247, Note_off_c, 0, 66, 63
1, 114264, Note_off_c, 0, 68, 65
1, 114280, Note_off_c, 0, 49, 59
1, 114315, Note_on_c, 0, 56, 61
1, 114317, Note_on_c, 0, 77, 73
1, 114340, Note_off_c, 0, 77, 69
1, 114359, Note_off_c, 0, 56, 58
1, 114402, Note_on_c, 0, 49, 58
1, 114505, Note_off_c, 0, 49, 56
1, 114528, Note_on_c, 0, 54, 54
1, 114530, Note_on_c, 0, 73, 75
1, 114571, Note_off_c, 0, 73, 63
1, 114605, Note_off_c, 0, 54, 61
1, 114629, Note_on_c, 0, 49, 57
1, 114720, Note_off_c, 0, 49, 61
1, 114739, Note_on_c, 0, 53, 61
1, 114742, Note_on_c, 0, 68, 75
1, 114837, Note_off_c, 0, 53, 66
1, 114858, Note_on_c, 0, 49, 58
1, 114948, Note_off_c, 0, 49, 61
1, 114958, Note_on_c, 0, 66, 66
1, 114959, Note_on_c, 0, 51, 59
1, 114969, Note_off_c, 0, 68, 57
1, 115044, Note_off_c, 0, 66, 64
1, 115045, Note_off_c, 0, 51, 61
1, 115061, Note_on_c, 0, 65, 56
1, 115071, Note_on_c, 0, 49, 59
1, 115155, Note_on_c, 0, 66, 72
1, 115159, Note_off_c, 0, 65, 61
1, 115163, Note_off_c, 0, 49, 58
1, 115169, Note_on_c, 0, 51, 61
1, 115201, Note_off_c, 0, 51, 63
1, 115225, Note_off_c, 0, 66, 63
1, 115250, Note_on_c, 0, 60, 58
1, 115359, Note_off_c, 0, 60, 56
1, 115365, Note_on_c, 0, 44, 58
1, 115369, Note_on_c, 0, 63, 52
1, 115398, Note_off_c, 0, 44, 64
1, 115442, Note_off_c, 0, 63, 61
1, 115452, Note_on_c, 0, 66, 58
1, 115553, Note_off_c, 0, 66, 62
1, 115583, Note_on_c, 0, 68, 58
1, 115673, Note_off_c, 0, 68, 56
1, 115678, Note_on_c, 0, 66, 59
1, 115756, Note_off_c, 0, 66, 65
1, 115775, Note_on_c, 0, 65, 55
1, 115780, Note_on_c, 0, 56, 49
1, 115833, Note_off_c, 0, 56, 59
1, 115866, Note_on_c, 0, 66, 61
1, 115873, Note_on_c, 0, 44, 50
1, 115875, Note_off_c, 0, 65, 57
1, 115935, Note_off_c, 0, 66, 66
1, 115939, Note_off_c, 0, 44, 61
1, 115980, Note_on_c, 0, 54, 57
1, 115982, Note_on_c, 0, 75, 58
1, 116015, Note_off_c, 0, 75, 67
1, 116030, Note_off_c, 0, 54, 58
1, 116072, Note_on_c, 0, 44, 48
1, 116141, Note_off_c, 0, 44, 60
1, 116189, Note_on_c, 0, 72, 65
1, 116190, Note_on_c, 0, 53, 51
1, 116223, Note_off_c, 0, 72, 62
1, 116243, Note_off_c, 0, 53, 62
1, 116296, Note_on_c, 0, 44, 51
1, 116363, Note_off_c, 0, 44, 60
1, 116394, Note_on_c, 0, 51, 57
1, 116394, Note_on_c, 0, 66, 62
1, 116475, Note_off_c, 0, 51, 60
1, 116492, Note_on_c, 0, 44, 55
1, 116573, Note_off_c, 0, 44, 62
1, 116593, Note_on_c, 0, 49, 57
1, 116598, Note_off_c, 0, 66, 64
1, 116605, Note_on_c, 0, 65, 61
1, 116683, Note_off_c, 0, 49, 58
1, 116695, Note_on_c, 0, 63, 64
1, 116699, Note_off_c, 0, 65, 64
1, 116702, Note_on_c, 0, 48, 54
1, 116781, Note_off_c, 0, 48, 64
1, 116786, Note_off_c, 0, 63, 64
1, 116797, Note_on_c, 0, 49, 60
1, 116814, Note_on_c, 0, 65, 69
1, 116882, Note_off_c, 0, 49, 61
1, 116889, Note_on_c, 0, 44, 62
1, 116892, Note_off_c, 0, 65, 62
1, 116903, Note_on_c, 0, 68, 70
1, 116980, Note_off_c, 0, 44, 58
1, 116997, Note_on_c, 0, 70, 72
1, 117003, Note_on_c, 0, 53, 62
1, 117011, Note_off_c, 0, 68, 60
1, 117080, Note_off_c, 0, 70, 62
1, 117103, Note_on_c, 0, 72, 72
1, 117108, Note_off_c, 0, 53, 65
1, 117111, Note_on_c, 0, 51, 68
1, 117193, Note_off_c, 0, 51, 62
1, 117201, Note_on_c, 0, 73, 74
1, 117201, Note_off_c, 0, 72, 60
1, 117215, Note_on_c, 0, 53, 66
1, 117269, Note_off_c, 0, 53, 65
1, 117293, Note_on_c, 0, 75, 71
1, 117296, Note_on_c, 0, 44, 66
1, 117299, Note_off_c, 0, 73, 60
1, 117372, Note_off_c, 0, 75, 60
1, 117378, Note_off_c, 0, 44, 63
1, 117404, Note_on_c, 0, 77, 76
1, 117411, Note_on_c, 0, 56, 68
1, 117498, Note_on_c, 0, 75, 78
1, 117507, Note_off_c, 0, 56, 63
1, 117510, Note_on_c, 0, 54, 68
1, 117524, Note_off_c, 0, 77, 58
1, 117595, Note_off_c, 0, 54, 61
1, 117607, Note_on_c, 0, 56, 70
1, 117610, Note_on_c, 0, 78, 77
1, 117611, Note_off_c, 0, 75, 63
1, 117672, Note_off_c, 0, 56, 63
1, 117697, Note_on_c, 0, 77, 75
1, 117700, Note_on_c, 0, 44, 68
1, 117733, Note_off_c, 0, 78, 60
1, 117786, Note_off_c, 0, 44, 63
1, 117809, Note_on_c, 0, 75, 71
1, 117822, Note_on_c, 0, 58, 67
1, 117853, Note_off_c, 0, 77, 57
1, 117854, Note_off_c, 0, 58, 66
1, 117858, Control_c, 0, 64, 56
1, 117873, Control_c, 0, 64, 67
1, 117888, Control_c, 0, 64, 77
1, 117890, Note_on_c, 0, 44, 65
1, 117896, Note_on_c, 0, 73, 73
1, 117898, Note_off_c, 0, 75, 65
1, 117903, Control_c, 0, 64, 88
1, 117917, Control_c, 0, 64, 93
1, 117921, Note_off_c, 0, 73, 69
1, 117928, Note_off_c, 0, 44, 64
1, 117932, Control_c, 0, 64, 95
1, 117947, Control_c, 0, 64, 95
1, 117992, Control_c, 0, 64, 93
1, 118007, Control_c, 0, 64, 83
1, 118017, Note_on_c, 0, 82, 80
1, 118021, Control_c, 0, 64, 69
1, 118031, Note_on_c, 0, 60, 75
1, 118036, Control_c, 0, 64, 0
1, 118079, Note_off_c, 0, 82, 65
1, 118085, Note_on_c, 0, 80, 69
1, 118111, Note_off_c, 0, 60, 62
1, 118117, Note_on_c, 0, 61, 74
1, 118118, Note_off_c, 0, 80, 63
1, 118137, Note_on_c, 0, 79, 66
1, 118182, Note_off_c, 0, 79, 63
1, 118187, Note_off_c, 0, 61, 62
1, 118190, Note_on_c, 0, 80, 70
1, 118201, Note_on_c, 0, 63, 68
1, 118227, Note_on_c, 0, 82, 72
1, 118230, Note_off_c, 0, 80, 66
1, 118270, Note_off_c, 0, 63, 61
1, 118281, Note_off_c, 0, 82, 63
1, 118286, Note_on_c, 0, 60, 66
1, 118286, Note_on_c, 0, 80, 71
1, 118349, Note_off_c, 0, 80, 64
1, 118355, Note_on_c, 0, 82, 70
1, 118379, Note_off_c, 0, 60, 61
1, 118400, Note_on_c, 0, 56, 63
1, 118401, Note_off_c, 0, 82, 63
1, 118408, Note_on_c, 0, 80, 72
1, 118474, Note_off_c, 0, 80, 63
1, 118481, Note_on_c, 0, 82, 72
1, 118491, Note_off_c, 0, 56, 61
1, 118492, Note_on_c, 0, 60, 67
1, 118537, Note_off_c, 0, 82, 63
1, 118540, Note_on_c, 0, 80, 68
1, 118596, Note_off_c, 0, 60, 60
1, 118598, Note_on_c, 0, 63, 71
1, 118600, Note_on_c, 0, 82, 71
1, 118600, Note_off_c, 0, 80, 65
1, 118655, Note_off_c, 0, 82, 62
1, 118656, Note_on_c, 0, 80, 64
1, 118672, Note_off_c, 0, 63, 64
1, 118690, Note_on_c, 0, 65, 67
1, 118703, Note_off_c, 0, 80, 63
1, 118710, Note_on_c, 0, 82, 59
1, 118772, Note_on_c, 0, 80, 69
1, 118776, Note_off_c, 0, 82, 63
1, 118790, Note_on_c, 0, 66, 75
1, 118793, Note_off_c, 0, 65, 62
1, 118815, Note_off_c, 0, 80, 64
1, 118857, Note_off_c, 0, 66, 65
1, 118889, Note_on_c, 0, 65, 67
1, 118906, Note_on_c, 0, 80, 74
1, 118961, Note_off_c, 0, 65, 61
1, 118996, Note_on_c, 0, 63, 71
1, 118997, Note_on_c, 0, 78, 77
1, 119000, Note_off_c, 0, 80, 62
1, 119058, Note_off_c, 0, 63, 65
1, 119081, Note_on_c, 0, 65, 69
1, 119094, Note_off_c, 0, 78, 62
1, 119095, Note_on_c, 0, 80, 78
1, 119195, Note_off_c, 0, 80, 60
1, 119196, Note_on_c, 0, 77, 81
1, 119209, Note_on_c, 0, 73, 79
1, 119222, Note_off_c, 0, 65, 57
1, 119230, Note_off_c, 0, 73, 71
1, 119284, Note_off_c, 0, 77, 61
1, 119293, Note_on_c, 0, 80, 68
1, 119410, Note_off_c, 0, 80, 62
1, 119419, Note_on_c, 0, 75, 66
1, 119423, Note_on_c, 0, 68, 82
1, 119450, Note_off_c, 0, 68, 64
1, 119497, Note_off_c, 0, 75, 64
1, 119511, Note_on_c, 0, 80, 69
1, 119616, Note_off_c, 0, 80, 62
1, 119620, Note_on_c, 0, 65, 89
1, 119625, Note_on_c, 0, 73, 69
1, 119699, Note_off_c, 0, 73, 61
1, 119715, Note_on_c, 0, 80, 69
1, 119810, Note_off_c, 0, 65, 58
1, 119820, Note_off_c, 0, 80, 57
1, 119826, Note_on_c, 0, 72, 74
1, 119836, Note_on_c, 0, 63, 66
1, 119911, Note_off_c, 0, 63, 65
1, 119916, Note_off_c, 0, 72, 63
1, 119917, Note_on_c, 0, 70, 76
1, 119926, Note_on_c, 0, 61, 62
1, 120017, Note_off_c, 0, 61, 63
1, 120019, Note_off_c, 0, 70, 61
1, 120031, Note_on_c, 0, 72, 72
1, 120042, Note_on_c, 0, 62, 48
1, 120069, Note_off_c, 0, 62, 55
1, 120108, Note_off_c, 0, 72, 64
1, 120116, Note_on_c, 0, 75, 70
1, 120130, Note_on_c, 0, 56, 62
1, 120185, Note_off_c, 0, 75, 62
1, 120217, Note_off_c, 0, 56, 61
1, 120218, Note_on_c, 0, 60, 69
1, 120223, Note_on_c, 0, 77, 73
1, 120319, Note_off_c, 0, 60, 61
1, 120320, Note_on_c, 0, 78, 69
1, 120323, Note_on_c, 0, 63, 71
1, 120324, Note_off_c, 0, 77, 61
1, 120402, Note_off_c, 0, 63, 65
1, 120424, Note_on_c, 0, 65, 66
1, 120425, Note_on_c, 0, 80, 78
1, 120431, Note_off_c, 0, 78, 62
1, 120502, Note_off_c, 0, 65, 47
1, 120515, Note_on_c, 0, 63, 72
1, 120534, Note_on_c, 0, 78, 76
1, 120561, Note_off_c, 0, 80, 56
1, 120606, Note_off_c, 0, 63, 65
1, 120612, Note_on_c, 0, 61, 75
1, 120619, Note_off_c, 0, 78, 62
1, 120624, Note_on_c, 0, 77, 73
1, 120704, Note_off_c, 0, 61, 63
1, 120710, Note_on_c, 0, 63, 78
1, 120724, Note_on_c, 0, 80, 72
1, 120724, Note_off_c, 0, 77, 62
1, 120793, Note_off_c, 0, 63, 66
1, 120828, Note_on_c, 0, 72, 82
1, 120829, Note_off_c, 0, 80, 61
1, 120841, Note_on_c, 0, 75, 71
1, 120859, Note_off_c, 0, 72, 63
1, 120911, Note_off_c, 0, 75, 63
1, 120931, Note_on_c, 0, 80, 67
1, 121041, Note_off_c, 0, 80, 60
1, 121047, Note_on_c, 0, 68, 82
1, 121057, Note_on_c, 0, 73, 61
1, 121079, Note_off_c, 0, 68, 64
1, 121126, Note_off_c, 0, 73, 61
1, 121154, Note_on_c, 0, 80, 58
1, 121236, Note_off_c, 0, 80, 59
1, 121249, Note_on_c, 0, 63, 78
1, 121259, Note_on_c, 0, 72, 62
1, 121318, Note_off_c, 0, 72, 63
1, 121349, Note_on_c, 0, 80, 62
1, 121443, Note_off_c, 0, 63, 61
1, 121444, Note_off_c, 0, 80, 58
1, 121452, Note_on_c, 0, 70, 67
1, 121464, Note_on_c, 0, 61, 62
1, 121543, Note_off_c, 0, 61, 62
1, 121543, Note_off_c, 0, 70, 62
1, 121551, Note_on_c, 0, 60, 57
1, 121560, Note_on_c, 0, 68, 70
1, 121623, Note_off_c, 0, 60, 62
1, 121646, Note_on_c, 0, 61, 58
1, 121664, Note_on_c, 0, 70, 69
1, 121664, Note_off_c, 0, 68, 62
1, 121722, Note_off_c, 0, 61, 62
1, 121739, Note_on_c, 0, 56, 57
1, 121757, Note_off_c, 0, 70, 62
1, 121762, Note_on_c, 0, 73, 68
1, 121830, Note_off_c, 0, 56, 62
1, 121840, Control_c, 0, 67, 9
1, 121855, Control_c, 0, 67, 16
1, 121859, Note_off_c, 0, 73, 63
1, 121862, Note_on_c, 0, 75, 66
1, 121863, Note_on_c, 0, 60, 27
1, 121870, Control_c, 0, 67, 32
1, 121885, Control_c, 0, 67, 53
1, 121900, Control_c, 0, 67, 82
1, 121909, Note_off_c, 0, 75, 65
1, 121914, Control_c, 0, 67, 115
1, 121917, Note_off_c, 0, 60, 51
1, 121929, Control_c, 0, 67, 127
1, 121942, Note_on_c, 0, 65, 54
1, 121956, Note_on_c, 0, 77, 69
1, 122016, Note_off_c, 0, 65, 56
1, 122037, Note_off_c, 0, 77, 53
1, 122048, Note_on_c, 0, 63, 54
1, 122051, Note_on_c, 0, 78, 68
1, 122127, Note_off_c, 0, 63, 63
1, 122132, Note_off_c, 0, 78, 63
1, 122133, Note_on_c, 0, 61, 59
1, 122150, Note_on_c, 0, 77, 70
1, 122225, Note_off_c, 0, 61, 61
1, 122245, Note_off_c, 0, 77, 60
1, 122249, Note_on_c, 0, 60, 56
1, 122252, Note_on_c, 0, 75, 66
1, 122337, Note_off_c, 0, 75, 64
1, 122344, Note_off_c, 0, 60, 61
1, 122353, Note_on_c, 0, 77, 60
1, 122357, Note_on_c, 0, 61, 60
1, 122424, Note_off_c, 0, 61, 62
1, 122436, Note_off_c, 0, 77, 60
1, 122455, Note_on_c, 0, 73, 63
1, 122463, Note_on_c, 0, 70, 73
1, 122489, Note_off_c, 0, 70, 66
1, 122561, Note_off_c, 0, 73, 59
1, 122570, Note_on_c, 0, 75, 53
1, 122651, Note_off_c, 0, 75, 63
1, 122670, Note_on_c, 0, 67, 66
1, 122677, Note_on_c, 0, 72, 60
1, 122698, Note_off_c, 0, 67, 65
1, 122731, Note_off_c, 0, 72, 51
1, 122775, Note_on_c, 0, 75, 55
1, 122875, Note_on_c, 0, 61, 64
1, 122882, Note_off_c, 0, 75, 56
1, 122883, Note_on_c, 0, 70, 64
1, 122956, Note_off_c, 0, 70, 61
1, 122991, Note_on_c, 0, 75, 55
1, 123053, Note_off_c, 0, 61, 57
1, 123077, Note_off_c, 0, 75, 62
1, 123084, Note_on_c, 0, 60, 56
1, 123090, Note_on_c, 0, 68, 66
1, 123160, Note_off_c, 0, 68, 63
1, 123165, Note_off_c, 0, 60, 62
1, 123183, Note_on_c, 0, 58, 57
1, 123187, Note_on_c, 0, 67, 63
1, 123238, Note_off_c, 0, 67, 58
1, 123276, Note_off_c, 0, 58, 65
1, 123282, Note_on_c, 0, 68, 71
1, 123293, Note_on_c, 0, 60, 59
1, 123322, Control_c, 0, 67, 107
1, 123337, Control_c, 0, 67, 68
1, 123352, Control_c, 0, 67, 19
1, 123353, Note_off_c, 0, 68, 63
1, 123360, Note_off_c, 0, 60, 62
1, 123367, Control_c, 0, 67, 0
1, 123385, Note_on_c, 0, 56, 58
1, 123390, Note_on_c, 0, 72, 71
1, 123479, Note_off_c, 0, 72, 60
1, 123480, Note_off_c, 0, 56, 57
1, 123482, Note_on_c, 0, 58, 63
1, 123485, Note_on_c, 0, 73, 73
1, 123572, Note_off_c, 0, 58, 61
1, 123573, Note_on_c, 0, 60, 65
1, 123578, Note_on_c, 0, 75, 76
1, 123584, Note_off_c, 0, 73, 63
1, 123655, Note_off_c, 0, 75, 64
1, 123669, Note_off_c, 0, 60, 62
1, 123673, Note_on_c, 0, 61, 70
1, 123673, Note_on_c, 0, 77, 77
1, 123754, Note_off_c, 0, 61, 63
1, 123759, Note_on_c, 0, 78, 78
1, 123772, Note_off_c, 0, 77, 61
1, 123777, Note_on_c, 0, 63, 63
1, 123859, Note_off_c, 0, 63, 65
1, 123866, Note_on_c, 0, 80, 79
1, 123869, Note_off_c, 0, 78, 62
1, 123874, Note_on_c, 0, 65, 63
1, 123955, Note_off_c, 0, 80, 64
1, 123961, Note_on_c, 0, 82, 79
1, 123964, Note_off_c, 0, 65, 65
1, 123968, Note_on_c, 0, 63, 70
1, 124046, Note_off_c, 0, 82, 63
1, 124054, Note_off_c, 0, 63, 65
1, 124072, Note_on_c, 0, 66, 66
1, 124073, Note_on_c, 0, 72, 81
1, 124110, Note_off_c, 0, 72, 64
1, 124150, Note_off_c, 0, 66, 65
1, 124165, Note_on_c, 0, 65, 63
1, 124260, Note_on_c, 0, 63, 69
1, 124264, Note_off_c, 0, 65, 64
1, 124269, Note_on_c, 0, 68, 83
1, 124323, Note_off_c, 0, 68, 60
1, 124347, Note_on_c, 0, 61, 66
1, 124350, Note_off_c, 0, 63, 64
1, 124432, Note_off_c, 0, 61, 64
1, 124463, Note_on_c, 0, 66, 77
1, 124466, Note_on_c, 0, 70, 84
1, 124504, Note_off_c, 0, 66, 64
1, 124567, Note_on_c, 0, 68, 82
1, 124588, Note_off_c, 0, 70, 49
1, 124655, Note_off_c, 0, 68, 63
1, 124666, Note_on_c, 0, 66, 82
1, 124675, Note_on_c, 0, 58, 63
1, 124759, Note_on_c, 0, 68, 81
1, 124764, Note_off_c, 0, 58, 58
1, 124767, Note_on_c, 0, 60, 63
1, 124784, Note_off_c, 0, 66, 62
1, 124818, Note_off_c, 0, 68, 65
1, 124855, Note_off_c, 0, 60, 61
1, 124860, Note_on_c, 0, 61, 74
1, 124863, Note_on_c, 0, 77, 87
1, 124900, Note_off_c, 0, 77, 61
1, 124937, Note_off_c, 0, 61, 61
1, 124964, Note_on_c, 0, 60, 65
1, 125065, Note_off_c, 0, 60, 61
1, 125068, Note_on_c, 0, 73, 85
1, 125071, Note_on_c, 0, 58, 71
1, 125114, Note_off_c, 0, 73, 62
1, 125152, Note_off_c, 0, 58, 65
1, 125159, Note_on_c, 0, 56, 70
1, 125248, Note_off_c, 0, 56, 62
1, 125263, Note_on_c, 0, 58, 86
1, 125264, Note_on_c, 0, 68, 92
1, 125487, Note_on_c, 0, 66, 81
1, 125521, Note_off_c, 0, 68, 60
1, 125566, Note_off_c, 0, 66, 66
1, 125581, Note_on_c, 0, 65, 78
1, 125640, Note_off_c, 0, 65, 63
1, 125676, Note_on_c, 0, 66, 88
1, 125720, Note_off_c, 0, 66, 64
1, 125761, Note_off_c, 0, 58, 60
1, 125769, Note_on_c, 0, 56, 63
1, 125867, Note_off_c, 0, 56, 59
1, 125876, Note_on_c, 0, 54, 59
1, 125879, Note_on_c, 0, 75, 79
1, 125925, Note_off_c, 0, 75, 62
1, 125949, Note_off_c, 0, 54, 62
1, 125968, Note_on_c, 0, 58, 64
1, 126058, Note_off_c, 0, 58, 56
1, 126089, Note_on_c, 0, 56, 61
1, 126092, Note_on_c, 0, 65, 77
1, 126128, Note_off_c, 0, 65, 65
1, 126173, Note_off_c, 0, 56, 62
1, 126179, Note_on_c, 0, 54, 64
1, 126278, Note_off_c, 0, 54, 53
1, 126290, Note_on_c, 0, 53, 65
1, 126299, Note_on_c, 0, 73, 82
1, 126342, Note_off_c, 0, 73, 65
1, 126375, Note_off_c, 0, 53, 64
1, 126398, Note_on_c, 0, 56, 66
1, 126454, Note_off_c, 0, 56, 56
1, 126498, Note_on_c, 0, 63, 75
1, 126507, Note_on_c, 0, 54, 66
1, 126524, Note_off_c, 0, 63, 67
1, 126604, Note_on_c, 0, 53, 59
1, 126664, Note_off_c, 0, 54, 0
1, 126681, Note_on_c, 0, 54, 33
1, 126683, Note_off_c, 0, 53, 63
1, 126701, Note_on_c, 0, 72, 71
1, 126729, Note_off_c, 0, 72, 67
1, 126777, Note_off_c, 0, 54, 61
1, 126791, Note_on_c, 0, 51, 66
1, 126883, Note_off_c, 0, 51, 60
1, 126898, Note_on_c, 0, 53, 72
1, 126902, Note_on_c, 0, 61, 78
1, 126946, Note_off_c, 0, 61, 60
1, 127111, Note_on_c, 0, 73, 74
1, 127149, Note_off_c, 0, 73, 66
1, 127178, Note_off_c, 0, 53, 65
1, 127192, Note_on_c, 0, 56, 61
1, 127203, Note_on_c, 0, 72, 73
1, 127282, Note_off_c, 0, 56, 63
1, 127290, Note_on_c, 0, 73, 75
1, 127291, Note_on_c, 0, 58, 75
1, 127291, Note_off_c, 0, 72, 63
1, 127360, Note_off_c, 0, 58, 64
1, 127382, Note_on_c, 0, 75, 77
1, 127384, Note_on_c, 0, 60, 60
1, 127390, Note_off_c, 0, 73, 63
1, 127448, Note_off_c, 0, 75, 61
1, 127458, Note_off_c, 0, 60, 55
1, 127480, Note_on_c, 0, 61, 67
1, 127488, Note_on_c, 0, 77, 77
1, 127581, Note_on_c, 0, 63, 70
1, 127581, Note_on_c, 0, 78, 77
1, 127588, Note_off_c, 0, 77, 57
1, 127671, Note_off_c, 0, 63, 64
1, 127679, Note_on_c, 0, 65, 78
1, 127682, Note_on_c, 0, 80, 84
1, 127685, Note_off_c, 0, 78, 59
1, 127699, Note_off_c, 0, 61, 56
1, 127778, Note_on_c, 0, 63, 77
1, 127779, Note_off_c, 0, 65, 64
1, 127781, Note_on_c, 0, 78, 83
1, 127784, Note_off_c, 0, 80, 61
1, 127854, Note_off_c, 0, 78, 61
1, 127873, Note_off_c, 0, 63, 64
1, 127879, Note_on_c, 0, 61, 72
1, 127881, Note_on_c, 0, 77, 82
1, 127969, Note_on_c, 0, 63, 77
1, 127969, Note_on_c, 0, 78, 75
1, 127975, Note_off_c, 0, 61, 62
1, 127982, Note_off_c, 0, 77, 56
1, 128053, Note_off_c, 0, 63, 64
1, 128072, Note_on_c, 0, 60, 73
1, 128072, Note_off_c, 0, 78, 56
1, 128073, Note_on_c, 0, 80, 81
1, 128075, Note_on_c, 0, 72, 81
1, 128099, Note_off_c, 0, 72, 64
1, 128180, Note_on_c, 0, 78, 75
1, 128201, Note_off_c, 0, 80, 59
1, 128245, Note_off_c, 0, 78, 63
1, 128291, Note_on_c, 0, 77, 76
1, 128296, Note_on_c, 0, 68, 80
1, 128319, Note_off_c, 0, 68, 70
1, 128383, Note_on_c, 0, 75, 66
1, 128388, Note_off_c, 0, 77, 60
1, 128481, Note_off_c, 0, 75, 0
1, 128491, Note_on_c, 0, 63, 80
1, 128491, Note_on_c, 0, 77, 86
1, 128497, Poly_aftertouch_c, 0, 75, 0
1, 128653, Note_off_c, 0, 63, 62
1, 128696, Note_off_c, 0, 60, 58
1, 128721, Note_on_c, 0, 61, 70
1, 128795, Note_off_c, 0, 61, 64
1, 128804, Note_on_c, 0, 60, 69
1, 128885, Note_off_c, 0, 60, 62
1, 128887, Note_on_c, 0, 58, 70
1, 128894, Note_on_c, 0, 61, 76
1, 128954, Note_off_c, 0, 61, 62
1, 128990, Note_off_c, 0, 77, 54
1, 128992, Note_on_c, 0, 75, 60
1, 129101, Note_off_c, 0, 75, 54
1, 129110, Note_on_c, 0, 70, 87
1, 129116, Note_on_c, 0, 73, 70
1, 129137, Note_off_c, 0, 70, 62
1, 129189, Note_off_c, 0, 73, 60
1, 129197, Note_on_c, 0, 77, 66
1, 129301, Note_off_c, 0, 58, 55
1, 129316, Note_off_c, 0, 77, 57
1, 129316, Note_on_c, 0, 60, 85
1, 129325, Note_on_c, 0, 75, 64
1, 129370, Note_off_c, 0, 60, 62
1, 129409, Note_off_c, 0, 75, 65
1, 129414, Note_on_c, 0, 73, 59
1, 129507, Note_off_c, 0, 73, 60
1, 129528, Note_on_c, 0, 68, 90
1, 129537, Note_on_c, 0, 72, 67
1, 129545, Note_on_c, 0, 56, 54
1, 129563, Note_off_c, 0, 68, 61
1, 129572, Note_off_c, 0, 56, 62
1, 129620, Note_off_c, 0, 72, 61
1, 129634, Note_on_c, 0, 75, 52
1, 129732, Note_off_c, 0, 75, 53
1, 129738, Note_on_c, 0, 58, 73
1, 129741, Note_on_c, 0, 73, 70
1, 129787, Note_off_c, 0, 58, 61
1, 129833, Note_on_c, 0, 72, 69
1, 129837, Note_off_c, 0, 73, 62
1, 129921, Note_off_c, 0, 72, 62
1, 129939, Note_on_c, 0, 51, 81
1, 129946, Note_on_c, 0, 73, 72
1, 129949, Note_on_c, 0, 67, 75
1, 129981, Note_off_c, 0, 51, 60
1, 130008, Note_off_c, 0, 73, 61
1, 130037, Note_on_c, 0, 70, 73
1, 130046, Note_off_c, 0, 67, 59
1, 130080, Note_off_c, 0, 70, 61
1, 130142, Note_on_c, 0, 70, 71
1, 130143, Note_on_c, 0, 56, 72
1, 130233, Note_on_c, 0, 72, 76
1, 130249, Note_off_c, 0, 70, 62
1, 130258, Note_off_c, 0, 72, 68
1, 130339, Note_on_c, 0, 68, 65
1, 130355, Note_on_c, 0, 75, 42
1, 130362, Note_on_c, 0, 74, 57
1, 130382, Note_off_c, 0, 74, 67
1, 130383, Note_off_c, 0, 75, 58
1, 130422, Note_off_c, 0, 68, 58
1, 130429, Note_on_c, 0, 66, 71
1, 130533, Note_off_c, 0, 56, 56
1, 130536, Note_on_c, 0, 68, 81
1, 130538, Note_on_c, 0, 78, 86
1, 130556, Note_off_c, 0, 66, 65
1, 130570, Note_off_c, 0, 68, 66
1, 130628, Note_on_c, 0, 70, 64
1, 130711, Note_off_c, 0, 70, 55
1, 130745, Note_on_c, 0, 72, 69
1, 130747, Note_on_c, 0, 56, 84
1, 130792, Note_off_c, 0, 56, 60
1, 130825, Note_off_c, 0, 72, 63
1, 130849, Note_on_c, 0, 68, 65
1, 130942, Note_off_c, 0, 68, 57
1, 130959, Note_on_c, 0, 58, 78
1, 130959, Note_on_c, 0, 73, 69
1, 130980, Note_off_c, 0, 78, 54
1, 131052, Note_on_c, 0, 56, 73
1, 131056, Note_off_c, 0, 58, 63
1, 131059, Note_on_c, 0, 72, 68
1, 131062, Note_off_c, 0, 73, 57
1, 131113, Note_off_c, 0, 56, 55
1, 131142, Note_off_c, 0, 72, 61
1, 131152, Note_on_c, 0, 54, 69
1, 131154, Note_on_c, 0, 70, 74
1, 131209, Note_off_c, 0, 70, 63
1, 131235, Note_on_c, 0, 56, 79
1, 131247, Note_off_c, 0, 54, 59
1, 131263, Note_on_c, 0, 72, 70
1, 131311, Note_off_c, 0, 72, 61
1, 131322, Note_off_c, 0, 56, 64
1, 131340, Note_on_c, 0, 65, 84
1, 131340, Note_on_c, 0, 77, 80
1, 131349, Note_on_c, 0, 73, 78
1, 131376, Note_off_c, 0, 65, 66
1, 131391, Note_off_c, 0, 73, 57
1, 131441, Note_on_c, 0, 72, 68
1, 131554, Note_off_c, 0, 72, 56
1, 131561, Note_on_c, 0, 61, 78
1, 131571, Note_on_c, 0, 70, 65
1, 131585, Note_off_c, 0, 61, 69
1, 131629, Note_off_c, 0, 70, 58
1, 131641, Note_on_c, 0, 68, 66
1, 131725, Note_off_c, 0, 68, 58
1, 131750, Note_on_c, 0, 56, 82
1, 131753, Note_on_c, 0, 70, 85
1, 131804, Note_off_c, 0, 77, 59
1, 131990, Note_on_c, 0, 54, 64
1, 131993, Note_off_c, 0, 56, 64
1, 132073, Note_off_c, 0, 54, 63
1, 132077, Note_on_c, 0, 53, 62
1, 132135, Note_off_c, 0, 70, 60
1, 132154, Note_on_c, 0, 54, 78
1, 132158, Note_off_c, 0, 53, 67
1, 132162, Note_on_c, 0, 75, 91
1, 132185, Note_off_c, 0, 54, 66
1, 132267, Note_on_c, 0, 68, 69
1, 132342, Note_off_c, 0, 68, 63
1, 132365, Note_on_c, 0, 66, 76
1, 132367, Note_on_c, 0, 63, 74
1, 132397, Note_off_c, 0, 63, 65
1, 132452, Note_off_c, 0, 66, 58
1, 132464, Note_on_c, 0, 70, 65
1, 132477, Note_off_c, 0, 75, 56
1, 132557, Note_on_c, 0, 53, 72
1, 132568, Note_on_c, 0, 68, 74
1, 132599, Note_off_c, 0, 53, 66
1, 132603, Note_off_c, 0, 70, 61
1, 132658, Note_off_c, 0, 68, 61
1, 132665, Note_on_c, 0, 66, 72
1, 132732, Note_off_c, 0, 66, 64
1, 132747, Note_on_c, 0, 61, 75
1, 132771, Note_on_c, 0, 73, 73
1, 132773, Note_on_c, 0, 65, 66
1, 132792, Note_off_c, 0, 61, 60
1, 132854, Note_on_c, 0, 68, 63
1, 132863, Note_off_c, 0, 65, 59
1, 132887, Note_off_c, 0, 68, 65
1, 132898, Note_off_c, 0, 73, 59
1, 132942, Note_on_c, 0, 51, 61
1, 132945, Note_on_c, 0, 72, 71
1, 132964, Note_on_c, 0, 66, 67
1, 132997, Note_off_c, 0, 51, 55
1, 133009, Note_off_c, 0, 72, 64
1, 133038, Note_off_c, 0, 66, 65
1, 133051, Note_on_c, 0, 65, 64
1, 133111, Note_off_c, 0, 65, 57
1, 133120, Note_on_c, 0, 60, 56
1, 133131, Control_c, 0, 67, 8
1, 133141, Note_off_c, 0, 60, 63
1, 133143, Note_on_c, 0, 75, 61
1, 133146, Control_c, 0, 67, 16
1, 133147, Note_on_c, 0, 66, 63
1, 133160, Control_c, 0, 67, 30
1, 133175, Control_c, 0, 67, 46
1, 133190, Control_c, 0, 67, 63
1, 133205, Control_c, 0, 67, 85
1, 133215, Note_off_c, 0, 66, 60
1, 133220, Control_c, 0, 67, 109
1, 133228, Note_on_c, 0, 63, 63
1, 133234, Control_c, 0, 67, 127
1, 133260, Note_off_c, 0, 63, 66
1, 133322, Note_on_c, 0, 49, 47
1, 133337, Note_on_c, 0, 65, 58
1, 133401, Note_off_c, 0, 49, 60
1, 133421, Note_on_c, 0, 44, 52
1, 133436, Note_off_c, 0, 75, 47
1, 133522, Note_off_c, 0, 44, 57
1, 133540, Note_on_c, 0, 49, 51
1, 133542, Note_on_c, 0, 68, 62
1, 133573, Note_off_c, 0, 68, 66
1, 133625, Note_off_c, 0, 49, 62
1, 133638, Note_on_c, 0, 51, 52
1, 133720, Note_off_c, 0, 51, 63
1, 133752, Note_on_c, 0, 73, 59
1, 133758, Note_on_c, 0, 53, 50
1, 133835, Note_off_c, 0, 53, 62
1, 133850, Note_on_c, 0, 54, 58
1, 133927, Note_off_c, 0, 54, 62
1, 133944, Note_on_c, 0, 56, 52
1, 133951, Note_on_c, 0, 71, 64
1, 133957, Note_off_c, 0, 65, 64
1, 133968, Note_off_c, 0, 73, 31
1, 133995, Note_off_c, 0, 56, 63
1, 134018, Note_off_c, 0, 71, 56
1, 134023, Note_on_c, 0, 53, 57
1, 134097, Note_off_c, 0, 53, 65
1, 134131, Note_on_c, 0, 54, 62
1, 134150, Note_on_c, 0, 70, 67
1, 134185, Note_off_c, 0, 54, 59
1, 134231, Note_on_c, 0, 42, 61
1, 134318, Note_off_c, 0, 42, 61
1, 134348, Note_on_c, 0, 54, 53
1, 134359, Note_on_c, 0, 61, 61
1, 134391, Note_off_c, 0, 54, 59
1, 134398, Note_off_c, 0, 61, 56
1, 134452, Note_on_c, 0, 53, 60
1, 134550, Note_off_c, 0, 53, 66
1, 134561, Note_on_c, 0, 54, 63
1, 134578, Note_on_c, 0, 66, 60
1, 134670, Note_on_c, 0, 56, 59
1, 134676, Note_off_c, 0, 54, 58
1, 134750, Note_off_c, 0, 56, 61
1, 134758, Note_off_c, 0, 66, 60
1, 134764, Note_on_c, 0, 65, 61
1, 134772, Note_on_c, 0, 58, 55
1, 134802, Note_off_c, 0, 65, 63
1, 134841, Note_off_c, 0, 58, 54
1, 134861, Note_on_c, 0, 54, 59
1, 134979, Note_on_c, 0, 66, 65
1, 134983, Note_off_c, 0, 54, 59
1, 134989, Note_on_c, 0, 51, 52
1, 134995, Note_off_c, 0, 70, 52
1, 135078, Note_off_c, 0, 51, 62
1, 135096, Note_on_c, 0, 53, 66
1, 135171, Note_off_c, 0, 53, 65
1, 135194, Note_on_c, 0, 54, 61
1, 135209, Note_on_c, 0, 70, 68
1, 135211, Note_off_c, 0, 66, 65
1, 135269, Note_off_c, 0, 54, 56
1, 135288, Note_on_c, 0, 51, 60
1, 135288, Note_on_c, 0, 66, 66
1, 135300, Note_off_c, 0, 70, 58
1, 135376, Note_off_c, 0, 51, 61
1, 135394, Note_off_c, 0, 66, 65
1, 135398, Note_on_c, 0, 48, 63
1, 135401, Note_on_c, 0, 63, 67
1, 135490, Note_off_c, 0, 48, 64
1, 135500, Note_on_c, 0, 49, 60
1, 135573, Note_off_c, 0, 63, 62
1, 135589, Note_on_c, 0, 51, 62
1, 135592, Note_on_c, 0, 66, 66
1, 135615, Note_off_c, 0, 49, 55
1, 135657, Note_off_c, 0, 51, 61
1, 135682, Note_on_c, 0, 63, 64
1, 135684, Note_off_c, 0, 66, 62
1, 135691, Note_on_c, 0, 48, 54
1, 135747, Note_off_c, 0, 48, 59
1, 135763, Note_off_c, 0, 63, 60
1, 135788, Note_on_c, 0, 56, 68
1, 135793, Note_on_c, 0, 41, 68
1, 135822, Note_off_c, 0, 41, 67
1, 136001, Note_on_c, 0, 63, 72
1, 136008, Note_on_c, 0, 53, 48
1, 136029, Note_off_c, 0, 63, 67
1, 136087, Note_off_c, 0, 53, 60
1, 136111, Note_on_c, 0, 51, 45
1, 136185, Note_off_c, 0, 51, 62
1, 136202, Note_off_c, 0, 56, 63
1, 136218, Note_on_c, 0, 68, 78
1, 136219, Note_on_c, 0, 53, 54
1, 136295, Note_off_c, 0, 53, 60
1, 136310, Note_on_c, 0, 54, 54
1, 136415, Note_on_c, 0, 56, 55
1, 136415, Note_off_c, 0, 54, 60
1, 136429, Note_on_c, 0, 60, 64
1, 136457, Note_off_c, 0, 60, 65
1, 136473, Note_off_c, 0, 56, 62
1, 136530, Note_on_c, 0, 53, 46
1, 136614, Note_off_c, 0, 53, 58
1, 136616, Note_off_c, 0, 68, 56
1, 136637, Note_on_c, 0, 50, 55
1, 136638, Note_on_c, 0, 65, 69
1, 136727, Note_off_c, 0, 50, 61
1, 136744, Note_on_c, 0, 51, 55
1, 136823, Note_off_c, 0, 51, 59
1, 136846, Note_on_c, 0, 53, 51
1, 136853, Note_off_c, 0, 65, 62
1, 136855, Note_on_c, 0, 68, 69
1, 136905, Note_off_c, 0, 53, 59
1, 136936, Note_on_c, 0, 50, 54
1, 136941, Note_on_c, 0, 65, 65
1, 136955, Note_off_c, 0, 68, 56
1, 137024, Note_off_c, 0, 65, 64
1, 137032, Note_off_c, 0, 50, 64
1, 137048, Note_on_c, 0, 46, 69
1, 137052, Note_on_c, 0, 62, 67
1, 137141, Note_off_c, 0, 46, 62
1, 137147, Note_on_c, 0, 48, 57
1, 137207, Note_off_c, 0, 48, 64
1, 137233, Note_off_c, 0, 62, 56
1, 137238, Note_on_c, 0, 50, 61
1, 137261, Note_on_c, 0, 65, 57
1, 137326, Note_off_c, 0, 50, 54
1, 137337, Note_off_c, 0, 65, 65
1, 137341, Note_on_c, 0, 46, 67
1, 137347, Note_on_c, 0, 62, 70
1, 137402, Note_off_c, 0, 62, 60
1, 137416, Note_off_c, 0, 46, 63
1, 137438, Note_on_c, 0, 39, 67
1, 137448, Note_on_c, 0, 54, 74
1, 137475, Note_off_c, 0, 39, 62
1, 137609, Control_c, 0, 67, 118
1, 137624, Control_c, 0, 67, 85
1, 137639, Control_c, 0, 67, 41
1, 137648, Note_on_c, 0, 58, 71
1, 137654, Control_c, 0, 67, 0
1, 137660, Note_on_c, 0, 51, 46
1, 137679, Note_off_c, 0, 58, 65
1, 137752, Note_off_c, 0, 51, 60
1, 137755, Note_on_c, 0, 50, 58
1, 137841, Note_off_c, 0, 50, 64
1, 137846, Note_off_c, 0, 54, 60
1, 137853, Note_on_c, 0, 66, 79
1, 137862, Note_on_c, 0, 51, 65
1, 137937, Note_off_c, 0, 51, 63
1, 137950, Note_on_c, 0, 53, 66
1, 138053, Note_off_c, 0, 53, 65
1, 138068, Note_on_c, 0, 54, 64
1, 138071, Note_on_c, 0, 58, 76
1, 138103, Note_off_c, 0, 58, 64
1, 138108, Note_off_c, 0, 54, 59
1, 138155, Note_on_c, 0, 51, 51
1, 138230, Note_off_c, 0, 51, 58
1, 138260, Note_on_c, 0, 48, 60
1, 138271, Note_on_c, 0, 63, 78
1, 138292, Note_off_c, 0, 66, 55
1, 138348, Note_off_c, 0, 48, 64
1, 138364, Note_on_c, 0, 49, 54
1, 138367, Note_on_c, 0, 65, 74
1, 138397, Note_off_c, 0, 63, 65
1, 138448, Note_off_c, 0, 49, 62
1, 138456, Note_on_c, 0, 51, 67
1, 138472, Note_on_c, 0, 66, 80
1, 138485, Note_off_c, 0, 65, 63
1, 138524, Note_off_c, 0, 66, 65
1, 138525, Note_off_c, 0, 51, 63
1, 138557, Note_on_c, 0, 63, 83
1, 138560, Note_on_c, 0, 48, 64
1, 138638, Note_off_c, 0, 63, 61
1, 138649, Note_off_c, 0, 48, 53
1, 138664, Note_on_c, 0, 44, 65
1, 138673, Note_on_c, 0, 75, 91
1, 138769, Note_off_c, 0, 44, 64
1, 138773, Note_on_c, 0, 66, 81
1, 138776, Note_on_c, 0, 46, 71
1, 138829, Note_off_c, 0, 46, 60
1, 138870, Note_on_c, 0, 48, 53
1, 138871, Note_on_c, 0, 68, 81
1, 138885, Note_off_c, 0, 66, 65
1, 138931, Note_off_c, 0, 48, 60
1, 138949, Note_on_c, 0, 44, 61
1, 138956, Note_off_c, 0, 68, 62
1, 138961, Note_on_c, 0, 63, 82
1, 139006, Note_off_c, 0, 63, 63
1, 139014, Note_off_c, 0, 75, 59
1, 139027, Note_off_c, 0, 44, 62
1, 139059, Note_on_c, 0, 37, 74
1, 139064, Note_on_c, 0, 65, 90
1, 139102, Note_off_c, 0, 37, 62
1, 139108, Control_c, 0, 64, 71
1, 139122, Control_c, 0, 64, 83
1, 139137, Control_c, 0, 64, 97
1, 139152, Control_c, 0, 64, 105
1, 139167, Control_c, 0, 64, 107
1, 139169, Note_on_c, 0, 73, 72
1, 139182, Control_c, 0, 64, 109
1, 139196, Control_c, 0, 64, 110
1, 139211, Control_c, 0, 64, 111
1, 139223, Note_off_c, 0, 65, 60
1, 139256, Control_c, 0, 64, 108
1, 139258, Note_on_c, 0, 49, 77
1, 139258, Note_off_c, 0, 73, 64
1, 139263, Note_on_c, 0, 72, 79
1, 139271, Control_c, 0, 64, 95
1, 139285, Control_c, 0, 64, 77
1, 139300, Control_c, 0, 64, 0
1, 139345, Note_on_c, 0, 51, 76
1, 139345, Note_off_c, 0, 49, 61
1, 139354, Note_off_c, 0, 72, 64
1, 139358, Note_on_c, 0, 75, 78
1, 139432, Note_off_c, 0, 51, 63
1, 139445, Note_on_c, 0, 53, 80
1, 139451, Note_on_c, 0, 73, 82
1, 139484, Note_off_c, 0, 75, 63
1, 139490, Note_off_c, 0, 53, 67
1, 139548, Note_off_c, 0, 73, 61
1, 139551, Note_on_c, 0, 68, 75
1, 139656, Note_on_c, 0, 61, 86
1, 139659, Note_on_c, 0, 70, 77
1, 139666, Note_off_c, 0, 68, 63
1, 139671, Note_on_c, 0, 49, 62
1, 139694, Note_off_c, 0, 49, 58
1, 139751, Note_on_c, 0, 71, 74
1, 139806, Note_off_c, 0, 70, 33
1, 139846, Note_on_c, 0, 54, 88
1, 139849, Note_on_c, 0, 70, 74
1, 139857, Note_off_c, 0, 61, 58
1, 139876, Note_off_c, 0, 71, 59
1, 139950, Note_on_c, 0, 60, 72
1, 139952, Note_on_c, 0, 68, 91
1, 139973, Note_off_c, 0, 70, 61
1, 140026, Note_off_c, 0, 54, 50
1, 140048, Note_on_c, 0, 66, 91
1, 140048, Note_off_c, 0, 68, 59
1, 140048, Note_off_c, 0, 60, 62
1, 140051, Note_on_c, 0, 58, 68
1, 140136, Note_off_c, 0, 58, 64
1, 140137, Note_on_c, 0, 60, 66
1, 140143, Note_on_c, 0, 68, 84
1, 140152, Note_off_c, 0, 66, 62
1, 140230, Note_off_c, 0, 60, 62
1, 140236, Note_on_c, 0, 77, 88
1, 140242, Note_on_c, 0, 61, 81
1, 140254, Note_on_c, 0, 53, 68
1, 140255, Note_off_c, 0, 68, 63
1, 140295, Note_off_c, 0, 77, 60
1, 140339, Note_off_c, 0, 61, 61
1, 140354, Note_on_c, 0, 60, 69
1, 140411, Note_off_c, 0, 53, 60
1, 140441, Note_on_c, 0, 73, 86
1, 140442, Note_on_c, 0, 58, 63
1, 140459, Note_off_c, 0, 60, 56
1, 140491, Note_off_c, 0, 73, 62
1, 140508, Note_on_c, 0, 56, 67
1, 140565, Note_off_c, 0, 58, 57
1, 140611, Note_off_c, 0, 56, 63
1, 140638, Note_on_c, 0, 58, 74
1, 140642, Note_on_c, 0, 51, 54
1, 140649, Note_on_c, 0, 68, 92
1, 140683, Note_off_c, 0, 51, 62
1, 140848, Note_on_c, 0, 49, 64
1, 140852, Note_on_c, 0, 66, 83
1, 140888, Note_off_c, 0, 68, 61
1, 140918, Note_off_c, 0, 49, 57
1, 140928, Note_off_c, 0, 66, 67
1, 140936, Note_on_c, 0, 65, 76
1, 141019, Note_off_c, 0, 58, 63
1, 141046, Note_off_c, 0, 65, 41
1, 141048, Note_on_c, 0, 66, 86
1, 141058, Note_on_c, 0, 48, 73
1, 141093, Note_off_c, 0, 66, 62
1, 141146, Note_on_c, 0, 56, 63
1, 141246, Note_on_c, 0, 75, 85
1, 141246, Note_off_c, 0, 48, 65
1, 141253, Note_on_c, 0, 54, 69
1, 141267, Note_off_c, 0, 56, 61
1, 141293, Note_off_c, 0, 75, 66
1, 141323, Note_off_c, 0, 54, 62
1, 141329, Note_on_c, 0, 58, 69
1, 141406, Note_off_c, 0, 58, 62
1, 141440, Note_on_c, 0, 56, 73
1, 141442, Note_on_c, 0, 49, 68
1, 141448, Note_on_c, 0, 65, 76
1, 141486, Note_off_c, 0, 65, 64
1, 141525, Note_off_c, 0, 49, 61
1, 141531, Note_on_c, 0, 54, 64
1, 141537, Note_off_c, 0, 56, 59
1, 141636, Note_on_c, 0, 53, 65
1, 141642, Note_off_c, 0, 54, 52
1, 141645, Note_on_c, 0, 73, 81
1, 141694, Note_off_c, 0, 73, 63
1, 141710, Note_off_c, 0, 53, 65
1, 141746, Note_on_c, 0, 56, 61
1, 141799, Note_off_c, 0, 56, 60
1, 141848, Note_on_c, 0, 54, 70
1, 141851, Note_on_c, 0, 63, 84
1, 141878, Note_on_c, 0, 44, 62
1, 141892, Note_off_c, 0, 63, 63
1, 141923, Note_off_c, 0, 54, 61
1, 141955, Note_on_c, 0, 53, 64
1, 141964, Note_off_c, 0, 44, 62
1, 142043, Note_off_c, 0, 53, 63
1, 142044, Note_on_c, 0, 51, 72
1, 142045, Note_on_c, 0, 72, 75
1, 142086, Note_off_c, 0, 72, 68
1, 142133, Note_off_c, 0, 51, 62
1, 142137, Note_on_c, 0, 54, 76
1, 142233, Note_off_c, 0, 54, 60
1, 142241, Note_on_c, 0, 61, 75
1, 142244, Note_on_c, 0, 53, 75
1, 142246, Note_on_c, 0, 46, 65
1, 142278, Note_off_c, 0, 46, 63
1, 142316, Note_off_c, 0, 61, 61
1, 142340, Note_on_c, 0, 65, 75
1, 142345, Note_off_c, 0, 53, 59
1, 142394, Note_on_c, 0, 55, 30
1, 142425, Note_off_c, 0, 55, 61
1, 142430, Note_on_c, 0, 66, 75
1, 142432, Note_off_c, 0, 65, 63
1, 142439, Note_on_c, 0, 58, 77
1, 142526, Note_on_c, 0, 68, 78
1, 142531, Note_off_c, 0, 58, 65
1, 142532, Note_off_c, 0, 66, 65
1, 142551, Note_on_c, 0, 60, 69
1, 142632, Note_off_c, 0, 68, 40
1, 142632, Note_on_c, 0, 70, 79
1, 142635, Note_off_c, 0, 60, 48
1, 142643, Note_on_c, 0, 61, 75
1, 142690, Note_off_c, 0, 70, 64
1, 142707, Note_off_c, 0, 61, 60
1, 142730, Note_on_c, 0, 72, 77
1, 142748, Note_on_c, 0, 60, 69
1, 142797, Note_off_c, 0, 60, 51
1, 142821, Note_on_c, 0, 73, 76
1, 142822, Note_off_c, 0, 72, 64
1, 142865, Note_on_c, 0, 59, 43
1, 142915, Note_off_c, 0, 59, 48
1, 142915, Note_on_c, 0, 75, 76
1, 142920, Note_off_c, 0, 73, 63
1, 142927, Note_on_c, 0, 56, 63
1, 142978, Note_off_c, 0, 56, 58
1, 142981, Note_off_c, 0, 75, 60
1, 143010, Note_on_c, 0, 76, 78
1, 143028, Note_on_c, 0, 55, 65
1, 143109, Note_on_c, 0, 75, 77
1, 143121, Note_on_c, 0, 56, 69
1, 143121, Note_off_c, 0, 55, 62
1, 143125, Note_off_c, 0, 76, 61
1, 143198, Note_off_c, 0, 75, 63
1, 143203, Note_on_c, 0, 73, 76
1, 143205, Note_off_c, 0, 56, 64
1, 143256, Note_on_c, 0, 58, 45
1, 143285, Note_off_c, 0, 58, 58
1, 143305, Note_on_c, 0, 75, 73
1, 143324, Note_off_c, 0, 73, 58
1, 143330, Note_on_c, 0, 55, 65
1, 143378, Note_off_c, 0, 75, 63
1, 143402, Note_on_c, 0, 76, 76
1, 143419, Note_off_c, 0, 55, 51
1, 143431, Note_on_c, 0, 51, 67
1, 143497, Note_on_c, 0, 79, 71
1, 143504, Note_off_c, 0, 76, 61
1, 143509, Note_on_c, 0, 49, 67
1, 143587, Note_off_c, 0, 79, 62
1, 143588, Note_on_c, 0, 80, 79
1, 143598, Control_c, 0, 64, 64
1, 143601, Note_on_c, 0, 48, 60
1, 143612, Control_c, 0, 64, 71
1, 143627, Control_c, 0, 64, 80
1, 143638, Note_off_c, 0, 51, 24
1, 143642, Control_c, 0, 64, 88
1, 143657, Control_c, 0, 64, 91
1, 143666, Note_off_c, 0, 49, 57
1, 143672, Control_c, 0, 64, 93
1, 143675, Note_off_c, 0, 80, 64
1, 143675, Note_on_c, 0, 82, 78
1, 143676, Note_on_c, 0, 46, 71
1, 143676, Note_off_c, 0, 48, 65
1, 143687, Control_c, 0, 64, 96
1, 143702, Control_c, 0, 64, 100
1, 143705, Note_off_c, 0, 46, 64
1, 143717, Control_c, 0, 64, 104
1, 143732, Control_c, 0, 64, 108
1, 143747, Control_c, 0, 64, 110
1, 143761, Control_c, 0, 64, 111
1, 143776, Control_c, 0, 64, 110
1, 143777, Note_on_c, 0, 44, 81
1, 143780, Note_on_c, 0, 73, 81
1, 143791, Control_c, 0, 64, 100
1, 143803, Note_off_c, 0, 82, 60
1, 143806, Control_c, 0, 64, 82
1, 143821, Control_c, 0, 64, 59
1, 143836, Control_c, 0, 64, 0
1, 143865, Note_off_c, 0, 73, 60
1, 143869, Note_on_c, 0, 51, 69
1, 143872, Note_on_c, 0, 72, 77
1, 143878, Note_off_c, 0, 44, 60
1, 143932, Note_off_c, 0, 51, 62
1, 143964, Note_on_c, 0, 53, 68
1, 143976, Note_on_c, 0, 70, 76
1, 143979, Note_off_c, 0, 72, 64
1, 144030, Note_off_c, 0, 53, 57
1, 144067, Note_on_c, 0, 54, 69
1, 144070, Note_on_c, 0, 68, 73
1, 144086, Note_off_c, 0, 70, 60
1, 144146, Note_off_c, 0, 68, 64
1, 144161, Note_off_c, 0, 54, 61
1, 144162, Note_on_c, 0, 56, 72
1, 144167, Note_on_c, 0, 75, 78
1, 144221, Note_off_c, 0, 75, 64
1, 144262, Note_on_c, 0, 58, 74
1, 144262, Note_off_c, 0, 56, 64
1, 144348, Note_off_c, 0, 58, 64
1, 144358, Note_on_c, 0, 60, 66
1, 144361, Note_on_c, 0, 66, 81
1, 144410, Note_off_c, 0, 66, 66
1, 144437, Note_off_c, 0, 60, 60
1, 144446, Note_on_c, 0, 56, 79
1, 144499, Note_off_c, 0, 56, 63
1, 144552, Note_on_c, 0, 65, 82
1, 144564, Note_on_c, 0, 61, 84
1, 144620, Note_off_c, 0, 65, 64
1, 144790, Note_on_c, 0, 73, 82
1, 144794, Note_on_c, 0, 41, 79
1, 144799, Note_on_c, 0, 68, 70
1, 144822, Note_off_c, 0, 61, 62
1, 144826, Note_off_c, 0, 68, 67
1, 144840, Note_off_c, 0, 41, 65
1, 144858, Note_off_c, 0, 73, 57
1, 145029, Note_on_c, 0, 42, 83
1, 145032, Note_on_c, 0, 63, 91
1, 145048, Note_on_c, 0, 70, 60
1, 145079, Note_off_c, 0, 70, 65
1, 145086, Note_off_c, 0, 42, 64
1, 145321, Note_on_c, 0, 44, 85
1, 145327, Note_on_c, 0, 72, 84
1, 145328, Note_on_c, 0, 68, 85
1, 145330, Note_on_c, 0, 66, 84
1, 145358, Note_off_c, 0, 63, 67
1, 145383, Note_off_c, 0, 44, 64
1, 145395, Note_off_c, 0, 72, 64
1, 145396, Note_off_c, 0, 66, 65
1, 145407, Note_off_c, 0, 68, 63
1, 145744, Note_on_c, 0, 37, 72
1, 145750, Note_on_c, 0, 61, 86
1, 145750, Note_on_c, 0, 68, 87
1, 145752, Note_on_c, 0, 73, 81
1, 145756, Note_on_c, 0, 65, 82
1, 146895, Note_off_c, 0, 61, 63
1, 146901, Note_off_c, 0, 65, 66
1, 146903, Note_off_c, 0, 73, 62
1, 146911, Note_off_c, 0, 37, 65
1, 146912, Note_off_c, 0, 68, 63
1, 146912, End_track
0, 0, End_of_file
