0, 0, Header, 0, 1, 384
1, 0, Start_track
1, 0, Title_t, "La Campanella--Tami Lin         "
1, 0, Text_t, "2008 e-Piano Junior Competition recital round"
1, 0, Text_t, "recorded July 2008"
1, 0, Text_t, "http://www.piano-e-competition.com/"
1, 0, Text_t, "File processed for distribution by software from Zenph Studios, Inc., http://www.zenph.com"
1, 0, Instrument_name_t, "Yamaha Disklavier Pro Mark IV concert grand piano, model DCFIIISM4PRO"
1, 0, Sequencer_specific, 39, 67, 113, 0, 1, 0, 1, 0, 76, 97, 32, 67, 97, 109, 112, 97, 110, 101, 108, 108, 97, 32, 32, 32, 84, 97, 109, 105, 32, 76, 105, 110, 32, 32, 32, 32, 32, 32, 32, 32
1, 0, Sequencer_specific, 6, 67, 113, 0, 0, 0, 69
1, 0, System_exclusive, 21, 67, 113, 126, 21, 0, 2, 2, 0, 3, 14, 1, 4, 1, 13, 13, 10, 11, 9, 2, 7, 247
1, 0, Sequencer_specific, 5, 67, 123, 12, 2, 1
1, 0, Tempo, 512820
1, 0, Time_signature, 4, 2, 24, 8
1, 0, System_exclusive, 5, 126, 127, 9, 1, 247
1, 1, System_exclusive, 8, 67, 16, 76, 0, 0, 126, 0, 247
1, 2, System_exclusive, 8, 67, 16, 76, 8, 9, 7, 1, 247
1, 3, Control_c, 0, 0, 0
1, 3, Control_c, 1, 0, 0
1, 3, Control_c, 2, 0, 0
1, 3, Control_c, 3, 0, 0
1, 3, Control_c, 4, 0, 0
1, 3, Control_c, 5, 0, 0
1, 3, Control_c, 6, 0, 0
1, 3, Control_c, 7, 0, 0
1, 3, Control_c, 8, 0, 0
1, 3, Control_c, 9, 0, 127
1, 3, Control_c, 10, 0, 0
1, 3, Control_c, 11, 0, 0
1, 3, Control_c, 12, 0, 0
1, 3, Control_c, 13, 0, 0
1, 3, Control_c, 14, 0, 0
1, 3, Control_c, 15, 0, 0
1, 4, Control_c, 0, 32, 0
1, 4, Control_c, 1, 32, 0
1, 4, Control_c, 2, 32, 0
1, 4, Control_c, 3, 32, 0
1, 4, Control_c, 4, 32, 0
1, 4, Control_c, 5, 32, 0
1, 4, Control_c, 6, 32, 0
1, 4, Control_c, 7, 32, 0
1, 4, Control_c, 8, 32, 0
1, 4, Control_c, 9, 32, 0
1, 4, Control_c, 10, 32, 0
1, 4, Control_c, 11, 32, 0
1, 4, Control_c, 12, 32, 0
1, 4, Control_c, 13, 32, 0
1, 4, Control_c, 14, 32, 0
1, 4, Control_c, 15, 32, 0
1, 5, Program_c, 0, 0
1, 5, Program_c, 1, 0
1, 5, Program_c, 2, 0
1, 5, Program_c, 3, 0
1, 5, Program_c, 4, 0
1, 5, Program_c, 5, 0
1, 5, Program_c, 6, 0
1, 5, Program_c, 7, 0
1, 5, Program_c, 8, 0
1, 5, Program_c, 9, 0
1, 5, Program_c, 10, 0
1, 5, Program_c, 11, 0
1, 5, Program_c, 12, 0
1, 5, Program_c, 13, 0
1, 5, Program_c, 14, 0
1, 5, Program_c, 15, 0
1, 6, Control_c, 0, 7, 100
1, 6, Control_c, 1, 7, 100
1, 6, Control_c, 2, 7, 100
1, 6, Control_c, 3, 7, 100
1, 6, Control_c, 4, 7, 100
1, 6, Control_c, 5, 7, 100
1, 6, Control_c, 6, 7, 100
1, 6, Control_c, 7, 7, 100
1, 6, Control_c, 8, 7, 100
1, 6, Control_c, 9, 7, 100
1, 6, Control_c, 10, 7, 100
1, 6, Control_c, 11, 7, 100
1, 6, Control_c, 12, 7, 100
1, 6, Control_c, 13, 7, 100
1, 6, Control_c, 14, 7, 100
1, 6, Control_c, 15, 7, 100
1, 117, Control_c, 0, 67, 15
1, 229, Control_c, 0, 67, 31
1, 341, Control_c, 0, 67, 46
1, 452, Control_c, 0, 67, 63
1, 564, Control_c, 0, 67, 77
1, 676, Control_c, 0, 67, 94
1, 787, Control_c, 0, 67, 108
1, 899, Control_c, 0, 67, 127
1, 1136, Note_on_c, 0, 63, 27
1, 1142, Control_c, 0, 64, 34
1, 1156, Note_on_c, 0, 75, 15
1, 1157, Control_c, 0, 64, 60
1, 1172, Control_c, 0, 64, 64
1, 1187, Control_c, 0, 64, 66
1, 1201, Control_c, 0, 64, 69
1, 1216, Control_c, 0, 64, 73
1, 1239, Control_c, 0, 64, 79
1, 1254, Control_c, 0, 64, 83
1, 1269, Control_c, 0, 64, 85
1, 1279, Note_off_c, 0, 63, 37
1, 1283, Note_off_c, 0, 75, 35
1, 1284, Control_c, 0, 64, 87
1, 1298, Control_c, 0, 64, 88
1, 1313, Control_c, 0, 64, 91
1, 1327, Control_c, 0, 64, 93
1, 1342, Control_c, 0, 64, 94
1, 1357, Control_c, 0, 64, 95
1, 1372, Control_c, 0, 64, 96
1, 1402, Control_c, 0, 64, 96
1, 1413, Note_on_c, 0, 75, 27
1, 1417, Note_on_c, 0, 63, 36
1, 1418, Control_c, 0, 64, 97
1, 1432, Control_c, 0, 64, 98
1, 1447, Control_c, 0, 64, 98
1, 1462, Control_c, 0, 64, 99
1, 1506, Control_c, 0, 64, 99
1, 1519, Note_off_c, 0, 63, 36
1, 1537, Note_off_c, 0, 75, 36
1, 1565, Control_c, 0, 64, 100
1, 1650, Note_on_c, 0, 63, 46
1, 1662, Note_on_c, 0, 75, 46
1, 1684, Control_c, 0, 64, 100
1, 1814, Note_off_c, 0, 63, 49
1, 1865, Note_off_c, 0, 75, 32
1, 1889, Note_on_c, 0, 99, 52
1, 1893, Note_on_c, 0, 87, 48
1, 1978, Note_off_c, 0, 87, 56
1, 1980, Note_off_c, 0, 99, 62
1, 2115, Note_on_c, 0, 87, 50
1, 2119, Note_on_c, 0, 99, 55
1, 2205, Note_off_c, 0, 87, 59
1, 2212, Note_off_c, 0, 99, 62
1, 2351, Note_on_c, 0, 99, 57
1, 2354, Note_on_c, 0, 87, 52
1, 2473, Note_off_c, 0, 87, 56
1, 2482, Note_off_c, 0, 99, 60
1, 2571, Note_on_c, 0, 63, 43
1, 2588, Note_on_c, 0, 75, 39
1, 2679, Note_off_c, 0, 63, 53
1, 2683, Note_off_c, 0, 75, 54
1, 2819, Note_on_c, 0, 75, 54
1, 2822, Note_on_c, 0, 63, 53
1, 2898, Note_off_c, 0, 63, 58
1, 2914, Note_off_c, 0, 75, 57
1, 3046, Note_on_c, 0, 63, 50
1, 3052, Note_on_c, 0, 75, 56
1, 3186, Note_off_c, 0, 63, 56
1, 3256, Note_off_c, 0, 75, 38
1, 3271, Note_on_c, 0, 99, 66
1, 3273, Note_on_c, 0, 87, 60
1, 3349, Note_off_c, 0, 87, 61
1, 3353, Note_off_c, 0, 99, 64
1, 3516, Note_on_c, 0, 99, 69
1, 3517, Note_on_c, 0, 87, 61
1, 3589, Note_off_c, 0, 87, 60
1, 3593, Note_off_c, 0, 99, 63
1, 3741, Note_on_c, 0, 87, 60
1, 3745, Note_on_c, 0, 99, 60
1, 3839, Note_off_c, 0, 87, 56
1, 3852, Note_off_c, 0, 99, 57
1, 3971, Note_on_c, 0, 63, 40
1, 3976, Note_on_c, 0, 75, 41
1, 4145, Note_off_c, 0, 63, 41
1, 4175, Note_off_c, 0, 75, 34
1, 4214, Note_on_c, 0, 87, 44
1, 4218, Note_on_c, 0, 99, 44
1, 4338, Note_off_c, 0, 87, 60
1, 4341, Note_off_c, 0, 99, 63
1, 4489, Note_on_c, 0, 87, 49
1, 4490, Note_on_c, 0, 99, 50
1, 4641, Note_off_c, 0, 99, 57
1, 4643, Note_off_c, 0, 87, 57
1, 4748, Note_on_c, 0, 63, 36
1, 4772, Note_on_c, 0, 75, 29
1, 5034, Note_off_c, 0, 63, 37
1, 5049, Note_off_c, 0, 75, 35
1, 5094, Note_on_c, 0, 99, 46
1, 5103, Note_on_c, 0, 87, 41
1, 5280, Note_off_c, 0, 99, 57
1, 5286, Note_off_c, 0, 87, 57
1, 5689, Note_on_c, 0, 99, 34
1, 5690, Note_on_c, 0, 87, 35
1, 6243, Note_off_c, 0, 99, 38
1, 6273, Note_off_c, 0, 87, 37
1, 6496, Control_c, 0, 64, 100
1, 6525, Control_c, 0, 64, 99
1, 6554, Control_c, 0, 64, 98
1, 6584, Control_c, 0, 64, 97
1, 6599, Control_c, 0, 64, 97
1, 6614, Control_c, 0, 64, 94
1, 6628, Control_c, 0, 64, 91
1, 6643, Control_c, 0, 64, 86
1, 6658, Control_c, 0, 64, 79
1, 6673, Control_c, 0, 64, 68
1, 6688, Control_c, 0, 64, 0
1, 6924, Control_c, 0, 64, 46
1, 6927, Note_on_c, 0, 75, 48
1, 6939, Control_c, 0, 64, 62
1, 6954, Control_c, 0, 64, 66
1, 6968, Control_c, 0, 64, 70
1, 6983, Control_c, 0, 64, 75
1, 6999, Control_c, 0, 64, 81
1, 7014, Control_c, 0, 64, 84
1, 7029, Control_c, 0, 64, 86
1, 7043, Control_c, 0, 64, 87
1, 7048, Note_off_c, 0, 75, 64
1, 7054, Note_on_c, 0, 87, 58
1, 7058, Control_c, 0, 64, 89
1, 7073, Control_c, 0, 64, 90
1, 7088, Control_c, 0, 64, 92
1, 7094, Note_off_c, 0, 87, 60
1, 7103, Control_c, 0, 64, 93
1, 7117, Control_c, 0, 64, 93
1, 7132, Control_c, 0, 64, 94
1, 7147, Control_c, 0, 64, 94
1, 7162, Control_c, 0, 64, 95
1, 7177, Control_c, 0, 64, 96
1, 7192, Control_c, 0, 64, 96
1, 7204, Note_on_c, 0, 87, 69
1, 7207, Control_c, 0, 64, 97
1, 7244, Control_c, 0, 64, 97
1, 7249, Note_off_c, 0, 87, 58
1, 7299, Note_on_c, 0, 99, 61
1, 7372, Note_off_c, 0, 99, 65
1, 7405, Note_on_c, 0, 87, 73
1, 7445, Note_off_c, 0, 87, 58
1, 7481, Control_c, 0, 64, 97
1, 7501, Note_on_c, 0, 99, 56
1, 7511, Control_c, 0, 64, 96
1, 7526, Control_c, 0, 64, 96
1, 7545, Note_off_c, 0, 99, 62
1, 7570, Control_c, 0, 64, 95
1, 7589, Note_on_c, 0, 85, 69
1, 7600, Control_c, 0, 64, 95
1, 7620, Note_off_c, 0, 85, 62
1, 7659, Note_on_c, 0, 56, 42
1, 7669, Note_on_c, 0, 99, 64
1, 7688, Control_c, 0, 64, 92
1, 7702, Note_on_c, 0, 63, 58
1, 7703, Control_c, 0, 64, 83
1, 7708, Note_off_c, 0, 56, 54
1, 7718, Note_off_c, 0, 99, 63
1, 7718, Control_c, 0, 64, 68
1, 7733, Control_c, 0, 64, 0
1, 7748, Control_c, 0, 64, 22
1, 7757, Note_off_c, 0, 63, 58
1, 7762, Control_c, 0, 64, 63
1, 7777, Control_c, 0, 64, 68
1, 7789, Note_on_c, 0, 71, 51
1, 7790, Note_on_c, 0, 83, 67
1, 7793, Control_c, 0, 64, 74
1, 7808, Control_c, 0, 64, 81
1, 7813, Note_off_c, 0, 83, 56
1, 7816, Note_off_c, 0, 71, 58
1, 7823, Control_c, 0, 64, 86
1, 7838, Control_c, 0, 64, 87
1, 7853, Control_c, 0, 64, 89
1, 7867, Control_c, 0, 64, 89
1, 7882, Note_on_c, 0, 99, 72
1, 7882, Control_c, 0, 64, 90
1, 7894, Poly_aftertouch_c, 0, 84, 0
1, 7897, Control_c, 0, 64, 90
1, 7910, Note_off_c, 0, 99, 65
1, 8009, Note_on_c, 0, 83, 59
1, 8030, Note_off_c, 0, 83, 64
1, 8098, Note_on_c, 0, 99, 74
1, 8128, Note_off_c, 0, 99, 62
1, 8140, Control_c, 0, 64, 89
1, 8155, Control_c, 0, 64, 83
1, 8170, Control_c, 0, 64, 72
1, 8185, Control_c, 0, 64, 0
1, 8203, Note_on_c, 0, 82, 83
1, 8247, Note_off_c, 0, 82, 62
1, 8307, Note_on_c, 0, 99, 73
1, 8309, Note_on_c, 0, 59, 47
1, 8331, Note_off_c, 0, 99, 71
1, 8333, Control_c, 0, 64, 29
1, 8335, Note_off_c, 0, 59, 59
1, 8344, Note_on_c, 0, 68, 53
1, 8348, Control_c, 0, 64, 63
1, 8363, Control_c, 0, 64, 70
1, 8378, Control_c, 0, 64, 77
1, 8392, Control_c, 0, 64, 85
1, 8407, Control_c, 0, 64, 88
1, 8417, Note_on_c, 0, 80, 83
1, 8422, Control_c, 0, 64, 90
1, 8426, Note_on_c, 0, 75, 68
1, 8437, Control_c, 0, 64, 92
1, 8441, Note_off_c, 0, 68, 61
1, 8444, Note_off_c, 0, 75, 67
1, 8452, Control_c, 0, 64, 94
1, 8455, Note_off_c, 0, 80, 60
1, 8466, Control_c, 0, 64, 96
1, 8481, Control_c, 0, 64, 98
1, 8496, Control_c, 0, 64, 100
1, 8511, Control_c, 0, 64, 102
1, 8524, Note_on_c, 0, 99, 73
1, 8525, Control_c, 0, 64, 103
1, 8540, Control_c, 0, 64, 104
1, 8548, Note_off_c, 0, 99, 73
1, 8631, Note_on_c, 0, 79, 79
1, 8659, Note_off_c, 0, 79, 64
1, 8744, Note_on_c, 0, 99, 80
1, 8769, Note_off_c, 0, 99, 69
1, 8771, Control_c, 0, 64, 103
1, 8786, Control_c, 0, 64, 98
1, 8800, Control_c, 0, 64, 87
1, 8815, Control_c, 0, 64, 67
1, 8829, Control_c, 0, 64, 0
1, 8841, Note_on_c, 0, 80, 84
1, 8873, Note_off_c, 0, 80, 60
1, 8920, Note_on_c, 0, 63, 60
1, 8948, Note_on_c, 0, 99, 70
1, 8963, Control_c, 0, 64, 33
1, 8970, Note_on_c, 0, 70, 62
1, 8975, Note_off_c, 0, 99, 70
1, 8978, Control_c, 0, 64, 63
1, 8983, Note_off_c, 0, 63, 62
1, 8992, Control_c, 0, 64, 70
1, 9007, Control_c, 0, 64, 80
1, 9022, Control_c, 0, 64, 89
1, 9033, Note_off_c, 0, 70, 61
1, 9037, Control_c, 0, 64, 93
1, 9045, Note_on_c, 0, 79, 68
1, 9045, Note_on_c, 0, 82, 84
1, 9052, Control_c, 0, 64, 95
1, 9067, Control_c, 0, 64, 97
1, 9072, Note_off_c, 0, 79, 67
1, 9082, Control_c, 0, 64, 100
1, 9092, Note_off_c, 0, 82, 62
1, 9096, Control_c, 0, 64, 105
1, 9111, Control_c, 0, 64, 109
1, 9126, Control_c, 0, 64, 112
1, 9140, Control_c, 0, 64, 114
1, 9152, Note_on_c, 0, 99, 67
1, 9155, Control_c, 0, 64, 116
1, 9170, Control_c, 0, 64, 117
1, 9178, Note_off_c, 0, 99, 68
1, 9185, Control_c, 0, 64, 119
1, 9200, Control_c, 0, 64, 119
1, 9254, Note_on_c, 0, 75, 82
1, 9279, Note_off_c, 0, 75, 66
1, 9364, Note_on_c, 0, 99, 70
1, 9380, Note_off_c, 0, 99, 69
1, 9482, Note_on_c, 0, 75, 76
1, 9553, Note_off_c, 0, 75, 62
1, 9583, Note_on_c, 0, 87, 63
1, 9599, Note_on_c, 0, 67, 39
1, 9623, Control_c, 0, 64, 119
1, 9637, Control_c, 0, 64, 114
1, 9652, Control_c, 0, 64, 101
1, 9659, Note_off_c, 0, 87, 60
1, 9667, Control_c, 0, 64, 84
1, 9676, Note_off_c, 0, 67, 63
1, 9682, Control_c, 0, 64, 55
1, 9690, Note_on_c, 0, 70, 69
1, 9696, Note_on_c, 0, 76, 75
1, 9697, Control_c, 0, 64, 0
1, 9717, Note_off_c, 0, 70, 67
1, 9737, Note_off_c, 0, 76, 66
1, 9804, Note_on_c, 0, 87, 48
1, 9871, Note_off_c, 0, 87, 59
1, 9905, Note_on_c, 0, 75, 81
1, 9941, Note_off_c, 0, 75, 64
1, 10006, Note_on_c, 0, 87, 54
1, 10069, Note_off_c, 0, 87, 59
1, 10110, Note_on_c, 0, 73, 78
1, 10139, Note_off_c, 0, 73, 63
1, 10200, Note_on_c, 0, 87, 59
1, 10247, Note_off_c, 0, 87, 56
1, 10324, Note_on_c, 0, 68, 61
1, 10328, Note_on_c, 0, 71, 71
1, 10346, Note_off_c, 0, 68, 66
1, 10364, Note_off_c, 0, 71, 62
1, 10431, Note_on_c, 0, 87, 65
1, 10460, Note_off_c, 0, 87, 67
1, 10538, Note_on_c, 0, 71, 69
1, 10565, Note_off_c, 0, 71, 66
1, 10637, Note_on_c, 0, 87, 62
1, 10668, Note_off_c, 0, 87, 64
1, 10740, Note_on_c, 0, 70, 77
1, 10775, Note_off_c, 0, 70, 61
1, 10846, Note_on_c, 0, 59, 45
1, 10850, Note_on_c, 0, 87, 62
1, 10869, Note_off_c, 0, 87, 61
1, 10894, Note_on_c, 0, 62, 52
1, 10897, Note_off_c, 0, 59, 61
1, 10928, Note_off_c, 0, 62, 64
1, 10941, Note_on_c, 0, 65, 54
1, 10966, Note_on_c, 0, 68, 74
1, 10971, Note_off_c, 0, 65, 65
1, 10992, Note_off_c, 0, 68, 70
1, 11076, Note_on_c, 0, 87, 70
1, 11094, Note_off_c, 0, 87, 63
1, 11176, Note_on_c, 0, 67, 80
1, 11201, Note_off_c, 0, 67, 68
1, 11373, Note_on_c, 0, 68, 74
1, 11403, Note_off_c, 0, 68, 64
1, 11481, Note_on_c, 0, 87, 71
1, 11507, Note_off_c, 0, 87, 67
1, 11594, Note_on_c, 0, 70, 72
1, 11595, Control_c, 0, 64, 65
1, 11599, Note_on_c, 0, 63, 48
1, 11603, Note_on_c, 0, 67, 48
1, 11610, Control_c, 0, 64, 74
1, 11625, Control_c, 0, 64, 84
1, 11626, Note_off_c, 0, 70, 63
1, 11634, Note_off_c, 0, 63, 56
1, 11637, Note_off_c, 0, 67, 57
1, 11639, Control_c, 0, 64, 92
1, 11654, Control_c, 0, 64, 96
1, 11669, Control_c, 0, 64, 98
1, 11684, Control_c, 0, 64, 101
1, 11699, Control_c, 0, 64, 104
1, 11707, Note_on_c, 0, 87, 76
1, 11721, Control_c, 0, 64, 107
1, 11736, Control_c, 0, 64, 110
1, 11744, Note_off_c, 0, 87, 61
1, 11750, Control_c, 0, 64, 113
1, 11765, Control_c, 0, 64, 114
1, 11780, Control_c, 0, 64, 116
1, 11796, Control_c, 0, 64, 117
1, 11811, Control_c, 0, 64, 119
1, 11815, Note_on_c, 0, 63, 65
1, 11826, Control_c, 0, 64, 120
1, 11840, Control_c, 0, 64, 121
1, 11855, Control_c, 0, 64, 121
1, 11885, Control_c, 0, 64, 122
1, 11892, Note_off_c, 0, 63, 60
1, 11900, Control_c, 0, 64, 123
1, 11914, Control_c, 0, 64, 123
1, 11923, Note_on_c, 0, 75, 64
1, 11951, Note_off_c, 0, 75, 68
1, 12033, Note_on_c, 0, 75, 73
1, 12090, Note_off_c, 0, 75, 61
1, 12123, Note_on_c, 0, 87, 69
1, 12156, Note_off_c, 0, 87, 58
1, 12196, Control_c, 0, 64, 123
1, 12211, Control_c, 0, 64, 120
1, 12226, Control_c, 0, 64, 108
1, 12240, Control_c, 0, 64, 95
1, 12255, Control_c, 0, 64, 75
1, 12258, Note_on_c, 0, 87, 81
1, 12270, Control_c, 0, 64, 0
1, 12291, Note_off_c, 0, 87, 58
1, 12352, Note_on_c, 0, 99, 62
1, 12431, Note_off_c, 0, 99, 66
1, 12471, Note_on_c, 0, 87, 72
1, 12499, Note_off_c, 0, 87, 62
1, 12581, Note_on_c, 0, 99, 42
1, 12615, Note_off_c, 0, 99, 58
1, 12666, Note_on_c, 0, 85, 70
1, 12700, Note_off_c, 0, 85, 59
1, 12721, Note_on_c, 0, 56, 39
1, 12751, Control_c, 0, 64, 58
1, 12752, Note_on_c, 0, 99, 65
1, 12766, Control_c, 0, 64, 67
1, 12772, Note_on_c, 0, 63, 55
1, 12779, Note_off_c, 0, 56, 53
1, 12781, Control_c, 0, 64, 74
1, 12785, Note_off_c, 0, 99, 67
1, 12796, Control_c, 0, 64, 82
1, 12811, Control_c, 0, 64, 88
1, 12826, Control_c, 0, 64, 93
1, 12841, Control_c, 0, 64, 96
1, 12843, Note_off_c, 0, 63, 57
1, 12856, Control_c, 0, 64, 99
1, 12860, Note_on_c, 0, 71, 53
1, 12864, Note_on_c, 0, 83, 72
1, 12870, Control_c, 0, 64, 102
1, 12885, Note_off_c, 0, 71, 62
1, 12885, Control_c, 0, 64, 104
1, 12896, Note_off_c, 0, 83, 59
1, 12900, Control_c, 0, 64, 107
1, 12914, Control_c, 0, 64, 110
1, 12929, Control_c, 0, 64, 112
1, 12944, Control_c, 0, 64, 114
1, 12959, Control_c, 0, 64, 115
1, 12962, Note_on_c, 0, 99, 70
1, 12974, Control_c, 0, 64, 117
1, 12988, Control_c, 0, 64, 118
1, 12993, Note_off_c, 0, 99, 64
1, 13003, Control_c, 0, 64, 118
1, 13073, Note_on_c, 0, 83, 76
1, 13106, Note_off_c, 0, 83, 59
1, 13121, Control_c, 0, 64, 118
1, 13136, Control_c, 0, 64, 117
1, 13151, Control_c, 0, 64, 117
1, 13166, Control_c, 0, 64, 115
1, 13172, Note_on_c, 0, 99, 72
1, 13181, Control_c, 0, 64, 112
1, 13196, Control_c, 0, 64, 104
1, 13214, Note_off_c, 0, 99, 64
1, 13218, Control_c, 0, 64, 91
1, 13233, Control_c, 0, 64, 76
1, 13248, Control_c, 0, 64, 41
1, 13262, Control_c, 0, 64, 0
1, 13283, Note_on_c, 0, 82, 82
1, 13328, Note_off_c, 0, 82, 62
1, 13351, Note_on_c, 0, 59, 48
1, 13397, Note_on_c, 0, 99, 71
1, 13398, Control_c, 0, 64, 39
1, 13406, Note_off_c, 0, 59, 59
1, 13412, Control_c, 0, 64, 67
1, 13414, Note_on_c, 0, 68, 58
1, 13419, Note_off_c, 0, 99, 78
1, 13427, Control_c, 0, 64, 75
1, 13442, Control_c, 0, 64, 84
1, 13457, Control_c, 0, 64, 91
1, 13472, Control_c, 0, 64, 95
1, 13482, Note_off_c, 0, 68, 64
1, 13486, Control_c, 0, 64, 97
1, 13494, Note_on_c, 0, 80, 86
1, 13499, Note_on_c, 0, 75, 70
1, 13501, Control_c, 0, 64, 101
1, 13516, Control_c, 0, 64, 105
1, 13517, Note_off_c, 0, 75, 68
1, 13531, Control_c, 0, 64, 108
1, 13541, Note_off_c, 0, 80, 63
1, 13545, Control_c, 0, 64, 111
1, 13560, Control_c, 0, 64, 114
1, 13575, Control_c, 0, 64, 116
1, 13590, Control_c, 0, 64, 119
1, 13602, Note_on_c, 0, 99, 78
1, 13605, Control_c, 0, 64, 123
1, 13619, Control_c, 0, 64, 127
1, 13622, Note_off_c, 0, 99, 73
1, 13634, Control_c, 0, 64, 127
1, 13708, Note_on_c, 0, 79, 79
1, 13732, Note_off_c, 0, 79, 66
1, 13798, Control_c, 0, 64, 126
1, 13812, Control_c, 0, 64, 124
1, 13813, Note_on_c, 0, 99, 79
1, 13827, Control_c, 0, 64, 119
1, 13836, Note_off_c, 0, 99, 71
1, 13842, Control_c, 0, 64, 110
1, 13857, Control_c, 0, 64, 96
1, 13872, Control_c, 0, 64, 80
1, 13886, Control_c, 0, 64, 27
1, 13901, Control_c, 0, 64, 0
1, 13911, Note_on_c, 0, 80, 85
1, 13950, Note_off_c, 0, 80, 62
1, 13991, Note_on_c, 0, 63, 55
1, 14032, Note_on_c, 0, 99, 68
1, 14036, Note_on_c, 0, 70, 63
1, 14042, Control_c, 0, 64, 48
1, 14052, Note_off_c, 0, 63, 60
1, 14057, Control_c, 0, 64, 64
1, 14057, Note_off_c, 0, 99, 72
1, 14071, Control_c, 0, 64, 71
1, 14086, Control_c, 0, 64, 79
1, 14101, Control_c, 0, 64, 87
1, 14104, Note_off_c, 0, 70, 62
1, 14116, Control_c, 0, 64, 91
1, 14129, Note_on_c, 0, 79, 58
1, 14129, Note_on_c, 0, 82, 84
1, 14130, Control_c, 0, 64, 93
1, 14145, Control_c, 0, 64, 95
1, 14149, Note_off_c, 0, 79, 63
1, 14160, Control_c, 0, 64, 97
1, 14162, Note_off_c, 0, 82, 58
1, 14175, Control_c, 0, 64, 101
1, 14191, Control_c, 0, 64, 103
1, 14206, Control_c, 0, 64, 106
1, 14221, Control_c, 0, 64, 108
1, 14233, Note_on_c, 0, 99, 79
1, 14235, Control_c, 0, 64, 109
1, 14250, Control_c, 0, 64, 111
1, 14255, Note_off_c, 0, 99, 72
1, 14265, Control_c, 0, 64, 113
1, 14280, Control_c, 0, 64, 114
1, 14343, Note_on_c, 0, 75, 79
1, 14368, Note_off_c, 0, 75, 68
1, 14448, Note_on_c, 0, 99, 82
1, 14461, Note_off_c, 0, 99, 76
1, 14562, Note_on_c, 0, 75, 71
1, 14631, Note_off_c, 0, 75, 63
1, 14660, Note_on_c, 0, 67, 40
1, 14671, Note_on_c, 0, 87, 55
1, 14694, Control_c, 0, 64, 114
1, 14716, Control_c, 0, 64, 108
1, 14731, Control_c, 0, 64, 95
1, 14745, Note_off_c, 0, 87, 60
1, 14746, Control_c, 0, 64, 73
1, 14760, Control_c, 0, 64, 0
1, 14761, Note_off_c, 0, 67, 62
1, 14774, Note_on_c, 0, 70, 64
1, 14778, Note_on_c, 0, 76, 74
1, 14797, Note_off_c, 0, 70, 66
1, 14814, Note_off_c, 0, 76, 62
1, 14881, Note_on_c, 0, 87, 52
1, 14948, Note_off_c, 0, 87, 56
1, 14987, Note_on_c, 0, 75, 80
1, 15019, Note_off_c, 0, 75, 61
1, 15085, Note_on_c, 0, 87, 50
1, 15160, Note_off_c, 0, 87, 56
1, 15200, Note_on_c, 0, 73, 76
1, 15204, Note_on_c, 0, 75, 62
1, 15238, Note_off_c, 0, 75, 52
1, 15241, Note_off_c, 0, 73, 61
1, 15304, Note_on_c, 0, 87, 50
1, 15386, Note_off_c, 0, 87, 59
1, 15407, Note_on_c, 0, 71, 66
1, 15410, Note_on_c, 0, 68, 62
1, 15413, Control_c, 0, 64, 62
1, 15418, Note_on_c, 0, 75, 68
1, 15428, Control_c, 0, 64, 74
1, 15434, Note_off_c, 0, 71, 67
1, 15441, Note_off_c, 0, 68, 66
1, 15443, Control_c, 0, 64, 87
1, 15465, Control_c, 0, 64, 100
1, 15480, Control_c, 0, 64, 105
1, 15493, Note_off_c, 0, 75, 62
1, 15495, Control_c, 0, 64, 108
1, 15509, Control_c, 0, 64, 110
1, 15524, Control_c, 0, 64, 113
1, 15533, Note_on_c, 0, 87, 58
1, 15539, Control_c, 0, 64, 115
1, 15554, Control_c, 0, 64, 117
1, 15569, Control_c, 0, 64, 118
1, 15583, Control_c, 0, 64, 118
1, 15613, Control_c, 0, 64, 119
1, 15625, Note_off_c, 0, 87, 53
1, 15637, Note_on_c, 0, 80, 68
1, 15702, Control_c, 0, 64, 118
1, 15717, Control_c, 0, 64, 118
1, 15717, Note_off_c, 0, 80, 63
1, 15726, Note_on_c, 0, 83, 63
1, 15732, Control_c, 0, 64, 112
1, 15744, Note_off_c, 0, 83, 64
1, 15747, Control_c, 0, 64, 101
1, 15762, Control_c, 0, 64, 87
1, 15777, Control_c, 0, 64, 70
1, 15792, Control_c, 0, 64, 0
1, 15837, Note_on_c, 0, 87, 73
1, 15873, Note_off_c, 0, 87, 59
1, 15933, Note_on_c, 0, 99, 67
1, 15950, Note_off_c, 0, 99, 70
1, 16029, Control_c, 0, 64, 34
1, 16044, Control_c, 0, 64, 65
1, 16056, Note_on_c, 0, 73, 52
1, 16059, Control_c, 0, 64, 73
1, 16063, Note_on_c, 0, 67, 50
1, 16067, Note_on_c, 0, 63, 41
1, 16073, Control_c, 0, 64, 86
1, 16078, Note_on_c, 0, 75, 68
1, 16088, Control_c, 0, 64, 95
1, 16102, Note_off_c, 0, 73, 57
1, 16103, Control_c, 0, 64, 98
1, 16118, Control_c, 0, 64, 99
1, 16132, Note_off_c, 0, 63, 54
1, 16132, Control_c, 0, 64, 101
1, 16141, Note_off_c, 0, 67, 59
1, 16141, Note_off_c, 0, 75, 61
1, 16147, Control_c, 0, 64, 103
1, 16162, Control_c, 0, 64, 105
1, 16176, Note_on_c, 0, 87, 59
1, 16177, Control_c, 0, 64, 106
1, 16192, Control_c, 0, 64, 106
1, 16229, Control_c, 0, 64, 107
1, 16290, Note_on_c, 0, 79, 61
1, 16292, Note_off_c, 0, 87, 44
1, 16389, Note_off_c, 0, 79, 59
1, 16392, Control_c, 0, 64, 106
1, 16393, Note_on_c, 0, 82, 65
1, 16406, Control_c, 0, 64, 104
1, 16418, Note_off_c, 0, 82, 66
1, 16421, Control_c, 0, 64, 97
1, 16436, Control_c, 0, 64, 86
1, 16451, Control_c, 0, 64, 70
1, 16466, Control_c, 0, 64, 0
1, 16504, Note_on_c, 0, 87, 61
1, 16540, Note_off_c, 0, 87, 60
1, 16621, Note_on_c, 0, 99, 50
1, 16692, Note_off_c, 0, 99, 62
1, 16734, Control_c, 0, 64, 41
1, 16739, Note_on_c, 0, 56, 46
1, 16749, Control_c, 0, 64, 66
1, 16763, Control_c, 0, 64, 72
1, 16778, Control_c, 0, 64, 80
1, 16793, Control_c, 0, 64, 87
1, 16801, Note_off_c, 0, 56, 58
1, 16808, Control_c, 0, 64, 90
1, 16823, Control_c, 0, 64, 92
1, 16832, Note_on_c, 0, 63, 50
1, 16837, Control_c, 0, 64, 95
1, 16852, Control_c, 0, 64, 98
1, 16867, Control_c, 0, 64, 101
1, 16881, Control_c, 0, 64, 104
1, 16896, Control_c, 0, 64, 106
1, 16910, Note_off_c, 0, 63, 61
1, 16911, Control_c, 0, 64, 107
1, 16926, Control_c, 0, 64, 108
1, 16941, Control_c, 0, 64, 109
1, 16957, Note_on_c, 0, 71, 51
1, 16963, Control_c, 0, 64, 110
1, 16978, Control_c, 0, 64, 110
1, 16996, Note_off_c, 0, 71, 62
1, 17008, Control_c, 0, 64, 111
1, 17052, Control_c, 0, 64, 111
1, 17074, Note_on_c, 0, 80, 64
1, 17092, Note_off_c, 0, 80, 67
1, 17096, Control_c, 0, 64, 112
1, 17126, Control_c, 0, 64, 112
1, 17176, Note_on_c, 0, 75, 70
1, 17250, Note_off_c, 0, 75, 63
1, 17272, Note_on_c, 0, 87, 71
1, 17299, Note_off_c, 0, 87, 65
1, 17390, Note_on_c, 0, 99, 79
1, 17459, Note_off_c, 0, 99, 67
1, 17491, Note_on_c, 0, 87, 68
1, 17556, Note_off_c, 0, 87, 61
1, 17591, Note_on_c, 0, 99, 81
1, 17631, Control_c, 0, 64, 111
1, 17646, Control_c, 0, 64, 105
1, 17660, Control_c, 0, 64, 93
1, 17665, Note_off_c, 0, 99, 62
1, 17675, Control_c, 0, 64, 78
1, 17676, Note_on_c, 0, 87, 75
1, 17690, Control_c, 0, 64, 44
1, 17712, Control_c, 0, 64, 0
1, 17746, Note_off_c, 0, 87, 63
1, 17780, Note_on_c, 0, 99, 78
1, 17825, Note_off_c, 0, 99, 65
1, 17855, Note_on_c, 0, 85, 63
1, 17881, Note_off_c, 0, 85, 68
1, 17945, Note_on_c, 0, 85, 68
1, 17971, Note_off_c, 0, 85, 65
1, 17972, Note_on_c, 0, 44, 51
1, 17978, Control_c, 0, 64, 64
1, 17984, Note_on_c, 0, 83, 76
1, 17993, Control_c, 0, 64, 75
1, 18008, Control_c, 0, 64, 88
1, 18015, Note_off_c, 0, 44, 60
1, 18022, Control_c, 0, 64, 99
1, 18029, Note_off_c, 0, 83, 61
1, 18037, Control_c, 0, 64, 104
1, 18052, Control_c, 0, 64, 106
1, 18067, Control_c, 0, 64, 109
1, 18082, Control_c, 0, 64, 113
1, 18094, Note_on_c, 0, 99, 75
1, 18097, Control_c, 0, 64, 117
1, 18111, Control_c, 0, 64, 120
1, 18126, Control_c, 0, 64, 121
1, 18128, Note_off_c, 0, 99, 62
1, 18141, Control_c, 0, 64, 123
1, 18156, Control_c, 0, 64, 124
1, 18171, Control_c, 0, 64, 124
1, 18191, Note_on_c, 0, 59, 46
1, 18195, Note_on_c, 0, 51, 43
1, 18197, Note_on_c, 0, 83, 75
1, 18226, Note_off_c, 0, 59, 60
1, 18229, Note_off_c, 0, 83, 60
1, 18235, Note_off_c, 0, 51, 58
1, 18300, Note_on_c, 0, 99, 76
1, 18305, Control_c, 0, 64, 124
1, 18320, Control_c, 0, 64, 123
1, 18335, Control_c, 0, 64, 116
1, 18344, Note_off_c, 0, 99, 64
1, 18350, Control_c, 0, 64, 102
1, 18364, Control_c, 0, 64, 85
1, 18379, Control_c, 0, 64, 60
1, 18379, Control_c, 0, 67, 99
1, 18386, Note_on_c, 0, 82, 76
1, 18394, Control_c, 0, 64, 0
1, 18394, Control_c, 0, 67, 44
1, 18409, Control_c, 0, 67, 0
1, 18424, Note_off_c, 0, 82, 65
1, 18487, Note_on_c, 0, 99, 78
1, 18510, Note_off_c, 0, 99, 74
1, 18579, Control_c, 0, 64, 49
1, 18594, Control_c, 0, 64, 69
1, 18598, Note_on_c, 0, 82, 76
1, 18603, Note_on_c, 0, 47, 55
1, 18609, Control_c, 0, 64, 82
1, 18620, Note_off_c, 0, 82, 68
1, 18621, Note_on_c, 0, 80, 83
1, 18624, Control_c, 0, 64, 98
1, 18639, Control_c, 0, 64, 112
1, 18644, Note_off_c, 0, 47, 64
1, 18653, Control_c, 0, 64, 118
1, 18665, Note_off_c, 0, 80, 61
1, 18668, Control_c, 0, 64, 122
1, 18683, Control_c, 0, 64, 127
1, 18732, Note_on_c, 0, 99, 75
1, 18755, Note_off_c, 0, 99, 73
1, 18822, Note_on_c, 0, 63, 57
1, 18826, Note_on_c, 0, 56, 45
1, 18829, Note_on_c, 0, 79, 76
1, 18847, Note_off_c, 0, 63, 59
1, 18853, Note_off_c, 0, 79, 66
1, 18874, Note_off_c, 0, 56, 57
1, 18928, Note_on_c, 0, 99, 84
1, 18966, Note_off_c, 0, 99, 61
1, 18995, Control_c, 0, 64, 109
1, 19010, Control_c, 0, 64, 91
1, 19024, Control_c, 0, 64, 71
1, 19028, Note_on_c, 0, 80, 84
1, 19039, Control_c, 0, 64, 0
1, 19071, Note_off_c, 0, 80, 64
1, 19150, Note_on_c, 0, 97, 34
1, 19185, Note_off_c, 0, 97, 36
1, 19225, Control_c, 0, 64, 58
1, 19239, Control_c, 0, 64, 69
1, 19245, Note_on_c, 0, 79, 66
1, 19254, Control_c, 0, 64, 82
1, 19256, Note_on_c, 0, 80, 80
1, 19263, Note_off_c, 0, 79, 65
1, 19266, Note_on_c, 0, 82, 84
1, 19269, Control_c, 0, 64, 95
1, 19273, Note_on_c, 0, 51, 58
1, 19278, Note_off_c, 0, 80, 70
1, 19283, Control_c, 0, 64, 105
1, 19298, Control_c, 0, 64, 110
1, 19299, Note_off_c, 0, 82, 63
1, 19313, Control_c, 0, 64, 114
1, 19328, Control_c, 0, 64, 119
1, 19342, Note_off_c, 0, 51, 51
1, 19343, Control_c, 0, 64, 127
1, 19374, Note_on_c, 0, 99, 77
1, 19396, Note_off_c, 0, 99, 73
1, 19483, Note_on_c, 0, 58, 51
1, 19488, Note_on_c, 0, 75, 81
1, 19491, Note_on_c, 0, 67, 54
1, 19515, Note_off_c, 0, 67, 60
1, 19515, Note_off_c, 0, 75, 67
1, 19520, Note_off_c, 0, 58, 64
1, 19589, Note_on_c, 0, 99, 85
1, 19607, Note_off_c, 0, 99, 74
1, 19698, Note_on_c, 0, 75, 66
1, 19746, Note_off_c, 0, 75, 58
1, 19777, Note_on_c, 0, 87, 67
1, 19833, Control_c, 0, 64, 125
1, 19844, Note_on_c, 0, 78, 53
1, 19847, Control_c, 0, 64, 99
1, 19854, Note_off_c, 0, 87, 62
1, 19862, Control_c, 0, 64, 80
1, 19877, Control_c, 0, 64, 36
1, 19878, Note_on_c, 0, 70, 68
1, 19883, Note_off_c, 0, 78, 56
1, 19889, Note_on_c, 0, 76, 66
1, 19890, Note_on_c, 0, 67, 52
1, 19892, Control_c, 0, 64, 0
1, 19908, Note_off_c, 0, 70, 63
1, 19916, Note_off_c, 0, 67, 64
1, 19922, Note_off_c, 0, 76, 65
1, 20000, Note_on_c, 0, 87, 56
1, 20059, Note_off_c, 0, 87, 56
1, 20095, Note_on_c, 0, 70, 66
1, 20096, Note_on_c, 0, 75, 75
1, 20102, Note_on_c, 0, 67, 57
1, 20122, Note_off_c, 0, 70, 67
1, 20123, Note_off_c, 0, 67, 61
1, 20131, Note_off_c, 0, 75, 63
1, 20185, Note_on_c, 0, 87, 64
1, 20258, Note_off_c, 0, 87, 61
1, 20296, Note_on_c, 0, 73, 70
1, 20325, Note_off_c, 0, 73, 66
1, 20379, Note_on_c, 0, 87, 62
1, 20397, Note_off_c, 0, 87, 64
1, 20491, Note_on_c, 0, 73, 51
1, 20511, Note_on_c, 0, 71, 68
1, 20512, Note_off_c, 0, 73, 61
1, 20514, Note_on_c, 0, 68, 53
1, 20535, Note_off_c, 0, 71, 65
1, 20538, Note_off_c, 0, 68, 62
1, 20615, Note_on_c, 0, 87, 61
1, 20647, Note_off_c, 0, 87, 64
1, 20727, Note_on_c, 0, 71, 64
1, 20730, Note_on_c, 0, 68, 58
1, 20747, Note_off_c, 0, 71, 64
1, 20751, Note_off_c, 0, 68, 62
1, 20827, Note_on_c, 0, 87, 61
1, 20860, Note_off_c, 0, 87, 59
1, 20918, Note_on_c, 0, 70, 73
1, 20946, Note_off_c, 0, 70, 66
1, 21016, Note_on_c, 0, 87, 66
1, 21038, Note_off_c, 0, 87, 64
1, 21126, Note_on_c, 0, 70, 59
1, 21139, Note_on_c, 0, 68, 79
1, 21140, Note_on_c, 0, 65, 60
1, 21148, Note_off_c, 0, 70, 59
1, 21160, Note_on_c, 0, 62, 37
1, 21166, Note_off_c, 0, 65, 65
1, 21169, Note_on_c, 0, 59, 13
1, 21176, Note_off_c, 0, 68, 64
1, 21190, Note_off_c, 0, 62, 52
1, 21211, Note_off_c, 0, 59, 40
1, 21258, Note_on_c, 0, 87, 65
1, 21286, Note_off_c, 0, 87, 65
1, 21355, Note_on_c, 0, 65, 49
1, 21356, Note_on_c, 0, 67, 72
1, 21360, Note_on_c, 0, 59, 38
1, 21383, Note_off_c, 0, 67, 68
1, 21387, Note_off_c, 0, 65, 67
1, 21398, Note_off_c, 0, 59, 56
1, 21456, Control_c, 0, 67, 9
1, 21471, Control_c, 0, 67, 16
1, 21473, Note_on_c, 0, 87, 61
1, 21485, Control_c, 0, 67, 27
1, 21490, Note_off_c, 0, 87, 65
1, 21500, Control_c, 0, 67, 41
1, 21515, Control_c, 0, 67, 57
1, 21530, Control_c, 0, 67, 79
1, 21545, Control_c, 0, 67, 101
1, 21559, Control_c, 0, 67, 127
1, 21560, Note_on_c, 0, 68, 78
1, 21594, Note_off_c, 0, 68, 61
1, 21647, Note_on_c, 0, 51, 47
1, 21674, Note_on_c, 0, 87, 65
1, 21706, Note_off_c, 0, 87, 62
1, 21724, Note_off_c, 0, 51, 59
1, 21737, Control_c, 0, 64, 55
1, 21751, Control_c, 0, 64, 69
1, 21766, Control_c, 0, 64, 79
1, 21781, Control_c, 0, 64, 91
1, 21784, Note_on_c, 0, 67, 64
1, 21793, Note_on_c, 0, 70, 73
1, 21796, Control_c, 0, 64, 99
1, 21811, Control_c, 0, 64, 104
1, 21816, Note_off_c, 0, 67, 64
1, 21825, Control_c, 0, 64, 108
1, 21832, Note_off_c, 0, 70, 60
1, 21840, Control_c, 0, 64, 112
1, 21855, Control_c, 0, 64, 115
1, 21870, Control_c, 0, 64, 118
1, 21885, Control_c, 0, 64, 120
1, 21900, Control_c, 0, 64, 123
1, 21907, Note_on_c, 0, 87, 72
1, 21915, Control_c, 0, 64, 127
1, 21930, Control_c, 0, 64, 127
1, 21936, Note_off_c, 0, 87, 61
1, 21992, Note_on_c, 0, 63, 67
1, 22071, Note_off_c, 0, 63, 57
1, 22109, Note_on_c, 0, 75, 60
1, 22139, Note_off_c, 0, 75, 68
1, 22214, Note_on_c, 0, 75, 65
1, 22281, Note_off_c, 0, 75, 64
1, 22296, Note_on_c, 0, 87, 65
1, 22324, Note_off_c, 0, 87, 66
1, 22338, Control_c, 0, 64, 121
1, 22353, Control_c, 0, 64, 110
1, 22368, Control_c, 0, 64, 97
1, 22382, Control_c, 0, 64, 81
1, 22397, Control_c, 0, 64, 50
1, 22412, Control_c, 0, 64, 0
1, 22431, Note_on_c, 0, 87, 69
1, 22462, Note_off_c, 0, 87, 60
1, 22515, Note_on_c, 0, 99, 59
1, 22595, Note_off_c, 0, 99, 66
1, 22626, Note_on_c, 0, 87, 71
1, 22667, Note_off_c, 0, 87, 58
1, 22724, Note_on_c, 0, 99, 58
1, 22784, Note_off_c, 0, 99, 65
1, 22820, Note_on_c, 0, 85, 70
1, 22857, Note_off_c, 0, 85, 64
1, 22908, Note_on_c, 0, 99, 57
1, 22927, Note_off_c, 0, 99, 64
1, 23012, Control_c, 0, 64, 47
1, 23013, Note_on_c, 0, 44, 51
1, 23015, Note_on_c, 0, 85, 64
1, 23027, Control_c, 0, 64, 68
1, 23039, Note_on_c, 0, 83, 71
1, 23041, Note_off_c, 0, 85, 68
1, 23041, Control_c, 0, 64, 77
1, 23056, Control_c, 0, 64, 90
1, 23056, Note_off_c, 0, 44, 60
1, 23071, Control_c, 0, 64, 99
1, 23083, Note_off_c, 0, 83, 58
1, 23086, Control_c, 0, 64, 102
1, 23101, Control_c, 0, 64, 105
1, 23116, Control_c, 0, 64, 108
1, 23130, Control_c, 0, 64, 110
1, 23140, Note_on_c, 0, 99, 74
1, 23145, Control_c, 0, 64, 113
1, 23160, Control_c, 0, 64, 114
1, 23175, Note_off_c, 0, 99, 62
1, 23175, Control_c, 0, 64, 114
1, 23232, Note_on_c, 0, 59, 48
1, 23238, Note_on_c, 0, 51, 48
1, 23247, Note_on_c, 0, 83, 74
1, 23276, Note_off_c, 0, 59, 57
1, 23283, Note_off_c, 0, 51, 59
1, 23286, Note_off_c, 0, 83, 61
1, 23353, Note_on_c, 0, 99, 70
1, 23384, Note_off_c, 0, 99, 68
1, 23396, Control_c, 0, 64, 110
1, 23411, Control_c, 0, 64, 98
1, 23426, Control_c, 0, 64, 82
1, 23435, Note_on_c, 0, 82, 81
1, 23441, Control_c, 0, 64, 59
1, 23456, Control_c, 0, 64, 0
1, 23471, Note_off_c, 0, 82, 64
1, 23531, Note_on_c, 0, 99, 73
1, 23555, Note_off_c, 0, 99, 72
1, 23634, Control_c, 0, 64, 66
1, 23645, Note_on_c, 0, 47, 50
1, 23648, Control_c, 0, 64, 75
1, 23661, Note_on_c, 0, 80, 86
1, 23663, Control_c, 0, 64, 87
1, 23677, Note_off_c, 0, 47, 64
1, 23678, Note_on_c, 0, 81, 25
1, 23678, Control_c, 0, 64, 95
1, 23700, Control_c, 0, 64, 99
1, 23715, Note_off_c, 0, 80, 62
1, 23715, Control_c, 0, 64, 101
1, 23723, Note_off_c, 0, 81, 33
1, 23730, Control_c, 0, 64, 104
1, 23745, Control_c, 0, 64, 108
1, 23760, Control_c, 0, 64, 111
1, 23776, Control_c, 0, 64, 113
1, 23780, Note_on_c, 0, 99, 75
1, 23791, Control_c, 0, 64, 113
1, 23804, Note_off_c, 0, 99, 67
1, 23806, Control_c, 0, 64, 114
1, 23879, Note_on_c, 0, 79, 74
1, 23879, Note_on_c, 0, 63, 36
1, 23886, Note_on_c, 0, 56, 36
1, 23900, Note_off_c, 0, 79, 69
1, 23910, Note_off_c, 0, 63, 48
1, 23928, Note_off_c, 0, 56, 47
1, 23978, Note_on_c, 0, 99, 83
1, 24015, Note_off_c, 0, 99, 65
1, 24028, Control_c, 0, 64, 113
1, 24043, Control_c, 0, 64, 109
1, 24058, Control_c, 0, 64, 97
1, 24072, Control_c, 0, 64, 80
1, 24073, Note_on_c, 0, 80, 81
1, 24087, Control_c, 0, 64, 52
1, 24102, Control_c, 0, 64, 0
1, 24103, Note_off_c, 0, 80, 63
1, 24172, Note_on_c, 0, 99, 60
1, 24194, Note_off_c, 0, 99, 39
1, 24276, Note_on_c, 0, 79, 56
1, 24279, Control_c, 0, 64, 34
1, 24289, Note_on_c, 0, 80, 71
1, 24294, Note_on_c, 0, 82, 84
1, 24294, Note_off_c, 0, 79, 62
1, 24294, Control_c, 0, 64, 70
1, 24306, Note_off_c, 0, 80, 68
1, 24309, Control_c, 0, 64, 81
1, 24315, Note_on_c, 0, 51, 47
1, 24324, Control_c, 0, 64, 93
1, 24326, Note_off_c, 0, 82, 68
1, 24338, Control_c, 0, 64, 103
1, 24353, Control_c, 0, 64, 108
1, 24368, Control_c, 0, 64, 114
1, 24373, Note_off_c, 0, 51, 56
1, 24383, Control_c, 0, 64, 121
1, 24398, Control_c, 0, 64, 127
1, 24404, Note_on_c, 0, 99, 78
1, 24425, Note_off_c, 0, 99, 73
1, 24523, Note_on_c, 0, 58, 52
1, 24523, Note_on_c, 0, 75, 84
1, 24528, Note_on_c, 0, 67, 55
1, 24550, Note_off_c, 0, 67, 59
1, 24552, Note_off_c, 0, 75, 65
1, 24556, Note_off_c, 0, 58, 64
1, 24629, Note_on_c, 0, 99, 88
1, 24641, Note_off_c, 0, 99, 75
1, 24732, Note_on_c, 0, 75, 72
1, 24770, Note_off_c, 0, 75, 65
1, 24814, Note_on_c, 0, 87, 69
1, 24874, Note_on_c, 0, 78, 39
1, 24883, Note_off_c, 0, 87, 59
1, 24895, Control_c, 0, 64, 106
1, 24904, Note_off_c, 0, 78, 51
1, 24910, Control_c, 0, 64, 87
1, 24916, Note_on_c, 0, 76, 76
1, 24925, Control_c, 0, 64, 65
1, 24927, Note_on_c, 0, 70, 57
1, 24933, Note_on_c, 0, 61, 42
1, 24940, Control_c, 0, 64, 0
1, 24950, Note_off_c, 0, 70, 56
1, 24956, Note_off_c, 0, 76, 66
1, 24965, Note_off_c, 0, 61, 52
1, 25019, Note_on_c, 0, 92, 81
1, 25045, Note_off_c, 0, 92, 61
1, 25125, Note_on_c, 0, 68, 49
1, 25127, Note_on_c, 0, 70, 61
1, 25127, Note_on_c, 0, 75, 69
1, 25137, Note_on_c, 0, 63, 31
1, 25160, Note_off_c, 0, 70, 62
1, 25164, Note_off_c, 0, 75, 58
1, 25164, Note_off_c, 0, 63, 52
1, 25176, Note_off_c, 0, 68, 55
1, 25239, Note_on_c, 0, 92, 73
1, 25265, Note_off_c, 0, 92, 66
1, 25333, Note_on_c, 0, 70, 60
1, 25338, Note_on_c, 0, 73, 81
1, 25349, Note_on_c, 0, 68, 32
1, 25370, Note_off_c, 0, 70, 60
1, 25375, Note_off_c, 0, 73, 64
1, 25387, Note_off_c, 0, 68, 51
1, 25415, Poly_aftertouch_c, 0, 64, 0
1, 25447, Note_on_c, 0, 92, 79
1, 25473, Note_off_c, 0, 92, 61
1, 25570, Control_c, 0, 64, 57
1, 25572, Note_on_c, 0, 75, 70
1, 25572, Note_on_c, 0, 71, 45
1, 25573, Note_on_c, 0, 68, 41
1, 25578, Note_on_c, 0, 63, 37
1, 25585, Control_c, 0, 64, 67
1, 25599, Control_c, 0, 64, 75
1, 25602, Note_off_c, 0, 71, 59
1, 25614, Control_c, 0, 64, 85
1, 25629, Control_c, 0, 64, 94
1, 25641, Note_off_c, 0, 75, 59
1, 25644, Control_c, 0, 64, 98
1, 25656, Note_off_c, 0, 68, 57
1, 25659, Control_c, 0, 64, 100
1, 25669, Note_on_c, 0, 87, 66
1, 25674, Control_c, 0, 64, 103
1, 25688, Control_c, 0, 64, 105
1, 25703, Control_c, 0, 64, 107
1, 25718, Control_c, 0, 64, 108
1, 25720, Note_off_c, 0, 63, 36
1, 25748, Control_c, 0, 64, 108
1, 25772, Note_off_c, 0, 87, 55
1, 25776, Note_on_c, 0, 80, 71
1, 25851, Control_c, 0, 64, 107
1, 25866, Control_c, 0, 64, 105
1, 25876, Note_off_c, 0, 80, 62
1, 25876, Note_on_c, 0, 83, 65
1, 25881, Control_c, 0, 64, 97
1, 25896, Control_c, 0, 64, 85
1, 25900, Note_off_c, 0, 83, 66
1, 25910, Control_c, 0, 64, 69
1, 25925, Control_c, 0, 64, 0
1, 25998, Note_on_c, 0, 87, 67
1, 26034, Note_off_c, 0, 87, 58
1, 26047, Note_on_c, 0, 51, 44
1, 26088, Note_on_c, 0, 99, 61
1, 26109, Note_off_c, 0, 99, 65
1, 26120, Note_off_c, 0, 51, 60
1, 26125, Control_c, 0, 64, 64
1, 26140, Control_c, 0, 64, 72
1, 26143, Note_on_c, 0, 61, 40
1, 26155, Control_c, 0, 64, 82
1, 26171, Control_c, 0, 64, 92
1, 26186, Control_c, 0, 64, 97
1, 26201, Control_c, 0, 64, 99
1, 26215, Control_c, 0, 64, 102
1, 26227, Note_on_c, 0, 67, 49
1, 26229, Note_off_c, 0, 61, 57
1, 26230, Control_c, 0, 64, 106
1, 26245, Control_c, 0, 64, 108
1, 26251, Note_on_c, 0, 75, 57
1, 26259, Control_c, 0, 64, 108
1, 26270, Note_off_c, 0, 67, 58
1, 26274, Control_c, 0, 64, 109
1, 26296, Note_off_c, 0, 75, 51
1, 26304, Control_c, 0, 64, 109
1, 26346, Note_on_c, 0, 87, 61
1, 26440, Note_off_c, 0, 87, 56
1, 26464, Note_on_c, 0, 79, 58
1, 26511, Control_c, 0, 64, 109
1, 26526, Control_c, 0, 64, 108
1, 26541, Control_c, 0, 64, 106
1, 26556, Control_c, 0, 64, 102
1, 26571, Control_c, 0, 64, 95
1, 26573, Note_off_c, 0, 79, 59
1, 26584, Note_on_c, 0, 82, 65
1, 26586, Control_c, 0, 64, 85
1, 26601, Control_c, 0, 64, 69
1, 26614, Note_off_c, 0, 82, 65
1, 26615, Control_c, 0, 64, 0
1, 26727, Note_on_c, 0, 87, 55
1, 26762, Note_off_c, 0, 87, 63
1, 26884, Note_on_c, 0, 99, 57
1, 26921, Note_off_c, 0, 99, 66
1, 27024, Note_on_c, 0, 44, 41
1, 27024, Control_c, 0, 64, 62
1, 27039, Control_c, 0, 64, 70
1, 27054, Control_c, 0, 64, 79
1, 27069, Control_c, 0, 64, 88
1, 27084, Control_c, 0, 64, 93
1, 27098, Control_c, 0, 64, 95
1, 27104, Note_off_c, 0, 44, 61
1, 27113, Control_c, 0, 64, 97
1, 27128, Control_c, 0, 64, 100
1, 27143, Control_c, 0, 64, 101
1, 27158, Control_c, 0, 64, 102
1, 27172, Control_c, 0, 64, 103
1, 27187, Control_c, 0, 64, 103
1, 27191, Note_on_c, 0, 59, 32
1, 27217, Control_c, 0, 64, 104
1, 27239, Note_off_c, 0, 59, 45
1, 27298, Note_on_c, 0, 63, 44
1, 27335, Control_c, 0, 64, 104
1, 27379, Control_c, 0, 64, 105
1, 27392, Note_off_c, 0, 63, 57
1, 27422, Note_on_c, 0, 68, 40
1, 27423, Control_c, 0, 64, 105
1, 27446, Control_c, 0, 64, 106
1, 27491, Control_c, 0, 64, 106
1, 27493, Note_off_c, 0, 68, 64
1, 27519, Control_c, 0, 64, 107
1, 27549, Control_c, 0, 64, 107
1, 27570, Note_on_c, 0, 75, 41
1, 27578, Control_c, 0, 64, 108
1, 27608, Control_c, 0, 64, 108
1, 27653, Control_c, 0, 64, 109
1, 27668, Control_c, 0, 64, 109
1, 27683, Control_c, 0, 64, 110
1, 27704, Note_on_c, 0, 80, 42
1, 27710, Note_off_c, 0, 75, 40
1, 27712, Control_c, 0, 64, 110
1, 27820, Note_off_c, 0, 80, 56
1, 27850, Note_on_c, 0, 83, 53
1, 27897, Note_off_c, 0, 83, 53
1, 28007, Note_on_c, 0, 87, 60
1, 28037, Note_off_c, 0, 87, 64
1, 28230, Note_on_c, 0, 92, 61
1, 28254, Note_off_c, 0, 92, 66
1, 28906, Control_c, 0, 64, 111
1, 28988, Control_c, 0, 64, 111
1, 29076, Control_c, 0, 67, 123
1, 29091, Control_c, 0, 67, 107
1, 29106, Control_c, 0, 67, 80
1, 29121, Control_c, 0, 67, 51
1, 29135, Control_c, 0, 67, 21
1, 29150, Control_c, 0, 67, 0
1, 29239, Control_c, 0, 64, 108
1, 29254, Control_c, 0, 64, 97
1, 29269, Control_c, 0, 64, 82
1, 29283, Control_c, 0, 64, 53
1, 29298, Control_c, 0, 64, 0
1, 29776, Note_on_c, 0, 71, 65
1, 29806, Note_off_c, 0, 71, 65
1, 29876, Note_on_c, 0, 70, 61
1, 29883, Note_on_c, 0, 67, 52
1, 29907, Note_off_c, 0, 70, 64
1, 29909, Note_off_c, 0, 67, 60
1, 29994, Note_on_c, 0, 71, 77
1, 30016, Note_off_c, 0, 71, 69
1, 30101, Note_on_c, 0, 69, 60
1, 30103, Note_on_c, 0, 66, 57
1, 30127, Note_off_c, 0, 69, 64
1, 30145, Note_off_c, 0, 66, 63
1, 30206, Note_on_c, 0, 71, 70
1, 30231, Note_off_c, 0, 71, 67
1, 30313, Note_on_c, 0, 68, 57
1, 30321, Note_on_c, 0, 65, 50
1, 30344, Note_off_c, 0, 68, 55
1, 30357, Note_off_c, 0, 65, 60
1, 30416, Note_on_c, 0, 71, 61
1, 30442, Note_off_c, 0, 71, 61
1, 30528, Note_on_c, 0, 67, 56
1, 30532, Note_on_c, 0, 64, 56
1, 30552, Note_off_c, 0, 67, 63
1, 30570, Note_off_c, 0, 64, 64
1, 30646, Note_on_c, 0, 73, 74
1, 30664, Note_off_c, 0, 73, 69
1, 30690, Note_on_c, 0, 71, 62
1, 30714, Note_off_c, 0, 71, 64
1, 30720, Note_on_c, 0, 70, 75
1, 30780, Note_off_c, 0, 70, 64
1, 30783, Note_on_c, 0, 71, 70
1, 30809, Note_off_c, 0, 71, 67
1, 30828, Note_on_c, 0, 66, 74
1, 30837, Note_on_c, 0, 63, 63
1, 30845, Note_on_c, 0, 59, 43
1, 30857, Note_off_c, 0, 66, 64
1, 30870, Note_off_c, 0, 59, 57
1, 30879, Note_off_c, 0, 63, 62
1, 30916, Note_on_c, 0, 90, 77
1, 30947, Note_off_c, 0, 90, 61
1, 31030, Note_on_c, 0, 66, 66
1, 31033, Note_on_c, 0, 71, 69
1, 31039, Note_on_c, 0, 63, 52
1, 31039, Note_on_c, 0, 54, 52
1, 31048, Note_off_c, 0, 66, 66
1, 31057, Note_off_c, 0, 71, 67
1, 31067, Note_off_c, 0, 63, 54
1, 31068, Note_off_c, 0, 54, 52
1, 31126, Note_on_c, 0, 90, 77
1, 31150, Note_off_c, 0, 90, 68
1, 31260, Note_on_c, 0, 75, 76
1, 31299, Note_on_c, 0, 73, 69
1, 31302, Note_off_c, 0, 75, 66
1, 31343, Note_off_c, 0, 73, 64
1, 31349, Note_on_c, 0, 72, 74
1, 31404, Note_on_c, 0, 73, 73
1, 31407, Note_off_c, 0, 72, 66
1, 31429, Note_off_c, 0, 73, 69
1, 31448, Note_on_c, 0, 66, 81
1, 31453, Note_on_c, 0, 64, 71
1, 31457, Note_on_c, 0, 58, 58
1, 31471, Note_off_c, 0, 66, 68
1, 31494, Note_off_c, 0, 64, 59
1, 31495, Note_off_c, 0, 58, 63
1, 31541, Note_on_c, 0, 90, 75
1, 31576, Note_off_c, 0, 90, 58
1, 31648, Note_on_c, 0, 73, 79
1, 31653, Note_on_c, 0, 64, 66
1, 31660, Note_on_c, 0, 54, 54
1, 31661, Note_on_c, 0, 66, 64
1, 31680, Note_off_c, 0, 66, 68
1, 31681, Note_off_c, 0, 64, 65
1, 31689, Note_off_c, 0, 73, 64
1, 31690, Note_off_c, 0, 54, 51
1, 31752, Note_on_c, 0, 90, 69
1, 31773, Note_off_c, 0, 90, 65
1, 31876, Note_on_c, 0, 76, 75
1, 31917, Note_off_c, 0, 76, 66
1, 31920, Note_on_c, 0, 75, 67
1, 31966, Note_off_c, 0, 75, 66
1, 31971, Note_on_c, 0, 74, 71
1, 32026, Note_on_c, 0, 75, 72
1, 32030, Note_off_c, 0, 74, 66
1, 32054, Note_off_c, 0, 75, 68
1, 32081, Note_on_c, 0, 71, 77
1, 32082, Note_on_c, 0, 59, 63
1, 32088, Note_on_c, 0, 63, 69
1, 32104, Note_off_c, 0, 71, 66
1, 32115, Note_off_c, 0, 59, 62
1, 32130, Note_off_c, 0, 63, 60
1, 32166, Note_on_c, 0, 90, 80
1, 32195, Note_off_c, 0, 90, 63
1, 32285, Note_on_c, 0, 75, 83
1, 32313, Note_off_c, 0, 75, 65
1, 32393, Note_on_c, 0, 74, 68
1, 32396, Note_on_c, 0, 71, 63
1, 32422, Note_off_c, 0, 74, 64
1, 32428, Note_off_c, 0, 71, 60
1, 32496, Note_on_c, 0, 75, 92
1, 32530, Note_off_c, 0, 75, 62
1, 32598, Note_on_c, 0, 73, 72
1, 32599, Note_on_c, 0, 70, 68
1, 32627, Note_off_c, 0, 73, 62
1, 32629, Note_off_c, 0, 70, 63
1, 32721, Note_on_c, 0, 75, 76
1, 32749, Note_off_c, 0, 75, 64
1, 32837, Note_on_c, 0, 72, 59
1, 32838, Note_on_c, 0, 69, 58
1, 32870, Note_off_c, 0, 72, 64
1, 32877, Note_off_c, 0, 69, 63
1, 32926, Note_on_c, 0, 75, 77
1, 32956, Note_off_c, 0, 75, 65
1, 33037, Note_on_c, 0, 71, 54
1, 33038, Note_on_c, 0, 68, 60
1, 33059, Note_off_c, 0, 71, 60
1, 33075, Note_off_c, 0, 68, 63
1, 33135, Note_on_c, 0, 77, 72
1, 33174, Note_on_c, 0, 75, 68
1, 33177, Note_off_c, 0, 77, 62
1, 33207, Note_off_c, 0, 75, 66
1, 33220, Note_on_c, 0, 74, 68
1, 33269, Note_on_c, 0, 75, 71
1, 33275, Note_off_c, 0, 74, 66
1, 33294, Note_off_c, 0, 75, 70
1, 33314, Note_on_c, 0, 70, 79
1, 33319, Note_on_c, 0, 66, 70
1, 33325, Note_on_c, 0, 63, 58
1, 33340, Note_off_c, 0, 70, 63
1, 33360, Note_off_c, 0, 63, 65
1, 33365, Note_off_c, 0, 66, 63
1, 33405, Note_on_c, 0, 94, 79
1, 33450, Note_off_c, 0, 94, 55
1, 33522, Note_on_c, 0, 70, 76
1, 33528, Note_on_c, 0, 75, 77
1, 33537, Note_on_c, 0, 58, 53
1, 33545, Note_off_c, 0, 70, 69
1, 33557, Note_off_c, 0, 75, 67
1, 33568, Note_off_c, 0, 58, 53
1, 33627, Note_on_c, 0, 94, 71
1, 33650, Note_off_c, 0, 94, 69
1, 33740, Note_on_c, 0, 78, 84
1, 33770, Note_off_c, 0, 78, 67
1, 33781, Note_on_c, 0, 77, 70
1, 33832, Note_on_c, 0, 76, 69
1, 33833, Note_off_c, 0, 77, 62
1, 33883, Note_on_c, 0, 77, 69
1, 33901, Note_off_c, 0, 76, 65
1, 33922, Note_off_c, 0, 77, 64
1, 33927, Note_on_c, 0, 70, 84
1, 33930, Note_on_c, 0, 68, 76
1, 33948, Note_on_c, 0, 62, 49
1, 33948, Note_off_c, 0, 70, 69
1, 33972, Note_off_c, 0, 62, 56
1, 33974, Note_off_c, 0, 68, 58
1, 34023, Note_on_c, 0, 94, 80
1, 34050, Note_off_c, 0, 94, 58
1, 34131, Note_on_c, 0, 77, 80
1, 34134, Note_on_c, 0, 68, 70
1, 34136, Note_on_c, 0, 70, 68
1, 34142, Note_on_c, 0, 58, 53
1, 34154, Note_off_c, 0, 70, 65
1, 34166, Note_off_c, 0, 68, 65
1, 34170, Note_off_c, 0, 58, 57
1, 34181, Note_off_c, 0, 77, 61
1, 34238, Note_on_c, 0, 94, 79
1, 34262, Note_off_c, 0, 94, 67
1, 34364, Note_on_c, 0, 80, 75
1, 34384, Note_off_c, 0, 80, 58
1, 34403, Note_on_c, 0, 78, 72
1, 34451, Note_off_c, 0, 78, 63
1, 34452, Note_on_c, 0, 77, 75
1, 34503, Note_on_c, 0, 78, 75
1, 34516, Note_off_c, 0, 77, 63
1, 34538, Note_off_c, 0, 78, 66
1, 34556, Note_on_c, 0, 63, 68
1, 34557, Note_on_c, 0, 75, 82
1, 34560, Note_on_c, 0, 66, 75
1, 34581, Note_off_c, 0, 75, 67
1, 34595, Note_off_c, 0, 63, 60
1, 34602, Note_off_c, 0, 66, 64
1, 34644, Note_on_c, 0, 94, 77
1, 34665, Note_off_c, 0, 94, 71
1, 34757, Note_on_c, 0, 78, 89
1, 34776, Note_off_c, 0, 78, 71
1, 34857, Note_on_c, 0, 77, 76
1, 34860, Note_on_c, 0, 74, 68
1, 34893, Note_off_c, 0, 77, 58
1, 34901, Note_off_c, 0, 74, 57
1, 34970, Note_on_c, 0, 78, 103
1, 35004, Note_off_c, 0, 78, 66
1, 35075, Note_on_c, 0, 76, 68
1, 35078, Note_on_c, 0, 73, 66
1, 35098, Note_off_c, 0, 76, 68
1, 35111, Note_off_c, 0, 73, 59
1, 35183, Note_on_c, 0, 78, 85
1, 35213, Note_off_c, 0, 78, 63
1, 35298, Note_on_c, 0, 75, 66
1, 35301, Note_on_c, 0, 72, 63
1, 35328, Note_off_c, 0, 75, 64
1, 35334, Note_off_c, 0, 72, 65
1, 35380, Note_on_c, 0, 78, 76
1, 35400, Note_off_c, 0, 78, 71
1, 35492, Note_on_c, 0, 74, 58
1, 35495, Note_on_c, 0, 71, 60
1, 35516, Note_off_c, 0, 74, 67
1, 35528, Note_off_c, 0, 71, 62
1, 35593, Note_on_c, 0, 80, 79
1, 35627, Note_off_c, 0, 80, 68
1, 35634, Note_on_c, 0, 78, 73
1, 35685, Note_off_c, 0, 78, 64
1, 35686, Note_on_c, 0, 77, 75
1, 35741, Note_on_c, 0, 78, 80
1, 35752, Note_off_c, 0, 77, 62
1, 35772, Note_off_c, 0, 78, 67
1, 35791, Note_on_c, 0, 73, 84
1, 35796, Note_on_c, 0, 66, 66
1, 35796, Note_on_c, 0, 70, 73
1, 35813, Note_off_c, 0, 73, 65
1, 35828, Note_off_c, 0, 66, 67
1, 35836, Note_off_c, 0, 70, 64
1, 35874, Note_on_c, 0, 97, 83
1, 35907, Note_off_c, 0, 97, 58
1, 35986, Note_on_c, 0, 78, 87
1, 36006, Note_on_c, 0, 73, 71
1, 36011, Note_on_c, 0, 61, 60
1, 36014, Note_on_c, 0, 70, 58
1, 36024, Note_off_c, 0, 73, 68
1, 36024, Note_off_c, 0, 78, 65
1, 36035, Note_off_c, 0, 70, 61
1, 36046, Note_off_c, 0, 61, 59
1, 36091, Note_on_c, 0, 97, 74
1, 36112, Note_off_c, 0, 97, 70
1, 36206, Note_on_c, 0, 82, 77
1, 36242, Note_on_c, 0, 80, 78
1, 36243, Note_off_c, 0, 82, 67
1, 36295, Note_off_c, 0, 80, 63
1, 36300, Note_on_c, 0, 79, 68
1, 36353, Note_on_c, 0, 80, 82
1, 36362, Note_off_c, 0, 79, 63
1, 36381, Note_off_c, 0, 80, 65
1, 36401, Note_on_c, 0, 73, 85
1, 36410, Note_on_c, 0, 71, 69
1, 36426, Note_on_c, 0, 65, 57
1, 36441, Note_off_c, 0, 73, 58
1, 36464, Note_off_c, 0, 65, 62
1, 36467, Note_off_c, 0, 71, 52
1, 36495, Note_on_c, 0, 97, 82
1, 36527, Note_off_c, 0, 97, 61
1, 36611, Note_on_c, 0, 80, 85
1, 36615, Note_on_c, 0, 71, 65
1, 36619, Note_on_c, 0, 73, 68
1, 36624, Note_on_c, 0, 61, 41
1, 36648, Note_off_c, 0, 71, 60
1, 36651, Note_off_c, 0, 61, 49
1, 36653, Note_off_c, 0, 80, 64
1, 36654, Note_off_c, 0, 73, 60
1, 36712, Note_on_c, 0, 97, 85
1, 36752, Note_off_c, 0, 97, 62
1, 36823, Note_on_c, 0, 82, 85
1, 36832, Note_on_c, 0, 78, 75
1, 36859, Note_off_c, 0, 82, 66
1, 36861, Note_off_c, 0, 78, 61
1, 36924, Note_on_c, 0, 80, 68
1, 36929, Note_on_c, 0, 83, 78
1, 36943, Note_off_c, 0, 80, 67
1, 36962, Note_off_c, 0, 83, 60
1, 37010, Control_c, 0, 64, 63
1, 37022, Note_on_c, 0, 68, 36
1, 37024, Note_on_c, 0, 67, 44
1, 37025, Control_c, 0, 64, 83
1, 37040, Control_c, 0, 64, 112
1, 37049, Note_off_c, 0, 68, 60
1, 37051, Note_off_c, 0, 67, 57
1, 37055, Control_c, 0, 64, 127
1, 37059, Note_on_c, 0, 82, 99
1, 37060, Note_on_c, 0, 85, 91
1, 37093, Note_off_c, 0, 82, 59
1, 37119, Note_off_c, 0, 85, 64
1, 37142, Note_on_c, 0, 94, 82
1, 37151, Note_on_c, 0, 97, 65
1, 37177, Note_off_c, 0, 97, 62
1, 37177, Note_off_c, 0, 94, 61
1, 37254, Control_c, 0, 64, 116
1, 37269, Control_c, 0, 64, 92
1, 37280, Note_on_c, 0, 80, 79
1, 37284, Control_c, 0, 64, 68
1, 37293, Note_on_c, 0, 83, 75
1, 37299, Control_c, 0, 64, 0
1, 37317, Note_off_c, 0, 83, 63
1, 37323, Note_off_c, 0, 80, 62
1, 37382, Note_on_c, 0, 82, 72
1, 37392, Note_on_c, 0, 78, 70
1, 37416, Note_off_c, 0, 78, 69
1, 37423, Note_off_c, 0, 82, 64
1, 37486, Note_on_c, 0, 80, 79
1, 37505, Note_on_c, 0, 71, 55
1, 37530, Note_off_c, 0, 71, 59
1, 37539, Note_off_c, 0, 80, 61
1, 37577, Note_on_c, 0, 82, 80
1, 37582, Note_on_c, 0, 73, 56
1, 37603, Note_off_c, 0, 73, 63
1, 37618, Note_off_c, 0, 82, 66
1, 37685, Note_on_c, 0, 59, 65
1, 37685, Control_c, 0, 64, 56
1, 37699, Control_c, 0, 64, 75
1, 37705, Note_off_c, 0, 59, 60
1, 37714, Control_c, 0, 64, 91
1, 37728, Note_on_c, 0, 83, 76
1, 37729, Control_c, 0, 64, 106
1, 37743, Note_on_c, 0, 75, 66
1, 37744, Control_c, 0, 64, 112
1, 37759, Control_c, 0, 64, 114
1, 37760, Note_off_c, 0, 75, 65
1, 37773, Control_c, 0, 64, 116
1, 37776, Note_off_c, 0, 83, 58
1, 37788, Control_c, 0, 64, 121
1, 37803, Control_c, 0, 64, 127
1, 37818, Control_c, 0, 64, 127
1, 37831, Note_on_c, 0, 95, 66
1, 37833, Note_on_c, 0, 87, 82
1, 37859, Note_off_c, 0, 95, 69
1, 37880, Note_off_c, 0, 87, 59
1, 37929, Control_c, 0, 64, 111
1, 37944, Control_c, 0, 64, 92
1, 37954, Note_on_c, 0, 73, 69
1, 37955, Note_on_c, 0, 82, 84
1, 37958, Control_c, 0, 64, 72
1, 37973, Control_c, 0, 64, 0
1, 37982, Note_off_c, 0, 73, 67
1, 37996, Note_off_c, 0, 82, 62
1, 38062, Note_on_c, 0, 80, 71
1, 38065, Note_on_c, 0, 71, 69
1, 38089, Note_off_c, 0, 80, 65
1, 38092, Note_off_c, 0, 71, 64
1, 38170, Note_on_c, 0, 78, 76
1, 38190, Note_on_c, 0, 70, 58
1, 38203, Note_off_c, 0, 78, 56
1, 38226, Note_off_c, 0, 70, 53
1, 38268, Note_on_c, 0, 80, 72
1, 38276, Note_on_c, 0, 71, 61
1, 38295, Note_off_c, 0, 71, 64
1, 38300, Note_off_c, 0, 80, 64
1, 38373, Control_c, 0, 64, 59
1, 38388, Control_c, 0, 64, 72
1, 38390, Note_on_c, 0, 82, 77
1, 38393, Note_on_c, 0, 73, 76
1, 38398, Note_on_c, 0, 61, 65
1, 38403, Control_c, 0, 64, 84
1, 38418, Control_c, 0, 64, 95
1, 38420, Note_off_c, 0, 73, 62
1, 38426, Note_off_c, 0, 61, 62
1, 38433, Control_c, 0, 64, 99
1, 38441, Note_off_c, 0, 82, 62
1, 38447, Control_c, 0, 64, 100
1, 38462, Control_c, 0, 64, 102
1, 38477, Control_c, 0, 64, 104
1, 38490, Note_on_c, 0, 94, 72
1, 38492, Control_c, 0, 64, 105
1, 38502, Note_on_c, 0, 85, 76
1, 38507, Control_c, 0, 64, 106
1, 38521, Note_off_c, 0, 94, 58
1, 38527, Note_off_c, 0, 85, 65
1, 38536, Control_c, 0, 64, 105
1, 38551, Control_c, 0, 64, 100
1, 38566, Control_c, 0, 64, 89
1, 38581, Control_c, 0, 64, 72
1, 38596, Control_c, 0, 64, 0
1, 38608, Note_on_c, 0, 80, 77
1, 38616, Note_on_c, 0, 71, 59
1, 38638, Note_off_c, 0, 71, 62
1, 38644, Note_off_c, 0, 80, 63
1, 38724, Note_on_c, 0, 78, 70
1, 38732, Note_on_c, 0, 70, 61
1, 38755, Note_off_c, 0, 78, 60
1, 38757, Note_off_c, 0, 70, 65
1, 38839, Note_on_c, 0, 77, 67
1, 38841, Note_on_c, 0, 68, 62
1, 38865, Note_off_c, 0, 68, 63
1, 38870, Note_off_c, 0, 77, 60
1, 38931, Note_on_c, 0, 78, 65
1, 38943, Note_on_c, 0, 70, 51
1, 38959, Note_off_c, 0, 78, 58
1, 38965, Note_off_c, 0, 70, 61
1, 39034, Control_c, 0, 64, 38
1, 39049, Control_c, 0, 64, 67
1, 39053, Note_on_c, 0, 71, 66
1, 39055, Note_on_c, 0, 80, 69
1, 39060, Note_on_c, 0, 61, 49
1, 39064, Control_c, 0, 64, 77
1, 39078, Control_c, 0, 64, 89
1, 39085, Note_off_c, 0, 80, 64
1, 39088, Note_off_c, 0, 71, 58
1, 39089, Note_off_c, 0, 61, 55
1, 39093, Control_c, 0, 64, 95
1, 39108, Control_c, 0, 64, 96
1, 39123, Control_c, 0, 64, 97
1, 39144, Note_on_c, 0, 92, 75
1, 39147, Note_on_c, 0, 83, 73
1, 39168, Control_c, 0, 64, 95
1, 39170, Note_off_c, 0, 92, 64
1, 39180, Note_off_c, 0, 83, 59
1, 39183, Control_c, 0, 64, 88
1, 39197, Control_c, 0, 64, 76
1, 39212, Control_c, 0, 64, 59
1, 39227, Control_c, 0, 64, 0
1, 39270, Note_on_c, 0, 75, 77
1, 39277, Note_on_c, 0, 66, 54
1, 39305, Note_off_c, 0, 75, 64
1, 39317, Note_off_c, 0, 66, 62
1, 39358, Note_on_c, 0, 68, 64
1, 39368, Note_on_c, 0, 77, 71
1, 39377, Note_off_c, 0, 68, 65
1, 39395, Note_off_c, 0, 77, 65
1, 39473, Note_on_c, 0, 54, 58
1, 39486, Control_c, 0, 64, 44
1, 39499, Note_off_c, 0, 54, 60
1, 39501, Control_c, 0, 64, 66
1, 39516, Control_c, 0, 64, 76
1, 39531, Control_c, 0, 64, 85
1, 39542, Note_on_c, 0, 70, 74
1, 39546, Control_c, 0, 64, 90
1, 39560, Note_on_c, 0, 78, 68
1, 39561, Control_c, 0, 64, 92
1, 39568, Note_off_c, 0, 70, 65
1, 39576, Control_c, 0, 64, 93
1, 39591, Control_c, 0, 64, 94
1, 39605, Control_c, 0, 64, 95
1, 39615, Note_off_c, 0, 78, 56
1, 39656, Note_on_c, 0, 90, 72
1, 39657, Note_on_c, 0, 82, 70
1, 39694, Control_c, 0, 64, 93
1, 39708, Note_off_c, 0, 90, 59
1, 39709, Control_c, 0, 64, 84
1, 39716, Note_off_c, 0, 82, 60
1, 39723, Control_c, 0, 64, 70
1, 39738, Control_c, 0, 64, 0
1, 39745, Note_on_c, 0, 66, 76
1, 39799, Control_c, 0, 64, 59
1, 39814, Control_c, 0, 64, 68
1, 39828, Control_c, 0, 64, 76
1, 39838, Note_off_c, 0, 66, 56
1, 39843, Control_c, 0, 64, 85
1, 39851, Note_on_c, 0, 78, 70
1, 39858, Control_c, 0, 64, 88
1, 39880, Note_off_c, 0, 78, 65
1, 39917, Control_c, 0, 64, 87
1, 39932, Control_c, 0, 64, 83
1, 39947, Control_c, 0, 64, 71
1, 39953, Note_on_c, 0, 67, 72
1, 39962, Control_c, 0, 64, 0
1, 40021, Control_c, 0, 64, 61
1, 40036, Control_c, 0, 64, 68
1, 40050, Control_c, 0, 64, 73
1, 40057, Note_on_c, 0, 79, 65
1, 40065, Control_c, 0, 64, 78
1, 40077, Note_off_c, 0, 79, 66
1, 40080, Control_c, 0, 64, 80
1, 40095, Control_c, 0, 64, 79
1, 40110, Control_c, 0, 64, 72
1, 40116, Note_off_c, 0, 67, 35
1, 40125, Control_c, 0, 64, 46
1, 40139, Control_c, 0, 64, 0
1, 40172, Note_on_c, 0, 68, 79
1, 40191, Control_c, 0, 64, 60
1, 40206, Control_c, 0, 64, 68
1, 40220, Control_c, 0, 64, 74
1, 40235, Control_c, 0, 64, 81
1, 40251, Control_c, 0, 64, 84
1, 40256, Note_off_c, 0, 68, 63
1, 40264, Note_on_c, 0, 80, 61
1, 40266, Control_c, 0, 64, 85
1, 40297, Note_off_c, 0, 80, 64
1, 40393, Note_on_c, 0, 68, 51
1, 40393, Note_on_c, 0, 92, 86
1, 40402, Note_on_c, 0, 64, 49
1, 40450, Note_off_c, 0, 64, 58
1, 40461, Note_off_c, 0, 68, 48
1, 40474, Note_off_c, 0, 92, 60
1, 40496, Note_on_c, 0, 80, 67
1, 40548, Control_c, 0, 64, 82
1, 40560, Note_off_c, 0, 80, 59
1, 40563, Control_c, 0, 64, 73
1, 40578, Control_c, 0, 64, 0
1, 40599, Note_on_c, 0, 68, 55
1, 40606, Note_on_c, 0, 92, 80
1, 40613, Note_on_c, 0, 63, 43
1, 40623, Control_c, 0, 64, 47
1, 40638, Control_c, 0, 64, 64
1, 40648, Note_off_c, 0, 63, 60
1, 40652, Control_c, 0, 64, 69
1, 40661, Note_off_c, 0, 68, 57
1, 40667, Control_c, 0, 64, 75
1, 40676, Note_off_c, 0, 92, 63
1, 40682, Control_c, 0, 64, 81
1, 40697, Control_c, 0, 64, 84
1, 40701, Note_on_c, 0, 78, 72
1, 40712, Control_c, 0, 64, 84
1, 40754, Note_off_c, 0, 78, 60
1, 40756, Control_c, 0, 64, 80
1, 40770, Control_c, 0, 64, 69
1, 40785, Control_c, 0, 64, 0
1, 40797, Note_on_c, 0, 68, 56
1, 40800, Note_on_c, 0, 92, 80
1, 40805, Note_on_c, 0, 61, 39
1, 40834, Note_off_c, 0, 61, 56
1, 40841, Note_off_c, 0, 68, 60
1, 40844, Control_c, 0, 64, 61
1, 40848, Note_off_c, 0, 92, 65
1, 40859, Control_c, 0, 64, 68
1, 40874, Control_c, 0, 64, 73
1, 40889, Control_c, 0, 64, 78
1, 40899, Note_on_c, 0, 76, 60
1, 40904, Control_c, 0, 64, 82
1, 40924, Note_off_c, 0, 76, 65
1, 40926, Control_c, 0, 64, 82
1, 40941, Control_c, 0, 64, 83
1, 40956, Control_c, 0, 64, 84
1, 40970, Control_c, 0, 64, 86
1, 40985, Control_c, 0, 64, 89
1, 41000, Control_c, 0, 64, 92
1, 41011, Note_on_c, 0, 102, 94
1, 41015, Control_c, 0, 64, 95
1, 41022, Note_on_c, 0, 75, 55
1, 41030, Control_c, 0, 64, 97
1, 41038, Note_off_c, 0, 102, 62
1, 41044, Control_c, 0, 64, 99
1, 41049, Note_off_c, 0, 75, 64
1, 41059, Control_c, 0, 64, 99
1, 41125, Note_on_c, 0, 80, 63
1, 41142, Note_off_c, 0, 80, 66
1, 41206, Note_on_c, 0, 73, 68
1, 41222, Control_c, 0, 64, 99
1, 41228, Note_on_c, 0, 100, 90
1, 41232, Note_off_c, 0, 73, 68
1, 41237, Control_c, 0, 64, 96
1, 41252, Control_c, 0, 64, 85
1, 41261, Note_off_c, 0, 100, 62
1, 41267, Control_c, 0, 64, 69
1, 41282, Control_c, 0, 64, 0
1, 41311, Control_c, 0, 64, 62
1, 41326, Control_c, 0, 64, 69
1, 41332, Note_on_c, 0, 80, 70
1, 41335, Note_on_c, 0, 56, 57
1, 41341, Control_c, 0, 64, 78
1, 41356, Control_c, 0, 64, 87
1, 41360, Note_off_c, 0, 80, 67
1, 41361, Note_off_c, 0, 56, 61
1, 41371, Control_c, 0, 64, 91
1, 41386, Control_c, 0, 64, 92
1, 41428, Note_on_c, 0, 72, 70
1, 41431, Control_c, 0, 64, 92
1, 41436, Note_on_c, 0, 99, 85
1, 41457, Note_off_c, 0, 72, 65
1, 41460, Control_c, 0, 64, 93
1, 41475, Note_off_c, 0, 99, 66
1, 41505, Control_c, 0, 64, 93
1, 41520, Control_c, 0, 64, 94
1, 41535, Note_on_c, 0, 80, 76
1, 41564, Control_c, 0, 64, 94
1, 41565, Note_off_c, 0, 80, 63
1, 41633, Note_on_c, 0, 70, 60
1, 41648, Note_on_c, 0, 97, 83
1, 41686, Note_off_c, 0, 97, 61
1, 41690, Control_c, 0, 64, 95
1, 41699, Note_off_c, 0, 70, 49
1, 41720, Control_c, 0, 64, 95
1, 41746, Note_on_c, 0, 80, 73
1, 41749, Control_c, 0, 64, 96
1, 41773, Note_off_c, 0, 80, 63
1, 41855, Note_on_c, 0, 72, 60
1, 41857, Note_on_c, 0, 99, 94
1, 41889, Note_off_c, 0, 72, 64
1, 41892, Note_off_c, 0, 99, 63
1, 41951, Note_on_c, 0, 80, 73
1, 41979, Note_off_c, 0, 80, 63
1, 42015, Control_c, 0, 64, 95
1, 42030, Control_c, 0, 64, 89
1, 42045, Control_c, 0, 64, 74
1, 42060, Control_c, 0, 64, 0
1, 42066, Note_on_c, 0, 61, 50
1, 42066, Note_on_c, 0, 100, 89
1, 42071, Note_on_c, 0, 73, 65
1, 42087, Note_off_c, 0, 100, 65
1, 42097, Note_off_c, 0, 61, 63
1, 42104, Control_c, 0, 64, 58
1, 42111, Note_off_c, 0, 73, 56
1, 42118, Control_c, 0, 64, 66
1, 42134, Control_c, 0, 64, 73
1, 42149, Control_c, 0, 64, 81
1, 42161, Note_on_c, 0, 80, 77
1, 42164, Control_c, 0, 64, 87
1, 42179, Control_c, 0, 64, 89
1, 42202, Note_off_c, 0, 80, 59
1, 42277, Note_on_c, 0, 97, 88
1, 42283, Control_c, 0, 67, 14
1, 42289, Note_on_c, 0, 76, 57
1, 42297, Control_c, 0, 67, 26
1, 42303, Note_off_c, 0, 97, 63
1, 42312, Control_c, 0, 67, 44
1, 42313, Note_off_c, 0, 76, 63
1, 42327, Control_c, 0, 67, 73
1, 42342, Control_c, 0, 67, 110
1, 42357, Control_c, 0, 67, 127
1, 42358, Note_on_c, 0, 80, 78
1, 42386, Control_c, 0, 64, 89
1, 42388, Note_off_c, 0, 80, 62
1, 42438, Control_c, 0, 64, 88
1, 42453, Control_c, 0, 64, 83
1, 42468, Control_c, 0, 64, 71
1, 42483, Control_c, 0, 64, 0
1, 42486, Note_on_c, 0, 67, 61
1, 42556, Control_c, 0, 64, 60
1, 42571, Control_c, 0, 64, 67
1, 42586, Control_c, 0, 64, 74
1, 42587, Note_on_c, 0, 79, 56
1, 42601, Control_c, 0, 64, 81
1, 42606, Note_off_c, 0, 79, 60
1, 42615, Control_c, 0, 64, 83
1, 42630, Note_off_c, 0, 67, 48
1, 42660, Control_c, 0, 64, 83
1, 42675, Control_c, 0, 64, 77
1, 42689, Control_c, 0, 64, 61
1, 42693, Note_on_c, 0, 66, 70
1, 42704, Control_c, 0, 64, 0
1, 42734, Control_c, 0, 64, 30
1, 42748, Control_c, 0, 64, 62
1, 42763, Control_c, 0, 64, 68
1, 42769, Note_off_c, 0, 66, 65
1, 42778, Control_c, 0, 64, 73
1, 42781, Note_on_c, 0, 78, 56
1, 42793, Control_c, 0, 64, 78
1, 42808, Control_c, 0, 64, 80
1, 42813, Note_off_c, 0, 78, 66
1, 42838, Control_c, 0, 64, 79
1, 42853, Control_c, 0, 64, 73
1, 42867, Control_c, 0, 64, 52
1, 42882, Control_c, 0, 64, 0
1, 42897, Control_c, 0, 64, 47
1, 42903, Note_on_c, 0, 66, 52
1, 42910, Note_on_c, 0, 90, 74
1, 42912, Control_c, 0, 64, 63
1, 42915, Note_on_c, 0, 63, 39
1, 42927, Control_c, 0, 64, 68
1, 42942, Control_c, 0, 64, 73
1, 42954, Note_off_c, 0, 66, 59
1, 42957, Control_c, 0, 64, 78
1, 42958, Note_off_c, 0, 63, 47
1, 42972, Control_c, 0, 64, 80
1, 42983, Note_off_c, 0, 90, 56
1, 43002, Control_c, 0, 64, 79
1, 43009, Note_on_c, 0, 78, 57
1, 43016, Control_c, 0, 64, 75
1, 43031, Control_c, 0, 64, 67
1, 43046, Control_c, 0, 64, 39
1, 43048, Note_off_c, 0, 78, 47
1, 43061, Control_c, 0, 64, 53
1, 43076, Control_c, 0, 64, 64
1, 43091, Control_c, 0, 64, 69
1, 43092, Note_on_c, 0, 61, 45
1, 43094, Note_on_c, 0, 66, 50
1, 43100, Note_on_c, 0, 90, 71
1, 43105, Control_c, 0, 64, 73
1, 43120, Control_c, 0, 64, 78
1, 43130, Note_off_c, 0, 61, 64
1, 43135, Control_c, 0, 64, 80
1, 43137, Note_off_c, 0, 66, 61
1, 43150, Control_c, 0, 64, 81
1, 43176, Note_off_c, 0, 90, 62
1, 43201, Control_c, 0, 64, 80
1, 43216, Control_c, 0, 64, 75
1, 43223, Note_on_c, 0, 76, 46
1, 43231, Control_c, 0, 64, 63
1, 43245, Note_off_c, 0, 76, 53
1, 43246, Control_c, 0, 64, 0
1, 43291, Control_c, 0, 64, 54
1, 43300, Note_on_c, 0, 66, 45
1, 43301, Note_on_c, 0, 59, 41
1, 43306, Control_c, 0, 64, 65
1, 43309, Note_on_c, 0, 90, 70
1, 43321, Control_c, 0, 64, 69
1, 43329, Note_off_c, 0, 59, 54
1, 43335, Control_c, 0, 64, 74
1, 43342, Note_off_c, 0, 66, 49
1, 43350, Control_c, 0, 64, 79
1, 43359, Note_off_c, 0, 90, 61
1, 43365, Control_c, 0, 64, 82
1, 43380, Control_c, 0, 64, 82
1, 43408, Note_on_c, 0, 75, 43
1, 43425, Control_c, 0, 64, 83
1, 43434, Note_off_c, 0, 75, 48
1, 43439, Control_c, 0, 64, 83
1, 43484, Control_c, 0, 64, 84
1, 43511, Note_on_c, 0, 100, 77
1, 43513, Control_c, 0, 64, 84
1, 43524, Note_on_c, 0, 73, 44
1, 43531, Note_off_c, 0, 100, 70
1, 43547, Note_off_c, 0, 73, 58
1, 43629, Note_on_c, 0, 78, 57
1, 43646, Note_off_c, 0, 78, 63
1, 43696, Note_on_c, 0, 71, 48
1, 43717, Note_off_c, 0, 71, 60
1, 43737, Note_on_c, 0, 99, 86
1, 43751, Control_c, 0, 64, 82
1, 43760, Note_off_c, 0, 99, 70
1, 43766, Control_c, 0, 64, 73
1, 43781, Control_c, 0, 64, 32
1, 43795, Control_c, 0, 64, 0
1, 43825, Control_c, 0, 64, 63
1, 43830, Note_on_c, 0, 54, 43
1, 43840, Control_c, 0, 64, 68
1, 43841, Note_on_c, 0, 78, 70
1, 43855, Control_c, 0, 64, 75
1, 43858, Note_off_c, 0, 54, 54
1, 43868, Note_off_c, 0, 78, 64
1, 43869, Control_c, 0, 64, 82
1, 43884, Control_c, 0, 64, 86
1, 43899, Control_c, 0, 64, 87
1, 43932, Note_on_c, 0, 70, 68
1, 43951, Control_c, 0, 64, 88
1, 43958, Note_on_c, 0, 97, 91
1, 43959, Note_off_c, 0, 70, 65
1, 43966, Control_c, 0, 64, 89
1, 43981, Control_c, 0, 64, 90
1, 43987, Note_off_c, 0, 97, 58
1, 43995, Control_c, 0, 64, 91
1, 44010, Control_c, 0, 64, 91
1, 44025, Control_c, 0, 64, 92
1, 44062, Note_on_c, 0, 78, 69
1, 44092, Note_off_c, 0, 78, 62
1, 44175, Note_on_c, 0, 95, 75
1, 44185, Note_on_c, 0, 68, 51
1, 44197, Note_off_c, 0, 95, 71
1, 44218, Note_off_c, 0, 68, 54
1, 44263, Note_on_c, 0, 78, 74
1, 44290, Note_off_c, 0, 78, 63
1, 44381, Note_on_c, 0, 97, 86
1, 44386, Note_on_c, 0, 70, 52
1, 44402, Note_off_c, 0, 97, 68
1, 44417, Note_off_c, 0, 70, 58
1, 44478, Note_on_c, 0, 78, 71
1, 44507, Note_off_c, 0, 78, 64
1, 44574, Control_c, 0, 64, 89
1, 44589, Control_c, 0, 64, 79
1, 44604, Control_c, 0, 64, 64
1, 44618, Control_c, 0, 64, 0
1, 44619, Note_on_c, 0, 59, 41
1, 44626, Note_on_c, 0, 99, 76
1, 44635, Note_on_c, 0, 71, 41
1, 44648, Control_c, 0, 64, 57
1, 44653, Note_off_c, 0, 99, 70
1, 44669, Note_off_c, 0, 59, 47
1, 44671, Control_c, 0, 64, 63
1, 44686, Control_c, 0, 64, 68
1, 44690, Note_off_c, 0, 71, 52
1, 44700, Control_c, 0, 64, 72
1, 44715, Control_c, 0, 64, 78
1, 44730, Control_c, 0, 64, 82
1, 44745, Control_c, 0, 64, 82
1, 44758, Note_on_c, 0, 78, 60
1, 44776, Note_off_c, 0, 78, 62
1, 44859, Note_on_c, 0, 95, 77
1, 44880, Note_off_c, 0, 95, 72
1, 44881, Note_on_c, 0, 75, 46
1, 44903, Note_off_c, 0, 75, 51
1, 44946, Note_on_c, 0, 78, 67
1, 44962, Note_off_c, 0, 78, 66
1, 44981, Control_c, 0, 64, 80
1, 44996, Control_c, 0, 64, 70
1, 45011, Control_c, 0, 64, 0
1, 45011, Control_c, 0, 67, 117
1, 45026, Control_c, 0, 67, 78
1, 45041, Control_c, 0, 67, 31
1, 45046, Note_on_c, 0, 62, 68
1, 45055, Control_c, 0, 67, 0
1, 45070, Control_c, 0, 64, 55
1, 45085, Control_c, 0, 64, 67
1, 45100, Control_c, 0, 64, 73
1, 45115, Control_c, 0, 64, 80
1, 45130, Control_c, 0, 64, 84
1, 45137, Note_on_c, 0, 74, 63
1, 45144, Control_c, 0, 64, 85
1, 45163, Note_off_c, 0, 74, 70
1, 45187, Note_off_c, 0, 62, 55
1, 45189, Control_c, 0, 64, 83
1, 45204, Control_c, 0, 64, 77
1, 45218, Control_c, 0, 64, 62
1, 45233, Control_c, 0, 64, 0
1, 45240, Note_on_c, 0, 63, 73
1, 45263, Control_c, 0, 64, 25
1, 45278, Control_c, 0, 64, 63
1, 45292, Control_c, 0, 64, 69
1, 45307, Control_c, 0, 64, 75
1, 45314, Note_off_c, 0, 63, 64
1, 45322, Control_c, 0, 64, 81
1, 45338, Control_c, 0, 64, 84
1, 45342, Note_on_c, 0, 75, 52
1, 45353, Control_c, 0, 64, 84
1, 45364, Note_off_c, 0, 75, 64
1, 45397, Control_c, 0, 64, 82
1, 45419, Control_c, 0, 64, 76
1, 45434, Control_c, 0, 64, 63
1, 45447, Note_on_c, 0, 63, 63
1, 45449, Control_c, 0, 64, 0
1, 45449, Note_on_c, 0, 55, 49
1, 45475, Note_on_c, 0, 87, 80
1, 45494, Control_c, 0, 64, 61
1, 45507, Control_c, 0, 64, 68
1, 45514, Note_off_c, 0, 55, 58
1, 45519, Note_off_c, 0, 63, 61
1, 45521, Control_c, 0, 64, 73
1, 45531, Note_off_c, 0, 87, 54
1, 45536, Control_c, 0, 64, 79
1, 45551, Control_c, 0, 64, 82
1, 45555, Note_on_c, 0, 75, 67
1, 45565, Control_c, 0, 64, 82
1, 45610, Control_c, 0, 64, 82
1, 45625, Control_c, 0, 64, 78
1, 45633, Note_off_c, 0, 75, 59
1, 45640, Control_c, 0, 64, 67
1, 45646, Note_on_c, 0, 65, 77
1, 45652, Note_on_c, 0, 56, 65
1, 45655, Control_c, 0, 64, 0
1, 45662, Note_on_c, 0, 87, 66
1, 45714, Control_c, 0, 64, 58
1, 45721, Note_off_c, 0, 56, 53
1, 45729, Control_c, 0, 64, 67
1, 45744, Control_c, 0, 64, 73
1, 45752, Note_off_c, 0, 65, 60
1, 45754, Note_on_c, 0, 74, 76
1, 45758, Control_c, 0, 64, 78
1, 45759, Note_off_c, 0, 87, 48
1, 45773, Control_c, 0, 64, 80
1, 45788, Control_c, 0, 64, 80
1, 45818, Control_c, 0, 64, 80
1, 45832, Control_c, 0, 64, 77
1, 45833, Note_off_c, 0, 74, 62
1, 45847, Control_c, 0, 64, 68
1, 45860, Note_on_c, 0, 67, 77
1, 45862, Note_on_c, 0, 58, 66
1, 45862, Note_on_c, 0, 87, 74
1, 45862, Control_c, 0, 64, 0
1, 45906, Control_c, 0, 64, 31
1, 45921, Control_c, 0, 64, 63
1, 45931, Note_off_c, 0, 58, 54
1, 45936, Control_c, 0, 64, 69
1, 45948, Note_on_c, 0, 73, 77
1, 45948, Note_off_c, 0, 87, 56
1, 45951, Control_c, 0, 64, 74
1, 45961, Note_off_c, 0, 67, 51
1, 45965, Control_c, 0, 64, 79
1, 45980, Control_c, 0, 64, 81
1, 46025, Control_c, 0, 64, 78
1, 46037, Note_off_c, 0, 73, 62
1, 46039, Control_c, 0, 64, 70
1, 46054, Control_c, 0, 64, 22
1, 46063, Note_on_c, 0, 87, 72
1, 46069, Control_c, 0, 64, 0
1, 46071, Note_on_c, 0, 58, 53
1, 46071, Note_on_c, 0, 67, 70
1, 46084, Control_c, 0, 64, 13
1, 46099, Control_c, 0, 64, 61
1, 46114, Control_c, 0, 64, 67
1, 46114, Note_off_c, 0, 58, 58
1, 46120, Note_off_c, 0, 67, 54
1, 46129, Control_c, 0, 64, 72
1, 46144, Control_c, 0, 64, 77
1, 46160, Note_on_c, 0, 73, 78
1, 46165, Note_off_c, 0, 87, 55
1, 46167, Control_c, 0, 64, 80
1, 46182, Control_c, 0, 64, 80
1, 46211, Control_c, 0, 64, 79
1, 46226, Control_c, 0, 64, 74
1, 46241, Control_c, 0, 64, 63
1, 46244, Note_off_c, 0, 73, 61
1, 46257, Control_c, 0, 64, 0
1, 46266, Note_on_c, 0, 68, 72
1, 46266, Note_on_c, 0, 87, 76
1, 46278, Note_on_c, 0, 59, 47
1, 46286, Control_c, 0, 64, 50
1, 46287, Note_off_c, 0, 87, 70
1, 46301, Control_c, 0, 64, 65
1, 46316, Control_c, 0, 64, 71
1, 46318, Note_off_c, 0, 59, 62
1, 46331, Control_c, 0, 64, 76
1, 46338, Note_off_c, 0, 68, 61
1, 46345, Control_c, 0, 64, 80
1, 46352, Note_on_c, 0, 71, 66
1, 46360, Control_c, 0, 64, 81
1, 46371, Note_off_c, 0, 71, 64
1, 46389, Control_c, 0, 64, 80
1, 46404, Control_c, 0, 64, 76
1, 46419, Control_c, 0, 64, 66
1, 46434, Control_c, 0, 64, 0
1, 46463, Control_c, 0, 64, 31
1, 46467, Note_on_c, 0, 70, 66
1, 46471, Note_on_c, 0, 61, 52
1, 46478, Note_on_c, 0, 88, 78
1, 46478, Control_c, 0, 64, 63
1, 46482, Note_on_c, 0, 76, 72
1, 46493, Control_c, 0, 64, 67
1, 46508, Control_c, 0, 64, 73
1, 46515, Note_off_c, 0, 76, 61
1, 46523, Control_c, 0, 64, 78
1, 46537, Control_c, 0, 64, 80
1, 46552, Control_c, 0, 64, 80
1, 46560, Note_on_c, 0, 82, 64
1, 46561, Note_off_c, 0, 88, 62
1, 46563, Note_on_c, 0, 87, 71
1, 46565, Note_off_c, 0, 70, 54
1, 46579, Note_off_c, 0, 82, 66
1, 46582, Control_c, 0, 64, 81
1, 46593, Note_off_c, 0, 87, 63
1, 46594, Note_off_c, 0, 61, 36
1, 46611, Control_c, 0, 64, 81
1, 46641, Control_c, 0, 64, 82
1, 46655, Note_on_c, 0, 85, 83
1, 46660, Note_on_c, 0, 73, 77
1, 46678, Note_off_c, 0, 73, 66
1, 46686, Control_c, 0, 64, 82
1, 46705, Note_off_c, 0, 85, 61
1, 46751, Note_on_c, 0, 76, 74
1, 46756, Note_on_c, 0, 83, 79
1, 46796, Note_off_c, 0, 83, 60
1, 46797, Note_off_c, 0, 76, 65
1, 46819, Control_c, 0, 64, 82
1, 46834, Control_c, 0, 64, 80
1, 46849, Control_c, 0, 64, 72
1, 46859, Note_on_c, 0, 82, 83
1, 46860, Note_on_c, 0, 71, 80
1, 46863, Control_c, 0, 64, 27
1, 46873, Note_on_c, 0, 65, 57
1, 46875, Note_on_c, 0, 62, 48
1, 46878, Control_c, 0, 64, 0
1, 46915, Control_c, 0, 64, 16
1, 46920, Note_off_c, 0, 62, 62
1, 46930, Control_c, 0, 64, 61
1, 46934, Note_off_c, 0, 65, 58
1, 46946, Control_c, 0, 64, 68
1, 46948, Note_off_c, 0, 71, 35
1, 46957, Note_on_c, 0, 77, 73
1, 46960, Note_on_c, 0, 80, 77
1, 46961, Control_c, 0, 64, 74
1, 46970, Note_off_c, 0, 82, 60
1, 46975, Control_c, 0, 64, 80
1, 46990, Control_c, 0, 64, 83
1, 46993, Note_off_c, 0, 77, 60
1, 47020, Note_off_c, 0, 80, 64
1, 47020, Control_c, 0, 64, 82
1, 47035, Control_c, 0, 64, 78
1, 47050, Control_c, 0, 64, 67
1, 47065, Control_c, 0, 64, 0
1, 47066, Note_on_c, 0, 79, 83
1, 47071, Note_on_c, 0, 67, 59
1, 47076, Note_on_c, 0, 63, 46
1, 47076, Note_on_c, 0, 70, 71
1, 47094, Control_c, 0, 64, 46
1, 47109, Control_c, 0, 64, 65
1, 47121, Note_off_c, 0, 70, 48
1, 47124, Control_c, 0, 64, 70
1, 47125, Note_off_c, 0, 63, 59
1, 47139, Control_c, 0, 64, 75
1, 47145, Note_off_c, 0, 67, 54
1, 47154, Control_c, 0, 64, 80
1, 47164, Note_off_c, 0, 79, 60
1, 47166, Note_on_c, 0, 82, 80
1, 47168, Control_c, 0, 64, 81
1, 47171, Note_on_c, 0, 75, 67
1, 47197, Note_off_c, 0, 75, 70
1, 47198, Control_c, 0, 64, 79
1, 47210, Note_off_c, 0, 82, 62
1, 47212, Control_c, 0, 64, 74
1, 47227, Control_c, 0, 64, 61
1, 47242, Control_c, 0, 64, 0
1, 47267, Note_on_c, 0, 83, 74
1, 47272, Control_c, 0, 64, 55
1, 47273, Note_on_c, 0, 79, 77
1, 47286, Control_c, 0, 64, 65
1, 47301, Control_c, 0, 64, 69
1, 47309, Note_off_c, 0, 83, 55
1, 47316, Control_c, 0, 64, 73
1, 47330, Control_c, 0, 64, 77
1, 47338, Note_off_c, 0, 79, 0
1, 47345, Control_c, 0, 64, 79
1, 47354, Note_on_c, 0, 82, 84
1, 47360, Control_c, 0, 64, 79
1, 47362, Note_on_c, 0, 75, 82
1, 47367, Poly_aftertouch_c, 0, 79, 0
1, 47400, Note_off_c, 0, 75, 61
1, 47419, Control_c, 0, 64, 77
1, 47434, Control_c, 0, 64, 70
1, 47440, Note_off_c, 0, 82, 61
1, 47449, Control_c, 0, 64, 33
1, 47456, Note_on_c, 0, 74, 76
1, 47464, Control_c, 0, 64, 0
1, 47509, Control_c, 0, 64, 58
1, 47524, Control_c, 0, 64, 67
1, 47538, Control_c, 0, 64, 72
1, 47553, Control_c, 0, 64, 78
1, 47561, Note_on_c, 0, 86, 68
1, 47568, Control_c, 0, 64, 81
1, 47580, Note_off_c, 0, 86, 40
1, 47583, Control_c, 0, 64, 81
1, 47592, Note_off_c, 0, 74, 0
1, 47610, Note_on_c, 0, 74, 17
1, 47642, Control_c, 0, 64, 78
1, 47648, Note_off_c, 0, 74, 53
1, 47664, Control_c, 0, 64, 70
1, 47679, Control_c, 0, 64, 37
1, 47686, Note_on_c, 0, 75, 85
1, 47694, Control_c, 0, 64, 0
1, 47723, Control_c, 0, 64, 44
1, 47739, Control_c, 0, 64, 63
1, 47753, Control_c, 0, 64, 68
1, 47756, Note_off_c, 0, 75, 64
1, 47765, Note_on_c, 0, 87, 71
1, 47768, Control_c, 0, 64, 73
1, 47783, Control_c, 0, 64, 77
1, 47798, Control_c, 0, 64, 79
1, 47803, Note_off_c, 0, 87, 63
1, 47813, Control_c, 0, 64, 80
1, 47857, Control_c, 0, 64, 79
1, 47872, Control_c, 0, 64, 73
1, 47887, Control_c, 0, 64, 60
1, 47890, Note_on_c, 0, 75, 72
1, 47893, Note_on_c, 0, 67, 58
1, 47901, Note_on_c, 0, 99, 91
1, 47902, Control_c, 0, 64, 0
1, 47947, Control_c, 0, 64, 59
1, 47949, Note_off_c, 0, 67, 57
1, 47961, Control_c, 0, 64, 66
1, 47967, Note_off_c, 0, 75, 59
1, 47976, Control_c, 0, 64, 71
1, 47985, Note_on_c, 0, 87, 70
1, 47991, Control_c, 0, 64, 76
1, 48006, Control_c, 0, 64, 80
1, 48009, Note_off_c, 0, 99, 64
1, 48021, Control_c, 0, 64, 81
1, 48065, Control_c, 0, 64, 80
1, 48067, Note_off_c, 0, 87, 60
1, 48080, Control_c, 0, 64, 76
1, 48095, Control_c, 0, 64, 66
1, 48097, Note_on_c, 0, 77, 82
1, 48099, Note_on_c, 0, 68, 73
1, 48107, Note_on_c, 0, 99, 79
1, 48109, Control_c, 0, 64, 0
1, 48153, Control_c, 0, 64, 55
1, 48168, Control_c, 0, 64, 65
1, 48174, Note_off_c, 0, 68, 59
1, 48183, Control_c, 0, 64, 69
1, 48189, Note_off_c, 0, 77, 57
1, 48190, Note_on_c, 0, 86, 81
1, 48190, Note_off_c, 0, 99, 58
1, 48198, Control_c, 0, 64, 74
1, 48213, Control_c, 0, 64, 78
1, 48227, Control_c, 0, 64, 80
1, 48257, Control_c, 0, 64, 79
1, 48269, Note_off_c, 0, 86, 64
1, 48272, Control_c, 0, 64, 76
1, 48287, Control_c, 0, 64, 68
1, 48300, Note_on_c, 0, 99, 81
1, 48302, Control_c, 0, 64, 0
1, 48307, Note_on_c, 0, 79, 79
1, 48308, Note_on_c, 0, 70, 70
1, 48346, Control_c, 0, 64, 52
1, 48361, Control_c, 0, 64, 63
1, 48376, Control_c, 0, 64, 68
1, 48381, Note_off_c, 0, 70, 56
1, 48391, Control_c, 0, 64, 72
1, 48391, Note_off_c, 0, 99, 62
1, 48392, Note_on_c, 0, 85, 80
1, 48413, Note_off_c, 0, 79, 53
1, 48413, Control_c, 0, 64, 77
1, 48428, Control_c, 0, 64, 79
1, 48472, Control_c, 0, 64, 76
1, 48475, Note_off_c, 0, 85, 65
1, 48486, Control_c, 0, 64, 68
1, 48501, Control_c, 0, 64, 0
1, 48501, Note_on_c, 0, 99, 83
1, 48510, Note_on_c, 0, 70, 61
1, 48513, Note_on_c, 0, 79, 76
1, 48531, Control_c, 0, 64, 52
1, 48546, Control_c, 0, 64, 64
1, 48561, Control_c, 0, 64, 68
1, 48576, Control_c, 0, 64, 73
1, 48583, Note_off_c, 0, 79, 61
1, 48585, Note_off_c, 0, 70, 49
1, 48588, Note_on_c, 0, 85, 82
1, 48590, Note_off_c, 0, 99, 60
1, 48591, Control_c, 0, 64, 78
1, 48606, Control_c, 0, 64, 80
1, 48635, Control_c, 0, 64, 79
1, 48650, Control_c, 0, 64, 74
1, 48665, Control_c, 0, 64, 64
1, 48680, Control_c, 0, 64, 48
1, 48685, Note_off_c, 0, 85, 61
1, 48695, Control_c, 0, 64, 61
1, 48696, Note_on_c, 0, 99, 78
1, 48702, Note_on_c, 0, 80, 79
1, 48710, Control_c, 0, 64, 65
1, 48716, Note_on_c, 0, 71, 52
1, 48725, Control_c, 0, 64, 68
1, 48735, Note_off_c, 0, 99, 68
1, 48739, Control_c, 0, 64, 73
1, 48754, Control_c, 0, 64, 77
1, 48767, Note_off_c, 0, 71, 59
1, 48769, Control_c, 0, 64, 79
1, 48787, Note_on_c, 0, 83, 74
1, 48789, Note_off_c, 0, 80, 56
1, 48813, Control_c, 0, 64, 77
1, 48814, Note_off_c, 0, 83, 63
1, 48828, Control_c, 0, 64, 72
1, 48843, Control_c, 0, 64, 61
1, 48857, Control_c, 0, 64, 0
1, 48887, Control_c, 0, 64, 27
1, 48902, Control_c, 0, 64, 61
1, 48902, Note_on_c, 0, 81, 71
1, 48904, Note_on_c, 0, 100, 87
1, 48906, Note_on_c, 0, 73, 57
1, 48907, Note_on_c, 0, 88, 78
1, 48916, Control_c, 0, 64, 66
1, 48931, Control_c, 0, 64, 69
1, 48943, Note_off_c, 0, 88, 60
1, 48946, Control_c, 0, 64, 73
1, 48961, Control_c, 0, 64, 75
1, 48975, Control_c, 0, 64, 75
1, 48987, Note_off_c, 0, 81, 51
1, 48993, Note_on_c, 0, 93, 74
1, 48996, Note_on_c, 0, 99, 80
1, 48999, Note_off_c, 0, 100, 67
1, 49005, Control_c, 0, 64, 75
1, 49029, Note_off_c, 0, 93, 58
1, 49031, Note_off_c, 0, 99, 64
1, 49063, Note_off_c, 0, 73, 33
1, 49082, Note_on_c, 0, 87, 84
1, 49098, Note_on_c, 0, 97, 48
1, 49109, Control_c, 0, 64, 75
1, 49112, Note_off_c, 0, 87, 59
1, 49124, Note_on_c, 0, 98, 35
1, 49125, Note_off_c, 0, 98, 127
1, 49128, Note_off_c, 0, 97, 51
1, 49139, Control_c, 0, 64, 76
1, 49176, Control_c, 0, 64, 76
1, 49191, Note_on_c, 0, 88, 82
1, 49199, Note_on_c, 0, 95, 79
1, 49210, Note_on_c, 0, 94, 49
1, 49227, Note_off_c, 0, 95, 66
1, 49232, Note_off_c, 0, 94, 55
1, 49241, Note_off_c, 0, 88, 61
1, 49264, Control_c, 0, 64, 75
1, 49279, Control_c, 0, 64, 67
1, 49294, Control_c, 0, 64, 0
1, 49297, Note_on_c, 0, 93, 93
1, 49304, Note_on_c, 0, 83, 81
1, 49309, Note_on_c, 0, 77, 66
1, 49318, Note_on_c, 0, 74, 50
1, 49340, Control_c, 0, 64, 25
1, 49349, Note_off_c, 0, 83, 58
1, 49354, Control_c, 0, 64, 59
1, 49357, Note_off_c, 0, 74, 62
1, 49369, Control_c, 0, 64, 66
1, 49384, Control_c, 0, 64, 71
1, 49385, Note_off_c, 0, 77, 55
1, 49391, Note_on_c, 0, 89, 72
1, 49391, Note_on_c, 0, 92, 88
1, 49393, Note_off_c, 0, 93, 64
1, 49399, Control_c, 0, 64, 75
1, 49413, Control_c, 0, 64, 78
1, 49419, Note_off_c, 0, 89, 67
1, 49443, Control_c, 0, 64, 77
1, 49449, Note_off_c, 0, 92, 64
1, 49458, Control_c, 0, 64, 73
1, 49473, Control_c, 0, 64, 59
1, 49488, Control_c, 0, 64, 0
1, 49499, Note_on_c, 0, 91, 83
1, 49506, Note_on_c, 0, 82, 71
1, 49507, Note_on_c, 0, 79, 56
1, 49513, Note_on_c, 0, 75, 47
1, 49518, Control_c, 0, 64, 36
1, 49532, Control_c, 0, 64, 62
1, 49545, Note_off_c, 0, 82, 53
1, 49547, Control_c, 0, 64, 67
1, 49560, Note_off_c, 0, 79, 53
1, 49562, Control_c, 0, 64, 72
1, 49563, Note_off_c, 0, 75, 59
1, 49577, Control_c, 0, 64, 77
1, 49589, Note_on_c, 0, 87, 73
1, 49592, Control_c, 0, 64, 79
1, 49595, Note_off_c, 0, 91, 58
1, 49598, Note_on_c, 0, 94, 81
1, 49625, Note_off_c, 0, 87, 62
1, 49651, Note_off_c, 0, 94, 65
1, 49651, Control_c, 0, 64, 76
1, 49666, Control_c, 0, 64, 69
1, 49680, Control_c, 0, 64, 47
1, 49695, Control_c, 0, 64, 0
1, 49702, Note_on_c, 0, 74, 71
1, 49710, Control_c, 0, 64, 18
1, 49724, Control_c, 0, 64, 61
1, 49739, Control_c, 0, 64, 66
1, 49754, Control_c, 0, 64, 69
1, 49762, Note_off_c, 0, 74, 63
1, 49769, Control_c, 0, 64, 73
1, 49784, Control_c, 0, 64, 74
1, 49799, Note_on_c, 0, 86, 73
1, 49813, Control_c, 0, 64, 71
1, 49828, Control_c, 0, 64, 62
1, 49843, Control_c, 0, 64, 0
1, 49859, Note_off_c, 0, 86, 55
1, 49873, Control_c, 0, 64, 35
1, 49887, Control_c, 0, 64, 61
1, 49905, Note_on_c, 0, 75, 71
1, 49910, Control_c, 0, 64, 66
1, 49925, Control_c, 0, 64, 70
1, 49939, Control_c, 0, 64, 74
1, 49954, Control_c, 0, 64, 77
1, 49969, Note_off_c, 0, 75, 65
1, 49969, Control_c, 0, 64, 77
1, 50004, Note_on_c, 0, 87, 71
1, 50044, Control_c, 0, 64, 77
1, 50059, Control_c, 0, 64, 73
1, 50074, Note_off_c, 0, 87, 59
1, 50074, Control_c, 0, 64, 61
1, 50088, Control_c, 0, 64, 0
1, 50112, Note_on_c, 0, 99, 100
1, 50149, Control_c, 0, 64, 25
1, 50163, Control_c, 0, 64, 63
1, 50178, Control_c, 0, 64, 68
1, 50186, Note_off_c, 0, 99, 62
1, 50193, Control_c, 0, 64, 72
1, 50194, Note_on_c, 0, 87, 77
1, 50208, Control_c, 0, 64, 77
1, 50223, Control_c, 0, 64, 83
1, 50237, Control_c, 0, 64, 86
1, 50249, Note_off_c, 0, 87, 60
1, 50252, Control_c, 0, 64, 87
1, 50267, Control_c, 0, 64, 88
1, 50282, Control_c, 0, 64, 89
1, 50297, Control_c, 0, 64, 89
1, 50308, Note_on_c, 0, 75, 63
1, 50311, Control_c, 0, 64, 90
1, 50326, Control_c, 0, 64, 91
1, 50341, Control_c, 0, 64, 92
1, 50360, Note_off_c, 0, 75, 62
1, 50385, Control_c, 0, 64, 92
1, 50391, Note_on_c, 0, 87, 78
1, 50415, Control_c, 0, 64, 93
1, 50456, Note_off_c, 0, 87, 62
1, 50475, Control_c, 0, 64, 93
1, 50490, Note_on_c, 0, 76, 71
1, 50553, Note_off_c, 0, 76, 61
1, 50573, Note_on_c, 0, 88, 78
1, 50636, Note_off_c, 0, 88, 59
1, 50660, Control_c, 0, 64, 93
1, 50674, Control_c, 0, 64, 87
1, 50689, Control_c, 0, 64, 74
1, 50701, Note_on_c, 0, 99, 103
1, 50704, Control_c, 0, 64, 26
1, 50719, Control_c, 0, 64, 0
1, 50749, Control_c, 0, 64, 41
1, 50763, Control_c, 0, 64, 61
1, 50776, Note_on_c, 0, 87, 76
1, 50778, Control_c, 0, 64, 67
1, 50793, Control_c, 0, 64, 72
1, 50794, Note_off_c, 0, 99, 67
1, 50808, Control_c, 0, 64, 78
1, 50823, Control_c, 0, 64, 82
1, 50834, Note_off_c, 0, 87, 61
1, 50837, Control_c, 0, 64, 83
1, 50852, Control_c, 0, 64, 83
1, 50886, Note_on_c, 0, 76, 71
1, 50896, Control_c, 0, 64, 84
1, 50957, Note_off_c, 0, 76, 64
1, 50980, Note_on_c, 0, 88, 80
1, 51032, Note_off_c, 0, 88, 62
1, 51074, Note_on_c, 0, 77, 80
1, 51142, Note_off_c, 0, 77, 62
1, 51166, Note_on_c, 0, 89, 76
1, 51219, Note_off_c, 0, 89, 62
1, 51223, Control_c, 0, 64, 81
1, 51238, Control_c, 0, 64, 72
1, 51253, Control_c, 0, 64, 19
1, 51268, Control_c, 0, 64, 0
1, 51268, Note_on_c, 0, 99, 103
1, 51312, Control_c, 0, 64, 51
1, 51327, Control_c, 0, 64, 65
1, 51342, Control_c, 0, 64, 70
1, 51348, Note_on_c, 0, 87, 81
1, 51357, Control_c, 0, 64, 75
1, 51369, Note_off_c, 0, 99, 65
1, 51371, Control_c, 0, 64, 80
1, 51386, Control_c, 0, 64, 82
1, 51408, Control_c, 0, 64, 83
1, 51412, Note_off_c, 0, 87, 62
1, 51466, Note_on_c, 0, 78, 74
1, 51542, Note_off_c, 0, 78, 63
1, 51560, Note_on_c, 0, 90, 85
1, 51601, Control_c, 0, 64, 79
1, 51616, Control_c, 0, 64, 70
1, 51631, Control_c, 0, 64, 0
1, 51640, Note_off_c, 0, 90, 61
1, 51648, Note_on_c, 0, 99, 102
1, 51660, Control_c, 0, 64, 28
1, 51675, Control_c, 0, 64, 61
1, 51690, Control_c, 0, 64, 66
1, 51704, Control_c, 0, 64, 70
1, 51719, Control_c, 0, 64, 76
1, 51736, Control_c, 0, 64, 81
1, 51742, Note_on_c, 0, 87, 81
1, 51750, Control_c, 0, 64, 82
1, 51756, Note_off_c, 0, 99, 62
1, 51798, Note_off_c, 0, 87, 62
1, 51839, Note_on_c, 0, 79, 79
1, 51906, Note_off_c, 0, 79, 65
1, 51923, Note_on_c, 0, 91, 83
1, 51957, Control_c, 0, 64, 80
1, 51972, Control_c, 0, 64, 73
1, 51973, Note_off_c, 0, 91, 58
1, 51987, Control_c, 0, 64, 57
1, 52001, Control_c, 0, 64, 0
1, 52011, Note_on_c, 0, 99, 98
1, 52016, Control_c, 0, 64, 39
1, 52031, Control_c, 0, 64, 61
1, 52046, Control_c, 0, 64, 66
1, 52061, Control_c, 0, 64, 70
1, 52075, Control_c, 0, 64, 75
1, 52090, Control_c, 0, 64, 81
1, 52105, Control_c, 0, 64, 83
1, 52106, Note_on_c, 0, 87, 79
1, 52114, Note_off_c, 0, 99, 56
1, 52120, Control_c, 0, 64, 84
1, 52165, Note_off_c, 0, 87, 61
1, 52214, Note_on_c, 0, 80, 77
1, 52284, Note_off_c, 0, 80, 62
1, 52305, Note_on_c, 0, 92, 75
1, 52320, Control_c, 0, 64, 83
1, 52334, Control_c, 0, 64, 77
1, 52344, Note_off_c, 0, 92, 61
1, 52349, Control_c, 0, 64, 64
1, 52349, Control_c, 0, 67, 14
1, 52364, Control_c, 0, 64, 0
1, 52364, Control_c, 0, 67, 30
1, 52379, Control_c, 0, 67, 58
1, 52385, Note_on_c, 0, 99, 81
1, 52394, Control_c, 0, 64, 32
1, 52394, Control_c, 0, 67, 99
1, 52408, Control_c, 0, 64, 61
1, 52408, Control_c, 0, 67, 127
1, 52423, Control_c, 0, 64, 66
1, 52430, Note_off_c, 0, 99, 67
1, 52438, Control_c, 0, 64, 72
1, 52452, Control_c, 0, 64, 79
1, 52467, Control_c, 0, 64, 83
1, 52481, Note_on_c, 0, 81, 78
1, 52482, Control_c, 0, 64, 83
1, 52518, Note_off_c, 0, 81, 61
1, 52579, Note_on_c, 0, 99, 89
1, 52622, Note_off_c, 0, 99, 68
1, 52668, Note_on_c, 0, 82, 85
1, 52717, Note_off_c, 0, 82, 63
1, 52774, Note_on_c, 0, 99, 84
1, 52818, Note_off_c, 0, 99, 67
1, 52865, Note_on_c, 0, 83, 82
1, 52916, Note_off_c, 0, 83, 60
1, 52969, Note_on_c, 0, 99, 90
1, 52995, Control_c, 0, 64, 84
1, 53033, Note_off_c, 0, 99, 68
1, 53054, Control_c, 0, 64, 84
1, 53063, Note_on_c, 0, 84, 83
1, 53104, Note_off_c, 0, 84, 68
1, 53155, Note_on_c, 0, 99, 86
1, 53172, Control_c, 0, 64, 85
1, 53202, Control_c, 0, 64, 85
1, 53217, Control_c, 0, 64, 86
1, 53232, Control_c, 0, 64, 86
1, 53234, Note_off_c, 0, 99, 60
1, 53238, Note_on_c, 0, 85, 86
1, 53247, Control_c, 0, 64, 87
1, 53262, Control_c, 0, 64, 87
1, 53276, Control_c, 0, 64, 88
1, 53291, Control_c, 0, 64, 88
1, 53321, Note_off_c, 0, 85, 64
1, 53337, Note_on_c, 0, 99, 92
1, 53381, Control_c, 0, 64, 89
1, 53438, Note_on_c, 0, 86, 84
1, 53439, Note_off_c, 0, 99, 62
1, 53455, Control_c, 0, 64, 88
1, 53473, Note_on_c, 0, 92, 22
1, 53519, Note_off_c, 0, 92, 28
1, 53543, Note_off_c, 0, 86, 62
1, 53550, Note_on_c, 0, 99, 94
1, 53559, Control_c, 0, 64, 87
1, 53573, Control_c, 0, 64, 81
1, 53588, Control_c, 0, 64, 69
1, 53603, Control_c, 0, 64, 0
1, 53676, Note_on_c, 0, 87, 90
1, 53700, Control_c, 0, 64, 34
1, 53702, Note_off_c, 0, 99, 68
1, 53714, Control_c, 0, 64, 56
1, 53729, Control_c, 0, 64, 63
1, 53744, Control_c, 0, 64, 67
1, 53759, Control_c, 0, 64, 72
1, 53773, Control_c, 0, 64, 77
1, 53778, Note_on_c, 0, 99, 92
1, 53788, Control_c, 0, 64, 80
1, 53789, Note_off_c, 0, 87, 60
1, 53803, Control_c, 0, 64, 81
1, 53818, Control_c, 0, 64, 82
1, 53833, Control_c, 0, 64, 83
1, 53847, Control_c, 0, 64, 85
1, 53862, Control_c, 0, 64, 87
1, 53877, Control_c, 0, 64, 88
1, 53880, Note_on_c, 0, 87, 87
1, 53892, Control_c, 0, 64, 89
1, 53895, Note_off_c, 0, 99, 67
1, 53906, Control_c, 0, 64, 90
1, 53921, Control_c, 0, 64, 91
1, 53936, Control_c, 0, 64, 92
1, 53951, Control_c, 0, 64, 92
1, 53953, Note_off_c, 0, 87, 61
1, 53966, Control_c, 0, 64, 93
1, 53980, Note_on_c, 0, 99, 77
1, 53980, Control_c, 0, 64, 93
1, 54010, Control_c, 0, 64, 94
1, 54049, Note_off_c, 0, 99, 67
1, 54072, Note_on_c, 0, 87, 71
1, 54085, Control_c, 0, 64, 94
1, 54132, Note_off_c, 0, 87, 62
1, 54173, Note_on_c, 0, 99, 67
1, 54234, Control_c, 0, 64, 95
1, 54234, Note_off_c, 0, 99, 64
1, 54263, Control_c, 0, 64, 95
1, 54266, Note_on_c, 0, 87, 63
1, 54293, Control_c, 0, 64, 96
1, 54319, Note_off_c, 0, 87, 61
1, 54322, Control_c, 0, 64, 96
1, 54360, Note_on_c, 0, 99, 61
1, 54382, Control_c, 0, 64, 97
1, 54415, Note_off_c, 0, 99, 61
1, 54458, Note_on_c, 0, 87, 61
1, 54508, Note_off_c, 0, 87, 57
1, 54547, Note_on_c, 0, 99, 57
1, 54616, Note_off_c, 0, 99, 63
1, 54653, Note_on_c, 0, 87, 49
1, 54731, Note_off_c, 0, 87, 54
1, 54740, Note_on_c, 0, 99, 55
1, 54761, Note_off_c, 0, 99, 65
1, 54965, Note_on_c, 0, 75, 60
1, 55014, Note_off_c, 0, 75, 56
1, 55059, Note_on_c, 0, 87, 65
1, 55089, Note_off_c, 0, 87, 65
1, 55177, Note_on_c, 0, 99, 70
1, 55201, Note_off_c, 0, 99, 72
1, 55277, Note_on_c, 0, 87, 61
1, 55338, Note_off_c, 0, 87, 62
1, 55387, Note_on_c, 0, 75, 54
1, 55422, Note_off_c, 0, 75, 55
1, 55467, Note_on_c, 0, 87, 64
1, 55495, Note_off_c, 0, 87, 67
1, 55583, Note_on_c, 0, 97, 49
1, 55605, Note_off_c, 0, 97, 54
1, 55776, Note_on_c, 0, 63, 60
1, 55812, Note_on_c, 0, 75, 28
1, 55846, Note_off_c, 0, 75, 53
1, 55879, Note_on_c, 0, 87, 59
1, 55918, Note_off_c, 0, 87, 65
1, 55969, Note_off_c, 0, 63, 39
1, 56013, Note_on_c, 0, 99, 58
1, 56018, Note_on_c, 0, 75, 76
1, 56034, Note_off_c, 0, 99, 64
1, 56074, Note_off_c, 0, 75, 62
1, 56139, Note_on_c, 0, 87, 47
1, 56168, Note_off_c, 0, 87, 53
1, 56240, Note_on_c, 0, 75, 61
1, 56274, Note_off_c, 0, 75, 62
1, 56323, Note_on_c, 0, 87, 57
1, 56355, Note_off_c, 0, 87, 66
1, 56431, Note_on_c, 0, 73, 73
1, 56445, Note_on_c, 0, 99, 59
1, 56454, Note_off_c, 0, 73, 69
1, 56465, Control_c, 0, 64, 96
1, 56472, Note_off_c, 0, 99, 67
1, 56494, Control_c, 0, 64, 96
1, 56509, Control_c, 0, 64, 95
1, 56525, Control_c, 0, 64, 94
1, 56540, Control_c, 0, 64, 94
1, 56555, Control_c, 0, 64, 93
1, 56566, Note_on_c, 0, 87, 50
1, 56570, Control_c, 0, 64, 93
1, 56585, Control_c, 0, 64, 92
1, 56599, Note_off_c, 0, 87, 47
1, 56599, Control_c, 0, 64, 92
1, 56614, Control_c, 0, 64, 87
1, 56629, Control_c, 0, 64, 74
1, 56651, Control_c, 0, 64, 0
1, 56699, Note_on_c, 0, 56, 55
1, 56709, Note_on_c, 0, 71, 57
1, 56711, Control_c, 0, 64, 48
1, 56725, Control_c, 0, 64, 65
1, 56739, Control_c, 0, 64, 72
1, 56754, Control_c, 0, 64, 79
1, 56759, Note_on_c, 0, 75, 24
1, 56769, Control_c, 0, 64, 83
1, 56772, Note_off_c, 0, 56, 62
1, 56784, Control_c, 0, 64, 84
1, 56797, Note_off_c, 0, 75, 39
1, 56797, Note_off_c, 0, 71, 29
1, 56800, Note_on_c, 0, 87, 57
1, 56825, Note_off_c, 0, 87, 61
1, 56843, Control_c, 0, 64, 84
1, 56872, Control_c, 0, 64, 85
1, 56924, Note_on_c, 0, 99, 57
1, 56925, Note_on_c, 0, 71, 63
1, 56931, Control_c, 0, 64, 85
1, 56945, Note_off_c, 0, 99, 64
1, 56976, Note_off_c, 0, 71, 52
1, 57034, Note_on_c, 0, 87, 55
1, 57077, Note_off_c, 0, 87, 60
1, 57127, Note_on_c, 0, 70, 75
1, 57156, Note_off_c, 0, 70, 66
1, 57169, Note_on_c, 0, 75, 26
1, 57197, Note_off_c, 0, 75, 44
1, 57216, Note_on_c, 0, 87, 59
1, 57250, Note_off_c, 0, 87, 65
1, 57272, Control_c, 0, 64, 85
1, 57287, Control_c, 0, 64, 84
1, 57302, Control_c, 0, 64, 78
1, 57318, Control_c, 0, 64, 66
1, 57333, Control_c, 0, 64, 0
1, 57345, Note_on_c, 0, 68, 77
1, 57348, Note_on_c, 0, 59, 51
1, 57348, Note_on_c, 0, 99, 61
1, 57367, Note_off_c, 0, 99, 67
1, 57414, Control_c, 0, 64, 60
1, 57429, Control_c, 0, 64, 66
1, 57444, Control_c, 0, 64, 70
1, 57458, Note_off_c, 0, 68, 57
1, 57459, Control_c, 0, 64, 75
1, 57462, Note_off_c, 0, 59, 60
1, 57468, Note_on_c, 0, 87, 51
1, 57474, Control_c, 0, 64, 78
1, 57488, Control_c, 0, 64, 81
1, 57502, Control_c, 0, 64, 82
1, 57512, Note_off_c, 0, 87, 63
1, 57517, Control_c, 0, 64, 82
1, 57532, Control_c, 0, 64, 83
1, 57546, Control_c, 0, 64, 85
1, 57556, Note_on_c, 0, 67, 81
1, 57561, Control_c, 0, 64, 87
1, 57576, Control_c, 0, 64, 88
1, 57591, Control_c, 0, 64, 89
1, 57602, Note_on_c, 0, 75, 27
1, 57606, Control_c, 0, 64, 89
1, 57628, Note_off_c, 0, 75, 48
1, 57635, Control_c, 0, 64, 90
1, 57650, Control_c, 0, 64, 90
1, 57656, Note_on_c, 0, 87, 56
1, 57665, Control_c, 0, 64, 91
1, 57680, Control_c, 0, 64, 93
1, 57686, Note_off_c, 0, 87, 64
1, 57694, Control_c, 0, 64, 95
1, 57709, Control_c, 0, 64, 98
1, 57724, Control_c, 0, 64, 101
1, 57739, Control_c, 0, 64, 103
1, 57752, Note_off_c, 0, 67, 59
1, 57754, Control_c, 0, 64, 105
1, 57758, Note_on_c, 0, 68, 79
1, 57769, Control_c, 0, 64, 107
1, 57781, Note_on_c, 0, 99, 59
1, 57784, Control_c, 0, 64, 110
1, 57799, Control_c, 0, 64, 112
1, 57801, Note_off_c, 0, 99, 65
1, 57813, Control_c, 0, 64, 112
1, 57835, Note_off_c, 0, 68, 57
1, 57898, Note_on_c, 0, 87, 58
1, 57902, Control_c, 0, 64, 112
1, 57936, Note_off_c, 0, 87, 56
1, 57946, Control_c, 0, 64, 111
1, 57961, Control_c, 0, 64, 111
1, 57976, Control_c, 0, 64, 107
1, 57991, Control_c, 0, 64, 98
1, 58006, Control_c, 0, 64, 84
1, 58020, Control_c, 0, 64, 65
1, 58026, Note_on_c, 0, 67, 60
1, 58035, Note_on_c, 0, 70, 68
1, 58035, Control_c, 0, 64, 0
1, 58066, Note_on_c, 0, 75, 38
1, 58091, Note_off_c, 0, 75, 57
1, 58094, Control_c, 0, 64, 57
1, 58110, Control_c, 0, 64, 65
1, 58125, Control_c, 0, 64, 70
1, 58141, Note_on_c, 0, 87, 54
1, 58148, Control_c, 0, 64, 75
1, 58162, Control_c, 0, 64, 79
1, 58174, Note_off_c, 0, 87, 65
1, 58177, Control_c, 0, 64, 82
1, 58192, Control_c, 0, 64, 83
1, 58207, Control_c, 0, 64, 84
1, 58216, Note_off_c, 0, 67, 55
1, 58222, Control_c, 0, 64, 85
1, 58228, Note_off_c, 0, 70, 46
1, 58237, Control_c, 0, 64, 86
1, 58251, Note_on_c, 0, 63, 63
1, 58251, Control_c, 0, 64, 87
1, 58261, Note_on_c, 0, 99, 61
1, 58266, Control_c, 0, 64, 87
1, 58281, Note_off_c, 0, 99, 65
1, 58295, Control_c, 0, 64, 88
1, 58324, Note_off_c, 0, 63, 64
1, 58325, Control_c, 0, 64, 88
1, 58368, Note_on_c, 0, 87, 59
1, 58422, Note_off_c, 0, 87, 57
1, 58465, Note_on_c, 0, 63, 73
1, 58490, Note_on_c, 0, 75, 46
1, 58517, Note_off_c, 0, 75, 58
1, 58527, Note_off_c, 0, 63, 64
1, 58552, Note_on_c, 0, 87, 61
1, 58583, Note_off_c, 0, 87, 65
1, 58592, Control_c, 0, 64, 88
1, 58622, Control_c, 0, 64, 86
1, 58636, Control_c, 0, 64, 78
1, 58651, Control_c, 0, 64, 60
1, 58655, Note_on_c, 0, 64, 75
1, 58663, Note_on_c, 0, 55, 63
1, 58666, Control_c, 0, 64, 0
1, 58673, Note_on_c, 0, 99, 68
1, 58691, Note_off_c, 0, 99, 68
1, 58725, Control_c, 0, 64, 57
1, 58738, Note_off_c, 0, 55, 55
1, 58740, Control_c, 0, 64, 66
1, 58755, Control_c, 0, 64, 71
1, 58769, Control_c, 0, 64, 76
1, 58773, Note_off_c, 0, 64, 54
1, 58784, Control_c, 0, 64, 81
1, 58791, Note_on_c, 0, 87, 56
1, 58799, Control_c, 0, 64, 83
1, 58814, Control_c, 0, 64, 83
1, 58829, Control_c, 0, 64, 84
1, 58836, Note_off_c, 0, 87, 53
1, 58843, Control_c, 0, 64, 84
1, 58858, Control_c, 0, 64, 85
1, 58873, Control_c, 0, 64, 86
1, 58875, Note_on_c, 0, 63, 77
1, 58895, Control_c, 0, 64, 87
1, 58910, Control_c, 0, 64, 87
1, 58921, Note_on_c, 0, 75, 34
1, 58926, Control_c, 0, 64, 88
1, 58950, Note_off_c, 0, 75, 52
1, 58976, Note_on_c, 0, 87, 59
1, 59009, Note_off_c, 0, 87, 65
1, 59014, Control_c, 0, 64, 88
1, 59018, Note_off_c, 0, 63, 57
1, 59082, Note_on_c, 0, 61, 76
1, 59095, Note_on_c, 0, 99, 69
1, 59119, Note_off_c, 0, 99, 72
1, 59143, Note_off_c, 0, 61, 62
1, 59244, Note_on_c, 0, 87, 27
1, 59251, Control_c, 0, 64, 87
1, 59265, Control_c, 0, 64, 79
1, 59277, Note_off_c, 0, 87, 44
1, 59280, Control_c, 0, 64, 65
1, 59295, Control_c, 0, 64, 0
1, 59300, Note_on_c, 0, 59, 66
1, 59303, Note_on_c, 0, 56, 65
1, 59350, Note_on_c, 0, 75, 33
1, 59355, Control_c, 0, 64, 47
1, 59370, Control_c, 0, 64, 64
1, 59376, Note_off_c, 0, 75, 55
1, 59384, Control_c, 0, 64, 68
1, 59399, Note_on_c, 0, 87, 50
1, 59399, Control_c, 0, 64, 73
1, 59414, Control_c, 0, 64, 78
1, 59423, Note_off_c, 0, 56, 57
1, 59425, Note_off_c, 0, 59, 57
1, 59429, Control_c, 0, 64, 80
1, 59437, Note_off_c, 0, 87, 65
1, 59443, Control_c, 0, 64, 81
1, 59458, Control_c, 0, 64, 82
1, 59473, Control_c, 0, 64, 82
1, 59488, Control_c, 0, 64, 84
1, 59503, Control_c, 0, 64, 85
1, 59517, Control_c, 0, 64, 87
1, 59523, Note_on_c, 0, 99, 65
1, 59532, Control_c, 0, 64, 87
1, 59540, Note_on_c, 0, 59, 64
1, 59547, Control_c, 0, 64, 88
1, 59551, Note_on_c, 0, 56, 55
1, 59551, Note_off_c, 0, 99, 70
1, 59562, Control_c, 0, 64, 88
1, 59599, Note_off_c, 0, 59, 42
1, 59601, Note_off_c, 0, 56, 53
1, 59646, Note_on_c, 0, 87, 59
1, 59704, Note_off_c, 0, 87, 58
1, 59727, Note_on_c, 0, 58, 72
1, 59767, Note_on_c, 0, 75, 53
1, 59773, Note_off_c, 0, 58, 63
1, 59796, Note_off_c, 0, 75, 60
1, 59834, Note_on_c, 0, 87, 60
1, 59865, Note_off_c, 0, 87, 67
1, 59868, Control_c, 0, 64, 88
1, 59882, Control_c, 0, 64, 84
1, 59897, Control_c, 0, 64, 72
1, 59912, Control_c, 0, 64, 0
1, 59934, Note_on_c, 0, 56, 69
1, 59950, Note_on_c, 0, 52, 52
1, 59971, Control_c, 0, 64, 16
1, 59986, Control_c, 0, 64, 63
1, 59999, Note_off_c, 0, 52, 62
1, 60001, Control_c, 0, 64, 68
1, 60015, Control_c, 0, 64, 74
1, 60028, Note_off_c, 0, 56, 59
1, 60030, Control_c, 0, 64, 80
1, 60045, Control_c, 0, 64, 84
1, 60060, Control_c, 0, 64, 84
1, 60067, Note_on_c, 0, 87, 59
1, 60075, Control_c, 0, 64, 85
1, 60090, Control_c, 0, 64, 86
1, 60105, Control_c, 0, 64, 86
1, 60108, Note_off_c, 0, 87, 58
1, 60120, Control_c, 0, 64, 87
1, 60135, Control_c, 0, 64, 87
1, 60139, Note_on_c, 0, 55, 68
1, 60149, Control_c, 0, 64, 88
1, 60179, Control_c, 0, 64, 88
1, 60185, Note_on_c, 0, 75, 42
1, 60194, Control_c, 0, 64, 89
1, 60208, Note_off_c, 0, 75, 60
1, 60223, Control_c, 0, 64, 89
1, 60231, Note_off_c, 0, 55, 54
1, 60244, Note_on_c, 0, 87, 60
1, 60276, Note_off_c, 0, 87, 65
1, 60349, Note_on_c, 0, 56, 73
1, 60356, Note_on_c, 0, 99, 66
1, 60390, Note_off_c, 0, 99, 66
1, 60462, Note_off_c, 0, 56, 56
1, 60482, Note_on_c, 0, 87, 52
1, 60526, Note_off_c, 0, 87, 58
1, 60528, Control_c, 0, 64, 88
1, 60543, Control_c, 0, 64, 82
1, 60558, Control_c, 0, 64, 70
1, 60562, Note_on_c, 0, 58, 68
1, 60572, Control_c, 0, 64, 0
1, 60573, Note_on_c, 0, 55, 57
1, 60602, Note_on_c, 0, 75, 52
1, 60635, Note_off_c, 0, 75, 59
1, 60661, Control_c, 0, 64, 53
1, 60676, Control_c, 0, 64, 65
1, 60681, Note_on_c, 0, 87, 54
1, 60690, Control_c, 0, 64, 71
1, 60704, Note_off_c, 0, 87, 64
1, 60705, Control_c, 0, 64, 77
1, 60720, Control_c, 0, 64, 82
1, 60735, Control_c, 0, 64, 85
1, 60750, Control_c, 0, 64, 87
1, 60765, Control_c, 0, 64, 89
1, 60780, Control_c, 0, 64, 90
1, 60788, Note_on_c, 0, 99, 69
1, 60795, Control_c, 0, 64, 92
1, 60798, Note_on_c, 0, 51, 61
1, 60800, Note_off_c, 0, 58, 62
1, 60809, Control_c, 0, 64, 93
1, 60815, Note_off_c, 0, 99, 72
1, 60816, Note_off_c, 0, 55, 57
1, 60824, Control_c, 0, 64, 94
1, 60839, Control_c, 0, 64, 94
1, 60839, Note_off_c, 0, 51, 61
1, 60914, Note_on_c, 0, 87, 54
1, 60953, Note_off_c, 0, 87, 63
1, 61004, Note_on_c, 0, 75, 57
1, 61042, Note_off_c, 0, 75, 64
1, 61081, Note_on_c, 0, 63, 70
1, 61095, Note_on_c, 0, 87, 57
1, 61117, Note_off_c, 0, 87, 64
1, 61143, Control_c, 0, 64, 95
1, 61187, Note_off_c, 0, 63, 63
1, 61187, Control_c, 0, 64, 95
1, 61200, Note_on_c, 0, 75, 87
1, 61202, Control_c, 0, 64, 96
1, 61209, Note_on_c, 0, 99, 70
1, 61217, Control_c, 0, 64, 96
1, 61232, Control_c, 0, 64, 97
1, 61235, Note_off_c, 0, 99, 72
1, 61246, Control_c, 0, 64, 98
1, 61254, Note_off_c, 0, 75, 64
1, 61276, Control_c, 0, 64, 98
1, 61290, Control_c, 0, 64, 99
1, 61321, Control_c, 0, 64, 99
1, 61422, Note_on_c, 0, 75, 73
1, 61475, Note_off_c, 0, 75, 64
1, 61513, Note_on_c, 0, 87, 57
1, 61533, Note_off_c, 0, 87, 64
1, 61613, Note_on_c, 0, 73, 74
1, 61619, Note_on_c, 0, 99, 74
1, 61636, Note_off_c, 0, 73, 69
1, 61647, Note_off_c, 0, 99, 70
1, 61677, Control_c, 0, 64, 99
1, 61706, Control_c, 0, 64, 98
1, 61721, Control_c, 0, 64, 98
1, 61736, Control_c, 0, 64, 97
1, 61751, Control_c, 0, 64, 90
1, 61754, Note_on_c, 0, 56, 65
1, 61766, Control_c, 0, 64, 77
1, 61775, Note_on_c, 0, 87, 35
1, 61780, Control_c, 0, 64, 44
1, 61795, Control_c, 0, 64, 0
1, 61803, Note_off_c, 0, 87, 49
1, 61820, Note_off_c, 0, 56, 60
1, 61825, Control_c, 0, 64, 41
1, 61839, Control_c, 0, 64, 62
1, 61854, Control_c, 0, 64, 68
1, 61868, Note_on_c, 0, 71, 59
1, 61869, Control_c, 0, 64, 74
1, 61874, Note_on_c, 0, 72, 53
1, 61875, Note_on_c, 0, 75, 58
1, 61892, Control_c, 0, 64, 82
1, 61901, Note_off_c, 0, 72, 60
1, 61906, Control_c, 0, 64, 87
1, 61914, Note_off_c, 0, 75, 64
1, 61921, Control_c, 0, 64, 87
1, 61935, Note_off_c, 0, 71, 53
1, 61953, Note_on_c, 0, 87, 52
1, 61980, Note_off_c, 0, 87, 64
1, 61981, Control_c, 0, 64, 88
1, 61995, Control_c, 0, 64, 88
1, 62064, Note_on_c, 0, 99, 66
1, 62075, Note_on_c, 0, 71, 66
1, 62092, Note_off_c, 0, 99, 71
1, 62099, Control_c, 0, 64, 89
1, 62150, Note_off_c, 0, 71, 51
1, 62178, Note_on_c, 0, 87, 58
1, 62237, Note_off_c, 0, 87, 62
1, 62282, Note_on_c, 0, 70, 77
1, 62290, Note_on_c, 0, 75, 63
1, 62304, Note_off_c, 0, 70, 70
1, 62324, Note_off_c, 0, 75, 60
1, 62368, Note_on_c, 0, 87, 58
1, 62394, Note_off_c, 0, 87, 64
1, 62426, Control_c, 0, 64, 88
1, 62441, Control_c, 0, 64, 83
1, 62455, Control_c, 0, 64, 71
1, 62470, Control_c, 0, 64, 0
1, 62483, Note_on_c, 0, 59, 56
1, 62487, Note_on_c, 0, 68, 75
1, 62487, Note_on_c, 0, 99, 59
1, 62508, Note_off_c, 0, 99, 65
1, 62529, Control_c, 0, 64, 53
1, 62544, Control_c, 0, 64, 66
1, 62559, Control_c, 0, 64, 71
1, 62574, Control_c, 0, 64, 79
1, 62577, Note_off_c, 0, 59, 59
1, 62583, Note_off_c, 0, 68, 55
1, 62589, Control_c, 0, 64, 84
1, 62600, Note_on_c, 0, 87, 57
1, 62604, Control_c, 0, 64, 86
1, 62619, Control_c, 0, 64, 86
1, 62641, Control_c, 0, 64, 87
1, 62650, Note_off_c, 0, 87, 57
1, 62656, Control_c, 0, 64, 88
1, 62670, Control_c, 0, 64, 89
1, 62685, Control_c, 0, 64, 90
1, 62699, Note_on_c, 0, 67, 79
1, 62700, Control_c, 0, 64, 90
1, 62715, Control_c, 0, 64, 91
1, 62719, Note_on_c, 0, 75, 59
1, 62730, Control_c, 0, 64, 91
1, 62743, Note_off_c, 0, 75, 66
1, 62759, Control_c, 0, 64, 92
1, 62789, Note_on_c, 0, 87, 50
1, 62810, Note_off_c, 0, 87, 60
1, 62871, Note_off_c, 0, 67, 60
1, 62888, Note_on_c, 0, 68, 71
1, 62888, Note_on_c, 0, 99, 55
1, 62913, Note_off_c, 0, 99, 58
1, 62959, Note_off_c, 0, 68, 58
1, 63003, Note_on_c, 0, 87, 55
1, 63015, Note_on_c, 0, 67, 61
1, 63047, Note_off_c, 0, 87, 54
1, 63072, Control_c, 0, 64, 90
1, 63086, Control_c, 0, 64, 83
1, 63101, Control_c, 0, 64, 68
1, 63103, Note_on_c, 0, 70, 70
1, 63116, Control_c, 0, 64, 0
1, 63120, Note_on_c, 0, 75, 59
1, 63173, Note_off_c, 0, 75, 62
1, 63175, Control_c, 0, 64, 51
1, 63187, Note_off_c, 0, 70, 56
1, 63190, Control_c, 0, 64, 65
1, 63205, Note_on_c, 0, 87, 63
1, 63205, Control_c, 0, 64, 70
1, 63220, Control_c, 0, 64, 76
1, 63234, Control_c, 0, 64, 82
1, 63235, Note_off_c, 0, 87, 65
1, 63249, Control_c, 0, 64, 84
1, 63252, Note_off_c, 0, 67, 30
1, 63264, Control_c, 0, 64, 85
1, 63278, Control_c, 0, 64, 86
1, 63287, Note_on_c, 0, 63, 60
1, 63293, Control_c, 0, 64, 88
1, 63308, Control_c, 0, 64, 89
1, 63318, Note_on_c, 0, 99, 69
1, 63323, Control_c, 0, 64, 91
1, 63331, Note_off_c, 0, 63, 59
1, 63338, Control_c, 0, 64, 93
1, 63345, Note_off_c, 0, 99, 71
1, 63352, Control_c, 0, 64, 94
1, 63367, Control_c, 0, 64, 94
1, 63390, Control_c, 0, 64, 95
1, 63405, Control_c, 0, 64, 96
1, 63420, Control_c, 0, 64, 97
1, 63430, Note_on_c, 0, 87, 56
1, 63434, Control_c, 0, 64, 97
1, 63464, Control_c, 0, 64, 98
1, 63493, Note_off_c, 0, 87, 57
1, 63508, Note_on_c, 0, 63, 64
1, 63534, Note_on_c, 0, 75, 72
1, 63564, Note_off_c, 0, 63, 56
1, 63588, Note_off_c, 0, 75, 62
1, 63627, Note_on_c, 0, 87, 52
1, 63660, Note_off_c, 0, 87, 46
1, 63686, Control_c, 0, 64, 97
1, 63701, Control_c, 0, 64, 90
1, 63716, Control_c, 0, 64, 75
1, 63719, Note_on_c, 0, 61, 49
1, 63722, Note_on_c, 0, 70, 52
1, 63728, Note_on_c, 0, 68, 56
1, 63729, Note_on_c, 0, 76, 71
1, 63731, Control_c, 0, 64, 0
1, 63743, Note_off_c, 0, 70, 59
1, 63753, Note_off_c, 0, 76, 69
1, 63755, Note_off_c, 0, 61, 48
1, 63764, Note_off_c, 0, 68, 57
1, 63817, Note_on_c, 0, 92, 78
1, 63845, Note_off_c, 0, 92, 63
1, 63913, Note_on_c, 0, 75, 84
1, 63916, Note_on_c, 0, 70, 60
1, 63917, Note_on_c, 0, 68, 55
1, 63926, Note_on_c, 0, 63, 31
1, 63947, Note_off_c, 0, 70, 65
1, 63958, Note_off_c, 0, 63, 49
1, 63959, Note_off_c, 0, 75, 62
1, 63972, Note_off_c, 0, 68, 56
1, 64017, Note_on_c, 0, 92, 75
1, 64041, Note_off_c, 0, 92, 69
1, 64103, Note_on_c, 0, 70, 69
1, 64111, Note_on_c, 0, 73, 83
1, 64115, Note_on_c, 0, 68, 47
1, 64148, Note_off_c, 0, 70, 56
1, 64157, Note_off_c, 0, 68, 52
1, 64157, Note_off_c, 0, 73, 64
1, 64226, Note_on_c, 0, 92, 75
1, 64248, Note_off_c, 0, 92, 69
1, 64336, Note_on_c, 0, 68, 48
1, 64341, Note_on_c, 0, 71, 50
1, 64342, Note_on_c, 0, 75, 71
1, 64345, Note_on_c, 0, 63, 41
1, 64346, Control_c, 0, 64, 52
1, 64361, Control_c, 0, 64, 67
1, 64376, Control_c, 0, 64, 75
1, 64390, Control_c, 0, 64, 86
1, 64394, Note_off_c, 0, 71, 52
1, 64404, Note_off_c, 0, 75, 62
1, 64405, Control_c, 0, 64, 91
1, 64420, Control_c, 0, 64, 92
1, 64433, Note_on_c, 0, 87, 66
1, 64434, Control_c, 0, 64, 93
1, 64441, Note_off_c, 0, 68, 55
1, 64443, Note_off_c, 0, 63, 54
1, 64449, Control_c, 0, 64, 95
1, 64464, Control_c, 0, 64, 96
1, 64479, Control_c, 0, 64, 97
1, 64526, Note_off_c, 0, 87, 57
1, 64531, Note_on_c, 0, 80, 69
1, 64631, Note_off_c, 0, 80, 63
1, 64632, Note_on_c, 0, 83, 60
1, 64643, Control_c, 0, 64, 95
1, 64655, Note_off_c, 0, 83, 63
1, 64658, Control_c, 0, 64, 91
1, 64673, Control_c, 0, 64, 82
1, 64688, Control_c, 0, 64, 71
1, 64703, Control_c, 0, 64, 0
1, 64751, Note_on_c, 0, 87, 60
1, 64786, Note_off_c, 0, 87, 60
1, 64848, Note_on_c, 0, 99, 65
1, 64885, Note_off_c, 0, 99, 69
1, 64962, Control_c, 0, 64, 56
1, 64971, Note_on_c, 0, 63, 41
1, 64971, Note_on_c, 0, 67, 43
1, 64977, Note_on_c, 0, 73, 44
1, 64977, Control_c, 0, 64, 67
1, 64992, Control_c, 0, 64, 73
1, 65006, Control_c, 0, 64, 81
1, 65016, Note_on_c, 0, 75, 57
1, 65021, Control_c, 0, 64, 85
1, 65036, Control_c, 0, 64, 87
1, 65051, Control_c, 0, 64, 89
1, 65061, Note_off_c, 0, 75, 57
1, 65065, Control_c, 0, 64, 91
1, 65076, Note_off_c, 0, 73, 61
1, 65080, Control_c, 0, 64, 93
1, 65095, Control_c, 0, 64, 95
1, 65110, Control_c, 0, 64, 96
1, 65111, Note_on_c, 0, 87, 56
1, 65125, Control_c, 0, 64, 97
1, 65134, Note_off_c, 0, 63, 43
1, 65167, Note_off_c, 0, 67, 45
1, 65197, Note_off_c, 0, 87, 51
1, 65217, Note_on_c, 0, 79, 53
1, 65316, Note_off_c, 0, 79, 60
1, 65324, Note_on_c, 0, 82, 64
1, 65348, Control_c, 0, 64, 96
1, 65352, Note_off_c, 0, 82, 66
1, 65362, Control_c, 0, 64, 93
1, 65377, Control_c, 0, 64, 87
1, 65392, Control_c, 0, 64, 77
1, 65407, Control_c, 0, 64, 62
1, 65422, Control_c, 0, 64, 0
1, 65457, Note_on_c, 0, 87, 62
1, 65487, Note_off_c, 0, 87, 65
1, 65618, Note_on_c, 0, 99, 54
1, 65679, Note_off_c, 0, 99, 58
1, 65782, Note_on_c, 0, 56, 44
1, 65785, Control_c, 0, 64, 48
1, 65800, Control_c, 0, 64, 64
1, 65814, Control_c, 0, 64, 69
1, 65829, Control_c, 0, 64, 75
1, 65844, Control_c, 0, 64, 81
1, 65859, Control_c, 0, 64, 84
1, 65873, Note_off_c, 0, 56, 53
1, 65874, Control_c, 0, 64, 85
1, 65888, Control_c, 0, 64, 86
1, 65903, Control_c, 0, 64, 87
1, 65907, Note_on_c, 0, 63, 44
1, 65918, Control_c, 0, 64, 87
1, 65933, Control_c, 0, 64, 88
1, 65948, Control_c, 0, 64, 88
1, 65962, Control_c, 0, 64, 89
1, 65977, Control_c, 0, 64, 89
1, 65981, Note_off_c, 0, 63, 56
1, 65992, Control_c, 0, 64, 90
1, 66006, Control_c, 0, 64, 90
1, 66034, Note_on_c, 0, 71, 48
1, 66077, Note_off_c, 0, 71, 62
1, 66080, Control_c, 0, 64, 91
1, 66126, Control_c, 0, 64, 91
1, 66141, Control_c, 0, 64, 92
1, 66156, Control_c, 0, 64, 93
1, 66171, Control_c, 0, 64, 94
1, 66185, Note_on_c, 0, 80, 58
1, 66185, Control_c, 0, 64, 95
1, 66200, Control_c, 0, 64, 96
1, 66203, Note_off_c, 0, 80, 64
1, 66215, Control_c, 0, 64, 97
1, 66230, Control_c, 0, 64, 98
1, 66245, Control_c, 0, 64, 99
1, 66259, Control_c, 0, 64, 100
1, 66274, Control_c, 0, 64, 100
1, 66289, Control_c, 0, 64, 101
1, 66300, Note_on_c, 0, 75, 57
1, 66343, Note_off_c, 0, 75, 62
1, 66371, Note_on_c, 0, 87, 69
1, 66424, Note_off_c, 0, 87, 61
1, 66479, Note_on_c, 0, 87, 64
1, 66515, Note_off_c, 0, 87, 58
1, 66558, Note_on_c, 0, 87, 70
1, 66579, Control_c, 0, 64, 101
1, 66595, Note_off_c, 0, 87, 64
1, 66637, Control_c, 0, 64, 102
1, 66647, Note_on_c, 0, 87, 58
1, 66676, Note_off_c, 0, 87, 67
1, 66682, Control_c, 0, 64, 102
1, 66697, Note_on_c, 0, 99, 81
1, 66728, Note_off_c, 0, 99, 64
1, 66741, Control_c, 0, 64, 103
1, 66795, Note_on_c, 0, 87, 77
1, 66816, Control_c, 0, 64, 103
1, 66825, Note_off_c, 0, 87, 56
1, 66860, Control_c, 0, 64, 104
1, 66870, Note_on_c, 0, 87, 65
1, 66875, Control_c, 0, 64, 104
1, 66890, Control_c, 0, 64, 105
1, 66900, Note_off_c, 0, 87, 65
1, 66920, Control_c, 0, 64, 105
1, 66922, Note_on_c, 0, 99, 70
1, 66935, Control_c, 0, 64, 106
1, 66946, Note_off_c, 0, 99, 72
1, 67013, Note_on_c, 0, 85, 75
1, 67039, Note_off_c, 0, 85, 66
1, 67087, Note_on_c, 0, 85, 64
1, 67116, Note_off_c, 0, 85, 66
1, 67150, Note_on_c, 0, 97, 74
1, 67183, Note_off_c, 0, 97, 63
1, 67195, Control_c, 0, 64, 103
1, 67209, Control_c, 0, 64, 94
1, 67221, Note_on_c, 0, 44, 53
1, 67223, Control_c, 0, 64, 79
1, 67238, Control_c, 0, 64, 56
1, 67252, Control_c, 0, 64, 0
1, 67272, Note_on_c, 0, 83, 67
1, 67282, Control_c, 0, 64, 19
1, 67296, Note_off_c, 0, 83, 67
1, 67297, Control_c, 0, 64, 60
1, 67312, Control_c, 0, 64, 67
1, 67320, Note_off_c, 0, 44, 62
1, 67326, Control_c, 0, 64, 73
1, 67341, Control_c, 0, 64, 81
1, 67350, Note_on_c, 0, 83, 66
1, 67356, Control_c, 0, 64, 88
1, 67371, Control_c, 0, 64, 91
1, 67378, Note_off_c, 0, 83, 61
1, 67386, Control_c, 0, 64, 92
1, 67399, Note_on_c, 0, 95, 77
1, 67400, Control_c, 0, 64, 93
1, 67415, Control_c, 0, 64, 95
1, 67415, Control_c, 0, 67, 105
1, 67422, Note_off_c, 0, 95, 69
1, 67430, Control_c, 0, 64, 97
1, 67430, Control_c, 0, 67, 71
1, 67445, Control_c, 0, 64, 99
1, 67445, Control_c, 0, 67, 32
1, 67460, Control_c, 0, 64, 100
1, 67460, Control_c, 0, 67, 0
1, 67475, Control_c, 0, 64, 101
1, 67484, Note_on_c, 0, 51, 48
1, 67488, Note_on_c, 0, 59, 46
1, 67489, Note_on_c, 0, 83, 73
1, 67490, Control_c, 0, 64, 102
1, 67505, Control_c, 0, 64, 103
1, 67510, Note_off_c, 0, 83, 67
1, 67520, Control_c, 0, 64, 104
1, 67524, Note_off_c, 0, 59, 49
1, 67527, Note_off_c, 0, 51, 58
1, 67534, Control_c, 0, 64, 104
1, 67564, Control_c, 0, 64, 105
1, 67568, Note_on_c, 0, 83, 63
1, 67585, Note_off_c, 0, 83, 63
1, 67601, Note_on_c, 0, 95, 79
1, 67627, Note_off_c, 0, 95, 67
1, 67685, Note_on_c, 0, 51, 38
1, 67691, Note_on_c, 0, 82, 80
1, 67697, Note_on_c, 0, 59, 30
1, 67716, Note_off_c, 0, 82, 67
1, 67720, Note_off_c, 0, 51, 55
1, 67731, Note_off_c, 0, 59, 50
1, 67758, Note_on_c, 0, 82, 72
1, 67790, Note_off_c, 0, 82, 64
1, 67813, Note_on_c, 0, 94, 80
1, 67831, Control_c, 0, 64, 104
1, 67838, Note_off_c, 0, 94, 65
1, 67846, Control_c, 0, 64, 98
1, 67861, Control_c, 0, 64, 85
1, 67883, Control_c, 0, 64, 66
1, 67898, Control_c, 0, 64, 0
1, 67907, Note_on_c, 0, 47, 54
1, 67916, Note_on_c, 0, 80, 76
1, 67928, Control_c, 0, 64, 31
1, 67940, Note_off_c, 0, 80, 70
1, 67943, Control_c, 0, 64, 61
1, 67954, Note_off_c, 0, 47, 64
1, 67957, Control_c, 0, 64, 67
1, 67972, Control_c, 0, 64, 72
1, 67984, Note_on_c, 0, 80, 67
1, 67987, Control_c, 0, 64, 79
1, 68002, Control_c, 0, 64, 85
1, 68011, Note_off_c, 0, 80, 64
1, 68017, Control_c, 0, 64, 87
1, 68031, Control_c, 0, 64, 87
1, 68039, Note_on_c, 0, 92, 71
1, 68061, Note_off_c, 0, 92, 71
1, 68075, Control_c, 0, 64, 88
1, 68090, Control_c, 0, 64, 88
1, 68128, Note_on_c, 0, 63, 60
1, 68128, Note_on_c, 0, 79, 74
1, 68130, Note_on_c, 0, 56, 53
1, 68151, Note_off_c, 0, 79, 68
1, 68160, Note_off_c, 0, 63, 60
1, 68166, Note_off_c, 0, 56, 56
1, 68198, Note_on_c, 0, 79, 70
1, 68224, Note_off_c, 0, 79, 65
1, 68247, Note_on_c, 0, 91, 63
1, 68271, Note_off_c, 0, 91, 61
1, 68314, Note_on_c, 0, 80, 80
1, 68338, Note_on_c, 0, 63, 52
1, 68341, Note_off_c, 0, 80, 66
1, 68360, Note_on_c, 0, 56, 21
1, 68361, Note_off_c, 0, 63, 60
1, 68385, Note_on_c, 0, 80, 64
1, 68403, Note_off_c, 0, 56, 40
1, 68413, Note_off_c, 0, 80, 63
1, 68435, Note_on_c, 0, 92, 74
1, 68461, Control_c, 0, 64, 87
1, 68467, Note_off_c, 0, 92, 57
1, 68475, Control_c, 0, 64, 79
1, 68490, Control_c, 0, 64, 62
1, 68506, Control_c, 0, 64, 0
1, 68518, Note_on_c, 0, 82, 78
1, 68523, Note_on_c, 0, 51, 52
1, 68546, Note_off_c, 0, 82, 66
1, 68551, Control_c, 0, 64, 47
1, 68566, Control_c, 0, 64, 64
1, 68580, Control_c, 0, 64, 71
1, 68595, Note_on_c, 0, 82, 63
1, 68595, Control_c, 0, 64, 80
1, 68597, Note_off_c, 0, 51, 57
1, 68610, Control_c, 0, 64, 86
1, 68619, Note_off_c, 0, 82, 66
1, 68632, Control_c, 0, 64, 89
1, 68642, Note_on_c, 0, 94, 83
1, 68647, Control_c, 0, 64, 89
1, 68661, Control_c, 0, 64, 90
1, 68663, Note_off_c, 0, 94, 69
1, 68676, Control_c, 0, 64, 91
1, 68691, Control_c, 0, 64, 92
1, 68706, Control_c, 0, 64, 93
1, 68721, Control_c, 0, 64, 93
1, 68751, Control_c, 0, 64, 94
1, 68756, Note_on_c, 0, 75, 75
1, 68764, Note_on_c, 0, 58, 58
1, 68766, Note_on_c, 0, 67, 55
1, 68777, Note_off_c, 0, 75, 72
1, 68791, Note_off_c, 0, 67, 56
1, 68795, Control_c, 0, 64, 94
1, 68807, Note_off_c, 0, 58, 60
1, 68841, Note_on_c, 0, 75, 52
1, 68863, Note_off_c, 0, 75, 58
1, 68874, Note_on_c, 0, 87, 76
1, 68919, Note_off_c, 0, 87, 60
1, 68971, Note_on_c, 0, 75, 61
1, 68979, Note_on_c, 0, 67, 42
1, 68980, Note_on_c, 0, 58, 36
1, 68988, Note_off_c, 0, 75, 64
1, 69013, Note_off_c, 0, 67, 50
1, 69017, Note_off_c, 0, 58, 50
1, 69054, Note_on_c, 0, 75, 72
1, 69081, Note_off_c, 0, 75, 68
1, 69104, Note_on_c, 0, 87, 68
1, 69105, Control_c, 0, 64, 90
1, 69120, Control_c, 0, 64, 77
1, 69128, Note_off_c, 0, 87, 68
1, 69135, Control_c, 0, 64, 26
1, 69150, Control_c, 0, 64, 0
1, 69176, Note_on_c, 0, 55, 51
1, 69187, Note_on_c, 0, 76, 74
1, 69195, Control_c, 0, 64, 61
1, 69208, Note_off_c, 0, 76, 72
1, 69210, Control_c, 0, 64, 69
1, 69222, Note_off_c, 0, 55, 61
1, 69224, Control_c, 0, 64, 77
1, 69239, Control_c, 0, 64, 86
1, 69254, Control_c, 0, 64, 89
1, 69267, Note_on_c, 0, 76, 69
1, 69269, Control_c, 0, 64, 90
1, 69284, Control_c, 0, 64, 90
1, 69294, Note_off_c, 0, 76, 71
1, 69299, Control_c, 0, 64, 91
1, 69304, Note_on_c, 0, 88, 74
1, 69314, Control_c, 0, 64, 92
1, 69329, Control_c, 0, 64, 94
1, 69329, Note_off_c, 0, 88, 64
1, 69344, Control_c, 0, 64, 95
1, 69359, Control_c, 0, 64, 96
1, 69381, Control_c, 0, 64, 97
1, 69396, Control_c, 0, 64, 98
1, 69406, Note_on_c, 0, 75, 77
1, 69410, Control_c, 0, 64, 98
1, 69416, Note_on_c, 0, 70, 61
1, 69423, Note_on_c, 0, 63, 50
1, 69425, Control_c, 0, 64, 99
1, 69430, Note_off_c, 0, 75, 71
1, 69440, Control_c, 0, 64, 99
1, 69451, Note_off_c, 0, 70, 62
1, 69454, Control_c, 0, 64, 100
1, 69470, Control_c, 0, 64, 101
1, 69471, Note_off_c, 0, 63, 57
1, 69481, Note_on_c, 0, 75, 57
1, 69485, Control_c, 0, 64, 102
1, 69500, Control_c, 0, 64, 102
1, 69501, Note_off_c, 0, 75, 63
1, 69517, Note_on_c, 0, 87, 78
1, 69529, Control_c, 0, 64, 103
1, 69551, Note_off_c, 0, 87, 60
1, 69609, Note_on_c, 0, 70, 59
1, 69616, Note_on_c, 0, 73, 76
1, 69619, Note_on_c, 0, 63, 43
1, 69639, Note_off_c, 0, 73, 69
1, 69646, Note_off_c, 0, 70, 60
1, 69650, Note_off_c, 0, 63, 52
1, 69694, Note_on_c, 0, 73, 66
1, 69716, Note_off_c, 0, 73, 67
1, 69736, Note_on_c, 0, 85, 73
1, 69761, Note_off_c, 0, 85, 68
1, 69767, Control_c, 0, 64, 100
1, 69782, Control_c, 0, 64, 87
1, 69796, Control_c, 0, 64, 67
1, 69811, Control_c, 0, 64, 0
1, 69824, Note_on_c, 0, 56, 45
1, 69838, Note_on_c, 0, 71, 75
1, 69855, Control_c, 0, 64, 38
1, 69858, Note_off_c, 0, 71, 68
1, 69870, Control_c, 0, 64, 64
1, 69873, Note_off_c, 0, 56, 57
1, 69885, Control_c, 0, 64, 71
1, 69900, Control_c, 0, 64, 79
1, 69915, Control_c, 0, 64, 87
1, 69918, Note_on_c, 0, 71, 71
1, 69929, Control_c, 0, 64, 90
1, 69940, Note_off_c, 0, 71, 69
1, 69944, Control_c, 0, 64, 91
1, 69958, Note_on_c, 0, 83, 72
1, 69959, Control_c, 0, 64, 91
1, 69974, Control_c, 0, 64, 92
1, 69988, Note_off_c, 0, 83, 58
1, 69989, Control_c, 0, 64, 92
1, 70003, Control_c, 0, 64, 93
1, 70033, Control_c, 0, 64, 93
1, 70058, Note_on_c, 0, 68, 59
1, 70059, Note_on_c, 0, 71, 68
1, 70068, Note_on_c, 0, 63, 44
1, 70077, Note_off_c, 0, 71, 63
1, 70089, Note_off_c, 0, 68, 55
1, 70106, Note_off_c, 0, 63, 54
1, 70152, Note_on_c, 0, 71, 38
1, 70177, Note_on_c, 0, 83, 71
1, 70185, Note_off_c, 0, 71, 45
1, 70204, Note_off_c, 0, 83, 63
1, 70255, Note_on_c, 0, 68, 52
1, 70271, Note_on_c, 0, 70, 77
1, 70285, Note_off_c, 0, 68, 64
1, 70291, Note_on_c, 0, 63, 4
1, 70295, Note_off_c, 0, 70, 69
1, 70322, Note_off_c, 0, 63, 0
1, 70346, Poly_aftertouch_c, 0, 63, 0
1, 70348, Note_on_c, 0, 70, 65
1, 70363, Note_off_c, 0, 70, 68
1, 70378, Note_on_c, 0, 82, 73
1, 70404, Note_off_c, 0, 82, 68
1, 70425, Control_c, 0, 64, 91
1, 70440, Control_c, 0, 64, 82
1, 70455, Control_c, 0, 64, 65
1, 70469, Control_c, 0, 64, 0
1, 70477, Note_on_c, 0, 68, 77
1, 70488, Note_on_c, 0, 59, 47
1, 70500, Note_off_c, 0, 68, 69
1, 70514, Control_c, 0, 64, 58
1, 70529, Control_c, 0, 64, 66
1, 70536, Note_off_c, 0, 59, 58
1, 70543, Control_c, 0, 64, 73
1, 70550, Note_on_c, 0, 68, 64
1, 70558, Control_c, 0, 64, 81
1, 70573, Control_c, 0, 64, 88
1, 70578, Note_off_c, 0, 68, 68
1, 70588, Control_c, 0, 64, 90
1, 70600, Note_on_c, 0, 80, 75
1, 70617, Control_c, 0, 64, 90
1, 70623, Note_off_c, 0, 80, 69
1, 70647, Control_c, 0, 64, 91
1, 70695, Note_on_c, 0, 65, 55
1, 70696, Note_on_c, 0, 67, 73
1, 70707, Note_on_c, 0, 62, 42
1, 70720, Note_off_c, 0, 65, 62
1, 70720, Note_off_c, 0, 67, 68
1, 70744, Note_off_c, 0, 62, 49
1, 70779, Note_on_c, 0, 67, 66
1, 70798, Note_off_c, 0, 67, 63
1, 70819, Note_on_c, 0, 79, 67
1, 70846, Note_off_c, 0, 79, 65
1, 70890, Note_on_c, 0, 62, 48
1, 70906, Note_on_c, 0, 68, 78
1, 70906, Note_on_c, 0, 65, 36
1, 70927, Note_off_c, 0, 68, 71
1, 70932, Note_off_c, 0, 62, 62
1, 70939, Note_off_c, 0, 65, 52
1, 70990, Note_on_c, 0, 68, 58
1, 71010, Note_off_c, 0, 68, 61
1, 71022, Note_on_c, 0, 80, 70
1, 71071, Note_off_c, 0, 80, 54
1, 71085, Control_c, 0, 64, 87
1, 71100, Control_c, 0, 64, 76
1, 71109, Note_on_c, 0, 51, 56
1, 71114, Note_on_c, 0, 70, 75
1, 71114, Control_c, 0, 64, 38
1, 71129, Control_c, 0, 64, 0
1, 71136, Note_off_c, 0, 70, 70
1, 71174, Control_c, 0, 64, 50
1, 71174, Note_off_c, 0, 51, 54
1, 71189, Control_c, 0, 64, 65
1, 71194, Note_on_c, 0, 70, 67
1, 71204, Control_c, 0, 64, 71
1, 71219, Control_c, 0, 64, 79
1, 71228, Note_on_c, 0, 82, 78
1, 71230, Note_off_c, 0, 70, 59
1, 71233, Control_c, 0, 64, 85
1, 71248, Control_c, 0, 64, 87
1, 71255, Note_off_c, 0, 82, 65
1, 71263, Control_c, 0, 64, 88
1, 71293, Control_c, 0, 64, 88
1, 71307, Control_c, 0, 64, 89
1, 71322, Control_c, 0, 64, 89
1, 71323, Note_on_c, 0, 58, 57
1, 71326, Note_on_c, 0, 67, 42
1, 71334, Note_on_c, 0, 63, 78
1, 71350, Note_off_c, 0, 58, 58
1, 71356, Note_off_c, 0, 67, 51
1, 71357, Note_off_c, 0, 63, 71
1, 71415, Note_on_c, 0, 63, 58
1, 71440, Note_off_c, 0, 63, 62
1, 71478, Note_on_c, 0, 75, 65
1, 71508, Note_off_c, 0, 75, 67
1, 71567, Note_on_c, 0, 75, 71
1, 71591, Note_off_c, 0, 75, 67
1, 71658, Note_on_c, 0, 75, 76
1, 71685, Note_off_c, 0, 75, 62
1, 71718, Note_on_c, 0, 75, 74
1, 71754, Note_off_c, 0, 75, 65
1, 71760, Control_c, 0, 64, 89
1, 71775, Control_c, 0, 64, 86
1, 71790, Control_c, 0, 64, 76
1, 71804, Control_c, 0, 64, 54
1, 71819, Note_on_c, 0, 87, 76
1, 71819, Control_c, 0, 64, 0
1, 71844, Note_off_c, 0, 87, 66
1, 71848, Control_c, 0, 64, 19
1, 71863, Control_c, 0, 64, 58
1, 71878, Control_c, 0, 64, 67
1, 71893, Note_on_c, 0, 87, 63
1, 71893, Control_c, 0, 64, 75
1, 71908, Control_c, 0, 64, 84
1, 71922, Control_c, 0, 64, 90
1, 71926, Note_off_c, 0, 87, 63
1, 71937, Control_c, 0, 64, 91
1, 71946, Note_on_c, 0, 99, 81
1, 71952, Control_c, 0, 64, 92
1, 71952, Control_c, 0, 67, 8
1, 71967, Control_c, 0, 67, 13
1, 71982, Control_c, 0, 64, 92
1, 71982, Control_c, 0, 67, 21
1, 71989, Note_off_c, 0, 99, 66
1, 71997, Control_c, 0, 67, 37
1, 72012, Control_c, 0, 67, 61
1, 72027, Control_c, 0, 67, 95
1, 72041, Control_c, 0, 67, 122
1, 72045, Note_on_c, 0, 87, 81
1, 72056, Control_c, 0, 67, 127
1, 72083, Note_off_c, 0, 87, 61
1, 72136, Note_on_c, 0, 87, 55
1, 72160, Note_off_c, 0, 87, 63
1, 72185, Note_on_c, 0, 99, 79
1, 72217, Note_off_c, 0, 99, 65
1, 72294, Note_on_c, 0, 85, 74
1, 72308, Control_c, 0, 64, 92
1, 72322, Note_off_c, 0, 85, 65
1, 72352, Control_c, 0, 64, 91
1, 72383, Note_on_c, 0, 85, 55
1, 72389, Control_c, 0, 64, 91
1, 72415, Note_off_c, 0, 85, 59
1, 72434, Control_c, 0, 64, 90
1, 72447, Note_on_c, 0, 97, 75
1, 72479, Control_c, 0, 64, 90
1, 72493, Note_off_c, 0, 97, 66
1, 72510, Control_c, 0, 64, 89
1, 72524, Control_c, 0, 64, 87
1, 72539, Control_c, 0, 64, 78
1, 72545, Note_on_c, 0, 44, 48
1, 72554, Control_c, 0, 64, 62
1, 72569, Control_c, 0, 64, 0
1, 72596, Note_on_c, 0, 83, 65
1, 72599, Control_c, 0, 64, 13
1, 72614, Control_c, 0, 64, 62
1, 72621, Note_off_c, 0, 83, 63
1, 72628, Control_c, 0, 64, 67
1, 72643, Control_c, 0, 64, 73
1, 72650, Note_off_c, 0, 44, 61
1, 72658, Control_c, 0, 64, 80
1, 72672, Control_c, 0, 64, 85
1, 72685, Note_on_c, 0, 83, 62
1, 72687, Control_c, 0, 64, 86
1, 72702, Control_c, 0, 64, 87
1, 72703, Note_off_c, 0, 83, 65
1, 72717, Control_c, 0, 64, 87
1, 72730, Note_on_c, 0, 95, 81
1, 72732, Control_c, 0, 64, 88
1, 72746, Control_c, 0, 64, 89
1, 72762, Note_off_c, 0, 95, 63
1, 72817, Note_on_c, 0, 51, 47
1, 72819, Note_on_c, 0, 59, 47
1, 72832, Note_on_c, 0, 83, 60
1, 72843, Note_on_c, 0, 84, 23
1, 72849, Note_off_c, 0, 83, 59
1, 72854, Note_off_c, 0, 59, 50
1, 72864, Note_off_c, 0, 51, 57
1, 72879, Note_off_c, 0, 84, 55
1, 72897, Note_on_c, 0, 83, 65
1, 72918, Note_off_c, 0, 83, 64
1, 72936, Note_on_c, 0, 95, 77
1, 72961, Note_off_c, 0, 95, 66
1, 73008, Note_on_c, 0, 51, 43
1, 73024, Note_on_c, 0, 82, 78
1, 73025, Note_on_c, 0, 59, 29
1, 73044, Note_off_c, 0, 82, 71
1, 73055, Note_off_c, 0, 51, 57
1, 73064, Note_off_c, 0, 59, 49
1, 73094, Note_on_c, 0, 82, 69
1, 73122, Note_off_c, 0, 82, 67
1, 73139, Control_c, 0, 64, 87
1, 73141, Note_on_c, 0, 94, 84
1, 73153, Control_c, 0, 64, 77
1, 73168, Control_c, 0, 64, 58
1, 73183, Note_off_c, 0, 94, 66
1, 73183, Control_c, 0, 64, 0
1, 73213, Note_on_c, 0, 47, 57
1, 73227, Control_c, 0, 64, 53
1, 73242, Control_c, 0, 64, 66
1, 73243, Note_on_c, 0, 80, 77
1, 73257, Control_c, 0, 64, 72
1, 73267, Note_off_c, 0, 80, 67
1, 73271, Note_off_c, 0, 47, 61
1, 73271, Control_c, 0, 64, 80
1, 73286, Control_c, 0, 64, 87
1, 73302, Control_c, 0, 64, 89
1, 73315, Note_on_c, 0, 80, 63
1, 73317, Control_c, 0, 64, 89
1, 73332, Control_c, 0, 64, 90
1, 73347, Note_off_c, 0, 80, 65
1, 73347, Control_c, 0, 64, 91
1, 73362, Control_c, 0, 64, 91
1, 73365, Note_on_c, 0, 92, 78
1, 73376, Control_c, 0, 64, 92
1, 73395, Note_off_c, 0, 92, 65
1, 73442, Note_on_c, 0, 63, 61
1, 73446, Note_on_c, 0, 56, 54
1, 73459, Note_on_c, 0, 79, 77
1, 73479, Note_off_c, 0, 63, 63
1, 73480, Note_off_c, 0, 79, 69
1, 73490, Note_off_c, 0, 56, 57
1, 73536, Note_on_c, 0, 79, 72
1, 73558, Note_off_c, 0, 79, 68
1, 73583, Note_on_c, 0, 91, 73
1, 73607, Note_off_c, 0, 91, 61
1, 73642, Note_on_c, 0, 63, 57
1, 73660, Note_on_c, 0, 80, 79
1, 73668, Note_on_c, 0, 56, 32
1, 73680, Note_off_c, 0, 80, 72
1, 73685, Note_off_c, 0, 63, 60
1, 73701, Note_off_c, 0, 56, 48
1, 73730, Note_on_c, 0, 80, 69
1, 73753, Note_off_c, 0, 80, 70
1, 73776, Note_on_c, 0, 92, 78
1, 73806, Control_c, 0, 64, 88
1, 73820, Control_c, 0, 64, 77
1, 73827, Note_off_c, 0, 92, 54
1, 73835, Control_c, 0, 64, 53
1, 73847, Note_on_c, 0, 51, 52
1, 73850, Control_c, 0, 64, 0
1, 73867, Note_on_c, 0, 82, 78
1, 73887, Control_c, 0, 64, 33
1, 73889, Note_off_c, 0, 82, 69
1, 73902, Control_c, 0, 64, 61
1, 73917, Control_c, 0, 64, 68
1, 73928, Note_off_c, 0, 51, 60
1, 73931, Control_c, 0, 64, 75
1, 73942, Note_on_c, 0, 82, 66
1, 73946, Control_c, 0, 64, 82
1, 73961, Control_c, 0, 64, 87
1, 73971, Note_off_c, 0, 82, 65
1, 73976, Control_c, 0, 64, 88
1, 73987, Note_on_c, 0, 94, 74
1, 73991, Control_c, 0, 64, 89
1, 74006, Control_c, 0, 64, 90
1, 74007, Note_off_c, 0, 94, 71
1, 74020, Control_c, 0, 64, 91
1, 74035, Control_c, 0, 64, 92
1, 74050, Control_c, 0, 64, 92
1, 74080, Control_c, 0, 64, 93
1, 74083, Note_on_c, 0, 58, 53
1, 74089, Note_on_c, 0, 67, 57
1, 74095, Control_c, 0, 64, 93
1, 74101, Note_on_c, 0, 75, 76
1, 74121, Note_off_c, 0, 58, 51
1, 74122, Note_off_c, 0, 75, 71
1, 74125, Control_c, 0, 64, 94
1, 74131, Note_off_c, 0, 67, 59
1, 74140, Control_c, 0, 64, 94
1, 74155, Control_c, 0, 64, 95
1, 74183, Note_on_c, 0, 75, 54
1, 74185, Control_c, 0, 64, 96
1, 74204, Note_off_c, 0, 75, 62
1, 74214, Control_c, 0, 64, 96
1, 74220, Note_on_c, 0, 87, 73
1, 74255, Note_off_c, 0, 87, 51
1, 74319, Note_on_c, 0, 67, 60
1, 74321, Note_on_c, 0, 75, 69
1, 74322, Note_on_c, 0, 70, 65
1, 74346, Note_off_c, 0, 75, 69
1, 74373, Note_off_c, 0, 70, 51
1, 74377, Note_off_c, 0, 67, 52
1, 74391, Control_c, 0, 64, 97
1, 74393, Note_on_c, 0, 75, 60
1, 74416, Note_off_c, 0, 75, 66
1, 74421, Control_c, 0, 64, 98
1, 74441, Note_on_c, 0, 87, 67
1, 74450, Control_c, 0, 64, 98
1, 74468, Note_off_c, 0, 87, 67
1, 74495, Control_c, 0, 64, 94
1, 74510, Control_c, 0, 64, 79
1, 74525, Control_c, 0, 64, 0
1, 74528, Note_on_c, 0, 68, 67
1, 74531, Note_on_c, 0, 76, 72
1, 74536, Note_on_c, 0, 71, 59
1, 74551, Note_off_c, 0, 76, 72
1, 74557, Note_off_c, 0, 68, 66
1, 74560, Note_off_c, 0, 71, 63
1, 74609, Note_on_c, 0, 76, 62
1, 74635, Note_off_c, 0, 76, 68
1, 74656, Note_on_c, 0, 88, 71
1, 74680, Note_off_c, 0, 88, 68
1, 74746, Note_on_c, 0, 75, 69
1, 74747, Note_on_c, 0, 69, 59
1, 74750, Note_on_c, 0, 66, 58
1, 74767, Note_off_c, 0, 69, 66
1, 74770, Note_off_c, 0, 75, 70
1, 74787, Note_off_c, 0, 66, 65
1, 74828, Note_on_c, 0, 75, 54
1, 74847, Note_off_c, 0, 75, 62
1, 74865, Note_on_c, 0, 87, 64
1, 74889, Note_off_c, 0, 87, 64
1, 74953, Note_on_c, 0, 68, 65
1, 74957, Note_on_c, 0, 64, 56
1, 74965, Note_on_c, 0, 73, 71
1, 74987, Note_off_c, 0, 68, 62
1, 74989, Note_off_c, 0, 73, 68
1, 74993, Note_off_c, 0, 64, 65
1, 75050, Note_on_c, 0, 73, 56
1, 75068, Note_off_c, 0, 73, 64
1, 75103, Note_on_c, 0, 85, 58
1, 75131, Note_off_c, 0, 85, 57
1, 75185, Note_on_c, 0, 63, 62
1, 75194, Note_on_c, 0, 68, 63
1, 75196, Note_on_c, 0, 75, 72
1, 75199, Note_on_c, 0, 71, 56
1, 75200, Control_c, 0, 64, 46
1, 75214, Control_c, 0, 64, 67
1, 75222, Note_off_c, 0, 75, 68
1, 75229, Note_off_c, 0, 71, 62
1, 75229, Control_c, 0, 64, 73
1, 75244, Control_c, 0, 64, 81
1, 75249, Note_off_c, 0, 63, 60
1, 75253, Note_off_c, 0, 68, 57
1, 75258, Control_c, 0, 64, 88
1, 75270, Note_on_c, 0, 75, 62
1, 75273, Control_c, 0, 64, 93
1, 75288, Control_c, 0, 64, 97
1, 75299, Note_off_c, 0, 75, 68
1, 75303, Control_c, 0, 64, 99
1, 75318, Control_c, 0, 64, 102
1, 75331, Note_on_c, 0, 87, 65
1, 75332, Control_c, 0, 64, 105
1, 75347, Control_c, 0, 64, 106
1, 75359, Note_off_c, 0, 87, 67
1, 75385, Control_c, 0, 64, 106
1, 75428, Note_on_c, 0, 76, 70
1, 75452, Note_off_c, 0, 76, 68
1, 75506, Note_on_c, 0, 76, 61
1, 75533, Note_off_c, 0, 76, 71
1, 75571, Note_on_c, 0, 87, 71
1, 75619, Note_off_c, 0, 87, 58
1, 75655, Note_on_c, 0, 77, 69
1, 75679, Note_off_c, 0, 77, 67
1, 75729, Note_on_c, 0, 77, 61
1, 75765, Note_off_c, 0, 77, 56
1, 75788, Note_on_c, 0, 87, 66
1, 75848, Note_on_c, 0, 78, 76
1, 75856, Note_off_c, 0, 87, 63
1, 75875, Note_off_c, 0, 78, 64
1, 75920, Note_on_c, 0, 78, 69
1, 75973, Note_off_c, 0, 78, 63
1, 76007, Note_on_c, 0, 87, 49
1, 76050, Note_off_c, 0, 87, 61
1, 76053, Note_on_c, 0, 79, 66
1, 76089, Note_off_c, 0, 79, 57
1, 76137, Note_on_c, 0, 79, 52
1, 76164, Control_c, 0, 64, 106
1, 76178, Control_c, 0, 64, 105
1, 76182, Note_off_c, 0, 79, 58
1, 76193, Control_c, 0, 64, 105
1, 76195, Note_on_c, 0, 87, 57
1, 76209, Control_c, 0, 64, 104
1, 76223, Control_c, 0, 64, 103
1, 76238, Control_c, 0, 64, 103
1, 76253, Control_c, 0, 64, 102
1, 76268, Note_on_c, 0, 80, 70
1, 76269, Note_off_c, 0, 87, 60
1, 76283, Control_c, 0, 64, 102
1, 76297, Control_c, 0, 64, 101
1, 76308, Note_off_c, 0, 80, 58
1, 76312, Control_c, 0, 64, 94
1, 76323, Note_on_c, 0, 51, 46
1, 76327, Control_c, 0, 64, 82
1, 76342, Control_c, 0, 64, 64
1, 76346, Note_on_c, 0, 80, 52
1, 76357, Control_c, 0, 64, 29
1, 76371, Control_c, 0, 64, 54
1, 76386, Control_c, 0, 64, 64
1, 76401, Control_c, 0, 64, 68
1, 76406, Note_off_c, 0, 51, 62
1, 76415, Control_c, 0, 64, 72
1, 76418, Note_off_c, 0, 80, 63
1, 76419, Note_on_c, 0, 61, 48
1, 76430, Control_c, 0, 64, 78
1, 76445, Note_on_c, 0, 87, 41
1, 76445, Control_c, 0, 64, 82
1, 76460, Control_c, 0, 64, 84
1, 76475, Control_c, 0, 64, 85
1, 76490, Note_on_c, 0, 81, 59
1, 76498, Note_off_c, 0, 87, 54
1, 76500, Note_on_c, 0, 67, 51
1, 76506, Control_c, 0, 64, 85
1, 76511, Note_off_c, 0, 81, 64
1, 76512, Note_off_c, 0, 61, 58
1, 76535, Control_c, 0, 64, 86
1, 76549, Note_off_c, 0, 67, 54
1, 76590, Note_on_c, 0, 81, 59
1, 76626, Note_off_c, 0, 81, 47
1, 76659, Note_on_c, 0, 87, 62
1, 76668, Control_c, 0, 64, 86
1, 76719, Note_off_c, 0, 87, 63
1, 76723, Note_on_c, 0, 82, 71
1, 76750, Note_off_c, 0, 82, 66
1, 76757, Control_c, 0, 64, 87
1, 76796, Note_on_c, 0, 82, 65
1, 76817, Control_c, 0, 64, 87
1, 76841, Note_off_c, 0, 82, 57
1, 76871, Note_on_c, 0, 87, 54
1, 76924, Note_off_c, 0, 87, 53
1, 76942, Note_on_c, 0, 83, 57
1, 76972, Note_off_c, 0, 83, 65
1, 77035, Note_on_c, 0, 83, 60
1, 77067, Note_off_c, 0, 83, 55
1, 77109, Note_on_c, 0, 87, 43
1, 77142, Note_off_c, 0, 87, 54
1, 77159, Note_on_c, 0, 84, 58
1, 77188, Note_off_c, 0, 84, 67
1, 77263, Note_on_c, 0, 84, 56
1, 77291, Note_off_c, 0, 84, 58
1, 77330, Note_on_c, 0, 87, 50
1, 77380, Note_off_c, 0, 87, 60
1, 77404, Note_on_c, 0, 85, 57
1, 77428, Note_off_c, 0, 85, 64
1, 77491, Control_c, 0, 64, 87
1, 77511, Note_on_c, 0, 85, 57
1, 77521, Control_c, 0, 64, 86
1, 77535, Control_c, 0, 64, 86
1, 77550, Note_off_c, 0, 85, 60
1, 77550, Control_c, 0, 64, 85
1, 77565, Control_c, 0, 64, 84
1, 77580, Control_c, 0, 64, 84
1, 77592, Note_on_c, 0, 87, 55
1, 77595, Control_c, 0, 64, 83
1, 77617, Control_c, 0, 64, 82
1, 77632, Control_c, 0, 64, 80
1, 77638, Note_off_c, 0, 87, 64
1, 77647, Control_c, 0, 64, 76
1, 77662, Control_c, 0, 64, 67
1, 77676, Control_c, 0, 64, 0
1, 77693, Note_on_c, 0, 86, 55
1, 77697, Note_on_c, 0, 44, 39
1, 77733, Note_off_c, 0, 86, 61
1, 77765, Control_c, 0, 64, 52
1, 77780, Control_c, 0, 64, 65
1, 77781, Note_off_c, 0, 44, 58
1, 77788, Note_on_c, 0, 51, 43
1, 77794, Control_c, 0, 64, 69
1, 77806, Note_on_c, 0, 86, 36
1, 77809, Control_c, 0, 64, 73
1, 77824, Control_c, 0, 64, 77
1, 77839, Control_c, 0, 64, 79
1, 77845, Note_off_c, 0, 51, 57
1, 77854, Control_c, 0, 64, 81
1, 77868, Control_c, 0, 64, 82
1, 77883, Control_c, 0, 64, 82
1, 77887, Note_on_c, 0, 59, 45
1, 77898, Control_c, 0, 64, 83
1, 77913, Control_c, 0, 64, 84
1, 77921, Note_on_c, 0, 87, 53
1, 77924, Note_off_c, 0, 86, 36
1, 77928, Control_c, 0, 64, 85
1, 77938, Note_off_c, 0, 59, 58
1, 77957, Control_c, 0, 64, 85
1, 77963, Note_off_c, 0, 87, 59
1, 78001, Control_c, 0, 64, 86
1, 78031, Control_c, 0, 64, 86
1, 78046, Control_c, 0, 64, 87
1, 78060, Control_c, 0, 64, 87
1, 78074, Note_on_c, 0, 68, 49
1, 78089, Note_on_c, 0, 87, 54
1, 78091, Control_c, 0, 64, 88
1, 78106, Control_c, 0, 64, 88
1, 78117, Note_off_c, 0, 68, 46
1, 78124, Note_off_c, 0, 87, 65
1, 78136, Control_c, 0, 64, 89
1, 78151, Control_c, 0, 64, 89
1, 78180, Control_c, 0, 64, 90
1, 78183, Note_on_c, 0, 87, 56
1, 78209, Control_c, 0, 64, 90
1, 78245, Note_off_c, 0, 87, 59
1, 78254, Control_c, 0, 64, 91
1, 78284, Note_on_c, 0, 99, 67
1, 78316, Note_off_c, 0, 99, 69
1, 78400, Note_on_c, 0, 88, 64
1, 78439, Note_off_c, 0, 88, 56
1, 78480, Note_on_c, 0, 88, 48
1, 78530, Note_off_c, 0, 88, 61
1, 78573, Note_on_c, 0, 99, 66
1, 78633, Note_off_c, 0, 99, 65
1, 78667, Note_on_c, 0, 89, 61
1, 78702, Note_off_c, 0, 89, 59
1, 78759, Poly_aftertouch_c, 0, 89, 127
1, 78788, Poly_aftertouch_c, 0, 89, 0
1, 78828, Note_on_c, 0, 99, 62
1, 78920, Note_on_c, 0, 90, 61
1, 78929, Note_off_c, 0, 99, 59
1, 78970, Note_off_c, 0, 90, 54
1, 79008, Note_on_c, 0, 90, 42
1, 79083, Note_off_c, 0, 90, 57
1, 79129, Note_on_c, 0, 99, 56
1, 79225, Note_off_c, 0, 99, 50
1, 79240, Note_on_c, 0, 91, 51
1, 79297, Note_off_c, 0, 91, 49
1, 79375, Note_on_c, 0, 91, 38
1, 79493, Note_off_c, 0, 91, 46
1, 79504, Note_on_c, 0, 99, 44
1, 79625, Note_on_c, 0, 92, 52
1, 79625, Note_off_c, 0, 99, 54
1, 79703, Note_off_c, 0, 92, 58
1, 79829, Note_on_c, 0, 92, 34
1, 79866, Note_off_c, 0, 92, 47
1, 80093, Note_on_c, 0, 99, 48
1, 80158, Note_off_c, 0, 99, 55
1, 80561, Control_c, 0, 67, 116
1, 80576, Control_c, 0, 67, 102
1, 80591, Control_c, 0, 67, 85
1, 80612, Control_c, 0, 67, 64
1, 80627, Control_c, 0, 67, 38
1, 80642, Control_c, 0, 67, 20
1, 80657, Control_c, 0, 67, 0
1, 80909, Control_c, 0, 64, 90
1, 80924, Control_c, 0, 64, 90
1, 80939, Control_c, 0, 64, 88
1, 80953, Control_c, 0, 64, 86
1, 80968, Control_c, 0, 64, 81
1, 80983, Control_c, 0, 64, 74
1, 80998, Control_c, 0, 64, 63
1, 81012, Control_c, 0, 64, 0
1, 81485, Note_on_c, 0, 68, 66
1, 81492, Note_on_c, 0, 71, 58
1, 81529, Note_off_c, 0, 68, 55
1, 81604, Note_on_c, 0, 70, 65
1, 81609, Note_off_c, 0, 71, 52
1, 81618, Note_on_c, 0, 67, 58
1, 81642, Note_off_c, 0, 67, 63
1, 81646, Note_off_c, 0, 70, 59
1, 81738, Note_on_c, 0, 69, 78
1, 81738, Note_on_c, 0, 66, 76
1, 81741, Note_on_c, 0, 71, 68
1, 81763, Note_off_c, 0, 69, 66
1, 81764, Note_off_c, 0, 66, 68
1, 81777, Note_off_c, 0, 71, 58
1, 81873, Note_on_c, 0, 68, 67
1, 81877, Note_on_c, 0, 65, 56
1, 81878, Note_on_c, 0, 71, 56
1, 81897, Note_off_c, 0, 65, 64
1, 81899, Note_off_c, 0, 71, 63
1, 81900, Note_off_c, 0, 68, 66
1, 81989, Note_on_c, 0, 71, 65
1, 81995, Note_on_c, 0, 67, 67
1, 82001, Note_on_c, 0, 64, 50
1, 82022, Note_off_c, 0, 71, 59
1, 82024, Note_off_c, 0, 64, 58
1, 82024, Note_off_c, 0, 67, 66
1, 82118, Note_on_c, 0, 63, 53
1, 82125, Note_on_c, 0, 66, 61
1, 82130, Note_on_c, 0, 71, 56
1, 82144, Note_off_c, 0, 63, 65
1, 82153, Note_off_c, 0, 66, 68
1, 82161, Note_off_c, 0, 71, 63
1, 82237, Note_on_c, 0, 62, 61
1, 82245, Note_on_c, 0, 65, 61
1, 82248, Note_on_c, 0, 71, 60
1, 82264, Note_off_c, 0, 62, 63
1, 82270, Note_off_c, 0, 65, 66
1, 82272, Note_off_c, 0, 71, 62
1, 82356, Note_on_c, 0, 71, 61
1, 82358, Note_on_c, 0, 61, 64
1, 82361, Note_on_c, 0, 64, 53
1, 82383, Note_off_c, 0, 64, 58
1, 82389, Note_off_c, 0, 61, 63
1, 82399, Note_off_c, 0, 71, 60
1, 82497, Note_on_c, 0, 73, 66
1, 82522, Note_off_c, 0, 73, 68
1, 82538, Note_on_c, 0, 71, 66
1, 82569, Note_off_c, 0, 71, 61
1, 82588, Note_on_c, 0, 70, 64
1, 82657, Note_off_c, 0, 70, 62
1, 82667, Note_on_c, 0, 71, 40
1, 82695, Note_off_c, 0, 71, 47
1, 82696, Note_on_c, 0, 66, 78
1, 82706, Note_on_c, 0, 59, 54
1, 82710, Note_on_c, 0, 63, 62
1, 82718, Control_c, 0, 64, 46
1, 82732, Control_c, 0, 64, 68
1, 82743, Note_off_c, 0, 59, 62
1, 82743, Note_off_c, 0, 66, 59
1, 82747, Control_c, 0, 64, 76
1, 82760, Note_on_c, 0, 78, 76
1, 82762, Control_c, 0, 64, 88
1, 82776, Control_c, 0, 64, 94
1, 82779, Note_off_c, 0, 63, 58
1, 82791, Control_c, 0, 64, 97
1, 82795, Note_off_c, 0, 78, 53
1, 82806, Control_c, 0, 64, 100
1, 82821, Control_c, 0, 64, 103
1, 82836, Control_c, 0, 64, 106
1, 82839, Note_on_c, 0, 78, 63
1, 82858, Control_c, 0, 64, 109
1, 82864, Note_off_c, 0, 78, 63
1, 82873, Control_c, 0, 64, 110
1, 82889, Control_c, 0, 64, 111
1, 82904, Control_c, 0, 64, 111
1, 82909, Note_on_c, 0, 78, 78
1, 82930, Note_off_c, 0, 78, 69
1, 82934, Control_c, 0, 64, 112
1, 82964, Note_on_c, 0, 54, 53
1, 82966, Note_on_c, 0, 66, 60
1, 82990, Note_on_c, 0, 71, 69
1, 82993, Note_off_c, 0, 66, 58
1, 83007, Note_off_c, 0, 54, 52
1, 83016, Note_off_c, 0, 71, 63
1, 83029, Note_on_c, 0, 83, 52
1, 83112, Note_off_c, 0, 83, 0
1, 83125, Note_on_c, 0, 83, 63
1, 83151, Note_off_c, 0, 83, 65
1, 83228, Note_on_c, 0, 73, 77
1, 83256, Note_on_c, 0, 85, 60
1, 83271, Note_off_c, 0, 73, 62
1, 83288, Control_c, 0, 64, 111
1, 83291, Note_off_c, 0, 85, 0
1, 83291, Note_on_c, 0, 85, 40
1, 83344, Note_off_c, 0, 85, 67
1, 83362, Control_c, 0, 64, 111
1, 83363, Note_on_c, 0, 85, 63
1, 83395, Note_off_c, 0, 85, 68
1, 83406, Control_c, 0, 64, 109
1, 83421, Control_c, 0, 64, 98
1, 83436, Control_c, 0, 64, 82
1, 83445, Note_on_c, 0, 66, 72
1, 83451, Control_c, 0, 64, 62
1, 83452, Note_on_c, 0, 78, 87
1, 83464, Note_off_c, 0, 66, 64
1, 83465, Note_on_c, 0, 58, 41
1, 83466, Control_c, 0, 64, 0
1, 83473, Note_on_c, 0, 64, 31
1, 83480, Control_c, 0, 64, 60
1, 83495, Control_c, 0, 64, 69
1, 83497, Note_off_c, 0, 58, 57
1, 83505, Note_off_c, 0, 78, 63
1, 83506, Note_off_c, 0, 64, 43
1, 83510, Control_c, 0, 64, 81
1, 83512, Note_on_c, 0, 90, 66
1, 83524, Control_c, 0, 64, 91
1, 83539, Control_c, 0, 64, 97
1, 83554, Control_c, 0, 64, 99
1, 83569, Control_c, 0, 64, 100
1, 83570, Note_off_c, 0, 90, 65
1, 83584, Control_c, 0, 64, 101
1, 83591, Note_on_c, 0, 90, 71
1, 83628, Note_off_c, 0, 90, 65
1, 83636, Control_c, 0, 64, 100
1, 83651, Control_c, 0, 64, 92
1, 83666, Control_c, 0, 64, 78
1, 83670, Note_on_c, 0, 85, 81
1, 83676, Note_on_c, 0, 54, 57
1, 83682, Control_c, 0, 64, 63
1, 83696, Control_c, 0, 64, 57
1, 83698, Note_off_c, 0, 54, 63
1, 83710, Control_c, 0, 64, 68
1, 83721, Note_off_c, 0, 85, 62
1, 83725, Control_c, 0, 64, 76
1, 83740, Control_c, 0, 64, 87
1, 83742, Note_on_c, 0, 90, 74
1, 83748, Note_on_c, 0, 97, 74
1, 83755, Control_c, 0, 64, 93
1, 83766, Note_off_c, 0, 90, 69
1, 83770, Control_c, 0, 64, 95
1, 83772, Note_off_c, 0, 97, 70
1, 83784, Control_c, 0, 64, 96
1, 83799, Control_c, 0, 64, 96
1, 83825, Note_on_c, 0, 90, 70
1, 83828, Note_on_c, 0, 97, 61
1, 83849, Note_off_c, 0, 90, 68
1, 83858, Note_off_c, 0, 97, 65
1, 83858, Control_c, 0, 64, 95
1, 83873, Control_c, 0, 64, 86
1, 83888, Control_c, 0, 64, 69
1, 83900, Note_on_c, 0, 47, 64
1, 83903, Control_c, 0, 64, 0
1, 83909, Note_on_c, 0, 87, 77
1, 83929, Note_off_c, 0, 47, 64
1, 83932, Control_c, 0, 64, 56
1, 83947, Control_c, 0, 64, 68
1, 83962, Control_c, 0, 64, 78
1, 83965, Note_off_c, 0, 87, 63
1, 83971, Note_on_c, 0, 99, 54
1, 83977, Control_c, 0, 64, 90
1, 83982, Note_on_c, 0, 90, 51
1, 83992, Control_c, 0, 64, 97
1, 83992, Note_off_c, 0, 99, 62
1, 84007, Control_c, 0, 64, 101
1, 84007, Note_off_c, 0, 90, 52
1, 84021, Control_c, 0, 64, 105
1, 84036, Control_c, 0, 64, 111
1, 84044, Note_on_c, 0, 99, 81
1, 84047, Note_on_c, 0, 90, 63
1, 84051, Control_c, 0, 64, 122
1, 84066, Control_c, 0, 64, 127
1, 84087, Note_off_c, 0, 99, 69
1, 84095, Control_c, 0, 64, 126
1, 84109, Note_off_c, 0, 90, 61
1, 84110, Control_c, 0, 64, 104
1, 84120, Note_on_c, 0, 54, 54
1, 84123, Note_on_c, 0, 63, 70
1, 84125, Control_c, 0, 64, 84
1, 84138, Note_on_c, 0, 83, 64
1, 84140, Control_c, 0, 64, 60
1, 84141, Note_on_c, 0, 81, 80
1, 84144, Note_off_c, 0, 54, 58
1, 84152, Note_off_c, 0, 63, 66
1, 84154, Note_off_c, 0, 83, 43
1, 84154, Control_c, 0, 64, 0
1, 84161, Note_off_c, 0, 81, 69
1, 84369, Control_c, 0, 64, 49
1, 84384, Control_c, 0, 64, 74
1, 84388, Note_on_c, 0, 71, 60
1, 84391, Note_on_c, 0, 75, 77
1, 84399, Control_c, 0, 64, 91
1, 84414, Control_c, 0, 64, 111
1, 84428, Control_c, 0, 64, 119
1, 84456, Note_off_c, 0, 71, 58
1, 84458, Control_c, 0, 64, 117
1, 84463, Note_off_c, 0, 75, 57
1, 84473, Control_c, 0, 64, 102
1, 84489, Control_c, 0, 64, 85
1, 84504, Note_on_c, 0, 74, 71
1, 84504, Control_c, 0, 64, 65
1, 84519, Control_c, 0, 64, 0
1, 84528, Note_off_c, 0, 74, 69
1, 84630, Note_on_c, 0, 70, 79
1, 84632, Note_on_c, 0, 75, 81
1, 84634, Note_on_c, 0, 73, 75
1, 84656, Note_off_c, 0, 70, 67
1, 84658, Note_off_c, 0, 73, 66
1, 84666, Note_off_c, 0, 75, 63
1, 84749, Note_on_c, 0, 69, 67
1, 84755, Note_on_c, 0, 72, 75
1, 84761, Note_on_c, 0, 75, 66
1, 84775, Note_off_c, 0, 69, 70
1, 84781, Note_off_c, 0, 72, 66
1, 84789, Note_off_c, 0, 75, 68
1, 84869, Note_on_c, 0, 71, 73
1, 84874, Note_on_c, 0, 68, 61
1, 84880, Note_on_c, 0, 75, 61
1, 84895, Note_off_c, 0, 71, 66
1, 84904, Note_off_c, 0, 68, 65
1, 84911, Note_off_c, 0, 75, 67
1, 84985, Note_on_c, 0, 67, 65
1, 84997, Note_on_c, 0, 75, 71
1, 84999, Note_on_c, 0, 70, 65
1, 85014, Note_off_c, 0, 67, 65
1, 85029, Note_off_c, 0, 70, 66
1, 85032, Note_off_c, 0, 75, 60
1, 85107, Note_on_c, 0, 66, 66
1, 85121, Note_on_c, 0, 69, 69
1, 85125, Note_on_c, 0, 75, 58
1, 85140, Note_off_c, 0, 66, 65
1, 85156, Note_off_c, 0, 69, 61
1, 85158, Note_off_c, 0, 75, 67
1, 85223, Note_on_c, 0, 65, 60
1, 85224, Note_on_c, 0, 68, 65
1, 85229, Note_on_c, 0, 75, 56
1, 85252, Note_off_c, 0, 68, 67
1, 85256, Note_off_c, 0, 65, 66
1, 85266, Note_off_c, 0, 75, 66
1, 85363, Note_on_c, 0, 77, 74
1, 85412, Note_on_c, 0, 75, 62
1, 85417, Note_off_c, 0, 77, 61
1, 85450, Note_off_c, 0, 75, 63
1, 85469, Note_on_c, 0, 74, 59
1, 85515, Note_on_c, 0, 75, 62
1, 85522, Note_off_c, 0, 74, 65
1, 85545, Note_off_c, 0, 75, 68
1, 85577, Note_on_c, 0, 63, 71
1, 85578, Note_on_c, 0, 70, 79
1, 85579, Note_on_c, 0, 66, 72
1, 85593, Control_c, 0, 64, 53
1, 85608, Control_c, 0, 64, 68
1, 85608, Note_off_c, 0, 70, 58
1, 85623, Note_on_c, 0, 82, 77
1, 85623, Control_c, 0, 64, 79
1, 85634, Note_off_c, 0, 66, 56
1, 85637, Note_off_c, 0, 63, 57
1, 85637, Control_c, 0, 64, 88
1, 85652, Control_c, 0, 64, 93
1, 85663, Note_off_c, 0, 82, 61
1, 85667, Control_c, 0, 64, 95
1, 85682, Control_c, 0, 64, 96
1, 85697, Control_c, 0, 64, 97
1, 85701, Note_on_c, 0, 82, 65
1, 85712, Control_c, 0, 64, 99
1, 85718, Note_off_c, 0, 82, 66
1, 85727, Control_c, 0, 64, 101
1, 85741, Control_c, 0, 64, 102
1, 85756, Control_c, 0, 64, 103
1, 85762, Note_on_c, 0, 82, 78
1, 85771, Control_c, 0, 64, 104
1, 85782, Note_off_c, 0, 82, 69
1, 85800, Control_c, 0, 64, 105
1, 85828, Note_on_c, 0, 58, 51
1, 85829, Note_on_c, 0, 70, 59
1, 85830, Control_c, 0, 64, 105
1, 85847, Note_on_c, 0, 66, 52
1, 85851, Note_on_c, 0, 75, 81
1, 85858, Note_off_c, 0, 70, 62
1, 85882, Note_off_c, 0, 58, 58
1, 85885, Note_off_c, 0, 66, 62
1, 85888, Note_off_c, 0, 75, 62
1, 85900, Note_on_c, 0, 87, 32
1, 85953, Note_off_c, 0, 87, 67
1, 85987, Note_on_c, 0, 87, 69
1, 86037, Note_off_c, 0, 87, 63
1, 86087, Note_on_c, 0, 77, 80
1, 86126, Note_off_c, 0, 77, 56
1, 86135, Control_c, 0, 64, 105
1, 86150, Note_on_c, 0, 89, 67
1, 86165, Control_c, 0, 64, 104
1, 86210, Control_c, 0, 64, 104
1, 86222, Note_off_c, 0, 89, 68
1, 86240, Note_on_c, 0, 89, 73
1, 86269, Control_c, 0, 64, 101
1, 86276, Note_off_c, 0, 89, 66
1, 86284, Control_c, 0, 64, 91
1, 86298, Control_c, 0, 64, 71
1, 86313, Control_c, 0, 64, 30
1, 86317, Note_on_c, 0, 70, 69
1, 86328, Control_c, 0, 64, 49
1, 86332, Note_on_c, 0, 82, 87
1, 86342, Control_c, 0, 64, 66
1, 86344, Note_off_c, 0, 70, 67
1, 86347, Note_on_c, 0, 68, 29
1, 86357, Control_c, 0, 64, 73
1, 86372, Control_c, 0, 64, 83
1, 86381, Note_on_c, 0, 62, 2
1, 86386, Note_off_c, 0, 68, 42
1, 86386, Note_off_c, 0, 82, 64
1, 86387, Control_c, 0, 64, 94
1, 86401, Note_on_c, 0, 94, 65
1, 86402, Control_c, 0, 64, 98
1, 86417, Control_c, 0, 64, 100
1, 86421, Note_off_c, 0, 62, 33
1, 86431, Control_c, 0, 64, 101
1, 86448, Note_off_c, 0, 94, 68
1, 86482, Note_on_c, 0, 94, 55
1, 86505, Control_c, 0, 64, 98
1, 86517, Note_off_c, 0, 94, 62
1, 86520, Control_c, 0, 64, 87
1, 86535, Note_on_c, 0, 58, 63
1, 86535, Control_c, 0, 64, 69
1, 86536, Note_on_c, 0, 89, 79
1, 86550, Control_c, 0, 64, 0
1, 86564, Control_c, 0, 64, 50
1, 86566, Note_off_c, 0, 58, 67
1, 86579, Control_c, 0, 64, 68
1, 86586, Note_off_c, 0, 89, 63
1, 86602, Control_c, 0, 64, 76
1, 86608, Note_on_c, 0, 94, 78
1, 86617, Control_c, 0, 64, 86
1, 86618, Note_on_c, 0, 101, 79
1, 86631, Control_c, 0, 64, 93
1, 86632, Note_off_c, 0, 94, 66
1, 86640, Note_off_c, 0, 101, 68
1, 86646, Control_c, 0, 64, 95
1, 86661, Control_c, 0, 64, 96
1, 86705, Note_on_c, 0, 101, 65
1, 86710, Note_on_c, 0, 94, 67
1, 86720, Control_c, 0, 64, 94
1, 86727, Note_off_c, 0, 94, 67
1, 86732, Note_off_c, 0, 101, 69
1, 86735, Control_c, 0, 64, 85
1, 86749, Control_c, 0, 64, 68
1, 86762, Note_on_c, 0, 51, 62
1, 86764, Control_c, 0, 64, 0
1, 86783, Note_on_c, 0, 90, 85
1, 86794, Control_c, 0, 64, 63
1, 86796, Note_off_c, 0, 51, 62
1, 86809, Control_c, 0, 64, 71
1, 86824, Control_c, 0, 64, 81
1, 86839, Control_c, 0, 64, 93
1, 86846, Note_on_c, 0, 94, 79
1, 86846, Note_on_c, 0, 102, 78
1, 86854, Control_c, 0, 64, 101
1, 86867, Note_off_c, 0, 90, 56
1, 86868, Note_off_c, 0, 94, 69
1, 86869, Control_c, 0, 64, 106
1, 86871, Note_off_c, 0, 102, 69
1, 86884, Control_c, 0, 64, 112
1, 86899, Control_c, 0, 64, 120
1, 86914, Control_c, 0, 64, 127
1, 86934, Note_on_c, 0, 102, 77
1, 86937, Note_on_c, 0, 94, 79
1, 86972, Note_off_c, 0, 102, 66
1, 86973, Control_c, 0, 64, 107
1, 86988, Control_c, 0, 64, 86
1, 87000, Note_on_c, 0, 87, 91
1, 87003, Control_c, 0, 64, 63
1, 87006, Note_on_c, 0, 66, 69
1, 87008, Note_on_c, 0, 58, 47
1, 87014, Note_off_c, 0, 94, 66
1, 87018, Control_c, 0, 64, 0
1, 87023, Note_off_c, 0, 66, 67
1, 87034, Note_off_c, 0, 58, 54
1, 87034, Note_off_c, 0, 87, 65
1, 87225, Control_c, 0, 64, 57
1, 87227, Note_on_c, 0, 78, 86
1, 87240, Control_c, 0, 64, 72
1, 87249, Note_on_c, 0, 75, 55
1, 87255, Control_c, 0, 64, 88
1, 87270, Control_c, 0, 64, 100
1, 87274, Note_off_c, 0, 75, 66
1, 87278, Note_off_c, 0, 78, 63
1, 87285, Control_c, 0, 64, 103
1, 87315, Control_c, 0, 64, 103
1, 87329, Control_c, 0, 64, 96
1, 87350, Note_on_c, 0, 74, 67
1, 87351, Note_on_c, 0, 77, 82
1, 87351, Control_c, 0, 64, 80
1, 87366, Control_c, 0, 64, 60
1, 87375, Note_off_c, 0, 74, 69
1, 87381, Control_c, 0, 64, 0
1, 87391, Note_off_c, 0, 77, 61
1, 87475, Note_on_c, 0, 73, 80
1, 87477, Note_on_c, 0, 76, 84
1, 87477, Note_on_c, 0, 78, 85
1, 87496, Note_off_c, 0, 76, 73
1, 87501, Note_off_c, 0, 73, 61
1, 87509, Note_off_c, 0, 78, 62
1, 87597, Note_on_c, 0, 78, 80
1, 87599, Note_on_c, 0, 75, 76
1, 87602, Note_on_c, 0, 72, 73
1, 87622, Note_off_c, 0, 75, 71
1, 87628, Note_off_c, 0, 72, 67
1, 87635, Note_off_c, 0, 78, 61
1, 87725, Note_on_c, 0, 74, 75
1, 87726, Note_on_c, 0, 71, 64
1, 87730, Note_on_c, 0, 78, 72
1, 87751, Note_off_c, 0, 74, 66
1, 87754, Note_off_c, 0, 78, 68
1, 87754, Note_off_c, 0, 71, 66
1, 87841, Note_on_c, 0, 78, 76
1, 87842, Note_on_c, 0, 73, 69
1, 87846, Note_on_c, 0, 70, 61
1, 87868, Note_off_c, 0, 73, 67
1, 87876, Note_off_c, 0, 70, 66
1, 87884, Note_off_c, 0, 78, 60
1, 87961, Note_on_c, 0, 69, 66
1, 87970, Note_on_c, 0, 72, 63
1, 87973, Note_on_c, 0, 78, 62
1, 87989, Note_off_c, 0, 69, 70
1, 87989, Note_off_c, 0, 72, 65
1, 87993, Note_off_c, 0, 78, 62
1, 88068, Note_on_c, 0, 78, 71
1, 88080, Note_on_c, 0, 68, 62
1, 88103, Note_on_c, 0, 71, 24
1, 88115, Note_off_c, 0, 68, 65
1, 88116, Note_off_c, 0, 78, 61
1, 88140, Note_off_c, 0, 71, 31
1, 88222, Note_on_c, 0, 80, 72
1, 88258, Note_off_c, 0, 80, 66
1, 88271, Note_on_c, 0, 78, 69
1, 88317, Note_off_c, 0, 78, 63
1, 88337, Note_on_c, 0, 77, 59
1, 88383, Note_on_c, 0, 78, 69
1, 88391, Note_off_c, 0, 77, 62
1, 88407, Note_off_c, 0, 78, 68
1, 88440, Note_on_c, 0, 73, 78
1, 88445, Note_on_c, 0, 66, 59
1, 88447, Note_on_c, 0, 70, 65
1, 88455, Control_c, 0, 64, 67
1, 88469, Note_off_c, 0, 73, 62
1, 88471, Control_c, 0, 64, 72
1, 88486, Control_c, 0, 64, 80
1, 88487, Note_off_c, 0, 70, 58
1, 88489, Note_off_c, 0, 66, 61
1, 88491, Note_on_c, 0, 85, 77
1, 88500, Control_c, 0, 64, 85
1, 88515, Control_c, 0, 64, 91
1, 88530, Control_c, 0, 64, 97
1, 88536, Note_off_c, 0, 85, 63
1, 88544, Control_c, 0, 64, 100
1, 88559, Control_c, 0, 64, 102
1, 88574, Note_on_c, 0, 85, 63
1, 88574, Control_c, 0, 64, 103
1, 88589, Control_c, 0, 64, 104
1, 88596, Note_off_c, 0, 85, 70
1, 88604, Control_c, 0, 64, 105
1, 88618, Control_c, 0, 64, 106
1, 88633, Control_c, 0, 64, 107
1, 88634, Note_on_c, 0, 85, 79
1, 88652, Note_off_c, 0, 85, 73
1, 88663, Control_c, 0, 64, 108
1, 88701, Note_on_c, 0, 61, 47
1, 88705, Note_on_c, 0, 73, 50
1, 88714, Note_on_c, 0, 78, 84
1, 88726, Note_on_c, 0, 70, 27
1, 88732, Note_off_c, 0, 73, 50
1, 88737, Note_off_c, 0, 61, 51
1, 88745, Note_on_c, 0, 90, 65
1, 88755, Note_off_c, 0, 70, 49
1, 88757, Note_off_c, 0, 78, 64
1, 88767, Note_off_c, 0, 90, 0
1, 88791, Note_on_c, 0, 90, 13
1, 88792, Note_off_c, 0, 90, 0
1, 88825, Poly_aftertouch_c, 0, 90, 0
1, 88865, Note_on_c, 0, 89, 14
1, 88899, Note_off_c, 0, 89, 65
1, 88955, Note_on_c, 0, 80, 82
1, 89003, Note_off_c, 0, 80, 63
1, 89025, Note_on_c, 0, 92, 75
1, 89042, Control_c, 0, 64, 107
1, 89063, Note_off_c, 0, 92, 70
1, 89107, Note_on_c, 0, 91, 17
1, 89116, Control_c, 0, 64, 107
1, 89131, Control_c, 0, 64, 101
1, 89144, Note_off_c, 0, 91, 61
1, 89146, Control_c, 0, 64, 87
1, 89160, Control_c, 0, 64, 64
1, 89175, Control_c, 0, 64, 0
1, 89184, Note_on_c, 0, 73, 74
1, 89192, Note_on_c, 0, 85, 75
1, 89205, Control_c, 0, 64, 62
1, 89207, Note_on_c, 0, 65, 41
1, 89207, Note_on_c, 0, 71, 41
1, 89209, Note_off_c, 0, 73, 66
1, 89219, Control_c, 0, 64, 70
1, 89232, Note_off_c, 0, 71, 50
1, 89234, Control_c, 0, 64, 78
1, 89239, Note_off_c, 0, 65, 55
1, 89249, Control_c, 0, 64, 88
1, 89257, Note_off_c, 0, 85, 62
1, 89265, Control_c, 0, 64, 94
1, 89274, Note_on_c, 0, 92, 75
1, 89280, Control_c, 0, 64, 95
1, 89283, Note_on_c, 0, 97, 71
1, 89297, Note_off_c, 0, 92, 69
1, 89308, Note_off_c, 0, 97, 67
1, 89324, Control_c, 0, 64, 96
1, 89370, Note_on_c, 0, 92, 74
1, 89373, Note_on_c, 0, 97, 63
1, 89393, Note_off_c, 0, 92, 68
1, 89402, Note_off_c, 0, 97, 67
1, 89470, Note_on_c, 0, 61, 46
1, 89473, Note_on_c, 0, 97, 73
1, 89478, Note_on_c, 0, 92, 77
1, 89484, Note_on_c, 0, 73, 46
1, 89495, Note_on_c, 0, 71, 27
1, 89495, Note_off_c, 0, 61, 62
1, 89500, Note_off_c, 0, 92, 71
1, 89502, Note_off_c, 0, 97, 61
1, 89508, Note_off_c, 0, 73, 57
1, 89516, Control_c, 0, 64, 96
1, 89533, Note_off_c, 0, 71, 40
1, 89546, Control_c, 0, 64, 97
1, 89560, Control_c, 0, 64, 97
1, 89572, Note_on_c, 0, 92, 75
1, 89580, Note_on_c, 0, 97, 66
1, 89605, Note_off_c, 0, 92, 65
1, 89614, Note_off_c, 0, 97, 67
1, 89678, Note_on_c, 0, 97, 70
1, 89680, Note_on_c, 0, 92, 77
1, 89703, Note_off_c, 0, 92, 67
1, 89724, Note_off_c, 0, 97, 65
1, 89746, Control_c, 0, 64, 92
1, 89761, Control_c, 0, 64, 79
1, 89775, Note_on_c, 0, 66, 69
1, 89775, Control_c, 0, 64, 40
1, 89778, Note_on_c, 0, 97, 71
1, 89789, Note_on_c, 0, 94, 78
1, 89790, Control_c, 0, 64, 0
1, 89811, Note_off_c, 0, 94, 69
1, 89820, Note_off_c, 0, 66, 59
1, 89834, Note_off_c, 0, 97, 66
1, 89835, Control_c, 0, 64, 61
1, 89836, Note_on_c, 0, 99, 80
1, 89849, Control_c, 0, 64, 69
1, 89864, Control_c, 0, 64, 77
1, 89879, Control_c, 0, 64, 85
1, 89893, Note_off_c, 0, 99, 66
1, 89894, Control_c, 0, 64, 88
1, 89897, Note_on_c, 0, 97, 64
1, 89899, Note_on_c, 0, 93, 75
1, 89909, Control_c, 0, 64, 89
1, 89927, Note_off_c, 0, 93, 63
1, 89957, Note_on_c, 0, 99, 76
1, 89963, Note_off_c, 0, 97, 65
1, 90016, Note_on_c, 0, 82, 65
1, 90021, Note_on_c, 0, 78, 51
1, 90022, Note_on_c, 0, 92, 82
1, 90023, Note_on_c, 0, 97, 67
1, 90027, Note_off_c, 0, 99, 63
1, 90028, Control_c, 0, 64, 89
1, 90037, Note_off_c, 0, 82, 63
1, 90041, Note_off_c, 0, 78, 60
1, 90053, Note_off_c, 0, 92, 59
1, 90073, Note_off_c, 0, 97, 64
1, 90085, Note_on_c, 0, 99, 69
1, 90118, Control_c, 0, 64, 90
1, 90133, Control_c, 0, 64, 90
1, 90136, Note_on_c, 0, 83, 65
1, 90137, Note_on_c, 0, 80, 63
1, 90140, Note_on_c, 0, 97, 69
1, 90147, Control_c, 0, 64, 91
1, 90150, Note_on_c, 0, 91, 71
1, 90154, Note_off_c, 0, 99, 68
1, 90156, Note_off_c, 0, 80, 64
1, 90162, Control_c, 0, 64, 91
1, 90165, Note_off_c, 0, 83, 62
1, 90174, Note_off_c, 0, 91, 65
1, 90201, Note_off_c, 0, 97, 64
1, 90204, Note_on_c, 0, 99, 60
1, 90206, Control_c, 0, 64, 92
1, 90264, Note_on_c, 0, 82, 77
1, 90266, Note_on_c, 0, 85, 68
1, 90273, Note_on_c, 0, 90, 83
1, 90280, Note_on_c, 0, 97, 52
1, 90280, Note_off_c, 0, 99, 35
1, 90280, Control_c, 0, 64, 92
1, 90285, Note_off_c, 0, 82, 69
1, 90290, Note_off_c, 0, 85, 69
1, 90303, Note_off_c, 0, 90, 62
1, 90326, Note_off_c, 0, 97, 44
1, 90332, Note_on_c, 0, 99, 68
1, 90401, Note_off_c, 0, 99, 64
1, 90404, Note_on_c, 0, 97, 77
1, 90452, Note_off_c, 0, 97, 66
1, 90465, Control_c, 0, 64, 89
1, 90470, Note_on_c, 0, 99, 61
1, 90480, Control_c, 0, 64, 78
1, 90495, Control_c, 0, 64, 36
1, 90510, Note_on_c, 0, 59, 76
1, 90510, Control_c, 0, 64, 0
1, 90518, Note_off_c, 0, 99, 66
1, 90520, Note_on_c, 0, 95, 73
1, 90520, Note_on_c, 0, 92, 69
1, 90529, Note_on_c, 0, 96, 60
1, 90539, Control_c, 0, 64, 54
1, 90544, Note_off_c, 0, 92, 54
1, 90547, Note_off_c, 0, 59, 60
1, 90554, Note_off_c, 0, 96, 57
1, 90554, Control_c, 0, 64, 64
1, 90569, Control_c, 0, 64, 70
1, 90584, Note_off_c, 0, 95, 66
1, 90584, Control_c, 0, 64, 77
1, 90595, Note_on_c, 0, 97, 53
1, 90598, Control_c, 0, 64, 85
1, 90613, Control_c, 0, 64, 87
1, 90624, Note_off_c, 0, 97, 52
1, 90631, Note_on_c, 0, 95, 53
1, 90633, Note_on_c, 0, 91, 76
1, 90654, Note_off_c, 0, 91, 66
1, 90672, Control_c, 0, 64, 88
1, 90687, Control_c, 0, 64, 88
1, 90702, Control_c, 0, 64, 89
1, 90703, Note_off_c, 0, 95, 66
1, 90705, Note_on_c, 0, 97, 64
1, 90732, Control_c, 0, 64, 89
1, 90739, Note_off_c, 0, 97, 60
1, 90745, Poly_aftertouch_c, 0, 95, 0
1, 90751, Note_on_c, 0, 95, 70
1, 90753, Note_on_c, 0, 71, 63
1, 90758, Note_on_c, 0, 90, 83
1, 90759, Note_on_c, 0, 80, 72
1, 90781, Note_off_c, 0, 80, 65
1, 90791, Note_off_c, 0, 71, 55
1, 90791, Control_c, 0, 64, 90
1, 90797, Note_off_c, 0, 90, 60
1, 90825, Note_off_c, 0, 95, 62
1, 90827, Note_on_c, 0, 97, 69
1, 90836, Control_c, 0, 64, 90
1, 90851, Control_c, 0, 64, 91
1, 90871, Note_on_c, 0, 82, 74
1, 90880, Note_on_c, 0, 73, 55
1, 90883, Note_on_c, 0, 89, 78
1, 90884, Note_on_c, 0, 95, 53
1, 90893, Note_off_c, 0, 97, 62
1, 90904, Note_off_c, 0, 73, 57
1, 90905, Note_off_c, 0, 82, 56
1, 90920, Note_off_c, 0, 89, 63
1, 90935, Poly_aftertouch_c, 0, 97, 0
1, 90944, Note_on_c, 0, 97, 57
1, 90955, Note_off_c, 0, 95, 62
1, 90994, Note_on_c, 0, 83, 66
1, 90998, Poly_aftertouch_c, 0, 95, 0
1, 91005, Note_on_c, 0, 95, 66
1, 91009, Note_on_c, 0, 87, 78
1, 91012, Note_off_c, 0, 83, 65
1, 91018, Note_on_c, 0, 75, 47
1, 91020, Note_off_c, 0, 97, 62
1, 91036, Note_off_c, 0, 87, 62
1, 91042, Note_off_c, 0, 75, 61
1, 91073, Note_on_c, 0, 97, 65
1, 91081, Note_off_c, 0, 95, 65
1, 91138, Note_on_c, 0, 95, 64
1, 91185, Control_c, 0, 64, 90
1, 91195, Note_off_c, 0, 95, 65
1, 91200, Control_c, 0, 64, 82
1, 91214, Control_c, 0, 64, 67
1, 91218, Note_off_c, 0, 97, 65
1, 91229, Control_c, 0, 64, 0
1, 91242, Note_on_c, 0, 61, 77
1, 91249, Note_on_c, 0, 90, 67
1, 91264, Note_on_c, 0, 94, 75
1, 91268, Note_off_c, 0, 61, 62
1, 91274, Control_c, 0, 64, 62
1, 91288, Control_c, 0, 64, 69
1, 91289, Note_off_c, 0, 90, 62
1, 91303, Control_c, 0, 64, 77
1, 91317, Note_off_c, 0, 94, 64
1, 91318, Control_c, 0, 64, 87
1, 91322, Note_on_c, 0, 95, 48
1, 91333, Control_c, 0, 64, 91
1, 91369, Note_on_c, 0, 94, 49
1, 91369, Note_off_c, 0, 95, 40
1, 91370, Note_on_c, 0, 89, 67
1, 91377, Control_c, 0, 64, 91
1, 91398, Note_off_c, 0, 89, 68
1, 91435, Note_on_c, 0, 95, 54
1, 91435, Note_off_c, 0, 94, 64
1, 91489, Note_on_c, 0, 78, 80
1, 91492, Note_on_c, 0, 70, 63
1, 91492, Note_on_c, 0, 94, 65
1, 91492, Note_on_c, 0, 87, 82
1, 91500, Note_off_c, 0, 95, 65
1, 91512, Note_off_c, 0, 78, 67
1, 91518, Note_off_c, 0, 70, 57
1, 91535, Note_off_c, 0, 87, 61
1, 91565, Note_off_c, 0, 94, 65
1, 91587, Note_on_c, 0, 95, 29
1, 91614, Note_on_c, 0, 94, 56
1, 91615, Note_on_c, 0, 86, 80
1, 91619, Note_on_c, 0, 80, 83
1, 91623, Note_off_c, 0, 95, 52
1, 91655, Note_off_c, 0, 86, 62
1, 91668, Note_off_c, 0, 80, 61
1, 91698, Note_off_c, 0, 94, 65
1, 91729, Note_on_c, 0, 95, 34
1, 91745, Note_on_c, 0, 82, 99
1, 91753, Note_on_c, 0, 85, 84
1, 91753, Note_on_c, 0, 94, 69
1, 91754, Note_on_c, 0, 73, 76
1, 91762, Note_off_c, 0, 95, 33
1, 91778, Control_c, 0, 64, 92
1, 91780, Note_off_c, 0, 73, 51
1, 91784, Note_off_c, 0, 82, 65
1, 91790, Note_off_c, 0, 85, 62
1, 91826, Note_off_c, 0, 94, 65
1, 91832, Note_on_c, 0, 95, 84
1, 91916, Note_on_c, 0, 94, 49
1, 91933, Control_c, 0, 64, 91
1, 91942, Note_off_c, 0, 94, 64
1, 91963, Note_off_c, 0, 95, 66
1, 91963, Control_c, 0, 64, 89
1, 91978, Control_c, 0, 64, 78
1, 91993, Control_c, 0, 64, 55
1, 92005, Note_on_c, 0, 61, 79
1, 92008, Note_on_c, 0, 92, 79
1, 92008, Control_c, 0, 64, 0
1, 92031, Note_on_c, 0, 88, 51
1, 92037, Control_c, 0, 64, 51
1, 92043, Note_off_c, 0, 61, 58
1, 92052, Control_c, 0, 64, 64
1, 92053, Note_off_c, 0, 88, 37
1, 92067, Control_c, 0, 64, 70
1, 92069, Note_off_c, 0, 92, 60
1, 92070, Note_on_c, 0, 94, 63
1, 92082, Control_c, 0, 64, 77
1, 92097, Control_c, 0, 64, 85
1, 92111, Control_c, 0, 64, 87
1, 92131, Note_on_c, 0, 92, 60
1, 92135, Note_on_c, 0, 87, 69
1, 92136, Note_off_c, 0, 94, 62
1, 92159, Note_off_c, 0, 87, 69
1, 92182, Note_off_c, 0, 92, 60
1, 92222, Note_on_c, 0, 94, 45
1, 92238, Note_on_c, 0, 77, 85
1, 92239, Note_on_c, 0, 86, 73
1, 92242, Note_on_c, 0, 68, 69
1, 92262, Note_on_c, 0, 92, 63
1, 92263, Note_off_c, 0, 77, 63
1, 92264, Note_off_c, 0, 68, 62
1, 92264, Note_off_c, 0, 86, 66
1, 92328, Note_off_c, 0, 92, 0
1, 92332, Note_off_c, 0, 94, 0
1, 92341, Note_on_c, 0, 92, 53
1, 92353, Note_on_c, 0, 78, 85
1, 92354, Note_on_c, 0, 85, 83
1, 92368, Poly_aftertouch_c, 0, 94, 127
1, 92371, Note_on_c, 0, 70, 48
1, 92386, Note_off_c, 0, 78, 61
1, 92401, Note_off_c, 0, 70, 52
1, 92407, Note_off_c, 0, 85, 63
1, 92412, Poly_aftertouch_c, 0, 94, 0
1, 92425, Note_off_c, 0, 92, 64
1, 92437, Control_c, 0, 64, 82
1, 92452, Control_c, 0, 64, 70
1, 92466, Note_on_c, 0, 80, 92
1, 92467, Control_c, 0, 64, 0
1, 92474, Note_on_c, 0, 70, 48
1, 92488, Note_on_c, 0, 83, 73
1, 92497, Note_off_c, 0, 70, 58
1, 92512, Control_c, 0, 64, 62
1, 92520, Note_off_c, 0, 80, 63
1, 92527, Control_c, 0, 64, 68
1, 92535, Note_on_c, 0, 87, 66
1, 92541, Control_c, 0, 64, 75
1, 92556, Control_c, 0, 64, 83
1, 92566, Note_off_c, 0, 83, 52
1, 92571, Control_c, 0, 64, 87
1, 92592, Note_on_c, 0, 88, 65
1, 92593, Control_c, 0, 64, 88
1, 92631, Note_on_c, 0, 89, 68
1, 92631, Note_off_c, 0, 87, 61
1, 92638, Control_c, 0, 64, 87
1, 92641, Note_on_c, 0, 66, 60
1, 92650, Note_off_c, 0, 88, 63
1, 92653, Control_c, 0, 64, 81
1, 92658, Note_off_c, 0, 89, 67
1, 92660, Note_on_c, 0, 73, 69
1, 92667, Control_c, 0, 64, 68
1, 92675, Note_off_c, 0, 66, 57
1, 92682, Control_c, 0, 64, 0
1, 92712, Control_c, 0, 64, 29
1, 92727, Control_c, 0, 64, 64
1, 92728, Note_on_c, 0, 90, 78
1, 92733, Note_on_c, 0, 82, 88
1, 92740, Note_off_c, 0, 73, 63
1, 92741, Control_c, 0, 64, 72
1, 92749, Note_on_c, 0, 80, 52
1, 92756, Control_c, 0, 64, 81
1, 92761, Note_off_c, 0, 82, 59
1, 92764, Note_on_c, 0, 92, 75
1, 92768, Note_off_c, 0, 90, 62
1, 92771, Note_off_c, 0, 80, 62
1, 92771, Control_c, 0, 64, 89
1, 92786, Control_c, 0, 64, 92
1, 92797, Note_off_c, 0, 92, 54
1, 92801, Control_c, 0, 64, 94
1, 92815, Control_c, 0, 64, 96
1, 92830, Control_c, 0, 64, 96
1, 92831, Note_on_c, 0, 90, 62
1, 92845, Control_c, 0, 64, 97
1, 92860, Control_c, 0, 64, 97
1, 92868, Note_on_c, 0, 92, 78
1, 92870, Note_off_c, 0, 90, 60
1, 92928, Note_off_c, 0, 92, 64
1, 92934, Control_c, 0, 64, 97
1, 92949, Control_c, 0, 64, 93
1, 92958, Note_on_c, 0, 78, 96
1, 92964, Control_c, 0, 64, 80
1, 92979, Control_c, 0, 64, 60
1, 92993, Control_c, 0, 64, 0
1, 93015, Note_off_c, 0, 78, 60
1, 93023, Control_c, 0, 64, 53
1, 93038, Control_c, 0, 64, 65
1, 93049, Note_on_c, 0, 90, 74
1, 93053, Control_c, 0, 64, 72
1, 93067, Control_c, 0, 64, 79
1, 93082, Control_c, 0, 64, 86
1, 93089, Note_off_c, 0, 90, 61
1, 93093, Note_on_c, 0, 92, 75
1, 93097, Control_c, 0, 64, 88
1, 93131, Note_off_c, 0, 92, 60
1, 93160, Note_on_c, 0, 90, 66
1, 93185, Control_c, 0, 64, 87
1, 93191, Note_off_c, 0, 90, 64
1, 93200, Control_c, 0, 64, 81
1, 93207, Note_on_c, 0, 79, 91
1, 93215, Control_c, 0, 64, 67
1, 93230, Control_c, 0, 64, 0
1, 93261, Control_c, 0, 64, 19
1, 93268, Note_on_c, 0, 91, 75
1, 93276, Control_c, 0, 64, 63
1, 93278, Note_off_c, 0, 79, 60
1, 93290, Control_c, 0, 64, 69
1, 93297, Note_off_c, 0, 91, 62
1, 93301, Note_on_c, 0, 92, 75
1, 93305, Control_c, 0, 64, 75
1, 93320, Control_c, 0, 64, 82
1, 93342, Control_c, 0, 64, 86
1, 93357, Control_c, 0, 64, 87
1, 93361, Note_off_c, 0, 92, 65
1, 93372, Note_on_c, 0, 91, 64
1, 93407, Note_off_c, 0, 91, 60
1, 93431, Control_c, 0, 64, 84
1, 93446, Control_c, 0, 64, 75
1, 93451, Note_on_c, 0, 80, 92
1, 93461, Control_c, 0, 64, 54
1, 93476, Control_c, 0, 64, 0
1, 93493, Note_off_c, 0, 80, 63
1, 93505, Control_c, 0, 64, 60
1, 93513, Note_on_c, 0, 92, 68
1, 93520, Control_c, 0, 64, 67
1, 93533, Note_off_c, 0, 92, 59
1, 93535, Control_c, 0, 64, 74
1, 93549, Control_c, 0, 64, 83
1, 93564, Control_c, 0, 64, 89
1, 93573, Note_on_c, 0, 93, 64
1, 93579, Control_c, 0, 64, 90
1, 93591, Note_on_c, 0, 64, 64
1, 93594, Control_c, 0, 64, 91
1, 93621, Note_off_c, 0, 64, 66
1, 93633, Note_off_c, 0, 93, 61
1, 93655, Note_on_c, 0, 92, 73
1, 93693, Note_on_c, 0, 80, 91
1, 93707, Note_on_c, 0, 93, 69
1, 93740, Note_off_c, 0, 80, 64
1, 93743, Note_off_c, 0, 92, 35
1, 93774, Note_off_c, 0, 93, 60
1, 93790, Note_on_c, 0, 92, 60
1, 93847, Note_off_c, 0, 92, 63
1, 93852, Note_on_c, 0, 63, 78
1, 93861, Control_c, 0, 64, 88
1, 93862, Note_on_c, 0, 93, 58
1, 93876, Control_c, 0, 64, 77
1, 93890, Control_c, 0, 64, 58
1, 93904, Note_off_c, 0, 93, 57
1, 93905, Control_c, 0, 64, 0
1, 93907, Note_off_c, 0, 63, 52
1, 93934, Control_c, 0, 64, 21
1, 93940, Note_on_c, 0, 92, 62
1, 93943, Note_on_c, 0, 78, 88
1, 93949, Control_c, 0, 64, 63
1, 93964, Control_c, 0, 64, 69
1, 93979, Control_c, 0, 64, 75
1, 93980, Note_off_c, 0, 78, 63
1, 93980, Note_off_c, 0, 92, 60
1, 93987, Note_on_c, 0, 93, 69
1, 93994, Control_c, 0, 64, 82
1, 94008, Control_c, 0, 64, 86
1, 94023, Control_c, 0, 64, 87
1, 94056, Note_off_c, 0, 93, 59
1, 94093, Note_on_c, 0, 61, 80
1, 94096, Note_on_c, 0, 92, 55
1, 94116, Note_off_c, 0, 92, 61
1, 94121, Note_on_c, 0, 93, 58
1, 94136, Control_c, 0, 64, 82
1, 94150, Note_off_c, 0, 61, 58
1, 94151, Control_c, 0, 64, 69
1, 94165, Control_c, 0, 64, 0
1, 94189, Note_off_c, 0, 93, 61
1, 94190, Note_on_c, 0, 76, 75
1, 94195, Control_c, 0, 64, 43
1, 94198, Note_on_c, 0, 92, 61
1, 94210, Control_c, 0, 64, 63
1, 94221, Note_off_c, 0, 76, 63
1, 94225, Control_c, 0, 64, 68
1, 94227, Note_off_c, 0, 92, 66
1, 94239, Control_c, 0, 64, 75
1, 94240, Note_on_c, 0, 93, 53
1, 94254, Control_c, 0, 64, 83
1, 94269, Control_c, 0, 64, 88
1, 94283, Note_off_c, 0, 93, 58
1, 94284, Control_c, 0, 64, 89
1, 94299, Control_c, 0, 64, 90
1, 94307, Note_on_c, 0, 92, 73
1, 94328, Control_c, 0, 64, 90
1, 94357, Note_off_c, 0, 92, 66
1, 94387, Control_c, 0, 64, 87
1, 94395, Note_on_c, 0, 92, 53
1, 94402, Control_c, 0, 64, 77
1, 94414, Note_on_c, 0, 87, 92
1, 94415, Note_on_c, 0, 102, 73
1, 94417, Control_c, 0, 64, 61
1, 94432, Control_c, 0, 64, 0
1, 94446, Control_c, 0, 64, 37
1, 94453, Note_off_c, 0, 92, 64
1, 94455, Note_on_c, 0, 94, 36
1, 94461, Control_c, 0, 64, 64
1, 94470, Note_on_c, 0, 93, 63
1, 94473, Note_off_c, 0, 87, 62
1, 94476, Control_c, 0, 64, 68
1, 94480, Note_off_c, 0, 102, 59
1, 94484, Note_off_c, 0, 94, 35
1, 94491, Control_c, 0, 64, 75
1, 94506, Control_c, 0, 64, 82
1, 94507, Note_off_c, 0, 93, 53
1, 94521, Control_c, 0, 64, 87
1, 94521, Note_on_c, 0, 92, 54
1, 94535, Control_c, 0, 64, 89
1, 94554, Note_off_c, 0, 92, 62
1, 94565, Control_c, 0, 64, 89
1, 94571, Note_on_c, 0, 93, 65
1, 94610, Control_c, 0, 64, 89
1, 94622, Note_off_c, 0, 93, 53
1, 94625, Control_c, 0, 64, 86
1, 94639, Control_c, 0, 64, 75
1, 94640, Note_on_c, 0, 85, 85
1, 94644, Note_on_c, 0, 92, 80
1, 94649, Note_on_c, 0, 100, 80
1, 94654, Control_c, 0, 64, 54
1, 94669, Control_c, 0, 64, 0
1, 94673, Note_off_c, 0, 85, 65
1, 94698, Note_off_c, 0, 92, 63
1, 94698, Control_c, 0, 64, 58
1, 94713, Control_c, 0, 64, 66
1, 94724, Note_on_c, 0, 93, 67
1, 94726, Note_off_c, 0, 100, 63
1, 94728, Control_c, 0, 64, 72
1, 94743, Control_c, 0, 64, 80
1, 94757, Control_c, 0, 64, 85
1, 94758, Note_off_c, 0, 93, 62
1, 94763, Note_on_c, 0, 68, 74
1, 94772, Control_c, 0, 64, 87
1, 94774, Note_on_c, 0, 92, 75
1, 94795, Note_off_c, 0, 68, 60
1, 94821, Note_off_c, 0, 92, 65
1, 94839, Control_c, 0, 64, 84
1, 94842, Note_on_c, 0, 93, 56
1, 94854, Control_c, 0, 64, 75
1, 94869, Control_c, 0, 64, 56
1, 94882, Note_on_c, 0, 99, 86
1, 94884, Note_on_c, 0, 84, 81
1, 94884, Control_c, 0, 64, 0
1, 94897, Note_on_c, 0, 92, 78
1, 94899, Note_off_c, 0, 93, 59
1, 94899, Control_c, 0, 64, 55
1, 94914, Control_c, 0, 64, 66
1, 94920, Note_off_c, 0, 84, 62
1, 94929, Control_c, 0, 64, 71
1, 94944, Control_c, 0, 64, 78
1, 94956, Note_off_c, 0, 99, 69
1, 94959, Control_c, 0, 64, 85
1, 94962, Note_off_c, 0, 92, 61
1, 94965, Note_on_c, 0, 93, 66
1, 94974, Control_c, 0, 64, 88
1, 94988, Control_c, 0, 64, 89
1, 95003, Control_c, 0, 64, 89
1, 95028, Note_off_c, 0, 93, 61
1, 95043, Note_on_c, 0, 92, 62
1, 95062, Control_c, 0, 64, 89
1, 95077, Control_c, 0, 64, 86
1, 95092, Control_c, 0, 64, 73
1, 95096, Note_off_c, 0, 92, 64
1, 95103, Note_on_c, 0, 93, 61
1, 95104, Note_on_c, 0, 82, 79
1, 95106, Control_c, 0, 64, 52
1, 95108, Note_on_c, 0, 97, 73
1, 95121, Control_c, 0, 64, 0
1, 95136, Control_c, 0, 64, 59
1, 95151, Control_c, 0, 64, 67
1, 95161, Note_off_c, 0, 93, 55
1, 95166, Control_c, 0, 64, 72
1, 95171, Note_off_c, 0, 97, 63
1, 95173, Note_off_c, 0, 82, 57
1, 95176, Note_on_c, 0, 92, 65
1, 95181, Control_c, 0, 64, 79
1, 95195, Control_c, 0, 64, 86
1, 95210, Control_c, 0, 64, 88
1, 95215, Note_on_c, 0, 93, 65
1, 95225, Control_c, 0, 64, 88
1, 95227, Note_off_c, 0, 92, 63
1, 95290, Note_off_c, 0, 93, 55
1, 95299, Control_c, 0, 64, 86
1, 95313, Control_c, 0, 64, 77
1, 95319, Note_on_c, 0, 92, 78
1, 95328, Note_on_c, 0, 84, 73
1, 95328, Control_c, 0, 64, 58
1, 95334, Note_on_c, 0, 99, 75
1, 95343, Control_c, 0, 64, 0
1, 95352, Note_on_c, 0, 93, 60
1, 95373, Control_c, 0, 64, 56
1, 95376, Note_off_c, 0, 92, 56
1, 95388, Control_c, 0, 64, 65
1, 95393, Note_off_c, 0, 99, 64
1, 95403, Control_c, 0, 64, 71
1, 95406, Note_off_c, 0, 84, 60
1, 95418, Control_c, 0, 64, 77
1, 95433, Control_c, 0, 64, 83
1, 95433, Note_on_c, 0, 92, 56
1, 95448, Control_c, 0, 64, 86
1, 95455, Note_off_c, 0, 93, 0
1, 95466, Note_on_c, 0, 93, 42
1, 95484, Note_off_c, 0, 92, 60
1, 95536, Control_c, 0, 64, 82
1, 95547, Note_off_c, 0, 93, 50
1, 95551, Control_c, 0, 64, 72
1, 95558, Note_on_c, 0, 92, 75
1, 95560, Note_on_c, 0, 100, 77
1, 95564, Note_on_c, 0, 85, 81
1, 95566, Control_c, 0, 64, 0
1, 95587, Note_on_c, 0, 73, 42
1, 95603, Control_c, 0, 64, 45
1, 95618, Control_c, 0, 64, 64
1, 95623, Note_off_c, 0, 73, 55
1, 95624, Note_off_c, 0, 92, 64
1, 95629, Note_off_c, 0, 85, 63
1, 95632, Control_c, 0, 64, 69
1, 95639, Note_on_c, 0, 93, 61
1, 95647, Note_off_c, 0, 100, 62
1, 95647, Control_c, 0, 64, 75
1, 95663, Control_c, 0, 64, 83
1, 95677, Control_c, 0, 64, 88
1, 95680, Note_on_c, 0, 92, 61
1, 95692, Control_c, 0, 64, 88
1, 95695, Note_off_c, 0, 93, 54
1, 95707, Control_c, 0, 64, 89
1, 95738, Note_on_c, 0, 93, 47
1, 95742, Note_off_c, 0, 92, 63
1, 95766, Control_c, 0, 64, 88
1, 95781, Control_c, 0, 64, 87
1, 95796, Control_c, 0, 64, 80
1, 95796, Control_c, 0, 67, 8
1, 95810, Control_c, 0, 64, 65
1, 95810, Control_c, 0, 67, 20
1, 95823, Note_on_c, 0, 97, 75
1, 95825, Control_c, 0, 64, 0
1, 95825, Control_c, 0, 67, 38
1, 95829, Note_on_c, 0, 92, 71
1, 95831, Note_on_c, 0, 88, 81
1, 95833, Note_off_c, 0, 93, 61
1, 95840, Control_c, 0, 67, 66
1, 95855, Control_c, 0, 67, 102
1, 95868, Note_off_c, 0, 92, 61
1, 95870, Control_c, 0, 67, 127
1, 95871, Note_off_c, 0, 88, 59
1, 95876, Note_off_c, 0, 97, 63
1, 95884, Control_c, 0, 64, 59
1, 95899, Control_c, 0, 64, 67
1, 95914, Control_c, 0, 64, 71
1, 95928, Control_c, 0, 64, 76
1, 95943, Control_c, 0, 64, 81
1, 95958, Control_c, 0, 64, 83
1, 95973, Control_c, 0, 64, 84
1, 95988, Control_c, 0, 64, 85
1, 96047, Control_c, 0, 64, 82
1, 96062, Control_c, 0, 64, 74
1, 96077, Control_c, 0, 64, 57
1, 96088, Note_on_c, 0, 79, 74
1, 96091, Control_c, 0, 64, 0
1, 96121, Control_c, 0, 64, 59
1, 96127, Note_on_c, 0, 91, 55
1, 96136, Control_c, 0, 64, 65
1, 96136, Note_off_c, 0, 79, 57
1, 96151, Control_c, 0, 64, 70
1, 96160, Note_off_c, 0, 91, 61
1, 96166, Control_c, 0, 64, 75
1, 96181, Control_c, 0, 64, 81
1, 96192, Note_on_c, 0, 93, 54
1, 96196, Control_c, 0, 64, 84
1, 96220, Note_off_c, 0, 93, 62
1, 96261, Note_on_c, 0, 91, 40
1, 96270, Control_c, 0, 64, 82
1, 96284, Control_c, 0, 64, 76
1, 96286, Note_off_c, 0, 91, 35
1, 96298, Note_on_c, 0, 78, 75
1, 96299, Control_c, 0, 64, 65
1, 96314, Control_c, 0, 64, 0
1, 96330, Note_off_c, 0, 78, 59
1, 96336, Control_c, 0, 64, 47
1, 96343, Note_on_c, 0, 90, 66
1, 96351, Control_c, 0, 64, 63
1, 96366, Control_c, 0, 64, 67
1, 96381, Control_c, 0, 64, 71
1, 96396, Control_c, 0, 64, 76
1, 96404, Note_off_c, 0, 90, 58
1, 96410, Control_c, 0, 64, 81
1, 96425, Control_c, 0, 64, 83
1, 96427, Note_on_c, 0, 92, 61
1, 96437, Note_on_c, 0, 63, 58
1, 96440, Control_c, 0, 64, 84
1, 96461, Note_off_c, 0, 92, 62
1, 96464, Note_off_c, 0, 63, 57
1, 96506, Note_on_c, 0, 90, 61
1, 96542, Note_on_c, 0, 78, 78
1, 96549, Note_off_c, 0, 90, 55
1, 96570, Note_on_c, 0, 92, 65
1, 96570, Note_off_c, 0, 78, 60
1, 96609, Note_off_c, 0, 92, 54
1, 96654, Note_on_c, 0, 90, 66
1, 96678, Control_c, 0, 64, 83
1, 96680, Note_on_c, 0, 61, 65
1, 96693, Control_c, 0, 64, 78
1, 96697, Note_off_c, 0, 90, 56
1, 96707, Control_c, 0, 64, 67
1, 96713, Note_off_c, 0, 61, 61
1, 96717, Note_on_c, 0, 92, 63
1, 96722, Control_c, 0, 64, 0
1, 96751, Control_c, 0, 64, 56
1, 96753, Note_off_c, 0, 92, 58
1, 96766, Control_c, 0, 64, 64
1, 96781, Control_c, 0, 64, 68
1, 96783, Note_on_c, 0, 76, 63
1, 96792, Note_on_c, 0, 90, 61
1, 96796, Control_c, 0, 64, 73
1, 96809, Note_off_c, 0, 76, 71
1, 96811, Control_c, 0, 64, 81
1, 96825, Control_c, 0, 64, 84
1, 96834, Note_off_c, 0, 90, 56
1, 96840, Control_c, 0, 64, 85
1, 96858, Note_on_c, 0, 92, 66
1, 96890, Note_off_c, 0, 92, 58
1, 96899, Control_c, 0, 64, 84
1, 96914, Control_c, 0, 64, 77
1, 96922, Note_on_c, 0, 59, 64
1, 96929, Control_c, 0, 64, 64
1, 96940, Note_on_c, 0, 90, 57
1, 96944, Control_c, 0, 64, 0
1, 96947, Note_off_c, 0, 59, 62
1, 96974, Control_c, 0, 64, 60
1, 96974, Note_off_c, 0, 90, 59
1, 96989, Control_c, 0, 64, 65
1, 96995, Note_on_c, 0, 92, 64
1, 97004, Control_c, 0, 64, 70
1, 97019, Control_c, 0, 64, 75
1, 97027, Note_off_c, 0, 92, 60
1, 97033, Note_on_c, 0, 75, 72
1, 97033, Control_c, 0, 64, 81
1, 97048, Control_c, 0, 64, 83
1, 97063, Note_off_c, 0, 75, 64
1, 97063, Control_c, 0, 64, 84
1, 97080, Note_on_c, 0, 90, 61
1, 97114, Control_c, 0, 64, 84
1, 97116, Note_off_c, 0, 90, 56
1, 97137, Note_on_c, 0, 92, 65
1, 97162, Note_off_c, 0, 92, 68
1, 97188, Control_c, 0, 64, 83
1, 97203, Control_c, 0, 64, 76
1, 97212, Note_on_c, 0, 90, 61
1, 97218, Control_c, 0, 64, 64
1, 97233, Control_c, 0, 64, 0
1, 97263, Control_c, 0, 64, 59
1, 97264, Note_on_c, 0, 100, 68
1, 97268, Note_on_c, 0, 85, 73
1, 97278, Control_c, 0, 64, 65
1, 97288, Note_off_c, 0, 90, 42
1, 97293, Control_c, 0, 64, 71
1, 97299, Note_off_c, 0, 100, 61
1, 97305, Note_on_c, 0, 92, 59
1, 97308, Control_c, 0, 64, 77
1, 97310, Note_off_c, 0, 85, 48
1, 97323, Control_c, 0, 64, 83
1, 97326, Note_off_c, 0, 92, 64
1, 97337, Control_c, 0, 64, 85
1, 97352, Control_c, 0, 64, 87
1, 97366, Note_on_c, 0, 90, 62
1, 97367, Control_c, 0, 64, 87
1, 97382, Control_c, 0, 64, 88
1, 97397, Control_c, 0, 64, 88
1, 97406, Note_off_c, 0, 90, 58
1, 97412, Note_on_c, 0, 92, 59
1, 97442, Control_c, 0, 64, 87
1, 97448, Note_off_c, 0, 92, 60
1, 97456, Control_c, 0, 64, 81
1, 97471, Note_on_c, 0, 83, 73
1, 97471, Control_c, 0, 64, 70
1, 97481, Note_on_c, 0, 99, 70
1, 97486, Control_c, 0, 64, 0
1, 97492, Note_on_c, 0, 90, 59
1, 97495, Note_off_c, 0, 83, 64
1, 97515, Control_c, 0, 64, 56
1, 97530, Control_c, 0, 64, 65
1, 97540, Note_off_c, 0, 90, 59
1, 97545, Control_c, 0, 64, 69
1, 97552, Note_on_c, 0, 92, 67
1, 97554, Note_off_c, 0, 99, 65
1, 97560, Control_c, 0, 64, 74
1, 97574, Control_c, 0, 64, 80
1, 97581, Note_off_c, 0, 92, 63
1, 97589, Control_c, 0, 64, 84
1, 97603, Note_on_c, 0, 66, 73
1, 97604, Note_on_c, 0, 90, 64
1, 97604, Control_c, 0, 64, 85
1, 97631, Note_off_c, 0, 66, 69
1, 97653, Note_off_c, 0, 90, 60
1, 97663, Control_c, 0, 64, 84
1, 97670, Note_on_c, 0, 92, 50
1, 97678, Control_c, 0, 64, 76
1, 97693, Control_c, 0, 64, 64
1, 97707, Note_off_c, 0, 92, 54
1, 97707, Control_c, 0, 64, 13
1, 97709, Note_on_c, 0, 82, 83
1, 97714, Note_on_c, 0, 97, 77
1, 97722, Control_c, 0, 64, 57
1, 97736, Note_off_c, 0, 82, 62
1, 97737, Note_on_c, 0, 90, 59
1, 97737, Control_c, 0, 64, 65
1, 97752, Control_c, 0, 64, 69
1, 97767, Control_c, 0, 64, 75
1, 97782, Control_c, 0, 64, 81
1, 97788, Note_off_c, 0, 90, 56
1, 97797, Control_c, 0, 64, 85
1, 97797, Note_on_c, 0, 92, 68
1, 97811, Control_c, 0, 64, 87
1, 97818, Note_off_c, 0, 97, 56
1, 97834, Control_c, 0, 64, 88
1, 97844, Note_off_c, 0, 92, 54
1, 97890, Note_on_c, 0, 90, 57
1, 97907, Control_c, 0, 64, 84
1, 97920, Note_off_c, 0, 90, 57
1, 97922, Control_c, 0, 64, 76
1, 97937, Control_c, 0, 64, 63
1, 97943, Note_on_c, 0, 95, 54
1, 97944, Note_on_c, 0, 92, 57
1, 97952, Control_c, 0, 64, 0
1, 97955, Note_on_c, 0, 80, 52
1, 97967, Control_c, 0, 64, 59
1, 97978, Note_off_c, 0, 80, 57
1, 97981, Control_c, 0, 64, 67
1, 97984, Note_off_c, 0, 95, 62
1, 97987, Note_off_c, 0, 92, 61
1, 97996, Control_c, 0, 64, 72
1, 98003, Note_on_c, 0, 90, 69
1, 98011, Control_c, 0, 64, 78
1, 98026, Control_c, 0, 64, 83
1, 98041, Control_c, 0, 64, 86
1, 98051, Note_off_c, 0, 90, 57
1, 98056, Note_on_c, 0, 95, 38
1, 98057, Control_c, 0, 64, 86
1, 98072, Control_c, 0, 64, 87
1, 98077, Note_on_c, 0, 92, 48
1, 98106, Note_off_c, 0, 95, 62
1, 98124, Note_off_c, 0, 92, 60
1, 98130, Control_c, 0, 64, 86
1, 98145, Control_c, 0, 64, 81
1, 98152, Note_on_c, 0, 82, 77
1, 98159, Note_on_c, 0, 97, 79
1, 98160, Note_on_c, 0, 90, 78
1, 98160, Control_c, 0, 64, 68
1, 98175, Control_c, 0, 64, 40
1, 98190, Control_c, 0, 64, 32
1, 98195, Note_off_c, 0, 82, 59
1, 98205, Control_c, 0, 64, 59
1, 98208, Note_off_c, 0, 90, 49
1, 98220, Control_c, 0, 64, 65
1, 98235, Note_on_c, 0, 92, 67
1, 98235, Control_c, 0, 64, 69
1, 98244, Note_off_c, 0, 97, 64
1, 98250, Control_c, 0, 64, 75
1, 98261, Note_off_c, 0, 92, 67
1, 98265, Control_c, 0, 64, 80
1, 98279, Control_c, 0, 64, 82
1, 98285, Note_on_c, 0, 90, 64
1, 98336, Note_off_c, 0, 90, 57
1, 98351, Note_on_c, 0, 92, 61
1, 98368, Control_c, 0, 64, 81
1, 98381, Note_off_c, 0, 92, 65
1, 98383, Control_c, 0, 64, 75
1, 98389, Note_on_c, 0, 71, 55
1, 98392, Note_on_c, 0, 83, 61
1, 98393, Note_on_c, 0, 99, 77
1, 98398, Control_c, 0, 64, 64
1, 98406, Note_on_c, 0, 90, 64
1, 98412, Control_c, 0, 64, 0
1, 98417, Note_off_c, 0, 71, 52
1, 98417, Note_off_c, 0, 83, 57
1, 98427, Control_c, 0, 64, 39
1, 98442, Control_c, 0, 64, 63
1, 98455, Note_off_c, 0, 90, 62
1, 98457, Control_c, 0, 64, 66
1, 98466, Note_on_c, 0, 92, 65
1, 98472, Control_c, 0, 64, 70
1, 98486, Note_off_c, 0, 92, 57
1, 98486, Control_c, 0, 64, 75
1, 98501, Note_off_c, 0, 99, 62
1, 98501, Control_c, 0, 64, 81
1, 98516, Control_c, 0, 64, 84
1, 98521, Note_on_c, 0, 90, 61
1, 98530, Control_c, 0, 64, 85
1, 98586, Note_off_c, 0, 90, 54
1, 98612, Control_c, 0, 64, 83
1, 98627, Control_c, 0, 64, 74
1, 98629, Note_on_c, 0, 90, 58
1, 98637, Note_on_c, 0, 95, 81
1, 98642, Control_c, 0, 64, 56
1, 98643, Note_on_c, 0, 87, 77
1, 98657, Control_c, 0, 64, 0
1, 98666, Note_off_c, 0, 87, 68
1, 98668, Note_off_c, 0, 90, 63
1, 98679, Note_off_c, 0, 95, 65
1, 98686, Control_c, 0, 64, 60
1, 98701, Control_c, 0, 64, 67
1, 98716, Control_c, 0, 64, 73
1, 98730, Control_c, 0, 64, 81
1, 98745, Control_c, 0, 64, 86
1, 98745, Control_c, 0, 67, 94
1, 98760, Control_c, 0, 64, 87
1, 98760, Control_c, 0, 67, 56
1, 98775, Control_c, 0, 64, 88
1, 98775, Control_c, 0, 67, 14
1, 98790, Control_c, 0, 67, 0
1, 98834, Control_c, 0, 64, 87
1, 98850, Control_c, 0, 64, 86
1, 98865, Control_c, 0, 64, 79
1, 98880, Control_c, 0, 64, 65
1, 98887, Note_on_c, 0, 74, 73
1, 98895, Control_c, 0, 64, 0
1, 98930, Note_on_c, 0, 86, 70
1, 98939, Control_c, 0, 64, 63
1, 98953, Control_c, 0, 64, 69
1, 98955, Note_off_c, 0, 74, 63
1, 98961, Note_off_c, 0, 86, 61
1, 98968, Control_c, 0, 64, 76
1, 98983, Note_on_c, 0, 87, 60
1, 98983, Control_c, 0, 64, 82
1, 98998, Control_c, 0, 64, 85
1, 99037, Note_on_c, 0, 86, 65
1, 99039, Note_off_c, 0, 87, 64
1, 99057, Control_c, 0, 64, 84
1, 99062, Note_off_c, 0, 86, 68
1, 99072, Control_c, 0, 64, 78
1, 99087, Control_c, 0, 64, 64
1, 99102, Control_c, 0, 64, 0
1, 99114, Note_on_c, 0, 75, 88
1, 99147, Control_c, 0, 64, 60
1, 99161, Control_c, 0, 64, 68
1, 99164, Note_off_c, 0, 75, 64
1, 99165, Note_on_c, 0, 87, 75
1, 99176, Control_c, 0, 64, 75
1, 99191, Control_c, 0, 64, 81
1, 99206, Control_c, 0, 64, 85
1, 99221, Control_c, 0, 64, 85
1, 99223, Note_off_c, 0, 87, 61
1, 99226, Note_on_c, 0, 88, 65
1, 99290, Note_off_c, 0, 88, 62
1, 99309, Control_c, 0, 64, 85
1, 99318, Note_on_c, 0, 87, 59
1, 99332, Control_c, 0, 64, 81
1, 99347, Control_c, 0, 64, 71
1, 99353, Note_on_c, 0, 67, 71
1, 99356, Note_on_c, 0, 63, 57
1, 99359, Note_on_c, 0, 75, 72
1, 99361, Control_c, 0, 64, 24
1, 99364, Note_off_c, 0, 87, 56
1, 99376, Control_c, 0, 64, 0
1, 99382, Note_on_c, 0, 88, 60
1, 99406, Control_c, 0, 64, 59
1, 99418, Note_off_c, 0, 75, 62
1, 99421, Note_off_c, 0, 67, 60
1, 99421, Control_c, 0, 64, 67
1, 99433, Note_off_c, 0, 88, 60
1, 99435, Control_c, 0, 64, 72
1, 99450, Control_c, 0, 64, 77
1, 99462, Note_off_c, 0, 63, 39
1, 99464, Note_on_c, 0, 87, 61
1, 99465, Control_c, 0, 64, 81
1, 99479, Control_c, 0, 64, 81
1, 99505, Note_off_c, 0, 87, 58
1, 99522, Note_on_c, 0, 88, 60
1, 99539, Control_c, 0, 64, 80
1, 99553, Control_c, 0, 64, 78
1, 99561, Note_off_c, 0, 88, 57
1, 99568, Control_c, 0, 64, 70
1, 99583, Control_c, 0, 64, 29
1, 99591, Note_on_c, 0, 74, 71
1, 99597, Note_on_c, 0, 68, 66
1, 99598, Note_on_c, 0, 87, 55
1, 99598, Control_c, 0, 64, 0
1, 99600, Note_on_c, 0, 65, 56
1, 99613, Control_c, 0, 64, 21
1, 99627, Note_off_c, 0, 65, 62
1, 99627, Note_off_c, 0, 87, 63
1, 99627, Control_c, 0, 64, 63
1, 99629, Note_on_c, 0, 88, 60
1, 99640, Note_off_c, 0, 74, 61
1, 99642, Control_c, 0, 64, 68
1, 99658, Control_c, 0, 64, 74
1, 99669, Note_off_c, 0, 68, 63
1, 99673, Control_c, 0, 64, 80
1, 99688, Control_c, 0, 64, 85
1, 99703, Control_c, 0, 64, 86
1, 99705, Note_off_c, 0, 88, 61
1, 99711, Note_on_c, 0, 87, 71
1, 99758, Note_off_c, 0, 87, 60
1, 99806, Control_c, 0, 64, 86
1, 99821, Control_c, 0, 64, 80
1, 99836, Note_on_c, 0, 70, 52
1, 99836, Control_c, 0, 64, 68
1, 99838, Note_on_c, 0, 67, 54
1, 99845, Note_on_c, 0, 73, 60
1, 99850, Control_c, 0, 64, 0
1, 99851, Note_on_c, 0, 88, 51
1, 99874, Note_off_c, 0, 88, 60
1, 99880, Note_on_c, 0, 87, 59
1, 99910, Control_c, 0, 64, 60
1, 99911, Note_off_c, 0, 87, 64
1, 99925, Control_c, 0, 64, 68
1, 99928, Note_on_c, 0, 86, 58
1, 99940, Control_c, 0, 64, 73
1, 99955, Control_c, 0, 64, 80
1, 99969, Control_c, 0, 64, 84
1, 99984, Control_c, 0, 64, 86
1, 99985, Note_off_c, 0, 86, 61
1, 99993, Note_on_c, 0, 87, 67
1, 99999, Control_c, 0, 64, 87
1, 100014, Control_c, 0, 64, 89
1, 100016, Note_off_c, 0, 87, 64
1, 100029, Control_c, 0, 64, 91
1, 100044, Control_c, 0, 64, 93
1, 100055, Note_on_c, 0, 88, 68
1, 100058, Control_c, 0, 64, 94
1, 100080, Control_c, 0, 64, 95
1, 100095, Control_c, 0, 64, 97
1, 100110, Control_c, 0, 64, 98
1, 100121, Note_off_c, 0, 88, 61
1, 100125, Control_c, 0, 64, 100
1, 100126, Note_on_c, 0, 89, 67
1, 100140, Control_c, 0, 64, 101
1, 100154, Control_c, 0, 64, 103
1, 100160, Note_off_c, 0, 89, 63
1, 100166, Note_on_c, 0, 90, 70
1, 100169, Control_c, 0, 64, 104
1, 100184, Control_c, 0, 64, 106
1, 100188, Note_off_c, 0, 90, 67
1, 100199, Control_c, 0, 64, 110
1, 100214, Control_c, 0, 64, 113
1, 100227, Note_on_c, 0, 91, 75
1, 100229, Control_c, 0, 64, 116
1, 100244, Control_c, 0, 64, 119
1, 100258, Control_c, 0, 64, 123
1, 100273, Control_c, 0, 64, 127
1, 100274, Note_on_c, 0, 92, 75
1, 100275, Note_off_c, 0, 73, 50
1, 100298, Note_off_c, 0, 91, 57
1, 100299, Note_off_c, 0, 67, 38
1, 100302, Note_off_c, 0, 70, 37
1, 100316, Note_on_c, 0, 93, 71
1, 100353, Note_on_c, 0, 94, 81
1, 100365, Note_off_c, 0, 92, 65
1, 100372, Note_off_c, 0, 93, 63
1, 100386, Note_off_c, 0, 94, 68
1, 100420, Note_on_c, 0, 95, 81
1, 100479, Note_on_c, 0, 96, 68
1, 100491, Note_off_c, 0, 95, 56
1, 100501, Note_on_c, 0, 97, 79
1, 100501, Note_off_c, 0, 96, 69
1, 100522, Note_off_c, 0, 97, 70
1, 100571, Note_on_c, 0, 98, 71
1, 100604, Note_on_c, 0, 99, 77
1, 100614, Control_c, 0, 64, 107
1, 100621, Note_off_c, 0, 98, 64
1, 100627, Note_on_c, 0, 71, 60
1, 100629, Control_c, 0, 64, 86
1, 100632, Note_on_c, 0, 68, 60
1, 100633, Note_on_c, 0, 76, 65
1, 100633, Note_on_c, 0, 100, 70
1, 100644, Control_c, 0, 64, 68
1, 100655, Note_off_c, 0, 99, 65
1, 100659, Control_c, 0, 64, 0
1, 100665, Note_off_c, 0, 100, 60
1, 100674, Note_on_c, 0, 102, 74
1, 100688, Control_c, 0, 64, 59
1, 100703, Control_c, 0, 64, 65
1, 100717, Note_off_c, 0, 102, 67
1, 100718, Control_c, 0, 64, 69
1, 100733, Control_c, 0, 64, 76
1, 100734, Note_on_c, 0, 100, 72
1, 100748, Control_c, 0, 64, 85
1, 100763, Control_c, 0, 64, 91
1, 100774, Note_off_c, 0, 100, 66
1, 100777, Control_c, 0, 64, 93
1, 100780, Note_on_c, 0, 99, 60
1, 100792, Control_c, 0, 64, 95
1, 100807, Control_c, 0, 64, 96
1, 100810, Note_off_c, 0, 99, 69
1, 100812, Note_on_c, 0, 98, 67
1, 100829, Control_c, 0, 64, 98
1, 100844, Control_c, 0, 64, 99
1, 100854, Note_off_c, 0, 98, 58
1, 100859, Control_c, 0, 64, 100
1, 100873, Note_on_c, 0, 97, 72
1, 100874, Control_c, 0, 64, 101
1, 100888, Control_c, 0, 64, 101
1, 100895, Note_off_c, 0, 97, 68
1, 100903, Note_on_c, 0, 96, 68
1, 100903, Control_c, 0, 64, 102
1, 100918, Control_c, 0, 64, 102
1, 100936, Note_off_c, 0, 76, 59
1, 100956, Note_off_c, 0, 96, 61
1, 100962, Control_c, 0, 64, 103
1, 100963, Note_on_c, 0, 95, 72
1, 100995, Note_off_c, 0, 68, 55
1, 100996, Note_off_c, 0, 71, 58
1, 101032, Note_on_c, 0, 94, 73
1, 101034, Note_off_c, 0, 95, 64
1, 101083, Note_on_c, 0, 93, 65
1, 101120, Note_off_c, 0, 94, 60
1, 101132, Note_on_c, 0, 92, 70
1, 101141, Note_off_c, 0, 93, 59
1, 101155, Control_c, 0, 64, 102
1, 101159, Note_off_c, 0, 92, 68
1, 101170, Note_on_c, 0, 91, 74
1, 101214, Control_c, 0, 64, 102
1, 101231, Note_off_c, 0, 91, 58
1, 101245, Control_c, 0, 64, 101
1, 101250, Note_on_c, 0, 90, 63
1, 101275, Control_c, 0, 64, 101
1, 101281, Note_on_c, 0, 63, 48
1, 101290, Control_c, 0, 64, 100
1, 101293, Note_on_c, 0, 89, 62
1, 101302, Note_off_c, 0, 90, 62
1, 101304, Control_c, 0, 64, 95
1, 101319, Control_c, 0, 64, 83
1, 101325, Note_off_c, 0, 89, 67
1, 101334, Control_c, 0, 64, 66
1, 101341, Note_off_c, 0, 63, 61
1, 101341, Note_on_c, 0, 70, 51
1, 101345, Note_on_c, 0, 88, 61
1, 101348, Control_c, 0, 64, 0
1, 101393, Control_c, 0, 64, 18
1, 101398, Note_off_c, 0, 88, 51
1, 101408, Control_c, 0, 64, 63
1, 101409, Note_on_c, 0, 87, 75
1, 101422, Control_c, 0, 64, 69
1, 101429, Note_on_c, 0, 79, 52
1, 101430, Note_off_c, 0, 70, 48
1, 101432, Note_off_c, 0, 87, 67
1, 101437, Control_c, 0, 64, 76
1, 101451, Note_off_c, 0, 79, 59
1, 101452, Control_c, 0, 64, 82
1, 101467, Control_c, 0, 64, 84
1, 101622, Control_c, 0, 64, 84
1, 101637, Control_c, 0, 64, 81
1, 101652, Control_c, 0, 64, 74
1, 101667, Control_c, 0, 64, 59
1, 101669, Note_on_c, 0, 70, 72
1, 101681, Control_c, 0, 64, 0
1, 101710, Note_on_c, 0, 82, 63
1, 101726, Control_c, 0, 64, 54
1, 101741, Control_c, 0, 64, 65
1, 101745, Note_off_c, 0, 82, 62
1, 101748, Note_off_c, 0, 70, 61
1, 101755, Control_c, 0, 64, 71
1, 101758, Note_on_c, 0, 83, 63
1, 101770, Control_c, 0, 64, 77
1, 101785, Control_c, 0, 64, 82
1, 101800, Control_c, 0, 64, 84
1, 101812, Note_off_c, 0, 83, 56
1, 101830, Note_on_c, 0, 82, 71
1, 101853, Note_off_c, 0, 82, 68
1, 101874, Control_c, 0, 64, 81
1, 101889, Control_c, 0, 64, 70
1, 101899, Note_on_c, 0, 74, 83
1, 101904, Control_c, 0, 64, 0
1, 101948, Control_c, 0, 64, 41
1, 101954, Note_on_c, 0, 86, 71
1, 101963, Control_c, 0, 64, 62
1, 101973, Note_off_c, 0, 74, 62
1, 101978, Control_c, 0, 64, 68
1, 101981, Note_off_c, 0, 86, 65
1, 101991, Note_on_c, 0, 87, 67
1, 101993, Control_c, 0, 64, 75
1, 102008, Control_c, 0, 64, 83
1, 102022, Control_c, 0, 64, 87
1, 102037, Control_c, 0, 64, 88
1, 102065, Note_on_c, 0, 86, 68
1, 102083, Control_c, 0, 64, 87
1, 102085, Note_off_c, 0, 87, 54
1, 102092, Note_off_c, 0, 86, 66
1, 102097, Control_c, 0, 64, 84
1, 102112, Control_c, 0, 64, 74
1, 102127, Control_c, 0, 64, 59
1, 102131, Note_on_c, 0, 75, 91
1, 102142, Control_c, 0, 64, 0
1, 102157, Control_c, 0, 64, 56
1, 102171, Control_c, 0, 64, 66
1, 102186, Note_off_c, 0, 75, 63
1, 102186, Control_c, 0, 64, 70
1, 102196, Note_on_c, 0, 87, 76
1, 102201, Control_c, 0, 64, 75
1, 102216, Control_c, 0, 64, 80
1, 102231, Control_c, 0, 64, 83
1, 102245, Control_c, 0, 64, 84
1, 102249, Note_off_c, 0, 87, 64
1, 102251, Note_on_c, 0, 88, 71
1, 102301, Note_off_c, 0, 88, 59
1, 102342, Control_c, 0, 64, 83
1, 102357, Control_c, 0, 64, 78
1, 102371, Control_c, 0, 64, 66
1, 102378, Note_on_c, 0, 63, 62
1, 102378, Note_on_c, 0, 67, 69
1, 102379, Note_on_c, 0, 75, 77
1, 102386, Control_c, 0, 64, 0
1, 102388, Note_on_c, 0, 87, 32
1, 102416, Control_c, 0, 64, 58
1, 102423, Note_off_c, 0, 87, 53
1, 102424, Note_on_c, 0, 88, 55
1, 102431, Note_off_c, 0, 63, 52
1, 102431, Control_c, 0, 64, 66
1, 102444, Note_off_c, 0, 75, 59
1, 102445, Control_c, 0, 64, 70
1, 102447, Note_off_c, 0, 67, 60
1, 102450, Note_off_c, 0, 88, 60
1, 102460, Control_c, 0, 64, 77
1, 102475, Control_c, 0, 64, 82
1, 102490, Control_c, 0, 64, 84
1, 102509, Note_on_c, 0, 87, 60
1, 102541, Note_off_c, 0, 87, 53
1, 102557, Note_on_c, 0, 88, 61
1, 102564, Control_c, 0, 64, 81
1, 102578, Control_c, 0, 64, 74
1, 102593, Control_c, 0, 64, 61
1, 102602, Note_off_c, 0, 88, 58
1, 102608, Control_c, 0, 64, 0
1, 102614, Note_on_c, 0, 74, 71
1, 102620, Note_on_c, 0, 68, 66
1, 102623, Control_c, 0, 64, 43
1, 102626, Note_on_c, 0, 65, 48
1, 102635, Note_on_c, 0, 87, 58
1, 102638, Control_c, 0, 64, 63
1, 102650, Note_off_c, 0, 65, 61
1, 102652, Control_c, 0, 64, 68
1, 102663, Note_off_c, 0, 74, 60
1, 102667, Control_c, 0, 64, 72
1, 102670, Note_off_c, 0, 87, 61
1, 102679, Note_on_c, 0, 88, 59
1, 102679, Note_off_c, 0, 68, 60
1, 102682, Control_c, 0, 64, 76
1, 102697, Control_c, 0, 64, 80
1, 102712, Control_c, 0, 64, 81
1, 102741, Note_off_c, 0, 88, 62
1, 102757, Control_c, 0, 64, 82
1, 102762, Note_on_c, 0, 87, 65
1, 102786, Control_c, 0, 64, 82
1, 102791, Note_off_c, 0, 87, 64
1, 102831, Control_c, 0, 64, 79
1, 102846, Control_c, 0, 64, 64
1, 102861, Control_c, 0, 64, 0
1, 102864, Note_on_c, 0, 70, 50
1, 102865, Note_on_c, 0, 67, 50
1, 102875, Note_on_c, 0, 73, 59
1, 102888, Note_on_c, 0, 88, 54
1, 102912, Note_on_c, 0, 87, 59
1, 102915, Note_off_c, 0, 88, 62
1, 102950, Control_c, 0, 64, 13
1, 102951, Note_off_c, 0, 87, 57
1, 102965, Control_c, 0, 64, 60
1, 102976, Note_on_c, 0, 86, 49
1, 102980, Control_c, 0, 64, 66
1, 102994, Control_c, 0, 64, 71
1, 103009, Control_c, 0, 64, 78
1, 103016, Note_off_c, 0, 86, 57
1, 103024, Control_c, 0, 64, 85
1, 103028, Note_on_c, 0, 87, 66
1, 103039, Control_c, 0, 64, 89
1, 103054, Control_c, 0, 64, 91
1, 103055, Note_off_c, 0, 87, 67
1, 103076, Control_c, 0, 64, 92
1, 103091, Control_c, 0, 64, 94
1, 103104, Note_on_c, 0, 88, 62
1, 103106, Control_c, 0, 64, 96
1, 103120, Control_c, 0, 64, 98
1, 103135, Control_c, 0, 64, 100
1, 103150, Control_c, 0, 64, 102
1, 103163, Note_on_c, 0, 89, 65
1, 103165, Control_c, 0, 64, 104
1, 103165, Note_off_c, 0, 88, 59
1, 103180, Control_c, 0, 64, 105
1, 103197, Note_off_c, 0, 89, 64
1, 103204, Note_on_c, 0, 90, 70
1, 103209, Control_c, 0, 64, 105
1, 103224, Control_c, 0, 64, 106
1, 103231, Note_off_c, 0, 90, 65
1, 103239, Control_c, 0, 64, 107
1, 103254, Control_c, 0, 64, 108
1, 103260, Note_off_c, 0, 67, 57
1, 103268, Control_c, 0, 64, 109
1, 103272, Note_on_c, 0, 91, 69
1, 103282, Note_off_c, 0, 73, 49
1, 103283, Control_c, 0, 64, 111
1, 103291, Note_off_c, 0, 70, 47
1, 103298, Control_c, 0, 64, 115
1, 103307, Note_on_c, 0, 92, 75
1, 103313, Control_c, 0, 64, 123
1, 103327, Control_c, 0, 64, 127
1, 103344, Note_off_c, 0, 91, 55
1, 103354, Note_on_c, 0, 93, 74
1, 103389, Note_on_c, 0, 94, 80
1, 103394, Note_off_c, 0, 92, 63
1, 103410, Note_off_c, 0, 93, 62
1, 103431, Note_off_c, 0, 94, 67
1, 103464, Note_on_c, 0, 95, 77
1, 103517, Note_on_c, 0, 96, 71
1, 103538, Note_off_c, 0, 95, 47
1, 103553, Note_on_c, 0, 97, 73
1, 103553, Note_off_c, 0, 96, 60
1, 103575, Note_off_c, 0, 97, 70
1, 103624, Control_c, 0, 64, 119
1, 103624, Note_on_c, 0, 98, 72
1, 103639, Control_c, 0, 64, 101
1, 103649, Note_on_c, 0, 71, 58
1, 103654, Control_c, 0, 64, 84
1, 103655, Note_on_c, 0, 76, 66
1, 103660, Note_on_c, 0, 68, 57
1, 103661, Note_on_c, 0, 99, 71
1, 103669, Control_c, 0, 64, 66
1, 103675, Note_off_c, 0, 98, 60
1, 103684, Control_c, 0, 64, 0
1, 103693, Note_on_c, 0, 100, 63
1, 103714, Control_c, 0, 64, 38
1, 103717, Note_off_c, 0, 100, 62
1, 103720, Note_off_c, 0, 99, 51
1, 103724, Note_on_c, 0, 102, 71
1, 103729, Control_c, 0, 64, 63
1, 103743, Control_c, 0, 64, 68
1, 103758, Control_c, 0, 64, 74
1, 103764, Note_off_c, 0, 102, 68
1, 103773, Control_c, 0, 64, 80
1, 103784, Note_on_c, 0, 100, 76
1, 103788, Control_c, 0, 64, 85
1, 103803, Control_c, 0, 64, 86
1, 103824, Control_c, 0, 64, 87
1, 103839, Note_off_c, 0, 100, 65
1, 103839, Control_c, 0, 64, 88
1, 103840, Note_on_c, 0, 99, 59
1, 103854, Control_c, 0, 64, 89
1, 103869, Control_c, 0, 64, 90
1, 103871, Note_off_c, 0, 99, 69
1, 103879, Note_on_c, 0, 98, 63
1, 103884, Control_c, 0, 64, 91
1, 103910, Note_off_c, 0, 98, 62
1, 103940, Note_on_c, 0, 97, 69
1, 103943, Control_c, 0, 64, 91
1, 103944, Note_off_c, 0, 76, 59
1, 103963, Note_off_c, 0, 97, 67
1, 103968, Note_on_c, 0, 96, 48
1, 103991, Note_off_c, 0, 68, 40
1, 103998, Note_off_c, 0, 71, 57
1, 104019, Note_on_c, 0, 95, 74
1, 104019, Note_off_c, 0, 96, 55
1, 104106, Note_on_c, 0, 94, 68
1, 104128, Note_off_c, 0, 95, 66
1, 104150, Control_c, 0, 64, 91
1, 104167, Note_off_c, 0, 94, 62
1, 104170, Note_on_c, 0, 93, 51
1, 104180, Control_c, 0, 64, 90
1, 104195, Note_off_c, 0, 93, 48
1, 104195, Control_c, 0, 64, 90
1, 104200, Note_on_c, 0, 92, 53
1, 104210, Control_c, 0, 64, 89
1, 104220, Note_off_c, 0, 92, 53
1, 104224, Control_c, 0, 64, 89
1, 104226, Note_on_c, 0, 91, 69
1, 104239, Control_c, 0, 64, 88
1, 104268, Control_c, 0, 64, 88
1, 104280, Note_off_c, 0, 91, 58
1, 104293, Note_on_c, 0, 90, 67
1, 104298, Control_c, 0, 64, 87
1, 104303, Note_on_c, 0, 63, 52
1, 104313, Control_c, 0, 64, 84
1, 104328, Control_c, 0, 64, 76
1, 104342, Note_on_c, 0, 89, 61
1, 104343, Control_c, 0, 64, 63
1, 104350, Note_off_c, 0, 90, 63
1, 104358, Control_c, 0, 64, 0
1, 104370, Note_off_c, 0, 89, 61
1, 104389, Note_on_c, 0, 70, 52
1, 104395, Note_on_c, 0, 88, 54
1, 104402, Control_c, 0, 64, 49
1, 104408, Note_off_c, 0, 63, 64
1, 104417, Control_c, 0, 64, 61
1, 104432, Control_c, 0, 64, 65
1, 104439, Note_off_c, 0, 88, 56
1, 104447, Control_c, 0, 64, 69
1, 104462, Control_c, 0, 64, 75
1, 104474, Note_on_c, 0, 87, 65
1, 104477, Control_c, 0, 64, 78
1, 104492, Control_c, 0, 64, 80
1, 104507, Control_c, 0, 64, 81
1, 104508, Note_on_c, 0, 79, 50
1, 104510, Note_off_c, 0, 87, 59
1, 104521, Control_c, 0, 64, 82
1, 104531, Note_off_c, 0, 79, 58
1, 104536, Control_c, 0, 64, 83
1, 104541, Note_on_c, 0, 88, 60
1, 104551, Control_c, 0, 64, 84
1, 104572, Note_off_c, 0, 70, 36
1, 104573, Control_c, 0, 64, 85
1, 104588, Control_c, 0, 64, 85
1, 104593, Note_off_c, 0, 88, 57
1, 104594, Note_on_c, 0, 87, 53
1, 104603, Control_c, 0, 64, 86
1, 104629, Note_off_c, 0, 87, 64
1, 104633, Control_c, 0, 64, 86
1, 104643, Note_on_c, 0, 86, 63
1, 104647, Control_c, 0, 64, 87
1, 104662, Control_c, 0, 64, 87
1, 104677, Control_c, 0, 64, 88
1, 104707, Note_off_c, 0, 86, 62
1, 104712, Note_on_c, 0, 87, 73
1, 104736, Note_off_c, 0, 87, 69
1, 104736, Control_c, 0, 64, 88
1, 104773, Note_on_c, 0, 88, 72
1, 104811, Control_c, 0, 64, 89
1, 104826, Control_c, 0, 64, 89
1, 104837, Note_on_c, 0, 89, 71
1, 104840, Control_c, 0, 64, 90
1, 104854, Note_off_c, 0, 88, 54
1, 104855, Control_c, 0, 64, 91
1, 104870, Control_c, 0, 64, 92
1, 104880, Note_on_c, 0, 90, 73
1, 104885, Control_c, 0, 64, 94
1, 104885, Note_off_c, 0, 89, 65
1, 104899, Control_c, 0, 64, 96
1, 104903, Note_off_c, 0, 90, 68
1, 104914, Control_c, 0, 64, 98
1, 104929, Control_c, 0, 64, 102
1, 104941, Note_on_c, 0, 91, 80
1, 104944, Control_c, 0, 64, 106
1, 104959, Control_c, 0, 64, 110
1, 104973, Control_c, 0, 64, 115
1, 104988, Control_c, 0, 64, 122
1, 104999, Note_on_c, 0, 92, 78
1, 105003, Control_c, 0, 64, 127
1, 105016, Note_off_c, 0, 91, 55
1, 105058, Note_on_c, 0, 93, 72
1, 105082, Note_on_c, 0, 94, 80
1, 105088, Note_off_c, 0, 93, 62
1, 105091, Note_off_c, 0, 92, 64
1, 105115, Note_off_c, 0, 94, 68
1, 105148, Note_on_c, 0, 95, 77
1, 105213, Note_on_c, 0, 96, 71
1, 105217, Note_off_c, 0, 95, 62
1, 105255, Note_on_c, 0, 97, 69
1, 105256, Note_off_c, 0, 96, 62
1, 105270, Note_off_c, 0, 97, 66
1, 105322, Control_c, 0, 64, 118
1, 105331, Note_on_c, 0, 98, 63
1, 105337, Control_c, 0, 64, 100
1, 105339, Note_on_c, 0, 71, 57
1, 105343, Note_on_c, 0, 56, 56
1, 105352, Control_c, 0, 64, 81
1, 105367, Note_on_c, 0, 99, 74
1, 105367, Control_c, 0, 64, 57
1, 105371, Note_off_c, 0, 98, 56
1, 105382, Control_c, 0, 64, 0
1, 105408, Note_on_c, 0, 100, 55
1, 105431, Note_off_c, 0, 100, 57
1, 105439, Note_on_c, 0, 102, 70
1, 105442, Control_c, 0, 64, 49
1, 105452, Note_off_c, 0, 99, 64
1, 105457, Control_c, 0, 64, 63
1, 105471, Control_c, 0, 64, 68
1, 105486, Control_c, 0, 64, 73
1, 105492, Note_off_c, 0, 102, 67
1, 105501, Note_on_c, 0, 100, 69
1, 105501, Control_c, 0, 64, 79
1, 105515, Control_c, 0, 64, 84
1, 105530, Control_c, 0, 64, 85
1, 105545, Control_c, 0, 64, 87
1, 105553, Note_off_c, 0, 100, 66
1, 105560, Control_c, 0, 64, 89
1, 105574, Note_on_c, 0, 99, 55
1, 105575, Control_c, 0, 64, 91
1, 105590, Control_c, 0, 64, 92
1, 105596, Note_off_c, 0, 99, 60
1, 105600, Note_off_c, 0, 71, 51
1, 105601, Note_on_c, 0, 98, 68
1, 105604, Control_c, 0, 64, 93
1, 105634, Control_c, 0, 64, 94
1, 105645, Note_off_c, 0, 98, 56
1, 105649, Control_c, 0, 64, 95
1, 105664, Control_c, 0, 64, 96
1, 105668, Poly_aftertouch_c, 0, 58, 127
1, 105671, Note_on_c, 0, 97, 65
1, 105678, Control_c, 0, 64, 96
1, 105698, Note_on_c, 0, 96, 68
1, 105703, Note_off_c, 0, 97, 62
1, 105708, Poly_aftertouch_c, 0, 58, 0
1, 105708, Control_c, 0, 64, 97
1, 105715, Note_off_c, 0, 56, 61
1, 105753, Note_off_c, 0, 96, 60
1, 105753, Control_c, 0, 64, 97
1, 105766, Note_on_c, 0, 95, 71
1, 105828, Note_off_c, 0, 95, 59
1, 105833, Note_on_c, 0, 94, 75
1, 105862, Note_off_c, 0, 94, 67
1, 105871, Control_c, 0, 64, 97
1, 105879, Note_on_c, 0, 93, 66
1, 105901, Control_c, 0, 64, 96
1, 105915, Control_c, 0, 64, 96
1, 105930, Control_c, 0, 64, 95
1, 105934, Note_off_c, 0, 93, 61
1, 105936, Note_on_c, 0, 92, 61
1, 105945, Control_c, 0, 64, 95
1, 105960, Control_c, 0, 64, 94
1, 105964, Note_off_c, 0, 92, 68
1, 105975, Control_c, 0, 64, 94
1, 105978, Note_on_c, 0, 91, 68
1, 105989, Control_c, 0, 64, 93
1, 106019, Control_c, 0, 64, 93
1, 106034, Note_off_c, 0, 91, 57
1, 106035, Control_c, 0, 64, 92
1, 106048, Note_on_c, 0, 51, 52
1, 106050, Control_c, 0, 64, 88
1, 106052, Note_on_c, 0, 90, 66
1, 106072, Control_c, 0, 64, 78
1, 106086, Control_c, 0, 64, 63
1, 106101, Control_c, 0, 64, 0
1, 106120, Note_off_c, 0, 90, 63
1, 106121, Note_on_c, 0, 89, 53
1, 106131, Control_c, 0, 64, 25
1, 106144, Note_off_c, 0, 89, 65
1, 106146, Note_off_c, 0, 51, 58
1, 106146, Control_c, 0, 64, 59
1, 106161, Control_c, 0, 64, 65
1, 106173, Note_on_c, 0, 88, 52
1, 106176, Control_c, 0, 64, 70
1, 106191, Control_c, 0, 64, 77
1, 106206, Control_c, 0, 64, 83
1, 106220, Control_c, 0, 64, 86
1, 106230, Note_on_c, 0, 67, 61
1, 106235, Control_c, 0, 64, 87
1, 106243, Note_off_c, 0, 88, 56
1, 106249, Note_on_c, 0, 87, 68
1, 106250, Control_c, 0, 64, 88
1, 106264, Control_c, 0, 64, 89
1, 106267, Note_off_c, 0, 67, 62
1, 106279, Control_c, 0, 64, 90
1, 106289, Note_off_c, 0, 87, 54
1, 106294, Control_c, 0, 64, 92
1, 106309, Control_c, 0, 64, 93
1, 106313, Note_on_c, 0, 88, 36
1, 106324, Control_c, 0, 64, 94
1, 106338, Control_c, 0, 64, 95
1, 106353, Control_c, 0, 64, 96
1, 106363, Note_on_c, 0, 87, 59
1, 106368, Control_c, 0, 64, 97
1, 106382, Note_off_c, 0, 88, 63
1, 106383, Control_c, 0, 64, 98
1, 106398, Control_c, 0, 64, 99
1, 106412, Control_c, 0, 64, 100
1, 106418, Note_off_c, 0, 87, 63
1, 106421, Note_on_c, 0, 86, 70
1, 106427, Control_c, 0, 64, 101
1, 106442, Control_c, 0, 64, 102
1, 106457, Control_c, 0, 64, 103
1, 106471, Control_c, 0, 64, 104
1, 106483, Note_on_c, 0, 87, 68
1, 106486, Control_c, 0, 64, 104
1, 106488, Note_off_c, 0, 86, 62
1, 106501, Control_c, 0, 64, 105
1, 106516, Control_c, 0, 64, 105
1, 106520, Note_off_c, 0, 87, 62
1, 106531, Control_c, 0, 64, 106
1, 106545, Control_c, 0, 64, 106
1, 106554, Note_on_c, 0, 88, 80
1, 106575, Control_c, 0, 64, 107
1, 106590, Control_c, 0, 64, 107
1, 106618, Note_on_c, 0, 89, 75
1, 106620, Control_c, 0, 64, 108
1, 106634, Note_off_c, 0, 88, 57
1, 106635, Control_c, 0, 64, 109
1, 106650, Control_c, 0, 64, 110
1, 106662, Note_on_c, 0, 90, 78
1, 106664, Control_c, 0, 64, 111
1, 106671, Note_off_c, 0, 89, 66
1, 106679, Control_c, 0, 64, 113
1, 106686, Note_off_c, 0, 90, 68
1, 106694, Control_c, 0, 64, 116
1, 106709, Control_c, 0, 64, 119
1, 106724, Note_on_c, 0, 91, 80
1, 106724, Control_c, 0, 64, 123
1, 106738, Control_c, 0, 64, 127
1, 106782, Note_on_c, 0, 92, 79
1, 106824, Note_off_c, 0, 91, 58
1, 106838, Note_on_c, 0, 93, 74
1, 106880, Note_on_c, 0, 94, 80
1, 106895, Note_off_c, 0, 93, 63
1, 106897, Note_off_c, 0, 92, 65
1, 106920, Note_off_c, 0, 94, 68
1, 106945, Note_on_c, 0, 95, 81
1, 107008, Note_on_c, 0, 96, 76
1, 107025, Note_off_c, 0, 95, 60
1, 107040, Note_on_c, 0, 97, 77
1, 107052, Note_off_c, 0, 96, 63
1, 107076, Note_off_c, 0, 97, 64
1, 107113, Note_on_c, 0, 98, 75
1, 107160, Note_on_c, 0, 99, 77
1, 107175, Control_c, 0, 64, 105
1, 107176, Note_off_c, 0, 98, 60
1, 107186, Note_on_c, 0, 59, 59
1, 107189, Note_on_c, 0, 44, 57
1, 107190, Control_c, 0, 64, 81
1, 107205, Control_c, 0, 64, 31
1, 107209, Note_on_c, 0, 100, 70
1, 107220, Control_c, 0, 64, 0
1, 107245, Note_off_c, 0, 99, 66
1, 107258, Note_on_c, 0, 102, 73
1, 107259, Note_off_c, 0, 100, 54
1, 107279, Control_c, 0, 64, 19
1, 107294, Control_c, 0, 64, 60
1, 107309, Control_c, 0, 64, 67
1, 107312, Note_off_c, 0, 102, 66
1, 107324, Control_c, 0, 64, 73
1, 107333, Note_on_c, 0, 100, 73
1, 107338, Control_c, 0, 64, 82
1, 107353, Control_c, 0, 64, 88
1, 107368, Control_c, 0, 64, 92
1, 107382, Note_off_c, 0, 100, 65
1, 107383, Control_c, 0, 64, 95
1, 107394, Note_on_c, 0, 99, 62
1, 107398, Control_c, 0, 64, 98
1, 107412, Control_c, 0, 64, 102
1, 107422, Note_off_c, 0, 99, 70
1, 107427, Control_c, 0, 64, 107
1, 107434, Note_on_c, 0, 98, 72
1, 107442, Control_c, 0, 64, 111
1, 107457, Control_c, 0, 64, 114
1, 107472, Control_c, 0, 64, 117
1, 107484, Note_off_c, 0, 98, 63
1, 107486, Control_c, 0, 64, 121
1, 107501, Control_c, 0, 64, 127
1, 107506, Note_on_c, 0, 99, 66
1, 107525, Note_off_c, 0, 99, 63
1, 107552, Note_on_c, 0, 98, 64
1, 107615, Note_off_c, 0, 98, 55
1, 107635, Note_on_c, 0, 97, 72
1, 107681, Note_on_c, 0, 96, 72
1, 107684, Note_off_c, 0, 97, 65
1, 107728, Note_on_c, 0, 97, 62
1, 107729, Note_off_c, 0, 96, 64
1, 107758, Note_off_c, 0, 97, 68
1, 107786, Note_on_c, 0, 96, 65
1, 107830, Note_off_c, 0, 96, 65
1, 107840, Note_on_c, 0, 95, 72
1, 107916, Note_on_c, 0, 94, 78
1, 107922, Note_off_c, 0, 95, 53
1, 107961, Note_on_c, 0, 95, 48
1, 107976, Note_off_c, 0, 94, 65
1, 108025, Note_off_c, 0, 95, 55
1, 108032, Note_on_c, 0, 94, 68
1, 108075, Note_off_c, 0, 94, 64
1, 108084, Note_on_c, 0, 93, 73
1, 108156, Note_off_c, 0, 93, 56
1, 108158, Note_on_c, 0, 92, 80
1, 108218, Note_on_c, 0, 93, 63
1, 108221, Note_off_c, 0, 92, 65
1, 108280, Note_on_c, 0, 92, 71
1, 108281, Note_off_c, 0, 93, 60
1, 108337, Note_off_c, 0, 92, 65
1, 108349, Note_on_c, 0, 91, 62
1, 108423, Note_on_c, 0, 90, 69
1, 108423, Note_off_c, 0, 91, 58
1, 108464, Note_on_c, 0, 91, 61
1, 108481, Note_off_c, 0, 90, 56
1, 108532, Note_on_c, 0, 90, 63
1, 108538, Note_off_c, 0, 91, 60
1, 108569, Note_off_c, 0, 90, 64
1, 108587, Note_on_c, 0, 89, 66
1, 108650, Note_off_c, 0, 89, 64
1, 108654, Note_on_c, 0, 88, 69
1, 108698, Note_off_c, 0, 88, 52
1, 108705, Note_on_c, 0, 90, 71
1, 108753, Note_off_c, 0, 90, 65
1, 108762, Control_c, 0, 67, 8
1, 108777, Control_c, 0, 67, 11
1, 108783, Note_on_c, 0, 88, 61
1, 108792, Control_c, 0, 67, 16
1, 108807, Control_c, 0, 67, 22
1, 108811, Note_off_c, 0, 88, 65
1, 108821, Control_c, 0, 67, 30
1, 108826, Note_on_c, 0, 87, 59
1, 108836, Control_c, 0, 67, 39
1, 108851, Control_c, 0, 67, 51
1, 108856, Note_off_c, 0, 87, 66
1, 108863, Note_on_c, 0, 86, 68
1, 108866, Control_c, 0, 67, 67
1, 108881, Control_c, 0, 67, 85
1, 108896, Note_off_c, 0, 86, 61
1, 108896, Control_c, 0, 67, 103
1, 108911, Control_c, 0, 67, 123
1, 108926, Control_c, 0, 67, 127
1, 108930, Note_on_c, 0, 87, 66
1, 108962, Note_off_c, 0, 87, 61
1, 108995, Note_on_c, 0, 86, 62
1, 109027, Note_off_c, 0, 86, 58
1, 109051, Note_on_c, 0, 85, 69
1, 109106, Note_off_c, 0, 85, 64
1, 109116, Note_on_c, 0, 84, 65
1, 109149, Note_off_c, 0, 84, 58
1, 109161, Note_on_c, 0, 85, 57
1, 109204, Note_off_c, 0, 85, 62
1, 109225, Note_on_c, 0, 84, 63
1, 109253, Note_off_c, 0, 84, 61
1, 109273, Note_on_c, 0, 83, 70
1, 109306, Note_off_c, 0, 83, 58
1, 109358, Note_on_c, 0, 82, 71
1, 109395, Note_on_c, 0, 83, 67
1, 109403, Note_off_c, 0, 82, 56
1, 109455, Note_on_c, 0, 82, 71
1, 109458, Note_off_c, 0, 83, 57
1, 109510, Note_off_c, 0, 82, 64
1, 109521, Note_on_c, 0, 81, 66
1, 109587, Note_off_c, 0, 81, 36
1, 109600, Note_on_c, 0, 80, 71
1, 109638, Note_on_c, 0, 81, 55
1, 109645, Note_off_c, 0, 80, 60
1, 109693, Note_off_c, 0, 81, 59
1, 109710, Note_on_c, 0, 80, 56
1, 109744, Note_off_c, 0, 80, 64
1, 109770, Note_on_c, 0, 79, 60
1, 109830, Note_off_c, 0, 79, 40
1, 109848, Note_on_c, 0, 78, 71
1, 109898, Note_off_c, 0, 78, 63
1, 109903, Note_on_c, 0, 79, 60
1, 109956, Note_off_c, 0, 79, 58
1, 109968, Note_on_c, 0, 78, 55
1, 110000, Note_off_c, 0, 78, 65
1, 110021, Note_on_c, 0, 77, 56
1, 110086, Note_off_c, 0, 77, 59
1, 110094, Note_on_c, 0, 76, 63
1, 110123, Note_off_c, 0, 76, 66
1, 110152, Note_on_c, 0, 78, 61
1, 110188, Note_off_c, 0, 78, 65
1, 110218, Note_on_c, 0, 76, 55
1, 110248, Note_off_c, 0, 76, 69
1, 110261, Note_on_c, 0, 75, 51
1, 110286, Note_off_c, 0, 75, 62
1, 110301, Note_on_c, 0, 74, 59
1, 110335, Note_off_c, 0, 74, 60
1, 110376, Note_on_c, 0, 75, 59
1, 110394, Note_off_c, 0, 75, 63
1, 110438, Note_on_c, 0, 74, 58
1, 110480, Note_off_c, 0, 74, 55
1, 110498, Note_on_c, 0, 73, 59
1, 110532, Note_off_c, 0, 73, 64
1, 110565, Note_on_c, 0, 72, 55
1, 110588, Note_off_c, 0, 72, 61
1, 110620, Note_off_c, 0, 59, 30
1, 110620, Note_on_c, 0, 73, 57
1, 110660, Note_off_c, 0, 73, 58
1, 110680, Note_on_c, 0, 72, 57
1, 110702, Note_off_c, 0, 72, 64
1, 110736, Note_on_c, 0, 71, 55
1, 110773, Note_off_c, 0, 71, 58
1, 110814, Note_off_c, 0, 44, 56
1, 110815, Note_on_c, 0, 70, 66
1, 110855, Note_off_c, 0, 70, 55
1, 110877, Note_on_c, 0, 71, 54
1, 110921, Note_off_c, 0, 71, 57
1, 110944, Note_on_c, 0, 70, 62
1, 110975, Note_off_c, 0, 70, 63
1, 111008, Note_on_c, 0, 69, 56
1, 111059, Note_off_c, 0, 69, 49
1, 111097, Note_on_c, 0, 68, 62
1, 111129, Note_off_c, 0, 68, 64
1, 111142, Note_on_c, 0, 69, 48
1, 111213, Note_off_c, 0, 69, 60
1, 111229, Note_on_c, 0, 68, 53
1, 111256, Note_off_c, 0, 68, 61
1, 111308, Note_on_c, 0, 67, 49
1, 111327, Control_c, 0, 64, 111
1, 111342, Control_c, 0, 64, 94
1, 111357, Control_c, 0, 64, 73
1, 111358, Note_on_c, 0, 43, 50
1, 111372, Control_c, 0, 64, 0
1, 111372, Note_off_c, 0, 67, 50
1, 111396, Note_on_c, 0, 66, 57
1, 111431, Control_c, 0, 64, 43
1, 111446, Control_c, 0, 64, 63
1, 111455, Note_off_c, 0, 66, 61
1, 111460, Control_c, 0, 64, 69
1, 111473, Note_off_c, 0, 43, 60
1, 111475, Control_c, 0, 64, 75
1, 111477, Note_on_c, 0, 67, 50
1, 111490, Control_c, 0, 64, 81
1, 111505, Control_c, 0, 64, 85
1, 111520, Control_c, 0, 64, 86
1, 111534, Control_c, 0, 64, 88
1, 111544, Note_off_c, 0, 67, 55
1, 111549, Control_c, 0, 64, 90
1, 111561, Note_on_c, 0, 66, 55
1, 111564, Control_c, 0, 64, 92
1, 111579, Control_c, 0, 64, 94
1, 111593, Control_c, 0, 64, 95
1, 111608, Control_c, 0, 64, 96
1, 111611, Note_off_c, 0, 66, 58
1, 111623, Control_c, 0, 64, 96
1, 111639, Control_c, 0, 64, 97
1, 111651, Note_on_c, 0, 65, 51
1, 111654, Control_c, 0, 64, 98
1, 111669, Control_c, 0, 64, 99
1, 111683, Control_c, 0, 64, 100
1, 111698, Control_c, 0, 64, 100
1, 111702, Note_off_c, 0, 65, 56
1, 111712, Note_on_c, 0, 58, 50
1, 111713, Control_c, 0, 64, 101
1, 111715, Note_on_c, 0, 61, 53
1, 111728, Control_c, 0, 64, 101
1, 111743, Control_c, 0, 64, 102
1, 111749, Note_on_c, 0, 64, 59
1, 111750, Note_off_c, 0, 61, 62
1, 111752, Note_off_c, 0, 58, 65
1, 111757, Control_c, 0, 64, 102
1, 111772, Control_c, 0, 64, 103
1, 111787, Control_c, 0, 64, 103
1, 111794, Note_off_c, 0, 64, 58
1, 111802, Control_c, 0, 64, 104
1, 111817, Control_c, 0, 64, 104
1, 111846, Control_c, 0, 64, 105
1, 111863, Note_on_c, 0, 62, 35
1, 111875, Control_c, 0, 64, 105
1, 111894, Note_off_c, 0, 62, 48
1, 111905, Control_c, 0, 64, 106
1, 111917, Note_on_c, 0, 64, 62
1, 111950, Note_off_c, 0, 64, 65
1, 111965, Control_c, 0, 64, 106
1, 111971, Note_on_c, 0, 63, 63
1, 111995, Control_c, 0, 64, 107
1, 111998, Note_off_c, 0, 63, 67
1, 112024, Control_c, 0, 64, 107
1, 112033, Note_on_c, 0, 65, 66
1, 112039, Control_c, 0, 64, 108
1, 112061, Control_c, 0, 64, 108
1, 112067, Note_off_c, 0, 65, 67
1, 112076, Control_c, 0, 64, 109
1, 112090, Control_c, 0, 64, 109
1, 112099, Note_on_c, 0, 64, 60
1, 112105, Control_c, 0, 64, 110
1, 112120, Control_c, 0, 64, 111
1, 112123, Note_off_c, 0, 64, 65
1, 112135, Control_c, 0, 64, 111
1, 112151, Control_c, 0, 64, 112
1, 112157, Note_on_c, 0, 66, 71
1, 112165, Control_c, 0, 64, 112
1, 112189, Note_off_c, 0, 66, 63
1, 112195, Control_c, 0, 64, 113
1, 112209, Note_on_c, 0, 65, 67
1, 112240, Note_off_c, 0, 65, 67
1, 112269, Control_c, 0, 64, 113
1, 112278, Note_on_c, 0, 67, 69
1, 112299, Control_c, 0, 64, 114
1, 112305, Note_off_c, 0, 67, 68
1, 112328, Note_on_c, 0, 66, 71
1, 112328, Control_c, 0, 64, 114
1, 112343, Control_c, 0, 64, 115
1, 112353, Note_off_c, 0, 66, 69
1, 112358, Control_c, 0, 64, 116
1, 112373, Control_c, 0, 64, 117
1, 112388, Control_c, 0, 64, 118
1, 112392, Note_on_c, 0, 68, 69
1, 112403, Control_c, 0, 64, 119
1, 112417, Control_c, 0, 64, 120
1, 112424, Note_off_c, 0, 68, 62
1, 112433, Control_c, 0, 64, 120
1, 112436, Note_on_c, 0, 67, 69
1, 112448, Control_c, 0, 64, 121
1, 112461, Note_off_c, 0, 67, 67
1, 112492, Control_c, 0, 64, 121
1, 112504, Note_on_c, 0, 69, 73
1, 112534, Note_off_c, 0, 69, 65
1, 112537, Control_c, 0, 64, 122
1, 112552, Control_c, 0, 64, 123
1, 112566, Note_on_c, 0, 68, 63
1, 112567, Control_c, 0, 64, 125
1, 112581, Control_c, 0, 64, 127
1, 112592, Note_off_c, 0, 68, 65
1, 112624, Note_on_c, 0, 70, 78
1, 112668, Note_on_c, 0, 69, 68
1, 112668, Note_off_c, 0, 70, 56
1, 112698, Note_off_c, 0, 69, 68
1, 112699, Control_c, 0, 67, 121
1, 112714, Control_c, 0, 67, 92
1, 112729, Control_c, 0, 67, 60
1, 112744, Note_on_c, 0, 71, 73
1, 112744, Control_c, 0, 67, 25
1, 112759, Control_c, 0, 67, 0
1, 112773, Note_off_c, 0, 71, 62
1, 112792, Note_on_c, 0, 70, 65
1, 112827, Note_off_c, 0, 70, 63
1, 112865, Note_on_c, 0, 72, 75
1, 112892, Note_off_c, 0, 72, 66
1, 112925, Note_on_c, 0, 71, 59
1, 112949, Note_off_c, 0, 71, 61
1, 112979, Note_on_c, 0, 73, 77
1, 113023, Note_off_c, 0, 73, 61
1, 113036, Note_on_c, 0, 72, 65
1, 113068, Note_off_c, 0, 72, 68
1, 113092, Note_on_c, 0, 74, 75
1, 113129, Note_off_c, 0, 74, 61
1, 113150, Note_on_c, 0, 73, 68
1, 113178, Note_off_c, 0, 73, 68
1, 113210, Note_on_c, 0, 75, 80
1, 113251, Note_off_c, 0, 75, 60
1, 113257, Note_on_c, 0, 74, 70
1, 113284, Note_off_c, 0, 74, 67
1, 113321, Note_on_c, 0, 76, 82
1, 113364, Note_off_c, 0, 76, 64
1, 113375, Note_on_c, 0, 75, 74
1, 113412, Note_off_c, 0, 75, 59
1, 113437, Note_on_c, 0, 77, 81
1, 113471, Note_off_c, 0, 77, 59
1, 113488, Note_on_c, 0, 76, 73
1, 113521, Note_off_c, 0, 76, 61
1, 113548, Note_on_c, 0, 78, 86
1, 113603, Note_on_c, 0, 77, 80
1, 113603, Note_off_c, 0, 78, 62
1, 113634, Note_off_c, 0, 77, 60
1, 113665, Note_on_c, 0, 79, 83
1, 113710, Note_off_c, 0, 79, 61
1, 113718, Note_on_c, 0, 78, 82
1, 113762, Note_off_c, 0, 78, 61
1, 113779, Note_on_c, 0, 80, 85
1, 113829, Note_off_c, 0, 80, 62
1, 113837, Note_on_c, 0, 79, 71
1, 113864, Note_off_c, 0, 79, 62
1, 113891, Note_on_c, 0, 81, 89
1, 113936, Note_off_c, 0, 81, 62
1, 113952, Note_on_c, 0, 80, 77
1, 113995, Note_off_c, 0, 80, 60
1, 114008, Note_on_c, 0, 82, 85
1, 114056, Note_off_c, 0, 82, 62
1, 114066, Note_on_c, 0, 81, 77
1, 114093, Note_off_c, 0, 81, 62
1, 114126, Note_on_c, 0, 83, 86
1, 114169, Note_off_c, 0, 83, 59
1, 114180, Note_on_c, 0, 82, 77
1, 114221, Note_off_c, 0, 82, 57
1, 114239, Note_on_c, 0, 84, 89
1, 114281, Note_off_c, 0, 84, 64
1, 114307, Note_on_c, 0, 83, 75
1, 114344, Note_off_c, 0, 83, 58
1, 114359, Note_on_c, 0, 85, 86
1, 114404, Note_off_c, 0, 85, 64
1, 114420, Note_on_c, 0, 84, 69
1, 114450, Note_off_c, 0, 84, 67
1, 114472, Note_on_c, 0, 86, 86
1, 114512, Note_off_c, 0, 86, 65
1, 114526, Note_on_c, 0, 85, 81
1, 114559, Note_off_c, 0, 85, 57
1, 114585, Note_on_c, 0, 87, 95
1, 114630, Note_off_c, 0, 87, 60
1, 114645, Note_on_c, 0, 86, 81
1, 114677, Note_off_c, 0, 86, 61
1, 114701, Note_on_c, 0, 88, 93
1, 114743, Note_off_c, 0, 88, 63
1, 114760, Note_on_c, 0, 87, 79
1, 114800, Note_off_c, 0, 87, 60
1, 114813, Note_on_c, 0, 89, 91
1, 114853, Note_off_c, 0, 89, 67
1, 114876, Note_on_c, 0, 88, 83
1, 114921, Note_off_c, 0, 88, 62
1, 114927, Note_on_c, 0, 90, 94
1, 114973, Note_off_c, 0, 90, 62
1, 114992, Note_on_c, 0, 89, 83
1, 115025, Note_off_c, 0, 89, 63
1, 115038, Note_on_c, 0, 91, 94
1, 115087, Note_off_c, 0, 91, 63
1, 115110, Note_on_c, 0, 90, 87
1, 115154, Note_off_c, 0, 90, 62
1, 115160, Note_on_c, 0, 92, 96
1, 115206, Note_off_c, 0, 92, 66
1, 115221, Note_on_c, 0, 91, 87
1, 115257, Note_off_c, 0, 91, 58
1, 115274, Note_on_c, 0, 93, 93
1, 115312, Note_off_c, 0, 93, 65
1, 115330, Note_on_c, 0, 92, 84
1, 115375, Note_off_c, 0, 92, 65
1, 115381, Note_on_c, 0, 94, 93
1, 115427, Note_off_c, 0, 94, 66
1, 115442, Note_on_c, 0, 93, 88
1, 115484, Note_off_c, 0, 93, 62
1, 115497, Note_on_c, 0, 95, 97
1, 115536, Note_off_c, 0, 95, 67
1, 115557, Note_on_c, 0, 94, 86
1, 115604, Note_off_c, 0, 94, 65
1, 115605, Note_on_c, 0, 96, 96
1, 115649, Note_off_c, 0, 96, 66
1, 115675, Note_on_c, 0, 95, 88
1, 115717, Note_off_c, 0, 95, 66
1, 115719, Note_on_c, 0, 97, 96
1, 115769, Note_off_c, 0, 97, 65
1, 115786, Note_on_c, 0, 96, 85
1, 115831, Note_off_c, 0, 96, 65
1, 115842, Note_on_c, 0, 98, 95
1, 115888, Note_off_c, 0, 98, 66
1, 115905, Note_on_c, 0, 97, 89
1, 115950, Note_off_c, 0, 97, 65
1, 115960, Note_on_c, 0, 99, 99
1, 116012, Note_on_c, 0, 98, 86
1, 116013, Note_off_c, 0, 99, 68
1, 116063, Note_off_c, 0, 98, 66
1, 116076, Note_on_c, 0, 100, 97
1, 116123, Note_off_c, 0, 100, 66
1, 116129, Note_on_c, 0, 98, 80
1, 116173, Note_off_c, 0, 98, 65
1, 116197, Note_on_c, 0, 99, 98
1, 116248, Note_off_c, 0, 99, 69
1, 116256, Note_on_c, 0, 98, 85
1, 116302, Note_off_c, 0, 98, 65
1, 116325, Note_on_c, 0, 100, 92
1, 116372, Note_off_c, 0, 100, 65
1, 116376, Note_on_c, 0, 98, 81
1, 116418, Note_off_c, 0, 98, 65
1, 116449, Note_on_c, 0, 99, 92
1, 116499, Note_off_c, 0, 99, 68
1, 116502, Note_on_c, 0, 98, 76
1, 116534, Note_off_c, 0, 98, 63
1, 116577, Note_on_c, 0, 100, 88
1, 116627, Note_off_c, 0, 100, 65
1, 116628, Note_on_c, 0, 98, 71
1, 116653, Note_off_c, 0, 98, 68
1, 116688, Note_on_c, 0, 99, 93
1, 116741, Note_off_c, 0, 99, 69
1, 116748, Note_on_c, 0, 98, 78
1, 116784, Note_off_c, 0, 98, 60
1, 116787, Note_on_c, 0, 100, 91
1, 116848, Note_off_c, 0, 100, 64
1, 116849, Note_on_c, 0, 98, 82
1, 116884, Note_off_c, 0, 98, 65
1, 116913, Note_on_c, 0, 99, 98
1, 116966, Note_off_c, 0, 99, 70
1, 116997, Note_on_c, 0, 100, 95
1, 117037, Note_off_c, 0, 100, 66
1, 117068, Note_on_c, 0, 99, 93
1, 117085, Note_on_c, 0, 100, 60
1, 117098, Note_off_c, 0, 100, 0
1, 117110, Note_on_c, 0, 100, 68
1, 117113, Note_off_c, 0, 99, 67
1, 117161, Note_off_c, 0, 100, 65
1, 117192, Note_on_c, 0, 99, 94
1, 117235, Note_off_c, 0, 99, 67
1, 117245, Note_on_c, 0, 100, 88
1, 117287, Note_off_c, 0, 100, 65
1, 117312, Note_on_c, 0, 99, 87
1, 117354, Note_off_c, 0, 99, 68
1, 117379, Note_on_c, 0, 100, 92
1, 117421, Note_off_c, 0, 100, 65
1, 117436, Note_on_c, 0, 99, 94
1, 117478, Note_off_c, 0, 99, 67
1, 117494, Note_on_c, 0, 100, 95
1, 117538, Note_off_c, 0, 100, 66
1, 117563, Note_on_c, 0, 99, 87
1, 117605, Note_off_c, 0, 99, 69
1, 117615, Note_on_c, 0, 100, 90
1, 117657, Note_off_c, 0, 100, 65
1, 117684, Note_on_c, 0, 99, 84
1, 117727, Note_off_c, 0, 99, 68
1, 117731, Note_on_c, 0, 100, 88
1, 117772, Note_off_c, 0, 100, 66
1, 117804, Note_on_c, 0, 99, 83
1, 117839, Note_on_c, 0, 100, 86
1, 117846, Note_off_c, 0, 99, 68
1, 117882, Note_off_c, 0, 100, 65
1, 117909, Note_on_c, 0, 99, 97
1, 117957, Note_off_c, 0, 99, 69
1, 117972, Note_on_c, 0, 100, 93
1, 118014, Note_off_c, 0, 100, 65
1, 118049, Note_on_c, 0, 99, 77
1, 118087, Note_off_c, 0, 99, 66
1, 118104, Note_on_c, 0, 100, 85
1, 118149, Note_off_c, 0, 100, 65
1, 118177, Note_on_c, 0, 99, 89
1, 118223, Note_off_c, 0, 99, 67
1, 118234, Note_on_c, 0, 100, 79
1, 118269, Note_off_c, 0, 100, 63
1, 118302, Note_on_c, 0, 99, 76
1, 118342, Note_off_c, 0, 99, 66
1, 118368, Note_on_c, 0, 100, 76
1, 118403, Note_off_c, 0, 100, 61
1, 118427, Note_on_c, 0, 99, 75
1, 118462, Note_off_c, 0, 99, 66
1, 118493, Note_on_c, 0, 100, 71
1, 118526, Note_off_c, 0, 100, 62
1, 118560, Note_on_c, 0, 99, 74
1, 118590, Note_off_c, 0, 99, 68
1, 118622, Note_on_c, 0, 100, 70
1, 118654, Note_off_c, 0, 100, 62
1, 118682, Note_on_c, 0, 99, 59
1, 118717, Note_off_c, 0, 99, 65
1, 118743, Note_on_c, 0, 100, 68
1, 118770, Note_off_c, 0, 100, 65
1, 118863, Note_on_c, 0, 100, 70
1, 118886, Note_on_c, 0, 99, 64
1, 118905, Note_off_c, 0, 99, 67
1, 118910, Note_off_c, 0, 100, 62
1, 118944, Note_on_c, 0, 99, 100
1, 118986, Note_off_c, 0, 99, 69
1, 118999, Note_on_c, 0, 100, 79
1, 119062, Note_on_c, 0, 99, 74
1, 119065, Note_off_c, 0, 100, 65
1, 119124, Note_off_c, 0, 99, 63
1, 119129, Note_on_c, 0, 100, 68
1, 119200, Note_off_c, 0, 100, 65
1, 119210, Note_on_c, 0, 99, 63
1, 119266, Note_off_c, 0, 99, 65
1, 119268, Note_on_c, 0, 100, 61
1, 119328, Note_on_c, 0, 99, 58
1, 119329, Note_off_c, 0, 100, 62
1, 119387, Note_off_c, 0, 99, 64
1, 119391, Note_on_c, 0, 100, 57
1, 119452, Note_off_c, 0, 100, 62
1, 119460, Note_on_c, 0, 99, 54
1, 119512, Note_off_c, 0, 99, 63
1, 119517, Note_on_c, 0, 100, 52
1, 119579, Note_off_c, 0, 100, 60
1, 119593, Note_on_c, 0, 99, 52
1, 119624, Control_c, 0, 67, 11
1, 119639, Control_c, 0, 67, 24
1, 119650, Note_off_c, 0, 99, 64
1, 119654, Control_c, 0, 67, 44
1, 119666, Note_on_c, 0, 100, 54
1, 119669, Control_c, 0, 67, 71
1, 119684, Control_c, 0, 67, 97
1, 119698, Control_c, 0, 67, 127
1, 119712, Note_off_c, 0, 100, 64
1, 119713, Control_c, 0, 67, 127
1, 119718, Note_on_c, 0, 75, 53
1, 119724, Note_on_c, 0, 99, 51
1, 119770, Note_off_c, 0, 99, 64
1, 119793, Note_on_c, 0, 100, 58
1, 119843, Note_off_c, 0, 100, 62
1, 119857, Note_on_c, 0, 99, 56
1, 119899, Note_off_c, 0, 99, 62
1, 119922, Note_on_c, 0, 100, 56
1, 119940, Note_off_c, 0, 75, 36
1, 119974, Note_on_c, 0, 87, 69
1, 119979, Note_off_c, 0, 100, 64
1, 120001, Note_on_c, 0, 99, 51
1, 120015, Note_off_c, 0, 87, 56
1, 120034, Note_off_c, 0, 99, 52
1, 120060, Note_on_c, 0, 100, 53
1, 120124, Note_on_c, 0, 99, 58
1, 120153, Note_off_c, 0, 100, 47
1, 120157, Note_off_c, 0, 99, 69
1, 120195, Note_on_c, 0, 87, 76
1, 120253, Note_off_c, 0, 87, 62
1, 120265, Note_on_c, 0, 99, 64
1, 120308, Note_off_c, 0, 99, 65
1, 120318, Note_on_c, 0, 100, 62
1, 120395, Note_on_c, 0, 99, 60
1, 120401, Note_off_c, 0, 100, 58
1, 120428, Note_off_c, 0, 99, 68
1, 120444, Note_on_c, 0, 85, 63
1, 120464, Note_on_c, 0, 87, 76
1, 120469, Note_off_c, 0, 85, 68
1, 120517, Note_off_c, 0, 87, 61
1, 120534, Note_on_c, 0, 99, 57
1, 120574, Note_off_c, 0, 99, 66
1, 120588, Note_on_c, 0, 100, 62
1, 120594, Control_c, 0, 64, 109
1, 120601, Note_on_c, 0, 68, 56
1, 120609, Control_c, 0, 64, 82
1, 120624, Control_c, 0, 64, 44
1, 120639, Control_c, 0, 64, 0
1, 120646, Note_on_c, 0, 99, 59
1, 120655, Note_off_c, 0, 100, 56
1, 120668, Control_c, 0, 64, 65
1, 120678, Note_off_c, 0, 68, 60
1, 120683, Control_c, 0, 64, 73
1, 120698, Control_c, 0, 64, 84
1, 120699, Note_off_c, 0, 99, 67
1, 120713, Control_c, 0, 64, 94
1, 120722, Note_on_c, 0, 83, 74
1, 120726, Note_on_c, 0, 87, 76
1, 120727, Control_c, 0, 64, 102
1, 120742, Control_c, 0, 64, 106
1, 120757, Control_c, 0, 64, 108
1, 120772, Control_c, 0, 64, 109
1, 120779, Note_off_c, 0, 87, 63
1, 120782, Note_off_c, 0, 83, 59
1, 120787, Control_c, 0, 64, 110
1, 120791, Note_on_c, 0, 99, 54
1, 120801, Control_c, 0, 64, 112
1, 120816, Control_c, 0, 64, 114
1, 120831, Control_c, 0, 64, 117
1, 120834, Note_off_c, 0, 99, 66
1, 120843, Note_on_c, 0, 100, 68
1, 120845, Control_c, 0, 64, 118
1, 120860, Control_c, 0, 64, 119
1, 120875, Control_c, 0, 64, 120
1, 120890, Control_c, 0, 64, 120
1, 120902, Note_on_c, 0, 99, 58
1, 120905, Control_c, 0, 64, 121
1, 120919, Control_c, 0, 64, 124
1, 120928, Note_off_c, 0, 100, 57
1, 120934, Control_c, 0, 64, 126
1, 120949, Control_c, 0, 64, 127
1, 120951, Note_off_c, 0, 99, 66
1, 120973, Note_on_c, 0, 83, 68
1, 120983, Note_on_c, 0, 87, 75
1, 121030, Note_off_c, 0, 87, 61
1, 121033, Note_off_c, 0, 83, 55
1, 121054, Note_on_c, 0, 99, 58
1, 121089, Note_off_c, 0, 99, 68
1, 121099, Note_on_c, 0, 100, 64
1, 121164, Note_on_c, 0, 99, 56
1, 121171, Note_off_c, 0, 100, 54
1, 121200, Note_off_c, 0, 99, 68
1, 121229, Note_on_c, 0, 82, 75
1, 121240, Note_on_c, 0, 87, 74
1, 121256, Note_off_c, 0, 82, 67
1, 121283, Note_off_c, 0, 87, 58
1, 121300, Note_on_c, 0, 99, 62
1, 121339, Note_off_c, 0, 99, 65
1, 121359, Note_on_c, 0, 100, 61
1, 121402, Control_c, 0, 64, 126
1, 121416, Note_on_c, 0, 99, 54
1, 121417, Control_c, 0, 64, 123
1, 121426, Note_off_c, 0, 100, 57
1, 121432, Control_c, 0, 64, 116
1, 121447, Control_c, 0, 64, 101
1, 121456, Note_off_c, 0, 99, 67
1, 121462, Control_c, 0, 64, 82
1, 121476, Control_c, 0, 64, 59
1, 121489, Note_on_c, 0, 80, 82
1, 121490, Note_on_c, 0, 71, 62
1, 121491, Control_c, 0, 64, 0
1, 121500, Note_on_c, 0, 87, 67
1, 121536, Control_c, 0, 64, 40
1, 121536, Note_off_c, 0, 87, 60
1, 121550, Control_c, 0, 64, 63
1, 121565, Control_c, 0, 64, 68
1, 121572, Note_on_c, 0, 99, 49
1, 121580, Control_c, 0, 64, 75
1, 121594, Control_c, 0, 64, 83
1, 121602, Note_off_c, 0, 99, 53
1, 121609, Control_c, 0, 64, 88
1, 121614, Note_off_c, 0, 71, 56
1, 121620, Note_on_c, 0, 100, 59
1, 121624, Control_c, 0, 64, 90
1, 121626, Note_off_c, 0, 80, 52
1, 121639, Control_c, 0, 64, 91
1, 121654, Control_c, 0, 64, 92
1, 121668, Control_c, 0, 64, 93
1, 121683, Note_off_c, 0, 100, 58
1, 121683, Control_c, 0, 64, 95
1, 121684, Note_on_c, 0, 99, 58
1, 121698, Control_c, 0, 64, 96
1, 121713, Control_c, 0, 64, 97
1, 121718, Note_off_c, 0, 99, 68
1, 121728, Control_c, 0, 64, 99
1, 121741, Note_on_c, 0, 79, 88
1, 121742, Control_c, 0, 64, 100
1, 121757, Control_c, 0, 64, 101
1, 121760, Note_on_c, 0, 87, 71
1, 121772, Control_c, 0, 64, 102
1, 121809, Control_c, 0, 64, 103
1, 121817, Note_off_c, 0, 87, 59
1, 121836, Note_on_c, 0, 99, 62
1, 121868, Control_c, 0, 64, 103
1, 121874, Note_off_c, 0, 99, 66
1, 121897, Note_on_c, 0, 100, 53
1, 121899, Control_c, 0, 64, 104
1, 121929, Control_c, 0, 64, 105
1, 121943, Control_c, 0, 64, 106
1, 121958, Control_c, 0, 64, 107
1, 121960, Note_on_c, 0, 99, 50
1, 121972, Note_off_c, 0, 100, 37
1, 121973, Control_c, 0, 64, 109
1, 121988, Control_c, 0, 64, 110
1, 121996, Note_off_c, 0, 99, 69
1, 122000, Note_off_c, 0, 79, 55
1, 122002, Control_c, 0, 64, 112
1, 122006, Note_on_c, 0, 80, 88
1, 122018, Control_c, 0, 64, 114
1, 122029, Note_on_c, 0, 87, 71
1, 122033, Control_c, 0, 64, 115
1, 122048, Control_c, 0, 64, 117
1, 122063, Control_c, 0, 64, 117
1, 122064, Note_off_c, 0, 87, 59
1, 122073, Note_off_c, 0, 80, 60
1, 122100, Note_on_c, 0, 99, 57
1, 122130, Note_off_c, 0, 99, 59
1, 122151, Note_on_c, 0, 100, 59
1, 122196, Control_c, 0, 64, 116
1, 122204, Note_off_c, 0, 100, 58
1, 122210, Control_c, 0, 64, 116
1, 122225, Control_c, 0, 64, 114
1, 122226, Note_on_c, 0, 99, 51
1, 122240, Control_c, 0, 64, 113
1, 122255, Control_c, 0, 64, 111
1, 122270, Note_off_c, 0, 99, 68
1, 122270, Control_c, 0, 64, 110
1, 122285, Control_c, 0, 64, 107
1, 122300, Control_c, 0, 64, 97
1, 122305, Note_on_c, 0, 79, 57
1, 122308, Note_on_c, 0, 82, 77
1, 122314, Control_c, 0, 64, 81
1, 122326, Note_on_c, 0, 87, 61
1, 122329, Control_c, 0, 64, 58
1, 122344, Control_c, 0, 64, 0
1, 122368, Note_off_c, 0, 87, 50
1, 122402, Note_on_c, 0, 99, 56
1, 122404, Control_c, 0, 64, 36
1, 122418, Control_c, 0, 64, 62
1, 122433, Control_c, 0, 64, 67
1, 122440, Note_off_c, 0, 99, 65
1, 122448, Control_c, 0, 64, 73
1, 122458, Note_on_c, 0, 100, 59
1, 122463, Control_c, 0, 64, 79
1, 122478, Control_c, 0, 64, 83
1, 122492, Control_c, 0, 64, 86
1, 122507, Control_c, 0, 64, 87
1, 122522, Control_c, 0, 64, 89
1, 122524, Note_off_c, 0, 79, 54
1, 122529, Note_off_c, 0, 82, 56
1, 122532, Note_on_c, 0, 99, 57
1, 122544, Control_c, 0, 64, 92
1, 122559, Control_c, 0, 64, 94
1, 122565, Note_off_c, 0, 100, 39
1, 122571, Note_off_c, 0, 99, 70
1, 122574, Control_c, 0, 64, 95
1, 122574, Note_on_c, 0, 75, 56
1, 122589, Control_c, 0, 64, 96
1, 122604, Note_on_c, 0, 87, 71
1, 122604, Control_c, 0, 64, 97
1, 122618, Control_c, 0, 64, 97
1, 122633, Control_c, 0, 64, 98
1, 122638, Note_off_c, 0, 87, 58
1, 122648, Control_c, 0, 64, 98
1, 122677, Note_on_c, 0, 99, 54
1, 122703, Note_off_c, 0, 99, 62
1, 122705, Note_off_c, 0, 75, 35
1, 122717, Note_on_c, 0, 100, 61
1, 122786, Note_off_c, 0, 100, 56
1, 122787, Note_on_c, 0, 99, 58
1, 122818, Note_off_c, 0, 99, 67
1, 122826, Note_on_c, 0, 75, 65
1, 122848, Note_on_c, 0, 87, 73
1, 122859, Note_off_c, 0, 75, 65
1, 122896, Note_off_c, 0, 87, 61
1, 122926, Note_on_c, 0, 99, 65
1, 122958, Note_off_c, 0, 99, 66
1, 122972, Note_on_c, 0, 100, 63
1, 123019, Control_c, 0, 64, 98
1, 123033, Control_c, 0, 64, 97
1, 123048, Note_off_c, 0, 100, 61
1, 123048, Control_c, 0, 64, 92
1, 123063, Control_c, 0, 64, 80
1, 123077, Note_on_c, 0, 76, 79
1, 123078, Note_on_c, 0, 67, 62
1, 123078, Control_c, 0, 64, 63
1, 123086, Note_on_c, 0, 70, 62
1, 123093, Control_c, 0, 64, 0
1, 123095, Note_on_c, 0, 87, 69
1, 123131, Note_off_c, 0, 87, 61
1, 123137, Control_c, 0, 64, 52
1, 123152, Control_c, 0, 64, 64
1, 123165, Note_off_c, 0, 67, 54
1, 123167, Note_on_c, 0, 99, 51
1, 123167, Control_c, 0, 64, 68
1, 123172, Note_off_c, 0, 70, 52
1, 123182, Control_c, 0, 64, 73
1, 123192, Note_off_c, 0, 99, 62
1, 123197, Control_c, 0, 64, 79
1, 123205, Note_off_c, 0, 76, 49
1, 123206, Note_on_c, 0, 100, 57
1, 123212, Control_c, 0, 64, 84
1, 123227, Control_c, 0, 64, 86
1, 123256, Control_c, 0, 64, 86
1, 123271, Note_off_c, 0, 100, 59
1, 123271, Control_c, 0, 64, 87
1, 123287, Note_on_c, 0, 99, 59
1, 123308, Control_c, 0, 64, 87
1, 123313, Note_off_c, 0, 99, 64
1, 123322, Control_c, 0, 64, 88
1, 123346, Note_on_c, 0, 75, 73
1, 123355, Note_on_c, 0, 87, 71
1, 123367, Control_c, 0, 64, 88
1, 123403, Note_off_c, 0, 87, 56
1, 123417, Note_on_c, 0, 99, 60
1, 123431, Note_off_c, 0, 75, 62
1, 123452, Note_off_c, 0, 99, 67
1, 123467, Note_on_c, 0, 100, 59
1, 123535, Note_on_c, 0, 99, 50
1, 123545, Note_off_c, 0, 100, 58
1, 123564, Note_off_c, 0, 99, 67
1, 123590, Note_on_c, 0, 73, 74
1, 123599, Note_on_c, 0, 87, 71
1, 123639, Note_off_c, 0, 73, 64
1, 123643, Note_off_c, 0, 87, 58
1, 123671, Note_on_c, 0, 99, 56
1, 123698, Note_off_c, 0, 99, 63
1, 123712, Note_on_c, 0, 100, 57
1, 123778, Note_off_c, 0, 100, 58
1, 123782, Control_c, 0, 64, 88
1, 123783, Note_on_c, 0, 99, 59
1, 123796, Control_c, 0, 64, 85
1, 123809, Note_off_c, 0, 99, 62
1, 123811, Control_c, 0, 64, 76
1, 123826, Control_c, 0, 64, 56
1, 123841, Control_c, 0, 64, 0
1, 123842, Note_on_c, 0, 71, 77
1, 123852, Note_on_c, 0, 68, 67
1, 123854, Note_on_c, 0, 87, 66
1, 123893, Note_off_c, 0, 87, 57
1, 123900, Control_c, 0, 64, 54
1, 123911, Note_on_c, 0, 99, 65
1, 123915, Control_c, 0, 64, 66
1, 123930, Control_c, 0, 64, 71
1, 123945, Control_c, 0, 64, 77
1, 123949, Note_off_c, 0, 71, 52
1, 123953, Note_off_c, 0, 99, 62
1, 123955, Note_off_c, 0, 68, 57
1, 123960, Control_c, 0, 64, 82
1, 123964, Note_on_c, 0, 100, 64
1, 123975, Control_c, 0, 64, 85
1, 123989, Control_c, 0, 64, 85
1, 124004, Control_c, 0, 64, 86
1, 124041, Control_c, 0, 64, 86
1, 124042, Note_on_c, 0, 99, 55
1, 124049, Note_off_c, 0, 100, 53
1, 124056, Control_c, 0, 64, 87
1, 124076, Note_off_c, 0, 99, 70
1, 124109, Note_on_c, 0, 71, 69
1, 124115, Note_on_c, 0, 68, 66
1, 124116, Note_on_c, 0, 87, 66
1, 124144, Note_off_c, 0, 71, 55
1, 124146, Note_off_c, 0, 87, 63
1, 124158, Note_off_c, 0, 68, 62
1, 124178, Note_on_c, 0, 99, 63
1, 124215, Note_off_c, 0, 99, 65
1, 124216, Note_on_c, 0, 100, 65
1, 124279, Note_on_c, 0, 99, 60
1, 124306, Note_off_c, 0, 100, 51
1, 124308, Control_c, 0, 64, 85
1, 124323, Control_c, 0, 64, 79
1, 124337, Control_c, 0, 64, 67
1, 124339, Note_off_c, 0, 99, 67
1, 124352, Control_c, 0, 64, 0
1, 124358, Note_on_c, 0, 70, 77
1, 124369, Note_on_c, 0, 66, 65
1, 124375, Note_on_c, 0, 87, 63
1, 124405, Note_off_c, 0, 87, 64
1, 124412, Control_c, 0, 64, 61
1, 124427, Control_c, 0, 64, 67
1, 124437, Note_off_c, 0, 70, 60
1, 124440, Note_on_c, 0, 99, 55
1, 124442, Control_c, 0, 64, 73
1, 124444, Note_off_c, 0, 66, 64
1, 124457, Control_c, 0, 64, 80
1, 124467, Note_off_c, 0, 99, 61
1, 124472, Control_c, 0, 64, 84
1, 124482, Note_on_c, 0, 100, 61
1, 124487, Control_c, 0, 64, 85
1, 124557, Note_on_c, 0, 99, 59
1, 124560, Note_off_c, 0, 100, 58
1, 124560, Control_c, 0, 64, 85
1, 124575, Control_c, 0, 64, 79
1, 124590, Control_c, 0, 64, 67
1, 124593, Note_off_c, 0, 99, 68
1, 124605, Control_c, 0, 64, 0
1, 124615, Note_on_c, 0, 68, 75
1, 124621, Note_on_c, 0, 64, 66
1, 124630, Note_on_c, 0, 87, 68
1, 124664, Control_c, 0, 64, 49
1, 124669, Note_off_c, 0, 87, 61
1, 124678, Control_c, 0, 64, 64
1, 124692, Note_off_c, 0, 64, 62
1, 124693, Control_c, 0, 64, 68
1, 124701, Note_on_c, 0, 99, 58
1, 124708, Control_c, 0, 64, 72
1, 124723, Note_off_c, 0, 68, 59
1, 124723, Note_off_c, 0, 99, 62
1, 124723, Control_c, 0, 64, 76
1, 124738, Control_c, 0, 64, 80
1, 124745, Note_on_c, 0, 100, 59
1, 124753, Control_c, 0, 64, 80
1, 124790, Control_c, 0, 64, 81
1, 124805, Control_c, 0, 64, 82
1, 124812, Note_on_c, 0, 99, 65
1, 124816, Note_off_c, 0, 100, 58
1, 124819, Control_c, 0, 64, 82
1, 124834, Control_c, 0, 64, 83
1, 124849, Note_off_c, 0, 99, 66
1, 124864, Control_c, 0, 64, 84
1, 124873, Note_on_c, 0, 67, 82
1, 124893, Note_on_c, 0, 87, 67
1, 124923, Note_off_c, 0, 87, 64
1, 124953, Note_on_c, 0, 99, 58
1, 124953, Note_off_c, 0, 67, 57
1, 124953, Control_c, 0, 64, 84
1, 124968, Control_c, 0, 64, 85
1, 124983, Control_c, 0, 64, 86
1, 124988, Note_off_c, 0, 99, 65
1, 124999, Note_on_c, 0, 100, 64
1, 125027, Control_c, 0, 64, 86
1, 125057, Control_c, 0, 64, 87
1, 125062, Note_off_c, 0, 100, 61
1, 125072, Control_c, 0, 64, 87
1, 125074, Note_on_c, 0, 99, 59
1, 125087, Control_c, 0, 64, 88
1, 125102, Control_c, 0, 64, 89
1, 125106, Note_off_c, 0, 99, 70
1, 125117, Control_c, 0, 64, 89
1, 125118, Note_on_c, 0, 68, 87
1, 125139, Note_on_c, 0, 87, 69
1, 125146, Control_c, 0, 64, 90
1, 125172, Note_off_c, 0, 87, 63
1, 125215, Note_on_c, 0, 99, 50
1, 125235, Note_off_c, 0, 68, 57
1, 125241, Note_off_c, 0, 99, 63
1, 125245, Note_on_c, 0, 100, 65
1, 125310, Control_c, 0, 64, 89
1, 125313, Note_off_c, 0, 100, 58
1, 125328, Note_on_c, 0, 99, 61
1, 125340, Control_c, 0, 64, 88
1, 125355, Control_c, 0, 64, 85
1, 125361, Note_off_c, 0, 99, 67
1, 125370, Control_c, 0, 64, 76
1, 125382, Note_on_c, 0, 70, 78
1, 125384, Control_c, 0, 64, 54
1, 125387, Note_on_c, 0, 67, 65
1, 125398, Note_on_c, 0, 87, 66
1, 125399, Control_c, 0, 64, 0
1, 125436, Note_off_c, 0, 87, 59
1, 125466, Note_on_c, 0, 99, 56
1, 125473, Control_c, 0, 64, 39
1, 125488, Control_c, 0, 64, 63
1, 125503, Control_c, 0, 64, 70
1, 125507, Note_off_c, 0, 99, 68
1, 125513, Note_on_c, 0, 100, 63
1, 125518, Control_c, 0, 64, 76
1, 125540, Control_c, 0, 64, 81
1, 125555, Control_c, 0, 64, 83
1, 125570, Control_c, 0, 64, 84
1, 125582, Note_on_c, 0, 99, 52
1, 125585, Control_c, 0, 64, 84
1, 125594, Note_off_c, 0, 100, 58
1, 125596, Note_off_c, 0, 70, 50
1, 125599, Control_c, 0, 64, 85
1, 125614, Control_c, 0, 64, 87
1, 125626, Note_off_c, 0, 67, 57
1, 125626, Note_off_c, 0, 99, 66
1, 125629, Control_c, 0, 64, 87
1, 125644, Control_c, 0, 64, 88
1, 125650, Note_on_c, 0, 63, 56
1, 125659, Control_c, 0, 64, 88
1, 125662, Note_on_c, 0, 87, 73
1, 125698, Note_off_c, 0, 87, 57
1, 125710, Note_off_c, 0, 63, 46
1, 125734, Note_on_c, 0, 99, 58
1, 125767, Note_off_c, 0, 99, 67
1, 125780, Note_on_c, 0, 100, 61
1, 125842, Note_on_c, 0, 99, 59
1, 125847, Note_off_c, 0, 100, 59
1, 125874, Note_off_c, 0, 99, 71
1, 125909, Note_on_c, 0, 87, 69
1, 125945, Note_off_c, 0, 87, 57
1, 125994, Note_on_c, 0, 99, 49
1, 126018, Note_off_c, 0, 99, 62
1, 126029, Note_on_c, 0, 63, 55
1, 126029, Note_on_c, 0, 100, 58
1, 126103, Note_on_c, 0, 99, 56
1, 126109, Note_off_c, 0, 100, 42
1, 126123, Note_off_c, 0, 99, 65
1, 126142, Note_off_c, 0, 63, 62
1, 126156, Note_on_c, 0, 87, 72
1, 126172, Note_on_c, 0, 75, 62
1, 126206, Note_off_c, 0, 87, 57
1, 126218, Note_on_c, 0, 99, 64
1, 126232, Note_off_c, 0, 75, 58
1, 126259, Note_off_c, 0, 99, 65
1, 126285, Note_on_c, 0, 100, 54
1, 126336, Note_on_c, 0, 99, 55
1, 126356, Note_off_c, 0, 100, 56
1, 126375, Note_off_c, 0, 99, 68
1, 126413, Note_on_c, 0, 87, 66
1, 126419, Note_on_c, 0, 75, 64
1, 126452, Note_off_c, 0, 87, 56
1, 126484, Note_on_c, 0, 99, 42
1, 126485, Note_off_c, 0, 75, 50
1, 126508, Note_off_c, 0, 99, 60
1, 126518, Note_on_c, 0, 100, 60
1, 126586, Note_on_c, 0, 99, 57
1, 126587, Note_off_c, 0, 100, 52
1, 126609, Note_on_c, 0, 73, 67
1, 126619, Note_off_c, 0, 99, 53
1, 126635, Note_off_c, 0, 73, 68
1, 126649, Note_on_c, 0, 87, 65
1, 126705, Note_off_c, 0, 87, 60
1, 126713, Note_on_c, 0, 99, 63
1, 126744, Note_on_c, 0, 56, 67
1, 126748, Control_c, 0, 64, 88
1, 126750, Note_off_c, 0, 99, 62
1, 126777, Control_c, 0, 64, 86
1, 126789, Note_off_c, 0, 56, 49
1, 126792, Control_c, 0, 64, 79
1, 126808, Control_c, 0, 64, 65
1, 126823, Control_c, 0, 64, 0
1, 126856, Note_on_c, 0, 99, 77
1, 126864, Note_on_c, 0, 71, 69
1, 126882, Control_c, 0, 64, 61
1, 126896, Note_off_c, 0, 99, 64
1, 126897, Control_c, 0, 64, 69
1, 126911, Note_on_c, 0, 100, 49
1, 126912, Control_c, 0, 64, 76
1, 126927, Control_c, 0, 64, 85
1, 126932, Note_off_c, 0, 71, 54
1, 126942, Control_c, 0, 64, 89
1, 126956, Control_c, 0, 64, 90
1, 126971, Control_c, 0, 64, 90
1, 126975, Note_on_c, 0, 99, 71
1, 126983, Note_off_c, 0, 100, 64
1, 126986, Control_c, 0, 64, 91
1, 127001, Control_c, 0, 64, 91
1, 127006, Note_off_c, 0, 99, 66
1, 127015, Control_c, 0, 64, 92
1, 127023, Note_on_c, 0, 87, 73
1, 127060, Note_off_c, 0, 87, 64
1, 127106, Note_on_c, 0, 71, 51
1, 127117, Note_on_c, 0, 87, 63
1, 127148, Note_off_c, 0, 71, 52
1, 127170, Note_off_c, 0, 87, 64
1, 127172, Note_on_c, 0, 88, 58
1, 127217, Note_on_c, 0, 87, 51
1, 127224, Note_off_c, 0, 88, 55
1, 127247, Note_off_c, 0, 87, 64
1, 127279, Note_on_c, 0, 75, 71
1, 127323, Note_off_c, 0, 75, 62
1, 127334, Note_on_c, 0, 70, 65
1, 127336, Note_on_c, 0, 87, 71
1, 127360, Note_on_c, 0, 88, 65
1, 127362, Note_off_c, 0, 70, 68
1, 127367, Note_off_c, 0, 87, 62
1, 127384, Note_off_c, 0, 88, 68
1, 127423, Control_c, 0, 64, 91
1, 127476, Note_on_c, 0, 87, 64
1, 127482, Control_c, 0, 64, 91
1, 127512, Control_c, 0, 64, 90
1, 127527, Control_c, 0, 64, 86
1, 127535, Note_off_c, 0, 87, 55
1, 127541, Control_c, 0, 64, 75
1, 127556, Control_c, 0, 64, 44
1, 127571, Control_c, 0, 64, 0
1, 127572, Note_on_c, 0, 68, 71
1, 127573, Note_on_c, 0, 99, 68
1, 127579, Note_on_c, 0, 59, 55
1, 127615, Note_off_c, 0, 99, 67
1, 127617, Control_c, 0, 64, 48
1, 127623, Note_on_c, 0, 100, 68
1, 127631, Control_c, 0, 64, 64
1, 127646, Control_c, 0, 64, 69
1, 127661, Control_c, 0, 64, 74
1, 127671, Note_off_c, 0, 68, 55
1, 127676, Control_c, 0, 64, 80
1, 127686, Note_on_c, 0, 99, 48
1, 127688, Note_off_c, 0, 100, 65
1, 127691, Note_off_c, 0, 59, 51
1, 127691, Control_c, 0, 64, 83
1, 127712, Note_off_c, 0, 99, 63
1, 127720, Control_c, 0, 64, 83
1, 127726, Note_on_c, 0, 87, 75
1, 127764, Note_off_c, 0, 87, 60
1, 127764, Control_c, 0, 64, 84
1, 127815, Note_on_c, 0, 67, 69
1, 127832, Note_on_c, 0, 87, 52
1, 127871, Note_off_c, 0, 87, 65
1, 127877, Note_on_c, 0, 88, 62
1, 127925, Note_on_c, 0, 87, 64
1, 127940, Note_off_c, 0, 88, 54
1, 127960, Note_off_c, 0, 87, 61
1, 127995, Note_on_c, 0, 75, 69
1, 128036, Note_off_c, 0, 67, 61
1, 128045, Note_off_c, 0, 75, 53
1, 128053, Note_on_c, 0, 87, 67
1, 128055, Note_on_c, 0, 68, 68
1, 128083, Note_on_c, 0, 88, 61
1, 128084, Note_off_c, 0, 87, 61
1, 128100, Note_off_c, 0, 88, 64
1, 128124, Note_off_c, 0, 68, 52
1, 128186, Note_on_c, 0, 87, 68
1, 128230, Control_c, 0, 64, 83
1, 128242, Note_off_c, 0, 87, 53
1, 128260, Control_c, 0, 64, 81
1, 128275, Control_c, 0, 64, 72
1, 128290, Control_c, 0, 64, 0
1, 128291, Note_on_c, 0, 99, 68
1, 128300, Note_on_c, 0, 70, 77
1, 128312, Note_on_c, 0, 67, 58
1, 128336, Note_off_c, 0, 99, 66
1, 128346, Note_on_c, 0, 100, 67
1, 128363, Control_c, 0, 64, 59
1, 128378, Control_c, 0, 64, 68
1, 128393, Control_c, 0, 64, 74
1, 128403, Note_off_c, 0, 70, 53
1, 128408, Note_on_c, 0, 99, 54
1, 128409, Control_c, 0, 64, 80
1, 128413, Note_off_c, 0, 100, 64
1, 128424, Control_c, 0, 64, 84
1, 128439, Control_c, 0, 64, 84
1, 128441, Note_off_c, 0, 99, 68
1, 128452, Note_on_c, 0, 87, 70
1, 128475, Note_off_c, 0, 67, 36
1, 128491, Note_off_c, 0, 87, 60
1, 128498, Control_c, 0, 64, 85
1, 128539, Note_on_c, 0, 63, 53
1, 128546, Note_on_c, 0, 87, 60
1, 128585, Note_off_c, 0, 87, 64
1, 128587, Note_off_c, 0, 63, 61
1, 128593, Note_on_c, 0, 88, 61
1, 128646, Note_on_c, 0, 87, 60
1, 128655, Note_off_c, 0, 88, 58
1, 128679, Note_off_c, 0, 87, 55
1, 128720, Note_on_c, 0, 75, 65
1, 128761, Note_off_c, 0, 75, 56
1, 128775, Note_on_c, 0, 63, 57
1, 128777, Note_on_c, 0, 87, 67
1, 128802, Control_c, 0, 64, 84
1, 128804, Note_on_c, 0, 88, 58
1, 128807, Note_off_c, 0, 87, 63
1, 128822, Note_off_c, 0, 88, 63
1, 128828, Note_off_c, 0, 63, 62
1, 128876, Control_c, 0, 64, 84
1, 128914, Note_on_c, 0, 87, 61
1, 128958, Note_off_c, 0, 87, 55
1, 128965, Control_c, 0, 64, 81
1, 128980, Control_c, 0, 64, 72
1, 128995, Control_c, 0, 64, 26
1, 129010, Control_c, 0, 64, 0
1, 129012, Note_on_c, 0, 68, 69
1, 129013, Note_on_c, 0, 99, 58
1, 129016, Note_on_c, 0, 59, 57
1, 129045, Note_off_c, 0, 99, 70
1, 129054, Control_c, 0, 64, 38
1, 129057, Note_on_c, 0, 100, 67
1, 129069, Control_c, 0, 64, 64
1, 129084, Control_c, 0, 64, 70
1, 129094, Note_off_c, 0, 68, 60
1, 129099, Control_c, 0, 64, 75
1, 129113, Control_c, 0, 64, 81
1, 129117, Note_on_c, 0, 99, 60
1, 129120, Note_off_c, 0, 59, 48
1, 129122, Note_off_c, 0, 100, 64
1, 129128, Control_c, 0, 64, 84
1, 129146, Note_off_c, 0, 99, 70
1, 129158, Control_c, 0, 64, 85
1, 129162, Note_on_c, 0, 87, 69
1, 129189, Note_off_c, 0, 87, 64
1, 129218, Control_c, 0, 64, 84
1, 129233, Control_c, 0, 64, 78
1, 129247, Note_on_c, 0, 66, 68
1, 129248, Control_c, 0, 64, 63
1, 129260, Note_on_c, 0, 60, 54
1, 129263, Control_c, 0, 64, 0
1, 129266, Note_on_c, 0, 87, 51
1, 129305, Note_off_c, 0, 60, 63
1, 129308, Note_off_c, 0, 87, 66
1, 129311, Note_on_c, 0, 88, 62
1, 129314, Control_c, 0, 64, 48
1, 129329, Control_c, 0, 64, 64
1, 129340, Note_off_c, 0, 66, 65
1, 129344, Control_c, 0, 64, 70
1, 129358, Control_c, 0, 64, 74
1, 129373, Control_c, 0, 64, 79
1, 129376, Note_on_c, 0, 87, 65
1, 129386, Note_off_c, 0, 88, 55
1, 129388, Control_c, 0, 64, 81
1, 129406, Note_off_c, 0, 87, 64
1, 129433, Control_c, 0, 64, 80
1, 129442, Note_on_c, 0, 75, 64
1, 129448, Control_c, 0, 64, 74
1, 129463, Control_c, 0, 64, 60
1, 129477, Control_c, 0, 64, 0
1, 129486, Note_off_c, 0, 75, 63
1, 129490, Note_on_c, 0, 64, 69
1, 129495, Note_on_c, 0, 61, 60
1, 129509, Note_on_c, 0, 87, 63
1, 129522, Control_c, 0, 64, 61
1, 129528, Note_on_c, 0, 88, 59
1, 129535, Note_off_c, 0, 61, 59
1, 129537, Control_c, 0, 64, 66
1, 129539, Note_off_c, 0, 87, 66
1, 129547, Note_off_c, 0, 88, 64
1, 129551, Control_c, 0, 64, 70
1, 129561, Note_off_c, 0, 64, 57
1, 129566, Control_c, 0, 64, 75
1, 129581, Control_c, 0, 64, 78
1, 129596, Control_c, 0, 64, 79
1, 129625, Control_c, 0, 64, 78
1, 129640, Control_c, 0, 64, 76
1, 129641, Note_on_c, 0, 87, 59
1, 129655, Control_c, 0, 64, 69
1, 129670, Control_c, 0, 64, 21
1, 129684, Control_c, 0, 64, 0
1, 129711, Note_on_c, 0, 99, 76
1, 129725, Note_off_c, 0, 87, 51
1, 129729, Control_c, 0, 64, 44
1, 129729, Note_on_c, 0, 63, 70
1, 129743, Control_c, 0, 64, 66
1, 129758, Control_c, 0, 64, 73
1, 129761, Note_off_c, 0, 63, 65
1, 129766, Note_off_c, 0, 99, 68
1, 129772, Note_on_c, 0, 100, 69
1, 129773, Control_c, 0, 64, 80
1, 129788, Control_c, 0, 64, 84
1, 129803, Control_c, 0, 64, 85
1, 129831, Note_on_c, 0, 99, 61
1, 129836, Note_off_c, 0, 100, 65
1, 129862, Control_c, 0, 64, 84
1, 129873, Note_on_c, 0, 87, 61
1, 129877, Control_c, 0, 64, 80
1, 129880, Note_off_c, 0, 99, 65
1, 129892, Control_c, 0, 64, 71
1, 129895, Note_off_c, 0, 87, 58
1, 129907, Control_c, 0, 64, 0
1, 129963, Note_on_c, 0, 80, 73
1, 129985, Note_off_c, 0, 80, 70
1, 130083, Note_on_c, 0, 83, 69
1, 130095, Note_on_c, 0, 75, 51
1, 130107, Note_off_c, 0, 83, 66
1, 130119, Note_off_c, 0, 75, 57
1, 130204, Note_on_c, 0, 87, 80
1, 130207, Note_on_c, 0, 80, 76
1, 130211, Control_c, 0, 64, 51
1, 130226, Control_c, 0, 64, 68
1, 130228, Note_off_c, 0, 80, 71
1, 130241, Control_c, 0, 64, 76
1, 130245, Note_off_c, 0, 87, 63
1, 130256, Control_c, 0, 64, 84
1, 130271, Control_c, 0, 64, 88
1, 130285, Control_c, 0, 64, 88
1, 130404, Control_c, 0, 64, 85
1, 130419, Control_c, 0, 64, 76
1, 130433, Control_c, 0, 64, 54
1, 130440, Note_on_c, 0, 99, 73
1, 130448, Control_c, 0, 64, 0
1, 130452, Note_on_c, 0, 63, 57
1, 130478, Control_c, 0, 64, 62
1, 130490, Note_off_c, 0, 99, 69
1, 130493, Control_c, 0, 64, 68
1, 130494, Note_off_c, 0, 63, 63
1, 130496, Note_on_c, 0, 100, 68
1, 130507, Control_c, 0, 64, 74
1, 130522, Control_c, 0, 64, 80
1, 130537, Control_c, 0, 64, 83
1, 130555, Note_off_c, 0, 100, 65
1, 130556, Note_on_c, 0, 99, 64
1, 130581, Control_c, 0, 64, 82
1, 130584, Note_on_c, 0, 87, 65
1, 130596, Control_c, 0, 64, 79
1, 130609, Note_off_c, 0, 99, 66
1, 130611, Control_c, 0, 64, 73
1, 130616, Note_off_c, 0, 87, 62
1, 130625, Control_c, 0, 64, 63
1, 130640, Control_c, 0, 64, 0
1, 130699, Note_on_c, 0, 79, 66
1, 130707, Note_on_c, 0, 70, 40
1, 130715, Note_off_c, 0, 79, 65
1, 130734, Note_off_c, 0, 70, 48
1, 130848, Note_on_c, 0, 82, 72
1, 130850, Note_on_c, 0, 75, 54
1, 130870, Note_off_c, 0, 82, 68
1, 130891, Note_off_c, 0, 75, 63
1, 131023, Note_on_c, 0, 87, 65
1, 131037, Note_on_c, 0, 79, 56
1, 131049, Control_c, 0, 64, 60
1, 131057, Note_off_c, 0, 79, 62
1, 131058, Note_off_c, 0, 87, 61
1, 131063, Control_c, 0, 64, 69
1, 131078, Control_c, 0, 64, 75
1, 131093, Control_c, 0, 64, 82
1, 131108, Control_c, 0, 64, 85
1, 131123, Control_c, 0, 64, 86
1, 131138, Control_c, 0, 64, 87
1, 131153, Control_c, 0, 64, 87
1, 131197, Control_c, 0, 64, 88
1, 131271, Control_c, 0, 64, 87
1, 131286, Control_c, 0, 64, 84
1, 131301, Control_c, 0, 64, 77
1, 131316, Control_c, 0, 64, 64
1, 131330, Control_c, 0, 64, 0
1, 131338, Note_on_c, 0, 56, 44
1, 131374, Control_c, 0, 64, 47
1, 131389, Control_c, 0, 64, 63
1, 131404, Control_c, 0, 64, 67
1, 131419, Control_c, 0, 64, 71
1, 131434, Control_c, 0, 64, 75
1, 131448, Control_c, 0, 64, 78
1, 131463, Control_c, 0, 64, 79
1, 131508, Control_c, 0, 64, 79
1, 131530, Control_c, 0, 64, 80
1, 131541, Note_off_c, 0, 56, 39
1, 131545, Control_c, 0, 64, 81
1, 131583, Note_on_c, 0, 63, 43
1, 131605, Control_c, 0, 64, 81
1, 131635, Control_c, 0, 64, 82
1, 131650, Control_c, 0, 64, 82
1, 131665, Control_c, 0, 64, 83
1, 131666, Note_on_c, 0, 71, 43
1, 131674, Note_off_c, 0, 63, 35
1, 131679, Control_c, 0, 64, 84
1, 131694, Control_c, 0, 64, 85
1, 131701, Note_on_c, 0, 80, 61
1, 131706, Note_off_c, 0, 71, 45
1, 131709, Control_c, 0, 64, 86
1, 131724, Control_c, 0, 64, 86
1, 131734, Note_off_c, 0, 80, 55
1, 131739, Control_c, 0, 64, 87
1, 131753, Control_c, 0, 64, 88
1, 131768, Control_c, 0, 64, 88
1, 132045, Note_on_c, 0, 75, 59
1, 132077, Note_on_c, 0, 87, 56
1, 132094, Note_off_c, 0, 75, 61
1, 132121, Note_off_c, 0, 87, 61
1, 132138, Note_on_c, 0, 88, 61
1, 132190, Note_on_c, 0, 87, 63
1, 132197, Control_c, 0, 64, 89
1, 132198, Note_off_c, 0, 88, 64
1, 132212, Control_c, 0, 64, 89
1, 132217, Note_off_c, 0, 87, 67
1, 132227, Control_c, 0, 64, 90
1, 132242, Control_c, 0, 64, 92
1, 132257, Control_c, 0, 64, 95
1, 132279, Control_c, 0, 64, 97
1, 132286, Note_on_c, 0, 87, 71
1, 132294, Control_c, 0, 64, 100
1, 132309, Control_c, 0, 64, 104
1, 132324, Control_c, 0, 64, 107
1, 132329, Note_on_c, 0, 99, 76
1, 132338, Control_c, 0, 64, 110
1, 132338, Control_c, 0, 67, 110
1, 132349, Note_off_c, 0, 87, 62
1, 132353, Control_c, 0, 64, 112
1, 132353, Control_c, 0, 67, 62
1, 132368, Control_c, 0, 64, 113
1, 132368, Control_c, 0, 67, 18
1, 132383, Control_c, 0, 64, 114
1, 132383, Control_c, 0, 67, 0
1, 132392, Note_off_c, 0, 99, 69
1, 132398, Control_c, 0, 64, 116
1, 132403, Note_on_c, 0, 100, 63
1, 132414, Control_c, 0, 64, 117
1, 132428, Control_c, 0, 64, 118
1, 132443, Control_c, 0, 64, 119
1, 132453, Note_on_c, 0, 99, 63
1, 132458, Control_c, 0, 64, 121
1, 132473, Control_c, 0, 64, 123
1, 132475, Note_off_c, 0, 100, 61
1, 132488, Control_c, 0, 64, 126
1, 132500, Note_off_c, 0, 99, 67
1, 132502, Control_c, 0, 64, 127
1, 132519, Note_on_c, 0, 87, 75
1, 132572, Note_off_c, 0, 87, 63
1, 132589, Note_on_c, 0, 99, 69
1, 132622, Note_off_c, 0, 99, 68
1, 132628, Note_on_c, 0, 100, 68
1, 132694, Note_on_c, 0, 99, 70
1, 132699, Note_off_c, 0, 100, 59
1, 132728, Note_off_c, 0, 99, 63
1, 132769, Note_on_c, 0, 85, 72
1, 132810, Note_off_c, 0, 85, 62
1, 132826, Note_on_c, 0, 97, 77
1, 132884, Note_off_c, 0, 97, 63
1, 132889, Note_on_c, 0, 99, 69
1, 132917, Control_c, 0, 64, 123
1, 132932, Control_c, 0, 64, 111
1, 132946, Control_c, 0, 64, 92
1, 132961, Control_c, 0, 64, 69
1, 132965, Note_on_c, 0, 96, 67
1, 132970, Note_off_c, 0, 99, 68
1, 132976, Control_c, 0, 64, 0
1, 132998, Note_off_c, 0, 96, 61
1, 133002, Note_on_c, 0, 32, 57
1, 133013, Note_on_c, 0, 44, 54
1, 133043, Control_c, 0, 64, 64
1, 133047, Note_on_c, 0, 83, 68
1, 133058, Control_c, 0, 64, 76
1, 133073, Control_c, 0, 64, 92
1, 133073, Note_off_c, 0, 32, 63
1, 133081, Note_off_c, 0, 83, 52
1, 133087, Control_c, 0, 64, 103
1, 133102, Control_c, 0, 64, 108
1, 133103, Note_off_c, 0, 44, 63
1, 133116, Control_c, 0, 64, 111
1, 133131, Control_c, 0, 64, 114
1, 133135, Note_on_c, 0, 95, 64
1, 133146, Control_c, 0, 64, 117
1, 133160, Control_c, 0, 64, 121
1, 133175, Control_c, 0, 64, 125
1, 133180, Note_off_c, 0, 95, 61
1, 133183, Note_on_c, 0, 97, 67
1, 133190, Control_c, 0, 64, 127
1, 133228, Note_on_c, 0, 95, 49
1, 133263, Note_off_c, 0, 97, 62
1, 133287, Note_off_c, 0, 95, 66
1, 133303, Note_on_c, 0, 83, 77
1, 133326, Note_on_c, 0, 51, 27
1, 133327, Note_off_c, 0, 83, 59
1, 133332, Note_on_c, 0, 63, 28
1, 133362, Note_on_c, 0, 95, 42
1, 133363, Note_off_c, 0, 51, 41
1, 133369, Note_off_c, 0, 63, 47
1, 133410, Note_off_c, 0, 95, 66
1, 133414, Note_on_c, 0, 97, 73
1, 133460, Note_on_c, 0, 95, 63
1, 133499, Note_off_c, 0, 97, 64
1, 133504, Note_on_c, 0, 56, 64
1, 133508, Note_off_c, 0, 95, 66
1, 133533, Note_on_c, 0, 82, 79
1, 133538, Note_off_c, 0, 56, 65
1, 133576, Poly_aftertouch_c, 0, 63, 0
1, 133584, Note_off_c, 0, 82, 65
1, 133613, Note_on_c, 0, 94, 65
1, 133640, Note_off_c, 0, 94, 68
1, 133647, Note_on_c, 0, 95, 72
1, 133710, Control_c, 0, 64, 121
1, 133719, Note_on_c, 0, 94, 66
1, 133724, Control_c, 0, 64, 93
1, 133730, Note_off_c, 0, 95, 58
1, 133739, Control_c, 0, 64, 54
1, 133745, Note_off_c, 0, 94, 67
1, 133754, Control_c, 0, 64, 0
1, 133774, Note_on_c, 0, 35, 68
1, 133778, Note_on_c, 0, 47, 72
1, 133787, Note_on_c, 0, 80, 80
1, 133806, Control_c, 0, 64, 62
1, 133813, Note_off_c, 0, 35, 64
1, 133821, Control_c, 0, 64, 74
1, 133836, Note_off_c, 0, 47, 62
1, 133836, Control_c, 0, 64, 90
1, 133837, Note_off_c, 0, 80, 63
1, 133849, Note_on_c, 0, 92, 78
1, 133850, Control_c, 0, 64, 106
1, 133864, Control_c, 0, 64, 115
1, 133879, Control_c, 0, 64, 117
1, 133894, Control_c, 0, 64, 119
1, 133896, Note_off_c, 0, 92, 65
1, 133898, Note_on_c, 0, 94, 74
1, 133908, Control_c, 0, 64, 123
1, 133923, Control_c, 0, 64, 127
1, 133961, Note_on_c, 0, 92, 60
1, 133991, Note_off_c, 0, 94, 65
1, 134020, Note_off_c, 0, 92, 63
1, 134031, Note_on_c, 0, 63, 69
1, 134031, Note_on_c, 0, 79, 84
1, 134038, Note_on_c, 0, 51, 56
1, 134059, Note_off_c, 0, 63, 65
1, 134066, Note_off_c, 0, 51, 55
1, 134071, Note_off_c, 0, 79, 61
1, 134113, Note_on_c, 0, 91, 66
1, 134139, Note_on_c, 0, 92, 62
1, 134208, Note_off_c, 0, 91, 60
1, 134220, Note_off_c, 0, 92, 62
1, 134245, Note_on_c, 0, 56, 67
1, 134245, Note_on_c, 0, 63, 53
1, 134247, Note_on_c, 0, 80, 86
1, 134274, Note_off_c, 0, 63, 53
1, 134279, Note_off_c, 0, 56, 65
1, 134302, Note_on_c, 0, 92, 54
1, 134303, Note_off_c, 0, 80, 63
1, 134348, Note_off_c, 0, 92, 65
1, 134354, Note_on_c, 0, 94, 68
1, 134411, Note_on_c, 0, 92, 59
1, 134441, Note_off_c, 0, 94, 59
1, 134456, Note_off_c, 0, 92, 64
1, 134458, Control_c, 0, 64, 102
1, 134472, Control_c, 0, 64, 78
1, 134487, Note_on_c, 0, 82, 73
1, 134487, Control_c, 0, 64, 0
1, 134488, Note_on_c, 0, 39, 56
1, 134496, Note_on_c, 0, 51, 69
1, 134524, Control_c, 0, 64, 55
1, 134527, Note_off_c, 0, 39, 63
1, 134539, Control_c, 0, 64, 68
1, 134542, Note_off_c, 0, 51, 65
1, 134543, Note_on_c, 0, 94, 71
1, 134551, Note_off_c, 0, 82, 64
1, 134554, Control_c, 0, 64, 75
1, 134569, Control_c, 0, 64, 86
1, 134584, Control_c, 0, 64, 93
1, 134593, Note_off_c, 0, 94, 64
1, 134598, Control_c, 0, 64, 96
1, 134603, Note_on_c, 0, 95, 64
1, 134614, Control_c, 0, 64, 97
1, 134629, Control_c, 0, 64, 98
1, 134643, Control_c, 0, 64, 98
1, 134658, Control_c, 0, 64, 99
1, 134666, Note_on_c, 0, 94, 62
1, 134672, Note_off_c, 0, 95, 61
1, 134673, Control_c, 0, 64, 100
1, 134688, Control_c, 0, 64, 100
1, 134703, Control_c, 0, 64, 101
1, 134709, Note_off_c, 0, 94, 64
1, 134732, Control_c, 0, 64, 101
1, 134745, Note_on_c, 0, 67, 62
1, 134747, Control_c, 0, 64, 102
1, 134748, Note_on_c, 0, 55, 48
1, 134758, Note_on_c, 0, 63, 49
1, 134777, Control_c, 0, 64, 102
1, 134778, Note_on_c, 0, 75, 72
1, 134778, Note_off_c, 0, 67, 62
1, 134784, Note_off_c, 0, 55, 49
1, 134792, Control_c, 0, 64, 103
1, 134800, Note_off_c, 0, 63, 46
1, 134811, Note_on_c, 0, 87, 73
1, 134822, Control_c, 0, 64, 103
1, 134831, Note_off_c, 0, 75, 64
1, 134852, Control_c, 0, 64, 104
1, 134867, Control_c, 0, 64, 104
1, 134868, Note_off_c, 0, 87, 63
1, 134879, Note_on_c, 0, 88, 63
1, 134896, Control_c, 0, 64, 105
1, 134936, Note_on_c, 0, 87, 59
1, 134967, Note_off_c, 0, 88, 57
1, 134978, Note_off_c, 0, 87, 62
1, 134980, Note_on_c, 0, 58, 60
1, 134983, Note_on_c, 0, 67, 36
1, 135005, Note_off_c, 0, 67, 58
1, 135007, Note_on_c, 0, 75, 79
1, 135017, Note_off_c, 0, 58, 65
1, 135064, Note_off_c, 0, 75, 63
1, 135075, Note_on_c, 0, 87, 63
1, 135102, Note_off_c, 0, 87, 67
1, 135107, Note_on_c, 0, 88, 63
1, 135177, Control_c, 0, 64, 104
1, 135192, Control_c, 0, 64, 95
1, 135193, Note_on_c, 0, 87, 56
1, 135207, Control_c, 0, 64, 80
1, 135209, Note_off_c, 0, 88, 59
1, 135213, Note_off_c, 0, 87, 63
1, 135222, Control_c, 0, 64, 55
1, 135234, Note_on_c, 0, 55, 69
1, 135236, Note_on_c, 0, 43, 57
1, 135237, Control_c, 0, 64, 0
1, 135241, Note_on_c, 0, 76, 77
1, 135264, Note_off_c, 0, 43, 59
1, 135274, Control_c, 0, 64, 63
1, 135285, Note_off_c, 0, 76, 48
1, 135289, Note_off_c, 0, 55, 65
1, 135289, Control_c, 0, 64, 69
1, 135303, Control_c, 0, 64, 76
1, 135313, Note_on_c, 0, 88, 63
1, 135318, Control_c, 0, 64, 85
1, 135325, Note_on_c, 0, 87, 17
1, 135333, Control_c, 0, 64, 90
1, 135347, Control_c, 0, 64, 92
1, 135359, Note_on_c, 0, 90, 74
1, 135362, Control_c, 0, 64, 93
1, 135363, Note_off_c, 0, 87, 44
1, 135377, Control_c, 0, 64, 94
1, 135392, Control_c, 0, 64, 95
1, 135407, Control_c, 0, 64, 96
1, 135422, Control_c, 0, 64, 98
1, 135433, Note_off_c, 0, 88, 61
1, 135436, Control_c, 0, 64, 98
1, 135437, Note_off_c, 0, 90, 64
1, 135466, Control_c, 0, 64, 99
1, 135477, Note_on_c, 0, 75, 80
1, 135482, Note_on_c, 0, 70, 72
1, 135489, Note_on_c, 0, 63, 52
1, 135496, Control_c, 0, 64, 99
1, 135509, Note_off_c, 0, 70, 63
1, 135530, Note_off_c, 0, 63, 47
1, 135534, Note_on_c, 0, 87, 62
1, 135539, Note_off_c, 0, 75, 64
1, 135593, Note_on_c, 0, 88, 67
1, 135645, Note_off_c, 0, 87, 58
1, 135651, Note_off_c, 0, 88, 62
1, 135701, Note_on_c, 0, 70, 34
1, 135703, Note_on_c, 0, 61, 47
1, 135703, Note_on_c, 0, 63, 45
1, 135713, Note_on_c, 0, 73, 75
1, 135726, Note_off_c, 0, 61, 59
1, 135726, Note_off_c, 0, 70, 56
1, 135727, Note_off_c, 0, 63, 64
1, 135756, Note_on_c, 0, 85, 73
1, 135762, Note_off_c, 0, 73, 63
1, 135820, Note_off_c, 0, 85, 64
1, 135828, Note_on_c, 0, 87, 68
1, 135877, Note_on_c, 0, 85, 55
1, 135901, Note_off_c, 0, 87, 63
1, 135911, Control_c, 0, 64, 93
1, 135926, Control_c, 0, 64, 80
1, 135928, Note_off_c, 0, 85, 64
1, 135941, Control_c, 0, 64, 41
1, 135944, Note_on_c, 0, 44, 59
1, 135956, Control_c, 0, 64, 0
1, 135957, Note_on_c, 0, 56, 68
1, 135969, Note_on_c, 0, 71, 77
1, 135985, Note_off_c, 0, 44, 62
1, 135985, Control_c, 0, 64, 50
1, 135999, Note_off_c, 0, 56, 60
1, 136000, Control_c, 0, 64, 64
1, 136005, Note_off_c, 0, 71, 63
1, 136023, Control_c, 0, 64, 71
1, 136038, Control_c, 0, 64, 79
1, 136052, Control_c, 0, 64, 86
1, 136056, Note_on_c, 0, 83, 65
1, 136067, Control_c, 0, 64, 89
1, 136077, Poly_aftertouch_c, 0, 82, 127
1, 136082, Control_c, 0, 64, 90
1, 136096, Control_c, 0, 64, 90
1, 136110, Note_on_c, 0, 85, 61
1, 136126, Control_c, 0, 64, 91
1, 136141, Control_c, 0, 64, 92
1, 136156, Control_c, 0, 64, 93
1, 136170, Control_c, 0, 64, 93
1, 136179, Note_off_c, 0, 85, 62
1, 136194, Note_off_c, 0, 83, 61
1, 136200, Control_c, 0, 64, 94
1, 136214, Note_on_c, 0, 68, 72
1, 136217, Note_on_c, 0, 71, 82
1, 136226, Note_on_c, 0, 59, 55
1, 136226, Poly_aftertouch_c, 0, 82, 0
1, 136229, Note_on_c, 0, 63, 56
1, 136230, Control_c, 0, 64, 94
1, 136242, Note_off_c, 0, 68, 64
1, 136246, Note_on_c, 0, 82, 24
1, 136253, Note_off_c, 0, 71, 58
1, 136274, Note_off_c, 0, 59, 57
1, 136277, Note_off_c, 0, 63, 56
1, 136286, Note_off_c, 0, 82, 50
1, 136299, Note_on_c, 0, 83, 50
1, 136319, Note_on_c, 0, 85, 68
1, 136319, Control_c, 0, 64, 95
1, 136406, Note_off_c, 0, 85, 65
1, 136408, Note_off_c, 0, 83, 60
1, 136443, Note_on_c, 0, 70, 84
1, 136447, Note_on_c, 0, 59, 62
1, 136449, Note_on_c, 0, 63, 56
1, 136468, Note_off_c, 0, 63, 62
1, 136474, Note_off_c, 0, 59, 65
1, 136509, Note_on_c, 0, 82, 62
1, 136513, Note_off_c, 0, 70, 60
1, 136562, Note_on_c, 0, 83, 63
1, 136620, Note_off_c, 0, 82, 59
1, 136621, Note_off_c, 0, 83, 59
1, 136646, Control_c, 0, 64, 92
1, 136661, Control_c, 0, 64, 84
1, 136675, Control_c, 0, 64, 68
1, 136678, Note_on_c, 0, 40, 67
1, 136679, Note_on_c, 0, 68, 82
1, 136690, Control_c, 0, 64, 0
1, 136719, Note_on_c, 0, 80, 75
1, 136719, Control_c, 0, 64, 49
1, 136733, Note_off_c, 0, 68, 63
1, 136734, Control_c, 0, 64, 64
1, 136749, Control_c, 0, 64, 70
1, 136750, Note_off_c, 0, 40, 63
1, 136772, Control_c, 0, 64, 76
1, 136787, Control_c, 0, 64, 83
1, 136793, Note_off_c, 0, 80, 63
1, 136802, Control_c, 0, 64, 88
1, 136805, Note_on_c, 0, 82, 70
1, 136817, Control_c, 0, 64, 89
1, 136846, Control_c, 0, 64, 89
1, 136861, Control_c, 0, 64, 90
1, 136865, Note_on_c, 0, 80, 60
1, 136876, Control_c, 0, 64, 90
1, 136888, Note_off_c, 0, 82, 63
1, 136891, Control_c, 0, 64, 91
1, 136920, Control_c, 0, 64, 91
1, 136921, Note_off_c, 0, 80, 61
1, 136935, Control_c, 0, 64, 92
1, 136939, Note_on_c, 0, 67, 83
1, 136946, Note_on_c, 0, 58, 65
1, 136948, Note_on_c, 0, 62, 66
1, 136950, Control_c, 0, 64, 93
1, 136965, Control_c, 0, 64, 93
1, 136980, Control_c, 0, 64, 94
1, 136982, Note_off_c, 0, 58, 59
1, 136983, Note_off_c, 0, 67, 63
1, 136988, Note_off_c, 0, 62, 56
1, 136994, Control_c, 0, 64, 94
1, 137017, Note_on_c, 0, 79, 67
1, 137024, Control_c, 0, 64, 95
1, 137039, Control_c, 0, 64, 95
1, 137044, Note_on_c, 0, 80, 68
1, 137064, Poly_aftertouch_c, 0, 78, 127
1, 137068, Control_c, 0, 64, 96
1, 137098, Control_c, 0, 64, 96
1, 137112, Poly_aftertouch_c, 0, 78, 0
1, 137119, Note_off_c, 0, 79, 59
1, 137127, Control_c, 0, 64, 97
1, 137136, Note_off_c, 0, 80, 62
1, 137157, Note_on_c, 0, 58, 69
1, 137157, Note_on_c, 0, 68, 78
1, 137195, Note_off_c, 0, 58, 63
1, 137215, Note_off_c, 0, 68, 62
1, 137216, Note_on_c, 0, 80, 62
1, 137243, Poly_aftertouch_c, 0, 62, 0
1, 137267, Note_off_c, 0, 80, 63
1, 137282, Note_on_c, 0, 82, 54
1, 137347, Note_on_c, 0, 80, 63
1, 137348, Note_off_c, 0, 82, 61
1, 137380, Control_c, 0, 64, 95
1, 137384, Note_off_c, 0, 80, 62
1, 137395, Control_c, 0, 64, 85
1, 137408, Note_on_c, 0, 39, 71
1, 137410, Note_on_c, 0, 70, 78
1, 137410, Control_c, 0, 64, 69
1, 137425, Control_c, 0, 64, 0
1, 137457, Note_off_c, 0, 39, 58
1, 137469, Control_c, 0, 64, 63
1, 137472, Note_on_c, 0, 82, 67
1, 137480, Note_off_c, 0, 70, 63
1, 137484, Control_c, 0, 64, 70
1, 137499, Control_c, 0, 64, 78
1, 137521, Control_c, 0, 64, 88
1, 137524, Note_off_c, 0, 82, 63
1, 137526, Note_on_c, 0, 83, 69
1, 137536, Control_c, 0, 64, 93
1, 137550, Control_c, 0, 64, 93
1, 137580, Control_c, 0, 64, 94
1, 137601, Note_off_c, 0, 83, 58
1, 137602, Note_on_c, 0, 82, 58
1, 137624, Note_off_c, 0, 82, 64
1, 137639, Control_c, 0, 64, 94
1, 137674, Note_on_c, 0, 58, 73
1, 137676, Note_on_c, 0, 55, 64
1, 137699, Control_c, 0, 64, 94
1, 137702, Note_on_c, 0, 63, 79
1, 137705, Note_off_c, 0, 55, 66
1, 137705, Note_off_c, 0, 58, 62
1, 137755, Note_off_c, 0, 63, 64
1, 137763, Note_on_c, 0, 75, 70
1, 137813, Note_off_c, 0, 75, 58
1, 137819, Note_on_c, 0, 76, 68
1, 137877, Control_c, 0, 64, 94
1, 137883, Note_on_c, 0, 75, 59
1, 137891, Note_off_c, 0, 76, 67
1, 137913, Note_off_c, 0, 75, 67
1, 137921, Control_c, 0, 64, 95
1, 137936, Control_c, 0, 64, 96
1, 137950, Control_c, 0, 64, 98
1, 137955, Note_on_c, 0, 70, 78
1, 137959, Note_on_c, 0, 67, 69
1, 137965, Control_c, 0, 64, 100
1, 137980, Control_c, 0, 64, 103
1, 137981, Note_on_c, 0, 75, 79
1, 137988, Note_off_c, 0, 67, 66
1, 137996, Control_c, 0, 64, 104
1, 138009, Note_off_c, 0, 70, 59
1, 138011, Control_c, 0, 64, 106
1, 138026, Control_c, 0, 64, 107
1, 138040, Control_c, 0, 64, 108
1, 138043, Note_on_c, 0, 87, 69
1, 138055, Control_c, 0, 64, 110
1, 138061, Note_off_c, 0, 75, 64
1, 138070, Control_c, 0, 64, 111
1, 138085, Control_c, 0, 64, 113
1, 138098, Note_on_c, 0, 88, 67
1, 138098, Note_off_c, 0, 87, 61
1, 138100, Control_c, 0, 64, 115
1, 138114, Control_c, 0, 64, 116
1, 138129, Control_c, 0, 64, 118
1, 138144, Control_c, 0, 64, 120
1, 138159, Control_c, 0, 64, 122
1, 138166, Note_on_c, 0, 87, 52
1, 138173, Control_c, 0, 64, 123
1, 138179, Note_off_c, 0, 88, 63
1, 138188, Control_c, 0, 64, 124
1, 138191, Note_off_c, 0, 87, 61
1, 138203, Control_c, 0, 64, 124
1, 138218, Control_c, 0, 64, 125
1, 138233, Control_c, 0, 64, 125
1, 138246, Note_on_c, 0, 82, 81
1, 138247, Control_c, 0, 64, 126
1, 138265, Note_on_c, 0, 79, 63
1, 138270, Control_c, 0, 64, 127
1, 138277, Note_on_c, 0, 87, 77
1, 138285, Control_c, 0, 64, 127
1, 138301, Note_off_c, 0, 79, 61
1, 138308, Note_off_c, 0, 82, 63
1, 138329, Note_on_c, 0, 99, 74
1, 138344, Note_off_c, 0, 87, 63
1, 138388, Control_c, 0, 67, 8
1, 138392, Note_off_c, 0, 99, 68
1, 138400, Note_on_c, 0, 100, 64
1, 138403, Control_c, 0, 67, 13
1, 138418, Control_c, 0, 67, 22
1, 138433, Control_c, 0, 67, 35
1, 138447, Control_c, 0, 67, 52
1, 138462, Control_c, 0, 67, 72
1, 138470, Note_on_c, 0, 99, 64
1, 138477, Control_c, 0, 67, 93
1, 138478, Note_off_c, 0, 100, 62
1, 138492, Control_c, 0, 67, 114
1, 138507, Control_c, 0, 67, 127
1, 138516, Note_off_c, 0, 99, 62
1, 138530, Note_on_c, 0, 87, 66
1, 138537, Control_c, 0, 64, 127
1, 138566, Control_c, 0, 64, 126
1, 138584, Note_off_c, 0, 87, 62
1, 138596, Control_c, 0, 64, 126
1, 138598, Note_on_c, 0, 99, 70
1, 138611, Control_c, 0, 64, 125
1, 138653, Note_off_c, 0, 99, 68
1, 138655, Control_c, 0, 64, 125
1, 138656, Note_on_c, 0, 100, 65
1, 138714, Control_c, 0, 64, 124
1, 138718, Note_on_c, 0, 99, 63
1, 138732, Note_off_c, 0, 100, 60
1, 138759, Control_c, 0, 64, 124
1, 138778, Note_off_c, 0, 99, 68
1, 138819, Control_c, 0, 64, 123
1, 138826, Note_on_c, 0, 85, 64
1, 138849, Control_c, 0, 64, 123
1, 138873, Note_off_c, 0, 85, 56
1, 138893, Control_c, 0, 64, 122
1, 138894, Note_on_c, 0, 97, 70
1, 138907, Control_c, 0, 64, 122
1, 138922, Control_c, 0, 64, 121
1, 138937, Control_c, 0, 64, 121
1, 138952, Control_c, 0, 64, 120
1, 138957, Note_off_c, 0, 97, 63
1, 138967, Control_c, 0, 64, 120
1, 138970, Note_on_c, 0, 99, 59
1, 138981, Control_c, 0, 64, 119
1, 138996, Control_c, 0, 64, 118
1, 139019, Control_c, 0, 64, 118
1, 139034, Control_c, 0, 64, 117
1, 139046, Note_on_c, 0, 97, 57
1, 139049, Control_c, 0, 64, 116
1, 139064, Control_c, 0, 64, 116
1, 139078, Control_c, 0, 64, 115
1, 139085, Note_off_c, 0, 99, 47
1, 139093, Control_c, 0, 64, 115
1, 139108, Control_c, 0, 64, 114
1, 139122, Control_c, 0, 64, 110
1, 139137, Control_c, 0, 64, 102
1, 139152, Control_c, 0, 64, 89
1, 139159, Note_off_c, 0, 97, 62
1, 139167, Control_c, 0, 64, 73
1, 139171, Note_on_c, 0, 44, 45
1, 139182, Control_c, 0, 64, 0
1, 139213, Note_on_c, 0, 84, 54
1, 139241, Control_c, 0, 64, 58
1, 139256, Control_c, 0, 64, 65
1, 139270, Control_c, 0, 64, 70
1, 139285, Control_c, 0, 64, 77
1, 139300, Control_c, 0, 64, 84
1, 139308, Note_off_c, 0, 44, 61
1, 139312, Note_off_c, 0, 84, 55
1, 139315, Control_c, 0, 64, 88
1, 139329, Control_c, 0, 64, 90
1, 139331, Note_on_c, 0, 96, 60
1, 139344, Control_c, 0, 64, 91
1, 139359, Control_c, 0, 64, 93
1, 139374, Control_c, 0, 64, 96
1, 139389, Control_c, 0, 64, 98
1, 139404, Control_c, 0, 64, 100
1, 139407, Note_off_c, 0, 96, 59
1, 139410, Note_on_c, 0, 97, 61
1, 139419, Control_c, 0, 64, 100
1, 139434, Control_c, 0, 64, 101
1, 139449, Control_c, 0, 64, 102
1, 139463, Control_c, 0, 64, 103
1, 139487, Note_on_c, 0, 96, 55
1, 139493, Note_off_c, 0, 97, 59
1, 139508, Control_c, 0, 64, 103
1, 139529, Note_off_c, 0, 96, 61
1, 139546, Note_on_c, 0, 84, 69
1, 139558, Note_on_c, 0, 57, 42
1, 139567, Control_c, 0, 64, 104
1, 139593, Note_on_c, 0, 66, 25
1, 139594, Note_off_c, 0, 84, 62
1, 139601, Note_on_c, 0, 63, 10
1, 139604, Note_off_c, 0, 57, 56
1, 139622, Note_on_c, 0, 96, 70
1, 139634, Note_off_c, 0, 66, 49
1, 139656, Note_off_c, 0, 63, 43
1, 139660, Note_on_c, 0, 97, 68
1, 139705, Note_off_c, 0, 96, 59
1, 139708, Note_off_c, 0, 97, 63
1, 139750, Note_on_c, 0, 66, 47
1, 139755, Note_on_c, 0, 60, 60
1, 139778, Note_on_c, 0, 81, 62
1, 139782, Note_off_c, 0, 66, 58
1, 139794, Note_off_c, 0, 60, 64
1, 139797, Note_off_c, 0, 81, 63
1, 139824, Note_on_c, 0, 93, 64
1, 139870, Note_off_c, 0, 93, 62
1, 139876, Note_on_c, 0, 95, 66
1, 139941, Note_off_c, 0, 95, 61
1, 139943, Note_on_c, 0, 93, 55
1, 139960, Control_c, 0, 64, 102
1, 139971, Note_off_c, 0, 93, 50
1, 139975, Control_c, 0, 64, 96
1, 139990, Control_c, 0, 64, 83
1, 140005, Control_c, 0, 64, 65
1, 140012, Note_on_c, 0, 48, 55
1, 140019, Control_c, 0, 64, 0
1, 140024, Note_on_c, 0, 80, 69
1, 140049, Control_c, 0, 64, 61
1, 140064, Control_c, 0, 64, 69
1, 140075, Note_off_c, 0, 80, 63
1, 140079, Control_c, 0, 64, 77
1, 140083, Note_off_c, 0, 48, 64
1, 140093, Note_on_c, 0, 92, 72
1, 140093, Control_c, 0, 64, 85
1, 140108, Control_c, 0, 64, 89
1, 140123, Control_c, 0, 64, 90
1, 140137, Note_off_c, 0, 92, 62
1, 140137, Control_c, 0, 64, 91
1, 140151, Note_on_c, 0, 93, 61
1, 140152, Control_c, 0, 64, 94
1, 140167, Control_c, 0, 64, 97
1, 140182, Control_c, 0, 64, 100
1, 140197, Control_c, 0, 64, 103
1, 140212, Control_c, 0, 64, 106
1, 140221, Note_on_c, 0, 92, 58
1, 140223, Note_off_c, 0, 93, 59
1, 140227, Control_c, 0, 64, 109
1, 140242, Control_c, 0, 64, 113
1, 140256, Note_off_c, 0, 92, 64
1, 140257, Control_c, 0, 64, 117
1, 140271, Control_c, 0, 64, 121
1, 140279, Note_on_c, 0, 57, 48
1, 140282, Note_on_c, 0, 80, 76
1, 140286, Note_on_c, 0, 66, 52
1, 140286, Control_c, 0, 64, 126
1, 140289, Note_on_c, 0, 63, 46
1, 140301, Control_c, 0, 64, 127
1, 140322, Note_off_c, 0, 66, 49
1, 140327, Note_off_c, 0, 57, 57
1, 140338, Note_off_c, 0, 80, 62
1, 140358, Note_off_c, 0, 63, 53
1, 140359, Note_on_c, 0, 92, 68
1, 140388, Note_off_c, 0, 92, 65
1, 140403, Note_on_c, 0, 93, 66
1, 140464, Note_on_c, 0, 92, 65
1, 140465, Note_off_c, 0, 93, 61
1, 140494, Note_off_c, 0, 92, 63
1, 140516, Note_on_c, 0, 60, 58
1, 140543, Note_on_c, 0, 78, 72
1, 140549, Note_off_c, 0, 60, 64
1, 140561, Poly_aftertouch_c, 0, 66, 127
1, 140588, Note_off_c, 0, 78, 59
1, 140597, Poly_aftertouch_c, 0, 66, 0
1, 140606, Note_on_c, 0, 90, 71
1, 140658, Note_off_c, 0, 90, 62
1, 140665, Note_on_c, 0, 92, 70
1, 140718, Note_on_c, 0, 90, 60
1, 140724, Control_c, 0, 64, 112
1, 140739, Control_c, 0, 64, 96
1, 140749, Note_off_c, 0, 92, 64
1, 140754, Control_c, 0, 64, 79
1, 140768, Control_c, 0, 64, 59
1, 140769, Note_on_c, 0, 49, 57
1, 140773, Note_off_c, 0, 90, 64
1, 140783, Control_c, 0, 64, 13
1, 140798, Control_c, 0, 64, 60
1, 140799, Note_on_c, 0, 76, 71
1, 140813, Control_c, 0, 64, 69
1, 140828, Control_c, 0, 64, 76
1, 140830, Note_off_c, 0, 49, 59
1, 140835, Note_off_c, 0, 76, 59
1, 140842, Control_c, 0, 64, 85
1, 140857, Control_c, 0, 64, 91
1, 140872, Control_c, 0, 64, 93
1, 140882, Note_on_c, 0, 88, 71
1, 140886, Control_c, 0, 64, 94
1, 140901, Control_c, 0, 64, 94
1, 140911, Note_on_c, 0, 87, 17
1, 140916, Note_on_c, 0, 90, 64
1, 140916, Control_c, 0, 64, 95
1, 140931, Control_c, 0, 64, 95
1, 140953, Note_off_c, 0, 87, 51
1, 140965, Note_off_c, 0, 88, 61
1, 140972, Note_off_c, 0, 90, 63
1, 141014, Note_on_c, 0, 69, 57
1, 141020, Note_on_c, 0, 64, 49
1, 141029, Note_on_c, 0, 73, 69
1, 141053, Note_off_c, 0, 69, 60
1, 141070, Note_on_c, 0, 85, 61
1, 141077, Note_off_c, 0, 64, 54
1, 141077, Note_off_c, 0, 73, 63
1, 141123, Note_off_c, 0, 85, 65
1, 141130, Note_on_c, 0, 87, 68
1, 141154, Control_c, 0, 67, 100
1, 141168, Control_c, 0, 67, 63
1, 141184, Control_c, 0, 67, 21
1, 141198, Control_c, 0, 67, 0
1, 141213, Control_c, 0, 64, 93
1, 141216, Note_off_c, 0, 87, 65
1, 141228, Control_c, 0, 64, 83
1, 141234, Note_on_c, 0, 60, 65
1, 141243, Control_c, 0, 64, 68
1, 141244, Note_on_c, 0, 75, 76
1, 141246, Note_on_c, 0, 69, 61
1, 141265, Control_c, 0, 64, 34
1, 141280, Control_c, 0, 64, 55
1, 141295, Control_c, 0, 64, 67
1, 141303, Note_off_c, 0, 69, 55
1, 141310, Note_off_c, 0, 75, 64
1, 141310, Control_c, 0, 64, 73
1, 141321, Note_on_c, 0, 87, 60
1, 141324, Control_c, 0, 64, 83
1, 141327, Note_off_c, 0, 60, 54
1, 141339, Control_c, 0, 64, 91
1, 141351, Note_off_c, 0, 87, 66
1, 141355, Control_c, 0, 64, 96
1, 141357, Note_on_c, 0, 88, 72
1, 141370, Control_c, 0, 64, 98
1, 141429, Control_c, 0, 64, 97
1, 141439, Note_on_c, 0, 87, 65
1, 141444, Control_c, 0, 64, 86
1, 141459, Control_c, 0, 64, 66
1, 141464, Note_off_c, 0, 88, 57
1, 141466, Note_on_c, 0, 61, 63
1, 141471, Note_on_c, 0, 69, 59
1, 141473, Control_c, 0, 64, 0
1, 141482, Note_off_c, 0, 87, 52
1, 141489, Note_on_c, 0, 76, 76
1, 141517, Control_c, 0, 64, 39
1, 141520, Note_off_c, 0, 76, 58
1, 141532, Control_c, 0, 64, 70
1, 141547, Note_off_c, 0, 61, 59
1, 141547, Control_c, 0, 64, 83
1, 141562, Control_c, 0, 64, 100
1, 141568, Note_on_c, 0, 88, 75
1, 141577, Control_c, 0, 64, 112
1, 141592, Control_c, 0, 64, 114
1, 141598, Note_on_c, 0, 90, 75
1, 141603, Note_off_c, 0, 69, 33
1, 141607, Control_c, 0, 64, 114
1, 141622, Control_c, 0, 64, 115
1, 141663, Note_off_c, 0, 88, 60
1, 141678, Note_off_c, 0, 90, 63
1, 141681, Control_c, 0, 64, 111
1, 141696, Control_c, 0, 64, 97
1, 141699, Note_on_c, 0, 66, 68
1, 141702, Note_on_c, 0, 69, 60
1, 141708, Note_on_c, 0, 75, 79
1, 141710, Control_c, 0, 64, 79
1, 141725, Control_c, 0, 64, 54
1, 141740, Control_c, 0, 64, 0
1, 141755, Control_c, 0, 64, 51
1, 141768, Note_on_c, 0, 87, 61
1, 141770, Control_c, 0, 64, 69
1, 141774, Note_off_c, 0, 75, 64
1, 141784, Control_c, 0, 64, 79
1, 141787, Note_off_c, 0, 69, 52
1, 141798, Note_off_c, 0, 66, 53
1, 141799, Control_c, 0, 64, 91
1, 141814, Control_c, 0, 64, 97
1, 141822, Note_on_c, 0, 88, 76
1, 141823, Note_off_c, 0, 87, 61
1, 141829, Control_c, 0, 64, 97
1, 141844, Control_c, 0, 64, 98
1, 141873, Control_c, 0, 64, 98
1, 141888, Note_on_c, 0, 87, 55
1, 141895, Note_off_c, 0, 88, 59
1, 141936, Note_off_c, 0, 87, 60
1, 141959, Note_on_c, 0, 64, 61
1, 141962, Control_c, 0, 64, 91
1, 141967, Note_on_c, 0, 69, 59
1, 141977, Note_on_c, 0, 73, 72
1, 141977, Control_c, 0, 64, 73
1, 141993, Control_c, 0, 64, 0
1, 142036, Note_off_c, 0, 73, 62
1, 142043, Note_on_c, 0, 85, 63
1, 142043, Note_off_c, 0, 64, 63
1, 142052, Note_off_c, 0, 69, 60
1, 142060, Control_c, 0, 64, 33
1, 142075, Control_c, 0, 64, 67
1, 142089, Control_c, 0, 64, 77
1, 142093, Note_off_c, 0, 85, 62
1, 142103, Note_on_c, 0, 87, 72
1, 142103, Control_c, 0, 64, 89
1, 142118, Control_c, 0, 64, 98
1, 142133, Control_c, 0, 64, 104
1, 142147, Control_c, 0, 64, 106
1, 142162, Control_c, 0, 64, 106
1, 142173, Note_on_c, 0, 85, 57
1, 142189, Note_off_c, 0, 87, 60
1, 142207, Control_c, 0, 64, 105
1, 142221, Control_c, 0, 64, 95
1, 142236, Control_c, 0, 64, 76
1, 142239, Note_on_c, 0, 68, 47
1, 142239, Note_off_c, 0, 85, 57
1, 142241, Note_on_c, 0, 75, 67
1, 142245, Note_on_c, 0, 63, 47
1, 142245, Note_on_c, 0, 71, 53
1, 142251, Control_c, 0, 64, 0
1, 142299, Note_off_c, 0, 75, 63
1, 142308, Note_on_c, 0, 87, 64
1, 142325, Control_c, 0, 64, 65
1, 142340, Control_c, 0, 64, 80
1, 142342, Note_off_c, 0, 87, 65
1, 142355, Control_c, 0, 64, 103
1, 142370, Control_c, 0, 64, 120
1, 142372, Note_on_c, 0, 76, 69
1, 142385, Control_c, 0, 64, 124
1, 142400, Control_c, 0, 64, 125
1, 142414, Control_c, 0, 64, 127
1, 142428, Note_off_c, 0, 71, 57
1, 142433, Note_off_c, 0, 76, 63
1, 142436, Note_on_c, 0, 77, 57
1, 142445, Note_off_c, 0, 63, 55
1, 142463, Note_off_c, 0, 68, 52
1, 142471, Note_off_c, 0, 77, 62
1, 142473, Note_on_c, 0, 78, 73
1, 142516, Note_off_c, 0, 78, 60
1, 142548, Note_on_c, 0, 79, 69
1, 142598, Note_off_c, 0, 79, 61
1, 142600, Note_on_c, 0, 80, 75
1, 142623, Note_off_c, 0, 80, 67
1, 142677, Note_on_c, 0, 81, 74
1, 142701, Note_off_c, 0, 81, 65
1, 142706, Note_on_c, 0, 82, 76
1, 142743, Note_off_c, 0, 82, 63
1, 142792, Note_on_c, 0, 83, 73
1, 142839, Note_on_c, 0, 84, 73
1, 142847, Note_off_c, 0, 83, 58
1, 142889, Note_off_c, 0, 84, 64
1, 142890, Note_on_c, 0, 85, 65
1, 142915, Note_off_c, 0, 85, 69
1, 142945, Note_on_c, 0, 86, 74
1, 142994, Note_off_c, 0, 86, 65
1, 143000, Note_on_c, 0, 87, 76
1, 143023, Note_off_c, 0, 87, 69
1, 143065, Note_on_c, 0, 88, 79
1, 143121, Note_on_c, 0, 89, 71
1, 143130, Note_off_c, 0, 88, 58
1, 143167, Note_on_c, 0, 90, 75
1, 143171, Note_off_c, 0, 89, 65
1, 143194, Note_off_c, 0, 90, 66
1, 143228, Note_on_c, 0, 91, 74
1, 143288, Note_on_c, 0, 92, 80
1, 143288, Note_off_c, 0, 91, 61
1, 143333, Note_off_c, 0, 92, 63
1, 143365, Note_on_c, 0, 93, 82
1, 143416, Note_on_c, 0, 94, 76
1, 143419, Note_off_c, 0, 93, 63
1, 143442, Note_off_c, 0, 94, 67
1, 143485, Note_on_c, 0, 95, 82
1, 143526, Control_c, 0, 64, 113
1, 143541, Control_c, 0, 64, 94
1, 143553, Note_on_c, 0, 51, 53
1, 143556, Control_c, 0, 64, 75
1, 143558, Note_on_c, 0, 96, 69
1, 143570, Control_c, 0, 64, 47
1, 143586, Control_c, 0, 64, 51
1, 143596, Note_off_c, 0, 95, 63
1, 143601, Control_c, 0, 64, 64
1, 143602, Note_on_c, 0, 97, 82
1, 143615, Note_off_c, 0, 96, 63
1, 143616, Control_c, 0, 64, 70
1, 143622, Note_on_c, 0, 61, 57
1, 143623, Note_off_c, 0, 51, 61
1, 143631, Control_c, 0, 64, 77
1, 143646, Control_c, 0, 64, 88
1, 143646, Note_off_c, 0, 97, 66
1, 143660, Control_c, 0, 64, 96
1, 143675, Control_c, 0, 64, 101
1, 143690, Control_c, 0, 64, 105
1, 143692, Note_on_c, 0, 98, 75
1, 143705, Control_c, 0, 64, 109
1, 143705, Note_on_c, 0, 67, 58
1, 143711, Note_off_c, 0, 61, 60
1, 143719, Control_c, 0, 64, 114
1, 143734, Control_c, 0, 64, 119
1, 143737, Note_on_c, 0, 99, 77
1, 143749, Control_c, 0, 64, 122
1, 143754, Note_off_c, 0, 98, 65
1, 143764, Control_c, 0, 64, 125
1, 143768, Note_off_c, 0, 67, 49
1, 143779, Control_c, 0, 64, 127
1, 143801, Note_off_c, 0, 99, 68
1, 143813, Note_on_c, 0, 102, 76
1, 143870, Note_on_c, 0, 100, 65
1, 143925, Note_off_c, 0, 102, 63
1, 143932, Note_on_c, 0, 97, 72
1, 143971, Control_c, 0, 67, 9
1, 143975, Note_on_c, 0, 94, 74
1, 143981, Note_off_c, 0, 100, 64
1, 143986, Control_c, 0, 67, 13
1, 143991, Note_off_c, 0, 97, 64
1, 144001, Control_c, 0, 67, 18
1, 144015, Note_off_c, 0, 94, 67
1, 144015, Control_c, 0, 67, 26
1, 144028, Note_on_c, 0, 91, 64
1, 144030, Control_c, 0, 67, 36
1, 144045, Control_c, 0, 67, 51
1, 144060, Control_c, 0, 67, 67
1, 144065, Note_off_c, 0, 91, 51
1, 144075, Control_c, 0, 67, 86
1, 144090, Control_c, 0, 67, 110
1, 144104, Control_c, 0, 67, 127
1, 144117, Note_on_c, 0, 86, 67
1, 144176, Note_on_c, 0, 87, 69
1, 144180, Note_off_c, 0, 86, 60
1, 144234, Note_off_c, 0, 87, 63
1, 144236, Note_on_c, 0, 90, 81
1, 144294, Note_on_c, 0, 88, 47
1, 144352, Note_off_c, 0, 90, 62
1, 144355, Note_on_c, 0, 85, 73
1, 144401, Note_off_c, 0, 88, 63
1, 144403, Note_on_c, 0, 82, 73
1, 144419, Note_off_c, 0, 85, 64
1, 144453, Note_off_c, 0, 82, 64
1, 144459, Note_on_c, 0, 79, 72
1, 144509, Note_off_c, 0, 79, 59
1, 144552, Note_on_c, 0, 76, 67
1, 144609, Note_off_c, 0, 76, 62
1, 144611, Note_on_c, 0, 73, 66
1, 144671, Note_off_c, 0, 73, 65
1, 144672, Note_on_c, 0, 70, 66
1, 144699, Note_off_c, 0, 70, 68
1, 144739, Note_on_c, 0, 67, 56
1, 144768, Note_off_c, 0, 67, 59
1, 144811, Note_on_c, 0, 64, 62
1, 144871, Note_off_c, 0, 64, 59
1, 144871, Note_on_c, 0, 61, 69
1, 144913, Control_c, 0, 64, 126
1, 144928, Control_c, 0, 64, 125
1, 144943, Control_c, 0, 64, 123
1, 144949, Note_off_c, 0, 61, 63
1, 144951, Note_on_c, 0, 58, 57
1, 144957, Control_c, 0, 64, 122
1, 144972, Control_c, 0, 64, 120
1, 144987, Control_c, 0, 64, 115
1, 145007, Note_off_c, 0, 58, 62
1, 145009, Control_c, 0, 64, 104
1, 145024, Control_c, 0, 64, 85
1, 145039, Control_c, 0, 64, 65
1, 145044, Note_on_c, 0, 44, 55
1, 145054, Control_c, 0, 64, 0
1, 145112, Control_c, 0, 64, 30
1, 145123, Note_on_c, 0, 51, 47
1, 145127, Control_c, 0, 64, 63
1, 145141, Control_c, 0, 64, 70
1, 145156, Control_c, 0, 64, 78
1, 145157, Note_off_c, 0, 44, 48
1, 145171, Control_c, 0, 64, 87
1, 145187, Control_c, 0, 64, 90
1, 145192, Note_off_c, 0, 51, 54
1, 145198, Note_on_c, 0, 56, 57
1, 145202, Control_c, 0, 64, 91
1, 145217, Control_c, 0, 64, 91
1, 145231, Control_c, 0, 64, 93
1, 145233, Note_off_c, 0, 56, 63
1, 145246, Control_c, 0, 64, 95
1, 145261, Control_c, 0, 64, 97
1, 145276, Control_c, 0, 64, 99
1, 145291, Control_c, 0, 64, 100
1, 145294, Note_on_c, 0, 59, 52
1, 145305, Control_c, 0, 64, 101
1, 145320, Control_c, 0, 64, 101
1, 145335, Control_c, 0, 64, 102
1, 145348, Note_on_c, 0, 63, 47
1, 145349, Control_c, 0, 64, 102
1, 145364, Control_c, 0, 64, 103
1, 145379, Control_c, 0, 64, 103
1, 145394, Control_c, 0, 64, 104
1, 145409, Control_c, 0, 64, 104
1, 145413, Note_off_c, 0, 59, 58
1, 145423, Control_c, 0, 64, 105
1, 145433, Note_on_c, 0, 68, 50
1, 145447, Note_off_c, 0, 63, 62
1, 145467, Note_off_c, 0, 68, 66
1, 145468, Control_c, 0, 64, 105
1, 145520, Note_on_c, 0, 71, 51
1, 145583, Note_on_c, 0, 75, 51
1, 145616, Control_c, 0, 64, 106
1, 145625, Note_on_c, 0, 80, 57
1, 145652, Note_off_c, 0, 71, 50
1, 145707, Note_on_c, 0, 83, 55
1, 145724, Note_off_c, 0, 80, 55
1, 145735, Control_c, 0, 64, 106
1, 145737, Note_off_c, 0, 75, 32
1, 145816, Note_on_c, 0, 87, 58
1, 145873, Note_off_c, 0, 83, 52
1, 145935, Note_on_c, 0, 95, 59
1, 145956, Note_off_c, 0, 87, 56
1, 146154, Note_on_c, 0, 92, 58
1, 146160, Note_off_c, 0, 95, 34
1, 146203, Note_off_c, 0, 92, 59
1, 146520, Control_c, 0, 64, 107
1, 146565, Control_c, 0, 64, 107
1, 146609, Control_c, 0, 64, 108
1, 146639, Control_c, 0, 64, 108
1, 146668, Control_c, 0, 64, 109
1, 146698, Control_c, 0, 64, 109
1, 146713, Control_c, 0, 64, 110
1, 146743, Control_c, 0, 64, 110
1, 146818, Control_c, 0, 64, 111
1, 146892, Control_c, 0, 67, 121
1, 146907, Control_c, 0, 67, 109
1, 146922, Control_c, 0, 64, 111
1, 146922, Control_c, 0, 67, 92
1, 146936, Control_c, 0, 67, 72
1, 146951, Control_c, 0, 67, 49
1, 146966, Control_c, 0, 67, 27
1, 146981, Control_c, 0, 67, 0
1, 147158, Control_c, 0, 64, 111
1, 147202, Control_c, 0, 64, 110
1, 147217, Control_c, 0, 64, 110
1, 147232, Control_c, 0, 64, 109
1, 147254, Control_c, 0, 64, 106
1, 147269, Control_c, 0, 64, 102
1, 147284, Control_c, 0, 64, 93
1, 147299, Control_c, 0, 64, 83
1, 147314, Control_c, 0, 64, 71
1, 147328, Control_c, 0, 64, 0
1, 147834, Note_on_c, 0, 68, 59
1, 147836, Note_on_c, 0, 83, 62
1, 147840, Note_on_c, 0, 71, 55
1, 147860, Note_off_c, 0, 71, 59
1, 147863, Note_off_c, 0, 83, 63
1, 147867, Note_off_c, 0, 68, 63
1, 147946, Note_on_c, 0, 71, 78
1, 147946, Note_on_c, 0, 83, 77
1, 147950, Note_on_c, 0, 70, 68
1, 147975, Note_on_c, 0, 67, 33
1, 147977, Note_off_c, 0, 71, 61
1, 147977, Note_off_c, 0, 70, 68
1, 147989, Note_off_c, 0, 83, 59
1, 148016, Note_off_c, 0, 67, 32
1, 148075, Note_on_c, 0, 66, 61
1, 148081, Note_on_c, 0, 71, 75
1, 148081, Note_on_c, 0, 83, 69
1, 148082, Note_on_c, 0, 69, 52
1, 148104, Note_off_c, 0, 69, 57
1, 148104, Note_off_c, 0, 71, 69
1, 148105, Note_off_c, 0, 83, 66
1, 148106, Note_off_c, 0, 66, 67
1, 148195, Note_on_c, 0, 68, 59
1, 148197, Note_on_c, 0, 83, 70
1, 148202, Note_on_c, 0, 71, 71
1, 148207, Note_on_c, 0, 65, 46
1, 148216, Note_off_c, 0, 68, 64
1, 148224, Note_off_c, 0, 83, 63
1, 148227, Note_off_c, 0, 71, 66
1, 148230, Note_off_c, 0, 65, 59
1, 148296, Note_on_c, 0, 64, 57
1, 148302, Note_on_c, 0, 67, 45
1, 148306, Note_on_c, 0, 71, 73
1, 148318, Note_off_c, 0, 64, 64
1, 148320, Note_on_c, 0, 83, 54
1, 148329, Note_off_c, 0, 67, 52
1, 148331, Note_off_c, 0, 71, 65
1, 148339, Note_off_c, 0, 83, 60
1, 148404, Note_on_c, 0, 83, 82
1, 148405, Control_c, 0, 64, 67
1, 148408, Note_on_c, 0, 47, 76
1, 148420, Control_c, 0, 64, 82
1, 148432, Note_off_c, 0, 47, 67
1, 148435, Control_c, 0, 64, 102
1, 148438, Note_off_c, 0, 83, 58
1, 148449, Control_c, 0, 64, 115
1, 148464, Control_c, 0, 64, 117
1, 148505, Note_on_c, 0, 66, 79
1, 148523, Control_c, 0, 64, 118
1, 148540, Note_on_c, 0, 70, 35
1, 148543, Note_off_c, 0, 66, 58
1, 148577, Note_off_c, 0, 70, 48
1, 148615, Note_on_c, 0, 78, 66
1, 148621, Note_on_c, 0, 54, 49
1, 148627, Note_on_c, 0, 71, 39
1, 148639, Note_on_c, 0, 59, 30
1, 148681, Note_off_c, 0, 59, 45
1, 148687, Control_c, 0, 64, 117
1, 148690, Note_on_c, 0, 66, 76
1, 148691, Note_on_c, 0, 63, 70
1, 148695, Note_off_c, 0, 71, 58
1, 148696, Note_off_c, 0, 78, 60
1, 148698, Note_off_c, 0, 54, 55
1, 148701, Control_c, 0, 64, 115
1, 148716, Control_c, 0, 64, 106
1, 148719, Note_off_c, 0, 63, 67
1, 148719, Note_off_c, 0, 66, 64
1, 148731, Control_c, 0, 64, 90
1, 148753, Control_c, 0, 64, 67
1, 148768, Control_c, 0, 64, 0
1, 148796, Note_on_c, 0, 83, 81
1, 148815, Note_on_c, 0, 47, 53
1, 148833, Note_off_c, 0, 83, 60
1, 148841, Note_off_c, 0, 47, 59
1, 148888, Note_on_c, 0, 66, 76
1, 148898, Note_on_c, 0, 63, 56
1, 148919, Note_off_c, 0, 66, 63
1, 148922, Note_off_c, 0, 63, 39
1, 148974, Control_c, 0, 64, 67
1, 148983, Note_on_c, 0, 42, 74
1, 148989, Control_c, 0, 64, 82
1, 148991, Note_on_c, 0, 85, 86
1, 149004, Control_c, 0, 64, 103
1, 149010, Note_off_c, 0, 85, 70
1, 149011, Note_off_c, 0, 42, 59
1, 149019, Control_c, 0, 64, 121
1, 149033, Control_c, 0, 64, 127
1, 149084, Note_on_c, 0, 66, 76
1, 149100, Note_on_c, 0, 64, 59
1, 149122, Note_off_c, 0, 64, 61
1, 149160, Note_off_c, 0, 66, 53
1, 149174, Note_on_c, 0, 73, 72
1, 149178, Note_on_c, 0, 78, 69
1, 149222, Note_on_c, 0, 58, 35
1, 149238, Note_off_c, 0, 73, 55
1, 149250, Note_off_c, 0, 78, 58
1, 149255, Note_on_c, 0, 64, 43
1, 149258, Note_off_c, 0, 58, 52
1, 149267, Note_on_c, 0, 66, 70
1, 149277, Note_off_c, 0, 64, 57
1, 149293, Note_off_c, 0, 66, 68
1, 149301, Control_c, 0, 64, 107
1, 149316, Control_c, 0, 64, 88
1, 149330, Control_c, 0, 64, 61
1, 149345, Control_c, 0, 64, 0
1, 149360, Note_on_c, 0, 42, 69
1, 149361, Note_on_c, 0, 85, 77
1, 149382, Note_off_c, 0, 85, 70
1, 149390, Note_off_c, 0, 42, 66
1, 149453, Note_on_c, 0, 66, 72
1, 149462, Note_on_c, 0, 64, 59
1, 149479, Note_off_c, 0, 66, 70
1, 149483, Note_off_c, 0, 64, 62
1, 149545, Control_c, 0, 64, 64
1, 149560, Note_on_c, 0, 47, 79
1, 149560, Control_c, 0, 64, 81
1, 149566, Note_on_c, 0, 87, 66
1, 149575, Control_c, 0, 64, 103
1, 149585, Note_off_c, 0, 87, 43
1, 149590, Note_off_c, 0, 47, 66
1, 149590, Control_c, 0, 64, 127
1, 149659, Note_on_c, 0, 66, 77
1, 149660, Note_on_c, 0, 63, 66
1, 149692, Note_off_c, 0, 63, 64
1, 149731, Note_off_c, 0, 66, 64
1, 149750, Note_on_c, 0, 75, 73
1, 149751, Note_on_c, 0, 54, 55
1, 149772, Note_off_c, 0, 75, 69
1, 149775, Note_off_c, 0, 54, 63
1, 149848, Note_on_c, 0, 83, 76
1, 149855, Note_on_c, 0, 47, 72
1, 149913, Note_off_c, 0, 47, 48
1, 149930, Note_on_c, 0, 87, 81
1, 149936, Note_off_c, 0, 83, 60
1, 149952, Note_on_c, 0, 42, 64
1, 150011, Note_off_c, 0, 42, 63
1, 150016, Note_off_c, 0, 87, 63
1, 150025, Note_on_c, 0, 95, 85
1, 150032, Note_on_c, 0, 35, 55
1, 150035, Control_c, 0, 64, 103
1, 150040, Note_on_c, 0, 33, 44
1, 150046, Note_off_c, 0, 95, 71
1, 150050, Control_c, 0, 64, 80
1, 150060, Note_off_c, 0, 35, 57
1, 150064, Control_c, 0, 64, 0
1, 150072, Note_off_c, 0, 33, 54
1, 150278, Note_on_c, 0, 87, 71
1, 150281, Note_on_c, 0, 75, 73
1, 150282, Note_on_c, 0, 71, 75
1, 150302, Note_off_c, 0, 87, 69
1, 150304, Note_off_c, 0, 75, 75
1, 150305, Note_off_c, 0, 71, 67
1, 150368, Note_on_c, 0, 75, 82
1, 150368, Note_on_c, 0, 87, 84
1, 150391, Note_on_c, 0, 74, 44
1, 150392, Note_off_c, 0, 75, 68
1, 150392, Note_off_c, 0, 87, 64
1, 150416, Note_off_c, 0, 74, 40
1, 150455, Note_on_c, 0, 70, 79
1, 150467, Note_on_c, 0, 75, 75
1, 150469, Note_on_c, 0, 87, 77
1, 150478, Note_off_c, 0, 70, 69
1, 150479, Note_on_c, 0, 73, 41
1, 150489, Note_off_c, 0, 75, 71
1, 150491, Note_off_c, 0, 87, 69
1, 150507, Note_off_c, 0, 73, 35
1, 150547, Note_on_c, 0, 72, 75
1, 150554, Note_on_c, 0, 87, 80
1, 150564, Note_on_c, 0, 75, 73
1, 150572, Note_off_c, 0, 72, 67
1, 150578, Note_off_c, 0, 87, 63
1, 150581, Note_off_c, 0, 75, 69
1, 150634, Note_on_c, 0, 68, 71
1, 150643, Note_on_c, 0, 75, 81
1, 150654, Note_on_c, 0, 87, 73
1, 150663, Note_on_c, 0, 70, 27
1, 150663, Note_off_c, 0, 68, 68
1, 150669, Note_off_c, 0, 87, 68
1, 150669, Note_off_c, 0, 75, 66
1, 150701, Note_off_c, 0, 70, 30
1, 150724, Control_c, 0, 64, 56
1, 150728, Note_on_c, 0, 87, 91
1, 150739, Control_c, 0, 64, 81
1, 150743, Note_on_c, 0, 51, 77
1, 150754, Control_c, 0, 64, 104
1, 150770, Control_c, 0, 64, 127
1, 150773, Note_off_c, 0, 51, 65
1, 150782, Note_off_c, 0, 87, 65
1, 150836, Note_on_c, 0, 70, 78
1, 150839, Note_on_c, 0, 66, 57
1, 150863, Note_off_c, 0, 66, 62
1, 150906, Note_off_c, 0, 70, 58
1, 150925, Note_on_c, 0, 75, 70
1, 150934, Note_on_c, 0, 58, 48
1, 150934, Note_on_c, 0, 63, 45
1, 150939, Note_on_c, 0, 82, 61
1, 150961, Note_off_c, 0, 63, 58
1, 150972, Note_off_c, 0, 58, 64
1, 150972, Note_off_c, 0, 82, 62
1, 151000, Note_off_c, 0, 75, 53
1, 151014, Note_on_c, 0, 70, 74
1, 151030, Control_c, 0, 64, 108
1, 151035, Note_on_c, 0, 66, 40
1, 151037, Note_off_c, 0, 70, 69
1, 151044, Control_c, 0, 64, 87
1, 151059, Note_off_c, 0, 66, 59
1, 151059, Control_c, 0, 64, 52
1, 151074, Control_c, 0, 64, 0
1, 151099, Note_on_c, 0, 87, 80
1, 151103, Note_on_c, 0, 51, 76
1, 151126, Note_off_c, 0, 87, 64
1, 151131, Note_off_c, 0, 51, 63
1, 151183, Note_on_c, 0, 70, 80
1, 151194, Note_on_c, 0, 66, 40
1, 151220, Note_off_c, 0, 66, 53
1, 151224, Note_off_c, 0, 70, 64
1, 151267, Control_c, 0, 64, 69
1, 151277, Note_on_c, 0, 46, 85
1, 151282, Control_c, 0, 64, 85
1, 151283, Note_on_c, 0, 89, 89
1, 151296, Control_c, 0, 64, 110
1, 151303, Note_off_c, 0, 89, 68
1, 151304, Note_off_c, 0, 46, 67
1, 151311, Control_c, 0, 64, 127
1, 151378, Note_on_c, 0, 70, 82
1, 151385, Note_on_c, 0, 68, 76
1, 151417, Note_off_c, 0, 68, 61
1, 151460, Note_off_c, 0, 70, 60
1, 151476, Note_on_c, 0, 77, 59
1, 151476, Note_on_c, 0, 82, 67
1, 151506, Note_on_c, 0, 78, 19
1, 151507, Note_on_c, 0, 58, 39
1, 151540, Note_off_c, 0, 58, 51
1, 151546, Note_off_c, 0, 78, 29
1, 151548, Note_on_c, 0, 68, 64
1, 151548, Note_off_c, 0, 82, 54
1, 151551, Note_on_c, 0, 70, 73
1, 151563, Note_off_c, 0, 77, 60
1, 151574, Note_off_c, 0, 68, 68
1, 151574, Note_off_c, 0, 70, 68
1, 151593, Control_c, 0, 64, 116
1, 151608, Control_c, 0, 64, 94
1, 151623, Control_c, 0, 64, 67
1, 151638, Control_c, 0, 64, 0
1, 151647, Note_on_c, 0, 89, 87
1, 151647, Note_on_c, 0, 46, 85
1, 151676, Note_off_c, 0, 46, 64
1, 151676, Note_off_c, 0, 89, 64
1, 151752, Note_on_c, 0, 70, 74
1, 151758, Note_on_c, 0, 68, 70
1, 151778, Note_off_c, 0, 70, 69
1, 151788, Note_off_c, 0, 68, 66
1, 151838, Control_c, 0, 64, 64
1, 151845, Note_on_c, 0, 90, 95
1, 151847, Note_on_c, 0, 51, 77
1, 151852, Control_c, 0, 64, 82
1, 151867, Control_c, 0, 64, 104
1, 151880, Note_off_c, 0, 90, 66
1, 151882, Control_c, 0, 64, 127
1, 151894, Note_off_c, 0, 51, 58
1, 151945, Note_on_c, 0, 70, 80
1, 151954, Note_on_c, 0, 66, 58
1, 151984, Note_off_c, 0, 66, 55
1, 152021, Note_off_c, 0, 70, 61
1, 152029, Note_on_c, 0, 78, 78
1, 152044, Note_on_c, 0, 58, 64
1, 152056, Note_off_c, 0, 78, 65
1, 152070, Note_off_c, 0, 58, 67
1, 152131, Note_on_c, 0, 87, 84
1, 152146, Note_on_c, 0, 51, 65
1, 152189, Note_off_c, 0, 51, 53
1, 152214, Note_on_c, 0, 90, 84
1, 152225, Note_off_c, 0, 87, 58
1, 152229, Note_on_c, 0, 46, 67
1, 152295, Note_on_c, 0, 39, 79
1, 152296, Note_on_c, 0, 99, 89
1, 152298, Note_off_c, 0, 90, 63
1, 152302, Note_off_c, 0, 46, 63
1, 152312, Control_c, 0, 64, 104
1, 152321, Note_off_c, 0, 39, 65
1, 152326, Control_c, 0, 64, 80
1, 152338, Note_off_c, 0, 99, 68
1, 152341, Control_c, 0, 64, 0
1, 152558, Note_on_c, 0, 90, 80
1, 152561, Note_on_c, 0, 75, 77
1, 152562, Note_on_c, 0, 78, 75
1, 152580, Note_off_c, 0, 90, 67
1, 152582, Note_off_c, 0, 75, 71
1, 152584, Note_off_c, 0, 78, 69
1, 152648, Note_on_c, 0, 77, 84
1, 152652, Note_on_c, 0, 78, 86
1, 152653, Note_on_c, 0, 90, 86
1, 152673, Note_off_c, 0, 77, 63
1, 152674, Note_off_c, 0, 78, 65
1, 152681, Note_off_c, 0, 90, 63
1, 152734, Note_on_c, 0, 76, 77
1, 152736, Note_on_c, 0, 73, 75
1, 152747, Note_on_c, 0, 78, 88
1, 152747, Note_on_c, 0, 90, 81
1, 152756, Note_off_c, 0, 76, 71
1, 152768, Note_off_c, 0, 78, 63
1, 152772, Note_off_c, 0, 73, 61
1, 152772, Note_off_c, 0, 90, 62
1, 152824, Note_on_c, 0, 75, 78
1, 152842, Note_on_c, 0, 72, 46
1, 152844, Note_off_c, 0, 75, 69
1, 152848, Note_on_c, 0, 78, 86
1, 152848, Note_on_c, 0, 90, 79
1, 152864, Note_off_c, 0, 72, 58
1, 152870, Note_off_c, 0, 90, 65
1, 152871, Note_off_c, 0, 78, 64
1, 152917, Note_on_c, 0, 74, 43
1, 152935, Note_on_c, 0, 78, 71
1, 152941, Note_off_c, 0, 74, 56
1, 152955, Note_on_c, 0, 90, 54
1, 152959, Note_off_c, 0, 78, 66
1, 152977, Note_off_c, 0, 90, 38
1, 153011, Note_on_c, 0, 54, 83
1, 153015, Note_on_c, 0, 90, 88
1, 153016, Control_c, 0, 64, 77
1, 153030, Control_c, 0, 64, 96
1, 153039, Note_off_c, 0, 54, 63
1, 153045, Control_c, 0, 64, 127
1, 153059, Note_off_c, 0, 90, 66
1, 153124, Note_on_c, 0, 73, 72
1, 153128, Note_on_c, 0, 70, 49
1, 153158, Note_off_c, 0, 70, 53
1, 153192, Note_off_c, 0, 73, 53
1, 153200, Note_on_c, 0, 61, 54
1, 153205, Note_on_c, 0, 78, 75
1, 153215, Note_on_c, 0, 85, 62
1, 153217, Note_on_c, 0, 66, 39
1, 153251, Note_off_c, 0, 66, 56
1, 153258, Note_off_c, 0, 61, 61
1, 153259, Note_off_c, 0, 85, 57
1, 153270, Note_off_c, 0, 78, 40
1, 153297, Note_on_c, 0, 73, 72
1, 153300, Note_on_c, 0, 70, 60
1, 153322, Note_off_c, 0, 70, 64
1, 153323, Note_off_c, 0, 73, 68
1, 153335, Control_c, 0, 64, 102
1, 153350, Control_c, 0, 64, 77
1, 153365, Control_c, 0, 64, 0
1, 153381, Note_on_c, 0, 90, 85
1, 153388, Note_on_c, 0, 54, 72
1, 153410, Note_off_c, 0, 90, 66
1, 153420, Note_off_c, 0, 54, 63
1, 153471, Note_on_c, 0, 73, 75
1, 153489, Note_on_c, 0, 70, 36
1, 153502, Note_off_c, 0, 73, 62
1, 153522, Note_off_c, 0, 70, 32
1, 153557, Control_c, 0, 64, 68
1, 153568, Note_on_c, 0, 49, 87
1, 153571, Note_on_c, 0, 92, 95
1, 153572, Control_c, 0, 64, 82
1, 153587, Control_c, 0, 64, 102
1, 153594, Note_off_c, 0, 49, 66
1, 153602, Control_c, 0, 64, 119
1, 153610, Note_off_c, 0, 92, 65
1, 153616, Control_c, 0, 64, 125
1, 153631, Control_c, 0, 64, 127
1, 153674, Note_on_c, 0, 73, 72
1, 153709, Note_on_c, 0, 71, 22
1, 153749, Note_off_c, 0, 71, 29
1, 153759, Note_off_c, 0, 73, 58
1, 153762, Note_on_c, 0, 85, 70
1, 153765, Note_on_c, 0, 80, 69
1, 153781, Note_on_c, 0, 61, 53
1, 153812, Note_off_c, 0, 80, 49
1, 153820, Note_off_c, 0, 61, 60
1, 153837, Note_off_c, 0, 85, 57
1, 153845, Note_on_c, 0, 71, 55
1, 153858, Note_on_c, 0, 73, 71
1, 153867, Note_off_c, 0, 71, 58
1, 153873, Poly_aftertouch_c, 0, 65, 0
1, 153877, Note_off_c, 0, 73, 66
1, 153897, Control_c, 0, 64, 113
1, 153912, Control_c, 0, 64, 92
1, 153927, Control_c, 0, 64, 71
1, 153942, Note_on_c, 0, 49, 85
1, 153942, Control_c, 0, 64, 0
1, 153955, Note_on_c, 0, 92, 80
1, 153974, Note_off_c, 0, 49, 63
1, 153980, Note_off_c, 0, 92, 67
1, 154043, Note_on_c, 0, 75, 75
1, 154061, Note_off_c, 0, 75, 68
1, 154070, Note_on_c, 0, 71, 53
1, 154092, Note_off_c, 0, 71, 37
1, 154128, Control_c, 0, 64, 70
1, 154143, Control_c, 0, 64, 82
1, 154145, Note_on_c, 0, 94, 85
1, 154148, Note_on_c, 0, 54, 74
1, 154153, Note_on_c, 0, 85, 79
1, 154158, Control_c, 0, 64, 100
1, 154169, Note_off_c, 0, 94, 62
1, 154173, Control_c, 0, 64, 108
1, 154174, Note_off_c, 0, 85, 70
1, 154180, Note_off_c, 0, 54, 62
1, 154188, Control_c, 0, 64, 109
1, 154202, Control_c, 0, 64, 111
1, 154217, Control_c, 0, 64, 112
1, 154232, Control_c, 0, 64, 113
1, 154240, Note_on_c, 0, 96, 82
1, 154243, Note_on_c, 0, 85, 80
1, 154246, Control_c, 0, 64, 115
1, 154260, Note_off_c, 0, 85, 73
1, 154261, Control_c, 0, 64, 117
1, 154265, Note_off_c, 0, 96, 62
1, 154276, Control_c, 0, 64, 118
1, 154291, Control_c, 0, 64, 122
1, 154306, Control_c, 0, 64, 127
1, 154326, Note_on_c, 0, 97, 83
1, 154327, Note_on_c, 0, 85, 86
1, 154335, Note_on_c, 0, 94, 77
1, 154350, Note_off_c, 0, 85, 65
1, 154354, Note_on_c, 0, 61, 47
1, 154356, Note_off_c, 0, 94, 70
1, 154365, Note_off_c, 0, 97, 60
1, 154380, Note_off_c, 0, 61, 62
1, 154409, Note_on_c, 0, 70, 72
1, 154419, Note_on_c, 0, 97, 85
1, 154428, Note_on_c, 0, 85, 85
1, 154434, Note_off_c, 0, 70, 67
1, 154446, Note_off_c, 0, 85, 72
1, 154452, Note_off_c, 0, 97, 67
1, 154519, Note_on_c, 0, 85, 102
1, 154536, Note_on_c, 0, 95, 57
1, 154541, Note_on_c, 0, 93, 58
1, 154553, Note_off_c, 0, 85, 63
1, 154556, Note_off_c, 0, 95, 61
1, 154561, Note_off_c, 0, 93, 57
1, 154612, Note_on_c, 0, 85, 80
1, 154622, Note_on_c, 0, 94, 87
1, 154646, Control_c, 0, 64, 109
1, 154648, Note_off_c, 0, 94, 61
1, 154648, Note_off_c, 0, 85, 67
1, 154661, Control_c, 0, 64, 85
1, 154676, Control_c, 0, 64, 0
1, 154694, Note_on_c, 0, 47, 80
1, 154719, Note_on_c, 0, 83, 81
1, 154720, Note_on_c, 0, 92, 85
1, 154720, Control_c, 0, 64, 63
1, 154722, Note_off_c, 0, 47, 69
1, 154743, Control_c, 0, 64, 72
1, 154745, Note_off_c, 0, 83, 70
1, 154749, Note_off_c, 0, 92, 68
1, 154758, Control_c, 0, 64, 85
1, 154774, Control_c, 0, 64, 97
1, 154788, Control_c, 0, 64, 102
1, 154803, Control_c, 0, 64, 103
1, 154818, Control_c, 0, 64, 104
1, 154821, Note_on_c, 0, 85, 86
1, 154829, Note_on_c, 0, 94, 78
1, 154843, Note_off_c, 0, 85, 63
1, 154848, Control_c, 0, 64, 104
1, 154854, Note_off_c, 0, 94, 64
1, 154863, Control_c, 0, 64, 105
1, 154911, Note_on_c, 0, 58, 58
1, 154916, Note_on_c, 0, 87, 87
1, 154929, Note_on_c, 0, 95, 71
1, 154953, Note_off_c, 0, 58, 59
1, 154954, Note_off_c, 0, 95, 70
1, 154955, Note_off_c, 0, 87, 64
1, 155003, Note_on_c, 0, 87, 84
1, 155015, Note_on_c, 0, 95, 77
1, 155036, Note_off_c, 0, 95, 71
1, 155046, Note_off_c, 0, 87, 64
1, 155085, Control_c, 0, 64, 105
1, 155097, Note_on_c, 0, 85, 97
1, 155103, Note_on_c, 0, 94, 81
1, 155125, Note_on_c, 0, 92, 53
1, 155133, Note_off_c, 0, 94, 58
1, 155136, Note_off_c, 0, 85, 65
1, 155149, Note_off_c, 0, 92, 36
1, 155203, Note_on_c, 0, 92, 93
1, 155210, Note_on_c, 0, 83, 76
1, 155218, Control_c, 0, 64, 105
1, 155224, Note_off_c, 0, 83, 67
1, 155229, Note_off_c, 0, 92, 57
1, 155233, Control_c, 0, 64, 95
1, 155248, Control_c, 0, 64, 76
1, 155262, Control_c, 0, 64, 0
1, 155272, Note_on_c, 0, 49, 82
1, 155292, Control_c, 0, 64, 53
1, 155293, Note_off_c, 0, 49, 58
1, 155297, Note_on_c, 0, 90, 84
1, 155298, Note_on_c, 0, 82, 87
1, 155307, Control_c, 0, 64, 69
1, 155319, Note_off_c, 0, 82, 67
1, 155322, Note_off_c, 0, 90, 62
1, 155322, Control_c, 0, 64, 79
1, 155337, Control_c, 0, 64, 92
1, 155352, Control_c, 0, 64, 101
1, 155367, Control_c, 0, 64, 101
1, 155376, Poly_aftertouch_c, 0, 47, 0
1, 155396, Control_c, 0, 64, 102
1, 155400, Note_on_c, 0, 83, 81
1, 155401, Note_on_c, 0, 92, 79
1, 155418, Note_off_c, 0, 83, 68
1, 155421, Note_off_c, 0, 92, 71
1, 155426, Control_c, 0, 64, 102
1, 155441, Control_c, 0, 64, 103
1, 155456, Control_c, 0, 64, 103
1, 155470, Control_c, 0, 64, 104
1, 155492, Note_on_c, 0, 85, 84
1, 155492, Control_c, 0, 64, 105
1, 155497, Note_on_c, 0, 94, 79
1, 155504, Note_on_c, 0, 58, 55
1, 155507, Control_c, 0, 64, 106
1, 155520, Note_off_c, 0, 94, 68
1, 155522, Control_c, 0, 64, 107
1, 155528, Note_off_c, 0, 85, 61
1, 155532, Note_off_c, 0, 58, 61
1, 155581, Note_on_c, 0, 85, 79
1, 155584, Note_on_c, 0, 94, 72
1, 155602, Note_on_c, 0, 65, 16
1, 155622, Note_off_c, 0, 85, 66
1, 155628, Note_off_c, 0, 94, 61
1, 155648, Note_off_c, 0, 65, 37
1, 155671, Note_on_c, 0, 83, 83
1, 155674, Note_on_c, 0, 92, 77
1, 155686, Note_on_c, 0, 90, 61
1, 155689, Note_on_c, 0, 72, 27
1, 155694, Note_off_c, 0, 83, 65
1, 155700, Note_on_c, 0, 85, 13
1, 155701, Note_off_c, 0, 92, 59
1, 155703, Note_off_c, 0, 90, 64
1, 155721, Note_off_c, 0, 72, 47
1, 155745, Note_off_c, 0, 85, 28
1, 155767, Note_on_c, 0, 90, 94
1, 155774, Note_on_c, 0, 82, 83
1, 155790, Control_c, 0, 64, 106
1, 155793, Note_off_c, 0, 82, 71
1, 155805, Control_c, 0, 64, 99
1, 155818, Note_off_c, 0, 90, 61
1, 155820, Control_c, 0, 64, 82
1, 155835, Control_c, 0, 64, 42
1, 155849, Control_c, 0, 64, 0
1, 155864, Control_c, 0, 64, 43
1, 155877, Note_on_c, 0, 89, 88
1, 155879, Control_c, 0, 64, 67
1, 155882, Note_on_c, 0, 80, 88
1, 155886, Note_on_c, 0, 61, 37
1, 155893, Control_c, 0, 64, 76
1, 155900, Note_off_c, 0, 80, 70
1, 155908, Control_c, 0, 64, 88
1, 155913, Note_off_c, 0, 61, 54
1, 155915, Note_on_c, 0, 85, 32
1, 155923, Control_c, 0, 64, 97
1, 155925, Note_off_c, 0, 89, 64
1, 155938, Control_c, 0, 64, 99
1, 155947, Note_off_c, 0, 85, 52
1, 155953, Control_c, 0, 64, 100
1, 155967, Control_c, 0, 64, 100
1, 155982, Control_c, 0, 64, 102
1, 155986, Note_on_c, 0, 82, 76
1, 155992, Note_on_c, 0, 90, 81
1, 155997, Control_c, 0, 64, 104
1, 156011, Control_c, 0, 64, 107
1, 156014, Note_on_c, 0, 91, 60
1, 156020, Note_off_c, 0, 90, 61
1, 156025, Note_off_c, 0, 82, 65
1, 156026, Control_c, 0, 64, 107
1, 156031, Note_off_c, 0, 91, 41
1, 156065, Note_on_c, 0, 77, 61
1, 156085, Note_on_c, 0, 92, 94
1, 156094, Note_off_c, 0, 77, 63
1, 156101, Note_on_c, 0, 83, 67
1, 156117, Note_off_c, 0, 83, 63
1, 156139, Note_off_c, 0, 92, 60
1, 156152, Note_on_c, 0, 68, 70
1, 156167, Note_on_c, 0, 92, 59
1, 156212, Note_off_c, 0, 68, 62
1, 156250, Note_on_c, 0, 87, 78
1, 156252, Note_on_c, 0, 61, 77
1, 156263, Note_off_c, 0, 92, 54
1, 156331, Note_off_c, 0, 61, 58
1, 156333, Note_on_c, 0, 89, 79
1, 156349, Note_on_c, 0, 71, 50
1, 156354, Note_off_c, 0, 87, 64
1, 156360, Control_c, 0, 64, 103
1, 156373, Note_off_c, 0, 71, 55
1, 156376, Control_c, 0, 64, 89
1, 156390, Control_c, 0, 64, 68
1, 156405, Control_c, 0, 64, 0
1, 156426, Note_on_c, 0, 66, 69
1, 156426, Note_on_c, 0, 78, 95
1, 156430, Note_on_c, 0, 85, 78
1, 156430, Note_on_c, 0, 90, 84
1, 156434, Note_off_c, 0, 89, 66
1, 156435, Control_c, 0, 64, 67
1, 156436, Note_on_c, 0, 70, 66
1, 156450, Control_c, 0, 64, 78
1, 156452, Note_off_c, 0, 66, 68
1, 156453, Note_off_c, 0, 70, 63
1, 156458, Note_off_c, 0, 90, 65
1, 156461, Note_off_c, 0, 85, 59
1, 156464, Control_c, 0, 64, 93
1, 156468, Note_off_c, 0, 78, 62
1, 156479, Control_c, 0, 64, 106
1, 156494, Control_c, 0, 64, 111
1, 156509, Control_c, 0, 64, 110
1, 156523, Control_c, 0, 64, 107
1, 156538, Control_c, 0, 64, 94
1, 156553, Control_c, 0, 64, 77
1, 156568, Control_c, 0, 64, 22
1, 156583, Control_c, 0, 64, 0
1, 156622, Note_on_c, 0, 54, 83
1, 156623, Note_on_c, 0, 42, 78
1, 156646, Note_off_c, 0, 54, 67
1, 156657, Note_off_c, 0, 42, 61
1, 156710, Note_on_c, 0, 54, 68
1, 156730, Poly_aftertouch_c, 0, 42, 0
1, 156735, Note_off_c, 0, 54, 65
1, 156798, Note_on_c, 0, 55, 79
1, 156807, Note_on_c, 0, 43, 62
1, 156825, Note_off_c, 0, 55, 67
1, 156844, Note_off_c, 0, 43, 56
1, 156893, Note_on_c, 0, 43, 59
1, 156896, Note_on_c, 0, 55, 76
1, 156921, Note_off_c, 0, 55, 67
1, 156925, Note_off_c, 0, 43, 60
1, 156989, Note_on_c, 0, 56, 95
1, 156991, Note_on_c, 0, 44, 76
1, 157005, Control_c, 0, 64, 69
1, 157017, Note_off_c, 0, 56, 61
1, 157020, Control_c, 0, 64, 84
1, 157027, Note_off_c, 0, 44, 63
1, 157035, Control_c, 0, 64, 104
1, 157049, Control_c, 0, 64, 120
1, 157064, Control_c, 0, 64, 127
1, 157075, Note_on_c, 0, 56, 86
1, 157090, Note_on_c, 0, 44, 63
1, 157114, Note_off_c, 0, 56, 66
1, 157115, Note_off_c, 0, 44, 64
1, 157164, Note_on_c, 0, 56, 76
1, 157177, Note_on_c, 0, 68, 51
1, 157190, Note_off_c, 0, 56, 65
1, 157206, Note_off_c, 0, 68, 52
1, 157252, Note_on_c, 0, 56, 66
1, 157268, Note_on_c, 0, 68, 52
1, 157269, Note_off_c, 0, 56, 73
1, 157330, Note_off_c, 0, 68, 63
1, 157370, Note_on_c, 0, 68, 70
1, 157373, Note_on_c, 0, 80, 95
1, 157388, Note_off_c, 0, 80, 73
1, 157445, Note_on_c, 0, 80, 82
1, 157470, Poly_aftertouch_c, 0, 73, 0
1, 157492, Note_off_c, 0, 68, 61
1, 157498, Note_off_c, 0, 80, 59
1, 157546, Note_on_c, 0, 80, 84
1, 157547, Note_on_c, 0, 92, 97
1, 157579, Note_off_c, 0, 80, 63
1, 157591, Note_off_c, 0, 92, 63
1, 157686, Control_c, 0, 64, 112
1, 157701, Control_c, 0, 64, 94
1, 157716, Control_c, 0, 64, 74
1, 157738, Control_c, 0, 64, 0
1, 157761, Note_on_c, 0, 90, 79
1, 157761, Note_on_c, 0, 102, 77
1, 157771, Note_on_c, 0, 80, 47
1, 157775, Note_on_c, 0, 75, 41
1, 157782, Note_off_c, 0, 90, 69
1, 157784, Note_off_c, 0, 102, 69
1, 157793, Note_off_c, 0, 80, 59
1, 157797, Note_off_c, 0, 75, 50
1, 157853, Note_on_c, 0, 102, 59
1, 157856, Note_on_c, 0, 90, 63
1, 157858, Note_on_c, 0, 80, 62
1, 157874, Note_off_c, 0, 90, 63
1, 157874, Note_off_c, 0, 80, 65
1, 157875, Note_off_c, 0, 102, 58
1, 157915, Note_on_c, 0, 73, 40
1, 157934, Note_on_c, 0, 88, 73
1, 157934, Note_on_c, 0, 100, 78
1, 157957, Note_on_c, 0, 80, 49
1, 157959, Note_off_c, 0, 88, 64
1, 157965, Note_off_c, 0, 100, 58
1, 157968, Note_off_c, 0, 73, 60
1, 157981, Note_off_c, 0, 80, 56
1, 158021, Note_on_c, 0, 100, 74
1, 158030, Note_on_c, 0, 88, 73
1, 158052, Note_off_c, 0, 88, 68
1, 158062, Note_on_c, 0, 80, 28
1, 158063, Note_off_c, 0, 100, 63
1, 158112, Note_off_c, 0, 80, 0
1, 158112, Note_on_c, 0, 80, 51
1, 158122, Note_on_c, 0, 99, 81
1, 158126, Note_on_c, 0, 87, 80
1, 158132, Note_on_c, 0, 72, 52
1, 158148, Note_off_c, 0, 87, 64
1, 158148, Note_off_c, 0, 99, 64
1, 158153, Note_off_c, 0, 72, 61
1, 158156, Note_off_c, 0, 80, 64
1, 158213, Note_on_c, 0, 80, 62
1, 158214, Note_on_c, 0, 87, 79
1, 158214, Note_on_c, 0, 99, 80
1, 158236, Note_off_c, 0, 87, 68
1, 158239, Note_off_c, 0, 99, 65
1, 158244, Note_off_c, 0, 80, 66
1, 158308, Note_on_c, 0, 97, 89
1, 158309, Note_on_c, 0, 70, 70
1, 158312, Note_on_c, 0, 85, 82
1, 158318, Note_on_c, 0, 80, 56
1, 158331, Note_off_c, 0, 85, 70
1, 158335, Note_off_c, 0, 70, 67
1, 158337, Note_off_c, 0, 80, 63
1, 158350, Note_off_c, 0, 97, 60
1, 158397, Note_on_c, 0, 97, 76
1, 158404, Note_on_c, 0, 85, 74
1, 158410, Note_on_c, 0, 70, 62
1, 158414, Note_on_c, 0, 80, 58
1, 158425, Note_off_c, 0, 85, 71
1, 158432, Note_off_c, 0, 80, 64
1, 158433, Note_off_c, 0, 70, 60
1, 158435, Note_off_c, 0, 97, 61
1, 158497, Note_on_c, 0, 87, 83
1, 158500, Note_on_c, 0, 99, 86
1, 158502, Note_on_c, 0, 80, 75
1, 158524, Note_off_c, 0, 80, 69
1, 158529, Note_on_c, 0, 72, 47
1, 158530, Note_off_c, 0, 87, 63
1, 158535, Note_off_c, 0, 99, 63
1, 158579, Note_off_c, 0, 72, 0
1, 158586, Note_on_c, 0, 87, 69
1, 158586, Note_on_c, 0, 99, 77
1, 158591, Note_on_c, 0, 72, 53
1, 158617, Note_on_c, 0, 80, 37
1, 158617, Note_off_c, 0, 87, 64
1, 158632, Note_off_c, 0, 72, 61
1, 158634, Note_off_c, 0, 99, 66
1, 158646, Note_off_c, 0, 80, 48
1, 158670, Note_on_c, 0, 80, 75
1, 158673, Note_on_c, 0, 100, 94
1, 158673, Note_on_c, 0, 88, 90
1, 158676, Note_on_c, 0, 73, 77
1, 158691, Note_off_c, 0, 80, 70
1, 158710, Control_c, 0, 64, 66
1, 158723, Note_off_c, 0, 73, 63
1, 158724, Note_off_c, 0, 88, 61
1, 158725, Control_c, 0, 64, 84
1, 158729, Note_off_c, 0, 100, 64
1, 158740, Control_c, 0, 64, 113
1, 158755, Control_c, 0, 64, 127
1, 158830, Control_c, 0, 64, 107
1, 158844, Control_c, 0, 64, 86
1, 158859, Control_c, 0, 64, 65
1, 158874, Control_c, 0, 64, 0
1, 158886, Note_on_c, 0, 56, 83
1, 158890, Note_on_c, 0, 44, 76
1, 158907, Note_off_c, 0, 56, 67
1, 158919, Note_off_c, 0, 44, 66
1, 158955, Note_on_c, 0, 56, 79
1, 158968, Note_on_c, 0, 44, 78
1, 158993, Note_off_c, 0, 56, 61
1, 158996, Note_off_c, 0, 44, 64
1, 159050, Note_on_c, 0, 55, 87
1, 159054, Note_on_c, 0, 43, 76
1, 159081, Note_off_c, 0, 55, 64
1, 159089, Note_off_c, 0, 43, 64
1, 159135, Note_on_c, 0, 55, 78
1, 159138, Note_on_c, 0, 43, 60
1, 159176, Note_off_c, 0, 55, 65
1, 159176, Note_off_c, 0, 43, 62
1, 159219, Note_on_c, 0, 54, 98
1, 159236, Note_on_c, 0, 42, 77
1, 159251, Control_c, 0, 64, 67
1, 159266, Control_c, 0, 64, 86
1, 159267, Note_off_c, 0, 42, 64
1, 159270, Note_off_c, 0, 54, 60
1, 159281, Control_c, 0, 64, 117
1, 159296, Control_c, 0, 64, 127
1, 159318, Note_on_c, 0, 54, 83
1, 159318, Poly_aftertouch_c, 0, 44, 0
1, 159323, Note_on_c, 0, 42, 74
1, 159351, Note_off_c, 0, 42, 66
1, 159355, Poly_aftertouch_c, 0, 44, 0
1, 159358, Note_off_c, 0, 54, 60
1, 159395, Note_on_c, 0, 54, 83
1, 159409, Note_on_c, 0, 66, 59
1, 159434, Note_off_c, 0, 66, 66
1, 159438, Note_off_c, 0, 54, 57
1, 159474, Note_on_c, 0, 54, 61
1, 159513, Note_on_c, 0, 66, 59
1, 159513, Note_off_c, 0, 54, 63
1, 159540, Note_off_c, 0, 66, 68
1, 159601, Note_on_c, 0, 78, 94
1, 159606, Note_on_c, 0, 66, 83
1, 159618, Note_off_c, 0, 78, 70
1, 159622, Note_off_c, 0, 66, 62
1, 159671, Note_on_c, 0, 78, 87
1, 159712, Poly_aftertouch_c, 0, 66, 0
1, 159728, Note_off_c, 0, 78, 61
1, 159773, Note_on_c, 0, 78, 89
1, 159775, Note_on_c, 0, 90, 98
1, 159805, Note_off_c, 0, 78, 64
1, 159816, Note_off_c, 0, 90, 63
1, 159904, Control_c, 0, 64, 124
1, 159919, Control_c, 0, 64, 103
1, 159933, Control_c, 0, 64, 84
1, 159948, Control_c, 0, 64, 54
1, 159963, Control_c, 0, 64, 0
1, 159990, Note_on_c, 0, 88, 77
1, 159990, Note_on_c, 0, 73, 56
1, 159997, Note_on_c, 0, 100, 76
1, 160003, Note_on_c, 0, 78, 42
1, 160015, Note_off_c, 0, 73, 63
1, 160019, Note_off_c, 0, 88, 61
1, 160020, Note_off_c, 0, 100, 69
1, 160029, Note_off_c, 0, 78, 46
1, 160068, Note_on_c, 0, 100, 69
1, 160076, Note_on_c, 0, 78, 61
1, 160091, Note_on_c, 0, 88, 39
1, 160094, Note_off_c, 0, 100, 67
1, 160103, Note_off_c, 0, 78, 65
1, 160123, Note_off_c, 0, 88, 33
1, 160162, Note_on_c, 0, 99, 87
1, 160165, Note_on_c, 0, 78, 74
1, 160172, Note_on_c, 0, 87, 68
1, 160179, Note_on_c, 0, 71, 50
1, 160188, Note_off_c, 0, 99, 62
1, 160189, Note_off_c, 0, 78, 67
1, 160193, Note_off_c, 0, 87, 64
1, 160208, Note_off_c, 0, 71, 52
1, 160254, Note_on_c, 0, 87, 81
1, 160256, Note_on_c, 0, 78, 64
1, 160258, Note_on_c, 0, 99, 81
1, 160280, Note_off_c, 0, 78, 62
1, 160283, Note_off_c, 0, 87, 63
1, 160286, Note_off_c, 0, 99, 64
1, 160345, Note_on_c, 0, 97, 68
1, 160350, Note_on_c, 0, 70, 66
1, 160357, Note_on_c, 0, 78, 62
1, 160357, Note_on_c, 0, 85, 78
1, 160372, Note_off_c, 0, 70, 64
1, 160375, Note_off_c, 0, 78, 63
1, 160377, Note_off_c, 0, 85, 69
1, 160404, Note_off_c, 0, 97, 55
1, 160438, Note_on_c, 0, 97, 60
1, 160441, Note_on_c, 0, 85, 78
1, 160449, Note_on_c, 0, 78, 57
1, 160461, Note_on_c, 0, 70, 36
1, 160468, Note_off_c, 0, 78, 62
1, 160470, Note_off_c, 0, 85, 60
1, 160478, Note_off_c, 0, 97, 62
1, 160492, Note_off_c, 0, 70, 33
1, 160536, Note_on_c, 0, 68, 69
1, 160539, Note_on_c, 0, 78, 65
1, 160540, Note_on_c, 0, 95, 87
1, 160544, Note_on_c, 0, 83, 77
1, 160556, Note_off_c, 0, 78, 65
1, 160566, Note_off_c, 0, 83, 63
1, 160568, Note_off_c, 0, 68, 63
1, 160579, Note_off_c, 0, 95, 62
1, 160624, Note_on_c, 0, 95, 72
1, 160632, Note_on_c, 0, 78, 67
1, 160636, Note_on_c, 0, 83, 75
1, 160637, Note_on_c, 0, 68, 53
1, 160658, Note_off_c, 0, 83, 69
1, 160661, Note_off_c, 0, 78, 66
1, 160664, Note_off_c, 0, 68, 57
1, 160669, Note_off_c, 0, 95, 66
1, 160730, Note_on_c, 0, 78, 67
1, 160730, Note_on_c, 0, 85, 85
1, 160732, Note_on_c, 0, 97, 83
1, 160732, Note_on_c, 0, 70, 71
1, 160750, Note_off_c, 0, 85, 67
1, 160759, Note_off_c, 0, 78, 64
1, 160761, Note_off_c, 0, 97, 57
1, 160775, Note_off_c, 0, 70, 60
1, 160820, Note_on_c, 0, 97, 82
1, 160821, Note_on_c, 0, 85, 78
1, 160833, Note_on_c, 0, 70, 47
1, 160841, Note_off_c, 0, 85, 71
1, 160846, Note_on_c, 0, 78, 50
1, 160846, Note_off_c, 0, 97, 63
1, 160868, Note_off_c, 0, 70, 47
1, 160877, Note_off_c, 0, 78, 0
1, 160890, Note_on_c, 0, 78, 69
1, 160902, Note_on_c, 0, 71, 78
1, 160902, Note_on_c, 0, 87, 93
1, 160902, Note_on_c, 0, 99, 95
1, 160926, Note_off_c, 0, 78, 65
1, 160942, Control_c, 0, 64, 65
1, 160948, Note_off_c, 0, 71, 61
1, 160956, Note_off_c, 0, 87, 63
1, 160956, Control_c, 0, 64, 83
1, 160963, Note_off_c, 0, 99, 68
1, 160971, Control_c, 0, 64, 111
1, 160986, Control_c, 0, 64, 127
1, 161090, Control_c, 0, 64, 106
1, 161105, Control_c, 0, 64, 85
1, 161117, Note_on_c, 0, 53, 84
1, 161120, Control_c, 0, 64, 67
1, 161125, Note_on_c, 0, 41, 74
1, 161135, Control_c, 0, 64, 0
1, 161142, Note_off_c, 0, 53, 69
1, 161156, Note_off_c, 0, 41, 66
1, 161201, Note_on_c, 0, 53, 76
1, 161209, Note_on_c, 0, 41, 71
1, 161227, Note_off_c, 0, 53, 69
1, 161236, Note_off_c, 0, 41, 68
1, 161293, Note_on_c, 0, 52, 88
1, 161305, Note_on_c, 0, 40, 75
1, 161321, Note_off_c, 0, 52, 67
1, 161380, Note_on_c, 0, 52, 81
1, 161410, Note_off_c, 0, 40, 59
1, 161415, Note_off_c, 0, 52, 65
1, 161466, Note_on_c, 0, 51, 90
1, 161479, Note_on_c, 0, 39, 75
1, 161499, Note_off_c, 0, 51, 64
1, 161513, Control_c, 0, 64, 69
1, 161519, Note_off_c, 0, 39, 61
1, 161528, Control_c, 0, 64, 83
1, 161543, Control_c, 0, 64, 102
1, 161551, Note_on_c, 0, 51, 85
1, 161558, Control_c, 0, 64, 113
1, 161569, Poly_aftertouch_c, 0, 39, 0
1, 161573, Control_c, 0, 64, 117
1, 161587, Control_c, 0, 64, 121
1, 161594, Note_off_c, 0, 51, 64
1, 161602, Control_c, 0, 64, 125
1, 161617, Control_c, 0, 64, 127
1, 161659, Note_on_c, 0, 51, 84
1, 161683, Note_on_c, 0, 63, 44
1, 161692, Note_off_c, 0, 51, 64
1, 161742, Note_off_c, 0, 63, 0
1, 161749, Note_on_c, 0, 51, 63
1, 161766, Note_on_c, 0, 63, 19
1, 161771, Note_off_c, 0, 51, 65
1, 161802, Note_off_c, 0, 63, 59
1, 161845, Note_on_c, 0, 63, 68
1, 161846, Note_on_c, 0, 75, 91
1, 161863, Note_off_c, 0, 75, 72
1, 161920, Note_on_c, 0, 75, 84
1, 161975, Note_off_c, 0, 75, 61
1, 161978, Note_off_c, 0, 63, 62
1, 162023, Note_on_c, 0, 75, 88
1, 162026, Note_on_c, 0, 87, 92
1, 162066, Note_off_c, 0, 75, 64
1, 162070, Note_off_c, 0, 87, 62
1, 162151, Control_c, 0, 64, 98
1, 162166, Control_c, 0, 64, 80
1, 162181, Control_c, 0, 64, 50
1, 162196, Control_c, 0, 64, 0
1, 162219, Note_on_c, 0, 67, 65
1, 162220, Note_on_c, 0, 75, 85
1, 162220, Note_on_c, 0, 87, 78
1, 162236, Note_on_c, 0, 63, 48
1, 162247, Note_off_c, 0, 75, 71
1, 162249, Note_off_c, 0, 87, 70
1, 162256, Note_off_c, 0, 67, 66
1, 162267, Note_off_c, 0, 63, 62
1, 162319, Note_on_c, 0, 67, 71
1, 162319, Note_on_c, 0, 87, 77
1, 162321, Note_on_c, 0, 75, 80
1, 162334, Note_on_c, 0, 63, 25
1, 162335, Note_off_c, 0, 67, 67
1, 162340, Note_off_c, 0, 87, 69
1, 162341, Note_off_c, 0, 75, 68
1, 162368, Note_off_c, 0, 63, 42
1, 162405, Note_on_c, 0, 75, 84
1, 162409, Note_on_c, 0, 87, 83
1, 162410, Note_on_c, 0, 65, 71
1, 162412, Note_on_c, 0, 68, 69
1, 162430, Note_off_c, 0, 68, 66
1, 162446, Note_off_c, 0, 65, 63
1, 162453, Note_off_c, 0, 75, 62
1, 162490, Note_on_c, 0, 68, 85
1, 162491, Note_on_c, 0, 65, 55
1, 162497, Note_on_c, 0, 75, 59
1, 162530, Note_off_c, 0, 75, 65
1, 162533, Note_off_c, 0, 65, 66
1, 162536, Note_off_c, 0, 68, 61
1, 162541, Note_off_c, 0, 87, 64
1, 162584, Note_on_c, 0, 69, 80
1, 162585, Note_on_c, 0, 88, 85
1, 162587, Note_on_c, 0, 66, 78
1, 162588, Note_on_c, 0, 76, 82
1, 162616, Note_off_c, 0, 69, 63
1, 162619, Note_off_c, 0, 76, 70
1, 162621, Note_off_c, 0, 66, 66
1, 162634, Note_off_c, 0, 88, 61
1, 162682, Note_on_c, 0, 66, 79
1, 162686, Note_on_c, 0, 69, 74
1, 162686, Note_on_c, 0, 75, 95
1, 162694, Note_on_c, 0, 87, 76
1, 162704, Note_off_c, 0, 75, 70
1, 162708, Note_off_c, 0, 69, 72
1, 162710, Note_on_c, 0, 85, 48
1, 162718, Note_off_c, 0, 87, 67
1, 162719, Note_off_c, 0, 66, 67
1, 162732, Note_off_c, 0, 85, 37
1, 162775, Note_on_c, 0, 73, 92
1, 162785, Note_on_c, 0, 67, 85
1, 162789, Note_on_c, 0, 85, 75
1, 162791, Note_on_c, 0, 64, 71
1, 162800, Note_off_c, 0, 73, 62
1, 162809, Note_off_c, 0, 67, 66
1, 162812, Note_off_c, 0, 85, 65
1, 162819, Note_off_c, 0, 64, 66
1, 162876, Note_on_c, 0, 71, 91
1, 162876, Note_on_c, 0, 83, 83
1, 162887, Note_on_c, 0, 62, 71
1, 162888, Note_on_c, 0, 65, 68
1, 162900, Note_off_c, 0, 71, 65
1, 162905, Note_off_c, 0, 65, 69
1, 162910, Note_off_c, 0, 83, 58
1, 162916, Note_off_c, 0, 62, 66
1, 162965, Note_on_c, 0, 65, 80
1, 162965, Note_on_c, 0, 70, 97
1, 162969, Note_on_c, 0, 62, 74
1, 162981, Note_on_c, 0, 82, 80
1, 162992, Note_off_c, 0, 70, 67
1, 162994, Note_off_c, 0, 65, 72
1, 163004, Note_off_c, 0, 82, 66
1, 163006, Note_on_c, 0, 80, 42
1, 163010, Control_c, 0, 64, 19
1, 163011, Note_off_c, 0, 62, 63
1, 163025, Control_c, 0, 64, 22
1, 163037, Note_off_c, 0, 80, 35
1, 163040, Control_c, 0, 64, 0
1, 163055, Note_on_c, 0, 68, 94
1, 163066, Note_on_c, 0, 80, 62
1, 163071, Note_on_c, 0, 65, 56
1, 163075, Note_on_c, 0, 78, 56
1, 163084, Note_off_c, 0, 68, 65
1, 163091, Note_off_c, 0, 65, 66
1, 163093, Note_off_c, 0, 78, 60
1, 163096, Note_off_c, 0, 80, 66
1, 163140, Note_on_c, 0, 67, 97
1, 163140, Note_on_c, 0, 79, 89
1, 163143, Note_on_c, 0, 63, 69
1, 163163, Note_on_c, 0, 78, 55
1, 163173, Control_c, 0, 64, 74
1, 163175, Note_off_c, 0, 63, 64
1, 163184, Note_off_c, 0, 78, 58
1, 163188, Control_c, 0, 64, 102
1, 163202, Note_off_c, 0, 67, 61
1, 163202, Control_c, 0, 64, 127
1, 163212, Note_off_c, 0, 79, 57
1, 163321, Control_c, 0, 64, 107
1, 163336, Control_c, 0, 64, 81
1, 163340, Note_on_c, 0, 46, 84
1, 163350, Note_on_c, 0, 34, 68
1, 163351, Control_c, 0, 64, 0
1, 163356, Note_on_c, 0, 44, 63
1, 163361, Note_on_c, 0, 32, 51
1, 163363, Note_off_c, 0, 46, 66
1, 163374, Note_off_c, 0, 34, 61
1, 163382, Note_off_c, 0, 44, 38
1, 163395, Note_off_c, 0, 32, 53
1, 163409, Note_on_c, 0, 46, 82
1, 163416, Note_on_c, 0, 34, 72
1, 163446, Note_off_c, 0, 46, 64
1, 163447, Note_off_c, 0, 34, 65
1, 163518, Note_on_c, 0, 50, 88
1, 163522, Note_on_c, 0, 38, 71
1, 163541, Note_off_c, 0, 50, 69
1, 163555, Note_off_c, 0, 38, 64
1, 163606, Note_on_c, 0, 50, 77
1, 163611, Note_on_c, 0, 38, 68
1, 163631, Note_off_c, 0, 50, 68
1, 163641, Note_off_c, 0, 38, 64
1, 163694, Note_on_c, 0, 51, 88
1, 163695, Note_on_c, 0, 39, 73
1, 163715, Note_off_c, 0, 51, 69
1, 163729, Control_c, 0, 64, 76
1, 163741, Note_off_c, 0, 39, 61
1, 163744, Control_c, 0, 64, 95
1, 163759, Control_c, 0, 64, 127
1, 163776, Note_on_c, 0, 51, 88
1, 163802, Note_on_c, 0, 39, 46
1, 163818, Note_off_c, 0, 51, 64
1, 163827, Note_off_c, 0, 39, 60
1, 163879, Note_on_c, 0, 51, 92
1, 163894, Note_on_c, 0, 63, 58
1, 163919, Note_off_c, 0, 51, 58
1, 163965, Note_off_c, 0, 63, 0
1, 164002, Poly_aftertouch_c, 0, 63, 127
1, 164037, Poly_aftertouch_c, 0, 63, 0
1, 164061, Note_on_c, 0, 63, 62
1, 164072, Note_on_c, 0, 75, 95
1, 164088, Note_off_c, 0, 75, 75
1, 164149, Note_on_c, 0, 75, 82
1, 164197, Note_off_c, 0, 63, 64
1, 164205, Note_off_c, 0, 75, 62
1, 164246, Note_on_c, 0, 75, 90
1, 164248, Note_on_c, 0, 87, 97
1, 164280, Note_off_c, 0, 75, 64
1, 164292, Note_off_c, 0, 87, 60
1, 164467, Note_on_c, 0, 75, 80
1, 164476, Note_on_c, 0, 87, 108
1, 164479, Note_on_c, 0, 99, 105
1, 164487, Note_on_c, 0, 67, 53
1, 164501, Note_on_c, 0, 92, 63
1, 164502, Note_off_c, 0, 92, 127
1, 164507, Note_off_c, 0, 87, 65
1, 164510, Note_off_c, 0, 99, 66
1, 164524, Note_off_c, 0, 75, 63
1, 164596, Note_on_c, 0, 75, 77
1, 164602, Note_off_c, 0, 67, 0
1, 164602, Note_on_c, 0, 67, 24
1, 164612, Note_on_c, 0, 99, 98
1, 164613, Note_on_c, 0, 87, 101
1, 164646, Note_off_c, 0, 87, 65
1, 164650, Note_off_c, 0, 99, 70
1, 164653, Note_off_c, 0, 67, 61
1, 164658, Note_off_c, 0, 75, 64
1, 164728, Note_on_c, 0, 68, 82
1, 164728, Note_on_c, 0, 99, 93
1, 164731, Note_on_c, 0, 87, 104
1, 164732, Note_on_c, 0, 77, 83
1, 164766, Note_off_c, 0, 87, 64
1, 164776, Note_off_c, 0, 77, 61
1, 164777, Note_off_c, 0, 68, 63
1, 164777, Note_off_c, 0, 99, 69
1, 164840, Note_on_c, 0, 77, 78
1, 164843, Note_on_c, 0, 99, 91
1, 164849, Note_on_c, 0, 87, 98
1, 164851, Note_on_c, 0, 68, 54
1, 164870, Note_off_c, 0, 68, 64
1, 164884, Note_off_c, 0, 77, 61
1, 164900, Note_off_c, 0, 87, 61
1, 164913, Note_off_c, 0, 99, 67
1, 164938, Control_c, 0, 64, 106
1, 164953, Control_c, 0, 64, 80
1, 164968, Control_c, 0, 64, 56
1, 164968, Note_on_c, 0, 78, 90
1, 164980, Note_on_c, 0, 100, 94
1, 164981, Note_on_c, 0, 69, 68
1, 164981, Note_on_c, 0, 88, 94
1, 164982, Control_c, 0, 64, 54
1, 164997, Control_c, 0, 64, 68
1, 165004, Note_off_c, 0, 78, 54
1, 165007, Note_on_c, 0, 97, 60
1, 165011, Note_off_c, 0, 69, 65
1, 165012, Control_c, 0, 64, 78
1, 165017, Note_off_c, 0, 88, 65
1, 165022, Note_off_c, 0, 100, 66
1, 165026, Note_off_c, 0, 97, 41
1, 165027, Control_c, 0, 64, 90
1, 165042, Control_c, 0, 64, 104
1, 165056, Control_c, 0, 64, 118
1, 165068, Note_on_c, 0, 78, 86
1, 165071, Control_c, 0, 64, 127
1, 165093, Note_on_c, 0, 69, 53
1, 165094, Note_on_c, 0, 99, 91
1, 165097, Note_on_c, 0, 87, 99
1, 165111, Note_on_c, 0, 97, 59
1, 165118, Note_off_c, 0, 69, 58
1, 165118, Note_off_c, 0, 78, 61
1, 165119, Note_off_c, 0, 87, 62
1, 165131, Note_off_c, 0, 97, 39
1, 165153, Note_off_c, 0, 99, 64
1, 165187, Note_on_c, 0, 70, 84
1, 165189, Note_on_c, 0, 79, 82
1, 165189, Note_on_c, 0, 97, 85
1, 165191, Note_on_c, 0, 85, 74
1, 165214, Note_off_c, 0, 85, 68
1, 165216, Note_on_c, 0, 87, 45
1, 165220, Note_off_c, 0, 79, 60
1, 165221, Note_off_c, 0, 70, 58
1, 165245, Note_off_c, 0, 97, 60
1, 165247, Note_off_c, 0, 87, 53
1, 165299, Note_on_c, 0, 95, 91
1, 165300, Note_on_c, 0, 79, 81
1, 165302, Note_on_c, 0, 83, 92
1, 165308, Note_on_c, 0, 70, 67
1, 165325, Note_off_c, 0, 83, 63
1, 165330, Note_off_c, 0, 70, 69
1, 165339, Note_off_c, 0, 79, 62
1, 165340, Note_off_c, 0, 95, 65
1, 165401, Note_on_c, 0, 82, 96
1, 165402, Note_on_c, 0, 77, 80
1, 165403, Note_on_c, 0, 94, 90
1, 165406, Note_on_c, 0, 74, 68
1, 165424, Note_off_c, 0, 82, 64
1, 165444, Note_off_c, 0, 77, 60
1, 165446, Note_off_c, 0, 94, 51
1, 165455, Note_off_c, 0, 74, 60
1, 165484, Note_on_c, 0, 74, 51
1, 165493, Note_on_c, 0, 77, 63
1, 165494, Note_on_c, 0, 92, 71
1, 165499, Note_on_c, 0, 80, 85
1, 165517, Note_off_c, 0, 77, 68
1, 165535, Note_off_c, 0, 74, 67
1, 165545, Note_off_c, 0, 80, 61
1, 165547, Note_off_c, 0, 92, 64
1, 165554, Control_c, 0, 64, 126
1, 165569, Control_c, 0, 64, 89
1, 165584, Control_c, 0, 64, 65
1, 165598, Control_c, 0, 64, 54
1, 165600, Note_on_c, 0, 70, 86
1, 165600, Note_on_c, 0, 79, 94
1, 165603, Note_on_c, 0, 75, 86
1, 165609, Note_on_c, 0, 91, 69
1, 165613, Control_c, 0, 64, 71
1, 165618, Note_on_c, 0, 89, 64
1, 165627, Note_off_c, 0, 75, 65
1, 165628, Control_c, 0, 64, 81
1, 165630, Note_off_c, 0, 79, 67
1, 165633, Note_on_c, 0, 87, 40
1, 165637, Note_off_c, 0, 91, 62
1, 165639, Note_off_c, 0, 89, 66
1, 165643, Control_c, 0, 64, 93
1, 165647, Note_off_c, 0, 70, 60
1, 165658, Control_c, 0, 64, 107
1, 165663, Note_off_c, 0, 87, 44
1, 165672, Control_c, 0, 64, 126
1, 165687, Control_c, 0, 64, 127
1, 165690, Note_on_c, 0, 70, 65
1, 165699, Note_on_c, 0, 75, 70
1, 165705, Note_on_c, 0, 78, 90
1, 165707, Note_on_c, 0, 90, 84
1, 165725, Note_off_c, 0, 75, 67
1, 165731, Note_off_c, 0, 78, 58
1, 165737, Note_off_c, 0, 70, 58
1, 165756, Note_off_c, 0, 90, 63
1, 165798, Note_on_c, 0, 77, 89
1, 165802, Note_on_c, 0, 68, 76
1, 165803, Note_on_c, 0, 71, 76
1, 165804, Note_on_c, 0, 89, 72
1, 165811, Poly_aftertouch_c, 0, 87, 0
1, 165824, Note_off_c, 0, 77, 62
1, 165825, Note_off_c, 0, 71, 69
1, 165828, Note_off_c, 0, 68, 68
1, 165830, Note_off_c, 0, 89, 68
1, 165845, Note_on_c, 0, 88, 9
1, 165846, Note_off_c, 0, 88, 127
1, 165894, Note_on_c, 0, 86, 79
1, 165895, Note_on_c, 0, 71, 76
1, 165895, Note_on_c, 0, 76, 87
1, 165906, Note_on_c, 0, 88, 55
1, 165906, Poly_aftertouch_c, 0, 85, 0
1, 165916, Note_off_c, 0, 86, 59
1, 165919, Note_off_c, 0, 76, 66
1, 165920, Note_off_c, 0, 71, 65
1, 165924, Note_off_c, 0, 88, 59
1, 165982, Note_on_c, 0, 69, 83
1, 165983, Note_on_c, 0, 86, 84
1, 165991, Note_on_c, 0, 76, 81
1, 166004, Note_off_c, 0, 69, 68
1, 166023, Note_off_c, 0, 76, 67
1, 166023, Note_off_c, 0, 86, 60
1, 166061, Poly_aftertouch_c, 0, 66, 127
1, 166065, Note_on_c, 0, 69, 79
1, 166075, Note_on_c, 0, 75, 93
1, 166078, Note_on_c, 0, 87, 85
1, 166084, Note_off_c, 0, 69, 70
1, 166109, Note_off_c, 0, 75, 62
1, 166114, Poly_aftertouch_c, 0, 66, 0
1, 166125, Control_c, 0, 64, 108
1, 166126, Note_off_c, 0, 87, 61
1, 166140, Control_c, 0, 64, 82
1, 166155, Control_c, 0, 64, 64
1, 166160, Note_on_c, 0, 67, 85
1, 166166, Note_on_c, 0, 70, 87
1, 166170, Note_on_c, 0, 76, 92
1, 166170, Note_on_c, 0, 88, 88
1, 166170, Control_c, 0, 64, 69
1, 166184, Control_c, 0, 64, 84
1, 166190, Note_off_c, 0, 70, 60
1, 166199, Control_c, 0, 64, 102
1, 166201, Note_on_c, 0, 82, 42
1, 166202, Note_off_c, 0, 67, 62
1, 166203, Note_off_c, 0, 76, 69
1, 166211, Note_off_c, 0, 88, 62
1, 166214, Control_c, 0, 64, 127
1, 166229, Note_off_c, 0, 82, 57
1, 166255, Note_on_c, 0, 70, 88
1, 166263, Note_on_c, 0, 67, 74
1, 166277, Note_on_c, 0, 87, 89
1, 166280, Note_on_c, 0, 75, 91
1, 166288, Note_off_c, 0, 67, 68
1, 166295, Note_off_c, 0, 70, 59
1, 166298, Note_off_c, 0, 75, 74
1, 166350, Note_off_c, 0, 87, 0
1, 166360, Note_on_c, 0, 67, 91
1, 166363, Note_on_c, 0, 64, 83
1, 166366, Note_on_c, 0, 75, 80
1, 166375, Poly_aftertouch_c, 0, 87, 0
1, 166378, Note_off_c, 0, 75, 74
1, 166381, Note_on_c, 0, 85, 7
1, 166382, Note_off_c, 0, 67, 68
1, 166396, Note_off_c, 0, 64, 60
1, 166428, Note_off_c, 0, 85, 46
1, 166452, Note_on_c, 0, 67, 87
1, 166459, Note_on_c, 0, 64, 65
1, 166463, Note_on_c, 0, 71, 94
1, 166464, Poly_aftertouch_c, 0, 86, 0
1, 166465, Note_on_c, 0, 83, 82
1, 166474, Note_off_c, 0, 67, 69
1, 166480, Note_off_c, 0, 71, 71
1, 166492, Note_on_c, 0, 80, 38
1, 166493, Note_off_c, 0, 64, 66
1, 166494, Note_off_c, 0, 83, 55
1, 166519, Note_off_c, 0, 80, 54
1, 166542, Note_on_c, 0, 65, 86
1, 166550, Note_on_c, 0, 62, 69
1, 166556, Note_on_c, 0, 70, 100
1, 166559, Note_on_c, 0, 82, 90
1, 166566, Note_off_c, 0, 65, 68
1, 166572, Note_off_c, 0, 70, 71
1, 166578, Note_off_c, 0, 82, 66
1, 166581, Note_off_c, 0, 62, 64
1, 166594, Note_on_c, 0, 80, 39
1, 166595, Note_off_c, 0, 80, 127
1, 166614, Poly_aftertouch_c, 0, 78, 0
1, 166630, Note_on_c, 0, 62, 74
1, 166634, Note_on_c, 0, 65, 79
1, 166643, Note_on_c, 0, 68, 97
1, 166643, Note_on_c, 0, 80, 66
1, 166652, Note_off_c, 0, 65, 74
1, 166678, Note_off_c, 0, 62, 62
1, 166691, Note_off_c, 0, 68, 60
1, 166691, Note_off_c, 0, 80, 62
1, 166703, Control_c, 0, 64, 99
1, 166725, Control_c, 0, 64, 72
1, 166738, Note_on_c, 0, 63, 101
1, 166740, Control_c, 0, 64, 55
1, 166742, Note_on_c, 0, 58, 83
1, 166742, Note_on_c, 0, 67, 98
1, 166746, Note_on_c, 0, 79, 82
1, 166756, Control_c, 0, 64, 71
1, 166771, Note_on_c, 0, 78, 7
1, 166771, Control_c, 0, 64, 83
1, 166777, Note_off_c, 0, 58, 61
1, 166779, Note_on_c, 0, 75, 41
1, 166780, Note_off_c, 0, 63, 63
1, 166782, Note_off_c, 0, 67, 65
1, 166786, Control_c, 0, 64, 100
1, 166796, Note_off_c, 0, 79, 59
1, 166800, Control_c, 0, 64, 127
1, 166806, Note_off_c, 0, 75, 50
1, 166819, Note_off_c, 0, 78, 34
1, 166829, Note_on_c, 0, 58, 77
1, 166837, Note_on_c, 0, 63, 75
1, 166841, Poly_aftertouch_c, 0, 73, 0
1, 166846, Note_on_c, 0, 78, 75
1, 166847, Note_on_c, 0, 66, 94
1, 166858, Note_off_c, 0, 63, 71
1, 166864, Note_off_c, 0, 58, 63
1, 166886, Note_off_c, 0, 66, 62
1, 166887, Poly_aftertouch_c, 0, 73, 0
1, 166897, Note_off_c, 0, 78, 63
1, 166937, Poly_aftertouch_c, 0, 75, 0
1, 166939, Note_on_c, 0, 59, 82
1, 166942, Note_on_c, 0, 65, 89
1, 166945, Note_on_c, 0, 77, 80
1, 166946, Note_on_c, 0, 56, 70
1, 166955, Poly_aftertouch_c, 0, 75, 0
1, 166960, Note_off_c, 0, 59, 69
1, 166970, Note_off_c, 0, 65, 66
1, 166972, Note_off_c, 0, 56, 66
1, 166975, Note_off_c, 0, 77, 57
1, 167036, Note_on_c, 0, 57, 75
1, 167049, Note_on_c, 0, 62, 74
1, 167051, Note_on_c, 0, 64, 76
1, 167052, Note_on_c, 0, 55, 52
1, 167057, Note_on_c, 0, 74, 56
1, 167057, Note_off_c, 0, 57, 66
1, 167061, Note_on_c, 0, 76, 60
1, 167072, Note_on_c, 0, 56, 9
1, 167076, Note_off_c, 0, 55, 59
1, 167076, Note_off_c, 0, 74, 66
1, 167077, Note_off_c, 0, 62, 64
1, 167077, Note_off_c, 0, 64, 69
1, 167079, Note_off_c, 0, 76, 66
1, 167106, Note_off_c, 0, 56, 0
1, 167115, Note_on_c, 0, 57, 78
1, 167124, Note_on_c, 0, 54, 72
1, 167126, Note_on_c, 0, 62, 89
1, 167136, Note_on_c, 0, 74, 82
1, 167141, Note_off_c, 0, 57, 64
1, 167152, Note_off_c, 0, 54, 63
1, 167156, Poly_aftertouch_c, 0, 56, 0
1, 167165, Note_off_c, 0, 62, 63
1, 167183, Note_off_c, 0, 74, 62
1, 167210, Note_on_c, 0, 54, 74
1, 167219, Note_on_c, 0, 63, 94
1, 167224, Note_on_c, 0, 57, 49
1, 167234, Note_on_c, 0, 75, 71
1, 167235, Note_off_c, 0, 54, 65
1, 167241, Note_off_c, 0, 57, 64
1, 167255, Note_off_c, 0, 63, 57
1, 167261, Note_off_c, 0, 75, 66
1, 167274, Control_c, 0, 64, 91
1, 167289, Control_c, 0, 64, 64
1, 167302, Note_on_c, 0, 55, 75
1, 167304, Note_on_c, 0, 58, 92
1, 167304, Control_c, 0, 64, 39
1, 167309, Note_on_c, 0, 56, 46
1, 167313, Note_on_c, 0, 64, 94
1, 167317, Note_on_c, 0, 76, 89
1, 167318, Control_c, 0, 64, 71
1, 167333, Control_c, 0, 64, 87
1, 167337, Note_off_c, 0, 56, 39
1, 167347, Note_off_c, 0, 55, 66
1, 167347, Note_off_c, 0, 58, 60
1, 167348, Control_c, 0, 64, 112
1, 167350, Note_off_c, 0, 64, 68
1, 167359, Note_off_c, 0, 76, 65
1, 167362, Note_on_c, 0, 70, 17
1, 167363, Control_c, 0, 64, 127
1, 167398, Poly_aftertouch_c, 0, 57, 0
1, 167401, Note_on_c, 0, 55, 82
1, 167404, Note_off_c, 0, 70, 45
1, 167406, Note_on_c, 0, 57, 63
1, 167412, Note_on_c, 0, 56, 62
1, 167419, Poly_aftertouch_c, 0, 73, 0
1, 167422, Note_on_c, 0, 63, 94
1, 167424, Note_on_c, 0, 75, 57
1, 167427, Note_on_c, 0, 73, 59
1, 167436, Note_off_c, 0, 56, 66
1, 167437, Note_off_c, 0, 57, 64
1, 167439, Note_off_c, 0, 63, 72
1, 167445, Note_off_c, 0, 55, 64
1, 167458, Note_off_c, 0, 75, 66
1, 167460, Note_off_c, 0, 73, 53
1, 167517, Note_on_c, 0, 61, 91
1, 167520, Note_on_c, 0, 55, 85
1, 167520, Note_on_c, 0, 73, 76
1, 167522, Note_on_c, 0, 52, 84
1, 167541, Note_off_c, 0, 55, 69
1, 167558, Note_off_c, 0, 61, 56
1, 167559, Note_off_c, 0, 52, 64
1, 167569, Note_off_c, 0, 73, 61
1, 167609, Poly_aftertouch_c, 0, 53, 127
1, 167618, Note_on_c, 0, 53, 33
1, 167620, Note_on_c, 0, 59, 95
1, 167625, Note_on_c, 0, 71, 74
1, 167627, Note_on_c, 0, 52, 72
1, 167627, Poly_aftertouch_c, 0, 70, 0
1, 167633, Note_on_c, 0, 50, 64
1, 167648, Note_off_c, 0, 59, 64
1, 167653, Note_off_c, 0, 53, 66
1, 167654, Note_off_c, 0, 52, 70
1, 167657, Note_off_c, 0, 71, 62
1, 167662, Note_off_c, 0, 50, 65
1, 167671, Note_on_c, 0, 66, 4
1, 167703, Note_off_c, 0, 66, 0
1, 167713, Note_on_c, 0, 53, 91
1, 167714, Note_on_c, 0, 58, 101
1, 167718, Note_on_c, 0, 50, 79
1, 167718, Note_on_c, 0, 70, 85
1, 167740, Note_off_c, 0, 58, 65
1, 167740, Note_off_c, 0, 53, 68
1, 167740, Poly_aftertouch_c, 0, 66, 127
1, 167741, Note_off_c, 0, 70, 64
1, 167742, Note_on_c, 0, 68, 51
1, 167755, Note_off_c, 0, 50, 55
1, 167767, Note_off_c, 0, 68, 60
1, 167783, Poly_aftertouch_c, 0, 66, 0
1, 167810, Note_on_c, 0, 56, 96
1, 167815, Note_on_c, 0, 48, 61
1, 167818, Note_on_c, 0, 53, 73
1, 167820, Note_on_c, 0, 50, 67
1, 167823, Note_on_c, 0, 52, 63
1, 167827, Note_on_c, 0, 68, 66
1, 167830, Note_off_c, 0, 53, 74
1, 167846, Note_off_c, 0, 50, 68
1, 167846, Note_off_c, 0, 52, 61
1, 167847, Note_off_c, 0, 48, 67
1, 167853, Note_off_c, 0, 68, 68
1, 167854, Note_off_c, 0, 56, 58
1, 167875, Control_c, 0, 64, 96
1, 167890, Control_c, 0, 64, 66
1, 167904, Control_c, 0, 64, 51
1, 167905, Note_on_c, 0, 51, 96
1, 167907, Note_on_c, 0, 46, 89
1, 167907, Note_on_c, 0, 55, 91
1, 167913, Note_on_c, 0, 67, 81
1, 167919, Control_c, 0, 64, 71
1, 167929, Note_on_c, 0, 44, 51
1, 167934, Control_c, 0, 64, 85
1, 167937, Note_on_c, 0, 63, 32
1, 167940, Note_off_c, 0, 51, 62
1, 167948, Note_on_c, 0, 61, 35
1, 167949, Control_c, 0, 64, 104
1, 167950, Note_off_c, 0, 46, 60
1, 167950, Note_off_c, 0, 55, 65
1, 167955, Note_off_c, 0, 67, 58
1, 167957, Note_off_c, 0, 44, 56
1, 167964, Note_off_c, 0, 63, 57
1, 167964, Control_c, 0, 64, 127
1, 167978, Note_off_c, 0, 61, 47
1, 167999, Note_on_c, 0, 46, 84
1, 168002, Poly_aftertouch_c, 0, 66, 0
1, 168016, Note_on_c, 0, 54, 93
1, 168018, Note_on_c, 0, 66, 68
1, 168024, Note_on_c, 0, 49, 59
1, 168038, Note_on_c, 0, 63, 64
1, 168039, Note_off_c, 0, 63, 127
1, 168047, Note_off_c, 0, 49, 58
1, 168052, Note_off_c, 0, 46, 63
1, 168062, Note_off_c, 0, 54, 61
1, 168074, Note_off_c, 0, 66, 65
1, 168116, Note_on_c, 0, 53, 90
1, 168120, Note_on_c, 0, 44, 66
1, 168120, Note_on_c, 0, 65, 82
1, 168122, Note_on_c, 0, 47, 94
1, 168146, Note_off_c, 0, 47, 69
1, 168150, Note_on_c, 0, 63, 33
1, 168157, Note_off_c, 0, 44, 58
1, 168158, Note_off_c, 0, 53, 66
1, 168166, Note_off_c, 0, 65, 63
1, 168173, Note_off_c, 0, 63, 57
1, 168232, Note_on_c, 0, 52, 95
1, 168235, Note_on_c, 0, 64, 74
1, 168235, Note_on_c, 0, 45, 78
1, 168258, Note_off_c, 0, 45, 68
1, 168263, Note_on_c, 0, 62, 50
1, 168270, Note_off_c, 0, 52, 68
1, 168275, Poly_aftertouch_c, 0, 61, 0
1, 168277, Note_on_c, 0, 43, 7
1, 168281, Note_off_c, 0, 64, 62
1, 168291, Note_off_c, 0, 62, 38
1, 168319, Note_on_c, 0, 45, 80
1, 168319, Note_off_c, 0, 43, 51
1, 168325, Note_on_c, 0, 42, 81
1, 168331, Note_on_c, 0, 62, 85
1, 168333, Note_on_c, 0, 50, 96
1, 168361, Note_off_c, 0, 45, 62
1, 168371, Note_off_c, 0, 50, 65
1, 168380, Note_off_c, 0, 62, 63
1, 168383, Note_off_c, 0, 42, 62
1, 168420, Note_on_c, 0, 42, 56
1, 168429, Note_on_c, 0, 45, 73
1, 168435, Note_on_c, 0, 51, 97
1, 168441, Note_on_c, 0, 63, 74
1, 168447, Note_on_c, 0, 61, 76
1, 168453, Note_off_c, 0, 45, 70
1, 168474, Note_off_c, 0, 61, 62
1, 168477, Note_off_c, 0, 42, 62
1, 168480, Note_off_c, 0, 51, 62
1, 168494, Note_off_c, 0, 63, 63
1, 168505, Control_c, 0, 64, 95
1, 168520, Control_c, 0, 64, 69
1, 168530, Note_on_c, 0, 46, 102
1, 168532, Note_on_c, 0, 43, 91
1, 168535, Control_c, 0, 64, 0
1, 168538, Note_on_c, 0, 52, 97
1, 168538, Note_on_c, 0, 64, 88
1, 168550, Control_c, 0, 64, 62
1, 168551, Note_on_c, 0, 44, 56
1, 168565, Control_c, 0, 64, 76
1, 168579, Control_c, 0, 64, 96
1, 168580, Note_off_c, 0, 44, 53
1, 168581, Note_on_c, 0, 61, 42
1, 168594, Control_c, 0, 64, 127
1, 168598, Note_off_c, 0, 52, 63
1, 168599, Poly_aftertouch_c, 0, 63, 127
1, 168604, Note_off_c, 0, 46, 61
1, 168605, Note_off_c, 0, 43, 61
1, 168607, Note_off_c, 0, 61, 52
1, 168613, Note_off_c, 0, 64, 63
1, 168636, Poly_aftertouch_c, 0, 63, 0
1, 168679, Note_on_c, 0, 46, 88
1, 168683, Note_on_c, 0, 43, 76
1, 168691, Note_on_c, 0, 63, 90
1, 168692, Note_on_c, 0, 52, 94
1, 168708, Note_on_c, 0, 61, 50
1, 168733, Note_off_c, 0, 46, 62
1, 168736, Note_off_c, 0, 61, 63
1, 168737, Note_off_c, 0, 52, 64
1, 168748, Note_off_c, 0, 43, 61
1, 168756, Note_off_c, 0, 63, 62
1, 168787, Poly_aftertouch_c, 0, 43, 0
1, 168792, Note_on_c, 0, 46, 89
1, 168794, Note_on_c, 0, 43, 72
1, 168804, Poly_aftertouch_c, 0, 58, 0
1, 168809, Note_on_c, 0, 61, 86
1, 168814, Note_on_c, 0, 52, 95
1, 168854, Note_off_c, 0, 46, 61
1, 168855, Note_off_c, 0, 43, 61
1, 168864, Note_off_c, 0, 52, 65
1, 168872, Note_off_c, 0, 61, 60
1, 168916, Note_on_c, 0, 46, 89
1, 168918, Note_on_c, 0, 43, 82
1, 168926, Note_on_c, 0, 59, 90
1, 168933, Note_on_c, 0, 52, 85
1, 168965, Note_on_c, 0, 44, 24
1, 168979, Note_on_c, 0, 53, 36
1, 169000, Note_off_c, 0, 52, 62
1, 169004, Note_off_c, 0, 43, 61
1, 169004, Note_off_c, 0, 46, 59
1, 169006, Note_off_c, 0, 53, 58
1, 169018, Note_off_c, 0, 44, 38
1, 169023, Note_off_c, 0, 59, 62
1, 169076, Control_c, 0, 64, 94
1, 169080, Note_on_c, 0, 47, 106
1, 169084, Note_on_c, 0, 53, 89
1, 169085, Note_on_c, 0, 58, 99
1, 169088, Note_on_c, 0, 38, 89
1, 169091, Control_c, 0, 64, 66
1, 169105, Control_c, 0, 64, 0
1, 169135, Control_c, 0, 64, 62
1, 169150, Control_c, 0, 64, 74
1, 169160, Note_off_c, 0, 53, 65
1, 169165, Control_c, 0, 64, 90
1, 169168, Note_off_c, 0, 38, 57
1, 169172, Note_off_c, 0, 47, 61
1, 169177, Note_off_c, 0, 58, 63
1, 169180, Control_c, 0, 64, 109
1, 169195, Control_c, 0, 64, 123
1, 169210, Control_c, 0, 64, 124
1, 169246, Note_on_c, 0, 56, 98
1, 169253, Note_on_c, 0, 47, 96
1, 169255, Note_on_c, 0, 53, 88
1, 169261, Note_on_c, 0, 38, 76
1, 169327, Note_off_c, 0, 53, 59
1, 169328, Control_c, 0, 64, 124
1, 169358, Control_c, 0, 64, 125
1, 169363, Note_off_c, 0, 47, 55
1, 169364, Note_off_c, 0, 38, 56
1, 169380, Note_off_c, 0, 56, 58
1, 169402, Control_c, 0, 64, 124
1, 169417, Control_c, 0, 64, 102
1, 169432, Control_c, 0, 64, 73
1, 169446, Control_c, 0, 64, 0
1, 169452, Note_on_c, 0, 46, 95
1, 169453, Note_on_c, 0, 55, 102
1, 169455, Note_on_c, 0, 39, 72
1, 169487, Note_on_c, 0, 57, 46
1, 169511, Note_off_c, 0, 57, 55
1, 169520, Control_c, 0, 64, 66
1, 169532, Note_off_c, 0, 46, 63
1, 169535, Control_c, 0, 64, 85
1, 169537, Note_off_c, 0, 39, 64
1, 169550, Control_c, 0, 64, 123
1, 169565, Control_c, 0, 64, 127
1, 169567, Note_off_c, 0, 55, 63
1, 169705, Note_on_c, 0, 50, 78
1, 169708, Note_on_c, 0, 62, 78
1, 169762, Note_off_c, 0, 50, 62
1, 169770, Note_off_c, 0, 62, 61
1, 169845, Note_on_c, 0, 50, 97
1, 169884, Note_off_c, 0, 50, 63
1, 169906, Note_on_c, 0, 63, 83
1, 169908, Note_on_c, 0, 51, 85
1, 169932, Note_off_c, 0, 51, 68
1, 169956, Note_off_c, 0, 63, 65
1, 169991, Note_on_c, 0, 51, 96
1, 170037, Note_off_c, 0, 51, 62
1, 170057, Note_on_c, 0, 57, 89
1, 170064, Note_on_c, 0, 69, 82
1, 170095, Note_off_c, 0, 57, 62
1, 170104, Note_off_c, 0, 69, 54
1, 170156, Note_on_c, 0, 57, 91
1, 170197, Note_off_c, 0, 57, 61
1, 170205, Note_on_c, 0, 70, 87
1, 170209, Note_on_c, 0, 58, 83
1, 170230, Note_off_c, 0, 58, 72
1, 170248, Note_off_c, 0, 70, 63
1, 170281, Note_on_c, 0, 58, 96
1, 170313, Poly_aftertouch_c, 0, 68, 0
1, 170329, Note_off_c, 0, 58, 63
1, 170343, Note_on_c, 0, 62, 86
1, 170346, Note_on_c, 0, 74, 79
1, 170376, Note_off_c, 0, 62, 62
1, 170393, Note_off_c, 0, 74, 63
1, 170435, Note_on_c, 0, 62, 90
1, 170451, Poly_aftertouch_c, 0, 70, 0
1, 170485, Note_on_c, 0, 63, 84
1, 170485, Note_off_c, 0, 62, 60
1, 170489, Note_on_c, 0, 75, 82
1, 170510, Note_off_c, 0, 63, 69
1, 170537, Note_off_c, 0, 75, 63
1, 170569, Note_on_c, 0, 63, 96
1, 170584, Poly_aftertouch_c, 0, 73, 0
1, 170611, Note_off_c, 0, 63, 61
1, 170620, Note_on_c, 0, 69, 87
1, 170626, Note_on_c, 0, 81, 82
1, 170657, Note_off_c, 0, 69, 65
1, 170667, Note_off_c, 0, 81, 57
1, 170718, Note_on_c, 0, 69, 89
1, 170729, Note_on_c, 0, 57, 71
1, 170745, Note_off_c, 0, 69, 64
1, 170755, Note_off_c, 0, 57, 65
1, 170763, Note_on_c, 0, 82, 87
1, 170765, Note_on_c, 0, 70, 85
1, 170788, Note_off_c, 0, 70, 70
1, 170812, Note_off_c, 0, 82, 64
1, 170840, Note_on_c, 0, 70, 93
1, 170845, Note_on_c, 0, 58, 77
1, 170875, Note_off_c, 0, 58, 67
1, 170883, Note_off_c, 0, 70, 61
1, 170900, Note_on_c, 0, 74, 80
1, 170905, Note_on_c, 0, 86, 77
1, 170933, Note_off_c, 0, 74, 65
1, 170945, Note_off_c, 0, 86, 61
1, 170993, Note_on_c, 0, 74, 90
1, 171013, Note_on_c, 0, 62, 59
1, 171019, Note_off_c, 0, 74, 67
1, 171035, Note_on_c, 0, 87, 86
1, 171036, Note_off_c, 0, 62, 57
1, 171037, Note_on_c, 0, 75, 84
1, 171061, Note_off_c, 0, 75, 72
1, 171080, Note_off_c, 0, 87, 64
1, 171115, Note_on_c, 0, 75, 95
1, 171115, Note_on_c, 0, 63, 77
1, 171148, Note_off_c, 0, 63, 65
1, 171157, Note_off_c, 0, 75, 62
1, 171180, Note_on_c, 0, 93, 85
1, 171180, Note_on_c, 0, 81, 82
1, 171217, Note_off_c, 0, 81, 62
1, 171229, Note_off_c, 0, 93, 65
1, 171274, Note_on_c, 0, 81, 91
1, 171289, Note_on_c, 0, 69, 69
1, 171300, Note_off_c, 0, 81, 64
1, 171306, Note_off_c, 0, 69, 67
1, 171326, Note_on_c, 0, 70, 7
1, 171329, Note_on_c, 0, 94, 89
1, 171333, Note_on_c, 0, 82, 79
1, 171353, Note_off_c, 0, 82, 71
1, 171359, Note_on_c, 0, 92, 43
1, 171360, Note_off_c, 0, 92, 127
1, 171370, Note_off_c, 0, 94, 67
1, 171391, Note_off_c, 0, 70, 0
1, 171401, Note_on_c, 0, 70, 67
1, 171404, Note_on_c, 0, 82, 101
1, 171444, Note_off_c, 0, 82, 62
1, 171452, Note_off_c, 0, 70, 62
1, 171475, Note_on_c, 0, 98, 84
1, 171483, Note_on_c, 0, 86, 77
1, 171508, Note_off_c, 0, 86, 65
1, 171529, Note_off_c, 0, 98, 65
1, 171565, Note_on_c, 0, 86, 96
1, 171579, Note_on_c, 0, 74, 61
1, 171594, Note_off_c, 0, 86, 66
1, 171596, Note_off_c, 0, 74, 64
1, 171625, Note_on_c, 0, 99, 92
1, 171681, Note_off_c, 0, 99, 66
1, 171702, Note_on_c, 0, 87, 103
1, 171704, Note_on_c, 0, 75, 74
1, 171735, Note_on_c, 0, 78, 46
1, 171754, Note_on_c, 0, 99, 81
1, 171759, Note_off_c, 0, 87, 61
1, 171760, Note_off_c, 0, 78, 55
1, 171765, Note_off_c, 0, 75, 64
1, 171810, Note_off_c, 0, 99, 67
1, 171811, Control_c, 0, 64, 116
1, 171826, Control_c, 0, 64, 82
1, 171840, Control_c, 0, 64, 0
1, 171858, Note_on_c, 0, 85, 95
1, 171860, Note_on_c, 0, 73, 85
1, 171870, Control_c, 0, 64, 59
1, 171885, Control_c, 0, 64, 70
1, 171896, Note_on_c, 0, 72, 46
1, 171900, Control_c, 0, 64, 85
1, 171906, Note_off_c, 0, 85, 66
1, 171910, Note_off_c, 0, 73, 61
1, 171914, Note_on_c, 0, 99, 87
1, 171914, Control_c, 0, 64, 105
1, 171919, Note_off_c, 0, 72, 59
1, 171920, Note_on_c, 0, 87, 81
1, 171929, Control_c, 0, 64, 127
1, 171951, Note_on_c, 0, 97, 35
1, 171952, Note_off_c, 0, 97, 127
1, 171953, Note_off_c, 0, 87, 56
1, 171985, Note_off_c, 0, 99, 67
1, 172024, Note_on_c, 0, 70, 87
1, 172024, Note_on_c, 0, 82, 95
1, 172067, Note_off_c, 0, 82, 62
1, 172074, Note_off_c, 0, 70, 62
1, 172102, Note_on_c, 0, 99, 87
1, 172110, Note_on_c, 0, 87, 74
1, 172134, Note_off_c, 0, 87, 67
1, 172148, Note_off_c, 0, 99, 63
1, 172175, Note_on_c, 0, 79, 97
1, 172197, Note_on_c, 0, 70, 58
1, 172200, Note_on_c, 0, 67, 53
1, 172210, Note_off_c, 0, 79, 57
1, 172213, Note_off_c, 0, 70, 65
1, 172223, Note_off_c, 0, 67, 59
1, 172253, Note_on_c, 0, 87, 81
1, 172253, Note_on_c, 0, 99, 89
1, 172285, Note_off_c, 0, 87, 58
1, 172301, Note_off_c, 0, 99, 66
1, 172319, Note_on_c, 0, 75, 97
1, 172323, Note_on_c, 0, 63, 88
1, 172361, Note_off_c, 0, 75, 65
1, 172361, Note_off_c, 0, 63, 61
1, 172407, Note_on_c, 0, 87, 79
1, 172407, Note_on_c, 0, 99, 87
1, 172438, Note_off_c, 0, 87, 60
1, 172459, Note_off_c, 0, 99, 66
1, 172471, Note_on_c, 0, 73, 98
1, 172474, Note_on_c, 0, 61, 93
1, 172512, Note_off_c, 0, 73, 64
1, 172519, Note_off_c, 0, 61, 59
1, 172568, Note_on_c, 0, 99, 81
1, 172570, Note_on_c, 0, 87, 74
1, 172596, Note_off_c, 0, 87, 62
1, 172600, Note_on_c, 0, 100, 43
1, 172611, Note_off_c, 0, 99, 60
1, 172627, Note_on_c, 0, 70, 102
1, 172630, Note_on_c, 0, 58, 89
1, 172630, Note_off_c, 0, 100, 35
1, 172662, Note_off_c, 0, 58, 59
1, 172662, Note_off_c, 0, 70, 66
1, 172724, Note_on_c, 0, 99, 93
1, 172725, Note_on_c, 0, 87, 83
1, 172746, Poly_aftertouch_c, 0, 57, 0
1, 172771, Note_off_c, 0, 87, 61
1, 172781, Note_off_c, 0, 99, 66
1, 172797, Note_on_c, 0, 67, 97
1, 172807, Note_on_c, 0, 55, 77
1, 172831, Note_off_c, 0, 67, 60
1, 172835, Note_off_c, 0, 55, 66
1, 172888, Note_on_c, 0, 99, 96
1, 172892, Note_on_c, 0, 87, 80
1, 172901, Poly_aftertouch_c, 0, 56, 0
1, 172932, Note_off_c, 0, 87, 60
1, 172947, Note_off_c, 0, 99, 66
1, 172958, Note_on_c, 0, 63, 104
1, 172963, Note_on_c, 0, 51, 92
1, 172999, Note_off_c, 0, 51, 59
1, 173003, Note_off_c, 0, 63, 64
1, 173055, Note_on_c, 0, 99, 91
1, 173058, Note_on_c, 0, 87, 87
1, 173101, Note_off_c, 0, 87, 62
1, 173111, Note_off_c, 0, 99, 66
1, 173124, Note_on_c, 0, 61, 103
1, 173127, Note_on_c, 0, 49, 94
1, 173169, Note_off_c, 0, 61, 62
1, 173175, Note_off_c, 0, 49, 58
1, 173225, Note_on_c, 0, 99, 95
1, 173229, Note_on_c, 0, 87, 88
1, 173271, Note_off_c, 0, 87, 63
1, 173282, Note_off_c, 0, 99, 66
1, 173287, Note_on_c, 0, 58, 98
1, 173291, Note_on_c, 0, 46, 92
1, 173331, Note_off_c, 0, 58, 63
1, 173345, Note_off_c, 0, 46, 61
1, 173393, Note_on_c, 0, 99, 97
1, 173395, Note_on_c, 0, 87, 97
1, 173445, Note_off_c, 0, 87, 62
1, 173456, Note_off_c, 0, 99, 66
1, 173492, Note_on_c, 0, 55, 96
1, 173501, Note_on_c, 0, 43, 79
1, 173532, Note_off_c, 0, 55, 62
1, 173541, Note_off_c, 0, 43, 59
1, 173570, Poly_aftertouch_c, 0, 44, 127
1, 173580, Note_on_c, 0, 99, 103
1, 173583, Note_on_c, 0, 87, 95
1, 173607, Poly_aftertouch_c, 0, 44, 0
1, 173645, Note_off_c, 0, 87, 59
1, 173652, Note_off_c, 0, 99, 66
1, 173686, Note_on_c, 0, 51, 97
1, 173691, Note_on_c, 0, 39, 90
1, 173797, Note_on_c, 0, 87, 101
1, 173797, Note_on_c, 0, 99, 101
1, 173822, Note_on_c, 0, 97, 59
1, 173823, Note_off_c, 0, 97, 127
1, 173843, Note_off_c, 0, 87, 62
1, 173848, Note_off_c, 0, 99, 68
1, 174003, Note_on_c, 0, 99, 104
1, 174006, Note_on_c, 0, 87, 97
1, 174042, Note_off_c, 0, 87, 64
1, 174050, Note_off_c, 0, 99, 66
1, 174053, Note_on_c, 0, 97, 13
1, 174085, Note_off_c, 0, 97, 32
1, 174135, Note_on_c, 0, 99, 97
1, 174144, Note_on_c, 0, 87, 82
1, 174162, Note_off_c, 0, 87, 72
1, 174178, Note_off_c, 0, 99, 68
1, 174261, Note_on_c, 0, 99, 74
1, 174263, Note_on_c, 0, 87, 75
1, 174276, Note_on_c, 0, 97, 54
1, 174277, Note_off_c, 0, 97, 127
1, 174284, Note_off_c, 0, 87, 70
1, 174287, Note_off_c, 0, 99, 71
1, 174361, Note_on_c, 0, 99, 81
1, 174369, Note_on_c, 0, 87, 79
1, 174383, Note_on_c, 0, 97, 43
1, 174387, Note_off_c, 0, 99, 65
1, 174389, Note_off_c, 0, 87, 64
1, 174410, Note_off_c, 0, 97, 48
1, 174458, Note_on_c, 0, 87, 65
1, 174459, Note_on_c, 0, 99, 80
1, 174483, Note_off_c, 0, 87, 66
1, 174488, Note_off_c, 0, 99, 66
1, 174558, Note_on_c, 0, 99, 78
1, 174566, Note_on_c, 0, 87, 70
1, 174582, Note_off_c, 0, 99, 71
1, 174583, Note_off_c, 0, 87, 66
1, 174654, Note_on_c, 0, 99, 88
1, 174656, Note_on_c, 0, 87, 82
1, 174671, Note_on_c, 0, 97, 56
1, 174678, Note_off_c, 0, 87, 63
1, 174690, Note_on_c, 0, 94, 33
1, 174691, Note_off_c, 0, 94, 127
1, 174691, Note_off_c, 0, 99, 66
1, 174692, Note_off_c, 0, 97, 62
1, 174757, Note_on_c, 0, 99, 80
1, 174761, Note_on_c, 0, 87, 80
1, 174780, Note_off_c, 0, 87, 71
1, 174781, Note_on_c, 0, 97, 42
1, 174790, Note_off_c, 0, 99, 65
1, 174810, Note_off_c, 0, 97, 39
1, 174857, Note_on_c, 0, 99, 79
1, 174859, Note_on_c, 0, 87, 79
1, 174878, Note_off_c, 0, 87, 71
1, 174881, Note_off_c, 0, 99, 69
1, 174951, Note_on_c, 0, 99, 79
1, 174962, Note_on_c, 0, 87, 80
1, 174983, Note_off_c, 0, 87, 67
1, 174988, Note_off_c, 0, 99, 65
1, 175003, Note_on_c, 0, 97, 9
1, 175023, Note_off_c, 0, 97, 45
1, 175053, Note_on_c, 0, 99, 78
1, 175058, Note_on_c, 0, 87, 80
1, 175081, Note_off_c, 0, 87, 66
1, 175085, Note_off_c, 0, 99, 63
1, 175162, Note_on_c, 0, 99, 73
1, 175171, Note_on_c, 0, 87, 61
1, 175187, Note_off_c, 0, 99, 71
1, 175187, Note_off_c, 0, 87, 62
1, 175203, Note_off_c, 0, 39, 61
1, 175231, Note_off_c, 0, 51, 60
1, 175253, Note_on_c, 0, 99, 83
1, 175256, Note_on_c, 0, 87, 76
1, 175276, Note_off_c, 0, 99, 70
1, 175276, Note_off_c, 0, 87, 69
1, 175357, Note_on_c, 0, 87, 76
1, 175358, Note_on_c, 0, 99, 74
1, 175378, Note_off_c, 0, 87, 67
1, 175385, Note_off_c, 0, 99, 67
1, 175452, Note_on_c, 0, 87, 84
1, 175452, Note_on_c, 0, 99, 77
1, 175472, Note_off_c, 0, 87, 65
1, 175479, Note_off_c, 0, 99, 68
1, 175557, Note_on_c, 0, 99, 76
1, 175558, Note_on_c, 0, 87, 78
1, 175580, Note_off_c, 0, 99, 72
1, 175583, Note_off_c, 0, 87, 65
1, 175583, Note_on_c, 0, 97, 39
1, 175613, Note_off_c, 0, 97, 34
1, 175648, Note_on_c, 0, 63, 93
1, 175655, Note_on_c, 0, 87, 89
1, 175656, Note_on_c, 0, 99, 74
1, 175682, Note_off_c, 0, 87, 56
1, 175688, Note_on_c, 0, 97, 36
1, 175695, Note_off_c, 0, 99, 65
1, 175727, Note_off_c, 0, 97, 37
1, 175733, Note_off_c, 0, 63, 60
1, 175773, Note_on_c, 0, 87, 73
1, 175775, Note_on_c, 0, 99, 66
1, 175798, Note_off_c, 0, 87, 65
1, 175813, Note_off_c, 0, 99, 65
1, 175888, Note_on_c, 0, 75, 99
1, 175899, Note_on_c, 0, 87, 98
1, 175899, Note_on_c, 0, 99, 93
1, 175920, Note_off_c, 0, 75, 70
1, 175922, Note_on_c, 0, 97, 51
1, 175923, Note_off_c, 0, 97, 127
1, 175933, Note_off_c, 0, 87, 64
1, 175947, Note_on_c, 0, 92, 16
1, 175948, Note_off_c, 0, 92, 127
1, 175948, Note_off_c, 0, 99, 64
1, 176032, Note_on_c, 0, 99, 79
1, 176033, Note_on_c, 0, 87, 82
1, 176054, Note_off_c, 0, 87, 67
1, 176063, Note_off_c, 0, 99, 61
1, 176138, Note_on_c, 0, 99, 79
1, 176138, Note_on_c, 0, 87, 75
1, 176164, Note_off_c, 0, 87, 63
1, 176165, Note_off_c, 0, 99, 64
1, 176241, Note_on_c, 0, 99, 81
1, 176242, Note_on_c, 0, 87, 83
1, 176269, Note_on_c, 0, 97, 36
1, 176269, Note_off_c, 0, 99, 65
1, 176270, Note_off_c, 0, 87, 63
1, 176301, Note_off_c, 0, 97, 33
1, 176350, Note_on_c, 0, 85, 86
1, 176355, Note_on_c, 0, 97, 89
1, 176381, Note_off_c, 0, 85, 57
1, 176386, Note_on_c, 0, 94, 29
1, 176390, Note_off_c, 0, 97, 61
1, 176419, Note_off_c, 0, 94, 37
1, 176464, Note_on_c, 0, 97, 79
1, 176466, Note_on_c, 0, 85, 76
1, 176511, Note_off_c, 0, 85, 61
1, 176521, Note_off_c, 0, 97, 64
1, 176563, Control_c, 0, 64, 89
1, 176569, Note_on_c, 0, 32, 83
1, 176569, Note_on_c, 0, 44, 96
1, 176578, Control_c, 0, 64, 64
1, 176583, Note_on_c, 0, 83, 93
1, 176585, Note_on_c, 0, 95, 94
1, 176593, Control_c, 0, 64, 56
1, 176607, Note_off_c, 0, 32, 65
1, 176608, Control_c, 0, 64, 70
1, 176617, Note_on_c, 0, 94, 48
1, 176621, Note_on_c, 0, 92, 40
1, 176623, Control_c, 0, 64, 81
1, 176624, Note_off_c, 0, 83, 61
1, 176630, Note_off_c, 0, 44, 64
1, 176635, Note_off_c, 0, 95, 66
1, 176637, Control_c, 0, 64, 95
1, 176638, Note_off_c, 0, 94, 48
1, 176650, Note_off_c, 0, 92, 34
1, 176652, Control_c, 0, 64, 110
1, 176667, Control_c, 0, 64, 125
1, 176682, Control_c, 0, 64, 127
1, 176735, Note_on_c, 0, 83, 77
1, 176742, Note_on_c, 0, 95, 71
1, 176756, Note_off_c, 0, 83, 66
1, 176768, Note_off_c, 0, 95, 68
1, 176835, Note_on_c, 0, 63, 68
1, 176837, Note_on_c, 0, 59, 57
1, 176844, Note_on_c, 0, 83, 84
1, 176846, Note_on_c, 0, 51, 51
1, 176847, Note_on_c, 0, 95, 74
1, 176859, Note_off_c, 0, 63, 67
1, 176872, Note_off_c, 0, 83, 57
1, 176877, Note_off_c, 0, 59, 59
1, 176878, Note_off_c, 0, 51, 50
1, 176886, Note_off_c, 0, 95, 60
1, 176928, Note_on_c, 0, 95, 63
1, 176928, Note_on_c, 0, 63, 87
1, 176957, Note_on_c, 0, 59, 46
1, 176966, Note_on_c, 0, 83, 31
1, 176966, Note_off_c, 0, 63, 59
1, 176973, Note_off_c, 0, 95, 64
1, 176988, Note_off_c, 0, 59, 50
1, 176998, Note_on_c, 0, 63, 62
1, 176998, Note_off_c, 0, 83, 37
1, 177001, Note_on_c, 0, 56, 81
1, 177019, Note_on_c, 0, 82, 99
1, 177019, Note_on_c, 0, 94, 78
1, 177023, Note_off_c, 0, 63, 68
1, 177046, Note_on_c, 0, 92, 34
1, 177056, Note_off_c, 0, 56, 64
1, 177065, Note_off_c, 0, 82, 62
1, 177080, Note_off_c, 0, 92, 38
1, 177100, Note_off_c, 0, 94, 0
1, 177115, Note_on_c, 0, 82, 76
1, 177115, Note_on_c, 0, 94, 46
1, 177154, Note_off_c, 0, 82, 65
1, 177163, Note_off_c, 0, 94, 63
1, 177186, Control_c, 0, 64, 110
1, 177208, Control_c, 0, 64, 80
1, 177223, Note_on_c, 0, 47, 99
1, 177223, Control_c, 0, 64, 0
1, 177229, Note_on_c, 0, 92, 85
1, 177232, Note_on_c, 0, 80, 90
1, 177237, Note_on_c, 0, 35, 76
1, 177253, Control_c, 0, 64, 32
1, 177258, Note_on_c, 0, 90, 51
1, 177259, Note_off_c, 0, 90, 127
1, 177262, Note_off_c, 0, 47, 62
1, 177263, Note_off_c, 0, 35, 66
1, 177267, Control_c, 0, 64, 69
1, 177269, Note_off_c, 0, 80, 64
1, 177282, Control_c, 0, 64, 82
1, 177285, Note_off_c, 0, 92, 59
1, 177298, Control_c, 0, 64, 100
1, 177313, Control_c, 0, 64, 118
1, 177328, Control_c, 0, 64, 126
1, 177342, Control_c, 0, 64, 127
1, 177348, Note_on_c, 0, 80, 77
1, 177353, Note_on_c, 0, 92, 54
1, 177376, Note_off_c, 0, 92, 59
1, 177378, Note_off_c, 0, 80, 56
1, 177432, Note_on_c, 0, 63, 82
1, 177443, Note_on_c, 0, 59, 58
1, 177443, Note_on_c, 0, 79, 80
1, 177446, Note_on_c, 0, 51, 58
1, 177447, Note_on_c, 0, 91, 77
1, 177455, Note_off_c, 0, 63, 68
1, 177476, Note_off_c, 0, 51, 54
1, 177479, Note_off_c, 0, 59, 60
1, 177490, Note_off_c, 0, 79, 60
1, 177493, Note_off_c, 0, 91, 60
1, 177545, Note_on_c, 0, 63, 84
1, 177545, Note_on_c, 0, 91, 68
1, 177554, Note_on_c, 0, 79, 69
1, 177565, Note_off_c, 0, 63, 65
1, 177567, Note_on_c, 0, 59, 46
1, 177574, Note_off_c, 0, 79, 70
1, 177584, Note_off_c, 0, 91, 59
1, 177589, Note_off_c, 0, 59, 58
1, 177622, Note_on_c, 0, 56, 81
1, 177632, Note_on_c, 0, 80, 93
1, 177643, Note_on_c, 0, 92, 77
1, 177651, Note_on_c, 0, 90, 70
1, 177653, Note_on_c, 0, 63, 22
1, 177667, Note_off_c, 0, 90, 66
1, 177670, Note_off_c, 0, 56, 64
1, 177673, Note_off_c, 0, 80, 62
1, 177679, Note_off_c, 0, 92, 57
1, 177687, Note_off_c, 0, 63, 47
1, 177738, Note_on_c, 0, 92, 69
1, 177741, Note_on_c, 0, 80, 69
1, 177765, Note_off_c, 0, 92, 66
1, 177766, Note_off_c, 0, 80, 69
1, 177786, Control_c, 0, 64, 114
1, 177801, Control_c, 0, 64, 81
1, 177816, Control_c, 0, 64, 0
1, 177819, Note_on_c, 0, 51, 101
1, 177825, Note_on_c, 0, 39, 86
1, 177829, Note_on_c, 0, 82, 98
1, 177831, Note_on_c, 0, 94, 91
1, 177846, Control_c, 0, 64, 63
1, 177849, Note_off_c, 0, 51, 62
1, 177850, Note_off_c, 0, 39, 65
1, 177861, Control_c, 0, 64, 75
1, 177861, Note_off_c, 0, 82, 65
1, 177873, Note_off_c, 0, 94, 64
1, 177876, Control_c, 0, 64, 93
1, 177890, Control_c, 0, 64, 126
1, 177905, Control_c, 0, 64, 127
1, 177934, Note_on_c, 0, 82, 88
1, 177938, Note_on_c, 0, 94, 71
1, 177962, Note_off_c, 0, 82, 69
1, 177968, Note_off_c, 0, 94, 70
1, 178039, Note_on_c, 0, 58, 77
1, 178039, Note_on_c, 0, 67, 82
1, 178046, Note_on_c, 0, 63, 69
1, 178051, Note_on_c, 0, 75, 97
1, 178057, Note_on_c, 0, 87, 77
1, 178065, Note_off_c, 0, 67, 64
1, 178072, Note_off_c, 0, 75, 67
1, 178072, Note_off_c, 0, 63, 68
1, 178077, Note_off_c, 0, 58, 59
1, 178081, Note_off_c, 0, 87, 61
1, 178081, Note_on_c, 0, 80, 39
1, 178082, Note_off_c, 0, 80, 127
1, 178147, Note_on_c, 0, 75, 88
1, 178147, Note_on_c, 0, 87, 77
1, 178154, Note_on_c, 0, 67, 72
1, 178156, Note_on_c, 0, 58, 56
1, 178158, Note_on_c, 0, 63, 54
1, 178177, Note_off_c, 0, 67, 70
1, 178181, Note_off_c, 0, 75, 60
1, 178181, Note_off_c, 0, 63, 58
1, 178186, Note_off_c, 0, 58, 53
1, 178193, Note_off_c, 0, 87, 61
1, 178233, Note_on_c, 0, 58, 76
1, 178236, Note_on_c, 0, 67, 55
1, 178239, Note_on_c, 0, 63, 63
1, 178248, Note_on_c, 0, 75, 85
1, 178251, Note_on_c, 0, 87, 74
1, 178252, Note_off_c, 0, 67, 66
1, 178269, Note_off_c, 0, 63, 66
1, 178281, Note_off_c, 0, 58, 62
1, 178305, Note_off_c, 0, 75, 56
1, 178337, Note_on_c, 0, 75, 40
1, 178371, Poly_aftertouch_c, 0, 85, 0
1, 178382, Note_off_c, 0, 75, 65
1, 178388, Note_off_c, 0, 87, 61
1, 178401, Control_c, 0, 64, 114
1, 178416, Control_c, 0, 64, 77
1, 178431, Control_c, 0, 64, 0
1, 178436, Note_on_c, 0, 55, 96
1, 178442, Note_on_c, 0, 76, 91
1, 178442, Note_on_c, 0, 88, 85
1, 178446, Control_c, 0, 64, 51
1, 178454, Note_on_c, 0, 43, 62
1, 178461, Control_c, 0, 64, 72
1, 178467, Note_off_c, 0, 55, 66
1, 178475, Control_c, 0, 64, 87
1, 178476, Note_on_c, 0, 46, 28
1, 178477, Note_off_c, 0, 46, 127
1, 178477, Note_off_c, 0, 76, 68
1, 178479, Note_off_c, 0, 43, 57
1, 178483, Note_on_c, 0, 44, 16
1, 178490, Control_c, 0, 64, 108
1, 178504, Note_off_c, 0, 88, 58
1, 178505, Control_c, 0, 64, 127
1, 178516, Poly_aftertouch_c, 0, 46, 0
1, 178530, Note_off_c, 0, 44, 43
1, 178543, Note_on_c, 0, 88, 57
1, 178577, Note_on_c, 0, 76, 48
1, 178592, Note_off_c, 0, 88, 61
1, 178597, Note_off_c, 0, 76, 62
1, 178651, Note_on_c, 0, 70, 96
1, 178652, Note_on_c, 0, 75, 84
1, 178654, Note_on_c, 0, 63, 71
1, 178657, Note_on_c, 0, 87, 76
1, 178672, Note_off_c, 0, 75, 70
1, 178678, Note_off_c, 0, 70, 61
1, 178679, Note_off_c, 0, 87, 67
1, 178682, Note_off_c, 0, 63, 55
1, 178690, Note_on_c, 0, 61, 16
1, 178736, Note_off_c, 0, 61, 0
1, 178753, Note_on_c, 0, 75, 81
1, 178758, Note_on_c, 0, 70, 89
1, 178764, Note_on_c, 0, 63, 71
1, 178767, Note_on_c, 0, 87, 63
1, 178773, Poly_aftertouch_c, 0, 61, 127
1, 178775, Note_off_c, 0, 70, 69
1, 178776, Note_off_c, 0, 75, 70
1, 178785, Note_off_c, 0, 87, 63
1, 178800, Note_off_c, 0, 63, 64
1, 178812, Poly_aftertouch_c, 0, 61, 0
1, 178830, Note_on_c, 0, 61, 27
1, 178833, Note_on_c, 0, 70, 86
1, 178834, Note_on_c, 0, 63, 78
1, 178845, Note_on_c, 0, 73, 90
1, 178846, Note_on_c, 0, 85, 75
1, 178853, Note_off_c, 0, 70, 71
1, 178875, Note_off_c, 0, 61, 64
1, 178883, Note_off_c, 0, 63, 63
1, 178891, Note_off_c, 0, 73, 60
1, 178897, Note_off_c, 0, 85, 61
1, 178943, Note_on_c, 0, 73, 74
1, 178955, Note_on_c, 0, 85, 57
1, 178975, Note_off_c, 0, 85, 65
1, 178990, Note_off_c, 0, 73, 63
1, 179017, Control_c, 0, 64, 113
1, 179032, Control_c, 0, 64, 81
1, 179047, Control_c, 0, 64, 35
1, 179049, Note_on_c, 0, 56, 94
1, 179057, Note_on_c, 0, 44, 82
1, 179061, Note_on_c, 0, 71, 89
1, 179061, Note_on_c, 0, 83, 83
1, 179062, Control_c, 0, 64, 38
1, 179077, Control_c, 0, 64, 70
1, 179082, Note_off_c, 0, 44, 68
1, 179091, Note_off_c, 0, 56, 61
1, 179092, Control_c, 0, 64, 83
1, 179100, Note_off_c, 0, 71, 63
1, 179106, Control_c, 0, 64, 99
1, 179113, Note_off_c, 0, 83, 62
1, 179121, Control_c, 0, 64, 116
1, 179136, Control_c, 0, 64, 127
1, 179189, Note_on_c, 0, 83, 71
1, 179192, Note_on_c, 0, 71, 77
1, 179214, Note_off_c, 0, 71, 66
1, 179214, Note_off_c, 0, 83, 63
1, 179273, Note_on_c, 0, 63, 72
1, 179281, Note_on_c, 0, 68, 72
1, 179285, Note_on_c, 0, 71, 76
1, 179288, Note_on_c, 0, 83, 76
1, 179299, Note_off_c, 0, 63, 65
1, 179306, Note_off_c, 0, 68, 66
1, 179312, Note_off_c, 0, 71, 64
1, 179316, Note_off_c, 0, 83, 57
1, 179357, Note_on_c, 0, 68, 87
1, 179359, Note_on_c, 0, 63, 76
1, 179363, Note_on_c, 0, 59, 59
1, 179381, Note_off_c, 0, 63, 68
1, 179381, Note_off_c, 0, 68, 68
1, 179382, Note_on_c, 0, 70, 87
1, 179396, Note_on_c, 0, 82, 57
1, 179402, Note_off_c, 0, 70, 72
1, 179417, Note_off_c, 0, 82, 61
1, 179432, Note_on_c, 0, 63, 85
1, 179471, Note_on_c, 0, 70, 100
1, 179473, Note_off_c, 0, 63, 61
1, 179476, Note_on_c, 0, 82, 86
1, 179484, Note_off_c, 0, 59, 63
1, 179488, Note_on_c, 0, 80, 70
1, 179515, Note_off_c, 0, 80, 65
1, 179522, Note_off_c, 0, 70, 62
1, 179539, Note_off_c, 0, 82, 58
1, 179584, Note_on_c, 0, 70, 84
1, 179589, Note_on_c, 0, 82, 59
1, 179604, Note_on_c, 0, 80, 58
1, 179622, Note_off_c, 0, 70, 63
1, 179625, Note_off_c, 0, 80, 62
1, 179631, Note_off_c, 0, 82, 58
1, 179648, Control_c, 0, 64, 91
1, 179662, Note_on_c, 0, 40, 101
1, 179662, Control_c, 0, 64, 0
1, 179688, Note_on_c, 0, 80, 85
1, 179691, Note_on_c, 0, 68, 87
1, 179692, Control_c, 0, 64, 21
1, 179707, Control_c, 0, 64, 65
1, 179720, Note_off_c, 0, 40, 62
1, 179722, Control_c, 0, 64, 76
1, 179734, Note_off_c, 0, 68, 61
1, 179736, Control_c, 0, 64, 93
1, 179749, Note_off_c, 0, 80, 59
1, 179751, Control_c, 0, 64, 111
1, 179766, Control_c, 0, 64, 116
1, 179780, Control_c, 0, 64, 117
1, 179795, Control_c, 0, 64, 117
1, 179800, Poly_aftertouch_c, 0, 70, 0
1, 179810, Control_c, 0, 64, 118
1, 179814, Note_on_c, 0, 68, 74
1, 179825, Control_c, 0, 64, 120
1, 179834, Note_off_c, 0, 68, 73
1, 179840, Note_on_c, 0, 80, 20
1, 179840, Control_c, 0, 64, 121
1, 179855, Control_c, 0, 64, 123
1, 179868, Note_on_c, 0, 58, 86
1, 179870, Control_c, 0, 64, 126
1, 179873, Note_on_c, 0, 62, 81
1, 179877, Note_off_c, 0, 80, 52
1, 179885, Control_c, 0, 64, 127
1, 179899, Note_off_c, 0, 58, 55
1, 179901, Note_off_c, 0, 62, 64
1, 179903, Note_on_c, 0, 67, 79
1, 179908, Note_on_c, 0, 79, 76
1, 179949, Note_off_c, 0, 67, 60
1, 180006, Note_on_c, 0, 67, 66
1, 180007, Note_on_c, 0, 58, 44
1, 180032, Note_off_c, 0, 67, 63
1, 180036, Note_on_c, 0, 62, 46
1, 180038, Note_off_c, 0, 79, 63
1, 180040, Note_off_c, 0, 58, 0
1, 180049, Note_on_c, 0, 58, 69
1, 180077, Note_off_c, 0, 62, 63
1, 180082, Note_on_c, 0, 68, 92
1, 180082, Note_on_c, 0, 80, 82
1, 180096, Note_on_c, 0, 78, 71
1, 180099, Note_off_c, 0, 58, 65
1, 180113, Note_off_c, 0, 78, 66
1, 180129, Note_off_c, 0, 68, 59
1, 180139, Note_off_c, 0, 80, 55
1, 180184, Note_on_c, 0, 68, 64
1, 180185, Note_on_c, 0, 80, 55
1, 180211, Note_on_c, 0, 78, 49
1, 180217, Note_off_c, 0, 68, 70
1, 180227, Note_off_c, 0, 80, 63
1, 180233, Control_c, 0, 64, 107
1, 180233, Note_off_c, 0, 78, 53
1, 180248, Control_c, 0, 64, 77
1, 180262, Control_c, 0, 64, 0
1, 180278, Note_on_c, 0, 39, 94
1, 180284, Note_on_c, 0, 70, 91
1, 180284, Note_on_c, 0, 82, 90
1, 180292, Control_c, 0, 64, 40
1, 180306, Control_c, 0, 64, 69
1, 180311, Note_off_c, 0, 39, 61
1, 180316, Note_off_c, 0, 70, 65
1, 180321, Control_c, 0, 64, 89
1, 180336, Note_off_c, 0, 82, 60
1, 180338, Control_c, 0, 64, 119
1, 180352, Control_c, 0, 64, 127
1, 180385, Note_on_c, 0, 70, 82
1, 180401, Note_on_c, 0, 82, 27
1, 180403, Note_off_c, 0, 70, 72
1, 180439, Note_off_c, 0, 82, 45
1, 180487, Note_on_c, 0, 56, 51
1, 180488, Note_on_c, 0, 58, 45
1, 180489, Note_off_c, 0, 58, 127
1, 180489, Note_on_c, 0, 63, 92
1, 180494, Note_on_c, 0, 75, 71
1, 180508, Note_off_c, 0, 63, 70
1, 180512, Note_off_c, 0, 56, 59
1, 180525, Note_off_c, 0, 75, 63
1, 180544, Poly_aftertouch_c, 0, 55, 127
1, 180576, Note_on_c, 0, 54, 47
1, 180577, Note_on_c, 0, 63, 78
1, 180582, Note_on_c, 0, 58, 73
1, 180583, Note_on_c, 0, 75, 70
1, 180586, Poly_aftertouch_c, 0, 57, 0
1, 180602, Note_off_c, 0, 63, 69
1, 180603, Note_off_c, 0, 54, 55
1, 180607, Note_off_c, 0, 58, 69
1, 180612, Note_off_c, 0, 75, 68
1, 180632, Poly_aftertouch_c, 0, 73, 0
1, 180636, Poly_aftertouch_c, 0, 55, 0
1, 180653, Note_on_c, 0, 55, 44
1, 180653, Poly_aftertouch_c, 0, 56, 127
1, 180660, Note_on_c, 0, 58, 89
1, 180663, Note_on_c, 0, 63, 91
1, 180690, Note_on_c, 0, 87, 96
1, 180692, Note_on_c, 0, 75, 90
1, 180701, Note_off_c, 0, 63, 65
1, 180707, Note_off_c, 0, 55, 65
1, 180709, Note_off_c, 0, 58, 60
1, 180715, Poly_aftertouch_c, 0, 56, 0
1, 180715, Note_off_c, 0, 75, 67
1, 180720, Note_on_c, 0, 85, 35
1, 180728, Note_off_c, 0, 87, 57
1, 180752, Note_off_c, 0, 85, 53
1, 180788, Note_on_c, 0, 75, 82
1, 180824, Note_off_c, 0, 75, 62
1, 180826, Note_on_c, 0, 87, 35
1, 180832, Note_on_c, 0, 86, 30
1, 180854, Note_off_c, 0, 87, 45
1, 180866, Note_off_c, 0, 86, 44
1, 180905, Note_on_c, 0, 75, 93
1, 180911, Note_on_c, 0, 70, 65
1, 180918, Note_on_c, 0, 87, 102
1, 180919, Note_on_c, 0, 67, 61
1, 180924, Note_on_c, 0, 99, 93
1, 180925, Note_on_c, 0, 71, 65
1, 180926, Note_on_c, 0, 97, 88
1, 180938, Note_off_c, 0, 75, 67
1, 180942, Note_on_c, 0, 68, 40
1, 180943, Note_off_c, 0, 99, 73
1, 180943, Note_off_c, 0, 97, 73
1, 180957, Note_off_c, 0, 67, 65
1, 180961, Note_off_c, 0, 71, 66
1, 180961, Note_off_c, 0, 70, 48
1, 180961, Note_off_c, 0, 87, 65
1, 180975, Note_on_c, 0, 92, 21
1, 180982, Note_off_c, 0, 68, 54
1, 181011, Note_off_c, 0, 92, 34
1, 181053, Note_on_c, 0, 99, 94
1, 181058, Note_on_c, 0, 87, 84
1, 181086, Note_off_c, 0, 87, 58
1, 181104, Note_off_c, 0, 99, 66
1, 181152, Note_on_c, 0, 99, 82
1, 181159, Note_on_c, 0, 87, 80
1, 181206, Note_off_c, 0, 87, 61
1, 181214, Note_off_c, 0, 99, 68
1, 181264, Note_on_c, 0, 99, 78
1, 181265, Note_on_c, 0, 87, 75
1, 181306, Note_off_c, 0, 87, 64
1, 181316, Note_off_c, 0, 99, 66
1, 181378, Note_on_c, 0, 85, 86
1, 181379, Note_on_c, 0, 97, 91
1, 181423, Note_off_c, 0, 85, 59
1, 181425, Note_off_c, 0, 97, 62
1, 181485, Note_on_c, 0, 85, 68
1, 181492, Note_on_c, 0, 97, 69
1, 181534, Note_off_c, 0, 97, 62
1, 181537, Note_off_c, 0, 85, 64
1, 181560, Control_c, 0, 64, 86
1, 181575, Control_c, 0, 64, 0
1, 181585, Note_on_c, 0, 32, 80
1, 181588, Note_on_c, 0, 44, 99
1, 181603, Note_on_c, 0, 84, 96
1, 181605, Control_c, 0, 64, 53
1, 181607, Note_on_c, 0, 96, 93
1, 181620, Control_c, 0, 64, 71
1, 181620, Note_off_c, 0, 32, 65
1, 181634, Control_c, 0, 64, 87
1, 181640, Note_off_c, 0, 44, 63
1, 181647, Note_off_c, 0, 84, 66
1, 181649, Control_c, 0, 64, 116
1, 181651, Note_on_c, 0, 94, 24
1, 181652, Note_off_c, 0, 94, 127
1, 181660, Note_off_c, 0, 96, 64
1, 181664, Control_c, 0, 64, 127
1, 181760, Note_on_c, 0, 84, 75
1, 181778, Note_on_c, 0, 96, 60
1, 181784, Note_off_c, 0, 84, 67
1, 181795, Note_off_c, 0, 96, 59
1, 181864, Note_on_c, 0, 63, 77
1, 181866, Note_on_c, 0, 54, 59
1, 181870, Note_on_c, 0, 96, 72
1, 181875, Note_on_c, 0, 84, 78
1, 181883, Note_on_c, 0, 57, 50
1, 181888, Note_off_c, 0, 63, 68
1, 181900, Note_off_c, 0, 84, 65
1, 181902, Note_off_c, 0, 54, 61
1, 181910, Note_off_c, 0, 57, 63
1, 181921, Note_off_c, 0, 96, 53
1, 181957, Note_on_c, 0, 96, 54
1, 181964, Note_on_c, 0, 63, 81
1, 181967, Note_on_c, 0, 84, 79
1, 181980, Note_on_c, 0, 57, 60
1, 181983, Note_off_c, 0, 63, 71
1, 181987, Note_off_c, 0, 84, 70
1, 181990, Note_off_c, 0, 96, 64
1, 182008, Note_off_c, 0, 57, 64
1, 182035, Note_on_c, 0, 54, 10
1, 182037, Note_on_c, 0, 63, 86
1, 182058, Note_off_c, 0, 63, 71
1, 182062, Note_on_c, 0, 81, 90
1, 182064, Note_on_c, 0, 93, 92
1, 182068, Poly_aftertouch_c, 0, 57, 0
1, 182096, Note_off_c, 0, 54, 60
1, 182108, Note_off_c, 0, 81, 61
1, 182111, Note_off_c, 0, 93, 60
1, 182159, Note_on_c, 0, 81, 76
1, 182164, Note_on_c, 0, 93, 63
1, 182202, Note_off_c, 0, 81, 63
1, 182208, Note_off_c, 0, 93, 54
1, 182220, Control_c, 0, 64, 110
1, 182235, Control_c, 0, 64, 72
1, 182249, Control_c, 0, 64, 0
1, 182266, Note_on_c, 0, 48, 100
1, 182272, Note_on_c, 0, 80, 92
1, 182279, Control_c, 0, 64, 55
1, 182280, Note_on_c, 0, 92, 85
1, 182283, Note_on_c, 0, 36, 69
1, 182291, Note_off_c, 0, 48, 70
1, 182293, Control_c, 0, 64, 70
1, 182306, Note_off_c, 0, 36, 61
1, 182308, Note_on_c, 0, 90, 37
1, 182308, Control_c, 0, 64, 84
1, 182317, Note_off_c, 0, 80, 63
1, 182320, Note_off_c, 0, 92, 58
1, 182323, Control_c, 0, 64, 105
1, 182338, Note_off_c, 0, 90, 35
1, 182338, Control_c, 0, 64, 120
1, 182353, Control_c, 0, 64, 126
1, 182368, Control_c, 0, 64, 127
1, 182406, Note_on_c, 0, 80, 81
1, 182409, Note_on_c, 0, 92, 74
1, 182432, Note_off_c, 0, 80, 61
1, 182435, Note_off_c, 0, 92, 64
1, 182504, Note_on_c, 0, 69, 84
1, 182514, Note_on_c, 0, 63, 61
1, 182517, Note_on_c, 0, 80, 80
1, 182518, Note_on_c, 0, 57, 48
1, 182520, Note_on_c, 0, 92, 72
1, 182532, Note_off_c, 0, 69, 66
1, 182534, Note_off_c, 0, 63, 64
1, 182544, Note_off_c, 0, 57, 55
1, 182547, Note_off_c, 0, 80, 60
1, 182551, Note_off_c, 0, 92, 60
1, 182603, Note_on_c, 0, 63, 86
1, 182610, Note_on_c, 0, 69, 85
1, 182611, Note_on_c, 0, 80, 81
1, 182614, Note_on_c, 0, 92, 77
1, 182628, Note_off_c, 0, 69, 73
1, 182638, Note_off_c, 0, 80, 64
1, 182640, Note_off_c, 0, 92, 64
1, 182648, Note_off_c, 0, 63, 63
1, 182680, Poly_aftertouch_c, 0, 63, 0
1, 182681, Note_on_c, 0, 57, 43
1, 182687, Note_on_c, 0, 63, 67
1, 182700, Note_on_c, 0, 78, 92
1, 182702, Note_on_c, 0, 90, 90
1, 182714, Note_off_c, 0, 63, 66
1, 182720, Note_on_c, 0, 69, 34
1, 182742, Note_off_c, 0, 69, 61
1, 182744, Note_off_c, 0, 57, 62
1, 182747, Note_on_c, 0, 80, 32
1, 182748, Note_off_c, 0, 80, 127
1, 182757, Note_off_c, 0, 90, 59
1, 182767, Note_off_c, 0, 78, 55
1, 182797, Note_on_c, 0, 78, 60
1, 182809, Note_on_c, 0, 90, 72
1, 182854, Note_off_c, 0, 90, 63
1, 182856, Note_off_c, 0, 78, 63
1, 182880, Control_c, 0, 64, 97
1, 182894, Note_on_c, 0, 49, 100
1, 182895, Control_c, 0, 64, 59
1, 182901, Note_on_c, 0, 76, 99
1, 182903, Note_on_c, 0, 37, 81
1, 182904, Note_on_c, 0, 88, 86
1, 182910, Control_c, 0, 64, 0
1, 182924, Control_c, 0, 64, 44
1, 182927, Note_off_c, 0, 37, 67
1, 182931, Note_off_c, 0, 88, 63
1, 182939, Control_c, 0, 64, 69
1, 182940, Note_off_c, 0, 49, 61
1, 182953, Note_off_c, 0, 76, 67
1, 182954, Control_c, 0, 64, 81
1, 182969, Control_c, 0, 64, 101
1, 182984, Control_c, 0, 64, 127
1, 183107, Note_on_c, 0, 64, 71
1, 183110, Note_on_c, 0, 61, 78
1, 183123, Note_on_c, 0, 57, 46
1, 183131, Note_off_c, 0, 61, 69
1, 183131, Note_off_c, 0, 64, 69
1, 183137, Note_on_c, 0, 52, 28
1, 183150, Note_off_c, 0, 57, 57
1, 183177, Note_off_c, 0, 52, 41
1, 183203, Note_on_c, 0, 61, 75
1, 183207, Note_on_c, 0, 73, 60
1, 183208, Note_on_c, 0, 64, 77
1, 183217, Note_on_c, 0, 69, 57
1, 183222, Note_off_c, 0, 61, 71
1, 183228, Note_on_c, 0, 57, 41
1, 183232, Note_off_c, 0, 64, 68
1, 183235, Note_off_c, 0, 73, 66
1, 183251, Note_off_c, 0, 69, 68
1, 183259, Note_off_c, 0, 57, 0
1, 183279, Note_on_c, 0, 57, 46
1, 183283, Note_on_c, 0, 61, 87
1, 183283, Note_on_c, 0, 51, 80
1, 183287, Note_on_c, 0, 64, 90
1, 183294, Note_on_c, 0, 75, 83
1, 183299, Note_on_c, 0, 69, 78
1, 183305, Note_on_c, 0, 73, 63
1, 183324, Note_off_c, 0, 61, 61
1, 183325, Note_off_c, 0, 73, 65
1, 183335, Note_off_c, 0, 57, 58
1, 183337, Note_off_c, 0, 64, 61
1, 183345, Note_off_c, 0, 75, 63
1, 183359, Note_off_c, 0, 69, 62
1, 183393, Note_on_c, 0, 61, 70
1, 183396, Note_on_c, 0, 75, 74
1, 183402, Note_on_c, 0, 64, 81
1, 183406, Note_on_c, 0, 57, 42
1, 183406, Note_on_c, 0, 69, 63
1, 183419, Note_off_c, 0, 61, 61
1, 183432, Note_off_c, 0, 51, 62
1, 183442, Note_off_c, 0, 57, 62
1, 183451, Note_off_c, 0, 64, 61
1, 183457, Note_off_c, 0, 75, 64
1, 183461, Note_off_c, 0, 69, 62
1, 183465, Control_c, 0, 64, 101
1, 183479, Control_c, 0, 64, 74
1, 183494, Note_on_c, 0, 61, 90
1, 183494, Control_c, 0, 64, 50
1, 183503, Note_on_c, 0, 76, 83
1, 183505, Note_on_c, 0, 49, 70
1, 183505, Note_on_c, 0, 64, 82
1, 183506, Note_on_c, 0, 57, 64
1, 183509, Control_c, 0, 64, 62
1, 183524, Control_c, 0, 64, 73
1, 183532, Note_off_c, 0, 61, 56
1, 183538, Note_off_c, 0, 57, 64
1, 183539, Control_c, 0, 64, 87
1, 183550, Note_off_c, 0, 49, 64
1, 183554, Control_c, 0, 64, 104
1, 183567, Note_off_c, 0, 64, 64
1, 183569, Control_c, 0, 64, 127
1, 183570, Note_off_c, 0, 76, 64
1, 183618, Note_on_c, 0, 49, 70
1, 183621, Note_on_c, 0, 61, 75
1, 183629, Note_on_c, 0, 76, 70
1, 183641, Note_on_c, 0, 64, 70
1, 183647, Note_on_c, 0, 57, 48
1, 183647, Note_off_c, 0, 61, 64
1, 183670, Note_off_c, 0, 57, 61
1, 183673, Control_c, 0, 64, 104
1, 183676, Note_off_c, 0, 49, 61
1, 183683, Note_off_c, 0, 64, 64
1, 183684, Note_off_c, 0, 76, 65
1, 183688, Control_c, 0, 64, 80
1, 183702, Control_c, 0, 64, 54
1, 183717, Control_c, 0, 64, 48
1, 183724, Note_on_c, 0, 61, 90
1, 183725, Note_on_c, 0, 51, 74
1, 183732, Control_c, 0, 64, 69
1, 183734, Note_on_c, 0, 75, 83
1, 183735, Note_on_c, 0, 57, 68
1, 183737, Note_on_c, 0, 64, 77
1, 183746, Control_c, 0, 64, 83
1, 183761, Control_c, 0, 64, 106
1, 183776, Control_c, 0, 64, 127
1, 183781, Note_off_c, 0, 61, 62
1, 183799, Note_off_c, 0, 57, 60
1, 183802, Note_off_c, 0, 64, 63
1, 183807, Note_off_c, 0, 75, 61
1, 183848, Note_on_c, 0, 61, 73
1, 183854, Note_on_c, 0, 75, 58
1, 183857, Note_on_c, 0, 64, 67
1, 183861, Note_on_c, 0, 57, 51
1, 183897, Note_off_c, 0, 61, 61
1, 183903, Note_off_c, 0, 57, 54
1, 183913, Note_off_c, 0, 64, 64
1, 183916, Note_off_c, 0, 75, 65
1, 183920, Note_off_c, 0, 51, 61
1, 183924, Control_c, 0, 64, 104
1, 183946, Control_c, 0, 64, 80
1, 183961, Control_c, 0, 64, 38
1, 183965, Note_on_c, 0, 61, 85
1, 183971, Note_on_c, 0, 57, 76
1, 183973, Note_on_c, 0, 64, 77
1, 183974, Note_on_c, 0, 52, 72
1, 183976, Control_c, 0, 64, 47
1, 183980, Note_on_c, 0, 69, 79
1, 183982, Note_on_c, 0, 73, 79
1, 183991, Control_c, 0, 64, 69
1, 183996, Note_on_c, 0, 75, 45
1, 184006, Control_c, 0, 64, 81
1, 184020, Control_c, 0, 64, 100
1, 184022, Note_off_c, 0, 75, 63
1, 184025, Note_off_c, 0, 61, 62
1, 184035, Control_c, 0, 64, 121
1, 184037, Note_off_c, 0, 64, 62
1, 184040, Note_off_c, 0, 73, 60
1, 184044, Note_off_c, 0, 57, 61
1, 184050, Control_c, 0, 64, 127
1, 184066, Note_off_c, 0, 69, 0
1, 184085, Note_on_c, 0, 61, 69
1, 184094, Note_on_c, 0, 57, 50
1, 184095, Note_on_c, 0, 69, 34
1, 184102, Note_on_c, 0, 64, 63
1, 184118, Note_on_c, 0, 73, 44
1, 184129, Note_off_c, 0, 57, 63
1, 184132, Note_off_c, 0, 64, 65
1, 184143, Note_off_c, 0, 61, 61
1, 184156, Note_off_c, 0, 52, 59
1, 184160, Note_off_c, 0, 69, 65
1, 184165, Note_off_c, 0, 73, 64
1, 184168, Control_c, 0, 64, 119
1, 184183, Control_c, 0, 64, 94
1, 184198, Control_c, 0, 64, 68
1, 184212, Note_on_c, 0, 51, 84
1, 184212, Note_on_c, 0, 59, 84
1, 184213, Note_on_c, 0, 63, 97
1, 184213, Control_c, 0, 64, 0
1, 184219, Note_on_c, 0, 56, 76
1, 184221, Note_on_c, 0, 71, 72
1, 184225, Note_on_c, 0, 75, 73
1, 184243, Control_c, 0, 64, 66
1, 184258, Note_off_c, 0, 59, 57
1, 184258, Control_c, 0, 64, 80
1, 184259, Note_off_c, 0, 56, 60
1, 184265, Note_off_c, 0, 51, 60
1, 184273, Control_c, 0, 64, 98
1, 184287, Control_c, 0, 64, 118
1, 184302, Control_c, 0, 64, 123
1, 184305, Note_off_c, 0, 63, 63
1, 184310, Note_off_c, 0, 71, 60
1, 184314, Note_off_c, 0, 75, 63
1, 184373, Note_on_c, 0, 62, 83
1, 184383, Note_on_c, 0, 50, 65
1, 184390, Note_on_c, 0, 64, 75
1, 184401, Note_off_c, 0, 62, 65
1, 184403, Note_on_c, 0, 76, 64
1, 184414, Note_off_c, 0, 50, 66
1, 184422, Control_c, 0, 64, 124
1, 184428, Note_off_c, 0, 76, 70
1, 184428, Note_off_c, 0, 64, 62
1, 184437, Control_c, 0, 64, 126
1, 184451, Control_c, 0, 64, 127
1, 184475, Note_on_c, 0, 61, 87
1, 184481, Note_on_c, 0, 49, 77
1, 184500, Note_on_c, 0, 77, 72
1, 184505, Note_on_c, 0, 65, 68
1, 184506, Note_off_c, 0, 61, 56
1, 184512, Note_off_c, 0, 49, 64
1, 184523, Note_off_c, 0, 77, 67
1, 184523, Note_off_c, 0, 65, 68
1, 184575, Note_on_c, 0, 60, 86
1, 184591, Note_on_c, 0, 48, 68
1, 184596, Note_on_c, 0, 78, 72
1, 184597, Note_on_c, 0, 66, 82
1, 184609, Note_off_c, 0, 60, 60
1, 184618, Note_off_c, 0, 48, 65
1, 184627, Note_off_c, 0, 66, 62
1, 184633, Note_off_c, 0, 78, 47
1, 184675, Note_on_c, 0, 59, 94
1, 184685, Note_on_c, 0, 47, 77
1, 184690, Note_on_c, 0, 67, 87
1, 184702, Note_on_c, 0, 79, 75
1, 184718, Note_off_c, 0, 47, 67
1, 184720, Note_off_c, 0, 59, 67
1, 184735, Note_off_c, 0, 67, 65
1, 184743, Note_off_c, 0, 79, 61
1, 184779, Note_on_c, 0, 46, 88
1, 184779, Note_on_c, 0, 58, 92
1, 184786, Note_on_c, 0, 68, 86
1, 184790, Note_on_c, 0, 80, 84
1, 184817, Note_off_c, 0, 58, 56
1, 184831, Note_off_c, 0, 46, 59
1, 184833, Note_off_c, 0, 68, 64
1, 184845, Note_off_c, 0, 80, 62
1, 184882, Note_on_c, 0, 57, 93
1, 184890, Note_on_c, 0, 45, 78
1, 184890, Note_on_c, 0, 69, 94
1, 184900, Note_on_c, 0, 81, 71
1, 184908, Note_on_c, 0, 79, 73
1, 184921, Note_off_c, 0, 57, 66
1, 184922, Note_off_c, 0, 45, 68
1, 184924, Note_off_c, 0, 79, 65
1, 184930, Note_off_c, 0, 69, 68
1, 184937, Note_off_c, 0, 81, 61
1, 184985, Note_on_c, 0, 56, 91
1, 184988, Note_on_c, 0, 44, 80
1, 184992, Note_on_c, 0, 70, 92
1, 184992, Note_on_c, 0, 82, 93
1, 185013, Note_off_c, 0, 56, 62
1, 185021, Note_off_c, 0, 44, 64
1, 185036, Note_on_c, 0, 80, 30
1, 185039, Note_off_c, 0, 70, 62
1, 185043, Note_off_c, 0, 82, 62
1, 185068, Note_off_c, 0, 80, 54
1, 185088, Note_on_c, 0, 55, 98
1, 185098, Note_on_c, 0, 43, 77
1, 185099, Note_on_c, 0, 83, 84
1, 185102, Note_on_c, 0, 71, 86
1, 185129, Note_off_c, 0, 55, 64
1, 185131, Note_off_c, 0, 43, 65
1, 185137, Note_off_c, 0, 71, 58
1, 185142, Note_off_c, 0, 83, 63
1, 185195, Note_on_c, 0, 54, 94
1, 185200, Note_on_c, 0, 42, 83
1, 185209, Note_on_c, 0, 72, 95
1, 185215, Note_on_c, 0, 84, 84
1, 185226, Note_off_c, 0, 54, 62
1, 185229, Note_off_c, 0, 42, 64
1, 185238, Note_off_c, 0, 84, 67
1, 185240, Note_off_c, 0, 72, 66
1, 185290, Note_on_c, 0, 53, 99
1, 185298, Note_on_c, 0, 41, 82
1, 185301, Note_on_c, 0, 73, 95
1, 185307, Note_on_c, 0, 85, 86
1, 185309, Note_on_c, 0, 44, 37
1, 185328, Note_off_c, 0, 53, 65
1, 185335, Note_off_c, 0, 44, 50
1, 185336, Note_off_c, 0, 41, 65
1, 185349, Note_off_c, 0, 85, 66
1, 185352, Note_off_c, 0, 73, 62
1, 185378, Poly_aftertouch_c, 0, 42, 0
1, 185393, Note_on_c, 0, 52, 101
1, 185404, Note_on_c, 0, 74, 87
1, 185405, Note_on_c, 0, 46, 74
1, 185409, Note_on_c, 0, 86, 71
1, 185411, Note_on_c, 0, 43, 67
1, 185413, Note_on_c, 0, 79, 79
1, 185413, Note_on_c, 0, 82, 86
1, 185419, Note_on_c, 0, 40, 46
1, 185423, Note_off_c, 0, 52, 62
1, 185435, Note_off_c, 0, 46, 63
1, 185446, Note_off_c, 0, 86, 66
1, 185450, Note_off_c, 0, 43, 61
1, 185453, Note_off_c, 0, 74, 68
1, 185462, Note_off_c, 0, 40, 49
1, 185468, Note_off_c, 0, 79, 64
1, 185469, Note_off_c, 0, 82, 66
1, 185474, Control_c, 0, 64, 98
1, 185489, Control_c, 0, 64, 65
1, 185490, Note_on_c, 0, 51, 109
1, 185492, Note_on_c, 0, 39, 87
1, 185504, Note_on_c, 0, 75, 99
1, 185504, Control_c, 0, 64, 13
1, 185507, Note_on_c, 0, 42, 62
1, 185508, Note_on_c, 0, 87, 88
1, 185513, Note_on_c, 0, 46, 55
1, 185514, Note_off_c, 0, 46, 127
1, 185519, Control_c, 0, 64, 68
1, 185520, Note_on_c, 0, 80, 69
1, 185532, Note_on_c, 0, 85, 54
1, 185533, Control_c, 0, 64, 83
1, 185536, Note_off_c, 0, 80, 68
1, 185537, Note_off_c, 0, 42, 65
1, 185543, Note_off_c, 0, 51, 60
1, 185548, Control_c, 0, 64, 106
1, 185549, Note_off_c, 0, 39, 64
1, 185552, Note_off_c, 0, 85, 61
1, 185562, Note_off_c, 0, 87, 66
1, 185563, Control_c, 0, 64, 127
1, 185566, Note_off_c, 0, 75, 64
1, 185610, Note_on_c, 0, 38, 58
1, 185616, Note_on_c, 0, 50, 98
1, 185629, Note_on_c, 0, 76, 93
1, 185629, Note_on_c, 0, 88, 89
1, 185651, Note_off_c, 0, 50, 61
1, 185660, Note_off_c, 0, 38, 65
1, 185662, Note_on_c, 0, 81, 54
1, 185663, Note_off_c, 0, 81, 127
1, 185668, Note_off_c, 0, 76, 68
1, 185674, Note_off_c, 0, 88, 64
1, 185686, Note_on_c, 0, 85, 3
1, 185719, Note_on_c, 0, 49, 103
1, 185724, Note_on_c, 0, 37, 87
1, 185724, Note_off_c, 0, 85, 33
1, 185734, Note_on_c, 0, 77, 99
1, 185737, Note_on_c, 0, 89, 89
1, 185761, Note_off_c, 0, 49, 60
1, 185763, Note_off_c, 0, 37, 64
1, 185770, Note_off_c, 0, 77, 68
1, 185777, Note_off_c, 0, 89, 68
1, 185829, Note_on_c, 0, 48, 102
1, 185836, Note_on_c, 0, 90, 99
1, 185840, Note_on_c, 0, 78, 97
1, 185844, Note_on_c, 0, 36, 68
1, 185866, Note_off_c, 0, 48, 59
1, 185870, Note_off_c, 0, 36, 66
1, 185882, Note_off_c, 0, 78, 62
1, 185889, Note_off_c, 0, 90, 62
1, 185945, Note_on_c, 0, 48, 102
1, 185950, Note_on_c, 0, 79, 99
1, 185951, Note_on_c, 0, 36, 78
1, 185952, Note_on_c, 0, 89, 87
1, 185952, Poly_aftertouch_c, 0, 39, 0
1, 185970, Note_on_c, 0, 47, 51
1, 185973, Note_on_c, 0, 37, 48
1, 185979, Note_off_c, 0, 48, 64
1, 185982, Note_off_c, 0, 36, 68
1, 185993, Note_off_c, 0, 79, 66
1, 185998, Note_off_c, 0, 37, 61
1, 185998, Note_off_c, 0, 89, 67
1, 186002, Note_off_c, 0, 47, 33
1, 186061, Note_on_c, 0, 46, 104
1, 186069, Note_on_c, 0, 34, 84
1, 186071, Note_on_c, 0, 92, 96
1, 186075, Note_on_c, 0, 80, 96
1, 186087, Note_on_c, 0, 37, 42
1, 186088, Note_off_c, 0, 37, 127
1, 186100, Note_on_c, 0, 39, 29
1, 186102, Note_off_c, 0, 34, 67
1, 186103, Note_on_c, 0, 90, 53
1, 186103, Note_off_c, 0, 46, 60
1, 186118, Note_off_c, 0, 80, 63
1, 186124, Note_off_c, 0, 90, 60
1, 186129, Note_off_c, 0, 92, 63
1, 186133, Note_off_c, 0, 39, 44
1, 186195, Note_on_c, 0, 45, 106
1, 186203, Note_on_c, 0, 81, 104
1, 186204, Note_on_c, 0, 93, 99
1, 186213, Note_on_c, 0, 33, 74
1, 186215, Note_on_c, 0, 37, 59
1, 186216, Note_on_c, 0, 35, 67
1, 186224, Note_on_c, 0, 90, 61
1, 186237, Note_on_c, 0, 92, 49
1, 186239, Note_off_c, 0, 37, 59
1, 186241, Note_off_c, 0, 90, 64
1, 186245, Note_off_c, 0, 33, 65
1, 186246, Note_off_c, 0, 35, 65
1, 186247, Note_off_c, 0, 45, 60
1, 186258, Note_off_c, 0, 81, 65
1, 186261, Note_off_c, 0, 92, 52
1, 186261, Note_off_c, 0, 93, 63
1, 186269, Note_on_c, 0, 34, 2
1, 186294, Note_off_c, 0, 34, 58
1, 186336, Note_on_c, 0, 44, 105
1, 186340, Note_on_c, 0, 32, 95
1, 186341, Note_on_c, 0, 82, 101
1, 186342, Note_on_c, 0, 94, 97
1, 186361, Note_on_c, 0, 92, 53
1, 186373, Note_on_c, 0, 95, 44
1, 186383, Note_off_c, 0, 44, 63
1, 186385, Note_off_c, 0, 92, 36
1, 186395, Note_off_c, 0, 32, 61
1, 186401, Note_off_c, 0, 95, 48
1, 186404, Note_off_c, 0, 82, 59
1, 186413, Note_off_c, 0, 94, 65
1, 186438, Poly_aftertouch_c, 0, 37, 0
1, 186479, Note_on_c, 0, 43, 106
1, 186486, Note_on_c, 0, 95, 89
1, 186487, Note_on_c, 0, 31, 91
1, 186490, Note_on_c, 0, 83, 100
1, 186504, Note_on_c, 0, 32, 60
1, 186516, Note_on_c, 0, 92, 62
1, 186517, Note_on_c, 0, 34, 40
1, 186518, Note_off_c, 0, 34, 127
1, 186518, Note_on_c, 0, 94, 65
1, 186526, Note_off_c, 0, 32, 62
1, 186527, Note_off_c, 0, 31, 62
1, 186529, Note_off_c, 0, 43, 62
1, 186535, Note_off_c, 0, 92, 60
1, 186535, Note_off_c, 0, 94, 65
1, 186540, Poly_aftertouch_c, 0, 34, 0
1, 186557, Note_off_c, 0, 83, 62
1, 186559, Note_off_c, 0, 95, 66
1, 186653, Note_on_c, 0, 42, 110
1, 186655, Note_on_c, 0, 30, 94
1, 186660, Note_on_c, 0, 97, 99
1, 186662, Note_on_c, 0, 85, 103
1, 186690, Note_on_c, 0, 94, 53
1, 186702, Note_on_c, 0, 98, 24
1, 186711, Note_off_c, 0, 42, 63
1, 186714, Note_off_c, 0, 94, 41
1, 186730, Note_off_c, 0, 30, 60
1, 186742, Note_off_c, 0, 98, 32
1, 186748, Note_off_c, 0, 85, 60
1, 186765, Note_off_c, 0, 97, 63
1, 186851, Note_on_c, 0, 40, 112
1, 186852, Note_on_c, 0, 98, 92
1, 186854, Note_on_c, 0, 86, 107
1, 186857, Note_on_c, 0, 28, 90
1, 186878, Note_on_c, 0, 30, 56
1, 186886, Note_on_c, 0, 97, 56
1, 186887, Note_on_c, 0, 99, 52
1, 186887, Note_on_c, 0, 27, 45
1, 186894, Note_off_c, 0, 30, 66
1, 186906, Note_off_c, 0, 97, 54
1, 186909, Note_off_c, 0, 99, 59
1, 186923, Note_off_c, 0, 27, 50
1, 186923, Note_off_c, 0, 28, 56
1, 186942, Note_off_c, 0, 40, 59
1, 186943, Note_off_c, 0, 98, 65
1, 186961, Note_off_c, 0, 86, 60
1, 187066, Note_on_c, 0, 39, 112
1, 187067, Note_on_c, 0, 99, 87
1, 187071, Note_on_c, 0, 27, 81
1, 187072, Note_on_c, 0, 88, 100
1, 187080, Note_on_c, 0, 89, 86
1, 187095, Note_on_c, 0, 97, 48
1, 187096, Note_on_c, 0, 100, 52
1, 187098, Note_off_c, 0, 89, 72
1, 187110, Note_off_c, 0, 88, 63
1, 187112, Note_off_c, 0, 99, 66
1, 187113, Note_off_c, 0, 27, 66
1, 187119, Note_off_c, 0, 97, 39
1, 187119, Note_off_c, 0, 100, 55
1, 187124, Note_off_c, 0, 39, 62
1, 187150, Poly_aftertouch_c, 0, 32, 127
1, 187153, Poly_aftertouch_c, 0, 28, 127
1, 187181, Poly_aftertouch_c, 0, 32, 0
1, 187187, Poly_aftertouch_c, 0, 28, 0
1, 187328, Control_c, 0, 64, 88
1, 187343, Control_c, 0, 64, 0
1, 187346, Note_on_c, 0, 32, 86
1, 187346, Note_on_c, 0, 44, 105
1, 187352, Note_on_c, 0, 59, 98
1, 187357, Note_on_c, 0, 68, 89
1, 187358, Note_on_c, 0, 63, 82
1, 187385, Note_off_c, 0, 59, 67
1, 187387, Note_off_c, 0, 32, 63
1, 187388, Control_c, 0, 64, 64
1, 187388, Note_on_c, 0, 66, 38
1, 187401, Note_off_c, 0, 44, 63
1, 187403, Control_c, 0, 64, 79
1, 187411, Note_off_c, 0, 63, 64
1, 187417, Control_c, 0, 64, 95
1, 187419, Note_off_c, 0, 66, 34
1, 187430, Note_off_c, 0, 68, 61
1, 187432, Control_c, 0, 64, 106
1, 187447, Control_c, 0, 64, 110
1, 187462, Control_c, 0, 64, 110
1, 187463, Poly_aftertouch_c, 0, 60, 0
1, 187491, Control_c, 0, 64, 111
1, 187506, Control_c, 0, 64, 111
1, 187522, Control_c, 0, 64, 112
1, 187537, Control_c, 0, 64, 113
1, 187552, Control_c, 0, 64, 114
1, 187566, Control_c, 0, 64, 116
1, 187576, Note_on_c, 0, 42, 76
1, 187581, Control_c, 0, 64, 120
1, 187583, Note_on_c, 0, 51, 61
1, 187594, Note_on_c, 0, 53, 56
1, 187596, Note_off_c, 0, 42, 65
1, 187596, Control_c, 0, 64, 127
1, 187603, Note_off_c, 0, 51, 61
1, 187609, Note_on_c, 0, 52, 36
1, 187619, Note_off_c, 0, 53, 59
1, 187638, Note_off_c, 0, 52, 54
1, 187680, Note_on_c, 0, 46, 48
1, 187681, Note_on_c, 0, 58, 87
1, 187709, Note_off_c, 0, 58, 72
1, 187718, Note_off_c, 0, 46, 56
1, 187758, Note_on_c, 0, 71, 95
1, 187758, Note_on_c, 0, 83, 83
1, 187760, Note_on_c, 0, 75, 101
1, 187764, Note_on_c, 0, 63, 100
1, 187769, Note_on_c, 0, 51, 57
1, 187790, Note_off_c, 0, 63, 65
1, 187795, Note_on_c, 0, 82, 42
1, 187795, Note_off_c, 0, 71, 63
1, 187799, Note_on_c, 0, 78, 33
1, 187802, Note_on_c, 0, 56, 39
1, 187808, Note_off_c, 0, 83, 59
1, 187817, Note_off_c, 0, 51, 61
1, 187820, Note_off_c, 0, 82, 58
1, 187827, Note_off_c, 0, 75, 61
1, 187831, Note_off_c, 0, 78, 34
1, 187835, Note_off_c, 0, 56, 48
1, 187929, Control_c, 0, 64, 112
1, 187944, Control_c, 0, 64, 84
1, 187959, Control_c, 0, 64, 59
1, 187960, Note_on_c, 0, 82, 76
1, 187962, Note_on_c, 0, 70, 88
1, 187967, Note_on_c, 0, 44, 99
1, 187974, Control_c, 0, 64, 31
1, 187975, Note_on_c, 0, 32, 89
1, 187986, Note_off_c, 0, 82, 66
1, 187988, Control_c, 0, 64, 66
1, 187989, Note_off_c, 0, 70, 65
1, 187997, Note_on_c, 0, 75, 32
1, 187998, Note_off_c, 0, 75, 127
1, 188002, Note_off_c, 0, 32, 66
1, 188003, Control_c, 0, 64, 75
1, 188006, Note_off_c, 0, 44, 60
1, 188018, Control_c, 0, 64, 90
1, 188031, Poly_aftertouch_c, 0, 75, 0
1, 188033, Control_c, 0, 64, 104
1, 188048, Control_c, 0, 64, 110
1, 188062, Control_c, 0, 64, 111
1, 188064, Note_on_c, 0, 83, 77
1, 188065, Note_on_c, 0, 71, 84
1, 188071, Poly_aftertouch_c, 0, 34, 0
1, 188100, Note_off_c, 0, 71, 63
1, 188104, Note_off_c, 0, 83, 63
1, 188107, Control_c, 0, 64, 112
1, 188121, Control_c, 0, 64, 113
1, 188136, Control_c, 0, 64, 115
1, 188147, Note_on_c, 0, 51, 102
1, 188151, Control_c, 0, 64, 119
1, 188153, Note_on_c, 0, 85, 100
1, 188154, Note_on_c, 0, 73, 96
1, 188160, Note_on_c, 0, 42, 69
1, 188166, Control_c, 0, 64, 127
1, 188168, Note_off_c, 0, 51, 67
1, 188181, Note_off_c, 0, 42, 62
1, 188186, Note_on_c, 0, 40, 21
1, 188197, Note_off_c, 0, 73, 59
1, 188218, Note_off_c, 0, 85, 62
1, 188225, Note_off_c, 0, 40, 46
1, 188252, Note_on_c, 0, 58, 94
1, 188257, Poly_aftertouch_c, 0, 75, 0
1, 188258, Note_on_c, 0, 46, 77
1, 188282, Note_off_c, 0, 58, 64
1, 188288, Note_off_c, 0, 46, 64
1, 188341, Poly_aftertouch_c, 0, 51, 127
1, 188345, Note_on_c, 0, 63, 101
1, 188350, Note_on_c, 0, 75, 92
1, 188351, Note_on_c, 0, 71, 93
1, 188352, Note_on_c, 0, 51, 13
1, 188365, Note_on_c, 0, 83, 52
1, 188372, Note_on_c, 0, 78, 50
1, 188374, Note_off_c, 0, 75, 66
1, 188377, Note_off_c, 0, 71, 65
1, 188380, Note_on_c, 0, 54, 47
1, 188383, Note_off_c, 0, 63, 64
1, 188387, Note_off_c, 0, 83, 56
1, 188392, Note_on_c, 0, 81, 33
1, 188393, Note_off_c, 0, 78, 60
1, 188402, Note_off_c, 0, 51, 63
1, 188406, Note_off_c, 0, 54, 56
1, 188425, Note_off_c, 0, 81, 33
1, 188456, Note_on_c, 0, 70, 95
1, 188467, Note_on_c, 0, 82, 81
1, 188479, Note_on_c, 0, 78, 56
1, 188480, Note_off_c, 0, 78, 127
1, 188484, Note_on_c, 0, 75, 54
1, 188492, Note_off_c, 0, 82, 65
1, 188497, Note_off_c, 0, 70, 63
1, 188499, Note_off_c, 0, 75, 65
1, 188500, Control_c, 0, 64, 108
1, 188515, Control_c, 0, 64, 81
1, 188529, Control_c, 0, 64, 55
1, 188544, Control_c, 0, 64, 54
1, 188544, Note_on_c, 0, 44, 95
1, 188552, Note_on_c, 0, 32, 90
1, 188553, Note_on_c, 0, 75, 90
1, 188556, Note_on_c, 0, 71, 86
1, 188559, Control_c, 0, 64, 70
1, 188565, Note_on_c, 0, 83, 63
1, 188574, Control_c, 0, 64, 84
1, 188576, Note_on_c, 0, 81, 64
1, 188577, Note_off_c, 0, 32, 66
1, 188586, Note_on_c, 0, 34, 27
1, 188589, Control_c, 0, 64, 103
1, 188592, Note_off_c, 0, 81, 64
1, 188594, Note_off_c, 0, 44, 62
1, 188594, Note_off_c, 0, 75, 68
1, 188596, Note_off_c, 0, 71, 62
1, 188603, Note_off_c, 0, 83, 61
1, 188604, Control_c, 0, 64, 114
1, 188618, Control_c, 0, 64, 115
1, 188628, Note_off_c, 0, 34, 42
1, 188654, Note_on_c, 0, 73, 98
1, 188656, Note_on_c, 0, 85, 94
1, 188689, Note_off_c, 0, 73, 67
1, 188692, Note_off_c, 0, 85, 67
1, 188722, Control_c, 0, 64, 116
1, 188736, Control_c, 0, 64, 117
1, 188744, Note_on_c, 0, 42, 76
1, 188751, Control_c, 0, 64, 122
1, 188757, Note_on_c, 0, 87, 100
1, 188758, Note_on_c, 0, 75, 100
1, 188766, Control_c, 0, 64, 127
1, 188772, Note_on_c, 0, 53, 47
1, 188776, Note_off_c, 0, 42, 63
1, 188782, Note_on_c, 0, 51, 20
1, 188800, Note_off_c, 0, 53, 58
1, 188809, Note_off_c, 0, 75, 63
1, 188824, Note_off_c, 0, 51, 39
1, 188827, Note_off_c, 0, 87, 60
1, 188852, Poly_aftertouch_c, 0, 52, 0
1, 188855, Note_on_c, 0, 58, 83
1, 188878, Note_off_c, 0, 58, 71
1, 188945, Note_on_c, 0, 63, 97
1, 188949, Note_on_c, 0, 85, 82
1, 188953, Note_on_c, 0, 73, 88
1, 188964, Note_on_c, 0, 51, 59
1, 188964, Note_off_c, 0, 63, 72
1, 188965, Note_on_c, 0, 78, 69
1, 188966, Note_off_c, 0, 78, 127
1, 188970, Note_on_c, 0, 82, 55
1, 188971, Note_off_c, 0, 82, 127
1, 188972, Note_off_c, 0, 73, 69
1, 188982, Note_off_c, 0, 85, 53
1, 188994, Note_off_c, 0, 51, 64
1, 189035, Poly_aftertouch_c, 0, 56, 0
1, 189048, Note_on_c, 0, 71, 89
1, 189053, Note_on_c, 0, 75, 88
1, 189057, Note_on_c, 0, 78, 59
1, 189063, Note_on_c, 0, 83, 58
1, 189079, Note_off_c, 0, 71, 62
1, 189080, Note_off_c, 0, 75, 55
1, 189081, Note_off_c, 0, 78, 36
1, 189087, Note_off_c, 0, 83, 54
1, 189092, Control_c, 0, 64, 97
1, 189108, Control_c, 0, 64, 68
1, 189122, Control_c, 0, 64, 0
1, 189128, Note_on_c, 0, 44, 96
1, 189137, Control_c, 0, 64, 51
1, 189139, Note_on_c, 0, 32, 82
1, 189149, Note_on_c, 0, 70, 95
1, 189152, Control_c, 0, 64, 71
1, 189159, Note_on_c, 0, 82, 63
1, 189167, Note_off_c, 0, 44, 56
1, 189167, Control_c, 0, 64, 85
1, 189167, Note_on_c, 0, 83, 67
1, 189172, Note_off_c, 0, 32, 60
1, 189177, Note_off_c, 0, 82, 65
1, 189179, Note_off_c, 0, 70, 68
1, 189182, Control_c, 0, 64, 104
1, 189200, Note_off_c, 0, 83, 64
1, 189204, Control_c, 0, 64, 114
1, 189209, Note_on_c, 0, 75, 6
1, 189257, Note_on_c, 0, 83, 92
1, 189258, Note_off_c, 0, 75, 38
1, 189260, Note_on_c, 0, 71, 92
1, 189278, Control_c, 0, 64, 115
1, 189292, Control_c, 0, 64, 116
1, 189298, Note_off_c, 0, 71, 64
1, 189298, Note_off_c, 0, 83, 65
1, 189307, Control_c, 0, 64, 116
1, 189322, Control_c, 0, 64, 117
1, 189330, Note_on_c, 0, 51, 94
1, 189337, Control_c, 0, 64, 123
1, 189351, Note_off_c, 0, 51, 70
1, 189352, Control_c, 0, 64, 127
1, 189361, Note_on_c, 0, 42, 39
1, 189362, Note_on_c, 0, 73, 96
1, 189363, Note_on_c, 0, 85, 81
1, 189384, Note_on_c, 0, 84, 56
1, 189397, Note_off_c, 0, 42, 52
1, 189404, Note_off_c, 0, 84, 62
1, 189406, Note_off_c, 0, 73, 58
1, 189427, Note_off_c, 0, 85, 62
1, 189439, Note_on_c, 0, 58, 81
1, 189446, Note_on_c, 0, 46, 63
1, 189461, Note_off_c, 0, 58, 72
1, 189471, Note_off_c, 0, 46, 57
1, 189533, Note_on_c, 0, 63, 88
1, 189537, Note_on_c, 0, 71, 93
1, 189538, Note_on_c, 0, 75, 91
1, 189539, Note_on_c, 0, 83, 76
1, 189546, Note_on_c, 0, 51, 66
1, 189551, Note_off_c, 0, 63, 73
1, 189556, Note_off_c, 0, 71, 68
1, 189556, Note_on_c, 0, 82, 48
1, 189567, Note_off_c, 0, 83, 60
1, 189573, Note_off_c, 0, 75, 61
1, 189574, Note_off_c, 0, 51, 65
1, 189582, Note_off_c, 0, 82, 36
1, 189636, Note_on_c, 0, 70, 90
1, 189647, Note_on_c, 0, 82, 76
1, 189656, Note_on_c, 0, 75, 54
1, 189662, Note_off_c, 0, 70, 65
1, 189668, Note_off_c, 0, 82, 70
1, 189676, Note_off_c, 0, 75, 62
1, 189692, Control_c, 0, 64, 88
1, 189707, Control_c, 0, 64, 62
1, 189715, Note_on_c, 0, 44, 82
1, 189722, Control_c, 0, 64, 0
1, 189725, Note_on_c, 0, 32, 67
1, 189729, Note_on_c, 0, 71, 91
1, 189731, Note_on_c, 0, 75, 94
1, 189736, Note_on_c, 0, 42, 51
1, 189737, Note_off_c, 0, 42, 127
1, 189737, Control_c, 0, 64, 52
1, 189740, Note_on_c, 0, 83, 69
1, 189751, Note_off_c, 0, 44, 63
1, 189751, Note_off_c, 0, 32, 59
1, 189752, Control_c, 0, 64, 69
1, 189760, Note_off_c, 0, 71, 63
1, 189763, Note_off_c, 0, 83, 67
1, 189766, Control_c, 0, 64, 81
1, 189773, Note_off_c, 0, 75, 62
1, 189781, Control_c, 0, 64, 98
1, 189796, Control_c, 0, 64, 102
1, 189811, Control_c, 0, 64, 103
1, 189823, Poly_aftertouch_c, 0, 80, 0
1, 189827, Note_on_c, 0, 70, 101
1, 189829, Note_on_c, 0, 82, 68
1, 189837, Poly_aftertouch_c, 0, 80, 0
1, 189844, Note_on_c, 0, 80, 32
1, 189856, Note_off_c, 0, 70, 67
1, 189877, Note_off_c, 0, 80, 52
1, 189878, Note_off_c, 0, 82, 61
1, 189900, Control_c, 0, 64, 103
1, 189901, Note_on_c, 0, 51, 85
1, 189906, Note_on_c, 0, 39, 65
1, 189915, Control_c, 0, 64, 104
1, 189922, Note_on_c, 0, 68, 97
1, 189922, Note_on_c, 0, 80, 97
1, 189937, Note_off_c, 0, 51, 65
1, 189938, Control_c, 0, 64, 107
1, 189949, Note_off_c, 0, 39, 63
1, 189953, Control_c, 0, 64, 114
1, 189954, Note_off_c, 0, 68, 67
1, 189964, Note_on_c, 0, 81, 65
1, 189968, Control_c, 0, 64, 124
1, 189972, Note_on_c, 0, 78, 21
1, 189981, Note_off_c, 0, 80, 63
1, 189983, Control_c, 0, 64, 127
1, 189987, Note_off_c, 0, 81, 63
1, 190012, Note_on_c, 0, 54, 80
1, 190013, Note_off_c, 0, 78, 29
1, 190040, Note_off_c, 0, 54, 66
1, 190119, Note_on_c, 0, 83, 99
1, 190120, Note_on_c, 0, 63, 102
1, 190124, Note_on_c, 0, 95, 87
1, 190129, Note_on_c, 0, 51, 69
1, 190132, Note_on_c, 0, 86, 93
1, 190142, Note_on_c, 0, 90, 59
1, 190142, Note_off_c, 0, 63, 68
1, 190145, Note_on_c, 0, 93, 66
1, 190146, Note_off_c, 0, 93, 127
1, 190149, Note_off_c, 0, 83, 66
1, 190150, Note_off_c, 0, 86, 70
1, 190153, Note_off_c, 0, 95, 61
1, 190158, Note_on_c, 0, 58, 33
1, 190159, Note_off_c, 0, 58, 127
1, 190161, Note_off_c, 0, 90, 62
1, 190163, Note_off_c, 0, 51, 63
1, 190233, Poly_aftertouch_c, 0, 56, 0
1, 190294, Control_c, 0, 64, 93
1, 190309, Control_c, 0, 64, 66
1, 190316, Note_on_c, 0, 44, 102
1, 190319, Note_on_c, 0, 82, 90
1, 190323, Control_c, 0, 64, 0
1, 190324, Note_on_c, 0, 94, 78
1, 190327, Note_on_c, 0, 87, 71
1, 190338, Control_c, 0, 64, 31
1, 190339, Note_on_c, 0, 32, 59
1, 190342, Note_off_c, 0, 94, 72
1, 190344, Note_off_c, 0, 82, 67
1, 190348, Note_off_c, 0, 44, 62
1, 190353, Note_off_c, 0, 87, 66
1, 190353, Control_c, 0, 64, 67
1, 190366, Note_off_c, 0, 32, 57
1, 190368, Control_c, 0, 64, 80
1, 190383, Control_c, 0, 64, 96
1, 190397, Control_c, 0, 64, 108
1, 190412, Control_c, 0, 64, 112
1, 190416, Note_on_c, 0, 83, 88
1, 190420, Note_on_c, 0, 95, 88
1, 190427, Control_c, 0, 64, 113
1, 190442, Control_c, 0, 64, 114
1, 190455, Note_off_c, 0, 83, 64
1, 190456, Control_c, 0, 64, 116
1, 190457, Note_off_c, 0, 95, 67
1, 190471, Control_c, 0, 64, 121
1, 190486, Control_c, 0, 64, 127
1, 190497, Note_on_c, 0, 51, 94
1, 190503, Note_on_c, 0, 85, 100
1, 190504, Note_on_c, 0, 97, 98
1, 190509, Note_on_c, 0, 39, 61
1, 190518, Note_off_c, 0, 51, 71
1, 190524, Note_on_c, 0, 96, 48
1, 190531, Note_off_c, 0, 39, 61
1, 190533, Note_on_c, 0, 87, 51
1, 190534, Note_off_c, 0, 87, 127
1, 190545, Note_off_c, 0, 85, 64
1, 190548, Note_off_c, 0, 96, 38
1, 190565, Note_off_c, 0, 97, 64
1, 190593, Note_on_c, 0, 56, 92
1, 190613, Note_on_c, 0, 44, 37
1, 190622, Note_off_c, 0, 56, 67
1, 190632, Note_off_c, 0, 44, 63
1, 190700, Note_on_c, 0, 63, 101
1, 190705, Note_on_c, 0, 83, 97
1, 190708, Note_on_c, 0, 87, 94
1, 190717, Note_on_c, 0, 51, 62
1, 190723, Note_on_c, 0, 90, 59
1, 190725, Note_on_c, 0, 95, 52
1, 190725, Note_off_c, 0, 63, 65
1, 190726, Note_off_c, 0, 87, 66
1, 190730, Note_off_c, 0, 83, 64
1, 190731, Note_on_c, 0, 92, 49
1, 190732, Note_off_c, 0, 92, 127
1, 190743, Note_off_c, 0, 90, 62
1, 190745, Note_off_c, 0, 95, 60
1, 190747, Note_off_c, 0, 51, 62
1, 190805, Note_on_c, 0, 82, 92
1, 190811, Note_on_c, 0, 94, 86
1, 190820, Note_on_c, 0, 87, 67
1, 190825, Note_on_c, 0, 92, 60
1, 190826, Note_off_c, 0, 92, 127
1, 190837, Note_off_c, 0, 87, 67
1, 190839, Note_off_c, 0, 94, 62
1, 190848, Note_off_c, 0, 82, 61
1, 190851, Control_c, 0, 64, 113
1, 190866, Control_c, 0, 64, 83
1, 190881, Control_c, 0, 64, 53
1, 190895, Control_c, 0, 64, 21
1, 190896, Note_on_c, 0, 44, 97
1, 190903, Note_on_c, 0, 83, 92
1, 190903, Note_on_c, 0, 87, 87
1, 190905, Note_on_c, 0, 95, 94
1, 190910, Control_c, 0, 64, 67
1, 190914, Note_on_c, 0, 32, 65
1, 190925, Control_c, 0, 64, 79
1, 190929, Note_off_c, 0, 44, 60
1, 190936, Note_off_c, 0, 87, 64
1, 190939, Control_c, 0, 64, 100
1, 190944, Note_off_c, 0, 32, 64
1, 190946, Note_off_c, 0, 95, 67
1, 190947, Note_off_c, 0, 83, 60
1, 190954, Control_c, 0, 64, 115
1, 190969, Control_c, 0, 64, 119
1, 190984, Control_c, 0, 64, 120
1, 190999, Control_c, 0, 64, 121
1, 191003, Note_on_c, 0, 85, 92
1, 191006, Note_on_c, 0, 97, 93
1, 191009, Poly_aftertouch_c, 0, 34, 0
1, 191013, Control_c, 0, 64, 126
1, 191028, Control_c, 0, 64, 127
1, 191038, Note_off_c, 0, 85, 66
1, 191043, Note_off_c, 0, 97, 65
1, 191091, Note_on_c, 0, 51, 91
1, 191102, Note_on_c, 0, 99, 104
1, 191105, Note_on_c, 0, 87, 96
1, 191114, Note_off_c, 0, 51, 68
1, 191116, Note_on_c, 0, 39, 47
1, 191152, Note_off_c, 0, 39, 45
1, 191153, Note_off_c, 0, 87, 60
1, 191164, Note_off_c, 0, 99, 68
1, 191208, Note_on_c, 0, 56, 58
1, 191211, Note_on_c, 0, 58, 69
1, 191228, Note_off_c, 0, 58, 66
1, 191232, Note_off_c, 0, 56, 58
1, 191296, Note_on_c, 0, 63, 98
1, 191297, Note_on_c, 0, 97, 87
1, 191302, Note_on_c, 0, 85, 85
1, 191312, Note_on_c, 0, 56, 53
1, 191313, Note_off_c, 0, 63, 75
1, 191316, Note_on_c, 0, 51, 48
1, 191317, Note_off_c, 0, 85, 74
1, 191321, Note_off_c, 0, 97, 64
1, 191334, Note_on_c, 0, 94, 28
1, 191335, Note_off_c, 0, 94, 127
1, 191335, Note_off_c, 0, 56, 63
1, 191341, Note_off_c, 0, 51, 60
1, 191395, Note_on_c, 0, 83, 83
1, 191401, Note_on_c, 0, 87, 84
1, 191404, Note_on_c, 0, 95, 70
1, 191411, Poly_aftertouch_c, 0, 54, 0
1, 191420, Note_off_c, 0, 83, 65
1, 191421, Note_off_c, 0, 87, 65
1, 191423, Note_off_c, 0, 95, 67
1, 191452, Control_c, 0, 64, 113
1, 191466, Control_c, 0, 64, 81
1, 191481, Control_c, 0, 64, 34
1, 191496, Control_c, 0, 64, 27
1, 191497, Note_on_c, 0, 44, 95
1, 191500, Note_on_c, 0, 82, 95
1, 191505, Note_on_c, 0, 94, 89
1, 191508, Note_on_c, 0, 32, 79
1, 191511, Control_c, 0, 64, 70
1, 191520, Note_on_c, 0, 87, 62
1, 191526, Control_c, 0, 64, 84
1, 191530, Note_off_c, 0, 32, 65
1, 191532, Note_off_c, 0, 44, 60
1, 191538, Note_off_c, 0, 87, 61
1, 191539, Note_off_c, 0, 82, 61
1, 191541, Control_c, 0, 64, 105
1, 191544, Note_on_c, 0, 92, 25
1, 191545, Note_off_c, 0, 92, 127
1, 191547, Note_on_c, 0, 42, 17
1, 191548, Note_off_c, 0, 42, 127
1, 191548, Note_off_c, 0, 94, 65
1, 191557, Control_c, 0, 64, 127
1, 191593, Poly_aftertouch_c, 0, 42, 0
1, 191605, Note_on_c, 0, 83, 88
1, 191608, Note_on_c, 0, 95, 90
1, 191608, Poly_aftertouch_c, 0, 34, 0
1, 191643, Note_off_c, 0, 83, 65
1, 191648, Note_off_c, 0, 95, 66
1, 191689, Note_on_c, 0, 85, 97
1, 191692, Note_on_c, 0, 51, 94
1, 191700, Note_on_c, 0, 97, 84
1, 191704, Note_on_c, 0, 96, 65
1, 191705, Note_on_c, 0, 94, 77
1, 191707, Note_on_c, 0, 39, 57
1, 191716, Note_off_c, 0, 51, 68
1, 191720, Note_off_c, 0, 94, 63
1, 191722, Note_off_c, 0, 96, 63
1, 191739, Note_off_c, 0, 39, 61
1, 191747, Note_off_c, 0, 85, 62
1, 191757, Note_off_c, 0, 97, 64
1, 191793, Note_on_c, 0, 56, 92
1, 191818, Note_off_c, 0, 56, 65
1, 191882, Note_on_c, 0, 83, 94
1, 191882, Note_on_c, 0, 87, 91
1, 191894, Note_on_c, 0, 90, 72
1, 191894, Poly_aftertouch_c, 0, 44, 0
1, 191896, Note_on_c, 0, 95, 60
1, 191898, Note_on_c, 0, 63, 95
1, 191903, Note_on_c, 0, 93, 56
1, 191909, Note_off_c, 0, 83, 63
1, 191909, Note_off_c, 0, 90, 65
1, 191917, Note_off_c, 0, 63, 73
1, 191918, Note_off_c, 0, 95, 65
1, 191920, Note_off_c, 0, 87, 60
1, 191921, Note_on_c, 0, 51, 52
1, 191922, Note_off_c, 0, 93, 58
1, 191955, Note_off_c, 0, 51, 64
1, 191975, Note_on_c, 0, 82, 91
1, 191988, Note_on_c, 0, 87, 75
1, 191989, Note_on_c, 0, 94, 77
1, 192000, Note_on_c, 0, 90, 45
1, 192001, Note_off_c, 0, 90, 127
1, 192010, Note_off_c, 0, 87, 69
1, 192015, Note_off_c, 0, 82, 63
1, 192015, Note_off_c, 0, 94, 65
1, 192061, Control_c, 0, 64, 98
1, 192076, Control_c, 0, 64, 73
1, 192076, Note_on_c, 0, 83, 90
1, 192089, Note_on_c, 0, 44, 91
1, 192090, Control_c, 0, 64, 55
1, 192090, Note_on_c, 0, 46, 80
1, 192091, Note_on_c, 0, 95, 69
1, 192092, Note_on_c, 0, 88, 74
1, 192105, Control_c, 0, 64, 69
1, 192108, Note_on_c, 0, 32, 56
1, 192111, Note_off_c, 0, 83, 65
1, 192111, Note_off_c, 0, 44, 68
1, 192113, Note_off_c, 0, 88, 69
1, 192116, Note_off_c, 0, 95, 66
1, 192120, Control_c, 0, 64, 80
1, 192124, Note_off_c, 0, 46, 65
1, 192125, Note_on_c, 0, 34, 25
1, 192135, Control_c, 0, 64, 94
1, 192135, Note_off_c, 0, 32, 57
1, 192150, Control_c, 0, 64, 111
1, 192164, Control_c, 0, 64, 127
1, 192168, Note_off_c, 0, 34, 49
1, 192192, Note_on_c, 0, 94, 85
1, 192193, Note_on_c, 0, 82, 92
1, 192205, Note_on_c, 0, 80, 68
1, 192210, Note_off_c, 0, 82, 74
1, 192221, Note_off_c, 0, 80, 66
1, 192225, Note_on_c, 0, 92, 41
1, 192234, Note_on_c, 0, 88, 22
1, 192242, Note_off_c, 0, 94, 65
1, 192251, Poly_aftertouch_c, 0, 87, 0
1, 192254, Note_on_c, 0, 49, 99
1, 192256, Note_off_c, 0, 92, 33
1, 192266, Note_on_c, 0, 80, 101
1, 192271, Note_off_c, 0, 88, 31
1, 192272, Note_on_c, 0, 39, 52
1, 192277, Note_off_c, 0, 49, 64
1, 192278, Note_on_c, 0, 50, 63
1, 192284, Note_on_c, 0, 38, 39
1, 192287, Poly_aftertouch_c, 0, 87, 127
1, 192299, Note_off_c, 0, 50, 61
1, 192301, Note_off_c, 0, 39, 56
1, 192302, Poly_aftertouch_c, 0, 90, 0
1, 192307, Poly_aftertouch_c, 0, 87, 0
1, 192309, Note_off_c, 0, 80, 69
1, 192325, Note_off_c, 0, 38, 45
1, 192369, Note_on_c, 0, 56, 85
1, 192389, Note_off_c, 0, 56, 69
1, 192439, Control_c, 0, 64, 110
1, 192454, Control_c, 0, 64, 80
1, 192462, Note_on_c, 0, 63, 100
1, 192466, Note_on_c, 0, 71, 67
1, 192468, Note_on_c, 0, 59, 96
1, 192468, Control_c, 0, 64, 0
1, 192472, Note_on_c, 0, 75, 79
1, 192475, Note_on_c, 0, 51, 81
1, 192488, Note_on_c, 0, 46, 54
1, 192495, Note_off_c, 0, 59, 57
1, 192498, Control_c, 0, 64, 67
1, 192499, Note_on_c, 0, 49, 28
1, 192512, Control_c, 0, 64, 83
1, 192514, Note_off_c, 0, 46, 55
1, 192527, Control_c, 0, 64, 114
1, 192532, Note_off_c, 0, 51, 54
1, 192532, Note_off_c, 0, 63, 63
1, 192533, Note_off_c, 0, 75, 61
1, 192542, Control_c, 0, 64, 127
1, 192544, Note_off_c, 0, 49, 37
1, 192558, Note_off_c, 0, 71, 61
1, 192573, Poly_aftertouch_c, 0, 54, 0
1, 192601, Control_c, 0, 64, 107
1, 192616, Control_c, 0, 64, 83
1, 192631, Control_c, 0, 64, 56
1, 192646, Control_c, 0, 64, 0
1, 192651, Note_on_c, 0, 58, 87
1, 192656, Note_on_c, 0, 70, 81
1, 192657, Note_on_c, 0, 46, 67
1, 192662, Note_on_c, 0, 63, 82
1, 192670, Note_on_c, 0, 51, 52
1, 192672, Note_off_c, 0, 58, 70
1, 192696, Note_off_c, 0, 46, 63
1, 192698, Note_off_c, 0, 51, 37
1, 192698, Note_off_c, 0, 63, 64
1, 192706, Note_off_c, 0, 70, 52
1, 192746, Note_on_c, 0, 59, 80
1, 192747, Note_on_c, 0, 71, 77
1, 192751, Note_on_c, 0, 63, 70
1, 192756, Note_on_c, 0, 51, 79
1, 192769, Note_off_c, 0, 59, 69
1, 192782, Note_off_c, 0, 63, 67
1, 192783, Note_off_c, 0, 51, 66
1, 192800, Note_off_c, 0, 71, 61
1, 192835, Note_on_c, 0, 61, 102
1, 192837, Note_on_c, 0, 51, 88
1, 192838, Note_on_c, 0, 49, 72
1, 192838, Note_on_c, 0, 63, 99
1, 192838, Control_c, 0, 64, 77
1, 192840, Note_on_c, 0, 75, 88
1, 192847, Note_on_c, 0, 73, 85
1, 192853, Control_c, 0, 64, 120
1, 192868, Control_c, 0, 64, 127
1, 192869, Note_off_c, 0, 49, 66
1, 192892, Note_off_c, 0, 61, 60
1, 192904, Note_off_c, 0, 51, 60
1, 192923, Note_off_c, 0, 75, 65
1, 192936, Note_off_c, 0, 63, 63
1, 192954, Note_off_c, 0, 73, 59
1, 193053, Note_on_c, 0, 51, 87
1, 193053, Note_on_c, 0, 59, 90
1, 193057, Note_on_c, 0, 63, 79
1, 193066, Note_on_c, 0, 71, 58
1, 193068, Control_c, 0, 64, 95
1, 193075, Note_off_c, 0, 59, 69
1, 193083, Control_c, 0, 64, 73
1, 193092, Note_off_c, 0, 63, 66
1, 193094, Note_off_c, 0, 71, 61
1, 193095, Note_off_c, 0, 51, 60
1, 193098, Control_c, 0, 64, 0
1, 193151, Note_on_c, 0, 58, 87
1, 193161, Note_on_c, 0, 63, 78
1, 193162, Note_on_c, 0, 70, 69
1, 193168, Note_on_c, 0, 51, 55
1, 193178, Note_off_c, 0, 58, 65
1, 193186, Note_off_c, 0, 63, 68
1, 193190, Note_off_c, 0, 70, 66
1, 193193, Note_off_c, 0, 51, 59
1, 193246, Note_on_c, 0, 59, 90
1, 193255, Note_on_c, 0, 51, 77
1, 193259, Note_on_c, 0, 63, 86
1, 193270, Note_off_c, 0, 59, 65
1, 193280, Note_off_c, 0, 51, 66
1, 193283, Note_on_c, 0, 72, 26
1, 193293, Note_off_c, 0, 63, 62
1, 193304, Note_off_c, 0, 72, 52
1, 193353, Note_on_c, 0, 58, 75
1, 193355, Note_on_c, 0, 63, 91
1, 193357, Note_on_c, 0, 51, 57
1, 193360, Note_on_c, 0, 70, 59
1, 193375, Note_on_c, 0, 75, 62
1, 193379, Note_off_c, 0, 58, 67
1, 193381, Note_off_c, 0, 51, 58
1, 193396, Note_off_c, 0, 70, 64
1, 193401, Note_off_c, 0, 63, 63
1, 193406, Note_off_c, 0, 75, 67
1, 193419, Note_on_c, 0, 56, 92
1, 193425, Control_c, 0, 64, 68
1, 193432, Note_on_c, 0, 51, 81
1, 193434, Note_on_c, 0, 63, 77
1, 193439, Note_on_c, 0, 44, 62
1, 193439, Note_off_c, 0, 56, 72
1, 193440, Control_c, 0, 64, 110
1, 193441, Note_on_c, 0, 75, 78
1, 193454, Control_c, 0, 64, 127
1, 193456, Note_off_c, 0, 51, 67
1, 193468, Note_off_c, 0, 44, 65
1, 193468, Note_off_c, 0, 63, 64
1, 193469, Note_on_c, 0, 73, 45
1, 193472, Note_on_c, 0, 68, 39
1, 193494, Note_off_c, 0, 73, 58
1, 193495, Note_off_c, 0, 75, 64
1, 193502, Note_off_c, 0, 68, 55
1, 193620, Note_on_c, 0, 44, 94
1, 193622, Note_on_c, 0, 75, 106
1, 193628, Note_on_c, 0, 38, 81
1, 193628, Note_on_c, 0, 80, 97
1, 193628, Note_on_c, 0, 87, 96
1, 193633, Note_on_c, 0, 42, 74
1, 193642, Note_off_c, 0, 87, 75
1, 193643, Note_off_c, 0, 80, 74
1, 193648, Note_off_c, 0, 44, 64
1, 193651, Note_off_c, 0, 38, 67
1, 193652, Note_on_c, 0, 32, 34
1, 193655, Note_off_c, 0, 75, 66
1, 193656, Note_off_c, 0, 42, 63
1, 193697, Note_off_c, 0, 32, 53
1, 193709, Poly_aftertouch_c, 0, 35, 0
1, 193757, Poly_aftertouch_c, 0, 35, 0
1, 193804, Control_c, 0, 64, 103
1, 193818, Control_c, 0, 64, 71
1, 193825, Note_on_c, 0, 63, 87
1, 193828, Note_on_c, 0, 70, 70
1, 193829, Note_on_c, 0, 46, 84
1, 193830, Note_on_c, 0, 58, 86
1, 193833, Control_c, 0, 64, 0
1, 193849, Note_off_c, 0, 70, 58
1, 193854, Note_off_c, 0, 63, 63
1, 193866, Note_off_c, 0, 46, 63
1, 193866, Note_off_c, 0, 58, 60
1, 193902, Note_on_c, 0, 71, 66
1, 193911, Note_on_c, 0, 63, 64
1, 193925, Note_on_c, 0, 57, 63
1, 193929, Note_on_c, 0, 49, 63
1, 193941, Note_off_c, 0, 63, 66
1, 193946, Note_off_c, 0, 57, 62
1, 193952, Note_off_c, 0, 49, 62
1, 193957, Note_off_c, 0, 71, 61
1, 193972, Note_on_c, 0, 51, 3
1, 193973, Note_off_c, 0, 51, 127
1, 193997, Control_c, 0, 64, 85
1, 193999, Note_on_c, 0, 63, 102
1, 194000, Note_on_c, 0, 51, 32
1, 194004, Note_on_c, 0, 75, 92
1, 194006, Note_on_c, 0, 61, 103
1, 194007, Note_on_c, 0, 73, 86
1, 194009, Note_on_c, 0, 49, 76
1, 194012, Control_c, 0, 64, 127
1, 194040, Note_off_c, 0, 49, 65
1, 194040, Note_on_c, 0, 54, 33
1, 194052, Note_off_c, 0, 61, 58
1, 194058, Note_on_c, 0, 68, 15
1, 194076, Note_off_c, 0, 54, 48
1, 194078, Note_off_c, 0, 51, 61
1, 194082, Note_off_c, 0, 63, 60
1, 194092, Note_off_c, 0, 73, 58
1, 194097, Note_off_c, 0, 75, 62
1, 194116, Note_off_c, 0, 68, 50
1, 194204, Note_on_c, 0, 51, 86
1, 194204, Control_c, 0, 64, 104
1, 194207, Note_on_c, 0, 59, 91
1, 194219, Note_on_c, 0, 63, 77
1, 194219, Control_c, 0, 64, 80
1, 194227, Note_off_c, 0, 59, 71
1, 194228, Note_on_c, 0, 71, 49
1, 194234, Control_c, 0, 64, 0
1, 194240, Note_off_c, 0, 63, 67
1, 194243, Note_on_c, 0, 49, 27
1, 194252, Note_off_c, 0, 71, 54
1, 194252, Note_off_c, 0, 51, 61
1, 194268, Note_off_c, 0, 49, 35
1, 194312, Note_on_c, 0, 58, 83
1, 194315, Note_on_c, 0, 70, 76
1, 194318, Note_on_c, 0, 63, 73
1, 194327, Note_on_c, 0, 51, 42
1, 194337, Note_off_c, 0, 58, 68
1, 194344, Note_off_c, 0, 70, 63
1, 194345, Note_off_c, 0, 63, 68
1, 194355, Note_off_c, 0, 51, 49
1, 194399, Note_on_c, 0, 59, 88
1, 194410, Note_on_c, 0, 51, 80
1, 194410, Note_on_c, 0, 71, 71
1, 194417, Note_on_c, 0, 63, 79
1, 194424, Note_off_c, 0, 59, 67
1, 194443, Note_off_c, 0, 51, 67
1, 194454, Note_off_c, 0, 63, 64
1, 194459, Note_off_c, 0, 71, 63
1, 194511, Note_on_c, 0, 58, 74
1, 194518, Note_on_c, 0, 51, 70
1, 194520, Note_on_c, 0, 70, 77
1, 194520, Note_on_c, 0, 63, 80
1, 194537, Note_off_c, 0, 51, 63
1, 194538, Note_off_c, 0, 58, 67
1, 194546, Note_off_c, 0, 63, 68
1, 194547, Note_off_c, 0, 70, 63
1, 194581, Note_on_c, 0, 56, 84
1, 194591, Note_on_c, 0, 51, 85
1, 194596, Note_on_c, 0, 63, 84
1, 194597, Note_on_c, 0, 75, 84
1, 194597, Control_c, 0, 64, 72
1, 194610, Note_off_c, 0, 56, 66
1, 194611, Note_on_c, 0, 44, 57
1, 194612, Control_c, 0, 64, 116
1, 194616, Note_off_c, 0, 51, 66
1, 194627, Control_c, 0, 64, 127
1, 194629, Note_off_c, 0, 63, 64
1, 194642, Note_off_c, 0, 44, 65
1, 194643, Note_on_c, 0, 73, 19
1, 194654, Note_off_c, 0, 75, 66
1, 194683, Note_off_c, 0, 73, 30
1, 194779, Note_on_c, 0, 44, 102
1, 194780, Note_on_c, 0, 75, 105
1, 194783, Note_on_c, 0, 39, 90
1, 194786, Note_on_c, 0, 87, 84
1, 194793, Note_on_c, 0, 81, 77
1, 194794, Note_on_c, 0, 80, 77
1, 194795, Note_off_c, 0, 80, 127
1, 194798, Note_off_c, 0, 87, 69
1, 194801, Note_off_c, 0, 44, 67
1, 194803, Note_on_c, 0, 32, 59
1, 194806, Note_off_c, 0, 39, 66
1, 194806, Note_off_c, 0, 81, 69
1, 194821, Note_off_c, 0, 75, 57
1, 194824, Note_on_c, 0, 85, 18
1, 194825, Note_off_c, 0, 85, 127
1, 194825, Note_on_c, 0, 88, 20
1, 194826, Note_off_c, 0, 88, 127
1, 194830, Note_off_c, 0, 32, 59
1, 194869, Poly_aftertouch_c, 0, 45, 127
1, 194904, Poly_aftertouch_c, 0, 45, 0
1, 194923, Control_c, 0, 64, 102
1, 194938, Control_c, 0, 64, 71
1, 194953, Control_c, 0, 64, 0
1, 194973, Note_on_c, 0, 51, 79
1, 194973, Note_on_c, 0, 63, 76
1, 194976, Note_on_c, 0, 59, 76
1, 194985, Note_on_c, 0, 71, 49
1, 194995, Note_off_c, 0, 59, 70
1, 194996, Note_off_c, 0, 63, 68
1, 195001, Note_off_c, 0, 51, 63
1, 195002, Note_on_c, 0, 49, 33
1, 195006, Note_on_c, 0, 54, 17
1, 195007, Note_off_c, 0, 54, 127
1, 195008, Note_off_c, 0, 71, 57
1, 195030, Note_off_c, 0, 49, 34
1, 195058, Note_on_c, 0, 63, 80
1, 195068, Note_on_c, 0, 70, 78
1, 195075, Note_on_c, 0, 58, 75
1, 195081, Note_on_c, 0, 51, 64
1, 195086, Control_c, 0, 64, 62
1, 195092, Note_off_c, 0, 70, 68
1, 195099, Note_off_c, 0, 63, 65
1, 195101, Note_off_c, 0, 51, 60
1, 195101, Control_c, 0, 64, 85
1, 195102, Note_off_c, 0, 58, 68
1, 195116, Control_c, 0, 64, 127
1, 195124, Note_on_c, 0, 56, 48
1, 195147, Note_on_c, 0, 51, 70
1, 195149, Note_on_c, 0, 75, 88
1, 195152, Note_on_c, 0, 63, 69
1, 195159, Note_on_c, 0, 44, 62
1, 195164, Note_off_c, 0, 56, 64
1, 195179, Note_off_c, 0, 63, 72
1, 195185, Note_off_c, 0, 51, 62
1, 195193, Note_off_c, 0, 44, 66
1, 195203, Note_off_c, 0, 75, 69
1, 195331, Note_on_c, 0, 44, 98
1, 195333, Note_on_c, 0, 80, 115
1, 195337, Note_on_c, 0, 39, 89
1, 195340, Note_on_c, 0, 87, 99
1, 195353, Note_on_c, 0, 91, 64
1, 195354, Note_on_c, 0, 90, 68
1, 195355, Note_off_c, 0, 90, 127
1, 195355, Note_off_c, 0, 87, 72
1, 195362, Note_off_c, 0, 80, 64
1, 195365, Note_off_c, 0, 39, 65
1, 195370, Note_off_c, 0, 44, 65
1, 195370, Note_off_c, 0, 91, 46
1, 195383, Note_on_c, 0, 32, 9
1, 195432, Note_off_c, 0, 32, 47
1, 195508, Control_c, 0, 64, 119
1, 195523, Control_c, 0, 64, 87
1, 195535, Note_on_c, 0, 59, 85
1, 195536, Note_on_c, 0, 51, 83
1, 195537, Note_on_c, 0, 63, 84
1, 195537, Control_c, 0, 64, 0
1, 195546, Note_on_c, 0, 71, 56
1, 195556, Note_off_c, 0, 59, 71
1, 195559, Note_off_c, 0, 63, 71
1, 195568, Note_on_c, 0, 54, 24
1, 195569, Note_off_c, 0, 54, 127
1, 195570, Note_off_c, 0, 51, 64
1, 195578, Note_off_c, 0, 71, 63
1, 195596, Note_on_c, 0, 49, 2
1, 195597, Note_off_c, 0, 49, 127
1, 195629, Note_on_c, 0, 63, 87
1, 195633, Note_on_c, 0, 70, 77
1, 195642, Note_on_c, 0, 51, 67
1, 195642, Note_on_c, 0, 58, 72
1, 195660, Note_off_c, 0, 70, 64
1, 195667, Note_on_c, 0, 56, 28
1, 195668, Note_off_c, 0, 56, 127
1, 195668, Note_off_c, 0, 63, 65
1, 195669, Note_off_c, 0, 51, 65
1, 195671, Note_off_c, 0, 58, 65
1, 195671, Control_c, 0, 64, 71
1, 195685, Control_c, 0, 64, 99
1, 195698, Note_on_c, 0, 56, 42
1, 195700, Control_c, 0, 64, 127
1, 195712, Note_on_c, 0, 51, 82
1, 195715, Note_on_c, 0, 75, 25
1, 195716, Note_on_c, 0, 63, 81
1, 195735, Note_on_c, 0, 44, 56
1, 195737, Note_off_c, 0, 56, 63
1, 195744, Note_off_c, 0, 63, 66
1, 195748, Note_off_c, 0, 51, 58
1, 195768, Note_off_c, 0, 44, 64
1, 195781, Note_off_c, 0, 75, 65
1, 195904, Note_on_c, 0, 83, 111
1, 195905, Note_on_c, 0, 44, 100
1, 195912, Note_on_c, 0, 87, 98
1, 195914, Note_on_c, 0, 39, 82
1, 195918, Note_on_c, 0, 95, 84
1, 195924, Note_on_c, 0, 32, 72
1, 195933, Note_off_c, 0, 87, 74
1, 195936, Note_off_c, 0, 83, 66
1, 195938, Note_off_c, 0, 95, 69
1, 195950, Note_off_c, 0, 44, 64
1, 195951, Note_off_c, 0, 39, 64
1, 195956, Note_off_c, 0, 32, 58
1, 196123, Control_c, 0, 64, 96
1, 196126, Note_on_c, 0, 51, 85
1, 196127, Note_on_c, 0, 59, 82
1, 196130, Note_on_c, 0, 63, 78
1, 196137, Control_c, 0, 64, 73
1, 196144, Note_on_c, 0, 49, 54
1, 196147, Note_on_c, 0, 71, 46
1, 196147, Note_off_c, 0, 59, 70
1, 196150, Note_off_c, 0, 63, 71
1, 196152, Control_c, 0, 64, 0
1, 196163, Note_off_c, 0, 51, 62
1, 196166, Note_on_c, 0, 54, 18
1, 196167, Note_off_c, 0, 54, 127
1, 196169, Note_off_c, 0, 49, 37
1, 196172, Note_off_c, 0, 71, 52
1, 196225, Note_on_c, 0, 63, 95
1, 196233, Note_on_c, 0, 70, 74
1, 196239, Note_on_c, 0, 58, 88
1, 196241, Note_on_c, 0, 51, 75
1, 196261, Note_off_c, 0, 70, 65
1, 196262, Note_off_c, 0, 58, 67
1, 196262, Note_off_c, 0, 63, 64
1, 196265, Note_off_c, 0, 51, 66
1, 196301, Control_c, 0, 64, 75
1, 196312, Note_on_c, 0, 56, 92
1, 196314, Note_on_c, 0, 75, 50
1, 196316, Control_c, 0, 64, 106
1, 196317, Note_on_c, 0, 51, 86
1, 196317, Note_on_c, 0, 63, 87
1, 196331, Control_c, 0, 64, 127
1, 196335, Note_on_c, 0, 44, 64
1, 196339, Note_off_c, 0, 56, 66
1, 196342, Note_off_c, 0, 63, 67
1, 196352, Note_off_c, 0, 51, 60
1, 196365, Note_off_c, 0, 44, 65
1, 196379, Note_off_c, 0, 75, 66
1, 196431, Poly_aftertouch_c, 0, 46, 0
1, 196538, Control_c, 0, 64, 86
1, 196553, Control_c, 0, 64, 0
1, 196558, Note_on_c, 0, 44, 94
1, 196560, Note_on_c, 0, 32, 87
1, 196564, Note_on_c, 0, 39, 89
1, 196565, Note_on_c, 0, 87, 104
1, 196565, Note_on_c, 0, 99, 104
1, 196575, Note_on_c, 0, 92, 100
1, 196601, Note_on_c, 0, 97, 43
1, 196602, Note_off_c, 0, 97, 127
1, 196613, Control_c, 0, 64, 64
1, 196627, Control_c, 0, 64, 89
1, 196642, Control_c, 0, 64, 127
1, 196648, Note_off_c, 0, 32, 60
1, 196699, Note_off_c, 0, 44, 62
1, 196703, Note_off_c, 0, 99, 64
1, 196706, Note_off_c, 0, 87, 57
1, 196712, Note_off_c, 0, 39, 61
1, 196772, Note_off_c, 0, 92, 47
1, 196940, Note_on_c, 0, 92, 105
1, 196940, Note_on_c, 0, 99, 95
1, 196941, Note_on_c, 0, 87, 100
1, 196942, Note_on_c, 0, 56, 91
1, 196944, Note_on_c, 0, 44, 72
1, 196948, Note_on_c, 0, 51, 80
1, 196972, Note_off_c, 0, 44, 66
1, 196989, Note_off_c, 0, 56, 63
1, 197000, Note_off_c, 0, 51, 61
1, 197028, Poly_aftertouch_c, 0, 96, 127
1, 197039, Note_off_c, 0, 99, 63
1, 197040, Note_off_c, 0, 87, 57
1, 197063, Note_off_c, 0, 92, 55
1, 197067, Poly_aftertouch_c, 0, 96, 0
1, 197146, Note_on_c, 0, 99, 95
1, 197146, Note_on_c, 0, 87, 101
1, 197148, Note_on_c, 0, 92, 99
1, 197149, Note_on_c, 0, 68, 85
1, 197168, Note_on_c, 0, 62, 49
1, 197172, Note_off_c, 0, 68, 64
1, 197174, Note_on_c, 0, 56, 36
1, 197192, Note_off_c, 0, 62, 58
1, 197212, Note_off_c, 0, 56, 45
1, 197259, Note_off_c, 0, 87, 59
1, 197271, Note_off_c, 0, 99, 61
1, 197311, Note_off_c, 0, 92, 58
1, 197351, Note_on_c, 0, 92, 80
1, 197352, Note_on_c, 0, 87, 100
1, 197355, Note_on_c, 0, 80, 101
1, 197355, Note_on_c, 0, 99, 102
1, 197361, Note_on_c, 0, 75, 79
1, 197370, Note_on_c, 0, 68, 66
1, 197372, Note_off_c, 0, 80, 67
1, 197380, Note_off_c, 0, 75, 71
1, 197411, Note_off_c, 0, 68, 60
1, 197474, Note_off_c, 0, 87, 59
1, 197500, Note_off_c, 0, 99, 62
1, 197525, Note_off_c, 0, 92, 61
1, 197558, Note_on_c, 0, 92, 75
1, 197560, Note_on_c, 0, 68, 84
1, 197563, Note_on_c, 0, 87, 97
1, 197565, Note_on_c, 0, 63, 83
1, 197565, Note_on_c, 0, 99, 86
1, 197569, Note_on_c, 0, 56, 79
1, 197578, Note_off_c, 0, 68, 74
1, 197581, Note_on_c, 0, 66, 50
1, 197584, Note_off_c, 0, 63, 72
1, 197594, Note_off_c, 0, 56, 66
1, 197603, Note_off_c, 0, 66, 62
1, 197668, Note_off_c, 0, 87, 60
1, 197679, Note_off_c, 0, 99, 61
1, 197718, Note_off_c, 0, 92, 61
1, 197756, Note_on_c, 0, 92, 68
1, 197758, Note_on_c, 0, 56, 93
1, 197762, Note_on_c, 0, 87, 89
1, 197765, Note_on_c, 0, 51, 76
1, 197766, Note_on_c, 0, 44, 75
1, 197768, Note_on_c, 0, 99, 93
1, 197775, Note_off_c, 0, 56, 73
1, 197790, Note_off_c, 0, 51, 64
1, 197790, Note_off_c, 0, 44, 67
1, 197853, Note_off_c, 0, 87, 60
1, 197864, Note_off_c, 0, 99, 66
1, 197908, Note_off_c, 0, 92, 62
1, 197955, Note_on_c, 0, 87, 95
1, 197959, Note_on_c, 0, 44, 98
1, 197963, Note_on_c, 0, 99, 66
1, 197964, Note_on_c, 0, 32, 86
1, 197968, Note_on_c, 0, 39, 72
1, 197974, Note_on_c, 0, 93, 65
1, 197975, Note_off_c, 0, 44, 70
1, 197981, Note_off_c, 0, 99, 66
1, 197985, Note_on_c, 0, 97, 48
1, 197987, Note_off_c, 0, 32, 67
1, 197989, Note_off_c, 0, 39, 65
1, 197992, Note_off_c, 0, 93, 62
1, 198009, Note_off_c, 0, 87, 62
1, 198011, Note_off_c, 0, 97, 36
1, 198061, Note_on_c, 0, 32, 7
1, 198091, Note_off_c, 0, 32, 54
1, 198116, Poly_aftertouch_c, 0, 44, 0
1, 198531, Note_on_c, 0, 63, 98
1, 198534, Note_on_c, 0, 59, 96
1, 198537, Note_on_c, 0, 51, 85
1, 198538, Note_on_c, 0, 44, 64
1, 198538, Note_on_c, 0, 56, 88
1, 198540, Note_on_c, 0, 68, 84
1, 198560, Note_off_c, 0, 56, 69
1, 198567, Note_off_c, 0, 59, 67
1, 198570, Note_off_c, 0, 44, 66
1, 198584, Note_off_c, 0, 63, 69
1, 198595, Note_off_c, 0, 51, 61
1, 198601, Note_off_c, 0, 68, 62
1, 199117, Note_on_c, 0, 80, 99
1, 199118, Note_on_c, 0, 83, 101
1, 199119, Note_on_c, 0, 68, 103
1, 199120, Note_on_c, 0, 92, 89
1, 199123, Note_on_c, 0, 71, 95
1, 199128, Note_on_c, 0, 59, 64
1, 199128, Note_on_c, 0, 63, 78
1, 199129, Note_on_c, 0, 87, 81
1, 199154, Note_off_c, 0, 71, 60
1, 199155, Note_off_c, 0, 59, 54
1, 199160, Note_off_c, 0, 92, 66
1, 199166, Note_off_c, 0, 68, 69
1, 199175, Note_off_c, 0, 87, 61
1, 199179, Note_off_c, 0, 63, 64
1, 199186, Note_off_c, 0, 80, 62
1, 199192, Note_off_c, 0, 83, 63
1, 200735, Control_c, 0, 64, 87
1, 200750, Control_c, 0, 64, 0
1, 200750, End_track
0, 0, End_of_file
