0, 0, Header, 0, 1, 384
1, 0, Start_track
1, 0, Title_t, "La Campanella, by Liszt--Tami Lin  "
1, 0, Text_t, "2008 e-Piano Junior Competition virtual audition round"
1, 0, Text_t, "recorded January and February 2008"
1, 0, Text_t, "http://www.piano-e-competition.com/"
1, 0, Text_t, "File processed for distribution by software from Zenph Studios, Inc., http://www.zenph.com"
1, 0, Instrument_name_t, "Yamaha Disklavier Pro Mark IV concert grand piano, model DCFIIISM4PRO"
1, 0, Sequencer_specific, 39, 67, 113, 0, 1, 0, 1, 0, 76, 97, 32, 67, 97, 109, 112, 97, 110, 101, 108, 108, 97, 32, 32, 32, 84, 97, 109, 105, 32, 76, 105, 110, 32, 32, 32, 32, 32, 32, 32, 32
1, 0, Sequencer_specific, 6, 67, 113, 0, 0, 0, 69
1, 0, System_exclusive, 21, 67, 113, 126, 21, 0, 2, 2, 0, 0, 8, 1, 4, 7, 9, 14, 8, 14, 3, 11, 4, 247
1, 0, Sequencer_specific, 5, 67, 123, 12, 2, 1
1, 0, Tempo, 512820
1, 0, Time_signature, 4, 2, 24, 8
1, 0, System_exclusive, 5, 126, 127, 9, 1, 247
1, 1, System_exclusive, 8, 67, 16, 76, 0, 0, 126, 0, 247
1, 2, System_exclusive, 8, 67, 16, 76, 8, 9, 7, 1, 247
1, 3, Control_c, 0, 0, 0
1, 3, Control_c, 1, 0, 0
1, 3, Control_c, 2, 0, 0
1, 3, Control_c, 3, 0, 0
1, 3, Control_c, 4, 0, 0
1, 3, Control_c, 5, 0, 0
1, 3, Control_c, 6, 0, 0
1, 3, Control_c, 7, 0, 0
1, 3, Control_c, 8, 0, 0
1, 3, Control_c, 9, 0, 127
1, 3, Control_c, 10, 0, 0
1, 3, Control_c, 11, 0, 0
1, 3, Control_c, 12, 0, 0
1, 3, Control_c, 13, 0, 0
1, 3, Control_c, 14, 0, 0
1, 3, Control_c, 15, 0, 0
1, 4, Control_c, 0, 32, 0
1, 4, Control_c, 1, 32, 0
1, 4, Control_c, 2, 32, 0
1, 4, Control_c, 3, 32, 0
1, 4, Control_c, 4, 32, 0
1, 4, Control_c, 5, 32, 0
1, 4, Control_c, 6, 32, 0
1, 4, Control_c, 7, 32, 0
1, 4, Control_c, 8, 32, 0
1, 4, Control_c, 9, 32, 0
1, 4, Control_c, 10, 32, 0
1, 4, Control_c, 11, 32, 0
1, 4, Control_c, 12, 32, 0
1, 4, Control_c, 13, 32, 0
1, 4, Control_c, 14, 32, 0
1, 4, Control_c, 15, 32, 0
1, 5, Program_c, 0, 0
1, 5, Program_c, 1, 0
1, 5, Program_c, 2, 0
1, 5, Program_c, 3, 0
1, 5, Program_c, 4, 0
1, 5, Program_c, 5, 0
1, 5, Program_c, 6, 0
1, 5, Program_c, 7, 0
1, 5, Program_c, 8, 0
1, 5, Program_c, 9, 0
1, 5, Program_c, 10, 0
1, 5, Program_c, 11, 0
1, 5, Program_c, 12, 0
1, 5, Program_c, 13, 0
1, 5, Program_c, 14, 0
1, 5, Program_c, 15, 0
1, 6, Control_c, 0, 7, 100
1, 117, Control_c, 0, 64, 15
1, 229, Control_c, 0, 64, 31
1, 341, Control_c, 0, 64, 46
1, 452, Control_c, 0, 64, 63
1, 564, Control_c, 0, 64, 77
1, 676, Control_c, 0, 64, 94
1, 787, Control_c, 0, 64, 108
1, 899, Control_c, 0, 64, 127
1, 899, Control_c, 1, 7, 100
1, 899, Control_c, 2, 7, 100
1, 899, Control_c, 3, 7, 100
1, 899, Control_c, 4, 7, 100
1, 899, Control_c, 5, 7, 100
1, 899, Control_c, 6, 7, 100
1, 899, Control_c, 7, 7, 100
1, 899, Control_c, 8, 7, 100
1, 899, Control_c, 9, 7, 100
1, 899, Control_c, 10, 7, 100
1, 899, Control_c, 11, 7, 100
1, 899, Control_c, 12, 7, 100
1, 899, Control_c, 13, 7, 100
1, 899, Control_c, 14, 7, 100
1, 899, Control_c, 15, 7, 100
1, 1135, Note_on_c, 0, 63, 35
1, 1150, Note_on_c, 0, 75, 35
1, 1271, Note_off_c, 0, 75, 35
1, 1271, Note_off_c, 0, 63, 41
1, 1399, Note_on_c, 0, 75, 36
1, 1400, Note_on_c, 0, 63, 36
1, 1515, Note_off_c, 0, 63, 33
1, 1521, Note_off_c, 0, 75, 36
1, 1644, Note_on_c, 0, 75, 46
1, 1653, Note_on_c, 0, 63, 42
1, 1839, Note_off_c, 0, 63, 42
1, 1846, Note_off_c, 0, 75, 35
1, 1874, Note_on_c, 0, 99, 53
1, 1880, Note_on_c, 0, 87, 48
1, 1993, Note_off_c, 0, 87, 55
1, 1993, Note_off_c, 0, 99, 52
1, 2112, Note_on_c, 0, 99, 58
1, 2118, Note_on_c, 0, 87, 60
1, 2226, Note_off_c, 0, 87, 55
1, 2226, Note_off_c, 0, 99, 54
1, 2342, Note_on_c, 0, 99, 60
1, 2353, Note_on_c, 0, 87, 54
1, 2483, Note_off_c, 0, 87, 58
1, 2509, Note_off_c, 0, 99, 40
1, 2597, Note_on_c, 0, 63, 45
1, 2599, Note_on_c, 0, 75, 43
1, 2714, Note_off_c, 0, 75, 52
1, 2753, Note_off_c, 0, 63, 35
1, 2843, Note_on_c, 0, 75, 58
1, 2844, Note_on_c, 0, 63, 46
1, 2966, Note_off_c, 0, 63, 37
1, 2971, Note_off_c, 0, 75, 35
1, 3078, Note_on_c, 0, 75, 54
1, 3080, Note_on_c, 0, 63, 50
1, 3270, Note_off_c, 0, 75, 35
1, 3281, Note_off_c, 0, 63, 35
1, 3308, Note_on_c, 0, 99, 62
1, 3314, Note_on_c, 0, 87, 56
1, 3433, Note_off_c, 0, 99, 56
1, 3437, Note_off_c, 0, 87, 57
1, 3551, Note_on_c, 0, 99, 68
1, 3557, Note_on_c, 0, 87, 65
1, 3662, Note_off_c, 0, 87, 55
1, 3667, Note_off_c, 0, 99, 56
1, 3782, Note_on_c, 0, 99, 66
1, 3787, Note_on_c, 0, 87, 62
1, 3936, Note_off_c, 0, 87, 50
1, 3958, Note_off_c, 0, 99, 40
1, 4026, Note_on_c, 0, 63, 41
1, 4035, Note_on_c, 0, 75, 41
1, 4278, Note_off_c, 0, 63, 40
1, 4278, Note_off_c, 0, 75, 35
1, 4279, Note_on_c, 0, 99, 42
1, 4282, Note_on_c, 0, 87, 45
1, 4411, Note_off_c, 0, 87, 52
1, 4434, Note_off_c, 0, 99, 41
1, 4535, Note_on_c, 0, 99, 50
1, 4547, Note_on_c, 0, 87, 48
1, 4744, Note_off_c, 0, 87, 36
1, 4749, Note_off_c, 0, 99, 36
1, 4795, Note_on_c, 0, 63, 36
1, 4815, Note_on_c, 0, 75, 28
1, 5085, Note_off_c, 0, 63, 39
1, 5099, Note_off_c, 0, 75, 38
1, 5156, Note_on_c, 0, 99, 37
1, 5159, Note_on_c, 0, 87, 35
1, 5348, Note_off_c, 0, 99, 43
1, 5361, Note_off_c, 0, 87, 35
1, 5671, Note_on_c, 0, 87, 34
1, 5685, Note_on_c, 0, 99, 37
1, 6146, Note_off_c, 0, 99, 40
1, 6192, Note_off_c, 0, 87, 42
1, 6575, Control_c, 0, 64, 97
1, 6590, Control_c, 0, 64, 81
1, 6604, Control_c, 0, 64, 67
1, 6619, Control_c, 0, 64, 56
1, 6634, Control_c, 0, 64, 48
1, 6649, Control_c, 0, 64, 47
1, 6664, Control_c, 0, 64, 46
1, 6678, Control_c, 0, 64, 43
1, 6693, Control_c, 0, 64, 48
1, 6709, Control_c, 0, 64, 43
1, 6724, Control_c, 0, 64, 37
1, 6739, Control_c, 0, 64, 30
1, 6753, Control_c, 0, 64, 21
1, 6783, Control_c, 0, 64, 0
1, 6842, Control_c, 0, 64, 28
1, 6857, Control_c, 0, 64, 46
1, 6861, Note_on_c, 0, 75, 43
1, 6872, Control_c, 0, 64, 59
1, 6887, Control_c, 0, 64, 64
1, 6901, Control_c, 0, 64, 67
1, 6916, Control_c, 0, 64, 69
1, 6931, Control_c, 0, 64, 73
1, 6946, Control_c, 0, 64, 79
1, 6960, Control_c, 0, 64, 86
1, 6975, Control_c, 0, 64, 94
1, 6984, Note_off_c, 0, 75, 59
1, 6990, Control_c, 0, 64, 101
1, 7001, Note_on_c, 0, 87, 50
1, 7005, Control_c, 0, 64, 107
1, 7019, Control_c, 0, 64, 114
1, 7034, Control_c, 0, 64, 127
1, 7052, Note_off_c, 0, 87, 58
1, 7160, Note_on_c, 0, 87, 72
1, 7208, Note_off_c, 0, 87, 59
1, 7254, Note_on_c, 0, 99, 63
1, 7332, Note_off_c, 0, 99, 60
1, 7362, Note_on_c, 0, 87, 73
1, 7395, Note_off_c, 0, 87, 60
1, 7447, Note_on_c, 0, 99, 63
1, 7523, Note_off_c, 0, 99, 50
1, 7561, Note_on_c, 0, 85, 72
1, 7588, Note_off_c, 0, 85, 63
1, 7639, Note_on_c, 0, 99, 67
1, 7662, Note_on_c, 0, 56, 53
1, 7705, Note_off_c, 0, 99, 39
1, 7710, Control_c, 0, 64, 122
1, 7724, Control_c, 0, 64, 85
1, 7730, Note_on_c, 0, 63, 47
1, 7731, Note_off_c, 0, 56, 58
1, 7739, Control_c, 0, 64, 71
1, 7754, Control_c, 0, 64, 68
1, 7761, Note_off_c, 0, 63, 51
1, 7769, Control_c, 0, 64, 70
1, 7772, Note_on_c, 0, 83, 76
1, 7775, Note_on_c, 0, 71, 59
1, 7783, Control_c, 0, 64, 79
1, 7795, Note_off_c, 0, 83, 65
1, 7798, Control_c, 0, 64, 93
1, 7803, Note_off_c, 0, 71, 63
1, 7813, Control_c, 0, 64, 119
1, 7836, Control_c, 0, 64, 127
1, 7877, Note_on_c, 0, 99, 69
1, 7903, Note_off_c, 0, 99, 59
1, 7987, Note_on_c, 0, 83, 75
1, 8008, Note_off_c, 0, 83, 68
1, 8080, Note_on_c, 0, 99, 74
1, 8116, Note_off_c, 0, 99, 48
1, 8131, Control_c, 0, 64, 111
1, 8146, Control_c, 0, 64, 86
1, 8161, Control_c, 0, 64, 68
1, 8176, Control_c, 0, 64, 53
1, 8190, Control_c, 0, 64, 37
1, 8193, Note_on_c, 0, 82, 80
1, 8205, Control_c, 0, 64, 27
1, 8220, Control_c, 0, 64, 19
1, 8229, Note_off_c, 0, 82, 62
1, 8280, Control_c, 0, 64, 21
1, 8295, Control_c, 0, 64, 46
1, 8298, Note_on_c, 0, 99, 66
1, 8310, Control_c, 0, 64, 59
1, 8311, Note_on_c, 0, 59, 47
1, 8316, Note_off_c, 0, 99, 67
1, 8325, Control_c, 0, 64, 67
1, 8336, Note_off_c, 0, 59, 58
1, 8340, Control_c, 0, 64, 72
1, 8354, Control_c, 0, 64, 79
1, 8357, Note_on_c, 0, 68, 44
1, 8369, Control_c, 0, 64, 88
1, 8384, Control_c, 0, 64, 97
1, 8399, Control_c, 0, 64, 110
1, 8404, Note_on_c, 0, 80, 78
1, 8408, Note_on_c, 0, 75, 71
1, 8414, Control_c, 0, 64, 127
1, 8415, Note_off_c, 0, 68, 56
1, 8424, Note_off_c, 0, 75, 67
1, 8426, Note_off_c, 0, 80, 65
1, 8497, Note_on_c, 0, 99, 78
1, 8520, Note_off_c, 0, 99, 61
1, 8624, Note_on_c, 0, 79, 73
1, 8645, Note_off_c, 0, 79, 69
1, 8730, Note_on_c, 0, 99, 65
1, 8751, Note_off_c, 0, 99, 65
1, 8806, Control_c, 0, 64, 88
1, 8821, Control_c, 0, 64, 68
1, 8833, Note_on_c, 0, 80, 78
1, 8836, Control_c, 0, 64, 53
1, 8851, Control_c, 0, 64, 38
1, 8863, Note_off_c, 0, 80, 61
1, 8866, Control_c, 0, 64, 26
1, 8880, Control_c, 0, 64, 16
1, 8895, Control_c, 0, 64, 0
1, 8935, Note_on_c, 0, 99, 74
1, 8938, Note_on_c, 0, 63, 55
1, 8939, Control_c, 0, 64, 34
1, 8954, Control_c, 0, 64, 56
1, 8959, Note_off_c, 0, 99, 59
1, 8969, Control_c, 0, 64, 67
1, 8984, Control_c, 0, 64, 73
1, 8989, Note_on_c, 0, 70, 55
1, 8993, Note_off_c, 0, 63, 56
1, 8998, Control_c, 0, 64, 80
1, 9013, Control_c, 0, 64, 88
1, 9028, Control_c, 0, 64, 95
1, 9037, Note_off_c, 0, 70, 54
1, 9043, Control_c, 0, 64, 103
1, 9048, Note_on_c, 0, 79, 66
1, 9052, Note_on_c, 0, 82, 78
1, 9058, Control_c, 0, 64, 113
1, 9064, Note_off_c, 0, 79, 68
1, 9073, Control_c, 0, 64, 127
1, 9076, Note_off_c, 0, 82, 65
1, 9148, Note_on_c, 0, 99, 78
1, 9170, Note_off_c, 0, 99, 67
1, 9280, Note_on_c, 0, 78, 43
1, 9304, Note_off_c, 0, 78, 56
1, 9377, Poly_aftertouch_c, 0, 76, 0
1, 9392, Note_on_c, 0, 99, 70
1, 9407, Note_off_c, 0, 99, 66
1, 9497, Note_on_c, 0, 75, 75
1, 9545, Note_off_c, 0, 75, 56
1, 9584, Note_on_c, 0, 87, 62
1, 9599, Note_on_c, 0, 67, 36
1, 9677, Note_off_c, 0, 87, 50
1, 9690, Control_c, 0, 64, 99
1, 9694, Note_off_c, 0, 67, 60
1, 9700, Note_on_c, 0, 70, 66
1, 9701, Note_on_c, 0, 76, 69
1, 9704, Control_c, 0, 64, 72
1, 9717, Note_off_c, 0, 70, 64
1, 9719, Control_c, 0, 64, 52
1, 9730, Note_off_c, 0, 76, 65
1, 9748, Control_c, 0, 64, 0
1, 9798, Note_on_c, 0, 87, 53
1, 9851, Note_off_c, 0, 87, 44
1, 9908, Note_on_c, 0, 75, 75
1, 9931, Note_off_c, 0, 75, 67
1, 10000, Note_on_c, 0, 87, 45
1, 10064, Note_off_c, 0, 87, 55
1, 10117, Note_on_c, 0, 73, 78
1, 10140, Note_off_c, 0, 73, 66
1, 10200, Note_on_c, 0, 87, 60
1, 10241, Note_off_c, 0, 87, 57
1, 10323, Note_on_c, 0, 68, 60
1, 10337, Note_on_c, 0, 71, 74
1, 10349, Note_off_c, 0, 68, 62
1, 10364, Note_off_c, 0, 71, 62
1, 10438, Note_on_c, 0, 87, 65
1, 10464, Note_off_c, 0, 87, 65
1, 10543, Note_on_c, 0, 71, 72
1, 10567, Note_off_c, 0, 71, 66
1, 10643, Note_on_c, 0, 87, 62
1, 10661, Note_off_c, 0, 87, 67
1, 10736, Note_on_c, 0, 70, 72
1, 10763, Note_off_c, 0, 70, 64
1, 10852, Note_on_c, 0, 87, 56
1, 10869, Note_on_c, 0, 59, 52
1, 10871, Note_off_c, 0, 87, 62
1, 10921, Note_on_c, 0, 62, 56
1, 10926, Note_off_c, 0, 59, 58
1, 10955, Note_on_c, 0, 68, 76
1, 10955, Note_off_c, 0, 62, 62
1, 10960, Note_on_c, 0, 65, 62
1, 10979, Note_off_c, 0, 68, 61
1, 10985, Note_off_c, 0, 65, 66
1, 11064, Note_on_c, 0, 87, 69
1, 11090, Note_off_c, 0, 87, 66
1, 11169, Note_on_c, 0, 67, 70
1, 11194, Note_off_c, 0, 67, 66
1, 11275, Note_on_c, 0, 87, 55
1, 11295, Note_off_c, 0, 87, 64
1, 11374, Note_on_c, 0, 68, 61
1, 11395, Note_off_c, 0, 68, 62
1, 11492, Note_on_c, 0, 87, 52
1, 11514, Note_off_c, 0, 87, 60
1, 11595, Control_c, 0, 64, 34
1, 11602, Note_on_c, 0, 63, 40
1, 11605, Note_on_c, 0, 67, 41
1, 11610, Control_c, 0, 64, 55
1, 11613, Note_on_c, 0, 70, 65
1, 11624, Control_c, 0, 64, 64
1, 11639, Control_c, 0, 64, 68
1, 11642, Note_off_c, 0, 70, 63
1, 11652, Note_off_c, 0, 67, 50
1, 11654, Control_c, 0, 64, 73
1, 11667, Note_off_c, 0, 63, 52
1, 11669, Control_c, 0, 64, 81
1, 11684, Control_c, 0, 64, 89
1, 11698, Control_c, 0, 64, 98
1, 11713, Control_c, 0, 64, 108
1, 11728, Control_c, 0, 64, 127
1, 11734, Note_on_c, 0, 87, 61
1, 11767, Note_off_c, 0, 87, 60
1, 11817, Note_on_c, 0, 63, 55
1, 11926, Note_on_c, 0, 75, 65
1, 11940, Note_off_c, 0, 63, 41
1, 11964, Note_off_c, 0, 75, 54
1, 12029, Note_on_c, 0, 75, 62
1, 12066, Note_off_c, 0, 75, 60
1, 12117, Note_on_c, 0, 87, 66
1, 12149, Note_off_c, 0, 87, 62
1, 12244, Note_on_c, 0, 87, 79
1, 12283, Note_off_c, 0, 87, 60
1, 12334, Note_on_c, 0, 99, 69
1, 12373, Control_c, 0, 64, 88
1, 12388, Control_c, 0, 64, 63
1, 12403, Control_c, 0, 64, 34
1, 12418, Control_c, 0, 64, 0
1, 12422, Note_off_c, 0, 99, 59
1, 12452, Note_on_c, 0, 87, 78
1, 12491, Note_off_c, 0, 87, 60
1, 12538, Note_on_c, 0, 99, 66
1, 12617, Note_off_c, 0, 99, 59
1, 12653, Note_on_c, 0, 85, 76
1, 12680, Note_off_c, 0, 85, 61
1, 12729, Note_on_c, 0, 99, 69
1, 12745, Note_on_c, 0, 56, 48
1, 12774, Note_off_c, 0, 99, 44
1, 12788, Control_c, 0, 64, 47
1, 12802, Note_off_c, 0, 56, 58
1, 12803, Control_c, 0, 64, 61
1, 12808, Note_on_c, 0, 63, 47
1, 12818, Control_c, 0, 64, 67
1, 12833, Control_c, 0, 64, 71
1, 12847, Control_c, 0, 64, 78
1, 12853, Note_off_c, 0, 63, 57
1, 12853, Note_on_c, 0, 71, 63
1, 12855, Note_on_c, 0, 83, 79
1, 12862, Control_c, 0, 64, 85
1, 12877, Control_c, 0, 64, 95
1, 12883, Note_off_c, 0, 71, 64
1, 12891, Control_c, 0, 64, 108
1, 12893, Note_off_c, 0, 83, 63
1, 12906, Control_c, 0, 64, 127
1, 12958, Note_on_c, 0, 99, 71
1, 12990, Note_off_c, 0, 99, 57
1, 13076, Note_on_c, 0, 83, 76
1, 13105, Note_off_c, 0, 83, 63
1, 13178, Note_on_c, 0, 99, 71
1, 13211, Control_c, 0, 64, 113
1, 13224, Note_off_c, 0, 99, 43
1, 13226, Control_c, 0, 64, 87
1, 13241, Control_c, 0, 64, 69
1, 13256, Control_c, 0, 64, 55
1, 13270, Control_c, 0, 64, 41
1, 13284, Note_on_c, 0, 82, 81
1, 13285, Control_c, 0, 64, 30
1, 13315, Control_c, 0, 64, 0
1, 13318, Note_off_c, 0, 82, 60
1, 13386, Note_on_c, 0, 59, 52
1, 13404, Control_c, 0, 64, 18
1, 13410, Note_on_c, 0, 99, 39
1, 13419, Control_c, 0, 64, 45
1, 13421, Note_off_c, 0, 59, 62
1, 13434, Control_c, 0, 64, 59
1, 13440, Note_off_c, 0, 99, 55
1, 13449, Control_c, 0, 64, 65
1, 13455, Note_on_c, 0, 68, 44
1, 13457, Poly_aftertouch_c, 0, 97, 127
1, 13463, Control_c, 0, 64, 69
1, 13478, Control_c, 0, 64, 74
1, 13484, Poly_aftertouch_c, 0, 97, 0
1, 13493, Control_c, 0, 64, 81
1, 13495, Note_on_c, 0, 80, 81
1, 13503, Note_on_c, 0, 75, 66
1, 13508, Control_c, 0, 64, 92
1, 13520, Note_off_c, 0, 75, 65
1, 13522, Control_c, 0, 64, 103
1, 13524, Note_off_c, 0, 68, 54
1, 13531, Note_off_c, 0, 80, 60
1, 13537, Control_c, 0, 64, 113
1, 13552, Control_c, 0, 64, 127
1, 13613, Note_on_c, 0, 99, 62
1, 13631, Note_off_c, 0, 99, 63
1, 13709, Note_on_c, 0, 79, 76
1, 13735, Note_off_c, 0, 79, 63
1, 13819, Note_on_c, 0, 99, 75
1, 13841, Note_off_c, 0, 99, 66
1, 13900, Control_c, 0, 64, 101
1, 13915, Control_c, 0, 64, 77
1, 13929, Note_on_c, 0, 80, 75
1, 13930, Control_c, 0, 64, 61
1, 13944, Control_c, 0, 64, 46
1, 13955, Note_off_c, 0, 80, 60
1, 13959, Control_c, 0, 64, 37
1, 13974, Control_c, 0, 64, 33
1, 13989, Control_c, 0, 64, 26
1, 14004, Control_c, 0, 64, 17
1, 14013, Note_on_c, 0, 63, 51
1, 14018, Control_c, 0, 64, 0
1, 14040, Note_on_c, 0, 99, 72
1, 14063, Control_c, 0, 64, 18
1, 14072, Note_on_c, 0, 70, 56
1, 14078, Note_off_c, 0, 99, 48
1, 14078, Control_c, 0, 64, 42
1, 14085, Note_off_c, 0, 63, 58
1, 14093, Control_c, 0, 64, 58
1, 14108, Control_c, 0, 64, 65
1, 14122, Note_off_c, 0, 70, 57
1, 14122, Control_c, 0, 64, 71
1, 14137, Control_c, 0, 64, 77
1, 14138, Note_on_c, 0, 79, 58
1, 14145, Note_on_c, 0, 82, 77
1, 14152, Control_c, 0, 64, 85
1, 14156, Note_off_c, 0, 79, 65
1, 14167, Control_c, 0, 64, 94
1, 14170, Note_off_c, 0, 82, 63
1, 14182, Control_c, 0, 64, 104
1, 14197, Control_c, 0, 64, 116
1, 14212, Control_c, 0, 64, 127
1, 14248, Note_on_c, 0, 99, 78
1, 14263, Note_off_c, 0, 99, 69
1, 14356, Note_on_c, 0, 75, 85
1, 14379, Note_off_c, 0, 75, 64
1, 14465, Note_on_c, 0, 99, 72
1, 14481, Note_off_c, 0, 99, 69
1, 14585, Note_on_c, 0, 75, 76
1, 14657, Note_off_c, 0, 75, 56
1, 14680, Note_on_c, 0, 67, 33
1, 14703, Note_on_c, 0, 87, 50
1, 14753, Control_c, 0, 64, 109
1, 14763, Note_off_c, 0, 87, 56
1, 14767, Control_c, 0, 64, 82
1, 14782, Control_c, 0, 64, 63
1, 14790, Note_off_c, 0, 67, 61
1, 14794, Note_on_c, 0, 76, 72
1, 14797, Control_c, 0, 64, 41
1, 14805, Note_on_c, 0, 70, 55
1, 14812, Control_c, 0, 64, 0
1, 14825, Note_off_c, 0, 76, 62
1, 14827, Note_off_c, 0, 70, 57
1, 14887, Note_on_c, 0, 87, 58
1, 14966, Note_off_c, 0, 87, 56
1, 14996, Note_on_c, 0, 75, 81
1, 15027, Note_off_c, 0, 75, 58
1, 15096, Note_on_c, 0, 87, 54
1, 15164, Note_off_c, 0, 87, 57
1, 15196, Note_on_c, 0, 73, 77
1, 15204, Note_on_c, 0, 75, 63
1, 15223, Note_off_c, 0, 75, 61
1, 15243, Note_off_c, 0, 73, 62
1, 15302, Note_on_c, 0, 87, 56
1, 15399, Note_off_c, 0, 87, 60
1, 15413, Control_c, 0, 64, 18
1, 15422, Note_on_c, 0, 71, 55
1, 15427, Control_c, 0, 64, 49
1, 15428, Note_on_c, 0, 68, 47
1, 15431, Note_on_c, 0, 75, 69
1, 15442, Control_c, 0, 64, 63
1, 15457, Control_c, 0, 64, 69
1, 15458, Note_off_c, 0, 71, 62
1, 15472, Control_c, 0, 64, 76
1, 15473, Note_off_c, 0, 68, 57
1, 15488, Control_c, 0, 64, 84
1, 15489, Note_off_c, 0, 75, 54
1, 15503, Control_c, 0, 64, 93
1, 15517, Control_c, 0, 64, 102
1, 15532, Note_on_c, 0, 87, 59
1, 15532, Control_c, 0, 64, 113
1, 15547, Control_c, 0, 64, 127
1, 15637, Note_on_c, 0, 80, 62
1, 15672, Note_off_c, 0, 87, 44
1, 15729, Note_on_c, 0, 83, 64
1, 15730, Note_off_c, 0, 80, 58
1, 15755, Note_off_c, 0, 83, 67
1, 15769, Control_c, 0, 64, 98
1, 15784, Control_c, 0, 64, 80
1, 15798, Control_c, 0, 64, 66
1, 15813, Control_c, 0, 64, 55
1, 15828, Control_c, 0, 64, 50
1, 15840, Note_on_c, 0, 87, 65
1, 15842, Control_c, 0, 64, 47
1, 15857, Control_c, 0, 64, 43
1, 15872, Control_c, 0, 64, 35
1, 15881, Note_off_c, 0, 87, 59
1, 15887, Control_c, 0, 64, 22
1, 15902, Control_c, 0, 64, 0
1, 15933, Note_on_c, 0, 99, 61
1, 15950, Note_off_c, 0, 99, 63
1, 15975, Control_c, 0, 64, 31
1, 15989, Control_c, 0, 64, 47
1, 16004, Control_c, 0, 64, 59
1, 16004, Control_c, 0, 67, 27
1, 16019, Control_c, 0, 64, 65
1, 16019, Control_c, 0, 67, 47
1, 16033, Control_c, 0, 64, 68
1, 16033, Control_c, 0, 67, 70
1, 16048, Control_c, 0, 64, 73
1, 16048, Control_c, 0, 67, 94
1, 16071, Control_c, 0, 64, 79
1, 16071, Control_c, 0, 67, 120
1, 16084, Note_on_c, 0, 67, 39
1, 16085, Note_on_c, 0, 63, 38
1, 16085, Note_on_c, 0, 73, 40
1, 16086, Control_c, 0, 64, 87
1, 16086, Control_c, 0, 67, 127
1, 16093, Note_on_c, 0, 75, 68
1, 16101, Control_c, 0, 64, 94
1, 16115, Control_c, 0, 64, 100
1, 16130, Control_c, 0, 64, 105
1, 16145, Control_c, 0, 64, 107
1, 16150, Note_off_c, 0, 75, 54
1, 16160, Control_c, 0, 64, 108
1, 16162, Note_off_c, 0, 73, 56
1, 16195, Note_on_c, 0, 87, 61
1, 16237, Note_off_c, 0, 63, 36
1, 16265, Note_off_c, 0, 67, 36
1, 16304, Note_on_c, 0, 79, 61
1, 16313, Note_off_c, 0, 87, 35
1, 16393, Note_off_c, 0, 79, 58
1, 16398, Note_on_c, 0, 82, 69
1, 16398, Control_c, 0, 64, 107
1, 16412, Control_c, 0, 64, 105
1, 16422, Note_off_c, 0, 82, 67
1, 16427, Control_c, 0, 64, 98
1, 16442, Control_c, 0, 64, 86
1, 16456, Control_c, 0, 64, 72
1, 16471, Control_c, 0, 64, 58
1, 16486, Control_c, 0, 64, 45
1, 16501, Control_c, 0, 64, 39
1, 16513, Note_on_c, 0, 87, 60
1, 16516, Control_c, 0, 64, 36
1, 16531, Control_c, 0, 64, 31
1, 16546, Control_c, 0, 64, 24
1, 16552, Note_off_c, 0, 87, 56
1, 16561, Control_c, 0, 64, 0
1, 16625, Note_on_c, 0, 99, 45
1, 16762, Note_on_c, 0, 56, 38
1, 16768, Control_c, 0, 64, 32
1, 16783, Control_c, 0, 64, 50
1, 16787, Note_off_c, 0, 99, 35
1, 16798, Control_c, 0, 64, 61
1, 16820, Control_c, 0, 64, 65
1, 16835, Control_c, 0, 64, 67
1, 16850, Control_c, 0, 64, 71
1, 16862, Note_off_c, 0, 56, 51
1, 16864, Control_c, 0, 64, 75
1, 16879, Control_c, 0, 64, 82
1, 16884, Note_on_c, 0, 63, 45
1, 16894, Control_c, 0, 64, 87
1, 16909, Control_c, 0, 64, 91
1, 16924, Control_c, 0, 64, 94
1, 16938, Control_c, 0, 64, 98
1, 16953, Control_c, 0, 64, 103
1, 16968, Control_c, 0, 64, 109
1, 16969, Note_off_c, 0, 63, 36
1, 16983, Control_c, 0, 64, 118
1, 16987, Note_on_c, 0, 71, 51
1, 16997, Control_c, 0, 64, 127
1, 17025, Note_off_c, 0, 71, 60
1, 17116, Note_on_c, 0, 80, 59
1, 17154, Note_off_c, 0, 80, 57
1, 17231, Note_on_c, 0, 75, 61
1, 17279, Note_off_c, 0, 75, 58
1, 17312, Note_on_c, 0, 87, 62
1, 17339, Note_off_c, 0, 87, 65
1, 17440, Note_on_c, 0, 99, 63
1, 17509, Note_off_c, 0, 99, 38
1, 17526, Note_on_c, 0, 87, 70
1, 17603, Note_off_c, 0, 87, 55
1, 17628, Control_c, 0, 67, 119
1, 17640, Note_on_c, 0, 99, 72
1, 17643, Control_c, 0, 67, 101
1, 17658, Control_c, 0, 67, 75
1, 17673, Control_c, 0, 67, 38
1, 17687, Control_c, 0, 67, 0
1, 17732, Note_on_c, 0, 87, 72
1, 17758, Note_off_c, 0, 99, 37
1, 17791, Control_c, 0, 64, 101
1, 17806, Control_c, 0, 64, 80
1, 17810, Note_off_c, 0, 87, 60
1, 17820, Control_c, 0, 64, 64
1, 17835, Control_c, 0, 64, 49
1, 17842, Note_on_c, 0, 99, 76
1, 17850, Control_c, 0, 64, 40
1, 17865, Control_c, 0, 64, 38
1, 17880, Control_c, 0, 64, 36
1, 17896, Control_c, 0, 64, 33
1, 17905, Note_off_c, 0, 99, 59
1, 17910, Control_c, 0, 64, 30
1, 17925, Control_c, 0, 64, 28
1, 17932, Note_on_c, 0, 85, 66
1, 17940, Control_c, 0, 64, 27
1, 17955, Control_c, 0, 64, 25
1, 17965, Note_off_c, 0, 85, 61
1, 17970, Control_c, 0, 64, 23
1, 17984, Control_c, 0, 64, 20
1, 17999, Control_c, 0, 64, 16
1, 18054, Note_on_c, 0, 85, 66
1, 18064, Note_on_c, 0, 44, 52
1, 18073, Control_c, 0, 64, 30
1, 18078, Note_off_c, 0, 85, 69
1, 18088, Control_c, 0, 64, 51
1, 18090, Note_on_c, 0, 83, 77
1, 18103, Control_c, 0, 64, 65
1, 18111, Note_off_c, 0, 44, 59
1, 18117, Control_c, 0, 64, 71
1, 18132, Control_c, 0, 64, 78
1, 18141, Note_off_c, 0, 83, 62
1, 18147, Control_c, 0, 64, 87
1, 18162, Control_c, 0, 64, 95
1, 18177, Control_c, 0, 64, 103
1, 18191, Control_c, 0, 64, 115
1, 18204, Note_on_c, 0, 99, 71
1, 18206, Control_c, 0, 64, 127
1, 18232, Note_off_c, 0, 99, 62
1, 18295, Note_on_c, 0, 59, 56
1, 18301, Note_on_c, 0, 83, 76
1, 18311, Note_on_c, 0, 51, 44
1, 18337, Note_off_c, 0, 59, 62
1, 18349, Note_off_c, 0, 83, 59
1, 18357, Note_off_c, 0, 51, 57
1, 18418, Note_on_c, 0, 99, 76
1, 18447, Note_off_c, 0, 99, 54
1, 18510, Control_c, 0, 64, 99
1, 18514, Note_on_c, 0, 82, 76
1, 18525, Control_c, 0, 64, 79
1, 18540, Control_c, 0, 64, 63
1, 18546, Note_off_c, 0, 82, 60
1, 18555, Control_c, 0, 64, 47
1, 18569, Control_c, 0, 64, 36
1, 18584, Control_c, 0, 64, 30
1, 18599, Control_c, 0, 64, 24
1, 18624, Note_on_c, 0, 99, 56
1, 18629, Control_c, 0, 64, 0
1, 18645, Note_off_c, 0, 99, 60
1, 18718, Note_on_c, 0, 47, 55
1, 18719, Control_c, 0, 64, 35
1, 18721, Note_on_c, 0, 82, 70
1, 18729, Note_on_c, 0, 80, 76
1, 18733, Control_c, 0, 64, 58
1, 18741, Note_off_c, 0, 82, 70
1, 18748, Control_c, 0, 64, 68
1, 18753, Note_off_c, 0, 47, 61
1, 18763, Control_c, 0, 64, 74
1, 18766, Note_off_c, 0, 80, 62
1, 18778, Control_c, 0, 64, 82
1, 18793, Control_c, 0, 64, 88
1, 18807, Control_c, 0, 64, 94
1, 18822, Control_c, 0, 64, 98
1, 18837, Control_c, 0, 64, 102
1, 18841, Note_on_c, 0, 99, 69
1, 18852, Control_c, 0, 64, 106
1, 18862, Note_off_c, 0, 99, 68
1, 18866, Control_c, 0, 64, 109
1, 18881, Control_c, 0, 64, 110
1, 18944, Note_on_c, 0, 79, 78
1, 18945, Note_on_c, 0, 63, 51
1, 18954, Note_on_c, 0, 56, 48
1, 18968, Note_off_c, 0, 63, 60
1, 18975, Note_off_c, 0, 79, 61
1, 18996, Note_off_c, 0, 56, 51
1, 19059, Note_on_c, 0, 99, 79
1, 19092, Note_off_c, 0, 99, 52
1, 19112, Control_c, 0, 64, 110
1, 19127, Control_c, 0, 64, 102
1, 19141, Control_c, 0, 64, 87
1, 19156, Control_c, 0, 64, 70
1, 19160, Note_on_c, 0, 80, 77
1, 19171, Control_c, 0, 64, 56
1, 19181, Note_off_c, 0, 80, 62
1, 19185, Control_c, 0, 64, 41
1, 19200, Control_c, 0, 64, 34
1, 19215, Control_c, 0, 64, 32
1, 19230, Control_c, 0, 64, 30
1, 19245, Control_c, 0, 64, 28
1, 19257, Note_on_c, 0, 99, 77
1, 19259, Control_c, 0, 64, 25
1, 19274, Control_c, 0, 64, 20
1, 19275, Note_off_c, 0, 99, 69
1, 19348, Control_c, 0, 64, 22
1, 19361, Note_on_c, 0, 79, 66
1, 19363, Control_c, 0, 64, 48
1, 19375, Note_on_c, 0, 51, 54
1, 19375, Note_on_c, 0, 82, 79
1, 19378, Note_off_c, 0, 79, 66
1, 19378, Control_c, 0, 64, 63
1, 19384, Note_on_c, 0, 81, 44
1, 19393, Control_c, 0, 64, 71
1, 19393, Note_off_c, 0, 82, 70
1, 19408, Control_c, 0, 64, 79
1, 19411, Note_off_c, 0, 81, 52
1, 19422, Control_c, 0, 64, 90
1, 19428, Note_off_c, 0, 51, 53
1, 19437, Control_c, 0, 64, 97
1, 19452, Control_c, 0, 64, 106
1, 19467, Control_c, 0, 64, 116
1, 19482, Control_c, 0, 64, 127
1, 19484, Note_on_c, 0, 99, 62
1, 19507, Note_off_c, 0, 99, 60
1, 19595, Note_on_c, 0, 67, 62
1, 19598, Note_on_c, 0, 75, 83
1, 19599, Note_on_c, 0, 58, 55
1, 19619, Note_off_c, 0, 75, 67
1, 19624, Note_off_c, 0, 67, 64
1, 19630, Note_off_c, 0, 58, 60
1, 19706, Note_on_c, 0, 99, 71
1, 19721, Note_off_c, 0, 99, 69
1, 19818, Note_on_c, 0, 75, 69
1, 19874, Note_off_c, 0, 75, 55
1, 19904, Note_on_c, 0, 87, 66
1, 19964, Control_c, 0, 64, 100
1, 19979, Control_c, 0, 64, 78
1, 19994, Note_off_c, 0, 87, 60
1, 19994, Control_c, 0, 64, 60
1, 19998, Note_on_c, 0, 78, 49
1, 20008, Control_c, 0, 64, 34
1, 20009, Note_on_c, 0, 70, 61
1, 20021, Note_on_c, 0, 76, 72
1, 20022, Note_on_c, 0, 67, 49
1, 20023, Control_c, 0, 64, 0
1, 20026, Note_off_c, 0, 78, 62
1, 20045, Note_off_c, 0, 70, 57
1, 20047, Note_off_c, 0, 67, 58
1, 20068, Note_off_c, 0, 76, 61
1, 20119, Note_on_c, 0, 87, 64
1, 20188, Note_off_c, 0, 87, 58
1, 20221, Note_on_c, 0, 75, 73
1, 20227, Note_on_c, 0, 70, 56
1, 20236, Note_on_c, 0, 67, 44
1, 20248, Note_off_c, 0, 70, 63
1, 20257, Note_off_c, 0, 75, 55
1, 20262, Note_off_c, 0, 67, 59
1, 20321, Note_on_c, 0, 87, 55
1, 20385, Note_off_c, 0, 87, 57
1, 20421, Note_on_c, 0, 73, 76
1, 20447, Note_off_c, 0, 73, 61
1, 20509, Note_on_c, 0, 87, 55
1, 20528, Note_off_c, 0, 87, 64
1, 20628, Note_on_c, 0, 68, 54
1, 20639, Note_on_c, 0, 71, 68
1, 20644, Note_on_c, 0, 73, 43
1, 20648, Note_off_c, 0, 68, 62
1, 20670, Note_off_c, 0, 71, 61
1, 20670, Note_off_c, 0, 73, 55
1, 20747, Note_on_c, 0, 87, 59
1, 20776, Note_off_c, 0, 87, 64
1, 20836, Note_on_c, 0, 68, 52
1, 20842, Note_on_c, 0, 71, 69
1, 20857, Note_off_c, 0, 68, 58
1, 20871, Note_off_c, 0, 71, 63
1, 20954, Note_on_c, 0, 87, 61
1, 20972, Note_off_c, 0, 87, 66
1, 21038, Note_on_c, 0, 70, 73
1, 21068, Note_off_c, 0, 70, 61
1, 21151, Note_on_c, 0, 87, 46
1, 21176, Note_off_c, 0, 87, 58
1, 21247, Note_on_c, 0, 65, 56
1, 21249, Note_on_c, 0, 70, 58
1, 21253, Note_on_c, 0, 68, 69
1, 21259, Note_on_c, 0, 62, 41
1, 21263, Note_on_c, 0, 59, 34
1, 21269, Note_off_c, 0, 70, 63
1, 21278, Note_off_c, 0, 65, 62
1, 21278, Note_off_c, 0, 68, 63
1, 21291, Note_off_c, 0, 62, 54
1, 21297, Note_off_c, 0, 59, 52
1, 21378, Note_on_c, 0, 87, 57
1, 21397, Note_off_c, 0, 87, 65
1, 21467, Note_on_c, 0, 67, 72
1, 21479, Note_on_c, 0, 65, 47
1, 21490, Note_off_c, 0, 67, 68
1, 21502, Note_off_c, 0, 65, 59
1, 21506, Note_on_c, 0, 59, 6
1, 21541, Note_off_c, 0, 59, 41
1, 21553, Poly_aftertouch_c, 0, 62, 0
1, 21578, Note_on_c, 0, 87, 60
1, 21597, Note_off_c, 0, 87, 64
1, 21673, Note_on_c, 0, 68, 67
1, 21697, Note_off_c, 0, 68, 65
1, 21776, Note_on_c, 0, 51, 48
1, 21797, Note_on_c, 0, 87, 57
1, 21817, Note_off_c, 0, 87, 65
1, 21831, Control_c, 0, 64, 29
1, 21846, Control_c, 0, 64, 51
1, 21859, Note_off_c, 0, 51, 57
1, 21861, Control_c, 0, 64, 63
1, 21876, Control_c, 0, 64, 69
1, 21891, Control_c, 0, 64, 73
1, 21906, Control_c, 0, 64, 80
1, 21921, Control_c, 0, 64, 87
1, 21926, Note_on_c, 0, 67, 59
1, 21928, Note_on_c, 0, 70, 69
1, 21937, Control_c, 0, 64, 94
1, 21951, Control_c, 0, 64, 100
1, 21966, Control_c, 0, 64, 105
1, 21968, Note_off_c, 0, 70, 56
1, 21968, Note_off_c, 0, 67, 55
1, 21981, Control_c, 0, 64, 109
1, 21995, Control_c, 0, 64, 113
1, 22010, Control_c, 0, 64, 117
1, 22025, Control_c, 0, 64, 127
1, 22079, Note_on_c, 0, 87, 54
1, 22112, Note_off_c, 0, 87, 61
1, 22156, Note_on_c, 0, 63, 63
1, 22259, Note_on_c, 0, 75, 69
1, 22277, Note_off_c, 0, 63, 32
1, 22293, Note_off_c, 0, 75, 59
1, 22379, Note_on_c, 0, 75, 56
1, 22407, Note_off_c, 0, 75, 65
1, 22452, Note_on_c, 0, 87, 68
1, 22483, Note_off_c, 0, 87, 61
1, 22522, Control_c, 0, 64, 103
1, 22536, Control_c, 0, 64, 81
1, 22551, Control_c, 0, 64, 64
1, 22566, Control_c, 0, 64, 46
1, 22575, Note_on_c, 0, 87, 75
1, 22581, Control_c, 0, 64, 23
1, 22596, Control_c, 0, 64, 0
1, 22607, Note_off_c, 0, 87, 64
1, 22655, Note_on_c, 0, 99, 68
1, 22744, Note_off_c, 0, 99, 59
1, 22773, Note_on_c, 0, 87, 80
1, 22827, Note_off_c, 0, 87, 59
1, 22870, Note_on_c, 0, 99, 62
1, 22955, Note_off_c, 0, 99, 59
1, 22987, Note_on_c, 0, 85, 72
1, 23026, Note_off_c, 0, 85, 62
1, 23071, Note_on_c, 0, 99, 68
1, 23110, Note_off_c, 0, 99, 51
1, 23206, Note_on_c, 0, 85, 61
1, 23209, Note_on_c, 0, 44, 47
1, 23211, Control_c, 0, 64, 32
1, 23221, Note_on_c, 0, 83, 69
1, 23226, Control_c, 0, 64, 54
1, 23235, Note_off_c, 0, 85, 65
1, 23241, Control_c, 0, 64, 65
1, 23256, Control_c, 0, 64, 70
1, 23259, Note_off_c, 0, 44, 59
1, 23265, Note_off_c, 0, 83, 62
1, 23271, Control_c, 0, 64, 75
1, 23286, Control_c, 0, 64, 82
1, 23300, Control_c, 0, 64, 91
1, 23315, Control_c, 0, 64, 98
1, 23330, Control_c, 0, 64, 105
1, 23345, Control_c, 0, 64, 110
1, 23354, Note_on_c, 0, 99, 55
1, 23359, Control_c, 0, 64, 116
1, 23374, Control_c, 0, 64, 117
1, 23375, Note_off_c, 0, 99, 64
1, 23450, Note_on_c, 0, 59, 55
1, 23450, Note_on_c, 0, 83, 77
1, 23460, Note_on_c, 0, 51, 47
1, 23488, Note_off_c, 0, 83, 61
1, 23491, Note_off_c, 0, 59, 59
1, 23504, Note_off_c, 0, 51, 58
1, 23523, Control_c, 0, 64, 116
1, 23538, Control_c, 0, 64, 116
1, 23560, Control_c, 0, 64, 115
1, 23570, Note_on_c, 0, 99, 65
1, 23588, Note_off_c, 0, 99, 67
1, 23605, Control_c, 0, 64, 115
1, 23620, Control_c, 0, 64, 111
1, 23634, Control_c, 0, 64, 104
1, 23649, Control_c, 0, 64, 91
1, 23661, Note_on_c, 0, 82, 74
1, 23664, Control_c, 0, 64, 76
1, 23679, Control_c, 0, 64, 62
1, 23694, Note_off_c, 0, 82, 60
1, 23694, Control_c, 0, 64, 48
1, 23709, Control_c, 0, 64, 37
1, 23724, Control_c, 0, 64, 31
1, 23738, Control_c, 0, 64, 26
1, 23753, Note_on_c, 0, 97, 65
1, 23753, Control_c, 0, 64, 20
1, 23778, Note_off_c, 0, 97, 54
1, 23782, Control_c, 0, 64, 0
1, 23856, Note_on_c, 0, 47, 53
1, 23865, Note_on_c, 0, 82, 70
1, 23871, Control_c, 0, 64, 44
1, 23875, Note_on_c, 0, 80, 71
1, 23886, Control_c, 0, 64, 61
1, 23887, Note_off_c, 0, 82, 69
1, 23895, Note_off_c, 0, 47, 61
1, 23901, Control_c, 0, 64, 68
1, 23903, Note_off_c, 0, 80, 57
1, 23916, Control_c, 0, 64, 74
1, 23930, Control_c, 0, 64, 79
1, 23945, Control_c, 0, 64, 83
1, 23960, Control_c, 0, 64, 88
1, 23974, Control_c, 0, 64, 92
1, 23989, Note_on_c, 0, 99, 73
1, 23989, Control_c, 0, 64, 95
1, 24004, Control_c, 0, 64, 98
1, 24010, Note_off_c, 0, 99, 68
1, 24019, Control_c, 0, 64, 99
1, 24075, Note_on_c, 0, 63, 57
1, 24087, Note_on_c, 0, 56, 46
1, 24093, Note_on_c, 0, 79, 76
1, 24099, Note_off_c, 0, 63, 59
1, 24115, Note_off_c, 0, 79, 66
1, 24134, Note_off_c, 0, 56, 44
1, 24194, Note_on_c, 0, 99, 84
1, 24230, Note_off_c, 0, 99, 50
1, 24255, Control_c, 0, 64, 97
1, 24271, Control_c, 0, 64, 92
1, 24286, Control_c, 0, 64, 80
1, 24308, Note_on_c, 0, 80, 79
1, 24308, Control_c, 0, 64, 66
1, 24323, Control_c, 0, 64, 52
1, 24338, Note_off_c, 0, 80, 59
1, 24338, Control_c, 0, 64, 38
1, 24353, Control_c, 0, 64, 34
1, 24368, Control_c, 0, 64, 33
1, 24383, Control_c, 0, 64, 31
1, 24398, Control_c, 0, 64, 28
1, 24410, Note_on_c, 0, 99, 74
1, 24412, Control_c, 0, 64, 22
1, 24424, Note_off_c, 0, 99, 69
1, 24442, Control_c, 0, 64, 0
1, 24516, Control_c, 0, 64, 18
1, 24521, Note_on_c, 0, 79, 58
1, 24531, Control_c, 0, 64, 46
1, 24534, Note_on_c, 0, 80, 67
1, 24541, Note_on_c, 0, 51, 46
1, 24541, Note_off_c, 0, 79, 64
1, 24541, Note_on_c, 0, 82, 77
1, 24546, Control_c, 0, 64, 60
1, 24554, Note_off_c, 0, 80, 63
1, 24560, Control_c, 0, 64, 67
1, 24563, Note_off_c, 0, 82, 68
1, 24575, Control_c, 0, 64, 72
1, 24588, Note_off_c, 0, 51, 57
1, 24590, Control_c, 0, 64, 78
1, 24604, Control_c, 0, 64, 84
1, 24619, Control_c, 0, 64, 89
1, 24634, Control_c, 0, 64, 95
1, 24649, Control_c, 0, 64, 99
1, 24664, Control_c, 0, 64, 103
1, 24678, Control_c, 0, 64, 107
1, 24688, Note_on_c, 0, 99, 16
1, 24693, Control_c, 0, 64, 109
1, 24708, Control_c, 0, 64, 110
1, 24729, Note_off_c, 0, 99, 32
1, 24774, Note_on_c, 0, 58, 52
1, 24776, Note_on_c, 0, 75, 83
1, 24779, Note_on_c, 0, 67, 52
1, 24798, Note_off_c, 0, 75, 67
1, 24799, Note_off_c, 0, 67, 60
1, 24803, Note_off_c, 0, 58, 54
1, 24887, Note_on_c, 0, 99, 69
1, 24904, Note_off_c, 0, 99, 68
1, 24991, Note_on_c, 0, 75, 71
1, 25038, Note_off_c, 0, 75, 56
1, 25072, Control_c, 0, 64, 109
1, 25077, Note_on_c, 0, 87, 67
1, 25132, Control_c, 0, 64, 109
1, 25147, Control_c, 0, 64, 103
1, 25150, Note_on_c, 0, 78, 56
1, 25159, Note_off_c, 0, 87, 56
1, 25161, Control_c, 0, 64, 88
1, 25176, Control_c, 0, 64, 71
1, 25191, Note_off_c, 0, 78, 59
1, 25191, Control_c, 0, 64, 54
1, 25194, Note_on_c, 0, 76, 69
1, 25198, Note_on_c, 0, 70, 48
1, 25199, Note_on_c, 0, 61, 43
1, 25206, Control_c, 0, 64, 28
1, 25221, Control_c, 0, 64, 0
1, 25224, Note_off_c, 0, 76, 63
1, 25226, Note_off_c, 0, 70, 55
1, 25240, Note_off_c, 0, 61, 54
1, 25292, Note_on_c, 0, 92, 77
1, 25334, Note_off_c, 0, 92, 50
1, 25402, Note_on_c, 0, 70, 57
1, 25403, Note_on_c, 0, 75, 82
1, 25408, Note_on_c, 0, 68, 49
1, 25417, Note_on_c, 0, 63, 41
1, 25435, Note_off_c, 0, 75, 58
1, 25439, Note_off_c, 0, 70, 57
1, 25445, Note_off_c, 0, 63, 56
1, 25499, Note_off_c, 0, 68, 35
1, 25508, Note_on_c, 0, 92, 74
1, 25536, Note_off_c, 0, 92, 64
1, 25600, Note_on_c, 0, 70, 61
1, 25618, Note_on_c, 0, 73, 75
1, 25629, Note_on_c, 0, 64, 25
1, 25632, Note_on_c, 0, 68, 35
1, 25641, Note_off_c, 0, 73, 67
1, 25654, Note_off_c, 0, 70, 56
1, 25661, Note_off_c, 0, 68, 52
1, 25666, Note_off_c, 0, 64, 45
1, 25721, Note_on_c, 0, 92, 77
1, 25751, Note_off_c, 0, 92, 56
1, 25876, Note_on_c, 0, 75, 67
1, 25876, Note_on_c, 0, 63, 40
1, 25876, Note_on_c, 0, 71, 47
1, 25881, Control_c, 0, 64, 31
1, 25889, Note_on_c, 0, 68, 32
1, 25896, Control_c, 0, 64, 53
1, 25911, Control_c, 0, 64, 65
1, 25920, Note_off_c, 0, 71, 60
1, 25925, Control_c, 0, 64, 71
1, 25940, Control_c, 0, 64, 78
1, 25955, Control_c, 0, 64, 86
1, 25956, Note_off_c, 0, 75, 55
1, 25970, Control_c, 0, 64, 96
1, 25976, Note_off_c, 0, 68, 53
1, 25984, Control_c, 0, 64, 103
1, 25986, Note_on_c, 0, 87, 60
1, 25996, Note_off_c, 0, 63, 52
1, 25999, Control_c, 0, 64, 108
1, 26014, Control_c, 0, 64, 112
1, 26029, Control_c, 0, 64, 117
1, 26044, Control_c, 0, 64, 120
1, 26095, Note_on_c, 0, 80, 62
1, 26099, Note_off_c, 0, 87, 49
1, 26147, Control_c, 0, 64, 118
1, 26162, Control_c, 0, 64, 109
1, 26177, Control_c, 0, 64, 98
1, 26192, Control_c, 0, 64, 86
1, 26193, Note_on_c, 0, 83, 71
1, 26204, Note_off_c, 0, 80, 59
1, 26207, Control_c, 0, 64, 74
1, 26219, Note_off_c, 0, 83, 65
1, 26222, Control_c, 0, 64, 63
1, 26237, Control_c, 0, 64, 55
1, 26251, Control_c, 0, 64, 50
1, 26266, Control_c, 0, 64, 49
1, 26281, Control_c, 0, 64, 48
1, 26295, Control_c, 0, 64, 46
1, 26310, Control_c, 0, 64, 43
1, 26313, Note_on_c, 0, 87, 65
1, 26325, Control_c, 0, 64, 39
1, 26340, Control_c, 0, 64, 35
1, 26350, Note_off_c, 0, 87, 58
1, 26355, Control_c, 0, 64, 33
1, 26369, Control_c, 0, 64, 31
1, 26399, Control_c, 0, 67, 25
1, 26406, Note_on_c, 0, 99, 64
1, 26410, Note_on_c, 0, 51, 42
1, 26414, Control_c, 0, 64, 33
1, 26414, Control_c, 0, 67, 43
1, 26429, Control_c, 0, 64, 44
1, 26429, Control_c, 0, 67, 64
1, 26434, Note_off_c, 0, 99, 64
1, 26443, Control_c, 0, 64, 56
1, 26443, Control_c, 0, 67, 87
1, 26458, Control_c, 0, 64, 64
1, 26458, Control_c, 0, 67, 112
1, 26473, Control_c, 0, 64, 71
1, 26473, Control_c, 0, 67, 127
1, 26477, Note_off_c, 0, 51, 57
1, 26488, Control_c, 0, 64, 77
1, 26498, Note_on_c, 0, 61, 43
1, 26502, Control_c, 0, 64, 83
1, 26517, Control_c, 0, 64, 86
1, 26532, Control_c, 0, 64, 89
1, 26555, Control_c, 0, 64, 92
1, 26568, Note_on_c, 0, 67, 53
1, 26570, Control_c, 0, 64, 94
1, 26584, Control_c, 0, 64, 98
1, 26588, Note_off_c, 0, 61, 37
1, 26589, Note_off_c, 0, 67, 60
1, 26599, Control_c, 0, 64, 100
1, 26605, Note_on_c, 0, 75, 51
1, 26614, Control_c, 0, 64, 101
1, 26629, Control_c, 0, 64, 102
1, 26633, Note_off_c, 0, 75, 53
1, 26705, Note_on_c, 0, 87, 52
1, 26812, Note_on_c, 0, 79, 58
1, 26822, Control_c, 0, 64, 101
1, 26833, Note_off_c, 0, 87, 34
1, 26837, Control_c, 0, 64, 101
1, 26852, Control_c, 0, 64, 99
1, 26867, Control_c, 0, 64, 98
1, 26881, Control_c, 0, 64, 97
1, 26896, Control_c, 0, 64, 96
1, 26911, Control_c, 0, 64, 96
1, 26925, Note_on_c, 0, 82, 65
1, 26925, Control_c, 0, 64, 95
1, 26932, Note_off_c, 0, 79, 43
1, 26940, Control_c, 0, 64, 93
1, 26952, Note_off_c, 0, 82, 66
1, 26955, Control_c, 0, 64, 89
1, 26970, Control_c, 0, 64, 81
1, 26985, Control_c, 0, 64, 69
1, 27000, Control_c, 0, 64, 60
1, 27015, Control_c, 0, 64, 49
1, 27030, Control_c, 0, 64, 45
1, 27045, Control_c, 0, 64, 42
1, 27060, Control_c, 0, 64, 40
1, 27063, Note_on_c, 0, 87, 45
1, 27074, Control_c, 0, 64, 35
1, 27089, Control_c, 0, 64, 28
1, 27104, Control_c, 0, 64, 21
1, 27104, Note_off_c, 0, 87, 58
1, 27118, Control_c, 0, 64, 16
1, 27163, Control_c, 0, 64, 0
1, 27200, Note_on_c, 0, 99, 45
1, 27306, Note_off_c, 0, 99, 58
1, 27363, Note_on_c, 0, 44, 37
1, 27407, Control_c, 0, 64, 34
1, 27422, Control_c, 0, 64, 52
1, 27437, Control_c, 0, 64, 63
1, 27452, Control_c, 0, 64, 67
1, 27467, Control_c, 0, 64, 70
1, 27471, Note_off_c, 0, 44, 54
1, 27483, Control_c, 0, 64, 75
1, 27497, Control_c, 0, 64, 81
1, 27512, Control_c, 0, 64, 86
1, 27527, Control_c, 0, 64, 90
1, 27541, Note_on_c, 0, 59, 45
1, 27541, Control_c, 0, 64, 93
1, 27556, Control_c, 0, 64, 96
1, 27571, Control_c, 0, 64, 98
1, 27586, Control_c, 0, 64, 101
1, 27601, Control_c, 0, 64, 103
1, 27605, Note_off_c, 0, 59, 40
1, 27615, Control_c, 0, 64, 104
1, 27630, Control_c, 0, 64, 106
1, 27645, Control_c, 0, 64, 107
1, 27660, Control_c, 0, 64, 108
1, 27672, Note_on_c, 0, 63, 47
1, 27675, Control_c, 0, 64, 109
1, 27690, Control_c, 0, 64, 110
1, 27704, Control_c, 0, 64, 110
1, 27719, Control_c, 0, 64, 111
1, 27760, Note_off_c, 0, 63, 52
1, 27766, Note_on_c, 0, 68, 47
1, 27793, Control_c, 0, 64, 111
1, 27841, Note_off_c, 0, 68, 55
1, 27886, Note_on_c, 0, 75, 50
1, 28007, Note_on_c, 0, 80, 52
1, 28022, Note_off_c, 0, 75, 35
1, 28052, Control_c, 0, 64, 112
1, 28067, Control_c, 0, 64, 112
1, 28138, Note_off_c, 0, 80, 37
1, 28153, Note_on_c, 0, 83, 58
1, 28281, Note_off_c, 0, 83, 35
1, 28312, Note_on_c, 0, 87, 60
1, 28363, Note_off_c, 0, 87, 52
1, 28544, Note_on_c, 0, 92, 55
1, 28619, Note_off_c, 0, 92, 63
1, 28920, Control_c, 0, 67, 126
1, 28935, Control_c, 0, 67, 125
1, 28949, Control_c, 0, 67, 124
1, 28964, Control_c, 0, 67, 124
1, 29009, Control_c, 0, 67, 123
1, 29024, Control_c, 0, 67, 123
1, 29039, Control_c, 0, 67, 122
1, 29053, Control_c, 0, 67, 121
1, 29069, Control_c, 0, 64, 113
1, 29069, Control_c, 0, 67, 120
1, 29084, Control_c, 0, 67, 119
1, 29098, Control_c, 0, 64, 113
1, 29098, Control_c, 0, 67, 118
1, 29113, Control_c, 0, 64, 114
1, 29113, Control_c, 0, 67, 116
1, 29128, Control_c, 0, 67, 114
1, 29143, Control_c, 0, 64, 114
1, 29143, Control_c, 0, 67, 111
1, 29158, Control_c, 0, 67, 107
1, 29173, Control_c, 0, 67, 103
1, 29188, Control_c, 0, 67, 97
1, 29202, Control_c, 0, 67, 89
1, 29217, Control_c, 0, 67, 80
1, 29232, Control_c, 0, 67, 68
1, 29247, Control_c, 0, 67, 56
1, 29262, Control_c, 0, 67, 44
1, 29276, Control_c, 0, 67, 34
1, 29291, Control_c, 0, 64, 115
1, 29291, Control_c, 0, 67, 21
1, 29320, Control_c, 0, 67, 0
1, 29527, Control_c, 0, 64, 114
1, 29549, Control_c, 0, 64, 113
1, 29564, Control_c, 0, 64, 110
1, 29579, Control_c, 0, 64, 108
1, 29593, Control_c, 0, 64, 107
1, 29608, Control_c, 0, 64, 105
1, 29623, Control_c, 0, 64, 104
1, 29638, Control_c, 0, 64, 102
1, 29653, Control_c, 0, 64, 100
1, 29668, Control_c, 0, 64, 98
1, 29683, Control_c, 0, 64, 95
1, 29698, Control_c, 0, 64, 92
1, 29713, Control_c, 0, 64, 87
1, 29727, Control_c, 0, 64, 80
1, 29742, Control_c, 0, 64, 69
1, 29757, Control_c, 0, 64, 61
1, 29772, Control_c, 0, 64, 55
1, 29787, Control_c, 0, 64, 53
1, 29801, Control_c, 0, 64, 51
1, 29816, Control_c, 0, 64, 48
1, 29831, Control_c, 0, 64, 42
1, 29845, Control_c, 0, 64, 29
1, 29860, Control_c, 0, 64, 0
1, 30084, Note_on_c, 0, 71, 58
1, 30112, Note_off_c, 0, 71, 66
1, 30256, Note_on_c, 0, 70, 66
1, 30267, Note_on_c, 0, 67, 50
1, 30297, Note_off_c, 0, 70, 58
1, 30305, Note_off_c, 0, 67, 61
1, 30395, Note_on_c, 0, 71, 62
1, 30422, Note_off_c, 0, 71, 66
1, 30517, Note_on_c, 0, 69, 62
1, 30529, Note_on_c, 0, 66, 54
1, 30535, Note_off_c, 0, 69, 66
1, 30551, Note_off_c, 0, 66, 62
1, 30650, Note_on_c, 0, 71, 55
1, 30672, Note_off_c, 0, 71, 62
1, 30773, Note_on_c, 0, 65, 51
1, 30774, Note_on_c, 0, 68, 47
1, 30800, Note_off_c, 0, 68, 55
1, 30812, Note_off_c, 0, 65, 60
1, 30907, Note_on_c, 0, 71, 60
1, 30938, Note_off_c, 0, 71, 62
1, 31079, Note_on_c, 0, 67, 53
1, 31088, Note_on_c, 0, 64, 50
1, 31099, Note_off_c, 0, 67, 61
1, 31121, Note_off_c, 0, 64, 62
1, 31195, Note_on_c, 0, 73, 66
1, 31223, Note_off_c, 0, 73, 66
1, 31242, Note_on_c, 0, 71, 57
1, 31272, Note_off_c, 0, 71, 64
1, 31280, Note_on_c, 0, 70, 63
1, 31334, Note_off_c, 0, 70, 60
1, 31337, Note_on_c, 0, 71, 68
1, 31361, Note_off_c, 0, 71, 67
1, 31379, Note_on_c, 0, 66, 71
1, 31387, Note_on_c, 0, 63, 61
1, 31388, Note_on_c, 0, 59, 56
1, 31406, Note_off_c, 0, 66, 66
1, 31422, Note_off_c, 0, 63, 60
1, 31426, Note_off_c, 0, 59, 61
1, 31494, Note_on_c, 0, 90, 68
1, 31518, Note_off_c, 0, 90, 66
1, 31611, Note_on_c, 0, 66, 68
1, 31616, Note_on_c, 0, 71, 72
1, 31618, Note_on_c, 0, 54, 57
1, 31629, Note_on_c, 0, 63, 37
1, 31629, Note_off_c, 0, 66, 66
1, 31637, Note_off_c, 0, 71, 68
1, 31647, Note_off_c, 0, 54, 54
1, 31658, Note_off_c, 0, 63, 50
1, 31716, Note_on_c, 0, 90, 69
1, 31734, Note_off_c, 0, 90, 69
1, 31850, Note_on_c, 0, 75, 67
1, 31883, Note_on_c, 0, 73, 67
1, 31892, Note_off_c, 0, 75, 62
1, 31931, Note_off_c, 0, 73, 61
1, 31944, Note_on_c, 0, 72, 67
1, 31996, Note_on_c, 0, 73, 71
1, 31998, Note_off_c, 0, 72, 63
1, 32020, Note_off_c, 0, 73, 68
1, 32028, Note_on_c, 0, 66, 74
1, 32034, Note_on_c, 0, 64, 65
1, 32039, Note_on_c, 0, 58, 55
1, 32050, Note_off_c, 0, 66, 68
1, 32069, Note_off_c, 0, 64, 57
1, 32079, Note_off_c, 0, 58, 59
1, 32127, Note_on_c, 0, 90, 70
1, 32153, Note_off_c, 0, 90, 64
1, 32231, Note_on_c, 0, 64, 56
1, 32236, Note_on_c, 0, 73, 79
1, 32237, Note_on_c, 0, 54, 63
1, 32247, Note_on_c, 0, 66, 51
1, 32252, Note_off_c, 0, 64, 62
1, 32258, Note_off_c, 0, 73, 68
1, 32266, Note_off_c, 0, 54, 56
1, 32270, Note_off_c, 0, 66, 60
1, 32332, Note_on_c, 0, 90, 69
1, 32352, Note_off_c, 0, 90, 69
1, 32463, Note_on_c, 0, 76, 70
1, 32499, Note_on_c, 0, 75, 65
1, 32505, Note_off_c, 0, 76, 61
1, 32554, Note_off_c, 0, 75, 60
1, 32559, Note_on_c, 0, 74, 78
1, 32609, Note_on_c, 0, 75, 63
1, 32619, Note_off_c, 0, 74, 60
1, 32631, Note_off_c, 0, 75, 68
1, 32667, Note_on_c, 0, 71, 77
1, 32669, Note_on_c, 0, 59, 62
1, 32687, Note_on_c, 0, 63, 56
1, 32690, Note_off_c, 0, 71, 68
1, 32701, Note_off_c, 0, 59, 62
1, 32719, Note_off_c, 0, 63, 64
1, 32747, Note_on_c, 0, 90, 67
1, 32769, Note_off_c, 0, 90, 69
1, 32878, Note_on_c, 0, 76, 54
1, 32899, Note_off_c, 0, 76, 60
1, 32965, Note_on_c, 0, 74, 73
1, 32968, Note_on_c, 0, 71, 64
1, 32997, Note_off_c, 0, 74, 59
1, 33011, Note_off_c, 0, 71, 55
1, 33060, Note_on_c, 0, 75, 82
1, 33102, Note_off_c, 0, 75, 62
1, 33176, Note_on_c, 0, 73, 75
1, 33179, Note_on_c, 0, 70, 67
1, 33218, Note_off_c, 0, 73, 56
1, 33224, Note_off_c, 0, 70, 58
1, 33278, Note_on_c, 0, 75, 79
1, 33315, Note_off_c, 0, 75, 59
1, 33397, Note_on_c, 0, 72, 66
1, 33402, Note_on_c, 0, 69, 61
1, 33433, Note_off_c, 0, 72, 62
1, 33446, Note_off_c, 0, 69, 55
1, 33490, Note_on_c, 0, 75, 71
1, 33518, Note_off_c, 0, 75, 64
1, 33589, Note_on_c, 0, 71, 62
1, 33602, Note_on_c, 0, 68, 53
1, 33615, Note_off_c, 0, 71, 63
1, 33631, Note_off_c, 0, 68, 62
1, 33697, Note_on_c, 0, 77, 69
1, 33737, Note_on_c, 0, 75, 64
1, 33749, Note_off_c, 0, 77, 57
1, 33778, Note_off_c, 0, 75, 59
1, 33786, Note_on_c, 0, 74, 74
1, 33835, Note_on_c, 0, 75, 71
1, 33845, Note_off_c, 0, 74, 61
1, 33862, Note_off_c, 0, 75, 65
1, 33882, Note_on_c, 0, 70, 79
1, 33890, Note_on_c, 0, 66, 67
1, 33892, Note_on_c, 0, 63, 63
1, 33904, Note_off_c, 0, 70, 67
1, 33919, Note_off_c, 0, 66, 61
1, 33925, Note_off_c, 0, 63, 61
1, 33978, Note_on_c, 0, 94, 77
1, 34001, Note_off_c, 0, 94, 62
1, 34095, Note_on_c, 0, 70, 77
1, 34099, Note_on_c, 0, 75, 87
1, 34110, Note_on_c, 0, 58, 53
1, 34111, Note_on_c, 0, 66, 46
1, 34116, Note_off_c, 0, 70, 67
1, 34122, Note_off_c, 0, 75, 63
1, 34135, Note_off_c, 0, 66, 60
1, 34145, Note_off_c, 0, 58, 50
1, 34200, Note_on_c, 0, 94, 54
1, 34220, Note_off_c, 0, 94, 63
1, 34309, Note_on_c, 0, 78, 77
1, 34355, Note_on_c, 0, 77, 58
1, 34358, Note_off_c, 0, 78, 64
1, 34407, Note_off_c, 0, 77, 59
1, 34408, Note_on_c, 0, 76, 75
1, 34455, Note_on_c, 0, 77, 69
1, 34469, Note_off_c, 0, 76, 63
1, 34493, Note_off_c, 0, 77, 61
1, 34497, Note_on_c, 0, 70, 85
1, 34510, Note_on_c, 0, 68, 65
1, 34518, Note_on_c, 0, 62, 50
1, 34535, Note_off_c, 0, 70, 60
1, 34557, Note_off_c, 0, 62, 60
1, 34566, Note_off_c, 0, 68, 46
1, 34600, Note_on_c, 0, 94, 72
1, 34622, Note_off_c, 0, 94, 65
1, 34706, Note_on_c, 0, 68, 64
1, 34708, Note_on_c, 0, 70, 76
1, 34710, Note_on_c, 0, 77, 81
1, 34720, Note_on_c, 0, 58, 51
1, 34735, Note_off_c, 0, 70, 62
1, 34737, Note_off_c, 0, 68, 58
1, 34744, Note_off_c, 0, 77, 61
1, 34747, Note_off_c, 0, 58, 57
1, 34810, Note_on_c, 0, 94, 74
1, 34832, Note_off_c, 0, 94, 67
1, 34933, Note_on_c, 0, 80, 76
1, 34976, Note_on_c, 0, 78, 70
1, 34982, Note_off_c, 0, 80, 63
1, 35027, Note_on_c, 0, 77, 70
1, 35061, Note_off_c, 0, 78, 0
1, 35075, Note_on_c, 0, 78, 36
1, 35098, Note_off_c, 0, 77, 61
1, 35115, Note_off_c, 0, 78, 64
1, 35131, Note_on_c, 0, 75, 87
1, 35138, Note_on_c, 0, 63, 63
1, 35141, Note_on_c, 0, 66, 68
1, 35162, Note_off_c, 0, 75, 63
1, 35176, Note_off_c, 0, 63, 60
1, 35177, Note_off_c, 0, 66, 56
1, 35220, Note_on_c, 0, 94, 76
1, 35240, Note_off_c, 0, 94, 68
1, 35338, Note_on_c, 0, 78, 84
1, 35367, Note_off_c, 0, 78, 65
1, 35438, Note_on_c, 0, 77, 75
1, 35440, Note_on_c, 0, 74, 72
1, 35487, Note_off_c, 0, 77, 55
1, 35499, Note_off_c, 0, 74, 54
1, 35551, Note_on_c, 0, 78, 91
1, 35593, Note_off_c, 0, 78, 62
1, 35656, Note_on_c, 0, 76, 75
1, 35659, Note_on_c, 0, 73, 73
1, 35683, Note_off_c, 0, 76, 62
1, 35704, Note_off_c, 0, 73, 60
1, 35757, Note_on_c, 0, 78, 91
1, 35788, Note_off_c, 0, 78, 65
1, 35870, Note_on_c, 0, 75, 71
1, 35871, Note_on_c, 0, 72, 71
1, 35910, Note_off_c, 0, 75, 57
1, 35923, Note_off_c, 0, 72, 61
1, 35955, Note_on_c, 0, 78, 85
1, 35995, Note_off_c, 0, 78, 63
1, 36059, Note_on_c, 0, 74, 74
1, 36069, Note_on_c, 0, 71, 60
1, 36090, Note_off_c, 0, 74, 62
1, 36103, Note_off_c, 0, 71, 61
1, 36175, Note_on_c, 0, 80, 75
1, 36205, Note_on_c, 0, 78, 69
1, 36220, Note_off_c, 0, 80, 62
1, 36263, Note_on_c, 0, 77, 76
1, 36265, Note_off_c, 0, 78, 56
1, 36317, Note_on_c, 0, 78, 68
1, 36333, Note_off_c, 0, 77, 62
1, 36355, Note_off_c, 0, 78, 64
1, 36364, Note_on_c, 0, 73, 84
1, 36371, Note_on_c, 0, 66, 65
1, 36371, Note_on_c, 0, 70, 71
1, 36387, Note_off_c, 0, 73, 63
1, 36406, Note_off_c, 0, 66, 57
1, 36411, Note_off_c, 0, 70, 58
1, 36466, Note_on_c, 0, 97, 83
1, 36508, Note_off_c, 0, 97, 52
1, 36578, Note_on_c, 0, 73, 84
1, 36584, Note_on_c, 0, 70, 60
1, 36588, Note_on_c, 0, 61, 58
1, 36589, Note_on_c, 0, 78, 83
1, 36599, Note_off_c, 0, 73, 68
1, 36615, Note_off_c, 0, 70, 62
1, 36622, Note_off_c, 0, 78, 62
1, 36622, Note_off_c, 0, 61, 48
1, 36679, Note_on_c, 0, 97, 77
1, 36696, Note_off_c, 0, 97, 72
1, 36798, Note_on_c, 0, 82, 80
1, 36832, Note_on_c, 0, 80, 76
1, 36846, Note_off_c, 0, 82, 63
1, 36890, Note_off_c, 0, 80, 62
1, 36895, Note_on_c, 0, 79, 69
1, 36952, Note_on_c, 0, 80, 78
1, 36960, Note_off_c, 0, 79, 64
1, 36985, Note_off_c, 0, 80, 64
1, 37004, Note_on_c, 0, 73, 84
1, 37010, Note_on_c, 0, 71, 71
1, 37017, Note_on_c, 0, 65, 53
1, 37035, Note_off_c, 0, 73, 63
1, 37064, Note_off_c, 0, 65, 60
1, 37078, Note_off_c, 0, 71, 45
1, 37105, Note_on_c, 0, 97, 74
1, 37128, Note_off_c, 0, 97, 60
1, 37214, Note_on_c, 0, 71, 68
1, 37224, Note_on_c, 0, 73, 79
1, 37228, Note_on_c, 0, 80, 84
1, 37229, Note_on_c, 0, 61, 50
1, 37252, Note_off_c, 0, 61, 58
1, 37263, Note_off_c, 0, 71, 61
1, 37263, Note_off_c, 0, 80, 62
1, 37270, Note_off_c, 0, 73, 57
1, 37331, Note_on_c, 0, 97, 77
1, 37354, Note_off_c, 0, 97, 66
1, 37449, Note_on_c, 0, 78, 61
1, 37452, Note_on_c, 0, 82, 77
1, 37478, Note_off_c, 0, 78, 64
1, 37483, Note_off_c, 0, 82, 58
1, 37543, Note_on_c, 0, 80, 58
1, 37558, Note_on_c, 0, 83, 70
1, 37562, Note_off_c, 0, 80, 62
1, 37580, Note_off_c, 0, 83, 68
1, 37634, Note_on_c, 0, 66, 68
1, 37660, Note_off_c, 0, 66, 66
1, 37675, Control_c, 0, 64, 55
1, 37689, Control_c, 0, 64, 65
1, 37704, Control_c, 0, 64, 74
1, 37707, Note_on_c, 0, 82, 87
1, 37713, Note_on_c, 0, 85, 78
1, 37719, Control_c, 0, 64, 86
1, 37734, Control_c, 0, 64, 99
1, 37749, Control_c, 0, 64, 116
1, 37764, Control_c, 0, 64, 127
1, 37767, Note_off_c, 0, 82, 58
1, 37809, Note_on_c, 0, 94, 73
1, 37810, Note_on_c, 0, 97, 63
1, 37829, Note_off_c, 0, 85, 33
1, 37833, Note_off_c, 0, 94, 63
1, 37838, Note_off_c, 0, 97, 52
1, 37905, Control_c, 0, 64, 86
1, 37920, Control_c, 0, 64, 64
1, 37925, Note_on_c, 0, 80, 66
1, 37935, Control_c, 0, 64, 42
1, 37950, Control_c, 0, 64, 46
1, 37955, Note_on_c, 0, 83, 58
1, 37963, Note_on_c, 0, 84, 50
1, 37964, Note_off_c, 0, 80, 57
1, 37964, Control_c, 0, 64, 45
1, 37974, Note_off_c, 0, 83, 63
1, 37979, Control_c, 0, 64, 44
1, 37985, Note_off_c, 0, 84, 57
1, 37994, Control_c, 0, 64, 43
1, 38023, Control_c, 0, 64, 43
1, 38038, Note_on_c, 0, 78, 57
1, 38041, Note_on_c, 0, 82, 72
1, 38060, Note_off_c, 0, 78, 63
1, 38064, Note_off_c, 0, 82, 67
1, 38098, Control_c, 0, 64, 42
1, 38113, Control_c, 0, 64, 39
1, 38128, Control_c, 0, 64, 35
1, 38143, Control_c, 0, 64, 30
1, 38148, Note_on_c, 0, 80, 73
1, 38157, Control_c, 0, 64, 21
1, 38172, Control_c, 0, 64, 0
1, 38178, Note_off_c, 0, 80, 58
1, 38217, Note_on_c, 0, 73, 64
1, 38238, Note_on_c, 0, 82, 72
1, 38243, Note_off_c, 0, 73, 64
1, 38264, Note_off_c, 0, 82, 65
1, 38331, Note_on_c, 0, 59, 57
1, 38335, Control_c, 0, 64, 47
1, 38349, Control_c, 0, 64, 63
1, 38353, Note_off_c, 0, 59, 60
1, 38364, Control_c, 0, 64, 70
1, 38379, Control_c, 0, 64, 76
1, 38386, Note_on_c, 0, 83, 76
1, 38394, Control_c, 0, 64, 84
1, 38396, Note_on_c, 0, 75, 79
1, 38409, Control_c, 0, 64, 96
1, 38417, Note_off_c, 0, 75, 60
1, 38424, Control_c, 0, 64, 113
1, 38429, Note_off_c, 0, 83, 59
1, 38439, Control_c, 0, 64, 127
1, 38483, Note_on_c, 0, 95, 72
1, 38496, Note_on_c, 0, 87, 76
1, 38511, Note_off_c, 0, 95, 60
1, 38538, Note_off_c, 0, 87, 59
1, 38595, Control_c, 0, 64, 116
1, 38609, Control_c, 0, 64, 81
1, 38617, Note_on_c, 0, 73, 72
1, 38623, Note_on_c, 0, 82, 82
1, 38624, Control_c, 0, 64, 59
1, 38639, Control_c, 0, 64, 39
1, 38646, Note_off_c, 0, 73, 63
1, 38655, Control_c, 0, 64, 30
1, 38669, Note_off_c, 0, 82, 62
1, 38670, Control_c, 0, 64, 28
1, 38685, Control_c, 0, 64, 25
1, 38700, Control_c, 0, 64, 22
1, 38714, Control_c, 0, 64, 20
1, 38733, Note_on_c, 0, 71, 67
1, 38739, Note_on_c, 0, 80, 69
1, 38763, Note_off_c, 0, 71, 60
1, 38763, Note_off_c, 0, 80, 67
1, 38843, Note_on_c, 0, 78, 72
1, 38846, Note_on_c, 0, 70, 58
1, 38870, Note_off_c, 0, 78, 62
1, 38879, Note_off_c, 0, 70, 58
1, 38892, Control_c, 0, 64, 0
1, 38929, Note_on_c, 0, 71, 63
1, 38944, Note_on_c, 0, 80, 70
1, 38955, Note_off_c, 0, 71, 63
1, 38967, Note_off_c, 0, 80, 66
1, 39055, Control_c, 0, 64, 19
1, 39059, Note_on_c, 0, 82, 78
1, 39063, Note_on_c, 0, 73, 76
1, 39070, Control_c, 0, 64, 50
1, 39079, Note_on_c, 0, 61, 50
1, 39084, Control_c, 0, 64, 65
1, 39089, Note_off_c, 0, 73, 63
1, 39099, Control_c, 0, 64, 73
1, 39103, Note_off_c, 0, 61, 57
1, 39105, Note_off_c, 0, 82, 61
1, 39114, Control_c, 0, 64, 83
1, 39129, Control_c, 0, 64, 101
1, 39144, Control_c, 0, 64, 127
1, 39175, Note_on_c, 0, 85, 76
1, 39175, Note_on_c, 0, 94, 63
1, 39202, Note_off_c, 0, 94, 65
1, 39204, Note_off_c, 0, 85, 60
1, 39246, Control_c, 0, 64, 98
1, 39261, Control_c, 0, 64, 75
1, 39281, Note_on_c, 0, 71, 64
1, 39284, Control_c, 0, 64, 59
1, 39293, Note_on_c, 0, 80, 76
1, 39299, Control_c, 0, 64, 40
1, 39313, Control_c, 0, 64, 31
1, 39319, Note_off_c, 0, 71, 57
1, 39323, Note_off_c, 0, 80, 57
1, 39343, Control_c, 0, 64, 31
1, 39403, Note_on_c, 0, 70, 65
1, 39408, Note_on_c, 0, 78, 59
1, 39432, Note_off_c, 0, 70, 62
1, 39436, Note_off_c, 0, 78, 65
1, 39446, Control_c, 0, 64, 30
1, 39462, Control_c, 0, 64, 30
1, 39477, Control_c, 0, 64, 29
1, 39492, Control_c, 0, 64, 28
1, 39507, Control_c, 0, 64, 27
1, 39509, Note_on_c, 0, 77, 66
1, 39517, Note_on_c, 0, 68, 55
1, 39522, Control_c, 0, 64, 26
1, 39545, Note_off_c, 0, 77, 56
1, 39551, Control_c, 0, 64, 26
1, 39555, Note_off_c, 0, 68, 55
1, 39566, Control_c, 0, 64, 25
1, 39580, Control_c, 0, 64, 25
1, 39595, Control_c, 0, 64, 24
1, 39610, Control_c, 0, 64, 22
1, 39611, Note_on_c, 0, 70, 58
1, 39621, Note_on_c, 0, 78, 62
1, 39625, Control_c, 0, 64, 20
1, 39632, Note_off_c, 0, 70, 61
1, 39640, Control_c, 0, 64, 18
1, 39643, Note_off_c, 0, 78, 63
1, 39654, Control_c, 0, 64, 16
1, 39669, Control_c, 0, 64, 16
1, 39728, Control_c, 0, 64, 17
1, 39732, Note_on_c, 0, 71, 62
1, 39737, Note_on_c, 0, 80, 68
1, 39742, Note_on_c, 0, 61, 43
1, 39743, Control_c, 0, 64, 39
1, 39758, Control_c, 0, 64, 57
1, 39769, Note_off_c, 0, 80, 59
1, 39773, Control_c, 0, 64, 68
1, 39773, Note_off_c, 0, 61, 53
1, 39779, Note_off_c, 0, 71, 48
1, 39788, Control_c, 0, 64, 75
1, 39803, Control_c, 0, 64, 86
1, 39818, Control_c, 0, 64, 98
1, 39833, Control_c, 0, 64, 109
1, 39836, Note_on_c, 0, 92, 73
1, 39840, Note_on_c, 0, 83, 75
1, 39847, Control_c, 0, 64, 118
1, 39862, Control_c, 0, 64, 119
1, 39867, Note_off_c, 0, 92, 57
1, 39875, Note_off_c, 0, 83, 61
1, 39892, Control_c, 0, 64, 117
1, 39907, Control_c, 0, 64, 101
1, 39921, Control_c, 0, 64, 83
1, 39936, Control_c, 0, 64, 67
1, 39951, Control_c, 0, 64, 49
1, 39963, Note_on_c, 0, 66, 49
1, 39966, Control_c, 0, 64, 38
1, 39972, Note_on_c, 0, 75, 66
1, 39980, Control_c, 0, 64, 36
1, 39995, Note_off_c, 0, 66, 52
1, 39995, Control_c, 0, 64, 35
1, 40003, Note_off_c, 0, 75, 61
1, 40010, Control_c, 0, 64, 31
1, 40032, Control_c, 0, 64, 24
1, 40062, Control_c, 0, 64, 0
1, 40066, Note_on_c, 0, 68, 50
1, 40074, Note_on_c, 0, 77, 61
1, 40089, Note_off_c, 0, 68, 56
1, 40103, Note_off_c, 0, 77, 63
1, 40176, Note_on_c, 0, 54, 42
1, 40180, Control_c, 0, 64, 30
1, 40195, Control_c, 0, 64, 52
1, 40206, Note_off_c, 0, 54, 56
1, 40210, Control_c, 0, 64, 64
1, 40225, Control_c, 0, 64, 68
1, 40240, Control_c, 0, 64, 73
1, 40243, Note_on_c, 0, 70, 70
1, 40256, Control_c, 0, 64, 80
1, 40264, Note_on_c, 0, 78, 55
1, 40271, Control_c, 0, 64, 86
1, 40285, Control_c, 0, 64, 92
1, 40293, Note_off_c, 0, 70, 52
1, 40300, Control_c, 0, 64, 95
1, 40315, Control_c, 0, 64, 96
1, 40330, Control_c, 0, 64, 97
1, 40368, Note_on_c, 0, 90, 64
1, 40376, Note_on_c, 0, 82, 56
1, 40390, Note_off_c, 0, 78, 35
1, 40434, Note_off_c, 0, 82, 51
1, 40437, Note_off_c, 0, 90, 58
1, 40448, Control_c, 0, 64, 94
1, 40463, Control_c, 0, 64, 86
1, 40477, Note_on_c, 0, 66, 67
1, 40477, Control_c, 0, 64, 72
1, 40492, Control_c, 0, 64, 58
1, 40507, Control_c, 0, 64, 42
1, 40537, Control_c, 0, 64, 53
1, 40551, Control_c, 0, 64, 63
1, 40566, Control_c, 0, 64, 70
1, 40575, Note_on_c, 0, 78, 70
1, 40581, Control_c, 0, 64, 77
1, 40596, Control_c, 0, 64, 84
1, 40606, Note_off_c, 0, 78, 61
1, 40611, Control_c, 0, 64, 88
1, 40625, Note_off_c, 0, 66, 35
1, 40670, Control_c, 0, 64, 87
1, 40682, Note_on_c, 0, 67, 76
1, 40685, Control_c, 0, 64, 81
1, 40700, Control_c, 0, 64, 69
1, 40715, Control_c, 0, 64, 56
1, 40729, Control_c, 0, 64, 49
1, 40744, Control_c, 0, 64, 52
1, 40759, Control_c, 0, 64, 61
1, 40781, Control_c, 0, 64, 67
1, 40796, Control_c, 0, 64, 72
1, 40800, Note_on_c, 0, 79, 68
1, 40810, Control_c, 0, 64, 79
1, 40821, Note_off_c, 0, 79, 69
1, 40825, Control_c, 0, 64, 85
1, 40840, Control_c, 0, 64, 87
1, 40879, Note_off_c, 0, 67, 54
1, 40885, Control_c, 0, 64, 85
1, 40900, Control_c, 0, 64, 76
1, 40913, Note_on_c, 0, 68, 70
1, 40915, Control_c, 0, 64, 64
1, 40929, Control_c, 0, 64, 57
1, 40944, Control_c, 0, 64, 59
1, 40959, Control_c, 0, 64, 63
1, 40974, Control_c, 0, 64, 68
1, 40980, Note_off_c, 0, 68, 58
1, 40989, Control_c, 0, 64, 74
1, 40994, Note_on_c, 0, 80, 62
1, 41003, Control_c, 0, 64, 81
1, 41018, Control_c, 0, 64, 87
1, 41028, Note_off_c, 0, 80, 59
1, 41033, Control_c, 0, 64, 88
1, 41094, Control_c, 0, 64, 86
1, 41108, Control_c, 0, 64, 79
1, 41112, Note_on_c, 0, 68, 54
1, 41118, Note_on_c, 0, 64, 48
1, 41123, Control_c, 0, 64, 69
1, 41126, Note_on_c, 0, 92, 81
1, 41138, Control_c, 0, 64, 60
1, 41152, Control_c, 0, 64, 59
1, 41167, Control_c, 0, 64, 62
1, 41181, Note_off_c, 0, 64, 47
1, 41182, Control_c, 0, 64, 66
1, 41183, Note_off_c, 0, 92, 61
1, 41197, Control_c, 0, 64, 70
1, 41212, Control_c, 0, 64, 76
1, 41220, Note_on_c, 0, 80, 66
1, 41220, Note_off_c, 0, 68, 36
1, 41226, Control_c, 0, 64, 82
1, 41241, Control_c, 0, 64, 86
1, 41282, Note_off_c, 0, 80, 58
1, 41286, Control_c, 0, 64, 84
1, 41300, Control_c, 0, 64, 77
1, 41315, Control_c, 0, 64, 67
1, 41330, Control_c, 0, 64, 57
1, 41335, Note_on_c, 0, 68, 57
1, 41336, Note_on_c, 0, 92, 68
1, 41340, Note_on_c, 0, 63, 55
1, 41344, Control_c, 0, 64, 56
1, 41359, Control_c, 0, 64, 60
1, 41374, Control_c, 0, 64, 65
1, 41389, Control_c, 0, 64, 69
1, 41392, Note_off_c, 0, 63, 57
1, 41394, Note_off_c, 0, 92, 61
1, 41405, Control_c, 0, 64, 74
1, 41419, Control_c, 0, 64, 79
1, 41421, Note_on_c, 0, 78, 72
1, 41434, Note_off_c, 0, 68, 35
1, 41434, Control_c, 0, 64, 84
1, 41449, Control_c, 0, 64, 85
1, 41481, Note_off_c, 0, 78, 57
1, 41493, Control_c, 0, 64, 83
1, 41508, Control_c, 0, 64, 76
1, 41531, Control_c, 0, 64, 66
1, 41537, Note_on_c, 0, 92, 76
1, 41546, Control_c, 0, 64, 55
1, 41559, Note_on_c, 0, 68, 53
1, 41559, Note_on_c, 0, 61, 43
1, 41560, Control_c, 0, 64, 53
1, 41575, Control_c, 0, 64, 58
1, 41590, Control_c, 0, 64, 64
1, 41591, Note_off_c, 0, 61, 53
1, 41597, Note_off_c, 0, 68, 56
1, 41597, Note_off_c, 0, 92, 63
1, 41605, Control_c, 0, 64, 67
1, 41620, Control_c, 0, 64, 71
1, 41634, Control_c, 0, 64, 76
1, 41643, Note_on_c, 0, 76, 64
1, 41649, Control_c, 0, 64, 79
1, 41664, Note_off_c, 0, 76, 64
1, 41664, Control_c, 0, 64, 81
1, 41694, Control_c, 0, 64, 75
1, 41708, Control_c, 0, 64, 65
1, 41723, Control_c, 0, 64, 50
1, 41738, Control_c, 0, 64, 36
1, 41752, Control_c, 0, 64, 38
1, 41756, Note_on_c, 0, 102, 96
1, 41765, Note_on_c, 0, 75, 59
1, 41767, Control_c, 0, 64, 51
1, 41781, Note_off_c, 0, 102, 62
1, 41782, Control_c, 0, 64, 62
1, 41790, Note_off_c, 0, 75, 58
1, 41797, Control_c, 0, 64, 69
1, 41812, Control_c, 0, 64, 75
1, 41827, Control_c, 0, 64, 81
1, 41842, Control_c, 0, 64, 83
1, 41875, Note_on_c, 0, 80, 68
1, 41900, Note_off_c, 0, 80, 65
1, 41969, Note_on_c, 0, 73, 65
1, 41985, Note_on_c, 0, 100, 88
1, 41994, Note_off_c, 0, 73, 68
1, 42019, Note_off_c, 0, 100, 61
1, 42095, Control_c, 0, 64, 81
1, 42098, Note_on_c, 0, 80, 70
1, 42102, Note_on_c, 0, 56, 50
1, 42110, Control_c, 0, 64, 73
1, 42122, Note_off_c, 0, 80, 66
1, 42124, Control_c, 0, 64, 61
1, 42128, Note_off_c, 0, 56, 58
1, 42139, Control_c, 0, 64, 52
1, 42154, Control_c, 0, 64, 53
1, 42168, Control_c, 0, 64, 60
1, 42183, Control_c, 0, 64, 64
1, 42194, Note_on_c, 0, 72, 65
1, 42196, Note_on_c, 0, 99, 99
1, 42198, Control_c, 0, 64, 69
1, 42213, Control_c, 0, 64, 74
1, 42227, Note_off_c, 0, 72, 60
1, 42228, Control_c, 0, 64, 81
1, 42235, Note_off_c, 0, 99, 63
1, 42242, Control_c, 0, 64, 85
1, 42257, Control_c, 0, 64, 85
1, 42310, Control_c, 0, 64, 86
1, 42315, Note_on_c, 0, 80, 70
1, 42324, Control_c, 0, 64, 87
1, 42339, Control_c, 0, 64, 87
1, 42340, Note_off_c, 0, 80, 63
1, 42354, Control_c, 0, 64, 88
1, 42369, Control_c, 0, 64, 89
1, 42383, Control_c, 0, 64, 90
1, 42398, Control_c, 0, 64, 92
1, 42402, Note_on_c, 0, 70, 64
1, 42413, Control_c, 0, 64, 93
1, 42414, Note_on_c, 0, 97, 85
1, 42428, Control_c, 0, 64, 96
1, 42443, Control_c, 0, 64, 98
1, 42457, Control_c, 0, 64, 100
1, 42463, Note_off_c, 0, 97, 63
1, 42472, Control_c, 0, 64, 101
1, 42487, Control_c, 0, 64, 103
1, 42489, Note_off_c, 0, 70, 36
1, 42501, Control_c, 0, 64, 105
1, 42516, Control_c, 0, 64, 107
1, 42520, Note_on_c, 0, 80, 69
1, 42531, Control_c, 0, 64, 108
1, 42545, Note_off_c, 0, 80, 63
1, 42546, Control_c, 0, 64, 109
1, 42575, Control_c, 0, 64, 110
1, 42611, Note_on_c, 0, 72, 58
1, 42626, Note_on_c, 0, 99, 98
1, 42650, Note_off_c, 0, 72, 60
1, 42670, Note_off_c, 0, 99, 63
1, 42739, Note_on_c, 0, 80, 66
1, 42766, Note_off_c, 0, 80, 66
1, 42784, Control_c, 0, 64, 108
1, 42799, Control_c, 0, 64, 103
1, 42814, Control_c, 0, 64, 87
1, 42829, Control_c, 0, 64, 69
1, 42840, Note_on_c, 0, 73, 65
1, 42843, Control_c, 0, 64, 51
1, 42846, Note_on_c, 0, 61, 47
1, 42858, Note_on_c, 0, 100, 70
1, 42858, Control_c, 0, 64, 44
1, 42867, Note_on_c, 0, 98, 70
1, 42873, Control_c, 0, 64, 51
1, 42876, Note_off_c, 0, 61, 61
1, 42885, Note_off_c, 0, 73, 61
1, 42885, Note_off_c, 0, 100, 64
1, 42886, Note_off_c, 0, 98, 66
1, 42888, Control_c, 0, 64, 61
1, 42902, Control_c, 0, 64, 68
1, 42916, Control_c, 0, 64, 77
1, 42931, Control_c, 0, 64, 89
1, 42946, Control_c, 0, 64, 99
1, 42961, Control_c, 0, 64, 100
1, 42964, Note_on_c, 0, 80, 71
1, 42991, Note_off_c, 0, 80, 61
1, 43082, Note_on_c, 0, 97, 81
1, 43110, Note_on_c, 0, 77, 33
1, 43112, Note_on_c, 0, 76, 49
1, 43130, Note_off_c, 0, 97, 63
1, 43141, Note_off_c, 0, 77, 51
1, 43144, Note_off_c, 0, 76, 62
1, 43188, Note_on_c, 0, 80, 71
1, 43210, Note_off_c, 0, 80, 67
1, 43220, Control_c, 0, 64, 99
1, 43235, Control_c, 0, 64, 94
1, 43250, Control_c, 0, 64, 84
1, 43265, Control_c, 0, 64, 69
1, 43279, Control_c, 0, 64, 54
1, 43289, Note_on_c, 0, 67, 60
1, 43294, Control_c, 0, 64, 36
1, 43309, Control_c, 0, 64, 39
1, 43323, Control_c, 0, 64, 55
1, 43338, Control_c, 0, 64, 64
1, 43353, Control_c, 0, 64, 70
1, 43368, Control_c, 0, 64, 77
1, 43383, Control_c, 0, 64, 83
1, 43394, Note_on_c, 0, 79, 61
1, 43398, Control_c, 0, 64, 85
1, 43398, Control_c, 0, 67, 18
1, 43413, Control_c, 0, 64, 86
1, 43413, Control_c, 0, 67, 29
1, 43416, Note_off_c, 0, 79, 61
1, 43428, Control_c, 0, 67, 43
1, 43443, Control_c, 0, 67, 62
1, 43458, Control_c, 0, 67, 84
1, 43473, Control_c, 0, 64, 84
1, 43473, Control_c, 0, 67, 111
1, 43488, Control_c, 0, 64, 77
1, 43488, Control_c, 0, 67, 127
1, 43492, Note_off_c, 0, 67, 35
1, 43502, Control_c, 0, 64, 65
1, 43517, Control_c, 0, 64, 51
1, 43518, Note_on_c, 0, 66, 57
1, 43532, Control_c, 0, 64, 51
1, 43547, Control_c, 0, 64, 57
1, 43562, Control_c, 0, 64, 63
1, 43567, Note_off_c, 0, 66, 56
1, 43577, Control_c, 0, 64, 67
1, 43592, Control_c, 0, 64, 71
1, 43600, Note_on_c, 0, 78, 56
1, 43607, Control_c, 0, 64, 76
1, 43621, Control_c, 0, 64, 82
1, 43631, Note_off_c, 0, 78, 63
1, 43636, Control_c, 0, 64, 84
1, 43694, Control_c, 0, 64, 83
1, 43709, Control_c, 0, 64, 78
1, 43718, Note_on_c, 0, 66, 41
1, 43724, Control_c, 0, 64, 66
1, 43729, Note_on_c, 0, 63, 37
1, 43733, Note_on_c, 0, 90, 73
1, 43738, Control_c, 0, 64, 55
1, 43753, Control_c, 0, 64, 51
1, 43776, Control_c, 0, 64, 55
1, 43780, Note_off_c, 0, 63, 55
1, 43785, Note_off_c, 0, 90, 46
1, 43791, Control_c, 0, 64, 62
1, 43806, Control_c, 0, 64, 66
1, 43814, Note_off_c, 0, 66, 42
1, 43820, Control_c, 0, 64, 71
1, 43831, Note_on_c, 0, 78, 55
1, 43835, Control_c, 0, 64, 77
1, 43850, Control_c, 0, 64, 82
1, 43865, Control_c, 0, 64, 83
1, 43879, Note_off_c, 0, 78, 55
1, 43880, Control_c, 0, 64, 82
1, 43894, Control_c, 0, 64, 77
1, 43909, Control_c, 0, 64, 67
1, 43924, Control_c, 0, 64, 59
1, 43936, Note_on_c, 0, 66, 48
1, 43939, Control_c, 0, 64, 60
1, 43940, Note_on_c, 0, 61, 37
1, 43942, Note_on_c, 0, 90, 67
1, 43953, Control_c, 0, 64, 64
1, 43968, Control_c, 0, 64, 67
1, 43971, Note_off_c, 0, 61, 54
1, 43972, Note_off_c, 0, 66, 61
1, 43983, Control_c, 0, 64, 72
1, 43998, Control_c, 0, 64, 77
1, 44003, Note_off_c, 0, 90, 57
1, 44013, Control_c, 0, 64, 82
1, 44027, Note_on_c, 0, 76, 66
1, 44027, Control_c, 0, 64, 83
1, 44075, Note_off_c, 0, 76, 61
1, 44086, Control_c, 0, 64, 82
1, 44101, Control_c, 0, 64, 77
1, 44116, Control_c, 0, 64, 67
1, 44131, Control_c, 0, 64, 52
1, 44141, Note_on_c, 0, 66, 45
1, 44142, Note_on_c, 0, 90, 70
1, 44146, Control_c, 0, 64, 44
1, 44149, Note_on_c, 0, 59, 45
1, 44161, Control_c, 0, 64, 47
1, 44176, Control_c, 0, 64, 57
1, 44178, Note_off_c, 0, 59, 56
1, 44191, Control_c, 0, 64, 64
1, 44191, Note_off_c, 0, 66, 56
1, 44204, Note_off_c, 0, 90, 60
1, 44206, Control_c, 0, 64, 69
1, 44220, Control_c, 0, 64, 75
1, 44235, Control_c, 0, 64, 84
1, 44241, Note_on_c, 0, 75, 58
1, 44250, Control_c, 0, 64, 88
1, 44260, Note_off_c, 0, 75, 65
1, 44265, Control_c, 0, 64, 88
1, 44295, Control_c, 0, 64, 89
1, 44310, Control_c, 0, 64, 90
1, 44325, Control_c, 0, 64, 91
1, 44340, Control_c, 0, 64, 93
1, 44355, Control_c, 0, 64, 93
1, 44366, Note_on_c, 0, 100, 81
1, 44369, Control_c, 0, 64, 94
1, 44384, Control_c, 0, 64, 95
1, 44385, Note_on_c, 0, 73, 36
1, 44385, Note_off_c, 0, 100, 70
1, 44399, Control_c, 0, 64, 96
1, 44414, Control_c, 0, 64, 97
1, 44415, Note_off_c, 0, 73, 52
1, 44487, Note_on_c, 0, 78, 63
1, 44505, Note_off_c, 0, 78, 64
1, 44540, Control_c, 0, 64, 96
1, 44554, Control_c, 0, 64, 94
1, 44569, Control_c, 0, 64, 93
1, 44579, Note_on_c, 0, 71, 57
1, 44599, Note_off_c, 0, 71, 61
1, 44599, Note_on_c, 0, 99, 90
1, 44627, Note_off_c, 0, 99, 58
1, 44673, Control_c, 0, 64, 92
1, 44688, Control_c, 0, 64, 85
1, 44702, Control_c, 0, 64, 71
1, 44717, Control_c, 0, 64, 56
1, 44721, Note_on_c, 0, 54, 45
1, 44721, Note_on_c, 0, 78, 65
1, 44732, Control_c, 0, 64, 49
1, 44747, Control_c, 0, 64, 54
1, 44748, Note_off_c, 0, 78, 66
1, 44751, Note_off_c, 0, 54, 57
1, 44762, Control_c, 0, 64, 61
1, 44776, Control_c, 0, 64, 65
1, 44791, Control_c, 0, 64, 69
1, 44806, Control_c, 0, 64, 75
1, 44816, Note_on_c, 0, 70, 62
1, 44821, Control_c, 0, 64, 81
1, 44828, Note_on_c, 0, 97, 85
1, 44836, Control_c, 0, 64, 85
1, 44850, Control_c, 0, 64, 86
1, 44861, Note_off_c, 0, 70, 52
1, 44867, Note_off_c, 0, 97, 60
1, 44880, Control_c, 0, 64, 87
1, 44894, Control_c, 0, 64, 88
1, 44909, Control_c, 0, 64, 89
1, 44924, Control_c, 0, 64, 91
1, 44939, Control_c, 0, 64, 91
1, 44942, Note_on_c, 0, 78, 66
1, 44969, Note_off_c, 0, 78, 64
1, 45031, Note_on_c, 0, 68, 58
1, 45052, Note_on_c, 0, 96, 66
1, 45063, Note_on_c, 0, 95, 64
1, 45071, Note_off_c, 0, 68, 55
1, 45074, Note_off_c, 0, 96, 60
1, 45080, Note_off_c, 0, 95, 63
1, 45088, Control_c, 0, 64, 92
1, 45118, Control_c, 0, 64, 92
1, 45152, Note_on_c, 0, 78, 70
1, 45175, Note_off_c, 0, 78, 66
1, 45241, Note_on_c, 0, 70, 52
1, 45268, Note_on_c, 0, 97, 85
1, 45290, Note_off_c, 0, 70, 47
1, 45304, Note_off_c, 0, 97, 52
1, 45362, Control_c, 0, 64, 92
1, 45383, Note_on_c, 0, 78, 67
1, 45412, Note_off_c, 0, 78, 63
1, 45466, Control_c, 0, 64, 91
1, 45481, Control_c, 0, 64, 86
1, 45496, Control_c, 0, 64, 76
1, 45511, Control_c, 0, 64, 64
1, 45522, Note_on_c, 0, 71, 51
1, 45523, Note_on_c, 0, 59, 41
1, 45525, Control_c, 0, 64, 53
1, 45529, Note_on_c, 0, 99, 82
1, 45540, Control_c, 0, 64, 51
1, 45555, Control_c, 0, 64, 53
1, 45557, Note_off_c, 0, 99, 57
1, 45562, Note_off_c, 0, 59, 56
1, 45570, Control_c, 0, 64, 59
1, 45585, Control_c, 0, 64, 64
1, 45591, Note_off_c, 0, 71, 49
1, 45599, Control_c, 0, 64, 67
1, 45614, Control_c, 0, 64, 72
1, 45629, Control_c, 0, 64, 79
1, 45643, Control_c, 0, 64, 85
1, 45658, Control_c, 0, 64, 88
1, 45662, Note_on_c, 0, 78, 63
1, 45695, Note_off_c, 0, 78, 61
1, 45717, Control_c, 0, 64, 88
1, 45780, Note_on_c, 0, 95, 79
1, 45790, Note_on_c, 0, 75, 55
1, 45818, Note_off_c, 0, 75, 52
1, 45825, Note_off_c, 0, 95, 60
1, 45893, Note_on_c, 0, 78, 65
1, 45920, Note_off_c, 0, 78, 65
1, 45941, Control_c, 0, 64, 88
1, 45955, Control_c, 0, 64, 86
1, 45970, Control_c, 0, 64, 77
1, 45970, Control_c, 0, 67, 120
1, 45985, Control_c, 0, 64, 64
1, 45985, Control_c, 0, 67, 103
1, 45993, Note_on_c, 0, 62, 63
1, 46000, Control_c, 0, 64, 49
1, 46000, Control_c, 0, 67, 79
1, 46022, Control_c, 0, 64, 46
1, 46022, Control_c, 0, 67, 58
1, 46037, Control_c, 0, 64, 50
1, 46037, Control_c, 0, 67, 37
1, 46052, Control_c, 0, 64, 58
1, 46052, Control_c, 0, 67, 20
1, 46067, Control_c, 0, 64, 63
1, 46067, Control_c, 0, 67, 0
1, 46082, Control_c, 0, 64, 68
1, 46096, Control_c, 0, 64, 73
1, 46105, Note_on_c, 0, 74, 72
1, 46111, Control_c, 0, 64, 80
1, 46126, Control_c, 0, 64, 85
1, 46140, Note_off_c, 0, 74, 58
1, 46140, Control_c, 0, 64, 86
1, 46179, Note_off_c, 0, 62, 0
1, 46185, Control_c, 0, 64, 83
1, 46200, Control_c, 0, 64, 74
1, 46212, Note_on_c, 0, 63, 68
1, 46215, Poly_aftertouch_c, 0, 62, 0
1, 46215, Control_c, 0, 64, 62
1, 46230, Control_c, 0, 64, 54
1, 46245, Control_c, 0, 64, 56
1, 46260, Control_c, 0, 64, 61
1, 46274, Control_c, 0, 64, 65
1, 46280, Note_off_c, 0, 63, 57
1, 46289, Control_c, 0, 64, 69
1, 46298, Note_on_c, 0, 75, 63
1, 46304, Control_c, 0, 64, 74
1, 46319, Control_c, 0, 64, 79
1, 46332, Note_off_c, 0, 75, 59
1, 46334, Control_c, 0, 64, 82
1, 46348, Control_c, 0, 64, 83
1, 46393, Control_c, 0, 64, 81
1, 46408, Control_c, 0, 64, 76
1, 46409, Note_on_c, 0, 63, 54
1, 46413, Note_on_c, 0, 55, 50
1, 46422, Control_c, 0, 64, 66
1, 46429, Note_on_c, 0, 87, 80
1, 46437, Control_c, 0, 64, 54
1, 46452, Control_c, 0, 64, 48
1, 46466, Control_c, 0, 64, 51
1, 46479, Note_off_c, 0, 63, 53
1, 46481, Control_c, 0, 64, 60
1, 46484, Note_off_c, 0, 87, 58
1, 46489, Note_off_c, 0, 55, 54
1, 46496, Control_c, 0, 64, 64
1, 46511, Control_c, 0, 64, 68
1, 46525, Note_on_c, 0, 75, 61
1, 46526, Control_c, 0, 64, 72
1, 46540, Control_c, 0, 64, 76
1, 46555, Control_c, 0, 64, 79
1, 46570, Control_c, 0, 64, 80
1, 46596, Note_off_c, 0, 75, 53
1, 46600, Control_c, 0, 64, 79
1, 46609, Note_on_c, 0, 65, 68
1, 46612, Note_on_c, 0, 56, 62
1, 46614, Control_c, 0, 64, 75
1, 46623, Note_on_c, 0, 87, 74
1, 46629, Control_c, 0, 64, 67
1, 46645, Control_c, 0, 64, 57
1, 46660, Control_c, 0, 64, 52
1, 46675, Control_c, 0, 64, 54
1, 46689, Control_c, 0, 64, 61
1, 46697, Note_off_c, 0, 56, 36
1, 46704, Control_c, 0, 64, 65
1, 46708, Note_off_c, 0, 65, 56
1, 46714, Note_off_c, 0, 87, 54
1, 46719, Control_c, 0, 64, 69
1, 46721, Note_on_c, 0, 74, 75
1, 46734, Control_c, 0, 64, 73
1, 46749, Control_c, 0, 64, 77
1, 46771, Control_c, 0, 64, 79
1, 46801, Control_c, 0, 64, 78
1, 46806, Note_off_c, 0, 74, 62
1, 46816, Control_c, 0, 64, 74
1, 46831, Control_c, 0, 64, 68
1, 46832, Note_on_c, 0, 87, 78
1, 46836, Note_on_c, 0, 67, 71
1, 46837, Note_on_c, 0, 58, 64
1, 46845, Control_c, 0, 64, 59
1, 46860, Control_c, 0, 64, 51
1, 46889, Control_c, 0, 64, 56
1, 46904, Control_c, 0, 64, 62
1, 46919, Control_c, 0, 64, 66
1, 46928, Note_off_c, 0, 87, 61
1, 46929, Note_on_c, 0, 73, 83
1, 46934, Control_c, 0, 64, 69
1, 46943, Note_off_c, 0, 58, 42
1, 46949, Control_c, 0, 64, 73
1, 46954, Note_off_c, 0, 67, 52
1, 46963, Control_c, 0, 64, 77
1, 46978, Control_c, 0, 64, 79
1, 47008, Control_c, 0, 64, 78
1, 47014, Note_off_c, 0, 73, 62
1, 47023, Control_c, 0, 64, 74
1, 47038, Control_c, 0, 64, 65
1, 47042, Note_on_c, 0, 67, 66
1, 47043, Note_on_c, 0, 87, 78
1, 47052, Control_c, 0, 64, 58
1, 47061, Note_on_c, 0, 58, 54
1, 47082, Control_c, 0, 64, 61
1, 47097, Control_c, 0, 64, 64
1, 47103, Note_off_c, 0, 67, 58
1, 47107, Note_off_c, 0, 58, 55
1, 47112, Control_c, 0, 64, 67
1, 47126, Note_off_c, 0, 87, 62
1, 47127, Control_c, 0, 64, 70
1, 47133, Note_on_c, 0, 73, 77
1, 47142, Control_c, 0, 64, 73
1, 47157, Control_c, 0, 64, 76
1, 47171, Control_c, 0, 64, 77
1, 47186, Control_c, 0, 64, 77
1, 47201, Control_c, 0, 64, 74
1, 47204, Note_off_c, 0, 73, 61
1, 47216, Control_c, 0, 64, 69
1, 47231, Control_c, 0, 64, 61
1, 47234, Note_on_c, 0, 68, 73
1, 47234, Note_on_c, 0, 87, 75
1, 47245, Note_on_c, 0, 59, 55
1, 47245, Control_c, 0, 64, 57
1, 47260, Control_c, 0, 64, 59
1, 47267, Note_off_c, 0, 87, 63
1, 47275, Control_c, 0, 64, 62
1, 47289, Control_c, 0, 64, 65
1, 47294, Note_off_c, 0, 59, 57
1, 47304, Control_c, 0, 64, 69
1, 47308, Note_off_c, 0, 68, 54
1, 47319, Note_on_c, 0, 71, 72
1, 47319, Control_c, 0, 64, 73
1, 47334, Control_c, 0, 64, 77
1, 47343, Note_off_c, 0, 71, 65
1, 47349, Control_c, 0, 64, 79
1, 47378, Control_c, 0, 64, 78
1, 47393, Control_c, 0, 64, 74
1, 47408, Control_c, 0, 64, 66
1, 47422, Control_c, 0, 64, 56
1, 47425, Note_on_c, 0, 70, 71
1, 47439, Control_c, 0, 64, 46
1, 47442, Note_on_c, 0, 61, 51
1, 47443, Note_on_c, 0, 88, 80
1, 47446, Note_on_c, 0, 76, 71
1, 47454, Control_c, 0, 64, 47
1, 47468, Control_c, 0, 64, 54
1, 47478, Note_off_c, 0, 76, 62
1, 47483, Control_c, 0, 64, 61
1, 47498, Control_c, 0, 64, 65
1, 47520, Control_c, 0, 64, 68
1, 47523, Note_off_c, 0, 70, 49
1, 47535, Note_off_c, 0, 61, 37
1, 47535, Control_c, 0, 64, 70
1, 47539, Note_on_c, 0, 87, 73
1, 47540, Note_off_c, 0, 88, 64
1, 47548, Note_on_c, 0, 82, 54
1, 47550, Control_c, 0, 64, 73
1, 47565, Control_c, 0, 64, 75
1, 47569, Note_off_c, 0, 82, 60
1, 47573, Note_off_c, 0, 87, 63
1, 47580, Control_c, 0, 64, 76
1, 47624, Control_c, 0, 64, 77
1, 47639, Note_on_c, 0, 85, 79
1, 47639, Control_c, 0, 64, 78
1, 47640, Note_on_c, 0, 73, 80
1, 47654, Control_c, 0, 64, 78
1, 47661, Note_off_c, 0, 73, 68
1, 47668, Control_c, 0, 64, 79
1, 47670, Note_off_c, 0, 85, 54
1, 47729, Note_on_c, 0, 83, 84
1, 47780, Note_off_c, 0, 83, 61
1, 47816, Control_c, 0, 64, 78
1, 47831, Control_c, 0, 64, 77
1, 47839, Note_on_c, 0, 65, 62
1, 47845, Control_c, 0, 64, 73
1, 47846, Note_on_c, 0, 71, 78
1, 47849, Note_on_c, 0, 82, 81
1, 47851, Note_on_c, 0, 62, 49
1, 47860, Control_c, 0, 64, 65
1, 47875, Control_c, 0, 64, 56
1, 47886, Note_off_c, 0, 71, 62
1, 47888, Note_off_c, 0, 62, 60
1, 47890, Control_c, 0, 64, 55
1, 47905, Control_c, 0, 64, 58
1, 47910, Note_off_c, 0, 65, 56
1, 47920, Control_c, 0, 64, 62
1, 47935, Control_c, 0, 64, 65
1, 47938, Note_on_c, 0, 77, 66
1, 47943, Note_on_c, 0, 80, 76
1, 47950, Control_c, 0, 64, 69
1, 47950, Note_off_c, 0, 82, 59
1, 47965, Control_c, 0, 64, 72
1, 47969, Note_off_c, 0, 77, 59
1, 47980, Control_c, 0, 64, 76
1, 47994, Control_c, 0, 64, 78
1, 48004, Note_off_c, 0, 80, 62
1, 48009, Control_c, 0, 64, 79
1, 48024, Control_c, 0, 64, 78
1, 48038, Control_c, 0, 64, 76
1, 48050, Note_on_c, 0, 63, 53
1, 48053, Control_c, 0, 64, 71
1, 48054, Note_on_c, 0, 67, 54
1, 48062, Note_on_c, 0, 79, 76
1, 48068, Control_c, 0, 64, 62
1, 48071, Note_on_c, 0, 70, 57
1, 48083, Control_c, 0, 64, 56
1, 48094, Note_off_c, 0, 70, 57
1, 48098, Control_c, 0, 64, 58
1, 48112, Control_c, 0, 64, 63
1, 48127, Control_c, 0, 64, 67
1, 48140, Note_off_c, 0, 63, 55
1, 48143, Control_c, 0, 64, 71
1, 48147, Note_off_c, 0, 67, 51
1, 48152, Note_on_c, 0, 82, 77
1, 48155, Note_off_c, 0, 79, 61
1, 48158, Control_c, 0, 64, 76
1, 48159, Note_on_c, 0, 75, 59
1, 48173, Control_c, 0, 64, 79
1, 48187, Note_off_c, 0, 75, 65
1, 48187, Control_c, 0, 64, 80
1, 48200, Note_off_c, 0, 82, 62
1, 48217, Control_c, 0, 64, 80
1, 48232, Control_c, 0, 64, 79
1, 48248, Control_c, 0, 64, 77
1, 48255, Note_on_c, 0, 83, 83
1, 48269, Control_c, 0, 64, 71
1, 48284, Control_c, 0, 64, 63
1, 48286, Note_on_c, 0, 79, 53
1, 48299, Control_c, 0, 64, 56
1, 48305, Note_off_c, 0, 79, 63
1, 48314, Control_c, 0, 64, 55
1, 48329, Control_c, 0, 64, 60
1, 48343, Control_c, 0, 64, 63
1, 48358, Control_c, 0, 64, 66
1, 48367, Note_on_c, 0, 82, 78
1, 48370, Note_off_c, 0, 83, 58
1, 48373, Control_c, 0, 64, 70
1, 48388, Control_c, 0, 64, 73
1, 48403, Control_c, 0, 64, 77
1, 48412, Note_off_c, 0, 82, 60
1, 48418, Control_c, 0, 64, 78
1, 48448, Control_c, 0, 64, 76
1, 48452, Note_on_c, 0, 74, 74
1, 48462, Control_c, 0, 64, 70
1, 48477, Control_c, 0, 64, 61
1, 48492, Control_c, 0, 64, 51
1, 48522, Control_c, 0, 64, 59
1, 48536, Control_c, 0, 64, 64
1, 48551, Control_c, 0, 64, 68
1, 48564, Note_on_c, 0, 86, 72
1, 48566, Control_c, 0, 64, 72
1, 48581, Control_c, 0, 64, 77
1, 48596, Control_c, 0, 64, 81
1, 48597, Note_off_c, 0, 86, 59
1, 48610, Control_c, 0, 64, 82
1, 48647, Note_off_c, 0, 74, 54
1, 48655, Control_c, 0, 64, 81
1, 48663, Note_on_c, 0, 75, 79
1, 48669, Control_c, 0, 64, 74
1, 48684, Control_c, 0, 64, 64
1, 48699, Control_c, 0, 64, 56
1, 48714, Control_c, 0, 64, 56
1, 48726, Note_off_c, 0, 75, 62
1, 48729, Control_c, 0, 64, 62
1, 48743, Control_c, 0, 64, 65
1, 48749, Note_on_c, 0, 87, 69
1, 48758, Control_c, 0, 64, 68
1, 48773, Control_c, 0, 64, 71
1, 48787, Note_off_c, 0, 87, 62
1, 48788, Control_c, 0, 64, 75
1, 48803, Control_c, 0, 64, 78
1, 48817, Control_c, 0, 64, 78
1, 48847, Control_c, 0, 64, 78
1, 48862, Control_c, 0, 64, 77
1, 48877, Control_c, 0, 64, 73
1, 48884, Note_on_c, 0, 99, 88
1, 48889, Note_on_c, 0, 75, 65
1, 48891, Note_on_c, 0, 67, 51
1, 48892, Control_c, 0, 64, 66
1, 48907, Control_c, 0, 64, 58
1, 48921, Control_c, 0, 64, 55
1, 48936, Control_c, 0, 64, 59
1, 48951, Control_c, 0, 64, 63
1, 48960, Note_off_c, 0, 99, 55
1, 48965, Note_off_c, 0, 75, 58
1, 48966, Control_c, 0, 64, 66
1, 48969, Note_off_c, 0, 67, 57
1, 48973, Note_on_c, 0, 87, 72
1, 48981, Control_c, 0, 64, 70
1, 48996, Control_c, 0, 64, 74
1, 49017, Control_c, 0, 64, 78
1, 49033, Control_c, 0, 64, 80
1, 49060, Note_off_c, 0, 87, 59
1, 49078, Control_c, 0, 64, 79
1, 49092, Note_on_c, 0, 99, 82
1, 49092, Control_c, 0, 64, 77
1, 49100, Note_on_c, 0, 77, 79
1, 49106, Note_on_c, 0, 68, 66
1, 49107, Control_c, 0, 64, 69
1, 49122, Control_c, 0, 64, 61
1, 49137, Control_c, 0, 64, 56
1, 49152, Control_c, 0, 64, 59
1, 49166, Control_c, 0, 64, 63
1, 49181, Control_c, 0, 64, 66
1, 49187, Note_on_c, 0, 86, 79
1, 49194, Note_off_c, 0, 68, 52
1, 49196, Control_c, 0, 64, 70
1, 49203, Note_off_c, 0, 77, 56
1, 49206, Note_off_c, 0, 99, 60
1, 49211, Control_c, 0, 64, 74
1, 49226, Control_c, 0, 64, 78
1, 49240, Control_c, 0, 64, 79
1, 49270, Control_c, 0, 64, 78
1, 49273, Note_off_c, 0, 86, 63
1, 49285, Control_c, 0, 64, 74
1, 49300, Control_c, 0, 64, 66
1, 49302, Note_on_c, 0, 99, 89
1, 49305, Note_on_c, 0, 79, 81
1, 49306, Note_on_c, 0, 70, 70
1, 49315, Control_c, 0, 64, 56
1, 49330, Control_c, 0, 64, 50
1, 49345, Control_c, 0, 64, 52
1, 49359, Control_c, 0, 64, 57
1, 49374, Control_c, 0, 64, 62
1, 49389, Control_c, 0, 64, 65
1, 49401, Note_on_c, 0, 85, 87
1, 49404, Control_c, 0, 64, 68
1, 49405, Note_off_c, 0, 70, 52
1, 49419, Control_c, 0, 64, 72
1, 49420, Note_off_c, 0, 99, 62
1, 49433, Control_c, 0, 64, 76
1, 49434, Note_on_c, 0, 93, 22
1, 49434, Note_off_c, 0, 79, 54
1, 49448, Control_c, 0, 64, 78
1, 49463, Note_on_c, 0, 92, 6
1, 49463, Control_c, 0, 64, 79
1, 49478, Control_c, 0, 64, 78
1, 49485, Note_off_c, 0, 92, 33
1, 49489, Note_off_c, 0, 85, 63
1, 49492, Control_c, 0, 64, 76
1, 49507, Control_c, 0, 64, 70
1, 49513, Note_on_c, 0, 79, 76
1, 49513, Note_on_c, 0, 99, 90
1, 49517, Note_on_c, 0, 70, 73
1, 49522, Control_c, 0, 64, 62
1, 49537, Control_c, 0, 64, 60
1, 49552, Control_c, 0, 64, 61
1, 49566, Control_c, 0, 64, 63
1, 49581, Control_c, 0, 64, 66
1, 49592, Note_off_c, 0, 79, 56
1, 49596, Control_c, 0, 64, 69
1, 49603, Note_on_c, 0, 85, 84
1, 49610, Control_c, 0, 64, 74
1, 49625, Note_off_c, 0, 70, 47
1, 49625, Control_c, 0, 64, 78
1, 49627, Note_off_c, 0, 99, 59
1, 49640, Control_c, 0, 64, 80
1, 49670, Control_c, 0, 64, 79
1, 49684, Control_c, 0, 64, 77
1, 49693, Note_off_c, 0, 85, 63
1, 49699, Control_c, 0, 64, 69
1, 49712, Note_on_c, 0, 80, 89
1, 49714, Control_c, 0, 64, 61
1, 49716, Note_on_c, 0, 99, 90
1, 49717, Note_on_c, 0, 71, 69
1, 49729, Control_c, 0, 64, 58
1, 49744, Control_c, 0, 64, 61
1, 49746, Note_off_c, 0, 93, 40
1, 49765, Control_c, 0, 64, 64
1, 49771, Note_off_c, 0, 99, 65
1, 49780, Control_c, 0, 64, 67
1, 49795, Control_c, 0, 64, 70
1, 49802, Note_off_c, 0, 71, 60
1, 49810, Control_c, 0, 64, 75
1, 49812, Note_on_c, 0, 83, 82
1, 49825, Note_off_c, 0, 80, 53
1, 49825, Control_c, 0, 64, 78
1, 49840, Note_off_c, 0, 83, 62
1, 49841, Control_c, 0, 64, 80
1, 49885, Control_c, 0, 64, 80
1, 49900, Control_c, 0, 64, 79
1, 49914, Control_c, 0, 64, 74
1, 49929, Control_c, 0, 64, 66
1, 49944, Control_c, 0, 64, 57
1, 49945, Note_on_c, 0, 81, 76
1, 49950, Note_on_c, 0, 73, 70
1, 49955, Note_on_c, 0, 100, 80
1, 49959, Control_c, 0, 64, 49
1, 49963, Note_on_c, 0, 88, 67
1, 49974, Control_c, 0, 64, 50
1, 49989, Control_c, 0, 64, 55
1, 49993, Note_off_c, 0, 88, 60
1, 50004, Control_c, 0, 64, 59
1, 50018, Control_c, 0, 64, 63
1, 50033, Control_c, 0, 64, 65
1, 50048, Control_c, 0, 64, 67
1, 50063, Control_c, 0, 64, 71
1, 50067, Note_on_c, 0, 99, 80
1, 50069, Note_off_c, 0, 100, 66
1, 50078, Control_c, 0, 64, 75
1, 50084, Note_on_c, 0, 93, 39
1, 50093, Control_c, 0, 64, 78
1, 50107, Control_c, 0, 64, 81
1, 50113, Note_off_c, 0, 93, 55
1, 50117, Note_off_c, 0, 99, 62
1, 50117, Note_off_c, 0, 81, 50
1, 50122, Control_c, 0, 64, 84
1, 50137, Control_c, 0, 64, 86
1, 50138, Note_off_c, 0, 73, 35
1, 50152, Control_c, 0, 64, 89
1, 50167, Control_c, 0, 64, 94
1, 50169, Note_on_c, 0, 85, 82
1, 50172, Note_on_c, 0, 97, 76
1, 50182, Control_c, 0, 64, 98
1, 50188, Note_off_c, 0, 85, 68
1, 50196, Control_c, 0, 64, 101
1, 50211, Control_c, 0, 64, 103
1, 50226, Control_c, 0, 64, 106
1, 50229, Note_off_c, 0, 97, 54
1, 50240, Control_c, 0, 64, 107
1, 50257, Note_on_c, 0, 95, 89
1, 50269, Note_on_c, 0, 88, 70
1, 50293, Note_off_c, 0, 88, 67
1, 50308, Note_off_c, 0, 95, 63
1, 50359, Control_c, 0, 64, 105
1, 50374, Control_c, 0, 64, 99
1, 50375, Note_on_c, 0, 93, 91
1, 50378, Note_on_c, 0, 77, 63
1, 50379, Note_on_c, 0, 83, 86
1, 50382, Note_on_c, 0, 74, 60
1, 50388, Control_c, 0, 64, 89
1, 50403, Control_c, 0, 64, 74
1, 50418, Control_c, 0, 64, 61
1, 50421, Note_off_c, 0, 83, 62
1, 50433, Control_c, 0, 64, 51
1, 50438, Note_off_c, 0, 74, 49
1, 50448, Control_c, 0, 64, 52
1, 50463, Control_c, 0, 64, 60
1, 50474, Note_off_c, 0, 77, 52
1, 50478, Control_c, 0, 64, 64
1, 50485, Note_on_c, 0, 92, 80
1, 50486, Note_on_c, 0, 89, 67
1, 50489, Note_off_c, 0, 93, 60
1, 50492, Control_c, 0, 64, 68
1, 50514, Control_c, 0, 64, 73
1, 50529, Control_c, 0, 64, 78
1, 50531, Note_off_c, 0, 89, 61
1, 50544, Control_c, 0, 64, 82
1, 50559, Control_c, 0, 64, 83
1, 50561, Note_off_c, 0, 92, 62
1, 50627, Note_on_c, 0, 75, 50
1, 50634, Control_c, 0, 64, 80
1, 50635, Note_on_c, 0, 91, 72
1, 50642, Note_on_c, 0, 79, 49
1, 50649, Control_c, 0, 64, 72
1, 50653, Note_on_c, 0, 82, 45
1, 50663, Control_c, 0, 64, 62
1, 50678, Control_c, 0, 64, 53
1, 50688, Note_off_c, 0, 82, 49
1, 50693, Control_c, 0, 64, 55
1, 50708, Control_c, 0, 64, 60
1, 50723, Control_c, 0, 64, 63
1, 50737, Control_c, 0, 64, 67
1, 50739, Note_off_c, 0, 79, 50
1, 50743, Note_on_c, 0, 87, 66
1, 50747, Note_off_c, 0, 91, 62
1, 50752, Note_off_c, 0, 75, 41
1, 50752, Control_c, 0, 64, 72
1, 50755, Note_on_c, 0, 93, 67
1, 50767, Control_c, 0, 64, 79
1, 50772, Note_off_c, 0, 87, 63
1, 50779, Note_off_c, 0, 93, 66
1, 50782, Control_c, 0, 64, 84
1, 50797, Control_c, 0, 64, 85
1, 50826, Control_c, 0, 64, 83
1, 50841, Control_c, 0, 64, 75
1, 50844, Note_on_c, 0, 74, 77
1, 50856, Control_c, 0, 64, 65
1, 50871, Control_c, 0, 64, 59
1, 50886, Control_c, 0, 64, 60
1, 50901, Control_c, 0, 64, 63
1, 50916, Control_c, 0, 64, 66
1, 50921, Note_off_c, 0, 74, 62
1, 50931, Control_c, 0, 64, 68
1, 50934, Note_on_c, 0, 86, 70
1, 50945, Control_c, 0, 64, 71
1, 50960, Control_c, 0, 64, 70
1, 50975, Control_c, 0, 64, 64
1, 50990, Control_c, 0, 64, 57
1, 51004, Control_c, 0, 64, 56
1, 51012, Note_off_c, 0, 86, 58
1, 51019, Control_c, 0, 64, 60
1, 51034, Control_c, 0, 64, 64
1, 51041, Note_on_c, 0, 75, 78
1, 51049, Control_c, 0, 64, 67
1, 51063, Control_c, 0, 64, 71
1, 51078, Control_c, 0, 64, 78
1, 51093, Control_c, 0, 64, 83
1, 51108, Control_c, 0, 64, 85
1, 51121, Note_on_c, 0, 87, 74
1, 51133, Note_off_c, 0, 75, 59
1, 51168, Control_c, 0, 64, 85
1, 51182, Control_c, 0, 64, 83
1, 51197, Control_c, 0, 64, 76
1, 51212, Control_c, 0, 64, 65
1, 51222, Note_off_c, 0, 87, 47
1, 51226, Note_on_c, 0, 99, 100
1, 51227, Control_c, 0, 64, 49
1, 51242, Control_c, 0, 64, 37
1, 51264, Control_c, 0, 64, 38
1, 51279, Control_c, 0, 64, 47
1, 51294, Control_c, 0, 64, 58
1, 51309, Control_c, 0, 64, 64
1, 51320, Note_off_c, 0, 99, 55
1, 51324, Control_c, 0, 64, 67
1, 51331, Note_on_c, 0, 87, 75
1, 51338, Control_c, 0, 64, 71
1, 51353, Control_c, 0, 64, 75
1, 51368, Control_c, 0, 64, 78
1, 51379, Note_off_c, 0, 87, 58
1, 51382, Control_c, 0, 64, 80
1, 51397, Control_c, 0, 64, 81
1, 51412, Control_c, 0, 64, 82
1, 51427, Control_c, 0, 64, 83
1, 51439, Note_on_c, 0, 75, 70
1, 51443, Control_c, 0, 64, 85
1, 51458, Control_c, 0, 64, 87
1, 51473, Control_c, 0, 64, 88
1, 51517, Control_c, 0, 64, 88
1, 51518, Note_off_c, 0, 75, 60
1, 51526, Note_on_c, 0, 87, 72
1, 51532, Control_c, 0, 64, 89
1, 51547, Control_c, 0, 64, 89
1, 51576, Control_c, 0, 64, 90
1, 51579, Note_off_c, 0, 87, 63
1, 51591, Control_c, 0, 64, 90
1, 51606, Control_c, 0, 64, 91
1, 51620, Note_on_c, 0, 76, 79
1, 51621, Control_c, 0, 64, 92
1, 51635, Control_c, 0, 64, 93
1, 51650, Control_c, 0, 64, 93
1, 51691, Note_off_c, 0, 76, 54
1, 51699, Note_on_c, 0, 88, 79
1, 51777, Note_off_c, 0, 88, 54
1, 51783, Control_c, 0, 64, 92
1, 51798, Control_c, 0, 64, 81
1, 51804, Note_on_c, 0, 99, 100
1, 51813, Control_c, 0, 64, 67
1, 51828, Control_c, 0, 64, 57
1, 51843, Control_c, 0, 64, 55
1, 51858, Control_c, 0, 64, 58
1, 51873, Control_c, 0, 64, 62
1, 51884, Note_on_c, 0, 87, 83
1, 51887, Control_c, 0, 64, 65
1, 51900, Note_off_c, 0, 99, 60
1, 51902, Control_c, 0, 64, 70
1, 51917, Control_c, 0, 64, 77
1, 51932, Control_c, 0, 64, 87
1, 51944, Note_off_c, 0, 87, 64
1, 51947, Control_c, 0, 64, 94
1, 51961, Control_c, 0, 64, 96
1, 51976, Note_on_c, 0, 76, 76
1, 51976, Control_c, 0, 64, 97
1, 51991, Control_c, 0, 64, 98
1, 52013, Control_c, 0, 64, 102
1, 52028, Control_c, 0, 64, 106
1, 52042, Control_c, 0, 64, 109
1, 52057, Control_c, 0, 64, 111
1, 52060, Note_off_c, 0, 76, 60
1, 52072, Note_on_c, 0, 88, 79
1, 52072, Control_c, 0, 64, 112
1, 52087, Control_c, 0, 64, 114
1, 52102, Control_c, 0, 64, 116
1, 52117, Control_c, 0, 64, 118
1, 52117, Note_off_c, 0, 88, 56
1, 52132, Control_c, 0, 64, 120
1, 52147, Control_c, 0, 64, 124
1, 52161, Control_c, 0, 64, 127
1, 52168, Note_on_c, 0, 77, 83
1, 52222, Note_off_c, 0, 77, 60
1, 52246, Note_on_c, 0, 89, 84
1, 52318, Note_off_c, 0, 89, 54
1, 52340, Control_c, 0, 64, 103
1, 52350, Note_on_c, 0, 99, 100
1, 52355, Control_c, 0, 64, 83
1, 52370, Control_c, 0, 64, 66
1, 52384, Control_c, 0, 64, 53
1, 52414, Control_c, 0, 64, 59
1, 52428, Note_on_c, 0, 87, 85
1, 52428, Control_c, 0, 64, 64
1, 52443, Control_c, 0, 64, 67
1, 52453, Note_off_c, 0, 99, 59
1, 52458, Control_c, 0, 64, 73
1, 52473, Control_c, 0, 64, 81
1, 52488, Control_c, 0, 64, 90
1, 52494, Note_off_c, 0, 87, 62
1, 52502, Control_c, 0, 64, 96
1, 52517, Control_c, 0, 64, 96
1, 52532, Control_c, 0, 64, 97
1, 52537, Note_on_c, 0, 78, 74
1, 52547, Control_c, 0, 64, 99
1, 52562, Control_c, 0, 64, 102
1, 52576, Control_c, 0, 64, 105
1, 52591, Control_c, 0, 64, 106
1, 52606, Control_c, 0, 64, 106
1, 52624, Note_off_c, 0, 78, 60
1, 52628, Note_on_c, 0, 90, 83
1, 52710, Control_c, 0, 64, 104
1, 52716, Note_off_c, 0, 90, 60
1, 52722, Note_on_c, 0, 99, 100
1, 52722, Poly_aftertouch_c, 0, 82, 127
1, 52725, Control_c, 0, 64, 95
1, 52740, Control_c, 0, 64, 89
1, 52761, Control_c, 0, 64, 88
1, 52766, Poly_aftertouch_c, 0, 82, 0
1, 52776, Control_c, 0, 64, 89
1, 52791, Control_c, 0, 64, 91
1, 52806, Control_c, 0, 64, 94
1, 52820, Note_on_c, 0, 87, 85
1, 52821, Control_c, 0, 64, 99
1, 52835, Control_c, 0, 64, 101
1, 52841, Note_off_c, 0, 99, 60
1, 52877, Note_off_c, 0, 87, 63
1, 52880, Control_c, 0, 64, 102
1, 52895, Control_c, 0, 64, 103
1, 52910, Control_c, 0, 64, 103
1, 52911, Note_on_c, 0, 79, 77
1, 52925, Control_c, 0, 64, 104
1, 52940, Control_c, 0, 64, 104
1, 52955, Control_c, 0, 64, 105
1, 52969, Control_c, 0, 64, 105
1, 52983, Note_off_c, 0, 79, 64
1, 52984, Control_c, 0, 64, 106
1, 52996, Note_on_c, 0, 91, 85
1, 52999, Control_c, 0, 64, 106
1, 53014, Control_c, 0, 64, 107
1, 53029, Control_c, 0, 64, 108
1, 53044, Control_c, 0, 64, 109
1, 53059, Control_c, 0, 64, 111
1, 53068, Note_off_c, 0, 91, 61
1, 53074, Control_c, 0, 64, 113
1, 53089, Control_c, 0, 64, 115
1, 53100, Note_on_c, 0, 99, 103
1, 53104, Control_c, 0, 64, 118
1, 53119, Control_c, 0, 64, 127
1, 53187, Note_on_c, 0, 87, 86
1, 53208, Note_off_c, 0, 99, 60
1, 53243, Note_off_c, 0, 87, 64
1, 53277, Note_on_c, 0, 80, 74
1, 53349, Note_off_c, 0, 80, 59
1, 53353, Note_on_c, 0, 92, 89
1, 53397, Note_on_c, 0, 87, 17
1, 53409, Note_off_c, 0, 92, 62
1, 53441, Note_off_c, 0, 87, 51
1, 53458, Control_c, 0, 64, 118
1, 53473, Control_c, 0, 64, 95
1, 53479, Note_on_c, 0, 99, 76
1, 53488, Control_c, 0, 64, 77
1, 53510, Control_c, 0, 64, 65
1, 53525, Control_c, 0, 64, 63
1, 53539, Control_c, 0, 64, 65
1, 53541, Note_off_c, 0, 99, 62
1, 53554, Control_c, 0, 64, 68
1, 53569, Control_c, 0, 64, 73
1, 53584, Control_c, 0, 64, 82
1, 53599, Note_on_c, 0, 81, 76
1, 53599, Control_c, 0, 64, 93
1, 53613, Control_c, 0, 64, 102
1, 53628, Control_c, 0, 64, 103
1, 53631, Note_off_c, 0, 81, 59
1, 53673, Control_c, 0, 64, 105
1, 53688, Control_c, 0, 64, 107
1, 53703, Control_c, 0, 64, 108
1, 53704, Note_on_c, 0, 99, 89
1, 53718, Control_c, 0, 64, 110
1, 53732, Control_c, 0, 64, 110
1, 53747, Control_c, 0, 64, 111
1, 53752, Note_off_c, 0, 99, 62
1, 53762, Control_c, 0, 64, 113
1, 53776, Control_c, 0, 64, 117
1, 53791, Control_c, 0, 64, 118
1, 53798, Note_on_c, 0, 82, 82
1, 53806, Control_c, 0, 64, 118
1, 53837, Control_c, 0, 64, 119
1, 53846, Note_off_c, 0, 82, 57
1, 53897, Note_on_c, 0, 99, 80
1, 53946, Note_off_c, 0, 99, 62
1, 53955, Control_c, 0, 64, 120
1, 53992, Note_on_c, 0, 83, 84
1, 53999, Control_c, 0, 64, 121
1, 54028, Note_off_c, 0, 83, 64
1, 54087, Note_on_c, 0, 99, 83
1, 54133, Control_c, 0, 64, 122
1, 54150, Note_off_c, 0, 99, 61
1, 54162, Control_c, 0, 64, 123
1, 54174, Note_on_c, 0, 84, 81
1, 54177, Control_c, 0, 64, 124
1, 54222, Note_off_c, 0, 84, 61
1, 54272, Note_on_c, 0, 99, 86
1, 54288, Control_c, 0, 64, 127
1, 54354, Note_on_c, 0, 85, 82
1, 54368, Note_off_c, 0, 99, 50
1, 54427, Note_off_c, 0, 85, 62
1, 54453, Note_on_c, 0, 99, 88
1, 54540, Note_on_c, 0, 86, 80
1, 54555, Note_off_c, 0, 99, 50
1, 54615, Note_off_c, 0, 86, 63
1, 54630, Control_c, 0, 64, 124
1, 54638, Note_on_c, 0, 99, 92
1, 54660, Control_c, 0, 64, 116
1, 54675, Control_c, 0, 64, 100
1, 54690, Control_c, 0, 64, 82
1, 54704, Control_c, 0, 64, 66
1, 54719, Control_c, 0, 64, 53
1, 54731, Note_on_c, 0, 87, 85
1, 54734, Control_c, 0, 64, 51
1, 54749, Control_c, 0, 64, 57
1, 54749, Note_off_c, 0, 99, 62
1, 54764, Control_c, 0, 64, 63
1, 54778, Control_c, 0, 64, 67
1, 54793, Control_c, 0, 64, 72
1, 54808, Note_off_c, 0, 87, 62
1, 54808, Control_c, 0, 64, 81
1, 54823, Control_c, 0, 64, 92
1, 54837, Control_c, 0, 64, 100
1, 54839, Note_on_c, 0, 99, 87
1, 54852, Control_c, 0, 64, 103
1, 54867, Control_c, 0, 64, 105
1, 54883, Control_c, 0, 64, 109
1, 54897, Control_c, 0, 64, 116
1, 54912, Control_c, 0, 64, 127
1, 54926, Note_on_c, 0, 87, 78
1, 54937, Note_off_c, 0, 99, 53
1, 55008, Note_off_c, 0, 87, 61
1, 55039, Note_on_c, 0, 99, 78
1, 55118, Note_off_c, 0, 99, 53
1, 55120, Note_on_c, 0, 87, 71
1, 55156, Control_c, 0, 67, 21
1, 55171, Control_c, 0, 67, 33
1, 55186, Note_off_c, 0, 87, 60
1, 55186, Control_c, 0, 67, 50
1, 55201, Control_c, 0, 67, 68
1, 55216, Control_c, 0, 67, 88
1, 55220, Note_on_c, 0, 99, 71
1, 55230, Control_c, 0, 67, 108
1, 55245, Control_c, 0, 67, 127
1, 55286, Note_off_c, 0, 99, 55
1, 55307, Note_on_c, 0, 87, 63
1, 55371, Note_off_c, 0, 87, 58
1, 55396, Note_on_c, 0, 99, 67
1, 55478, Note_off_c, 0, 99, 56
1, 55501, Note_on_c, 0, 87, 60
1, 55584, Note_off_c, 0, 87, 56
1, 55604, Note_on_c, 0, 99, 60
1, 55704, Note_off_c, 0, 99, 48
1, 55711, Note_on_c, 0, 87, 61
1, 55836, Note_off_c, 0, 87, 36
1, 55837, Note_on_c, 0, 99, 59
1, 55896, Note_off_c, 0, 99, 59
1, 56012, Note_on_c, 0, 87, 48
1, 56076, Note_off_c, 0, 87, 54
1, 56126, Note_on_c, 0, 75, 50
1, 56164, Note_off_c, 0, 75, 57
1, 56215, Note_on_c, 0, 87, 54
1, 56250, Note_off_c, 0, 87, 63
1, 56333, Note_on_c, 0, 99, 63
1, 56356, Note_off_c, 0, 99, 68
1, 56453, Note_on_c, 0, 87, 52
1, 56504, Note_off_c, 0, 87, 59
1, 56546, Note_on_c, 0, 63, 62
1, 56566, Note_on_c, 0, 75, 50
1, 56593, Note_off_c, 0, 75, 59
1, 56641, Note_on_c, 0, 87, 49
1, 56682, Note_off_c, 0, 87, 62
1, 56782, Note_off_c, 0, 63, 43
1, 56788, Note_on_c, 0, 99, 56
1, 56791, Note_on_c, 0, 75, 64
1, 56806, Note_off_c, 0, 99, 64
1, 56820, Note_off_c, 0, 75, 63
1, 56906, Note_on_c, 0, 87, 59
1, 56952, Note_off_c, 0, 87, 60
1, 57003, Note_on_c, 0, 75, 59
1, 57041, Note_off_c, 0, 75, 62
1, 57074, Note_on_c, 0, 87, 63
1, 57110, Note_off_c, 0, 87, 59
1, 57181, Note_on_c, 0, 73, 64
1, 57208, Note_off_c, 0, 73, 65
1, 57299, Control_c, 0, 64, 111
1, 57314, Control_c, 0, 64, 89
1, 57320, Note_on_c, 0, 56, 65
1, 57329, Control_c, 0, 64, 71
1, 57344, Control_c, 0, 64, 60
1, 57358, Control_c, 0, 64, 59
1, 57373, Control_c, 0, 64, 63
1, 57388, Control_c, 0, 64, 67
1, 57394, Note_off_c, 0, 56, 59
1, 57403, Control_c, 0, 64, 73
1, 57418, Control_c, 0, 64, 82
1, 57429, Note_on_c, 0, 71, 64
1, 57432, Control_c, 0, 64, 93
1, 57447, Control_c, 0, 64, 103
1, 57462, Control_c, 0, 64, 106
1, 57496, Note_on_c, 0, 75, 33
1, 57506, Control_c, 0, 64, 106
1, 57519, Note_on_c, 0, 87, 55
1, 57521, Control_c, 0, 64, 107
1, 57527, Note_off_c, 0, 75, 50
1, 57530, Note_off_c, 0, 71, 34
1, 57567, Note_off_c, 0, 87, 61
1, 57639, Note_on_c, 0, 71, 63
1, 57640, Control_c, 0, 64, 107
1, 57671, Note_off_c, 0, 71, 60
1, 57785, Note_on_c, 0, 87, 39
1, 57814, Note_off_c, 0, 87, 56
1, 57819, Note_on_c, 0, 70, 68
1, 57845, Note_off_c, 0, 70, 65
1, 57848, Control_c, 0, 64, 107
1, 57863, Control_c, 0, 64, 106
1, 57873, Note_on_c, 0, 75, 50
1, 57897, Note_off_c, 0, 75, 62
1, 57907, Control_c, 0, 64, 106
1, 57928, Note_on_c, 0, 87, 56
1, 57966, Control_c, 0, 64, 105
1, 57980, Note_off_c, 0, 87, 60
1, 57980, Control_c, 0, 64, 103
1, 58003, Control_c, 0, 64, 95
1, 58018, Control_c, 0, 64, 81
1, 58033, Control_c, 0, 64, 65
1, 58047, Control_c, 0, 64, 59
1, 58052, Note_on_c, 0, 59, 49
1, 58055, Note_on_c, 0, 68, 59
1, 58062, Control_c, 0, 64, 61
1, 58070, Note_on_c, 0, 99, 66
1, 58077, Control_c, 0, 64, 64
1, 58092, Note_off_c, 0, 99, 67
1, 58092, Control_c, 0, 64, 67
1, 58107, Control_c, 0, 64, 71
1, 58121, Control_c, 0, 64, 80
1, 58136, Control_c, 0, 64, 90
1, 58151, Control_c, 0, 64, 97
1, 58163, Note_off_c, 0, 68, 35
1, 58166, Control_c, 0, 64, 99
1, 58174, Note_off_c, 0, 59, 47
1, 58188, Note_on_c, 0, 87, 53
1, 58225, Control_c, 0, 64, 100
1, 58232, Note_off_c, 0, 87, 61
1, 58240, Control_c, 0, 64, 101
1, 58255, Control_c, 0, 64, 101
1, 58266, Note_on_c, 0, 67, 67
1, 58270, Control_c, 0, 64, 102
1, 58295, Note_on_c, 0, 75, 52
1, 58314, Control_c, 0, 64, 102
1, 58317, Note_off_c, 0, 75, 62
1, 58355, Note_on_c, 0, 87, 60
1, 58390, Note_off_c, 0, 87, 61
1, 58428, Note_off_c, 0, 67, 61
1, 58449, Note_on_c, 0, 68, 67
1, 58462, Control_c, 0, 64, 102
1, 58473, Note_on_c, 0, 99, 71
1, 58492, Control_c, 0, 64, 101
1, 58496, Note_off_c, 0, 99, 67
1, 58506, Control_c, 0, 64, 101
1, 58538, Note_off_c, 0, 68, 36
1, 58551, Control_c, 0, 64, 100
1, 58553, Note_on_c, 0, 67, 63
1, 58606, Note_on_c, 0, 87, 42
1, 58610, Control_c, 0, 64, 99
1, 58626, Control_c, 0, 64, 96
1, 58636, Note_off_c, 0, 87, 56
1, 58641, Control_c, 0, 64, 86
1, 58656, Control_c, 0, 64, 70
1, 58670, Control_c, 0, 64, 51
1, 58676, Note_on_c, 0, 70, 71
1, 58685, Control_c, 0, 64, 0
1, 58715, Control_c, 0, 64, 29
1, 58723, Note_off_c, 0, 67, 33
1, 58723, Note_on_c, 0, 75, 32
1, 58730, Control_c, 0, 64, 53
1, 58752, Control_c, 0, 64, 64
1, 58759, Note_off_c, 0, 75, 53
1, 58767, Control_c, 0, 64, 69
1, 58778, Note_on_c, 0, 87, 50
1, 58782, Note_off_c, 0, 70, 47
1, 58782, Control_c, 0, 64, 74
1, 58796, Control_c, 0, 64, 80
1, 58811, Control_c, 0, 64, 85
1, 58814, Note_off_c, 0, 87, 63
1, 58826, Control_c, 0, 64, 88
1, 58841, Control_c, 0, 64, 91
1, 58856, Control_c, 0, 64, 93
1, 58869, Note_on_c, 0, 63, 64
1, 58870, Control_c, 0, 64, 95
1, 58885, Control_c, 0, 64, 97
1, 58892, Note_on_c, 0, 99, 74
1, 58900, Control_c, 0, 64, 99
1, 58915, Note_off_c, 0, 99, 67
1, 58915, Control_c, 0, 64, 101
1, 58929, Control_c, 0, 64, 102
1, 58944, Control_c, 0, 64, 103
1, 59001, Note_off_c, 0, 63, 26
1, 59028, Note_on_c, 0, 87, 42
1, 59054, Note_off_c, 0, 87, 58
1, 59070, Note_on_c, 0, 63, 57
1, 59106, Note_off_c, 0, 63, 60
1, 59107, Control_c, 0, 64, 102
1, 59116, Note_on_c, 0, 75, 48
1, 59122, Control_c, 0, 64, 102
1, 59137, Control_c, 0, 64, 101
1, 59140, Note_off_c, 0, 75, 59
1, 59152, Control_c, 0, 64, 101
1, 59160, Note_on_c, 0, 87, 54
1, 59194, Note_on_c, 0, 55, 60
1, 59203, Note_off_c, 0, 87, 61
1, 59241, Control_c, 0, 64, 96
1, 59256, Control_c, 0, 64, 85
1, 59270, Control_c, 0, 64, 69
1, 59282, Note_on_c, 0, 64, 68
1, 59285, Control_c, 0, 64, 55
1, 59286, Note_on_c, 0, 99, 72
1, 59300, Control_c, 0, 64, 49
1, 59304, Note_off_c, 0, 99, 70
1, 59314, Control_c, 0, 64, 53
1, 59329, Control_c, 0, 64, 61
1, 59344, Control_c, 0, 64, 66
1, 59359, Control_c, 0, 64, 71
1, 59373, Note_off_c, 0, 64, 53
1, 59374, Control_c, 0, 64, 78
1, 59382, Note_off_c, 0, 55, 36
1, 59389, Control_c, 0, 64, 86
1, 59403, Control_c, 0, 64, 90
1, 59417, Note_on_c, 0, 87, 43
1, 59419, Control_c, 0, 64, 91
1, 59445, Note_off_c, 0, 87, 57
1, 59464, Control_c, 0, 64, 91
1, 59476, Note_on_c, 0, 63, 73
1, 59501, Control_c, 0, 64, 92
1, 59521, Note_on_c, 0, 75, 48
1, 59544, Note_off_c, 0, 75, 60
1, 59573, Note_on_c, 0, 87, 52
1, 59616, Note_off_c, 0, 87, 62
1, 59626, Note_off_c, 0, 63, 35
1, 59689, Note_on_c, 0, 61, 74
1, 59702, Note_on_c, 0, 99, 73
1, 59724, Note_off_c, 0, 99, 68
1, 59746, Note_off_c, 0, 61, 59
1, 59841, Note_on_c, 0, 87, 48
1, 59882, Note_off_c, 0, 87, 62
1, 59886, Control_c, 0, 64, 91
1, 59900, Control_c, 0, 64, 91
1, 59915, Control_c, 0, 64, 87
1, 59926, Note_on_c, 0, 59, 74
1, 59930, Control_c, 0, 64, 77
1, 59934, Note_on_c, 0, 56, 63
1, 59945, Control_c, 0, 64, 64
1, 59960, Control_c, 0, 64, 48
1, 59972, Note_on_c, 0, 75, 40
1, 59975, Control_c, 0, 64, 46
1, 59990, Control_c, 0, 64, 52
1, 60000, Note_off_c, 0, 75, 57
1, 60004, Control_c, 0, 64, 60
1, 60019, Control_c, 0, 64, 64
1, 60032, Note_on_c, 0, 87, 52
1, 60034, Control_c, 0, 64, 68
1, 60049, Control_c, 0, 64, 73
1, 60056, Note_off_c, 0, 56, 56
1, 60058, Note_off_c, 0, 59, 57
1, 60064, Control_c, 0, 64, 80
1, 60073, Note_off_c, 0, 87, 62
1, 60079, Control_c, 0, 64, 85
1, 60093, Control_c, 0, 64, 86
1, 60122, Control_c, 0, 64, 87
1, 60136, Control_c, 0, 64, 89
1, 60148, Note_on_c, 0, 59, 64
1, 60151, Control_c, 0, 64, 92
1, 60164, Note_on_c, 0, 99, 69
1, 60166, Control_c, 0, 64, 94
1, 60167, Note_on_c, 0, 56, 49
1, 60181, Control_c, 0, 64, 96
1, 60187, Note_off_c, 0, 99, 66
1, 60224, Note_off_c, 0, 56, 54
1, 60225, Note_off_c, 0, 59, 50
1, 60227, Control_c, 0, 64, 96
1, 60249, Control_c, 0, 64, 97
1, 60264, Control_c, 0, 64, 97
1, 60294, Control_c, 0, 64, 98
1, 60301, Note_on_c, 0, 87, 42
1, 60346, Note_off_c, 0, 87, 47
1, 60368, Note_on_c, 0, 58, 73
1, 60413, Note_on_c, 0, 75, 50
1, 60420, Note_off_c, 0, 58, 55
1, 60434, Note_off_c, 0, 75, 61
1, 60481, Note_on_c, 0, 87, 53
1, 60514, Note_off_c, 0, 87, 64
1, 60545, Control_c, 0, 64, 97
1, 60557, Note_on_c, 0, 52, 61
1, 60560, Control_c, 0, 64, 95
1, 60574, Control_c, 0, 64, 82
1, 60589, Control_c, 0, 64, 67
1, 60604, Control_c, 0, 64, 50
1, 60613, Note_on_c, 0, 56, 63
1, 60619, Control_c, 0, 64, 43
1, 60622, Note_on_c, 0, 99, 69
1, 60634, Control_c, 0, 64, 46
1, 60641, Note_off_c, 0, 99, 70
1, 60648, Control_c, 0, 64, 55
1, 60663, Control_c, 0, 64, 61
1, 60678, Control_c, 0, 64, 67
1, 60681, Note_off_c, 0, 52, 53
1, 60693, Control_c, 0, 64, 73
1, 60708, Control_c, 0, 64, 80
1, 60719, Note_off_c, 0, 56, 59
1, 60723, Control_c, 0, 64, 85
1, 60738, Control_c, 0, 64, 87
1, 60749, Note_on_c, 0, 87, 57
1, 60782, Control_c, 0, 64, 87
1, 60794, Note_off_c, 0, 87, 59
1, 60797, Control_c, 0, 64, 88
1, 60812, Control_c, 0, 64, 89
1, 60827, Control_c, 0, 64, 89
1, 60833, Note_on_c, 0, 55, 65
1, 60860, Note_on_c, 0, 75, 58
1, 60872, Control_c, 0, 64, 90
1, 60886, Control_c, 0, 64, 90
1, 60896, Note_off_c, 0, 75, 62
1, 60916, Note_off_c, 0, 55, 48
1, 60930, Note_on_c, 0, 87, 56
1, 60970, Note_off_c, 0, 87, 62
1, 61048, Note_on_c, 0, 56, 66
1, 61066, Note_on_c, 0, 99, 65
1, 61087, Note_off_c, 0, 99, 69
1, 61173, Note_off_c, 0, 56, 30
1, 61182, Note_on_c, 0, 87, 55
1, 61236, Control_c, 0, 64, 90
1, 61268, Note_off_c, 0, 87, 47
1, 61310, Control_c, 0, 64, 89
1, 61324, Control_c, 0, 64, 88
1, 61328, Note_on_c, 0, 58, 64
1, 61329, Note_on_c, 0, 55, 47
1, 61339, Control_c, 0, 64, 85
1, 61344, Note_on_c, 0, 75, 54
1, 61354, Control_c, 0, 64, 79
1, 61369, Control_c, 0, 64, 68
1, 61384, Control_c, 0, 64, 57
1, 61391, Note_off_c, 0, 75, 61
1, 61398, Control_c, 0, 64, 47
1, 61428, Control_c, 0, 64, 51
1, 61443, Note_on_c, 0, 87, 51
1, 61443, Control_c, 0, 64, 57
1, 61458, Control_c, 0, 64, 63
1, 61472, Control_c, 0, 64, 67
1, 61486, Note_off_c, 0, 87, 61
1, 61487, Control_c, 0, 64, 73
1, 61502, Control_c, 0, 64, 79
1, 61516, Control_c, 0, 64, 84
1, 61531, Control_c, 0, 64, 86
1, 61561, Control_c, 0, 64, 86
1, 61572, Note_on_c, 0, 51, 50
1, 61578, Note_on_c, 0, 99, 66
1, 61586, Note_off_c, 0, 58, 58
1, 61590, Control_c, 0, 64, 88
1, 61602, Note_off_c, 0, 99, 66
1, 61605, Control_c, 0, 64, 88
1, 61614, Note_off_c, 0, 51, 59
1, 61644, Note_off_c, 0, 55, 34
1, 61707, Note_on_c, 0, 87, 53
1, 61760, Note_off_c, 0, 87, 60
1, 61813, Note_on_c, 0, 75, 62
1, 61853, Note_off_c, 0, 75, 60
1, 61886, Note_on_c, 0, 63, 66
1, 61892, Note_on_c, 0, 87, 61
1, 61910, Control_c, 0, 64, 89
1, 61936, Note_off_c, 0, 87, 61
1, 61939, Control_c, 0, 64, 89
1, 61969, Control_c, 0, 64, 90
1, 61984, Control_c, 0, 64, 90
1, 61999, Note_on_c, 0, 75, 81
1, 61999, Control_c, 0, 64, 91
1, 62005, Note_off_c, 0, 63, 48
1, 62014, Control_c, 0, 64, 92
1, 62014, Note_on_c, 0, 99, 76
1, 62029, Control_c, 0, 64, 94
1, 62041, Note_off_c, 0, 99, 63
1, 62043, Control_c, 0, 64, 94
1, 62055, Note_off_c, 0, 75, 60
1, 62058, Control_c, 0, 64, 95
1, 62073, Control_c, 0, 64, 96
1, 62088, Control_c, 0, 64, 97
1, 62103, Control_c, 0, 64, 97
1, 62118, Control_c, 0, 64, 98
1, 62133, Control_c, 0, 64, 98
1, 62146, Note_on_c, 0, 87, 41
1, 62147, Control_c, 0, 64, 99
1, 62162, Control_c, 0, 64, 99
1, 62178, Note_off_c, 0, 87, 55
1, 62213, Note_on_c, 0, 75, 77
1, 62268, Note_off_c, 0, 75, 61
1, 62287, Note_on_c, 0, 87, 59
1, 62326, Note_off_c, 0, 87, 60
1, 62354, Control_c, 0, 64, 98
1, 62369, Control_c, 0, 64, 97
1, 62384, Control_c, 0, 64, 96
1, 62388, Note_on_c, 0, 73, 69
1, 62399, Control_c, 0, 64, 95
1, 62406, Note_on_c, 0, 99, 70
1, 62407, Note_off_c, 0, 73, 66
1, 62413, Control_c, 0, 64, 95
1, 62440, Note_off_c, 0, 99, 52
1, 62473, Control_c, 0, 64, 94
1, 62495, Control_c, 0, 64, 93
1, 62510, Control_c, 0, 64, 86
1, 62513, Note_on_c, 0, 56, 66
1, 62525, Control_c, 0, 64, 72
1, 62539, Control_c, 0, 64, 58
1, 62548, Note_on_c, 0, 87, 45
1, 62554, Control_c, 0, 64, 52
1, 62565, Note_off_c, 0, 56, 57
1, 62569, Control_c, 0, 64, 54
1, 62580, Note_off_c, 0, 87, 53
1, 62584, Control_c, 0, 64, 60
1, 62599, Control_c, 0, 64, 64
1, 62603, Note_on_c, 0, 71, 75
1, 62615, Control_c, 0, 64, 68
1, 62630, Control_c, 0, 64, 75
1, 62644, Control_c, 0, 64, 83
1, 62656, Note_on_c, 0, 75, 57
1, 62659, Control_c, 0, 64, 90
1, 62668, Note_off_c, 0, 71, 57
1, 62674, Control_c, 0, 64, 92
1, 62687, Note_off_c, 0, 75, 64
1, 62720, Note_on_c, 0, 87, 55
1, 62748, Control_c, 0, 64, 92
1, 62754, Note_off_c, 0, 87, 63
1, 62795, Note_on_c, 0, 71, 68
1, 62829, Note_on_c, 0, 99, 78
1, 62850, Note_off_c, 0, 71, 59
1, 62851, Control_c, 0, 64, 93
1, 62860, Note_off_c, 0, 99, 57
1, 62938, Note_on_c, 0, 87, 56
1, 62998, Note_off_c, 0, 87, 61
1, 63000, Note_on_c, 0, 70, 69
1, 63030, Control_c, 0, 64, 92
1, 63033, Note_off_c, 0, 70, 60
1, 63048, Note_on_c, 0, 75, 65
1, 63059, Control_c, 0, 64, 92
1, 63089, Note_off_c, 0, 75, 60
1, 63119, Note_on_c, 0, 87, 64
1, 63156, Note_off_c, 0, 87, 63
1, 63162, Control_c, 0, 64, 91
1, 63177, Control_c, 0, 64, 87
1, 63192, Control_c, 0, 64, 76
1, 63207, Control_c, 0, 64, 63
1, 63220, Note_on_c, 0, 59, 53
1, 63222, Control_c, 0, 64, 53
1, 63229, Note_on_c, 0, 68, 63
1, 63242, Note_on_c, 0, 99, 72
1, 63244, Control_c, 0, 64, 55
1, 63259, Control_c, 0, 64, 61
1, 63270, Note_off_c, 0, 99, 61
1, 63274, Control_c, 0, 64, 64
1, 63289, Control_c, 0, 64, 68
1, 63303, Control_c, 0, 64, 74
1, 63318, Control_c, 0, 64, 82
1, 63328, Note_off_c, 0, 59, 52
1, 63333, Control_c, 0, 64, 90
1, 63348, Control_c, 0, 64, 91
1, 63357, Note_off_c, 0, 68, 33
1, 63358, Note_on_c, 0, 87, 56
1, 63403, Note_off_c, 0, 87, 57
1, 63447, Note_on_c, 0, 67, 72
1, 63450, Note_on_c, 0, 75, 63
1, 63490, Note_off_c, 0, 75, 59
1, 63523, Note_on_c, 0, 87, 62
1, 63555, Note_off_c, 0, 87, 62
1, 63556, Control_c, 0, 64, 91
1, 63585, Control_c, 0, 64, 90
1, 63599, Note_off_c, 0, 67, 61
1, 63620, Note_on_c, 0, 68, 71
1, 63642, Note_on_c, 0, 99, 68
1, 63668, Note_off_c, 0, 99, 65
1, 63718, Note_on_c, 0, 67, 68
1, 63734, Note_off_c, 0, 68, 35
1, 63781, Note_on_c, 0, 87, 41
1, 63793, Control_c, 0, 64, 90
1, 63808, Control_c, 0, 64, 88
1, 63819, Note_off_c, 0, 87, 48
1, 63823, Control_c, 0, 64, 80
1, 63837, Control_c, 0, 64, 65
1, 63842, Note_on_c, 0, 70, 72
1, 63852, Control_c, 0, 64, 53
1, 63862, Note_on_c, 0, 75, 64
1, 63866, Control_c, 0, 64, 51
1, 63881, Control_c, 0, 64, 55
1, 63896, Control_c, 0, 64, 62
1, 63910, Control_c, 0, 64, 66
1, 63912, Note_off_c, 0, 75, 59
1, 63925, Control_c, 0, 64, 71
1, 63934, Note_off_c, 0, 70, 51
1, 63940, Control_c, 0, 64, 79
1, 63944, Note_on_c, 0, 87, 55
1, 63955, Control_c, 0, 64, 86
1, 63970, Control_c, 0, 64, 89
1, 63974, Note_off_c, 0, 87, 65
1, 63990, Note_off_c, 0, 67, 30
1, 63992, Control_c, 0, 64, 89
1, 64022, Control_c, 0, 64, 90
1, 64034, Note_on_c, 0, 63, 62
1, 64037, Control_c, 0, 64, 91
1, 64051, Control_c, 0, 64, 94
1, 64059, Note_on_c, 0, 99, 75
1, 64066, Control_c, 0, 64, 95
1, 64081, Control_c, 0, 64, 96
1, 64084, Note_off_c, 0, 99, 62
1, 64087, Note_off_c, 0, 63, 52
1, 64096, Control_c, 0, 64, 97
1, 64111, Control_c, 0, 64, 97
1, 64140, Control_c, 0, 64, 98
1, 64155, Control_c, 0, 64, 98
1, 64170, Control_c, 0, 64, 99
1, 64178, Note_on_c, 0, 87, 60
1, 64239, Note_off_c, 0, 87, 58
1, 64255, Note_on_c, 0, 63, 55
1, 64271, Note_on_c, 0, 75, 73
1, 64310, Note_off_c, 0, 63, 53
1, 64319, Note_off_c, 0, 75, 55
1, 64352, Note_on_c, 0, 87, 64
1, 64419, Note_off_c, 0, 87, 39
1, 64422, Control_c, 0, 64, 95
1, 64437, Control_c, 0, 64, 86
1, 64452, Control_c, 0, 64, 71
1, 64456, Note_on_c, 0, 76, 80
1, 64464, Note_on_c, 0, 70, 54
1, 64467, Control_c, 0, 64, 58
1, 64471, Note_on_c, 0, 61, 42
1, 64478, Note_on_c, 0, 68, 50
1, 64482, Control_c, 0, 64, 38
1, 64485, Note_off_c, 0, 76, 60
1, 64489, Note_off_c, 0, 70, 57
1, 64497, Control_c, 0, 64, 0
1, 64511, Note_off_c, 0, 61, 56
1, 64527, Note_off_c, 0, 68, 51
1, 64547, Note_on_c, 0, 92, 69
1, 64568, Note_off_c, 0, 92, 69
1, 64649, Note_on_c, 0, 75, 79
1, 64651, Note_on_c, 0, 70, 59
1, 64658, Note_on_c, 0, 68, 57
1, 64667, Note_on_c, 0, 63, 41
1, 64675, Note_off_c, 0, 75, 60
1, 64687, Note_off_c, 0, 70, 54
1, 64696, Note_off_c, 0, 63, 56
1, 64745, Note_off_c, 0, 68, 40
1, 64755, Note_on_c, 0, 92, 74
1, 64778, Note_off_c, 0, 92, 67
1, 64850, Note_on_c, 0, 70, 55
1, 64856, Note_on_c, 0, 73, 81
1, 64859, Note_on_c, 0, 64, 34
1, 64875, Note_on_c, 0, 68, 37
1, 64888, Note_off_c, 0, 73, 62
1, 64893, Note_off_c, 0, 64, 53
1, 64899, Note_off_c, 0, 70, 55
1, 64904, Note_off_c, 0, 68, 53
1, 64962, Note_on_c, 0, 92, 77
1, 64992, Note_off_c, 0, 92, 56
1, 65090, Note_on_c, 0, 71, 57
1, 65096, Note_on_c, 0, 63, 46
1, 65096, Note_on_c, 0, 68, 43
1, 65106, Note_on_c, 0, 75, 70
1, 65113, Control_c, 0, 64, 44
1, 65128, Control_c, 0, 64, 61
1, 65143, Control_c, 0, 64, 67
1, 65144, Note_off_c, 0, 71, 58
1, 65157, Control_c, 0, 64, 71
1, 65169, Note_off_c, 0, 75, 61
1, 65172, Control_c, 0, 64, 78
1, 65185, Note_off_c, 0, 63, 50
1, 65187, Control_c, 0, 64, 84
1, 65202, Control_c, 0, 64, 88
1, 65205, Note_off_c, 0, 68, 37
1, 65217, Control_c, 0, 64, 92
1, 65218, Note_on_c, 0, 87, 67
1, 65231, Control_c, 0, 64, 94
1, 65246, Control_c, 0, 64, 95
1, 65261, Control_c, 0, 64, 96
1, 65332, Note_on_c, 0, 80, 64
1, 65334, Note_off_c, 0, 87, 36
1, 65394, Control_c, 0, 64, 95
1, 65409, Control_c, 0, 64, 93
1, 65418, Note_on_c, 0, 83, 71
1, 65424, Control_c, 0, 64, 88
1, 65439, Control_c, 0, 64, 78
1, 65442, Note_off_c, 0, 83, 66
1, 65448, Note_off_c, 0, 80, 35
1, 65454, Control_c, 0, 64, 66
1, 65468, Control_c, 0, 64, 53
1, 65490, Control_c, 0, 64, 45
1, 65505, Control_c, 0, 64, 42
1, 65520, Control_c, 0, 64, 40
1, 65534, Note_on_c, 0, 87, 70
1, 65535, Control_c, 0, 64, 38
1, 65550, Control_c, 0, 64, 36
1, 65564, Control_c, 0, 64, 34
1, 65579, Control_c, 0, 64, 33
1, 65586, Note_off_c, 0, 87, 58
1, 65594, Control_c, 0, 64, 33
1, 65609, Control_c, 0, 64, 32
1, 65635, Note_on_c, 0, 99, 65
1, 65638, Control_c, 0, 64, 31
1, 65653, Control_c, 0, 64, 31
1, 65659, Note_off_c, 0, 99, 66
1, 65668, Control_c, 0, 64, 30
1, 65683, Control_c, 0, 64, 30
1, 65698, Control_c, 0, 64, 29
1, 65713, Control_c, 0, 64, 29
1, 65757, Control_c, 0, 64, 30
1, 65770, Note_on_c, 0, 73, 48
1, 65772, Control_c, 0, 64, 39
1, 65776, Note_on_c, 0, 63, 40
1, 65777, Note_on_c, 0, 67, 37
1, 65787, Control_c, 0, 64, 53
1, 65801, Note_on_c, 0, 75, 62
1, 65802, Control_c, 0, 64, 61
1, 65817, Control_c, 0, 64, 66
1, 65832, Control_c, 0, 64, 69
1, 65847, Control_c, 0, 64, 73
1, 65859, Note_off_c, 0, 75, 56
1, 65861, Note_off_c, 0, 73, 57
1, 65862, Control_c, 0, 64, 77
1, 65877, Control_c, 0, 64, 81
1, 65892, Control_c, 0, 64, 85
1, 65901, Note_on_c, 0, 87, 59
1, 65906, Control_c, 0, 64, 88
1, 65908, Note_off_c, 0, 63, 48
1, 65921, Control_c, 0, 64, 91
1, 65936, Control_c, 0, 64, 92
1, 65974, Note_off_c, 0, 67, 35
1, 66013, Note_on_c, 0, 79, 56
1, 66022, Note_off_c, 0, 87, 35
1, 66040, Control_c, 0, 64, 92
1, 66055, Control_c, 0, 64, 90
1, 66069, Control_c, 0, 64, 88
1, 66084, Control_c, 0, 64, 87
1, 66099, Control_c, 0, 64, 86
1, 66113, Note_off_c, 0, 79, 58
1, 66113, Control_c, 0, 64, 84
1, 66127, Note_on_c, 0, 82, 64
1, 66128, Control_c, 0, 64, 83
1, 66143, Control_c, 0, 64, 81
1, 66156, Note_off_c, 0, 82, 64
1, 66158, Control_c, 0, 64, 79
1, 66173, Control_c, 0, 64, 78
1, 66187, Control_c, 0, 64, 77
1, 66202, Control_c, 0, 64, 75
1, 66217, Control_c, 0, 64, 74
1, 66239, Control_c, 0, 64, 71
1, 66254, Control_c, 0, 64, 67
1, 66269, Control_c, 0, 64, 63
1, 66275, Note_on_c, 0, 87, 60
1, 66284, Control_c, 0, 64, 57
1, 66299, Control_c, 0, 64, 49
1, 66313, Control_c, 0, 64, 44
1, 66318, Note_off_c, 0, 87, 59
1, 66328, Control_c, 0, 64, 41
1, 66343, Control_c, 0, 64, 38
1, 66358, Control_c, 0, 64, 33
1, 66373, Control_c, 0, 64, 28
1, 66387, Control_c, 0, 64, 23
1, 66402, Control_c, 0, 64, 19
1, 66410, Note_on_c, 0, 99, 42
1, 66417, Control_c, 0, 64, 18
1, 66431, Control_c, 0, 64, 18
1, 66446, Control_c, 0, 64, 17
1, 66461, Control_c, 0, 64, 16
1, 66535, Note_off_c, 0, 99, 48
1, 66608, Note_on_c, 0, 56, 39
1, 66610, Control_c, 0, 64, 24
1, 66625, Control_c, 0, 64, 40
1, 66640, Control_c, 0, 64, 53
1, 66655, Control_c, 0, 64, 61
1, 66670, Control_c, 0, 64, 65
1, 66685, Control_c, 0, 64, 67
1, 66700, Control_c, 0, 64, 70
1, 66714, Control_c, 0, 64, 73
1, 66726, Note_off_c, 0, 56, 43
1, 66729, Control_c, 0, 64, 77
1, 66744, Control_c, 0, 64, 81
1, 66756, Note_on_c, 0, 63, 41
1, 66759, Control_c, 0, 64, 85
1, 66774, Control_c, 0, 64, 88
1, 66789, Control_c, 0, 64, 90
1, 66804, Control_c, 0, 64, 94
1, 66818, Control_c, 0, 64, 97
1, 66833, Control_c, 0, 64, 101
1, 66848, Control_c, 0, 64, 104
1, 66862, Control_c, 0, 64, 107
1, 66866, Note_off_c, 0, 63, 36
1, 66877, Control_c, 0, 64, 111
1, 66888, Note_on_c, 0, 71, 52
1, 66892, Control_c, 0, 64, 115
1, 66907, Control_c, 0, 64, 123
1, 66922, Control_c, 0, 64, 127
1, 66930, Note_off_c, 0, 71, 59
1, 67056, Note_on_c, 0, 80, 59
1, 67099, Note_off_c, 0, 80, 49
1, 67191, Note_on_c, 0, 75, 61
1, 67220, Note_off_c, 0, 75, 63
1, 67266, Note_on_c, 0, 87, 64
1, 67290, Note_off_c, 0, 87, 67
1, 67335, Note_on_c, 0, 87, 69
1, 67358, Note_off_c, 0, 87, 67
1, 67418, Note_on_c, 0, 87, 72
1, 67437, Note_off_c, 0, 87, 69
1, 67478, Control_c, 0, 67, 122
1, 67493, Control_c, 0, 67, 114
1, 67506, Note_on_c, 0, 87, 65
1, 67507, Control_c, 0, 67, 103
1, 67522, Control_c, 0, 67, 91
1, 67525, Note_off_c, 0, 87, 67
1, 67537, Control_c, 0, 67, 75
1, 67551, Note_on_c, 0, 99, 76
1, 67552, Control_c, 0, 67, 58
1, 67567, Control_c, 0, 67, 40
1, 67574, Note_off_c, 0, 99, 64
1, 67582, Control_c, 0, 67, 24
1, 67612, Control_c, 0, 67, 0
1, 67633, Note_on_c, 0, 87, 65
1, 67671, Note_off_c, 0, 87, 61
1, 67709, Note_on_c, 0, 87, 54
1, 67749, Note_off_c, 0, 87, 65
1, 67767, Note_on_c, 0, 99, 77
1, 67791, Note_off_c, 0, 99, 63
1, 67868, Note_on_c, 0, 85, 69
1, 67890, Note_off_c, 0, 85, 70
1, 67966, Note_on_c, 0, 85, 48
1, 67989, Note_off_c, 0, 85, 60
1, 68008, Note_on_c, 0, 97, 70
1, 68054, Note_off_c, 0, 97, 56
1, 68115, Note_on_c, 0, 44, 49
1, 68123, Control_c, 0, 64, 108
1, 68138, Control_c, 0, 64, 82
1, 68145, Note_on_c, 0, 83, 74
1, 68153, Control_c, 0, 64, 65
1, 68167, Note_off_c, 0, 83, 67
1, 68167, Control_c, 0, 64, 59
1, 68182, Control_c, 0, 64, 61
1, 68197, Control_c, 0, 64, 65
1, 68213, Control_c, 0, 64, 69
1, 68227, Note_off_c, 0, 44, 58
1, 68227, Control_c, 0, 64, 77
1, 68231, Note_on_c, 0, 83, 66
1, 68242, Control_c, 0, 64, 87
1, 68257, Control_c, 0, 64, 98
1, 68271, Note_off_c, 0, 83, 58
1, 68272, Control_c, 0, 64, 105
1, 68287, Control_c, 0, 64, 106
1, 68294, Note_on_c, 0, 95, 78
1, 68316, Note_off_c, 0, 95, 63
1, 68331, Control_c, 0, 64, 108
1, 68346, Control_c, 0, 64, 110
1, 68360, Control_c, 0, 64, 112
1, 68372, Note_on_c, 0, 51, 51
1, 68372, Note_on_c, 0, 59, 51
1, 68374, Note_on_c, 0, 83, 80
1, 68390, Control_c, 0, 64, 112
1, 68392, Note_off_c, 0, 83, 69
1, 68405, Control_c, 0, 64, 113
1, 68417, Note_off_c, 0, 59, 58
1, 68420, Control_c, 0, 64, 114
1, 68420, Note_off_c, 0, 51, 55
1, 68434, Control_c, 0, 64, 115
1, 68449, Control_c, 0, 64, 115
1, 68452, Note_on_c, 0, 83, 68
1, 68481, Note_off_c, 0, 83, 65
1, 68502, Note_on_c, 0, 95, 77
1, 68521, Note_off_c, 0, 95, 67
1, 68575, Note_on_c, 0, 51, 46
1, 68581, Note_on_c, 0, 59, 44
1, 68585, Note_on_c, 0, 82, 76
1, 68604, Note_off_c, 0, 82, 71
1, 68618, Note_off_c, 0, 51, 58
1, 68625, Note_off_c, 0, 59, 50
1, 68655, Note_on_c, 0, 82, 68
1, 68684, Note_off_c, 0, 82, 64
1, 68709, Note_on_c, 0, 94, 68
1, 68734, Note_off_c, 0, 94, 67
1, 68753, Control_c, 0, 64, 113
1, 68768, Control_c, 0, 64, 102
1, 68782, Control_c, 0, 64, 84
1, 68789, Note_on_c, 0, 47, 53
1, 68797, Control_c, 0, 64, 68
1, 68804, Note_on_c, 0, 80, 70
1, 68812, Control_c, 0, 64, 62
1, 68825, Note_off_c, 0, 80, 68
1, 68827, Control_c, 0, 64, 63
1, 68841, Control_c, 0, 64, 66
1, 68842, Note_off_c, 0, 47, 56
1, 68856, Control_c, 0, 64, 69
1, 68871, Control_c, 0, 64, 75
1, 68886, Control_c, 0, 64, 86
1, 68891, Note_on_c, 0, 80, 58
1, 68901, Control_c, 0, 64, 98
1, 68909, Note_off_c, 0, 80, 64
1, 68915, Control_c, 0, 64, 107
1, 68927, Note_on_c, 0, 92, 71
1, 68930, Control_c, 0, 64, 108
1, 68950, Note_off_c, 0, 92, 68
1, 68974, Control_c, 0, 64, 109
1, 68989, Control_c, 0, 64, 110
1, 69021, Note_on_c, 0, 79, 69
1, 69025, Note_on_c, 0, 56, 55
1, 69025, Note_on_c, 0, 63, 53
1, 69037, Note_off_c, 0, 79, 68
1, 69054, Note_off_c, 0, 63, 55
1, 69078, Note_off_c, 0, 56, 52
1, 69102, Note_on_c, 0, 79, 69
1, 69122, Note_off_c, 0, 79, 66
1, 69145, Note_on_c, 0, 91, 78
1, 69180, Note_off_c, 0, 91, 59
1, 69223, Note_on_c, 0, 63, 50
1, 69224, Note_on_c, 0, 56, 49
1, 69236, Note_on_c, 0, 80, 77
1, 69254, Note_off_c, 0, 80, 69
1, 69293, Note_off_c, 0, 56, 41
1, 69302, Note_on_c, 0, 80, 63
1, 69307, Note_off_c, 0, 63, 37
1, 69338, Note_off_c, 0, 80, 61
1, 69362, Note_on_c, 0, 92, 73
1, 69410, Note_off_c, 0, 92, 60
1, 69412, Control_c, 0, 64, 108
1, 69427, Control_c, 0, 64, 97
1, 69437, Note_on_c, 0, 51, 57
1, 69442, Control_c, 0, 64, 80
1, 69444, Note_on_c, 0, 82, 76
1, 69457, Control_c, 0, 64, 62
1, 69463, Note_off_c, 0, 82, 70
1, 69472, Control_c, 0, 64, 53
1, 69487, Control_c, 0, 64, 55
1, 69502, Control_c, 0, 64, 60
1, 69512, Note_off_c, 0, 51, 51
1, 69517, Note_on_c, 0, 82, 67
1, 69517, Control_c, 0, 64, 65
1, 69531, Control_c, 0, 64, 69
1, 69543, Note_off_c, 0, 82, 66
1, 69546, Control_c, 0, 64, 75
1, 69554, Note_on_c, 0, 94, 80
1, 69561, Control_c, 0, 64, 85
1, 69575, Control_c, 0, 64, 93
1, 69576, Note_off_c, 0, 94, 65
1, 69590, Control_c, 0, 64, 95
1, 69669, Note_on_c, 0, 67, 53
1, 69669, Note_on_c, 0, 75, 73
1, 69672, Note_on_c, 0, 58, 55
1, 69691, Note_off_c, 0, 75, 70
1, 69705, Note_off_c, 0, 67, 50
1, 69709, Control_c, 0, 64, 96
1, 69725, Note_off_c, 0, 58, 40
1, 69737, Note_on_c, 0, 75, 54
1, 69753, Control_c, 0, 64, 96
1, 69766, Note_off_c, 0, 75, 65
1, 69793, Note_on_c, 0, 87, 72
1, 69823, Note_off_c, 0, 87, 63
1, 69868, Note_on_c, 0, 58, 46
1, 69869, Note_on_c, 0, 67, 49
1, 69886, Note_on_c, 0, 75, 71
1, 69905, Note_off_c, 0, 67, 47
1, 69908, Note_off_c, 0, 75, 68
1, 69913, Note_off_c, 0, 58, 54
1, 69968, Note_on_c, 0, 75, 64
1, 70007, Note_off_c, 0, 75, 64
1, 70028, Note_on_c, 0, 87, 66
1, 70053, Note_off_c, 0, 87, 68
1, 70073, Control_c, 0, 64, 94
1, 70087, Control_c, 0, 64, 85
1, 70102, Control_c, 0, 64, 70
1, 70109, Note_on_c, 0, 55, 46
1, 70116, Note_on_c, 0, 76, 72
1, 70117, Control_c, 0, 64, 58
1, 70132, Control_c, 0, 64, 55
1, 70140, Note_off_c, 0, 76, 67
1, 70147, Control_c, 0, 64, 57
1, 70161, Control_c, 0, 64, 62
1, 70163, Note_off_c, 0, 55, 54
1, 70176, Control_c, 0, 64, 66
1, 70191, Control_c, 0, 64, 70
1, 70193, Note_on_c, 0, 76, 61
1, 70205, Control_c, 0, 64, 76
1, 70214, Note_off_c, 0, 76, 63
1, 70220, Control_c, 0, 64, 83
1, 70232, Note_on_c, 0, 88, 75
1, 70235, Control_c, 0, 64, 90
1, 70250, Control_c, 0, 64, 92
1, 70259, Note_off_c, 0, 88, 61
1, 70280, Control_c, 0, 64, 93
1, 70295, Control_c, 0, 64, 94
1, 70309, Control_c, 0, 64, 96
1, 70324, Control_c, 0, 64, 97
1, 70329, Note_on_c, 0, 75, 71
1, 70333, Note_on_c, 0, 70, 59
1, 70336, Note_on_c, 0, 63, 51
1, 70339, Control_c, 0, 64, 97
1, 70351, Note_off_c, 0, 75, 69
1, 70366, Note_off_c, 0, 70, 47
1, 70369, Control_c, 0, 64, 98
1, 70384, Control_c, 0, 64, 98
1, 70393, Note_on_c, 0, 75, 63
1, 70399, Control_c, 0, 64, 99
1, 70417, Note_off_c, 0, 63, 36
1, 70432, Note_off_c, 0, 75, 62
1, 70452, Note_on_c, 0, 87, 68
1, 70476, Note_off_c, 0, 87, 64
1, 70524, Note_on_c, 0, 70, 56
1, 70533, Note_on_c, 0, 63, 53
1, 70545, Note_on_c, 0, 73, 77
1, 70549, Note_off_c, 0, 70, 54
1, 70561, Note_off_c, 0, 63, 55
1, 70572, Note_off_c, 0, 73, 64
1, 70636, Note_on_c, 0, 73, 68
1, 70661, Note_off_c, 0, 73, 61
1, 70682, Note_on_c, 0, 85, 71
1, 70703, Note_off_c, 0, 85, 70
1, 70748, Control_c, 0, 64, 93
1, 70763, Control_c, 0, 64, 80
1, 70774, Note_on_c, 0, 56, 49
1, 70777, Control_c, 0, 64, 65
1, 70781, Note_on_c, 0, 71, 73
1, 70792, Control_c, 0, 64, 54
1, 70803, Note_off_c, 0, 71, 69
1, 70807, Control_c, 0, 64, 56
1, 70822, Control_c, 0, 64, 61
1, 70837, Control_c, 0, 64, 65
1, 70852, Control_c, 0, 64, 69
1, 70858, Note_on_c, 0, 71, 65
1, 70864, Note_off_c, 0, 56, 44
1, 70867, Control_c, 0, 64, 74
1, 70882, Control_c, 0, 64, 82
1, 70885, Note_off_c, 0, 71, 63
1, 70897, Control_c, 0, 64, 91
1, 70910, Note_on_c, 0, 83, 77
1, 70911, Control_c, 0, 64, 93
1, 70932, Note_off_c, 0, 83, 68
1, 70941, Control_c, 0, 64, 94
1, 70956, Control_c, 0, 64, 94
1, 70971, Control_c, 0, 64, 95
1, 70985, Control_c, 0, 64, 96
1, 70989, Note_on_c, 0, 71, 70
1, 70992, Note_on_c, 0, 63, 48
1, 70993, Note_on_c, 0, 68, 45
1, 71016, Note_off_c, 0, 71, 66
1, 71026, Note_off_c, 0, 68, 49
1, 71043, Note_off_c, 0, 63, 55
1, 71072, Note_on_c, 0, 71, 63
1, 71091, Note_off_c, 0, 71, 63
1, 71117, Note_on_c, 0, 83, 71
1, 71132, Note_off_c, 0, 83, 68
1, 71169, Note_on_c, 0, 68, 47
1, 71176, Note_on_c, 0, 63, 52
1, 71207, Note_on_c, 0, 70, 73
1, 71212, Note_off_c, 0, 68, 56
1, 71230, Note_off_c, 0, 63, 53
1, 71230, Note_off_c, 0, 70, 66
1, 71261, Poly_aftertouch_c, 0, 70, 0
1, 71266, Note_on_c, 0, 70, 62
1, 71304, Note_off_c, 0, 70, 59
1, 71325, Note_on_c, 0, 82, 69
1, 71341, Control_c, 0, 64, 95
1, 71352, Note_off_c, 0, 82, 65
1, 71355, Control_c, 0, 64, 94
1, 71368, Control_c, 0, 64, 89
1, 71383, Control_c, 0, 64, 79
1, 71399, Control_c, 0, 64, 63
1, 71413, Note_on_c, 0, 59, 45
1, 71414, Control_c, 0, 64, 39
1, 71425, Note_on_c, 0, 68, 70
1, 71429, Control_c, 0, 64, 0
1, 71445, Note_off_c, 0, 68, 68
1, 71458, Control_c, 0, 64, 33
1, 71481, Control_c, 0, 64, 53
1, 71496, Control_c, 0, 64, 65
1, 71508, Note_on_c, 0, 68, 55
1, 71511, Control_c, 0, 64, 71
1, 71525, Control_c, 0, 64, 78
1, 71532, Note_off_c, 0, 68, 63
1, 71540, Control_c, 0, 64, 83
1, 71544, Note_off_c, 0, 59, 34
1, 71553, Note_on_c, 0, 80, 64
1, 71555, Control_c, 0, 64, 87
1, 71570, Control_c, 0, 64, 90
1, 71576, Note_off_c, 0, 80, 68
1, 71584, Control_c, 0, 64, 92
1, 71599, Control_c, 0, 64, 93
1, 71614, Control_c, 0, 64, 94
1, 71629, Control_c, 0, 64, 95
1, 71644, Control_c, 0, 64, 96
1, 71647, Note_on_c, 0, 65, 47
1, 71650, Note_on_c, 0, 67, 67
1, 71655, Note_on_c, 0, 62, 44
1, 71672, Note_off_c, 0, 65, 57
1, 71676, Note_off_c, 0, 67, 63
1, 71689, Control_c, 0, 64, 96
1, 71702, Note_off_c, 0, 62, 42
1, 71749, Note_on_c, 0, 67, 40
1, 71772, Note_off_c, 0, 67, 57
1, 71776, Note_on_c, 0, 79, 69
1, 71800, Note_off_c, 0, 79, 67
1, 71839, Note_on_c, 0, 62, 55
1, 71856, Note_on_c, 0, 65, 38
1, 71860, Note_on_c, 0, 68, 73
1, 71883, Note_off_c, 0, 68, 66
1, 71885, Note_off_c, 0, 62, 55
1, 71887, Note_off_c, 0, 65, 48
1, 71932, Note_on_c, 0, 68, 56
1, 71964, Note_off_c, 0, 68, 62
1, 71992, Note_on_c, 0, 80, 69
1, 72032, Note_off_c, 0, 80, 52
1, 72044, Control_c, 0, 64, 95
1, 72059, Control_c, 0, 64, 94
1, 72074, Control_c, 0, 64, 87
1, 72086, Note_on_c, 0, 70, 69
1, 72089, Control_c, 0, 64, 75
1, 72101, Note_on_c, 0, 51, 43
1, 72103, Control_c, 0, 64, 61
1, 72110, Note_off_c, 0, 70, 66
1, 72118, Control_c, 0, 64, 48
1, 72133, Control_c, 0, 64, 49
1, 72148, Control_c, 0, 64, 57
1, 72161, Note_on_c, 0, 70, 59
1, 72163, Control_c, 0, 64, 63
1, 72168, Note_off_c, 0, 51, 48
1, 72177, Control_c, 0, 64, 68
1, 72190, Note_off_c, 0, 70, 62
1, 72193, Control_c, 0, 64, 74
1, 72199, Note_on_c, 0, 82, 74
1, 72208, Control_c, 0, 64, 83
1, 72230, Control_c, 0, 64, 88
1, 72234, Note_off_c, 0, 82, 63
1, 72245, Control_c, 0, 64, 89
1, 72289, Control_c, 0, 64, 90
1, 72304, Control_c, 0, 64, 91
1, 72318, Note_on_c, 0, 58, 57
1, 72319, Control_c, 0, 64, 91
1, 72330, Note_on_c, 0, 63, 73
1, 72347, Note_off_c, 0, 63, 66
1, 72354, Note_off_c, 0, 58, 60
1, 72361, Note_on_c, 0, 67, 3
1, 72396, Note_off_c, 0, 67, 33
1, 72412, Note_on_c, 0, 63, 67
1, 72432, Note_off_c, 0, 63, 65
1, 72491, Note_on_c, 0, 75, 44
1, 72516, Note_off_c, 0, 75, 54
1, 72566, Note_on_c, 0, 75, 71
1, 72589, Note_off_c, 0, 75, 68
1, 72647, Note_on_c, 0, 75, 61
1, 72677, Note_off_c, 0, 75, 65
1, 72714, Poly_aftertouch_c, 0, 75, 0
1, 72720, Note_on_c, 0, 75, 71
1, 72748, Note_off_c, 0, 75, 60
1, 72778, Control_c, 0, 64, 89
1, 72793, Control_c, 0, 64, 79
1, 72807, Control_c, 0, 64, 67
1, 72822, Note_on_c, 0, 87, 70
1, 72822, Control_c, 0, 64, 58
1, 72837, Control_c, 0, 64, 59
1, 72845, Note_off_c, 0, 87, 67
1, 72852, Control_c, 0, 64, 62
1, 72867, Control_c, 0, 64, 65
1, 72882, Control_c, 0, 64, 69
1, 72897, Control_c, 0, 64, 74
1, 72902, Note_on_c, 0, 87, 71
1, 72912, Control_c, 0, 64, 81
1, 72926, Control_c, 0, 64, 90
1, 72940, Note_off_c, 0, 87, 61
1, 72941, Control_c, 0, 64, 93
1, 72956, Control_c, 0, 64, 94
1, 72963, Note_on_c, 0, 99, 77
1, 72978, Control_c, 0, 64, 94
1, 72993, Control_c, 0, 64, 96
1, 73009, Control_c, 0, 64, 100
1, 73011, Note_off_c, 0, 99, 59
1, 73023, Control_c, 0, 64, 103
1, 73038, Control_c, 0, 64, 106
1, 73053, Control_c, 0, 64, 106
1, 73064, Note_on_c, 0, 87, 77
1, 73068, Control_c, 0, 64, 107
1, 73083, Control_c, 0, 64, 110
1, 73097, Note_off_c, 0, 87, 63
1, 73097, Control_c, 0, 64, 113
1, 73112, Control_c, 0, 64, 115
1, 73127, Control_c, 0, 64, 116
1, 73140, Poly_aftertouch_c, 0, 87, 0
1, 73147, Note_on_c, 0, 87, 60
1, 73199, Note_off_c, 0, 87, 62
1, 73216, Note_on_c, 0, 99, 74
1, 73241, Note_off_c, 0, 99, 61
1, 73328, Note_on_c, 0, 85, 72
1, 73362, Note_off_c, 0, 85, 64
1, 73433, Note_on_c, 0, 85, 61
1, 73438, Control_c, 0, 64, 115
1, 73453, Control_c, 0, 64, 114
1, 73468, Control_c, 0, 64, 113
1, 73469, Note_off_c, 0, 85, 60
1, 73483, Control_c, 0, 64, 111
1, 73497, Control_c, 0, 64, 110
1, 73508, Note_on_c, 0, 97, 65
1, 73512, Control_c, 0, 64, 108
1, 73527, Control_c, 0, 64, 106
1, 73542, Control_c, 0, 64, 104
1, 73556, Note_off_c, 0, 97, 58
1, 73556, Control_c, 0, 64, 104
1, 73616, Control_c, 0, 64, 103
1, 73630, Control_c, 0, 64, 99
1, 73631, Note_on_c, 0, 44, 48
1, 73645, Control_c, 0, 64, 84
1, 73660, Control_c, 0, 64, 69
1, 73662, Note_on_c, 0, 83, 67
1, 73675, Control_c, 0, 64, 60
1, 73686, Note_off_c, 0, 83, 67
1, 73690, Control_c, 0, 64, 59
1, 73705, Control_c, 0, 64, 62
1, 73727, Control_c, 0, 64, 65
1, 73742, Control_c, 0, 64, 69
1, 73756, Control_c, 0, 64, 76
1, 73758, Note_off_c, 0, 44, 59
1, 73764, Note_on_c, 0, 83, 67
1, 73771, Control_c, 0, 64, 85
1, 73786, Control_c, 0, 64, 95
1, 73802, Control_c, 0, 64, 101
1, 73809, Note_off_c, 0, 83, 61
1, 73817, Control_c, 0, 64, 102
1, 73832, Control_c, 0, 64, 103
1, 73840, Note_on_c, 0, 95, 72
1, 73846, Control_c, 0, 64, 105
1, 73859, Note_off_c, 0, 95, 69
1, 73861, Control_c, 0, 64, 108
1, 73876, Control_c, 0, 64, 113
1, 73891, Control_c, 0, 64, 117
1, 73906, Control_c, 0, 64, 118
1, 73919, Note_on_c, 0, 59, 50
1, 73920, Control_c, 0, 64, 119
1, 73922, Note_on_c, 0, 83, 77
1, 73923, Note_on_c, 0, 51, 46
1, 73935, Control_c, 0, 64, 122
1, 73943, Note_off_c, 0, 83, 69
1, 73950, Control_c, 0, 64, 127
1, 73967, Note_off_c, 0, 59, 56
1, 73973, Note_off_c, 0, 51, 54
1, 74004, Note_on_c, 0, 83, 68
1, 74029, Note_off_c, 0, 83, 67
1, 74050, Note_on_c, 0, 95, 77
1, 74069, Note_off_c, 0, 95, 68
1, 74119, Note_on_c, 0, 51, 44
1, 74122, Note_on_c, 0, 59, 43
1, 74142, Note_on_c, 0, 82, 74
1, 74162, Note_off_c, 0, 82, 69
1, 74167, Note_off_c, 0, 51, 56
1, 74170, Note_off_c, 0, 59, 55
1, 74201, Poly_aftertouch_c, 0, 82, 0
1, 74208, Note_on_c, 0, 82, 63
1, 74250, Note_off_c, 0, 82, 62
1, 74269, Note_on_c, 0, 94, 68
1, 74292, Note_off_c, 0, 94, 68
1, 74320, Control_c, 0, 64, 105
1, 74335, Control_c, 0, 64, 85
1, 74350, Control_c, 0, 64, 67
1, 74352, Note_on_c, 0, 47, 49
1, 74365, Control_c, 0, 64, 57
1, 74378, Note_on_c, 0, 80, 70
1, 74379, Control_c, 0, 64, 59
1, 74394, Control_c, 0, 64, 64
1, 74400, Note_off_c, 0, 80, 68
1, 74409, Control_c, 0, 64, 68
1, 74423, Note_off_c, 0, 47, 59
1, 74424, Control_c, 0, 64, 74
1, 74439, Control_c, 0, 64, 83
1, 74453, Control_c, 0, 64, 95
1, 74454, Note_on_c, 0, 80, 68
1, 74476, Control_c, 0, 64, 102
1, 74494, Note_off_c, 0, 80, 60
1, 74520, Control_c, 0, 64, 102
1, 74530, Note_on_c, 0, 92, 65
1, 74535, Control_c, 0, 64, 104
1, 74550, Control_c, 0, 64, 105
1, 74557, Note_off_c, 0, 92, 65
1, 74565, Control_c, 0, 64, 106
1, 74608, Note_on_c, 0, 56, 51
1, 74617, Note_on_c, 0, 63, 45
1, 74624, Note_on_c, 0, 79, 62
1, 74641, Note_off_c, 0, 79, 65
1, 74652, Note_off_c, 0, 63, 49
1, 74662, Note_off_c, 0, 56, 50
1, 74706, Note_on_c, 0, 79, 54
1, 74725, Note_off_c, 0, 79, 64
1, 74767, Note_on_c, 0, 91, 50
1, 74770, Note_on_c, 0, 93, 44
1, 74791, Note_off_c, 0, 91, 60
1, 74795, Note_off_c, 0, 93, 57
1, 74811, Note_on_c, 0, 63, 45
1, 74812, Note_on_c, 0, 56, 49
1, 74830, Note_on_c, 0, 80, 70
1, 74852, Note_off_c, 0, 80, 69
1, 74852, Note_off_c, 0, 63, 52
1, 74870, Note_off_c, 0, 56, 43
1, 74900, Note_on_c, 0, 80, 62
1, 74929, Note_off_c, 0, 80, 62
1, 74963, Note_on_c, 0, 92, 68
1, 74995, Note_off_c, 0, 92, 58
1, 75010, Control_c, 0, 64, 99
1, 75025, Control_c, 0, 64, 85
1, 75029, Note_on_c, 0, 51, 52
1, 75039, Note_on_c, 0, 82, 72
1, 75040, Control_c, 0, 64, 69
1, 75055, Control_c, 0, 64, 58
1, 75058, Note_off_c, 0, 82, 71
1, 75069, Control_c, 0, 64, 58
1, 75084, Control_c, 0, 64, 62
1, 75099, Control_c, 0, 64, 65
1, 75114, Control_c, 0, 64, 70
1, 75116, Note_off_c, 0, 51, 56
1, 75118, Note_on_c, 0, 82, 63
1, 75128, Control_c, 0, 64, 76
1, 75143, Control_c, 0, 64, 86
1, 75146, Note_off_c, 0, 82, 66
1, 75158, Control_c, 0, 64, 95
1, 75159, Note_on_c, 0, 94, 80
1, 75173, Control_c, 0, 64, 100
1, 75182, Note_off_c, 0, 94, 65
1, 75202, Control_c, 0, 64, 101
1, 75225, Control_c, 0, 64, 102
1, 75240, Control_c, 0, 64, 103
1, 75255, Control_c, 0, 64, 105
1, 75284, Control_c, 0, 64, 106
1, 75285, Note_on_c, 0, 75, 72
1, 75285, Note_on_c, 0, 58, 52
1, 75290, Note_on_c, 0, 67, 54
1, 75299, Control_c, 0, 64, 107
1, 75306, Note_off_c, 0, 75, 68
1, 75314, Control_c, 0, 64, 108
1, 75325, Note_off_c, 0, 58, 45
1, 75328, Control_c, 0, 64, 109
1, 75343, Control_c, 0, 64, 110
1, 75344, Note_off_c, 0, 67, 51
1, 75354, Note_on_c, 0, 75, 55
1, 75373, Control_c, 0, 64, 110
1, 75388, Control_c, 0, 64, 111
1, 75389, Note_off_c, 0, 75, 63
1, 75413, Note_on_c, 0, 87, 70
1, 75440, Note_off_c, 0, 87, 65
1, 75500, Note_on_c, 0, 67, 57
1, 75507, Note_on_c, 0, 75, 70
1, 75512, Note_on_c, 0, 70, 59
1, 75532, Note_off_c, 0, 75, 66
1, 75590, Note_on_c, 0, 75, 60
1, 75616, Note_off_c, 0, 70, 33
1, 75616, Note_off_c, 0, 75, 64
1, 75621, Note_off_c, 0, 67, 36
1, 75636, Note_on_c, 0, 87, 68
1, 75660, Note_off_c, 0, 87, 68
1, 75685, Control_c, 0, 64, 106
1, 75699, Control_c, 0, 64, 90
1, 75714, Control_c, 0, 64, 72
1, 75720, Note_on_c, 0, 68, 52
1, 75723, Note_on_c, 0, 76, 70
1, 75724, Note_on_c, 0, 71, 46
1, 75729, Control_c, 0, 64, 55
1, 75744, Control_c, 0, 64, 34
1, 75747, Note_off_c, 0, 68, 54
1, 75747, Note_off_c, 0, 71, 56
1, 75747, Note_off_c, 0, 76, 67
1, 75759, Control_c, 0, 64, 16
1, 75800, Note_on_c, 0, 76, 61
1, 75826, Note_off_c, 0, 76, 64
1, 75848, Note_on_c, 0, 88, 75
1, 75869, Note_off_c, 0, 88, 68
1, 75931, Note_on_c, 0, 69, 54
1, 75937, Note_on_c, 0, 75, 71
1, 75942, Note_on_c, 0, 66, 45
1, 75958, Note_off_c, 0, 69, 62
1, 75958, Note_off_c, 0, 75, 68
1, 75982, Note_off_c, 0, 66, 53
1, 76018, Note_on_c, 0, 75, 61
1, 76044, Note_off_c, 0, 75, 66
1, 76067, Note_on_c, 0, 87, 66
1, 76092, Note_off_c, 0, 87, 67
1, 76157, Note_on_c, 0, 64, 48
1, 76161, Note_on_c, 0, 68, 50
1, 76163, Note_on_c, 0, 73, 71
1, 76187, Note_off_c, 0, 73, 68
1, 76206, Note_off_c, 0, 64, 58
1, 76240, Note_off_c, 0, 68, 37
1, 76243, Note_on_c, 0, 73, 62
1, 76278, Note_off_c, 0, 73, 63
1, 76311, Note_on_c, 0, 85, 63
1, 76349, Note_off_c, 0, 85, 56
1, 76387, Note_on_c, 0, 68, 33
1, 76389, Note_on_c, 0, 63, 43
1, 76391, Note_on_c, 0, 71, 43
1, 76419, Control_c, 0, 64, 27
1, 76420, Note_on_c, 0, 75, 65
1, 76434, Control_c, 0, 64, 47
1, 76448, Control_c, 0, 64, 60
1, 76450, Note_off_c, 0, 75, 63
1, 76463, Control_c, 0, 64, 66
1, 76478, Control_c, 0, 64, 70
1, 76493, Control_c, 0, 64, 74
1, 76496, Note_on_c, 0, 75, 47
1, 76508, Control_c, 0, 64, 81
1, 76516, Note_off_c, 0, 71, 55
1, 76522, Control_c, 0, 64, 88
1, 76525, Note_off_c, 0, 75, 65
1, 76537, Control_c, 0, 64, 93
1, 76552, Control_c, 0, 64, 96
1, 76562, Note_on_c, 0, 87, 66
1, 76566, Control_c, 0, 64, 99
1, 76581, Control_c, 0, 64, 101
1, 76583, Note_off_c, 0, 63, 37
1, 76584, Note_off_c, 0, 87, 65
1, 76589, Note_off_c, 0, 68, 40
1, 76596, Control_c, 0, 64, 102
1, 76611, Control_c, 0, 64, 103
1, 76626, Control_c, 0, 64, 105
1, 76641, Control_c, 0, 64, 107
1, 76651, Note_on_c, 0, 76, 67
1, 76656, Control_c, 0, 64, 109
1, 76671, Control_c, 0, 64, 110
1, 76678, Note_off_c, 0, 76, 66
1, 76700, Control_c, 0, 64, 110
1, 76722, Control_c, 0, 64, 111
1, 76730, Note_on_c, 0, 76, 62
1, 76737, Control_c, 0, 64, 113
1, 76752, Control_c, 0, 64, 113
1, 76756, Note_off_c, 0, 76, 67
1, 76766, Control_c, 0, 64, 114
1, 76781, Control_c, 0, 64, 114
1, 76790, Note_on_c, 0, 87, 75
1, 76846, Note_off_c, 0, 87, 60
1, 76871, Note_on_c, 0, 77, 72
1, 76894, Note_off_c, 0, 77, 63
1, 76932, Note_on_c, 0, 77, 55
1, 76978, Note_off_c, 0, 77, 59
1, 77002, Note_on_c, 0, 87, 69
1, 77076, Note_on_c, 0, 78, 78
1, 77081, Note_off_c, 0, 87, 53
1, 77119, Note_off_c, 0, 78, 62
1, 77157, Poly_aftertouch_c, 0, 78, 0
1, 77163, Note_on_c, 0, 78, 51
1, 77201, Note_off_c, 0, 78, 61
1, 77216, Note_on_c, 0, 87, 62
1, 77227, Control_c, 0, 64, 114
1, 77242, Control_c, 0, 64, 113
1, 77257, Control_c, 0, 64, 112
1, 77271, Control_c, 0, 64, 110
1, 77286, Control_c, 0, 64, 108
1, 77289, Note_on_c, 0, 79, 65
1, 77301, Control_c, 0, 64, 106
1, 77303, Note_off_c, 0, 87, 50
1, 77315, Control_c, 0, 64, 105
1, 77318, Note_off_c, 0, 79, 60
1, 77330, Control_c, 0, 64, 103
1, 77346, Control_c, 0, 64, 101
1, 77361, Control_c, 0, 64, 100
1, 77374, Note_on_c, 0, 79, 53
1, 77376, Control_c, 0, 64, 98
1, 77390, Control_c, 0, 64, 96
1, 77405, Control_c, 0, 64, 95
1, 77420, Control_c, 0, 64, 94
1, 77427, Note_on_c, 0, 87, 68
1, 77435, Control_c, 0, 64, 93
1, 77448, Note_off_c, 0, 79, 37
1, 77505, Note_off_c, 0, 87, 59
1, 77510, Note_on_c, 0, 80, 74
1, 77534, Note_on_c, 0, 51, 52
1, 77546, Control_c, 0, 64, 93
1, 77548, Note_off_c, 0, 80, 59
1, 77561, Control_c, 0, 64, 89
1, 77576, Control_c, 0, 64, 79
1, 77590, Control_c, 0, 64, 66
1, 77597, Note_on_c, 0, 80, 47
1, 77604, Note_off_c, 0, 51, 59
1, 77605, Control_c, 0, 64, 62
1, 77616, Note_on_c, 0, 61, 53
1, 77620, Control_c, 0, 64, 63
1, 77635, Control_c, 0, 64, 66
1, 77641, Note_off_c, 0, 80, 57
1, 77647, Note_on_c, 0, 87, 55
1, 77650, Control_c, 0, 64, 71
1, 77664, Control_c, 0, 64, 79
1, 77679, Control_c, 0, 64, 89
1, 77686, Note_on_c, 0, 67, 60
1, 77692, Note_off_c, 0, 61, 51
1, 77694, Control_c, 0, 64, 99
1, 77709, Control_c, 0, 64, 102
1, 77713, Note_off_c, 0, 67, 61
1, 77724, Note_on_c, 0, 81, 47
1, 77741, Note_off_c, 0, 87, 55
1, 77748, Note_off_c, 0, 81, 56
1, 77753, Control_c, 0, 64, 103
1, 77768, Control_c, 0, 64, 104
1, 77783, Control_c, 0, 64, 105
1, 77794, Note_on_c, 0, 81, 60
1, 77799, Control_c, 0, 64, 106
1, 77813, Control_c, 0, 64, 107
1, 77828, Control_c, 0, 64, 108
1, 77854, Note_off_c, 0, 81, 50
1, 77858, Control_c, 0, 64, 108
1, 77866, Note_on_c, 0, 87, 62
1, 77932, Note_off_c, 0, 87, 61
1, 77934, Note_on_c, 0, 82, 72
1, 77958, Note_off_c, 0, 82, 66
1, 77996, Note_on_c, 0, 82, 55
1, 78041, Note_off_c, 0, 82, 60
1, 78060, Note_on_c, 0, 87, 56
1, 78134, Note_on_c, 0, 83, 67
1, 78138, Note_off_c, 0, 87, 58
1, 78166, Note_off_c, 0, 83, 58
1, 78219, Note_on_c, 0, 83, 61
1, 78274, Note_off_c, 0, 83, 56
1, 78299, Note_on_c, 0, 87, 57
1, 78363, Note_off_c, 0, 87, 59
1, 78364, Note_on_c, 0, 84, 65
1, 78395, Note_off_c, 0, 84, 60
1, 78399, Control_c, 0, 67, 28
1, 78414, Control_c, 0, 67, 46
1, 78428, Control_c, 0, 67, 66
1, 78443, Control_c, 0, 67, 86
1, 78458, Control_c, 0, 67, 105
1, 78463, Note_on_c, 0, 84, 49
1, 78472, Control_c, 0, 67, 124
1, 78487, Control_c, 0, 67, 127
1, 78508, Note_off_c, 0, 84, 55
1, 78528, Note_on_c, 0, 87, 60
1, 78561, Control_c, 0, 64, 108
1, 78576, Control_c, 0, 64, 106
1, 78583, Note_off_c, 0, 87, 58
1, 78592, Control_c, 0, 64, 106
1, 78596, Note_on_c, 0, 85, 65
1, 78607, Control_c, 0, 64, 105
1, 78620, Note_off_c, 0, 85, 69
1, 78622, Control_c, 0, 64, 104
1, 78636, Control_c, 0, 64, 104
1, 78651, Control_c, 0, 64, 103
1, 78666, Control_c, 0, 64, 102
1, 78681, Control_c, 0, 64, 102
1, 78696, Control_c, 0, 64, 101
1, 78710, Note_on_c, 0, 85, 52
1, 78710, Control_c, 0, 64, 101
1, 78731, Note_off_c, 0, 85, 60
1, 78740, Control_c, 0, 64, 100
1, 78752, Note_on_c, 0, 87, 60
1, 78755, Control_c, 0, 64, 97
1, 78769, Control_c, 0, 64, 93
1, 78784, Control_c, 0, 64, 83
1, 78795, Note_on_c, 0, 44, 46
1, 78799, Control_c, 0, 64, 69
1, 78812, Note_off_c, 0, 87, 64
1, 78814, Control_c, 0, 64, 60
1, 78829, Control_c, 0, 64, 58
1, 78844, Control_c, 0, 64, 60
1, 78858, Control_c, 0, 64, 64
1, 78863, Note_on_c, 0, 86, 56
1, 78873, Control_c, 0, 64, 67
1, 78877, Note_off_c, 0, 44, 54
1, 78887, Control_c, 0, 64, 72
1, 78900, Note_on_c, 0, 51, 42
1, 78902, Control_c, 0, 64, 78
1, 78913, Note_off_c, 0, 86, 57
1, 78917, Control_c, 0, 64, 86
1, 78932, Control_c, 0, 64, 92
1, 78947, Control_c, 0, 64, 96
1, 78954, Note_off_c, 0, 51, 55
1, 78969, Control_c, 0, 64, 96
1, 78984, Control_c, 0, 64, 98
1, 78999, Control_c, 0, 64, 101
1, 79001, Note_on_c, 0, 86, 44
1, 79013, Note_on_c, 0, 59, 51
1, 79014, Control_c, 0, 64, 105
1, 79029, Control_c, 0, 64, 109
1, 79043, Control_c, 0, 64, 111
1, 79058, Control_c, 0, 64, 112
1, 79061, Note_off_c, 0, 59, 56
1, 79073, Control_c, 0, 64, 113
1, 79088, Control_c, 0, 64, 114
1, 79102, Control_c, 0, 64, 116
1, 79117, Control_c, 0, 64, 119
1, 79132, Control_c, 0, 64, 127
1, 79134, Note_on_c, 0, 87, 61
1, 79136, Note_off_c, 0, 86, 43
1, 79170, Note_off_c, 0, 87, 61
1, 79255, Note_on_c, 0, 68, 45
1, 79283, Note_on_c, 0, 87, 61
1, 79302, Note_off_c, 0, 87, 64
1, 79375, Note_on_c, 0, 87, 65
1, 79411, Note_off_c, 0, 68, 30
1, 79449, Note_off_c, 0, 87, 59
1, 79487, Note_on_c, 0, 99, 56
1, 79515, Note_off_c, 0, 99, 56
1, 79580, Note_on_c, 0, 88, 65
1, 79616, Note_off_c, 0, 88, 55
1, 79674, Note_on_c, 0, 88, 46
1, 79716, Note_off_c, 0, 88, 65
1, 79755, Note_on_c, 0, 99, 66
1, 79810, Note_off_c, 0, 99, 61
1, 79856, Note_on_c, 0, 89, 69
1, 79896, Note_off_c, 0, 89, 56
1, 79948, Note_on_c, 0, 89, 49
1, 80016, Note_on_c, 0, 99, 66
1, 80034, Note_off_c, 0, 89, 36
1, 80130, Note_on_c, 0, 90, 63
1, 80132, Note_off_c, 0, 99, 54
1, 80183, Note_off_c, 0, 90, 51
1, 80222, Note_on_c, 0, 90, 44
1, 80337, Note_off_c, 0, 90, 37
1, 80341, Note_on_c, 0, 99, 60
1, 80436, Note_on_c, 0, 91, 60
1, 80469, Note_off_c, 0, 99, 44
1, 80486, Note_off_c, 0, 91, 58
1, 80581, Note_on_c, 0, 91, 57
1, 80662, Note_off_c, 0, 91, 52
1, 80667, Note_on_c, 0, 99, 57
1, 80827, Note_on_c, 0, 92, 57
1, 80846, Note_off_c, 0, 99, 36
1, 80892, Note_off_c, 0, 92, 56
1, 81008, Note_on_c, 0, 92, 57
1, 81061, Control_c, 0, 67, 127
1, 81082, Note_off_c, 0, 92, 39
1, 81120, Control_c, 0, 67, 126
1, 81179, Control_c, 0, 67, 126
1, 81239, Note_on_c, 0, 99, 50
1, 81246, Control_c, 0, 67, 125
1, 81276, Control_c, 0, 67, 125
1, 81290, Control_c, 0, 67, 124
1, 81305, Control_c, 0, 67, 124
1, 81335, Control_c, 0, 67, 123
1, 81342, Note_off_c, 0, 99, 54
1, 81379, Control_c, 0, 67, 123
1, 81453, Control_c, 0, 67, 122
1, 81482, Control_c, 0, 67, 122
1, 81497, Control_c, 0, 67, 121
1, 81512, Control_c, 0, 67, 121
1, 81527, Control_c, 0, 67, 120
1, 81542, Control_c, 0, 67, 119
1, 81556, Control_c, 0, 67, 118
1, 81571, Control_c, 0, 67, 117
1, 81586, Control_c, 0, 67, 115
1, 81601, Control_c, 0, 67, 113
1, 81616, Control_c, 0, 67, 109
1, 81631, Control_c, 0, 67, 104
1, 81646, Control_c, 0, 67, 95
1, 81661, Control_c, 0, 67, 86
1, 81676, Control_c, 0, 67, 71
1, 81690, Control_c, 0, 67, 55
1, 81705, Control_c, 0, 67, 38
1, 81720, Control_c, 0, 67, 26
1, 81750, Control_c, 0, 67, 0
1, 81928, Control_c, 0, 64, 123
1, 81943, Control_c, 0, 64, 109
1, 81965, Control_c, 0, 64, 103
1, 81980, Control_c, 0, 64, 98
1, 81995, Control_c, 0, 64, 94
1, 82010, Control_c, 0, 64, 91
1, 82024, Control_c, 0, 64, 86
1, 82039, Control_c, 0, 64, 81
1, 82054, Control_c, 0, 64, 74
1, 82069, Control_c, 0, 64, 67
1, 82084, Control_c, 0, 64, 63
1, 82099, Control_c, 0, 64, 61
1, 82113, Control_c, 0, 64, 60
1, 82128, Control_c, 0, 64, 59
1, 82143, Control_c, 0, 64, 57
1, 82158, Control_c, 0, 64, 54
1, 82173, Control_c, 0, 64, 50
1, 82187, Control_c, 0, 64, 46
1, 82202, Control_c, 0, 64, 39
1, 82217, Control_c, 0, 64, 27
1, 82231, Control_c, 0, 64, 0
1, 82641, Note_on_c, 0, 71, 62
1, 82650, Note_on_c, 0, 68, 57
1, 82709, Note_off_c, 0, 68, 52
1, 82793, Note_on_c, 0, 70, 55
1, 82795, Note_off_c, 0, 71, 53
1, 82823, Note_on_c, 0, 67, 11
1, 82826, Note_off_c, 0, 70, 59
1, 82861, Note_off_c, 0, 67, 30
1, 82919, Note_on_c, 0, 66, 65
1, 82919, Note_on_c, 0, 69, 65
1, 82929, Note_on_c, 0, 71, 52
1, 82945, Note_off_c, 0, 69, 67
1, 82949, Note_off_c, 0, 66, 61
1, 82954, Note_off_c, 0, 71, 57
1, 83041, Note_on_c, 0, 71, 70
1, 83049, Note_on_c, 0, 65, 58
1, 83065, Note_on_c, 0, 68, 53
1, 83074, Note_off_c, 0, 65, 63
1, 83085, Note_off_c, 0, 68, 60
1, 83089, Note_off_c, 0, 71, 55
1, 83179, Note_on_c, 0, 64, 55
1, 83185, Note_on_c, 0, 67, 67
1, 83200, Note_on_c, 0, 71, 55
1, 83201, Note_off_c, 0, 64, 62
1, 83216, Note_off_c, 0, 67, 60
1, 83220, Note_off_c, 0, 71, 62
1, 83309, Note_on_c, 0, 63, 56
1, 83315, Note_on_c, 0, 71, 58
1, 83320, Note_on_c, 0, 66, 63
1, 83345, Note_off_c, 0, 63, 61
1, 83348, Note_off_c, 0, 66, 64
1, 83360, Note_off_c, 0, 71, 57
1, 83458, Note_on_c, 0, 62, 60
1, 83466, Note_on_c, 0, 65, 62
1, 83482, Note_on_c, 0, 71, 49
1, 83491, Note_off_c, 0, 62, 62
1, 83494, Note_off_c, 0, 65, 64
1, 83504, Note_off_c, 0, 71, 59
1, 83593, Note_on_c, 0, 71, 59
1, 83595, Note_on_c, 0, 61, 59
1, 83601, Note_on_c, 0, 64, 55
1, 83622, Note_off_c, 0, 64, 61
1, 83628, Note_off_c, 0, 61, 62
1, 83629, Note_off_c, 0, 71, 58
1, 83724, Note_on_c, 0, 73, 75
1, 83761, Note_off_c, 0, 73, 66
1, 83768, Note_on_c, 0, 71, 61
1, 83816, Note_off_c, 0, 71, 61
1, 83819, Note_on_c, 0, 70, 65
1, 83867, Note_on_c, 0, 71, 55
1, 83884, Note_off_c, 0, 70, 58
1, 83897, Note_off_c, 0, 71, 63
1, 83929, Note_on_c, 0, 66, 67
1, 83936, Control_c, 0, 64, 42
1, 83939, Note_on_c, 0, 59, 53
1, 83939, Note_on_c, 0, 63, 56
1, 83950, Control_c, 0, 64, 60
1, 83965, Control_c, 0, 64, 65
1, 83971, Note_off_c, 0, 66, 50
1, 83980, Note_off_c, 0, 59, 61
1, 83980, Control_c, 0, 64, 69
1, 83995, Control_c, 0, 64, 74
1, 83999, Note_on_c, 0, 78, 62
1, 84010, Control_c, 0, 64, 81
1, 84025, Control_c, 0, 64, 89
1, 84029, Note_off_c, 0, 63, 37
1, 84040, Control_c, 0, 64, 96
1, 84054, Control_c, 0, 64, 102
1, 84059, Note_off_c, 0, 78, 64
1, 84069, Control_c, 0, 64, 107
1, 84084, Control_c, 0, 64, 111
1, 84091, Poly_aftertouch_c, 0, 78, 0
1, 84099, Note_on_c, 0, 78, 52
1, 84099, Control_c, 0, 64, 117
1, 84114, Control_c, 0, 64, 127
1, 84118, Note_off_c, 0, 78, 60
1, 84165, Note_on_c, 0, 71, 67
1, 84190, Note_on_c, 0, 66, 57
1, 84190, Note_off_c, 0, 71, 67
1, 84194, Note_on_c, 0, 54, 51
1, 84206, Note_on_c, 0, 63, 36
1, 84221, Note_off_c, 0, 66, 58
1, 84238, Note_on_c, 0, 83, 76
1, 84238, Note_off_c, 0, 54, 49
1, 84251, Note_off_c, 0, 63, 47
1, 84305, Note_off_c, 0, 83, 0
1, 84305, Note_on_c, 0, 83, 45
1, 84332, Note_off_c, 0, 83, 66
1, 84412, Note_on_c, 0, 73, 82
1, 84465, Note_on_c, 0, 85, 69
1, 84465, Note_off_c, 0, 73, 59
1, 84499, Note_off_c, 0, 85, 68
1, 84541, Note_on_c, 0, 85, 61
1, 84564, Note_off_c, 0, 85, 69
1, 84612, Control_c, 0, 64, 117
1, 84622, Note_on_c, 0, 78, 74
1, 84627, Control_c, 0, 64, 98
1, 84628, Note_on_c, 0, 66, 71
1, 84634, Note_on_c, 0, 58, 58
1, 84641, Control_c, 0, 64, 79
1, 84645, Note_on_c, 0, 64, 52
1, 84656, Control_c, 0, 64, 65
1, 84657, Note_off_c, 0, 66, 59
1, 84671, Note_off_c, 0, 78, 58
1, 84671, Control_c, 0, 64, 62
1, 84678, Note_off_c, 0, 64, 47
1, 84681, Note_on_c, 0, 90, 67
1, 84686, Note_off_c, 0, 58, 51
1, 84686, Control_c, 0, 64, 65
1, 84701, Note_off_c, 0, 90, 69
1, 84701, Control_c, 0, 64, 70
1, 84715, Control_c, 0, 64, 78
1, 84726, Note_on_c, 0, 89, 60
1, 84730, Control_c, 0, 64, 90
1, 84745, Control_c, 0, 64, 102
1, 84760, Control_c, 0, 64, 107
1, 84763, Note_off_c, 0, 89, 0
1, 84775, Control_c, 0, 64, 107
1, 84777, Note_on_c, 0, 89, 46
1, 84800, Note_off_c, 0, 89, 60
1, 84823, Note_on_c, 0, 58, 49
1, 84829, Note_on_c, 0, 66, 43
1, 84830, Note_on_c, 0, 85, 75
1, 84836, Note_on_c, 0, 54, 65
1, 84847, Note_off_c, 0, 58, 59
1, 84848, Control_c, 0, 64, 106
1, 84853, Note_off_c, 0, 66, 57
1, 84863, Control_c, 0, 64, 94
1, 84870, Note_off_c, 0, 54, 64
1, 84878, Control_c, 0, 64, 76
1, 84889, Note_off_c, 0, 85, 60
1, 84893, Control_c, 0, 64, 65
1, 84895, Note_on_c, 0, 90, 75
1, 84904, Note_on_c, 0, 97, 72
1, 84907, Control_c, 0, 64, 65
1, 84915, Note_off_c, 0, 90, 69
1, 84922, Control_c, 0, 64, 69
1, 84937, Control_c, 0, 64, 74
1, 84941, Note_off_c, 0, 97, 51
1, 84960, Control_c, 0, 64, 85
1, 84975, Control_c, 0, 64, 99
1, 84988, Note_on_c, 0, 97, 68
1, 84990, Control_c, 0, 64, 107
1, 85002, Note_on_c, 0, 90, 72
1, 85005, Control_c, 0, 64, 108
1, 85016, Note_off_c, 0, 90, 70
1, 85035, Note_off_c, 0, 97, 59
1, 85050, Control_c, 0, 64, 107
1, 85064, Control_c, 0, 64, 97
1, 85074, Note_on_c, 0, 87, 79
1, 85079, Control_c, 0, 64, 77
1, 85080, Note_on_c, 0, 47, 60
1, 85094, Control_c, 0, 64, 63
1, 85109, Control_c, 0, 64, 59
1, 85112, Note_off_c, 0, 47, 63
1, 85124, Control_c, 0, 64, 63
1, 85138, Control_c, 0, 64, 68
1, 85142, Note_on_c, 0, 99, 71
1, 85146, Note_on_c, 0, 90, 64
1, 85153, Control_c, 0, 64, 76
1, 85157, Note_off_c, 0, 87, 60
1, 85168, Control_c, 0, 64, 90
1, 85171, Note_off_c, 0, 99, 59
1, 85183, Control_c, 0, 64, 115
1, 85198, Control_c, 0, 64, 127
1, 85203, Note_off_c, 0, 90, 0
1, 85226, Note_on_c, 0, 90, 32
1, 85231, Note_on_c, 0, 99, 72
1, 85256, Control_c, 0, 64, 107
1, 85271, Control_c, 0, 64, 84
1, 85273, Note_off_c, 0, 99, 63
1, 85286, Control_c, 0, 64, 63
1, 85290, Note_on_c, 0, 54, 59
1, 85299, Note_on_c, 0, 63, 53
1, 85301, Control_c, 0, 64, 46
1, 85303, Note_on_c, 0, 83, 81
1, 85312, Note_off_c, 0, 90, 61
1, 85316, Control_c, 0, 64, 34
1, 85325, Note_off_c, 0, 54, 64
1, 85327, Note_off_c, 0, 63, 55
1, 85330, Control_c, 0, 64, 34
1, 85336, Note_off_c, 0, 83, 61
1, 85420, Control_c, 0, 64, 33
1, 85435, Control_c, 0, 64, 32
1, 85449, Control_c, 0, 64, 30
1, 85464, Control_c, 0, 64, 28
1, 85479, Control_c, 0, 64, 28
1, 85509, Control_c, 0, 64, 31
1, 85524, Control_c, 0, 64, 50
1, 85531, Note_on_c, 0, 71, 62
1, 85538, Control_c, 0, 64, 65
1, 85545, Note_on_c, 0, 75, 74
1, 85553, Control_c, 0, 64, 75
1, 85568, Control_c, 0, 64, 88
1, 85582, Control_c, 0, 64, 112
1, 85596, Control_c, 0, 64, 127
1, 85615, Note_off_c, 0, 75, 58
1, 85628, Note_off_c, 0, 71, 58
1, 85640, Control_c, 0, 64, 109
1, 85645, Note_on_c, 0, 74, 78
1, 85655, Control_c, 0, 64, 86
1, 85670, Note_off_c, 0, 74, 65
1, 85670, Control_c, 0, 64, 67
1, 85685, Control_c, 0, 64, 47
1, 85707, Control_c, 0, 64, 32
1, 85722, Control_c, 0, 64, 29
1, 85762, Note_on_c, 0, 70, 69
1, 85764, Note_on_c, 0, 75, 75
1, 85774, Note_on_c, 0, 73, 66
1, 85792, Note_off_c, 0, 73, 67
1, 85795, Note_off_c, 0, 70, 62
1, 85798, Note_off_c, 0, 75, 57
1, 85876, Note_on_c, 0, 69, 68
1, 85885, Note_on_c, 0, 72, 70
1, 85903, Note_off_c, 0, 69, 67
1, 85905, Note_on_c, 0, 75, 56
1, 85911, Note_off_c, 0, 72, 66
1, 85924, Note_off_c, 0, 75, 63
1, 85995, Note_on_c, 0, 75, 71
1, 86002, Note_on_c, 0, 71, 65
1, 86005, Note_on_c, 0, 68, 54
1, 86020, Note_off_c, 0, 71, 65
1, 86032, Note_off_c, 0, 68, 61
1, 86032, Note_off_c, 0, 75, 59
1, 86119, Note_on_c, 0, 67, 59
1, 86131, Note_on_c, 0, 70, 59
1, 86138, Note_off_c, 0, 67, 63
1, 86144, Note_on_c, 0, 75, 49
1, 86149, Note_off_c, 0, 70, 63
1, 86166, Note_off_c, 0, 75, 60
1, 86229, Note_on_c, 0, 69, 70
1, 86239, Note_on_c, 0, 75, 65
1, 86242, Note_on_c, 0, 66, 52
1, 86266, Note_off_c, 0, 66, 61
1, 86268, Note_off_c, 0, 75, 65
1, 86277, Note_off_c, 0, 69, 62
1, 86343, Note_on_c, 0, 68, 64
1, 86346, Note_on_c, 0, 65, 59
1, 86359, Note_on_c, 0, 75, 52
1, 86368, Note_off_c, 0, 68, 63
1, 86378, Note_off_c, 0, 65, 62
1, 86383, Note_off_c, 0, 75, 63
1, 86487, Note_on_c, 0, 77, 68
1, 86540, Note_off_c, 0, 77, 59
1, 86545, Note_on_c, 0, 75, 39
1, 86572, Note_off_c, 0, 75, 57
1, 86592, Note_on_c, 0, 74, 64
1, 86620, Control_c, 0, 64, 29
1, 86642, Note_off_c, 0, 74, 62
1, 86646, Note_on_c, 0, 75, 68
1, 86663, Note_off_c, 0, 75, 64
1, 86692, Note_on_c, 0, 70, 75
1, 86702, Note_on_c, 0, 63, 56
1, 86702, Note_on_c, 0, 66, 58
1, 86708, Control_c, 0, 64, 40
1, 86723, Control_c, 0, 64, 55
1, 86737, Note_off_c, 0, 70, 57
1, 86738, Control_c, 0, 64, 64
1, 86743, Note_on_c, 0, 82, 72
1, 86753, Control_c, 0, 64, 70
1, 86754, Note_off_c, 0, 63, 55
1, 86755, Note_off_c, 0, 66, 56
1, 86768, Control_c, 0, 64, 77
1, 86770, Note_off_c, 0, 82, 0
1, 86782, Control_c, 0, 64, 84
1, 86785, Note_on_c, 0, 82, 54
1, 86797, Control_c, 0, 64, 91
1, 86807, Note_off_c, 0, 82, 50
1, 86812, Control_c, 0, 64, 98
1, 86827, Control_c, 0, 64, 103
1, 86842, Control_c, 0, 64, 106
1, 86848, Note_on_c, 0, 82, 61
1, 86856, Control_c, 0, 64, 110
1, 86865, Note_off_c, 0, 82, 65
1, 86871, Control_c, 0, 64, 113
1, 86886, Control_c, 0, 64, 115
1, 86901, Control_c, 0, 64, 116
1, 86916, Control_c, 0, 64, 118
1, 86926, Note_on_c, 0, 75, 75
1, 86931, Control_c, 0, 64, 120
1, 86940, Note_on_c, 0, 70, 55
1, 86940, Note_on_c, 0, 66, 38
1, 86946, Control_c, 0, 64, 122
1, 86952, Note_on_c, 0, 58, 35
1, 86964, Note_off_c, 0, 75, 60
1, 86967, Note_off_c, 0, 70, 53
1, 86984, Note_off_c, 0, 66, 49
1, 86987, Note_off_c, 0, 58, 51
1, 86989, Note_on_c, 0, 87, 68
1, 87035, Note_off_c, 0, 87, 0
1, 87048, Note_on_c, 0, 87, 58
1, 87107, Note_off_c, 0, 87, 61
1, 87158, Note_on_c, 0, 77, 70
1, 87183, Control_c, 0, 64, 121
1, 87188, Note_off_c, 0, 77, 61
1, 87205, Control_c, 0, 64, 117
1, 87220, Control_c, 0, 64, 113
1, 87229, Note_on_c, 0, 89, 71
1, 87235, Control_c, 0, 64, 109
1, 87250, Control_c, 0, 64, 108
1, 87328, Note_off_c, 0, 89, 61
1, 87353, Control_c, 0, 64, 107
1, 87368, Control_c, 0, 64, 99
1, 87382, Note_on_c, 0, 82, 83
1, 87384, Control_c, 0, 64, 83
1, 87387, Note_on_c, 0, 70, 76
1, 87399, Control_c, 0, 64, 68
1, 87405, Note_on_c, 0, 68, 51
1, 87407, Note_on_c, 0, 62, 46
1, 87414, Control_c, 0, 64, 63
1, 87417, Note_off_c, 0, 70, 55
1, 87429, Control_c, 0, 64, 65
1, 87436, Note_off_c, 0, 82, 58
1, 87444, Control_c, 0, 64, 69
1, 87450, Note_off_c, 0, 68, 49
1, 87458, Note_on_c, 0, 94, 61
1, 87458, Control_c, 0, 64, 76
1, 87459, Note_off_c, 0, 62, 54
1, 87473, Control_c, 0, 64, 87
1, 87488, Control_c, 0, 64, 99
1, 87503, Control_c, 0, 64, 108
1, 87503, Note_off_c, 0, 94, 64
1, 87518, Control_c, 0, 64, 110
1, 87522, Note_on_c, 0, 94, 61
1, 87562, Note_on_c, 0, 70, 50
1, 87572, Note_off_c, 0, 94, 62
1, 87576, Control_c, 0, 64, 106
1, 87581, Note_on_c, 0, 58, 63
1, 87584, Note_off_c, 0, 70, 60
1, 87591, Control_c, 0, 64, 92
1, 87595, Note_on_c, 0, 89, 58
1, 87606, Control_c, 0, 64, 76
1, 87615, Note_off_c, 0, 58, 63
1, 87621, Control_c, 0, 64, 67
1, 87642, Note_off_c, 0, 89, 44
1, 87650, Control_c, 0, 64, 72
1, 87655, Note_on_c, 0, 101, 81
1, 87665, Control_c, 0, 64, 80
1, 87668, Note_on_c, 0, 94, 62
1, 87676, Note_off_c, 0, 101, 66
1, 87680, Control_c, 0, 64, 92
1, 87685, Note_off_c, 0, 94, 65
1, 87695, Control_c, 0, 64, 103
1, 87710, Control_c, 0, 64, 106
1, 87745, Note_on_c, 0, 94, 80
1, 87748, Note_on_c, 0, 101, 71
1, 87754, Control_c, 0, 64, 108
1, 87762, Note_off_c, 0, 94, 71
1, 87769, Control_c, 0, 64, 108
1, 87771, Note_off_c, 0, 101, 63
1, 87798, Control_c, 0, 64, 104
1, 87813, Control_c, 0, 64, 87
1, 87825, Note_on_c, 0, 90, 89
1, 87828, Control_c, 0, 64, 68
1, 87830, Note_on_c, 0, 51, 59
1, 87843, Control_c, 0, 64, 58
1, 87858, Control_c, 0, 64, 61
1, 87866, Note_off_c, 0, 51, 62
1, 87873, Control_c, 0, 64, 67
1, 87888, Control_c, 0, 64, 75
1, 87888, Note_on_c, 0, 102, 83
1, 87903, Note_on_c, 0, 94, 68
1, 87903, Control_c, 0, 64, 91
1, 87910, Note_off_c, 0, 102, 67
1, 87917, Control_c, 0, 64, 127
1, 87924, Note_off_c, 0, 90, 61
1, 87924, Note_off_c, 0, 94, 69
1, 87986, Note_on_c, 0, 102, 77
1, 88001, Note_on_c, 0, 94, 77
1, 88005, Note_off_c, 0, 102, 70
1, 88013, Control_c, 0, 64, 88
1, 88028, Control_c, 0, 64, 66
1, 88039, Note_on_c, 0, 66, 63
1, 88040, Note_on_c, 0, 58, 55
1, 88043, Control_c, 0, 64, 43
1, 88044, Note_on_c, 0, 87, 78
1, 88054, Note_off_c, 0, 94, 62
1, 88058, Control_c, 0, 64, 23
1, 88067, Note_off_c, 0, 66, 65
1, 88067, Note_off_c, 0, 87, 62
1, 88073, Control_c, 0, 64, 19
1, 88074, Note_off_c, 0, 58, 61
1, 88207, Control_c, 0, 64, 18
1, 88222, Control_c, 0, 64, 18
1, 88252, Control_c, 0, 64, 27
1, 88266, Control_c, 0, 64, 53
1, 88279, Note_on_c, 0, 75, 69
1, 88281, Note_on_c, 0, 78, 87
1, 88281, Control_c, 0, 64, 69
1, 88296, Control_c, 0, 64, 81
1, 88311, Control_c, 0, 64, 101
1, 88323, Note_off_c, 0, 75, 58
1, 88326, Control_c, 0, 64, 127
1, 88342, Note_off_c, 0, 78, 61
1, 88379, Note_on_c, 0, 77, 84
1, 88385, Control_c, 0, 64, 91
1, 88388, Note_on_c, 0, 74, 74
1, 88399, Control_c, 0, 64, 69
1, 88414, Control_c, 0, 64, 49
1, 88415, Note_off_c, 0, 74, 64
1, 88421, Note_off_c, 0, 77, 61
1, 88429, Control_c, 0, 64, 21
1, 88496, Note_on_c, 0, 76, 79
1, 88498, Note_on_c, 0, 78, 78
1, 88506, Note_on_c, 0, 73, 74
1, 88518, Note_off_c, 0, 76, 68
1, 88527, Note_off_c, 0, 78, 60
1, 88532, Note_off_c, 0, 73, 63
1, 88616, Note_on_c, 0, 72, 71
1, 88618, Note_on_c, 0, 75, 77
1, 88623, Note_on_c, 0, 78, 72
1, 88640, Note_off_c, 0, 75, 67
1, 88646, Note_off_c, 0, 72, 64
1, 88648, Note_off_c, 0, 78, 66
1, 88753, Note_on_c, 0, 74, 83
1, 88755, Note_on_c, 0, 71, 72
1, 88755, Note_on_c, 0, 78, 77
1, 88780, Note_off_c, 0, 71, 65
1, 88788, Note_off_c, 0, 78, 62
1, 88791, Note_off_c, 0, 74, 62
1, 88872, Note_on_c, 0, 73, 77
1, 88872, Note_on_c, 0, 78, 77
1, 88875, Note_on_c, 0, 70, 68
1, 88904, Note_off_c, 0, 73, 60
1, 88907, Note_off_c, 0, 70, 60
1, 88921, Note_off_c, 0, 78, 57
1, 88996, Note_on_c, 0, 69, 76
1, 88999, Note_on_c, 0, 72, 81
1, 89009, Note_on_c, 0, 78, 66
1, 89021, Note_off_c, 0, 69, 65
1, 89030, Note_off_c, 0, 72, 62
1, 89035, Note_off_c, 0, 78, 65
1, 89113, Note_on_c, 0, 68, 75
1, 89119, Note_on_c, 0, 78, 71
1, 89124, Note_on_c, 0, 71, 47
1, 89139, Note_off_c, 0, 68, 63
1, 89142, Note_off_c, 0, 78, 67
1, 89149, Note_off_c, 0, 71, 38
1, 89244, Note_on_c, 0, 80, 75
1, 89287, Note_off_c, 0, 80, 63
1, 89299, Note_on_c, 0, 78, 56
1, 89331, Note_off_c, 0, 78, 64
1, 89339, Note_on_c, 0, 77, 71
1, 89387, Note_on_c, 0, 78, 68
1, 89404, Note_off_c, 0, 77, 60
1, 89415, Note_off_c, 0, 78, 64
1, 89453, Note_on_c, 0, 73, 84
1, 89462, Note_on_c, 0, 70, 68
1, 89462, Note_on_c, 0, 66, 60
1, 89466, Control_c, 0, 64, 37
1, 89481, Control_c, 0, 64, 59
1, 89489, Note_off_c, 0, 73, 56
1, 89496, Control_c, 0, 64, 68
1, 89510, Control_c, 0, 64, 75
1, 89512, Note_on_c, 0, 85, 70
1, 89516, Note_off_c, 0, 66, 57
1, 89519, Note_off_c, 0, 70, 44
1, 89525, Control_c, 0, 64, 85
1, 89540, Control_c, 0, 64, 95
1, 89542, Note_off_c, 0, 85, 0
1, 89554, Control_c, 0, 64, 105
1, 89557, Note_on_c, 0, 85, 58
1, 89569, Control_c, 0, 64, 117
1, 89580, Note_off_c, 0, 85, 68
1, 89584, Control_c, 0, 64, 127
1, 89624, Note_on_c, 0, 85, 67
1, 89640, Note_off_c, 0, 85, 67
1, 89688, Note_on_c, 0, 78, 79
1, 89690, Note_on_c, 0, 73, 74
1, 89694, Note_on_c, 0, 70, 60
1, 89697, Note_on_c, 0, 61, 58
1, 89715, Note_off_c, 0, 73, 61
1, 89727, Note_off_c, 0, 78, 58
1, 89746, Note_off_c, 0, 70, 46
1, 89748, Note_off_c, 0, 61, 48
1, 89751, Note_on_c, 0, 90, 78
1, 89794, Note_off_c, 0, 90, 66
1, 89825, Note_on_c, 0, 90, 65
1, 89859, Note_off_c, 0, 90, 63
1, 89914, Note_on_c, 0, 80, 87
1, 89966, Note_off_c, 0, 80, 59
1, 89992, Note_on_c, 0, 92, 73
1, 90034, Note_off_c, 0, 92, 66
1, 90066, Note_on_c, 0, 92, 61
1, 90094, Note_off_c, 0, 92, 66
1, 90119, Control_c, 0, 64, 114
1, 90134, Control_c, 0, 64, 86
1, 90149, Note_on_c, 0, 85, 77
1, 90149, Control_c, 0, 64, 67
1, 90156, Note_on_c, 0, 73, 76
1, 90164, Control_c, 0, 64, 56
1, 90168, Note_on_c, 0, 71, 58
1, 90175, Note_on_c, 0, 65, 43
1, 90178, Control_c, 0, 64, 57
1, 90184, Note_off_c, 0, 73, 59
1, 90201, Control_c, 0, 64, 62
1, 90214, Note_off_c, 0, 85, 62
1, 90216, Control_c, 0, 64, 66
1, 90231, Control_c, 0, 64, 71
1, 90232, Note_off_c, 0, 65, 54
1, 90246, Control_c, 0, 64, 79
1, 90247, Note_on_c, 0, 92, 63
1, 90251, Note_on_c, 0, 97, 66
1, 90257, Note_off_c, 0, 71, 35
1, 90260, Control_c, 0, 64, 90
1, 90272, Note_off_c, 0, 97, 63
1, 90275, Note_off_c, 0, 92, 65
1, 90275, Control_c, 0, 64, 99
1, 90290, Control_c, 0, 64, 104
1, 90305, Control_c, 0, 64, 105
1, 90320, Control_c, 0, 64, 107
1, 90334, Control_c, 0, 64, 112
1, 90349, Note_on_c, 0, 97, 69
1, 90349, Control_c, 0, 64, 122
1, 90355, Note_on_c, 0, 92, 66
1, 90364, Control_c, 0, 64, 127
1, 90380, Note_off_c, 0, 92, 67
1, 90388, Note_off_c, 0, 97, 51
1, 90452, Note_on_c, 0, 73, 66
1, 90455, Note_on_c, 0, 61, 43
1, 90459, Note_on_c, 0, 71, 57
1, 90466, Note_on_c, 0, 92, 73
1, 90473, Note_on_c, 0, 97, 67
1, 90474, Note_off_c, 0, 73, 59
1, 90484, Note_off_c, 0, 61, 56
1, 90489, Note_off_c, 0, 71, 64
1, 90489, Note_off_c, 0, 92, 68
1, 90493, Note_off_c, 0, 97, 66
1, 90567, Note_on_c, 0, 97, 70
1, 90589, Note_on_c, 0, 92, 53
1, 90607, Note_off_c, 0, 97, 46
1, 90609, Note_off_c, 0, 92, 62
1, 90693, Note_on_c, 0, 97, 53
1, 90714, Note_off_c, 0, 97, 63
1, 90767, Note_on_c, 0, 66, 66
1, 90769, Poly_aftertouch_c, 0, 92, 0
1, 90779, Note_on_c, 0, 97, 71
1, 90779, Control_c, 0, 64, 91
1, 90785, Note_on_c, 0, 94, 64
1, 90794, Control_c, 0, 64, 67
1, 90801, Note_off_c, 0, 94, 65
1, 90806, Note_off_c, 0, 66, 53
1, 90809, Control_c, 0, 64, 59
1, 90812, Note_off_c, 0, 97, 61
1, 90822, Note_on_c, 0, 99, 74
1, 90824, Control_c, 0, 64, 61
1, 90839, Control_c, 0, 64, 66
1, 90854, Control_c, 0, 64, 71
1, 90868, Control_c, 0, 64, 79
1, 90881, Note_on_c, 0, 93, 74
1, 90883, Control_c, 0, 64, 93
1, 90887, Note_off_c, 0, 99, 63
1, 90898, Control_c, 0, 64, 109
1, 90905, Note_off_c, 0, 93, 62
1, 90907, Note_on_c, 0, 97, 56
1, 90913, Control_c, 0, 64, 111
1, 90951, Note_on_c, 0, 99, 69
1, 90955, Note_off_c, 0, 97, 59
1, 91002, Note_on_c, 0, 82, 59
1, 91006, Note_on_c, 0, 92, 77
1, 91015, Note_on_c, 0, 78, 34
1, 91019, Note_on_c, 0, 97, 63
1, 91020, Note_off_c, 0, 99, 51
1, 91023, Note_off_c, 0, 82, 63
1, 91045, Note_off_c, 0, 78, 50
1, 91049, Note_off_c, 0, 92, 60
1, 91072, Note_on_c, 0, 99, 57
1, 91078, Note_off_c, 0, 97, 62
1, 91110, Note_on_c, 0, 83, 64
1, 91117, Note_on_c, 0, 91, 72
1, 91143, Note_off_c, 0, 83, 60
1, 91145, Note_on_c, 0, 97, 53
1, 91155, Note_off_c, 0, 91, 62
1, 91158, Note_off_c, 0, 99, 0
1, 91178, Note_on_c, 0, 99, 54
1, 91185, Note_off_c, 0, 97, 60
1, 91187, Control_c, 0, 64, 110
1, 91201, Control_c, 0, 64, 99
1, 91216, Control_c, 0, 64, 80
1, 91231, Note_on_c, 0, 82, 71
1, 91231, Control_c, 0, 64, 67
1, 91239, Note_on_c, 0, 85, 51
1, 91240, Note_on_c, 0, 90, 81
1, 91246, Control_c, 0, 64, 64
1, 91247, Note_off_c, 0, 82, 70
1, 91249, Note_on_c, 0, 97, 68
1, 91261, Note_off_c, 0, 85, 38
1, 91261, Control_c, 0, 64, 66
1, 91262, Note_off_c, 0, 99, 54
1, 91275, Control_c, 0, 64, 71
1, 91277, Note_off_c, 0, 90, 62
1, 91290, Control_c, 0, 64, 79
1, 91304, Note_on_c, 0, 99, 53
1, 91305, Control_c, 0, 64, 94
1, 91310, Note_off_c, 0, 97, 63
1, 91319, Control_c, 0, 64, 109
1, 91334, Control_c, 0, 64, 116
1, 91349, Control_c, 0, 64, 117
1, 91355, Poly_aftertouch_c, 0, 97, 0
1, 91364, Note_on_c, 0, 97, 62
1, 91364, Control_c, 0, 64, 118
1, 91380, Control_c, 0, 64, 119
1, 91416, Note_off_c, 0, 97, 63
1, 91424, Control_c, 0, 64, 118
1, 91427, Note_off_c, 0, 99, 60
1, 91439, Control_c, 0, 64, 104
1, 91450, Note_on_c, 0, 59, 77
1, 91454, Control_c, 0, 64, 84
1, 91469, Control_c, 0, 64, 67
1, 91471, Note_on_c, 0, 92, 59
1, 91471, Note_on_c, 0, 95, 65
1, 91479, Note_on_c, 0, 96, 61
1, 91479, Note_off_c, 0, 59, 60
1, 91484, Control_c, 0, 64, 58
1, 91490, Note_off_c, 0, 92, 64
1, 91498, Note_off_c, 0, 96, 63
1, 91498, Control_c, 0, 64, 60
1, 91513, Control_c, 0, 64, 65
1, 91523, Note_on_c, 0, 97, 68
1, 91523, Note_off_c, 0, 95, 60
1, 91528, Control_c, 0, 64, 70
1, 91542, Control_c, 0, 64, 79
1, 91557, Control_c, 0, 64, 91
1, 91565, Poly_aftertouch_c, 0, 95, 0
1, 91572, Note_on_c, 0, 91, 77
1, 91572, Control_c, 0, 64, 102
1, 91573, Note_on_c, 0, 95, 55
1, 91586, Note_off_c, 0, 97, 52
1, 91587, Control_c, 0, 64, 105
1, 91596, Note_off_c, 0, 91, 68
1, 91632, Control_c, 0, 64, 107
1, 91645, Note_off_c, 0, 95, 60
1, 91647, Control_c, 0, 64, 108
1, 91662, Note_on_c, 0, 97, 44
1, 91669, Note_on_c, 0, 70, 51
1, 91692, Note_on_c, 0, 95, 63
1, 91694, Note_on_c, 0, 80, 70
1, 91694, Note_on_c, 0, 90, 87
1, 91712, Note_off_c, 0, 70, 61
1, 91714, Note_off_c, 0, 97, 57
1, 91722, Note_off_c, 0, 80, 60
1, 91737, Note_off_c, 0, 90, 65
1, 91760, Note_off_c, 0, 95, 59
1, 91798, Note_on_c, 0, 89, 84
1, 91801, Note_on_c, 0, 82, 78
1, 91807, Note_on_c, 0, 73, 66
1, 91808, Note_on_c, 0, 95, 57
1, 91840, Note_off_c, 0, 73, 60
1, 91846, Note_off_c, 0, 82, 56
1, 91846, Note_off_c, 0, 89, 61
1, 91888, Note_off_c, 0, 95, 56
1, 91906, Control_c, 0, 64, 105
1, 91921, Control_c, 0, 64, 89
1, 91923, Note_on_c, 0, 83, 85
1, 91925, Note_on_c, 0, 95, 64
1, 91928, Note_on_c, 0, 87, 88
1, 91933, Note_on_c, 0, 75, 76
1, 91936, Control_c, 0, 64, 71
1, 91948, Note_off_c, 0, 83, 62
1, 91950, Control_c, 0, 64, 59
1, 91965, Control_c, 0, 64, 58
1, 91972, Note_off_c, 0, 87, 63
1, 91980, Control_c, 0, 64, 63
1, 91987, Note_off_c, 0, 75, 57
1, 91995, Control_c, 0, 64, 68
1, 91999, Note_on_c, 0, 97, 74
1, 92008, Note_off_c, 0, 95, 61
1, 92010, Control_c, 0, 64, 75
1, 92024, Control_c, 0, 64, 88
1, 92039, Control_c, 0, 64, 101
1, 92043, Note_on_c, 0, 95, 53
1, 92054, Control_c, 0, 64, 108
1, 92068, Control_c, 0, 64, 109
1, 92074, Note_off_c, 0, 97, 0
1, 92074, Note_on_c, 0, 97, 18
1, 92083, Control_c, 0, 64, 109
1, 92098, Control_c, 0, 64, 110
1, 92109, Note_off_c, 0, 95, 62
1, 92113, Control_c, 0, 64, 111
1, 92142, Control_c, 0, 64, 110
1, 92157, Control_c, 0, 64, 96
1, 92163, Note_on_c, 0, 61, 73
1, 92165, Note_on_c, 0, 90, 77
1, 92173, Control_c, 0, 64, 77
1, 92178, Note_off_c, 0, 97, 36
1, 92181, Note_on_c, 0, 94, 64
1, 92186, Note_off_c, 0, 61, 60
1, 92188, Control_c, 0, 64, 63
1, 92201, Note_off_c, 0, 90, 54
1, 92203, Control_c, 0, 64, 59
1, 92209, Note_off_c, 0, 94, 50
1, 92218, Control_c, 0, 64, 62
1, 92233, Control_c, 0, 64, 67
1, 92247, Control_c, 0, 64, 72
1, 92249, Note_on_c, 0, 95, 39
1, 92262, Control_c, 0, 64, 80
1, 92273, Note_on_c, 0, 89, 76
1, 92277, Control_c, 0, 64, 90
1, 92285, Note_off_c, 0, 95, 49
1, 92292, Control_c, 0, 64, 98
1, 92297, Note_on_c, 0, 94, 69
1, 92307, Control_c, 0, 64, 99
1, 92309, Note_off_c, 0, 89, 57
1, 92356, Note_off_c, 0, 94, 60
1, 92362, Note_on_c, 0, 95, 56
1, 92383, Note_on_c, 0, 78, 79
1, 92390, Note_on_c, 0, 87, 87
1, 92407, Note_off_c, 0, 78, 67
1, 92407, Note_on_c, 0, 70, 40
1, 92412, Note_on_c, 0, 94, 57
1, 92429, Note_off_c, 0, 95, 37
1, 92434, Note_off_c, 0, 70, 52
1, 92445, Note_off_c, 0, 87, 63
1, 92475, Note_on_c, 0, 95, 50
1, 92485, Note_off_c, 0, 94, 62
1, 92507, Note_on_c, 0, 80, 76
1, 92521, Note_on_c, 0, 86, 79
1, 92525, Note_on_c, 0, 94, 52
1, 92529, Note_off_c, 0, 80, 65
1, 92531, Note_on_c, 0, 71, 33
1, 92551, Note_off_c, 0, 95, 48
1, 92560, Note_off_c, 0, 86, 63
1, 92562, Note_off_c, 0, 71, 50
1, 92597, Note_on_c, 0, 95, 43
1, 92602, Note_off_c, 0, 94, 63
1, 92610, Control_c, 0, 64, 95
1, 92625, Note_on_c, 0, 82, 93
1, 92625, Control_c, 0, 64, 82
1, 92639, Note_on_c, 0, 85, 83
1, 92639, Control_c, 0, 64, 65
1, 92640, Note_off_c, 0, 95, 42
1, 92642, Poly_aftertouch_c, 0, 94, 0
1, 92643, Note_on_c, 0, 73, 58
1, 92648, Note_on_c, 0, 94, 56
1, 92654, Control_c, 0, 64, 61
1, 92660, Note_off_c, 0, 82, 62
1, 92664, Note_off_c, 0, 73, 59
1, 92669, Control_c, 0, 64, 64
1, 92684, Note_off_c, 0, 85, 64
1, 92684, Control_c, 0, 64, 68
1, 92699, Control_c, 0, 64, 74
1, 92700, Note_on_c, 0, 95, 74
1, 92714, Control_c, 0, 64, 84
1, 92720, Note_off_c, 0, 94, 62
1, 92729, Control_c, 0, 64, 96
1, 92744, Control_c, 0, 64, 106
1, 92759, Control_c, 0, 64, 108
1, 92780, Note_off_c, 0, 95, 0
1, 92780, Note_on_c, 0, 95, 6
1, 92792, Note_off_c, 0, 95, 57
1, 92799, Note_on_c, 0, 92, 48
1, 92801, Note_on_c, 0, 89, 52
1, 92820, Note_on_c, 0, 93, 47
1, 92823, Note_off_c, 0, 89, 61
1, 92823, Note_off_c, 0, 92, 58
1, 92844, Note_off_c, 0, 93, 58
1, 92845, Poly_aftertouch_c, 0, 95, 127
1, 92847, Control_c, 0, 64, 100
1, 92862, Control_c, 0, 64, 82
1, 92866, Note_on_c, 0, 61, 72
1, 92877, Control_c, 0, 64, 65
1, 92881, Poly_aftertouch_c, 0, 95, 0
1, 92882, Note_on_c, 0, 87, 81
1, 92891, Control_c, 0, 64, 51
1, 92894, Note_on_c, 0, 92, 71
1, 92906, Control_c, 0, 64, 51
1, 92908, Note_off_c, 0, 61, 57
1, 92921, Control_c, 0, 64, 60
1, 92922, Note_off_c, 0, 87, 60
1, 92936, Control_c, 0, 64, 66
1, 92940, Note_on_c, 0, 94, 71
1, 92945, Note_off_c, 0, 92, 58
1, 92951, Control_c, 0, 64, 72
1, 92967, Control_c, 0, 64, 79
1, 92982, Control_c, 0, 64, 87
1, 92996, Control_c, 0, 64, 91
1, 93020, Note_on_c, 0, 86, 50
1, 93024, Note_on_c, 0, 87, 43
1, 93042, Note_off_c, 0, 86, 61
1, 93050, Note_off_c, 0, 87, 58
1, 93078, Note_on_c, 0, 77, 83
1, 93088, Note_on_c, 0, 92, 65
1, 93090, Note_on_c, 0, 68, 55
1, 93104, Note_on_c, 0, 86, 73
1, 93107, Note_off_c, 0, 77, 60
1, 93110, Note_off_c, 0, 68, 61
1, 93118, Note_off_c, 0, 86, 67
1, 93158, Note_off_c, 0, 94, 34
1, 93181, Note_on_c, 0, 78, 86
1, 93212, Note_on_c, 0, 70, 38
1, 93212, Note_on_c, 0, 85, 79
1, 93221, Note_off_c, 0, 78, 61
1, 93233, Note_off_c, 0, 92, 62
1, 93268, Note_off_c, 0, 85, 62
1, 93277, Note_off_c, 0, 70, 0
1, 93298, Note_on_c, 0, 70, 5
1, 93310, Note_on_c, 0, 80, 78
1, 93328, Control_c, 0, 64, 87
1, 93334, Note_on_c, 0, 83, 74
1, 93343, Control_c, 0, 64, 76
1, 93347, Note_off_c, 0, 80, 50
1, 93355, Note_off_c, 0, 70, 37
1, 93358, Control_c, 0, 64, 61
1, 93373, Control_c, 0, 64, 55
1, 93388, Note_on_c, 0, 87, 66
1, 93388, Control_c, 0, 64, 57
1, 93403, Control_c, 0, 64, 62
1, 93412, Note_on_c, 0, 88, 69
1, 93417, Control_c, 0, 64, 66
1, 93424, Note_off_c, 0, 83, 57
1, 93432, Control_c, 0, 64, 71
1, 93446, Note_on_c, 0, 66, 63
1, 93447, Note_off_c, 0, 87, 58
1, 93447, Control_c, 0, 64, 78
1, 93459, Note_on_c, 0, 89, 69
1, 93462, Control_c, 0, 64, 91
1, 93476, Note_on_c, 0, 73, 72
1, 93477, Note_off_c, 0, 88, 63
1, 93477, Control_c, 0, 64, 97
1, 93481, Note_off_c, 0, 89, 66
1, 93492, Control_c, 0, 64, 98
1, 93493, Note_off_c, 0, 66, 59
1, 93551, Note_on_c, 0, 82, 90
1, 93559, Note_on_c, 0, 90, 76
1, 93566, Control_c, 0, 64, 94
1, 93566, Note_off_c, 0, 73, 63
1, 93581, Control_c, 0, 64, 81
1, 93583, Note_off_c, 0, 90, 64
1, 93589, Note_on_c, 0, 92, 73
1, 93590, Note_off_c, 0, 82, 60
1, 93595, Control_c, 0, 64, 67
1, 93610, Control_c, 0, 64, 59
1, 93614, Note_off_c, 0, 92, 63
1, 93625, Control_c, 0, 64, 60
1, 93640, Control_c, 0, 64, 65
1, 93655, Control_c, 0, 64, 71
1, 93661, Note_on_c, 0, 90, 68
1, 93669, Control_c, 0, 64, 79
1, 93676, Note_off_c, 0, 90, 67
1, 93681, Note_on_c, 0, 92, 79
1, 93684, Control_c, 0, 64, 92
1, 93699, Control_c, 0, 64, 104
1, 93708, Note_off_c, 0, 92, 62
1, 93713, Control_c, 0, 64, 106
1, 93781, Note_on_c, 0, 78, 80
1, 93784, Poly_aftertouch_c, 0, 90, 127
1, 93804, Control_c, 0, 64, 102
1, 93817, Poly_aftertouch_c, 0, 90, 0
1, 93818, Control_c, 0, 64, 89
1, 93834, Control_c, 0, 64, 73
1, 93848, Note_off_c, 0, 78, 59
1, 93849, Control_c, 0, 64, 62
1, 93852, Note_on_c, 0, 90, 64
1, 93864, Control_c, 0, 64, 62
1, 93879, Control_c, 0, 64, 66
1, 93893, Control_c, 0, 64, 70
1, 93900, Note_off_c, 0, 90, 63
1, 93902, Note_on_c, 0, 92, 74
1, 93908, Control_c, 0, 64, 78
1, 93923, Control_c, 0, 64, 89
1, 93945, Note_off_c, 0, 92, 62
1, 93945, Control_c, 0, 64, 99
1, 93960, Control_c, 0, 64, 102
1, 93975, Note_on_c, 0, 90, 66
1, 94008, Note_off_c, 0, 90, 62
1, 94019, Control_c, 0, 64, 102
1, 94027, Note_on_c, 0, 79, 80
1, 94034, Control_c, 0, 64, 94
1, 94049, Control_c, 0, 64, 80
1, 94064, Control_c, 0, 64, 65
1, 94079, Control_c, 0, 64, 62
1, 94079, Note_on_c, 0, 91, 79
1, 94093, Control_c, 0, 64, 65
1, 94094, Note_off_c, 0, 79, 60
1, 94108, Control_c, 0, 64, 69
1, 94121, Note_on_c, 0, 92, 75
1, 94123, Control_c, 0, 64, 75
1, 94124, Note_off_c, 0, 91, 60
1, 94138, Control_c, 0, 64, 84
1, 94152, Control_c, 0, 64, 96
1, 94167, Control_c, 0, 64, 104
1, 94172, Note_off_c, 0, 92, 57
1, 94182, Note_on_c, 0, 91, 59
1, 94208, Note_off_c, 0, 91, 68
1, 94212, Control_c, 0, 64, 101
1, 94226, Control_c, 0, 64, 88
1, 94235, Note_on_c, 0, 80, 86
1, 94241, Control_c, 0, 64, 74
1, 94256, Control_c, 0, 64, 68
1, 94270, Note_off_c, 0, 80, 62
1, 94271, Control_c, 0, 64, 70
1, 94286, Control_c, 0, 64, 76
1, 94300, Control_c, 0, 64, 85
1, 94315, Control_c, 0, 64, 96
1, 94330, Control_c, 0, 64, 104
1, 94331, Note_on_c, 0, 91, 40
1, 94344, Control_c, 0, 64, 105
1, 94362, Note_off_c, 0, 91, 55
1, 94365, Note_on_c, 0, 64, 60
1, 94370, Note_on_c, 0, 93, 66
1, 94385, Note_off_c, 0, 64, 63
1, 94437, Note_off_c, 0, 93, 59
1, 94449, Note_on_c, 0, 92, 71
1, 94461, Note_on_c, 0, 80, 83
1, 94488, Note_off_c, 0, 92, 58
1, 94500, Note_off_c, 0, 80, 57
1, 94508, Note_on_c, 0, 93, 56
1, 94572, Note_off_c, 0, 93, 55
1, 94583, Control_c, 0, 64, 103
1, 94586, Note_on_c, 0, 92, 70
1, 94598, Control_c, 0, 64, 93
1, 94613, Control_c, 0, 64, 78
1, 94616, Note_on_c, 0, 63, 60
1, 94628, Control_c, 0, 64, 65
1, 94629, Note_off_c, 0, 92, 55
1, 94637, Note_on_c, 0, 93, 60
1, 94638, Note_off_c, 0, 63, 59
1, 94642, Control_c, 0, 64, 63
1, 94657, Control_c, 0, 64, 65
1, 94672, Control_c, 0, 64, 69
1, 94692, Note_on_c, 0, 78, 74
1, 94694, Control_c, 0, 64, 74
1, 94709, Control_c, 0, 64, 83
1, 94711, Note_off_c, 0, 93, 54
1, 94717, Note_off_c, 0, 78, 65
1, 94723, Control_c, 0, 64, 92
1, 94731, Note_on_c, 0, 92, 68
1, 94738, Control_c, 0, 64, 98
1, 94753, Control_c, 0, 64, 98
1, 94773, Note_off_c, 0, 92, 57
1, 94777, Note_on_c, 0, 93, 61
1, 94836, Note_on_c, 0, 61, 52
1, 94842, Control_c, 0, 64, 93
1, 94852, Note_off_c, 0, 93, 51
1, 94857, Control_c, 0, 64, 83
1, 94860, Note_off_c, 0, 61, 58
1, 94872, Note_on_c, 0, 92, 56
1, 94872, Control_c, 0, 64, 72
1, 94884, Note_on_c, 0, 93, 40
1, 94887, Control_c, 0, 64, 67
1, 94890, Note_off_c, 0, 92, 63
1, 94901, Control_c, 0, 64, 68
1, 94916, Control_c, 0, 64, 72
1, 94926, Note_on_c, 0, 76, 66
1, 94931, Control_c, 0, 64, 77
1, 94946, Control_c, 0, 64, 85
1, 94955, Note_off_c, 0, 76, 65
1, 94956, Note_off_c, 0, 93, 59
1, 94961, Control_c, 0, 64, 91
1, 94971, Note_on_c, 0, 92, 59
1, 94975, Control_c, 0, 64, 93
1, 94990, Note_off_c, 0, 92, 64
1, 94999, Note_on_c, 0, 93, 49
1, 95035, Control_c, 0, 64, 94
1, 95057, Note_off_c, 0, 93, 60
1, 95066, Note_on_c, 0, 92, 68
1, 95094, Note_off_c, 0, 92, 64
1, 95123, Control_c, 0, 64, 90
1, 95138, Control_c, 0, 64, 80
1, 95149, Note_on_c, 0, 92, 68
1, 95153, Control_c, 0, 64, 68
1, 95159, Note_on_c, 0, 102, 76
1, 95167, Note_on_c, 0, 87, 74
1, 95167, Control_c, 0, 64, 61
1, 95182, Control_c, 0, 64, 63
1, 95197, Control_c, 0, 64, 66
1, 95203, Note_off_c, 0, 92, 59
1, 95204, Note_on_c, 0, 93, 64
1, 95212, Control_c, 0, 64, 70
1, 95227, Control_c, 0, 64, 76
1, 95232, Note_off_c, 0, 102, 60
1, 95234, Note_off_c, 0, 87, 55
1, 95242, Control_c, 0, 64, 85
1, 95257, Control_c, 0, 64, 93
1, 95272, Control_c, 0, 64, 95
1, 95285, Note_on_c, 0, 92, 39
1, 95307, Note_off_c, 0, 93, 0
1, 95307, Note_on_c, 0, 93, 4
1, 95314, Note_off_c, 0, 92, 56
1, 95361, Control_c, 0, 64, 95
1, 95372, Note_on_c, 0, 85, 68
1, 95376, Control_c, 0, 64, 88
1, 95385, Note_on_c, 0, 92, 79
1, 95391, Control_c, 0, 64, 73
1, 95392, Note_on_c, 0, 100, 84
1, 95395, Note_off_c, 0, 85, 68
1, 95406, Control_c, 0, 64, 63
1, 95411, Note_off_c, 0, 93, 47
1, 95421, Control_c, 0, 64, 61
1, 95443, Control_c, 0, 64, 64
1, 95458, Control_c, 0, 64, 67
1, 95461, Note_off_c, 0, 92, 60
1, 95465, Note_on_c, 0, 93, 64
1, 95472, Control_c, 0, 64, 71
1, 95477, Note_off_c, 0, 100, 60
1, 95487, Control_c, 0, 64, 78
1, 95501, Note_on_c, 0, 68, 63
1, 95502, Control_c, 0, 64, 88
1, 95516, Control_c, 0, 64, 93
1, 95530, Note_off_c, 0, 93, 59
1, 95531, Control_c, 0, 64, 94
1, 95533, Note_off_c, 0, 68, 59
1, 95554, Note_on_c, 0, 92, 54
1, 95599, Note_on_c, 0, 99, 81
1, 95602, Note_on_c, 0, 84, 75
1, 95605, Control_c, 0, 64, 89
1, 95620, Control_c, 0, 64, 79
1, 95635, Control_c, 0, 64, 67
1, 95641, Note_on_c, 0, 93, 53
1, 95641, Note_off_c, 0, 84, 58
1, 95644, Note_off_c, 0, 99, 59
1, 95650, Control_c, 0, 64, 63
1, 95665, Control_c, 0, 64, 64
1, 95680, Control_c, 0, 64, 68
1, 95695, Control_c, 0, 64, 75
1, 95707, Note_off_c, 0, 92, 0
1, 95707, Note_on_c, 0, 92, 18
1, 95710, Control_c, 0, 64, 85
1, 95724, Control_c, 0, 64, 94
1, 95739, Control_c, 0, 64, 98
1, 95767, Note_off_c, 0, 93, 32
1, 95798, Control_c, 0, 64, 96
1, 95812, Note_on_c, 0, 82, 74
1, 95813, Note_off_c, 0, 92, 0
1, 95813, Note_on_c, 0, 92, 4
1, 95813, Note_on_c, 0, 97, 80
1, 95813, Control_c, 0, 64, 86
1, 95828, Control_c, 0, 64, 73
1, 95843, Control_c, 0, 64, 65
1, 95858, Control_c, 0, 64, 65
1, 95860, Note_off_c, 0, 97, 60
1, 95872, Control_c, 0, 64, 68
1, 95880, Note_off_c, 0, 82, 57
1, 95887, Control_c, 0, 64, 73
1, 95892, Note_on_c, 0, 93, 65
1, 95902, Control_c, 0, 64, 83
1, 95905, Note_off_c, 0, 92, 56
1, 95916, Control_c, 0, 64, 93
1, 95931, Control_c, 0, 64, 101
1, 95946, Control_c, 0, 64, 104
1, 95960, Note_off_c, 0, 93, 55
1, 95961, Control_c, 0, 64, 105
1, 95967, Note_on_c, 0, 92, 53
1, 95976, Control_c, 0, 64, 106
1, 96020, Control_c, 0, 64, 102
1, 96035, Control_c, 0, 64, 89
1, 96037, Note_on_c, 0, 84, 66
1, 96048, Note_on_c, 0, 99, 86
1, 96050, Control_c, 0, 64, 74
1, 96064, Control_c, 0, 64, 66
1, 96073, Note_off_c, 0, 84, 57
1, 96094, Control_c, 0, 64, 71
1, 96108, Note_on_c, 0, 93, 62
1, 96109, Control_c, 0, 64, 79
1, 96113, Note_off_c, 0, 92, 61
1, 96122, Note_off_c, 0, 99, 60
1, 96124, Control_c, 0, 64, 90
1, 96139, Control_c, 0, 64, 101
1, 96154, Control_c, 0, 64, 106
1, 96169, Control_c, 0, 64, 106
1, 96190, Note_off_c, 0, 93, 56
1, 96199, Note_on_c, 0, 92, 63
1, 96207, Control_c, 0, 64, 108
1, 96221, Control_c, 0, 64, 110
1, 96228, Note_on_c, 0, 93, 44
1, 96233, Note_off_c, 0, 92, 62
1, 96266, Control_c, 0, 64, 104
1, 96281, Control_c, 0, 64, 87
1, 96287, Note_on_c, 0, 85, 69
1, 96291, Note_on_c, 0, 100, 87
1, 96294, Note_on_c, 0, 92, 81
1, 96295, Note_on_c, 0, 73, 58
1, 96295, Control_c, 0, 64, 71
1, 96309, Note_off_c, 0, 93, 57
1, 96310, Control_c, 0, 64, 63
1, 96319, Note_off_c, 0, 73, 57
1, 96325, Control_c, 0, 64, 65
1, 96332, Note_off_c, 0, 85, 61
1, 96339, Control_c, 0, 64, 70
1, 96354, Control_c, 0, 64, 77
1, 96359, Note_off_c, 0, 92, 61
1, 96360, Note_on_c, 0, 93, 56
1, 96369, Control_c, 0, 64, 90
1, 96373, Note_off_c, 0, 100, 63
1, 96384, Control_c, 0, 64, 103
1, 96399, Control_c, 0, 64, 108
1, 96422, Note_off_c, 0, 93, 52
1, 96425, Note_on_c, 0, 92, 57
1, 96443, Control_c, 0, 64, 108
1, 96458, Control_c, 0, 64, 110
1, 96459, Note_on_c, 0, 93, 50
1, 96471, Note_off_c, 0, 92, 59
1, 96503, Control_c, 0, 64, 107
1, 96518, Control_c, 0, 64, 90
1, 96532, Control_c, 0, 64, 73
1, 96546, Note_on_c, 0, 88, 76
1, 96547, Control_c, 0, 64, 63
1, 96556, Note_on_c, 0, 92, 84
1, 96561, Note_on_c, 0, 96, 79
1, 96571, Note_off_c, 0, 93, 55
1, 96577, Control_c, 0, 64, 67
1, 96591, Note_off_c, 0, 96, 54
1, 96592, Note_off_c, 0, 88, 59
1, 96592, Control_c, 0, 64, 73
1, 96598, Note_off_c, 0, 92, 59
1, 96607, Control_c, 0, 64, 83
1, 96621, Control_c, 0, 64, 98
1, 96636, Control_c, 0, 64, 105
1, 96695, Control_c, 0, 64, 106
1, 96710, Control_c, 0, 64, 106
1, 96754, Control_c, 0, 64, 106
1, 96769, Control_c, 0, 64, 99
1, 96784, Control_c, 0, 64, 84
1, 96799, Control_c, 0, 64, 68
1, 96814, Control_c, 0, 64, 60
1, 96828, Note_on_c, 0, 79, 25
1, 96829, Control_c, 0, 64, 62
1, 96844, Note_on_c, 0, 91, 62
1, 96844, Control_c, 0, 64, 65
1, 96858, Control_c, 0, 64, 69
1, 96863, Note_off_c, 0, 79, 51
1, 96873, Control_c, 0, 64, 74
1, 96875, Note_off_c, 0, 91, 63
1, 96888, Control_c, 0, 64, 84
1, 96893, Note_on_c, 0, 93, 59
1, 96903, Control_c, 0, 64, 94
1, 96903, Control_c, 0, 67, 18
1, 96918, Control_c, 0, 64, 101
1, 96918, Control_c, 0, 67, 41
1, 96940, Control_c, 0, 64, 102
1, 96940, Control_c, 0, 67, 74
1, 96945, Note_off_c, 0, 93, 55
1, 96955, Control_c, 0, 67, 106
1, 96971, Control_c, 0, 67, 127
1, 96972, Note_on_c, 0, 91, 60
1, 96993, Note_off_c, 0, 91, 66
1, 97000, Control_c, 0, 64, 101
1, 97015, Control_c, 0, 64, 94
1, 97024, Note_on_c, 0, 78, 62
1, 97030, Control_c, 0, 64, 77
1, 97045, Control_c, 0, 64, 64
1, 97057, Note_off_c, 0, 78, 63
1, 97060, Control_c, 0, 64, 62
1, 97066, Note_on_c, 0, 90, 68
1, 97075, Control_c, 0, 64, 65
1, 97089, Control_c, 0, 64, 68
1, 97104, Control_c, 0, 64, 74
1, 97119, Control_c, 0, 64, 82
1, 97121, Note_off_c, 0, 90, 62
1, 97132, Note_on_c, 0, 92, 62
1, 97134, Control_c, 0, 64, 93
1, 97149, Control_c, 0, 64, 98
1, 97161, Note_on_c, 0, 63, 60
1, 97165, Note_off_c, 0, 92, 59
1, 97196, Note_off_c, 0, 63, 48
1, 97218, Note_on_c, 0, 90, 59
1, 97252, Note_on_c, 0, 78, 71
1, 97264, Note_off_c, 0, 90, 56
1, 97275, Note_on_c, 0, 92, 60
1, 97278, Note_off_c, 0, 78, 64
1, 97282, Control_c, 0, 64, 97
1, 97315, Note_off_c, 0, 92, 55
1, 97359, Note_on_c, 0, 90, 58
1, 97385, Control_c, 0, 64, 97
1, 97396, Note_on_c, 0, 61, 53
1, 97400, Control_c, 0, 64, 90
1, 97404, Note_off_c, 0, 90, 59
1, 97415, Control_c, 0, 64, 76
1, 97418, Note_on_c, 0, 92, 63
1, 97425, Note_off_c, 0, 61, 54
1, 97430, Control_c, 0, 64, 65
1, 97445, Control_c, 0, 64, 64
1, 97457, Note_off_c, 0, 92, 52
1, 97460, Control_c, 0, 64, 66
1, 97474, Control_c, 0, 64, 69
1, 97487, Note_on_c, 0, 76, 56
1, 97489, Control_c, 0, 64, 74
1, 97501, Note_on_c, 0, 90, 64
1, 97504, Control_c, 0, 64, 80
1, 97513, Note_off_c, 0, 76, 62
1, 97519, Control_c, 0, 64, 88
1, 97534, Control_c, 0, 64, 93
1, 97540, Note_off_c, 0, 90, 52
1, 97549, Control_c, 0, 64, 94
1, 97562, Note_on_c, 0, 92, 63
1, 97563, Control_c, 0, 64, 93
1, 97577, Control_c, 0, 64, 90
1, 97592, Control_c, 0, 64, 82
1, 97605, Note_off_c, 0, 92, 51
1, 97607, Control_c, 0, 64, 73
1, 97622, Control_c, 0, 64, 68
1, 97636, Note_on_c, 0, 59, 42
1, 97643, Note_on_c, 0, 90, 60
1, 97651, Control_c, 0, 64, 69
1, 97666, Note_off_c, 0, 59, 53
1, 97666, Control_c, 0, 64, 71
1, 97688, Control_c, 0, 64, 75
1, 97698, Note_off_c, 0, 90, 52
1, 97703, Control_c, 0, 64, 82
1, 97718, Control_c, 0, 64, 88
1, 97719, Note_on_c, 0, 92, 57
1, 97733, Control_c, 0, 64, 92
1, 97748, Note_off_c, 0, 92, 57
1, 97754, Note_on_c, 0, 75, 61
1, 97775, Note_off_c, 0, 75, 63
1, 97796, Note_on_c, 0, 90, 54
1, 97832, Note_off_c, 0, 90, 50
1, 97840, Note_on_c, 0, 92, 61
1, 97867, Control_c, 0, 64, 91
1, 97892, Note_off_c, 0, 92, 56
1, 97911, Control_c, 0, 64, 91
1, 97926, Control_c, 0, 64, 90
1, 97931, Note_on_c, 0, 90, 55
1, 97941, Control_c, 0, 64, 88
1, 97956, Control_c, 0, 64, 83
1, 97971, Control_c, 0, 64, 75
1, 97985, Control_c, 0, 64, 65
1, 97987, Note_on_c, 0, 85, 67
1, 97995, Note_on_c, 0, 100, 67
1, 98000, Control_c, 0, 64, 60
1, 98008, Note_off_c, 0, 90, 60
1, 98015, Control_c, 0, 64, 61
1, 98030, Control_c, 0, 64, 64
1, 98044, Note_off_c, 0, 100, 55
1, 98045, Control_c, 0, 64, 67
1, 98050, Note_on_c, 0, 92, 60
1, 98059, Note_off_c, 0, 85, 56
1, 98059, Control_c, 0, 64, 71
1, 98074, Control_c, 0, 64, 76
1, 98078, Note_off_c, 0, 92, 60
1, 98089, Control_c, 0, 64, 83
1, 98103, Control_c, 0, 64, 88
1, 98117, Note_on_c, 0, 90, 59
1, 98118, Control_c, 0, 64, 90
1, 98146, Note_off_c, 0, 90, 52
1, 98159, Note_on_c, 0, 92, 59
1, 98181, Note_on_c, 0, 83, 69
1, 98191, Note_off_c, 0, 92, 59
1, 98193, Control_c, 0, 64, 88
1, 98206, Note_off_c, 0, 83, 66
1, 98208, Control_c, 0, 64, 82
1, 98221, Note_on_c, 0, 99, 69
1, 98223, Control_c, 0, 64, 72
1, 98230, Note_on_c, 0, 90, 64
1, 98237, Control_c, 0, 64, 65
1, 98260, Note_off_c, 0, 90, 53
1, 98267, Control_c, 0, 64, 67
1, 98275, Note_on_c, 0, 92, 70
1, 98282, Control_c, 0, 64, 70
1, 98297, Control_c, 0, 64, 74
1, 98303, Note_off_c, 0, 99, 55
1, 98311, Control_c, 0, 64, 80
1, 98319, Note_on_c, 0, 66, 62
1, 98326, Control_c, 0, 64, 86
1, 98330, Note_off_c, 0, 92, 59
1, 98341, Control_c, 0, 64, 89
1, 98342, Note_off_c, 0, 66, 60
1, 98349, Note_on_c, 0, 90, 62
1, 98385, Control_c, 0, 64, 88
1, 98400, Control_c, 0, 64, 85
1, 98415, Control_c, 0, 64, 76
1, 98437, Control_c, 0, 64, 66
1, 98438, Note_on_c, 0, 82, 65
1, 98439, Note_on_c, 0, 97, 77
1, 98452, Control_c, 0, 64, 62
1, 98467, Control_c, 0, 64, 63
1, 98469, Note_off_c, 0, 82, 61
1, 98482, Control_c, 0, 64, 65
1, 98497, Control_c, 0, 64, 68
1, 98505, Note_off_c, 0, 90, 56
1, 98506, Note_off_c, 0, 97, 65
1, 98511, Control_c, 0, 64, 73
1, 98516, Note_on_c, 0, 92, 65
1, 98526, Control_c, 0, 64, 79
1, 98541, Control_c, 0, 64, 86
1, 98556, Control_c, 0, 64, 91
1, 98571, Note_off_c, 0, 92, 60
1, 98607, Note_on_c, 0, 90, 58
1, 98616, Control_c, 0, 64, 90
1, 98631, Control_c, 0, 64, 85
1, 98646, Control_c, 0, 64, 75
1, 98651, Note_on_c, 0, 95, 66
1, 98653, Note_on_c, 0, 80, 66
1, 98661, Control_c, 0, 64, 65
1, 98662, Note_off_c, 0, 90, 63
1, 98676, Control_c, 0, 64, 64
1, 98690, Control_c, 0, 64, 65
1, 98694, Note_off_c, 0, 80, 57
1, 98695, Note_on_c, 0, 92, 48
1, 98700, Note_off_c, 0, 95, 57
1, 98705, Control_c, 0, 64, 68
1, 98718, Note_off_c, 0, 92, 60
1, 98720, Control_c, 0, 64, 73
1, 98723, Poly_aftertouch_c, 0, 96, 127
1, 98725, Note_on_c, 0, 90, 59
1, 98734, Control_c, 0, 64, 79
1, 98746, Poly_aftertouch_c, 0, 96, 0
1, 98749, Control_c, 0, 64, 85
1, 98764, Control_c, 0, 64, 90
1, 98779, Control_c, 0, 64, 91
1, 98783, Note_off_c, 0, 90, 60
1, 98796, Note_on_c, 0, 92, 68
1, 98833, Note_off_c, 0, 92, 55
1, 98853, Control_c, 0, 64, 88
1, 98867, Control_c, 0, 64, 79
1, 98880, Note_on_c, 0, 90, 68
1, 98880, Note_on_c, 0, 97, 69
1, 98882, Control_c, 0, 64, 68
1, 98884, Note_on_c, 0, 82, 60
1, 98897, Control_c, 0, 64, 63
1, 98912, Control_c, 0, 64, 63
1, 98925, Note_off_c, 0, 82, 54
1, 98927, Control_c, 0, 64, 66
1, 98931, Note_off_c, 0, 90, 57
1, 98935, Note_on_c, 0, 92, 70
1, 98941, Control_c, 0, 64, 69
1, 98946, Note_off_c, 0, 97, 53
1, 98956, Control_c, 0, 64, 72
1, 98971, Control_c, 0, 64, 79
1, 98986, Note_off_c, 0, 92, 60
1, 98986, Control_c, 0, 64, 84
1, 99001, Control_c, 0, 64, 86
1, 99007, Note_on_c, 0, 90, 55
1, 99016, Control_c, 0, 64, 86
1, 99045, Note_off_c, 0, 90, 61
1, 99060, Note_on_c, 0, 92, 58
1, 99075, Control_c, 0, 64, 86
1, 99090, Control_c, 0, 64, 82
1, 99105, Control_c, 0, 64, 73
1, 99108, Note_on_c, 0, 71, 53
1, 99112, Note_off_c, 0, 92, 59
1, 99114, Note_on_c, 0, 83, 57
1, 99120, Control_c, 0, 64, 63
1, 99128, Note_on_c, 0, 99, 72
1, 99130, Note_on_c, 0, 90, 72
1, 99134, Control_c, 0, 64, 58
1, 99141, Note_off_c, 0, 71, 62
1, 99147, Note_off_c, 0, 83, 59
1, 99149, Control_c, 0, 64, 60
1, 99164, Control_c, 0, 64, 64
1, 99186, Control_c, 0, 64, 68
1, 99188, Note_off_c, 0, 90, 58
1, 99201, Control_c, 0, 64, 72
1, 99204, Note_on_c, 0, 92, 68
1, 99215, Control_c, 0, 64, 79
1, 99230, Control_c, 0, 64, 87
1, 99240, Note_off_c, 0, 92, 55
1, 99245, Control_c, 0, 64, 91
1, 99253, Note_off_c, 0, 99, 35
1, 99269, Note_on_c, 0, 90, 55
1, 99305, Note_off_c, 0, 90, 60
1, 99322, Note_on_c, 0, 92, 61
1, 99349, Control_c, 0, 67, 127
1, 99364, Control_c, 0, 64, 88
1, 99364, Control_c, 0, 67, 126
1, 99379, Control_c, 0, 64, 76
1, 99379, Control_c, 0, 67, 125
1, 99394, Control_c, 0, 64, 65
1, 99394, Control_c, 0, 67, 124
1, 99400, Note_on_c, 0, 90, 66
1, 99406, Note_on_c, 0, 95, 76
1, 99409, Note_off_c, 0, 92, 61
1, 99409, Control_c, 0, 64, 60
1, 99409, Control_c, 0, 67, 122
1, 99411, Note_on_c, 0, 87, 57
1, 99424, Control_c, 0, 64, 62
1, 99424, Control_c, 0, 67, 117
1, 99430, Note_off_c, 0, 90, 62
1, 99439, Control_c, 0, 64, 65
1, 99439, Control_c, 0, 67, 110
1, 99448, Note_off_c, 0, 95, 57
1, 99454, Control_c, 0, 64, 69
1, 99454, Control_c, 0, 67, 98
1, 99457, Note_off_c, 0, 87, 61
1, 99469, Control_c, 0, 64, 74
1, 99469, Control_c, 0, 67, 85
1, 99483, Control_c, 0, 64, 83
1, 99483, Control_c, 0, 67, 69
1, 99498, Control_c, 0, 64, 90
1, 99498, Control_c, 0, 67, 53
1, 99513, Control_c, 0, 64, 92
1, 99513, Control_c, 0, 67, 40
1, 99528, Control_c, 0, 67, 35
1, 99543, Control_c, 0, 67, 25
1, 99572, Control_c, 0, 67, 0
1, 99676, Control_c, 0, 64, 92
1, 99690, Control_c, 0, 64, 90
1, 99705, Control_c, 0, 64, 84
1, 99720, Control_c, 0, 64, 73
1, 99723, Note_on_c, 0, 74, 60
1, 99735, Control_c, 0, 64, 62
1, 99750, Control_c, 0, 64, 56
1, 99764, Control_c, 0, 64, 59
1, 99773, Note_on_c, 0, 86, 57
1, 99779, Control_c, 0, 64, 63
1, 99794, Control_c, 0, 64, 67
1, 99800, Note_off_c, 0, 74, 57
1, 99808, Note_off_c, 0, 86, 61
1, 99809, Control_c, 0, 64, 71
1, 99823, Control_c, 0, 64, 77
1, 99823, Note_on_c, 0, 87, 64
1, 99838, Control_c, 0, 64, 85
1, 99853, Control_c, 0, 64, 91
1, 99861, Note_off_c, 0, 87, 63
1, 99868, Control_c, 0, 64, 93
1, 99888, Note_on_c, 0, 86, 46
1, 99913, Note_off_c, 0, 86, 58
1, 99949, Control_c, 0, 64, 91
1, 99962, Note_on_c, 0, 75, 74
1, 99963, Control_c, 0, 64, 82
1, 99978, Control_c, 0, 64, 69
1, 99993, Control_c, 0, 64, 61
1, 100004, Note_on_c, 0, 87, 66
1, 100008, Control_c, 0, 64, 61
1, 100011, Note_off_c, 0, 75, 59
1, 100023, Control_c, 0, 64, 63
1, 100038, Control_c, 0, 64, 66
1, 100053, Control_c, 0, 64, 68
1, 100057, Note_off_c, 0, 87, 60
1, 100068, Control_c, 0, 64, 72
1, 100069, Note_on_c, 0, 88, 63
1, 100082, Control_c, 0, 64, 80
1, 100097, Control_c, 0, 64, 87
1, 100112, Control_c, 0, 64, 89
1, 100136, Note_off_c, 0, 88, 57
1, 100151, Note_on_c, 0, 87, 65
1, 100186, Note_on_c, 0, 67, 47
1, 100187, Control_c, 0, 64, 87
1, 100197, Note_off_c, 0, 87, 58
1, 100202, Control_c, 0, 64, 78
1, 100205, Note_on_c, 0, 88, 54
1, 100207, Note_on_c, 0, 63, 60
1, 100215, Note_on_c, 0, 75, 65
1, 100217, Control_c, 0, 64, 67
1, 100231, Control_c, 0, 64, 62
1, 100246, Control_c, 0, 64, 62
1, 100261, Control_c, 0, 64, 66
1, 100262, Note_off_c, 0, 88, 56
1, 100265, Note_off_c, 0, 67, 59
1, 100276, Control_c, 0, 64, 70
1, 100280, Note_on_c, 0, 87, 61
1, 100291, Control_c, 0, 64, 77
1, 100297, Note_off_c, 0, 63, 56
1, 100299, Note_off_c, 0, 75, 54
1, 100305, Control_c, 0, 64, 85
1, 100320, Control_c, 0, 64, 91
1, 100335, Control_c, 0, 64, 93
1, 100338, Note_off_c, 0, 87, 59
1, 100339, Note_on_c, 0, 88, 58
1, 100389, Note_off_c, 0, 88, 56
1, 100411, Note_on_c, 0, 87, 56
1, 100424, Control_c, 0, 64, 92
1, 100438, Control_c, 0, 64, 85
1, 100453, Control_c, 0, 64, 73
1, 100456, Note_on_c, 0, 65, 50
1, 100457, Note_on_c, 0, 74, 65
1, 100458, Note_off_c, 0, 87, 60
1, 100461, Note_on_c, 0, 88, 61
1, 100467, Note_on_c, 0, 68, 54
1, 100468, Control_c, 0, 64, 62
1, 100483, Control_c, 0, 64, 61
1, 100488, Note_off_c, 0, 65, 52
1, 100498, Control_c, 0, 64, 64
1, 100509, Note_off_c, 0, 74, 55
1, 100512, Control_c, 0, 64, 67
1, 100515, Note_off_c, 0, 68, 50
1, 100527, Note_off_c, 0, 88, 58
1, 100527, Control_c, 0, 64, 72
1, 100542, Control_c, 0, 64, 78
1, 100543, Note_on_c, 0, 87, 59
1, 100557, Control_c, 0, 64, 85
1, 100572, Control_c, 0, 64, 89
1, 100575, Note_on_c, 0, 88, 47
1, 100579, Note_off_c, 0, 87, 60
1, 100587, Control_c, 0, 64, 89
1, 100634, Note_off_c, 0, 88, 61
1, 100661, Note_on_c, 0, 87, 61
1, 100687, Note_off_c, 0, 87, 66
1, 100698, Control_c, 0, 64, 87
1, 100712, Control_c, 0, 64, 78
1, 100727, Control_c, 0, 64, 64
1, 100742, Control_c, 0, 64, 42
1, 100746, Note_on_c, 0, 67, 45
1, 100747, Note_on_c, 0, 70, 48
1, 100757, Control_c, 0, 64, 0
1, 100762, Note_on_c, 0, 88, 66
1, 100764, Note_on_c, 0, 73, 55
1, 100789, Note_on_c, 0, 87, 56
1, 100810, Note_off_c, 0, 88, 58
1, 100852, Note_off_c, 0, 87, 59
1, 100858, Note_on_c, 0, 86, 57
1, 100876, Control_c, 0, 64, 48
1, 100891, Control_c, 0, 64, 63
1, 100902, Note_off_c, 0, 86, 55
1, 100905, Control_c, 0, 64, 70
1, 100913, Note_on_c, 0, 87, 59
1, 100920, Control_c, 0, 64, 76
1, 100935, Control_c, 0, 64, 83
1, 100941, Note_off_c, 0, 87, 66
1, 100950, Control_c, 0, 64, 92
1, 100965, Control_c, 0, 64, 100
1, 100977, Note_on_c, 0, 88, 68
1, 100980, Control_c, 0, 64, 106
1, 100995, Control_c, 0, 64, 115
1, 101010, Control_c, 0, 64, 127
1, 101037, Note_on_c, 0, 89, 67
1, 101041, Note_off_c, 0, 88, 60
1, 101087, Note_on_c, 0, 90, 70
1, 101087, Note_off_c, 0, 89, 58
1, 101109, Note_off_c, 0, 90, 68
1, 101138, Note_on_c, 0, 91, 72
1, 101193, Note_off_c, 0, 67, 43
1, 101196, Note_on_c, 0, 92, 73
1, 101201, Note_off_c, 0, 73, 34
1, 101203, Note_off_c, 0, 91, 62
1, 101218, Note_off_c, 0, 70, 42
1, 101235, Note_on_c, 0, 93, 76
1, 101266, Note_off_c, 0, 92, 56
1, 101291, Note_on_c, 0, 94, 75
1, 101299, Note_off_c, 0, 93, 62
1, 101308, Note_off_c, 0, 94, 71
1, 101335, Note_on_c, 0, 95, 74
1, 101397, Note_on_c, 0, 96, 76
1, 101434, Note_off_c, 0, 95, 37
1, 101442, Note_off_c, 0, 96, 56
1, 101444, Note_on_c, 0, 97, 67
1, 101465, Note_off_c, 0, 97, 70
1, 101502, Note_on_c, 0, 98, 66
1, 101548, Note_on_c, 0, 99, 73
1, 101553, Note_off_c, 0, 98, 57
1, 101585, Note_on_c, 0, 100, 75
1, 101605, Note_on_c, 0, 76, 62
1, 101612, Note_off_c, 0, 99, 57
1, 101618, Note_on_c, 0, 68, 49
1, 101624, Control_c, 0, 64, 84
1, 101626, Note_on_c, 0, 71, 52
1, 101639, Control_c, 0, 64, 66
1, 101643, Note_on_c, 0, 102, 78
1, 101651, Note_off_c, 0, 100, 63
1, 101654, Control_c, 0, 64, 62
1, 101669, Control_c, 0, 64, 65
1, 101683, Control_c, 0, 64, 68
1, 101688, Note_off_c, 0, 102, 66
1, 101698, Control_c, 0, 64, 74
1, 101713, Note_on_c, 0, 100, 71
1, 101713, Control_c, 0, 64, 84
1, 101728, Control_c, 0, 64, 105
1, 101743, Control_c, 0, 64, 127
1, 101743, Note_on_c, 0, 99, 58
1, 101764, Note_off_c, 0, 100, 65
1, 101786, Note_off_c, 0, 99, 60
1, 101798, Note_on_c, 0, 98, 72
1, 101852, Note_on_c, 0, 97, 80
1, 101852, Note_off_c, 0, 98, 59
1, 101880, Note_off_c, 0, 76, 57
1, 101913, Note_on_c, 0, 96, 56
1, 101920, Note_off_c, 0, 97, 63
1, 101926, Note_on_c, 0, 95, 62
1, 101950, Note_off_c, 0, 71, 45
1, 101952, Note_off_c, 0, 95, 0
1, 101952, Note_on_c, 0, 95, 47
1, 101956, Note_off_c, 0, 68, 33
1, 101964, Note_off_c, 0, 96, 61
1, 102025, Note_on_c, 0, 94, 82
1, 102054, Note_off_c, 0, 95, 36
1, 102068, Note_off_c, 0, 94, 65
1, 102071, Note_on_c, 0, 93, 66
1, 102107, Note_on_c, 0, 92, 78
1, 102122, Note_off_c, 0, 93, 61
1, 102155, Note_on_c, 0, 91, 70
1, 102156, Note_off_c, 0, 92, 64
1, 102236, Note_on_c, 0, 63, 50
1, 102236, Note_on_c, 0, 90, 71
1, 102238, Note_off_c, 0, 91, 61
1, 102289, Note_on_c, 0, 89, 58
1, 102292, Note_off_c, 0, 90, 62
1, 102314, Control_c, 0, 64, 115
1, 102326, Note_off_c, 0, 89, 57
1, 102327, Note_on_c, 0, 70, 54
1, 102329, Control_c, 0, 64, 93
1, 102344, Control_c, 0, 64, 72
1, 102348, Note_on_c, 0, 88, 63
1, 102357, Note_off_c, 0, 63, 37
1, 102358, Control_c, 0, 64, 63
1, 102373, Control_c, 0, 64, 62
1, 102388, Control_c, 0, 64, 63
1, 102402, Control_c, 0, 64, 64
1, 102417, Control_c, 0, 64, 66
1, 102426, Note_on_c, 0, 79, 52
1, 102427, Note_off_c, 0, 88, 56
1, 102432, Note_on_c, 0, 87, 56
1, 102432, Control_c, 0, 64, 70
1, 102447, Control_c, 0, 64, 75
1, 102451, Note_off_c, 0, 79, 57
1, 102459, Note_off_c, 0, 70, 38
1, 102462, Control_c, 0, 64, 83
1, 102467, Note_off_c, 0, 87, 63
1, 102476, Control_c, 0, 64, 92
1, 102491, Control_c, 0, 64, 97
1, 102506, Control_c, 0, 64, 99
1, 102521, Control_c, 0, 64, 100
1, 102625, Control_c, 0, 64, 99
1, 102640, Control_c, 0, 64, 97
1, 102655, Control_c, 0, 64, 91
1, 102670, Control_c, 0, 64, 80
1, 102676, Note_on_c, 0, 70, 55
1, 102685, Control_c, 0, 64, 67
1, 102700, Control_c, 0, 64, 58
1, 102715, Control_c, 0, 64, 57
1, 102724, Note_on_c, 0, 82, 64
1, 102730, Control_c, 0, 64, 59
1, 102745, Control_c, 0, 64, 64
1, 102753, Note_off_c, 0, 70, 54
1, 102760, Control_c, 0, 64, 68
1, 102768, Note_on_c, 0, 83, 67
1, 102774, Control_c, 0, 64, 73
1, 102789, Control_c, 0, 64, 80
1, 102790, Note_off_c, 0, 82, 49
1, 102804, Control_c, 0, 64, 87
1, 102813, Note_off_c, 0, 83, 60
1, 102818, Control_c, 0, 64, 92
1, 102836, Note_on_c, 0, 82, 55
1, 102848, Control_c, 0, 64, 91
1, 102863, Control_c, 0, 64, 90
1, 102864, Note_off_c, 0, 82, 66
1, 102878, Control_c, 0, 64, 86
1, 102892, Control_c, 0, 64, 76
1, 102897, Note_on_c, 0, 74, 76
1, 102907, Control_c, 0, 64, 64
1, 102929, Control_c, 0, 64, 47
1, 102944, Control_c, 0, 64, 43
1, 102959, Control_c, 0, 64, 49
1, 102964, Note_on_c, 0, 86, 74
1, 102974, Control_c, 0, 64, 58
1, 102987, Note_off_c, 0, 86, 62
1, 102989, Control_c, 0, 64, 64
1, 102998, Note_on_c, 0, 87, 67
1, 103004, Control_c, 0, 64, 68
1, 103010, Note_off_c, 0, 74, 58
1, 103019, Control_c, 0, 64, 72
1, 103033, Control_c, 0, 64, 77
1, 103048, Control_c, 0, 64, 82
1, 103064, Note_off_c, 0, 87, 62
1, 103080, Note_on_c, 0, 86, 58
1, 103093, Control_c, 0, 64, 81
1, 103099, Note_off_c, 0, 86, 64
1, 103107, Control_c, 0, 64, 74
1, 103122, Control_c, 0, 64, 64
1, 103137, Control_c, 0, 64, 51
1, 103141, Note_on_c, 0, 75, 82
1, 103152, Control_c, 0, 64, 48
1, 103167, Control_c, 0, 64, 53
1, 103181, Control_c, 0, 64, 60
1, 103196, Control_c, 0, 64, 64
1, 103198, Note_off_c, 0, 75, 63
1, 103204, Note_on_c, 0, 87, 69
1, 103211, Control_c, 0, 64, 67
1, 103225, Control_c, 0, 64, 69
1, 103240, Control_c, 0, 64, 70
1, 103255, Control_c, 0, 64, 71
1, 103259, Note_off_c, 0, 87, 62
1, 103260, Note_on_c, 0, 88, 69
1, 103330, Note_off_c, 0, 88, 61
1, 103360, Control_c, 0, 64, 71
1, 103364, Note_on_c, 0, 87, 64
1, 103375, Control_c, 0, 64, 72
1, 103385, Note_on_c, 0, 67, 63
1, 103390, Control_c, 0, 64, 73
1, 103394, Note_on_c, 0, 75, 71
1, 103397, Note_on_c, 0, 63, 58
1, 103404, Control_c, 0, 64, 74
1, 103405, Note_off_c, 0, 87, 61
1, 103418, Note_on_c, 0, 88, 65
1, 103419, Control_c, 0, 64, 74
1, 103434, Control_c, 0, 64, 75
1, 103452, Note_off_c, 0, 67, 60
1, 103466, Note_off_c, 0, 75, 55
1, 103478, Note_off_c, 0, 88, 51
1, 103506, Note_on_c, 0, 87, 65
1, 103511, Note_off_c, 0, 63, 41
1, 103546, Note_off_c, 0, 87, 59
1, 103567, Control_c, 0, 64, 74
1, 103570, Note_on_c, 0, 88, 60
1, 103612, Note_off_c, 0, 88, 60
1, 103629, Note_on_c, 0, 74, 73
1, 103639, Note_on_c, 0, 68, 60
1, 103640, Note_on_c, 0, 65, 44
1, 103641, Control_c, 0, 64, 74
1, 103645, Note_on_c, 0, 87, 62
1, 103656, Control_c, 0, 64, 75
1, 103663, Note_off_c, 0, 65, 59
1, 103678, Control_c, 0, 64, 76
1, 103684, Note_off_c, 0, 87, 63
1, 103693, Control_c, 0, 64, 77
1, 103694, Note_off_c, 0, 68, 55
1, 103694, Note_off_c, 0, 74, 50
1, 103696, Note_on_c, 0, 88, 65
1, 103708, Control_c, 0, 64, 78
1, 103764, Note_off_c, 0, 88, 57
1, 103775, Note_on_c, 0, 87, 73
1, 103839, Note_off_c, 0, 87, 57
1, 103856, Control_c, 0, 64, 78
1, 103886, Control_c, 0, 64, 76
1, 103901, Control_c, 0, 64, 72
1, 103904, Note_on_c, 0, 67, 56
1, 103904, Note_on_c, 0, 70, 54
1, 103907, Note_on_c, 0, 73, 66
1, 103916, Control_c, 0, 64, 64
1, 103930, Control_c, 0, 64, 50
1, 103936, Note_on_c, 0, 88, 59
1, 103945, Control_c, 0, 64, 25
1, 103960, Control_c, 0, 64, 0
1, 103989, Control_c, 0, 64, 27
1, 103996, Note_on_c, 0, 87, 56
1, 104000, Note_off_c, 0, 88, 62
1, 104004, Control_c, 0, 64, 47
1, 104019, Control_c, 0, 64, 60
1, 104034, Control_c, 0, 64, 67
1, 104045, Note_off_c, 0, 87, 60
1, 104048, Control_c, 0, 64, 71
1, 104054, Note_on_c, 0, 86, 64
1, 104063, Control_c, 0, 64, 77
1, 104078, Control_c, 0, 64, 82
1, 104093, Control_c, 0, 64, 87
1, 104108, Control_c, 0, 64, 92
1, 104110, Note_off_c, 0, 86, 55
1, 104116, Note_on_c, 0, 87, 58
1, 104122, Control_c, 0, 64, 98
1, 104137, Control_c, 0, 64, 105
1, 104143, Note_off_c, 0, 87, 64
1, 104153, Control_c, 0, 64, 119
1, 104168, Control_c, 0, 64, 127
1, 104184, Note_on_c, 0, 88, 71
1, 104243, Note_on_c, 0, 89, 71
1, 104254, Note_off_c, 0, 88, 58
1, 104294, Note_off_c, 0, 89, 61
1, 104295, Note_on_c, 0, 90, 73
1, 104313, Note_off_c, 0, 90, 70
1, 104318, Note_off_c, 0, 67, 40
1, 104340, Note_off_c, 0, 73, 36
1, 104350, Note_on_c, 0, 91, 78
1, 104369, Note_off_c, 0, 70, 36
1, 104405, Note_on_c, 0, 92, 77
1, 104429, Note_off_c, 0, 91, 57
1, 104462, Note_on_c, 0, 93, 73
1, 104508, Note_on_c, 0, 94, 78
1, 104509, Note_off_c, 0, 92, 57
1, 104518, Note_off_c, 0, 93, 62
1, 104525, Note_off_c, 0, 94, 71
1, 104554, Note_on_c, 0, 95, 74
1, 104620, Note_on_c, 0, 96, 70
1, 104623, Note_off_c, 0, 95, 57
1, 104657, Note_off_c, 0, 96, 58
1, 104661, Note_on_c, 0, 97, 74
1, 104677, Note_off_c, 0, 97, 73
1, 104709, Note_on_c, 0, 98, 74
1, 104766, Note_on_c, 0, 99, 73
1, 104777, Note_off_c, 0, 98, 56
1, 104801, Note_on_c, 0, 100, 77
1, 104810, Note_on_c, 0, 76, 67
1, 104814, Note_on_c, 0, 71, 59
1, 104822, Note_on_c, 0, 68, 53
1, 104825, Note_off_c, 0, 99, 57
1, 104827, Control_c, 0, 64, 94
1, 104842, Control_c, 0, 64, 70
1, 104843, Note_on_c, 0, 102, 77
1, 104854, Note_off_c, 0, 100, 62
1, 104857, Control_c, 0, 64, 58
1, 104871, Control_c, 0, 64, 57
1, 104886, Control_c, 0, 64, 62
1, 104895, Note_off_c, 0, 102, 65
1, 104901, Control_c, 0, 64, 66
1, 104912, Note_on_c, 0, 100, 73
1, 104916, Control_c, 0, 64, 71
1, 104930, Control_c, 0, 64, 81
1, 104947, Control_c, 0, 64, 97
1, 104952, Note_on_c, 0, 99, 70
1, 104962, Control_c, 0, 64, 121
1, 104968, Note_off_c, 0, 100, 65
1, 104976, Control_c, 0, 64, 127
1, 104996, Note_off_c, 0, 99, 59
1, 105004, Note_on_c, 0, 98, 72
1, 105055, Note_off_c, 0, 98, 60
1, 105056, Note_on_c, 0, 97, 78
1, 105101, Note_off_c, 0, 76, 54
1, 105113, Note_on_c, 0, 96, 72
1, 105139, Note_off_c, 0, 97, 61
1, 105161, Note_on_c, 0, 95, 86
1, 105179, Note_off_c, 0, 71, 55
1, 105186, Note_off_c, 0, 96, 61
1, 105193, Note_off_c, 0, 68, 40
1, 105222, Note_off_c, 0, 95, 63
1, 105249, Note_on_c, 0, 94, 81
1, 105283, Note_off_c, 0, 94, 66
1, 105290, Note_on_c, 0, 93, 73
1, 105343, Note_on_c, 0, 92, 71
1, 105358, Note_off_c, 0, 93, 60
1, 105383, Note_on_c, 0, 91, 74
1, 105388, Note_off_c, 0, 92, 64
1, 105451, Note_off_c, 0, 91, 59
1, 105463, Note_on_c, 0, 90, 69
1, 105478, Note_on_c, 0, 63, 51
1, 105517, Control_c, 0, 64, 92
1, 105529, Note_off_c, 0, 90, 60
1, 105530, Note_on_c, 0, 89, 54
1, 105532, Control_c, 0, 64, 71
1, 105546, Control_c, 0, 64, 57
1, 105553, Note_off_c, 0, 89, 60
1, 105561, Control_c, 0, 64, 48
1, 105576, Note_on_c, 0, 70, 51
1, 105581, Note_off_c, 0, 63, 57
1, 105582, Note_on_c, 0, 88, 51
1, 105606, Control_c, 0, 64, 49
1, 105620, Control_c, 0, 64, 52
1, 105635, Note_off_c, 0, 88, 51
1, 105635, Control_c, 0, 64, 54
1, 105650, Control_c, 0, 64, 58
1, 105654, Note_on_c, 0, 87, 57
1, 105665, Control_c, 0, 64, 64
1, 105672, Note_on_c, 0, 79, 54
1, 105680, Control_c, 0, 64, 69
1, 105692, Note_off_c, 0, 87, 63
1, 105694, Control_c, 0, 64, 78
1, 105709, Control_c, 0, 64, 92
1, 105715, Note_on_c, 0, 88, 52
1, 105724, Control_c, 0, 64, 103
1, 105740, Control_c, 0, 64, 106
1, 105755, Control_c, 0, 64, 109
1, 105769, Control_c, 0, 64, 115
1, 105779, Note_on_c, 0, 87, 53
1, 105779, Note_off_c, 0, 79, 34
1, 105779, Note_off_c, 0, 88, 57
1, 105784, Control_c, 0, 64, 127
1, 105817, Note_off_c, 0, 87, 63
1, 105830, Note_on_c, 0, 86, 60
1, 105882, Note_off_c, 0, 70, 34
1, 105888, Note_off_c, 0, 86, 58
1, 105897, Note_on_c, 0, 87, 66
1, 105929, Note_off_c, 0, 87, 65
1, 105967, Note_on_c, 0, 88, 68
1, 106029, Note_off_c, 0, 88, 60
1, 106030, Note_on_c, 0, 89, 67
1, 106072, Note_on_c, 0, 90, 73
1, 106079, Note_off_c, 0, 89, 59
1, 106100, Note_off_c, 0, 90, 65
1, 106131, Note_on_c, 0, 91, 75
1, 106196, Note_on_c, 0, 92, 76
1, 106223, Note_off_c, 0, 91, 55
1, 106241, Note_on_c, 0, 93, 68
1, 106291, Note_on_c, 0, 94, 75
1, 106299, Note_off_c, 0, 93, 63
1, 106303, Note_off_c, 0, 92, 38
1, 106315, Note_off_c, 0, 94, 66
1, 106340, Control_c, 0, 64, 101
1, 106350, Note_on_c, 0, 95, 77
1, 106355, Control_c, 0, 64, 74
1, 106357, Note_on_c, 0, 56, 65
1, 106369, Control_c, 0, 64, 61
1, 106384, Control_c, 0, 64, 59
1, 106399, Control_c, 0, 64, 64
1, 106414, Control_c, 0, 64, 68
1, 106414, Note_off_c, 0, 95, 60
1, 106416, Note_on_c, 0, 96, 73
1, 106429, Control_c, 0, 64, 75
1, 106443, Control_c, 0, 64, 87
1, 106454, Note_on_c, 0, 97, 73
1, 106458, Control_c, 0, 64, 105
1, 106459, Note_off_c, 0, 96, 57
1, 106471, Note_off_c, 0, 97, 72
1, 106473, Control_c, 0, 64, 127
1, 106512, Note_on_c, 0, 98, 77
1, 106539, Note_off_c, 0, 56, 35
1, 106565, Note_on_c, 0, 99, 69
1, 106575, Note_off_c, 0, 98, 60
1, 106596, Note_on_c, 0, 100, 79
1, 106618, Note_on_c, 0, 71, 84
1, 106620, Note_off_c, 0, 99, 57
1, 106650, Note_on_c, 0, 102, 79
1, 106664, Note_off_c, 0, 100, 62
1, 106708, Note_off_c, 0, 71, 60
1, 106715, Note_off_c, 0, 102, 65
1, 106733, Note_on_c, 0, 100, 72
1, 106771, Note_on_c, 0, 99, 62
1, 106788, Note_off_c, 0, 100, 63
1, 106822, Note_off_c, 0, 99, 62
1, 106829, Note_on_c, 0, 98, 76
1, 106880, Note_off_c, 0, 98, 63
1, 106882, Note_on_c, 0, 97, 77
1, 106938, Note_on_c, 0, 96, 74
1, 106957, Note_off_c, 0, 97, 64
1, 106987, Note_on_c, 0, 95, 85
1, 106995, Note_off_c, 0, 96, 62
1, 107046, Note_off_c, 0, 95, 59
1, 107071, Note_on_c, 0, 94, 79
1, 107114, Note_off_c, 0, 94, 65
1, 107120, Note_on_c, 0, 93, 63
1, 107174, Note_on_c, 0, 92, 62
1, 107182, Note_off_c, 0, 93, 60
1, 107207, Note_off_c, 0, 92, 64
1, 107215, Note_on_c, 0, 91, 68
1, 107222, Control_c, 0, 64, 93
1, 107237, Control_c, 0, 64, 71
1, 107252, Control_c, 0, 64, 63
1, 107257, Note_on_c, 0, 51, 36
1, 107267, Control_c, 0, 64, 62
1, 107281, Note_off_c, 0, 91, 54
1, 107282, Control_c, 0, 64, 63
1, 107297, Control_c, 0, 64, 65
1, 107302, Note_on_c, 0, 90, 61
1, 107311, Control_c, 0, 64, 68
1, 107326, Control_c, 0, 64, 72
1, 107342, Control_c, 0, 64, 83
1, 107357, Control_c, 0, 64, 98
1, 107358, Note_off_c, 0, 51, 49
1, 107359, Note_on_c, 0, 89, 51
1, 107367, Note_off_c, 0, 90, 58
1, 107371, Control_c, 0, 64, 118
1, 107384, Note_off_c, 0, 89, 58
1, 107386, Control_c, 0, 64, 127
1, 107408, Note_on_c, 0, 88, 57
1, 107453, Note_on_c, 0, 67, 47
1, 107473, Note_off_c, 0, 88, 50
1, 107487, Note_on_c, 0, 87, 59
1, 107490, Note_off_c, 0, 67, 61
1, 107536, Note_off_c, 0, 87, 49
1, 107542, Note_on_c, 0, 88, 44
1, 107607, Note_on_c, 0, 87, 43
1, 107607, Note_off_c, 0, 88, 59
1, 107648, Note_off_c, 0, 87, 64
1, 107658, Note_on_c, 0, 86, 64
1, 107714, Note_off_c, 0, 86, 54
1, 107720, Note_on_c, 0, 87, 59
1, 107743, Note_off_c, 0, 87, 64
1, 107778, Note_on_c, 0, 88, 71
1, 107842, Note_on_c, 0, 89, 71
1, 107848, Note_off_c, 0, 88, 59
1, 107888, Note_on_c, 0, 90, 75
1, 107893, Note_off_c, 0, 89, 61
1, 107908, Note_off_c, 0, 90, 69
1, 107943, Note_on_c, 0, 91, 77
1, 108006, Note_on_c, 0, 92, 80
1, 108024, Note_off_c, 0, 91, 61
1, 108060, Control_c, 0, 64, 101
1, 108061, Note_on_c, 0, 93, 71
1, 108075, Control_c, 0, 64, 77
1, 108089, Control_c, 0, 64, 65
1, 108091, Note_on_c, 0, 44, 71
1, 108104, Control_c, 0, 64, 63
1, 108110, Note_on_c, 0, 94, 78
1, 108119, Control_c, 0, 64, 65
1, 108121, Note_off_c, 0, 92, 61
1, 108126, Note_off_c, 0, 93, 63
1, 108134, Control_c, 0, 64, 68
1, 108149, Control_c, 0, 64, 75
1, 108152, Note_off_c, 0, 94, 64
1, 108171, Control_c, 0, 64, 86
1, 108179, Note_on_c, 0, 95, 84
1, 108186, Control_c, 0, 64, 103
1, 108201, Control_c, 0, 64, 127
1, 108239, Note_off_c, 0, 44, 56
1, 108242, Note_on_c, 0, 96, 80
1, 108248, Note_off_c, 0, 95, 58
1, 108291, Note_on_c, 0, 97, 77
1, 108302, Note_off_c, 0, 96, 62
1, 108331, Note_off_c, 0, 97, 60
1, 108351, Note_on_c, 0, 98, 71
1, 108429, Note_on_c, 0, 99, 77
1, 108432, Note_off_c, 0, 98, 62
1, 108458, Note_on_c, 0, 59, 88
1, 108476, Note_on_c, 0, 100, 77
1, 108528, Note_off_c, 0, 59, 58
1, 108529, Note_on_c, 0, 102, 78
1, 108538, Note_off_c, 0, 99, 45
1, 108545, Note_off_c, 0, 100, 63
1, 108594, Note_off_c, 0, 102, 64
1, 108614, Note_on_c, 0, 100, 78
1, 108671, Note_on_c, 0, 99, 64
1, 108674, Note_off_c, 0, 100, 64
1, 108722, Note_on_c, 0, 98, 78
1, 108724, Note_off_c, 0, 99, 62
1, 108775, Note_off_c, 0, 98, 62
1, 108783, Note_on_c, 0, 99, 69
1, 108841, Note_on_c, 0, 98, 67
1, 108842, Note_off_c, 0, 99, 60
1, 108915, Note_on_c, 0, 97, 72
1, 108921, Note_off_c, 0, 98, 57
1, 108969, Note_on_c, 0, 96, 74
1, 108975, Note_off_c, 0, 97, 63
1, 109022, Note_on_c, 0, 97, 59
1, 109031, Note_off_c, 0, 96, 62
1, 109091, Note_on_c, 0, 96, 73
1, 109099, Note_off_c, 0, 97, 61
1, 109134, Note_on_c, 0, 95, 73
1, 109137, Note_off_c, 0, 96, 58
1, 109226, Note_on_c, 0, 94, 74
1, 109258, Note_off_c, 0, 95, 0
1, 109276, Note_on_c, 0, 95, 58
1, 109287, Note_off_c, 0, 94, 62
1, 109348, Note_off_c, 0, 95, 61
1, 109351, Note_on_c, 0, 94, 56
1, 109383, Note_off_c, 0, 94, 64
1, 109396, Note_on_c, 0, 93, 73
1, 109464, Note_off_c, 0, 93, 50
1, 109466, Note_on_c, 0, 92, 73
1, 109508, Note_on_c, 0, 93, 58
1, 109515, Note_off_c, 0, 92, 64
1, 109573, Note_off_c, 0, 93, 59
1, 109582, Note_on_c, 0, 92, 72
1, 109627, Note_off_c, 0, 92, 64
1, 109634, Note_on_c, 0, 91, 70
1, 109711, Note_on_c, 0, 90, 72
1, 109717, Note_off_c, 0, 91, 51
1, 109762, Note_on_c, 0, 91, 63
1, 109773, Note_off_c, 0, 90, 63
1, 109827, Note_on_c, 0, 90, 58
1, 109833, Note_off_c, 0, 91, 61
1, 109853, Note_off_c, 0, 90, 67
1, 109874, Note_on_c, 0, 89, 69
1, 109905, Note_off_c, 0, 89, 55
1, 109930, Note_on_c, 0, 88, 58
1, 109959, Note_on_c, 0, 89, 21
1, 109987, Note_off_c, 0, 88, 36
1, 110068, Note_on_c, 0, 88, 51
1, 110075, Note_off_c, 0, 89, 54
1, 110110, Note_off_c, 0, 88, 58
1, 110117, Note_on_c, 0, 87, 66
1, 110151, Note_off_c, 0, 87, 59
1, 110174, Note_on_c, 0, 86, 62
1, 110215, Note_off_c, 0, 86, 53
1, 110236, Note_on_c, 0, 87, 53
1, 110257, Note_off_c, 0, 87, 61
1, 110273, Note_on_c, 0, 86, 51
1, 110347, Note_on_c, 0, 85, 62
1, 110380, Note_off_c, 0, 86, 35
1, 110385, Note_off_c, 0, 85, 59
1, 110398, Note_on_c, 0, 84, 60
1, 110434, Note_off_c, 0, 84, 62
1, 110447, Note_on_c, 0, 85, 59
1, 110503, Note_off_c, 0, 85, 62
1, 110513, Note_on_c, 0, 84, 64
1, 110540, Note_off_c, 0, 84, 64
1, 110557, Note_on_c, 0, 83, 69
1, 110646, Note_on_c, 0, 82, 69
1, 110680, Note_off_c, 0, 83, 0
1, 110691, Note_on_c, 0, 83, 63
1, 110701, Note_off_c, 0, 82, 60
1, 110767, Note_on_c, 0, 82, 58
1, 110775, Note_off_c, 0, 83, 38
1, 110819, Control_c, 0, 67, 24
1, 110820, Note_off_c, 0, 82, 59
1, 110829, Note_on_c, 0, 81, 60
1, 110834, Control_c, 0, 67, 42
1, 110848, Control_c, 0, 67, 60
1, 110863, Control_c, 0, 67, 79
1, 110878, Control_c, 0, 67, 98
1, 110891, Note_on_c, 0, 80, 65
1, 110892, Control_c, 0, 67, 115
1, 110894, Note_off_c, 0, 81, 53
1, 110907, Control_c, 0, 67, 127
1, 110932, Note_on_c, 0, 81, 43
1, 110948, Note_off_c, 0, 80, 55
1, 111013, Note_off_c, 0, 81, 60
1, 111017, Note_on_c, 0, 80, 60
1, 111058, Note_off_c, 0, 80, 59
1, 111070, Note_on_c, 0, 79, 61
1, 111136, Note_off_c, 0, 79, 51
1, 111139, Note_on_c, 0, 78, 65
1, 111190, Note_on_c, 0, 79, 48
1, 111223, Note_off_c, 0, 78, 0
1, 111242, Note_on_c, 0, 78, 20
1, 111255, Note_off_c, 0, 79, 60
1, 111300, Note_off_c, 0, 78, 60
1, 111300, Note_on_c, 0, 77, 62
1, 111354, Note_off_c, 0, 77, 41
1, 111363, Note_on_c, 0, 76, 69
1, 111418, Note_on_c, 0, 77, 57
1, 111422, Note_off_c, 0, 76, 55
1, 111486, Note_on_c, 0, 76, 45
1, 111491, Note_off_c, 0, 77, 58
1, 111533, Note_off_c, 0, 76, 60
1, 111535, Note_on_c, 0, 75, 65
1, 111589, Note_off_c, 0, 75, 60
1, 111590, Note_on_c, 0, 74, 67
1, 111646, Note_on_c, 0, 75, 43
1, 111646, Note_off_c, 0, 74, 46
1, 111681, Note_off_c, 0, 75, 64
1, 111691, Note_on_c, 0, 74, 48
1, 111766, Note_off_c, 0, 74, 59
1, 111768, Note_on_c, 0, 73, 64
1, 111814, Note_off_c, 0, 73, 57
1, 111823, Note_on_c, 0, 72, 63
1, 111862, Note_off_c, 0, 72, 60
1, 111864, Note_on_c, 0, 73, 54
1, 111938, Note_off_c, 0, 73, 62
1, 111953, Note_on_c, 0, 72, 48
1, 111982, Note_off_c, 0, 72, 63
1, 111996, Note_on_c, 0, 71, 57
1, 112092, Note_on_c, 0, 70, 65
1, 112095, Note_off_c, 0, 71, 0
1, 112113, Note_on_c, 0, 71, 13
1, 112129, Note_off_c, 0, 70, 55
1, 112198, Note_off_c, 0, 71, 52
1, 112220, Note_on_c, 0, 70, 51
1, 112242, Note_off_c, 0, 70, 62
1, 112267, Note_on_c, 0, 69, 55
1, 112354, Note_on_c, 0, 68, 58
1, 112363, Note_off_c, 0, 69, 0
1, 112388, Note_on_c, 0, 69, 31
1, 112393, Note_off_c, 0, 68, 55
1, 112471, Note_off_c, 0, 69, 58
1, 112498, Note_on_c, 0, 68, 58
1, 112528, Note_off_c, 0, 68, 62
1, 112555, Note_on_c, 0, 67, 55
1, 112606, Note_on_c, 0, 43, 35
1, 112611, Control_c, 0, 64, 100
1, 112626, Control_c, 0, 64, 76
1, 112640, Note_off_c, 0, 67, 49
1, 112641, Note_on_c, 0, 66, 55
1, 112641, Control_c, 0, 64, 58
1, 112663, Control_c, 0, 64, 53
1, 112678, Control_c, 0, 64, 55
1, 112685, Poly_aftertouch_c, 0, 67, 0
1, 112693, Control_c, 0, 64, 60
1, 112696, Note_off_c, 0, 66, 61
1, 112698, Note_on_c, 0, 67, 34
1, 112708, Control_c, 0, 64, 65
1, 112723, Control_c, 0, 64, 70
1, 112737, Control_c, 0, 64, 79
1, 112743, Note_off_c, 0, 43, 55
1, 112752, Control_c, 0, 64, 93
1, 112767, Control_c, 0, 64, 106
1, 112776, Note_off_c, 0, 67, 57
1, 112782, Control_c, 0, 64, 112
1, 112797, Note_on_c, 0, 66, 53
1, 112797, Control_c, 0, 64, 113
1, 112826, Control_c, 0, 64, 117
1, 112841, Control_c, 0, 64, 127
1, 112849, Note_off_c, 0, 66, 53
1, 112868, Note_on_c, 0, 65, 54
1, 112948, Note_off_c, 0, 65, 0
1, 112978, Note_on_c, 0, 61, 52
1, 112990, Note_on_c, 0, 58, 43
1, 112999, Note_on_c, 0, 64, 58
1, 113007, Poly_aftertouch_c, 0, 65, 0
1, 113023, Note_off_c, 0, 61, 58
1, 113028, Note_off_c, 0, 58, 51
1, 113061, Note_off_c, 0, 64, 47
1, 113121, Note_on_c, 0, 62, 55
1, 113154, Note_off_c, 0, 62, 61
1, 113204, Note_on_c, 0, 64, 56
1, 113236, Note_off_c, 0, 64, 63
1, 113255, Note_on_c, 0, 63, 60
1, 113290, Note_off_c, 0, 63, 59
1, 113360, Control_c, 0, 67, 127
1, 113379, Note_on_c, 0, 64, 60
1, 113419, Note_off_c, 0, 64, 62
1, 113475, Note_on_c, 0, 66, 59
1, 113492, Note_off_c, 0, 66, 64
1, 113493, Note_on_c, 0, 65, 52
1, 113524, Note_off_c, 0, 65, 65
1, 113560, Control_c, 0, 67, 126
1, 113584, Note_on_c, 0, 67, 65
1, 113590, Control_c, 0, 67, 126
1, 113598, Note_on_c, 0, 66, 56
1, 113611, Note_off_c, 0, 67, 64
1, 113620, Control_c, 0, 67, 125
1, 113639, Note_off_c, 0, 66, 55
1, 113649, Control_c, 0, 67, 125
1, 113664, Control_c, 0, 67, 124
1, 113679, Control_c, 0, 67, 124
1, 113694, Control_c, 0, 67, 123
1, 113708, Note_on_c, 0, 68, 65
1, 113716, Note_on_c, 0, 67, 71
1, 113723, Control_c, 0, 67, 123
1, 113738, Note_off_c, 0, 68, 62
1, 113748, Note_off_c, 0, 67, 59
1, 113825, Note_on_c, 0, 69, 69
1, 113828, Control_c, 0, 67, 122
1, 113843, Note_on_c, 0, 68, 70
1, 113851, Note_off_c, 0, 69, 66
1, 113857, Control_c, 0, 67, 122
1, 113869, Note_off_c, 0, 68, 61
1, 113872, Control_c, 0, 67, 121
1, 113887, Control_c, 0, 67, 121
1, 113902, Control_c, 0, 67, 120
1, 113932, Control_c, 0, 67, 120
1, 113945, Note_on_c, 0, 70, 77
1, 113947, Control_c, 0, 67, 119
1, 113971, Note_on_c, 0, 69, 67
1, 113976, Control_c, 0, 67, 119
1, 113985, Note_off_c, 0, 70, 53
1, 113998, Note_off_c, 0, 69, 66
1, 114036, Control_c, 0, 67, 118
1, 114063, Note_on_c, 0, 71, 71
1, 114092, Note_on_c, 0, 72, 46
1, 114093, Note_off_c, 0, 72, 127
1, 114094, Control_c, 0, 67, 118
1, 114099, Note_on_c, 0, 70, 71
1, 114102, Note_off_c, 0, 71, 60
1, 114108, Control_c, 0, 67, 117
1, 114123, Control_c, 0, 67, 117
1, 114138, Control_c, 0, 67, 116
1, 114140, Note_off_c, 0, 70, 54
1, 114161, Control_c, 0, 67, 115
1, 114176, Control_c, 0, 67, 114
1, 114190, Control_c, 0, 67, 114
1, 114199, Note_on_c, 0, 72, 75
1, 114205, Control_c, 0, 67, 112
1, 114220, Control_c, 0, 67, 111
1, 114225, Note_off_c, 0, 72, 65
1, 114234, Control_c, 0, 67, 110
1, 114249, Control_c, 0, 67, 109
1, 114264, Control_c, 0, 67, 108
1, 114266, Note_on_c, 0, 71, 63
1, 114279, Control_c, 0, 67, 107
1, 114294, Control_c, 0, 67, 106
1, 114302, Note_off_c, 0, 71, 60
1, 114308, Control_c, 0, 67, 105
1, 114323, Control_c, 0, 67, 105
1, 114334, Note_on_c, 0, 73, 70
1, 114338, Control_c, 0, 67, 104
1, 114353, Control_c, 0, 67, 103
1, 114362, Note_on_c, 0, 71, 53
1, 114362, Note_off_c, 0, 73, 64
1, 114368, Control_c, 0, 67, 101
1, 114382, Control_c, 0, 67, 98
1, 114397, Control_c, 0, 67, 92
1, 114400, Note_off_c, 0, 71, 62
1, 114412, Control_c, 0, 67, 80
1, 114427, Control_c, 0, 67, 54
1, 114437, Note_on_c, 0, 74, 85
1, 114442, Control_c, 0, 67, 29
1, 114457, Control_c, 0, 67, 0
1, 114480, Note_off_c, 0, 74, 58
1, 114496, Note_on_c, 0, 73, 72
1, 114536, Note_off_c, 0, 73, 54
1, 114562, Note_on_c, 0, 75, 78
1, 114589, Note_off_c, 0, 75, 59
1, 114607, Note_on_c, 0, 74, 75
1, 114633, Note_off_c, 0, 74, 66
1, 114676, Note_on_c, 0, 76, 80
1, 114701, Note_off_c, 0, 76, 62
1, 114729, Note_on_c, 0, 75, 62
1, 114764, Note_off_c, 0, 75, 59
1, 114779, Note_on_c, 0, 77, 82
1, 114802, Note_off_c, 0, 77, 63
1, 114851, Note_on_c, 0, 76, 71
1, 114884, Note_off_c, 0, 76, 60
1, 114889, Note_on_c, 0, 78, 76
1, 114920, Note_off_c, 0, 78, 66
1, 114960, Note_on_c, 0, 77, 74
1, 114987, Note_off_c, 0, 77, 59
1, 115004, Note_on_c, 0, 79, 80
1, 115026, Note_off_c, 0, 79, 65
1, 115069, Note_on_c, 0, 78, 71
1, 115098, Note_off_c, 0, 78, 62
1, 115116, Note_on_c, 0, 80, 80
1, 115137, Note_off_c, 0, 80, 63
1, 115169, Note_on_c, 0, 79, 71
1, 115198, Note_off_c, 0, 79, 63
1, 115222, Note_on_c, 0, 81, 80
1, 115245, Note_off_c, 0, 81, 65
1, 115282, Note_on_c, 0, 80, 70
1, 115313, Note_off_c, 0, 80, 57
1, 115328, Note_on_c, 0, 82, 84
1, 115365, Note_off_c, 0, 82, 56
1, 115387, Note_on_c, 0, 81, 73
1, 115416, Note_off_c, 0, 81, 62
1, 115440, Note_on_c, 0, 83, 87
1, 115476, Note_off_c, 0, 83, 58
1, 115499, Note_on_c, 0, 82, 77
1, 115546, Note_on_c, 0, 84, 84
1, 115566, Note_off_c, 0, 82, 39
1, 115586, Note_off_c, 0, 84, 57
1, 115607, Note_on_c, 0, 83, 81
1, 115660, Note_off_c, 0, 83, 63
1, 115663, Note_on_c, 0, 85, 82
1, 115690, Note_off_c, 0, 85, 58
1, 115712, Note_on_c, 0, 84, 86
1, 115755, Note_off_c, 0, 84, 62
1, 115765, Note_on_c, 0, 86, 83
1, 115801, Note_off_c, 0, 86, 58
1, 115823, Note_on_c, 0, 85, 84
1, 115870, Note_on_c, 0, 87, 88
1, 115874, Note_off_c, 0, 85, 60
1, 115913, Note_off_c, 0, 87, 63
1, 115929, Note_on_c, 0, 86, 85
1, 115971, Note_off_c, 0, 86, 64
1, 115983, Note_on_c, 0, 88, 93
1, 116023, Note_off_c, 0, 88, 64
1, 116047, Note_on_c, 0, 87, 86
1, 116086, Note_on_c, 0, 89, 87
1, 116099, Note_off_c, 0, 87, 61
1, 116130, Note_off_c, 0, 89, 62
1, 116160, Note_on_c, 0, 88, 90
1, 116203, Note_on_c, 0, 90, 88
1, 116203, Note_off_c, 0, 88, 63
1, 116242, Note_off_c, 0, 90, 60
1, 116257, Note_on_c, 0, 89, 88
1, 116303, Note_off_c, 0, 89, 62
1, 116311, Note_on_c, 0, 91, 90
1, 116347, Note_off_c, 0, 91, 61
1, 116365, Note_on_c, 0, 90, 86
1, 116417, Note_off_c, 0, 90, 63
1, 116422, Note_on_c, 0, 92, 92
1, 116463, Note_off_c, 0, 92, 65
1, 116477, Note_on_c, 0, 91, 92
1, 116522, Note_off_c, 0, 91, 64
1, 116531, Note_on_c, 0, 93, 94
1, 116570, Note_off_c, 0, 93, 63
1, 116594, Note_on_c, 0, 92, 87
1, 116635, Note_on_c, 0, 94, 93
1, 116642, Note_off_c, 0, 92, 63
1, 116677, Note_off_c, 0, 94, 63
1, 116702, Note_on_c, 0, 93, 95
1, 116744, Note_off_c, 0, 93, 63
1, 116752, Note_on_c, 0, 95, 95
1, 116789, Note_off_c, 0, 95, 65
1, 116821, Note_on_c, 0, 94, 90
1, 116859, Note_on_c, 0, 96, 96
1, 116869, Note_off_c, 0, 94, 60
1, 116901, Note_off_c, 0, 96, 63
1, 116939, Note_on_c, 0, 95, 91
1, 116977, Note_on_c, 0, 97, 94
1, 116982, Note_off_c, 0, 95, 63
1, 117017, Note_off_c, 0, 97, 65
1, 117046, Note_on_c, 0, 96, 92
1, 117087, Note_off_c, 0, 96, 62
1, 117092, Note_on_c, 0, 98, 93
1, 117129, Note_off_c, 0, 98, 64
1, 117169, Note_on_c, 0, 97, 87
1, 117210, Note_off_c, 0, 97, 64
1, 117217, Note_on_c, 0, 99, 98
1, 117263, Note_off_c, 0, 99, 63
1, 117285, Note_on_c, 0, 98, 94
1, 117327, Note_off_c, 0, 98, 67
1, 117339, Note_on_c, 0, 100, 97
1, 117380, Note_off_c, 0, 100, 65
1, 117400, Note_on_c, 0, 98, 90
1, 117443, Note_off_c, 0, 98, 64
1, 117451, Note_on_c, 0, 99, 93
1, 117495, Note_off_c, 0, 99, 65
1, 117521, Note_on_c, 0, 98, 96
1, 117560, Note_off_c, 0, 98, 66
1, 117572, Note_on_c, 0, 100, 97
1, 117613, Note_off_c, 0, 100, 66
1, 117634, Note_on_c, 0, 98, 93
1, 117673, Note_off_c, 0, 98, 66
1, 117688, Note_on_c, 0, 99, 95
1, 117734, Note_off_c, 0, 99, 64
1, 117760, Note_on_c, 0, 98, 95
1, 117805, Note_off_c, 0, 98, 64
1, 117814, Note_on_c, 0, 100, 94
1, 117858, Note_off_c, 0, 100, 65
1, 117877, Note_on_c, 0, 98, 88
1, 117925, Note_off_c, 0, 98, 67
1, 117944, Note_on_c, 0, 99, 93
1, 117989, Note_off_c, 0, 99, 63
1, 117998, Note_on_c, 0, 98, 79
1, 118029, Note_off_c, 0, 98, 60
1, 118064, Note_on_c, 0, 100, 99
1, 118094, Note_on_c, 0, 98, 88
1, 118105, Note_off_c, 0, 100, 65
1, 118135, Note_off_c, 0, 98, 66
1, 118178, Note_on_c, 0, 99, 86
1, 118216, Note_off_c, 0, 99, 64
1, 118248, Note_on_c, 0, 100, 87
1, 118290, Note_off_c, 0, 100, 65
1, 118299, Note_on_c, 0, 99, 86
1, 118346, Note_off_c, 0, 99, 62
1, 118372, Note_on_c, 0, 100, 90
1, 118412, Note_off_c, 0, 100, 65
1, 118429, Note_on_c, 0, 99, 88
1, 118473, Note_off_c, 0, 99, 63
1, 118490, Note_on_c, 0, 100, 95
1, 118533, Note_off_c, 0, 100, 64
1, 118546, Note_on_c, 0, 99, 90
1, 118594, Note_off_c, 0, 99, 62
1, 118617, Note_on_c, 0, 100, 96
1, 118669, Note_off_c, 0, 100, 66
1, 118682, Note_on_c, 0, 99, 98
1, 118727, Note_off_c, 0, 99, 63
1, 118744, Note_on_c, 0, 100, 98
1, 118786, Note_off_c, 0, 100, 66
1, 118803, Note_on_c, 0, 99, 100
1, 118849, Note_off_c, 0, 99, 64
1, 118865, Note_on_c, 0, 100, 99
1, 118907, Note_off_c, 0, 100, 66
1, 118922, Note_on_c, 0, 99, 101
1, 118970, Note_off_c, 0, 99, 63
1, 118979, Note_on_c, 0, 100, 99
1, 119020, Note_off_c, 0, 100, 66
1, 119046, Note_on_c, 0, 99, 104
1, 119094, Note_off_c, 0, 99, 63
1, 119096, Note_on_c, 0, 100, 97
1, 119132, Note_off_c, 0, 100, 67
1, 119165, Note_on_c, 0, 99, 106
1, 119212, Note_off_c, 0, 99, 64
1, 119220, Note_on_c, 0, 100, 102
1, 119260, Note_off_c, 0, 100, 66
1, 119286, Note_on_c, 0, 99, 102
1, 119330, Note_off_c, 0, 99, 64
1, 119341, Note_on_c, 0, 100, 98
1, 119384, Note_off_c, 0, 100, 66
1, 119414, Note_on_c, 0, 99, 94
1, 119462, Note_off_c, 0, 99, 62
1, 119475, Note_on_c, 0, 100, 91
1, 119516, Note_off_c, 0, 100, 66
1, 119548, Note_on_c, 0, 99, 84
1, 119595, Note_off_c, 0, 99, 61
1, 119600, Note_on_c, 0, 100, 85
1, 119643, Note_off_c, 0, 100, 64
1, 119682, Note_on_c, 0, 99, 82
1, 119729, Note_on_c, 0, 100, 79
1, 119729, Note_off_c, 0, 99, 54
1, 119770, Note_off_c, 0, 100, 60
1, 119804, Note_on_c, 0, 99, 76
1, 119852, Note_off_c, 0, 99, 58
1, 119864, Note_on_c, 0, 100, 75
1, 119894, Note_off_c, 0, 100, 59
1, 119934, Note_on_c, 0, 99, 59
1, 119967, Note_off_c, 0, 99, 61
1, 119991, Note_on_c, 0, 100, 70
1, 120023, Note_off_c, 0, 100, 61
1, 120059, Note_on_c, 0, 99, 62
1, 120092, Note_off_c, 0, 99, 59
1, 120111, Note_on_c, 0, 100, 62
1, 120150, Note_off_c, 0, 100, 65
1, 120184, Note_on_c, 0, 99, 58
1, 120205, Note_off_c, 0, 99, 62
1, 120230, Note_on_c, 0, 100, 72
1, 120281, Note_on_c, 0, 99, 70
1, 120293, Note_off_c, 0, 100, 58
1, 120355, Note_off_c, 0, 99, 57
1, 120361, Note_on_c, 0, 100, 60
1, 120421, Note_off_c, 0, 100, 60
1, 120431, Note_on_c, 0, 99, 54
1, 120490, Note_off_c, 0, 99, 49
1, 120500, Note_on_c, 0, 100, 60
1, 120556, Note_off_c, 0, 100, 61
1, 120567, Note_on_c, 0, 99, 55
1, 120626, Note_off_c, 0, 99, 54
1, 120636, Note_on_c, 0, 100, 62
1, 120695, Note_off_c, 0, 100, 61
1, 120708, Note_on_c, 0, 99, 52
1, 120764, Note_off_c, 0, 99, 53
1, 120777, Note_on_c, 0, 100, 56
1, 120834, Note_off_c, 0, 100, 48
1, 120840, Note_on_c, 0, 99, 55
1, 120909, Note_off_c, 0, 99, 59
1, 120928, Note_on_c, 0, 100, 56
1, 120961, Control_c, 0, 67, 28
1, 120975, Control_c, 0, 67, 45
1, 120976, Note_off_c, 0, 100, 53
1, 120990, Control_c, 0, 67, 65
1, 120995, Note_on_c, 0, 99, 45
1, 121005, Control_c, 0, 67, 84
1, 121020, Control_c, 0, 67, 104
1, 121024, Note_on_c, 0, 75, 49
1, 121034, Control_c, 0, 67, 126
1, 121045, Note_off_c, 0, 99, 49
1, 121049, Control_c, 0, 67, 127
1, 121067, Note_on_c, 0, 100, 55
1, 121103, Note_off_c, 0, 100, 52
1, 121137, Note_on_c, 0, 99, 52
1, 121176, Note_off_c, 0, 99, 49
1, 121193, Note_on_c, 0, 100, 65
1, 121242, Note_off_c, 0, 100, 59
1, 121269, Note_on_c, 0, 99, 47
1, 121298, Note_on_c, 0, 87, 68
1, 121301, Note_off_c, 0, 99, 53
1, 121318, Note_on_c, 0, 100, 61
1, 121322, Note_off_c, 0, 87, 66
1, 121338, Note_off_c, 0, 75, 35
1, 121378, Note_off_c, 0, 100, 54
1, 121390, Note_on_c, 0, 99, 53
1, 121476, Note_on_c, 0, 100, 61
1, 121536, Note_off_c, 0, 99, 41
1, 121540, Note_off_c, 0, 100, 58
1, 121567, Note_on_c, 0, 87, 73
1, 121627, Note_off_c, 0, 87, 60
1, 121634, Note_on_c, 0, 99, 56
1, 121694, Note_off_c, 0, 99, 55
1, 121699, Note_on_c, 0, 100, 59
1, 121768, Note_on_c, 0, 99, 59
1, 121772, Note_off_c, 0, 100, 55
1, 121806, Note_on_c, 0, 85, 56
1, 121808, Note_off_c, 0, 99, 57
1, 121825, Note_off_c, 0, 85, 65
1, 121833, Note_on_c, 0, 87, 71
1, 121877, Note_off_c, 0, 87, 59
1, 121922, Note_on_c, 0, 99, 46
1, 121948, Note_off_c, 0, 99, 56
1, 121953, Note_on_c, 0, 100, 64
1, 121955, Note_on_c, 0, 68, 57
1, 122005, Control_c, 0, 64, 117
1, 122015, Note_off_c, 0, 100, 53
1, 122016, Note_on_c, 0, 99, 65
1, 122020, Control_c, 0, 64, 80
1, 122029, Note_off_c, 0, 68, 53
1, 122035, Control_c, 0, 64, 67
1, 122049, Note_off_c, 0, 99, 56
1, 122049, Control_c, 0, 64, 66
1, 122061, Note_on_c, 0, 83, 76
1, 122064, Control_c, 0, 64, 71
1, 122073, Note_on_c, 0, 87, 70
1, 122079, Control_c, 0, 64, 79
1, 122079, Control_c, 0, 67, 127
1, 122094, Control_c, 0, 64, 98
1, 122094, Control_c, 0, 67, 126
1, 122109, Control_c, 0, 64, 127
1, 122113, Note_off_c, 0, 87, 57
1, 122120, Note_off_c, 0, 83, 58
1, 122124, Control_c, 0, 67, 126
1, 122182, Note_on_c, 0, 100, 62
1, 122213, Poly_aftertouch_c, 0, 99, 127
1, 122213, Control_c, 0, 67, 125
1, 122240, Note_on_c, 0, 99, 8
1, 122242, Control_c, 0, 67, 125
1, 122265, Note_off_c, 0, 100, 57
1, 122272, Control_c, 0, 67, 124
1, 122280, Note_off_c, 0, 99, 60
1, 122286, Control_c, 0, 67, 123
1, 122301, Control_c, 0, 67, 123
1, 122305, Note_on_c, 0, 87, 70
1, 122308, Note_on_c, 0, 83, 70
1, 122335, Note_off_c, 0, 83, 58
1, 122345, Note_off_c, 0, 87, 50
1, 122374, Note_on_c, 0, 99, 61
1, 122374, Control_c, 0, 67, 122
1, 122397, Control_c, 0, 67, 122
1, 122413, Note_off_c, 0, 99, 56
1, 122435, Note_on_c, 0, 100, 56
1, 122495, Note_on_c, 0, 99, 65
1, 122501, Note_off_c, 0, 100, 49
1, 122516, Control_c, 0, 67, 122
1, 122526, Note_off_c, 0, 99, 61
1, 122532, Control_c, 0, 67, 123
1, 122555, Note_on_c, 0, 87, 70
1, 122557, Note_on_c, 0, 82, 68
1, 122590, Note_off_c, 0, 82, 61
1, 122598, Note_off_c, 0, 87, 57
1, 122630, Note_on_c, 0, 99, 63
1, 122663, Note_off_c, 0, 99, 62
1, 122675, Note_on_c, 0, 100, 61
1, 122694, Control_c, 0, 67, 123
1, 122724, Control_c, 0, 67, 124
1, 122745, Note_on_c, 0, 99, 50
1, 122773, Note_off_c, 0, 99, 55
1, 122774, Note_off_c, 0, 100, 36
1, 122797, Control_c, 0, 64, 105
1, 122812, Control_c, 0, 64, 76
1, 122814, Note_on_c, 0, 87, 65
1, 122819, Note_on_c, 0, 80, 70
1, 122823, Note_on_c, 0, 71, 57
1, 122827, Control_c, 0, 64, 63
1, 122841, Note_off_c, 0, 87, 55
1, 122842, Control_c, 0, 64, 62
1, 122857, Control_c, 0, 64, 67
1, 122870, Note_on_c, 0, 99, 60
1, 122872, Control_c, 0, 64, 71
1, 122887, Control_c, 0, 64, 81
1, 122902, Control_c, 0, 64, 96
1, 122912, Note_off_c, 0, 99, 59
1, 122916, Control_c, 0, 64, 127
1, 122919, Note_on_c, 0, 100, 53
1, 122922, Note_off_c, 0, 71, 36
1, 122925, Note_off_c, 0, 80, 44
1, 123001, Note_on_c, 0, 99, 49
1, 123025, Note_off_c, 0, 99, 61
1, 123031, Note_off_c, 0, 100, 40
1, 123061, Note_on_c, 0, 87, 67
1, 123077, Note_on_c, 0, 79, 72
1, 123102, Note_off_c, 0, 87, 52
1, 123117, Note_on_c, 0, 99, 64
1, 123178, Note_off_c, 0, 99, 60
1, 123185, Note_on_c, 0, 100, 58
1, 123259, Note_off_c, 0, 100, 53
1, 123262, Note_on_c, 0, 99, 42
1, 123290, Note_off_c, 0, 99, 55
1, 123295, Control_c, 0, 67, 124
1, 123299, Note_off_c, 0, 79, 61
1, 123324, Note_on_c, 0, 87, 67
1, 123325, Note_on_c, 0, 80, 72
1, 123340, Control_c, 0, 67, 125
1, 123355, Control_c, 0, 67, 125
1, 123361, Note_off_c, 0, 87, 55
1, 123385, Note_on_c, 0, 99, 57
1, 123395, Note_off_c, 0, 80, 55
1, 123426, Note_off_c, 0, 99, 54
1, 123440, Note_on_c, 0, 100, 61
1, 123519, Note_on_c, 0, 99, 51
1, 123543, Note_off_c, 0, 100, 35
1, 123548, Note_off_c, 0, 99, 58
1, 123585, Note_on_c, 0, 79, 50
1, 123585, Note_on_c, 0, 82, 79
1, 123585, Note_on_c, 0, 87, 67
1, 123592, Control_c, 0, 64, 104
1, 123607, Control_c, 0, 64, 80
1, 123621, Control_c, 0, 64, 65
1, 123624, Note_off_c, 0, 87, 57
1, 123636, Control_c, 0, 64, 59
1, 123647, Note_on_c, 0, 99, 60
1, 123651, Control_c, 0, 64, 61
1, 123651, Control_c, 0, 67, 125
1, 123666, Control_c, 0, 64, 64
1, 123681, Control_c, 0, 64, 67
1, 123691, Note_off_c, 0, 99, 58
1, 123695, Control_c, 0, 64, 70
1, 123698, Note_on_c, 0, 100, 65
1, 123710, Control_c, 0, 64, 75
1, 123725, Control_c, 0, 64, 83
1, 123739, Control_c, 0, 64, 90
1, 123750, Note_off_c, 0, 82, 36
1, 123754, Control_c, 0, 64, 96
1, 123769, Control_c, 0, 64, 99
1, 123783, Note_off_c, 0, 100, 51
1, 123784, Control_c, 0, 64, 100
1, 123785, Note_on_c, 0, 99, 42
1, 123799, Note_off_c, 0, 79, 39
1, 123799, Control_c, 0, 64, 103
1, 123814, Control_c, 0, 64, 107
1, 123814, Note_off_c, 0, 99, 53
1, 123829, Note_on_c, 0, 75, 58
1, 123829, Control_c, 0, 64, 111
1, 123834, Note_on_c, 0, 87, 69
1, 123844, Control_c, 0, 64, 113
1, 123858, Control_c, 0, 64, 114
1, 123873, Control_c, 0, 64, 117
1, 123878, Note_off_c, 0, 75, 61
1, 123882, Note_off_c, 0, 87, 54
1, 123895, Control_c, 0, 64, 124
1, 123902, Note_on_c, 0, 99, 59
1, 123910, Control_c, 0, 64, 127
1, 123942, Note_off_c, 0, 99, 55
1, 123951, Note_on_c, 0, 100, 61
1, 124034, Note_on_c, 0, 99, 40
1, 124055, Note_off_c, 0, 100, 39
1, 124064, Note_off_c, 0, 99, 53
1, 124073, Note_on_c, 0, 75, 64
1, 124082, Note_on_c, 0, 87, 69
1, 124107, Note_off_c, 0, 75, 59
1, 124126, Note_off_c, 0, 87, 53
1, 124148, Note_on_c, 0, 99, 61
1, 124185, Note_off_c, 0, 99, 60
1, 124190, Note_on_c, 0, 100, 58
1, 124207, Control_c, 0, 64, 124
1, 124252, Control_c, 0, 64, 123
1, 124254, Note_on_c, 0, 67, 46
1, 124261, Note_on_c, 0, 70, 57
1, 124267, Control_c, 0, 64, 118
1, 124274, Note_on_c, 0, 99, 45
1, 124282, Control_c, 0, 64, 103
1, 124295, Note_off_c, 0, 100, 37
1, 124297, Control_c, 0, 64, 85
1, 124300, Note_off_c, 0, 99, 56
1, 124311, Control_c, 0, 64, 68
1, 124324, Note_on_c, 0, 87, 68
1, 124326, Note_on_c, 0, 76, 75
1, 124326, Control_c, 0, 64, 62
1, 124341, Control_c, 0, 64, 62
1, 124356, Control_c, 0, 64, 65
1, 124362, Note_off_c, 0, 87, 57
1, 124370, Control_c, 0, 64, 68
1, 124385, Control_c, 0, 64, 75
1, 124386, Note_on_c, 0, 99, 60
1, 124400, Control_c, 0, 64, 86
1, 124415, Control_c, 0, 64, 99
1, 124428, Note_off_c, 0, 99, 58
1, 124430, Control_c, 0, 64, 109
1, 124437, Note_on_c, 0, 100, 57
1, 124444, Control_c, 0, 64, 110
1, 124464, Note_off_c, 0, 76, 35
1, 124465, Note_off_c, 0, 70, 28
1, 124470, Note_off_c, 0, 67, 28
1, 124474, Control_c, 0, 64, 111
1, 124489, Control_c, 0, 64, 112
1, 124504, Control_c, 0, 64, 113
1, 124518, Note_off_c, 0, 100, 54
1, 124542, Note_on_c, 0, 99, 5
1, 124548, Control_c, 0, 64, 113
1, 124562, Control_c, 0, 64, 114
1, 124568, Note_on_c, 0, 75, 68
1, 124571, Note_on_c, 0, 87, 69
1, 124593, Note_off_c, 0, 99, 52
1, 124604, Note_off_c, 0, 87, 58
1, 124654, Note_off_c, 0, 75, 45
1, 124663, Note_on_c, 0, 99, 46
1, 124687, Note_off_c, 0, 99, 60
1, 124689, Control_c, 0, 64, 114
1, 124698, Note_on_c, 0, 100, 64
1, 124704, Control_c, 0, 64, 115
1, 124718, Control_c, 0, 64, 116
1, 124748, Control_c, 0, 64, 116
1, 124763, Control_c, 0, 64, 117
1, 124765, Note_off_c, 0, 100, 50
1, 124775, Note_on_c, 0, 99, 52
1, 124777, Control_c, 0, 64, 117
1, 124798, Note_off_c, 0, 99, 58
1, 124809, Note_on_c, 0, 73, 68
1, 124820, Note_on_c, 0, 87, 72
1, 124842, Note_off_c, 0, 73, 62
1, 124865, Note_off_c, 0, 87, 55
1, 124866, Control_c, 0, 67, 125
1, 124883, Note_on_c, 0, 99, 58
1, 124931, Note_off_c, 0, 99, 61
1, 124941, Note_on_c, 0, 100, 64
1, 125006, Note_off_c, 0, 100, 56
1, 125009, Note_on_c, 0, 99, 53
1, 125015, Control_c, 0, 64, 116
1, 125030, Control_c, 0, 64, 105
1, 125042, Note_off_c, 0, 99, 63
1, 125045, Control_c, 0, 64, 88
1, 125059, Note_on_c, 0, 71, 66
1, 125060, Control_c, 0, 64, 71
1, 125063, Note_on_c, 0, 68, 58
1, 125072, Note_on_c, 0, 87, 62
1, 125075, Control_c, 0, 64, 63
1, 125090, Control_c, 0, 64, 64
1, 125104, Control_c, 0, 64, 70
1, 125113, Note_off_c, 0, 87, 58
1, 125119, Control_c, 0, 64, 76
1, 125134, Control_c, 0, 64, 86
1, 125140, Note_on_c, 0, 99, 57
1, 125149, Control_c, 0, 64, 98
1, 125164, Control_c, 0, 64, 105
1, 125174, Note_off_c, 0, 99, 62
1, 125179, Control_c, 0, 64, 106
1, 125181, Note_on_c, 0, 100, 63
1, 125197, Note_off_c, 0, 68, 36
1, 125208, Control_c, 0, 64, 107
1, 125223, Control_c, 0, 64, 110
1, 125229, Note_off_c, 0, 71, 30
1, 125238, Control_c, 0, 64, 115
1, 125253, Control_c, 0, 64, 119
1, 125258, Note_off_c, 0, 100, 57
1, 125282, Control_c, 0, 67, 126
1, 125284, Note_on_c, 0, 99, 21
1, 125301, Note_on_c, 0, 71, 54
1, 125311, Note_on_c, 0, 68, 63
1, 125311, Control_c, 0, 67, 126
1, 125313, Note_on_c, 0, 87, 69
1, 125325, Note_off_c, 0, 99, 44
1, 125337, Note_off_c, 0, 71, 61
1, 125341, Control_c, 0, 67, 127
1, 125356, Note_off_c, 0, 68, 55
1, 125359, Note_off_c, 0, 87, 58
1, 125407, Note_on_c, 0, 99, 65
1, 125435, Note_off_c, 0, 99, 65
1, 125438, Control_c, 0, 67, 127
1, 125447, Note_on_c, 0, 100, 59
1, 125515, Note_off_c, 0, 100, 53
1, 125523, Note_on_c, 0, 99, 55
1, 125541, Control_c, 0, 64, 117
1, 125544, Note_off_c, 0, 99, 61
1, 125556, Control_c, 0, 64, 105
1, 125571, Control_c, 0, 64, 88
1, 125574, Note_on_c, 0, 70, 68
1, 125578, Note_on_c, 0, 87, 66
1, 125584, Note_on_c, 0, 66, 58
1, 125586, Control_c, 0, 64, 71
1, 125600, Control_c, 0, 64, 60
1, 125615, Control_c, 0, 64, 60
1, 125629, Note_off_c, 0, 87, 57
1, 125630, Control_c, 0, 64, 64
1, 125642, Note_on_c, 0, 99, 61
1, 125645, Control_c, 0, 64, 69
1, 125650, Note_off_c, 0, 70, 58
1, 125660, Control_c, 0, 64, 77
1, 125668, Note_off_c, 0, 66, 59
1, 125674, Control_c, 0, 64, 89
1, 125689, Control_c, 0, 64, 102
1, 125693, Note_off_c, 0, 99, 60
1, 125704, Control_c, 0, 64, 108
1, 125706, Note_on_c, 0, 100, 60
1, 125772, Note_off_c, 0, 100, 57
1, 125778, Note_on_c, 0, 99, 48
1, 125803, Note_off_c, 0, 99, 59
1, 125809, Control_c, 0, 64, 108
1, 125823, Control_c, 0, 64, 95
1, 125832, Note_on_c, 0, 87, 68
1, 125837, Note_on_c, 0, 68, 65
1, 125838, Control_c, 0, 64, 78
1, 125844, Note_on_c, 0, 64, 57
1, 125853, Control_c, 0, 64, 63
1, 125868, Control_c, 0, 64, 54
1, 125883, Control_c, 0, 64, 57
1, 125892, Note_off_c, 0, 87, 56
1, 125895, Note_on_c, 0, 99, 62
1, 125897, Control_c, 0, 64, 64
1, 125912, Control_c, 0, 64, 69
1, 125927, Control_c, 0, 64, 76
1, 125942, Control_c, 0, 64, 86
1, 125945, Note_off_c, 0, 64, 55
1, 125955, Note_off_c, 0, 99, 59
1, 125957, Control_c, 0, 64, 96
1, 125963, Note_on_c, 0, 100, 60
1, 125972, Control_c, 0, 64, 100
1, 125983, Note_off_c, 0, 68, 35
1, 126034, Note_on_c, 0, 99, 48
1, 126046, Control_c, 0, 64, 101
1, 126056, Note_off_c, 0, 100, 40
1, 126070, Note_off_c, 0, 99, 50
1, 126091, Control_c, 0, 64, 101
1, 126097, Note_on_c, 0, 87, 62
1, 126098, Note_on_c, 0, 67, 59
1, 126121, Control_c, 0, 64, 102
1, 126142, Control_c, 0, 64, 103
1, 126149, Note_off_c, 0, 87, 55
1, 126157, Control_c, 0, 64, 105
1, 126170, Note_on_c, 0, 99, 62
1, 126219, Note_off_c, 0, 67, 35
1, 126219, Note_off_c, 0, 99, 57
1, 126228, Note_on_c, 0, 100, 56
1, 126297, Note_off_c, 0, 100, 56
1, 126305, Note_on_c, 0, 99, 45
1, 126339, Note_off_c, 0, 99, 51
1, 126363, Note_on_c, 0, 68, 68
1, 126363, Note_on_c, 0, 87, 65
1, 126434, Note_off_c, 0, 87, 53
1, 126435, Note_on_c, 0, 99, 59
1, 126483, Control_c, 0, 64, 104
1, 126488, Note_off_c, 0, 99, 57
1, 126495, Note_on_c, 0, 100, 63
1, 126498, Control_c, 0, 64, 103
1, 126506, Note_off_c, 0, 68, 35
1, 126514, Control_c, 0, 64, 103
1, 126529, Control_c, 0, 64, 102
1, 126544, Control_c, 0, 64, 101
1, 126559, Control_c, 0, 64, 101
1, 126573, Control_c, 0, 64, 100
1, 126577, Note_off_c, 0, 100, 55
1, 126582, Note_on_c, 0, 99, 55
1, 126603, Control_c, 0, 64, 100
1, 126618, Control_c, 0, 64, 99
1, 126633, Control_c, 0, 64, 98
1, 126647, Control_c, 0, 64, 97
1, 126662, Note_off_c, 0, 99, 56
1, 126662, Control_c, 0, 64, 95
1, 126677, Control_c, 0, 64, 90
1, 126690, Note_on_c, 0, 67, 51
1, 126690, Note_on_c, 0, 70, 61
1, 126692, Control_c, 0, 64, 83
1, 126705, Note_on_c, 0, 87, 52
1, 126707, Control_c, 0, 64, 71
1, 126721, Control_c, 0, 64, 62
1, 126736, Control_c, 0, 64, 53
1, 126751, Control_c, 0, 64, 52
1, 126765, Control_c, 0, 64, 53
1, 126765, Control_c, 0, 67, 127
1, 126769, Note_off_c, 0, 87, 51
1, 126780, Control_c, 0, 64, 57
1, 126783, Note_on_c, 0, 99, 53
1, 126795, Control_c, 0, 64, 62
1, 126795, Control_c, 0, 67, 126
1, 126810, Control_c, 0, 64, 66
1, 126824, Control_c, 0, 64, 69
1, 126839, Control_c, 0, 64, 75
1, 126854, Control_c, 0, 64, 82
1, 126855, Note_off_c, 0, 99, 53
1, 126868, Note_on_c, 0, 100, 56
1, 126869, Control_c, 0, 64, 88
1, 126890, Control_c, 0, 64, 91
1, 126890, Control_c, 0, 67, 126
1, 126905, Control_c, 0, 64, 91
1, 126920, Control_c, 0, 64, 92
1, 126935, Control_c, 0, 64, 92
1, 126950, Note_off_c, 0, 100, 57
1, 126950, Control_c, 0, 64, 94
1, 126958, Note_on_c, 0, 99, 41
1, 126965, Control_c, 0, 64, 96
1, 126979, Control_c, 0, 64, 97
1, 126986, Note_off_c, 0, 99, 56
1, 127009, Note_on_c, 0, 63, 45
1, 127014, Note_off_c, 0, 70, 52
1, 127024, Note_on_c, 0, 87, 61
1, 127024, Control_c, 0, 64, 97
1, 127060, Note_off_c, 0, 63, 41
1, 127060, Note_off_c, 0, 67, 34
1, 127063, Note_off_c, 0, 87, 55
1, 127069, Control_c, 0, 67, 125
1, 127083, Note_on_c, 0, 99, 53
1, 127131, Note_off_c, 0, 99, 56
1, 127143, Note_on_c, 0, 100, 63
1, 127210, Note_off_c, 0, 100, 57
1, 127219, Note_on_c, 0, 99, 37
1, 127251, Note_off_c, 0, 99, 53
1, 127265, Note_on_c, 0, 87, 63
1, 127308, Note_off_c, 0, 87, 56
1, 127334, Note_on_c, 0, 99, 61
1, 127349, Note_on_c, 0, 63, 49
1, 127386, Note_off_c, 0, 99, 56
1, 127401, Note_on_c, 0, 100, 59
1, 127471, Note_off_c, 0, 100, 48
1, 127474, Note_on_c, 0, 99, 29
1, 127497, Note_off_c, 0, 63, 52
1, 127507, Note_on_c, 0, 75, 72
1, 127509, Note_on_c, 0, 87, 68
1, 127510, Note_off_c, 0, 99, 49
1, 127563, Note_off_c, 0, 87, 54
1, 127573, Control_c, 0, 64, 98
1, 127587, Control_c, 0, 67, 126
1, 127588, Note_on_c, 0, 99, 59
1, 127593, Note_off_c, 0, 75, 36
1, 127611, Note_off_c, 0, 99, 59
1, 127617, Control_c, 0, 64, 98
1, 127626, Note_on_c, 0, 100, 56
1, 127702, Note_on_c, 0, 99, 53
1, 127727, Note_off_c, 0, 99, 57
1, 127737, Note_off_c, 0, 100, 36
1, 127743, Control_c, 0, 64, 99
1, 127757, Note_on_c, 0, 75, 62
1, 127757, Control_c, 0, 64, 99
1, 127758, Note_on_c, 0, 87, 72
1, 127787, Control_c, 0, 64, 100
1, 127802, Control_c, 0, 64, 100
1, 127811, Note_off_c, 0, 75, 58
1, 127817, Note_off_c, 0, 87, 44
1, 127817, Note_on_c, 0, 99, 61
1, 127895, Note_on_c, 0, 100, 23
1, 127957, Note_on_c, 0, 73, 71
1, 127972, Note_off_c, 0, 100, 46
1, 127979, Control_c, 0, 67, 126
1, 127981, Note_on_c, 0, 87, 73
1, 127982, Note_off_c, 0, 73, 67
1, 127987, Note_off_c, 0, 99, 36
1, 127994, Control_c, 0, 67, 127
1, 128009, Control_c, 0, 64, 100
1, 128024, Control_c, 0, 64, 99
1, 128024, Control_c, 0, 67, 127
1, 128043, Note_off_c, 0, 87, 57
1, 128083, Control_c, 0, 64, 99
1, 128098, Note_on_c, 0, 56, 62
1, 128143, Control_c, 0, 64, 97
1, 128147, Note_off_c, 0, 56, 58
1, 128158, Control_c, 0, 64, 90
1, 128173, Control_c, 0, 64, 73
1, 128188, Control_c, 0, 64, 60
1, 128196, Note_on_c, 0, 99, 63
1, 128203, Control_c, 0, 64, 56
1, 128210, Note_on_c, 0, 71, 62
1, 128217, Control_c, 0, 64, 59
1, 128220, Note_off_c, 0, 99, 65
1, 128225, Note_on_c, 0, 100, 66
1, 128232, Control_c, 0, 64, 64
1, 128247, Control_c, 0, 64, 68
1, 128258, Note_off_c, 0, 71, 50
1, 128262, Control_c, 0, 64, 73
1, 128277, Control_c, 0, 64, 82
1, 128291, Control_c, 0, 64, 92
1, 128294, Note_on_c, 0, 99, 70
1, 128305, Note_off_c, 0, 100, 62
1, 128306, Control_c, 0, 64, 97
1, 128319, Note_off_c, 0, 99, 64
1, 128321, Control_c, 0, 64, 98
1, 128345, Note_on_c, 0, 87, 71
1, 128366, Control_c, 0, 64, 98
1, 128370, Note_off_c, 0, 87, 62
1, 128415, Note_on_c, 0, 71, 56
1, 128466, Note_on_c, 0, 87, 53
1, 128470, Note_off_c, 0, 71, 51
1, 128485, Note_off_c, 0, 87, 62
1, 128496, Note_on_c, 0, 88, 64
1, 128550, Note_off_c, 0, 88, 52
1, 128576, Note_on_c, 0, 87, 39
1, 128604, Note_off_c, 0, 87, 56
1, 128613, Note_on_c, 0, 75, 68
1, 128643, Note_on_c, 0, 70, 61
1, 128650, Note_off_c, 0, 75, 58
1, 128655, Control_c, 0, 64, 98
1, 128669, Control_c, 0, 64, 97
1, 128674, Note_off_c, 0, 70, 63
1, 128682, Note_on_c, 0, 87, 63
1, 128690, Note_on_c, 0, 88, 70
1, 128699, Control_c, 0, 64, 97
1, 128701, Note_off_c, 0, 87, 62
1, 128714, Note_off_c, 0, 88, 67
1, 128714, Control_c, 0, 64, 96
1, 128729, Control_c, 0, 64, 95
1, 128773, Control_c, 0, 64, 95
1, 128788, Note_on_c, 0, 87, 66
1, 128847, Control_c, 0, 64, 94
1, 128861, Control_c, 0, 64, 88
1, 128863, Note_off_c, 0, 87, 59
1, 128876, Control_c, 0, 64, 74
1, 128891, Control_c, 0, 64, 61
1, 128892, Note_on_c, 0, 99, 69
1, 128906, Note_on_c, 0, 68, 65
1, 128907, Control_c, 0, 64, 55
1, 128908, Note_on_c, 0, 59, 51
1, 128922, Control_c, 0, 64, 57
1, 128937, Control_c, 0, 64, 62
1, 128938, Note_off_c, 0, 99, 56
1, 128944, Note_on_c, 0, 100, 68
1, 128951, Control_c, 0, 64, 66
1, 128966, Control_c, 0, 64, 71
1, 128981, Control_c, 0, 64, 79
1, 128996, Control_c, 0, 64, 88
1, 129000, Note_on_c, 0, 99, 56
1, 129003, Note_off_c, 0, 100, 63
1, 129011, Control_c, 0, 64, 94
1, 129025, Control_c, 0, 64, 96
1, 129029, Note_off_c, 0, 99, 63
1, 129045, Note_off_c, 0, 59, 33
1, 129047, Note_off_c, 0, 68, 33
1, 129054, Note_on_c, 0, 87, 69
1, 129094, Note_off_c, 0, 87, 58
1, 129099, Control_c, 0, 64, 96
1, 129142, Note_on_c, 0, 67, 69
1, 129181, Note_on_c, 0, 87, 37
1, 129209, Note_on_c, 0, 88, 63
1, 129210, Note_off_c, 0, 87, 54
1, 129262, Note_off_c, 0, 88, 57
1, 129281, Note_on_c, 0, 87, 62
1, 129300, Note_off_c, 0, 87, 64
1, 129336, Note_on_c, 0, 75, 68
1, 129340, Note_off_c, 0, 67, 60
1, 129358, Control_c, 0, 64, 96
1, 129362, Note_on_c, 0, 68, 65
1, 129373, Control_c, 0, 64, 95
1, 129378, Note_off_c, 0, 75, 55
1, 129387, Note_on_c, 0, 87, 64
1, 129388, Control_c, 0, 67, 127
1, 129403, Control_c, 0, 64, 94
1, 129403, Control_c, 0, 67, 126
1, 129418, Control_c, 0, 64, 94
1, 129420, Note_on_c, 0, 88, 59
1, 129433, Control_c, 0, 64, 93
1, 129437, Note_off_c, 0, 88, 66
1, 129443, Note_off_c, 0, 87, 59
1, 129448, Control_c, 0, 64, 93
1, 129463, Control_c, 0, 64, 92
1, 129468, Note_off_c, 0, 68, 33
1, 129492, Control_c, 0, 64, 92
1, 129519, Note_on_c, 0, 87, 58
1, 129522, Control_c, 0, 67, 126
1, 129586, Note_off_c, 0, 87, 55
1, 129596, Control_c, 0, 64, 84
1, 129607, Note_on_c, 0, 70, 76
1, 129611, Control_c, 0, 64, 71
1, 129618, Note_on_c, 0, 67, 49
1, 129618, Note_on_c, 0, 99, 67
1, 129626, Control_c, 0, 64, 58
1, 129626, Control_c, 0, 67, 126
1, 129640, Control_c, 0, 64, 49
1, 129653, Note_off_c, 0, 99, 59
1, 129655, Control_c, 0, 64, 50
1, 129670, Control_c, 0, 64, 57
1, 129671, Note_on_c, 0, 100, 61
1, 129684, Control_c, 0, 64, 62
1, 129699, Control_c, 0, 64, 67
1, 129715, Control_c, 0, 64, 72
1, 129715, Control_c, 0, 67, 127
1, 129730, Control_c, 0, 64, 80
1, 129735, Note_on_c, 0, 99, 55
1, 129735, Note_off_c, 0, 100, 63
1, 129745, Control_c, 0, 64, 88
1, 129745, Control_c, 0, 67, 127
1, 129756, Note_off_c, 0, 99, 62
1, 129760, Control_c, 0, 64, 91
1, 129789, Note_on_c, 0, 87, 64
1, 129817, Note_off_c, 0, 87, 63
1, 129836, Note_off_c, 0, 70, 35
1, 129844, Note_off_c, 0, 67, 38
1, 129856, Note_on_c, 0, 63, 60
1, 129911, Note_off_c, 0, 63, 59
1, 129932, Note_on_c, 0, 88, 59
1, 129976, Note_off_c, 0, 88, 56
1, 129981, Note_on_c, 0, 87, 44
1, 130019, Note_off_c, 0, 87, 63
1, 130056, Note_on_c, 0, 75, 62
1, 130087, Note_off_c, 0, 75, 61
1, 130096, Note_on_c, 0, 63, 66
1, 130107, Control_c, 0, 64, 91
1, 130112, Note_on_c, 0, 87, 65
1, 130129, Note_off_c, 0, 87, 67
1, 130151, Note_on_c, 0, 88, 38
1, 130174, Note_off_c, 0, 63, 47
1, 130178, Note_off_c, 0, 88, 55
1, 130218, Note_on_c, 0, 87, 57
1, 130285, Control_c, 0, 64, 90
1, 130290, Note_off_c, 0, 87, 49
1, 130300, Control_c, 0, 64, 88
1, 130315, Control_c, 0, 64, 78
1, 130330, Control_c, 0, 64, 66
1, 130331, Note_on_c, 0, 99, 50
1, 130345, Control_c, 0, 64, 54
1, 130347, Note_on_c, 0, 68, 64
1, 130348, Note_on_c, 0, 59, 58
1, 130357, Note_off_c, 0, 99, 60
1, 130360, Control_c, 0, 64, 50
1, 130375, Control_c, 0, 64, 54
1, 130377, Note_on_c, 0, 100, 62
1, 130389, Control_c, 0, 64, 60
1, 130404, Control_c, 0, 64, 65
1, 130419, Control_c, 0, 64, 70
1, 130433, Control_c, 0, 64, 77
1, 130436, Note_off_c, 0, 100, 63
1, 130440, Note_on_c, 0, 99, 63
1, 130448, Control_c, 0, 64, 84
1, 130460, Note_off_c, 0, 99, 64
1, 130463, Control_c, 0, 64, 88
1, 130471, Note_off_c, 0, 68, 50
1, 130478, Control_c, 0, 64, 89
1, 130487, Note_off_c, 0, 59, 36
1, 130488, Note_on_c, 0, 87, 65
1, 130527, Note_off_c, 0, 87, 60
1, 130568, Control_c, 0, 64, 88
1, 130583, Control_c, 0, 64, 81
1, 130592, Note_on_c, 0, 66, 65
1, 130598, Control_c, 0, 64, 70
1, 130603, Note_on_c, 0, 60, 49
1, 130612, Control_c, 0, 64, 58
1, 130634, Control_c, 0, 64, 56
1, 130647, Note_on_c, 0, 88, 56
1, 130649, Control_c, 0, 64, 61
1, 130664, Control_c, 0, 64, 66
1, 130670, Note_off_c, 0, 60, 51
1, 130679, Control_c, 0, 64, 71
1, 130694, Control_c, 0, 64, 78
1, 130698, Note_on_c, 0, 87, 44
1, 130700, Note_off_c, 0, 88, 60
1, 130709, Control_c, 0, 64, 85
1, 130711, Note_off_c, 0, 66, 61
1, 130723, Control_c, 0, 64, 88
1, 130741, Note_off_c, 0, 87, 63
1, 130776, Note_on_c, 0, 75, 61
1, 130798, Control_c, 0, 64, 85
1, 130812, Control_c, 0, 64, 76
1, 130816, Note_off_c, 0, 75, 59
1, 130827, Control_c, 0, 64, 62
1, 130833, Note_on_c, 0, 64, 63
1, 130841, Note_on_c, 0, 61, 56
1, 130842, Control_c, 0, 64, 53
1, 130845, Note_on_c, 0, 87, 57
1, 130856, Control_c, 0, 64, 54
1, 130862, Note_off_c, 0, 87, 65
1, 130868, Note_on_c, 0, 88, 58
1, 130871, Control_c, 0, 64, 60
1, 130886, Control_c, 0, 64, 65
1, 130887, Note_off_c, 0, 88, 64
1, 130901, Control_c, 0, 64, 69
1, 130916, Note_off_c, 0, 61, 47
1, 130916, Control_c, 0, 64, 74
1, 130930, Control_c, 0, 64, 81
1, 130945, Control_c, 0, 64, 84
1, 130954, Note_on_c, 0, 87, 54
1, 130960, Control_c, 0, 64, 84
1, 130980, Note_off_c, 0, 64, 33
1, 131034, Control_c, 0, 64, 82
1, 131046, Note_off_c, 0, 87, 54
1, 131049, Control_c, 0, 64, 73
1, 131063, Control_c, 0, 64, 62
1, 131072, Note_on_c, 0, 99, 55
1, 131078, Control_c, 0, 64, 47
1, 131086, Note_on_c, 0, 63, 68
1, 131093, Control_c, 0, 64, 46
1, 131108, Control_c, 0, 64, 55
1, 131121, Note_off_c, 0, 99, 53
1, 131123, Note_off_c, 0, 63, 60
1, 131123, Control_c, 0, 64, 65
1, 131126, Note_on_c, 0, 100, 66
1, 131138, Control_c, 0, 64, 72
1, 131153, Control_c, 0, 64, 81
1, 131168, Control_c, 0, 64, 89
1, 131182, Control_c, 0, 64, 92
1, 131190, Note_on_c, 0, 99, 58
1, 131200, Note_off_c, 0, 100, 58
1, 131248, Note_off_c, 0, 99, 58
1, 131256, Control_c, 0, 64, 91
1, 131260, Note_on_c, 0, 87, 58
1, 131271, Control_c, 0, 64, 86
1, 131283, Note_off_c, 0, 87, 60
1, 131286, Control_c, 0, 64, 73
1, 131302, Control_c, 0, 64, 58
1, 131317, Control_c, 0, 64, 29
1, 131325, Note_on_c, 0, 71, 52
1, 131326, Note_on_c, 0, 80, 63
1, 131332, Control_c, 0, 64, 0
1, 131346, Note_off_c, 0, 71, 59
1, 131351, Note_off_c, 0, 80, 63
1, 131455, Note_on_c, 0, 83, 69
1, 131477, Note_on_c, 0, 75, 39
1, 131487, Note_off_c, 0, 83, 57
1, 131504, Note_off_c, 0, 75, 56
1, 131576, Control_c, 0, 64, 38
1, 131589, Note_on_c, 0, 87, 68
1, 131591, Control_c, 0, 64, 60
1, 131599, Note_on_c, 0, 80, 55
1, 131606, Control_c, 0, 64, 68
1, 131618, Note_off_c, 0, 80, 63
1, 131621, Control_c, 0, 64, 74
1, 131626, Note_off_c, 0, 87, 63
1, 131635, Control_c, 0, 64, 81
1, 131650, Control_c, 0, 64, 86
1, 131665, Control_c, 0, 64, 90
1, 131679, Control_c, 0, 64, 93
1, 131694, Control_c, 0, 64, 94
1, 131709, Control_c, 0, 64, 95
1, 131739, Control_c, 0, 67, 127
1, 131827, Control_c, 0, 64, 93
1, 131842, Control_c, 0, 64, 82
1, 131853, Note_on_c, 0, 63, 50
1, 131854, Note_on_c, 0, 99, 63
1, 131857, Control_c, 0, 64, 68
1, 131872, Control_c, 0, 64, 54
1, 131883, Note_off_c, 0, 99, 61
1, 131886, Control_c, 0, 64, 50
1, 131896, Note_off_c, 0, 63, 59
1, 131898, Note_on_c, 0, 100, 62
1, 131901, Control_c, 0, 64, 56
1, 131916, Control_c, 0, 64, 64
1, 131931, Control_c, 0, 64, 69
1, 131946, Control_c, 0, 64, 76
1, 131961, Control_c, 0, 64, 82
1, 131975, Note_off_c, 0, 100, 60
1, 131975, Control_c, 0, 64, 85
1, 131975, Control_c, 0, 67, 127
1, 131979, Note_on_c, 0, 99, 68
1, 131990, Control_c, 0, 64, 84
1, 132005, Control_c, 0, 64, 80
1, 132020, Control_c, 0, 64, 71
1, 132021, Note_on_c, 0, 87, 56
1, 132035, Control_c, 0, 64, 61
1, 132041, Note_off_c, 0, 99, 52
1, 132050, Control_c, 0, 64, 49
1, 132060, Note_off_c, 0, 87, 57
1, 132065, Control_c, 0, 64, 45
1, 132079, Control_c, 0, 64, 44
1, 132094, Control_c, 0, 64, 43
1, 132099, Note_on_c, 0, 79, 62
1, 132110, Control_c, 0, 64, 41
1, 132118, Note_on_c, 0, 70, 31
1, 132132, Control_c, 0, 64, 40
1, 132136, Note_off_c, 0, 79, 63
1, 132147, Control_c, 0, 64, 39
1, 132157, Note_off_c, 0, 70, 43
1, 132162, Control_c, 0, 64, 38
1, 132191, Control_c, 0, 64, 37
1, 132206, Control_c, 0, 64, 37
1, 132221, Control_c, 0, 64, 36
1, 132242, Note_on_c, 0, 82, 71
1, 132248, Note_on_c, 0, 75, 53
1, 132251, Control_c, 0, 64, 36
1, 132273, Note_off_c, 0, 82, 60
1, 132295, Note_off_c, 0, 75, 55
1, 132295, Control_c, 0, 64, 35
1, 132309, Control_c, 0, 64, 35
1, 132324, Control_c, 0, 64, 34
1, 132339, Control_c, 0, 64, 34
1, 132354, Control_c, 0, 64, 33
1, 132384, Control_c, 0, 64, 33
1, 132434, Note_on_c, 0, 87, 58
1, 132446, Note_on_c, 0, 79, 48
1, 132473, Control_c, 0, 64, 33
1, 132488, Control_c, 0, 64, 42
1, 132502, Control_c, 0, 64, 55
1, 132517, Control_c, 0, 64, 64
1, 132527, Note_off_c, 0, 79, 59
1, 132532, Control_c, 0, 64, 68
1, 132539, Note_off_c, 0, 87, 57
1, 132547, Control_c, 0, 64, 73
1, 132562, Control_c, 0, 64, 78
1, 132576, Control_c, 0, 64, 82
1, 132591, Control_c, 0, 64, 86
1, 132606, Control_c, 0, 64, 88
1, 132621, Control_c, 0, 64, 90
1, 132635, Control_c, 0, 64, 90
1, 132754, Control_c, 0, 64, 88
1, 132769, Control_c, 0, 64, 83
1, 132781, Note_on_c, 0, 56, 37
1, 132783, Control_c, 0, 64, 75
1, 132798, Control_c, 0, 64, 65
1, 132813, Control_c, 0, 64, 55
1, 132828, Control_c, 0, 64, 51
1, 132858, Control_c, 0, 64, 53
1, 132880, Control_c, 0, 64, 57
1, 132895, Control_c, 0, 64, 61
1, 132911, Control_c, 0, 64, 64
1, 132926, Control_c, 0, 64, 67
1, 132940, Control_c, 0, 64, 70
1, 132955, Control_c, 0, 64, 74
1, 132970, Control_c, 0, 64, 78
1, 132985, Control_c, 0, 64, 81
1, 132988, Note_off_c, 0, 56, 51
1, 133000, Control_c, 0, 64, 83
1, 133014, Control_c, 0, 64, 84
1, 133028, Note_on_c, 0, 63, 37
1, 133029, Control_c, 0, 64, 85
1, 133044, Control_c, 0, 64, 87
1, 133058, Control_c, 0, 64, 88
1, 133073, Control_c, 0, 64, 89
1, 133088, Control_c, 0, 64, 90
1, 133103, Control_c, 0, 64, 92
1, 133110, Note_on_c, 0, 71, 52
1, 133118, Control_c, 0, 64, 93
1, 133132, Control_c, 0, 64, 94
1, 133139, Note_off_c, 0, 63, 32
1, 133147, Control_c, 0, 64, 95
1, 133162, Control_c, 0, 64, 95
1, 133177, Control_c, 0, 64, 96
1, 133192, Control_c, 0, 64, 97
1, 133201, Note_on_c, 0, 80, 55
1, 133207, Control_c, 0, 64, 97
1, 133212, Note_off_c, 0, 71, 30
1, 133282, Note_off_c, 0, 80, 50
1, 133370, Control_c, 0, 64, 96
1, 133385, Control_c, 0, 64, 95
1, 133399, Control_c, 0, 64, 94
1, 133414, Control_c, 0, 64, 93
1, 133429, Control_c, 0, 64, 91
1, 133444, Control_c, 0, 64, 91
1, 133567, Note_on_c, 0, 75, 62
1, 133577, Control_c, 0, 64, 90
1, 133592, Control_c, 0, 64, 88
1, 133606, Control_c, 0, 64, 81
1, 133629, Control_c, 0, 64, 71
1, 133644, Control_c, 0, 64, 65
1, 133658, Control_c, 0, 64, 64
1, 133663, Note_on_c, 0, 87, 53
1, 133663, Note_off_c, 0, 75, 59
1, 133688, Control_c, 0, 64, 65
1, 133704, Control_c, 0, 64, 67
1, 133712, Note_on_c, 0, 88, 61
1, 133719, Control_c, 0, 64, 69
1, 133725, Note_off_c, 0, 87, 55
1, 133734, Control_c, 0, 64, 73
1, 133749, Control_c, 0, 64, 78
1, 133763, Control_c, 0, 64, 83
1, 133778, Control_c, 0, 64, 84
1, 133788, Note_off_c, 0, 88, 61
1, 133793, Note_on_c, 0, 87, 55
1, 133813, Note_off_c, 0, 87, 64
1, 133880, Note_on_c, 0, 87, 79
1, 133881, Control_c, 0, 64, 83
1, 133896, Control_c, 0, 64, 77
1, 133911, Control_c, 0, 64, 68
1, 133926, Control_c, 0, 64, 64
1, 133955, Control_c, 0, 64, 65
1, 133958, Note_on_c, 0, 99, 60
1, 133965, Note_off_c, 0, 87, 58
1, 133970, Control_c, 0, 64, 67
1, 133985, Control_c, 0, 64, 71
1, 134000, Control_c, 0, 64, 75
1, 134008, Note_off_c, 0, 99, 62
1, 134015, Note_on_c, 0, 100, 69
1, 134015, Control_c, 0, 64, 80
1, 134029, Control_c, 0, 64, 84
1, 134044, Control_c, 0, 64, 85
1, 134080, Note_on_c, 0, 99, 68
1, 134096, Note_off_c, 0, 100, 59
1, 134104, Control_c, 0, 64, 86
1, 134132, Note_off_c, 0, 99, 58
1, 134147, Note_on_c, 0, 87, 78
1, 134211, Note_on_c, 0, 99, 67
1, 134217, Note_off_c, 0, 87, 60
1, 134260, Note_off_c, 0, 99, 62
1, 134267, Note_on_c, 0, 100, 72
1, 134332, Note_on_c, 0, 99, 67
1, 134340, Note_off_c, 0, 100, 65
1, 134383, Note_off_c, 0, 99, 57
1, 134415, Note_on_c, 0, 85, 80
1, 134476, Note_off_c, 0, 85, 60
1, 134478, Note_on_c, 0, 97, 78
1, 134497, Control_c, 0, 64, 85
1, 134544, Note_off_c, 0, 97, 63
1, 134545, Note_on_c, 0, 99, 75
1, 134616, Control_c, 0, 64, 85
1, 134619, Note_on_c, 0, 97, 68
1, 134630, Control_c, 0, 64, 84
1, 134645, Control_c, 0, 64, 81
1, 134657, Note_off_c, 0, 99, 62
1, 134660, Control_c, 0, 64, 73
1, 134675, Control_c, 0, 64, 64
1, 134677, Note_off_c, 0, 97, 56
1, 134690, Control_c, 0, 64, 57
1, 134702, Note_on_c, 0, 32, 52
1, 134704, Note_on_c, 0, 44, 57
1, 134704, Control_c, 0, 64, 57
1, 134709, Note_on_c, 0, 83, 90
1, 134719, Control_c, 0, 64, 61
1, 134734, Control_c, 0, 64, 64
1, 134745, Note_off_c, 0, 32, 62
1, 134749, Control_c, 0, 64, 67
1, 134764, Control_c, 0, 64, 71
1, 134768, Note_off_c, 0, 83, 58
1, 134775, Note_off_c, 0, 44, 60
1, 134778, Control_c, 0, 64, 77
1, 134793, Control_c, 0, 64, 82
1, 134808, Control_c, 0, 64, 86
1, 134808, Control_c, 0, 67, 127
1, 134822, Control_c, 0, 67, 126
1, 134830, Note_on_c, 0, 95, 68
1, 134837, Control_c, 0, 67, 126
1, 134867, Control_c, 0, 64, 86
1, 134882, Note_on_c, 0, 97, 55
1, 134882, Control_c, 0, 64, 87
1, 134897, Control_c, 0, 64, 88
1, 134912, Control_c, 0, 64, 88
1, 134927, Control_c, 0, 64, 89
1, 134941, Control_c, 0, 64, 89
1, 134956, Control_c, 0, 64, 90
1, 134959, Note_off_c, 0, 95, 60
1, 134969, Note_on_c, 0, 83, 92
1, 134976, Note_on_c, 0, 63, 67
1, 134986, Control_c, 0, 64, 91
1, 134989, Note_on_c, 0, 51, 39
1, 134992, Note_off_c, 0, 97, 40
1, 134995, Note_on_c, 0, 59, 42
1, 135001, Control_c, 0, 64, 91
1, 135008, Note_off_c, 0, 63, 59
1, 135016, Note_off_c, 0, 83, 60
1, 135021, Note_off_c, 0, 51, 53
1, 135045, Control_c, 0, 64, 92
1, 135057, Note_off_c, 0, 59, 38
1, 135075, Control_c, 0, 64, 92
1, 135090, Note_on_c, 0, 97, 56
1, 135104, Control_c, 0, 64, 93
1, 135108, Note_on_c, 0, 95, 25
1, 135125, Note_on_c, 0, 96, 32
1, 135126, Control_c, 0, 64, 93
1, 135141, Control_c, 0, 64, 94
1, 135156, Control_c, 0, 64, 94
1, 135162, Note_off_c, 0, 96, 52
1, 135183, Note_off_c, 0, 97, 61
1, 135186, Control_c, 0, 67, 126
1, 135195, Note_on_c, 0, 63, 49
1, 135198, Note_on_c, 0, 56, 70
1, 135198, Note_off_c, 0, 95, 39
1, 135201, Control_c, 0, 67, 127
1, 135207, Note_on_c, 0, 82, 92
1, 135216, Note_off_c, 0, 63, 61
1, 135216, Control_c, 0, 67, 127
1, 135226, Note_off_c, 0, 56, 65
1, 135272, Note_off_c, 0, 82, 54
1, 135275, Control_c, 0, 64, 94
1, 135290, Control_c, 0, 64, 93
1, 135291, Note_on_c, 0, 94, 44
1, 135319, Note_off_c, 0, 94, 59
1, 135320, Control_c, 0, 64, 93
1, 135327, Note_on_c, 0, 95, 66
1, 135382, Poly_aftertouch_c, 0, 93, 127
1, 135394, Control_c, 0, 64, 92
1, 135408, Poly_aftertouch_c, 0, 93, 0
1, 135409, Control_c, 0, 64, 91
1, 135420, Note_off_c, 0, 95, 59
1, 135424, Control_c, 0, 64, 83
1, 135439, Control_c, 0, 64, 70
1, 135443, Note_on_c, 0, 35, 59
1, 135445, Note_on_c, 0, 47, 65
1, 135453, Control_c, 0, 64, 59
1, 135454, Note_on_c, 0, 80, 82
1, 135468, Control_c, 0, 64, 58
1, 135472, Note_off_c, 0, 35, 63
1, 135483, Control_c, 0, 64, 61
1, 135492, Note_off_c, 0, 47, 57
1, 135498, Control_c, 0, 64, 65
1, 135509, Note_off_c, 0, 80, 60
1, 135513, Control_c, 0, 64, 69
1, 135521, Note_on_c, 0, 92, 71
1, 135527, Control_c, 0, 64, 76
1, 135542, Control_c, 0, 64, 83
1, 135557, Control_c, 0, 64, 90
1, 135566, Note_on_c, 0, 94, 71
1, 135571, Note_off_c, 0, 92, 61
1, 135572, Control_c, 0, 64, 93
1, 135587, Control_c, 0, 64, 93
1, 135645, Control_c, 0, 64, 94
1, 135648, Note_on_c, 0, 92, 49
1, 135660, Control_c, 0, 64, 94
1, 135667, Note_off_c, 0, 94, 63
1, 135689, Note_on_c, 0, 79, 85
1, 135690, Note_on_c, 0, 63, 72
1, 135693, Note_off_c, 0, 92, 49
1, 135704, Note_on_c, 0, 51, 48
1, 135716, Note_on_c, 0, 59, 37
1, 135716, Note_off_c, 0, 63, 65
1, 135732, Note_off_c, 0, 51, 55
1, 135734, Note_off_c, 0, 79, 64
1, 135749, Control_c, 0, 67, 127
1, 135770, Note_off_c, 0, 59, 41
1, 135775, Note_on_c, 0, 91, 68
1, 135780, Control_c, 0, 64, 95
1, 135821, Note_on_c, 0, 92, 37
1, 135886, Note_off_c, 0, 91, 61
1, 135906, Control_c, 0, 67, 127
1, 135910, Note_on_c, 0, 80, 83
1, 135913, Note_off_c, 0, 92, 38
1, 135916, Note_on_c, 0, 56, 69
1, 135921, Note_on_c, 0, 63, 45
1, 135943, Note_off_c, 0, 63, 60
1, 135946, Note_off_c, 0, 56, 64
1, 135950, Control_c, 0, 64, 94
1, 135965, Control_c, 0, 64, 94
1, 135967, Note_off_c, 0, 80, 61
1, 135979, Control_c, 0, 64, 93
1, 135991, Note_on_c, 0, 92, 57
1, 136021, Note_off_c, 0, 92, 67
1, 136024, Control_c, 0, 64, 93
1, 136032, Note_on_c, 0, 94, 68
1, 136110, Note_on_c, 0, 92, 66
1, 136114, Control_c, 0, 64, 91
1, 136128, Note_off_c, 0, 94, 53
1, 136129, Control_c, 0, 64, 84
1, 136138, Note_off_c, 0, 92, 67
1, 136144, Control_c, 0, 64, 71
1, 136156, Note_on_c, 0, 51, 66
1, 136158, Note_on_c, 0, 82, 82
1, 136158, Control_c, 0, 64, 60
1, 136163, Note_on_c, 0, 39, 45
1, 136173, Control_c, 0, 64, 59
1, 136188, Control_c, 0, 64, 62
1, 136190, Note_off_c, 0, 51, 64
1, 136193, Note_off_c, 0, 39, 59
1, 136203, Control_c, 0, 64, 66
1, 136218, Control_c, 0, 64, 69
1, 136223, Note_off_c, 0, 82, 62
1, 136232, Note_on_c, 0, 94, 61
1, 136232, Control_c, 0, 64, 76
1, 136247, Control_c, 0, 64, 83
1, 136259, Note_off_c, 0, 94, 65
1, 136262, Control_c, 0, 64, 90
1, 136265, Note_on_c, 0, 95, 71
1, 136277, Control_c, 0, 64, 93
1, 136323, Note_on_c, 0, 94, 69
1, 136327, Note_off_c, 0, 95, 60
1, 136336, Control_c, 0, 64, 93
1, 136351, Control_c, 0, 64, 94
1, 136351, Control_c, 0, 67, 127
1, 136356, Note_off_c, 0, 94, 61
1, 136420, Note_on_c, 0, 67, 65
1, 136425, Note_on_c, 0, 75, 82
1, 136426, Note_on_c, 0, 55, 51
1, 136426, Note_on_c, 0, 63, 48
1, 136464, Note_off_c, 0, 55, 47
1, 136476, Note_on_c, 0, 87, 66
1, 136479, Note_off_c, 0, 67, 46
1, 136486, Note_off_c, 0, 75, 64
1, 136525, Note_off_c, 0, 63, 33
1, 136533, Note_off_c, 0, 87, 62
1, 136537, Note_on_c, 0, 88, 64
1, 136573, Control_c, 0, 67, 127
1, 136608, Note_on_c, 0, 87, 51
1, 136638, Note_on_c, 0, 67, 50
1, 136638, Note_off_c, 0, 87, 62
1, 136638, Note_off_c, 0, 88, 55
1, 136646, Note_on_c, 0, 58, 61
1, 136658, Note_off_c, 0, 67, 57
1, 136662, Note_on_c, 0, 75, 82
1, 136682, Note_off_c, 0, 58, 61
1, 136706, Poly_aftertouch_c, 0, 63, 127
1, 136718, Note_off_c, 0, 75, 62
1, 136721, Note_on_c, 0, 87, 71
1, 136742, Poly_aftertouch_c, 0, 63, 0
1, 136766, Note_on_c, 0, 88, 69
1, 136778, Note_off_c, 0, 87, 61
1, 136832, Control_c, 0, 64, 93
1, 136847, Control_c, 0, 64, 86
1, 136855, Note_on_c, 0, 87, 54
1, 136862, Control_c, 0, 64, 74
1, 136876, Control_c, 0, 64, 63
1, 136882, Note_on_c, 0, 43, 55
1, 136882, Note_off_c, 0, 88, 60
1, 136885, Note_on_c, 0, 55, 62
1, 136891, Control_c, 0, 64, 60
1, 136893, Note_on_c, 0, 76, 86
1, 136907, Control_c, 0, 64, 62
1, 136908, Note_off_c, 0, 87, 51
1, 136911, Note_off_c, 0, 43, 59
1, 136922, Control_c, 0, 64, 65
1, 136924, Note_off_c, 0, 55, 59
1, 136937, Control_c, 0, 64, 68
1, 136944, Note_off_c, 0, 76, 63
1, 136952, Control_c, 0, 64, 74
1, 136967, Control_c, 0, 64, 80
1, 136981, Control_c, 0, 64, 87
1, 136996, Control_c, 0, 64, 90
1, 137004, Note_on_c, 0, 88, 52
1, 137010, Note_on_c, 0, 90, 67
1, 137090, Note_off_c, 0, 88, 57
1, 137097, Note_off_c, 0, 90, 64
1, 137121, Note_on_c, 0, 75, 82
1, 137122, Note_on_c, 0, 70, 73
1, 137126, Note_on_c, 0, 63, 56
1, 137168, Note_off_c, 0, 70, 55
1, 137184, Note_off_c, 0, 75, 63
1, 137186, Note_off_c, 0, 63, 50
1, 137189, Poly_aftertouch_c, 0, 61, 127
1, 137196, Note_on_c, 0, 87, 66
1, 137204, Control_c, 0, 67, 127
1, 137223, Poly_aftertouch_c, 0, 61, 0
1, 137233, Control_c, 0, 67, 126
1, 137249, Note_on_c, 0, 88, 60
1, 137293, Note_off_c, 0, 87, 58
1, 137302, Note_off_c, 0, 88, 60
1, 137323, Note_on_c, 0, 70, 58
1, 137332, Note_on_c, 0, 61, 57
1, 137333, Note_on_c, 0, 63, 56
1, 137336, Control_c, 0, 67, 127
1, 137343, Note_off_c, 0, 70, 64
1, 137350, Note_on_c, 0, 73, 82
1, 137378, Note_off_c, 0, 61, 63
1, 137383, Note_off_c, 0, 63, 57
1, 137388, Control_c, 0, 67, 127
1, 137414, Note_on_c, 0, 85, 67
1, 137417, Note_off_c, 0, 73, 63
1, 137447, Control_c, 0, 64, 90
1, 137473, Note_off_c, 0, 85, 63
1, 137475, Note_on_c, 0, 87, 72
1, 137536, Control_c, 0, 64, 89
1, 137550, Control_c, 0, 64, 85
1, 137565, Control_c, 0, 64, 73
1, 137568, Note_off_c, 0, 87, 62
1, 137580, Control_c, 0, 64, 62
1, 137586, Note_on_c, 0, 44, 55
1, 137591, Note_on_c, 0, 56, 65
1, 137595, Control_c, 0, 64, 57
1, 137603, Note_on_c, 0, 71, 84
1, 137610, Control_c, 0, 64, 59
1, 137624, Note_off_c, 0, 44, 63
1, 137624, Control_c, 0, 64, 64
1, 137639, Control_c, 0, 64, 67
1, 137645, Note_off_c, 0, 56, 60
1, 137654, Control_c, 0, 64, 71
1, 137658, Note_off_c, 0, 71, 60
1, 137669, Control_c, 0, 64, 79
1, 137684, Control_c, 0, 64, 86
1, 137700, Control_c, 0, 64, 90
1, 137715, Control_c, 0, 64, 91
1, 137738, Note_on_c, 0, 83, 52
1, 137757, Note_on_c, 0, 85, 50
1, 137774, Control_c, 0, 64, 92
1, 137789, Control_c, 0, 64, 93
1, 137819, Note_off_c, 0, 85, 61
1, 137821, Note_off_c, 0, 83, 58
1, 137830, Note_on_c, 0, 68, 72
1, 137833, Note_on_c, 0, 71, 86
1, 137848, Note_on_c, 0, 63, 52
1, 137863, Note_off_c, 0, 68, 56
1, 137865, Note_on_c, 0, 59, 39
1, 137878, Note_off_c, 0, 71, 56
1, 137893, Control_c, 0, 64, 93
1, 137902, Note_off_c, 0, 59, 49
1, 137933, Note_off_c, 0, 63, 33
1, 137946, Note_on_c, 0, 85, 64
1, 137952, Control_c, 0, 67, 127
1, 137967, Control_c, 0, 64, 94
1, 138020, Note_off_c, 0, 85, 62
1, 138026, Control_c, 0, 67, 127
1, 138035, Note_on_c, 0, 59, 68
1, 138049, Note_on_c, 0, 70, 87
1, 138063, Note_on_c, 0, 63, 30
1, 138065, Note_off_c, 0, 59, 64
1, 138099, Note_off_c, 0, 63, 52
1, 138113, Note_off_c, 0, 70, 60
1, 138115, Control_c, 0, 64, 93
1, 138135, Note_on_c, 0, 82, 73
1, 138152, Control_c, 0, 64, 93
1, 138167, Control_c, 0, 64, 92
1, 138180, Note_on_c, 0, 83, 63
1, 138211, Control_c, 0, 64, 92
1, 138226, Control_c, 0, 64, 90
1, 138240, Note_off_c, 0, 82, 56
1, 138241, Control_c, 0, 64, 86
1, 138246, Note_off_c, 0, 83, 55
1, 138255, Control_c, 0, 64, 76
1, 138270, Control_c, 0, 64, 63
1, 138285, Control_c, 0, 64, 49
1, 138286, Note_on_c, 0, 40, 63
1, 138289, Note_on_c, 0, 68, 77
1, 138315, Control_c, 0, 64, 56
1, 138326, Note_off_c, 0, 40, 60
1, 138329, Control_c, 0, 64, 63
1, 138338, Note_off_c, 0, 68, 58
1, 138344, Control_c, 0, 64, 67
1, 138349, Note_on_c, 0, 80, 61
1, 138359, Control_c, 0, 64, 72
1, 138373, Control_c, 0, 64, 81
1, 138388, Control_c, 0, 64, 88
1, 138402, Note_off_c, 0, 80, 61
1, 138403, Control_c, 0, 64, 91
1, 138408, Note_on_c, 0, 82, 70
1, 138462, Control_c, 0, 64, 92
1, 138477, Control_c, 0, 64, 94
1, 138477, Control_c, 0, 67, 127
1, 138493, Control_c, 0, 64, 95
1, 138497, Note_off_c, 0, 82, 62
1, 138498, Note_on_c, 0, 80, 29
1, 138518, Note_on_c, 0, 67, 79
1, 138520, Note_on_c, 0, 58, 63
1, 138523, Control_c, 0, 64, 95
1, 138524, Note_on_c, 0, 62, 61
1, 138533, Note_off_c, 0, 80, 52
1, 138557, Note_off_c, 0, 58, 46
1, 138569, Note_off_c, 0, 67, 52
1, 138596, Note_off_c, 0, 62, 36
1, 138596, Control_c, 0, 64, 96
1, 138611, Control_c, 0, 64, 96
1, 138622, Note_on_c, 0, 79, 54
1, 138626, Control_c, 0, 67, 126
1, 138629, Note_on_c, 0, 80, 46
1, 138697, Note_off_c, 0, 79, 59
1, 138700, Control_c, 0, 67, 127
1, 138711, Note_on_c, 0, 58, 67
1, 138715, Control_c, 0, 67, 127
1, 138724, Note_on_c, 0, 68, 84
1, 138730, Note_on_c, 0, 62, 41
1, 138733, Note_off_c, 0, 80, 40
1, 138759, Note_off_c, 0, 58, 57
1, 138763, Note_off_c, 0, 62, 50
1, 138781, Note_off_c, 0, 68, 59
1, 138816, Note_on_c, 0, 80, 55
1, 138819, Control_c, 0, 64, 96
1, 138843, Note_off_c, 0, 80, 63
1, 138849, Note_on_c, 0, 82, 67
1, 138900, Control_c, 0, 64, 95
1, 138930, Control_c, 0, 64, 94
1, 138940, Note_on_c, 0, 80, 53
1, 138945, Control_c, 0, 64, 88
1, 138957, Note_on_c, 0, 39, 67
1, 138960, Control_c, 0, 64, 75
1, 138960, Note_off_c, 0, 80, 60
1, 138971, Note_off_c, 0, 82, 37
1, 138975, Control_c, 0, 64, 61
1, 138981, Note_on_c, 0, 70, 76
1, 138989, Control_c, 0, 64, 53
1, 138997, Note_off_c, 0, 39, 62
1, 139004, Control_c, 0, 64, 58
1, 139019, Control_c, 0, 64, 64
1, 139034, Control_c, 0, 64, 69
1, 139045, Note_off_c, 0, 70, 60
1, 139049, Control_c, 0, 64, 76
1, 139060, Note_on_c, 0, 82, 46
1, 139064, Control_c, 0, 64, 86
1, 139078, Control_c, 0, 64, 94
1, 139082, Note_off_c, 0, 82, 59
1, 139087, Note_on_c, 0, 83, 64
1, 139093, Control_c, 0, 64, 98
1, 139139, Note_off_c, 0, 83, 61
1, 139152, Control_c, 0, 64, 99
1, 139169, Note_on_c, 0, 82, 38
1, 139197, Note_off_c, 0, 82, 54
1, 139218, Note_on_c, 0, 58, 66
1, 139224, Note_on_c, 0, 55, 54
1, 139244, Note_on_c, 0, 63, 82
1, 139247, Note_off_c, 0, 55, 61
1, 139252, Note_off_c, 0, 58, 61
1, 139305, Note_off_c, 0, 63, 62
1, 139309, Note_on_c, 0, 75, 67
1, 139362, Note_on_c, 0, 76, 63
1, 139363, Note_off_c, 0, 75, 55
1, 139416, Note_on_c, 0, 75, 52
1, 139434, Note_off_c, 0, 76, 62
1, 139443, Note_off_c, 0, 75, 66
1, 139464, Control_c, 0, 64, 99
1, 139479, Control_c, 0, 64, 100
1, 139490, Note_on_c, 0, 68, 40
1, 139490, Note_on_c, 0, 70, 75
1, 139493, Control_c, 0, 64, 102
1, 139509, Control_c, 0, 64, 106
1, 139514, Note_on_c, 0, 75, 80
1, 139517, Note_off_c, 0, 68, 54
1, 139524, Control_c, 0, 64, 111
1, 139527, Note_on_c, 0, 67, 45
1, 139538, Control_c, 0, 64, 116
1, 139539, Note_off_c, 0, 70, 54
1, 139550, Note_off_c, 0, 67, 56
1, 139553, Control_c, 0, 64, 117
1, 139569, Note_on_c, 0, 87, 72
1, 139583, Control_c, 0, 64, 117
1, 139595, Note_off_c, 0, 75, 61
1, 139598, Control_c, 0, 64, 118
1, 139620, Control_c, 0, 64, 121
1, 139654, Note_on_c, 0, 88, 57
1, 139680, Control_c, 0, 67, 127
1, 139694, Control_c, 0, 67, 126
1, 139718, Note_off_c, 0, 88, 63
1, 139744, Note_off_c, 0, 87, 62
1, 139768, Control_c, 0, 64, 117
1, 139783, Control_c, 0, 64, 105
1, 139783, Control_c, 0, 67, 127
1, 139798, Control_c, 0, 64, 91
1, 139798, Control_c, 0, 67, 127
1, 139813, Control_c, 0, 64, 73
1, 139824, Note_on_c, 0, 82, 59
1, 139824, Note_on_c, 0, 87, 80
1, 139827, Control_c, 0, 64, 62
1, 139842, Control_c, 0, 64, 57
1, 139845, Note_off_c, 0, 82, 39
1, 139857, Control_c, 0, 64, 59
1, 139872, Control_c, 0, 64, 64
1, 139887, Control_c, 0, 64, 68
1, 139887, Control_c, 0, 67, 127
1, 139902, Control_c, 0, 64, 70
1, 139920, Note_on_c, 0, 99, 42
1, 139931, Control_c, 0, 64, 69
1, 139944, Note_off_c, 0, 87, 56
1, 139946, Control_c, 0, 64, 68
1, 139961, Control_c, 0, 64, 69
1, 139974, Note_off_c, 0, 99, 43
1, 139976, Control_c, 0, 64, 70
1, 139991, Control_c, 0, 64, 72
1, 139991, Control_c, 0, 67, 126
1, 140006, Control_c, 0, 64, 74
1, 140020, Control_c, 0, 64, 75
1, 140020, Control_c, 0, 67, 126
1, 140024, Note_on_c, 0, 79, 53
1, 140038, Note_on_c, 0, 82, 69
1, 140042, Note_on_c, 0, 87, 80
1, 140050, Control_c, 0, 64, 77
1, 140050, Control_c, 0, 67, 125
1, 140065, Control_c, 0, 64, 83
1, 140080, Control_c, 0, 64, 92
1, 140080, Control_c, 0, 67, 125
1, 140095, Control_c, 0, 64, 103
1, 140095, Control_c, 0, 67, 124
1, 140110, Control_c, 0, 64, 111
1, 140137, Note_on_c, 0, 99, 66
1, 140152, Note_off_c, 0, 87, 60
1, 140196, Note_on_c, 0, 100, 70
1, 140197, Note_off_c, 0, 79, 37
1, 140198, Note_off_c, 0, 99, 60
1, 140200, Note_off_c, 0, 82, 37
1, 140214, Control_c, 0, 64, 112
1, 140229, Control_c, 0, 64, 113
1, 140243, Control_c, 0, 64, 114
1, 140243, Control_c, 0, 67, 125
1, 140258, Control_c, 0, 64, 115
1, 140273, Control_c, 0, 64, 117
1, 140273, Control_c, 0, 67, 125
1, 140276, Note_on_c, 0, 99, 62
1, 140288, Control_c, 0, 64, 118
1, 140288, Control_c, 0, 67, 126
1, 140303, Control_c, 0, 64, 119
1, 140316, Note_off_c, 0, 100, 38
1, 140317, Control_c, 0, 67, 127
1, 140332, Control_c, 0, 67, 127
1, 140339, Note_on_c, 0, 87, 71
1, 140343, Note_off_c, 0, 99, 53
1, 140416, Note_off_c, 0, 87, 61
1, 140420, Note_on_c, 0, 99, 44
1, 140468, Note_on_c, 0, 100, 66
1, 140478, Note_off_c, 0, 99, 57
1, 140562, Note_on_c, 0, 99, 54
1, 140566, Note_off_c, 0, 100, 54
1, 140600, Note_off_c, 0, 99, 58
1, 140641, Note_on_c, 0, 85, 63
1, 140695, Control_c, 0, 64, 118
1, 140710, Control_c, 0, 64, 117
1, 140724, Control_c, 0, 64, 115
1, 140739, Control_c, 0, 64, 113
1, 140742, Note_on_c, 0, 97, 59
1, 140753, Note_off_c, 0, 85, 36
1, 140754, Control_c, 0, 64, 111
1, 140769, Control_c, 0, 64, 110
1, 140784, Control_c, 0, 64, 108
1, 140799, Control_c, 0, 64, 106
1, 140814, Control_c, 0, 64, 103
1, 140817, Note_off_c, 0, 97, 60
1, 140829, Control_c, 0, 64, 101
1, 140830, Note_on_c, 0, 99, 63
1, 140843, Control_c, 0, 64, 99
1, 140858, Control_c, 0, 64, 97
1, 140873, Control_c, 0, 64, 96
1, 140888, Control_c, 0, 64, 96
1, 140903, Control_c, 0, 64, 95
1, 140933, Control_c, 0, 64, 95
1, 140941, Note_on_c, 0, 97, 49
1, 140963, Control_c, 0, 64, 94
1, 140992, Control_c, 0, 64, 93
1, 140999, Note_off_c, 0, 99, 47
1, 141006, Control_c, 0, 64, 92
1, 141021, Control_c, 0, 64, 90
1, 141036, Control_c, 0, 64, 85
1, 141047, Note_off_c, 0, 97, 55
1, 141051, Control_c, 0, 64, 77
1, 141063, Note_on_c, 0, 44, 38
1, 141065, Control_c, 0, 64, 67
1, 141074, Note_on_c, 0, 84, 48
1, 141080, Control_c, 0, 64, 58
1, 141095, Control_c, 0, 64, 53
1, 141118, Control_c, 0, 64, 53
1, 141133, Control_c, 0, 64, 56
1, 141147, Control_c, 0, 64, 62
1, 141162, Control_c, 0, 64, 65
1, 141177, Control_c, 0, 64, 69
1, 141191, Control_c, 0, 64, 75
1, 141206, Note_off_c, 0, 44, 58
1, 141206, Control_c, 0, 64, 82
1, 141221, Control_c, 0, 64, 89
1, 141225, Note_off_c, 0, 84, 46
1, 141236, Control_c, 0, 64, 91
1, 141251, Control_c, 0, 64, 92
1, 141269, Note_on_c, 0, 96, 53
1, 141280, Control_c, 0, 64, 93
1, 141295, Control_c, 0, 64, 94
1, 141310, Control_c, 0, 64, 95
1, 141311, Note_on_c, 0, 97, 58
1, 141312, Note_off_c, 0, 96, 56
1, 141324, Control_c, 0, 64, 97
1, 141339, Control_c, 0, 64, 97
1, 141354, Control_c, 0, 64, 98
1, 141369, Control_c, 0, 64, 98
1, 141413, Note_on_c, 0, 96, 67
1, 141413, Control_c, 0, 64, 99
1, 141428, Control_c, 0, 64, 100
1, 141440, Note_off_c, 0, 97, 38
1, 141443, Control_c, 0, 64, 101
1, 141458, Control_c, 0, 64, 102
1, 141472, Note_on_c, 0, 57, 43
1, 141473, Note_on_c, 0, 84, 64
1, 141487, Control_c, 0, 64, 102
1, 141490, Note_off_c, 0, 96, 42
1, 141490, Note_on_c, 0, 63, 38
1, 141499, Note_on_c, 0, 66, 34
1, 141502, Control_c, 0, 64, 103
1, 141512, Note_off_c, 0, 84, 45
1, 141523, Note_off_c, 0, 57, 42
1, 141532, Control_c, 0, 64, 103
1, 141533, Note_off_c, 0, 66, 51
1, 141547, Control_c, 0, 64, 104
1, 141559, Note_on_c, 0, 96, 57
1, 141562, Control_c, 0, 64, 104
1, 141566, Note_off_c, 0, 63, 34
1, 141572, Note_on_c, 0, 97, 62
1, 141577, Control_c, 0, 64, 105
1, 141606, Control_c, 0, 64, 105
1, 141621, Control_c, 0, 64, 106
1, 141622, Note_off_c, 0, 96, 56
1, 141639, Note_off_c, 0, 97, 54
1, 141651, Control_c, 0, 64, 106
1, 141681, Note_on_c, 0, 60, 57
1, 141681, Note_on_c, 0, 66, 41
1, 141681, Note_on_c, 0, 81, 70
1, 141683, Note_on_c, 0, 63, 24
1, 141709, Note_off_c, 0, 66, 57
1, 141718, Note_off_c, 0, 81, 57
1, 141724, Note_off_c, 0, 63, 51
1, 141729, Note_off_c, 0, 60, 55
1, 141750, Note_on_c, 0, 93, 58
1, 141789, Note_on_c, 0, 95, 68
1, 141793, Note_off_c, 0, 93, 53
1, 141799, Control_c, 0, 64, 106
1, 141813, Control_c, 0, 64, 105
1, 141828, Control_c, 0, 64, 104
1, 141843, Control_c, 0, 64, 103
1, 141866, Control_c, 0, 64, 102
1, 141872, Note_on_c, 0, 93, 56
1, 141873, Note_off_c, 0, 95, 56
1, 141881, Control_c, 0, 64, 101
1, 141895, Control_c, 0, 64, 96
1, 141910, Control_c, 0, 64, 85
1, 141917, Note_off_c, 0, 93, 58
1, 141925, Control_c, 0, 64, 69
1, 141939, Control_c, 0, 64, 58
1, 141947, Note_on_c, 0, 48, 45
1, 141950, Note_on_c, 0, 80, 69
1, 141954, Control_c, 0, 64, 55
1, 141969, Control_c, 0, 64, 59
1, 141984, Control_c, 0, 64, 64
1, 141999, Note_off_c, 0, 48, 59
1, 141999, Control_c, 0, 64, 68
1, 142009, Note_off_c, 0, 80, 56
1, 142013, Control_c, 0, 64, 72
1, 142021, Note_on_c, 0, 92, 67
1, 142028, Control_c, 0, 64, 79
1, 142043, Control_c, 0, 64, 87
1, 142058, Control_c, 0, 64, 92
1, 142072, Note_off_c, 0, 92, 63
1, 142073, Control_c, 0, 64, 92
1, 142078, Note_on_c, 0, 93, 58
1, 142117, Control_c, 0, 64, 93
1, 142132, Control_c, 0, 64, 94
1, 142145, Note_on_c, 0, 92, 50
1, 142146, Control_c, 0, 64, 95
1, 142158, Note_off_c, 0, 93, 52
1, 142161, Control_c, 0, 64, 96
1, 142176, Control_c, 0, 64, 96
1, 142179, Note_off_c, 0, 92, 62
1, 142191, Control_c, 0, 64, 97
1, 142197, Note_on_c, 0, 80, 70
1, 142206, Note_on_c, 0, 66, 53
1, 142207, Note_on_c, 0, 63, 45
1, 142221, Control_c, 0, 64, 97
1, 142236, Note_off_c, 0, 66, 51
1, 142236, Control_c, 0, 64, 98
1, 142239, Note_on_c, 0, 57, 21
1, 142252, Note_off_c, 0, 80, 57
1, 142271, Note_on_c, 0, 92, 58
1, 142280, Note_off_c, 0, 57, 50
1, 142304, Note_off_c, 0, 92, 64
1, 142310, Note_on_c, 0, 93, 61
1, 142385, Note_off_c, 0, 93, 55
1, 142390, Note_on_c, 0, 92, 61
1, 142394, Note_off_c, 0, 63, 0
1, 142418, Note_off_c, 0, 92, 66
1, 142431, Poly_aftertouch_c, 0, 63, 127
1, 142444, Note_on_c, 0, 60, 48
1, 142453, Note_on_c, 0, 66, 14
1, 142464, Note_on_c, 0, 78, 71
1, 142482, Note_off_c, 0, 60, 57
1, 142482, Poly_aftertouch_c, 0, 63, 0
1, 142499, Note_off_c, 0, 66, 39
1, 142504, Control_c, 0, 64, 97
1, 142519, Control_c, 0, 64, 97
1, 142534, Control_c, 0, 64, 96
1, 142544, Note_on_c, 0, 90, 62
1, 142549, Control_c, 0, 64, 95
1, 142554, Note_off_c, 0, 78, 34
1, 142578, Control_c, 0, 64, 95
1, 142599, Note_off_c, 0, 90, 61
1, 142614, Note_on_c, 0, 92, 66
1, 142615, Control_c, 0, 64, 94
1, 142644, Control_c, 0, 64, 94
1, 142659, Control_c, 0, 64, 93
1, 142700, Note_on_c, 0, 90, 62
1, 142735, Note_off_c, 0, 92, 49
1, 142763, Control_c, 0, 64, 93
1, 142766, Note_off_c, 0, 90, 55
1, 142778, Control_c, 0, 64, 90
1, 142790, Note_on_c, 0, 49, 50
1, 142793, Control_c, 0, 64, 81
1, 142806, Note_on_c, 0, 76, 65
1, 142808, Control_c, 0, 64, 69
1, 142823, Control_c, 0, 64, 60
1, 142837, Control_c, 0, 64, 58
1, 142852, Control_c, 0, 64, 60
1, 142862, Note_off_c, 0, 49, 56
1, 142867, Control_c, 0, 64, 64
1, 142877, Note_off_c, 0, 76, 52
1, 142882, Control_c, 0, 64, 68
1, 142896, Control_c, 0, 64, 72
1, 142911, Control_c, 0, 64, 79
1, 142926, Control_c, 0, 64, 87
1, 142929, Note_on_c, 0, 88, 62
1, 142941, Control_c, 0, 64, 92
1, 142956, Control_c, 0, 64, 93
1, 142970, Note_on_c, 0, 90, 54
1, 142999, Note_off_c, 0, 88, 54
1, 143000, Note_off_c, 0, 90, 66
1, 143054, Note_on_c, 0, 69, 59
1, 143059, Note_on_c, 0, 73, 75
1, 143063, Note_on_c, 0, 64, 46
1, 143120, Note_off_c, 0, 73, 62
1, 143123, Note_on_c, 0, 85, 60
1, 143124, Note_off_c, 0, 64, 51
1, 143133, Note_off_c, 0, 69, 37
1, 143148, Control_c, 0, 64, 92
1, 143171, Note_off_c, 0, 85, 63
1, 143182, Note_on_c, 0, 87, 68
1, 143222, Control_c, 0, 64, 92
1, 143237, Control_c, 0, 64, 89
1, 143246, Note_on_c, 0, 85, 50
1, 143251, Control_c, 0, 64, 82
1, 143266, Control_c, 0, 64, 70
1, 143269, Note_off_c, 0, 85, 63
1, 143269, Note_off_c, 0, 87, 57
1, 143280, Note_on_c, 0, 60, 56
1, 143282, Control_c, 0, 64, 58
1, 143284, Note_on_c, 0, 69, 53
1, 143287, Note_on_c, 0, 75, 78
1, 143297, Control_c, 0, 64, 57
1, 143312, Control_c, 0, 64, 61
1, 143327, Control_c, 0, 64, 65
1, 143341, Control_c, 0, 64, 70
1, 143344, Note_off_c, 0, 75, 62
1, 143363, Control_c, 0, 64, 76
1, 143373, Note_on_c, 0, 87, 70
1, 143378, Control_c, 0, 64, 85
1, 143392, Control_c, 0, 64, 91
1, 143398, Note_on_c, 0, 88, 73
1, 143398, Note_off_c, 0, 69, 35
1, 143406, Note_off_c, 0, 87, 55
1, 143407, Control_c, 0, 64, 93
1, 143412, Note_off_c, 0, 60, 34
1, 143476, Note_on_c, 0, 87, 72
1, 143482, Control_c, 0, 64, 89
1, 143497, Control_c, 0, 64, 79
1, 143507, Note_on_c, 0, 69, 65
1, 143509, Note_on_c, 0, 61, 57
1, 143510, Note_off_c, 0, 88, 60
1, 143511, Control_c, 0, 64, 67
1, 143523, Note_on_c, 0, 76, 77
1, 143526, Control_c, 0, 64, 59
1, 143534, Note_off_c, 0, 87, 58
1, 143541, Control_c, 0, 64, 60
1, 143556, Control_c, 0, 64, 64
1, 143560, Note_on_c, 0, 77, 30
1, 143561, Note_off_c, 0, 77, 127
1, 143567, Note_off_c, 0, 76, 62
1, 143569, Note_off_c, 0, 61, 51
1, 143571, Control_c, 0, 64, 68
1, 143585, Control_c, 0, 64, 74
1, 143600, Control_c, 0, 64, 83
1, 143612, Note_off_c, 0, 69, 35
1, 143615, Control_c, 0, 64, 90
1, 143620, Note_on_c, 0, 90, 66
1, 143625, Note_on_c, 0, 88, 57
1, 143630, Control_c, 0, 64, 92
1, 143637, Note_on_c, 0, 87, 29
1, 143689, Control_c, 0, 64, 91
1, 143696, Note_off_c, 0, 87, 50
1, 143696, Note_off_c, 0, 88, 53
1, 143704, Control_c, 0, 64, 86
1, 143705, Note_off_c, 0, 90, 62
1, 143710, Note_on_c, 0, 66, 61
1, 143718, Control_c, 0, 64, 76
1, 143723, Note_on_c, 0, 69, 56
1, 143729, Note_on_c, 0, 75, 80
1, 143733, Control_c, 0, 64, 66
1, 143748, Control_c, 0, 64, 64
1, 143763, Control_c, 0, 64, 65
1, 143778, Control_c, 0, 64, 69
1, 143780, Note_off_c, 0, 69, 51
1, 143792, Control_c, 0, 64, 75
1, 143801, Note_off_c, 0, 75, 61
1, 143806, Note_on_c, 0, 87, 55
1, 143807, Control_c, 0, 64, 83
1, 143822, Control_c, 0, 64, 90
1, 143834, Note_off_c, 0, 66, 35
1, 143837, Control_c, 0, 64, 92
1, 143846, Note_on_c, 0, 88, 67
1, 143911, Note_off_c, 0, 88, 60
1, 143924, Note_off_c, 0, 87, 35
1, 143941, Control_c, 0, 64, 87
1, 143955, Note_on_c, 0, 64, 53
1, 143956, Note_on_c, 0, 69, 52
1, 143956, Control_c, 0, 64, 75
1, 143965, Note_on_c, 0, 73, 76
1, 143971, Control_c, 0, 64, 64
1, 143985, Control_c, 0, 64, 60
1, 144000, Control_c, 0, 64, 63
1, 144006, Note_off_c, 0, 64, 54
1, 144015, Control_c, 0, 64, 67
1, 144018, Note_off_c, 0, 69, 52
1, 144030, Control_c, 0, 64, 72
1, 144033, Note_on_c, 0, 85, 53
1, 144033, Note_off_c, 0, 73, 61
1, 144044, Control_c, 0, 64, 79
1, 144059, Control_c, 0, 64, 86
1, 144074, Note_off_c, 0, 85, 63
1, 144074, Control_c, 0, 64, 89
1, 144090, Note_on_c, 0, 87, 64
1, 144141, Control_c, 0, 64, 88
1, 144156, Control_c, 0, 64, 86
1, 144171, Control_c, 0, 64, 80
1, 144172, Note_off_c, 0, 87, 59
1, 144176, Note_on_c, 0, 85, 42
1, 144186, Control_c, 0, 64, 67
1, 144201, Control_c, 0, 64, 51
1, 144215, Control_c, 0, 64, 42
1, 144221, Note_off_c, 0, 85, 46
1, 144225, Note_on_c, 0, 75, 65
1, 144230, Control_c, 0, 64, 43
1, 144236, Note_on_c, 0, 63, 43
1, 144239, Note_on_c, 0, 71, 45
1, 144245, Control_c, 0, 64, 54
1, 144246, Note_on_c, 0, 68, 31
1, 144260, Control_c, 0, 64, 62
1, 144275, Control_c, 0, 64, 67
1, 144290, Control_c, 0, 64, 72
1, 144292, Note_on_c, 0, 87, 65
1, 144299, Note_off_c, 0, 75, 53
1, 144304, Control_c, 0, 64, 79
1, 144319, Control_c, 0, 64, 85
1, 144334, Control_c, 0, 64, 88
1, 144349, Control_c, 0, 64, 89
1, 144349, Note_off_c, 0, 87, 59
1, 144364, Control_c, 0, 64, 90
1, 144367, Note_off_c, 0, 71, 34
1, 144374, Note_on_c, 0, 76, 65
1, 144374, Note_off_c, 0, 68, 39
1, 144379, Control_c, 0, 64, 93
1, 144388, Note_off_c, 0, 63, 38
1, 144394, Control_c, 0, 64, 97
1, 144408, Control_c, 0, 64, 103
1, 144423, Control_c, 0, 64, 107
1, 144426, Note_off_c, 0, 76, 61
1, 144431, Note_on_c, 0, 77, 60
1, 144438, Control_c, 0, 64, 112
1, 144453, Control_c, 0, 64, 120
1, 144468, Control_c, 0, 64, 127
1, 144468, Note_off_c, 0, 77, 59
1, 144477, Note_on_c, 0, 78, 68
1, 144526, Note_off_c, 0, 78, 56
1, 144549, Note_on_c, 0, 79, 66
1, 144592, Note_off_c, 0, 79, 53
1, 144603, Note_on_c, 0, 80, 68
1, 144624, Note_off_c, 0, 80, 67
1, 144677, Note_on_c, 0, 81, 67
1, 144701, Note_off_c, 0, 81, 68
1, 144706, Note_on_c, 0, 82, 76
1, 144732, Note_off_c, 0, 82, 64
1, 144778, Control_c, 0, 67, 125
1, 144782, Note_on_c, 0, 83, 74
1, 144793, Control_c, 0, 67, 122
1, 144808, Control_c, 0, 67, 120
1, 144820, Note_on_c, 0, 84, 71
1, 144823, Control_c, 0, 67, 117
1, 144829, Note_off_c, 0, 83, 55
1, 144838, Control_c, 0, 67, 111
1, 144859, Control_c, 0, 67, 101
1, 144874, Control_c, 0, 67, 86
1, 144884, Note_off_c, 0, 84, 60
1, 144886, Note_on_c, 0, 85, 71
1, 144889, Control_c, 0, 67, 65
1, 144906, Control_c, 0, 67, 42
1, 144920, Control_c, 0, 67, 20
1, 144923, Note_off_c, 0, 85, 58
1, 144935, Control_c, 0, 67, 0
1, 144951, Note_on_c, 0, 86, 73
1, 145002, Note_off_c, 0, 86, 61
1, 145002, Note_on_c, 0, 87, 76
1, 145029, Note_off_c, 0, 87, 65
1, 145068, Note_on_c, 0, 88, 76
1, 145115, Note_on_c, 0, 89, 71
1, 145122, Note_off_c, 0, 88, 57
1, 145176, Note_on_c, 0, 90, 72
1, 145180, Note_off_c, 0, 89, 60
1, 145223, Note_off_c, 0, 90, 60
1, 145242, Note_on_c, 0, 91, 76
1, 145302, Note_off_c, 0, 91, 61
1, 145306, Note_on_c, 0, 92, 75
1, 145330, Note_off_c, 0, 92, 62
1, 145372, Note_on_c, 0, 93, 75
1, 145422, Note_off_c, 0, 93, 62
1, 145422, Note_on_c, 0, 94, 77
1, 145461, Note_off_c, 0, 94, 62
1, 145501, Note_on_c, 0, 95, 75
1, 145545, Note_on_c, 0, 51, 51
1, 145559, Note_on_c, 0, 96, 71
1, 145567, Note_off_c, 0, 95, 55
1, 145572, Control_c, 0, 64, 87
1, 145587, Control_c, 0, 64, 72
1, 145610, Control_c, 0, 64, 70
1, 145619, Note_off_c, 0, 96, 62
1, 145622, Note_on_c, 0, 97, 65
1, 145622, Note_off_c, 0, 51, 60
1, 145625, Control_c, 0, 64, 76
1, 145628, Note_on_c, 0, 61, 48
1, 145639, Control_c, 0, 64, 91
1, 145644, Note_off_c, 0, 97, 68
1, 145654, Control_c, 0, 64, 127
1, 145687, Note_on_c, 0, 98, 77
1, 145688, Note_on_c, 0, 67, 58
1, 145705, Note_off_c, 0, 61, 47
1, 145743, Note_off_c, 0, 67, 44
1, 145747, Note_on_c, 0, 99, 73
1, 145748, Note_off_c, 0, 98, 65
1, 145802, Note_off_c, 0, 99, 60
1, 145804, Note_on_c, 0, 102, 77
1, 145861, Note_on_c, 0, 100, 68
1, 145914, Note_on_c, 0, 97, 75
1, 145933, Note_off_c, 0, 102, 47
1, 145962, Note_on_c, 0, 94, 73
1, 145962, Note_off_c, 0, 100, 64
1, 145974, Note_off_c, 0, 97, 63
1, 145999, Note_on_c, 0, 91, 73
1, 146003, Note_off_c, 0, 94, 60
1, 146046, Note_off_c, 0, 91, 58
1, 146085, Note_on_c, 0, 86, 76
1, 146141, Note_on_c, 0, 87, 69
1, 146156, Note_off_c, 0, 86, 50
1, 146203, Note_on_c, 0, 90, 74
1, 146206, Note_off_c, 0, 87, 61
1, 146250, Note_on_c, 0, 88, 62
1, 146310, Note_off_c, 0, 90, 61
1, 146320, Note_on_c, 0, 85, 74
1, 146336, Control_c, 0, 67, 19
1, 146358, Control_c, 0, 67, 32
1, 146372, Note_off_c, 0, 88, 61
1, 146373, Note_on_c, 0, 82, 78
1, 146373, Control_c, 0, 67, 46
1, 146388, Control_c, 0, 67, 62
1, 146394, Note_off_c, 0, 85, 64
1, 146403, Control_c, 0, 67, 81
1, 146418, Control_c, 0, 67, 98
1, 146427, Note_off_c, 0, 82, 62
1, 146432, Control_c, 0, 67, 115
1, 146437, Note_on_c, 0, 79, 66
1, 146447, Control_c, 0, 67, 127
1, 146469, Note_off_c, 0, 79, 60
1, 146520, Note_on_c, 0, 76, 72
1, 146570, Note_on_c, 0, 73, 72
1, 146579, Note_off_c, 0, 76, 59
1, 146640, Note_on_c, 0, 70, 71
1, 146641, Note_off_c, 0, 73, 63
1, 146681, Note_off_c, 0, 70, 54
1, 146697, Note_on_c, 0, 67, 62
1, 146725, Note_off_c, 0, 67, 62
1, 146778, Note_on_c, 0, 64, 63
1, 146817, Note_off_c, 0, 64, 56
1, 146824, Note_on_c, 0, 61, 61
1, 146891, Note_off_c, 0, 61, 59
1, 146893, Note_on_c, 0, 58, 59
1, 146935, Note_off_c, 0, 58, 58
1, 146937, Control_c, 0, 64, 90
1, 146951, Control_c, 0, 64, 65
1, 146952, Note_on_c, 0, 44, 54
1, 146966, Control_c, 0, 64, 48
1, 146981, Control_c, 0, 64, 43
1, 146996, Control_c, 0, 64, 49
1, 147011, Control_c, 0, 64, 60
1, 147015, Note_on_c, 0, 51, 48
1, 147026, Control_c, 0, 64, 65
1, 147041, Control_c, 0, 64, 71
1, 147044, Note_off_c, 0, 44, 52
1, 147055, Control_c, 0, 64, 81
1, 147070, Control_c, 0, 64, 90
1, 147085, Control_c, 0, 64, 98
1, 147087, Note_on_c, 0, 56, 60
1, 147107, Control_c, 0, 64, 103
1, 147118, Note_off_c, 0, 51, 36
1, 147122, Control_c, 0, 64, 107
1, 147124, Note_off_c, 0, 56, 61
1, 147136, Control_c, 0, 64, 110
1, 147151, Control_c, 0, 64, 117
1, 147157, Note_on_c, 0, 59, 51
1, 147166, Control_c, 0, 64, 127
1, 147216, Note_on_c, 0, 63, 52
1, 147273, Note_off_c, 0, 59, 60
1, 147304, Note_off_c, 0, 63, 55
1, 147347, Poly_aftertouch_c, 0, 68, 0
1, 147369, Note_on_c, 0, 71, 60
1, 147372, Poly_aftertouch_c, 0, 68, 0
1, 147454, Note_on_c, 0, 75, 58
1, 147519, Note_on_c, 0, 80, 56
1, 147538, Control_c, 0, 67, 127
1, 147582, Control_c, 0, 67, 126
1, 147586, Note_on_c, 0, 83, 61
1, 147597, Control_c, 0, 67, 126
1, 147612, Control_c, 0, 67, 125
1, 147672, Note_off_c, 0, 71, 31
1, 147675, Note_on_c, 0, 87, 57
1, 147694, Note_off_c, 0, 80, 31
1, 147712, Note_off_c, 0, 75, 32
1, 147750, Note_off_c, 0, 83, 35
1, 147759, Control_c, 0, 67, 126
1, 147765, Note_on_c, 0, 95, 57
1, 147791, Note_off_c, 0, 87, 44
1, 147819, Control_c, 0, 67, 126
1, 147855, Control_c, 0, 67, 127
1, 147870, Control_c, 0, 64, 101
1, 147884, Control_c, 0, 64, 79
1, 147884, Control_c, 0, 67, 127
1, 147899, Control_c, 0, 64, 67
1, 147914, Control_c, 0, 64, 66
1, 147919, Note_on_c, 0, 92, 62
1, 147929, Control_c, 0, 64, 70
1, 147944, Control_c, 0, 64, 76
1, 147959, Control_c, 0, 64, 86
1, 147966, Note_off_c, 0, 95, 43
1, 147974, Control_c, 0, 64, 102
1, 147989, Control_c, 0, 64, 115
1, 148003, Control_c, 0, 64, 124
1, 148018, Control_c, 0, 64, 127
1, 148197, Control_c, 0, 67, 127
1, 148210, Note_off_c, 0, 92, 54
1, 148300, Control_c, 0, 67, 126
1, 148315, Control_c, 0, 67, 126
1, 148345, Control_c, 0, 67, 125
1, 148360, Control_c, 0, 67, 125
1, 148374, Control_c, 0, 67, 124
1, 148389, Control_c, 0, 67, 122
1, 148404, Control_c, 0, 67, 118
1, 148419, Control_c, 0, 67, 111
1, 148433, Control_c, 0, 67, 99
1, 148448, Control_c, 0, 67, 85
1, 148463, Control_c, 0, 67, 68
1, 148478, Control_c, 0, 67, 49
1, 148493, Control_c, 0, 67, 37
1, 148508, Control_c, 0, 67, 19
1, 148522, Control_c, 0, 67, 0
1, 149020, Control_c, 0, 64, 115
1, 149035, Control_c, 0, 64, 102
1, 149049, Control_c, 0, 64, 89
1, 149064, Control_c, 0, 64, 77
1, 149079, Control_c, 0, 64, 67
1, 149094, Control_c, 0, 64, 59
1, 149109, Control_c, 0, 64, 57
1, 149123, Control_c, 0, 64, 56
1, 149138, Control_c, 0, 64, 54
1, 149153, Control_c, 0, 64, 50
1, 149168, Control_c, 0, 64, 44
1, 149183, Control_c, 0, 64, 33
1, 149197, Control_c, 0, 64, 0
1, 149568, Note_on_c, 0, 83, 67
1, 149569, Note_on_c, 0, 71, 64
1, 149570, Note_on_c, 0, 68, 51
1, 149593, Note_off_c, 0, 83, 66
1, 149597, Note_off_c, 0, 71, 65
1, 149617, Note_off_c, 0, 68, 57
1, 149711, Note_on_c, 0, 83, 77
1, 149715, Note_on_c, 0, 71, 72
1, 149721, Note_on_c, 0, 70, 67
1, 149736, Note_on_c, 0, 67, 43
1, 149739, Note_off_c, 0, 71, 65
1, 149747, Note_off_c, 0, 83, 61
1, 149759, Note_off_c, 0, 67, 51
1, 149760, Note_off_c, 0, 70, 56
1, 149839, Note_on_c, 0, 71, 78
1, 149845, Note_on_c, 0, 83, 75
1, 149846, Note_on_c, 0, 69, 59
1, 149852, Note_on_c, 0, 66, 54
1, 149863, Note_off_c, 0, 71, 65
1, 149865, Note_off_c, 0, 69, 64
1, 149867, Note_off_c, 0, 83, 68
1, 149881, Note_off_c, 0, 66, 64
1, 149957, Note_on_c, 0, 71, 75
1, 149962, Note_on_c, 0, 65, 57
1, 149963, Note_on_c, 0, 83, 75
1, 149970, Note_on_c, 0, 68, 44
1, 149981, Note_off_c, 0, 71, 64
1, 149985, Note_off_c, 0, 83, 68
1, 149991, Note_off_c, 0, 65, 64
1, 149994, Note_off_c, 0, 68, 55
1, 150074, Note_on_c, 0, 67, 20
1, 150074, Note_on_c, 0, 83, 69
1, 150107, Note_off_c, 0, 83, 67
1, 150115, Note_off_c, 0, 67, 32
1, 150174, Note_on_c, 0, 83, 76
1, 150190, Note_on_c, 0, 48, 45
1, 150192, Control_c, 0, 64, 56
1, 150195, Note_off_c, 0, 83, 68
1, 150206, Control_c, 0, 64, 68
1, 150219, Note_off_c, 0, 48, 55
1, 150221, Control_c, 0, 64, 80
1, 150236, Control_c, 0, 64, 93
1, 150251, Control_c, 0, 64, 104
1, 150266, Control_c, 0, 64, 110
1, 150280, Note_on_c, 0, 63, 69
1, 150280, Control_c, 0, 64, 113
1, 150284, Note_on_c, 0, 66, 64
1, 150295, Control_c, 0, 64, 119
1, 150299, Note_off_c, 0, 63, 66
1, 150308, Note_off_c, 0, 66, 61
1, 150310, Control_c, 0, 64, 127
1, 150375, Note_on_c, 0, 71, 55
1, 150378, Note_on_c, 0, 78, 65
1, 150382, Note_on_c, 0, 54, 58
1, 150418, Note_off_c, 0, 54, 63
1, 150439, Note_on_c, 0, 63, 54
1, 150440, Note_on_c, 0, 66, 58
1, 150456, Note_off_c, 0, 71, 51
1, 150458, Control_c, 0, 64, 99
1, 150460, Note_off_c, 0, 78, 37
1, 150470, Note_off_c, 0, 63, 64
1, 150470, Note_off_c, 0, 66, 64
1, 150474, Control_c, 0, 64, 79
1, 150489, Control_c, 0, 64, 63
1, 150503, Control_c, 0, 64, 48
1, 150518, Control_c, 0, 64, 30
1, 150533, Control_c, 0, 64, 0
1, 150538, Note_on_c, 0, 83, 83
1, 150544, Note_on_c, 0, 47, 61
1, 150567, Note_off_c, 0, 47, 61
1, 150573, Note_off_c, 0, 83, 61
1, 150623, Note_on_c, 0, 63, 72
1, 150639, Note_on_c, 0, 66, 66
1, 150640, Note_off_c, 0, 63, 66
1, 150657, Note_off_c, 0, 66, 67
1, 150725, Control_c, 0, 64, 41
1, 150731, Note_on_c, 0, 42, 62
1, 150733, Note_on_c, 0, 85, 81
1, 150740, Control_c, 0, 64, 65
1, 150752, Note_off_c, 0, 85, 70
1, 150755, Control_c, 0, 64, 75
1, 150761, Note_off_c, 0, 42, 60
1, 150770, Control_c, 0, 64, 87
1, 150785, Control_c, 0, 64, 102
1, 150800, Control_c, 0, 64, 121
1, 150815, Control_c, 0, 64, 127
1, 150836, Note_on_c, 0, 66, 62
1, 150840, Note_on_c, 0, 64, 50
1, 150871, Note_off_c, 0, 64, 60
1, 150875, Note_off_c, 0, 66, 61
1, 150932, Note_on_c, 0, 73, 68
1, 150935, Note_on_c, 0, 78, 61
1, 150937, Note_on_c, 0, 54, 52
1, 150963, Note_off_c, 0, 54, 60
1, 150973, Note_off_c, 0, 73, 50
1, 150974, Note_on_c, 0, 58, 22
1, 150979, Note_off_c, 0, 78, 56
1, 150998, Note_on_c, 0, 64, 43
1, 151013, Note_on_c, 0, 66, 58
1, 151015, Note_off_c, 0, 58, 49
1, 151024, Note_off_c, 0, 64, 55
1, 151035, Note_off_c, 0, 66, 62
1, 151044, Control_c, 0, 64, 109
1, 151059, Control_c, 0, 64, 83
1, 151074, Control_c, 0, 64, 64
1, 151089, Control_c, 0, 64, 42
1, 151103, Note_on_c, 0, 42, 69
1, 151103, Control_c, 0, 64, 0
1, 151106, Note_on_c, 0, 85, 85
1, 151136, Note_off_c, 0, 42, 63
1, 151139, Note_off_c, 0, 85, 59
1, 151199, Note_on_c, 0, 64, 62
1, 151225, Note_on_c, 0, 66, 39
1, 151226, Note_off_c, 0, 64, 65
1, 151254, Note_off_c, 0, 66, 35
1, 151297, Control_c, 0, 64, 57
1, 151305, Note_on_c, 0, 47, 74
1, 151307, Note_on_c, 0, 87, 80
1, 151312, Control_c, 0, 64, 68
1, 151323, Note_off_c, 0, 87, 72
1, 151326, Control_c, 0, 64, 77
1, 151330, Note_off_c, 0, 47, 64
1, 151341, Control_c, 0, 64, 92
1, 151356, Control_c, 0, 64, 105
1, 151371, Control_c, 0, 64, 127
1, 151409, Note_on_c, 0, 66, 65
1, 151418, Note_on_c, 0, 63, 52
1, 151444, Note_off_c, 0, 63, 58
1, 151477, Note_off_c, 0, 66, 57
1, 151494, Note_on_c, 0, 54, 60
1, 151507, Note_on_c, 0, 75, 73
1, 151516, Note_off_c, 0, 54, 61
1, 151527, Note_off_c, 0, 75, 70
1, 151612, Note_on_c, 0, 47, 70
1, 151617, Note_on_c, 0, 83, 65
1, 151644, Note_on_c, 0, 84, 40
1, 151672, Note_off_c, 0, 84, 53
1, 151694, Note_on_c, 0, 87, 80
1, 151697, Note_off_c, 0, 83, 37
1, 151700, Note_on_c, 0, 42, 64
1, 151712, Note_off_c, 0, 47, 35
1, 151754, Note_off_c, 0, 42, 57
1, 151768, Note_on_c, 0, 35, 76
1, 151770, Note_off_c, 0, 87, 56
1, 151779, Note_on_c, 0, 95, 88
1, 151794, Note_off_c, 0, 35, 63
1, 151807, Control_c, 0, 64, 120
1, 151808, Note_off_c, 0, 95, 59
1, 151822, Control_c, 0, 64, 83
1, 151837, Control_c, 0, 64, 64
1, 151851, Control_c, 0, 64, 44
1, 151866, Control_c, 0, 64, 36
1, 151881, Control_c, 0, 64, 34
1, 151896, Control_c, 0, 64, 32
1, 151911, Control_c, 0, 64, 31
1, 151940, Control_c, 0, 64, 31
1, 152030, Note_on_c, 0, 71, 78
1, 152035, Note_on_c, 0, 75, 65
1, 152037, Note_on_c, 0, 87, 61
1, 152051, Note_off_c, 0, 71, 67
1, 152052, Note_off_c, 0, 75, 66
1, 152055, Note_off_c, 0, 87, 66
1, 152074, Control_c, 0, 64, 30
1, 152123, Note_on_c, 0, 75, 77
1, 152126, Note_on_c, 0, 87, 77
1, 152132, Note_on_c, 0, 74, 64
1, 152147, Note_off_c, 0, 75, 64
1, 152147, Note_off_c, 0, 87, 68
1, 152149, Note_off_c, 0, 74, 64
1, 152216, Note_on_c, 0, 70, 67
1, 152222, Control_c, 0, 64, 30
1, 152223, Note_on_c, 0, 75, 72
1, 152224, Note_on_c, 0, 87, 74
1, 152227, Note_on_c, 0, 73, 51
1, 152242, Note_off_c, 0, 70, 66
1, 152246, Note_off_c, 0, 75, 64
1, 152249, Note_off_c, 0, 73, 59
1, 152249, Note_off_c, 0, 87, 66
1, 152296, Note_on_c, 0, 72, 70
1, 152297, Control_c, 0, 64, 29
1, 152305, Note_on_c, 0, 75, 75
1, 152307, Note_on_c, 0, 87, 82
1, 152312, Control_c, 0, 64, 27
1, 152327, Control_c, 0, 64, 23
1, 152330, Note_off_c, 0, 75, 64
1, 152336, Note_off_c, 0, 87, 58
1, 152349, Control_c, 0, 64, 16
1, 152364, Control_c, 0, 64, 0
1, 152392, Note_on_c, 0, 68, 70
1, 152398, Note_off_c, 0, 72, 52
1, 152404, Note_on_c, 0, 75, 62
1, 152417, Note_off_c, 0, 68, 62
1, 152421, Note_on_c, 0, 87, 62
1, 152428, Note_off_c, 0, 75, 66
1, 152439, Note_off_c, 0, 87, 64
1, 152485, Note_on_c, 0, 87, 87
1, 152497, Control_c, 0, 64, 55
1, 152508, Note_on_c, 0, 51, 68
1, 152512, Control_c, 0, 64, 70
1, 152527, Control_c, 0, 64, 84
1, 152534, Note_off_c, 0, 87, 64
1, 152536, Note_off_c, 0, 51, 65
1, 152542, Control_c, 0, 64, 110
1, 152556, Control_c, 0, 64, 127
1, 152591, Note_on_c, 0, 70, 76
1, 152615, Note_on_c, 0, 66, 58
1, 152652, Note_off_c, 0, 66, 60
1, 152658, Note_off_c, 0, 70, 37
1, 152685, Note_on_c, 0, 75, 67
1, 152693, Note_on_c, 0, 58, 57
1, 152712, Note_on_c, 0, 63, 22
1, 152719, Note_off_c, 0, 75, 56
1, 152730, Note_off_c, 0, 58, 62
1, 152755, Note_off_c, 0, 63, 53
1, 152769, Note_on_c, 0, 66, 69
1, 152769, Note_on_c, 0, 70, 63
1, 152785, Note_off_c, 0, 70, 67
1, 152793, Control_c, 0, 64, 88
1, 152794, Note_off_c, 0, 66, 66
1, 152808, Control_c, 0, 64, 67
1, 152823, Control_c, 0, 64, 45
1, 152838, Control_c, 0, 64, 0
1, 152840, Note_on_c, 0, 87, 87
1, 152865, Note_on_c, 0, 51, 55
1, 152890, Note_off_c, 0, 51, 59
1, 152891, Note_off_c, 0, 87, 58
1, 152928, Note_on_c, 0, 66, 66
1, 152942, Note_on_c, 0, 70, 67
1, 152953, Note_off_c, 0, 66, 63
1, 152970, Note_off_c, 0, 70, 63
1, 153016, Control_c, 0, 64, 52
1, 153021, Note_on_c, 0, 46, 80
1, 153024, Note_on_c, 0, 89, 87
1, 153031, Control_c, 0, 64, 69
1, 153044, Note_off_c, 0, 46, 66
1, 153046, Control_c, 0, 64, 80
1, 153055, Note_off_c, 0, 89, 63
1, 153061, Control_c, 0, 64, 99
1, 153076, Control_c, 0, 64, 127
1, 153148, Note_on_c, 0, 70, 69
1, 153161, Note_on_c, 0, 68, 40
1, 153188, Note_off_c, 0, 68, 53
1, 153201, Note_off_c, 0, 70, 52
1, 153219, Note_on_c, 0, 82, 76
1, 153225, Note_on_c, 0, 77, 46
1, 153235, Note_on_c, 0, 58, 50
1, 153244, Note_on_c, 0, 62, 38
1, 153245, Note_on_c, 0, 78, 51
1, 153268, Note_off_c, 0, 78, 57
1, 153278, Note_off_c, 0, 58, 58
1, 153280, Note_on_c, 0, 68, 68
1, 153296, Note_off_c, 0, 62, 58
1, 153309, Note_off_c, 0, 82, 48
1, 153311, Note_off_c, 0, 68, 56
1, 153313, Note_off_c, 0, 77, 57
1, 153315, Note_on_c, 0, 70, 58
1, 153332, Note_off_c, 0, 70, 66
1, 153365, Control_c, 0, 64, 96
1, 153379, Control_c, 0, 64, 70
1, 153394, Control_c, 0, 64, 43
1, 153395, Note_on_c, 0, 46, 72
1, 153398, Note_on_c, 0, 89, 87
1, 153409, Control_c, 0, 64, 0
1, 153417, Note_off_c, 0, 46, 66
1, 153431, Note_off_c, 0, 89, 61
1, 153498, Note_on_c, 0, 68, 65
1, 153504, Note_on_c, 0, 70, 58
1, 153515, Note_off_c, 0, 68, 64
1, 153524, Note_off_c, 0, 70, 61
1, 153584, Note_on_c, 0, 51, 74
1, 153585, Note_on_c, 0, 90, 88
1, 153587, Control_c, 0, 64, 59
1, 153602, Control_c, 0, 64, 71
1, 153605, Note_off_c, 0, 90, 69
1, 153616, Control_c, 0, 64, 81
1, 153624, Note_off_c, 0, 51, 56
1, 153631, Control_c, 0, 64, 96
1, 153646, Control_c, 0, 64, 118
1, 153661, Control_c, 0, 64, 127
1, 153681, Note_on_c, 0, 70, 65
1, 153691, Note_on_c, 0, 66, 58
1, 153727, Note_off_c, 0, 66, 57
1, 153761, Note_off_c, 0, 70, 58
1, 153771, Note_on_c, 0, 58, 64
1, 153772, Note_on_c, 0, 78, 76
1, 153790, Note_off_c, 0, 78, 69
1, 153801, Note_off_c, 0, 58, 63
1, 153871, Note_on_c, 0, 87, 79
1, 153883, Note_on_c, 0, 51, 67
1, 153932, Note_off_c, 0, 51, 58
1, 153952, Note_on_c, 0, 90, 82
1, 153956, Note_off_c, 0, 87, 61
1, 153959, Note_on_c, 0, 46, 67
1, 154023, Note_off_c, 0, 46, 50
1, 154025, Note_on_c, 0, 99, 91
1, 154028, Note_off_c, 0, 90, 63
1, 154029, Note_on_c, 0, 39, 78
1, 154057, Note_off_c, 0, 39, 65
1, 154070, Note_off_c, 0, 99, 63
1, 154084, Control_c, 0, 64, 84
1, 154099, Control_c, 0, 64, 64
1, 154114, Control_c, 0, 64, 40
1, 154128, Control_c, 0, 64, 24
1, 154143, Control_c, 0, 64, 18
1, 154278, Note_on_c, 0, 90, 72
1, 154279, Note_on_c, 0, 75, 84
1, 154290, Note_on_c, 0, 78, 48
1, 154301, Note_off_c, 0, 90, 67
1, 154305, Note_off_c, 0, 75, 60
1, 154314, Note_off_c, 0, 78, 57
1, 154368, Note_on_c, 0, 90, 85
1, 154372, Note_on_c, 0, 77, 76
1, 154376, Note_on_c, 0, 78, 79
1, 154391, Note_off_c, 0, 90, 62
1, 154395, Note_off_c, 0, 77, 65
1, 154398, Note_off_c, 0, 78, 68
1, 154453, Note_on_c, 0, 76, 79
1, 154463, Note_on_c, 0, 78, 82
1, 154466, Note_on_c, 0, 90, 83
1, 154473, Note_off_c, 0, 76, 71
1, 154483, Note_off_c, 0, 90, 72
1, 154484, Note_off_c, 0, 78, 66
1, 154495, Note_on_c, 0, 73, 29
1, 154535, Note_off_c, 0, 73, 0
1, 154535, Note_on_c, 0, 73, 26
1, 154544, Note_on_c, 0, 75, 73
1, 154544, Control_c, 0, 64, 0
1, 154549, Note_on_c, 0, 90, 92
1, 154550, Note_on_c, 0, 72, 65
1, 154550, Note_on_c, 0, 78, 86
1, 154580, Note_off_c, 0, 78, 59
1, 154583, Note_off_c, 0, 90, 54
1, 154585, Note_off_c, 0, 75, 61
1, 154626, Note_off_c, 0, 73, 36
1, 154647, Note_off_c, 0, 72, 59
1, 154650, Note_on_c, 0, 70, 23
1, 154654, Note_on_c, 0, 78, 75
1, 154658, Note_on_c, 0, 90, 80
1, 154675, Note_off_c, 0, 78, 68
1, 154678, Note_off_c, 0, 90, 65
1, 154685, Note_off_c, 0, 70, 33
1, 154734, Note_on_c, 0, 90, 93
1, 154741, Note_on_c, 0, 54, 82
1, 154758, Control_c, 0, 64, 58
1, 154769, Note_off_c, 0, 54, 63
1, 154773, Control_c, 0, 64, 73
1, 154782, Note_off_c, 0, 90, 67
1, 154788, Control_c, 0, 64, 88
1, 154803, Control_c, 0, 64, 119
1, 154818, Control_c, 0, 64, 127
1, 154843, Note_on_c, 0, 73, 81
1, 154854, Note_on_c, 0, 70, 62
1, 154891, Note_off_c, 0, 70, 54
1, 154913, Note_off_c, 0, 73, 54
1, 154934, Note_on_c, 0, 61, 58
1, 154938, Note_on_c, 0, 78, 69
1, 154939, Note_on_c, 0, 66, 57
1, 154972, Note_off_c, 0, 66, 63
1, 154981, Note_off_c, 0, 61, 58
1, 155014, Note_on_c, 0, 70, 69
1, 155015, Note_off_c, 0, 78, 31
1, 155022, Note_on_c, 0, 73, 58
1, 155036, Poly_aftertouch_c, 0, 85, 0
1, 155039, Note_off_c, 0, 70, 64
1, 155040, Note_off_c, 0, 73, 65
1, 155040, Control_c, 0, 64, 102
1, 155055, Control_c, 0, 64, 78
1, 155069, Control_c, 0, 64, 59
1, 155084, Control_c, 0, 64, 28
1, 155092, Note_on_c, 0, 90, 86
1, 155099, Control_c, 0, 64, 0
1, 155104, Note_on_c, 0, 54, 67
1, 155127, Note_off_c, 0, 54, 63
1, 155129, Note_off_c, 0, 90, 43
1, 155175, Note_on_c, 0, 70, 71
1, 155182, Note_on_c, 0, 73, 68
1, 155197, Note_off_c, 0, 70, 66
1, 155209, Note_off_c, 0, 73, 66
1, 155278, Note_on_c, 0, 92, 93
1, 155286, Note_on_c, 0, 49, 69
1, 155293, Control_c, 0, 64, 61
1, 155308, Control_c, 0, 64, 72
1, 155310, Note_off_c, 0, 49, 63
1, 155319, Note_off_c, 0, 92, 64
1, 155323, Control_c, 0, 64, 87
1, 155346, Control_c, 0, 64, 103
1, 155361, Control_c, 0, 64, 127
1, 155396, Note_on_c, 0, 73, 75
1, 155405, Note_on_c, 0, 71, 57
1, 155424, Note_off_c, 0, 71, 61
1, 155454, Note_off_c, 0, 73, 53
1, 155482, Note_on_c, 0, 80, 67
1, 155482, Note_on_c, 0, 85, 63
1, 155497, Note_on_c, 0, 65, 46
1, 155504, Note_on_c, 0, 61, 47
1, 155531, Note_off_c, 0, 61, 58
1, 155540, Note_off_c, 0, 85, 55
1, 155548, Note_on_c, 0, 71, 55
1, 155565, Note_on_c, 0, 73, 73
1, 155573, Note_off_c, 0, 65, 37
1, 155574, Note_off_c, 0, 71, 66
1, 155586, Note_off_c, 0, 80, 28
1, 155590, Note_off_c, 0, 73, 68
1, 155626, Control_c, 0, 64, 102
1, 155641, Control_c, 0, 64, 72
1, 155655, Note_on_c, 0, 92, 91
1, 155656, Control_c, 0, 64, 53
1, 155664, Note_on_c, 0, 49, 61
1, 155671, Control_c, 0, 64, 16
1, 155686, Control_c, 0, 64, 0
1, 155690, Note_off_c, 0, 49, 61
1, 155697, Note_off_c, 0, 92, 64
1, 155758, Note_on_c, 0, 73, 59
1, 155761, Note_on_c, 0, 71, 67
1, 155778, Note_off_c, 0, 73, 61
1, 155786, Note_off_c, 0, 71, 63
1, 155864, Control_c, 0, 64, 24
1, 155867, Note_on_c, 0, 94, 81
1, 155869, Note_on_c, 0, 85, 81
1, 155874, Note_on_c, 0, 54, 70
1, 155879, Control_c, 0, 64, 58
1, 155886, Note_off_c, 0, 85, 70
1, 155891, Note_off_c, 0, 94, 60
1, 155893, Control_c, 0, 64, 68
1, 155894, Note_off_c, 0, 54, 65
1, 155908, Control_c, 0, 64, 75
1, 155923, Control_c, 0, 64, 82
1, 155937, Control_c, 0, 64, 90
1, 155952, Control_c, 0, 64, 95
1, 155967, Control_c, 0, 64, 99
1, 155970, Note_on_c, 0, 85, 80
1, 155981, Control_c, 0, 64, 103
1, 155989, Note_off_c, 0, 85, 70
1, 155992, Note_on_c, 0, 95, 41
1, 155996, Control_c, 0, 64, 108
1, 156003, Note_on_c, 0, 96, 34
1, 156010, Control_c, 0, 64, 115
1, 156019, Note_off_c, 0, 95, 55
1, 156025, Control_c, 0, 64, 127
1, 156037, Note_off_c, 0, 96, 52
1, 156070, Note_on_c, 0, 97, 83
1, 156073, Note_on_c, 0, 85, 79
1, 156098, Note_on_c, 0, 61, 54
1, 156100, Note_off_c, 0, 97, 58
1, 156103, Note_off_c, 0, 85, 68
1, 156112, Note_on_c, 0, 95, 39
1, 156141, Note_off_c, 0, 95, 54
1, 156154, Note_off_c, 0, 61, 56
1, 156155, Note_on_c, 0, 70, 72
1, 156180, Note_on_c, 0, 85, 74
1, 156180, Note_on_c, 0, 97, 75
1, 156201, Note_off_c, 0, 97, 68
1, 156202, Note_off_c, 0, 85, 66
1, 156203, Note_off_c, 0, 70, 52
1, 156268, Note_on_c, 0, 85, 84
1, 156280, Note_on_c, 0, 96, 71
1, 156282, Note_on_c, 0, 95, 72
1, 156285, Note_on_c, 0, 78, 39
1, 156298, Note_off_c, 0, 85, 64
1, 156305, Note_off_c, 0, 96, 66
1, 156306, Note_off_c, 0, 95, 64
1, 156315, Note_off_c, 0, 78, 35
1, 156353, Note_on_c, 0, 80, 51
1, 156371, Note_on_c, 0, 85, 73
1, 156374, Note_off_c, 0, 80, 61
1, 156389, Note_on_c, 0, 94, 61
1, 156394, Note_off_c, 0, 85, 68
1, 156408, Note_off_c, 0, 94, 65
1, 156448, Control_c, 0, 64, 88
1, 156458, Note_on_c, 0, 48, 81
1, 156463, Control_c, 0, 64, 64
1, 156478, Control_c, 0, 64, 28
1, 156481, Note_on_c, 0, 83, 83
1, 156481, Note_off_c, 0, 48, 66
1, 156486, Note_on_c, 0, 92, 78
1, 156493, Control_c, 0, 64, 0
1, 156501, Note_off_c, 0, 83, 69
1, 156505, Note_off_c, 0, 92, 71
1, 156508, Control_c, 0, 64, 34
1, 156522, Control_c, 0, 64, 57
1, 156537, Control_c, 0, 64, 67
1, 156552, Control_c, 0, 64, 74
1, 156566, Control_c, 0, 64, 82
1, 156580, Note_on_c, 0, 85, 86
1, 156581, Control_c, 0, 64, 92
1, 156587, Note_on_c, 0, 94, 72
1, 156596, Control_c, 0, 64, 101
1, 156597, Note_off_c, 0, 85, 72
1, 156609, Note_off_c, 0, 94, 69
1, 156611, Control_c, 0, 64, 104
1, 156678, Note_on_c, 0, 87, 84
1, 156678, Note_on_c, 0, 95, 83
1, 156679, Poly_aftertouch_c, 0, 68, 127
1, 156700, Control_c, 0, 64, 104
1, 156704, Note_on_c, 0, 60, 45
1, 156704, Note_off_c, 0, 87, 62
1, 156705, Note_off_c, 0, 95, 59
1, 156707, Poly_aftertouch_c, 0, 68, 0
1, 156714, Control_c, 0, 64, 107
1, 156715, Note_on_c, 0, 59, 44
1, 156729, Control_c, 0, 64, 111
1, 156742, Note_off_c, 0, 60, 49
1, 156743, Note_off_c, 0, 59, 55
1, 156744, Control_c, 0, 64, 117
1, 156757, Note_on_c, 0, 68, 63
1, 156759, Control_c, 0, 64, 127
1, 156767, Note_on_c, 0, 87, 88
1, 156768, Note_on_c, 0, 95, 78
1, 156797, Note_off_c, 0, 95, 60
1, 156805, Note_off_c, 0, 68, 51
1, 156809, Note_off_c, 0, 87, 62
1, 156873, Note_on_c, 0, 75, 63
1, 156874, Note_on_c, 0, 85, 84
1, 156875, Note_on_c, 0, 94, 77
1, 156893, Note_off_c, 0, 75, 63
1, 156896, Note_off_c, 0, 94, 68
1, 156898, Note_off_c, 0, 85, 62
1, 156936, Note_on_c, 0, 78, 78
1, 156956, Note_off_c, 0, 78, 69
1, 156978, Note_on_c, 0, 92, 77
1, 156985, Note_on_c, 0, 83, 63
1, 156999, Note_off_c, 0, 92, 67
1, 157001, Note_off_c, 0, 83, 64
1, 157064, Control_c, 0, 64, 79
1, 157078, Control_c, 0, 64, 58
1, 157080, Note_on_c, 0, 49, 68
1, 157083, Note_on_c, 0, 82, 83
1, 157084, Note_on_c, 0, 90, 80
1, 157093, Control_c, 0, 64, 36
1, 157108, Note_off_c, 0, 49, 62
1, 157108, Control_c, 0, 64, 43
1, 157113, Note_off_c, 0, 90, 60
1, 157116, Note_off_c, 0, 82, 57
1, 157123, Control_c, 0, 64, 58
1, 157137, Control_c, 0, 64, 66
1, 157152, Control_c, 0, 64, 73
1, 157167, Control_c, 0, 64, 85
1, 157182, Control_c, 0, 64, 96
1, 157197, Control_c, 0, 64, 107
1, 157198, Note_on_c, 0, 83, 86
1, 157200, Note_on_c, 0, 92, 80
1, 157212, Control_c, 0, 64, 113
1, 157218, Note_off_c, 0, 83, 68
1, 157219, Note_off_c, 0, 92, 70
1, 157227, Control_c, 0, 64, 118
1, 157242, Control_c, 0, 64, 127
1, 157290, Note_on_c, 0, 58, 62
1, 157293, Note_on_c, 0, 85, 85
1, 157297, Note_on_c, 0, 94, 78
1, 157313, Note_off_c, 0, 85, 66
1, 157315, Note_off_c, 0, 94, 70
1, 157323, Note_off_c, 0, 58, 48
1, 157364, Note_on_c, 0, 66, 66
1, 157387, Note_on_c, 0, 85, 86
1, 157391, Note_off_c, 0, 66, 65
1, 157391, Note_on_c, 0, 94, 75
1, 157403, Note_off_c, 0, 85, 74
1, 157412, Note_off_c, 0, 94, 66
1, 157469, Note_on_c, 0, 73, 67
1, 157471, Note_on_c, 0, 83, 87
1, 157483, Note_on_c, 0, 92, 70
1, 157489, Note_off_c, 0, 83, 70
1, 157490, Note_on_c, 0, 85, 57
1, 157499, Note_off_c, 0, 73, 63
1, 157506, Note_off_c, 0, 92, 63
1, 157510, Note_off_c, 0, 85, 64
1, 157558, Note_on_c, 0, 90, 61
1, 157573, Note_on_c, 0, 82, 90
1, 157599, Note_on_c, 0, 85, 52
1, 157600, Note_off_c, 0, 82, 65
1, 157620, Note_off_c, 0, 85, 61
1, 157635, Note_off_c, 0, 90, 62
1, 157661, Note_on_c, 0, 61, 58
1, 157665, Control_c, 0, 64, 100
1, 157680, Control_c, 0, 64, 71
1, 157693, Note_on_c, 0, 89, 82
1, 157694, Control_c, 0, 64, 56
1, 157697, Note_on_c, 0, 80, 86
1, 157706, Note_off_c, 0, 61, 59
1, 157718, Note_off_c, 0, 80, 61
1, 157722, Note_on_c, 0, 85, 29
1, 157724, Control_c, 0, 64, 63
1, 157739, Control_c, 0, 64, 69
1, 157745, Note_off_c, 0, 89, 59
1, 157754, Control_c, 0, 64, 77
1, 157757, Note_off_c, 0, 85, 46
1, 157768, Control_c, 0, 64, 91
1, 157783, Control_c, 0, 64, 116
1, 157798, Control_c, 0, 64, 127
1, 157822, Note_on_c, 0, 92, 72
1, 157826, Note_on_c, 0, 82, 68
1, 157835, Note_on_c, 0, 85, 56
1, 157842, Note_off_c, 0, 82, 67
1, 157846, Note_off_c, 0, 92, 68
1, 157853, Note_off_c, 0, 85, 65
1, 157892, Note_on_c, 0, 77, 67
1, 157912, Poly_aftertouch_c, 0, 90, 0
1, 157913, Note_on_c, 0, 92, 92
1, 157933, Note_off_c, 0, 77, 56
1, 157964, Note_off_c, 0, 92, 61
1, 157998, Note_on_c, 0, 68, 69
1, 157999, Note_on_c, 0, 92, 59
1, 158078, Note_off_c, 0, 68, 37
1, 158084, Note_on_c, 0, 61, 67
1, 158097, Note_on_c, 0, 87, 79
1, 158105, Note_off_c, 0, 92, 65
1, 158162, Note_off_c, 0, 61, 33
1, 158177, Note_on_c, 0, 71, 56
1, 158178, Note_off_c, 0, 87, 58
1, 158179, Note_on_c, 0, 90, 61
1, 158196, Note_off_c, 0, 71, 62
1, 158214, Note_off_c, 0, 90, 66
1, 158245, Note_on_c, 0, 89, 38
1, 158256, Control_c, 0, 64, 105
1, 158258, Note_on_c, 0, 70, 72
1, 158266, Note_on_c, 0, 66, 66
1, 158271, Control_c, 0, 64, 77
1, 158281, Note_on_c, 0, 78, 78
1, 158282, Note_off_c, 0, 70, 66
1, 158285, Control_c, 0, 64, 59
1, 158290, Note_on_c, 0, 90, 79
1, 158298, Note_off_c, 0, 89, 60
1, 158300, Control_c, 0, 64, 61
1, 158303, Note_off_c, 0, 66, 58
1, 158315, Note_off_c, 0, 90, 60
1, 158315, Control_c, 0, 64, 69
1, 158321, Note_off_c, 0, 78, 47
1, 158337, Control_c, 0, 64, 77
1, 158352, Control_c, 0, 64, 92
1, 158367, Control_c, 0, 64, 116
1, 158382, Control_c, 0, 64, 127
1, 158411, Control_c, 0, 64, 97
1, 158426, Control_c, 0, 64, 75
1, 158441, Control_c, 0, 64, 58
1, 158456, Control_c, 0, 64, 32
1, 158464, Note_on_c, 0, 54, 85
1, 158467, Note_on_c, 0, 42, 75
1, 158472, Control_c, 0, 64, 0
1, 158489, Note_off_c, 0, 54, 66
1, 158495, Note_off_c, 0, 42, 62
1, 158556, Note_on_c, 0, 54, 77
1, 158559, Note_on_c, 0, 42, 66
1, 158583, Note_off_c, 0, 54, 65
1, 158586, Note_off_c, 0, 42, 63
1, 158645, Note_on_c, 0, 55, 76
1, 158649, Note_on_c, 0, 43, 72
1, 158672, Note_off_c, 0, 55, 62
1, 158686, Note_off_c, 0, 43, 60
1, 158732, Note_on_c, 0, 55, 73
1, 158762, Poly_aftertouch_c, 0, 43, 0
1, 158762, Note_off_c, 0, 55, 62
1, 158827, Note_on_c, 0, 56, 85
1, 158831, Note_on_c, 0, 44, 70
1, 158850, Note_off_c, 0, 56, 66
1, 158866, Note_off_c, 0, 44, 59
1, 158872, Control_c, 0, 64, 63
1, 158887, Control_c, 0, 64, 73
1, 158899, Note_on_c, 0, 56, 89
1, 158902, Control_c, 0, 64, 87
1, 158916, Control_c, 0, 64, 104
1, 158923, Note_on_c, 0, 44, 46
1, 158931, Control_c, 0, 64, 127
1, 158936, Note_off_c, 0, 56, 59
1, 158951, Note_off_c, 0, 44, 55
1, 159012, Note_on_c, 0, 56, 73
1, 159018, Note_on_c, 0, 68, 52
1, 159031, Note_off_c, 0, 56, 69
1, 159037, Note_off_c, 0, 68, 60
1, 159108, Note_on_c, 0, 56, 61
1, 159128, Note_off_c, 0, 56, 65
1, 159154, Note_on_c, 0, 68, 39
1, 159177, Note_off_c, 0, 68, 56
1, 159212, Note_on_c, 0, 80, 90
1, 159227, Note_off_c, 0, 80, 72
1, 159244, Note_on_c, 0, 68, 41
1, 159284, Note_on_c, 0, 80, 88
1, 159288, Note_off_c, 0, 68, 0
1, 159288, Note_on_c, 0, 68, 36
1, 159328, Note_off_c, 0, 68, 60
1, 159346, Note_off_c, 0, 80, 58
1, 159394, Note_on_c, 0, 92, 91
1, 159396, Note_on_c, 0, 80, 79
1, 159415, Note_off_c, 0, 80, 66
1, 159438, Note_off_c, 0, 92, 61
1, 159517, Control_c, 0, 64, 84
1, 159532, Control_c, 0, 64, 67
1, 159547, Control_c, 0, 64, 56
1, 159562, Control_c, 0, 64, 51
1, 159577, Control_c, 0, 64, 50
1, 159588, Note_on_c, 0, 102, 69
1, 159591, Control_c, 0, 64, 48
1, 159601, Note_on_c, 0, 90, 58
1, 159605, Note_off_c, 0, 102, 66
1, 159606, Note_on_c, 0, 80, 49
1, 159606, Control_c, 0, 64, 40
1, 159611, Note_on_c, 0, 75, 48
1, 159620, Note_off_c, 0, 90, 65
1, 159621, Control_c, 0, 64, 30
1, 159628, Note_off_c, 0, 80, 58
1, 159633, Note_off_c, 0, 75, 58
1, 159636, Control_c, 0, 64, 16
1, 159675, Note_on_c, 0, 102, 70
1, 159692, Note_off_c, 0, 102, 67
1, 159702, Note_on_c, 0, 80, 59
1, 159713, Note_on_c, 0, 73, 40
1, 159721, Note_off_c, 0, 80, 64
1, 159765, Note_off_c, 0, 73, 0
1, 159765, Note_on_c, 0, 73, 36
1, 159765, Note_on_c, 0, 100, 82
1, 159766, Note_on_c, 0, 88, 73
1, 159774, Poly_aftertouch_c, 0, 90, 0
1, 159788, Note_on_c, 0, 80, 49
1, 159792, Note_off_c, 0, 100, 61
1, 159795, Note_off_c, 0, 88, 61
1, 159804, Note_off_c, 0, 73, 64
1, 159810, Note_off_c, 0, 80, 59
1, 159863, Note_on_c, 0, 88, 63
1, 159863, Note_on_c, 0, 100, 73
1, 159881, Note_off_c, 0, 88, 66
1, 159887, Note_off_c, 0, 100, 64
1, 159892, Note_on_c, 0, 72, 40
1, 159892, Note_on_c, 0, 80, 39
1, 159918, Note_off_c, 0, 72, 53
1, 159919, Note_off_c, 0, 80, 50
1, 159960, Note_on_c, 0, 80, 57
1, 159963, Note_on_c, 0, 99, 74
1, 159964, Note_on_c, 0, 87, 84
1, 159972, Note_on_c, 0, 72, 39
1, 159983, Note_off_c, 0, 87, 69
1, 159987, Note_off_c, 0, 99, 62
1, 159987, Note_off_c, 0, 80, 65
1, 159996, Note_off_c, 0, 72, 55
1, 160056, Note_on_c, 0, 87, 76
1, 160066, Note_on_c, 0, 70, 69
1, 160068, Note_on_c, 0, 80, 65
1, 160070, Note_on_c, 0, 99, 55
1, 160076, Note_off_c, 0, 87, 70
1, 160090, Note_off_c, 0, 99, 60
1, 160092, Note_off_c, 0, 80, 65
1, 160129, Note_off_c, 0, 70, 0
1, 160139, Note_on_c, 0, 70, 52
1, 160150, Note_on_c, 0, 85, 84
1, 160154, Note_on_c, 0, 80, 73
1, 160154, Note_on_c, 0, 97, 80
1, 160176, Note_off_c, 0, 85, 63
1, 160177, Note_off_c, 0, 80, 66
1, 160187, Note_off_c, 0, 97, 52
1, 160215, Note_off_c, 0, 70, 0
1, 160235, Note_on_c, 0, 70, 39
1, 160237, Note_on_c, 0, 97, 74
1, 160243, Note_on_c, 0, 85, 83
1, 160247, Note_on_c, 0, 80, 68
1, 160262, Note_off_c, 0, 85, 68
1, 160278, Note_off_c, 0, 80, 59
1, 160284, Note_off_c, 0, 97, 62
1, 160330, Note_on_c, 0, 80, 67
1, 160330, Note_on_c, 0, 87, 88
1, 160335, Note_on_c, 0, 99, 89
1, 160340, Note_on_c, 0, 72, 70
1, 160344, Note_off_c, 0, 70, 44
1, 160373, Note_off_c, 0, 80, 60
1, 160374, Note_off_c, 0, 87, 62
1, 160376, Note_off_c, 0, 99, 57
1, 160422, Note_off_c, 0, 72, 0
1, 160422, Note_on_c, 0, 72, 4
1, 160425, Note_on_c, 0, 87, 70
1, 160429, Note_on_c, 0, 99, 67
1, 160440, Note_on_c, 0, 80, 53
1, 160453, Note_off_c, 0, 99, 65
1, 160465, Note_off_c, 0, 87, 60
1, 160470, Note_off_c, 0, 72, 61
1, 160474, Control_c, 0, 64, 0
1, 160479, Note_off_c, 0, 80, 0
1, 160505, Note_on_c, 0, 100, 92
1, 160507, Note_on_c, 0, 88, 86
1, 160513, Note_on_c, 0, 73, 75
1, 160515, Poly_aftertouch_c, 0, 80, 127
1, 160518, Control_c, 0, 64, 16
1, 160525, Poly_aftertouch_c, 0, 80, 0
1, 160532, Control_c, 0, 64, 57
1, 160547, Control_c, 0, 64, 73
1, 160555, Note_off_c, 0, 100, 64
1, 160556, Note_off_c, 0, 88, 62
1, 160559, Note_off_c, 0, 73, 63
1, 160562, Control_c, 0, 64, 91
1, 160585, Control_c, 0, 64, 127
1, 160718, Control_c, 0, 64, 84
1, 160728, Note_on_c, 0, 56, 75
1, 160733, Note_on_c, 0, 44, 75
1, 160733, Control_c, 0, 64, 61
1, 160747, Control_c, 0, 64, 41
1, 160753, Note_off_c, 0, 56, 64
1, 160762, Control_c, 0, 64, 29
1, 160765, Note_off_c, 0, 44, 59
1, 160777, Control_c, 0, 64, 27
1, 160792, Control_c, 0, 64, 22
1, 160805, Note_on_c, 0, 56, 71
1, 160822, Control_c, 0, 64, 0
1, 160825, Poly_aftertouch_c, 0, 44, 0
1, 160835, Note_off_c, 0, 56, 64
1, 160890, Note_on_c, 0, 55, 81
1, 160895, Note_on_c, 0, 43, 73
1, 160916, Note_off_c, 0, 55, 63
1, 160951, Note_off_c, 0, 43, 0
1, 160971, Note_on_c, 0, 55, 76
1, 160989, Poly_aftertouch_c, 0, 43, 127
1, 161008, Poly_aftertouch_c, 0, 43, 0
1, 161021, Note_off_c, 0, 55, 58
1, 161065, Note_on_c, 0, 54, 93
1, 161075, Note_on_c, 0, 42, 74
1, 161105, Note_off_c, 0, 54, 59
1, 161107, Note_off_c, 0, 42, 63
1, 161119, Control_c, 0, 64, 26
1, 161134, Control_c, 0, 64, 65
1, 161142, Note_on_c, 0, 54, 79
1, 161149, Control_c, 0, 64, 75
1, 161163, Control_c, 0, 64, 87
1, 161175, Note_on_c, 0, 42, 56
1, 161178, Control_c, 0, 64, 95
1, 161193, Control_c, 0, 64, 102
1, 161194, Note_off_c, 0, 54, 63
1, 161197, Note_off_c, 0, 42, 59
1, 161208, Control_c, 0, 64, 108
1, 161223, Control_c, 0, 64, 118
1, 161237, Control_c, 0, 64, 127
1, 161243, Note_on_c, 0, 54, 83
1, 161259, Note_on_c, 0, 66, 61
1, 161273, Note_off_c, 0, 54, 60
1, 161287, Note_off_c, 0, 66, 61
1, 161322, Note_on_c, 0, 54, 71
1, 161364, Note_on_c, 0, 66, 54
1, 161364, Note_off_c, 0, 54, 63
1, 161415, Note_off_c, 0, 66, 56
1, 161457, Note_on_c, 0, 78, 95
1, 161468, Note_on_c, 0, 66, 49
1, 161473, Note_off_c, 0, 78, 69
1, 161492, Note_off_c, 0, 66, 58
1, 161538, Note_on_c, 0, 78, 90
1, 161549, Note_on_c, 0, 66, 62
1, 161579, Note_off_c, 0, 66, 62
1, 161595, Note_off_c, 0, 78, 59
1, 161629, Note_on_c, 0, 78, 80
1, 161632, Note_on_c, 0, 90, 93
1, 161671, Note_off_c, 0, 78, 60
1, 161679, Note_off_c, 0, 90, 63
1, 161793, Control_c, 0, 64, 110
1, 161808, Control_c, 0, 64, 79
1, 161823, Control_c, 0, 64, 62
1, 161826, Note_on_c, 0, 88, 73
1, 161828, Note_on_c, 0, 100, 80
1, 161838, Control_c, 0, 64, 48
1, 161843, Note_on_c, 0, 78, 49
1, 161846, Note_on_c, 0, 73, 52
1, 161850, Note_off_c, 0, 88, 65
1, 161851, Note_off_c, 0, 100, 64
1, 161853, Control_c, 0, 64, 44
1, 161865, Note_off_c, 0, 78, 57
1, 161866, Note_off_c, 0, 73, 61
1, 161883, Control_c, 0, 64, 43
1, 161915, Note_on_c, 0, 100, 75
1, 161936, Note_on_c, 0, 78, 61
1, 161936, Note_off_c, 0, 100, 69
1, 161961, Note_off_c, 0, 78, 60
1, 162005, Note_on_c, 0, 99, 76
1, 162005, Note_on_c, 0, 71, 59
1, 162008, Note_on_c, 0, 87, 77
1, 162023, Note_off_c, 0, 87, 70
1, 162028, Poly_aftertouch_c, 0, 78, 0
1, 162032, Note_off_c, 0, 99, 59
1, 162041, Note_off_c, 0, 71, 61
1, 162099, Note_on_c, 0, 78, 68
1, 162100, Note_on_c, 0, 87, 80
1, 162109, Note_on_c, 0, 99, 70
1, 162110, Note_on_c, 0, 71, 45
1, 162121, Note_off_c, 0, 87, 67
1, 162133, Note_off_c, 0, 99, 65
1, 162136, Note_off_c, 0, 71, 60
1, 162137, Note_off_c, 0, 78, 61
1, 162196, Note_on_c, 0, 85, 84
1, 162197, Note_on_c, 0, 97, 84
1, 162202, Note_on_c, 0, 78, 69
1, 162204, Note_on_c, 0, 70, 78
1, 162226, Note_off_c, 0, 85, 62
1, 162232, Note_off_c, 0, 70, 59
1, 162232, Note_off_c, 0, 78, 57
1, 162241, Note_off_c, 0, 97, 46
1, 162293, Note_on_c, 0, 78, 66
1, 162297, Note_on_c, 0, 85, 80
1, 162305, Note_on_c, 0, 97, 65
1, 162322, Note_on_c, 0, 70, 25
1, 162323, Note_off_c, 0, 85, 60
1, 162324, Note_off_c, 0, 78, 61
1, 162326, Note_off_c, 0, 97, 63
1, 162355, Note_off_c, 0, 70, 32
1, 162395, Note_on_c, 0, 78, 70
1, 162396, Note_on_c, 0, 83, 88
1, 162396, Note_on_c, 0, 95, 83
1, 162396, Note_on_c, 0, 68, 71
1, 162422, Note_off_c, 0, 68, 61
1, 162424, Note_off_c, 0, 78, 63
1, 162429, Note_off_c, 0, 83, 63
1, 162437, Note_off_c, 0, 95, 63
1, 162490, Note_on_c, 0, 78, 69
1, 162491, Note_on_c, 0, 95, 71
1, 162500, Note_on_c, 0, 83, 64
1, 162505, Note_on_c, 0, 68, 49
1, 162518, Note_off_c, 0, 83, 64
1, 162525, Note_off_c, 0, 95, 59
1, 162526, Note_off_c, 0, 68, 60
1, 162528, Note_off_c, 0, 78, 58
1, 162575, Note_on_c, 0, 78, 66
1, 162583, Note_on_c, 0, 70, 71
1, 162583, Note_on_c, 0, 85, 81
1, 162588, Note_on_c, 0, 97, 75
1, 162601, Note_off_c, 0, 85, 72
1, 162612, Note_off_c, 0, 97, 60
1, 162616, Control_c, 0, 64, 43
1, 162617, Note_off_c, 0, 78, 60
1, 162625, Note_on_c, 0, 94, 10
1, 162626, Note_off_c, 0, 94, 127
1, 162646, Note_off_c, 0, 70, 0
1, 162646, Control_c, 0, 64, 42
1, 162664, Note_on_c, 0, 97, 68
1, 162667, Note_on_c, 0, 70, 30
1, 162667, Note_on_c, 0, 85, 74
1, 162674, Note_on_c, 0, 78, 62
1, 162676, Control_c, 0, 64, 42
1, 162690, Note_off_c, 0, 85, 68
1, 162702, Note_off_c, 0, 97, 59
1, 162706, Control_c, 0, 64, 40
1, 162708, Note_off_c, 0, 70, 62
1, 162720, Control_c, 0, 64, 39
1, 162729, Note_off_c, 0, 78, 0
1, 162735, Control_c, 0, 64, 37
1, 162746, Note_on_c, 0, 78, 39
1, 162750, Control_c, 0, 64, 37
1, 162755, Note_on_c, 0, 71, 67
1, 162762, Note_on_c, 0, 99, 88
1, 162771, Note_on_c, 0, 87, 70
1, 162778, Note_off_c, 0, 78, 65
1, 162780, Control_c, 0, 64, 50
1, 162795, Control_c, 0, 64, 66
1, 162795, Note_off_c, 0, 87, 69
1, 162801, Note_off_c, 0, 71, 62
1, 162809, Control_c, 0, 64, 81
1, 162831, Note_off_c, 0, 99, 57
1, 162831, Control_c, 0, 64, 114
1, 162846, Control_c, 0, 64, 127
1, 162980, Control_c, 0, 64, 103
1, 162981, Note_on_c, 0, 53, 87
1, 162988, Note_on_c, 0, 41, 76
1, 162995, Control_c, 0, 64, 73
1, 163008, Note_off_c, 0, 53, 67
1, 163009, Control_c, 0, 64, 56
1, 163016, Note_off_c, 0, 41, 65
1, 163024, Control_c, 0, 64, 37
1, 163039, Control_c, 0, 64, 25
1, 163053, Note_on_c, 0, 53, 79
1, 163053, Control_c, 0, 64, 22
1, 163068, Control_c, 0, 64, 0
1, 163069, Note_on_c, 0, 41, 73
1, 163093, Note_off_c, 0, 41, 66
1, 163093, Note_off_c, 0, 53, 64
1, 163150, Note_on_c, 0, 52, 94
1, 163156, Note_on_c, 0, 40, 79
1, 163188, Note_off_c, 0, 40, 66
1, 163192, Note_off_c, 0, 52, 59
1, 163239, Note_on_c, 0, 52, 79
1, 163242, Note_on_c, 0, 40, 65
1, 163279, Note_off_c, 0, 40, 64
1, 163288, Note_off_c, 0, 52, 62
1, 163337, Note_on_c, 0, 51, 91
1, 163351, Note_on_c, 0, 39, 66
1, 163372, Note_off_c, 0, 51, 58
1, 163386, Note_off_c, 0, 39, 65
1, 163395, Control_c, 0, 64, 58
1, 163410, Control_c, 0, 64, 72
1, 163421, Note_on_c, 0, 51, 81
1, 163424, Control_c, 0, 64, 83
1, 163439, Control_c, 0, 64, 100
1, 163448, Note_on_c, 0, 39, 52
1, 163454, Control_c, 0, 64, 122
1, 163469, Control_c, 0, 64, 127
1, 163476, Note_off_c, 0, 39, 58
1, 163477, Note_off_c, 0, 51, 60
1, 163520, Note_on_c, 0, 51, 71
1, 163533, Note_on_c, 0, 63, 51
1, 163555, Note_off_c, 0, 51, 61
1, 163564, Note_off_c, 0, 63, 51
1, 163606, Note_on_c, 0, 51, 70
1, 163624, Note_on_c, 0, 63, 51
1, 163634, Note_off_c, 0, 51, 65
1, 163697, Note_off_c, 0, 63, 59
1, 163728, Note_on_c, 0, 75, 90
1, 163730, Note_on_c, 0, 63, 59
1, 163745, Note_off_c, 0, 75, 71
1, 163761, Note_off_c, 0, 63, 58
1, 163807, Note_on_c, 0, 75, 92
1, 163812, Note_on_c, 0, 63, 61
1, 163855, Note_off_c, 0, 75, 62
1, 163857, Note_off_c, 0, 63, 53
1, 163910, Note_on_c, 0, 75, 87
1, 163911, Note_on_c, 0, 87, 90
1, 163946, Note_off_c, 0, 87, 58
1, 163949, Note_off_c, 0, 75, 58
1, 164097, Note_on_c, 0, 67, 59
1, 164099, Control_c, 0, 64, 85
1, 164101, Note_on_c, 0, 75, 86
1, 164101, Note_on_c, 0, 87, 81
1, 164107, Note_on_c, 0, 63, 53
1, 164114, Control_c, 0, 64, 61
1, 164115, Note_off_c, 0, 67, 63
1, 164119, Note_off_c, 0, 75, 71
1, 164121, Note_off_c, 0, 87, 70
1, 164129, Note_off_c, 0, 63, 62
1, 164129, Control_c, 0, 64, 38
1, 164144, Control_c, 0, 64, 27
1, 164181, Note_on_c, 0, 67, 74
1, 164191, Note_on_c, 0, 87, 82
1, 164192, Note_on_c, 0, 75, 80
1, 164198, Note_on_c, 0, 63, 39
1, 164203, Control_c, 0, 64, 27
1, 164205, Note_off_c, 0, 67, 66
1, 164210, Note_off_c, 0, 87, 70
1, 164213, Note_off_c, 0, 75, 69
1, 164226, Note_off_c, 0, 63, 54
1, 164268, Note_on_c, 0, 68, 81
1, 164279, Note_on_c, 0, 87, 87
1, 164279, Note_on_c, 0, 75, 85
1, 164285, Note_on_c, 0, 65, 60
1, 164291, Note_off_c, 0, 68, 59
1, 164291, Control_c, 0, 64, 26
1, 164309, Note_off_c, 0, 87, 60
1, 164310, Note_off_c, 0, 75, 61
1, 164312, Note_off_c, 0, 65, 64
1, 164364, Note_on_c, 0, 68, 77
1, 164375, Note_on_c, 0, 75, 80
1, 164379, Note_on_c, 0, 65, 60
1, 164387, Note_on_c, 0, 87, 75
1, 164400, Note_off_c, 0, 75, 64
1, 164407, Note_off_c, 0, 65, 65
1, 164411, Note_off_c, 0, 87, 67
1, 164412, Note_off_c, 0, 68, 55
1, 164433, Control_c, 0, 64, 26
1, 164448, Control_c, 0, 64, 25
1, 164462, Note_on_c, 0, 69, 81
1, 164462, Control_c, 0, 64, 24
1, 164464, Note_on_c, 0, 66, 78
1, 164469, Note_on_c, 0, 76, 90
1, 164470, Note_on_c, 0, 88, 83
1, 164477, Control_c, 0, 64, 24
1, 164496, Note_off_c, 0, 76, 65
1, 164497, Note_off_c, 0, 66, 59
1, 164500, Note_off_c, 0, 69, 63
1, 164506, Note_off_c, 0, 88, 59
1, 164559, Note_on_c, 0, 69, 71
1, 164562, Note_on_c, 0, 66, 71
1, 164569, Note_on_c, 0, 75, 87
1, 164571, Note_on_c, 0, 87, 78
1, 164581, Note_off_c, 0, 69, 66
1, 164586, Note_off_c, 0, 75, 72
1, 164589, Note_off_c, 0, 66, 63
1, 164592, Note_off_c, 0, 87, 66
1, 164652, Note_on_c, 0, 85, 34
1, 164654, Note_on_c, 0, 73, 89
1, 164659, Note_on_c, 0, 67, 75
1, 164662, Note_on_c, 0, 64, 66
1, 164672, Note_off_c, 0, 73, 67
1, 164682, Note_off_c, 0, 67, 65
1, 164691, Note_off_c, 0, 64, 62
1, 164693, Note_off_c, 0, 85, 60
1, 164753, Note_on_c, 0, 71, 92
1, 164756, Note_on_c, 0, 65, 69
1, 164759, Control_c, 0, 64, 23
1, 164765, Note_on_c, 0, 83, 71
1, 164773, Control_c, 0, 64, 23
1, 164779, Note_off_c, 0, 65, 68
1, 164780, Note_off_c, 0, 71, 67
1, 164788, Note_off_c, 0, 83, 68
1, 164843, Note_on_c, 0, 65, 82
1, 164848, Note_on_c, 0, 62, 20
1, 164852, Note_on_c, 0, 70, 99
1, 164858, Note_on_c, 0, 82, 82
1, 164864, Control_c, 0, 64, 22
1, 164873, Note_off_c, 0, 70, 65
1, 164876, Note_on_c, 0, 80, 34
1, 164878, Control_c, 0, 64, 18
1, 164879, Note_off_c, 0, 82, 68
1, 164880, Note_off_c, 0, 65, 63
1, 164898, Note_off_c, 0, 62, 56
1, 164906, Note_off_c, 0, 80, 42
1, 164908, Control_c, 0, 64, 0
1, 164928, Note_on_c, 0, 65, 62
1, 164939, Note_on_c, 0, 68, 87
1, 164941, Note_on_c, 0, 62, 47
1, 164950, Note_on_c, 0, 80, 66
1, 164977, Note_off_c, 0, 62, 63
1, 164977, Note_off_c, 0, 80, 63
1, 164979, Note_off_c, 0, 68, 56
1, 164982, Note_off_c, 0, 65, 62
1, 165035, Note_on_c, 0, 63, 83
1, 165036, Note_on_c, 0, 67, 90
1, 165040, Note_on_c, 0, 79, 85
1, 165052, Note_off_c, 0, 63, 70
1, 165056, Control_c, 0, 64, 28
1, 165078, Control_c, 0, 64, 64
1, 165087, Note_off_c, 0, 79, 62
1, 165091, Note_off_c, 0, 67, 62
1, 165093, Control_c, 0, 64, 80
1, 165108, Control_c, 0, 64, 109
1, 165123, Control_c, 0, 64, 127
1, 165233, Note_on_c, 0, 46, 84
1, 165237, Note_on_c, 0, 34, 79
1, 165256, Control_c, 0, 64, 108
1, 165257, Note_off_c, 0, 46, 65
1, 165261, Note_off_c, 0, 34, 65
1, 165271, Control_c, 0, 64, 76
1, 165282, Note_on_c, 0, 44, 10
1, 165286, Control_c, 0, 64, 56
1, 165301, Control_c, 0, 64, 22
1, 165314, Note_on_c, 0, 46, 88
1, 165316, Control_c, 0, 64, 0
1, 165328, Note_on_c, 0, 34, 63
1, 165328, Note_off_c, 0, 44, 41
1, 165345, Note_off_c, 0, 46, 62
1, 165356, Note_off_c, 0, 34, 63
1, 165413, Note_on_c, 0, 50, 87
1, 165418, Note_on_c, 0, 38, 73
1, 165441, Note_off_c, 0, 50, 66
1, 165455, Note_off_c, 0, 38, 63
1, 165502, Note_on_c, 0, 50, 79
1, 165508, Note_on_c, 0, 38, 64
1, 165535, Note_off_c, 0, 50, 64
1, 165537, Note_off_c, 0, 38, 64
1, 165598, Note_on_c, 0, 51, 95
1, 165606, Note_on_c, 0, 39, 74
1, 165642, Control_c, 0, 64, 61
1, 165644, Note_off_c, 0, 39, 64
1, 165652, Note_off_c, 0, 51, 58
1, 165657, Control_c, 0, 64, 75
1, 165672, Control_c, 0, 64, 88
1, 165686, Control_c, 0, 64, 110
1, 165689, Note_on_c, 0, 51, 67
1, 165701, Control_c, 0, 64, 127
1, 165744, Note_off_c, 0, 51, 58
1, 165767, Note_on_c, 0, 51, 68
1, 165781, Poly_aftertouch_c, 0, 39, 127
1, 165787, Note_on_c, 0, 63, 52
1, 165810, Note_off_c, 0, 63, 62
1, 165816, Note_off_c, 0, 51, 58
1, 165818, Poly_aftertouch_c, 0, 39, 0
1, 165826, Note_on_c, 0, 57, 17
1, 165865, Note_on_c, 0, 51, 59
1, 165871, Note_off_c, 0, 57, 55
1, 165894, Note_on_c, 0, 63, 62
1, 165913, Note_off_c, 0, 51, 58
1, 165960, Note_off_c, 0, 63, 59
1, 166011, Note_on_c, 0, 73, 74
1, 166011, Note_on_c, 0, 75, 80
1, 166025, Note_off_c, 0, 73, 69
1, 166031, Note_off_c, 0, 75, 69
1, 166041, Note_on_c, 0, 62, 22
1, 166082, Note_off_c, 0, 62, 47
1, 166083, Poly_aftertouch_c, 0, 63, 127
1, 166094, Note_on_c, 0, 63, 16
1, 166095, Note_on_c, 0, 75, 95
1, 166147, Note_off_c, 0, 63, 59
1, 166150, Note_off_c, 0, 75, 61
1, 166191, Note_on_c, 0, 75, 88
1, 166193, Note_on_c, 0, 87, 96
1, 166228, Note_off_c, 0, 75, 63
1, 166232, Note_off_c, 0, 87, 63
1, 166399, Note_on_c, 0, 87, 100
1, 166400, Note_on_c, 0, 99, 90
1, 166402, Note_on_c, 0, 75, 82
1, 166416, Note_off_c, 0, 87, 68
1, 166417, Note_off_c, 0, 99, 71
1, 166420, Note_on_c, 0, 67, 49
1, 166423, Note_on_c, 0, 92, 52
1, 166424, Note_off_c, 0, 92, 127
1, 166429, Note_off_c, 0, 75, 58
1, 166429, Note_on_c, 0, 97, 38
1, 166461, Note_off_c, 0, 97, 57
1, 166489, Note_on_c, 0, 75, 86
1, 166501, Note_on_c, 0, 87, 95
1, 166501, Note_on_c, 0, 99, 92
1, 166529, Note_off_c, 0, 67, 59
1, 166540, Note_off_c, 0, 99, 64
1, 166542, Note_off_c, 0, 87, 62
1, 166543, Note_off_c, 0, 75, 60
1, 166609, Note_on_c, 0, 77, 89
1, 166611, Note_on_c, 0, 68, 82
1, 166622, Note_on_c, 0, 99, 95
1, 166623, Note_on_c, 0, 87, 97
1, 166655, Note_off_c, 0, 68, 62
1, 166657, Note_off_c, 0, 77, 62
1, 166661, Note_off_c, 0, 87, 63
1, 166664, Note_off_c, 0, 99, 63
1, 166727, Note_on_c, 0, 77, 81
1, 166730, Note_on_c, 0, 87, 86
1, 166730, Note_on_c, 0, 99, 88
1, 166737, Note_on_c, 0, 68, 61
1, 166766, Note_off_c, 0, 68, 63
1, 166775, Note_off_c, 0, 77, 60
1, 166779, Note_off_c, 0, 87, 63
1, 166788, Note_off_c, 0, 99, 62
1, 166846, Note_on_c, 0, 78, 96
1, 166852, Note_on_c, 0, 88, 90
1, 166854, Note_on_c, 0, 100, 93
1, 166857, Control_c, 0, 64, 72
1, 166858, Note_on_c, 0, 69, 67
1, 166872, Control_c, 0, 64, 58
1, 166879, Note_off_c, 0, 69, 61
1, 166887, Control_c, 0, 64, 62
1, 166891, Note_off_c, 0, 88, 65
1, 166900, Note_off_c, 0, 78, 61
1, 166901, Control_c, 0, 64, 70
1, 166903, Note_off_c, 0, 100, 65
1, 166916, Control_c, 0, 64, 78
1, 166931, Control_c, 0, 64, 99
1, 166946, Control_c, 0, 64, 127
1, 166948, Note_on_c, 0, 78, 76
1, 166967, Note_on_c, 0, 99, 77
1, 166970, Note_on_c, 0, 69, 64
1, 166973, Note_on_c, 0, 87, 94
1, 166989, Note_off_c, 0, 87, 70
1, 166999, Note_off_c, 0, 69, 66
1, 167010, Note_off_c, 0, 78, 60
1, 167016, Note_off_c, 0, 99, 58
1, 167072, Note_on_c, 0, 70, 80
1, 167073, Note_on_c, 0, 79, 83
1, 167073, Note_on_c, 0, 85, 85
1, 167077, Note_on_c, 0, 97, 75
1, 167093, Note_off_c, 0, 85, 66
1, 167110, Note_off_c, 0, 79, 59
1, 167113, Note_off_c, 0, 70, 55
1, 167114, Note_off_c, 0, 97, 59
1, 167170, Note_on_c, 0, 83, 93
1, 167171, Note_on_c, 0, 95, 84
1, 167179, Note_on_c, 0, 79, 73
1, 167189, Note_on_c, 0, 70, 58
1, 167200, Note_off_c, 0, 79, 66
1, 167202, Note_off_c, 0, 83, 63
1, 167212, Note_off_c, 0, 95, 61
1, 167218, Note_off_c, 0, 70, 61
1, 167268, Note_on_c, 0, 77, 87
1, 167274, Note_on_c, 0, 82, 102
1, 167275, Note_on_c, 0, 94, 77
1, 167282, Note_on_c, 0, 74, 66
1, 167286, Note_on_c, 0, 92, 70
1, 167293, Note_off_c, 0, 82, 66
1, 167301, Note_off_c, 0, 94, 60
1, 167302, Note_off_c, 0, 92, 69
1, 167313, Note_off_c, 0, 77, 62
1, 167316, Note_off_c, 0, 74, 59
1, 167377, Note_on_c, 0, 92, 87
1, 167377, Note_on_c, 0, 74, 76
1, 167377, Note_on_c, 0, 80, 95
1, 167378, Note_on_c, 0, 77, 72
1, 167396, Note_off_c, 0, 77, 70
1, 167415, Note_off_c, 0, 80, 65
1, 167425, Note_off_c, 0, 74, 60
1, 167427, Note_off_c, 0, 92, 65
1, 167434, Note_on_c, 0, 90, 4
1, 167435, Note_off_c, 0, 90, 127
1, 167443, Control_c, 0, 64, 81
1, 167457, Control_c, 0, 64, 57
1, 167472, Control_c, 0, 64, 54
1, 167480, Note_on_c, 0, 75, 93
1, 167481, Note_on_c, 0, 70, 82
1, 167481, Note_on_c, 0, 79, 91
1, 167483, Note_on_c, 0, 91, 91
1, 167487, Control_c, 0, 64, 66
1, 167493, Poly_aftertouch_c, 0, 90, 0
1, 167502, Control_c, 0, 64, 76
1, 167508, Note_on_c, 0, 87, 48
1, 167509, Note_off_c, 0, 87, 127
1, 167509, Note_off_c, 0, 79, 68
1, 167517, Control_c, 0, 64, 96
1, 167519, Note_on_c, 0, 85, 32
1, 167520, Note_off_c, 0, 91, 62
1, 167522, Note_off_c, 0, 75, 60
1, 167526, Note_off_c, 0, 70, 57
1, 167532, Control_c, 0, 64, 127
1, 167551, Note_off_c, 0, 85, 34
1, 167563, Note_on_c, 0, 70, 68
1, 167582, Note_on_c, 0, 79, 88
1, 167582, Note_on_c, 0, 74, 66
1, 167585, Note_on_c, 0, 90, 82
1, 167596, Note_off_c, 0, 79, 73
1, 167598, Note_on_c, 0, 87, 58
1, 167599, Note_off_c, 0, 87, 127
1, 167606, Note_off_c, 0, 90, 67
1, 167608, Note_off_c, 0, 74, 64
1, 167618, Note_off_c, 0, 70, 58
1, 167678, Note_on_c, 0, 71, 80
1, 167681, Note_on_c, 0, 89, 81
1, 167681, Note_on_c, 0, 77, 90
1, 167698, Note_off_c, 0, 71, 68
1, 167698, Note_off_c, 0, 77, 71
1, 167700, Note_on_c, 0, 68, 31
1, 167710, Note_off_c, 0, 89, 57
1, 167718, Note_on_c, 0, 87, 24
1, 167719, Note_off_c, 0, 87, 127
1, 167723, Note_on_c, 0, 88, 27
1, 167724, Note_off_c, 0, 88, 127
1, 167731, Note_off_c, 0, 68, 44
1, 167765, Note_on_c, 0, 69, 58
1, 167772, Note_on_c, 0, 76, 96
1, 167777, Note_on_c, 0, 88, 58
1, 167785, Note_on_c, 0, 66, 69
1, 167785, Poly_aftertouch_c, 0, 85, 0
1, 167792, Note_on_c, 0, 82, 60
1, 167797, Note_off_c, 0, 76, 62
1, 167799, Note_on_c, 0, 86, 47
1, 167807, Note_off_c, 0, 66, 67
1, 167811, Note_off_c, 0, 82, 64
1, 167813, Note_off_c, 0, 86, 40
1, 167815, Note_off_c, 0, 69, 64
1, 167822, Note_off_c, 0, 88, 61
1, 167854, Poly_aftertouch_c, 0, 69, 0
1, 167861, Note_on_c, 0, 69, 70
1, 167874, Note_on_c, 0, 74, 91
1, 167883, Note_on_c, 0, 66, 68
1, 167886, Note_on_c, 0, 85, 72
1, 167888, Note_on_c, 0, 73, 70
1, 167894, Note_off_c, 0, 74, 71
1, 167895, Note_on_c, 0, 82, 53
1, 167896, Note_off_c, 0, 82, 127
1, 167904, Note_off_c, 0, 73, 68
1, 167907, Note_off_c, 0, 66, 67
1, 167907, Note_off_c, 0, 69, 64
1, 167907, Note_off_c, 0, 85, 60
1, 167967, Note_on_c, 0, 75, 85
1, 167975, Note_on_c, 0, 67, 80
1, 167979, Note_on_c, 0, 70, 71
1, 167992, Note_off_c, 0, 75, 62
1, 168001, Note_off_c, 0, 70, 67
1, 168023, Note_off_c, 0, 67, 60
1, 168051, Control_c, 0, 64, 110
1, 168073, Note_on_c, 0, 76, 96
1, 168073, Control_c, 0, 64, 71
1, 168075, Note_on_c, 0, 88, 86
1, 168076, Note_on_c, 0, 67, 71
1, 168085, Poly_aftertouch_c, 0, 68, 127
1, 168088, Control_c, 0, 64, 59
1, 168092, Note_on_c, 0, 87, 60
1, 168094, Note_on_c, 0, 71, 66
1, 168098, Note_on_c, 0, 70, 45
1, 168103, Control_c, 0, 64, 65
1, 168104, Note_off_c, 0, 76, 65
1, 168111, Poly_aftertouch_c, 0, 68, 0
1, 168111, Note_off_c, 0, 87, 65
1, 168118, Control_c, 0, 64, 76
1, 168119, Note_off_c, 0, 70, 59
1, 168119, Note_off_c, 0, 71, 67
1, 168123, Note_off_c, 0, 88, 62
1, 168130, Note_off_c, 0, 67, 62
1, 168133, Control_c, 0, 64, 94
1, 168147, Control_c, 0, 64, 127
1, 168183, Note_on_c, 0, 75, 99
1, 168185, Note_on_c, 0, 87, 79
1, 168192, Note_on_c, 0, 85, 80
1, 168194, Note_on_c, 0, 65, 64
1, 168198, Note_off_c, 0, 75, 71
1, 168203, Note_on_c, 0, 67, 52
1, 168205, Note_on_c, 0, 64, 59
1, 168206, Note_off_c, 0, 85, 70
1, 168208, Note_off_c, 0, 87, 63
1, 168225, Note_off_c, 0, 65, 63
1, 168225, Note_off_c, 0, 67, 58
1, 168234, Note_off_c, 0, 64, 62
1, 168273, Note_on_c, 0, 73, 94
1, 168273, Note_on_c, 0, 85, 76
1, 168283, Note_on_c, 0, 67, 83
1, 168292, Note_on_c, 0, 64, 67
1, 168296, Note_off_c, 0, 73, 58
1, 168301, Note_off_c, 0, 85, 59
1, 168303, Note_off_c, 0, 67, 69
1, 168315, Note_off_c, 0, 64, 67
1, 168367, Note_on_c, 0, 71, 94
1, 168370, Note_on_c, 0, 83, 92
1, 168378, Note_on_c, 0, 62, 77
1, 168390, Note_on_c, 0, 65, 57
1, 168390, Note_on_c, 0, 67, 64
1, 168393, Note_off_c, 0, 71, 64
1, 168398, Note_off_c, 0, 83, 59
1, 168403, Note_off_c, 0, 67, 70
1, 168410, Note_off_c, 0, 65, 63
1, 168431, Note_off_c, 0, 62, 54
1, 168459, Note_on_c, 0, 70, 99
1, 168459, Note_on_c, 0, 65, 89
1, 168462, Note_on_c, 0, 82, 79
1, 168462, Note_on_c, 0, 62, 45
1, 168477, Note_on_c, 0, 80, 64
1, 168488, Note_off_c, 0, 70, 59
1, 168495, Note_off_c, 0, 80, 64
1, 168499, Note_off_c, 0, 82, 47
1, 168505, Note_off_c, 0, 65, 60
1, 168517, Note_off_c, 0, 62, 54
1, 168554, Note_on_c, 0, 68, 94
1, 168556, Note_on_c, 0, 80, 81
1, 168581, Note_on_c, 0, 63, 69
1, 168589, Note_off_c, 0, 68, 64
1, 168593, Note_on_c, 0, 59, 62
1, 168597, Note_off_c, 0, 80, 66
1, 168599, Note_off_c, 0, 63, 64
1, 168606, Control_c, 0, 64, 95
1, 168613, Note_off_c, 0, 59, 64
1, 168621, Control_c, 0, 64, 64
1, 168622, Note_on_c, 0, 64, 21
1, 168636, Control_c, 0, 64, 30
1, 168651, Control_c, 0, 64, 22
1, 168654, Note_on_c, 0, 67, 99
1, 168658, Note_on_c, 0, 79, 92
1, 168659, Note_off_c, 0, 64, 39
1, 168663, Note_on_c, 0, 63, 85
1, 168665, Control_c, 0, 64, 51
1, 168674, Note_on_c, 0, 73, 72
1, 168680, Control_c, 0, 64, 68
1, 168689, Note_off_c, 0, 73, 68
1, 168692, Note_off_c, 0, 67, 63
1, 168695, Control_c, 0, 64, 83
1, 168702, Note_off_c, 0, 63, 61
1, 168706, Note_off_c, 0, 79, 61
1, 168711, Control_c, 0, 64, 107
1, 168726, Control_c, 0, 64, 127
1, 168766, Note_on_c, 0, 66, 94
1, 168768, Note_on_c, 0, 78, 90
1, 168769, Note_on_c, 0, 60, 69
1, 168775, Poly_aftertouch_c, 0, 75, 0
1, 168778, Note_on_c, 0, 75, 43
1, 168779, Note_off_c, 0, 75, 127
1, 168783, Note_on_c, 0, 73, 54
1, 168787, Note_off_c, 0, 66, 66
1, 168795, Note_off_c, 0, 60, 64
1, 168805, Note_off_c, 0, 73, 59
1, 168820, Note_off_c, 0, 78, 57
1, 168833, Poly_aftertouch_c, 0, 56, 127
1, 168865, Poly_aftertouch_c, 0, 56, 0
1, 168868, Note_on_c, 0, 58, 75
1, 168881, Note_on_c, 0, 65, 86
1, 168888, Note_on_c, 0, 77, 75
1, 168889, Note_on_c, 0, 73, 71
1, 168893, Note_on_c, 0, 75, 55
1, 168894, Note_off_c, 0, 75, 127
1, 168897, Note_off_c, 0, 65, 72
1, 168906, Note_on_c, 0, 59, 47
1, 168906, Note_off_c, 0, 73, 66
1, 168908, Note_off_c, 0, 58, 55
1, 168909, Note_on_c, 0, 66, 30
1, 168909, Note_off_c, 0, 77, 66
1, 168930, Note_off_c, 0, 66, 62
1, 168932, Note_off_c, 0, 59, 57
1, 168965, Poly_aftertouch_c, 0, 55, 127
1, 168978, Note_on_c, 0, 57, 79
1, 168982, Note_on_c, 0, 62, 82
1, 168984, Note_on_c, 0, 64, 73
1, 168984, Note_on_c, 0, 76, 69
1, 168991, Poly_aftertouch_c, 0, 55, 0
1, 168994, Note_on_c, 0, 73, 54
1, 168995, Note_off_c, 0, 73, 127
1, 169001, Note_off_c, 0, 64, 67
1, 169001, Note_off_c, 0, 76, 66
1, 169005, Note_off_c, 0, 62, 64
1, 169013, Note_on_c, 0, 54, 31
1, 169013, Note_off_c, 0, 57, 60
1, 169055, Note_off_c, 0, 54, 0
1, 169058, Note_on_c, 0, 74, 62
1, 169061, Note_on_c, 0, 62, 91
1, 169067, Note_on_c, 0, 57, 79
1, 169072, Note_on_c, 0, 54, 61
1, 169074, Note_on_c, 0, 70, 40
1, 169076, Note_off_c, 0, 70, 51
1, 169093, Note_off_c, 0, 62, 64
1, 169096, Note_on_c, 0, 73, 40
1, 169104, Note_on_c, 0, 68, 28
1, 169113, Note_off_c, 0, 57, 59
1, 169114, Note_off_c, 0, 54, 60
1, 169120, Note_off_c, 0, 74, 60
1, 169123, Note_off_c, 0, 73, 56
1, 169135, Note_off_c, 0, 68, 52
1, 169156, Note_on_c, 0, 57, 57
1, 169159, Note_on_c, 0, 63, 96
1, 169161, Note_on_c, 0, 54, 60
1, 169169, Poly_aftertouch_c, 0, 64, 0
1, 169173, Note_on_c, 0, 75, 72
1, 169198, Note_off_c, 0, 57, 61
1, 169198, Note_off_c, 0, 63, 57
1, 169201, Note_on_c, 0, 73, 38
1, 169201, Note_off_c, 0, 54, 60
1, 169204, Note_off_c, 0, 75, 59
1, 169228, Note_off_c, 0, 73, 53
1, 169252, Control_c, 0, 64, 83
1, 169263, Note_on_c, 0, 55, 76
1, 169264, Note_on_c, 0, 58, 86
1, 169264, Note_on_c, 0, 64, 91
1, 169267, Note_on_c, 0, 76, 93
1, 169267, Control_c, 0, 64, 61
1, 169282, Control_c, 0, 64, 56
1, 169293, Note_on_c, 0, 65, 49
1, 169294, Note_off_c, 0, 65, 127
1, 169296, Control_c, 0, 64, 65
1, 169303, Note_off_c, 0, 58, 57
1, 169306, Note_off_c, 0, 64, 62
1, 169311, Note_off_c, 0, 76, 64
1, 169311, Control_c, 0, 64, 76
1, 169314, Note_off_c, 0, 55, 60
1, 169326, Control_c, 0, 64, 94
1, 169341, Control_c, 0, 64, 127
1, 169346, Note_on_c, 0, 55, 62
1, 169347, Note_on_c, 0, 58, 71
1, 169368, Note_on_c, 0, 63, 96
1, 169369, Note_on_c, 0, 75, 80
1, 169384, Note_off_c, 0, 58, 61
1, 169386, Note_off_c, 0, 63, 69
1, 169389, Note_on_c, 0, 73, 53
1, 169395, Note_off_c, 0, 55, 59
1, 169412, Note_off_c, 0, 73, 61
1, 169424, Note_off_c, 0, 75, 55
1, 169453, Note_on_c, 0, 55, 79
1, 169453, Note_on_c, 0, 61, 90
1, 169454, Note_on_c, 0, 52, 84
1, 169457, Note_on_c, 0, 73, 66
1, 169475, Note_off_c, 0, 61, 61
1, 169481, Note_on_c, 0, 70, 44
1, 169484, Note_off_c, 0, 55, 63
1, 169493, Note_off_c, 0, 52, 57
1, 169501, Note_off_c, 0, 73, 59
1, 169505, Note_off_c, 0, 70, 58
1, 169547, Note_on_c, 0, 55, 84
1, 169555, Note_on_c, 0, 59, 94
1, 169560, Note_on_c, 0, 71, 75
1, 169574, Note_off_c, 0, 55, 65
1, 169576, Note_on_c, 0, 52, 55
1, 169588, Note_on_c, 0, 50, 33
1, 169590, Note_off_c, 0, 59, 62
1, 169591, Note_off_c, 0, 71, 63
1, 169598, Note_off_c, 0, 52, 59
1, 169627, Note_off_c, 0, 50, 0
1, 169643, Note_on_c, 0, 53, 84
1, 169645, Note_on_c, 0, 50, 59
1, 169651, Note_on_c, 0, 58, 96
1, 169652, Note_on_c, 0, 70, 69
1, 169669, Note_on_c, 0, 68, 65
1, 169689, Note_off_c, 0, 68, 61
1, 169690, Note_off_c, 0, 58, 58
1, 169692, Note_off_c, 0, 53, 60
1, 169714, Note_on_c, 0, 52, 3
1, 169718, Note_off_c, 0, 70, 52
1, 169720, Note_off_c, 0, 50, 0
1, 169730, Note_off_c, 0, 52, 0
1, 169733, Note_on_c, 0, 53, 72
1, 169735, Note_on_c, 0, 50, 51
1, 169749, Note_on_c, 0, 56, 82
1, 169752, Poly_aftertouch_c, 0, 52, 0
1, 169758, Note_on_c, 0, 68, 76
1, 169779, Note_off_c, 0, 56, 60
1, 169779, Note_off_c, 0, 53, 62
1, 169787, Note_on_c, 0, 58, 34
1, 169787, Note_off_c, 0, 68, 59
1, 169791, Note_off_c, 0, 50, 61
1, 169812, Note_off_c, 0, 58, 57
1, 169821, Poly_aftertouch_c, 0, 52, 0
1, 169822, Control_c, 0, 64, 93
1, 169837, Control_c, 0, 64, 57
1, 169843, Note_on_c, 0, 55, 96
1, 169845, Note_on_c, 0, 46, 83
1, 169846, Note_on_c, 0, 67, 83
1, 169847, Note_on_c, 0, 51, 90
1, 169851, Control_c, 0, 64, 33
1, 169866, Control_c, 0, 64, 49
1, 169871, Note_on_c, 0, 61, 50
1, 169871, Note_on_c, 0, 63, 50
1, 169878, Note_off_c, 0, 51, 61
1, 169881, Control_c, 0, 64, 64
1, 169884, Note_off_c, 0, 55, 64
1, 169890, Note_off_c, 0, 67, 60
1, 169892, Note_off_c, 0, 61, 61
1, 169892, Note_off_c, 0, 63, 62
1, 169896, Control_c, 0, 64, 74
1, 169901, Note_off_c, 0, 46, 59
1, 169910, Control_c, 0, 64, 85
1, 169925, Control_c, 0, 64, 112
1, 169931, Note_on_c, 0, 46, 64
1, 169940, Control_c, 0, 64, 127
1, 169943, Note_on_c, 0, 51, 74
1, 169952, Note_on_c, 0, 66, 45
1, 169956, Note_on_c, 0, 54, 92
1, 169968, Note_off_c, 0, 51, 64
1, 169970, Note_on_c, 0, 63, 62
1, 169971, Note_off_c, 0, 63, 127
1, 169985, Note_off_c, 0, 46, 59
1, 169988, Note_on_c, 0, 61, 28
1, 170004, Note_off_c, 0, 54, 59
1, 170010, Note_off_c, 0, 66, 60
1, 170019, Note_off_c, 0, 61, 53
1, 170045, Note_on_c, 0, 44, 80
1, 170046, Note_on_c, 0, 53, 91
1, 170049, Note_on_c, 0, 47, 83
1, 170051, Note_on_c, 0, 65, 82
1, 170065, Note_on_c, 0, 63, 53
1, 170073, Note_off_c, 0, 47, 67
1, 170079, Note_off_c, 0, 44, 62
1, 170085, Note_off_c, 0, 53, 63
1, 170086, Note_off_c, 0, 63, 64
1, 170099, Note_off_c, 0, 65, 55
1, 170144, Note_on_c, 0, 47, 85
1, 170149, Note_on_c, 0, 52, 89
1, 170149, Note_on_c, 0, 64, 75
1, 170156, Note_on_c, 0, 44, 61
1, 170165, Note_off_c, 0, 47, 67
1, 170177, Note_off_c, 0, 64, 60
1, 170182, Note_off_c, 0, 44, 61
1, 170186, Note_off_c, 0, 52, 58
1, 170224, Note_on_c, 0, 45, 70
1, 170232, Poly_aftertouch_c, 0, 62, 127
1, 170235, Note_on_c, 0, 64, 71
1, 170235, Note_on_c, 0, 50, 85
1, 170240, Note_on_c, 0, 42, 72
1, 170247, Note_on_c, 0, 52, 77
1, 170283, Note_off_c, 0, 42, 59
1, 170285, Note_off_c, 0, 64, 60
1, 170286, Note_off_c, 0, 45, 54
1, 170304, Poly_aftertouch_c, 0, 62, 0
1, 170327, Note_on_c, 0, 45, 57
1, 170336, Note_on_c, 0, 63, 83
1, 170338, Note_on_c, 0, 53, 77
1, 170341, Note_on_c, 0, 42, 64
1, 170365, Note_off_c, 0, 52, 58
1, 170366, Note_off_c, 0, 53, 54
1, 170371, Note_off_c, 0, 42, 64
1, 170378, Note_off_c, 0, 45, 58
1, 170389, Note_off_c, 0, 50, 0
1, 170407, Note_off_c, 0, 63, 59
1, 170416, Poly_aftertouch_c, 0, 50, 0
1, 170423, Poly_aftertouch_c, 0, 61, 127
1, 170437, Control_c, 0, 64, 92
1, 170439, Note_on_c, 0, 46, 90
1, 170441, Note_on_c, 0, 43, 81
1, 170441, Note_on_c, 0, 52, 94
1, 170444, Note_on_c, 0, 64, 84
1, 170453, Control_c, 0, 64, 64
1, 170455, Note_on_c, 0, 63, 35
1, 170468, Control_c, 0, 64, 37
1, 170482, Control_c, 0, 64, 36
1, 170483, Note_on_c, 0, 58, 37
1, 170487, Note_off_c, 0, 63, 56
1, 170495, Note_off_c, 0, 46, 60
1, 170497, Poly_aftertouch_c, 0, 61, 0
1, 170497, Control_c, 0, 64, 52
1, 170501, Note_off_c, 0, 52, 59
1, 170501, Note_off_c, 0, 64, 61
1, 170507, Note_off_c, 0, 43, 61
1, 170512, Control_c, 0, 64, 65
1, 170517, Note_off_c, 0, 58, 35
1, 170527, Control_c, 0, 64, 74
1, 170541, Control_c, 0, 64, 89
1, 170549, Note_on_c, 0, 43, 58
1, 170549, Note_on_c, 0, 46, 75
1, 170556, Control_c, 0, 64, 110
1, 170567, Note_on_c, 0, 52, 87
1, 170571, Control_c, 0, 64, 127
1, 170575, Note_on_c, 0, 63, 55
1, 170580, Note_on_c, 0, 64, 76
1, 170602, Note_off_c, 0, 64, 63
1, 170604, Note_on_c, 0, 61, 41
1, 170612, Note_off_c, 0, 63, 59
1, 170614, Note_off_c, 0, 46, 58
1, 170621, Note_off_c, 0, 43, 60
1, 170626, Note_off_c, 0, 52, 57
1, 170632, Note_off_c, 0, 61, 57
1, 170648, Poly_aftertouch_c, 0, 58, 127
1, 170661, Note_on_c, 0, 46, 71
1, 170662, Note_on_c, 0, 43, 61
1, 170681, Note_on_c, 0, 52, 82
1, 170681, Poly_aftertouch_c, 0, 58, 0
1, 170692, Note_on_c, 0, 61, 71
1, 170694, Poly_aftertouch_c, 0, 58, 0
1, 170708, Note_on_c, 0, 62, 72
1, 170736, Note_off_c, 0, 62, 64
1, 170737, Note_off_c, 0, 52, 57
1, 170740, Note_off_c, 0, 46, 57
1, 170747, Note_off_c, 0, 43, 58
1, 170766, Note_off_c, 0, 61, 54
1, 170784, Note_on_c, 0, 43, 53
1, 170786, Note_on_c, 0, 46, 69
1, 170801, Note_on_c, 0, 53, 88
1, 170801, Note_on_c, 0, 59, 80
1, 170813, Note_on_c, 0, 60, 68
1, 170834, Note_off_c, 0, 60, 40
1, 170867, Note_off_c, 0, 53, 59
1, 170867, Note_off_c, 0, 46, 56
1, 170870, Note_off_c, 0, 43, 60
1, 170879, Note_off_c, 0, 59, 60
1, 170883, Poly_aftertouch_c, 0, 47, 127
1, 170925, Poly_aftertouch_c, 0, 47, 0
1, 170938, Note_on_c, 0, 47, 77
1, 170941, Control_c, 0, 64, 98
1, 170945, Note_on_c, 0, 58, 95
1, 170951, Note_on_c, 0, 38, 80
1, 170951, Note_on_c, 0, 53, 88
1, 170956, Control_c, 0, 64, 69
1, 170971, Control_c, 0, 64, 40
1, 170985, Control_c, 0, 64, 0
1, 171000, Control_c, 0, 64, 28
1, 171011, Note_off_c, 0, 53, 59
1, 171015, Note_off_c, 0, 38, 53
1, 171015, Control_c, 0, 64, 57
1, 171030, Note_off_c, 0, 47, 60
1, 171030, Control_c, 0, 64, 69
1, 171033, Note_off_c, 0, 58, 60
1, 171045, Control_c, 0, 64, 80
1, 171060, Control_c, 0, 64, 92
1, 171082, Control_c, 0, 64, 103
1, 171097, Control_c, 0, 64, 110
1, 171106, Note_on_c, 0, 56, 92
1, 171112, Note_on_c, 0, 53, 88
1, 171112, Control_c, 0, 64, 111
1, 171113, Note_on_c, 0, 47, 89
1, 171118, Note_on_c, 0, 38, 71
1, 171188, Note_off_c, 0, 53, 50
1, 171203, Note_off_c, 0, 38, 55
1, 171226, Note_off_c, 0, 47, 48
1, 171245, Note_off_c, 0, 56, 56
1, 171261, Control_c, 0, 64, 111
1, 171276, Control_c, 0, 64, 100
1, 171290, Control_c, 0, 64, 77
1, 171305, Control_c, 0, 64, 48
1, 171308, Note_on_c, 0, 46, 87
1, 171313, Note_on_c, 0, 55, 101
1, 171319, Note_on_c, 0, 39, 72
1, 171320, Control_c, 0, 64, 0
1, 171379, Control_c, 0, 64, 55
1, 171383, Note_off_c, 0, 46, 61
1, 171386, Note_off_c, 0, 39, 61
1, 171394, Control_c, 0, 64, 70
1, 171409, Control_c, 0, 64, 82
1, 171422, Note_off_c, 0, 55, 60
1, 171423, Control_c, 0, 64, 105
1, 171438, Control_c, 0, 64, 127
1, 171552, Note_on_c, 0, 62, 79
1, 171553, Note_on_c, 0, 50, 80
1, 171600, Note_off_c, 0, 50, 58
1, 171621, Note_off_c, 0, 62, 55
1, 171681, Note_on_c, 0, 50, 90
1, 171722, Note_off_c, 0, 50, 58
1, 171735, Note_on_c, 0, 63, 79
1, 171739, Note_on_c, 0, 51, 80
1, 171761, Note_off_c, 0, 51, 68
1, 171787, Note_off_c, 0, 63, 57
1, 171819, Note_on_c, 0, 51, 92
1, 171866, Note_off_c, 0, 51, 61
1, 171885, Note_on_c, 0, 57, 82
1, 171887, Note_on_c, 0, 69, 80
1, 171910, Note_off_c, 0, 57, 65
1, 171931, Note_off_c, 0, 69, 59
1, 171967, Note_on_c, 0, 57, 87
1, 172009, Note_off_c, 0, 57, 62
1, 172022, Note_on_c, 0, 70, 85
1, 172024, Note_on_c, 0, 58, 84
1, 172045, Note_off_c, 0, 58, 68
1, 172069, Note_off_c, 0, 70, 61
1, 172093, Note_on_c, 0, 58, 93
1, 172126, Poly_aftertouch_c, 0, 68, 0
1, 172142, Note_off_c, 0, 58, 62
1, 172164, Note_on_c, 0, 62, 82
1, 172169, Note_on_c, 0, 74, 67
1, 172174, Note_on_c, 0, 76, 66
1, 172185, Note_off_c, 0, 62, 67
1, 172185, Note_on_c, 0, 64, 43
1, 172197, Note_off_c, 0, 74, 65
1, 172200, Note_off_c, 0, 76, 63
1, 172212, Note_off_c, 0, 64, 56
1, 172232, Note_on_c, 0, 62, 89
1, 172274, Note_off_c, 0, 62, 62
1, 172295, Note_on_c, 0, 63, 82
1, 172298, Note_on_c, 0, 75, 80
1, 172316, Note_on_c, 0, 73, 55
1, 172317, Note_off_c, 0, 73, 127
1, 172322, Note_off_c, 0, 63, 62
1, 172342, Note_off_c, 0, 75, 57
1, 172357, Note_on_c, 0, 63, 82
1, 172410, Note_off_c, 0, 63, 61
1, 172429, Note_on_c, 0, 69, 88
1, 172430, Note_on_c, 0, 81, 83
1, 172451, Note_off_c, 0, 69, 65
1, 172477, Note_off_c, 0, 81, 58
1, 172501, Note_on_c, 0, 69, 87
1, 172509, Note_on_c, 0, 57, 72
1, 172531, Note_off_c, 0, 57, 68
1, 172540, Note_off_c, 0, 69, 64
1, 172571, Note_on_c, 0, 82, 89
1, 172573, Note_on_c, 0, 70, 87
1, 172602, Note_off_c, 0, 70, 60
1, 172608, Note_on_c, 0, 80, 29
1, 172609, Note_off_c, 0, 80, 127
1, 172615, Note_off_c, 0, 82, 65
1, 172632, Note_on_c, 0, 70, 84
1, 172636, Note_on_c, 0, 58, 74
1, 172686, Note_off_c, 0, 70, 58
1, 172687, Note_off_c, 0, 58, 57
1, 172703, Note_on_c, 0, 74, 89
1, 172704, Note_on_c, 0, 86, 85
1, 172742, Note_off_c, 0, 74, 60
1, 172751, Note_off_c, 0, 86, 63
1, 172783, Note_on_c, 0, 74, 97
1, 172794, Note_on_c, 0, 62, 77
1, 172811, Poly_aftertouch_c, 0, 82, 0
1, 172814, Note_off_c, 0, 62, 70
1, 172820, Note_off_c, 0, 74, 64
1, 172839, Note_on_c, 0, 87, 87
1, 172842, Note_on_c, 0, 75, 86
1, 172861, Note_off_c, 0, 75, 68
1, 172870, Note_on_c, 0, 85, 39
1, 172871, Note_off_c, 0, 85, 127
1, 172874, Poly_aftertouch_c, 0, 63, 0
1, 172880, Note_off_c, 0, 87, 65
1, 172900, Note_on_c, 0, 63, 28
1, 172911, Note_on_c, 0, 75, 91
1, 172944, Note_off_c, 0, 63, 60
1, 172948, Note_on_c, 0, 76, 45
1, 172949, Note_off_c, 0, 76, 127
1, 172954, Note_off_c, 0, 75, 60
1, 172970, Note_on_c, 0, 93, 87
1, 172973, Note_on_c, 0, 81, 86
1, 172975, Poly_aftertouch_c, 0, 76, 0
1, 172999, Note_off_c, 0, 81, 63
1, 173017, Note_off_c, 0, 93, 62
1, 173057, Note_on_c, 0, 81, 92
1, 173065, Note_on_c, 0, 69, 76
1, 173088, Note_off_c, 0, 69, 69
1, 173098, Note_on_c, 0, 70, 35
1, 173099, Note_off_c, 0, 81, 61
1, 173115, Note_on_c, 0, 94, 86
1, 173117, Note_on_c, 0, 82, 83
1, 173127, Note_off_c, 0, 70, 53
1, 173137, Note_off_c, 0, 82, 68
1, 173146, Note_on_c, 0, 92, 40
1, 173147, Note_off_c, 0, 92, 127
1, 173154, Note_off_c, 0, 94, 66
1, 173191, Note_on_c, 0, 82, 98
1, 173196, Note_on_c, 0, 70, 84
1, 173235, Note_off_c, 0, 70, 50
1, 173242, Note_off_c, 0, 82, 63
1, 173249, Note_on_c, 0, 98, 83
1, 173257, Note_on_c, 0, 86, 76
1, 173277, Note_off_c, 0, 86, 68
1, 173312, Note_off_c, 0, 98, 64
1, 173348, Note_on_c, 0, 86, 97
1, 173356, Note_on_c, 0, 74, 80
1, 173380, Note_off_c, 0, 74, 67
1, 173382, Note_on_c, 0, 75, 39
1, 173395, Note_off_c, 0, 86, 55
1, 173408, Note_on_c, 0, 99, 83
1, 173410, Note_off_c, 0, 75, 54
1, 173465, Note_off_c, 0, 99, 61
1, 173496, Note_on_c, 0, 75, 78
1, 173499, Note_on_c, 0, 87, 103
1, 173558, Note_on_c, 0, 99, 88
1, 173573, Note_off_c, 0, 87, 62
1, 173576, Note_off_c, 0, 75, 61
1, 173625, Note_off_c, 0, 99, 60
1, 173670, Control_c, 0, 64, 79
1, 173675, Note_on_c, 0, 85, 103
1, 173675, Note_on_c, 0, 73, 83
1, 173684, Control_c, 0, 64, 53
1, 173699, Control_c, 0, 64, 31
1, 173714, Control_c, 0, 64, 47
1, 173729, Control_c, 0, 64, 62
1, 173744, Control_c, 0, 64, 71
1, 173748, Note_off_c, 0, 85, 64
1, 173751, Note_off_c, 0, 73, 63
1, 173756, Note_on_c, 0, 99, 88
1, 173759, Control_c, 0, 64, 83
1, 173762, Note_on_c, 0, 87, 88
1, 173774, Control_c, 0, 64, 105
1, 173789, Control_c, 0, 64, 127
1, 173795, Note_off_c, 0, 87, 60
1, 173811, Note_off_c, 0, 99, 61
1, 173850, Note_on_c, 0, 82, 103
1, 173854, Note_on_c, 0, 70, 89
1, 173900, Note_off_c, 0, 82, 64
1, 173908, Note_off_c, 0, 70, 60
1, 173926, Note_on_c, 0, 99, 86
1, 173932, Note_on_c, 0, 87, 86
1, 173953, Note_off_c, 0, 87, 67
1, 173960, Note_off_c, 0, 99, 51
1, 174003, Note_on_c, 0, 79, 98
1, 174023, Note_on_c, 0, 67, 63
1, 174032, Note_on_c, 0, 70, 47
1, 174039, Note_off_c, 0, 79, 63
1, 174043, Note_off_c, 0, 67, 64
1, 174063, Note_off_c, 0, 70, 57
1, 174063, Note_on_c, 0, 99, 86
1, 174067, Note_on_c, 0, 87, 88
1, 174099, Note_on_c, 0, 97, 31
1, 174100, Note_off_c, 0, 97, 127
1, 174113, Note_off_c, 0, 87, 62
1, 174116, Note_off_c, 0, 99, 62
1, 174150, Note_on_c, 0, 75, 96
1, 174170, Note_on_c, 0, 64, 60
1, 174174, Note_on_c, 0, 66, 52
1, 174185, Note_on_c, 0, 76, 47
1, 174186, Note_off_c, 0, 76, 127
1, 174191, Note_off_c, 0, 64, 63
1, 174195, Note_off_c, 0, 75, 62
1, 174196, Note_off_c, 0, 66, 63
1, 174206, Note_on_c, 0, 99, 91
1, 174209, Note_on_c, 0, 87, 92
1, 174232, Note_on_c, 0, 97, 44
1, 174257, Note_off_c, 0, 87, 61
1, 174257, Note_off_c, 0, 99, 61
1, 174262, Note_off_c, 0, 97, 37
1, 174263, Poly_aftertouch_c, 0, 77, 0
1, 174286, Note_on_c, 0, 73, 101
1, 174292, Note_on_c, 0, 61, 85
1, 174333, Note_off_c, 0, 73, 63
1, 174338, Note_off_c, 0, 61, 58
1, 174353, Note_on_c, 0, 99, 88
1, 174358, Note_on_c, 0, 87, 91
1, 174382, Note_on_c, 0, 97, 35
1, 174404, Note_off_c, 0, 87, 62
1, 174409, Note_off_c, 0, 99, 62
1, 174416, Note_off_c, 0, 97, 34
1, 174426, Note_on_c, 0, 70, 99
1, 174433, Note_on_c, 0, 58, 90
1, 174480, Note_off_c, 0, 70, 61
1, 174484, Note_off_c, 0, 58, 58
1, 174500, Note_on_c, 0, 99, 91
1, 174504, Note_on_c, 0, 87, 88
1, 174550, Note_off_c, 0, 87, 60
1, 174553, Note_off_c, 0, 99, 60
1, 174573, Note_on_c, 0, 67, 95
1, 174591, Note_on_c, 0, 55, 66
1, 174608, Note_on_c, 0, 58, 44
1, 174611, Note_off_c, 0, 67, 60
1, 174612, Note_off_c, 0, 55, 63
1, 174632, Note_off_c, 0, 58, 58
1, 174647, Note_on_c, 0, 99, 86
1, 174650, Note_on_c, 0, 87, 91
1, 174671, Note_on_c, 0, 97, 55
1, 174672, Note_off_c, 0, 97, 127
1, 174696, Note_off_c, 0, 87, 62
1, 174698, Poly_aftertouch_c, 0, 56, 0
1, 174703, Note_off_c, 0, 99, 60
1, 174721, Note_on_c, 0, 63, 99
1, 174725, Note_on_c, 0, 51, 91
1, 174769, Note_off_c, 0, 63, 62
1, 174773, Note_off_c, 0, 51, 60
1, 174801, Note_on_c, 0, 99, 86
1, 174802, Note_on_c, 0, 87, 88
1, 174858, Note_off_c, 0, 87, 62
1, 174866, Note_off_c, 0, 99, 59
1, 174876, Note_on_c, 0, 61, 103
1, 174882, Note_on_c, 0, 49, 86
1, 174922, Note_off_c, 0, 61, 61
1, 174930, Note_off_c, 0, 49, 62
1, 174931, Note_on_c, 0, 51, 7
1, 174960, Note_on_c, 0, 87, 89
1, 174961, Note_on_c, 0, 99, 85
1, 174963, Note_off_c, 0, 51, 55
1, 174980, Note_on_c, 0, 97, 63
1, 175000, Note_off_c, 0, 97, 41
1, 175011, Note_off_c, 0, 87, 62
1, 175021, Note_off_c, 0, 99, 60
1, 175023, Note_on_c, 0, 58, 101
1, 175029, Note_on_c, 0, 46, 87
1, 175076, Note_off_c, 0, 58, 59
1, 175083, Note_off_c, 0, 46, 56
1, 175115, Note_on_c, 0, 87, 89
1, 175116, Note_on_c, 0, 99, 87
1, 175147, Poly_aftertouch_c, 0, 51, 0
1, 175168, Note_off_c, 0, 87, 62
1, 175180, Note_off_c, 0, 99, 60
1, 175188, Note_on_c, 0, 55, 98
1, 175201, Note_on_c, 0, 43, 75
1, 175228, Note_off_c, 0, 43, 63
1, 175228, Note_off_c, 0, 55, 60
1, 175279, Note_on_c, 0, 99, 91
1, 175281, Note_on_c, 0, 87, 93
1, 175300, Note_on_c, 0, 97, 55
1, 175303, Poly_aftertouch_c, 0, 46, 0
1, 175324, Note_off_c, 0, 97, 40
1, 175350, Note_off_c, 0, 87, 59
1, 175360, Note_on_c, 0, 51, 101
1, 175360, Note_off_c, 0, 99, 61
1, 175366, Note_on_c, 0, 39, 92
1, 175500, Note_on_c, 0, 99, 93
1, 175501, Note_on_c, 0, 87, 98
1, 175540, Note_off_c, 0, 87, 63
1, 175544, Note_off_c, 0, 99, 62
1, 175662, Note_on_c, 0, 99, 84
1, 175666, Note_on_c, 0, 87, 86
1, 175681, Note_on_c, 0, 97, 58
1, 175684, Note_off_c, 0, 87, 69
1, 175686, Note_off_c, 0, 99, 65
1, 175703, Note_off_c, 0, 97, 40
1, 175765, Note_on_c, 0, 87, 83
1, 175768, Note_on_c, 0, 99, 89
1, 175783, Note_on_c, 0, 97, 53
1, 175786, Note_off_c, 0, 87, 67
1, 175789, Note_off_c, 0, 99, 64
1, 175804, Note_off_c, 0, 97, 63
1, 175868, Note_on_c, 0, 87, 87
1, 175871, Note_on_c, 0, 99, 81
1, 175885, Note_off_c, 0, 87, 71
1, 175890, Note_off_c, 0, 99, 69
1, 175891, Note_on_c, 0, 97, 41
1, 175918, Note_off_c, 0, 97, 59
1, 175960, Note_on_c, 0, 87, 85
1, 175965, Note_on_c, 0, 99, 78
1, 175978, Note_off_c, 0, 87, 70
1, 175985, Note_off_c, 0, 99, 67
1, 176052, Note_on_c, 0, 87, 86
1, 176054, Note_on_c, 0, 99, 82
1, 176070, Note_off_c, 0, 87, 69
1, 176077, Note_off_c, 0, 99, 63
1, 176144, Note_on_c, 0, 87, 86
1, 176147, Note_on_c, 0, 99, 82
1, 176163, Note_off_c, 0, 87, 69
1, 176170, Note_off_c, 0, 99, 64
1, 176237, Note_on_c, 0, 87, 89
1, 176237, Note_on_c, 0, 99, 91
1, 176266, Note_off_c, 0, 87, 60
1, 176278, Note_off_c, 0, 99, 60
1, 176337, Poly_aftertouch_c, 0, 99, 0
1, 176341, Note_on_c, 0, 99, 83
1, 176346, Note_on_c, 0, 87, 93
1, 176367, Note_off_c, 0, 87, 66
1, 176384, Note_off_c, 0, 99, 63
1, 176442, Note_on_c, 0, 87, 90
1, 176442, Note_on_c, 0, 99, 83
1, 176483, Note_off_c, 0, 87, 60
1, 176484, Note_off_c, 0, 99, 63
1, 176542, Note_on_c, 0, 99, 79
1, 176543, Note_on_c, 0, 87, 84
1, 176566, Note_off_c, 0, 87, 63
1, 176571, Note_on_c, 0, 97, 39
1, 176585, Note_off_c, 0, 99, 59
1, 176603, Note_off_c, 0, 39, 57
1, 176603, Note_off_c, 0, 97, 36
1, 176632, Note_off_c, 0, 51, 54
1, 176635, Poly_aftertouch_c, 0, 99, 0
1, 176640, Note_on_c, 0, 99, 74
1, 176641, Note_on_c, 0, 87, 87
1, 176661, Note_off_c, 0, 87, 65
1, 176672, Note_off_c, 0, 99, 60
1, 176734, Note_on_c, 0, 87, 87
1, 176736, Note_on_c, 0, 99, 88
1, 176761, Note_off_c, 0, 87, 60
1, 176777, Note_off_c, 0, 99, 59
1, 176830, Note_on_c, 0, 99, 81
1, 176835, Note_on_c, 0, 87, 92
1, 176858, Note_off_c, 0, 87, 62
1, 176877, Note_off_c, 0, 99, 60
1, 176924, Poly_aftertouch_c, 0, 99, 0
1, 176929, Note_on_c, 0, 87, 85
1, 176929, Note_on_c, 0, 99, 70
1, 176953, Note_off_c, 0, 87, 61
1, 176972, Note_off_c, 0, 99, 62
1, 177019, Poly_aftertouch_c, 0, 99, 0
1, 177025, Note_on_c, 0, 99, 71
1, 177026, Note_on_c, 0, 87, 81
1, 177056, Note_off_c, 0, 87, 63
1, 177081, Note_off_c, 0, 99, 61
1, 177140, Note_on_c, 0, 87, 77
1, 177143, Note_on_c, 0, 99, 64
1, 177161, Note_off_c, 0, 87, 67
1, 177168, Note_off_c, 0, 99, 65
1, 177218, Note_on_c, 0, 63, 92
1, 177235, Note_on_c, 0, 99, 91
1, 177239, Note_on_c, 0, 87, 90
1, 177276, Note_off_c, 0, 87, 53
1, 177279, Note_off_c, 0, 99, 64
1, 177290, Note_off_c, 0, 63, 58
1, 177343, Note_on_c, 0, 99, 83
1, 177345, Note_on_c, 0, 87, 81
1, 177391, Note_off_c, 0, 99, 61
1, 177395, Note_off_c, 0, 87, 60
1, 177458, Note_on_c, 0, 75, 100
1, 177469, Note_on_c, 0, 87, 92
1, 177472, Note_on_c, 0, 99, 94
1, 177491, Note_off_c, 0, 75, 68
1, 177511, Note_on_c, 0, 97, 24
1, 177514, Note_off_c, 0, 87, 62
1, 177519, Note_off_c, 0, 99, 60
1, 177551, Note_off_c, 0, 97, 33
1, 177595, Note_on_c, 0, 87, 88
1, 177598, Note_on_c, 0, 99, 79
1, 177637, Note_off_c, 0, 87, 57
1, 177649, Note_off_c, 0, 99, 60
1, 177703, Note_on_c, 0, 99, 78
1, 177710, Note_on_c, 0, 87, 81
1, 177736, Note_off_c, 0, 87, 61
1, 177756, Note_off_c, 0, 99, 61
1, 177826, Note_on_c, 0, 87, 84
1, 177827, Note_on_c, 0, 99, 82
1, 177869, Note_off_c, 0, 87, 62
1, 177880, Note_off_c, 0, 99, 61
1, 177947, Note_on_c, 0, 85, 90
1, 177950, Note_on_c, 0, 97, 83
1, 177989, Note_off_c, 0, 85, 64
1, 178001, Note_off_c, 0, 97, 56
1, 178068, Note_on_c, 0, 97, 77
1, 178069, Note_on_c, 0, 85, 81
1, 178123, Note_off_c, 0, 85, 62
1, 178127, Note_off_c, 0, 97, 61
1, 178188, Note_on_c, 0, 44, 102
1, 178189, Note_on_c, 0, 32, 81
1, 178191, Control_c, 0, 64, 74
1, 178198, Note_on_c, 0, 83, 97
1, 178201, Note_on_c, 0, 95, 95
1, 178206, Control_c, 0, 64, 55
1, 178217, Note_off_c, 0, 32, 67
1, 178221, Control_c, 0, 64, 56
1, 178232, Note_on_c, 0, 94, 46
1, 178236, Control_c, 0, 64, 65
1, 178239, Note_off_c, 0, 44, 61
1, 178242, Note_off_c, 0, 83, 64
1, 178247, Note_on_c, 0, 92, 23
1, 178251, Control_c, 0, 64, 73
1, 178251, Note_off_c, 0, 95, 62
1, 178255, Note_off_c, 0, 94, 59
1, 178266, Control_c, 0, 64, 88
1, 178281, Control_c, 0, 64, 115
1, 178285, Note_off_c, 0, 92, 50
1, 178296, Control_c, 0, 64, 127
1, 178360, Note_on_c, 0, 83, 81
1, 178363, Note_on_c, 0, 95, 75
1, 178387, Note_off_c, 0, 83, 60
1, 178388, Note_off_c, 0, 95, 61
1, 178445, Note_on_c, 0, 59, 69
1, 178445, Note_on_c, 0, 63, 82
1, 178466, Note_on_c, 0, 83, 87
1, 178466, Note_off_c, 0, 63, 68
1, 178469, Note_on_c, 0, 51, 47
1, 178469, Note_on_c, 0, 95, 83
1, 178489, Note_off_c, 0, 59, 57
1, 178494, Note_off_c, 0, 95, 58
1, 178504, Note_off_c, 0, 83, 59
1, 178534, Note_off_c, 0, 51, 0
1, 178557, Note_on_c, 0, 63, 86
1, 178559, Note_on_c, 0, 51, 31
1, 178561, Note_on_c, 0, 59, 63
1, 178565, Note_on_c, 0, 83, 72
1, 178565, Note_on_c, 0, 95, 83
1, 178588, Note_off_c, 0, 83, 68
1, 178600, Note_off_c, 0, 51, 45
1, 178607, Note_off_c, 0, 95, 56
1, 178624, Note_on_c, 0, 56, 80
1, 178635, Note_off_c, 0, 59, 59
1, 178641, Note_off_c, 0, 63, 66
1, 178645, Note_on_c, 0, 82, 92
1, 178655, Note_on_c, 0, 94, 79
1, 178671, Note_on_c, 0, 92, 57
1, 178672, Note_off_c, 0, 56, 64
1, 178681, Note_off_c, 0, 82, 63
1, 178689, Note_off_c, 0, 92, 63
1, 178710, Note_off_c, 0, 94, 55
1, 178761, Note_on_c, 0, 82, 82
1, 178764, Note_on_c, 0, 94, 46
1, 178772, Note_on_c, 0, 92, 53
1, 178780, Note_off_c, 0, 82, 70
1, 178788, Note_off_c, 0, 94, 61
1, 178793, Note_off_c, 0, 92, 62
1, 178835, Note_on_c, 0, 47, 98
1, 178838, Control_c, 0, 64, 77
1, 178841, Note_on_c, 0, 35, 82
1, 178853, Control_c, 0, 64, 50
1, 178853, Note_on_c, 0, 80, 94
1, 178855, Note_on_c, 0, 92, 92
1, 178867, Note_off_c, 0, 35, 64
1, 178868, Control_c, 0, 64, 30
1, 178871, Note_off_c, 0, 47, 59
1, 178882, Control_c, 0, 64, 45
1, 178894, Note_off_c, 0, 80, 63
1, 178897, Control_c, 0, 64, 62
1, 178902, Note_off_c, 0, 92, 62
1, 178912, Control_c, 0, 64, 73
1, 178926, Control_c, 0, 64, 83
1, 178941, Control_c, 0, 64, 95
1, 178953, Poly_aftertouch_c, 0, 90, 0
1, 178956, Control_c, 0, 64, 105
1, 178960, Note_on_c, 0, 80, 83
1, 178966, Note_on_c, 0, 92, 77
1, 178971, Control_c, 0, 64, 110
1, 178986, Control_c, 0, 64, 114
1, 178998, Note_off_c, 0, 92, 59
1, 179000, Control_c, 0, 64, 119
1, 179011, Note_off_c, 0, 80, 58
1, 179015, Control_c, 0, 64, 127
1, 179058, Note_on_c, 0, 59, 55
1, 179058, Note_on_c, 0, 63, 82
1, 179065, Note_on_c, 0, 79, 88
1, 179072, Note_on_c, 0, 51, 59
1, 179073, Note_on_c, 0, 91, 82
1, 179088, Note_off_c, 0, 63, 60
1, 179110, Note_off_c, 0, 79, 62
1, 179110, Note_off_c, 0, 51, 56
1, 179121, Note_off_c, 0, 91, 59
1, 179131, Note_off_c, 0, 59, 0
1, 179148, Note_on_c, 0, 59, 41
1, 179154, Note_on_c, 0, 91, 60
1, 179156, Note_on_c, 0, 63, 90
1, 179164, Note_on_c, 0, 79, 77
1, 179198, Note_off_c, 0, 79, 61
1, 179209, Note_off_c, 0, 91, 62
1, 179235, Note_on_c, 0, 56, 83
1, 179251, Note_on_c, 0, 80, 100
1, 179259, Note_off_c, 0, 59, 0
1, 179259, Note_on_c, 0, 59, 3
1, 179259, Note_on_c, 0, 92, 79
1, 179265, Note_off_c, 0, 63, 61
1, 179270, Note_off_c, 0, 59, 50
1, 179270, Note_on_c, 0, 90, 60
1, 179288, Note_off_c, 0, 56, 63
1, 179289, Note_off_c, 0, 90, 66
1, 179297, Note_off_c, 0, 80, 58
1, 179341, Note_off_c, 0, 92, 0
1, 179359, Note_on_c, 0, 92, 42
1, 179363, Note_on_c, 0, 80, 70
1, 179390, Note_off_c, 0, 80, 64
1, 179393, Note_off_c, 0, 92, 66
1, 179397, Note_on_c, 0, 90, 25
1, 179431, Note_off_c, 0, 90, 54
1, 179438, Control_c, 0, 64, 82
1, 179448, Note_on_c, 0, 51, 96
1, 179453, Control_c, 0, 64, 57
1, 179455, Note_on_c, 0, 82, 95
1, 179455, Note_on_c, 0, 39, 82
1, 179461, Note_on_c, 0, 94, 89
1, 179468, Control_c, 0, 64, 46
1, 179478, Note_on_c, 0, 92, 56
1, 179479, Note_off_c, 0, 39, 67
1, 179481, Note_off_c, 0, 51, 59
1, 179482, Control_c, 0, 64, 59
1, 179497, Note_off_c, 0, 82, 63
1, 179497, Note_off_c, 0, 92, 64
1, 179497, Control_c, 0, 64, 69
1, 179500, Note_off_c, 0, 94, 60
1, 179512, Control_c, 0, 64, 80
1, 179527, Control_c, 0, 64, 101
1, 179542, Control_c, 0, 64, 127
1, 179549, Note_on_c, 0, 82, 85
1, 179551, Note_on_c, 0, 94, 74
1, 179575, Note_on_c, 0, 92, 61
1, 179588, Note_off_c, 0, 94, 60
1, 179588, Note_off_c, 0, 82, 64
1, 179592, Note_off_c, 0, 92, 66
1, 179658, Note_on_c, 0, 55, 69
1, 179658, Note_on_c, 0, 67, 83
1, 179667, Note_on_c, 0, 63, 71
1, 179676, Note_on_c, 0, 75, 94
1, 179677, Note_on_c, 0, 87, 73
1, 179678, Note_off_c, 0, 67, 66
1, 179687, Note_off_c, 0, 55, 60
1, 179691, Note_off_c, 0, 63, 64
1, 179691, Note_off_c, 0, 75, 67
1, 179703, Note_off_c, 0, 87, 64
1, 179766, Note_on_c, 0, 63, 67
1, 179766, Note_on_c, 0, 75, 88
1, 179768, Note_on_c, 0, 67, 73
1, 179780, Note_on_c, 0, 87, 62
1, 179785, Note_off_c, 0, 75, 68
1, 179789, Note_off_c, 0, 63, 61
1, 179792, Note_on_c, 0, 58, 33
1, 179798, Note_off_c, 0, 67, 63
1, 179800, Note_off_c, 0, 87, 66
1, 179828, Note_off_c, 0, 58, 0
1, 179828, Note_on_c, 0, 58, 52
1, 179832, Note_on_c, 0, 67, 86
1, 179834, Note_on_c, 0, 63, 87
1, 179853, Note_on_c, 0, 75, 93
1, 179853, Note_off_c, 0, 67, 69
1, 179864, Note_off_c, 0, 63, 59
1, 179866, Note_on_c, 0, 87, 79
1, 179882, Note_off_c, 0, 58, 60
1, 179885, Note_on_c, 0, 85, 46
1, 179895, Note_off_c, 0, 75, 60
1, 179899, Note_off_c, 0, 87, 56
1, 179908, Note_off_c, 0, 85, 58
1, 179957, Note_on_c, 0, 75, 82
1, 179979, Note_on_c, 0, 87, 58
1, 179994, Note_on_c, 0, 85, 42
1, 179997, Note_off_c, 0, 75, 59
1, 179998, Note_off_c, 0, 87, 66
1, 180018, Note_off_c, 0, 85, 57
1, 180032, Control_c, 0, 64, 102
1, 180045, Note_on_c, 0, 55, 97
1, 180054, Control_c, 0, 64, 70
1, 180061, Note_on_c, 0, 43, 78
1, 180064, Note_on_c, 0, 76, 91
1, 180069, Control_c, 0, 64, 58
1, 180069, Note_on_c, 0, 88, 83
1, 180084, Control_c, 0, 64, 62
1, 180088, Note_on_c, 0, 87, 54
1, 180091, Note_off_c, 0, 43, 64
1, 180091, Note_off_c, 0, 55, 55
1, 180099, Control_c, 0, 64, 69
1, 180108, Note_off_c, 0, 87, 62
1, 180113, Control_c, 0, 64, 76
1, 180114, Note_off_c, 0, 76, 62
1, 180117, Note_off_c, 0, 88, 62
1, 180128, Control_c, 0, 64, 90
1, 180143, Control_c, 0, 64, 122
1, 180158, Control_c, 0, 64, 127
1, 180164, Poly_aftertouch_c, 0, 46, 0
1, 180170, Note_on_c, 0, 76, 77
1, 180170, Note_on_c, 0, 88, 75
1, 180174, Poly_aftertouch_c, 0, 44, 0
1, 180203, Note_off_c, 0, 76, 64
1, 180212, Note_off_c, 0, 88, 61
1, 180264, Note_on_c, 0, 70, 90
1, 180270, Note_on_c, 0, 61, 58
1, 180272, Note_on_c, 0, 63, 71
1, 180277, Note_on_c, 0, 75, 87
1, 180278, Note_on_c, 0, 87, 74
1, 180288, Note_off_c, 0, 70, 61
1, 180295, Note_off_c, 0, 75, 72
1, 180296, Note_off_c, 0, 63, 68
1, 180302, Note_off_c, 0, 61, 63
1, 180307, Note_off_c, 0, 87, 58
1, 180364, Note_on_c, 0, 70, 94
1, 180376, Note_on_c, 0, 75, 67
1, 180378, Note_off_c, 0, 70, 70
1, 180386, Note_on_c, 0, 87, 46
1, 180390, Note_on_c, 0, 63, 45
1, 180391, Note_on_c, 0, 73, 50
1, 180393, Note_off_c, 0, 75, 69
1, 180395, Note_on_c, 0, 61, 29
1, 180410, Note_off_c, 0, 87, 59
1, 180412, Note_off_c, 0, 73, 62
1, 180416, Note_off_c, 0, 63, 57
1, 180430, Note_on_c, 0, 70, 91
1, 180438, Note_off_c, 0, 61, 0
1, 180438, Note_on_c, 0, 61, 48
1, 180443, Note_on_c, 0, 63, 68
1, 180459, Note_on_c, 0, 73, 102
1, 180459, Note_on_c, 0, 85, 50
1, 180462, Note_off_c, 0, 70, 66
1, 180478, Note_on_c, 0, 82, 59
1, 180478, Note_off_c, 0, 61, 63
1, 180489, Note_off_c, 0, 63, 60
1, 180497, Note_off_c, 0, 82, 64
1, 180509, Note_off_c, 0, 73, 62
1, 180522, Note_off_c, 0, 85, 60
1, 180568, Note_on_c, 0, 73, 81
1, 180573, Note_on_c, 0, 85, 56
1, 180594, Note_on_c, 0, 82, 42
1, 180604, Note_off_c, 0, 85, 66
1, 180611, Note_off_c, 0, 73, 60
1, 180619, Note_off_c, 0, 82, 56
1, 180661, Control_c, 0, 64, 77
1, 180668, Note_on_c, 0, 56, 96
1, 180674, Note_on_c, 0, 71, 92
1, 180675, Note_on_c, 0, 44, 82
1, 180676, Control_c, 0, 64, 55
1, 180678, Note_on_c, 0, 83, 85
1, 180690, Control_c, 0, 64, 52
1, 180699, Note_off_c, 0, 44, 66
1, 180704, Control_c, 0, 64, 62
1, 180711, Note_on_c, 0, 82, 31
1, 180713, Note_off_c, 0, 56, 61
1, 180719, Control_c, 0, 64, 71
1, 180722, Note_off_c, 0, 71, 62
1, 180726, Note_off_c, 0, 83, 61
1, 180734, Control_c, 0, 64, 82
1, 180747, Note_off_c, 0, 82, 32
1, 180749, Control_c, 0, 64, 107
1, 180764, Control_c, 0, 64, 127
1, 180806, Note_on_c, 0, 71, 82
1, 180809, Note_on_c, 0, 83, 69
1, 180835, Note_off_c, 0, 71, 60
1, 180835, Note_off_c, 0, 83, 66
1, 180890, Note_on_c, 0, 59, 63
1, 180898, Note_on_c, 0, 63, 72
1, 180903, Note_on_c, 0, 71, 82
1, 180905, Note_on_c, 0, 68, 70
1, 180910, Note_on_c, 0, 83, 82
1, 180931, Note_off_c, 0, 68, 64
1, 180935, Note_off_c, 0, 63, 55
1, 180948, Note_off_c, 0, 83, 51
1, 180949, Note_off_c, 0, 59, 58
1, 180952, Note_off_c, 0, 71, 59
1, 180988, Note_on_c, 0, 68, 86
1, 180990, Note_on_c, 0, 83, 68
1, 180993, Note_on_c, 0, 71, 62
1, 180995, Poly_aftertouch_c, 0, 59, 0
1, 180999, Note_on_c, 0, 63, 72
1, 181002, Note_on_c, 0, 59, 52
1, 181020, Note_off_c, 0, 71, 64
1, 181028, Note_off_c, 0, 68, 61
1, 181028, Note_off_c, 0, 63, 60
1, 181049, Note_off_c, 0, 83, 60
1, 181067, Note_on_c, 0, 63, 70
1, 181086, Note_on_c, 0, 70, 89
1, 181092, Poly_aftertouch_c, 0, 83, 0
1, 181098, Note_on_c, 0, 82, 70
1, 181102, Note_on_c, 0, 83, 31
1, 181110, Note_off_c, 0, 63, 60
1, 181112, Note_on_c, 0, 80, 54
1, 181115, Note_off_c, 0, 59, 62
1, 181131, Note_off_c, 0, 80, 62
1, 181132, Note_off_c, 0, 70, 58
1, 181139, Note_off_c, 0, 83, 57
1, 181156, Note_off_c, 0, 82, 40
1, 181197, Note_on_c, 0, 82, 55
1, 181201, Note_on_c, 0, 70, 62
1, 181223, Note_off_c, 0, 70, 59
1, 181224, Note_off_c, 0, 82, 60
1, 181261, Control_c, 0, 64, 110
1, 181276, Control_c, 0, 64, 68
1, 181291, Control_c, 0, 64, 0
1, 181291, Note_on_c, 0, 68, 87
1, 181292, Note_on_c, 0, 80, 47
1, 181297, Note_on_c, 0, 40, 92
1, 181318, Note_on_c, 0, 78, 44
1, 181324, Note_off_c, 0, 68, 57
1, 181339, Note_off_c, 0, 80, 61
1, 181343, Note_off_c, 0, 78, 55
1, 181350, Control_c, 0, 64, 35
1, 181351, Note_off_c, 0, 40, 61
1, 181365, Control_c, 0, 64, 66
1, 181380, Control_c, 0, 64, 81
1, 181395, Control_c, 0, 64, 109
1, 181400, Note_on_c, 0, 68, 75
1, 181408, Note_on_c, 0, 80, 58
1, 181409, Control_c, 0, 64, 127
1, 181426, Note_off_c, 0, 68, 61
1, 181436, Note_off_c, 0, 80, 61
1, 181502, Note_on_c, 0, 58, 77
1, 181502, Note_on_c, 0, 62, 80
1, 181506, Note_on_c, 0, 67, 85
1, 181509, Note_on_c, 0, 79, 79
1, 181527, Note_off_c, 0, 58, 63
1, 181531, Note_off_c, 0, 62, 60
1, 181556, Note_off_c, 0, 79, 55
1, 181560, Note_off_c, 0, 67, 61
1, 181607, Note_on_c, 0, 79, 67
1, 181609, Note_on_c, 0, 58, 78
1, 181610, Note_on_c, 0, 67, 65
1, 181615, Note_on_c, 0, 62, 79
1, 181636, Note_off_c, 0, 58, 62
1, 181637, Note_off_c, 0, 62, 68
1, 181638, Note_off_c, 0, 67, 65
1, 181655, Note_off_c, 0, 79, 62
1, 181676, Note_on_c, 0, 62, 86
1, 181679, Note_on_c, 0, 58, 93
1, 181698, Note_on_c, 0, 68, 91
1, 181703, Note_on_c, 0, 80, 79
1, 181706, Note_off_c, 0, 62, 63
1, 181721, Note_on_c, 0, 78, 58
1, 181733, Note_off_c, 0, 58, 60
1, 181742, Note_off_c, 0, 78, 62
1, 181743, Note_off_c, 0, 68, 55
1, 181795, Note_off_c, 0, 80, 0
1, 181809, Note_on_c, 0, 80, 43
1, 181817, Note_on_c, 0, 68, 61
1, 181836, Note_off_c, 0, 68, 67
1, 181840, Note_off_c, 0, 80, 65
1, 181877, Control_c, 0, 64, 88
1, 181892, Control_c, 0, 64, 46
1, 181907, Control_c, 0, 64, 0
1, 181914, Note_on_c, 0, 37, 70
1, 181914, Note_on_c, 0, 70, 91
1, 181916, Note_on_c, 0, 39, 67
1, 181917, Note_on_c, 0, 82, 85
1, 181941, Note_off_c, 0, 37, 65
1, 181945, Note_off_c, 0, 70, 61
1, 181946, Note_on_c, 0, 80, 29
1, 181947, Note_off_c, 0, 39, 66
1, 181951, Control_c, 0, 64, 25
1, 181953, Note_off_c, 0, 82, 58
1, 181966, Control_c, 0, 64, 60
1, 181979, Note_off_c, 0, 80, 35
1, 181981, Control_c, 0, 64, 77
1, 181996, Control_c, 0, 64, 98
1, 182011, Control_c, 0, 64, 127
1, 182014, Note_on_c, 0, 70, 80
1, 182019, Note_on_c, 0, 82, 64
1, 182032, Note_off_c, 0, 70, 70
1, 182036, Note_off_c, 0, 82, 67
1, 182103, Note_on_c, 0, 58, 75
1, 182122, Note_on_c, 0, 55, 59
1, 182123, Note_on_c, 0, 63, 92
1, 182129, Note_on_c, 0, 75, 73
1, 182143, Note_off_c, 0, 63, 65
1, 182159, Note_off_c, 0, 75, 61
1, 182160, Note_off_c, 0, 55, 58
1, 182166, Note_off_c, 0, 58, 57
1, 182206, Poly_aftertouch_c, 0, 73, 127
1, 182216, Note_on_c, 0, 63, 88
1, 182222, Note_on_c, 0, 75, 78
1, 182223, Note_on_c, 0, 58, 66
1, 182233, Note_on_c, 0, 55, 52
1, 182239, Note_off_c, 0, 63, 67
1, 182263, Control_c, 0, 64, 83
1, 182266, Note_off_c, 0, 75, 63
1, 182267, Poly_aftertouch_c, 0, 73, 0
1, 182269, Note_off_c, 0, 58, 58
1, 182272, Note_off_c, 0, 55, 56
1, 182277, Control_c, 0, 64, 46
1, 182292, Control_c, 0, 64, 0
1, 182314, Note_on_c, 0, 58, 74
1, 182318, Note_on_c, 0, 63, 88
1, 182323, Note_on_c, 0, 55, 52
1, 182329, Control_c, 0, 64, 48
1, 182344, Control_c, 0, 64, 66
1, 182345, Note_on_c, 0, 75, 90
1, 182347, Note_on_c, 0, 87, 89
1, 182350, Note_off_c, 0, 55, 57
1, 182359, Control_c, 0, 64, 77
1, 182371, Note_off_c, 0, 58, 59
1, 182374, Control_c, 0, 64, 93
1, 182375, Note_off_c, 0, 63, 63
1, 182385, Note_off_c, 0, 87, 59
1, 182388, Control_c, 0, 64, 127
1, 182390, Note_off_c, 0, 75, 62
1, 182457, Note_on_c, 0, 75, 71
1, 182465, Note_on_c, 0, 87, 79
1, 182483, Note_off_c, 0, 75, 67
1, 182511, Note_off_c, 0, 87, 64
1, 182567, Note_on_c, 0, 70, 89
1, 182567, Note_on_c, 0, 75, 98
1, 182574, Note_on_c, 0, 67, 75
1, 182592, Note_on_c, 0, 99, 99
1, 182594, Note_on_c, 0, 87, 99
1, 182600, Note_off_c, 0, 75, 66
1, 182606, Note_off_c, 0, 67, 58
1, 182621, Note_off_c, 0, 70, 62
1, 182630, Note_off_c, 0, 99, 59
1, 182630, Note_off_c, 0, 87, 62
1, 182687, Poly_aftertouch_c, 0, 68, 0
1, 182718, Note_on_c, 0, 99, 88
1, 182719, Note_on_c, 0, 87, 93
1, 182764, Note_off_c, 0, 87, 62
1, 182770, Note_off_c, 0, 99, 58
1, 182832, Note_on_c, 0, 87, 81
1, 182833, Note_on_c, 0, 99, 77
1, 182883, Note_off_c, 0, 87, 62
1, 182889, Note_off_c, 0, 99, 62
1, 182960, Note_on_c, 0, 87, 74
1, 182960, Note_on_c, 0, 99, 80
1, 182988, Note_off_c, 0, 87, 62
1, 183010, Note_off_c, 0, 99, 61
1, 183083, Note_on_c, 0, 97, 89
1, 183087, Note_on_c, 0, 85, 82
1, 183111, Note_on_c, 0, 87, 47
1, 183128, Note_off_c, 0, 85, 61
1, 183132, Note_off_c, 0, 97, 63
1, 183136, Note_off_c, 0, 87, 61
1, 183174, Poly_aftertouch_c, 0, 98, 127
1, 183199, Poly_aftertouch_c, 0, 98, 0
1, 183220, Note_on_c, 0, 97, 81
1, 183223, Note_on_c, 0, 85, 76
1, 183277, Note_off_c, 0, 85, 61
1, 183279, Note_off_c, 0, 97, 61
1, 183330, Control_c, 0, 64, 83
1, 183333, Note_on_c, 0, 44, 105
1, 183334, Note_on_c, 0, 32, 82
1, 183345, Control_c, 0, 64, 53
1, 183349, Note_on_c, 0, 84, 92
1, 183352, Note_on_c, 0, 96, 90
1, 183360, Control_c, 0, 64, 26
1, 183372, Note_off_c, 0, 32, 62
1, 183375, Control_c, 0, 64, 46
1, 183390, Control_c, 0, 64, 63
1, 183393, Note_off_c, 0, 44, 61
1, 183405, Control_c, 0, 64, 73
1, 183405, Note_off_c, 0, 84, 60
1, 183420, Control_c, 0, 64, 83
1, 183423, Note_off_c, 0, 96, 56
1, 183435, Control_c, 0, 64, 97
1, 183449, Control_c, 0, 64, 115
1, 183464, Control_c, 0, 64, 127
1, 183523, Note_on_c, 0, 84, 77
1, 183527, Note_on_c, 0, 96, 73
1, 183561, Note_off_c, 0, 96, 54
1, 183572, Note_off_c, 0, 84, 57
1, 183608, Note_on_c, 0, 57, 53
1, 183622, Note_on_c, 0, 54, 61
1, 183622, Note_on_c, 0, 63, 75
1, 183637, Note_on_c, 0, 84, 75
1, 183650, Note_on_c, 0, 96, 77
1, 183651, Note_off_c, 0, 63, 60
1, 183660, Note_off_c, 0, 54, 61
1, 183674, Note_off_c, 0, 96, 57
1, 183676, Note_off_c, 0, 57, 60
1, 183682, Note_off_c, 0, 84, 58
1, 183718, Note_on_c, 0, 57, 51
1, 183724, Note_on_c, 0, 63, 82
1, 183724, Note_on_c, 0, 96, 68
1, 183724, Note_on_c, 0, 84, 64
1, 183739, Note_on_c, 0, 54, 55
1, 183754, Note_off_c, 0, 63, 56
1, 183759, Note_off_c, 0, 96, 58
1, 183762, Note_off_c, 0, 54, 63
1, 183763, Note_off_c, 0, 84, 60
1, 183804, Note_on_c, 0, 63, 74
1, 183825, Note_on_c, 0, 54, 65
1, 183837, Note_on_c, 0, 81, 90
1, 183840, Note_on_c, 0, 93, 87
1, 183843, Note_off_c, 0, 63, 60
1, 183869, Note_off_c, 0, 57, 52
1, 183870, Note_off_c, 0, 54, 58
1, 183875, Note_off_c, 0, 81, 60
1, 183884, Note_off_c, 0, 93, 60
1, 183942, Note_on_c, 0, 81, 76
1, 183943, Note_on_c, 0, 93, 68
1, 183977, Note_off_c, 0, 81, 62
1, 183991, Note_off_c, 0, 93, 59
1, 184034, Control_c, 0, 64, 101
1, 184049, Control_c, 0, 64, 69
1, 184049, Note_on_c, 0, 48, 95
1, 184058, Note_on_c, 0, 36, 80
1, 184059, Note_on_c, 0, 80, 95
1, 184064, Control_c, 0, 64, 44
1, 184064, Note_on_c, 0, 92, 83
1, 184078, Control_c, 0, 64, 38
1, 184086, Note_off_c, 0, 36, 61
1, 184089, Note_on_c, 0, 90, 46
1, 184093, Control_c, 0, 64, 52
1, 184099, Note_off_c, 0, 48, 63
1, 184105, Note_off_c, 0, 80, 60
1, 184108, Control_c, 0, 64, 64
1, 184114, Note_off_c, 0, 90, 60
1, 184117, Note_off_c, 0, 92, 60
1, 184123, Control_c, 0, 64, 73
1, 184138, Control_c, 0, 64, 82
1, 184152, Control_c, 0, 64, 92
1, 184167, Control_c, 0, 64, 100
1, 184182, Control_c, 0, 64, 105
1, 184183, Note_on_c, 0, 80, 79
1, 184189, Note_on_c, 0, 92, 75
1, 184197, Control_c, 0, 64, 110
1, 184212, Control_c, 0, 64, 114
1, 184226, Control_c, 0, 64, 127
1, 184228, Note_off_c, 0, 80, 60
1, 184240, Note_off_c, 0, 92, 60
1, 184296, Note_on_c, 0, 69, 88
1, 184303, Note_on_c, 0, 63, 79
1, 184305, Note_on_c, 0, 57, 66
1, 184305, Note_on_c, 0, 80, 86
1, 184305, Note_on_c, 0, 92, 77
1, 184328, Note_off_c, 0, 63, 67
1, 184332, Note_off_c, 0, 69, 59
1, 184333, Note_off_c, 0, 57, 66
1, 184351, Note_off_c, 0, 80, 60
1, 184352, Note_off_c, 0, 92, 63
1, 184353, Note_on_c, 0, 90, 17
1, 184393, Note_off_c, 0, 90, 51
1, 184413, Note_on_c, 0, 63, 78
1, 184414, Note_on_c, 0, 69, 79
1, 184414, Note_on_c, 0, 80, 78
1, 184421, Note_on_c, 0, 92, 73
1, 184429, Note_on_c, 0, 57, 42
1, 184435, Note_off_c, 0, 69, 67
1, 184441, Note_off_c, 0, 63, 60
1, 184451, Note_off_c, 0, 57, 62
1, 184451, Note_off_c, 0, 92, 61
1, 184462, Note_off_c, 0, 80, 59
1, 184507, Note_on_c, 0, 63, 78
1, 184507, Note_on_c, 0, 69, 72
1, 184510, Note_on_c, 0, 57, 82
1, 184523, Note_off_c, 0, 69, 68
1, 184527, Note_on_c, 0, 78, 95
1, 184527, Note_on_c, 0, 90, 88
1, 184547, Note_off_c, 0, 63, 61
1, 184562, Note_off_c, 0, 57, 64
1, 184586, Note_off_c, 0, 78, 60
1, 184594, Note_off_c, 0, 90, 61
1, 184650, Note_on_c, 0, 78, 75
1, 184660, Note_on_c, 0, 90, 70
1, 184724, Note_off_c, 0, 90, 61
1, 184727, Note_off_c, 0, 78, 61
1, 184788, Note_on_c, 0, 37, 76
1, 184788, Note_on_c, 0, 49, 98
1, 184794, Note_on_c, 0, 76, 97
1, 184797, Note_on_c, 0, 88, 84
1, 184797, Control_c, 0, 64, 91
1, 184812, Control_c, 0, 64, 66
1, 184823, Note_off_c, 0, 37, 64
1, 184828, Control_c, 0, 64, 55
1, 184836, Note_off_c, 0, 88, 60
1, 184840, Note_off_c, 0, 49, 64
1, 184843, Control_c, 0, 64, 60
1, 184857, Control_c, 0, 64, 67
1, 184864, Note_off_c, 0, 76, 62
1, 184872, Control_c, 0, 64, 74
1, 184887, Control_c, 0, 64, 85
1, 184901, Control_c, 0, 64, 104
1, 184916, Control_c, 0, 64, 127
1, 185013, Note_on_c, 0, 52, 54
1, 185015, Note_on_c, 0, 57, 56
1, 185017, Note_on_c, 0, 64, 76
1, 185019, Note_on_c, 0, 61, 68
1, 185031, Note_on_c, 0, 69, 52
1, 185041, Note_off_c, 0, 64, 66
1, 185047, Note_off_c, 0, 61, 64
1, 185052, Note_off_c, 0, 69, 62
1, 185054, Note_off_c, 0, 57, 62
1, 185055, Note_off_c, 0, 52, 59
1, 185110, Note_on_c, 0, 64, 81
1, 185110, Note_on_c, 0, 61, 74
1, 185122, Note_on_c, 0, 73, 58
1, 185132, Note_off_c, 0, 64, 67
1, 185134, Note_on_c, 0, 57, 44
1, 185137, Note_on_c, 0, 69, 55
1, 185140, Note_off_c, 0, 73, 65
1, 185144, Note_off_c, 0, 61, 61
1, 185158, Note_off_c, 0, 69, 62
1, 185191, Note_on_c, 0, 51, 77
1, 185192, Note_on_c, 0, 61, 73
1, 185205, Note_on_c, 0, 64, 88
1, 185208, Note_on_c, 0, 75, 81
1, 185219, Note_on_c, 0, 69, 68
1, 185220, Note_on_c, 0, 73, 49
1, 185221, Note_off_c, 0, 73, 127
1, 185235, Note_off_c, 0, 61, 59
1, 185245, Poly_aftertouch_c, 0, 73, 0
1, 185249, Note_off_c, 0, 69, 63
1, 185250, Note_off_c, 0, 57, 54
1, 185253, Note_off_c, 0, 51, 56
1, 185260, Note_off_c, 0, 64, 54
1, 185263, Note_off_c, 0, 75, 60
1, 185320, Note_on_c, 0, 61, 73
1, 185323, Note_on_c, 0, 75, 67
1, 185325, Note_on_c, 0, 64, 63
1, 185325, Note_on_c, 0, 51, 42
1, 185330, Note_on_c, 0, 57, 48
1, 185346, Note_off_c, 0, 51, 63
1, 185349, Note_off_c, 0, 61, 60
1, 185363, Note_off_c, 0, 64, 57
1, 185368, Note_off_c, 0, 57, 63
1, 185375, Note_on_c, 0, 69, 17
1, 185378, Note_off_c, 0, 75, 60
1, 185383, Control_c, 0, 64, 100
1, 185398, Control_c, 0, 64, 72
1, 185404, Note_off_c, 0, 69, 49
1, 185413, Control_c, 0, 64, 43
1, 185423, Note_on_c, 0, 61, 90
1, 185426, Note_on_c, 0, 76, 89
1, 185427, Note_on_c, 0, 49, 74
1, 185427, Control_c, 0, 64, 0
1, 185432, Note_on_c, 0, 64, 79
1, 185441, Note_on_c, 0, 57, 60
1, 185448, Note_on_c, 0, 51, 29
1, 185457, Control_c, 0, 64, 54
1, 185469, Note_off_c, 0, 57, 64
1, 185472, Control_c, 0, 64, 68
1, 185477, Note_off_c, 0, 61, 59
1, 185482, Note_off_c, 0, 49, 60
1, 185483, Note_off_c, 0, 51, 46
1, 185485, Note_off_c, 0, 64, 58
1, 185487, Control_c, 0, 64, 77
1, 185501, Control_c, 0, 64, 91
1, 185516, Control_c, 0, 64, 115
1, 185523, Note_off_c, 0, 76, 0
1, 185531, Control_c, 0, 64, 127
1, 185534, Note_on_c, 0, 76, 52
1, 185536, Note_on_c, 0, 49, 60
1, 185542, Note_on_c, 0, 61, 70
1, 185545, Note_on_c, 0, 64, 68
1, 185553, Note_on_c, 0, 57, 64
1, 185585, Note_off_c, 0, 57, 58
1, 185587, Note_off_c, 0, 61, 57
1, 185593, Note_off_c, 0, 64, 60
1, 185596, Note_off_c, 0, 76, 63
1, 185614, Note_off_c, 0, 49, 0
1, 185635, Note_on_c, 0, 51, 51
1, 185635, Note_on_c, 0, 61, 74
1, 185636, Control_c, 0, 64, 105
1, 185647, Note_on_c, 0, 57, 62
1, 185650, Poly_aftertouch_c, 0, 49, 127
1, 185650, Control_c, 0, 64, 71
1, 185652, Note_on_c, 0, 64, 76
1, 185653, Note_on_c, 0, 75, 82
1, 185665, Control_c, 0, 64, 49
1, 185680, Control_c, 0, 64, 42
1, 185689, Poly_aftertouch_c, 0, 49, 0
1, 185695, Control_c, 0, 64, 58
1, 185701, Note_off_c, 0, 61, 59
1, 185710, Control_c, 0, 64, 70
1, 185712, Note_off_c, 0, 64, 60
1, 185715, Note_off_c, 0, 75, 62
1, 185724, Control_c, 0, 64, 83
1, 185725, Note_off_c, 0, 57, 0
1, 185739, Control_c, 0, 64, 102
1, 185745, Note_on_c, 0, 57, 33
1, 185747, Note_on_c, 0, 61, 62
1, 185754, Control_c, 0, 64, 127
1, 185768, Note_on_c, 0, 64, 66
1, 185768, Note_on_c, 0, 75, 65
1, 185804, Note_off_c, 0, 61, 58
1, 185819, Note_off_c, 0, 64, 59
1, 185824, Note_off_c, 0, 57, 57
1, 185831, Note_off_c, 0, 75, 60
1, 185833, Note_off_c, 0, 51, 56
1, 185858, Control_c, 0, 64, 88
1, 185864, Note_on_c, 0, 57, 46
1, 185866, Note_on_c, 0, 61, 79
1, 185873, Control_c, 0, 64, 64
1, 185876, Note_on_c, 0, 52, 68
1, 185879, Note_on_c, 0, 64, 74
1, 185887, Note_on_c, 0, 73, 79
1, 185888, Control_c, 0, 64, 44
1, 185891, Note_on_c, 0, 69, 77
1, 185903, Control_c, 0, 64, 49
1, 185917, Control_c, 0, 64, 63
1, 185930, Note_off_c, 0, 61, 59
1, 185932, Control_c, 0, 64, 71
1, 185946, Note_off_c, 0, 57, 58
1, 185947, Control_c, 0, 64, 82
1, 185948, Note_off_c, 0, 52, 58
1, 185949, Note_off_c, 0, 64, 61
1, 185962, Control_c, 0, 64, 100
1, 185972, Note_off_c, 0, 73, 0
1, 185976, Note_off_c, 0, 69, 0
1, 185977, Control_c, 0, 64, 123
1, 185989, Note_on_c, 0, 73, 37
1, 185991, Control_c, 0, 64, 127
1, 185992, Note_on_c, 0, 57, 55
1, 185996, Note_on_c, 0, 64, 62
1, 185998, Note_on_c, 0, 69, 35
1, 186000, Note_on_c, 0, 61, 68
1, 186016, Note_on_c, 0, 52, 35
1, 186059, Note_off_c, 0, 69, 62
1, 186064, Note_off_c, 0, 64, 58
1, 186071, Note_off_c, 0, 52, 58
1, 186075, Note_off_c, 0, 61, 54
1, 186076, Note_off_c, 0, 57, 57
1, 186088, Note_off_c, 0, 73, 61
1, 186118, Control_c, 0, 64, 113
1, 186132, Control_c, 0, 64, 83
1, 186142, Note_on_c, 0, 51, 64
1, 186143, Note_on_c, 0, 59, 78
1, 186144, Note_on_c, 0, 56, 73
1, 186147, Note_on_c, 0, 63, 90
1, 186147, Control_c, 0, 64, 61
1, 186150, Note_on_c, 0, 71, 65
1, 186162, Control_c, 0, 64, 37
1, 186171, Note_on_c, 0, 75, 57
1, 186176, Control_c, 0, 64, 45
1, 186177, Note_off_c, 0, 59, 63
1, 186188, Note_off_c, 0, 56, 53
1, 186191, Control_c, 0, 64, 60
1, 186195, Note_off_c, 0, 51, 52
1, 186206, Control_c, 0, 64, 69
1, 186218, Note_off_c, 0, 63, 58
1, 186221, Control_c, 0, 64, 77
1, 186230, Note_off_c, 0, 71, 60
1, 186236, Control_c, 0, 64, 87
1, 186237, Note_off_c, 0, 75, 53
1, 186250, Control_c, 0, 64, 94
1, 186265, Control_c, 0, 64, 96
1, 186296, Note_on_c, 0, 62, 82
1, 186308, Note_on_c, 0, 64, 76
1, 186314, Note_on_c, 0, 76, 72
1, 186317, Note_on_c, 0, 50, 48
1, 186326, Note_off_c, 0, 62, 61
1, 186335, Note_off_c, 0, 64, 61
1, 186341, Note_off_c, 0, 76, 64
1, 186346, Note_off_c, 0, 50, 55
1, 186368, Control_c, 0, 64, 96
1, 186383, Control_c, 0, 64, 97
1, 186394, Note_on_c, 0, 61, 86
1, 186398, Control_c, 0, 64, 98
1, 186404, Note_on_c, 0, 49, 68
1, 186407, Note_on_c, 0, 65, 82
1, 186409, Note_on_c, 0, 77, 78
1, 186414, Control_c, 0, 64, 99
1, 186422, Note_off_c, 0, 61, 58
1, 186429, Control_c, 0, 64, 100
1, 186440, Note_off_c, 0, 49, 61
1, 186441, Note_off_c, 0, 65, 61
1, 186444, Control_c, 0, 64, 101
1, 186450, Note_off_c, 0, 77, 59
1, 186459, Control_c, 0, 64, 103
1, 186473, Control_c, 0, 64, 108
1, 186481, Poly_aftertouch_c, 0, 51, 127
1, 186488, Control_c, 0, 64, 116
1, 186499, Note_on_c, 0, 60, 82
1, 186503, Control_c, 0, 64, 127
1, 186504, Note_on_c, 0, 66, 82
1, 186505, Note_on_c, 0, 48, 73
1, 186513, Note_on_c, 0, 78, 68
1, 186513, Poly_aftertouch_c, 0, 51, 0
1, 186531, Note_off_c, 0, 66, 60
1, 186534, Note_off_c, 0, 60, 55
1, 186543, Note_off_c, 0, 48, 60
1, 186546, Note_off_c, 0, 78, 58
1, 186595, Note_on_c, 0, 59, 86
1, 186600, Note_on_c, 0, 67, 83
1, 186607, Note_on_c, 0, 79, 76
1, 186627, Note_on_c, 0, 48, 20
1, 186634, Note_off_c, 0, 67, 66
1, 186637, Note_off_c, 0, 59, 61
1, 186649, Note_off_c, 0, 79, 63
1, 186676, Note_off_c, 0, 48, 50
1, 186696, Note_on_c, 0, 58, 83
1, 186701, Note_on_c, 0, 46, 79
1, 186708, Note_on_c, 0, 68, 83
1, 186714, Note_on_c, 0, 80, 72
1, 186726, Note_off_c, 0, 58, 56
1, 186735, Note_on_c, 0, 78, 43
1, 186744, Note_off_c, 0, 68, 52
1, 186749, Note_off_c, 0, 80, 56
1, 186757, Note_off_c, 0, 46, 53
1, 186758, Note_off_c, 0, 78, 58
1, 186802, Note_on_c, 0, 57, 91
1, 186806, Note_on_c, 0, 45, 78
1, 186813, Note_on_c, 0, 69, 86
1, 186815, Note_on_c, 0, 81, 83
1, 186842, Note_off_c, 0, 57, 63
1, 186844, Note_off_c, 0, 45, 60
1, 186848, Note_off_c, 0, 69, 67
1, 186862, Note_off_c, 0, 81, 62
1, 186908, Note_on_c, 0, 56, 88
1, 186913, Note_on_c, 0, 44, 84
1, 186913, Note_on_c, 0, 70, 91
1, 186916, Note_on_c, 0, 82, 85
1, 186933, Note_off_c, 0, 56, 63
1, 186949, Note_off_c, 0, 44, 59
1, 186956, Note_off_c, 0, 70, 57
1, 186964, Note_off_c, 0, 82, 61
1, 187010, Note_on_c, 0, 55, 91
1, 187016, Note_on_c, 0, 71, 91
1, 187022, Note_on_c, 0, 43, 73
1, 187023, Note_on_c, 0, 83, 84
1, 187048, Note_off_c, 0, 55, 61
1, 187049, Note_off_c, 0, 43, 63
1, 187053, Note_off_c, 0, 71, 64
1, 187063, Note_off_c, 0, 83, 64
1, 187112, Note_on_c, 0, 54, 92
1, 187119, Note_on_c, 0, 72, 93
1, 187122, Note_on_c, 0, 42, 81
1, 187125, Note_on_c, 0, 84, 80
1, 187154, Note_off_c, 0, 42, 62
1, 187158, Note_off_c, 0, 54, 58
1, 187159, Note_off_c, 0, 72, 64
1, 187161, Note_off_c, 0, 84, 63
1, 187209, Poly_aftertouch_c, 0, 82, 127
1, 187215, Note_on_c, 0, 53, 92
1, 187218, Note_on_c, 0, 73, 97
1, 187226, Note_on_c, 0, 85, 88
1, 187228, Note_on_c, 0, 41, 79
1, 187234, Poly_aftertouch_c, 0, 82, 0
1, 187256, Note_off_c, 0, 53, 62
1, 187256, Note_off_c, 0, 41, 64
1, 187263, Note_off_c, 0, 73, 65
1, 187271, Note_off_c, 0, 85, 65
1, 187315, Note_on_c, 0, 52, 92
1, 187328, Note_on_c, 0, 40, 70
1, 187331, Note_on_c, 0, 74, 95
1, 187336, Note_on_c, 0, 86, 87
1, 187357, Note_off_c, 0, 40, 63
1, 187361, Note_off_c, 0, 52, 62
1, 187377, Note_off_c, 0, 74, 65
1, 187379, Note_off_c, 0, 86, 64
1, 187387, Note_on_c, 0, 46, 5
1, 187415, Poly_aftertouch_c, 0, 43, 0
1, 187428, Poly_aftertouch_c, 0, 79, 0
1, 187429, Control_c, 0, 64, 87
1, 187429, Note_on_c, 0, 51, 97
1, 187435, Note_on_c, 0, 39, 84
1, 187436, Note_on_c, 0, 75, 97
1, 187439, Note_off_c, 0, 46, 0
1, 187439, Note_on_c, 0, 46, 22
1, 187444, Control_c, 0, 64, 62
1, 187445, Note_on_c, 0, 82, 89
1, 187453, Note_on_c, 0, 87, 76
1, 187459, Control_c, 0, 64, 53
1, 187461, Poly_aftertouch_c, 0, 79, 0
1, 187471, Poly_aftertouch_c, 0, 43, 0
1, 187471, Note_off_c, 0, 46, 44
1, 187473, Note_on_c, 0, 85, 47
1, 187474, Control_c, 0, 64, 60
1, 187485, Note_on_c, 0, 80, 11
1, 187486, Note_off_c, 0, 80, 127
1, 187488, Note_off_c, 0, 51, 61
1, 187488, Control_c, 0, 64, 71
1, 187494, Note_off_c, 0, 39, 61
1, 187494, Note_off_c, 0, 82, 61
1, 187496, Note_off_c, 0, 85, 56
1, 187501, Note_off_c, 0, 75, 60
1, 187503, Control_c, 0, 64, 85
1, 187508, Note_off_c, 0, 87, 62
1, 187518, Control_c, 0, 64, 107
1, 187540, Control_c, 0, 64, 127
1, 187562, Note_on_c, 0, 50, 89
1, 187573, Note_on_c, 0, 76, 100
1, 187575, Note_on_c, 0, 38, 67
1, 187576, Note_on_c, 0, 88, 84
1, 187601, Note_off_c, 0, 38, 65
1, 187602, Note_off_c, 0, 50, 63
1, 187614, Note_off_c, 0, 76, 64
1, 187617, Note_off_c, 0, 88, 63
1, 187667, Note_on_c, 0, 49, 99
1, 187676, Note_on_c, 0, 77, 89
1, 187677, Note_on_c, 0, 37, 73
1, 187677, Note_on_c, 0, 89, 85
1, 187709, Note_off_c, 0, 37, 61
1, 187712, Note_off_c, 0, 49, 57
1, 187714, Note_off_c, 0, 77, 63
1, 187725, Note_off_c, 0, 89, 62
1, 187775, Note_on_c, 0, 48, 87
1, 187775, Note_on_c, 0, 78, 94
1, 187779, Note_on_c, 0, 90, 89
1, 187801, Note_on_c, 0, 36, 50
1, 187804, Note_on_c, 0, 35, 54
1, 187813, Note_off_c, 0, 48, 59
1, 187823, Note_off_c, 0, 78, 61
1, 187823, Note_off_c, 0, 90, 64
1, 187832, Note_off_c, 0, 35, 54
1, 187840, Note_off_c, 0, 36, 50
1, 187881, Note_on_c, 0, 79, 93
1, 187884, Note_on_c, 0, 47, 95
1, 187885, Note_on_c, 0, 91, 88
1, 187892, Poly_aftertouch_c, 0, 37, 0
1, 187907, Note_on_c, 0, 35, 68
1, 187924, Note_off_c, 0, 79, 65
1, 187926, Note_off_c, 0, 47, 62
1, 187926, Note_off_c, 0, 91, 66
1, 187939, Note_off_c, 0, 35, 62
1, 187989, Note_on_c, 0, 46, 88
1, 187989, Note_on_c, 0, 80, 90
1, 187993, Note_on_c, 0, 34, 83
1, 187993, Note_on_c, 0, 92, 90
1, 188019, Note_on_c, 0, 82, 51
1, 188020, Note_off_c, 0, 82, 127
1, 188029, Note_on_c, 0, 90, 34
1, 188030, Note_off_c, 0, 90, 127
1, 188033, Note_off_c, 0, 80, 62
1, 188045, Note_off_c, 0, 46, 58
1, 188048, Note_off_c, 0, 92, 61
1, 188049, Note_off_c, 0, 34, 62
1, 188108, Note_on_c, 0, 81, 95
1, 188109, Note_on_c, 0, 93, 79
1, 188111, Note_on_c, 0, 45, 90
1, 188129, Note_on_c, 0, 33, 77
1, 188151, Note_off_c, 0, 81, 65
1, 188156, Note_on_c, 0, 90, 30
1, 188157, Note_off_c, 0, 33, 64
1, 188166, Note_off_c, 0, 45, 56
1, 188171, Note_off_c, 0, 93, 62
1, 188190, Note_off_c, 0, 90, 56
1, 188224, Note_on_c, 0, 82, 96
1, 188228, Note_on_c, 0, 94, 91
1, 188234, Note_on_c, 0, 44, 93
1, 188242, Note_on_c, 0, 32, 80
1, 188252, Note_on_c, 0, 92, 52
1, 188276, Note_off_c, 0, 92, 42
1, 188293, Note_off_c, 0, 82, 62
1, 188299, Note_off_c, 0, 44, 59
1, 188307, Note_off_c, 0, 94, 62
1, 188313, Note_off_c, 0, 32, 59
1, 188344, Poly_aftertouch_c, 0, 87, 0
1, 188369, Note_on_c, 0, 43, 91
1, 188374, Note_on_c, 0, 83, 89
1, 188382, Note_on_c, 0, 96, 76
1, 188383, Note_on_c, 0, 95, 84
1, 188385, Note_on_c, 0, 31, 76
1, 188392, Note_on_c, 0, 84, 66
1, 188410, Note_off_c, 0, 84, 62
1, 188425, Note_off_c, 0, 31, 63
1, 188431, Note_off_c, 0, 43, 60
1, 188435, Note_off_c, 0, 95, 59
1, 188437, Note_off_c, 0, 96, 56
1, 188438, Note_off_c, 0, 83, 63
1, 188517, Note_on_c, 0, 42, 95
1, 188518, Note_on_c, 0, 85, 100
1, 188522, Note_on_c, 0, 97, 89
1, 188526, Note_on_c, 0, 30, 82
1, 188545, Note_on_c, 0, 94, 47
1, 188557, Note_on_c, 0, 90, 38
1, 188558, Note_off_c, 0, 90, 127
1, 188570, Note_off_c, 0, 94, 59
1, 188587, Note_on_c, 0, 37, 3
1, 188589, Note_off_c, 0, 42, 59
1, 188597, Note_off_c, 0, 85, 60
1, 188603, Note_off_c, 0, 30, 62
1, 188613, Note_off_c, 0, 97, 62
1, 188622, Note_off_c, 0, 37, 54
1, 188683, Note_on_c, 0, 40, 91
1, 188687, Note_on_c, 0, 98, 99
1, 188688, Note_on_c, 0, 86, 96
1, 188693, Note_on_c, 0, 28, 81
1, 188730, Note_on_c, 0, 97, 37
1, 188761, Note_off_c, 0, 97, 58
1, 188762, Note_off_c, 0, 28, 60
1, 188766, Note_off_c, 0, 98, 62
1, 188787, Note_off_c, 0, 40, 59
1, 188791, Note_off_c, 0, 86, 62
1, 188872, Note_on_c, 0, 99, 89
1, 188874, Note_on_c, 0, 87, 101
1, 188878, Note_on_c, 0, 39, 100
1, 188884, Note_on_c, 0, 27, 85
1, 188886, Note_on_c, 0, 97, 59
1, 188891, Note_off_c, 0, 99, 68
1, 188905, Note_off_c, 0, 97, 65
1, 188914, Note_off_c, 0, 87, 65
1, 188917, Note_off_c, 0, 27, 62
1, 188920, Note_on_c, 0, 94, 18
1, 188932, Note_off_c, 0, 39, 62
1, 188932, Note_on_c, 0, 86, 12
1, 188961, Note_off_c, 0, 94, 31
1, 188979, Note_off_c, 0, 86, 53
1, 189128, Control_c, 0, 64, 111
1, 189138, Note_on_c, 0, 32, 82
1, 189140, Note_on_c, 0, 44, 101
1, 189143, Control_c, 0, 64, 70
1, 189145, Note_on_c, 0, 59, 96
1, 189146, Note_on_c, 0, 68, 90
1, 189158, Control_c, 0, 64, 38
1, 189162, Note_on_c, 0, 63, 69
1, 189162, Note_on_c, 0, 64, 70
1, 189173, Control_c, 0, 64, 19
1, 189178, Note_on_c, 0, 60, 46
1, 189179, Note_off_c, 0, 60, 127
1, 189180, Note_off_c, 0, 59, 57
1, 189187, Control_c, 0, 64, 39
1, 189188, Note_off_c, 0, 63, 65
1, 189190, Note_off_c, 0, 32, 61
1, 189197, Note_off_c, 0, 44, 62
1, 189200, Note_off_c, 0, 64, 60
1, 189202, Control_c, 0, 64, 61
1, 189217, Control_c, 0, 64, 72
1, 189221, Note_off_c, 0, 68, 60
1, 189232, Control_c, 0, 64, 89
1, 189247, Control_c, 0, 64, 111
1, 189261, Control_c, 0, 64, 127
1, 189360, Note_on_c, 0, 51, 79
1, 189384, Note_off_c, 0, 51, 67
1, 189388, Note_on_c, 0, 39, 35
1, 189432, Note_off_c, 0, 39, 48
1, 189449, Note_on_c, 0, 56, 80
1, 189474, Note_off_c, 0, 56, 67
1, 189495, Note_on_c, 0, 54, 14
1, 189540, Note_on_c, 0, 63, 99
1, 189550, Note_on_c, 0, 71, 100
1, 189550, Note_on_c, 0, 75, 88
1, 189552, Note_on_c, 0, 83, 88
1, 189561, Note_on_c, 0, 51, 66
1, 189574, Note_off_c, 0, 63, 64
1, 189595, Note_off_c, 0, 51, 60
1, 189595, Note_off_c, 0, 71, 62
1, 189612, Note_off_c, 0, 83, 62
1, 189634, Note_off_c, 0, 75, 61
1, 189637, Note_off_c, 0, 54, 42
1, 189665, Poly_aftertouch_c, 0, 78, 0
1, 189733, Note_on_c, 0, 44, 100
1, 189736, Control_c, 0, 64, 122
1, 189745, Note_on_c, 0, 70, 86
1, 189749, Note_on_c, 0, 32, 73
1, 189750, Note_on_c, 0, 82, 81
1, 189751, Note_on_c, 0, 75, 74
1, 189751, Control_c, 0, 64, 74
1, 189763, Note_off_c, 0, 75, 70
1, 189766, Control_c, 0, 64, 53
1, 189769, Note_off_c, 0, 82, 70
1, 189770, Note_off_c, 0, 70, 62
1, 189772, Note_off_c, 0, 32, 61
1, 189781, Control_c, 0, 64, 48
1, 189796, Note_off_c, 0, 44, 57
1, 189803, Control_c, 0, 64, 58
1, 189817, Control_c, 0, 64, 67
1, 189832, Control_c, 0, 64, 76
1, 189843, Note_on_c, 0, 83, 90
1, 189844, Note_on_c, 0, 71, 89
1, 189847, Control_c, 0, 64, 92
1, 189862, Control_c, 0, 64, 106
1, 189877, Control_c, 0, 64, 111
1, 189879, Note_off_c, 0, 71, 65
1, 189891, Note_off_c, 0, 83, 63
1, 189891, Control_c, 0, 64, 113
1, 189906, Control_c, 0, 64, 117
1, 189921, Control_c, 0, 64, 127
1, 189933, Note_on_c, 0, 51, 87
1, 189939, Note_on_c, 0, 73, 100
1, 189943, Note_on_c, 0, 85, 86
1, 189949, Note_on_c, 0, 39, 60
1, 189955, Note_off_c, 0, 51, 66
1, 189956, Note_on_c, 0, 84, 64
1, 189980, Note_off_c, 0, 39, 63
1, 189981, Note_on_c, 0, 82, 29
1, 189987, Note_off_c, 0, 84, 61
1, 189990, Note_off_c, 0, 73, 61
1, 190003, Note_off_c, 0, 85, 63
1, 190015, Note_off_c, 0, 82, 55
1, 190044, Note_on_c, 0, 58, 84
1, 190054, Note_on_c, 0, 56, 63
1, 190073, Note_off_c, 0, 58, 61
1, 190077, Note_off_c, 0, 56, 61
1, 190079, Note_on_c, 0, 46, 26
1, 190121, Note_off_c, 0, 46, 49
1, 190139, Note_on_c, 0, 63, 92
1, 190143, Note_on_c, 0, 71, 91
1, 190144, Note_on_c, 0, 75, 92
1, 190154, Note_on_c, 0, 83, 68
1, 190157, Note_on_c, 0, 80, 56
1, 190158, Note_off_c, 0, 80, 127
1, 190160, Note_off_c, 0, 71, 71
1, 190160, Note_off_c, 0, 75, 73
1, 190164, Note_off_c, 0, 63, 63
1, 190169, Note_on_c, 0, 51, 60
1, 190171, Note_on_c, 0, 56, 35
1, 190173, Note_off_c, 0, 83, 66
1, 190174, Note_on_c, 0, 69, 40
1, 190175, Note_off_c, 0, 69, 127
1, 190188, Note_off_c, 0, 51, 65
1, 190197, Note_off_c, 0, 56, 58
1, 190202, Poly_aftertouch_c, 0, 69, 0
1, 190245, Note_on_c, 0, 70, 89
1, 190248, Note_on_c, 0, 82, 85
1, 190264, Note_on_c, 0, 75, 62
1, 190273, Note_off_c, 0, 82, 64
1, 190278, Note_on_c, 0, 80, 31
1, 190279, Note_off_c, 0, 80, 127
1, 190281, Note_off_c, 0, 75, 67
1, 190283, Note_off_c, 0, 70, 53
1, 190321, Control_c, 0, 64, 102
1, 190327, Note_on_c, 0, 44, 99
1, 190334, Note_on_c, 0, 71, 99
1, 190336, Control_c, 0, 64, 70
1, 190342, Note_on_c, 0, 75, 86
1, 190349, Note_on_c, 0, 32, 60
1, 190350, Note_on_c, 0, 83, 75
1, 190350, Control_c, 0, 64, 49
1, 190357, Note_off_c, 0, 75, 74
1, 190362, Note_on_c, 0, 72, 55
1, 190363, Note_off_c, 0, 72, 127
1, 190364, Note_off_c, 0, 71, 66
1, 190365, Control_c, 0, 64, 51
1, 190372, Note_off_c, 0, 44, 59
1, 190377, Note_off_c, 0, 32, 57
1, 190377, Note_off_c, 0, 83, 61
1, 190380, Note_on_c, 0, 82, 28
1, 190380, Control_c, 0, 64, 61
1, 190395, Control_c, 0, 64, 69
1, 190411, Control_c, 0, 64, 79
1, 190416, Note_off_c, 0, 82, 48
1, 190426, Control_c, 0, 64, 95
1, 190433, Note_on_c, 0, 73, 93
1, 190438, Note_on_c, 0, 85, 90
1, 190440, Control_c, 0, 64, 110
1, 190455, Control_c, 0, 64, 113
1, 190470, Note_on_c, 0, 86, 35
1, 190470, Note_off_c, 0, 73, 65
1, 190479, Note_off_c, 0, 85, 64
1, 190500, Control_c, 0, 64, 114
1, 190502, Note_off_c, 0, 86, 55
1, 190514, Control_c, 0, 64, 120
1, 190529, Control_c, 0, 64, 127
1, 190541, Note_on_c, 0, 51, 78
1, 190544, Note_on_c, 0, 75, 101
1, 190544, Note_on_c, 0, 87, 98
1, 190565, Note_off_c, 0, 51, 67
1, 190568, Note_on_c, 0, 42, 36
1, 190570, Note_on_c, 0, 52, 45
1, 190573, Note_on_c, 0, 85, 53
1, 190579, Note_on_c, 0, 53, 33
1, 190594, Note_off_c, 0, 85, 61
1, 190595, Note_off_c, 0, 75, 61
1, 190599, Note_off_c, 0, 52, 57
1, 190601, Note_off_c, 0, 42, 53
1, 190606, Note_off_c, 0, 87, 62
1, 190617, Note_off_c, 0, 53, 50
1, 190634, Poly_aftertouch_c, 0, 46, 0
1, 190636, Note_on_c, 0, 56, 91
1, 190657, Poly_aftertouch_c, 0, 46, 0
1, 190660, Note_off_c, 0, 56, 64
1, 190684, Note_on_c, 0, 44, 19
1, 190732, Note_off_c, 0, 44, 48
1, 190734, Note_on_c, 0, 63, 101
1, 190738, Note_on_c, 0, 73, 90
1, 190740, Note_on_c, 0, 85, 76
1, 190753, Note_on_c, 0, 51, 68
1, 190753, Note_off_c, 0, 63, 68
1, 190753, Note_off_c, 0, 73, 73
1, 190759, Note_off_c, 0, 85, 72
1, 190766, Note_on_c, 0, 82, 38
1, 190767, Note_off_c, 0, 82, 127
1, 190777, Note_off_c, 0, 51, 65
1, 190830, Note_on_c, 0, 71, 92
1, 190839, Note_on_c, 0, 75, 85
1, 190845, Note_on_c, 0, 83, 63
1, 190856, Poly_aftertouch_c, 0, 54, 0
1, 190857, Note_off_c, 0, 75, 68
1, 190862, Note_off_c, 0, 71, 66
1, 190863, Note_off_c, 0, 83, 65
1, 190919, Note_on_c, 0, 44, 100
1, 190922, Control_c, 0, 64, 98
1, 190931, Note_on_c, 0, 70, 99
1, 190937, Control_c, 0, 64, 66
1, 190938, Note_on_c, 0, 32, 64
1, 190938, Note_on_c, 0, 82, 83
1, 190947, Note_on_c, 0, 75, 75
1, 190948, Note_off_c, 0, 75, 127
1, 190948, Poly_aftertouch_c, 0, 81, 0
1, 190952, Control_c, 0, 64, 45
1, 190956, Note_off_c, 0, 44, 61
1, 190958, Note_on_c, 0, 80, 52
1, 190959, Note_off_c, 0, 80, 127
1, 190963, Note_off_c, 0, 32, 58
1, 190966, Control_c, 0, 64, 50
1, 190974, Note_off_c, 0, 70, 61
1, 190979, Note_off_c, 0, 82, 62
1, 190981, Control_c, 0, 64, 63
1, 190996, Control_c, 0, 64, 72
1, 191011, Control_c, 0, 64, 84
1, 191026, Control_c, 0, 64, 99
1, 191036, Note_on_c, 0, 71, 92
1, 191040, Note_on_c, 0, 83, 89
1, 191040, Control_c, 0, 64, 111
1, 191055, Control_c, 0, 64, 115
1, 191070, Control_c, 0, 64, 124
1, 191072, Note_off_c, 0, 71, 64
1, 191080, Note_off_c, 0, 83, 63
1, 191084, Control_c, 0, 64, 127
1, 191111, Note_on_c, 0, 51, 88
1, 191126, Note_on_c, 0, 73, 104
1, 191129, Note_on_c, 0, 85, 91
1, 191134, Note_on_c, 0, 39, 51
1, 191134, Note_off_c, 0, 51, 63
1, 191167, Note_on_c, 0, 84, 12
1, 191168, Note_off_c, 0, 39, 53
1, 191168, Note_off_c, 0, 73, 61
1, 191176, Note_on_c, 0, 52, 5
1, 191188, Note_off_c, 0, 85, 64
1, 191200, Note_off_c, 0, 52, 0
1, 191212, Note_on_c, 0, 56, 97
1, 191217, Note_off_c, 0, 84, 44
1, 191227, Poly_aftertouch_c, 0, 52, 0
1, 191242, Note_on_c, 0, 44, 43
1, 191245, Note_off_c, 0, 56, 61
1, 191266, Note_off_c, 0, 44, 61
1, 191320, Note_on_c, 0, 63, 100
1, 191332, Note_on_c, 0, 71, 87
1, 191333, Note_on_c, 0, 75, 89
1, 191334, Note_on_c, 0, 51, 73
1, 191337, Note_on_c, 0, 83, 78
1, 191340, Note_off_c, 0, 63, 63
1, 191346, Note_off_c, 0, 71, 73
1, 191349, Note_on_c, 0, 61, 40
1, 191350, Note_off_c, 0, 75, 70
1, 191351, Note_off_c, 0, 83, 69
1, 191355, Note_off_c, 0, 51, 65
1, 191361, Note_on_c, 0, 80, 34
1, 191376, Note_off_c, 0, 61, 58
1, 191393, Note_off_c, 0, 80, 48
1, 191417, Poly_aftertouch_c, 0, 82, 0
1, 191433, Note_on_c, 0, 82, 54
1, 191434, Note_on_c, 0, 70, 90
1, 191454, Note_on_c, 0, 75, 56
1, 191471, Note_off_c, 0, 75, 67
1, 191474, Note_off_c, 0, 70, 55
1, 191479, Note_off_c, 0, 82, 64
1, 191522, Note_on_c, 0, 71, 95
1, 191523, Control_c, 0, 64, 81
1, 191525, Note_on_c, 0, 44, 78
1, 191525, Note_on_c, 0, 75, 95
1, 191529, Note_on_c, 0, 83, 84
1, 191531, Note_on_c, 0, 32, 71
1, 191537, Note_on_c, 0, 42, 60
1, 191537, Control_c, 0, 64, 60
1, 191550, Note_off_c, 0, 32, 39
1, 191550, Note_off_c, 0, 83, 67
1, 191552, Control_c, 0, 64, 55
1, 191555, Note_off_c, 0, 71, 63
1, 191564, Note_off_c, 0, 42, 38
1, 191567, Control_c, 0, 64, 60
1, 191568, Note_off_c, 0, 44, 59
1, 191568, Note_off_c, 0, 75, 64
1, 191582, Control_c, 0, 64, 70
1, 191596, Control_c, 0, 64, 82
1, 191611, Control_c, 0, 64, 104
1, 191623, Note_on_c, 0, 70, 93
1, 191626, Control_c, 0, 64, 127
1, 191630, Note_on_c, 0, 82, 84
1, 191637, Note_on_c, 0, 75, 73
1, 191653, Note_off_c, 0, 70, 62
1, 191659, Note_off_c, 0, 75, 68
1, 191670, Note_on_c, 0, 80, 15
1, 191680, Note_off_c, 0, 82, 57
1, 191692, Note_off_c, 0, 80, 0
1, 191708, Poly_aftertouch_c, 0, 32, 0
1, 191710, Note_on_c, 0, 51, 91
1, 191716, Note_on_c, 0, 80, 42
1, 191718, Note_on_c, 0, 39, 70
1, 191724, Note_on_c, 0, 68, 90
1, 191733, Note_off_c, 0, 51, 66
1, 191742, Note_off_c, 0, 68, 68
1, 191746, Note_off_c, 0, 39, 66
1, 191757, Note_on_c, 0, 78, 40
1, 191783, Note_off_c, 0, 80, 61
1, 191784, Note_off_c, 0, 78, 51
1, 191806, Note_on_c, 0, 56, 90
1, 191823, Note_on_c, 0, 44, 58
1, 191832, Note_off_c, 0, 56, 64
1, 191856, Note_off_c, 0, 44, 53
1, 191915, Note_on_c, 0, 61, 95
1, 191924, Note_on_c, 0, 81, 92
1, 191925, Note_on_c, 0, 95, 74
1, 191928, Note_on_c, 0, 83, 94
1, 191933, Note_on_c, 0, 93, 81
1, 191933, Note_on_c, 0, 49, 62
1, 191936, Note_off_c, 0, 61, 65
1, 191938, Note_on_c, 0, 51, 58
1, 191945, Note_on_c, 0, 86, 66
1, 191956, Note_off_c, 0, 93, 60
1, 191961, Note_off_c, 0, 51, 61
1, 191966, Note_off_c, 0, 49, 65
1, 191966, Note_off_c, 0, 95, 62
1, 191967, Note_off_c, 0, 83, 60
1, 191969, Note_off_c, 0, 81, 59
1, 191999, Note_off_c, 0, 86, 62
1, 192050, Poly_aftertouch_c, 0, 62, 0
1, 192109, Control_c, 0, 64, 104
1, 192114, Note_on_c, 0, 44, 96
1, 192114, Note_on_c, 0, 82, 90
1, 192114, Note_on_c, 0, 87, 81
1, 192123, Note_on_c, 0, 94, 75
1, 192124, Control_c, 0, 64, 67
1, 192124, Note_on_c, 0, 32, 75
1, 192135, Note_off_c, 0, 87, 67
1, 192138, Control_c, 0, 64, 30
1, 192141, Note_off_c, 0, 82, 65
1, 192143, Note_off_c, 0, 44, 60
1, 192143, Note_off_c, 0, 94, 68
1, 192146, Note_off_c, 0, 32, 61
1, 192153, Control_c, 0, 64, 21
1, 192168, Control_c, 0, 64, 51
1, 192183, Control_c, 0, 64, 65
1, 192198, Control_c, 0, 64, 75
1, 192202, Note_on_c, 0, 83, 97
1, 192203, Note_on_c, 0, 95, 88
1, 192212, Control_c, 0, 64, 85
1, 192227, Note_on_c, 0, 93, 59
1, 192228, Note_off_c, 0, 93, 127
1, 192228, Control_c, 0, 64, 97
1, 192242, Control_c, 0, 64, 103
1, 192246, Note_off_c, 0, 83, 65
1, 192250, Note_off_c, 0, 95, 64
1, 192257, Control_c, 0, 64, 106
1, 192272, Control_c, 0, 64, 107
1, 192286, Control_c, 0, 64, 112
1, 192301, Control_c, 0, 64, 127
1, 192304, Note_on_c, 0, 51, 89
1, 192306, Note_on_c, 0, 85, 105
1, 192312, Note_on_c, 0, 97, 88
1, 192319, Note_on_c, 0, 39, 60
1, 192326, Note_on_c, 0, 94, 58
1, 192326, Note_on_c, 0, 96, 69
1, 192330, Note_off_c, 0, 51, 63
1, 192343, Note_off_c, 0, 94, 65
1, 192345, Note_on_c, 0, 92, 41
1, 192346, Note_off_c, 0, 96, 61
1, 192347, Note_off_c, 0, 39, 59
1, 192349, Note_on_c, 0, 46, 12
1, 192359, Note_off_c, 0, 85, 61
1, 192369, Note_off_c, 0, 97, 62
1, 192374, Note_off_c, 0, 92, 57
1, 192382, Poly_aftertouch_c, 0, 44, 0
1, 192395, Note_on_c, 0, 44, 20
1, 192396, Note_off_c, 0, 46, 0
1, 192401, Note_on_c, 0, 56, 93
1, 192414, Poly_aftertouch_c, 0, 46, 0
1, 192430, Note_off_c, 0, 56, 63
1, 192433, Note_off_c, 0, 44, 62
1, 192497, Note_on_c, 0, 83, 99
1, 192497, Note_on_c, 0, 87, 98
1, 192503, Note_on_c, 0, 63, 96
1, 192503, Note_on_c, 0, 95, 80
1, 192516, Note_on_c, 0, 90, 55
1, 192517, Note_off_c, 0, 90, 127
1, 192517, Note_on_c, 0, 51, 69
1, 192517, Note_off_c, 0, 95, 69
1, 192518, Note_off_c, 0, 83, 67
1, 192519, Note_off_c, 0, 63, 73
1, 192526, Note_off_c, 0, 87, 63
1, 192540, Note_off_c, 0, 51, 66
1, 192547, Note_on_c, 0, 54, 31
1, 192586, Note_off_c, 0, 54, 53
1, 192598, Note_on_c, 0, 82, 94
1, 192604, Note_on_c, 0, 94, 83
1, 192625, Note_off_c, 0, 94, 67
1, 192639, Note_on_c, 0, 90, 23
1, 192640, Note_off_c, 0, 90, 127
1, 192643, Note_off_c, 0, 82, 61
1, 192672, Control_c, 0, 64, 99
1, 192686, Note_on_c, 0, 44, 89
1, 192686, Control_c, 0, 64, 63
1, 192688, Note_on_c, 0, 87, 76
1, 192689, Note_on_c, 0, 83, 91
1, 192693, Note_on_c, 0, 32, 75
1, 192695, Note_on_c, 0, 95, 95
1, 192701, Control_c, 0, 64, 48
1, 192714, Note_off_c, 0, 32, 64
1, 192716, Control_c, 0, 64, 54
1, 192720, Note_off_c, 0, 87, 64
1, 192723, Note_off_c, 0, 44, 56
1, 192726, Note_on_c, 0, 34, 19
1, 192727, Note_off_c, 0, 34, 127
1, 192727, Note_off_c, 0, 83, 62
1, 192730, Note_on_c, 0, 94, 27
1, 192731, Control_c, 0, 64, 65
1, 192736, Note_on_c, 0, 84, 23
1, 192737, Note_off_c, 0, 84, 127
1, 192737, Note_off_c, 0, 95, 62
1, 192746, Control_c, 0, 64, 73
1, 192761, Control_c, 0, 64, 86
1, 192766, Note_off_c, 0, 94, 37
1, 192784, Control_c, 0, 64, 105
1, 192794, Note_on_c, 0, 85, 92
1, 192799, Control_c, 0, 64, 127
1, 192803, Note_on_c, 0, 97, 89
1, 192823, Note_on_c, 0, 98, 50
1, 192832, Note_off_c, 0, 97, 63
1, 192834, Note_off_c, 0, 85, 65
1, 192845, Note_off_c, 0, 98, 62
1, 192879, Note_on_c, 0, 51, 92
1, 192888, Note_on_c, 0, 39, 67
1, 192894, Note_on_c, 0, 87, 85
1, 192896, Note_on_c, 0, 99, 96
1, 192912, Note_off_c, 0, 51, 58
1, 192920, Note_off_c, 0, 39, 63
1, 192943, Note_off_c, 0, 87, 60
1, 192950, Note_on_c, 0, 97, 15
1, 192951, Note_off_c, 0, 97, 127
1, 192963, Note_off_c, 0, 99, 59
1, 192975, Note_on_c, 0, 44, 37
1, 192978, Note_on_c, 0, 56, 96
1, 193007, Note_off_c, 0, 56, 60
1, 193010, Note_off_c, 0, 44, 61
1, 193056, Poly_aftertouch_c, 0, 46, 0
1, 193079, Note_on_c, 0, 63, 98
1, 193092, Poly_aftertouch_c, 0, 49, 0
1, 193094, Note_on_c, 0, 51, 74
1, 193096, Note_on_c, 0, 85, 87
1, 193097, Note_on_c, 0, 97, 75
1, 193100, Note_off_c, 0, 63, 67
1, 193107, Note_on_c, 0, 90, 72
1, 193108, Note_off_c, 0, 90, 127
1, 193108, Note_on_c, 0, 94, 64
1, 193109, Note_off_c, 0, 94, 127
1, 193110, Note_off_c, 0, 97, 73
1, 193113, Note_off_c, 0, 85, 72
1, 193126, Note_off_c, 0, 51, 60
1, 193130, Poly_aftertouch_c, 0, 49, 0
1, 193191, Note_on_c, 0, 83, 90
1, 193203, Note_on_c, 0, 87, 87
1, 193209, Note_on_c, 0, 95, 73
1, 193213, Poly_aftertouch_c, 0, 92, 0
1, 193214, Note_on_c, 0, 92, 37
1, 193218, Note_on_c, 0, 90, 30
1, 193219, Note_off_c, 0, 90, 127
1, 193220, Note_off_c, 0, 87, 70
1, 193225, Note_off_c, 0, 83, 66
1, 193230, Note_off_c, 0, 95, 66
1, 193243, Note_off_c, 0, 92, 57
1, 193273, Note_on_c, 0, 44, 89
1, 193273, Control_c, 0, 64, 91
1, 193282, Note_on_c, 0, 32, 73
1, 193288, Control_c, 0, 64, 64
1, 193293, Note_on_c, 0, 94, 91
1, 193297, Note_on_c, 0, 83, 89
1, 193299, Note_on_c, 0, 42, 48
1, 193300, Note_off_c, 0, 42, 127
1, 193303, Control_c, 0, 64, 52
1, 193309, Note_off_c, 0, 32, 59
1, 193314, Note_off_c, 0, 44, 58
1, 193316, Note_off_c, 0, 83, 64
1, 193317, Control_c, 0, 64, 58
1, 193318, Note_on_c, 0, 87, 38
1, 193319, Note_off_c, 0, 87, 127
1, 193319, Note_on_c, 0, 92, 53
1, 193320, Note_off_c, 0, 92, 127
1, 193320, Note_on_c, 0, 90, 54
1, 193321, Note_off_c, 0, 90, 127
1, 193329, Note_off_c, 0, 94, 57
1, 193332, Control_c, 0, 64, 67
1, 193347, Control_c, 0, 64, 75
1, 193362, Control_c, 0, 64, 89
1, 193377, Control_c, 0, 64, 108
1, 193390, Note_on_c, 0, 83, 100
1, 193392, Control_c, 0, 64, 127
1, 193394, Note_on_c, 0, 95, 89
1, 193430, Note_off_c, 0, 83, 67
1, 193434, Note_off_c, 0, 95, 64
1, 193473, Note_on_c, 0, 51, 90
1, 193484, Note_on_c, 0, 39, 68
1, 193492, Note_on_c, 0, 85, 96
1, 193495, Note_on_c, 0, 97, 82
1, 193502, Note_on_c, 0, 96, 74
1, 193503, Note_off_c, 0, 51, 61
1, 193509, Note_off_c, 0, 39, 63
1, 193535, Note_off_c, 0, 96, 59
1, 193540, Note_off_c, 0, 85, 57
1, 193541, Note_on_c, 0, 94, 17
1, 193561, Note_off_c, 0, 97, 62
1, 193581, Note_off_c, 0, 94, 40
1, 193591, Note_on_c, 0, 56, 82
1, 193610, Note_on_c, 0, 58, 66
1, 193612, Note_off_c, 0, 56, 69
1, 193630, Note_off_c, 0, 58, 63
1, 193659, Note_on_c, 0, 44, 3
1, 193688, Note_on_c, 0, 87, 93
1, 193693, Note_on_c, 0, 63, 90
1, 193693, Note_on_c, 0, 95, 79
1, 193694, Note_on_c, 0, 83, 78
1, 193698, Note_on_c, 0, 81, 76
1, 193701, Note_off_c, 0, 44, 46
1, 193702, Note_on_c, 0, 92, 61
1, 193707, Note_off_c, 0, 95, 71
1, 193709, Note_off_c, 0, 63, 72
1, 193709, Note_off_c, 0, 87, 65
1, 193711, Note_on_c, 0, 51, 72
1, 193712, Note_off_c, 0, 81, 71
1, 193714, Note_off_c, 0, 83, 69
1, 193720, Note_off_c, 0, 92, 66
1, 193737, Note_off_c, 0, 51, 65
1, 193760, Poly_aftertouch_c, 0, 56, 127
1, 193785, Note_on_c, 0, 82, 92
1, 193788, Note_on_c, 0, 94, 69
1, 193794, Note_on_c, 0, 92, 75
1, 193795, Note_off_c, 0, 92, 127
1, 193795, Poly_aftertouch_c, 0, 56, 0
1, 193796, Note_on_c, 0, 87, 75
1, 193819, Note_off_c, 0, 87, 65
1, 193828, Note_off_c, 0, 82, 60
1, 193833, Note_off_c, 0, 94, 61
1, 193883, Note_on_c, 0, 87, 88
1, 193885, Note_on_c, 0, 83, 93
1, 193893, Note_on_c, 0, 95, 84
1, 193896, Note_on_c, 0, 46, 74
1, 193899, Note_on_c, 0, 92, 53
1, 193902, Note_on_c, 0, 44, 75
1, 193903, Note_on_c, 0, 84, 72
1, 193903, Control_c, 0, 64, 83
1, 193905, Note_on_c, 0, 34, 68
1, 193911, Note_off_c, 0, 95, 69
1, 193916, Note_off_c, 0, 83, 68
1, 193918, Control_c, 0, 64, 61
1, 193920, Note_off_c, 0, 84, 46
1, 193923, Note_off_c, 0, 44, 59
1, 193923, Note_off_c, 0, 92, 35
1, 193931, Note_off_c, 0, 34, 50
1, 193931, Note_off_c, 0, 46, 60
1, 193931, Note_off_c, 0, 87, 64
1, 193933, Control_c, 0, 64, 55
1, 193948, Control_c, 0, 64, 63
1, 193963, Control_c, 0, 64, 71
1, 193977, Control_c, 0, 64, 84
1, 193992, Control_c, 0, 64, 113
1, 193994, Note_on_c, 0, 94, 73
1, 193999, Note_on_c, 0, 80, 88
1, 194005, Note_on_c, 0, 87, 80
1, 194007, Control_c, 0, 64, 127
1, 194009, Note_off_c, 0, 94, 69
1, 194015, Note_on_c, 0, 82, 66
1, 194025, Note_off_c, 0, 87, 68
1, 194034, Note_off_c, 0, 82, 41
1, 194067, Note_off_c, 0, 80, 65
1, 194082, Note_on_c, 0, 42, 83
1, 194087, Note_on_c, 0, 51, 73
1, 194094, Poly_aftertouch_c, 0, 92, 0
1, 194095, Note_on_c, 0, 53, 66
1, 194101, Note_on_c, 0, 52, 60
1, 194107, Note_off_c, 0, 51, 62
1, 194108, Note_off_c, 0, 42, 65
1, 194116, Note_off_c, 0, 53, 64
1, 194122, Note_off_c, 0, 52, 62
1, 194217, Note_on_c, 0, 70, 50
1, 194236, Note_on_c, 0, 59, 52
1, 194239, Note_on_c, 0, 46, 38
1, 194250, Note_off_c, 0, 70, 59
1, 194259, Note_off_c, 0, 59, 58
1, 194274, Control_c, 0, 64, 82
1, 194297, Control_c, 0, 64, 56
1, 194298, Note_off_c, 0, 46, 40
1, 194301, Note_on_c, 0, 59, 81
1, 194304, Note_on_c, 0, 63, 93
1, 194306, Note_on_c, 0, 51, 80
1, 194307, Note_on_c, 0, 70, 87
1, 194310, Note_on_c, 0, 75, 78
1, 194311, Control_c, 0, 64, 41
1, 194326, Control_c, 0, 64, 60
1, 194332, Note_off_c, 0, 75, 66
1, 194333, Note_on_c, 0, 49, 27
1, 194340, Note_off_c, 0, 59, 62
1, 194341, Control_c, 0, 64, 76
1, 194355, Note_off_c, 0, 63, 60
1, 194356, Control_c, 0, 64, 96
1, 194361, Note_off_c, 0, 51, 58
1, 194370, Note_off_c, 0, 49, 52
1, 194371, Control_c, 0, 64, 127
1, 194381, Note_off_c, 0, 70, 57
1, 194431, Control_c, 0, 64, 106
1, 194438, Poly_aftertouch_c, 0, 50, 0
1, 194446, Control_c, 0, 64, 73
1, 194461, Control_c, 0, 64, 49
1, 194476, Control_c, 0, 64, 0
1, 194477, Note_on_c, 0, 58, 89
1, 194478, Note_on_c, 0, 63, 77
1, 194486, Note_on_c, 0, 70, 68
1, 194487, Note_on_c, 0, 46, 73
1, 194495, Note_off_c, 0, 63, 71
1, 194504, Note_on_c, 0, 51, 34
1, 194516, Note_off_c, 0, 70, 64
1, 194519, Note_off_c, 0, 58, 57
1, 194519, Note_off_c, 0, 46, 63
1, 194535, Note_off_c, 0, 51, 51
1, 194554, Poly_aftertouch_c, 0, 70, 0
1, 194559, Note_on_c, 0, 70, 66
1, 194561, Note_on_c, 0, 59, 81
1, 194584, Note_on_c, 0, 51, 59
1, 194587, Note_off_c, 0, 59, 65
1, 194589, Note_on_c, 0, 63, 55
1, 194610, Note_off_c, 0, 63, 61
1, 194611, Note_off_c, 0, 51, 65
1, 194623, Note_off_c, 0, 70, 60
1, 194638, Control_c, 0, 64, 29
1, 194653, Note_on_c, 0, 75, 93
1, 194653, Control_c, 0, 64, 68
1, 194658, Note_on_c, 0, 63, 102
1, 194659, Note_on_c, 0, 61, 99
1, 194663, Note_on_c, 0, 51, 83
1, 194664, Note_on_c, 0, 49, 57
1, 194665, Note_on_c, 0, 73, 83
1, 194668, Control_c, 0, 64, 86
1, 194683, Control_c, 0, 64, 127
1, 194707, Note_off_c, 0, 49, 61
1, 194733, Note_off_c, 0, 61, 57
1, 194748, Note_off_c, 0, 51, 57
1, 194760, Note_off_c, 0, 63, 59
1, 194762, Note_off_c, 0, 73, 58
1, 194763, Note_off_c, 0, 75, 59
1, 194856, Note_on_c, 0, 51, 86
1, 194856, Note_on_c, 0, 59, 87
1, 194861, Control_c, 0, 64, 89
1, 194867, Note_on_c, 0, 63, 82
1, 194873, Note_on_c, 0, 71, 62
1, 194875, Control_c, 0, 64, 65
1, 194883, Note_off_c, 0, 59, 64
1, 194888, Note_off_c, 0, 63, 67
1, 194890, Control_c, 0, 64, 40
1, 194894, Note_off_c, 0, 71, 62
1, 194900, Note_on_c, 0, 49, 17
1, 194901, Note_off_c, 0, 49, 127
1, 194905, Control_c, 0, 64, 0
1, 194906, Note_off_c, 0, 51, 57
1, 194948, Note_on_c, 0, 58, 86
1, 194959, Note_on_c, 0, 63, 81
1, 194969, Note_on_c, 0, 70, 66
1, 194972, Note_on_c, 0, 51, 36
1, 194975, Note_on_c, 0, 46, 45
1, 194981, Note_off_c, 0, 58, 61
1, 194986, Note_off_c, 0, 63, 62
1, 194996, Note_off_c, 0, 70, 64
1, 195001, Note_off_c, 0, 51, 50
1, 195003, Note_off_c, 0, 46, 56
1, 195053, Note_on_c, 0, 59, 92
1, 195058, Note_on_c, 0, 71, 64
1, 195060, Note_on_c, 0, 51, 80
1, 195064, Note_on_c, 0, 63, 86
1, 195079, Note_off_c, 0, 59, 63
1, 195091, Note_on_c, 0, 75, 36
1, 195091, Note_off_c, 0, 51, 62
1, 195094, Note_off_c, 0, 63, 60
1, 195108, Note_off_c, 0, 71, 61
1, 195120, Note_off_c, 0, 75, 47
1, 195154, Note_on_c, 0, 51, 73
1, 195154, Note_on_c, 0, 58, 81
1, 195157, Note_on_c, 0, 63, 83
1, 195177, Note_off_c, 0, 58, 67
1, 195178, Note_on_c, 0, 70, 42
1, 195179, Note_off_c, 0, 70, 127
1, 195181, Note_on_c, 0, 75, 57
1, 195182, Note_off_c, 0, 51, 64
1, 195195, Note_off_c, 0, 63, 60
1, 195201, Note_off_c, 0, 75, 64
1, 195228, Note_on_c, 0, 51, 76
1, 195229, Note_on_c, 0, 56, 72
1, 195237, Note_on_c, 0, 44, 71
1, 195239, Control_c, 0, 64, 43
1, 195254, Control_c, 0, 64, 76
1, 195255, Note_off_c, 0, 51, 61
1, 195257, Note_on_c, 0, 75, 75
1, 195258, Note_off_c, 0, 56, 65
1, 195264, Note_on_c, 0, 63, 45
1, 195269, Control_c, 0, 64, 107
1, 195273, Note_off_c, 0, 75, 65
1, 195278, Note_on_c, 0, 76, 65
1, 195282, Note_off_c, 0, 44, 61
1, 195284, Control_c, 0, 64, 127
1, 195294, Note_off_c, 0, 63, 55
1, 195296, Note_off_c, 0, 76, 66
1, 195416, Note_on_c, 0, 44, 92
1, 195425, Note_on_c, 0, 75, 98
1, 195427, Note_on_c, 0, 87, 93
1, 195434, Note_on_c, 0, 32, 64
1, 195434, Note_on_c, 0, 39, 62
1, 195438, Note_on_c, 0, 80, 68
1, 195439, Note_off_c, 0, 80, 127
1, 195441, Note_on_c, 0, 81, 65
1, 195443, Note_off_c, 0, 87, 72
1, 195449, Note_on_c, 0, 38, 48
1, 195452, Note_on_c, 0, 85, 41
1, 195458, Note_off_c, 0, 81, 66
1, 195460, Note_on_c, 0, 82, 32
1, 195461, Note_off_c, 0, 82, 127
1, 195464, Note_off_c, 0, 39, 57
1, 195467, Note_off_c, 0, 44, 55
1, 195467, Note_off_c, 0, 32, 53
1, 195469, Note_off_c, 0, 75, 62
1, 195479, Note_off_c, 0, 85, 60
1, 195479, Note_off_c, 0, 38, 53
1, 195491, Poly_aftertouch_c, 0, 82, 0
1, 195580, Control_c, 0, 64, 104
1, 195595, Control_c, 0, 64, 70
1, 195610, Control_c, 0, 64, 41
1, 195614, Note_on_c, 0, 58, 84
1, 195618, Note_on_c, 0, 46, 75
1, 195622, Note_on_c, 0, 63, 69
1, 195624, Control_c, 0, 64, 0
1, 195641, Note_off_c, 0, 63, 66
1, 195654, Note_off_c, 0, 58, 55
1, 195661, Note_off_c, 0, 46, 57
1, 195699, Note_on_c, 0, 59, 86
1, 195699, Note_on_c, 0, 71, 65
1, 195710, Note_on_c, 0, 51, 74
1, 195720, Note_on_c, 0, 63, 49
1, 195722, Note_off_c, 0, 59, 65
1, 195739, Note_off_c, 0, 51, 63
1, 195743, Note_off_c, 0, 63, 59
1, 195748, Note_off_c, 0, 71, 62
1, 195759, Poly_aftertouch_c, 0, 70, 0
1, 195794, Note_on_c, 0, 75, 94
1, 195794, Control_c, 0, 64, 61
1, 195795, Note_on_c, 0, 49, 72
1, 195795, Note_on_c, 0, 61, 100
1, 195796, Note_on_c, 0, 63, 105
1, 195799, Note_on_c, 0, 51, 84
1, 195803, Note_on_c, 0, 73, 86
1, 195809, Control_c, 0, 64, 82
1, 195824, Control_c, 0, 64, 127
1, 195824, Note_on_c, 0, 54, 53
1, 195836, Note_on_c, 0, 72, 33
1, 195840, Note_off_c, 0, 49, 56
1, 195849, Note_off_c, 0, 54, 60
1, 195856, Note_off_c, 0, 61, 58
1, 195867, Note_off_c, 0, 72, 52
1, 195872, Note_off_c, 0, 75, 65
1, 195878, Note_off_c, 0, 51, 57
1, 195880, Note_off_c, 0, 63, 58
1, 195901, Note_off_c, 0, 73, 58
1, 195998, Note_on_c, 0, 51, 84
1, 196000, Note_on_c, 0, 59, 88
1, 196006, Note_on_c, 0, 63, 80
1, 196010, Note_on_c, 0, 71, 65
1, 196017, Control_c, 0, 64, 81
1, 196026, Note_off_c, 0, 59, 64
1, 196032, Control_c, 0, 64, 59
1, 196036, Note_off_c, 0, 63, 57
1, 196039, Note_off_c, 0, 71, 64
1, 196043, Note_off_c, 0, 51, 59
1, 196047, Control_c, 0, 64, 19
1, 196061, Control_c, 0, 64, 0
1, 196100, Note_on_c, 0, 58, 86
1, 196102, Note_on_c, 0, 63, 74
1, 196108, Note_on_c, 0, 70, 68
1, 196125, Note_on_c, 0, 46, 48
1, 196129, Note_on_c, 0, 51, 34
1, 196131, Note_off_c, 0, 63, 60
1, 196132, Note_off_c, 0, 58, 58
1, 196136, Note_off_c, 0, 70, 63
1, 196153, Note_off_c, 0, 46, 55
1, 196158, Note_off_c, 0, 51, 34
1, 196189, Note_on_c, 0, 59, 91
1, 196198, Note_on_c, 0, 71, 66
1, 196199, Note_on_c, 0, 63, 83
1, 196203, Note_on_c, 0, 51, 74
1, 196220, Note_off_c, 0, 59, 65
1, 196233, Note_off_c, 0, 63, 62
1, 196233, Note_off_c, 0, 51, 63
1, 196247, Note_off_c, 0, 71, 61
1, 196290, Note_on_c, 0, 58, 87
1, 196295, Note_on_c, 0, 63, 83
1, 196296, Note_on_c, 0, 51, 73
1, 196300, Note_on_c, 0, 70, 77
1, 196315, Note_on_c, 0, 75, 51
1, 196317, Note_off_c, 0, 58, 64
1, 196322, Note_off_c, 0, 51, 65
1, 196326, Note_off_c, 0, 63, 62
1, 196331, Note_off_c, 0, 70, 56
1, 196336, Note_off_c, 0, 75, 62
1, 196369, Note_on_c, 0, 56, 75
1, 196374, Note_on_c, 0, 51, 77
1, 196376, Note_on_c, 0, 44, 73
1, 196383, Note_on_c, 0, 63, 82
1, 196386, Note_on_c, 0, 75, 88
1, 196387, Control_c, 0, 64, 38
1, 196396, Note_off_c, 0, 56, 65
1, 196399, Note_off_c, 0, 51, 66
1, 196401, Note_off_c, 0, 63, 72
1, 196402, Control_c, 0, 64, 72
1, 196417, Control_c, 0, 64, 91
1, 196429, Note_off_c, 0, 44, 59
1, 196432, Control_c, 0, 64, 127
1, 196435, Note_off_c, 0, 75, 63
1, 196565, Note_on_c, 0, 44, 94
1, 196571, Note_on_c, 0, 75, 102
1, 196572, Note_on_c, 0, 39, 88
1, 196576, Note_on_c, 0, 87, 90
1, 196577, Note_on_c, 0, 80, 91
1, 196590, Note_on_c, 0, 32, 59
1, 196593, Note_off_c, 0, 80, 68
1, 196593, Note_off_c, 0, 87, 72
1, 196602, Note_off_c, 0, 39, 64
1, 196604, Note_off_c, 0, 44, 57
1, 196608, Note_off_c, 0, 75, 64
1, 196620, Note_off_c, 0, 32, 56
1, 196735, Control_c, 0, 64, 109
1, 196750, Control_c, 0, 64, 75
1, 196761, Note_on_c, 0, 59, 91
1, 196765, Note_on_c, 0, 51, 76
1, 196765, Note_on_c, 0, 63, 78
1, 196765, Control_c, 0, 64, 51
1, 196774, Note_on_c, 0, 49, 58
1, 196775, Note_off_c, 0, 49, 127
1, 196780, Control_c, 0, 64, 0
1, 196783, Note_off_c, 0, 59, 66
1, 196785, Note_off_c, 0, 63, 69
1, 196789, Note_on_c, 0, 72, 36
1, 196793, Note_on_c, 0, 71, 36
1, 196796, Note_off_c, 0, 51, 59
1, 196818, Note_off_c, 0, 72, 49
1, 196823, Note_off_c, 0, 71, 48
1, 196851, Note_on_c, 0, 58, 87
1, 196859, Note_on_c, 0, 63, 91
1, 196859, Note_on_c, 0, 51, 69
1, 196861, Note_on_c, 0, 70, 77
1, 196880, Note_off_c, 0, 58, 62
1, 196882, Note_off_c, 0, 63, 62
1, 196889, Note_off_c, 0, 51, 63
1, 196892, Note_off_c, 0, 70, 56
1, 196894, Note_on_c, 0, 75, 22
1, 196914, Control_c, 0, 64, 21
1, 196928, Control_c, 0, 64, 66
1, 196932, Note_off_c, 0, 75, 30
1, 196937, Note_on_c, 0, 56, 80
1, 196943, Control_c, 0, 64, 83
1, 196950, Note_on_c, 0, 44, 74
1, 196958, Control_c, 0, 64, 127
1, 196960, Note_on_c, 0, 51, 51
1, 196961, Note_on_c, 0, 66, 66
1, 196962, Note_on_c, 0, 77, 72
1, 196963, Note_on_c, 0, 49, 33
1, 196963, Note_off_c, 0, 56, 65
1, 196975, Note_on_c, 0, 76, 60
1, 196978, Note_off_c, 0, 66, 66
1, 196987, Note_off_c, 0, 51, 61
1, 196989, Note_off_c, 0, 44, 60
1, 196995, Note_off_c, 0, 76, 63
1, 196998, Note_off_c, 0, 49, 56
1, 197005, Note_off_c, 0, 77, 58
1, 197116, Note_on_c, 0, 80, 111
1, 197119, Note_on_c, 0, 44, 89
1, 197120, Note_on_c, 0, 92, 98
1, 197124, Note_on_c, 0, 87, 80
1, 197130, Note_on_c, 0, 37, 77
1, 197132, Note_on_c, 0, 32, 75
1, 197134, Note_off_c, 0, 92, 72
1, 197138, Note_on_c, 0, 82, 66
1, 197139, Note_off_c, 0, 82, 127
1, 197143, Note_on_c, 0, 85, 49
1, 197144, Note_off_c, 0, 85, 127
1, 197148, Note_off_c, 0, 87, 62
1, 197149, Note_off_c, 0, 44, 59
1, 197151, Note_on_c, 0, 34, 43
1, 197152, Note_off_c, 0, 34, 127
1, 197155, Note_off_c, 0, 32, 62
1, 197159, Note_off_c, 0, 37, 63
1, 197160, Note_on_c, 0, 90, 19
1, 197160, Note_on_c, 0, 42, 28
1, 197164, Note_off_c, 0, 80, 60
1, 197197, Note_off_c, 0, 90, 54
1, 197199, Note_off_c, 0, 42, 51
1, 197208, Poly_aftertouch_c, 0, 88, 127
1, 197232, Poly_aftertouch_c, 0, 88, 0
1, 197306, Control_c, 0, 64, 109
1, 197312, Note_on_c, 0, 59, 89
1, 197316, Note_on_c, 0, 51, 81
1, 197317, Note_on_c, 0, 63, 84
1, 197321, Note_on_c, 0, 71, 70
1, 197321, Control_c, 0, 64, 73
1, 197333, Note_off_c, 0, 59, 65
1, 197336, Control_c, 0, 64, 47
1, 197337, Note_off_c, 0, 63, 69
1, 197342, Note_off_c, 0, 71, 59
1, 197348, Note_on_c, 0, 49, 26
1, 197350, Note_off_c, 0, 51, 62
1, 197351, Control_c, 0, 64, 0
1, 197355, Note_on_c, 0, 54, 19
1, 197356, Note_off_c, 0, 54, 127
1, 197385, Note_off_c, 0, 49, 36
1, 197410, Note_on_c, 0, 58, 87
1, 197411, Note_on_c, 0, 51, 79
1, 197412, Note_on_c, 0, 63, 94
1, 197422, Note_on_c, 0, 70, 57
1, 197431, Note_off_c, 0, 63, 67
1, 197435, Note_on_c, 0, 73, 44
1, 197439, Note_off_c, 0, 51, 66
1, 197442, Note_off_c, 0, 58, 60
1, 197443, Note_off_c, 0, 70, 59
1, 197446, Note_on_c, 0, 75, 31
1, 197460, Note_off_c, 0, 73, 57
1, 197484, Control_c, 0, 64, 44
1, 197485, Note_on_c, 0, 51, 83
1, 197488, Note_on_c, 0, 56, 82
1, 197493, Note_off_c, 0, 75, 0
1, 197493, Note_on_c, 0, 75, 72
1, 197499, Control_c, 0, 64, 76
1, 197500, Note_on_c, 0, 63, 87
1, 197503, Note_on_c, 0, 44, 72
1, 197512, Note_off_c, 0, 56, 67
1, 197514, Control_c, 0, 64, 105
1, 197519, Note_off_c, 0, 63, 70
1, 197524, Note_off_c, 0, 51, 61
1, 197528, Control_c, 0, 64, 127
1, 197546, Note_off_c, 0, 44, 61
1, 197548, Note_off_c, 0, 75, 63
1, 197699, Note_on_c, 0, 83, 100
1, 197702, Note_on_c, 0, 44, 93
1, 197704, Note_on_c, 0, 87, 99
1, 197705, Note_on_c, 0, 95, 90
1, 197711, Note_on_c, 0, 39, 86
1, 197713, Note_on_c, 0, 32, 77
1, 197720, Note_off_c, 0, 95, 72
1, 197735, Note_off_c, 0, 32, 65
1, 197756, Note_off_c, 0, 83, 66
1, 197762, Note_off_c, 0, 44, 59
1, 197765, Note_off_c, 0, 87, 63
1, 197766, Note_off_c, 0, 39, 63
1, 197802, Poly_aftertouch_c, 0, 92, 127
1, 197816, Poly_aftertouch_c, 0, 92, 0
1, 197914, Note_on_c, 0, 59, 94
1, 197922, Note_on_c, 0, 51, 81
1, 197923, Note_on_c, 0, 63, 80
1, 197924, Note_on_c, 0, 71, 67
1, 197929, Control_c, 0, 64, 91
1, 197937, Note_on_c, 0, 54, 54
1, 197938, Note_off_c, 0, 54, 127
1, 197939, Note_off_c, 0, 59, 64
1, 197943, Control_c, 0, 64, 64
1, 197944, Note_off_c, 0, 63, 67
1, 197945, Note_on_c, 0, 49, 39
1, 197952, Note_off_c, 0, 71, 65
1, 197958, Control_c, 0, 64, 34
1, 197959, Note_off_c, 0, 51, 61
1, 197973, Control_c, 0, 64, 0
1, 197980, Note_off_c, 0, 49, 33
1, 198009, Note_on_c, 0, 51, 71
1, 198010, Note_on_c, 0, 58, 87
1, 198010, Note_on_c, 0, 70, 78
1, 198011, Note_on_c, 0, 63, 82
1, 198048, Note_off_c, 0, 58, 63
1, 198051, Note_off_c, 0, 63, 63
1, 198054, Note_off_c, 0, 51, 60
1, 198068, Note_off_c, 0, 70, 56
1, 198097, Note_on_c, 0, 56, 99
1, 198101, Note_on_c, 0, 51, 76
1, 198102, Note_on_c, 0, 63, 92
1, 198103, Note_on_c, 0, 75, 80
1, 198114, Note_on_c, 0, 44, 77
1, 198114, Control_c, 0, 64, 41
1, 198129, Control_c, 0, 64, 71
1, 198130, Note_off_c, 0, 63, 66
1, 198133, Note_off_c, 0, 56, 59
1, 198138, Note_on_c, 0, 73, 43
1, 198144, Control_c, 0, 64, 88
1, 198147, Note_off_c, 0, 51, 59
1, 198158, Control_c, 0, 64, 127
1, 198164, Note_off_c, 0, 44, 62
1, 198164, Note_off_c, 0, 73, 54
1, 198165, Note_off_c, 0, 75, 63
1, 198218, Poly_aftertouch_c, 0, 68, 0
1, 198347, Note_on_c, 0, 44, 81
1, 198350, Control_c, 0, 64, 73
1, 198351, Note_on_c, 0, 87, 96
1, 198351, Note_on_c, 0, 99, 97
1, 198353, Note_on_c, 0, 39, 86
1, 198357, Note_on_c, 0, 32, 82
1, 198358, Note_on_c, 0, 92, 97
1, 198380, Control_c, 0, 64, 0
1, 198411, Control_c, 0, 64, 45
1, 198412, Note_off_c, 0, 32, 62
1, 198426, Control_c, 0, 64, 66
1, 198438, Note_off_c, 0, 44, 60
1, 198439, Note_off_c, 0, 87, 63
1, 198441, Control_c, 0, 64, 79
1, 198452, Note_off_c, 0, 39, 63
1, 198455, Control_c, 0, 64, 98
1, 198461, Note_off_c, 0, 99, 49
1, 198470, Note_off_c, 0, 92, 63
1, 198470, Control_c, 0, 64, 127
1, 198701, Note_on_c, 0, 51, 70
1, 198701, Note_on_c, 0, 56, 94
1, 198703, Note_on_c, 0, 99, 97
1, 198704, Note_on_c, 0, 87, 96
1, 198705, Note_on_c, 0, 92, 93
1, 198707, Note_on_c, 0, 44, 71
1, 198737, Note_off_c, 0, 44, 63
1, 198752, Note_off_c, 0, 56, 61
1, 198760, Note_on_c, 0, 96, 10
1, 198764, Note_off_c, 0, 51, 61
1, 198781, Note_off_c, 0, 87, 62
1, 198803, Note_off_c, 0, 92, 59
1, 198818, Note_off_c, 0, 96, 50
1, 198877, Note_off_c, 0, 99, 41
1, 198909, Note_on_c, 0, 63, 84
1, 198909, Note_on_c, 0, 87, 93
1, 198910, Note_on_c, 0, 68, 87
1, 198910, Note_on_c, 0, 99, 85
1, 198910, Note_on_c, 0, 92, 89
1, 198919, Note_on_c, 0, 56, 56
1, 198942, Note_off_c, 0, 56, 64
1, 198955, Note_off_c, 0, 68, 53
1, 198969, Note_off_c, 0, 63, 59
1, 198993, Note_off_c, 0, 87, 61
1, 199008, Note_off_c, 0, 99, 59
1, 199041, Note_off_c, 0, 92, 33
1, 199094, Note_on_c, 0, 75, 87
1, 199095, Note_on_c, 0, 80, 92
1, 199099, Note_on_c, 0, 92, 80
1, 199099, Note_on_c, 0, 99, 94
1, 199100, Note_on_c, 0, 87, 100
1, 199118, Note_off_c, 0, 80, 60
1, 199121, Note_on_c, 0, 68, 52
1, 199141, Note_off_c, 0, 75, 59
1, 199165, Note_off_c, 0, 68, 56
1, 199193, Note_off_c, 0, 87, 60
1, 199229, Note_off_c, 0, 92, 58
1, 199231, Note_off_c, 0, 99, 52
1, 199280, Note_on_c, 0, 68, 82
1, 199288, Note_on_c, 0, 63, 82
1, 199288, Note_on_c, 0, 87, 99
1, 199291, Note_on_c, 0, 99, 88
1, 199297, Note_on_c, 0, 92, 78
1, 199300, Note_off_c, 0, 68, 67
1, 199309, Note_off_c, 0, 63, 68
1, 199318, Note_on_c, 0, 56, 53
1, 199339, Note_off_c, 0, 56, 65
1, 199381, Note_off_c, 0, 87, 60
1, 199393, Note_off_c, 0, 99, 55
1, 199417, Note_off_c, 0, 92, 56
1, 199462, Note_on_c, 0, 56, 78
1, 199470, Note_on_c, 0, 87, 95
1, 199473, Note_on_c, 0, 51, 71
1, 199479, Note_on_c, 0, 99, 89
1, 199481, Note_on_c, 0, 44, 68
1, 199482, Note_on_c, 0, 92, 65
1, 199485, Note_off_c, 0, 56, 68
1, 199493, Note_off_c, 0, 51, 64
1, 199513, Note_off_c, 0, 44, 62
1, 199524, Note_on_c, 0, 97, 19
1, 199540, Note_off_c, 0, 87, 60
1, 199554, Note_off_c, 0, 92, 50
1, 199569, Note_off_c, 0, 97, 28
1, 199570, Note_off_c, 0, 99, 56
1, 199666, Note_on_c, 0, 44, 91
1, 199667, Note_on_c, 0, 87, 98
1, 199668, Note_on_c, 0, 99, 90
1, 199673, Note_on_c, 0, 92, 89
1, 199677, Note_on_c, 0, 39, 79
1, 199685, Note_off_c, 0, 99, 69
1, 199691, Note_off_c, 0, 44, 67
1, 199703, Note_off_c, 0, 92, 60
1, 199705, Note_on_c, 0, 32, 34
1, 199708, Note_off_c, 0, 39, 65
1, 199716, Note_off_c, 0, 87, 61
1, 199748, Note_off_c, 0, 32, 48
1, 199766, Poly_aftertouch_c, 0, 34, 0
1, 200152, Poly_aftertouch_c, 0, 51, 127
1, 200193, Poly_aftertouch_c, 0, 51, 0
1, 200203, Note_on_c, 0, 63, 94
1, 200206, Note_on_c, 0, 51, 71
1, 200206, Note_on_c, 0, 59, 96
1, 200209, Note_on_c, 0, 44, 77
1, 200209, Note_on_c, 0, 56, 92
1, 200209, Note_on_c, 0, 68, 84
1, 200240, Note_off_c, 0, 59, 62
1, 200248, Note_off_c, 0, 56, 62
1, 200257, Note_off_c, 0, 63, 67
1, 200268, Note_off_c, 0, 44, 59
1, 200272, Note_off_c, 0, 68, 64
1, 200277, Note_off_c, 0, 51, 60
1, 200701, Poly_aftertouch_c, 0, 80, 0
1, 200790, Note_on_c, 0, 59, 81
1, 200791, Note_on_c, 0, 80, 100
1, 200791, Note_on_c, 0, 92, 96
1, 200792, Note_on_c, 0, 83, 103
1, 200794, Note_on_c, 0, 68, 94
1, 200794, Note_on_c, 0, 71, 100
1, 200800, Note_on_c, 0, 63, 87
1, 200804, Note_on_c, 0, 87, 86
1, 200827, Note_off_c, 0, 71, 65
1, 200836, Note_off_c, 0, 92, 65
1, 200837, Note_off_c, 0, 59, 60
1, 200840, Note_off_c, 0, 80, 66
1, 200846, Note_off_c, 0, 68, 65
1, 200848, Note_off_c, 0, 87, 62
1, 200856, Note_off_c, 0, 83, 68
1, 200858, Note_off_c, 0, 63, 60
1, 202361, Control_c, 0, 64, 85
1, 202376, Control_c, 0, 64, 52
1, 202392, Control_c, 0, 64, 0
1, 202392, End_track
0, 0, End_of_file
