0, 0, Header, 0, 1, 384
1, 0, Start_track
1, 0, Title_t, "Scherzo No. 2, Op. 31--Tami Lin "
1, 0, Text_t, "2008 e-Piano Junior Competition recital round"
1, 0, Text_t, "recorded July 2008"
1, 0, Text_t, "http://www.piano-e-competition.com/"
1, 0, Text_t, "File processed for distribution by software from Zenph Studios, Inc., http://www.zenph.com"
1, 0, Instrument_name_t, "Yamaha Disklavier Pro Mark IV concert grand piano, model DCFIIISM4PRO"
1, 0, Sequencer_specific, 39, 67, 113, 0, 1, 0, 1, 0, 83, 99, 104, 101, 114, 122, 111, 32, 78, 111, 46, 32, 50, 32, 32, 32, 84, 97, 109, 105, 32, 76, 105, 110, 32, 32, 32, 32, 32, 32, 32, 32
1, 0, Sequencer_specific, 6, 67, 113, 0, 0, 0, 69
1, 0, System_exclusive, 21, 67, 113, 126, 21, 0, 2, 2, 0, 3, 14, 1, 4, 1, 13, 13, 10, 11, 9, 2, 7, 247
1, 0, Sequencer_specific, 5, 67, 123, 12, 2, 1
1, 0, Tempo, 512820
1, 0, Time_signature, 4, 2, 24, 8
1, 0, System_exclusive, 5, 126, 127, 9, 1, 247
1, 1, System_exclusive, 8, 67, 16, 76, 0, 0, 126, 0, 247
1, 2, System_exclusive, 8, 67, 16, 76, 8, 9, 7, 1, 247
1, 3, Control_c, 0, 0, 0
1, 3, Control_c, 1, 0, 0
1, 3, Control_c, 2, 0, 0
1, 3, Control_c, 3, 0, 0
1, 3, Control_c, 4, 0, 0
1, 3, Control_c, 5, 0, 0
1, 3, Control_c, 6, 0, 0
1, 3, Control_c, 7, 0, 0
1, 3, Control_c, 8, 0, 0
1, 3, Control_c, 9, 0, 127
1, 3, Control_c, 10, 0, 0
1, 3, Control_c, 11, 0, 0
1, 3, Control_c, 12, 0, 0
1, 3, Control_c, 13, 0, 0
1, 3, Control_c, 14, 0, 0
1, 3, Control_c, 15, 0, 0
1, 4, Control_c, 0, 32, 0
1, 4, Control_c, 1, 32, 0
1, 4, Control_c, 2, 32, 0
1, 4, Control_c, 3, 32, 0
1, 4, Control_c, 4, 32, 0
1, 4, Control_c, 5, 32, 0
1, 4, Control_c, 6, 32, 0
1, 4, Control_c, 7, 32, 0
1, 4, Control_c, 8, 32, 0
1, 4, Control_c, 9, 32, 0
1, 4, Control_c, 10, 32, 0
1, 4, Control_c, 11, 32, 0
1, 4, Control_c, 12, 32, 0
1, 4, Control_c, 13, 32, 0
1, 4, Control_c, 14, 32, 0
1, 4, Control_c, 15, 32, 0
1, 5, Program_c, 0, 0
1, 5, Program_c, 1, 0
1, 5, Program_c, 2, 0
1, 5, Program_c, 3, 0
1, 5, Program_c, 4, 0
1, 5, Program_c, 5, 0
1, 5, Program_c, 6, 0
1, 5, Program_c, 7, 0
1, 5, Program_c, 8, 0
1, 5, Program_c, 9, 0
1, 5, Program_c, 10, 0
1, 5, Program_c, 11, 0
1, 5, Program_c, 12, 0
1, 5, Program_c, 13, 0
1, 5, Program_c, 14, 0
1, 5, Program_c, 15, 0
1, 6, Control_c, 0, 7, 100
1, 6, Control_c, 1, 7, 100
1, 6, Control_c, 2, 7, 100
1, 6, Control_c, 3, 7, 100
1, 6, Control_c, 4, 7, 100
1, 6, Control_c, 5, 7, 100
1, 6, Control_c, 6, 7, 100
1, 6, Control_c, 7, 7, 100
1, 6, Control_c, 8, 7, 100
1, 6, Control_c, 9, 7, 100
1, 6, Control_c, 10, 7, 100
1, 6, Control_c, 11, 7, 100
1, 6, Control_c, 12, 7, 100
1, 6, Control_c, 13, 7, 100
1, 6, Control_c, 14, 7, 100
1, 6, Control_c, 15, 7, 100
1, 117, Control_c, 0, 67, 15
1, 229, Control_c, 0, 67, 31
1, 341, Control_c, 0, 67, 46
1, 452, Control_c, 0, 67, 63
1, 564, Control_c, 0, 67, 77
1, 676, Control_c, 0, 67, 94
1, 787, Control_c, 0, 67, 108
1, 899, Control_c, 0, 67, 127
1, 1134, Note_on_c, 0, 46, 46
1, 1150, Note_on_c, 0, 58, 49
1, 1459, Note_off_c, 0, 58, 64
1, 1467, Note_off_c, 0, 46, 56
1, 1496, Note_on_c, 0, 45, 47
1, 1506, Note_on_c, 0, 57, 50
1, 1545, Note_off_c, 0, 57, 61
1, 1559, Note_off_c, 0, 45, 59
1, 1571, Note_on_c, 0, 58, 62
1, 1574, Note_on_c, 0, 46, 59
1, 1609, Note_on_c, 0, 61, 62
1, 1615, Note_off_c, 0, 46, 64
1, 1623, Note_on_c, 0, 49, 44
1, 1624, Note_off_c, 0, 58, 58
1, 1650, Note_off_c, 0, 49, 53
1, 1650, Note_off_c, 0, 61, 64
1, 1651, Note_on_c, 0, 53, 64
1, 1657, Note_on_c, 0, 65, 67
1, 1682, Note_off_c, 0, 53, 66
1, 1685, Note_off_c, 0, 65, 68
1, 1991, Note_on_c, 0, 57, 46
1, 1997, Note_on_c, 0, 45, 39
1, 2028, Note_off_c, 0, 57, 60
1, 2035, Note_on_c, 0, 58, 52
1, 2056, Note_off_c, 0, 45, 59
1, 2064, Note_on_c, 0, 46, 48
1, 2075, Note_on_c, 0, 61, 59
1, 2093, Note_off_c, 0, 58, 56
1, 2098, Note_on_c, 0, 49, 45
1, 2106, Note_off_c, 0, 46, 61
1, 2120, Note_off_c, 0, 61, 61
1, 2126, Note_on_c, 0, 65, 61
1, 2129, Note_off_c, 0, 49, 57
1, 2141, Note_on_c, 0, 53, 59
1, 2162, Note_off_c, 0, 65, 63
1, 2179, Note_off_c, 0, 53, 64
1, 2562, Control_c, 0, 67, 108
1, 2577, Control_c, 0, 67, 73
1, 2592, Control_c, 0, 67, 23
1, 2606, Control_c, 0, 67, 0
1, 3022, Note_on_c, 0, 34, 82
1, 3022, Note_on_c, 0, 58, 107
1, 3025, Note_on_c, 0, 46, 104
1, 3051, Control_c, 0, 64, 83
1, 3064, Note_off_c, 0, 58, 73
1, 3073, Control_c, 0, 64, 127
1, 3076, Note_off_c, 0, 34, 61
1, 3076, Note_off_c, 0, 46, 64
1, 3327, Poly_aftertouch_c, 0, 82, 127
1, 3369, Poly_aftertouch_c, 0, 82, 0
1, 3503, Note_on_c, 0, 58, 81
1, 3504, Note_on_c, 0, 70, 98
1, 3504, Note_on_c, 0, 82, 104
1, 3508, Note_on_c, 0, 66, 91
1, 3510, Note_on_c, 0, 90, 96
1, 3510, Note_on_c, 0, 94, 99
1, 3513, Note_on_c, 0, 63, 81
1, 3520, Note_on_c, 0, 60, 67
1, 3970, Note_off_c, 0, 58, 59
1, 3982, Note_off_c, 0, 94, 61
1, 4002, Note_off_c, 0, 82, 59
1, 4004, Note_off_c, 0, 70, 56
1, 4013, Note_off_c, 0, 60, 41
1, 4017, Note_off_c, 0, 90, 60
1, 4030, Note_off_c, 0, 63, 59
1, 4045, Note_off_c, 0, 66, 55
1, 4435, Note_on_c, 0, 70, 82
1, 4439, Note_on_c, 0, 58, 66
1, 4443, Note_on_c, 0, 66, 73
1, 4444, Note_on_c, 0, 84, 79
1, 4444, Note_on_c, 0, 75, 89
1, 4447, Note_on_c, 0, 87, 87
1, 4448, Note_on_c, 0, 63, 69
1, 4463, Note_on_c, 0, 60, 52
1, 4486, Note_off_c, 0, 70, 61
1, 4510, Note_off_c, 0, 75, 57
1, 4511, Note_off_c, 0, 58, 54
1, 4516, Note_off_c, 0, 60, 55
1, 4540, Note_off_c, 0, 87, 59
1, 4546, Note_off_c, 0, 84, 57
1, 4561, Note_off_c, 0, 66, 52
1, 4582, Note_off_c, 0, 63, 38
1, 4618, Note_on_c, 0, 84, 73
1, 4631, Note_on_c, 0, 77, 73
1, 4646, Note_off_c, 0, 77, 66
1, 4647, Note_on_c, 0, 70, 92
1, 4652, Note_on_c, 0, 63, 59
1, 4654, Note_on_c, 0, 66, 79
1, 4660, Note_off_c, 0, 84, 66
1, 4666, Note_on_c, 0, 58, 54
1, 4685, Note_on_c, 0, 78, 101
1, 4686, Note_on_c, 0, 84, 74
1, 4698, Note_on_c, 0, 90, 88
1, 4739, Note_off_c, 0, 70, 33
1, 4760, Note_off_c, 0, 63, 61
1, 4766, Note_off_c, 0, 90, 63
1, 4772, Note_off_c, 0, 78, 57
1, 4773, Note_off_c, 0, 84, 65
1, 4802, Note_off_c, 0, 66, 63
1, 4854, Control_c, 0, 64, 109
1, 4860, Note_off_c, 0, 58, 0
1, 4860, Note_on_c, 0, 58, 3
1, 4863, Note_on_c, 0, 89, 88
1, 4864, Note_on_c, 0, 77, 97
1, 4866, Note_on_c, 0, 70, 90
1, 4866, Note_on_c, 0, 85, 102
1, 4868, Control_c, 0, 64, 73
1, 4871, Note_on_c, 0, 65, 74
1, 4881, Note_on_c, 0, 61, 69
1, 4883, Control_c, 0, 64, 0
1, 4896, Note_off_c, 0, 70, 67
1, 4898, Control_c, 0, 64, 45
1, 4902, Note_off_c, 0, 89, 66
1, 4913, Control_c, 0, 64, 69
1, 4917, Note_off_c, 0, 65, 66
1, 4921, Note_off_c, 0, 58, 64
1, 4924, Note_off_c, 0, 77, 63
1, 4928, Control_c, 0, 64, 83
1, 4928, Control_c, 0, 67, 9
1, 4930, Note_off_c, 0, 85, 63
1, 4939, Note_off_c, 0, 61, 62
1, 4942, Control_c, 0, 64, 103
1, 4942, Control_c, 0, 67, 33
1, 4957, Control_c, 0, 64, 127
1, 4957, Control_c, 0, 67, 81
1, 4972, Control_c, 0, 67, 127
1, 5002, Control_c, 0, 64, 119
1, 5017, Control_c, 0, 64, 97
1, 5031, Control_c, 0, 64, 77
1, 5046, Control_c, 0, 64, 0
1, 5223, Note_on_c, 0, 57, 54
1, 5233, Note_on_c, 0, 45, 35
1, 5260, Note_off_c, 0, 57, 62
1, 5268, Note_on_c, 0, 58, 55
1, 5273, Note_off_c, 0, 45, 55
1, 5294, Note_on_c, 0, 46, 38
1, 5302, Note_on_c, 0, 61, 54
1, 5318, Note_off_c, 0, 58, 61
1, 5326, Note_on_c, 0, 49, 42
1, 5336, Note_off_c, 0, 46, 54
1, 5352, Note_off_c, 0, 61, 63
1, 5355, Note_off_c, 0, 49, 53
1, 5363, Note_on_c, 0, 65, 63
1, 5365, Note_on_c, 0, 53, 56
1, 5396, Note_off_c, 0, 53, 67
1, 5398, Note_off_c, 0, 65, 65
1, 5681, Note_on_c, 0, 57, 50
1, 5694, Note_on_c, 0, 45, 40
1, 5727, Note_off_c, 0, 57, 59
1, 5729, Note_on_c, 0, 58, 53
1, 5741, Note_off_c, 0, 45, 56
1, 5746, Note_on_c, 0, 46, 44
1, 5773, Note_on_c, 0, 61, 59
1, 5774, Note_on_c, 0, 49, 51
1, 5783, Note_off_c, 0, 46, 53
1, 5789, Note_off_c, 0, 58, 59
1, 5818, Note_off_c, 0, 61, 61
1, 5818, Note_off_c, 0, 49, 60
1, 5827, Note_on_c, 0, 65, 63
1, 5834, Note_on_c, 0, 53, 58
1, 5866, Note_off_c, 0, 65, 62
1, 5872, Note_off_c, 0, 53, 66
1, 5958, Control_c, 0, 67, 97
1, 5973, Control_c, 0, 67, 56
1, 5988, Control_c, 0, 67, 13
1, 6002, Control_c, 0, 67, 0
1, 6708, Note_on_c, 0, 32, 79
1, 6710, Note_on_c, 0, 56, 107
1, 6712, Note_on_c, 0, 44, 101
1, 6721, Control_c, 0, 64, 65
1, 6736, Control_c, 0, 64, 87
1, 6751, Note_off_c, 0, 56, 72
1, 6751, Control_c, 0, 64, 127
1, 6756, Note_off_c, 0, 32, 63
1, 6769, Note_off_c, 0, 44, 64
1, 7067, Note_on_c, 0, 56, 61
1, 7102, Note_on_c, 0, 65, 72
1, 7126, Note_off_c, 0, 56, 59
1, 7168, Note_on_c, 0, 80, 98
1, 7173, Note_on_c, 0, 92, 102
1, 7175, Note_on_c, 0, 89, 91
1, 7181, Note_on_c, 0, 73, 86
1, 7515, Note_off_c, 0, 73, 53
1, 7617, Note_off_c, 0, 92, 58
1, 7622, Note_off_c, 0, 65, 40
1, 7640, Note_off_c, 0, 89, 62
1, 7644, Note_off_c, 0, 80, 57
1, 8057, Control_c, 0, 64, 126
1, 8072, Control_c, 0, 64, 99
1, 8086, Control_c, 0, 64, 80
1, 8096, Note_on_c, 0, 68, 72
1, 8096, Note_on_c, 0, 75, 83
1, 8097, Note_on_c, 0, 87, 81
1, 8099, Note_on_c, 0, 56, 64
1, 8099, Note_on_c, 0, 84, 71
1, 8101, Control_c, 0, 64, 60
1, 8102, Note_on_c, 0, 63, 64
1, 8104, Note_on_c, 0, 66, 64
1, 8116, Control_c, 0, 64, 0
1, 8131, Control_c, 0, 64, 63
1, 8146, Control_c, 0, 64, 71
1, 8155, Note_off_c, 0, 68, 58
1, 8160, Control_c, 0, 64, 80
1, 8175, Control_c, 0, 64, 89
1, 8176, Note_off_c, 0, 56, 57
1, 8179, Note_off_c, 0, 75, 62
1, 8188, Note_off_c, 0, 66, 57
1, 8190, Control_c, 0, 64, 93
1, 8192, Note_off_c, 0, 63, 57
1, 8200, Note_off_c, 0, 84, 56
1, 8202, Note_off_c, 0, 87, 56
1, 8204, Control_c, 0, 64, 94
1, 8219, Control_c, 0, 64, 94
1, 8261, Note_on_c, 0, 84, 75
1, 8269, Note_on_c, 0, 77, 77
1, 8281, Note_on_c, 0, 68, 82
1, 8290, Note_off_c, 0, 77, 68
1, 8293, Note_on_c, 0, 56, 68
1, 8305, Note_on_c, 0, 66, 69
1, 8306, Note_on_c, 0, 63, 68
1, 8334, Note_on_c, 0, 78, 107
1, 8335, Note_off_c, 0, 63, 57
1, 8335, Note_off_c, 0, 68, 43
1, 8343, Note_on_c, 0, 90, 96
1, 8391, Note_on_c, 0, 68, 30
1, 8391, Note_on_c, 0, 63, 28
1, 8401, Note_off_c, 0, 56, 57
1, 8421, Note_off_c, 0, 84, 62
1, 8421, Note_off_c, 0, 63, 49
1, 8425, Note_off_c, 0, 68, 47
1, 8430, Note_off_c, 0, 90, 59
1, 8436, Note_off_c, 0, 78, 61
1, 8465, Note_off_c, 0, 66, 59
1, 8493, Control_c, 0, 64, 93
1, 8508, Control_c, 0, 64, 79
1, 8513, Note_on_c, 0, 89, 87
1, 8517, Note_on_c, 0, 65, 84
1, 8517, Note_on_c, 0, 68, 87
1, 8517, Note_on_c, 0, 77, 96
1, 8520, Note_on_c, 0, 85, 96
1, 8523, Control_c, 0, 64, 40
1, 8526, Note_on_c, 0, 61, 67
1, 8538, Control_c, 0, 64, 0
1, 8567, Note_off_c, 0, 68, 65
1, 8567, Control_c, 0, 64, 63
1, 8570, Note_off_c, 0, 89, 64
1, 8576, Note_off_c, 0, 65, 65
1, 8582, Control_c, 0, 64, 75
1, 8589, Note_off_c, 0, 61, 62
1, 8590, Note_off_c, 0, 77, 62
1, 8594, Note_off_c, 0, 85, 64
1, 8597, Control_c, 0, 64, 95
1, 8612, Control_c, 0, 64, 116
1, 8626, Control_c, 0, 64, 127
1, 8656, Control_c, 0, 64, 122
1, 8671, Control_c, 0, 64, 104
1, 8686, Control_c, 0, 64, 84
1, 8701, Control_c, 0, 64, 42
1, 8716, Control_c, 0, 64, 0
1, 8893, Note_on_c, 0, 77, 89
1, 8897, Note_on_c, 0, 69, 96
1, 8901, Note_on_c, 0, 65, 91
1, 8904, Note_on_c, 0, 53, 69
1, 8904, Note_on_c, 0, 60, 79
1, 8909, Control_c, 0, 64, 69
1, 8924, Control_c, 0, 64, 84
1, 8934, Note_off_c, 0, 65, 68
1, 8939, Control_c, 0, 64, 110
1, 8941, Note_off_c, 0, 69, 68
1, 8943, Note_off_c, 0, 77, 64
1, 8951, Note_off_c, 0, 60, 64
1, 8954, Control_c, 0, 64, 127
1, 8955, Note_off_c, 0, 53, 65
1, 9260, Note_on_c, 0, 65, 89
1, 9264, Note_on_c, 0, 57, 99
1, 9265, Note_on_c, 0, 41, 78
1, 9266, Note_on_c, 0, 53, 98
1, 9269, Note_on_c, 0, 48, 86
1, 9293, Note_off_c, 0, 53, 67
1, 9304, Note_off_c, 0, 57, 66
1, 9307, Note_off_c, 0, 65, 67
1, 9311, Note_off_c, 0, 48, 67
1, 9318, Note_off_c, 0, 41, 66
1, 9658, Control_c, 0, 64, 103
1, 9673, Control_c, 0, 64, 83
1, 9679, Note_on_c, 0, 29, 99
1, 9679, Note_on_c, 0, 41, 108
1, 9688, Control_c, 0, 64, 59
1, 9703, Control_c, 0, 64, 0
1, 10879, Note_on_c, 0, 42, 101
1, 10883, Note_on_c, 0, 30, 90
1, 10892, Note_off_c, 0, 41, 53
1, 10902, Note_off_c, 0, 29, 57
1, 10931, Note_off_c, 0, 30, 66
1, 10932, Note_off_c, 0, 42, 67
1, 11341, Control_c, 0, 67, 9
1, 11356, Control_c, 0, 67, 13
1, 11371, Control_c, 0, 67, 17
1, 11385, Control_c, 0, 67, 23
1, 11400, Control_c, 0, 67, 32
1, 11415, Control_c, 0, 67, 41
1, 11429, Control_c, 0, 67, 51
1, 11444, Control_c, 0, 67, 62
1, 11459, Control_c, 0, 67, 76
1, 11474, Control_c, 0, 67, 93
1, 11489, Control_c, 0, 67, 117
1, 11503, Control_c, 0, 67, 127
1, 12543, Note_on_c, 0, 57, 39
1, 12548, Note_on_c, 0, 45, 37
1, 12572, Note_off_c, 0, 57, 54
1, 12576, Note_on_c, 0, 58, 49
1, 12594, Note_off_c, 0, 45, 48
1, 12608, Note_on_c, 0, 46, 38
1, 12615, Note_on_c, 0, 61, 56
1, 12629, Note_off_c, 0, 58, 60
1, 12642, Note_off_c, 0, 46, 57
1, 12645, Note_on_c, 0, 49, 26
1, 12654, Note_off_c, 0, 61, 62
1, 12666, Note_on_c, 0, 65, 58
1, 12676, Note_on_c, 0, 53, 49
1, 12683, Note_off_c, 0, 49, 40
1, 12703, Note_off_c, 0, 65, 65
1, 12712, Note_off_c, 0, 53, 62
1, 13071, Note_on_c, 0, 57, 43
1, 13081, Note_on_c, 0, 45, 26
1, 13108, Note_off_c, 0, 57, 60
1, 13121, Note_on_c, 0, 58, 45
1, 13122, Note_off_c, 0, 45, 51
1, 13140, Note_on_c, 0, 46, 36
1, 13149, Note_off_c, 0, 58, 57
1, 13154, Note_on_c, 0, 61, 50
1, 13160, Note_on_c, 0, 49, 33
1, 13174, Note_off_c, 0, 46, 54
1, 13187, Note_off_c, 0, 61, 64
1, 13193, Note_off_c, 0, 49, 50
1, 13205, Note_on_c, 0, 65, 50
1, 13205, Note_on_c, 0, 53, 48
1, 13241, Note_off_c, 0, 65, 65
1, 13251, Note_off_c, 0, 53, 64
1, 13601, Control_c, 0, 67, 124
1, 13616, Control_c, 0, 67, 104
1, 13632, Control_c, 0, 67, 69
1, 13647, Control_c, 0, 67, 32
1, 13662, Control_c, 0, 67, 0
1, 14093, Note_on_c, 0, 58, 100
1, 14093, Note_on_c, 0, 34, 84
1, 14095, Note_on_c, 0, 46, 106
1, 14121, Control_c, 0, 64, 75
1, 14132, Note_off_c, 0, 58, 72
1, 14136, Control_c, 0, 64, 96
1, 14138, Note_off_c, 0, 34, 64
1, 14142, Note_off_c, 0, 46, 65
1, 14150, Control_c, 0, 64, 127
1, 14557, Note_on_c, 0, 82, 106
1, 14560, Note_on_c, 0, 70, 103
1, 14561, Note_on_c, 0, 58, 78
1, 14561, Note_on_c, 0, 90, 87
1, 14562, Note_on_c, 0, 94, 96
1, 14564, Note_on_c, 0, 66, 90
1, 14567, Note_on_c, 0, 63, 79
1, 14582, Note_on_c, 0, 60, 66
1, 14894, Note_off_c, 0, 94, 62
1, 14925, Note_off_c, 0, 82, 59
1, 14928, Note_off_c, 0, 58, 58
1, 14934, Note_off_c, 0, 90, 61
1, 14950, Note_off_c, 0, 60, 53
1, 14955, Note_off_c, 0, 70, 57
1, 14974, Note_off_c, 0, 63, 57
1, 14979, Note_off_c, 0, 66, 57
1, 15173, Note_on_c, 0, 75, 90
1, 15181, Note_on_c, 0, 84, 74
1, 15183, Note_on_c, 0, 87, 68
1, 15184, Note_on_c, 0, 70, 86
1, 15189, Note_on_c, 0, 58, 63
1, 15190, Note_on_c, 0, 66, 76
1, 15193, Note_off_c, 0, 75, 67
1, 15196, Note_on_c, 0, 63, 67
1, 15199, Note_off_c, 0, 87, 68
1, 15201, Note_on_c, 0, 60, 62
1, 15202, Note_off_c, 0, 84, 70
1, 15205, Note_off_c, 0, 70, 68
1, 15229, Note_off_c, 0, 63, 56
1, 15232, Note_off_c, 0, 66, 0
1, 15238, Note_on_c, 0, 75, 95
1, 15244, Note_on_c, 0, 70, 90
1, 15247, Note_on_c, 0, 84, 87
1, 15250, Note_on_c, 0, 87, 95
1, 15269, Poly_aftertouch_c, 0, 66, 127
1, 15279, Poly_aftertouch_c, 0, 63, 127
1, 15286, Note_off_c, 0, 70, 64
1, 15288, Note_off_c, 0, 58, 62
1, 15304, Note_off_c, 0, 60, 55
1, 15306, Note_off_c, 0, 75, 64
1, 15310, Poly_aftertouch_c, 0, 63, 0
1, 15318, Poly_aftertouch_c, 0, 66, 0
1, 15331, Note_off_c, 0, 87, 42
1, 15381, Note_off_c, 0, 84, 55
1, 15408, Note_on_c, 0, 70, 102
1, 15408, Note_on_c, 0, 84, 70
1, 15411, Note_on_c, 0, 75, 109
1, 15414, Note_on_c, 0, 66, 83
1, 15416, Note_on_c, 0, 87, 95
1, 15420, Note_on_c, 0, 58, 53
1, 15421, Note_on_c, 0, 63, 71
1, 15423, Note_on_c, 0, 60, 64
1, 15450, Note_off_c, 0, 58, 66
1, 15459, Note_off_c, 0, 70, 62
1, 15480, Note_off_c, 0, 75, 55
1, 15488, Note_off_c, 0, 60, 53
1, 15496, Note_off_c, 0, 66, 63
1, 15516, Note_off_c, 0, 87, 60
1, 15522, Note_off_c, 0, 63, 40
1, 15525, Note_off_c, 0, 84, 61
1, 15589, Note_on_c, 0, 84, 79
1, 15597, Note_on_c, 0, 77, 79
1, 15605, Note_on_c, 0, 70, 79
1, 15611, Note_on_c, 0, 63, 47
1, 15612, Note_off_c, 0, 77, 69
1, 15614, Note_on_c, 0, 66, 63
1, 15632, Note_off_c, 0, 84, 64
1, 15651, Note_off_c, 0, 70, 50
1, 15655, Note_on_c, 0, 84, 70
1, 15656, Note_on_c, 0, 78, 103
1, 15664, Note_on_c, 0, 90, 84
1, 15685, Note_off_c, 0, 66, 0
1, 15720, Note_off_c, 0, 63, 58
1, 15722, Poly_aftertouch_c, 0, 66, 127
1, 15725, Poly_aftertouch_c, 0, 58, 0
1, 15737, Note_off_c, 0, 78, 63
1, 15739, Note_off_c, 0, 90, 63
1, 15742, Note_off_c, 0, 84, 64
1, 15766, Poly_aftertouch_c, 0, 66, 0
1, 15816, Note_on_c, 0, 89, 89
1, 15817, Control_c, 0, 64, 107
1, 15822, Note_on_c, 0, 70, 86
1, 15822, Note_on_c, 0, 77, 100
1, 15823, Note_on_c, 0, 85, 103
1, 15825, Note_on_c, 0, 58, 66
1, 15825, Note_on_c, 0, 65, 82
1, 15832, Control_c, 0, 64, 81
1, 15837, Note_on_c, 0, 61, 73
1, 15847, Control_c, 0, 64, 50
1, 15852, Note_off_c, 0, 70, 64
1, 15861, Note_off_c, 0, 89, 67
1, 15862, Control_c, 0, 64, 44
1, 15869, Note_off_c, 0, 58, 57
1, 15870, Note_off_c, 0, 65, 64
1, 15876, Control_c, 0, 64, 69
1, 15883, Note_off_c, 0, 85, 67
1, 15891, Note_off_c, 0, 77, 64
1, 15891, Control_c, 0, 64, 81
1, 15891, Control_c, 0, 67, 10
1, 15897, Note_off_c, 0, 61, 62
1, 15906, Control_c, 0, 64, 96
1, 15906, Control_c, 0, 67, 29
1, 15921, Control_c, 0, 64, 110
1, 15921, Control_c, 0, 67, 63
1, 15936, Control_c, 0, 64, 115
1, 15936, Control_c, 0, 67, 105
1, 15951, Control_c, 0, 67, 127
1, 15965, Control_c, 0, 64, 110
1, 15980, Control_c, 0, 64, 95
1, 15995, Control_c, 0, 64, 75
1, 16010, Control_c, 0, 64, 0
1, 16175, Note_on_c, 0, 57, 57
1, 16178, Note_on_c, 0, 45, 37
1, 16210, Note_off_c, 0, 57, 60
1, 16213, Note_off_c, 0, 45, 55
1, 16213, Note_on_c, 0, 58, 58
1, 16225, Note_on_c, 0, 46, 33
1, 16246, Note_on_c, 0, 49, 43
1, 16249, Note_on_c, 0, 61, 59
1, 16252, Note_off_c, 0, 58, 66
1, 16263, Note_off_c, 0, 46, 53
1, 16283, Note_off_c, 0, 49, 56
1, 16287, Note_on_c, 0, 53, 60
1, 16296, Note_on_c, 0, 65, 70
1, 16296, Note_off_c, 0, 61, 61
1, 16326, Note_off_c, 0, 53, 64
1, 16334, Note_off_c, 0, 65, 65
1, 16623, Note_on_c, 0, 45, 32
1, 16623, Note_on_c, 0, 57, 55
1, 16661, Note_on_c, 0, 58, 62
1, 16671, Note_on_c, 0, 46, 54
1, 16675, Note_off_c, 0, 45, 51
1, 16678, Note_off_c, 0, 57, 58
1, 16699, Control_c, 0, 67, 106
1, 16702, Note_on_c, 0, 49, 58
1, 16702, Note_on_c, 0, 61, 71
1, 16714, Control_c, 0, 67, 71
1, 16721, Note_off_c, 0, 58, 65
1, 16729, Note_off_c, 0, 46, 61
1, 16729, Control_c, 0, 67, 28
1, 16743, Control_c, 0, 67, 0
1, 16752, Note_off_c, 0, 49, 61
1, 16754, Note_on_c, 0, 53, 73
1, 16760, Note_on_c, 0, 65, 82
1, 16766, Note_off_c, 0, 61, 64
1, 16794, Note_off_c, 0, 53, 68
1, 16807, Note_off_c, 0, 65, 65
1, 17621, Note_on_c, 0, 24, 82
1, 17623, Note_on_c, 0, 48, 105
1, 17625, Note_on_c, 0, 36, 95
1, 17642, Control_c, 0, 64, 69
1, 17656, Control_c, 0, 64, 84
1, 17668, Note_off_c, 0, 24, 64
1, 17671, Control_c, 0, 64, 101
1, 17676, Note_off_c, 0, 48, 69
1, 17682, Note_off_c, 0, 36, 64
1, 17686, Control_c, 0, 64, 107
1, 17701, Control_c, 0, 64, 108
1, 17716, Control_c, 0, 64, 110
1, 17731, Control_c, 0, 64, 110
1, 17745, Control_c, 0, 64, 111
1, 17760, Control_c, 0, 64, 113
1, 17775, Control_c, 0, 64, 119
1, 17790, Control_c, 0, 64, 127
1, 18111, Note_on_c, 0, 96, 97
1, 18112, Note_on_c, 0, 60, 78
1, 18112, Note_on_c, 0, 68, 93
1, 18112, Note_on_c, 0, 72, 102
1, 18112, Note_on_c, 0, 84, 100
1, 18114, Note_on_c, 0, 92, 102
1, 18118, Note_on_c, 0, 65, 80
1, 18503, Note_off_c, 0, 60, 57
1, 18541, Note_off_c, 0, 96, 57
1, 18580, Note_off_c, 0, 84, 57
1, 18583, Note_off_c, 0, 65, 57
1, 18590, Note_off_c, 0, 72, 53
1, 18609, Note_off_c, 0, 92, 62
1, 18611, Note_off_c, 0, 68, 60
1, 18976, Control_c, 0, 64, 112
1, 18991, Control_c, 0, 64, 89
1, 19003, Note_on_c, 0, 91, 85
1, 19003, Note_on_c, 0, 79, 92
1, 19006, Control_c, 0, 64, 68
1, 19006, Note_on_c, 0, 88, 79
1, 19007, Note_on_c, 0, 70, 79
1, 19008, Note_on_c, 0, 72, 80
1, 19010, Note_on_c, 0, 60, 68
1, 19013, Note_on_c, 0, 64, 67
1, 19020, Control_c, 0, 64, 0
1, 19035, Control_c, 0, 64, 44
1, 19050, Control_c, 0, 64, 65
1, 19052, Note_on_c, 0, 90, 37
1, 19065, Control_c, 0, 64, 72
1, 19080, Control_c, 0, 64, 80
1, 19086, Note_off_c, 0, 90, 50
1, 19094, Control_c, 0, 64, 88
1, 19098, Note_off_c, 0, 79, 63
1, 19101, Note_off_c, 0, 72, 59
1, 19103, Note_off_c, 0, 60, 53
1, 19106, Note_off_c, 0, 91, 59
1, 19109, Control_c, 0, 64, 91
1, 19124, Control_c, 0, 64, 92
1, 19134, Note_off_c, 0, 70, 60
1, 19135, Note_off_c, 0, 88, 62
1, 19140, Note_off_c, 0, 64, 57
1, 19183, Note_on_c, 0, 88, 68
1, 19188, Note_on_c, 0, 80, 87
1, 19206, Note_on_c, 0, 72, 88
1, 19207, Note_on_c, 0, 70, 80
1, 19208, Note_off_c, 0, 80, 73
1, 19209, Note_on_c, 0, 60, 75
1, 19209, Note_off_c, 0, 88, 65
1, 19211, Note_on_c, 0, 64, 62
1, 19243, Note_on_c, 0, 82, 100
1, 19253, Note_on_c, 0, 94, 89
1, 19256, Note_on_c, 0, 89, 90
1, 19280, Note_on_c, 0, 90, 37
1, 19284, Note_off_c, 0, 64, 55
1, 19292, Note_off_c, 0, 60, 58
1, 19312, Note_off_c, 0, 90, 33
1, 19321, Note_off_c, 0, 94, 62
1, 19322, Note_off_c, 0, 72, 61
1, 19329, Note_off_c, 0, 82, 60
1, 19344, Note_off_c, 0, 70, 59
1, 19367, Note_off_c, 0, 89, 60
1, 19376, Control_c, 0, 64, 92
1, 19391, Control_c, 0, 64, 85
1, 19406, Control_c, 0, 64, 63
1, 19418, Note_on_c, 0, 80, 104
1, 19419, Note_on_c, 0, 89, 76
1, 19420, Note_on_c, 0, 68, 87
1, 19420, Note_on_c, 0, 72, 93
1, 19421, Note_on_c, 0, 92, 97
1, 19421, Control_c, 0, 64, 0
1, 19423, Note_on_c, 0, 65, 65
1, 19450, Control_c, 0, 64, 57
1, 19457, Note_off_c, 0, 72, 68
1, 19465, Control_c, 0, 64, 73
1, 19468, Note_off_c, 0, 92, 66
1, 19474, Note_off_c, 0, 65, 61
1, 19480, Control_c, 0, 64, 92
1, 19486, Note_off_c, 0, 80, 61
1, 19489, Note_off_c, 0, 89, 65
1, 19492, Note_off_c, 0, 68, 62
1, 19495, Control_c, 0, 64, 127
1, 19561, Control_c, 0, 64, 107
1, 19576, Control_c, 0, 64, 85
1, 19591, Control_c, 0, 64, 63
1, 19606, Control_c, 0, 64, 0
1, 19799, Control_c, 0, 64, 53
1, 19811, Note_on_c, 0, 68, 101
1, 19814, Note_on_c, 0, 80, 89
1, 19814, Control_c, 0, 64, 74
1, 19819, Note_on_c, 0, 53, 73
1, 19820, Note_on_c, 0, 65, 93
1, 19821, Note_on_c, 0, 60, 79
1, 19821, Note_on_c, 0, 77, 86
1, 19822, Note_on_c, 0, 72, 83
1, 19829, Control_c, 0, 64, 91
1, 19844, Control_c, 0, 64, 127
1, 19858, Note_off_c, 0, 65, 67
1, 19860, Note_off_c, 0, 80, 67
1, 19873, Note_off_c, 0, 68, 63
1, 19875, Note_off_c, 0, 77, 63
1, 19876, Note_off_c, 0, 60, 64
1, 19879, Note_off_c, 0, 53, 66
1, 19879, Note_off_c, 0, 72, 64
1, 19921, Poly_aftertouch_c, 0, 61, 0
1, 20175, Note_on_c, 0, 56, 100
1, 20175, Note_on_c, 0, 68, 90
1, 20180, Note_on_c, 0, 41, 78
1, 20180, Note_on_c, 0, 48, 87
1, 20182, Note_on_c, 0, 53, 96
1, 20183, Note_on_c, 0, 65, 82
1, 20191, Note_on_c, 0, 60, 81
1, 20210, Note_off_c, 0, 53, 66
1, 20210, Note_off_c, 0, 68, 69
1, 20227, Note_off_c, 0, 60, 55
1, 20231, Note_off_c, 0, 56, 67
1, 20234, Note_off_c, 0, 48, 66
1, 20235, Note_off_c, 0, 65, 67
1, 20240, Note_off_c, 0, 41, 65
1, 20580, Note_on_c, 0, 28, 98
1, 20581, Note_on_c, 0, 40, 105
1, 20593, Control_c, 0, 64, 99
1, 20608, Control_c, 0, 64, 75
1, 20623, Control_c, 0, 64, 0
1, 21149, Control_c, 0, 64, 13
1, 21164, Control_c, 0, 64, 48
1, 21179, Control_c, 0, 64, 60
1, 21194, Control_c, 0, 64, 65
1, 21208, Control_c, 0, 64, 70
1, 21223, Control_c, 0, 64, 77
1, 21238, Control_c, 0, 64, 84
1, 21253, Control_c, 0, 64, 88
1, 21268, Control_c, 0, 64, 90
1, 21282, Control_c, 0, 64, 92
1, 21297, Note_off_c, 0, 40, 61
1, 21297, Control_c, 0, 64, 95
1, 21312, Control_c, 0, 64, 99
1, 21327, Control_c, 0, 64, 102
1, 21341, Control_c, 0, 64, 105
1, 21356, Control_c, 0, 64, 107
1, 21371, Control_c, 0, 64, 109
1, 21386, Control_c, 0, 64, 111
1, 21400, Control_c, 0, 64, 112
1, 21415, Control_c, 0, 64, 113
1, 21430, Control_c, 0, 64, 114
1, 21445, Control_c, 0, 64, 114
1, 21460, Control_c, 0, 64, 115
1, 21475, Control_c, 0, 64, 115
1, 21489, Control_c, 0, 64, 116
1, 21494, Note_off_c, 0, 28, 54
1, 21546, Note_on_c, 0, 41, 106
1, 21548, Note_on_c, 0, 29, 91
1, 21549, Control_c, 0, 64, 115
1, 21564, Control_c, 0, 64, 101
1, 21578, Control_c, 0, 64, 79
1, 21593, Control_c, 0, 64, 0
1, 21596, Note_off_c, 0, 29, 66
1, 21596, Note_off_c, 0, 41, 69
1, 22728, Note_on_c, 0, 101, 104
1, 22732, Note_on_c, 0, 25, 76
1, 22733, Note_on_c, 0, 37, 104
1, 22750, Control_c, 0, 64, 68
1, 22765, Note_on_c, 0, 24, 52
1, 22765, Control_c, 0, 64, 114
1, 22766, Note_off_c, 0, 25, 65
1, 22780, Note_on_c, 0, 27, 29
1, 22780, Control_c, 0, 64, 127
1, 22784, Note_off_c, 0, 37, 68
1, 22792, Note_on_c, 0, 30, 9
1, 22810, Note_off_c, 0, 24, 48
1, 22823, Note_off_c, 0, 30, 0
1, 22827, Note_off_c, 0, 27, 40
1, 22851, Poly_aftertouch_c, 0, 30, 0
1, 23006, Note_on_c, 0, 56, 76
1, 23036, Note_off_c, 0, 56, 64
1, 23136, Note_on_c, 0, 61, 86
1, 23140, Note_on_c, 0, 53, 77
1, 23158, Note_off_c, 0, 61, 65
1, 23167, Note_off_c, 0, 53, 68
1, 23172, Note_off_c, 0, 101, 57
1, 23212, Note_on_c, 0, 92, 43
1, 23238, Note_off_c, 0, 92, 51
1, 23295, Note_on_c, 0, 99, 78
1, 23347, Note_on_c, 0, 97, 81
1, 23366, Note_on_c, 0, 56, 68
1, 23393, Note_off_c, 0, 99, 67
1, 23396, Note_off_c, 0, 56, 63
1, 23400, Note_on_c, 0, 92, 76
1, 23418, Note_off_c, 0, 97, 66
1, 23442, Note_off_c, 0, 92, 66
1, 23450, Note_on_c, 0, 89, 79
1, 23502, Note_off_c, 0, 89, 65
1, 23510, Note_on_c, 0, 61, 69
1, 23519, Note_on_c, 0, 53, 52
1, 23524, Note_on_c, 0, 87, 80
1, 23576, Note_on_c, 0, 85, 68
1, 23576, Note_off_c, 0, 61, 55
1, 23579, Note_off_c, 0, 53, 54
1, 23602, Note_off_c, 0, 87, 63
1, 23626, Note_on_c, 0, 80, 82
1, 23635, Note_off_c, 0, 85, 67
1, 23668, Note_off_c, 0, 80, 63
1, 23688, Note_on_c, 0, 77, 79
1, 23757, Note_on_c, 0, 75, 76
1, 23757, Note_off_c, 0, 77, 62
1, 23807, Note_on_c, 0, 73, 74
1, 23844, Note_off_c, 0, 75, 64
1, 23880, Note_on_c, 0, 68, 83
1, 23880, Note_off_c, 0, 73, 65
1, 23918, Note_off_c, 0, 68, 61
1, 23959, Control_c, 0, 64, 115
1, 23974, Control_c, 0, 64, 89
1, 23989, Control_c, 0, 64, 66
1, 24005, Control_c, 0, 64, 0
1, 24292, Note_on_c, 0, 32, 40
1, 24303, Note_on_c, 0, 44, 30
1, 24303, Note_on_c, 0, 72, 56
1, 24308, Control_c, 0, 64, 50
1, 24323, Control_c, 0, 64, 60
1, 24338, Control_c, 0, 64, 63
1, 24352, Control_c, 0, 64, 65
1, 24354, Note_off_c, 0, 72, 62
1, 24367, Control_c, 0, 64, 67
1, 24370, Note_on_c, 0, 73, 59
1, 24382, Control_c, 0, 64, 68
1, 24397, Control_c, 0, 64, 66
1, 24412, Control_c, 0, 64, 51
1, 24423, Note_on_c, 0, 75, 67
1, 24425, Note_off_c, 0, 73, 61
1, 24426, Control_c, 0, 64, 0
1, 24437, Note_off_c, 0, 32, 57
1, 24450, Note_off_c, 0, 75, 69
1, 24469, Note_off_c, 0, 44, 60
1, 24471, Control_c, 0, 64, 54
1, 24485, Control_c, 0, 64, 64
1, 24500, Control_c, 0, 64, 68
1, 24501, Note_on_c, 0, 77, 66
1, 24515, Control_c, 0, 64, 72
1, 24530, Control_c, 0, 64, 77
1, 24543, Note_off_c, 0, 77, 60
1, 24545, Control_c, 0, 64, 80
1, 24551, Note_on_c, 0, 78, 75
1, 24601, Note_on_c, 0, 80, 63
1, 24604, Control_c, 0, 64, 79
1, 24619, Control_c, 0, 64, 74
1, 24620, Note_off_c, 0, 78, 60
1, 24634, Control_c, 0, 64, 63
1, 24649, Control_c, 0, 64, 0
1, 24665, Note_on_c, 0, 81, 68
1, 24668, Note_off_c, 0, 80, 63
1, 24680, Note_on_c, 0, 60, 52
1, 24690, Note_on_c, 0, 55, 41
1, 24692, Note_on_c, 0, 66, 51
1, 24726, Note_off_c, 0, 66, 55
1, 24767, Note_off_c, 0, 60, 0
1, 24771, Note_off_c, 0, 55, 37
1, 24798, Note_on_c, 0, 60, 33
1, 24813, Note_off_c, 0, 81, 60
1, 24816, Note_on_c, 0, 66, 46
1, 24818, Note_on_c, 0, 56, 46
1, 24840, Note_off_c, 0, 66, 60
1, 24854, Note_off_c, 0, 60, 61
1, 24856, Note_off_c, 0, 56, 60
1, 24933, Note_on_c, 0, 66, 53
1, 24959, Note_off_c, 0, 66, 60
1, 24965, Note_on_c, 0, 56, 31
1, 24999, Note_off_c, 0, 56, 43
1, 25079, Note_on_c, 0, 81, 66
1, 25147, Note_on_c, 0, 80, 73
1, 25161, Note_off_c, 0, 81, 59
1, 25188, Note_off_c, 0, 80, 64
1, 25198, Note_on_c, 0, 79, 72
1, 25248, Note_off_c, 0, 79, 61
1, 25251, Note_on_c, 0, 78, 83
1, 25305, Note_off_c, 0, 78, 61
1, 25322, Note_on_c, 0, 77, 77
1, 25383, Note_on_c, 0, 76, 68
1, 25384, Note_off_c, 0, 77, 61
1, 25446, Note_on_c, 0, 75, 77
1, 25447, Note_off_c, 0, 76, 64
1, 25463, Note_on_c, 0, 66, 67
1, 25471, Control_c, 0, 64, 60
1, 25472, Note_on_c, 0, 57, 56
1, 25481, Note_on_c, 0, 60, 52
1, 25486, Control_c, 0, 64, 67
1, 25500, Control_c, 0, 64, 72
1, 25502, Note_off_c, 0, 75, 66
1, 25511, Note_off_c, 0, 57, 63
1, 25513, Note_off_c, 0, 66, 60
1, 25515, Control_c, 0, 64, 80
1, 25533, Note_off_c, 0, 60, 59
1, 25537, Control_c, 0, 64, 90
1, 25552, Control_c, 0, 64, 99
1, 25567, Control_c, 0, 64, 106
1, 25582, Control_c, 0, 64, 112
1, 25597, Control_c, 0, 64, 120
1, 25611, Note_on_c, 0, 66, 75
1, 25612, Control_c, 0, 64, 127
1, 25618, Note_on_c, 0, 56, 52
1, 25621, Note_on_c, 0, 60, 61
1, 25648, Note_off_c, 0, 56, 56
1, 25659, Note_off_c, 0, 66, 62
1, 25662, Note_off_c, 0, 60, 54
1, 25740, Note_on_c, 0, 56, 69
1, 25743, Note_on_c, 0, 66, 69
1, 25758, Note_off_c, 0, 66, 71
1, 25785, Note_off_c, 0, 56, 65
1, 25879, Control_c, 0, 64, 100
1, 25894, Control_c, 0, 64, 69
1, 25904, Note_on_c, 0, 101, 101
1, 25907, Note_on_c, 0, 37, 101
1, 25909, Control_c, 0, 64, 0
1, 25916, Note_on_c, 0, 25, 90
1, 25937, Note_off_c, 0, 25, 67
1, 25937, Note_off_c, 0, 37, 60
1, 25938, Control_c, 0, 64, 46
1, 25953, Control_c, 0, 64, 69
1, 25955, Note_on_c, 0, 95, 11
1, 25968, Control_c, 0, 64, 82
1, 25983, Control_c, 0, 64, 97
1, 25997, Control_c, 0, 64, 103
1, 25999, Note_off_c, 0, 95, 29
1, 26012, Control_c, 0, 64, 104
1, 26020, Poly_aftertouch_c, 0, 27, 0
1, 26027, Control_c, 0, 64, 105
1, 26042, Control_c, 0, 64, 105
1, 26116, Control_c, 0, 64, 106
1, 26160, Control_c, 0, 64, 106
1, 26172, Note_on_c, 0, 56, 88
1, 26175, Control_c, 0, 64, 108
1, 26190, Control_c, 0, 64, 110
1, 26205, Control_c, 0, 64, 114
1, 26208, Note_off_c, 0, 56, 63
1, 26211, Note_on_c, 0, 44, 26
1, 26220, Control_c, 0, 64, 117
1, 26235, Control_c, 0, 64, 121
1, 26250, Control_c, 0, 64, 124
1, 26253, Note_off_c, 0, 44, 41
1, 26264, Control_c, 0, 64, 127
1, 26312, Note_on_c, 0, 61, 90
1, 26315, Note_on_c, 0, 53, 83
1, 26315, Note_off_c, 0, 101, 49
1, 26339, Note_off_c, 0, 61, 59
1, 26345, Note_off_c, 0, 53, 64
1, 26464, Note_on_c, 0, 99, 80
1, 26516, Note_on_c, 0, 97, 79
1, 26549, Note_on_c, 0, 56, 67
1, 26554, Note_on_c, 0, 44, 52
1, 26560, Note_on_c, 0, 92, 74
1, 26564, Note_off_c, 0, 99, 68
1, 26578, Note_off_c, 0, 44, 62
1, 26579, Note_off_c, 0, 56, 63
1, 26590, Note_off_c, 0, 97, 66
1, 26618, Note_off_c, 0, 92, 66
1, 26621, Note_on_c, 0, 89, 81
1, 26670, Note_off_c, 0, 89, 65
1, 26691, Note_on_c, 0, 61, 72
1, 26700, Note_on_c, 0, 87, 83
1, 26700, Note_on_c, 0, 53, 58
1, 26736, Note_off_c, 0, 53, 57
1, 26749, Note_off_c, 0, 61, 54
1, 26754, Note_on_c, 0, 85, 70
1, 26777, Note_off_c, 0, 87, 64
1, 26798, Note_on_c, 0, 80, 81
1, 26808, Note_off_c, 0, 85, 66
1, 26840, Note_off_c, 0, 80, 65
1, 26855, Note_on_c, 0, 77, 79
1, 26923, Note_off_c, 0, 77, 61
1, 26926, Note_on_c, 0, 75, 81
1, 26977, Note_on_c, 0, 73, 77
1, 27012, Note_off_c, 0, 75, 64
1, 27057, Note_on_c, 0, 68, 81
1, 27062, Note_off_c, 0, 73, 65
1, 27101, Note_off_c, 0, 68, 63
1, 27168, Control_c, 0, 64, 108
1, 27183, Control_c, 0, 64, 85
1, 27198, Control_c, 0, 64, 61
1, 27213, Control_c, 0, 64, 0
1, 27495, Note_on_c, 0, 51, 34
1, 27498, Note_on_c, 0, 44, 35
1, 27504, Note_on_c, 0, 54, 31
1, 27522, Note_on_c, 0, 72, 55
1, 27583, Control_c, 0, 64, 46
1, 27592, Note_off_c, 0, 72, 64
1, 27598, Note_on_c, 0, 73, 62
1, 27598, Control_c, 0, 64, 65
1, 27613, Control_c, 0, 64, 69
1, 27628, Control_c, 0, 64, 74
1, 27638, Note_off_c, 0, 44, 56
1, 27642, Control_c, 0, 64, 79
1, 27657, Control_c, 0, 64, 80
1, 27662, Note_on_c, 0, 75, 68
1, 27662, Note_off_c, 0, 73, 63
1, 27666, Note_off_c, 0, 51, 56
1, 27669, Note_off_c, 0, 54, 56
1, 27672, Control_c, 0, 64, 80
1, 27687, Control_c, 0, 64, 75
1, 27689, Note_off_c, 0, 75, 69
1, 27701, Control_c, 0, 64, 65
1, 27716, Control_c, 0, 64, 0
1, 27727, Note_on_c, 0, 77, 69
1, 27781, Note_off_c, 0, 77, 62
1, 27788, Note_on_c, 0, 78, 75
1, 27835, Note_on_c, 0, 80, 64
1, 27843, Note_off_c, 0, 78, 62
1, 27886, Note_on_c, 0, 81, 67
1, 27892, Note_off_c, 0, 80, 63
1, 27896, Note_on_c, 0, 60, 49
1, 27961, Control_c, 0, 64, 45
1, 27975, Control_c, 0, 64, 63
1, 27978, Note_off_c, 0, 60, 61
1, 27980, Note_on_c, 0, 61, 60
1, 27990, Control_c, 0, 64, 65
1, 28006, Control_c, 0, 64, 66
1, 28014, Note_on_c, 0, 63, 66
1, 28047, Note_off_c, 0, 61, 63
1, 28051, Control_c, 0, 64, 65
1, 28060, Note_off_c, 0, 63, 64
1, 28065, Note_off_c, 0, 81, 60
1, 28066, Control_c, 0, 64, 65
1, 28080, Control_c, 0, 64, 64
1, 28086, Note_on_c, 0, 65, 67
1, 28095, Control_c, 0, 64, 64
1, 28110, Control_c, 0, 64, 63
1, 28125, Control_c, 0, 64, 62
1, 28133, Note_on_c, 0, 66, 72
1, 28134, Note_off_c, 0, 65, 64
1, 28139, Control_c, 0, 64, 62
1, 28154, Control_c, 0, 64, 61
1, 28169, Control_c, 0, 64, 60
1, 28184, Control_c, 0, 64, 59
1, 28198, Note_off_c, 0, 66, 66
1, 28199, Note_on_c, 0, 68, 72
1, 28199, Control_c, 0, 64, 37
1, 28214, Control_c, 0, 64, 0
1, 28258, Note_off_c, 0, 68, 65
1, 28267, Note_on_c, 0, 81, 67
1, 28268, Note_on_c, 0, 69, 73
1, 28317, Control_c, 0, 64, 53
1, 28332, Control_c, 0, 64, 64
1, 28336, Note_on_c, 0, 80, 78
1, 28339, Note_off_c, 0, 69, 65
1, 28347, Control_c, 0, 64, 66
1, 28352, Note_off_c, 0, 81, 60
1, 28362, Control_c, 0, 64, 67
1, 28377, Control_c, 0, 64, 67
1, 28385, Note_off_c, 0, 80, 63
1, 28391, Control_c, 0, 64, 68
1, 28396, Note_on_c, 0, 79, 76
1, 28406, Control_c, 0, 64, 68
1, 28421, Control_c, 0, 64, 69
1, 28436, Control_c, 0, 64, 70
1, 28452, Note_off_c, 0, 79, 62
1, 28457, Note_on_c, 0, 78, 83
1, 28480, Control_c, 0, 64, 69
1, 28495, Control_c, 0, 64, 67
1, 28503, Note_off_c, 0, 78, 53
1, 28510, Control_c, 0, 64, 65
1, 28525, Note_on_c, 0, 77, 77
1, 28532, Control_c, 0, 64, 63
1, 28547, Control_c, 0, 64, 61
1, 28562, Control_c, 0, 64, 55
1, 28577, Control_c, 0, 64, 0
1, 28590, Note_on_c, 0, 76, 74
1, 28598, Note_off_c, 0, 77, 58
1, 28662, Note_on_c, 0, 57, 53
1, 28667, Note_on_c, 0, 75, 76
1, 28669, Note_off_c, 0, 76, 60
1, 28715, Note_off_c, 0, 57, 59
1, 28738, Note_on_c, 0, 56, 62
1, 28769, Control_c, 0, 64, 60
1, 28784, Control_c, 0, 64, 66
1, 28798, Note_off_c, 0, 56, 61
1, 28800, Control_c, 0, 64, 70
1, 28814, Control_c, 0, 64, 74
1, 28823, Note_on_c, 0, 55, 67
1, 28829, Control_c, 0, 64, 79
1, 28844, Control_c, 0, 64, 82
1, 28859, Control_c, 0, 64, 83
1, 28870, Note_off_c, 0, 75, 58
1, 28874, Control_c, 0, 64, 84
1, 28877, Note_off_c, 0, 55, 59
1, 28889, Control_c, 0, 64, 85
1, 28903, Note_on_c, 0, 54, 74
1, 28903, Control_c, 0, 64, 86
1, 28918, Control_c, 0, 64, 87
1, 28968, Note_off_c, 0, 54, 62
1, 28986, Note_on_c, 0, 53, 69
1, 29037, Control_c, 0, 64, 87
1, 29071, Note_off_c, 0, 53, 61
1, 29078, Note_on_c, 0, 51, 72
1, 29081, Control_c, 0, 64, 88
1, 29111, Control_c, 0, 64, 88
1, 29141, Note_off_c, 0, 51, 60
1, 29304, Note_on_c, 0, 49, 52
1, 29326, Control_c, 0, 64, 87
1, 29341, Control_c, 0, 64, 81
1, 29350, Note_on_c, 0, 77, 79
1, 29354, Note_on_c, 0, 71, 74
1, 29356, Control_c, 0, 64, 68
1, 29371, Control_c, 0, 64, 0
1, 29445, Control_c, 0, 64, 61
1, 29454, Note_off_c, 0, 49, 61
1, 29460, Control_c, 0, 64, 68
1, 29467, Note_on_c, 0, 56, 57
1, 29474, Control_c, 0, 64, 74
1, 29489, Control_c, 0, 64, 81
1, 29504, Control_c, 0, 64, 85
1, 29519, Control_c, 0, 64, 86
1, 29534, Control_c, 0, 64, 86
1, 29548, Control_c, 0, 64, 87
1, 29561, Note_on_c, 0, 61, 64
1, 29563, Control_c, 0, 64, 88
1, 29564, Note_off_c, 0, 56, 58
1, 29578, Control_c, 0, 64, 88
1, 29608, Note_off_c, 0, 61, 62
1, 29634, Note_on_c, 0, 65, 66
1, 29685, Note_off_c, 0, 65, 63
1, 29704, Note_on_c, 0, 61, 60
1, 29737, Note_off_c, 0, 61, 65
1, 29758, Note_on_c, 0, 56, 65
1, 29799, Note_off_c, 0, 56, 61
1, 29819, Note_on_c, 0, 49, 68
1, 29853, Note_off_c, 0, 49, 65
1, 29928, Note_on_c, 0, 59, 63
1, 29977, Note_off_c, 0, 59, 54
1, 29988, Note_on_c, 0, 61, 53
1, 29995, Note_on_c, 0, 75, 81
1, 30034, Note_off_c, 0, 61, 62
1, 30051, Note_off_c, 0, 71, 58
1, 30065, Note_off_c, 0, 77, 38
1, 30068, Note_on_c, 0, 65, 47
1, 30095, Note_off_c, 0, 65, 57
1, 30134, Note_on_c, 0, 61, 50
1, 30165, Note_off_c, 0, 61, 60
1, 30175, Note_on_c, 0, 59, 57
1, 30222, Note_off_c, 0, 75, 65
1, 30226, Note_on_c, 0, 73, 80
1, 30271, Note_off_c, 0, 59, 57
1, 30271, Note_off_c, 0, 73, 63
1, 30283, Control_c, 0, 64, 88
1, 30297, Control_c, 0, 64, 84
1, 30302, Note_on_c, 0, 54, 59
1, 30312, Control_c, 0, 64, 72
1, 30327, Control_c, 0, 64, 0
1, 30330, Note_on_c, 0, 73, 75
1, 30334, Note_on_c, 0, 71, 68
1, 30378, Note_off_c, 0, 54, 60
1, 30386, Control_c, 0, 64, 57
1, 30395, Note_on_c, 0, 59, 58
1, 30402, Control_c, 0, 64, 66
1, 30417, Control_c, 0, 64, 71
1, 30432, Control_c, 0, 64, 78
1, 30447, Control_c, 0, 64, 84
1, 30462, Control_c, 0, 64, 86
1, 30466, Note_off_c, 0, 71, 53
1, 30468, Note_on_c, 0, 61, 65
1, 30472, Note_off_c, 0, 59, 59
1, 30491, Control_c, 0, 64, 87
1, 30516, Note_off_c, 0, 61, 58
1, 30520, Control_c, 0, 64, 87
1, 30548, Note_on_c, 0, 66, 62
1, 30564, Note_off_c, 0, 73, 61
1, 30599, Note_off_c, 0, 66, 61
1, 30610, Note_on_c, 0, 61, 50
1, 30655, Note_on_c, 0, 59, 62
1, 30655, Note_off_c, 0, 61, 56
1, 30700, Note_off_c, 0, 59, 59
1, 30780, Control_c, 0, 64, 87
1, 30794, Control_c, 0, 64, 86
1, 30809, Control_c, 0, 64, 80
1, 30814, Note_on_c, 0, 49, 68
1, 30824, Control_c, 0, 64, 71
1, 30839, Control_c, 0, 64, 51
1, 30853, Control_c, 0, 64, 0
1, 30861, Note_on_c, 0, 78, 89
1, 30864, Note_on_c, 0, 70, 80
1, 30868, Control_c, 0, 64, 54
1, 30883, Control_c, 0, 64, 64
1, 30888, Note_off_c, 0, 49, 59
1, 30898, Control_c, 0, 64, 68
1, 30913, Control_c, 0, 64, 72
1, 30927, Control_c, 0, 64, 78
1, 30942, Control_c, 0, 64, 83
1, 30957, Control_c, 0, 64, 85
1, 30972, Control_c, 0, 64, 86
1, 30987, Control_c, 0, 64, 87
1, 30992, Note_on_c, 0, 58, 59
1, 31001, Control_c, 0, 64, 88
1, 31016, Control_c, 0, 64, 89
1, 31031, Control_c, 0, 64, 90
1, 31046, Note_off_c, 0, 58, 60
1, 31046, Control_c, 0, 64, 91
1, 31061, Control_c, 0, 64, 92
1, 31061, Note_on_c, 0, 61, 38
1, 31076, Control_c, 0, 64, 92
1, 31093, Note_off_c, 0, 61, 33
1, 31099, Note_on_c, 0, 66, 65
1, 31161, Note_off_c, 0, 70, 53
1, 31173, Note_off_c, 0, 66, 61
1, 31181, Note_on_c, 0, 61, 57
1, 31224, Note_off_c, 0, 61, 55
1, 31228, Note_on_c, 0, 58, 53
1, 31283, Note_off_c, 0, 58, 63
1, 31299, Control_c, 0, 64, 92
1, 31311, Note_on_c, 0, 71, 72
1, 31314, Control_c, 0, 64, 87
1, 31316, Note_on_c, 0, 56, 51
1, 31329, Control_c, 0, 64, 77
1, 31343, Control_c, 0, 64, 61
1, 31358, Control_c, 0, 64, 0
1, 31370, Note_off_c, 0, 56, 58
1, 31385, Note_on_c, 0, 59, 57
1, 31388, Control_c, 0, 64, 58
1, 31403, Control_c, 0, 64, 64
1, 31417, Control_c, 0, 64, 68
1, 31432, Control_c, 0, 64, 73
1, 31440, Note_on_c, 0, 61, 61
1, 31445, Note_off_c, 0, 59, 58
1, 31447, Control_c, 0, 64, 78
1, 31461, Control_c, 0, 64, 82
1, 31476, Control_c, 0, 64, 83
1, 31487, Note_off_c, 0, 61, 57
1, 31496, Note_off_c, 0, 78, 47
1, 31528, Note_on_c, 0, 68, 63
1, 31529, Control_c, 0, 64, 84
1, 31558, Control_c, 0, 64, 84
1, 31572, Note_off_c, 0, 68, 60
1, 31599, Note_on_c, 0, 61, 27
1, 31603, Note_on_c, 0, 77, 78
1, 31624, Note_on_c, 0, 59, 59
1, 31631, Note_off_c, 0, 61, 53
1, 31664, Note_off_c, 0, 59, 61
1, 31699, Note_off_c, 0, 77, 60
1, 31752, Note_on_c, 0, 49, 64
1, 31771, Note_on_c, 0, 77, 81
1, 31785, Note_off_c, 0, 49, 64
1, 31845, Note_on_c, 0, 59, 64
1, 31883, Control_c, 0, 64, 85
1, 31895, Note_off_c, 0, 77, 57
1, 31898, Control_c, 0, 64, 85
1, 31911, Note_off_c, 0, 59, 56
1, 31913, Note_on_c, 0, 61, 58
1, 31913, Control_c, 0, 64, 86
1, 31921, Note_on_c, 0, 75, 87
1, 31928, Control_c, 0, 64, 87
1, 31942, Control_c, 0, 64, 90
1, 31949, Note_off_c, 0, 61, 61
1, 31957, Control_c, 0, 64, 92
1, 31958, Note_off_c, 0, 71, 56
1, 31970, Note_on_c, 0, 65, 59
1, 31972, Control_c, 0, 64, 94
1, 31988, Control_c, 0, 64, 97
1, 32003, Control_c, 0, 64, 99
1, 32015, Note_off_c, 0, 65, 59
1, 32018, Control_c, 0, 64, 101
1, 32032, Control_c, 0, 64, 102
1, 32047, Control_c, 0, 64, 103
1, 32056, Note_on_c, 0, 61, 46
1, 32062, Control_c, 0, 64, 103
1, 32063, Note_on_c, 0, 73, 91
1, 32077, Control_c, 0, 64, 104
1, 32083, Note_off_c, 0, 61, 59
1, 32104, Note_on_c, 0, 59, 56
1, 32106, Control_c, 0, 64, 105
1, 32119, Note_off_c, 0, 75, 26
1, 32128, Note_off_c, 0, 73, 60
1, 32180, Control_c, 0, 64, 104
1, 32187, Note_off_c, 0, 59, 61
1, 32235, Note_on_c, 0, 54, 53
1, 32239, Control_c, 0, 64, 104
1, 32254, Control_c, 0, 64, 100
1, 32277, Control_c, 0, 64, 88
1, 32279, Note_on_c, 0, 82, 86
1, 32281, Note_on_c, 0, 73, 76
1, 32284, Note_on_c, 0, 70, 75
1, 32291, Control_c, 0, 64, 71
1, 32306, Control_c, 0, 64, 0
1, 32330, Note_off_c, 0, 54, 59
1, 32344, Note_on_c, 0, 58, 53
1, 32365, Control_c, 0, 64, 55
1, 32380, Control_c, 0, 64, 65
1, 32395, Control_c, 0, 64, 70
1, 32410, Control_c, 0, 64, 76
1, 32413, Note_on_c, 0, 61, 65
1, 32420, Note_off_c, 0, 58, 64
1, 32425, Control_c, 0, 64, 82
1, 32439, Control_c, 0, 64, 84
1, 32454, Control_c, 0, 64, 84
1, 32464, Note_off_c, 0, 61, 58
1, 32464, Note_off_c, 0, 70, 58
1, 32469, Control_c, 0, 64, 85
1, 32479, Note_on_c, 0, 66, 66
1, 32484, Control_c, 0, 64, 86
1, 32491, Note_off_c, 0, 73, 62
1, 32494, Note_off_c, 0, 82, 55
1, 32498, Control_c, 0, 64, 86
1, 32513, Control_c, 0, 64, 87
1, 32530, Note_off_c, 0, 66, 62
1, 32554, Note_on_c, 0, 61, 57
1, 32595, Note_off_c, 0, 61, 59
1, 32602, Note_on_c, 0, 58, 62
1, 32683, Note_off_c, 0, 58, 63
1, 32691, Control_c, 0, 64, 86
1, 32706, Control_c, 0, 64, 80
1, 32709, Note_on_c, 0, 52, 61
1, 32721, Control_c, 0, 64, 68
1, 32723, Note_on_c, 0, 82, 87
1, 32726, Note_on_c, 0, 73, 53
1, 32727, Note_on_c, 0, 68, 79
1, 32736, Control_c, 0, 64, 0
1, 32769, Note_off_c, 0, 52, 65
1, 32780, Control_c, 0, 64, 13
1, 32785, Note_on_c, 0, 58, 64
1, 32796, Control_c, 0, 64, 63
1, 32811, Control_c, 0, 64, 69
1, 32825, Control_c, 0, 64, 75
1, 32834, Poly_aftertouch_c, 0, 80, 127
1, 32840, Control_c, 0, 64, 81
1, 32855, Control_c, 0, 64, 85
1, 32858, Note_on_c, 0, 61, 66
1, 32864, Note_off_c, 0, 82, 62
1, 32866, Note_off_c, 0, 58, 63
1, 32870, Control_c, 0, 64, 88
1, 32878, Poly_aftertouch_c, 0, 80, 0
1, 32885, Control_c, 0, 64, 90
1, 32899, Note_off_c, 0, 68, 51
1, 32900, Control_c, 0, 64, 94
1, 32909, Note_off_c, 0, 61, 63
1, 32914, Control_c, 0, 64, 99
1, 32928, Note_on_c, 0, 68, 51
1, 32929, Control_c, 0, 64, 106
1, 32944, Control_c, 0, 64, 115
1, 32959, Control_c, 0, 64, 123
1, 32965, Note_on_c, 0, 82, 87
1, 32974, Control_c, 0, 64, 127
1, 32990, Note_off_c, 0, 68, 61
1, 33015, Note_off_c, 0, 82, 65
1, 33017, Note_off_c, 0, 73, 63
1, 33046, Note_on_c, 0, 61, 52
1, 33058, Note_on_c, 0, 67, 74
1, 33068, Note_off_c, 0, 61, 61
1, 33094, Note_on_c, 0, 58, 52
1, 33148, Note_on_c, 0, 73, 74
1, 33171, Note_off_c, 0, 67, 39
1, 33209, Note_off_c, 0, 58, 58
1, 33248, Control_c, 0, 64, 110
1, 33258, Note_on_c, 0, 51, 51
1, 33260, Note_on_c, 0, 82, 83
1, 33263, Control_c, 0, 64, 93
1, 33278, Control_c, 0, 64, 72
1, 33292, Note_on_c, 0, 80, 50
1, 33293, Control_c, 0, 64, 0
1, 33315, Note_off_c, 0, 80, 37
1, 33322, Control_c, 0, 64, 21
1, 33337, Note_off_c, 0, 51, 61
1, 33337, Control_c, 0, 64, 63
1, 33341, Note_on_c, 0, 58, 57
1, 33352, Control_c, 0, 64, 68
1, 33367, Control_c, 0, 64, 75
1, 33382, Control_c, 0, 64, 82
1, 33396, Control_c, 0, 64, 87
1, 33411, Control_c, 0, 64, 89
1, 33422, Note_on_c, 0, 61, 56
1, 33426, Control_c, 0, 64, 90
1, 33434, Note_off_c, 0, 73, 61
1, 33436, Note_off_c, 0, 58, 60
1, 33440, Control_c, 0, 64, 90
1, 33455, Control_c, 0, 64, 91
1, 33466, Note_off_c, 0, 61, 58
1, 33470, Control_c, 0, 64, 91
1, 33500, Note_on_c, 0, 67, 55
1, 33553, Note_off_c, 0, 67, 53
1, 33570, Note_on_c, 0, 75, 75
1, 33586, Note_on_c, 0, 58, 51
1, 33647, Note_off_c, 0, 75, 63
1, 33678, Note_off_c, 0, 58, 58
1, 33705, Note_off_c, 0, 82, 17
1, 33708, Control_c, 0, 64, 90
1, 33716, Note_on_c, 0, 55, 54
1, 33723, Control_c, 0, 64, 83
1, 33729, Note_on_c, 0, 75, 69
1, 33738, Control_c, 0, 64, 71
1, 33752, Control_c, 0, 64, 0
1, 33790, Control_c, 0, 64, 51
1, 33805, Control_c, 0, 64, 63
1, 33813, Note_off_c, 0, 55, 63
1, 33819, Control_c, 0, 64, 67
1, 33834, Control_c, 0, 64, 72
1, 33846, Note_on_c, 0, 61, 48
1, 33848, Note_on_c, 0, 77, 73
1, 33849, Control_c, 0, 64, 80
1, 33853, Note_off_c, 0, 75, 62
1, 33863, Control_c, 0, 64, 85
1, 33878, Control_c, 0, 64, 88
1, 33881, Note_off_c, 0, 77, 57
1, 33882, Note_on_c, 0, 79, 60
1, 33893, Control_c, 0, 64, 88
1, 33908, Control_c, 0, 64, 89
1, 33914, Note_off_c, 0, 61, 57
1, 33919, Note_on_c, 0, 63, 58
1, 33923, Control_c, 0, 64, 90
1, 33933, Note_on_c, 0, 77, 78
1, 33937, Control_c, 0, 64, 90
1, 33949, Note_off_c, 0, 79, 55
1, 33952, Control_c, 0, 64, 91
1, 33967, Control_c, 0, 64, 92
1, 33970, Note_off_c, 0, 63, 62
1, 33982, Control_c, 0, 64, 92
1, 33997, Control_c, 0, 64, 93
1, 34002, Note_on_c, 0, 70, 56
1, 34012, Control_c, 0, 64, 93
1, 34027, Control_c, 0, 64, 94
1, 34071, Control_c, 0, 64, 94
1, 34075, Note_off_c, 0, 70, 56
1, 34108, Note_on_c, 0, 63, 41
1, 34134, Note_off_c, 0, 63, 56
1, 34140, Note_on_c, 0, 75, 68
1, 34143, Note_off_c, 0, 77, 58
1, 34152, Note_on_c, 0, 61, 52
1, 34160, Control_c, 0, 64, 94
1, 34170, Note_off_c, 0, 75, 65
1, 34205, Control_c, 0, 64, 93
1, 34219, Control_c, 0, 64, 89
1, 34224, Note_off_c, 0, 61, 59
1, 34231, Note_on_c, 0, 75, 69
1, 34234, Control_c, 0, 64, 76
1, 34242, Note_on_c, 0, 73, 65
1, 34245, Note_on_c, 0, 56, 56
1, 34249, Control_c, 0, 64, 50
1, 34263, Control_c, 0, 64, 0
1, 34308, Control_c, 0, 64, 57
1, 34317, Note_off_c, 0, 56, 63
1, 34323, Control_c, 0, 64, 66
1, 34337, Control_c, 0, 64, 72
1, 34343, Note_on_c, 0, 61, 55
1, 34352, Control_c, 0, 64, 80
1, 34367, Control_c, 0, 64, 86
1, 34383, Control_c, 0, 64, 89
1, 34398, Control_c, 0, 64, 90
1, 34405, Note_off_c, 0, 61, 60
1, 34408, Note_on_c, 0, 63, 61
1, 34413, Control_c, 0, 64, 91
1, 34427, Control_c, 0, 64, 92
1, 34442, Control_c, 0, 64, 94
1, 34457, Control_c, 0, 64, 96
1, 34467, Note_off_c, 0, 63, 63
1, 34468, Note_off_c, 0, 73, 35
1, 34472, Control_c, 0, 64, 97
1, 34486, Control_c, 0, 64, 98
1, 34495, Note_on_c, 0, 68, 52
1, 34501, Control_c, 0, 64, 99
1, 34524, Control_c, 0, 64, 100
1, 34539, Control_c, 0, 64, 100
1, 34548, Note_off_c, 0, 68, 62
1, 34554, Control_c, 0, 64, 101
1, 34566, Note_on_c, 0, 63, 51
1, 34632, Note_off_c, 0, 63, 59
1, 34640, Note_on_c, 0, 61, 61
1, 34711, Note_off_c, 0, 61, 60
1, 34716, Control_c, 0, 64, 100
1, 34731, Control_c, 0, 64, 99
1, 34746, Control_c, 0, 64, 93
1, 34760, Control_c, 0, 64, 81
1, 34768, Note_on_c, 0, 80, 87
1, 34773, Note_on_c, 0, 51, 56
1, 34775, Control_c, 0, 64, 63
1, 34778, Note_on_c, 0, 72, 74
1, 34790, Control_c, 0, 64, 0
1, 34814, Note_off_c, 0, 75, 59
1, 34835, Control_c, 0, 64, 52
1, 34849, Control_c, 0, 64, 65
1, 34862, Note_off_c, 0, 51, 60
1, 34864, Control_c, 0, 64, 70
1, 34873, Note_on_c, 0, 60, 44
1, 34879, Control_c, 0, 64, 76
1, 34894, Control_c, 0, 64, 83
1, 34909, Control_c, 0, 64, 87
1, 34924, Control_c, 0, 64, 88
1, 34939, Control_c, 0, 64, 89
1, 34954, Control_c, 0, 64, 90
1, 34960, Note_on_c, 0, 63, 63
1, 34968, Note_off_c, 0, 60, 61
1, 34968, Control_c, 0, 64, 92
1, 34973, Note_off_c, 0, 72, 62
1, 34983, Control_c, 0, 64, 93
1, 34998, Note_off_c, 0, 63, 64
1, 34998, Control_c, 0, 64, 95
1, 35027, Control_c, 0, 64, 95
1, 35029, Note_on_c, 0, 68, 63
1, 35094, Note_off_c, 0, 68, 60
1, 35103, Note_on_c, 0, 63, 59
1, 35143, Note_off_c, 0, 63, 62
1, 35144, Note_on_c, 0, 60, 58
1, 35191, Control_c, 0, 64, 94
1, 35206, Control_c, 0, 64, 88
1, 35209, Note_on_c, 0, 73, 81
1, 35214, Note_off_c, 0, 60, 61
1, 35221, Control_c, 0, 64, 75
1, 35225, Note_on_c, 0, 58, 61
1, 35236, Control_c, 0, 64, 47
1, 35251, Control_c, 0, 64, 0
1, 35256, Note_off_c, 0, 80, 50
1, 35273, Control_c, 0, 64, 22
1, 35288, Control_c, 0, 64, 63
1, 35303, Control_c, 0, 64, 67
1, 35309, Note_off_c, 0, 58, 64
1, 35316, Note_on_c, 0, 61, 62
1, 35317, Control_c, 0, 64, 72
1, 35332, Control_c, 0, 64, 80
1, 35346, Control_c, 0, 64, 86
1, 35354, Note_off_c, 0, 73, 59
1, 35361, Control_c, 0, 64, 88
1, 35373, Note_on_c, 0, 79, 80
1, 35376, Control_c, 0, 64, 88
1, 35378, Note_off_c, 0, 61, 63
1, 35387, Note_on_c, 0, 63, 62
1, 35425, Note_off_c, 0, 63, 64
1, 35447, Note_on_c, 0, 70, 62
1, 35487, Note_off_c, 0, 79, 55
1, 35490, Note_off_c, 0, 70, 61
1, 35502, Note_on_c, 0, 77, 87
1, 35526, Note_on_c, 0, 61, 61
1, 35569, Note_off_c, 0, 61, 62
1, 35640, Note_on_c, 0, 51, 66
1, 35679, Note_on_c, 0, 79, 84
1, 35680, Note_off_c, 0, 51, 60
1, 35732, Note_off_c, 0, 77, 47
1, 35742, Note_on_c, 0, 61, 70
1, 35776, Control_c, 0, 64, 89
1, 35813, Note_off_c, 0, 79, 56
1, 35818, Note_off_c, 0, 61, 55
1, 35820, Control_c, 0, 64, 89
1, 35824, Note_on_c, 0, 63, 64
1, 35832, Note_on_c, 0, 77, 89
1, 35834, Control_c, 0, 64, 90
1, 35849, Control_c, 0, 64, 91
1, 35863, Note_off_c, 0, 63, 63
1, 35864, Control_c, 0, 64, 92
1, 35879, Control_c, 0, 64, 94
1, 35892, Note_on_c, 0, 67, 65
1, 35894, Control_c, 0, 64, 95
1, 35908, Control_c, 0, 64, 95
1, 35923, Control_c, 0, 64, 96
1, 35950, Note_off_c, 0, 67, 50
1, 35978, Note_on_c, 0, 63, 65
1, 36018, Note_off_c, 0, 77, 59
1, 36047, Note_on_c, 0, 61, 60
1, 36048, Note_off_c, 0, 63, 62
1, 36051, Note_on_c, 0, 75, 76
1, 36080, Control_c, 0, 64, 95
1, 36095, Control_c, 0, 64, 93
1, 36109, Note_off_c, 0, 75, 64
1, 36110, Control_c, 0, 64, 82
1, 36125, Note_on_c, 0, 72, 86
1, 36125, Control_c, 0, 64, 64
1, 36126, Note_on_c, 0, 84, 90
1, 36131, Note_off_c, 0, 61, 61
1, 36140, Control_c, 0, 64, 0
1, 36152, Note_on_c, 0, 56, 60
1, 36200, Control_c, 0, 64, 39
1, 36214, Control_c, 0, 64, 64
1, 36221, Note_off_c, 0, 56, 63
1, 36229, Control_c, 0, 64, 70
1, 36232, Note_on_c, 0, 60, 57
1, 36244, Control_c, 0, 64, 79
1, 36258, Control_c, 0, 64, 86
1, 36273, Control_c, 0, 64, 88
1, 36288, Control_c, 0, 64, 90
1, 36291, Note_on_c, 0, 63, 63
1, 36295, Note_off_c, 0, 60, 62
1, 36303, Control_c, 0, 64, 91
1, 36318, Control_c, 0, 64, 93
1, 36328, Note_off_c, 0, 63, 62
1, 36332, Control_c, 0, 64, 95
1, 36347, Control_c, 0, 64, 96
1, 36352, Note_off_c, 0, 84, 60
1, 36355, Note_on_c, 0, 68, 65
1, 36362, Control_c, 0, 64, 97
1, 36377, Control_c, 0, 64, 97
1, 36392, Control_c, 0, 64, 98
1, 36410, Note_off_c, 0, 68, 63
1, 36428, Note_on_c, 0, 63, 69
1, 36484, Note_on_c, 0, 60, 56
1, 36485, Note_off_c, 0, 63, 61
1, 36540, Control_c, 0, 64, 97
1, 36540, Note_off_c, 0, 60, 61
1, 36555, Control_c, 0, 64, 91
1, 36558, Note_on_c, 0, 55, 58
1, 36562, Note_on_c, 0, 84, 93
1, 36569, Control_c, 0, 64, 78
1, 36584, Control_c, 0, 64, 54
1, 36599, Control_c, 0, 64, 0
1, 36644, Control_c, 0, 64, 51
1, 36645, Note_on_c, 0, 56, 69
1, 36648, Note_off_c, 0, 55, 65
1, 36658, Control_c, 0, 64, 64
1, 36673, Control_c, 0, 64, 70
1, 36688, Control_c, 0, 64, 77
1, 36703, Control_c, 0, 64, 85
1, 36709, Note_off_c, 0, 56, 64
1, 36714, Note_on_c, 0, 60, 64
1, 36718, Control_c, 0, 64, 88
1, 36726, Note_off_c, 0, 84, 61
1, 36732, Control_c, 0, 64, 89
1, 36747, Control_c, 0, 64, 90
1, 36766, Note_off_c, 0, 60, 56
1, 36769, Control_c, 0, 64, 92
1, 36777, Note_on_c, 0, 63, 77
1, 36785, Control_c, 0, 64, 94
1, 36800, Control_c, 0, 64, 95
1, 36815, Control_c, 0, 64, 97
1, 36830, Control_c, 0, 64, 98
1, 36844, Note_off_c, 0, 63, 63
1, 36844, Control_c, 0, 64, 98
1, 36853, Note_on_c, 0, 60, 66
1, 36857, Note_on_c, 0, 84, 93
1, 36859, Control_c, 0, 64, 99
1, 36874, Control_c, 0, 64, 100
1, 36888, Control_c, 0, 64, 100
1, 36903, Control_c, 0, 64, 101
1, 36934, Note_off_c, 0, 60, 60
1, 36939, Note_on_c, 0, 56, 68
1, 36960, Note_off_c, 0, 84, 60
1, 37065, Note_off_c, 0, 56, 61
1, 37079, Note_on_c, 0, 54, 58
1, 37081, Control_c, 0, 64, 100
1, 37096, Control_c, 0, 64, 98
1, 37111, Control_c, 0, 64, 86
1, 37126, Control_c, 0, 64, 69
1, 37141, Control_c, 0, 64, 0
1, 37154, Note_on_c, 0, 84, 88
1, 37192, Note_on_c, 0, 56, 57
1, 37199, Control_c, 0, 64, 41
1, 37203, Note_off_c, 0, 54, 53
1, 37214, Control_c, 0, 64, 64
1, 37229, Control_c, 0, 64, 70
1, 37244, Control_c, 0, 64, 76
1, 37247, Note_off_c, 0, 56, 60
1, 37259, Note_on_c, 0, 60, 60
1, 37259, Control_c, 0, 64, 83
1, 37274, Control_c, 0, 64, 86
1, 37288, Control_c, 0, 64, 87
1, 37303, Control_c, 0, 64, 88
1, 37315, Note_off_c, 0, 60, 58
1, 37318, Control_c, 0, 64, 89
1, 37333, Control_c, 0, 64, 90
1, 37334, Note_on_c, 0, 63, 60
1, 37348, Control_c, 0, 64, 91
1, 37362, Control_c, 0, 64, 92
1, 37377, Control_c, 0, 64, 92
1, 37387, Note_off_c, 0, 63, 59
1, 37392, Control_c, 0, 64, 93
1, 37407, Note_on_c, 0, 60, 46
1, 37422, Control_c, 0, 64, 93
1, 37442, Note_off_c, 0, 60, 63
1, 37467, Note_on_c, 0, 56, 56
1, 37506, Note_off_c, 0, 56, 62
1, 37534, Note_on_c, 0, 54, 54
1, 37608, Control_c, 0, 64, 94
1, 37612, Note_on_c, 0, 56, 56
1, 37620, Note_off_c, 0, 54, 54
1, 37623, Control_c, 0, 64, 95
1, 37637, Control_c, 0, 64, 96
1, 37652, Control_c, 0, 64, 97
1, 37660, Note_off_c, 0, 56, 61
1, 37667, Control_c, 0, 64, 98
1, 37671, Note_on_c, 0, 60, 60
1, 37682, Control_c, 0, 64, 98
1, 37687, Note_off_c, 0, 72, 55
1, 37697, Control_c, 0, 64, 99
1, 37709, Note_on_c, 0, 82, 86
1, 37711, Control_c, 0, 64, 100
1, 37723, Note_off_c, 0, 60, 59
1, 37726, Control_c, 0, 64, 101
1, 37741, Control_c, 0, 64, 103
1, 37747, Note_on_c, 0, 63, 49
1, 37756, Control_c, 0, 64, 104
1, 37771, Control_c, 0, 64, 105
1, 37785, Note_off_c, 0, 84, 43
1, 37790, Note_off_c, 0, 63, 60
1, 37801, Control_c, 0, 64, 105
1, 37815, Control_c, 0, 64, 106
1, 37818, Note_on_c, 0, 60, 42
1, 37856, Note_off_c, 0, 60, 63
1, 37888, Note_on_c, 0, 56, 48
1, 37938, Note_on_c, 0, 80, 74
1, 37946, Note_off_c, 0, 82, 63
1, 37949, Control_c, 0, 64, 105
1, 37964, Control_c, 0, 64, 104
1, 37964, Note_off_c, 0, 80, 66
1, 37976, Note_off_c, 0, 56, 60
1, 37978, Control_c, 0, 64, 98
1, 37993, Control_c, 0, 64, 83
1, 38003, Note_on_c, 0, 53, 56
1, 38008, Control_c, 0, 64, 63
1, 38019, Note_on_c, 0, 80, 80
1, 38023, Control_c, 0, 64, 0
1, 38067, Control_c, 0, 64, 42
1, 38074, Note_off_c, 0, 53, 63
1, 38082, Control_c, 0, 64, 63
1, 38095, Note_on_c, 0, 56, 55
1, 38097, Control_c, 0, 64, 69
1, 38111, Control_c, 0, 64, 75
1, 38126, Control_c, 0, 64, 82
1, 38131, Note_on_c, 0, 61, 66
1, 38132, Note_off_c, 0, 56, 60
1, 38141, Control_c, 0, 64, 86
1, 38156, Control_c, 0, 64, 87
1, 38171, Control_c, 0, 64, 88
1, 38185, Control_c, 0, 64, 89
1, 38186, Note_off_c, 0, 61, 61
1, 38187, Note_off_c, 0, 80, 62
1, 38200, Control_c, 0, 64, 92
1, 38203, Note_on_c, 0, 65, 66
1, 38215, Control_c, 0, 64, 94
1, 38230, Control_c, 0, 64, 96
1, 38245, Control_c, 0, 64, 98
1, 38261, Note_off_c, 0, 65, 60
1, 38267, Control_c, 0, 64, 101
1, 38271, Note_on_c, 0, 61, 57
1, 38282, Control_c, 0, 64, 103
1, 38297, Control_c, 0, 64, 106
1, 38311, Control_c, 0, 64, 108
1, 38320, Note_off_c, 0, 61, 60
1, 38325, Note_on_c, 0, 56, 62
1, 38326, Control_c, 0, 64, 110
1, 38341, Control_c, 0, 64, 112
1, 38355, Control_c, 0, 64, 115
1, 38370, Control_c, 0, 64, 117
1, 38387, Control_c, 0, 64, 121
1, 38398, Note_off_c, 0, 56, 63
1, 38402, Control_c, 0, 64, 127
1, 38427, Note_on_c, 0, 53, 53
1, 38441, Note_on_c, 0, 85, 89
1, 38487, Note_off_c, 0, 53, 65
1, 38498, Note_on_c, 0, 56, 59
1, 38547, Note_off_c, 0, 56, 63
1, 38557, Note_on_c, 0, 61, 63
1, 38593, Note_off_c, 0, 61, 64
1, 38607, Note_off_c, 0, 85, 61
1, 38633, Note_on_c, 0, 68, 67
1, 38695, Note_on_c, 0, 61, 62
1, 38698, Note_off_c, 0, 68, 63
1, 38763, Note_on_c, 0, 56, 67
1, 38771, Note_off_c, 0, 61, 60
1, 38864, Note_off_c, 0, 56, 61
1, 38887, Note_on_c, 0, 51, 58
1, 38903, Note_on_c, 0, 85, 89
1, 38920, Control_c, 0, 64, 99
1, 38934, Control_c, 0, 64, 80
1, 38949, Control_c, 0, 64, 56
1, 38964, Control_c, 0, 64, 0
1, 38977, Note_off_c, 0, 51, 57
1, 38985, Note_on_c, 0, 56, 51
1, 38994, Control_c, 0, 64, 34
1, 39016, Control_c, 0, 64, 63
1, 39031, Control_c, 0, 64, 70
1, 39046, Control_c, 0, 64, 78
1, 39053, Note_on_c, 0, 60, 56
1, 39054, Note_off_c, 0, 56, 62
1, 39060, Control_c, 0, 64, 88
1, 39075, Control_c, 0, 64, 94
1, 39088, Control_c, 0, 64, 97
1, 39103, Control_c, 0, 64, 97
1, 39118, Control_c, 0, 64, 98
1, 39133, Control_c, 0, 64, 98
1, 39150, Note_on_c, 0, 66, 55
1, 39166, Note_off_c, 0, 85, 58
1, 39190, Note_off_c, 0, 60, 0
1, 39192, Note_off_c, 0, 66, 64
1, 39208, Note_on_c, 0, 60, 23
1, 39209, Note_on_c, 0, 84, 79
1, 39267, Note_off_c, 0, 60, 57
1, 39280, Note_on_c, 0, 56, 56
1, 39307, Note_off_c, 0, 84, 60
1, 39363, Note_off_c, 0, 56, 60
1, 39371, Control_c, 0, 64, 98
1, 39386, Note_on_c, 0, 84, 67
1, 39386, Control_c, 0, 64, 95
1, 39387, Note_on_c, 0, 51, 57
1, 39401, Control_c, 0, 64, 84
1, 39416, Control_c, 0, 64, 68
1, 39430, Control_c, 0, 64, 0
1, 39458, Note_off_c, 0, 51, 61
1, 39460, Control_c, 0, 64, 52
1, 39474, Control_c, 0, 64, 65
1, 39487, Note_on_c, 0, 56, 44
1, 39489, Control_c, 0, 64, 72
1, 39504, Control_c, 0, 64, 81
1, 39519, Control_c, 0, 64, 89
1, 39524, Note_off_c, 0, 84, 63
1, 39529, Note_off_c, 0, 56, 62
1, 39534, Control_c, 0, 64, 92
1, 39541, Note_on_c, 0, 82, 74
1, 39543, Note_on_c, 0, 60, 56
1, 39548, Control_c, 0, 64, 93
1, 39563, Control_c, 0, 64, 94
1, 39578, Control_c, 0, 64, 95
1, 39593, Control_c, 0, 64, 95
1, 39619, Note_off_c, 0, 60, 52
1, 39622, Control_c, 0, 64, 96
1, 39631, Note_on_c, 0, 66, 55
1, 39670, Note_off_c, 0, 66, 66
1, 39699, Note_on_c, 0, 60, 33
1, 39743, Note_off_c, 0, 60, 59
1, 39774, Note_on_c, 0, 56, 51
1, 39777, Note_on_c, 0, 80, 66
1, 39792, Note_off_c, 0, 82, 61
1, 39838, Control_c, 0, 64, 95
1, 39843, Note_off_c, 0, 56, 59
1, 39853, Control_c, 0, 64, 89
1, 39868, Control_c, 0, 64, 76
1, 39871, Note_on_c, 0, 89, 71
1, 39875, Note_on_c, 0, 50, 48
1, 39882, Control_c, 0, 64, 0
1, 39887, Note_off_c, 0, 80, 58
1, 39942, Control_c, 0, 64, 51
1, 39950, Note_off_c, 0, 50, 63
1, 39956, Control_c, 0, 64, 64
1, 39972, Control_c, 0, 64, 71
1, 39974, Note_on_c, 0, 56, 51
1, 39987, Control_c, 0, 64, 78
1, 40002, Control_c, 0, 64, 85
1, 40015, Note_off_c, 0, 56, 61
1, 40017, Control_c, 0, 64, 88
1, 40032, Control_c, 0, 64, 88
1, 40033, Note_on_c, 0, 59, 44
1, 40047, Control_c, 0, 64, 89
1, 40061, Control_c, 0, 64, 89
1, 40063, Note_off_c, 0, 89, 61
1, 40067, Note_off_c, 0, 59, 57
1, 40076, Control_c, 0, 64, 90
1, 40091, Control_c, 0, 64, 91
1, 40100, Note_on_c, 0, 65, 55
1, 40145, Note_off_c, 0, 65, 56
1, 40168, Note_on_c, 0, 59, 54
1, 40215, Note_off_c, 0, 59, 57
1, 40234, Note_on_c, 0, 56, 55
1, 40269, Control_c, 0, 64, 90
1, 40284, Control_c, 0, 64, 86
1, 40298, Control_c, 0, 64, 75
1, 40303, Note_off_c, 0, 56, 62
1, 40305, Note_on_c, 0, 89, 80
1, 40313, Control_c, 0, 64, 46
1, 40328, Control_c, 0, 64, 0
1, 40330, Note_on_c, 0, 50, 48
1, 40372, Control_c, 0, 64, 56
1, 40387, Control_c, 0, 64, 66
1, 40392, Note_off_c, 0, 50, 63
1, 40402, Control_c, 0, 64, 72
1, 40407, Note_on_c, 0, 56, 50
1, 40417, Control_c, 0, 64, 81
1, 40431, Control_c, 0, 64, 88
1, 40446, Control_c, 0, 64, 91
1, 40461, Control_c, 0, 64, 92
1, 40473, Note_off_c, 0, 56, 59
1, 40475, Note_off_c, 0, 89, 60
1, 40476, Control_c, 0, 64, 92
1, 40477, Note_on_c, 0, 58, 50
1, 40491, Control_c, 0, 64, 93
1, 40516, Note_off_c, 0, 58, 61
1, 40543, Control_c, 0, 67, 11
1, 40555, Note_on_c, 0, 65, 59
1, 40558, Control_c, 0, 67, 23
1, 40573, Control_c, 0, 67, 42
1, 40587, Control_c, 0, 67, 69
1, 40602, Control_c, 0, 67, 101
1, 40617, Note_on_c, 0, 89, 80
1, 40617, Control_c, 0, 67, 127
1, 40620, Note_off_c, 0, 65, 56
1, 40636, Note_on_c, 0, 58, 43
1, 40676, Control_c, 0, 64, 92
1, 40701, Note_off_c, 0, 58, 57
1, 40705, Control_c, 0, 64, 92
1, 40722, Note_on_c, 0, 56, 49
1, 40735, Control_c, 0, 64, 91
1, 40750, Control_c, 0, 64, 91
1, 40759, Note_off_c, 0, 89, 59
1, 40765, Control_c, 0, 64, 90
1, 40781, Control_c, 0, 64, 90
1, 40825, Control_c, 0, 64, 89
1, 40833, Note_off_c, 0, 56, 50
1, 40854, Control_c, 0, 64, 89
1, 40869, Control_c, 0, 64, 87
1, 40877, Note_on_c, 0, 51, 50
1, 40884, Control_c, 0, 64, 81
1, 40899, Control_c, 0, 64, 68
1, 40911, Note_on_c, 0, 89, 77
1, 40914, Control_c, 0, 64, 0
1, 40958, Note_off_c, 0, 51, 61
1, 40973, Control_c, 0, 64, 39
1, 40975, Note_on_c, 0, 54, 48
1, 40988, Control_c, 0, 64, 63
1, 41002, Control_c, 0, 64, 69
1, 41017, Control_c, 0, 64, 77
1, 41032, Note_off_c, 0, 54, 60
1, 41032, Control_c, 0, 64, 84
1, 41033, Note_on_c, 0, 58, 58
1, 41047, Control_c, 0, 64, 87
1, 41062, Control_c, 0, 64, 89
1, 41077, Control_c, 0, 64, 90
1, 41082, Note_off_c, 0, 58, 62
1, 41091, Control_c, 0, 64, 90
1, 41106, Control_c, 0, 64, 91
1, 41106, Control_c, 0, 67, 120
1, 41112, Note_on_c, 0, 63, 55
1, 41121, Control_c, 0, 64, 92
1, 41121, Control_c, 0, 67, 97
1, 41136, Control_c, 0, 64, 93
1, 41136, Control_c, 0, 67, 65
1, 41151, Control_c, 0, 67, 20
1, 41166, Control_c, 0, 64, 93
1, 41166, Control_c, 0, 67, 0
1, 41188, Note_off_c, 0, 63, 63
1, 41210, Note_on_c, 0, 58, 33
1, 41234, Note_on_c, 0, 54, 62
1, 41239, Note_off_c, 0, 58, 52
1, 41269, Note_off_c, 0, 54, 65
1, 41352, Note_on_c, 0, 42, 63
1, 41363, Note_on_c, 0, 87, 71
1, 41384, Note_off_c, 0, 42, 64
1, 41413, Note_off_c, 0, 89, 55
1, 41418, Note_on_c, 0, 54, 56
1, 41454, Note_off_c, 0, 54, 61
1, 41469, Control_c, 0, 64, 95
1, 41484, Control_c, 0, 64, 97
1, 41499, Control_c, 0, 64, 101
1, 41514, Control_c, 0, 64, 105
1, 41518, Note_on_c, 0, 58, 53
1, 41524, Note_on_c, 0, 85, 76
1, 41528, Control_c, 0, 64, 110
1, 41543, Control_c, 0, 64, 114
1, 41545, Note_off_c, 0, 87, 54
1, 41555, Note_off_c, 0, 58, 65
1, 41558, Control_c, 0, 64, 119
1, 41574, Control_c, 0, 64, 124
1, 41589, Control_c, 0, 64, 127
1, 41602, Note_on_c, 0, 63, 59
1, 41644, Note_off_c, 0, 63, 60
1, 41667, Note_on_c, 0, 58, 44
1, 41668, Note_on_c, 0, 82, 81
1, 41669, Note_off_c, 0, 85, 63
1, 41688, Note_off_c, 0, 58, 62
1, 41709, Note_on_c, 0, 54, 62
1, 41777, Note_off_c, 0, 54, 58
1, 41810, Control_c, 0, 64, 127
1, 41825, Control_c, 0, 64, 123
1, 41839, Note_on_c, 0, 44, 58
1, 41840, Control_c, 0, 64, 116
1, 41855, Control_c, 0, 64, 101
1, 41869, Control_c, 0, 64, 81
1, 41874, Note_on_c, 0, 84, 80
1, 41884, Control_c, 0, 64, 16
1, 41885, Note_off_c, 0, 82, 59
1, 41899, Control_c, 0, 64, 0
1, 41908, Note_off_c, 0, 44, 60
1, 41929, Control_c, 0, 64, 52
1, 41944, Control_c, 0, 64, 64
1, 41947, Note_on_c, 0, 53, 44
1, 41956, Note_on_c, 0, 52, 33
1, 41959, Control_c, 0, 64, 69
1, 41974, Control_c, 0, 64, 78
1, 41989, Control_c, 0, 64, 85
1, 41998, Note_off_c, 0, 52, 41
1, 42010, Control_c, 0, 64, 89
1, 42016, Note_on_c, 0, 56, 55
1, 42025, Control_c, 0, 64, 89
1, 42039, Note_off_c, 0, 53, 60
1, 42040, Control_c, 0, 64, 90
1, 42046, Note_off_c, 0, 56, 52
1, 42070, Control_c, 0, 64, 90
1, 42081, Note_on_c, 0, 61, 60
1, 42128, Note_off_c, 0, 61, 57
1, 42145, Note_on_c, 0, 56, 58
1, 42210, Note_off_c, 0, 56, 61
1, 42211, Note_on_c, 0, 53, 58
1, 42267, Note_off_c, 0, 53, 63
1, 42291, Control_c, 0, 64, 88
1, 42297, Note_on_c, 0, 44, 64
1, 42299, Note_on_c, 0, 82, 79
1, 42306, Control_c, 0, 64, 80
1, 42321, Control_c, 0, 64, 65
1, 42329, Note_off_c, 0, 84, 61
1, 42336, Control_c, 0, 64, 0
1, 42346, Note_off_c, 0, 44, 60
1, 42359, Note_on_c, 0, 53, 55
1, 42365, Control_c, 0, 64, 52
1, 42381, Control_c, 0, 64, 65
1, 42396, Control_c, 0, 64, 70
1, 42411, Control_c, 0, 64, 78
1, 42425, Control_c, 0, 64, 86
1, 42439, Note_on_c, 0, 56, 65
1, 42440, Control_c, 0, 64, 90
1, 42453, Note_off_c, 0, 53, 63
1, 42455, Note_on_c, 0, 80, 84
1, 42455, Control_c, 0, 64, 91
1, 42485, Note_off_c, 0, 82, 63
1, 42490, Note_off_c, 0, 56, 57
1, 42507, Note_on_c, 0, 61, 58
1, 42554, Note_off_c, 0, 61, 59
1, 42595, Note_on_c, 0, 77, 77
1, 42597, Note_on_c, 0, 53, 61
1, 42642, Note_off_c, 0, 53, 61
1, 42644, Note_off_c, 0, 80, 54
1, 42692, Control_c, 0, 64, 86
1, 42707, Control_c, 0, 64, 75
1, 42722, Control_c, 0, 64, 49
1, 42734, Note_on_c, 0, 44, 48
1, 42737, Control_c, 0, 64, 0
1, 42759, Control_c, 0, 64, 47
1, 42771, Note_on_c, 0, 82, 71
1, 42773, Control_c, 0, 64, 63
1, 42780, Note_off_c, 0, 44, 63
1, 42788, Control_c, 0, 64, 68
1, 42803, Control_c, 0, 64, 74
1, 42818, Control_c, 0, 64, 82
1, 42825, Note_off_c, 0, 77, 37
1, 42827, Note_on_c, 0, 54, 60
1, 42833, Control_c, 0, 64, 89
1, 42848, Control_c, 0, 64, 92
1, 42891, Note_off_c, 0, 54, 55
1, 42904, Note_on_c, 0, 56, 47
1, 42907, Control_c, 0, 64, 92
1, 42923, Note_on_c, 0, 80, 72
1, 42944, Note_off_c, 0, 56, 60
1, 42966, Note_on_c, 0, 60, 49
1, 42981, Note_off_c, 0, 82, 55
1, 42999, Note_off_c, 0, 80, 57
1, 43001, Note_off_c, 0, 60, 60
1, 43027, Note_on_c, 0, 54, 56
1, 43042, Note_on_c, 0, 78, 73
1, 43061, Note_off_c, 0, 54, 63
1, 43068, Note_off_c, 0, 78, 64
1, 43115, Control_c, 0, 64, 92
1, 43130, Control_c, 0, 64, 86
1, 43131, Note_on_c, 0, 78, 77
1, 43145, Control_c, 0, 64, 75
1, 43145, Note_on_c, 0, 44, 63
1, 43160, Control_c, 0, 64, 62
1, 43175, Note_off_c, 0, 44, 55
1, 43175, Control_c, 0, 64, 54
1, 43181, Note_off_c, 0, 78, 65
1, 43182, Note_on_c, 0, 80, 77
1, 43190, Control_c, 0, 64, 64
1, 43202, Note_off_c, 0, 80, 72
1, 43205, Control_c, 0, 64, 68
1, 43220, Control_c, 0, 64, 74
1, 43228, Note_on_c, 0, 78, 76
1, 43235, Control_c, 0, 64, 81
1, 43249, Control_c, 0, 64, 86
1, 43259, Note_on_c, 0, 54, 51
1, 43264, Control_c, 0, 64, 88
1, 43279, Control_c, 0, 64, 89
1, 43298, Note_off_c, 0, 54, 61
1, 43315, Note_on_c, 0, 56, 57
1, 43354, Note_on_c, 0, 77, 80
1, 43354, Note_off_c, 0, 56, 63
1, 43364, Note_off_c, 0, 78, 56
1, 43386, Note_on_c, 0, 60, 53
1, 43426, Note_off_c, 0, 60, 61
1, 43451, Note_on_c, 0, 56, 58
1, 43490, Note_off_c, 0, 56, 60
1, 43506, Note_on_c, 0, 54, 51
1, 43558, Note_on_c, 0, 76, 73
1, 43590, Note_off_c, 0, 76, 64
1, 43597, Note_off_c, 0, 77, 26
1, 43610, Note_off_c, 0, 54, 53
1, 43612, Control_c, 0, 64, 88
1, 43627, Control_c, 0, 64, 80
1, 43642, Control_c, 0, 64, 65
1, 43646, Note_on_c, 0, 49, 50
1, 43656, Control_c, 0, 64, 0
1, 43670, Note_on_c, 0, 76, 80
1, 43701, Control_c, 0, 64, 40
1, 43716, Control_c, 0, 64, 61
1, 43720, Note_off_c, 0, 49, 60
1, 43730, Control_c, 0, 64, 67
1, 43738, Note_on_c, 0, 56, 57
1, 43745, Control_c, 0, 64, 73
1, 43760, Control_c, 0, 64, 80
1, 43774, Control_c, 0, 64, 85
1, 43789, Control_c, 0, 64, 87
1, 43804, Control_c, 0, 64, 88
1, 43819, Control_c, 0, 64, 89
1, 43832, Note_on_c, 0, 61, 63
1, 43832, Note_off_c, 0, 56, 62
1, 43834, Control_c, 0, 64, 90
1, 43849, Control_c, 0, 64, 92
1, 43864, Control_c, 0, 64, 93
1, 43879, Control_c, 0, 64, 93
1, 43891, Note_off_c, 0, 61, 62
1, 43913, Note_on_c, 0, 65, 57
1, 43968, Note_off_c, 0, 65, 58
1, 43983, Note_on_c, 0, 61, 45
1, 44025, Note_off_c, 0, 61, 60
1, 44037, Note_on_c, 0, 58, 52
1, 44057, Control_c, 0, 64, 93
1, 44087, Control_c, 0, 64, 92
1, 44101, Note_off_c, 0, 58, 60
1, 44102, Control_c, 0, 64, 92
1, 44117, Control_c, 0, 64, 89
1, 44132, Control_c, 0, 64, 79
1, 44142, Note_on_c, 0, 56, 49
1, 44146, Control_c, 0, 64, 62
1, 44147, Note_off_c, 0, 76, 55
1, 44150, Note_on_c, 0, 77, 65
1, 44161, Control_c, 0, 64, 0
1, 44205, Control_c, 0, 64, 49
1, 44220, Control_c, 0, 64, 64
1, 44235, Control_c, 0, 64, 70
1, 44257, Control_c, 0, 64, 77
1, 44272, Control_c, 0, 64, 84
1, 44281, Note_off_c, 0, 56, 33
1, 44287, Control_c, 0, 64, 87
1, 44302, Control_c, 0, 64, 87
1, 44308, Note_on_c, 0, 65, 54
1, 44374, Note_on_c, 0, 68, 60
1, 44376, Note_on_c, 0, 80, 83
1, 44401, Note_off_c, 0, 77, 29
1, 44434, Note_off_c, 0, 68, 56
1, 44506, Note_on_c, 0, 68, 84
1, 44510, Note_off_c, 0, 65, 46
1, 44514, Note_on_c, 0, 61, 54
1, 44543, Note_off_c, 0, 80, 53
1, 44567, Note_off_c, 0, 61, 56
1, 44686, Control_c, 0, 64, 87
1, 44731, Note_on_c, 0, 54, 46
1, 44746, Control_c, 0, 64, 86
1, 44761, Control_c, 0, 64, 85
1, 44776, Control_c, 0, 64, 79
1, 44791, Control_c, 0, 64, 67
1, 44806, Control_c, 0, 64, 0
1, 44809, Note_on_c, 0, 80, 60
1, 44827, Note_on_c, 0, 56, 47
1, 44849, Note_off_c, 0, 54, 51
1, 44865, Control_c, 0, 64, 38
1, 44880, Control_c, 0, 64, 62
1, 44889, Note_off_c, 0, 56, 55
1, 44895, Control_c, 0, 64, 67
1, 44901, Note_on_c, 0, 60, 51
1, 44910, Control_c, 0, 64, 72
1, 44925, Control_c, 0, 64, 78
1, 44930, Note_off_c, 0, 68, 61
1, 44940, Control_c, 0, 64, 82
1, 44955, Control_c, 0, 64, 82
1, 44979, Note_off_c, 0, 60, 58
1, 44982, Note_off_c, 0, 80, 62
1, 44984, Control_c, 0, 64, 83
1, 45005, Note_on_c, 0, 63, 49
1, 45006, Control_c, 0, 64, 84
1, 45020, Control_c, 0, 64, 85
1, 45035, Control_c, 0, 64, 86
1, 45050, Control_c, 0, 64, 86
1, 45057, Note_on_c, 0, 72, 76
1, 45065, Note_on_c, 0, 60, 28
1, 45065, Control_c, 0, 64, 87
1, 45080, Control_c, 0, 64, 88
1, 45091, Note_off_c, 0, 63, 38
1, 45095, Control_c, 0, 64, 88
1, 45110, Control_c, 0, 64, 89
1, 45125, Note_off_c, 0, 60, 55
1, 45125, Control_c, 0, 64, 90
1, 45140, Control_c, 0, 64, 91
1, 45154, Control_c, 0, 64, 92
1, 45163, Note_on_c, 0, 56, 50
1, 45169, Control_c, 0, 64, 94
1, 45184, Control_c, 0, 64, 97
1, 45199, Control_c, 0, 64, 99
1, 45214, Control_c, 0, 64, 102
1, 45228, Control_c, 0, 64, 104
1, 45243, Control_c, 0, 64, 107
1, 45258, Control_c, 0, 64, 109
1, 45259, Note_off_c, 0, 56, 61
1, 45271, Note_on_c, 0, 84, 69
1, 45273, Control_c, 0, 64, 112
1, 45286, Note_on_c, 0, 54, 44
1, 45288, Control_c, 0, 64, 116
1, 45302, Control_c, 0, 64, 121
1, 45317, Control_c, 0, 64, 127
1, 45343, Note_off_c, 0, 72, 64
1, 45344, Note_off_c, 0, 84, 62
1, 45384, Note_off_c, 0, 54, 58
1, 45390, Note_on_c, 0, 56, 39
1, 45420, Note_off_c, 0, 56, 60
1, 45441, Note_on_c, 0, 60, 52
1, 45454, Note_on_c, 0, 82, 81
1, 45458, Note_on_c, 0, 70, 80
1, 45488, Note_off_c, 0, 60, 59
1, 45506, Note_on_c, 0, 63, 55
1, 45518, Note_off_c, 0, 70, 59
1, 45534, Note_off_c, 0, 82, 61
1, 45553, Note_off_c, 0, 63, 60
1, 45579, Note_on_c, 0, 60, 34
1, 45626, Note_off_c, 0, 60, 59
1, 45649, Note_on_c, 0, 56, 47
1, 45658, Note_on_c, 0, 80, 73
1, 45661, Note_on_c, 0, 68, 74
1, 45681, Note_off_c, 0, 80, 67
1, 45685, Note_off_c, 0, 68, 70
1, 45703, Control_c, 0, 64, 106
1, 45718, Control_c, 0, 64, 87
1, 45730, Note_off_c, 0, 56, 60
1, 45733, Control_c, 0, 64, 65
1, 45747, Note_on_c, 0, 68, 80
1, 45748, Note_on_c, 0, 80, 81
1, 45755, Control_c, 0, 64, 0
1, 45760, Note_on_c, 0, 53, 49
1, 45799, Control_c, 0, 64, 56
1, 45814, Control_c, 0, 64, 66
1, 45829, Control_c, 0, 64, 71
1, 45831, Note_off_c, 0, 53, 65
1, 45843, Control_c, 0, 64, 77
1, 45848, Note_on_c, 0, 56, 63
1, 45858, Control_c, 0, 64, 83
1, 45873, Control_c, 0, 64, 86
1, 45888, Control_c, 0, 64, 86
1, 45895, Note_off_c, 0, 56, 59
1, 45896, Note_off_c, 0, 68, 61
1, 45897, Note_on_c, 0, 61, 63
1, 45903, Control_c, 0, 64, 87
1, 45918, Control_c, 0, 64, 88
1, 45932, Control_c, 0, 64, 88
1, 45936, Note_off_c, 0, 61, 62
1, 45947, Control_c, 0, 64, 89
1, 45959, Note_on_c, 0, 65, 61
1, 45962, Control_c, 0, 64, 91
1, 45977, Control_c, 0, 64, 92
1, 45992, Control_c, 0, 64, 94
1, 46003, Note_off_c, 0, 65, 60
1, 46007, Control_c, 0, 64, 95
1, 46022, Control_c, 0, 64, 96
1, 46029, Note_on_c, 0, 61, 56
1, 46037, Control_c, 0, 64, 97
1, 46051, Control_c, 0, 64, 98
1, 46066, Control_c, 0, 64, 100
1, 46073, Note_off_c, 0, 61, 58
1, 46077, Note_on_c, 0, 56, 56
1, 46081, Control_c, 0, 64, 101
1, 46096, Control_c, 0, 64, 102
1, 46111, Control_c, 0, 64, 103
1, 46125, Control_c, 0, 64, 104
1, 46140, Control_c, 0, 64, 104
1, 46155, Control_c, 0, 64, 106
1, 46162, Note_off_c, 0, 56, 63
1, 46165, Note_on_c, 0, 73, 90
1, 46165, Note_on_c, 0, 85, 88
1, 46169, Control_c, 0, 64, 107
1, 46184, Control_c, 0, 64, 108
1, 46190, Note_on_c, 0, 53, 46
1, 46199, Control_c, 0, 64, 110
1, 46214, Control_c, 0, 64, 111
1, 46229, Control_c, 0, 64, 112
1, 46243, Control_c, 0, 64, 114
1, 46254, Note_on_c, 0, 56, 50
1, 46258, Control_c, 0, 64, 115
1, 46266, Note_off_c, 0, 53, 37
1, 46273, Control_c, 0, 64, 116
1, 46288, Control_c, 0, 64, 117
1, 46303, Control_c, 0, 64, 118
1, 46311, Note_off_c, 0, 56, 63
1, 46317, Control_c, 0, 64, 120
1, 46322, Note_on_c, 0, 61, 61
1, 46332, Control_c, 0, 64, 124
1, 46347, Control_c, 0, 64, 127
1, 46362, Note_off_c, 0, 61, 60
1, 46371, Note_off_c, 0, 85, 55
1, 46397, Note_on_c, 0, 68, 64
1, 46412, Note_off_c, 0, 80, 62
1, 46460, Note_off_c, 0, 68, 62
1, 46472, Note_on_c, 0, 61, 60
1, 46472, Note_off_c, 0, 73, 28
1, 46543, Note_on_c, 0, 56, 53
1, 46543, Note_off_c, 0, 61, 60
1, 46578, Control_c, 0, 64, 119
1, 46592, Control_c, 0, 64, 100
1, 46607, Control_c, 0, 64, 80
1, 46620, Note_off_c, 0, 56, 63
1, 46622, Control_c, 0, 64, 41
1, 46634, Note_on_c, 0, 73, 96
1, 46635, Note_on_c, 0, 80, 83
1, 46635, Note_on_c, 0, 85, 86
1, 46637, Note_on_c, 0, 51, 62
1, 46637, Control_c, 0, 64, 0
1, 46639, Note_on_c, 0, 78, 81
1, 46666, Control_c, 0, 64, 25
1, 46681, Control_c, 0, 64, 62
1, 46696, Control_c, 0, 64, 69
1, 46708, Note_off_c, 0, 51, 62
1, 46711, Control_c, 0, 64, 77
1, 46720, Note_on_c, 0, 56, 61
1, 46726, Control_c, 0, 64, 86
1, 46741, Control_c, 0, 64, 91
1, 46755, Control_c, 0, 64, 93
1, 46770, Control_c, 0, 64, 94
1, 46782, Note_on_c, 0, 60, 56
1, 46785, Control_c, 0, 64, 94
1, 46791, Note_off_c, 0, 56, 63
1, 46800, Control_c, 0, 64, 95
1, 46806, Note_off_c, 0, 85, 64
1, 46810, Note_off_c, 0, 73, 60
1, 46815, Control_c, 0, 64, 96
1, 46830, Control_c, 0, 64, 97
1, 46845, Control_c, 0, 64, 99
1, 46860, Control_c, 0, 64, 101
1, 46874, Control_c, 0, 64, 102
1, 46883, Note_on_c, 0, 66, 56
1, 46919, Control_c, 0, 64, 103
1, 46930, Note_off_c, 0, 66, 60
1, 46944, Note_off_c, 0, 60, 0
1, 46949, Note_on_c, 0, 84, 83
1, 46949, Note_on_c, 0, 72, 85
1, 46966, Note_on_c, 0, 60, 4
1, 47012, Note_off_c, 0, 60, 43
1, 47016, Note_on_c, 0, 56, 52
1, 47031, Note_off_c, 0, 84, 62
1, 47034, Note_off_c, 0, 72, 59
1, 47107, Note_off_c, 0, 56, 60
1, 47108, Note_off_c, 0, 78, 0
1, 47129, Note_on_c, 0, 72, 93
1, 47129, Note_on_c, 0, 78, 52
1, 47130, Note_on_c, 0, 51, 58
1, 47136, Note_on_c, 0, 84, 80
1, 47155, Control_c, 0, 64, 104
1, 47160, Note_off_c, 0, 84, 64
1, 47171, Control_c, 0, 64, 106
1, 47178, Note_off_c, 0, 72, 61
1, 47186, Control_c, 0, 64, 108
1, 47198, Note_off_c, 0, 51, 61
1, 47198, Note_off_c, 0, 78, 63
1, 47201, Control_c, 0, 64, 111
1, 47203, Note_off_c, 0, 80, 64
1, 47215, Control_c, 0, 64, 114
1, 47220, Note_on_c, 0, 56, 51
1, 47230, Control_c, 0, 64, 115
1, 47253, Control_c, 0, 64, 117
1, 47268, Control_c, 0, 64, 118
1, 47283, Control_c, 0, 64, 119
1, 47292, Note_off_c, 0, 56, 60
1, 47297, Control_c, 0, 64, 120
1, 47310, Note_on_c, 0, 60, 49
1, 47312, Control_c, 0, 64, 121
1, 47339, Note_on_c, 0, 70, 86
1, 47342, Note_on_c, 0, 82, 77
1, 47342, Control_c, 0, 64, 121
1, 47357, Note_off_c, 0, 70, 73
1, 47357, Note_off_c, 0, 82, 70
1, 47375, Note_on_c, 0, 66, 68
1, 47375, Note_off_c, 0, 60, 46
1, 47409, Note_on_c, 0, 68, 93
1, 47412, Note_on_c, 0, 80, 92
1, 47414, Note_off_c, 0, 66, 65
1, 47436, Note_on_c, 0, 60, 30
1, 47445, Note_off_c, 0, 68, 65
1, 47457, Note_off_c, 0, 80, 66
1, 47460, Control_c, 0, 64, 121
1, 47480, Note_off_c, 0, 60, 57
1, 47500, Note_on_c, 0, 56, 53
1, 47519, Control_c, 0, 64, 120
1, 47534, Control_c, 0, 64, 120
1, 47549, Control_c, 0, 64, 119
1, 47578, Control_c, 0, 64, 118
1, 47593, Control_c, 0, 64, 110
1, 47594, Note_off_c, 0, 56, 54
1, 47608, Control_c, 0, 64, 93
1, 47622, Note_on_c, 0, 80, 91
1, 47622, Note_on_c, 0, 89, 94
1, 47623, Control_c, 0, 64, 68
1, 47628, Note_on_c, 0, 77, 89
1, 47631, Note_on_c, 0, 50, 46
1, 47638, Control_c, 0, 64, 0
1, 47682, Control_c, 0, 64, 44
1, 47697, Control_c, 0, 64, 64
1, 47702, Note_off_c, 0, 50, 64
1, 47711, Note_on_c, 0, 56, 65
1, 47712, Control_c, 0, 64, 73
1, 47727, Control_c, 0, 64, 84
1, 47741, Control_c, 0, 64, 95
1, 47756, Control_c, 0, 64, 103
1, 47771, Control_c, 0, 64, 106
1, 47772, Note_on_c, 0, 59, 64
1, 47778, Note_off_c, 0, 77, 59
1, 47781, Note_off_c, 0, 56, 65
1, 47786, Control_c, 0, 64, 108
1, 47801, Control_c, 0, 64, 111
1, 47809, Note_off_c, 0, 89, 61
1, 47815, Control_c, 0, 64, 117
1, 47818, Note_off_c, 0, 80, 63
1, 47826, Note_off_c, 0, 59, 60
1, 47830, Control_c, 0, 64, 123
1, 47845, Note_on_c, 0, 65, 68
1, 47845, Control_c, 0, 64, 127
1, 47914, Note_off_c, 0, 65, 64
1, 47920, Note_on_c, 0, 59, 59
1, 47980, Note_on_c, 0, 56, 70
1, 47981, Note_off_c, 0, 59, 61
1, 48046, Control_c, 0, 64, 114
1, 48061, Control_c, 0, 64, 94
1, 48070, Note_off_c, 0, 56, 63
1, 48076, Control_c, 0, 64, 72
1, 48079, Note_on_c, 0, 89, 93
1, 48080, Note_on_c, 0, 50, 66
1, 48081, Note_on_c, 0, 80, 91
1, 48082, Note_on_c, 0, 77, 92
1, 48091, Control_c, 0, 64, 0
1, 48120, Control_c, 0, 64, 21
1, 48135, Control_c, 0, 64, 62
1, 48150, Control_c, 0, 64, 70
1, 48160, Note_off_c, 0, 50, 63
1, 48162, Note_on_c, 0, 56, 69
1, 48165, Control_c, 0, 64, 80
1, 48180, Control_c, 0, 64, 93
1, 48194, Control_c, 0, 64, 106
1, 48209, Control_c, 0, 64, 112
1, 48222, Note_on_c, 0, 58, 79
1, 48224, Control_c, 0, 64, 119
1, 48238, Control_c, 0, 64, 127
1, 48242, Note_off_c, 0, 77, 55
1, 48243, Note_off_c, 0, 56, 64
1, 48252, Note_off_c, 0, 80, 57
1, 48271, Note_off_c, 0, 89, 61
1, 48300, Note_on_c, 0, 65, 73
1, 48314, Note_off_c, 0, 58, 63
1, 48365, Note_on_c, 0, 80, 96
1, 48367, Note_on_c, 0, 77, 100
1, 48368, Note_on_c, 0, 89, 95
1, 48396, Note_off_c, 0, 65, 59
1, 48400, Note_on_c, 0, 58, 62
1, 48410, Note_on_c, 0, 87, 30
1, 48442, Note_off_c, 0, 87, 33
1, 48456, Note_off_c, 0, 77, 60
1, 48463, Note_off_c, 0, 80, 60
1, 48476, Note_on_c, 0, 56, 67
1, 48483, Note_off_c, 0, 58, 62
1, 48529, Note_off_c, 0, 89, 36
1, 48642, Note_off_c, 0, 56, 61
1, 48651, Note_on_c, 0, 51, 60
1, 48664, Note_on_c, 0, 80, 49
1, 48668, Control_c, 0, 64, 100
1, 48676, Note_on_c, 0, 89, 87
1, 48679, Note_on_c, 0, 77, 91
1, 48683, Control_c, 0, 64, 78
1, 48698, Control_c, 0, 64, 0
1, 48755, Note_off_c, 0, 51, 61
1, 48760, Note_on_c, 0, 54, 59
1, 48765, Control_c, 0, 64, 58
1, 48780, Control_c, 0, 64, 68
1, 48794, Control_c, 0, 64, 77
1, 48809, Control_c, 0, 64, 86
1, 48824, Control_c, 0, 64, 92
1, 48830, Note_on_c, 0, 58, 66
1, 48839, Control_c, 0, 64, 94
1, 48840, Note_off_c, 0, 54, 62
1, 48854, Control_c, 0, 64, 95
1, 48869, Control_c, 0, 64, 97
1, 48875, Note_off_c, 0, 89, 63
1, 48884, Control_c, 0, 64, 98
1, 48895, Note_off_c, 0, 77, 59
1, 48896, Note_off_c, 0, 58, 63
1, 48898, Control_c, 0, 64, 99
1, 48913, Control_c, 0, 64, 100
1, 48914, Note_on_c, 0, 63, 64
1, 48934, Note_off_c, 0, 80, 64
1, 48958, Control_c, 0, 64, 100
1, 48995, Note_on_c, 0, 58, 55
1, 48998, Note_off_c, 0, 63, 62
1, 49034, Note_on_c, 0, 54, 67
1, 49034, Note_off_c, 0, 58, 64
1, 49066, Note_off_c, 0, 54, 63
1, 49121, Control_c, 0, 64, 100
1, 49150, Control_c, 0, 64, 97
1, 49156, Note_on_c, 0, 42, 70
1, 49165, Control_c, 0, 64, 87
1, 49176, Note_on_c, 0, 87, 76
1, 49180, Control_c, 0, 64, 71
1, 49185, Note_on_c, 0, 78, 75
1, 49186, Note_on_c, 0, 75, 76
1, 49193, Note_off_c, 0, 42, 65
1, 49194, Control_c, 0, 64, 16
1, 49209, Control_c, 0, 64, 0
1, 49224, Control_c, 0, 64, 59
1, 49234, Note_on_c, 0, 54, 57
1, 49239, Control_c, 0, 64, 66
1, 49254, Control_c, 0, 64, 73
1, 49266, Note_off_c, 0, 87, 62
1, 49268, Control_c, 0, 64, 82
1, 49274, Note_off_c, 0, 75, 64
1, 49277, Note_off_c, 0, 54, 57
1, 49283, Control_c, 0, 64, 90
1, 49298, Control_c, 0, 64, 94
1, 49313, Control_c, 0, 64, 96
1, 49328, Control_c, 0, 64, 98
1, 49331, Note_off_c, 0, 78, 0
1, 49343, Note_on_c, 0, 58, 61
1, 49343, Control_c, 0, 64, 101
1, 49348, Note_on_c, 0, 78, 55
1, 49357, Note_on_c, 0, 85, 77
1, 49358, Control_c, 0, 64, 103
1, 49359, Note_on_c, 0, 73, 81
1, 49372, Control_c, 0, 64, 104
1, 49387, Control_c, 0, 64, 106
1, 49393, Note_off_c, 0, 58, 62
1, 49402, Control_c, 0, 64, 107
1, 49408, Note_off_c, 0, 85, 64
1, 49410, Note_off_c, 0, 73, 60
1, 49413, Note_off_c, 0, 78, 62
1, 49417, Control_c, 0, 64, 109
1, 49429, Note_on_c, 0, 63, 61
1, 49432, Control_c, 0, 64, 112
1, 49447, Control_c, 0, 64, 114
1, 49461, Control_c, 0, 64, 115
1, 49476, Control_c, 0, 64, 116
1, 49498, Note_off_c, 0, 63, 61
1, 49498, Control_c, 0, 64, 117
1, 49513, Control_c, 0, 64, 117
1, 49526, Note_on_c, 0, 58, 47
1, 49553, Note_off_c, 0, 58, 63
1, 49575, Note_on_c, 0, 54, 50
1, 49576, Note_on_c, 0, 70, 73
1, 49582, Note_on_c, 0, 78, 66
1, 49584, Note_on_c, 0, 82, 65
1, 49600, Note_off_c, 0, 70, 69
1, 49608, Note_off_c, 0, 78, 68
1, 49608, Note_off_c, 0, 54, 62
1, 49611, Note_off_c, 0, 82, 65
1, 49618, Control_c, 0, 64, 117
1, 49633, Control_c, 0, 64, 114
1, 49648, Control_c, 0, 64, 101
1, 49663, Control_c, 0, 64, 82
1, 49678, Control_c, 0, 64, 58
1, 49679, Note_on_c, 0, 84, 73
1, 49680, Note_on_c, 0, 80, 76
1, 49685, Note_on_c, 0, 44, 55
1, 49686, Note_on_c, 0, 72, 67
1, 49692, Control_c, 0, 64, 0
1, 49722, Control_c, 0, 64, 45
1, 49737, Control_c, 0, 64, 65
1, 49742, Note_off_c, 0, 44, 62
1, 49746, Note_on_c, 0, 53, 58
1, 49752, Control_c, 0, 64, 72
1, 49766, Control_c, 0, 64, 82
1, 49781, Control_c, 0, 64, 91
1, 49796, Control_c, 0, 64, 96
1, 49797, Note_off_c, 0, 84, 59
1, 49811, Control_c, 0, 64, 98
1, 49811, Note_off_c, 0, 72, 60
1, 49826, Control_c, 0, 64, 99
1, 49828, Note_on_c, 0, 56, 63
1, 49832, Note_off_c, 0, 53, 65
1, 49840, Control_c, 0, 64, 100
1, 49854, Note_off_c, 0, 80, 62
1, 49855, Control_c, 0, 64, 102
1, 49870, Control_c, 0, 64, 104
1, 49879, Note_off_c, 0, 56, 61
1, 49885, Control_c, 0, 64, 106
1, 49900, Control_c, 0, 64, 108
1, 49904, Note_on_c, 0, 61, 58
1, 49915, Control_c, 0, 64, 111
1, 49930, Control_c, 0, 64, 112
1, 49941, Note_on_c, 0, 56, 52
1, 49944, Note_off_c, 0, 61, 64
1, 49945, Control_c, 0, 64, 112
1, 50004, Control_c, 0, 64, 113
1, 50013, Note_on_c, 0, 53, 58
1, 50019, Note_off_c, 0, 56, 63
1, 50063, Control_c, 0, 64, 112
1, 50079, Note_off_c, 0, 53, 63
1, 50092, Control_c, 0, 64, 110
1, 50104, Note_on_c, 0, 44, 62
1, 50107, Control_c, 0, 64, 94
1, 50118, Note_on_c, 0, 78, 52
1, 50122, Control_c, 0, 64, 76
1, 50123, Note_on_c, 0, 70, 68
1, 50129, Note_on_c, 0, 82, 65
1, 50136, Control_c, 0, 64, 31
1, 50151, Control_c, 0, 64, 0
1, 50156, Note_off_c, 0, 44, 56
1, 50166, Control_c, 0, 64, 42
1, 50174, Note_on_c, 0, 53, 56
1, 50181, Control_c, 0, 64, 63
1, 50186, Note_off_c, 0, 82, 57
1, 50190, Note_off_c, 0, 70, 62
1, 50196, Control_c, 0, 64, 68
1, 50208, Note_off_c, 0, 78, 63
1, 50210, Control_c, 0, 64, 76
1, 50225, Control_c, 0, 64, 84
1, 50248, Control_c, 0, 64, 90
1, 50263, Note_off_c, 0, 53, 65
1, 50263, Control_c, 0, 64, 92
1, 50264, Note_on_c, 0, 56, 60
1, 50278, Control_c, 0, 64, 92
1, 50282, Note_on_c, 0, 68, 83
1, 50285, Note_on_c, 0, 80, 73
1, 50286, Note_on_c, 0, 77, 70
1, 50292, Control_c, 0, 64, 93
1, 50307, Control_c, 0, 64, 94
1, 50308, Note_off_c, 0, 56, 61
1, 50321, Control_c, 0, 64, 95
1, 50334, Note_off_c, 0, 68, 63
1, 50336, Control_c, 0, 64, 96
1, 50341, Note_on_c, 0, 61, 51
1, 50341, Note_off_c, 0, 80, 62
1, 50373, Note_off_c, 0, 77, 58
1, 50380, Note_off_c, 0, 61, 62
1, 50425, Note_on_c, 0, 70, 78
1, 50428, Note_on_c, 0, 82, 78
1, 50430, Note_on_c, 0, 77, 60
1, 50460, Note_on_c, 0, 53, 55
1, 50504, Note_off_c, 0, 70, 61
1, 50510, Note_off_c, 0, 82, 62
1, 50537, Note_off_c, 0, 53, 60
1, 50559, Control_c, 0, 64, 93
1, 50568, Note_off_c, 0, 77, 0
1, 50574, Control_c, 0, 64, 83
1, 50577, Note_on_c, 0, 44, 63
1, 50583, Note_on_c, 0, 77, 37
1, 50589, Control_c, 0, 64, 63
1, 50590, Note_on_c, 0, 83, 72
1, 50596, Note_on_c, 0, 71, 71
1, 50604, Control_c, 0, 64, 0
1, 50631, Note_off_c, 0, 44, 58
1, 50648, Control_c, 0, 64, 57
1, 50648, Note_on_c, 0, 53, 66
1, 50663, Control_c, 0, 64, 66
1, 50678, Control_c, 0, 64, 73
1, 50692, Note_off_c, 0, 83, 57
1, 50693, Control_c, 0, 64, 82
1, 50698, Note_off_c, 0, 71, 57
1, 50707, Control_c, 0, 64, 88
1, 50722, Control_c, 0, 64, 91
1, 50737, Control_c, 0, 64, 91
1, 50743, Note_on_c, 0, 56, 53
1, 50752, Control_c, 0, 64, 92
1, 50756, Note_off_c, 0, 53, 60
1, 50759, Note_off_c, 0, 77, 53
1, 50766, Control_c, 0, 64, 92
1, 50781, Control_c, 0, 64, 93
1, 50786, Note_off_c, 0, 56, 62
1, 50796, Control_c, 0, 64, 94
1, 50814, Note_on_c, 0, 62, 48
1, 50842, Note_off_c, 0, 62, 50
1, 50872, Note_on_c, 0, 70, 76
1, 50875, Note_on_c, 0, 77, 67
1, 50875, Note_on_c, 0, 82, 70
1, 50901, Note_on_c, 0, 56, 47
1, 50928, Note_off_c, 0, 56, 59
1, 50930, Note_on_c, 0, 53, 57
1, 50960, Note_off_c, 0, 70, 61
1, 50961, Note_off_c, 0, 82, 62
1, 51011, Control_c, 0, 64, 91
1, 51013, Note_off_c, 0, 53, 64
1, 51026, Control_c, 0, 64, 81
1, 51035, Note_off_c, 0, 77, 0
1, 51040, Control_c, 0, 64, 65
1, 51046, Note_on_c, 0, 77, 47
1, 51049, Note_on_c, 0, 44, 60
1, 51054, Note_on_c, 0, 83, 72
1, 51055, Control_c, 0, 64, 0
1, 51057, Note_on_c, 0, 71, 74
1, 51085, Control_c, 0, 64, 26
1, 51098, Note_off_c, 0, 44, 62
1, 51100, Control_c, 0, 64, 62
1, 51105, Note_on_c, 0, 53, 59
1, 51114, Control_c, 0, 64, 68
1, 51129, Control_c, 0, 64, 76
1, 51144, Control_c, 0, 64, 85
1, 51160, Control_c, 0, 64, 90
1, 51175, Control_c, 0, 64, 91
1, 51188, Note_on_c, 0, 56, 63
1, 51189, Control_c, 0, 64, 92
1, 51200, Note_off_c, 0, 53, 50
1, 51204, Control_c, 0, 64, 92
1, 51219, Control_c, 0, 64, 94
1, 51234, Control_c, 0, 64, 95
1, 51241, Note_off_c, 0, 56, 62
1, 51249, Control_c, 0, 64, 97
1, 51263, Control_c, 0, 64, 98
1, 51265, Note_on_c, 0, 62, 58
1, 51278, Control_c, 0, 64, 99
1, 51293, Control_c, 0, 64, 99
1, 51308, Note_off_c, 0, 62, 57
1, 51308, Control_c, 0, 64, 100
1, 51323, Note_on_c, 0, 56, 57
1, 51384, Note_off_c, 0, 56, 63
1, 51389, Note_on_c, 0, 53, 62
1, 51442, Note_off_c, 0, 53, 64
1, 51456, Control_c, 0, 64, 100
1, 51461, Note_on_c, 0, 44, 73
1, 51486, Control_c, 0, 64, 101
1, 51497, Note_off_c, 0, 83, 53
1, 51501, Control_c, 0, 64, 102
1, 51502, Note_off_c, 0, 71, 47
1, 51516, Control_c, 0, 64, 104
1, 51530, Control_c, 0, 64, 108
1, 51534, Note_off_c, 0, 44, 62
1, 51535, Note_on_c, 0, 53, 67
1, 51545, Control_c, 0, 64, 112
1, 51560, Control_c, 0, 64, 117
1, 51571, Note_off_c, 0, 77, 55
1, 51575, Control_c, 0, 64, 122
1, 51589, Control_c, 0, 64, 127
1, 51615, Note_on_c, 0, 56, 54
1, 51642, Note_off_c, 0, 53, 47
1, 51672, Note_on_c, 0, 62, 64
1, 51691, Note_off_c, 0, 56, 47
1, 51726, Note_off_c, 0, 62, 56
1, 51741, Note_on_c, 0, 70, 80
1, 51745, Note_on_c, 0, 77, 71
1, 51745, Note_on_c, 0, 82, 76
1, 51784, Note_on_c, 0, 53, 64
1, 51816, Note_off_c, 0, 70, 62
1, 51837, Note_off_c, 0, 82, 61
1, 51848, Note_off_c, 0, 77, 53
1, 51869, Note_off_c, 0, 53, 61
1, 51889, Note_on_c, 0, 77, 66
1, 51894, Note_on_c, 0, 44, 71
1, 51898, Note_on_c, 0, 71, 85
1, 51898, Note_on_c, 0, 83, 77
1, 51949, Note_off_c, 0, 71, 62
1, 51949, Note_off_c, 0, 83, 59
1, 51959, Note_off_c, 0, 44, 61
1, 51968, Note_on_c, 0, 53, 68
1, 51987, Note_off_c, 0, 77, 61
1, 52022, Poly_aftertouch_c, 0, 77, 0
1, 52028, Note_on_c, 0, 70, 98
1, 52028, Note_on_c, 0, 77, 68
1, 52044, Note_on_c, 0, 82, 73
1, 52046, Note_on_c, 0, 56, 51
1, 52079, Note_on_c, 0, 75, 8
1, 52079, Note_off_c, 0, 53, 50
1, 52097, Note_on_c, 0, 62, 59
1, 52098, Note_off_c, 0, 70, 61
1, 52106, Note_off_c, 0, 82, 63
1, 52115, Note_off_c, 0, 56, 52
1, 52124, Note_off_c, 0, 77, 60
1, 52127, Note_off_c, 0, 75, 36
1, 52134, Note_off_c, 0, 62, 59
1, 52163, Note_on_c, 0, 77, 83
1, 52166, Note_on_c, 0, 71, 94
1, 52173, Note_on_c, 0, 83, 79
1, 52178, Note_on_c, 0, 53, 46
1, 52220, Note_off_c, 0, 53, 63
1, 52240, Note_off_c, 0, 83, 56
1, 52240, Note_off_c, 0, 77, 61
1, 52246, Note_off_c, 0, 71, 54
1, 52323, Control_c, 0, 64, 120
1, 52337, Control_c, 0, 64, 95
1, 52340, Note_on_c, 0, 44, 63
1, 52343, Note_on_c, 0, 71, 95
1, 52345, Note_on_c, 0, 83, 89
1, 52351, Note_on_c, 0, 78, 90
1, 52352, Control_c, 0, 64, 73
1, 52367, Control_c, 0, 64, 0
1, 52397, Control_c, 0, 64, 62
1, 52410, Note_off_c, 0, 44, 61
1, 52411, Control_c, 0, 64, 69
1, 52416, Note_on_c, 0, 51, 71
1, 52426, Control_c, 0, 64, 78
1, 52441, Control_c, 0, 64, 89
1, 52442, Note_off_c, 0, 83, 57
1, 52446, Note_off_c, 0, 71, 60
1, 52456, Control_c, 0, 64, 96
1, 52471, Control_c, 0, 64, 99
1, 52473, Note_off_c, 0, 78, 63
1, 52493, Control_c, 0, 64, 100
1, 52496, Note_on_c, 0, 54, 58
1, 52500, Note_off_c, 0, 51, 62
1, 52508, Control_c, 0, 64, 101
1, 52523, Control_c, 0, 64, 102
1, 52537, Control_c, 0, 64, 103
1, 52548, Note_off_c, 0, 54, 59
1, 52551, Note_on_c, 0, 63, 73
1, 52552, Control_c, 0, 64, 104
1, 52567, Control_c, 0, 64, 104
1, 52597, Control_c, 0, 64, 105
1, 52622, Note_on_c, 0, 78, 68
1, 52626, Control_c, 0, 64, 105
1, 52627, Note_on_c, 0, 70, 93
1, 52627, Note_off_c, 0, 63, 62
1, 52628, Note_on_c, 0, 82, 89
1, 52646, Note_off_c, 0, 70, 71
1, 52656, Note_on_c, 0, 54, 54
1, 52672, Note_off_c, 0, 78, 63
1, 52673, Note_off_c, 0, 82, 64
1, 52695, Note_off_c, 0, 54, 60
1, 52705, Note_on_c, 0, 51, 57
1, 52805, Control_c, 0, 64, 101
1, 52812, Note_off_c, 0, 51, 61
1, 52820, Control_c, 0, 64, 86
1, 52830, Note_on_c, 0, 82, 98
1, 52834, Note_on_c, 0, 94, 91
1, 52834, Control_c, 0, 64, 64
1, 52837, Note_on_c, 0, 44, 69
1, 52838, Note_on_c, 0, 90, 83
1, 52849, Control_c, 0, 64, 0
1, 52879, Control_c, 0, 64, 51
1, 52894, Control_c, 0, 64, 65
1, 52904, Note_off_c, 0, 44, 62
1, 52908, Control_c, 0, 64, 75
1, 52914, Note_on_c, 0, 51, 67
1, 52923, Control_c, 0, 64, 87
1, 52938, Control_c, 0, 64, 100
1, 52952, Control_c, 0, 64, 106
1, 52967, Control_c, 0, 64, 108
1, 52975, Note_on_c, 0, 54, 65
1, 52976, Note_off_c, 0, 82, 62
1, 52982, Control_c, 0, 64, 113
1, 52997, Control_c, 0, 64, 121
1, 52998, Note_off_c, 0, 94, 62
1, 53009, Note_off_c, 0, 51, 62
1, 53012, Control_c, 0, 64, 127
1, 53013, Note_off_c, 0, 90, 62
1, 53036, Note_off_c, 0, 54, 61
1, 53059, Note_on_c, 0, 63, 72
1, 53134, Note_off_c, 0, 63, 64
1, 53139, Note_on_c, 0, 54, 62
1, 53185, Note_on_c, 0, 51, 67
1, 53206, Note_off_c, 0, 54, 62
1, 53258, Note_on_c, 0, 44, 78
1, 53260, Note_off_c, 0, 51, 63
1, 53322, Note_on_c, 0, 51, 63
1, 53326, Note_off_c, 0, 44, 62
1, 53396, Note_on_c, 0, 54, 52
1, 53418, Note_off_c, 0, 51, 62
1, 53447, Note_off_c, 0, 54, 58
1, 53450, Note_on_c, 0, 78, 81
1, 53450, Note_on_c, 0, 72, 83
1, 53452, Note_on_c, 0, 84, 76
1, 53456, Note_on_c, 0, 60, 65
1, 53470, Note_off_c, 0, 72, 73
1, 53470, Note_off_c, 0, 78, 69
1, 53473, Note_off_c, 0, 84, 72
1, 53507, Note_off_c, 0, 60, 51
1, 53520, Note_on_c, 0, 72, 102
1, 53522, Note_on_c, 0, 78, 97
1, 53523, Note_on_c, 0, 84, 97
1, 53556, Note_on_c, 0, 51, 62
1, 53558, Note_on_c, 0, 54, 30
1, 53582, Note_off_c, 0, 54, 55
1, 53600, Note_off_c, 0, 72, 60
1, 53614, Note_off_c, 0, 84, 56
1, 53653, Note_off_c, 0, 78, 57
1, 53667, Note_off_c, 0, 51, 62
1, 53683, Note_on_c, 0, 78, 73
1, 53685, Note_on_c, 0, 44, 75
1, 53686, Note_on_c, 0, 72, 96
1, 53687, Note_on_c, 0, 84, 90
1, 53721, Note_off_c, 0, 72, 64
1, 53735, Note_off_c, 0, 78, 64
1, 53744, Note_off_c, 0, 84, 63
1, 53770, Note_off_c, 0, 44, 61
1, 53790, Note_on_c, 0, 51, 60
1, 53864, Note_off_c, 0, 51, 60
1, 53884, Note_on_c, 0, 89, 79
1, 53889, Note_on_c, 0, 77, 73
1, 53895, Note_on_c, 0, 81, 71
1, 53902, Note_on_c, 0, 54, 25
1, 53903, Note_off_c, 0, 89, 73
1, 53906, Note_off_c, 0, 77, 67
1, 53911, Note_off_c, 0, 81, 67
1, 53927, Note_on_c, 0, 60, 53
1, 53954, Note_off_c, 0, 60, 53
1, 53962, Note_on_c, 0, 75, 98
1, 53963, Note_on_c, 0, 87, 94
1, 53966, Note_off_c, 0, 54, 38
1, 53993, Note_on_c, 0, 51, 67
1, 54017, Poly_aftertouch_c, 0, 85, 0
1, 54047, Poly_aftertouch_c, 0, 78, 127
1, 54048, Note_off_c, 0, 51, 61
1, 54076, Note_off_c, 0, 87, 60
1, 54085, Note_off_c, 0, 75, 52
1, 54133, Poly_aftertouch_c, 0, 78, 0
1, 54154, Control_c, 0, 64, 105
1, 54169, Control_c, 0, 64, 76
1, 54172, Note_on_c, 0, 73, 101
1, 54174, Note_on_c, 0, 77, 85
1, 54178, Note_on_c, 0, 85, 90
1, 54182, Note_on_c, 0, 37, 67
1, 54184, Control_c, 0, 64, 0
1, 54204, Note_on_c, 0, 39, 31
1, 54213, Control_c, 0, 64, 13
1, 54222, Note_off_c, 0, 37, 66
1, 54228, Control_c, 0, 64, 65
1, 54234, Note_off_c, 0, 39, 36
1, 54243, Control_c, 0, 64, 74
1, 54249, Note_off_c, 0, 73, 63
1, 54253, Note_off_c, 0, 85, 64
1, 54258, Control_c, 0, 64, 87
1, 54271, Note_off_c, 0, 77, 60
1, 54273, Control_c, 0, 64, 98
1, 54288, Control_c, 0, 64, 103
1, 54303, Control_c, 0, 64, 104
1, 54317, Control_c, 0, 64, 105
1, 54332, Control_c, 0, 64, 106
1, 54347, Control_c, 0, 64, 106
1, 54362, Control_c, 0, 64, 107
1, 54377, Control_c, 0, 64, 107
1, 54407, Control_c, 0, 64, 108
1, 54422, Control_c, 0, 64, 108
1, 54463, Note_on_c, 0, 44, 64
1, 54481, Control_c, 0, 64, 109
1, 54509, Note_on_c, 0, 53, 67
1, 54526, Control_c, 0, 64, 109
1, 54535, Note_off_c, 0, 44, 62
1, 54570, Control_c, 0, 64, 110
1, 54583, Note_on_c, 0, 65, 79
1, 54585, Control_c, 0, 64, 110
1, 54600, Control_c, 0, 64, 112
1, 54604, Note_on_c, 0, 61, 78
1, 54614, Control_c, 0, 64, 114
1, 54629, Control_c, 0, 64, 117
1, 54630, Note_off_c, 0, 61, 63
1, 54633, Note_off_c, 0, 65, 66
1, 54644, Control_c, 0, 64, 122
1, 54656, Note_on_c, 0, 73, 74
1, 54659, Control_c, 0, 64, 127
1, 54677, Note_off_c, 0, 53, 29
1, 54708, Note_off_c, 0, 73, 64
1, 54742, Note_on_c, 0, 79, 23
1, 54789, Note_off_c, 0, 79, 0
1, 54789, Note_on_c, 0, 79, 53
1, 54838, Note_off_c, 0, 79, 63
1, 54859, Note_on_c, 0, 86, 62
1, 54863, Note_on_c, 0, 85, 11
1, 54902, Note_on_c, 0, 94, 85
1, 54902, Note_off_c, 0, 86, 62
1, 54910, Note_off_c, 0, 85, 32
1, 54973, Note_on_c, 0, 32, 80
1, 54974, Note_on_c, 0, 84, 95
1, 54977, Note_on_c, 0, 92, 92
1, 54977, Control_c, 0, 64, 93
1, 54992, Control_c, 0, 64, 55
1, 55000, Note_off_c, 0, 94, 66
1, 55006, Control_c, 0, 64, 0
1, 55025, Note_off_c, 0, 84, 64
1, 55027, Note_off_c, 0, 92, 64
1, 55032, Note_off_c, 0, 32, 63
1, 55036, Control_c, 0, 64, 57
1, 55051, Control_c, 0, 64, 69
1, 55066, Control_c, 0, 64, 82
1, 55081, Control_c, 0, 64, 102
1, 55096, Control_c, 0, 64, 115
1, 55111, Control_c, 0, 64, 116
1, 55140, Control_c, 0, 64, 117
1, 55156, Control_c, 0, 64, 118
1, 55171, Control_c, 0, 64, 119
1, 55185, Control_c, 0, 64, 119
1, 55215, Control_c, 0, 64, 120
1, 55265, Note_on_c, 0, 44, 56
1, 55316, Note_on_c, 0, 51, 66
1, 55338, Note_off_c, 0, 44, 62
1, 55391, Note_on_c, 0, 66, 79
1, 55394, Note_on_c, 0, 60, 69
1, 55421, Note_off_c, 0, 51, 36
1, 55429, Note_off_c, 0, 60, 59
1, 55462, Note_on_c, 0, 72, 72
1, 55489, Control_c, 0, 64, 120
1, 55491, Note_off_c, 0, 66, 66
1, 55504, Control_c, 0, 64, 122
1, 55519, Control_c, 0, 64, 127
1, 55522, Note_on_c, 0, 80, 81
1, 55534, Note_off_c, 0, 72, 64
1, 55551, Note_off_c, 0, 80, 63
1, 55609, Note_on_c, 0, 78, 87
1, 55672, Note_on_c, 0, 84, 79
1, 55691, Note_off_c, 0, 78, 61
1, 55715, Note_on_c, 0, 92, 84
1, 55734, Note_off_c, 0, 84, 67
1, 55768, Poly_aftertouch_c, 0, 85, 0
1, 55800, Control_c, 0, 64, 91
1, 55802, Note_on_c, 0, 89, 94
1, 55808, Note_on_c, 0, 85, 92
1, 55812, Note_on_c, 0, 37, 75
1, 55815, Control_c, 0, 64, 66
1, 55829, Control_c, 0, 64, 0
1, 55832, Note_off_c, 0, 92, 65
1, 55874, Control_c, 0, 64, 61
1, 55884, Note_off_c, 0, 37, 63
1, 55889, Control_c, 0, 64, 72
1, 55893, Note_off_c, 0, 89, 63
1, 55904, Control_c, 0, 64, 84
1, 55910, Note_off_c, 0, 85, 62
1, 55918, Control_c, 0, 64, 97
1, 55933, Control_c, 0, 64, 103
1, 55949, Control_c, 0, 64, 104
1, 55964, Control_c, 0, 64, 105
1, 55978, Control_c, 0, 64, 107
1, 55993, Control_c, 0, 64, 108
1, 56008, Control_c, 0, 64, 109
1, 56023, Control_c, 0, 64, 110
1, 56038, Control_c, 0, 64, 110
1, 56091, Note_on_c, 0, 44, 59
1, 56137, Note_on_c, 0, 53, 70
1, 56171, Note_off_c, 0, 44, 62
1, 56214, Note_on_c, 0, 65, 77
1, 56243, Note_on_c, 0, 61, 79
1, 56275, Note_off_c, 0, 61, 59
1, 56285, Note_on_c, 0, 73, 76
1, 56303, Note_off_c, 0, 65, 52
1, 56324, Note_off_c, 0, 53, 37
1, 56327, Control_c, 0, 64, 111
1, 56333, Note_on_c, 0, 80, 81
1, 56342, Control_c, 0, 64, 115
1, 56343, Note_off_c, 0, 73, 62
1, 56356, Note_off_c, 0, 80, 69
1, 56357, Control_c, 0, 64, 125
1, 56365, Poly_aftertouch_c, 0, 67, 0
1, 56372, Control_c, 0, 64, 127
1, 56416, Note_on_c, 0, 77, 80
1, 56449, Note_off_c, 0, 77, 61
1, 56467, Note_on_c, 0, 85, 78
1, 56539, Note_off_c, 0, 85, 65
1, 56541, Note_on_c, 0, 94, 85
1, 56619, Note_on_c, 0, 32, 85
1, 56623, Note_on_c, 0, 92, 96
1, 56623, Control_c, 0, 64, 85
1, 56625, Note_on_c, 0, 84, 92
1, 56638, Control_c, 0, 64, 33
1, 56652, Note_off_c, 0, 94, 66
1, 56652, Control_c, 0, 64, 0
1, 56672, Note_off_c, 0, 84, 65
1, 56682, Control_c, 0, 64, 54
1, 56684, Note_off_c, 0, 32, 63
1, 56696, Note_off_c, 0, 92, 63
1, 56696, Control_c, 0, 64, 67
1, 56711, Control_c, 0, 64, 80
1, 56726, Control_c, 0, 64, 97
1, 56741, Control_c, 0, 64, 109
1, 56757, Control_c, 0, 64, 112
1, 56772, Control_c, 0, 64, 112
1, 56787, Control_c, 0, 64, 113
1, 56801, Control_c, 0, 64, 114
1, 56816, Control_c, 0, 64, 116
1, 56846, Control_c, 0, 64, 116
1, 56890, Control_c, 0, 64, 117
1, 56907, Note_on_c, 0, 44, 57
1, 56956, Note_on_c, 0, 51, 68
1, 56997, Note_off_c, 0, 44, 62
1, 57039, Note_on_c, 0, 66, 79
1, 57046, Note_on_c, 0, 60, 73
1, 57075, Note_off_c, 0, 60, 63
1, 57078, Note_off_c, 0, 51, 34
1, 57114, Note_on_c, 0, 72, 75
1, 57120, Control_c, 0, 64, 118
1, 57135, Note_off_c, 0, 66, 66
1, 57135, Control_c, 0, 64, 122
1, 57150, Control_c, 0, 64, 127
1, 57170, Note_on_c, 0, 80, 81
1, 57178, Note_off_c, 0, 72, 65
1, 57208, Note_off_c, 0, 80, 62
1, 57257, Note_on_c, 0, 78, 87
1, 57322, Note_on_c, 0, 84, 78
1, 57329, Note_off_c, 0, 78, 62
1, 57376, Note_on_c, 0, 92, 82
1, 57394, Note_off_c, 0, 84, 66
1, 57458, Note_on_c, 0, 89, 94
1, 57460, Note_on_c, 0, 25, 84
1, 57461, Control_c, 0, 64, 89
1, 57464, Note_on_c, 0, 85, 103
1, 57475, Control_c, 0, 64, 0
1, 57501, Note_off_c, 0, 92, 64
1, 57507, Note_on_c, 0, 24, 35
1, 57519, Control_c, 0, 64, 48
1, 57528, Note_off_c, 0, 25, 63
1, 57534, Control_c, 0, 64, 67
1, 57550, Control_c, 0, 64, 79
1, 57554, Note_off_c, 0, 24, 39
1, 57554, Note_off_c, 0, 89, 64
1, 57565, Control_c, 0, 64, 96
1, 57572, Note_off_c, 0, 85, 63
1, 57580, Control_c, 0, 64, 107
1, 57595, Control_c, 0, 64, 110
1, 57610, Control_c, 0, 64, 111
1, 57624, Control_c, 0, 64, 113
1, 57639, Control_c, 0, 64, 115
1, 57654, Control_c, 0, 64, 117
1, 57669, Control_c, 0, 64, 118
1, 57684, Control_c, 0, 64, 118
1, 57698, Control_c, 0, 64, 119
1, 57750, Note_on_c, 0, 44, 59
1, 57781, Note_on_c, 0, 53, 69
1, 57826, Note_off_c, 0, 44, 62
1, 57876, Note_on_c, 0, 65, 80
1, 57880, Note_on_c, 0, 61, 81
1, 57883, Note_off_c, 0, 53, 65
1, 57905, Note_off_c, 0, 61, 62
1, 57937, Note_on_c, 0, 73, 73
1, 57938, Note_off_c, 0, 65, 44
1, 57981, Note_on_c, 0, 80, 81
1, 57990, Note_off_c, 0, 73, 62
1, 58002, Note_off_c, 0, 80, 66
1, 58002, Control_c, 0, 64, 123
1, 58017, Control_c, 0, 64, 127
1, 58074, Note_on_c, 0, 77, 81
1, 58113, Note_off_c, 0, 77, 57
1, 58114, Note_on_c, 0, 85, 79
1, 58184, Note_off_c, 0, 85, 64
1, 58193, Note_on_c, 0, 92, 84
1, 58236, Note_off_c, 0, 92, 48
1, 58273, Note_on_c, 0, 85, 84
1, 58327, Note_on_c, 0, 77, 64
1, 58362, Note_off_c, 0, 85, 64
1, 58387, Note_on_c, 0, 80, 66
1, 58403, Note_off_c, 0, 77, 59
1, 58434, Note_off_c, 0, 80, 66
1, 58444, Note_on_c, 0, 73, 73
1, 58507, Note_on_c, 0, 65, 73
1, 58568, Note_on_c, 0, 68, 73
1, 58573, Note_off_c, 0, 65, 65
1, 58574, Note_off_c, 0, 73, 59
1, 58626, Note_off_c, 0, 68, 63
1, 58657, Note_on_c, 0, 61, 71
1, 58724, Note_on_c, 0, 53, 71
1, 58737, Note_off_c, 0, 61, 56
1, 58776, Note_on_c, 0, 56, 57
1, 58786, Note_off_c, 0, 53, 64
1, 58828, Note_off_c, 0, 56, 63
1, 58832, Note_on_c, 0, 49, 75
1, 58922, Note_on_c, 0, 41, 81
1, 58931, Note_off_c, 0, 49, 62
1, 58997, Note_on_c, 0, 49, 84
1, 59003, Note_off_c, 0, 41, 56
1, 59066, Note_on_c, 0, 37, 87
1, 59068, Note_on_c, 0, 25, 90
1, 59076, Note_off_c, 0, 49, 60
1, 59087, Note_off_c, 0, 37, 69
1, 59093, Note_off_c, 0, 25, 65
1, 59588, Note_on_c, 0, 85, 100
1, 59590, Note_on_c, 0, 97, 91
1, 59591, Note_on_c, 0, 73, 95
1, 59593, Note_on_c, 0, 61, 78
1, 59625, Note_off_c, 0, 73, 68
1, 59630, Note_off_c, 0, 85, 68
1, 59634, Note_off_c, 0, 97, 67
1, 59638, Note_off_c, 0, 61, 64
1, 60968, Control_c, 0, 64, 84
1, 60983, Control_c, 0, 64, 0
1, 62253, Note_on_c, 0, 45, 34
1, 62257, Note_on_c, 0, 57, 53
1, 62295, Note_off_c, 0, 57, 61
1, 62301, Note_off_c, 0, 45, 57
1, 62302, Note_on_c, 0, 58, 59
1, 62310, Note_on_c, 0, 46, 49
1, 62344, Note_on_c, 0, 61, 61
1, 62348, Note_off_c, 0, 58, 57
1, 62351, Note_on_c, 0, 49, 57
1, 62351, Note_off_c, 0, 46, 63
1, 62383, Note_off_c, 0, 49, 63
1, 62386, Note_off_c, 0, 61, 64
1, 62393, Note_on_c, 0, 65, 68
1, 62395, Note_on_c, 0, 53, 57
1, 62426, Note_off_c, 0, 53, 67
1, 62427, Note_off_c, 0, 65, 64
1, 62747, Note_on_c, 0, 57, 52
1, 62751, Note_on_c, 0, 45, 31
1, 62783, Note_off_c, 0, 57, 61
1, 62793, Note_on_c, 0, 58, 54
1, 62793, Note_off_c, 0, 45, 51
1, 62807, Note_on_c, 0, 46, 41
1, 62825, Note_on_c, 0, 49, 57
1, 62831, Note_on_c, 0, 61, 63
1, 62833, Note_off_c, 0, 58, 66
1, 62842, Note_off_c, 0, 46, 54
1, 62870, Note_off_c, 0, 49, 65
1, 62876, Note_off_c, 0, 61, 62
1, 62882, Note_on_c, 0, 53, 64
1, 62884, Note_on_c, 0, 65, 68
1, 62912, Note_off_c, 0, 53, 67
1, 62923, Note_off_c, 0, 65, 62
1, 63799, Note_on_c, 0, 58, 105
1, 63802, Note_on_c, 0, 34, 83
1, 63802, Note_on_c, 0, 46, 108
1, 63815, Control_c, 0, 64, 51
1, 63830, Control_c, 0, 64, 81
1, 63841, Note_off_c, 0, 58, 72
1, 63845, Control_c, 0, 64, 108
1, 63850, Note_off_c, 0, 46, 64
1, 63851, Note_off_c, 0, 34, 65
1, 63860, Control_c, 0, 64, 127
1, 64291, Note_on_c, 0, 82, 107
1, 64294, Note_on_c, 0, 90, 97
1, 64294, Note_on_c, 0, 94, 103
1, 64295, Note_on_c, 0, 70, 103
1, 64296, Note_on_c, 0, 58, 78
1, 64301, Note_on_c, 0, 66, 94
1, 64303, Note_on_c, 0, 63, 85
1, 64313, Note_on_c, 0, 60, 70
1, 64825, Note_off_c, 0, 58, 60
1, 64840, Note_off_c, 0, 60, 45
1, 64841, Note_off_c, 0, 94, 64
1, 64849, Note_off_c, 0, 70, 55
1, 64862, Note_off_c, 0, 82, 58
1, 64872, Note_off_c, 0, 90, 59
1, 64885, Note_off_c, 0, 63, 59
1, 64892, Note_off_c, 0, 66, 54
1, 65243, Note_on_c, 0, 70, 81
1, 65249, Note_on_c, 0, 58, 64
1, 65251, Note_on_c, 0, 75, 92
1, 65253, Note_on_c, 0, 66, 68
1, 65253, Note_on_c, 0, 87, 84
1, 65257, Note_on_c, 0, 84, 75
1, 65258, Note_on_c, 0, 63, 66
1, 65268, Note_on_c, 0, 60, 56
1, 65305, Note_off_c, 0, 70, 55
1, 65313, Note_off_c, 0, 60, 52
1, 65314, Note_off_c, 0, 58, 62
1, 65333, Note_off_c, 0, 75, 60
1, 65345, Note_off_c, 0, 63, 52
1, 65353, Note_off_c, 0, 87, 56
1, 65355, Note_off_c, 0, 66, 58
1, 65359, Note_off_c, 0, 84, 57
1, 65421, Note_on_c, 0, 84, 79
1, 65427, Note_on_c, 0, 77, 79
1, 65439, Note_on_c, 0, 70, 85
1, 65448, Note_off_c, 0, 77, 68
1, 65450, Note_on_c, 0, 66, 76
1, 65454, Note_on_c, 0, 63, 66
1, 65455, Note_on_c, 0, 58, 52
1, 65474, Note_off_c, 0, 84, 0
1, 65486, Note_on_c, 0, 78, 102
1, 65487, Note_on_c, 0, 84, 74
1, 65495, Note_on_c, 0, 90, 89
1, 65532, Poly_aftertouch_c, 0, 60, 127
1, 65548, Note_off_c, 0, 70, 51
1, 65562, Poly_aftertouch_c, 0, 60, 0
1, 65566, Note_off_c, 0, 63, 62
1, 65576, Note_off_c, 0, 90, 63
1, 65580, Note_off_c, 0, 78, 60
1, 65582, Note_off_c, 0, 84, 64
1, 65592, Note_off_c, 0, 66, 62
1, 65602, Poly_aftertouch_c, 0, 82, 0
1, 65621, Note_off_c, 0, 58, 0
1, 65645, Note_on_c, 0, 58, 24
1, 65653, Note_on_c, 0, 89, 87
1, 65653, Control_c, 0, 64, 100
1, 65659, Note_on_c, 0, 70, 85
1, 65659, Note_on_c, 0, 77, 98
1, 65661, Note_on_c, 0, 85, 103
1, 65662, Note_on_c, 0, 65, 78
1, 65668, Control_c, 0, 64, 71
1, 65676, Note_on_c, 0, 61, 70
1, 65683, Control_c, 0, 64, 0
1, 65696, Note_off_c, 0, 70, 64
1, 65698, Control_c, 0, 64, 38
1, 65705, Note_off_c, 0, 89, 64
1, 65712, Control_c, 0, 64, 70
1, 65717, Note_off_c, 0, 65, 66
1, 65724, Note_off_c, 0, 58, 64
1, 65727, Control_c, 0, 64, 83
1, 65727, Control_c, 0, 67, 16
1, 65734, Note_off_c, 0, 77, 62
1, 65740, Note_off_c, 0, 61, 63
1, 65740, Note_off_c, 0, 85, 62
1, 65742, Control_c, 0, 64, 103
1, 65742, Control_c, 0, 67, 52
1, 65756, Control_c, 0, 64, 125
1, 65756, Control_c, 0, 67, 104
1, 65771, Control_c, 0, 64, 127
1, 65771, Control_c, 0, 67, 127
1, 65786, Control_c, 0, 64, 125
1, 65801, Control_c, 0, 64, 103
1, 65816, Control_c, 0, 64, 82
1, 65830, Control_c, 0, 64, 51
1, 65845, Control_c, 0, 64, 0
1, 66065, Note_on_c, 0, 45, 35
1, 66079, Note_on_c, 0, 57, 45
1, 66104, Note_off_c, 0, 45, 54
1, 66104, Note_off_c, 0, 57, 57
1, 66107, Note_on_c, 0, 58, 56
1, 66127, Note_on_c, 0, 46, 36
1, 66152, Note_off_c, 0, 58, 58
1, 66154, Note_on_c, 0, 61, 54
1, 66161, Note_off_c, 0, 46, 55
1, 66171, Note_on_c, 0, 49, 14
1, 66194, Note_off_c, 0, 61, 64
1, 66197, Note_on_c, 0, 53, 55
1, 66212, Note_on_c, 0, 65, 53
1, 66215, Note_off_c, 0, 49, 36
1, 66234, Note_off_c, 0, 53, 64
1, 66251, Note_off_c, 0, 65, 65
1, 66521, Note_on_c, 0, 45, 37
1, 66522, Note_on_c, 0, 57, 42
1, 66566, Note_off_c, 0, 57, 60
1, 66573, Note_off_c, 0, 45, 58
1, 66578, Note_on_c, 0, 58, 45
1, 66588, Note_on_c, 0, 46, 40
1, 66612, Note_off_c, 0, 58, 54
1, 66614, Note_on_c, 0, 61, 52
1, 66628, Note_on_c, 0, 49, 45
1, 66632, Note_off_c, 0, 46, 49
1, 66653, Note_off_c, 0, 61, 63
1, 66668, Note_off_c, 0, 49, 59
1, 66673, Note_on_c, 0, 65, 57
1, 66686, Note_on_c, 0, 53, 53
1, 66719, Note_off_c, 0, 65, 62
1, 66729, Note_off_c, 0, 53, 66
1, 66899, Control_c, 0, 67, 117
1, 66913, Control_c, 0, 67, 86
1, 66928, Control_c, 0, 67, 48
1, 66943, Control_c, 0, 67, 9
1, 66958, Control_c, 0, 67, 0
1, 67542, Note_on_c, 0, 56, 107
1, 67546, Note_on_c, 0, 44, 98
1, 67548, Note_on_c, 0, 32, 82
1, 67559, Control_c, 0, 64, 68
1, 67574, Control_c, 0, 64, 92
1, 67584, Note_off_c, 0, 32, 66
1, 67589, Note_off_c, 0, 56, 70
1, 67589, Control_c, 0, 64, 127
1, 67601, Note_off_c, 0, 44, 64
1, 67892, Note_on_c, 0, 56, 63
1, 67912, Note_on_c, 0, 65, 74
1, 67952, Note_off_c, 0, 56, 61
1, 67991, Note_on_c, 0, 80, 100
1, 67995, Note_on_c, 0, 89, 91
1, 67996, Note_on_c, 0, 92, 102
1, 68003, Note_on_c, 0, 73, 99
1, 68021, Note_on_c, 0, 66, 61
1, 68040, Note_off_c, 0, 66, 53
1, 68355, Note_off_c, 0, 73, 55
1, 68417, Note_off_c, 0, 92, 60
1, 68426, Note_off_c, 0, 65, 54
1, 68438, Note_off_c, 0, 89, 63
1, 68445, Note_off_c, 0, 80, 55
1, 68768, Control_c, 0, 64, 100
1, 68781, Note_on_c, 0, 84, 76
1, 68782, Note_on_c, 0, 68, 79
1, 68782, Control_c, 0, 64, 79
1, 68785, Note_on_c, 0, 56, 68
1, 68785, Note_on_c, 0, 75, 87
1, 68785, Note_on_c, 0, 87, 83
1, 68787, Note_on_c, 0, 63, 69
1, 68789, Note_on_c, 0, 66, 73
1, 68797, Control_c, 0, 64, 53
1, 68812, Control_c, 0, 64, 0
1, 68827, Control_c, 0, 64, 39
1, 68842, Control_c, 0, 64, 65
1, 68856, Control_c, 0, 64, 73
1, 68868, Note_off_c, 0, 56, 58
1, 68871, Note_off_c, 0, 68, 61
1, 68871, Control_c, 0, 64, 83
1, 68886, Control_c, 0, 64, 91
1, 68890, Note_off_c, 0, 75, 63
1, 68892, Note_off_c, 0, 66, 63
1, 68897, Note_off_c, 0, 63, 60
1, 68900, Note_off_c, 0, 87, 61
1, 68901, Control_c, 0, 64, 95
1, 68915, Control_c, 0, 64, 95
1, 68921, Note_off_c, 0, 84, 56
1, 68930, Control_c, 0, 64, 96
1, 68963, Note_on_c, 0, 84, 58
1, 68968, Control_c, 0, 64, 96
1, 68970, Note_on_c, 0, 68, 86
1, 68972, Note_on_c, 0, 88, 77
1, 68974, Note_on_c, 0, 76, 78
1, 68975, Note_on_c, 0, 63, 62
1, 68976, Note_on_c, 0, 66, 63
1, 68977, Note_on_c, 0, 56, 66
1, 69000, Note_off_c, 0, 76, 64
1, 69014, Note_off_c, 0, 68, 62
1, 69016, Note_off_c, 0, 66, 67
1, 69017, Note_off_c, 0, 56, 56
1, 69023, Note_off_c, 0, 63, 61
1, 69023, Note_off_c, 0, 88, 62
1, 69026, Note_off_c, 0, 84, 65
1, 69066, Note_on_c, 0, 68, 81
1, 69067, Note_on_c, 0, 56, 52
1, 69069, Note_on_c, 0, 84, 74
1, 69070, Note_on_c, 0, 63, 59
1, 69073, Note_on_c, 0, 66, 70
1, 69074, Note_on_c, 0, 77, 88
1, 69096, Note_on_c, 0, 89, 34
1, 69108, Note_on_c, 0, 88, 29
1, 69112, Note_off_c, 0, 68, 64
1, 69115, Note_off_c, 0, 56, 59
1, 69115, Note_off_c, 0, 77, 57
1, 69121, Note_off_c, 0, 89, 51
1, 69125, Note_off_c, 0, 84, 66
1, 69127, Note_off_c, 0, 66, 64
1, 69133, Note_off_c, 0, 63, 63
1, 69146, Note_off_c, 0, 88, 30
1, 69146, Control_c, 0, 64, 97
1, 69161, Control_c, 0, 64, 99
1, 69168, Note_on_c, 0, 63, 57
1, 69172, Note_on_c, 0, 68, 89
1, 69176, Control_c, 0, 64, 102
1, 69177, Note_on_c, 0, 66, 64
1, 69180, Note_on_c, 0, 56, 59
1, 69183, Note_on_c, 0, 80, 101
1, 69190, Control_c, 0, 64, 106
1, 69191, Note_on_c, 0, 92, 81
1, 69195, Note_on_c, 0, 87, 74
1, 69205, Control_c, 0, 64, 108
1, 69209, Note_off_c, 0, 66, 60
1, 69209, Note_off_c, 0, 80, 65
1, 69210, Note_off_c, 0, 87, 68
1, 69211, Note_on_c, 0, 90, 46
1, 69211, Note_off_c, 0, 68, 62
1, 69213, Note_off_c, 0, 92, 68
1, 69220, Control_c, 0, 64, 108
1, 69231, Note_off_c, 0, 63, 62
1, 69235, Control_c, 0, 64, 109
1, 69236, Note_off_c, 0, 90, 55
1, 69259, Note_on_c, 0, 63, 51
1, 69262, Note_on_c, 0, 68, 81
1, 69264, Control_c, 0, 64, 109
1, 69274, Note_on_c, 0, 78, 102
1, 69277, Note_on_c, 0, 66, 61
1, 69279, Control_c, 0, 64, 110
1, 69283, Note_on_c, 0, 90, 90
1, 69294, Control_c, 0, 64, 110
1, 69297, Note_off_c, 0, 66, 67
1, 69303, Note_on_c, 0, 85, 51
1, 69307, Note_off_c, 0, 68, 62
1, 69309, Control_c, 0, 64, 111
1, 69313, Note_off_c, 0, 78, 59
1, 69316, Note_off_c, 0, 63, 63
1, 69324, Control_c, 0, 64, 112
1, 69325, Note_off_c, 0, 85, 61
1, 69327, Note_off_c, 0, 90, 63
1, 69339, Control_c, 0, 64, 113
1, 69353, Control_c, 0, 64, 112
1, 69359, Note_on_c, 0, 68, 96
1, 69361, Note_on_c, 0, 65, 85
1, 69363, Note_on_c, 0, 77, 105
1, 69366, Note_on_c, 0, 89, 89
1, 69368, Note_on_c, 0, 85, 94
1, 69368, Control_c, 0, 64, 96
1, 69369, Note_on_c, 0, 61, 72
1, 69371, Note_off_c, 0, 56, 59
1, 69383, Control_c, 0, 64, 72
1, 69398, Control_c, 0, 64, 0
1, 69413, Control_c, 0, 64, 34
1, 69413, Note_off_c, 0, 89, 64
1, 69416, Note_off_c, 0, 68, 65
1, 69427, Control_c, 0, 64, 75
1, 69431, Note_off_c, 0, 77, 60
1, 69433, Note_off_c, 0, 85, 68
1, 69434, Note_off_c, 0, 65, 66
1, 69437, Note_off_c, 0, 61, 60
1, 69442, Control_c, 0, 64, 96
1, 69457, Control_c, 0, 64, 127
1, 69516, Control_c, 0, 64, 110
1, 69532, Control_c, 0, 64, 76
1, 69547, Control_c, 0, 64, 0
1, 69738, Note_on_c, 0, 77, 89
1, 69740, Note_on_c, 0, 69, 103
1, 69741, Note_on_c, 0, 65, 97
1, 69743, Note_on_c, 0, 53, 76
1, 69745, Note_on_c, 0, 60, 81
1, 69762, Control_c, 0, 64, 78
1, 69770, Note_off_c, 0, 65, 68
1, 69777, Control_c, 0, 64, 104
1, 69782, Note_off_c, 0, 69, 69
1, 69783, Note_off_c, 0, 77, 64
1, 69789, Note_off_c, 0, 60, 65
1, 69792, Control_c, 0, 64, 127
1, 69795, Note_off_c, 0, 53, 65
1, 70093, Note_on_c, 0, 65, 89
1, 70096, Note_on_c, 0, 57, 98
1, 70099, Note_on_c, 0, 41, 77
1, 70099, Note_on_c, 0, 53, 99
1, 70109, Note_on_c, 0, 48, 88
1, 70122, Note_on_c, 0, 47, 44
1, 70126, Note_off_c, 0, 53, 66
1, 70143, Note_off_c, 0, 57, 67
1, 70143, Note_off_c, 0, 65, 66
1, 70151, Note_off_c, 0, 48, 64
1, 70155, Note_off_c, 0, 41, 66
1, 70158, Note_off_c, 0, 47, 53
1, 70510, Control_c, 0, 64, 118
1, 70525, Control_c, 0, 64, 92
1, 70526, Note_on_c, 0, 29, 97
1, 70527, Note_on_c, 0, 41, 101
1, 70540, Control_c, 0, 64, 69
1, 70555, Control_c, 0, 64, 0
1, 71676, Note_on_c, 0, 42, 103
1, 71680, Note_on_c, 0, 30, 88
1, 71705, Note_off_c, 0, 41, 52
1, 71709, Note_off_c, 0, 29, 59
1, 71736, Note_off_c, 0, 30, 67
1, 71742, Note_off_c, 0, 42, 67
1, 73218, Note_on_c, 0, 45, 37
1, 73223, Note_on_c, 0, 57, 44
1, 73251, Note_off_c, 0, 57, 52
1, 73254, Note_on_c, 0, 58, 55
1, 73263, Note_off_c, 0, 45, 60
1, 73278, Note_on_c, 0, 46, 38
1, 73285, Note_on_c, 0, 61, 54
1, 73295, Note_off_c, 0, 58, 62
1, 73301, Note_on_c, 0, 49, 42
1, 73307, Note_off_c, 0, 46, 55
1, 73322, Note_off_c, 0, 61, 63
1, 73328, Note_on_c, 0, 53, 57
1, 73329, Note_on_c, 0, 65, 66
1, 73333, Note_off_c, 0, 49, 45
1, 73357, Note_off_c, 0, 53, 68
1, 73365, Note_off_c, 0, 65, 62
1, 73687, Note_on_c, 0, 45, 39
1, 73687, Note_on_c, 0, 57, 39
1, 73714, Note_off_c, 0, 57, 53
1, 73721, Note_on_c, 0, 58, 51
1, 73726, Note_off_c, 0, 45, 58
1, 73753, Note_on_c, 0, 46, 26
1, 73759, Note_off_c, 0, 58, 65
1, 73760, Note_on_c, 0, 49, 52
1, 73760, Note_on_c, 0, 61, 55
1, 73781, Note_off_c, 0, 46, 48
1, 73796, Note_off_c, 0, 49, 62
1, 73796, Note_off_c, 0, 61, 63
1, 73805, Note_on_c, 0, 53, 63
1, 73805, Note_on_c, 0, 65, 61
1, 73833, Note_off_c, 0, 53, 68
1, 73838, Note_off_c, 0, 65, 67
1, 74675, Note_on_c, 0, 58, 102
1, 74677, Note_on_c, 0, 34, 79
1, 74678, Note_on_c, 0, 46, 99
1, 74699, Control_c, 0, 64, 69
1, 74714, Control_c, 0, 64, 88
1, 74716, Note_off_c, 0, 34, 66
1, 74716, Note_off_c, 0, 58, 71
1, 74725, Note_off_c, 0, 46, 64
1, 74728, Control_c, 0, 64, 118
1, 74743, Control_c, 0, 64, 127
1, 75165, Note_on_c, 0, 90, 81
1, 75166, Note_on_c, 0, 82, 99
1, 75167, Note_on_c, 0, 70, 94
1, 75169, Note_on_c, 0, 94, 103
1, 75170, Note_on_c, 0, 58, 76
1, 75172, Note_on_c, 0, 66, 88
1, 75176, Note_on_c, 0, 63, 80
1, 75183, Note_on_c, 0, 60, 72
1, 75488, Note_off_c, 0, 94, 63
1, 75493, Note_off_c, 0, 58, 55
1, 75509, Note_off_c, 0, 82, 56
1, 75513, Note_off_c, 0, 90, 61
1, 75527, Note_off_c, 0, 70, 56
1, 75535, Note_off_c, 0, 60, 49
1, 75551, Note_off_c, 0, 63, 55
1, 75563, Note_off_c, 0, 66, 54
1, 75749, Note_on_c, 0, 75, 91
1, 75754, Note_on_c, 0, 84, 74
1, 75754, Note_on_c, 0, 87, 74
1, 75756, Note_on_c, 0, 70, 90
1, 75762, Note_on_c, 0, 58, 60
1, 75762, Note_on_c, 0, 66, 75
1, 75769, Note_off_c, 0, 75, 71
1, 75771, Note_on_c, 0, 60, 62
1, 75771, Note_on_c, 0, 63, 66
1, 75776, Note_off_c, 0, 70, 67
1, 75777, Note_off_c, 0, 87, 69
1, 75780, Note_off_c, 0, 84, 67
1, 75792, Note_off_c, 0, 66, 62
1, 75799, Note_off_c, 0, 63, 66
1, 75808, Note_off_c, 0, 60, 0
1, 75818, Note_on_c, 0, 75, 100
1, 75821, Note_on_c, 0, 87, 84
1, 75822, Note_on_c, 0, 84, 84
1, 75824, Note_on_c, 0, 70, 87
1, 75825, Note_on_c, 0, 66, 72
1, 75845, Poly_aftertouch_c, 0, 60, 127
1, 75864, Note_off_c, 0, 58, 62
1, 75867, Note_off_c, 0, 70, 59
1, 75881, Poly_aftertouch_c, 0, 63, 0
1, 75888, Note_off_c, 0, 75, 61
1, 75900, Note_off_c, 0, 87, 57
1, 75901, Poly_aftertouch_c, 0, 60, 0
1, 75911, Note_off_c, 0, 66, 64
1, 75946, Note_off_c, 0, 84, 60
1, 75986, Note_on_c, 0, 70, 93
1, 75991, Note_on_c, 0, 66, 82
1, 75993, Note_on_c, 0, 58, 60
1, 75993, Note_on_c, 0, 75, 105
1, 75994, Note_on_c, 0, 60, 55
1, 75994, Note_on_c, 0, 84, 75
1, 75995, Note_on_c, 0, 87, 101
1, 75996, Note_on_c, 0, 63, 70
1, 76028, Note_off_c, 0, 58, 64
1, 76031, Note_off_c, 0, 70, 61
1, 76073, Note_off_c, 0, 60, 53
1, 76087, Note_off_c, 0, 75, 58
1, 76088, Note_off_c, 0, 66, 59
1, 76092, Note_off_c, 0, 63, 57
1, 76096, Note_off_c, 0, 87, 60
1, 76112, Note_off_c, 0, 84, 58
1, 76165, Note_on_c, 0, 84, 76
1, 76172, Note_on_c, 0, 77, 83
1, 76183, Note_on_c, 0, 70, 78
1, 76190, Note_off_c, 0, 77, 71
1, 76195, Note_on_c, 0, 66, 67
1, 76195, Note_on_c, 0, 63, 54
1, 76212, Note_off_c, 0, 84, 64
1, 76226, Note_off_c, 0, 70, 43
1, 76241, Note_on_c, 0, 78, 99
1, 76244, Note_on_c, 0, 84, 71
1, 76251, Note_on_c, 0, 90, 87
1, 76282, Note_off_c, 0, 63, 57
1, 76299, Note_off_c, 0, 66, 41
1, 76312, Poly_aftertouch_c, 0, 58, 127
1, 76324, Note_off_c, 0, 84, 65
1, 76326, Note_off_c, 0, 78, 61
1, 76326, Note_off_c, 0, 90, 62
1, 76374, Control_c, 0, 64, 123
1, 76389, Control_c, 0, 64, 90
1, 76394, Note_on_c, 0, 89, 86
1, 76399, Note_on_c, 0, 70, 87
1, 76399, Note_on_c, 0, 77, 100
1, 76399, Note_on_c, 0, 85, 94
1, 76401, Note_on_c, 0, 65, 76
1, 76404, Control_c, 0, 64, 0
1, 76409, Note_on_c, 0, 58, 3
1, 76415, Note_on_c, 0, 61, 67
1, 76432, Note_off_c, 0, 70, 65
1, 76433, Control_c, 0, 64, 43
1, 76433, Control_c, 0, 67, 8
1, 76436, Note_off_c, 0, 89, 64
1, 76456, Control_c, 0, 64, 67
1, 76456, Control_c, 0, 67, 23
1, 76461, Note_off_c, 0, 65, 64
1, 76469, Note_off_c, 0, 85, 66
1, 76471, Control_c, 0, 64, 77
1, 76471, Control_c, 0, 67, 56
1, 76472, Note_off_c, 0, 58, 62
1, 76480, Note_off_c, 0, 77, 63
1, 76486, Note_off_c, 0, 61, 62
1, 76486, Control_c, 0, 64, 91
1, 76486, Control_c, 0, 67, 120
1, 76500, Control_c, 0, 64, 102
1, 76500, Control_c, 0, 67, 127
1, 76515, Control_c, 0, 64, 103
1, 76530, Control_c, 0, 64, 102
1, 76545, Control_c, 0, 64, 92
1, 76560, Control_c, 0, 64, 75
1, 76574, Control_c, 0, 64, 0
1, 76789, Note_on_c, 0, 57, 38
1, 76815, Note_on_c, 0, 58, 54
1, 76817, Note_off_c, 0, 57, 48
1, 76832, Note_on_c, 0, 46, 40
1, 76854, Note_off_c, 0, 58, 62
1, 76856, Note_on_c, 0, 61, 47
1, 76884, Note_off_c, 0, 46, 60
1, 76893, Note_off_c, 0, 61, 63
1, 76900, Note_on_c, 0, 53, 50
1, 76904, Note_on_c, 0, 65, 62
1, 76940, Note_off_c, 0, 53, 64
1, 76946, Note_off_c, 0, 65, 61
1, 77248, Note_on_c, 0, 57, 42
1, 77251, Note_on_c, 0, 45, 30
1, 77284, Note_off_c, 0, 57, 60
1, 77287, Note_off_c, 0, 45, 53
1, 77297, Note_on_c, 0, 58, 42
1, 77321, Note_on_c, 0, 46, 18
1, 77330, Note_off_c, 0, 58, 53
1, 77332, Note_on_c, 0, 61, 50
1, 77338, Note_on_c, 0, 49, 38
1, 77363, Note_off_c, 0, 46, 46
1, 77374, Note_off_c, 0, 61, 64
1, 77377, Note_off_c, 0, 49, 49
1, 77396, Note_on_c, 0, 65, 55
1, 77397, Note_on_c, 0, 53, 45
1, 77440, Note_off_c, 0, 65, 64
1, 77451, Note_off_c, 0, 53, 60
1, 77500, Control_c, 0, 67, 108
1, 77515, Control_c, 0, 67, 78
1, 77530, Control_c, 0, 67, 39
1, 77545, Control_c, 0, 67, 0
1, 78274, Note_on_c, 0, 24, 84
1, 78277, Note_on_c, 0, 36, 96
1, 78278, Note_on_c, 0, 48, 106
1, 78308, Control_c, 0, 64, 73
1, 78319, Note_off_c, 0, 24, 63
1, 78323, Control_c, 0, 64, 99
1, 78331, Note_off_c, 0, 36, 65
1, 78334, Note_off_c, 0, 48, 69
1, 78338, Control_c, 0, 64, 119
1, 78353, Control_c, 0, 64, 120
1, 78368, Control_c, 0, 64, 123
1, 78383, Control_c, 0, 64, 126
1, 78396, Poly_aftertouch_c, 0, 27, 0
1, 78397, Control_c, 0, 64, 127
1, 78739, Note_on_c, 0, 60, 80
1, 78739, Note_on_c, 0, 68, 93
1, 78739, Note_on_c, 0, 84, 98
1, 78739, Note_on_c, 0, 96, 99
1, 78740, Note_on_c, 0, 92, 96
1, 78740, Note_on_c, 0, 72, 100
1, 78746, Note_on_c, 0, 65, 79
1, 79176, Note_off_c, 0, 60, 57
1, 79217, Note_off_c, 0, 96, 58
1, 79223, Note_off_c, 0, 65, 63
1, 79234, Note_off_c, 0, 84, 60
1, 79253, Note_off_c, 0, 68, 59
1, 79258, Note_off_c, 0, 72, 49
1, 79283, Note_off_c, 0, 92, 59
1, 79510, Control_c, 0, 64, 102
1, 79523, Note_on_c, 0, 85, 100
1, 79524, Control_c, 0, 64, 76
1, 79525, Note_on_c, 0, 70, 96
1, 79526, Note_on_c, 0, 91, 97
1, 79527, Note_on_c, 0, 60, 81
1, 79528, Note_on_c, 0, 72, 100
1, 79529, Note_on_c, 0, 97, 101
1, 79537, Note_on_c, 0, 64, 79
1, 79539, Control_c, 0, 64, 0
1, 79569, Control_c, 0, 64, 68
1, 79584, Control_c, 0, 64, 81
1, 79599, Control_c, 0, 64, 104
1, 79614, Control_c, 0, 64, 127
1, 79666, Note_off_c, 0, 60, 59
1, 79666, Note_off_c, 0, 97, 64
1, 79676, Note_off_c, 0, 85, 60
1, 79682, Note_off_c, 0, 72, 61
1, 79687, Note_off_c, 0, 64, 62
1, 79699, Note_off_c, 0, 70, 60
1, 79705, Note_off_c, 0, 91, 57
1, 79734, Note_on_c, 0, 91, 77
1, 79740, Note_on_c, 0, 96, 100
1, 79741, Note_on_c, 0, 84, 95
1, 79745, Note_on_c, 0, 70, 86
1, 79746, Note_on_c, 0, 72, 95
1, 79751, Note_on_c, 0, 60, 81
1, 79754, Note_on_c, 0, 64, 73
1, 79811, Note_off_c, 0, 96, 64
1, 79823, Note_off_c, 0, 91, 61
1, 79825, Note_off_c, 0, 84, 65
1, 79829, Note_off_c, 0, 72, 64
1, 79834, Note_off_c, 0, 60, 61
1, 79848, Note_off_c, 0, 64, 61
1, 79851, Note_off_c, 0, 70, 63
1, 79908, Note_on_c, 0, 77, 98
1, 79909, Note_on_c, 0, 70, 85
1, 79911, Note_on_c, 0, 89, 90
1, 79912, Note_on_c, 0, 60, 79
1, 79912, Note_on_c, 0, 72, 95
1, 79916, Note_on_c, 0, 64, 74
1, 79916, Note_on_c, 0, 84, 83
1, 79950, Note_off_c, 0, 77, 60
1, 79953, Note_off_c, 0, 72, 66
1, 79957, Note_off_c, 0, 89, 64
1, 79971, Note_off_c, 0, 84, 64
1, 79974, Note_off_c, 0, 64, 61
1, 79978, Note_off_c, 0, 70, 64
1, 80010, Note_on_c, 0, 70, 80
1, 80019, Note_on_c, 0, 72, 92
1, 80023, Note_on_c, 0, 84, 97
1, 80026, Note_on_c, 0, 79, 89
1, 80029, Note_on_c, 0, 91, 86
1, 80036, Note_on_c, 0, 64, 39
1, 80067, Note_off_c, 0, 64, 53
1, 80071, Note_off_c, 0, 91, 60
1, 80074, Note_off_c, 0, 79, 59
1, 80076, Note_off_c, 0, 60, 58
1, 80085, Note_off_c, 0, 72, 62
1, 80094, Note_off_c, 0, 70, 63
1, 80122, Note_off_c, 0, 84, 59
1, 80147, Control_c, 0, 64, 107
1, 80162, Control_c, 0, 64, 78
1, 80167, Note_on_c, 0, 68, 92
1, 80167, Note_on_c, 0, 84, 81
1, 80169, Note_on_c, 0, 72, 100
1, 80169, Note_on_c, 0, 80, 112
1, 80173, Note_on_c, 0, 65, 72
1, 80173, Note_on_c, 0, 92, 95
1, 80177, Control_c, 0, 64, 0
1, 80200, Control_c, 0, 64, 32
1, 80215, Note_on_c, 0, 90, 43
1, 80216, Note_off_c, 0, 90, 127
1, 80216, Control_c, 0, 64, 76
1, 80221, Note_off_c, 0, 72, 66
1, 80225, Note_off_c, 0, 92, 66
1, 80229, Control_c, 0, 64, 100
1, 80239, Note_off_c, 0, 65, 66
1, 80243, Note_off_c, 0, 80, 65
1, 80244, Note_on_c, 0, 66, 3
1, 80245, Note_off_c, 0, 66, 127
1, 80245, Control_c, 0, 64, 127
1, 80248, Note_off_c, 0, 68, 63
1, 80258, Note_off_c, 0, 84, 66
1, 80318, Control_c, 0, 64, 96
1, 80333, Control_c, 0, 64, 65
1, 80347, Control_c, 0, 64, 0
1, 80549, Note_on_c, 0, 68, 108
1, 80550, Note_on_c, 0, 80, 91
1, 80553, Note_on_c, 0, 53, 77
1, 80554, Note_on_c, 0, 65, 95
1, 80555, Control_c, 0, 64, 59
1, 80556, Note_on_c, 0, 60, 82
1, 80556, Note_on_c, 0, 72, 95
1, 80558, Note_on_c, 0, 77, 88
1, 80570, Control_c, 0, 64, 88
1, 80585, Control_c, 0, 64, 127
1, 80588, Note_off_c, 0, 65, 68
1, 80599, Note_off_c, 0, 80, 66
1, 80601, Note_off_c, 0, 68, 65
1, 80606, Note_off_c, 0, 60, 64
1, 80609, Note_off_c, 0, 53, 66
1, 80612, Note_off_c, 0, 77, 64
1, 80617, Note_off_c, 0, 72, 64
1, 80913, Note_on_c, 0, 68, 89
1, 80915, Note_on_c, 0, 56, 99
1, 80919, Note_on_c, 0, 41, 76
1, 80921, Note_on_c, 0, 48, 87
1, 80922, Note_on_c, 0, 53, 98
1, 80924, Note_on_c, 0, 60, 81
1, 80924, Note_on_c, 0, 65, 82
1, 80965, Note_off_c, 0, 53, 67
1, 80975, Note_off_c, 0, 68, 65
1, 80982, Note_off_c, 0, 56, 66
1, 80986, Note_off_c, 0, 65, 66
1, 80987, Note_off_c, 0, 60, 59
1, 80988, Note_off_c, 0, 48, 65
1, 80988, Note_off_c, 0, 41, 66
1, 81314, Note_on_c, 0, 28, 97
1, 81318, Note_on_c, 0, 40, 110
1, 81319, Control_c, 0, 64, 103
1, 81334, Control_c, 0, 64, 78
1, 81349, Control_c, 0, 64, 0
1, 81801, Control_c, 0, 64, 62
1, 81816, Control_c, 0, 64, 69
1, 81831, Control_c, 0, 64, 76
1, 81845, Control_c, 0, 64, 85
1, 81860, Control_c, 0, 64, 92
1, 81875, Control_c, 0, 64, 96
1, 81890, Control_c, 0, 64, 98
1, 81905, Control_c, 0, 64, 101
1, 81919, Control_c, 0, 64, 103
1, 81934, Control_c, 0, 64, 105
1, 81947, Note_off_c, 0, 40, 54
1, 81949, Control_c, 0, 64, 106
1, 81979, Control_c, 0, 64, 106
1, 82054, Note_off_c, 0, 28, 55
1, 82067, Control_c, 0, 64, 106
1, 82082, Control_c, 0, 64, 100
1, 82097, Control_c, 0, 64, 85
1, 82110, Note_on_c, 0, 41, 91
1, 82112, Control_c, 0, 64, 65
1, 82115, Note_on_c, 0, 29, 89
1, 82127, Control_c, 0, 64, 0
1, 82156, Control_c, 0, 64, 63
1, 82171, Control_c, 0, 64, 72
1, 82186, Control_c, 0, 64, 84
1, 82201, Control_c, 0, 64, 96
1, 82216, Control_c, 0, 64, 102
1, 82231, Control_c, 0, 64, 104
1, 82245, Note_off_c, 0, 29, 59
1, 82290, Control_c, 0, 64, 100
1, 82305, Control_c, 0, 64, 84
1, 82306, Note_on_c, 0, 26, 91
1, 82308, Note_on_c, 0, 38, 88
1, 82320, Control_c, 0, 64, 56
1, 82335, Control_c, 0, 64, 0
1, 82345, Note_off_c, 0, 41, 59
1, 82380, Control_c, 0, 64, 57
1, 82395, Control_c, 0, 64, 70
1, 82410, Control_c, 0, 64, 81
1, 82424, Control_c, 0, 64, 94
1, 82446, Note_on_c, 0, 27, 96
1, 82446, Control_c, 0, 64, 103
1, 82457, Note_on_c, 0, 39, 88
1, 82460, Note_off_c, 0, 26, 62
1, 82460, Control_c, 0, 64, 106
1, 82475, Control_c, 0, 64, 106
1, 82482, Note_off_c, 0, 38, 60
1, 82490, Control_c, 0, 64, 107
1, 82505, Control_c, 0, 64, 108
1, 82520, Control_c, 0, 64, 109
1, 82565, Control_c, 0, 64, 109
1, 82570, Note_on_c, 0, 41, 82
1, 82572, Note_on_c, 0, 29, 84
1, 82572, Note_off_c, 0, 39, 62
1, 82588, Note_off_c, 0, 27, 63
1, 82595, Control_c, 0, 64, 110
1, 82639, Control_c, 0, 64, 110
1, 82650, Note_off_c, 0, 41, 67
1, 82657, Note_on_c, 0, 27, 80
1, 82658, Note_on_c, 0, 39, 69
1, 82665, Note_off_c, 0, 29, 59
1, 82703, Note_on_c, 0, 41, 60
1, 82709, Note_off_c, 0, 39, 61
1, 82756, Note_off_c, 0, 27, 64
1, 82758, Note_off_c, 0, 41, 65
1, 82759, Note_on_c, 0, 29, 77
1, 82767, Note_on_c, 0, 39, 61
1, 82809, Note_on_c, 0, 41, 67
1, 82812, Note_off_c, 0, 39, 62
1, 82853, Note_on_c, 0, 27, 81
1, 82870, Note_on_c, 0, 39, 74
1, 82872, Note_off_c, 0, 29, 61
1, 82878, Note_off_c, 0, 41, 65
1, 82930, Note_off_c, 0, 27, 63
1, 82960, Note_off_c, 0, 39, 60
1, 82979, Control_c, 0, 64, 107
1, 82994, Control_c, 0, 64, 93
1, 83001, Note_on_c, 0, 38, 95
1, 83004, Note_on_c, 0, 26, 89
1, 83009, Control_c, 0, 64, 69
1, 83024, Control_c, 0, 64, 0
1, 83039, Control_c, 0, 64, 30
1, 83054, Control_c, 0, 64, 65
1, 83068, Control_c, 0, 64, 75
1, 83083, Control_c, 0, 64, 89
1, 83098, Control_c, 0, 64, 104
1, 83104, Note_off_c, 0, 26, 62
1, 83113, Control_c, 0, 64, 108
1, 83118, Note_off_c, 0, 38, 58
1, 83143, Control_c, 0, 64, 106
1, 83158, Control_c, 0, 64, 94
1, 83173, Control_c, 0, 64, 77
1, 83195, Control_c, 0, 64, 61
1, 83210, Control_c, 0, 64, 61
1, 83225, Control_c, 0, 64, 71
1, 83239, Control_c, 0, 64, 83
1, 83249, Note_on_c, 0, 39, 80
1, 83251, Note_on_c, 0, 37, 77
1, 83254, Control_c, 0, 64, 100
1, 83258, Note_on_c, 0, 27, 67
1, 83269, Control_c, 0, 64, 127
1, 83287, Note_on_c, 0, 26, 37
1, 83304, Note_off_c, 0, 27, 56
1, 83317, Note_off_c, 0, 26, 59
1, 83325, Note_off_c, 0, 39, 54
1, 83331, Note_off_c, 0, 37, 58
1, 83460, Note_on_c, 0, 25, 83
1, 83462, Control_c, 0, 64, 89
1, 83465, Note_on_c, 0, 37, 97
1, 83466, Note_on_c, 0, 101, 106
1, 83477, Control_c, 0, 64, 60
1, 83491, Control_c, 0, 64, 0
1, 83525, Note_off_c, 0, 25, 64
1, 83536, Control_c, 0, 64, 65
1, 83537, Note_off_c, 0, 37, 66
1, 83551, Control_c, 0, 64, 81
1, 83565, Control_c, 0, 64, 103
1, 83580, Control_c, 0, 64, 127
1, 83765, Note_on_c, 0, 56, 85
1, 83807, Note_off_c, 0, 56, 61
1, 83892, Note_on_c, 0, 61, 95
1, 83901, Note_on_c, 0, 53, 82
1, 83923, Note_off_c, 0, 61, 57
1, 83935, Note_off_c, 0, 53, 67
1, 83946, Note_off_c, 0, 101, 56
1, 83990, Note_on_c, 0, 92, 27
1, 84025, Note_off_c, 0, 92, 41
1, 84066, Note_on_c, 0, 99, 78
1, 84109, Note_on_c, 0, 97, 78
1, 84121, Note_on_c, 0, 56, 74
1, 84135, Note_on_c, 0, 44, 51
1, 84155, Note_off_c, 0, 99, 68
1, 84156, Note_off_c, 0, 56, 62
1, 84163, Note_on_c, 0, 92, 77
1, 84164, Note_off_c, 0, 44, 63
1, 84183, Note_off_c, 0, 97, 65
1, 84213, Note_off_c, 0, 92, 67
1, 84216, Note_on_c, 0, 89, 77
1, 84270, Note_on_c, 0, 61, 72
1, 84272, Note_off_c, 0, 89, 63
1, 84274, Note_on_c, 0, 53, 65
1, 84293, Note_on_c, 0, 87, 81
1, 84315, Note_off_c, 0, 61, 61
1, 84316, Note_off_c, 0, 53, 58
1, 84347, Note_on_c, 0, 85, 70
1, 84371, Note_off_c, 0, 87, 64
1, 84395, Note_on_c, 0, 80, 82
1, 84398, Note_off_c, 0, 85, 66
1, 84434, Note_off_c, 0, 80, 64
1, 84451, Note_on_c, 0, 77, 77
1, 84518, Note_off_c, 0, 77, 60
1, 84523, Note_on_c, 0, 75, 78
1, 84577, Note_on_c, 0, 73, 69
1, 84606, Note_off_c, 0, 75, 64
1, 84645, Note_off_c, 0, 73, 65
1, 84648, Note_on_c, 0, 68, 79
1, 84691, Note_off_c, 0, 68, 63
1, 84767, Control_c, 0, 64, 105
1, 84782, Control_c, 0, 64, 80
1, 84797, Control_c, 0, 64, 0
1, 85084, Note_on_c, 0, 32, 40
1, 85098, Note_on_c, 0, 72, 56
1, 85100, Note_on_c, 0, 44, 36
1, 85161, Note_off_c, 0, 72, 64
1, 85169, Note_on_c, 0, 73, 58
1, 85181, Control_c, 0, 64, 56
1, 85196, Control_c, 0, 64, 68
1, 85211, Control_c, 0, 64, 79
1, 85224, Note_on_c, 0, 75, 69
1, 85226, Control_c, 0, 64, 87
1, 85227, Note_off_c, 0, 32, 53
1, 85230, Note_off_c, 0, 73, 62
1, 85241, Control_c, 0, 64, 87
1, 85248, Note_off_c, 0, 75, 73
1, 85254, Note_off_c, 0, 44, 57
1, 85301, Note_on_c, 0, 77, 66
1, 85340, Note_off_c, 0, 77, 60
1, 85349, Note_on_c, 0, 78, 75
1, 85373, Control_c, 0, 64, 85
1, 85388, Control_c, 0, 64, 77
1, 85400, Note_on_c, 0, 80, 59
1, 85403, Control_c, 0, 64, 57
1, 85406, Note_off_c, 0, 78, 63
1, 85418, Control_c, 0, 64, 0
1, 85462, Note_on_c, 0, 81, 67
1, 85469, Note_off_c, 0, 80, 52
1, 85473, Note_on_c, 0, 60, 57
1, 85482, Note_on_c, 0, 55, 42
1, 85493, Note_on_c, 0, 66, 50
1, 85527, Note_off_c, 0, 66, 56
1, 85535, Note_off_c, 0, 55, 54
1, 85596, Note_on_c, 0, 66, 56
1, 85598, Note_on_c, 0, 56, 55
1, 85616, Note_off_c, 0, 81, 61
1, 85621, Note_off_c, 0, 66, 62
1, 85638, Note_off_c, 0, 56, 61
1, 85647, Note_off_c, 0, 60, 59
1, 85722, Note_on_c, 0, 66, 56
1, 85741, Note_on_c, 0, 56, 44
1, 85749, Note_off_c, 0, 66, 62
1, 85771, Note_off_c, 0, 56, 56
1, 85850, Note_on_c, 0, 81, 64
1, 85918, Note_on_c, 0, 80, 75
1, 85937, Note_off_c, 0, 81, 62
1, 85957, Note_off_c, 0, 80, 64
1, 85972, Note_on_c, 0, 79, 73
1, 86023, Note_off_c, 0, 79, 60
1, 86026, Note_on_c, 0, 78, 77
1, 86072, Note_off_c, 0, 78, 60
1, 86087, Note_on_c, 0, 77, 73
1, 86149, Note_on_c, 0, 76, 64
1, 86160, Note_off_c, 0, 77, 54
1, 86210, Note_on_c, 0, 75, 73
1, 86213, Note_on_c, 0, 66, 62
1, 86219, Note_on_c, 0, 60, 59
1, 86221, Note_off_c, 0, 76, 60
1, 86225, Note_on_c, 0, 57, 44
1, 86249, Control_c, 0, 64, 65
1, 86259, Note_off_c, 0, 66, 61
1, 86262, Note_off_c, 0, 57, 63
1, 86263, Note_off_c, 0, 75, 68
1, 86264, Control_c, 0, 64, 74
1, 86278, Control_c, 0, 64, 83
1, 86282, Note_off_c, 0, 60, 58
1, 86293, Control_c, 0, 64, 92
1, 86309, Control_c, 0, 64, 104
1, 86324, Control_c, 0, 64, 116
1, 86339, Control_c, 0, 64, 127
1, 86358, Note_on_c, 0, 66, 69
1, 86361, Note_on_c, 0, 56, 49
1, 86365, Note_on_c, 0, 60, 50
1, 86393, Note_off_c, 0, 56, 57
1, 86401, Note_off_c, 0, 66, 54
1, 86416, Note_off_c, 0, 60, 55
1, 86496, Note_on_c, 0, 56, 66
1, 86500, Note_on_c, 0, 66, 72
1, 86516, Note_off_c, 0, 66, 70
1, 86544, Note_off_c, 0, 56, 65
1, 86634, Control_c, 0, 64, 110
1, 86649, Control_c, 0, 64, 73
1, 86658, Note_on_c, 0, 101, 105
1, 86664, Control_c, 0, 64, 0
1, 86666, Note_on_c, 0, 37, 103
1, 86675, Note_on_c, 0, 25, 94
1, 86694, Control_c, 0, 64, 48
1, 86696, Note_off_c, 0, 25, 66
1, 86708, Control_c, 0, 64, 67
1, 86711, Note_on_c, 0, 95, 20
1, 86718, Note_off_c, 0, 37, 64
1, 86723, Control_c, 0, 64, 79
1, 86738, Control_c, 0, 64, 96
1, 86753, Note_off_c, 0, 95, 36
1, 86753, Control_c, 0, 64, 104
1, 86768, Control_c, 0, 64, 107
1, 86783, Control_c, 0, 64, 109
1, 86783, Poly_aftertouch_c, 0, 27, 0
1, 86798, Control_c, 0, 64, 111
1, 86813, Control_c, 0, 64, 112
1, 86827, Control_c, 0, 64, 114
1, 86842, Control_c, 0, 64, 115
1, 86872, Control_c, 0, 64, 116
1, 86901, Control_c, 0, 64, 117
1, 86916, Control_c, 0, 64, 119
1, 86933, Note_on_c, 0, 56, 86
1, 86938, Control_c, 0, 64, 125
1, 86953, Control_c, 0, 64, 127
1, 86970, Note_on_c, 0, 44, 30
1, 86974, Note_off_c, 0, 56, 58
1, 87012, Note_off_c, 0, 44, 43
1, 87072, Note_on_c, 0, 61, 86
1, 87073, Note_on_c, 0, 53, 81
1, 87099, Note_off_c, 0, 61, 57
1, 87107, Note_off_c, 0, 53, 61
1, 87109, Note_off_c, 0, 101, 49
1, 87229, Note_on_c, 0, 99, 81
1, 87275, Note_on_c, 0, 97, 79
1, 87284, Note_on_c, 0, 56, 73
1, 87294, Note_on_c, 0, 44, 57
1, 87317, Note_off_c, 0, 56, 60
1, 87317, Note_off_c, 0, 99, 68
1, 87321, Note_on_c, 0, 92, 78
1, 87327, Note_off_c, 0, 44, 63
1, 87351, Note_off_c, 0, 97, 65
1, 87375, Note_off_c, 0, 92, 67
1, 87380, Note_on_c, 0, 89, 80
1, 87434, Note_off_c, 0, 89, 64
1, 87436, Note_on_c, 0, 61, 72
1, 87442, Note_on_c, 0, 53, 62
1, 87458, Note_on_c, 0, 87, 80
1, 87505, Note_off_c, 0, 61, 59
1, 87517, Note_on_c, 0, 85, 71
1, 87546, Note_off_c, 0, 87, 63
1, 87555, Note_on_c, 0, 80, 77
1, 87564, Note_off_c, 0, 85, 67
1, 87585, Note_off_c, 0, 53, 38
1, 87598, Note_off_c, 0, 80, 65
1, 87615, Note_on_c, 0, 77, 76
1, 87690, Note_off_c, 0, 77, 62
1, 87694, Note_on_c, 0, 75, 75
1, 87760, Note_on_c, 0, 74, 64
1, 87802, Note_off_c, 0, 75, 63
1, 87832, Note_on_c, 0, 68, 79
1, 87838, Note_off_c, 0, 74, 64
1, 87887, Note_off_c, 0, 68, 62
1, 87925, Control_c, 0, 64, 105
1, 87940, Control_c, 0, 64, 82
1, 87954, Control_c, 0, 64, 50
1, 87969, Control_c, 0, 64, 0
1, 88230, Note_on_c, 0, 51, 39
1, 88240, Note_on_c, 0, 44, 36
1, 88241, Note_on_c, 0, 54, 37
1, 88263, Note_on_c, 0, 72, 56
1, 88280, Control_c, 0, 64, 28
1, 88295, Control_c, 0, 64, 61
1, 88310, Control_c, 0, 64, 66
1, 88325, Control_c, 0, 64, 69
1, 88340, Control_c, 0, 64, 73
1, 88342, Note_off_c, 0, 72, 64
1, 88345, Note_on_c, 0, 73, 65
1, 88354, Control_c, 0, 64, 77
1, 88368, Note_off_c, 0, 44, 56
1, 88369, Control_c, 0, 64, 78
1, 88395, Note_off_c, 0, 51, 61
1, 88398, Control_c, 0, 64, 76
1, 88403, Note_off_c, 0, 54, 55
1, 88410, Note_on_c, 0, 75, 70
1, 88413, Note_off_c, 0, 73, 63
1, 88413, Control_c, 0, 64, 69
1, 88436, Control_c, 0, 64, 40
1, 88443, Note_off_c, 0, 75, 70
1, 88451, Control_c, 0, 64, 0
1, 88487, Note_on_c, 0, 77, 71
1, 88536, Note_off_c, 0, 77, 61
1, 88543, Note_on_c, 0, 78, 77
1, 88595, Note_on_c, 0, 80, 65
1, 88609, Note_off_c, 0, 78, 61
1, 88645, Note_on_c, 0, 60, 49
1, 88647, Note_on_c, 0, 81, 71
1, 88658, Note_off_c, 0, 80, 63
1, 88717, Note_off_c, 0, 60, 62
1, 88719, Control_c, 0, 64, 21
1, 88721, Note_on_c, 0, 61, 59
1, 88734, Control_c, 0, 64, 63
1, 88745, Note_on_c, 0, 63, 67
1, 88749, Control_c, 0, 64, 69
1, 88764, Control_c, 0, 64, 74
1, 88776, Note_off_c, 0, 61, 60
1, 88778, Control_c, 0, 64, 77
1, 88793, Control_c, 0, 64, 78
1, 88798, Note_off_c, 0, 63, 65
1, 88809, Note_off_c, 0, 81, 59
1, 88818, Note_on_c, 0, 65, 72
1, 88837, Control_c, 0, 64, 77
1, 88867, Control_c, 0, 64, 77
1, 88872, Note_on_c, 0, 66, 76
1, 88873, Note_off_c, 0, 65, 64
1, 88897, Control_c, 0, 64, 76
1, 88926, Control_c, 0, 64, 75
1, 88936, Note_off_c, 0, 66, 66
1, 88938, Note_on_c, 0, 68, 72
1, 88941, Control_c, 0, 64, 73
1, 88956, Control_c, 0, 64, 68
1, 88971, Control_c, 0, 64, 45
1, 88986, Control_c, 0, 64, 0
1, 88992, Note_off_c, 0, 68, 63
1, 89003, Note_on_c, 0, 69, 73
1, 89012, Note_on_c, 0, 81, 64
1, 89060, Control_c, 0, 64, 48
1, 89075, Control_c, 0, 64, 65
1, 89078, Note_off_c, 0, 69, 65
1, 89084, Note_on_c, 0, 80, 75
1, 89090, Control_c, 0, 64, 70
1, 89104, Control_c, 0, 64, 74
1, 89112, Note_off_c, 0, 81, 61
1, 89119, Control_c, 0, 64, 77
1, 89136, Note_off_c, 0, 80, 63
1, 89142, Note_on_c, 0, 79, 78
1, 89203, Note_on_c, 0, 78, 86
1, 89203, Note_off_c, 0, 79, 61
1, 89215, Control_c, 0, 64, 77
1, 89230, Control_c, 0, 64, 76
1, 89245, Control_c, 0, 64, 74
1, 89251, Note_off_c, 0, 78, 56
1, 89258, Control_c, 0, 64, 72
1, 89273, Control_c, 0, 64, 69
1, 89274, Note_on_c, 0, 77, 78
1, 89288, Control_c, 0, 64, 65
1, 89302, Control_c, 0, 64, 63
1, 89317, Control_c, 0, 64, 60
1, 89328, Note_on_c, 0, 76, 73
1, 89332, Control_c, 0, 64, 45
1, 89335, Note_off_c, 0, 77, 58
1, 89346, Control_c, 0, 64, 0
1, 89391, Note_on_c, 0, 57, 58
1, 89391, Note_on_c, 0, 75, 72
1, 89395, Note_off_c, 0, 76, 60
1, 89454, Note_off_c, 0, 57, 60
1, 89466, Note_on_c, 0, 56, 65
1, 89466, Control_c, 0, 64, 51
1, 89480, Control_c, 0, 64, 65
1, 89495, Control_c, 0, 64, 68
1, 89511, Control_c, 0, 64, 71
1, 89525, Control_c, 0, 64, 74
1, 89532, Note_off_c, 0, 56, 62
1, 89540, Control_c, 0, 64, 75
1, 89552, Note_on_c, 0, 55, 69
1, 89555, Control_c, 0, 64, 76
1, 89585, Control_c, 0, 64, 76
1, 89600, Control_c, 0, 64, 77
1, 89615, Control_c, 0, 64, 78
1, 89617, Note_off_c, 0, 75, 60
1, 89620, Note_off_c, 0, 55, 60
1, 89630, Control_c, 0, 64, 79
1, 89643, Note_on_c, 0, 54, 75
1, 89644, Control_c, 0, 64, 79
1, 89659, Control_c, 0, 64, 80
1, 89704, Control_c, 0, 64, 80
1, 89717, Note_off_c, 0, 54, 62
1, 89733, Control_c, 0, 64, 81
1, 89734, Note_on_c, 0, 53, 71
1, 89748, Control_c, 0, 64, 81
1, 89820, Note_off_c, 0, 53, 58
1, 89826, Note_on_c, 0, 51, 77
1, 89837, Control_c, 0, 64, 82
1, 89899, Note_off_c, 0, 51, 60
1, 89933, Control_c, 0, 64, 81
1, 89977, Control_c, 0, 64, 81
1, 89992, Control_c, 0, 64, 80
1, 90007, Control_c, 0, 64, 80
1, 90022, Control_c, 0, 64, 78
1, 90037, Control_c, 0, 64, 74
1, 90039, Note_on_c, 0, 49, 59
1, 90051, Control_c, 0, 64, 64
1, 90066, Control_c, 0, 64, 0
1, 90095, Note_on_c, 0, 77, 79
1, 90104, Note_on_c, 0, 71, 72
1, 90169, Control_c, 0, 64, 58
1, 90179, Note_off_c, 0, 49, 60
1, 90184, Control_c, 0, 64, 67
1, 90190, Note_on_c, 0, 56, 54
1, 90199, Control_c, 0, 64, 71
1, 90214, Control_c, 0, 64, 76
1, 90229, Control_c, 0, 64, 80
1, 90244, Control_c, 0, 64, 83
1, 90258, Control_c, 0, 64, 84
1, 90273, Control_c, 0, 64, 85
1, 90288, Control_c, 0, 64, 87
1, 90290, Note_off_c, 0, 56, 59
1, 90291, Note_on_c, 0, 61, 62
1, 90304, Control_c, 0, 64, 87
1, 90319, Control_c, 0, 64, 88
1, 90334, Control_c, 0, 64, 88
1, 90342, Note_off_c, 0, 61, 61
1, 90363, Control_c, 0, 64, 89
1, 90370, Note_on_c, 0, 65, 62
1, 90428, Note_off_c, 0, 65, 63
1, 90437, Note_on_c, 0, 61, 56
1, 90491, Note_off_c, 0, 61, 63
1, 90497, Note_on_c, 0, 56, 65
1, 90554, Note_off_c, 0, 56, 57
1, 90569, Note_on_c, 0, 49, 68
1, 90603, Note_off_c, 0, 49, 63
1, 90697, Note_on_c, 0, 59, 51
1, 90754, Note_off_c, 0, 59, 53
1, 90767, Note_on_c, 0, 61, 46
1, 90772, Note_on_c, 0, 75, 79
1, 90827, Note_off_c, 0, 71, 57
1, 90832, Note_on_c, 0, 65, 44
1, 90836, Note_off_c, 0, 77, 37
1, 90852, Note_off_c, 0, 61, 0
1, 90870, Note_on_c, 0, 61, 33
1, 90873, Note_off_c, 0, 65, 52
1, 90931, Note_off_c, 0, 61, 55
1, 90961, Note_on_c, 0, 59, 45
1, 91009, Note_on_c, 0, 73, 74
1, 91016, Note_off_c, 0, 75, 63
1, 91022, Control_c, 0, 64, 88
1, 91052, Control_c, 0, 64, 88
1, 91063, Note_off_c, 0, 73, 62
1, 91065, Note_off_c, 0, 59, 51
1, 91066, Control_c, 0, 64, 87
1, 91081, Control_c, 0, 64, 86
1, 91087, Note_on_c, 0, 54, 58
1, 91097, Control_c, 0, 64, 81
1, 91112, Control_c, 0, 64, 70
1, 91119, Note_on_c, 0, 73, 68
1, 91127, Note_on_c, 0, 71, 64
1, 91127, Control_c, 0, 64, 0
1, 91169, Note_off_c, 0, 54, 61
1, 91186, Control_c, 0, 64, 53
1, 91193, Note_on_c, 0, 59, 54
1, 91201, Control_c, 0, 64, 64
1, 91215, Control_c, 0, 64, 69
1, 91230, Control_c, 0, 64, 76
1, 91245, Control_c, 0, 64, 81
1, 91260, Note_on_c, 0, 61, 63
1, 91260, Control_c, 0, 64, 84
1, 91266, Note_off_c, 0, 59, 56
1, 91275, Control_c, 0, 64, 84
1, 91288, Note_off_c, 0, 71, 53
1, 91305, Control_c, 0, 64, 85
1, 91314, Note_off_c, 0, 61, 57
1, 91320, Control_c, 0, 64, 85
1, 91335, Control_c, 0, 64, 86
1, 91337, Note_on_c, 0, 66, 62
1, 91349, Control_c, 0, 64, 87
1, 91350, Note_off_c, 0, 73, 62
1, 91364, Control_c, 0, 64, 87
1, 91390, Note_on_c, 0, 61, 49
1, 91397, Note_off_c, 0, 66, 62
1, 91457, Note_on_c, 0, 59, 63
1, 91469, Note_off_c, 0, 61, 59
1, 91490, Control_c, 0, 64, 87
1, 91511, Note_off_c, 0, 59, 60
1, 91519, Control_c, 0, 64, 86
1, 91534, Control_c, 0, 64, 86
1, 91564, Control_c, 0, 64, 85
1, 91579, Control_c, 0, 64, 84
1, 91594, Control_c, 0, 64, 81
1, 91609, Control_c, 0, 64, 72
1, 91614, Note_on_c, 0, 49, 63
1, 91623, Control_c, 0, 64, 0
1, 91654, Note_on_c, 0, 78, 86
1, 91658, Note_on_c, 0, 70, 78
1, 91668, Control_c, 0, 64, 55
1, 91683, Control_c, 0, 64, 64
1, 91695, Note_off_c, 0, 49, 59
1, 91697, Control_c, 0, 64, 68
1, 91712, Control_c, 0, 64, 75
1, 91727, Control_c, 0, 64, 82
1, 91742, Control_c, 0, 64, 86
1, 91756, Control_c, 0, 64, 87
1, 91771, Control_c, 0, 64, 87
1, 91786, Control_c, 0, 64, 88
1, 91801, Control_c, 0, 64, 89
1, 91809, Note_on_c, 0, 58, 51
1, 91816, Control_c, 0, 64, 90
1, 91830, Control_c, 0, 64, 91
1, 91845, Control_c, 0, 64, 91
1, 91860, Control_c, 0, 64, 92
1, 91874, Note_on_c, 0, 61, 54
1, 91874, Note_off_c, 0, 58, 57
1, 91914, Note_off_c, 0, 61, 61
1, 91937, Note_on_c, 0, 66, 56
1, 91993, Note_off_c, 0, 70, 62
1, 92005, Note_off_c, 0, 66, 58
1, 92011, Note_on_c, 0, 61, 53
1, 92053, Control_c, 0, 64, 91
1, 92058, Note_off_c, 0, 61, 51
1, 92074, Note_on_c, 0, 58, 51
1, 92083, Control_c, 0, 64, 91
1, 92098, Control_c, 0, 64, 89
1, 92113, Control_c, 0, 64, 85
1, 92128, Control_c, 0, 64, 76
1, 92142, Control_c, 0, 64, 62
1, 92147, Note_on_c, 0, 71, 61
1, 92157, Control_c, 0, 64, 0
1, 92163, Note_off_c, 0, 58, 60
1, 92182, Note_on_c, 0, 56, 54
1, 92194, Control_c, 0, 64, 32
1, 92209, Control_c, 0, 64, 59
1, 92224, Control_c, 0, 64, 65
1, 92239, Control_c, 0, 64, 70
1, 92253, Control_c, 0, 64, 76
1, 92255, Note_off_c, 0, 56, 57
1, 92260, Note_on_c, 0, 59, 55
1, 92268, Control_c, 0, 64, 82
1, 92283, Control_c, 0, 64, 84
1, 92298, Control_c, 0, 64, 85
1, 92305, Note_on_c, 0, 61, 65
1, 92331, Note_off_c, 0, 59, 60
1, 92342, Control_c, 0, 64, 85
1, 92378, Note_off_c, 0, 61, 55
1, 92381, Note_on_c, 0, 68, 62
1, 92387, Note_off_c, 0, 78, 36
1, 92412, Note_on_c, 0, 77, 74
1, 92429, Note_off_c, 0, 68, 61
1, 92466, Note_on_c, 0, 59, 65
1, 92503, Note_off_c, 0, 59, 61
1, 92510, Poly_aftertouch_c, 0, 61, 0
1, 92512, Note_off_c, 0, 77, 61
1, 92575, Note_on_c, 0, 77, 76
1, 92581, Note_on_c, 0, 49, 67
1, 92616, Note_off_c, 0, 49, 63
1, 92663, Note_on_c, 0, 59, 65
1, 92725, Note_on_c, 0, 75, 87
1, 92733, Note_on_c, 0, 61, 57
1, 92741, Note_off_c, 0, 59, 57
1, 92757, Note_off_c, 0, 77, 36
1, 92758, Control_c, 0, 64, 86
1, 92759, Note_off_c, 0, 71, 60
1, 92780, Note_off_c, 0, 61, 57
1, 92787, Control_c, 0, 64, 86
1, 92793, Note_on_c, 0, 65, 55
1, 92802, Control_c, 0, 64, 87
1, 92841, Note_off_c, 0, 65, 58
1, 92852, Note_on_c, 0, 61, 42
1, 92855, Note_on_c, 0, 73, 91
1, 92883, Note_off_c, 0, 75, 62
1, 92893, Note_off_c, 0, 61, 60
1, 92900, Note_on_c, 0, 59, 54
1, 92941, Note_off_c, 0, 73, 60
1, 93002, Control_c, 0, 64, 86
1, 93025, Note_off_c, 0, 59, 55
1, 93032, Control_c, 0, 64, 86
1, 93062, Control_c, 0, 64, 84
1, 93076, Control_c, 0, 64, 80
1, 93081, Note_on_c, 0, 54, 56
1, 93091, Control_c, 0, 64, 69
1, 93093, Note_on_c, 0, 73, 70
1, 93093, Note_on_c, 0, 82, 85
1, 93094, Note_on_c, 0, 70, 65
1, 93106, Control_c, 0, 64, 0
1, 93161, Note_off_c, 0, 54, 60
1, 93165, Control_c, 0, 64, 32
1, 93170, Note_on_c, 0, 58, 55
1, 93180, Control_c, 0, 64, 63
1, 93195, Control_c, 0, 64, 69
1, 93210, Control_c, 0, 64, 76
1, 93224, Control_c, 0, 64, 82
1, 93239, Note_on_c, 0, 61, 61
1, 93239, Control_c, 0, 64, 85
1, 93245, Note_off_c, 0, 58, 64
1, 93254, Control_c, 0, 64, 85
1, 93269, Control_c, 0, 64, 86
1, 93272, Note_off_c, 0, 70, 59
1, 93284, Control_c, 0, 64, 86
1, 93297, Note_off_c, 0, 82, 57
1, 93299, Note_off_c, 0, 61, 55
1, 93299, Control_c, 0, 64, 87
1, 93304, Note_off_c, 0, 73, 62
1, 93312, Note_on_c, 0, 66, 61
1, 93356, Note_off_c, 0, 66, 60
1, 93374, Note_on_c, 0, 61, 49
1, 93423, Note_on_c, 0, 58, 61
1, 93431, Note_off_c, 0, 61, 50
1, 93476, Control_c, 0, 64, 86
1, 93492, Control_c, 0, 64, 82
1, 93503, Note_off_c, 0, 58, 61
1, 93505, Note_on_c, 0, 73, 59
1, 93506, Note_on_c, 0, 68, 80
1, 93507, Control_c, 0, 64, 72
1, 93508, Note_on_c, 0, 82, 88
1, 93522, Control_c, 0, 64, 10
1, 93524, Note_on_c, 0, 52, 58
1, 93537, Control_c, 0, 64, 0
1, 93566, Control_c, 0, 64, 34
1, 93578, Note_off_c, 0, 52, 66
1, 93581, Control_c, 0, 64, 62
1, 93596, Control_c, 0, 64, 68
1, 93600, Note_on_c, 0, 58, 64
1, 93610, Control_c, 0, 64, 73
1, 93625, Control_c, 0, 64, 80
1, 93640, Control_c, 0, 64, 84
1, 93646, Note_off_c, 0, 82, 62
1, 93655, Control_c, 0, 64, 85
1, 93678, Control_c, 0, 64, 86
1, 93682, Note_off_c, 0, 68, 55
1, 93683, Note_on_c, 0, 61, 61
1, 93687, Note_off_c, 0, 58, 62
1, 93692, Control_c, 0, 64, 87
1, 93707, Control_c, 0, 64, 88
1, 93722, Control_c, 0, 64, 89
1, 93737, Note_off_c, 0, 61, 61
1, 93737, Control_c, 0, 64, 90
1, 93752, Control_c, 0, 64, 90
1, 93756, Note_on_c, 0, 82, 87
1, 93760, Note_on_c, 0, 68, 62
1, 93766, Control_c, 0, 64, 91
1, 93781, Control_c, 0, 64, 91
1, 93806, Note_off_c, 0, 82, 67
1, 93811, Note_off_c, 0, 73, 61
1, 93817, Note_off_c, 0, 68, 58
1, 93850, Note_on_c, 0, 67, 76
1, 93859, Note_on_c, 0, 61, 54
1, 93895, Note_off_c, 0, 61, 61
1, 93917, Note_on_c, 0, 58, 50
1, 93937, Note_off_c, 0, 67, 55
1, 93949, Note_on_c, 0, 73, 72
1, 93988, Control_c, 0, 64, 91
1, 94017, Control_c, 0, 64, 90
1, 94032, Control_c, 0, 64, 90
1, 94047, Control_c, 0, 64, 89
1, 94062, Control_c, 0, 64, 88
1, 94077, Control_c, 0, 64, 87
1, 94092, Note_off_c, 0, 58, 54
1, 94092, Control_c, 0, 64, 82
1, 94107, Control_c, 0, 64, 71
1, 94122, Control_c, 0, 64, 16
1, 94125, Note_on_c, 0, 82, 77
1, 94131, Note_on_c, 0, 51, 46
1, 94137, Control_c, 0, 64, 0
1, 94196, Control_c, 0, 64, 46
1, 94211, Control_c, 0, 64, 64
1, 94214, Note_off_c, 0, 51, 61
1, 94222, Note_on_c, 0, 58, 58
1, 94225, Control_c, 0, 64, 69
1, 94240, Control_c, 0, 64, 75
1, 94255, Control_c, 0, 64, 81
1, 94270, Control_c, 0, 64, 83
1, 94285, Control_c, 0, 64, 84
1, 94301, Control_c, 0, 64, 85
1, 94306, Note_on_c, 0, 61, 53
1, 94313, Note_off_c, 0, 73, 61
1, 94328, Note_off_c, 0, 58, 58
1, 94330, Control_c, 0, 64, 85
1, 94372, Note_off_c, 0, 61, 49
1, 94392, Note_on_c, 0, 67, 49
1, 94447, Note_on_c, 0, 75, 70
1, 94462, Note_off_c, 0, 67, 47
1, 94495, Note_on_c, 0, 58, 46
1, 94500, Control_c, 0, 64, 85
1, 94527, Note_off_c, 0, 75, 62
1, 94545, Control_c, 0, 64, 84
1, 94566, Note_off_c, 0, 58, 56
1, 94574, Control_c, 0, 64, 83
1, 94587, Note_off_c, 0, 82, 17
1, 94589, Control_c, 0, 64, 80
1, 94597, Note_on_c, 0, 75, 62
1, 94604, Note_on_c, 0, 55, 51
1, 94604, Control_c, 0, 64, 72
1, 94619, Control_c, 0, 64, 54
1, 94634, Control_c, 0, 64, 0
1, 94663, Control_c, 0, 64, 26
1, 94678, Control_c, 0, 64, 58
1, 94693, Control_c, 0, 64, 64
1, 94708, Control_c, 0, 64, 68
1, 94712, Note_off_c, 0, 55, 64
1, 94722, Control_c, 0, 64, 73
1, 94724, Note_on_c, 0, 77, 65
1, 94724, Note_off_c, 0, 75, 63
1, 94734, Note_on_c, 0, 61, 54
1, 94737, Control_c, 0, 64, 79
1, 94752, Control_c, 0, 64, 82
1, 94753, Note_off_c, 0, 77, 65
1, 94765, Note_on_c, 0, 79, 56
1, 94766, Control_c, 0, 64, 84
1, 94781, Control_c, 0, 64, 84
1, 94796, Note_off_c, 0, 61, 59
1, 94796, Control_c, 0, 64, 85
1, 94805, Note_on_c, 0, 63, 55
1, 94810, Note_on_c, 0, 77, 74
1, 94811, Control_c, 0, 64, 86
1, 94826, Control_c, 0, 64, 88
1, 94831, Note_off_c, 0, 79, 53
1, 94840, Control_c, 0, 64, 90
1, 94855, Control_c, 0, 64, 91
1, 94861, Note_off_c, 0, 63, 63
1, 94870, Control_c, 0, 64, 92
1, 94885, Control_c, 0, 64, 94
1, 94895, Note_on_c, 0, 70, 55
1, 94900, Control_c, 0, 64, 95
1, 94915, Control_c, 0, 64, 95
1, 94930, Control_c, 0, 64, 96
1, 94974, Note_off_c, 0, 70, 60
1, 94999, Note_on_c, 0, 63, 49
1, 95034, Note_on_c, 0, 75, 70
1, 95034, Note_off_c, 0, 63, 61
1, 95040, Note_off_c, 0, 77, 59
1, 95049, Note_on_c, 0, 61, 57
1, 95068, Note_off_c, 0, 75, 61
1, 95078, Control_c, 0, 64, 95
1, 95094, Control_c, 0, 64, 93
1, 95108, Control_c, 0, 64, 85
1, 95123, Control_c, 0, 64, 71
1, 95124, Note_off_c, 0, 61, 60
1, 95130, Note_on_c, 0, 75, 63
1, 95132, Note_on_c, 0, 73, 62
1, 95138, Control_c, 0, 64, 0
1, 95143, Note_on_c, 0, 56, 54
1, 95190, Control_c, 0, 64, 41
1, 95204, Control_c, 0, 64, 62
1, 95219, Control_c, 0, 64, 67
1, 95223, Note_off_c, 0, 56, 63
1, 95234, Control_c, 0, 64, 72
1, 95247, Note_on_c, 0, 61, 57
1, 95250, Control_c, 0, 64, 79
1, 95265, Control_c, 0, 64, 84
1, 95279, Control_c, 0, 64, 86
1, 95305, Note_off_c, 0, 61, 60
1, 95308, Note_on_c, 0, 63, 60
1, 95324, Control_c, 0, 64, 86
1, 95341, Note_off_c, 0, 73, 32
1, 95358, Note_off_c, 0, 63, 62
1, 95381, Note_on_c, 0, 68, 56
1, 95431, Note_off_c, 0, 68, 53
1, 95458, Note_on_c, 0, 63, 60
1, 95520, Note_off_c, 0, 63, 59
1, 95529, Note_on_c, 0, 61, 58
1, 95617, Note_off_c, 0, 61, 60
1, 95635, Control_c, 0, 64, 83
1, 95644, Note_on_c, 0, 80, 86
1, 95650, Control_c, 0, 64, 75
1, 95654, Note_on_c, 0, 72, 74
1, 95664, Control_c, 0, 64, 58
1, 95668, Note_on_c, 0, 51, 52
1, 95679, Control_c, 0, 64, 0
1, 95687, Note_off_c, 0, 75, 59
1, 95723, Control_c, 0, 64, 48
1, 95737, Note_off_c, 0, 51, 57
1, 95738, Control_c, 0, 64, 65
1, 95750, Note_on_c, 0, 60, 54
1, 95753, Control_c, 0, 64, 71
1, 95768, Control_c, 0, 64, 78
1, 95782, Control_c, 0, 64, 84
1, 95797, Control_c, 0, 64, 86
1, 95827, Control_c, 0, 64, 86
1, 95833, Note_off_c, 0, 72, 62
1, 95840, Note_on_c, 0, 63, 61
1, 95840, Note_off_c, 0, 60, 59
1, 95842, Control_c, 0, 64, 87
1, 95872, Control_c, 0, 64, 87
1, 95877, Note_off_c, 0, 63, 64
1, 95924, Note_on_c, 0, 68, 53
1, 95977, Note_off_c, 0, 68, 50
1, 95981, Note_on_c, 0, 63, 54
1, 96022, Note_on_c, 0, 60, 60
1, 96024, Note_off_c, 0, 63, 55
1, 96057, Control_c, 0, 64, 87
1, 96072, Control_c, 0, 64, 84
1, 96087, Control_c, 0, 64, 76
1, 96101, Control_c, 0, 64, 62
1, 96102, Note_on_c, 0, 73, 77
1, 96102, Note_off_c, 0, 60, 59
1, 96116, Control_c, 0, 64, 0
1, 96119, Note_on_c, 0, 58, 52
1, 96146, Control_c, 0, 64, 55
1, 96150, Note_off_c, 0, 80, 33
1, 96161, Control_c, 0, 64, 64
1, 96176, Control_c, 0, 64, 68
1, 96190, Control_c, 0, 64, 74
1, 96192, Note_off_c, 0, 58, 64
1, 96197, Note_on_c, 0, 61, 66
1, 96205, Control_c, 0, 64, 81
1, 96220, Control_c, 0, 64, 85
1, 96224, Note_off_c, 0, 73, 60
1, 96235, Control_c, 0, 64, 86
1, 96241, Note_on_c, 0, 79, 79
1, 96266, Note_off_c, 0, 61, 61
1, 96277, Note_on_c, 0, 63, 59
1, 96294, Control_c, 0, 64, 86
1, 96322, Note_off_c, 0, 63, 60
1, 96339, Note_on_c, 0, 70, 62
1, 96366, Note_on_c, 0, 77, 86
1, 96372, Note_off_c, 0, 70, 66
1, 96397, Note_off_c, 0, 79, 37
1, 96406, Note_on_c, 0, 61, 67
1, 96444, Note_off_c, 0, 61, 60
1, 96520, Note_off_c, 0, 77, 51
1, 96528, Note_on_c, 0, 51, 63
1, 96541, Note_on_c, 0, 79, 81
1, 96563, Note_off_c, 0, 51, 63
1, 96625, Note_on_c, 0, 61, 63
1, 96703, Note_off_c, 0, 79, 52
1, 96708, Note_off_c, 0, 61, 60
1, 96710, Note_on_c, 0, 77, 82
1, 96712, Note_on_c, 0, 63, 65
1, 96766, Note_off_c, 0, 63, 62
1, 96781, Note_on_c, 0, 67, 63
1, 96791, Control_c, 0, 64, 87
1, 96855, Note_off_c, 0, 67, 59
1, 96862, Note_on_c, 0, 63, 59
1, 96914, Note_off_c, 0, 77, 58
1, 96917, Note_on_c, 0, 61, 64
1, 96919, Note_off_c, 0, 63, 62
1, 96945, Note_on_c, 0, 75, 70
1, 96969, Control_c, 0, 64, 86
1, 96983, Note_off_c, 0, 75, 64
1, 96998, Control_c, 0, 64, 84
1, 97007, Note_off_c, 0, 61, 61
1, 97013, Control_c, 0, 64, 76
1, 97015, Note_on_c, 0, 72, 85
1, 97016, Note_on_c, 0, 84, 84
1, 97027, Note_on_c, 0, 56, 57
1, 97028, Control_c, 0, 64, 57
1, 97043, Control_c, 0, 64, 0
1, 97100, Note_off_c, 0, 56, 61
1, 97106, Note_on_c, 0, 60, 60
1, 97117, Control_c, 0, 64, 61
1, 97132, Control_c, 0, 64, 69
1, 97147, Control_c, 0, 64, 75
1, 97161, Control_c, 0, 64, 83
1, 97173, Note_on_c, 0, 63, 66
1, 97174, Note_off_c, 0, 60, 62
1, 97176, Control_c, 0, 64, 86
1, 97191, Control_c, 0, 64, 87
1, 97206, Control_c, 0, 64, 88
1, 97214, Note_off_c, 0, 63, 60
1, 97221, Control_c, 0, 64, 89
1, 97235, Control_c, 0, 64, 90
1, 97238, Note_off_c, 0, 84, 61
1, 97241, Note_on_c, 0, 68, 67
1, 97300, Note_off_c, 0, 68, 63
1, 97305, Note_on_c, 0, 63, 68
1, 97365, Note_on_c, 0, 60, 69
1, 97383, Note_off_c, 0, 63, 61
1, 97446, Note_off_c, 0, 60, 61
1, 97450, Control_c, 0, 64, 88
1, 97465, Control_c, 0, 64, 80
1, 97467, Note_on_c, 0, 55, 64
1, 97471, Note_on_c, 0, 84, 96
1, 97480, Control_c, 0, 64, 66
1, 97496, Control_c, 0, 64, 0
1, 97540, Control_c, 0, 64, 48
1, 97548, Note_off_c, 0, 55, 62
1, 97550, Note_on_c, 0, 56, 64
1, 97555, Control_c, 0, 64, 65
1, 97570, Control_c, 0, 64, 70
1, 97584, Control_c, 0, 64, 77
1, 97599, Control_c, 0, 64, 83
1, 97614, Control_c, 0, 64, 86
1, 97623, Note_off_c, 0, 84, 60
1, 97626, Note_off_c, 0, 56, 63
1, 97627, Note_on_c, 0, 60, 72
1, 97629, Control_c, 0, 64, 87
1, 97644, Control_c, 0, 64, 88
1, 97658, Control_c, 0, 64, 89
1, 97673, Control_c, 0, 64, 90
1, 97680, Note_on_c, 0, 63, 74
1, 97684, Note_off_c, 0, 60, 62
1, 97688, Control_c, 0, 64, 92
1, 97703, Control_c, 0, 64, 93
1, 97718, Control_c, 0, 64, 93
1, 97732, Control_c, 0, 64, 94
1, 97747, Control_c, 0, 64, 94
1, 97755, Note_on_c, 0, 84, 94
1, 97761, Note_off_c, 0, 63, 62
1, 97762, Control_c, 0, 64, 95
1, 97764, Note_on_c, 0, 60, 66
1, 97791, Control_c, 0, 64, 95
1, 97851, Note_off_c, 0, 60, 59
1, 97858, Note_on_c, 0, 56, 59
1, 97873, Note_off_c, 0, 84, 61
1, 97940, Control_c, 0, 64, 95
1, 97984, Control_c, 0, 64, 94
1, 97985, Note_off_c, 0, 56, 59
1, 97999, Control_c, 0, 64, 93
1, 98003, Note_on_c, 0, 54, 56
1, 98014, Control_c, 0, 64, 93
1, 98029, Control_c, 0, 64, 91
1, 98044, Control_c, 0, 64, 87
1, 98058, Control_c, 0, 64, 79
1, 98073, Control_c, 0, 64, 65
1, 98088, Control_c, 0, 64, 0
1, 98098, Note_on_c, 0, 84, 76
1, 98144, Note_on_c, 0, 56, 38
1, 98170, Control_c, 0, 64, 56
1, 98185, Control_c, 0, 64, 65
1, 98191, Note_off_c, 0, 54, 57
1, 98199, Control_c, 0, 64, 70
1, 98214, Control_c, 0, 64, 75
1, 98220, Note_off_c, 0, 56, 55
1, 98223, Note_on_c, 0, 60, 54
1, 98229, Control_c, 0, 64, 80
1, 98244, Control_c, 0, 64, 82
1, 98259, Control_c, 0, 64, 83
1, 98274, Control_c, 0, 64, 84
1, 98286, Note_off_c, 0, 60, 58
1, 98289, Control_c, 0, 64, 84
1, 98304, Control_c, 0, 64, 85
1, 98313, Note_on_c, 0, 63, 55
1, 98319, Control_c, 0, 64, 86
1, 98349, Control_c, 0, 64, 86
1, 98364, Control_c, 0, 64, 87
1, 98376, Note_off_c, 0, 63, 57
1, 98401, Note_on_c, 0, 60, 43
1, 98408, Control_c, 0, 64, 87
1, 98440, Note_off_c, 0, 60, 58
1, 98453, Control_c, 0, 64, 88
1, 98461, Note_on_c, 0, 56, 46
1, 98497, Control_c, 0, 64, 88
1, 98532, Note_off_c, 0, 56, 57
1, 98556, Control_c, 0, 64, 89
1, 98565, Note_on_c, 0, 54, 45
1, 98601, Control_c, 0, 64, 89
1, 98634, Note_off_c, 0, 54, 51
1, 98645, Control_c, 0, 64, 90
1, 98672, Note_on_c, 0, 56, 43
1, 98704, Control_c, 0, 64, 90
1, 98705, Note_off_c, 0, 56, 55
1, 98728, Note_on_c, 0, 60, 48
1, 98760, Note_off_c, 0, 72, 59
1, 98763, Note_on_c, 0, 82, 73
1, 98775, Note_off_c, 0, 60, 58
1, 98817, Note_on_c, 0, 63, 51
1, 98817, Note_off_c, 0, 84, 48
1, 98838, Control_c, 0, 64, 91
1, 98870, Note_off_c, 0, 63, 56
1, 98913, Note_on_c, 0, 60, 37
1, 98949, Note_off_c, 0, 60, 49
1, 98975, Note_on_c, 0, 56, 45
1, 99008, Control_c, 0, 64, 90
1, 99052, Note_on_c, 0, 80, 66
1, 99067, Control_c, 0, 64, 89
1, 99079, Note_off_c, 0, 82, 56
1, 99083, Control_c, 0, 64, 88
1, 99098, Control_c, 0, 64, 87
1, 99112, Control_c, 0, 64, 83
1, 99118, Note_off_c, 0, 80, 62
1, 99127, Control_c, 0, 64, 75
1, 99135, Note_off_c, 0, 56, 42
1, 99142, Control_c, 0, 64, 63
1, 99154, Note_on_c, 0, 53, 44
1, 99156, Control_c, 0, 64, 0
1, 99187, Note_on_c, 0, 80, 57
1, 99216, Control_c, 0, 64, 50
1, 99231, Control_c, 0, 64, 62
1, 99246, Control_c, 0, 64, 67
1, 99261, Control_c, 0, 64, 71
1, 99262, Note_off_c, 0, 53, 58
1, 99263, Note_on_c, 0, 56, 40
1, 99276, Control_c, 0, 64, 76
1, 99291, Control_c, 0, 64, 80
1, 99305, Control_c, 0, 64, 81
1, 99320, Control_c, 0, 64, 82
1, 99326, Note_on_c, 0, 61, 56
1, 99329, Note_off_c, 0, 56, 55
1, 99335, Control_c, 0, 64, 82
1, 99350, Control_c, 0, 64, 83
1, 99364, Control_c, 0, 64, 84
1, 99367, Note_off_c, 0, 80, 63
1, 99371, Note_off_c, 0, 61, 60
1, 99379, Control_c, 0, 64, 85
1, 99394, Control_c, 0, 64, 86
1, 99401, Note_on_c, 0, 65, 55
1, 99409, Control_c, 0, 64, 86
1, 99424, Control_c, 0, 64, 87
1, 99437, Note_off_c, 0, 65, 53
1, 99453, Control_c, 0, 64, 87
1, 99465, Note_on_c, 0, 61, 51
1, 99468, Control_c, 0, 64, 88
1, 99502, Note_off_c, 0, 61, 63
1, 99512, Control_c, 0, 64, 88
1, 99517, Note_on_c, 0, 56, 50
1, 99583, Note_off_c, 0, 56, 61
1, 99588, Note_on_c, 0, 85, 87
1, 99616, Note_on_c, 0, 53, 50
1, 99630, Control_c, 0, 64, 89
1, 99664, Note_off_c, 0, 53, 66
1, 99668, Control_c, 0, 64, 89
1, 99683, Note_on_c, 0, 56, 61
1, 99683, Control_c, 0, 64, 90
1, 99697, Control_c, 0, 64, 90
1, 99712, Control_c, 0, 64, 91
1, 99727, Control_c, 0, 64, 91
1, 99742, Note_off_c, 0, 56, 62
1, 99742, Control_c, 0, 64, 92
1, 99747, Note_on_c, 0, 61, 66
1, 99757, Control_c, 0, 64, 92
1, 99771, Control_c, 0, 64, 93
1, 99798, Note_off_c, 0, 61, 61
1, 99800, Note_off_c, 0, 85, 60
1, 99801, Control_c, 0, 64, 93
1, 99824, Note_on_c, 0, 68, 64
1, 99831, Control_c, 0, 64, 94
1, 99896, Note_off_c, 0, 68, 61
1, 99910, Note_on_c, 0, 61, 68
1, 99969, Note_on_c, 0, 56, 55
1, 99970, Note_off_c, 0, 61, 59
1, 99994, Control_c, 0, 64, 93
1, 100039, Control_c, 0, 64, 92
1, 100046, Note_off_c, 0, 56, 60
1, 100054, Control_c, 0, 64, 89
1, 100068, Note_on_c, 0, 51, 56
1, 100069, Note_on_c, 0, 85, 86
1, 100069, Control_c, 0, 64, 79
1, 100084, Control_c, 0, 64, 64
1, 100098, Control_c, 0, 64, 0
1, 100137, Note_off_c, 0, 51, 63
1, 100143, Control_c, 0, 64, 56
1, 100152, Note_on_c, 0, 56, 50
1, 100158, Control_c, 0, 64, 65
1, 100173, Control_c, 0, 64, 71
1, 100187, Control_c, 0, 64, 77
1, 100202, Control_c, 0, 64, 84
1, 100211, Note_on_c, 0, 60, 57
1, 100211, Note_off_c, 0, 56, 63
1, 100217, Control_c, 0, 64, 86
1, 100261, Control_c, 0, 64, 87
1, 100277, Note_off_c, 0, 85, 56
1, 100287, Note_off_c, 0, 60, 56
1, 100290, Note_on_c, 0, 66, 59
1, 100350, Control_c, 0, 64, 86
1, 100362, Note_on_c, 0, 84, 79
1, 100369, Note_off_c, 0, 66, 63
1, 100412, Note_on_c, 0, 60, 17
1, 100417, Control_c, 0, 64, 86
1, 100442, Note_on_c, 0, 56, 56
1, 100447, Control_c, 0, 64, 85
1, 100452, Note_off_c, 0, 60, 43
1, 100468, Note_off_c, 0, 84, 58
1, 100476, Control_c, 0, 64, 85
1, 100504, Control_c, 0, 64, 83
1, 100519, Control_c, 0, 64, 74
1, 100524, Note_off_c, 0, 56, 60
1, 100534, Control_c, 0, 64, 60
1, 100549, Control_c, 0, 64, 0
1, 100551, Note_on_c, 0, 51, 50
1, 100560, Note_on_c, 0, 84, 77
1, 100578, Control_c, 0, 64, 58
1, 100593, Control_c, 0, 64, 64
1, 100608, Control_c, 0, 64, 68
1, 100613, Note_off_c, 0, 51, 61
1, 100623, Control_c, 0, 64, 73
1, 100632, Note_on_c, 0, 56, 50
1, 100638, Control_c, 0, 64, 79
1, 100653, Control_c, 0, 64, 83
1, 100668, Control_c, 0, 64, 85
1, 100683, Note_off_c, 0, 84, 58
1, 100698, Note_off_c, 0, 56, 63
1, 100708, Note_on_c, 0, 60, 50
1, 100711, Note_on_c, 0, 82, 77
1, 100713, Control_c, 0, 64, 85
1, 100728, Control_c, 0, 64, 86
1, 100757, Control_c, 0, 64, 86
1, 100782, Note_off_c, 0, 60, 61
1, 100791, Note_on_c, 0, 66, 55
1, 100830, Note_off_c, 0, 66, 67
1, 100873, Note_on_c, 0, 60, 45
1, 100912, Note_off_c, 0, 60, 58
1, 100936, Note_on_c, 0, 56, 53
1, 100950, Control_c, 0, 64, 86
1, 100957, Note_on_c, 0, 80, 72
1, 100957, Note_off_c, 0, 82, 58
1, 100980, Control_c, 0, 64, 85
1, 101009, Control_c, 0, 64, 85
1, 101010, Note_off_c, 0, 56, 56
1, 101024, Control_c, 0, 64, 84
1, 101039, Control_c, 0, 64, 79
1, 101051, Note_on_c, 0, 89, 80
1, 101052, Note_on_c, 0, 50, 49
1, 101054, Control_c, 0, 64, 68
1, 101069, Control_c, 0, 64, 0
1, 101088, Note_off_c, 0, 80, 62
1, 101124, Note_off_c, 0, 50, 61
1, 101127, Control_c, 0, 64, 41
1, 101132, Note_on_c, 0, 56, 60
1, 101142, Control_c, 0, 64, 63
1, 101165, Control_c, 0, 64, 68
1, 101180, Control_c, 0, 64, 74
1, 101195, Control_c, 0, 64, 79
1, 101206, Note_on_c, 0, 59, 60
1, 101209, Control_c, 0, 64, 81
1, 101215, Note_off_c, 0, 56, 59
1, 101224, Control_c, 0, 64, 81
1, 101241, Note_off_c, 0, 89, 61
1, 101253, Note_off_c, 0, 59, 56
1, 101272, Note_on_c, 0, 65, 67
1, 101342, Note_off_c, 0, 65, 63
1, 101358, Note_on_c, 0, 59, 64
1, 101398, Note_off_c, 0, 59, 54
1, 101406, Note_on_c, 0, 56, 63
1, 101416, Control_c, 0, 64, 81
1, 101446, Control_c, 0, 64, 77
1, 101461, Control_c, 0, 64, 68
1, 101476, Control_c, 0, 64, 0
1, 101477, Note_on_c, 0, 89, 91
1, 101484, Note_off_c, 0, 56, 63
1, 101499, Note_on_c, 0, 50, 58
1, 101521, Control_c, 0, 64, 16
1, 101536, Control_c, 0, 64, 58
1, 101550, Control_c, 0, 64, 65
1, 101565, Control_c, 0, 64, 72
1, 101571, Note_off_c, 0, 50, 63
1, 101574, Note_on_c, 0, 56, 63
1, 101580, Control_c, 0, 64, 79
1, 101595, Control_c, 0, 64, 84
1, 101610, Control_c, 0, 64, 86
1, 101625, Control_c, 0, 64, 88
1, 101634, Note_on_c, 0, 58, 66
1, 101640, Control_c, 0, 64, 90
1, 101649, Note_off_c, 0, 56, 61
1, 101654, Note_off_c, 0, 89, 61
1, 101655, Control_c, 0, 64, 93
1, 101670, Control_c, 0, 64, 100
1, 101685, Control_c, 0, 64, 105
1, 101700, Control_c, 0, 64, 111
1, 101701, Note_on_c, 0, 65, 69
1, 101705, Note_off_c, 0, 58, 60
1, 101714, Control_c, 0, 64, 116
1, 101729, Control_c, 0, 64, 124
1, 101744, Control_c, 0, 64, 127
1, 101753, Note_on_c, 0, 89, 98
1, 101794, Note_off_c, 0, 65, 61
1, 101800, Note_on_c, 0, 58, 51
1, 101867, Note_on_c, 0, 56, 62
1, 101878, Note_off_c, 0, 58, 61
1, 101893, Note_off_c, 0, 89, 58
1, 102015, Note_off_c, 0, 56, 63
1, 102038, Note_on_c, 0, 51, 59
1, 102048, Control_c, 0, 64, 112
1, 102063, Control_c, 0, 64, 93
1, 102078, Control_c, 0, 64, 76
1, 102080, Note_on_c, 0, 89, 91
1, 102092, Control_c, 0, 64, 49
1, 102107, Control_c, 0, 64, 0
1, 102134, Note_off_c, 0, 51, 60
1, 102137, Control_c, 0, 64, 51
1, 102143, Note_on_c, 0, 54, 55
1, 102151, Control_c, 0, 64, 65
1, 102166, Control_c, 0, 64, 70
1, 102181, Control_c, 0, 64, 76
1, 102196, Control_c, 0, 64, 84
1, 102211, Control_c, 0, 64, 89
1, 102213, Note_on_c, 0, 58, 61
1, 102225, Note_off_c, 0, 54, 62
1, 102225, Control_c, 0, 64, 91
1, 102240, Control_c, 0, 64, 93
1, 102255, Control_c, 0, 64, 96
1, 102270, Control_c, 0, 64, 98
1, 102284, Note_off_c, 0, 58, 62
1, 102286, Control_c, 0, 64, 100
1, 102301, Control_c, 0, 64, 101
1, 102304, Note_on_c, 0, 63, 61
1, 102316, Control_c, 0, 64, 102
1, 102330, Control_c, 0, 64, 102
1, 102383, Note_on_c, 0, 58, 54
1, 102388, Note_off_c, 0, 63, 63
1, 102432, Note_on_c, 0, 54, 66
1, 102441, Note_off_c, 0, 58, 61
1, 102477, Note_off_c, 0, 54, 63
1, 102537, Control_c, 0, 64, 102
1, 102552, Control_c, 0, 64, 101
1, 102566, Note_on_c, 0, 42, 64
1, 102567, Control_c, 0, 64, 95
1, 102582, Control_c, 0, 64, 83
1, 102596, Control_c, 0, 64, 65
1, 102599, Note_on_c, 0, 87, 80
1, 102611, Control_c, 0, 64, 0
1, 102623, Note_off_c, 0, 42, 59
1, 102641, Control_c, 0, 64, 56
1, 102663, Control_c, 0, 64, 65
1, 102666, Note_on_c, 0, 54, 62
1, 102678, Control_c, 0, 64, 70
1, 102687, Note_off_c, 0, 89, 52
1, 102693, Control_c, 0, 64, 77
1, 102707, Control_c, 0, 64, 84
1, 102719, Note_off_c, 0, 54, 55
1, 102722, Control_c, 0, 64, 89
1, 102737, Control_c, 0, 64, 91
1, 102751, Control_c, 0, 64, 92
1, 102766, Control_c, 0, 64, 94
1, 102780, Note_on_c, 0, 58, 60
1, 102781, Control_c, 0, 64, 96
1, 102796, Control_c, 0, 64, 98
1, 102811, Control_c, 0, 64, 99
1, 102814, Note_on_c, 0, 85, 84
1, 102820, Note_off_c, 0, 87, 65
1, 102826, Control_c, 0, 64, 101
1, 102837, Note_off_c, 0, 58, 62
1, 102841, Control_c, 0, 64, 103
1, 102855, Control_c, 0, 64, 105
1, 102870, Control_c, 0, 64, 107
1, 102881, Note_on_c, 0, 63, 63
1, 102885, Control_c, 0, 64, 108
1, 102914, Control_c, 0, 64, 109
1, 102939, Note_off_c, 0, 63, 61
1, 102952, Note_on_c, 0, 82, 88
1, 102954, Note_off_c, 0, 85, 62
1, 102961, Note_on_c, 0, 58, 50
1, 102994, Note_off_c, 0, 58, 64
1, 102996, Note_on_c, 0, 54, 60
1, 103061, Note_off_c, 0, 54, 62
1, 103093, Control_c, 0, 64, 108
1, 103122, Control_c, 0, 64, 106
1, 103125, Note_on_c, 0, 44, 53
1, 103133, Note_on_c, 0, 84, 83
1, 103137, Control_c, 0, 64, 97
1, 103148, Note_off_c, 0, 82, 59
1, 103152, Control_c, 0, 64, 82
1, 103167, Control_c, 0, 64, 63
1, 103181, Note_off_c, 0, 44, 60
1, 103182, Control_c, 0, 64, 0
1, 103194, Note_on_c, 0, 53, 57
1, 103211, Control_c, 0, 64, 54
1, 103226, Control_c, 0, 64, 64
1, 103241, Control_c, 0, 64, 69
1, 103256, Control_c, 0, 64, 76
1, 103270, Note_on_c, 0, 56, 66
1, 103270, Control_c, 0, 64, 84
1, 103279, Note_off_c, 0, 53, 65
1, 103285, Control_c, 0, 64, 90
1, 103300, Control_c, 0, 64, 91
1, 103330, Control_c, 0, 64, 92
1, 103331, Note_off_c, 0, 56, 62
1, 103345, Note_on_c, 0, 61, 55
1, 103389, Note_on_c, 0, 56, 60
1, 103413, Note_off_c, 0, 61, 61
1, 103458, Note_on_c, 0, 53, 64
1, 103467, Note_off_c, 0, 56, 62
1, 103513, Note_off_c, 0, 53, 61
1, 103543, Note_on_c, 0, 44, 69
1, 103559, Control_c, 0, 64, 90
1, 103574, Control_c, 0, 64, 81
1, 103575, Note_on_c, 0, 82, 83
1, 103589, Control_c, 0, 64, 66
1, 103598, Note_off_c, 0, 84, 61
1, 103604, Control_c, 0, 64, 0
1, 103607, Note_off_c, 0, 44, 58
1, 103622, Note_on_c, 0, 53, 63
1, 103634, Control_c, 0, 64, 46
1, 103649, Control_c, 0, 64, 63
1, 103664, Control_c, 0, 64, 68
1, 103678, Control_c, 0, 64, 75
1, 103693, Control_c, 0, 64, 82
1, 103701, Note_on_c, 0, 56, 58
1, 103708, Control_c, 0, 64, 86
1, 103714, Note_off_c, 0, 53, 62
1, 103723, Control_c, 0, 64, 87
1, 103723, Note_on_c, 0, 80, 89
1, 103733, Note_off_c, 0, 82, 64
1, 103737, Control_c, 0, 64, 88
1, 103759, Note_off_c, 0, 56, 53
1, 103762, Note_on_c, 0, 61, 64
1, 103819, Note_off_c, 0, 61, 57
1, 103847, Note_on_c, 0, 53, 64
1, 103857, Note_on_c, 0, 77, 83
1, 103892, Note_off_c, 0, 80, 59
1, 103900, Note_off_c, 0, 53, 64
1, 103960, Control_c, 0, 64, 85
1, 103973, Note_on_c, 0, 44, 67
1, 103975, Control_c, 0, 64, 76
1, 103990, Control_c, 0, 64, 61
1, 104005, Control_c, 0, 64, 0
1, 104019, Control_c, 0, 64, 27
1, 104032, Note_off_c, 0, 44, 56
1, 104034, Note_on_c, 0, 82, 76
1, 104034, Control_c, 0, 64, 61
1, 104049, Control_c, 0, 64, 66
1, 104064, Control_c, 0, 64, 71
1, 104075, Note_off_c, 0, 77, 38
1, 104079, Control_c, 0, 64, 77
1, 104094, Control_c, 0, 64, 84
1, 104096, Note_on_c, 0, 54, 58
1, 104108, Control_c, 0, 64, 88
1, 104123, Control_c, 0, 64, 89
1, 104158, Note_off_c, 0, 54, 58
1, 104169, Note_on_c, 0, 56, 54
1, 104188, Note_on_c, 0, 80, 74
1, 104203, Note_off_c, 0, 56, 59
1, 104205, Note_off_c, 0, 82, 54
1, 104221, Note_on_c, 0, 60, 52
1, 104254, Note_off_c, 0, 80, 61
1, 104260, Note_off_c, 0, 60, 63
1, 104297, Note_on_c, 0, 54, 53
1, 104304, Note_on_c, 0, 78, 74
1, 104327, Note_off_c, 0, 78, 68
1, 104332, Note_off_c, 0, 54, 60
1, 104391, Note_on_c, 0, 78, 77
1, 104397, Control_c, 0, 64, 88
1, 104412, Control_c, 0, 64, 84
1, 104415, Note_on_c, 0, 44, 63
1, 104427, Control_c, 0, 64, 75
1, 104433, Note_on_c, 0, 80, 79
1, 104433, Note_off_c, 0, 78, 63
1, 104442, Control_c, 0, 64, 59
1, 104442, Note_off_c, 0, 44, 61
1, 104452, Note_off_c, 0, 80, 71
1, 104457, Control_c, 0, 64, 42
1, 104471, Control_c, 0, 64, 61
1, 104478, Note_on_c, 0, 78, 75
1, 104486, Control_c, 0, 64, 66
1, 104501, Control_c, 0, 64, 70
1, 104516, Control_c, 0, 64, 75
1, 104525, Note_on_c, 0, 54, 62
1, 104531, Control_c, 0, 64, 82
1, 104546, Control_c, 0, 64, 85
1, 104560, Control_c, 0, 64, 86
1, 104575, Control_c, 0, 64, 87
1, 104595, Note_off_c, 0, 54, 55
1, 104600, Note_on_c, 0, 56, 50
1, 104615, Note_on_c, 0, 77, 80
1, 104619, Note_off_c, 0, 78, 54
1, 104634, Note_off_c, 0, 56, 65
1, 104660, Note_on_c, 0, 60, 63
1, 104731, Note_on_c, 0, 56, 61
1, 104731, Note_off_c, 0, 60, 48
1, 104790, Note_on_c, 0, 54, 56
1, 104803, Note_off_c, 0, 56, 46
1, 104825, Note_on_c, 0, 76, 75
1, 104844, Note_off_c, 0, 77, 59
1, 104878, Note_off_c, 0, 76, 65
1, 104910, Control_c, 0, 64, 86
1, 104924, Control_c, 0, 64, 85
1, 104936, Note_off_c, 0, 54, 58
1, 104939, Control_c, 0, 64, 79
1, 104954, Control_c, 0, 64, 67
1, 104955, Note_on_c, 0, 49, 53
1, 104969, Control_c, 0, 64, 0
1, 104978, Note_on_c, 0, 76, 85
1, 105044, Control_c, 0, 64, 10
1, 105051, Note_off_c, 0, 49, 61
1, 105058, Control_c, 0, 64, 60
1, 105067, Note_on_c, 0, 56, 57
1, 105073, Control_c, 0, 64, 67
1, 105088, Control_c, 0, 64, 71
1, 105102, Control_c, 0, 64, 76
1, 105117, Control_c, 0, 64, 80
1, 105132, Control_c, 0, 64, 82
1, 105147, Control_c, 0, 64, 84
1, 105159, Note_off_c, 0, 56, 63
1, 105162, Control_c, 0, 64, 84
1, 105166, Note_on_c, 0, 61, 63
1, 105176, Control_c, 0, 64, 85
1, 105191, Control_c, 0, 64, 85
1, 105206, Control_c, 0, 64, 86
1, 105211, Note_off_c, 0, 61, 59
1, 105246, Note_on_c, 0, 65, 56
1, 105300, Note_off_c, 0, 65, 58
1, 105318, Note_on_c, 0, 61, 53
1, 105339, Control_c, 0, 64, 85
1, 105369, Note_off_c, 0, 61, 55
1, 105369, Control_c, 0, 64, 85
1, 105375, Note_on_c, 0, 58, 51
1, 105398, Control_c, 0, 64, 84
1, 105413, Control_c, 0, 64, 84
1, 105428, Control_c, 0, 64, 83
1, 105434, Note_off_c, 0, 58, 61
1, 105443, Control_c, 0, 64, 82
1, 105458, Control_c, 0, 64, 76
1, 105463, Note_on_c, 0, 56, 58
1, 105468, Note_off_c, 0, 76, 48
1, 105473, Control_c, 0, 64, 63
1, 105488, Note_on_c, 0, 77, 72
1, 105488, Control_c, 0, 64, 0
1, 105548, Control_c, 0, 64, 56
1, 105551, Note_off_c, 0, 56, 60
1, 105561, Note_on_c, 0, 61, 57
1, 105562, Control_c, 0, 64, 65
1, 105577, Control_c, 0, 64, 71
1, 105592, Control_c, 0, 64, 77
1, 105607, Control_c, 0, 64, 81
1, 105617, Note_on_c, 0, 65, 61
1, 105622, Control_c, 0, 64, 82
1, 105631, Note_off_c, 0, 61, 62
1, 105668, Note_off_c, 0, 77, 56
1, 105688, Control_c, 0, 64, 83
1, 105696, Note_on_c, 0, 68, 66
1, 105703, Control_c, 0, 64, 83
1, 105709, Note_on_c, 0, 80, 88
1, 105718, Control_c, 0, 64, 84
1, 105750, Note_off_c, 0, 65, 0
1, 105771, Note_off_c, 0, 68, 58
1, 105788, Poly_aftertouch_c, 0, 65, 127
1, 105834, Note_on_c, 0, 68, 81
1, 105836, Note_on_c, 0, 61, 59
1, 105855, Poly_aftertouch_c, 0, 65, 0
1, 105887, Note_off_c, 0, 80, 58
1, 105912, Note_off_c, 0, 61, 61
1, 106044, Control_c, 0, 64, 82
1, 106045, Note_on_c, 0, 54, 54
1, 106059, Control_c, 0, 64, 72
1, 106073, Control_c, 0, 64, 44
1, 106084, Note_on_c, 0, 80, 71
1, 106088, Control_c, 0, 64, 0
1, 106139, Note_on_c, 0, 56, 48
1, 106147, Control_c, 0, 64, 57
1, 106157, Note_off_c, 0, 54, 53
1, 106162, Control_c, 0, 64, 68
1, 106177, Control_c, 0, 64, 74
1, 106192, Control_c, 0, 64, 82
1, 106194, Note_on_c, 0, 60, 61
1, 106206, Control_c, 0, 64, 86
1, 106209, Note_off_c, 0, 68, 62
1, 106216, Note_off_c, 0, 56, 54
1, 106221, Control_c, 0, 64, 87
1, 106236, Control_c, 0, 64, 88
1, 106251, Control_c, 0, 64, 89
1, 106263, Note_off_c, 0, 60, 60
1, 106265, Note_off_c, 0, 80, 62
1, 106266, Control_c, 0, 64, 90
1, 106273, Note_on_c, 0, 63, 64
1, 106282, Control_c, 0, 64, 92
1, 106296, Control_c, 0, 64, 93
1, 106311, Control_c, 0, 64, 94
1, 106326, Control_c, 0, 64, 95
1, 106341, Control_c, 0, 64, 96
1, 106352, Note_on_c, 0, 72, 88
1, 106353, Note_off_c, 0, 63, 58
1, 106355, Control_c, 0, 64, 97
1, 106358, Note_on_c, 0, 60, 53
1, 106370, Control_c, 0, 64, 98
1, 106385, Control_c, 0, 64, 99
1, 106408, Control_c, 0, 64, 99
1, 106423, Control_c, 0, 64, 100
1, 106437, Control_c, 0, 64, 101
1, 106442, Note_off_c, 0, 60, 59
1, 106445, Note_on_c, 0, 56, 55
1, 106452, Control_c, 0, 64, 102
1, 106467, Control_c, 0, 64, 103
1, 106482, Control_c, 0, 64, 103
1, 106496, Control_c, 0, 64, 104
1, 106510, Control_c, 0, 64, 105
1, 106525, Control_c, 0, 64, 106
1, 106540, Control_c, 0, 64, 107
1, 106555, Control_c, 0, 64, 108
1, 106558, Note_off_c, 0, 56, 60
1, 106570, Control_c, 0, 64, 109
1, 106579, Note_on_c, 0, 54, 54
1, 106585, Control_c, 0, 64, 111
1, 106600, Control_c, 0, 64, 112
1, 106612, Note_on_c, 0, 84, 69
1, 106615, Control_c, 0, 64, 114
1, 106629, Control_c, 0, 64, 116
1, 106644, Control_c, 0, 64, 120
1, 106659, Control_c, 0, 64, 124
1, 106669, Note_off_c, 0, 72, 66
1, 106674, Control_c, 0, 64, 127
1, 106676, Note_on_c, 0, 56, 50
1, 106677, Note_off_c, 0, 54, 51
1, 106694, Note_off_c, 0, 84, 63
1, 106731, Note_off_c, 0, 56, 57
1, 106745, Note_on_c, 0, 60, 52
1, 106793, Note_on_c, 0, 82, 86
1, 106797, Note_on_c, 0, 70, 80
1, 106797, Note_off_c, 0, 60, 55
1, 106807, Note_on_c, 0, 63, 62
1, 106878, Note_off_c, 0, 63, 61
1, 106888, Note_on_c, 0, 60, 34
1, 106891, Note_off_c, 0, 82, 59
1, 106892, Note_off_c, 0, 70, 57
1, 106940, Note_off_c, 0, 60, 55
1, 106952, Note_on_c, 0, 56, 49
1, 107008, Note_on_c, 0, 80, 74
1, 107019, Note_on_c, 0, 68, 69
1, 107032, Note_off_c, 0, 80, 67
1, 107036, Note_off_c, 0, 68, 65
1, 107044, Control_c, 0, 64, 111
1, 107051, Note_off_c, 0, 56, 59
1, 107059, Control_c, 0, 64, 92
1, 107074, Control_c, 0, 64, 73
1, 107075, Note_on_c, 0, 53, 56
1, 107089, Control_c, 0, 64, 0
1, 107095, Note_on_c, 0, 80, 84
1, 107101, Note_on_c, 0, 68, 83
1, 107133, Control_c, 0, 64, 51
1, 107156, Control_c, 0, 64, 64
1, 107162, Note_off_c, 0, 53, 63
1, 107171, Control_c, 0, 64, 69
1, 107185, Control_c, 0, 64, 75
1, 107190, Note_on_c, 0, 56, 50
1, 107200, Control_c, 0, 64, 82
1, 107215, Control_c, 0, 64, 86
1, 107230, Note_off_c, 0, 56, 62
1, 107230, Control_c, 0, 64, 87
1, 107236, Note_on_c, 0, 61, 64
1, 107256, Note_off_c, 0, 68, 60
1, 107259, Control_c, 0, 64, 88
1, 107274, Control_c, 0, 64, 89
1, 107289, Control_c, 0, 64, 90
1, 107298, Note_off_c, 0, 61, 58
1, 107303, Control_c, 0, 64, 91
1, 107304, Note_on_c, 0, 65, 59
1, 107333, Control_c, 0, 64, 91
1, 107348, Control_c, 0, 64, 92
1, 107363, Control_c, 0, 64, 92
1, 107366, Note_on_c, 0, 61, 49
1, 107369, Note_off_c, 0, 65, 60
1, 107378, Control_c, 0, 64, 93
1, 107393, Control_c, 0, 64, 93
1, 107408, Control_c, 0, 64, 94
1, 107420, Note_on_c, 0, 56, 59
1, 107423, Note_off_c, 0, 61, 60
1, 107437, Control_c, 0, 64, 95
1, 107467, Control_c, 0, 64, 95
1, 107482, Control_c, 0, 64, 96
1, 107496, Control_c, 0, 64, 96
1, 107507, Note_off_c, 0, 56, 63
1, 107526, Control_c, 0, 64, 97
1, 107529, Note_on_c, 0, 53, 54
1, 107534, Note_on_c, 0, 73, 90
1, 107535, Note_on_c, 0, 85, 90
1, 107541, Control_c, 0, 64, 97
1, 107556, Control_c, 0, 64, 98
1, 107570, Control_c, 0, 64, 98
1, 107585, Note_off_c, 0, 53, 66
1, 107585, Control_c, 0, 64, 99
1, 107592, Note_on_c, 0, 56, 59
1, 107600, Control_c, 0, 64, 100
1, 107615, Control_c, 0, 64, 101
1, 107630, Control_c, 0, 64, 103
1, 107644, Control_c, 0, 64, 105
1, 107654, Note_on_c, 0, 61, 67
1, 107659, Control_c, 0, 64, 107
1, 107661, Note_off_c, 0, 56, 64
1, 107674, Control_c, 0, 64, 108
1, 107689, Control_c, 0, 64, 111
1, 107703, Control_c, 0, 64, 114
1, 107707, Note_off_c, 0, 61, 63
1, 107718, Control_c, 0, 64, 117
1, 107733, Note_off_c, 0, 85, 59
1, 107733, Control_c, 0, 64, 119
1, 107734, Note_on_c, 0, 68, 69
1, 107747, Note_off_c, 0, 73, 57
1, 107748, Control_c, 0, 64, 121
1, 107762, Control_c, 0, 64, 122
1, 107763, Note_off_c, 0, 80, 61
1, 107777, Control_c, 0, 64, 123
1, 107799, Note_off_c, 0, 68, 62
1, 107822, Note_on_c, 0, 61, 49
1, 107846, Note_off_c, 0, 61, 55
1, 107867, Note_on_c, 0, 60, 27
1, 107882, Note_on_c, 0, 56, 60
1, 107882, Control_c, 0, 64, 122
1, 107908, Note_off_c, 0, 60, 42
1, 107949, Control_c, 0, 64, 121
1, 107964, Control_c, 0, 64, 114
1, 107972, Note_off_c, 0, 56, 63
1, 107980, Control_c, 0, 64, 96
1, 107984, Note_on_c, 0, 51, 64
1, 107994, Control_c, 0, 64, 76
1, 108004, Note_on_c, 0, 73, 95
1, 108004, Note_on_c, 0, 85, 87
1, 108009, Control_c, 0, 64, 0
1, 108010, Note_on_c, 0, 80, 77
1, 108014, Note_on_c, 0, 78, 75
1, 108039, Control_c, 0, 64, 41
1, 108053, Note_off_c, 0, 51, 62
1, 108054, Control_c, 0, 64, 66
1, 108064, Note_on_c, 0, 56, 57
1, 108069, Control_c, 0, 64, 74
1, 108083, Control_c, 0, 64, 83
1, 108098, Control_c, 0, 64, 90
1, 108113, Control_c, 0, 64, 93
1, 108127, Control_c, 0, 64, 94
1, 108141, Note_off_c, 0, 56, 62
1, 108142, Control_c, 0, 64, 94
1, 108143, Note_on_c, 0, 60, 51
1, 108143, Note_off_c, 0, 85, 61
1, 108144, Note_off_c, 0, 73, 58
1, 108144, Note_off_c, 0, 78, 56
1, 108150, Note_off_c, 0, 80, 59
1, 108201, Control_c, 0, 64, 95
1, 108223, Note_off_c, 0, 60, 52
1, 108231, Note_on_c, 0, 66, 60
1, 108238, Note_on_c, 0, 72, 78
1, 108248, Note_on_c, 0, 84, 65
1, 108258, Note_off_c, 0, 72, 72
1, 108263, Note_off_c, 0, 84, 67
1, 108284, Note_off_c, 0, 66, 63
1, 108307, Note_on_c, 0, 60, 37
1, 108309, Note_on_c, 0, 78, 75
1, 108311, Note_on_c, 0, 72, 100
1, 108312, Note_on_c, 0, 80, 88
1, 108317, Note_on_c, 0, 84, 86
1, 108348, Note_off_c, 0, 60, 61
1, 108355, Note_on_c, 0, 56, 58
1, 108389, Note_off_c, 0, 72, 58
1, 108389, Note_off_c, 0, 84, 61
1, 108418, Note_off_c, 0, 80, 53
1, 108465, Note_off_c, 0, 56, 57
1, 108489, Note_off_c, 0, 78, 0
1, 108489, Note_on_c, 0, 78, 37
1, 108493, Note_on_c, 0, 80, 83
1, 108497, Note_on_c, 0, 72, 96
1, 108503, Note_on_c, 0, 51, 60
1, 108513, Control_c, 0, 64, 95
1, 108527, Control_c, 0, 64, 96
1, 108528, Note_on_c, 0, 84, 40
1, 108542, Control_c, 0, 64, 98
1, 108545, Note_off_c, 0, 72, 60
1, 108555, Note_off_c, 0, 84, 56
1, 108557, Control_c, 0, 64, 99
1, 108572, Control_c, 0, 64, 100
1, 108580, Note_off_c, 0, 78, 62
1, 108582, Note_off_c, 0, 80, 62
1, 108585, Note_off_c, 0, 51, 60
1, 108587, Control_c, 0, 64, 101
1, 108596, Note_on_c, 0, 56, 54
1, 108601, Control_c, 0, 64, 102
1, 108616, Control_c, 0, 64, 103
1, 108631, Control_c, 0, 64, 103
1, 108669, Control_c, 0, 64, 104
1, 108685, Note_off_c, 0, 56, 62
1, 108697, Note_on_c, 0, 60, 49
1, 108704, Note_on_c, 0, 82, 82
1, 108707, Note_on_c, 0, 70, 88
1, 108725, Note_off_c, 0, 82, 69
1, 108725, Note_off_c, 0, 70, 74
1, 108752, Note_on_c, 0, 66, 77
1, 108772, Note_off_c, 0, 60, 55
1, 108776, Note_on_c, 0, 68, 94
1, 108799, Poly_aftertouch_c, 0, 80, 127
1, 108807, Note_off_c, 0, 66, 66
1, 108813, Note_off_c, 0, 68, 64
1, 108824, Note_on_c, 0, 60, 28
1, 108838, Poly_aftertouch_c, 0, 80, 0
1, 108877, Control_c, 0, 64, 103
1, 108879, Note_off_c, 0, 60, 59
1, 108891, Note_on_c, 0, 56, 58
1, 108906, Control_c, 0, 64, 103
1, 108980, Control_c, 0, 64, 102
1, 108987, Note_off_c, 0, 56, 60
1, 108995, Control_c, 0, 64, 96
1, 109000, Note_on_c, 0, 80, 95
1, 109003, Note_on_c, 0, 89, 90
1, 109007, Note_on_c, 0, 77, 93
1, 109010, Control_c, 0, 64, 81
1, 109016, Note_on_c, 0, 50, 57
1, 109024, Control_c, 0, 64, 44
1, 109039, Control_c, 0, 64, 0
1, 109083, Control_c, 0, 64, 44
1, 109098, Note_off_c, 0, 50, 63
1, 109098, Control_c, 0, 64, 64
1, 109104, Note_on_c, 0, 56, 63
1, 109113, Control_c, 0, 64, 71
1, 109128, Control_c, 0, 64, 82
1, 109143, Control_c, 0, 64, 93
1, 109157, Control_c, 0, 64, 100
1, 109172, Control_c, 0, 64, 104
1, 109177, Note_on_c, 0, 59, 69
1, 109187, Control_c, 0, 64, 110
1, 109195, Note_off_c, 0, 56, 64
1, 109202, Note_off_c, 0, 77, 60
1, 109202, Control_c, 0, 64, 119
1, 109217, Control_c, 0, 64, 127
1, 109217, Note_off_c, 0, 89, 62
1, 109237, Note_off_c, 0, 80, 61
1, 109241, Note_off_c, 0, 59, 61
1, 109245, Note_on_c, 0, 65, 73
1, 109311, Note_off_c, 0, 65, 62
1, 109312, Note_on_c, 0, 59, 56
1, 109376, Note_on_c, 0, 56, 65
1, 109393, Note_off_c, 0, 59, 61
1, 109432, Control_c, 0, 64, 116
1, 109447, Control_c, 0, 64, 96
1, 109456, Note_on_c, 0, 80, 88
1, 109460, Note_on_c, 0, 89, 94
1, 109461, Note_on_c, 0, 77, 93
1, 109461, Control_c, 0, 64, 78
1, 109470, Note_off_c, 0, 56, 64
1, 109476, Note_on_c, 0, 50, 66
1, 109477, Control_c, 0, 64, 51
1, 109491, Control_c, 0, 64, 0
1, 109506, Control_c, 0, 64, 49
1, 109521, Control_c, 0, 64, 65
1, 109536, Control_c, 0, 64, 71
1, 109551, Control_c, 0, 64, 79
1, 109566, Note_off_c, 0, 50, 63
1, 109566, Control_c, 0, 64, 89
1, 109568, Note_on_c, 0, 56, 73
1, 109581, Control_c, 0, 64, 96
1, 109596, Control_c, 0, 64, 100
1, 109611, Control_c, 0, 64, 102
1, 109619, Note_on_c, 0, 58, 79
1, 109625, Control_c, 0, 64, 105
1, 109640, Control_c, 0, 64, 108
1, 109647, Note_off_c, 0, 56, 64
1, 109655, Control_c, 0, 64, 112
1, 109658, Note_off_c, 0, 77, 57
1, 109670, Control_c, 0, 64, 114
1, 109682, Note_off_c, 0, 80, 58
1, 109682, Note_off_c, 0, 89, 59
1, 109685, Control_c, 0, 64, 119
1, 109699, Note_on_c, 0, 65, 79
1, 109699, Control_c, 0, 64, 126
1, 109714, Control_c, 0, 64, 127
1, 109719, Note_off_c, 0, 58, 61
1, 109769, Note_on_c, 0, 80, 101
1, 109770, Note_on_c, 0, 77, 99
1, 109771, Note_on_c, 0, 89, 94
1, 109798, Note_off_c, 0, 65, 62
1, 109803, Note_on_c, 0, 58, 65
1, 109804, Note_on_c, 0, 87, 48
1, 109830, Note_off_c, 0, 87, 50
1, 109852, Poly_aftertouch_c, 0, 85, 127
1, 109882, Note_on_c, 0, 56, 71
1, 109882, Poly_aftertouch_c, 0, 85, 0
1, 109905, Note_off_c, 0, 58, 61
1, 109917, Note_off_c, 0, 80, 56
1, 109936, Note_off_c, 0, 77, 46
1, 109977, Note_off_c, 0, 89, 33
1, 110049, Note_off_c, 0, 56, 64
1, 110064, Note_on_c, 0, 51, 66
1, 110070, Control_c, 0, 64, 123
1, 110084, Control_c, 0, 64, 111
1, 110093, Note_on_c, 0, 80, 83
1, 110096, Note_on_c, 0, 89, 89
1, 110099, Control_c, 0, 64, 95
1, 110101, Note_on_c, 0, 77, 97
1, 110114, Control_c, 0, 64, 75
1, 110129, Control_c, 0, 64, 0
1, 110180, Control_c, 0, 64, 44
1, 110192, Note_on_c, 0, 54, 60
1, 110195, Control_c, 0, 64, 63
1, 110198, Note_off_c, 0, 51, 57
1, 110210, Control_c, 0, 64, 69
1, 110225, Control_c, 0, 64, 76
1, 110240, Control_c, 0, 64, 84
1, 110254, Control_c, 0, 64, 88
1, 110270, Control_c, 0, 64, 90
1, 110285, Control_c, 0, 64, 91
1, 110295, Note_on_c, 0, 58, 62
1, 110300, Control_c, 0, 64, 92
1, 110315, Control_c, 0, 64, 93
1, 110317, Note_off_c, 0, 54, 61
1, 110329, Control_c, 0, 64, 95
1, 110344, Control_c, 0, 64, 96
1, 110359, Control_c, 0, 64, 96
1, 110369, Note_off_c, 0, 58, 62
1, 110374, Control_c, 0, 64, 97
1, 110377, Note_off_c, 0, 89, 63
1, 110379, Note_on_c, 0, 63, 61
1, 110387, Note_off_c, 0, 77, 57
1, 110389, Control_c, 0, 64, 97
1, 110430, Note_off_c, 0, 80, 62
1, 110465, Note_on_c, 0, 58, 54
1, 110478, Note_off_c, 0, 63, 61
1, 110530, Note_on_c, 0, 54, 73
1, 110543, Note_off_c, 0, 58, 61
1, 110585, Note_off_c, 0, 54, 61
1, 110641, Control_c, 0, 64, 96
1, 110651, Note_on_c, 0, 42, 75
1, 110656, Control_c, 0, 64, 89
1, 110670, Control_c, 0, 64, 75
1, 110681, Note_on_c, 0, 87, 78
1, 110685, Control_c, 0, 64, 46
1, 110690, Note_on_c, 0, 75, 69
1, 110690, Note_on_c, 0, 78, 73
1, 110700, Control_c, 0, 64, 0
1, 110703, Note_off_c, 0, 42, 59
1, 110729, Control_c, 0, 64, 51
1, 110740, Note_on_c, 0, 54, 61
1, 110744, Control_c, 0, 64, 66
1, 110759, Control_c, 0, 64, 73
1, 110774, Control_c, 0, 64, 81
1, 110787, Note_off_c, 0, 54, 51
1, 110788, Control_c, 0, 64, 88
1, 110799, Note_off_c, 0, 87, 61
1, 110803, Control_c, 0, 64, 92
1, 110817, Note_off_c, 0, 75, 64
1, 110818, Control_c, 0, 64, 94
1, 110833, Control_c, 0, 64, 95
1, 110848, Control_c, 0, 64, 97
1, 110852, Note_on_c, 0, 58, 60
1, 110862, Control_c, 0, 64, 100
1, 110877, Control_c, 0, 64, 103
1, 110884, Note_on_c, 0, 85, 81
1, 110886, Note_on_c, 0, 73, 86
1, 110900, Control_c, 0, 64, 105
1, 110915, Control_c, 0, 64, 107
1, 110923, Note_off_c, 0, 58, 64
1, 110929, Control_c, 0, 64, 109
1, 110940, Note_off_c, 0, 85, 65
1, 110944, Control_c, 0, 64, 111
1, 110949, Note_off_c, 0, 73, 59
1, 110958, Note_off_c, 0, 78, 62
1, 110958, Note_on_c, 0, 63, 60
1, 110959, Control_c, 0, 64, 113
1, 110973, Control_c, 0, 64, 115
1, 110988, Control_c, 0, 64, 116
1, 111003, Control_c, 0, 64, 117
1, 111017, Control_c, 0, 64, 117
1, 111020, Note_off_c, 0, 63, 64
1, 111038, Note_on_c, 0, 58, 51
1, 111077, Note_off_c, 0, 58, 63
1, 111090, Note_on_c, 0, 54, 55
1, 111098, Note_on_c, 0, 70, 73
1, 111101, Note_on_c, 0, 78, 64
1, 111107, Note_on_c, 0, 82, 64
1, 111124, Note_off_c, 0, 70, 67
1, 111134, Note_off_c, 0, 78, 64
1, 111137, Note_off_c, 0, 82, 65
1, 111148, Note_off_c, 0, 54, 61
1, 111152, Control_c, 0, 64, 113
1, 111167, Control_c, 0, 64, 98
1, 111181, Control_c, 0, 64, 80
1, 111196, Control_c, 0, 64, 46
1, 111207, Note_on_c, 0, 84, 76
1, 111211, Control_c, 0, 64, 0
1, 111214, Note_on_c, 0, 44, 58
1, 111215, Note_on_c, 0, 80, 67
1, 111216, Note_on_c, 0, 72, 65
1, 111241, Control_c, 0, 64, 44
1, 111256, Control_c, 0, 64, 63
1, 111271, Control_c, 0, 64, 68
1, 111273, Note_off_c, 0, 44, 60
1, 111276, Note_on_c, 0, 53, 55
1, 111285, Control_c, 0, 64, 75
1, 111300, Control_c, 0, 64, 84
1, 111315, Control_c, 0, 64, 90
1, 111330, Control_c, 0, 64, 92
1, 111344, Control_c, 0, 64, 93
1, 111345, Note_off_c, 0, 84, 62
1, 111356, Note_off_c, 0, 72, 60
1, 111358, Note_on_c, 0, 56, 62
1, 111359, Control_c, 0, 64, 94
1, 111360, Note_off_c, 0, 53, 65
1, 111374, Control_c, 0, 64, 96
1, 111389, Control_c, 0, 64, 99
1, 111400, Note_off_c, 0, 80, 62
1, 111404, Control_c, 0, 64, 101
1, 111407, Note_off_c, 0, 56, 59
1, 111418, Control_c, 0, 64, 103
1, 111435, Note_on_c, 0, 61, 62
1, 111491, Note_off_c, 0, 61, 62
1, 111494, Note_on_c, 0, 56, 55
1, 111551, Note_off_c, 0, 56, 63
1, 111565, Note_on_c, 0, 53, 44
1, 111614, Note_off_c, 0, 53, 66
1, 111626, Control_c, 0, 64, 98
1, 111648, Control_c, 0, 64, 86
1, 111655, Note_on_c, 0, 44, 58
1, 111655, Note_on_c, 0, 78, 50
1, 111662, Note_on_c, 0, 70, 71
1, 111663, Note_on_c, 0, 82, 69
1, 111663, Control_c, 0, 64, 69
1, 111677, Control_c, 0, 64, 0
1, 111700, Note_off_c, 0, 44, 48
1, 111707, Control_c, 0, 64, 59
1, 111723, Control_c, 0, 64, 66
1, 111729, Note_off_c, 0, 82, 62
1, 111736, Note_on_c, 0, 53, 48
1, 111738, Control_c, 0, 64, 70
1, 111742, Note_off_c, 0, 70, 61
1, 111747, Note_off_c, 0, 78, 62
1, 111752, Control_c, 0, 64, 77
1, 111767, Control_c, 0, 64, 85
1, 111782, Control_c, 0, 64, 90
1, 111797, Control_c, 0, 64, 92
1, 111810, Note_on_c, 0, 68, 79
1, 111810, Note_on_c, 0, 77, 74
1, 111811, Note_on_c, 0, 56, 63
1, 111812, Control_c, 0, 64, 92
1, 111813, Note_on_c, 0, 80, 75
1, 111813, Note_off_c, 0, 53, 63
1, 111826, Control_c, 0, 64, 93
1, 111841, Control_c, 0, 64, 94
1, 111856, Control_c, 0, 64, 94
1, 111861, Note_off_c, 0, 56, 59
1, 111864, Note_off_c, 0, 68, 63
1, 111872, Note_off_c, 0, 80, 62
1, 111872, Control_c, 0, 64, 95
1, 111888, Note_on_c, 0, 61, 51
1, 111900, Note_off_c, 0, 77, 58
1, 111931, Note_off_c, 0, 61, 61
1, 111931, Control_c, 0, 64, 95
1, 111946, Note_on_c, 0, 56, 50
1, 111950, Note_on_c, 0, 77, 58
1, 111951, Note_on_c, 0, 70, 80
1, 111954, Note_on_c, 0, 82, 72
1, 112003, Note_off_c, 0, 56, 59
1, 112007, Note_on_c, 0, 53, 52
1, 112025, Note_off_c, 0, 70, 61
1, 112049, Note_off_c, 0, 82, 61
1, 112088, Note_off_c, 0, 53, 59
1, 112094, Control_c, 0, 64, 93
1, 112108, Note_off_c, 0, 77, 0
1, 112109, Control_c, 0, 64, 84
1, 112115, Note_on_c, 0, 44, 61
1, 112118, Note_on_c, 0, 77, 45
1, 112123, Control_c, 0, 64, 68
1, 112128, Note_on_c, 0, 83, 71
1, 112135, Note_on_c, 0, 71, 70
1, 112138, Control_c, 0, 64, 0
1, 112183, Control_c, 0, 64, 40
1, 112190, Note_off_c, 0, 44, 62
1, 112192, Note_on_c, 0, 53, 60
1, 112198, Control_c, 0, 64, 63
1, 112213, Control_c, 0, 64, 70
1, 112228, Control_c, 0, 64, 78
1, 112242, Control_c, 0, 64, 86
1, 112252, Note_off_c, 0, 71, 59
1, 112256, Note_off_c, 0, 83, 55
1, 112257, Control_c, 0, 64, 91
1, 112272, Control_c, 0, 64, 92
1, 112277, Note_on_c, 0, 56, 60
1, 112286, Control_c, 0, 64, 93
1, 112301, Control_c, 0, 64, 95
1, 112316, Control_c, 0, 64, 96
1, 112320, Note_off_c, 0, 77, 56
1, 112331, Control_c, 0, 64, 97
1, 112346, Control_c, 0, 64, 98
1, 112347, Note_off_c, 0, 53, 36
1, 112359, Note_off_c, 0, 56, 56
1, 112364, Note_on_c, 0, 62, 55
1, 112420, Note_on_c, 0, 70, 79
1, 112422, Note_on_c, 0, 82, 72
1, 112423, Note_on_c, 0, 77, 71
1, 112436, Note_off_c, 0, 62, 53
1, 112457, Note_on_c, 0, 56, 22
1, 112483, Note_on_c, 0, 53, 61
1, 112499, Note_off_c, 0, 56, 53
1, 112510, Note_off_c, 0, 70, 61
1, 112514, Note_off_c, 0, 82, 63
1, 112546, Control_c, 0, 64, 97
1, 112560, Control_c, 0, 64, 95
1, 112570, Note_off_c, 0, 53, 61
1, 112575, Control_c, 0, 64, 84
1, 112576, Note_off_c, 0, 77, 0
1, 112588, Note_on_c, 0, 77, 46
1, 112590, Control_c, 0, 64, 68
1, 112597, Note_on_c, 0, 83, 74
1, 112600, Note_on_c, 0, 44, 68
1, 112601, Note_on_c, 0, 71, 74
1, 112605, Control_c, 0, 64, 0
1, 112649, Control_c, 0, 64, 54
1, 112664, Note_off_c, 0, 44, 63
1, 112665, Control_c, 0, 64, 67
1, 112674, Note_on_c, 0, 53, 63
1, 112680, Control_c, 0, 64, 74
1, 112695, Control_c, 0, 64, 84
1, 112710, Control_c, 0, 64, 90
1, 112724, Control_c, 0, 64, 92
1, 112739, Control_c, 0, 64, 92
1, 112743, Note_on_c, 0, 56, 67
1, 112754, Control_c, 0, 64, 93
1, 112755, Note_off_c, 0, 53, 63
1, 112769, Control_c, 0, 64, 95
1, 112784, Control_c, 0, 64, 97
1, 112796, Note_off_c, 0, 56, 62
1, 112798, Control_c, 0, 64, 98
1, 112813, Control_c, 0, 64, 100
1, 112819, Note_on_c, 0, 62, 56
1, 112828, Control_c, 0, 64, 101
1, 112843, Control_c, 0, 64, 102
1, 112858, Control_c, 0, 64, 104
1, 112872, Control_c, 0, 64, 106
1, 112874, Note_off_c, 0, 62, 60
1, 112881, Note_on_c, 0, 56, 61
1, 112887, Control_c, 0, 64, 107
1, 112902, Control_c, 0, 64, 109
1, 112916, Control_c, 0, 64, 112
1, 112931, Control_c, 0, 64, 115
1, 112946, Control_c, 0, 64, 119
1, 112947, Note_on_c, 0, 53, 61
1, 112947, Note_off_c, 0, 56, 62
1, 112961, Control_c, 0, 64, 123
1, 112976, Control_c, 0, 64, 127
1, 113009, Note_off_c, 0, 53, 64
1, 113025, Note_on_c, 0, 44, 72
1, 113045, Note_off_c, 0, 83, 47
1, 113062, Note_off_c, 0, 71, 56
1, 113095, Note_off_c, 0, 44, 62
1, 113107, Note_on_c, 0, 53, 66
1, 113125, Poly_aftertouch_c, 0, 49, 0
1, 113188, Note_off_c, 0, 77, 31
1, 113191, Note_on_c, 0, 56, 59
1, 113217, Note_off_c, 0, 53, 61
1, 113237, Note_on_c, 0, 62, 64
1, 113280, Note_off_c, 0, 56, 43
1, 113290, Note_on_c, 0, 77, 53
1, 113295, Note_on_c, 0, 70, 80
1, 113295, Note_off_c, 0, 62, 55
1, 113295, Note_on_c, 0, 82, 80
1, 113346, Note_on_c, 0, 53, 64
1, 113372, Note_off_c, 0, 70, 61
1, 113381, Note_off_c, 0, 82, 62
1, 113395, Note_off_c, 0, 77, 59
1, 113425, Note_off_c, 0, 53, 60
1, 113437, Note_on_c, 0, 77, 74
1, 113441, Note_on_c, 0, 71, 90
1, 113445, Note_on_c, 0, 83, 77
1, 113454, Note_on_c, 0, 44, 69
1, 113498, Note_off_c, 0, 71, 60
1, 113500, Note_off_c, 0, 83, 61
1, 113513, Note_off_c, 0, 44, 60
1, 113537, Note_on_c, 0, 53, 64
1, 113537, Note_off_c, 0, 77, 61
1, 113551, Poly_aftertouch_c, 0, 80, 0
1, 113570, Note_on_c, 0, 77, 76
1, 113573, Note_on_c, 0, 70, 95
1, 113587, Note_on_c, 0, 82, 78
1, 113596, Note_on_c, 0, 56, 57
1, 113638, Note_off_c, 0, 53, 60
1, 113639, Note_off_c, 0, 70, 58
1, 113642, Note_off_c, 0, 82, 62
1, 113658, Note_on_c, 0, 62, 67
1, 113658, Note_off_c, 0, 77, 60
1, 113697, Note_off_c, 0, 56, 51
1, 113701, Note_on_c, 0, 77, 79
1, 113702, Note_off_c, 0, 62, 55
1, 113705, Note_on_c, 0, 71, 97
1, 113712, Note_on_c, 0, 83, 78
1, 113747, Note_on_c, 0, 53, 47
1, 113782, Note_off_c, 0, 71, 57
1, 113784, Note_off_c, 0, 83, 58
1, 113786, Note_off_c, 0, 53, 64
1, 113791, Note_off_c, 0, 77, 62
1, 113873, Control_c, 0, 64, 99
1, 113882, Note_on_c, 0, 71, 99
1, 113892, Note_on_c, 0, 83, 92
1, 113895, Control_c, 0, 64, 78
1, 113897, Note_on_c, 0, 78, 96
1, 113910, Control_c, 0, 64, 0
1, 113915, Note_on_c, 0, 44, 48
1, 113939, Control_c, 0, 64, 55
1, 113954, Control_c, 0, 64, 67
1, 113965, Note_off_c, 0, 44, 58
1, 113969, Control_c, 0, 64, 76
1, 113978, Note_on_c, 0, 51, 74
1, 113984, Control_c, 0, 64, 87
1, 113999, Control_c, 0, 64, 98
1, 114000, Note_off_c, 0, 83, 58
1, 114009, Note_off_c, 0, 71, 60
1, 114013, Control_c, 0, 64, 101
1, 114028, Control_c, 0, 64, 102
1, 114036, Note_off_c, 0, 78, 63
1, 114043, Control_c, 0, 64, 104
1, 114045, Note_on_c, 0, 54, 62
1, 114056, Note_off_c, 0, 51, 62
1, 114058, Control_c, 0, 64, 105
1, 114073, Control_c, 0, 64, 106
1, 114088, Control_c, 0, 64, 107
1, 114103, Control_c, 0, 64, 107
1, 114103, Note_off_c, 0, 54, 54
1, 114106, Note_on_c, 0, 63, 74
1, 114118, Control_c, 0, 64, 108
1, 114147, Control_c, 0, 64, 108
1, 114162, Note_on_c, 0, 78, 70
1, 114166, Note_on_c, 0, 70, 93
1, 114169, Note_on_c, 0, 82, 92
1, 114186, Note_off_c, 0, 63, 62
1, 114189, Note_off_c, 0, 70, 67
1, 114192, Control_c, 0, 64, 109
1, 114203, Note_on_c, 0, 54, 62
1, 114207, Note_on_c, 0, 83, 69
1, 114212, Note_off_c, 0, 78, 64
1, 114215, Note_off_c, 0, 82, 62
1, 114221, Control_c, 0, 64, 109
1, 114229, Note_off_c, 0, 83, 63
1, 114251, Note_off_c, 0, 54, 55
1, 114261, Note_on_c, 0, 51, 54
1, 114341, Control_c, 0, 64, 108
1, 114355, Control_c, 0, 64, 98
1, 114357, Note_off_c, 0, 51, 60
1, 114367, Note_on_c, 0, 82, 101
1, 114370, Control_c, 0, 64, 78
1, 114371, Note_on_c, 0, 94, 97
1, 114377, Note_on_c, 0, 90, 86
1, 114379, Note_on_c, 0, 44, 69
1, 114385, Control_c, 0, 64, 0
1, 114429, Control_c, 0, 64, 60
1, 114444, Control_c, 0, 64, 70
1, 114445, Note_off_c, 0, 44, 62
1, 114457, Note_on_c, 0, 51, 72
1, 114459, Control_c, 0, 64, 83
1, 114474, Control_c, 0, 64, 103
1, 114488, Control_c, 0, 64, 113
1, 114503, Control_c, 0, 64, 113
1, 114515, Note_on_c, 0, 54, 63
1, 114518, Control_c, 0, 64, 114
1, 114533, Control_c, 0, 64, 115
1, 114538, Note_off_c, 0, 94, 62
1, 114541, Note_off_c, 0, 51, 61
1, 114544, Note_off_c, 0, 82, 61
1, 114548, Control_c, 0, 64, 117
1, 114562, Control_c, 0, 64, 118
1, 114573, Note_off_c, 0, 90, 62
1, 114575, Note_off_c, 0, 54, 62
1, 114577, Control_c, 0, 64, 119
1, 114592, Control_c, 0, 64, 119
1, 114595, Note_on_c, 0, 63, 70
1, 114622, Control_c, 0, 64, 120
1, 114659, Control_c, 0, 64, 120
1, 114682, Note_off_c, 0, 63, 63
1, 114687, Note_on_c, 0, 54, 60
1, 114732, Note_on_c, 0, 51, 68
1, 114739, Note_off_c, 0, 54, 61
1, 114762, Control_c, 0, 64, 121
1, 114776, Control_c, 0, 64, 121
1, 114788, Note_on_c, 0, 44, 78
1, 114788, Note_off_c, 0, 51, 63
1, 114791, Control_c, 0, 64, 122
1, 114806, Control_c, 0, 64, 123
1, 114821, Control_c, 0, 64, 124
1, 114836, Control_c, 0, 64, 125
1, 114851, Control_c, 0, 64, 126
1, 114853, Note_off_c, 0, 44, 61
1, 114860, Note_on_c, 0, 51, 68
1, 114866, Control_c, 0, 64, 126
1, 114881, Control_c, 0, 64, 127
1, 114895, Control_c, 0, 64, 127
1, 114948, Note_off_c, 0, 51, 58
1, 114964, Note_on_c, 0, 54, 26
1, 114991, Note_on_c, 0, 72, 80
1, 114991, Note_on_c, 0, 78, 83
1, 114995, Note_on_c, 0, 84, 75
1, 114997, Note_on_c, 0, 60, 60
1, 115001, Note_off_c, 0, 54, 44
1, 115011, Note_off_c, 0, 72, 72
1, 115011, Note_off_c, 0, 78, 69
1, 115017, Note_off_c, 0, 84, 72
1, 115057, Note_off_c, 0, 60, 45
1, 115063, Note_on_c, 0, 84, 95
1, 115066, Note_on_c, 0, 72, 98
1, 115066, Note_on_c, 0, 78, 95
1, 115100, Note_on_c, 0, 51, 57
1, 115149, Note_off_c, 0, 72, 60
1, 115166, Note_off_c, 0, 84, 62
1, 115192, Note_off_c, 0, 78, 59
1, 115213, Note_off_c, 0, 51, 63
1, 115230, Note_on_c, 0, 84, 86
1, 115232, Note_on_c, 0, 78, 81
1, 115234, Note_on_c, 0, 72, 101
1, 115235, Note_on_c, 0, 44, 77
1, 115269, Note_off_c, 0, 72, 64
1, 115277, Note_off_c, 0, 78, 64
1, 115290, Note_off_c, 0, 84, 66
1, 115323, Note_off_c, 0, 44, 61
1, 115343, Note_on_c, 0, 51, 61
1, 115432, Note_off_c, 0, 51, 58
1, 115438, Note_on_c, 0, 80, 92
1, 115442, Note_on_c, 0, 89, 80
1, 115443, Note_on_c, 0, 77, 83
1, 115459, Note_on_c, 0, 54, 26
1, 115461, Note_off_c, 0, 89, 72
1, 115462, Note_off_c, 0, 77, 71
1, 115469, Note_off_c, 0, 80, 61
1, 115489, Note_on_c, 0, 60, 52
1, 115508, Note_off_c, 0, 60, 60
1, 115515, Note_on_c, 0, 75, 100
1, 115518, Note_on_c, 0, 87, 81
1, 115526, Note_off_c, 0, 54, 36
1, 115545, Note_on_c, 0, 78, 52
1, 115546, Note_off_c, 0, 78, 127
1, 115548, Note_on_c, 0, 51, 68
1, 115549, Note_on_c, 0, 85, 24
1, 115587, Note_off_c, 0, 87, 61
1, 115591, Note_off_c, 0, 51, 58
1, 115601, Note_off_c, 0, 75, 58
1, 115602, Note_off_c, 0, 85, 43
1, 115655, Poly_aftertouch_c, 0, 82, 127
1, 115688, Poly_aftertouch_c, 0, 82, 0
1, 115689, Control_c, 0, 64, 101
1, 115704, Control_c, 0, 64, 73
1, 115718, Note_on_c, 0, 37, 83
1, 115718, Control_c, 0, 64, 0
1, 115720, Note_on_c, 0, 73, 99
1, 115721, Note_on_c, 0, 77, 87
1, 115723, Note_on_c, 0, 85, 91
1, 115763, Control_c, 0, 64, 61
1, 115771, Note_off_c, 0, 37, 60
1, 115778, Control_c, 0, 64, 72
1, 115793, Control_c, 0, 64, 84
1, 115797, Note_off_c, 0, 85, 64
1, 115799, Note_off_c, 0, 73, 64
1, 115808, Control_c, 0, 64, 97
1, 115823, Control_c, 0, 64, 105
1, 115824, Note_off_c, 0, 77, 59
1, 115837, Control_c, 0, 64, 106
1, 115852, Control_c, 0, 64, 107
1, 115868, Control_c, 0, 64, 108
1, 115882, Control_c, 0, 64, 110
1, 115897, Control_c, 0, 64, 112
1, 115912, Control_c, 0, 64, 113
1, 115927, Control_c, 0, 64, 114
1, 115942, Control_c, 0, 64, 115
1, 115957, Control_c, 0, 64, 116
1, 115987, Control_c, 0, 64, 117
1, 116002, Control_c, 0, 64, 117
1, 116007, Note_on_c, 0, 44, 59
1, 116052, Note_on_c, 0, 53, 64
1, 116077, Note_off_c, 0, 44, 63
1, 116090, Control_c, 0, 64, 118
1, 116152, Note_on_c, 0, 65, 78
1, 116157, Control_c, 0, 64, 118
1, 116161, Note_on_c, 0, 61, 78
1, 116163, Note_off_c, 0, 53, 63
1, 116186, Control_c, 0, 64, 119
1, 116201, Control_c, 0, 64, 120
1, 116203, Note_off_c, 0, 61, 56
1, 116205, Note_off_c, 0, 65, 67
1, 116216, Control_c, 0, 64, 121
1, 116226, Note_on_c, 0, 73, 78
1, 116231, Control_c, 0, 64, 123
1, 116246, Control_c, 0, 64, 125
1, 116260, Control_c, 0, 64, 127
1, 116270, Note_on_c, 0, 80, 85
1, 116284, Note_off_c, 0, 73, 62
1, 116289, Note_off_c, 0, 80, 69
1, 116359, Note_on_c, 0, 77, 85
1, 116390, Note_off_c, 0, 77, 62
1, 116408, Note_on_c, 0, 85, 75
1, 116477, Note_on_c, 0, 94, 89
1, 116487, Note_off_c, 0, 85, 66
1, 116541, Control_c, 0, 64, 106
1, 116548, Note_on_c, 0, 32, 84
1, 116555, Note_on_c, 0, 84, 96
1, 116555, Note_on_c, 0, 92, 104
1, 116556, Control_c, 0, 64, 77
1, 116571, Control_c, 0, 64, 0
1, 116585, Note_off_c, 0, 94, 67
1, 116601, Control_c, 0, 64, 57
1, 116607, Note_off_c, 0, 84, 64
1, 116608, Note_off_c, 0, 32, 64
1, 116616, Control_c, 0, 64, 68
1, 116620, Note_off_c, 0, 92, 63
1, 116631, Control_c, 0, 64, 80
1, 116645, Control_c, 0, 64, 99
1, 116661, Control_c, 0, 64, 123
1, 116676, Control_c, 0, 64, 127
1, 116841, Note_on_c, 0, 44, 57
1, 116902, Note_on_c, 0, 51, 69
1, 116930, Note_off_c, 0, 44, 62
1, 116972, Note_on_c, 0, 66, 85
1, 116973, Note_on_c, 0, 60, 77
1, 116990, Note_off_c, 0, 51, 51
1, 117015, Note_off_c, 0, 60, 59
1, 117048, Note_on_c, 0, 72, 76
1, 117069, Note_off_c, 0, 66, 66
1, 117105, Note_on_c, 0, 80, 80
1, 117116, Note_off_c, 0, 72, 64
1, 117143, Note_off_c, 0, 80, 62
1, 117185, Note_on_c, 0, 78, 90
1, 117245, Note_on_c, 0, 84, 79
1, 117273, Note_off_c, 0, 78, 61
1, 117294, Note_on_c, 0, 92, 85
1, 117310, Note_off_c, 0, 84, 66
1, 117349, Control_c, 0, 64, 122
1, 117364, Control_c, 0, 64, 84
1, 117370, Note_on_c, 0, 37, 79
1, 117371, Note_on_c, 0, 89, 96
1, 117379, Control_c, 0, 64, 0
1, 117380, Note_on_c, 0, 85, 105
1, 117416, Note_off_c, 0, 92, 65
1, 117438, Control_c, 0, 64, 64
1, 117443, Note_off_c, 0, 37, 63
1, 117453, Control_c, 0, 64, 79
1, 117465, Note_off_c, 0, 85, 64
1, 117468, Note_on_c, 0, 86, 54
1, 117468, Control_c, 0, 64, 98
1, 117474, Note_off_c, 0, 89, 66
1, 117483, Control_c, 0, 64, 120
1, 117489, Note_off_c, 0, 86, 58
1, 117498, Control_c, 0, 64, 127
1, 117513, Control_c, 0, 64, 127
1, 117677, Note_on_c, 0, 44, 63
1, 117720, Note_on_c, 0, 53, 66
1, 117763, Note_off_c, 0, 44, 63
1, 117797, Note_on_c, 0, 65, 79
1, 117817, Note_on_c, 0, 61, 79
1, 117844, Note_off_c, 0, 61, 61
1, 117848, Note_off_c, 0, 65, 67
1, 117861, Note_on_c, 0, 73, 75
1, 117870, Note_off_c, 0, 53, 32
1, 117908, Note_on_c, 0, 80, 82
1, 117918, Note_off_c, 0, 73, 65
1, 117929, Note_off_c, 0, 80, 68
1, 117992, Note_on_c, 0, 77, 81
1, 118026, Note_off_c, 0, 77, 59
1, 118045, Note_on_c, 0, 85, 82
1, 118121, Note_on_c, 0, 94, 89
1, 118123, Note_off_c, 0, 85, 63
1, 118172, Control_c, 0, 64, 109
1, 118184, Note_on_c, 0, 32, 78
1, 118187, Control_c, 0, 64, 78
1, 118198, Note_on_c, 0, 92, 100
1, 118200, Note_on_c, 0, 84, 89
1, 118201, Control_c, 0, 64, 0
1, 118227, Note_off_c, 0, 94, 66
1, 118231, Control_c, 0, 64, 48
1, 118246, Control_c, 0, 64, 68
1, 118252, Note_off_c, 0, 32, 63
1, 118261, Note_off_c, 0, 84, 63
1, 118261, Control_c, 0, 64, 83
1, 118276, Control_c, 0, 64, 110
1, 118280, Note_off_c, 0, 92, 64
1, 118291, Control_c, 0, 64, 127
1, 118478, Note_on_c, 0, 44, 53
1, 118523, Note_on_c, 0, 51, 73
1, 118564, Note_off_c, 0, 44, 63
1, 118601, Note_on_c, 0, 60, 81
1, 118603, Note_on_c, 0, 66, 88
1, 118628, Note_off_c, 0, 60, 63
1, 118640, Note_off_c, 0, 51, 48
1, 118674, Note_off_c, 0, 66, 65
1, 118678, Note_on_c, 0, 72, 76
1, 118727, Note_on_c, 0, 80, 80
1, 118735, Note_off_c, 0, 72, 65
1, 118767, Note_off_c, 0, 80, 67
1, 118816, Note_on_c, 0, 78, 86
1, 118873, Note_off_c, 0, 78, 62
1, 118885, Note_on_c, 0, 85, 53
1, 118899, Note_on_c, 0, 84, 82
1, 118907, Note_off_c, 0, 85, 62
1, 118953, Note_on_c, 0, 92, 75
1, 118976, Note_off_c, 0, 84, 63
1, 119040, Control_c, 0, 64, 92
1, 119045, Note_on_c, 0, 89, 97
1, 119047, Note_on_c, 0, 25, 91
1, 119049, Note_on_c, 0, 85, 102
1, 119056, Control_c, 0, 64, 60
1, 119070, Control_c, 0, 64, 0
1, 119085, Control_c, 0, 64, 22
1, 119088, Note_off_c, 0, 92, 64
1, 119100, Control_c, 0, 64, 65
1, 119111, Note_off_c, 0, 25, 64
1, 119115, Control_c, 0, 64, 77
1, 119137, Control_c, 0, 64, 98
1, 119146, Note_off_c, 0, 89, 67
1, 119152, Control_c, 0, 64, 127
1, 119153, Note_off_c, 0, 85, 62
1, 119347, Note_on_c, 0, 44, 61
1, 119377, Note_on_c, 0, 53, 71
1, 119409, Note_off_c, 0, 44, 62
1, 119462, Note_on_c, 0, 65, 78
1, 119462, Note_on_c, 0, 61, 84
1, 119473, Note_off_c, 0, 53, 65
1, 119493, Note_off_c, 0, 61, 60
1, 119507, Note_off_c, 0, 65, 67
1, 119521, Note_on_c, 0, 73, 72
1, 119567, Note_on_c, 0, 80, 78
1, 119572, Note_off_c, 0, 73, 64
1, 119591, Note_off_c, 0, 80, 70
1, 119656, Note_on_c, 0, 77, 80
1, 119694, Note_off_c, 0, 77, 55
1, 119699, Note_on_c, 0, 85, 80
1, 119773, Note_off_c, 0, 85, 64
1, 119780, Note_on_c, 0, 92, 83
1, 119807, Note_off_c, 0, 92, 57
1, 119852, Note_on_c, 0, 85, 76
1, 119907, Note_on_c, 0, 77, 68
1, 119949, Note_off_c, 0, 85, 65
1, 119966, Note_on_c, 0, 80, 70
1, 119984, Note_off_c, 0, 77, 58
1, 120023, Note_off_c, 0, 80, 66
1, 120029, Note_on_c, 0, 73, 71
1, 120089, Note_on_c, 0, 65, 76
1, 120148, Note_on_c, 0, 68, 73
1, 120154, Note_off_c, 0, 73, 59
1, 120158, Note_off_c, 0, 65, 64
1, 120208, Note_off_c, 0, 68, 63
1, 120236, Note_on_c, 0, 61, 63
1, 120281, Note_off_c, 0, 61, 0
1, 120281, Note_on_c, 0, 61, 25
1, 120300, Note_on_c, 0, 53, 65
1, 120306, Note_off_c, 0, 61, 56
1, 120346, Poly_aftertouch_c, 0, 62, 0
1, 120354, Note_on_c, 0, 56, 70
1, 120369, Note_off_c, 0, 53, 64
1, 120419, Note_off_c, 0, 56, 63
1, 120432, Note_on_c, 0, 49, 74
1, 120512, Note_on_c, 0, 41, 80
1, 120522, Note_off_c, 0, 49, 61
1, 120589, Note_on_c, 0, 49, 84
1, 120604, Note_off_c, 0, 41, 54
1, 120655, Note_on_c, 0, 37, 93
1, 120656, Note_on_c, 0, 25, 86
1, 120664, Note_off_c, 0, 49, 62
1, 120679, Note_off_c, 0, 37, 69
1, 120688, Note_off_c, 0, 25, 63
1, 120698, Note_on_c, 0, 24, 28
1, 120741, Note_off_c, 0, 24, 47
1, 121167, Note_on_c, 0, 85, 103
1, 121168, Note_on_c, 0, 61, 78
1, 121168, Note_on_c, 0, 97, 96
1, 121169, Note_on_c, 0, 73, 97
1, 121204, Note_off_c, 0, 73, 68
1, 121213, Note_off_c, 0, 85, 68
1, 121217, Note_off_c, 0, 61, 64
1, 121218, Note_off_c, 0, 97, 66
1, 122443, Control_c, 0, 64, 90
1, 122458, Control_c, 0, 64, 62
1, 122473, Control_c, 0, 64, 0
1, 123925, Note_on_c, 0, 33, 43
1, 123935, Note_on_c, 0, 64, 53
1, 123937, Note_on_c, 0, 45, 38
1, 123937, Note_on_c, 0, 61, 48
1, 123951, Note_on_c, 0, 52, 37
1, 124030, Control_c, 0, 64, 36
1, 124045, Control_c, 0, 64, 53
1, 124060, Control_c, 0, 64, 60
1, 124074, Control_c, 0, 64, 64
1, 124089, Control_c, 0, 64, 67
1, 124104, Control_c, 0, 64, 71
1, 124119, Control_c, 0, 64, 76
1, 124134, Control_c, 0, 64, 81
1, 124148, Control_c, 0, 64, 84
1, 124163, Control_c, 0, 64, 86
1, 124178, Control_c, 0, 64, 89
1, 124193, Control_c, 0, 64, 92
1, 124208, Control_c, 0, 64, 95
1, 124223, Control_c, 0, 64, 98
1, 124238, Control_c, 0, 64, 100
1, 124253, Control_c, 0, 64, 102
1, 124267, Control_c, 0, 64, 103
1, 124275, Note_off_c, 0, 52, 55
1, 124282, Control_c, 0, 64, 105
1, 124297, Control_c, 0, 64, 108
1, 124312, Control_c, 0, 64, 112
1, 124314, Note_off_c, 0, 64, 60
1, 124327, Control_c, 0, 64, 116
1, 124341, Control_c, 0, 64, 118
1, 124345, Note_off_c, 0, 61, 56
1, 124356, Control_c, 0, 64, 121
1, 124378, Control_c, 0, 64, 123
1, 124393, Control_c, 0, 64, 127
1, 124423, Note_off_c, 0, 45, 41
1, 124482, Note_off_c, 0, 33, 39
1, 124721, Control_c, 0, 64, 121
1, 124733, Note_on_c, 0, 38, 40
1, 124736, Control_c, 0, 64, 111
1, 124751, Control_c, 0, 64, 100
1, 124751, Note_on_c, 0, 54, 49
1, 124751, Note_on_c, 0, 61, 48
1, 124751, Note_on_c, 0, 66, 55
1, 124765, Control_c, 0, 64, 88
1, 124768, Note_on_c, 0, 45, 33
1, 124780, Control_c, 0, 64, 75
1, 124795, Control_c, 0, 64, 51
1, 124810, Control_c, 0, 64, 0
1, 125794, Note_on_c, 0, 59, 41
1, 125834, Note_off_c, 0, 61, 52
1, 126020, Note_on_c, 0, 61, 61
1, 126055, Note_off_c, 0, 59, 58
1, 126218, Note_on_c, 0, 64, 60
1, 126256, Note_off_c, 0, 61, 63
1, 126425, Note_on_c, 0, 62, 65
1, 126450, Note_off_c, 0, 64, 60
1, 126624, Note_off_c, 0, 66, 35
1, 126640, Note_on_c, 0, 61, 64
1, 126658, Note_off_c, 0, 62, 58
1, 126714, Control_c, 0, 64, 56
1, 126729, Control_c, 0, 64, 67
1, 126743, Control_c, 0, 64, 73
1, 126758, Control_c, 0, 64, 83
1, 126759, Note_off_c, 0, 45, 54
1, 126773, Control_c, 0, 64, 92
1, 126788, Control_c, 0, 64, 98
1, 126790, Note_off_c, 0, 54, 37
1, 126803, Control_c, 0, 64, 101
1, 126807, Note_off_c, 0, 61, 57
1, 126818, Control_c, 0, 64, 102
1, 126826, Note_off_c, 0, 38, 38
1, 126833, Control_c, 0, 64, 103
1, 126951, Control_c, 0, 64, 102
1, 126966, Control_c, 0, 64, 102
1, 126981, Note_on_c, 0, 33, 41
1, 126981, Control_c, 0, 64, 100
1, 126988, Note_on_c, 0, 45, 33
1, 126995, Control_c, 0, 64, 96
1, 126997, Note_on_c, 0, 64, 58
1, 127002, Note_on_c, 0, 61, 59
1, 127010, Control_c, 0, 64, 89
1, 127012, Note_on_c, 0, 52, 40
1, 127025, Control_c, 0, 64, 78
1, 127041, Control_c, 0, 64, 65
1, 127056, Control_c, 0, 64, 0
1, 127234, Control_c, 0, 64, 34
1, 127249, Control_c, 0, 64, 54
1, 127263, Control_c, 0, 64, 61
1, 127278, Control_c, 0, 64, 65
1, 127293, Control_c, 0, 64, 68
1, 127308, Control_c, 0, 64, 71
1, 127323, Control_c, 0, 64, 75
1, 127338, Control_c, 0, 64, 79
1, 127353, Control_c, 0, 64, 82
1, 127374, Control_c, 0, 64, 84
1, 127389, Control_c, 0, 64, 86
1, 127404, Control_c, 0, 64, 88
1, 127418, Control_c, 0, 64, 89
1, 127433, Control_c, 0, 64, 91
1, 127446, Note_off_c, 0, 52, 42
1, 127448, Control_c, 0, 64, 92
1, 127457, Note_off_c, 0, 64, 61
1, 127462, Control_c, 0, 64, 94
1, 127477, Control_c, 0, 64, 95
1, 127486, Note_off_c, 0, 61, 58
1, 127491, Control_c, 0, 64, 97
1, 127506, Control_c, 0, 64, 99
1, 127521, Control_c, 0, 64, 101
1, 127536, Control_c, 0, 64, 102
1, 127551, Control_c, 0, 64, 104
1, 127553, Note_off_c, 0, 45, 35
1, 127565, Control_c, 0, 64, 105
1, 127580, Control_c, 0, 64, 106
1, 127595, Control_c, 0, 64, 107
1, 127610, Control_c, 0, 64, 108
1, 127624, Control_c, 0, 64, 109
1, 127635, Note_off_c, 0, 33, 37
1, 127639, Control_c, 0, 64, 109
1, 127654, Control_c, 0, 64, 110
1, 127684, Control_c, 0, 64, 110
1, 127848, Control_c, 0, 64, 110
1, 127863, Control_c, 0, 64, 108
1, 127877, Control_c, 0, 64, 104
1, 127892, Control_c, 0, 64, 97
1, 127895, Note_on_c, 0, 66, 54
1, 127898, Note_on_c, 0, 38, 33
1, 127906, Note_on_c, 0, 54, 45
1, 127907, Note_on_c, 0, 61, 47
1, 127907, Control_c, 0, 64, 87
1, 127912, Note_on_c, 0, 45, 33
1, 127922, Control_c, 0, 64, 75
1, 127937, Control_c, 0, 64, 58
1, 127952, Control_c, 0, 64, 0
1, 128940, Note_on_c, 0, 59, 46
1, 128985, Note_off_c, 0, 61, 37
1, 129143, Note_on_c, 0, 61, 60
1, 129183, Note_off_c, 0, 59, 57
1, 129367, Note_on_c, 0, 64, 53
1, 129415, Note_off_c, 0, 61, 62
1, 129617, Note_on_c, 0, 62, 53
1, 129628, Note_off_c, 0, 64, 52
1, 129827, Control_c, 0, 64, 48
1, 129842, Control_c, 0, 64, 63
1, 129857, Control_c, 0, 64, 67
1, 129872, Control_c, 0, 64, 72
1, 129887, Control_c, 0, 64, 79
1, 129902, Control_c, 0, 64, 85
1, 129909, Note_off_c, 0, 54, 52
1, 129916, Note_off_c, 0, 66, 31
1, 129916, Control_c, 0, 64, 88
1, 129931, Control_c, 0, 64, 90
1, 129946, Control_c, 0, 64, 91
1, 129961, Control_c, 0, 64, 93
1, 129966, Note_off_c, 0, 38, 40
1, 129976, Control_c, 0, 64, 96
1, 129991, Control_c, 0, 64, 97
1, 130006, Control_c, 0, 64, 99
1, 130015, Note_off_c, 0, 45, 41
1, 130020, Control_c, 0, 64, 99
1, 130035, Control_c, 0, 64, 100
1, 130050, Control_c, 0, 64, 101
1, 130065, Control_c, 0, 64, 102
1, 130094, Control_c, 0, 64, 102
1, 130146, Note_on_c, 0, 61, 62
1, 130156, Note_off_c, 0, 62, 36
1, 130215, Note_off_c, 0, 61, 62
1, 130228, Control_c, 0, 64, 102
1, 130243, Control_c, 0, 64, 101
1, 130258, Control_c, 0, 64, 95
1, 130273, Control_c, 0, 64, 87
1, 130279, Note_on_c, 0, 61, 48
1, 130282, Note_on_c, 0, 40, 43
1, 130282, Note_on_c, 0, 52, 48
1, 130283, Note_on_c, 0, 64, 61
1, 130286, Note_on_c, 0, 56, 54
1, 130288, Control_c, 0, 64, 75
1, 130303, Control_c, 0, 64, 54
1, 130317, Control_c, 0, 64, 0
1, 130844, Note_off_c, 0, 52, 36
1, 131218, Note_on_c, 0, 50, 22
1, 131231, Note_on_c, 0, 59, 41
1, 131270, Note_off_c, 0, 61, 55
1, 131400, Control_c, 0, 64, 48
1, 131415, Control_c, 0, 64, 63
1, 131430, Control_c, 0, 64, 66
1, 131445, Control_c, 0, 64, 70
1, 131459, Control_c, 0, 64, 75
1, 131474, Control_c, 0, 64, 79
1, 131489, Control_c, 0, 64, 83
1, 131504, Control_c, 0, 64, 85
1, 131519, Control_c, 0, 64, 88
1, 131533, Control_c, 0, 64, 90
1, 131548, Note_off_c, 0, 56, 32
1, 131548, Control_c, 0, 64, 93
1, 131563, Control_c, 0, 64, 95
1, 131578, Control_c, 0, 64, 97
1, 131592, Control_c, 0, 64, 98
1, 131607, Control_c, 0, 64, 101
1, 131619, Note_off_c, 0, 50, 39
1, 131622, Note_off_c, 0, 40, 41
1, 131622, Control_c, 0, 64, 103
1, 131637, Control_c, 0, 64, 105
1, 131652, Control_c, 0, 64, 107
1, 131666, Control_c, 0, 64, 108
1, 131681, Control_c, 0, 64, 109
1, 131711, Control_c, 0, 64, 109
1, 132000, Control_c, 0, 64, 109
1, 132015, Control_c, 0, 64, 107
1, 132030, Note_on_c, 0, 57, 41
1, 132030, Control_c, 0, 64, 103
1, 132036, Note_on_c, 0, 45, 36
1, 132036, Note_on_c, 0, 49, 36
1, 132045, Control_c, 0, 64, 97
1, 132052, Note_off_c, 0, 59, 34
1, 132060, Control_c, 0, 64, 89
1, 132075, Control_c, 0, 64, 79
1, 132089, Control_c, 0, 64, 65
1, 132104, Control_c, 0, 64, 0
1, 132374, Note_on_c, 0, 61, 40
1, 132379, Note_off_c, 0, 57, 36
1, 132389, Note_on_c, 0, 52, 20
1, 132430, Note_off_c, 0, 49, 48
1, 132436, Note_off_c, 0, 64, 36
1, 133898, Control_c, 0, 64, 44
1, 133913, Control_c, 0, 64, 54
1, 133927, Control_c, 0, 64, 60
1, 133942, Control_c, 0, 64, 63
1, 133957, Control_c, 0, 64, 66
1, 133972, Control_c, 0, 64, 69
1, 133986, Control_c, 0, 64, 73
1, 134001, Control_c, 0, 64, 76
1, 134016, Control_c, 0, 64, 78
1, 134031, Control_c, 0, 64, 79
1, 134046, Control_c, 0, 64, 80
1, 134060, Control_c, 0, 64, 81
1, 134075, Control_c, 0, 64, 81
1, 134090, Control_c, 0, 64, 82
1, 134249, Note_off_c, 0, 52, 39
1, 134266, Note_off_c, 0, 61, 60
1, 134277, Control_c, 0, 64, 81
1, 134307, Control_c, 0, 64, 80
1, 134322, Control_c, 0, 64, 79
1, 134330, Note_off_c, 0, 45, 41
1, 134337, Control_c, 0, 64, 78
1, 134352, Control_c, 0, 64, 77
1, 134366, Control_c, 0, 64, 74
1, 134381, Control_c, 0, 64, 71
1, 134396, Control_c, 0, 64, 66
1, 134410, Control_c, 0, 64, 57
1, 134425, Control_c, 0, 64, 0
1, 135103, Note_on_c, 0, 73, 56
1, 135640, Control_c, 0, 64, 46
1, 135655, Control_c, 0, 64, 60
1, 135670, Control_c, 0, 64, 65
1, 135673, Note_on_c, 0, 58, 26
1, 135678, Note_on_c, 0, 55, 33
1, 135682, Note_on_c, 0, 52, 34
1, 135685, Control_c, 0, 64, 68
1, 135699, Control_c, 0, 64, 73
1, 135714, Control_c, 0, 64, 78
1, 135729, Control_c, 0, 64, 81
1, 135744, Control_c, 0, 64, 83
1, 135773, Control_c, 0, 64, 83
1, 135828, Note_off_c, 0, 73, 60
1, 135829, Note_off_c, 0, 52, 39
1, 135839, Note_off_c, 0, 55, 43
1, 135862, Note_off_c, 0, 58, 41
1, 135871, Note_on_c, 0, 71, 54
1, 135899, Note_off_c, 0, 71, 56
1, 135908, Control_c, 0, 64, 83
1, 135923, Note_on_c, 0, 73, 56
1, 135923, Control_c, 0, 64, 80
1, 135937, Control_c, 0, 64, 74
1, 135952, Control_c, 0, 64, 62
1, 135957, Note_off_c, 0, 73, 65
1, 135967, Control_c, 0, 64, 0
1, 135976, Note_on_c, 0, 71, 56
1, 135977, Note_on_c, 0, 54, 40
1, 135990, Note_on_c, 0, 59, 35
1, 135994, Note_on_c, 0, 50, 27
1, 136041, Control_c, 0, 64, 55
1, 136055, Control_c, 0, 64, 65
1, 136070, Control_c, 0, 64, 70
1, 136085, Control_c, 0, 64, 77
1, 136100, Control_c, 0, 64, 82
1, 136115, Control_c, 0, 64, 84
1, 136144, Control_c, 0, 64, 84
1, 136159, Control_c, 0, 64, 85
1, 136181, Note_off_c, 0, 59, 40
1, 136203, Control_c, 0, 64, 85
1, 136212, Note_off_c, 0, 54, 37
1, 136225, Note_off_c, 0, 50, 37
1, 136286, Note_off_c, 0, 71, 59
1, 136293, Control_c, 0, 64, 85
1, 136322, Control_c, 0, 64, 82
1, 136327, Note_on_c, 0, 69, 52
1, 136337, Control_c, 0, 64, 76
1, 136359, Control_c, 0, 64, 64
1, 136374, Control_c, 0, 64, 0
1, 136379, Note_off_c, 0, 69, 62
1, 136382, Note_on_c, 0, 54, 34
1, 136399, Note_on_c, 0, 62, 46
1, 136399, Note_on_c, 0, 71, 61
1, 136401, Note_on_c, 0, 57, 39
1, 136433, Control_c, 0, 64, 56
1, 136448, Control_c, 0, 64, 65
1, 136462, Control_c, 0, 64, 69
1, 136472, Note_off_c, 0, 62, 59
1, 136477, Control_c, 0, 64, 76
1, 136492, Control_c, 0, 64, 81
1, 136501, Note_off_c, 0, 57, 60
1, 136507, Control_c, 0, 64, 83
1, 136537, Note_off_c, 0, 54, 39
1, 136626, Control_c, 0, 64, 81
1, 136641, Control_c, 0, 64, 78
1, 136652, Note_on_c, 0, 53, 41
1, 136656, Control_c, 0, 64, 72
1, 136658, Note_on_c, 0, 61, 38
1, 136662, Note_on_c, 0, 56, 41
1, 136671, Note_on_c, 0, 73, 61
1, 136671, Control_c, 0, 64, 60
1, 136678, Note_off_c, 0, 71, 57
1, 136686, Control_c, 0, 64, 0
1, 136760, Control_c, 0, 64, 44
1, 136775, Control_c, 0, 64, 64
1, 136790, Control_c, 0, 64, 68
1, 136804, Control_c, 0, 64, 73
1, 136819, Control_c, 0, 64, 77
1, 136833, Note_off_c, 0, 61, 60
1, 136834, Control_c, 0, 64, 80
1, 136849, Control_c, 0, 64, 81
1, 136851, Note_off_c, 0, 53, 56
1, 136864, Control_c, 0, 64, 82
1, 136871, Note_off_c, 0, 56, 42
1, 136878, Control_c, 0, 64, 83
1, 136965, Note_off_c, 0, 73, 60
1, 136995, Note_on_c, 0, 74, 57
1, 136996, Control_c, 0, 64, 82
1, 137011, Control_c, 0, 64, 76
1, 137026, Control_c, 0, 64, 65
1, 137041, Control_c, 0, 64, 0
1, 137051, Note_on_c, 0, 55, 41
1, 137053, Note_on_c, 0, 52, 41
1, 137056, Note_on_c, 0, 58, 42
1, 137068, Note_on_c, 0, 73, 63
1, 137080, Note_off_c, 0, 74, 58
1, 137086, Control_c, 0, 64, 40
1, 137108, Control_c, 0, 64, 62
1, 137123, Control_c, 0, 64, 67
1, 137137, Control_c, 0, 64, 70
1, 137151, Note_off_c, 0, 55, 54
1, 137152, Control_c, 0, 64, 74
1, 137160, Note_off_c, 0, 52, 59
1, 137163, Note_off_c, 0, 58, 51
1, 137167, Control_c, 0, 64, 76
1, 137182, Control_c, 0, 64, 77
1, 137255, Note_off_c, 0, 73, 60
1, 137286, Note_on_c, 0, 71, 56
1, 137300, Control_c, 0, 64, 75
1, 137315, Control_c, 0, 64, 72
1, 137321, Note_off_c, 0, 71, 64
1, 137330, Control_c, 0, 64, 64
1, 137334, Note_on_c, 0, 73, 55
1, 137345, Control_c, 0, 64, 0
1, 137357, Note_on_c, 0, 54, 41
1, 137374, Note_on_c, 0, 59, 39
1, 137377, Note_on_c, 0, 50, 37
1, 137381, Note_off_c, 0, 73, 64
1, 137386, Note_on_c, 0, 71, 59
1, 137419, Control_c, 0, 64, 52
1, 137434, Control_c, 0, 64, 65
1, 137449, Control_c, 0, 64, 69
1, 137464, Control_c, 0, 64, 74
1, 137479, Control_c, 0, 64, 80
1, 137494, Control_c, 0, 64, 84
1, 137509, Control_c, 0, 64, 86
1, 137524, Control_c, 0, 64, 87
1, 137539, Control_c, 0, 64, 88
1, 137554, Control_c, 0, 64, 88
1, 137568, Control_c, 0, 64, 89
1, 137583, Control_c, 0, 64, 90
1, 137668, Note_off_c, 0, 59, 40
1, 137731, Note_off_c, 0, 50, 38
1, 137752, Note_off_c, 0, 54, 39
1, 137798, Note_on_c, 0, 69, 57
1, 137800, Note_off_c, 0, 71, 52
1, 137834, Control_c, 0, 64, 89
1, 137857, Control_c, 0, 64, 89
1, 137872, Control_c, 0, 64, 87
1, 137872, Control_c, 0, 67, 8
1, 137887, Control_c, 0, 64, 85
1, 137887, Control_c, 0, 67, 17
1, 137901, Control_c, 0, 64, 81
1, 137901, Control_c, 0, 67, 31
1, 137916, Control_c, 0, 64, 73
1, 137916, Control_c, 0, 67, 52
1, 137931, Control_c, 0, 64, 63
1, 137931, Control_c, 0, 67, 79
1, 137947, Control_c, 0, 64, 0
1, 137947, Control_c, 0, 67, 102
1, 137961, Control_c, 0, 67, 124
1, 137972, Note_on_c, 0, 54, 35
1, 137976, Control_c, 0, 67, 127
1, 137982, Note_on_c, 0, 62, 38
1, 137986, Note_on_c, 0, 57, 39
1, 137997, Note_off_c, 0, 69, 54
1, 138003, Note_on_c, 0, 71, 54
1, 138118, Note_off_c, 0, 62, 55
1, 138156, Note_on_c, 0, 49, 49
1, 138157, Note_off_c, 0, 54, 55
1, 138176, Note_off_c, 0, 57, 61
1, 138299, Note_on_c, 0, 56, 48
1, 138303, Control_c, 0, 64, 50
1, 138318, Control_c, 0, 64, 64
1, 138332, Control_c, 0, 64, 69
1, 138347, Control_c, 0, 64, 74
1, 138353, Note_off_c, 0, 71, 55
1, 138360, Note_off_c, 0, 49, 61
1, 138362, Control_c, 0, 64, 79
1, 138376, Control_c, 0, 64, 82
1, 138391, Control_c, 0, 64, 84
1, 138406, Control_c, 0, 64, 86
1, 138421, Control_c, 0, 64, 87
1, 138436, Control_c, 0, 64, 89
1, 138451, Control_c, 0, 64, 90
1, 138452, Note_off_c, 0, 56, 35
1, 138466, Control_c, 0, 64, 91
1, 138495, Control_c, 0, 64, 91
1, 138510, Control_c, 0, 64, 92
1, 138524, Note_on_c, 0, 65, 41
1, 138525, Control_c, 0, 64, 92
1, 138534, Note_on_c, 0, 73, 54
1, 138588, Note_off_c, 0, 65, 54
1, 138606, Control_c, 0, 64, 93
1, 138644, Note_off_c, 0, 73, 57
1, 138791, Note_on_c, 0, 61, 45
1, 138856, Note_off_c, 0, 61, 52
1, 138892, Note_on_c, 0, 73, 49
1, 139011, Note_on_c, 0, 68, 50
1, 139016, Note_off_c, 0, 73, 34
1, 139128, Note_off_c, 0, 68, 61
1, 139133, Note_on_c, 0, 73, 52
1, 139180, Note_off_c, 0, 73, 59
1, 139260, Note_on_c, 0, 68, 42
1, 139309, Note_off_c, 0, 68, 48
1, 139329, Note_on_c, 0, 37, 40
1, 139366, Note_on_c, 0, 80, 54
1, 139414, Control_c, 0, 64, 93
1, 139458, Note_off_c, 0, 80, 52
1, 139472, Control_c, 0, 64, 94
1, 139476, Note_on_c, 0, 73, 50
1, 139487, Control_c, 0, 64, 94
1, 139516, Control_c, 0, 64, 95
1, 139546, Control_c, 0, 64, 95
1, 139569, Note_off_c, 0, 73, 60
1, 139576, Control_c, 0, 64, 96
1, 139587, Note_on_c, 0, 80, 58
1, 139605, Control_c, 0, 64, 96
1, 139646, Note_off_c, 0, 80, 59
1, 139665, Control_c, 0, 64, 97
1, 139705, Note_on_c, 0, 73, 42
1, 139739, Control_c, 0, 64, 97
1, 139773, Note_off_c, 0, 73, 41
1, 139806, Note_on_c, 0, 85, 50
1, 139920, Note_on_c, 0, 80, 49
1, 139937, Note_off_c, 0, 85, 33
1, 140021, Control_c, 0, 64, 98
1, 140044, Note_on_c, 0, 85, 52
1, 140050, Note_off_c, 0, 80, 59
1, 140093, Note_off_c, 0, 37, 39
1, 140135, Note_off_c, 0, 85, 61
1, 140199, Note_on_c, 0, 80, 42
1, 140308, Note_off_c, 0, 80, 38
1, 140317, Note_on_c, 0, 92, 50
1, 140430, Note_off_c, 0, 92, 56
1, 140457, Note_on_c, 0, 85, 47
1, 140619, Note_off_c, 0, 85, 55
1, 140627, Note_on_c, 0, 92, 38
1, 140772, Note_off_c, 0, 92, 35
1, 140816, Note_on_c, 0, 85, 39
1, 141107, Note_on_c, 0, 97, 44
1, 141195, Note_off_c, 0, 97, 52
1, 141205, Note_off_c, 0, 85, 35
1, 141956, Control_c, 0, 64, 97
1, 142090, Control_c, 0, 64, 97
1, 142179, Control_c, 0, 64, 96
1, 142254, Control_c, 0, 64, 96
1, 142313, Control_c, 0, 64, 95
1, 142328, Control_c, 0, 64, 95
1, 142350, Control_c, 0, 64, 94
1, 142365, Control_c, 0, 64, 91
1, 142380, Control_c, 0, 64, 86
1, 142394, Control_c, 0, 64, 79
1, 142409, Control_c, 0, 64, 68
1, 142424, Control_c, 0, 64, 0
1, 143063, Note_on_c, 0, 64, 71
1, 143067, Note_on_c, 0, 45, 49
1, 143070, Note_on_c, 0, 61, 66
1, 143071, Note_on_c, 0, 52, 48
1, 143350, Control_c, 0, 64, 39
1, 143364, Control_c, 0, 64, 55
1, 143379, Control_c, 0, 64, 61
1, 143394, Control_c, 0, 64, 64
1, 143409, Control_c, 0, 64, 66
1, 143424, Control_c, 0, 64, 69
1, 143438, Control_c, 0, 64, 71
1, 143453, Control_c, 0, 64, 73
1, 143468, Control_c, 0, 64, 75
1, 143483, Control_c, 0, 64, 76
1, 143497, Control_c, 0, 64, 77
1, 143512, Control_c, 0, 64, 77
1, 143542, Control_c, 0, 64, 78
1, 143545, Note_off_c, 0, 64, 61
1, 143557, Control_c, 0, 64, 79
1, 143572, Control_c, 0, 64, 80
1, 143587, Control_c, 0, 64, 81
1, 143602, Control_c, 0, 64, 82
1, 143617, Control_c, 0, 64, 83
1, 143632, Control_c, 0, 64, 84
1, 143646, Control_c, 0, 64, 85
1, 143661, Control_c, 0, 64, 86
1, 143676, Control_c, 0, 64, 87
1, 143690, Control_c, 0, 64, 87
1, 143705, Control_c, 0, 64, 88
1, 143735, Control_c, 0, 64, 88
1, 143750, Control_c, 0, 64, 89
1, 143779, Control_c, 0, 64, 89
1, 143781, Note_off_c, 0, 52, 45
1, 143891, Control_c, 0, 64, 90
1, 144173, Control_c, 0, 64, 89
1, 144320, Control_c, 0, 64, 89
1, 144335, Control_c, 0, 64, 88
1, 144350, Control_c, 0, 64, 87
1, 144365, Control_c, 0, 64, 86
1, 144380, Control_c, 0, 64, 82
1, 144395, Control_c, 0, 64, 76
1, 144407, Note_on_c, 0, 38, 34
1, 144410, Control_c, 0, 64, 66
1, 144424, Control_c, 0, 64, 0
1, 144425, Note_on_c, 0, 66, 44
1, 144427, Note_on_c, 0, 54, 39
1, 145580, Note_on_c, 0, 59, 35
1, 145638, Note_off_c, 0, 61, 58
1, 145799, Note_on_c, 0, 61, 58
1, 145845, Note_off_c, 0, 59, 51
1, 146013, Note_on_c, 0, 64, 60
1, 146051, Note_off_c, 0, 61, 62
1, 146267, Note_on_c, 0, 62, 67
1, 146294, Note_off_c, 0, 64, 61
1, 146484, Note_on_c, 0, 61, 67
1, 146514, Note_off_c, 0, 66, 53
1, 146519, Note_off_c, 0, 62, 62
1, 146612, Control_c, 0, 64, 63
1, 146627, Control_c, 0, 64, 71
1, 146642, Control_c, 0, 64, 78
1, 146653, Note_off_c, 0, 54, 40
1, 146656, Control_c, 0, 64, 84
1, 146671, Control_c, 0, 64, 87
1, 146686, Control_c, 0, 64, 88
1, 146693, Note_off_c, 0, 61, 56
1, 146701, Control_c, 0, 64, 90
1, 146715, Control_c, 0, 64, 91
1, 146729, Note_off_c, 0, 45, 42
1, 146730, Control_c, 0, 64, 92
1, 146743, Note_off_c, 0, 38, 39
1, 146894, Note_on_c, 0, 33, 48
1, 146896, Note_on_c, 0, 45, 44
1, 146901, Control_c, 0, 64, 91
1, 146909, Note_on_c, 0, 64, 66
1, 146915, Control_c, 0, 64, 89
1, 146917, Note_on_c, 0, 61, 69
1, 146930, Note_on_c, 0, 52, 59
1, 146930, Control_c, 0, 64, 83
1, 146945, Control_c, 0, 64, 73
1, 146960, Control_c, 0, 64, 55
1, 146975, Control_c, 0, 64, 0
1, 147124, Control_c, 0, 64, 34
1, 147138, Control_c, 0, 64, 52
1, 147153, Control_c, 0, 64, 60
1, 147168, Control_c, 0, 64, 63
1, 147183, Control_c, 0, 64, 66
1, 147198, Control_c, 0, 64, 69
1, 147212, Control_c, 0, 64, 72
1, 147227, Control_c, 0, 64, 76
1, 147242, Control_c, 0, 64, 78
1, 147257, Control_c, 0, 64, 80
1, 147272, Control_c, 0, 64, 80
1, 147286, Control_c, 0, 64, 82
1, 147301, Control_c, 0, 64, 83
1, 147316, Control_c, 0, 64, 85
1, 147330, Note_off_c, 0, 64, 61
1, 147331, Control_c, 0, 64, 86
1, 147346, Control_c, 0, 64, 87
1, 147352, Note_off_c, 0, 52, 37
1, 147361, Control_c, 0, 64, 88
1, 147376, Control_c, 0, 64, 88
1, 147390, Control_c, 0, 64, 89
1, 147405, Control_c, 0, 64, 89
1, 147420, Control_c, 0, 64, 90
1, 147435, Control_c, 0, 64, 91
1, 147450, Control_c, 0, 64, 91
1, 147465, Control_c, 0, 64, 92
1, 147479, Note_off_c, 0, 45, 41
1, 147494, Control_c, 0, 64, 92
1, 147530, Note_off_c, 0, 33, 40
1, 147814, Control_c, 0, 64, 91
1, 147829, Control_c, 0, 64, 90
1, 147840, Note_on_c, 0, 66, 50
1, 147844, Control_c, 0, 64, 87
1, 147844, Note_on_c, 0, 38, 34
1, 147850, Note_on_c, 0, 54, 41
1, 147850, Note_on_c, 0, 45, 34
1, 147858, Control_c, 0, 64, 81
1, 147873, Control_c, 0, 64, 73
1, 147888, Control_c, 0, 64, 62
1, 147903, Control_c, 0, 64, 0
1, 148917, Note_on_c, 0, 59, 47
1, 148917, Note_off_c, 0, 61, 53
1, 149131, Note_on_c, 0, 61, 65
1, 149161, Note_off_c, 0, 59, 60
1, 149370, Note_on_c, 0, 64, 55
1, 149422, Note_off_c, 0, 61, 58
1, 149628, Note_off_c, 0, 64, 57
1, 149665, Note_on_c, 0, 62, 42
1, 149897, Control_c, 0, 64, 58
1, 149912, Control_c, 0, 64, 65
1, 149927, Control_c, 0, 64, 69
1, 149928, Note_off_c, 0, 54, 53
1, 149941, Control_c, 0, 64, 72
1, 149956, Control_c, 0, 64, 75
1, 149971, Control_c, 0, 64, 77
1, 149986, Control_c, 0, 64, 79
1, 150001, Control_c, 0, 64, 80
1, 150015, Control_c, 0, 64, 80
1, 150030, Control_c, 0, 64, 81
1, 150046, Note_off_c, 0, 62, 58
1, 150048, Note_on_c, 0, 61, 60
1, 150054, Note_off_c, 0, 66, 37
1, 150076, Note_off_c, 0, 61, 63
1, 150089, Control_c, 0, 64, 80
1, 150104, Control_c, 0, 64, 80
1, 150119, Control_c, 0, 64, 78
1, 150133, Control_c, 0, 64, 72
1, 150148, Control_c, 0, 64, 59
1, 150150, Note_on_c, 0, 61, 54
1, 150163, Control_c, 0, 64, 0
1, 150271, Note_on_c, 0, 69, 69
1, 150309, Note_off_c, 0, 61, 53
1, 150643, Note_on_c, 0, 66, 63
1, 150658, Note_off_c, 0, 69, 61
1, 150932, Note_on_c, 0, 62, 60
1, 151002, Control_c, 0, 64, 61
1, 151017, Control_c, 0, 64, 70
1, 151023, Note_off_c, 0, 66, 59
1, 151032, Control_c, 0, 64, 77
1, 151046, Note_off_c, 0, 38, 51
1, 151047, Control_c, 0, 64, 84
1, 151061, Control_c, 0, 64, 89
1, 151075, Note_off_c, 0, 62, 41
1, 151075, Note_off_c, 0, 45, 52
1, 151076, Control_c, 0, 64, 91
1, 151091, Control_c, 0, 64, 93
1, 151105, Control_c, 0, 64, 94
1, 151120, Control_c, 0, 64, 96
1, 151135, Control_c, 0, 64, 96
1, 151284, Control_c, 0, 64, 95
1, 151298, Control_c, 0, 64, 92
1, 151313, Control_c, 0, 64, 87
1, 151328, Note_on_c, 0, 61, 66
1, 151331, Note_on_c, 0, 40, 44
1, 151335, Control_c, 0, 64, 78
1, 151345, Note_on_c, 0, 56, 45
1, 151346, Note_on_c, 0, 64, 56
1, 151350, Control_c, 0, 64, 66
1, 151351, Note_on_c, 0, 52, 38
1, 151365, Control_c, 0, 64, 0
1, 151558, Control_c, 0, 64, 36
1, 151573, Control_c, 0, 64, 54
1, 151587, Control_c, 0, 64, 62
1, 151602, Control_c, 0, 64, 65
1, 151617, Control_c, 0, 64, 69
1, 151632, Control_c, 0, 64, 72
1, 151647, Control_c, 0, 64, 77
1, 151661, Control_c, 0, 64, 80
1, 151676, Control_c, 0, 64, 82
1, 151691, Control_c, 0, 64, 84
1, 151705, Control_c, 0, 64, 86
1, 151720, Control_c, 0, 64, 88
1, 151735, Control_c, 0, 64, 90
1, 151750, Control_c, 0, 64, 91
1, 151765, Control_c, 0, 64, 92
1, 151772, Note_off_c, 0, 52, 40
1, 151779, Control_c, 0, 64, 93
1, 151794, Control_c, 0, 64, 94
1, 151810, Control_c, 0, 64, 95
1, 151825, Control_c, 0, 64, 97
1, 151840, Control_c, 0, 64, 98
1, 151855, Control_c, 0, 64, 98
1, 151884, Control_c, 0, 64, 99
1, 151899, Control_c, 0, 64, 99
1, 151943, Control_c, 0, 64, 100
1, 152114, Control_c, 0, 64, 99
1, 152202, Control_c, 0, 64, 99
1, 152231, Control_c, 0, 64, 98
1, 152246, Control_c, 0, 64, 98
1, 152261, Control_c, 0, 64, 97
1, 152276, Control_c, 0, 64, 96
1, 152291, Control_c, 0, 64, 95
1, 152306, Control_c, 0, 64, 93
1, 152321, Control_c, 0, 64, 92
1, 152327, Note_on_c, 0, 50, 35
1, 152335, Control_c, 0, 64, 89
1, 152350, Control_c, 0, 64, 85
1, 152362, Note_on_c, 0, 59, 46
1, 152365, Control_c, 0, 64, 77
1, 152380, Control_c, 0, 64, 66
1, 152386, Note_off_c, 0, 61, 39
1, 152395, Control_c, 0, 64, 0
1, 152542, Control_c, 0, 64, 49
1, 152557, Control_c, 0, 64, 60
1, 152572, Control_c, 0, 64, 64
1, 152587, Control_c, 0, 64, 67
1, 152603, Control_c, 0, 64, 72
1, 152617, Control_c, 0, 64, 76
1, 152632, Control_c, 0, 64, 80
1, 152647, Control_c, 0, 64, 82
1, 152662, Control_c, 0, 64, 83
1, 152677, Control_c, 0, 64, 85
1, 152692, Control_c, 0, 64, 87
1, 152706, Control_c, 0, 64, 89
1, 152721, Control_c, 0, 64, 90
1, 152732, Note_off_c, 0, 40, 41
1, 152736, Control_c, 0, 64, 91
1, 152743, Note_off_c, 0, 50, 35
1, 152750, Control_c, 0, 64, 92
1, 152755, Note_off_c, 0, 56, 37
1, 152780, Control_c, 0, 64, 93
1, 152795, Control_c, 0, 64, 93
1, 152832, Control_c, 0, 64, 94
1, 153054, Control_c, 0, 64, 93
1, 153113, Control_c, 0, 64, 93
1, 153127, Note_on_c, 0, 45, 36
1, 153128, Control_c, 0, 64, 91
1, 153129, Note_on_c, 0, 49, 33
1, 153143, Control_c, 0, 64, 88
1, 153144, Note_on_c, 0, 57, 37
1, 153157, Control_c, 0, 64, 84
1, 153164, Note_off_c, 0, 59, 37
1, 153172, Control_c, 0, 64, 78
1, 153187, Control_c, 0, 64, 70
1, 153202, Control_c, 0, 64, 43
1, 153217, Control_c, 0, 64, 0
1, 153596, Note_on_c, 0, 61, 38
1, 153600, Note_off_c, 0, 57, 33
1, 153609, Note_on_c, 0, 52, 30
1, 153686, Note_off_c, 0, 49, 42
1, 153687, Note_off_c, 0, 64, 35
1, 155079, Control_c, 0, 64, 35
1, 155094, Control_c, 0, 64, 48
1, 155108, Control_c, 0, 64, 56
1, 155123, Control_c, 0, 64, 60
1, 155138, Control_c, 0, 64, 63
1, 155153, Control_c, 0, 64, 65
1, 155168, Control_c, 0, 64, 67
1, 155183, Control_c, 0, 64, 69
1, 155197, Control_c, 0, 64, 72
1, 155212, Control_c, 0, 64, 75
1, 155227, Control_c, 0, 64, 79
1, 155242, Control_c, 0, 64, 80
1, 155257, Control_c, 0, 64, 82
1, 155271, Control_c, 0, 64, 83
1, 155286, Control_c, 0, 64, 84
1, 155301, Control_c, 0, 64, 85
1, 155316, Control_c, 0, 64, 87
1, 155331, Control_c, 0, 64, 87
1, 155345, Control_c, 0, 64, 88
1, 155360, Control_c, 0, 64, 89
1, 155375, Control_c, 0, 64, 90
1, 155390, Control_c, 0, 64, 90
1, 155405, Control_c, 0, 64, 91
1, 155419, Control_c, 0, 64, 92
1, 155449, Control_c, 0, 64, 92
1, 155464, Control_c, 0, 64, 93
1, 155493, Control_c, 0, 64, 93
1, 155493, Control_c, 0, 67, 119
1, 155508, Control_c, 0, 67, 101
1, 155523, Control_c, 0, 67, 78
1, 155538, Control_c, 0, 64, 94
1, 155538, Control_c, 0, 67, 58
1, 155552, Control_c, 0, 67, 40
1, 155567, Control_c, 0, 67, 26
1, 155582, Control_c, 0, 67, 15
1, 155597, Control_c, 0, 67, 8
1, 155612, Control_c, 0, 67, 0
1, 155692, Note_off_c, 0, 52, 36
1, 155746, Note_off_c, 0, 45, 32
1, 155794, Note_off_c, 0, 61, 23
1, 155901, Control_c, 0, 64, 93
1, 155916, Control_c, 0, 64, 93
1, 155931, Control_c, 0, 64, 92
1, 155946, Control_c, 0, 64, 90
1, 155961, Control_c, 0, 64, 88
1, 155975, Control_c, 0, 64, 86
1, 155990, Control_c, 0, 64, 82
1, 156005, Control_c, 0, 64, 77
1, 156020, Control_c, 0, 64, 72
1, 156035, Control_c, 0, 64, 65
1, 156050, Control_c, 0, 64, 34
1, 156065, Control_c, 0, 64, 0
1, 157449, Note_on_c, 0, 73, 42
1, 157992, Control_c, 0, 67, 8
1, 158007, Control_c, 0, 67, 11
1, 158021, Control_c, 0, 67, 16
1, 158036, Control_c, 0, 67, 22
1, 158051, Control_c, 0, 67, 30
1, 158073, Control_c, 0, 67, 39
1, 158088, Control_c, 0, 67, 48
1, 158103, Control_c, 0, 67, 57
1, 158118, Control_c, 0, 67, 66
1, 158133, Control_c, 0, 67, 77
1, 158147, Control_c, 0, 67, 88
1, 158162, Control_c, 0, 67, 101
1, 158177, Control_c, 0, 67, 111
1, 158193, Control_c, 0, 67, 122
1, 158208, Control_c, 0, 67, 127
1, 159323, Note_off_c, 0, 73, 55
1, 159332, Note_on_c, 0, 75, 39
1, 159657, Note_on_c, 0, 78, 47
1, 159678, Note_off_c, 0, 75, 50
1, 159870, Note_on_c, 0, 76, 50
1, 159898, Note_off_c, 0, 78, 45
1, 160019, Note_off_c, 0, 76, 59
1, 160024, Note_on_c, 0, 73, 50
1, 160118, Note_off_c, 0, 73, 62
1, 160134, Note_on_c, 0, 69, 54
1, 160217, Note_off_c, 0, 69, 63
1, 160252, Note_on_c, 0, 68, 58
1, 160271, Note_off_c, 0, 68, 62
1, 160337, Note_on_c, 0, 68, 65
1, 160408, Note_off_c, 0, 68, 61
1, 160441, Note_on_c, 0, 80, 71
1, 160988, Control_c, 0, 64, 56
1, 160997, Note_on_c, 0, 65, 31
1, 161003, Control_c, 0, 64, 64
1, 161008, Note_on_c, 0, 59, 26
1, 161017, Control_c, 0, 64, 68
1, 161019, Note_on_c, 0, 62, 24
1, 161032, Control_c, 0, 64, 72
1, 161047, Control_c, 0, 64, 77
1, 161070, Control_c, 0, 64, 81
1, 161085, Control_c, 0, 64, 83
1, 161097, Note_off_c, 0, 65, 56
1, 161099, Control_c, 0, 64, 84
1, 161114, Control_c, 0, 64, 85
1, 161129, Control_c, 0, 64, 86
1, 161145, Note_off_c, 0, 80, 61
1, 161159, Note_off_c, 0, 59, 47
1, 161184, Note_on_c, 0, 78, 59
1, 161195, Note_off_c, 0, 62, 37
1, 161210, Note_off_c, 0, 78, 58
1, 161231, Note_on_c, 0, 80, 62
1, 161231, Control_c, 0, 64, 85
1, 161246, Control_c, 0, 64, 82
1, 161261, Control_c, 0, 64, 71
1, 161264, Note_on_c, 0, 61, 49
1, 161270, Note_on_c, 0, 57, 42
1, 161273, Note_off_c, 0, 80, 63
1, 161276, Control_c, 0, 64, 40
1, 161280, Note_on_c, 0, 78, 65
1, 161287, Note_on_c, 0, 66, 43
1, 161290, Control_c, 0, 64, 0
1, 161350, Control_c, 0, 64, 21
1, 161365, Control_c, 0, 64, 60
1, 161380, Control_c, 0, 64, 67
1, 161395, Control_c, 0, 64, 72
1, 161410, Control_c, 0, 64, 77
1, 161425, Control_c, 0, 64, 81
1, 161440, Control_c, 0, 64, 82
1, 161455, Control_c, 0, 64, 82
1, 161469, Note_off_c, 0, 57, 49
1, 161469, Control_c, 0, 64, 83
1, 161479, Note_off_c, 0, 66, 63
1, 161502, Note_off_c, 0, 61, 29
1, 161570, Note_off_c, 0, 78, 60
1, 161618, Control_c, 0, 64, 81
1, 161632, Control_c, 0, 64, 74
1, 161633, Note_on_c, 0, 76, 45
1, 161647, Control_c, 0, 64, 61
1, 161662, Control_c, 0, 64, 0
1, 161664, Note_off_c, 0, 76, 57
1, 161666, Note_on_c, 0, 61, 42
1, 161674, Note_on_c, 0, 78, 72
1, 161678, Note_on_c, 0, 69, 48
1, 161681, Note_on_c, 0, 64, 48
1, 161706, Control_c, 0, 64, 55
1, 161709, Note_off_c, 0, 69, 61
1, 161721, Control_c, 0, 64, 67
1, 161736, Control_c, 0, 64, 72
1, 161739, Note_off_c, 0, 64, 61
1, 161751, Control_c, 0, 64, 79
1, 161755, Note_off_c, 0, 61, 55
1, 161766, Control_c, 0, 64, 83
1, 161780, Control_c, 0, 64, 85
1, 161795, Control_c, 0, 64, 85
1, 161892, Control_c, 0, 64, 84
1, 161907, Control_c, 0, 64, 78
1, 161908, Note_on_c, 0, 60, 47
1, 161914, Note_on_c, 0, 68, 49
1, 161919, Note_on_c, 0, 63, 47
1, 161922, Control_c, 0, 64, 64
1, 161929, Note_on_c, 0, 80, 67
1, 161934, Note_off_c, 0, 78, 56
1, 161937, Control_c, 0, 64, 0
1, 162011, Control_c, 0, 64, 62
1, 162026, Control_c, 0, 64, 69
1, 162040, Control_c, 0, 64, 77
1, 162055, Control_c, 0, 64, 84
1, 162070, Control_c, 0, 64, 86
1, 162081, Note_off_c, 0, 68, 60
1, 162085, Control_c, 0, 64, 87
1, 162093, Note_off_c, 0, 60, 56
1, 162100, Control_c, 0, 64, 87
1, 162113, Note_off_c, 0, 63, 51
1, 162197, Note_off_c, 0, 80, 57
1, 162205, Control_c, 0, 64, 85
1, 162207, Note_on_c, 0, 81, 67
1, 162219, Control_c, 0, 64, 78
1, 162234, Control_c, 0, 64, 65
1, 162249, Control_c, 0, 64, 0
1, 162270, Note_on_c, 0, 59, 42
1, 162276, Note_off_c, 0, 81, 59
1, 162278, Control_c, 0, 64, 50
1, 162279, Note_on_c, 0, 80, 67
1, 162280, Note_on_c, 0, 65, 45
1, 162280, Note_on_c, 0, 62, 41
1, 162293, Control_c, 0, 64, 64
1, 162308, Control_c, 0, 64, 69
1, 162323, Control_c, 0, 64, 74
1, 162337, Note_off_c, 0, 65, 60
1, 162337, Control_c, 0, 64, 78
1, 162350, Note_off_c, 0, 59, 57
1, 162352, Control_c, 0, 64, 80
1, 162367, Control_c, 0, 64, 81
1, 162385, Note_off_c, 0, 62, 46
1, 162462, Note_off_c, 0, 80, 63
1, 162492, Note_on_c, 0, 78, 62
1, 162516, Control_c, 0, 64, 80
1, 162529, Note_off_c, 0, 78, 52
1, 162530, Control_c, 0, 64, 79
1, 162545, Control_c, 0, 64, 74
1, 162548, Note_on_c, 0, 80, 60
1, 162563, Note_on_c, 0, 61, 44
1, 162567, Control_c, 0, 64, 63
1, 162582, Control_c, 0, 64, 0
1, 162587, Note_on_c, 0, 66, 46
1, 162587, Note_on_c, 0, 57, 39
1, 162598, Note_off_c, 0, 80, 56
1, 162605, Note_on_c, 0, 78, 63
1, 162641, Control_c, 0, 64, 30
1, 162656, Control_c, 0, 64, 62
1, 162671, Control_c, 0, 64, 67
1, 162686, Control_c, 0, 64, 72
1, 162700, Control_c, 0, 64, 77
1, 162715, Control_c, 0, 64, 81
1, 162730, Control_c, 0, 64, 82
1, 162745, Control_c, 0, 64, 83
1, 162760, Control_c, 0, 64, 84
1, 162775, Control_c, 0, 64, 85
1, 162790, Control_c, 0, 64, 86
1, 162805, Control_c, 0, 64, 87
1, 162862, Note_off_c, 0, 66, 49
1, 162891, Note_off_c, 0, 57, 36
1, 162909, Note_off_c, 0, 61, 36
1, 163054, Note_off_c, 0, 78, 57
1, 163070, Note_on_c, 0, 76, 47
1, 163086, Control_c, 0, 64, 86
1, 163101, Control_c, 0, 64, 85
1, 163116, Control_c, 0, 64, 82
1, 163131, Control_c, 0, 64, 77
1, 163146, Control_c, 0, 64, 68
1, 163160, Control_c, 0, 64, 0
1, 163164, Note_on_c, 0, 61, 37
1, 163171, Note_on_c, 0, 69, 35
1, 163176, Note_on_c, 0, 64, 39
1, 163202, Note_on_c, 0, 78, 49
1, 163241, Note_off_c, 0, 76, 39
1, 163278, Note_off_c, 0, 69, 60
1, 163322, Note_off_c, 0, 61, 61
1, 163327, Note_on_c, 0, 56, 48
1, 163358, Note_off_c, 0, 64, 62
1, 163419, Control_c, 0, 64, 31
1, 163434, Control_c, 0, 64, 63
1, 163449, Control_c, 0, 64, 69
1, 163464, Control_c, 0, 64, 73
1, 163479, Control_c, 0, 64, 78
1, 163481, Note_on_c, 0, 63, 52
1, 163493, Control_c, 0, 64, 82
1, 163508, Control_c, 0, 64, 85
1, 163523, Control_c, 0, 64, 86
1, 163535, Note_off_c, 0, 56, 61
1, 163538, Control_c, 0, 64, 88
1, 163553, Control_c, 0, 64, 90
1, 163568, Control_c, 0, 64, 92
1, 163583, Control_c, 0, 64, 93
1, 163586, Note_off_c, 0, 63, 59
1, 163598, Control_c, 0, 64, 94
1, 163612, Control_c, 0, 64, 95
1, 163642, Control_c, 0, 64, 95
1, 163657, Control_c, 0, 64, 96
1, 163728, Note_on_c, 0, 80, 65
1, 163734, Note_off_c, 0, 78, 58
1, 163741, Note_on_c, 0, 72, 48
1, 163796, Note_off_c, 0, 72, 62
1, 164742, Note_on_c, 0, 44, 34
1, 165007, Note_off_c, 0, 44, 39
1, 165009, Note_off_c, 0, 80, 38
1, 165032, Note_on_c, 0, 68, 38
1, 165124, Control_c, 0, 64, 96
1, 165213, Note_off_c, 0, 68, 41
1, 165219, Note_on_c, 0, 80, 46
1, 165317, Note_off_c, 0, 80, 38
1, 165360, Note_on_c, 0, 75, 40
1, 165499, Note_off_c, 0, 75, 56
1, 165513, Note_on_c, 0, 80, 49
1, 165590, Note_off_c, 0, 80, 61
1, 165686, Note_on_c, 0, 75, 30
1, 165766, Note_off_c, 0, 75, 54
1, 165823, Note_on_c, 0, 87, 45
1, 165977, Note_off_c, 0, 87, 45
1, 165994, Note_on_c, 0, 80, 44
1, 166184, Note_on_c, 0, 87, 47
1, 166193, Note_off_c, 0, 80, 42
1, 166342, Note_off_c, 0, 87, 52
1, 166386, Note_on_c, 0, 80, 48
1, 166677, Note_on_c, 0, 92, 51
1, 166740, Control_c, 0, 64, 97
1, 166751, Note_off_c, 0, 92, 60
1, 166760, Note_off_c, 0, 80, 58
1, 166784, Control_c, 0, 64, 97
1, 166799, Control_c, 0, 64, 98
1, 166814, Control_c, 0, 64, 98
1, 166829, Control_c, 0, 64, 99
1, 166844, Control_c, 0, 64, 99
1, 166859, Control_c, 0, 64, 100
1, 166874, Control_c, 0, 64, 100
1, 166889, Control_c, 0, 64, 101
1, 166903, Control_c, 0, 64, 101
1, 166933, Control_c, 0, 64, 102
1, 166947, Control_c, 0, 64, 102
1, 166993, Control_c, 0, 64, 103
1, 167059, Control_c, 0, 64, 103
1, 167074, Control_c, 0, 64, 104
1, 167089, Control_c, 0, 64, 104
1, 167104, Control_c, 0, 64, 105
1, 167119, Control_c, 0, 64, 105
1, 167120, Note_on_c, 0, 80, 64
1, 167133, Control_c, 0, 64, 106
1, 167148, Control_c, 0, 64, 107
1, 167163, Control_c, 0, 64, 108
1, 167178, Control_c, 0, 64, 110
1, 167193, Control_c, 0, 64, 112
1, 167193, Control_c, 0, 67, 118
1, 167208, Control_c, 0, 64, 113
1, 167208, Control_c, 0, 67, 101
1, 167222, Control_c, 0, 64, 114
1, 167222, Control_c, 0, 67, 81
1, 167237, Control_c, 0, 64, 114
1, 167237, Control_c, 0, 67, 58
1, 167252, Control_c, 0, 64, 115
1, 167252, Control_c, 0, 67, 35
1, 167267, Control_c, 0, 64, 116
1, 167267, Control_c, 0, 67, 12
1, 167282, Control_c, 0, 64, 117
1, 167282, Control_c, 0, 67, 0
1, 167297, Control_c, 0, 64, 117
1, 167326, Control_c, 0, 64, 118
1, 167452, Note_on_c, 0, 78, 68
1, 167551, Note_off_c, 0, 80, 54
1, 167578, Control_c, 0, 64, 117
1, 167608, Control_c, 0, 64, 117
1, 167623, Control_c, 0, 64, 116
1, 167638, Control_c, 0, 64, 115
1, 167652, Control_c, 0, 64, 113
1, 167667, Control_c, 0, 64, 111
1, 167682, Control_c, 0, 64, 109
1, 167697, Control_c, 0, 64, 107
1, 167712, Control_c, 0, 64, 105
1, 167726, Control_c, 0, 64, 102
1, 167741, Control_c, 0, 64, 94
1, 167756, Control_c, 0, 64, 79
1, 167772, Control_c, 0, 64, 61
1, 167781, Note_on_c, 0, 49, 45
1, 167787, Control_c, 0, 64, 0
1, 167812, Note_off_c, 0, 78, 35
1, 167817, Note_on_c, 0, 76, 64
1, 167869, Control_c, 0, 64, 40
1, 167883, Control_c, 0, 64, 62
1, 167898, Control_c, 0, 64, 67
1, 167913, Control_c, 0, 64, 72
1, 167928, Control_c, 0, 64, 78
1, 167943, Control_c, 0, 64, 81
1, 167944, Note_off_c, 0, 49, 57
1, 167957, Control_c, 0, 64, 83
1, 167972, Control_c, 0, 64, 85
1, 167974, Note_off_c, 0, 76, 63
1, 167987, Control_c, 0, 64, 86
1, 168001, Control_c, 0, 64, 88
1, 168016, Control_c, 0, 64, 90
1, 168031, Control_c, 0, 64, 91
1, 168046, Control_c, 0, 64, 92
1, 168061, Control_c, 0, 64, 92
1, 168075, Control_c, 0, 64, 93
1, 168090, Control_c, 0, 64, 94
1, 168120, Note_on_c, 0, 67, 45
1, 168120, Control_c, 0, 64, 94
1, 168126, Note_on_c, 0, 64, 40
1, 168164, Control_c, 0, 64, 95
1, 168233, Note_on_c, 0, 68, 53
1, 168234, Note_off_c, 0, 67, 57
1, 168239, Control_c, 0, 64, 95
1, 168282, Note_off_c, 0, 64, 46
1, 168328, Control_c, 0, 64, 96
1, 168332, Note_on_c, 0, 71, 60
1, 168332, Note_off_c, 0, 68, 62
1, 168335, Note_on_c, 0, 56, 45
1, 168391, Note_on_c, 0, 69, 65
1, 168406, Note_off_c, 0, 71, 56
1, 168463, Note_on_c, 0, 68, 66
1, 168465, Note_off_c, 0, 69, 65
1, 168490, Control_c, 0, 64, 95
1, 168516, Note_off_c, 0, 68, 62
1, 168535, Control_c, 0, 64, 94
1, 168557, Control_c, 0, 64, 89
1, 168559, Note_on_c, 0, 68, 50
1, 168572, Control_c, 0, 64, 79
1, 168574, Note_on_c, 0, 54, 43
1, 168580, Note_on_c, 0, 51, 44
1, 168588, Control_c, 0, 64, 63
1, 168603, Control_c, 0, 64, 0
1, 168662, Control_c, 0, 64, 55
1, 168677, Control_c, 0, 64, 64
1, 168692, Control_c, 0, 64, 69
1, 168706, Control_c, 0, 64, 74
1, 168721, Control_c, 0, 64, 81
1, 168736, Control_c, 0, 64, 84
1, 168751, Control_c, 0, 64, 86
1, 168766, Control_c, 0, 64, 87
1, 168775, Note_off_c, 0, 51, 35
1, 168780, Control_c, 0, 64, 88
1, 168795, Control_c, 0, 64, 90
1, 168808, Note_off_c, 0, 54, 36
1, 168810, Control_c, 0, 64, 91
1, 168811, Note_on_c, 0, 76, 66
1, 168818, Note_on_c, 0, 60, 41
1, 168824, Control_c, 0, 64, 91
1, 168836, Note_off_c, 0, 56, 38
1, 168869, Control_c, 0, 64, 92
1, 169002, Note_off_c, 0, 60, 35
1, 169013, Note_off_c, 0, 76, 57
1, 169025, Note_on_c, 0, 75, 72
1, 169026, Note_on_c, 0, 56, 47
1, 169091, Control_c, 0, 64, 91
1, 169224, Control_c, 0, 64, 90
1, 169239, Control_c, 0, 64, 85
1, 169254, Control_c, 0, 64, 74
1, 169258, Note_on_c, 0, 73, 70
1, 169258, Note_off_c, 0, 75, 59
1, 169269, Control_c, 0, 64, 56
1, 169273, Note_on_c, 0, 52, 40
1, 169284, Control_c, 0, 64, 0
1, 169336, Control_c, 0, 64, 57
1, 169350, Control_c, 0, 64, 65
1, 169360, Note_off_c, 0, 68, 42
1, 169365, Control_c, 0, 64, 70
1, 169381, Control_c, 0, 64, 76
1, 169396, Control_c, 0, 64, 81
1, 169410, Control_c, 0, 64, 84
1, 169414, Note_off_c, 0, 52, 35
1, 169425, Control_c, 0, 64, 86
1, 169437, Note_off_c, 0, 73, 60
1, 169440, Control_c, 0, 64, 86
1, 169455, Control_c, 0, 64, 88
1, 169470, Control_c, 0, 64, 89
1, 169472, Note_off_c, 0, 56, 42
1, 169485, Control_c, 0, 64, 90
1, 169490, Note_on_c, 0, 67, 60
1, 169494, Note_on_c, 0, 61, 44
1, 169515, Control_c, 0, 64, 91
1, 169559, Note_off_c, 0, 67, 60
1, 169571, Note_on_c, 0, 68, 56
1, 169583, Note_off_c, 0, 61, 61
1, 169637, Note_off_c, 0, 68, 64
1, 169638, Note_on_c, 0, 71, 65
1, 169664, Note_on_c, 0, 56, 39
1, 169697, Note_on_c, 0, 69, 67
1, 169706, Note_off_c, 0, 71, 59
1, 169750, Note_off_c, 0, 69, 65
1, 169756, Note_on_c, 0, 68, 72
1, 169781, Control_c, 0, 64, 89
1, 169786, Note_off_c, 0, 68, 66
1, 169795, Control_c, 0, 64, 82
1, 169810, Control_c, 0, 64, 70
1, 169825, Control_c, 0, 64, 0
1, 169843, Note_on_c, 0, 68, 72
1, 169846, Note_on_c, 0, 48, 43
1, 169869, Control_c, 0, 64, 50
1, 169884, Control_c, 0, 64, 63
1, 169893, Note_off_c, 0, 48, 61
1, 169899, Control_c, 0, 64, 68
1, 169914, Control_c, 0, 64, 73
1, 169929, Control_c, 0, 64, 78
1, 169944, Control_c, 0, 64, 82
1, 169959, Control_c, 0, 64, 84
1, 169973, Control_c, 0, 64, 84
1, 169988, Control_c, 0, 64, 85
1, 170003, Control_c, 0, 64, 86
1, 170018, Control_c, 0, 64, 87
1, 170026, Note_off_c, 0, 56, 40
1, 170033, Control_c, 0, 64, 88
1, 170054, Control_c, 0, 64, 88
1, 170061, Note_on_c, 0, 63, 60
1, 170063, Note_on_c, 0, 80, 82
1, 170244, Note_off_c, 0, 63, 42
1, 170258, Note_on_c, 0, 56, 51
1, 170263, Note_on_c, 0, 78, 84
1, 170296, Note_off_c, 0, 80, 32
1, 170426, Control_c, 0, 64, 88
1, 170441, Control_c, 0, 64, 84
1, 170456, Control_c, 0, 64, 75
1, 170464, Note_on_c, 0, 49, 57
1, 170471, Control_c, 0, 64, 57
1, 170482, Note_on_c, 0, 76, 73
1, 170485, Control_c, 0, 64, 0
1, 170500, Note_off_c, 0, 78, 53
1, 170530, Control_c, 0, 64, 61
1, 170544, Control_c, 0, 64, 67
1, 170559, Control_c, 0, 64, 73
1, 170564, Note_off_c, 0, 49, 56
1, 170569, Note_off_c, 0, 68, 59
1, 170574, Control_c, 0, 64, 80
1, 170589, Control_c, 0, 64, 84
1, 170602, Note_off_c, 0, 76, 62
1, 170603, Control_c, 0, 64, 86
1, 170617, Note_off_c, 0, 56, 47
1, 170618, Control_c, 0, 64, 86
1, 170633, Control_c, 0, 64, 87
1, 170648, Control_c, 0, 64, 87
1, 170663, Control_c, 0, 64, 88
1, 170680, Note_on_c, 0, 64, 48
1, 170680, Note_on_c, 0, 67, 63
1, 170692, Control_c, 0, 64, 88
1, 170746, Note_off_c, 0, 67, 60
1, 170752, Note_on_c, 0, 68, 69
1, 170779, Note_off_c, 0, 64, 57
1, 170816, Note_on_c, 0, 71, 65
1, 170817, Note_off_c, 0, 68, 64
1, 170833, Note_on_c, 0, 56, 43
1, 170872, Note_on_c, 0, 69, 76
1, 170883, Note_off_c, 0, 71, 55
1, 170893, Control_c, 0, 64, 88
1, 170930, Note_off_c, 0, 69, 67
1, 170932, Note_on_c, 0, 68, 76
1, 170955, Note_off_c, 0, 68, 68
1, 170983, Control_c, 0, 64, 87
1, 170998, Control_c, 0, 64, 80
1, 171007, Note_on_c, 0, 68, 78
1, 171009, Note_on_c, 0, 51, 49
1, 171013, Control_c, 0, 64, 65
1, 171016, Note_on_c, 0, 54, 52
1, 171027, Control_c, 0, 64, 0
1, 171057, Control_c, 0, 64, 37
1, 171072, Control_c, 0, 64, 62
1, 171087, Control_c, 0, 64, 67
1, 171101, Control_c, 0, 64, 73
1, 171116, Control_c, 0, 64, 80
1, 171131, Control_c, 0, 64, 85
1, 171146, Control_c, 0, 64, 88
1, 171161, Control_c, 0, 64, 88
1, 171171, Note_off_c, 0, 54, 56
1, 171172, Note_off_c, 0, 51, 36
1, 171175, Control_c, 0, 64, 89
1, 171190, Note_on_c, 0, 60, 53
1, 171190, Control_c, 0, 64, 89
1, 171196, Note_on_c, 0, 76, 81
1, 171205, Control_c, 0, 64, 91
1, 171213, Note_off_c, 0, 56, 40
1, 171220, Control_c, 0, 64, 92
1, 171235, Control_c, 0, 64, 93
1, 171345, Note_off_c, 0, 60, 51
1, 171360, Note_on_c, 0, 56, 58
1, 171367, Note_on_c, 0, 75, 83
1, 171402, Note_off_c, 0, 76, 63
1, 171451, Note_off_c, 0, 68, 57
1, 171516, Control_c, 0, 64, 92
1, 171528, Note_off_c, 0, 56, 0
1, 171528, Note_on_c, 0, 56, 25
1, 171531, Control_c, 0, 64, 89
1, 171540, Note_on_c, 0, 73, 85
1, 171550, Note_on_c, 0, 52, 68
1, 171553, Control_c, 0, 64, 78
1, 171568, Control_c, 0, 64, 54
1, 171583, Control_c, 0, 64, 0
1, 171584, Note_off_c, 0, 75, 63
1, 171613, Control_c, 0, 64, 24
1, 171627, Control_c, 0, 64, 62
1, 171641, Control_c, 0, 64, 69
1, 171656, Control_c, 0, 64, 76
1, 171671, Control_c, 0, 64, 84
1, 171682, Note_off_c, 0, 73, 58
1, 171686, Control_c, 0, 64, 87
1, 171693, Note_off_c, 0, 52, 59
1, 171700, Control_c, 0, 64, 88
1, 171715, Note_off_c, 0, 56, 0
1, 171717, Note_on_c, 0, 56, 8
1, 171724, Note_on_c, 0, 61, 66
1, 171730, Note_on_c, 0, 72, 80
1, 171730, Control_c, 0, 64, 88
1, 171749, Note_off_c, 0, 56, 41
1, 171795, Note_off_c, 0, 72, 64
1, 171797, Note_on_c, 0, 73, 76
1, 171829, Note_off_c, 0, 61, 61
1, 171855, Note_on_c, 0, 76, 78
1, 171857, Note_on_c, 0, 56, 62
1, 171870, Note_off_c, 0, 73, 62
1, 171925, Note_on_c, 0, 74, 80
1, 171943, Note_off_c, 0, 76, 63
1, 171998, Note_on_c, 0, 73, 84
1, 171999, Note_off_c, 0, 74, 68
1, 172006, Note_off_c, 0, 56, 50
1, 172044, Note_off_c, 0, 73, 65
1, 172072, Control_c, 0, 64, 87
1, 172087, Control_c, 0, 64, 80
1, 172102, Control_c, 0, 64, 67
1, 172117, Control_c, 0, 64, 0
1, 172122, Note_on_c, 0, 53, 43
1, 172126, Note_on_c, 0, 59, 43
1, 172136, Note_on_c, 0, 73, 69
1, 172175, Control_c, 0, 64, 25
1, 172190, Control_c, 0, 64, 59
1, 172205, Control_c, 0, 64, 66
1, 172220, Control_c, 0, 64, 71
1, 172235, Control_c, 0, 64, 77
1, 172242, Note_off_c, 0, 53, 64
1, 172249, Control_c, 0, 64, 82
1, 172264, Control_c, 0, 64, 84
1, 172279, Control_c, 0, 64, 84
1, 172302, Control_c, 0, 64, 86
1, 172306, Note_off_c, 0, 59, 57
1, 172317, Control_c, 0, 64, 87
1, 172331, Control_c, 0, 64, 88
1, 172346, Control_c, 0, 64, 89
1, 172375, Control_c, 0, 64, 90
1, 172448, Note_on_c, 0, 85, 55
1, 172465, Note_on_c, 0, 68, 35
1, 172674, Note_off_c, 0, 68, 41
1, 172706, Note_on_c, 0, 61, 41
1, 172710, Note_on_c, 0, 83, 57
1, 172791, Control_c, 0, 64, 89
1, 172804, Note_off_c, 0, 85, 28
1, 172835, Control_c, 0, 64, 89
1, 172865, Control_c, 0, 64, 88
1, 172880, Control_c, 0, 64, 87
1, 172895, Control_c, 0, 64, 87
1, 172910, Control_c, 0, 64, 86
1, 172925, Control_c, 0, 64, 85
1, 172939, Control_c, 0, 64, 84
1, 172954, Control_c, 0, 64, 82
1, 172969, Control_c, 0, 64, 78
1, 172984, Control_c, 0, 64, 70
1, 172993, Note_on_c, 0, 57, 38
1, 172998, Control_c, 0, 64, 35
1, 172999, Note_off_c, 0, 83, 31
1, 173005, Note_on_c, 0, 54, 37
1, 173013, Control_c, 0, 64, 0
1, 173044, Note_on_c, 0, 81, 58
1, 173095, Control_c, 0, 64, 51
1, 173110, Control_c, 0, 64, 64
1, 173125, Control_c, 0, 64, 68
1, 173140, Control_c, 0, 64, 71
1, 173145, Note_off_c, 0, 73, 54
1, 173154, Control_c, 0, 64, 75
1, 173160, Note_off_c, 0, 81, 60
1, 173169, Control_c, 0, 64, 77
1, 173184, Control_c, 0, 64, 78
1, 173193, Note_off_c, 0, 61, 34
1, 173198, Control_c, 0, 64, 79
1, 173203, Note_off_c, 0, 54, 38
1, 173213, Control_c, 0, 64, 80
1, 173228, Control_c, 0, 64, 80
1, 173243, Note_on_c, 0, 72, 56
1, 173253, Note_on_c, 0, 66, 45
1, 173279, Note_off_c, 0, 57, 34
1, 173304, Note_off_c, 0, 72, 48
1, 173318, Note_on_c, 0, 73, 61
1, 173360, Note_on_c, 0, 61, 39
1, 173373, Note_off_c, 0, 66, 53
1, 173387, Note_off_c, 0, 73, 63
1, 173391, Note_on_c, 0, 76, 62
1, 173436, Control_c, 0, 64, 80
1, 173447, Note_on_c, 0, 74, 63
1, 173458, Note_off_c, 0, 76, 66
1, 173466, Control_c, 0, 64, 79
1, 173502, Note_off_c, 0, 74, 65
1, 173510, Control_c, 0, 64, 79
1, 173511, Note_on_c, 0, 73, 69
1, 173525, Control_c, 0, 64, 78
1, 173539, Note_off_c, 0, 73, 64
1, 173540, Control_c, 0, 64, 75
1, 173555, Control_c, 0, 64, 69
1, 173569, Control_c, 0, 64, 40
1, 173581, Note_on_c, 0, 59, 37
1, 173584, Control_c, 0, 64, 0
1, 173593, Note_on_c, 0, 56, 37
1, 173602, Note_on_c, 0, 73, 57
1, 173658, Control_c, 0, 64, 51
1, 173673, Control_c, 0, 64, 64
1, 173688, Control_c, 0, 64, 68
1, 173703, Control_c, 0, 64, 73
1, 173718, Control_c, 0, 64, 76
1, 173726, Note_off_c, 0, 61, 18
1, 173733, Control_c, 0, 64, 78
1, 173748, Control_c, 0, 64, 79
1, 173770, Note_on_c, 0, 65, 46
1, 173804, Note_on_c, 0, 81, 70
1, 173818, Note_off_c, 0, 59, 34
1, 173947, Control_c, 0, 64, 78
1, 173962, Control_c, 0, 64, 78
1, 173969, Note_on_c, 0, 80, 73
1, 173975, Note_on_c, 0, 61, 50
1, 173977, Control_c, 0, 64, 77
1, 173987, Note_off_c, 0, 65, 35
1, 173989, Note_off_c, 0, 56, 35
1, 173998, Note_off_c, 0, 81, 35
1, 174007, Control_c, 0, 64, 77
1, 174022, Control_c, 0, 64, 76
1, 174052, Control_c, 0, 64, 76
1, 174126, Control_c, 0, 64, 74
1, 174141, Control_c, 0, 64, 68
1, 174153, Note_on_c, 0, 57, 44
1, 174155, Control_c, 0, 64, 38
1, 174169, Note_on_c, 0, 78, 76
1, 174171, Control_c, 0, 64, 0
1, 174182, Note_off_c, 0, 80, 64
1, 174216, Control_c, 0, 64, 55
1, 174222, Note_off_c, 0, 61, 25
1, 174231, Control_c, 0, 64, 64
1, 174244, Note_off_c, 0, 73, 38
1, 174245, Control_c, 0, 64, 69
1, 174260, Control_c, 0, 64, 73
1, 174275, Control_c, 0, 64, 77
1, 174290, Control_c, 0, 64, 78
1, 174305, Control_c, 0, 64, 79
1, 174306, Note_off_c, 0, 78, 62
1, 174347, Note_on_c, 0, 66, 48
1, 174355, Note_on_c, 0, 72, 64
1, 174383, Note_off_c, 0, 57, 30
1, 174417, Note_off_c, 0, 72, 63
1, 174418, Note_off_c, 0, 66, 56
1, 174418, Note_on_c, 0, 73, 69
1, 174484, Note_on_c, 0, 61, 50
1, 174484, Note_on_c, 0, 76, 71
1, 174487, Note_off_c, 0, 73, 63
1, 174497, Control_c, 0, 64, 78
1, 174526, Control_c, 0, 64, 78
1, 174549, Note_on_c, 0, 74, 74
1, 174561, Note_off_c, 0, 76, 64
1, 174564, Control_c, 0, 64, 77
1, 174611, Note_off_c, 0, 74, 68
1, 174616, Note_on_c, 0, 73, 80
1, 174623, Control_c, 0, 64, 77
1, 174638, Control_c, 0, 64, 76
1, 174645, Note_off_c, 0, 73, 65
1, 174652, Control_c, 0, 64, 70
1, 174667, Control_c, 0, 64, 53
1, 174682, Control_c, 0, 64, 0
1, 174699, Note_on_c, 0, 53, 52
1, 174704, Note_on_c, 0, 73, 79
1, 174726, Control_c, 0, 64, 36
1, 174741, Control_c, 0, 64, 62
1, 174756, Control_c, 0, 64, 67
1, 174768, Note_off_c, 0, 53, 60
1, 174770, Control_c, 0, 64, 72
1, 174785, Control_c, 0, 64, 76
1, 174800, Control_c, 0, 64, 80
1, 174815, Control_c, 0, 64, 82
1, 174830, Control_c, 0, 64, 83
1, 174845, Control_c, 0, 64, 85
1, 174860, Control_c, 0, 64, 88
1, 174874, Control_c, 0, 64, 91
1, 174889, Control_c, 0, 64, 93
1, 174892, Note_on_c, 0, 68, 65
1, 174894, Note_on_c, 0, 85, 87
1, 174904, Control_c, 0, 64, 95
1, 174907, Note_off_c, 0, 61, 40
1, 174919, Control_c, 0, 64, 96
1, 174934, Control_c, 0, 64, 98
1, 174949, Control_c, 0, 64, 99
1, 174964, Control_c, 0, 64, 100
1, 174979, Control_c, 0, 64, 101
1, 174994, Control_c, 0, 64, 101
1, 175023, Control_c, 0, 64, 102
1, 175041, Note_off_c, 0, 68, 62
1, 175083, Note_on_c, 0, 83, 87
1, 175085, Note_on_c, 0, 61, 57
1, 175125, Note_off_c, 0, 85, 59
1, 175205, Poly_aftertouch_c, 0, 82, 0
1, 175275, Control_c, 0, 64, 101
1, 175296, Note_off_c, 0, 83, 53
1, 175298, Control_c, 0, 64, 100
1, 175313, Control_c, 0, 64, 91
1, 175320, Note_on_c, 0, 54, 50
1, 175321, Note_on_c, 0, 57, 51
1, 175328, Control_c, 0, 64, 77
1, 175342, Control_c, 0, 64, 49
1, 175357, Control_c, 0, 64, 0
1, 175366, Note_on_c, 0, 81, 89
1, 175400, Control_c, 0, 64, 53
1, 175415, Control_c, 0, 64, 66
1, 175430, Control_c, 0, 64, 71
1, 175437, Note_off_c, 0, 54, 58
1, 175445, Control_c, 0, 64, 77
1, 175456, Note_off_c, 0, 73, 55
1, 175460, Control_c, 0, 64, 82
1, 175474, Control_c, 0, 64, 85
1, 175477, Note_off_c, 0, 57, 61
1, 175489, Control_c, 0, 64, 85
1, 175490, Note_off_c, 0, 61, 18
1, 175499, Note_off_c, 0, 81, 58
1, 175504, Control_c, 0, 64, 86
1, 175519, Control_c, 0, 64, 87
1, 175534, Control_c, 0, 64, 88
1, 175548, Control_c, 0, 64, 89
1, 175578, Control_c, 0, 64, 89
1, 175581, Note_on_c, 0, 69, 53
1, 175596, Note_on_c, 0, 72, 66
1, 175667, Note_on_c, 0, 73, 70
1, 175667, Note_off_c, 0, 72, 62
1, 175667, Note_off_c, 0, 69, 56
1, 175732, Note_off_c, 0, 73, 62
1, 175734, Note_on_c, 0, 76, 72
1, 175753, Note_on_c, 0, 61, 56
1, 175789, Note_on_c, 0, 74, 73
1, 175793, Note_off_c, 0, 76, 62
1, 175842, Note_on_c, 0, 73, 82
1, 175845, Note_off_c, 0, 74, 67
1, 175876, Note_off_c, 0, 73, 64
1, 175890, Control_c, 0, 64, 89
1, 175905, Control_c, 0, 64, 85
1, 175918, Note_on_c, 0, 73, 73
1, 175920, Control_c, 0, 64, 75
1, 175932, Note_on_c, 0, 56, 49
1, 175935, Control_c, 0, 64, 53
1, 175942, Note_on_c, 0, 59, 43
1, 175950, Control_c, 0, 64, 0
1, 175994, Control_c, 0, 64, 50
1, 176009, Control_c, 0, 64, 63
1, 176023, Control_c, 0, 64, 68
1, 176046, Control_c, 0, 64, 72
1, 176061, Control_c, 0, 64, 77
1, 176061, Note_off_c, 0, 61, 22
1, 176076, Control_c, 0, 64, 81
1, 176091, Control_c, 0, 64, 82
1, 176105, Control_c, 0, 64, 83
1, 176112, Note_on_c, 0, 65, 54
1, 176119, Note_on_c, 0, 81, 79
1, 176120, Control_c, 0, 64, 84
1, 176123, Note_off_c, 0, 59, 37
1, 176135, Control_c, 0, 64, 86
1, 176150, Control_c, 0, 64, 89
1, 176164, Control_c, 0, 64, 91
1, 176179, Control_c, 0, 64, 93
1, 176194, Control_c, 0, 64, 95
1, 176209, Control_c, 0, 64, 96
1, 176223, Control_c, 0, 64, 96
1, 176253, Control_c, 0, 64, 97
1, 176268, Note_off_c, 0, 65, 52
1, 176296, Note_on_c, 0, 61, 53
1, 176301, Note_on_c, 0, 80, 83
1, 176329, Note_off_c, 0, 81, 59
1, 176341, Note_off_c, 0, 56, 38
1, 176445, Control_c, 0, 64, 96
1, 176460, Control_c, 0, 64, 95
1, 176475, Control_c, 0, 64, 91
1, 176490, Control_c, 0, 64, 82
1, 176497, Note_on_c, 0, 57, 49
1, 176505, Control_c, 0, 64, 67
1, 176513, Note_off_c, 0, 61, 29
1, 176520, Control_c, 0, 64, 0
1, 176523, Note_on_c, 0, 78, 80
1, 176565, Control_c, 0, 64, 36
1, 176568, Note_off_c, 0, 80, 59
1, 176580, Control_c, 0, 64, 62
1, 176594, Control_c, 0, 64, 68
1, 176609, Control_c, 0, 64, 73
1, 176624, Control_c, 0, 64, 78
1, 176639, Control_c, 0, 64, 81
1, 176654, Control_c, 0, 64, 82
1, 176669, Note_off_c, 0, 73, 37
1, 176669, Control_c, 0, 64, 83
1, 176672, Note_off_c, 0, 78, 61
1, 176684, Control_c, 0, 64, 83
1, 176699, Control_c, 0, 64, 84
1, 176713, Control_c, 0, 64, 85
1, 176719, Note_on_c, 0, 66, 54
1, 176724, Note_on_c, 0, 72, 68
1, 176728, Control_c, 0, 64, 86
1, 176743, Control_c, 0, 64, 86
1, 176774, Note_off_c, 0, 57, 33
1, 176792, Note_on_c, 0, 73, 72
1, 176795, Note_off_c, 0, 72, 62
1, 176811, Note_off_c, 0, 66, 63
1, 176856, Note_on_c, 0, 76, 69
1, 176858, Note_off_c, 0, 73, 63
1, 176865, Note_on_c, 0, 61, 58
1, 176900, Note_off_c, 0, 61, 64
1, 176923, Note_on_c, 0, 74, 79
1, 176939, Note_off_c, 0, 76, 63
1, 177004, Note_off_c, 0, 74, 66
1, 177008, Note_on_c, 0, 73, 78
1, 177049, Note_off_c, 0, 73, 64
1, 177077, Control_c, 0, 64, 85
1, 177092, Control_c, 0, 64, 80
1, 177107, Control_c, 0, 64, 68
1, 177113, Note_on_c, 0, 73, 82
1, 177121, Control_c, 0, 64, 0
1, 177131, Note_on_c, 0, 45, 59
1, 177180, Control_c, 0, 64, 44
1, 177195, Control_c, 0, 64, 63
1, 177210, Control_c, 0, 64, 68
1, 177222, Note_off_c, 0, 45, 64
1, 177225, Control_c, 0, 64, 74
1, 177239, Control_c, 0, 64, 79
1, 177254, Control_c, 0, 64, 83
1, 177269, Control_c, 0, 64, 84
1, 177284, Control_c, 0, 64, 85
1, 177299, Control_c, 0, 64, 86
1, 177313, Control_c, 0, 64, 88
1, 177328, Control_c, 0, 64, 91
1, 177342, Note_on_c, 0, 61, 67
1, 177343, Control_c, 0, 64, 94
1, 177344, Note_on_c, 0, 80, 89
1, 177359, Control_c, 0, 64, 96
1, 177374, Control_c, 0, 64, 98
1, 177388, Control_c, 0, 64, 100
1, 177403, Control_c, 0, 64, 102
1, 177418, Control_c, 0, 64, 106
1, 177433, Control_c, 0, 64, 109
1, 177448, Control_c, 0, 64, 111
1, 177462, Control_c, 0, 64, 112
1, 177477, Control_c, 0, 64, 113
1, 177492, Note_off_c, 0, 61, 59
1, 177492, Control_c, 0, 64, 114
1, 177507, Control_c, 0, 64, 116
1, 177522, Control_c, 0, 64, 118
1, 177544, Control_c, 0, 64, 119
1, 177559, Control_c, 0, 64, 121
1, 177574, Control_c, 0, 64, 126
1, 177579, Note_on_c, 0, 54, 74
1, 177583, Note_on_c, 0, 81, 88
1, 177584, Note_off_c, 0, 73, 0
1, 177584, Note_on_c, 0, 73, 49
1, 177588, Control_c, 0, 64, 127
1, 177623, Note_off_c, 0, 54, 62
1, 177623, Note_off_c, 0, 80, 58
1, 177839, Control_c, 0, 64, 116
1, 177854, Control_c, 0, 64, 97
1, 177868, Control_c, 0, 64, 77
1, 177883, Control_c, 0, 64, 0
1, 177888, Note_on_c, 0, 51, 73
1, 177889, Note_on_c, 0, 44, 65
1, 177906, Note_on_c, 0, 80, 88
1, 177913, Note_off_c, 0, 81, 0
1, 177928, Control_c, 0, 64, 34
1, 177942, Control_c, 0, 64, 64
1, 177954, Poly_aftertouch_c, 0, 81, 0
1, 177957, Note_off_c, 0, 73, 57
1, 177957, Control_c, 0, 64, 72
1, 177960, Note_off_c, 0, 44, 63
1, 177972, Control_c, 0, 64, 81
1, 177986, Control_c, 0, 64, 88
1, 178001, Control_c, 0, 64, 90
1, 178002, Note_off_c, 0, 80, 63
1, 178022, Note_off_c, 0, 51, 61
1, 178031, Control_c, 0, 64, 91
1, 178046, Control_c, 0, 64, 91
1, 178061, Control_c, 0, 64, 92
1, 178091, Control_c, 0, 64, 92
1, 178134, Note_on_c, 0, 60, 48
1, 178136, Note_on_c, 0, 67, 54
1, 178174, Note_off_c, 0, 67, 61
1, 178177, Note_on_c, 0, 68, 65
1, 178222, Note_off_c, 0, 60, 54
1, 178231, Note_on_c, 0, 71, 69
1, 178234, Note_on_c, 0, 56, 51
1, 178234, Note_off_c, 0, 68, 63
1, 178278, Note_on_c, 0, 69, 69
1, 178307, Note_off_c, 0, 71, 60
1, 178341, Note_off_c, 0, 69, 67
1, 178347, Note_on_c, 0, 68, 72
1, 178374, Note_off_c, 0, 68, 66
1, 178395, Control_c, 0, 64, 90
1, 178410, Control_c, 0, 64, 80
1, 178412, Note_off_c, 0, 56, 32
1, 178413, Note_on_c, 0, 52, 80
1, 178425, Control_c, 0, 64, 63
1, 178428, Note_on_c, 0, 68, 79
1, 178440, Control_c, 0, 64, 0
1, 178484, Control_c, 0, 64, 40
1, 178499, Control_c, 0, 64, 63
1, 178514, Control_c, 0, 64, 69
1, 178529, Control_c, 0, 64, 75
1, 178543, Control_c, 0, 64, 82
1, 178558, Control_c, 0, 64, 85
1, 178573, Control_c, 0, 64, 86
1, 178588, Control_c, 0, 64, 87
1, 178601, Note_on_c, 0, 78, 87
1, 178603, Control_c, 0, 64, 88
1, 178609, Note_on_c, 0, 61, 68
1, 178617, Control_c, 0, 64, 90
1, 178632, Control_c, 0, 64, 91
1, 178647, Control_c, 0, 64, 92
1, 178653, Note_off_c, 0, 52, 51
1, 178662, Control_c, 0, 64, 93
1, 178677, Control_c, 0, 64, 93
1, 178691, Control_c, 0, 64, 94
1, 178706, Control_c, 0, 64, 94
1, 178723, Note_off_c, 0, 61, 60
1, 178739, Note_off_c, 0, 78, 59
1, 178748, Note_on_c, 0, 56, 73
1, 178750, Control_c, 0, 64, 95
1, 178773, Note_on_c, 0, 76, 82
1, 178785, Note_off_c, 0, 56, 60
1, 178958, Control_c, 0, 64, 94
1, 178973, Control_c, 0, 64, 92
1, 178988, Control_c, 0, 64, 83
1, 179003, Control_c, 0, 64, 68
1, 179013, Note_on_c, 0, 44, 64
1, 179018, Note_on_c, 0, 54, 74
1, 179018, Control_c, 0, 64, 0
1, 179048, Note_off_c, 0, 76, 53
1, 179053, Note_on_c, 0, 75, 72
1, 179085, Control_c, 0, 64, 18
1, 179100, Control_c, 0, 64, 61
1, 179109, Note_off_c, 0, 44, 64
1, 179114, Control_c, 0, 64, 67
1, 179129, Control_c, 0, 64, 73
1, 179144, Control_c, 0, 64, 81
1, 179148, Note_off_c, 0, 68, 48
1, 179158, Control_c, 0, 64, 85
1, 179170, Note_off_c, 0, 75, 63
1, 179173, Control_c, 0, 64, 86
1, 179187, Note_off_c, 0, 54, 60
1, 179188, Control_c, 0, 64, 87
1, 179203, Control_c, 0, 64, 88
1, 179218, Control_c, 0, 64, 89
1, 179232, Control_c, 0, 64, 90
1, 179249, Note_on_c, 0, 67, 56
1, 179259, Note_on_c, 0, 60, 59
1, 179262, Control_c, 0, 64, 90
1, 179287, Note_off_c, 0, 67, 62
1, 179301, Note_on_c, 0, 68, 56
1, 179349, Note_off_c, 0, 60, 53
1, 179358, Note_off_c, 0, 68, 63
1, 179361, Note_on_c, 0, 71, 64
1, 179367, Note_on_c, 0, 56, 57
1, 179416, Note_on_c, 0, 69, 65
1, 179438, Note_off_c, 0, 71, 59
1, 179480, Note_off_c, 0, 69, 66
1, 179481, Note_on_c, 0, 68, 67
1, 179514, Control_c, 0, 64, 89
1, 179516, Note_off_c, 0, 68, 62
1, 179529, Control_c, 0, 64, 84
1, 179544, Control_c, 0, 64, 73
1, 179554, Note_on_c, 0, 52, 75
1, 179558, Control_c, 0, 64, 32
1, 179563, Note_off_c, 0, 56, 35
1, 179573, Control_c, 0, 64, 0
1, 179578, Note_on_c, 0, 68, 57
1, 179632, Control_c, 0, 64, 57
1, 179647, Control_c, 0, 64, 65
1, 179662, Control_c, 0, 64, 69
1, 179677, Control_c, 0, 64, 73
1, 179692, Control_c, 0, 64, 78
1, 179706, Control_c, 0, 64, 81
1, 179721, Control_c, 0, 64, 81
1, 179757, Note_on_c, 0, 61, 57
1, 179757, Note_on_c, 0, 75, 68
1, 179767, Control_c, 0, 64, 82
1, 179819, Control_c, 0, 64, 82
1, 179833, Note_off_c, 0, 52, 34
1, 179875, Note_off_c, 0, 61, 48
1, 179878, Control_c, 0, 64, 83
1, 179922, Note_on_c, 0, 56, 63
1, 179945, Note_on_c, 0, 73, 69
1, 179952, Control_c, 0, 64, 83
1, 179956, Note_off_c, 0, 56, 65
1, 179983, Note_off_c, 0, 75, 37
1, 180145, Control_c, 0, 64, 82
1, 180160, Control_c, 0, 64, 79
1, 180164, Note_off_c, 0, 73, 55
1, 180174, Control_c, 0, 64, 69
1, 180189, Control_c, 0, 64, 0
1, 180192, Note_on_c, 0, 51, 64
1, 180198, Note_on_c, 0, 44, 54
1, 180209, Note_on_c, 0, 72, 60
1, 180256, Note_off_c, 0, 68, 41
1, 180278, Control_c, 0, 64, 47
1, 180293, Control_c, 0, 64, 65
1, 180305, Note_off_c, 0, 44, 62
1, 180307, Control_c, 0, 64, 70
1, 180322, Control_c, 0, 64, 75
1, 180337, Control_c, 0, 64, 79
1, 180352, Note_off_c, 0, 72, 61
1, 180352, Control_c, 0, 64, 81
1, 180367, Control_c, 0, 64, 82
1, 180368, Note_off_c, 0, 51, 62
1, 180381, Control_c, 0, 64, 83
1, 180396, Control_c, 0, 64, 83
1, 180411, Control_c, 0, 64, 84
1, 180423, Note_on_c, 0, 67, 58
1, 180426, Control_c, 0, 64, 84
1, 180427, Note_on_c, 0, 60, 54
1, 180441, Control_c, 0, 64, 85
1, 180472, Note_off_c, 0, 67, 56
1, 180483, Note_on_c, 0, 68, 59
1, 180531, Note_off_c, 0, 60, 54
1, 180540, Note_off_c, 0, 68, 61
1, 180545, Note_on_c, 0, 71, 65
1, 180548, Note_on_c, 0, 56, 48
1, 180599, Note_on_c, 0, 69, 66
1, 180616, Note_off_c, 0, 71, 60
1, 180660, Note_on_c, 0, 68, 69
1, 180665, Note_off_c, 0, 69, 66
1, 180712, Note_off_c, 0, 68, 63
1, 180732, Control_c, 0, 64, 84
1, 180747, Control_c, 0, 64, 83
1, 180756, Note_off_c, 0, 56, 26
1, 180761, Control_c, 0, 64, 75
1, 180768, Note_on_c, 0, 52, 72
1, 180776, Control_c, 0, 64, 63
1, 180779, Note_on_c, 0, 68, 57
1, 180791, Control_c, 0, 64, 0
1, 180865, Control_c, 0, 64, 49
1, 180879, Control_c, 0, 64, 63
1, 180894, Control_c, 0, 64, 67
1, 180909, Control_c, 0, 64, 72
1, 180924, Control_c, 0, 64, 76
1, 180938, Control_c, 0, 64, 79
1, 180953, Control_c, 0, 64, 81
1, 180967, Note_on_c, 0, 61, 56
1, 180968, Control_c, 0, 64, 82
1, 180973, Note_on_c, 0, 78, 77
1, 180983, Control_c, 0, 64, 83
1, 180998, Control_c, 0, 64, 84
1, 181012, Control_c, 0, 64, 85
1, 181027, Control_c, 0, 64, 86
1, 181039, Note_off_c, 0, 52, 47
1, 181042, Control_c, 0, 64, 87
1, 181057, Control_c, 0, 64, 88
1, 181072, Control_c, 0, 64, 88
1, 181087, Control_c, 0, 64, 89
1, 181099, Note_off_c, 0, 61, 59
1, 181113, Note_off_c, 0, 68, 54
1, 181116, Control_c, 0, 64, 90
1, 181134, Note_off_c, 0, 78, 57
1, 181161, Control_c, 0, 64, 90
1, 181169, Note_on_c, 0, 56, 59
1, 181197, Note_on_c, 0, 76, 73
1, 181227, Note_off_c, 0, 56, 62
1, 181412, Note_off_c, 0, 76, 37
1, 181421, Control_c, 0, 64, 90
1, 181465, Control_c, 0, 64, 89
1, 181477, Note_on_c, 0, 47, 65
1, 181480, Control_c, 0, 64, 85
1, 181495, Control_c, 0, 64, 76
1, 181509, Note_on_c, 0, 69, 67
1, 181510, Control_c, 0, 64, 60
1, 181516, Note_on_c, 0, 75, 61
1, 181525, Control_c, 0, 64, 0
1, 181584, Control_c, 0, 64, 18
1, 181599, Control_c, 0, 64, 60
1, 181614, Control_c, 0, 64, 66
1, 181619, Note_off_c, 0, 75, 63
1, 181629, Control_c, 0, 64, 71
1, 181643, Control_c, 0, 64, 76
1, 181658, Control_c, 0, 64, 80
1, 181673, Control_c, 0, 64, 82
1, 181688, Control_c, 0, 64, 82
1, 181703, Control_c, 0, 64, 83
1, 181717, Control_c, 0, 64, 84
1, 181732, Control_c, 0, 64, 86
1, 181747, Control_c, 0, 64, 87
1, 181761, Control_c, 0, 64, 89
1, 181763, Note_off_c, 0, 69, 58
1, 181767, Note_on_c, 0, 70, 64
1, 181776, Control_c, 0, 64, 90
1, 181777, Note_on_c, 0, 54, 56
1, 181791, Control_c, 0, 64, 90
1, 181806, Control_c, 0, 64, 91
1, 181821, Control_c, 0, 64, 92
1, 181835, Control_c, 0, 64, 93
1, 181850, Control_c, 0, 64, 94
1, 181865, Control_c, 0, 64, 95
1, 181880, Control_c, 0, 64, 95
1, 181895, Control_c, 0, 64, 96
1, 181899, Note_off_c, 0, 70, 59
1, 181903, Note_on_c, 0, 71, 62
1, 181909, Control_c, 0, 64, 97
1, 181924, Control_c, 0, 64, 98
1, 181939, Control_c, 0, 64, 100
1, 181954, Control_c, 0, 64, 101
1, 181969, Control_c, 0, 64, 101
1, 181984, Control_c, 0, 64, 102
1, 181999, Control_c, 0, 64, 102
1, 182014, Control_c, 0, 64, 103
1, 182035, Control_c, 0, 64, 104
1, 182042, Note_on_c, 0, 57, 46
1, 182050, Control_c, 0, 64, 104
1, 182052, Note_on_c, 0, 75, 69
1, 182065, Control_c, 0, 64, 105
1, 182072, Note_off_c, 0, 71, 52
1, 182080, Control_c, 0, 64, 105
1, 182095, Control_c, 0, 64, 106
1, 182124, Control_c, 0, 64, 106
1, 182173, Note_on_c, 0, 73, 68
1, 182184, Control_c, 0, 64, 107
1, 182222, Note_off_c, 0, 75, 56
1, 182293, Note_on_c, 0, 71, 63
1, 182309, Note_off_c, 0, 73, 50
1, 182362, Note_off_c, 0, 71, 58
1, 182406, Control_c, 0, 64, 106
1, 182421, Control_c, 0, 64, 105
1, 182436, Control_c, 0, 64, 102
1, 182451, Control_c, 0, 64, 96
1, 182465, Control_c, 0, 64, 86
1, 182473, Note_on_c, 0, 71, 62
1, 182478, Note_on_c, 0, 63, 52
1, 182480, Control_c, 0, 64, 71
1, 182495, Control_c, 0, 64, 0
1, 182613, Control_c, 0, 64, 60
1, 182628, Control_c, 0, 64, 69
1, 182643, Control_c, 0, 64, 75
1, 182658, Control_c, 0, 64, 81
1, 182672, Control_c, 0, 64, 84
1, 182687, Control_c, 0, 64, 87
1, 182702, Control_c, 0, 64, 88
1, 182717, Control_c, 0, 64, 90
1, 182732, Control_c, 0, 64, 91
1, 182747, Control_c, 0, 64, 92
1, 182762, Control_c, 0, 64, 93
1, 182783, Control_c, 0, 64, 95
1, 182798, Control_c, 0, 64, 97
1, 182813, Control_c, 0, 64, 98
1, 182819, Note_on_c, 0, 76, 52
1, 182828, Control_c, 0, 64, 99
1, 182843, Control_c, 0, 64, 100
1, 182851, Note_off_c, 0, 63, 56
1, 182857, Control_c, 0, 64, 101
1, 182872, Control_c, 0, 64, 102
1, 182887, Control_c, 0, 64, 103
1, 182902, Control_c, 0, 64, 104
1, 182937, Note_off_c, 0, 76, 63
1, 182947, Control_c, 0, 64, 105
1, 183140, Control_c, 0, 67, 8
1, 183155, Control_c, 0, 67, 13
1, 183170, Control_c, 0, 67, 21
1, 183185, Control_c, 0, 67, 33
1, 183199, Control_c, 0, 67, 51
1, 183214, Control_c, 0, 67, 73
1, 183229, Control_c, 0, 67, 97
1, 183244, Control_c, 0, 67, 124
1, 183259, Control_c, 0, 67, 127
1, 183265, Note_on_c, 0, 78, 61
1, 183270, Note_off_c, 0, 71, 49
1, 183304, Note_off_c, 0, 47, 40
1, 183346, Note_off_c, 0, 57, 32
1, 183352, Note_off_c, 0, 54, 37
1, 183402, Note_off_c, 0, 78, 62
1, 183532, Control_c, 0, 64, 104
1, 183577, Control_c, 0, 64, 104
1, 183622, Control_c, 0, 64, 103
1, 183652, Control_c, 0, 64, 103
1, 183696, Control_c, 0, 64, 102
1, 183726, Control_c, 0, 64, 102
1, 183740, Control_c, 0, 64, 101
1, 183756, Control_c, 0, 64, 100
1, 183771, Control_c, 0, 64, 94
1, 183786, Control_c, 0, 64, 83
1, 183801, Control_c, 0, 64, 66
1, 183806, Note_on_c, 0, 68, 48
1, 183811, Note_on_c, 0, 52, 40
1, 183816, Control_c, 0, 64, 0
1, 183875, Control_c, 0, 64, 33
1, 183890, Control_c, 0, 64, 62
1, 183901, Note_off_c, 0, 68, 64
1, 183905, Control_c, 0, 64, 67
1, 183919, Control_c, 0, 64, 74
1, 183934, Control_c, 0, 64, 81
1, 183946, Note_on_c, 0, 71, 52
1, 183948, Control_c, 0, 64, 85
1, 183963, Control_c, 0, 64, 86
1, 183978, Control_c, 0, 64, 86
1, 183985, Note_off_c, 0, 71, 50
1, 183993, Control_c, 0, 64, 87
1, 184008, Control_c, 0, 64, 88
1, 184039, Note_on_c, 0, 64, 34
1, 184041, Note_on_c, 0, 59, 33
1, 184044, Note_off_c, 0, 52, 36
1, 184046, Note_on_c, 0, 76, 56
1, 184075, Note_off_c, 0, 76, 61
1, 184088, Note_off_c, 0, 64, 48
1, 184106, Note_on_c, 0, 80, 55
1, 184163, Note_on_c, 0, 56, 39
1, 184171, Note_on_c, 0, 78, 63
1, 184175, Note_off_c, 0, 80, 63
1, 184181, Note_off_c, 0, 59, 22
1, 184208, Note_off_c, 0, 78, 62
1, 184214, Note_off_c, 0, 56, 49
1, 184246, Note_on_c, 0, 76, 61
1, 184260, Control_c, 0, 64, 88
1, 184282, Control_c, 0, 64, 83
1, 184297, Control_c, 0, 64, 72
1, 184310, Note_off_c, 0, 76, 63
1, 184312, Control_c, 0, 64, 0
1, 184319, Note_on_c, 0, 51, 57
1, 184323, Note_on_c, 0, 80, 67
1, 184354, Note_off_c, 0, 80, 63
1, 184356, Control_c, 0, 64, 50
1, 184367, Note_off_c, 0, 51, 58
1, 184371, Control_c, 0, 64, 66
1, 184386, Control_c, 0, 64, 72
1, 184401, Control_c, 0, 64, 80
1, 184416, Control_c, 0, 64, 85
1, 184421, Note_on_c, 0, 83, 67
1, 184430, Control_c, 0, 64, 86
1, 184482, Note_off_c, 0, 83, 58
1, 184485, Note_on_c, 0, 88, 73
1, 184485, Note_on_c, 0, 64, 39
1, 184516, Note_off_c, 0, 64, 51
1, 184539, Note_off_c, 0, 88, 61
1, 184539, Poly_aftertouch_c, 0, 59, 127
1, 184559, Note_on_c, 0, 92, 74
1, 184579, Control_c, 0, 67, 124
1, 184594, Control_c, 0, 67, 91
1, 184601, Note_on_c, 0, 56, 49
1, 184609, Control_c, 0, 67, 48
1, 184610, Poly_aftertouch_c, 0, 59, 0
1, 184624, Control_c, 0, 67, 0
1, 184634, Note_on_c, 0, 90, 66
1, 184655, Note_off_c, 0, 56, 54
1, 184667, Note_off_c, 0, 92, 60
1, 184685, Note_on_c, 0, 88, 67
1, 184699, Note_off_c, 0, 90, 62
1, 184713, Control_c, 0, 64, 84
1, 184727, Control_c, 0, 64, 74
1, 184728, Note_off_c, 0, 88, 62
1, 184742, Control_c, 0, 64, 22
1, 184753, Note_on_c, 0, 49, 58
1, 184757, Control_c, 0, 64, 0
1, 184762, Note_on_c, 0, 83, 62
1, 184787, Note_off_c, 0, 49, 62
1, 184813, Note_off_c, 0, 83, 60
1, 184843, Note_on_c, 0, 80, 59
1, 184902, Note_on_c, 0, 78, 64
1, 184920, Note_on_c, 0, 64, 49
1, 184929, Note_off_c, 0, 80, 62
1, 184955, Note_off_c, 0, 64, 61
1, 184965, Note_on_c, 0, 76, 62
1, 184965, Note_off_c, 0, 78, 63
1, 184992, Note_off_c, 0, 76, 68
1, 185024, Note_on_c, 0, 56, 60
1, 185040, Note_on_c, 0, 71, 62
1, 185051, Note_off_c, 0, 56, 65
1, 185096, Note_off_c, 0, 71, 58
1, 185118, Note_on_c, 0, 68, 56
1, 185178, Note_on_c, 0, 47, 66
1, 185181, Note_on_c, 0, 66, 59
1, 185224, Control_c, 0, 64, 45
1, 185228, Note_off_c, 0, 68, 61
1, 185239, Control_c, 0, 64, 64
1, 185244, Note_on_c, 0, 64, 60
1, 185252, Note_off_c, 0, 66, 66
1, 185253, Control_c, 0, 64, 69
1, 185268, Control_c, 0, 64, 76
1, 185283, Control_c, 0, 64, 81
1, 185297, Note_off_c, 0, 64, 61
1, 185298, Control_c, 0, 64, 82
1, 185317, Note_on_c, 0, 59, 62
1, 185353, Note_off_c, 0, 59, 60
1, 185377, Note_on_c, 0, 68, 60
1, 185433, Note_on_c, 0, 66, 63
1, 185439, Note_off_c, 0, 68, 62
1, 185463, Note_off_c, 0, 66, 69
1, 185489, Note_off_c, 0, 47, 54
1, 185495, Note_on_c, 0, 64, 63
1, 185506, Control_c, 0, 64, 81
1, 185520, Control_c, 0, 64, 77
1, 185535, Note_off_c, 0, 64, 57
1, 185535, Control_c, 0, 64, 64
1, 185550, Control_c, 0, 64, 0
1, 185576, Note_on_c, 0, 45, 67
1, 185577, Note_on_c, 0, 61, 64
1, 185604, Note_off_c, 0, 45, 66
1, 185606, Note_off_c, 0, 61, 65
1, 185631, Note_on_c, 0, 64, 62
1, 185666, Note_off_c, 0, 64, 64
1, 185706, Note_on_c, 0, 66, 68
1, 185730, Note_off_c, 0, 66, 69
1, 185742, Note_on_c, 0, 64, 61
1, 185752, Note_on_c, 0, 61, 55
1, 185791, Note_on_c, 0, 69, 68
1, 185793, Note_off_c, 0, 64, 59
1, 185814, Note_off_c, 0, 61, 40
1, 185838, Note_on_c, 0, 54, 59
1, 185843, Note_off_c, 0, 69, 64
1, 185856, Note_on_c, 0, 73, 70
1, 185882, Note_off_c, 0, 54, 62
1, 185944, Note_on_c, 0, 76, 63
1, 185957, Note_off_c, 0, 73, 60
1, 185987, Note_on_c, 0, 78, 75
1, 185993, Note_on_c, 0, 42, 72
1, 185999, Note_off_c, 0, 76, 67
1, 186021, Note_off_c, 0, 42, 66
1, 186022, Note_off_c, 0, 78, 66
1, 186074, Note_on_c, 0, 81, 63
1, 186109, Note_off_c, 0, 81, 59
1, 186126, Note_on_c, 0, 85, 71
1, 186151, Note_on_c, 0, 61, 54
1, 186154, Note_on_c, 0, 64, 48
1, 186181, Note_off_c, 0, 64, 58
1, 186195, Note_on_c, 0, 88, 75
1, 186196, Note_off_c, 0, 85, 63
1, 186204, Note_off_c, 0, 61, 50
1, 186248, Note_on_c, 0, 54, 47
1, 186258, Note_on_c, 0, 90, 64
1, 186273, Note_off_c, 0, 54, 56
1, 186279, Note_off_c, 0, 88, 61
1, 186322, Note_off_c, 0, 90, 64
1, 186325, Note_on_c, 0, 93, 79
1, 186383, Note_on_c, 0, 47, 68
1, 186407, Note_on_c, 0, 92, 72
1, 186408, Note_off_c, 0, 47, 67
1, 186432, Note_off_c, 0, 93, 54
1, 186470, Note_on_c, 0, 90, 66
1, 186508, Note_off_c, 0, 92, 57
1, 186538, Note_on_c, 0, 87, 71
1, 186553, Note_on_c, 0, 63, 58
1, 186554, Note_off_c, 0, 90, 63
1, 186556, Note_on_c, 0, 59, 51
1, 186584, Note_off_c, 0, 87, 61
1, 186610, Note_on_c, 0, 81, 64
1, 186667, Note_on_c, 0, 54, 73
1, 186675, Note_off_c, 0, 81, 58
1, 186706, Note_on_c, 0, 80, 66
1, 186768, Note_on_c, 0, 78, 64
1, 186773, Note_off_c, 0, 80, 63
1, 186799, Note_off_c, 0, 59, 0
1, 186799, Note_on_c, 0, 59, 9
1, 186800, Note_off_c, 0, 54, 37
1, 186801, Note_on_c, 0, 56, 82
1, 186826, Note_on_c, 0, 75, 69
1, 186828, Note_off_c, 0, 78, 64
1, 186871, Note_off_c, 0, 75, 60
1, 186907, Note_on_c, 0, 71, 61
1, 186947, Note_off_c, 0, 56, 61
1, 186955, Note_on_c, 0, 54, 70
1, 186968, Note_off_c, 0, 71, 55
1, 186974, Note_on_c, 0, 75, 57
1, 187001, Note_off_c, 0, 59, 22
1, 187029, Note_on_c, 0, 73, 56
1, 187061, Note_off_c, 0, 75, 60
1, 187081, Note_on_c, 0, 56, 69
1, 187095, Note_on_c, 0, 71, 58
1, 187099, Note_off_c, 0, 63, 44
1, 187101, Note_off_c, 0, 73, 63
1, 187122, Control_c, 0, 64, 48
1, 187123, Note_off_c, 0, 54, 61
1, 187126, Note_off_c, 0, 71, 65
1, 187137, Control_c, 0, 64, 63
1, 187152, Control_c, 0, 64, 66
1, 187153, Note_on_c, 0, 69, 59
1, 187167, Control_c, 0, 64, 69
1, 187174, Note_off_c, 0, 56, 60
1, 187181, Control_c, 0, 64, 70
1, 187196, Control_c, 0, 64, 68
1, 187200, Note_off_c, 0, 69, 62
1, 187211, Control_c, 0, 64, 51
1, 187220, Note_on_c, 0, 68, 62
1, 187226, Control_c, 0, 64, 0
1, 187227, Note_on_c, 0, 52, 77
1, 187251, Note_off_c, 0, 68, 67
1, 187307, Control_c, 0, 64, 61
1, 187311, Note_on_c, 0, 71, 67
1, 187322, Control_c, 0, 64, 68
1, 187337, Control_c, 0, 64, 73
1, 187352, Control_c, 0, 64, 79
1, 187357, Note_off_c, 0, 71, 48
1, 187367, Control_c, 0, 64, 82
1, 187382, Note_on_c, 0, 59, 44
1, 187388, Note_on_c, 0, 64, 51
1, 187389, Note_on_c, 0, 76, 59
1, 187412, Note_off_c, 0, 76, 65
1, 187433, Note_on_c, 0, 80, 59
1, 187445, Note_off_c, 0, 64, 56
1, 187461, Note_off_c, 0, 52, 63
1, 187481, Note_on_c, 0, 56, 53
1, 187491, Note_on_c, 0, 78, 66
1, 187501, Note_off_c, 0, 80, 64
1, 187521, Note_off_c, 0, 59, 34
1, 187527, Note_off_c, 0, 78, 61
1, 187534, Note_off_c, 0, 56, 56
1, 187567, Note_on_c, 0, 76, 57
1, 187573, Control_c, 0, 64, 82
1, 187588, Control_c, 0, 64, 75
1, 187603, Control_c, 0, 64, 62
1, 187614, Note_on_c, 0, 51, 73
1, 187618, Note_off_c, 0, 76, 65
1, 187618, Control_c, 0, 64, 0
1, 187629, Note_on_c, 0, 80, 74
1, 187648, Control_c, 0, 64, 56
1, 187655, Note_off_c, 0, 80, 65
1, 187662, Control_c, 0, 64, 66
1, 187677, Control_c, 0, 64, 72
1, 187692, Control_c, 0, 64, 80
1, 187699, Note_off_c, 0, 51, 51
1, 187707, Control_c, 0, 64, 85
1, 187719, Note_on_c, 0, 83, 71
1, 187722, Control_c, 0, 64, 87
1, 187778, Note_on_c, 0, 64, 45
1, 187779, Note_on_c, 0, 88, 72
1, 187780, Note_off_c, 0, 83, 61
1, 187782, Note_on_c, 0, 59, 42
1, 187811, Note_off_c, 0, 64, 51
1, 187827, Note_off_c, 0, 88, 59
1, 187840, Note_off_c, 0, 59, 38
1, 187842, Note_on_c, 0, 92, 76
1, 187888, Note_on_c, 0, 56, 52
1, 187913, Note_on_c, 0, 90, 67
1, 187940, Note_off_c, 0, 92, 61
1, 187948, Note_off_c, 0, 56, 55
1, 187962, Note_on_c, 0, 88, 68
1, 187975, Control_c, 0, 64, 87
1, 187975, Note_off_c, 0, 90, 63
1, 187989, Control_c, 0, 64, 81
1, 187990, Note_off_c, 0, 88, 64
1, 188004, Control_c, 0, 64, 67
1, 188026, Control_c, 0, 64, 0
1, 188029, Note_on_c, 0, 49, 67
1, 188043, Note_on_c, 0, 83, 62
1, 188067, Note_off_c, 0, 49, 61
1, 188098, Note_off_c, 0, 83, 58
1, 188116, Note_on_c, 0, 80, 63
1, 188175, Note_on_c, 0, 78, 70
1, 188193, Note_on_c, 0, 64, 47
1, 188197, Note_off_c, 0, 80, 59
1, 188225, Note_off_c, 0, 64, 57
1, 188241, Note_off_c, 0, 78, 63
1, 188246, Note_on_c, 0, 76, 56
1, 188265, Note_off_c, 0, 76, 65
1, 188272, Note_on_c, 0, 56, 65
1, 188301, Note_on_c, 0, 71, 60
1, 188304, Note_off_c, 0, 56, 63
1, 188345, Note_off_c, 0, 71, 55
1, 188381, Note_on_c, 0, 68, 59
1, 188427, Note_on_c, 0, 47, 68
1, 188431, Note_on_c, 0, 66, 65
1, 188470, Control_c, 0, 64, 48
1, 188479, Note_off_c, 0, 68, 62
1, 188485, Control_c, 0, 64, 66
1, 188495, Note_on_c, 0, 64, 60
1, 188500, Note_off_c, 0, 66, 65
1, 188500, Control_c, 0, 64, 72
1, 188515, Control_c, 0, 64, 82
1, 188530, Control_c, 0, 64, 88
1, 188537, Note_off_c, 0, 64, 63
1, 188545, Control_c, 0, 64, 89
1, 188558, Note_on_c, 0, 59, 67
1, 188594, Note_off_c, 0, 59, 59
1, 188623, Note_on_c, 0, 68, 59
1, 188676, Note_on_c, 0, 66, 66
1, 188687, Note_off_c, 0, 68, 62
1, 188712, Note_off_c, 0, 66, 67
1, 188715, Note_off_c, 0, 47, 35
1, 188737, Note_on_c, 0, 64, 68
1, 188753, Control_c, 0, 64, 88
1, 188775, Control_c, 0, 64, 79
1, 188790, Control_c, 0, 64, 62
1, 188795, Note_off_c, 0, 64, 54
1, 188805, Control_c, 0, 64, 0
1, 188818, Note_on_c, 0, 45, 70
1, 188825, Note_on_c, 0, 61, 62
1, 188849, Note_off_c, 0, 45, 65
1, 188849, Control_c, 0, 64, 38
1, 188854, Note_off_c, 0, 61, 64
1, 188864, Control_c, 0, 64, 64
1, 188867, Note_on_c, 0, 64, 66
1, 188879, Control_c, 0, 64, 69
1, 188894, Control_c, 0, 64, 75
1, 188909, Control_c, 0, 64, 78
1, 188916, Note_off_c, 0, 64, 63
1, 188923, Control_c, 0, 64, 79
1, 188955, Note_on_c, 0, 66, 66
1, 188968, Control_c, 0, 64, 78
1, 188972, Note_off_c, 0, 66, 67
1, 188983, Note_on_c, 0, 64, 48
1, 188983, Control_c, 0, 64, 78
1, 188991, Note_on_c, 0, 61, 49
1, 188998, Control_c, 0, 64, 77
1, 189013, Control_c, 0, 64, 76
1, 189026, Note_off_c, 0, 64, 61
1, 189027, Control_c, 0, 64, 75
1, 189029, Note_on_c, 0, 69, 74
1, 189042, Control_c, 0, 64, 75
1, 189057, Control_c, 0, 64, 74
1, 189063, Note_on_c, 0, 54, 59
1, 189069, Note_off_c, 0, 61, 34
1, 189073, Note_off_c, 0, 69, 59
1, 189087, Control_c, 0, 64, 74
1, 189095, Note_on_c, 0, 73, 72
1, 189099, Note_off_c, 0, 54, 60
1, 189131, Control_c, 0, 64, 73
1, 189145, Control_c, 0, 64, 72
1, 189160, Control_c, 0, 64, 65
1, 189171, Note_on_c, 0, 76, 64
1, 189175, Control_c, 0, 64, 0
1, 189183, Note_off_c, 0, 73, 61
1, 189214, Note_on_c, 0, 42, 75
1, 189222, Note_on_c, 0, 78, 69
1, 189226, Note_off_c, 0, 76, 67
1, 189242, Note_off_c, 0, 42, 64
1, 189247, Note_off_c, 0, 78, 68
1, 189264, Control_c, 0, 64, 55
1, 189278, Control_c, 0, 64, 57
1, 189290, Note_on_c, 0, 81, 77
1, 189293, Control_c, 0, 64, 53
1, 189308, Control_c, 0, 64, 44
1, 189323, Control_c, 0, 64, 32
1, 189326, Note_off_c, 0, 81, 53
1, 189339, Control_c, 0, 64, 28
1, 189354, Control_c, 0, 64, 33
1, 189362, Note_on_c, 0, 61, 65
1, 189368, Control_c, 0, 64, 36
1, 189370, Note_on_c, 0, 64, 49
1, 189383, Control_c, 0, 64, 39
1, 189385, Note_on_c, 0, 86, 55
1, 189398, Control_c, 0, 64, 41
1, 189400, Note_off_c, 0, 64, 58
1, 189404, Note_off_c, 0, 61, 52
1, 189413, Control_c, 0, 64, 43
1, 189415, Note_off_c, 0, 86, 57
1, 189421, Note_on_c, 0, 88, 71
1, 189428, Control_c, 0, 64, 45
1, 189442, Control_c, 0, 64, 47
1, 189457, Control_c, 0, 64, 48
1, 189462, Note_on_c, 0, 54, 62
1, 189472, Control_c, 0, 64, 54
1, 189484, Note_on_c, 0, 90, 64
1, 189487, Control_c, 0, 64, 58
1, 189496, Note_off_c, 0, 54, 62
1, 189498, Note_off_c, 0, 88, 62
1, 189502, Control_c, 0, 64, 61
1, 189524, Control_c, 0, 64, 62
1, 189547, Note_off_c, 0, 90, 64
1, 189550, Note_on_c, 0, 93, 80
1, 189554, Control_c, 0, 64, 61
1, 189568, Control_c, 0, 64, 57
1, 189583, Control_c, 0, 64, 0
1, 189603, Note_on_c, 0, 48, 61
1, 189626, Note_on_c, 0, 92, 73
1, 189629, Note_off_c, 0, 48, 67
1, 189651, Note_off_c, 0, 93, 58
1, 189688, Note_on_c, 0, 90, 67
1, 189719, Note_off_c, 0, 92, 58
1, 189737, Note_on_c, 0, 87, 68
1, 189746, Note_off_c, 0, 90, 64
1, 189761, Note_on_c, 0, 63, 66
1, 189763, Note_on_c, 0, 59, 63
1, 189780, Note_off_c, 0, 87, 62
1, 189801, Note_on_c, 0, 81, 68
1, 189858, Note_off_c, 0, 63, 0
1, 189864, Note_off_c, 0, 81, 60
1, 189874, Note_on_c, 0, 63, 57
1, 189878, Note_on_c, 0, 54, 80
1, 189886, Note_off_c, 0, 59, 0
1, 189886, Note_on_c, 0, 59, 8
1, 189900, Note_on_c, 0, 80, 67
1, 189961, Note_on_c, 0, 78, 61
1, 189972, Note_off_c, 0, 80, 61
1, 190009, Note_off_c, 0, 59, 0
1, 190009, Note_on_c, 0, 59, 17
1, 190016, Note_off_c, 0, 78, 63
1, 190017, Note_on_c, 0, 75, 64
1, 190021, Note_on_c, 0, 56, 81
1, 190031, Note_off_c, 0, 54, 60
1, 190057, Note_off_c, 0, 75, 62
1, 190090, Note_on_c, 0, 71, 54
1, 190100, Control_c, 0, 64, 60
1, 190115, Control_c, 0, 64, 67
1, 190130, Control_c, 0, 64, 74
1, 190146, Control_c, 0, 64, 81
1, 190158, Note_off_c, 0, 71, 59
1, 190160, Control_c, 0, 64, 85
1, 190164, Note_on_c, 0, 75, 65
1, 190166, Note_off_c, 0, 56, 62
1, 190172, Note_on_c, 0, 54, 76
1, 190175, Control_c, 0, 64, 86
1, 190220, Note_on_c, 0, 73, 53
1, 190224, Note_off_c, 0, 63, 56
1, 190241, Note_off_c, 0, 59, 39
1, 190249, Note_off_c, 0, 75, 53
1, 190287, Note_on_c, 0, 71, 62
1, 190292, Note_off_c, 0, 73, 62
1, 190303, Note_on_c, 0, 56, 73
1, 190314, Note_off_c, 0, 71, 61
1, 190323, Note_off_c, 0, 54, 59
1, 190348, Note_on_c, 0, 69, 65
1, 190357, Note_off_c, 0, 56, 61
1, 190397, Note_off_c, 0, 69, 55
1, 190420, Control_c, 0, 64, 83
1, 190422, Note_on_c, 0, 68, 68
1, 190435, Control_c, 0, 64, 71
1, 190440, Note_on_c, 0, 52, 86
1, 190450, Control_c, 0, 64, 0
1, 190451, Note_off_c, 0, 68, 68
1, 190494, Control_c, 0, 64, 27
1, 190501, Note_on_c, 0, 71, 72
1, 190509, Control_c, 0, 64, 62
1, 190524, Control_c, 0, 64, 69
1, 190539, Control_c, 0, 64, 74
1, 190554, Control_c, 0, 64, 79
1, 190555, Note_off_c, 0, 71, 50
1, 190569, Control_c, 0, 64, 81
1, 190575, Note_on_c, 0, 64, 60
1, 190579, Note_on_c, 0, 76, 60
1, 190581, Note_on_c, 0, 59, 45
1, 190608, Note_off_c, 0, 76, 57
1, 190624, Note_on_c, 0, 80, 66
1, 190633, Note_off_c, 0, 64, 51
1, 190643, Note_off_c, 0, 59, 47
1, 190678, Note_on_c, 0, 78, 70
1, 190681, Note_on_c, 0, 56, 60
1, 190682, Note_off_c, 0, 52, 45
1, 190694, Note_off_c, 0, 80, 64
1, 190709, Note_off_c, 0, 78, 64
1, 190715, Note_off_c, 0, 56, 63
1, 190745, Note_on_c, 0, 76, 71
1, 190761, Control_c, 0, 64, 79
1, 190776, Control_c, 0, 64, 70
1, 190790, Control_c, 0, 64, 0
1, 190804, Note_off_c, 0, 76, 65
1, 190807, Note_on_c, 0, 47, 83
1, 190813, Note_on_c, 0, 80, 80
1, 190835, Note_off_c, 0, 80, 70
1, 190835, Control_c, 0, 64, 60
1, 190849, Note_off_c, 0, 47, 63
1, 190850, Control_c, 0, 64, 67
1, 190864, Control_c, 0, 64, 73
1, 190879, Control_c, 0, 64, 79
1, 190894, Control_c, 0, 64, 84
1, 190899, Note_on_c, 0, 83, 80
1, 190909, Control_c, 0, 64, 86
1, 190953, Note_on_c, 0, 88, 71
1, 190953, Note_off_c, 0, 83, 60
1, 190964, Note_on_c, 0, 64, 53
1, 190969, Control_c, 0, 64, 86
1, 190976, Note_on_c, 0, 59, 46
1, 190989, Note_off_c, 0, 64, 59
1, 191007, Note_off_c, 0, 59, 51
1, 191017, Note_on_c, 0, 92, 81
1, 191021, Note_off_c, 0, 88, 63
1, 191063, Note_on_c, 0, 56, 62
1, 191069, Note_on_c, 0, 90, 72
1, 191091, Note_off_c, 0, 56, 65
1, 191113, Note_off_c, 0, 92, 64
1, 191122, Note_on_c, 0, 88, 70
1, 191138, Note_off_c, 0, 90, 63
1, 191140, Control_c, 0, 64, 84
1, 191154, Control_c, 0, 64, 74
1, 191162, Note_off_c, 0, 88, 60
1, 191169, Control_c, 0, 64, 36
1, 191180, Note_on_c, 0, 84, 71
1, 191184, Control_c, 0, 64, 0
1, 191185, Note_on_c, 0, 57, 90
1, 191187, Note_on_c, 0, 45, 81
1, 191199, Control_c, 0, 64, 52
1, 191209, Note_off_c, 0, 84, 63
1, 191212, Note_off_c, 0, 45, 67
1, 191212, Note_off_c, 0, 57, 64
1, 191213, Control_c, 0, 64, 68
1, 191228, Control_c, 0, 64, 79
1, 191243, Control_c, 0, 64, 93
1, 191258, Control_c, 0, 64, 111
1, 191265, Note_on_c, 0, 81, 76
1, 191273, Control_c, 0, 64, 127
1, 191329, Note_on_c, 0, 78, 77
1, 191337, Note_on_c, 0, 60, 99
1, 191340, Note_on_c, 0, 48, 89
1, 191354, Note_off_c, 0, 81, 57
1, 191375, Note_on_c, 0, 76, 75
1, 191378, Note_on_c, 0, 79, 37
1, 191384, Note_off_c, 0, 78, 64
1, 191407, Note_off_c, 0, 79, 34
1, 191426, Note_off_c, 0, 76, 66
1, 191438, Note_on_c, 0, 72, 85
1, 191469, Note_off_c, 0, 60, 59
1, 191475, Note_off_c, 0, 72, 60
1, 191509, Note_off_c, 0, 48, 60
1, 191517, Note_on_c, 0, 69, 77
1, 191567, Note_on_c, 0, 66, 80
1, 191606, Note_off_c, 0, 69, 61
1, 191624, Note_on_c, 0, 64, 71
1, 191636, Note_off_c, 0, 66, 65
1, 191668, Note_off_c, 0, 64, 65
1, 191673, Note_on_c, 0, 60, 79
1, 191704, Note_off_c, 0, 60, 63
1, 191770, Note_on_c, 0, 57, 66
1, 191803, Note_on_c, 0, 54, 64
1, 191824, Note_off_c, 0, 57, 58
1, 191845, Note_off_c, 0, 54, 61
1, 191856, Note_on_c, 0, 52, 70
1, 191889, Control_c, 0, 64, 97
1, 191891, Note_on_c, 0, 40, 94
1, 191904, Control_c, 0, 64, 71
1, 191918, Note_off_c, 0, 52, 63
1, 191918, Control_c, 0, 64, 0
1, 191919, Note_on_c, 0, 56, 71
1, 191933, Control_c, 0, 64, 32
1, 191947, Note_off_c, 0, 56, 69
1, 191948, Control_c, 0, 64, 66
1, 191963, Control_c, 0, 64, 77
1, 191977, Control_c, 0, 64, 89
1, 191990, Note_on_c, 0, 59, 78
1, 191992, Control_c, 0, 64, 101
1, 192007, Control_c, 0, 64, 107
1, 192022, Control_c, 0, 64, 109
1, 192036, Control_c, 0, 64, 110
1, 192051, Control_c, 0, 64, 110
1, 192052, Note_on_c, 0, 52, 73
1, 192065, Note_off_c, 0, 59, 60
1, 192070, Note_on_c, 0, 64, 66
1, 192081, Control_c, 0, 64, 111
1, 192087, Note_off_c, 0, 40, 51
1, 192102, Note_off_c, 0, 64, 64
1, 192110, Note_on_c, 0, 68, 63
1, 192135, Note_off_c, 0, 52, 58
1, 192154, Note_on_c, 0, 47, 67
1, 192158, Note_on_c, 0, 66, 76
1, 192170, Control_c, 0, 64, 111
1, 192170, Note_off_c, 0, 68, 65
1, 192184, Note_off_c, 0, 47, 65
1, 192199, Control_c, 0, 64, 112
1, 192200, Note_off_c, 0, 66, 64
1, 192235, Note_on_c, 0, 64, 71
1, 192244, Control_c, 0, 64, 110
1, 192259, Control_c, 0, 64, 95
1, 192274, Control_c, 0, 64, 73
1, 192276, Note_on_c, 0, 35, 95
1, 192288, Note_off_c, 0, 64, 64
1, 192288, Control_c, 0, 64, 0
1, 192292, Note_on_c, 0, 68, 79
1, 192303, Control_c, 0, 64, 46
1, 192317, Note_off_c, 0, 68, 70
1, 192318, Control_c, 0, 64, 69
1, 192328, Note_off_c, 0, 35, 63
1, 192333, Control_c, 0, 64, 83
1, 192348, Control_c, 0, 64, 102
1, 192362, Control_c, 0, 64, 127
1, 192380, Note_on_c, 0, 71, 76
1, 192424, Note_on_c, 0, 52, 69
1, 192432, Note_off_c, 0, 71, 60
1, 192434, Note_on_c, 0, 76, 70
1, 192455, Note_off_c, 0, 52, 65
1, 192482, Note_on_c, 0, 80, 76
1, 192489, Note_off_c, 0, 76, 66
1, 192524, Note_on_c, 0, 47, 76
1, 192542, Note_on_c, 0, 78, 69
1, 192555, Note_off_c, 0, 47, 65
1, 192579, Note_off_c, 0, 80, 62
1, 192588, Note_on_c, 0, 76, 69
1, 192602, Note_off_c, 0, 78, 63
1, 192620, Note_off_c, 0, 76, 62
1, 192622, Control_c, 0, 64, 104
1, 192637, Control_c, 0, 64, 78
1, 192644, Note_on_c, 0, 72, 73
1, 192650, Note_on_c, 0, 45, 99
1, 192652, Control_c, 0, 64, 46
1, 192653, Note_on_c, 0, 33, 85
1, 192666, Control_c, 0, 64, 57
1, 192669, Note_off_c, 0, 72, 68
1, 192678, Note_off_c, 0, 45, 64
1, 192681, Note_off_c, 0, 33, 69
1, 192681, Control_c, 0, 64, 71
1, 192696, Control_c, 0, 64, 84
1, 192711, Control_c, 0, 64, 101
1, 192725, Control_c, 0, 64, 127
1, 192727, Note_on_c, 0, 69, 74
1, 192792, Note_on_c, 0, 66, 79
1, 192799, Note_on_c, 0, 48, 112
1, 192808, Note_on_c, 0, 38, 86
1, 192815, Note_on_c, 0, 36, 73
1, 192826, Note_off_c, 0, 48, 71
1, 192834, Note_on_c, 0, 64, 70
1, 192834, Note_off_c, 0, 69, 60
1, 192836, Note_off_c, 0, 38, 64
1, 192844, Note_off_c, 0, 36, 66
1, 192858, Note_off_c, 0, 66, 66
1, 192889, Note_off_c, 0, 64, 64
1, 192891, Note_on_c, 0, 60, 85
1, 192900, Poly_aftertouch_c, 0, 39, 0
1, 192917, Poly_aftertouch_c, 0, 44, 0
1, 192927, Note_off_c, 0, 60, 61
1, 192975, Note_on_c, 0, 57, 77
1, 193041, Note_on_c, 0, 53, 67
1, 193061, Note_on_c, 0, 52, 74
1, 193074, Note_off_c, 0, 57, 57
1, 193086, Note_off_c, 0, 53, 63
1, 193113, Note_off_c, 0, 52, 66
1, 193121, Note_on_c, 0, 48, 83
1, 193148, Note_off_c, 0, 48, 64
1, 193201, Note_on_c, 0, 45, 75
1, 193244, Note_on_c, 0, 42, 77
1, 193284, Note_off_c, 0, 45, 63
1, 193304, Note_on_c, 0, 40, 87
1, 193335, Note_off_c, 0, 42, 62
1, 193341, Control_c, 0, 64, 91
1, 193356, Control_c, 0, 64, 38
1, 193357, Note_on_c, 0, 28, 102
1, 193360, Note_off_c, 0, 40, 65
1, 193371, Control_c, 0, 64, 0
1, 193394, Note_off_c, 0, 28, 68
1, 193401, Control_c, 0, 64, 65
1, 193416, Control_c, 0, 64, 82
1, 193431, Control_c, 0, 64, 107
1, 193445, Control_c, 0, 64, 127
1, 193543, Note_on_c, 0, 47, 80
1, 193597, Note_off_c, 0, 47, 66
1, 193603, Note_on_c, 0, 52, 66
1, 193651, Note_on_c, 0, 57, 70
1, 193703, Note_off_c, 0, 52, 64
1, 193704, Note_on_c, 0, 56, 74
1, 193731, Note_off_c, 0, 57, 64
1, 193741, Note_off_c, 0, 56, 64
1, 193803, Note_on_c, 0, 59, 66
1, 193854, Note_on_c, 0, 64, 77
1, 193866, Note_off_c, 0, 59, 61
1, 193901, Note_on_c, 0, 69, 69
1, 193943, Note_off_c, 0, 64, 65
1, 193944, Note_on_c, 0, 68, 81
1, 193971, Note_off_c, 0, 69, 66
1, 193988, Note_off_c, 0, 68, 66
1, 194047, Note_on_c, 0, 71, 71
1, 194057, Note_on_c, 0, 52, 65
1, 194089, Note_on_c, 0, 59, 74
1, 194093, Note_off_c, 0, 52, 65
1, 194107, Note_on_c, 0, 76, 79
1, 194113, Note_off_c, 0, 71, 60
1, 194173, Note_on_c, 0, 68, 99
1, 194173, Note_on_c, 0, 81, 70
1, 194191, Note_off_c, 0, 59, 60
1, 194206, Note_off_c, 0, 76, 66
1, 194211, Note_off_c, 0, 68, 67
1, 194213, Note_on_c, 0, 80, 84
1, 194241, Note_off_c, 0, 81, 63
1, 194255, Note_off_c, 0, 80, 64
1, 194307, Note_on_c, 0, 83, 80
1, 194366, Note_on_c, 0, 88, 82
1, 194381, Note_off_c, 0, 83, 56
1, 194428, Note_on_c, 0, 93, 79
1, 194441, Note_off_c, 0, 88, 61
1, 194478, Note_on_c, 0, 92, 81
1, 194541, Note_off_c, 0, 93, 62
1, 194543, Note_on_c, 0, 88, 83
1, 194557, Note_off_c, 0, 92, 63
1, 194587, Note_off_c, 0, 88, 66
1, 194599, Note_on_c, 0, 83, 76
1, 194622, Note_off_c, 0, 83, 66
1, 194682, Note_on_c, 0, 81, 85
1, 194727, Note_on_c, 0, 80, 75
1, 194786, Note_off_c, 0, 81, 61
1, 194796, Note_on_c, 0, 76, 80
1, 194808, Note_off_c, 0, 80, 64
1, 194845, Note_off_c, 0, 76, 70
1, 194859, Note_on_c, 0, 71, 80
1, 194882, Note_off_c, 0, 71, 66
1, 194934, Note_on_c, 0, 69, 81
1, 194986, Note_on_c, 0, 68, 77
1, 195034, Note_off_c, 0, 69, 59
1, 195046, Note_on_c, 0, 64, 72
1, 195059, Note_off_c, 0, 68, 62
1, 195060, Note_on_c, 0, 65, 54
1, 195084, Note_off_c, 0, 65, 59
1, 195103, Note_off_c, 0, 64, 67
1, 195108, Note_on_c, 0, 59, 82
1, 195145, Note_off_c, 0, 59, 61
1, 195198, Note_on_c, 0, 57, 78
1, 195259, Note_on_c, 0, 56, 74
1, 195299, Note_off_c, 0, 57, 63
1, 195320, Note_on_c, 0, 52, 76
1, 195341, Note_off_c, 0, 56, 64
1, 195379, Note_off_c, 0, 52, 67
1, 195387, Note_on_c, 0, 47, 84
1, 195425, Note_off_c, 0, 47, 62
1, 195480, Note_on_c, 0, 45, 77
1, 195560, Note_on_c, 0, 43, 69
1, 195580, Note_on_c, 0, 44, 11
1, 195592, Note_off_c, 0, 45, 65
1, 195607, Note_on_c, 0, 40, 77
1, 195638, Note_off_c, 0, 43, 60
1, 195639, Note_off_c, 0, 44, 43
1, 195656, Note_on_c, 0, 35, 93
1, 195663, Note_off_c, 0, 40, 64
1, 195674, Poly_aftertouch_c, 0, 42, 127
1, 195675, Note_on_c, 0, 39, 65
1, 195698, Poly_aftertouch_c, 0, 42, 0
1, 195699, Note_off_c, 0, 35, 67
1, 195699, Note_on_c, 0, 28, 102
1, 195699, Note_off_c, 0, 39, 59
1, 195720, Control_c, 0, 64, 99
1, 195736, Control_c, 0, 64, 75
1, 195751, Control_c, 0, 64, 0
1, 196215, Note_off_c, 0, 28, 66
1, 196812, Note_on_c, 0, 52, 97
1, 196813, Note_on_c, 0, 33, 80
1, 196814, Note_on_c, 0, 45, 90
1, 196814, Note_on_c, 0, 61, 80
1, 196814, Note_on_c, 0, 64, 84
1, 196989, Control_c, 0, 64, 57
1, 197011, Control_c, 0, 64, 65
1, 197026, Control_c, 0, 64, 70
1, 197040, Control_c, 0, 64, 78
1, 197055, Control_c, 0, 64, 89
1, 197070, Control_c, 0, 64, 98
1, 197085, Control_c, 0, 64, 106
1, 197100, Control_c, 0, 64, 114
1, 197115, Control_c, 0, 64, 127
1, 197117, Note_off_c, 0, 52, 62
1, 197150, Note_off_c, 0, 64, 62
1, 197175, Note_off_c, 0, 45, 60
1, 197186, Note_off_c, 0, 61, 63
1, 197192, Note_off_c, 0, 33, 63
1, 197501, Note_on_c, 0, 54, 91
1, 197501, Control_c, 0, 64, 103
1, 197502, Note_on_c, 0, 45, 78
1, 197503, Note_on_c, 0, 66, 87
1, 197506, Note_on_c, 0, 38, 71
1, 197507, Note_on_c, 0, 61, 83
1, 197515, Control_c, 0, 64, 82
1, 197530, Control_c, 0, 64, 62
1, 197545, Control_c, 0, 64, 0
1, 198463, Note_on_c, 0, 59, 75
1, 198493, Note_off_c, 0, 61, 62
1, 198654, Note_on_c, 0, 61, 81
1, 198707, Note_off_c, 0, 59, 59
1, 198868, Note_on_c, 0, 64, 74
1, 198913, Note_off_c, 0, 61, 57
1, 199089, Note_on_c, 0, 62, 71
1, 199143, Note_off_c, 0, 64, 57
1, 199231, Note_off_c, 0, 66, 52
1, 199273, Control_c, 0, 64, 56
1, 199287, Control_c, 0, 64, 67
1, 199302, Control_c, 0, 64, 73
1, 199317, Control_c, 0, 64, 84
1, 199332, Control_c, 0, 64, 90
1, 199347, Control_c, 0, 64, 94
1, 199361, Control_c, 0, 64, 96
1, 199366, Note_off_c, 0, 38, 36
1, 199376, Control_c, 0, 64, 97
1, 199378, Note_off_c, 0, 45, 55
1, 199379, Note_off_c, 0, 54, 56
1, 199391, Control_c, 0, 64, 98
1, 199404, Note_off_c, 0, 62, 52
1, 199406, Control_c, 0, 64, 99
1, 199434, Note_on_c, 0, 61, 70
1, 199491, Note_off_c, 0, 61, 62
1, 199509, Control_c, 0, 64, 94
1, 199524, Control_c, 0, 64, 84
1, 199539, Note_on_c, 0, 64, 74
1, 199539, Control_c, 0, 64, 69
1, 199541, Note_on_c, 0, 33, 58
1, 199544, Note_on_c, 0, 45, 56
1, 199544, Note_on_c, 0, 52, 70
1, 199544, Note_on_c, 0, 61, 59
1, 199553, Control_c, 0, 64, 0
1, 199747, Control_c, 0, 64, 49
1, 199762, Control_c, 0, 64, 61
1, 199777, Control_c, 0, 64, 65
1, 199792, Control_c, 0, 64, 69
1, 199807, Control_c, 0, 64, 74
1, 199822, Control_c, 0, 64, 80
1, 199837, Control_c, 0, 64, 86
1, 199851, Control_c, 0, 64, 90
1, 199866, Control_c, 0, 64, 93
1, 199881, Control_c, 0, 64, 96
1, 199895, Control_c, 0, 64, 102
1, 199910, Control_c, 0, 64, 109
1, 199925, Note_off_c, 0, 52, 64
1, 199925, Control_c, 0, 64, 117
1, 199940, Control_c, 0, 64, 127
1, 199943, Note_off_c, 0, 64, 62
1, 199986, Note_off_c, 0, 61, 62
1, 200156, Note_off_c, 0, 45, 41
1, 200186, Note_off_c, 0, 33, 35
1, 200287, Note_on_c, 0, 38, 68
1, 200287, Note_on_c, 0, 66, 90
1, 200289, Note_on_c, 0, 45, 69
1, 200289, Note_on_c, 0, 54, 88
1, 200289, Note_on_c, 0, 61, 80
1, 200289, Control_c, 0, 64, 112
1, 200303, Control_c, 0, 64, 91
1, 200318, Control_c, 0, 64, 73
1, 200333, Control_c, 0, 64, 0
1, 201230, Note_on_c, 0, 59, 75
1, 201261, Note_off_c, 0, 61, 60
1, 201415, Note_on_c, 0, 61, 81
1, 201464, Note_off_c, 0, 59, 59
1, 201643, Note_on_c, 0, 64, 76
1, 201664, Note_off_c, 0, 61, 64
1, 201862, Note_on_c, 0, 62, 74
1, 201897, Note_off_c, 0, 64, 36
1, 202007, Control_c, 0, 64, 21
1, 202022, Control_c, 0, 64, 60
1, 202037, Control_c, 0, 64, 66
1, 202052, Control_c, 0, 64, 72
1, 202067, Control_c, 0, 64, 78
1, 202081, Note_off_c, 0, 54, 57
1, 202081, Control_c, 0, 64, 84
1, 202096, Control_c, 0, 64, 87
1, 202111, Control_c, 0, 64, 88
1, 202127, Control_c, 0, 64, 89
1, 202142, Control_c, 0, 64, 89
1, 202156, Note_off_c, 0, 66, 33
1, 202182, Note_on_c, 0, 61, 69
1, 202185, Note_off_c, 0, 62, 59
1, 202209, Note_off_c, 0, 61, 65
1, 202216, Control_c, 0, 64, 88
1, 202231, Control_c, 0, 64, 83
1, 202253, Control_c, 0, 64, 72
1, 202268, Control_c, 0, 64, 24
1, 202270, Note_on_c, 0, 61, 72
1, 202283, Control_c, 0, 64, 0
1, 202374, Note_off_c, 0, 61, 61
1, 202378, Note_on_c, 0, 69, 80
1, 202631, Note_on_c, 0, 66, 81
1, 202847, Note_off_c, 0, 69, 27
1, 202927, Note_on_c, 0, 62, 77
1, 203031, Control_c, 0, 64, 64
1, 203046, Control_c, 0, 64, 73
1, 203047, Note_off_c, 0, 62, 61
1, 203060, Control_c, 0, 64, 86
1, 203062, Note_off_c, 0, 38, 61
1, 203072, Note_off_c, 0, 66, 63
1, 203075, Control_c, 0, 64, 96
1, 203090, Control_c, 0, 64, 102
1, 203105, Control_c, 0, 64, 107
1, 203106, Note_off_c, 0, 45, 53
1, 203120, Control_c, 0, 64, 111
1, 203134, Control_c, 0, 64, 115
1, 203149, Control_c, 0, 64, 119
1, 203164, Control_c, 0, 64, 122
1, 203179, Control_c, 0, 64, 123
1, 203194, Control_c, 0, 64, 124
1, 203208, Control_c, 0, 64, 124
1, 203312, Control_c, 0, 64, 124
1, 203327, Control_c, 0, 64, 122
1, 203342, Control_c, 0, 64, 111
1, 203351, Note_on_c, 0, 61, 73
1, 203357, Control_c, 0, 64, 98
1, 203359, Note_on_c, 0, 40, 51
1, 203360, Note_on_c, 0, 56, 66
1, 203363, Note_on_c, 0, 64, 64
1, 203366, Note_on_c, 0, 52, 51
1, 203372, Control_c, 0, 64, 82
1, 203387, Control_c, 0, 64, 65
1, 203401, Control_c, 0, 64, 0
1, 203682, Control_c, 0, 64, 51
1, 203697, Control_c, 0, 64, 61
1, 203713, Control_c, 0, 64, 66
1, 203728, Control_c, 0, 64, 69
1, 203750, Control_c, 0, 64, 74
1, 203765, Control_c, 0, 64, 80
1, 203780, Control_c, 0, 64, 84
1, 203795, Control_c, 0, 64, 87
1, 203810, Control_c, 0, 64, 89
1, 203824, Control_c, 0, 64, 92
1, 203825, Note_off_c, 0, 52, 35
1, 203839, Control_c, 0, 64, 95
1, 203854, Control_c, 0, 64, 98
1, 203869, Control_c, 0, 64, 100
1, 203883, Control_c, 0, 64, 102
1, 203898, Control_c, 0, 64, 103
1, 203913, Control_c, 0, 64, 104
1, 203928, Control_c, 0, 64, 105
1, 203943, Control_c, 0, 64, 106
1, 203957, Control_c, 0, 64, 107
1, 203972, Control_c, 0, 64, 107
1, 204224, Control_c, 0, 64, 107
1, 204254, Control_c, 0, 64, 106
1, 204268, Control_c, 0, 64, 105
1, 204269, Note_on_c, 0, 50, 45
1, 204273, Note_on_c, 0, 59, 59
1, 204283, Control_c, 0, 64, 102
1, 204298, Control_c, 0, 64, 95
1, 204308, Note_off_c, 0, 61, 57
1, 204313, Control_c, 0, 64, 85
1, 204328, Control_c, 0, 64, 73
1, 204342, Control_c, 0, 64, 31
1, 204357, Control_c, 0, 64, 0
1, 204513, Control_c, 0, 64, 48
1, 204528, Control_c, 0, 64, 62
1, 204543, Control_c, 0, 64, 65
1, 204558, Control_c, 0, 64, 70
1, 204573, Control_c, 0, 64, 75
1, 204588, Control_c, 0, 64, 83
1, 204603, Control_c, 0, 64, 87
1, 204618, Control_c, 0, 64, 89
1, 204633, Control_c, 0, 64, 91
1, 204635, Note_off_c, 0, 50, 48
1, 204647, Control_c, 0, 64, 93
1, 204648, Note_off_c, 0, 40, 42
1, 204662, Control_c, 0, 64, 96
1, 204677, Control_c, 0, 64, 99
1, 204691, Control_c, 0, 64, 101
1, 204706, Control_c, 0, 64, 103
1, 204732, Note_off_c, 0, 56, 27
1, 204751, Control_c, 0, 64, 103
1, 204898, Control_c, 0, 64, 103
1, 204928, Control_c, 0, 64, 102
1, 204936, Note_off_c, 0, 59, 13
1, 204943, Control_c, 0, 64, 101
1, 204951, Note_on_c, 0, 49, 31
1, 204958, Control_c, 0, 64, 96
1, 204967, Note_on_c, 0, 45, 34
1, 204971, Note_on_c, 0, 57, 48
1, 204973, Control_c, 0, 64, 87
1, 204988, Control_c, 0, 64, 76
1, 205002, Control_c, 0, 64, 61
1, 205017, Control_c, 0, 64, 0
1, 205333, Note_on_c, 0, 52, 32
1, 205333, Note_on_c, 0, 61, 52
1, 205338, Note_off_c, 0, 57, 53
1, 205413, Note_off_c, 0, 64, 36
1, 205414, Note_off_c, 0, 49, 41
1, 206441, Control_c, 0, 64, 32
1, 206456, Control_c, 0, 64, 44
1, 206470, Control_c, 0, 64, 53
1, 206485, Control_c, 0, 64, 58
1, 206500, Control_c, 0, 64, 62
1, 206515, Control_c, 0, 64, 64
1, 206530, Control_c, 0, 64, 66
1, 206544, Control_c, 0, 64, 67
1, 206559, Control_c, 0, 64, 69
1, 206574, Control_c, 0, 64, 72
1, 206589, Control_c, 0, 64, 74
1, 206604, Control_c, 0, 64, 75
1, 206618, Control_c, 0, 64, 76
1, 206633, Control_c, 0, 64, 77
1, 206648, Control_c, 0, 64, 78
1, 206661, Note_off_c, 0, 61, 58
1, 206663, Control_c, 0, 64, 80
1, 206678, Control_c, 0, 64, 82
1, 206693, Control_c, 0, 64, 83
1, 206707, Control_c, 0, 64, 84
1, 206722, Control_c, 0, 64, 85
1, 206744, Control_c, 0, 64, 86
1, 206759, Control_c, 0, 64, 87
1, 206774, Control_c, 0, 64, 88
1, 206789, Control_c, 0, 64, 89
1, 206803, Control_c, 0, 64, 89
1, 206820, Note_off_c, 0, 52, 40
1, 206833, Control_c, 0, 64, 90
1, 206843, Note_off_c, 0, 45, 39
1, 207086, Control_c, 0, 64, 89
1, 207101, Control_c, 0, 64, 89
1, 207116, Control_c, 0, 64, 88
1, 207131, Control_c, 0, 64, 86
1, 207146, Control_c, 0, 64, 83
1, 207160, Control_c, 0, 64, 79
1, 207175, Control_c, 0, 64, 74
1, 207190, Control_c, 0, 64, 68
1, 207205, Control_c, 0, 64, 57
1, 207219, Control_c, 0, 64, 0
1, 207614, Note_on_c, 0, 73, 57
1, 208158, Note_on_c, 0, 58, 36
1, 208161, Control_c, 0, 64, 45
1, 208176, Control_c, 0, 64, 63
1, 208177, Note_on_c, 0, 52, 28
1, 208177, Note_on_c, 0, 55, 36
1, 208190, Control_c, 0, 64, 67
1, 208205, Control_c, 0, 64, 70
1, 208220, Control_c, 0, 64, 76
1, 208242, Control_c, 0, 64, 80
1, 208257, Control_c, 0, 64, 82
1, 208272, Control_c, 0, 64, 83
1, 208287, Control_c, 0, 64, 83
1, 208302, Control_c, 0, 64, 84
1, 208306, Note_off_c, 0, 52, 52
1, 208309, Note_off_c, 0, 58, 54
1, 208322, Note_off_c, 0, 73, 62
1, 208335, Note_off_c, 0, 55, 46
1, 208359, Note_on_c, 0, 71, 59
1, 208395, Note_off_c, 0, 71, 55
1, 208405, Control_c, 0, 64, 83
1, 208410, Note_on_c, 0, 73, 56
1, 208420, Control_c, 0, 64, 79
1, 208434, Control_c, 0, 64, 69
1, 208443, Note_off_c, 0, 73, 66
1, 208449, Control_c, 0, 64, 0
1, 208465, Note_on_c, 0, 59, 43
1, 208467, Note_on_c, 0, 71, 52
1, 208473, Note_on_c, 0, 54, 29
1, 208482, Note_on_c, 0, 50, 30
1, 208509, Control_c, 0, 64, 44
1, 208525, Control_c, 0, 64, 65
1, 208539, Control_c, 0, 64, 71
1, 208554, Control_c, 0, 64, 80
1, 208569, Control_c, 0, 64, 86
1, 208584, Control_c, 0, 64, 88
1, 208599, Control_c, 0, 64, 89
1, 208613, Control_c, 0, 64, 89
1, 208630, Note_off_c, 0, 59, 54
1, 208643, Control_c, 0, 64, 90
1, 208658, Control_c, 0, 64, 90
1, 208672, Control_c, 0, 64, 91
1, 208683, Note_off_c, 0, 54, 37
1, 208687, Note_off_c, 0, 50, 40
1, 208770, Note_off_c, 0, 71, 59
1, 208791, Control_c, 0, 64, 90
1, 208806, Control_c, 0, 64, 88
1, 208812, Note_on_c, 0, 69, 57
1, 208821, Control_c, 0, 64, 80
1, 208836, Control_c, 0, 64, 65
1, 208838, Note_on_c, 0, 54, 40
1, 208851, Control_c, 0, 64, 0
1, 208859, Note_off_c, 0, 69, 62
1, 208863, Note_on_c, 0, 57, 40
1, 208865, Note_on_c, 0, 62, 41
1, 208874, Note_on_c, 0, 71, 62
1, 208895, Control_c, 0, 64, 49
1, 208910, Control_c, 0, 64, 65
1, 208922, Note_off_c, 0, 62, 61
1, 208925, Control_c, 0, 64, 71
1, 208939, Control_c, 0, 64, 77
1, 208949, Note_off_c, 0, 57, 60
1, 208954, Control_c, 0, 64, 82
1, 208958, Note_off_c, 0, 54, 57
1, 208969, Control_c, 0, 64, 84
1, 208991, Control_c, 0, 64, 85
1, 209036, Control_c, 0, 64, 86
1, 209050, Control_c, 0, 64, 86
1, 209104, Note_on_c, 0, 53, 42
1, 209106, Note_on_c, 0, 61, 48
1, 209110, Control_c, 0, 64, 82
1, 209112, Note_on_c, 0, 56, 48
1, 209118, Note_on_c, 0, 73, 68
1, 209122, Note_off_c, 0, 71, 58
1, 209125, Control_c, 0, 64, 72
1, 209139, Control_c, 0, 64, 50
1, 209154, Control_c, 0, 64, 0
1, 209183, Control_c, 0, 64, 51
1, 209198, Control_c, 0, 64, 65
1, 209213, Control_c, 0, 64, 71
1, 209228, Control_c, 0, 64, 78
1, 209241, Note_off_c, 0, 61, 59
1, 209243, Control_c, 0, 64, 84
1, 209257, Control_c, 0, 64, 87
1, 209270, Note_off_c, 0, 53, 57
1, 209272, Control_c, 0, 64, 88
1, 209289, Note_off_c, 0, 56, 57
1, 209302, Control_c, 0, 64, 89
1, 209318, Control_c, 0, 64, 89
1, 209397, Note_off_c, 0, 73, 60
1, 209417, Note_on_c, 0, 74, 61
1, 209436, Control_c, 0, 64, 87
1, 209451, Control_c, 0, 64, 78
1, 209466, Control_c, 0, 64, 54
1, 209478, Note_on_c, 0, 58, 42
1, 209481, Control_c, 0, 64, 0
1, 209483, Note_on_c, 0, 55, 39
1, 209491, Note_on_c, 0, 73, 65
1, 209493, Note_on_c, 0, 52, 36
1, 209513, Note_off_c, 0, 74, 52
1, 209525, Control_c, 0, 64, 56
1, 209540, Control_c, 0, 64, 66
1, 209555, Control_c, 0, 64, 71
1, 209562, Note_off_c, 0, 55, 55
1, 209564, Note_off_c, 0, 52, 60
1, 209569, Control_c, 0, 64, 76
1, 209581, Note_off_c, 0, 58, 57
1, 209584, Control_c, 0, 64, 79
1, 209599, Control_c, 0, 64, 81
1, 209632, Note_off_c, 0, 73, 60
1, 209671, Note_on_c, 0, 71, 58
1, 209702, Note_off_c, 0, 71, 59
1, 209718, Control_c, 0, 64, 80
1, 209725, Note_on_c, 0, 73, 53
1, 209740, Control_c, 0, 64, 76
1, 209755, Control_c, 0, 64, 65
1, 209769, Control_c, 0, 64, 0
1, 209774, Note_on_c, 0, 54, 32
1, 209779, Note_off_c, 0, 73, 60
1, 209781, Note_on_c, 0, 71, 56
1, 209783, Note_on_c, 0, 59, 37
1, 209790, Note_on_c, 0, 50, 28
1, 209844, Control_c, 0, 64, 54
1, 209859, Control_c, 0, 64, 67
1, 209874, Control_c, 0, 64, 74
1, 209888, Control_c, 0, 64, 83
1, 209903, Control_c, 0, 64, 90
1, 209918, Control_c, 0, 64, 92
1, 209933, Control_c, 0, 64, 94
1, 209948, Control_c, 0, 64, 97
1, 209963, Control_c, 0, 64, 100
1, 209978, Control_c, 0, 64, 102
1, 209992, Control_c, 0, 64, 102
1, 210007, Control_c, 0, 64, 103
1, 210022, Control_c, 0, 64, 104
1, 210052, Control_c, 0, 64, 104
1, 210068, Note_off_c, 0, 59, 41
1, 210084, Note_off_c, 0, 50, 40
1, 210130, Note_off_c, 0, 54, 39
1, 210201, Control_c, 0, 64, 104
1, 210215, Note_off_c, 0, 71, 56
1, 210216, Note_on_c, 0, 69, 55
1, 210230, Control_c, 0, 64, 103
1, 210245, Control_c, 0, 64, 99
1, 210260, Control_c, 0, 64, 93
1, 210275, Control_c, 0, 64, 83
1, 210290, Control_c, 0, 64, 70
1, 210305, Control_c, 0, 64, 0
1, 210305, Control_c, 0, 67, 9
1, 210319, Control_c, 0, 67, 17
1, 210334, Control_c, 0, 67, 30
1, 210349, Control_c, 0, 67, 49
1, 210350, Note_on_c, 0, 54, 38
1, 210358, Note_on_c, 0, 62, 35
1, 210359, Note_on_c, 0, 57, 39
1, 210364, Control_c, 0, 67, 73
1, 210378, Note_off_c, 0, 69, 56
1, 210379, Note_on_c, 0, 71, 53
1, 210379, Control_c, 0, 67, 106
1, 210393, Control_c, 0, 67, 127
1, 210503, Note_off_c, 0, 62, 36
1, 210513, Note_off_c, 0, 54, 55
1, 210514, Note_on_c, 0, 49, 50
1, 210546, Note_off_c, 0, 57, 61
1, 210608, Control_c, 0, 64, 55
1, 210623, Control_c, 0, 64, 67
1, 210637, Control_c, 0, 64, 75
1, 210648, Note_on_c, 0, 56, 52
1, 210652, Control_c, 0, 64, 85
1, 210667, Control_c, 0, 64, 91
1, 210682, Control_c, 0, 64, 92
1, 210697, Control_c, 0, 64, 93
1, 210699, Note_off_c, 0, 49, 60
1, 210709, Note_off_c, 0, 71, 56
1, 210711, Control_c, 0, 64, 95
1, 210726, Control_c, 0, 64, 97
1, 210741, Control_c, 0, 64, 98
1, 210756, Note_off_c, 0, 56, 54
1, 210756, Control_c, 0, 64, 99
1, 210770, Control_c, 0, 64, 100
1, 210785, Control_c, 0, 64, 101
1, 210800, Control_c, 0, 64, 102
1, 210845, Control_c, 0, 64, 102
1, 210861, Note_on_c, 0, 65, 41
1, 210871, Note_on_c, 0, 73, 60
1, 210933, Note_off_c, 0, 65, 57
1, 210964, Note_off_c, 0, 73, 56
1, 211087, Note_on_c, 0, 61, 51
1, 211153, Note_off_c, 0, 61, 51
1, 211190, Note_on_c, 0, 73, 51
1, 211292, Note_off_c, 0, 73, 47
1, 211306, Note_on_c, 0, 68, 51
1, 211404, Note_off_c, 0, 68, 62
1, 211413, Note_on_c, 0, 73, 53
1, 211443, Note_off_c, 0, 73, 60
1, 211519, Note_on_c, 0, 68, 51
1, 211573, Note_on_c, 0, 37, 42
1, 211589, Note_off_c, 0, 68, 57
1, 211632, Note_on_c, 0, 80, 51
1, 211713, Note_off_c, 0, 80, 55
1, 211745, Note_on_c, 0, 73, 51
1, 211757, Control_c, 0, 64, 103
1, 211840, Note_off_c, 0, 73, 59
1, 211842, Note_on_c, 0, 80, 59
1, 211913, Note_off_c, 0, 80, 61
1, 211967, Note_on_c, 0, 73, 46
1, 212026, Note_off_c, 0, 73, 53
1, 212073, Note_on_c, 0, 85, 53
1, 212145, Note_off_c, 0, 85, 54
1, 212178, Note_on_c, 0, 80, 51
1, 212205, Note_off_c, 0, 37, 35
1, 212238, Control_c, 0, 64, 103
1, 212306, Note_on_c, 0, 85, 47
1, 212309, Note_off_c, 0, 80, 58
1, 212387, Note_off_c, 0, 85, 63
1, 212450, Note_on_c, 0, 80, 42
1, 212520, Control_c, 0, 64, 104
1, 212572, Note_off_c, 0, 80, 43
1, 212580, Note_on_c, 0, 92, 51
1, 212682, Note_off_c, 0, 92, 54
1, 212712, Note_on_c, 0, 85, 45
1, 212883, Note_off_c, 0, 85, 51
1, 212889, Note_on_c, 0, 92, 45
1, 213008, Note_off_c, 0, 92, 59
1, 213054, Note_on_c, 0, 85, 44
1, 213376, Note_on_c, 0, 97, 42
1, 213444, Note_off_c, 0, 85, 45
1, 213456, Note_off_c, 0, 97, 61
1, 214211, Control_c, 0, 64, 103
1, 214338, Control_c, 0, 64, 103
1, 214397, Control_c, 0, 64, 102
1, 214426, Control_c, 0, 64, 102
1, 214456, Control_c, 0, 64, 101
1, 214471, Control_c, 0, 64, 101
1, 214485, Control_c, 0, 64, 100
1, 214500, Control_c, 0, 64, 100
1, 214515, Control_c, 0, 64, 98
1, 214530, Control_c, 0, 64, 94
1, 214545, Control_c, 0, 64, 88
1, 214559, Control_c, 0, 64, 80
1, 214574, Control_c, 0, 64, 68
1, 214589, Control_c, 0, 64, 0
1, 215365, Note_on_c, 0, 45, 52
1, 215366, Note_on_c, 0, 64, 73
1, 215369, Note_on_c, 0, 52, 52
1, 215369, Note_on_c, 0, 61, 68
1, 215708, Control_c, 0, 64, 30
1, 215730, Control_c, 0, 64, 49
1, 215745, Control_c, 0, 64, 56
1, 215760, Control_c, 0, 64, 60
1, 215775, Control_c, 0, 64, 63
1, 215790, Control_c, 0, 64, 65
1, 215804, Control_c, 0, 64, 67
1, 215819, Control_c, 0, 64, 69
1, 215834, Control_c, 0, 64, 71
1, 215848, Control_c, 0, 64, 73
1, 215863, Control_c, 0, 64, 76
1, 215878, Control_c, 0, 64, 78
1, 215893, Control_c, 0, 64, 80
1, 215908, Control_c, 0, 64, 82
1, 215923, Control_c, 0, 64, 83
1, 215937, Control_c, 0, 64, 84
1, 215947, Note_off_c, 0, 64, 53
1, 215952, Control_c, 0, 64, 85
1, 215967, Control_c, 0, 64, 86
1, 215981, Control_c, 0, 64, 87
1, 215996, Control_c, 0, 64, 88
1, 216011, Control_c, 0, 64, 88
1, 216026, Control_c, 0, 64, 89
1, 216041, Control_c, 0, 64, 89
1, 216071, Control_c, 0, 64, 90
1, 216100, Control_c, 0, 64, 90
1, 216292, Note_off_c, 0, 52, 40
1, 216642, Note_on_c, 0, 38, 37
1, 216643, Control_c, 0, 64, 90
1, 216658, Control_c, 0, 64, 89
1, 216672, Control_c, 0, 64, 87
1, 216687, Control_c, 0, 64, 82
1, 216689, Note_on_c, 0, 54, 44
1, 216700, Note_on_c, 0, 66, 48
1, 216702, Control_c, 0, 64, 75
1, 216717, Control_c, 0, 64, 63
1, 216732, Control_c, 0, 64, 0
1, 217864, Note_on_c, 0, 59, 46
1, 217938, Note_off_c, 0, 61, 58
1, 218099, Note_on_c, 0, 61, 61
1, 218144, Note_off_c, 0, 59, 61
1, 218297, Note_on_c, 0, 64, 61
1, 218332, Note_off_c, 0, 61, 63
1, 218515, Note_on_c, 0, 62, 70
1, 218557, Note_off_c, 0, 64, 57
1, 218736, Note_off_c, 0, 66, 38
1, 218828, Control_c, 0, 64, 41
1, 218841, Note_off_c, 0, 54, 53
1, 218843, Control_c, 0, 64, 64
1, 218858, Control_c, 0, 64, 69
1, 218865, Note_off_c, 0, 62, 56
1, 218870, Note_on_c, 0, 61, 69
1, 218873, Control_c, 0, 64, 76
1, 218887, Control_c, 0, 64, 82
1, 218903, Control_c, 0, 64, 85
1, 218913, Note_off_c, 0, 45, 39
1, 218918, Control_c, 0, 64, 85
1, 218933, Control_c, 0, 64, 86
1, 218943, Note_off_c, 0, 38, 38
1, 218977, Note_off_c, 0, 61, 52
1, 219037, Control_c, 0, 64, 85
1, 219051, Control_c, 0, 64, 85
1, 219066, Control_c, 0, 64, 83
1, 219081, Control_c, 0, 64, 81
1, 219096, Control_c, 0, 64, 78
1, 219099, Note_on_c, 0, 33, 46
1, 219105, Note_on_c, 0, 45, 44
1, 219111, Control_c, 0, 64, 73
1, 219117, Note_on_c, 0, 61, 60
1, 219122, Note_on_c, 0, 64, 70
1, 219126, Note_on_c, 0, 52, 61
1, 219126, Control_c, 0, 64, 67
1, 219141, Control_c, 0, 64, 39
1, 219155, Control_c, 0, 64, 0
1, 219333, Control_c, 0, 64, 24
1, 219347, Control_c, 0, 64, 47
1, 219362, Control_c, 0, 64, 56
1, 219377, Control_c, 0, 64, 61
1, 219391, Control_c, 0, 64, 64
1, 219406, Control_c, 0, 64, 66
1, 219421, Control_c, 0, 64, 69
1, 219436, Control_c, 0, 64, 72
1, 219451, Control_c, 0, 64, 75
1, 219473, Control_c, 0, 64, 77
1, 219488, Control_c, 0, 64, 79
1, 219503, Control_c, 0, 64, 81
1, 219517, Control_c, 0, 64, 82
1, 219519, Note_off_c, 0, 52, 38
1, 219532, Control_c, 0, 64, 83
1, 219547, Control_c, 0, 64, 84
1, 219548, Note_off_c, 0, 64, 61
1, 219563, Control_c, 0, 64, 85
1, 219578, Control_c, 0, 64, 86
1, 219593, Control_c, 0, 64, 87
1, 219603, Note_off_c, 0, 45, 36
1, 219607, Control_c, 0, 64, 88
1, 219622, Control_c, 0, 64, 88
1, 219637, Control_c, 0, 64, 89
1, 219652, Control_c, 0, 64, 90
1, 219654, Note_off_c, 0, 33, 39
1, 219697, Control_c, 0, 64, 90
1, 219875, Control_c, 0, 64, 90
1, 219890, Control_c, 0, 64, 89
1, 219904, Control_c, 0, 64, 88
1, 219916, Note_on_c, 0, 38, 38
1, 219919, Control_c, 0, 64, 87
1, 219924, Note_on_c, 0, 45, 39
1, 219927, Note_on_c, 0, 54, 47
1, 219928, Note_on_c, 0, 66, 59
1, 219934, Control_c, 0, 64, 84
1, 219949, Control_c, 0, 64, 78
1, 219964, Control_c, 0, 64, 70
1, 219978, Control_c, 0, 64, 0
1, 220283, Control_c, 0, 67, 121
1, 220297, Control_c, 0, 67, 96
1, 220312, Control_c, 0, 67, 59
1, 220327, Control_c, 0, 67, 25
1, 220341, Control_c, 0, 67, 0
1, 220857, Note_on_c, 0, 59, 48
1, 220897, Note_off_c, 0, 61, 57
1, 221064, Note_on_c, 0, 61, 64
1, 221095, Note_off_c, 0, 59, 62
1, 221264, Note_on_c, 0, 64, 63
1, 221286, Note_off_c, 0, 61, 62
1, 221433, Note_off_c, 0, 64, 60
1, 221440, Note_on_c, 0, 62, 61
1, 221581, Note_off_c, 0, 54, 54
1, 221624, Control_c, 0, 64, 54
1, 221633, Note_on_c, 0, 61, 54
1, 221639, Control_c, 0, 64, 65
1, 221640, Note_off_c, 0, 66, 37
1, 221648, Note_off_c, 0, 62, 60
1, 221654, Control_c, 0, 64, 68
1, 221669, Control_c, 0, 64, 72
1, 221672, Note_off_c, 0, 61, 64
1, 221684, Control_c, 0, 64, 74
1, 221698, Control_c, 0, 64, 76
1, 221765, Control_c, 0, 64, 76
1, 221780, Control_c, 0, 64, 74
1, 221783, Note_on_c, 0, 61, 59
1, 221794, Control_c, 0, 64, 69
1, 221809, Control_c, 0, 64, 59
1, 221824, Control_c, 0, 64, 0
1, 221959, Note_on_c, 0, 69, 57
1, 222116, Note_off_c, 0, 69, 62
1, 222147, Note_on_c, 0, 68, 59
1, 222291, Note_off_c, 0, 68, 57
1, 222308, Note_on_c, 0, 71, 60
1, 222388, Note_off_c, 0, 61, 57
1, 222444, Note_on_c, 0, 69, 61
1, 222471, Note_off_c, 0, 71, 50
1, 222611, Note_off_c, 0, 69, 62
1, 222620, Note_on_c, 0, 66, 51
1, 222824, Control_c, 0, 64, 26
1, 222839, Control_c, 0, 64, 57
1, 222849, Note_on_c, 0, 62, 48
1, 222854, Control_c, 0, 64, 64
1, 222869, Control_c, 0, 64, 67
1, 222877, Note_off_c, 0, 66, 60
1, 222884, Control_c, 0, 64, 71
1, 222893, Note_off_c, 0, 38, 54
1, 222894, Note_off_c, 0, 45, 41
1, 222900, Control_c, 0, 64, 75
1, 222914, Control_c, 0, 64, 80
1, 222929, Control_c, 0, 64, 83
1, 222936, Note_off_c, 0, 62, 62
1, 222944, Control_c, 0, 64, 85
1, 222958, Control_c, 0, 64, 87
1, 222973, Control_c, 0, 64, 88
1, 222988, Control_c, 0, 64, 90
1, 223003, Control_c, 0, 64, 91
1, 223018, Control_c, 0, 64, 92
1, 223032, Control_c, 0, 64, 92
1, 223047, Control_c, 0, 64, 93
1, 223247, Control_c, 0, 64, 92
1, 223262, Control_c, 0, 64, 91
1, 223277, Control_c, 0, 64, 90
1, 223290, Note_on_c, 0, 40, 40
1, 223292, Control_c, 0, 64, 88
1, 223301, Note_on_c, 0, 52, 32
1, 223308, Control_c, 0, 64, 84
1, 223322, Control_c, 0, 64, 80
1, 223326, Note_on_c, 0, 61, 55
1, 223337, Control_c, 0, 64, 72
1, 223342, Note_on_c, 0, 64, 39
1, 223347, Note_on_c, 0, 56, 41
1, 223352, Control_c, 0, 64, 63
1, 223366, Control_c, 0, 64, 0
1, 223708, Control_c, 0, 64, 54
1, 223723, Control_c, 0, 64, 62
1, 223737, Control_c, 0, 64, 65
1, 223752, Control_c, 0, 64, 68
1, 223767, Control_c, 0, 64, 71
1, 223782, Control_c, 0, 64, 75
1, 223797, Control_c, 0, 64, 78
1, 223812, Control_c, 0, 64, 81
1, 223825, Note_off_c, 0, 52, 41
1, 223827, Control_c, 0, 64, 82
1, 223842, Control_c, 0, 64, 83
1, 223857, Control_c, 0, 64, 85
1, 223871, Control_c, 0, 64, 86
1, 223886, Control_c, 0, 64, 88
1, 223901, Control_c, 0, 64, 89
1, 223916, Control_c, 0, 64, 90
1, 224160, Control_c, 0, 64, 89
1, 224175, Control_c, 0, 64, 89
1, 224189, Control_c, 0, 64, 88
1, 224189, Control_c, 0, 67, 8
1, 224204, Control_c, 0, 64, 87
1, 224204, Control_c, 0, 67, 11
1, 224219, Control_c, 0, 64, 86
1, 224219, Control_c, 0, 67, 15
1, 224234, Control_c, 0, 64, 85
1, 224234, Control_c, 0, 67, 20
1, 224249, Control_c, 0, 64, 83
1, 224249, Control_c, 0, 67, 27
1, 224263, Control_c, 0, 64, 80
1, 224263, Control_c, 0, 67, 34
1, 224269, Note_on_c, 0, 50, 34
1, 224278, Control_c, 0, 64, 77
1, 224278, Control_c, 0, 67, 43
1, 224288, Note_on_c, 0, 59, 46
1, 224293, Control_c, 0, 64, 72
1, 224293, Control_c, 0, 67, 55
1, 224308, Control_c, 0, 64, 65
1, 224308, Control_c, 0, 67, 68
1, 224317, Note_off_c, 0, 61, 56
1, 224322, Control_c, 0, 64, 0
1, 224322, Control_c, 0, 67, 83
1, 224337, Control_c, 0, 67, 100
1, 224352, Control_c, 0, 67, 119
1, 224367, Control_c, 0, 67, 127
1, 224501, Control_c, 0, 64, 52
1, 224516, Control_c, 0, 64, 62
1, 224531, Control_c, 0, 64, 65
1, 224545, Control_c, 0, 64, 68
1, 224560, Control_c, 0, 64, 72
1, 224575, Control_c, 0, 64, 79
1, 224590, Control_c, 0, 64, 83
1, 224605, Control_c, 0, 64, 86
1, 224620, Control_c, 0, 64, 87
1, 224635, Control_c, 0, 64, 89
1, 224650, Control_c, 0, 64, 89
1, 224653, Note_off_c, 0, 56, 40
1, 224664, Control_c, 0, 64, 91
1, 224679, Note_off_c, 0, 50, 38
1, 224684, Note_off_c, 0, 40, 41
1, 224694, Control_c, 0, 64, 91
1, 224924, Control_c, 0, 64, 91
1, 224953, Control_c, 0, 64, 90
1, 224968, Control_c, 0, 64, 90
1, 224983, Control_c, 0, 64, 89
1, 224998, Control_c, 0, 64, 87
1, 225012, Control_c, 0, 64, 85
1, 225027, Control_c, 0, 64, 82
1, 225042, Control_c, 0, 64, 78
1, 225043, Note_on_c, 0, 45, 35
1, 225049, Note_on_c, 0, 49, 36
1, 225052, Note_on_c, 0, 57, 39
1, 225057, Control_c, 0, 64, 70
1, 225072, Control_c, 0, 64, 53
1, 225085, Note_off_c, 0, 59, 37
1, 225086, Control_c, 0, 64, 0
1, 225410, Note_on_c, 0, 52, 31
1, 225415, Note_on_c, 0, 61, 36
1, 225462, Note_off_c, 0, 57, 32
1, 225487, Note_off_c, 0, 64, 34
1, 225491, Note_off_c, 0, 49, 47
1, 226836, Control_c, 0, 64, 36
1, 226850, Control_c, 0, 64, 46
1, 226865, Control_c, 0, 64, 53
1, 226881, Control_c, 0, 64, 57
1, 226896, Control_c, 0, 64, 60
1, 226911, Control_c, 0, 64, 62
1, 226925, Control_c, 0, 64, 64
1, 226940, Control_c, 0, 64, 65
1, 226963, Control_c, 0, 64, 67
1, 226978, Control_c, 0, 64, 68
1, 226993, Control_c, 0, 64, 70
1, 227007, Control_c, 0, 64, 72
1, 227022, Control_c, 0, 64, 74
1, 227037, Control_c, 0, 64, 75
1, 227052, Control_c, 0, 64, 77
1, 227067, Control_c, 0, 64, 78
1, 227082, Control_c, 0, 64, 79
1, 227096, Control_c, 0, 64, 80
1, 227111, Control_c, 0, 64, 81
1, 227126, Control_c, 0, 64, 82
1, 227140, Control_c, 0, 64, 82
1, 227155, Control_c, 0, 64, 83
1, 227170, Control_c, 0, 64, 84
1, 227185, Control_c, 0, 64, 84
1, 227200, Control_c, 0, 64, 85
1, 227214, Control_c, 0, 64, 86
1, 227244, Control_c, 0, 64, 86
1, 227274, Control_c, 0, 64, 87
1, 227407, Control_c, 0, 67, 117
1, 227422, Control_c, 0, 67, 103
1, 227437, Control_c, 0, 67, 87
1, 227452, Control_c, 0, 67, 69
1, 227466, Control_c, 0, 67, 49
1, 227481, Control_c, 0, 67, 27
1, 227496, Control_c, 0, 67, 12
1, 227511, Control_c, 0, 67, 0
1, 227644, Control_c, 0, 64, 86
1, 227658, Control_c, 0, 64, 86
1, 227663, Note_off_c, 0, 61, 38
1, 227675, Control_c, 0, 64, 85
1, 227690, Control_c, 0, 64, 84
1, 227701, Note_off_c, 0, 52, 34
1, 227711, Control_c, 0, 64, 83
1, 227726, Control_c, 0, 64, 81
1, 227732, Note_off_c, 0, 45, 33
1, 227741, Control_c, 0, 64, 79
1, 227756, Control_c, 0, 64, 77
1, 227771, Control_c, 0, 64, 73
1, 227785, Control_c, 0, 64, 68
1, 227799, Control_c, 0, 64, 60
1, 227814, Control_c, 0, 64, 22
1, 227828, Control_c, 0, 64, 0
1, 228154, Control_c, 0, 67, 9
1, 228169, Control_c, 0, 67, 13
1, 228184, Control_c, 0, 67, 18
1, 228199, Control_c, 0, 67, 27
1, 228214, Control_c, 0, 67, 36
1, 228228, Control_c, 0, 67, 49
1, 228243, Control_c, 0, 67, 65
1, 228258, Control_c, 0, 67, 83
1, 228273, Control_c, 0, 67, 101
1, 228287, Control_c, 0, 67, 117
1, 228302, Control_c, 0, 67, 127
1, 228961, Note_on_c, 0, 73, 47
1, 230799, Note_on_c, 0, 75, 33
1, 230825, Note_off_c, 0, 73, 34
1, 231055, Note_on_c, 0, 78, 48
1, 231061, Note_off_c, 0, 75, 54
1, 231243, Note_off_c, 0, 78, 54
1, 231248, Note_on_c, 0, 76, 48
1, 231363, Note_off_c, 0, 76, 60
1, 231365, Note_on_c, 0, 73, 55
1, 231437, Note_off_c, 0, 73, 63
1, 231455, Note_on_c, 0, 69, 60
1, 231519, Note_off_c, 0, 69, 63
1, 231550, Note_on_c, 0, 68, 69
1, 231576, Note_off_c, 0, 68, 65
1, 231640, Note_on_c, 0, 68, 61
1, 231730, Note_off_c, 0, 68, 58
1, 231756, Note_on_c, 0, 80, 65
1, 232306, Control_c, 0, 64, 25
1, 232313, Note_on_c, 0, 59, 32
1, 232321, Control_c, 0, 64, 60
1, 232327, Note_on_c, 0, 65, 36
1, 232335, Control_c, 0, 64, 65
1, 232345, Note_on_c, 0, 62, 27
1, 232350, Control_c, 0, 64, 68
1, 232365, Control_c, 0, 64, 72
1, 232380, Control_c, 0, 64, 77
1, 232395, Control_c, 0, 64, 82
1, 232409, Control_c, 0, 64, 84
1, 232418, Note_off_c, 0, 65, 59
1, 232424, Control_c, 0, 64, 84
1, 232434, Note_off_c, 0, 59, 52
1, 232439, Control_c, 0, 64, 85
1, 232454, Control_c, 0, 64, 86
1, 232470, Control_c, 0, 64, 86
1, 232503, Note_off_c, 0, 80, 61
1, 232508, Note_off_c, 0, 62, 33
1, 232541, Note_on_c, 0, 78, 56
1, 232565, Note_off_c, 0, 78, 58
1, 232573, Control_c, 0, 64, 85
1, 232586, Note_on_c, 0, 80, 66
1, 232588, Control_c, 0, 64, 81
1, 232603, Control_c, 0, 64, 69
1, 232618, Control_c, 0, 64, 0
1, 232619, Note_on_c, 0, 61, 43
1, 232627, Note_on_c, 0, 57, 31
1, 232633, Note_on_c, 0, 66, 41
1, 232634, Note_off_c, 0, 80, 62
1, 232646, Note_on_c, 0, 78, 63
1, 232692, Control_c, 0, 64, 54
1, 232707, Control_c, 0, 64, 66
1, 232722, Control_c, 0, 64, 71
1, 232737, Control_c, 0, 64, 77
1, 232751, Control_c, 0, 64, 82
1, 232766, Control_c, 0, 64, 84
1, 232781, Control_c, 0, 64, 85
1, 232796, Control_c, 0, 64, 85
1, 232811, Control_c, 0, 64, 86
1, 232817, Note_off_c, 0, 61, 33
1, 232824, Note_off_c, 0, 66, 55
1, 232840, Control_c, 0, 64, 86
1, 232846, Note_off_c, 0, 57, 39
1, 232936, Note_off_c, 0, 78, 60
1, 232951, Control_c, 0, 64, 86
1, 232966, Control_c, 0, 64, 84
1, 232981, Control_c, 0, 64, 78
1, 232984, Note_on_c, 0, 76, 51
1, 232996, Control_c, 0, 64, 65
1, 233011, Control_c, 0, 64, 0
1, 233028, Note_on_c, 0, 61, 40
1, 233038, Note_off_c, 0, 76, 51
1, 233039, Note_on_c, 0, 69, 45
1, 233050, Note_on_c, 0, 64, 43
1, 233050, Note_on_c, 0, 78, 67
1, 233071, Control_c, 0, 64, 47
1, 233085, Control_c, 0, 64, 63
1, 233100, Control_c, 0, 64, 67
1, 233100, Note_off_c, 0, 69, 62
1, 233115, Control_c, 0, 64, 72
1, 233124, Note_off_c, 0, 64, 60
1, 233130, Control_c, 0, 64, 77
1, 233138, Note_off_c, 0, 61, 56
1, 233145, Control_c, 0, 64, 80
1, 233159, Control_c, 0, 64, 81
1, 233174, Control_c, 0, 64, 81
1, 233263, Control_c, 0, 64, 81
1, 233279, Control_c, 0, 64, 76
1, 233294, Control_c, 0, 64, 66
1, 233295, Note_on_c, 0, 60, 43
1, 233297, Note_on_c, 0, 68, 47
1, 233297, Note_on_c, 0, 80, 62
1, 233303, Note_on_c, 0, 63, 40
1, 233309, Control_c, 0, 64, 0
1, 233310, Note_off_c, 0, 78, 58
1, 233367, Control_c, 0, 64, 57
1, 233382, Control_c, 0, 64, 65
1, 233397, Control_c, 0, 64, 68
1, 233412, Control_c, 0, 64, 72
1, 233427, Control_c, 0, 64, 76
1, 233441, Control_c, 0, 64, 78
1, 233456, Control_c, 0, 64, 79
1, 233459, Note_off_c, 0, 68, 54
1, 233467, Note_off_c, 0, 60, 57
1, 233497, Note_off_c, 0, 63, 39
1, 233545, Control_c, 0, 64, 79
1, 233566, Note_off_c, 0, 80, 60
1, 233574, Control_c, 0, 64, 77
1, 233589, Note_on_c, 0, 81, 65
1, 233589, Control_c, 0, 64, 71
1, 233604, Control_c, 0, 64, 54
1, 233619, Control_c, 0, 64, 0
1, 233658, Note_on_c, 0, 59, 37
1, 233658, Note_on_c, 0, 80, 62
1, 233658, Note_off_c, 0, 81, 57
1, 233664, Control_c, 0, 64, 56
1, 233672, Note_on_c, 0, 62, 30
1, 233675, Note_on_c, 0, 65, 35
1, 233679, Control_c, 0, 64, 64
1, 233700, Control_c, 0, 64, 67
1, 233715, Control_c, 0, 64, 70
1, 233719, Note_off_c, 0, 65, 53
1, 233730, Control_c, 0, 64, 74
1, 233745, Control_c, 0, 64, 77
1, 233760, Control_c, 0, 64, 77
1, 233768, Note_off_c, 0, 59, 36
1, 233774, Note_off_c, 0, 62, 31
1, 233860, Note_off_c, 0, 80, 63
1, 233887, Note_on_c, 0, 78, 61
1, 233908, Control_c, 0, 64, 77
1, 233921, Note_off_c, 0, 78, 54
1, 233923, Control_c, 0, 64, 74
1, 233937, Note_on_c, 0, 80, 56
1, 233938, Control_c, 0, 64, 66
1, 233953, Note_on_c, 0, 61, 42
1, 233953, Control_c, 0, 64, 0
1, 233972, Note_on_c, 0, 57, 37
1, 233973, Note_on_c, 0, 66, 44
1, 233985, Note_off_c, 0, 80, 63
1, 233992, Note_on_c, 0, 78, 68
1, 234027, Control_c, 0, 64, 52
1, 234042, Control_c, 0, 64, 65
1, 234056, Control_c, 0, 64, 68
1, 234072, Control_c, 0, 64, 72
1, 234087, Control_c, 0, 64, 76
1, 234102, Control_c, 0, 64, 80
1, 234117, Control_c, 0, 64, 82
1, 234131, Control_c, 0, 64, 84
1, 234146, Control_c, 0, 64, 85
1, 234161, Control_c, 0, 64, 86
1, 234176, Control_c, 0, 64, 87
1, 234190, Control_c, 0, 64, 87
1, 234205, Control_c, 0, 64, 88
1, 234220, Control_c, 0, 64, 88
1, 234262, Note_off_c, 0, 66, 57
1, 234285, Note_off_c, 0, 57, 36
1, 234299, Note_off_c, 0, 61, 36
1, 234414, Note_off_c, 0, 78, 55
1, 234425, Note_on_c, 0, 76, 50
1, 234509, Control_c, 0, 64, 88
1, 234523, Control_c, 0, 64, 86
1, 234538, Control_c, 0, 64, 83
1, 234546, Note_on_c, 0, 61, 40
1, 234553, Control_c, 0, 64, 78
1, 234568, Control_c, 0, 64, 70
1, 234571, Note_on_c, 0, 64, 42
1, 234579, Note_on_c, 0, 69, 39
1, 234583, Control_c, 0, 64, 49
1, 234595, Note_on_c, 0, 78, 49
1, 234597, Note_off_c, 0, 76, 53
1, 234597, Control_c, 0, 64, 0
1, 234713, Note_off_c, 0, 69, 59
1, 234748, Note_on_c, 0, 56, 47
1, 234753, Note_off_c, 0, 61, 61
1, 234783, Note_off_c, 0, 64, 64
1, 234939, Note_on_c, 0, 63, 46
1, 234940, Control_c, 0, 64, 49
1, 234954, Control_c, 0, 64, 65
1, 234969, Control_c, 0, 64, 70
1, 234984, Control_c, 0, 64, 76
1, 234999, Control_c, 0, 64, 82
1, 235011, Note_off_c, 0, 56, 58
1, 235014, Control_c, 0, 64, 85
1, 235028, Control_c, 0, 64, 87
1, 235043, Control_c, 0, 64, 89
1, 235058, Control_c, 0, 64, 92
1, 235073, Control_c, 0, 64, 94
1, 235088, Control_c, 0, 64, 96
1, 235092, Note_off_c, 0, 63, 56
1, 235102, Control_c, 0, 64, 98
1, 235117, Control_c, 0, 64, 99
1, 235132, Control_c, 0, 64, 99
1, 235146, Control_c, 0, 64, 100
1, 235161, Control_c, 0, 64, 101
1, 235176, Control_c, 0, 64, 102
1, 235199, Control_c, 0, 64, 103
1, 235214, Control_c, 0, 64, 103
1, 235226, Note_on_c, 0, 80, 64
1, 235241, Note_off_c, 0, 78, 60
1, 235243, Control_c, 0, 64, 104
1, 235247, Note_on_c, 0, 72, 45
1, 235287, Control_c, 0, 64, 104
1, 235315, Note_off_c, 0, 72, 56
1, 235332, Control_c, 0, 64, 105
1, 235376, Control_c, 0, 64, 105
1, 235406, Control_c, 0, 64, 106
1, 235435, Control_c, 0, 64, 106
1, 235450, Control_c, 0, 64, 107
1, 235465, Control_c, 0, 64, 108
1, 235479, Control_c, 0, 64, 109
1, 235494, Control_c, 0, 64, 110
1, 235509, Control_c, 0, 64, 111
1, 235524, Control_c, 0, 64, 112
1, 235539, Control_c, 0, 64, 113
1, 235554, Control_c, 0, 64, 114
1, 235569, Control_c, 0, 64, 116
1, 235583, Control_c, 0, 64, 117
1, 235598, Control_c, 0, 64, 118
1, 235613, Control_c, 0, 64, 119
1, 235628, Control_c, 0, 64, 120
1, 235643, Control_c, 0, 64, 122
1, 235658, Control_c, 0, 64, 124
1, 235673, Control_c, 0, 64, 126
1, 235688, Control_c, 0, 64, 127
1, 236252, Note_on_c, 0, 44, 38
1, 236507, Note_off_c, 0, 80, 35
1, 236550, Note_on_c, 0, 68, 38
1, 236618, Note_off_c, 0, 44, 33
1, 236710, Note_off_c, 0, 68, 57
1, 236734, Note_on_c, 0, 80, 46
1, 236844, Note_off_c, 0, 80, 51
1, 236886, Note_on_c, 0, 75, 40
1, 237035, Note_on_c, 0, 80, 44
1, 237035, Note_off_c, 0, 75, 54
1, 237126, Note_off_c, 0, 80, 61
1, 237189, Note_on_c, 0, 75, 43
1, 237360, Note_on_c, 0, 87, 43
1, 237379, Note_off_c, 0, 75, 41
1, 237525, Note_off_c, 0, 87, 35
1, 237535, Note_on_c, 0, 80, 40
1, 237743, Note_on_c, 0, 87, 45
1, 237744, Note_off_c, 0, 80, 41
1, 237935, Note_off_c, 0, 87, 53
1, 237997, Note_on_c, 0, 80, 40
1, 238401, Note_on_c, 0, 92, 48
1, 238472, Note_off_c, 0, 80, 45
1, 238472, Note_off_c, 0, 92, 58
1, 238946, Note_on_c, 0, 80, 64
1, 239299, Note_on_c, 0, 78, 71
1, 239372, Note_off_c, 0, 80, 53
1, 239639, Control_c, 0, 64, 126
1, 239654, Control_c, 0, 64, 104
1, 239670, Note_on_c, 0, 49, 45
1, 239670, Control_c, 0, 64, 88
1, 239692, Control_c, 0, 64, 69
1, 239699, Note_on_c, 0, 76, 63
1, 239707, Control_c, 0, 64, 0
1, 239730, Note_off_c, 0, 78, 23
1, 239766, Control_c, 0, 64, 35
1, 239780, Control_c, 0, 64, 61
1, 239795, Control_c, 0, 64, 67
1, 239809, Control_c, 0, 64, 72
1, 239824, Control_c, 0, 64, 78
1, 239828, Note_off_c, 0, 49, 54
1, 239839, Control_c, 0, 64, 83
1, 239854, Control_c, 0, 64, 86
1, 239866, Note_off_c, 0, 76, 63
1, 239868, Control_c, 0, 64, 87
1, 239883, Control_c, 0, 64, 90
1, 239898, Control_c, 0, 64, 92
1, 239913, Control_c, 0, 64, 94
1, 239928, Control_c, 0, 64, 96
1, 239942, Control_c, 0, 64, 97
1, 239957, Control_c, 0, 64, 98
1, 239972, Control_c, 0, 64, 99
1, 239987, Control_c, 0, 64, 100
1, 239995, Note_on_c, 0, 67, 47
1, 240002, Control_c, 0, 64, 101
1, 240008, Note_on_c, 0, 64, 38
1, 240016, Control_c, 0, 64, 102
1, 240031, Control_c, 0, 64, 103
1, 240046, Control_c, 0, 64, 103
1, 240061, Control_c, 0, 64, 104
1, 240076, Control_c, 0, 64, 105
1, 240084, Note_off_c, 0, 67, 55
1, 240091, Control_c, 0, 64, 106
1, 240102, Note_on_c, 0, 68, 53
1, 240135, Control_c, 0, 64, 106
1, 240160, Note_off_c, 0, 64, 38
1, 240194, Note_off_c, 0, 68, 62
1, 240207, Note_on_c, 0, 71, 56
1, 240213, Note_on_c, 0, 56, 46
1, 240267, Note_on_c, 0, 69, 63
1, 240290, Note_off_c, 0, 71, 58
1, 240354, Note_off_c, 0, 69, 65
1, 240365, Note_on_c, 0, 68, 62
1, 240402, Control_c, 0, 64, 106
1, 240416, Control_c, 0, 64, 105
1, 240420, Note_off_c, 0, 68, 60
1, 240439, Control_c, 0, 64, 102
1, 240454, Control_c, 0, 64, 91
1, 240457, Note_on_c, 0, 54, 41
1, 240462, Note_on_c, 0, 51, 41
1, 240469, Control_c, 0, 64, 78
1, 240484, Control_c, 0, 64, 62
1, 240491, Note_on_c, 0, 68, 43
1, 240499, Control_c, 0, 64, 0
1, 240559, Control_c, 0, 64, 34
1, 240573, Control_c, 0, 64, 55
1, 240588, Control_c, 0, 64, 63
1, 240603, Control_c, 0, 64, 67
1, 240618, Control_c, 0, 64, 72
1, 240633, Control_c, 0, 64, 80
1, 240647, Control_c, 0, 64, 85
1, 240662, Control_c, 0, 64, 87
1, 240677, Control_c, 0, 64, 88
1, 240691, Control_c, 0, 64, 90
1, 240699, Note_off_c, 0, 51, 35
1, 240706, Control_c, 0, 64, 92
1, 240721, Control_c, 0, 64, 94
1, 240729, Note_on_c, 0, 60, 44
1, 240736, Control_c, 0, 64, 95
1, 240737, Note_off_c, 0, 54, 30
1, 240740, Note_on_c, 0, 76, 63
1, 240751, Control_c, 0, 64, 96
1, 240780, Control_c, 0, 64, 96
1, 240781, Note_off_c, 0, 56, 37
1, 240922, Note_on_c, 0, 56, 40
1, 240955, Note_off_c, 0, 76, 61
1, 240958, Note_off_c, 0, 60, 37
1, 240961, Note_on_c, 0, 75, 69
1, 241018, Control_c, 0, 64, 96
1, 241047, Control_c, 0, 64, 95
1, 241077, Control_c, 0, 64, 95
1, 241106, Control_c, 0, 64, 93
1, 241121, Control_c, 0, 64, 86
1, 241136, Control_c, 0, 64, 76
1, 241151, Control_c, 0, 64, 56
1, 241165, Control_c, 0, 64, 0
1, 241189, Note_off_c, 0, 75, 54
1, 241194, Note_on_c, 0, 73, 67
1, 241194, Note_on_c, 0, 52, 44
1, 241232, Control_c, 0, 64, 37
1, 241247, Control_c, 0, 64, 62
1, 241262, Control_c, 0, 64, 67
1, 241277, Control_c, 0, 64, 73
1, 241292, Control_c, 0, 64, 79
1, 241295, Note_off_c, 0, 68, 42
1, 241307, Control_c, 0, 64, 83
1, 241322, Control_c, 0, 64, 84
1, 241337, Control_c, 0, 64, 85
1, 241350, Note_off_c, 0, 73, 59
1, 241352, Control_c, 0, 64, 87
1, 241366, Control_c, 0, 64, 88
1, 241371, Note_off_c, 0, 52, 36
1, 241381, Control_c, 0, 64, 89
1, 241396, Control_c, 0, 64, 89
1, 241411, Note_off_c, 0, 56, 41
1, 241415, Note_on_c, 0, 67, 57
1, 241417, Note_on_c, 0, 61, 45
1, 241441, Control_c, 0, 64, 90
1, 241486, Note_off_c, 0, 67, 58
1, 241489, Note_on_c, 0, 68, 62
1, 241509, Note_off_c, 0, 61, 62
1, 241559, Control_c, 0, 64, 89
1, 241566, Note_off_c, 0, 68, 62
1, 241572, Note_on_c, 0, 71, 63
1, 241590, Note_on_c, 0, 56, 44
1, 241634, Note_on_c, 0, 69, 71
1, 241656, Note_off_c, 0, 71, 56
1, 241662, Control_c, 0, 64, 89
1, 241692, Control_c, 0, 64, 88
1, 241706, Note_on_c, 0, 68, 72
1, 241706, Note_off_c, 0, 69, 66
1, 241721, Control_c, 0, 64, 88
1, 241736, Control_c, 0, 64, 86
1, 241751, Note_off_c, 0, 68, 62
1, 241751, Control_c, 0, 64, 81
1, 241766, Control_c, 0, 64, 71
1, 241781, Control_c, 0, 64, 0
1, 241799, Note_on_c, 0, 68, 65
1, 241807, Note_on_c, 0, 48, 47
1, 241855, Control_c, 0, 64, 49
1, 241870, Control_c, 0, 64, 63
1, 241873, Note_off_c, 0, 48, 62
1, 241885, Control_c, 0, 64, 69
1, 241900, Control_c, 0, 64, 74
1, 241914, Control_c, 0, 64, 79
1, 241936, Control_c, 0, 64, 82
1, 241951, Control_c, 0, 64, 82
1, 241981, Control_c, 0, 64, 83
1, 241995, Control_c, 0, 64, 83
1, 242038, Note_off_c, 0, 56, 38
1, 242041, Note_on_c, 0, 80, 74
1, 242046, Note_on_c, 0, 63, 58
1, 242224, Note_off_c, 0, 63, 43
1, 242252, Note_on_c, 0, 56, 44
1, 242259, Note_on_c, 0, 78, 76
1, 242276, Note_off_c, 0, 80, 37
1, 242367, Control_c, 0, 64, 83
1, 242397, Control_c, 0, 64, 82
1, 242411, Control_c, 0, 64, 82
1, 242426, Control_c, 0, 64, 81
1, 242441, Control_c, 0, 64, 80
1, 242455, Control_c, 0, 64, 75
1, 242457, Note_on_c, 0, 49, 55
1, 242460, Note_off_c, 0, 78, 61
1, 242470, Control_c, 0, 64, 64
1, 242485, Control_c, 0, 64, 0
1, 242487, Note_on_c, 0, 76, 66
1, 242559, Control_c, 0, 64, 46
1, 242563, Note_off_c, 0, 49, 54
1, 242574, Control_c, 0, 64, 64
1, 242586, Note_off_c, 0, 68, 58
1, 242589, Control_c, 0, 64, 69
1, 242604, Control_c, 0, 64, 74
1, 242609, Note_off_c, 0, 76, 63
1, 242618, Control_c, 0, 64, 79
1, 242625, Note_off_c, 0, 56, 39
1, 242633, Control_c, 0, 64, 82
1, 242648, Control_c, 0, 64, 84
1, 242663, Control_c, 0, 64, 85
1, 242685, Control_c, 0, 64, 87
1, 242700, Note_on_c, 0, 64, 45
1, 242700, Control_c, 0, 64, 88
1, 242707, Note_on_c, 0, 67, 63
1, 242715, Control_c, 0, 64, 90
1, 242729, Control_c, 0, 64, 92
1, 242744, Control_c, 0, 64, 94
1, 242759, Control_c, 0, 64, 95
1, 242759, Control_c, 0, 67, 109
1, 242774, Control_c, 0, 64, 97
1, 242774, Control_c, 0, 67, 72
1, 242788, Note_off_c, 0, 67, 59
1, 242789, Control_c, 0, 64, 98
1, 242789, Control_c, 0, 67, 29
1, 242793, Note_on_c, 0, 68, 71
1, 242799, Note_off_c, 0, 64, 58
1, 242804, Control_c, 0, 64, 99
1, 242804, Control_c, 0, 67, 0
1, 242818, Control_c, 0, 64, 99
1, 242833, Control_c, 0, 64, 100
1, 242851, Note_on_c, 0, 56, 45
1, 242863, Note_off_c, 0, 68, 63
1, 242868, Note_on_c, 0, 71, 64
1, 242927, Note_on_c, 0, 69, 73
1, 242932, Note_off_c, 0, 71, 57
1, 242982, Note_off_c, 0, 69, 66
1, 242988, Note_on_c, 0, 68, 71
1, 243019, Note_off_c, 0, 68, 66
1, 243027, Control_c, 0, 64, 99
1, 243042, Control_c, 0, 64, 97
1, 243057, Control_c, 0, 64, 89
1, 243058, Note_on_c, 0, 51, 44
1, 243065, Note_on_c, 0, 54, 45
1, 243072, Control_c, 0, 64, 76
1, 243072, Note_on_c, 0, 68, 73
1, 243086, Control_c, 0, 64, 55
1, 243101, Control_c, 0, 64, 0
1, 243146, Control_c, 0, 64, 44
1, 243160, Control_c, 0, 64, 61
1, 243175, Control_c, 0, 64, 65
1, 243190, Control_c, 0, 64, 68
1, 243205, Control_c, 0, 64, 73
1, 243220, Control_c, 0, 64, 78
1, 243234, Control_c, 0, 64, 81
1, 243235, Note_off_c, 0, 51, 36
1, 243249, Control_c, 0, 64, 83
1, 243254, Note_off_c, 0, 54, 36
1, 243264, Control_c, 0, 64, 84
1, 243269, Note_on_c, 0, 60, 45
1, 243278, Control_c, 0, 64, 85
1, 243284, Note_on_c, 0, 76, 73
1, 243292, Note_off_c, 0, 56, 35
1, 243293, Control_c, 0, 64, 86
1, 243308, Control_c, 0, 64, 88
1, 243323, Control_c, 0, 64, 88
1, 243452, Note_off_c, 0, 60, 37
1, 243474, Note_on_c, 0, 75, 75
1, 243476, Note_on_c, 0, 56, 48
1, 243489, Note_off_c, 0, 76, 37
1, 243626, Control_c, 0, 64, 87
1, 243641, Control_c, 0, 64, 82
1, 243657, Control_c, 0, 64, 71
1, 243671, Note_on_c, 0, 73, 80
1, 243672, Control_c, 0, 64, 0
1, 243680, Note_on_c, 0, 52, 44
1, 243706, Note_off_c, 0, 68, 43
1, 243718, Note_off_c, 0, 75, 60
1, 243731, Control_c, 0, 64, 60
1, 243746, Control_c, 0, 64, 67
1, 243761, Control_c, 0, 64, 73
1, 243776, Control_c, 0, 64, 80
1, 243790, Control_c, 0, 64, 85
1, 243796, Note_off_c, 0, 52, 37
1, 243805, Control_c, 0, 64, 87
1, 243816, Note_off_c, 0, 73, 60
1, 243820, Control_c, 0, 64, 88
1, 243835, Control_c, 0, 64, 89
1, 243850, Control_c, 0, 64, 91
1, 243864, Control_c, 0, 64, 93
1, 243869, Note_off_c, 0, 56, 41
1, 243878, Note_on_c, 0, 61, 53
1, 243879, Control_c, 0, 64, 95
1, 243884, Note_on_c, 0, 72, 69
1, 243894, Control_c, 0, 64, 96
1, 243909, Control_c, 0, 64, 96
1, 243954, Control_c, 0, 64, 97
1, 243957, Note_on_c, 0, 73, 71
1, 243963, Note_off_c, 0, 72, 63
1, 243983, Control_c, 0, 64, 97
1, 243999, Note_off_c, 0, 61, 60
1, 244004, Note_on_c, 0, 56, 44
1, 244043, Note_on_c, 0, 76, 73
1, 244049, Note_off_c, 0, 73, 63
1, 244111, Note_on_c, 0, 74, 74
1, 244131, Note_off_c, 0, 76, 64
1, 244150, Note_off_c, 0, 56, 53
1, 244204, Note_off_c, 0, 74, 67
1, 244210, Note_on_c, 0, 73, 85
1, 244247, Note_off_c, 0, 73, 64
1, 244257, Control_c, 0, 64, 96
1, 244272, Control_c, 0, 64, 90
1, 244287, Control_c, 0, 64, 78
1, 244300, Note_on_c, 0, 53, 56
1, 244302, Control_c, 0, 64, 62
1, 244306, Note_on_c, 0, 73, 79
1, 244306, Note_on_c, 0, 59, 47
1, 244316, Control_c, 0, 64, 0
1, 244361, Control_c, 0, 64, 39
1, 244376, Control_c, 0, 64, 63
1, 244390, Control_c, 0, 64, 68
1, 244395, Note_off_c, 0, 53, 64
1, 244405, Control_c, 0, 64, 73
1, 244420, Control_c, 0, 64, 79
1, 244434, Control_c, 0, 64, 83
1, 244450, Control_c, 0, 64, 84
1, 244465, Control_c, 0, 64, 85
1, 244467, Note_off_c, 0, 59, 61
1, 244480, Control_c, 0, 64, 86
1, 244495, Control_c, 0, 64, 87
1, 244510, Control_c, 0, 64, 87
1, 244525, Control_c, 0, 64, 88
1, 244529, Note_on_c, 0, 85, 89
1, 244530, Note_on_c, 0, 68, 72
1, 244540, Control_c, 0, 64, 88
1, 244570, Control_c, 0, 64, 89
1, 244614, Control_c, 0, 64, 89
1, 244629, Control_c, 0, 64, 90
1, 244644, Control_c, 0, 64, 90
1, 244658, Control_c, 0, 64, 91
1, 244703, Control_c, 0, 64, 91
1, 244723, Note_off_c, 0, 68, 62
1, 244726, Note_on_c, 0, 61, 66
1, 244747, Note_on_c, 0, 83, 83
1, 244795, Note_off_c, 0, 85, 64
1, 244947, Note_off_c, 0, 83, 54
1, 244978, Control_c, 0, 64, 91
1, 244993, Control_c, 0, 64, 90
1, 245004, Note_on_c, 0, 57, 56
1, 245007, Control_c, 0, 64, 86
1, 245011, Note_on_c, 0, 54, 55
1, 245022, Control_c, 0, 64, 75
1, 245037, Control_c, 0, 64, 19
1, 245038, Note_on_c, 0, 81, 87
1, 245052, Control_c, 0, 64, 0
1, 245096, Control_c, 0, 64, 30
1, 245111, Control_c, 0, 64, 63
1, 245126, Control_c, 0, 64, 69
1, 245130, Note_off_c, 0, 54, 55
1, 245140, Control_c, 0, 64, 78
1, 245146, Note_off_c, 0, 73, 57
1, 245155, Control_c, 0, 64, 84
1, 245162, Note_off_c, 0, 81, 58
1, 245170, Note_off_c, 0, 61, 35
1, 245170, Control_c, 0, 64, 87
1, 245185, Control_c, 0, 64, 87
1, 245200, Control_c, 0, 64, 88
1, 245215, Control_c, 0, 64, 88
1, 245230, Control_c, 0, 64, 89
1, 245240, Note_off_c, 0, 57, 56
1, 245245, Control_c, 0, 64, 89
1, 245251, Note_on_c, 0, 66, 57
1, 245257, Note_on_c, 0, 72, 68
1, 245260, Control_c, 0, 64, 90
1, 245320, Note_off_c, 0, 72, 64
1, 245323, Note_on_c, 0, 73, 70
1, 245334, Control_c, 0, 64, 90
1, 245374, Note_off_c, 0, 66, 62
1, 245385, Note_on_c, 0, 76, 71
1, 245391, Note_off_c, 0, 73, 62
1, 245394, Note_on_c, 0, 61, 56
1, 245438, Note_on_c, 0, 74, 76
1, 245457, Note_off_c, 0, 76, 65
1, 245468, Control_c, 0, 64, 90
1, 245498, Note_off_c, 0, 74, 67
1, 245505, Note_on_c, 0, 73, 74
1, 245528, Note_off_c, 0, 73, 68
1, 245556, Control_c, 0, 64, 89
1, 245571, Control_c, 0, 64, 84
1, 245578, Note_on_c, 0, 73, 84
1, 245586, Control_c, 0, 64, 73
1, 245596, Note_on_c, 0, 56, 48
1, 245599, Note_on_c, 0, 59, 45
1, 245600, Control_c, 0, 64, 34
1, 245615, Control_c, 0, 64, 0
1, 245660, Control_c, 0, 64, 33
1, 245682, Control_c, 0, 64, 60
1, 245697, Control_c, 0, 64, 66
1, 245712, Control_c, 0, 64, 71
1, 245727, Control_c, 0, 64, 77
1, 245742, Control_c, 0, 64, 82
1, 245756, Control_c, 0, 64, 83
1, 245757, Note_off_c, 0, 61, 19
1, 245772, Control_c, 0, 64, 84
1, 245787, Note_on_c, 0, 81, 80
1, 245787, Control_c, 0, 64, 84
1, 245792, Note_on_c, 0, 65, 47
1, 245797, Note_off_c, 0, 59, 33
1, 245802, Control_c, 0, 64, 85
1, 245816, Control_c, 0, 64, 86
1, 245831, Control_c, 0, 64, 87
1, 245846, Control_c, 0, 64, 87
1, 245935, Note_off_c, 0, 56, 25
1, 245956, Note_off_c, 0, 65, 38
1, 245969, Note_on_c, 0, 61, 52
1, 245976, Note_on_c, 0, 80, 84
1, 246005, Note_off_c, 0, 81, 54
1, 246128, Control_c, 0, 64, 87
1, 246143, Control_c, 0, 64, 82
1, 246158, Control_c, 0, 64, 73
1, 246164, Note_on_c, 0, 57, 53
1, 246169, Note_on_c, 0, 78, 78
1, 246169, Note_off_c, 0, 80, 63
1, 246173, Control_c, 0, 64, 46
1, 246187, Control_c, 0, 64, 0
1, 246218, Note_off_c, 0, 61, 30
1, 246246, Control_c, 0, 64, 56
1, 246261, Control_c, 0, 64, 65
1, 246276, Control_c, 0, 64, 70
1, 246284, Note_off_c, 0, 57, 58
1, 246289, Note_off_c, 0, 73, 40
1, 246291, Control_c, 0, 64, 76
1, 246306, Note_off_c, 0, 78, 61
1, 246306, Control_c, 0, 64, 81
1, 246321, Control_c, 0, 64, 82
1, 246336, Control_c, 0, 64, 83
1, 246349, Note_on_c, 0, 66, 48
1, 246365, Control_c, 0, 64, 83
1, 246370, Note_on_c, 0, 72, 60
1, 246380, Control_c, 0, 64, 84
1, 246422, Note_off_c, 0, 72, 60
1, 246436, Note_on_c, 0, 73, 58
1, 246458, Note_off_c, 0, 66, 58
1, 246508, Note_off_c, 0, 73, 62
1, 246509, Note_on_c, 0, 76, 66
1, 246526, Note_on_c, 0, 61, 38
1, 246580, Note_on_c, 0, 74, 62
1, 246587, Note_off_c, 0, 76, 60
1, 246609, Control_c, 0, 64, 83
1, 246624, Control_c, 0, 64, 83
1, 246646, Note_on_c, 0, 73, 68
1, 246646, Note_off_c, 0, 74, 66
1, 246668, Control_c, 0, 64, 82
1, 246683, Control_c, 0, 64, 81
1, 246698, Control_c, 0, 64, 78
1, 246699, Note_off_c, 0, 73, 62
1, 246712, Control_c, 0, 64, 70
1, 246727, Control_c, 0, 64, 41
1, 246730, Note_on_c, 0, 53, 39
1, 246742, Control_c, 0, 64, 0
1, 246753, Note_on_c, 0, 73, 55
1, 246786, Control_c, 0, 64, 13
1, 246801, Control_c, 0, 64, 54
1, 246816, Control_c, 0, 64, 63
1, 246817, Note_off_c, 0, 53, 61
1, 246830, Control_c, 0, 64, 66
1, 246845, Control_c, 0, 64, 69
1, 246861, Control_c, 0, 64, 72
1, 246876, Control_c, 0, 64, 74
1, 246891, Control_c, 0, 64, 74
1, 246906, Control_c, 0, 64, 75
1, 246921, Control_c, 0, 64, 76
1, 246930, Note_off_c, 0, 61, 34
1, 246935, Control_c, 0, 64, 79
1, 246950, Control_c, 0, 64, 81
1, 246962, Note_on_c, 0, 85, 52
1, 246965, Control_c, 0, 64, 82
1, 246980, Control_c, 0, 64, 82
1, 246991, Note_on_c, 0, 68, 42
1, 247009, Control_c, 0, 64, 83
1, 247024, Control_c, 0, 64, 83
1, 247039, Control_c, 0, 64, 84
1, 247054, Control_c, 0, 64, 84
1, 247143, Note_off_c, 0, 68, 40
1, 247179, Note_on_c, 0, 61, 45
1, 247185, Note_on_c, 0, 83, 51
1, 247251, Note_off_c, 0, 85, 37
1, 247328, Control_c, 0, 64, 84
1, 247343, Control_c, 0, 64, 83
1, 247373, Control_c, 0, 64, 83
1, 247388, Control_c, 0, 64, 82
1, 247402, Control_c, 0, 64, 82
1, 247417, Control_c, 0, 64, 81
1, 247421, Note_off_c, 0, 83, 32
1, 247432, Control_c, 0, 64, 80
1, 247447, Control_c, 0, 64, 79
1, 247461, Control_c, 0, 64, 78
1, 247468, Note_on_c, 0, 54, 42
1, 247470, Note_on_c, 0, 57, 38
1, 247476, Control_c, 0, 64, 77
1, 247491, Control_c, 0, 64, 75
1, 247506, Control_c, 0, 64, 71
1, 247521, Control_c, 0, 64, 60
1, 247535, Control_c, 0, 64, 0
1, 247546, Note_on_c, 0, 81, 54
1, 247561, Note_off_c, 0, 61, 29
1, 247624, Control_c, 0, 64, 60
1, 247639, Control_c, 0, 64, 66
1, 247645, Note_off_c, 0, 54, 47
1, 247655, Control_c, 0, 64, 69
1, 247670, Control_c, 0, 64, 73
1, 247684, Control_c, 0, 64, 76
1, 247689, Note_off_c, 0, 57, 36
1, 247699, Control_c, 0, 64, 78
1, 247714, Note_off_c, 0, 81, 59
1, 247714, Control_c, 0, 64, 80
1, 247729, Control_c, 0, 64, 80
1, 247736, Note_off_c, 0, 73, 28
1, 247758, Control_c, 0, 64, 81
1, 247773, Control_c, 0, 64, 81
1, 247788, Control_c, 0, 64, 82
1, 247811, Note_on_c, 0, 72, 55
1, 247820, Note_on_c, 0, 69, 43
1, 247880, Note_off_c, 0, 72, 46
1, 247914, Note_on_c, 0, 73, 55
1, 247941, Note_off_c, 0, 69, 38
1, 247990, Note_off_c, 0, 73, 60
1, 248000, Note_on_c, 0, 76, 62
1, 248014, Note_on_c, 0, 61, 43
1, 248062, Note_on_c, 0, 74, 62
1, 248062, Control_c, 0, 64, 81
1, 248073, Note_off_c, 0, 76, 64
1, 248091, Control_c, 0, 64, 81
1, 248121, Control_c, 0, 64, 80
1, 248124, Note_off_c, 0, 74, 66
1, 248125, Note_on_c, 0, 73, 63
1, 248136, Control_c, 0, 64, 80
1, 248153, Note_off_c, 0, 73, 66
1, 248166, Control_c, 0, 64, 78
1, 248181, Control_c, 0, 64, 74
1, 248196, Control_c, 0, 64, 64
1, 248210, Control_c, 0, 64, 0
1, 248211, Note_on_c, 0, 73, 67
1, 248212, Note_on_c, 0, 56, 31
1, 248220, Note_on_c, 0, 59, 38
1, 248284, Control_c, 0, 64, 10
1, 248299, Control_c, 0, 64, 57
1, 248313, Note_off_c, 0, 61, 20
1, 248314, Control_c, 0, 64, 64
1, 248329, Control_c, 0, 64, 67
1, 248344, Control_c, 0, 64, 69
1, 248358, Control_c, 0, 64, 72
1, 248373, Control_c, 0, 64, 74
1, 248388, Control_c, 0, 64, 75
1, 248395, Note_off_c, 0, 59, 38
1, 248402, Control_c, 0, 64, 76
1, 248413, Note_on_c, 0, 81, 66
1, 248416, Note_on_c, 0, 65, 38
1, 248417, Control_c, 0, 64, 77
1, 248432, Control_c, 0, 64, 77
1, 248448, Control_c, 0, 64, 78
1, 248586, Note_off_c, 0, 81, 51
1, 248588, Note_off_c, 0, 65, 41
1, 248595, Note_off_c, 0, 56, 35
1, 248600, Note_on_c, 0, 61, 40
1, 248604, Note_on_c, 0, 80, 71
1, 248625, Control_c, 0, 64, 77
1, 248811, Control_c, 0, 64, 75
1, 248816, Note_on_c, 0, 57, 42
1, 248825, Control_c, 0, 64, 69
1, 248831, Note_on_c, 0, 78, 72
1, 248837, Note_off_c, 0, 80, 59
1, 248840, Control_c, 0, 64, 52
1, 248846, Note_off_c, 0, 61, 32
1, 248855, Control_c, 0, 64, 0
1, 248899, Control_c, 0, 64, 53
1, 248914, Control_c, 0, 64, 62
1, 248929, Control_c, 0, 64, 65
1, 248944, Control_c, 0, 64, 68
1, 248950, Note_off_c, 0, 73, 38
1, 248956, Note_off_c, 0, 57, 46
1, 248959, Control_c, 0, 64, 72
1, 248974, Control_c, 0, 64, 75
1, 248989, Note_off_c, 0, 78, 61
1, 248989, Control_c, 0, 64, 77
1, 249004, Control_c, 0, 64, 79
1, 249018, Control_c, 0, 64, 79
1, 249024, Note_on_c, 0, 66, 48
1, 249033, Control_c, 0, 64, 80
1, 249048, Control_c, 0, 64, 80
1, 249054, Note_on_c, 0, 72, 56
1, 249063, Control_c, 0, 64, 81
1, 249078, Control_c, 0, 64, 81
1, 249116, Note_off_c, 0, 72, 55
1, 249123, Note_on_c, 0, 73, 68
1, 249151, Note_off_c, 0, 66, 43
1, 249171, Note_on_c, 0, 61, 49
1, 249194, Note_off_c, 0, 73, 63
1, 249200, Note_on_c, 0, 76, 68
1, 249211, Note_off_c, 0, 61, 63
1, 249275, Note_on_c, 0, 74, 71
1, 249292, Note_off_c, 0, 76, 61
1, 249359, Note_off_c, 0, 74, 66
1, 249365, Note_on_c, 0, 73, 73
1, 249390, Control_c, 0, 64, 81
1, 249402, Note_off_c, 0, 73, 64
1, 249404, Control_c, 0, 64, 80
1, 249427, Control_c, 0, 64, 78
1, 249442, Control_c, 0, 64, 71
1, 249456, Control_c, 0, 64, 56
1, 249471, Control_c, 0, 64, 0
1, 249473, Note_on_c, 0, 45, 42
1, 249477, Note_on_c, 0, 73, 71
1, 249531, Control_c, 0, 64, 16
1, 249546, Control_c, 0, 64, 58
1, 249561, Control_c, 0, 64, 64
1, 249562, Note_off_c, 0, 45, 61
1, 249576, Control_c, 0, 64, 68
1, 249591, Control_c, 0, 64, 72
1, 249605, Control_c, 0, 64, 76
1, 249620, Control_c, 0, 64, 78
1, 249635, Control_c, 0, 64, 80
1, 249649, Control_c, 0, 64, 81
1, 249664, Control_c, 0, 64, 82
1, 249679, Control_c, 0, 64, 84
1, 249694, Control_c, 0, 64, 86
1, 249702, Note_on_c, 0, 61, 52
1, 249709, Control_c, 0, 64, 88
1, 249710, Note_on_c, 0, 80, 80
1, 249723, Control_c, 0, 64, 89
1, 249738, Control_c, 0, 64, 90
1, 249753, Control_c, 0, 64, 91
1, 249768, Control_c, 0, 64, 93
1, 249783, Control_c, 0, 64, 95
1, 249797, Control_c, 0, 64, 97
1, 249812, Control_c, 0, 64, 98
1, 249827, Control_c, 0, 64, 99
1, 249842, Control_c, 0, 64, 100
1, 249854, Note_off_c, 0, 61, 43
1, 249856, Control_c, 0, 64, 101
1, 249871, Control_c, 0, 64, 102
1, 249886, Control_c, 0, 64, 103
1, 249901, Control_c, 0, 64, 104
1, 249916, Control_c, 0, 64, 104
1, 249924, Note_on_c, 0, 54, 57
1, 249929, Note_on_c, 0, 81, 85
1, 249931, Control_c, 0, 64, 105
1, 249945, Control_c, 0, 64, 106
1, 249960, Control_c, 0, 64, 107
1, 249965, Note_off_c, 0, 54, 62
1, 249975, Control_c, 0, 64, 107
1, 249990, Note_off_c, 0, 80, 28
1, 250206, Control_c, 0, 64, 104
1, 250220, Control_c, 0, 64, 94
1, 250231, Note_on_c, 0, 51, 70
1, 250232, Note_on_c, 0, 44, 59
1, 250235, Control_c, 0, 64, 79
1, 250250, Control_c, 0, 64, 54
1, 250261, Note_on_c, 0, 80, 78
1, 250265, Control_c, 0, 64, 0
1, 250289, Note_off_c, 0, 81, 53
1, 250302, Note_off_c, 0, 73, 31
1, 250309, Control_c, 0, 64, 49
1, 250321, Note_off_c, 0, 44, 61
1, 250324, Control_c, 0, 64, 64
1, 250339, Control_c, 0, 64, 68
1, 250354, Control_c, 0, 64, 73
1, 250369, Control_c, 0, 64, 78
1, 250378, Note_off_c, 0, 80, 62
1, 250384, Control_c, 0, 64, 82
1, 250398, Control_c, 0, 64, 83
1, 250406, Note_off_c, 0, 51, 61
1, 250413, Control_c, 0, 64, 84
1, 250428, Control_c, 0, 64, 85
1, 250443, Control_c, 0, 64, 87
1, 250458, Control_c, 0, 64, 88
1, 250472, Control_c, 0, 64, 90
1, 250474, Note_on_c, 0, 60, 59
1, 250487, Control_c, 0, 64, 90
1, 250491, Note_on_c, 0, 67, 57
1, 250517, Control_c, 0, 64, 91
1, 250536, Note_off_c, 0, 67, 60
1, 250540, Note_on_c, 0, 68, 65
1, 250546, Control_c, 0, 64, 91
1, 250589, Note_off_c, 0, 60, 54
1, 250595, Note_on_c, 0, 56, 54
1, 250602, Note_off_c, 0, 68, 64
1, 250603, Note_on_c, 0, 71, 63
1, 250660, Note_on_c, 0, 69, 62
1, 250667, Note_off_c, 0, 71, 58
1, 250713, Note_off_c, 0, 69, 65
1, 250725, Note_on_c, 0, 68, 62
1, 250731, Note_off_c, 0, 56, 46
1, 250753, Note_off_c, 0, 68, 67
1, 250783, Control_c, 0, 64, 91
1, 250793, Note_on_c, 0, 52, 77
1, 250798, Control_c, 0, 64, 86
1, 250813, Control_c, 0, 64, 76
1, 250821, Note_on_c, 0, 68, 70
1, 250828, Control_c, 0, 64, 55
1, 250843, Control_c, 0, 64, 0
1, 250888, Control_c, 0, 64, 56
1, 250902, Control_c, 0, 64, 65
1, 250925, Control_c, 0, 64, 71
1, 250940, Control_c, 0, 64, 77
1, 250955, Control_c, 0, 64, 84
1, 250970, Control_c, 0, 64, 87
1, 250984, Control_c, 0, 64, 88
1, 250999, Control_c, 0, 64, 89
1, 251004, Note_on_c, 0, 78, 74
1, 251013, Control_c, 0, 64, 91
1, 251023, Note_on_c, 0, 61, 61
1, 251028, Control_c, 0, 64, 93
1, 251042, Control_c, 0, 64, 95
1, 251057, Control_c, 0, 64, 97
1, 251072, Control_c, 0, 64, 98
1, 251087, Control_c, 0, 64, 99
1, 251102, Control_c, 0, 64, 101
1, 251117, Control_c, 0, 64, 102
1, 251126, Note_off_c, 0, 52, 50
1, 251132, Control_c, 0, 64, 103
1, 251135, Note_off_c, 0, 61, 59
1, 251147, Control_c, 0, 64, 105
1, 251162, Control_c, 0, 64, 106
1, 251171, Note_on_c, 0, 56, 71
1, 251176, Control_c, 0, 64, 107
1, 251182, Note_on_c, 0, 76, 71
1, 251191, Control_c, 0, 64, 108
1, 251201, Note_off_c, 0, 56, 66
1, 251206, Control_c, 0, 64, 109
1, 251210, Note_off_c, 0, 78, 27
1, 251235, Control_c, 0, 64, 109
1, 251383, Control_c, 0, 64, 108
1, 251398, Control_c, 0, 64, 100
1, 251413, Control_c, 0, 64, 85
1, 251421, Note_on_c, 0, 44, 69
1, 251423, Note_on_c, 0, 54, 84
1, 251428, Control_c, 0, 64, 67
1, 251443, Control_c, 0, 64, 0
1, 251460, Note_on_c, 0, 75, 66
1, 251486, Note_off_c, 0, 76, 37
1, 251488, Control_c, 0, 64, 47
1, 251502, Control_c, 0, 64, 65
1, 251517, Control_c, 0, 64, 72
1, 251532, Control_c, 0, 64, 79
1, 251533, Note_off_c, 0, 44, 64
1, 251547, Control_c, 0, 64, 86
1, 251562, Control_c, 0, 64, 89
1, 251565, Note_off_c, 0, 68, 42
1, 251571, Note_off_c, 0, 75, 62
1, 251576, Control_c, 0, 64, 90
1, 251591, Control_c, 0, 64, 91
1, 251606, Control_c, 0, 64, 92
1, 251617, Note_off_c, 0, 54, 59
1, 251621, Control_c, 0, 64, 94
1, 251636, Control_c, 0, 64, 95
1, 251651, Control_c, 0, 64, 96
1, 251674, Control_c, 0, 64, 97
1, 251678, Note_on_c, 0, 67, 43
1, 251688, Note_on_c, 0, 60, 59
1, 251689, Control_c, 0, 64, 97
1, 251704, Control_c, 0, 64, 98
1, 251716, Note_off_c, 0, 67, 52
1, 251719, Control_c, 0, 64, 98
1, 251727, Note_on_c, 0, 68, 58
1, 251748, Control_c, 0, 64, 99
1, 251786, Note_off_c, 0, 68, 62
1, 251791, Note_off_c, 0, 60, 53
1, 251794, Note_on_c, 0, 71, 63
1, 251800, Note_on_c, 0, 56, 59
1, 251853, Note_on_c, 0, 69, 66
1, 251871, Note_off_c, 0, 71, 59
1, 251913, Note_off_c, 0, 69, 66
1, 251918, Note_on_c, 0, 68, 65
1, 251959, Note_off_c, 0, 68, 64
1, 251967, Note_off_c, 0, 56, 35
1, 251985, Control_c, 0, 64, 96
1, 251999, Control_c, 0, 64, 88
1, 252003, Note_on_c, 0, 52, 79
1, 252014, Control_c, 0, 64, 75
1, 252029, Control_c, 0, 64, 0
1, 252033, Note_on_c, 0, 68, 62
1, 252089, Control_c, 0, 64, 21
1, 252104, Control_c, 0, 64, 59
1, 252118, Control_c, 0, 64, 66
1, 252133, Control_c, 0, 64, 70
1, 252148, Control_c, 0, 64, 77
1, 252163, Control_c, 0, 64, 83
1, 252178, Control_c, 0, 64, 87
1, 252192, Control_c, 0, 64, 88
1, 252207, Control_c, 0, 64, 90
1, 252208, Note_on_c, 0, 75, 67
1, 252213, Note_on_c, 0, 61, 60
1, 252222, Control_c, 0, 64, 91
1, 252237, Control_c, 0, 64, 92
1, 252251, Control_c, 0, 64, 94
1, 252266, Control_c, 0, 64, 95
1, 252281, Control_c, 0, 64, 95
1, 252296, Control_c, 0, 64, 96
1, 252298, Note_off_c, 0, 52, 36
1, 252325, Control_c, 0, 64, 96
1, 252364, Note_off_c, 0, 61, 54
1, 252401, Note_on_c, 0, 56, 65
1, 252407, Note_on_c, 0, 73, 71
1, 252435, Note_off_c, 0, 75, 36
1, 252440, Note_off_c, 0, 56, 64
1, 252660, Control_c, 0, 64, 96
1, 252664, Note_off_c, 0, 73, 61
1, 252674, Control_c, 0, 64, 93
1, 252689, Control_c, 0, 64, 84
1, 252704, Note_on_c, 0, 51, 66
1, 252704, Control_c, 0, 64, 68
1, 252705, Note_on_c, 0, 44, 59
1, 252716, Note_on_c, 0, 72, 66
1, 252719, Control_c, 0, 64, 0
1, 252792, Control_c, 0, 64, 59
1, 252804, Note_off_c, 0, 44, 63
1, 252807, Control_c, 0, 64, 66
1, 252811, Note_off_c, 0, 68, 43
1, 252822, Control_c, 0, 64, 72
1, 252837, Control_c, 0, 64, 79
1, 252852, Control_c, 0, 64, 85
1, 252867, Control_c, 0, 64, 87
1, 252871, Note_off_c, 0, 51, 61
1, 252878, Note_off_c, 0, 72, 61
1, 252882, Control_c, 0, 64, 88
1, 252897, Control_c, 0, 64, 89
1, 252911, Control_c, 0, 64, 90
1, 252926, Control_c, 0, 64, 90
1, 252941, Control_c, 0, 64, 91
1, 252950, Note_on_c, 0, 67, 60
1, 252955, Note_on_c, 0, 60, 54
1, 253000, Control_c, 0, 64, 91
1, 253005, Note_off_c, 0, 67, 57
1, 253009, Note_on_c, 0, 68, 62
1, 253052, Note_off_c, 0, 60, 51
1, 253067, Note_on_c, 0, 56, 52
1, 253081, Note_on_c, 0, 71, 65
1, 253081, Note_off_c, 0, 68, 63
1, 253144, Note_on_c, 0, 69, 69
1, 253148, Control_c, 0, 64, 91
1, 253177, Note_off_c, 0, 71, 58
1, 253224, Note_off_c, 0, 69, 66
1, 253234, Note_off_c, 0, 56, 32
1, 253236, Note_on_c, 0, 68, 69
1, 253271, Note_off_c, 0, 68, 61
1, 253290, Control_c, 0, 64, 89
1, 253304, Control_c, 0, 64, 85
1, 253319, Note_on_c, 0, 52, 64
1, 253319, Control_c, 0, 64, 74
1, 253333, Note_on_c, 0, 68, 66
1, 253334, Control_c, 0, 64, 53
1, 253349, Control_c, 0, 64, 0
1, 253408, Control_c, 0, 64, 50
1, 253422, Control_c, 0, 64, 64
1, 253437, Control_c, 0, 64, 68
1, 253452, Control_c, 0, 64, 74
1, 253467, Control_c, 0, 64, 81
1, 253482, Control_c, 0, 64, 85
1, 253496, Control_c, 0, 64, 87
1, 253511, Control_c, 0, 64, 88
1, 253526, Control_c, 0, 64, 89
1, 253529, Note_on_c, 0, 78, 78
1, 253535, Note_on_c, 0, 61, 49
1, 253541, Control_c, 0, 64, 91
1, 253556, Control_c, 0, 64, 93
1, 253570, Control_c, 0, 64, 95
1, 253573, Note_off_c, 0, 52, 36
1, 253585, Control_c, 0, 64, 96
1, 253600, Control_c, 0, 64, 98
1, 253615, Control_c, 0, 64, 98
1, 253630, Control_c, 0, 64, 99
1, 253645, Control_c, 0, 64, 99
1, 253656, Note_off_c, 0, 61, 59
1, 253660, Control_c, 0, 64, 100
1, 253673, Note_off_c, 0, 78, 59
1, 253703, Note_off_c, 0, 68, 60
1, 253748, Note_on_c, 0, 56, 54
1, 253752, Note_on_c, 0, 76, 75
1, 253788, Note_off_c, 0, 56, 62
1, 254008, Control_c, 0, 64, 99
1, 254016, Note_off_c, 0, 76, 32
1, 254022, Control_c, 0, 64, 98
1, 254037, Control_c, 0, 64, 93
1, 254047, Note_on_c, 0, 47, 59
1, 254053, Control_c, 0, 64, 85
1, 254068, Control_c, 0, 64, 72
1, 254083, Control_c, 0, 64, 0
1, 254087, Note_on_c, 0, 69, 68
1, 254100, Note_on_c, 0, 75, 68
1, 254201, Control_c, 0, 64, 31
1, 254216, Control_c, 0, 64, 66
1, 254231, Control_c, 0, 64, 74
1, 254241, Note_off_c, 0, 75, 61
1, 254245, Control_c, 0, 64, 82
1, 254260, Control_c, 0, 64, 86
1, 254275, Control_c, 0, 64, 90
1, 254290, Control_c, 0, 64, 94
1, 254305, Control_c, 0, 64, 99
1, 254319, Control_c, 0, 64, 105
1, 254334, Control_c, 0, 64, 110
1, 254349, Control_c, 0, 64, 114
1, 254364, Control_c, 0, 64, 117
1, 254379, Note_on_c, 0, 54, 44
1, 254379, Control_c, 0, 64, 120
1, 254384, Note_on_c, 0, 70, 64
1, 254393, Note_off_c, 0, 69, 58
1, 254393, Control_c, 0, 64, 122
1, 254408, Control_c, 0, 64, 127
1, 254506, Note_off_c, 0, 70, 60
1, 254516, Note_on_c, 0, 71, 57
1, 254674, Note_on_c, 0, 57, 42
1, 254676, Note_on_c, 0, 75, 63
1, 254682, Note_off_c, 0, 71, 55
1, 254798, Note_on_c, 0, 73, 65
1, 254841, Note_off_c, 0, 75, 62
1, 254924, Note_on_c, 0, 71, 65
1, 254929, Note_off_c, 0, 73, 57
1, 255013, Note_off_c, 0, 71, 54
1, 255098, Control_c, 0, 64, 119
1, 255113, Control_c, 0, 64, 104
1, 255120, Note_on_c, 0, 71, 58
1, 255125, Note_on_c, 0, 63, 53
1, 255128, Control_c, 0, 64, 89
1, 255142, Control_c, 0, 64, 72
1, 255157, Control_c, 0, 64, 0
1, 255246, Control_c, 0, 64, 44
1, 255260, Control_c, 0, 64, 62
1, 255275, Control_c, 0, 64, 68
1, 255290, Control_c, 0, 64, 74
1, 255305, Control_c, 0, 64, 80
1, 255320, Control_c, 0, 64, 84
1, 255333, Note_off_c, 0, 63, 54
1, 255335, Control_c, 0, 64, 86
1, 255350, Control_c, 0, 64, 88
1, 255365, Control_c, 0, 64, 90
1, 255380, Control_c, 0, 64, 92
1, 255394, Control_c, 0, 64, 93
1, 255416, Control_c, 0, 64, 95
1, 255431, Control_c, 0, 64, 95
1, 255446, Control_c, 0, 64, 96
1, 255461, Control_c, 0, 64, 96
1, 255475, Control_c, 0, 64, 97
1, 255488, Note_on_c, 0, 76, 54
1, 255585, Note_off_c, 0, 76, 62
1, 255594, Control_c, 0, 67, 10
1, 255609, Control_c, 0, 67, 15
1, 255624, Control_c, 0, 67, 26
1, 255640, Control_c, 0, 67, 42
1, 255655, Control_c, 0, 67, 62
1, 255670, Control_c, 0, 67, 82
1, 255684, Control_c, 0, 67, 101
1, 255699, Control_c, 0, 67, 119
1, 255714, Control_c, 0, 67, 127
1, 255915, Note_off_c, 0, 47, 41
1, 255937, Note_on_c, 0, 78, 61
1, 255958, Note_off_c, 0, 57, 36
1, 255964, Note_off_c, 0, 54, 40
1, 255976, Note_off_c, 0, 71, 36
1, 256038, Note_off_c, 0, 78, 61
1, 256240, Control_c, 0, 64, 96
1, 256255, Control_c, 0, 64, 96
1, 256270, Control_c, 0, 64, 95
1, 256285, Control_c, 0, 64, 95
1, 256299, Control_c, 0, 64, 94
1, 256314, Control_c, 0, 64, 93
1, 256329, Control_c, 0, 64, 92
1, 256343, Control_c, 0, 64, 91
1, 256358, Control_c, 0, 64, 90
1, 256373, Control_c, 0, 64, 88
1, 256388, Control_c, 0, 64, 83
1, 256403, Control_c, 0, 64, 73
1, 256417, Control_c, 0, 64, 0
1, 256429, Note_on_c, 0, 52, 37
1, 256438, Note_on_c, 0, 68, 45
1, 256508, Control_c, 0, 64, 54
1, 256522, Control_c, 0, 64, 66
1, 256527, Note_off_c, 0, 68, 63
1, 256537, Control_c, 0, 64, 71
1, 256552, Control_c, 0, 64, 77
1, 256567, Control_c, 0, 64, 81
1, 256575, Note_on_c, 0, 71, 51
1, 256581, Control_c, 0, 64, 83
1, 256596, Control_c, 0, 64, 83
1, 256611, Control_c, 0, 64, 85
1, 256621, Note_off_c, 0, 71, 54
1, 256626, Control_c, 0, 64, 86
1, 256641, Control_c, 0, 64, 86
1, 256656, Control_c, 0, 64, 87
1, 256658, Note_on_c, 0, 59, 38
1, 256669, Note_off_c, 0, 52, 35
1, 256675, Note_on_c, 0, 64, 22
1, 256678, Note_on_c, 0, 76, 48
1, 256702, Note_off_c, 0, 76, 60
1, 256724, Note_off_c, 0, 64, 46
1, 256733, Note_on_c, 0, 80, 57
1, 256799, Note_on_c, 0, 78, 65
1, 256801, Note_off_c, 0, 80, 63
1, 256807, Note_on_c, 0, 56, 32
1, 256831, Note_off_c, 0, 59, 35
1, 256840, Note_off_c, 0, 78, 62
1, 256855, Note_off_c, 0, 56, 45
1, 256882, Note_on_c, 0, 76, 58
1, 256915, Control_c, 0, 64, 86
1, 256930, Control_c, 0, 64, 79
1, 256945, Control_c, 0, 64, 67
1, 256947, Note_off_c, 0, 76, 60
1, 256960, Control_c, 0, 64, 0
1, 256965, Note_on_c, 0, 51, 57
1, 256965, Note_on_c, 0, 80, 68
1, 257003, Control_c, 0, 64, 48
1, 257004, Note_off_c, 0, 80, 65
1, 257010, Note_off_c, 0, 51, 58
1, 257018, Control_c, 0, 64, 64
1, 257033, Control_c, 0, 64, 69
1, 257047, Control_c, 0, 64, 75
1, 257062, Note_on_c, 0, 83, 68
1, 257062, Control_c, 0, 64, 82
1, 257077, Control_c, 0, 64, 86
1, 257092, Control_c, 0, 64, 87
1, 257121, Control_c, 0, 64, 87
1, 257128, Note_off_c, 0, 83, 59
1, 257129, Note_on_c, 0, 88, 72
1, 257133, Note_on_c, 0, 64, 42
1, 257151, Control_c, 0, 64, 88
1, 257175, Note_off_c, 0, 64, 48
1, 257183, Poly_aftertouch_c, 0, 59, 127
1, 257185, Note_off_c, 0, 88, 61
1, 257206, Note_on_c, 0, 92, 75
1, 257247, Note_on_c, 0, 56, 48
1, 257261, Poly_aftertouch_c, 0, 59, 0
1, 257276, Note_on_c, 0, 90, 70
1, 257304, Note_off_c, 0, 56, 52
1, 257308, Note_off_c, 0, 92, 60
1, 257341, Note_on_c, 0, 88, 69
1, 257352, Note_off_c, 0, 90, 63
1, 257374, Control_c, 0, 64, 84
1, 257376, Note_off_c, 0, 88, 60
1, 257389, Control_c, 0, 64, 73
1, 257404, Control_c, 0, 64, 0
1, 257415, Note_on_c, 0, 83, 59
1, 257416, Note_on_c, 0, 49, 49
1, 257448, Control_c, 0, 64, 53
1, 257453, Note_off_c, 0, 49, 63
1, 257463, Control_c, 0, 64, 65
1, 257476, Note_off_c, 0, 83, 61
1, 257478, Control_c, 0, 64, 72
1, 257493, Control_c, 0, 64, 80
1, 257497, Note_on_c, 0, 80, 68
1, 257508, Control_c, 0, 64, 86
1, 257523, Control_c, 0, 64, 89
1, 257537, Control_c, 0, 64, 89
1, 257552, Control_c, 0, 64, 90
1, 257560, Note_on_c, 0, 78, 68
1, 257567, Control_c, 0, 64, 90
1, 257594, Note_off_c, 0, 80, 59
1, 257594, Note_on_c, 0, 64, 31
1, 257623, Note_on_c, 0, 76, 67
1, 257630, Note_off_c, 0, 78, 62
1, 257643, Note_off_c, 0, 64, 47
1, 257655, Note_off_c, 0, 76, 64
1, 257669, Note_on_c, 0, 56, 57
1, 257699, Note_on_c, 0, 71, 62
1, 257704, Note_off_c, 0, 56, 62
1, 257757, Note_off_c, 0, 71, 55
1, 257779, Note_on_c, 0, 68, 62
1, 257811, Control_c, 0, 64, 89
1, 257826, Control_c, 0, 64, 82
1, 257841, Note_on_c, 0, 66, 63
1, 257841, Control_c, 0, 64, 67
1, 257843, Note_on_c, 0, 47, 64
1, 257856, Control_c, 0, 64, 0
1, 257892, Note_off_c, 0, 68, 61
1, 257900, Control_c, 0, 64, 36
1, 257904, Note_on_c, 0, 64, 66
1, 257915, Control_c, 0, 64, 64
1, 257917, Note_off_c, 0, 66, 65
1, 257930, Control_c, 0, 64, 71
1, 257944, Control_c, 0, 64, 78
1, 257959, Control_c, 0, 64, 85
1, 257966, Note_off_c, 0, 64, 64
1, 257974, Control_c, 0, 64, 86
1, 257976, Note_on_c, 0, 59, 66
1, 258028, Note_off_c, 0, 59, 57
1, 258046, Note_on_c, 0, 68, 65
1, 258049, Control_c, 0, 64, 87
1, 258066, Note_off_c, 0, 47, 36
1, 258107, Note_on_c, 0, 66, 66
1, 258116, Note_off_c, 0, 68, 63
1, 258135, Note_off_c, 0, 66, 68
1, 258167, Control_c, 0, 64, 86
1, 258170, Note_on_c, 0, 64, 69
1, 258197, Control_c, 0, 64, 83
1, 258212, Control_c, 0, 64, 73
1, 258226, Note_off_c, 0, 64, 54
1, 258226, Control_c, 0, 64, 16
1, 258241, Control_c, 0, 64, 0
1, 258249, Note_on_c, 0, 45, 58
1, 258252, Note_on_c, 0, 61, 67
1, 258271, Control_c, 0, 64, 48
1, 258277, Note_off_c, 0, 45, 66
1, 258280, Note_off_c, 0, 61, 65
1, 258286, Control_c, 0, 64, 65
1, 258301, Control_c, 0, 64, 72
1, 258309, Note_on_c, 0, 64, 67
1, 258316, Control_c, 0, 64, 81
1, 258331, Control_c, 0, 64, 89
1, 258331, Control_c, 0, 67, 96
1, 258346, Note_off_c, 0, 64, 62
1, 258346, Control_c, 0, 64, 92
1, 258346, Control_c, 0, 67, 42
1, 258360, Control_c, 0, 64, 93
1, 258360, Control_c, 0, 67, 0
1, 258385, Note_on_c, 0, 66, 68
1, 258390, Control_c, 0, 64, 93
1, 258418, Note_off_c, 0, 66, 68
1, 258425, Note_on_c, 0, 64, 46
1, 258430, Note_on_c, 0, 61, 49
1, 258463, Note_off_c, 0, 64, 58
1, 258467, Note_on_c, 0, 69, 73
1, 258492, Note_off_c, 0, 61, 53
1, 258507, Note_on_c, 0, 54, 60
1, 258522, Note_off_c, 0, 69, 64
1, 258535, Note_off_c, 0, 54, 62
1, 258536, Note_on_c, 0, 73, 71
1, 258605, Control_c, 0, 64, 92
1, 258616, Note_on_c, 0, 76, 70
1, 258619, Control_c, 0, 64, 84
1, 258634, Control_c, 0, 64, 64
1, 258645, Note_off_c, 0, 73, 62
1, 258649, Control_c, 0, 64, 0
1, 258668, Note_on_c, 0, 42, 62
1, 258678, Note_on_c, 0, 78, 76
1, 258687, Note_off_c, 0, 76, 67
1, 258693, Control_c, 0, 64, 57
1, 258697, Note_off_c, 0, 42, 66
1, 258708, Control_c, 0, 64, 69
1, 258712, Note_off_c, 0, 78, 66
1, 258723, Control_c, 0, 64, 79
1, 258737, Control_c, 0, 64, 88
1, 258748, Note_on_c, 0, 81, 85
1, 258752, Control_c, 0, 64, 92
1, 258757, Poly_aftertouch_c, 0, 44, 0
1, 258767, Control_c, 0, 64, 92
1, 258782, Control_c, 0, 64, 93
1, 258797, Control_c, 0, 64, 93
1, 258808, Note_off_c, 0, 81, 55
1, 258811, Control_c, 0, 64, 94
1, 258815, Note_on_c, 0, 85, 77
1, 258826, Note_on_c, 0, 64, 49
1, 258826, Control_c, 0, 64, 95
1, 258827, Note_on_c, 0, 61, 49
1, 258857, Control_c, 0, 64, 95
1, 258870, Note_off_c, 0, 64, 54
1, 258885, Note_on_c, 0, 88, 80
1, 258890, Note_off_c, 0, 85, 65
1, 258891, Note_off_c, 0, 61, 36
1, 258913, Note_on_c, 0, 54, 60
1, 258946, Note_on_c, 0, 90, 75
1, 258948, Note_off_c, 0, 54, 62
1, 258979, Note_off_c, 0, 88, 64
1, 259016, Note_on_c, 0, 93, 87
1, 259017, Note_off_c, 0, 90, 64
1, 259020, Control_c, 0, 64, 95
1, 259034, Control_c, 0, 64, 87
1, 259049, Note_on_c, 0, 47, 69
1, 259049, Control_c, 0, 64, 72
1, 259064, Control_c, 0, 64, 0
1, 259082, Note_off_c, 0, 47, 66
1, 259094, Note_on_c, 0, 92, 82
1, 259109, Control_c, 0, 64, 54
1, 259124, Control_c, 0, 64, 65
1, 259129, Note_off_c, 0, 93, 60
1, 259139, Control_c, 0, 64, 72
1, 259160, Control_c, 0, 64, 81
1, 259175, Control_c, 0, 64, 88
1, 259176, Note_on_c, 0, 90, 78
1, 259190, Control_c, 0, 64, 90
1, 259205, Control_c, 0, 64, 91
1, 259212, Note_off_c, 0, 92, 63
1, 259227, Note_on_c, 0, 59, 61
1, 259228, Note_on_c, 0, 87, 74
1, 259231, Note_on_c, 0, 63, 61
1, 259253, Note_off_c, 0, 90, 63
1, 259282, Note_off_c, 0, 87, 63
1, 259300, Note_on_c, 0, 81, 73
1, 259344, Note_on_c, 0, 54, 85
1, 259367, Note_off_c, 0, 81, 59
1, 259395, Note_on_c, 0, 80, 72
1, 259455, Note_on_c, 0, 78, 72
1, 259487, Note_on_c, 0, 56, 84
1, 259487, Control_c, 0, 64, 88
1, 259490, Note_off_c, 0, 59, 0
1, 259490, Note_on_c, 0, 59, 8
1, 259490, Note_off_c, 0, 80, 62
1, 259491, Note_off_c, 0, 54, 55
1, 259502, Control_c, 0, 64, 79
1, 259516, Note_on_c, 0, 75, 74
1, 259517, Control_c, 0, 64, 60
1, 259529, Note_off_c, 0, 78, 63
1, 259532, Control_c, 0, 64, 0
1, 259555, Note_off_c, 0, 59, 41
1, 259561, Control_c, 0, 64, 37
1, 259574, Note_off_c, 0, 75, 64
1, 259576, Control_c, 0, 64, 65
1, 259591, Control_c, 0, 64, 73
1, 259595, Note_on_c, 0, 71, 62
1, 259606, Control_c, 0, 64, 82
1, 259621, Control_c, 0, 64, 89
1, 259631, Note_off_c, 0, 63, 0
1, 259631, Note_on_c, 0, 63, 24
1, 259635, Note_off_c, 0, 56, 59
1, 259636, Note_on_c, 0, 54, 73
1, 259636, Control_c, 0, 64, 91
1, 259651, Control_c, 0, 64, 92
1, 259660, Note_on_c, 0, 75, 66
1, 259660, Note_off_c, 0, 71, 56
1, 259666, Control_c, 0, 64, 92
1, 259678, Note_off_c, 0, 63, 62
1, 259696, Control_c, 0, 64, 93
1, 259723, Note_on_c, 0, 73, 58
1, 259748, Note_off_c, 0, 75, 59
1, 259766, Note_on_c, 0, 56, 74
1, 259777, Note_on_c, 0, 71, 69
1, 259788, Note_off_c, 0, 54, 59
1, 259791, Note_off_c, 0, 73, 63
1, 259810, Note_off_c, 0, 71, 57
1, 259836, Note_off_c, 0, 56, 62
1, 259844, Note_on_c, 0, 69, 62
1, 259873, Control_c, 0, 64, 91
1, 259888, Control_c, 0, 64, 83
1, 259911, Control_c, 0, 64, 68
1, 259911, Note_off_c, 0, 69, 61
1, 259917, Note_on_c, 0, 68, 74
1, 259919, Note_on_c, 0, 52, 77
1, 259926, Control_c, 0, 64, 0
1, 259952, Note_off_c, 0, 68, 63
1, 259970, Control_c, 0, 64, 57
1, 259984, Control_c, 0, 64, 66
1, 259999, Note_on_c, 0, 71, 71
1, 259999, Control_c, 0, 64, 72
1, 260014, Control_c, 0, 64, 80
1, 260029, Control_c, 0, 64, 85
1, 260044, Control_c, 0, 64, 87
1, 260061, Note_on_c, 0, 64, 54
1, 260063, Note_on_c, 0, 59, 48
1, 260063, Note_off_c, 0, 71, 58
1, 260070, Note_on_c, 0, 76, 63
1, 260104, Note_off_c, 0, 52, 51
1, 260106, Note_off_c, 0, 76, 61
1, 260118, Control_c, 0, 64, 87
1, 260121, Note_on_c, 0, 80, 67
1, 260125, Note_off_c, 0, 64, 52
1, 260161, Note_on_c, 0, 56, 54
1, 260179, Note_on_c, 0, 78, 69
1, 260190, Note_off_c, 0, 80, 64
1, 260203, Note_off_c, 0, 59, 33
1, 260207, Note_off_c, 0, 78, 65
1, 260222, Note_off_c, 0, 56, 56
1, 260236, Note_on_c, 0, 76, 71
1, 260251, Control_c, 0, 64, 86
1, 260265, Control_c, 0, 64, 77
1, 260280, Control_c, 0, 64, 56
1, 260292, Note_on_c, 0, 51, 75
1, 260294, Note_off_c, 0, 76, 67
1, 260295, Control_c, 0, 64, 0
1, 260305, Note_on_c, 0, 80, 78
1, 260325, Control_c, 0, 64, 56
1, 260328, Note_off_c, 0, 80, 69
1, 260340, Control_c, 0, 64, 68
1, 260355, Control_c, 0, 64, 75
1, 260370, Control_c, 0, 64, 85
1, 260384, Control_c, 0, 64, 93
1, 260386, Note_off_c, 0, 51, 52
1, 260391, Note_on_c, 0, 83, 72
1, 260399, Control_c, 0, 64, 98
1, 260414, Control_c, 0, 64, 100
1, 260429, Control_c, 0, 64, 102
1, 260435, Note_on_c, 0, 64, 58
1, 260437, Note_on_c, 0, 59, 46
1, 260444, Control_c, 0, 64, 103
1, 260450, Note_on_c, 0, 88, 73
1, 260450, Note_off_c, 0, 83, 61
1, 260459, Control_c, 0, 64, 104
1, 260474, Control_c, 0, 64, 105
1, 260477, Note_off_c, 0, 64, 58
1, 260508, Note_on_c, 0, 92, 77
1, 260508, Note_off_c, 0, 88, 63
1, 260554, Note_on_c, 0, 56, 52
1, 260578, Note_on_c, 0, 90, 66
1, 260608, Note_off_c, 0, 92, 63
1, 260624, Note_on_c, 0, 88, 71
1, 260634, Note_off_c, 0, 56, 60
1, 260637, Control_c, 0, 64, 104
1, 260638, Note_off_c, 0, 90, 63
1, 260642, Note_off_c, 0, 59, 17
1, 260658, Note_off_c, 0, 88, 64
1, 260659, Control_c, 0, 64, 94
1, 260674, Control_c, 0, 64, 75
1, 260689, Control_c, 0, 64, 0
1, 260692, Note_on_c, 0, 49, 70
1, 260697, Note_on_c, 0, 83, 61
1, 260733, Control_c, 0, 64, 65
1, 260738, Note_off_c, 0, 49, 62
1, 260746, Note_off_c, 0, 83, 59
1, 260748, Control_c, 0, 64, 74
1, 260763, Control_c, 0, 64, 86
1, 260769, Note_on_c, 0, 80, 71
1, 260778, Control_c, 0, 64, 98
1, 260793, Control_c, 0, 64, 102
1, 260807, Control_c, 0, 64, 103
1, 260835, Note_on_c, 0, 78, 70
1, 260837, Control_c, 0, 64, 103
1, 260845, Note_on_c, 0, 64, 48
1, 260862, Note_off_c, 0, 80, 60
1, 260886, Note_on_c, 0, 76, 67
1, 260890, Note_off_c, 0, 78, 63
1, 260900, Note_off_c, 0, 64, 57
1, 260912, Note_off_c, 0, 76, 69
1, 260935, Note_on_c, 0, 56, 61
1, 260954, Note_on_c, 0, 71, 64
1, 260963, Note_off_c, 0, 56, 65
1, 261005, Note_off_c, 0, 71, 55
1, 261036, Note_on_c, 0, 68, 63
1, 261059, Control_c, 0, 64, 98
1, 261074, Control_c, 0, 64, 82
1, 261077, Note_on_c, 0, 47, 73
1, 261088, Control_c, 0, 64, 46
1, 261096, Note_on_c, 0, 66, 62
1, 261103, Control_c, 0, 64, 0
1, 261133, Control_c, 0, 64, 41
1, 261137, Note_off_c, 0, 68, 58
1, 261148, Control_c, 0, 64, 66
1, 261153, Note_on_c, 0, 64, 62
1, 261163, Control_c, 0, 64, 75
1, 261166, Note_off_c, 0, 66, 65
1, 261178, Control_c, 0, 64, 84
1, 261192, Control_c, 0, 64, 89
1, 261207, Control_c, 0, 64, 89
1, 261207, Note_off_c, 0, 64, 62
1, 261216, Note_on_c, 0, 59, 68
1, 261258, Note_off_c, 0, 59, 58
1, 261283, Note_on_c, 0, 68, 57
1, 261336, Note_on_c, 0, 66, 62
1, 261344, Note_off_c, 0, 68, 61
1, 261352, Note_off_c, 0, 47, 34
1, 261368, Note_off_c, 0, 66, 67
1, 261391, Note_on_c, 0, 64, 68
1, 261423, Control_c, 0, 64, 89
1, 261437, Control_c, 0, 64, 81
1, 261447, Note_off_c, 0, 64, 56
1, 261452, Control_c, 0, 64, 64
1, 261467, Control_c, 0, 64, 0
1, 261471, Note_on_c, 0, 45, 68
1, 261482, Note_on_c, 0, 61, 75
1, 261496, Control_c, 0, 64, 18
1, 261503, Note_off_c, 0, 45, 65
1, 261505, Note_off_c, 0, 61, 66
1, 261511, Control_c, 0, 64, 63
1, 261526, Control_c, 0, 64, 71
1, 261532, Note_on_c, 0, 64, 63
1, 261541, Control_c, 0, 64, 80
1, 261555, Control_c, 0, 64, 88
1, 261570, Control_c, 0, 64, 91
1, 261574, Note_off_c, 0, 64, 61
1, 261585, Control_c, 0, 64, 93
1, 261600, Control_c, 0, 64, 94
1, 261610, Note_on_c, 0, 66, 73
1, 261615, Control_c, 0, 64, 94
1, 261629, Control_c, 0, 64, 95
1, 261635, Note_off_c, 0, 66, 68
1, 261636, Note_on_c, 0, 61, 56
1, 261637, Note_on_c, 0, 64, 54
1, 261644, Control_c, 0, 64, 95
1, 261678, Note_off_c, 0, 64, 62
1, 261688, Note_on_c, 0, 69, 76
1, 261720, Note_on_c, 0, 54, 63
1, 261723, Note_off_c, 0, 61, 56
1, 261744, Note_off_c, 0, 69, 63
1, 261747, Note_off_c, 0, 54, 63
1, 261752, Note_on_c, 0, 73, 72
1, 261807, Control_c, 0, 64, 94
1, 261822, Control_c, 0, 64, 85
1, 261830, Note_on_c, 0, 76, 73
1, 261836, Control_c, 0, 64, 67
1, 261851, Control_c, 0, 64, 0
1, 261864, Note_off_c, 0, 73, 62
1, 261869, Note_on_c, 0, 42, 74
1, 261881, Note_on_c, 0, 78, 73
1, 261881, Control_c, 0, 64, 61
1, 261893, Note_off_c, 0, 76, 68
1, 261896, Control_c, 0, 64, 71
1, 261903, Note_off_c, 0, 42, 64
1, 261911, Control_c, 0, 64, 83
1, 261913, Note_off_c, 0, 78, 65
1, 261926, Control_c, 0, 64, 95
1, 261941, Control_c, 0, 64, 102
1, 261949, Note_on_c, 0, 81, 84
1, 261955, Control_c, 0, 64, 104
1, 261970, Control_c, 0, 64, 106
1, 261985, Control_c, 0, 64, 108
1, 262000, Control_c, 0, 64, 111
1, 262015, Control_c, 0, 64, 114
1, 262016, Note_off_c, 0, 81, 54
1, 262018, Note_on_c, 0, 61, 65
1, 262021, Note_on_c, 0, 64, 61
1, 262026, Note_on_c, 0, 86, 75
1, 262030, Control_c, 0, 64, 114
1, 262055, Note_off_c, 0, 64, 63
1, 262065, Note_off_c, 0, 61, 47
1, 262087, Note_off_c, 0, 86, 62
1, 262093, Note_on_c, 0, 88, 68
1, 262094, Note_on_c, 0, 89, 63
1, 262125, Note_on_c, 0, 54, 55
1, 262141, Note_on_c, 0, 90, 78
1, 262165, Note_off_c, 0, 54, 63
1, 262166, Note_off_c, 0, 89, 61
1, 262167, Note_off_c, 0, 88, 62
1, 262210, Note_off_c, 0, 90, 65
1, 262213, Note_on_c, 0, 93, 81
1, 262216, Control_c, 0, 64, 110
1, 262231, Control_c, 0, 64, 94
1, 262247, Control_c, 0, 64, 73
1, 262258, Note_on_c, 0, 47, 75
1, 262261, Control_c, 0, 64, 0
1, 262282, Note_on_c, 0, 92, 80
1, 262291, Control_c, 0, 64, 52
1, 262292, Note_off_c, 0, 47, 68
1, 262306, Control_c, 0, 64, 67
1, 262319, Note_off_c, 0, 93, 60
1, 262321, Control_c, 0, 64, 76
1, 262335, Control_c, 0, 64, 86
1, 262350, Control_c, 0, 64, 93
1, 262355, Note_on_c, 0, 90, 73
1, 262365, Control_c, 0, 64, 95
1, 262390, Note_off_c, 0, 92, 62
1, 262394, Control_c, 0, 64, 95
1, 262400, Note_on_c, 0, 87, 74
1, 262423, Note_on_c, 0, 59, 57
1, 262424, Note_on_c, 0, 63, 61
1, 262427, Note_off_c, 0, 90, 64
1, 262454, Note_off_c, 0, 87, 64
1, 262470, Note_on_c, 0, 81, 74
1, 262532, Note_on_c, 0, 54, 77
1, 262534, Note_off_c, 0, 81, 59
1, 262564, Note_on_c, 0, 80, 70
1, 262623, Note_on_c, 0, 78, 72
1, 262647, Note_off_c, 0, 59, 0
1, 262647, Note_on_c, 0, 59, 11
1, 262650, Note_off_c, 0, 80, 62
1, 262656, Note_on_c, 0, 56, 84
1, 262661, Control_c, 0, 64, 90
1, 262671, Note_off_c, 0, 54, 59
1, 262676, Control_c, 0, 64, 75
1, 262681, Note_on_c, 0, 75, 68
1, 262691, Control_c, 0, 64, 0
1, 262692, Note_off_c, 0, 78, 63
1, 262735, Control_c, 0, 64, 62
1, 262741, Note_off_c, 0, 75, 63
1, 262748, Note_on_c, 0, 71, 67
1, 262750, Control_c, 0, 64, 70
1, 262765, Control_c, 0, 64, 80
1, 262766, Note_off_c, 0, 59, 0
1, 262766, Note_off_c, 0, 63, 55
1, 262779, Control_c, 0, 64, 91
1, 262794, Control_c, 0, 64, 96
1, 262802, Note_off_c, 0, 56, 54
1, 262809, Control_c, 0, 64, 97
1, 262819, Note_off_c, 0, 71, 57
1, 262820, Note_on_c, 0, 54, 78
1, 262823, Note_on_c, 0, 63, 43
1, 262823, Note_on_c, 0, 75, 60
1, 262840, Control_c, 0, 64, 98
1, 262861, Note_off_c, 0, 63, 65
1, 262874, Note_on_c, 0, 73, 61
1, 262885, Poly_aftertouch_c, 0, 59, 0
1, 262934, Note_off_c, 0, 75, 59
1, 262954, Note_on_c, 0, 71, 70
1, 262963, Note_on_c, 0, 56, 73
1, 262969, Note_off_c, 0, 73, 63
1, 262994, Note_off_c, 0, 54, 60
1, 263005, Note_off_c, 0, 71, 59
1, 263021, Note_on_c, 0, 69, 69
1, 263040, Note_off_c, 0, 56, 60
1, 263085, Note_off_c, 0, 69, 62
1, 263112, Note_on_c, 0, 68, 76
1, 263129, Control_c, 0, 64, 87
1, 263131, Note_on_c, 0, 52, 92
1, 263136, Note_off_c, 0, 68, 70
1, 263144, Control_c, 0, 64, 67
1, 263158, Control_c, 0, 64, 0
1, 263188, Control_c, 0, 64, 32
1, 263192, Note_on_c, 0, 71, 75
1, 263202, Control_c, 0, 64, 64
1, 263217, Control_c, 0, 64, 74
1, 263232, Control_c, 0, 64, 85
1, 263247, Control_c, 0, 64, 92
1, 263256, Note_on_c, 0, 59, 30
1, 263260, Note_off_c, 0, 71, 54
1, 263262, Control_c, 0, 64, 94
1, 263273, Note_on_c, 0, 64, 66
1, 263273, Note_on_c, 0, 76, 60
1, 263277, Control_c, 0, 64, 94
1, 263308, Note_off_c, 0, 76, 58
1, 263318, Note_on_c, 0, 80, 68
1, 263324, Note_off_c, 0, 64, 55
1, 263348, Note_off_c, 0, 59, 49
1, 263353, Note_off_c, 0, 52, 35
1, 263377, Note_on_c, 0, 56, 59
1, 263382, Note_on_c, 0, 78, 65
1, 263393, Note_off_c, 0, 80, 64
1, 263411, Note_off_c, 0, 78, 65
1, 263414, Note_off_c, 0, 56, 62
1, 263443, Note_on_c, 0, 76, 71
1, 263485, Control_c, 0, 64, 89
1, 263500, Control_c, 0, 64, 71
1, 263506, Note_on_c, 0, 47, 89
1, 263506, Note_off_c, 0, 76, 65
1, 263512, Note_on_c, 0, 80, 81
1, 263515, Control_c, 0, 64, 0
1, 263541, Note_off_c, 0, 80, 65
1, 263544, Control_c, 0, 64, 58
1, 263556, Note_off_c, 0, 47, 66
1, 263559, Control_c, 0, 64, 70
1, 263574, Control_c, 0, 64, 81
1, 263589, Control_c, 0, 64, 95
1, 263598, Note_on_c, 0, 83, 81
1, 263603, Control_c, 0, 64, 106
1, 263618, Control_c, 0, 64, 109
1, 263634, Control_c, 0, 64, 111
1, 263656, Control_c, 0, 64, 111
1, 263663, Note_on_c, 0, 64, 63
1, 263666, Note_on_c, 0, 88, 75
1, 263667, Note_off_c, 0, 83, 59
1, 263671, Note_on_c, 0, 59, 56
1, 263671, Control_c, 0, 64, 112
1, 263686, Control_c, 0, 64, 113
1, 263696, Note_off_c, 0, 64, 65
1, 263710, Note_off_c, 0, 59, 57
1, 263723, Note_on_c, 0, 92, 80
1, 263728, Note_off_c, 0, 88, 62
1, 263756, Note_on_c, 0, 56, 67
1, 263774, Note_on_c, 0, 90, 72
1, 263783, Note_off_c, 0, 56, 65
1, 263819, Note_off_c, 0, 92, 63
1, 263828, Note_on_c, 0, 88, 72
1, 263848, Control_c, 0, 64, 111
1, 263855, Note_off_c, 0, 90, 63
1, 263863, Control_c, 0, 64, 96
1, 263878, Control_c, 0, 64, 72
1, 263883, Note_off_c, 0, 88, 62
1, 263889, Note_on_c, 0, 84, 76
1, 263890, Note_on_c, 0, 57, 91
1, 263893, Control_c, 0, 64, 0
1, 263896, Note_on_c, 0, 45, 78
1, 263923, Control_c, 0, 64, 63
1, 263923, Note_off_c, 0, 84, 62
1, 263925, Note_off_c, 0, 57, 57
1, 263926, Note_off_c, 0, 45, 65
1, 263938, Control_c, 0, 64, 72
1, 263952, Control_c, 0, 64, 83
1, 263967, Control_c, 0, 64, 98
1, 263982, Control_c, 0, 64, 112
1, 263983, Note_on_c, 0, 81, 78
1, 263997, Control_c, 0, 64, 118
1, 264012, Control_c, 0, 64, 125
1, 264026, Control_c, 0, 64, 127
1, 264036, Note_on_c, 0, 60, 101
1, 264041, Note_on_c, 0, 48, 92
1, 264042, Note_on_c, 0, 78, 82
1, 264068, Note_off_c, 0, 81, 56
1, 264093, Note_on_c, 0, 76, 69
1, 264111, Note_off_c, 0, 78, 64
1, 264145, Note_off_c, 0, 76, 65
1, 264149, Note_on_c, 0, 72, 83
1, 264154, Note_off_c, 0, 60, 58
1, 264176, Note_off_c, 0, 72, 64
1, 264181, Note_off_c, 0, 48, 61
1, 264226, Note_on_c, 0, 69, 76
1, 264275, Note_on_c, 0, 66, 80
1, 264310, Note_off_c, 0, 69, 63
1, 264325, Note_on_c, 0, 64, 74
1, 264343, Note_off_c, 0, 66, 66
1, 264373, Note_off_c, 0, 64, 64
1, 264379, Note_on_c, 0, 60, 80
1, 264412, Note_off_c, 0, 60, 64
1, 264470, Note_on_c, 0, 57, 72
1, 264502, Note_on_c, 0, 54, 68
1, 264526, Note_off_c, 0, 57, 59
1, 264543, Note_off_c, 0, 54, 61
1, 264555, Note_on_c, 0, 52, 65
1, 264582, Control_c, 0, 64, 123
1, 264597, Note_on_c, 0, 40, 95
1, 264597, Control_c, 0, 64, 92
1, 264612, Control_c, 0, 64, 66
1, 264614, Note_on_c, 0, 56, 77
1, 264618, Note_off_c, 0, 52, 65
1, 264627, Control_c, 0, 64, 0
1, 264642, Control_c, 0, 64, 24
1, 264644, Note_off_c, 0, 56, 68
1, 264656, Control_c, 0, 64, 67
1, 264671, Control_c, 0, 64, 77
1, 264686, Control_c, 0, 64, 90
1, 264689, Note_on_c, 0, 59, 79
1, 264701, Control_c, 0, 64, 99
1, 264716, Control_c, 0, 64, 103
1, 264731, Control_c, 0, 64, 104
1, 264746, Control_c, 0, 64, 105
1, 264754, Note_on_c, 0, 52, 71
1, 264763, Note_off_c, 0, 59, 59
1, 264769, Note_on_c, 0, 64, 69
1, 264770, Note_off_c, 0, 40, 56
1, 264775, Control_c, 0, 64, 105
1, 264790, Control_c, 0, 64, 106
1, 264803, Note_off_c, 0, 64, 65
1, 264807, Note_on_c, 0, 68, 68
1, 264830, Note_off_c, 0, 52, 63
1, 264856, Note_on_c, 0, 47, 69
1, 264861, Note_on_c, 0, 66, 73
1, 264864, Note_off_c, 0, 68, 65
1, 264864, Control_c, 0, 64, 106
1, 264894, Control_c, 0, 64, 107
1, 264898, Note_off_c, 0, 47, 66
1, 264903, Note_off_c, 0, 66, 63
1, 264925, Note_on_c, 0, 64, 73
1, 264938, Control_c, 0, 64, 106
1, 264953, Control_c, 0, 64, 100
1, 264968, Control_c, 0, 64, 82
1, 264982, Note_on_c, 0, 35, 90
1, 264982, Control_c, 0, 64, 52
1, 264992, Note_off_c, 0, 64, 63
1, 264993, Note_on_c, 0, 68, 78
1, 264997, Control_c, 0, 64, 0
1, 265014, Note_off_c, 0, 68, 71
1, 265027, Control_c, 0, 64, 67
1, 265029, Note_off_c, 0, 35, 63
1, 265042, Control_c, 0, 64, 78
1, 265056, Control_c, 0, 64, 93
1, 265071, Control_c, 0, 64, 107
1, 265079, Note_on_c, 0, 71, 79
1, 265086, Control_c, 0, 64, 114
1, 265124, Note_on_c, 0, 52, 74
1, 265130, Control_c, 0, 64, 114
1, 265136, Note_on_c, 0, 76, 75
1, 265139, Note_off_c, 0, 71, 59
1, 265168, Control_c, 0, 64, 115
1, 265171, Note_off_c, 0, 52, 61
1, 265196, Note_on_c, 0, 80, 75
1, 265202, Note_off_c, 0, 76, 65
1, 265228, Control_c, 0, 64, 116
1, 265243, Note_on_c, 0, 47, 74
1, 265249, Note_on_c, 0, 78, 72
1, 265269, Note_off_c, 0, 47, 66
1, 265272, Control_c, 0, 64, 116
1, 265285, Note_off_c, 0, 80, 62
1, 265297, Note_on_c, 0, 76, 71
1, 265301, Control_c, 0, 64, 117
1, 265316, Note_off_c, 0, 78, 63
1, 265316, Control_c, 0, 64, 116
1, 265331, Control_c, 0, 64, 112
1, 265345, Note_off_c, 0, 76, 65
1, 265346, Control_c, 0, 64, 93
1, 265352, Note_on_c, 0, 72, 75
1, 265360, Control_c, 0, 64, 70
1, 265365, Note_on_c, 0, 45, 99
1, 265368, Note_on_c, 0, 33, 85
1, 265375, Control_c, 0, 64, 0
1, 265380, Note_off_c, 0, 72, 64
1, 265390, Control_c, 0, 64, 59
1, 265394, Note_off_c, 0, 45, 65
1, 265396, Note_off_c, 0, 33, 70
1, 265404, Control_c, 0, 64, 70
1, 265419, Control_c, 0, 64, 84
1, 265434, Control_c, 0, 64, 100
1, 265438, Note_on_c, 0, 69, 75
1, 265449, Control_c, 0, 64, 118
1, 265464, Control_c, 0, 64, 127
1, 265503, Note_on_c, 0, 66, 74
1, 265521, Note_on_c, 0, 48, 107
1, 265524, Note_off_c, 0, 69, 57
1, 265527, Note_on_c, 0, 36, 93
1, 265541, Note_on_c, 0, 64, 79
1, 265550, Note_off_c, 0, 48, 67
1, 265552, Note_off_c, 0, 36, 69
1, 265564, Note_off_c, 0, 66, 66
1, 265595, Note_off_c, 0, 64, 62
1, 265601, Note_on_c, 0, 60, 82
1, 265629, Note_off_c, 0, 60, 62
1, 265684, Note_on_c, 0, 57, 76
1, 265733, Note_on_c, 0, 54, 70
1, 265779, Note_off_c, 0, 57, 61
1, 265781, Note_on_c, 0, 52, 76
1, 265802, Note_off_c, 0, 54, 62
1, 265826, Note_off_c, 0, 52, 66
1, 265838, Note_on_c, 0, 48, 80
1, 265877, Note_off_c, 0, 48, 64
1, 265934, Note_on_c, 0, 45, 70
1, 265968, Note_on_c, 0, 42, 74
1, 266001, Note_off_c, 0, 45, 61
1, 266019, Note_on_c, 0, 40, 80
1, 266050, Control_c, 0, 64, 100
1, 266052, Note_off_c, 0, 42, 63
1, 266065, Control_c, 0, 64, 71
1, 266074, Note_on_c, 0, 28, 104
1, 266078, Note_off_c, 0, 40, 63
1, 266080, Control_c, 0, 64, 0
1, 266123, Note_off_c, 0, 28, 64
1, 266124, Control_c, 0, 64, 66
1, 266139, Control_c, 0, 64, 77
1, 266153, Control_c, 0, 64, 92
1, 266168, Control_c, 0, 64, 104
1, 266183, Control_c, 0, 64, 112
1, 266198, Control_c, 0, 64, 114
1, 266213, Control_c, 0, 64, 115
1, 266249, Note_on_c, 0, 56, 6
1, 266257, Control_c, 0, 64, 115
1, 266264, Note_on_c, 0, 45, 64
1, 266301, Note_off_c, 0, 45, 67
1, 266302, Note_on_c, 0, 47, 31
1, 266302, Note_off_c, 0, 56, 33
1, 266315, Note_on_c, 0, 52, 74
1, 266317, Control_c, 0, 64, 116
1, 266338, Note_off_c, 0, 47, 54
1, 266365, Note_on_c, 0, 57, 68
1, 266416, Note_on_c, 0, 56, 72
1, 266425, Note_off_c, 0, 52, 64
1, 266447, Note_off_c, 0, 57, 64
1, 266450, Control_c, 0, 64, 116
1, 266460, Note_off_c, 0, 56, 66
1, 266465, Control_c, 0, 64, 117
1, 266480, Control_c, 0, 64, 117
1, 266494, Control_c, 0, 64, 118
1, 266509, Control_c, 0, 64, 118
1, 266517, Note_on_c, 0, 59, 76
1, 266539, Control_c, 0, 64, 119
1, 266553, Control_c, 0, 64, 120
1, 266568, Note_off_c, 0, 59, 65
1, 266568, Control_c, 0, 64, 121
1, 266573, Note_on_c, 0, 64, 74
1, 266583, Control_c, 0, 64, 122
1, 266598, Control_c, 0, 64, 122
1, 266627, Note_on_c, 0, 69, 67
1, 266627, Control_c, 0, 64, 123
1, 266677, Note_on_c, 0, 68, 77
1, 266677, Note_off_c, 0, 64, 64
1, 266680, Control_c, 0, 64, 123
1, 266704, Note_off_c, 0, 69, 63
1, 266714, Note_off_c, 0, 68, 66
1, 266724, Control_c, 0, 64, 124
1, 266762, Note_on_c, 0, 52, 63
1, 266769, Note_on_c, 0, 71, 75
1, 266796, Note_off_c, 0, 52, 64
1, 266797, Note_on_c, 0, 59, 73
1, 266798, Control_c, 0, 64, 124
1, 266813, Control_c, 0, 64, 126
1, 266829, Control_c, 0, 64, 127
1, 266832, Note_on_c, 0, 76, 79
1, 266835, Note_off_c, 0, 71, 60
1, 266873, Note_on_c, 0, 68, 100
1, 266898, Note_on_c, 0, 81, 70
1, 266902, Note_off_c, 0, 59, 54
1, 266907, Note_off_c, 0, 68, 68
1, 266928, Note_off_c, 0, 76, 62
1, 266934, Note_on_c, 0, 80, 84
1, 266964, Note_off_c, 0, 81, 63
1, 266972, Note_off_c, 0, 80, 67
1, 267029, Note_on_c, 0, 83, 79
1, 267086, Note_on_c, 0, 88, 82
1, 267095, Note_off_c, 0, 83, 61
1, 267143, Note_on_c, 0, 93, 81
1, 267163, Note_off_c, 0, 88, 60
1, 267196, Note_on_c, 0, 92, 81
1, 267248, Note_off_c, 0, 93, 59
1, 267262, Note_on_c, 0, 88, 86
1, 267273, Note_off_c, 0, 92, 66
1, 267308, Note_off_c, 0, 88, 66
1, 267314, Note_on_c, 0, 83, 82
1, 267351, Note_off_c, 0, 83, 59
1, 267407, Note_on_c, 0, 81, 86
1, 267454, Note_on_c, 0, 80, 81
1, 267504, Note_off_c, 0, 81, 59
1, 267513, Note_on_c, 0, 76, 80
1, 267535, Note_off_c, 0, 80, 64
1, 267565, Note_off_c, 0, 76, 70
1, 267571, Note_on_c, 0, 71, 84
1, 267604, Note_off_c, 0, 71, 59
1, 267654, Note_on_c, 0, 69, 83
1, 267703, Note_on_c, 0, 68, 77
1, 267751, Note_off_c, 0, 69, 65
1, 267762, Note_on_c, 0, 64, 79
1, 267794, Note_off_c, 0, 68, 62
1, 267825, Note_on_c, 0, 59, 81
1, 267826, Note_off_c, 0, 64, 63
1, 267859, Note_off_c, 0, 59, 60
1, 267912, Note_on_c, 0, 57, 79
1, 267968, Note_on_c, 0, 56, 72
1, 268003, Note_off_c, 0, 57, 64
1, 268027, Note_on_c, 0, 52, 81
1, 268045, Note_off_c, 0, 56, 60
1, 268088, Note_off_c, 0, 52, 69
1, 268097, Note_on_c, 0, 47, 84
1, 268139, Note_off_c, 0, 47, 62
1, 268202, Note_on_c, 0, 45, 73
1, 268281, Note_on_c, 0, 43, 66
1, 268299, Note_off_c, 0, 45, 64
1, 268308, Note_on_c, 0, 40, 70
1, 268320, Poly_aftertouch_c, 0, 44, 127
1, 268341, Note_off_c, 0, 43, 59
1, 268359, Poly_aftertouch_c, 0, 44, 0
1, 268364, Note_on_c, 0, 35, 93
1, 268374, Note_off_c, 0, 40, 64
1, 268381, Note_on_c, 0, 39, 65
1, 268396, Note_on_c, 0, 28, 102
1, 268398, Note_off_c, 0, 35, 66
1, 268406, Note_off_c, 0, 39, 60
1, 268429, Control_c, 0, 64, 93
1, 268444, Control_c, 0, 64, 64
1, 268459, Control_c, 0, 64, 0
1, 268950, Note_off_c, 0, 28, 61
1, 269479, Note_on_c, 0, 38, 109
1, 269480, Note_on_c, 0, 26, 92
1, 269507, Note_on_c, 0, 27, 62
1, 269539, Note_off_c, 0, 27, 53
1, 269586, Poly_aftertouch_c, 0, 30, 0
1, 269608, Control_c, 0, 64, 64
1, 269623, Control_c, 0, 64, 85
1, 269645, Control_c, 0, 64, 112
1, 269660, Control_c, 0, 64, 127
1, 269680, Note_on_c, 0, 47, 86
1, 269727, Note_off_c, 0, 26, 60
1, 269740, Note_off_c, 0, 38, 60
1, 269740, Note_off_c, 0, 47, 65
1, 269742, Note_on_c, 0, 53, 62
1, 269790, Note_on_c, 0, 57, 63
1, 269845, Note_on_c, 0, 56, 79
1, 269862, Note_off_c, 0, 53, 64
1, 269883, Note_off_c, 0, 57, 62
1, 269894, Note_off_c, 0, 56, 65
1, 269950, Note_on_c, 0, 59, 75
1, 270013, Note_off_c, 0, 59, 62
1, 270017, Note_on_c, 0, 65, 74
1, 270073, Note_on_c, 0, 69, 62
1, 270111, Note_on_c, 0, 68, 80
1, 270117, Note_off_c, 0, 65, 65
1, 270138, Note_off_c, 0, 69, 66
1, 270153, Note_off_c, 0, 68, 65
1, 270207, Note_on_c, 0, 71, 72
1, 270214, Note_on_c, 0, 50, 70
1, 270248, Note_on_c, 0, 59, 58
1, 270251, Note_on_c, 0, 56, 71
1, 270263, Note_on_c, 0, 77, 78
1, 270269, Note_off_c, 0, 50, 62
1, 270273, Note_off_c, 0, 71, 59
1, 270310, Note_on_c, 0, 65, 103
1, 270322, Note_off_c, 0, 56, 66
1, 270335, Note_on_c, 0, 81, 71
1, 270337, Note_off_c, 0, 59, 58
1, 270347, Note_off_c, 0, 65, 70
1, 270378, Note_on_c, 0, 80, 81
1, 270381, Note_off_c, 0, 77, 61
1, 270406, Note_off_c, 0, 81, 62
1, 270422, Note_off_c, 0, 80, 62
1, 270475, Note_on_c, 0, 83, 80
1, 270531, Note_on_c, 0, 89, 82
1, 270558, Note_off_c, 0, 83, 56
1, 270603, Note_on_c, 0, 93, 82
1, 270623, Note_off_c, 0, 89, 65
1, 270656, Note_on_c, 0, 92, 81
1, 270709, Note_off_c, 0, 93, 60
1, 270720, Note_on_c, 0, 89, 84
1, 270731, Note_off_c, 0, 92, 65
1, 270773, Note_off_c, 0, 89, 67
1, 270780, Note_on_c, 0, 83, 78
1, 270807, Note_off_c, 0, 83, 61
1, 270862, Note_on_c, 0, 81, 87
1, 270909, Note_on_c, 0, 80, 77
1, 270946, Note_off_c, 0, 81, 63
1, 270961, Note_on_c, 0, 77, 86
1, 270980, Note_off_c, 0, 80, 63
1, 271011, Note_off_c, 0, 77, 66
1, 271027, Note_on_c, 0, 71, 74
1, 271050, Note_off_c, 0, 71, 66
1, 271095, Note_on_c, 0, 69, 83
1, 271157, Note_on_c, 0, 68, 77
1, 271188, Note_off_c, 0, 69, 64
1, 271213, Note_on_c, 0, 65, 82
1, 271245, Note_off_c, 0, 68, 63
1, 271270, Note_off_c, 0, 65, 67
1, 271278, Note_on_c, 0, 59, 79
1, 271313, Note_off_c, 0, 59, 59
1, 271360, Note_on_c, 0, 57, 78
1, 271416, Note_on_c, 0, 56, 77
1, 271447, Note_off_c, 0, 57, 65
1, 271473, Note_on_c, 0, 53, 79
1, 271491, Note_off_c, 0, 56, 63
1, 271526, Note_off_c, 0, 53, 67
1, 271535, Note_on_c, 0, 47, 82
1, 271570, Note_off_c, 0, 47, 64
1, 271626, Note_on_c, 0, 45, 79
1, 271687, Note_on_c, 0, 44, 76
1, 271720, Note_off_c, 0, 45, 63
1, 271734, Note_on_c, 0, 41, 69
1, 271786, Note_off_c, 0, 44, 63
1, 271801, Note_on_c, 0, 35, 90
1, 271809, Note_off_c, 0, 41, 66
1, 271839, Note_on_c, 0, 39, 47
1, 271849, Note_off_c, 0, 35, 65
1, 271859, Note_on_c, 0, 26, 94
1, 271871, Note_off_c, 0, 39, 49
1, 271891, Control_c, 0, 64, 112
1, 271906, Control_c, 0, 64, 82
1, 271921, Control_c, 0, 64, 0
1, 272805, Note_off_c, 0, 26, 61
1, 272823, Note_on_c, 0, 25, 75
1, 272833, Note_on_c, 0, 37, 94
1, 272863, Control_c, 0, 64, 56
1, 272878, Control_c, 0, 64, 81
1, 272879, Note_off_c, 0, 25, 65
1, 272885, Note_off_c, 0, 37, 65
1, 272892, Control_c, 0, 64, 101
1, 272907, Control_c, 0, 64, 123
1, 272922, Control_c, 0, 64, 127
1, 272934, Note_on_c, 0, 70, 64
1, 273010, Note_on_c, 0, 68, 70
1, 273012, Note_off_c, 0, 70, 63
1, 273039, Note_off_c, 0, 68, 67
1, 273087, Note_on_c, 0, 71, 72
1, 273137, Note_off_c, 0, 71, 61
1, 273171, Note_on_c, 0, 77, 58
1, 273178, Note_on_c, 0, 44, 70
1, 273178, Note_on_c, 0, 56, 81
1, 273197, Note_on_c, 0, 82, 70
1, 273205, Note_off_c, 0, 77, 63
1, 273220, Note_off_c, 0, 44, 64
1, 273222, Note_off_c, 0, 56, 64
1, 273241, Note_on_c, 0, 80, 82
1, 273277, Note_off_c, 0, 82, 64
1, 273281, Note_off_c, 0, 80, 64
1, 273318, Note_on_c, 0, 63, 99
1, 273327, Note_on_c, 0, 51, 77
1, 273344, Note_on_c, 0, 83, 75
1, 273349, Note_off_c, 0, 51, 66
1, 273352, Note_off_c, 0, 63, 66
1, 273402, Note_on_c, 0, 89, 67
1, 273403, Note_off_c, 0, 83, 56
1, 273448, Note_on_c, 0, 94, 74
1, 273454, Note_off_c, 0, 89, 66
1, 273459, Note_on_c, 0, 61, 102
1, 273469, Note_on_c, 0, 49, 84
1, 273492, Note_off_c, 0, 49, 66
1, 273502, Note_off_c, 0, 61, 61
1, 273503, Note_on_c, 0, 92, 77
1, 273548, Note_off_c, 0, 94, 64
1, 273570, Note_off_c, 0, 92, 65
1, 273596, Note_on_c, 0, 82, 76
1, 273608, Note_on_c, 0, 61, 109
1, 273608, Note_on_c, 0, 49, 85
1, 273612, Control_c, 0, 64, 91
1, 273626, Control_c, 0, 64, 66
1, 273641, Control_c, 0, 64, 0
1, 273650, Note_off_c, 0, 61, 66
1, 273656, Control_c, 0, 64, 58
1, 273663, Note_on_c, 0, 88, 72
1, 273671, Control_c, 0, 64, 69
1, 273672, Note_off_c, 0, 49, 61
1, 273686, Control_c, 0, 64, 77
1, 273691, Note_off_c, 0, 82, 62
1, 273700, Control_c, 0, 64, 90
1, 273715, Control_c, 0, 64, 102
1, 273730, Control_c, 0, 64, 109
1, 273733, Note_on_c, 0, 92, 72
1, 273745, Control_c, 0, 64, 112
1, 273751, Note_off_c, 0, 88, 63
1, 273760, Control_c, 0, 64, 114
1, 273775, Control_c, 0, 64, 115
1, 273781, Note_on_c, 0, 91, 74
1, 273790, Control_c, 0, 64, 116
1, 273805, Control_c, 0, 64, 117
1, 273819, Control_c, 0, 64, 119
1, 273827, Note_off_c, 0, 92, 61
1, 273834, Control_c, 0, 64, 121
1, 273835, Note_on_c, 0, 88, 66
1, 273849, Control_c, 0, 64, 127
1, 273861, Note_off_c, 0, 91, 61
1, 273863, Control_c, 0, 64, 127
1, 273886, Note_off_c, 0, 88, 65
1, 273891, Note_on_c, 0, 82, 81
1, 273933, Note_off_c, 0, 82, 62
1, 273997, Note_on_c, 0, 80, 74
1, 274001, Note_on_c, 0, 37, 69
1, 274001, Note_on_c, 0, 49, 80
1, 274037, Note_on_c, 0, 79, 72
1, 274070, Note_off_c, 0, 49, 62
1, 274085, Note_on_c, 0, 76, 74
1, 274091, Note_off_c, 0, 80, 61
1, 274116, Note_off_c, 0, 79, 63
1, 274130, Note_off_c, 0, 76, 69
1, 274133, Note_off_c, 0, 37, 60
1, 274150, Note_on_c, 0, 70, 79
1, 274174, Note_off_c, 0, 70, 67
1, 274245, Note_on_c, 0, 68, 73
1, 274302, Note_on_c, 0, 67, 71
1, 274354, Note_off_c, 0, 68, 62
1, 274378, Note_off_c, 0, 67, 63
1, 274403, Note_on_c, 0, 57, 69
1, 274405, Control_c, 0, 64, 97
1, 274413, Note_on_c, 0, 37, 99
1, 274414, Note_on_c, 0, 25, 78
1, 274420, Control_c, 0, 64, 70
1, 274434, Control_c, 0, 64, 0
1, 274463, Note_off_c, 0, 25, 64
1, 274464, Note_on_c, 0, 27, 19
1, 274465, Note_off_c, 0, 27, 127
1, 274465, Control_c, 0, 64, 53
1, 274471, Note_off_c, 0, 37, 65
1, 274475, Note_off_c, 0, 57, 63
1, 274478, Note_on_c, 0, 63, 69
1, 274479, Control_c, 0, 64, 67
1, 274493, Control_c, 0, 64, 76
1, 274508, Control_c, 0, 64, 89
1, 274514, Note_on_c, 0, 68, 64
1, 274523, Control_c, 0, 64, 97
1, 274538, Control_c, 0, 64, 100
1, 274553, Control_c, 0, 64, 101
1, 274568, Control_c, 0, 64, 101
1, 274574, Note_on_c, 0, 66, 71
1, 274577, Note_off_c, 0, 63, 60
1, 274583, Control_c, 0, 64, 102
1, 274598, Control_c, 0, 64, 104
1, 274605, Note_off_c, 0, 68, 64
1, 274611, Note_off_c, 0, 66, 66
1, 274612, Control_c, 0, 64, 105
1, 274627, Control_c, 0, 64, 106
1, 274642, Control_c, 0, 64, 107
1, 274668, Note_on_c, 0, 69, 72
1, 274672, Control_c, 0, 64, 107
1, 274720, Note_off_c, 0, 69, 61
1, 274732, Note_on_c, 0, 75, 73
1, 274760, Control_c, 0, 64, 108
1, 274775, Control_c, 0, 64, 108
1, 274781, Note_on_c, 0, 80, 65
1, 274806, Control_c, 0, 64, 109
1, 274809, Note_on_c, 0, 51, 87
1, 274821, Control_c, 0, 64, 111
1, 274827, Note_on_c, 0, 78, 83
1, 274835, Note_off_c, 0, 75, 64
1, 274836, Note_off_c, 0, 51, 63
1, 274836, Control_c, 0, 64, 114
1, 274851, Control_c, 0, 64, 120
1, 274857, Note_off_c, 0, 80, 64
1, 274865, Control_c, 0, 64, 127
1, 274869, Note_off_c, 0, 78, 63
1, 274912, Poly_aftertouch_c, 0, 42, 0
1, 274934, Note_on_c, 0, 81, 80
1, 274958, Note_on_c, 0, 61, 75
1, 274962, Note_on_c, 0, 63, 90
1, 274973, Note_on_c, 0, 49, 57
1, 274981, Note_off_c, 0, 61, 67
1, 274982, Note_off_c, 0, 63, 69
1, 274989, Note_on_c, 0, 51, 36
1, 275000, Note_off_c, 0, 49, 57
1, 275003, Note_on_c, 0, 87, 77
1, 275008, Note_off_c, 0, 81, 58
1, 275009, Note_off_c, 0, 51, 60
1, 275052, Note_on_c, 0, 92, 60
1, 275075, Note_off_c, 0, 87, 56
1, 275101, Note_on_c, 0, 61, 96
1, 275105, Note_on_c, 0, 49, 73
1, 275112, Note_on_c, 0, 90, 75
1, 275113, Note_on_c, 0, 51, 46
1, 275136, Note_off_c, 0, 49, 64
1, 275137, Note_off_c, 0, 51, 58
1, 275139, Note_off_c, 0, 61, 65
1, 275142, Note_off_c, 0, 92, 63
1, 275179, Note_off_c, 0, 90, 63
1, 275198, Control_c, 0, 64, 118
1, 275208, Note_on_c, 0, 80, 76
1, 275213, Control_c, 0, 64, 89
1, 275221, Note_on_c, 0, 61, 101
1, 275224, Note_on_c, 0, 49, 94
1, 275228, Control_c, 0, 64, 72
1, 275243, Control_c, 0, 64, 67
1, 275244, Note_off_c, 0, 61, 68
1, 275257, Control_c, 0, 64, 75
1, 275260, Note_off_c, 0, 49, 63
1, 275270, Note_on_c, 0, 85, 69
1, 275272, Control_c, 0, 64, 87
1, 275287, Control_c, 0, 64, 97
1, 275302, Control_c, 0, 64, 108
1, 275304, Note_off_c, 0, 80, 59
1, 275316, Control_c, 0, 64, 117
1, 275331, Control_c, 0, 64, 122
1, 275338, Note_on_c, 0, 90, 61
1, 275346, Control_c, 0, 64, 124
1, 275349, Note_off_c, 0, 85, 60
1, 275361, Control_c, 0, 64, 124
1, 275371, Note_on_c, 0, 43, 88
1, 275376, Control_c, 0, 64, 125
1, 275389, Note_on_c, 0, 89, 70
1, 275396, Note_on_c, 0, 31, 55
1, 275405, Note_off_c, 0, 43, 61
1, 275429, Note_off_c, 0, 31, 51
1, 275438, Note_off_c, 0, 90, 55
1, 275450, Control_c, 0, 64, 125
1, 275459, Note_off_c, 0, 89, 65
1, 275463, Note_on_c, 0, 85, 61
1, 275484, Note_off_c, 0, 85, 63
1, 275491, Note_on_c, 0, 44, 93
1, 275492, Note_on_c, 0, 32, 72
1, 275498, Note_on_c, 0, 80, 73
1, 275531, Note_off_c, 0, 80, 59
1, 275532, Note_off_c, 0, 32, 64
1, 275539, Control_c, 0, 64, 126
1, 275545, Note_off_c, 0, 44, 62
1, 275569, Control_c, 0, 64, 126
1, 275583, Control_c, 0, 64, 127
1, 275608, Note_on_c, 0, 79, 60
1, 275624, Note_on_c, 0, 44, 95
1, 275626, Note_on_c, 0, 78, 59
1, 275634, Note_on_c, 0, 32, 71
1, 275672, Note_off_c, 0, 32, 63
1, 275673, Note_off_c, 0, 44, 59
1, 275688, Note_off_c, 0, 79, 60
1, 275723, Note_off_c, 0, 78, 64
1, 275743, Note_on_c, 0, 74, 31
1, 275767, Note_on_c, 0, 70, 80
1, 275770, Note_on_c, 0, 51, 102
1, 275774, Note_on_c, 0, 39, 93
1, 275774, Note_off_c, 0, 74, 51
1, 275794, Note_off_c, 0, 70, 61
1, 275806, Note_off_c, 0, 39, 66
1, 275808, Note_off_c, 0, 51, 65
1, 275888, Note_on_c, 0, 67, 60
1, 275904, Note_on_c, 0, 66, 60
1, 275913, Note_on_c, 0, 49, 101
1, 275917, Note_on_c, 0, 37, 86
1, 275927, Note_off_c, 0, 67, 59
1, 275956, Note_off_c, 0, 49, 58
1, 275959, Note_off_c, 0, 37, 61
1, 275987, Note_off_c, 0, 66, 67
1, 276066, Control_c, 0, 64, 91
1, 276080, Control_c, 0, 64, 29
1, 276082, Note_on_c, 0, 50, 104
1, 276084, Note_on_c, 0, 38, 90
1, 276085, Note_on_c, 0, 60, 80
1, 276095, Control_c, 0, 64, 0
1, 276120, Note_on_c, 0, 39, 51
1, 276149, Note_off_c, 0, 39, 39
1, 276152, Note_on_c, 0, 66, 70
1, 276154, Note_off_c, 0, 38, 63
1, 276154, Control_c, 0, 64, 63
1, 276164, Note_off_c, 0, 60, 60
1, 276169, Note_off_c, 0, 50, 63
1, 276169, Control_c, 0, 64, 74
1, 276184, Control_c, 0, 64, 88
1, 276199, Control_c, 0, 64, 104
1, 276207, Note_on_c, 0, 71, 67
1, 276213, Control_c, 0, 64, 114
1, 276228, Control_c, 0, 64, 115
1, 276243, Control_c, 0, 64, 115
1, 276249, Note_off_c, 0, 66, 63
1, 276260, Note_on_c, 0, 69, 72
1, 276273, Control_c, 0, 64, 116
1, 276296, Note_off_c, 0, 71, 61
1, 276300, Note_off_c, 0, 69, 64
1, 276303, Control_c, 0, 64, 116
1, 276318, Control_c, 0, 64, 117
1, 276348, Note_on_c, 0, 72, 83
1, 276428, Note_on_c, 0, 78, 86
1, 276433, Note_off_c, 0, 72, 63
1, 276463, Note_on_c, 0, 83, 61
1, 276476, Note_on_c, 0, 45, 76
1, 276479, Note_on_c, 0, 57, 91
1, 276504, Control_c, 0, 64, 117
1, 276517, Note_off_c, 0, 45, 64
1, 276517, Note_off_c, 0, 57, 64
1, 276518, Control_c, 0, 64, 121
1, 276520, Note_on_c, 0, 81, 78
1, 276526, Note_off_c, 0, 78, 62
1, 276533, Control_c, 0, 64, 127
1, 276553, Note_off_c, 0, 83, 62
1, 276554, Note_off_c, 0, 81, 62
1, 276606, Note_on_c, 0, 84, 92
1, 276615, Note_on_c, 0, 64, 94
1, 276618, Note_on_c, 0, 52, 88
1, 276654, Note_off_c, 0, 52, 64
1, 276655, Note_off_c, 0, 64, 67
1, 276674, Note_on_c, 0, 90, 94
1, 276702, Note_off_c, 0, 84, 61
1, 276740, Note_on_c, 0, 95, 74
1, 276765, Note_on_c, 0, 62, 102
1, 276768, Note_on_c, 0, 50, 91
1, 276772, Note_off_c, 0, 90, 62
1, 276808, Note_off_c, 0, 62, 62
1, 276813, Note_off_c, 0, 50, 60
1, 276817, Note_on_c, 0, 93, 81
1, 276858, Note_off_c, 0, 95, 64
1, 276884, Note_off_c, 0, 93, 64
1, 276888, Control_c, 0, 64, 120
1, 276903, Control_c, 0, 64, 82
1, 276917, Note_on_c, 0, 62, 108
1, 276918, Control_c, 0, 64, 0
1, 276921, Note_on_c, 0, 50, 94
1, 276930, Note_on_c, 0, 83, 88
1, 276948, Control_c, 0, 64, 50
1, 276951, Note_on_c, 0, 51, 47
1, 276954, Note_off_c, 0, 62, 66
1, 276962, Control_c, 0, 64, 68
1, 276975, Note_off_c, 0, 50, 63
1, 276977, Control_c, 0, 64, 79
1, 276982, Note_off_c, 0, 51, 36
1, 276992, Control_c, 0, 64, 99
1, 276997, Note_on_c, 0, 89, 78
1, 277007, Control_c, 0, 64, 115
1, 277022, Control_c, 0, 64, 122
1, 277036, Control_c, 0, 64, 124
1, 277045, Note_off_c, 0, 83, 55
1, 277051, Control_c, 0, 64, 127
1, 277066, Control_c, 0, 64, 127
1, 277071, Note_on_c, 0, 93, 75
1, 277087, Note_off_c, 0, 89, 65
1, 277111, Note_on_c, 0, 92, 81
1, 277182, Note_on_c, 0, 89, 84
1, 277188, Note_off_c, 0, 93, 63
1, 277215, Note_off_c, 0, 92, 64
1, 277237, Note_off_c, 0, 89, 68
1, 277242, Note_on_c, 0, 83, 78
1, 277265, Note_off_c, 0, 83, 61
1, 277313, Note_on_c, 0, 50, 83
1, 277314, Note_on_c, 0, 38, 72
1, 277325, Note_on_c, 0, 81, 86
1, 277364, Note_off_c, 0, 50, 61
1, 277375, Note_on_c, 0, 80, 82
1, 277412, Note_off_c, 0, 38, 59
1, 277423, Note_off_c, 0, 81, 61
1, 277444, Note_on_c, 0, 77, 78
1, 277469, Note_off_c, 0, 80, 64
1, 277489, Note_off_c, 0, 77, 65
1, 277494, Note_on_c, 0, 71, 76
1, 277519, Note_off_c, 0, 71, 64
1, 277588, Note_on_c, 0, 71, 66
1, 277592, Note_on_c, 0, 69, 62
1, 277617, Note_on_c, 0, 68, 80
1, 277627, Note_off_c, 0, 71, 59
1, 277631, Note_off_c, 0, 69, 58
1, 277685, Note_off_c, 0, 68, 67
1, 277696, Control_c, 0, 64, 127
1, 277702, Note_on_c, 0, 26, 75
1, 277706, Note_on_c, 0, 38, 99
1, 277706, Note_on_c, 0, 58, 92
1, 277710, Control_c, 0, 64, 93
1, 277725, Control_c, 0, 64, 67
1, 277740, Control_c, 0, 64, 0
1, 277741, Note_on_c, 0, 27, 43
1, 277749, Note_off_c, 0, 26, 63
1, 277761, Note_off_c, 0, 38, 61
1, 277770, Control_c, 0, 64, 65
1, 277775, Note_off_c, 0, 58, 62
1, 277775, Note_on_c, 0, 64, 72
1, 277782, Note_off_c, 0, 27, 32
1, 277784, Control_c, 0, 64, 74
1, 277799, Control_c, 0, 64, 87
1, 277814, Control_c, 0, 64, 97
1, 277829, Control_c, 0, 64, 102
1, 277844, Control_c, 0, 64, 103
1, 277847, Note_on_c, 0, 69, 70
1, 277859, Control_c, 0, 64, 104
1, 277881, Control_c, 0, 64, 105
1, 277896, Control_c, 0, 64, 108
1, 277901, Note_off_c, 0, 64, 65
1, 277909, Note_on_c, 0, 67, 62
1, 277910, Control_c, 0, 64, 112
1, 277925, Control_c, 0, 64, 117
1, 277929, Note_off_c, 0, 69, 67
1, 277934, Note_off_c, 0, 67, 65
1, 277940, Control_c, 0, 64, 121
1, 277955, Control_c, 0, 64, 124
1, 277969, Control_c, 0, 64, 127
1, 278004, Note_on_c, 0, 70, 73
1, 278053, Note_on_c, 0, 76, 74
1, 278068, Note_off_c, 0, 70, 61
1, 278114, Note_on_c, 0, 41, 75
1, 278115, Note_on_c, 0, 53, 87
1, 278123, Note_on_c, 0, 81, 66
1, 278151, Note_off_c, 0, 41, 65
1, 278158, Note_off_c, 0, 53, 66
1, 278163, Note_on_c, 0, 79, 73
1, 278167, Note_off_c, 0, 76, 64
1, 278190, Note_off_c, 0, 79, 65
1, 278196, Note_off_c, 0, 81, 64
1, 278256, Note_on_c, 0, 64, 100
1, 278262, Note_on_c, 0, 82, 85
1, 278271, Note_on_c, 0, 52, 76
1, 278273, Note_on_c, 0, 50, 67
1, 278291, Note_off_c, 0, 64, 67
1, 278298, Note_off_c, 0, 52, 69
1, 278300, Note_off_c, 0, 50, 66
1, 278326, Note_on_c, 0, 88, 77
1, 278328, Note_off_c, 0, 82, 62
1, 278384, Note_on_c, 0, 93, 69
1, 278411, Note_on_c, 0, 62, 97
1, 278412, Note_on_c, 0, 50, 79
1, 278434, Note_off_c, 0, 88, 60
1, 278452, Note_off_c, 0, 50, 63
1, 278453, Note_off_c, 0, 62, 62
1, 278461, Note_on_c, 0, 91, 62
1, 278497, Note_off_c, 0, 91, 56
1, 278507, Note_off_c, 0, 93, 60
1, 278518, Control_c, 0, 64, 90
1, 278532, Control_c, 0, 64, 64
1, 278536, Note_on_c, 0, 62, 98
1, 278542, Note_on_c, 0, 50, 81
1, 278547, Control_c, 0, 64, 0
1, 278548, Note_on_c, 0, 81, 89
1, 278562, Control_c, 0, 64, 62
1, 278569, Note_off_c, 0, 62, 59
1, 278577, Control_c, 0, 64, 71
1, 278586, Note_off_c, 0, 50, 63
1, 278592, Control_c, 0, 64, 79
1, 278607, Control_c, 0, 64, 95
1, 278629, Control_c, 0, 64, 107
1, 278631, Note_on_c, 0, 86, 75
1, 278644, Control_c, 0, 64, 115
1, 278654, Poly_aftertouch_c, 0, 54, 0
1, 278658, Control_c, 0, 64, 119
1, 278665, Note_off_c, 0, 81, 55
1, 278673, Control_c, 0, 64, 123
1, 278688, Control_c, 0, 64, 127
1, 278699, Note_on_c, 0, 49, 96
1, 278708, Note_on_c, 0, 37, 81
1, 278716, Note_on_c, 0, 91, 73
1, 278735, Note_off_c, 0, 37, 65
1, 278738, Note_off_c, 0, 86, 49
1, 278745, Note_off_c, 0, 49, 62
1, 278777, Note_on_c, 0, 90, 77
1, 278824, Note_off_c, 0, 91, 50
1, 278856, Note_on_c, 0, 50, 99
1, 278856, Note_on_c, 0, 86, 74
1, 278865, Note_on_c, 0, 38, 77
1, 278886, Note_off_c, 0, 90, 60
1, 278893, Note_on_c, 0, 39, 38
1, 278909, Note_off_c, 0, 50, 57
1, 278921, Note_off_c, 0, 38, 60
1, 278922, Note_off_c, 0, 86, 66
1, 278925, Note_on_c, 0, 81, 78
1, 278926, Note_off_c, 0, 39, 46
1, 278965, Note_off_c, 0, 81, 58
1, 279021, Note_on_c, 0, 50, 94
1, 279029, Note_on_c, 0, 38, 81
1, 279032, Note_on_c, 0, 79, 90
1, 279064, Note_off_c, 0, 50, 61
1, 279065, Note_on_c, 0, 39, 14
1, 279083, Note_off_c, 0, 38, 61
1, 279111, Note_off_c, 0, 39, 37
1, 279117, Note_on_c, 0, 78, 84
1, 279152, Note_off_c, 0, 79, 60
1, 279194, Control_c, 0, 64, 114
1, 279209, Control_c, 0, 64, 88
1, 279215, Note_on_c, 0, 47, 99
1, 279224, Note_on_c, 0, 35, 82
1, 279224, Control_c, 0, 64, 64
1, 279227, Note_on_c, 0, 74, 79
1, 279237, Note_off_c, 0, 78, 58
1, 279238, Control_c, 0, 64, 0
1, 279253, Control_c, 0, 64, 59
1, 279254, Note_on_c, 0, 37, 35
1, 279266, Note_off_c, 0, 35, 61
1, 279268, Control_c, 0, 64, 69
1, 279275, Note_off_c, 0, 47, 60
1, 279282, Control_c, 0, 64, 79
1, 279297, Control_c, 0, 64, 91
1, 279298, Note_off_c, 0, 37, 31
1, 279312, Control_c, 0, 64, 103
1, 279313, Note_off_c, 0, 74, 66
1, 279317, Note_on_c, 0, 69, 86
1, 279327, Control_c, 0, 64, 112
1, 279342, Control_c, 0, 64, 114
1, 279356, Control_c, 0, 64, 116
1, 279382, Note_off_c, 0, 69, 67
1, 279394, Control_c, 0, 64, 116
1, 279438, Control_c, 0, 64, 110
1, 279453, Control_c, 0, 64, 90
1, 279453, Note_on_c, 0, 48, 100
1, 279455, Note_on_c, 0, 67, 91
1, 279466, Note_on_c, 0, 36, 75
1, 279468, Control_c, 0, 64, 66
1, 279482, Control_c, 0, 64, 0
1, 279497, Note_off_c, 0, 48, 63
1, 279504, Note_off_c, 0, 36, 66
1, 279512, Control_c, 0, 64, 64
1, 279527, Control_c, 0, 64, 73
1, 279542, Control_c, 0, 64, 86
1, 279554, Note_on_c, 0, 66, 93
1, 279556, Control_c, 0, 64, 99
1, 279561, Note_off_c, 0, 67, 62
1, 279571, Control_c, 0, 64, 107
1, 279586, Control_c, 0, 64, 108
1, 279592, Note_off_c, 0, 66, 70
1, 279676, Control_c, 0, 64, 105
1, 279691, Control_c, 0, 64, 85
1, 279705, Control_c, 0, 64, 0
1, 279709, Note_on_c, 0, 34, 78
1, 279713, Note_on_c, 0, 46, 102
1, 279719, Note_on_c, 0, 62, 102
1, 279719, Note_on_c, 0, 74, 88
1, 279723, Note_on_c, 0, 67, 85
1, 279757, Note_off_c, 0, 34, 65
1, 279763, Note_off_c, 0, 62, 65
1, 279765, Control_c, 0, 64, 66
1, 279769, Note_off_c, 0, 46, 63
1, 279779, Control_c, 0, 64, 78
1, 279790, Note_off_c, 0, 67, 62
1, 279794, Control_c, 0, 64, 93
1, 279805, Note_off_c, 0, 74, 66
1, 279809, Control_c, 0, 64, 105
1, 279824, Control_c, 0, 64, 111
1, 279839, Control_c, 0, 64, 111
1, 279853, Control_c, 0, 64, 112
1, 279868, Control_c, 0, 64, 113
1, 279883, Control_c, 0, 64, 114
1, 279898, Control_c, 0, 64, 116
1, 279913, Control_c, 0, 64, 117
1, 279927, Control_c, 0, 64, 121
1, 279942, Control_c, 0, 64, 127
1, 279950, Note_on_c, 0, 73, 73
1, 279966, Note_on_c, 0, 60, 68
1, 279997, Note_off_c, 0, 60, 61
1, 280017, Note_on_c, 0, 74, 54
1, 280028, Note_off_c, 0, 73, 60
1, 280052, Note_on_c, 0, 77, 76
1, 280060, Note_off_c, 0, 74, 57
1, 280067, Note_on_c, 0, 54, 68
1, 280094, Note_on_c, 0, 75, 79
1, 280113, Note_off_c, 0, 54, 62
1, 280114, Note_off_c, 0, 77, 60
1, 280154, Note_off_c, 0, 75, 68
1, 280157, Note_on_c, 0, 74, 66
1, 280172, Note_off_c, 0, 74, 68
1, 280187, Control_c, 0, 64, 117
1, 280202, Control_c, 0, 64, 88
1, 280217, Control_c, 0, 64, 56
1, 280223, Note_on_c, 0, 74, 85
1, 280231, Control_c, 0, 64, 0
1, 280234, Note_on_c, 0, 45, 70
1, 280241, Note_on_c, 0, 76, 59
1, 280246, Control_c, 0, 64, 18
1, 280261, Note_off_c, 0, 76, 62
1, 280261, Control_c, 0, 64, 64
1, 280270, Note_off_c, 0, 45, 63
1, 280276, Control_c, 0, 64, 71
1, 280291, Control_c, 0, 64, 83
1, 280305, Control_c, 0, 64, 97
1, 280320, Control_c, 0, 64, 108
1, 280335, Control_c, 0, 64, 117
1, 280350, Control_c, 0, 64, 124
1, 280365, Control_c, 0, 64, 127
1, 280381, Note_on_c, 0, 86, 90
1, 280384, Note_on_c, 0, 78, 87
1, 280395, Note_on_c, 0, 62, 73
1, 280431, Note_off_c, 0, 62, 58
1, 280470, Note_off_c, 0, 86, 62
1, 280490, Note_off_c, 0, 78, 61
1, 280496, Note_off_c, 0, 74, 53
1, 280518, Note_on_c, 0, 84, 91
1, 280523, Note_on_c, 0, 57, 65
1, 280539, Note_on_c, 0, 50, 54
1, 280550, Note_off_c, 0, 57, 65
1, 280563, Note_off_c, 0, 50, 61
1, 280662, Control_c, 0, 64, 104
1, 280673, Note_on_c, 0, 79, 88
1, 280676, Control_c, 0, 64, 77
1, 280677, Note_on_c, 0, 82, 89
1, 280683, Note_on_c, 0, 43, 76
1, 280691, Control_c, 0, 64, 0
1, 280718, Note_off_c, 0, 43, 63
1, 280720, Control_c, 0, 64, 62
1, 280733, Note_off_c, 0, 84, 24
1, 280735, Control_c, 0, 64, 69
1, 280740, Note_off_c, 0, 79, 65
1, 280742, Note_off_c, 0, 82, 65
1, 280750, Control_c, 0, 64, 78
1, 280765, Control_c, 0, 64, 91
1, 280780, Control_c, 0, 64, 100
1, 280795, Control_c, 0, 64, 105
1, 280810, Control_c, 0, 64, 107
1, 280825, Control_c, 0, 64, 109
1, 280840, Control_c, 0, 64, 112
1, 280851, Note_on_c, 0, 73, 74
1, 280854, Control_c, 0, 64, 116
1, 280863, Note_on_c, 0, 62, 62
1, 280869, Control_c, 0, 64, 119
1, 280891, Control_c, 0, 64, 120
1, 280905, Note_off_c, 0, 62, 60
1, 280935, Control_c, 0, 64, 120
1, 280975, Note_on_c, 0, 55, 60
1, 280976, Note_off_c, 0, 73, 61
1, 280983, Note_on_c, 0, 77, 65
1, 280987, Note_on_c, 0, 76, 60
1, 281009, Note_off_c, 0, 55, 66
1, 281015, Note_off_c, 0, 76, 68
1, 281018, Note_on_c, 0, 75, 78
1, 281037, Note_off_c, 0, 77, 61
1, 281048, Note_on_c, 0, 74, 39
1, 281060, Note_off_c, 0, 75, 68
1, 281069, Control_c, 0, 64, 120
1, 281084, Control_c, 0, 64, 114
1, 281087, Note_off_c, 0, 74, 68
1, 281099, Control_c, 0, 64, 90
1, 281114, Control_c, 0, 64, 68
1, 281128, Control_c, 0, 64, 0
1, 281136, Note_on_c, 0, 74, 82
1, 281140, Note_on_c, 0, 48, 54
1, 281143, Control_c, 0, 64, 58
1, 281150, Note_on_c, 0, 47, 40
1, 281158, Control_c, 0, 64, 68
1, 281165, Note_off_c, 0, 48, 63
1, 281173, Control_c, 0, 64, 76
1, 281178, Note_off_c, 0, 74, 68
1, 281188, Control_c, 0, 64, 89
1, 281188, Note_off_c, 0, 47, 54
1, 281203, Control_c, 0, 64, 107
1, 281218, Control_c, 0, 64, 125
1, 281230, Poly_aftertouch_c, 0, 76, 0
1, 281233, Control_c, 0, 64, 127
1, 281284, Note_on_c, 0, 70, 94
1, 281285, Note_on_c, 0, 82, 83
1, 281289, Note_on_c, 0, 62, 70
1, 281320, Note_off_c, 0, 62, 63
1, 281325, Note_off_c, 0, 70, 63
1, 281340, Note_off_c, 0, 82, 59
1, 281385, Poly_aftertouch_c, 0, 80, 0
1, 281403, Note_on_c, 0, 54, 36
1, 281433, Note_on_c, 0, 50, 32
1, 281433, Note_on_c, 0, 81, 92
1, 281435, Note_on_c, 0, 69, 90
1, 281444, Note_off_c, 0, 54, 60
1, 281469, Note_off_c, 0, 50, 43
1, 281498, Note_off_c, 0, 69, 55
1, 281513, Note_off_c, 0, 81, 57
1, 281573, Control_c, 0, 64, 98
1, 281588, Control_c, 0, 64, 76
1, 281591, Note_on_c, 0, 46, 83
1, 281603, Control_c, 0, 64, 47
1, 281610, Note_on_c, 0, 79, 76
1, 281612, Note_on_c, 0, 67, 86
1, 281640, Control_c, 0, 64, 65
1, 281645, Note_off_c, 0, 46, 53
1, 281655, Control_c, 0, 64, 71
1, 281670, Note_off_c, 0, 67, 61
1, 281670, Control_c, 0, 64, 81
1, 281684, Control_c, 0, 64, 92
1, 281699, Control_c, 0, 64, 99
1, 281715, Control_c, 0, 64, 102
1, 281718, Note_off_c, 0, 79, 60
1, 281730, Control_c, 0, 64, 103
1, 281745, Control_c, 0, 64, 105
1, 281759, Control_c, 0, 64, 106
1, 281774, Control_c, 0, 64, 108
1, 281780, Note_on_c, 0, 62, 61
1, 281789, Control_c, 0, 64, 110
1, 281804, Control_c, 0, 64, 112
1, 281808, Note_on_c, 0, 73, 70
1, 281814, Note_off_c, 0, 62, 62
1, 281819, Control_c, 0, 64, 114
1, 281833, Control_c, 0, 64, 115
1, 281848, Control_c, 0, 64, 117
1, 281863, Note_on_c, 0, 74, 70
1, 281863, Control_c, 0, 64, 119
1, 281864, Note_off_c, 0, 73, 62
1, 281877, Control_c, 0, 64, 120
1, 281892, Control_c, 0, 64, 121
1, 281914, Note_on_c, 0, 77, 72
1, 281916, Note_on_c, 0, 55, 17
1, 281931, Note_off_c, 0, 74, 62
1, 281957, Note_off_c, 0, 55, 53
1, 281960, Note_on_c, 0, 75, 85
1, 281973, Note_off_c, 0, 77, 61
1, 281980, Poly_aftertouch_c, 0, 50, 0
1, 281993, Note_off_c, 0, 75, 71
1, 282007, Note_on_c, 0, 74, 77
1, 282025, Note_off_c, 0, 74, 74
1, 282027, Control_c, 0, 64, 120
1, 282042, Control_c, 0, 64, 108
1, 282056, Control_c, 0, 64, 81
1, 282058, Note_on_c, 0, 45, 74
1, 282071, Control_c, 0, 64, 38
1, 282084, Note_on_c, 0, 74, 86
1, 282086, Control_c, 0, 64, 0
1, 282091, Note_off_c, 0, 45, 66
1, 282100, Control_c, 0, 64, 48
1, 282101, Note_on_c, 0, 76, 54
1, 282115, Control_c, 0, 64, 66
1, 282130, Control_c, 0, 64, 73
1, 282145, Control_c, 0, 64, 85
1, 282160, Control_c, 0, 64, 100
1, 282175, Control_c, 0, 64, 107
1, 282190, Control_c, 0, 64, 110
1, 282205, Control_c, 0, 64, 111
1, 282220, Control_c, 0, 64, 113
1, 282231, Note_on_c, 0, 62, 58
1, 282235, Control_c, 0, 64, 114
1, 282246, Note_on_c, 0, 86, 85
1, 282248, Note_on_c, 0, 78, 80
1, 282249, Control_c, 0, 64, 115
1, 282263, Note_off_c, 0, 62, 62
1, 282302, Note_off_c, 0, 76, 22
1, 282339, Note_off_c, 0, 86, 58
1, 282364, Note_on_c, 0, 57, 49
1, 282372, Note_on_c, 0, 50, 52
1, 282377, Note_off_c, 0, 78, 62
1, 282393, Note_on_c, 0, 84, 78
1, 282399, Note_off_c, 0, 50, 61
1, 282399, Note_off_c, 0, 57, 52
1, 282450, Note_off_c, 0, 74, 60
1, 282493, Control_c, 0, 64, 111
1, 282507, Control_c, 0, 64, 96
1, 282522, Control_c, 0, 64, 77
1, 282535, Note_on_c, 0, 43, 60
1, 282537, Control_c, 0, 64, 0
1, 282548, Note_on_c, 0, 82, 78
1, 282550, Note_off_c, 0, 84, 54
1, 282551, Note_on_c, 0, 79, 69
1, 282567, Control_c, 0, 64, 39
1, 282574, Note_off_c, 0, 43, 60
1, 282581, Control_c, 0, 64, 64
1, 282592, Note_off_c, 0, 79, 64
1, 282596, Control_c, 0, 64, 70
1, 282599, Note_off_c, 0, 82, 63
1, 282611, Control_c, 0, 64, 78
1, 282625, Control_c, 0, 64, 89
1, 282640, Control_c, 0, 64, 95
1, 282655, Control_c, 0, 64, 97
1, 282670, Control_c, 0, 64, 98
1, 282685, Control_c, 0, 64, 100
1, 282700, Control_c, 0, 64, 102
1, 282715, Control_c, 0, 64, 104
1, 282729, Control_c, 0, 64, 106
1, 282744, Control_c, 0, 64, 107
1, 282745, Note_on_c, 0, 66, 64
1, 282748, Note_on_c, 0, 62, 49
1, 282759, Control_c, 0, 64, 108
1, 282774, Control_c, 0, 64, 109
1, 282779, Note_off_c, 0, 62, 54
1, 282790, Note_on_c, 0, 67, 54
1, 282792, Note_off_c, 0, 66, 52
1, 282804, Control_c, 0, 64, 109
1, 282860, Note_on_c, 0, 70, 64
1, 282863, Note_on_c, 0, 55, 49
1, 282872, Note_off_c, 0, 67, 62
1, 282893, Note_on_c, 0, 68, 73
1, 282896, Note_off_c, 0, 55, 65
1, 282916, Note_off_c, 0, 70, 61
1, 282953, Note_on_c, 0, 67, 66
1, 282954, Note_off_c, 0, 68, 64
1, 282977, Note_off_c, 0, 67, 66
1, 282983, Control_c, 0, 64, 109
1, 282997, Control_c, 0, 64, 104
1, 283012, Control_c, 0, 64, 88
1, 283027, Control_c, 0, 64, 70
1, 283028, Note_on_c, 0, 47, 62
1, 283032, Note_on_c, 0, 67, 76
1, 283041, Control_c, 0, 64, 0
1, 283063, Note_off_c, 0, 47, 65
1, 283071, Control_c, 0, 64, 56
1, 283086, Control_c, 0, 64, 64
1, 283101, Control_c, 0, 64, 69
1, 283123, Control_c, 0, 64, 78
1, 283138, Control_c, 0, 64, 88
1, 283153, Control_c, 0, 64, 94
1, 283168, Control_c, 0, 64, 95
1, 283183, Control_c, 0, 64, 96
1, 283224, Note_on_c, 0, 62, 57
1, 283225, Note_on_c, 0, 79, 74
1, 283236, Note_on_c, 0, 71, 54
1, 283270, Note_off_c, 0, 62, 55
1, 283284, Note_off_c, 0, 71, 46
1, 283375, Note_on_c, 0, 55, 41
1, 283379, Note_on_c, 0, 77, 71
1, 283399, Note_off_c, 0, 67, 55
1, 283424, Note_off_c, 0, 55, 51
1, 283439, Note_off_c, 0, 79, 21
1, 283478, Control_c, 0, 64, 93
1, 283493, Control_c, 0, 64, 82
1, 283495, Note_off_c, 0, 77, 53
1, 283508, Control_c, 0, 64, 65
1, 283522, Control_c, 0, 64, 0
1, 283531, Note_on_c, 0, 75, 73
1, 283532, Note_on_c, 0, 48, 49
1, 283546, Note_on_c, 0, 72, 38
1, 283552, Control_c, 0, 64, 60
1, 283567, Control_c, 0, 64, 66
1, 283571, Note_off_c, 0, 48, 63
1, 283575, Note_off_c, 0, 72, 35
1, 283582, Control_c, 0, 64, 71
1, 283586, Note_off_c, 0, 75, 66
1, 283598, Control_c, 0, 64, 79
1, 283613, Control_c, 0, 64, 88
1, 283627, Control_c, 0, 64, 95
1, 283642, Control_c, 0, 64, 99
1, 283657, Control_c, 0, 64, 101
1, 283671, Control_c, 0, 64, 104
1, 283686, Control_c, 0, 64, 109
1, 283701, Note_on_c, 0, 63, 62
1, 283701, Control_c, 0, 64, 114
1, 283712, Note_on_c, 0, 78, 66
1, 283716, Control_c, 0, 64, 116
1, 283731, Control_c, 0, 64, 117
1, 283746, Control_c, 0, 64, 117
1, 283750, Note_off_c, 0, 63, 58
1, 283751, Note_off_c, 0, 78, 55
1, 283760, Note_on_c, 0, 79, 67
1, 283761, Control_c, 0, 64, 118
1, 283776, Control_c, 0, 64, 118
1, 283810, Note_on_c, 0, 82, 71
1, 283811, Note_on_c, 0, 55, 45
1, 283825, Note_off_c, 0, 79, 59
1, 283835, Control_c, 0, 64, 118
1, 283853, Note_on_c, 0, 80, 76
1, 283864, Note_off_c, 0, 55, 56
1, 283864, Note_off_c, 0, 82, 62
1, 283911, Note_off_c, 0, 80, 67
1, 283916, Note_on_c, 0, 79, 72
1, 283931, Control_c, 0, 64, 111
1, 283934, Note_off_c, 0, 79, 67
1, 283946, Control_c, 0, 64, 94
1, 283961, Control_c, 0, 64, 74
1, 283975, Control_c, 0, 64, 0
1, 283979, Note_on_c, 0, 50, 59
1, 283984, Note_on_c, 0, 79, 87
1, 283990, Control_c, 0, 64, 51
1, 284005, Control_c, 0, 64, 66
1, 284020, Control_c, 0, 64, 72
1, 284022, Note_off_c, 0, 50, 62
1, 284035, Control_c, 0, 64, 81
1, 284050, Control_c, 0, 64, 91
1, 284065, Control_c, 0, 64, 99
1, 284079, Control_c, 0, 64, 102
1, 284094, Control_c, 0, 64, 103
1, 284109, Control_c, 0, 64, 103
1, 284124, Control_c, 0, 64, 104
1, 284138, Note_on_c, 0, 65, 70
1, 284139, Control_c, 0, 64, 104
1, 284142, Note_on_c, 0, 91, 83
1, 284144, Note_on_c, 0, 83, 74
1, 284172, Note_off_c, 0, 65, 59
1, 284227, Note_off_c, 0, 83, 59
1, 284244, Note_off_c, 0, 91, 55
1, 284280, Note_on_c, 0, 59, 51
1, 284281, Note_on_c, 0, 55, 55
1, 284286, Note_on_c, 0, 89, 81
1, 284309, Note_off_c, 0, 59, 64
1, 284320, Note_off_c, 0, 55, 64
1, 284330, Note_off_c, 0, 79, 59
1, 284391, Control_c, 0, 64, 102
1, 284406, Control_c, 0, 64, 92
1, 284409, Note_off_c, 0, 89, 55
1, 284421, Control_c, 0, 64, 76
1, 284435, Note_on_c, 0, 51, 75
1, 284436, Control_c, 0, 64, 51
1, 284437, Note_on_c, 0, 87, 81
1, 284440, Note_on_c, 0, 84, 71
1, 284450, Control_c, 0, 64, 40
1, 284465, Control_c, 0, 64, 63
1, 284480, Control_c, 0, 64, 68
1, 284484, Note_off_c, 0, 51, 52
1, 284487, Note_off_c, 0, 84, 64
1, 284494, Note_off_c, 0, 87, 64
1, 284494, Control_c, 0, 64, 74
1, 284509, Control_c, 0, 64, 82
1, 284524, Control_c, 0, 64, 90
1, 284539, Control_c, 0, 64, 97
1, 284554, Control_c, 0, 64, 101
1, 284569, Control_c, 0, 64, 104
1, 284584, Control_c, 0, 64, 108
1, 284598, Control_c, 0, 64, 111
1, 284603, Note_on_c, 0, 67, 70
1, 284611, Note_on_c, 0, 78, 75
1, 284613, Control_c, 0, 64, 112
1, 284636, Control_c, 0, 64, 114
1, 284643, Note_off_c, 0, 67, 58
1, 284665, Control_c, 0, 64, 114
1, 284673, Note_on_c, 0, 79, 63
1, 284679, Note_off_c, 0, 78, 58
1, 284727, Note_on_c, 0, 82, 73
1, 284744, Note_on_c, 0, 57, 44
1, 284749, Note_off_c, 0, 79, 61
1, 284762, Note_on_c, 0, 60, 36
1, 284767, Note_on_c, 0, 80, 79
1, 284781, Note_off_c, 0, 82, 64
1, 284786, Note_off_c, 0, 57, 59
1, 284792, Note_off_c, 0, 60, 48
1, 284815, Note_on_c, 0, 79, 76
1, 284821, Note_off_c, 0, 80, 64
1, 284828, Control_c, 0, 64, 111
1, 284843, Control_c, 0, 64, 97
1, 284843, Note_off_c, 0, 79, 64
1, 284858, Control_c, 0, 64, 77
1, 284873, Control_c, 0, 64, 32
1, 284888, Control_c, 0, 64, 0
1, 284890, Note_on_c, 0, 53, 75
1, 284897, Note_on_c, 0, 79, 89
1, 284902, Control_c, 0, 64, 63
1, 284917, Control_c, 0, 64, 69
1, 284932, Note_off_c, 0, 53, 66
1, 284932, Control_c, 0, 64, 77
1, 284940, Note_off_c, 0, 79, 66
1, 284947, Control_c, 0, 64, 88
1, 284962, Control_c, 0, 64, 99
1, 284976, Control_c, 0, 64, 110
1, 284991, Control_c, 0, 64, 121
1, 285006, Control_c, 0, 64, 127
1, 285049, Note_on_c, 0, 65, 73
1, 285055, Note_on_c, 0, 75, 98
1, 285058, Note_on_c, 0, 87, 90
1, 285096, Note_off_c, 0, 75, 64
1, 285101, Note_off_c, 0, 65, 57
1, 285104, Note_off_c, 0, 87, 62
1, 285184, Note_on_c, 0, 59, 52
1, 285206, Note_on_c, 0, 74, 91
1, 285208, Note_on_c, 0, 86, 86
1, 285213, Note_off_c, 0, 59, 64
1, 285260, Note_off_c, 0, 74, 65
1, 285271, Note_off_c, 0, 86, 61
1, 285370, Control_c, 0, 64, 122
1, 285385, Control_c, 0, 64, 90
1, 285399, Control_c, 0, 64, 66
1, 285400, Note_on_c, 0, 51, 65
1, 285412, Note_on_c, 0, 84, 77
1, 285414, Control_c, 0, 64, 0
1, 285415, Note_on_c, 0, 72, 80
1, 285429, Control_c, 0, 64, 57
1, 285443, Control_c, 0, 64, 67
1, 285447, Note_off_c, 0, 51, 56
1, 285448, Note_off_c, 0, 84, 65
1, 285459, Control_c, 0, 64, 73
1, 285465, Note_off_c, 0, 72, 63
1, 285474, Control_c, 0, 64, 83
1, 285489, Control_c, 0, 64, 94
1, 285504, Control_c, 0, 64, 103
1, 285518, Control_c, 0, 64, 107
1, 285533, Control_c, 0, 64, 111
1, 285548, Control_c, 0, 64, 116
1, 285563, Control_c, 0, 64, 127
1, 285615, Note_on_c, 0, 66, 66
1, 285666, Note_on_c, 0, 67, 63
1, 285666, Note_off_c, 0, 66, 51
1, 285689, Note_on_c, 0, 60, 49
1, 285707, Note_on_c, 0, 70, 70
1, 285728, Note_off_c, 0, 60, 60
1, 285728, Note_off_c, 0, 67, 62
1, 285744, Note_on_c, 0, 68, 75
1, 285746, Note_on_c, 0, 55, 11
1, 285764, Note_off_c, 0, 70, 61
1, 285789, Note_off_c, 0, 55, 41
1, 285796, Note_on_c, 0, 67, 78
1, 285803, Note_off_c, 0, 68, 63
1, 285824, Note_off_c, 0, 67, 66
1, 285830, Control_c, 0, 64, 123
1, 285844, Control_c, 0, 64, 95
1, 285859, Control_c, 0, 64, 71
1, 285874, Control_c, 0, 64, 0
1, 285879, Note_on_c, 0, 67, 85
1, 285898, Note_on_c, 0, 48, 36
1, 285901, Note_on_c, 0, 50, 33
1, 285904, Control_c, 0, 64, 22
1, 285918, Control_c, 0, 64, 62
1, 285929, Note_off_c, 0, 50, 50
1, 285931, Note_off_c, 0, 48, 47
1, 285933, Control_c, 0, 64, 71
1, 285948, Control_c, 0, 64, 81
1, 285963, Control_c, 0, 64, 92
1, 285978, Control_c, 0, 64, 100
1, 285994, Control_c, 0, 64, 102
1, 286008, Control_c, 0, 64, 103
1, 286023, Control_c, 0, 64, 104
1, 286038, Control_c, 0, 64, 104
1, 286038, Note_on_c, 0, 62, 61
1, 286050, Note_on_c, 0, 79, 80
1, 286053, Control_c, 0, 64, 105
1, 286074, Note_off_c, 0, 62, 57
1, 286161, Note_off_c, 0, 79, 57
1, 286178, Poly_aftertouch_c, 0, 71, 0
1, 286187, Note_on_c, 0, 55, 56
1, 286199, Note_on_c, 0, 77, 80
1, 286270, Note_off_c, 0, 55, 52
1, 286288, Poly_aftertouch_c, 0, 79, 0
1, 286294, Note_off_c, 0, 67, 56
1, 286296, Control_c, 0, 64, 104
1, 286311, Control_c, 0, 64, 98
1, 286326, Control_c, 0, 64, 84
1, 286340, Control_c, 0, 64, 64
1, 286345, Note_on_c, 0, 75, 81
1, 286354, Note_on_c, 0, 48, 62
1, 286355, Control_c, 0, 64, 0
1, 286371, Note_off_c, 0, 77, 55
1, 286385, Control_c, 0, 64, 62
1, 286400, Control_c, 0, 64, 68
1, 286410, Note_off_c, 0, 75, 65
1, 286414, Control_c, 0, 64, 75
1, 286426, Note_off_c, 0, 48, 63
1, 286429, Control_c, 0, 64, 84
1, 286444, Control_c, 0, 64, 92
1, 286459, Control_c, 0, 64, 95
1, 286518, Control_c, 0, 64, 95
1, 286520, Note_on_c, 0, 60, 60
1, 286520, Note_on_c, 0, 62, 69
1, 286533, Control_c, 0, 64, 96
1, 286566, Note_on_c, 0, 63, 77
1, 286572, Note_off_c, 0, 60, 51
1, 286582, Note_off_c, 0, 62, 56
1, 286618, Note_on_c, 0, 67, 70
1, 286634, Note_on_c, 0, 55, 54
1, 286640, Note_off_c, 0, 63, 63
1, 286657, Note_on_c, 0, 65, 78
1, 286689, Note_off_c, 0, 67, 62
1, 286713, Note_on_c, 0, 63, 81
1, 286730, Note_off_c, 0, 55, 57
1, 286732, Note_off_c, 0, 65, 65
1, 286740, Control_c, 0, 64, 95
1, 286748, Note_off_c, 0, 63, 66
1, 286755, Control_c, 0, 64, 85
1, 286770, Control_c, 0, 64, 68
1, 286786, Control_c, 0, 64, 0
1, 286795, Note_on_c, 0, 46, 77
1, 286801, Note_on_c, 0, 63, 85
1, 286816, Control_c, 0, 64, 24
1, 286831, Control_c, 0, 64, 62
1, 286845, Control_c, 0, 64, 70
1, 286867, Control_c, 0, 64, 79
1, 286882, Control_c, 0, 64, 89
1, 286887, Note_off_c, 0, 46, 61
1, 286897, Control_c, 0, 64, 94
1, 286912, Control_c, 0, 64, 95
1, 286956, Control_c, 0, 64, 96
1, 286986, Note_on_c, 0, 61, 70
1, 286986, Control_c, 0, 64, 96
1, 286986, Note_on_c, 0, 75, 82
1, 286989, Note_on_c, 0, 67, 75
1, 287051, Note_off_c, 0, 61, 61
1, 287092, Note_off_c, 0, 67, 61
1, 287094, Note_off_c, 0, 75, 59
1, 287119, Note_on_c, 0, 55, 72
1, 287134, Note_on_c, 0, 73, 75
1, 287150, Note_off_c, 0, 55, 68
1, 287221, Note_off_c, 0, 63, 63
1, 287237, Note_off_c, 0, 73, 62
1, 287237, Control_c, 0, 64, 91
1, 287252, Control_c, 0, 64, 76
1, 287267, Control_c, 0, 64, 0
1, 287278, Note_on_c, 0, 44, 91
1, 287285, Note_on_c, 0, 68, 86
1, 287287, Note_on_c, 0, 71, 85
1, 287311, Control_c, 0, 64, 63
1, 287326, Control_c, 0, 64, 71
1, 287330, Note_off_c, 0, 44, 61
1, 287332, Note_off_c, 0, 68, 64
1, 287341, Control_c, 0, 64, 81
1, 287342, Note_off_c, 0, 71, 63
1, 287356, Control_c, 0, 64, 90
1, 287371, Control_c, 0, 64, 95
1, 287386, Control_c, 0, 64, 96
1, 287430, Control_c, 0, 64, 97
1, 287445, Control_c, 0, 64, 98
1, 287446, Note_on_c, 0, 59, 66
1, 287460, Control_c, 0, 64, 98
1, 287467, Note_on_c, 0, 72, 45
1, 287478, Note_on_c, 0, 74, 46
1, 287483, Note_off_c, 0, 59, 57
1, 287496, Note_off_c, 0, 72, 60
1, 287535, Note_on_c, 0, 56, 35
1, 287544, Note_off_c, 0, 74, 64
1, 287551, Note_on_c, 0, 77, 74
1, 287557, Note_on_c, 0, 51, 55
1, 287573, Note_off_c, 0, 56, 62
1, 287591, Note_off_c, 0, 51, 64
1, 287594, Note_on_c, 0, 76, 71
1, 287601, Note_off_c, 0, 77, 60
1, 287635, Note_on_c, 0, 75, 85
1, 287649, Note_off_c, 0, 76, 66
1, 287660, Control_c, 0, 64, 94
1, 287670, Note_off_c, 0, 75, 67
1, 287675, Control_c, 0, 64, 79
1, 287690, Control_c, 0, 64, 44
1, 287695, Note_on_c, 0, 43, 78
1, 287705, Control_c, 0, 64, 0
1, 287720, Control_c, 0, 64, 18
1, 287730, Note_off_c, 0, 43, 63
1, 287734, Control_c, 0, 64, 63
1, 287735, Note_on_c, 0, 76, 75
1, 287740, Note_on_c, 0, 77, 77
1, 287749, Control_c, 0, 64, 71
1, 287764, Control_c, 0, 64, 80
1, 287767, Note_off_c, 0, 77, 56
1, 287779, Control_c, 0, 64, 91
1, 287794, Control_c, 0, 64, 101
1, 287809, Control_c, 0, 64, 106
1, 287812, Note_off_c, 0, 76, 63
1, 287824, Control_c, 0, 64, 110
1, 287838, Control_c, 0, 64, 116
1, 287853, Control_c, 0, 64, 124
1, 287860, Note_on_c, 0, 63, 76
1, 287867, Note_on_c, 0, 87, 86
1, 287868, Control_c, 0, 64, 127
1, 287872, Note_on_c, 0, 82, 85
1, 287910, Note_on_c, 0, 75, 24
1, 287919, Note_off_c, 0, 63, 59
1, 287949, Note_off_c, 0, 75, 40
1, 287957, Note_off_c, 0, 87, 62
1, 287962, Note_off_c, 0, 82, 61
1, 287989, Note_on_c, 0, 51, 54
1, 287997, Note_on_c, 0, 58, 39
1, 288013, Note_on_c, 0, 85, 90
1, 288027, Note_off_c, 0, 58, 53
1, 288035, Note_off_c, 0, 51, 62
1, 288038, Note_on_c, 0, 75, 59
1, 288057, Note_off_c, 0, 75, 63
1, 288104, Note_off_c, 0, 85, 61
1, 288134, Control_c, 0, 64, 116
1, 288149, Control_c, 0, 64, 90
1, 288152, Note_on_c, 0, 44, 79
1, 288162, Note_on_c, 0, 83, 79
1, 288164, Control_c, 0, 64, 63
1, 288166, Note_on_c, 0, 74, 70
1, 288168, Note_on_c, 0, 80, 76
1, 288178, Note_on_c, 0, 76, 73
1, 288179, Control_c, 0, 64, 0
1, 288185, Note_off_c, 0, 80, 65
1, 288186, Note_off_c, 0, 44, 66
1, 288188, Note_on_c, 0, 82, 42
1, 288193, Note_on_c, 0, 46, 14
1, 288194, Note_off_c, 0, 46, 127
1, 288196, Note_off_c, 0, 76, 60
1, 288201, Note_on_c, 0, 79, 59
1, 288208, Control_c, 0, 64, 63
1, 288210, Note_off_c, 0, 82, 35
1, 288215, Note_off_c, 0, 74, 62
1, 288223, Control_c, 0, 64, 70
1, 288229, Note_off_c, 0, 79, 60
1, 288234, Note_off_c, 0, 83, 60
1, 288238, Control_c, 0, 64, 79
1, 288253, Control_c, 0, 64, 89
1, 288268, Control_c, 0, 64, 96
1, 288283, Control_c, 0, 64, 97
1, 288313, Note_on_c, 0, 63, 71
1, 288327, Control_c, 0, 64, 97
1, 288342, Note_off_c, 0, 63, 66
1, 288342, Control_c, 0, 64, 98
1, 288364, Control_c, 0, 64, 98
1, 288365, Note_on_c, 0, 74, 48
1, 288379, Control_c, 0, 64, 99
1, 288381, Note_on_c, 0, 75, 70
1, 288388, Note_off_c, 0, 74, 60
1, 288395, Control_c, 0, 64, 100
1, 288410, Control_c, 0, 64, 100
1, 288419, Note_on_c, 0, 51, 61
1, 288420, Note_on_c, 0, 78, 74
1, 288424, Control_c, 0, 64, 101
1, 288447, Note_off_c, 0, 75, 61
1, 288474, Note_off_c, 0, 51, 61
1, 288474, Note_on_c, 0, 76, 61
1, 288477, Note_off_c, 0, 78, 63
1, 288483, Note_on_c, 0, 77, 47
1, 288499, Control_c, 0, 64, 101
1, 288508, Note_off_c, 0, 77, 52
1, 288509, Note_on_c, 0, 75, 81
1, 288521, Note_off_c, 0, 76, 65
1, 288550, Note_off_c, 0, 75, 66
1, 288558, Control_c, 0, 64, 98
1, 288573, Control_c, 0, 64, 81
1, 288586, Note_on_c, 0, 46, 85
1, 288588, Control_c, 0, 64, 54
1, 288603, Control_c, 0, 64, 0
1, 288609, Note_on_c, 0, 72, 88
1, 288617, Control_c, 0, 64, 34
1, 288622, Note_off_c, 0, 46, 61
1, 288627, Note_on_c, 0, 83, 66
1, 288632, Control_c, 0, 64, 65
1, 288637, Note_off_c, 0, 72, 67
1, 288647, Note_off_c, 0, 83, 65
1, 288647, Control_c, 0, 64, 72
1, 288661, Control_c, 0, 64, 84
1, 288676, Control_c, 0, 64, 94
1, 288691, Control_c, 0, 64, 99
1, 288706, Control_c, 0, 64, 100
1, 288736, Control_c, 0, 64, 101
1, 288748, Note_on_c, 0, 63, 78
1, 288751, Control_c, 0, 64, 103
1, 288759, Note_on_c, 0, 83, 70
1, 288760, Note_on_c, 0, 71, 83
1, 288766, Control_c, 0, 64, 106
1, 288773, Note_off_c, 0, 63, 63
1, 288774, Note_on_c, 0, 81, 62
1, 288778, Note_on_c, 0, 69, 46
1, 288779, Note_off_c, 0, 69, 127
1, 288781, Control_c, 0, 64, 108
1, 288794, Note_off_c, 0, 81, 40
1, 288796, Control_c, 0, 64, 108
1, 288810, Control_c, 0, 64, 109
1, 288811, Note_off_c, 0, 71, 61
1, 288820, Note_off_c, 0, 83, 59
1, 288856, Poly_aftertouch_c, 0, 54, 0
1, 288888, Note_on_c, 0, 61, 72
1, 288912, Note_on_c, 0, 82, 82
1, 288915, Note_on_c, 0, 83, 64
1, 288915, Note_off_c, 0, 61, 65
1, 288918, Note_on_c, 0, 51, 52
1, 288922, Note_on_c, 0, 55, 37
1, 288933, Note_off_c, 0, 83, 60
1, 288942, Note_on_c, 0, 80, 42
1, 288949, Note_on_c, 0, 71, 22
1, 288952, Note_off_c, 0, 51, 61
1, 288954, Note_off_c, 0, 55, 48
1, 288963, Note_off_c, 0, 82, 64
1, 288969, Note_off_c, 0, 80, 55
1, 288984, Note_off_c, 0, 71, 46
1, 289213, Note_on_c, 0, 48, 62
1, 289219, Note_on_c, 0, 80, 86
1, 289221, Note_on_c, 0, 68, 94
1, 289243, Note_on_c, 0, 78, 61
1, 289250, Note_off_c, 0, 48, 65
1, 289280, Note_off_c, 0, 78, 59
1, 289290, Note_off_c, 0, 68, 59
1, 289294, Note_off_c, 0, 80, 61
1, 289352, Control_c, 0, 64, 103
1, 289361, Note_on_c, 0, 48, 84
1, 289366, Control_c, 0, 64, 86
1, 289378, Note_on_c, 0, 68, 92
1, 289379, Note_on_c, 0, 78, 93
1, 289381, Control_c, 0, 64, 64
1, 289396, Control_c, 0, 64, 0
1, 289422, Note_on_c, 0, 80, 42
1, 289425, Control_c, 0, 64, 64
1, 289428, Note_off_c, 0, 48, 66
1, 289430, Note_on_c, 0, 79, 34
1, 289437, Note_off_c, 0, 68, 61
1, 289440, Control_c, 0, 64, 70
1, 289452, Note_off_c, 0, 80, 56
1, 289455, Control_c, 0, 64, 77
1, 289464, Note_off_c, 0, 79, 47
1, 289467, Note_off_c, 0, 78, 56
1, 289470, Control_c, 0, 64, 87
1, 289485, Control_c, 0, 64, 94
1, 289499, Control_c, 0, 64, 96
1, 289546, Note_on_c, 0, 64, 64
1, 289559, Note_on_c, 0, 72, 66
1, 289559, Control_c, 0, 64, 97
1, 289578, Note_off_c, 0, 64, 64
1, 289583, Note_on_c, 0, 74, 51
1, 289583, Note_on_c, 0, 75, 72
1, 289589, Control_c, 0, 64, 97
1, 289590, Note_off_c, 0, 72, 52
1, 289604, Note_off_c, 0, 74, 63
1, 289618, Control_c, 0, 64, 98
1, 289624, Note_on_c, 0, 78, 74
1, 289644, Poly_aftertouch_c, 0, 60, 0
1, 289659, Note_off_c, 0, 78, 64
1, 289675, Note_on_c, 0, 76, 68
1, 289718, Note_off_c, 0, 76, 66
1, 289736, Note_off_c, 0, 75, 68
1, 289737, Control_c, 0, 64, 97
1, 289752, Control_c, 0, 64, 88
1, 289766, Control_c, 0, 64, 70
1, 289781, Note_on_c, 0, 43, 83
1, 289781, Control_c, 0, 64, 0
1, 289806, Note_on_c, 0, 76, 79
1, 289810, Control_c, 0, 64, 39
1, 289813, Note_on_c, 0, 77, 80
1, 289816, Note_off_c, 0, 43, 64
1, 289825, Control_c, 0, 64, 64
1, 289840, Control_c, 0, 64, 71
1, 289863, Control_c, 0, 64, 81
1, 289875, Note_off_c, 0, 77, 38
1, 289878, Control_c, 0, 64, 90
1, 289885, Note_off_c, 0, 76, 60
1, 289892, Control_c, 0, 64, 95
1, 289907, Control_c, 0, 64, 95
1, 289922, Control_c, 0, 64, 96
1, 289937, Control_c, 0, 64, 97
1, 289939, Note_on_c, 0, 87, 84
1, 289941, Note_on_c, 0, 82, 77
1, 289942, Note_on_c, 0, 63, 80
1, 289950, Control_c, 0, 64, 98
1, 289964, Control_c, 0, 64, 100
1, 289976, Note_off_c, 0, 63, 57
1, 289977, Note_on_c, 0, 59, 23
1, 289979, Control_c, 0, 64, 101
1, 289989, Note_on_c, 0, 56, 14
1, 289995, Control_c, 0, 64, 101
1, 290010, Control_c, 0, 64, 102
1, 290024, Note_off_c, 0, 82, 61
1, 290027, Note_off_c, 0, 87, 59
1, 290057, Note_off_c, 0, 59, 32
1, 290062, Note_on_c, 0, 51, 68
1, 290064, Note_on_c, 0, 85, 85
1, 290105, Note_off_c, 0, 56, 27
1, 290108, Note_off_c, 0, 51, 61
1, 290113, Control_c, 0, 64, 102
1, 290161, Note_off_c, 0, 85, 61
1, 290173, Control_c, 0, 64, 97
1, 290188, Control_c, 0, 64, 79
1, 290201, Note_on_c, 0, 44, 85
1, 290203, Control_c, 0, 64, 39
1, 290208, Note_on_c, 0, 83, 80
1, 290216, Note_on_c, 0, 85, 55
1, 290217, Control_c, 0, 64, 0
1, 290220, Note_on_c, 0, 76, 67
1, 290227, Note_on_c, 0, 82, 38
1, 290228, Note_on_c, 0, 74, 53
1, 290228, Note_on_c, 0, 79, 72
1, 290247, Control_c, 0, 64, 63
1, 290247, Note_off_c, 0, 85, 67
1, 290254, Note_off_c, 0, 44, 62
1, 290260, Note_off_c, 0, 82, 32
1, 290262, Control_c, 0, 64, 71
1, 290271, Note_off_c, 0, 79, 64
1, 290272, Note_off_c, 0, 74, 46
1, 290273, Note_off_c, 0, 83, 59
1, 290277, Control_c, 0, 64, 80
1, 290289, Note_off_c, 0, 76, 48
1, 290292, Control_c, 0, 64, 91
1, 290307, Control_c, 0, 64, 96
1, 290364, Note_on_c, 0, 63, 82
1, 290372, Note_on_c, 0, 74, 81
1, 290380, Control_c, 0, 64, 96
1, 290408, Note_off_c, 0, 63, 57
1, 290450, Note_on_c, 0, 75, 67
1, 290452, Note_off_c, 0, 74, 65
1, 290454, Note_on_c, 0, 79, 36
1, 290459, Note_on_c, 0, 56, 24
1, 290471, Note_on_c, 0, 76, 55
1, 290477, Note_on_c, 0, 77, 59
1, 290494, Note_off_c, 0, 79, 46
1, 290504, Note_off_c, 0, 56, 59
1, 290513, Note_off_c, 0, 77, 58
1, 290525, Note_off_c, 0, 76, 62
1, 290548, Note_off_c, 0, 75, 65
1, 290573, Control_c, 0, 64, 95
1, 290587, Control_c, 0, 64, 86
1, 290596, Note_on_c, 0, 48, 87
1, 290609, Note_on_c, 0, 75, 86
1, 290610, Control_c, 0, 64, 67
1, 290615, Note_on_c, 0, 82, 78
1, 290624, Note_on_c, 0, 80, 62
1, 290625, Control_c, 0, 64, 0
1, 290644, Note_on_c, 0, 78, 39
1, 290654, Control_c, 0, 64, 18
1, 290661, Note_off_c, 0, 48, 64
1, 290661, Note_off_c, 0, 75, 63
1, 290662, Note_off_c, 0, 80, 58
1, 290669, Control_c, 0, 64, 65
1, 290673, Note_off_c, 0, 78, 46
1, 290674, Note_off_c, 0, 82, 60
1, 290684, Control_c, 0, 64, 73
1, 290699, Control_c, 0, 64, 84
1, 290713, Control_c, 0, 64, 95
1, 290728, Control_c, 0, 64, 100
1, 290743, Control_c, 0, 64, 101
1, 290757, Control_c, 0, 64, 103
1, 290766, Note_on_c, 0, 64, 76
1, 290772, Control_c, 0, 64, 106
1, 290789, Control_c, 0, 64, 112
1, 290800, Note_off_c, 0, 64, 60
1, 290804, Control_c, 0, 64, 117
1, 290817, Note_on_c, 0, 71, 52
1, 290818, Control_c, 0, 64, 122
1, 290820, Note_on_c, 0, 81, 42
1, 290832, Poly_aftertouch_c, 0, 59, 127
1, 290833, Control_c, 0, 64, 127
1, 290839, Note_off_c, 0, 71, 38
1, 290846, Note_off_c, 0, 81, 49
1, 290864, Poly_aftertouch_c, 0, 56, 0
1, 290873, Poly_aftertouch_c, 0, 59, 0
1, 290915, Note_on_c, 0, 64, 80
1, 290917, Note_on_c, 0, 71, 86
1, 290918, Note_on_c, 0, 83, 88
1, 290927, Note_on_c, 0, 59, 61
1, 290931, Note_on_c, 0, 81, 72
1, 290936, Note_on_c, 0, 56, 63
1, 290949, Note_off_c, 0, 81, 41
1, 290978, Note_off_c, 0, 64, 63
1, 290987, Note_off_c, 0, 71, 52
1, 290997, Note_off_c, 0, 83, 57
1, 291025, Note_off_c, 0, 59, 58
1, 291082, Note_off_c, 0, 56, 62
1, 291093, Note_on_c, 0, 82, 96
1, 291098, Note_on_c, 0, 70, 95
1, 291140, Note_off_c, 0, 70, 60
1, 291154, Note_off_c, 0, 82, 60
1, 291262, Control_c, 0, 64, 124
1, 291277, Control_c, 0, 64, 87
1, 291292, Control_c, 0, 64, 0
1, 291301, Note_on_c, 0, 40, 75
1, 291308, Note_on_c, 0, 52, 90
1, 291311, Note_on_c, 0, 68, 100
1, 291326, Note_on_c, 0, 80, 63
1, 291327, Note_off_c, 0, 80, 127
1, 291336, Note_on_c, 0, 78, 61
1, 291336, Control_c, 0, 64, 56
1, 291340, Note_off_c, 0, 40, 65
1, 291342, Note_on_c, 0, 79, 74
1, 291351, Control_c, 0, 64, 68
1, 291352, Note_off_c, 0, 52, 64
1, 291362, Note_off_c, 0, 68, 65
1, 291363, Note_off_c, 0, 78, 41
1, 291374, Control_c, 0, 64, 78
1, 291388, Note_off_c, 0, 79, 61
1, 291388, Control_c, 0, 64, 91
1, 291403, Control_c, 0, 64, 99
1, 291418, Control_c, 0, 64, 102
1, 291433, Control_c, 0, 64, 103
1, 291478, Control_c, 0, 64, 103
1, 291523, Control_c, 0, 64, 104
1, 291537, Control_c, 0, 64, 105
1, 291552, Control_c, 0, 64, 106
1, 291567, Control_c, 0, 64, 107
1, 291583, Control_c, 0, 64, 108
1, 291598, Control_c, 0, 64, 109
1, 291604, Note_on_c, 0, 64, 70
1, 291613, Control_c, 0, 64, 111
1, 291627, Control_c, 0, 64, 113
1, 291631, Note_on_c, 0, 80, 85
1, 291642, Control_c, 0, 64, 114
1, 291657, Control_c, 0, 64, 116
1, 291667, Note_off_c, 0, 64, 58
1, 291672, Control_c, 0, 64, 119
1, 291675, Poly_aftertouch_c, 0, 58, 0
1, 291675, Note_off_c, 0, 80, 63
1, 291686, Control_c, 0, 64, 127
1, 291704, Note_on_c, 0, 71, 89
1, 291705, Poly_aftertouch_c, 0, 57, 0
1, 291708, Note_on_c, 0, 92, 94
1, 291720, Note_on_c, 0, 64, 47
1, 291723, Note_on_c, 0, 59, 49
1, 291743, Note_off_c, 0, 71, 62
1, 291764, Note_off_c, 0, 64, 57
1, 291787, Note_off_c, 0, 59, 58
1, 291852, Note_off_c, 0, 92, 58
1, 291853, Note_on_c, 0, 90, 67
1, 291903, Note_on_c, 0, 88, 68
1, 291937, Note_off_c, 0, 90, 63
1, 291942, Note_on_c, 0, 56, 62
1, 291949, Note_off_c, 0, 88, 58
1, 291951, Note_on_c, 0, 64, 68
1, 291968, Note_on_c, 0, 83, 72
1, 291991, Note_off_c, 0, 56, 60
1, 291999, Note_off_c, 0, 83, 59
1, 292024, Note_off_c, 0, 64, 59
1, 292072, Note_on_c, 0, 80, 64
1, 292095, Note_on_c, 0, 71, 83
1, 292097, Note_on_c, 0, 59, 75
1, 292120, Note_on_c, 0, 78, 73
1, 292125, Note_off_c, 0, 71, 65
1, 292155, Note_off_c, 0, 59, 61
1, 292164, Note_off_c, 0, 80, 60
1, 292178, Note_on_c, 0, 76, 71
1, 292194, Note_off_c, 0, 78, 63
1, 292218, Note_off_c, 0, 76, 61
1, 292239, Note_on_c, 0, 71, 72
1, 292275, Note_off_c, 0, 71, 53
1, 292320, Note_on_c, 0, 68, 70
1, 292364, Note_on_c, 0, 66, 67
1, 292435, Note_off_c, 0, 68, 62
1, 292441, Note_on_c, 0, 64, 61
1, 292460, Note_off_c, 0, 66, 65
1, 292514, Note_on_c, 0, 59, 78
1, 292516, Note_off_c, 0, 64, 65
1, 292581, Note_off_c, 0, 59, 61
1, 292672, Control_c, 0, 64, 91
1, 292687, Control_c, 0, 64, 66
1, 292701, Control_c, 0, 64, 0
1, 292962, Note_on_c, 0, 35, 35
1, 292966, Note_on_c, 0, 47, 39
1, 292987, Note_on_c, 0, 75, 42
1, 292990, Control_c, 0, 64, 16
1, 293005, Control_c, 0, 64, 61
1, 293011, Note_off_c, 0, 75, 61
1, 293020, Control_c, 0, 64, 68
1, 293034, Control_c, 0, 64, 72
1, 293042, Note_off_c, 0, 35, 59
1, 293043, Note_on_c, 0, 76, 60
1, 293049, Control_c, 0, 64, 77
1, 293064, Control_c, 0, 64, 81
1, 293085, Note_off_c, 0, 47, 55
1, 293098, Note_off_c, 0, 76, 58
1, 293114, Note_on_c, 0, 78, 64
1, 293145, Note_off_c, 0, 78, 47
1, 293153, Control_c, 0, 64, 80
1, 293163, Note_on_c, 0, 80, 72
1, 293168, Control_c, 0, 64, 80
1, 293183, Control_c, 0, 64, 79
1, 293188, Note_off_c, 0, 80, 70
1, 293198, Control_c, 0, 64, 79
1, 293213, Control_c, 0, 64, 78
1, 293228, Control_c, 0, 64, 77
1, 293240, Note_on_c, 0, 81, 70
1, 293243, Control_c, 0, 64, 74
1, 293257, Control_c, 0, 64, 68
1, 293272, Control_c, 0, 64, 43
1, 293287, Control_c, 0, 64, 0
1, 293291, Note_off_c, 0, 81, 58
1, 293296, Note_on_c, 0, 83, 64
1, 293339, Note_on_c, 0, 66, 67
1, 293344, Note_on_c, 0, 84, 67
1, 293355, Note_on_c, 0, 57, 39
1, 293357, Note_on_c, 0, 63, 47
1, 293361, Control_c, 0, 64, 59
1, 293365, Note_on_c, 0, 60, 37
1, 293375, Note_off_c, 0, 83, 60
1, 293376, Control_c, 0, 64, 66
1, 293382, Note_off_c, 0, 66, 63
1, 293391, Note_off_c, 0, 57, 53
1, 293391, Control_c, 0, 64, 70
1, 293405, Control_c, 0, 64, 73
1, 293410, Note_off_c, 0, 63, 57
1, 293419, Note_off_c, 0, 60, 58
1, 293420, Control_c, 0, 64, 75
1, 293435, Control_c, 0, 64, 76
1, 293450, Note_off_c, 0, 84, 65
1, 293498, Note_on_c, 0, 57, 48
1, 293499, Note_on_c, 0, 68, 63
1, 293507, Note_on_c, 0, 63, 56
1, 293520, Note_off_c, 0, 68, 62
1, 293522, Note_on_c, 0, 60, 40
1, 293535, Note_off_c, 0, 57, 47
1, 293537, Note_off_c, 0, 63, 53
1, 293550, Note_off_c, 0, 60, 53
1, 293642, Note_on_c, 0, 66, 63
1, 293650, Control_c, 0, 64, 75
1, 293660, Note_on_c, 0, 60, 47
1, 293660, Note_on_c, 0, 63, 48
1, 293666, Note_on_c, 0, 57, 34
1, 293684, Note_off_c, 0, 66, 50
1, 293696, Note_off_c, 0, 57, 49
1, 293699, Note_off_c, 0, 63, 59
1, 293720, Note_off_c, 0, 60, 41
1, 293753, Control_c, 0, 64, 73
1, 293768, Control_c, 0, 64, 65
1, 293783, Control_c, 0, 64, 0
1, 293789, Note_on_c, 0, 84, 59
1, 293800, Note_on_c, 0, 66, 58
1, 293807, Note_on_c, 0, 57, 38
1, 293824, Note_on_c, 0, 60, 34
1, 293829, Note_off_c, 0, 66, 68
1, 293834, Note_on_c, 0, 63, 14
1, 293842, Control_c, 0, 64, 55
1, 293845, Note_on_c, 0, 83, 66
1, 293853, Note_off_c, 0, 60, 58
1, 293857, Control_c, 0, 64, 64
1, 293857, Note_off_c, 0, 63, 47
1, 293863, Note_off_c, 0, 57, 62
1, 293872, Control_c, 0, 64, 68
1, 293884, Note_off_c, 0, 84, 61
1, 293887, Control_c, 0, 64, 73
1, 293902, Control_c, 0, 64, 76
1, 293909, Note_off_c, 0, 83, 60
1, 293917, Control_c, 0, 64, 78
1, 293919, Note_on_c, 0, 81, 71
1, 293975, Note_off_c, 0, 81, 61
1, 293977, Note_on_c, 0, 80, 78
1, 294041, Note_on_c, 0, 78, 74
1, 294048, Note_off_c, 0, 80, 64
1, 294087, Note_off_c, 0, 78, 63
1, 294095, Control_c, 0, 64, 78
1, 294101, Note_on_c, 0, 76, 69
1, 294110, Control_c, 0, 64, 75
1, 294125, Control_c, 0, 64, 67
1, 294140, Control_c, 0, 64, 0
1, 294161, Note_on_c, 0, 47, 66
1, 294166, Note_on_c, 0, 35, 57
1, 294167, Note_on_c, 0, 75, 86
1, 294178, Note_off_c, 0, 76, 62
1, 294199, Control_c, 0, 64, 31
1, 294213, Control_c, 0, 64, 64
1, 294215, Note_off_c, 0, 75, 67
1, 294221, Note_off_c, 0, 47, 62
1, 294225, Note_off_c, 0, 35, 63
1, 294228, Control_c, 0, 64, 71
1, 294243, Control_c, 0, 64, 78
1, 294258, Control_c, 0, 64, 85
1, 294272, Control_c, 0, 64, 89
1, 294287, Control_c, 0, 64, 90
1, 294302, Control_c, 0, 64, 91
1, 294317, Control_c, 0, 64, 92
1, 294321, Note_on_c, 0, 45, 81
1, 294327, Note_on_c, 0, 33, 72
1, 294332, Control_c, 0, 64, 93
1, 294347, Control_c, 0, 64, 94
1, 294370, Note_off_c, 0, 33, 66
1, 294376, Note_off_c, 0, 45, 63
1, 294478, Note_on_c, 0, 48, 88
1, 294484, Note_on_c, 0, 36, 75
1, 294523, Note_off_c, 0, 36, 64
1, 294525, Note_off_c, 0, 48, 64
1, 294547, Control_c, 0, 64, 92
1, 294559, Note_on_c, 0, 80, 84
1, 294561, Control_c, 0, 64, 80
1, 294576, Control_c, 0, 64, 0
1, 294594, Note_on_c, 0, 47, 110
1, 294600, Note_on_c, 0, 92, 98
1, 294605, Note_on_c, 0, 35, 74
1, 294626, Note_off_c, 0, 80, 65
1, 294633, Note_off_c, 0, 47, 66
1, 294635, Note_off_c, 0, 35, 63
1, 294635, Control_c, 0, 64, 28
1, 294650, Control_c, 0, 64, 65
1, 294665, Control_c, 0, 64, 75
1, 294680, Control_c, 0, 64, 88
1, 294695, Control_c, 0, 64, 96
1, 294710, Control_c, 0, 64, 101
1, 294725, Control_c, 0, 64, 102
1, 294740, Control_c, 0, 64, 102
1, 294754, Control_c, 0, 64, 104
1, 294769, Control_c, 0, 64, 106
1, 294780, Note_on_c, 0, 65, 83
1, 294784, Control_c, 0, 64, 109
1, 294799, Control_c, 0, 64, 112
1, 294808, Note_on_c, 0, 56, 40
1, 294814, Control_c, 0, 64, 115
1, 294829, Control_c, 0, 64, 117
1, 294831, Note_off_c, 0, 65, 62
1, 294838, Note_off_c, 0, 56, 51
1, 294844, Control_c, 0, 64, 118
1, 294859, Control_c, 0, 64, 119
1, 294874, Control_c, 0, 64, 121
1, 294889, Control_c, 0, 64, 121
1, 294900, Note_on_c, 0, 56, 61
1, 294903, Control_c, 0, 64, 122
1, 294905, Note_on_c, 0, 65, 66
1, 294909, Note_on_c, 0, 64, 55
1, 294918, Control_c, 0, 64, 122
1, 294933, Control_c, 0, 64, 123
1, 294935, Note_off_c, 0, 56, 63
1, 294945, Note_off_c, 0, 65, 63
1, 294950, Note_off_c, 0, 64, 62
1, 294963, Note_off_c, 0, 92, 60
1, 295016, Note_on_c, 0, 59, 76
1, 295019, Note_on_c, 0, 71, 91
1, 295022, Control_c, 0, 64, 123
1, 295036, Control_c, 0, 64, 125
1, 295046, Note_on_c, 0, 64, 50
1, 295051, Control_c, 0, 64, 127
1, 295053, Note_off_c, 0, 71, 58
1, 295068, Note_off_c, 0, 64, 59
1, 295088, Note_off_c, 0, 59, 61
1, 295157, Note_on_c, 0, 90, 71
1, 295201, Note_on_c, 0, 64, 72
1, 295206, Note_on_c, 0, 56, 75
1, 295215, Note_on_c, 0, 88, 68
1, 295225, Note_off_c, 0, 90, 62
1, 295232, Note_off_c, 0, 64, 64
1, 295262, Note_off_c, 0, 88, 60
1, 295266, Note_on_c, 0, 64, 77
1, 295275, Note_on_c, 0, 83, 75
1, 295299, Note_off_c, 0, 56, 63
1, 295339, Note_off_c, 0, 83, 58
1, 295351, Note_off_c, 0, 64, 60
1, 295399, Note_on_c, 0, 80, 69
1, 295429, Control_c, 0, 64, 123
1, 295431, Note_on_c, 0, 59, 81
1, 295434, Note_on_c, 0, 71, 91
1, 295444, Control_c, 0, 64, 103
1, 295455, Note_on_c, 0, 78, 74
1, 295459, Control_c, 0, 64, 86
1, 295467, Note_off_c, 0, 71, 63
1, 295474, Control_c, 0, 64, 75
1, 295478, Note_off_c, 0, 59, 63
1, 295485, Note_off_c, 0, 80, 61
1, 295489, Control_c, 0, 64, 74
1, 295503, Control_c, 0, 64, 80
1, 295510, Note_on_c, 0, 76, 70
1, 295518, Control_c, 0, 64, 86
1, 295524, Note_off_c, 0, 78, 63
1, 295533, Control_c, 0, 64, 92
1, 295547, Control_c, 0, 64, 99
1, 295562, Control_c, 0, 64, 104
1, 295563, Note_off_c, 0, 76, 63
1, 295577, Note_on_c, 0, 71, 74
1, 295579, Control_c, 0, 64, 107
1, 295639, Note_off_c, 0, 71, 60
1, 295659, Note_on_c, 0, 68, 77
1, 295709, Note_on_c, 0, 66, 70
1, 295754, Note_off_c, 0, 68, 56
1, 295780, Note_on_c, 0, 64, 73
1, 295811, Note_off_c, 0, 66, 66
1, 295831, Control_c, 0, 64, 104
1, 295852, Control_c, 0, 64, 94
1, 295867, Control_c, 0, 64, 76
1, 295869, Note_on_c, 0, 59, 78
1, 295871, Note_off_c, 0, 64, 66
1, 295882, Control_c, 0, 64, 0
1, 295927, Control_c, 0, 64, 54
1, 295937, Note_off_c, 0, 59, 63
1, 295941, Control_c, 0, 64, 69
1, 295956, Control_c, 0, 64, 81
1, 295971, Control_c, 0, 64, 95
1, 295986, Control_c, 0, 64, 103
1, 296000, Control_c, 0, 64, 104
1, 296030, Control_c, 0, 64, 103
1, 296045, Control_c, 0, 64, 98
1, 296060, Control_c, 0, 64, 85
1, 296075, Control_c, 0, 64, 68
1, 296090, Control_c, 0, 64, 0
1, 296323, Note_on_c, 0, 38, 32
1, 296331, Note_on_c, 0, 50, 37
1, 296341, Note_on_c, 0, 77, 51
1, 296372, Control_c, 0, 64, 61
1, 296387, Control_c, 0, 64, 68
1, 296394, Note_off_c, 0, 77, 57
1, 296402, Control_c, 0, 64, 74
1, 296409, Note_on_c, 0, 78, 55
1, 296417, Control_c, 0, 64, 79
1, 296419, Note_off_c, 0, 38, 57
1, 296431, Control_c, 0, 64, 81
1, 296452, Note_on_c, 0, 80, 68
1, 296457, Note_off_c, 0, 78, 62
1, 296458, Note_off_c, 0, 50, 57
1, 296481, Note_off_c, 0, 80, 65
1, 296505, Control_c, 0, 64, 80
1, 296531, Note_on_c, 0, 81, 63
1, 296535, Control_c, 0, 64, 80
1, 296549, Control_c, 0, 64, 79
1, 296564, Control_c, 0, 64, 78
1, 296576, Note_off_c, 0, 81, 54
1, 296579, Control_c, 0, 64, 77
1, 296601, Note_on_c, 0, 83, 65
1, 296601, Control_c, 0, 64, 77
1, 296616, Control_c, 0, 64, 76
1, 296631, Control_c, 0, 64, 74
1, 296643, Note_on_c, 0, 85, 61
1, 296646, Control_c, 0, 64, 70
1, 296656, Note_off_c, 0, 83, 46
1, 296661, Control_c, 0, 64, 59
1, 296675, Control_c, 0, 64, 0
1, 296716, Note_on_c, 0, 66, 56
1, 296717, Note_on_c, 0, 86, 70
1, 296718, Note_on_c, 0, 68, 58
1, 296734, Note_off_c, 0, 85, 55
1, 296734, Control_c, 0, 64, 61
1, 296739, Note_on_c, 0, 59, 36
1, 296749, Control_c, 0, 64, 68
1, 296764, Control_c, 0, 64, 73
1, 296778, Control_c, 0, 64, 79
1, 296780, Note_off_c, 0, 68, 52
1, 296786, Note_off_c, 0, 59, 44
1, 296791, Note_off_c, 0, 66, 61
1, 296793, Control_c, 0, 64, 82
1, 296813, Note_off_c, 0, 86, 62
1, 296865, Note_on_c, 0, 69, 69
1, 296869, Note_on_c, 0, 66, 57
1, 296893, Note_off_c, 0, 69, 69
1, 296917, Note_off_c, 0, 66, 64
1, 296956, Control_c, 0, 64, 81
1, 296963, Poly_aftertouch_c, 0, 59, 0
1, 297000, Control_c, 0, 64, 81
1, 297008, Note_on_c, 0, 68, 70
1, 297012, Note_on_c, 0, 66, 68
1, 297047, Note_off_c, 0, 68, 49
1, 297077, Note_off_c, 0, 66, 44
1, 297134, Control_c, 0, 64, 80
1, 297148, Control_c, 0, 64, 76
1, 297153, Note_on_c, 0, 68, 64
1, 297162, Note_on_c, 0, 86, 62
1, 297163, Note_on_c, 0, 59, 58
1, 297163, Control_c, 0, 64, 64
1, 297166, Note_on_c, 0, 65, 57
1, 297179, Control_c, 0, 64, 0
1, 297202, Note_off_c, 0, 68, 63
1, 297211, Note_off_c, 0, 65, 64
1, 297238, Control_c, 0, 64, 56
1, 297239, Note_on_c, 0, 85, 59
1, 297241, Note_off_c, 0, 59, 62
1, 297253, Control_c, 0, 64, 65
1, 297268, Control_c, 0, 64, 71
1, 297273, Note_off_c, 0, 86, 62
1, 297283, Control_c, 0, 64, 76
1, 297288, Note_on_c, 0, 83, 67
1, 297288, Note_off_c, 0, 85, 67
1, 297297, Control_c, 0, 64, 80
1, 297312, Control_c, 0, 64, 81
1, 297331, Note_off_c, 0, 83, 61
1, 297366, Note_on_c, 0, 81, 70
1, 297430, Note_off_c, 0, 81, 59
1, 297440, Note_on_c, 0, 80, 76
1, 297496, Note_on_c, 0, 78, 62
1, 297497, Control_c, 0, 64, 80
1, 297502, Note_off_c, 0, 80, 65
1, 297512, Control_c, 0, 64, 76
1, 297527, Control_c, 0, 64, 67
1, 297542, Control_c, 0, 64, 0
1, 297554, Note_on_c, 0, 77, 76
1, 297556, Note_on_c, 0, 50, 61
1, 297557, Note_on_c, 0, 38, 54
1, 297566, Note_off_c, 0, 78, 60
1, 297586, Control_c, 0, 64, 59
1, 297598, Note_off_c, 0, 50, 62
1, 297601, Control_c, 0, 64, 66
1, 297608, Note_off_c, 0, 38, 60
1, 297616, Control_c, 0, 64, 70
1, 297625, Note_off_c, 0, 77, 61
1, 297631, Control_c, 0, 64, 75
1, 297646, Control_c, 0, 64, 81
1, 297661, Control_c, 0, 64, 84
1, 297676, Control_c, 0, 64, 84
1, 297691, Control_c, 0, 64, 85
1, 297713, Note_on_c, 0, 48, 77
1, 297730, Note_on_c, 0, 36, 50
1, 297747, Note_off_c, 0, 48, 66
1, 297762, Note_off_c, 0, 36, 55
1, 297826, Note_on_c, 0, 49, 86
1, 297834, Note_on_c, 0, 37, 69
1, 297869, Note_off_c, 0, 37, 65
1, 297875, Note_off_c, 0, 49, 60
1, 297927, Control_c, 0, 64, 80
1, 297942, Control_c, 0, 64, 64
1, 297956, Control_c, 0, 64, 0
1, 297979, Note_on_c, 0, 52, 87
1, 297980, Note_on_c, 0, 79, 75
1, 297998, Note_on_c, 0, 40, 54
1, 298017, Control_c, 0, 64, 63
1, 298027, Note_off_c, 0, 40, 56
1, 298029, Note_off_c, 0, 52, 64
1, 298032, Control_c, 0, 64, 72
1, 298044, Note_on_c, 0, 80, 77
1, 298046, Control_c, 0, 64, 79
1, 298054, Note_off_c, 0, 79, 56
1, 298061, Control_c, 0, 64, 87
1, 298076, Control_c, 0, 64, 90
1, 298099, Note_on_c, 0, 82, 78
1, 298099, Control_c, 0, 64, 90
1, 298116, Note_off_c, 0, 80, 64
1, 298123, Note_off_c, 0, 82, 67
1, 298175, Note_on_c, 0, 84, 79
1, 298236, Note_on_c, 0, 85, 82
1, 298239, Note_off_c, 0, 84, 64
1, 298292, Control_c, 0, 64, 90
1, 298293, Note_on_c, 0, 87, 73
1, 298307, Control_c, 0, 64, 85
1, 298321, Control_c, 0, 64, 72
1, 298322, Note_off_c, 0, 85, 65
1, 298328, Note_on_c, 0, 68, 72
1, 298334, Note_on_c, 0, 70, 74
1, 298336, Control_c, 0, 64, 47
1, 298345, Note_on_c, 0, 61, 39
1, 298348, Note_on_c, 0, 88, 94
1, 298351, Control_c, 0, 64, 32
1, 298361, Note_off_c, 0, 87, 57
1, 298366, Control_c, 0, 64, 62
1, 298380, Control_c, 0, 64, 67
1, 298391, Note_off_c, 0, 61, 57
1, 298395, Control_c, 0, 64, 72
1, 298400, Note_off_c, 0, 70, 58
1, 298402, Note_off_c, 0, 68, 62
1, 298410, Control_c, 0, 64, 80
1, 298420, Note_off_c, 0, 88, 65
1, 298425, Control_c, 0, 64, 87
1, 298440, Control_c, 0, 64, 90
1, 298454, Control_c, 0, 64, 91
1, 298478, Note_on_c, 0, 71, 71
1, 298484, Control_c, 0, 64, 92
1, 298485, Note_on_c, 0, 68, 69
1, 298490, Note_on_c, 0, 61, 60
1, 298511, Note_off_c, 0, 71, 60
1, 298525, Note_off_c, 0, 61, 59
1, 298537, Note_off_c, 0, 68, 61
1, 298604, Note_on_c, 0, 70, 78
1, 298611, Note_on_c, 0, 68, 67
1, 298630, Note_on_c, 0, 61, 30
1, 298657, Note_off_c, 0, 61, 53
1, 298663, Note_off_c, 0, 70, 59
1, 298698, Note_off_c, 0, 68, 61
1, 298736, Control_c, 0, 64, 86
1, 298746, Note_on_c, 0, 61, 64
1, 298751, Control_c, 0, 64, 74
1, 298755, Note_on_c, 0, 67, 83
1, 298756, Note_on_c, 0, 70, 85
1, 298758, Note_on_c, 0, 88, 76
1, 298766, Control_c, 0, 64, 48
1, 298782, Control_c, 0, 64, 0
1, 298790, Note_off_c, 0, 70, 63
1, 298796, Control_c, 0, 64, 49
1, 298811, Control_c, 0, 64, 64
1, 298812, Note_off_c, 0, 67, 61
1, 298817, Note_on_c, 0, 87, 70
1, 298826, Control_c, 0, 64, 68
1, 298835, Note_off_c, 0, 61, 62
1, 298841, Control_c, 0, 64, 75
1, 298863, Control_c, 0, 64, 84
1, 298874, Note_on_c, 0, 85, 79
1, 298876, Note_off_c, 0, 88, 63
1, 298877, Control_c, 0, 64, 89
1, 298892, Control_c, 0, 64, 91
1, 298895, Note_off_c, 0, 87, 64
1, 298907, Control_c, 0, 64, 91
1, 298936, Note_off_c, 0, 85, 65
1, 298947, Note_on_c, 0, 83, 74
1, 299009, Note_on_c, 0, 82, 85
1, 299010, Note_off_c, 0, 83, 60
1, 299068, Note_on_c, 0, 80, 69
1, 299075, Note_off_c, 0, 82, 64
1, 299100, Control_c, 0, 64, 88
1, 299115, Control_c, 0, 64, 78
1, 299124, Note_on_c, 0, 79, 86
1, 299128, Note_on_c, 0, 52, 81
1, 299129, Note_on_c, 0, 40, 69
1, 299130, Control_c, 0, 64, 60
1, 299144, Control_c, 0, 64, 0
1, 299150, Note_off_c, 0, 80, 63
1, 299174, Note_off_c, 0, 52, 65
1, 299174, Control_c, 0, 64, 58
1, 299179, Note_off_c, 0, 40, 62
1, 299189, Control_c, 0, 64, 66
1, 299190, Note_off_c, 0, 79, 62
1, 299203, Control_c, 0, 64, 72
1, 299218, Control_c, 0, 64, 81
1, 299233, Control_c, 0, 64, 88
1, 299248, Control_c, 0, 64, 92
1, 299263, Control_c, 0, 64, 92
1, 299279, Note_on_c, 0, 50, 80
1, 299313, Note_off_c, 0, 50, 64
1, 299393, Note_on_c, 0, 51, 91
1, 299396, Note_on_c, 0, 39, 73
1, 299433, Note_off_c, 0, 39, 63
1, 299440, Note_off_c, 0, 51, 61
1, 299485, Control_c, 0, 64, 91
1, 299500, Control_c, 0, 64, 82
1, 299514, Control_c, 0, 64, 62
1, 299526, Note_on_c, 0, 54, 92
1, 299529, Control_c, 0, 64, 0
1, 299532, Note_on_c, 0, 42, 76
1, 299540, Note_on_c, 0, 81, 81
1, 299564, Note_off_c, 0, 42, 66
1, 299575, Control_c, 0, 64, 44
1, 299577, Note_off_c, 0, 54, 62
1, 299589, Control_c, 0, 64, 66
1, 299609, Note_on_c, 0, 82, 75
1, 299612, Control_c, 0, 64, 74
1, 299624, Note_off_c, 0, 81, 57
1, 299626, Control_c, 0, 64, 84
1, 299641, Control_c, 0, 64, 92
1, 299656, Control_c, 0, 64, 95
1, 299667, Note_on_c, 0, 84, 75
1, 299671, Control_c, 0, 64, 95
1, 299687, Note_off_c, 0, 82, 63
1, 299698, Note_off_c, 0, 84, 64
1, 299701, Control_c, 0, 64, 96
1, 299715, Control_c, 0, 64, 96
1, 299730, Control_c, 0, 64, 97
1, 299752, Note_on_c, 0, 86, 75
1, 299760, Control_c, 0, 64, 97
1, 299795, Note_on_c, 0, 69, 84
1, 299804, Control_c, 0, 64, 98
1, 299810, Note_on_c, 0, 60, 54
1, 299813, Note_on_c, 0, 87, 84
1, 299816, Note_off_c, 0, 86, 66
1, 299831, Note_off_c, 0, 60, 57
1, 299834, Control_c, 0, 64, 98
1, 299849, Control_c, 0, 64, 99
1, 299855, Note_off_c, 0, 87, 65
1, 299864, Control_c, 0, 64, 100
1, 299869, Note_off_c, 0, 69, 62
1, 299879, Control_c, 0, 64, 102
1, 299893, Control_c, 0, 64, 106
1, 299908, Control_c, 0, 64, 111
1, 299912, Note_on_c, 0, 89, 83
1, 299923, Control_c, 0, 64, 119
1, 299927, Note_on_c, 0, 63, 80
1, 299938, Control_c, 0, 64, 127
1, 299944, Note_on_c, 0, 75, 79
1, 299959, Note_on_c, 0, 90, 86
1, 299967, Note_off_c, 0, 75, 67
1, 299972, Note_on_c, 0, 74, 42
1, 299972, Note_on_c, 0, 76, 47
1, 299974, Note_off_c, 0, 89, 66
1, 299995, Note_off_c, 0, 76, 57
1, 299996, Note_off_c, 0, 74, 60
1, 300007, Note_on_c, 0, 99, 87
1, 300017, Note_off_c, 0, 90, 63
1, 300019, Note_off_c, 0, 63, 60
1, 300072, Note_on_c, 0, 90, 77
1, 300109, Note_off_c, 0, 99, 67
1, 300125, Note_off_c, 0, 90, 65
1, 300126, Note_on_c, 0, 89, 77
1, 300172, Note_off_c, 0, 89, 64
1, 300184, Note_on_c, 0, 69, 78
1, 300201, Note_on_c, 0, 60, 37
1, 300203, Note_on_c, 0, 87, 80
1, 300233, Note_on_c, 0, 62, 16
1, 300234, Note_off_c, 0, 60, 50
1, 300264, Note_on_c, 0, 85, 71
1, 300275, Note_off_c, 0, 62, 50
1, 300276, Note_off_c, 0, 87, 64
1, 300285, Note_off_c, 0, 69, 58
1, 300318, Note_on_c, 0, 84, 80
1, 300323, Note_off_c, 0, 85, 65
1, 300326, Note_on_c, 0, 63, 73
1, 300329, Note_on_c, 0, 75, 95
1, 300374, Note_off_c, 0, 75, 64
1, 300391, Note_off_c, 0, 84, 65
1, 300392, Note_on_c, 0, 85, 74
1, 300407, Note_off_c, 0, 63, 64
1, 300454, Note_off_c, 0, 85, 62
1, 300471, Note_on_c, 0, 86, 85
1, 300537, Note_on_c, 0, 87, 83
1, 300540, Note_off_c, 0, 86, 63
1, 300590, Note_off_c, 0, 87, 62
1, 300612, Control_c, 0, 64, 91
1, 300627, Note_on_c, 0, 66, 105
1, 300627, Note_on_c, 0, 88, 83
1, 300627, Control_c, 0, 64, 65
1, 300628, Note_on_c, 0, 54, 85
1, 300642, Control_c, 0, 64, 0
1, 300672, Control_c, 0, 64, 62
1, 300686, Control_c, 0, 64, 68
1, 300692, Note_off_c, 0, 54, 60
1, 300695, Note_off_c, 0, 66, 62
1, 300701, Note_on_c, 0, 89, 81
1, 300701, Control_c, 0, 64, 75
1, 300716, Note_off_c, 0, 88, 58
1, 300716, Control_c, 0, 64, 89
1, 300731, Control_c, 0, 64, 99
1, 300746, Control_c, 0, 64, 104
1, 300761, Control_c, 0, 64, 106
1, 300775, Control_c, 0, 64, 108
1, 300790, Control_c, 0, 64, 110
1, 300794, Note_on_c, 0, 90, 80
1, 300796, Note_on_c, 0, 66, 106
1, 300797, Note_on_c, 0, 54, 90
1, 300805, Control_c, 0, 64, 114
1, 300820, Control_c, 0, 64, 117
1, 300822, Note_off_c, 0, 89, 63
1, 300835, Control_c, 0, 64, 121
1, 300849, Control_c, 0, 64, 127
1, 300853, Note_off_c, 0, 54, 59
1, 300864, Control_c, 0, 64, 127
1, 300867, Note_off_c, 0, 66, 61
1, 300877, Note_off_c, 0, 90, 62
1, 300877, Note_on_c, 0, 99, 85
1, 300973, Note_on_c, 0, 66, 102
1, 300974, Note_on_c, 0, 54, 78
1, 300974, Note_on_c, 0, 90, 97
1, 300999, Note_off_c, 0, 99, 63
1, 301029, Note_off_c, 0, 54, 60
1, 301032, Note_off_c, 0, 66, 59
1, 301044, Note_off_c, 0, 90, 63
1, 301053, Note_on_c, 0, 89, 82
1, 301092, Poly_aftertouch_c, 0, 56, 0
1, 301122, Note_off_c, 0, 89, 66
1, 301150, Note_on_c, 0, 87, 85
1, 301162, Note_on_c, 0, 54, 67
1, 301163, Note_on_c, 0, 66, 90
1, 301205, Note_off_c, 0, 66, 67
1, 301207, Note_off_c, 0, 54, 59
1, 301244, Note_on_c, 0, 85, 76
1, 301250, Note_off_c, 0, 87, 61
1, 301287, Control_c, 0, 64, 99
1, 301302, Control_c, 0, 64, 72
1, 301316, Note_on_c, 0, 53, 63
1, 301317, Control_c, 0, 64, 0
1, 301340, Note_on_c, 0, 60, 59
1, 301342, Note_off_c, 0, 53, 68
1, 301350, Note_on_c, 0, 63, 78
1, 301352, Note_on_c, 0, 84, 95
1, 301361, Control_c, 0, 64, 44
1, 301374, Note_on_c, 0, 69, 90
1, 301376, Control_c, 0, 64, 68
1, 301382, Note_off_c, 0, 60, 61
1, 301390, Note_off_c, 0, 85, 61
1, 301391, Control_c, 0, 64, 85
1, 301401, Note_off_c, 0, 84, 68
1, 301403, Note_off_c, 0, 63, 66
1, 301404, Note_off_c, 0, 69, 66
1, 301405, Control_c, 0, 64, 105
1, 301420, Control_c, 0, 64, 125
1, 301435, Control_c, 0, 64, 127
1, 301651, Note_on_c, 0, 101, 93
1, 301728, Note_on_c, 0, 100, 77
1, 301781, Note_off_c, 0, 101, 65
1, 301795, Note_on_c, 0, 99, 83
1, 301860, Note_on_c, 0, 96, 69
1, 301864, Note_off_c, 0, 100, 64
1, 301904, Note_off_c, 0, 99, 68
1, 301907, Note_on_c, 0, 93, 91
1, 301931, Note_on_c, 0, 89, 78
1, 301932, Note_off_c, 0, 96, 64
1, 301953, Note_off_c, 0, 93, 64
1, 301991, Note_on_c, 0, 88, 73
1, 301995, Note_off_c, 0, 89, 63
1, 302015, Note_on_c, 0, 87, 76
1, 302046, Note_off_c, 0, 88, 62
1, 302060, Note_on_c, 0, 84, 60
1, 302093, Note_off_c, 0, 87, 65
1, 302094, Note_on_c, 0, 81, 72
1, 302099, Note_off_c, 0, 84, 60
1, 302117, Note_on_c, 0, 77, 79
1, 302138, Note_off_c, 0, 81, 65
1, 302162, Note_on_c, 0, 76, 72
1, 302214, Note_off_c, 0, 77, 61
1, 302220, Note_on_c, 0, 75, 75
1, 302254, Note_on_c, 0, 72, 74
1, 302256, Note_off_c, 0, 76, 63
1, 302294, Note_off_c, 0, 75, 63
1, 302299, Note_on_c, 0, 69, 86
1, 302326, Note_off_c, 0, 72, 63
1, 302329, Note_on_c, 0, 65, 79
1, 302344, Note_off_c, 0, 69, 67
1, 302383, Note_off_c, 0, 65, 65
1, 302393, Note_on_c, 0, 64, 65
1, 302421, Note_on_c, 0, 63, 77
1, 302449, Note_off_c, 0, 64, 63
1, 302492, Note_on_c, 0, 60, 51
1, 302514, Note_off_c, 0, 63, 64
1, 302521, Note_on_c, 0, 57, 66
1, 302530, Note_off_c, 0, 60, 64
1, 302538, Note_on_c, 0, 53, 82
1, 302555, Note_off_c, 0, 57, 64
1, 302579, Note_on_c, 0, 52, 75
1, 302652, Note_off_c, 0, 53, 63
1, 302653, Note_on_c, 0, 51, 72
1, 302694, Note_on_c, 0, 48, 81
1, 302699, Note_off_c, 0, 52, 65
1, 302744, Note_off_c, 0, 51, 63
1, 302766, Note_off_c, 0, 48, 64
1, 302770, Control_c, 0, 64, 92
1, 302773, Note_on_c, 0, 41, 103
1, 302785, Control_c, 0, 64, 61
1, 302799, Control_c, 0, 64, 0
1, 302815, Note_off_c, 0, 41, 69
1, 302829, Control_c, 0, 64, 44
1, 302843, Control_c, 0, 64, 67
1, 302858, Control_c, 0, 64, 80
1, 302873, Control_c, 0, 64, 96
1, 302888, Control_c, 0, 64, 112
1, 302903, Control_c, 0, 64, 126
1, 302917, Control_c, 0, 64, 127
1, 303125, Control_c, 0, 64, 99
1, 303140, Control_c, 0, 64, 70
1, 303143, Note_on_c, 0, 46, 108
1, 303148, Note_on_c, 0, 73, 101
1, 303149, Note_on_c, 0, 85, 97
1, 303149, Note_on_c, 0, 34, 90
1, 303155, Control_c, 0, 64, 0
1, 303184, Note_off_c, 0, 34, 63
1, 303199, Control_c, 0, 64, 62
1, 303214, Control_c, 0, 64, 74
1, 303217, Note_off_c, 0, 46, 61
1, 303229, Control_c, 0, 64, 87
1, 303243, Control_c, 0, 64, 104
1, 303258, Control_c, 0, 64, 115
1, 303273, Control_c, 0, 64, 117
1, 303277, Note_off_c, 0, 73, 59
1, 303288, Note_off_c, 0, 85, 58
1, 303288, Control_c, 0, 64, 118
1, 303303, Control_c, 0, 64, 119
1, 303317, Control_c, 0, 64, 121
1, 303339, Control_c, 0, 64, 121
1, 303354, Control_c, 0, 64, 122
1, 303384, Control_c, 0, 64, 122
1, 303399, Control_c, 0, 64, 124
1, 303414, Control_c, 0, 64, 126
1, 303418, Note_on_c, 0, 76, 81
1, 303428, Control_c, 0, 64, 127
1, 303429, Note_on_c, 0, 70, 82
1, 303471, Note_off_c, 0, 70, 57
1, 303485, Note_on_c, 0, 77, 78
1, 303492, Note_off_c, 0, 76, 63
1, 303539, Poly_aftertouch_c, 0, 65, 127
1, 303543, Note_on_c, 0, 80, 81
1, 303552, Note_on_c, 0, 61, 61
1, 303558, Note_off_c, 0, 77, 61
1, 303569, Poly_aftertouch_c, 0, 65, 0
1, 303581, Note_off_c, 0, 61, 64
1, 303586, Note_on_c, 0, 78, 75
1, 303591, Note_off_c, 0, 80, 69
1, 303635, Note_off_c, 0, 78, 68
1, 303637, Note_on_c, 0, 77, 88
1, 303673, Note_off_c, 0, 77, 65
1, 303680, Control_c, 0, 64, 99
1, 303695, Control_c, 0, 64, 75
1, 303710, Control_c, 0, 64, 0
1, 303711, Note_on_c, 0, 56, 95
1, 303719, Note_on_c, 0, 44, 76
1, 303727, Note_on_c, 0, 77, 84
1, 303739, Control_c, 0, 64, 55
1, 303744, Note_off_c, 0, 44, 66
1, 303754, Note_off_c, 0, 56, 63
1, 303754, Control_c, 0, 64, 67
1, 303769, Control_c, 0, 64, 76
1, 303775, Note_off_c, 0, 77, 64
1, 303784, Control_c, 0, 64, 88
1, 303798, Control_c, 0, 64, 97
1, 303813, Control_c, 0, 64, 102
1, 303828, Control_c, 0, 64, 103
1, 303843, Control_c, 0, 64, 105
1, 303858, Control_c, 0, 64, 110
1, 303873, Control_c, 0, 64, 119
1, 303888, Control_c, 0, 64, 127
1, 303894, Note_on_c, 0, 76, 100
1, 303898, Note_on_c, 0, 88, 99
1, 303912, Note_on_c, 0, 68, 91
1, 303933, Note_off_c, 0, 76, 68
1, 303965, Note_off_c, 0, 88, 60
1, 303967, Note_off_c, 0, 68, 53
1, 304093, Note_on_c, 0, 60, 77
1, 304093, Note_on_c, 0, 65, 61
1, 304093, Note_on_c, 0, 77, 97
1, 304097, Note_on_c, 0, 89, 90
1, 304111, Note_off_c, 0, 65, 65
1, 304120, Note_off_c, 0, 60, 65
1, 304121, Note_off_c, 0, 89, 64
1, 304126, Note_off_c, 0, 77, 67
1, 304324, Control_c, 0, 64, 118
1, 304339, Control_c, 0, 64, 82
1, 304345, Note_on_c, 0, 42, 77
1, 304354, Control_c, 0, 64, 0
1, 304356, Note_on_c, 0, 54, 97
1, 304359, Note_on_c, 0, 70, 104
1, 304362, Note_on_c, 0, 82, 95
1, 304385, Control_c, 0, 64, 63
1, 304400, Control_c, 0, 64, 72
1, 304405, Note_off_c, 0, 42, 63
1, 304414, Control_c, 0, 64, 84
1, 304415, Note_off_c, 0, 54, 61
1, 304429, Control_c, 0, 64, 99
1, 304444, Control_c, 0, 64, 113
1, 304457, Note_off_c, 0, 70, 58
1, 304457, Note_off_c, 0, 82, 62
1, 304459, Control_c, 0, 64, 116
1, 304474, Control_c, 0, 64, 117
1, 304488, Control_c, 0, 64, 118
1, 304503, Control_c, 0, 64, 118
1, 304533, Control_c, 0, 64, 119
1, 304548, Control_c, 0, 64, 119
1, 304562, Control_c, 0, 64, 120
1, 304573, Note_on_c, 0, 66, 76
1, 304575, Note_on_c, 0, 72, 77
1, 304577, Control_c, 0, 64, 120
1, 304592, Control_c, 0, 64, 121
1, 304606, Control_c, 0, 64, 121
1, 304627, Note_on_c, 0, 73, 70
1, 304638, Note_off_c, 0, 66, 61
1, 304641, Note_off_c, 0, 72, 57
1, 304662, Note_on_c, 0, 77, 75
1, 304669, Note_on_c, 0, 61, 57
1, 304686, Note_on_c, 0, 58, 54
1, 304692, Note_off_c, 0, 73, 63
1, 304709, Note_on_c, 0, 75, 79
1, 304713, Note_off_c, 0, 61, 62
1, 304720, Note_off_c, 0, 58, 64
1, 304733, Note_off_c, 0, 77, 60
1, 304762, Note_on_c, 0, 73, 73
1, 304773, Note_off_c, 0, 75, 65
1, 304785, Control_c, 0, 64, 120
1, 304785, Note_off_c, 0, 73, 69
1, 304800, Control_c, 0, 64, 107
1, 304814, Control_c, 0, 64, 84
1, 304836, Control_c, 0, 64, 64
1, 304851, Control_c, 0, 64, 0
1, 304852, Note_on_c, 0, 53, 90
1, 304854, Note_on_c, 0, 73, 89
1, 304861, Note_on_c, 0, 41, 77
1, 304866, Control_c, 0, 64, 56
1, 304881, Control_c, 0, 64, 66
1, 304891, Note_off_c, 0, 41, 66
1, 304893, Note_off_c, 0, 53, 66
1, 304895, Control_c, 0, 64, 72
1, 304900, Note_off_c, 0, 73, 63
1, 304910, Control_c, 0, 64, 81
1, 304926, Control_c, 0, 64, 93
1, 304940, Control_c, 0, 64, 99
1, 304955, Control_c, 0, 64, 103
1, 304970, Control_c, 0, 64, 107
1, 304985, Control_c, 0, 64, 111
1, 305000, Control_c, 0, 64, 121
1, 305015, Control_c, 0, 64, 127
1, 305016, Note_on_c, 0, 72, 94
1, 305018, Note_on_c, 0, 84, 97
1, 305049, Note_on_c, 0, 65, 74
1, 305051, Note_on_c, 0, 64, 64
1, 305062, Note_off_c, 0, 72, 61
1, 305074, Note_off_c, 0, 64, 65
1, 305077, Note_off_c, 0, 65, 65
1, 305083, Note_off_c, 0, 84, 61
1, 305193, Note_on_c, 0, 61, 72
1, 305195, Note_on_c, 0, 73, 100
1, 305197, Note_on_c, 0, 56, 62
1, 305199, Note_on_c, 0, 85, 95
1, 305221, Note_off_c, 0, 61, 67
1, 305227, Note_off_c, 0, 85, 63
1, 305229, Note_off_c, 0, 73, 66
1, 305235, Note_off_c, 0, 56, 65
1, 305416, Control_c, 0, 64, 107
1, 305431, Control_c, 0, 64, 78
1, 305440, Note_on_c, 0, 39, 72
1, 305444, Note_on_c, 0, 51, 92
1, 305445, Control_c, 0, 64, 0
1, 305447, Note_on_c, 0, 66, 95
1, 305451, Note_on_c, 0, 78, 95
1, 305475, Control_c, 0, 64, 59
1, 305485, Note_off_c, 0, 39, 62
1, 305490, Control_c, 0, 64, 69
1, 305500, Note_off_c, 0, 51, 62
1, 305505, Control_c, 0, 64, 78
1, 305519, Control_c, 0, 64, 90
1, 305524, Note_off_c, 0, 66, 62
1, 305534, Control_c, 0, 64, 100
1, 305548, Note_off_c, 0, 78, 61
1, 305549, Control_c, 0, 64, 104
1, 305563, Control_c, 0, 64, 105
1, 305586, Control_c, 0, 64, 106
1, 305601, Control_c, 0, 64, 108
1, 305616, Control_c, 0, 64, 111
1, 305631, Control_c, 0, 64, 113
1, 305645, Control_c, 0, 64, 114
1, 305650, Note_on_c, 0, 63, 80
1, 305656, Note_on_c, 0, 69, 74
1, 305660, Control_c, 0, 64, 115
1, 305675, Control_c, 0, 64, 116
1, 305685, Note_on_c, 0, 51, 8
1, 305690, Control_c, 0, 64, 117
1, 305698, Note_on_c, 0, 70, 72
1, 305704, Note_off_c, 0, 63, 58
1, 305705, Control_c, 0, 64, 117
1, 305713, Note_off_c, 0, 69, 57
1, 305713, Note_off_c, 0, 51, 43
1, 305719, Control_c, 0, 64, 118
1, 305733, Note_on_c, 0, 73, 73
1, 305734, Control_c, 0, 64, 118
1, 305764, Note_on_c, 0, 58, 54
1, 305768, Note_off_c, 0, 70, 62
1, 305781, Note_on_c, 0, 54, 46
1, 305790, Note_off_c, 0, 58, 65
1, 305791, Note_on_c, 0, 72, 73
1, 305793, Control_c, 0, 64, 119
1, 305806, Note_off_c, 0, 54, 58
1, 305831, Note_off_c, 0, 73, 59
1, 305835, Note_on_c, 0, 70, 78
1, 305851, Note_off_c, 0, 72, 65
1, 305864, Note_off_c, 0, 70, 65
1, 305867, Control_c, 0, 64, 118
1, 305882, Control_c, 0, 64, 105
1, 305897, Control_c, 0, 64, 84
1, 305912, Control_c, 0, 64, 59
1, 305912, Note_on_c, 0, 49, 95
1, 305924, Note_on_c, 0, 37, 72
1, 305927, Control_c, 0, 64, 0
1, 305928, Note_on_c, 0, 71, 72
1, 305942, Control_c, 0, 64, 52
1, 305950, Note_off_c, 0, 37, 67
1, 305954, Note_off_c, 0, 71, 67
1, 305957, Control_c, 0, 64, 66
1, 305959, Note_on_c, 0, 72, 43
1, 305960, Note_off_c, 0, 49, 59
1, 305972, Control_c, 0, 64, 74
1, 305985, Note_off_c, 0, 72, 37
1, 305986, Control_c, 0, 64, 85
1, 306001, Control_c, 0, 64, 96
1, 306016, Control_c, 0, 64, 104
1, 306031, Control_c, 0, 64, 108
1, 306046, Control_c, 0, 64, 111
1, 306061, Control_c, 0, 64, 119
1, 306076, Control_c, 0, 64, 127
1, 306079, Note_on_c, 0, 69, 98
1, 306085, Note_on_c, 0, 81, 89
1, 306103, Note_on_c, 0, 61, 78
1, 306121, Note_off_c, 0, 69, 68
1, 306130, Note_off_c, 0, 61, 62
1, 306138, Note_off_c, 0, 81, 58
1, 306225, Note_on_c, 0, 58, 75
1, 306236, Note_on_c, 0, 70, 94
1, 306237, Note_on_c, 0, 82, 89
1, 306240, Note_on_c, 0, 53, 60
1, 306248, Note_off_c, 0, 58, 68
1, 306259, Note_off_c, 0, 82, 65
1, 306270, Note_off_c, 0, 53, 67
1, 306272, Note_off_c, 0, 70, 60
1, 306439, Control_c, 0, 64, 103
1, 306454, Control_c, 0, 64, 73
1, 306458, Note_on_c, 0, 48, 83
1, 306458, Note_on_c, 0, 36, 72
1, 306461, Note_on_c, 0, 63, 93
1, 306466, Note_on_c, 0, 75, 82
1, 306468, Control_c, 0, 64, 0
1, 306483, Control_c, 0, 64, 43
1, 306498, Note_off_c, 0, 36, 65
1, 306498, Control_c, 0, 64, 66
1, 306512, Control_c, 0, 64, 74
1, 306515, Note_off_c, 0, 48, 64
1, 306518, Note_on_c, 0, 73, 15
1, 306527, Control_c, 0, 64, 84
1, 306529, Note_off_c, 0, 63, 63
1, 306542, Control_c, 0, 64, 97
1, 306557, Control_c, 0, 64, 105
1, 306559, Note_off_c, 0, 75, 63
1, 306562, Note_off_c, 0, 73, 29
1, 306572, Control_c, 0, 64, 108
1, 306586, Control_c, 0, 64, 109
1, 306601, Control_c, 0, 64, 109
1, 306616, Control_c, 0, 64, 110
1, 306631, Control_c, 0, 64, 112
1, 306646, Control_c, 0, 64, 113
1, 306652, Note_on_c, 0, 65, 72
1, 306658, Note_on_c, 0, 60, 70
1, 306660, Control_c, 0, 64, 114
1, 306675, Control_c, 0, 64, 115
1, 306688, Note_off_c, 0, 60, 61
1, 306690, Control_c, 0, 64, 115
1, 306699, Note_on_c, 0, 66, 72
1, 306705, Control_c, 0, 64, 116
1, 306719, Note_off_c, 0, 65, 60
1, 306720, Control_c, 0, 64, 118
1, 306735, Control_c, 0, 64, 120
1, 306740, Note_on_c, 0, 70, 75
1, 306750, Control_c, 0, 64, 121
1, 306758, Note_on_c, 0, 51, 52
1, 306764, Note_off_c, 0, 66, 65
1, 306765, Control_c, 0, 64, 122
1, 306773, Note_on_c, 0, 54, 40
1, 306777, Note_on_c, 0, 68, 73
1, 306780, Control_c, 0, 64, 123
1, 306795, Control_c, 0, 64, 123
1, 306802, Note_off_c, 0, 54, 51
1, 306803, Note_off_c, 0, 51, 63
1, 306815, Note_off_c, 0, 70, 59
1, 306824, Control_c, 0, 64, 124
1, 306834, Note_on_c, 0, 66, 83
1, 306854, Note_off_c, 0, 68, 65
1, 306854, Control_c, 0, 64, 124
1, 306874, Note_off_c, 0, 66, 69
1, 306884, Control_c, 0, 64, 123
1, 306899, Control_c, 0, 64, 110
1, 306913, Note_on_c, 0, 46, 98
1, 306914, Control_c, 0, 64, 88
1, 306922, Note_on_c, 0, 34, 68
1, 306922, Note_on_c, 0, 66, 85
1, 306928, Control_c, 0, 64, 61
1, 306937, Note_off_c, 0, 46, 64
1, 306943, Control_c, 0, 64, 0
1, 306955, Note_off_c, 0, 34, 65
1, 306958, Control_c, 0, 64, 62
1, 306973, Control_c, 0, 64, 70
1, 306988, Control_c, 0, 64, 78
1, 307002, Control_c, 0, 64, 91
1, 307017, Control_c, 0, 64, 103
1, 307018, Poly_aftertouch_c, 0, 37, 0
1, 307032, Control_c, 0, 64, 108
1, 307047, Control_c, 0, 64, 110
1, 307051, Note_off_c, 0, 66, 63
1, 307062, Control_c, 0, 64, 111
1, 307077, Control_c, 0, 64, 113
1, 307098, Note_on_c, 0, 66, 74
1, 307098, Control_c, 0, 64, 117
1, 307100, Note_on_c, 0, 74, 78
1, 307101, Note_on_c, 0, 77, 79
1, 307107, Note_on_c, 0, 58, 85
1, 307113, Control_c, 0, 64, 122
1, 307128, Control_c, 0, 64, 127
1, 307133, Note_on_c, 0, 46, 44
1, 307155, Note_off_c, 0, 46, 61
1, 307157, Note_off_c, 0, 58, 60
1, 307170, Note_off_c, 0, 77, 60
1, 307184, Note_off_c, 0, 74, 62
1, 307267, Note_on_c, 0, 75, 89
1, 307272, Note_on_c, 0, 78, 86
1, 307274, Note_on_c, 0, 54, 84
1, 307280, Note_on_c, 0, 51, 69
1, 307301, Note_on_c, 0, 57, 49
1, 307305, Note_on_c, 0, 45, 48
1, 307319, Note_on_c, 0, 48, 33
1, 307329, Note_off_c, 0, 57, 55
1, 307339, Note_off_c, 0, 45, 57
1, 307355, Note_off_c, 0, 48, 51
1, 307360, Note_off_c, 0, 51, 56
1, 307364, Note_off_c, 0, 66, 63
1, 307364, Note_off_c, 0, 78, 60
1, 307366, Note_off_c, 0, 54, 59
1, 307379, Note_off_c, 0, 75, 61
1, 307438, Control_c, 0, 64, 96
1, 307445, Note_on_c, 0, 45, 66
1, 307448, Note_on_c, 0, 53, 88
1, 307450, Note_on_c, 0, 57, 80
1, 307452, Note_on_c, 0, 65, 104
1, 307453, Note_on_c, 0, 77, 89
1, 307453, Control_c, 0, 64, 67
1, 307464, Note_on_c, 0, 75, 75
1, 307468, Control_c, 0, 64, 0
1, 307477, Note_on_c, 0, 72, 54
1, 307496, Note_off_c, 0, 72, 63
1, 307497, Note_off_c, 0, 45, 63
1, 307508, Note_off_c, 0, 57, 59
1, 307508, Note_off_c, 0, 77, 62
1, 307513, Control_c, 0, 64, 52
1, 307522, Note_off_c, 0, 75, 63
1, 307524, Note_off_c, 0, 53, 62
1, 307528, Control_c, 0, 64, 68
1, 307529, Note_off_c, 0, 65, 63
1, 307542, Control_c, 0, 64, 78
1, 307557, Control_c, 0, 64, 91
1, 307572, Control_c, 0, 64, 102
1, 307587, Control_c, 0, 64, 107
1, 307602, Control_c, 0, 64, 108
1, 307617, Control_c, 0, 64, 109
1, 307632, Control_c, 0, 64, 111
1, 307647, Control_c, 0, 64, 113
1, 307662, Control_c, 0, 64, 114
1, 307663, Note_on_c, 0, 64, 74
1, 307677, Control_c, 0, 64, 115
1, 307677, Note_on_c, 0, 52, 71
1, 307692, Control_c, 0, 64, 117
1, 307706, Control_c, 0, 64, 119
1, 307718, Note_off_c, 0, 64, 64
1, 307721, Note_on_c, 0, 65, 66
1, 307721, Control_c, 0, 64, 121
1, 307736, Control_c, 0, 64, 123
1, 307742, Note_off_c, 0, 52, 61
1, 307750, Control_c, 0, 64, 125
1, 307759, Note_on_c, 0, 68, 77
1, 307765, Control_c, 0, 64, 126
1, 307774, Note_off_c, 0, 65, 64
1, 307780, Control_c, 0, 64, 127
1, 307782, Note_on_c, 0, 66, 67
1, 307789, Note_on_c, 0, 54, 54
1, 307791, Note_on_c, 0, 56, 71
1, 307805, Note_on_c, 0, 53, 34
1, 307808, Note_off_c, 0, 68, 55
1, 307823, Note_off_c, 0, 56, 65
1, 307837, Note_on_c, 0, 65, 67
1, 307855, Note_off_c, 0, 54, 59
1, 307867, Note_off_c, 0, 53, 65
1, 307894, Note_off_c, 0, 66, 66
1, 307895, Note_off_c, 0, 65, 66
1, 307906, Control_c, 0, 64, 123
1, 307921, Control_c, 0, 64, 100
1, 307936, Control_c, 0, 64, 74
1, 307951, Control_c, 0, 64, 0
1, 307958, Note_on_c, 0, 53, 86
1, 307962, Note_on_c, 0, 46, 101
1, 307963, Note_on_c, 0, 65, 85
1, 307966, Note_on_c, 0, 34, 79
1, 307981, Note_off_c, 0, 53, 70
1, 307981, Control_c, 0, 64, 49
1, 307987, Note_on_c, 0, 61, 43
1, 307993, Note_off_c, 0, 34, 67
1, 307996, Control_c, 0, 64, 68
1, 308007, Note_off_c, 0, 46, 59
1, 308011, Control_c, 0, 64, 79
1, 308014, Note_off_c, 0, 65, 67
1, 308016, Note_off_c, 0, 61, 35
1, 308025, Control_c, 0, 64, 91
1, 308040, Control_c, 0, 64, 98
1, 308055, Control_c, 0, 64, 100
1, 308070, Control_c, 0, 64, 103
1, 308085, Control_c, 0, 64, 106
1, 308100, Control_c, 0, 64, 110
1, 308114, Control_c, 0, 64, 116
1, 308129, Control_c, 0, 64, 127
1, 308144, Control_c, 0, 64, 127
1, 308192, Note_on_c, 0, 75, 100
1, 308192, Note_on_c, 0, 87, 98
1, 308193, Note_on_c, 0, 63, 96
1, 308196, Note_on_c, 0, 51, 80
1, 308227, Note_on_c, 0, 88, 46
1, 308228, Note_off_c, 0, 88, 127
1, 308234, Note_off_c, 0, 51, 59
1, 308235, Note_off_c, 0, 75, 63
1, 308239, Note_off_c, 0, 87, 59
1, 308242, Note_off_c, 0, 63, 64
1, 308379, Note_on_c, 0, 61, 84
1, 308380, Note_on_c, 0, 85, 89
1, 308380, Note_on_c, 0, 73, 101
1, 308382, Note_on_c, 0, 49, 63
1, 308399, Note_off_c, 0, 61, 70
1, 308412, Note_off_c, 0, 49, 63
1, 308424, Note_off_c, 0, 85, 63
1, 308428, Note_off_c, 0, 73, 62
1, 308463, Poly_aftertouch_c, 0, 48, 127
1, 308497, Poly_aftertouch_c, 0, 48, 0
1, 308536, Note_on_c, 0, 41, 66
1, 308553, Note_on_c, 0, 72, 75
1, 308559, Note_off_c, 0, 41, 65
1, 308559, Control_c, 0, 64, 90
1, 308565, Note_on_c, 0, 76, 80
1, 308581, Note_on_c, 0, 81, 84
1, 308581, Control_c, 0, 64, 65
1, 308584, Note_on_c, 0, 48, 68
1, 308587, Note_on_c, 0, 57, 94
1, 308596, Control_c, 0, 64, 30
1, 308597, Note_on_c, 0, 84, 96
1, 308601, Note_off_c, 0, 72, 67
1, 308611, Control_c, 0, 64, 68
1, 308616, Note_off_c, 0, 76, 65
1, 308617, Note_off_c, 0, 81, 60
1, 308621, Note_off_c, 0, 48, 67
1, 308626, Control_c, 0, 64, 78
1, 308629, Note_off_c, 0, 57, 65
1, 308631, Note_off_c, 0, 84, 67
1, 308641, Control_c, 0, 64, 91
1, 308655, Control_c, 0, 64, 109
1, 308670, Control_c, 0, 64, 125
1, 308685, Control_c, 0, 64, 127
1, 308810, Note_on_c, 0, 64, 77
1, 308820, Note_on_c, 0, 52, 64
1, 308864, Note_off_c, 0, 52, 58
1, 308873, Note_on_c, 0, 65, 69
1, 308875, Note_off_c, 0, 64, 62
1, 308902, Note_on_c, 0, 68, 79
1, 308921, Note_off_c, 0, 65, 64
1, 308922, Note_on_c, 0, 56, 70
1, 308931, Note_on_c, 0, 66, 72
1, 308944, Note_on_c, 0, 53, 66
1, 308947, Note_off_c, 0, 68, 67
1, 308954, Note_off_c, 0, 56, 64
1, 308979, Note_on_c, 0, 65, 80
1, 308988, Note_off_c, 0, 53, 65
1, 309020, Note_off_c, 0, 66, 66
1, 309033, Note_off_c, 0, 65, 67
1, 309041, Control_c, 0, 64, 116
1, 309055, Control_c, 0, 64, 89
1, 309070, Control_c, 0, 64, 64
1, 309085, Control_c, 0, 64, 0
1, 309094, Note_on_c, 0, 34, 74
1, 309096, Note_on_c, 0, 53, 95
1, 309099, Note_on_c, 0, 46, 94
1, 309099, Note_on_c, 0, 65, 85
1, 309100, Control_c, 0, 64, 44
1, 309102, Note_on_c, 0, 44, 75
1, 309114, Note_off_c, 0, 53, 74
1, 309114, Control_c, 0, 64, 68
1, 309122, Note_on_c, 0, 61, 44
1, 309122, Note_off_c, 0, 34, 68
1, 309129, Control_c, 0, 64, 83
1, 309134, Note_off_c, 0, 44, 65
1, 309136, Note_off_c, 0, 46, 62
1, 309144, Control_c, 0, 64, 98
1, 309147, Note_off_c, 0, 61, 56
1, 309152, Note_off_c, 0, 65, 67
1, 309160, Control_c, 0, 64, 108
1, 309175, Control_c, 0, 64, 111
1, 309190, Control_c, 0, 64, 113
1, 309204, Control_c, 0, 64, 114
1, 309219, Control_c, 0, 64, 117
1, 309220, Poly_aftertouch_c, 0, 33, 0
1, 309234, Control_c, 0, 64, 122
1, 309249, Control_c, 0, 64, 127
1, 309308, Note_on_c, 0, 72, 87
1, 309311, Note_on_c, 0, 84, 86
1, 309313, Note_on_c, 0, 60, 87
1, 309331, Note_on_c, 0, 48, 69
1, 309358, Note_off_c, 0, 60, 59
1, 309362, Note_off_c, 0, 72, 64
1, 309364, Note_off_c, 0, 84, 66
1, 309367, Note_off_c, 0, 48, 65
1, 309476, Note_on_c, 0, 58, 91
1, 309478, Note_on_c, 0, 82, 92
1, 309479, Note_on_c, 0, 70, 94
1, 309492, Note_on_c, 0, 46, 69
1, 309515, Note_off_c, 0, 58, 65
1, 309520, Note_off_c, 0, 46, 64
1, 309525, Note_off_c, 0, 70, 62
1, 309531, Note_off_c, 0, 82, 62
1, 309632, Note_on_c, 0, 41, 61
1, 309634, Note_on_c, 0, 69, 75
1, 309641, Control_c, 0, 64, 101
1, 309647, Note_on_c, 0, 72, 88
1, 309654, Note_on_c, 0, 48, 57
1, 309654, Note_off_c, 0, 41, 63
1, 309656, Note_off_c, 0, 69, 71
1, 309656, Control_c, 0, 64, 72
1, 309659, Note_on_c, 0, 77, 81
1, 309671, Control_c, 0, 64, 0
1, 309673, Note_on_c, 0, 81, 94
1, 309677, Note_on_c, 0, 57, 89
1, 309696, Note_off_c, 0, 72, 66
1, 309701, Control_c, 0, 64, 63
1, 309703, Note_off_c, 0, 77, 60
1, 309710, Note_off_c, 0, 48, 65
1, 309716, Control_c, 0, 64, 72
1, 309719, Note_off_c, 0, 81, 65
1, 309722, Note_off_c, 0, 57, 61
1, 309730, Control_c, 0, 64, 84
1, 309745, Control_c, 0, 64, 100
1, 309760, Control_c, 0, 64, 113
1, 309775, Control_c, 0, 64, 118
1, 309790, Control_c, 0, 64, 119
1, 309804, Control_c, 0, 64, 120
1, 309819, Control_c, 0, 64, 122
1, 309834, Control_c, 0, 64, 126
1, 309849, Control_c, 0, 64, 127
1, 309884, Note_on_c, 0, 64, 75
1, 309893, Note_on_c, 0, 52, 64
1, 309938, Note_on_c, 0, 65, 71
1, 309939, Note_off_c, 0, 52, 57
1, 309947, Note_off_c, 0, 64, 63
1, 309973, Note_on_c, 0, 68, 80
1, 309992, Note_off_c, 0, 65, 65
1, 310005, Note_on_c, 0, 56, 70
1, 310014, Note_on_c, 0, 66, 70
1, 310026, Note_off_c, 0, 68, 67
1, 310035, Note_on_c, 0, 53, 52
1, 310041, Note_off_c, 0, 56, 63
1, 310058, Note_on_c, 0, 65, 79
1, 310086, Note_off_c, 0, 53, 66
1, 310111, Note_off_c, 0, 66, 66
1, 310124, Note_off_c, 0, 65, 68
1, 310139, Control_c, 0, 64, 103
1, 310153, Control_c, 0, 64, 74
1, 310168, Control_c, 0, 64, 0
1, 310184, Note_on_c, 0, 53, 87
1, 310187, Note_on_c, 0, 44, 98
1, 310194, Note_on_c, 0, 34, 67
1, 310196, Note_on_c, 0, 65, 82
1, 310198, Control_c, 0, 64, 53
1, 310209, Note_on_c, 0, 61, 56
1, 310209, Note_off_c, 0, 53, 70
1, 310213, Control_c, 0, 64, 70
1, 310218, Note_on_c, 0, 45, 56
1, 310219, Note_off_c, 0, 34, 59
1, 310227, Note_off_c, 0, 44, 61
1, 310228, Control_c, 0, 64, 84
1, 310230, Note_off_c, 0, 61, 60
1, 310242, Control_c, 0, 64, 99
1, 310244, Note_off_c, 0, 45, 57
1, 310246, Note_off_c, 0, 65, 66
1, 310257, Control_c, 0, 64, 106
1, 310262, Poly_aftertouch_c, 0, 33, 127
1, 310272, Control_c, 0, 64, 108
1, 310287, Control_c, 0, 64, 109
1, 310291, Poly_aftertouch_c, 0, 33, 0
1, 310301, Control_c, 0, 64, 111
1, 310316, Control_c, 0, 64, 118
1, 310331, Control_c, 0, 64, 127
1, 310408, Note_on_c, 0, 87, 97
1, 310410, Note_on_c, 0, 63, 96
1, 310410, Note_on_c, 0, 75, 95
1, 310419, Note_on_c, 0, 51, 75
1, 310448, Note_off_c, 0, 51, 64
1, 310457, Note_off_c, 0, 75, 63
1, 310458, Note_off_c, 0, 63, 64
1, 310464, Note_off_c, 0, 87, 60
1, 310573, Note_on_c, 0, 85, 91
1, 310574, Note_on_c, 0, 73, 96
1, 310575, Note_on_c, 0, 61, 91
1, 310583, Note_on_c, 0, 49, 66
1, 310601, Note_off_c, 0, 61, 65
1, 310609, Note_off_c, 0, 49, 66
1, 310614, Note_off_c, 0, 73, 65
1, 310620, Note_off_c, 0, 85, 68
1, 310723, Note_on_c, 0, 72, 74
1, 310723, Note_on_c, 0, 41, 64
1, 310731, Control_c, 0, 64, 103
1, 310741, Note_on_c, 0, 76, 79
1, 310746, Note_on_c, 0, 44, 39
1, 310746, Control_c, 0, 64, 64
1, 310747, Note_on_c, 0, 48, 60
1, 310749, Note_off_c, 0, 41, 61
1, 310759, Note_on_c, 0, 81, 67
1, 310762, Control_c, 0, 64, 0
1, 310765, Note_on_c, 0, 84, 90
1, 310768, Note_on_c, 0, 57, 95
1, 310770, Note_off_c, 0, 44, 47
1, 310774, Note_off_c, 0, 72, 66
1, 310785, Note_off_c, 0, 81, 66
1, 310791, Control_c, 0, 64, 45
1, 310792, Note_off_c, 0, 76, 68
1, 310800, Note_off_c, 0, 48, 66
1, 310804, Note_on_c, 0, 80, 14
1, 310806, Control_c, 0, 64, 67
1, 310807, Note_off_c, 0, 84, 64
1, 310817, Note_off_c, 0, 57, 62
1, 310821, Control_c, 0, 64, 81
1, 310843, Control_c, 0, 64, 104
1, 310857, Note_off_c, 0, 80, 28
1, 310857, Control_c, 0, 64, 127
1, 310984, Note_on_c, 0, 64, 73
1, 310992, Note_on_c, 0, 52, 67
1, 311027, Note_on_c, 0, 65, 67
1, 311029, Note_off_c, 0, 52, 62
1, 311039, Note_off_c, 0, 64, 63
1, 311058, Note_on_c, 0, 68, 77
1, 311076, Note_off_c, 0, 65, 65
1, 311077, Note_on_c, 0, 56, 81
1, 311082, Note_on_c, 0, 66, 69
1, 311107, Note_off_c, 0, 68, 65
1, 311121, Note_off_c, 0, 56, 62
1, 311123, Note_on_c, 0, 53, 47
1, 311123, Note_on_c, 0, 65, 68
1, 311152, Note_off_c, 0, 53, 66
1, 311175, Note_off_c, 0, 66, 65
1, 311176, Note_off_c, 0, 65, 67
1, 311213, Control_c, 0, 64, 104
1, 311228, Control_c, 0, 64, 73
1, 311243, Control_c, 0, 64, 0
1, 311247, Note_on_c, 0, 53, 78
1, 311252, Note_on_c, 0, 65, 91
1, 311257, Note_on_c, 0, 46, 87
1, 311261, Note_on_c, 0, 34, 73
1, 311261, Note_on_c, 0, 44, 76
1, 311272, Note_off_c, 0, 53, 67
1, 311272, Control_c, 0, 64, 57
1, 311282, Note_off_c, 0, 44, 63
1, 311283, Note_on_c, 0, 61, 41
1, 311284, Note_off_c, 0, 34, 61
1, 311287, Note_off_c, 0, 46, 64
1, 311287, Control_c, 0, 64, 72
1, 311301, Control_c, 0, 64, 85
1, 311304, Note_off_c, 0, 65, 69
1, 311313, Note_off_c, 0, 61, 34
1, 311316, Control_c, 0, 64, 102
1, 311331, Control_c, 0, 64, 112
1, 311346, Control_c, 0, 64, 112
1, 311361, Control_c, 0, 64, 113
1, 311391, Control_c, 0, 64, 114
1, 311406, Control_c, 0, 64, 118
1, 311421, Control_c, 0, 64, 127
1, 311436, Control_c, 0, 64, 127
1, 311463, Note_on_c, 0, 72, 89
1, 311467, Note_on_c, 0, 60, 89
1, 311467, Note_on_c, 0, 84, 82
1, 311481, Note_on_c, 0, 48, 66
1, 311501, Note_off_c, 0, 60, 58
1, 311502, Note_off_c, 0, 72, 62
1, 311507, Note_off_c, 0, 48, 66
1, 311512, Note_off_c, 0, 84, 62
1, 311625, Note_on_c, 0, 58, 88
1, 311630, Note_on_c, 0, 70, 97
1, 311631, Note_on_c, 0, 82, 89
1, 311653, Note_on_c, 0, 46, 51
1, 311668, Note_off_c, 0, 58, 65
1, 311675, Note_off_c, 0, 46, 56
1, 311675, Note_off_c, 0, 70, 63
1, 311680, Note_off_c, 0, 82, 65
1, 311772, Note_on_c, 0, 41, 70
1, 311778, Note_on_c, 0, 69, 77
1, 311784, Control_c, 0, 64, 112
1, 311794, Note_on_c, 0, 72, 82
1, 311795, Note_off_c, 0, 41, 65
1, 311799, Control_c, 0, 64, 79
1, 311808, Note_on_c, 0, 77, 73
1, 311814, Control_c, 0, 64, 0
1, 311814, Note_off_c, 0, 69, 65
1, 311817, Note_on_c, 0, 48, 45
1, 311819, Note_on_c, 0, 81, 94
1, 311823, Note_on_c, 0, 57, 91
1, 311843, Note_off_c, 0, 77, 61
1, 311844, Control_c, 0, 64, 68
1, 311847, Note_off_c, 0, 72, 66
1, 311856, Note_off_c, 0, 48, 61
1, 311859, Control_c, 0, 64, 82
1, 311866, Note_off_c, 0, 81, 63
1, 311871, Note_off_c, 0, 57, 59
1, 311874, Control_c, 0, 64, 104
1, 311888, Control_c, 0, 64, 127
1, 311977, Control_c, 0, 64, 113
1, 311992, Control_c, 0, 64, 88
1, 312006, Control_c, 0, 64, 68
1, 312021, Control_c, 0, 64, 0
1, 312027, Note_on_c, 0, 64, 76
1, 312059, Note_on_c, 0, 52, 34
1, 312067, Note_on_c, 0, 53, 29
1, 312097, Note_off_c, 0, 64, 64
1, 312100, Note_on_c, 0, 65, 69
1, 312108, Note_off_c, 0, 52, 56
1, 312148, Note_on_c, 0, 68, 74
1, 312163, Note_off_c, 0, 65, 66
1, 312163, Note_off_c, 0, 53, 64
1, 312171, Note_on_c, 0, 54, 42
1, 312190, Note_on_c, 0, 66, 70
1, 312191, Note_on_c, 0, 56, 65
1, 312193, Note_off_c, 0, 68, 67
1, 312239, Note_off_c, 0, 66, 68
1, 312240, Note_on_c, 0, 65, 77
1, 312242, Note_off_c, 0, 56, 61
1, 312246, Note_on_c, 0, 53, 54
1, 312257, Note_off_c, 0, 54, 32
1, 312275, Note_off_c, 0, 53, 67
1, 312280, Note_off_c, 0, 65, 66
1, 312308, Note_on_c, 0, 65, 79
1, 312338, Note_on_c, 0, 53, 103
1, 312339, Control_c, 0, 64, 68
1, 312355, Control_c, 0, 64, 84
1, 312370, Note_off_c, 0, 65, 66
1, 312370, Control_c, 0, 64, 108
1, 312383, Note_off_c, 0, 53, 67
1, 312385, Control_c, 0, 64, 127
1, 312515, Note_on_c, 0, 73, 101
1, 312518, Note_on_c, 0, 85, 90
1, 312530, Note_on_c, 0, 61, 84
1, 312559, Note_off_c, 0, 73, 61
1, 312565, Note_off_c, 0, 85, 63
1, 312590, Note_off_c, 0, 61, 57
1, 312663, Note_on_c, 0, 60, 73
1, 312672, Note_on_c, 0, 72, 91
1, 312678, Note_on_c, 0, 84, 80
1, 312685, Note_off_c, 0, 60, 67
1, 312714, Note_off_c, 0, 72, 64
1, 312716, Note_on_c, 0, 83, 37
1, 312717, Note_off_c, 0, 83, 127
1, 312722, Note_off_c, 0, 84, 64
1, 312792, Note_on_c, 0, 41, 69
1, 312800, Control_c, 0, 64, 117
1, 312812, Note_on_c, 0, 69, 81
1, 312815, Control_c, 0, 64, 90
1, 312821, Note_off_c, 0, 41, 67
1, 312828, Note_on_c, 0, 72, 77
1, 312829, Control_c, 0, 64, 68
1, 312834, Note_on_c, 0, 48, 55
1, 312838, Note_on_c, 0, 77, 74
1, 312844, Control_c, 0, 64, 29
1, 312845, Note_on_c, 0, 57, 85
1, 312849, Note_off_c, 0, 69, 66
1, 312854, Note_on_c, 0, 81, 92
1, 312859, Control_c, 0, 64, 68
1, 312872, Note_off_c, 0, 72, 42
1, 312873, Control_c, 0, 64, 79
1, 312879, Note_off_c, 0, 77, 61
1, 312884, Note_off_c, 0, 48, 64
1, 312888, Note_off_c, 0, 81, 64
1, 312888, Control_c, 0, 64, 93
1, 312891, Note_off_c, 0, 57, 62
1, 312903, Control_c, 0, 64, 107
1, 312918, Control_c, 0, 64, 118
1, 312933, Control_c, 0, 64, 121
1, 312955, Poly_aftertouch_c, 0, 51, 0
1, 312962, Control_c, 0, 64, 119
1, 312977, Control_c, 0, 64, 109
1, 312992, Control_c, 0, 64, 94
1, 313007, Control_c, 0, 64, 77
1, 313021, Control_c, 0, 64, 37
1, 313036, Control_c, 0, 64, 0
1, 313053, Note_on_c, 0, 59, 75
1, 313060, Note_on_c, 0, 47, 69
1, 313126, Note_off_c, 0, 47, 60
1, 313126, Note_off_c, 0, 59, 60
1, 313128, Note_on_c, 0, 60, 71
1, 313138, Note_on_c, 0, 48, 65
1, 313159, Note_on_c, 0, 63, 76
1, 313176, Note_off_c, 0, 48, 61
1, 313181, Note_off_c, 0, 60, 61
1, 313188, Note_off_c, 0, 63, 68
1, 313194, Note_on_c, 0, 61, 75
1, 313201, Note_on_c, 0, 51, 67
1, 313225, Note_on_c, 0, 62, 23
1, 313226, Note_off_c, 0, 62, 127
1, 313235, Note_off_c, 0, 51, 64
1, 313245, Note_on_c, 0, 60, 68
1, 313247, Note_on_c, 0, 48, 54
1, 313255, Note_off_c, 0, 61, 65
1, 313272, Note_off_c, 0, 48, 58
1, 313295, Note_off_c, 0, 60, 65
1, 313346, Note_on_c, 0, 48, 81
1, 313355, Note_on_c, 0, 60, 76
1, 313356, Control_c, 0, 64, 47
1, 313361, Note_on_c, 0, 36, 57
1, 313370, Control_c, 0, 64, 71
1, 313378, Note_off_c, 0, 48, 67
1, 313385, Control_c, 0, 64, 86
1, 313389, Note_off_c, 0, 36, 57
1, 313400, Control_c, 0, 64, 104
1, 313415, Control_c, 0, 64, 125
1, 313430, Control_c, 0, 64, 127
1, 313524, Note_on_c, 0, 70, 78
1, 313538, Note_on_c, 0, 58, 66
1, 313549, Note_off_c, 0, 60, 55
1, 313560, Note_off_c, 0, 58, 59
1, 313591, Note_off_c, 0, 70, 56
1, 313627, Poly_aftertouch_c, 0, 59, 127
1, 313657, Poly_aftertouch_c, 0, 59, 0
1, 313670, Note_on_c, 0, 57, 65
1, 313670, Note_on_c, 0, 69, 82
1, 313698, Note_off_c, 0, 57, 64
1, 313701, Note_off_c, 0, 69, 64
1, 313796, Note_on_c, 0, 41, 60
1, 313799, Note_on_c, 0, 69, 71
1, 313800, Control_c, 0, 64, 112
1, 313815, Control_c, 0, 64, 85
1, 313817, Note_on_c, 0, 72, 67
1, 313829, Note_off_c, 0, 69, 69
1, 313832, Note_on_c, 0, 48, 55
1, 313832, Note_off_c, 0, 41, 58
1, 313838, Control_c, 0, 64, 62
1, 313852, Control_c, 0, 64, 0
1, 313856, Note_on_c, 0, 81, 88
1, 313859, Note_on_c, 0, 77, 66
1, 313860, Note_on_c, 0, 57, 78
1, 313867, Control_c, 0, 64, 64
1, 313869, Note_off_c, 0, 48, 58
1, 313872, Note_off_c, 0, 72, 63
1, 313882, Control_c, 0, 64, 74
1, 313884, Note_off_c, 0, 77, 67
1, 313892, Note_off_c, 0, 57, 59
1, 313897, Control_c, 0, 64, 86
1, 313900, Note_off_c, 0, 81, 61
1, 313911, Control_c, 0, 64, 102
1, 313926, Control_c, 0, 64, 112
1, 313941, Control_c, 0, 64, 115
1, 313972, Control_c, 0, 64, 114
1, 313987, Control_c, 0, 64, 107
1, 314001, Control_c, 0, 64, 94
1, 314016, Control_c, 0, 64, 76
1, 314031, Control_c, 0, 64, 46
1, 314046, Control_c, 0, 64, 0
1, 314055, Note_on_c, 0, 64, 66
1, 314068, Note_on_c, 0, 52, 63
1, 314106, Note_on_c, 0, 65, 66
1, 314110, Note_off_c, 0, 64, 64
1, 314118, Note_off_c, 0, 52, 62
1, 314135, Note_on_c, 0, 53, 55
1, 314145, Note_on_c, 0, 68, 72
1, 314160, Note_off_c, 0, 65, 64
1, 314180, Note_off_c, 0, 53, 67
1, 314183, Note_on_c, 0, 66, 74
1, 314186, Note_off_c, 0, 68, 67
1, 314197, Note_on_c, 0, 56, 70
1, 314230, Note_off_c, 0, 66, 68
1, 314235, Note_off_c, 0, 56, 63
1, 314243, Note_on_c, 0, 65, 75
1, 314282, Note_off_c, 0, 65, 0
1, 314290, Note_on_c, 0, 53, 77
1, 314318, Poly_aftertouch_c, 0, 65, 127
1, 314339, Poly_aftertouch_c, 0, 65, 0
1, 314342, Control_c, 0, 64, 61
1, 314345, Note_off_c, 0, 53, 65
1, 314357, Control_c, 0, 64, 74
1, 314372, Control_c, 0, 64, 91
1, 314387, Control_c, 0, 64, 118
1, 314401, Control_c, 0, 64, 127
1, 314475, Note_on_c, 0, 73, 85
1, 314480, Note_on_c, 0, 85, 84
1, 314488, Note_on_c, 0, 61, 77
1, 314521, Note_off_c, 0, 73, 64
1, 314525, Note_off_c, 0, 85, 63
1, 314548, Note_off_c, 0, 61, 55
1, 314627, Note_on_c, 0, 60, 69
1, 314641, Note_on_c, 0, 72, 81
1, 314645, Note_on_c, 0, 84, 76
1, 314652, Note_off_c, 0, 60, 65
1, 314674, Note_off_c, 0, 84, 59
1, 314676, Note_off_c, 0, 72, 60
1, 314765, Control_c, 0, 64, 107
1, 314768, Note_on_c, 0, 41, 56
1, 314780, Control_c, 0, 64, 80
1, 314784, Note_on_c, 0, 69, 70
1, 314795, Control_c, 0, 64, 52
1, 314797, Note_off_c, 0, 41, 58
1, 314798, Note_on_c, 0, 48, 49
1, 314801, Note_on_c, 0, 72, 67
1, 314810, Control_c, 0, 64, 0
1, 314818, Note_off_c, 0, 69, 63
1, 314819, Note_on_c, 0, 77, 67
1, 314825, Control_c, 0, 64, 63
1, 314828, Note_on_c, 0, 81, 85
1, 314829, Note_on_c, 0, 57, 73
1, 314840, Control_c, 0, 64, 73
1, 314852, Note_off_c, 0, 77, 60
1, 314855, Control_c, 0, 64, 85
1, 314855, Note_off_c, 0, 72, 63
1, 314863, Note_off_c, 0, 57, 59
1, 314869, Note_off_c, 0, 81, 60
1, 314870, Control_c, 0, 64, 100
1, 314879, Note_off_c, 0, 48, 55
1, 314884, Control_c, 0, 64, 109
1, 314899, Control_c, 0, 64, 112
1, 314914, Control_c, 0, 64, 113
1, 314943, Control_c, 0, 64, 112
1, 314958, Control_c, 0, 64, 104
1, 314973, Control_c, 0, 64, 91
1, 314988, Control_c, 0, 64, 75
1, 315003, Control_c, 0, 64, 38
1, 315017, Control_c, 0, 64, 0
1, 315040, Note_on_c, 0, 59, 66
1, 315046, Note_on_c, 0, 47, 62
1, 315099, Note_off_c, 0, 47, 58
1, 315103, Note_on_c, 0, 60, 62
1, 315103, Note_off_c, 0, 59, 62
1, 315123, Note_on_c, 0, 48, 53
1, 315149, Note_on_c, 0, 63, 68
1, 315155, Note_off_c, 0, 60, 60
1, 315161, Note_off_c, 0, 48, 64
1, 315192, Note_on_c, 0, 51, 64
1, 315194, Note_on_c, 0, 61, 69
1, 315194, Note_off_c, 0, 63, 66
1, 315228, Note_off_c, 0, 51, 64
1, 315240, Note_off_c, 0, 61, 64
1, 315248, Note_on_c, 0, 60, 76
1, 315252, Note_on_c, 0, 48, 44
1, 315274, Note_off_c, 0, 60, 67
1, 315284, Note_off_c, 0, 48, 34
1, 315349, Note_on_c, 0, 60, 67
1, 315350, Control_c, 0, 64, 54
1, 315355, Note_on_c, 0, 48, 80
1, 315365, Control_c, 0, 64, 68
1, 315380, Control_c, 0, 64, 77
1, 315388, Note_on_c, 0, 36, 28
1, 315395, Control_c, 0, 64, 88
1, 315397, Note_off_c, 0, 48, 63
1, 315409, Control_c, 0, 64, 97
1, 315423, Control_c, 0, 64, 101
1, 315430, Note_off_c, 0, 36, 49
1, 315438, Control_c, 0, 64, 103
1, 315453, Control_c, 0, 64, 105
1, 315468, Control_c, 0, 64, 106
1, 315482, Control_c, 0, 64, 108
1, 315497, Control_c, 0, 64, 109
1, 315512, Control_c, 0, 64, 110
1, 315527, Control_c, 0, 64, 111
1, 315529, Note_on_c, 0, 70, 75
1, 315554, Note_off_c, 0, 60, 56
1, 315564, Note_on_c, 0, 58, 58
1, 315572, Control_c, 0, 64, 111
1, 315606, Note_off_c, 0, 58, 60
1, 315617, Control_c, 0, 64, 111
1, 315637, Note_off_c, 0, 70, 58
1, 315679, Note_on_c, 0, 69, 75
1, 315695, Note_on_c, 0, 57, 49
1, 315705, Control_c, 0, 64, 110
1, 315716, Note_off_c, 0, 69, 62
1, 315721, Note_off_c, 0, 57, 53
1, 315765, Control_c, 0, 64, 110
1, 315794, Control_c, 0, 64, 109
1, 315809, Control_c, 0, 64, 101
1, 315824, Control_c, 0, 64, 82
1, 315826, Note_on_c, 0, 69, 64
1, 315827, Note_on_c, 0, 41, 58
1, 315838, Control_c, 0, 64, 60
1, 315845, Note_on_c, 0, 72, 55
1, 315847, Note_off_c, 0, 69, 65
1, 315853, Control_c, 0, 64, 0
1, 315856, Note_off_c, 0, 41, 58
1, 315868, Control_c, 0, 64, 36
1, 315876, Note_on_c, 0, 81, 77
1, 315878, Note_on_c, 0, 77, 53
1, 315883, Control_c, 0, 64, 65
1, 315898, Control_c, 0, 64, 73
1, 315899, Note_off_c, 0, 77, 62
1, 315902, Note_off_c, 0, 81, 61
1, 315904, Note_off_c, 0, 72, 65
1, 315907, Note_on_c, 0, 48, 35
1, 315909, Note_on_c, 0, 57, 61
1, 315913, Control_c, 0, 64, 85
1, 315928, Control_c, 0, 64, 95
1, 315932, Note_off_c, 0, 57, 58
1, 315943, Control_c, 0, 64, 100
1, 315943, Note_off_c, 0, 48, 52
1, 315958, Control_c, 0, 64, 102
1, 315972, Control_c, 0, 64, 103
1, 316032, Control_c, 0, 64, 100
1, 316046, Control_c, 0, 64, 93
1, 316068, Control_c, 0, 64, 79
1, 316080, Note_on_c, 0, 59, 61
1, 316083, Control_c, 0, 64, 62
1, 316095, Note_on_c, 0, 47, 55
1, 316098, Control_c, 0, 64, 0
1, 316127, Note_off_c, 0, 59, 59
1, 316132, Note_off_c, 0, 47, 65
1, 316139, Note_on_c, 0, 60, 50
1, 316141, Note_on_c, 0, 48, 61
1, 316176, Note_on_c, 0, 63, 60
1, 316179, Note_off_c, 0, 60, 62
1, 316190, Note_off_c, 0, 48, 59
1, 316191, Note_on_c, 0, 49, 49
1, 316205, Note_on_c, 0, 61, 58
1, 316208, Note_on_c, 0, 51, 68
1, 316210, Note_off_c, 0, 63, 67
1, 316241, Note_off_c, 0, 49, 45
1, 316246, Note_off_c, 0, 61, 65
1, 316248, Note_off_c, 0, 51, 65
1, 316263, Note_on_c, 0, 60, 52
1, 316285, Note_off_c, 0, 60, 61
1, 316362, Note_on_c, 0, 48, 74
1, 316363, Note_on_c, 0, 60, 63
1, 316374, Note_on_c, 0, 36, 52
1, 316381, Control_c, 0, 64, 65
1, 316395, Control_c, 0, 64, 78
1, 316397, Note_off_c, 0, 48, 63
1, 316402, Note_off_c, 0, 36, 56
1, 316410, Control_c, 0, 64, 92
1, 316425, Control_c, 0, 64, 101
1, 316440, Control_c, 0, 64, 104
1, 316455, Control_c, 0, 64, 104
1, 316469, Control_c, 0, 64, 105
1, 316499, Control_c, 0, 64, 106
1, 316500, Note_off_c, 0, 60, 50
1, 316514, Control_c, 0, 64, 108
1, 316520, Note_on_c, 0, 70, 65
1, 316528, Control_c, 0, 64, 110
1, 316543, Control_c, 0, 64, 111
1, 316548, Note_on_c, 0, 58, 67
1, 316573, Control_c, 0, 64, 111
1, 316593, Note_off_c, 0, 58, 53
1, 316620, Note_off_c, 0, 70, 57
1, 316647, Control_c, 0, 64, 111
1, 316667, Note_on_c, 0, 69, 70
1, 316677, Note_on_c, 0, 57, 62
1, 316691, Control_c, 0, 64, 110
1, 316706, Note_off_c, 0, 57, 64
1, 316706, Control_c, 0, 64, 110
1, 316707, Note_off_c, 0, 69, 62
1, 316721, Control_c, 0, 64, 109
1, 316736, Control_c, 0, 64, 109
1, 316765, Control_c, 0, 64, 108
1, 316795, Control_c, 0, 64, 108
1, 316810, Control_c, 0, 64, 104
1, 316832, Note_on_c, 0, 69, 55
1, 316832, Control_c, 0, 64, 93
1, 316835, Note_on_c, 0, 41, 59
1, 316847, Control_c, 0, 64, 76
1, 316855, Note_on_c, 0, 72, 48
1, 316858, Note_off_c, 0, 69, 63
1, 316862, Control_c, 0, 64, 28
1, 316876, Control_c, 0, 64, 0
1, 316879, Note_on_c, 0, 48, 50
1, 316883, Note_on_c, 0, 81, 77
1, 316891, Control_c, 0, 64, 43
1, 316899, Note_on_c, 0, 53, 62
1, 316899, Note_off_c, 0, 72, 47
1, 316906, Control_c, 0, 64, 66
1, 316913, Note_on_c, 0, 77, 29
1, 316914, Note_off_c, 0, 41, 59
1, 316917, Note_off_c, 0, 81, 62
1, 316920, Control_c, 0, 64, 74
1, 316935, Control_c, 0, 64, 85
1, 316939, Note_off_c, 0, 53, 63
1, 316950, Note_off_c, 0, 77, 31
1, 316950, Control_c, 0, 64, 95
1, 316953, Note_off_c, 0, 48, 60
1, 316965, Control_c, 0, 64, 99
1, 316980, Control_c, 0, 64, 100
1, 317040, Control_c, 0, 64, 100
1, 317055, Control_c, 0, 64, 97
1, 317069, Control_c, 0, 64, 89
1, 317084, Control_c, 0, 64, 76
1, 317099, Control_c, 0, 64, 55
1, 317112, Note_on_c, 0, 59, 60
1, 317113, Control_c, 0, 64, 0
1, 317114, Note_on_c, 0, 47, 60
1, 317183, Note_off_c, 0, 47, 60
1, 317190, Note_off_c, 0, 59, 57
1, 317193, Note_on_c, 0, 60, 56
1, 317213, Note_on_c, 0, 48, 48
1, 317247, Note_off_c, 0, 48, 65
1, 317261, Note_off_c, 0, 60, 61
1, 317266, Note_on_c, 0, 63, 65
1, 317297, Note_on_c, 0, 51, 55
1, 317317, Note_on_c, 0, 61, 62
1, 317321, Note_off_c, 0, 63, 65
1, 317338, Note_on_c, 0, 48, 65
1, 317340, Note_off_c, 0, 51, 64
1, 317347, Poly_aftertouch_c, 0, 49, 127
1, 317363, Note_off_c, 0, 61, 64
1, 317374, Note_off_c, 0, 48, 65
1, 317377, Note_on_c, 0, 60, 67
1, 317379, Poly_aftertouch_c, 0, 49, 0
1, 317403, Note_off_c, 0, 60, 66
1, 317469, Note_on_c, 0, 48, 65
1, 317469, Note_on_c, 0, 60, 65
1, 317485, Control_c, 0, 64, 41
1, 317489, Note_on_c, 0, 36, 47
1, 317499, Control_c, 0, 64, 65
1, 317514, Note_off_c, 0, 48, 60
1, 317514, Control_c, 0, 64, 73
1, 317520, Note_off_c, 0, 36, 60
1, 317529, Control_c, 0, 64, 81
1, 317543, Control_c, 0, 64, 89
1, 317558, Control_c, 0, 64, 92
1, 317581, Control_c, 0, 64, 92
1, 317596, Control_c, 0, 64, 94
1, 317611, Control_c, 0, 64, 95
1, 317625, Control_c, 0, 64, 97
1, 317640, Control_c, 0, 64, 98
1, 317655, Control_c, 0, 64, 98
1, 317669, Control_c, 0, 64, 99
1, 317682, Note_on_c, 0, 70, 66
1, 317715, Note_on_c, 0, 58, 62
1, 317729, Control_c, 0, 67, 13
1, 317744, Note_off_c, 0, 60, 52
1, 317744, Control_c, 0, 67, 26
1, 317758, Control_c, 0, 67, 52
1, 317773, Control_c, 0, 67, 91
1, 317788, Control_c, 0, 67, 124
1, 317800, Note_off_c, 0, 58, 60
1, 317803, Control_c, 0, 67, 127
1, 317810, Note_off_c, 0, 70, 54
1, 317833, Control_c, 0, 64, 98
1, 317890, Note_on_c, 0, 69, 67
1, 317892, Note_on_c, 0, 57, 49
1, 317907, Control_c, 0, 64, 98
1, 317917, Note_off_c, 0, 57, 61
1, 317922, Control_c, 0, 64, 97
1, 317923, Note_off_c, 0, 69, 65
1, 317952, Control_c, 0, 64, 97
1, 317967, Control_c, 0, 64, 96
1, 317997, Control_c, 0, 64, 96
1, 318011, Control_c, 0, 64, 95
1, 318071, Control_c, 0, 64, 95
1, 318073, Note_on_c, 0, 41, 47
1, 318085, Note_on_c, 0, 69, 50
1, 318100, Control_c, 0, 64, 93
1, 318115, Control_c, 0, 64, 86
1, 318121, Note_on_c, 0, 72, 50
1, 318130, Control_c, 0, 64, 71
1, 318131, Note_off_c, 0, 69, 65
1, 318141, Note_on_c, 0, 48, 42
1, 318145, Control_c, 0, 64, 0
1, 318162, Note_on_c, 0, 77, 63
1, 318166, Note_on_c, 0, 81, 74
1, 318169, Note_on_c, 0, 53, 55
1, 318190, Note_off_c, 0, 72, 56
1, 318190, Control_c, 0, 64, 52
1, 318195, Note_off_c, 0, 81, 62
1, 318199, Note_off_c, 0, 77, 61
1, 318205, Note_off_c, 0, 53, 66
1, 318205, Control_c, 0, 64, 68
1, 318220, Control_c, 0, 64, 77
1, 318227, Note_off_c, 0, 48, 56
1, 318234, Control_c, 0, 64, 88
1, 318249, Control_c, 0, 64, 95
1, 318264, Control_c, 0, 64, 97
1, 318273, Note_off_c, 0, 41, 40
1, 318279, Control_c, 0, 64, 98
1, 318293, Control_c, 0, 64, 98
1, 318420, Control_c, 0, 64, 97
1, 318435, Control_c, 0, 64, 95
1, 318449, Control_c, 0, 64, 89
1, 318464, Control_c, 0, 64, 80
1, 318479, Control_c, 0, 64, 66
1, 318487, Note_on_c, 0, 47, 64
1, 318493, Control_c, 0, 64, 0
1, 318506, Note_on_c, 0, 35, 39
1, 318586, Note_off_c, 0, 35, 57
1, 318609, Note_on_c, 0, 36, 54
1, 318615, Note_on_c, 0, 48, 65
1, 318615, Note_off_c, 0, 47, 55
1, 318700, Note_off_c, 0, 48, 64
1, 318711, Note_off_c, 0, 36, 62
1, 318720, Note_on_c, 0, 51, 66
1, 318736, Note_on_c, 0, 39, 50
1, 318768, Note_on_c, 0, 37, 49
1, 318773, Note_off_c, 0, 51, 63
1, 318775, Note_on_c, 0, 49, 65
1, 318775, Note_off_c, 0, 39, 56
1, 318810, Note_off_c, 0, 49, 63
1, 318817, Note_on_c, 0, 48, 75
1, 318818, Note_off_c, 0, 37, 64
1, 318846, Note_on_c, 0, 36, 27
1, 318848, Note_off_c, 0, 48, 69
1, 318880, Note_off_c, 0, 36, 0
1, 318880, Note_on_c, 0, 36, 18
1, 318894, Note_on_c, 0, 48, 62
1, 318924, Note_off_c, 0, 36, 64
1, 318925, Note_off_c, 0, 48, 65
1, 319102, Note_on_c, 0, 58, 66
1, 319106, Note_on_c, 0, 46, 72
1, 319135, Note_off_c, 0, 58, 66
1, 319144, Note_off_c, 0, 46, 60
1, 319302, Note_on_c, 0, 45, 55
1, 319304, Note_on_c, 0, 57, 59
1, 319339, Note_off_c, 0, 57, 61
1, 319348, Note_off_c, 0, 45, 62
1, 319511, Note_on_c, 0, 53, 60
1, 319516, Note_on_c, 0, 41, 54
1, 319523, Control_c, 0, 64, 65
1, 319539, Control_c, 0, 64, 74
1, 319545, Note_off_c, 0, 53, 65
1, 319553, Note_off_c, 0, 41, 66
1, 319554, Control_c, 0, 64, 87
1, 319569, Control_c, 0, 64, 93
1, 319584, Control_c, 0, 64, 95
1, 319599, Control_c, 0, 64, 96
1, 319613, Control_c, 0, 64, 97
1, 319673, Control_c, 0, 64, 96
1, 319687, Control_c, 0, 64, 95
1, 319702, Control_c, 0, 64, 90
1, 319717, Control_c, 0, 64, 82
1, 319731, Control_c, 0, 64, 71
1, 319733, Note_on_c, 0, 35, 52
1, 319734, Note_on_c, 0, 47, 61
1, 319746, Control_c, 0, 64, 0
1, 319805, Note_off_c, 0, 35, 59
1, 319837, Note_on_c, 0, 36, 55
1, 319841, Note_off_c, 0, 47, 59
1, 319851, Note_on_c, 0, 48, 61
1, 319925, Note_off_c, 0, 48, 64
1, 319926, Note_off_c, 0, 36, 63
1, 319943, Note_on_c, 0, 51, 63
1, 319945, Note_on_c, 0, 39, 50
1, 319986, Note_off_c, 0, 39, 62
1, 319986, Note_off_c, 0, 51, 65
1, 319991, Note_on_c, 0, 37, 53
1, 319994, Note_on_c, 0, 49, 68
1, 320025, Note_off_c, 0, 49, 68
1, 320037, Note_off_c, 0, 37, 64
1, 320042, Note_on_c, 0, 48, 74
1, 320059, Note_on_c, 0, 36, 28
1, 320070, Note_off_c, 0, 48, 67
1, 320093, Note_off_c, 0, 36, 0
1, 320115, Note_on_c, 0, 36, 52
1, 320126, Note_on_c, 0, 48, 68
1, 320152, Note_off_c, 0, 48, 67
1, 320153, Note_off_c, 0, 36, 67
1, 320338, Note_on_c, 0, 58, 62
1, 320340, Note_on_c, 0, 46, 66
1, 320365, Note_off_c, 0, 58, 66
1, 320371, Note_off_c, 0, 46, 61
1, 320546, Note_on_c, 0, 45, 53
1, 320560, Note_on_c, 0, 57, 56
1, 320598, Note_off_c, 0, 45, 63
1, 320598, Note_off_c, 0, 57, 61
1, 320814, Note_on_c, 0, 41, 46
1, 320818, Note_on_c, 0, 53, 46
1, 320829, Control_c, 0, 64, 60
1, 320843, Control_c, 0, 64, 67
1, 320854, Note_off_c, 0, 41, 65
1, 320858, Control_c, 0, 64, 73
1, 320866, Note_off_c, 0, 53, 66
1, 320873, Control_c, 0, 64, 80
1, 320888, Control_c, 0, 64, 85
1, 320903, Control_c, 0, 64, 87
1, 320918, Control_c, 0, 64, 88
1, 320933, Control_c, 0, 64, 88
1, 320962, Control_c, 0, 64, 89
1, 321230, Control_c, 0, 64, 88
1, 321245, Control_c, 0, 64, 87
1, 321259, Control_c, 0, 64, 83
1, 321274, Control_c, 0, 64, 74
1, 321289, Control_c, 0, 64, 62
1, 321304, Control_c, 0, 64, 0
1, 321994, Note_on_c, 0, 35, 36
1, 321995, Note_on_c, 0, 47, 47
1, 322075, Note_off_c, 0, 35, 57
1, 322124, Note_on_c, 0, 36, 43
1, 322134, Note_off_c, 0, 47, 53
1, 322142, Note_on_c, 0, 48, 53
1, 322241, Note_off_c, 0, 48, 64
1, 322259, Note_off_c, 0, 36, 56
1, 322264, Note_on_c, 0, 51, 61
1, 322277, Note_on_c, 0, 39, 37
1, 322310, Note_off_c, 0, 39, 52
1, 322311, Note_on_c, 0, 37, 52
1, 322322, Note_off_c, 0, 51, 65
1, 322330, Note_on_c, 0, 49, 64
1, 322363, Note_off_c, 0, 49, 66
1, 322364, Note_off_c, 0, 37, 64
1, 322375, Note_on_c, 0, 48, 71
1, 322404, Note_off_c, 0, 48, 66
1, 322448, Poly_aftertouch_c, 0, 36, 127
1, 322459, Note_on_c, 0, 48, 70
1, 322477, Poly_aftertouch_c, 0, 36, 0
1, 322484, Note_off_c, 0, 48, 67
1, 322674, Note_on_c, 0, 58, 64
1, 322677, Note_on_c, 0, 46, 63
1, 322703, Note_off_c, 0, 58, 65
1, 322709, Note_off_c, 0, 46, 62
1, 322908, Note_on_c, 0, 57, 58
1, 322911, Note_on_c, 0, 45, 47
1, 322949, Note_off_c, 0, 57, 60
1, 322955, Note_off_c, 0, 45, 61
1, 323192, Note_on_c, 0, 53, 46
1, 323194, Control_c, 0, 64, 54
1, 323202, Note_on_c, 0, 41, 30
1, 323209, Control_c, 0, 64, 64
1, 323224, Control_c, 0, 64, 68
1, 323238, Control_c, 0, 64, 73
1, 323253, Control_c, 0, 64, 80
1, 323268, Control_c, 0, 64, 83
1, 323271, Note_off_c, 0, 53, 65
1, 323277, Note_off_c, 0, 41, 59
1, 323282, Control_c, 0, 64, 85
1, 323297, Control_c, 0, 64, 85
1, 323312, Control_c, 0, 64, 86
1, 323490, Control_c, 0, 64, 85
1, 323505, Control_c, 0, 64, 84
1, 323520, Control_c, 0, 64, 81
1, 323535, Control_c, 0, 64, 78
1, 323558, Control_c, 0, 64, 73
1, 323573, Control_c, 0, 64, 64
1, 323587, Control_c, 0, 64, 0
1, 324197, Note_on_c, 0, 46, 37
1, 324200, Note_on_c, 0, 34, 26
1, 324566, Note_on_c, 0, 33, 40
1, 324570, Note_on_c, 0, 45, 30
1, 324602, Note_off_c, 0, 34, 40
1, 324625, Note_off_c, 0, 46, 41
1, 325076, Note_on_c, 0, 29, 35
1, 325107, Note_on_c, 0, 41, 36
1, 325112, Note_off_c, 0, 33, 43
1, 325149, Note_off_c, 0, 45, 43
1, 326805, Control_c, 0, 64, 13
1, 326820, Control_c, 0, 64, 48
1, 326835, Control_c, 0, 64, 57
1, 326850, Control_c, 0, 64, 60
1, 326864, Control_c, 0, 64, 63
1, 326879, Control_c, 0, 64, 64
1, 326894, Control_c, 0, 64, 66
1, 326909, Control_c, 0, 64, 69
1, 326924, Control_c, 0, 64, 72
1, 326938, Control_c, 0, 64, 76
1, 326953, Control_c, 0, 64, 78
1, 326968, Control_c, 0, 64, 80
1, 326983, Control_c, 0, 64, 81
1, 326997, Control_c, 0, 64, 82
1, 327012, Control_c, 0, 64, 84
1, 327027, Control_c, 0, 64, 85
1, 327042, Control_c, 0, 64, 86
1, 327056, Control_c, 0, 64, 87
1, 327071, Control_c, 0, 64, 87
1, 327101, Control_c, 0, 64, 88
1, 327145, Control_c, 0, 64, 88
1, 327494, Note_off_c, 0, 29, 39
1, 327494, Note_off_c, 0, 41, 44
1, 327538, Control_c, 0, 64, 88
1, 327553, Control_c, 0, 64, 86
1, 327568, Control_c, 0, 64, 84
1, 327583, Control_c, 0, 64, 79
1, 327598, Control_c, 0, 64, 73
1, 327613, Control_c, 0, 64, 64
1, 327627, Control_c, 0, 64, 0
1, 328576, Note_on_c, 0, 57, 51
1, 328580, Note_on_c, 0, 45, 42
1, 328612, Note_off_c, 0, 57, 61
1, 328614, Note_on_c, 0, 58, 60
1, 328624, Note_off_c, 0, 45, 59
1, 328635, Note_on_c, 0, 46, 50
1, 328655, Note_on_c, 0, 61, 61
1, 328658, Note_off_c, 0, 58, 56
1, 328674, Note_off_c, 0, 46, 62
1, 328680, Note_on_c, 0, 49, 36
1, 328693, Note_off_c, 0, 61, 65
1, 328698, Note_on_c, 0, 65, 68
1, 328700, Note_on_c, 0, 53, 61
1, 328713, Note_off_c, 0, 49, 42
1, 328734, Note_off_c, 0, 53, 66
1, 328737, Note_off_c, 0, 65, 63
1, 329062, Note_on_c, 0, 45, 38
1, 329064, Note_on_c, 0, 57, 44
1, 329099, Note_off_c, 0, 57, 58
1, 329106, Note_on_c, 0, 58, 52
1, 329115, Note_off_c, 0, 45, 58
1, 329121, Note_on_c, 0, 46, 46
1, 329144, Note_on_c, 0, 61, 57
1, 329151, Note_off_c, 0, 58, 60
1, 329161, Note_on_c, 0, 49, 42
1, 329165, Note_off_c, 0, 46, 59
1, 329190, Note_off_c, 0, 61, 60
1, 329193, Note_off_c, 0, 49, 56
1, 329214, Note_on_c, 0, 65, 57
1, 329214, Note_on_c, 0, 53, 47
1, 329495, Control_c, 0, 64, 56
1, 329510, Control_c, 0, 64, 65
1, 329524, Control_c, 0, 64, 68
1, 329539, Control_c, 0, 64, 71
1, 329562, Control_c, 0, 64, 75
1, 329577, Control_c, 0, 64, 79
1, 329592, Control_c, 0, 64, 83
1, 329606, Control_c, 0, 64, 87
1, 329606, Control_c, 0, 67, 125
1, 329621, Control_c, 0, 64, 89
1, 329621, Control_c, 0, 67, 105
1, 329636, Control_c, 0, 64, 92
1, 329636, Control_c, 0, 67, 80
1, 329650, Control_c, 0, 64, 96
1, 329650, Control_c, 0, 67, 48
1, 329665, Control_c, 0, 64, 99
1, 329665, Control_c, 0, 67, 15
1, 329680, Control_c, 0, 64, 101
1, 329680, Control_c, 0, 67, 0
1, 329695, Control_c, 0, 64, 104
1, 329710, Control_c, 0, 64, 105
1, 329713, Note_off_c, 0, 65, 64
1, 329724, Control_c, 0, 64, 107
1, 329732, Note_off_c, 0, 53, 57
1, 329739, Control_c, 0, 64, 108
1, 329754, Control_c, 0, 64, 109
1, 329769, Control_c, 0, 64, 110
1, 329784, Control_c, 0, 64, 110
1, 330066, Control_c, 0, 64, 110
1, 330081, Control_c, 0, 64, 107
1, 330096, Control_c, 0, 64, 95
1, 330111, Control_c, 0, 64, 75
1, 330126, Control_c, 0, 64, 0
1, 330132, Note_on_c, 0, 34, 79
1, 330134, Note_on_c, 0, 46, 108
1, 330134, Note_on_c, 0, 58, 108
1, 330155, Control_c, 0, 64, 24
1, 330170, Control_c, 0, 64, 67
1, 330180, Note_off_c, 0, 58, 73
1, 330183, Note_off_c, 0, 46, 65
1, 330184, Note_off_c, 0, 34, 64
1, 330185, Control_c, 0, 64, 79
1, 330200, Control_c, 0, 64, 93
1, 330214, Control_c, 0, 64, 102
1, 330229, Control_c, 0, 64, 107
1, 330244, Control_c, 0, 64, 114
1, 330259, Control_c, 0, 64, 126
1, 330273, Control_c, 0, 64, 127
1, 330627, Note_on_c, 0, 70, 98
1, 330627, Note_on_c, 0, 58, 79
1, 330627, Note_on_c, 0, 82, 105
1, 330631, Note_on_c, 0, 94, 104
1, 330632, Note_on_c, 0, 66, 92
1, 330633, Note_on_c, 0, 90, 95
1, 330637, Note_on_c, 0, 63, 82
1, 330642, Note_on_c, 0, 60, 71
1, 331092, Note_off_c, 0, 58, 59
1, 331117, Note_off_c, 0, 94, 63
1, 331118, Note_off_c, 0, 60, 55
1, 331126, Note_off_c, 0, 70, 56
1, 331133, Note_off_c, 0, 82, 56
1, 331149, Note_off_c, 0, 90, 59
1, 331157, Note_off_c, 0, 63, 60
1, 331172, Note_off_c, 0, 66, 56
1, 331581, Note_on_c, 0, 70, 79
1, 331586, Note_on_c, 0, 58, 65
1, 331586, Note_on_c, 0, 66, 77
1, 331587, Note_on_c, 0, 75, 88
1, 331587, Note_on_c, 0, 87, 86
1, 331589, Note_on_c, 0, 84, 76
1, 331590, Note_on_c, 0, 63, 70
1, 331599, Note_on_c, 0, 60, 58
1, 331636, Note_off_c, 0, 70, 60
1, 331648, Note_off_c, 0, 58, 60
1, 331653, Note_off_c, 0, 75, 59
1, 331666, Note_off_c, 0, 60, 47
1, 331682, Note_off_c, 0, 63, 55
1, 331684, Note_off_c, 0, 66, 58
1, 331690, Note_off_c, 0, 87, 56
1, 331704, Note_off_c, 0, 84, 58
1, 331758, Note_on_c, 0, 84, 71
1, 331775, Note_on_c, 0, 77, 68
1, 331783, Note_on_c, 0, 70, 87
1, 331784, Note_on_c, 0, 66, 85
1, 331797, Note_on_c, 0, 58, 60
1, 331798, Note_off_c, 0, 77, 62
1, 331801, Note_on_c, 0, 63, 75
1, 331806, Note_off_c, 0, 84, 66
1, 331833, Note_on_c, 0, 78, 106
1, 331833, Note_off_c, 0, 70, 62
1, 331836, Note_on_c, 0, 84, 81
1, 331840, Note_on_c, 0, 90, 91
1, 331844, Note_on_c, 0, 60, 11
1, 331875, Note_on_c, 0, 82, 34
1, 331891, Note_off_c, 0, 60, 36
1, 331905, Note_off_c, 0, 63, 61
1, 331908, Note_off_c, 0, 82, 50
1, 331911, Note_off_c, 0, 90, 65
1, 331913, Note_off_c, 0, 78, 58
1, 331924, Note_off_c, 0, 84, 65
1, 331925, Note_off_c, 0, 58, 51
1, 331940, Note_off_c, 0, 66, 63
1, 331987, Control_c, 0, 64, 125
1, 332001, Control_c, 0, 64, 93
1, 332004, Note_on_c, 0, 58, 54
1, 332007, Note_on_c, 0, 89, 94
1, 332009, Note_on_c, 0, 77, 101
1, 332011, Note_on_c, 0, 65, 77
1, 332012, Note_on_c, 0, 70, 87
1, 332015, Note_on_c, 0, 85, 84
1, 332016, Control_c, 0, 64, 69
1, 332028, Note_on_c, 0, 61, 68
1, 332030, Note_on_c, 0, 86, 80
1, 332031, Control_c, 0, 64, 0
1, 332040, Note_off_c, 0, 70, 67
1, 332046, Control_c, 0, 64, 47
1, 332052, Note_off_c, 0, 89, 66
1, 332060, Control_c, 0, 64, 69
1, 332060, Control_c, 0, 67, 14
1, 332066, Note_off_c, 0, 65, 65
1, 332066, Note_off_c, 0, 58, 64
1, 332070, Note_off_c, 0, 86, 64
1, 332075, Control_c, 0, 64, 80
1, 332075, Control_c, 0, 67, 41
1, 332081, Note_off_c, 0, 77, 62
1, 332087, Note_off_c, 0, 61, 63
1, 332090, Control_c, 0, 64, 98
1, 332090, Control_c, 0, 67, 91
1, 332105, Control_c, 0, 64, 110
1, 332105, Control_c, 0, 67, 127
1, 332113, Note_off_c, 0, 85, 25
1, 332120, Control_c, 0, 64, 112
1, 332165, Control_c, 0, 64, 108
1, 332180, Control_c, 0, 64, 92
1, 332194, Control_c, 0, 64, 73
1, 332209, Control_c, 0, 64, 0
1, 332394, Note_on_c, 0, 57, 39
1, 332401, Note_on_c, 0, 45, 29
1, 332427, Note_off_c, 0, 57, 58
1, 332436, Note_on_c, 0, 46, 39
1, 332436, Note_on_c, 0, 58, 55
1, 332437, Note_off_c, 0, 45, 48
1, 332470, Note_on_c, 0, 49, 39
1, 332474, Note_off_c, 0, 46, 55
1, 332478, Note_on_c, 0, 61, 52
1, 332478, Note_off_c, 0, 58, 62
1, 332502, Note_off_c, 0, 49, 54
1, 332517, Note_on_c, 0, 53, 56
1, 332519, Note_off_c, 0, 61, 63
1, 332528, Note_on_c, 0, 65, 58
1, 332558, Note_off_c, 0, 53, 65
1, 332572, Note_off_c, 0, 65, 65
1, 332844, Note_on_c, 0, 57, 49
1, 332847, Note_on_c, 0, 45, 33
1, 332877, Note_off_c, 0, 57, 60
1, 332885, Note_off_c, 0, 45, 54
1, 332887, Note_on_c, 0, 58, 54
1, 332897, Note_on_c, 0, 46, 43
1, 332919, Note_on_c, 0, 49, 51
1, 332932, Note_on_c, 0, 61, 57
1, 332932, Note_off_c, 0, 58, 60
1, 332934, Note_off_c, 0, 46, 54
1, 332964, Note_off_c, 0, 49, 61
1, 332980, Note_off_c, 0, 61, 60
1, 332990, Note_on_c, 0, 53, 50
1, 333008, Note_on_c, 0, 65, 55
1, 333121, Control_c, 0, 67, 122
1, 333136, Control_c, 0, 67, 103
1, 333151, Control_c, 0, 67, 75
1, 333165, Control_c, 0, 67, 46
1, 333180, Control_c, 0, 67, 18
1, 333195, Control_c, 0, 67, 0
1, 333225, Control_c, 0, 64, 30
1, 333239, Control_c, 0, 64, 52
1, 333254, Control_c, 0, 64, 60
1, 333269, Control_c, 0, 64, 63
1, 333284, Control_c, 0, 64, 65
1, 333306, Control_c, 0, 64, 68
1, 333321, Control_c, 0, 64, 71
1, 333336, Control_c, 0, 64, 75
1, 333351, Control_c, 0, 64, 79
1, 333366, Control_c, 0, 64, 80
1, 333380, Control_c, 0, 64, 82
1, 333395, Control_c, 0, 64, 83
1, 333410, Control_c, 0, 64, 85
1, 333424, Control_c, 0, 64, 88
1, 333425, Note_off_c, 0, 53, 43
1, 333439, Control_c, 0, 64, 90
1, 333443, Note_off_c, 0, 65, 55
1, 333454, Control_c, 0, 64, 91
1, 333469, Control_c, 0, 64, 92
1, 333484, Control_c, 0, 64, 93
1, 333498, Control_c, 0, 64, 94
1, 333513, Control_c, 0, 64, 95
1, 333528, Control_c, 0, 64, 96
1, 333543, Control_c, 0, 64, 96
1, 333558, Control_c, 0, 64, 97
1, 333587, Control_c, 0, 64, 97
1, 333631, Control_c, 0, 64, 98
1, 333914, Control_c, 0, 64, 97
1, 333929, Control_c, 0, 64, 91
1, 333944, Control_c, 0, 64, 76
1, 333958, Note_on_c, 0, 32, 80
1, 333959, Control_c, 0, 64, 0
1, 333960, Note_on_c, 0, 44, 99
1, 333961, Note_on_c, 0, 56, 103
1, 333988, Control_c, 0, 64, 44
1, 334003, Control_c, 0, 64, 68
1, 334007, Note_off_c, 0, 56, 70
1, 334008, Note_off_c, 0, 32, 64
1, 334018, Control_c, 0, 64, 80
1, 334019, Note_off_c, 0, 44, 64
1, 334033, Control_c, 0, 64, 94
1, 334055, Control_c, 0, 64, 103
1, 334070, Control_c, 0, 64, 107
1, 334084, Control_c, 0, 64, 110
1, 334099, Control_c, 0, 64, 114
1, 334114, Control_c, 0, 64, 116
1, 334129, Control_c, 0, 64, 119
1, 334144, Control_c, 0, 64, 123
1, 334159, Control_c, 0, 64, 127
1, 334320, Note_on_c, 0, 56, 61
1, 334355, Note_on_c, 0, 65, 72
1, 334385, Note_off_c, 0, 56, 63
1, 334427, Note_on_c, 0, 80, 97
1, 334433, Note_on_c, 0, 89, 92
1, 334434, Note_on_c, 0, 92, 101
1, 334439, Note_on_c, 0, 73, 94
1, 334767, Note_off_c, 0, 73, 54
1, 334865, Note_off_c, 0, 92, 56
1, 334869, Note_off_c, 0, 65, 51
1, 334889, Note_off_c, 0, 89, 60
1, 334893, Note_off_c, 0, 80, 56
1, 335160, Control_c, 0, 64, 125
1, 335175, Control_c, 0, 64, 123
1, 335189, Control_c, 0, 64, 121
1, 335204, Control_c, 0, 64, 120
1, 335219, Control_c, 0, 64, 119
1, 335234, Control_c, 0, 64, 119
1, 335249, Control_c, 0, 64, 118
1, 335263, Control_c, 0, 64, 118
1, 335278, Control_c, 0, 64, 117
1, 335293, Control_c, 0, 64, 116
1, 335308, Control_c, 0, 64, 112
1, 335323, Control_c, 0, 64, 102
1, 335337, Control_c, 0, 64, 84
1, 335352, Control_c, 0, 64, 65
1, 335360, Note_on_c, 0, 68, 69
1, 335364, Note_on_c, 0, 75, 85
1, 335366, Note_on_c, 0, 56, 60
1, 335366, Note_on_c, 0, 84, 70
1, 335367, Note_on_c, 0, 63, 65
1, 335367, Note_on_c, 0, 66, 67
1, 335367, Control_c, 0, 64, 0
1, 335370, Note_on_c, 0, 87, 78
1, 335411, Control_c, 0, 64, 56
1, 335423, Note_off_c, 0, 68, 61
1, 335426, Control_c, 0, 64, 67
1, 335433, Note_off_c, 0, 56, 56
1, 335441, Control_c, 0, 64, 73
1, 335449, Note_off_c, 0, 75, 62
1, 335456, Control_c, 0, 64, 81
1, 335461, Note_off_c, 0, 63, 55
1, 335462, Note_off_c, 0, 66, 56
1, 335465, Note_off_c, 0, 84, 60
1, 335471, Control_c, 0, 64, 86
1, 335475, Note_off_c, 0, 87, 56
1, 335486, Control_c, 0, 64, 87
1, 335500, Control_c, 0, 64, 88
1, 335542, Note_on_c, 0, 84, 84
1, 335550, Note_on_c, 0, 77, 80
1, 335554, Control_c, 0, 64, 88
1, 335560, Note_on_c, 0, 68, 85
1, 335563, Note_on_c, 0, 56, 69
1, 335571, Note_off_c, 0, 77, 68
1, 335572, Note_on_c, 0, 66, 76
1, 335573, Note_on_c, 0, 63, 73
1, 335586, Note_off_c, 0, 84, 62
1, 335610, Note_on_c, 0, 78, 99
1, 335614, Note_on_c, 0, 84, 68
1, 335620, Note_on_c, 0, 90, 90
1, 335650, Note_off_c, 0, 68, 0
1, 335661, Note_off_c, 0, 56, 52
1, 335685, Note_off_c, 0, 63, 0
1, 335685, Note_on_c, 0, 63, 3
1, 335686, Note_off_c, 0, 78, 61
1, 335691, Note_off_c, 0, 90, 64
1, 335696, Note_off_c, 0, 84, 64
1, 335716, Note_off_c, 0, 66, 64
1, 335720, Note_off_c, 0, 63, 36
1, 335720, Poly_aftertouch_c, 0, 68, 0
1, 335760, Control_c, 0, 64, 86
1, 335775, Control_c, 0, 64, 76
1, 335781, Note_on_c, 0, 89, 87
1, 335782, Note_on_c, 0, 65, 82
1, 335783, Note_on_c, 0, 68, 91
1, 335783, Note_on_c, 0, 77, 100
1, 335787, Note_on_c, 0, 85, 96
1, 335790, Note_on_c, 0, 61, 70
1, 335790, Control_c, 0, 64, 32
1, 335805, Control_c, 0, 64, 0
1, 335828, Note_off_c, 0, 68, 63
1, 335834, Note_off_c, 0, 89, 64
1, 335834, Control_c, 0, 64, 16
1, 335843, Note_off_c, 0, 65, 66
1, 335849, Control_c, 0, 64, 66
1, 335858, Note_off_c, 0, 61, 62
1, 335861, Note_off_c, 0, 77, 62
1, 335864, Control_c, 0, 64, 79
1, 335868, Note_off_c, 0, 85, 63
1, 335879, Control_c, 0, 64, 93
1, 335894, Control_c, 0, 64, 103
1, 335909, Control_c, 0, 64, 106
1, 335954, Control_c, 0, 64, 102
1, 335968, Control_c, 0, 64, 91
1, 335983, Control_c, 0, 64, 74
1, 335998, Control_c, 0, 64, 0
1, 336182, Note_on_c, 0, 77, 86
1, 336183, Note_on_c, 0, 69, 98
1, 336185, Note_on_c, 0, 65, 89
1, 336191, Note_on_c, 0, 53, 63
1, 336191, Note_on_c, 0, 60, 79
1, 336205, Control_c, 0, 64, 66
1, 336219, Note_off_c, 0, 65, 68
1, 336219, Control_c, 0, 64, 79
1, 336231, Note_off_c, 0, 69, 67
1, 336231, Note_off_c, 0, 77, 64
1, 336234, Note_off_c, 0, 53, 65
1, 336234, Control_c, 0, 64, 98
1, 336241, Note_off_c, 0, 60, 64
1, 336249, Control_c, 0, 64, 119
1, 336264, Control_c, 0, 64, 127
1, 336566, Note_on_c, 0, 65, 89
1, 336568, Note_on_c, 0, 53, 99
1, 336568, Note_on_c, 0, 41, 79
1, 336570, Note_on_c, 0, 57, 101
1, 336571, Note_on_c, 0, 48, 84
1, 336600, Note_off_c, 0, 53, 68
1, 336620, Note_off_c, 0, 57, 66
1, 336620, Note_off_c, 0, 65, 66
1, 336624, Note_off_c, 0, 48, 65
1, 336625, Note_off_c, 0, 41, 65
1, 336922, Poly_aftertouch_c, 0, 42, 127
1, 336948, Poly_aftertouch_c, 0, 42, 0
1, 336967, Control_c, 0, 64, 127
1, 336982, Control_c, 0, 64, 102
1, 336997, Control_c, 0, 64, 83
1, 337006, Note_on_c, 0, 29, 95
1, 337009, Note_on_c, 0, 41, 106
1, 337012, Control_c, 0, 64, 61
1, 337027, Control_c, 0, 64, 0
1, 338208, Note_on_c, 0, 30, 86
1, 338209, Note_on_c, 0, 42, 107
1, 338211, Note_off_c, 0, 29, 39
1, 338232, Note_off_c, 0, 41, 51
1, 338255, Note_off_c, 0, 30, 65
1, 338264, Note_off_c, 0, 42, 66
1, 338741, Control_c, 0, 67, 9
1, 338756, Control_c, 0, 67, 14
1, 338771, Control_c, 0, 67, 20
1, 338785, Control_c, 0, 67, 30
1, 338800, Control_c, 0, 67, 42
1, 338815, Control_c, 0, 67, 57
1, 338830, Control_c, 0, 67, 77
1, 338845, Control_c, 0, 67, 97
1, 338860, Control_c, 0, 67, 118
1, 338875, Control_c, 0, 67, 127
1, 339923, Note_on_c, 0, 57, 38
1, 339924, Note_on_c, 0, 45, 41
1, 339954, Note_off_c, 0, 57, 54
1, 339965, Note_on_c, 0, 58, 52
1, 339970, Note_off_c, 0, 45, 56
1, 339999, Note_on_c, 0, 46, 24
1, 340007, Note_on_c, 0, 61, 54
1, 340023, Note_off_c, 0, 58, 59
1, 340037, Note_on_c, 0, 49, 24
1, 340047, Note_off_c, 0, 46, 51
1, 340055, Note_off_c, 0, 61, 63
1, 340068, Note_on_c, 0, 65, 56
1, 340070, Note_on_c, 0, 53, 50
1, 340079, Note_off_c, 0, 49, 46
1, 340108, Note_off_c, 0, 65, 64
1, 340109, Note_off_c, 0, 53, 65
1, 340419, Note_on_c, 0, 45, 36
1, 340463, Note_on_c, 0, 57, 32
1, 340493, Note_on_c, 0, 58, 45
1, 340498, Note_off_c, 0, 45, 57
1, 340502, Note_off_c, 0, 57, 51
1, 340517, Note_on_c, 0, 46, 31
1, 340526, Note_on_c, 0, 49, 53
1, 340534, Note_on_c, 0, 61, 51
1, 340553, Note_off_c, 0, 46, 51
1, 340558, Note_off_c, 0, 58, 60
1, 340574, Note_off_c, 0, 49, 59
1, 340583, Note_off_c, 0, 61, 57
1, 340596, Note_on_c, 0, 53, 42
1, 340615, Note_on_c, 0, 65, 46
1, 340897, Control_c, 0, 64, 45
1, 340912, Control_c, 0, 64, 56
1, 340912, Control_c, 0, 67, 118
1, 340927, Control_c, 0, 64, 62
1, 340927, Control_c, 0, 67, 103
1, 340941, Control_c, 0, 64, 65
1, 340941, Control_c, 0, 67, 84
1, 340956, Control_c, 0, 64, 67
1, 340956, Control_c, 0, 67, 59
1, 340971, Control_c, 0, 64, 70
1, 340971, Control_c, 0, 67, 36
1, 340986, Control_c, 0, 64, 75
1, 340986, Control_c, 0, 67, 15
1, 341001, Control_c, 0, 64, 79
1, 341001, Control_c, 0, 67, 0
1, 341015, Control_c, 0, 64, 82
1, 341030, Control_c, 0, 64, 84
1, 341045, Control_c, 0, 64, 85
1, 341060, Control_c, 0, 64, 87
1, 341075, Control_c, 0, 64, 88
1, 341090, Control_c, 0, 64, 90
1, 341091, Note_off_c, 0, 53, 42
1, 341105, Control_c, 0, 64, 92
1, 341117, Note_off_c, 0, 65, 57
1, 341120, Control_c, 0, 64, 93
1, 341135, Control_c, 0, 64, 95
1, 341150, Control_c, 0, 64, 97
1, 341165, Control_c, 0, 64, 98
1, 341179, Control_c, 0, 64, 99
1, 341209, Control_c, 0, 64, 100
1, 341254, Control_c, 0, 64, 100
1, 341431, Control_c, 0, 64, 100
1, 341446, Control_c, 0, 64, 99
1, 341461, Control_c, 0, 64, 90
1, 341476, Control_c, 0, 64, 72
1, 341491, Control_c, 0, 64, 0
1, 341504, Note_on_c, 0, 34, 77
1, 341504, Note_on_c, 0, 46, 100
1, 341504, Note_on_c, 0, 58, 99
1, 341521, Control_c, 0, 64, 35
1, 341543, Control_c, 0, 64, 67
1, 341558, Control_c, 0, 64, 82
1, 341564, Note_off_c, 0, 34, 65
1, 341564, Note_off_c, 0, 58, 70
1, 341570, Note_off_c, 0, 46, 64
1, 341573, Control_c, 0, 64, 98
1, 341587, Control_c, 0, 64, 106
1, 341602, Control_c, 0, 64, 111
1, 341617, Control_c, 0, 64, 116
1, 341632, Control_c, 0, 64, 120
1, 341647, Control_c, 0, 64, 127
1, 341662, Control_c, 0, 64, 127
1, 342003, Note_on_c, 0, 82, 100
1, 342007, Note_on_c, 0, 94, 98
1, 342008, Note_on_c, 0, 90, 90
1, 342011, Note_on_c, 0, 66, 85
1, 342011, Note_on_c, 0, 70, 102
1, 342017, Note_on_c, 0, 58, 73
1, 342017, Note_on_c, 0, 63, 76
1, 342029, Note_on_c, 0, 60, 70
1, 342339, Note_off_c, 0, 94, 62
1, 342353, Note_off_c, 0, 58, 56
1, 342362, Note_off_c, 0, 82, 55
1, 342371, Note_off_c, 0, 90, 61
1, 342387, Note_off_c, 0, 70, 57
1, 342393, Note_off_c, 0, 60, 57
1, 342417, Note_off_c, 0, 63, 58
1, 342424, Note_off_c, 0, 66, 57
1, 342625, Note_on_c, 0, 84, 78
1, 342626, Note_on_c, 0, 75, 85
1, 342635, Note_on_c, 0, 70, 94
1, 342635, Note_on_c, 0, 87, 65
1, 342641, Note_on_c, 0, 66, 81
1, 342645, Note_off_c, 0, 75, 73
1, 342648, Note_on_c, 0, 58, 60
1, 342650, Note_on_c, 0, 63, 71
1, 342651, Note_on_c, 0, 60, 63
1, 342651, Note_off_c, 0, 87, 63
1, 342652, Note_off_c, 0, 84, 63
1, 342664, Note_off_c, 0, 70, 60
1, 342687, Note_on_c, 0, 75, 97
1, 342690, Note_off_c, 0, 60, 0
1, 342692, Note_on_c, 0, 84, 77
1, 342698, Note_off_c, 0, 63, 0
1, 342700, Note_on_c, 0, 87, 88
1, 342708, Note_on_c, 0, 70, 75
1, 342729, Poly_aftertouch_c, 0, 60, 127
1, 342729, Note_on_c, 0, 63, 30
1, 342753, Note_off_c, 0, 58, 62
1, 342753, Note_off_c, 0, 75, 58
1, 342755, Note_off_c, 0, 87, 58
1, 342756, Note_off_c, 0, 70, 60
1, 342777, Poly_aftertouch_c, 0, 60, 0
1, 342781, Note_off_c, 0, 63, 57
1, 342790, Note_off_c, 0, 66, 62
1, 342807, Note_off_c, 0, 84, 60
1, 342847, Note_on_c, 0, 70, 92
1, 342850, Note_on_c, 0, 66, 70
1, 342851, Note_on_c, 0, 84, 74
1, 342855, Note_on_c, 0, 75, 99
1, 342855, Note_on_c, 0, 87, 97
1, 342861, Note_on_c, 0, 63, 67
1, 342869, Note_on_c, 0, 58, 47
1, 342870, Note_on_c, 0, 60, 41
1, 342896, Note_off_c, 0, 58, 56
1, 342899, Note_off_c, 0, 70, 59
1, 342913, Note_off_c, 0, 60, 60
1, 342924, Note_off_c, 0, 75, 53
1, 342949, Note_off_c, 0, 66, 62
1, 342956, Note_off_c, 0, 63, 55
1, 342962, Note_off_c, 0, 87, 59
1, 342974, Note_off_c, 0, 84, 58
1, 343030, Note_on_c, 0, 84, 73
1, 343038, Note_on_c, 0, 77, 81
1, 343056, Note_on_c, 0, 70, 81
1, 343058, Note_off_c, 0, 77, 68
1, 343069, Note_on_c, 0, 63, 55
1, 343069, Note_on_c, 0, 66, 69
1, 343078, Note_off_c, 0, 84, 61
1, 343102, Note_on_c, 0, 84, 68
1, 343105, Note_on_c, 0, 78, 97
1, 343112, Note_on_c, 0, 90, 87
1, 343114, Note_off_c, 0, 70, 58
1, 343154, Note_off_c, 0, 63, 62
1, 343180, Note_off_c, 0, 66, 57
1, 343184, Note_off_c, 0, 78, 60
1, 343191, Note_off_c, 0, 84, 63
1, 343195, Note_off_c, 0, 90, 60
1, 343248, Control_c, 0, 64, 103
1, 343260, Note_on_c, 0, 89, 84
1, 343260, Note_on_c, 0, 58, 49
1, 343263, Control_c, 0, 64, 80
1, 343264, Note_on_c, 0, 77, 93
1, 343266, Note_on_c, 0, 85, 92
1, 343269, Note_on_c, 0, 70, 83
1, 343270, Note_on_c, 0, 65, 74
1, 343277, Control_c, 0, 64, 0
1, 343283, Note_on_c, 0, 61, 66
1, 343298, Note_off_c, 0, 70, 67
1, 343307, Control_c, 0, 64, 57
1, 343309, Note_off_c, 0, 89, 64
1, 343321, Note_off_c, 0, 65, 64
1, 343322, Control_c, 0, 64, 72
1, 343328, Note_off_c, 0, 58, 64
1, 343330, Note_off_c, 0, 85, 66
1, 343334, Note_off_c, 0, 77, 62
1, 343337, Control_c, 0, 64, 85
1, 343337, Control_c, 0, 67, 9
1, 343346, Note_off_c, 0, 61, 62
1, 343351, Control_c, 0, 64, 100
1, 343351, Control_c, 0, 67, 23
1, 343366, Control_c, 0, 64, 105
1, 343366, Control_c, 0, 67, 50
1, 343381, Control_c, 0, 67, 99
1, 343396, Control_c, 0, 64, 104
1, 343396, Control_c, 0, 67, 127
1, 343410, Control_c, 0, 64, 96
1, 343425, Control_c, 0, 64, 81
1, 343440, Control_c, 0, 64, 60
1, 343455, Control_c, 0, 64, 0
1, 343639, Note_on_c, 0, 45, 39
1, 343650, Note_on_c, 0, 57, 42
1, 343667, Note_on_c, 0, 58, 57
1, 343678, Note_off_c, 0, 57, 54
1, 343683, Note_off_c, 0, 45, 54
1, 343697, Note_on_c, 0, 46, 34
1, 343711, Note_on_c, 0, 61, 54
1, 343715, Note_off_c, 0, 58, 57
1, 343734, Note_off_c, 0, 46, 52
1, 343748, Note_on_c, 0, 53, 62
1, 343752, Note_off_c, 0, 61, 64
1, 343760, Note_on_c, 0, 65, 63
1, 343794, Note_off_c, 0, 53, 64
1, 343796, Poly_aftertouch_c, 0, 49, 0
1, 343802, Note_off_c, 0, 65, 66
1, 344068, Note_on_c, 0, 45, 38
1, 344075, Note_on_c, 0, 57, 49
1, 344106, Note_on_c, 0, 58, 53
1, 344112, Note_off_c, 0, 57, 62
1, 344115, Note_off_c, 0, 45, 59
1, 344124, Note_on_c, 0, 46, 46
1, 344137, Note_on_c, 0, 49, 46
1, 344145, Note_on_c, 0, 61, 62
1, 344154, Note_off_c, 0, 58, 61
1, 344171, Note_off_c, 0, 46, 60
1, 344181, Note_off_c, 0, 49, 61
1, 344203, Note_on_c, 0, 53, 56
1, 344211, Note_off_c, 0, 61, 63
1, 344217, Note_on_c, 0, 65, 65
1, 344309, Control_c, 0, 67, 118
1, 344324, Control_c, 0, 67, 93
1, 344339, Control_c, 0, 67, 64
1, 344354, Control_c, 0, 67, 33
1, 344369, Control_c, 0, 67, 0
1, 344487, Control_c, 0, 64, 27
1, 344502, Control_c, 0, 64, 55
1, 344517, Control_c, 0, 64, 63
1, 344539, Control_c, 0, 64, 67
1, 344553, Control_c, 0, 64, 71
1, 344568, Control_c, 0, 64, 77
1, 344583, Control_c, 0, 64, 84
1, 344598, Control_c, 0, 64, 89
1, 344613, Control_c, 0, 64, 92
1, 344628, Control_c, 0, 64, 95
1, 344631, Note_off_c, 0, 53, 62
1, 344634, Note_off_c, 0, 65, 62
1, 344643, Control_c, 0, 64, 99
1, 344657, Control_c, 0, 64, 103
1, 344672, Control_c, 0, 64, 109
1, 344687, Control_c, 0, 64, 114
1, 344702, Control_c, 0, 64, 120
1, 344717, Control_c, 0, 64, 127
1, 345087, Control_c, 0, 64, 105
1, 345102, Control_c, 0, 64, 84
1, 345117, Control_c, 0, 64, 61
1, 345119, Note_on_c, 0, 48, 108
1, 345120, Note_on_c, 0, 24, 82
1, 345120, Note_on_c, 0, 36, 97
1, 345132, Control_c, 0, 64, 0
1, 345147, Control_c, 0, 64, 58
1, 345159, Note_off_c, 0, 24, 63
1, 345162, Control_c, 0, 64, 72
1, 345173, Note_off_c, 0, 36, 65
1, 345176, Control_c, 0, 64, 85
1, 345185, Note_off_c, 0, 48, 67
1, 345191, Control_c, 0, 64, 105
1, 345206, Control_c, 0, 64, 119
1, 345221, Control_c, 0, 64, 127
1, 345591, Note_on_c, 0, 96, 89
1, 345593, Note_on_c, 0, 72, 92
1, 345594, Note_on_c, 0, 68, 83
1, 345594, Note_on_c, 0, 84, 97
1, 345596, Note_on_c, 0, 92, 103
1, 345597, Note_on_c, 0, 60, 71
1, 345601, Note_on_c, 0, 65, 75
1, 345999, Note_off_c, 0, 60, 55
1, 346036, Note_off_c, 0, 96, 59
1, 346069, Note_off_c, 0, 65, 56
1, 346075, Note_off_c, 0, 72, 52
1, 346079, Note_off_c, 0, 84, 57
1, 346103, Note_off_c, 0, 68, 56
1, 346110, Note_off_c, 0, 92, 60
1, 346481, Control_c, 0, 64, 103
1, 346495, Control_c, 0, 64, 82
1, 346500, Note_on_c, 0, 70, 81
1, 346500, Note_on_c, 0, 72, 88
1, 346501, Note_on_c, 0, 79, 98
1, 346503, Note_on_c, 0, 88, 87
1, 346503, Note_on_c, 0, 91, 81
1, 346504, Note_on_c, 0, 60, 69
1, 346508, Note_on_c, 0, 64, 70
1, 346510, Control_c, 0, 64, 62
1, 346525, Control_c, 0, 64, 0
1, 346540, Control_c, 0, 64, 62
1, 346543, Note_on_c, 0, 90, 44
1, 346554, Control_c, 0, 64, 70
1, 346568, Note_off_c, 0, 90, 54
1, 346569, Control_c, 0, 64, 80
1, 346572, Note_off_c, 0, 79, 62
1, 346573, Note_off_c, 0, 91, 59
1, 346576, Note_off_c, 0, 60, 57
1, 346577, Note_off_c, 0, 72, 57
1, 346584, Control_c, 0, 64, 90
1, 346599, Control_c, 0, 64, 97
1, 346610, Note_off_c, 0, 64, 53
1, 346613, Note_off_c, 0, 88, 61
1, 346614, Control_c, 0, 64, 99
1, 346626, Note_off_c, 0, 70, 60
1, 346628, Control_c, 0, 64, 100
1, 346643, Control_c, 0, 64, 101
1, 346661, Note_on_c, 0, 88, 69
1, 346662, Note_on_c, 0, 80, 95
1, 346673, Control_c, 0, 64, 102
1, 346682, Note_off_c, 0, 80, 67
1, 346685, Note_on_c, 0, 70, 77
1, 346690, Note_on_c, 0, 60, 72
1, 346690, Note_on_c, 0, 72, 86
1, 346696, Note_on_c, 0, 64, 58
1, 346697, Note_off_c, 0, 88, 61
1, 346730, Note_off_c, 0, 64, 60
1, 346732, Note_on_c, 0, 82, 96
1, 346742, Note_on_c, 0, 94, 89
1, 346747, Note_on_c, 0, 89, 87
1, 346759, Note_off_c, 0, 60, 59
1, 346759, Note_on_c, 0, 90, 43
1, 346803, Note_off_c, 0, 90, 48
1, 346809, Note_off_c, 0, 72, 55
1, 346815, Note_off_c, 0, 94, 64
1, 346828, Note_off_c, 0, 70, 61
1, 346834, Note_off_c, 0, 82, 61
1, 346856, Note_off_c, 0, 89, 59
1, 346888, Control_c, 0, 64, 99
1, 346903, Control_c, 0, 64, 86
1, 346914, Note_on_c, 0, 80, 109
1, 346914, Note_on_c, 0, 68, 83
1, 346915, Note_on_c, 0, 72, 88
1, 346915, Note_on_c, 0, 92, 93
1, 346917, Note_on_c, 0, 89, 80
1, 346918, Control_c, 0, 64, 40
1, 346923, Note_on_c, 0, 65, 64
1, 346932, Control_c, 0, 64, 0
1, 346954, Note_off_c, 0, 72, 66
1, 346962, Control_c, 0, 64, 60
1, 346967, Note_off_c, 0, 92, 65
1, 346974, Note_off_c, 0, 65, 64
1, 346977, Control_c, 0, 64, 74
1, 346983, Note_off_c, 0, 80, 63
1, 346983, Note_off_c, 0, 89, 64
1, 346986, Note_off_c, 0, 68, 63
1, 346992, Control_c, 0, 64, 94
1, 347007, Control_c, 0, 64, 127
1, 347066, Control_c, 0, 64, 116
1, 347081, Control_c, 0, 64, 96
1, 347096, Control_c, 0, 64, 77
1, 347111, Control_c, 0, 64, 0
1, 347291, Note_on_c, 0, 68, 102
1, 347294, Note_on_c, 0, 80, 87
1, 347299, Note_on_c, 0, 53, 77
1, 347299, Note_on_c, 0, 65, 93
1, 347300, Note_on_c, 0, 60, 82
1, 347301, Note_on_c, 0, 77, 83
1, 347302, Note_on_c, 0, 72, 86
1, 347303, Control_c, 0, 64, 67
1, 347317, Control_c, 0, 64, 82
1, 347332, Control_c, 0, 64, 105
1, 347333, Note_off_c, 0, 65, 66
1, 347341, Note_off_c, 0, 80, 66
1, 347347, Control_c, 0, 64, 127
1, 347351, Note_off_c, 0, 68, 64
1, 347352, Note_off_c, 0, 77, 63
1, 347354, Note_off_c, 0, 60, 64
1, 347355, Note_off_c, 0, 53, 66
1, 347357, Note_off_c, 0, 72, 66
1, 347665, Note_on_c, 0, 68, 88
1, 347667, Note_on_c, 0, 56, 104
1, 347671, Note_on_c, 0, 41, 75
1, 347671, Note_on_c, 0, 48, 88
1, 347671, Note_on_c, 0, 53, 101
1, 347673, Note_on_c, 0, 65, 85
1, 347677, Note_on_c, 0, 60, 88
1, 347706, Note_off_c, 0, 53, 66
1, 347710, Note_off_c, 0, 68, 67
1, 347722, Note_off_c, 0, 60, 58
1, 347725, Note_off_c, 0, 48, 66
1, 347725, Note_off_c, 0, 56, 65
1, 347727, Note_off_c, 0, 65, 65
1, 347729, Note_off_c, 0, 41, 64
1, 348065, Note_on_c, 0, 28, 103
1, 348068, Note_on_c, 0, 40, 104
1, 348083, Control_c, 0, 64, 96
1, 348098, Control_c, 0, 64, 73
1, 348113, Control_c, 0, 64, 0
1, 348565, Control_c, 0, 64, 57
1, 348580, Control_c, 0, 64, 65
1, 348595, Control_c, 0, 64, 71
1, 348610, Control_c, 0, 64, 79
1, 348624, Control_c, 0, 64, 88
1, 348639, Control_c, 0, 64, 93
1, 348654, Control_c, 0, 64, 95
1, 348662, Note_off_c, 0, 40, 50
1, 348669, Control_c, 0, 64, 96
1, 348684, Control_c, 0, 64, 98
1, 348698, Control_c, 0, 64, 101
1, 348713, Control_c, 0, 64, 102
1, 348728, Control_c, 0, 64, 103
1, 348742, Control_c, 0, 64, 103
1, 348804, Note_off_c, 0, 28, 36
1, 348816, Control_c, 0, 64, 102
1, 348831, Control_c, 0, 64, 90
1, 348846, Control_c, 0, 64, 71
1, 348854, Note_on_c, 0, 41, 86
1, 348855, Note_on_c, 0, 29, 87
1, 348861, Control_c, 0, 64, 0
1, 348906, Control_c, 0, 64, 58
1, 348920, Control_c, 0, 64, 71
1, 348935, Control_c, 0, 64, 82
1, 348950, Control_c, 0, 64, 94
1, 348958, Note_off_c, 0, 29, 58
1, 348965, Control_c, 0, 64, 100
1, 348980, Control_c, 0, 64, 101
1, 349010, Control_c, 0, 64, 100
1, 349021, Note_on_c, 0, 26, 95
1, 349029, Note_on_c, 0, 38, 87
1, 349031, Control_c, 0, 64, 93
1, 349046, Control_c, 0, 64, 74
1, 349061, Control_c, 0, 64, 0
1, 349063, Note_off_c, 0, 41, 55
1, 349107, Control_c, 0, 64, 13
1, 349121, Control_c, 0, 64, 68
1, 349136, Control_c, 0, 64, 80
1, 349140, Note_on_c, 0, 27, 90
1, 349151, Control_c, 0, 64, 95
1, 349152, Note_on_c, 0, 39, 87
1, 349166, Control_c, 0, 64, 107
1, 349167, Note_off_c, 0, 26, 59
1, 349180, Control_c, 0, 64, 111
1, 349181, Note_off_c, 0, 38, 60
1, 349195, Control_c, 0, 64, 112
1, 349210, Control_c, 0, 64, 112
1, 349225, Control_c, 0, 64, 113
1, 349240, Control_c, 0, 64, 113
1, 349254, Control_c, 0, 64, 114
1, 349262, Note_on_c, 0, 29, 92
1, 349269, Note_off_c, 0, 27, 62
1, 349269, Control_c, 0, 64, 114
1, 349275, Note_on_c, 0, 41, 85
1, 349280, Note_off_c, 0, 39, 61
1, 349284, Control_c, 0, 64, 115
1, 349299, Control_c, 0, 64, 116
1, 349314, Control_c, 0, 64, 116
1, 349329, Control_c, 0, 64, 117
1, 349331, Note_off_c, 0, 29, 63
1, 349344, Control_c, 0, 64, 118
1, 349359, Control_c, 0, 64, 118
1, 349359, Note_on_c, 0, 27, 91
1, 349362, Note_off_c, 0, 41, 66
1, 349368, Note_on_c, 0, 39, 80
1, 349373, Control_c, 0, 64, 119
1, 349388, Control_c, 0, 64, 119
1, 349403, Control_c, 0, 64, 120
1, 349418, Control_c, 0, 64, 120
1, 349429, Note_off_c, 0, 39, 62
1, 349435, Note_on_c, 0, 41, 65
1, 349451, Note_on_c, 0, 29, 82
1, 349452, Note_off_c, 0, 27, 65
1, 349487, Note_off_c, 0, 41, 65
1, 349496, Note_on_c, 0, 39, 68
1, 349534, Note_on_c, 0, 41, 64
1, 349541, Note_off_c, 0, 39, 62
1, 349552, Note_off_c, 0, 29, 61
1, 349561, Note_on_c, 0, 27, 71
1, 349582, Note_off_c, 0, 41, 65
1, 349593, Note_on_c, 0, 39, 57
1, 349616, Poly_aftertouch_c, 0, 41, 0
1, 349627, Note_on_c, 0, 41, 59
1, 349631, Note_off_c, 0, 39, 63
1, 349664, Note_on_c, 0, 29, 58
1, 349669, Control_c, 0, 64, 120
1, 349681, Note_on_c, 0, 39, 72
1, 349693, Note_off_c, 0, 41, 61
1, 349711, Note_off_c, 0, 29, 58
1, 349716, Note_off_c, 0, 27, 61
1, 349776, Note_off_c, 0, 39, 62
1, 349795, Control_c, 0, 64, 119
1, 349810, Control_c, 0, 64, 106
1, 349825, Control_c, 0, 64, 88
1, 349830, Note_on_c, 0, 26, 89
1, 349830, Note_on_c, 0, 38, 93
1, 349840, Control_c, 0, 64, 68
1, 349854, Control_c, 0, 64, 38
1, 349869, Control_c, 0, 64, 62
1, 349884, Control_c, 0, 64, 71
1, 349900, Control_c, 0, 64, 83
1, 349915, Control_c, 0, 64, 98
1, 349928, Note_off_c, 0, 26, 60
1, 349930, Control_c, 0, 64, 108
1, 349944, Control_c, 0, 64, 112
1, 349952, Note_off_c, 0, 38, 61
1, 349952, Poly_aftertouch_c, 0, 27, 127
1, 349959, Control_c, 0, 64, 112
1, 349989, Control_c, 0, 64, 107
1, 349998, Poly_aftertouch_c, 0, 27, 0
1, 350003, Control_c, 0, 64, 93
1, 350018, Control_c, 0, 64, 75
1, 350033, Control_c, 0, 64, 61
1, 350048, Control_c, 0, 64, 64
1, 350054, Note_on_c, 0, 39, 97
1, 350060, Note_on_c, 0, 27, 82
1, 350063, Control_c, 0, 64, 76
1, 350077, Control_c, 0, 64, 92
1, 350092, Control_c, 0, 64, 114
1, 350107, Control_c, 0, 64, 127
1, 350110, Note_off_c, 0, 27, 64
1, 350112, Note_off_c, 0, 39, 62
1, 350266, Note_on_c, 0, 25, 82
1, 350270, Control_c, 0, 64, 106
1, 350271, Note_on_c, 0, 37, 101
1, 350276, Note_on_c, 0, 101, 105
1, 350285, Control_c, 0, 64, 76
1, 350289, Note_on_c, 0, 27, 73
1, 350300, Control_c, 0, 64, 0
1, 350313, Note_off_c, 0, 25, 64
1, 350324, Note_off_c, 0, 27, 49
1, 350336, Note_off_c, 0, 37, 66
1, 350344, Control_c, 0, 64, 63
1, 350359, Control_c, 0, 64, 82
1, 350374, Control_c, 0, 64, 107
1, 350388, Control_c, 0, 64, 127
1, 350555, Note_on_c, 0, 56, 84
1, 350583, Note_on_c, 0, 46, 47
1, 350587, Note_off_c, 0, 56, 63
1, 350615, Note_off_c, 0, 46, 49
1, 350686, Note_on_c, 0, 61, 90
1, 350697, Note_on_c, 0, 53, 69
1, 350704, Note_off_c, 0, 101, 49
1, 350720, Note_off_c, 0, 61, 59
1, 350727, Note_off_c, 0, 53, 67
1, 350783, Poly_aftertouch_c, 0, 52, 0
1, 350789, Note_on_c, 0, 92, 17
1, 350824, Note_off_c, 0, 92, 40
1, 350846, Note_on_c, 0, 99, 82
1, 350900, Note_on_c, 0, 97, 78
1, 350921, Note_on_c, 0, 56, 70
1, 350928, Note_on_c, 0, 44, 54
1, 350936, Note_off_c, 0, 99, 69
1, 350947, Note_on_c, 0, 92, 76
1, 350961, Note_off_c, 0, 56, 61
1, 350962, Note_off_c, 0, 44, 65
1, 350972, Note_off_c, 0, 97, 65
1, 351004, Note_on_c, 0, 89, 78
1, 351007, Note_off_c, 0, 92, 67
1, 351052, Note_off_c, 0, 89, 63
1, 351065, Note_on_c, 0, 61, 76
1, 351073, Note_on_c, 0, 53, 63
1, 351088, Note_on_c, 0, 87, 77
1, 351132, Note_off_c, 0, 61, 53
1, 351138, Note_on_c, 0, 85, 70
1, 351143, Note_off_c, 0, 87, 64
1, 351149, Note_off_c, 0, 53, 51
1, 351178, Note_on_c, 0, 80, 84
1, 351186, Note_off_c, 0, 85, 64
1, 351220, Note_off_c, 0, 80, 66
1, 351248, Note_on_c, 0, 77, 72
1, 351314, Note_on_c, 0, 75, 78
1, 351315, Note_off_c, 0, 77, 61
1, 351365, Note_on_c, 0, 73, 73
1, 351394, Note_off_c, 0, 75, 63
1, 351436, Note_off_c, 0, 73, 65
1, 351439, Note_on_c, 0, 68, 83
1, 351473, Note_off_c, 0, 68, 62
1, 351560, Control_c, 0, 64, 111
1, 351575, Control_c, 0, 64, 86
1, 351590, Control_c, 0, 64, 61
1, 351605, Control_c, 0, 64, 0
1, 351893, Note_on_c, 0, 32, 36
1, 351904, Note_on_c, 0, 44, 30
1, 351904, Note_on_c, 0, 72, 53
1, 351946, Control_c, 0, 64, 56
1, 351960, Control_c, 0, 64, 63
1, 351967, Note_off_c, 0, 72, 63
1, 351975, Note_on_c, 0, 73, 58
1, 351975, Control_c, 0, 64, 65
1, 351990, Control_c, 0, 64, 65
1, 352005, Control_c, 0, 64, 64
1, 352027, Control_c, 0, 64, 53
1, 352033, Note_off_c, 0, 32, 57
1, 352041, Control_c, 0, 64, 0
1, 352045, Note_on_c, 0, 75, 63
1, 352045, Note_off_c, 0, 73, 62
1, 352065, Note_off_c, 0, 44, 60
1, 352074, Note_off_c, 0, 75, 68
1, 352086, Control_c, 0, 64, 24
1, 352101, Control_c, 0, 64, 63
1, 352116, Control_c, 0, 64, 69
1, 352120, Note_on_c, 0, 77, 64
1, 352131, Control_c, 0, 64, 73
1, 352146, Control_c, 0, 64, 79
1, 352161, Control_c, 0, 64, 82
1, 352164, Note_off_c, 0, 77, 58
1, 352173, Note_on_c, 0, 78, 73
1, 352224, Note_on_c, 0, 80, 61
1, 352234, Note_off_c, 0, 78, 62
1, 352235, Control_c, 0, 64, 81
1, 352249, Control_c, 0, 64, 79
1, 352264, Control_c, 0, 64, 71
1, 352279, Control_c, 0, 64, 33
1, 352283, Note_off_c, 0, 80, 52
1, 352287, Note_on_c, 0, 81, 66
1, 352292, Note_on_c, 0, 60, 50
1, 352295, Control_c, 0, 64, 0
1, 352302, Note_on_c, 0, 55, 39
1, 352310, Note_on_c, 0, 66, 43
1, 352341, Note_off_c, 0, 66, 55
1, 352351, Note_off_c, 0, 55, 45
1, 352356, Note_off_c, 0, 60, 48
1, 352400, Note_on_c, 0, 60, 36
1, 352414, Note_on_c, 0, 56, 53
1, 352416, Note_on_c, 0, 66, 51
1, 352429, Note_off_c, 0, 81, 60
1, 352441, Note_off_c, 0, 66, 62
1, 352456, Note_off_c, 0, 56, 61
1, 352458, Note_off_c, 0, 60, 62
1, 352546, Note_on_c, 0, 66, 54
1, 352554, Note_on_c, 0, 56, 48
1, 352572, Note_off_c, 0, 66, 60
1, 352589, Note_on_c, 0, 60, 13
1, 352596, Note_off_c, 0, 56, 60
1, 352636, Note_off_c, 0, 60, 28
1, 352682, Note_on_c, 0, 81, 65
1, 352746, Note_on_c, 0, 80, 75
1, 352765, Note_off_c, 0, 81, 61
1, 352797, Note_off_c, 0, 80, 64
1, 352814, Note_on_c, 0, 79, 67
1, 352861, Note_off_c, 0, 79, 63
1, 352863, Note_on_c, 0, 78, 81
1, 352902, Note_off_c, 0, 78, 56
1, 352933, Note_on_c, 0, 77, 73
1, 352987, Note_off_c, 0, 77, 61
1, 352995, Note_on_c, 0, 76, 63
1, 353042, Note_on_c, 0, 75, 70
1, 353048, Note_off_c, 0, 76, 64
1, 353051, Note_on_c, 0, 66, 55
1, 353052, Note_on_c, 0, 57, 49
1, 353058, Note_on_c, 0, 60, 51
1, 353071, Control_c, 0, 64, 56
1, 353084, Note_off_c, 0, 66, 54
1, 353087, Control_c, 0, 64, 66
1, 353094, Note_off_c, 0, 57, 62
1, 353095, Note_off_c, 0, 75, 64
1, 353102, Control_c, 0, 64, 70
1, 353106, Note_off_c, 0, 60, 59
1, 353117, Control_c, 0, 64, 75
1, 353132, Control_c, 0, 64, 84
1, 353146, Control_c, 0, 64, 91
1, 353161, Control_c, 0, 64, 98
1, 353176, Control_c, 0, 64, 103
1, 353186, Note_on_c, 0, 66, 70
1, 353191, Control_c, 0, 64, 108
1, 353195, Note_on_c, 0, 56, 55
1, 353205, Control_c, 0, 64, 115
1, 353212, Note_on_c, 0, 60, 49
1, 353220, Control_c, 0, 64, 126
1, 353227, Note_off_c, 0, 56, 55
1, 353235, Control_c, 0, 64, 127
1, 353245, Note_off_c, 0, 66, 63
1, 353249, Note_off_c, 0, 60, 62
1, 353327, Note_on_c, 0, 56, 71
1, 353329, Note_on_c, 0, 66, 73
1, 353349, Note_off_c, 0, 66, 69
1, 353373, Note_off_c, 0, 56, 62
1, 353457, Control_c, 0, 64, 92
1, 353472, Control_c, 0, 64, 64
1, 353478, Note_on_c, 0, 101, 106
1, 353487, Control_c, 0, 64, 0
1, 353493, Note_on_c, 0, 37, 107
1, 353512, Note_on_c, 0, 25, 85
1, 353524, Control_c, 0, 64, 62
1, 353530, Note_on_c, 0, 95, 37
1, 353536, Note_off_c, 0, 25, 65
1, 353538, Control_c, 0, 64, 74
1, 353542, Note_off_c, 0, 37, 65
1, 353553, Control_c, 0, 64, 90
1, 353562, Note_off_c, 0, 95, 43
1, 353568, Control_c, 0, 64, 106
1, 353583, Control_c, 0, 64, 111
1, 353598, Control_c, 0, 64, 114
1, 353612, Control_c, 0, 64, 116
1, 353618, Poly_aftertouch_c, 0, 27, 0
1, 353627, Control_c, 0, 64, 117
1, 353642, Control_c, 0, 64, 118
1, 353657, Control_c, 0, 64, 118
1, 353672, Control_c, 0, 64, 119
1, 353687, Control_c, 0, 64, 119
1, 353702, Control_c, 0, 64, 120
1, 353717, Control_c, 0, 64, 121
1, 353732, Control_c, 0, 64, 122
1, 353746, Control_c, 0, 64, 123
1, 353761, Control_c, 0, 64, 125
1, 353764, Note_on_c, 0, 56, 84
1, 353776, Control_c, 0, 64, 127
1, 353788, Note_on_c, 0, 44, 48
1, 353806, Note_off_c, 0, 56, 61
1, 353822, Note_off_c, 0, 44, 51
1, 353905, Note_on_c, 0, 61, 89
1, 353907, Note_on_c, 0, 53, 81
1, 353927, Note_off_c, 0, 61, 64
1, 353934, Note_off_c, 0, 101, 39
1, 353940, Note_off_c, 0, 53, 66
1, 354001, Note_on_c, 0, 92, 11
1, 354028, Note_off_c, 0, 92, 43
1, 354062, Note_on_c, 0, 99, 81
1, 354110, Note_on_c, 0, 97, 82
1, 354121, Note_on_c, 0, 56, 70
1, 354125, Note_on_c, 0, 44, 60
1, 354150, Note_off_c, 0, 56, 59
1, 354159, Note_on_c, 0, 92, 72
1, 354160, Note_off_c, 0, 44, 64
1, 354162, Note_off_c, 0, 99, 68
1, 354186, Note_off_c, 0, 97, 65
1, 354211, Note_off_c, 0, 92, 66
1, 354212, Note_on_c, 0, 89, 81
1, 354268, Note_off_c, 0, 89, 65
1, 354275, Note_on_c, 0, 61, 76
1, 354283, Note_on_c, 0, 53, 64
1, 354297, Note_on_c, 0, 87, 79
1, 354352, Note_on_c, 0, 85, 72
1, 354353, Note_off_c, 0, 61, 59
1, 354372, Note_off_c, 0, 87, 65
1, 354392, Note_on_c, 0, 80, 84
1, 354397, Note_off_c, 0, 85, 68
1, 354425, Note_off_c, 0, 53, 35
1, 354433, Note_off_c, 0, 80, 65
1, 354447, Note_on_c, 0, 77, 78
1, 354516, Note_off_c, 0, 77, 60
1, 354518, Note_on_c, 0, 75, 81
1, 354566, Note_on_c, 0, 73, 72
1, 354603, Note_off_c, 0, 75, 63
1, 354635, Note_on_c, 0, 68, 82
1, 354637, Note_off_c, 0, 73, 66
1, 354683, Note_off_c, 0, 68, 62
1, 354763, Control_c, 0, 64, 107
1, 354778, Control_c, 0, 64, 86
1, 354792, Control_c, 0, 64, 64
1, 354807, Control_c, 0, 64, 0
1, 355063, Note_on_c, 0, 51, 40
1, 355073, Note_on_c, 0, 44, 33
1, 355075, Note_on_c, 0, 54, 37
1, 355092, Note_on_c, 0, 72, 57
1, 355125, Control_c, 0, 64, 16
1, 355140, Control_c, 0, 64, 61
1, 355155, Control_c, 0, 64, 65
1, 355170, Control_c, 0, 64, 68
1, 355180, Note_off_c, 0, 72, 65
1, 355184, Control_c, 0, 64, 71
1, 355187, Note_on_c, 0, 73, 61
1, 355199, Control_c, 0, 64, 73
1, 355214, Control_c, 0, 64, 75
1, 355222, Note_off_c, 0, 44, 55
1, 355229, Control_c, 0, 64, 74
1, 355244, Control_c, 0, 64, 72
1, 355252, Note_on_c, 0, 75, 70
1, 355252, Note_off_c, 0, 51, 62
1, 355257, Note_off_c, 0, 54, 60
1, 355258, Note_off_c, 0, 73, 63
1, 355258, Control_c, 0, 64, 63
1, 355273, Control_c, 0, 64, 0
1, 355276, Note_off_c, 0, 75, 69
1, 355323, Note_on_c, 0, 77, 71
1, 355373, Note_off_c, 0, 77, 61
1, 355377, Note_on_c, 0, 78, 77
1, 355432, Note_on_c, 0, 80, 61
1, 355436, Note_off_c, 0, 78, 61
1, 355475, Note_on_c, 0, 60, 55
1, 355475, Note_on_c, 0, 81, 70
1, 355481, Note_off_c, 0, 80, 65
1, 355550, Note_off_c, 0, 60, 61
1, 355554, Note_on_c, 0, 61, 59
1, 355556, Control_c, 0, 64, 56
1, 355571, Control_c, 0, 64, 64
1, 355580, Note_on_c, 0, 63, 67
1, 355586, Control_c, 0, 64, 65
1, 355601, Control_c, 0, 64, 66
1, 355610, Note_off_c, 0, 61, 61
1, 355624, Note_off_c, 0, 63, 65
1, 355630, Control_c, 0, 64, 66
1, 355633, Note_off_c, 0, 81, 60
1, 355645, Note_on_c, 0, 65, 68
1, 355645, Control_c, 0, 64, 65
1, 355660, Control_c, 0, 64, 64
1, 355701, Note_on_c, 0, 66, 74
1, 355705, Note_off_c, 0, 65, 65
1, 355719, Control_c, 0, 64, 64
1, 355748, Control_c, 0, 64, 62
1, 355762, Note_off_c, 0, 66, 66
1, 355765, Note_on_c, 0, 68, 74
1, 355771, Control_c, 0, 64, 52
1, 355785, Control_c, 0, 64, 0
1, 355821, Note_off_c, 0, 68, 65
1, 355834, Note_on_c, 0, 69, 73
1, 355837, Note_on_c, 0, 81, 66
1, 355889, Control_c, 0, 64, 56
1, 355904, Note_on_c, 0, 80, 74
1, 355904, Control_c, 0, 64, 66
1, 355908, Note_off_c, 0, 69, 65
1, 355919, Control_c, 0, 64, 68
1, 355925, Note_off_c, 0, 81, 62
1, 355933, Control_c, 0, 64, 70
1, 355948, Control_c, 0, 64, 71
1, 355955, Note_off_c, 0, 80, 63
1, 355958, Note_on_c, 0, 79, 78
1, 356012, Note_off_c, 0, 79, 63
1, 356026, Note_on_c, 0, 78, 80
1, 356037, Control_c, 0, 64, 70
1, 356052, Control_c, 0, 64, 69
1, 356067, Control_c, 0, 64, 67
1, 356068, Note_off_c, 0, 78, 54
1, 356082, Control_c, 0, 64, 65
1, 356089, Note_on_c, 0, 77, 77
1, 356096, Control_c, 0, 64, 64
1, 356111, Control_c, 0, 64, 63
1, 356126, Control_c, 0, 64, 62
1, 356140, Control_c, 0, 64, 50
1, 356146, Note_on_c, 0, 76, 71
1, 356148, Note_off_c, 0, 77, 61
1, 356155, Control_c, 0, 64, 0
1, 356207, Note_on_c, 0, 75, 77
1, 356210, Note_on_c, 0, 57, 54
1, 356214, Note_off_c, 0, 76, 63
1, 356253, Note_off_c, 0, 57, 59
1, 356280, Note_on_c, 0, 56, 62
1, 356290, Control_c, 0, 64, 56
1, 356304, Control_c, 0, 64, 65
1, 356319, Control_c, 0, 64, 69
1, 356334, Control_c, 0, 64, 72
1, 356335, Note_off_c, 0, 56, 60
1, 356349, Control_c, 0, 64, 74
1, 356358, Note_on_c, 0, 55, 71
1, 356364, Control_c, 0, 64, 76
1, 356379, Control_c, 0, 64, 78
1, 356394, Control_c, 0, 64, 79
1, 356396, Note_off_c, 0, 75, 64
1, 356408, Control_c, 0, 64, 80
1, 356414, Note_off_c, 0, 55, 57
1, 356423, Control_c, 0, 64, 81
1, 356438, Control_c, 0, 64, 81
1, 356442, Note_on_c, 0, 54, 72
1, 356453, Control_c, 0, 64, 82
1, 356483, Control_c, 0, 64, 82
1, 356515, Note_off_c, 0, 54, 62
1, 356519, Control_c, 0, 64, 83
1, 356530, Note_on_c, 0, 53, 71
1, 356605, Note_off_c, 0, 53, 60
1, 356624, Note_on_c, 0, 51, 75
1, 356692, Note_off_c, 0, 51, 60
1, 356742, Control_c, 0, 64, 82
1, 356786, Control_c, 0, 64, 82
1, 356801, Control_c, 0, 64, 79
1, 356811, Note_on_c, 0, 49, 59
1, 356816, Control_c, 0, 64, 71
1, 356830, Control_c, 0, 64, 0
1, 356836, Note_on_c, 0, 77, 79
1, 356844, Note_on_c, 0, 71, 75
1, 356919, Control_c, 0, 64, 61
1, 356934, Control_c, 0, 64, 67
1, 356942, Note_off_c, 0, 49, 61
1, 356949, Control_c, 0, 64, 74
1, 356953, Note_on_c, 0, 56, 58
1, 356963, Control_c, 0, 64, 80
1, 356978, Control_c, 0, 64, 84
1, 356993, Control_c, 0, 64, 85
1, 357008, Control_c, 0, 64, 86
1, 357023, Control_c, 0, 64, 87
1, 357037, Control_c, 0, 64, 88
1, 357052, Control_c, 0, 64, 88
1, 357054, Note_on_c, 0, 61, 58
1, 357060, Note_off_c, 0, 56, 60
1, 357067, Control_c, 0, 64, 89
1, 357083, Control_c, 0, 64, 89
1, 357109, Note_off_c, 0, 61, 62
1, 357138, Note_on_c, 0, 65, 58
1, 357178, Note_off_c, 0, 65, 61
1, 357207, Note_on_c, 0, 61, 57
1, 357236, Note_off_c, 0, 61, 66
1, 357266, Note_on_c, 0, 56, 64
1, 357302, Note_off_c, 0, 56, 62
1, 357312, Control_c, 0, 64, 90
1, 357323, Note_on_c, 0, 49, 69
1, 357359, Note_off_c, 0, 49, 63
1, 357436, Note_on_c, 0, 59, 60
1, 357478, Note_off_c, 0, 59, 55
1, 357507, Note_on_c, 0, 61, 37
1, 357508, Note_on_c, 0, 75, 79
1, 357541, Note_off_c, 0, 61, 47
1, 357560, Note_off_c, 0, 71, 57
1, 357562, Note_off_c, 0, 77, 35
1, 357565, Note_on_c, 0, 65, 44
1, 357591, Note_off_c, 0, 65, 58
1, 357608, Note_on_c, 0, 61, 42
1, 357650, Note_off_c, 0, 61, 60
1, 357663, Note_on_c, 0, 59, 54
1, 357742, Control_c, 0, 64, 89
1, 357748, Note_off_c, 0, 75, 65
1, 357751, Note_on_c, 0, 73, 72
1, 357772, Control_c, 0, 64, 89
1, 357801, Control_c, 0, 64, 88
1, 357805, Note_off_c, 0, 73, 63
1, 357816, Control_c, 0, 64, 87
1, 357817, Note_on_c, 0, 54, 56
1, 357818, Note_off_c, 0, 59, 36
1, 357831, Control_c, 0, 64, 86
1, 357846, Control_c, 0, 64, 82
1, 357860, Control_c, 0, 64, 74
1, 357876, Control_c, 0, 64, 56
1, 357887, Note_on_c, 0, 73, 68
1, 357889, Note_on_c, 0, 71, 58
1, 357891, Control_c, 0, 64, 0
1, 357918, Note_off_c, 0, 54, 57
1, 357929, Note_on_c, 0, 59, 49
1, 357935, Control_c, 0, 64, 54
1, 357950, Control_c, 0, 64, 64
1, 357965, Control_c, 0, 64, 69
1, 357980, Control_c, 0, 64, 75
1, 358002, Control_c, 0, 64, 81
1, 358017, Control_c, 0, 64, 85
1, 358024, Note_on_c, 0, 61, 57
1, 358032, Control_c, 0, 64, 85
1, 358036, Note_off_c, 0, 59, 56
1, 358051, Note_off_c, 0, 71, 55
1, 358062, Control_c, 0, 64, 86
1, 358072, Note_off_c, 0, 61, 59
1, 358077, Control_c, 0, 64, 86
1, 358091, Control_c, 0, 64, 87
1, 358100, Note_on_c, 0, 66, 57
1, 358106, Control_c, 0, 64, 87
1, 358121, Control_c, 0, 64, 88
1, 358137, Note_off_c, 0, 73, 62
1, 358162, Note_on_c, 0, 61, 53
1, 358162, Note_off_c, 0, 66, 61
1, 358210, Note_on_c, 0, 59, 57
1, 358214, Note_off_c, 0, 61, 52
1, 358262, Note_off_c, 0, 59, 60
1, 358269, Control_c, 0, 64, 87
1, 358313, Control_c, 0, 64, 87
1, 358358, Control_c, 0, 64, 86
1, 358373, Note_on_c, 0, 49, 66
1, 358373, Control_c, 0, 64, 82
1, 358388, Control_c, 0, 64, 73
1, 358402, Control_c, 0, 64, 59
1, 358417, Control_c, 0, 64, 0
1, 358432, Control_c, 0, 64, 30
1, 358447, Control_c, 0, 64, 60
1, 358447, Note_on_c, 0, 78, 84
1, 358451, Note_on_c, 0, 70, 76
1, 358456, Note_off_c, 0, 49, 56
1, 358462, Control_c, 0, 64, 66
1, 358476, Control_c, 0, 64, 70
1, 358491, Control_c, 0, 64, 77
1, 358506, Control_c, 0, 64, 82
1, 358521, Control_c, 0, 64, 85
1, 358535, Control_c, 0, 64, 86
1, 358550, Control_c, 0, 64, 87
1, 358565, Control_c, 0, 64, 87
1, 358580, Control_c, 0, 64, 88
1, 358585, Note_on_c, 0, 58, 55
1, 358595, Control_c, 0, 64, 89
1, 358609, Control_c, 0, 64, 90
1, 358624, Control_c, 0, 64, 90
1, 358642, Note_off_c, 0, 58, 51
1, 358647, Note_on_c, 0, 61, 53
1, 358689, Note_off_c, 0, 61, 62
1, 358711, Note_on_c, 0, 66, 60
1, 358773, Note_off_c, 0, 70, 54
1, 358798, Note_off_c, 0, 66, 58
1, 358811, Note_on_c, 0, 61, 38
1, 358825, Control_c, 0, 64, 90
1, 358826, Note_on_c, 0, 58, 53
1, 358853, Note_off_c, 0, 61, 50
1, 358855, Control_c, 0, 64, 89
1, 358885, Control_c, 0, 64, 88
1, 358887, Note_off_c, 0, 58, 62
1, 358899, Control_c, 0, 64, 83
1, 358909, Note_on_c, 0, 56, 57
1, 358912, Note_on_c, 0, 71, 70
1, 358914, Control_c, 0, 64, 74
1, 358929, Control_c, 0, 64, 59
1, 358944, Control_c, 0, 64, 0
1, 358973, Control_c, 0, 64, 57
1, 358979, Note_off_c, 0, 56, 59
1, 358988, Control_c, 0, 64, 65
1, 358995, Note_on_c, 0, 59, 51
1, 359003, Control_c, 0, 64, 69
1, 359018, Control_c, 0, 64, 74
1, 359032, Control_c, 0, 64, 79
1, 359047, Note_off_c, 0, 59, 59
1, 359047, Control_c, 0, 64, 82
1, 359053, Note_on_c, 0, 61, 55
1, 359062, Control_c, 0, 64, 83
1, 359091, Note_off_c, 0, 61, 60
1, 359112, Note_on_c, 0, 68, 63
1, 359113, Note_off_c, 0, 78, 38
1, 359157, Note_off_c, 0, 68, 62
1, 359193, Note_on_c, 0, 77, 78
1, 359211, Note_on_c, 0, 61, 27
1, 359216, Note_on_c, 0, 59, 57
1, 359243, Note_off_c, 0, 61, 42
1, 359249, Note_off_c, 0, 59, 64
1, 359288, Note_off_c, 0, 77, 57
1, 359342, Note_on_c, 0, 49, 57
1, 359360, Note_on_c, 0, 77, 81
1, 359370, Note_off_c, 0, 49, 63
1, 359421, Note_on_c, 0, 59, 64
1, 359478, Control_c, 0, 64, 83
1, 359487, Note_off_c, 0, 59, 54
1, 359503, Note_on_c, 0, 75, 84
1, 359519, Note_on_c, 0, 61, 48
1, 359521, Note_off_c, 0, 71, 30
1, 359541, Note_off_c, 0, 77, 33
1, 359551, Note_off_c, 0, 61, 48
1, 359562, Note_on_c, 0, 65, 59
1, 359574, Control_c, 0, 64, 84
1, 359604, Control_c, 0, 64, 84
1, 359622, Note_off_c, 0, 65, 52
1, 359633, Note_on_c, 0, 73, 89
1, 359642, Note_on_c, 0, 61, 48
1, 359656, Note_off_c, 0, 75, 61
1, 359679, Note_off_c, 0, 61, 51
1, 359687, Note_on_c, 0, 59, 59
1, 359711, Note_off_c, 0, 73, 62
1, 359811, Note_off_c, 0, 59, 62
1, 359811, Control_c, 0, 64, 84
1, 359826, Control_c, 0, 64, 79
1, 359841, Control_c, 0, 64, 68
1, 359851, Note_on_c, 0, 54, 51
1, 359854, Note_on_c, 0, 82, 83
1, 359855, Control_c, 0, 64, 0
1, 359856, Note_on_c, 0, 70, 61
1, 359860, Note_on_c, 0, 73, 70
1, 359914, Control_c, 0, 64, 44
1, 359929, Note_off_c, 0, 54, 61
1, 359929, Control_c, 0, 64, 64
1, 359944, Note_on_c, 0, 58, 55
1, 359944, Control_c, 0, 64, 69
1, 359959, Control_c, 0, 64, 75
1, 359974, Control_c, 0, 64, 82
1, 359989, Control_c, 0, 64, 85
1, 360003, Control_c, 0, 64, 85
1, 360018, Note_on_c, 0, 61, 63
1, 360018, Control_c, 0, 64, 86
1, 360025, Note_off_c, 0, 58, 65
1, 360033, Control_c, 0, 64, 86
1, 360038, Note_off_c, 0, 70, 54
1, 360048, Control_c, 0, 64, 87
1, 360062, Note_off_c, 0, 73, 59
1, 360063, Control_c, 0, 64, 87
1, 360066, Note_off_c, 0, 82, 56
1, 360066, Note_off_c, 0, 61, 59
1, 360095, Note_on_c, 0, 66, 57
1, 360141, Note_off_c, 0, 66, 62
1, 360155, Note_on_c, 0, 61, 60
1, 360206, Note_off_c, 0, 61, 53
1, 360207, Note_on_c, 0, 58, 62
1, 360263, Control_c, 0, 64, 85
1, 360278, Control_c, 0, 64, 79
1, 360290, Note_on_c, 0, 73, 55
1, 360290, Note_off_c, 0, 58, 62
1, 360293, Note_on_c, 0, 82, 89
1, 360293, Control_c, 0, 64, 66
1, 360296, Note_on_c, 0, 68, 79
1, 360308, Control_c, 0, 64, 0
1, 360309, Note_on_c, 0, 52, 61
1, 360353, Control_c, 0, 64, 57
1, 360364, Note_off_c, 0, 52, 63
1, 360368, Control_c, 0, 64, 66
1, 360376, Note_on_c, 0, 58, 65
1, 360383, Control_c, 0, 64, 72
1, 360398, Control_c, 0, 64, 80
1, 360412, Control_c, 0, 64, 85
1, 360427, Control_c, 0, 64, 87
1, 360431, Note_off_c, 0, 82, 62
1, 360442, Control_c, 0, 64, 88
1, 360448, Note_on_c, 0, 61, 66
1, 360455, Note_off_c, 0, 58, 65
1, 360457, Control_c, 0, 64, 90
1, 360468, Note_off_c, 0, 68, 61
1, 360472, Control_c, 0, 64, 92
1, 360486, Control_c, 0, 64, 94
1, 360495, Note_off_c, 0, 61, 60
1, 360501, Control_c, 0, 64, 97
1, 360516, Control_c, 0, 64, 99
1, 360517, Note_on_c, 0, 68, 59
1, 360531, Control_c, 0, 64, 100
1, 360542, Note_on_c, 0, 82, 85
1, 360546, Control_c, 0, 64, 100
1, 360561, Control_c, 0, 64, 101
1, 360587, Note_off_c, 0, 82, 66
1, 360590, Note_off_c, 0, 68, 63
1, 360600, Note_off_c, 0, 73, 62
1, 360620, Control_c, 0, 64, 101
1, 360622, Note_on_c, 0, 61, 56
1, 360633, Note_on_c, 0, 67, 72
1, 360656, Note_off_c, 0, 61, 62
1, 360674, Note_on_c, 0, 58, 51
1, 360679, Control_c, 0, 64, 101
1, 360725, Note_off_c, 0, 67, 52
1, 360729, Note_on_c, 0, 73, 75
1, 360797, Control_c, 0, 64, 100
1, 360827, Control_c, 0, 64, 99
1, 360835, Note_off_c, 0, 58, 47
1, 360841, Control_c, 0, 64, 98
1, 360856, Control_c, 0, 64, 96
1, 360871, Control_c, 0, 64, 87
1, 360879, Note_on_c, 0, 51, 50
1, 360886, Control_c, 0, 64, 74
1, 360895, Note_on_c, 0, 82, 84
1, 360901, Control_c, 0, 64, 25
1, 360916, Control_c, 0, 64, 0
1, 360960, Control_c, 0, 64, 57
1, 360966, Note_off_c, 0, 51, 61
1, 360972, Note_on_c, 0, 58, 58
1, 360975, Control_c, 0, 64, 67
1, 360990, Control_c, 0, 64, 72
1, 361012, Control_c, 0, 64, 78
1, 361027, Control_c, 0, 64, 83
1, 361042, Control_c, 0, 64, 86
1, 361050, Note_on_c, 0, 61, 60
1, 361056, Control_c, 0, 64, 86
1, 361071, Control_c, 0, 64, 87
1, 361072, Note_off_c, 0, 58, 57
1, 361072, Note_off_c, 0, 73, 62
1, 361088, Control_c, 0, 64, 88
1, 361102, Control_c, 0, 64, 89
1, 361117, Control_c, 0, 64, 90
1, 361126, Note_off_c, 0, 61, 55
1, 361132, Control_c, 0, 64, 91
1, 361139, Note_on_c, 0, 67, 53
1, 361161, Control_c, 0, 64, 92
1, 361193, Note_off_c, 0, 67, 52
1, 361198, Note_on_c, 0, 75, 77
1, 361209, Note_off_c, 0, 82, 35
1, 361216, Note_on_c, 0, 58, 52
1, 361286, Note_off_c, 0, 75, 60
1, 361306, Note_off_c, 0, 58, 59
1, 361309, Control_c, 0, 64, 91
1, 361339, Control_c, 0, 64, 91
1, 361340, Note_on_c, 0, 55, 54
1, 361354, Control_c, 0, 64, 87
1, 361367, Note_on_c, 0, 75, 65
1, 361369, Control_c, 0, 64, 79
1, 361384, Control_c, 0, 64, 65
1, 361398, Control_c, 0, 64, 0
1, 361428, Control_c, 0, 64, 51
1, 361441, Note_off_c, 0, 55, 64
1, 361443, Control_c, 0, 64, 64
1, 361458, Control_c, 0, 64, 68
1, 361469, Note_on_c, 0, 61, 48
1, 361472, Control_c, 0, 64, 72
1, 361479, Note_on_c, 0, 77, 70
1, 361481, Note_off_c, 0, 75, 62
1, 361487, Control_c, 0, 64, 77
1, 361502, Control_c, 0, 64, 82
1, 361515, Note_off_c, 0, 77, 58
1, 361516, Note_on_c, 0, 79, 63
1, 361517, Control_c, 0, 64, 84
1, 361532, Control_c, 0, 64, 85
1, 361533, Note_off_c, 0, 61, 56
1, 361540, Note_on_c, 0, 63, 56
1, 361546, Control_c, 0, 64, 85
1, 361561, Control_c, 0, 64, 86
1, 361574, Note_on_c, 0, 77, 78
1, 361576, Control_c, 0, 64, 87
1, 361587, Note_off_c, 0, 63, 61
1, 361587, Note_off_c, 0, 79, 59
1, 361591, Control_c, 0, 64, 88
1, 361606, Control_c, 0, 64, 89
1, 361614, Note_on_c, 0, 70, 63
1, 361620, Control_c, 0, 64, 89
1, 361635, Control_c, 0, 64, 90
1, 361650, Control_c, 0, 64, 90
1, 361679, Control_c, 0, 64, 91
1, 361694, Note_off_c, 0, 70, 57
1, 361726, Note_on_c, 0, 63, 48
1, 361769, Note_off_c, 0, 63, 52
1, 361783, Note_on_c, 0, 61, 54
1, 361797, Note_on_c, 0, 75, 75
1, 361811, Note_off_c, 0, 77, 59
1, 361840, Note_off_c, 0, 75, 61
1, 361864, Control_c, 0, 64, 90
1, 361866, Note_off_c, 0, 61, 60
1, 361880, Control_c, 0, 64, 86
1, 361889, Note_on_c, 0, 56, 59
1, 361895, Control_c, 0, 64, 77
1, 361896, Note_on_c, 0, 75, 72
1, 361898, Note_on_c, 0, 73, 72
1, 361909, Control_c, 0, 64, 61
1, 361924, Control_c, 0, 64, 0
1, 361954, Control_c, 0, 64, 31
1, 361958, Note_off_c, 0, 56, 63
1, 361969, Control_c, 0, 64, 61
1, 361983, Note_on_c, 0, 61, 56
1, 361983, Control_c, 0, 64, 67
1, 361998, Control_c, 0, 64, 72
1, 362013, Control_c, 0, 64, 77
1, 362028, Control_c, 0, 64, 82
1, 362043, Control_c, 0, 64, 84
1, 362048, Note_on_c, 0, 63, 59
1, 362053, Note_off_c, 0, 61, 62
1, 362057, Control_c, 0, 64, 85
1, 362072, Control_c, 0, 64, 85
1, 362087, Control_c, 0, 64, 86
1, 362100, Note_off_c, 0, 63, 61
1, 362102, Control_c, 0, 64, 87
1, 362117, Control_c, 0, 64, 89
1, 362118, Note_on_c, 0, 68, 66
1, 362132, Control_c, 0, 64, 89
1, 362147, Control_c, 0, 64, 90
1, 362161, Note_off_c, 0, 73, 31
1, 362192, Note_off_c, 0, 68, 61
1, 362206, Note_on_c, 0, 63, 61
1, 362206, Control_c, 0, 64, 90
1, 362277, Note_on_c, 0, 61, 66
1, 362284, Note_off_c, 0, 63, 60
1, 362361, Note_off_c, 0, 61, 60
1, 362413, Control_c, 0, 64, 90
1, 362428, Control_c, 0, 64, 87
1, 362429, Note_on_c, 0, 51, 54
1, 362442, Control_c, 0, 64, 79
1, 362457, Control_c, 0, 64, 65
1, 362472, Note_on_c, 0, 80, 86
1, 362472, Control_c, 0, 64, 0
1, 362478, Note_on_c, 0, 72, 71
1, 362524, Control_c, 0, 64, 32
1, 362533, Note_off_c, 0, 75, 60
1, 362534, Note_off_c, 0, 51, 60
1, 362539, Control_c, 0, 64, 61
1, 362543, Note_on_c, 0, 60, 54
1, 362554, Control_c, 0, 64, 67
1, 362569, Control_c, 0, 64, 72
1, 362583, Control_c, 0, 64, 78
1, 362598, Control_c, 0, 64, 84
1, 362613, Control_c, 0, 64, 85
1, 362628, Control_c, 0, 64, 85
1, 362655, Note_on_c, 0, 63, 63
1, 362657, Control_c, 0, 64, 86
1, 362673, Note_off_c, 0, 60, 57
1, 362673, Control_c, 0, 64, 87
1, 362680, Note_off_c, 0, 72, 61
1, 362688, Control_c, 0, 64, 88
1, 362703, Control_c, 0, 64, 89
1, 362710, Note_off_c, 0, 63, 58
1, 362733, Note_on_c, 0, 68, 65
1, 362747, Control_c, 0, 64, 89
1, 362797, Note_off_c, 0, 68, 60
1, 362859, Note_on_c, 0, 60, 64
1, 362925, Control_c, 0, 64, 89
1, 362932, Note_off_c, 0, 60, 60
1, 362940, Control_c, 0, 64, 85
1, 362944, Note_on_c, 0, 58, 56
1, 362955, Control_c, 0, 64, 75
1, 362958, Note_on_c, 0, 73, 79
1, 362969, Control_c, 0, 64, 59
1, 362984, Control_c, 0, 64, 0
1, 362989, Note_off_c, 0, 80, 46
1, 363014, Control_c, 0, 64, 58
1, 363017, Note_off_c, 0, 58, 61
1, 363028, Note_on_c, 0, 61, 60
1, 363029, Control_c, 0, 64, 65
1, 363044, Control_c, 0, 64, 70
1, 363059, Control_c, 0, 64, 76
1, 363073, Control_c, 0, 64, 83
1, 363084, Note_off_c, 0, 73, 58
1, 363088, Control_c, 0, 64, 86
1, 363098, Note_on_c, 0, 63, 56
1, 363098, Note_off_c, 0, 61, 61
1, 363103, Control_c, 0, 64, 87
1, 363114, Note_on_c, 0, 79, 79
1, 363133, Control_c, 0, 64, 87
1, 363145, Note_off_c, 0, 63, 60
1, 363163, Control_c, 0, 64, 88
1, 363166, Note_on_c, 0, 70, 61
1, 363192, Control_c, 0, 64, 88
1, 363224, Note_off_c, 0, 79, 60
1, 363230, Note_off_c, 0, 70, 62
1, 363237, Control_c, 0, 64, 89
1, 363253, Note_on_c, 0, 77, 83
1, 363265, Note_on_c, 0, 61, 63
1, 363309, Note_off_c, 0, 61, 57
1, 363382, Note_on_c, 0, 51, 65
1, 363416, Note_off_c, 0, 51, 62
1, 363419, Note_on_c, 0, 79, 85
1, 363467, Note_off_c, 0, 77, 27
1, 363485, Note_on_c, 0, 61, 60
1, 363527, Control_c, 0, 64, 89
1, 363558, Note_off_c, 0, 79, 52
1, 363566, Note_on_c, 0, 63, 62
1, 363572, Note_off_c, 0, 61, 60
1, 363578, Note_on_c, 0, 77, 89
1, 363601, Note_off_c, 0, 63, 65
1, 363630, Note_on_c, 0, 67, 64
1, 363700, Note_off_c, 0, 67, 58
1, 363715, Note_on_c, 0, 63, 64
1, 363774, Note_off_c, 0, 77, 56
1, 363780, Note_on_c, 0, 61, 66
1, 363780, Note_off_c, 0, 63, 60
1, 363800, Note_on_c, 0, 75, 80
1, 363852, Control_c, 0, 64, 89
1, 363861, Note_off_c, 0, 75, 64
1, 363867, Control_c, 0, 64, 84
1, 363876, Note_off_c, 0, 61, 58
1, 363882, Control_c, 0, 64, 72
1, 363893, Note_on_c, 0, 72, 87
1, 363893, Note_on_c, 0, 84, 89
1, 363896, Control_c, 0, 64, 0
1, 363898, Note_on_c, 0, 56, 61
1, 363956, Control_c, 0, 64, 32
1, 363965, Note_off_c, 0, 56, 62
1, 363971, Control_c, 0, 64, 64
1, 363980, Note_on_c, 0, 60, 56
1, 363986, Control_c, 0, 64, 70
1, 364008, Control_c, 0, 64, 77
1, 364022, Control_c, 0, 64, 83
1, 364037, Control_c, 0, 64, 86
1, 364049, Note_on_c, 0, 63, 65
1, 364052, Control_c, 0, 64, 87
1, 364057, Note_off_c, 0, 60, 62
1, 364067, Control_c, 0, 64, 87
1, 364082, Control_c, 0, 64, 88
1, 364093, Note_off_c, 0, 63, 60
1, 364097, Control_c, 0, 64, 88
1, 364112, Control_c, 0, 64, 89
1, 364119, Note_on_c, 0, 68, 64
1, 364124, Note_off_c, 0, 84, 63
1, 364182, Note_off_c, 0, 68, 64
1, 364186, Note_on_c, 0, 63, 70
1, 364240, Note_on_c, 0, 60, 68
1, 364249, Note_off_c, 0, 63, 63
1, 364311, Note_off_c, 0, 60, 61
1, 364335, Note_on_c, 0, 55, 59
1, 364335, Control_c, 0, 64, 86
1, 364350, Control_c, 0, 64, 76
1, 364353, Note_on_c, 0, 84, 94
1, 364365, Control_c, 0, 64, 59
1, 364379, Control_c, 0, 64, 0
1, 364424, Note_on_c, 0, 56, 67
1, 364424, Control_c, 0, 64, 62
1, 364425, Note_off_c, 0, 55, 62
1, 364439, Control_c, 0, 64, 68
1, 364454, Control_c, 0, 64, 74
1, 364469, Control_c, 0, 64, 81
1, 364484, Control_c, 0, 64, 86
1, 364498, Control_c, 0, 64, 88
1, 364499, Note_off_c, 0, 56, 62
1, 364500, Note_on_c, 0, 60, 76
1, 364500, Note_off_c, 0, 84, 61
1, 364513, Control_c, 0, 64, 89
1, 364528, Control_c, 0, 64, 91
1, 364543, Control_c, 0, 64, 93
1, 364555, Note_off_c, 0, 60, 62
1, 364558, Control_c, 0, 64, 97
1, 364562, Note_on_c, 0, 63, 76
1, 364572, Control_c, 0, 64, 101
1, 364587, Control_c, 0, 64, 103
1, 364602, Control_c, 0, 64, 105
1, 364617, Control_c, 0, 64, 106
1, 364632, Control_c, 0, 64, 107
1, 364643, Note_off_c, 0, 63, 64
1, 364646, Control_c, 0, 64, 110
1, 364651, Note_on_c, 0, 84, 91
1, 364655, Note_on_c, 0, 60, 70
1, 364661, Control_c, 0, 64, 112
1, 364676, Control_c, 0, 64, 113
1, 364690, Control_c, 0, 64, 114
1, 364705, Control_c, 0, 64, 114
1, 364720, Control_c, 0, 64, 115
1, 364735, Control_c, 0, 64, 115
1, 364753, Note_off_c, 0, 60, 60
1, 364759, Note_on_c, 0, 56, 65
1, 364759, Note_off_c, 0, 84, 61
1, 364891, Control_c, 0, 64, 115
1, 364897, Note_off_c, 0, 56, 60
1, 364905, Control_c, 0, 64, 114
1, 364919, Note_on_c, 0, 54, 59
1, 364920, Control_c, 0, 64, 111
1, 364935, Control_c, 0, 64, 108
1, 364950, Control_c, 0, 64, 102
1, 364965, Control_c, 0, 64, 94
1, 364979, Control_c, 0, 64, 82
1, 364994, Control_c, 0, 64, 64
1, 365008, Note_on_c, 0, 84, 83
1, 365009, Control_c, 0, 64, 0
1, 365059, Note_on_c, 0, 56, 47
1, 365099, Control_c, 0, 64, 58
1, 365114, Control_c, 0, 64, 66
1, 365116, Note_off_c, 0, 54, 57
1, 365128, Control_c, 0, 64, 71
1, 365140, Note_off_c, 0, 56, 58
1, 365142, Note_on_c, 0, 60, 59
1, 365143, Control_c, 0, 64, 77
1, 365158, Control_c, 0, 64, 82
1, 365173, Control_c, 0, 64, 86
1, 365188, Control_c, 0, 64, 88
1, 365202, Control_c, 0, 64, 89
1, 365206, Note_off_c, 0, 60, 61
1, 365217, Control_c, 0, 64, 91
1, 365227, Note_on_c, 0, 63, 52
1, 365232, Control_c, 0, 64, 93
1, 365247, Control_c, 0, 64, 95
1, 365262, Control_c, 0, 64, 96
1, 365277, Control_c, 0, 64, 97
1, 365289, Note_off_c, 0, 63, 61
1, 365292, Control_c, 0, 64, 98
1, 365297, Note_on_c, 0, 60, 49
1, 365306, Control_c, 0, 64, 99
1, 365321, Control_c, 0, 64, 99
1, 365336, Control_c, 0, 64, 100
1, 365351, Control_c, 0, 64, 100
1, 365356, Note_off_c, 0, 60, 57
1, 365366, Note_on_c, 0, 56, 57
1, 365366, Control_c, 0, 64, 101
1, 365381, Control_c, 0, 64, 101
1, 365410, Control_c, 0, 64, 102
1, 365425, Control_c, 0, 64, 102
1, 365438, Note_off_c, 0, 56, 63
1, 365454, Control_c, 0, 64, 103
1, 365458, Note_on_c, 0, 54, 58
1, 365491, Control_c, 0, 64, 103
1, 365521, Control_c, 0, 64, 104
1, 365536, Control_c, 0, 64, 104
1, 365550, Note_off_c, 0, 54, 57
1, 365551, Control_c, 0, 64, 105
1, 365566, Control_c, 0, 64, 105
1, 365567, Note_on_c, 0, 56, 39
1, 365579, Control_c, 0, 64, 106
1, 365602, Note_off_c, 0, 56, 52
1, 365608, Control_c, 0, 64, 107
1, 365610, Note_off_c, 0, 84, 47
1, 365620, Note_on_c, 0, 60, 51
1, 365623, Control_c, 0, 64, 107
1, 365628, Note_on_c, 0, 82, 76
1, 365638, Control_c, 0, 64, 108
1, 365652, Control_c, 0, 64, 109
1, 365667, Control_c, 0, 64, 110
1, 365682, Control_c, 0, 64, 111
1, 365687, Note_off_c, 0, 72, 57
1, 365691, Note_off_c, 0, 60, 59
1, 365697, Control_c, 0, 64, 112
1, 365711, Note_on_c, 0, 63, 52
1, 365712, Control_c, 0, 64, 113
1, 365727, Control_c, 0, 64, 113
1, 365742, Control_c, 0, 64, 114
1, 365767, Note_off_c, 0, 63, 56
1, 365788, Note_on_c, 0, 60, 36
1, 365801, Control_c, 0, 64, 114
1, 365843, Note_off_c, 0, 60, 57
1, 365860, Control_c, 0, 64, 114
1, 365862, Note_on_c, 0, 56, 44
1, 365875, Note_on_c, 0, 80, 72
1, 365886, Note_off_c, 0, 82, 63
1, 365908, Note_off_c, 0, 80, 59
1, 365921, Control_c, 0, 64, 113
1, 365935, Control_c, 0, 64, 108
1, 365950, Control_c, 0, 64, 97
1, 365965, Control_c, 0, 64, 83
1, 365966, Note_on_c, 0, 80, 75
1, 365966, Note_off_c, 0, 56, 54
1, 365980, Control_c, 0, 64, 66
1, 365987, Note_on_c, 0, 53, 46
1, 365995, Control_c, 0, 64, 0
1, 366039, Control_c, 0, 64, 47
1, 366054, Control_c, 0, 64, 63
1, 366058, Note_off_c, 0, 53, 64
1, 366068, Control_c, 0, 64, 68
1, 366078, Note_on_c, 0, 56, 45
1, 366083, Control_c, 0, 64, 74
1, 366098, Control_c, 0, 64, 80
1, 366113, Control_c, 0, 64, 85
1, 366128, Control_c, 0, 64, 88
1, 366132, Note_on_c, 0, 61, 58
1, 366133, Note_off_c, 0, 56, 57
1, 366142, Control_c, 0, 64, 89
1, 366157, Control_c, 0, 64, 91
1, 366168, Note_off_c, 0, 80, 64
1, 366172, Note_off_c, 0, 61, 61
1, 366172, Control_c, 0, 64, 93
1, 366187, Control_c, 0, 64, 94
1, 366200, Note_on_c, 0, 65, 59
1, 366202, Control_c, 0, 64, 96
1, 366216, Control_c, 0, 64, 97
1, 366231, Control_c, 0, 64, 98
1, 366254, Control_c, 0, 64, 100
1, 366266, Note_off_c, 0, 65, 64
1, 366268, Control_c, 0, 64, 101
1, 366277, Note_on_c, 0, 61, 60
1, 366283, Control_c, 0, 64, 102
1, 366298, Control_c, 0, 64, 103
1, 366313, Control_c, 0, 64, 104
1, 366320, Note_off_c, 0, 61, 59
1, 366328, Control_c, 0, 64, 105
1, 366332, Note_on_c, 0, 56, 57
1, 366342, Control_c, 0, 64, 106
1, 366357, Control_c, 0, 64, 106
1, 366372, Control_c, 0, 64, 107
1, 366387, Control_c, 0, 64, 107
1, 366404, Note_off_c, 0, 56, 64
1, 366416, Control_c, 0, 64, 108
1, 366426, Note_on_c, 0, 53, 56
1, 366431, Note_on_c, 0, 85, 92
1, 366431, Control_c, 0, 64, 108
1, 366446, Control_c, 0, 64, 109
1, 366460, Control_c, 0, 64, 110
1, 366475, Control_c, 0, 64, 111
1, 366487, Note_off_c, 0, 53, 66
1, 366490, Control_c, 0, 64, 112
1, 366503, Note_on_c, 0, 56, 58
1, 366505, Control_c, 0, 64, 112
1, 366520, Control_c, 0, 64, 113
1, 366565, Note_off_c, 0, 56, 62
1, 366575, Note_on_c, 0, 61, 61
1, 366609, Control_c, 0, 64, 113
1, 366634, Note_off_c, 0, 61, 63
1, 366638, Note_off_c, 0, 85, 62
1, 366657, Note_on_c, 0, 68, 65
1, 366684, Control_c, 0, 64, 113
1, 366725, Note_off_c, 0, 68, 64
1, 366737, Note_on_c, 0, 61, 69
1, 366801, Note_on_c, 0, 56, 63
1, 366803, Note_off_c, 0, 61, 60
1, 366818, Control_c, 0, 64, 112
1, 366862, Control_c, 0, 64, 112
1, 366877, Control_c, 0, 64, 111
1, 366882, Note_off_c, 0, 56, 62
1, 366891, Control_c, 0, 64, 106
1, 366901, Note_on_c, 0, 51, 61
1, 366906, Control_c, 0, 64, 93
1, 366910, Note_on_c, 0, 85, 86
1, 366921, Control_c, 0, 64, 77
1, 366936, Control_c, 0, 64, 46
1, 366951, Control_c, 0, 64, 0
1, 366973, Note_off_c, 0, 51, 61
1, 366980, Control_c, 0, 64, 24
1, 366995, Note_on_c, 0, 56, 54
1, 367003, Control_c, 0, 64, 63
1, 367017, Control_c, 0, 64, 69
1, 367032, Control_c, 0, 64, 75
1, 367047, Control_c, 0, 64, 82
1, 367061, Note_on_c, 0, 60, 58
1, 367062, Control_c, 0, 64, 87
1, 367064, Note_off_c, 0, 56, 64
1, 367077, Control_c, 0, 64, 89
1, 367092, Control_c, 0, 64, 89
1, 367107, Control_c, 0, 64, 90
1, 367122, Control_c, 0, 64, 90
1, 367128, Note_off_c, 0, 85, 57
1, 367136, Note_off_c, 0, 60, 58
1, 367146, Note_on_c, 0, 66, 56
1, 367203, Note_off_c, 0, 66, 60
1, 367220, Note_on_c, 0, 84, 79
1, 367242, Note_on_c, 0, 60, 37
1, 367280, Note_off_c, 0, 60, 50
1, 367284, Note_on_c, 0, 56, 52
1, 367310, Note_off_c, 0, 84, 62
1, 367373, Note_off_c, 0, 56, 59
1, 367373, Control_c, 0, 64, 88
1, 367388, Control_c, 0, 64, 82
1, 367400, Note_on_c, 0, 51, 51
1, 367402, Note_on_c, 0, 84, 79
1, 367403, Control_c, 0, 64, 70
1, 367417, Control_c, 0, 64, 37
1, 367432, Control_c, 0, 64, 0
1, 367447, Control_c, 0, 64, 44
1, 367463, Control_c, 0, 64, 62
1, 367467, Note_off_c, 0, 51, 60
1, 367478, Control_c, 0, 64, 66
1, 367493, Control_c, 0, 64, 70
1, 367494, Note_on_c, 0, 56, 46
1, 367508, Control_c, 0, 64, 75
1, 367522, Control_c, 0, 64, 79
1, 367535, Note_off_c, 0, 84, 62
1, 367537, Control_c, 0, 64, 81
1, 367552, Control_c, 0, 64, 82
1, 367555, Note_on_c, 0, 82, 76
1, 367560, Note_off_c, 0, 56, 63
1, 367569, Note_on_c, 0, 60, 56
1, 367582, Control_c, 0, 64, 83
1, 367596, Control_c, 0, 64, 84
1, 367611, Control_c, 0, 64, 85
1, 367626, Control_c, 0, 64, 86
1, 367637, Note_off_c, 0, 60, 57
1, 367641, Control_c, 0, 64, 86
1, 367651, Note_on_c, 0, 66, 58
1, 367709, Note_off_c, 0, 66, 64
1, 367765, Note_on_c, 0, 60, 25
1, 367795, Note_off_c, 0, 60, 51
1, 367815, Note_on_c, 0, 56, 51
1, 367822, Note_off_c, 0, 82, 56
1, 367831, Note_on_c, 0, 80, 66
1, 367876, Note_off_c, 0, 56, 58
1, 367885, Control_c, 0, 64, 85
1, 367900, Control_c, 0, 64, 80
1, 367914, Control_c, 0, 64, 71
1, 367915, Note_on_c, 0, 89, 73
1, 367918, Note_on_c, 0, 50, 43
1, 367926, Note_off_c, 0, 80, 62
1, 367929, Control_c, 0, 64, 21
1, 367944, Control_c, 0, 64, 0
1, 367974, Control_c, 0, 64, 45
1, 367988, Control_c, 0, 64, 63
1, 367996, Note_off_c, 0, 50, 52
1, 368003, Note_on_c, 0, 56, 55
1, 368003, Control_c, 0, 64, 69
1, 368018, Control_c, 0, 64, 75
1, 368033, Control_c, 0, 64, 81
1, 368047, Control_c, 0, 64, 86
1, 368062, Control_c, 0, 64, 87
1, 368077, Control_c, 0, 64, 87
1, 368079, Note_off_c, 0, 56, 61
1, 368088, Note_on_c, 0, 59, 55
1, 368091, Note_off_c, 0, 89, 57
1, 368107, Control_c, 0, 64, 88
1, 368123, Note_off_c, 0, 59, 59
1, 368150, Note_on_c, 0, 65, 62
1, 368213, Note_off_c, 0, 65, 60
1, 368217, Note_on_c, 0, 59, 59
1, 368281, Note_off_c, 0, 59, 59
1, 368287, Note_on_c, 0, 56, 61
1, 368329, Control_c, 0, 64, 83
1, 368344, Control_c, 0, 64, 73
1, 368350, Note_off_c, 0, 56, 63
1, 368354, Note_on_c, 0, 89, 83
1, 368359, Control_c, 0, 64, 50
1, 368368, Note_on_c, 0, 50, 56
1, 368374, Control_c, 0, 64, 0
1, 368404, Control_c, 0, 64, 54
1, 368419, Control_c, 0, 64, 65
1, 368431, Note_off_c, 0, 50, 64
1, 368433, Control_c, 0, 64, 72
1, 368440, Note_on_c, 0, 56, 56
1, 368448, Control_c, 0, 64, 79
1, 368463, Control_c, 0, 64, 85
1, 368478, Control_c, 0, 64, 89
1, 368500, Control_c, 0, 64, 91
1, 368514, Note_on_c, 0, 58, 63
1, 368515, Note_off_c, 0, 56, 63
1, 368515, Control_c, 0, 64, 93
1, 368523, Note_off_c, 0, 89, 61
1, 368530, Control_c, 0, 64, 96
1, 368544, Control_c, 0, 64, 100
1, 368555, Note_off_c, 0, 58, 61
1, 368559, Control_c, 0, 64, 104
1, 368574, Control_c, 0, 64, 107
1, 368575, Note_on_c, 0, 65, 67
1, 368589, Control_c, 0, 64, 110
1, 368604, Control_c, 0, 64, 112
1, 368618, Control_c, 0, 64, 115
1, 368633, Control_c, 0, 64, 119
1, 368634, Note_on_c, 0, 89, 90
1, 368648, Control_c, 0, 64, 121
1, 368654, Note_off_c, 0, 65, 62
1, 368663, Control_c, 0, 64, 123
1, 368672, Note_on_c, 0, 58, 59
1, 368678, Control_c, 0, 64, 124
1, 368708, Control_c, 0, 64, 124
1, 368737, Note_off_c, 0, 58, 61
1, 368737, Note_on_c, 0, 56, 54
1, 368758, Note_off_c, 0, 89, 62
1, 368811, Control_c, 0, 64, 124
1, 368841, Control_c, 0, 64, 123
1, 368850, Note_off_c, 0, 56, 63
1, 368856, Control_c, 0, 64, 116
1, 368870, Control_c, 0, 64, 104
1, 368875, Note_on_c, 0, 51, 59
1, 368885, Control_c, 0, 64, 89
1, 368900, Control_c, 0, 64, 73
1, 368904, Note_on_c, 0, 89, 78
1, 368915, Control_c, 0, 64, 0
1, 368944, Control_c, 0, 64, 50
1, 368950, Note_off_c, 0, 51, 62
1, 368959, Control_c, 0, 64, 65
1, 368964, Note_on_c, 0, 54, 56
1, 368974, Control_c, 0, 64, 70
1, 368989, Control_c, 0, 64, 76
1, 369004, Control_c, 0, 64, 84
1, 369018, Control_c, 0, 64, 88
1, 369032, Note_off_c, 0, 54, 61
1, 369033, Control_c, 0, 64, 89
1, 369042, Note_on_c, 0, 58, 55
1, 369048, Control_c, 0, 64, 89
1, 369064, Control_c, 0, 64, 90
1, 369079, Control_c, 0, 64, 90
1, 369080, Note_off_c, 0, 58, 64
1, 369113, Note_on_c, 0, 63, 59
1, 369188, Note_off_c, 0, 63, 63
1, 369192, Note_on_c, 0, 58, 48
1, 369236, Note_off_c, 0, 58, 62
1, 369244, Note_on_c, 0, 54, 64
1, 369275, Note_off_c, 0, 54, 65
1, 369366, Note_on_c, 0, 42, 68
1, 369372, Note_on_c, 0, 87, 71
1, 369400, Note_off_c, 0, 42, 64
1, 369434, Note_on_c, 0, 54, 63
1, 369453, Note_off_c, 0, 89, 34
1, 369474, Note_off_c, 0, 54, 61
1, 369532, Note_on_c, 0, 85, 74
1, 369539, Note_on_c, 0, 58, 61
1, 369541, Note_off_c, 0, 87, 61
1, 369578, Note_off_c, 0, 58, 65
1, 369638, Note_on_c, 0, 63, 61
1, 369673, Note_off_c, 0, 63, 64
1, 369683, Note_off_c, 0, 85, 62
1, 369686, Note_on_c, 0, 82, 77
1, 369718, Note_on_c, 0, 58, 37
1, 369745, Note_on_c, 0, 54, 61
1, 369745, Note_off_c, 0, 58, 53
1, 369801, Note_off_c, 0, 54, 58
1, 369841, Control_c, 0, 64, 88
1, 369850, Note_on_c, 0, 44, 62
1, 369857, Control_c, 0, 64, 82
1, 369870, Note_on_c, 0, 84, 74
1, 369872, Control_c, 0, 64, 67
1, 369879, Note_off_c, 0, 82, 58
1, 369887, Control_c, 0, 64, 0
1, 369911, Note_off_c, 0, 44, 56
1, 369931, Control_c, 0, 64, 43
1, 369933, Note_on_c, 0, 53, 59
1, 369946, Control_c, 0, 64, 64
1, 369961, Control_c, 0, 64, 70
1, 369976, Control_c, 0, 64, 77
1, 369998, Control_c, 0, 64, 83
1, 370013, Control_c, 0, 64, 85
1, 370016, Note_off_c, 0, 53, 65
1, 370024, Note_on_c, 0, 56, 59
1, 370028, Control_c, 0, 64, 86
1, 370061, Note_off_c, 0, 56, 63
1, 370090, Note_on_c, 0, 61, 57
1, 370135, Note_off_c, 0, 61, 58
1, 370150, Note_on_c, 0, 56, 59
1, 370199, Note_off_c, 0, 56, 60
1, 370212, Note_on_c, 0, 53, 54
1, 370257, Note_off_c, 0, 53, 63
1, 370280, Control_c, 0, 64, 85
1, 370289, Note_on_c, 0, 44, 64
1, 370295, Control_c, 0, 64, 81
1, 370310, Control_c, 0, 64, 72
1, 370320, Note_on_c, 0, 82, 76
1, 370324, Control_c, 0, 64, 41
1, 370335, Note_off_c, 0, 84, 56
1, 370339, Control_c, 0, 64, 0
1, 370356, Note_off_c, 0, 44, 58
1, 370362, Note_on_c, 0, 53, 61
1, 370369, Control_c, 0, 64, 57
1, 370383, Control_c, 0, 64, 65
1, 370384, Poly_aftertouch_c, 0, 49, 0
1, 370398, Control_c, 0, 64, 69
1, 370413, Control_c, 0, 64, 73
1, 370428, Control_c, 0, 64, 78
1, 370443, Control_c, 0, 64, 81
1, 370451, Note_on_c, 0, 56, 61
1, 370456, Note_off_c, 0, 53, 60
1, 370457, Control_c, 0, 64, 81
1, 370464, Note_on_c, 0, 80, 83
1, 370478, Note_off_c, 0, 82, 61
1, 370502, Control_c, 0, 64, 82
1, 370533, Note_on_c, 0, 61, 51
1, 370570, Note_off_c, 0, 61, 64
1, 370602, Note_on_c, 0, 77, 81
1, 370611, Note_on_c, 0, 53, 56
1, 370611, Note_off_c, 0, 56, 58
1, 370625, Note_off_c, 0, 80, 53
1, 370658, Note_off_c, 0, 53, 62
1, 370711, Control_c, 0, 64, 80
1, 370726, Control_c, 0, 64, 72
1, 370743, Note_on_c, 0, 44, 64
1, 370747, Control_c, 0, 64, 50
1, 370762, Control_c, 0, 64, 0
1, 370777, Note_on_c, 0, 82, 74
1, 370785, Note_off_c, 0, 77, 54
1, 370788, Note_off_c, 0, 44, 63
1, 370792, Control_c, 0, 64, 40
1, 370807, Control_c, 0, 64, 62
1, 370821, Control_c, 0, 64, 67
1, 370836, Control_c, 0, 64, 72
1, 370851, Control_c, 0, 64, 78
1, 370866, Control_c, 0, 64, 82
1, 370871, Note_on_c, 0, 54, 57
1, 370881, Control_c, 0, 64, 83
1, 370896, Control_c, 0, 64, 84
1, 370910, Note_off_c, 0, 82, 64
1, 370910, Note_off_c, 0, 54, 60
1, 370911, Note_on_c, 0, 80, 70
1, 370934, Note_on_c, 0, 56, 50
1, 370961, Note_off_c, 0, 56, 59
1, 370996, Note_off_c, 0, 80, 59
1, 370997, Note_on_c, 0, 60, 43
1, 371014, Control_c, 0, 64, 83
1, 371028, Note_off_c, 0, 60, 54
1, 371035, Note_on_c, 0, 78, 76
1, 371061, Note_on_c, 0, 56, 33
1, 371065, Note_off_c, 0, 78, 60
1, 371083, Note_on_c, 0, 54, 39
1, 371089, Note_off_c, 0, 56, 49
1, 371119, Note_off_c, 0, 54, 46
1, 371131, Note_on_c, 0, 78, 75
1, 371132, Control_c, 0, 64, 81
1, 371147, Control_c, 0, 64, 75
1, 371162, Control_c, 0, 64, 63
1, 371175, Note_off_c, 0, 78, 64
1, 371176, Note_on_c, 0, 80, 77
1, 371177, Control_c, 0, 64, 0
1, 371184, Note_on_c, 0, 44, 51
1, 371192, Control_c, 0, 64, 38
1, 371196, Note_off_c, 0, 80, 71
1, 371206, Control_c, 0, 64, 63
1, 371212, Note_off_c, 0, 44, 58
1, 371221, Control_c, 0, 64, 67
1, 371224, Note_on_c, 0, 78, 77
1, 371236, Control_c, 0, 64, 71
1, 371251, Control_c, 0, 64, 77
1, 371265, Control_c, 0, 64, 82
1, 371280, Control_c, 0, 64, 85
1, 371295, Note_on_c, 0, 54, 59
1, 371295, Control_c, 0, 64, 86
1, 371310, Control_c, 0, 64, 86
1, 371355, Note_off_c, 0, 78, 57
1, 371359, Note_on_c, 0, 77, 77
1, 371369, Note_on_c, 0, 56, 54
1, 371370, Control_c, 0, 64, 87
1, 371375, Note_off_c, 0, 54, 56
1, 371399, Control_c, 0, 64, 87
1, 371405, Note_off_c, 0, 56, 64
1, 371444, Control_c, 0, 64, 88
1, 371445, Note_on_c, 0, 60, 54
1, 371503, Note_off_c, 0, 60, 52
1, 371511, Control_c, 0, 64, 88
1, 371516, Note_on_c, 0, 56, 57
1, 371596, Note_on_c, 0, 76, 68
1, 371609, Note_off_c, 0, 56, 55
1, 371615, Note_off_c, 0, 77, 56
1, 371620, Note_on_c, 0, 54, 49
1, 371641, Note_off_c, 0, 76, 63
1, 371659, Control_c, 0, 64, 88
1, 371674, Control_c, 0, 64, 87
1, 371689, Control_c, 0, 64, 86
1, 371703, Control_c, 0, 64, 82
1, 371718, Control_c, 0, 64, 73
1, 371733, Note_on_c, 0, 76, 77
1, 371733, Control_c, 0, 64, 48
1, 371738, Note_off_c, 0, 54, 37
1, 371740, Note_on_c, 0, 49, 49
1, 371748, Control_c, 0, 64, 0
1, 371793, Control_c, 0, 64, 38
1, 371808, Control_c, 0, 64, 62
1, 371817, Note_off_c, 0, 49, 62
1, 371823, Control_c, 0, 64, 67
1, 371834, Note_on_c, 0, 56, 57
1, 371837, Control_c, 0, 64, 72
1, 371852, Control_c, 0, 64, 78
1, 371867, Control_c, 0, 64, 81
1, 371881, Control_c, 0, 64, 82
1, 371896, Control_c, 0, 64, 83
1, 371921, Note_off_c, 0, 56, 62
1, 371926, Control_c, 0, 64, 83
1, 371929, Note_on_c, 0, 61, 61
1, 371983, Note_off_c, 0, 61, 60
1, 372009, Note_on_c, 0, 65, 55
1, 372044, Control_c, 0, 64, 83
1, 372074, Control_c, 0, 64, 82
1, 372075, Note_off_c, 0, 65, 57
1, 372088, Control_c, 0, 64, 82
1, 372095, Note_on_c, 0, 61, 49
1, 372118, Control_c, 0, 64, 81
1, 372132, Note_off_c, 0, 61, 59
1, 372133, Control_c, 0, 64, 81
1, 372142, Note_on_c, 0, 58, 53
1, 372148, Control_c, 0, 64, 80
1, 372163, Control_c, 0, 64, 80
1, 372177, Control_c, 0, 64, 79
1, 372192, Control_c, 0, 64, 77
1, 372207, Control_c, 0, 64, 74
1, 372211, Note_off_c, 0, 58, 62
1, 372222, Control_c, 0, 64, 66
1, 372244, Control_c, 0, 64, 0
1, 372252, Note_off_c, 0, 76, 59
1, 372255, Note_on_c, 0, 56, 48
1, 372259, Note_on_c, 0, 77, 58
1, 372305, Control_c, 0, 64, 49
1, 372318, Control_c, 0, 64, 64
1, 372333, Control_c, 0, 64, 69
1, 372345, Note_off_c, 0, 56, 54
1, 372348, Control_c, 0, 64, 74
1, 372353, Note_on_c, 0, 61, 50
1, 372363, Control_c, 0, 64, 78
1, 372378, Control_c, 0, 64, 80
1, 372392, Control_c, 0, 64, 81
1, 372414, Note_on_c, 0, 65, 56
1, 372417, Note_off_c, 0, 61, 61
1, 372437, Control_c, 0, 64, 82
1, 372452, Control_c, 0, 64, 82
1, 372484, Note_off_c, 0, 65, 62
1, 372486, Note_off_c, 0, 77, 35
1, 372489, Note_on_c, 0, 68, 57
1, 372535, Note_on_c, 0, 80, 80
1, 372561, Note_off_c, 0, 68, 59
1, 372613, Poly_aftertouch_c, 0, 65, 127
1, 372627, Note_on_c, 0, 61, 54
1, 372645, Poly_aftertouch_c, 0, 65, 0
1, 372651, Note_on_c, 0, 68, 78
1, 372670, Note_off_c, 0, 61, 55
1, 372677, Note_off_c, 0, 80, 54
1, 372807, Control_c, 0, 64, 80
1, 372822, Control_c, 0, 64, 75
1, 372833, Note_on_c, 0, 54, 45
1, 372836, Control_c, 0, 64, 62
1, 372851, Control_c, 0, 64, 0
1, 372882, Note_on_c, 0, 80, 58
1, 372911, Control_c, 0, 64, 55
1, 372926, Control_c, 0, 64, 64
1, 372932, Note_off_c, 0, 54, 53
1, 372941, Control_c, 0, 64, 67
1, 372941, Note_on_c, 0, 56, 43
1, 372955, Control_c, 0, 64, 70
1, 372970, Control_c, 0, 64, 75
1, 372987, Note_off_c, 0, 68, 61
1, 372992, Control_c, 0, 64, 78
1, 373001, Note_off_c, 0, 56, 56
1, 373007, Control_c, 0, 64, 79
1, 373010, Note_on_c, 0, 60, 54
1, 373022, Control_c, 0, 64, 80
1, 373036, Control_c, 0, 64, 80
1, 373047, Note_off_c, 0, 80, 61
1, 373051, Control_c, 0, 64, 81
1, 373067, Control_c, 0, 64, 82
1, 373071, Note_off_c, 0, 60, 55
1, 373082, Control_c, 0, 64, 83
1, 373097, Control_c, 0, 64, 84
1, 373099, Note_on_c, 0, 63, 54
1, 373127, Control_c, 0, 64, 85
1, 373141, Control_c, 0, 64, 86
1, 373156, Control_c, 0, 64, 87
1, 373159, Note_off_c, 0, 63, 51
1, 373171, Note_on_c, 0, 72, 80
1, 373171, Control_c, 0, 64, 88
1, 373186, Control_c, 0, 64, 89
1, 373194, Note_on_c, 0, 60, 28
1, 373201, Control_c, 0, 64, 89
1, 373215, Control_c, 0, 64, 91
1, 373230, Control_c, 0, 64, 91
1, 373242, Note_off_c, 0, 60, 55
1, 373245, Control_c, 0, 64, 92
1, 373260, Control_c, 0, 64, 93
1, 373274, Control_c, 0, 64, 93
1, 373289, Control_c, 0, 64, 94
1, 373290, Note_on_c, 0, 56, 40
1, 373304, Control_c, 0, 64, 95
1, 373319, Control_c, 0, 64, 96
1, 373334, Control_c, 0, 64, 96
1, 373349, Control_c, 0, 64, 97
1, 373364, Control_c, 0, 64, 97
1, 373379, Control_c, 0, 64, 98
1, 373394, Control_c, 0, 64, 98
1, 373408, Control_c, 0, 64, 99
1, 373417, Note_off_c, 0, 56, 52
1, 373438, Control_c, 0, 64, 99
1, 373438, Note_on_c, 0, 54, 50
1, 373441, Note_on_c, 0, 84, 63
1, 373452, Control_c, 0, 64, 100
1, 373482, Control_c, 0, 64, 100
1, 373497, Control_c, 0, 64, 101
1, 373534, Note_off_c, 0, 72, 64
1, 373549, Note_off_c, 0, 84, 59
1, 373556, Control_c, 0, 64, 101
1, 373570, Note_on_c, 0, 56, 42
1, 373574, Note_off_c, 0, 54, 37
1, 373610, Note_off_c, 0, 56, 49
1, 373615, Control_c, 0, 64, 102
1, 373618, Note_on_c, 0, 60, 50
1, 373656, Note_on_c, 0, 82, 77
1, 373661, Note_on_c, 0, 70, 69
1, 373703, Note_on_c, 0, 63, 54
1, 373704, Control_c, 0, 64, 102
1, 373764, Note_off_c, 0, 82, 59
1, 373781, Note_off_c, 0, 70, 61
1, 373797, Note_off_c, 0, 63, 58
1, 373861, Note_on_c, 0, 56, 44
1, 373877, Control_c, 0, 64, 102
1, 373890, Note_off_c, 0, 60, 41
1, 373895, Note_on_c, 0, 80, 68
1, 373904, Note_on_c, 0, 68, 64
1, 373921, Note_off_c, 0, 80, 67
1, 373925, Note_off_c, 0, 68, 63
1, 373936, Control_c, 0, 64, 100
1, 373951, Control_c, 0, 64, 95
1, 373965, Control_c, 0, 64, 84
1, 373980, Control_c, 0, 64, 66
1, 373983, Note_off_c, 0, 56, 50
1, 373992, Note_on_c, 0, 53, 46
1, 373995, Control_c, 0, 64, 0
1, 373998, Note_on_c, 0, 80, 74
1, 373999, Note_on_c, 0, 68, 73
1, 374025, Control_c, 0, 64, 33
1, 374039, Control_c, 0, 64, 59
1, 374054, Control_c, 0, 64, 64
1, 374069, Control_c, 0, 64, 67
1, 374083, Control_c, 0, 64, 72
1, 374085, Note_off_c, 0, 53, 57
1, 374098, Control_c, 0, 64, 77
1, 374101, Note_on_c, 0, 56, 57
1, 374113, Control_c, 0, 64, 81
1, 374128, Control_c, 0, 64, 83
1, 374142, Note_off_c, 0, 56, 59
1, 374143, Control_c, 0, 64, 83
1, 374148, Note_on_c, 0, 61, 64
1, 374168, Note_off_c, 0, 68, 60
1, 374172, Control_c, 0, 64, 84
1, 374187, Control_c, 0, 64, 85
1, 374201, Control_c, 0, 64, 85
1, 374207, Note_off_c, 0, 61, 61
1, 374216, Control_c, 0, 64, 86
1, 374223, Note_on_c, 0, 65, 60
1, 374246, Control_c, 0, 64, 86
1, 374261, Control_c, 0, 64, 87
1, 374263, Note_off_c, 0, 65, 57
1, 374274, Note_on_c, 0, 61, 50
1, 374276, Control_c, 0, 64, 87
1, 374291, Control_c, 0, 64, 88
1, 374306, Control_c, 0, 64, 88
1, 374321, Control_c, 0, 64, 89
1, 374333, Note_on_c, 0, 56, 62
1, 374336, Control_c, 0, 64, 89
1, 374338, Note_off_c, 0, 61, 62
1, 374350, Control_c, 0, 64, 90
1, 374365, Control_c, 0, 64, 91
1, 374395, Control_c, 0, 64, 91
1, 374409, Control_c, 0, 64, 92
1, 374416, Note_off_c, 0, 56, 63
1, 374424, Control_c, 0, 64, 92
1, 374434, Note_on_c, 0, 85, 87
1, 374435, Note_on_c, 0, 73, 85
1, 374439, Control_c, 0, 64, 93
1, 374444, Note_on_c, 0, 53, 48
1, 374454, Control_c, 0, 64, 93
1, 374469, Control_c, 0, 64, 94
1, 374491, Control_c, 0, 64, 95
1, 374497, Note_off_c, 0, 53, 65
1, 374506, Control_c, 0, 64, 95
1, 374511, Note_on_c, 0, 56, 58
1, 374520, Control_c, 0, 64, 96
1, 374535, Control_c, 0, 64, 96
1, 374550, Control_c, 0, 64, 97
1, 374565, Control_c, 0, 64, 97
1, 374586, Note_off_c, 0, 56, 61
1, 374594, Note_on_c, 0, 61, 57
1, 374609, Control_c, 0, 64, 98
1, 374634, Note_off_c, 0, 61, 63
1, 374639, Control_c, 0, 64, 98
1, 374655, Note_off_c, 0, 85, 56
1, 374665, Note_on_c, 0, 68, 63
1, 374688, Note_off_c, 0, 73, 55
1, 374696, Note_off_c, 0, 80, 63
1, 374714, Control_c, 0, 64, 99
1, 374732, Note_off_c, 0, 68, 63
1, 374741, Note_on_c, 0, 61, 67
1, 374802, Note_on_c, 0, 56, 59
1, 374802, Note_off_c, 0, 61, 61
1, 374872, Note_off_c, 0, 56, 62
1, 374877, Control_c, 0, 64, 98
1, 374887, Note_on_c, 0, 51, 64
1, 374892, Control_c, 0, 64, 94
1, 374906, Control_c, 0, 64, 82
1, 374911, Note_on_c, 0, 85, 87
1, 374914, Note_on_c, 0, 73, 96
1, 374915, Note_on_c, 0, 80, 74
1, 374921, Control_c, 0, 64, 64
1, 374927, Note_on_c, 0, 78, 70
1, 374936, Control_c, 0, 64, 0
1, 374955, Note_off_c, 0, 51, 63
1, 374971, Note_on_c, 0, 56, 56
1, 374980, Control_c, 0, 64, 61
1, 374995, Control_c, 0, 64, 67
1, 375010, Control_c, 0, 64, 72
1, 375024, Control_c, 0, 64, 80
1, 375030, Note_off_c, 0, 80, 57
1, 375036, Note_off_c, 0, 78, 57
1, 375039, Control_c, 0, 64, 84
1, 375044, Note_off_c, 0, 85, 61
1, 375045, Note_off_c, 0, 56, 63
1, 375045, Note_off_c, 0, 73, 57
1, 375051, Note_on_c, 0, 60, 53
1, 375054, Control_c, 0, 64, 85
1, 375099, Note_off_c, 0, 60, 56
1, 375128, Note_on_c, 0, 66, 59
1, 375137, Note_on_c, 0, 72, 74
1, 375149, Note_on_c, 0, 84, 65
1, 375161, Note_off_c, 0, 72, 70
1, 375165, Note_off_c, 0, 84, 66
1, 375174, Note_off_c, 0, 66, 62
1, 375215, Note_on_c, 0, 72, 90
1, 375228, Note_on_c, 0, 78, 82
1, 375228, Note_on_c, 0, 80, 84
1, 375230, Note_on_c, 0, 84, 80
1, 375234, Note_on_c, 0, 60, 29
1, 375254, Control_c, 0, 64, 85
1, 375258, Note_on_c, 0, 56, 57
1, 375263, Note_off_c, 0, 60, 46
1, 375300, Note_off_c, 0, 84, 59
1, 375303, Note_off_c, 0, 72, 60
1, 375313, Control_c, 0, 64, 86
1, 375319, Note_off_c, 0, 80, 57
1, 375327, Note_off_c, 0, 78, 54
1, 375355, Note_off_c, 0, 56, 54
1, 375392, Note_on_c, 0, 78, 73
1, 375393, Note_on_c, 0, 80, 83
1, 375397, Note_on_c, 0, 72, 88
1, 375399, Note_on_c, 0, 51, 55
1, 375417, Note_on_c, 0, 84, 59
1, 375432, Control_c, 0, 64, 86
1, 375434, Note_off_c, 0, 84, 63
1, 375447, Control_c, 0, 64, 87
1, 375459, Note_off_c, 0, 72, 62
1, 375462, Control_c, 0, 64, 88
1, 375471, Note_off_c, 0, 51, 61
1, 375477, Control_c, 0, 64, 89
1, 375487, Note_on_c, 0, 56, 55
1, 375487, Note_off_c, 0, 80, 63
1, 375488, Note_off_c, 0, 78, 62
1, 375492, Control_c, 0, 64, 90
1, 375507, Control_c, 0, 64, 90
1, 375537, Control_c, 0, 64, 91
1, 375558, Note_off_c, 0, 56, 63
1, 375567, Control_c, 0, 64, 91
1, 375579, Note_on_c, 0, 60, 49
1, 375582, Control_c, 0, 64, 92
1, 375601, Note_on_c, 0, 70, 83
1, 375602, Note_on_c, 0, 82, 72
1, 375611, Control_c, 0, 64, 92
1, 375617, Note_off_c, 0, 82, 69
1, 375617, Note_off_c, 0, 70, 68
1, 375626, Control_c, 0, 64, 93
1, 375634, Note_on_c, 0, 66, 73
1, 375635, Note_off_c, 0, 60, 57
1, 375666, Note_on_c, 0, 68, 91
1, 375667, Note_on_c, 0, 80, 84
1, 375692, Note_off_c, 0, 66, 65
1, 375704, Note_off_c, 0, 68, 65
1, 375710, Note_on_c, 0, 60, 41
1, 375728, Note_off_c, 0, 80, 64
1, 375746, Note_off_c, 0, 60, 63
1, 375760, Note_on_c, 0, 56, 59
1, 375853, Note_off_c, 0, 56, 56
1, 375862, Control_c, 0, 64, 92
1, 375877, Control_c, 0, 64, 89
1, 375888, Note_on_c, 0, 50, 55
1, 375889, Note_on_c, 0, 80, 91
1, 375892, Control_c, 0, 64, 75
1, 375895, Note_on_c, 0, 77, 91
1, 375895, Note_on_c, 0, 89, 90
1, 375907, Control_c, 0, 64, 25
1, 375922, Control_c, 0, 64, 0
1, 375960, Note_off_c, 0, 50, 63
1, 375966, Control_c, 0, 64, 39
1, 375980, Note_on_c, 0, 56, 59
1, 375988, Control_c, 0, 64, 65
1, 376003, Control_c, 0, 64, 72
1, 376018, Control_c, 0, 64, 80
1, 376031, Note_on_c, 0, 59, 62
1, 376033, Control_c, 0, 64, 88
1, 376048, Note_off_c, 0, 56, 63
1, 376048, Control_c, 0, 64, 92
1, 376056, Note_off_c, 0, 77, 58
1, 376062, Control_c, 0, 64, 93
1, 376076, Control_c, 0, 64, 94
1, 376088, Note_off_c, 0, 59, 58
1, 376091, Control_c, 0, 64, 97
1, 376098, Note_off_c, 0, 80, 61
1, 376102, Note_off_c, 0, 89, 53
1, 376104, Note_on_c, 0, 65, 68
1, 376106, Control_c, 0, 64, 100
1, 376121, Control_c, 0, 64, 103
1, 376136, Control_c, 0, 64, 105
1, 376151, Control_c, 0, 64, 106
1, 376168, Note_off_c, 0, 65, 64
1, 376175, Note_on_c, 0, 59, 55
1, 376232, Note_on_c, 0, 56, 71
1, 376233, Note_off_c, 0, 59, 61
1, 376312, Note_off_c, 0, 56, 63
1, 376315, Control_c, 0, 64, 102
1, 376325, Note_on_c, 0, 50, 67
1, 376330, Control_c, 0, 64, 92
1, 376338, Note_on_c, 0, 80, 82
1, 376343, Note_on_c, 0, 89, 84
1, 376344, Note_on_c, 0, 77, 90
1, 376345, Control_c, 0, 64, 76
1, 376359, Control_c, 0, 64, 27
1, 376374, Control_c, 0, 64, 0
1, 376404, Control_c, 0, 64, 55
1, 376407, Note_off_c, 0, 50, 63
1, 376413, Note_on_c, 0, 56, 70
1, 376419, Control_c, 0, 64, 65
1, 376433, Control_c, 0, 64, 71
1, 376448, Control_c, 0, 64, 79
1, 376463, Control_c, 0, 64, 89
1, 376473, Note_on_c, 0, 58, 77
1, 376477, Control_c, 0, 64, 93
1, 376492, Control_c, 0, 64, 94
1, 376497, Note_off_c, 0, 56, 64
1, 376507, Control_c, 0, 64, 95
1, 376520, Note_off_c, 0, 77, 56
1, 376522, Control_c, 0, 64, 96
1, 376531, Note_off_c, 0, 89, 58
1, 376537, Control_c, 0, 64, 97
1, 376543, Note_off_c, 0, 80, 61
1, 376544, Note_on_c, 0, 65, 74
1, 376545, Note_off_c, 0, 58, 63
1, 376551, Control_c, 0, 64, 99
1, 376566, Control_c, 0, 64, 102
1, 376581, Control_c, 0, 64, 103
1, 376595, Control_c, 0, 64, 104
1, 376610, Control_c, 0, 64, 104
1, 376624, Note_on_c, 0, 77, 95
1, 376625, Control_c, 0, 64, 105
1, 376627, Note_on_c, 0, 80, 96
1, 376628, Note_on_c, 0, 89, 90
1, 376643, Note_off_c, 0, 65, 62
1, 376651, Note_on_c, 0, 58, 72
1, 376655, Control_c, 0, 64, 105
1, 376736, Note_on_c, 0, 56, 61
1, 376736, Note_off_c, 0, 77, 54
1, 376741, Note_off_c, 0, 89, 57
1, 376744, Note_off_c, 0, 58, 62
1, 376745, Note_off_c, 0, 80, 56
1, 376781, Control_c, 0, 64, 105
1, 376866, Note_off_c, 0, 56, 61
1, 376871, Control_c, 0, 64, 104
1, 376885, Control_c, 0, 64, 100
1, 376900, Control_c, 0, 64, 89
1, 376901, Note_on_c, 0, 51, 63
1, 376909, Note_on_c, 0, 80, 89
1, 376910, Note_on_c, 0, 89, 87
1, 376912, Note_on_c, 0, 77, 90
1, 376915, Control_c, 0, 64, 72
1, 376930, Control_c, 0, 64, 0
1, 376974, Control_c, 0, 64, 50
1, 376982, Note_off_c, 0, 51, 62
1, 376989, Control_c, 0, 64, 64
1, 376993, Note_on_c, 0, 54, 60
1, 377004, Control_c, 0, 64, 70
1, 377018, Control_c, 0, 64, 76
1, 377033, Control_c, 0, 64, 84
1, 377043, Note_off_c, 0, 89, 63
1, 377049, Control_c, 0, 64, 86
1, 377058, Note_on_c, 0, 58, 62
1, 377068, Note_off_c, 0, 54, 62
1, 377079, Control_c, 0, 64, 87
1, 377080, Note_off_c, 0, 77, 57
1, 377108, Control_c, 0, 64, 87
1, 377114, Note_off_c, 0, 80, 63
1, 377122, Note_off_c, 0, 58, 64
1, 377144, Note_on_c, 0, 63, 65
1, 377211, Note_off_c, 0, 63, 63
1, 377216, Note_on_c, 0, 58, 54
1, 377259, Note_off_c, 0, 58, 64
1, 377263, Note_on_c, 0, 54, 66
1, 377293, Note_off_c, 0, 54, 64
1, 377331, Control_c, 0, 64, 87
1, 377346, Control_c, 0, 64, 82
1, 377361, Control_c, 0, 64, 71
1, 377375, Control_c, 0, 64, 0
1, 377379, Note_on_c, 0, 42, 65
1, 377398, Note_on_c, 0, 87, 70
1, 377400, Note_on_c, 0, 75, 71
1, 377405, Note_on_c, 0, 78, 69
1, 377415, Note_off_c, 0, 42, 62
1, 377419, Control_c, 0, 64, 53
1, 377434, Control_c, 0, 64, 64
1, 377449, Control_c, 0, 64, 69
1, 377460, Note_on_c, 0, 54, 59
1, 377464, Control_c, 0, 64, 74
1, 377486, Control_c, 0, 64, 81
1, 377490, Note_off_c, 0, 87, 62
1, 377492, Note_off_c, 0, 75, 64
1, 377501, Control_c, 0, 64, 85
1, 377513, Note_off_c, 0, 54, 58
1, 377516, Control_c, 0, 64, 86
1, 377531, Control_c, 0, 64, 87
1, 377546, Control_c, 0, 64, 87
1, 377552, Note_off_c, 0, 78, 0
1, 377560, Control_c, 0, 64, 89
1, 377566, Note_on_c, 0, 78, 50
1, 377573, Note_on_c, 0, 58, 58
1, 377574, Control_c, 0, 64, 90
1, 377577, Note_on_c, 0, 73, 80
1, 377579, Note_on_c, 0, 85, 71
1, 377589, Control_c, 0, 64, 91
1, 377604, Control_c, 0, 64, 91
1, 377618, Note_off_c, 0, 85, 57
1, 377619, Control_c, 0, 64, 92
1, 377624, Note_off_c, 0, 58, 61
1, 377631, Note_off_c, 0, 73, 61
1, 377647, Note_off_c, 0, 78, 59
1, 377648, Control_c, 0, 64, 92
1, 377669, Note_on_c, 0, 63, 64
1, 377730, Note_off_c, 0, 63, 62
1, 377755, Note_on_c, 0, 58, 51
1, 377777, Note_on_c, 0, 78, 68
1, 377780, Note_on_c, 0, 82, 67
1, 377780, Note_off_c, 0, 58, 64
1, 377781, Note_on_c, 0, 70, 67
1, 377806, Note_off_c, 0, 78, 65
1, 377808, Note_off_c, 0, 70, 68
1, 377808, Note_off_c, 0, 82, 66
1, 377841, Control_c, 0, 64, 88
1, 377854, Poly_aftertouch_c, 0, 55, 127
1, 377856, Control_c, 0, 64, 78
1, 377871, Control_c, 0, 64, 61
1, 377884, Note_on_c, 0, 84, 75
1, 377886, Note_on_c, 0, 72, 71
1, 377886, Poly_aftertouch_c, 0, 55, 0
1, 377886, Control_c, 0, 64, 0
1, 377888, Note_on_c, 0, 80, 73
1, 377895, Note_on_c, 0, 46, 38
1, 377925, Note_on_c, 0, 45, 27
1, 377931, Control_c, 0, 64, 56
1, 377944, Note_off_c, 0, 46, 43
1, 377945, Control_c, 0, 64, 66
1, 377960, Control_c, 0, 64, 72
1, 377962, Note_off_c, 0, 45, 44
1, 377975, Control_c, 0, 64, 80
1, 377984, Note_on_c, 0, 53, 65
1, 377990, Control_c, 0, 64, 86
1, 378005, Note_off_c, 0, 84, 58
1, 378005, Control_c, 0, 64, 88
1, 378020, Control_c, 0, 64, 89
1, 378026, Note_off_c, 0, 72, 58
1, 378038, Note_off_c, 0, 80, 61
1, 378055, Note_off_c, 0, 53, 63
1, 378056, Note_on_c, 0, 56, 59
1, 378097, Note_off_c, 0, 56, 61
1, 378115, Note_on_c, 0, 61, 59
1, 378153, Note_off_c, 0, 61, 61
1, 378186, Note_on_c, 0, 56, 49
1, 378208, Note_off_c, 0, 56, 62
1, 378215, Note_on_c, 0, 53, 58
1, 378279, Note_off_c, 0, 53, 59
1, 378279, Control_c, 0, 64, 88
1, 378294, Control_c, 0, 64, 85
1, 378308, Control_c, 0, 64, 74
1, 378310, Note_on_c, 0, 44, 67
1, 378322, Control_c, 0, 64, 44
1, 378331, Note_on_c, 0, 82, 65
1, 378334, Note_on_c, 0, 70, 70
1, 378337, Note_on_c, 0, 78, 61
1, 378337, Control_c, 0, 64, 0
1, 378367, Control_c, 0, 64, 29
1, 378374, Note_off_c, 0, 44, 56
1, 378382, Control_c, 0, 64, 63
1, 378396, Control_c, 0, 64, 69
1, 378398, Note_off_c, 0, 82, 62
1, 378400, Note_on_c, 0, 53, 52
1, 378402, Note_off_c, 0, 70, 62
1, 378411, Note_off_c, 0, 78, 63
1, 378411, Control_c, 0, 64, 74
1, 378426, Control_c, 0, 64, 80
1, 378441, Control_c, 0, 64, 84
1, 378455, Control_c, 0, 64, 84
1, 378466, Note_off_c, 0, 53, 64
1, 378472, Note_on_c, 0, 56, 57
1, 378479, Note_on_c, 0, 68, 79
1, 378481, Note_on_c, 0, 80, 73
1, 378483, Note_on_c, 0, 77, 66
1, 378509, Note_off_c, 0, 56, 62
1, 378530, Note_off_c, 0, 68, 61
1, 378533, Note_off_c, 0, 80, 61
1, 378537, Note_on_c, 0, 61, 57
1, 378558, Note_off_c, 0, 77, 60
1, 378582, Note_off_c, 0, 61, 57
1, 378607, Note_on_c, 0, 56, 57
1, 378613, Note_on_c, 0, 77, 61
1, 378614, Note_on_c, 0, 70, 76
1, 378616, Note_on_c, 0, 82, 76
1, 378650, Note_off_c, 0, 56, 60
1, 378654, Note_on_c, 0, 53, 57
1, 378678, Note_off_c, 0, 70, 62
1, 378698, Note_off_c, 0, 82, 61
1, 378726, Note_off_c, 0, 53, 63
1, 378726, Note_off_c, 0, 77, 54
1, 378738, Control_c, 0, 64, 84
1, 378753, Control_c, 0, 64, 78
1, 378761, Note_on_c, 0, 44, 63
1, 378768, Control_c, 0, 64, 66
1, 378783, Note_on_c, 0, 77, 58
1, 378783, Control_c, 0, 64, 0
1, 378784, Note_on_c, 0, 83, 69
1, 378788, Note_on_c, 0, 71, 74
1, 378819, Note_off_c, 0, 44, 59
1, 378827, Control_c, 0, 64, 44
1, 378840, Note_on_c, 0, 53, 60
1, 378842, Control_c, 0, 64, 64
1, 378857, Control_c, 0, 64, 70
1, 378871, Control_c, 0, 64, 76
1, 378874, Note_off_c, 0, 83, 57
1, 378878, Note_off_c, 0, 71, 60
1, 378886, Control_c, 0, 64, 82
1, 378901, Control_c, 0, 64, 84
1, 378911, Note_on_c, 0, 56, 60
1, 378916, Control_c, 0, 64, 85
1, 378922, Note_off_c, 0, 77, 60
1, 378928, Note_off_c, 0, 53, 55
1, 378931, Control_c, 0, 64, 86
1, 378945, Control_c, 0, 64, 87
1, 378960, Control_c, 0, 64, 88
1, 378961, Note_off_c, 0, 56, 57
1, 378983, Control_c, 0, 64, 89
1, 378997, Note_on_c, 0, 62, 57
1, 379039, Note_off_c, 0, 62, 56
1, 379071, Note_on_c, 0, 82, 76
1, 379075, Note_on_c, 0, 70, 76
1, 379080, Note_on_c, 0, 77, 69
1, 379098, Note_on_c, 0, 56, 30
1, 379122, Note_on_c, 0, 53, 64
1, 379141, Note_off_c, 0, 56, 40
1, 379152, Note_off_c, 0, 70, 62
1, 379158, Note_off_c, 0, 82, 63
1, 379175, Control_c, 0, 64, 88
1, 379188, Note_off_c, 0, 77, 54
1, 379190, Control_c, 0, 64, 83
1, 379196, Note_off_c, 0, 53, 62
1, 379204, Control_c, 0, 64, 71
1, 379219, Control_c, 0, 64, 0
1, 379230, Note_on_c, 0, 44, 67
1, 379238, Note_on_c, 0, 77, 70
1, 379240, Note_on_c, 0, 83, 79
1, 379241, Note_on_c, 0, 71, 85
1, 379278, Control_c, 0, 64, 55
1, 379293, Note_on_c, 0, 53, 62
1, 379293, Control_c, 0, 64, 68
1, 379294, Note_off_c, 0, 44, 62
1, 379308, Control_c, 0, 64, 75
1, 379323, Control_c, 0, 64, 82
1, 379338, Control_c, 0, 64, 86
1, 379352, Control_c, 0, 64, 87
1, 379363, Note_on_c, 0, 56, 65
1, 379382, Control_c, 0, 64, 87
1, 379383, Note_off_c, 0, 53, 59
1, 379397, Control_c, 0, 64, 88
1, 379412, Control_c, 0, 64, 89
1, 379417, Note_off_c, 0, 56, 63
1, 379427, Control_c, 0, 64, 89
1, 379441, Note_on_c, 0, 62, 64
1, 379495, Note_off_c, 0, 62, 58
1, 379505, Note_on_c, 0, 56, 56
1, 379564, Note_off_c, 0, 56, 64
1, 379574, Note_on_c, 0, 53, 69
1, 379633, Note_off_c, 0, 53, 62
1, 379654, Note_on_c, 0, 44, 72
1, 379694, Control_c, 0, 64, 90
1, 379704, Note_off_c, 0, 83, 55
1, 379708, Note_off_c, 0, 71, 52
1, 379709, Control_c, 0, 64, 90
1, 379731, Note_on_c, 0, 53, 70
1, 379731, Note_off_c, 0, 44, 60
1, 379731, Control_c, 0, 64, 91
1, 379746, Control_c, 0, 64, 93
1, 379758, Note_off_c, 0, 77, 58
1, 379761, Poly_aftertouch_c, 0, 49, 0
1, 379761, Control_c, 0, 64, 94
1, 379776, Control_c, 0, 64, 95
1, 379791, Control_c, 0, 64, 97
1, 379806, Control_c, 0, 64, 98
1, 379809, Note_on_c, 0, 56, 63
1, 379820, Control_c, 0, 64, 99
1, 379835, Control_c, 0, 64, 100
1, 379839, Note_off_c, 0, 53, 51
1, 379850, Control_c, 0, 64, 101
1, 379865, Control_c, 0, 64, 101
1, 379869, Note_on_c, 0, 62, 60
1, 379880, Control_c, 0, 64, 102
1, 379910, Control_c, 0, 64, 102
1, 379921, Note_off_c, 0, 62, 56
1, 379924, Note_on_c, 0, 70, 83
1, 379925, Note_on_c, 0, 82, 79
1, 379936, Note_on_c, 0, 77, 68
1, 379962, Note_on_c, 0, 53, 54
1, 379980, Note_off_c, 0, 56, 27
1, 379993, Note_off_c, 0, 70, 61
1, 380007, Note_off_c, 0, 82, 62
1, 380014, Control_c, 0, 64, 102
1, 380015, Note_off_c, 0, 77, 56
1, 380044, Note_off_c, 0, 53, 61
1, 380065, Note_on_c, 0, 77, 76
1, 380068, Note_on_c, 0, 71, 90
1, 380074, Note_on_c, 0, 83, 73
1, 380075, Note_on_c, 0, 44, 70
1, 380112, Note_on_c, 0, 80, 30
1, 380117, Control_c, 0, 64, 102
1, 380120, Note_off_c, 0, 71, 63
1, 380122, Note_off_c, 0, 83, 61
1, 380135, Note_off_c, 0, 44, 61
1, 380139, Note_on_c, 0, 53, 67
1, 380147, Note_off_c, 0, 80, 49
1, 380147, Control_c, 0, 64, 103
1, 380151, Note_off_c, 0, 77, 61
1, 380161, Control_c, 0, 64, 105
1, 380176, Control_c, 0, 64, 107
1, 380191, Control_c, 0, 64, 108
1, 380192, Poly_aftertouch_c, 0, 77, 0
1, 380194, Note_on_c, 0, 70, 94
1, 380196, Note_on_c, 0, 77, 70
1, 380206, Control_c, 0, 64, 109
1, 380207, Note_on_c, 0, 82, 73
1, 380220, Control_c, 0, 64, 109
1, 380223, Note_on_c, 0, 56, 50
1, 380261, Note_off_c, 0, 53, 63
1, 380261, Note_off_c, 0, 70, 60
1, 380265, Note_off_c, 0, 82, 62
1, 380275, Note_on_c, 0, 62, 58
1, 380281, Note_off_c, 0, 77, 60
1, 380294, Note_off_c, 0, 56, 49
1, 380319, Note_off_c, 0, 62, 58
1, 380329, Note_on_c, 0, 77, 82
1, 380330, Note_on_c, 0, 71, 94
1, 380339, Note_on_c, 0, 83, 81
1, 380354, Note_on_c, 0, 53, 58
1, 380403, Note_off_c, 0, 53, 63
1, 380403, Note_off_c, 0, 71, 55
1, 380408, Note_off_c, 0, 77, 61
1, 380414, Note_off_c, 0, 83, 57
1, 380481, Control_c, 0, 64, 109
1, 380496, Control_c, 0, 64, 101
1, 380511, Note_on_c, 0, 71, 97
1, 380511, Note_on_c, 0, 83, 91
1, 380511, Control_c, 0, 64, 85
1, 380517, Note_on_c, 0, 78, 97
1, 380519, Note_on_c, 0, 44, 66
1, 380526, Control_c, 0, 64, 64
1, 380541, Control_c, 0, 64, 0
1, 380571, Control_c, 0, 64, 52
1, 380586, Control_c, 0, 64, 66
1, 380587, Note_off_c, 0, 44, 61
1, 380596, Note_on_c, 0, 51, 70
1, 380600, Control_c, 0, 64, 74
1, 380615, Control_c, 0, 64, 84
1, 380616, Note_off_c, 0, 83, 58
1, 380621, Note_off_c, 0, 71, 59
1, 380630, Control_c, 0, 64, 93
1, 380644, Control_c, 0, 64, 96
1, 380658, Note_on_c, 0, 54, 65
1, 380659, Control_c, 0, 64, 97
1, 380663, Note_off_c, 0, 78, 59
1, 380672, Note_off_c, 0, 51, 62
1, 380674, Control_c, 0, 64, 97
1, 380704, Control_c, 0, 64, 98
1, 380714, Note_off_c, 0, 54, 53
1, 380732, Note_on_c, 0, 63, 66
1, 380771, Note_off_c, 0, 63, 55
1, 380778, Note_on_c, 0, 70, 84
1, 380781, Note_on_c, 0, 82, 79
1, 380813, Note_off_c, 0, 70, 60
1, 380818, Note_on_c, 0, 79, 27
1, 380848, Note_off_c, 0, 82, 62
1, 380852, Note_off_c, 0, 79, 31
1, 380864, Note_on_c, 0, 51, 26
1, 380882, Control_c, 0, 64, 97
1, 380888, Poly_aftertouch_c, 0, 54, 0
1, 380901, Note_off_c, 0, 51, 49
1, 380926, Control_c, 0, 64, 97
1, 380941, Control_c, 0, 64, 96
1, 380956, Control_c, 0, 64, 96
1, 380970, Control_c, 0, 64, 95
1, 381000, Control_c, 0, 64, 95
1, 381015, Control_c, 0, 64, 93
1, 381030, Control_c, 0, 64, 85
1, 381031, Note_on_c, 0, 44, 35
1, 381046, Control_c, 0, 64, 69
1, 381061, Control_c, 0, 64, 0
1, 381066, Note_on_c, 0, 73, 53
1, 381073, Note_on_c, 0, 85, 49
1, 381077, Note_on_c, 0, 79, 46
1, 381120, Control_c, 0, 64, 56
1, 381135, Control_c, 0, 64, 67
1, 381142, Note_off_c, 0, 73, 0
1, 381142, Note_on_c, 0, 73, 3
1, 381147, Note_off_c, 0, 44, 57
1, 381149, Control_c, 0, 64, 75
1, 381164, Control_c, 0, 64, 83
1, 381168, Note_on_c, 0, 52, 58
1, 381179, Control_c, 0, 64, 88
1, 381193, Control_c, 0, 64, 88
1, 381208, Control_c, 0, 64, 89
1, 381230, Note_on_c, 0, 55, 49
1, 381232, Note_off_c, 0, 52, 50
1, 381260, Control_c, 0, 64, 89
1, 381275, Note_off_c, 0, 55, 62
1, 381303, Note_on_c, 0, 64, 47
1, 381324, Note_off_c, 0, 79, 35
1, 381328, Note_off_c, 0, 64, 55
1, 381340, Note_off_c, 0, 85, 36
1, 381349, Note_off_c, 0, 73, 40
1, 381381, Note_on_c, 0, 52, 54
1, 381454, Note_off_c, 0, 52, 64
1, 381491, Note_on_c, 0, 44, 54
1, 381546, Note_off_c, 0, 44, 62
1, 381571, Control_c, 0, 64, 90
1, 381580, Note_on_c, 0, 52, 47
1, 381631, Note_off_c, 0, 52, 58
1, 381661, Poly_aftertouch_c, 0, 55, 127
1, 381699, Note_on_c, 0, 64, 40
1, 381709, Poly_aftertouch_c, 0, 55, 0
1, 381727, Note_off_c, 0, 64, 53
1, 381739, Note_on_c, 0, 84, 67
1, 381740, Note_on_c, 0, 72, 67
1, 381744, Note_on_c, 0, 79, 67
1, 381787, Note_off_c, 0, 72, 63
1, 381797, Note_on_c, 0, 52, 49
1, 381797, Note_off_c, 0, 84, 64
1, 381841, Note_off_c, 0, 79, 56
1, 381866, Note_off_c, 0, 52, 63
1, 381887, Note_on_c, 0, 79, 43
1, 381889, Note_on_c, 0, 73, 72
1, 381894, Note_on_c, 0, 85, 68
1, 381898, Control_c, 0, 64, 90
1, 381899, Note_on_c, 0, 44, 51
1, 381913, Control_c, 0, 64, 91
1, 381937, Note_off_c, 0, 44, 55
1, 381953, Note_off_c, 0, 73, 62
1, 381956, Note_off_c, 0, 85, 63
1, 381974, Note_on_c, 0, 52, 44
1, 381982, Note_off_c, 0, 79, 55
1, 382020, Note_on_c, 0, 55, 39
1, 382046, Note_on_c, 0, 79, 57
1, 382051, Note_on_c, 0, 84, 68
1, 382052, Note_on_c, 0, 72, 73
1, 382053, Note_off_c, 0, 52, 60
1, 382083, Note_off_c, 0, 55, 40
1, 382089, Note_off_c, 0, 72, 65
1, 382095, Note_on_c, 0, 64, 53
1, 382096, Note_off_c, 0, 84, 63
1, 382118, Note_off_c, 0, 64, 58
1, 382125, Note_off_c, 0, 79, 57
1, 382166, Note_on_c, 0, 79, 50
1, 382171, Note_on_c, 0, 73, 74
1, 382181, Note_on_c, 0, 85, 67
1, 382184, Poly_aftertouch_c, 0, 55, 127
1, 382187, Note_on_c, 0, 52, 57
1, 382226, Poly_aftertouch_c, 0, 55, 0
1, 382231, Note_off_c, 0, 73, 62
1, 382232, Note_off_c, 0, 85, 61
1, 382244, Note_off_c, 0, 79, 62
1, 382261, Control_c, 0, 64, 90
1, 382265, Note_off_c, 0, 52, 59
1, 382276, Control_c, 0, 64, 85
1, 382290, Control_c, 0, 64, 72
1, 382295, Note_on_c, 0, 44, 61
1, 382305, Control_c, 0, 64, 0
1, 382321, Note_on_c, 0, 73, 71
1, 382321, Note_on_c, 0, 85, 72
1, 382331, Note_on_c, 0, 80, 64
1, 382331, Note_off_c, 0, 44, 58
1, 382350, Control_c, 0, 64, 59
1, 382364, Control_c, 0, 64, 67
1, 382379, Control_c, 0, 64, 75
1, 382384, Note_on_c, 0, 53, 38
1, 382391, Note_off_c, 0, 80, 54
1, 382394, Control_c, 0, 64, 86
1, 382409, Control_c, 0, 64, 91
1, 382420, Note_off_c, 0, 85, 60
1, 382423, Control_c, 0, 64, 92
1, 382425, Note_off_c, 0, 73, 50
1, 382426, Note_off_c, 0, 53, 58
1, 382441, Note_on_c, 0, 56, 48
1, 382470, Note_off_c, 0, 56, 56
1, 382493, Note_on_c, 0, 65, 52
1, 382518, Note_off_c, 0, 65, 57
1, 382558, Note_on_c, 0, 56, 56
1, 382569, Note_on_c, 0, 72, 69
1, 382570, Note_on_c, 0, 84, 68
1, 382581, Note_on_c, 0, 80, 69
1, 382614, Note_off_c, 0, 56, 63
1, 382617, Note_on_c, 0, 53, 51
1, 382626, Note_off_c, 0, 72, 63
1, 382633, Note_off_c, 0, 84, 64
1, 382661, Note_off_c, 0, 53, 63
1, 382665, Note_off_c, 0, 80, 61
1, 382691, Control_c, 0, 64, 88
1, 382706, Control_c, 0, 64, 77
1, 382728, Control_c, 0, 64, 58
1, 382736, Note_on_c, 0, 75, 76
1, 382739, Note_on_c, 0, 87, 72
1, 382741, Note_on_c, 0, 81, 69
1, 382743, Control_c, 0, 64, 0
1, 382745, Note_on_c, 0, 44, 48
1, 382773, Control_c, 0, 64, 62
1, 382788, Control_c, 0, 64, 71
1, 382789, Note_off_c, 0, 44, 61
1, 382798, Note_on_c, 0, 51, 69
1, 382801, Control_c, 0, 64, 81
1, 382816, Control_c, 0, 64, 90
1, 382819, Note_off_c, 0, 75, 61
1, 382829, Note_off_c, 0, 87, 55
1, 382831, Control_c, 0, 64, 94
1, 382846, Control_c, 0, 64, 95
1, 382855, Note_off_c, 0, 81, 55
1, 382858, Note_on_c, 0, 54, 53
1, 382858, Note_off_c, 0, 51, 58
1, 382861, Control_c, 0, 64, 96
1, 382876, Control_c, 0, 64, 96
1, 382891, Control_c, 0, 64, 97
1, 382893, Note_off_c, 0, 54, 61
1, 382906, Control_c, 0, 64, 97
1, 382909, Note_on_c, 0, 60, 66
1, 382920, Control_c, 0, 64, 98
1, 382950, Note_off_c, 0, 60, 57
1, 382995, Note_on_c, 0, 54, 42
1, 383004, Note_on_c, 0, 81, 74
1, 383007, Note_on_c, 0, 51, 61
1, 383008, Note_on_c, 0, 75, 76
1, 383010, Note_on_c, 0, 87, 75
1, 383025, Note_off_c, 0, 54, 51
1, 383074, Note_off_c, 0, 51, 60
1, 383088, Note_off_c, 0, 87, 61
1, 383090, Note_off_c, 0, 75, 59
1, 383093, Note_off_c, 0, 81, 60
1, 383098, Control_c, 0, 64, 96
1, 383112, Control_c, 0, 64, 87
1, 383119, Note_on_c, 0, 44, 61
1, 383127, Control_c, 0, 64, 70
1, 383142, Control_c, 0, 64, 0
1, 383157, Note_on_c, 0, 75, 79
1, 383158, Note_on_c, 0, 87, 76
1, 383165, Note_on_c, 0, 80, 78
1, 383171, Control_c, 0, 64, 50
1, 383186, Control_c, 0, 64, 66
1, 383192, Note_on_c, 0, 47, 68
1, 383201, Control_c, 0, 64, 73
1, 383216, Control_c, 0, 64, 83
1, 383225, Note_off_c, 0, 44, 38
1, 383231, Control_c, 0, 64, 91
1, 383246, Control_c, 0, 64, 93
1, 383272, Note_off_c, 0, 80, 60
1, 383287, Note_on_c, 0, 53, 58
1, 383287, Note_off_c, 0, 75, 53
1, 383290, Note_off_c, 0, 47, 63
1, 383293, Note_off_c, 0, 87, 55
1, 383318, Note_off_c, 0, 53, 67
1, 383325, Note_on_c, 0, 59, 69
1, 383386, Note_off_c, 0, 59, 57
1, 383404, Note_on_c, 0, 53, 67
1, 383421, Note_on_c, 0, 74, 78
1, 383421, Note_on_c, 0, 80, 80
1, 383424, Note_on_c, 0, 86, 81
1, 383490, Note_off_c, 0, 74, 64
1, 383493, Poly_aftertouch_c, 0, 47, 127
1, 383505, Note_off_c, 0, 53, 63
1, 383507, Note_off_c, 0, 86, 63
1, 383516, Note_off_c, 0, 80, 63
1, 383536, Control_c, 0, 64, 90
1, 383541, Poly_aftertouch_c, 0, 47, 0
1, 383551, Control_c, 0, 64, 77
1, 383558, Note_on_c, 0, 44, 77
1, 383566, Control_c, 0, 64, 42
1, 383581, Control_c, 0, 64, 0
1, 383585, Note_on_c, 0, 77, 98
1, 383586, Note_on_c, 0, 89, 96
1, 383590, Note_on_c, 0, 83, 85
1, 383610, Control_c, 0, 64, 56
1, 383621, Note_off_c, 0, 44, 61
1, 383625, Control_c, 0, 64, 67
1, 383638, Note_on_c, 0, 53, 70
1, 383640, Control_c, 0, 64, 76
1, 383655, Control_c, 0, 64, 86
1, 383669, Control_c, 0, 64, 91
1, 383684, Control_c, 0, 64, 92
1, 383687, Note_off_c, 0, 77, 56
1, 383689, Note_off_c, 0, 89, 64
1, 383709, Note_on_c, 0, 56, 55
1, 383711, Note_off_c, 0, 53, 64
1, 383725, Note_off_c, 0, 83, 50
1, 383734, Note_off_c, 0, 56, 63
1, 383743, Control_c, 0, 64, 93
1, 383749, Note_on_c, 0, 62, 68
1, 383781, Note_off_c, 0, 62, 60
1, 383836, Note_on_c, 0, 56, 41
1, 383842, Note_on_c, 0, 83, 77
1, 383844, Note_on_c, 0, 77, 90
1, 383844, Note_on_c, 0, 89, 84
1, 383860, Note_off_c, 0, 56, 57
1, 383875, Note_on_c, 0, 53, 46
1, 383904, Note_on_c, 0, 52, 23
1, 383922, Note_off_c, 0, 83, 60
1, 383924, Note_off_c, 0, 89, 64
1, 383928, Note_off_c, 0, 77, 59
1, 383934, Note_off_c, 0, 53, 54
1, 383944, Note_off_c, 0, 52, 54
1, 383951, Control_c, 0, 64, 91
1, 383966, Control_c, 0, 64, 82
1, 383981, Control_c, 0, 64, 65
1, 383988, Note_on_c, 0, 44, 57
1, 383994, Note_on_c, 0, 77, 94
1, 383995, Control_c, 0, 64, 0
1, 383996, Note_on_c, 0, 89, 91
1, 384002, Note_on_c, 0, 82, 91
1, 384008, Note_on_c, 0, 49, 53
1, 384025, Control_c, 0, 64, 54
1, 384029, Note_off_c, 0, 44, 61
1, 384040, Control_c, 0, 64, 67
1, 384055, Control_c, 0, 64, 76
1, 384069, Control_c, 0, 64, 87
1, 384084, Control_c, 0, 64, 95
1, 384086, Note_off_c, 0, 89, 61
1, 384099, Note_off_c, 0, 77, 59
1, 384099, Control_c, 0, 64, 96
1, 384101, Note_on_c, 0, 55, 57
1, 384158, Control_c, 0, 64, 97
1, 384173, Note_off_c, 0, 82, 33
1, 384179, Note_on_c, 0, 61, 80
1, 384259, Note_off_c, 0, 61, 60
1, 384261, Note_on_c, 0, 88, 80
1, 384265, Note_on_c, 0, 82, 79
1, 384266, Note_on_c, 0, 76, 87
1, 384304, Note_off_c, 0, 49, 35
1, 384312, Note_off_c, 0, 76, 68
1, 384331, Note_off_c, 0, 55, 38
1, 384334, Note_off_c, 0, 88, 63
1, 384336, Note_off_c, 0, 82, 62
1, 384360, Control_c, 0, 64, 94
1, 384374, Control_c, 0, 64, 83
1, 384389, Control_c, 0, 64, 64
1, 384391, Note_on_c, 0, 44, 66
1, 384399, Note_on_c, 0, 91, 94
1, 384400, Note_on_c, 0, 79, 96
1, 384404, Control_c, 0, 64, 0
1, 384408, Note_on_c, 0, 85, 94
1, 384433, Control_c, 0, 64, 62
1, 384436, Note_off_c, 0, 44, 65
1, 384448, Control_c, 0, 64, 71
1, 384460, Note_on_c, 0, 52, 71
1, 384463, Control_c, 0, 64, 82
1, 384478, Control_c, 0, 64, 95
1, 384492, Control_c, 0, 64, 103
1, 384494, Note_off_c, 0, 79, 58
1, 384502, Note_off_c, 0, 91, 57
1, 384507, Control_c, 0, 64, 104
1, 384513, Note_off_c, 0, 85, 59
1, 384537, Control_c, 0, 64, 105
1, 384541, Note_off_c, 0, 52, 60
1, 384542, Note_on_c, 0, 58, 65
1, 384552, Control_c, 0, 64, 105
1, 384566, Control_c, 0, 64, 106
1, 384602, Note_on_c, 0, 64, 64
1, 384648, Note_off_c, 0, 64, 60
1, 384658, Note_on_c, 0, 85, 87
1, 384664, Note_on_c, 0, 79, 88
1, 384669, Note_on_c, 0, 91, 84
1, 384695, Note_off_c, 0, 58, 63
1, 384697, Note_on_c, 0, 52, 68
1, 384748, Note_off_c, 0, 91, 59
1, 384751, Note_off_c, 0, 79, 60
1, 384765, Note_off_c, 0, 52, 64
1, 384770, Note_off_c, 0, 85, 65
1, 384789, Control_c, 0, 64, 99
1, 384804, Control_c, 0, 64, 82
1, 384818, Note_on_c, 0, 84, 95
1, 384818, Control_c, 0, 64, 53
1, 384819, Note_on_c, 0, 79, 93
1, 384820, Note_on_c, 0, 44, 71
1, 384822, Note_on_c, 0, 91, 92
1, 384833, Control_c, 0, 64, 0
1, 384863, Control_c, 0, 64, 64
1, 384872, Note_off_c, 0, 44, 61
1, 384878, Control_c, 0, 64, 76
1, 384880, Note_on_c, 0, 51, 75
1, 384892, Control_c, 0, 64, 91
1, 384906, Note_off_c, 0, 79, 63
1, 384907, Control_c, 0, 64, 106
1, 384910, Note_off_c, 0, 91, 60
1, 384922, Control_c, 0, 64, 113
1, 384936, Control_c, 0, 64, 114
1, 384945, Note_off_c, 0, 51, 62
1, 384947, Note_on_c, 0, 54, 65
1, 384951, Control_c, 0, 64, 117
1, 384953, Note_off_c, 0, 84, 49
1, 384974, Control_c, 0, 64, 123
1, 384989, Control_c, 0, 64, 127
1, 384998, Note_off_c, 0, 54, 62
1, 385017, Note_on_c, 0, 63, 78
1, 385082, Note_on_c, 0, 80, 97
1, 385091, Note_on_c, 0, 92, 87
1, 385092, Note_on_c, 0, 84, 73
1, 385094, Note_off_c, 0, 63, 62
1, 385104, Note_on_c, 0, 90, 76
1, 385118, Note_off_c, 0, 90, 67
1, 385119, Note_on_c, 0, 54, 67
1, 385159, Note_on_c, 0, 51, 65
1, 385165, Note_off_c, 0, 54, 58
1, 385172, Note_off_c, 0, 80, 59
1, 385175, Note_off_c, 0, 92, 66
1, 385237, Note_off_c, 0, 51, 61
1, 385241, Control_c, 0, 64, 114
1, 385256, Control_c, 0, 64, 89
1, 385259, Note_on_c, 0, 44, 78
1, 385263, Note_on_c, 0, 93, 103
1, 385264, Note_on_c, 0, 81, 104
1, 385271, Control_c, 0, 64, 56
1, 385286, Control_c, 0, 64, 0
1, 385301, Control_c, 0, 64, 53
1, 385315, Control_c, 0, 64, 69
1, 385316, Note_off_c, 0, 93, 63
1, 385329, Note_off_c, 0, 44, 62
1, 385330, Control_c, 0, 64, 81
1, 385335, Note_off_c, 0, 81, 65
1, 385337, Note_on_c, 0, 51, 72
1, 385343, Note_off_c, 0, 84, 60
1, 385345, Control_c, 0, 64, 97
1, 385359, Control_c, 0, 64, 111
1, 385374, Control_c, 0, 64, 112
1, 385405, Note_on_c, 0, 54, 62
1, 385423, Note_off_c, 0, 51, 61
1, 385457, Note_off_c, 0, 54, 60
1, 385464, Note_on_c, 0, 60, 67
1, 385538, Note_on_c, 0, 84, 82
1, 385539, Note_on_c, 0, 72, 90
1, 385539, Note_off_c, 0, 60, 58
1, 385540, Note_on_c, 0, 78, 91
1, 385568, Note_on_c, 0, 54, 51
1, 385583, Note_off_c, 0, 72, 64
1, 385585, Note_off_c, 0, 84, 63
1, 385586, Note_on_c, 0, 51, 69
1, 385592, Note_off_c, 0, 54, 61
1, 385612, Note_off_c, 0, 78, 62
1, 385641, Note_off_c, 0, 51, 62
1, 385701, Control_c, 0, 64, 105
1, 385723, Control_c, 0, 64, 85
1, 385731, Note_on_c, 0, 37, 88
1, 385731, Note_on_c, 0, 73, 102
1, 385732, Note_on_c, 0, 77, 89
1, 385738, Control_c, 0, 64, 44
1, 385741, Note_on_c, 0, 85, 92
1, 385752, Control_c, 0, 64, 0
1, 385771, Note_off_c, 0, 37, 58
1, 385782, Control_c, 0, 64, 38
1, 385797, Control_c, 0, 64, 67
1, 385807, Note_off_c, 0, 85, 65
1, 385812, Note_off_c, 0, 73, 62
1, 385812, Control_c, 0, 64, 79
1, 385827, Control_c, 0, 64, 93
1, 385836, Note_off_c, 0, 77, 63
1, 385842, Control_c, 0, 64, 105
1, 385857, Control_c, 0, 64, 106
1, 385872, Control_c, 0, 64, 107
1, 385902, Control_c, 0, 64, 107
1, 385946, Control_c, 0, 64, 108
1, 385990, Control_c, 0, 64, 108
1, 386009, Note_on_c, 0, 44, 61
1, 386062, Note_on_c, 0, 53, 66
1, 386084, Note_off_c, 0, 44, 60
1, 386138, Control_c, 0, 64, 109
1, 386145, Note_on_c, 0, 65, 78
1, 386160, Note_on_c, 0, 61, 80
1, 386161, Note_off_c, 0, 53, 63
1, 386168, Control_c, 0, 64, 109
1, 386183, Control_c, 0, 64, 110
1, 386197, Control_c, 0, 64, 111
1, 386200, Note_off_c, 0, 65, 67
1, 386208, Note_off_c, 0, 61, 55
1, 386212, Control_c, 0, 64, 112
1, 386217, Note_on_c, 0, 73, 73
1, 386227, Control_c, 0, 64, 114
1, 386242, Control_c, 0, 64, 117
1, 386256, Control_c, 0, 64, 121
1, 386262, Note_on_c, 0, 80, 71
1, 386271, Control_c, 0, 64, 126
1, 386278, Note_off_c, 0, 73, 63
1, 386279, Note_off_c, 0, 80, 41
1, 386286, Control_c, 0, 64, 127
1, 386346, Note_on_c, 0, 77, 82
1, 386386, Note_off_c, 0, 77, 60
1, 386396, Note_on_c, 0, 85, 75
1, 386473, Note_on_c, 0, 94, 85
1, 386480, Note_off_c, 0, 85, 65
1, 386516, Control_c, 0, 64, 119
1, 386531, Control_c, 0, 64, 87
1, 386542, Note_on_c, 0, 32, 76
1, 386545, Control_c, 0, 64, 46
1, 386546, Note_on_c, 0, 92, 103
1, 386548, Note_on_c, 0, 84, 90
1, 386560, Control_c, 0, 64, 0
1, 386577, Note_off_c, 0, 94, 66
1, 386590, Control_c, 0, 64, 63
1, 386597, Note_off_c, 0, 84, 66
1, 386605, Control_c, 0, 64, 76
1, 386607, Note_off_c, 0, 32, 63
1, 386614, Note_off_c, 0, 92, 63
1, 386620, Control_c, 0, 64, 95
1, 386635, Control_c, 0, 64, 127
1, 386846, Note_on_c, 0, 44, 53
1, 386898, Note_on_c, 0, 51, 67
1, 386936, Note_off_c, 0, 44, 62
1, 386968, Note_on_c, 0, 66, 81
1, 386976, Note_on_c, 0, 60, 77
1, 387004, Note_off_c, 0, 60, 63
1, 387024, Note_off_c, 0, 51, 37
1, 387040, Note_on_c, 0, 72, 73
1, 387070, Note_off_c, 0, 66, 66
1, 387100, Note_on_c, 0, 80, 80
1, 387110, Note_off_c, 0, 72, 65
1, 387121, Note_off_c, 0, 80, 68
1, 387188, Note_on_c, 0, 78, 79
1, 387260, Note_on_c, 0, 83, 57
1, 387294, Note_off_c, 0, 78, 57
1, 387316, Note_on_c, 0, 91, 80
1, 387334, Note_off_c, 0, 83, 62
1, 387368, Control_c, 0, 64, 91
1, 387376, Note_on_c, 0, 37, 81
1, 387383, Control_c, 0, 64, 63
1, 387390, Note_off_c, 0, 91, 0
1, 387394, Note_on_c, 0, 89, 89
1, 387398, Control_c, 0, 64, 0
1, 387400, Note_on_c, 0, 91, 45
1, 387402, Note_on_c, 0, 85, 93
1, 387421, Note_off_c, 0, 91, 59
1, 387437, Note_off_c, 0, 37, 64
1, 387443, Control_c, 0, 64, 65
1, 387458, Control_c, 0, 64, 79
1, 387472, Note_off_c, 0, 89, 65
1, 387473, Control_c, 0, 64, 100
1, 387477, Note_off_c, 0, 85, 64
1, 387488, Control_c, 0, 64, 118
1, 387503, Control_c, 0, 64, 119
1, 387517, Control_c, 0, 64, 120
1, 387532, Control_c, 0, 64, 120
1, 387547, Control_c, 0, 64, 121
1, 387562, Control_c, 0, 64, 123
1, 387607, Control_c, 0, 64, 123
1, 387669, Note_on_c, 0, 44, 59
1, 387711, Note_on_c, 0, 53, 65
1, 387738, Note_off_c, 0, 44, 63
1, 387797, Note_on_c, 0, 65, 80
1, 387803, Note_on_c, 0, 61, 80
1, 387834, Note_off_c, 0, 61, 57
1, 387850, Note_off_c, 0, 65, 67
1, 387858, Note_off_c, 0, 53, 32
1, 387858, Control_c, 0, 64, 124
1, 387870, Note_on_c, 0, 72, 59
1, 387873, Control_c, 0, 64, 126
1, 387888, Control_c, 0, 64, 127
1, 387902, Note_off_c, 0, 72, 67
1, 387907, Note_on_c, 0, 80, 82
1, 387946, Note_off_c, 0, 80, 62
1, 388006, Note_on_c, 0, 77, 78
1, 388039, Note_off_c, 0, 77, 61
1, 388059, Note_on_c, 0, 85, 73
1, 388134, Note_off_c, 0, 85, 63
1, 388136, Note_on_c, 0, 94, 80
1, 388175, Note_on_c, 0, 32, 79
1, 388176, Control_c, 0, 64, 95
1, 388191, Control_c, 0, 64, 67
1, 388201, Note_on_c, 0, 84, 92
1, 388201, Note_on_c, 0, 92, 97
1, 388206, Control_c, 0, 64, 0
1, 388233, Note_off_c, 0, 94, 66
1, 388237, Control_c, 0, 64, 65
1, 388241, Note_off_c, 0, 32, 63
1, 388252, Control_c, 0, 64, 75
1, 388265, Note_off_c, 0, 84, 63
1, 388266, Control_c, 0, 64, 92
1, 388271, Note_off_c, 0, 92, 62
1, 388281, Control_c, 0, 64, 116
1, 388296, Control_c, 0, 64, 127
1, 388468, Note_on_c, 0, 44, 53
1, 388520, Note_on_c, 0, 51, 66
1, 388559, Note_off_c, 0, 44, 63
1, 388590, Note_off_c, 0, 51, 61
1, 388595, Note_on_c, 0, 66, 88
1, 388600, Note_on_c, 0, 60, 74
1, 388626, Note_off_c, 0, 60, 65
1, 388670, Note_off_c, 0, 66, 67
1, 388674, Note_on_c, 0, 72, 70
1, 388722, Note_on_c, 0, 80, 80
1, 388733, Note_off_c, 0, 72, 64
1, 388760, Note_off_c, 0, 80, 64
1, 388806, Note_on_c, 0, 78, 73
1, 388862, Note_on_c, 0, 84, 68
1, 388879, Note_off_c, 0, 78, 63
1, 388903, Note_on_c, 0, 92, 82
1, 388922, Note_off_c, 0, 84, 64
1, 388942, Note_off_c, 0, 92, 67
1, 388990, Note_on_c, 0, 85, 89
1, 388994, Note_on_c, 0, 33, 76
1, 388994, Note_on_c, 0, 45, 90
1, 388999, Control_c, 0, 64, 96
1, 389014, Control_c, 0, 64, 71
1, 389028, Note_on_c, 0, 97, 92
1, 389030, Control_c, 0, 64, 51
1, 389032, Note_off_c, 0, 33, 65
1, 389032, Note_off_c, 0, 45, 67
1, 389040, Note_off_c, 0, 85, 67
1, 389045, Control_c, 0, 64, 67
1, 389060, Control_c, 0, 64, 80
1, 389075, Control_c, 0, 64, 99
1, 389089, Control_c, 0, 64, 127
1, 389118, Note_off_c, 0, 97, 64
1, 389142, Note_on_c, 0, 51, 92
1, 389152, Note_on_c, 0, 39, 71
1, 389157, Note_on_c, 0, 95, 83
1, 389173, Note_off_c, 0, 51, 58
1, 389181, Note_off_c, 0, 39, 60
1, 389231, Note_on_c, 0, 93, 79
1, 389257, Note_off_c, 0, 95, 61
1, 389286, Note_off_c, 0, 93, 62
1, 389288, Note_on_c, 0, 52, 88
1, 389297, Note_on_c, 0, 88, 80
1, 389301, Note_on_c, 0, 40, 68
1, 389331, Note_off_c, 0, 40, 64
1, 389331, Note_off_c, 0, 52, 63
1, 389344, Note_off_c, 0, 88, 61
1, 389386, Control_c, 0, 64, 124
1, 389392, Note_on_c, 0, 85, 80
1, 389400, Control_c, 0, 64, 87
1, 389406, Note_on_c, 0, 40, 81
1, 389407, Note_on_c, 0, 52, 99
1, 389415, Control_c, 0, 64, 54
1, 389430, Control_c, 0, 64, 0
1, 389445, Control_c, 0, 64, 53
1, 389460, Note_on_c, 0, 83, 66
1, 389464, Note_off_c, 0, 52, 64
1, 389464, Note_off_c, 0, 85, 66
1, 389467, Control_c, 0, 64, 72
1, 389482, Control_c, 0, 64, 89
1, 389490, Note_off_c, 0, 40, 63
1, 389496, Control_c, 0, 64, 112
1, 389508, Note_on_c, 0, 81, 79
1, 389511, Control_c, 0, 64, 127
1, 389520, Note_off_c, 0, 83, 62
1, 389556, Note_off_c, 0, 81, 60
1, 389571, Note_on_c, 0, 76, 80
1, 389618, Note_off_c, 0, 76, 62
1, 389650, Note_on_c, 0, 73, 75
1, 389695, Note_off_c, 0, 73, 64
1, 389706, Note_on_c, 0, 71, 73
1, 389750, Note_on_c, 0, 69, 70
1, 389761, Note_off_c, 0, 71, 61
1, 389789, Note_off_c, 0, 69, 66
1, 389814, Note_on_c, 0, 64, 70
1, 389855, Note_off_c, 0, 64, 63
1, 389881, Note_on_c, 0, 61, 82
1, 389884, Note_on_c, 0, 39, 77
1, 389925, Note_on_c, 0, 59, 73
1, 389931, Note_off_c, 0, 61, 64
1, 389957, Note_off_c, 0, 39, 63
1, 389976, Note_on_c, 0, 57, 67
1, 389996, Note_off_c, 0, 59, 61
1, 390013, Note_on_c, 0, 40, 97
1, 390030, Note_on_c, 0, 52, 80
1, 390075, Note_off_c, 0, 40, 61
1, 390087, Note_off_c, 0, 52, 64
1, 390146, Note_off_c, 0, 57, 59
1, 390149, Control_c, 0, 64, 99
1, 390164, Control_c, 0, 64, 68
1, 390172, Note_on_c, 0, 41, 103
1, 390173, Note_on_c, 0, 53, 97
1, 390176, Note_on_c, 0, 65, 89
1, 390179, Control_c, 0, 64, 0
1, 390182, Note_on_c, 0, 33, 85
1, 390190, Note_on_c, 0, 57, 50
1, 390222, Note_on_c, 0, 63, 41
1, 390230, Control_c, 0, 64, 64
1, 390245, Control_c, 0, 64, 79
1, 390252, Note_off_c, 0, 63, 35
1, 390260, Control_c, 0, 64, 95
1, 390275, Control_c, 0, 64, 110
1, 390277, Note_off_c, 0, 65, 60
1, 390286, Note_off_c, 0, 33, 59
1, 390289, Note_off_c, 0, 41, 60
1, 390289, Note_off_c, 0, 57, 0
1, 390289, Control_c, 0, 64, 116
1, 390290, Note_off_c, 0, 53, 60
1, 390304, Control_c, 0, 64, 117
1, 390319, Control_c, 0, 64, 118
1, 390326, Poly_aftertouch_c, 0, 57, 127
1, 390349, Control_c, 0, 64, 118
1, 390437, Control_c, 0, 64, 111
1, 390452, Control_c, 0, 64, 93
1, 390460, Note_on_c, 0, 52, 92
1, 390462, Note_on_c, 0, 64, 81
1, 390467, Control_c, 0, 64, 71
1, 390471, Note_on_c, 0, 40, 93
1, 390474, Note_on_c, 0, 33, 81
1, 390477, Poly_aftertouch_c, 0, 57, 0
1, 390480, Note_off_c, 0, 52, 74
1, 390482, Control_c, 0, 64, 0
1, 390511, Control_c, 0, 64, 60
1, 390521, Note_off_c, 0, 64, 67
1, 390526, Control_c, 0, 64, 74
1, 390541, Control_c, 0, 64, 89
1, 390555, Control_c, 0, 64, 104
1, 390570, Control_c, 0, 64, 111
1, 390585, Note_off_c, 0, 33, 58
1, 390585, Control_c, 0, 64, 112
1, 390600, Control_c, 0, 64, 113
1, 390615, Control_c, 0, 64, 115
1, 390631, Control_c, 0, 64, 121
1, 390646, Control_c, 0, 64, 125
1, 390660, Control_c, 0, 64, 126
1, 390662, Note_off_c, 0, 40, 60
1, 390675, Control_c, 0, 64, 119
1, 390690, Control_c, 0, 64, 97
1, 390695, Note_on_c, 0, 85, 81
1, 390700, Note_on_c, 0, 45, 96
1, 390703, Note_on_c, 0, 33, 84
1, 390705, Control_c, 0, 64, 73
1, 390720, Control_c, 0, 64, 0
1, 390725, Note_on_c, 0, 97, 98
1, 390731, Note_off_c, 0, 85, 61
1, 390734, Control_c, 0, 64, 59
1, 390742, Note_off_c, 0, 33, 60
1, 390749, Control_c, 0, 64, 74
1, 390755, Note_off_c, 0, 45, 63
1, 390764, Control_c, 0, 64, 92
1, 390778, Note_on_c, 0, 98, 22
1, 390778, Control_c, 0, 64, 127
1, 390814, Note_off_c, 0, 97, 64
1, 390814, Note_off_c, 0, 98, 32
1, 390858, Note_on_c, 0, 96, 65
1, 390859, Note_on_c, 0, 95, 68
1, 390863, Note_on_c, 0, 51, 96
1, 390869, Note_on_c, 0, 39, 72
1, 390896, Note_off_c, 0, 96, 64
1, 390898, Note_off_c, 0, 39, 63
1, 390902, Note_off_c, 0, 51, 56
1, 390918, Note_on_c, 0, 93, 83
1, 390943, Note_off_c, 0, 95, 64
1, 390977, Note_off_c, 0, 93, 62
1, 390985, Note_on_c, 0, 88, 75
1, 391013, Note_on_c, 0, 52, 90
1, 391025, Note_on_c, 0, 40, 74
1, 391027, Note_off_c, 0, 88, 60
1, 391055, Note_off_c, 0, 40, 64
1, 391056, Note_off_c, 0, 52, 64
1, 391082, Note_on_c, 0, 85, 74
1, 391112, Control_c, 0, 64, 126
1, 391125, Note_on_c, 0, 40, 79
1, 391127, Control_c, 0, 64, 89
1, 391133, Note_on_c, 0, 52, 104
1, 391136, Note_off_c, 0, 85, 68
1, 391138, Note_on_c, 0, 83, 73
1, 391142, Control_c, 0, 64, 59
1, 391157, Control_c, 0, 64, 0
1, 391186, Control_c, 0, 64, 66
1, 391190, Note_on_c, 0, 81, 75
1, 391201, Control_c, 0, 64, 82
1, 391203, Note_off_c, 0, 83, 62
1, 391216, Control_c, 0, 64, 103
1, 391218, Note_off_c, 0, 52, 57
1, 391231, Control_c, 0, 64, 127
1, 391241, Note_off_c, 0, 81, 58
1, 391245, Note_off_c, 0, 40, 57
1, 391249, Note_on_c, 0, 76, 77
1, 391299, Note_off_c, 0, 76, 64
1, 391324, Note_on_c, 0, 73, 78
1, 391383, Note_off_c, 0, 73, 66
1, 391386, Note_on_c, 0, 71, 66
1, 391415, Note_on_c, 0, 69, 78
1, 391436, Note_off_c, 0, 71, 62
1, 391465, Note_off_c, 0, 69, 67
1, 391482, Note_on_c, 0, 64, 77
1, 391518, Note_off_c, 0, 64, 59
1, 391553, Note_on_c, 0, 61, 74
1, 391580, Note_on_c, 0, 39, 82
1, 391584, Note_off_c, 0, 61, 65
1, 391588, Note_on_c, 0, 59, 78
1, 391637, Note_on_c, 0, 57, 71
1, 391651, Note_off_c, 0, 59, 60
1, 391652, Note_off_c, 0, 39, 62
1, 391710, Note_on_c, 0, 52, 81
1, 391714, Note_on_c, 0, 40, 96
1, 391768, Note_off_c, 0, 52, 65
1, 391780, Note_off_c, 0, 40, 62
1, 391831, Control_c, 0, 64, 124
1, 391840, Note_off_c, 0, 57, 57
1, 391846, Control_c, 0, 64, 94
1, 391861, Control_c, 0, 64, 40
1, 391870, Note_on_c, 0, 41, 107
1, 391872, Note_on_c, 0, 53, 98
1, 391875, Note_on_c, 0, 65, 87
1, 391875, Control_c, 0, 64, 0
1, 391880, Note_on_c, 0, 33, 84
1, 391901, Note_on_c, 0, 57, 45
1, 391920, Control_c, 0, 64, 48
1, 391923, Note_on_c, 0, 63, 17
1, 391935, Control_c, 0, 64, 68
1, 391950, Control_c, 0, 64, 77
1, 391959, Note_off_c, 0, 63, 42
1, 391964, Note_off_c, 0, 65, 62
1, 391965, Control_c, 0, 64, 87
1, 391966, Note_off_c, 0, 33, 59
1, 391972, Note_off_c, 0, 41, 60
1, 391972, Note_off_c, 0, 53, 62
1, 391980, Control_c, 0, 64, 90
1, 392015, Note_off_c, 0, 57, 25
1, 392083, Control_c, 0, 64, 90
1, 392098, Control_c, 0, 64, 84
1, 392113, Control_c, 0, 64, 68
1, 392127, Control_c, 0, 64, 0
1, 392134, Note_on_c, 0, 64, 53
1, 392138, Note_on_c, 0, 52, 72
1, 392152, Note_on_c, 0, 40, 69
1, 392158, Note_on_c, 0, 33, 56
1, 392185, Note_off_c, 0, 64, 62
1, 392187, Control_c, 0, 64, 60
1, 392197, Note_off_c, 0, 52, 64
1, 392201, Control_c, 0, 64, 66
1, 392202, Note_off_c, 0, 33, 58
1, 392212, Note_off_c, 0, 40, 60
1, 392216, Control_c, 0, 64, 67
1, 392232, Control_c, 0, 64, 63
1, 392247, Control_c, 0, 64, 0
1, 392264, Note_on_c, 0, 41, 83
1, 392264, Note_on_c, 0, 65, 78
1, 392281, Note_on_c, 0, 33, 31
1, 392281, Note_on_c, 0, 53, 54
1, 392307, Note_off_c, 0, 53, 57
1, 392309, Note_off_c, 0, 33, 60
1, 392329, Note_off_c, 0, 41, 65
1, 392350, Control_c, 0, 64, 52
1, 392357, Note_off_c, 0, 65, 62
1, 392365, Control_c, 0, 64, 52
1, 392379, Note_on_c, 0, 53, 75
1, 392395, Control_c, 0, 64, 53
1, 392410, Control_c, 0, 64, 53
1, 392424, Control_c, 0, 64, 52
1, 392439, Control_c, 0, 64, 50
1, 392462, Note_off_c, 0, 53, 65
1, 392462, Control_c, 0, 64, 50
1, 392468, Note_on_c, 0, 57, 66
1, 392477, Control_c, 0, 64, 51
1, 392492, Control_c, 0, 64, 52
1, 392502, Note_on_c, 0, 61, 74
1, 392503, Note_off_c, 0, 57, 63
1, 392506, Control_c, 0, 64, 53
1, 392513, Note_on_c, 0, 45, 71
1, 392521, Control_c, 0, 64, 54
1, 392528, Note_off_c, 0, 61, 68
1, 392541, Note_on_c, 0, 33, 19
1, 392546, Note_off_c, 0, 45, 64
1, 392550, Control_c, 0, 64, 53
1, 392565, Control_c, 0, 64, 52
1, 392586, Note_on_c, 0, 65, 77
1, 392586, Note_off_c, 0, 33, 54
1, 392610, Control_c, 0, 64, 53
1, 392623, Note_off_c, 0, 65, 60
1, 392625, Control_c, 0, 64, 56
1, 392639, Control_c, 0, 64, 57
1, 392641, Note_on_c, 0, 73, 86
1, 392642, Note_on_c, 0, 53, 88
1, 392644, Note_on_c, 0, 77, 74
1, 392650, Note_on_c, 0, 41, 74
1, 392665, Note_off_c, 0, 77, 69
1, 392668, Note_off_c, 0, 53, 67
1, 392669, Control_c, 0, 64, 56
1, 392678, Note_off_c, 0, 73, 64
1, 392683, Note_off_c, 0, 41, 66
1, 392684, Control_c, 0, 64, 55
1, 392699, Control_c, 0, 64, 54
1, 392780, Note_on_c, 0, 53, 76
1, 392802, Control_c, 0, 64, 53
1, 392817, Control_c, 0, 64, 52
1, 392832, Control_c, 0, 64, 50
1, 392838, Note_on_c, 0, 57, 66
1, 392844, Note_off_c, 0, 53, 64
1, 392877, Control_c, 0, 64, 51
1, 392883, Note_on_c, 0, 61, 76
1, 392889, Note_off_c, 0, 57, 61
1, 392892, Control_c, 0, 64, 52
1, 392898, Note_on_c, 0, 45, 78
1, 392906, Control_c, 0, 64, 53
1, 392910, Note_off_c, 0, 61, 66
1, 392919, Note_on_c, 0, 33, 39
1, 392930, Note_off_c, 0, 45, 66
1, 392950, Control_c, 0, 64, 52
1, 392956, Note_off_c, 0, 33, 51
1, 392965, Control_c, 0, 64, 52
1, 392969, Note_on_c, 0, 65, 75
1, 392980, Control_c, 0, 64, 52
1, 392995, Control_c, 0, 64, 53
1, 393004, Note_off_c, 0, 65, 62
1, 393010, Control_c, 0, 64, 55
1, 393026, Control_c, 0, 64, 56
1, 393027, Note_on_c, 0, 77, 78
1, 393028, Note_on_c, 0, 73, 84
1, 393038, Note_on_c, 0, 53, 91
1, 393045, Note_on_c, 0, 41, 77
1, 393047, Note_off_c, 0, 77, 70
1, 393062, Note_off_c, 0, 53, 69
1, 393062, Note_off_c, 0, 73, 63
1, 393070, Control_c, 0, 64, 55
1, 393077, Note_off_c, 0, 41, 66
1, 393085, Control_c, 0, 64, 54
1, 393115, Control_c, 0, 64, 54
1, 393129, Control_c, 0, 64, 53
1, 393162, Note_on_c, 0, 53, 79
1, 393173, Control_c, 0, 64, 54
1, 393188, Control_c, 0, 64, 53
1, 393211, Control_c, 0, 64, 53
1, 393226, Control_c, 0, 64, 52
1, 393229, Note_on_c, 0, 58, 71
1, 393232, Note_off_c, 0, 53, 60
1, 393241, Control_c, 0, 64, 51
1, 393281, Note_on_c, 0, 61, 70
1, 393285, Control_c, 0, 64, 52
1, 393296, Note_off_c, 0, 58, 65
1, 393297, Note_on_c, 0, 46, 94
1, 393300, Control_c, 0, 64, 52
1, 393309, Note_on_c, 0, 34, 65
1, 393312, Note_off_c, 0, 61, 66
1, 393315, Control_c, 0, 64, 53
1, 393330, Note_off_c, 0, 46, 62
1, 393335, Note_off_c, 0, 34, 67
1, 393344, Control_c, 0, 64, 52
1, 393359, Control_c, 0, 64, 52
1, 393366, Note_on_c, 0, 65, 75
1, 393388, Control_c, 0, 64, 52
1, 393403, Control_c, 0, 64, 53
1, 393406, Note_off_c, 0, 65, 62
1, 393418, Control_c, 0, 64, 54
1, 393425, Note_on_c, 0, 77, 84
1, 393433, Control_c, 0, 64, 55
1, 393443, Note_on_c, 0, 53, 96
1, 393446, Note_off_c, 0, 77, 67
1, 393448, Control_c, 0, 64, 55
1, 393451, Note_on_c, 0, 41, 75
1, 393454, Note_on_c, 0, 72, 54
1, 393462, Control_c, 0, 64, 55
1, 393467, Note_off_c, 0, 53, 68
1, 393475, Note_off_c, 0, 72, 59
1, 393477, Control_c, 0, 64, 54
1, 393482, Note_off_c, 0, 41, 66
1, 393492, Control_c, 0, 64, 54
1, 393507, Control_c, 0, 64, 53
1, 393562, Note_on_c, 0, 53, 82
1, 393595, Control_c, 0, 64, 52
1, 393610, Control_c, 0, 64, 51
1, 393619, Note_on_c, 0, 58, 69
1, 393625, Control_c, 0, 64, 50
1, 393634, Note_off_c, 0, 53, 64
1, 393640, Control_c, 0, 64, 49
1, 393666, Note_on_c, 0, 62, 71
1, 393670, Control_c, 0, 64, 50
1, 393680, Note_off_c, 0, 58, 66
1, 393685, Control_c, 0, 64, 51
1, 393693, Note_on_c, 0, 46, 94
1, 393697, Note_on_c, 0, 34, 76
1, 393699, Control_c, 0, 64, 52
1, 393711, Note_off_c, 0, 62, 62
1, 393729, Note_off_c, 0, 46, 61
1, 393729, Control_c, 0, 64, 51
1, 393729, Note_off_c, 0, 34, 66
1, 393760, Note_on_c, 0, 65, 72
1, 393788, Control_c, 0, 64, 52
1, 393791, Note_off_c, 0, 65, 64
1, 393803, Control_c, 0, 64, 53
1, 393819, Note_on_c, 0, 77, 79
1, 393819, Control_c, 0, 64, 54
1, 393822, Note_on_c, 0, 74, 80
1, 393831, Note_on_c, 0, 53, 96
1, 393839, Note_on_c, 0, 41, 87
1, 393843, Note_off_c, 0, 77, 63
1, 393857, Note_off_c, 0, 53, 69
1, 393857, Note_off_c, 0, 74, 66
1, 393866, Note_off_c, 0, 41, 67
1, 393878, Control_c, 0, 64, 54
1, 393908, Control_c, 0, 64, 53
1, 393938, Control_c, 0, 64, 53
1, 393970, Note_on_c, 0, 54, 79
1, 393989, Control_c, 0, 64, 52
1, 394004, Control_c, 0, 64, 52
1, 394024, Note_on_c, 0, 58, 71
1, 394033, Control_c, 0, 64, 51
1, 394046, Note_off_c, 0, 54, 61
1, 394075, Note_on_c, 0, 46, 97
1, 394077, Note_on_c, 0, 62, 74
1, 394078, Control_c, 0, 64, 52
1, 394081, Note_on_c, 0, 34, 82
1, 394096, Note_off_c, 0, 58, 66
1, 394106, Note_off_c, 0, 34, 67
1, 394107, Note_off_c, 0, 62, 66
1, 394108, Control_c, 0, 64, 52
1, 394112, Note_off_c, 0, 46, 57
1, 394152, Control_c, 0, 64, 53
1, 394167, Control_c, 0, 64, 54
1, 394174, Note_on_c, 0, 66, 70
1, 394182, Control_c, 0, 64, 56
1, 394196, Control_c, 0, 64, 57
1, 394211, Control_c, 0, 64, 59
1, 394217, Note_on_c, 0, 54, 98
1, 394219, Note_on_c, 0, 78, 82
1, 394222, Note_on_c, 0, 42, 78
1, 394233, Note_on_c, 0, 74, 68
1, 394237, Note_off_c, 0, 78, 71
1, 394239, Note_off_c, 0, 66, 64
1, 394241, Control_c, 0, 64, 58
1, 394250, Note_off_c, 0, 54, 59
1, 394251, Note_on_c, 0, 44, 41
1, 394254, Note_off_c, 0, 42, 65
1, 394256, Note_off_c, 0, 74, 71
1, 394256, Control_c, 0, 64, 58
1, 394270, Control_c, 0, 64, 57
1, 394285, Control_c, 0, 64, 56
1, 394287, Note_off_c, 0, 44, 36
1, 394300, Control_c, 0, 64, 55
1, 394315, Control_c, 0, 64, 54
1, 394329, Control_c, 0, 64, 53
1, 394344, Control_c, 0, 64, 52
1, 394355, Note_on_c, 0, 54, 79
1, 394359, Control_c, 0, 64, 52
1, 394374, Control_c, 0, 64, 51
1, 394389, Control_c, 0, 64, 51
1, 394403, Note_on_c, 0, 58, 70
1, 394403, Control_c, 0, 64, 49
1, 394428, Note_off_c, 0, 54, 61
1, 394448, Control_c, 0, 64, 50
1, 394452, Note_on_c, 0, 63, 69
1, 394460, Note_on_c, 0, 46, 94
1, 394463, Control_c, 0, 64, 51
1, 394466, Note_on_c, 0, 34, 68
1, 394467, Note_off_c, 0, 58, 65
1, 394478, Control_c, 0, 64, 51
1, 394492, Control_c, 0, 64, 52
1, 394493, Note_off_c, 0, 63, 62
1, 394495, Note_off_c, 0, 34, 66
1, 394504, Note_off_c, 0, 46, 60
1, 394507, Control_c, 0, 64, 53
1, 394537, Control_c, 0, 64, 54
1, 394547, Note_on_c, 0, 66, 73
1, 394552, Control_c, 0, 64, 54
1, 394567, Control_c, 0, 64, 56
1, 394582, Control_c, 0, 64, 57
1, 394596, Control_c, 0, 64, 58
1, 394597, Note_on_c, 0, 54, 95
1, 394598, Note_on_c, 0, 78, 78
1, 394600, Note_on_c, 0, 42, 82
1, 394603, Note_on_c, 0, 75, 77
1, 394606, Note_off_c, 0, 66, 55
1, 394611, Control_c, 0, 64, 58
1, 394618, Note_off_c, 0, 78, 71
1, 394627, Note_off_c, 0, 54, 64
1, 394632, Note_off_c, 0, 42, 66
1, 394632, Note_off_c, 0, 75, 61
1, 394642, Control_c, 0, 64, 58
1, 394671, Control_c, 0, 64, 57
1, 394686, Control_c, 0, 64, 55
1, 394708, Control_c, 0, 64, 45
1, 394723, Control_c, 0, 64, 0
1, 394731, Note_on_c, 0, 55, 75
1, 394793, Note_on_c, 0, 61, 75
1, 394811, Note_off_c, 0, 55, 61
1, 394852, Note_on_c, 0, 47, 86
1, 394857, Note_on_c, 0, 64, 65
1, 394861, Note_on_c, 0, 33, 54
1, 394865, Note_off_c, 0, 61, 64
1, 394871, Control_c, 0, 64, 69
1, 394883, Note_on_c, 0, 45, 38
1, 394884, Note_off_c, 0, 45, 127
1, 394884, Note_on_c, 0, 35, 37
1, 394886, Control_c, 0, 64, 88
1, 394891, Note_off_c, 0, 33, 59
1, 394891, Note_off_c, 0, 47, 64
1, 394892, Note_off_c, 0, 64, 67
1, 394901, Control_c, 0, 64, 127
1, 394922, Note_off_c, 0, 35, 51
1, 394943, Note_on_c, 0, 67, 82
1, 394992, Note_off_c, 0, 67, 59
1, 395005, Note_on_c, 0, 57, 99
1, 395009, Note_on_c, 0, 45, 81
1, 395014, Note_on_c, 0, 76, 91
1, 395015, Note_on_c, 0, 79, 80
1, 395026, Note_off_c, 0, 57, 64
1, 395034, Control_c, 0, 64, 95
1, 395039, Note_off_c, 0, 45, 67
1, 395049, Control_c, 0, 64, 61
1, 395055, Note_off_c, 0, 76, 66
1, 395058, Note_off_c, 0, 79, 61
1, 395064, Control_c, 0, 64, 0
1, 395145, Note_on_c, 0, 68, 81
1, 395220, Note_on_c, 0, 73, 76
1, 395253, Note_off_c, 0, 68, 61
1, 395270, Note_on_c, 0, 32, 72
1, 395277, Note_on_c, 0, 44, 96
1, 395279, Note_on_c, 0, 77, 81
1, 395297, Note_off_c, 0, 73, 62
1, 395300, Control_c, 0, 64, 82
1, 395308, Note_off_c, 0, 32, 64
1, 395312, Note_off_c, 0, 77, 67
1, 395315, Control_c, 0, 64, 127
1, 395323, Note_off_c, 0, 44, 62
1, 395379, Note_on_c, 0, 80, 88
1, 395484, Note_off_c, 0, 80, 61
1, 395503, Note_on_c, 0, 53, 63
1, 395503, Note_on_c, 0, 85, 101
1, 395504, Note_on_c, 0, 92, 90
1, 395508, Note_on_c, 0, 89, 92
1, 395513, Note_on_c, 0, 80, 55
1, 395514, Note_on_c, 0, 65, 91
1, 395515, Note_on_c, 0, 61, 81
1, 395529, Note_on_c, 0, 56, 60
1, 395530, Note_off_c, 0, 80, 64
1, 395532, Note_off_c, 0, 65, 74
1, 395548, Note_off_c, 0, 92, 65
1, 395549, Note_off_c, 0, 85, 69
1, 395550, Note_off_c, 0, 89, 69
1, 395551, Note_on_c, 0, 88, 33
1, 395552, Note_off_c, 0, 61, 54
1, 395555, Note_off_c, 0, 53, 64
1, 395569, Note_off_c, 0, 56, 62
1, 395587, Note_off_c, 0, 88, 32
1, 395776, Note_on_c, 0, 60, 61
1, 395808, Note_on_c, 0, 61, 72
1, 395813, Note_on_c, 0, 48, 62
1, 395813, Note_off_c, 0, 60, 55
1, 395819, Note_on_c, 0, 65, 80
1, 395821, Note_on_c, 0, 49, 65
1, 395822, Note_on_c, 0, 53, 55
1, 395826, Note_on_c, 0, 56, 100
1, 395837, Note_on_c, 0, 64, 57
1, 395837, Note_on_c, 0, 68, 93
1, 395842, Control_c, 0, 64, 111
1, 395844, Note_off_c, 0, 48, 65
1, 395849, Note_off_c, 0, 61, 65
1, 395850, Note_off_c, 0, 49, 63
1, 395856, Note_off_c, 0, 64, 61
1, 395856, Note_off_c, 0, 65, 65
1, 395857, Control_c, 0, 64, 78
1, 395863, Note_off_c, 0, 56, 65
1, 395865, Note_off_c, 0, 53, 55
1, 395872, Note_off_c, 0, 68, 63
1, 395872, Control_c, 0, 64, 0
1, 396054, Note_on_c, 0, 59, 56
1, 396084, Note_on_c, 0, 47, 59
1, 396088, Note_on_c, 0, 48, 51
1, 396090, Note_on_c, 0, 60, 65
1, 396096, Note_on_c, 0, 53, 63
1, 396102, Note_on_c, 0, 65, 74
1, 396114, Note_on_c, 0, 56, 99
1, 396115, Note_on_c, 0, 68, 93
1, 396120, Note_off_c, 0, 47, 65
1, 396126, Note_off_c, 0, 48, 66
1, 396127, Note_off_c, 0, 59, 62
1, 396136, Note_off_c, 0, 65, 64
1, 396141, Note_off_c, 0, 60, 64
1, 396152, Note_off_c, 0, 56, 59
1, 396153, Note_off_c, 0, 53, 64
1, 396160, Note_off_c, 0, 68, 63
1, 396379, Note_on_c, 0, 45, 53
1, 396388, Note_on_c, 0, 57, 53
1, 396403, Note_on_c, 0, 46, 75
1, 396411, Note_on_c, 0, 58, 80
1, 396412, Note_on_c, 0, 53, 71
1, 396422, Note_off_c, 0, 45, 66
1, 396430, Note_on_c, 0, 68, 86
1, 396431, Note_on_c, 0, 56, 99
1, 396441, Note_on_c, 0, 65, 53
1, 396443, Note_off_c, 0, 57, 62
1, 396460, Note_off_c, 0, 58, 66
1, 396463, Note_off_c, 0, 65, 64
1, 396467, Note_off_c, 0, 56, 64
1, 396468, Note_off_c, 0, 68, 67
1, 396470, Note_off_c, 0, 53, 64
1, 396484, Note_off_c, 0, 46, 63
1, 396747, Note_on_c, 0, 44, 99
1, 396748, Note_on_c, 0, 32, 77
1, 396749, Note_on_c, 0, 56, 104
1, 396770, Control_c, 0, 64, 39
1, 396779, Note_on_c, 0, 34, 49
1, 396785, Control_c, 0, 64, 83
1, 396796, Note_off_c, 0, 56, 70
1, 396799, Note_off_c, 0, 44, 65
1, 396799, Control_c, 0, 64, 120
1, 396801, Note_off_c, 0, 32, 63
1, 396812, Note_off_c, 0, 34, 48
1, 396814, Control_c, 0, 64, 127
1, 397154, Note_on_c, 0, 80, 101
1, 397159, Note_on_c, 0, 92, 103
1, 397161, Note_on_c, 0, 89, 89
1, 397162, Note_on_c, 0, 72, 86
1, 397163, Note_on_c, 0, 66, 75
1, 397163, Note_on_c, 0, 77, 97
1, 397201, Note_on_c, 0, 68, 40
1, 397231, Note_off_c, 0, 68, 55
1, 397522, Note_off_c, 0, 77, 55
1, 397528, Note_off_c, 0, 66, 62
1, 397566, Note_off_c, 0, 92, 57
1, 397572, Note_off_c, 0, 72, 55
1, 397578, Note_off_c, 0, 80, 56
1, 397584, Note_off_c, 0, 89, 59
1, 397698, Note_on_c, 0, 80, 90
1, 397698, Note_on_c, 0, 87, 86
1, 397701, Note_on_c, 0, 75, 86
1, 397704, Note_on_c, 0, 92, 85
1, 397708, Note_on_c, 0, 72, 63
1, 397709, Note_on_c, 0, 66, 56
1, 397777, Note_off_c, 0, 75, 63
1, 397783, Note_off_c, 0, 66, 61
1, 397795, Note_off_c, 0, 92, 63
1, 397801, Note_off_c, 0, 80, 62
1, 397817, Note_off_c, 0, 72, 58
1, 397822, Note_off_c, 0, 87, 62
1, 397861, Note_on_c, 0, 72, 53
1, 397867, Note_on_c, 0, 77, 86
1, 397870, Note_on_c, 0, 80, 96
1, 397872, Note_on_c, 0, 89, 86
1, 397874, Note_on_c, 0, 92, 89
1, 397876, Note_on_c, 0, 66, 63
1, 397903, Note_off_c, 0, 77, 65
1, 397934, Note_off_c, 0, 80, 65
1, 397947, Note_off_c, 0, 72, 65
1, 397947, Note_off_c, 0, 92, 61
1, 397952, Note_off_c, 0, 89, 63
1, 397968, Note_off_c, 0, 66, 0
1, 397983, Note_on_c, 0, 66, 40
1, 397985, Note_on_c, 0, 75, 92
1, 397994, Note_on_c, 0, 80, 88
1, 397995, Note_on_c, 0, 87, 87
1, 398001, Note_on_c, 0, 72, 31
1, 398026, Note_on_c, 0, 92, 41
1, 398033, Note_off_c, 0, 72, 56
1, 398034, Note_off_c, 0, 75, 64
1, 398051, Note_off_c, 0, 80, 64
1, 398054, Note_off_c, 0, 92, 49
1, 398064, Note_off_c, 0, 87, 61
1, 398070, Note_off_c, 0, 66, 0
1, 398087, Note_on_c, 0, 66, 46
1, 398097, Note_on_c, 0, 77, 93
1, 398105, Note_on_c, 0, 72, 81
1, 398111, Note_on_c, 0, 89, 79
1, 398112, Note_on_c, 0, 80, 88
1, 398126, Note_on_c, 0, 92, 67
1, 398135, Note_off_c, 0, 77, 63
1, 398154, Note_off_c, 0, 66, 63
1, 398157, Note_off_c, 0, 92, 60
1, 398163, Note_off_c, 0, 72, 62
1, 398174, Note_off_c, 0, 80, 61
1, 398212, Note_on_c, 0, 80, 64
1, 398216, Note_on_c, 0, 87, 81
1, 398219, Note_on_c, 0, 68, 62
1, 398227, Note_on_c, 0, 75, 76
1, 398275, Note_off_c, 0, 75, 65
1, 398275, Note_off_c, 0, 80, 64
1, 398293, Note_off_c, 0, 87, 62
1, 398303, Note_off_c, 0, 68, 58
1, 398311, Note_off_c, 0, 89, 59
1, 398311, Control_c, 0, 64, 100
1, 398326, Control_c, 0, 64, 71
1, 398334, Note_on_c, 0, 80, 102
1, 398338, Note_on_c, 0, 92, 90
1, 398340, Note_on_c, 0, 89, 54
1, 398341, Note_on_c, 0, 77, 84
1, 398341, Control_c, 0, 64, 0
1, 398342, Note_on_c, 0, 85, 91
1, 398344, Note_on_c, 0, 73, 82
1, 398350, Note_on_c, 0, 65, 66
1, 398356, Control_c, 0, 64, 66
1, 398359, Note_off_c, 0, 92, 70
1, 398359, Note_off_c, 0, 77, 71
1, 398370, Note_on_c, 0, 68, 22
1, 398371, Control_c, 0, 64, 84
1, 398371, Note_off_c, 0, 73, 66
1, 398373, Note_off_c, 0, 89, 67
1, 398386, Control_c, 0, 64, 107
1, 398388, Note_off_c, 0, 65, 66
1, 398389, Note_off_c, 0, 85, 67
1, 398394, Note_off_c, 0, 80, 67
1, 398400, Control_c, 0, 64, 127
1, 398410, Note_off_c, 0, 68, 44
1, 398600, Note_on_c, 0, 60, 64
1, 398624, Note_on_c, 0, 61, 60
1, 398624, Note_on_c, 0, 54, 64
1, 398639, Note_on_c, 0, 65, 82
1, 398642, Note_off_c, 0, 60, 53
1, 398652, Note_off_c, 0, 54, 64
1, 398657, Note_on_c, 0, 56, 97
1, 398661, Control_c, 0, 64, 92
1, 398667, Note_on_c, 0, 68, 91
1, 398675, Note_off_c, 0, 61, 63
1, 398675, Control_c, 0, 64, 66
1, 398679, Note_off_c, 0, 65, 67
1, 398687, Note_off_c, 0, 56, 62
1, 398690, Control_c, 0, 64, 0
1, 398696, Note_off_c, 0, 68, 64
1, 398898, Note_on_c, 0, 59, 55
1, 398913, Note_on_c, 0, 60, 68
1, 398914, Note_on_c, 0, 47, 62
1, 398927, Note_on_c, 0, 65, 84
1, 398928, Note_on_c, 0, 48, 53
1, 398928, Note_on_c, 0, 53, 64
1, 398937, Note_on_c, 0, 56, 103
1, 398949, Note_off_c, 0, 47, 66
1, 398951, Note_on_c, 0, 68, 83
1, 398951, Note_off_c, 0, 59, 63
1, 398954, Note_on_c, 0, 63, 50
1, 398956, Note_off_c, 0, 48, 67
1, 398965, Note_off_c, 0, 65, 66
1, 398967, Note_off_c, 0, 60, 63
1, 398976, Note_off_c, 0, 56, 63
1, 398977, Note_off_c, 0, 63, 59
1, 398982, Note_off_c, 0, 68, 64
1, 398984, Note_off_c, 0, 53, 64
1, 399207, Note_on_c, 0, 45, 61
1, 399211, Note_on_c, 0, 57, 64
1, 399226, Note_on_c, 0, 46, 73
1, 399232, Note_on_c, 0, 58, 80
1, 399233, Note_on_c, 0, 53, 74
1, 399246, Note_on_c, 0, 56, 97
1, 399246, Note_on_c, 0, 68, 85
1, 399247, Note_off_c, 0, 45, 68
1, 399256, Note_on_c, 0, 65, 54
1, 399262, Note_off_c, 0, 57, 62
1, 399277, Note_off_c, 0, 58, 66
1, 399278, Note_off_c, 0, 65, 63
1, 399285, Note_off_c, 0, 56, 62
1, 399288, Note_off_c, 0, 53, 64
1, 399290, Note_off_c, 0, 68, 66
1, 399307, Note_off_c, 0, 46, 62
1, 399557, Note_on_c, 0, 32, 81
1, 399557, Note_on_c, 0, 44, 99
1, 399558, Note_on_c, 0, 56, 102
1, 399602, Note_off_c, 0, 32, 63
1, 399602, Control_c, 0, 64, 75
1, 399604, Note_off_c, 0, 44, 65
1, 399605, Note_off_c, 0, 56, 68
1, 399617, Control_c, 0, 64, 100
1, 399632, Control_c, 0, 64, 121
1, 399646, Control_c, 0, 64, 124
1, 399661, Control_c, 0, 64, 127
1, 399960, Note_on_c, 0, 66, 79
1, 399961, Note_on_c, 0, 80, 102
1, 399965, Note_on_c, 0, 92, 103
1, 399966, Note_on_c, 0, 77, 98
1, 399968, Note_on_c, 0, 72, 83
1, 399968, Note_on_c, 0, 89, 87
1, 400290, Note_off_c, 0, 77, 54
1, 400299, Note_off_c, 0, 66, 61
1, 400342, Note_off_c, 0, 72, 54
1, 400344, Note_off_c, 0, 92, 57
1, 400352, Note_off_c, 0, 80, 57
1, 400361, Note_off_c, 0, 89, 60
1, 400472, Note_on_c, 0, 75, 77
1, 400472, Note_on_c, 0, 80, 85
1, 400472, Note_on_c, 0, 87, 80
1, 400481, Note_on_c, 0, 92, 78
1, 400488, Note_on_c, 0, 66, 49
1, 400503, Note_on_c, 0, 72, 40
1, 400539, Note_off_c, 0, 66, 60
1, 400550, Note_off_c, 0, 75, 63
1, 400557, Note_off_c, 0, 92, 61
1, 400563, Note_off_c, 0, 80, 62
1, 400564, Note_off_c, 0, 72, 41
1, 400577, Note_off_c, 0, 87, 61
1, 400631, Note_on_c, 0, 77, 73
1, 400640, Note_on_c, 0, 80, 88
1, 400640, Note_on_c, 0, 89, 78
1, 400644, Note_on_c, 0, 72, 53
1, 400647, Note_on_c, 0, 66, 59
1, 400648, Note_on_c, 0, 92, 76
1, 400648, Note_off_c, 0, 77, 67
1, 400691, Note_off_c, 0, 66, 64
1, 400693, Note_off_c, 0, 72, 65
1, 400693, Note_off_c, 0, 80, 64
1, 400700, Note_off_c, 0, 92, 63
1, 400701, Note_off_c, 0, 89, 63
1, 400736, Note_on_c, 0, 75, 88
1, 400750, Note_on_c, 0, 87, 83
1, 400752, Note_on_c, 0, 80, 79
1, 400773, Note_off_c, 0, 75, 63
1, 400794, Note_on_c, 0, 66, 30
1, 400800, Note_off_c, 0, 80, 64
1, 400800, Note_off_c, 0, 87, 62
1, 400835, Note_on_c, 0, 77, 87
1, 400843, Note_on_c, 0, 72, 73
1, 400854, Note_on_c, 0, 80, 78
1, 400854, Note_on_c, 0, 89, 80
1, 400872, Note_off_c, 0, 77, 61
1, 400892, Note_off_c, 0, 72, 50
1, 400901, Note_off_c, 0, 80, 65
1, 400913, Note_off_c, 0, 89, 64
1, 400928, Note_off_c, 0, 66, 0
1, 400934, Note_on_c, 0, 75, 91
1, 400937, Poly_aftertouch_c, 0, 76, 0
1, 400952, Note_on_c, 0, 66, 19
1, 400953, Note_on_c, 0, 87, 83
1, 400957, Note_on_c, 0, 80, 73
1, 400977, Note_off_c, 0, 75, 64
1, 400985, Note_off_c, 0, 80, 66
1, 400987, Note_off_c, 0, 66, 51
1, 401009, Note_off_c, 0, 87, 60
1, 401030, Poly_aftertouch_c, 0, 72, 0
1, 401042, Note_on_c, 0, 72, 55
1, 401042, Note_on_c, 0, 77, 93
1, 401045, Note_on_c, 0, 89, 76
1, 401046, Note_on_c, 0, 66, 67
1, 401047, Note_on_c, 0, 92, 98
1, 401047, Note_on_c, 0, 80, 98
1, 401086, Note_off_c, 0, 77, 60
1, 401102, Note_off_c, 0, 66, 59
1, 401140, Note_off_c, 0, 72, 61
1, 401146, Note_off_c, 0, 80, 60
1, 401189, Note_off_c, 0, 92, 51
1, 401256, Note_on_c, 0, 80, 71
1, 401270, Note_on_c, 0, 87, 60
1, 401271, Note_on_c, 0, 75, 71
1, 401301, Note_off_c, 0, 75, 62
1, 401305, Note_off_c, 0, 80, 60
1, 401309, Note_off_c, 0, 87, 59
1, 401322, Control_c, 0, 64, 112
1, 401337, Control_c, 0, 64, 84
1, 401352, Control_c, 0, 64, 65
1, 401362, Note_off_c, 0, 89, 0
1, 401366, Note_on_c, 0, 93, 80
1, 401367, Note_on_c, 0, 81, 81
1, 401367, Control_c, 0, 64, 56
1, 401370, Note_on_c, 0, 66, 41
1, 401372, Note_on_c, 0, 89, 55
1, 401374, Note_on_c, 0, 77, 79
1, 401381, Control_c, 0, 64, 68
1, 401386, Note_on_c, 0, 72, 64
1, 401396, Control_c, 0, 64, 76
1, 401411, Control_c, 0, 64, 85
1, 401426, Note_off_c, 0, 77, 58
1, 401426, Control_c, 0, 64, 95
1, 401443, Note_off_c, 0, 66, 60
1, 401449, Control_c, 0, 64, 102
1, 401463, Control_c, 0, 64, 106
1, 401478, Control_c, 0, 64, 109
1, 401481, Note_off_c, 0, 72, 53
1, 401493, Control_c, 0, 64, 110
1, 401504, Note_off_c, 0, 81, 54
1, 401508, Control_c, 0, 64, 110
1, 401521, Control_c, 0, 64, 111
1, 401528, Note_off_c, 0, 93, 50
1, 401536, Control_c, 0, 64, 112
1, 401551, Control_c, 0, 64, 113
1, 401581, Control_c, 0, 64, 113
1, 401587, Note_off_c, 0, 89, 34
1, 401596, Control_c, 0, 64, 114
1, 401601, Note_on_c, 0, 75, 66
1, 401605, Note_on_c, 0, 87, 67
1, 401631, Note_off_c, 0, 75, 67
1, 401641, Note_off_c, 0, 87, 58
1, 401656, Control_c, 0, 64, 114
1, 401660, Poly_aftertouch_c, 0, 66, 127
1, 401687, Note_on_c, 0, 81, 89
1, 401688, Note_on_c, 0, 93, 86
1, 401688, Note_on_c, 0, 77, 87
1, 401694, Note_on_c, 0, 72, 61
1, 401695, Note_on_c, 0, 89, 79
1, 401700, Control_c, 0, 64, 115
1, 401714, Control_c, 0, 64, 117
1, 401729, Control_c, 0, 64, 119
1, 401744, Control_c, 0, 64, 121
1, 401745, Note_off_c, 0, 77, 55
1, 401759, Control_c, 0, 64, 123
1, 401762, Poly_aftertouch_c, 0, 66, 0
1, 401774, Control_c, 0, 64, 124
1, 401791, Note_off_c, 0, 72, 57
1, 401793, Note_off_c, 0, 93, 59
1, 401797, Note_off_c, 0, 81, 55
1, 401837, Note_off_c, 0, 89, 63
1, 401906, Note_on_c, 0, 87, 66
1, 401909, Note_on_c, 0, 75, 66
1, 401934, Note_off_c, 0, 75, 69
1, 401942, Note_off_c, 0, 87, 61
1, 401952, Control_c, 0, 64, 119
1, 401967, Control_c, 0, 64, 102
1, 401982, Control_c, 0, 64, 81
1, 401983, Note_on_c, 0, 67, 34
1, 401991, Note_on_c, 0, 82, 95
1, 401992, Note_on_c, 0, 94, 94
1, 401994, Note_on_c, 0, 78, 96
1, 401997, Note_on_c, 0, 90, 91
1, 401997, Control_c, 0, 64, 44
1, 402010, Note_on_c, 0, 73, 48
1, 402011, Note_off_c, 0, 73, 127
1, 402011, Control_c, 0, 64, 0
1, 402018, Note_on_c, 0, 74, 70
1, 402026, Control_c, 0, 64, 40
1, 402041, Control_c, 0, 64, 65
1, 402056, Control_c, 0, 64, 73
1, 402071, Control_c, 0, 64, 84
1, 402085, Note_off_c, 0, 74, 60
1, 402085, Control_c, 0, 64, 95
1, 402092, Note_off_c, 0, 78, 60
1, 402100, Control_c, 0, 64, 100
1, 402115, Control_c, 0, 64, 101
1, 402116, Note_off_c, 0, 94, 59
1, 402118, Note_off_c, 0, 82, 60
1, 402131, Note_off_c, 0, 67, 33
1, 402139, Note_off_c, 0, 90, 60
1, 402144, Control_c, 0, 64, 101
1, 402159, Control_c, 0, 64, 102
1, 402174, Control_c, 0, 64, 103
1, 402197, Control_c, 0, 64, 103
1, 402211, Control_c, 0, 64, 104
1, 402215, Note_on_c, 0, 88, 68
1, 402222, Note_on_c, 0, 76, 68
1, 402226, Control_c, 0, 64, 105
1, 402241, Control_c, 0, 64, 107
1, 402245, Note_off_c, 0, 76, 70
1, 402256, Control_c, 0, 64, 109
1, 402264, Note_on_c, 0, 73, 19
1, 402271, Control_c, 0, 64, 110
1, 402273, Note_off_c, 0, 88, 62
1, 402285, Control_c, 0, 64, 113
1, 402298, Note_off_c, 0, 73, 0
1, 402300, Control_c, 0, 64, 120
1, 402305, Note_on_c, 0, 67, 12
1, 402315, Control_c, 0, 64, 127
1, 402319, Note_on_c, 0, 73, 55
1, 402319, Note_on_c, 0, 82, 101
1, 402320, Note_on_c, 0, 78, 100
1, 402325, Note_on_c, 0, 90, 101
1, 402326, Note_on_c, 0, 94, 96
1, 402339, Note_off_c, 0, 73, 53
1, 402348, Note_on_c, 0, 74, 67
1, 402371, Note_on_c, 0, 92, 26
1, 402372, Note_off_c, 0, 92, 127
1, 402413, Note_off_c, 0, 78, 57
1, 402425, Note_off_c, 0, 74, 57
1, 402440, Note_off_c, 0, 82, 57
1, 402441, Note_off_c, 0, 67, 39
1, 402452, Note_off_c, 0, 94, 57
1, 402465, Note_off_c, 0, 90, 57
1, 402532, Note_on_c, 0, 76, 67
1, 402535, Note_on_c, 0, 88, 70
1, 402558, Note_off_c, 0, 76, 69
1, 402589, Note_off_c, 0, 88, 63
1, 402612, Control_c, 0, 64, 98
1, 402624, Note_on_c, 0, 68, 78
1, 402627, Control_c, 0, 64, 73
1, 402629, Note_on_c, 0, 79, 101
1, 402630, Note_on_c, 0, 95, 90
1, 402632, Note_on_c, 0, 74, 75
1, 402632, Note_on_c, 0, 83, 97
1, 402636, Note_on_c, 0, 91, 94
1, 402642, Control_c, 0, 64, 0
1, 402661, Note_on_c, 0, 94, 59
1, 402672, Control_c, 0, 64, 56
1, 402682, Note_off_c, 0, 94, 39
1, 402687, Control_c, 0, 64, 71
1, 402702, Control_c, 0, 64, 82
1, 402716, Control_c, 0, 64, 96
1, 402729, Note_off_c, 0, 79, 55
1, 402731, Control_c, 0, 64, 105
1, 402746, Control_c, 0, 64, 107
1, 402760, Control_c, 0, 64, 108
1, 402764, Note_off_c, 0, 83, 51
1, 402770, Note_off_c, 0, 95, 56
1, 402790, Control_c, 0, 64, 109
1, 402805, Control_c, 0, 64, 110
1, 402820, Control_c, 0, 64, 110
1, 402834, Control_c, 0, 64, 111
1, 402839, Note_off_c, 0, 68, 32
1, 402849, Control_c, 0, 64, 111
1, 402861, Note_on_c, 0, 77, 66
1, 402864, Control_c, 0, 64, 112
1, 402865, Note_on_c, 0, 89, 56
1, 402869, Note_off_c, 0, 74, 0
1, 402879, Control_c, 0, 64, 113
1, 402893, Control_c, 0, 64, 113
1, 402899, Note_off_c, 0, 77, 58
1, 402905, Poly_aftertouch_c, 0, 74, 127
1, 402913, Note_off_c, 0, 89, 57
1, 402920, Note_off_c, 0, 91, 18
1, 402923, Control_c, 0, 64, 114
1, 402940, Poly_aftertouch_c, 0, 74, 0
1, 402946, Control_c, 0, 64, 115
1, 402961, Control_c, 0, 64, 120
1, 402967, Note_on_c, 0, 68, 76
1, 402975, Control_c, 0, 64, 127
1, 402976, Note_on_c, 0, 95, 94
1, 402976, Note_on_c, 0, 79, 98
1, 402977, Note_on_c, 0, 83, 101
1, 402979, Note_on_c, 0, 74, 68
1, 402979, Note_on_c, 0, 91, 86
1, 403064, Note_off_c, 0, 79, 57
1, 403096, Note_off_c, 0, 68, 58
1, 403125, Note_off_c, 0, 74, 56
1, 403143, Note_off_c, 0, 83, 49
1, 403165, Note_off_c, 0, 95, 50
1, 403204, Note_off_c, 0, 91, 53
1, 403238, Note_on_c, 0, 89, 77
1, 403244, Note_on_c, 0, 77, 64
1, 403281, Note_off_c, 0, 77, 57
1, 403292, Note_off_c, 0, 89, 63
1, 403375, Control_c, 0, 64, 101
1, 403388, Note_on_c, 0, 68, 73
1, 403390, Control_c, 0, 64, 73
1, 403390, Note_on_c, 0, 96, 92
1, 403392, Note_on_c, 0, 84, 97
1, 403393, Note_on_c, 0, 92, 99
1, 403394, Note_on_c, 0, 80, 99
1, 403399, Note_on_c, 0, 75, 79
1, 403405, Control_c, 0, 64, 0
1, 403435, Control_c, 0, 64, 57
1, 403450, Control_c, 0, 64, 69
1, 403465, Control_c, 0, 64, 80
1, 403480, Control_c, 0, 64, 97
1, 403495, Control_c, 0, 64, 116
1, 403496, Note_off_c, 0, 80, 60
1, 403509, Control_c, 0, 64, 121
1, 403551, Note_off_c, 0, 84, 55
1, 403569, Control_c, 0, 64, 122
1, 403588, Note_off_c, 0, 96, 52
1, 403598, Control_c, 0, 64, 122
1, 403628, Control_c, 0, 64, 123
1, 403643, Control_c, 0, 64, 124
1, 403657, Control_c, 0, 64, 127
1, 403664, Note_on_c, 0, 78, 89
1, 403665, Note_on_c, 0, 90, 85
1, 403666, Note_off_c, 0, 68, 0
1, 403666, Note_on_c, 0, 68, 7
1, 403689, Note_off_c, 0, 92, 63
1, 403690, Note_off_c, 0, 78, 71
1, 403709, Note_off_c, 0, 90, 63
1, 403725, Note_off_c, 0, 75, 60
1, 403736, Note_off_c, 0, 68, 60
1, 403901, Control_c, 0, 64, 115
1, 403915, Control_c, 0, 64, 80
1, 403925, Note_on_c, 0, 101, 100
1, 403930, Control_c, 0, 64, 0
1, 403933, Note_on_c, 0, 49, 99
1, 403951, Note_on_c, 0, 37, 61
1, 403972, Note_off_c, 0, 49, 65
1, 403975, Note_on_c, 0, 36, 39
1, 403976, Note_off_c, 0, 36, 127
1, 403976, Control_c, 0, 64, 53
1, 403978, Note_off_c, 0, 37, 59
1, 403991, Control_c, 0, 64, 69
1, 404006, Control_c, 0, 64, 83
1, 404020, Control_c, 0, 64, 103
1, 404035, Control_c, 0, 64, 116
1, 404050, Control_c, 0, 64, 117
1, 404065, Control_c, 0, 64, 117
1, 404065, Note_on_c, 0, 99, 80
1, 404074, Note_on_c, 0, 43, 73
1, 404080, Control_c, 0, 64, 118
1, 404095, Control_c, 0, 64, 119
1, 404098, Note_off_c, 0, 101, 64
1, 404109, Control_c, 0, 64, 121
1, 404117, Note_off_c, 0, 43, 61
1, 404122, Note_on_c, 0, 97, 68
1, 404124, Control_c, 0, 64, 123
1, 404139, Control_c, 0, 64, 127
1, 404162, Note_on_c, 0, 92, 83
1, 404168, Note_on_c, 0, 44, 84
1, 404170, Note_off_c, 0, 99, 68
1, 404187, Note_off_c, 0, 97, 65
1, 404216, Note_off_c, 0, 92, 66
1, 404217, Note_off_c, 0, 44, 61
1, 404222, Note_on_c, 0, 89, 77
1, 404272, Note_on_c, 0, 44, 73
1, 404278, Note_off_c, 0, 89, 64
1, 404312, Note_on_c, 0, 88, 65
1, 404316, Note_off_c, 0, 44, 62
1, 404339, Note_off_c, 0, 88, 53
1, 404347, Note_on_c, 0, 85, 70
1, 404390, Note_on_c, 0, 54, 85
1, 404399, Note_on_c, 0, 42, 67
1, 404420, Note_on_c, 0, 81, 68
1, 404420, Note_on_c, 0, 82, 35
1, 404420, Note_off_c, 0, 85, 57
1, 404424, Note_off_c, 0, 54, 59
1, 404427, Note_off_c, 0, 42, 66
1, 404452, Note_off_c, 0, 81, 68
1, 404462, Note_off_c, 0, 82, 53
1, 404471, Note_on_c, 0, 77, 73
1, 404519, Note_on_c, 0, 53, 90
1, 404527, Note_on_c, 0, 41, 76
1, 404533, Note_off_c, 0, 77, 60
1, 404545, Note_on_c, 0, 75, 84
1, 404560, Note_off_c, 0, 53, 67
1, 404563, Note_off_c, 0, 41, 68
1, 404598, Note_on_c, 0, 73, 67
1, 404614, Note_off_c, 0, 75, 61
1, 404646, Note_on_c, 0, 53, 84
1, 404646, Note_on_c, 0, 68, 85
1, 404652, Note_off_c, 0, 73, 65
1, 404658, Note_on_c, 0, 41, 58
1, 404687, Note_off_c, 0, 53, 61
1, 404690, Note_off_c, 0, 41, 66
1, 404695, Note_off_c, 0, 68, 62
1, 404705, Note_on_c, 0, 65, 80
1, 404741, Note_off_c, 0, 65, 62
1, 404754, Note_on_c, 0, 43, 62
1, 404775, Note_on_c, 0, 63, 73
1, 404815, Note_on_c, 0, 61, 66
1, 404826, Note_off_c, 0, 43, 61
1, 404828, Note_off_c, 0, 63, 64
1, 404848, Note_off_c, 0, 61, 64
1, 404851, Note_on_c, 0, 56, 81
1, 404861, Note_on_c, 0, 44, 92
1, 404879, Note_off_c, 0, 56, 65
1, 404921, Note_off_c, 0, 44, 65
1, 404992, Control_c, 0, 64, 96
1, 405008, Control_c, 0, 64, 65
1, 405023, Note_on_c, 0, 57, 101
1, 405023, Control_c, 0, 64, 0
1, 405024, Note_on_c, 0, 45, 96
1, 405025, Note_on_c, 0, 65, 92
1, 405027, Note_on_c, 0, 69, 80
1, 405056, Note_on_c, 0, 68, 49
1, 405082, Note_off_c, 0, 69, 61
1, 405082, Control_c, 0, 64, 66
1, 405085, Note_off_c, 0, 68, 60
1, 405097, Control_c, 0, 64, 77
1, 405099, Note_off_c, 0, 57, 60
1, 405111, Control_c, 0, 64, 91
1, 405126, Control_c, 0, 64, 102
1, 405128, Note_off_c, 0, 45, 57
1, 405136, Note_off_c, 0, 65, 58
1, 405141, Control_c, 0, 64, 106
1, 405156, Control_c, 0, 64, 106
1, 405193, Control_c, 0, 64, 107
1, 405265, Note_on_c, 0, 56, 86
1, 405269, Note_on_c, 0, 68, 89
1, 405273, Note_on_c, 0, 65, 65
1, 405277, Note_on_c, 0, 44, 76
1, 405284, Note_off_c, 0, 56, 68
1, 405301, Note_off_c, 0, 65, 67
1, 405311, Control_c, 0, 64, 107
1, 405323, Note_off_c, 0, 68, 66
1, 405326, Control_c, 0, 64, 108
1, 405335, Note_off_c, 0, 44, 61
1, 405341, Control_c, 0, 64, 110
1, 405356, Control_c, 0, 64, 113
1, 405371, Control_c, 0, 64, 116
1, 405386, Control_c, 0, 64, 120
1, 405401, Control_c, 0, 64, 123
1, 405416, Control_c, 0, 64, 127
1, 405430, Control_c, 0, 64, 127
1, 405489, Control_c, 0, 64, 104
1, 405496, Note_on_c, 0, 49, 100
1, 405498, Note_on_c, 0, 37, 81
1, 405504, Control_c, 0, 64, 80
1, 405508, Note_on_c, 0, 101, 96
1, 405519, Control_c, 0, 64, 0
1, 405522, Note_on_c, 0, 42, 60
1, 405549, Control_c, 0, 64, 55
1, 405556, Note_off_c, 0, 42, 61
1, 405563, Control_c, 0, 64, 70
1, 405568, Note_off_c, 0, 49, 58
1, 405571, Note_off_c, 0, 37, 61
1, 405578, Control_c, 0, 64, 84
1, 405593, Control_c, 0, 64, 109
1, 405608, Control_c, 0, 64, 127
1, 405639, Note_on_c, 0, 43, 80
1, 405642, Note_on_c, 0, 99, 79
1, 405661, Note_off_c, 0, 101, 47
1, 405686, Note_on_c, 0, 97, 71
1, 405700, Note_off_c, 0, 43, 60
1, 405733, Note_on_c, 0, 92, 78
1, 405742, Note_off_c, 0, 99, 68
1, 405758, Note_on_c, 0, 44, 75
1, 405759, Note_off_c, 0, 97, 65
1, 405791, Note_on_c, 0, 89, 80
1, 405791, Note_off_c, 0, 92, 66
1, 405809, Note_off_c, 0, 44, 62
1, 405830, Note_off_c, 0, 89, 62
1, 405867, Note_on_c, 0, 44, 73
1, 405876, Note_on_c, 0, 87, 77
1, 405922, Note_on_c, 0, 85, 68
1, 405922, Note_off_c, 0, 44, 62
1, 405958, Note_off_c, 0, 87, 64
1, 405978, Note_on_c, 0, 80, 81
1, 405981, Note_off_c, 0, 85, 67
1, 406002, Note_on_c, 0, 54, 83
1, 406003, Note_on_c, 0, 42, 78
1, 406021, Note_off_c, 0, 80, 66
1, 406034, Note_off_c, 0, 42, 65
1, 406036, Note_on_c, 0, 77, 77
1, 406040, Note_off_c, 0, 54, 61
1, 406083, Note_off_c, 0, 77, 56
1, 406107, Note_on_c, 0, 75, 75
1, 406121, Note_on_c, 0, 53, 87
1, 406130, Note_on_c, 0, 41, 76
1, 406155, Note_on_c, 0, 73, 68
1, 406163, Note_off_c, 0, 53, 66
1, 406170, Note_off_c, 0, 41, 65
1, 406189, Note_off_c, 0, 75, 63
1, 406200, Note_on_c, 0, 68, 78
1, 406203, Note_off_c, 0, 73, 60
1, 406235, Note_on_c, 0, 53, 86
1, 406240, Note_on_c, 0, 41, 75
1, 406244, Note_off_c, 0, 68, 62
1, 406257, Note_on_c, 0, 65, 78
1, 406280, Note_off_c, 0, 53, 66
1, 406289, Note_off_c, 0, 41, 66
1, 406307, Note_off_c, 0, 65, 62
1, 406332, Note_on_c, 0, 63, 78
1, 406351, Note_on_c, 0, 43, 91
1, 406378, Note_on_c, 0, 61, 62
1, 406405, Note_off_c, 0, 63, 63
1, 406408, Note_off_c, 0, 43, 61
1, 406419, Note_on_c, 0, 56, 82
1, 406429, Note_off_c, 0, 61, 63
1, 406448, Note_on_c, 0, 44, 88
1, 406456, Note_off_c, 0, 56, 62
1, 406518, Note_off_c, 0, 44, 63
1, 406564, Control_c, 0, 64, 103
1, 406578, Control_c, 0, 64, 75
1, 406586, Note_on_c, 0, 45, 97
1, 406587, Note_on_c, 0, 57, 90
1, 406590, Note_on_c, 0, 69, 84
1, 406592, Note_on_c, 0, 65, 83
1, 406593, Control_c, 0, 64, 0
1, 406619, Note_on_c, 0, 68, 57
1, 406639, Control_c, 0, 64, 52
1, 406654, Control_c, 0, 64, 68
1, 406665, Note_off_c, 0, 69, 63
1, 406669, Control_c, 0, 64, 78
1, 406686, Note_off_c, 0, 68, 52
1, 406687, Note_off_c, 0, 45, 57
1, 406691, Note_off_c, 0, 57, 61
1, 406691, Control_c, 0, 64, 88
1, 406706, Control_c, 0, 64, 94
1, 406727, Note_off_c, 0, 65, 63
1, 406797, Note_on_c, 0, 44, 70
1, 406820, Note_on_c, 0, 56, 83
1, 406820, Note_on_c, 0, 65, 74
1, 406825, Control_c, 0, 64, 91
1, 406836, Note_on_c, 0, 68, 49
1, 406840, Control_c, 0, 64, 83
1, 406851, Note_off_c, 0, 44, 59
1, 406855, Control_c, 0, 64, 66
1, 406863, Note_off_c, 0, 68, 55
1, 406867, Note_off_c, 0, 56, 63
1, 406869, Control_c, 0, 64, 0
1, 406883, Note_off_c, 0, 65, 63
1, 406909, Note_on_c, 0, 49, 86
1, 406924, Note_on_c, 0, 37, 59
1, 406930, Note_on_c, 0, 56, 87
1, 406933, Note_on_c, 0, 68, 82
1, 406938, Note_on_c, 0, 65, 63
1, 406953, Note_off_c, 0, 49, 61
1, 406958, Control_c, 0, 64, 56
1, 406966, Note_off_c, 0, 37, 61
1, 406973, Control_c, 0, 64, 61
1, 407002, Control_c, 0, 64, 56
1, 407010, Note_off_c, 0, 65, 62
1, 407016, Note_on_c, 0, 43, 78
1, 407017, Control_c, 0, 64, 0
1, 407043, Note_off_c, 0, 56, 59
1, 407056, Note_off_c, 0, 68, 57
1, 407106, Note_on_c, 0, 44, 85
1, 407115, Note_off_c, 0, 43, 61
1, 407172, Note_off_c, 0, 44, 63
1, 407195, Control_c, 0, 64, 55
1, 407210, Control_c, 0, 64, 62
1, 407213, Note_on_c, 0, 69, 83
1, 407215, Note_on_c, 0, 57, 82
1, 407225, Control_c, 0, 64, 63
1, 407240, Control_c, 0, 64, 64
1, 407254, Control_c, 0, 64, 67
1, 407269, Control_c, 0, 64, 74
1, 407284, Control_c, 0, 64, 80
1, 407299, Control_c, 0, 64, 83
1, 407308, Note_on_c, 0, 54, 83
1, 407314, Note_on_c, 0, 42, 75
1, 407315, Note_off_c, 0, 69, 65
1, 407320, Note_off_c, 0, 57, 62
1, 407342, Note_off_c, 0, 54, 62
1, 407350, Note_off_c, 0, 42, 64
1, 407404, Note_on_c, 0, 53, 87
1, 407404, Note_on_c, 0, 56, 87
1, 407405, Note_on_c, 0, 68, 83
1, 407438, Note_on_c, 0, 41, 54
1, 407440, Note_off_c, 0, 53, 67
1, 407455, Control_c, 0, 64, 83
1, 407459, Note_off_c, 0, 56, 63
1, 407465, Note_off_c, 0, 68, 63
1, 407469, Note_off_c, 0, 41, 56
1, 407470, Control_c, 0, 64, 79
1, 407484, Control_c, 0, 64, 68
1, 407499, Control_c, 0, 64, 0
1, 407514, Note_on_c, 0, 49, 85
1, 407517, Note_on_c, 0, 56, 89
1, 407518, Note_on_c, 0, 68, 80
1, 407532, Note_on_c, 0, 65, 72
1, 407545, Note_on_c, 0, 39, 44
1, 407553, Note_off_c, 0, 49, 64
1, 407573, Control_c, 0, 64, 59
1, 407580, Note_off_c, 0, 39, 34
1, 407588, Control_c, 0, 64, 66
1, 407603, Control_c, 0, 64, 69
1, 407614, Note_off_c, 0, 65, 61
1, 407615, Note_on_c, 0, 43, 79
1, 407617, Note_off_c, 0, 56, 59
1, 407618, Control_c, 0, 64, 70
1, 407631, Note_off_c, 0, 68, 61
1, 407632, Control_c, 0, 64, 67
1, 407647, Control_c, 0, 64, 35
1, 407662, Control_c, 0, 64, 0
1, 407705, Note_on_c, 0, 44, 86
1, 407716, Note_off_c, 0, 43, 61
1, 407751, Control_c, 0, 64, 56
1, 407764, Note_off_c, 0, 44, 64
1, 407765, Control_c, 0, 64, 64
1, 407780, Control_c, 0, 64, 66
1, 407795, Control_c, 0, 64, 67
1, 407800, Note_on_c, 0, 69, 81
1, 407803, Note_on_c, 0, 57, 88
1, 407810, Control_c, 0, 64, 69
1, 407824, Control_c, 0, 64, 70
1, 407839, Control_c, 0, 64, 72
1, 407854, Control_c, 0, 64, 73
1, 407857, Note_on_c, 0, 68, 35
1, 407869, Control_c, 0, 64, 74
1, 407884, Control_c, 0, 64, 75
1, 407892, Note_off_c, 0, 68, 51
1, 407894, Note_on_c, 0, 54, 83
1, 407898, Note_off_c, 0, 69, 65
1, 407899, Note_on_c, 0, 42, 75
1, 407904, Note_off_c, 0, 57, 62
1, 407928, Note_off_c, 0, 54, 62
1, 407940, Note_off_c, 0, 42, 63
1, 407943, Control_c, 0, 64, 76
1, 407984, Note_on_c, 0, 68, 79
1, 407988, Note_on_c, 0, 56, 87
1, 407988, Control_c, 0, 64, 76
1, 407988, Note_on_c, 0, 53, 72
1, 408006, Note_off_c, 0, 53, 66
1, 408018, Control_c, 0, 64, 77
1, 408032, Control_c, 0, 64, 76
1, 408033, Note_off_c, 0, 56, 62
1, 408034, Note_off_c, 0, 68, 62
1, 408047, Control_c, 0, 64, 74
1, 408054, Poly_aftertouch_c, 0, 41, 127
1, 408062, Control_c, 0, 64, 65
1, 408076, Control_c, 0, 64, 0
1, 408083, Note_on_c, 0, 49, 88
1, 408086, Note_on_c, 0, 56, 91
1, 408088, Poly_aftertouch_c, 0, 41, 0
1, 408090, Note_on_c, 0, 68, 85
1, 408099, Note_on_c, 0, 37, 63
1, 408106, Note_on_c, 0, 65, 68
1, 408116, Note_off_c, 0, 49, 62
1, 408136, Control_c, 0, 64, 56
1, 408140, Note_off_c, 0, 37, 62
1, 408150, Control_c, 0, 64, 67
1, 408165, Control_c, 0, 64, 73
1, 408182, Note_off_c, 0, 65, 62
1, 408188, Note_on_c, 0, 43, 73
1, 408188, Control_c, 0, 64, 78
1, 408191, Note_off_c, 0, 56, 60
1, 408203, Control_c, 0, 64, 80
1, 408209, Note_off_c, 0, 68, 55
1, 408218, Control_c, 0, 64, 78
1, 408233, Control_c, 0, 64, 67
1, 408248, Control_c, 0, 64, 0
1, 408271, Note_on_c, 0, 44, 87
1, 408282, Note_off_c, 0, 43, 61
1, 408327, Note_off_c, 0, 44, 64
1, 408337, Control_c, 0, 64, 58
1, 408352, Control_c, 0, 64, 64
1, 408367, Control_c, 0, 64, 65
1, 408379, Note_on_c, 0, 69, 79
1, 408381, Control_c, 0, 64, 67
1, 408386, Note_on_c, 0, 57, 80
1, 408396, Control_c, 0, 64, 68
1, 408411, Control_c, 0, 64, 69
1, 408426, Control_c, 0, 64, 71
1, 408440, Note_on_c, 0, 68, 29
1, 408441, Control_c, 0, 64, 73
1, 408453, Note_off_c, 0, 57, 63
1, 408455, Control_c, 0, 64, 74
1, 408461, Note_off_c, 0, 69, 63
1, 408471, Note_on_c, 0, 54, 80
1, 408477, Note_off_c, 0, 68, 42
1, 408478, Note_on_c, 0, 42, 68
1, 408501, Note_off_c, 0, 54, 62
1, 408527, Note_off_c, 0, 42, 59
1, 408559, Note_on_c, 0, 68, 76
1, 408563, Note_on_c, 0, 56, 86
1, 408573, Note_on_c, 0, 52, 68
1, 408588, Control_c, 0, 64, 69
1, 408593, Note_off_c, 0, 52, 63
1, 408602, Note_off_c, 0, 56, 61
1, 408603, Control_c, 0, 64, 0
1, 408617, Note_off_c, 0, 68, 63
1, 408662, Control_c, 0, 64, 37
1, 408665, Note_on_c, 0, 45, 88
1, 408665, Note_on_c, 0, 65, 67
1, 408666, Note_on_c, 0, 57, 96
1, 408668, Note_on_c, 0, 37, 78
1, 408675, Note_on_c, 0, 69, 73
1, 408677, Control_c, 0, 64, 65
1, 408692, Control_c, 0, 64, 70
1, 408695, Note_off_c, 0, 45, 67
1, 408697, Note_off_c, 0, 37, 65
1, 408699, Note_off_c, 0, 69, 71
1, 408701, Note_on_c, 0, 68, 31
1, 408701, Note_off_c, 0, 57, 66
1, 408706, Control_c, 0, 64, 76
1, 408721, Control_c, 0, 64, 78
1, 408728, Note_off_c, 0, 65, 66
1, 408736, Note_off_c, 0, 68, 55
1, 408754, Note_on_c, 0, 37, 80
1, 408754, Note_on_c, 0, 44, 88
1, 408763, Note_on_c, 0, 56, 97
1, 408767, Note_on_c, 0, 65, 67
1, 408774, Note_on_c, 0, 68, 64
1, 408788, Note_off_c, 0, 44, 64
1, 408801, Note_off_c, 0, 37, 59
1, 408812, Note_off_c, 0, 56, 61
1, 408814, Note_off_c, 0, 68, 62
1, 408824, Note_off_c, 0, 65, 64
1, 408852, Note_on_c, 0, 45, 89
1, 408855, Control_c, 0, 64, 78
1, 408857, Note_on_c, 0, 37, 63
1, 408866, Note_on_c, 0, 57, 95
1, 408867, Note_on_c, 0, 65, 71
1, 408873, Note_on_c, 0, 69, 75
1, 408887, Note_off_c, 0, 37, 68
1, 408891, Note_off_c, 0, 45, 67
1, 408899, Control_c, 0, 64, 77
1, 408900, Note_off_c, 0, 69, 67
1, 408901, Note_off_c, 0, 57, 68
1, 408912, Note_on_c, 0, 68, 23
1, 408914, Control_c, 0, 64, 77
1, 408933, Note_off_c, 0, 65, 65
1, 408958, Note_on_c, 0, 44, 92
1, 408969, Note_on_c, 0, 37, 70
1, 408974, Note_off_c, 0, 68, 0
1, 408975, Note_on_c, 0, 56, 95
1, 408981, Note_on_c, 0, 65, 61
1, 408984, Note_on_c, 0, 68, 55
1, 408996, Note_off_c, 0, 44, 62
1, 409008, Note_off_c, 0, 37, 62
1, 409017, Note_off_c, 0, 56, 48
1, 409022, Note_off_c, 0, 65, 48
1, 409026, Note_off_c, 0, 68, 62
1, 409028, Poly_aftertouch_c, 0, 45, 127
1, 409049, Note_on_c, 0, 37, 66
1, 409051, Note_on_c, 0, 45, 36
1, 409064, Note_on_c, 0, 44, 69
1, 409075, Note_on_c, 0, 57, 99
1, 409080, Note_on_c, 0, 65, 80
1, 409081, Note_on_c, 0, 69, 78
1, 409083, Note_off_c, 0, 44, 72
1, 409089, Note_off_c, 0, 45, 66
1, 409113, Note_off_c, 0, 57, 69
1, 409119, Note_off_c, 0, 69, 60
1, 409130, Control_c, 0, 64, 77
1, 409139, Note_off_c, 0, 65, 63
1, 409151, Note_on_c, 0, 45, 89
1, 409160, Control_c, 0, 64, 78
1, 409161, Note_on_c, 0, 44, 68
1, 409167, Poly_aftertouch_c, 0, 68, 127
1, 409171, Note_on_c, 0, 56, 100
1, 409173, Note_on_c, 0, 65, 68
1, 409183, Note_on_c, 0, 68, 3
1, 409187, Note_off_c, 0, 44, 65
1, 409198, Note_off_c, 0, 45, 63
1, 409206, Note_off_c, 0, 37, 64
1, 409216, Note_off_c, 0, 56, 63
1, 409219, Control_c, 0, 64, 77
1, 409231, Note_off_c, 0, 68, 61
1, 409234, Control_c, 0, 64, 68
1, 409234, Note_off_c, 0, 65, 65
1, 409249, Control_c, 0, 64, 0
1, 409252, Note_on_c, 0, 45, 89
1, 409258, Note_on_c, 0, 36, 85
1, 409270, Note_on_c, 0, 57, 99
1, 409270, Note_on_c, 0, 69, 91
1, 409272, Note_on_c, 0, 65, 77
1, 409283, Note_on_c, 0, 44, 34
1, 409293, Control_c, 0, 64, 38
1, 409304, Note_on_c, 0, 68, 32
1, 409308, Control_c, 0, 64, 75
1, 409317, Note_off_c, 0, 44, 45
1, 409321, Note_off_c, 0, 57, 61
1, 409323, Control_c, 0, 64, 108
1, 409326, Note_off_c, 0, 36, 62
1, 409326, Note_off_c, 0, 45, 63
1, 409329, Note_off_c, 0, 65, 65
1, 409335, Note_off_c, 0, 68, 48
1, 409337, Control_c, 0, 64, 127
1, 409365, Note_off_c, 0, 69, 62
1, 409382, Control_c, 0, 64, 106
1, 409397, Control_c, 0, 64, 75
1, 409411, Control_c, 0, 64, 0
1, 409579, Note_on_c, 0, 36, 75
1, 409581, Note_on_c, 0, 60, 99
1, 409584, Note_on_c, 0, 72, 89
1, 409585, Note_on_c, 0, 48, 96
1, 409587, Note_on_c, 0, 70, 80
1, 409588, Note_on_c, 0, 43, 81
1, 409588, Note_on_c, 0, 64, 83
1, 409604, Control_c, 0, 64, 85
1, 409619, Control_c, 0, 64, 127
1, 409627, Note_off_c, 0, 60, 66
1, 409636, Note_on_c, 0, 68, 30
1, 409639, Note_off_c, 0, 36, 62
1, 409641, Note_off_c, 0, 48, 65
1, 409642, Note_off_c, 0, 64, 64
1, 409645, Note_off_c, 0, 43, 61
1, 409653, Note_off_c, 0, 72, 65
1, 409658, Note_off_c, 0, 70, 63
1, 409685, Note_off_c, 0, 68, 53
1, 409715, Control_c, 0, 64, 102
1, 409729, Control_c, 0, 64, 76
1, 409744, Control_c, 0, 64, 0
1, 409891, Note_on_c, 0, 41, 79
1, 409891, Note_on_c, 0, 81, 95
1, 409892, Note_on_c, 0, 69, 102
1, 409894, Note_on_c, 0, 53, 97
1, 409899, Note_on_c, 0, 72, 97
1, 409899, Note_on_c, 0, 77, 83
1, 409901, Note_on_c, 0, 48, 77
1, 409909, Control_c, 0, 64, 76
1, 409924, Control_c, 0, 64, 121
1, 409939, Control_c, 0, 64, 127
1, 409942, Note_off_c, 0, 53, 65
1, 409948, Note_off_c, 0, 41, 65
1, 409963, Note_off_c, 0, 69, 66
1, 409964, Note_off_c, 0, 81, 60
1, 409967, Note_off_c, 0, 48, 64
1, 409979, Note_off_c, 0, 77, 57
1, 410000, Note_off_c, 0, 72, 62
1, 410027, Control_c, 0, 64, 96
1, 410042, Control_c, 0, 64, 65
1, 410057, Control_c, 0, 64, 0
1, 410200, Note_on_c, 0, 44, 77
1, 410202, Note_on_c, 0, 80, 85
1, 410203, Note_on_c, 0, 66, 102
1, 410205, Note_on_c, 0, 51, 92
1, 410206, Note_on_c, 0, 56, 99
1, 410209, Note_on_c, 0, 75, 89
1, 410210, Note_on_c, 0, 72, 90
1, 410213, Note_on_c, 0, 68, 90
1, 410221, Control_c, 0, 64, 71
1, 410235, Control_c, 0, 64, 127
1, 410239, Note_on_c, 0, 78, 51
1, 410261, Note_off_c, 0, 68, 59
1, 410264, Note_off_c, 0, 78, 56
1, 410270, Note_off_c, 0, 80, 64
1, 410273, Note_off_c, 0, 44, 63
1, 410276, Note_off_c, 0, 56, 65
1, 410281, Note_off_c, 0, 66, 65
1, 410291, Note_off_c, 0, 72, 63
1, 410295, Note_off_c, 0, 75, 65
1, 410306, Note_off_c, 0, 51, 59
1, 410353, Control_c, 0, 64, 98
1, 410368, Control_c, 0, 64, 71
1, 410383, Control_c, 0, 64, 0
1, 410566, Note_on_c, 0, 65, 98
1, 410567, Note_on_c, 0, 68, 97
1, 410569, Note_on_c, 0, 77, 91
1, 410572, Note_on_c, 0, 49, 73
1, 410572, Note_on_c, 0, 61, 95
1, 410572, Note_on_c, 0, 73, 79
1, 410581, Note_on_c, 0, 56, 78
1, 410583, Control_c, 0, 64, 81
1, 410593, Note_on_c, 0, 55, 75
1, 410599, Control_c, 0, 64, 127
1, 410614, Note_off_c, 0, 61, 65
1, 410617, Note_off_c, 0, 49, 60
1, 410619, Note_off_c, 0, 77, 64
1, 410623, Note_off_c, 0, 56, 63
1, 410627, Note_off_c, 0, 65, 65
1, 410638, Note_off_c, 0, 73, 64
1, 410641, Note_off_c, 0, 55, 62
1, 410650, Note_off_c, 0, 68, 65
1, 410668, Note_on_c, 0, 51, 14
1, 410701, Note_off_c, 0, 51, 34
1, 411143, Note_on_c, 0, 53, 102
1, 411144, Note_on_c, 0, 56, 95
1, 411146, Note_on_c, 0, 49, 102
1, 411148, Note_on_c, 0, 61, 81
1, 411149, Note_on_c, 0, 65, 77
1, 411150, Note_on_c, 0, 44, 85
1, 411152, Note_on_c, 0, 37, 67
1, 411185, Note_off_c, 0, 37, 66
1, 411187, Note_off_c, 0, 53, 68
1, 411207, Note_off_c, 0, 56, 67
1, 411209, Note_off_c, 0, 49, 61
1, 411210, Note_off_c, 0, 61, 66
1, 411218, Note_off_c, 0, 44, 64
1, 411222, Note_off_c, 0, 65, 66
1, 411462, Note_on_c, 0, 49, 52
1, 411477, Note_on_c, 0, 56, 80
1, 411496, Note_off_c, 0, 49, 64
1, 411512, Note_on_c, 0, 85, 87
1, 411514, Note_on_c, 0, 73, 95
1, 411516, Note_off_c, 0, 56, 65
1, 411517, Note_on_c, 0, 80, 91
1, 411525, Note_on_c, 0, 65, 89
1, 411542, Note_off_c, 0, 73, 64
1, 411545, Note_off_c, 0, 65, 73
1, 411559, Note_off_c, 0, 80, 66
1, 411574, Note_off_c, 0, 85, 66
1, 411973, Note_on_c, 0, 101, 104
1, 411976, Note_on_c, 0, 37, 93
1, 411982, Note_on_c, 0, 25, 91
1, 412003, Note_off_c, 0, 37, 66
1, 412011, Note_off_c, 0, 25, 65
1, 412021, Note_off_c, 0, 101, 68
1, 413741, Control_c, 0, 64, 93
1, 413756, Control_c, 0, 64, 51
1, 413771, Control_c, 0, 64, 0
1, 413771, End_track
0, 0, End_of_file
