0, 0, Header, 0, 1, 384
1, 0, Start_track
1, 0, Title_t, "Pour les huits doigts-J.Lisiecki"
1, 0, Text_t, "2008 e-Piano Junior Competition recital round"
1, 0, Text_t, "recorded July 2008"
1, 0, Text_t, "http://www.piano-e-competition.com/"
1, 0, Text_t, "File processed for distribution by software from Zenph Studios, Inc., http://www.zenph.com"
1, 0, Instrument_name_t, "Yamaha Disklavier Pro Mark IV concert grand piano, model DCFIIISM4PRO"
1, 0, Sequencer_specific, 39, 67, 113, 0, 1, 0, 1, 0, 80, 111, 117, 114, 32, 108, 101, 115, 32, 104, 117, 105, 116, 115, 46, 46, 74, 97, 110, 32, 76, 105, 115, 105, 101, 99, 107, 105, 32, 32, 32, 32
1, 0, Sequencer_specific, 6, 67, 113, 0, 0, 0, 69
1, 0, System_exclusive, 21, 67, 113, 126, 21, 0, 2, 2, 0, 3, 14, 1, 4, 1, 13, 13, 10, 11, 9, 2, 7, 247
1, 0, Sequencer_specific, 5, 67, 123, 12, 2, 1
1, 0, Tempo, 512820
1, 0, Time_signature, 4, 2, 24, 8
1, 0, System_exclusive, 5, 126, 127, 9, 1, 247
1, 1, System_exclusive, 8, 67, 16, 76, 0, 0, 126, 0, 247
1, 2, System_exclusive, 8, 67, 16, 76, 8, 9, 7, 1, 247
1, 3, Control_c, 0, 0, 0
1, 3, Control_c, 1, 0, 0
1, 3, Control_c, 2, 0, 0
1, 3, Control_c, 3, 0, 0
1, 3, Control_c, 4, 0, 0
1, 3, Control_c, 5, 0, 0
1, 3, Control_c, 6, 0, 0
1, 3, Control_c, 7, 0, 0
1, 3, Control_c, 8, 0, 0
1, 3, Control_c, 9, 0, 127
1, 3, Control_c, 10, 0, 0
1, 3, Control_c, 11, 0, 0
1, 3, Control_c, 12, 0, 0
1, 3, Control_c, 13, 0, 0
1, 3, Control_c, 14, 0, 0
1, 3, Control_c, 15, 0, 0
1, 4, Control_c, 0, 32, 0
1, 4, Control_c, 1, 32, 0
1, 4, Control_c, 2, 32, 0
1, 4, Control_c, 3, 32, 0
1, 4, Control_c, 4, 32, 0
1, 4, Control_c, 5, 32, 0
1, 4, Control_c, 6, 32, 0
1, 4, Control_c, 7, 32, 0
1, 4, Control_c, 8, 32, 0
1, 4, Control_c, 9, 32, 0
1, 4, Control_c, 10, 32, 0
1, 4, Control_c, 11, 32, 0
1, 4, Control_c, 12, 32, 0
1, 4, Control_c, 13, 32, 0
1, 4, Control_c, 14, 32, 0
1, 4, Control_c, 15, 32, 0
1, 5, Program_c, 0, 0
1, 5, Program_c, 1, 0
1, 5, Program_c, 2, 0
1, 5, Program_c, 3, 0
1, 5, Program_c, 4, 0
1, 5, Program_c, 5, 0
1, 5, Program_c, 6, 0
1, 5, Program_c, 7, 0
1, 5, Program_c, 8, 0
1, 5, Program_c, 9, 0
1, 5, Program_c, 10, 0
1, 5, Program_c, 11, 0
1, 5, Program_c, 12, 0
1, 5, Program_c, 13, 0
1, 5, Program_c, 14, 0
1, 5, Program_c, 15, 0
1, 6, Control_c, 0, 7, 100
1, 6, Control_c, 1, 7, 100
1, 6, Control_c, 2, 7, 100
1, 6, Control_c, 3, 7, 100
1, 6, Control_c, 4, 7, 100
1, 6, Control_c, 5, 7, 100
1, 6, Control_c, 6, 7, 100
1, 6, Control_c, 7, 7, 100
1, 6, Control_c, 8, 7, 100
1, 6, Control_c, 9, 7, 100
1, 6, Control_c, 10, 7, 100
1, 6, Control_c, 11, 7, 100
1, 6, Control_c, 12, 7, 100
1, 6, Control_c, 13, 7, 100
1, 6, Control_c, 14, 7, 100
1, 6, Control_c, 15, 7, 100
1, 117, Control_c, 0, 67, 4
1, 229, Control_c, 0, 67, 8
1, 341, Control_c, 0, 67, 12
1, 452, Control_c, 0, 67, 16
1, 564, Control_c, 0, 67, 20
1, 676, Control_c, 0, 67, 24
1, 787, Control_c, 0, 67, 28
1, 899, Control_c, 0, 67, 32
1, 1130, Note_on_c, 0, 59, 54
1, 1132, Control_c, 0, 67, 32
1, 1147, Control_c, 0, 67, 33
1, 1161, Control_c, 0, 67, 36
1, 1175, Note_on_c, 0, 61, 53
1, 1176, Control_c, 0, 67, 41
1, 1189, Note_off_c, 0, 59, 52
1, 1191, Control_c, 0, 67, 47
1, 1206, Control_c, 0, 67, 50
1, 1221, Control_c, 0, 67, 52
1, 1225, Note_off_c, 0, 61, 57
1, 1226, Note_on_c, 0, 63, 54
1, 1235, Control_c, 0, 67, 53
1, 1250, Control_c, 0, 67, 54
1, 1266, Note_on_c, 0, 65, 63
1, 1269, Note_off_c, 0, 63, 64
1, 1299, Note_off_c, 0, 65, 68
1, 1311, Note_on_c, 0, 66, 60
1, 1324, Control_c, 0, 67, 55
1, 1339, Control_c, 0, 67, 56
1, 1354, Control_c, 0, 67, 58
1, 1362, Note_off_c, 0, 66, 51
1, 1366, Note_on_c, 0, 65, 53
1, 1368, Control_c, 0, 67, 63
1, 1391, Control_c, 0, 67, 67
1, 1406, Control_c, 0, 67, 71
1, 1421, Control_c, 0, 67, 75
1, 1430, Note_off_c, 0, 65, 62
1, 1436, Control_c, 0, 67, 77
1, 1441, Note_on_c, 0, 63, 52
1, 1450, Control_c, 0, 67, 79
1, 1465, Control_c, 0, 67, 80
1, 1469, Note_off_c, 0, 63, 62
1, 1478, Note_on_c, 0, 61, 63
1, 1480, Control_c, 0, 67, 82
1, 1494, Control_c, 0, 67, 86
1, 1509, Control_c, 0, 67, 90
1, 1511, Note_off_c, 0, 61, 65
1, 1524, Control_c, 0, 67, 97
1, 1538, Note_on_c, 0, 63, 55
1, 1539, Control_c, 0, 67, 103
1, 1554, Control_c, 0, 67, 108
1, 1568, Control_c, 0, 67, 113
1, 1581, Note_on_c, 0, 65, 52
1, 1583, Control_c, 0, 67, 117
1, 1598, Control_c, 0, 67, 122
1, 1599, Note_off_c, 0, 63, 56
1, 1612, Control_c, 0, 67, 126
1, 1627, Control_c, 0, 67, 127
1, 1638, Note_on_c, 0, 66, 45
1, 1650, Note_off_c, 0, 65, 64
1, 1694, Note_off_c, 0, 66, 65
1, 1696, Note_on_c, 0, 68, 49
1, 1726, Note_off_c, 0, 68, 54
1, 1742, Note_on_c, 0, 70, 52
1, 1782, Note_off_c, 0, 70, 65
1, 1796, Note_on_c, 0, 68, 47
1, 1827, Note_off_c, 0, 68, 58
1, 1828, Note_on_c, 0, 66, 51
1, 1872, Note_off_c, 0, 66, 65
1, 1880, Note_on_c, 0, 65, 62
1, 1922, Note_off_c, 0, 65, 65
1, 1942, Note_on_c, 0, 63, 51
1, 1990, Note_on_c, 0, 65, 42
1, 2041, Note_on_c, 0, 66, 49
1, 2051, Note_off_c, 0, 65, 63
1, 2068, Note_off_c, 0, 63, 42
1, 2088, Note_off_c, 0, 66, 66
1, 2098, Note_on_c, 0, 68, 51
1, 2122, Note_off_c, 0, 68, 59
1, 2153, Note_on_c, 0, 66, 43
1, 2191, Note_off_c, 0, 66, 47
1, 2192, Note_on_c, 0, 65, 55
1, 2244, Note_off_c, 0, 65, 55
1, 2247, Note_on_c, 0, 63, 49
1, 2286, Note_off_c, 0, 63, 64
1, 2295, Note_on_c, 0, 61, 52
1, 2342, Note_off_c, 0, 61, 60
1, 2360, Note_on_c, 0, 59, 50
1, 2412, Note_off_c, 0, 59, 58
1, 2429, Note_on_c, 0, 61, 35
1, 2460, Note_on_c, 0, 63, 53
1, 2467, Note_off_c, 0, 61, 57
1, 2515, Note_off_c, 0, 63, 62
1, 2522, Note_on_c, 0, 65, 49
1, 2553, Note_off_c, 0, 65, 61
1, 2565, Note_on_c, 0, 66, 58
1, 2602, Note_off_c, 0, 66, 66
1, 2622, Note_on_c, 0, 65, 40
1, 2677, Note_on_c, 0, 63, 39
1, 2685, Note_off_c, 0, 65, 56
1, 2735, Note_off_c, 0, 63, 59
1, 2739, Note_on_c, 0, 61, 50
1, 2777, Note_off_c, 0, 61, 63
1, 2784, Note_on_c, 0, 59, 49
1, 2806, Control_c, 0, 64, 53
1, 2821, Control_c, 0, 64, 70
1, 2828, Note_on_c, 0, 60, 53
1, 2836, Control_c, 0, 64, 80
1, 2850, Control_c, 0, 64, 92
1, 2865, Note_off_c, 0, 59, 58
1, 2865, Control_c, 0, 64, 103
1, 2888, Control_c, 0, 64, 107
1, 2894, Note_on_c, 0, 62, 57
1, 2903, Note_off_c, 0, 60, 61
1, 2903, Control_c, 0, 64, 109
1, 2918, Control_c, 0, 64, 110
1, 2944, Note_on_c, 0, 64, 62
1, 2947, Control_c, 0, 64, 109
1, 2954, Note_off_c, 0, 62, 61
1, 2962, Control_c, 0, 64, 104
1, 2972, Note_on_c, 0, 65, 75
1, 2977, Control_c, 0, 64, 93
1, 2978, Note_off_c, 0, 64, 64
1, 2992, Control_c, 0, 64, 78
1, 3007, Control_c, 0, 64, 59
1, 3021, Control_c, 0, 64, 0
1, 3048, Note_off_c, 0, 65, 64
1, 3074, Poly_aftertouch_c, 0, 64, 0
1, 3075, Note_on_c, 0, 62, 61
1, 3134, Note_off_c, 0, 62, 60
1, 3145, Note_on_c, 0, 60, 44
1, 3180, Note_off_c, 0, 60, 49
1, 3207, Note_on_c, 0, 59, 53
1, 3243, Control_c, 0, 64, 64
1, 3258, Note_on_c, 0, 61, 52
1, 3258, Control_c, 0, 64, 71
1, 3269, Note_off_c, 0, 59, 54
1, 3273, Control_c, 0, 64, 76
1, 3288, Control_c, 0, 64, 81
1, 3301, Note_on_c, 0, 63, 56
1, 3302, Control_c, 0, 64, 84
1, 3317, Control_c, 0, 64, 85
1, 3323, Note_off_c, 0, 61, 54
1, 3332, Control_c, 0, 64, 85
1, 3370, Note_on_c, 0, 65, 62
1, 3373, Note_off_c, 0, 63, 62
1, 3377, Control_c, 0, 64, 84
1, 3391, Control_c, 0, 64, 82
1, 3407, Control_c, 0, 64, 75
1, 3413, Note_off_c, 0, 65, 63
1, 3419, Note_on_c, 0, 66, 67
1, 3422, Control_c, 0, 64, 64
1, 3437, Control_c, 0, 64, 0
1, 3483, Note_on_c, 0, 65, 42
1, 3511, Note_off_c, 0, 66, 60
1, 3520, Note_off_c, 0, 65, 67
1, 3526, Note_on_c, 0, 63, 61
1, 3579, Note_off_c, 0, 63, 64
1, 3589, Note_on_c, 0, 61, 57
1, 3621, Note_off_c, 0, 61, 64
1, 3621, Note_on_c, 0, 59, 52
1, 3681, Control_c, 0, 64, 61
1, 3691, Note_on_c, 0, 60, 42
1, 3696, Control_c, 0, 64, 69
1, 3711, Control_c, 0, 64, 74
1, 3717, Note_off_c, 0, 59, 56
1, 3726, Control_c, 0, 64, 81
1, 3741, Note_on_c, 0, 62, 56
1, 3741, Control_c, 0, 64, 84
1, 3744, Note_off_c, 0, 60, 60
1, 3756, Control_c, 0, 64, 85
1, 3791, Note_off_c, 0, 62, 59
1, 3792, Note_on_c, 0, 64, 57
1, 3800, Control_c, 0, 64, 84
1, 3815, Control_c, 0, 64, 80
1, 3821, Note_on_c, 0, 65, 70
1, 3821, Note_off_c, 0, 64, 64
1, 3829, Control_c, 0, 64, 68
1, 3844, Control_c, 0, 64, 0
1, 3884, Note_off_c, 0, 65, 66
1, 3903, Note_on_c, 0, 64, 36
1, 3908, Note_on_c, 0, 62, 63
1, 3933, Note_off_c, 0, 64, 55
1, 3969, Note_off_c, 0, 62, 61
1, 3976, Note_on_c, 0, 60, 59
1, 4015, Note_off_c, 0, 60, 60
1, 4042, Note_on_c, 0, 56, 54
1, 4073, Note_on_c, 0, 58, 57
1, 4095, Note_off_c, 0, 56, 62
1, 4131, Note_on_c, 0, 59, 40
1, 4149, Note_off_c, 0, 58, 58
1, 4182, Note_off_c, 0, 59, 60
1, 4197, Note_on_c, 0, 61, 48
1, 4216, Note_on_c, 0, 63, 53
1, 4271, Note_off_c, 0, 63, 64
1, 4328, Note_off_c, 0, 61, 50
1, 4355, Note_on_c, 0, 59, 40
1, 4402, Note_off_c, 0, 59, 62
1, 4418, Note_on_c, 0, 58, 51
1, 4449, Note_off_c, 0, 58, 63
1, 4462, Note_on_c, 0, 55, 47
1, 4529, Note_on_c, 0, 57, 41
1, 4541, Note_off_c, 0, 55, 54
1, 4569, Note_off_c, 0, 57, 57
1, 4578, Note_on_c, 0, 59, 37
1, 4620, Note_off_c, 0, 59, 54
1, 4633, Note_on_c, 0, 60, 44
1, 4664, Note_off_c, 0, 60, 59
1, 4667, Note_on_c, 0, 62, 57
1, 4741, Note_off_c, 0, 62, 59
1, 4758, Note_on_c, 0, 60, 45
1, 4787, Note_off_c, 0, 60, 53
1, 4796, Note_on_c, 0, 59, 50
1, 4835, Note_off_c, 0, 59, 62
1, 4859, Note_on_c, 0, 57, 40
1, 4888, Note_on_c, 0, 54, 50
1, 4890, Note_off_c, 0, 57, 50
1, 4947, Note_off_c, 0, 54, 58
1, 4990, Note_on_c, 0, 58, 47
1, 5037, Note_off_c, 0, 58, 62
1, 5043, Note_on_c, 0, 59, 51
1, 5075, Note_off_c, 0, 59, 54
1, 5106, Note_on_c, 0, 61, 32
1, 5144, Note_off_c, 0, 61, 59
1, 5178, Note_on_c, 0, 59, 36
1, 5209, Note_off_c, 0, 59, 53
1, 5225, Note_on_c, 0, 58, 47
1, 5265, Note_off_c, 0, 58, 64
1, 5298, Note_on_c, 0, 56, 34
1, 5298, Control_c, 0, 64, 57
1, 5313, Control_c, 0, 64, 64
1, 5328, Control_c, 0, 64, 66
1, 5330, Note_off_c, 0, 56, 48
1, 5342, Control_c, 0, 64, 69
1, 5345, Note_on_c, 0, 53, 50
1, 5357, Control_c, 0, 64, 73
1, 5372, Control_c, 0, 64, 80
1, 5387, Control_c, 0, 64, 87
1, 5401, Control_c, 0, 64, 91
1, 5416, Control_c, 0, 64, 94
1, 5425, Note_on_c, 0, 54, 35
1, 5431, Control_c, 0, 64, 96
1, 5446, Control_c, 0, 64, 99
1, 5452, Note_on_c, 0, 56, 36
1, 5461, Control_c, 0, 64, 100
1, 5476, Control_c, 0, 64, 101
1, 5490, Control_c, 0, 64, 101
1, 5503, Note_off_c, 0, 54, 39
1, 5509, Note_on_c, 0, 58, 58
1, 5510, Note_off_c, 0, 53, 63
1, 5517, Note_off_c, 0, 56, 58
1, 5541, Note_off_c, 0, 58, 65
1, 5562, Note_on_c, 0, 59, 48
1, 5604, Note_off_c, 0, 59, 59
1, 5607, Note_on_c, 0, 61, 56
1, 5624, Control_c, 0, 67, 124
1, 5631, Note_off_c, 0, 61, 63
1, 5639, Control_c, 0, 67, 115
1, 5650, Note_on_c, 0, 63, 62
1, 5653, Control_c, 0, 67, 105
1, 5668, Control_c, 0, 67, 94
1, 5683, Control_c, 0, 67, 87
1, 5684, Note_off_c, 0, 63, 62
1, 5698, Control_c, 0, 67, 81
1, 5713, Control_c, 0, 67, 75
1, 5726, Note_on_c, 0, 65, 70
1, 5727, Control_c, 0, 67, 69
1, 5742, Control_c, 0, 67, 62
1, 5757, Control_c, 0, 64, 101
1, 5757, Control_c, 0, 67, 56
1, 5765, Note_on_c, 0, 68, 69
1, 5772, Control_c, 0, 67, 51
1, 5779, Note_on_c, 0, 70, 68
1, 5786, Control_c, 0, 67, 47
1, 5788, Note_off_c, 0, 65, 67
1, 5803, Control_c, 0, 64, 100
1, 5803, Control_c, 0, 67, 43
1, 5818, Control_c, 0, 67, 38
1, 5832, Control_c, 0, 64, 100
1, 5832, Control_c, 0, 67, 34
1, 5847, Control_c, 0, 67, 31
1, 5851, Note_on_c, 0, 71, 68
1, 5862, Control_c, 0, 64, 99
1, 5862, Control_c, 0, 67, 30
1, 5866, Note_off_c, 0, 68, 64
1, 5911, Note_off_c, 0, 70, 62
1, 5914, Note_off_c, 0, 71, 63
1, 5922, Note_on_c, 0, 72, 54
1, 5942, Note_off_c, 0, 72, 60
1, 5944, Control_c, 0, 64, 99
1, 5959, Note_on_c, 0, 75, 72
1, 5988, Control_c, 0, 64, 98
1, 6002, Control_c, 0, 64, 98
1, 6012, Note_on_c, 0, 77, 82
1, 6017, Control_c, 0, 64, 96
1, 6026, Note_off_c, 0, 75, 63
1, 6031, Control_c, 0, 64, 94
1, 6031, Control_c, 0, 67, 30
1, 6046, Control_c, 0, 64, 91
1, 6061, Control_c, 0, 64, 88
1, 6065, Note_on_c, 0, 78, 74
1, 6076, Control_c, 0, 64, 84
1, 6076, Control_c, 0, 67, 30
1, 6090, Control_c, 0, 64, 80
1, 6090, Control_c, 0, 67, 31
1, 6094, Note_off_c, 0, 77, 56
1, 6105, Note_on_c, 0, 80, 71
1, 6105, Control_c, 0, 64, 74
1, 6105, Control_c, 0, 67, 31
1, 6120, Control_c, 0, 64, 67
1, 6120, Control_c, 0, 67, 32
1, 6135, Control_c, 0, 64, 58
1, 6135, Control_c, 0, 67, 37
1, 6149, Note_off_c, 0, 78, 63
1, 6150, Control_c, 0, 64, 0
1, 6150, Control_c, 0, 67, 43
1, 6164, Control_c, 0, 67, 52
1, 6167, Note_on_c, 0, 83, 74
1, 6179, Note_off_c, 0, 80, 62
1, 6179, Control_c, 0, 67, 72
1, 6194, Control_c, 0, 67, 94
1, 6209, Control_c, 0, 67, 121
1, 6224, Control_c, 0, 67, 127
1, 6226, Note_on_c, 0, 81, 71
1, 6256, Note_off_c, 0, 83, 59
1, 6274, Note_on_c, 0, 80, 72
1, 6284, Note_off_c, 0, 81, 64
1, 6305, Note_on_c, 0, 78, 67
1, 6319, Note_off_c, 0, 80, 65
1, 6329, Note_off_c, 0, 78, 68
1, 6363, Note_on_c, 0, 76, 52
1, 6403, Note_on_c, 0, 75, 49
1, 6432, Note_off_c, 0, 76, 63
1, 6445, Note_on_c, 0, 73, 54
1, 6458, Note_off_c, 0, 75, 57
1, 6493, Note_off_c, 0, 73, 56
1, 6502, Note_on_c, 0, 71, 49
1, 6536, Note_on_c, 0, 69, 52
1, 6540, Note_off_c, 0, 71, 54
1, 6596, Note_on_c, 0, 68, 60
1, 6602, Note_off_c, 0, 69, 63
1, 6641, Note_off_c, 0, 68, 67
1, 6657, Note_on_c, 0, 66, 61
1, 6678, Note_off_c, 0, 66, 67
1, 6695, Note_on_c, 0, 64, 59
1, 6726, Note_off_c, 0, 64, 65
1, 6737, Note_on_c, 0, 61, 57
1, 6798, Note_on_c, 0, 59, 62
1, 6830, Note_off_c, 0, 61, 55
1, 6861, Note_on_c, 0, 57, 60
1, 6919, Note_off_c, 0, 59, 34
1, 6929, Note_on_c, 0, 56, 57
1, 6950, Note_off_c, 0, 57, 43
1, 6969, Note_on_c, 0, 53, 14
1, 6986, Note_off_c, 0, 56, 61
1, 7020, Note_on_c, 0, 54, 56
1, 7053, Poly_aftertouch_c, 0, 55, 0
1, 7067, Note_off_c, 0, 53, 40
1, 7067, Note_on_c, 0, 56, 39
1, 7093, Note_off_c, 0, 54, 58
1, 7119, Note_on_c, 0, 58, 52
1, 7123, Note_off_c, 0, 56, 61
1, 7157, Note_off_c, 0, 58, 66
1, 7175, Note_on_c, 0, 60, 58
1, 7243, Note_on_c, 0, 59, 46
1, 7258, Note_off_c, 0, 60, 58
1, 7283, Note_on_c, 0, 57, 52
1, 7333, Note_off_c, 0, 57, 57
1, 7336, Note_off_c, 0, 59, 36
1, 7345, Note_on_c, 0, 55, 43
1, 7385, Note_off_c, 0, 55, 56
1, 7409, Note_on_c, 0, 56, 38
1, 7443, Note_on_c, 0, 58, 47
1, 7506, Note_on_c, 0, 59, 38
1, 7525, Note_off_c, 0, 56, 35
1, 7561, Note_off_c, 0, 58, 60
1, 7576, Note_off_c, 0, 59, 60
1, 7586, Note_on_c, 0, 61, 45
1, 7607, Note_on_c, 0, 62, 57
1, 7631, Note_off_c, 0, 61, 59
1, 7669, Note_on_c, 0, 60, 44
1, 7683, Note_off_c, 0, 62, 56
1, 7711, Note_on_c, 0, 59, 52
1, 7723, Note_off_c, 0, 60, 56
1, 7768, Note_off_c, 0, 59, 51
1, 7780, Note_on_c, 0, 57, 49
1, 7830, Note_on_c, 0, 53, 39
1, 7832, Note_off_c, 0, 57, 59
1, 7882, Note_on_c, 0, 54, 42
1, 7895, Note_off_c, 0, 53, 45
1, 7934, Note_on_c, 0, 56, 51
1, 7947, Note_off_c, 0, 54, 55
1, 7993, Note_off_c, 0, 56, 60
1, 8000, Note_on_c, 0, 58, 43
1, 8039, Note_on_c, 0, 60, 53
1, 8041, Note_off_c, 0, 58, 57
1, 8103, Note_on_c, 0, 59, 49
1, 8114, Note_off_c, 0, 60, 54
1, 8162, Note_off_c, 0, 59, 54
1, 8165, Note_on_c, 0, 57, 39
1, 8206, Note_off_c, 0, 57, 59
1, 8220, Note_on_c, 0, 55, 50
1, 8260, Note_off_c, 0, 55, 63
1, 8263, Note_on_c, 0, 56, 46
1, 8296, Note_on_c, 0, 58, 43
1, 8352, Note_off_c, 0, 56, 58
1, 8379, Note_on_c, 0, 59, 46
1, 8389, Note_off_c, 0, 58, 60
1, 8433, Note_on_c, 0, 61, 51
1, 8438, Note_off_c, 0, 59, 60
1, 8459, Note_on_c, 0, 62, 47
1, 8471, Note_off_c, 0, 61, 63
1, 8526, Note_on_c, 0, 60, 44
1, 8549, Note_off_c, 0, 62, 53
1, 8565, Note_on_c, 0, 59, 58
1, 8589, Note_off_c, 0, 60, 51
1, 8637, Note_off_c, 0, 59, 56
1, 8652, Note_on_c, 0, 57, 34
1, 8678, Control_c, 0, 64, 56
1, 8684, Note_off_c, 0, 57, 51
1, 8693, Control_c, 0, 64, 62
1, 8700, Note_on_c, 0, 61, 51
1, 8708, Control_c, 0, 64, 64
1, 8719, Note_on_c, 0, 63, 49
1, 8723, Control_c, 0, 64, 66
1, 8738, Control_c, 0, 64, 68
1, 8752, Control_c, 0, 64, 70
1, 8767, Control_c, 0, 64, 74
1, 8769, Note_off_c, 0, 61, 50
1, 8778, Note_on_c, 0, 65, 55
1, 8782, Control_c, 0, 64, 79
1, 8796, Control_c, 0, 64, 83
1, 8811, Control_c, 0, 64, 85
1, 8814, Note_off_c, 0, 63, 58
1, 8826, Control_c, 0, 64, 87
1, 8841, Control_c, 0, 64, 90
1, 8844, Note_on_c, 0, 66, 58
1, 8850, Note_off_c, 0, 65, 63
1, 8856, Control_c, 0, 64, 92
1, 8878, Control_c, 0, 64, 95
1, 8878, Control_c, 0, 67, 124
1, 8886, Note_on_c, 0, 67, 66
1, 8887, Note_off_c, 0, 66, 66
1, 8893, Control_c, 0, 64, 98
1, 8893, Control_c, 0, 67, 105
1, 8908, Control_c, 0, 64, 101
1, 8908, Control_c, 0, 67, 74
1, 8923, Control_c, 0, 64, 103
1, 8923, Control_c, 0, 67, 44
1, 8938, Control_c, 0, 64, 105
1, 8938, Control_c, 0, 67, 18
1, 8951, Note_on_c, 0, 65, 56
1, 8952, Control_c, 0, 64, 106
1, 8952, Control_c, 0, 67, 0
1, 8967, Control_c, 0, 64, 107
1, 8982, Note_off_c, 0, 67, 61
1, 8982, Control_c, 0, 64, 108
1, 8993, Note_on_c, 0, 64, 62
1, 8998, Control_c, 0, 64, 109
1, 9018, Note_off_c, 0, 65, 56
1, 9027, Control_c, 0, 64, 109
1, 9037, Note_on_c, 0, 78, 44
1, 9050, Note_off_c, 0, 64, 64
1, 9051, Note_on_c, 0, 62, 64
1, 9085, Note_off_c, 0, 62, 62
1, 9097, Note_off_c, 0, 78, 43
1, 9115, Note_on_c, 0, 73, 79
1, 9127, Note_on_c, 0, 75, 76
1, 9190, Note_on_c, 0, 77, 74
1, 9202, Note_off_c, 0, 73, 60
1, 9242, Note_on_c, 0, 78, 81
1, 9245, Note_off_c, 0, 75, 62
1, 9249, Control_c, 0, 64, 109
1, 9261, Note_off_c, 0, 77, 62
1, 9264, Control_c, 0, 64, 107
1, 9279, Control_c, 0, 64, 103
1, 9287, Note_off_c, 0, 78, 66
1, 9294, Control_c, 0, 64, 102
1, 9304, Note_on_c, 0, 79, 83
1, 9309, Control_c, 0, 64, 101
1, 9324, Control_c, 0, 64, 100
1, 9339, Control_c, 0, 64, 100
1, 9354, Control_c, 0, 64, 99
1, 9354, Note_on_c, 0, 77, 65
1, 9368, Control_c, 0, 64, 97
1, 9383, Control_c, 0, 64, 93
1, 9386, Note_on_c, 0, 76, 77
1, 9398, Control_c, 0, 64, 89
1, 9412, Note_off_c, 0, 79, 59
1, 9413, Control_c, 0, 64, 83
1, 9427, Control_c, 0, 64, 77
1, 9442, Control_c, 0, 64, 70
1, 9443, Note_off_c, 0, 77, 56
1, 9447, Note_on_c, 0, 74, 69
1, 9455, Note_off_c, 0, 76, 65
1, 9457, Control_c, 0, 64, 61
1, 9472, Control_c, 0, 64, 0
1, 9497, Note_on_c, 0, 85, 64
1, 9516, Note_off_c, 0, 74, 62
1, 9552, Note_on_c, 0, 83, 58
1, 9575, Control_c, 0, 64, 44
1, 9577, Note_off_c, 0, 85, 63
1, 9590, Control_c, 0, 64, 68
1, 9605, Control_c, 0, 64, 76
1, 9622, Note_on_c, 0, 82, 66
1, 9627, Control_c, 0, 64, 83
1, 9635, Note_off_c, 0, 83, 62
1, 9642, Control_c, 0, 64, 88
1, 9657, Control_c, 0, 64, 89
1, 9669, Note_on_c, 0, 80, 53
1, 9672, Control_c, 0, 64, 90
1, 9675, Note_off_c, 0, 82, 64
1, 9677, Note_on_c, 0, 79, 65
1, 9687, Control_c, 0, 64, 91
1, 9690, Note_off_c, 0, 80, 62
1, 9701, Control_c, 0, 64, 91
1, 9716, Control_c, 0, 64, 92
1, 9739, Note_on_c, 0, 77, 45
1, 9745, Control_c, 0, 64, 92
1, 9750, Note_off_c, 0, 79, 58
1, 9756, Note_on_c, 0, 76, 62
1, 9774, Note_off_c, 0, 77, 51
1, 9808, Note_off_c, 0, 76, 58
1, 9810, Note_on_c, 0, 74, 60
1, 9834, Note_on_c, 0, 73, 64
1, 9852, Note_off_c, 0, 74, 65
1, 9894, Note_on_c, 0, 71, 56
1, 9898, Note_off_c, 0, 73, 62
1, 9923, Control_c, 0, 64, 92
1, 9929, Note_on_c, 0, 70, 59
1, 9953, Note_off_c, 0, 71, 63
1, 9953, Control_c, 0, 64, 91
1, 9976, Note_on_c, 0, 68, 47
1, 9980, Note_off_c, 0, 70, 63
1, 9983, Control_c, 0, 64, 91
1, 9998, Control_c, 0, 64, 90
1, 9999, Note_off_c, 0, 68, 58
1, 10018, Note_on_c, 0, 67, 66
1, 10027, Control_c, 0, 64, 90
1, 10027, Control_c, 0, 67, 8
1, 10042, Control_c, 0, 64, 89
1, 10042, Control_c, 0, 67, 13
1, 10057, Control_c, 0, 64, 88
1, 10057, Control_c, 0, 67, 20
1, 10068, Note_on_c, 0, 65, 64
1, 10072, Control_c, 0, 64, 86
1, 10072, Control_c, 0, 67, 29
1, 10087, Control_c, 0, 64, 82
1, 10087, Control_c, 0, 67, 38
1, 10096, Note_off_c, 0, 67, 59
1, 10099, Note_on_c, 0, 64, 65
1, 10102, Control_c, 0, 64, 75
1, 10102, Control_c, 0, 67, 46
1, 10116, Control_c, 0, 64, 66
1, 10116, Control_c, 0, 67, 55
1, 10131, Control_c, 0, 64, 0
1, 10131, Control_c, 0, 67, 61
1, 10146, Control_c, 0, 67, 66
1, 10153, Note_off_c, 0, 65, 56
1, 10161, Control_c, 0, 67, 72
1, 10161, Note_off_c, 0, 64, 64
1, 10162, Note_on_c, 0, 62, 60
1, 10176, Control_c, 0, 67, 78
1, 10182, Note_on_c, 0, 61, 65
1, 10190, Control_c, 0, 67, 84
1, 10205, Control_c, 0, 67, 90
1, 10215, Note_off_c, 0, 62, 61
1, 10220, Control_c, 0, 67, 94
1, 10235, Control_c, 0, 67, 94
1, 10236, Note_on_c, 0, 63, 52
1, 10249, Control_c, 0, 64, 51
1, 10264, Control_c, 0, 64, 68
1, 10266, Note_off_c, 0, 61, 59
1, 10278, Note_on_c, 0, 65, 59
1, 10279, Control_c, 0, 64, 75
1, 10288, Note_on_c, 0, 64, 62
1, 10294, Control_c, 0, 64, 82
1, 10309, Control_c, 0, 64, 87
1, 10309, Control_c, 0, 67, 95
1, 10315, Note_off_c, 0, 64, 55
1, 10316, Note_off_c, 0, 63, 63
1, 10323, Note_on_c, 0, 66, 64
1, 10323, Control_c, 0, 64, 90
1, 10323, Control_c, 0, 67, 99
1, 10325, Note_off_c, 0, 65, 64
1, 10338, Control_c, 0, 64, 92
1, 10338, Control_c, 0, 67, 107
1, 10353, Control_c, 0, 64, 93
1, 10353, Control_c, 0, 67, 116
1, 10354, Note_off_c, 0, 66, 68
1, 10373, Note_on_c, 0, 67, 69
1, 10375, Control_c, 0, 64, 94
1, 10375, Control_c, 0, 67, 123
1, 10390, Control_c, 0, 64, 95
1, 10390, Control_c, 0, 67, 127
1, 10405, Control_c, 0, 64, 95
1, 10415, Note_off_c, 0, 67, 66
1, 10429, Note_on_c, 0, 69, 77
1, 10467, Note_off_c, 0, 69, 69
1, 10480, Note_on_c, 0, 71, 64
1, 10524, Note_on_c, 0, 72, 78
1, 10525, Note_off_c, 0, 71, 66
1, 10561, Note_on_c, 0, 73, 80
1, 10561, Note_off_c, 0, 72, 69
1, 10576, Note_on_c, 0, 75, 78
1, 10582, Control_c, 0, 64, 95
1, 10627, Note_on_c, 0, 77, 73
1, 10628, Control_c, 0, 64, 94
1, 10628, Control_c, 0, 67, 125
1, 10643, Control_c, 0, 67, 123
1, 10653, Note_off_c, 0, 73, 64
1, 10658, Control_c, 0, 64, 94
1, 10658, Control_c, 0, 67, 121
1, 10666, Note_on_c, 0, 78, 85
1, 10672, Control_c, 0, 64, 93
1, 10672, Control_c, 0, 67, 117
1, 10675, Note_off_c, 0, 75, 65
1, 10687, Control_c, 0, 64, 93
1, 10687, Control_c, 0, 67, 113
1, 10692, Note_off_c, 0, 77, 62
1, 10702, Control_c, 0, 67, 111
1, 10706, Note_off_c, 0, 78, 65
1, 10716, Note_on_c, 0, 79, 77
1, 10717, Control_c, 0, 64, 92
1, 10732, Control_c, 0, 67, 111
1, 10746, Control_c, 0, 64, 92
1, 10746, Control_c, 0, 67, 112
1, 10761, Control_c, 0, 67, 111
1, 10764, Note_on_c, 0, 81, 83
1, 10776, Control_c, 0, 64, 91
1, 10791, Note_off_c, 0, 79, 38
1, 10791, Control_c, 0, 64, 90
1, 10791, Control_c, 0, 67, 111
1, 10805, Control_c, 0, 64, 88
1, 10805, Control_c, 0, 67, 110
1, 10808, Note_on_c, 0, 83, 74
1, 10820, Control_c, 0, 64, 86
1, 10820, Control_c, 0, 67, 111
1, 10835, Control_c, 0, 64, 83
1, 10835, Control_c, 0, 67, 112
1, 10846, Note_on_c, 0, 84, 59
1, 10850, Control_c, 0, 64, 77
1, 10850, Control_c, 0, 67, 113
1, 10865, Control_c, 0, 64, 67
1, 10877, Note_off_c, 0, 81, 50
1, 10880, Control_c, 0, 64, 0
1, 10880, Control_c, 0, 67, 114
1, 10886, Note_off_c, 0, 83, 60
1, 10910, Control_c, 0, 67, 115
1, 10921, Note_on_c, 0, 87, 77
1, 10925, Control_c, 0, 67, 117
1, 10934, Note_off_c, 0, 84, 63
1, 10939, Control_c, 0, 67, 118
1, 10954, Control_c, 0, 67, 120
1, 10969, Control_c, 0, 67, 122
1, 10984, Control_c, 0, 67, 123
1, 10998, Control_c, 0, 67, 124
1, 11013, Control_c, 0, 67, 124
1, 11020, Note_off_c, 0, 87, 58
1, 11028, Control_c, 0, 64, 61
1, 11031, Note_on_c, 0, 83, 59
1, 11043, Control_c, 0, 64, 68
1, 11043, Control_c, 0, 67, 125
1, 11053, Poly_aftertouch_c, 0, 86, 0
1, 11058, Control_c, 0, 64, 74
1, 11058, Control_c, 0, 67, 126
1, 11072, Control_c, 0, 64, 80
1, 11072, Control_c, 0, 67, 127
1, 11078, Note_on_c, 0, 82, 61
1, 11084, Note_off_c, 0, 83, 62
1, 11087, Control_c, 0, 64, 86
1, 11094, Note_on_c, 0, 80, 64
1, 11101, Note_on_c, 0, 78, 52
1, 11102, Control_c, 0, 64, 89
1, 11103, Note_off_c, 0, 82, 67
1, 11124, Control_c, 0, 64, 92
1, 11139, Control_c, 0, 64, 93
1, 11154, Control_c, 0, 64, 94
1, 11165, Note_on_c, 0, 77, 70
1, 11167, Note_off_c, 0, 80, 62
1, 11169, Control_c, 0, 64, 95
1, 11209, Note_off_c, 0, 78, 57
1, 11227, Note_off_c, 0, 77, 61
1, 11239, Note_on_c, 0, 75, 60
1, 11266, Note_on_c, 0, 73, 57
1, 11266, Note_off_c, 0, 75, 66
1, 11328, Note_on_c, 0, 71, 46
1, 11336, Note_off_c, 0, 73, 61
1, 11346, Control_c, 0, 64, 94
1, 11354, Note_on_c, 0, 70, 56
1, 11376, Control_c, 0, 64, 93
1, 11378, Note_off_c, 0, 71, 62
1, 11391, Control_c, 0, 64, 93
1, 11396, Note_off_c, 0, 70, 62
1, 11407, Control_c, 0, 64, 91
1, 11414, Note_on_c, 0, 68, 38
1, 11421, Control_c, 0, 64, 90
1, 11436, Control_c, 0, 64, 87
1, 11443, Note_off_c, 0, 68, 55
1, 11451, Control_c, 0, 64, 82
1, 11466, Control_c, 0, 64, 75
1, 11470, Note_on_c, 0, 66, 53
1, 11481, Control_c, 0, 64, 64
1, 11495, Control_c, 0, 64, 0
1, 11519, Note_off_c, 0, 66, 46
1, 11534, Note_on_c, 0, 63, 47
1, 11571, Note_on_c, 0, 61, 47
1, 11582, Note_off_c, 0, 63, 50
1, 11607, Note_off_c, 0, 61, 63
1, 11637, Note_on_c, 0, 58, 47
1, 11686, Note_off_c, 0, 58, 59
1, 11687, Note_on_c, 0, 60, 39
1, 11718, Control_c, 0, 64, 11
1, 11722, Note_on_c, 0, 62, 53
1, 11732, Control_c, 0, 64, 0
1, 11733, Note_off_c, 0, 60, 50
1, 11766, Note_off_c, 0, 62, 61
1, 11794, Note_on_c, 0, 63, 5
1, 11811, Note_on_c, 0, 67, 50
1, 11858, Note_on_c, 0, 65, 43
1, 11890, Note_off_c, 0, 67, 51
1, 11891, Note_off_c, 0, 63, 0
1, 11891, Note_on_c, 0, 63, 39
1, 11917, Note_off_c, 0, 65, 58
1, 11960, Note_on_c, 0, 62, 54
1, 11974, Note_off_c, 0, 63, 62
1, 11997, Note_off_c, 0, 62, 62
1, 12021, Note_on_c, 0, 65, 45
1, 12073, Note_on_c, 0, 67, 45
1, 12106, Note_on_c, 0, 68, 57
1, 12108, Note_off_c, 0, 65, 61
1, 12145, Note_off_c, 0, 67, 64
1, 12157, Note_on_c, 0, 70, 56
1, 12162, Note_off_c, 0, 68, 62
1, 12188, Note_off_c, 0, 70, 65
1, 12209, Note_on_c, 0, 74, 58
1, 12260, Note_on_c, 0, 72, 46
1, 12280, Note_on_c, 0, 70, 60
1, 12305, Note_off_c, 0, 72, 49
1, 12329, Note_off_c, 0, 74, 38
1, 12333, Note_on_c, 0, 68, 51
1, 12361, Note_off_c, 0, 70, 0
1, 12371, Note_off_c, 0, 68, 66
1, 12374, Note_on_c, 0, 70, 45
1, 12426, Note_on_c, 0, 72, 52
1, 12457, Note_off_c, 0, 70, 63
1, 12475, Note_on_c, 0, 74, 52
1, 12508, Note_off_c, 0, 72, 64
1, 12531, Note_on_c, 0, 75, 58
1, 12534, Note_off_c, 0, 74, 64
1, 12563, Note_off_c, 0, 75, 67
1, 12575, Note_on_c, 0, 79, 50
1, 12609, Note_on_c, 0, 77, 52
1, 12666, Note_on_c, 0, 75, 55
1, 12684, Note_off_c, 0, 77, 54
1, 12709, Note_off_c, 0, 75, 62
1, 12710, Note_off_c, 0, 79, 34
1, 12716, Note_on_c, 0, 74, 46
1, 12739, Note_off_c, 0, 74, 60
1, 12746, Note_on_c, 0, 77, 47
1, 12798, Note_on_c, 0, 79, 42
1, 12826, Note_off_c, 0, 77, 56
1, 12840, Note_on_c, 0, 80, 60
1, 12874, Note_off_c, 0, 79, 62
1, 12898, Note_off_c, 0, 80, 64
1, 12902, Note_on_c, 0, 82, 52
1, 12924, Note_off_c, 0, 82, 62
1, 12950, Note_on_c, 0, 86, 56
1, 12990, Note_on_c, 0, 84, 45
1, 13002, Note_off_c, 0, 86, 55
1, 13026, Note_on_c, 0, 82, 52
1, 13038, Note_off_c, 0, 84, 46
1, 13065, Note_off_c, 0, 82, 62
1, 13083, Control_c, 0, 64, 61
1, 13084, Note_on_c, 0, 80, 47
1, 13098, Control_c, 0, 64, 71
1, 13112, Note_off_c, 0, 80, 55
1, 13113, Control_c, 0, 64, 79
1, 13121, Note_on_c, 0, 87, 65
1, 13127, Control_c, 0, 64, 85
1, 13142, Control_c, 0, 64, 87
1, 13157, Control_c, 0, 64, 89
1, 13161, Note_off_c, 0, 87, 57
1, 13172, Control_c, 0, 64, 90
1, 13187, Control_c, 0, 64, 92
1, 13187, Note_on_c, 0, 89, 64
1, 13201, Control_c, 0, 64, 93
1, 13231, Note_on_c, 0, 87, 64
1, 13234, Note_off_c, 0, 89, 63
1, 13275, Note_on_c, 0, 89, 59
1, 13275, Control_c, 0, 64, 92
1, 13284, Note_off_c, 0, 87, 64
1, 13290, Control_c, 0, 64, 90
1, 13304, Note_off_c, 0, 89, 68
1, 13305, Control_c, 0, 64, 86
1, 13320, Control_c, 0, 64, 79
1, 13335, Control_c, 0, 64, 69
1, 13349, Control_c, 0, 64, 46
1, 13351, Note_on_c, 0, 80, 57
1, 13372, Control_c, 0, 64, 0
1, 13388, Note_off_c, 0, 80, 63
1, 13402, Note_on_c, 0, 82, 63
1, 13437, Note_off_c, 0, 82, 61
1, 13461, Note_on_c, 0, 80, 60
1, 13481, Note_off_c, 0, 80, 61
1, 13507, Note_on_c, 0, 82, 61
1, 13532, Note_on_c, 0, 75, 63
1, 13535, Control_c, 0, 64, 46
1, 13539, Note_off_c, 0, 82, 62
1, 13549, Control_c, 0, 64, 68
1, 13564, Control_c, 0, 64, 74
1, 13566, Note_off_c, 0, 75, 62
1, 13579, Control_c, 0, 64, 81
1, 13593, Note_on_c, 0, 77, 63
1, 13593, Control_c, 0, 64, 83
1, 13638, Control_c, 0, 64, 82
1, 13640, Note_on_c, 0, 75, 64
1, 13640, Note_off_c, 0, 77, 59
1, 13653, Control_c, 0, 64, 80
1, 13667, Control_c, 0, 64, 74
1, 13682, Control_c, 0, 64, 61
1, 13697, Note_on_c, 0, 77, 50
1, 13697, Control_c, 0, 64, 0
1, 13709, Note_off_c, 0, 75, 64
1, 13730, Note_on_c, 0, 80, 59
1, 13730, Note_off_c, 0, 77, 59
1, 13759, Note_off_c, 0, 80, 63
1, 13775, Note_on_c, 0, 82, 67
1, 13815, Note_off_c, 0, 82, 60
1, 13837, Note_on_c, 0, 80, 69
1, 13870, Note_off_c, 0, 80, 63
1, 13894, Note_on_c, 0, 75, 52
1, 13905, Control_c, 0, 64, 60
1, 13908, Note_on_c, 0, 82, 17
1, 13920, Note_off_c, 0, 82, 36
1, 13920, Control_c, 0, 64, 69
1, 13929, Note_off_c, 0, 75, 60
1, 13935, Control_c, 0, 64, 74
1, 13950, Control_c, 0, 64, 79
1, 13962, Note_on_c, 0, 77, 61
1, 13965, Control_c, 0, 64, 82
1, 13980, Control_c, 0, 64, 84
1, 13995, Control_c, 0, 64, 85
1, 13999, Note_on_c, 0, 75, 74
1, 14004, Note_off_c, 0, 77, 62
1, 14010, Control_c, 0, 64, 86
1, 14021, Note_off_c, 0, 75, 69
1, 14054, Control_c, 0, 64, 85
1, 14069, Control_c, 0, 64, 84
1, 14078, Note_on_c, 0, 68, 60
1, 14084, Control_c, 0, 64, 81
1, 14098, Control_c, 0, 64, 76
1, 14120, Note_off_c, 0, 68, 66
1, 14120, Control_c, 0, 64, 67
1, 14133, Note_on_c, 0, 70, 65
1, 14135, Control_c, 0, 64, 37
1, 14150, Control_c, 0, 64, 0
1, 14172, Note_off_c, 0, 70, 62
1, 14196, Note_on_c, 0, 68, 68
1, 14226, Note_off_c, 0, 68, 66
1, 14245, Note_on_c, 0, 70, 58
1, 14280, Note_off_c, 0, 70, 62
1, 14302, Note_on_c, 0, 63, 53
1, 14339, Note_off_c, 0, 63, 65
1, 14354, Note_on_c, 0, 65, 61
1, 14397, Note_off_c, 0, 65, 65
1, 14416, Note_on_c, 0, 63, 62
1, 14475, Note_on_c, 0, 65, 55
1, 14478, Note_off_c, 0, 63, 64
1, 14486, Note_on_c, 0, 68, 59
1, 14510, Note_off_c, 0, 65, 65
1, 14521, Note_off_c, 0, 68, 64
1, 14537, Note_on_c, 0, 70, 59
1, 14569, Note_off_c, 0, 70, 56
1, 14597, Note_on_c, 0, 68, 52
1, 14633, Note_off_c, 0, 68, 61
1, 14639, Control_c, 0, 64, 47
1, 14647, Note_on_c, 0, 70, 60
1, 14654, Control_c, 0, 64, 62
1, 14667, Note_off_c, 0, 70, 65
1, 14669, Control_c, 0, 64, 65
1, 14684, Control_c, 0, 64, 67
1, 14698, Control_c, 0, 64, 70
1, 14700, Note_on_c, 0, 58, 58
1, 14713, Control_c, 0, 64, 74
1, 14728, Control_c, 0, 64, 81
1, 14743, Control_c, 0, 64, 85
1, 14753, Note_off_c, 0, 58, 58
1, 14758, Control_c, 0, 64, 87
1, 14770, Note_on_c, 0, 60, 68
1, 14773, Control_c, 0, 64, 89
1, 14787, Control_c, 0, 64, 90
1, 14796, Note_on_c, 0, 58, 47
1, 14802, Control_c, 0, 64, 92
1, 14817, Control_c, 0, 64, 93
1, 14826, Note_off_c, 0, 60, 63
1, 14829, Note_off_c, 0, 58, 66
1, 14846, Control_c, 0, 64, 94
1, 14882, Note_on_c, 0, 63, 75
1, 14925, Note_off_c, 0, 63, 59
1, 14929, Note_on_c, 0, 68, 74
1, 14990, Note_on_c, 0, 63, 75
1, 14992, Note_off_c, 0, 68, 62
1, 15035, Note_on_c, 0, 68, 69
1, 15044, Note_off_c, 0, 63, 63
1, 15103, Note_off_c, 0, 68, 63
1, 15105, Note_on_c, 0, 75, 84
1, 15137, Note_on_c, 0, 77, 58
1, 15150, Control_c, 0, 64, 93
1, 15157, Note_off_c, 0, 77, 61
1, 15163, Note_off_c, 0, 75, 62
1, 15164, Control_c, 0, 64, 92
1, 15179, Control_c, 0, 64, 88
1, 15194, Control_c, 0, 64, 83
1, 15209, Control_c, 0, 64, 71
1, 15215, Note_on_c, 0, 77, 91
1, 15218, Note_on_c, 0, 75, 57
1, 15224, Control_c, 0, 64, 14
1, 15238, Control_c, 0, 64, 0
1, 15256, Note_off_c, 0, 77, 64
1, 15257, Note_off_c, 0, 75, 66
1, 15284, Note_on_c, 0, 68, 51
1, 15307, Note_on_c, 0, 63, 64
1, 15307, Note_off_c, 0, 68, 58
1, 15347, Note_off_c, 0, 63, 65
1, 15363, Note_on_c, 0, 68, 66
1, 15408, Note_off_c, 0, 68, 54
1, 15432, Note_on_c, 0, 63, 63
1, 15469, Note_off_c, 0, 63, 61
1, 15491, Control_c, 0, 64, 37
1, 15500, Note_on_c, 0, 58, 65
1, 15506, Control_c, 0, 64, 61
1, 15521, Control_c, 0, 64, 65
1, 15536, Control_c, 0, 64, 67
1, 15543, Note_off_c, 0, 58, 60
1, 15551, Control_c, 0, 64, 71
1, 15566, Note_on_c, 0, 60, 60
1, 15566, Control_c, 0, 64, 75
1, 15581, Control_c, 0, 64, 81
1, 15595, Control_c, 0, 64, 85
1, 15617, Control_c, 0, 64, 86
1, 15628, Note_on_c, 0, 58, 69
1, 15632, Control_c, 0, 64, 88
1, 15647, Control_c, 0, 64, 89
1, 15651, Note_off_c, 0, 60, 58
1, 15658, Note_off_c, 0, 58, 66
1, 15661, Control_c, 0, 64, 90
1, 15676, Control_c, 0, 64, 90
1, 15702, Note_on_c, 0, 61, 66
1, 15736, Note_off_c, 0, 61, 61
1, 15752, Note_on_c, 0, 66, 66
1, 15793, Note_off_c, 0, 66, 58
1, 15808, Note_on_c, 0, 61, 66
1, 15861, Note_on_c, 0, 66, 68
1, 15864, Note_off_c, 0, 61, 63
1, 15909, Note_off_c, 0, 66, 62
1, 15924, Note_on_c, 0, 68, 78
1, 15973, Control_c, 0, 64, 90
1, 15980, Note_off_c, 0, 68, 64
1, 15982, Note_on_c, 0, 73, 78
1, 15987, Control_c, 0, 64, 89
1, 16002, Control_c, 0, 64, 87
1, 16017, Control_c, 0, 64, 84
1, 16032, Control_c, 0, 64, 80
1, 16036, Note_off_c, 0, 73, 62
1, 16047, Control_c, 0, 64, 73
1, 16048, Note_on_c, 0, 68, 72
1, 16061, Control_c, 0, 64, 64
1, 16076, Note_on_c, 0, 73, 72
1, 16076, Control_c, 0, 64, 0
1, 16085, Note_on_c, 0, 66, 56
1, 16111, Note_off_c, 0, 68, 64
1, 16126, Note_off_c, 0, 66, 61
1, 16129, Note_off_c, 0, 73, 63
1, 16156, Note_on_c, 0, 61, 65
1, 16189, Note_off_c, 0, 61, 63
1, 16197, Note_on_c, 0, 66, 66
1, 16264, Note_on_c, 0, 61, 71
1, 16266, Note_off_c, 0, 66, 64
1, 16289, Note_off_c, 0, 61, 64
1, 16329, Control_c, 0, 64, 42
1, 16344, Control_c, 0, 64, 63
1, 16363, Note_on_c, 0, 58, 56
1, 16366, Control_c, 0, 64, 67
1, 16381, Control_c, 0, 64, 69
1, 16396, Control_c, 0, 64, 71
1, 16411, Control_c, 0, 64, 73
1, 16425, Control_c, 0, 64, 75
1, 16427, Note_on_c, 0, 60, 60
1, 16427, Note_off_c, 0, 58, 0
1, 16440, Control_c, 0, 64, 78
1, 16455, Control_c, 0, 64, 79
1, 16464, Poly_aftertouch_c, 0, 58, 127
1, 16484, Note_off_c, 0, 60, 63
1, 16486, Poly_aftertouch_c, 0, 58, 0
1, 16499, Note_on_c, 0, 62, 65
1, 16535, Note_off_c, 0, 62, 62
1, 16544, Control_c, 0, 64, 79
1, 16559, Control_c, 0, 64, 78
1, 16566, Note_on_c, 0, 67, 47
1, 16573, Control_c, 0, 64, 78
1, 16588, Control_c, 0, 64, 77
1, 16601, Note_off_c, 0, 67, 51
1, 16603, Control_c, 0, 64, 77
1, 16617, Note_on_c, 0, 62, 69
1, 16617, Control_c, 0, 64, 76
1, 16632, Control_c, 0, 64, 75
1, 16647, Control_c, 0, 64, 73
1, 16659, Note_off_c, 0, 62, 59
1, 16662, Control_c, 0, 64, 71
1, 16677, Control_c, 0, 64, 69
1, 16691, Control_c, 0, 64, 67
1, 16698, Note_on_c, 0, 67, 46
1, 16706, Control_c, 0, 64, 66
1, 16721, Control_c, 0, 64, 65
1, 16731, Note_off_c, 0, 67, 55
1, 16736, Control_c, 0, 64, 64
1, 16749, Note_on_c, 0, 69, 62
1, 16751, Control_c, 0, 64, 63
1, 16765, Control_c, 0, 64, 61
1, 16780, Control_c, 0, 64, 56
1, 16795, Control_c, 0, 64, 42
1, 16801, Note_on_c, 0, 72, 63
1, 16801, Note_off_c, 0, 69, 65
1, 16809, Control_c, 0, 64, 0
1, 16856, Note_off_c, 0, 72, 61
1, 16881, Note_on_c, 0, 69, 62
1, 16895, Note_on_c, 0, 72, 60
1, 16912, Note_off_c, 0, 69, 67
1, 16932, Note_off_c, 0, 72, 63
1, 16952, Note_on_c, 0, 67, 54
1, 16990, Note_off_c, 0, 67, 64
1, 17006, Note_on_c, 0, 62, 60
1, 17047, Note_off_c, 0, 62, 61
1, 17059, Note_on_c, 0, 67, 67
1, 17101, Note_off_c, 0, 67, 52
1, 17140, Note_on_c, 0, 62, 50
1, 17159, Control_c, 0, 64, 16
1, 17171, Note_off_c, 0, 62, 54
1, 17174, Control_c, 0, 64, 59
1, 17188, Control_c, 0, 64, 64
1, 17190, Note_on_c, 0, 58, 51
1, 17203, Control_c, 0, 64, 65
1, 17218, Control_c, 0, 64, 67
1, 17233, Control_c, 0, 64, 69
1, 17235, Note_off_c, 0, 58, 62
1, 17247, Control_c, 0, 64, 71
1, 17254, Note_on_c, 0, 60, 54
1, 17262, Control_c, 0, 64, 73
1, 17277, Control_c, 0, 64, 75
1, 17292, Control_c, 0, 64, 76
1, 17300, Note_on_c, 0, 58, 53
1, 17330, Note_off_c, 0, 58, 66
1, 17334, Note_off_c, 0, 60, 62
1, 17411, Note_on_c, 0, 64, 26
1, 17439, Note_on_c, 0, 67, 57
1, 17446, Note_off_c, 0, 64, 48
1, 17469, Note_off_c, 0, 67, 54
1, 17500, Control_c, 0, 64, 76
1, 17503, Note_on_c, 0, 64, 48
1, 17514, Control_c, 0, 64, 75
1, 17543, Note_off_c, 0, 64, 64
1, 17544, Control_c, 0, 64, 75
1, 17558, Control_c, 0, 64, 74
1, 17562, Note_on_c, 0, 67, 47
1, 17573, Control_c, 0, 64, 74
1, 17588, Control_c, 0, 64, 73
1, 17593, Note_off_c, 0, 67, 50
1, 17603, Control_c, 0, 64, 72
1, 17605, Note_on_c, 0, 69, 57
1, 17618, Control_c, 0, 64, 70
1, 17632, Control_c, 0, 64, 67
1, 17647, Control_c, 0, 64, 63
1, 17653, Note_on_c, 0, 72, 60
1, 17662, Control_c, 0, 64, 50
1, 17664, Note_off_c, 0, 69, 60
1, 17677, Control_c, 0, 64, 0
1, 17685, Note_off_c, 0, 72, 60
1, 17734, Note_on_c, 0, 69, 48
1, 17744, Note_on_c, 0, 72, 78
1, 17757, Note_off_c, 0, 69, 66
1, 17783, Note_off_c, 0, 72, 66
1, 17791, Note_on_c, 0, 67, 45
1, 17817, Note_off_c, 0, 67, 55
1, 17908, Note_on_c, 0, 67, 68
1, 17966, Note_on_c, 0, 64, 7
1, 17972, Note_off_c, 0, 67, 59
1, 18012, Control_c, 0, 64, 56
1, 18024, Note_off_c, 0, 64, 62
1, 18027, Control_c, 0, 64, 65
1, 18042, Control_c, 0, 64, 67
1, 18057, Control_c, 0, 64, 68
1, 18071, Control_c, 0, 64, 69
1, 18086, Control_c, 0, 64, 71
1, 18101, Control_c, 0, 64, 72
1, 18116, Control_c, 0, 64, 72
1, 18145, Control_c, 0, 64, 72
1, 18159, Note_on_c, 0, 60, 21
1, 18160, Control_c, 0, 64, 70
1, 18161, Note_on_c, 0, 58, 20
1, 18175, Control_c, 0, 64, 67
1, 18189, Control_c, 0, 64, 63
1, 18204, Control_c, 0, 64, 53
1, 18217, Note_off_c, 0, 60, 0
1, 18217, Note_on_c, 0, 60, 3
1, 18219, Control_c, 0, 64, 34
1, 18222, Note_off_c, 0, 58, 63
1, 18234, Control_c, 0, 64, 0
1, 18253, Note_off_c, 0, 60, 58
1, 18268, Note_on_c, 0, 61, 35
1, 18298, Note_off_c, 0, 61, 52
1, 18308, Note_on_c, 0, 65, 54
1, 18357, Note_off_c, 0, 65, 58
1, 18385, Note_on_c, 0, 61, 53
1, 18429, Note_off_c, 0, 61, 58
1, 18436, Note_on_c, 0, 65, 26
1, 18471, Control_c, 0, 64, 49
1, 18480, Note_off_c, 0, 65, 50
1, 18486, Control_c, 0, 64, 65
1, 18487, Note_on_c, 0, 57, 49
1, 18501, Control_c, 0, 64, 69
1, 18516, Control_c, 0, 64, 72
1, 18516, Control_c, 0, 67, 124
1, 18526, Note_off_c, 0, 57, 60
1, 18530, Control_c, 0, 64, 75
1, 18530, Control_c, 0, 67, 117
1, 18535, Note_on_c, 0, 60, 52
1, 18545, Control_c, 0, 64, 78
1, 18545, Control_c, 0, 67, 110
1, 18560, Control_c, 0, 64, 80
1, 18560, Control_c, 0, 67, 102
1, 18576, Control_c, 0, 64, 81
1, 18576, Control_c, 0, 67, 93
1, 18586, Note_off_c, 0, 60, 57
1, 18591, Control_c, 0, 64, 81
1, 18591, Control_c, 0, 67, 84
1, 18612, Control_c, 0, 67, 75
1, 18623, Note_on_c, 0, 57, 55
1, 18627, Control_c, 0, 67, 64
1, 18642, Control_c, 0, 64, 81
1, 18642, Control_c, 0, 67, 54
1, 18657, Control_c, 0, 64, 79
1, 18657, Control_c, 0, 67, 46
1, 18662, Note_on_c, 0, 61, 57
1, 18664, Note_on_c, 0, 60, 52
1, 18671, Note_off_c, 0, 57, 58
1, 18672, Control_c, 0, 64, 77
1, 18672, Control_c, 0, 67, 39
1, 18687, Control_c, 0, 64, 73
1, 18687, Control_c, 0, 67, 33
1, 18701, Note_off_c, 0, 61, 62
1, 18702, Control_c, 0, 64, 67
1, 18702, Control_c, 0, 67, 27
1, 18702, Note_off_c, 0, 60, 62
1, 18717, Control_c, 0, 64, 61
1, 18717, Control_c, 0, 67, 23
1, 18721, Note_on_c, 0, 65, 52
1, 18732, Control_c, 0, 64, 48
1, 18732, Control_c, 0, 67, 22
1, 18746, Control_c, 0, 64, 25
1, 18761, Control_c, 0, 64, 0
1, 18761, Note_off_c, 0, 65, 64
1, 18783, Note_on_c, 0, 61, 59
1, 18791, Control_c, 0, 67, 21
1, 18806, Control_c, 0, 67, 21
1, 18828, Note_off_c, 0, 61, 62
1, 18842, Note_on_c, 0, 65, 59
1, 18850, Control_c, 0, 67, 20
1, 18865, Control_c, 0, 64, 25
1, 18865, Control_c, 0, 67, 18
1, 18875, Note_off_c, 0, 65, 62
1, 18880, Control_c, 0, 64, 65
1, 18880, Control_c, 0, 67, 15
1, 18886, Note_on_c, 0, 56, 67
1, 18894, Control_c, 0, 64, 71
1, 18894, Control_c, 0, 67, 9
1, 18909, Control_c, 0, 64, 78
1, 18909, Control_c, 0, 67, 0
1, 18924, Control_c, 0, 64, 83
1, 18939, Control_c, 0, 64, 87
1, 18947, Note_off_c, 0, 56, 60
1, 18950, Note_on_c, 0, 60, 71
1, 18954, Control_c, 0, 64, 89
1, 18968, Control_c, 0, 64, 90
1, 18983, Control_c, 0, 64, 91
1, 18998, Control_c, 0, 64, 92
1, 18999, Note_on_c, 0, 56, 53
1, 19006, Note_off_c, 0, 60, 60
1, 19027, Control_c, 0, 64, 91
1, 19042, Control_c, 0, 64, 88
1, 19045, Note_on_c, 0, 61, 71
1, 19053, Note_on_c, 0, 60, 66
1, 19057, Control_c, 0, 64, 82
1, 19072, Control_c, 0, 64, 73
1, 19074, Note_off_c, 0, 56, 63
1, 19086, Control_c, 0, 64, 63
1, 19092, Note_off_c, 0, 61, 58
1, 19100, Note_off_c, 0, 60, 61
1, 19101, Control_c, 0, 64, 0
1, 19111, Note_on_c, 0, 65, 58
1, 19138, Note_off_c, 0, 65, 54
1, 19155, Note_on_c, 0, 61, 70
1, 19209, Note_on_c, 0, 65, 78
1, 19212, Note_off_c, 0, 61, 64
1, 19235, Control_c, 0, 64, 63
1, 19249, Note_on_c, 0, 55, 79
1, 19250, Control_c, 0, 64, 74
1, 19257, Note_off_c, 0, 65, 60
1, 19265, Control_c, 0, 64, 88
1, 19279, Control_c, 0, 64, 101
1, 19294, Control_c, 0, 64, 108
1, 19304, Note_on_c, 0, 58, 55
1, 19309, Control_c, 0, 64, 109
1, 19309, Control_c, 0, 67, 11
1, 19318, Note_off_c, 0, 55, 64
1, 19324, Control_c, 0, 67, 34
1, 19338, Control_c, 0, 67, 67
1, 19361, Control_c, 0, 64, 104
1, 19361, Control_c, 0, 67, 104
1, 19375, Control_c, 0, 64, 92
1, 19375, Control_c, 0, 67, 127
1, 19381, Note_on_c, 0, 55, 65
1, 19391, Control_c, 0, 64, 73
1, 19406, Control_c, 0, 64, 0
1, 19426, Note_off_c, 0, 58, 0
1, 19439, Note_on_c, 0, 58, 37
1, 19458, Note_off_c, 0, 55, 66
1, 19465, Note_on_c, 0, 60, 52
1, 19503, Note_off_c, 0, 58, 62
1, 19506, Note_off_c, 0, 60, 61
1, 19516, Note_on_c, 0, 64, 50
1, 19550, Note_off_c, 0, 64, 56
1, 19569, Note_on_c, 0, 60, 51
1, 19617, Note_off_c, 0, 60, 58
1, 19658, Control_c, 0, 64, 52
1, 19664, Note_on_c, 0, 64, 13
1, 19673, Control_c, 0, 64, 61
1, 19674, Note_on_c, 0, 58, 43
1, 19688, Control_c, 0, 64, 64
1, 19703, Control_c, 0, 64, 67
1, 19709, Note_off_c, 0, 64, 37
1, 19717, Control_c, 0, 64, 70
1, 19730, Note_on_c, 0, 60, 51
1, 19732, Control_c, 0, 64, 74
1, 19747, Control_c, 0, 64, 79
1, 19760, Note_off_c, 0, 58, 0
1, 19761, Control_c, 0, 64, 82
1, 19776, Control_c, 0, 64, 84
1, 19784, Note_off_c, 0, 60, 52
1, 19791, Control_c, 0, 64, 84
1, 19798, Poly_aftertouch_c, 0, 58, 127
1, 19814, Note_on_c, 0, 58, 8
1, 19836, Note_on_c, 0, 60, 42
1, 19872, Note_off_c, 0, 58, 56
1, 19875, Note_on_c, 0, 61, 45
1, 19880, Control_c, 0, 64, 84
1, 19895, Control_c, 0, 64, 83
1, 19905, Note_off_c, 0, 61, 53
1, 19906, Note_on_c, 0, 65, 60
1, 19907, Note_off_c, 0, 60, 58
1, 19909, Control_c, 0, 64, 82
1, 19924, Control_c, 0, 64, 78
1, 19939, Control_c, 0, 64, 72
1, 19948, Note_off_c, 0, 65, 61
1, 19954, Control_c, 0, 64, 64
1, 19969, Control_c, 0, 64, 31
1, 19975, Note_on_c, 0, 61, 54
1, 19984, Control_c, 0, 64, 0
1, 20020, Note_off_c, 0, 61, 61
1, 20026, Note_on_c, 0, 65, 47
1, 20073, Control_c, 0, 64, 16
1, 20073, Note_off_c, 0, 65, 58
1, 20088, Control_c, 0, 64, 66
1, 20089, Note_on_c, 0, 57, 61
1, 20109, Control_c, 0, 64, 73
1, 20124, Control_c, 0, 64, 81
1, 20124, Control_c, 0, 67, 122
1, 20139, Control_c, 0, 64, 89
1, 20139, Control_c, 0, 67, 92
1, 20142, Note_off_c, 0, 57, 60
1, 20147, Note_on_c, 0, 60, 53
1, 20154, Control_c, 0, 64, 94
1, 20154, Control_c, 0, 67, 64
1, 20168, Control_c, 0, 64, 98
1, 20168, Control_c, 0, 67, 32
1, 20184, Control_c, 0, 64, 101
1, 20184, Control_c, 0, 67, 0
1, 20199, Control_c, 0, 64, 102
1, 20216, Note_on_c, 0, 57, 69
1, 20262, Note_on_c, 0, 61, 67
1, 20267, Note_off_c, 0, 57, 62
1, 20288, Control_c, 0, 64, 102
1, 20291, Note_off_c, 0, 60, 63
1, 20303, Control_c, 0, 64, 99
1, 20315, Note_on_c, 0, 65, 70
1, 20316, Note_off_c, 0, 61, 62
1, 20317, Control_c, 0, 64, 93
1, 20332, Control_c, 0, 64, 84
1, 20347, Control_c, 0, 64, 71
1, 20356, Note_off_c, 0, 65, 57
1, 20362, Control_c, 0, 64, 30
1, 20377, Control_c, 0, 64, 0
1, 20382, Note_on_c, 0, 61, 68
1, 20431, Note_on_c, 0, 65, 76
1, 20440, Note_off_c, 0, 61, 64
1, 20466, Control_c, 0, 64, 14
1, 20478, Note_off_c, 0, 65, 64
1, 20481, Control_c, 0, 64, 67
1, 20496, Control_c, 0, 64, 76
1, 20500, Note_on_c, 0, 56, 83
1, 20511, Control_c, 0, 64, 88
1, 20526, Control_c, 0, 64, 98
1, 20540, Control_c, 0, 64, 104
1, 20554, Note_off_c, 0, 56, 63
1, 20555, Control_c, 0, 64, 107
1, 20556, Note_on_c, 0, 60, 73
1, 20570, Control_c, 0, 64, 109
1, 20584, Control_c, 0, 64, 109
1, 20605, Note_on_c, 0, 56, 67
1, 20663, Note_off_c, 0, 56, 62
1, 20673, Control_c, 0, 64, 108
1, 20687, Note_off_c, 0, 60, 63
1, 20688, Control_c, 0, 64, 100
1, 20689, Note_on_c, 0, 61, 75
1, 20703, Control_c, 0, 64, 88
1, 20718, Control_c, 0, 64, 73
1, 20732, Control_c, 0, 64, 18
1, 20744, Note_on_c, 0, 65, 70
1, 20747, Note_off_c, 0, 61, 62
1, 20747, Control_c, 0, 64, 0
1, 20804, Note_on_c, 0, 61, 78
1, 20814, Note_off_c, 0, 65, 62
1, 20863, Note_on_c, 0, 65, 60
1, 20884, Note_off_c, 0, 61, 62
1, 20888, Control_c, 0, 64, 44
1, 20900, Note_on_c, 0, 54, 87
1, 20903, Control_c, 0, 64, 71
1, 20918, Control_c, 0, 64, 86
1, 20923, Note_off_c, 0, 65, 66
1, 20932, Control_c, 0, 64, 109
1, 20947, Control_c, 0, 64, 127
1, 20969, Note_off_c, 0, 54, 64
1, 20979, Note_on_c, 0, 58, 67
1, 21022, Control_c, 0, 64, 126
1, 21027, Note_on_c, 0, 54, 75
1, 21037, Control_c, 0, 64, 112
1, 21048, Note_off_c, 0, 58, 63
1, 21052, Control_c, 0, 64, 98
1, 21052, Control_c, 0, 67, 8
1, 21067, Control_c, 0, 64, 83
1, 21067, Control_c, 0, 67, 16
1, 21081, Control_c, 0, 64, 66
1, 21081, Control_c, 0, 67, 29
1, 21096, Control_c, 0, 64, 0
1, 21096, Control_c, 0, 67, 44
1, 21108, Note_on_c, 0, 58, 60
1, 21111, Control_c, 0, 67, 60
1, 21116, Note_off_c, 0, 54, 61
1, 21126, Control_c, 0, 67, 78
1, 21127, Note_on_c, 0, 60, 57
1, 21141, Control_c, 0, 67, 96
1, 21155, Control_c, 0, 67, 118
1, 21164, Note_off_c, 0, 58, 62
1, 21167, Note_off_c, 0, 60, 62
1, 21167, Note_on_c, 0, 64, 66
1, 21170, Control_c, 0, 67, 127
1, 21210, Note_off_c, 0, 64, 60
1, 21242, Note_on_c, 0, 60, 55
1, 21269, Note_off_c, 0, 60, 55
1, 21274, Control_c, 0, 64, 49
1, 21289, Control_c, 0, 64, 65
1, 21299, Note_on_c, 0, 64, 55
1, 21304, Control_c, 0, 64, 69
1, 21316, Note_on_c, 0, 58, 51
1, 21319, Control_c, 0, 64, 73
1, 21321, Note_off_c, 0, 64, 64
1, 21334, Control_c, 0, 64, 79
1, 21348, Control_c, 0, 64, 83
1, 21359, Note_off_c, 0, 58, 61
1, 21363, Control_c, 0, 64, 85
1, 21374, Note_on_c, 0, 60, 49
1, 21378, Control_c, 0, 64, 86
1, 21437, Note_off_c, 0, 60, 59
1, 21439, Note_on_c, 0, 58, 66
1, 21456, Note_off_c, 0, 58, 64
1, 21481, Control_c, 0, 64, 85
1, 21496, Control_c, 0, 64, 84
1, 21511, Control_c, 0, 64, 81
1, 21525, Control_c, 0, 64, 77
1, 21540, Control_c, 0, 64, 72
1, 21542, Note_on_c, 0, 52, 67
1, 21555, Control_c, 0, 64, 65
1, 21570, Control_c, 0, 64, 55
1, 21572, Note_off_c, 0, 52, 69
1, 21583, Note_on_c, 0, 54, 62
1, 21585, Control_c, 0, 64, 0
1, 21635, Note_off_c, 0, 54, 62
1, 21662, Note_on_c, 0, 52, 61
1, 21697, Note_off_c, 0, 52, 66
1, 21710, Note_on_c, 0, 54, 53
1, 21745, Note_off_c, 0, 54, 60
1, 21758, Note_on_c, 0, 46, 61
1, 21802, Control_c, 0, 64, 63
1, 21809, Note_off_c, 0, 46, 59
1, 21817, Control_c, 0, 64, 68
1, 21821, Note_on_c, 0, 48, 58
1, 21831, Control_c, 0, 64, 71
1, 21846, Control_c, 0, 64, 74
1, 21856, Note_on_c, 0, 46, 60
1, 21861, Control_c, 0, 64, 77
1, 21865, Note_off_c, 0, 48, 66
1, 21876, Control_c, 0, 64, 78
1, 21891, Control_c, 0, 64, 79
1, 21893, Note_off_c, 0, 46, 66
1, 21934, Note_on_c, 0, 52, 55
1, 21973, Note_off_c, 0, 52, 66
1, 21981, Note_on_c, 0, 54, 55
1, 22007, Note_off_c, 0, 54, 60
1, 22024, Control_c, 0, 64, 79
1, 22038, Control_c, 0, 64, 77
1, 22053, Control_c, 0, 64, 75
1, 22058, Note_on_c, 0, 52, 47
1, 22068, Control_c, 0, 64, 71
1, 22080, Note_off_c, 0, 52, 60
1, 22083, Control_c, 0, 64, 64
1, 22097, Note_on_c, 0, 54, 50
1, 22098, Control_c, 0, 64, 18
1, 22112, Control_c, 0, 64, 0
1, 22118, Note_off_c, 0, 54, 62
1, 22179, Note_on_c, 0, 58, 52
1, 22201, Control_c, 0, 64, 55
1, 22210, Note_on_c, 0, 60, 57
1, 22216, Control_c, 0, 64, 67
1, 22231, Control_c, 0, 64, 72
1, 22246, Note_off_c, 0, 60, 63
1, 22246, Control_c, 0, 64, 76
1, 22261, Control_c, 0, 64, 79
1, 22262, Note_off_c, 0, 58, 65
1, 22276, Control_c, 0, 64, 80
1, 22287, Note_on_c, 0, 55, 56
1, 22291, Control_c, 0, 64, 81
1, 22291, Control_c, 0, 67, 122
1, 22294, Note_on_c, 0, 57, 49
1, 22305, Control_c, 0, 67, 112
1, 22320, Control_c, 0, 67, 101
1, 22321, Note_off_c, 0, 57, 51
1, 22327, Note_on_c, 0, 53, 63
1, 22335, Control_c, 0, 67, 92
1, 22356, Control_c, 0, 67, 82
1, 22363, Note_off_c, 0, 55, 62
1, 22371, Control_c, 0, 64, 80
1, 22371, Control_c, 0, 67, 73
1, 22376, Note_on_c, 0, 52, 70
1, 22386, Control_c, 0, 64, 76
1, 22386, Control_c, 0, 67, 67
1, 22401, Control_c, 0, 64, 67
1, 22401, Control_c, 0, 67, 65
1, 22411, Note_on_c, 0, 50, 70
1, 22413, Note_off_c, 0, 53, 61
1, 22416, Control_c, 0, 64, 0
1, 22416, Control_c, 0, 67, 64
1, 22431, Control_c, 0, 67, 64
1, 22443, Note_off_c, 0, 50, 65
1, 22443, Note_off_c, 0, 52, 43
1, 22446, Control_c, 0, 67, 63
1, 22455, Note_on_c, 0, 48, 77
1, 22461, Control_c, 0, 67, 61
1, 22472, Note_on_c, 0, 46, 67
1, 22476, Control_c, 0, 64, 50
1, 22476, Control_c, 0, 67, 57
1, 22479, Note_on_c, 0, 50, 72
1, 22491, Control_c, 0, 64, 69
1, 22491, Control_c, 0, 67, 53
1, 22505, Control_c, 0, 64, 78
1, 22505, Control_c, 0, 67, 48
1, 22508, Note_off_c, 0, 46, 67
1, 22511, Note_off_c, 0, 48, 65
1, 22520, Note_off_c, 0, 50, 66
1, 22520, Control_c, 0, 64, 86
1, 22520, Control_c, 0, 67, 44
1, 22534, Note_on_c, 0, 53, 76
1, 22535, Control_c, 0, 64, 92
1, 22535, Control_c, 0, 67, 40
1, 22550, Control_c, 0, 64, 94
1, 22550, Control_c, 0, 67, 39
1, 22564, Control_c, 0, 64, 94
1, 22580, Control_c, 0, 67, 41
1, 22586, Note_on_c, 0, 55, 69
1, 22595, Control_c, 0, 67, 43
1, 22599, Note_off_c, 0, 53, 66
1, 22610, Control_c, 0, 67, 45
1, 22625, Control_c, 0, 64, 91
1, 22625, Control_c, 0, 67, 48
1, 22628, Note_on_c, 0, 57, 73
1, 22640, Control_c, 0, 64, 82
1, 22640, Control_c, 0, 67, 52
1, 22654, Control_c, 0, 64, 67
1, 22654, Control_c, 0, 67, 59
1, 22661, Note_off_c, 0, 55, 66
1, 22669, Control_c, 0, 64, 0
1, 22669, Control_c, 0, 67, 77
1, 22672, Note_on_c, 0, 58, 77
1, 22684, Control_c, 0, 67, 97
1, 22698, Note_off_c, 0, 57, 63
1, 22699, Control_c, 0, 67, 122
1, 22714, Control_c, 0, 67, 127
1, 22719, Note_off_c, 0, 58, 68
1, 22739, Note_on_c, 0, 61, 83
1, 22792, Note_off_c, 0, 61, 58
1, 22853, Note_on_c, 0, 61, 74
1, 22867, Poly_aftertouch_c, 0, 63, 127
1, 22893, Note_off_c, 0, 61, 64
1, 22893, Poly_aftertouch_c, 0, 63, 0
1, 22929, Note_on_c, 0, 57, 51
1, 22962, Note_off_c, 0, 57, 63
1, 22969, Note_on_c, 0, 58, 63
1, 23007, Note_off_c, 0, 58, 63
1, 23036, Note_on_c, 0, 57, 64
1, 23076, Note_off_c, 0, 57, 61
1, 23088, Note_on_c, 0, 58, 63
1, 23135, Control_c, 0, 64, 16
1, 23144, Note_off_c, 0, 58, 57
1, 23149, Note_on_c, 0, 51, 49
1, 23150, Control_c, 0, 64, 66
1, 23165, Control_c, 0, 64, 72
1, 23179, Control_c, 0, 64, 78
1, 23194, Control_c, 0, 64, 84
1, 23209, Control_c, 0, 64, 87
1, 23218, Note_on_c, 0, 53, 64
1, 23224, Control_c, 0, 64, 88
1, 23269, Control_c, 0, 64, 88
1, 23276, Note_off_c, 0, 51, 63
1, 23280, Note_off_c, 0, 53, 63
1, 23283, Control_c, 0, 64, 86
1, 23298, Control_c, 0, 64, 83
1, 23313, Control_c, 0, 64, 79
1, 23317, Note_on_c, 0, 57, 51
1, 23328, Control_c, 0, 64, 73
1, 23343, Control_c, 0, 64, 64
1, 23346, Note_off_c, 0, 57, 59
1, 23358, Control_c, 0, 64, 44
1, 23367, Note_on_c, 0, 58, 59
1, 23373, Control_c, 0, 64, 0
1, 23406, Note_off_c, 0, 58, 63
1, 23425, Note_on_c, 0, 57, 62
1, 23465, Note_off_c, 0, 57, 60
1, 23468, Note_on_c, 0, 58, 61
1, 23492, Control_c, 0, 64, 58
1, 23507, Note_on_c, 0, 61, 62
1, 23507, Control_c, 0, 64, 67
1, 23512, Note_off_c, 0, 58, 63
1, 23522, Control_c, 0, 64, 71
1, 23534, Note_on_c, 0, 63, 70
1, 23537, Control_c, 0, 64, 74
1, 23551, Control_c, 0, 64, 76
1, 23566, Control_c, 0, 64, 77
1, 23567, Note_off_c, 0, 61, 60
1, 23580, Note_on_c, 0, 60, 62
1, 23581, Note_off_c, 0, 63, 65
1, 23602, Note_off_c, 0, 60, 64
1, 23610, Control_c, 0, 64, 76
1, 23625, Control_c, 0, 64, 75
1, 23640, Control_c, 0, 64, 71
1, 23641, Note_on_c, 0, 57, 47
1, 23647, Note_on_c, 0, 55, 67
1, 23655, Control_c, 0, 64, 64
1, 23670, Control_c, 0, 64, 0
1, 23679, Note_on_c, 0, 53, 68
1, 23697, Note_off_c, 0, 57, 53
1, 23722, Note_off_c, 0, 55, 63
1, 23731, Note_on_c, 0, 52, 66
1, 23740, Note_off_c, 0, 53, 64
1, 23763, Note_on_c, 0, 49, 74
1, 23773, Control_c, 0, 64, 63
1, 23773, Control_c, 0, 67, 126
1, 23787, Note_on_c, 0, 54, 66
1, 23788, Control_c, 0, 64, 70
1, 23788, Control_c, 0, 67, 113
1, 23792, Note_on_c, 0, 51, 62
1, 23802, Control_c, 0, 64, 76
1, 23802, Control_c, 0, 67, 101
1, 23805, Note_off_c, 0, 49, 62
1, 23817, Control_c, 0, 64, 83
1, 23817, Control_c, 0, 67, 92
1, 23819, Note_off_c, 0, 52, 59
1, 23830, Note_off_c, 0, 51, 65
1, 23832, Control_c, 0, 64, 87
1, 23832, Control_c, 0, 67, 87
1, 23837, Note_off_c, 0, 54, 62
1, 23853, Note_on_c, 0, 55, 71
1, 23855, Control_c, 0, 64, 90
1, 23870, Control_c, 0, 64, 92
1, 23870, Control_c, 0, 67, 88
1, 23884, Control_c, 0, 64, 92
1, 23884, Control_c, 0, 67, 90
1, 23899, Control_c, 0, 67, 92
1, 23903, Note_on_c, 0, 58, 71
1, 23906, Note_on_c, 0, 56, 73
1, 23914, Control_c, 0, 64, 92
1, 23914, Control_c, 0, 67, 96
1, 23925, Note_off_c, 0, 55, 63
1, 23928, Control_c, 0, 64, 88
1, 23928, Control_c, 0, 67, 101
1, 23943, Control_c, 0, 64, 78
1, 23943, Control_c, 0, 67, 110
1, 23958, Control_c, 0, 64, 59
1, 23958, Control_c, 0, 67, 126
1, 23963, Note_off_c, 0, 56, 64
1, 23964, Note_on_c, 0, 61, 75
1, 23973, Control_c, 0, 64, 0
1, 23973, Control_c, 0, 67, 127
1, 23996, Note_off_c, 0, 58, 64
1, 24035, Note_off_c, 0, 61, 64
1, 24061, Note_on_c, 0, 64, 69
1, 24065, Note_on_c, 0, 66, 71
1, 24119, Note_off_c, 0, 66, 61
1, 24161, Note_on_c, 0, 58, 69
1, 24161, Note_off_c, 0, 64, 63
1, 24167, Note_on_c, 0, 61, 51
1, 24217, Note_off_c, 0, 58, 60
1, 24225, Note_on_c, 0, 62, 63
1, 24227, Note_off_c, 0, 61, 57
1, 24279, Note_on_c, 0, 61, 56
1, 24293, Note_off_c, 0, 62, 59
1, 24316, Note_on_c, 0, 57, 66
1, 24338, Note_off_c, 0, 61, 57
1, 24353, Note_off_c, 0, 57, 61
1, 24401, Note_on_c, 0, 67, 75
1, 24419, Note_on_c, 0, 69, 65
1, 24445, Note_off_c, 0, 69, 57
1, 24455, Note_on_c, 0, 64, 56
1, 24463, Note_off_c, 0, 67, 60
1, 24496, Note_off_c, 0, 64, 64
1, 24559, Poly_aftertouch_c, 0, 66, 127
1, 24559, Note_on_c, 0, 63, 58
1, 24619, Control_c, 0, 67, 125
1, 24623, Note_on_c, 0, 65, 56
1, 24633, Control_c, 0, 67, 118
1, 24641, Note_off_c, 0, 63, 59
1, 24647, Poly_aftertouch_c, 0, 67, 0
1, 24648, Control_c, 0, 67, 111
1, 24652, Note_on_c, 0, 62, 61
1, 24663, Control_c, 0, 67, 103
1, 24664, Poly_aftertouch_c, 0, 66, 0
1, 24672, Note_off_c, 0, 65, 64
1, 24678, Control_c, 0, 67, 97
1, 24687, Note_off_c, 0, 62, 63
1, 24693, Control_c, 0, 67, 93
1, 24699, Note_on_c, 0, 66, 59
1, 24707, Control_c, 0, 67, 91
1, 24720, Note_on_c, 0, 64, 66
1, 24722, Control_c, 0, 67, 90
1, 24737, Control_c, 0, 67, 89
1, 24750, Note_off_c, 0, 66, 64
1, 24768, Note_off_c, 0, 64, 64
1, 24796, Control_c, 0, 67, 90
1, 24803, Poly_aftertouch_c, 0, 58, 0
1, 24805, Note_on_c, 0, 61, 51
1, 24811, Control_c, 0, 67, 90
1, 24841, Note_on_c, 0, 62, 60
1, 24887, Note_on_c, 0, 57, 64
1, 24887, Note_off_c, 0, 61, 62
1, 24911, Note_off_c, 0, 62, 62
1, 24914, Control_c, 0, 67, 89
1, 24934, Note_off_c, 0, 57, 58
1, 24977, Note_on_c, 0, 67, 71
1, 24977, Note_on_c, 0, 69, 70
1, 24998, Note_on_c, 0, 61, 53
1, 25004, Control_c, 0, 67, 89
1, 25005, Note_off_c, 0, 69, 63
1, 25018, Note_off_c, 0, 67, 65
1, 25019, Control_c, 0, 67, 88
1, 25021, Note_off_c, 0, 61, 59
1, 25075, Note_on_c, 0, 64, 42
1, 25078, Control_c, 0, 67, 89
1, 25079, Note_on_c, 0, 66, 74
1, 25108, Control_c, 0, 67, 90
1, 25155, Note_off_c, 0, 64, 63
1, 25161, Note_on_c, 0, 58, 61
1, 25163, Note_off_c, 0, 66, 64
1, 25179, Note_off_c, 0, 58, 65
1, 25197, Control_c, 0, 67, 89
1, 25202, Note_on_c, 0, 73, 58
1, 25207, Note_on_c, 0, 70, 61
1, 25221, Note_off_c, 0, 73, 61
1, 25242, Note_off_c, 0, 70, 63
1, 25256, Control_c, 0, 67, 90
1, 25271, Control_c, 0, 67, 90
1, 25301, Control_c, 0, 67, 91
1, 25302, Note_on_c, 0, 74, 61
1, 25330, Control_c, 0, 67, 91
1, 25352, Control_c, 0, 67, 92
1, 25355, Note_off_c, 0, 74, 62
1, 25361, Note_on_c, 0, 71, 57
1, 25396, Note_off_c, 0, 71, 63
1, 25409, Note_on_c, 0, 68, 67
1, 25412, Control_c, 0, 67, 92
1, 25419, Note_on_c, 0, 63, 56
1, 25444, Note_off_c, 0, 68, 62
1, 25457, Note_off_c, 0, 63, 66
1, 25471, Control_c, 0, 67, 92
1, 25501, Control_c, 0, 67, 92
1, 25508, Note_on_c, 0, 65, 58
1, 25546, Note_off_c, 0, 65, 63
1, 25549, Note_on_c, 0, 69, 58
1, 25589, Control_c, 0, 67, 92
1, 25593, Note_off_c, 0, 69, 63
1, 25623, Note_on_c, 0, 70, 69
1, 25634, Control_c, 0, 67, 91
1, 25638, Note_on_c, 0, 66, 65
1, 25648, Control_c, 0, 67, 91
1, 25652, Note_off_c, 0, 70, 54
1, 25663, Control_c, 0, 67, 90
1, 25669, Note_off_c, 0, 66, 67
1, 25713, Note_on_c, 0, 67, 55
1, 25746, Note_off_c, 0, 67, 65
1, 25767, Control_c, 0, 67, 90
1, 25781, Note_on_c, 0, 71, 59
1, 25797, Control_c, 0, 67, 89
1, 25801, Note_off_c, 0, 71, 62
1, 25812, Control_c, 0, 67, 88
1, 25827, Control_c, 0, 67, 87
1, 25838, Note_on_c, 0, 72, 81
1, 25842, Control_c, 0, 67, 86
1, 25853, Note_on_c, 0, 68, 68
1, 25857, Control_c, 0, 67, 79
1, 25871, Control_c, 0, 67, 70
1, 25878, Note_off_c, 0, 72, 67
1, 25886, Control_c, 0, 67, 61
1, 25889, Note_off_c, 0, 68, 63
1, 25895, Note_on_c, 0, 69, 70
1, 25901, Control_c, 0, 67, 54
1, 25916, Control_c, 0, 67, 50
1, 25928, Note_off_c, 0, 69, 64
1, 25931, Control_c, 0, 67, 48
1, 25945, Control_c, 0, 67, 47
1, 25969, Note_on_c, 0, 73, 67
1, 25975, Control_c, 0, 67, 47
1, 26005, Control_c, 0, 67, 46
1, 26013, Note_off_c, 0, 73, 64
1, 26020, Control_c, 0, 67, 45
1, 26035, Control_c, 0, 67, 42
1, 26044, Note_on_c, 0, 76, 89
1, 26050, Control_c, 0, 67, 39
1, 26064, Control_c, 0, 67, 37
1, 26069, Note_on_c, 0, 74, 49
1, 26070, Note_off_c, 0, 74, 127
1, 26079, Control_c, 0, 67, 34
1, 26091, Note_off_c, 0, 76, 68
1, 26101, Control_c, 0, 67, 31
1, 26107, Note_on_c, 0, 71, 59
1, 26116, Control_c, 0, 67, 26
1, 26127, Note_on_c, 0, 72, 24
1, 26131, Control_c, 0, 67, 23
1, 26146, Control_c, 0, 67, 22
1, 26160, Note_off_c, 0, 72, 32
1, 26175, Control_c, 0, 67, 21
1, 26177, Note_off_c, 0, 71, 59
1, 26182, Note_on_c, 0, 75, 79
1, 26190, Control_c, 0, 67, 21
1, 26220, Control_c, 0, 67, 19
1, 26228, Note_off_c, 0, 75, 64
1, 26235, Control_c, 0, 67, 16
1, 26249, Control_c, 0, 67, 13
1, 26255, Note_on_c, 0, 70, 90
1, 26264, Control_c, 0, 67, 10
1, 26279, Control_c, 0, 67, 0
1, 26294, Note_on_c, 0, 66, 59
1, 26312, Note_off_c, 0, 70, 61
1, 26332, Note_off_c, 0, 66, 67
1, 26335, Note_on_c, 0, 67, 58
1, 26339, Note_on_c, 0, 65, 63
1, 26374, Note_off_c, 0, 65, 62
1, 26384, Note_off_c, 0, 67, 60
1, 26389, Note_on_c, 0, 71, 78
1, 26447, Note_off_c, 0, 71, 61
1, 26464, Note_on_c, 0, 72, 96
1, 26507, Note_off_c, 0, 72, 67
1, 26518, Note_on_c, 0, 69, 72
1, 26573, Note_off_c, 0, 69, 60
1, 26585, Note_on_c, 0, 73, 76
1, 26586, Note_on_c, 0, 68, 88
1, 26634, Note_off_c, 0, 68, 64
1, 26649, Note_off_c, 0, 73, 63
1, 26694, Note_on_c, 0, 69, 88
1, 26743, Note_off_c, 0, 69, 67
1, 26747, Note_on_c, 0, 76, 94
1, 26774, Note_off_c, 0, 76, 67
1, 26810, Note_on_c, 0, 74, 56
1, 26811, Note_on_c, 0, 73, 45
1, 26836, Note_off_c, 0, 73, 59
1, 26849, Note_off_c, 0, 74, 66
1, 26935, Note_on_c, 0, 82, 101
1, 26953, Control_c, 0, 64, 68
1, 26956, Note_on_c, 0, 80, 62
1, 26967, Control_c, 0, 64, 85
1, 26978, Note_off_c, 0, 82, 66
1, 26980, Note_off_c, 0, 80, 0
1, 26980, Note_on_c, 0, 80, 46
1, 26982, Control_c, 0, 64, 125
1, 26997, Control_c, 0, 64, 127
1, 27010, Note_off_c, 0, 80, 67
1, 27025, Note_on_c, 0, 78, 80
1, 27043, Note_off_c, 0, 78, 72
1, 27051, Note_on_c, 0, 75, 84
1, 27074, Note_off_c, 0, 75, 69
1, 27092, Note_on_c, 0, 73, 72
1, 27114, Note_off_c, 0, 73, 68
1, 27119, Note_on_c, 0, 70, 82
1, 27153, Note_on_c, 0, 68, 77
1, 27157, Note_off_c, 0, 70, 61
1, 27180, Note_on_c, 0, 66, 78
1, 27181, Note_off_c, 0, 68, 65
1, 27220, Note_off_c, 0, 66, 66
1, 27223, Note_on_c, 0, 63, 62
1, 27268, Note_off_c, 0, 63, 63
1, 27275, Note_on_c, 0, 62, 75
1, 27290, Note_on_c, 0, 61, 35
1, 27308, Control_c, 0, 64, 120
1, 27323, Control_c, 0, 64, 112
1, 27323, Note_off_c, 0, 61, 53
1, 27337, Note_off_c, 0, 62, 62
1, 27337, Control_c, 0, 64, 102
1, 27340, Note_on_c, 0, 64, 75
1, 27352, Control_c, 0, 64, 88
1, 27367, Control_c, 0, 64, 73
1, 27382, Note_on_c, 0, 65, 39
1, 27382, Control_c, 0, 64, 0
1, 27389, Note_off_c, 0, 64, 52
1, 27391, Note_on_c, 0, 62, 71
1, 27412, Note_off_c, 0, 65, 57
1, 27436, Note_on_c, 0, 60, 98
1, 27472, Note_off_c, 0, 62, 63
1, 27501, Control_c, 0, 64, 43
1, 27512, Note_off_c, 0, 60, 63
1, 27516, Control_c, 0, 64, 70
1, 27526, Note_on_c, 0, 82, 101
1, 27531, Control_c, 0, 64, 81
1, 27546, Control_c, 0, 64, 95
1, 27558, Note_on_c, 0, 80, 77
1, 27559, Note_off_c, 0, 82, 70
1, 27561, Control_c, 0, 64, 103
1, 27575, Control_c, 0, 64, 109
1, 27579, Note_off_c, 0, 80, 71
1, 27584, Note_on_c, 0, 78, 97
1, 27597, Control_c, 0, 64, 115
1, 27608, Note_off_c, 0, 78, 73
1, 27612, Control_c, 0, 64, 118
1, 27618, Note_on_c, 0, 75, 94
1, 27627, Control_c, 0, 64, 119
1, 27636, Note_off_c, 0, 75, 74
1, 27646, Note_on_c, 0, 73, 86
1, 27658, Note_off_c, 0, 73, 75
1, 27666, Note_on_c, 0, 70, 78
1, 27686, Control_c, 0, 64, 120
1, 27687, Note_off_c, 0, 70, 70
1, 27695, Note_on_c, 0, 68, 73
1, 27701, Control_c, 0, 64, 127
1, 27710, Note_off_c, 0, 68, 66
1, 27720, Note_on_c, 0, 66, 67
1, 27740, Note_off_c, 0, 66, 68
1, 27755, Note_on_c, 0, 63, 51
1, 27764, Note_on_c, 0, 62, 78
1, 27778, Note_off_c, 0, 63, 60
1, 27809, Note_on_c, 0, 64, 71
1, 27816, Note_off_c, 0, 62, 63
1, 27846, Note_off_c, 0, 64, 59
1, 27862, Poly_aftertouch_c, 0, 61, 0
1, 27865, Note_on_c, 0, 62, 68
1, 27900, Note_on_c, 0, 60, 85
1, 27934, Note_off_c, 0, 62, 60
1, 27937, Note_off_c, 0, 60, 67
1, 27982, Control_c, 0, 64, 104
1, 27997, Control_c, 0, 64, 79
1, 28012, Control_c, 0, 64, 0
1, 28034, Note_on_c, 0, 92, 92
1, 28049, Note_off_c, 0, 92, 76
1, 28054, Note_on_c, 0, 90, 93
1, 28073, Note_off_c, 0, 90, 69
1, 28086, Control_c, 0, 64, 68
1, 28088, Note_on_c, 0, 87, 80
1, 28101, Control_c, 0, 64, 96
1, 28102, Note_on_c, 0, 85, 92
1, 28110, Note_off_c, 0, 87, 70
1, 28115, Note_off_c, 0, 85, 74
1, 28115, Control_c, 0, 64, 127
1, 28123, Note_on_c, 0, 82, 93
1, 28141, Note_off_c, 0, 82, 71
1, 28148, Note_on_c, 0, 80, 83
1, 28161, Note_off_c, 0, 80, 73
1, 28169, Note_on_c, 0, 78, 87
1, 28175, Note_on_c, 0, 85, 36
1, 28176, Note_off_c, 0, 85, 127
1, 28186, Note_off_c, 0, 78, 73
1, 28195, Note_on_c, 0, 75, 76
1, 28218, Note_off_c, 0, 75, 66
1, 28237, Note_on_c, 0, 73, 59
1, 28250, Note_on_c, 0, 77, 93
1, 28258, Note_off_c, 0, 73, 64
1, 28261, Note_on_c, 0, 76, 89
1, 28263, Note_on_c, 0, 70, 57
1, 28282, Note_off_c, 0, 70, 62
1, 28290, Note_on_c, 0, 74, 63
1, 28296, Note_off_c, 0, 77, 59
1, 28321, Note_off_c, 0, 76, 68
1, 28352, Note_on_c, 0, 72, 63
1, 28379, Note_off_c, 0, 74, 66
1, 28384, Note_on_c, 0, 71, 72
1, 28399, Note_on_c, 0, 69, 91
1, 28416, Note_off_c, 0, 72, 59
1, 28420, Note_on_c, 0, 67, 82
1, 28427, Note_off_c, 0, 71, 63
1, 28440, Note_on_c, 0, 65, 83
1, 28442, Note_off_c, 0, 69, 67
1, 28456, Note_off_c, 0, 67, 64
1, 28461, Note_on_c, 0, 64, 78
1, 28467, Note_off_c, 0, 65, 68
1, 28478, Note_on_c, 0, 62, 78
1, 28493, Note_on_c, 0, 60, 78
1, 28495, Note_off_c, 0, 64, 64
1, 28517, Note_on_c, 0, 80, 78
1, 28521, Note_on_c, 0, 59, 65
1, 28525, Note_off_c, 0, 62, 65
1, 28539, Note_off_c, 0, 80, 69
1, 28550, Note_off_c, 0, 59, 0
1, 28550, Note_on_c, 0, 59, 42
1, 28551, Note_on_c, 0, 78, 82
1, 28559, Note_off_c, 0, 60, 64
1, 28571, Note_off_c, 0, 78, 70
1, 28583, Note_off_c, 0, 59, 59
1, 28584, Note_on_c, 0, 75, 73
1, 28600, Note_off_c, 0, 75, 67
1, 28616, Note_on_c, 0, 73, 66
1, 28622, Note_on_c, 0, 70, 87
1, 28634, Note_off_c, 0, 73, 61
1, 28640, Note_off_c, 0, 70, 74
1, 28643, Note_on_c, 0, 68, 80
1, 28658, Note_on_c, 0, 66, 84
1, 28658, Note_off_c, 0, 68, 69
1, 28679, Note_off_c, 0, 66, 73
1, 28684, Note_on_c, 0, 63, 78
1, 28709, Note_off_c, 0, 63, 70
1, 28709, Note_on_c, 0, 61, 66
1, 28727, Note_on_c, 0, 58, 34
1, 28735, Note_off_c, 0, 61, 65
1, 28738, Note_on_c, 0, 64, 97
1, 28744, Note_on_c, 0, 65, 81
1, 28761, Note_off_c, 0, 58, 64
1, 28762, Note_off_c, 0, 65, 71
1, 28768, Note_on_c, 0, 51, 31
1, 28776, Note_on_c, 0, 56, 14
1, 28777, Note_on_c, 0, 62, 83
1, 28786, Note_off_c, 0, 64, 64
1, 28795, Note_on_c, 0, 60, 75
1, 28807, Note_off_c, 0, 51, 41
1, 28815, Note_off_c, 0, 62, 62
1, 28819, Note_on_c, 0, 59, 74
1, 28821, Note_off_c, 0, 56, 31
1, 28831, Note_off_c, 0, 60, 62
1, 28835, Note_on_c, 0, 57, 76
1, 28842, Note_off_c, 0, 59, 69
1, 28852, Note_on_c, 0, 55, 81
1, 28864, Note_on_c, 0, 53, 84
1, 28867, Note_off_c, 0, 57, 65
1, 28885, Note_on_c, 0, 52, 76
1, 28887, Note_off_c, 0, 55, 67
1, 28908, Note_on_c, 0, 50, 69
1, 28911, Note_off_c, 0, 53, 67
1, 28924, Control_c, 0, 64, 109
1, 28933, Note_off_c, 0, 52, 66
1, 28939, Control_c, 0, 64, 82
1, 28943, Note_on_c, 0, 48, 57
1, 28954, Control_c, 0, 64, 0
1, 28959, Note_on_c, 0, 37, 92
1, 28970, Note_on_c, 0, 38, 89
1, 28970, Note_off_c, 0, 50, 65
1, 28989, Note_on_c, 0, 39, 50
1, 28990, Note_off_c, 0, 39, 127
1, 29001, Note_off_c, 0, 48, 66
1, 29044, Control_c, 0, 64, 66
1, 29059, Control_c, 0, 64, 81
1, 29074, Control_c, 0, 64, 107
1, 29094, Note_off_c, 0, 38, 59
1, 29096, Control_c, 0, 64, 127
1, 29128, Note_off_c, 0, 37, 48
1, 29158, Note_on_c, 0, 39, 81
1, 29182, Note_on_c, 0, 37, 77
1, 29224, Note_off_c, 0, 39, 62
1, 29231, Poly_aftertouch_c, 0, 51, 0
1, 29232, Note_on_c, 0, 49, 105
1, 29248, Note_off_c, 0, 37, 64
1, 29278, Note_on_c, 0, 48, 41
1, 29298, Note_on_c, 0, 51, 79
1, 29311, Note_off_c, 0, 48, 53
1, 29336, Poly_aftertouch_c, 0, 50, 127
1, 29348, Note_off_c, 0, 49, 54
1, 29384, Poly_aftertouch_c, 0, 50, 0
1, 29391, Note_on_c, 0, 49, 75
1, 29404, Note_off_c, 0, 51, 62
1, 29425, Note_on_c, 0, 61, 115
1, 29460, Note_on_c, 0, 60, 53
1, 29488, Note_off_c, 0, 49, 58
1, 29519, Note_on_c, 0, 51, 56
1, 29565, Note_off_c, 0, 61, 59
1, 29568, Note_off_c, 0, 60, 26
1, 29614, Note_on_c, 0, 63, 99
1, 29623, Note_off_c, 0, 51, 27
1, 29627, Note_on_c, 0, 61, 97
1, 29650, Note_off_c, 0, 63, 70
1, 29656, Note_off_c, 0, 61, 67
1, 29671, Note_on_c, 0, 60, 56
1, 29676, Note_on_c, 0, 49, 103
1, 29690, Note_off_c, 0, 60, 62
1, 29740, Note_on_c, 0, 51, 78
1, 29753, Note_off_c, 0, 49, 62
1, 29768, Note_on_c, 0, 54, 44
1, 29797, Note_off_c, 0, 54, 35
1, 29819, Note_on_c, 0, 49, 85
1, 29823, Control_c, 0, 67, 13
1, 29839, Note_off_c, 0, 51, 63
1, 29844, Control_c, 0, 64, 83
1, 29844, Control_c, 0, 67, 34
1, 29859, Control_c, 0, 64, 0
1, 29859, Control_c, 0, 67, 64
1, 29871, Note_off_c, 0, 49, 58
1, 29874, Note_on_c, 0, 37, 87
1, 29874, Control_c, 0, 67, 96
1, 29876, Note_on_c, 0, 39, 83
1, 29889, Control_c, 0, 67, 127
1, 29901, Note_off_c, 0, 39, 67
1, 29904, Note_off_c, 0, 37, 68
1, 30008, Note_on_c, 0, 49, 66
1, 30053, Note_off_c, 0, 49, 61
1, 30069, Note_on_c, 0, 51, 61
1, 30085, Note_on_c, 0, 36, 75
1, 30085, Note_on_c, 0, 38, 69
1, 30123, Note_off_c, 0, 38, 63
1, 30134, Note_off_c, 0, 51, 60
1, 30138, Note_off_c, 0, 36, 64
1, 30142, Note_on_c, 0, 49, 75
1, 30204, Note_off_c, 0, 49, 63
1, 30208, Note_on_c, 0, 51, 61
1, 30231, Note_on_c, 0, 34, 56
1, 30262, Note_off_c, 0, 34, 63
1, 30289, Note_off_c, 0, 51, 62
1, 30299, Note_on_c, 0, 49, 70
1, 30319, Note_on_c, 0, 33, 79
1, 30333, Note_on_c, 0, 35, 69
1, 30359, Note_off_c, 0, 49, 61
1, 30373, Note_off_c, 0, 33, 66
1, 30380, Note_on_c, 0, 51, 56
1, 30387, Note_off_c, 0, 35, 61
1, 30430, Note_off_c, 0, 51, 59
1, 30447, Note_on_c, 0, 49, 63
1, 30497, Note_off_c, 0, 49, 62
1, 30518, Note_on_c, 0, 51, 55
1, 30540, Note_on_c, 0, 36, 70
1, 30562, Note_on_c, 0, 38, 49
1, 30570, Note_off_c, 0, 51, 59
1, 30572, Control_c, 0, 67, 97
1, 30581, Note_off_c, 0, 36, 67
1, 30593, Control_c, 0, 67, 65
1, 30597, Note_off_c, 0, 38, 58
1, 30599, Note_on_c, 0, 49, 61
1, 30608, Control_c, 0, 67, 39
1, 30623, Control_c, 0, 67, 19
1, 30638, Control_c, 0, 67, 0
1, 30646, Note_off_c, 0, 49, 63
1, 30658, Note_on_c, 0, 51, 52
1, 30727, Note_off_c, 0, 51, 59
1, 30733, Note_on_c, 0, 49, 60
1, 30756, Control_c, 0, 64, 54
1, 30769, Note_on_c, 0, 37, 80
1, 30771, Control_c, 0, 64, 68
1, 30777, Note_off_c, 0, 49, 54
1, 30783, Note_on_c, 0, 38, 85
1, 30786, Note_on_c, 0, 39, 68
1, 30786, Control_c, 0, 64, 79
1, 30800, Control_c, 0, 64, 102
1, 30814, Note_off_c, 0, 39, 50
1, 30815, Control_c, 0, 64, 127
1, 30858, Note_off_c, 0, 38, 61
1, 30899, Note_off_c, 0, 37, 62
1, 30952, Note_on_c, 0, 39, 72
1, 30965, Note_on_c, 0, 37, 82
1, 31021, Note_off_c, 0, 39, 62
1, 31031, Note_off_c, 0, 37, 65
1, 31031, Note_on_c, 0, 49, 99
1, 31099, Note_on_c, 0, 51, 73
1, 31108, Note_off_c, 0, 49, 62
1, 31191, Note_on_c, 0, 49, 83
1, 31201, Note_off_c, 0, 51, 62
1, 31236, Note_on_c, 0, 61, 118
1, 31281, Note_off_c, 0, 49, 61
1, 31326, Note_on_c, 0, 51, 32
1, 31376, Note_off_c, 0, 61, 59
1, 31431, Note_on_c, 0, 63, 96
1, 31434, Note_on_c, 0, 61, 91
1, 31472, Note_off_c, 0, 51, 35
1, 31478, Note_off_c, 0, 63, 67
1, 31487, Note_on_c, 0, 49, 97
1, 31492, Note_off_c, 0, 61, 66
1, 31544, Poly_aftertouch_c, 0, 64, 0
1, 31553, Note_off_c, 0, 49, 61
1, 31554, Note_on_c, 0, 51, 78
1, 31600, Note_on_c, 0, 54, 24
1, 31606, Note_on_c, 0, 49, 85
1, 31633, Note_off_c, 0, 51, 63
1, 31639, Note_off_c, 0, 54, 42
1, 31649, Note_off_c, 0, 49, 65
1, 31666, Note_on_c, 0, 50, 51
1, 31677, Note_on_c, 0, 49, 99
1, 31677, Note_on_c, 0, 51, 92
1, 31693, Note_off_c, 0, 50, 59
1, 31698, Control_c, 0, 64, 114
1, 31698, Control_c, 0, 67, 12
1, 31710, Note_off_c, 0, 51, 66
1, 31713, Control_c, 0, 64, 79
1, 31713, Control_c, 0, 67, 18
1, 31725, Note_off_c, 0, 49, 63
1, 31728, Control_c, 0, 64, 0
1, 31728, Control_c, 0, 67, 26
1, 31742, Control_c, 0, 67, 32
1, 31757, Control_c, 0, 67, 36
1, 31768, Note_on_c, 0, 50, 83
1, 31772, Control_c, 0, 67, 40
1, 31787, Control_c, 0, 67, 41
1, 31802, Control_c, 0, 67, 41
1, 31816, Control_c, 0, 67, 44
1, 31831, Note_on_c, 0, 52, 83
1, 31831, Control_c, 0, 67, 49
1, 31834, Note_off_c, 0, 50, 64
1, 31846, Control_c, 0, 67, 57
1, 31861, Control_c, 0, 67, 66
1, 31876, Control_c, 0, 67, 77
1, 31890, Control_c, 0, 67, 83
1, 31904, Note_on_c, 0, 50, 67
1, 31904, Note_off_c, 0, 52, 66
1, 31905, Control_c, 0, 67, 85
1, 31915, Note_on_c, 0, 55, 113
1, 31917, Note_on_c, 0, 51, 96
1, 31920, Control_c, 0, 67, 85
1, 31926, Note_on_c, 0, 48, 51
1, 31927, Note_off_c, 0, 48, 127
1, 31934, Control_c, 0, 67, 86
1, 31937, Note_off_c, 0, 55, 65
1, 31960, Note_off_c, 0, 51, 56
1, 31961, Note_on_c, 0, 52, 62
1, 31968, Note_off_c, 0, 50, 65
1, 31979, Control_c, 0, 67, 86
1, 32023, Control_c, 0, 67, 87
1, 32029, Note_on_c, 0, 50, 73
1, 32032, Note_off_c, 0, 52, 66
1, 32103, Note_on_c, 0, 52, 62
1, 32105, Control_c, 0, 67, 87
1, 32106, Note_off_c, 0, 50, 64
1, 32135, Control_c, 0, 67, 88
1, 32149, Control_c, 0, 67, 89
1, 32160, Note_off_c, 0, 52, 63
1, 32165, Control_c, 0, 67, 90
1, 32168, Note_on_c, 0, 51, 87
1, 32169, Note_on_c, 0, 49, 82
1, 32178, Note_on_c, 0, 50, 71
1, 32180, Control_c, 0, 67, 93
1, 32195, Control_c, 0, 67, 96
1, 32210, Control_c, 0, 67, 99
1, 32215, Note_off_c, 0, 49, 62
1, 32218, Note_off_c, 0, 51, 61
1, 32225, Control_c, 0, 67, 102
1, 32233, Note_off_c, 0, 50, 64
1, 32239, Note_on_c, 0, 52, 71
1, 32239, Control_c, 0, 67, 108
1, 32254, Control_c, 0, 67, 117
1, 32269, Control_c, 0, 67, 127
1, 32284, Control_c, 0, 67, 127
1, 32298, Note_off_c, 0, 52, 65
1, 32304, Note_on_c, 0, 50, 70
1, 32362, Note_on_c, 0, 47, 69
1, 32363, Note_off_c, 0, 50, 63
1, 32365, Note_on_c, 0, 45, 75
1, 32400, Note_off_c, 0, 45, 66
1, 32416, Note_off_c, 0, 47, 64
1, 32435, Note_on_c, 0, 48, 79
1, 32473, Note_off_c, 0, 48, 64
1, 32489, Note_on_c, 0, 50, 64
1, 32544, Note_off_c, 0, 50, 62
1, 32551, Note_on_c, 0, 48, 74
1, 32583, Note_on_c, 0, 51, 82
1, 32584, Note_off_c, 0, 48, 67
1, 32585, Note_on_c, 0, 49, 76
1, 32615, Note_off_c, 0, 49, 64
1, 32618, Note_off_c, 0, 51, 55
1, 32672, Note_on_c, 0, 50, 64
1, 32716, Note_off_c, 0, 50, 66
1, 32736, Note_on_c, 0, 52, 55
1, 32776, Note_off_c, 0, 52, 58
1, 32800, Note_on_c, 0, 50, 64
1, 32802, Note_on_c, 0, 55, 71
1, 32807, Note_on_c, 0, 51, 65
1, 32841, Note_off_c, 0, 55, 67
1, 32850, Note_off_c, 0, 50, 66
1, 32864, Note_off_c, 0, 51, 63
1, 32871, Note_on_c, 0, 52, 60
1, 32912, Note_off_c, 0, 52, 64
1, 32931, Note_on_c, 0, 50, 66
1, 32989, Note_off_c, 0, 50, 63
1, 33003, Note_on_c, 0, 52, 61
1, 33020, Note_on_c, 0, 49, 72
1, 33025, Note_on_c, 0, 51, 74
1, 33025, Note_off_c, 0, 52, 66
1, 33058, Note_off_c, 0, 49, 64
1, 33065, Note_off_c, 0, 51, 63
1, 33084, Note_on_c, 0, 48, 68
1, 33129, Note_off_c, 0, 48, 66
1, 33138, Note_on_c, 0, 50, 63
1, 33195, Note_off_c, 0, 50, 61
1, 33207, Note_on_c, 0, 48, 64
1, 33238, Note_on_c, 0, 47, 65
1, 33242, Note_on_c, 0, 45, 60
1, 33252, Note_off_c, 0, 48, 65
1, 33266, Note_off_c, 0, 45, 64
1, 33272, Note_on_c, 0, 50, 51
1, 33278, Note_off_c, 0, 47, 67
1, 33323, Note_off_c, 0, 50, 65
1, 33340, Note_on_c, 0, 48, 61
1, 33382, Note_off_c, 0, 48, 67
1, 33396, Note_on_c, 0, 50, 53
1, 33444, Note_off_c, 0, 50, 64
1, 33457, Note_on_c, 0, 48, 49
1, 33487, Note_off_c, 0, 48, 58
1, 33488, Note_on_c, 0, 49, 53
1, 33505, Note_on_c, 0, 55, 55
1, 33543, Note_off_c, 0, 49, 58
1, 33553, Note_on_c, 0, 51, 49
1, 33558, Note_on_c, 0, 53, 56
1, 33577, Note_off_c, 0, 55, 62
1, 33609, Note_on_c, 0, 52, 49
1, 33612, Note_on_c, 0, 54, 57
1, 33612, Note_off_c, 0, 51, 60
1, 33620, Note_off_c, 0, 53, 58
1, 33646, Note_off_c, 0, 52, 66
1, 33652, Note_on_c, 0, 50, 50
1, 33654, Note_on_c, 0, 56, 46
1, 33672, Note_off_c, 0, 54, 53
1, 33695, Note_off_c, 0, 56, 63
1, 33705, Note_off_c, 0, 50, 51
1, 33716, Note_on_c, 0, 52, 51
1, 33745, Note_on_c, 0, 49, 54
1, 33745, Note_on_c, 0, 53, 56
1, 33749, Note_off_c, 0, 52, 66
1, 33765, Note_on_c, 0, 51, 47
1, 33781, Note_on_c, 0, 55, 56
1, 33825, Note_off_c, 0, 53, 39
1, 33830, Note_off_c, 0, 55, 63
1, 33840, Note_off_c, 0, 49, 61
1, 33846, Note_on_c, 0, 52, 52
1, 33854, Note_on_c, 0, 54, 47
1, 33858, Note_off_c, 0, 51, 62
1, 33861, Note_on_c, 0, 50, 35
1, 33889, Note_on_c, 0, 56, 51
1, 33905, Note_off_c, 0, 54, 58
1, 33928, Note_off_c, 0, 50, 62
1, 33939, Note_off_c, 0, 56, 55
1, 33950, Note_on_c, 0, 53, 53
1, 33956, Note_off_c, 0, 52, 63
1, 33971, Note_on_c, 0, 55, 50
1, 33976, Note_on_c, 0, 51, 57
1, 34000, Note_on_c, 0, 49, 52
1, 34036, Note_off_c, 0, 53, 59
1, 34042, Note_off_c, 0, 55, 61
1, 34071, Note_on_c, 0, 52, 34
1, 34076, Note_on_c, 0, 50, 38
1, 34077, Note_off_c, 0, 51, 52
1, 34082, Note_on_c, 0, 54, 48
1, 34084, Note_off_c, 0, 49, 61
1, 34134, Note_on_c, 0, 56, 49
1, 34146, Note_off_c, 0, 50, 60
1, 34156, Note_off_c, 0, 54, 56
1, 34174, Note_off_c, 0, 52, 62
1, 34178, Note_on_c, 0, 53, 54
1, 34194, Note_on_c, 0, 51, 26
1, 34197, Note_off_c, 0, 56, 61
1, 34215, Note_on_c, 0, 55, 70
1, 34216, Note_on_c, 0, 49, 62
1, 34226, Note_off_c, 0, 51, 54
1, 34235, Note_off_c, 0, 53, 65
1, 34250, Note_off_c, 0, 49, 64
1, 34257, Note_off_c, 0, 55, 65
1, 34320, Note_on_c, 0, 37, 99
1, 34370, Note_off_c, 0, 37, 65
1, 34499, Note_on_c, 0, 49, 69
1, 34517, Note_on_c, 0, 55, 47
1, 34530, Note_on_c, 0, 53, 51
1, 34553, Note_on_c, 0, 51, 41
1, 34564, Note_off_c, 0, 55, 59
1, 34578, Note_off_c, 0, 53, 63
1, 34587, Note_on_c, 0, 52, 44
1, 34593, Note_off_c, 0, 49, 52
1, 34602, Note_on_c, 0, 54, 46
1, 34614, Note_off_c, 0, 51, 52
1, 34623, Note_off_c, 0, 52, 67
1, 34653, Note_on_c, 0, 56, 38
1, 34673, Note_off_c, 0, 54, 53
1, 34712, Note_on_c, 0, 53, 44
1, 34739, Note_on_c, 0, 49, 41
1, 34756, Note_on_c, 0, 55, 50
1, 34765, Note_off_c, 0, 56, 51
1, 34805, Note_on_c, 0, 51, 33
1, 34822, Note_off_c, 0, 55, 61
1, 34830, Note_off_c, 0, 53, 56
1, 34837, Note_on_c, 0, 52, 21
1, 34841, Note_off_c, 0, 49, 56
1, 34867, Note_off_c, 0, 52, 52
1, 34876, Note_on_c, 0, 50, 35
1, 34886, Note_off_c, 0, 51, 56
1, 34894, Note_on_c, 0, 56, 41
1, 34921, Note_off_c, 0, 50, 50
1, 34928, Poly_aftertouch_c, 0, 54, 127
1, 34967, Note_on_c, 0, 53, 50
1, 34980, Note_off_c, 0, 56, 51
1, 34983, Poly_aftertouch_c, 0, 54, 0
1, 35001, Note_on_c, 0, 49, 39
1, 35013, Note_on_c, 0, 55, 46
1, 35050, Note_on_c, 0, 51, 37
1, 35067, Note_off_c, 0, 55, 63
1, 35070, Note_off_c, 0, 53, 40
1, 35097, Note_on_c, 0, 52, 26
1, 35103, Note_off_c, 0, 49, 58
1, 35130, Note_on_c, 0, 56, 45
1, 35133, Note_on_c, 0, 50, 38
1, 35140, Note_off_c, 0, 52, 43
1, 35166, Note_off_c, 0, 50, 55
1, 35191, Note_on_c, 0, 53, 51
1, 35199, Note_off_c, 0, 56, 57
1, 35236, Note_off_c, 0, 53, 64
1, 35251, Note_off_c, 0, 51, 40
1, 35252, Note_on_c, 0, 55, 42
1, 35255, Note_on_c, 0, 49, 44
1, 35264, Control_c, 0, 64, 45
1, 35279, Control_c, 0, 64, 63
1, 35281, Note_off_c, 0, 55, 59
1, 35293, Control_c, 0, 64, 66
1, 35308, Control_c, 0, 64, 69
1, 35320, Note_on_c, 0, 53, 68
1, 35323, Control_c, 0, 64, 72
1, 35326, Poly_aftertouch_c, 0, 54, 127
1, 35328, Note_off_c, 0, 49, 60
1, 35338, Control_c, 0, 64, 76
1, 35352, Note_off_c, 0, 53, 66
1, 35353, Control_c, 0, 64, 80
1, 35368, Control_c, 0, 64, 82
1, 35371, Note_on_c, 0, 55, 65
1, 35388, Poly_aftertouch_c, 0, 54, 0
1, 35420, Note_off_c, 0, 55, 66
1, 35434, Note_on_c, 0, 57, 52
1, 35457, Control_c, 0, 64, 81
1, 35457, Note_off_c, 0, 57, 57
1, 35472, Control_c, 0, 64, 79
1, 35487, Control_c, 0, 64, 72
1, 35502, Control_c, 0, 64, 63
1, 35516, Control_c, 0, 64, 0
1, 35521, Note_on_c, 0, 59, 68
1, 35588, Note_on_c, 0, 61, 55
1, 35608, Note_off_c, 0, 59, 61
1, 35630, Note_on_c, 0, 63, 59
1, 35657, Note_off_c, 0, 61, 57
1, 35683, Note_off_c, 0, 63, 62
1, 35709, Note_on_c, 0, 65, 15
1, 35757, Note_on_c, 0, 66, 44
1, 35764, Note_off_c, 0, 65, 0
1, 35779, Note_on_c, 0, 65, 43
1, 35794, Note_off_c, 0, 66, 47
1, 35818, Note_off_c, 0, 65, 58
1, 35836, Note_on_c, 0, 63, 42
1, 35879, Note_off_c, 0, 63, 60
1, 35891, Note_on_c, 0, 61, 56
1, 35921, Note_off_c, 0, 61, 60
1, 35945, Note_on_c, 0, 63, 42
1, 35996, Note_on_c, 0, 65, 52
1, 36003, Note_off_c, 0, 63, 55
1, 36038, Note_on_c, 0, 66, 49
1, 36064, Note_off_c, 0, 65, 61
1, 36109, Note_on_c, 0, 68, 37
1, 36117, Note_off_c, 0, 66, 62
1, 36158, Note_on_c, 0, 70, 41
1, 36167, Note_off_c, 0, 68, 0
1, 36188, Note_on_c, 0, 68, 30
1, 36188, Note_off_c, 0, 70, 55
1, 36234, Note_off_c, 0, 68, 53
1, 36245, Note_on_c, 0, 66, 41
1, 36286, Note_off_c, 0, 66, 63
1, 36299, Note_on_c, 0, 65, 48
1, 36334, Note_off_c, 0, 65, 62
1, 36352, Note_on_c, 0, 63, 49
1, 36411, Note_off_c, 0, 63, 56
1, 36420, Note_on_c, 0, 65, 36
1, 36457, Note_off_c, 0, 65, 54
1, 36461, Note_on_c, 0, 66, 53
1, 36505, Note_off_c, 0, 66, 65
1, 36511, Note_on_c, 0, 68, 55
1, 36533, Note_off_c, 0, 68, 64
1, 36566, Note_on_c, 0, 66, 40
1, 36609, Note_off_c, 0, 66, 51
1, 36622, Note_on_c, 0, 65, 38
1, 36652, Note_off_c, 0, 65, 51
1, 36654, Note_on_c, 0, 63, 52
1, 36697, Note_off_c, 0, 63, 63
1, 36704, Note_on_c, 0, 61, 50
1, 36748, Note_off_c, 0, 61, 59
1, 36788, Note_on_c, 0, 59, 44
1, 36834, Note_off_c, 0, 59, 48
1, 36858, Note_on_c, 0, 61, 33
1, 36867, Note_on_c, 0, 63, 56
1, 36887, Note_off_c, 0, 61, 48
1, 36923, Note_off_c, 0, 63, 61
1, 36936, Note_on_c, 0, 65, 44
1, 36969, Note_off_c, 0, 65, 55
1, 36975, Note_on_c, 0, 66, 55
1, 37016, Note_off_c, 0, 66, 67
1, 37036, Note_on_c, 0, 65, 30
1, 37073, Note_on_c, 0, 63, 46
1, 37078, Note_off_c, 0, 65, 51
1, 37121, Note_off_c, 0, 63, 64
1, 37126, Note_on_c, 0, 61, 55
1, 37165, Note_off_c, 0, 61, 64
1, 37191, Note_on_c, 0, 59, 49
1, 37221, Control_c, 0, 64, 64
1, 37233, Note_off_c, 0, 59, 64
1, 37236, Control_c, 0, 64, 71
1, 37240, Note_on_c, 0, 60, 53
1, 37251, Control_c, 0, 64, 78
1, 37266, Control_c, 0, 64, 85
1, 37276, Note_on_c, 0, 62, 66
1, 37281, Control_c, 0, 64, 90
1, 37288, Note_off_c, 0, 60, 54
1, 37296, Control_c, 0, 64, 93
1, 37310, Control_c, 0, 64, 94
1, 37343, Note_on_c, 0, 64, 58
1, 37353, Note_off_c, 0, 62, 57
1, 37362, Control_c, 0, 64, 93
1, 37374, Note_off_c, 0, 64, 66
1, 37377, Control_c, 0, 64, 90
1, 37383, Note_on_c, 0, 65, 72
1, 37392, Control_c, 0, 64, 82
1, 37407, Control_c, 0, 64, 66
1, 37422, Control_c, 0, 64, 0
1, 37438, Note_off_c, 0, 65, 61
1, 37447, Note_on_c, 0, 64, 38
1, 37461, Note_on_c, 0, 62, 68
1, 37477, Note_off_c, 0, 64, 47
1, 37514, Note_off_c, 0, 62, 60
1, 37515, Note_on_c, 0, 60, 67
1, 37568, Note_off_c, 0, 60, 60
1, 37599, Note_on_c, 0, 59, 54
1, 37643, Control_c, 0, 64, 45
1, 37658, Control_c, 0, 64, 65
1, 37659, Note_off_c, 0, 59, 52
1, 37660, Note_on_c, 0, 61, 52
1, 37673, Control_c, 0, 64, 70
1, 37679, Note_on_c, 0, 63, 68
1, 37687, Control_c, 0, 64, 78
1, 37702, Control_c, 0, 64, 86
1, 37708, Note_off_c, 0, 61, 56
1, 37717, Control_c, 0, 64, 90
1, 37732, Control_c, 0, 64, 93
1, 37747, Control_c, 0, 64, 93
1, 37753, Note_on_c, 0, 65, 69
1, 37756, Note_off_c, 0, 63, 63
1, 37792, Control_c, 0, 64, 91
1, 37807, Control_c, 0, 64, 83
1, 37812, Note_on_c, 0, 66, 66
1, 37812, Note_off_c, 0, 65, 0
1, 37822, Control_c, 0, 64, 69
1, 37837, Control_c, 0, 64, 0
1, 37845, Note_on_c, 0, 65, 33
1, 37864, Note_off_c, 0, 66, 46
1, 37895, Note_on_c, 0, 63, 61
1, 37927, Note_off_c, 0, 65, 65
1, 37946, Note_off_c, 0, 63, 63
1, 37948, Note_on_c, 0, 61, 59
1, 38006, Note_off_c, 0, 61, 57
1, 38017, Note_on_c, 0, 59, 52
1, 38051, Note_on_c, 0, 60, 50
1, 38059, Control_c, 0, 64, 58
1, 38081, Control_c, 0, 64, 71
1, 38096, Control_c, 0, 64, 78
1, 38107, Note_off_c, 0, 59, 58
1, 38110, Control_c, 0, 64, 86
1, 38122, Note_on_c, 0, 62, 61
1, 38125, Control_c, 0, 64, 90
1, 38132, Note_off_c, 0, 60, 59
1, 38140, Control_c, 0, 64, 91
1, 38155, Control_c, 0, 64, 91
1, 38167, Note_on_c, 0, 64, 58
1, 38187, Note_off_c, 0, 62, 55
1, 38192, Note_off_c, 0, 64, 65
1, 38200, Control_c, 0, 64, 91
1, 38203, Note_on_c, 0, 65, 74
1, 38215, Control_c, 0, 64, 87
1, 38230, Control_c, 0, 64, 79
1, 38245, Control_c, 0, 64, 65
1, 38259, Control_c, 0, 64, 0
1, 38261, Note_off_c, 0, 65, 66
1, 38266, Note_on_c, 0, 61, 72
1, 38381, Note_on_c, 0, 60, 40
1, 38395, Note_off_c, 0, 61, 61
1, 38409, Note_off_c, 0, 60, 54
1, 38414, Note_on_c, 0, 56, 52
1, 38446, Note_on_c, 0, 58, 52
1, 38480, Note_off_c, 0, 56, 56
1, 38498, Note_on_c, 0, 59, 53
1, 38542, Note_off_c, 0, 58, 33
1, 38547, Note_on_c, 0, 61, 57
1, 38554, Note_off_c, 0, 59, 59
1, 38594, Note_off_c, 0, 61, 62
1, 38615, Note_on_c, 0, 63, 51
1, 38670, Note_on_c, 0, 61, 45
1, 38674, Note_off_c, 0, 63, 61
1, 38722, Note_off_c, 0, 61, 60
1, 38745, Note_on_c, 0, 59, 34
1, 38787, Note_off_c, 0, 59, 60
1, 38799, Note_on_c, 0, 58, 46
1, 38850, Note_off_c, 0, 58, 53
1, 38877, Note_on_c, 0, 55, 41
1, 38933, Note_off_c, 0, 55, 56
1, 38936, Note_on_c, 0, 57, 41
1, 38976, Note_off_c, 0, 57, 61
1, 38995, Note_on_c, 0, 59, 37
1, 39027, Note_off_c, 0, 59, 53
1, 39046, Note_on_c, 0, 60, 34
1, 39055, Note_on_c, 0, 62, 56
1, 39074, Note_off_c, 0, 60, 56
1, 39132, Note_off_c, 0, 62, 59
1, 39155, Note_on_c, 0, 59, 42
1, 39205, Note_off_c, 0, 59, 62
1, 39208, Note_on_c, 0, 57, 58
1, 39256, Note_off_c, 0, 57, 59
1, 39286, Note_on_c, 0, 54, 42
1, 39341, Note_off_c, 0, 54, 56
1, 39345, Note_on_c, 0, 56, 41
1, 39388, Note_off_c, 0, 56, 54
1, 39412, Note_on_c, 0, 59, 56
1, 39453, Note_off_c, 0, 59, 60
1, 39464, Note_on_c, 0, 61, 42
1, 39527, Note_off_c, 0, 61, 54
1, 39552, Note_on_c, 0, 59, 24
1, 39587, Note_on_c, 0, 58, 48
1, 39598, Note_off_c, 0, 59, 51
1, 39638, Note_off_c, 0, 58, 62
1, 39653, Note_on_c, 0, 56, 41
1, 39681, Note_off_c, 0, 56, 52
1, 39682, Control_c, 0, 64, 54
1, 39696, Control_c, 0, 64, 65
1, 39702, Note_on_c, 0, 53, 48
1, 39711, Control_c, 0, 64, 68
1, 39726, Control_c, 0, 64, 71
1, 39741, Control_c, 0, 64, 75
1, 39756, Control_c, 0, 64, 81
1, 39771, Control_c, 0, 64, 86
1, 39775, Note_on_c, 0, 54, 46
1, 39786, Note_on_c, 0, 56, 49
1, 39786, Control_c, 0, 64, 90
1, 39801, Control_c, 0, 64, 92
1, 39816, Control_c, 0, 64, 95
1, 39830, Control_c, 0, 64, 97
1, 39835, Note_off_c, 0, 54, 48
1, 39845, Control_c, 0, 64, 100
1, 39855, Note_on_c, 0, 58, 62
1, 39855, Note_off_c, 0, 56, 62
1, 39857, Note_off_c, 0, 53, 55
1, 39860, Control_c, 0, 64, 102
1, 39874, Control_c, 0, 64, 104
1, 39886, Note_off_c, 0, 58, 66
1, 39899, Note_on_c, 0, 59, 55
1, 39904, Control_c, 0, 64, 104
1, 39947, Note_on_c, 0, 61, 61
1, 39949, Note_off_c, 0, 59, 59
1, 39963, Control_c, 0, 67, 125
1, 39973, Note_off_c, 0, 61, 65
1, 39978, Control_c, 0, 67, 117
1, 39993, Control_c, 0, 67, 111
1, 39997, Note_on_c, 0, 63, 65
1, 40008, Control_c, 0, 67, 104
1, 40022, Control_c, 0, 67, 94
1, 40037, Control_c, 0, 67, 84
1, 40052, Control_c, 0, 67, 73
1, 40064, Note_on_c, 0, 65, 72
1, 40067, Control_c, 0, 67, 63
1, 40072, Note_off_c, 0, 63, 65
1, 40081, Control_c, 0, 67, 55
1, 40096, Control_c, 0, 67, 47
1, 40105, Note_on_c, 0, 68, 73
1, 40111, Control_c, 0, 67, 40
1, 40120, Note_on_c, 0, 70, 69
1, 40126, Control_c, 0, 67, 34
1, 40134, Note_off_c, 0, 65, 65
1, 40141, Control_c, 0, 67, 29
1, 40157, Control_c, 0, 64, 104
1, 40157, Control_c, 0, 67, 25
1, 40171, Control_c, 0, 64, 103
1, 40171, Control_c, 0, 67, 23
1, 40186, Control_c, 0, 67, 22
1, 40192, Note_on_c, 0, 71, 77
1, 40201, Control_c, 0, 64, 103
1, 40201, Control_c, 0, 67, 22
1, 40216, Control_c, 0, 64, 102
1, 40216, Control_c, 0, 67, 21
1, 40230, Note_off_c, 0, 68, 63
1, 40231, Control_c, 0, 67, 21
1, 40242, Note_on_c, 0, 73, 79
1, 40243, Note_off_c, 0, 70, 48
1, 40257, Note_off_c, 0, 71, 62
1, 40260, Control_c, 0, 64, 102
1, 40284, Note_off_c, 0, 73, 61
1, 40290, Note_on_c, 0, 75, 67
1, 40327, Control_c, 0, 64, 101
1, 40327, Control_c, 0, 67, 20
1, 40342, Control_c, 0, 64, 100
1, 40342, Control_c, 0, 67, 20
1, 40351, Note_on_c, 0, 77, 73
1, 40352, Note_off_c, 0, 75, 64
1, 40353, Note_on_c, 0, 76, 71
1, 40357, Control_c, 0, 64, 98
1, 40372, Control_c, 0, 64, 94
1, 40372, Control_c, 0, 67, 19
1, 40375, Note_off_c, 0, 76, 72
1, 40386, Control_c, 0, 64, 87
1, 40386, Control_c, 0, 67, 16
1, 40397, Note_on_c, 0, 78, 79
1, 40401, Control_c, 0, 64, 78
1, 40401, Control_c, 0, 67, 11
1, 40416, Control_c, 0, 64, 66
1, 40416, Control_c, 0, 67, 0
1, 40431, Control_c, 0, 64, 0
1, 40433, Note_off_c, 0, 77, 56
1, 40442, Note_on_c, 0, 80, 72
1, 40480, Note_off_c, 0, 78, 64
1, 40499, Note_on_c, 0, 83, 78
1, 40513, Note_off_c, 0, 80, 65
1, 40549, Control_c, 0, 64, 20
1, 40552, Note_on_c, 0, 81, 57
1, 40564, Control_c, 0, 64, 68
1, 40579, Control_c, 0, 64, 77
1, 40591, Note_off_c, 0, 83, 60
1, 40594, Control_c, 0, 64, 86
1, 40603, Note_on_c, 0, 80, 65
1, 40608, Control_c, 0, 64, 91
1, 40617, Note_off_c, 0, 81, 63
1, 40623, Control_c, 0, 64, 93
1, 40629, Note_on_c, 0, 78, 71
1, 40638, Control_c, 0, 64, 94
1, 40647, Note_off_c, 0, 80, 65
1, 40651, Note_off_c, 0, 78, 70
1, 40653, Control_c, 0, 64, 94
1, 40668, Control_c, 0, 64, 95
1, 40674, Note_on_c, 0, 76, 65
1, 40683, Control_c, 0, 64, 95
1, 40683, Control_c, 0, 67, 9
1, 40697, Control_c, 0, 67, 11
1, 40712, Control_c, 0, 67, 12
1, 40714, Note_on_c, 0, 75, 46
1, 40727, Control_c, 0, 67, 13
1, 40742, Control_c, 0, 67, 15
1, 40748, Note_on_c, 0, 73, 63
1, 40749, Note_off_c, 0, 76, 62
1, 40757, Control_c, 0, 67, 16
1, 40758, Note_off_c, 0, 75, 60
1, 40771, Control_c, 0, 67, 18
1, 40786, Control_c, 0, 67, 22
1, 40801, Control_c, 0, 67, 28
1, 40802, Note_off_c, 0, 73, 62
1, 40802, Note_on_c, 0, 71, 66
1, 40816, Control_c, 0, 67, 36
1, 40817, Note_on_c, 0, 69, 67
1, 40831, Control_c, 0, 67, 45
1, 40834, Note_off_c, 0, 71, 65
1, 40845, Control_c, 0, 67, 54
1, 40860, Control_c, 0, 64, 95
1, 40860, Control_c, 0, 67, 62
1, 40875, Control_c, 0, 67, 70
1, 40876, Note_on_c, 0, 68, 65
1, 40890, Control_c, 0, 64, 94
1, 40890, Control_c, 0, 67, 79
1, 40895, Note_off_c, 0, 69, 65
1, 40904, Control_c, 0, 64, 93
1, 40904, Control_c, 0, 67, 86
1, 40905, Note_off_c, 0, 68, 68
1, 40919, Control_c, 0, 67, 94
1, 40922, Note_on_c, 0, 66, 61
1, 40934, Control_c, 0, 67, 102
1, 40942, Note_off_c, 0, 66, 63
1, 40945, Note_on_c, 0, 64, 62
1, 40950, Control_c, 0, 64, 93
1, 40950, Control_c, 0, 67, 111
1, 40965, Control_c, 0, 67, 119
1, 40972, Note_off_c, 0, 64, 66
1, 40980, Control_c, 0, 67, 127
1, 40993, Poly_aftertouch_c, 0, 67, 127
1, 41002, Note_on_c, 0, 61, 61
1, 41017, Poly_aftertouch_c, 0, 67, 0
1, 41024, Control_c, 0, 64, 92
1, 41032, Note_on_c, 0, 59, 40
1, 41054, Control_c, 0, 64, 92
1, 41076, Control_c, 0, 64, 91
1, 41089, Note_on_c, 0, 57, 59
1, 41091, Control_c, 0, 64, 90
1, 41106, Note_off_c, 0, 61, 26
1, 41106, Control_c, 0, 64, 88
1, 41121, Control_c, 0, 64, 85
1, 41135, Control_c, 0, 64, 79
1, 41142, Note_off_c, 0, 59, 62
1, 41150, Control_c, 0, 64, 69
1, 41161, Note_on_c, 0, 56, 55
1, 41165, Note_off_c, 0, 57, 51
1, 41165, Control_c, 0, 64, 0
1, 41185, Note_on_c, 0, 53, 51
1, 41212, Note_off_c, 0, 56, 55
1, 41253, Note_off_c, 0, 53, 65
1, 41256, Note_on_c, 0, 54, 57
1, 41272, Note_on_c, 0, 56, 54
1, 41295, Note_off_c, 0, 54, 60
1, 41323, Note_off_c, 0, 56, 62
1, 41330, Note_on_c, 0, 58, 48
1, 41361, Note_off_c, 0, 58, 64
1, 41405, Note_on_c, 0, 60, 58
1, 41461, Note_on_c, 0, 59, 42
1, 41480, Note_off_c, 0, 60, 57
1, 41485, Note_on_c, 0, 57, 57
1, 41508, Note_off_c, 0, 59, 45
1, 41533, Note_off_c, 0, 57, 56
1, 41546, Note_on_c, 0, 55, 47
1, 41594, Note_off_c, 0, 55, 62
1, 41605, Note_on_c, 0, 56, 45
1, 41637, Note_on_c, 0, 58, 43
1, 41681, Note_off_c, 0, 56, 56
1, 41688, Note_on_c, 0, 59, 49
1, 41714, Note_off_c, 0, 58, 56
1, 41743, Note_on_c, 0, 61, 52
1, 41746, Note_off_c, 0, 59, 59
1, 41789, Note_on_c, 0, 62, 49
1, 41791, Note_off_c, 0, 61, 61
1, 41857, Note_on_c, 0, 60, 36
1, 41858, Note_off_c, 0, 62, 57
1, 41893, Note_on_c, 0, 59, 45
1, 41902, Note_off_c, 0, 60, 45
1, 41945, Note_on_c, 0, 57, 48
1, 41971, Note_off_c, 0, 59, 36
1, 41982, Note_on_c, 0, 53, 45
1, 41992, Note_off_c, 0, 57, 49
1, 42034, Note_on_c, 0, 54, 50
1, 42054, Note_off_c, 0, 53, 57
1, 42084, Note_on_c, 0, 56, 47
1, 42092, Note_off_c, 0, 54, 54
1, 42132, Note_off_c, 0, 56, 59
1, 42132, Note_on_c, 0, 58, 50
1, 42177, Note_off_c, 0, 58, 63
1, 42182, Note_on_c, 0, 60, 48
1, 42242, Note_on_c, 0, 59, 44
1, 42252, Note_off_c, 0, 60, 51
1, 42291, Note_off_c, 0, 59, 55
1, 42298, Note_on_c, 0, 57, 18
1, 42328, Note_on_c, 0, 55, 49
1, 42341, Note_off_c, 0, 57, 43
1, 42370, Note_off_c, 0, 55, 62
1, 42376, Note_on_c, 0, 56, 49
1, 42402, Note_on_c, 0, 58, 38
1, 42445, Note_off_c, 0, 56, 58
1, 42456, Note_on_c, 0, 59, 50
1, 42484, Note_off_c, 0, 58, 59
1, 42501, Note_on_c, 0, 61, 55
1, 42513, Note_off_c, 0, 59, 60
1, 42542, Note_on_c, 0, 62, 51
1, 42543, Note_off_c, 0, 61, 63
1, 42609, Note_on_c, 0, 60, 42
1, 42641, Note_off_c, 0, 62, 54
1, 42648, Note_on_c, 0, 59, 52
1, 42665, Note_off_c, 0, 60, 57
1, 42696, Note_on_c, 0, 57, 50
1, 42732, Note_off_c, 0, 59, 36
1, 42733, Note_off_c, 0, 57, 48
1, 42752, Control_c, 0, 64, 37
1, 42766, Note_on_c, 0, 61, 46
1, 42767, Control_c, 0, 64, 52
1, 42779, Note_on_c, 0, 63, 46
1, 42782, Control_c, 0, 64, 59
1, 42796, Control_c, 0, 64, 63
1, 42811, Control_c, 0, 64, 65
1, 42817, Note_on_c, 0, 65, 57
1, 42826, Control_c, 0, 64, 68
1, 42841, Note_off_c, 0, 61, 48
1, 42841, Control_c, 0, 64, 72
1, 42856, Control_c, 0, 64, 77
1, 42859, Note_off_c, 0, 63, 63
1, 42863, Note_on_c, 0, 66, 63
1, 42871, Control_c, 0, 64, 83
1, 42871, Control_c, 0, 67, 116
1, 42872, Note_off_c, 0, 65, 62
1, 42886, Control_c, 0, 64, 87
1, 42886, Control_c, 0, 67, 100
1, 42898, Note_off_c, 0, 66, 67
1, 42900, Control_c, 0, 64, 90
1, 42900, Control_c, 0, 67, 84
1, 42913, Note_on_c, 0, 67, 70
1, 42915, Control_c, 0, 64, 92
1, 42915, Control_c, 0, 67, 64
1, 42930, Control_c, 0, 64, 95
1, 42930, Control_c, 0, 67, 48
1, 42945, Control_c, 0, 64, 99
1, 42945, Control_c, 0, 67, 31
1, 42960, Control_c, 0, 64, 104
1, 42960, Control_c, 0, 67, 18
1, 42974, Control_c, 0, 64, 109
1, 42974, Control_c, 0, 67, 0
1, 42978, Note_on_c, 0, 65, 66
1, 42989, Control_c, 0, 64, 113
1, 43004, Control_c, 0, 64, 117
1, 43011, Note_on_c, 0, 64, 63
1, 43014, Note_off_c, 0, 67, 59
1, 43019, Control_c, 0, 64, 121
1, 43034, Control_c, 0, 64, 123
1, 43042, Note_off_c, 0, 65, 62
1, 43044, Note_on_c, 0, 62, 78
1, 43047, Note_on_c, 0, 77, 39
1, 43048, Control_c, 0, 64, 125
1, 43063, Control_c, 0, 64, 125
1, 43078, Control_c, 0, 64, 126
1, 43092, Note_off_c, 0, 62, 63
1, 43101, Note_off_c, 0, 64, 55
1, 43102, Note_on_c, 0, 73, 80
1, 43113, Note_on_c, 0, 75, 75
1, 43126, Note_off_c, 0, 77, 36
1, 43181, Note_on_c, 0, 77, 73
1, 43211, Note_on_c, 0, 78, 92
1, 43211, Note_off_c, 0, 73, 62
1, 43226, Control_c, 0, 64, 125
1, 43230, Note_off_c, 0, 75, 64
1, 43238, Note_off_c, 0, 77, 64
1, 43255, Control_c, 0, 64, 125
1, 43264, Note_on_c, 0, 79, 80
1, 43265, Note_off_c, 0, 78, 67
1, 43270, Control_c, 0, 64, 123
1, 43285, Control_c, 0, 64, 121
1, 43300, Control_c, 0, 64, 120
1, 43309, Note_on_c, 0, 77, 75
1, 43322, Control_c, 0, 64, 118
1, 43337, Control_c, 0, 64, 115
1, 43352, Note_on_c, 0, 76, 79
1, 43353, Control_c, 0, 64, 113
1, 43368, Control_c, 0, 64, 110
1, 43383, Control_c, 0, 64, 106
1, 43391, Note_on_c, 0, 80, 39
1, 43397, Control_c, 0, 64, 99
1, 43399, Note_off_c, 0, 79, 59
1, 43402, Note_on_c, 0, 74, 83
1, 43412, Control_c, 0, 64, 88
1, 43421, Note_off_c, 0, 80, 53
1, 43425, Note_off_c, 0, 77, 57
1, 43427, Control_c, 0, 64, 74
1, 43442, Control_c, 0, 64, 40
1, 43449, Note_on_c, 0, 85, 76
1, 43457, Control_c, 0, 64, 0
1, 43474, Note_off_c, 0, 76, 58
1, 43487, Note_off_c, 0, 74, 59
1, 43497, Note_on_c, 0, 83, 67
1, 43527, Note_off_c, 0, 85, 64
1, 43545, Control_c, 0, 64, 61
1, 43551, Note_on_c, 0, 82, 71
1, 43560, Control_c, 0, 64, 72
1, 43572, Note_off_c, 0, 83, 63
1, 43575, Control_c, 0, 64, 84
1, 43580, Note_on_c, 0, 80, 69
1, 43589, Control_c, 0, 64, 94
1, 43604, Control_c, 0, 64, 99
1, 43609, Note_off_c, 0, 82, 65
1, 43610, Note_on_c, 0, 79, 64
1, 43619, Control_c, 0, 64, 99
1, 43623, Note_off_c, 0, 80, 64
1, 43649, Control_c, 0, 64, 100
1, 43670, Note_on_c, 0, 77, 53
1, 43691, Note_on_c, 0, 76, 65
1, 43696, Note_off_c, 0, 79, 55
1, 43726, Note_off_c, 0, 77, 51
1, 43737, Note_on_c, 0, 74, 64
1, 43758, Note_off_c, 0, 76, 60
1, 43766, Note_on_c, 0, 73, 50
1, 43793, Note_off_c, 0, 74, 65
1, 43820, Note_off_c, 0, 73, 62
1, 43849, Note_on_c, 0, 70, 66
1, 43884, Note_on_c, 0, 68, 58
1, 43901, Control_c, 0, 64, 99
1, 43909, Note_off_c, 0, 70, 64
1, 43916, Note_off_c, 0, 68, 65
1, 43965, Note_on_c, 0, 67, 50
1, 43990, Control_c, 0, 64, 99
1, 44004, Note_on_c, 0, 65, 54
1, 44004, Control_c, 0, 64, 97
1, 44019, Control_c, 0, 64, 96
1, 44029, Note_on_c, 0, 64, 57
1, 44034, Control_c, 0, 64, 92
1, 44048, Control_c, 0, 64, 86
1, 44071, Control_c, 0, 64, 76
1, 44083, Note_off_c, 0, 67, 38
1, 44086, Control_c, 0, 64, 63
1, 44091, Note_on_c, 0, 62, 57
1, 44091, Note_off_c, 0, 65, 53
1, 44095, Note_off_c, 0, 64, 58
1, 44101, Control_c, 0, 64, 0
1, 44115, Note_on_c, 0, 61, 66
1, 44151, Note_off_c, 0, 62, 61
1, 44156, Note_on_c, 0, 63, 51
1, 44191, Control_c, 0, 64, 40
1, 44204, Note_on_c, 0, 65, 72
1, 44206, Control_c, 0, 64, 67
1, 44216, Note_off_c, 0, 61, 56
1, 44221, Control_c, 0, 64, 72
1, 44236, Control_c, 0, 64, 78
1, 44250, Note_on_c, 0, 66, 75
1, 44251, Control_c, 0, 64, 84
1, 44252, Note_off_c, 0, 63, 64
1, 44266, Control_c, 0, 64, 88
1, 44269, Note_off_c, 0, 65, 65
1, 44281, Control_c, 0, 64, 91
1, 44285, Note_off_c, 0, 66, 65
1, 44291, Note_on_c, 0, 67, 72
1, 44295, Control_c, 0, 64, 93
1, 44310, Control_c, 0, 64, 95
1, 44325, Control_c, 0, 64, 95
1, 44329, Note_off_c, 0, 67, 66
1, 44340, Note_on_c, 0, 69, 72
1, 44369, Note_off_c, 0, 69, 70
1, 44373, Note_on_c, 0, 67, 9
1, 44385, Note_on_c, 0, 71, 63
1, 44395, Note_on_c, 0, 78, 73
1, 44397, Note_on_c, 0, 69, 66
1, 44414, Note_off_c, 0, 67, 50
1, 44425, Note_off_c, 0, 69, 66
1, 44431, Note_on_c, 0, 72, 79
1, 44436, Note_off_c, 0, 71, 66
1, 44463, Note_off_c, 0, 78, 53
1, 44472, Note_off_c, 0, 72, 69
1, 44481, Note_on_c, 0, 73, 81
1, 44491, Note_on_c, 0, 75, 82
1, 44517, Control_c, 0, 64, 95
1, 44532, Control_c, 0, 64, 94
1, 44546, Control_c, 0, 64, 94
1, 44549, Note_on_c, 0, 77, 74
1, 44561, Control_c, 0, 64, 93
1, 44575, Note_off_c, 0, 73, 63
1, 44576, Control_c, 0, 64, 93
1, 44587, Note_on_c, 0, 78, 85
1, 44591, Control_c, 0, 64, 92
1, 44599, Note_off_c, 0, 75, 65
1, 44606, Control_c, 0, 64, 92
1, 44615, Note_off_c, 0, 77, 63
1, 44621, Control_c, 0, 64, 91
1, 44633, Note_off_c, 0, 78, 65
1, 44636, Note_on_c, 0, 79, 77
1, 44651, Control_c, 0, 64, 91
1, 44677, Note_on_c, 0, 81, 82
1, 44678, Note_off_c, 0, 79, 64
1, 44680, Control_c, 0, 64, 90
1, 44695, Control_c, 0, 64, 90
1, 44710, Control_c, 0, 64, 89
1, 44713, Note_off_c, 0, 81, 67
1, 44720, Note_on_c, 0, 83, 85
1, 44725, Control_c, 0, 64, 87
1, 44739, Control_c, 0, 64, 85
1, 44754, Control_c, 0, 64, 80
1, 44762, Note_on_c, 0, 84, 85
1, 44769, Control_c, 0, 64, 72
1, 44784, Control_c, 0, 64, 62
1, 44799, Control_c, 0, 64, 0
1, 44801, Note_off_c, 0, 83, 61
1, 44839, Poly_aftertouch_c, 0, 82, 0
1, 44846, Note_on_c, 0, 87, 75
1, 44849, Note_off_c, 0, 84, 61
1, 44877, Note_on_c, 0, 85, 70
1, 44910, Control_c, 0, 64, 48
1, 44922, Note_off_c, 0, 87, 63
1, 44925, Control_c, 0, 64, 69
1, 44940, Control_c, 0, 64, 78
1, 44943, Note_on_c, 0, 83, 57
1, 44955, Control_c, 0, 64, 87
1, 44969, Control_c, 0, 64, 93
1, 44974, Note_off_c, 0, 85, 66
1, 44984, Control_c, 0, 64, 94
1, 44990, Note_on_c, 0, 82, 66
1, 44999, Control_c, 0, 64, 94
1, 45002, Note_on_c, 0, 80, 63
1, 45002, Note_off_c, 0, 83, 63
1, 45014, Control_c, 0, 64, 95
1, 45017, Note_on_c, 0, 78, 52
1, 45020, Note_off_c, 0, 82, 67
1, 45083, Note_off_c, 0, 80, 60
1, 45084, Note_on_c, 0, 77, 55
1, 45119, Note_off_c, 0, 78, 52
1, 45138, Note_off_c, 0, 77, 57
1, 45140, Note_on_c, 0, 75, 50
1, 45169, Note_off_c, 0, 75, 67
1, 45189, Note_on_c, 0, 73, 52
1, 45232, Note_on_c, 0, 71, 47
1, 45237, Control_c, 0, 64, 94
1, 45237, Control_c, 0, 67, 8
1, 45251, Control_c, 0, 64, 94
1, 45251, Control_c, 0, 67, 12
1, 45259, Note_on_c, 0, 70, 63
1, 45266, Control_c, 0, 67, 17
1, 45276, Note_off_c, 0, 73, 46
1, 45278, Note_off_c, 0, 71, 63
1, 45281, Control_c, 0, 64, 93
1, 45281, Control_c, 0, 67, 23
1, 45284, Note_on_c, 0, 68, 62
1, 45295, Control_c, 0, 64, 93
1, 45295, Control_c, 0, 67, 30
1, 45310, Control_c, 0, 67, 38
1, 45315, Note_off_c, 0, 70, 64
1, 45319, Note_off_c, 0, 68, 64
1, 45325, Control_c, 0, 64, 92
1, 45325, Control_c, 0, 67, 48
1, 45340, Control_c, 0, 67, 59
1, 45355, Control_c, 0, 64, 92
1, 45355, Control_c, 0, 67, 70
1, 45369, Control_c, 0, 67, 78
1, 45376, Note_on_c, 0, 66, 56
1, 45384, Control_c, 0, 64, 91
1, 45384, Control_c, 0, 67, 84
1, 45399, Control_c, 0, 64, 91
1, 45399, Control_c, 0, 67, 87
1, 45414, Control_c, 0, 64, 90
1, 45414, Control_c, 0, 67, 90
1, 45429, Control_c, 0, 64, 88
1, 45429, Control_c, 0, 67, 92
1, 45435, Note_on_c, 0, 63, 54
1, 45443, Control_c, 0, 64, 85
1, 45458, Note_off_c, 0, 66, 58
1, 45458, Control_c, 0, 64, 82
1, 45464, Note_on_c, 0, 61, 55
1, 45473, Control_c, 0, 64, 76
1, 45488, Control_c, 0, 64, 68
1, 45488, Note_off_c, 0, 63, 50
1, 45503, Control_c, 0, 64, 43
1, 45503, Control_c, 0, 67, 91
1, 45518, Control_c, 0, 64, 0
1, 45523, Note_off_c, 0, 61, 62
1, 45533, Control_c, 0, 67, 90
1, 45548, Control_c, 0, 67, 90
1, 45554, Note_on_c, 0, 57, 50
1, 45569, Control_c, 0, 67, 89
1, 45599, Control_c, 0, 67, 89
1, 45614, Control_c, 0, 67, 88
1, 45628, Control_c, 0, 64, 64
1, 45628, Control_c, 0, 67, 88
1, 45643, Note_on_c, 0, 60, 42
1, 45643, Control_c, 0, 64, 69
1, 45643, Control_c, 0, 67, 87
1, 45658, Control_c, 0, 64, 74
1, 45658, Control_c, 0, 67, 86
1, 45673, Control_c, 0, 64, 79
1, 45688, Control_c, 0, 64, 83
1, 45688, Control_c, 0, 67, 85
1, 45702, Control_c, 0, 64, 84
1, 45702, Control_c, 0, 67, 85
1, 45717, Control_c, 0, 64, 85
1, 45717, Control_c, 0, 67, 84
1, 45721, Note_on_c, 0, 62, 43
1, 45732, Control_c, 0, 64, 85
1, 45732, Control_c, 0, 67, 83
1, 45739, Note_off_c, 0, 60, 52
1, 45748, Control_c, 0, 64, 86
1, 45748, Control_c, 0, 67, 81
1, 45756, Note_off_c, 0, 57, 52
1, 45762, Control_c, 0, 67, 78
1, 45767, Note_on_c, 0, 64, 52
1, 45771, Note_off_c, 0, 62, 48
1, 45774, Note_on_c, 0, 69, 31
1, 45777, Control_c, 0, 64, 86
1, 45777, Control_c, 0, 67, 70
1, 45792, Control_c, 0, 64, 87
1, 45792, Control_c, 0, 67, 60
1, 45807, Control_c, 0, 67, 49
1, 45813, Note_on_c, 0, 66, 51
1, 45822, Control_c, 0, 67, 41
1, 45837, Control_c, 0, 67, 32
1, 45852, Control_c, 0, 67, 25
1, 45857, Note_off_c, 0, 69, 39
1, 45862, Note_off_c, 0, 66, 51
1, 45866, Control_c, 0, 67, 18
1, 45881, Control_c, 0, 67, 11
1, 45896, Control_c, 0, 67, 0
1, 45911, Note_off_c, 0, 64, 53
1, 45920, Note_on_c, 0, 62, 51
1, 45971, Control_c, 0, 64, 86
1, 45986, Control_c, 0, 64, 86
1, 45992, Note_off_c, 0, 62, 51
1, 46000, Control_c, 0, 64, 84
1, 46004, Note_on_c, 0, 60, 59
1, 46015, Control_c, 0, 64, 80
1, 46030, Control_c, 0, 64, 73
1, 46045, Control_c, 0, 64, 63
1, 46055, Note_on_c, 0, 63, 55
1, 46060, Control_c, 0, 64, 0
1, 46104, Control_c, 0, 64, 25
1, 46118, Control_c, 0, 64, 63
1, 46129, Note_on_c, 0, 65, 53
1, 46133, Control_c, 0, 64, 69
1, 46147, Note_off_c, 0, 60, 56
1, 46148, Control_c, 0, 64, 75
1, 46163, Control_c, 0, 64, 82
1, 46172, Note_off_c, 0, 63, 63
1, 46178, Control_c, 0, 64, 87
1, 46179, Note_off_c, 0, 65, 65
1, 46190, Note_on_c, 0, 72, 52
1, 46191, Note_on_c, 0, 67, 51
1, 46193, Control_c, 0, 64, 88
1, 46208, Control_c, 0, 64, 89
1, 46229, Note_on_c, 0, 69, 59
1, 46263, Note_off_c, 0, 67, 0
1, 46278, Note_on_c, 0, 67, 40
1, 46282, Note_off_c, 0, 72, 56
1, 46317, Note_off_c, 0, 69, 63
1, 46325, Note_off_c, 0, 67, 62
1, 46328, Note_on_c, 0, 65, 68
1, 46379, Control_c, 0, 64, 89
1, 46386, Note_off_c, 0, 65, 64
1, 46393, Control_c, 0, 64, 86
1, 46394, Note_on_c, 0, 62, 79
1, 46408, Control_c, 0, 64, 81
1, 46423, Control_c, 0, 64, 71
1, 46438, Control_c, 0, 64, 47
1, 46452, Control_c, 0, 64, 0
1, 46475, Note_on_c, 0, 66, 67
1, 46512, Control_c, 0, 64, 62
1, 46517, Note_on_c, 0, 67, 64
1, 46526, Control_c, 0, 64, 69
1, 46542, Control_c, 0, 64, 76
1, 46557, Control_c, 0, 64, 83
1, 46572, Control_c, 0, 64, 86
1, 46587, Control_c, 0, 64, 88
1, 46588, Note_off_c, 0, 62, 56
1, 46594, Note_on_c, 0, 74, 46
1, 46598, Note_on_c, 0, 69, 57
1, 46602, Control_c, 0, 64, 88
1, 46607, Note_off_c, 0, 67, 58
1, 46641, Note_on_c, 0, 72, 45
1, 46657, Note_off_c, 0, 69, 51
1, 46664, Note_off_c, 0, 74, 56
1, 46668, Note_on_c, 0, 71, 57
1, 46686, Note_off_c, 0, 72, 45
1, 46732, Note_on_c, 0, 69, 55
1, 46735, Note_off_c, 0, 71, 61
1, 46749, Control_c, 0, 64, 88
1, 46764, Control_c, 0, 64, 87
1, 46776, Note_off_c, 0, 69, 61
1, 46779, Control_c, 0, 64, 85
1, 46794, Control_c, 0, 64, 82
1, 46805, Note_on_c, 0, 63, 67
1, 46809, Control_c, 0, 64, 75
1, 46824, Control_c, 0, 64, 65
1, 46839, Control_c, 0, 64, 0
1, 46846, Note_off_c, 0, 66, 0
1, 46862, Note_on_c, 0, 66, 34
1, 46926, Note_on_c, 0, 68, 47
1, 46928, Control_c, 0, 64, 62
1, 46942, Control_c, 0, 64, 70
1, 46957, Control_c, 0, 64, 75
1, 46972, Control_c, 0, 64, 80
1, 46973, Note_on_c, 0, 70, 56
1, 46979, Note_off_c, 0, 63, 64
1, 46987, Control_c, 0, 64, 83
1, 47002, Note_on_c, 0, 75, 45
1, 47002, Control_c, 0, 64, 84
1, 47016, Control_c, 0, 64, 85
1, 47031, Control_c, 0, 64, 86
1, 47048, Note_on_c, 0, 72, 47
1, 47071, Note_off_c, 0, 70, 0
1, 47074, Note_off_c, 0, 68, 53
1, 47075, Note_off_c, 0, 75, 38
1, 47084, Note_on_c, 0, 70, 38
1, 47093, Note_off_c, 0, 72, 51
1, 47157, Note_on_c, 0, 68, 49
1, 47163, Note_off_c, 0, 70, 59
1, 47167, Note_off_c, 0, 66, 41
1, 47172, Control_c, 0, 64, 85
1, 47187, Control_c, 0, 64, 84
1, 47193, Note_off_c, 0, 68, 52
1, 47202, Control_c, 0, 64, 81
1, 47216, Control_c, 0, 64, 75
1, 47217, Note_on_c, 0, 61, 57
1, 47231, Control_c, 0, 64, 65
1, 47246, Control_c, 0, 64, 0
1, 47249, Note_on_c, 0, 63, 49
1, 47290, Control_c, 0, 67, 8
1, 47305, Control_c, 0, 67, 11
1, 47320, Control_c, 0, 64, 50
1, 47320, Control_c, 0, 67, 15
1, 47335, Control_c, 0, 64, 66
1, 47335, Control_c, 0, 67, 20
1, 47351, Control_c, 0, 64, 72
1, 47351, Control_c, 0, 67, 25
1, 47351, Note_on_c, 0, 66, 43
1, 47365, Control_c, 0, 64, 79
1, 47365, Control_c, 0, 67, 29
1, 47377, Note_off_c, 0, 61, 51
1, 47380, Control_c, 0, 64, 84
1, 47380, Control_c, 0, 67, 32
1, 47381, Note_on_c, 0, 68, 43
1, 47391, Note_off_c, 0, 63, 58
1, 47395, Control_c, 0, 64, 88
1, 47395, Control_c, 0, 67, 35
1, 47402, Note_on_c, 0, 73, 47
1, 47410, Control_c, 0, 64, 89
1, 47410, Control_c, 0, 67, 38
1, 47425, Control_c, 0, 64, 91
1, 47425, Control_c, 0, 67, 42
1, 47439, Control_c, 0, 64, 91
1, 47439, Control_c, 0, 67, 47
1, 47442, Note_off_c, 0, 66, 58
1, 47454, Control_c, 0, 67, 53
1, 47462, Note_on_c, 0, 70, 41
1, 47469, Control_c, 0, 67, 62
1, 47483, Control_c, 0, 67, 68
1, 47485, Note_off_c, 0, 73, 45
1, 47498, Control_c, 0, 67, 73
1, 47513, Control_c, 0, 67, 75
1, 47527, Note_off_c, 0, 70, 47
1, 47528, Control_c, 0, 67, 76
1, 47543, Control_c, 0, 67, 77
1, 47558, Control_c, 0, 67, 78
1, 47565, Note_on_c, 0, 66, 52
1, 47572, Control_c, 0, 67, 79
1, 47577, Note_off_c, 0, 68, 47
1, 47587, Control_c, 0, 67, 79
1, 47602, Control_c, 0, 64, 91
1, 47602, Control_c, 0, 67, 80
1, 47614, Note_off_c, 0, 66, 60
1, 47617, Control_c, 0, 64, 90
1, 47624, Note_on_c, 0, 58, 58
1, 47632, Control_c, 0, 64, 88
1, 47646, Control_c, 0, 64, 84
1, 47661, Control_c, 0, 64, 79
1, 47676, Control_c, 0, 64, 71
1, 47689, Note_on_c, 0, 60, 29
1, 47691, Control_c, 0, 64, 60
1, 47706, Control_c, 0, 64, 0
1, 47721, Control_c, 0, 67, 80
1, 47727, Note_on_c, 0, 62, 43
1, 47751, Control_c, 0, 64, 53
1, 47765, Control_c, 0, 64, 64
1, 47780, Control_c, 0, 64, 69
1, 47795, Control_c, 0, 64, 73
1, 47799, Note_on_c, 0, 70, 47
1, 47817, Control_c, 0, 64, 78
1, 47817, Control_c, 0, 67, 81
1, 47820, Note_on_c, 0, 64, 46
1, 47832, Control_c, 0, 64, 83
1, 47846, Control_c, 0, 64, 85
1, 47861, Control_c, 0, 64, 87
1, 47861, Control_c, 0, 67, 81
1, 47865, Note_off_c, 0, 62, 57
1, 47871, Note_on_c, 0, 67, 45
1, 47876, Control_c, 0, 64, 88
1, 47882, Note_off_c, 0, 64, 52
1, 47891, Control_c, 0, 64, 88
1, 47897, Note_off_c, 0, 70, 52
1, 47906, Note_off_c, 0, 58, 55
1, 47922, Note_off_c, 0, 60, 35
1, 47936, Control_c, 0, 67, 82
1, 47944, Note_on_c, 0, 65, 48
1, 47951, Control_c, 0, 67, 83
1, 47965, Control_c, 0, 67, 84
1, 47974, Note_off_c, 0, 67, 37
1, 47980, Control_c, 0, 67, 85
1, 47995, Control_c, 0, 67, 86
1, 48010, Control_c, 0, 67, 87
1, 48025, Note_on_c, 0, 64, 38
1, 48025, Control_c, 0, 67, 87
1, 48026, Note_off_c, 0, 65, 53
1, 48040, Control_c, 0, 64, 88
1, 48055, Control_c, 0, 64, 87
1, 48064, Note_on_c, 0, 57, 51
1, 48070, Control_c, 0, 64, 87
1, 48082, Note_off_c, 0, 64, 44
1, 48085, Control_c, 0, 64, 86
1, 48099, Control_c, 0, 64, 84
1, 48114, Control_c, 0, 64, 80
1, 48129, Control_c, 0, 64, 70
1, 48129, Control_c, 0, 67, 88
1, 48130, Note_on_c, 0, 60, 47
1, 48144, Control_c, 0, 64, 47
1, 48159, Control_c, 0, 64, 0
1, 48204, Control_c, 0, 64, 29
1, 48219, Control_c, 0, 64, 62
1, 48230, Note_off_c, 0, 60, 53
1, 48234, Control_c, 0, 64, 67
1, 48239, Note_on_c, 0, 62, 39
1, 48248, Control_c, 0, 64, 71
1, 48248, Control_c, 0, 67, 87
1, 48258, Note_off_c, 0, 57, 56
1, 48263, Control_c, 0, 64, 76
1, 48278, Control_c, 0, 64, 80
1, 48280, Note_on_c, 0, 69, 34
1, 48282, Note_off_c, 0, 62, 61
1, 48292, Note_on_c, 0, 64, 42
1, 48293, Control_c, 0, 64, 82
1, 48293, Control_c, 0, 67, 87
1, 48308, Control_c, 0, 64, 84
1, 48308, Control_c, 0, 67, 86
1, 48317, Note_on_c, 0, 66, 49
1, 48322, Control_c, 0, 64, 84
1, 48322, Control_c, 0, 67, 86
1, 48335, Note_off_c, 0, 69, 46
1, 48352, Control_c, 0, 67, 85
1, 48359, Note_off_c, 0, 64, 0
1, 48367, Control_c, 0, 67, 85
1, 48373, Note_on_c, 0, 64, 33
1, 48381, Control_c, 0, 67, 84
1, 48387, Note_off_c, 0, 66, 47
1, 48396, Control_c, 0, 67, 84
1, 48411, Control_c, 0, 67, 83
1, 48426, Control_c, 0, 67, 83
1, 48434, Note_off_c, 0, 64, 59
1, 48435, Note_on_c, 0, 62, 48
1, 48440, Control_c, 0, 67, 82
1, 48455, Control_c, 0, 67, 81
1, 48470, Control_c, 0, 67, 80
1, 48481, Note_off_c, 0, 62, 46
1, 48500, Control_c, 0, 64, 83
1, 48500, Control_c, 0, 67, 80
1, 48508, Note_on_c, 0, 60, 66
1, 48514, Control_c, 0, 64, 81
1, 48514, Control_c, 0, 67, 79
1, 48529, Control_c, 0, 64, 75
1, 48529, Control_c, 0, 67, 79
1, 48544, Control_c, 0, 64, 65
1, 48559, Control_c, 0, 64, 0
1, 48573, Note_on_c, 0, 63, 55
1, 48596, Control_c, 0, 67, 78
1, 48611, Control_c, 0, 67, 78
1, 48626, Control_c, 0, 64, 63
1, 48626, Control_c, 0, 67, 77
1, 48636, Note_on_c, 0, 65, 59
1, 48640, Control_c, 0, 64, 69
1, 48655, Control_c, 0, 64, 75
1, 48664, Note_off_c, 0, 60, 56
1, 48670, Control_c, 0, 64, 82
1, 48684, Note_off_c, 0, 63, 62
1, 48685, Control_c, 0, 64, 87
1, 48685, Control_c, 0, 67, 77
1, 48689, Note_off_c, 0, 65, 65
1, 48700, Control_c, 0, 64, 89
1, 48700, Control_c, 0, 67, 75
1, 48705, Note_on_c, 0, 67, 56
1, 48714, Note_on_c, 0, 72, 54
1, 48714, Control_c, 0, 64, 90
1, 48714, Control_c, 0, 67, 73
1, 48729, Control_c, 0, 64, 91
1, 48729, Control_c, 0, 67, 67
1, 48744, Control_c, 0, 67, 61
1, 48747, Note_off_c, 0, 67, 52
1, 48759, Control_c, 0, 67, 56
1, 48774, Note_on_c, 0, 69, 53
1, 48774, Control_c, 0, 67, 51
1, 48788, Control_c, 0, 67, 46
1, 48803, Control_c, 0, 67, 42
1, 48815, Note_off_c, 0, 72, 58
1, 48818, Control_c, 0, 67, 39
1, 48833, Control_c, 0, 67, 35
1, 48848, Note_off_c, 0, 69, 61
1, 48848, Control_c, 0, 67, 29
1, 48854, Note_on_c, 0, 67, 28
1, 48858, Note_on_c, 0, 65, 66
1, 48863, Control_c, 0, 67, 22
1, 48877, Control_c, 0, 67, 12
1, 48889, Note_off_c, 0, 67, 49
1, 48892, Control_c, 0, 64, 89
1, 48892, Control_c, 0, 67, 0
1, 48897, Note_off_c, 0, 65, 61
1, 48907, Control_c, 0, 64, 84
1, 48909, Note_on_c, 0, 62, 70
1, 48922, Control_c, 0, 64, 74
1, 48937, Control_c, 0, 64, 46
1, 48952, Control_c, 0, 64, 0
1, 48966, Note_on_c, 0, 66, 67
1, 49013, Note_on_c, 0, 67, 57
1, 49027, Control_c, 0, 64, 62
1, 49041, Control_c, 0, 64, 72
1, 49056, Control_c, 0, 64, 80
1, 49071, Control_c, 0, 64, 88
1, 49086, Control_c, 0, 64, 90
1, 49094, Note_on_c, 0, 69, 63
1, 49101, Control_c, 0, 64, 90
1, 49106, Note_off_c, 0, 67, 58
1, 49116, Note_on_c, 0, 74, 55
1, 49125, Note_off_c, 0, 62, 48
1, 49146, Note_on_c, 0, 72, 61
1, 49151, Note_off_c, 0, 69, 62
1, 49214, Note_on_c, 0, 71, 60
1, 49228, Note_off_c, 0, 74, 64
1, 49241, Note_off_c, 0, 72, 40
1, 49266, Note_off_c, 0, 66, 41
1, 49267, Note_on_c, 0, 69, 65
1, 49274, Note_off_c, 0, 71, 62
1, 49293, Control_c, 0, 64, 89
1, 49316, Control_c, 0, 64, 85
1, 49320, Note_on_c, 0, 63, 75
1, 49331, Control_c, 0, 64, 74
1, 49332, Note_off_c, 0, 69, 62
1, 49345, Control_c, 0, 64, 37
1, 49360, Control_c, 0, 64, 0
1, 49372, Note_on_c, 0, 66, 78
1, 49405, Control_c, 0, 64, 59
1, 49419, Control_c, 0, 64, 67
1, 49430, Note_off_c, 0, 63, 66
1, 49432, Note_on_c, 0, 68, 67
1, 49433, Control_c, 0, 64, 74
1, 49448, Control_c, 0, 64, 80
1, 49462, Control_c, 0, 64, 85
1, 49474, Note_off_c, 0, 66, 66
1, 49477, Control_c, 0, 64, 87
1, 49486, Note_on_c, 0, 70, 63
1, 49492, Note_off_c, 0, 68, 64
1, 49500, Note_on_c, 0, 75, 60
1, 49512, Note_off_c, 0, 70, 59
1, 49548, Note_on_c, 0, 72, 66
1, 49585, Note_on_c, 0, 70, 71
1, 49587, Note_off_c, 0, 75, 60
1, 49589, Note_off_c, 0, 72, 59
1, 49644, Note_on_c, 0, 68, 73
1, 49681, Note_off_c, 0, 70, 38
1, 49685, Control_c, 0, 64, 86
1, 49699, Note_off_c, 0, 68, 64
1, 49700, Control_c, 0, 64, 85
1, 49711, Note_on_c, 0, 66, 83
1, 49715, Control_c, 0, 64, 79
1, 49730, Control_c, 0, 64, 66
1, 49745, Control_c, 0, 64, 0
1, 49760, Note_on_c, 0, 69, 70
1, 49764, Note_on_c, 0, 65, 67
1, 49790, Control_c, 0, 64, 57
1, 49793, Note_on_c, 0, 67, 30
1, 49805, Control_c, 0, 64, 68
1, 49819, Control_c, 0, 64, 75
1, 49831, Note_off_c, 0, 67, 51
1, 49834, Control_c, 0, 64, 84
1, 49842, Note_off_c, 0, 65, 65
1, 49844, Note_on_c, 0, 72, 49
1, 49849, Control_c, 0, 64, 89
1, 49849, Note_off_c, 0, 66, 65
1, 49859, Note_on_c, 0, 78, 72
1, 49864, Note_off_c, 0, 69, 66
1, 49864, Control_c, 0, 64, 90
1, 49870, Note_off_c, 0, 72, 61
1, 49872, Note_on_c, 0, 73, 62
1, 49916, Note_off_c, 0, 73, 59
1, 49921, Note_on_c, 0, 75, 60
1, 49952, Note_on_c, 0, 73, 59
1, 49968, Note_off_c, 0, 78, 60
1, 49992, Note_off_c, 0, 75, 64
1, 50023, Note_on_c, 0, 72, 70
1, 50032, Note_off_c, 0, 73, 61
1, 50079, Control_c, 0, 64, 88
1, 50093, Control_c, 0, 64, 79
1, 50096, Note_off_c, 0, 72, 62
1, 50108, Control_c, 0, 64, 63
1, 50110, Note_on_c, 0, 69, 84
1, 50123, Control_c, 0, 64, 0
1, 50150, Note_on_c, 0, 72, 65
1, 50154, Note_on_c, 0, 70, 55
1, 50167, Control_c, 0, 64, 57
1, 50182, Control_c, 0, 64, 68
1, 50197, Control_c, 0, 64, 77
1, 50211, Control_c, 0, 64, 87
1, 50226, Control_c, 0, 64, 93
1, 50229, Note_on_c, 0, 73, 72
1, 50232, Note_on_c, 0, 81, 64
1, 50241, Control_c, 0, 64, 94
1, 50250, Note_off_c, 0, 70, 55
1, 50263, Note_off_c, 0, 69, 64
1, 50265, Note_on_c, 0, 75, 67
1, 50271, Note_off_c, 0, 72, 65
1, 50287, Note_off_c, 0, 73, 63
1, 50321, Note_on_c, 0, 78, 63
1, 50323, Note_off_c, 0, 75, 61
1, 50346, Note_on_c, 0, 77, 70
1, 50353, Note_off_c, 0, 81, 60
1, 50377, Note_off_c, 0, 78, 56
1, 50409, Note_on_c, 0, 75, 70
1, 50411, Note_off_c, 0, 77, 62
1, 50459, Note_off_c, 0, 75, 66
1, 50463, Control_c, 0, 64, 91
1, 50478, Note_on_c, 0, 72, 84
1, 50478, Control_c, 0, 64, 80
1, 50493, Control_c, 0, 64, 57
1, 50493, Poly_aftertouch_c, 0, 75, 0
1, 50501, Note_on_c, 0, 75, 60
1, 50508, Control_c, 0, 64, 0
1, 50538, Control_c, 0, 64, 53
1, 50549, Note_on_c, 0, 77, 75
1, 50553, Control_c, 0, 64, 68
1, 50568, Control_c, 0, 64, 76
1, 50583, Control_c, 0, 64, 86
1, 50597, Control_c, 0, 64, 94
1, 50606, Note_on_c, 0, 78, 78
1, 50608, Note_off_c, 0, 72, 59
1, 50612, Note_on_c, 0, 84, 65
1, 50612, Control_c, 0, 64, 97
1, 50627, Control_c, 0, 64, 98
1, 50644, Note_off_c, 0, 75, 59
1, 50651, Note_on_c, 0, 80, 64
1, 50674, Note_off_c, 0, 78, 60
1, 50678, Note_off_c, 0, 77, 56
1, 50699, Note_on_c, 0, 81, 54
1, 50703, Note_on_c, 0, 83, 49
1, 50709, Note_off_c, 0, 80, 52
1, 50741, Note_off_c, 0, 83, 43
1, 50745, Note_on_c, 0, 78, 60
1, 50746, Note_off_c, 0, 81, 60
1, 50759, Note_off_c, 0, 84, 38
1, 50788, Note_on_c, 0, 77, 68
1, 50812, Note_off_c, 0, 78, 63
1, 50827, Control_c, 0, 64, 96
1, 50842, Control_c, 0, 64, 88
1, 50852, Note_on_c, 0, 75, 82
1, 50857, Control_c, 0, 64, 71
1, 50861, Note_off_c, 0, 77, 0
1, 50872, Control_c, 0, 64, 0
1, 50874, Note_on_c, 0, 77, 49
1, 50901, Control_c, 0, 64, 63
1, 50916, Control_c, 0, 64, 72
1, 50931, Control_c, 0, 64, 81
1, 50941, Note_on_c, 0, 78, 63
1, 50946, Control_c, 0, 64, 92
1, 50961, Control_c, 0, 64, 99
1, 50976, Control_c, 0, 64, 102
1, 50984, Note_on_c, 0, 82, 72
1, 50991, Control_c, 0, 64, 102
1, 50997, Note_off_c, 0, 75, 63
1, 51003, Note_on_c, 0, 87, 63
1, 51046, Note_on_c, 0, 84, 68
1, 51049, Note_off_c, 0, 82, 61
1, 51104, Note_off_c, 0, 87, 57
1, 51108, Note_on_c, 0, 82, 63
1, 51122, Note_off_c, 0, 78, 0
1, 51122, Note_off_c, 0, 84, 64
1, 51159, Poly_aftertouch_c, 0, 78, 127
1, 51163, Note_on_c, 0, 81, 74
1, 51174, Note_off_c, 0, 82, 62
1, 51183, Control_c, 0, 64, 102
1, 51191, Poly_aftertouch_c, 0, 78, 0
1, 51191, Note_on_c, 0, 73, 81
1, 51198, Note_off_c, 0, 77, 47
1, 51198, Control_c, 0, 64, 97
1, 51213, Control_c, 0, 64, 85
1, 51216, Note_off_c, 0, 81, 58
1, 51228, Control_c, 0, 64, 66
1, 51235, Note_on_c, 0, 75, 68
1, 51242, Control_c, 0, 64, 0
1, 51272, Control_c, 0, 64, 49
1, 51281, Note_on_c, 0, 77, 78
1, 51287, Control_c, 0, 64, 70
1, 51302, Control_c, 0, 64, 81
1, 51316, Control_c, 0, 64, 98
1, 51332, Control_c, 0, 64, 114
1, 51347, Control_c, 0, 64, 118
1, 51351, Note_off_c, 0, 73, 59
1, 51359, Note_on_c, 0, 80, 77
1, 51361, Note_on_c, 0, 85, 68
1, 51371, Note_on_c, 0, 78, 24
1, 51409, Note_off_c, 0, 80, 65
1, 51426, Note_on_c, 0, 82, 64
1, 51435, Note_off_c, 0, 78, 62
1, 51467, Note_on_c, 0, 80, 73
1, 51486, Note_off_c, 0, 85, 62
1, 51501, Note_off_c, 0, 82, 63
1, 51523, Note_on_c, 0, 78, 67
1, 51532, Note_off_c, 0, 80, 64
1, 51539, Control_c, 0, 64, 116
1, 51557, Note_off_c, 0, 78, 65
1, 51560, Note_off_c, 0, 75, 57
1, 51562, Control_c, 0, 64, 103
1, 51572, Note_on_c, 0, 72, 92
1, 51574, Note_off_c, 0, 77, 17
1, 51577, Control_c, 0, 64, 84
1, 51592, Control_c, 0, 64, 60
1, 51607, Control_c, 0, 64, 0
1, 51621, Note_on_c, 0, 75, 54
1, 51636, Control_c, 0, 64, 63
1, 51651, Note_on_c, 0, 77, 85
1, 51651, Control_c, 0, 64, 73
1, 51665, Control_c, 0, 64, 86
1, 51678, Note_on_c, 0, 84, 64
1, 51680, Control_c, 0, 64, 97
1, 51693, Note_off_c, 0, 72, 61
1, 51694, Control_c, 0, 64, 103
1, 51709, Control_c, 0, 64, 105
1, 51716, Note_on_c, 0, 78, 75
1, 51733, Note_on_c, 0, 81, 71
1, 51736, Note_off_c, 0, 75, 58
1, 51738, Control_c, 0, 64, 105
1, 51750, Note_off_c, 0, 77, 60
1, 51775, Note_on_c, 0, 79, 74
1, 51781, Note_off_c, 0, 84, 63
1, 51783, Control_c, 0, 64, 106
1, 51794, Note_off_c, 0, 81, 59
1, 51796, Note_off_c, 0, 78, 62
1, 51806, Note_on_c, 0, 80, 58
1, 51840, Note_off_c, 0, 80, 52
1, 51849, Note_on_c, 0, 77, 79
1, 51851, Note_off_c, 0, 79, 64
1, 51871, Control_c, 0, 64, 105
1, 51886, Control_c, 0, 64, 98
1, 51899, Note_on_c, 0, 75, 84
1, 51901, Control_c, 0, 64, 81
1, 51908, Note_off_c, 0, 77, 0
1, 51916, Control_c, 0, 64, 40
1, 51918, Note_on_c, 0, 76, 66
1, 51920, Note_on_c, 0, 77, 62
1, 51930, Control_c, 0, 64, 0
1, 51960, Control_c, 0, 64, 16
1, 51975, Control_c, 0, 64, 68
1, 51990, Note_off_c, 0, 76, 55
1, 51990, Control_c, 0, 64, 81
1, 52004, Control_c, 0, 64, 98
1, 52008, Note_on_c, 0, 78, 73
1, 52019, Control_c, 0, 64, 112
1, 52023, Note_on_c, 0, 80, 85
1, 52025, Note_on_c, 0, 87, 79
1, 52034, Control_c, 0, 64, 117
1, 52049, Note_off_c, 0, 75, 62
1, 52049, Control_c, 0, 64, 118
1, 52064, Control_c, 0, 64, 119
1, 52078, Note_on_c, 0, 84, 52
1, 52120, Note_off_c, 0, 80, 61
1, 52123, Note_on_c, 0, 82, 70
1, 52136, Note_off_c, 0, 87, 54
1, 52156, Note_off_c, 0, 84, 64
1, 52185, Note_on_c, 0, 81, 83
1, 52198, Note_off_c, 0, 78, 44
1, 52198, Control_c, 0, 64, 117
1, 52208, Note_off_c, 0, 82, 64
1, 52211, Note_on_c, 0, 73, 90
1, 52213, Control_c, 0, 64, 112
1, 52228, Control_c, 0, 64, 97
1, 52234, Note_off_c, 0, 81, 61
1, 52243, Control_c, 0, 64, 75
1, 52245, Note_off_c, 0, 77, 61
1, 52247, Note_on_c, 0, 72, 56
1, 52252, Note_on_c, 0, 75, 32
1, 52258, Control_c, 0, 64, 0
1, 52289, Note_off_c, 0, 72, 41
1, 52289, Note_off_c, 0, 75, 31
1, 52311, Note_on_c, 0, 85, 78
1, 52324, Control_c, 0, 64, 65
1, 52339, Control_c, 0, 64, 78
1, 52347, Note_on_c, 0, 82, 64
1, 52354, Control_c, 0, 64, 91
1, 52359, Note_off_c, 0, 73, 59
1, 52368, Control_c, 0, 64, 102
1, 52383, Control_c, 0, 64, 104
1, 52398, Note_on_c, 0, 80, 83
1, 52403, Note_off_c, 0, 85, 64
1, 52427, Note_off_c, 0, 82, 64
1, 52431, Note_on_c, 0, 78, 60
1, 52449, Note_off_c, 0, 80, 64
1, 52449, Note_off_c, 0, 78, 64
1, 52502, Control_c, 0, 64, 99
1, 52517, Control_c, 0, 64, 79
1, 52532, Note_on_c, 0, 83, 96
1, 52532, Control_c, 0, 64, 0
1, 52554, Note_on_c, 0, 85, 79
1, 52586, Note_on_c, 0, 86, 45
1, 52587, Note_off_c, 0, 86, 127
1, 52588, Note_on_c, 0, 82, 74
1, 52591, Control_c, 0, 64, 60
1, 52593, Note_off_c, 0, 85, 66
1, 52599, Note_on_c, 0, 80, 75
1, 52605, Control_c, 0, 64, 72
1, 52612, Note_on_c, 0, 84, 26
1, 52620, Control_c, 0, 64, 87
1, 52632, Note_off_c, 0, 83, 56
1, 52635, Control_c, 0, 64, 100
1, 52650, Control_c, 0, 64, 106
1, 52651, Note_off_c, 0, 84, 0
1, 52664, Note_on_c, 0, 84, 56
1, 52665, Control_c, 0, 64, 107
1, 52676, Note_off_c, 0, 82, 36
1, 52679, Control_c, 0, 64, 108
1, 52681, Note_on_c, 0, 87, 87
1, 52682, Note_off_c, 0, 80, 64
1, 52689, Note_on_c, 0, 85, 75
1, 52694, Control_c, 0, 64, 109
1, 52732, Note_on_c, 0, 83, 86
1, 52737, Note_off_c, 0, 85, 59
1, 52742, Note_on_c, 0, 80, 75
1, 52747, Note_off_c, 0, 87, 63
1, 52747, Note_off_c, 0, 84, 58
1, 52785, Note_on_c, 0, 87, 68
1, 52794, Note_on_c, 0, 85, 66
1, 52812, Note_on_c, 0, 84, 80
1, 52815, Note_off_c, 0, 83, 58
1, 52833, Note_off_c, 0, 80, 63
1, 52836, Note_off_c, 0, 87, 58
1, 52851, Note_on_c, 0, 82, 89
1, 52856, Note_off_c, 0, 85, 66
1, 52876, Note_off_c, 0, 84, 65
1, 52883, Note_on_c, 0, 79, 89
1, 52906, Note_on_c, 0, 85, 71
1, 52906, Note_off_c, 0, 82, 63
1, 52908, Note_on_c, 0, 83, 71
1, 52910, Note_on_c, 0, 87, 79
1, 52951, Note_on_c, 0, 82, 80
1, 52955, Note_off_c, 0, 87, 58
1, 52955, Note_off_c, 0, 85, 65
1, 52961, Note_off_c, 0, 79, 55
1, 52979, Note_on_c, 0, 84, 91
1, 53004, Note_on_c, 0, 79, 60
1, 53006, Note_on_c, 0, 85, 78
1, 53006, Note_on_c, 0, 87, 79
1, 53012, Note_off_c, 0, 84, 71
1, 53015, Note_off_c, 0, 82, 67
1, 53035, Note_off_c, 0, 83, 64
1, 53042, Note_off_c, 0, 87, 66
1, 53045, Note_off_c, 0, 85, 66
1, 53047, Note_on_c, 0, 80, 24
1, 53061, Note_off_c, 0, 79, 64
1, 53088, Control_c, 0, 64, 108
1, 53089, Note_off_c, 0, 80, 31
1, 53103, Control_c, 0, 64, 107
1, 53117, Control_c, 0, 64, 102
1, 53132, Control_c, 0, 64, 91
1, 53147, Control_c, 0, 64, 70
1, 53162, Control_c, 0, 64, 0
1, 53167, Note_on_c, 0, 72, 90
1, 53173, Note_on_c, 0, 70, 84
1, 53173, Note_on_c, 0, 74, 79
1, 53179, Note_on_c, 0, 71, 83
1, 53181, Note_on_c, 0, 73, 57
1, 53206, Note_off_c, 0, 73, 55
1, 53215, Note_off_c, 0, 74, 66
1, 53222, Note_off_c, 0, 72, 64
1, 53231, Note_on_c, 0, 68, 76
1, 53250, Control_c, 0, 64, 60
1, 53265, Control_c, 0, 64, 72
1, 53271, Note_off_c, 0, 71, 61
1, 53271, Note_off_c, 0, 70, 63
1, 53272, Note_on_c, 0, 75, 58
1, 53280, Control_c, 0, 64, 83
1, 53295, Control_c, 0, 64, 98
1, 53310, Control_c, 0, 64, 105
1, 53312, Note_on_c, 0, 72, 86
1, 53321, Note_off_c, 0, 68, 64
1, 53325, Control_c, 0, 64, 107
1, 53340, Control_c, 0, 64, 108
1, 53340, Note_on_c, 0, 70, 85
1, 53352, Note_off_c, 0, 75, 66
1, 53374, Note_on_c, 0, 67, 85
1, 53379, Note_off_c, 0, 72, 63
1, 53385, Note_on_c, 0, 73, 55
1, 53393, Note_off_c, 0, 70, 65
1, 53394, Note_on_c, 0, 75, 64
1, 53450, Note_off_c, 0, 75, 63
1, 53453, Note_on_c, 0, 71, 74
1, 53457, Note_on_c, 0, 70, 87
1, 53467, Note_on_c, 0, 72, 76
1, 53468, Note_off_c, 0, 67, 63
1, 53468, Note_off_c, 0, 73, 64
1, 53504, Poly_aftertouch_c, 0, 73, 0
1, 53511, Note_on_c, 0, 73, 61
1, 53511, Note_off_c, 0, 70, 68
1, 53522, Note_on_c, 0, 75, 74
1, 53527, Note_off_c, 0, 72, 65
1, 53540, Note_on_c, 0, 67, 92
1, 53556, Note_off_c, 0, 71, 59
1, 53570, Note_on_c, 0, 70, 85
1, 53571, Note_off_c, 0, 75, 59
1, 53581, Note_off_c, 0, 73, 64
1, 53616, Note_on_c, 0, 71, 66
1, 53622, Note_on_c, 0, 75, 82
1, 53625, Note_on_c, 0, 73, 64
1, 53631, Note_off_c, 0, 70, 66
1, 53653, Note_off_c, 0, 67, 64
1, 53656, Note_off_c, 0, 71, 62
1, 53658, Note_off_c, 0, 73, 65
1, 53661, Note_off_c, 0, 75, 68
1, 53665, Control_c, 0, 64, 109
1, 53760, Note_on_c, 0, 61, 90
1, 53761, Note_on_c, 0, 59, 90
1, 53764, Note_on_c, 0, 60, 86
1, 53764, Note_on_c, 0, 63, 75
1, 53769, Note_on_c, 0, 62, 92
1, 53770, Control_c, 0, 67, 15
1, 53785, Control_c, 0, 64, 106
1, 53785, Control_c, 0, 67, 29
1, 53795, Note_off_c, 0, 63, 48
1, 53807, Control_c, 0, 64, 97
1, 53807, Control_c, 0, 67, 50
1, 53809, Note_on_c, 0, 58, 74
1, 53822, Control_c, 0, 64, 84
1, 53822, Control_c, 0, 67, 73
1, 53824, Note_on_c, 0, 56, 75
1, 53832, Note_off_c, 0, 62, 58
1, 53833, Note_off_c, 0, 60, 60
1, 53835, Note_off_c, 0, 61, 61
1, 53837, Control_c, 0, 64, 66
1, 53837, Control_c, 0, 67, 94
1, 53852, Control_c, 0, 64, 0
1, 53852, Control_c, 0, 67, 106
1, 53858, Note_off_c, 0, 59, 63
1, 53866, Control_c, 0, 67, 119
1, 53881, Control_c, 0, 67, 127
1, 53890, Note_on_c, 0, 55, 62
1, 53893, Note_off_c, 0, 58, 63
1, 53906, Note_on_c, 0, 64, 62
1, 53907, Note_off_c, 0, 56, 64
1, 53917, Note_on_c, 0, 60, 85
1, 53935, Note_on_c, 0, 62, 16
1, 53939, Note_on_c, 0, 59, 70
1, 53940, Note_off_c, 0, 55, 66
1, 53942, Note_on_c, 0, 58, 82
1, 53947, Note_off_c, 0, 64, 65
1, 53963, Note_off_c, 0, 62, 52
1, 53984, Note_off_c, 0, 60, 62
1, 54012, Note_on_c, 0, 54, 83
1, 54014, Note_on_c, 0, 61, 68
1, 54020, Note_off_c, 0, 58, 64
1, 54024, Note_off_c, 0, 59, 62
1, 54046, Note_on_c, 0, 53, 55
1, 54051, Note_on_c, 0, 64, 46
1, 54062, Note_on_c, 0, 60, 77
1, 54067, Note_on_c, 0, 58, 80
1, 54071, Note_off_c, 0, 53, 38
1, 54075, Note_off_c, 0, 64, 55
1, 54081, Note_on_c, 0, 59, 58
1, 54091, Note_off_c, 0, 61, 63
1, 54100, Note_off_c, 0, 54, 62
1, 54130, Note_off_c, 0, 58, 65
1, 54142, Note_on_c, 0, 61, 53
1, 54145, Note_off_c, 0, 60, 59
1, 54159, Note_on_c, 0, 53, 75
1, 54161, Note_on_c, 0, 63, 54
1, 54190, Note_on_c, 0, 58, 79
1, 54197, Note_off_c, 0, 63, 65
1, 54208, Note_off_c, 0, 61, 62
1, 54228, Note_on_c, 0, 60, 70
1, 54228, Note_off_c, 0, 53, 66
1, 54237, Note_off_c, 0, 59, 0
1, 54237, Note_on_c, 0, 59, 13
1, 54252, Note_off_c, 0, 58, 64
1, 54270, Note_on_c, 0, 61, 40
1, 54270, Note_on_c, 0, 63, 68
1, 54302, Note_off_c, 0, 60, 60
1, 54318, Note_on_c, 0, 58, 70
1, 54321, Note_on_c, 0, 51, 79
1, 54321, Note_off_c, 0, 63, 61
1, 54330, Note_off_c, 0, 61, 59
1, 54380, Note_off_c, 0, 58, 64
1, 54389, Note_off_c, 0, 51, 62
1, 54390, Note_on_c, 0, 60, 57
1, 54396, Note_on_c, 0, 63, 48
1, 54398, Note_on_c, 0, 61, 17
1, 54442, Note_off_c, 0, 63, 59
1, 54446, Note_on_c, 0, 58, 59
1, 54467, Note_off_c, 0, 60, 62
1, 54486, Note_on_c, 0, 55, 57
1, 54496, Note_off_c, 0, 61, 0
1, 54499, Note_off_c, 0, 58, 63
1, 54505, Note_on_c, 0, 63, 53
1, 54526, Note_off_c, 0, 55, 66
1, 54534, Poly_aftertouch_c, 0, 61, 127
1, 54562, Note_on_c, 0, 60, 53
1, 54571, Note_off_c, 0, 63, 62
1, 54589, Poly_aftertouch_c, 0, 61, 0
1, 54598, Note_on_c, 0, 58, 38
1, 54627, Note_off_c, 0, 60, 51
1, 54634, Note_off_c, 0, 58, 56
1, 54651, Note_on_c, 0, 63, 42
1, 54651, Note_on_c, 0, 54, 56
1, 54676, Note_off_c, 0, 59, 29
1, 54690, Poly_aftertouch_c, 0, 61, 127
1, 54696, Note_off_c, 0, 63, 53
1, 54710, Note_on_c, 0, 58, 52
1, 54731, Note_off_c, 0, 54, 59
1, 54731, Poly_aftertouch_c, 0, 61, 0
1, 54744, Note_on_c, 0, 60, 51
1, 54753, Note_off_c, 0, 58, 63
1, 54768, Note_on_c, 0, 63, 37
1, 54769, Note_on_c, 0, 59, 10
1, 54809, Note_off_c, 0, 63, 54
1, 54812, Note_off_c, 0, 60, 62
1, 54821, Note_on_c, 0, 53, 56
1, 54826, Note_on_c, 0, 58, 53
1, 54830, Note_off_c, 0, 59, 54
1, 54853, Note_off_c, 0, 53, 67
1, 54868, Control_c, 0, 64, 46
1, 54882, Control_c, 0, 64, 61
1, 54884, Note_off_c, 0, 58, 63
1, 54885, Note_on_c, 0, 61, 39
1, 54897, Control_c, 0, 64, 64
1, 54899, Note_on_c, 0, 63, 50
1, 54912, Control_c, 0, 64, 65
1, 54921, Note_off_c, 0, 63, 62
1, 54922, Note_off_c, 0, 61, 58
1, 54927, Control_c, 0, 64, 66
1, 54942, Control_c, 0, 64, 67
1, 54956, Control_c, 0, 64, 68
1, 54971, Control_c, 0, 64, 67
1, 54986, Control_c, 0, 64, 65
1, 55000, Note_on_c, 0, 37, 55
1, 55000, Control_c, 0, 64, 59
1, 55015, Control_c, 0, 64, 30
1, 55030, Control_c, 0, 64, 0
1, 55060, Control_c, 0, 64, 49
1, 55066, Note_off_c, 0, 37, 48
1, 55075, Control_c, 0, 64, 63
1, 55087, Note_on_c, 0, 42, 38
1, 55090, Control_c, 0, 64, 67
1, 55105, Control_c, 0, 64, 71
1, 55114, Note_on_c, 0, 46, 66
1, 55119, Control_c, 0, 64, 75
1, 55134, Control_c, 0, 64, 79
1, 55139, Note_off_c, 0, 42, 43
1, 55149, Control_c, 0, 64, 82
1, 55154, Note_off_c, 0, 46, 65
1, 55164, Control_c, 0, 64, 84
1, 55179, Control_c, 0, 64, 84
1, 55183, Note_on_c, 0, 40, 23
1, 55184, Note_on_c, 0, 41, 36
1, 55208, Control_c, 0, 64, 85
1, 55218, Note_on_c, 0, 45, 58
1, 55219, Note_on_c, 0, 43, 42
1, 55221, Note_off_c, 0, 41, 57
1, 55223, Control_c, 0, 64, 85
1, 55227, Note_off_c, 0, 40, 40
1, 55238, Control_c, 0, 64, 86
1, 55248, Note_off_c, 0, 45, 66
1, 55254, Note_on_c, 0, 49, 48
1, 55256, Note_off_c, 0, 43, 52
1, 55285, Note_on_c, 0, 51, 63
1, 55308, Note_off_c, 0, 49, 41
1, 55355, Note_on_c, 0, 54, 53
1, 55367, Note_off_c, 0, 51, 62
1, 55379, Control_c, 0, 67, 125
1, 55388, Note_on_c, 0, 58, 69
1, 55394, Control_c, 0, 67, 113
1, 55397, Note_off_c, 0, 54, 62
1, 55405, Note_on_c, 0, 52, 65
1, 55409, Control_c, 0, 67, 100
1, 55424, Control_c, 0, 67, 88
1, 55429, Note_off_c, 0, 58, 58
1, 55438, Control_c, 0, 67, 77
1, 55452, Note_on_c, 0, 49, 76
1, 55453, Control_c, 0, 67, 67
1, 55466, Note_on_c, 0, 55, 72
1, 55467, Note_off_c, 0, 52, 65
1, 55468, Control_c, 0, 67, 58
1, 55483, Control_c, 0, 67, 49
1, 55485, Note_on_c, 0, 51, 73
1, 55498, Control_c, 0, 67, 35
1, 55512, Note_off_c, 0, 55, 64
1, 55513, Control_c, 0, 67, 19
1, 55528, Control_c, 0, 67, 0
1, 55532, Note_on_c, 0, 54, 76
1, 55547, Note_off_c, 0, 49, 61
1, 55562, Note_off_c, 0, 51, 65
1, 55567, Note_on_c, 0, 58, 78
1, 55580, Note_on_c, 0, 52, 69
1, 55587, Note_off_c, 0, 54, 62
1, 55588, Note_off_c, 0, 58, 69
1, 55602, Control_c, 0, 64, 86
1, 55617, Control_c, 0, 64, 87
1, 55625, Note_on_c, 0, 55, 84
1, 55631, Control_c, 0, 64, 88
1, 55641, Note_off_c, 0, 52, 66
1, 55646, Control_c, 0, 64, 89
1, 55661, Note_off_c, 0, 55, 68
1, 55661, Control_c, 0, 64, 90
1, 55676, Control_c, 0, 64, 91
1, 55691, Control_c, 0, 64, 92
1, 55698, Note_on_c, 0, 61, 42
1, 55708, Note_on_c, 0, 60, 51
1, 55715, Note_on_c, 0, 63, 79
1, 55742, Note_off_c, 0, 60, 48
1, 55765, Control_c, 0, 64, 91
1, 55779, Control_c, 0, 64, 86
1, 55787, Note_off_c, 0, 61, 32
1, 55794, Control_c, 0, 64, 74
1, 55800, Note_on_c, 0, 66, 60
1, 55809, Control_c, 0, 64, 32
1, 55812, Note_off_c, 0, 63, 63
1, 55824, Control_c, 0, 64, 0
1, 55830, Note_on_c, 0, 65, 37
1, 55832, Note_on_c, 0, 64, 35
1, 55851, Note_off_c, 0, 66, 63
1, 55860, Note_off_c, 0, 64, 55
1, 55860, Note_off_c, 0, 65, 56
1, 55868, Note_on_c, 0, 70, 53
1, 55884, Note_on_c, 0, 67, 53
1, 55920, Note_off_c, 0, 70, 57
1, 55930, Note_on_c, 0, 69, 57
1, 55931, Note_off_c, 0, 67, 64
1, 55966, Note_on_c, 0, 61, 56
1, 56013, Note_on_c, 0, 67, 52
1, 56023, Note_off_c, 0, 69, 62
1, 56039, Note_off_c, 0, 61, 53
1, 56042, Note_on_c, 0, 63, 47
1, 56064, Note_off_c, 0, 67, 60
1, 56076, Note_on_c, 0, 64, 50
1, 56094, Note_off_c, 0, 63, 51
1, 56106, Note_on_c, 0, 66, 37
1, 56136, Note_on_c, 0, 70, 61
1, 56141, Note_off_c, 0, 66, 56
1, 56148, Note_off_c, 0, 64, 60
1, 56151, Note_on_c, 0, 67, 63
1, 56196, Note_off_c, 0, 70, 62
1, 56205, Note_off_c, 0, 67, 63
1, 56214, Note_on_c, 0, 69, 68
1, 56245, Note_on_c, 0, 61, 57
1, 56273, Note_on_c, 0, 67, 59
1, 56291, Note_off_c, 0, 69, 63
1, 56292, Note_on_c, 0, 63, 67
1, 56327, Note_off_c, 0, 67, 61
1, 56334, Note_on_c, 0, 64, 63
1, 56337, Note_on_c, 0, 66, 58
1, 56342, Note_off_c, 0, 61, 61
1, 56367, Note_off_c, 0, 63, 65
1, 56384, Note_on_c, 0, 70, 77
1, 56392, Note_on_c, 0, 67, 72
1, 56398, Note_off_c, 0, 66, 65
1, 56406, Note_off_c, 0, 64, 64
1, 56425, Note_on_c, 0, 65, 43
1, 56443, Note_off_c, 0, 70, 64
1, 56452, Note_off_c, 0, 65, 51
1, 56464, Note_on_c, 0, 69, 83
1, 56465, Note_on_c, 0, 61, 84
1, 56470, Note_off_c, 0, 67, 60
1, 56507, Note_on_c, 0, 63, 71
1, 56517, Note_on_c, 0, 67, 62
1, 56528, Control_c, 0, 64, 58
1, 56543, Control_c, 0, 64, 66
1, 56553, Note_on_c, 0, 65, 50
1, 56558, Control_c, 0, 64, 71
1, 56564, Note_on_c, 0, 66, 75
1, 56564, Note_off_c, 0, 69, 64
1, 56568, Note_on_c, 0, 64, 84
1, 56573, Control_c, 0, 64, 76
1, 56576, Note_off_c, 0, 65, 59
1, 56588, Control_c, 0, 64, 83
1, 56591, Note_off_c, 0, 67, 63
1, 56602, Note_off_c, 0, 61, 63
1, 56602, Control_c, 0, 64, 88
1, 56610, Note_on_c, 0, 70, 77
1, 56616, Note_off_c, 0, 63, 66
1, 56617, Control_c, 0, 64, 91
1, 56632, Control_c, 0, 64, 93
1, 56642, Note_on_c, 0, 67, 68
1, 56646, Note_off_c, 0, 66, 66
1, 56646, Control_c, 0, 64, 95
1, 56652, Note_on_c, 0, 65, 71
1, 56661, Control_c, 0, 64, 97
1, 56664, Note_off_c, 0, 64, 60
1, 56676, Control_c, 0, 64, 100
1, 56680, Note_off_c, 0, 70, 64
1, 56687, Note_off_c, 0, 65, 55
1, 56691, Control_c, 0, 64, 101
1, 56706, Control_c, 0, 64, 102
1, 56712, Note_on_c, 0, 61, 84
1, 56714, Note_on_c, 0, 69, 92
1, 56720, Control_c, 0, 64, 103
1, 56735, Control_c, 0, 64, 104
1, 56741, Note_off_c, 0, 67, 63
1, 56749, Note_on_c, 0, 63, 73
1, 56750, Control_c, 0, 64, 105
1, 56765, Control_c, 0, 64, 107
1, 56779, Note_on_c, 0, 64, 92
1, 56780, Control_c, 0, 64, 110
1, 56789, Note_off_c, 0, 63, 67
1, 56802, Control_c, 0, 64, 114
1, 56809, Note_on_c, 0, 67, 23
1, 56814, Note_off_c, 0, 69, 65
1, 56817, Control_c, 0, 64, 119
1, 56822, Note_on_c, 0, 66, 75
1, 56832, Control_c, 0, 64, 126
1, 56847, Control_c, 0, 64, 127
1, 56848, Note_off_c, 0, 67, 0
1, 56848, Note_on_c, 0, 67, 45
1, 56856, Note_off_c, 0, 61, 62
1, 56861, Note_on_c, 0, 70, 90
1, 56872, Note_off_c, 0, 64, 64
1, 56886, Note_on_c, 0, 65, 68
1, 56887, Note_off_c, 0, 66, 65
1, 56903, Note_off_c, 0, 65, 66
1, 56909, Note_off_c, 0, 70, 61
1, 56914, Note_off_c, 0, 67, 64
1, 56965, Note_on_c, 0, 66, 86
1, 56966, Control_c, 0, 64, 123
1, 56978, Note_on_c, 0, 74, 94
1, 56981, Control_c, 0, 64, 101
1, 56996, Control_c, 0, 64, 78
1, 56998, Note_on_c, 0, 65, 68
1, 57011, Control_c, 0, 64, 0
1, 57039, Note_on_c, 0, 73, 77
1, 57053, Note_off_c, 0, 74, 64
1, 57060, Note_off_c, 0, 66, 62
1, 57061, Note_on_c, 0, 71, 76
1, 57063, Note_off_c, 0, 65, 64
1, 57111, Note_off_c, 0, 73, 60
1, 57125, Note_on_c, 0, 72, 87
1, 57127, Note_on_c, 0, 68, 72
1, 57130, Note_off_c, 0, 71, 61
1, 57178, Note_off_c, 0, 72, 65
1, 57193, Note_on_c, 0, 73, 75
1, 57194, Note_off_c, 0, 68, 64
1, 57201, Note_on_c, 0, 71, 59
1, 57254, Note_off_c, 0, 73, 58
1, 57255, Note_on_c, 0, 74, 89
1, 57262, Note_off_c, 0, 71, 64
1, 57269, Note_on_c, 0, 65, 79
1, 57313, Note_on_c, 0, 71, 75
1, 57324, Note_off_c, 0, 74, 65
1, 57326, Note_on_c, 0, 73, 80
1, 57358, Note_off_c, 0, 65, 55
1, 57381, Note_on_c, 0, 72, 88
1, 57384, Note_on_c, 0, 68, 81
1, 57388, Note_off_c, 0, 71, 63
1, 57391, Note_off_c, 0, 73, 63
1, 57448, Note_on_c, 0, 71, 80
1, 57451, Note_on_c, 0, 73, 82
1, 57451, Note_off_c, 0, 72, 65
1, 57468, Note_off_c, 0, 68, 63
1, 57515, Note_on_c, 0, 74, 93
1, 57526, Note_off_c, 0, 71, 62
1, 57526, Note_off_c, 0, 73, 61
1, 57532, Note_on_c, 0, 65, 82
1, 57582, Note_on_c, 0, 71, 78
1, 57594, Note_on_c, 0, 73, 78
1, 57597, Note_off_c, 0, 74, 66
1, 57637, Note_off_c, 0, 65, 62
1, 57653, Note_on_c, 0, 72, 92
1, 57662, Note_off_c, 0, 71, 62
1, 57671, Note_on_c, 0, 68, 80
1, 57676, Note_off_c, 0, 73, 61
1, 57734, Note_on_c, 0, 73, 79
1, 57737, Note_on_c, 0, 71, 85
1, 57743, Note_off_c, 0, 72, 57
1, 57749, Note_off_c, 0, 68, 65
1, 57798, Note_on_c, 0, 74, 91
1, 57808, Note_off_c, 0, 71, 62
1, 57817, Note_off_c, 0, 73, 50
1, 57829, Note_on_c, 0, 65, 76
1, 57868, Note_on_c, 0, 71, 81
1, 57872, Note_off_c, 0, 74, 66
1, 57891, Note_on_c, 0, 73, 76
1, 57927, Note_off_c, 0, 65, 59
1, 57936, Note_on_c, 0, 72, 84
1, 57939, Note_off_c, 0, 71, 63
1, 57945, Note_on_c, 0, 68, 75
1, 57963, Note_off_c, 0, 73, 63
1, 57982, Control_c, 0, 64, 22
1, 57997, Control_c, 0, 64, 63
1, 58010, Note_on_c, 0, 71, 83
1, 58012, Control_c, 0, 64, 69
1, 58013, Note_off_c, 0, 72, 64
1, 58023, Note_on_c, 0, 73, 74
1, 58026, Control_c, 0, 64, 75
1, 58029, Note_off_c, 0, 68, 63
1, 58041, Control_c, 0, 64, 84
1, 58056, Control_c, 0, 64, 94
1, 58070, Note_off_c, 0, 71, 61
1, 58071, Control_c, 0, 64, 104
1, 58078, Note_off_c, 0, 73, 65
1, 58082, Note_on_c, 0, 80, 95
1, 58086, Control_c, 0, 64, 110
1, 58100, Control_c, 0, 64, 117
1, 58115, Note_on_c, 0, 78, 83
1, 58115, Control_c, 0, 64, 127
1, 58159, Note_on_c, 0, 77, 57
1, 58169, Note_on_c, 0, 75, 81
1, 58179, Note_off_c, 0, 77, 62
1, 58190, Note_on_c, 0, 66, 77
1, 58192, Note_on_c, 0, 74, 83
1, 58204, Note_on_c, 0, 68, 84
1, 58205, Note_off_c, 0, 80, 61
1, 58211, Note_off_c, 0, 75, 66
1, 58212, Note_on_c, 0, 63, 64
1, 58214, Note_on_c, 0, 73, 96
1, 58218, Note_on_c, 0, 61, 71
1, 58221, Note_off_c, 0, 78, 58
1, 58226, Note_off_c, 0, 68, 67
1, 58232, Note_off_c, 0, 66, 67
1, 58235, Note_off_c, 0, 63, 68
1, 58236, Note_off_c, 0, 74, 65
1, 58246, Note_off_c, 0, 61, 66
1, 58249, Note_off_c, 0, 73, 66
1, 58337, Note_on_c, 0, 46, 97
1, 58357, Note_on_c, 0, 44, 62
1, 58360, Note_on_c, 0, 55, 74
1, 58368, Note_on_c, 0, 51, 77
1, 58368, Note_on_c, 0, 54, 61
1, 58372, Note_on_c, 0, 56, 40
1, 58380, Note_off_c, 0, 44, 59
1, 58390, Note_on_c, 0, 37, 73
1, 58394, Note_on_c, 0, 52, 53
1, 58395, Note_off_c, 0, 46, 62
1, 58400, Note_on_c, 0, 53, 57
1, 58400, Note_off_c, 0, 56, 59
1, 58419, Note_off_c, 0, 52, 63
1, 58425, Note_off_c, 0, 53, 66
1, 58427, Note_off_c, 0, 55, 60
1, 58431, Note_on_c, 0, 50, 90
1, 58456, Note_off_c, 0, 51, 62
1, 58457, Note_on_c, 0, 49, 88
1, 58471, Note_off_c, 0, 54, 31
1, 58478, Note_off_c, 0, 37, 65
1, 58488, Note_off_c, 0, 50, 63
1, 58494, Note_on_c, 0, 30, 94
1, 58502, Poly_aftertouch_c, 0, 37, 0
1, 58505, Note_on_c, 0, 32, 78
1, 58508, Note_off_c, 0, 49, 63
1, 58508, Control_c, 0, 67, 16
1, 58510, Note_on_c, 0, 48, 49
1, 58515, Note_on_c, 0, 37, 27
1, 58524, Control_c, 0, 64, 101
1, 58524, Control_c, 0, 67, 28
1, 58532, Note_on_c, 0, 33, 46
1, 58539, Control_c, 0, 64, 70
1, 58539, Control_c, 0, 67, 42
1, 58539, Note_off_c, 0, 48, 57
1, 58541, Note_off_c, 0, 37, 59
1, 58553, Note_off_c, 0, 32, 60
1, 58553, Note_off_c, 0, 30, 63
1, 58553, Control_c, 0, 64, 0
1, 58553, Control_c, 0, 67, 55
1, 58565, Note_on_c, 0, 31, 53
1, 58565, Note_off_c, 0, 33, 54
1, 58568, Control_c, 0, 67, 68
1, 58583, Control_c, 0, 67, 82
1, 58598, Control_c, 0, 67, 99
1, 58598, Note_off_c, 0, 31, 48
1, 58613, Control_c, 0, 67, 110
1, 58628, Control_c, 0, 67, 115
1, 58642, Control_c, 0, 67, 117
1, 58657, Control_c, 0, 67, 118
1, 58672, Control_c, 0, 67, 121
1, 58687, Control_c, 0, 67, 124
1, 58702, Control_c, 0, 67, 127
1, 59761, Note_on_c, 0, 90, 45
1, 59768, Note_on_c, 0, 30, 39
1, 59802, Note_off_c, 0, 90, 54
1, 59832, Note_off_c, 0, 30, 57
1, 62163, Control_c, 0, 64, 29
1, 62178, Control_c, 0, 64, 40
1, 62193, Control_c, 0, 64, 48
1, 62208, Control_c, 0, 64, 53
1, 62223, Control_c, 0, 64, 57
1, 62238, Control_c, 0, 64, 60
1, 62253, Control_c, 0, 64, 62
1, 62267, Control_c, 0, 64, 63
1, 62282, Control_c, 0, 64, 64
1, 62297, Control_c, 0, 64, 65
1, 62356, Control_c, 0, 64, 65
1, 62415, Control_c, 0, 64, 66
1, 62489, Control_c, 0, 64, 65
1, 62853, Control_c, 0, 64, 65
1, 62942, Control_c, 0, 64, 65
1, 63417, Control_c, 0, 64, 65
1, 63676, Control_c, 0, 64, 65
1, 63824, Control_c, 0, 64, 66
1, 63854, Control_c, 0, 64, 66
1, 63883, Control_c, 0, 64, 67
1, 63913, Control_c, 0, 64, 67
1, 63943, Control_c, 0, 64, 68
1, 63958, Control_c, 0, 67, 110
1, 63972, Control_c, 0, 64, 68
1, 63972, Control_c, 0, 67, 90
1, 63987, Control_c, 0, 64, 69
1, 63987, Control_c, 0, 67, 71
1, 64002, Control_c, 0, 67, 55
1, 64017, Control_c, 0, 64, 69
1, 64017, Control_c, 0, 67, 44
1, 64032, Control_c, 0, 67, 39
1, 64046, Control_c, 0, 64, 70
1, 64061, Control_c, 0, 64, 70
1, 64091, Control_c, 0, 64, 71
1, 64106, Control_c, 0, 67, 38
1, 64122, Control_c, 0, 64, 71
1, 64136, Control_c, 0, 67, 38
1, 64151, Control_c, 0, 64, 72
1, 64151, Control_c, 0, 67, 37
1, 64166, Control_c, 0, 64, 73
1, 64166, Control_c, 0, 67, 34
1, 64181, Control_c, 0, 64, 74
1, 64181, Control_c, 0, 67, 30
1, 64196, Control_c, 0, 64, 75
1, 64196, Control_c, 0, 67, 26
1, 64210, Control_c, 0, 64, 76
1, 64210, Control_c, 0, 67, 22
1, 64225, Control_c, 0, 64, 77
1, 64225, Control_c, 0, 67, 18
1, 64240, Control_c, 0, 64, 78
1, 64240, Control_c, 0, 67, 13
1, 64254, Control_c, 0, 64, 78
1, 64254, Control_c, 0, 67, 0
1, 64254, End_track
0, 0, End_of_file
