0, 0, Header, 0, 1, 384
1, 0, Start_track
1, 0, Title_t, "Sonata Op. 78--Jan Lisiecki     "
1, 0, Text_t, "2008 e-Piano Junior Competition recital round"
1, 0, Text_t, "recorded July 2008"
1, 0, Text_t, "http://www.piano-e-competition.com/"
1, 0, Text_t, "File processed for distribution by software from Zenph Studios, Inc., http://www.zenph.com"
1, 0, Instrument_name_t, "Yamaha Disklavier Pro Mark IV concert grand piano, model DCFIIISM4PRO"
1, 0, Sequencer_specific, 39, 67, 113, 0, 1, 0, 1, 0, 83, 111, 110, 97, 116, 97, 32, 79, 112, 46, 32, 55, 56, 32, 32, 32, 74, 97, 110, 32, 76, 105, 115, 105, 101, 99, 107, 105, 32, 32, 32, 32
1, 0, Sequencer_specific, 6, 67, 113, 0, 0, 0, 69
1, 0, System_exclusive, 21, 67, 113, 126, 21, 0, 2, 2, 0, 3, 14, 1, 4, 1, 13, 13, 10, 11, 9, 2, 7, 247
1, 0, Sequencer_specific, 5, 67, 123, 12, 2, 1
1, 0, Tempo, 512820
1, 0, Time_signature, 4, 2, 24, 8
1, 0, System_exclusive, 5, 126, 127, 9, 1, 247
1, 1, System_exclusive, 8, 67, 16, 76, 0, 0, 126, 0, 247
1, 2, System_exclusive, 8, 67, 16, 76, 8, 9, 7, 1, 247
1, 3, Control_c, 0, 0, 0
1, 3, Control_c, 1, 0, 0
1, 3, Control_c, 2, 0, 0
1, 3, Control_c, 3, 0, 0
1, 3, Control_c, 4, 0, 0
1, 3, Control_c, 5, 0, 0
1, 3, Control_c, 6, 0, 0
1, 3, Control_c, 7, 0, 0
1, 3, Control_c, 8, 0, 0
1, 3, Control_c, 9, 0, 127
1, 3, Control_c, 10, 0, 0
1, 3, Control_c, 11, 0, 0
1, 3, Control_c, 12, 0, 0
1, 3, Control_c, 13, 0, 0
1, 3, Control_c, 14, 0, 0
1, 3, Control_c, 15, 0, 0
1, 4, Control_c, 0, 32, 0
1, 4, Control_c, 1, 32, 0
1, 4, Control_c, 2, 32, 0
1, 4, Control_c, 3, 32, 0
1, 4, Control_c, 4, 32, 0
1, 4, Control_c, 5, 32, 0
1, 4, Control_c, 6, 32, 0
1, 4, Control_c, 7, 32, 0
1, 4, Control_c, 8, 32, 0
1, 4, Control_c, 9, 32, 0
1, 4, Control_c, 10, 32, 0
1, 4, Control_c, 11, 32, 0
1, 4, Control_c, 12, 32, 0
1, 4, Control_c, 13, 32, 0
1, 4, Control_c, 14, 32, 0
1, 4, Control_c, 15, 32, 0
1, 5, Program_c, 0, 0
1, 5, Program_c, 1, 0
1, 5, Program_c, 2, 0
1, 5, Program_c, 3, 0
1, 5, Program_c, 4, 0
1, 5, Program_c, 5, 0
1, 5, Program_c, 6, 0
1, 5, Program_c, 7, 0
1, 5, Program_c, 8, 0
1, 5, Program_c, 9, 0
1, 5, Program_c, 10, 0
1, 5, Program_c, 11, 0
1, 5, Program_c, 12, 0
1, 5, Program_c, 13, 0
1, 5, Program_c, 14, 0
1, 5, Program_c, 15, 0
1, 6, Control_c, 0, 7, 100
1, 6, Control_c, 1, 7, 100
1, 6, Control_c, 2, 7, 100
1, 6, Control_c, 3, 7, 100
1, 6, Control_c, 4, 7, 100
1, 6, Control_c, 5, 7, 100
1, 6, Control_c, 6, 7, 100
1, 6, Control_c, 7, 7, 100
1, 6, Control_c, 8, 7, 100
1, 6, Control_c, 9, 7, 100
1, 6, Control_c, 10, 7, 100
1, 6, Control_c, 11, 7, 100
1, 6, Control_c, 12, 7, 100
1, 6, Control_c, 13, 7, 100
1, 6, Control_c, 14, 7, 100
1, 6, Control_c, 15, 7, 100
1, 117, Control_c, 0, 64, 15
1, 229, Control_c, 0, 64, 31
1, 341, Control_c, 0, 64, 46
1, 452, Control_c, 0, 64, 63
1, 564, Control_c, 0, 64, 77
1, 676, Control_c, 0, 64, 94
1, 787, Control_c, 0, 64, 108
1, 899, Control_c, 0, 64, 127
1, 1135, Note_on_c, 0, 61, 48
1, 1138, Note_on_c, 0, 30, 32
1, 1139, Note_on_c, 0, 42, 31
1, 1152, Note_on_c, 0, 58, 39
1, 1470, Control_c, 0, 64, 123
1, 1484, Control_c, 0, 64, 118
1, 1499, Control_c, 0, 64, 113
1, 1514, Control_c, 0, 64, 109
1, 1529, Control_c, 0, 64, 105
1, 1544, Control_c, 0, 64, 101
1, 1558, Control_c, 0, 64, 97
1, 1573, Control_c, 0, 64, 92
1, 1588, Control_c, 0, 64, 86
1, 1603, Control_c, 0, 64, 79
1, 1618, Control_c, 0, 64, 72
1, 1633, Control_c, 0, 64, 65
1, 1648, Control_c, 0, 64, 52
1, 1663, Control_c, 0, 64, 39
1, 1678, Control_c, 0, 64, 41
1, 1692, Control_c, 0, 64, 47
1, 1707, Control_c, 0, 64, 48
1, 1737, Control_c, 0, 64, 49
1, 1752, Control_c, 0, 64, 53
1, 1766, Control_c, 0, 64, 57
1, 1781, Control_c, 0, 64, 61
1, 1796, Control_c, 0, 64, 63
1, 1810, Control_c, 0, 64, 64
1, 1825, Control_c, 0, 64, 66
1, 1840, Control_c, 0, 64, 68
1, 1856, Control_c, 0, 64, 70
1, 1871, Control_c, 0, 64, 71
1, 1886, Control_c, 0, 64, 73
1, 1901, Control_c, 0, 64, 74
1, 1915, Control_c, 0, 64, 76
1, 1938, Control_c, 0, 64, 77
1, 1953, Control_c, 0, 64, 79
1, 1968, Control_c, 0, 64, 80
1, 1983, Control_c, 0, 64, 82
1, 1997, Control_c, 0, 64, 84
1, 2012, Control_c, 0, 64, 85
1, 2027, Control_c, 0, 64, 87
1, 2042, Control_c, 0, 64, 89
1, 2057, Control_c, 0, 64, 91
1, 2071, Control_c, 0, 64, 92
1, 2086, Control_c, 0, 64, 94
1, 2101, Control_c, 0, 64, 96
1, 2115, Control_c, 0, 64, 98
1, 2130, Control_c, 0, 64, 100
1, 2145, Control_c, 0, 64, 103
1, 2160, Control_c, 0, 64, 106
1, 2175, Control_c, 0, 64, 111
1, 2189, Control_c, 0, 64, 115
1, 2204, Control_c, 0, 64, 120
1, 2219, Control_c, 0, 64, 126
1, 2234, Control_c, 0, 64, 127
1, 2281, Note_off_c, 0, 58, 37
1, 2284, Note_off_c, 0, 61, 39
1, 3140, Note_on_c, 0, 66, 60
1, 3166, Note_on_c, 0, 61, 38
1, 3170, Note_on_c, 0, 58, 37
1, 3191, Control_c, 0, 64, 126
1, 3206, Control_c, 0, 64, 123
1, 3220, Control_c, 0, 64, 117
1, 3235, Control_c, 0, 64, 113
1, 3250, Control_c, 0, 64, 109
1, 3264, Control_c, 0, 64, 106
1, 3279, Control_c, 0, 64, 102
1, 3294, Control_c, 0, 64, 97
1, 3309, Control_c, 0, 64, 92
1, 3324, Control_c, 0, 64, 85
1, 3338, Control_c, 0, 64, 80
1, 3353, Control_c, 0, 64, 73
1, 3368, Control_c, 0, 64, 66
1, 3383, Control_c, 0, 64, 54
1, 3398, Control_c, 0, 64, 32
1, 3412, Control_c, 0, 64, 34
1, 3435, Control_c, 0, 64, 40
1, 3450, Control_c, 0, 64, 40
1, 3465, Control_c, 0, 64, 38
1, 3480, Control_c, 0, 64, 34
1, 3495, Control_c, 0, 64, 32
1, 3510, Control_c, 0, 64, 32
1, 3525, Control_c, 0, 64, 40
1, 3539, Control_c, 0, 64, 49
1, 3554, Control_c, 0, 64, 57
1, 3569, Control_c, 0, 64, 62
1, 3584, Control_c, 0, 64, 64
1, 3599, Control_c, 0, 64, 66
1, 3614, Control_c, 0, 64, 69
1, 3629, Control_c, 0, 64, 72
1, 3643, Control_c, 0, 64, 75
1, 3658, Control_c, 0, 64, 78
1, 3673, Control_c, 0, 64, 80
1, 3687, Control_c, 0, 64, 82
1, 3702, Control_c, 0, 64, 84
1, 3717, Control_c, 0, 64, 86
1, 3732, Control_c, 0, 64, 88
1, 3747, Control_c, 0, 64, 91
1, 3761, Control_c, 0, 64, 93
1, 3776, Control_c, 0, 64, 96
1, 3791, Control_c, 0, 64, 99
1, 3806, Control_c, 0, 64, 103
1, 3821, Control_c, 0, 64, 107
1, 3831, Note_off_c, 0, 61, 55
1, 3835, Control_c, 0, 64, 113
1, 3850, Control_c, 0, 64, 121
1, 3865, Control_c, 0, 64, 127
1, 3872, Note_off_c, 0, 58, 42
1, 3893, Note_off_c, 0, 66, 59
1, 4111, Note_off_c, 0, 42, 26
1, 4158, Note_off_c, 0, 30, 38
1, 4623, Note_on_c, 0, 68, 49
1, 4630, Note_on_c, 0, 65, 46
1, 4643, Note_on_c, 0, 59, 34
1, 4788, Note_off_c, 0, 65, 59
1, 4793, Note_off_c, 0, 59, 37
1, 4806, Note_off_c, 0, 68, 53
1, 5245, Note_on_c, 0, 68, 46
1, 5247, Note_on_c, 0, 65, 39
1, 5262, Note_on_c, 0, 30, 29
1, 5262, Note_on_c, 0, 59, 34
1, 5266, Note_on_c, 0, 42, 34
1, 5347, Control_c, 0, 64, 121
1, 5362, Control_c, 0, 64, 117
1, 5378, Control_c, 0, 64, 113
1, 5393, Control_c, 0, 64, 110
1, 5407, Control_c, 0, 64, 108
1, 5422, Control_c, 0, 64, 105
1, 5437, Control_c, 0, 64, 103
1, 5451, Control_c, 0, 64, 102
1, 5466, Control_c, 0, 64, 101
1, 5481, Control_c, 0, 64, 100
1, 5496, Control_c, 0, 64, 99
1, 5511, Control_c, 0, 64, 97
1, 5525, Control_c, 0, 64, 95
1, 5540, Control_c, 0, 64, 93
1, 5555, Control_c, 0, 64, 91
1, 5570, Control_c, 0, 64, 88
1, 5585, Control_c, 0, 64, 85
1, 5599, Control_c, 0, 64, 84
1, 5614, Control_c, 0, 64, 83
1, 5629, Control_c, 0, 64, 82
1, 5644, Control_c, 0, 64, 82
1, 5659, Control_c, 0, 64, 81
1, 5681, Control_c, 0, 64, 81
1, 5696, Control_c, 0, 64, 80
1, 5711, Control_c, 0, 64, 79
1, 5726, Control_c, 0, 64, 79
1, 5740, Control_c, 0, 64, 78
1, 5755, Control_c, 0, 64, 76
1, 5770, Control_c, 0, 64, 74
1, 5785, Control_c, 0, 64, 72
1, 5800, Control_c, 0, 64, 69
1, 5814, Control_c, 0, 64, 64
1, 5829, Control_c, 0, 64, 57
1, 5844, Control_c, 0, 64, 54
1, 5860, Control_c, 0, 64, 54
1, 5875, Control_c, 0, 64, 56
1, 5904, Control_c, 0, 64, 55
1, 5919, Control_c, 0, 64, 54
1, 5934, Control_c, 0, 64, 53
1, 5949, Control_c, 0, 64, 52
1, 5963, Control_c, 0, 64, 49
1, 5978, Control_c, 0, 64, 43
1, 5993, Control_c, 0, 64, 26
1, 6008, Control_c, 0, 64, 0
1, 6067, Control_c, 0, 64, 41
1, 6082, Control_c, 0, 64, 59
1, 6097, Control_c, 0, 64, 65
1, 6112, Control_c, 0, 64, 68
1, 6127, Control_c, 0, 64, 71
1, 6142, Control_c, 0, 64, 74
1, 6156, Control_c, 0, 64, 77
1, 6171, Control_c, 0, 64, 79
1, 6186, Control_c, 0, 64, 82
1, 6201, Control_c, 0, 64, 83
1, 6216, Control_c, 0, 64, 85
1, 6230, Control_c, 0, 64, 87
1, 6245, Control_c, 0, 64, 89
1, 6260, Control_c, 0, 64, 91
1, 6274, Control_c, 0, 64, 92
1, 6289, Control_c, 0, 64, 94
1, 6304, Control_c, 0, 64, 96
1, 6319, Control_c, 0, 64, 97
1, 6334, Control_c, 0, 64, 98
1, 6348, Control_c, 0, 64, 99
1, 6363, Control_c, 0, 64, 99
1, 6378, Control_c, 0, 64, 100
1, 6392, Note_off_c, 0, 65, 43
1, 6393, Control_c, 0, 64, 101
1, 6407, Control_c, 0, 64, 101
1, 6430, Control_c, 0, 64, 102
1, 6441, Note_off_c, 0, 68, 57
1, 6515, Note_off_c, 0, 59, 35
1, 7048, Note_on_c, 0, 70, 49
1, 7067, Note_on_c, 0, 66, 44
1, 7070, Note_on_c, 0, 61, 37
1, 7112, Control_c, 0, 64, 101
1, 7142, Control_c, 0, 64, 100
1, 7157, Control_c, 0, 64, 98
1, 7179, Control_c, 0, 64, 96
1, 7194, Control_c, 0, 64, 94
1, 7209, Control_c, 0, 64, 93
1, 7224, Control_c, 0, 64, 91
1, 7238, Control_c, 0, 64, 89
1, 7253, Control_c, 0, 64, 85
1, 7268, Control_c, 0, 64, 82
1, 7283, Control_c, 0, 64, 81
1, 7312, Control_c, 0, 64, 80
1, 7372, Control_c, 0, 64, 81
1, 7386, Control_c, 0, 64, 81
1, 7401, Control_c, 0, 64, 83
1, 7416, Control_c, 0, 64, 86
1, 7430, Control_c, 0, 64, 89
1, 7445, Control_c, 0, 64, 92
1, 7462, Control_c, 0, 64, 94
1, 7476, Control_c, 0, 64, 97
1, 7491, Control_c, 0, 64, 101
1, 7506, Control_c, 0, 64, 105
1, 7521, Control_c, 0, 64, 109
1, 7535, Control_c, 0, 64, 114
1, 7550, Control_c, 0, 64, 118
1, 7565, Control_c, 0, 64, 122
1, 7580, Control_c, 0, 64, 126
1, 7583, Note_off_c, 0, 61, 42
1, 7595, Control_c, 0, 64, 127
1, 7596, Note_off_c, 0, 70, 54
1, 7602, Note_off_c, 0, 66, 59
1, 7876, Control_c, 0, 64, 127
1, 7891, Control_c, 0, 64, 126
1, 7906, Control_c, 0, 64, 125
1, 7921, Control_c, 0, 64, 123
1, 7942, Control_c, 0, 64, 121
1, 7957, Note_on_c, 0, 70, 76
1, 7957, Control_c, 0, 64, 119
1, 7964, Note_on_c, 0, 64, 56
1, 7966, Note_on_c, 0, 61, 55
1, 7972, Control_c, 0, 64, 117
1, 7987, Control_c, 0, 64, 114
1, 8002, Control_c, 0, 64, 112
1, 8017, Control_c, 0, 64, 108
1, 8032, Control_c, 0, 64, 104
1, 8047, Control_c, 0, 64, 98
1, 8061, Control_c, 0, 64, 92
1, 8076, Control_c, 0, 64, 86
1, 8091, Control_c, 0, 64, 80
1, 8106, Control_c, 0, 64, 71
1, 8121, Control_c, 0, 64, 62
1, 8135, Control_c, 0, 64, 19
1, 8150, Control_c, 0, 64, 0
1, 8165, Control_c, 0, 64, 48
1, 8179, Control_c, 0, 64, 62
1, 8194, Control_c, 0, 64, 66
1, 8209, Control_c, 0, 64, 71
1, 8224, Control_c, 0, 64, 75
1, 8239, Control_c, 0, 64, 79
1, 8255, Control_c, 0, 64, 81
1, 8270, Control_c, 0, 64, 82
1, 8284, Control_c, 0, 64, 84
1, 8299, Control_c, 0, 64, 86
1, 8314, Control_c, 0, 64, 87
1, 8329, Control_c, 0, 64, 89
1, 8344, Control_c, 0, 64, 90
1, 8358, Control_c, 0, 64, 92
1, 8373, Control_c, 0, 64, 94
1, 8388, Control_c, 0, 64, 97
1, 8401, Note_off_c, 0, 64, 56
1, 8403, Control_c, 0, 64, 99
1, 8418, Control_c, 0, 64, 101
1, 8429, Note_off_c, 0, 61, 56
1, 8432, Control_c, 0, 64, 104
1, 8447, Control_c, 0, 64, 106
1, 8462, Control_c, 0, 64, 108
1, 8476, Control_c, 0, 64, 111
1, 8491, Control_c, 0, 64, 114
1, 8506, Control_c, 0, 64, 116
1, 8508, Note_off_c, 0, 70, 54
1, 8521, Control_c, 0, 64, 118
1, 8536, Control_c, 0, 64, 121
1, 8538, Note_off_c, 0, 30, 49
1, 8550, Control_c, 0, 64, 125
1, 8565, Control_c, 0, 64, 127
1, 8595, Note_off_c, 0, 42, 38
1, 8966, Note_on_c, 0, 71, 65
1, 8983, Note_on_c, 0, 30, 33
1, 8983, Note_on_c, 0, 66, 48
1, 8986, Note_on_c, 0, 42, 46
1, 8989, Note_on_c, 0, 63, 45
1, 9017, Control_c, 0, 64, 124
1, 9032, Control_c, 0, 64, 120
1, 9048, Control_c, 0, 64, 116
1, 9063, Control_c, 0, 64, 111
1, 9078, Control_c, 0, 64, 107
1, 9093, Control_c, 0, 64, 103
1, 9107, Control_c, 0, 64, 98
1, 9122, Control_c, 0, 64, 92
1, 9137, Control_c, 0, 64, 86
1, 9152, Control_c, 0, 64, 78
1, 9167, Control_c, 0, 64, 72
1, 9181, Control_c, 0, 64, 64
1, 9196, Control_c, 0, 64, 43
1, 9211, Control_c, 0, 64, 0
1, 9544, Control_c, 0, 64, 54
1, 9559, Control_c, 0, 64, 60
1, 9574, Control_c, 0, 64, 62
1, 9588, Control_c, 0, 64, 63
1, 9603, Control_c, 0, 64, 64
1, 9618, Control_c, 0, 64, 65
1, 9632, Control_c, 0, 64, 67
1, 9647, Control_c, 0, 64, 69
1, 9662, Control_c, 0, 64, 71
1, 9677, Control_c, 0, 64, 73
1, 9692, Control_c, 0, 64, 75
1, 9707, Control_c, 0, 64, 78
1, 9722, Control_c, 0, 64, 80
1, 9737, Control_c, 0, 64, 81
1, 9752, Control_c, 0, 64, 83
1, 9767, Control_c, 0, 64, 84
1, 9781, Control_c, 0, 64, 85
1, 9796, Control_c, 0, 64, 87
1, 9811, Control_c, 0, 64, 88
1, 9825, Control_c, 0, 64, 90
1, 9840, Control_c, 0, 64, 91
1, 9856, Control_c, 0, 64, 93
1, 9871, Control_c, 0, 64, 94
1, 9886, Control_c, 0, 64, 96
1, 9901, Control_c, 0, 64, 97
1, 9916, Control_c, 0, 64, 98
1, 9930, Control_c, 0, 64, 99
1, 9945, Control_c, 0, 64, 100
1, 9960, Control_c, 0, 64, 101
1, 9975, Control_c, 0, 64, 102
1, 9990, Control_c, 0, 64, 103
1, 9990, Note_off_c, 0, 71, 51
1, 10004, Control_c, 0, 64, 105
1, 10019, Control_c, 0, 64, 106
1, 10034, Control_c, 0, 64, 106
1, 10048, Control_c, 0, 64, 107
1, 10063, Control_c, 0, 64, 107
1, 10108, Note_off_c, 0, 66, 53
1, 10108, Control_c, 0, 64, 108
1, 10514, Note_on_c, 0, 73, 57
1, 10559, Control_c, 0, 64, 107
1, 10648, Control_c, 0, 64, 107
1, 10677, Control_c, 0, 64, 106
1, 10707, Control_c, 0, 64, 106
1, 10737, Control_c, 0, 64, 105
1, 10751, Control_c, 0, 64, 105
1, 10752, Note_on_c, 0, 71, 69
1, 10766, Control_c, 0, 64, 104
1, 10781, Control_c, 0, 64, 103
1, 10796, Control_c, 0, 64, 103
1, 10798, Note_off_c, 0, 73, 57
1, 10811, Control_c, 0, 64, 102
1, 10825, Control_c, 0, 64, 101
1, 10840, Control_c, 0, 64, 99
1, 10855, Control_c, 0, 64, 98
1, 10869, Control_c, 0, 64, 97
1, 10884, Control_c, 0, 64, 96
1, 10899, Control_c, 0, 64, 95
1, 10922, Control_c, 0, 64, 93
1, 10937, Control_c, 0, 64, 92
1, 10942, Note_on_c, 0, 70, 73
1, 10951, Control_c, 0, 64, 90
1, 10966, Control_c, 0, 64, 88
1, 10981, Control_c, 0, 64, 86
1, 10983, Note_off_c, 0, 71, 56
1, 10996, Control_c, 0, 64, 84
1, 11011, Control_c, 0, 64, 81
1, 11025, Control_c, 0, 64, 78
1, 11040, Control_c, 0, 64, 73
1, 11055, Control_c, 0, 64, 68
1, 11069, Control_c, 0, 64, 61
1, 11084, Control_c, 0, 64, 51
1, 11099, Control_c, 0, 64, 44
1, 11114, Control_c, 0, 64, 36
1, 11129, Control_c, 0, 64, 18
1, 11144, Control_c, 0, 64, 0
1, 11144, Note_on_c, 0, 71, 73
1, 11180, Note_off_c, 0, 70, 61
1, 11292, Control_c, 0, 64, 60
1, 11307, Control_c, 0, 64, 71
1, 11322, Control_c, 0, 64, 80
1, 11337, Control_c, 0, 64, 87
1, 11349, Note_off_c, 0, 63, 61
1, 11351, Control_c, 0, 64, 92
1, 11366, Control_c, 0, 64, 93
1, 11381, Control_c, 0, 64, 95
1, 11395, Control_c, 0, 64, 97
1, 11410, Control_c, 0, 64, 98
1, 11425, Control_c, 0, 64, 98
1, 11489, Note_on_c, 0, 75, 72
1, 11507, Note_on_c, 0, 65, 46
1, 11509, Note_on_c, 0, 68, 45
1, 11530, Control_c, 0, 64, 98
1, 11574, Control_c, 0, 64, 97
1, 11589, Control_c, 0, 64, 97
1, 11604, Control_c, 0, 64, 96
1, 11618, Control_c, 0, 64, 94
1, 11622, Note_off_c, 0, 71, 29
1, 11633, Control_c, 0, 64, 91
1, 11648, Control_c, 0, 64, 88
1, 11671, Control_c, 0, 64, 84
1, 11686, Control_c, 0, 64, 80
1, 11700, Control_c, 0, 64, 76
1, 11715, Control_c, 0, 64, 72
1, 11730, Control_c, 0, 64, 67
1, 11745, Control_c, 0, 64, 62
1, 11760, Control_c, 0, 64, 60
1, 11774, Control_c, 0, 64, 61
1, 11789, Control_c, 0, 64, 60
1, 11804, Control_c, 0, 64, 59
1, 11818, Control_c, 0, 64, 59
1, 11863, Control_c, 0, 64, 58
1, 11878, Control_c, 0, 64, 56
1, 11892, Control_c, 0, 64, 53
1, 11907, Control_c, 0, 64, 51
1, 11922, Control_c, 0, 64, 50
1, 11937, Control_c, 0, 64, 44
1, 11952, Control_c, 0, 64, 32
1, 11966, Control_c, 0, 64, 0
1, 12175, Control_c, 0, 64, 41
1, 12190, Control_c, 0, 64, 52
1, 12205, Control_c, 0, 64, 55
1, 12219, Control_c, 0, 64, 57
1, 12234, Control_c, 0, 64, 59
1, 12250, Control_c, 0, 64, 61
1, 12265, Control_c, 0, 64, 62
1, 12279, Control_c, 0, 64, 63
1, 12294, Control_c, 0, 64, 63
1, 12309, Control_c, 0, 64, 64
1, 12324, Control_c, 0, 64, 65
1, 12339, Control_c, 0, 64, 66
1, 12354, Control_c, 0, 64, 68
1, 12369, Control_c, 0, 64, 69
1, 12384, Control_c, 0, 64, 71
1, 12398, Control_c, 0, 64, 73
1, 12413, Control_c, 0, 64, 75
1, 12435, Control_c, 0, 64, 76
1, 12449, Control_c, 0, 64, 78
1, 12464, Control_c, 0, 64, 79
1, 12479, Control_c, 0, 64, 81
1, 12494, Control_c, 0, 64, 82
1, 12509, Control_c, 0, 64, 84
1, 12524, Control_c, 0, 64, 86
1, 12539, Control_c, 0, 64, 88
1, 12554, Control_c, 0, 64, 89
1, 12569, Control_c, 0, 64, 91
1, 12583, Control_c, 0, 64, 93
1, 12598, Control_c, 0, 64, 95
1, 12613, Control_c, 0, 64, 97
1, 12628, Control_c, 0, 64, 99
1, 12643, Control_c, 0, 64, 101
1, 12657, Control_c, 0, 64, 103
1, 12672, Control_c, 0, 64, 104
1, 12687, Control_c, 0, 64, 106
1, 12702, Control_c, 0, 64, 107
1, 12716, Control_c, 0, 64, 108
1, 12731, Control_c, 0, 64, 108
1, 12746, Control_c, 0, 64, 109
1, 12790, Control_c, 0, 64, 109
1, 12820, Control_c, 0, 64, 110
1, 12864, Control_c, 0, 64, 110
1, 13258, Control_c, 0, 64, 110
1, 13324, Note_on_c, 0, 73, 49
1, 13332, Control_c, 0, 64, 109
1, 13347, Control_c, 0, 64, 108
1, 13361, Control_c, 0, 64, 107
1, 13376, Control_c, 0, 64, 106
1, 13391, Control_c, 0, 64, 104
1, 13406, Control_c, 0, 64, 100
1, 13421, Control_c, 0, 64, 96
1, 13436, Control_c, 0, 64, 92
1, 13437, Note_off_c, 0, 75, 50
1, 13451, Control_c, 0, 64, 88
1, 13466, Control_c, 0, 64, 82
1, 13480, Control_c, 0, 64, 77
1, 13495, Control_c, 0, 64, 70
1, 13510, Control_c, 0, 64, 62
1, 13525, Control_c, 0, 64, 47
1, 13540, Control_c, 0, 64, 47
1, 13554, Control_c, 0, 64, 56
1, 13569, Control_c, 0, 64, 62
1, 13584, Control_c, 0, 64, 65
1, 13598, Control_c, 0, 64, 68
1, 13613, Control_c, 0, 64, 72
1, 13628, Control_c, 0, 64, 76
1, 13643, Control_c, 0, 64, 79
1, 13658, Control_c, 0, 64, 82
1, 13672, Control_c, 0, 64, 84
1, 13687, Control_c, 0, 64, 86
1, 13702, Control_c, 0, 64, 89
1, 13717, Control_c, 0, 64, 91
1, 13732, Control_c, 0, 64, 94
1, 13737, Note_off_c, 0, 65, 38
1, 13746, Control_c, 0, 64, 97
1, 13761, Control_c, 0, 64, 100
1, 13776, Control_c, 0, 64, 103
1, 13788, Note_off_c, 0, 68, 37
1, 13791, Control_c, 0, 64, 106
1, 13806, Control_c, 0, 64, 110
1, 13821, Control_c, 0, 64, 112
1, 13827, Note_off_c, 0, 42, 35
1, 13827, Note_off_c, 0, 30, 35
1, 13836, Control_c, 0, 64, 115
1, 13851, Control_c, 0, 64, 116
1, 13895, Control_c, 0, 64, 116
1, 13963, Control_c, 0, 64, 117
1, 14244, Control_c, 0, 64, 116
1, 14300, Note_on_c, 0, 71, 42
1, 14318, Control_c, 0, 64, 116
1, 14322, Note_on_c, 0, 66, 29
1, 14328, Note_on_c, 0, 30, 19
1, 14329, Note_on_c, 0, 42, 24
1, 14353, Note_off_c, 0, 73, 56
1, 14363, Control_c, 0, 64, 115
1, 14377, Control_c, 0, 64, 114
1, 14392, Control_c, 0, 64, 113
1, 14407, Control_c, 0, 64, 110
1, 14421, Control_c, 0, 64, 107
1, 14436, Control_c, 0, 64, 105
1, 14451, Control_c, 0, 64, 102
1, 14466, Control_c, 0, 64, 99
1, 14481, Control_c, 0, 64, 95
1, 14495, Control_c, 0, 64, 92
1, 14510, Control_c, 0, 64, 88
1, 14525, Control_c, 0, 64, 85
1, 14540, Control_c, 0, 64, 81
1, 14555, Control_c, 0, 64, 78
1, 14569, Control_c, 0, 64, 74
1, 14584, Control_c, 0, 64, 69
1, 14599, Control_c, 0, 64, 64
1, 14613, Control_c, 0, 64, 56
1, 14628, Control_c, 0, 64, 49
1, 14667, Control_c, 0, 64, 49
1, 14682, Control_c, 0, 64, 49
1, 14683, Note_on_c, 0, 70, 48
1, 14697, Control_c, 0, 64, 46
1, 14712, Note_off_c, 0, 71, 54
1, 14712, Control_c, 0, 64, 38
1, 14726, Control_c, 0, 64, 21
1, 14741, Control_c, 0, 64, 0
1, 14991, Note_on_c, 0, 75, 42
1, 15007, Note_off_c, 0, 70, 48
1, 15353, Note_on_c, 0, 73, 41
1, 15359, Note_off_c, 0, 75, 59
1, 15430, Control_c, 0, 64, 52
1, 15445, Control_c, 0, 64, 64
1, 15460, Control_c, 0, 64, 67
1, 15475, Control_c, 0, 64, 73
1, 15490, Control_c, 0, 64, 79
1, 15505, Control_c, 0, 64, 85
1, 15520, Control_c, 0, 64, 90
1, 15535, Control_c, 0, 64, 93
1, 15549, Control_c, 0, 64, 96
1, 15564, Control_c, 0, 64, 99
1, 15576, Note_off_c, 0, 73, 46
1, 15579, Control_c, 0, 64, 102
1, 15593, Control_c, 0, 64, 105
1, 15608, Control_c, 0, 64, 107
1, 15623, Control_c, 0, 64, 108
1, 15638, Control_c, 0, 64, 109
1, 15653, Control_c, 0, 64, 109
1, 15931, Note_on_c, 0, 73, 40
1, 15949, Control_c, 0, 64, 109
1, 15993, Control_c, 0, 64, 108
1, 16023, Control_c, 0, 64, 108
1, 16038, Control_c, 0, 64, 107
1, 16053, Control_c, 0, 64, 106
1, 16067, Control_c, 0, 64, 106
1, 16082, Control_c, 0, 64, 105
1, 16097, Control_c, 0, 64, 104
1, 16112, Control_c, 0, 64, 102
1, 16127, Control_c, 0, 64, 100
1, 16141, Control_c, 0, 64, 97
1, 16156, Control_c, 0, 64, 95
1, 16178, Control_c, 0, 64, 95
1, 16193, Control_c, 0, 64, 94
1, 16238, Control_c, 0, 64, 94
1, 16253, Control_c, 0, 64, 93
1, 16298, Control_c, 0, 64, 93
1, 16327, Control_c, 0, 64, 92
1, 16416, Control_c, 0, 64, 92
1, 16446, Control_c, 0, 64, 91
1, 16476, Control_c, 0, 64, 91
1, 16505, Control_c, 0, 64, 90
1, 16520, Control_c, 0, 64, 90
1, 16564, Control_c, 0, 64, 89
1, 16623, Control_c, 0, 64, 88
1, 16638, Control_c, 0, 64, 88
1, 16682, Control_c, 0, 64, 87
1, 17976, Note_off_c, 0, 66, 40
1, 18043, Note_off_c, 0, 73, 35
1, 18760, Note_off_c, 0, 30, 37
1, 19067, Note_on_c, 0, 70, 39
1, 19067, Note_off_c, 0, 42, 37
1, 19107, Control_c, 0, 64, 86
1, 19122, Control_c, 0, 64, 84
1, 19137, Control_c, 0, 64, 80
1, 19152, Control_c, 0, 64, 76
1, 19174, Control_c, 0, 64, 71
1, 19189, Control_c, 0, 64, 64
1, 19204, Control_c, 0, 64, 51
1, 19218, Control_c, 0, 64, 34
1, 19233, Control_c, 0, 64, 28
1, 19263, Control_c, 0, 64, 26
1, 19278, Control_c, 0, 64, 10
1, 19292, Control_c, 0, 64, 0
1, 19578, Note_on_c, 0, 71, 47
1, 19591, Note_off_c, 0, 70, 50
1, 19684, Note_off_c, 0, 71, 53
1, 19719, Note_on_c, 0, 73, 47
1, 19735, Note_on_c, 0, 42, 23
1, 19753, Control_c, 0, 64, 52
1, 19767, Control_c, 0, 64, 65
1, 19782, Control_c, 0, 64, 70
1, 19797, Control_c, 0, 64, 75
1, 19812, Control_c, 0, 64, 80
1, 19827, Control_c, 0, 64, 84
1, 19841, Control_c, 0, 64, 87
1, 19851, Note_off_c, 0, 42, 57
1, 19856, Control_c, 0, 64, 89
1, 19871, Control_c, 0, 64, 92
1, 19886, Control_c, 0, 64, 94
1, 19901, Control_c, 0, 64, 95
1, 19922, Control_c, 0, 64, 96
1, 19937, Control_c, 0, 64, 97
1, 20052, Note_on_c, 0, 54, 13
1, 20250, Note_off_c, 0, 54, 18
1, 20251, Note_on_c, 0, 66, 52
1, 20254, Note_on_c, 0, 58, 34
1, 20256, Note_on_c, 0, 61, 42
1, 20407, Note_off_c, 0, 73, 34
1, 20427, Control_c, 0, 64, 96
1, 20443, Note_on_c, 0, 54, 33
1, 20462, Note_off_c, 0, 61, 48
1, 20544, Note_off_c, 0, 58, 36
1, 20614, Note_on_c, 0, 65, 61
1, 20621, Note_on_c, 0, 61, 51
1, 20635, Control_c, 0, 64, 95
1, 20640, Note_on_c, 0, 59, 42
1, 20641, Note_off_c, 0, 66, 56
1, 20650, Control_c, 0, 64, 92
1, 20669, Note_off_c, 0, 54, 39
1, 20671, Control_c, 0, 64, 88
1, 20686, Control_c, 0, 64, 84
1, 20701, Control_c, 0, 64, 80
1, 20716, Control_c, 0, 64, 74
1, 20731, Control_c, 0, 64, 65
1, 20745, Control_c, 0, 64, 58
1, 20760, Control_c, 0, 64, 62
1, 20775, Control_c, 0, 64, 66
1, 20790, Control_c, 0, 64, 71
1, 20794, Note_on_c, 0, 54, 45
1, 20805, Control_c, 0, 64, 76
1, 20820, Control_c, 0, 64, 80
1, 20820, Note_off_c, 0, 61, 24
1, 20835, Control_c, 0, 64, 82
1, 20850, Control_c, 0, 64, 83
1, 20864, Control_c, 0, 64, 84
1, 20879, Control_c, 0, 64, 84
1, 20968, Control_c, 0, 64, 82
1, 20970, Note_off_c, 0, 59, 39
1, 20972, Note_on_c, 0, 66, 61
1, 20982, Control_c, 0, 64, 78
1, 20984, Note_on_c, 0, 61, 47
1, 20995, Note_off_c, 0, 65, 57
1, 20997, Control_c, 0, 64, 71
1, 21000, Note_on_c, 0, 58, 40
1, 21005, Note_off_c, 0, 54, 36
1, 21012, Control_c, 0, 64, 61
1, 21028, Control_c, 0, 64, 0
1, 21058, Control_c, 0, 64, 52
1, 21073, Control_c, 0, 64, 64
1, 21087, Control_c, 0, 64, 68
1, 21088, Note_off_c, 0, 61, 59
1, 21102, Control_c, 0, 64, 72
1, 21117, Control_c, 0, 64, 76
1, 21132, Control_c, 0, 64, 79
1, 21147, Control_c, 0, 64, 81
1, 21161, Control_c, 0, 64, 82
1, 21163, Note_on_c, 0, 54, 36
1, 21176, Control_c, 0, 64, 82
1, 21191, Control_c, 0, 64, 83
1, 21244, Note_off_c, 0, 58, 37
1, 21252, Note_off_c, 0, 66, 60
1, 21335, Note_off_c, 0, 54, 40
1, 21344, Note_on_c, 0, 71, 52
1, 21355, Note_on_c, 0, 61, 34
1, 21356, Note_on_c, 0, 59, 41
1, 21358, Note_on_c, 0, 65, 45
1, 21368, Control_c, 0, 64, 82
1, 21383, Note_on_c, 0, 56, 37
1, 21383, Control_c, 0, 64, 81
1, 21405, Control_c, 0, 64, 80
1, 21420, Control_c, 0, 64, 77
1, 21435, Control_c, 0, 64, 73
1, 21450, Control_c, 0, 64, 67
1, 21465, Control_c, 0, 64, 53
1, 21479, Control_c, 0, 64, 0
1, 21556, Note_on_c, 0, 49, 33
1, 21583, Control_c, 0, 64, 13
1, 21594, Note_off_c, 0, 56, 40
1, 21598, Control_c, 0, 64, 60
1, 21613, Control_c, 0, 64, 65
1, 21628, Control_c, 0, 64, 67
1, 21642, Control_c, 0, 64, 69
1, 21657, Control_c, 0, 64, 71
1, 21672, Control_c, 0, 64, 75
1, 21687, Control_c, 0, 64, 78
1, 21702, Control_c, 0, 64, 80
1, 21717, Control_c, 0, 64, 81
1, 21724, Note_off_c, 0, 49, 40
1, 21731, Control_c, 0, 64, 83
1, 21733, Note_on_c, 0, 56, 36
1, 21746, Control_c, 0, 64, 84
1, 21761, Control_c, 0, 64, 85
1, 21776, Control_c, 0, 64, 86
1, 21787, Note_off_c, 0, 71, 41
1, 21791, Control_c, 0, 64, 87
1, 21830, Note_off_c, 0, 61, 34
1, 21896, Note_on_c, 0, 49, 36
1, 21906, Note_off_c, 0, 56, 38
1, 21973, Note_off_c, 0, 59, 39
1, 22084, Note_on_c, 0, 56, 38
1, 22105, Note_off_c, 0, 49, 36
1, 22170, Control_c, 0, 64, 86
1, 22261, Note_on_c, 0, 49, 30
1, 22274, Control_c, 0, 64, 86
1, 22286, Note_off_c, 0, 56, 23
1, 22407, Control_c, 0, 64, 85
1, 22466, Control_c, 0, 64, 85
1, 22483, Note_on_c, 0, 68, 51
1, 22492, Note_on_c, 0, 56, 34
1, 22496, Control_c, 0, 64, 84
1, 22510, Control_c, 0, 64, 82
1, 22522, Note_on_c, 0, 61, 35
1, 22524, Note_on_c, 0, 53, 36
1, 22525, Control_c, 0, 64, 79
1, 22540, Control_c, 0, 64, 74
1, 22543, Note_off_c, 0, 49, 35
1, 22555, Control_c, 0, 64, 67
1, 22569, Control_c, 0, 64, 59
1, 22584, Control_c, 0, 64, 58
1, 22598, Control_c, 0, 64, 64
1, 22613, Control_c, 0, 64, 68
1, 22629, Control_c, 0, 64, 72
1, 22644, Control_c, 0, 64, 75
1, 22658, Control_c, 0, 64, 77
1, 22668, Note_off_c, 0, 68, 50
1, 22673, Control_c, 0, 64, 78
1, 22688, Control_c, 0, 64, 78
1, 22697, Note_on_c, 0, 49, 41
1, 22703, Control_c, 0, 64, 79
1, 22739, Note_off_c, 0, 56, 41
1, 22740, Note_off_c, 0, 53, 38
1, 22836, Control_c, 0, 64, 78
1, 22850, Control_c, 0, 64, 78
1, 22865, Control_c, 0, 64, 77
1, 22880, Control_c, 0, 64, 75
1, 22884, Note_on_c, 0, 70, 57
1, 22903, Control_c, 0, 64, 72
1, 22906, Note_on_c, 0, 58, 34
1, 22918, Control_c, 0, 64, 66
1, 22918, Note_on_c, 0, 42, 29
1, 22932, Control_c, 0, 64, 30
1, 22947, Control_c, 0, 64, 0
1, 23008, Note_off_c, 0, 61, 30
1, 23021, Control_c, 0, 64, 19
1, 23025, Note_off_c, 0, 49, 30
1, 23036, Control_c, 0, 64, 64
1, 23050, Control_c, 0, 64, 68
1, 23065, Control_c, 0, 64, 72
1, 23080, Control_c, 0, 64, 75
1, 23082, Note_off_c, 0, 65, 56
1, 23084, Note_off_c, 0, 58, 59
1, 23093, Note_on_c, 0, 54, 41
1, 23095, Control_c, 0, 64, 77
1, 23110, Control_c, 0, 64, 78
1, 23124, Control_c, 0, 64, 79
1, 23125, Note_off_c, 0, 70, 61
1, 23139, Control_c, 0, 64, 80
1, 23249, Note_on_c, 0, 75, 74
1, 23258, Control_c, 0, 64, 79
1, 23268, Note_on_c, 0, 63, 47
1, 23270, Note_on_c, 0, 47, 50
1, 23273, Control_c, 0, 64, 76
1, 23285, Note_off_c, 0, 54, 34
1, 23288, Control_c, 0, 64, 70
1, 23303, Control_c, 0, 64, 59
1, 23318, Control_c, 0, 64, 0
1, 23362, Control_c, 0, 64, 58
1, 23376, Control_c, 0, 64, 66
1, 23391, Control_c, 0, 64, 70
1, 23406, Control_c, 0, 64, 75
1, 23421, Control_c, 0, 64, 79
1, 23437, Note_on_c, 0, 54, 43
1, 23437, Control_c, 0, 64, 81
1, 23452, Control_c, 0, 64, 82
1, 23469, Note_off_c, 0, 75, 63
1, 23474, Note_off_c, 0, 63, 38
1, 23481, Control_c, 0, 64, 83
1, 23541, Control_c, 0, 64, 82
1, 23570, Control_c, 0, 64, 81
1, 23585, Control_c, 0, 64, 78
1, 23599, Control_c, 0, 64, 70
1, 23601, Note_on_c, 0, 73, 78
1, 23614, Control_c, 0, 64, 44
1, 23619, Note_on_c, 0, 61, 52
1, 23619, Note_off_c, 0, 54, 42
1, 23629, Control_c, 0, 64, 0
1, 23634, Note_on_c, 0, 46, 48
1, 23655, Note_off_c, 0, 47, 41
1, 23696, Control_c, 0, 64, 56
1, 23711, Control_c, 0, 64, 67
1, 23726, Control_c, 0, 64, 73
1, 23729, Note_off_c, 0, 42, 41
1, 23741, Control_c, 0, 64, 78
1, 23751, Note_off_c, 0, 61, 63
1, 23755, Control_c, 0, 64, 81
1, 23770, Control_c, 0, 64, 82
1, 23785, Control_c, 0, 64, 83
1, 23792, Note_off_c, 0, 73, 63
1, 23801, Note_on_c, 0, 54, 31
1, 23872, Note_off_c, 0, 54, 0
1, 23909, Poly_aftertouch_c, 0, 54, 127
1, 23918, Control_c, 0, 64, 82
1, 23933, Control_c, 0, 64, 79
1, 23947, Control_c, 0, 64, 73
1, 23958, Note_on_c, 0, 78, 80
1, 23962, Control_c, 0, 64, 63
1, 23976, Note_off_c, 0, 46, 42
1, 23977, Control_c, 0, 64, 0
1, 23981, Note_on_c, 0, 66, 57
1, 23983, Note_on_c, 0, 51, 38
1, 23986, Poly_aftertouch_c, 0, 54, 0
1, 23993, Note_on_c, 0, 42, 34
1, 24066, Control_c, 0, 64, 55
1, 24081, Control_c, 0, 64, 69
1, 24096, Control_c, 0, 64, 76
1, 24111, Control_c, 0, 64, 82
1, 24125, Control_c, 0, 64, 85
1, 24140, Control_c, 0, 64, 87
1, 24155, Control_c, 0, 64, 87
1, 24161, Note_off_c, 0, 51, 60
1, 24166, Note_on_c, 0, 54, 43
1, 24168, Note_off_c, 0, 42, 37
1, 24170, Control_c, 0, 64, 88
1, 24176, Note_off_c, 0, 66, 65
1, 24185, Control_c, 0, 64, 88
1, 24194, Note_off_c, 0, 78, 63
1, 24289, Control_c, 0, 64, 88
1, 24319, Control_c, 0, 64, 87
1, 24334, Control_c, 0, 64, 85
1, 24339, Note_on_c, 0, 77, 75
1, 24347, Note_on_c, 0, 65, 56
1, 24348, Note_off_c, 0, 54, 29
1, 24349, Control_c, 0, 64, 79
1, 24363, Note_on_c, 0, 42, 32
1, 24364, Control_c, 0, 64, 67
1, 24378, Control_c, 0, 64, 0
1, 24381, Note_on_c, 0, 49, 26
1, 24444, Control_c, 0, 64, 56
1, 24459, Control_c, 0, 64, 67
1, 24474, Control_c, 0, 64, 73
1, 24489, Control_c, 0, 64, 78
1, 24494, Note_off_c, 0, 65, 62
1, 24504, Control_c, 0, 64, 82
1, 24519, Control_c, 0, 64, 83
1, 24531, Note_off_c, 0, 42, 37
1, 24534, Control_c, 0, 64, 84
1, 24538, Note_on_c, 0, 54, 32
1, 24563, Control_c, 0, 64, 84
1, 24623, Control_c, 0, 64, 84
1, 24667, Control_c, 0, 64, 83
1, 24682, Control_c, 0, 64, 80
1, 24697, Control_c, 0, 64, 73
1, 24702, Note_on_c, 0, 75, 57
1, 24711, Control_c, 0, 64, 62
1, 24713, Note_on_c, 0, 63, 45
1, 24718, Note_on_c, 0, 47, 35
1, 24721, Note_off_c, 0, 54, 31
1, 24726, Control_c, 0, 64, 0
1, 24728, Note_off_c, 0, 77, 54
1, 24736, Note_off_c, 0, 49, 37
1, 24762, Poly_aftertouch_c, 0, 42, 127
1, 24800, Control_c, 0, 64, 49
1, 24815, Control_c, 0, 64, 65
1, 24829, Control_c, 0, 64, 70
1, 24845, Control_c, 0, 64, 75
1, 24850, Poly_aftertouch_c, 0, 42, 0
1, 24860, Control_c, 0, 64, 79
1, 24875, Control_c, 0, 64, 81
1, 24886, Note_on_c, 0, 54, 35
1, 24890, Control_c, 0, 64, 81
1, 24894, Note_off_c, 0, 75, 50
1, 24932, Note_off_c, 0, 63, 38
1, 25068, Control_c, 0, 64, 81
1, 25083, Control_c, 0, 64, 80
1, 25089, Note_on_c, 0, 73, 44
1, 25091, Note_on_c, 0, 61, 31
1, 25098, Control_c, 0, 64, 79
1, 25106, Note_off_c, 0, 54, 30
1, 25109, Note_on_c, 0, 42, 8
1, 25113, Control_c, 0, 64, 76
1, 25121, Note_on_c, 0, 46, 36
1, 25127, Control_c, 0, 64, 69
1, 25150, Control_c, 0, 64, 43
1, 25158, Note_off_c, 0, 47, 42
1, 25165, Control_c, 0, 64, 0
1, 25239, Control_c, 0, 64, 59
1, 25253, Control_c, 0, 64, 66
1, 25268, Control_c, 0, 64, 68
1, 25283, Control_c, 0, 64, 70
1, 25298, Control_c, 0, 64, 72
1, 25312, Note_on_c, 0, 54, 24
1, 25313, Control_c, 0, 64, 74
1, 25327, Control_c, 0, 64, 74
1, 25394, Note_off_c, 0, 73, 60
1, 25416, Control_c, 0, 64, 74
1, 25431, Control_c, 0, 64, 72
1, 25437, Note_off_c, 0, 61, 38
1, 25441, Note_off_c, 0, 42, 40
1, 25446, Control_c, 0, 64, 69
1, 25461, Control_c, 0, 64, 60
1, 25462, Note_off_c, 0, 46, 19
1, 25464, Note_off_c, 0, 54, 34
1, 25476, Control_c, 0, 64, 0
1, 25499, Note_on_c, 0, 70, 47
1, 25565, Note_off_c, 0, 70, 61
1, 25579, Note_on_c, 0, 71, 56
1, 25652, Note_off_c, 0, 71, 58
1, 25664, Note_on_c, 0, 70, 60
1, 25708, Note_off_c, 0, 70, 62
1, 25726, Note_on_c, 0, 66, 54
1, 25780, Note_off_c, 0, 66, 54
1, 25821, Note_on_c, 0, 71, 52
1, 25881, Note_off_c, 0, 71, 61
1, 25911, Note_on_c, 0, 73, 50
1, 25968, Note_off_c, 0, 73, 57
1, 25986, Note_on_c, 0, 71, 47
1, 26051, Note_off_c, 0, 71, 57
1, 26063, Note_on_c, 0, 68, 49
1, 26144, Note_off_c, 0, 68, 52
1, 26153, Note_on_c, 0, 65, 49
1, 26165, Note_on_c, 0, 49, 34
1, 26239, Note_on_c, 0, 53, 43
1, 26314, Note_off_c, 0, 53, 62
1, 26326, Note_on_c, 0, 56, 51
1, 26343, Note_off_c, 0, 49, 43
1, 26375, Note_off_c, 0, 56, 60
1, 26435, Note_on_c, 0, 59, 30
1, 26509, Note_off_c, 0, 65, 40
1, 26513, Note_off_c, 0, 59, 37
1, 26536, Note_on_c, 0, 47, 39
1, 26745, Note_off_c, 0, 47, 44
1, 26984, Note_on_c, 0, 71, 45
1, 27056, Note_off_c, 0, 71, 61
1, 27078, Note_on_c, 0, 73, 42
1, 27160, Note_on_c, 0, 71, 49
1, 27187, Note_off_c, 0, 73, 35
1, 27217, Note_off_c, 0, 71, 59
1, 27232, Note_on_c, 0, 68, 56
1, 27312, Note_off_c, 0, 68, 64
1, 27321, Note_on_c, 0, 73, 58
1, 27401, Note_off_c, 0, 73, 62
1, 27402, Note_on_c, 0, 75, 61
1, 27476, Note_on_c, 0, 73, 62
1, 27485, Note_off_c, 0, 75, 60
1, 27553, Note_off_c, 0, 73, 60
1, 27559, Note_on_c, 0, 70, 60
1, 27615, Note_off_c, 0, 70, 55
1, 27645, Note_on_c, 0, 66, 57
1, 27657, Note_on_c, 0, 46, 37
1, 27711, Note_on_c, 0, 49, 42
1, 27741, Note_off_c, 0, 46, 42
1, 27786, Note_off_c, 0, 49, 57
1, 27797, Note_on_c, 0, 54, 45
1, 27870, Note_off_c, 0, 54, 55
1, 27895, Note_on_c, 0, 58, 34
1, 27971, Note_off_c, 0, 66, 43
1, 27993, Note_off_c, 0, 58, 46
1, 28031, Note_on_c, 0, 46, 39
1, 28186, Note_off_c, 0, 46, 56
1, 28516, Note_on_c, 0, 78, 50
1, 28532, Note_on_c, 0, 42, 27
1, 28648, Note_off_c, 0, 78, 50
1, 28648, Note_on_c, 0, 77, 56
1, 28666, Note_on_c, 0, 44, 35
1, 28684, Note_off_c, 0, 42, 39
1, 28733, Note_off_c, 0, 44, 53
1, 28769, Note_on_c, 0, 46, 47
1, 28769, Note_off_c, 0, 77, 55
1, 28780, Note_on_c, 0, 75, 64
1, 28881, Note_off_c, 0, 46, 56
1, 28895, Note_on_c, 0, 47, 65
1, 28901, Note_on_c, 0, 73, 67
1, 28911, Note_off_c, 0, 75, 59
1, 29017, Note_on_c, 0, 71, 66
1, 29026, Note_off_c, 0, 73, 62
1, 29133, Note_on_c, 0, 70, 70
1, 29156, Note_off_c, 0, 71, 61
1, 29243, Note_on_c, 0, 68, 73
1, 29287, Note_off_c, 0, 70, 55
1, 29346, Note_on_c, 0, 66, 77
1, 29384, Note_off_c, 0, 68, 62
1, 29460, Note_on_c, 0, 65, 79
1, 29497, Note_off_c, 0, 66, 66
1, 29584, Note_on_c, 0, 63, 78
1, 29602, Note_on_c, 0, 49, 72
1, 29619, Note_off_c, 0, 65, 63
1, 29682, Note_off_c, 0, 47, 63
1, 29708, Note_on_c, 0, 61, 78
1, 29740, Note_off_c, 0, 63, 62
1, 29819, Note_on_c, 0, 60, 78
1, 29857, Note_off_c, 0, 61, 63
1, 29944, Note_on_c, 0, 61, 82
1, 29957, Note_off_c, 0, 60, 58
1, 29958, Note_on_c, 0, 59, 61
1, 30052, Note_on_c, 0, 63, 76
1, 30059, Note_off_c, 0, 61, 61
1, 30168, Note_on_c, 0, 65, 69
1, 30176, Note_off_c, 0, 63, 61
1, 30289, Note_off_c, 0, 59, 48
1, 30301, Note_off_c, 0, 49, 52
1, 30302, Note_off_c, 0, 65, 48
1, 30330, Note_on_c, 0, 66, 54
1, 30357, Note_on_c, 0, 54, 40
1, 30358, Note_on_c, 0, 61, 44
1, 30367, Note_on_c, 0, 58, 35
1, 30435, Control_c, 0, 64, 59
1, 30449, Control_c, 0, 64, 70
1, 30464, Control_c, 0, 64, 79
1, 30479, Control_c, 0, 64, 87
1, 30494, Control_c, 0, 64, 90
1, 30509, Control_c, 0, 64, 91
1, 30523, Control_c, 0, 64, 94
1, 30538, Control_c, 0, 64, 98
1, 30553, Control_c, 0, 64, 103
1, 30567, Control_c, 0, 64, 108
1, 30582, Control_c, 0, 64, 111
1, 30595, Note_off_c, 0, 66, 61
1, 30597, Control_c, 0, 64, 113
1, 30613, Control_c, 0, 64, 113
1, 30723, Note_off_c, 0, 61, 0
1, 30732, Control_c, 0, 64, 113
1, 30740, Note_off_c, 0, 58, 36
1, 30746, Control_c, 0, 64, 112
1, 30758, Note_on_c, 0, 68, 52
1, 30760, Poly_aftertouch_c, 0, 61, 127
1, 30761, Control_c, 0, 64, 108
1, 30776, Control_c, 0, 64, 101
1, 30784, Note_off_c, 0, 54, 30
1, 30785, Note_on_c, 0, 56, 35
1, 30787, Note_on_c, 0, 65, 37
1, 30789, Note_on_c, 0, 49, 34
1, 30791, Control_c, 0, 64, 95
1, 30806, Control_c, 0, 64, 88
1, 30821, Control_c, 0, 64, 81
1, 30836, Control_c, 0, 64, 73
1, 30850, Control_c, 0, 64, 65
1, 30865, Control_c, 0, 64, 53
1, 30880, Control_c, 0, 64, 62
1, 30895, Control_c, 0, 64, 67
1, 30910, Control_c, 0, 64, 73
1, 30925, Control_c, 0, 64, 80
1, 30930, Note_off_c, 0, 68, 57
1, 30939, Control_c, 0, 64, 84
1, 30954, Control_c, 0, 64, 86
1, 30962, Poly_aftertouch_c, 0, 61, 0
1, 30965, Note_off_c, 0, 56, 39
1, 30969, Control_c, 0, 64, 87
1, 30984, Note_off_c, 0, 65, 41
1, 30984, Control_c, 0, 64, 88
1, 30998, Control_c, 0, 64, 88
1, 31131, Control_c, 0, 64, 88
1, 31154, Control_c, 0, 64, 87
1, 31169, Control_c, 0, 64, 87
1, 31184, Control_c, 0, 64, 85
1, 31190, Note_on_c, 0, 70, 45
1, 31198, Control_c, 0, 64, 83
1, 31210, Note_on_c, 0, 61, 32
1, 31213, Control_c, 0, 64, 80
1, 31225, Note_on_c, 0, 66, 35
1, 31228, Note_on_c, 0, 42, 31
1, 31228, Control_c, 0, 64, 76
1, 31243, Control_c, 0, 64, 68
1, 31247, Note_on_c, 0, 54, 19
1, 31256, Note_off_c, 0, 49, 39
1, 31258, Control_c, 0, 64, 0
1, 31503, Note_off_c, 0, 61, 41
1, 31513, Note_off_c, 0, 70, 56
1, 31515, Note_off_c, 0, 66, 39
1, 31517, Note_off_c, 0, 42, 53
1, 31546, Note_off_c, 0, 54, 52
1, 32011, Note_on_c, 0, 70, 40
1, 32022, Note_on_c, 0, 58, 29
1, 32022, Control_c, 0, 64, 60
1, 32025, Note_on_c, 0, 54, 22
1, 32025, Note_on_c, 0, 61, 35
1, 32037, Control_c, 0, 64, 66
1, 32044, Note_on_c, 0, 66, 26
1, 32052, Control_c, 0, 64, 69
1, 32067, Control_c, 0, 64, 72
1, 32082, Control_c, 0, 64, 72
1, 32126, Control_c, 0, 64, 71
1, 32140, Control_c, 0, 64, 69
1, 32155, Control_c, 0, 64, 63
1, 32167, Note_off_c, 0, 58, 58
1, 32170, Control_c, 0, 64, 43
1, 32185, Control_c, 0, 64, 0
1, 32210, Note_off_c, 0, 54, 43
1, 32219, Note_off_c, 0, 61, 49
1, 32228, Note_off_c, 0, 66, 45
1, 32229, Note_off_c, 0, 70, 42
1, 32815, Control_c, 0, 64, 38
1, 32830, Control_c, 0, 64, 52
1, 32845, Control_c, 0, 64, 61
1, 32860, Control_c, 0, 64, 64
1, 32874, Control_c, 0, 64, 67
1, 32878, Note_on_c, 0, 71, 39
1, 32886, Note_on_c, 0, 63, 32
1, 32889, Control_c, 0, 64, 70
1, 32890, Note_on_c, 0, 47, 33
1, 32892, Note_on_c, 0, 51, 17
1, 32899, Note_on_c, 0, 56, 24
1, 32904, Control_c, 0, 64, 72
1, 32919, Control_c, 0, 64, 73
1, 32934, Control_c, 0, 64, 74
1, 32943, Note_on_c, 0, 68, 11
1, 32963, Control_c, 0, 64, 73
1, 32978, Control_c, 0, 64, 73
1, 32993, Control_c, 0, 64, 71
1, 33008, Control_c, 0, 64, 66
1, 33024, Control_c, 0, 64, 58
1, 33038, Control_c, 0, 64, 30
1, 33042, Note_off_c, 0, 47, 38
1, 33047, Note_off_c, 0, 68, 34
1, 33053, Control_c, 0, 64, 0
1, 33058, Note_off_c, 0, 51, 47
1, 33059, Note_off_c, 0, 56, 41
1, 33066, Note_off_c, 0, 63, 39
1, 33082, Note_off_c, 0, 71, 37
1, 33724, Note_on_c, 0, 68, 51
1, 33739, Note_on_c, 0, 61, 33
1, 33748, Note_on_c, 0, 49, 33
1, 33752, Note_on_c, 0, 65, 28
1, 33772, Control_c, 0, 64, 42
1, 33786, Control_c, 0, 64, 59
1, 33801, Control_c, 0, 64, 64
1, 33816, Control_c, 0, 64, 66
1, 33831, Control_c, 0, 64, 70
1, 33846, Control_c, 0, 64, 74
1, 33861, Control_c, 0, 64, 79
1, 33876, Control_c, 0, 64, 82
1, 33890, Control_c, 0, 64, 85
1, 33905, Control_c, 0, 64, 87
1, 33910, Note_off_c, 0, 61, 34
1, 33920, Control_c, 0, 64, 89
1, 33930, Note_off_c, 0, 65, 41
1, 33934, Control_c, 0, 64, 91
1, 33949, Control_c, 0, 64, 92
1, 33964, Control_c, 0, 64, 93
1, 33976, Note_off_c, 0, 68, 38
1, 33979, Control_c, 0, 64, 94
1, 34112, Note_on_c, 0, 70, 75
1, 34119, Note_on_c, 0, 66, 58
1, 34147, Note_on_c, 0, 42, 47
1, 34149, Control_c, 0, 64, 92
1, 34150, Note_on_c, 0, 61, 43
1, 34164, Control_c, 0, 64, 86
1, 34179, Control_c, 0, 64, 76
1, 34194, Control_c, 0, 64, 63
1, 34196, Note_off_c, 0, 49, 39
1, 34208, Control_c, 0, 64, 0
1, 34253, Control_c, 0, 64, 54
1, 34268, Control_c, 0, 64, 66
1, 34282, Control_c, 0, 64, 73
1, 34297, Control_c, 0, 64, 81
1, 34310, Note_off_c, 0, 61, 55
1, 34312, Control_c, 0, 64, 88
1, 34327, Control_c, 0, 64, 90
1, 34337, Note_off_c, 0, 70, 59
1, 34341, Control_c, 0, 64, 91
1, 34356, Control_c, 0, 64, 92
1, 34371, Control_c, 0, 64, 92
1, 34396, Note_off_c, 0, 42, 37
1, 34490, Control_c, 0, 64, 92
1, 34505, Control_c, 0, 64, 91
1, 34512, Note_off_c, 0, 66, 37
1, 34520, Control_c, 0, 64, 88
1, 34529, Note_on_c, 0, 71, 70
1, 34534, Control_c, 0, 64, 84
1, 34547, Note_on_c, 0, 61, 55
1, 34549, Control_c, 0, 64, 77
1, 34552, Note_on_c, 0, 68, 53
1, 34558, Note_on_c, 0, 37, 50
1, 34564, Control_c, 0, 64, 67
1, 34580, Control_c, 0, 64, 0
1, 34699, Control_c, 0, 64, 57
1, 34714, Control_c, 0, 64, 69
1, 34729, Control_c, 0, 64, 77
1, 34744, Control_c, 0, 64, 84
1, 34758, Control_c, 0, 64, 87
1, 34773, Control_c, 0, 64, 88
1, 34788, Control_c, 0, 64, 89
1, 34798, Note_off_c, 0, 61, 55
1, 34803, Control_c, 0, 64, 90
1, 34811, Note_off_c, 0, 37, 59
1, 34818, Control_c, 0, 64, 91
1, 34824, Note_off_c, 0, 71, 59
1, 34832, Control_c, 0, 64, 91
1, 34837, Note_off_c, 0, 68, 20
1, 34913, Control_c, 0, 64, 91
1, 34928, Control_c, 0, 64, 90
1, 34943, Control_c, 0, 64, 88
1, 34958, Control_c, 0, 64, 84
1, 34973, Control_c, 0, 64, 78
1, 34988, Control_c, 0, 64, 69
1, 35003, Control_c, 0, 64, 51
1, 35018, Control_c, 0, 64, 0
1, 35574, Note_on_c, 0, 71, 44
1, 35578, Note_on_c, 0, 61, 39
1, 35580, Control_c, 0, 64, 56
1, 35581, Note_on_c, 0, 56, 27
1, 35581, Note_on_c, 0, 59, 29
1, 35587, Note_on_c, 0, 68, 29
1, 35592, Note_on_c, 0, 53, 29
1, 35595, Control_c, 0, 64, 66
1, 35610, Control_c, 0, 64, 70
1, 35625, Control_c, 0, 64, 72
1, 35647, Control_c, 0, 64, 73
1, 35677, Control_c, 0, 64, 72
1, 35691, Control_c, 0, 64, 72
1, 35706, Control_c, 0, 64, 69
1, 35721, Control_c, 0, 64, 65
1, 35736, Control_c, 0, 64, 56
1, 35744, Note_off_c, 0, 61, 49
1, 35751, Control_c, 0, 64, 0
1, 35777, Note_off_c, 0, 68, 40
1, 35780, Note_off_c, 0, 56, 40
1, 35781, Note_off_c, 0, 53, 43
1, 35784, Note_off_c, 0, 71, 38
1, 35798, Note_off_c, 0, 59, 44
1, 36486, Note_on_c, 0, 73, 44
1, 36502, Note_on_c, 0, 65, 31
1, 36506, Note_on_c, 0, 61, 27
1, 36512, Note_on_c, 0, 59, 20
1, 36515, Note_on_c, 0, 56, 32
1, 36529, Note_on_c, 0, 68, 19
1, 36530, Note_on_c, 0, 53, 7
1, 36541, Note_on_c, 0, 49, 28
1, 36636, Note_off_c, 0, 61, 44
1, 36642, Note_off_c, 0, 49, 47
1, 36657, Note_off_c, 0, 65, 55
1, 36662, Note_off_c, 0, 53, 43
1, 36662, Note_off_c, 0, 68, 33
1, 36671, Note_off_c, 0, 56, 38
1, 36675, Note_off_c, 0, 73, 35
1, 36678, Note_off_c, 0, 59, 41
1, 37383, Note_on_c, 0, 70, 38
1, 37400, Note_on_c, 0, 66, 30
1, 37403, Note_on_c, 0, 61, 26
1, 37409, Note_on_c, 0, 58, 23
1, 37412, Note_on_c, 0, 54, 14
1, 37426, Control_c, 0, 64, 10
1, 37440, Control_c, 0, 64, 48
1, 37455, Control_c, 0, 64, 60
1, 37470, Control_c, 0, 64, 65
1, 37485, Control_c, 0, 64, 68
1, 37500, Control_c, 0, 64, 72
1, 37514, Control_c, 0, 64, 77
1, 37529, Control_c, 0, 64, 81
1, 37544, Control_c, 0, 64, 83
1, 37556, Note_off_c, 0, 70, 58
1, 37558, Control_c, 0, 64, 84
1, 37568, Note_off_c, 0, 61, 37
1, 37573, Control_c, 0, 64, 86
1, 37588, Control_c, 0, 64, 87
1, 37594, Note_off_c, 0, 66, 38
1, 37602, Note_off_c, 0, 54, 38
1, 37603, Control_c, 0, 64, 87
1, 37647, Note_off_c, 0, 58, 39
1, 37796, Control_c, 0, 64, 87
1, 37841, Control_c, 0, 64, 86
1, 37847, Note_on_c, 0, 73, 48
1, 37856, Control_c, 0, 64, 85
1, 37878, Control_c, 0, 64, 84
1, 37893, Control_c, 0, 64, 82
1, 37908, Control_c, 0, 64, 80
1, 37923, Control_c, 0, 64, 76
1, 37934, Note_off_c, 0, 73, 60
1, 37937, Control_c, 0, 64, 72
1, 37940, Note_on_c, 0, 75, 59
1, 37952, Control_c, 0, 64, 64
1, 37967, Control_c, 0, 64, 32
1, 37981, Control_c, 0, 64, 0
1, 38027, Note_on_c, 0, 73, 59
1, 38041, Note_off_c, 0, 75, 57
1, 38106, Note_on_c, 0, 70, 66
1, 38106, Note_off_c, 0, 73, 62
1, 38177, Note_off_c, 0, 70, 58
1, 38220, Note_on_c, 0, 78, 73
1, 38606, Note_on_c, 0, 70, 50
1, 38619, Note_on_c, 0, 66, 40
1, 38687, Control_c, 0, 64, 52
1, 38702, Control_c, 0, 64, 64
1, 38717, Control_c, 0, 64, 69
1, 38731, Control_c, 0, 64, 73
1, 38746, Control_c, 0, 64, 78
1, 38761, Control_c, 0, 64, 83
1, 38776, Control_c, 0, 64, 86
1, 38791, Control_c, 0, 64, 88
1, 38805, Control_c, 0, 64, 90
1, 38820, Control_c, 0, 64, 92
1, 38835, Control_c, 0, 64, 93
1, 38865, Control_c, 0, 64, 93
1, 38887, Note_off_c, 0, 66, 43
1, 39041, Note_off_c, 0, 70, 38
1, 39048, Note_on_c, 0, 71, 64
1, 39065, Note_on_c, 0, 68, 47
1, 39072, Control_c, 0, 64, 93
1, 39087, Control_c, 0, 64, 91
1, 39102, Control_c, 0, 64, 86
1, 39116, Control_c, 0, 64, 78
1, 39131, Control_c, 0, 64, 68
1, 39146, Control_c, 0, 64, 0
1, 39298, Note_off_c, 0, 78, 56
1, 39342, Note_on_c, 0, 77, 40
1, 39405, Note_off_c, 0, 77, 61
1, 39416, Note_on_c, 0, 78, 56
1, 39482, Note_off_c, 0, 78, 62
1, 39490, Note_on_c, 0, 77, 59
1, 39568, Note_off_c, 0, 77, 62
1, 39573, Note_on_c, 0, 75, 61
1, 39602, Note_off_c, 0, 75, 66
1, 39644, Note_on_c, 0, 77, 61
1, 39722, Note_off_c, 0, 77, 61
1, 39724, Note_on_c, 0, 78, 80
1, 39775, Note_off_c, 0, 78, 65
1, 39832, Note_on_c, 0, 80, 83
1, 39865, Control_c, 0, 64, 61
1, 39879, Control_c, 0, 64, 68
1, 39894, Control_c, 0, 64, 73
1, 39909, Control_c, 0, 64, 78
1, 39924, Control_c, 0, 64, 84
1, 39939, Control_c, 0, 64, 88
1, 39953, Control_c, 0, 64, 94
1, 39968, Control_c, 0, 64, 98
1, 39983, Control_c, 0, 64, 102
1, 39998, Control_c, 0, 64, 105
1, 40013, Control_c, 0, 64, 107
1, 40027, Control_c, 0, 64, 108
1, 40029, Note_off_c, 0, 71, 54
1, 40042, Control_c, 0, 64, 108
1, 40077, Note_off_c, 0, 68, 42
1, 40213, Control_c, 0, 64, 108
1, 40228, Control_c, 0, 64, 107
1, 40243, Control_c, 0, 64, 106
1, 40255, Note_on_c, 0, 77, 69
1, 40258, Control_c, 0, 64, 104
1, 40264, Note_on_c, 0, 68, 46
1, 40273, Control_c, 0, 64, 100
1, 40273, Note_on_c, 0, 71, 61
1, 40281, Note_off_c, 0, 80, 56
1, 40288, Control_c, 0, 64, 95
1, 40302, Control_c, 0, 64, 89
1, 40317, Control_c, 0, 64, 80
1, 40332, Control_c, 0, 64, 70
1, 40347, Control_c, 0, 64, 16
1, 40362, Control_c, 0, 64, 0
1, 40421, Control_c, 0, 64, 58
1, 40436, Control_c, 0, 64, 66
1, 40450, Control_c, 0, 64, 70
1, 40465, Control_c, 0, 64, 74
1, 40480, Control_c, 0, 64, 78
1, 40495, Control_c, 0, 64, 79
1, 40509, Note_off_c, 0, 68, 53
1, 40509, Control_c, 0, 64, 80
1, 40524, Control_c, 0, 64, 80
1, 40673, Control_c, 0, 64, 80
1, 40677, Note_on_c, 0, 70, 48
1, 40681, Note_off_c, 0, 77, 49
1, 40684, Note_on_c, 0, 74, 45
1, 40687, Control_c, 0, 64, 78
1, 40690, Note_on_c, 0, 68, 40
1, 40702, Control_c, 0, 64, 76
1, 40717, Control_c, 0, 64, 72
1, 40723, Note_off_c, 0, 71, 36
1, 40732, Control_c, 0, 64, 66
1, 40747, Control_c, 0, 64, 47
1, 40762, Control_c, 0, 64, 0
1, 40790, Note_on_c, 0, 83, 45
1, 40795, Note_off_c, 0, 74, 55
1, 40872, Control_c, 0, 64, 21
1, 40887, Note_off_c, 0, 83, 52
1, 40887, Control_c, 0, 64, 60
1, 40893, Note_on_c, 0, 82, 47
1, 40902, Control_c, 0, 64, 65
1, 40917, Control_c, 0, 64, 67
1, 40932, Control_c, 0, 64, 68
1, 40947, Control_c, 0, 64, 70
1, 40962, Note_on_c, 0, 74, 36
1, 40962, Control_c, 0, 64, 71
1, 40965, Note_off_c, 0, 82, 51
1, 40976, Control_c, 0, 64, 72
1, 40986, Note_off_c, 0, 74, 59
1, 40991, Control_c, 0, 64, 72
1, 41036, Control_c, 0, 64, 72
1, 41051, Control_c, 0, 64, 70
1, 41057, Note_on_c, 0, 74, 51
1, 41066, Control_c, 0, 64, 65
1, 41081, Control_c, 0, 64, 47
1, 41096, Control_c, 0, 64, 0
1, 41111, Note_off_c, 0, 74, 56
1, 41121, Note_on_c, 0, 83, 51
1, 41125, Control_c, 0, 64, 45
1, 41140, Control_c, 0, 64, 59
1, 41155, Control_c, 0, 64, 64
1, 41170, Control_c, 0, 64, 68
1, 41185, Control_c, 0, 64, 71
1, 41199, Control_c, 0, 64, 74
1, 41213, Note_on_c, 0, 82, 61
1, 41214, Control_c, 0, 64, 76
1, 41229, Control_c, 0, 64, 77
1, 41244, Control_c, 0, 64, 77
1, 41248, Note_off_c, 0, 83, 36
1, 41288, Note_off_c, 0, 82, 53
1, 41291, Note_on_c, 0, 74, 57
1, 41314, Note_off_c, 0, 74, 65
1, 41333, Control_c, 0, 64, 77
1, 41348, Control_c, 0, 64, 76
1, 41363, Control_c, 0, 64, 74
1, 41378, Control_c, 0, 64, 69
1, 41393, Control_c, 0, 64, 48
1, 41396, Note_on_c, 0, 74, 58
1, 41403, Note_on_c, 0, 65, 44
1, 41407, Control_c, 0, 64, 0
1, 41461, Note_off_c, 0, 74, 60
1, 41467, Note_on_c, 0, 83, 54
1, 41481, Control_c, 0, 64, 30
1, 41496, Control_c, 0, 64, 63
1, 41511, Control_c, 0, 64, 67
1, 41525, Control_c, 0, 64, 70
1, 41535, Note_off_c, 0, 65, 64
1, 41537, Note_off_c, 0, 70, 56
1, 41540, Control_c, 0, 64, 73
1, 41551, Note_on_c, 0, 82, 62
1, 41555, Control_c, 0, 64, 75
1, 41559, Note_off_c, 0, 68, 57
1, 41569, Note_off_c, 0, 83, 47
1, 41570, Control_c, 0, 64, 76
1, 41629, Note_off_c, 0, 82, 56
1, 41635, Note_on_c, 0, 74, 58
1, 41656, Note_off_c, 0, 74, 66
1, 41696, Control_c, 0, 64, 76
1, 41711, Control_c, 0, 64, 75
1, 41725, Control_c, 0, 64, 72
1, 41730, Note_on_c, 0, 74, 68
1, 41733, Note_on_c, 0, 68, 62
1, 41740, Control_c, 0, 64, 67
1, 41747, Note_on_c, 0, 58, 39
1, 41749, Note_on_c, 0, 65, 45
1, 41755, Control_c, 0, 64, 51
1, 41770, Control_c, 0, 64, 0
1, 41803, Note_off_c, 0, 74, 54
1, 41806, Note_on_c, 0, 83, 54
1, 41860, Control_c, 0, 64, 19
1, 41868, Note_off_c, 0, 58, 51
1, 41875, Control_c, 0, 64, 63
1, 41890, Control_c, 0, 64, 67
1, 41899, Note_on_c, 0, 82, 61
1, 41904, Control_c, 0, 64, 69
1, 41919, Control_c, 0, 64, 70
1, 41930, Note_off_c, 0, 83, 48
1, 41934, Control_c, 0, 64, 72
1, 41948, Control_c, 0, 64, 73
1, 41963, Control_c, 0, 64, 74
1, 41973, Note_off_c, 0, 82, 51
1, 41978, Note_on_c, 0, 74, 52
1, 41981, Note_off_c, 0, 68, 62
1, 42027, Note_off_c, 0, 65, 59
1, 42053, Control_c, 0, 64, 73
1, 42068, Control_c, 0, 64, 70
1, 42080, Note_off_c, 0, 74, 39
1, 42080, Note_on_c, 0, 75, 57
1, 42082, Control_c, 0, 64, 66
1, 42085, Note_on_c, 0, 66, 66
1, 42097, Control_c, 0, 64, 58
1, 42100, Note_on_c, 0, 58, 42
1, 42101, Note_on_c, 0, 63, 48
1, 42112, Control_c, 0, 64, 36
1, 42127, Control_c, 0, 64, 0
1, 42166, Note_on_c, 0, 83, 52
1, 42188, Note_off_c, 0, 75, 59
1, 42193, Note_off_c, 0, 63, 60
1, 42201, Control_c, 0, 64, 24
1, 42216, Control_c, 0, 64, 62
1, 42230, Control_c, 0, 64, 66
1, 42242, Note_on_c, 0, 82, 55
1, 42245, Control_c, 0, 64, 68
1, 42258, Note_off_c, 0, 58, 63
1, 42260, Control_c, 0, 64, 70
1, 42274, Control_c, 0, 64, 72
1, 42278, Note_off_c, 0, 83, 35
1, 42289, Control_c, 0, 64, 73
1, 42304, Control_c, 0, 64, 74
1, 42319, Control_c, 0, 64, 74
1, 42329, Note_on_c, 0, 75, 51
1, 42386, Control_c, 0, 64, 74
1, 42401, Control_c, 0, 64, 73
1, 42410, Note_off_c, 0, 66, 55
1, 42413, Note_on_c, 0, 65, 68
1, 42416, Control_c, 0, 64, 70
1, 42430, Control_c, 0, 64, 64
1, 42431, Note_on_c, 0, 62, 54
1, 42431, Note_on_c, 0, 77, 57
1, 42437, Note_off_c, 0, 75, 56
1, 42440, Note_off_c, 0, 82, 26
1, 42445, Control_c, 0, 64, 0
1, 42446, Note_on_c, 0, 56, 42
1, 42514, Note_on_c, 0, 83, 57
1, 42514, Note_off_c, 0, 77, 60
1, 42548, Control_c, 0, 64, 46
1, 42559, Note_off_c, 0, 62, 59
1, 42563, Control_c, 0, 64, 64
1, 42565, Note_off_c, 0, 56, 47
1, 42578, Control_c, 0, 64, 67
1, 42594, Control_c, 0, 64, 69
1, 42603, Note_on_c, 0, 82, 57
1, 42609, Control_c, 0, 64, 71
1, 42624, Control_c, 0, 64, 73
1, 42628, Note_off_c, 0, 83, 46
1, 42639, Control_c, 0, 64, 75
1, 42653, Control_c, 0, 64, 75
1, 42688, Note_off_c, 0, 82, 55
1, 42693, Note_on_c, 0, 77, 57
1, 42757, Control_c, 0, 64, 74
1, 42771, Control_c, 0, 64, 72
1, 42774, Note_on_c, 0, 63, 66
1, 42778, Note_off_c, 0, 77, 52
1, 42786, Note_off_c, 0, 65, 61
1, 42786, Control_c, 0, 64, 67
1, 42792, Note_on_c, 0, 78, 52
1, 42801, Control_c, 0, 64, 54
1, 42803, Note_on_c, 0, 54, 44
1, 42813, Note_on_c, 0, 58, 42
1, 42816, Control_c, 0, 64, 0
1, 42872, Note_on_c, 0, 83, 44
1, 42890, Note_off_c, 0, 78, 26
1, 42905, Control_c, 0, 64, 52
1, 42920, Control_c, 0, 64, 64
1, 42935, Control_c, 0, 64, 67
1, 42944, Note_off_c, 0, 58, 52
1, 42950, Control_c, 0, 64, 70
1, 42951, Note_off_c, 0, 54, 45
1, 42953, Note_on_c, 0, 82, 57
1, 42962, Note_off_c, 0, 83, 55
1, 42965, Control_c, 0, 64, 72
1, 42974, Note_off_c, 0, 63, 62
1, 42979, Control_c, 0, 64, 74
1, 42994, Control_c, 0, 64, 75
1, 43036, Note_off_c, 0, 82, 61
1, 43048, Note_on_c, 0, 78, 50
1, 43083, Control_c, 0, 64, 75
1, 43097, Control_c, 0, 64, 72
1, 43112, Control_c, 0, 64, 65
1, 43135, Control_c, 0, 64, 28
1, 43143, Note_on_c, 0, 87, 69
1, 43145, Note_off_c, 0, 78, 60
1, 43148, Note_on_c, 0, 63, 51
1, 43150, Control_c, 0, 64, 0
1, 43158, Note_on_c, 0, 54, 40
1, 43158, Note_on_c, 0, 58, 44
1, 43209, Control_c, 0, 64, 37
1, 43224, Control_c, 0, 64, 63
1, 43227, Note_on_c, 0, 82, 63
1, 43239, Control_c, 0, 64, 67
1, 43248, Note_off_c, 0, 87, 54
1, 43252, Note_off_c, 0, 58, 63
1, 43253, Control_c, 0, 64, 71
1, 43266, Note_off_c, 0, 63, 47
1, 43268, Control_c, 0, 64, 74
1, 43278, Note_off_c, 0, 54, 53
1, 43283, Control_c, 0, 64, 77
1, 43297, Control_c, 0, 64, 78
1, 43299, Note_on_c, 0, 78, 55
1, 43312, Control_c, 0, 64, 78
1, 43374, Note_on_c, 0, 75, 56
1, 43377, Note_off_c, 0, 82, 30
1, 43417, Control_c, 0, 64, 78
1, 43425, Note_off_c, 0, 78, 58
1, 43432, Control_c, 0, 64, 76
1, 43447, Control_c, 0, 64, 72
1, 43462, Control_c, 0, 64, 63
1, 43463, Note_off_c, 0, 75, 51
1, 43471, Note_on_c, 0, 84, 76
1, 43475, Note_on_c, 0, 63, 55
1, 43476, Control_c, 0, 64, 0
1, 43478, Note_on_c, 0, 57, 60
1, 43497, Note_on_c, 0, 54, 48
1, 43556, Note_on_c, 0, 78, 66
1, 43570, Note_off_c, 0, 84, 58
1, 43580, Control_c, 0, 64, 63
1, 43594, Control_c, 0, 64, 70
1, 43609, Control_c, 0, 64, 75
1, 43624, Control_c, 0, 64, 80
1, 43627, Note_off_c, 0, 54, 57
1, 43635, Note_on_c, 0, 75, 60
1, 43639, Control_c, 0, 64, 82
1, 43654, Control_c, 0, 64, 82
1, 43665, Note_off_c, 0, 63, 54
1, 43668, Control_c, 0, 64, 83
1, 43670, Note_off_c, 0, 78, 58
1, 43723, Note_off_c, 0, 57, 55
1, 43726, Note_on_c, 0, 84, 61
1, 43749, Note_off_c, 0, 75, 36
1, 43788, Control_c, 0, 64, 82
1, 43802, Control_c, 0, 64, 81
1, 43810, Note_off_c, 0, 84, 57
1, 43817, Control_c, 0, 64, 76
1, 43819, Note_on_c, 0, 87, 61
1, 43832, Control_c, 0, 64, 67
1, 43833, Note_on_c, 0, 63, 38
1, 43835, Note_on_c, 0, 56, 42
1, 43847, Control_c, 0, 64, 0
1, 43856, Note_on_c, 0, 54, 30
1, 43905, Note_on_c, 0, 78, 56
1, 43926, Note_off_c, 0, 87, 59
1, 43928, Control_c, 0, 64, 54
1, 43943, Control_c, 0, 64, 66
1, 43957, Control_c, 0, 64, 71
1, 43972, Control_c, 0, 64, 76
1, 43987, Control_c, 0, 64, 80
1, 43992, Note_on_c, 0, 75, 54
1, 44002, Control_c, 0, 64, 82
1, 44003, Note_off_c, 0, 63, 56
1, 44011, Note_off_c, 0, 54, 33
1, 44022, Note_off_c, 0, 56, 39
1, 44022, Note_off_c, 0, 78, 45
1, 44085, Note_on_c, 0, 85, 60
1, 44108, Note_off_c, 0, 75, 54
1, 44135, Control_c, 0, 64, 81
1, 44150, Control_c, 0, 64, 79
1, 44165, Control_c, 0, 64, 72
1, 44172, Note_on_c, 0, 84, 81
1, 44180, Control_c, 0, 64, 59
1, 44188, Note_on_c, 0, 63, 63
1, 44189, Note_on_c, 0, 57, 70
1, 44192, Note_off_c, 0, 85, 61
1, 44196, Control_c, 0, 64, 0
1, 44202, Note_on_c, 0, 54, 63
1, 44252, Note_on_c, 0, 78, 72
1, 44299, Control_c, 0, 64, 49
1, 44314, Control_c, 0, 64, 64
1, 44319, Note_off_c, 0, 84, 57
1, 44329, Control_c, 0, 64, 67
1, 44343, Control_c, 0, 64, 70
1, 44351, Note_on_c, 0, 75, 62
1, 44355, Note_off_c, 0, 54, 52
1, 44358, Control_c, 0, 64, 75
1, 44373, Control_c, 0, 64, 79
1, 44384, Note_off_c, 0, 63, 57
1, 44388, Control_c, 0, 64, 80
1, 44403, Control_c, 0, 64, 80
1, 44414, Note_off_c, 0, 78, 60
1, 44432, Note_on_c, 0, 84, 74
1, 44447, Note_off_c, 0, 75, 58
1, 44488, Note_off_c, 0, 57, 53
1, 44491, Control_c, 0, 64, 79
1, 44506, Control_c, 0, 64, 76
1, 44518, Note_on_c, 0, 87, 75
1, 44521, Control_c, 0, 64, 68
1, 44533, Note_on_c, 0, 54, 34
1, 44536, Control_c, 0, 64, 0
1, 44537, Note_on_c, 0, 63, 42
1, 44545, Note_on_c, 0, 56, 49
1, 44557, Note_off_c, 0, 84, 62
1, 44599, Note_on_c, 0, 78, 63
1, 44632, Control_c, 0, 64, 61
1, 44647, Control_c, 0, 64, 69
1, 44650, Note_off_c, 0, 87, 60
1, 44662, Control_c, 0, 64, 73
1, 44676, Control_c, 0, 64, 76
1, 44691, Control_c, 0, 64, 78
1, 44705, Note_on_c, 0, 75, 59
1, 44706, Control_c, 0, 64, 79
1, 44708, Note_off_c, 0, 54, 40
1, 44716, Note_off_c, 0, 63, 43
1, 44719, Note_off_c, 0, 78, 57
1, 44722, Note_off_c, 0, 56, 54
1, 44780, Note_off_c, 0, 75, 61
1, 44784, Note_on_c, 0, 85, 67
1, 44825, Control_c, 0, 64, 77
1, 44840, Control_c, 0, 64, 73
1, 44855, Control_c, 0, 64, 64
1, 44869, Control_c, 0, 64, 0
1, 44870, Note_on_c, 0, 84, 80
1, 44885, Note_on_c, 0, 57, 65
1, 44885, Note_on_c, 0, 63, 64
1, 44888, Note_on_c, 0, 54, 57
1, 44897, Note_off_c, 0, 85, 64
1, 44959, Note_on_c, 0, 78, 71
1, 44973, Control_c, 0, 64, 58
1, 44988, Control_c, 0, 64, 68
1, 45004, Control_c, 0, 64, 72
1, 45005, Note_off_c, 0, 84, 57
1, 45019, Control_c, 0, 64, 77
1, 45024, Note_off_c, 0, 54, 53
1, 45034, Control_c, 0, 64, 79
1, 45048, Control_c, 0, 64, 79
1, 45048, Note_on_c, 0, 75, 64
1, 45063, Control_c, 0, 64, 80
1, 45086, Note_off_c, 0, 63, 38
1, 45102, Note_off_c, 0, 78, 59
1, 45118, Note_off_c, 0, 75, 57
1, 45128, Note_off_c, 0, 57, 53
1, 45129, Note_on_c, 0, 84, 71
1, 45152, Control_c, 0, 64, 79
1, 45166, Control_c, 0, 64, 79
1, 45181, Control_c, 0, 64, 77
1, 45196, Control_c, 0, 64, 73
1, 45211, Control_c, 0, 64, 66
1, 45219, Note_off_c, 0, 84, 60
1, 45221, Note_on_c, 0, 87, 65
1, 45226, Control_c, 0, 64, 0
1, 45237, Note_on_c, 0, 54, 22
1, 45250, Note_on_c, 0, 56, 33
1, 45251, Note_on_c, 0, 63, 31
1, 45296, Note_on_c, 0, 78, 60
1, 45315, Note_off_c, 0, 87, 54
1, 45396, Note_off_c, 0, 56, 44
1, 45400, Note_off_c, 0, 63, 40
1, 45402, Note_on_c, 0, 75, 48
1, 45413, Note_off_c, 0, 54, 38
1, 45413, Note_off_c, 0, 78, 56
1, 45463, Note_off_c, 0, 75, 58
1, 45465, Note_on_c, 0, 87, 52
1, 45549, Note_off_c, 0, 87, 57
1, 45569, Note_on_c, 0, 80, 53
1, 45649, Note_on_c, 0, 78, 51
1, 45649, Note_off_c, 0, 80, 58
1, 45713, Note_off_c, 0, 78, 54
1, 45728, Note_on_c, 0, 75, 35
1, 45775, Note_off_c, 0, 75, 52
1, 45797, Note_on_c, 0, 80, 37
1, 45898, Note_on_c, 0, 82, 45
1, 45908, Note_on_c, 0, 63, 28
1, 45912, Note_on_c, 0, 58, 23
1, 45926, Note_off_c, 0, 80, 41
1, 45928, Note_on_c, 0, 54, 13
1, 45930, Control_c, 0, 64, 60
1, 45945, Control_c, 0, 64, 66
1, 45960, Control_c, 0, 64, 69
1, 45975, Control_c, 0, 64, 75
1, 45986, Note_on_c, 0, 78, 48
1, 45989, Control_c, 0, 64, 81
1, 46000, Note_off_c, 0, 82, 36
1, 46004, Control_c, 0, 64, 85
1, 46019, Control_c, 0, 64, 87
1, 46034, Control_c, 0, 64, 88
1, 46049, Control_c, 0, 64, 90
1, 46063, Note_off_c, 0, 78, 51
1, 46063, Control_c, 0, 64, 91
1, 46069, Note_off_c, 0, 58, 45
1, 46074, Note_off_c, 0, 63, 39
1, 46080, Note_on_c, 0, 75, 30
1, 46080, Note_off_c, 0, 54, 39
1, 46093, Control_c, 0, 64, 91
1, 46125, Note_off_c, 0, 75, 51
1, 46158, Note_on_c, 0, 82, 41
1, 46175, Control_c, 0, 64, 91
1, 46204, Control_c, 0, 64, 90
1, 46219, Control_c, 0, 64, 89
1, 46234, Control_c, 0, 64, 86
1, 46245, Note_on_c, 0, 63, 38
1, 46249, Control_c, 0, 64, 81
1, 46255, Note_on_c, 0, 54, 25
1, 46255, Note_on_c, 0, 84, 50
1, 46259, Note_on_c, 0, 57, 42
1, 46259, Note_off_c, 0, 82, 37
1, 46263, Control_c, 0, 64, 74
1, 46278, Control_c, 0, 64, 61
1, 46293, Control_c, 0, 64, 0
1, 46339, Note_on_c, 0, 78, 54
1, 46352, Control_c, 0, 64, 35
1, 46367, Control_c, 0, 64, 62
1, 46381, Note_off_c, 0, 84, 37
1, 46382, Control_c, 0, 64, 66
1, 46396, Control_c, 0, 64, 68
1, 46411, Control_c, 0, 64, 70
1, 46426, Control_c, 0, 64, 73
1, 46432, Note_off_c, 0, 54, 39
1, 46433, Note_on_c, 0, 75, 34
1, 46441, Control_c, 0, 64, 75
1, 46450, Note_off_c, 0, 78, 60
1, 46455, Control_c, 0, 64, 76
1, 46461, Note_off_c, 0, 63, 38
1, 46500, Note_on_c, 0, 84, 59
1, 46527, Note_off_c, 0, 57, 36
1, 46528, Note_off_c, 0, 75, 39
1, 46560, Control_c, 0, 64, 75
1, 46575, Control_c, 0, 64, 71
1, 46578, Note_off_c, 0, 84, 58
1, 46588, Note_on_c, 0, 87, 61
1, 46590, Control_c, 0, 64, 64
1, 46605, Control_c, 0, 64, 0
1, 46610, Note_on_c, 0, 63, 29
1, 46613, Note_on_c, 0, 56, 26
1, 46625, Note_on_c, 0, 54, 3
1, 46669, Note_off_c, 0, 87, 61
1, 46671, Note_on_c, 0, 78, 57
1, 46694, Control_c, 0, 64, 56
1, 46709, Control_c, 0, 64, 65
1, 46724, Control_c, 0, 64, 68
1, 46738, Control_c, 0, 64, 71
1, 46753, Control_c, 0, 64, 75
1, 46760, Note_off_c, 0, 54, 38
1, 46765, Note_on_c, 0, 75, 47
1, 46765, Note_off_c, 0, 78, 54
1, 46768, Control_c, 0, 64, 76
1, 46783, Control_c, 0, 64, 77
1, 46809, Note_off_c, 0, 63, 39
1, 46824, Note_on_c, 0, 85, 59
1, 46830, Note_off_c, 0, 75, 52
1, 46876, Note_off_c, 0, 56, 40
1, 46894, Control_c, 0, 64, 76
1, 46909, Control_c, 0, 64, 75
1, 46920, Note_off_c, 0, 85, 57
1, 46923, Control_c, 0, 64, 70
1, 46924, Note_on_c, 0, 84, 68
1, 46938, Control_c, 0, 64, 49
1, 46942, Note_on_c, 0, 57, 49
1, 46943, Note_on_c, 0, 63, 43
1, 46953, Control_c, 0, 64, 0
1, 46998, Poly_aftertouch_c, 0, 54, 127
1, 47007, Note_on_c, 0, 78, 67
1, 47013, Control_c, 0, 64, 13
1, 47027, Control_c, 0, 64, 62
1, 47028, Note_off_c, 0, 84, 56
1, 47042, Control_c, 0, 64, 68
1, 47057, Control_c, 0, 64, 73
1, 47071, Control_c, 0, 64, 78
1, 47086, Control_c, 0, 64, 80
1, 47099, Note_on_c, 0, 75, 64
1, 47116, Control_c, 0, 64, 80
1, 47132, Poly_aftertouch_c, 0, 54, 0
1, 47143, Note_off_c, 0, 78, 60
1, 47150, Note_off_c, 0, 63, 37
1, 47174, Note_on_c, 0, 84, 72
1, 47192, Note_off_c, 0, 75, 57
1, 47205, Control_c, 0, 64, 80
1, 47224, Note_off_c, 0, 57, 54
1, 47234, Control_c, 0, 64, 77
1, 47249, Control_c, 0, 64, 70
1, 47257, Note_on_c, 0, 87, 79
1, 47263, Control_c, 0, 64, 53
1, 47274, Note_on_c, 0, 54, 34
1, 47274, Note_on_c, 0, 63, 45
1, 47278, Control_c, 0, 64, 0
1, 47279, Note_on_c, 0, 56, 47
1, 47303, Note_off_c, 0, 84, 54
1, 47334, Note_on_c, 0, 78, 61
1, 47336, Control_c, 0, 64, 61
1, 47351, Control_c, 0, 64, 66
1, 47366, Control_c, 0, 64, 71
1, 47382, Control_c, 0, 64, 76
1, 47383, Note_off_c, 0, 87, 60
1, 47397, Control_c, 0, 64, 79
1, 47412, Control_c, 0, 64, 81
1, 47429, Note_on_c, 0, 75, 65
1, 47441, Control_c, 0, 64, 81
1, 47457, Note_off_c, 0, 54, 39
1, 47466, Note_off_c, 0, 78, 56
1, 47482, Note_off_c, 0, 63, 38
1, 47502, Note_on_c, 0, 85, 72
1, 47507, Note_off_c, 0, 75, 64
1, 47515, Control_c, 0, 64, 81
1, 47545, Control_c, 0, 64, 80
1, 47559, Control_c, 0, 64, 76
1, 47560, Note_off_c, 0, 56, 35
1, 47574, Control_c, 0, 64, 68
1, 47588, Note_on_c, 0, 84, 88
1, 47589, Control_c, 0, 64, 0
1, 47604, Note_on_c, 0, 57, 66
1, 47614, Note_on_c, 0, 63, 56
1, 47626, Note_on_c, 0, 54, 45
1, 47626, Note_off_c, 0, 85, 65
1, 47675, Note_on_c, 0, 78, 75
1, 47686, Control_c, 0, 64, 40
1, 47700, Control_c, 0, 64, 65
1, 47715, Control_c, 0, 64, 72
1, 47730, Control_c, 0, 64, 78
1, 47731, Note_off_c, 0, 84, 58
1, 47745, Control_c, 0, 64, 82
1, 47760, Control_c, 0, 64, 83
1, 47762, Note_off_c, 0, 54, 57
1, 47764, Note_on_c, 0, 75, 73
1, 47774, Control_c, 0, 64, 83
1, 47784, Note_off_c, 0, 63, 55
1, 47789, Control_c, 0, 64, 84
1, 47811, Note_off_c, 0, 78, 63
1, 47840, Note_on_c, 0, 84, 80
1, 47846, Note_off_c, 0, 75, 63
1, 47875, Note_off_c, 0, 57, 55
1, 47931, Note_on_c, 0, 87, 88
1, 47937, Control_c, 0, 64, 83
1, 47952, Note_on_c, 0, 54, 43
1, 47952, Control_c, 0, 64, 82
1, 47955, Note_off_c, 0, 84, 62
1, 47956, Note_on_c, 0, 63, 50
1, 47959, Note_on_c, 0, 56, 56
1, 47967, Control_c, 0, 64, 80
1, 47982, Control_c, 0, 64, 75
1, 47997, Control_c, 0, 64, 66
1, 48011, Note_on_c, 0, 78, 74
1, 48012, Control_c, 0, 64, 0
1, 48055, Note_off_c, 0, 87, 64
1, 48095, Note_on_c, 0, 75, 64
1, 48110, Note_off_c, 0, 78, 55
1, 48152, Note_off_c, 0, 75, 65
1, 48153, Note_off_c, 0, 56, 55
1, 48166, Note_off_c, 0, 63, 36
1, 48171, Note_on_c, 0, 87, 74
1, 48178, Note_off_c, 0, 54, 53
1, 48250, Note_on_c, 0, 80, 77
1, 48251, Note_off_c, 0, 87, 62
1, 48325, Note_off_c, 0, 80, 61
1, 48325, Note_on_c, 0, 78, 71
1, 48397, Note_off_c, 0, 78, 62
1, 48408, Note_on_c, 0, 75, 54
1, 48462, Note_off_c, 0, 75, 59
1, 48481, Note_on_c, 0, 80, 58
1, 48571, Note_on_c, 0, 82, 62
1, 48574, Note_off_c, 0, 80, 60
1, 48584, Note_on_c, 0, 58, 36
1, 48599, Note_on_c, 0, 63, 25
1, 48613, Control_c, 0, 64, 60
1, 48628, Control_c, 0, 64, 66
1, 48642, Poly_aftertouch_c, 0, 54, 127
1, 48642, Control_c, 0, 64, 70
1, 48650, Note_off_c, 0, 82, 59
1, 48651, Note_on_c, 0, 78, 58
1, 48657, Control_c, 0, 64, 77
1, 48672, Control_c, 0, 64, 81
1, 48687, Control_c, 0, 64, 84
1, 48702, Control_c, 0, 64, 85
1, 48716, Control_c, 0, 64, 86
1, 48725, Note_off_c, 0, 78, 58
1, 48726, Note_off_c, 0, 58, 52
1, 48729, Note_on_c, 0, 75, 54
1, 48731, Control_c, 0, 64, 86
1, 48745, Note_off_c, 0, 63, 44
1, 48746, Control_c, 0, 64, 87
1, 48748, Poly_aftertouch_c, 0, 54, 0
1, 48768, Note_off_c, 0, 75, 55
1, 48810, Note_on_c, 0, 82, 55
1, 48834, Control_c, 0, 64, 86
1, 48849, Control_c, 0, 64, 85
1, 48864, Control_c, 0, 64, 82
1, 48879, Control_c, 0, 64, 77
1, 48894, Control_c, 0, 64, 69
1, 48909, Note_on_c, 0, 84, 53
1, 48909, Control_c, 0, 64, 41
1, 48918, Note_on_c, 0, 54, 25
1, 48922, Note_on_c, 0, 63, 33
1, 48924, Control_c, 0, 64, 0
1, 48929, Note_on_c, 0, 56, 36
1, 48958, Note_off_c, 0, 82, 33
1, 48968, Control_c, 0, 64, 51
1, 48984, Control_c, 0, 64, 63
1, 48995, Note_off_c, 0, 84, 57
1, 48997, Note_on_c, 0, 80, 55
1, 48999, Control_c, 0, 64, 66
1, 49013, Control_c, 0, 64, 69
1, 49028, Control_c, 0, 64, 72
1, 49043, Control_c, 0, 64, 75
1, 49058, Control_c, 0, 64, 77
1, 49072, Note_off_c, 0, 54, 41
1, 49073, Control_c, 0, 64, 77
1, 49100, Note_off_c, 0, 80, 50
1, 49111, Note_on_c, 0, 75, 42
1, 49127, Note_off_c, 0, 63, 39
1, 49140, Note_off_c, 0, 56, 35
1, 49200, Note_on_c, 0, 84, 48
1, 49210, Note_off_c, 0, 75, 28
1, 49243, Control_c, 0, 64, 77
1, 49287, Control_c, 0, 64, 76
1, 49302, Control_c, 0, 64, 75
1, 49303, Note_on_c, 0, 56, 17
1, 49306, Note_on_c, 0, 85, 53
1, 49308, Note_off_c, 0, 84, 37
1, 49315, Note_on_c, 0, 53, 37
1, 49315, Note_on_c, 0, 61, 39
1, 49317, Control_c, 0, 64, 75
1, 49332, Control_c, 0, 64, 72
1, 49347, Control_c, 0, 64, 65
1, 49362, Control_c, 0, 64, 0
1, 49377, Note_off_c, 0, 85, 65
1, 49402, Note_on_c, 0, 80, 52
1, 49436, Control_c, 0, 64, 21
1, 49451, Control_c, 0, 64, 59
1, 49465, Control_c, 0, 64, 64
1, 49480, Control_c, 0, 64, 66
1, 49490, Note_off_c, 0, 80, 53
1, 49495, Control_c, 0, 64, 68
1, 49501, Note_on_c, 0, 73, 38
1, 49510, Control_c, 0, 64, 70
1, 49511, Note_off_c, 0, 61, 49
1, 49522, Note_off_c, 0, 53, 40
1, 49525, Control_c, 0, 64, 72
1, 49533, Note_off_c, 0, 56, 39
1, 49539, Control_c, 0, 64, 73
1, 49554, Control_c, 0, 64, 74
1, 49569, Control_c, 0, 64, 74
1, 49579, Note_on_c, 0, 85, 40
1, 49599, Control_c, 0, 64, 75
1, 49605, Note_off_c, 0, 73, 0
1, 49608, Note_off_c, 0, 85, 44
1, 49628, Control_c, 0, 64, 75
1, 49642, Poly_aftertouch_c, 0, 73, 0
1, 49657, Control_c, 0, 64, 76
1, 49669, Note_on_c, 0, 85, 53
1, 49684, Note_on_c, 0, 53, 23
1, 49687, Control_c, 0, 64, 76
1, 49692, Note_on_c, 0, 56, 40
1, 49699, Note_on_c, 0, 61, 33
1, 49702, Control_c, 0, 64, 77
1, 49717, Control_c, 0, 64, 78
1, 49720, Note_off_c, 0, 85, 60
1, 49731, Control_c, 0, 64, 79
1, 49736, Note_on_c, 0, 80, 56
1, 49746, Control_c, 0, 64, 79
1, 49761, Control_c, 0, 64, 80
1, 49776, Control_c, 0, 64, 81
1, 49792, Control_c, 0, 64, 82
1, 49807, Control_c, 0, 64, 82
1, 49808, Note_off_c, 0, 56, 0
1, 49827, Note_off_c, 0, 61, 36
1, 49833, Note_off_c, 0, 53, 41
1, 49851, Note_on_c, 0, 73, 40
1, 49852, Poly_aftertouch_c, 0, 56, 0
1, 49868, Note_off_c, 0, 80, 39
1, 49916, Note_on_c, 0, 85, 59
1, 49946, Note_off_c, 0, 85, 57
1, 49977, Note_off_c, 0, 73, 33
1, 50033, Note_on_c, 0, 85, 55
1, 50049, Note_on_c, 0, 53, 42
1, 50056, Note_on_c, 0, 61, 40
1, 50066, Note_on_c, 0, 56, 35
1, 50090, Note_off_c, 0, 85, 52
1, 50110, Note_on_c, 0, 80, 58
1, 50122, Note_off_c, 0, 61, 52
1, 50146, Note_off_c, 0, 53, 59
1, 50149, Note_off_c, 0, 56, 38
1, 50209, Note_off_c, 0, 80, 60
1, 50213, Note_on_c, 0, 73, 51
1, 50274, Control_c, 0, 64, 82
1, 50279, Note_on_c, 0, 85, 59
1, 50290, Note_off_c, 0, 73, 55
1, 50313, Note_off_c, 0, 85, 62
1, 50361, Control_c, 0, 64, 81
1, 50376, Control_c, 0, 64, 81
1, 50384, Note_on_c, 0, 85, 62
1, 50405, Note_on_c, 0, 52, 49
1, 50406, Control_c, 0, 64, 80
1, 50414, Note_on_c, 0, 61, 40
1, 50421, Note_on_c, 0, 55, 45
1, 50421, Control_c, 0, 64, 79
1, 50435, Control_c, 0, 64, 78
1, 50450, Control_c, 0, 64, 77
1, 50457, Note_on_c, 0, 79, 60
1, 50461, Note_off_c, 0, 85, 62
1, 50465, Control_c, 0, 64, 73
1, 50480, Control_c, 0, 64, 64
1, 50495, Control_c, 0, 64, 0
1, 50554, Control_c, 0, 64, 52
1, 50569, Note_on_c, 0, 73, 50
1, 50569, Control_c, 0, 64, 63
1, 50584, Control_c, 0, 64, 66
1, 50599, Control_c, 0, 64, 69
1, 50614, Note_off_c, 0, 79, 54
1, 50622, Control_c, 0, 64, 71
1, 50626, Note_off_c, 0, 55, 57
1, 50632, Note_off_c, 0, 52, 56
1, 50637, Control_c, 0, 64, 73
1, 50649, Note_on_c, 0, 85, 65
1, 50650, Note_off_c, 0, 61, 49
1, 50652, Control_c, 0, 64, 75
1, 50666, Control_c, 0, 64, 75
1, 50681, Note_off_c, 0, 85, 61
1, 50681, Control_c, 0, 64, 76
1, 50744, Note_off_c, 0, 73, 25
1, 50751, Note_on_c, 0, 85, 71
1, 50761, Note_on_c, 0, 61, 56
1, 50764, Note_on_c, 0, 52, 63
1, 50770, Note_on_c, 0, 55, 56
1, 50836, Note_on_c, 0, 79, 61
1, 50837, Note_off_c, 0, 85, 62
1, 50930, Note_off_c, 0, 55, 58
1, 50951, Note_on_c, 0, 73, 59
1, 50963, Note_off_c, 0, 79, 53
1, 50979, Note_off_c, 0, 52, 38
1, 50985, Note_off_c, 0, 61, 39
1, 51024, Note_on_c, 0, 85, 63
1, 51027, Note_off_c, 0, 73, 50
1, 51036, Control_c, 0, 64, 75
1, 51042, Note_off_c, 0, 85, 63
1, 51106, Note_on_c, 0, 85, 82
1, 51125, Note_on_c, 0, 61, 70
1, 51126, Note_on_c, 0, 52, 64
1, 51133, Note_on_c, 0, 55, 63
1, 51205, Note_on_c, 0, 79, 65
1, 51211, Note_off_c, 0, 85, 62
1, 51270, Note_off_c, 0, 55, 61
1, 51273, Note_off_c, 0, 61, 53
1, 51300, Note_off_c, 0, 52, 34
1, 51302, Note_off_c, 0, 79, 57
1, 51303, Note_on_c, 0, 73, 66
1, 51374, Note_on_c, 0, 85, 73
1, 51383, Note_off_c, 0, 73, 59
1, 51407, Note_off_c, 0, 85, 62
1, 51464, Note_on_c, 0, 85, 85
1, 51474, Note_on_c, 0, 52, 66
1, 51477, Note_on_c, 0, 61, 74
1, 51480, Note_on_c, 0, 55, 73
1, 51530, Note_off_c, 0, 61, 62
1, 51542, Note_on_c, 0, 79, 75
1, 51554, Note_off_c, 0, 55, 63
1, 51562, Note_off_c, 0, 52, 64
1, 51575, Note_off_c, 0, 85, 63
1, 51637, Note_on_c, 0, 73, 66
1, 51650, Note_off_c, 0, 79, 58
1, 51717, Note_on_c, 0, 85, 82
1, 51764, Note_off_c, 0, 85, 62
1, 51771, Control_c, 0, 64, 75
1, 51786, Control_c, 0, 64, 74
1, 51801, Control_c, 0, 64, 73
1, 51815, Control_c, 0, 64, 68
1, 51825, Note_on_c, 0, 85, 83
1, 51826, Note_on_c, 0, 55, 74
1, 51827, Note_on_c, 0, 45, 69
1, 51830, Control_c, 0, 64, 61
1, 51836, Note_on_c, 0, 52, 69
1, 51839, Note_on_c, 0, 49, 69
1, 51845, Control_c, 0, 64, 0
1, 51884, Note_off_c, 0, 73, 38
1, 51911, Note_on_c, 0, 79, 69
1, 51940, Note_off_c, 0, 85, 63
1, 51949, Control_c, 0, 64, 32
1, 51964, Control_c, 0, 64, 63
1, 51979, Control_c, 0, 64, 67
1, 51994, Control_c, 0, 64, 71
1, 52007, Note_on_c, 0, 73, 64
1, 52008, Control_c, 0, 64, 75
1, 52018, Note_off_c, 0, 52, 62
1, 52021, Note_off_c, 0, 49, 57
1, 52023, Control_c, 0, 64, 78
1, 52027, Note_off_c, 0, 45, 55
1, 52027, Note_off_c, 0, 79, 61
1, 52033, Note_off_c, 0, 55, 52
1, 52038, Control_c, 0, 64, 79
1, 52052, Control_c, 0, 64, 79
1, 52092, Note_on_c, 0, 85, 77
1, 52130, Note_off_c, 0, 85, 58
1, 52179, Control_c, 0, 64, 79
1, 52186, Note_on_c, 0, 85, 89
1, 52189, Note_off_c, 0, 73, 36
1, 52193, Note_on_c, 0, 45, 66
1, 52194, Control_c, 0, 64, 76
1, 52195, Note_on_c, 0, 55, 79
1, 52203, Note_on_c, 0, 52, 77
1, 52207, Note_on_c, 0, 49, 70
1, 52209, Control_c, 0, 64, 69
1, 52224, Control_c, 0, 64, 48
1, 52238, Control_c, 0, 64, 0
1, 52271, Note_on_c, 0, 79, 72
1, 52304, Note_off_c, 0, 85, 62
1, 52313, Control_c, 0, 64, 40
1, 52328, Control_c, 0, 64, 65
1, 52343, Control_c, 0, 64, 70
1, 52357, Control_c, 0, 64, 76
1, 52371, Note_off_c, 0, 55, 51
1, 52372, Control_c, 0, 64, 79
1, 52373, Note_on_c, 0, 73, 71
1, 52377, Note_off_c, 0, 79, 60
1, 52379, Note_off_c, 0, 52, 59
1, 52382, Note_off_c, 0, 49, 54
1, 52387, Control_c, 0, 64, 81
1, 52400, Note_off_c, 0, 45, 39
1, 52402, Control_c, 0, 64, 81
1, 52453, Note_on_c, 0, 85, 82
1, 52486, Note_off_c, 0, 73, 47
1, 52501, Note_off_c, 0, 85, 63
1, 52535, Control_c, 0, 64, 79
1, 52549, Note_on_c, 0, 85, 83
1, 52550, Control_c, 0, 64, 75
1, 52564, Control_c, 0, 64, 64
1, 52565, Note_on_c, 0, 55, 79
1, 52566, Note_on_c, 0, 45, 73
1, 52567, Note_on_c, 0, 52, 72
1, 52575, Note_on_c, 0, 49, 71
1, 52579, Control_c, 0, 64, 0
1, 52636, Note_on_c, 0, 79, 75
1, 52668, Control_c, 0, 64, 48
1, 52683, Control_c, 0, 64, 67
1, 52686, Note_off_c, 0, 85, 60
1, 52697, Control_c, 0, 64, 71
1, 52712, Control_c, 0, 64, 75
1, 52727, Control_c, 0, 64, 77
1, 52728, Note_on_c, 0, 73, 76
1, 52728, Note_off_c, 0, 55, 57
1, 52738, Note_off_c, 0, 45, 56
1, 52742, Control_c, 0, 64, 78
1, 52744, Note_off_c, 0, 79, 60
1, 52745, Note_off_c, 0, 52, 60
1, 52748, Note_off_c, 0, 49, 59
1, 52772, Control_c, 0, 64, 79
1, 52800, Note_off_c, 0, 73, 64
1, 52814, Note_on_c, 0, 85, 80
1, 52831, Control_c, 0, 64, 78
1, 52846, Control_c, 0, 64, 76
1, 52861, Note_off_c, 0, 85, 63
1, 52868, Control_c, 0, 64, 70
1, 52882, Control_c, 0, 64, 0
1, 52909, Note_on_c, 0, 85, 85
1, 52925, Note_on_c, 0, 45, 76
1, 52930, Note_on_c, 0, 55, 81
1, 52936, Note_on_c, 0, 52, 76
1, 52938, Note_on_c, 0, 49, 71
1, 52972, Control_c, 0, 64, 35
1, 52987, Control_c, 0, 64, 66
1, 52996, Note_on_c, 0, 79, 79
1, 53002, Control_c, 0, 64, 74
1, 53017, Control_c, 0, 64, 82
1, 53021, Note_off_c, 0, 55, 62
1, 53028, Note_off_c, 0, 45, 63
1, 53032, Control_c, 0, 64, 87
1, 53044, Note_off_c, 0, 49, 62
1, 53044, Note_off_c, 0, 52, 66
1, 53047, Control_c, 0, 64, 88
1, 53055, Note_off_c, 0, 85, 63
1, 53061, Control_c, 0, 64, 88
1, 53097, Note_on_c, 0, 73, 75
1, 53111, Note_off_c, 0, 79, 59
1, 53177, Note_on_c, 0, 85, 88
1, 53247, Note_off_c, 0, 85, 63
1, 53254, Control_c, 0, 64, 87
1, 53269, Control_c, 0, 64, 84
1, 53284, Control_c, 0, 64, 78
1, 53295, Note_off_c, 0, 73, 63
1, 53299, Control_c, 0, 64, 68
1, 53306, Note_on_c, 0, 85, 85
1, 53313, Control_c, 0, 64, 0
1, 53320, Note_on_c, 0, 65, 78
1, 53324, Note_on_c, 0, 56, 69
1, 53406, Note_on_c, 0, 78, 74
1, 53419, Note_on_c, 0, 63, 74
1, 53420, Note_off_c, 0, 65, 64
1, 53431, Control_c, 0, 64, 45
1, 53446, Control_c, 0, 64, 69
1, 53461, Control_c, 0, 64, 76
1, 53473, Note_off_c, 0, 85, 63
1, 53476, Control_c, 0, 64, 82
1, 53491, Control_c, 0, 64, 83
1, 53499, Note_off_c, 0, 63, 64
1, 53500, Note_on_c, 0, 65, 74
1, 53504, Note_on_c, 0, 73, 72
1, 53509, Note_off_c, 0, 78, 60
1, 53568, Note_on_c, 0, 63, 68
1, 53568, Note_off_c, 0, 73, 57
1, 53574, Note_off_c, 0, 65, 66
1, 53576, Note_on_c, 0, 85, 83
1, 53622, Note_off_c, 0, 85, 60
1, 53631, Control_c, 0, 64, 81
1, 53639, Note_off_c, 0, 63, 62
1, 53639, Note_on_c, 0, 65, 73
1, 53646, Control_c, 0, 64, 75
1, 53661, Control_c, 0, 64, 65
1, 53666, Note_on_c, 0, 85, 80
1, 53676, Control_c, 0, 64, 0
1, 53699, Note_on_c, 0, 63, 68
1, 53709, Note_off_c, 0, 65, 63
1, 53735, Control_c, 0, 64, 59
1, 53740, Note_on_c, 0, 78, 81
1, 53750, Control_c, 0, 64, 67
1, 53765, Control_c, 0, 64, 72
1, 53769, Note_on_c, 0, 65, 73
1, 53774, Note_off_c, 0, 63, 64
1, 53781, Control_c, 0, 64, 77
1, 53790, Note_off_c, 0, 85, 63
1, 53796, Control_c, 0, 64, 79
1, 53810, Control_c, 0, 64, 79
1, 53825, Control_c, 0, 64, 80
1, 53827, Note_on_c, 0, 63, 72
1, 53828, Note_on_c, 0, 73, 67
1, 53843, Note_off_c, 0, 65, 63
1, 53845, Note_off_c, 0, 78, 60
1, 53882, Note_off_c, 0, 73, 61
1, 53886, Note_on_c, 0, 85, 83
1, 53892, Note_on_c, 0, 65, 55
1, 53900, Note_off_c, 0, 63, 64
1, 53914, Control_c, 0, 64, 79
1, 53929, Control_c, 0, 64, 77
1, 53931, Note_off_c, 0, 85, 66
1, 53944, Control_c, 0, 64, 71
1, 53955, Note_on_c, 0, 63, 68
1, 53958, Control_c, 0, 64, 54
1, 53962, Note_on_c, 0, 84, 90
1, 53964, Note_off_c, 0, 65, 65
1, 53973, Control_c, 0, 64, 0
1, 54024, Note_on_c, 0, 65, 61
1, 54026, Note_off_c, 0, 63, 65
1, 54045, Note_on_c, 0, 78, 77
1, 54063, Control_c, 0, 64, 59
1, 54078, Note_on_c, 0, 63, 62
1, 54078, Control_c, 0, 64, 67
1, 54086, Note_off_c, 0, 65, 66
1, 54093, Control_c, 0, 64, 71
1, 54107, Control_c, 0, 64, 74
1, 54122, Control_c, 0, 64, 76
1, 54129, Note_on_c, 0, 72, 76
1, 54132, Note_off_c, 0, 84, 56
1, 54137, Control_c, 0, 64, 76
1, 54143, Note_off_c, 0, 78, 60
1, 54158, Note_off_c, 0, 63, 65
1, 54158, Note_on_c, 0, 65, 67
1, 54203, Note_on_c, 0, 63, 56
1, 54218, Note_on_c, 0, 84, 89
1, 54221, Note_off_c, 0, 72, 51
1, 54224, Note_off_c, 0, 65, 64
1, 54255, Note_off_c, 0, 84, 64
1, 54288, Note_off_c, 0, 63, 64
1, 54300, Control_c, 0, 64, 76
1, 54301, Note_on_c, 0, 65, 67
1, 54307, Note_on_c, 0, 84, 85
1, 54315, Control_c, 0, 64, 75
1, 54329, Control_c, 0, 64, 74
1, 54344, Control_c, 0, 64, 73
1, 54367, Control_c, 0, 64, 71
1, 54371, Note_on_c, 0, 63, 65
1, 54382, Note_off_c, 0, 65, 64
1, 54382, Control_c, 0, 64, 68
1, 54397, Control_c, 0, 64, 64
1, 54411, Note_on_c, 0, 78, 84
1, 54411, Control_c, 0, 64, 52
1, 54426, Control_c, 0, 64, 26
1, 54441, Control_c, 0, 64, 0
1, 54493, Note_off_c, 0, 84, 55
1, 54500, Note_off_c, 0, 63, 63
1, 54500, Control_c, 0, 64, 48
1, 54515, Control_c, 0, 64, 64
1, 54516, Note_on_c, 0, 72, 84
1, 54522, Note_on_c, 0, 61, 63
1, 54529, Control_c, 0, 64, 69
1, 54536, Note_off_c, 0, 78, 64
1, 54544, Control_c, 0, 64, 72
1, 54559, Control_c, 0, 64, 75
1, 54574, Control_c, 0, 64, 77
1, 54590, Control_c, 0, 64, 78
1, 54595, Note_off_c, 0, 56, 0
1, 54621, Note_off_c, 0, 61, 61
1, 54626, Poly_aftertouch_c, 0, 56, 0
1, 54628, Note_on_c, 0, 84, 90
1, 54634, Note_on_c, 0, 63, 67
1, 54649, Note_off_c, 0, 72, 64
1, 54697, Note_off_c, 0, 63, 62
1, 54716, Note_off_c, 0, 84, 62
1, 54811, Control_c, 0, 64, 77
1, 54826, Control_c, 0, 64, 77
1, 54829, Note_on_c, 0, 85, 93
1, 54840, Note_on_c, 0, 73, 71
1, 54841, Control_c, 0, 64, 76
1, 54841, Note_on_c, 0, 77, 72
1, 54847, Note_on_c, 0, 61, 63
1, 54851, Note_on_c, 0, 49, 62
1, 54856, Control_c, 0, 64, 74
1, 54870, Control_c, 0, 64, 71
1, 54885, Control_c, 0, 64, 64
1, 54900, Control_c, 0, 64, 37
1, 54915, Control_c, 0, 64, 0
1, 55267, Note_off_c, 0, 85, 60
1, 55287, Note_off_c, 0, 77, 60
1, 55292, Note_off_c, 0, 49, 58
1, 55311, Note_off_c, 0, 73, 46
1, 55319, Note_off_c, 0, 61, 52
1, 55730, Note_on_c, 0, 61, 41
1, 55738, Note_on_c, 0, 77, 43
1, 55857, Note_on_c, 0, 63, 44
1, 55872, Note_on_c, 0, 73, 54
1, 55883, Note_off_c, 0, 77, 52
1, 55975, Note_off_c, 0, 63, 54
1, 55976, Note_on_c, 0, 68, 66
1, 55986, Note_off_c, 0, 61, 0
1, 55986, Note_off_c, 0, 73, 59
1, 55993, Note_on_c, 0, 65, 43
1, 56024, Poly_aftertouch_c, 0, 61, 127
1, 56086, Poly_aftertouch_c, 0, 61, 0
1, 56086, Note_off_c, 0, 65, 57
1, 56095, Note_on_c, 0, 70, 62
1, 56108, Note_on_c, 0, 66, 54
1, 56114, Note_off_c, 0, 68, 49
1, 56187, Note_off_c, 0, 66, 65
1, 56194, Note_off_c, 0, 70, 60
1, 56203, Note_on_c, 0, 73, 63
1, 56212, Note_on_c, 0, 61, 45
1, 56295, Note_off_c, 0, 61, 58
1, 56304, Note_on_c, 0, 70, 70
1, 56309, Note_on_c, 0, 66, 53
1, 56324, Note_off_c, 0, 73, 51
1, 56367, Note_off_c, 0, 66, 59
1, 56399, Note_off_c, 0, 70, 63
1, 56406, Note_on_c, 0, 68, 75
1, 56417, Note_on_c, 0, 65, 56
1, 56430, Note_on_c, 0, 61, 44
1, 56520, Note_on_c, 0, 73, 75
1, 56522, Note_off_c, 0, 68, 60
1, 56635, Note_on_c, 0, 75, 75
1, 56641, Note_off_c, 0, 65, 62
1, 56666, Note_off_c, 0, 73, 61
1, 56731, Note_off_c, 0, 61, 63
1, 56743, Note_on_c, 0, 77, 79
1, 56749, Note_off_c, 0, 75, 66
1, 56841, Note_on_c, 0, 73, 75
1, 56864, Note_off_c, 0, 77, 55
1, 56952, Note_on_c, 0, 80, 76
1, 57013, Note_off_c, 0, 73, 57
1, 57071, Note_on_c, 0, 77, 73
1, 57088, Note_on_c, 0, 49, 51
1, 57102, Note_off_c, 0, 80, 62
1, 57174, Note_on_c, 0, 73, 66
1, 57182, Note_on_c, 0, 51, 55
1, 57190, Note_off_c, 0, 77, 56
1, 57205, Note_off_c, 0, 49, 51
1, 57264, Note_off_c, 0, 51, 63
1, 57282, Note_off_c, 0, 73, 61
1, 57282, Note_on_c, 0, 53, 59
1, 57283, Note_on_c, 0, 68, 62
1, 57388, Note_off_c, 0, 53, 63
1, 57405, Note_on_c, 0, 66, 60
1, 57407, Note_off_c, 0, 68, 61
1, 57415, Note_on_c, 0, 54, 42
1, 57437, Note_on_c, 0, 44, 41
1, 57467, Note_off_c, 0, 54, 57
1, 57502, Note_off_c, 0, 66, 60
1, 57512, Note_on_c, 0, 51, 40
1, 57515, Note_on_c, 0, 63, 54
1, 57586, Note_off_c, 0, 44, 35
1, 57588, Note_off_c, 0, 51, 55
1, 57625, Note_off_c, 0, 63, 58
1, 57628, Note_on_c, 0, 56, 36
1, 57633, Note_on_c, 0, 68, 51
1, 57727, Note_off_c, 0, 56, 35
1, 57762, Note_on_c, 0, 53, 23
1, 57768, Note_off_c, 0, 68, 38
1, 57784, Note_on_c, 0, 65, 34
1, 57804, Poly_aftertouch_c, 0, 49, 127
1, 57851, Control_c, 0, 64, 51
1, 57866, Control_c, 0, 64, 63
1, 57881, Control_c, 0, 64, 67
1, 57896, Control_c, 0, 64, 71
1, 57911, Control_c, 0, 64, 74
1, 57926, Control_c, 0, 64, 77
1, 57941, Control_c, 0, 64, 79
1, 57956, Control_c, 0, 64, 80
1, 57970, Control_c, 0, 64, 81
1, 57985, Control_c, 0, 64, 82
1, 58000, Control_c, 0, 64, 82
1, 58015, Control_c, 0, 64, 83
1, 58022, Note_off_c, 0, 65, 30
1, 58044, Control_c, 0, 64, 83
1, 58064, Note_off_c, 0, 53, 41
1, 58072, Poly_aftertouch_c, 0, 49, 0
1, 58170, Control_c, 0, 64, 83
1, 58185, Control_c, 0, 64, 82
1, 58200, Control_c, 0, 64, 81
1, 58214, Note_on_c, 0, 68, 40
1, 58215, Control_c, 0, 64, 79
1, 58229, Control_c, 0, 64, 76
1, 58244, Control_c, 0, 64, 73
1, 58259, Control_c, 0, 64, 68
1, 58274, Control_c, 0, 64, 64
1, 58289, Control_c, 0, 64, 56
1, 58303, Control_c, 0, 64, 52
1, 58333, Control_c, 0, 64, 51
1, 58348, Control_c, 0, 64, 45
1, 58362, Note_on_c, 0, 73, 47
1, 58363, Control_c, 0, 64, 0
1, 58367, Note_off_c, 0, 68, 56
1, 58471, Note_off_c, 0, 73, 61
1, 58483, Note_on_c, 0, 75, 51
1, 58604, Note_on_c, 0, 77, 50
1, 58629, Note_on_c, 0, 61, 30
1, 58630, Note_off_c, 0, 75, 37
1, 58717, Note_off_c, 0, 77, 54
1, 58719, Note_on_c, 0, 73, 51
1, 58742, Note_on_c, 0, 63, 42
1, 58799, Note_off_c, 0, 73, 63
1, 58819, Note_off_c, 0, 63, 62
1, 58830, Note_on_c, 0, 68, 61
1, 58853, Note_off_c, 0, 61, 0
1, 58858, Note_on_c, 0, 65, 40
1, 58890, Poly_aftertouch_c, 0, 61, 127
1, 58941, Note_off_c, 0, 65, 40
1, 58942, Note_off_c, 0, 68, 57
1, 58945, Note_on_c, 0, 70, 54
1, 58945, Poly_aftertouch_c, 0, 61, 0
1, 58974, Note_on_c, 0, 66, 45
1, 59023, Note_off_c, 0, 66, 54
1, 59047, Note_on_c, 0, 73, 59
1, 59052, Note_off_c, 0, 70, 62
1, 59064, Note_on_c, 0, 61, 42
1, 59133, Note_off_c, 0, 61, 52
1, 59147, Note_on_c, 0, 70, 51
1, 59157, Note_on_c, 0, 66, 44
1, 59165, Note_off_c, 0, 73, 49
1, 59244, Note_off_c, 0, 70, 64
1, 59255, Note_off_c, 0, 66, 44
1, 59263, Note_on_c, 0, 68, 59
1, 59284, Note_on_c, 0, 65, 33
1, 59305, Note_on_c, 0, 61, 25
1, 59361, Note_off_c, 0, 68, 56
1, 59387, Note_on_c, 0, 73, 53
1, 59482, Note_on_c, 0, 75, 60
1, 59485, Note_off_c, 0, 65, 53
1, 59492, Note_off_c, 0, 61, 50
1, 59493, Note_off_c, 0, 73, 57
1, 59580, Note_off_c, 0, 75, 63
1, 59601, Note_on_c, 0, 77, 60
1, 59689, Note_off_c, 0, 77, 60
1, 59712, Note_on_c, 0, 73, 54
1, 59814, Note_on_c, 0, 80, 62
1, 59830, Note_off_c, 0, 73, 62
1, 59992, Note_on_c, 0, 74, 85
1, 60011, Note_on_c, 0, 58, 60
1, 60011, Note_off_c, 0, 80, 61
1, 60013, Note_on_c, 0, 68, 68
1, 60017, Note_on_c, 0, 65, 55
1, 60051, Control_c, 0, 64, 54
1, 60066, Control_c, 0, 64, 66
1, 60081, Control_c, 0, 64, 73
1, 60096, Control_c, 0, 64, 80
1, 60111, Control_c, 0, 64, 86
1, 60126, Control_c, 0, 64, 89
1, 60140, Control_c, 0, 64, 92
1, 60141, Note_off_c, 0, 65, 63
1, 60155, Control_c, 0, 64, 94
1, 60171, Control_c, 0, 64, 96
1, 60186, Control_c, 0, 64, 98
1, 60200, Control_c, 0, 64, 99
1, 60215, Control_c, 0, 64, 100
1, 60230, Control_c, 0, 64, 101
1, 60245, Control_c, 0, 64, 102
1, 60260, Control_c, 0, 64, 103
1, 60275, Control_c, 0, 64, 103
1, 60289, Control_c, 0, 64, 104
1, 60304, Control_c, 0, 64, 104
1, 60308, Note_off_c, 0, 68, 54
1, 60319, Control_c, 0, 64, 105
1, 60356, Control_c, 0, 64, 105
1, 60445, Control_c, 0, 64, 105
1, 60471, Note_on_c, 0, 75, 74
1, 60488, Note_on_c, 0, 51, 49
1, 60490, Note_on_c, 0, 63, 45
1, 60490, Control_c, 0, 64, 104
1, 60490, Note_on_c, 0, 66, 53
1, 60504, Control_c, 0, 64, 102
1, 60507, Note_off_c, 0, 74, 60
1, 60519, Control_c, 0, 64, 100
1, 60519, Note_off_c, 0, 58, 64
1, 60534, Control_c, 0, 64, 95
1, 60549, Control_c, 0, 64, 92
1, 60564, Control_c, 0, 64, 88
1, 60578, Control_c, 0, 64, 81
1, 60593, Control_c, 0, 64, 69
1, 60608, Control_c, 0, 64, 0
1, 60659, Note_off_c, 0, 66, 64
1, 60665, Note_off_c, 0, 63, 63
1, 60677, Note_off_c, 0, 51, 60
1, 60677, Note_off_c, 0, 75, 62
1, 61035, Note_on_c, 0, 72, 86
1, 61054, Note_on_c, 0, 66, 68
1, 61058, Note_on_c, 0, 56, 60
1, 61059, Note_on_c, 0, 63, 54
1, 61105, Control_c, 0, 64, 34
1, 61120, Control_c, 0, 64, 60
1, 61134, Control_c, 0, 64, 66
1, 61149, Control_c, 0, 64, 72
1, 61164, Control_c, 0, 64, 79
1, 61179, Control_c, 0, 64, 85
1, 61193, Control_c, 0, 64, 89
1, 61208, Control_c, 0, 64, 92
1, 61223, Control_c, 0, 64, 94
1, 61238, Control_c, 0, 64, 97
1, 61253, Control_c, 0, 64, 99
1, 61268, Control_c, 0, 64, 101
1, 61282, Control_c, 0, 64, 102
1, 61297, Control_c, 0, 64, 104
1, 61312, Control_c, 0, 64, 104
1, 61327, Control_c, 0, 64, 105
1, 61357, Note_off_c, 0, 63, 58
1, 61372, Control_c, 0, 64, 105
1, 61435, Note_off_c, 0, 66, 53
1, 61505, Control_c, 0, 64, 105
1, 61549, Control_c, 0, 64, 104
1, 61563, Control_c, 0, 64, 103
1, 61578, Control_c, 0, 64, 101
1, 61584, Note_off_c, 0, 56, 60
1, 61593, Control_c, 0, 64, 100
1, 61608, Control_c, 0, 64, 97
1, 61613, Note_off_c, 0, 72, 62
1, 61623, Control_c, 0, 64, 93
1, 61637, Control_c, 0, 64, 89
1, 61652, Control_c, 0, 64, 84
1, 61667, Control_c, 0, 64, 79
1, 61682, Control_c, 0, 64, 74
1, 61697, Control_c, 0, 64, 68
1, 61712, Control_c, 0, 64, 58
1, 61727, Control_c, 0, 64, 0
1, 62065, Note_on_c, 0, 66, 42
1, 62069, Note_on_c, 0, 51, 26
1, 62072, Note_on_c, 0, 54, 27
1, 62073, Note_on_c, 0, 44, 26
1, 62126, Note_off_c, 0, 66, 63
1, 62141, Note_on_c, 0, 68, 53
1, 62204, Note_off_c, 0, 68, 62
1, 62217, Note_on_c, 0, 66, 55
1, 62281, Note_off_c, 0, 66, 65
1, 62299, Note_on_c, 0, 65, 58
1, 62368, Note_off_c, 0, 65, 60
1, 62384, Note_on_c, 0, 66, 54
1, 62444, Note_off_c, 0, 66, 57
1, 62454, Note_on_c, 0, 75, 55
1, 62543, Note_on_c, 0, 73, 51
1, 62545, Note_off_c, 0, 75, 59
1, 62597, Note_off_c, 0, 73, 61
1, 62622, Note_on_c, 0, 72, 50
1, 62690, Note_off_c, 0, 54, 40
1, 62706, Note_on_c, 0, 49, 33
1, 62709, Note_off_c, 0, 72, 52
1, 62710, Note_off_c, 0, 51, 35
1, 62711, Note_on_c, 0, 73, 55
1, 62713, Note_on_c, 0, 53, 30
1, 62721, Control_c, 0, 64, 55
1, 62736, Control_c, 0, 64, 63
1, 62751, Control_c, 0, 64, 65
1, 62765, Control_c, 0, 64, 68
1, 62768, Note_off_c, 0, 44, 38
1, 62779, Note_off_c, 0, 73, 51
1, 62780, Control_c, 0, 64, 71
1, 62795, Control_c, 0, 64, 76
1, 62799, Note_on_c, 0, 68, 51
1, 62810, Control_c, 0, 64, 81
1, 62824, Control_c, 0, 64, 84
1, 62839, Control_c, 0, 64, 85
1, 62854, Control_c, 0, 64, 87
1, 62859, Note_off_c, 0, 68, 63
1, 62869, Control_c, 0, 64, 88
1, 62880, Note_on_c, 0, 73, 68
1, 62884, Control_c, 0, 64, 90
1, 62898, Control_c, 0, 64, 90
1, 62904, Note_off_c, 0, 73, 68
1, 62955, Note_on_c, 0, 77, 70
1, 62970, Note_off_c, 0, 53, 42
1, 62994, Note_off_c, 0, 49, 49
1, 63015, Note_off_c, 0, 77, 46
1, 63021, Note_on_c, 0, 80, 77
1, 63095, Note_off_c, 0, 80, 64
1, 63097, Note_on_c, 0, 85, 77
1, 63165, Note_on_c, 0, 89, 80
1, 63172, Note_off_c, 0, 85, 66
1, 63180, Control_c, 0, 64, 90
1, 63224, Control_c, 0, 64, 89
1, 63239, Control_c, 0, 64, 89
1, 63241, Note_on_c, 0, 87, 88
1, 63254, Control_c, 0, 64, 88
1, 63269, Control_c, 0, 64, 84
1, 63272, Note_off_c, 0, 89, 64
1, 63283, Control_c, 0, 64, 76
1, 63298, Control_c, 0, 64, 56
1, 63299, Note_off_c, 0, 87, 66
1, 63313, Control_c, 0, 64, 0
1, 63340, Note_on_c, 0, 86, 92
1, 63347, Note_on_c, 0, 70, 69
1, 63351, Note_on_c, 0, 77, 68
1, 63352, Note_on_c, 0, 80, 83
1, 63426, Control_c, 0, 64, 63
1, 63440, Control_c, 0, 64, 73
1, 63455, Control_c, 0, 64, 85
1, 63467, Note_off_c, 0, 77, 55
1, 63470, Control_c, 0, 64, 94
1, 63485, Control_c, 0, 64, 98
1, 63500, Control_c, 0, 64, 100
1, 63514, Control_c, 0, 64, 101
1, 63529, Control_c, 0, 64, 101
1, 63544, Control_c, 0, 64, 102
1, 63559, Control_c, 0, 64, 102
1, 63571, Note_off_c, 0, 86, 60
1, 63590, Note_off_c, 0, 80, 59
1, 63770, Note_on_c, 0, 87, 99
1, 63779, Note_on_c, 0, 78, 83
1, 63780, Note_on_c, 0, 63, 72
1, 63781, Control_c, 0, 64, 102
1, 63782, Note_off_c, 0, 70, 61
1, 63787, Note_on_c, 0, 75, 75
1, 63795, Control_c, 0, 64, 100
1, 63810, Control_c, 0, 64, 93
1, 63825, Control_c, 0, 64, 80
1, 63840, Control_c, 0, 64, 62
1, 63855, Control_c, 0, 64, 0
1, 63899, Note_off_c, 0, 78, 60
1, 63913, Note_off_c, 0, 75, 64
1, 63919, Note_off_c, 0, 63, 64
1, 63921, Note_off_c, 0, 87, 60
1, 64251, Note_on_c, 0, 84, 92
1, 64260, Note_on_c, 0, 78, 78
1, 64261, Note_on_c, 0, 68, 76
1, 64268, Note_on_c, 0, 75, 67
1, 64397, Control_c, 0, 64, 51
1, 64411, Control_c, 0, 64, 62
1, 64426, Control_c, 0, 64, 65
1, 64441, Control_c, 0, 64, 68
1, 64456, Control_c, 0, 64, 73
1, 64470, Control_c, 0, 64, 79
1, 64485, Control_c, 0, 64, 83
1, 64500, Control_c, 0, 64, 85
1, 64515, Control_c, 0, 64, 86
1, 64531, Control_c, 0, 64, 88
1, 64545, Control_c, 0, 64, 90
1, 64560, Control_c, 0, 64, 91
1, 64575, Control_c, 0, 64, 92
1, 64589, Control_c, 0, 64, 92
1, 64592, Note_off_c, 0, 75, 51
1, 64715, Note_off_c, 0, 68, 62
1, 64732, Note_off_c, 0, 78, 58
1, 64752, Control_c, 0, 64, 92
1, 64758, Note_off_c, 0, 84, 60
1, 64782, Control_c, 0, 64, 91
1, 64797, Control_c, 0, 64, 89
1, 64812, Control_c, 0, 64, 87
1, 64827, Control_c, 0, 64, 83
1, 64849, Control_c, 0, 64, 79
1, 64863, Control_c, 0, 64, 75
1, 64878, Control_c, 0, 64, 70
1, 64893, Control_c, 0, 64, 65
1, 64908, Control_c, 0, 64, 57
1, 64923, Control_c, 0, 64, 46
1, 64937, Control_c, 0, 64, 34
1, 64952, Control_c, 0, 64, 0
1, 65131, Note_on_c, 0, 78, 47
1, 65142, Note_on_c, 0, 63, 29
1, 65147, Note_on_c, 0, 56, 35
1, 65149, Note_on_c, 0, 66, 33
1, 65193, Note_off_c, 0, 78, 56
1, 65211, Note_on_c, 0, 80, 46
1, 65278, Note_off_c, 0, 80, 55
1, 65289, Note_on_c, 0, 78, 55
1, 65352, Note_off_c, 0, 78, 63
1, 65373, Note_on_c, 0, 77, 55
1, 65441, Note_off_c, 0, 77, 59
1, 65450, Note_on_c, 0, 78, 59
1, 65499, Note_off_c, 0, 78, 56
1, 65529, Note_on_c, 0, 87, 55
1, 65624, Note_on_c, 0, 85, 53
1, 65647, Note_off_c, 0, 87, 50
1, 65671, Note_off_c, 0, 85, 57
1, 65703, Note_on_c, 0, 84, 56
1, 65754, Note_off_c, 0, 84, 59
1, 65775, Note_off_c, 0, 66, 45
1, 65779, Note_on_c, 0, 85, 72
1, 65787, Note_on_c, 0, 65, 41
1, 65798, Note_on_c, 0, 61, 33
1, 65803, Note_off_c, 0, 63, 41
1, 65808, Note_off_c, 0, 56, 35
1, 65849, Control_c, 0, 64, 50
1, 65862, Note_off_c, 0, 85, 59
1, 65864, Note_on_c, 0, 80, 66
1, 65864, Control_c, 0, 64, 63
1, 65879, Control_c, 0, 64, 65
1, 65894, Control_c, 0, 64, 68
1, 65909, Control_c, 0, 64, 72
1, 65924, Control_c, 0, 64, 76
1, 65928, Note_off_c, 0, 80, 64
1, 65938, Note_on_c, 0, 77, 63
1, 65939, Control_c, 0, 64, 80
1, 65954, Control_c, 0, 64, 81
1, 65968, Control_c, 0, 64, 81
1, 65983, Control_c, 0, 64, 82
1, 66007, Note_off_c, 0, 65, 59
1, 66007, Note_off_c, 0, 77, 62
1, 66017, Note_on_c, 0, 73, 72
1, 66048, Note_off_c, 0, 73, 64
1, 66053, Note_off_c, 0, 61, 56
1, 66096, Note_on_c, 0, 68, 75
1, 66116, Control_c, 0, 64, 81
1, 66131, Control_c, 0, 64, 78
1, 66146, Control_c, 0, 64, 74
1, 66161, Control_c, 0, 64, 65
1, 66168, Note_off_c, 0, 68, 64
1, 66171, Note_on_c, 0, 73, 69
1, 66176, Control_c, 0, 64, 0
1, 66241, Note_on_c, 0, 68, 75
1, 66256, Note_off_c, 0, 73, 62
1, 66323, Note_off_c, 0, 68, 61
1, 66323, Note_on_c, 0, 65, 71
1, 66408, Note_on_c, 0, 44, 37
1, 66414, Note_off_c, 0, 65, 56
1, 66420, Note_on_c, 0, 54, 41
1, 66422, Note_on_c, 0, 66, 69
1, 66439, Note_on_c, 0, 51, 32
1, 66490, Note_off_c, 0, 66, 66
1, 66499, Note_on_c, 0, 68, 70
1, 66559, Note_on_c, 0, 66, 73
1, 66562, Note_off_c, 0, 68, 63
1, 66629, Note_off_c, 0, 66, 65
1, 66642, Note_on_c, 0, 65, 68
1, 66649, Note_off_c, 0, 51, 37
1, 66711, Note_off_c, 0, 65, 59
1, 66723, Note_on_c, 0, 66, 70
1, 66779, Note_off_c, 0, 66, 59
1, 66792, Note_on_c, 0, 75, 61
1, 66875, Note_on_c, 0, 73, 57
1, 66883, Note_off_c, 0, 75, 59
1, 66942, Note_off_c, 0, 73, 61
1, 66949, Note_on_c, 0, 72, 62
1, 67012, Note_off_c, 0, 72, 63
1, 67027, Note_off_c, 0, 54, 38
1, 67027, Note_on_c, 0, 73, 65
1, 67028, Note_on_c, 0, 53, 37
1, 67030, Note_on_c, 0, 49, 33
1, 67070, Note_off_c, 0, 44, 40
1, 67114, Note_off_c, 0, 73, 61
1, 67128, Note_on_c, 0, 68, 56
1, 67187, Note_off_c, 0, 68, 62
1, 67192, Note_on_c, 0, 65, 65
1, 67246, Note_off_c, 0, 65, 62
1, 67269, Note_on_c, 0, 61, 63
1, 67295, Note_off_c, 0, 61, 66
1, 67342, Note_off_c, 0, 53, 59
1, 67349, Note_on_c, 0, 56, 66
1, 67376, Note_off_c, 0, 49, 55
1, 67409, Note_off_c, 0, 56, 62
1, 67426, Note_on_c, 0, 61, 51
1, 67498, Note_off_c, 0, 61, 60
1, 67501, Note_on_c, 0, 56, 53
1, 67551, Note_off_c, 0, 56, 59
1, 67573, Note_on_c, 0, 53, 52
1, 67631, Note_off_c, 0, 53, 57
1, 67676, Note_on_c, 0, 42, 43
1, 67726, Note_off_c, 0, 42, 61
1, 67756, Note_on_c, 0, 44, 42
1, 67810, Note_off_c, 0, 44, 59
1, 67841, Note_on_c, 0, 42, 47
1, 67888, Note_off_c, 0, 42, 62
1, 67915, Note_on_c, 0, 41, 47
1, 67972, Note_off_c, 0, 41, 59
1, 68002, Note_on_c, 0, 42, 46
1, 68031, Note_on_c, 0, 56, 43
1, 68033, Note_on_c, 0, 66, 48
1, 68043, Note_on_c, 0, 63, 38
1, 68091, Note_off_c, 0, 42, 57
1, 68106, Note_on_c, 0, 44, 41
1, 68109, Poly_aftertouch_c, 0, 60, 127
1, 68187, Note_on_c, 0, 46, 57
1, 68207, Note_off_c, 0, 44, 57
1, 68249, Note_off_c, 0, 46, 62
1, 68263, Note_on_c, 0, 48, 61
1, 68336, Note_off_c, 0, 48, 59
1, 68347, Note_on_c, 0, 49, 62
1, 68404, Note_off_c, 0, 56, 50
1, 68428, Note_on_c, 0, 51, 65
1, 68451, Note_off_c, 0, 49, 58
1, 68451, Poly_aftertouch_c, 0, 60, 0
1, 68462, Note_off_c, 0, 63, 42
1, 68478, Note_off_c, 0, 66, 53
1, 68497, Note_off_c, 0, 51, 63
1, 68503, Note_on_c, 0, 53, 69
1, 68594, Note_on_c, 0, 54, 63
1, 68598, Note_off_c, 0, 53, 59
1, 68671, Note_off_c, 0, 54, 61
1, 68673, Note_on_c, 0, 56, 62
1, 68699, Note_on_c, 0, 66, 54
1, 68717, Note_on_c, 0, 63, 37
1, 68720, Note_on_c, 0, 60, 44
1, 68762, Note_off_c, 0, 56, 62
1, 68766, Note_on_c, 0, 54, 60
1, 68829, Note_off_c, 0, 54, 61
1, 68845, Note_on_c, 0, 53, 64
1, 68912, Note_off_c, 0, 53, 64
1, 68933, Note_on_c, 0, 51, 64
1, 69014, Note_off_c, 0, 51, 62
1, 69022, Note_on_c, 0, 49, 62
1, 69084, Note_off_c, 0, 49, 60
1, 69105, Note_on_c, 0, 48, 68
1, 69169, Note_off_c, 0, 48, 53
1, 69171, Note_off_c, 0, 63, 49
1, 69173, Note_off_c, 0, 66, 61
1, 69188, Note_on_c, 0, 46, 65
1, 69247, Note_off_c, 0, 46, 61
1, 69259, Note_on_c, 0, 44, 61
1, 69271, Note_off_c, 0, 60, 38
1, 69352, Note_off_c, 0, 44, 62
1, 69365, Note_on_c, 0, 46, 59
1, 69389, Note_on_c, 0, 68, 48
1, 69397, Note_on_c, 0, 60, 49
1, 69417, Note_on_c, 0, 66, 25
1, 69419, Note_off_c, 0, 46, 62
1, 69420, Note_on_c, 0, 63, 25
1, 69450, Note_on_c, 0, 44, 50
1, 69537, Note_on_c, 0, 46, 63
1, 69552, Note_off_c, 0, 44, 59
1, 69597, Note_off_c, 0, 46, 61
1, 69620, Note_on_c, 0, 48, 57
1, 69686, Note_off_c, 0, 48, 57
1, 69704, Note_on_c, 0, 49, 49
1, 69792, Note_on_c, 0, 51, 59
1, 69817, Note_off_c, 0, 49, 57
1, 69856, Note_off_c, 0, 51, 61
1, 69860, Note_off_c, 0, 63, 44
1, 69874, Note_off_c, 0, 60, 54
1, 69881, Note_on_c, 0, 53, 56
1, 69892, Note_off_c, 0, 68, 62
1, 69910, Note_off_c, 0, 66, 52
1, 69951, Note_off_c, 0, 53, 63
1, 69957, Note_on_c, 0, 54, 51
1, 70053, Note_off_c, 0, 54, 58
1, 70067, Note_on_c, 0, 68, 52
1, 70067, Note_on_c, 0, 56, 47
1, 70082, Note_on_c, 0, 61, 39
1, 70083, Note_on_c, 0, 59, 42
1, 70095, Note_on_c, 0, 65, 33
1, 70131, Note_off_c, 0, 56, 62
1, 70166, Note_on_c, 0, 54, 44
1, 70219, Note_off_c, 0, 54, 58
1, 70255, Note_on_c, 0, 53, 44
1, 70328, Note_off_c, 0, 53, 58
1, 70342, Note_on_c, 0, 54, 49
1, 70424, Note_off_c, 0, 54, 57
1, 70424, Note_off_c, 0, 68, 54
1, 70449, Note_on_c, 0, 56, 43
1, 70507, Note_off_c, 0, 61, 46
1, 70511, Note_off_c, 0, 59, 41
1, 70514, Note_off_c, 0, 56, 60
1, 70547, Note_on_c, 0, 54, 43
1, 70566, Control_c, 0, 64, 34
1, 70580, Control_c, 0, 64, 41
1, 70595, Control_c, 0, 64, 43
1, 70600, Note_off_c, 0, 54, 59
1, 70625, Control_c, 0, 64, 42
1, 70653, Note_on_c, 0, 53, 45
1, 70654, Control_c, 0, 64, 42
1, 70684, Control_c, 0, 64, 41
1, 70699, Control_c, 0, 64, 41
1, 70711, Note_off_c, 0, 53, 61
1, 70729, Control_c, 0, 64, 40
1, 70754, Note_on_c, 0, 51, 41
1, 70803, Control_c, 0, 64, 41
1, 70818, Control_c, 0, 64, 42
1, 70839, Control_c, 0, 64, 43
1, 70852, Note_off_c, 0, 51, 57
1, 70854, Control_c, 0, 64, 46
1, 70859, Note_on_c, 0, 70, 57
1, 70864, Note_on_c, 0, 58, 49
1, 70869, Control_c, 0, 64, 56
1, 70884, Control_c, 0, 64, 63
1, 70887, Note_on_c, 0, 49, 29
1, 70891, Note_off_c, 0, 65, 54
1, 70899, Control_c, 0, 64, 65
1, 70914, Control_c, 0, 64, 68
1, 70929, Control_c, 0, 64, 71
1, 70944, Control_c, 0, 64, 76
1, 70945, Note_off_c, 0, 49, 57
1, 70959, Control_c, 0, 64, 79
1, 70973, Control_c, 0, 64, 81
1, 70988, Control_c, 0, 64, 81
1, 71000, Note_on_c, 0, 47, 52
1, 71003, Control_c, 0, 64, 82
1, 71018, Control_c, 0, 64, 83
1, 71032, Control_c, 0, 64, 84
1, 71047, Control_c, 0, 64, 85
1, 71056, Note_off_c, 0, 58, 37
1, 71072, Note_off_c, 0, 47, 57
1, 71111, Note_on_c, 0, 46, 50
1, 71116, Note_off_c, 0, 70, 34
1, 71171, Note_off_c, 0, 46, 59
1, 71203, Note_on_c, 0, 71, 71
1, 71209, Note_on_c, 0, 44, 46
1, 71212, Note_on_c, 0, 59, 59
1, 71231, Note_off_c, 0, 59, 60
1, 71256, Note_off_c, 0, 71, 59
1, 71298, Control_c, 0, 64, 84
1, 71308, Note_off_c, 0, 44, 45
1, 71313, Control_c, 0, 64, 82
1, 71328, Control_c, 0, 64, 78
1, 71341, Note_on_c, 0, 73, 73
1, 71343, Control_c, 0, 64, 71
1, 71359, Control_c, 0, 64, 59
1, 71364, Note_on_c, 0, 61, 43
1, 71373, Control_c, 0, 64, 0
1, 71374, Note_on_c, 0, 42, 41
1, 71433, Control_c, 0, 64, 22
1, 71440, Note_off_c, 0, 61, 0
1, 71440, Note_on_c, 0, 61, 7
1, 71447, Control_c, 0, 64, 61
1, 71462, Control_c, 0, 64, 66
1, 71477, Control_c, 0, 64, 69
1, 71486, Note_off_c, 0, 42, 64
1, 71492, Control_c, 0, 64, 73
1, 71507, Control_c, 0, 64, 76
1, 71522, Control_c, 0, 64, 79
1, 71552, Control_c, 0, 64, 79
1, 71638, Note_off_c, 0, 61, 40
1, 71659, Note_on_c, 0, 54, 41
1, 71811, Control_c, 0, 64, 79
1, 71817, Note_on_c, 0, 66, 66
1, 71846, Note_off_c, 0, 54, 38
1, 71855, Note_on_c, 0, 58, 41
1, 71855, Control_c, 0, 64, 78
1, 71859, Note_on_c, 0, 61, 37
1, 71870, Control_c, 0, 64, 77
1, 71885, Control_c, 0, 64, 73
1, 71900, Control_c, 0, 64, 65
1, 71909, Note_off_c, 0, 73, 53
1, 71915, Control_c, 0, 64, 0
1, 71973, Control_c, 0, 64, 50
1, 71988, Control_c, 0, 64, 62
1, 72003, Note_on_c, 0, 54, 38
1, 72003, Control_c, 0, 64, 67
1, 72018, Control_c, 0, 64, 70
1, 72033, Control_c, 0, 64, 73
1, 72047, Control_c, 0, 64, 76
1, 72062, Control_c, 0, 64, 77
1, 72072, Note_off_c, 0, 58, 44
1, 72072, Note_off_c, 0, 61, 34
1, 72167, Control_c, 0, 64, 77
1, 72182, Control_c, 0, 64, 76
1, 72187, Note_on_c, 0, 65, 67
1, 72196, Control_c, 0, 64, 73
1, 72203, Note_on_c, 0, 59, 38
1, 72204, Note_on_c, 0, 61, 46
1, 72211, Control_c, 0, 64, 68
1, 72216, Note_off_c, 0, 54, 34
1, 72225, Note_off_c, 0, 66, 63
1, 72226, Control_c, 0, 64, 51
1, 72241, Control_c, 0, 64, 0
1, 72334, Note_off_c, 0, 61, 54
1, 72338, Control_c, 0, 64, 35
1, 72352, Control_c, 0, 64, 62
1, 72364, Note_on_c, 0, 54, 39
1, 72367, Control_c, 0, 64, 65
1, 72382, Control_c, 0, 64, 67
1, 72397, Control_c, 0, 64, 70
1, 72411, Control_c, 0, 64, 72
1, 72426, Control_c, 0, 64, 74
1, 72431, Note_off_c, 0, 59, 37
1, 72441, Control_c, 0, 64, 75
1, 72530, Control_c, 0, 64, 74
1, 72537, Note_on_c, 0, 66, 58
1, 72544, Control_c, 0, 64, 73
1, 72557, Note_off_c, 0, 65, 61
1, 72559, Control_c, 0, 64, 71
1, 72568, Note_on_c, 0, 58, 40
1, 72574, Control_c, 0, 64, 65
1, 72575, Note_on_c, 0, 61, 35
1, 72580, Note_off_c, 0, 54, 37
1, 72589, Control_c, 0, 64, 0
1, 72678, Control_c, 0, 64, 40
1, 72685, Note_off_c, 0, 61, 53
1, 72693, Control_c, 0, 64, 63
1, 72708, Control_c, 0, 64, 66
1, 72710, Note_on_c, 0, 54, 37
1, 72723, Control_c, 0, 64, 67
1, 72737, Control_c, 0, 64, 69
1, 72744, Note_off_c, 0, 58, 51
1, 72752, Control_c, 0, 64, 71
1, 72765, Control_c, 0, 64, 73
1, 72780, Control_c, 0, 64, 73
1, 72793, Note_off_c, 0, 66, 63
1, 72795, Control_c, 0, 64, 74
1, 72866, Note_off_c, 0, 54, 36
1, 72892, Note_on_c, 0, 71, 58
1, 72899, Control_c, 0, 64, 73
1, 72913, Note_on_c, 0, 65, 46
1, 72916, Note_on_c, 0, 61, 43
1, 72928, Control_c, 0, 64, 73
1, 72936, Note_on_c, 0, 59, 25
1, 72941, Note_on_c, 0, 56, 35
1, 72944, Control_c, 0, 64, 71
1, 72959, Control_c, 0, 64, 67
1, 72974, Control_c, 0, 64, 61
1, 72988, Control_c, 0, 64, 31
1, 73003, Control_c, 0, 64, 0
1, 73098, Note_on_c, 0, 49, 15
1, 73102, Note_off_c, 0, 56, 33
1, 73144, Control_c, 0, 64, 44
1, 73159, Control_c, 0, 64, 62
1, 73173, Control_c, 0, 64, 64
1, 73188, Control_c, 0, 64, 65
1, 73203, Control_c, 0, 64, 67
1, 73218, Control_c, 0, 64, 69
1, 73233, Control_c, 0, 64, 72
1, 73246, Note_off_c, 0, 71, 57
1, 73248, Control_c, 0, 64, 76
1, 73263, Control_c, 0, 64, 78
1, 73264, Note_off_c, 0, 49, 38
1, 73270, Note_on_c, 0, 56, 37
1, 73278, Control_c, 0, 64, 79
1, 73293, Control_c, 0, 64, 80
1, 73307, Control_c, 0, 64, 80
1, 73322, Control_c, 0, 64, 81
1, 73372, Note_off_c, 0, 61, 28
1, 73427, Note_off_c, 0, 56, 44
1, 73459, Note_off_c, 0, 59, 40
1, 73466, Note_on_c, 0, 49, 18
1, 73539, Note_off_c, 0, 49, 35
1, 73614, Note_on_c, 0, 56, 22
1, 73791, Note_off_c, 0, 56, 39
1, 73795, Note_on_c, 0, 49, 27
1, 73967, Control_c, 0, 64, 80
1, 73987, Note_on_c, 0, 68, 52
1, 73996, Control_c, 0, 64, 80
1, 74004, Note_on_c, 0, 56, 42
1, 74011, Control_c, 0, 64, 79
1, 74023, Note_on_c, 0, 61, 35
1, 74026, Note_on_c, 0, 53, 36
1, 74026, Control_c, 0, 64, 77
1, 74041, Control_c, 0, 64, 73
1, 74056, Control_c, 0, 64, 66
1, 74065, Note_off_c, 0, 49, 31
1, 74071, Control_c, 0, 64, 53
1, 74085, Control_c, 0, 64, 0
1, 74100, Control_c, 0, 64, 13
1, 74115, Control_c, 0, 64, 46
1, 74130, Control_c, 0, 64, 57
1, 74145, Control_c, 0, 64, 62
1, 74149, Note_off_c, 0, 68, 51
1, 74160, Control_c, 0, 64, 65
1, 74174, Control_c, 0, 64, 67
1, 74189, Control_c, 0, 64, 70
1, 74198, Note_on_c, 0, 49, 43
1, 74204, Control_c, 0, 64, 72
1, 74219, Control_c, 0, 64, 74
1, 74234, Control_c, 0, 64, 74
1, 74243, Note_off_c, 0, 53, 35
1, 74248, Control_c, 0, 64, 75
1, 74251, Note_off_c, 0, 56, 47
1, 74338, Control_c, 0, 64, 74
1, 74353, Control_c, 0, 64, 72
1, 74357, Note_on_c, 0, 70, 56
1, 74360, Note_on_c, 0, 58, 58
1, 74367, Control_c, 0, 64, 66
1, 74382, Control_c, 0, 64, 53
1, 74391, Note_on_c, 0, 42, 38
1, 74397, Control_c, 0, 64, 30
1, 74412, Control_c, 0, 64, 51
1, 74427, Control_c, 0, 64, 62
1, 74441, Control_c, 0, 64, 65
1, 74456, Control_c, 0, 64, 69
1, 74461, Note_off_c, 0, 61, 40
1, 74471, Control_c, 0, 64, 73
1, 74486, Control_c, 0, 64, 77
1, 74500, Control_c, 0, 64, 78
1, 74509, Note_off_c, 0, 65, 57
1, 74512, Note_off_c, 0, 58, 64
1, 74515, Control_c, 0, 64, 79
1, 74530, Note_off_c, 0, 49, 18
1, 74559, Note_on_c, 0, 54, 39
1, 74573, Note_off_c, 0, 70, 62
1, 74711, Note_on_c, 0, 63, 70
1, 74714, Note_on_c, 0, 75, 78
1, 74717, Control_c, 0, 64, 78
1, 74732, Control_c, 0, 64, 75
1, 74732, Note_on_c, 0, 47, 53
1, 74733, Note_off_c, 0, 54, 37
1, 74746, Control_c, 0, 64, 69
1, 74761, Control_c, 0, 64, 56
1, 74776, Control_c, 0, 64, 0
1, 74820, Control_c, 0, 64, 49
1, 74835, Control_c, 0, 64, 63
1, 74850, Control_c, 0, 64, 67
1, 74865, Control_c, 0, 64, 69
1, 74879, Control_c, 0, 64, 72
1, 74894, Control_c, 0, 64, 75
1, 74897, Note_on_c, 0, 54, 53
1, 74909, Control_c, 0, 64, 76
1, 74924, Control_c, 0, 64, 77
1, 74939, Control_c, 0, 64, 77
1, 74944, Note_off_c, 0, 75, 62
1, 74953, Note_off_c, 0, 63, 62
1, 75027, Control_c, 0, 64, 77
1, 75042, Control_c, 0, 64, 75
1, 75045, Note_on_c, 0, 61, 75
1, 75047, Note_on_c, 0, 73, 76
1, 75054, Note_on_c, 0, 46, 60
1, 75057, Note_off_c, 0, 54, 56
1, 75057, Control_c, 0, 64, 67
1, 75072, Control_c, 0, 64, 0
1, 75091, Note_off_c, 0, 47, 43
1, 75146, Control_c, 0, 64, 59
1, 75147, Note_off_c, 0, 42, 40
1, 75161, Control_c, 0, 64, 67
1, 75176, Control_c, 0, 64, 71
1, 75190, Control_c, 0, 64, 75
1, 75205, Control_c, 0, 64, 79
1, 75218, Note_off_c, 0, 61, 64
1, 75220, Control_c, 0, 64, 80
1, 75233, Note_on_c, 0, 54, 57
1, 75250, Control_c, 0, 64, 81
1, 75253, Note_off_c, 0, 73, 63
1, 75362, Control_c, 0, 64, 80
1, 75376, Control_c, 0, 64, 79
1, 75391, Control_c, 0, 64, 76
1, 75400, Note_on_c, 0, 78, 82
1, 75401, Note_on_c, 0, 66, 77
1, 75406, Control_c, 0, 64, 68
1, 75421, Control_c, 0, 64, 32
1, 75424, Note_on_c, 0, 42, 48
1, 75424, Note_off_c, 0, 46, 59
1, 75429, Note_on_c, 0, 51, 50
1, 75433, Note_off_c, 0, 54, 52
1, 75436, Control_c, 0, 64, 0
1, 75510, Control_c, 0, 64, 41
1, 75525, Control_c, 0, 64, 64
1, 75540, Control_c, 0, 64, 69
1, 75554, Control_c, 0, 64, 73
1, 75569, Control_c, 0, 64, 77
1, 75584, Control_c, 0, 64, 79
1, 75588, Note_on_c, 0, 54, 54
1, 75599, Control_c, 0, 64, 79
1, 75600, Note_off_c, 0, 42, 57
1, 75611, Note_off_c, 0, 51, 60
1, 75642, Note_off_c, 0, 66, 64
1, 75649, Note_off_c, 0, 78, 62
1, 75732, Control_c, 0, 64, 79
1, 75746, Control_c, 0, 64, 78
1, 75751, Note_off_c, 0, 54, 47
1, 75761, Control_c, 0, 64, 77
1, 75773, Note_on_c, 0, 77, 63
1, 75774, Note_on_c, 0, 65, 66
1, 75776, Control_c, 0, 64, 73
1, 75786, Note_on_c, 0, 49, 43
1, 75791, Control_c, 0, 64, 67
1, 75797, Note_on_c, 0, 42, 30
1, 75805, Control_c, 0, 64, 37
1, 75820, Control_c, 0, 64, 0
1, 75894, Control_c, 0, 64, 31
1, 75909, Control_c, 0, 64, 61
1, 75922, Note_off_c, 0, 42, 57
1, 75924, Control_c, 0, 64, 65
1, 75938, Control_c, 0, 64, 66
1, 75953, Control_c, 0, 64, 67
1, 75966, Note_off_c, 0, 65, 63
1, 75968, Control_c, 0, 64, 68
1, 75972, Note_off_c, 0, 77, 59
1, 75975, Note_on_c, 0, 54, 23
1, 75983, Control_c, 0, 64, 69
1, 75998, Control_c, 0, 64, 70
1, 76057, Control_c, 0, 64, 70
1, 76080, Control_c, 0, 64, 68
1, 76092, Note_off_c, 0, 49, 24
1, 76094, Control_c, 0, 64, 66
1, 76101, Note_off_c, 0, 54, 28
1, 76109, Control_c, 0, 64, 61
1, 76124, Control_c, 0, 64, 19
1, 76132, Note_on_c, 0, 47, 38
1, 76139, Control_c, 0, 64, 0
1, 76142, Note_on_c, 0, 75, 49
1, 76145, Note_on_c, 0, 63, 43
1, 76172, Note_on_c, 0, 42, 25
1, 76229, Control_c, 0, 64, 59
1, 76243, Control_c, 0, 64, 65
1, 76258, Control_c, 0, 64, 68
1, 76273, Control_c, 0, 64, 70
1, 76276, Note_off_c, 0, 42, 50
1, 76288, Control_c, 0, 64, 72
1, 76303, Control_c, 0, 64, 74
1, 76311, Note_off_c, 0, 63, 60
1, 76311, Note_off_c, 0, 75, 59
1, 76317, Control_c, 0, 64, 76
1, 76327, Note_on_c, 0, 54, 35
1, 76332, Control_c, 0, 64, 78
1, 76347, Control_c, 0, 64, 78
1, 76362, Control_c, 0, 64, 79
1, 76487, Note_on_c, 0, 42, 25
1, 76491, Note_on_c, 0, 61, 40
1, 76495, Control_c, 0, 64, 77
1, 76497, Note_on_c, 0, 73, 42
1, 76497, Note_off_c, 0, 54, 34
1, 76510, Note_on_c, 0, 46, 37
1, 76510, Control_c, 0, 64, 72
1, 76524, Control_c, 0, 64, 65
1, 76539, Note_off_c, 0, 47, 37
1, 76539, Control_c, 0, 64, 46
1, 76554, Control_c, 0, 64, 38
1, 76569, Control_c, 0, 64, 49
1, 76583, Control_c, 0, 64, 58
1, 76598, Control_c, 0, 64, 63
1, 76613, Control_c, 0, 64, 66
1, 76628, Control_c, 0, 64, 70
1, 76643, Control_c, 0, 64, 73
1, 76658, Control_c, 0, 64, 75
1, 76673, Control_c, 0, 64, 77
1, 76685, Note_on_c, 0, 54, 28
1, 76688, Control_c, 0, 64, 78
1, 76732, Control_c, 0, 64, 78
1, 76776, Control_c, 0, 64, 78
1, 76803, Note_off_c, 0, 61, 39
1, 76824, Note_off_c, 0, 42, 40
1, 76833, Note_off_c, 0, 73, 36
1, 76845, Note_on_c, 0, 70, 52
1, 76850, Note_off_c, 0, 54, 37
1, 76858, Control_c, 0, 64, 77
1, 76864, Note_off_c, 0, 46, 39
1, 76873, Control_c, 0, 64, 75
1, 76888, Control_c, 0, 64, 72
1, 76902, Control_c, 0, 64, 67
1, 76917, Control_c, 0, 64, 57
1, 76921, Note_off_c, 0, 70, 62
1, 76930, Note_on_c, 0, 71, 53
1, 76932, Control_c, 0, 64, 0
1, 77006, Note_on_c, 0, 70, 60
1, 77030, Note_off_c, 0, 71, 56
1, 77070, Note_off_c, 0, 70, 62
1, 77079, Note_on_c, 0, 66, 54
1, 77150, Note_off_c, 0, 66, 64
1, 77167, Note_on_c, 0, 71, 58
1, 77224, Note_off_c, 0, 71, 61
1, 77248, Note_on_c, 0, 73, 50
1, 77313, Note_off_c, 0, 73, 57
1, 77322, Note_on_c, 0, 71, 50
1, 77382, Note_off_c, 0, 71, 55
1, 77397, Note_on_c, 0, 68, 49
1, 77470, Note_off_c, 0, 68, 57
1, 77498, Note_on_c, 0, 65, 45
1, 77508, Note_on_c, 0, 49, 35
1, 77588, Note_on_c, 0, 53, 42
1, 77635, Note_off_c, 0, 49, 34
1, 77667, Note_on_c, 0, 56, 39
1, 77668, Note_off_c, 0, 53, 60
1, 77733, Note_off_c, 0, 56, 55
1, 77757, Note_off_c, 0, 65, 34
1, 77767, Note_on_c, 0, 59, 32
1, 77871, Note_off_c, 0, 59, 35
1, 77897, Note_on_c, 0, 47, 35
1, 78075, Note_off_c, 0, 47, 41
1, 78343, Note_on_c, 0, 71, 31
1, 78378, Note_off_c, 0, 71, 54
1, 78396, Note_on_c, 0, 73, 46
1, 78467, Note_off_c, 0, 73, 53
1, 78491, Note_on_c, 0, 71, 36
1, 78560, Note_off_c, 0, 71, 50
1, 78572, Note_on_c, 0, 68, 43
1, 78634, Note_off_c, 0, 68, 42
1, 78672, Note_on_c, 0, 73, 29
1, 78713, Note_off_c, 0, 73, 53
1, 78745, Note_on_c, 0, 75, 37
1, 78791, Note_off_c, 0, 75, 56
1, 78828, Note_on_c, 0, 73, 44
1, 78887, Note_off_c, 0, 73, 45
1, 78911, Note_on_c, 0, 70, 31
1, 78987, Note_off_c, 0, 70, 37
1, 79013, Note_on_c, 0, 66, 24
1, 79028, Note_on_c, 0, 46, 21
1, 79131, Poly_aftertouch_c, 0, 49, 127
1, 79181, Note_on_c, 0, 54, 30
1, 79181, Poly_aftertouch_c, 0, 49, 0
1, 79186, Note_off_c, 0, 46, 41
1, 79264, Note_off_c, 0, 54, 35
1, 79267, Note_on_c, 0, 58, 19
1, 79375, Note_off_c, 0, 66, 44
1, 79400, Note_off_c, 0, 58, 40
1, 79403, Note_on_c, 0, 46, 28
1, 79568, Note_off_c, 0, 46, 53
1, 79898, Note_on_c, 0, 78, 39
1, 79918, Note_on_c, 0, 42, 33
1, 80035, Note_on_c, 0, 77, 49
1, 80062, Note_on_c, 0, 44, 33
1, 80086, Note_off_c, 0, 42, 39
1, 80086, Note_off_c, 0, 78, 22
1, 80149, Note_off_c, 0, 44, 53
1, 80155, Note_off_c, 0, 77, 54
1, 80170, Note_on_c, 0, 75, 50
1, 80177, Note_on_c, 0, 46, 48
1, 80284, Note_off_c, 0, 46, 59
1, 80287, Note_on_c, 0, 73, 60
1, 80296, Note_on_c, 0, 47, 59
1, 80309, Note_off_c, 0, 75, 54
1, 80397, Note_on_c, 0, 71, 67
1, 80404, Note_off_c, 0, 73, 62
1, 80510, Note_on_c, 0, 70, 68
1, 80541, Note_off_c, 0, 71, 55
1, 80626, Note_on_c, 0, 68, 80
1, 80676, Note_off_c, 0, 70, 55
1, 80736, Note_on_c, 0, 66, 83
1, 80783, Note_off_c, 0, 68, 60
1, 80850, Note_on_c, 0, 65, 82
1, 80868, Note_off_c, 0, 66, 66
1, 80964, Note_on_c, 0, 63, 80
1, 80973, Note_on_c, 0, 49, 75
1, 80999, Note_off_c, 0, 65, 64
1, 81038, Note_off_c, 0, 47, 62
1, 81072, Note_on_c, 0, 61, 83
1, 81115, Note_off_c, 0, 63, 62
1, 81176, Note_on_c, 0, 60, 80
1, 81196, Note_off_c, 0, 61, 59
1, 81287, Note_on_c, 0, 59, 52
1, 81296, Note_on_c, 0, 61, 83
1, 81315, Note_off_c, 0, 60, 57
1, 81408, Note_on_c, 0, 63, 75
1, 81409, Note_off_c, 0, 61, 61
1, 81519, Note_on_c, 0, 65, 64
1, 81523, Note_off_c, 0, 63, 60
1, 81639, Note_off_c, 0, 65, 44
1, 81646, Note_off_c, 0, 59, 53
1, 81655, Note_off_c, 0, 49, 35
1, 81703, Note_on_c, 0, 66, 50
1, 81720, Note_on_c, 0, 58, 28
1, 81720, Note_on_c, 0, 61, 40
1, 81728, Note_on_c, 0, 54, 33
1, 81842, Control_c, 0, 64, 50
1, 81856, Control_c, 0, 64, 68
1, 81871, Control_c, 0, 64, 77
1, 81886, Control_c, 0, 64, 86
1, 81901, Control_c, 0, 64, 92
1, 81914, Note_off_c, 0, 61, 33
1, 81916, Control_c, 0, 64, 95
1, 81930, Control_c, 0, 64, 98
1, 81945, Control_c, 0, 64, 101
1, 81960, Control_c, 0, 64, 103
1, 81975, Control_c, 0, 64, 104
1, 82027, Note_off_c, 0, 66, 35
1, 82101, Control_c, 0, 64, 103
1, 82115, Control_c, 0, 64, 100
1, 82120, Note_on_c, 0, 68, 50
1, 82126, Note_off_c, 0, 58, 37
1, 82128, Note_on_c, 0, 61, 28
1, 82130, Control_c, 0, 64, 95
1, 82139, Note_on_c, 0, 56, 39
1, 82143, Note_on_c, 0, 65, 33
1, 82145, Control_c, 0, 64, 85
1, 82157, Note_on_c, 0, 49, 38
1, 82160, Control_c, 0, 64, 75
1, 82175, Control_c, 0, 64, 64
1, 82189, Control_c, 0, 64, 0
1, 82193, Note_off_c, 0, 54, 29
1, 82234, Control_c, 0, 64, 55
1, 82249, Control_c, 0, 64, 66
1, 82263, Control_c, 0, 64, 71
1, 82278, Control_c, 0, 64, 76
1, 82293, Control_c, 0, 64, 79
1, 82295, Note_off_c, 0, 68, 52
1, 82307, Control_c, 0, 64, 80
1, 82314, Note_off_c, 0, 56, 39
1, 82315, Note_off_c, 0, 61, 39
1, 82322, Control_c, 0, 64, 81
1, 82327, Note_off_c, 0, 65, 42
1, 82337, Control_c, 0, 64, 81
1, 82352, Control_c, 0, 64, 82
1, 82501, Control_c, 0, 64, 81
1, 82531, Control_c, 0, 64, 80
1, 82546, Control_c, 0, 64, 78
1, 82560, Control_c, 0, 64, 76
1, 82565, Note_on_c, 0, 61, 31
1, 82566, Note_on_c, 0, 70, 41
1, 82575, Control_c, 0, 64, 72
1, 82590, Control_c, 0, 64, 67
1, 82593, Note_on_c, 0, 66, 36
1, 82599, Note_off_c, 0, 49, 38
1, 82605, Control_c, 0, 64, 60
1, 82606, Note_on_c, 0, 42, 25
1, 82607, Note_on_c, 0, 54, 29
1, 82620, Control_c, 0, 64, 0
1, 82853, Note_off_c, 0, 61, 60
1, 82863, Note_off_c, 0, 42, 56
1, 82865, Note_off_c, 0, 70, 58
1, 82878, Note_off_c, 0, 66, 44
1, 82882, Note_off_c, 0, 54, 55
1, 83264, Control_c, 0, 67, 8
1, 83279, Control_c, 0, 67, 10
1, 83293, Control_c, 0, 67, 11
1, 83308, Control_c, 0, 67, 13
1, 83323, Control_c, 0, 67, 16
1, 83339, Control_c, 0, 67, 18
1, 83353, Control_c, 0, 67, 20
1, 83368, Control_c, 0, 67, 23
1, 83383, Control_c, 0, 67, 30
1, 83398, Control_c, 0, 67, 45
1, 83413, Control_c, 0, 67, 63
1, 83416, Note_on_c, 0, 70, 38
1, 83417, Note_on_c, 0, 54, 26
1, 83421, Note_on_c, 0, 58, 23
1, 83422, Note_on_c, 0, 61, 32
1, 83428, Control_c, 0, 67, 82
1, 83442, Note_on_c, 0, 66, 16
1, 83443, Control_c, 0, 67, 106
1, 83457, Control_c, 0, 67, 127
1, 83550, Note_off_c, 0, 58, 55
1, 83562, Note_off_c, 0, 61, 53
1, 83563, Note_off_c, 0, 70, 57
1, 83574, Note_off_c, 0, 66, 44
1, 83574, Note_off_c, 0, 54, 49
1, 84202, Note_on_c, 0, 71, 43
1, 84206, Note_on_c, 0, 63, 35
1, 84212, Note_on_c, 0, 47, 35
1, 84214, Note_on_c, 0, 56, 33
1, 84235, Note_on_c, 0, 68, 26
1, 84244, Note_on_c, 0, 51, 22
1, 84329, Note_off_c, 0, 68, 33
1, 84352, Note_off_c, 0, 47, 39
1, 84362, Note_off_c, 0, 51, 35
1, 84367, Note_off_c, 0, 56, 43
1, 84374, Note_off_c, 0, 63, 43
1, 84432, Note_off_c, 0, 71, 25
1, 84820, Control_c, 0, 64, 13
1, 84835, Control_c, 0, 64, 22
1, 84850, Control_c, 0, 64, 28
1, 84864, Control_c, 0, 64, 32
1, 84879, Control_c, 0, 64, 36
1, 84894, Control_c, 0, 64, 40
1, 84909, Control_c, 0, 64, 42
1, 84924, Control_c, 0, 64, 44
1, 84939, Control_c, 0, 64, 46
1, 84954, Control_c, 0, 64, 48
1, 84969, Control_c, 0, 64, 50
1, 84984, Control_c, 0, 64, 51
1, 84999, Control_c, 0, 64, 52
1, 85013, Control_c, 0, 64, 53
1, 85028, Control_c, 0, 64, 53
1, 85043, Control_c, 0, 64, 55
1, 85066, Control_c, 0, 64, 57
1, 85080, Control_c, 0, 64, 59
1, 85095, Control_c, 0, 64, 62
1, 85110, Control_c, 0, 64, 64
1, 85111, Note_on_c, 0, 68, 45
1, 85112, Note_on_c, 0, 65, 30
1, 85125, Note_on_c, 0, 61, 26
1, 85125, Control_c, 0, 64, 66
1, 85139, Control_c, 0, 64, 70
1, 85142, Note_on_c, 0, 49, 25
1, 85154, Control_c, 0, 64, 75
1, 85169, Control_c, 0, 64, 80
1, 85184, Control_c, 0, 64, 84
1, 85199, Control_c, 0, 64, 86
1, 85213, Control_c, 0, 64, 88
1, 85228, Control_c, 0, 64, 90
1, 85243, Control_c, 0, 64, 92
1, 85258, Control_c, 0, 64, 93
1, 85273, Control_c, 0, 64, 94
1, 85290, Note_off_c, 0, 61, 39
1, 85366, Note_off_c, 0, 68, 37
1, 85476, Note_off_c, 0, 65, 41
1, 85481, Note_on_c, 0, 70, 76
1, 85484, Note_on_c, 0, 66, 61
1, 85493, Note_on_c, 0, 61, 51
1, 85495, Control_c, 0, 64, 92
1, 85506, Note_on_c, 0, 42, 49
1, 85510, Control_c, 0, 64, 88
1, 85524, Control_c, 0, 64, 80
1, 85539, Control_c, 0, 64, 70
1, 85547, Note_off_c, 0, 49, 39
1, 85554, Control_c, 0, 64, 43
1, 85569, Control_c, 0, 64, 0
1, 85613, Control_c, 0, 64, 55
1, 85628, Control_c, 0, 64, 65
1, 85643, Control_c, 0, 64, 70
1, 85658, Control_c, 0, 64, 75
1, 85670, Note_off_c, 0, 61, 52
1, 85673, Control_c, 0, 64, 80
1, 85687, Control_c, 0, 64, 82
1, 85717, Control_c, 0, 64, 83
1, 85727, Note_off_c, 0, 70, 58
1, 85733, Control_c, 0, 64, 83
1, 85747, Control_c, 0, 64, 84
1, 85777, Note_off_c, 0, 42, 33
1, 85859, Control_c, 0, 64, 83
1, 85874, Control_c, 0, 64, 82
1, 85889, Control_c, 0, 64, 81
1, 85900, Note_off_c, 0, 66, 64
1, 85901, Note_on_c, 0, 71, 69
1, 85903, Control_c, 0, 64, 79
1, 85918, Control_c, 0, 64, 75
1, 85922, Note_on_c, 0, 37, 51
1, 85925, Note_on_c, 0, 61, 51
1, 85926, Note_on_c, 0, 68, 51
1, 85933, Control_c, 0, 64, 69
1, 85948, Control_c, 0, 64, 53
1, 85962, Control_c, 0, 64, 0
1, 86081, Control_c, 0, 64, 48
1, 86096, Control_c, 0, 64, 66
1, 86110, Control_c, 0, 64, 71
1, 86125, Control_c, 0, 64, 77
1, 86140, Control_c, 0, 64, 80
1, 86155, Control_c, 0, 64, 81
1, 86170, Control_c, 0, 64, 82
1, 86178, Note_off_c, 0, 61, 57
1, 86199, Note_off_c, 0, 71, 59
1, 86204, Note_off_c, 0, 68, 42
1, 86209, Note_off_c, 0, 37, 54
1, 86272, Control_c, 0, 64, 80
1, 86287, Control_c, 0, 64, 76
1, 86302, Control_c, 0, 64, 69
1, 86317, Control_c, 0, 64, 51
1, 86332, Control_c, 0, 64, 0
1, 86837, Note_on_c, 0, 71, 47
1, 86844, Note_on_c, 0, 56, 32
1, 86853, Note_on_c, 0, 53, 33
1, 86853, Note_on_c, 0, 68, 35
1, 86853, Note_on_c, 0, 61, 34
1, 86855, Note_on_c, 0, 59, 28
1, 86963, Note_off_c, 0, 61, 56
1, 86969, Note_off_c, 0, 71, 51
1, 86981, Note_off_c, 0, 53, 43
1, 86986, Note_off_c, 0, 68, 43
1, 86991, Note_off_c, 0, 56, 44
1, 86996, Note_off_c, 0, 59, 45
1, 87708, Note_on_c, 0, 56, 32
1, 87714, Note_on_c, 0, 59, 33
1, 87717, Note_on_c, 0, 73, 41
1, 87718, Note_on_c, 0, 49, 25
1, 87720, Note_on_c, 0, 61, 33
1, 87722, Note_on_c, 0, 65, 34
1, 87744, Note_on_c, 0, 53, 14
1, 87759, Note_on_c, 0, 68, 7
1, 87813, Note_off_c, 0, 68, 46
1, 87818, Note_off_c, 0, 65, 56
1, 87820, Note_off_c, 0, 61, 52
1, 87844, Note_off_c, 0, 73, 57
1, 87845, Note_off_c, 0, 56, 47
1, 87850, Note_off_c, 0, 59, 36
1, 87861, Note_off_c, 0, 53, 43
1, 87863, Note_off_c, 0, 49, 41
1, 88520, Control_c, 0, 64, 27
1, 88535, Control_c, 0, 64, 48
1, 88549, Control_c, 0, 64, 57
1, 88564, Control_c, 0, 64, 61
1, 88566, Note_on_c, 0, 70, 40
1, 88579, Control_c, 0, 64, 64
1, 88585, Note_on_c, 0, 61, 26
1, 88585, Note_on_c, 0, 58, 36
1, 88594, Control_c, 0, 64, 66
1, 88599, Note_on_c, 0, 54, 26
1, 88605, Note_on_c, 0, 66, 27
1, 88609, Control_c, 0, 64, 69
1, 88623, Control_c, 0, 64, 73
1, 88638, Control_c, 0, 64, 78
1, 88653, Control_c, 0, 64, 81
1, 88668, Control_c, 0, 64, 82
1, 88683, Control_c, 0, 64, 82
1, 88695, Note_off_c, 0, 70, 51
1, 88698, Control_c, 0, 64, 83
1, 88706, Note_off_c, 0, 61, 42
1, 88710, Note_off_c, 0, 66, 30
1, 88713, Control_c, 0, 64, 84
1, 88769, Note_off_c, 0, 54, 40
1, 88777, Note_off_c, 0, 58, 41
1, 88972, Control_c, 0, 64, 83
1, 88987, Control_c, 0, 64, 83
1, 89002, Control_c, 0, 64, 82
1, 89013, Note_on_c, 0, 73, 43
1, 89017, Control_c, 0, 64, 80
1, 89032, Control_c, 0, 64, 77
1, 89047, Control_c, 0, 64, 73
1, 89062, Control_c, 0, 64, 68
1, 89076, Control_c, 0, 64, 61
1, 89082, Note_off_c, 0, 73, 61
1, 89086, Note_on_c, 0, 75, 56
1, 89091, Control_c, 0, 64, 42
1, 89106, Control_c, 0, 64, 21
1, 89106, Control_c, 0, 67, 116
1, 89121, Control_c, 0, 64, 0
1, 89121, Control_c, 0, 67, 100
1, 89136, Control_c, 0, 67, 84
1, 89151, Control_c, 0, 67, 70
1, 89159, Note_on_c, 0, 73, 59
1, 89160, Note_off_c, 0, 75, 61
1, 89166, Control_c, 0, 67, 53
1, 89180, Control_c, 0, 67, 40
1, 89195, Control_c, 0, 67, 28
1, 89210, Control_c, 0, 67, 17
1, 89225, Control_c, 0, 67, 0
1, 89234, Note_off_c, 0, 73, 59
1, 89241, Note_on_c, 0, 70, 66
1, 89317, Note_off_c, 0, 70, 59
1, 89354, Note_on_c, 0, 78, 65
1, 89461, Control_c, 0, 64, 36
1, 89476, Control_c, 0, 64, 64
1, 89491, Control_c, 0, 64, 68
1, 89506, Control_c, 0, 64, 72
1, 89521, Control_c, 0, 64, 75
1, 89535, Control_c, 0, 64, 77
1, 89558, Control_c, 0, 64, 78
1, 89573, Control_c, 0, 64, 79
1, 89602, Control_c, 0, 64, 79
1, 89705, Control_c, 0, 64, 79
1, 89721, Control_c, 0, 64, 78
1, 89736, Control_c, 0, 64, 76
1, 89747, Note_on_c, 0, 70, 42
1, 89751, Control_c, 0, 64, 72
1, 89766, Control_c, 0, 64, 65
1, 89767, Note_on_c, 0, 66, 43
1, 89781, Control_c, 0, 64, 25
1, 89795, Control_c, 0, 64, 0
1, 89869, Control_c, 0, 64, 57
1, 89884, Control_c, 0, 64, 66
1, 89899, Control_c, 0, 64, 72
1, 89914, Control_c, 0, 64, 77
1, 89929, Control_c, 0, 64, 82
1, 89944, Control_c, 0, 64, 85
1, 89959, Control_c, 0, 64, 87
1, 89974, Control_c, 0, 64, 88
1, 89989, Control_c, 0, 64, 90
1, 90003, Control_c, 0, 64, 91
1, 90014, Note_off_c, 0, 66, 60
1, 90018, Control_c, 0, 64, 92
1, 90033, Control_c, 0, 64, 93
1, 90063, Control_c, 0, 64, 93
1, 90181, Control_c, 0, 64, 93
1, 90195, Control_c, 0, 64, 91
1, 90210, Control_c, 0, 64, 89
1, 90213, Note_on_c, 0, 71, 60
1, 90218, Note_on_c, 0, 68, 50
1, 90225, Control_c, 0, 64, 85
1, 90227, Note_off_c, 0, 70, 41
1, 90240, Control_c, 0, 64, 79
1, 90255, Control_c, 0, 64, 73
1, 90269, Control_c, 0, 64, 64
1, 90284, Control_c, 0, 64, 34
1, 90307, Control_c, 0, 64, 0
1, 90445, Note_off_c, 0, 78, 48
1, 90466, Note_on_c, 0, 77, 51
1, 90527, Note_off_c, 0, 77, 62
1, 90541, Note_on_c, 0, 78, 58
1, 90593, Note_off_c, 0, 78, 62
1, 90600, Note_on_c, 0, 77, 60
1, 90648, Control_c, 0, 64, 58
1, 90663, Control_c, 0, 64, 64
1, 90678, Control_c, 0, 64, 66
1, 90680, Note_off_c, 0, 77, 62
1, 90685, Note_on_c, 0, 75, 62
1, 90692, Control_c, 0, 64, 69
1, 90707, Control_c, 0, 64, 72
1, 90719, Note_off_c, 0, 75, 65
1, 90722, Control_c, 0, 64, 75
1, 90737, Control_c, 0, 64, 77
1, 90740, Note_on_c, 0, 77, 65
1, 90752, Control_c, 0, 64, 78
1, 90811, Control_c, 0, 64, 77
1, 90820, Note_on_c, 0, 78, 82
1, 90820, Note_off_c, 0, 77, 62
1, 90826, Control_c, 0, 64, 75
1, 90841, Control_c, 0, 64, 70
1, 90856, Control_c, 0, 64, 45
1, 90871, Control_c, 0, 64, 0
1, 90878, Note_off_c, 0, 78, 61
1, 90914, Note_on_c, 0, 80, 80
1, 90974, Control_c, 0, 64, 57
1, 90989, Control_c, 0, 64, 68
1, 91004, Control_c, 0, 64, 75
1, 91018, Control_c, 0, 64, 82
1, 91033, Control_c, 0, 64, 85
1, 91056, Control_c, 0, 64, 87
1, 91060, Note_off_c, 0, 71, 48
1, 91070, Control_c, 0, 64, 88
1, 91075, Note_off_c, 0, 68, 52
1, 91085, Control_c, 0, 64, 89
1, 91100, Control_c, 0, 64, 90
1, 91115, Control_c, 0, 64, 90
1, 91263, Control_c, 0, 64, 90
1, 91277, Control_c, 0, 64, 89
1, 91292, Control_c, 0, 64, 87
1, 91307, Control_c, 0, 64, 83
1, 91312, Note_on_c, 0, 71, 80
1, 91312, Note_on_c, 0, 77, 76
1, 91323, Control_c, 0, 64, 74
1, 91325, Note_on_c, 0, 68, 53
1, 91334, Note_off_c, 0, 80, 59
1, 91338, Control_c, 0, 64, 61
1, 91353, Control_c, 0, 64, 0
1, 91500, Control_c, 0, 64, 52
1, 91515, Control_c, 0, 64, 66
1, 91530, Control_c, 0, 64, 72
1, 91545, Control_c, 0, 64, 77
1, 91560, Control_c, 0, 64, 82
1, 91574, Control_c, 0, 64, 83
1, 91589, Note_off_c, 0, 68, 42
1, 91589, Control_c, 0, 64, 84
1, 91604, Control_c, 0, 64, 85
1, 91619, Control_c, 0, 64, 86
1, 91634, Control_c, 0, 64, 87
1, 91756, Note_on_c, 0, 70, 57
1, 91756, Note_on_c, 0, 74, 48
1, 91763, Note_off_c, 0, 77, 35
1, 91767, Control_c, 0, 64, 86
1, 91782, Control_c, 0, 64, 85
1, 91786, Note_on_c, 0, 68, 40
1, 91804, Control_c, 0, 64, 82
1, 91813, Note_off_c, 0, 71, 50
1, 91819, Control_c, 0, 64, 77
1, 91834, Control_c, 0, 64, 70
1, 91849, Control_c, 0, 64, 53
1, 91864, Control_c, 0, 64, 0
1, 91865, Note_on_c, 0, 83, 45
1, 91870, Note_off_c, 0, 74, 60
1, 91953, Note_on_c, 0, 82, 55
1, 91960, Note_off_c, 0, 83, 51
1, 91982, Control_c, 0, 64, 62
1, 91997, Control_c, 0, 64, 67
1, 92012, Control_c, 0, 64, 70
1, 92027, Note_on_c, 0, 74, 43
1, 92027, Control_c, 0, 64, 72
1, 92029, Note_off_c, 0, 82, 60
1, 92041, Control_c, 0, 64, 74
1, 92050, Note_off_c, 0, 74, 60
1, 92056, Control_c, 0, 64, 76
1, 92071, Control_c, 0, 64, 77
1, 92086, Control_c, 0, 64, 77
1, 92100, Control_c, 0, 64, 78
1, 92119, Note_on_c, 0, 74, 50
1, 92159, Note_off_c, 0, 74, 46
1, 92161, Control_c, 0, 64, 77
1, 92176, Control_c, 0, 64, 74
1, 92190, Note_on_c, 0, 83, 58
1, 92191, Control_c, 0, 64, 67
1, 92205, Control_c, 0, 64, 56
1, 92220, Control_c, 0, 64, 42
1, 92235, Control_c, 0, 64, 54
1, 92250, Control_c, 0, 64, 63
1, 92265, Control_c, 0, 64, 66
1, 92279, Control_c, 0, 64, 69
1, 92284, Note_on_c, 0, 82, 54
1, 92291, Note_off_c, 0, 83, 52
1, 92294, Control_c, 0, 64, 72
1, 92309, Control_c, 0, 64, 74
1, 92323, Control_c, 0, 64, 75
1, 92338, Control_c, 0, 64, 76
1, 92347, Note_off_c, 0, 82, 58
1, 92350, Note_on_c, 0, 74, 47
1, 92353, Control_c, 0, 64, 76
1, 92372, Note_off_c, 0, 74, 60
1, 92397, Control_c, 0, 64, 76
1, 92412, Control_c, 0, 64, 75
1, 92427, Control_c, 0, 64, 72
1, 92442, Control_c, 0, 64, 66
1, 92450, Note_off_c, 0, 68, 0
1, 92450, Note_on_c, 0, 68, 3
1, 92453, Note_on_c, 0, 74, 57
1, 92457, Control_c, 0, 64, 49
1, 92465, Note_on_c, 0, 65, 40
1, 92472, Control_c, 0, 64, 0
1, 92517, Note_off_c, 0, 70, 57
1, 92520, Note_off_c, 0, 74, 52
1, 92532, Note_on_c, 0, 83, 49
1, 92583, Control_c, 0, 64, 61
1, 92597, Control_c, 0, 64, 66
1, 92612, Control_c, 0, 64, 68
1, 92624, Note_off_c, 0, 65, 54
1, 92627, Note_on_c, 0, 82, 53
1, 92627, Control_c, 0, 64, 71
1, 92633, Note_off_c, 0, 83, 50
1, 92642, Control_c, 0, 64, 72
1, 92646, Note_off_c, 0, 68, 56
1, 92657, Control_c, 0, 64, 74
1, 92671, Control_c, 0, 64, 75
1, 92686, Control_c, 0, 64, 76
1, 92692, Note_off_c, 0, 82, 49
1, 92710, Note_on_c, 0, 74, 44
1, 92733, Note_off_c, 0, 74, 58
1, 92776, Control_c, 0, 64, 75
1, 92790, Control_c, 0, 64, 75
1, 92805, Control_c, 0, 64, 73
1, 92814, Note_on_c, 0, 74, 52
1, 92820, Control_c, 0, 64, 70
1, 92821, Poly_aftertouch_c, 0, 65, 127
1, 92822, Note_on_c, 0, 68, 58
1, 92835, Control_c, 0, 64, 63
1, 92838, Note_on_c, 0, 58, 29
1, 92849, Control_c, 0, 64, 13
1, 92864, Control_c, 0, 64, 0
1, 92888, Note_off_c, 0, 74, 51
1, 92894, Note_on_c, 0, 83, 36
1, 92954, Control_c, 0, 64, 40
1, 92969, Control_c, 0, 64, 64
1, 92982, Note_on_c, 0, 82, 51
1, 92984, Control_c, 0, 64, 68
1, 92987, Note_off_c, 0, 58, 40
1, 92999, Control_c, 0, 64, 71
1, 93013, Control_c, 0, 64, 73
1, 93028, Control_c, 0, 64, 75
1, 93034, Note_off_c, 0, 83, 29
1, 93043, Control_c, 0, 64, 76
1, 93045, Note_off_c, 0, 82, 55
1, 93055, Note_off_c, 0, 68, 63
1, 93056, Note_on_c, 0, 74, 44
1, 93136, Poly_aftertouch_c, 0, 65, 0
1, 93145, Note_off_c, 0, 74, 61
1, 93146, Control_c, 0, 64, 75
1, 93160, Note_on_c, 0, 75, 53
1, 93161, Control_c, 0, 64, 73
1, 93176, Control_c, 0, 64, 69
1, 93182, Note_on_c, 0, 63, 38
1, 93183, Note_on_c, 0, 66, 53
1, 93188, Note_on_c, 0, 58, 16
1, 93191, Control_c, 0, 64, 58
1, 93206, Control_c, 0, 64, 0
1, 93249, Note_on_c, 0, 83, 51
1, 93268, Note_off_c, 0, 75, 55
1, 93297, Note_off_c, 0, 63, 56
1, 93302, Control_c, 0, 64, 61
1, 93317, Control_c, 0, 64, 66
1, 93332, Control_c, 0, 64, 69
1, 93336, Note_on_c, 0, 82, 59
1, 93346, Control_c, 0, 64, 71
1, 93351, Note_off_c, 0, 58, 56
1, 93361, Control_c, 0, 64, 73
1, 93376, Control_c, 0, 64, 74
1, 93383, Note_off_c, 0, 83, 35
1, 93414, Note_on_c, 0, 75, 59
1, 93455, Note_off_c, 0, 82, 59
1, 93464, Control_c, 0, 64, 73
1, 93479, Control_c, 0, 64, 72
1, 93494, Control_c, 0, 64, 69
1, 93499, Note_off_c, 0, 66, 59
1, 93509, Control_c, 0, 64, 64
1, 93516, Note_off_c, 0, 75, 57
1, 93517, Note_on_c, 0, 77, 64
1, 93521, Note_on_c, 0, 62, 47
1, 93523, Note_on_c, 0, 65, 42
1, 93524, Control_c, 0, 64, 10
1, 93535, Note_on_c, 0, 56, 42
1, 93539, Control_c, 0, 64, 0
1, 93598, Note_on_c, 0, 83, 66
1, 93604, Note_off_c, 0, 77, 60
1, 93643, Control_c, 0, 64, 57
1, 93658, Control_c, 0, 64, 66
1, 93672, Control_c, 0, 64, 69
1, 93685, Note_off_c, 0, 56, 54
1, 93687, Control_c, 0, 64, 71
1, 93688, Note_on_c, 0, 82, 69
1, 93692, Note_off_c, 0, 62, 57
1, 93702, Control_c, 0, 64, 73
1, 93718, Control_c, 0, 64, 74
1, 93718, Note_off_c, 0, 83, 60
1, 93764, Note_off_c, 0, 82, 56
1, 93774, Note_on_c, 0, 77, 70
1, 93792, Control_c, 0, 64, 73
1, 93807, Control_c, 0, 64, 71
1, 93822, Control_c, 0, 64, 64
1, 93837, Control_c, 0, 64, 0
1, 93849, Note_off_c, 0, 77, 38
1, 93852, Note_off_c, 0, 65, 54
1, 93854, Note_on_c, 0, 63, 50
1, 93855, Note_on_c, 0, 78, 75
1, 93870, Note_on_c, 0, 54, 45
1, 93889, Note_on_c, 0, 58, 38
1, 93933, Note_on_c, 0, 83, 69
1, 93935, Note_off_c, 0, 78, 63
1, 93970, Control_c, 0, 64, 61
1, 93985, Control_c, 0, 64, 67
1, 93992, Note_off_c, 0, 54, 57
1, 94000, Control_c, 0, 64, 71
1, 94003, Note_off_c, 0, 58, 60
1, 94011, Note_on_c, 0, 82, 80
1, 94015, Control_c, 0, 64, 73
1, 94022, Note_off_c, 0, 83, 61
1, 94023, Note_off_c, 0, 63, 62
1, 94030, Control_c, 0, 64, 75
1, 94052, Control_c, 0, 64, 75
1, 94066, Control_c, 0, 64, 76
1, 94096, Control_c, 0, 64, 75
1, 94099, Note_off_c, 0, 82, 64
1, 94104, Note_on_c, 0, 78, 79
1, 94111, Control_c, 0, 64, 74
1, 94126, Control_c, 0, 64, 69
1, 94141, Control_c, 0, 64, 58
1, 94156, Control_c, 0, 64, 0
1, 94212, Note_on_c, 0, 54, 39
1, 94218, Note_on_c, 0, 87, 76
1, 94218, Note_off_c, 0, 78, 61
1, 94220, Note_on_c, 0, 63, 32
1, 94226, Note_on_c, 0, 58, 20
1, 94303, Control_c, 0, 64, 55
1, 94314, Note_off_c, 0, 87, 59
1, 94315, Note_on_c, 0, 82, 67
1, 94318, Control_c, 0, 64, 66
1, 94321, Note_off_c, 0, 58, 60
1, 94333, Control_c, 0, 64, 69
1, 94348, Control_c, 0, 64, 72
1, 94362, Control_c, 0, 64, 75
1, 94377, Note_off_c, 0, 54, 47
1, 94377, Control_c, 0, 64, 76
1, 94388, Note_off_c, 0, 63, 41
1, 94392, Note_on_c, 0, 78, 65
1, 94392, Control_c, 0, 64, 77
1, 94424, Note_off_c, 0, 82, 39
1, 94469, Note_on_c, 0, 75, 62
1, 94472, Note_off_c, 0, 78, 60
1, 94526, Control_c, 0, 64, 74
1, 94531, Note_off_c, 0, 75, 58
1, 94540, Control_c, 0, 64, 68
1, 94552, Note_on_c, 0, 63, 41
1, 94554, Note_on_c, 0, 57, 46
1, 94555, Control_c, 0, 64, 41
1, 94559, Note_on_c, 0, 84, 80
1, 94565, Note_on_c, 0, 54, 34
1, 94570, Control_c, 0, 64, 0
1, 94640, Note_on_c, 0, 78, 77
1, 94645, Control_c, 0, 64, 55
1, 94659, Control_c, 0, 64, 67
1, 94672, Note_off_c, 0, 84, 61
1, 94674, Control_c, 0, 64, 74
1, 94689, Control_c, 0, 64, 79
1, 94704, Control_c, 0, 64, 80
1, 94718, Control_c, 0, 64, 81
1, 94722, Note_on_c, 0, 75, 71
1, 94725, Note_off_c, 0, 54, 47
1, 94742, Note_off_c, 0, 63, 53
1, 94767, Note_off_c, 0, 75, 50
1, 94775, Note_off_c, 0, 78, 60
1, 94806, Note_off_c, 0, 57, 54
1, 94815, Control_c, 0, 64, 80
1, 94818, Note_on_c, 0, 84, 73
1, 94844, Control_c, 0, 64, 79
1, 94859, Control_c, 0, 64, 75
1, 94874, Control_c, 0, 64, 65
1, 94889, Control_c, 0, 64, 0
1, 94907, Note_on_c, 0, 87, 68
1, 94912, Note_on_c, 0, 54, 21
1, 94912, Note_off_c, 0, 84, 61
1, 94919, Note_on_c, 0, 63, 29
1, 94926, Note_on_c, 0, 56, 38
1, 94985, Note_on_c, 0, 78, 56
1, 94992, Control_c, 0, 64, 16
1, 95007, Control_c, 0, 64, 64
1, 95017, Note_off_c, 0, 87, 62
1, 95022, Control_c, 0, 64, 70
1, 95036, Control_c, 0, 64, 76
1, 95051, Control_c, 0, 64, 83
1, 95066, Control_c, 0, 64, 86
1, 95074, Note_off_c, 0, 54, 40
1, 95080, Note_off_c, 0, 78, 60
1, 95081, Control_c, 0, 64, 87
1, 95086, Note_on_c, 0, 75, 51
1, 95096, Control_c, 0, 64, 88
1, 95098, Note_off_c, 0, 63, 41
1, 95143, Note_on_c, 0, 85, 67
1, 95158, Note_off_c, 0, 75, 50
1, 95209, Note_off_c, 0, 56, 39
1, 95214, Control_c, 0, 64, 85
1, 95229, Control_c, 0, 64, 79
1, 95233, Note_on_c, 0, 84, 78
1, 95236, Note_off_c, 0, 85, 60
1, 95244, Control_c, 0, 64, 65
1, 95256, Note_on_c, 0, 63, 54
1, 95259, Control_c, 0, 64, 0
1, 95262, Note_on_c, 0, 57, 63
1, 95267, Note_on_c, 0, 54, 57
1, 95336, Note_on_c, 0, 78, 74
1, 95348, Control_c, 0, 64, 59
1, 95363, Control_c, 0, 64, 70
1, 95378, Control_c, 0, 64, 78
1, 95393, Control_c, 0, 64, 85
1, 95408, Control_c, 0, 64, 87
1, 95411, Note_on_c, 0, 75, 63
1, 95419, Note_off_c, 0, 84, 59
1, 95423, Control_c, 0, 64, 87
1, 95438, Control_c, 0, 64, 88
1, 95445, Note_off_c, 0, 63, 57
1, 95449, Note_off_c, 0, 54, 54
1, 95473, Note_off_c, 0, 75, 59
1, 95478, Note_off_c, 0, 78, 60
1, 95494, Note_off_c, 0, 57, 58
1, 95502, Note_on_c, 0, 84, 75
1, 95548, Control_c, 0, 64, 87
1, 95563, Control_c, 0, 64, 87
1, 95578, Control_c, 0, 64, 83
1, 95593, Control_c, 0, 64, 75
1, 95603, Note_on_c, 0, 87, 71
1, 95608, Control_c, 0, 64, 61
1, 95621, Note_off_c, 0, 84, 54
1, 95622, Note_on_c, 0, 54, 36
1, 95622, Control_c, 0, 64, 0
1, 95644, Note_on_c, 0, 63, 26
1, 95646, Note_on_c, 0, 56, 40
1, 95683, Note_on_c, 0, 78, 62
1, 95722, Note_off_c, 0, 87, 61
1, 95727, Control_c, 0, 64, 63
1, 95741, Control_c, 0, 64, 69
1, 95754, Note_off_c, 0, 54, 55
1, 95756, Control_c, 0, 64, 75
1, 95771, Control_c, 0, 64, 79
1, 95774, Note_on_c, 0, 75, 55
1, 95780, Note_off_c, 0, 78, 57
1, 95786, Control_c, 0, 64, 81
1, 95790, Note_off_c, 0, 63, 42
1, 95809, Note_off_c, 0, 56, 30
1, 95834, Note_off_c, 0, 75, 63
1, 95873, Note_on_c, 0, 85, 64
1, 95934, Control_c, 0, 64, 80
1, 95948, Control_c, 0, 64, 76
1, 95959, Note_on_c, 0, 84, 79
1, 95963, Control_c, 0, 64, 69
1, 95978, Control_c, 0, 64, 0
1, 95979, Note_on_c, 0, 57, 53
1, 95981, Note_on_c, 0, 63, 50
1, 95987, Note_off_c, 0, 85, 65
1, 96001, Note_on_c, 0, 54, 45
1, 96045, Note_on_c, 0, 78, 75
1, 96082, Note_off_c, 0, 84, 60
1, 96096, Control_c, 0, 64, 41
1, 96112, Control_c, 0, 64, 67
1, 96125, Note_on_c, 0, 75, 69
1, 96127, Control_c, 0, 64, 72
1, 96142, Control_c, 0, 64, 76
1, 96156, Control_c, 0, 64, 78
1, 96160, Note_off_c, 0, 54, 54
1, 96166, Note_off_c, 0, 63, 55
1, 96171, Control_c, 0, 64, 79
1, 96186, Control_c, 0, 64, 79
1, 96187, Note_off_c, 0, 78, 62
1, 96197, Note_on_c, 0, 84, 79
1, 96201, Note_off_c, 0, 75, 61
1, 96260, Control_c, 0, 64, 79
1, 96272, Note_off_c, 0, 57, 48
1, 96275, Control_c, 0, 64, 76
1, 96297, Control_c, 0, 64, 68
1, 96312, Control_c, 0, 64, 0
1, 96316, Note_on_c, 0, 87, 77
1, 96320, Note_on_c, 0, 56, 43
1, 96323, Note_on_c, 0, 54, 39
1, 96329, Note_on_c, 0, 63, 37
1, 96339, Note_off_c, 0, 84, 62
1, 96396, Note_on_c, 0, 78, 70
1, 96431, Note_off_c, 0, 87, 60
1, 96489, Note_off_c, 0, 63, 41
1, 96490, Note_off_c, 0, 56, 41
1, 96493, Note_off_c, 0, 78, 59
1, 96512, Note_off_c, 0, 54, 40
1, 96559, Note_on_c, 0, 87, 62
1, 96633, Note_off_c, 0, 87, 59
1, 96644, Note_on_c, 0, 80, 60
1, 96719, Note_on_c, 0, 78, 59
1, 96739, Note_off_c, 0, 80, 56
1, 96792, Note_off_c, 0, 78, 56
1, 96802, Note_on_c, 0, 75, 39
1, 96841, Note_off_c, 0, 75, 51
1, 96870, Note_on_c, 0, 80, 49
1, 96970, Note_on_c, 0, 82, 54
1, 96972, Note_off_c, 0, 80, 61
1, 96991, Note_on_c, 0, 58, 36
1, 97003, Note_on_c, 0, 63, 26
1, 97012, Note_on_c, 0, 54, 35
1, 97025, Control_c, 0, 64, 49
1, 97047, Control_c, 0, 64, 65
1, 97062, Control_c, 0, 64, 69
1, 97074, Note_on_c, 0, 78, 50
1, 97077, Control_c, 0, 64, 75
1, 97078, Note_off_c, 0, 82, 49
1, 97092, Control_c, 0, 64, 79
1, 97107, Control_c, 0, 64, 82
1, 97121, Control_c, 0, 64, 84
1, 97136, Control_c, 0, 64, 85
1, 97151, Control_c, 0, 64, 86
1, 97157, Note_off_c, 0, 58, 55
1, 97164, Note_on_c, 0, 75, 37
1, 97165, Note_off_c, 0, 78, 56
1, 97166, Control_c, 0, 64, 86
1, 97172, Note_off_c, 0, 54, 42
1, 97190, Note_off_c, 0, 75, 54
1, 97216, Note_off_c, 0, 63, 36
1, 97241, Note_on_c, 0, 82, 50
1, 97299, Control_c, 0, 64, 85
1, 97313, Control_c, 0, 64, 84
1, 97328, Control_c, 0, 64, 79
1, 97342, Note_on_c, 0, 84, 59
1, 97343, Control_c, 0, 64, 72
1, 97345, Note_on_c, 0, 63, 38
1, 97348, Note_on_c, 0, 57, 42
1, 97350, Note_on_c, 0, 54, 36
1, 97358, Control_c, 0, 64, 46
1, 97362, Note_off_c, 0, 82, 42
1, 97373, Control_c, 0, 64, 0
1, 97430, Note_off_c, 0, 84, 58
1, 97432, Control_c, 0, 64, 58
1, 97441, Note_on_c, 0, 78, 52
1, 97447, Control_c, 0, 64, 66
1, 97462, Control_c, 0, 64, 71
1, 97475, Control_c, 0, 64, 78
1, 97490, Control_c, 0, 64, 82
1, 97504, Control_c, 0, 64, 84
1, 97519, Control_c, 0, 64, 84
1, 97531, Note_off_c, 0, 54, 40
1, 97534, Note_off_c, 0, 78, 53
1, 97540, Note_off_c, 0, 63, 41
1, 97542, Note_on_c, 0, 75, 32
1, 97576, Note_off_c, 0, 75, 46
1, 97607, Note_on_c, 0, 84, 57
1, 97638, Control_c, 0, 64, 84
1, 97648, Note_off_c, 0, 57, 38
1, 97652, Control_c, 0, 64, 82
1, 97667, Control_c, 0, 64, 78
1, 97682, Note_on_c, 0, 54, 30
1, 97682, Control_c, 0, 64, 70
1, 97686, Note_off_c, 0, 84, 60
1, 97697, Control_c, 0, 64, 41
1, 97700, Note_on_c, 0, 87, 61
1, 97706, Note_on_c, 0, 63, 20
1, 97709, Note_on_c, 0, 56, 39
1, 97713, Control_c, 0, 64, 0
1, 97793, Note_on_c, 0, 78, 54
1, 97795, Control_c, 0, 64, 57
1, 97810, Note_off_c, 0, 87, 58
1, 97810, Control_c, 0, 64, 66
1, 97824, Control_c, 0, 64, 70
1, 97839, Control_c, 0, 64, 77
1, 97854, Control_c, 0, 64, 80
1, 97869, Control_c, 0, 64, 81
1, 97880, Note_on_c, 0, 75, 50
1, 97885, Note_off_c, 0, 54, 32
1, 97912, Note_off_c, 0, 63, 41
1, 97912, Note_off_c, 0, 78, 38
1, 97948, Note_off_c, 0, 75, 53
1, 97954, Note_on_c, 0, 85, 62
1, 98002, Control_c, 0, 64, 80
1, 98016, Control_c, 0, 64, 77
1, 98031, Control_c, 0, 64, 69
1, 98036, Note_off_c, 0, 56, 40
1, 98046, Control_c, 0, 64, 0
1, 98050, Note_on_c, 0, 84, 74
1, 98054, Note_on_c, 0, 63, 50
1, 98056, Note_on_c, 0, 57, 52
1, 98064, Note_on_c, 0, 54, 41
1, 98070, Note_off_c, 0, 85, 62
1, 98129, Note_on_c, 0, 78, 68
1, 98150, Control_c, 0, 64, 51
1, 98165, Control_c, 0, 64, 66
1, 98168, Note_off_c, 0, 84, 57
1, 98180, Control_c, 0, 64, 71
1, 98195, Control_c, 0, 64, 76
1, 98209, Control_c, 0, 64, 80
1, 98217, Note_on_c, 0, 75, 67
1, 98224, Control_c, 0, 64, 81
1, 98249, Note_off_c, 0, 54, 39
1, 98253, Control_c, 0, 64, 81
1, 98267, Note_off_c, 0, 63, 37
1, 98285, Note_off_c, 0, 78, 62
1, 98294, Note_on_c, 0, 84, 74
1, 98324, Note_off_c, 0, 75, 41
1, 98327, Control_c, 0, 64, 81
1, 98342, Control_c, 0, 64, 79
1, 98357, Control_c, 0, 64, 73
1, 98372, Control_c, 0, 64, 57
1, 98387, Control_c, 0, 64, 0
1, 98388, Note_off_c, 0, 57, 59
1, 98389, Note_on_c, 0, 87, 83
1, 98392, Note_on_c, 0, 63, 48
1, 98395, Note_on_c, 0, 54, 40
1, 98403, Note_on_c, 0, 56, 50
1, 98433, Note_off_c, 0, 84, 57
1, 98460, Note_on_c, 0, 78, 68
1, 98475, Control_c, 0, 64, 64
1, 98490, Control_c, 0, 64, 71
1, 98506, Control_c, 0, 64, 78
1, 98521, Control_c, 0, 64, 82
1, 98544, Control_c, 0, 64, 83
1, 98544, Note_off_c, 0, 87, 62
1, 98558, Note_on_c, 0, 75, 76
1, 98559, Control_c, 0, 64, 83
1, 98568, Note_off_c, 0, 54, 54
1, 98601, Note_off_c, 0, 78, 57
1, 98612, Note_off_c, 0, 63, 37
1, 98631, Note_off_c, 0, 75, 63
1, 98640, Note_on_c, 0, 85, 79
1, 98662, Control_c, 0, 64, 83
1, 98677, Control_c, 0, 64, 81
1, 98691, Control_c, 0, 64, 74
1, 98704, Note_off_c, 0, 56, 59
1, 98706, Control_c, 0, 64, 63
1, 98721, Control_c, 0, 64, 0
1, 98729, Note_on_c, 0, 84, 88
1, 98733, Note_on_c, 0, 57, 55
1, 98746, Note_on_c, 0, 54, 38
1, 98747, Note_on_c, 0, 63, 52
1, 98761, Note_off_c, 0, 85, 64
1, 98815, Note_on_c, 0, 78, 81
1, 98825, Control_c, 0, 64, 56
1, 98839, Control_c, 0, 64, 68
1, 98854, Control_c, 0, 64, 74
1, 98869, Control_c, 0, 64, 80
1, 98874, Note_off_c, 0, 84, 58
1, 98884, Control_c, 0, 64, 82
1, 98890, Note_on_c, 0, 75, 73
1, 98899, Control_c, 0, 64, 83
1, 98913, Control_c, 0, 64, 83
1, 98921, Note_off_c, 0, 63, 48
1, 98943, Note_off_c, 0, 54, 41
1, 98952, Note_off_c, 0, 78, 57
1, 98972, Note_on_c, 0, 84, 84
1, 99002, Note_off_c, 0, 75, 48
1, 99018, Control_c, 0, 64, 82
1, 99032, Control_c, 0, 64, 77
1, 99047, Control_c, 0, 64, 67
1, 99052, Note_off_c, 0, 57, 52
1, 99062, Note_on_c, 0, 87, 79
1, 99062, Control_c, 0, 64, 0
1, 99064, Note_on_c, 0, 63, 37
1, 99067, Note_on_c, 0, 54, 36
1, 99071, Note_on_c, 0, 56, 39
1, 99092, Note_off_c, 0, 84, 62
1, 99139, Note_on_c, 0, 78, 76
1, 99170, Note_off_c, 0, 87, 61
1, 99223, Note_off_c, 0, 56, 36
1, 99226, Note_on_c, 0, 75, 60
1, 99239, Note_off_c, 0, 78, 57
1, 99246, Note_off_c, 0, 63, 42
1, 99265, Note_off_c, 0, 54, 38
1, 99274, Note_off_c, 0, 75, 57
1, 99307, Note_on_c, 0, 87, 58
1, 99378, Note_off_c, 0, 87, 55
1, 99387, Note_on_c, 0, 80, 60
1, 99471, Note_on_c, 0, 78, 59
1, 99474, Note_off_c, 0, 80, 56
1, 99545, Note_off_c, 0, 78, 56
1, 99560, Note_on_c, 0, 75, 36
1, 99602, Note_off_c, 0, 75, 50
1, 99611, Note_on_c, 0, 80, 46
1, 99692, Control_c, 0, 64, 32
1, 99706, Note_on_c, 0, 82, 52
1, 99706, Control_c, 0, 64, 44
1, 99713, Note_off_c, 0, 80, 45
1, 99721, Note_on_c, 0, 58, 34
1, 99721, Control_c, 0, 64, 51
1, 99734, Note_on_c, 0, 63, 33
1, 99736, Control_c, 0, 64, 58
1, 99751, Control_c, 0, 64, 63
1, 99766, Control_c, 0, 64, 66
1, 99781, Control_c, 0, 64, 68
1, 99796, Control_c, 0, 64, 70
1, 99802, Note_on_c, 0, 78, 47
1, 99803, Poly_aftertouch_c, 0, 54, 127
1, 99811, Control_c, 0, 64, 73
1, 99826, Control_c, 0, 64, 75
1, 99827, Note_off_c, 0, 82, 36
1, 99840, Control_c, 0, 64, 76
1, 99855, Control_c, 0, 64, 77
1, 99870, Control_c, 0, 64, 77
1, 99879, Note_off_c, 0, 78, 52
1, 99884, Note_on_c, 0, 75, 34
1, 99912, Note_off_c, 0, 63, 40
1, 99934, Poly_aftertouch_c, 0, 54, 0
1, 99937, Note_off_c, 0, 75, 43
1, 99946, Note_on_c, 0, 82, 53
1, 100003, Control_c, 0, 64, 77
1, 100011, Note_off_c, 0, 58, 27
1, 100018, Control_c, 0, 64, 75
1, 100040, Control_c, 0, 64, 72
1, 100055, Control_c, 0, 64, 66
1, 100070, Control_c, 0, 64, 39
1, 100073, Note_on_c, 0, 63, 38
1, 100073, Note_on_c, 0, 84, 47
1, 100085, Control_c, 0, 64, 0
1, 100088, Note_on_c, 0, 54, 34
1, 100107, Note_on_c, 0, 56, 39
1, 100148, Note_off_c, 0, 82, 46
1, 100159, Control_c, 0, 64, 51
1, 100174, Note_on_c, 0, 80, 51
1, 100174, Control_c, 0, 64, 63
1, 100189, Control_c, 0, 64, 66
1, 100200, Note_off_c, 0, 84, 57
1, 100204, Control_c, 0, 64, 68
1, 100219, Control_c, 0, 64, 71
1, 100233, Note_off_c, 0, 54, 52
1, 100234, Control_c, 0, 64, 74
1, 100249, Control_c, 0, 64, 75
1, 100264, Control_c, 0, 64, 76
1, 100276, Note_on_c, 0, 75, 35
1, 100293, Note_off_c, 0, 80, 50
1, 100304, Note_off_c, 0, 63, 35
1, 100332, Note_off_c, 0, 56, 37
1, 100353, Note_on_c, 0, 84, 43
1, 100411, Control_c, 0, 64, 75
1, 100441, Control_c, 0, 64, 75
1, 100455, Control_c, 0, 64, 74
1, 100470, Control_c, 0, 64, 73
1, 100473, Note_on_c, 0, 85, 49
1, 100484, Note_off_c, 0, 84, 41
1, 100485, Control_c, 0, 64, 71
1, 100487, Note_on_c, 0, 61, 39
1, 100489, Note_on_c, 0, 53, 38
1, 100491, Note_on_c, 0, 56, 24
1, 100500, Control_c, 0, 64, 68
1, 100514, Note_off_c, 0, 75, 23
1, 100515, Control_c, 0, 64, 54
1, 100529, Control_c, 0, 64, 0
1, 100586, Note_on_c, 0, 80, 48
1, 100594, Note_off_c, 0, 85, 49
1, 100604, Control_c, 0, 64, 38
1, 100618, Control_c, 0, 64, 60
1, 100633, Control_c, 0, 64, 64
1, 100648, Control_c, 0, 64, 66
1, 100663, Control_c, 0, 64, 68
1, 100673, Note_on_c, 0, 73, 35
1, 100678, Control_c, 0, 64, 70
1, 100679, Note_off_c, 0, 80, 52
1, 100684, Note_off_c, 0, 61, 54
1, 100685, Note_off_c, 0, 53, 40
1, 100693, Control_c, 0, 64, 73
1, 100708, Control_c, 0, 64, 75
1, 100723, Control_c, 0, 64, 76
1, 100726, Note_off_c, 0, 56, 34
1, 100735, Note_on_c, 0, 85, 55
1, 100737, Control_c, 0, 64, 76
1, 100776, Note_off_c, 0, 73, 30
1, 100776, Note_off_c, 0, 85, 62
1, 100845, Note_on_c, 0, 85, 63
1, 100851, Note_on_c, 0, 53, 34
1, 100853, Note_on_c, 0, 56, 28
1, 100855, Note_on_c, 0, 61, 41
1, 100916, Note_on_c, 0, 80, 61
1, 100917, Note_off_c, 0, 85, 59
1, 100982, Control_c, 0, 64, 76
1, 100997, Note_off_c, 0, 53, 40
1, 100997, Note_off_c, 0, 61, 50
1, 101014, Note_off_c, 0, 80, 54
1, 101019, Note_on_c, 0, 73, 46
1, 101022, Note_off_c, 0, 56, 38
1, 101072, Control_c, 0, 64, 75
1, 101085, Note_on_c, 0, 85, 59
1, 101100, Note_off_c, 0, 73, 41
1, 101109, Note_off_c, 0, 85, 58
1, 101180, Note_on_c, 0, 85, 73
1, 101188, Note_on_c, 0, 61, 44
1, 101189, Note_on_c, 0, 53, 50
1, 101190, Control_c, 0, 64, 75
1, 101201, Note_on_c, 0, 56, 42
1, 101259, Note_on_c, 0, 80, 63
1, 101268, Note_off_c, 0, 85, 58
1, 101298, Note_off_c, 0, 56, 57
1, 101301, Note_off_c, 0, 53, 59
1, 101323, Control_c, 0, 64, 74
1, 101341, Note_off_c, 0, 61, 31
1, 101345, Note_off_c, 0, 80, 59
1, 101349, Note_on_c, 0, 73, 50
1, 101382, Control_c, 0, 64, 74
1, 101429, Note_on_c, 0, 85, 67
1, 101467, Note_off_c, 0, 73, 42
1, 101471, Control_c, 0, 64, 73
1, 101476, Note_off_c, 0, 85, 60
1, 101538, Control_c, 0, 64, 73
1, 101542, Note_on_c, 0, 85, 60
1, 101553, Control_c, 0, 64, 71
1, 101558, Note_on_c, 0, 55, 49
1, 101560, Note_on_c, 0, 61, 47
1, 101567, Control_c, 0, 64, 66
1, 101570, Note_on_c, 0, 52, 54
1, 101582, Control_c, 0, 64, 42
1, 101597, Control_c, 0, 64, 0
1, 101626, Note_on_c, 0, 79, 63
1, 101647, Note_off_c, 0, 85, 55
1, 101671, Control_c, 0, 64, 58
1, 101686, Control_c, 0, 64, 64
1, 101701, Control_c, 0, 64, 67
1, 101716, Control_c, 0, 64, 70
1, 101731, Control_c, 0, 64, 73
1, 101746, Control_c, 0, 64, 76
1, 101748, Note_on_c, 0, 73, 55
1, 101760, Note_off_c, 0, 79, 56
1, 101761, Control_c, 0, 64, 77
1, 101764, Note_off_c, 0, 55, 59
1, 101765, Note_off_c, 0, 52, 56
1, 101799, Note_off_c, 0, 61, 49
1, 101814, Note_on_c, 0, 85, 70
1, 101864, Note_off_c, 0, 85, 65
1, 101891, Note_off_c, 0, 73, 29
1, 101894, Control_c, 0, 64, 77
1, 101913, Note_on_c, 0, 85, 67
1, 101917, Note_on_c, 0, 52, 58
1, 101918, Note_on_c, 0, 55, 57
1, 101924, Control_c, 0, 64, 76
1, 101926, Note_on_c, 0, 61, 66
1, 101939, Control_c, 0, 64, 72
1, 101954, Control_c, 0, 64, 65
1, 101969, Control_c, 0, 64, 26
1, 101979, Note_off_c, 0, 85, 59
1, 101983, Control_c, 0, 64, 0
1, 102003, Note_on_c, 0, 79, 70
1, 102013, Control_c, 0, 64, 27
1, 102027, Control_c, 0, 64, 58
1, 102042, Control_c, 0, 64, 64
1, 102057, Control_c, 0, 64, 68
1, 102072, Control_c, 0, 64, 71
1, 102087, Control_c, 0, 64, 74
1, 102101, Control_c, 0, 64, 77
1, 102107, Note_on_c, 0, 73, 62
1, 102116, Control_c, 0, 64, 78
1, 102124, Note_off_c, 0, 79, 52
1, 102139, Note_off_c, 0, 55, 61
1, 102140, Note_off_c, 0, 52, 54
1, 102142, Note_off_c, 0, 61, 49
1, 102161, Note_on_c, 0, 85, 79
1, 102213, Note_off_c, 0, 85, 64
1, 102243, Note_off_c, 0, 73, 32
1, 102279, Note_on_c, 0, 85, 77
1, 102287, Control_c, 0, 64, 78
1, 102293, Note_on_c, 0, 61, 61
1, 102296, Note_on_c, 0, 52, 66
1, 102297, Note_on_c, 0, 55, 63
1, 102302, Control_c, 0, 64, 76
1, 102316, Control_c, 0, 64, 70
1, 102331, Control_c, 0, 64, 46
1, 102346, Control_c, 0, 64, 0
1, 102363, Note_on_c, 0, 79, 73
1, 102388, Note_off_c, 0, 85, 62
1, 102390, Control_c, 0, 64, 60
1, 102405, Control_c, 0, 64, 66
1, 102420, Control_c, 0, 64, 71
1, 102434, Control_c, 0, 64, 75
1, 102440, Note_off_c, 0, 52, 60
1, 102449, Control_c, 0, 64, 79
1, 102460, Note_on_c, 0, 73, 70
1, 102463, Note_off_c, 0, 79, 61
1, 102464, Control_c, 0, 64, 80
1, 102469, Note_off_c, 0, 55, 64
1, 102479, Note_off_c, 0, 61, 49
1, 102509, Note_off_c, 0, 73, 61
1, 102531, Note_on_c, 0, 85, 83
1, 102566, Note_off_c, 0, 85, 59
1, 102584, Control_c, 0, 64, 80
1, 102598, Control_c, 0, 64, 79
1, 102613, Control_c, 0, 64, 73
1, 102619, Note_on_c, 0, 85, 89
1, 102628, Control_c, 0, 64, 62
1, 102633, Note_on_c, 0, 52, 63
1, 102635, Note_on_c, 0, 61, 71
1, 102640, Note_on_c, 0, 55, 66
1, 102643, Control_c, 0, 64, 0
1, 102687, Control_c, 0, 64, 47
1, 102702, Control_c, 0, 64, 66
1, 102709, Note_on_c, 0, 79, 76
1, 102711, Note_off_c, 0, 61, 62
1, 102717, Control_c, 0, 64, 72
1, 102732, Control_c, 0, 64, 79
1, 102747, Control_c, 0, 64, 83
1, 102748, Note_off_c, 0, 55, 64
1, 102752, Note_off_c, 0, 85, 62
1, 102761, Note_off_c, 0, 52, 65
1, 102762, Control_c, 0, 64, 84
1, 102777, Control_c, 0, 64, 84
1, 102801, Note_on_c, 0, 73, 82
1, 102809, Note_off_c, 0, 79, 62
1, 102878, Note_off_c, 0, 73, 0
1, 102884, Note_on_c, 0, 85, 88
1, 102916, Poly_aftertouch_c, 0, 73, 127
1, 102923, Note_on_c, 0, 73, 7
1, 102935, Note_off_c, 0, 85, 64
1, 102939, Control_c, 0, 64, 84
1, 102954, Control_c, 0, 64, 81
1, 102969, Control_c, 0, 64, 73
1, 102982, Note_off_c, 0, 73, 44
1, 102984, Control_c, 0, 64, 32
1, 102991, Note_on_c, 0, 85, 89
1, 102994, Note_on_c, 0, 45, 68
1, 102997, Note_on_c, 0, 55, 71
1, 102999, Control_c, 0, 64, 0
1, 103000, Note_on_c, 0, 52, 73
1, 103002, Note_on_c, 0, 49, 69
1, 103099, Note_on_c, 0, 79, 77
1, 103111, Control_c, 0, 64, 62
1, 103125, Control_c, 0, 64, 71
1, 103140, Control_c, 0, 64, 78
1, 103141, Note_off_c, 0, 85, 63
1, 103155, Control_c, 0, 64, 83
1, 103163, Note_off_c, 0, 49, 59
1, 103170, Note_off_c, 0, 45, 63
1, 103170, Control_c, 0, 64, 85
1, 103177, Note_on_c, 0, 73, 74
1, 103183, Note_off_c, 0, 52, 62
1, 103185, Control_c, 0, 64, 86
1, 103197, Note_off_c, 0, 79, 59
1, 103257, Note_off_c, 0, 55, 34
1, 103258, Note_on_c, 0, 85, 78
1, 103263, Note_off_c, 0, 73, 42
1, 103279, Note_off_c, 0, 85, 69
1, 103334, Control_c, 0, 64, 85
1, 103340, Note_on_c, 0, 85, 94
1, 103343, Note_on_c, 0, 45, 70
1, 103349, Control_c, 0, 64, 82
1, 103351, Note_on_c, 0, 55, 79
1, 103355, Note_on_c, 0, 49, 65
1, 103358, Note_on_c, 0, 52, 65
1, 103363, Control_c, 0, 64, 73
1, 103378, Control_c, 0, 64, 0
1, 103435, Note_on_c, 0, 79, 73
1, 103482, Control_c, 0, 64, 64
1, 103488, Note_off_c, 0, 85, 62
1, 103497, Control_c, 0, 64, 72
1, 103512, Control_c, 0, 64, 80
1, 103520, Note_off_c, 0, 49, 56
1, 103521, Note_on_c, 0, 73, 75
1, 103527, Control_c, 0, 64, 86
1, 103530, Note_off_c, 0, 55, 57
1, 103531, Note_off_c, 0, 79, 59
1, 103533, Note_off_c, 0, 52, 55
1, 103540, Note_off_c, 0, 45, 63
1, 103542, Control_c, 0, 64, 91
1, 103556, Control_c, 0, 64, 93
1, 103571, Control_c, 0, 64, 95
1, 103586, Control_c, 0, 64, 96
1, 103593, Note_on_c, 0, 85, 88
1, 103608, Note_off_c, 0, 73, 59
1, 103635, Note_off_c, 0, 85, 64
1, 103674, Control_c, 0, 64, 95
1, 103680, Note_on_c, 0, 85, 86
1, 103689, Control_c, 0, 64, 89
1, 103692, Note_on_c, 0, 45, 72
1, 103696, Note_on_c, 0, 55, 74
1, 103701, Note_on_c, 0, 52, 73
1, 103704, Control_c, 0, 64, 78
1, 103705, Note_on_c, 0, 49, 68
1, 103719, Control_c, 0, 64, 59
1, 103734, Control_c, 0, 64, 0
1, 103783, Note_on_c, 0, 79, 77
1, 103801, Control_c, 0, 64, 63
1, 103816, Control_c, 0, 64, 71
1, 103830, Control_c, 0, 64, 80
1, 103844, Note_off_c, 0, 85, 63
1, 103845, Control_c, 0, 64, 86
1, 103860, Control_c, 0, 64, 88
1, 103862, Note_off_c, 0, 45, 57
1, 103871, Note_on_c, 0, 73, 76
1, 103877, Note_off_c, 0, 49, 61
1, 103885, Note_off_c, 0, 79, 58
1, 103889, Control_c, 0, 64, 89
1, 103919, Note_off_c, 0, 55, 37
1, 103920, Note_off_c, 0, 52, 59
1, 103949, Note_on_c, 0, 85, 84
1, 103996, Note_off_c, 0, 85, 64
1, 104008, Control_c, 0, 64, 85
1, 104023, Control_c, 0, 64, 76
1, 104038, Control_c, 0, 64, 57
1, 104040, Note_on_c, 0, 85, 85
1, 104048, Note_on_c, 0, 52, 66
1, 104049, Note_on_c, 0, 55, 74
1, 104052, Control_c, 0, 64, 0
1, 104055, Note_on_c, 0, 45, 65
1, 104059, Note_on_c, 0, 49, 69
1, 104076, Note_off_c, 0, 73, 26
1, 104097, Control_c, 0, 64, 66
1, 104112, Control_c, 0, 64, 74
1, 104127, Control_c, 0, 64, 83
1, 104132, Note_off_c, 0, 45, 63
1, 104137, Note_off_c, 0, 55, 61
1, 104142, Control_c, 0, 64, 88
1, 104157, Note_off_c, 0, 49, 62
1, 104157, Control_c, 0, 64, 89
1, 104160, Note_on_c, 0, 79, 73
1, 104162, Note_off_c, 0, 52, 64
1, 104172, Control_c, 0, 64, 90
1, 104224, Note_off_c, 0, 85, 63
1, 104235, Note_on_c, 0, 73, 67
1, 104251, Note_off_c, 0, 79, 56
1, 104308, Note_on_c, 0, 85, 84
1, 104365, Control_c, 0, 64, 89
1, 104368, Note_off_c, 0, 85, 64
1, 104379, Control_c, 0, 64, 86
1, 104394, Control_c, 0, 64, 79
1, 104409, Control_c, 0, 64, 66
1, 104421, Note_on_c, 0, 85, 85
1, 104423, Control_c, 0, 64, 0
1, 104441, Note_on_c, 0, 65, 77
1, 104445, Note_on_c, 0, 56, 67
1, 104477, Note_off_c, 0, 73, 51
1, 104512, Control_c, 0, 64, 63
1, 104535, Control_c, 0, 64, 72
1, 104536, Note_on_c, 0, 78, 74
1, 104550, Control_c, 0, 64, 79
1, 104553, Note_off_c, 0, 65, 62
1, 104555, Note_on_c, 0, 63, 68
1, 104565, Control_c, 0, 64, 85
1, 104579, Control_c, 0, 64, 87
1, 104592, Note_off_c, 0, 85, 62
1, 104609, Control_c, 0, 64, 87
1, 104618, Note_on_c, 0, 73, 73
1, 104630, Note_off_c, 0, 63, 63
1, 104631, Note_off_c, 0, 78, 62
1, 104636, Note_on_c, 0, 65, 70
1, 104684, Note_on_c, 0, 85, 82
1, 104696, Note_off_c, 0, 73, 55
1, 104699, Note_off_c, 0, 65, 63
1, 104702, Note_on_c, 0, 63, 68
1, 104727, Control_c, 0, 64, 87
1, 104730, Note_off_c, 0, 85, 65
1, 104742, Control_c, 0, 64, 86
1, 104757, Control_c, 0, 64, 82
1, 104762, Note_on_c, 0, 65, 68
1, 104766, Note_off_c, 0, 63, 63
1, 104771, Control_c, 0, 64, 74
1, 104775, Note_on_c, 0, 85, 83
1, 104786, Control_c, 0, 64, 59
1, 104801, Control_c, 0, 64, 0
1, 104822, Note_on_c, 0, 63, 63
1, 104828, Note_off_c, 0, 65, 65
1, 104857, Note_on_c, 0, 78, 73
1, 104860, Control_c, 0, 64, 59
1, 104875, Control_c, 0, 64, 67
1, 104887, Note_on_c, 0, 65, 69
1, 104890, Control_c, 0, 64, 71
1, 104896, Note_off_c, 0, 63, 61
1, 104906, Note_off_c, 0, 85, 65
1, 104906, Control_c, 0, 64, 77
1, 104920, Control_c, 0, 64, 79
1, 104928, Note_on_c, 0, 73, 74
1, 104938, Note_on_c, 0, 63, 48
1, 104956, Note_off_c, 0, 65, 63
1, 104959, Note_off_c, 0, 78, 58
1, 104978, Note_off_c, 0, 73, 61
1, 104981, Note_on_c, 0, 85, 78
1, 105010, Note_on_c, 0, 65, 63
1, 105012, Note_off_c, 0, 63, 64
1, 105024, Note_off_c, 0, 85, 67
1, 105039, Control_c, 0, 64, 78
1, 105053, Control_c, 0, 64, 76
1, 105061, Note_on_c, 0, 63, 62
1, 105067, Note_on_c, 0, 84, 88
1, 105068, Control_c, 0, 64, 68
1, 105072, Note_off_c, 0, 65, 62
1, 105083, Control_c, 0, 64, 0
1, 105130, Note_on_c, 0, 65, 58
1, 105137, Note_off_c, 0, 63, 65
1, 105156, Note_on_c, 0, 78, 76
1, 105172, Control_c, 0, 64, 63
1, 105179, Note_on_c, 0, 63, 56
1, 105187, Control_c, 0, 64, 68
1, 105191, Note_off_c, 0, 65, 63
1, 105201, Control_c, 0, 64, 73
1, 105216, Control_c, 0, 64, 77
1, 105218, Note_off_c, 0, 84, 52
1, 105231, Control_c, 0, 64, 78
1, 105233, Note_on_c, 0, 72, 75
1, 105236, Note_off_c, 0, 78, 63
1, 105257, Note_off_c, 0, 63, 65
1, 105261, Note_on_c, 0, 65, 66
1, 105310, Note_off_c, 0, 72, 59
1, 105312, Note_on_c, 0, 63, 60
1, 105319, Note_off_c, 0, 65, 63
1, 105324, Note_on_c, 0, 84, 83
1, 105351, Note_off_c, 0, 84, 62
1, 105387, Control_c, 0, 64, 77
1, 105389, Note_off_c, 0, 63, 65
1, 105397, Note_on_c, 0, 65, 65
1, 105401, Control_c, 0, 64, 77
1, 105416, Control_c, 0, 64, 76
1, 105419, Note_on_c, 0, 84, 92
1, 105431, Control_c, 0, 64, 74
1, 105446, Control_c, 0, 64, 70
1, 105460, Note_on_c, 0, 63, 66
1, 105460, Control_c, 0, 64, 63
1, 105462, Note_off_c, 0, 65, 64
1, 105475, Control_c, 0, 64, 0
1, 105499, Note_on_c, 0, 78, 77
1, 105564, Control_c, 0, 64, 58
1, 105573, Note_off_c, 0, 84, 57
1, 105579, Control_c, 0, 64, 68
1, 105582, Note_off_c, 0, 63, 64
1, 105591, Note_on_c, 0, 61, 63
1, 105594, Control_c, 0, 64, 73
1, 105603, Note_on_c, 0, 72, 84
1, 105609, Control_c, 0, 64, 77
1, 105615, Note_off_c, 0, 78, 63
1, 105623, Control_c, 0, 64, 79
1, 105638, Control_c, 0, 64, 80
1, 105653, Control_c, 0, 64, 80
1, 105683, Note_off_c, 0, 56, 50
1, 105698, Note_off_c, 0, 61, 61
1, 105701, Note_on_c, 0, 84, 92
1, 105702, Note_off_c, 0, 72, 52
1, 105719, Note_on_c, 0, 63, 66
1, 105776, Note_off_c, 0, 63, 59
1, 105787, Note_off_c, 0, 84, 62
1, 105876, Control_c, 0, 64, 80
1, 105898, Note_on_c, 0, 85, 88
1, 105906, Note_on_c, 0, 77, 72
1, 105906, Control_c, 0, 64, 79
1, 105907, Note_on_c, 0, 73, 71
1, 105921, Control_c, 0, 64, 77
1, 105933, Note_on_c, 0, 61, 44
1, 105933, Note_on_c, 0, 49, 55
1, 105936, Control_c, 0, 64, 75
1, 105950, Control_c, 0, 64, 74
1, 105965, Control_c, 0, 64, 70
1, 105980, Control_c, 0, 64, 63
1, 105995, Control_c, 0, 64, 0
1, 106389, Note_off_c, 0, 49, 36
1, 106395, Note_off_c, 0, 73, 34
1, 106413, Note_off_c, 0, 61, 44
1, 106421, Note_off_c, 0, 85, 59
1, 106436, Note_off_c, 0, 77, 42
1, 106923, Note_on_c, 0, 61, 35
1, 106923, Note_on_c, 0, 77, 45
1, 107048, Note_on_c, 0, 63, 36
1, 107049, Note_on_c, 0, 73, 49
1, 107098, Note_off_c, 0, 77, 34
1, 107147, Note_off_c, 0, 63, 51
1, 107153, Note_on_c, 0, 65, 33
1, 107155, Note_off_c, 0, 73, 56
1, 107156, Note_on_c, 0, 68, 58
1, 107232, Note_off_c, 0, 65, 56
1, 107259, Note_off_c, 0, 61, 18
1, 107269, Note_on_c, 0, 66, 51
1, 107272, Note_on_c, 0, 70, 56
1, 107294, Note_off_c, 0, 68, 54
1, 107349, Note_off_c, 0, 66, 65
1, 107361, Note_off_c, 0, 70, 63
1, 107367, Note_on_c, 0, 73, 60
1, 107382, Note_on_c, 0, 61, 49
1, 107442, Note_off_c, 0, 61, 56
1, 107464, Note_on_c, 0, 70, 66
1, 107477, Note_on_c, 0, 66, 56
1, 107506, Note_off_c, 0, 73, 48
1, 107532, Note_off_c, 0, 66, 60
1, 107562, Note_off_c, 0, 70, 63
1, 107570, Note_on_c, 0, 68, 71
1, 107587, Note_on_c, 0, 65, 57
1, 107605, Note_on_c, 0, 61, 41
1, 107676, Note_off_c, 0, 68, 57
1, 107680, Note_on_c, 0, 73, 71
1, 107755, Note_off_c, 0, 65, 49
1, 107779, Note_on_c, 0, 75, 76
1, 107785, Note_off_c, 0, 73, 64
1, 107849, Note_off_c, 0, 61, 60
1, 107871, Note_off_c, 0, 75, 67
1, 107877, Note_on_c, 0, 77, 76
1, 107978, Note_on_c, 0, 73, 79
1, 107987, Note_off_c, 0, 77, 60
1, 108076, Note_on_c, 0, 80, 80
1, 108125, Note_off_c, 0, 73, 56
1, 108188, Note_on_c, 0, 77, 79
1, 108193, Note_on_c, 0, 49, 59
1, 108231, Note_off_c, 0, 80, 60
1, 108294, Note_on_c, 0, 73, 73
1, 108295, Note_on_c, 0, 51, 64
1, 108317, Note_off_c, 0, 77, 55
1, 108324, Note_off_c, 0, 49, 55
1, 108379, Note_off_c, 0, 51, 63
1, 108396, Note_off_c, 0, 73, 62
1, 108397, Note_on_c, 0, 53, 58
1, 108397, Note_on_c, 0, 68, 70
1, 108500, Note_off_c, 0, 53, 64
1, 108509, Note_on_c, 0, 44, 39
1, 108512, Note_on_c, 0, 66, 59
1, 108523, Note_off_c, 0, 68, 59
1, 108532, Note_on_c, 0, 54, 41
1, 108576, Note_off_c, 0, 54, 61
1, 108601, Note_on_c, 0, 51, 46
1, 108617, Note_off_c, 0, 66, 57
1, 108618, Note_on_c, 0, 63, 58
1, 108685, Note_off_c, 0, 51, 56
1, 108712, Note_on_c, 0, 56, 44
1, 108716, Note_off_c, 0, 63, 60
1, 108721, Note_off_c, 0, 44, 45
1, 108729, Note_on_c, 0, 68, 58
1, 108804, Note_off_c, 0, 56, 51
1, 108843, Note_on_c, 0, 53, 34
1, 108847, Note_off_c, 0, 68, 39
1, 108858, Note_on_c, 0, 49, 12
1, 108868, Note_on_c, 0, 65, 43
1, 109087, Note_off_c, 0, 53, 38
1, 109108, Note_off_c, 0, 65, 36
1, 109120, Note_off_c, 0, 49, 37
1, 109359, Note_on_c, 0, 68, 47
1, 109508, Note_off_c, 0, 68, 64
1, 109511, Note_on_c, 0, 73, 52
1, 109635, Note_on_c, 0, 75, 57
1, 109644, Note_off_c, 0, 73, 63
1, 109800, Note_on_c, 0, 77, 53
1, 109807, Note_on_c, 0, 61, 30
1, 109925, Note_on_c, 0, 63, 44
1, 109927, Note_off_c, 0, 75, 23
1, 109928, Note_on_c, 0, 73, 55
1, 109931, Note_off_c, 0, 77, 54
1, 109982, Note_off_c, 0, 61, 33
1, 110008, Note_off_c, 0, 73, 64
1, 110018, Note_off_c, 0, 63, 61
1, 110032, Note_on_c, 0, 65, 50
1, 110033, Note_on_c, 0, 68, 67
1, 110134, Note_off_c, 0, 65, 42
1, 110145, Note_on_c, 0, 70, 67
1, 110149, Note_off_c, 0, 68, 58
1, 110172, Note_on_c, 0, 66, 48
1, 110218, Note_off_c, 0, 66, 64
1, 110242, Note_on_c, 0, 73, 69
1, 110247, Note_off_c, 0, 70, 63
1, 110257, Note_on_c, 0, 61, 42
1, 110318, Note_off_c, 0, 61, 57
1, 110347, Note_on_c, 0, 70, 75
1, 110350, Note_on_c, 0, 66, 54
1, 110360, Note_off_c, 0, 73, 53
1, 110397, Note_off_c, 0, 66, 61
1, 110435, Note_off_c, 0, 70, 61
1, 110444, Note_on_c, 0, 68, 77
1, 110453, Note_on_c, 0, 65, 57
1, 110477, Note_on_c, 0, 61, 36
1, 110554, Note_on_c, 0, 73, 77
1, 110564, Note_off_c, 0, 68, 56
1, 110644, Note_on_c, 0, 75, 77
1, 110661, Note_off_c, 0, 65, 61
1, 110676, Note_off_c, 0, 73, 56
1, 110703, Note_off_c, 0, 61, 62
1, 110749, Note_on_c, 0, 77, 84
1, 110763, Note_off_c, 0, 75, 66
1, 110846, Note_on_c, 0, 73, 82
1, 110876, Note_off_c, 0, 77, 58
1, 110944, Note_on_c, 0, 80, 86
1, 110955, Note_off_c, 0, 73, 64
1, 110984, Note_on_c, 0, 78, 42
1, 110985, Note_off_c, 0, 78, 127
1, 111100, Note_on_c, 0, 74, 90
1, 111104, Note_off_c, 0, 80, 63
1, 111109, Note_on_c, 0, 65, 46
1, 111114, Note_on_c, 0, 58, 59
1, 111120, Note_on_c, 0, 68, 77
1, 111146, Control_c, 0, 64, 53
1, 111161, Control_c, 0, 64, 64
1, 111176, Control_c, 0, 64, 69
1, 111190, Control_c, 0, 64, 76
1, 111205, Control_c, 0, 64, 84
1, 111220, Control_c, 0, 64, 93
1, 111228, Note_off_c, 0, 65, 63
1, 111235, Control_c, 0, 64, 98
1, 111250, Control_c, 0, 64, 103
1, 111272, Control_c, 0, 64, 106
1, 111287, Control_c, 0, 64, 110
1, 111302, Control_c, 0, 64, 114
1, 111317, Control_c, 0, 64, 120
1, 111332, Control_c, 0, 64, 127
1, 111504, Note_off_c, 0, 68, 56
1, 111525, Control_c, 0, 64, 126
1, 111540, Control_c, 0, 64, 117
1, 111555, Control_c, 0, 64, 111
1, 111569, Control_c, 0, 64, 106
1, 111577, Note_on_c, 0, 75, 82
1, 111584, Control_c, 0, 64, 100
1, 111594, Note_on_c, 0, 66, 66
1, 111599, Control_c, 0, 64, 91
1, 111605, Note_off_c, 0, 74, 56
1, 111607, Note_on_c, 0, 51, 48
1, 111613, Control_c, 0, 64, 80
1, 111614, Note_on_c, 0, 63, 43
1, 111616, Note_off_c, 0, 58, 56
1, 111628, Control_c, 0, 64, 66
1, 111643, Control_c, 0, 64, 0
1, 111731, Note_off_c, 0, 66, 62
1, 111747, Note_off_c, 0, 51, 60
1, 111750, Note_off_c, 0, 63, 63
1, 111758, Note_off_c, 0, 75, 64
1, 112116, Note_on_c, 0, 72, 80
1, 112131, Note_on_c, 0, 66, 64
1, 112134, Note_on_c, 0, 56, 48
1, 112140, Note_on_c, 0, 63, 49
1, 112184, Control_c, 0, 64, 25
1, 112199, Control_c, 0, 64, 60
1, 112214, Control_c, 0, 64, 65
1, 112229, Control_c, 0, 64, 69
1, 112244, Control_c, 0, 64, 73
1, 112259, Control_c, 0, 64, 80
1, 112274, Control_c, 0, 64, 85
1, 112289, Control_c, 0, 64, 87
1, 112304, Control_c, 0, 64, 88
1, 112318, Control_c, 0, 64, 89
1, 112333, Control_c, 0, 64, 90
1, 112348, Control_c, 0, 64, 91
1, 112363, Control_c, 0, 64, 91
1, 112378, Control_c, 0, 64, 92
1, 112417, Note_off_c, 0, 63, 53
1, 112515, Note_off_c, 0, 66, 50
1, 112540, Control_c, 0, 64, 91
1, 112570, Control_c, 0, 64, 91
1, 112584, Control_c, 0, 64, 89
1, 112599, Control_c, 0, 64, 88
1, 112614, Control_c, 0, 64, 85
1, 112629, Control_c, 0, 64, 82
1, 112642, Note_off_c, 0, 56, 63
1, 112643, Control_c, 0, 64, 78
1, 112658, Control_c, 0, 64, 73
1, 112671, Note_off_c, 0, 72, 62
1, 112673, Control_c, 0, 64, 67
1, 112688, Control_c, 0, 64, 55
1, 112703, Control_c, 0, 64, 0
1, 113074, Note_on_c, 0, 44, 30
1, 113079, Note_on_c, 0, 54, 24
1, 113082, Note_on_c, 0, 66, 34
1, 113088, Note_on_c, 0, 51, 30
1, 113144, Note_off_c, 0, 66, 50
1, 113182, Note_on_c, 0, 68, 38
1, 113250, Note_off_c, 0, 68, 39
1, 113258, Note_on_c, 0, 66, 51
1, 113312, Note_off_c, 0, 66, 63
1, 113332, Note_on_c, 0, 65, 45
1, 113402, Note_off_c, 0, 65, 60
1, 113431, Note_on_c, 0, 66, 45
1, 113472, Note_off_c, 0, 66, 49
1, 113492, Note_on_c, 0, 75, 57
1, 113590, Note_off_c, 0, 75, 60
1, 113598, Note_on_c, 0, 73, 44
1, 113640, Note_off_c, 0, 73, 52
1, 113658, Note_on_c, 0, 72, 57
1, 113731, Note_off_c, 0, 51, 39
1, 113734, Note_off_c, 0, 72, 62
1, 113742, Note_off_c, 0, 54, 41
1, 113749, Note_on_c, 0, 73, 61
1, 113757, Note_on_c, 0, 49, 30
1, 113766, Note_on_c, 0, 53, 37
1, 113792, Note_off_c, 0, 44, 38
1, 113802, Control_c, 0, 64, 51
1, 113816, Control_c, 0, 64, 64
1, 113822, Note_off_c, 0, 73, 58
1, 113831, Control_c, 0, 64, 68
1, 113832, Note_on_c, 0, 68, 64
1, 113846, Control_c, 0, 64, 72
1, 113861, Control_c, 0, 64, 76
1, 113876, Control_c, 0, 64, 80
1, 113890, Control_c, 0, 64, 82
1, 113902, Note_off_c, 0, 68, 63
1, 113905, Control_c, 0, 64, 83
1, 113920, Control_c, 0, 64, 84
1, 113925, Note_on_c, 0, 73, 75
1, 113935, Control_c, 0, 64, 85
1, 113950, Note_off_c, 0, 73, 69
1, 113950, Control_c, 0, 64, 86
1, 113964, Control_c, 0, 64, 87
1, 113979, Control_c, 0, 64, 88
1, 113985, Note_off_c, 0, 53, 41
1, 113994, Control_c, 0, 64, 88
1, 114009, Note_on_c, 0, 77, 73
1, 114020, Note_off_c, 0, 49, 51
1, 114070, Note_off_c, 0, 77, 48
1, 114077, Note_on_c, 0, 80, 79
1, 114156, Note_on_c, 0, 85, 77
1, 114157, Note_off_c, 0, 80, 64
1, 114227, Note_on_c, 0, 89, 81
1, 114229, Note_off_c, 0, 85, 66
1, 114231, Control_c, 0, 64, 88
1, 114246, Control_c, 0, 64, 87
1, 114268, Control_c, 0, 64, 85
1, 114283, Control_c, 0, 64, 84
1, 114298, Control_c, 0, 64, 82
1, 114313, Control_c, 0, 64, 79
1, 114319, Note_on_c, 0, 87, 85
1, 114328, Control_c, 0, 64, 75
1, 114343, Control_c, 0, 64, 70
1, 114349, Note_off_c, 0, 89, 65
1, 114357, Control_c, 0, 64, 61
1, 114372, Control_c, 0, 64, 0
1, 114387, Note_off_c, 0, 87, 66
1, 114437, Note_on_c, 0, 86, 94
1, 114459, Note_on_c, 0, 70, 59
1, 114459, Note_on_c, 0, 80, 61
1, 114470, Note_on_c, 0, 77, 50
1, 114555, Note_off_c, 0, 80, 0
1, 114558, Note_off_c, 0, 77, 56
1, 114581, Note_on_c, 0, 80, 24
1, 114581, Control_c, 0, 64, 63
1, 114595, Control_c, 0, 64, 71
1, 114610, Control_c, 0, 64, 79
1, 114625, Control_c, 0, 64, 86
1, 114639, Control_c, 0, 64, 88
1, 114654, Control_c, 0, 64, 90
1, 114669, Control_c, 0, 64, 91
1, 114684, Control_c, 0, 64, 92
1, 114699, Control_c, 0, 64, 93
1, 114713, Control_c, 0, 64, 94
1, 114715, Note_off_c, 0, 80, 52
1, 114846, Control_c, 0, 64, 94
1, 114861, Control_c, 0, 64, 92
1, 114876, Control_c, 0, 64, 88
1, 114879, Note_on_c, 0, 87, 88
1, 114891, Control_c, 0, 64, 82
1, 114902, Note_on_c, 0, 78, 64
1, 114905, Note_off_c, 0, 86, 60
1, 114906, Control_c, 0, 64, 72
1, 114910, Note_on_c, 0, 63, 44
1, 114921, Control_c, 0, 64, 40
1, 114930, Note_off_c, 0, 70, 55
1, 114936, Control_c, 0, 64, 0
1, 114939, Note_on_c, 0, 75, 34
1, 115018, Note_off_c, 0, 78, 45
1, 115021, Note_off_c, 0, 63, 59
1, 115026, Note_off_c, 0, 87, 62
1, 115030, Note_off_c, 0, 75, 60
1, 115413, Note_on_c, 0, 84, 82
1, 115428, Note_on_c, 0, 68, 40
1, 115445, Note_on_c, 0, 78, 48
1, 115467, Note_on_c, 0, 75, 13
1, 115535, Control_c, 0, 64, 60
1, 115550, Control_c, 0, 64, 65
1, 115565, Control_c, 0, 64, 67
1, 115580, Control_c, 0, 64, 69
1, 115595, Control_c, 0, 64, 73
1, 115609, Control_c, 0, 64, 78
1, 115624, Control_c, 0, 64, 81
1, 115639, Control_c, 0, 64, 81
1, 115654, Control_c, 0, 64, 82
1, 115669, Control_c, 0, 64, 83
1, 115684, Control_c, 0, 64, 84
1, 115694, Note_off_c, 0, 75, 45
1, 115699, Control_c, 0, 64, 84
1, 115813, Note_off_c, 0, 68, 64
1, 115854, Note_off_c, 0, 78, 31
1, 115928, Control_c, 0, 64, 84
1, 115943, Note_off_c, 0, 84, 59
1, 115943, Control_c, 0, 64, 83
1, 115958, Control_c, 0, 64, 81
1, 115973, Control_c, 0, 64, 78
1, 115987, Control_c, 0, 64, 75
1, 116002, Control_c, 0, 64, 69
1, 116017, Control_c, 0, 64, 63
1, 116032, Control_c, 0, 64, 51
1, 116047, Control_c, 0, 64, 44
1, 116061, Control_c, 0, 64, 43
1, 116077, Control_c, 0, 64, 40
1, 116092, Control_c, 0, 64, 21
1, 116107, Control_c, 0, 64, 0
1, 116277, Note_on_c, 0, 78, 41
1, 116285, Note_on_c, 0, 56, 33
1, 116287, Note_on_c, 0, 66, 30
1, 116289, Note_on_c, 0, 63, 31
1, 116327, Note_off_c, 0, 78, 51
1, 116360, Note_on_c, 0, 80, 48
1, 116426, Note_on_c, 0, 78, 59
1, 116426, Note_off_c, 0, 80, 60
1, 116507, Note_off_c, 0, 78, 62
1, 116522, Note_on_c, 0, 77, 59
1, 116600, Note_off_c, 0, 77, 60
1, 116617, Note_on_c, 0, 78, 56
1, 116663, Note_off_c, 0, 78, 46
1, 116671, Note_on_c, 0, 87, 67
1, 116763, Note_on_c, 0, 85, 64
1, 116799, Note_off_c, 0, 87, 60
1, 116829, Note_off_c, 0, 85, 63
1, 116842, Note_on_c, 0, 84, 48
1, 116933, Note_off_c, 0, 84, 54
1, 116948, Note_on_c, 0, 85, 62
1, 116952, Note_off_c, 0, 66, 43
1, 116954, Note_on_c, 0, 61, 32
1, 116962, Note_on_c, 0, 65, 23
1, 116968, Note_off_c, 0, 63, 40
1, 116986, Note_off_c, 0, 56, 38
1, 117035, Note_on_c, 0, 80, 64
1, 117043, Note_off_c, 0, 85, 58
1, 117107, Note_off_c, 0, 80, 64
1, 117109, Note_on_c, 0, 77, 66
1, 117173, Note_off_c, 0, 77, 61
1, 117183, Note_on_c, 0, 73, 67
1, 117210, Note_off_c, 0, 73, 67
1, 117234, Note_off_c, 0, 65, 59
1, 117273, Note_off_c, 0, 61, 57
1, 117290, Note_on_c, 0, 66, 52
1, 117318, Note_off_c, 0, 66, 56
1, 117353, Note_on_c, 0, 73, 66
1, 117446, Note_on_c, 0, 68, 58
1, 117446, Note_off_c, 0, 73, 57
1, 117496, Note_off_c, 0, 68, 58
1, 117496, Note_on_c, 0, 65, 63
1, 117577, Note_off_c, 0, 65, 56
1, 117590, Note_on_c, 0, 66, 63
1, 117606, Note_on_c, 0, 44, 34
1, 117617, Note_on_c, 0, 54, 34
1, 117623, Note_on_c, 0, 51, 31
1, 117663, Note_off_c, 0, 66, 65
1, 117669, Note_on_c, 0, 68, 65
1, 117750, Note_on_c, 0, 66, 70
1, 117757, Note_off_c, 0, 68, 60
1, 117821, Note_off_c, 0, 66, 66
1, 117831, Note_on_c, 0, 65, 72
1, 117907, Note_off_c, 0, 65, 62
1, 117914, Note_on_c, 0, 66, 73
1, 117979, Note_off_c, 0, 66, 64
1, 117992, Note_on_c, 0, 75, 63
1, 117992, Note_off_c, 0, 51, 48
1, 118081, Note_on_c, 0, 73, 58
1, 118093, Note_off_c, 0, 75, 59
1, 118175, Note_off_c, 0, 73, 63
1, 118176, Note_on_c, 0, 72, 50
1, 118205, Note_off_c, 0, 54, 51
1, 118234, Note_off_c, 0, 72, 60
1, 118240, Note_on_c, 0, 73, 62
1, 118246, Note_off_c, 0, 44, 37
1, 118259, Note_on_c, 0, 53, 44
1, 118268, Note_on_c, 0, 49, 28
1, 118337, Note_on_c, 0, 68, 59
1, 118343, Note_off_c, 0, 73, 57
1, 118411, Note_off_c, 0, 68, 63
1, 118412, Note_on_c, 0, 65, 62
1, 118471, Note_off_c, 0, 65, 62
1, 118492, Note_on_c, 0, 61, 62
1, 118525, Note_off_c, 0, 61, 64
1, 118530, Note_off_c, 0, 53, 59
1, 118579, Note_on_c, 0, 56, 64
1, 118593, Note_off_c, 0, 49, 50
1, 118641, Note_off_c, 0, 56, 61
1, 118664, Note_on_c, 0, 61, 49
1, 118742, Note_off_c, 0, 61, 59
1, 118757, Note_on_c, 0, 56, 46
1, 118818, Note_off_c, 0, 56, 57
1, 118839, Note_on_c, 0, 53, 38
1, 118917, Note_off_c, 0, 53, 52
1, 118935, Note_on_c, 0, 42, 35
1, 118986, Note_off_c, 0, 42, 61
1, 119017, Note_on_c, 0, 44, 43
1, 119101, Note_off_c, 0, 44, 60
1, 119108, Note_on_c, 0, 42, 43
1, 119151, Note_off_c, 0, 42, 63
1, 119180, Note_on_c, 0, 41, 47
1, 119240, Note_off_c, 0, 41, 58
1, 119263, Note_on_c, 0, 42, 43
1, 119286, Note_on_c, 0, 66, 50
1, 119287, Note_on_c, 0, 56, 42
1, 119295, Note_on_c, 0, 63, 35
1, 119362, Note_off_c, 0, 42, 59
1, 119368, Note_on_c, 0, 44, 46
1, 119373, Poly_aftertouch_c, 0, 60, 127
1, 119455, Note_on_c, 0, 46, 57
1, 119479, Note_off_c, 0, 44, 60
1, 119525, Note_off_c, 0, 46, 62
1, 119535, Note_on_c, 0, 48, 65
1, 119609, Note_off_c, 0, 48, 59
1, 119615, Note_on_c, 0, 49, 64
1, 119646, Note_off_c, 0, 56, 41
1, 119647, Poly_aftertouch_c, 0, 60, 0
1, 119703, Note_on_c, 0, 51, 66
1, 119707, Note_off_c, 0, 63, 48
1, 119719, Note_off_c, 0, 66, 58
1, 119723, Note_off_c, 0, 49, 60
1, 119765, Note_off_c, 0, 51, 63
1, 119775, Note_on_c, 0, 53, 65
1, 119848, Note_on_c, 0, 54, 64
1, 119855, Note_off_c, 0, 53, 59
1, 119933, Note_off_c, 0, 54, 61
1, 119942, Note_on_c, 0, 56, 63
1, 119949, Note_on_c, 0, 66, 55
1, 119967, Note_on_c, 0, 60, 47
1, 119978, Note_on_c, 0, 63, 31
1, 120025, Note_off_c, 0, 56, 62
1, 120033, Note_on_c, 0, 54, 63
1, 120089, Note_off_c, 0, 54, 61
1, 120117, Note_on_c, 0, 53, 66
1, 120179, Note_off_c, 0, 53, 64
1, 120198, Note_on_c, 0, 51, 61
1, 120286, Note_off_c, 0, 51, 61
1, 120298, Note_on_c, 0, 49, 60
1, 120362, Note_off_c, 0, 49, 61
1, 120385, Note_on_c, 0, 48, 64
1, 120411, Note_off_c, 0, 63, 44
1, 120422, Note_off_c, 0, 66, 58
1, 120444, Note_off_c, 0, 48, 61
1, 120471, Note_on_c, 0, 46, 60
1, 120499, Note_off_c, 0, 60, 51
1, 120532, Note_off_c, 0, 46, 60
1, 120549, Note_on_c, 0, 44, 56
1, 120641, Note_off_c, 0, 44, 62
1, 120652, Note_on_c, 0, 46, 57
1, 120659, Note_on_c, 0, 68, 47
1, 120664, Note_on_c, 0, 60, 32
1, 120694, Note_on_c, 0, 63, 22
1, 120698, Note_on_c, 0, 66, 30
1, 120704, Note_off_c, 0, 46, 61
1, 120744, Note_on_c, 0, 44, 46
1, 120819, Note_on_c, 0, 46, 59
1, 120841, Note_off_c, 0, 44, 60
1, 120883, Note_off_c, 0, 46, 61
1, 120906, Note_on_c, 0, 48, 55
1, 120970, Note_off_c, 0, 48, 58
1, 120996, Note_on_c, 0, 49, 51
1, 121078, Note_on_c, 0, 51, 57
1, 121098, Note_off_c, 0, 49, 56
1, 121129, Note_off_c, 0, 66, 43
1, 121136, Note_off_c, 0, 68, 56
1, 121146, Note_off_c, 0, 60, 54
1, 121147, Note_off_c, 0, 63, 43
1, 121149, Note_off_c, 0, 51, 62
1, 121170, Note_on_c, 0, 53, 55
1, 121251, Note_off_c, 0, 53, 65
1, 121263, Note_on_c, 0, 54, 50
1, 121368, Note_off_c, 0, 54, 57
1, 121380, Note_on_c, 0, 56, 47
1, 121392, Note_on_c, 0, 68, 49
1, 121402, Note_on_c, 0, 61, 35
1, 121413, Note_on_c, 0, 59, 34
1, 121438, Poly_aftertouch_c, 0, 65, 127
1, 121473, Note_off_c, 0, 56, 60
1, 121483, Note_on_c, 0, 57, 55
1, 121535, Note_off_c, 0, 59, 40
1, 121552, Poly_aftertouch_c, 0, 65, 0
1, 121565, Note_off_c, 0, 57, 61
1, 121576, Note_off_c, 0, 61, 61
1, 121590, Note_on_c, 0, 59, 55
1, 121679, Note_off_c, 0, 59, 60
1, 121695, Note_on_c, 0, 61, 59
1, 121801, Note_off_c, 0, 61, 60
1, 121817, Note_on_c, 0, 62, 50
1, 121866, Note_off_c, 0, 68, 58
1, 121897, Note_off_c, 0, 62, 59
1, 121924, Note_on_c, 0, 61, 54
1, 122001, Note_off_c, 0, 61, 59
1, 122037, Note_on_c, 0, 59, 43
1, 122145, Note_off_c, 0, 59, 49
1, 122153, Note_on_c, 0, 57, 34
1, 122297, Note_on_c, 0, 69, 57
1, 122308, Note_off_c, 0, 57, 48
1, 122319, Note_on_c, 0, 61, 31
1, 122362, Control_c, 0, 64, 49
1, 122377, Control_c, 0, 64, 59
1, 122392, Control_c, 0, 64, 62
1, 122407, Control_c, 0, 64, 64
1, 122413, Note_off_c, 0, 61, 49
1, 122421, Control_c, 0, 64, 67
1, 122427, Note_on_c, 0, 59, 28
1, 122436, Control_c, 0, 64, 69
1, 122451, Control_c, 0, 64, 74
1, 122467, Control_c, 0, 64, 78
1, 122482, Control_c, 0, 64, 82
1, 122504, Control_c, 0, 64, 84
1, 122519, Control_c, 0, 64, 88
1, 122534, Control_c, 0, 64, 91
1, 122549, Control_c, 0, 64, 95
1, 122564, Control_c, 0, 64, 97
1, 122567, Note_on_c, 0, 57, 39
1, 122576, Note_off_c, 0, 59, 42
1, 122578, Control_c, 0, 64, 98
1, 122593, Control_c, 0, 64, 98
1, 122689, Note_off_c, 0, 57, 60
1, 122713, Note_on_c, 0, 56, 29
1, 122716, Note_on_c, 0, 71, 63
1, 122725, Note_off_c, 0, 69, 59
1, 122751, Note_off_c, 0, 56, 43
1, 122815, Control_c, 0, 64, 98
1, 122830, Control_c, 0, 64, 97
1, 122844, Control_c, 0, 64, 95
1, 122859, Control_c, 0, 64, 92
1, 122874, Control_c, 0, 64, 88
1, 122889, Control_c, 0, 64, 82
1, 122902, Note_on_c, 0, 73, 63
1, 122904, Control_c, 0, 64, 75
1, 122919, Control_c, 0, 64, 66
1, 122926, Note_off_c, 0, 71, 59
1, 122934, Control_c, 0, 64, 0
1, 122939, Note_on_c, 0, 42, 23
1, 122974, Poly_aftertouch_c, 0, 54, 127
1, 123038, Control_c, 0, 64, 51
1, 123053, Control_c, 0, 64, 66
1, 123068, Control_c, 0, 64, 71
1, 123083, Control_c, 0, 64, 77
1, 123087, Note_off_c, 0, 42, 42
1, 123097, Control_c, 0, 64, 81
1, 123112, Control_c, 0, 64, 83
1, 123127, Control_c, 0, 64, 84
1, 123142, Control_c, 0, 64, 84
1, 123154, Poly_aftertouch_c, 0, 54, 0
1, 123157, Control_c, 0, 64, 85
1, 123171, Control_c, 0, 64, 85
1, 123249, Note_on_c, 0, 54, 10
1, 123446, Control_c, 0, 64, 85
1, 123476, Note_on_c, 0, 66, 50
1, 123500, Note_off_c, 0, 54, 34
1, 123506, Note_on_c, 0, 61, 40
1, 123515, Note_on_c, 0, 57, 30
1, 123521, Control_c, 0, 64, 84
1, 123536, Control_c, 0, 64, 83
1, 123550, Control_c, 0, 64, 81
1, 123565, Control_c, 0, 64, 76
1, 123580, Control_c, 0, 64, 72
1, 123594, Control_c, 0, 64, 70
1, 123610, Note_off_c, 0, 73, 38
1, 123639, Control_c, 0, 64, 72
1, 123654, Control_c, 0, 64, 74
1, 123668, Control_c, 0, 64, 76
1, 123674, Note_on_c, 0, 54, 33
1, 123683, Control_c, 0, 64, 76
1, 123694, Note_off_c, 0, 57, 36
1, 123711, Note_off_c, 0, 61, 41
1, 123772, Control_c, 0, 64, 76
1, 123787, Control_c, 0, 64, 74
1, 123801, Control_c, 0, 64, 70
1, 123816, Control_c, 0, 64, 61
1, 123831, Control_c, 0, 64, 0
1, 123837, Note_on_c, 0, 65, 57
1, 123841, Note_off_c, 0, 66, 59
1, 123845, Note_off_c, 0, 54, 37
1, 123849, Note_on_c, 0, 61, 36
1, 123881, Note_on_c, 0, 59, 30
1, 123950, Control_c, 0, 64, 32
1, 123965, Control_c, 0, 64, 65
1, 123980, Control_c, 0, 64, 72
1, 124001, Control_c, 0, 64, 80
1, 124016, Control_c, 0, 64, 84
1, 124022, Note_off_c, 0, 59, 46
1, 124031, Control_c, 0, 64, 85
1, 124038, Note_on_c, 0, 54, 36
1, 124046, Control_c, 0, 64, 86
1, 124075, Note_off_c, 0, 61, 33
1, 124173, Note_on_c, 0, 66, 68
1, 124191, Note_off_c, 0, 65, 61
1, 124195, Control_c, 0, 64, 83
1, 124205, Note_off_c, 0, 54, 34
1, 124206, Note_on_c, 0, 61, 46
1, 124210, Control_c, 0, 64, 78
1, 124214, Note_on_c, 0, 57, 44
1, 124224, Control_c, 0, 64, 69
1, 124239, Control_c, 0, 64, 37
1, 124254, Control_c, 0, 64, 0
1, 124284, Control_c, 0, 64, 61
1, 124299, Control_c, 0, 64, 68
1, 124314, Control_c, 0, 64, 73
1, 124329, Control_c, 0, 64, 78
1, 124343, Note_off_c, 0, 61, 58
1, 124343, Control_c, 0, 64, 81
1, 124349, Note_on_c, 0, 54, 44
1, 124352, Note_off_c, 0, 57, 36
1, 124358, Control_c, 0, 64, 82
1, 124383, Note_off_c, 0, 66, 62
1, 124388, Control_c, 0, 64, 82
1, 124491, Control_c, 0, 64, 82
1, 124552, Note_off_c, 0, 54, 27
1, 124619, Note_on_c, 0, 74, 59
1, 124639, Control_c, 0, 64, 81
1, 124647, Note_on_c, 0, 62, 32
1, 124654, Control_c, 0, 64, 80
1, 124658, Note_on_c, 0, 47, 37
1, 124664, Note_on_c, 0, 66, 28
1, 124669, Control_c, 0, 64, 80
1, 124683, Control_c, 0, 64, 79
1, 124698, Control_c, 0, 64, 77
1, 124713, Control_c, 0, 64, 74
1, 124728, Control_c, 0, 64, 68
1, 124750, Control_c, 0, 64, 54
1, 124765, Control_c, 0, 64, 0
1, 124933, Note_on_c, 0, 54, 31
1, 124959, Control_c, 0, 64, 53
1, 124973, Control_c, 0, 64, 63
1, 124988, Control_c, 0, 64, 64
1, 125003, Control_c, 0, 64, 66
1, 125018, Control_c, 0, 64, 67
1, 125033, Control_c, 0, 64, 70
1, 125047, Control_c, 0, 64, 73
1, 125062, Control_c, 0, 64, 76
1, 125077, Control_c, 0, 64, 78
1, 125089, Note_off_c, 0, 54, 29
1, 125092, Control_c, 0, 64, 79
1, 125107, Control_c, 0, 64, 80
1, 125122, Control_c, 0, 64, 82
1, 125136, Control_c, 0, 64, 83
1, 125149, Note_on_c, 0, 59, 28
1, 125151, Control_c, 0, 64, 83
1, 125166, Control_c, 0, 64, 84
1, 125291, Note_off_c, 0, 59, 38
1, 125310, Note_on_c, 0, 54, 32
1, 125389, Note_off_c, 0, 62, 38
1, 125409, Note_off_c, 0, 66, 42
1, 125428, Note_off_c, 0, 74, 52
1, 125455, Note_off_c, 0, 54, 37
1, 125462, Control_c, 0, 64, 83
1, 125482, Note_on_c, 0, 59, 29
1, 125623, Note_off_c, 0, 59, 38
1, 125625, Note_off_c, 0, 47, 42
1, 125635, Note_on_c, 0, 54, 26
1, 125647, Control_c, 0, 64, 83
1, 125782, Control_c, 0, 64, 81
1, 125787, Note_on_c, 0, 74, 56
1, 125796, Control_c, 0, 64, 77
1, 125807, Note_on_c, 0, 62, 37
1, 125811, Note_on_c, 0, 45, 41
1, 125811, Control_c, 0, 64, 70
1, 125812, Note_on_c, 0, 66, 41
1, 125826, Control_c, 0, 64, 59
1, 125837, Note_on_c, 0, 57, 24
1, 125841, Note_off_c, 0, 54, 35
1, 125841, Control_c, 0, 64, 0
1, 125856, Control_c, 0, 64, 19
1, 125870, Control_c, 0, 64, 54
1, 125885, Control_c, 0, 64, 64
1, 125900, Control_c, 0, 64, 67
1, 125915, Control_c, 0, 64, 70
1, 125926, Note_off_c, 0, 62, 53
1, 125929, Control_c, 0, 64, 73
1, 125931, Note_off_c, 0, 57, 47
1, 125941, Note_off_c, 0, 45, 54
1, 125944, Control_c, 0, 64, 76
1, 125959, Control_c, 0, 64, 77
1, 125962, Note_off_c, 0, 66, 54
1, 125974, Control_c, 0, 64, 77
1, 125976, Note_on_c, 0, 54, 28
1, 126008, Note_off_c, 0, 74, 60
1, 126019, Note_off_c, 0, 54, 46
1, 126151, Control_c, 0, 64, 77
1, 126166, Control_c, 0, 64, 76
1, 126176, Note_on_c, 0, 44, 41
1, 126177, Note_on_c, 0, 71, 37
1, 126177, Note_on_c, 0, 76, 46
1, 126180, Control_c, 0, 64, 73
1, 126195, Control_c, 0, 64, 69
1, 126210, Control_c, 0, 64, 60
1, 126225, Control_c, 0, 64, 0
1, 126266, Note_off_c, 0, 76, 62
1, 126277, Control_c, 0, 64, 41
1, 126284, Note_on_c, 0, 74, 46
1, 126292, Control_c, 0, 64, 61
1, 126307, Control_c, 0, 64, 66
1, 126321, Control_c, 0, 64, 69
1, 126324, Note_on_c, 0, 52, 34
1, 126336, Control_c, 0, 64, 72
1, 126344, Note_off_c, 0, 74, 63
1, 126351, Control_c, 0, 64, 75
1, 126362, Note_off_c, 0, 44, 42
1, 126365, Note_on_c, 0, 76, 48
1, 126366, Control_c, 0, 64, 76
1, 126382, Note_off_c, 0, 52, 54
1, 126403, Note_off_c, 0, 76, 59
1, 126428, Note_on_c, 0, 74, 46
1, 126448, Note_off_c, 0, 71, 28
1, 126473, Note_off_c, 0, 74, 66
1, 126485, Control_c, 0, 64, 76
1, 126497, Note_on_c, 0, 76, 60
1, 126500, Control_c, 0, 64, 75
1, 126515, Control_c, 0, 64, 74
1, 126517, Note_off_c, 0, 76, 62
1, 126530, Control_c, 0, 64, 73
1, 126531, Note_on_c, 0, 74, 51
1, 126555, Note_on_c, 0, 42, 21
1, 126574, Note_off_c, 0, 74, 67
1, 126586, Note_on_c, 0, 76, 73
1, 126604, Control_c, 0, 64, 72
1, 126627, Note_off_c, 0, 76, 62
1, 126645, Note_on_c, 0, 74, 66
1, 126663, Control_c, 0, 64, 72
1, 126679, Control_c, 0, 64, 71
1, 126693, Control_c, 0, 64, 71
1, 126704, Note_on_c, 0, 52, 45
1, 126704, Note_off_c, 0, 74, 66
1, 126708, Control_c, 0, 64, 70
1, 126712, Note_on_c, 0, 73, 72
1, 126723, Control_c, 0, 64, 69
1, 126737, Control_c, 0, 64, 68
1, 126740, Note_off_c, 0, 42, 20
1, 126752, Control_c, 0, 64, 67
1, 126767, Control_c, 0, 64, 64
1, 126780, Note_off_c, 0, 73, 61
1, 126782, Control_c, 0, 64, 62
1, 126785, Note_on_c, 0, 74, 74
1, 126797, Control_c, 0, 64, 58
1, 126812, Control_c, 0, 64, 53
1, 126827, Control_c, 0, 64, 42
1, 126842, Control_c, 0, 64, 0
1, 126863, Note_off_c, 0, 52, 35
1, 126874, Note_off_c, 0, 74, 64
1, 126894, Note_on_c, 0, 76, 76
1, 126901, Note_on_c, 0, 40, 47
1, 126928, Note_on_c, 0, 68, 54
1, 126960, Control_c, 0, 64, 44
1, 126975, Control_c, 0, 64, 65
1, 126989, Note_off_c, 0, 68, 38
1, 126997, Control_c, 0, 64, 69
1, 127011, Control_c, 0, 64, 73
1, 127026, Control_c, 0, 64, 76
1, 127041, Control_c, 0, 64, 78
1, 127047, Note_off_c, 0, 40, 56
1, 127056, Control_c, 0, 64, 78
1, 127071, Control_c, 0, 64, 79
1, 127104, Note_on_c, 0, 52, 45
1, 127149, Note_off_c, 0, 52, 49
1, 127205, Control_c, 0, 64, 78
1, 127219, Control_c, 0, 64, 77
1, 127234, Control_c, 0, 64, 74
1, 127247, Note_on_c, 0, 64, 52
1, 127249, Control_c, 0, 64, 67
1, 127265, Control_c, 0, 64, 22
1, 127266, Note_on_c, 0, 44, 44
1, 127280, Control_c, 0, 64, 0
1, 127354, Control_c, 0, 64, 63
1, 127368, Control_c, 0, 64, 69
1, 127383, Control_c, 0, 64, 75
1, 127395, Note_on_c, 0, 71, 60
1, 127398, Control_c, 0, 64, 80
1, 127408, Note_off_c, 0, 64, 56
1, 127413, Control_c, 0, 64, 81
1, 127418, Note_on_c, 0, 56, 48
1, 127442, Control_c, 0, 64, 82
1, 127450, Note_off_c, 0, 71, 58
1, 127470, Note_off_c, 0, 44, 52
1, 127475, Note_off_c, 0, 56, 43
1, 127495, Note_off_c, 0, 76, 23
1, 127516, Control_c, 0, 64, 81
1, 127531, Control_c, 0, 64, 79
1, 127546, Control_c, 0, 64, 73
1, 127560, Control_c, 0, 64, 61
1, 127563, Note_on_c, 0, 73, 57
1, 127575, Control_c, 0, 64, 0
1, 127580, Note_on_c, 0, 45, 39
1, 127584, Note_on_c, 0, 57, 33
1, 127622, Note_off_c, 0, 73, 57
1, 127643, Note_on_c, 0, 76, 54
1, 127654, Note_off_c, 0, 45, 62
1, 127674, Note_off_c, 0, 57, 46
1, 127713, Note_off_c, 0, 76, 57
1, 127760, Note_on_c, 0, 73, 46
1, 127794, Note_off_c, 0, 73, 60
1, 127822, Note_on_c, 0, 76, 46
1, 127882, Note_off_c, 0, 76, 57
1, 127909, Note_on_c, 0, 73, 51
1, 127953, Note_off_c, 0, 73, 60
1, 127989, Note_on_c, 0, 76, 42
1, 128046, Note_off_c, 0, 76, 58
1, 128080, Note_on_c, 0, 73, 39
1, 128121, Note_off_c, 0, 73, 51
1, 128156, Note_on_c, 0, 76, 37
1, 128249, Note_on_c, 0, 68, 51
1, 128251, Note_off_c, 0, 76, 45
1, 128253, Note_on_c, 0, 73, 44
1, 128294, Note_off_c, 0, 73, 62
1, 128322, Note_on_c, 0, 76, 31
1, 128395, Note_off_c, 0, 76, 56
1, 128404, Note_off_c, 0, 68, 62
1, 128413, Note_on_c, 0, 73, 46
1, 128459, Note_off_c, 0, 73, 61
1, 128514, Note_on_c, 0, 76, 35
1, 128567, Note_off_c, 0, 76, 49
1, 128593, Note_on_c, 0, 73, 43
1, 128640, Note_off_c, 0, 73, 61
1, 128675, Note_on_c, 0, 76, 45
1, 128723, Note_off_c, 0, 76, 49
1, 128767, Note_on_c, 0, 73, 40
1, 128820, Note_off_c, 0, 73, 48
1, 128846, Note_on_c, 0, 76, 47
1, 128890, Note_off_c, 0, 76, 53
1, 128895, Control_c, 0, 64, 60
1, 128910, Control_c, 0, 64, 70
1, 128925, Note_on_c, 0, 73, 49
1, 128925, Control_c, 0, 64, 78
1, 128926, Note_on_c, 0, 67, 47
1, 128940, Control_c, 0, 64, 84
1, 128955, Control_c, 0, 64, 86
1, 128962, Note_off_c, 0, 67, 64
1, 128970, Control_c, 0, 64, 87
1, 128983, Note_off_c, 0, 73, 60
1, 128985, Control_c, 0, 64, 88
1, 129000, Control_c, 0, 64, 89
1, 129014, Control_c, 0, 64, 90
1, 129015, Note_on_c, 0, 75, 47
1, 129065, Note_off_c, 0, 75, 61
1, 129086, Note_on_c, 0, 73, 47
1, 129150, Note_off_c, 0, 73, 54
1, 129181, Note_on_c, 0, 75, 45
1, 129192, Control_c, 0, 64, 90
1, 129206, Control_c, 0, 64, 89
1, 129220, Note_off_c, 0, 75, 66
1, 129221, Control_c, 0, 64, 88
1, 129244, Control_c, 0, 64, 87
1, 129259, Control_c, 0, 64, 85
1, 129260, Note_on_c, 0, 71, 55
1, 129262, Note_on_c, 0, 47, 58
1, 129274, Control_c, 0, 64, 83
1, 129288, Control_c, 0, 64, 80
1, 129303, Control_c, 0, 64, 74
1, 129318, Note_off_c, 0, 71, 54
1, 129318, Control_c, 0, 64, 68
1, 129332, Control_c, 0, 64, 48
1, 129347, Control_c, 0, 64, 0
1, 129351, Note_on_c, 0, 75, 42
1, 129396, Note_off_c, 0, 75, 54
1, 129423, Note_on_c, 0, 71, 42
1, 129472, Note_off_c, 0, 71, 61
1, 129503, Note_off_c, 0, 47, 61
1, 129503, Note_on_c, 0, 75, 57
1, 129506, Note_on_c, 0, 49, 53
1, 129544, Note_off_c, 0, 75, 61
1, 129574, Note_on_c, 0, 71, 58
1, 129580, Note_off_c, 0, 49, 61
1, 129584, Note_on_c, 0, 51, 65
1, 129636, Note_off_c, 0, 71, 60
1, 129646, Note_on_c, 0, 75, 64
1, 129686, Note_off_c, 0, 75, 59
1, 129719, Note_on_c, 0, 71, 52
1, 129791, Note_off_c, 0, 71, 58
1, 129815, Note_on_c, 0, 75, 60
1, 129851, Note_off_c, 0, 75, 65
1, 129876, Note_on_c, 0, 83, 86
1, 129882, Control_c, 0, 64, 52
1, 129889, Note_on_c, 0, 44, 62
1, 129891, Note_on_c, 0, 71, 68
1, 129897, Control_c, 0, 64, 69
1, 129904, Note_off_c, 0, 51, 48
1, 129911, Control_c, 0, 64, 79
1, 129926, Control_c, 0, 64, 91
1, 129941, Control_c, 0, 64, 100
1, 129950, Note_off_c, 0, 44, 59
1, 129955, Control_c, 0, 64, 105
1, 129967, Note_off_c, 0, 71, 59
1, 129970, Control_c, 0, 64, 109
1, 129973, Note_on_c, 0, 75, 68
1, 129992, Control_c, 0, 64, 112
1, 130005, Note_off_c, 0, 83, 61
1, 130007, Control_c, 0, 64, 114
1, 130022, Control_c, 0, 64, 115
1, 130037, Control_c, 0, 64, 116
1, 130051, Note_on_c, 0, 71, 61
1, 130071, Note_off_c, 0, 75, 64
1, 130097, Note_off_c, 0, 71, 56
1, 130111, Control_c, 0, 64, 115
1, 130139, Note_on_c, 0, 85, 84
1, 130141, Control_c, 0, 64, 113
1, 130155, Control_c, 0, 64, 105
1, 130170, Control_c, 0, 64, 92
1, 130175, Note_off_c, 0, 85, 60
1, 130185, Control_c, 0, 64, 77
1, 130200, Control_c, 0, 64, 56
1, 130215, Control_c, 0, 64, 0
1, 130216, Note_on_c, 0, 56, 60
1, 130222, Note_on_c, 0, 87, 100
1, 130228, Note_on_c, 0, 75, 83
1, 130230, Note_on_c, 0, 59, 53
1, 130252, Note_off_c, 0, 75, 62
1, 130259, Control_c, 0, 64, 16
1, 130273, Note_off_c, 0, 87, 66
1, 130274, Control_c, 0, 64, 64
1, 130280, Note_off_c, 0, 56, 58
1, 130289, Control_c, 0, 64, 73
1, 130303, Control_c, 0, 64, 82
1, 130318, Control_c, 0, 64, 89
1, 130323, Note_off_c, 0, 59, 57
1, 130333, Control_c, 0, 64, 91
1, 130337, Note_on_c, 0, 63, 56
1, 130413, Note_on_c, 0, 56, 64
1, 130425, Note_off_c, 0, 63, 62
1, 130436, Note_on_c, 0, 59, 66
1, 130481, Note_off_c, 0, 56, 59
1, 130508, Note_on_c, 0, 63, 64
1, 130516, Note_off_c, 0, 59, 60
1, 130527, Control_c, 0, 64, 90
1, 130541, Control_c, 0, 64, 85
1, 130556, Control_c, 0, 64, 75
1, 130570, Note_on_c, 0, 80, 98
1, 130571, Control_c, 0, 64, 48
1, 130574, Note_on_c, 0, 68, 92
1, 130586, Control_c, 0, 64, 0
1, 130588, Note_off_c, 0, 63, 64
1, 130592, Note_on_c, 0, 56, 64
1, 130599, Note_on_c, 0, 59, 65
1, 130645, Control_c, 0, 64, 65
1, 130649, Note_off_c, 0, 56, 60
1, 130657, Note_on_c, 0, 63, 66
1, 130660, Control_c, 0, 64, 74
1, 130670, Note_off_c, 0, 59, 62
1, 130675, Control_c, 0, 64, 83
1, 130690, Control_c, 0, 64, 89
1, 130705, Control_c, 0, 64, 90
1, 130754, Note_on_c, 0, 56, 65
1, 130754, Note_off_c, 0, 63, 63
1, 130764, Note_on_c, 0, 59, 62
1, 130825, Note_off_c, 0, 68, 61
1, 130833, Note_on_c, 0, 63, 70
1, 130837, Note_off_c, 0, 56, 59
1, 130841, Note_off_c, 0, 80, 62
1, 130842, Note_off_c, 0, 59, 63
1, 130890, Control_c, 0, 64, 88
1, 130904, Control_c, 0, 64, 81
1, 130916, Note_on_c, 0, 79, 100
1, 130919, Control_c, 0, 64, 67
1, 130921, Note_on_c, 0, 67, 95
1, 130934, Control_c, 0, 64, 0
1, 130937, Note_off_c, 0, 63, 63
1, 130937, Note_on_c, 0, 61, 74
1, 130945, Note_on_c, 0, 58, 66
1, 130993, Control_c, 0, 64, 36
1, 130998, Note_off_c, 0, 58, 56
1, 131003, Note_on_c, 0, 63, 70
1, 131008, Note_off_c, 0, 61, 63
1, 131008, Control_c, 0, 64, 67
1, 131023, Control_c, 0, 64, 78
1, 131038, Control_c, 0, 64, 86
1, 131052, Control_c, 0, 64, 89
1, 131067, Control_c, 0, 64, 90
1, 131070, Note_off_c, 0, 67, 62
1, 131082, Control_c, 0, 64, 90
1, 131088, Note_off_c, 0, 79, 59
1, 131100, Note_off_c, 0, 63, 65
1, 131104, Note_on_c, 0, 58, 71
1, 131104, Note_on_c, 0, 61, 73
1, 131182, Note_on_c, 0, 63, 78
1, 131185, Note_off_c, 0, 61, 61
1, 131186, Note_off_c, 0, 58, 59
1, 131215, Control_c, 0, 64, 90
1, 131230, Control_c, 0, 64, 85
1, 131245, Control_c, 0, 64, 72
1, 131259, Note_on_c, 0, 80, 97
1, 131261, Control_c, 0, 64, 0
1, 131267, Note_on_c, 0, 68, 91
1, 131271, Note_off_c, 0, 63, 65
1, 131277, Note_on_c, 0, 56, 62
1, 131280, Note_on_c, 0, 59, 64
1, 131293, Note_on_c, 0, 78, 48
1, 131318, Note_off_c, 0, 78, 39
1, 131335, Control_c, 0, 64, 64
1, 131346, Note_off_c, 0, 56, 59
1, 131350, Control_c, 0, 64, 75
1, 131353, Note_on_c, 0, 63, 69
1, 131358, Note_off_c, 0, 59, 63
1, 131364, Control_c, 0, 64, 88
1, 131374, Note_off_c, 0, 68, 61
1, 131379, Control_c, 0, 64, 102
1, 131394, Control_c, 0, 64, 111
1, 131408, Control_c, 0, 64, 115
1, 131421, Note_off_c, 0, 63, 62
1, 131423, Control_c, 0, 64, 117
1, 131432, Note_off_c, 0, 80, 62
1, 131435, Note_on_c, 0, 56, 55
1, 131438, Control_c, 0, 64, 121
1, 131448, Note_on_c, 0, 59, 45
1, 131453, Control_c, 0, 64, 123
1, 131468, Control_c, 0, 64, 125
1, 131490, Control_c, 0, 64, 126
1, 131505, Control_c, 0, 64, 127
1, 131520, Control_c, 0, 64, 126
1, 131521, Note_on_c, 0, 63, 64
1, 131530, Note_off_c, 0, 59, 60
1, 131532, Note_off_c, 0, 56, 55
1, 131534, Control_c, 0, 64, 126
1, 131549, Control_c, 0, 64, 119
1, 131563, Note_off_c, 0, 63, 65
1, 131564, Control_c, 0, 64, 107
1, 131579, Control_c, 0, 64, 94
1, 131594, Control_c, 0, 64, 78
1, 131608, Control_c, 0, 64, 66
1, 131623, Control_c, 0, 64, 10
1, 131624, Note_on_c, 0, 80, 54
1, 131638, Control_c, 0, 64, 0
1, 131653, Note_on_c, 0, 62, 31
1, 131664, Note_on_c, 0, 65, 47
1, 131697, Note_off_c, 0, 80, 63
1, 131721, Note_on_c, 0, 83, 49
1, 131789, Note_off_c, 0, 83, 52
1, 131811, Note_on_c, 0, 82, 47
1, 131825, Note_off_c, 0, 62, 40
1, 131848, Note_off_c, 0, 82, 56
1, 131861, Note_on_c, 0, 80, 52
1, 131872, Note_off_c, 0, 65, 41
1, 131882, Note_off_c, 0, 80, 62
1, 131890, Control_c, 0, 67, 8
1, 131905, Control_c, 0, 67, 13
1, 131920, Control_c, 0, 67, 20
1, 131934, Control_c, 0, 67, 28
1, 131949, Control_c, 0, 67, 37
1, 131959, Note_on_c, 0, 80, 57
1, 131964, Control_c, 0, 67, 42
1, 131979, Control_c, 0, 67, 45
1, 131994, Control_c, 0, 67, 49
1, 132003, Note_off_c, 0, 80, 62
1, 132008, Control_c, 0, 67, 56
1, 132022, Note_on_c, 0, 83, 52
1, 132023, Control_c, 0, 67, 66
1, 132038, Control_c, 0, 67, 78
1, 132054, Control_c, 0, 67, 90
1, 132069, Control_c, 0, 67, 99
1, 132084, Control_c, 0, 67, 106
1, 132098, Control_c, 0, 67, 112
1, 132100, Note_off_c, 0, 83, 52
1, 132113, Control_c, 0, 67, 120
1, 132115, Note_on_c, 0, 82, 40
1, 132128, Control_c, 0, 67, 127
1, 132167, Note_off_c, 0, 82, 45
1, 132172, Note_on_c, 0, 80, 51
1, 132198, Note_off_c, 0, 80, 60
1, 132272, Note_on_c, 0, 80, 60
1, 132318, Note_off_c, 0, 80, 55
1, 132353, Note_on_c, 0, 83, 42
1, 132413, Note_on_c, 0, 82, 45
1, 132420, Note_off_c, 0, 83, 52
1, 132469, Note_off_c, 0, 82, 59
1, 132475, Note_on_c, 0, 80, 56
1, 132514, Note_off_c, 0, 80, 63
1, 132568, Note_on_c, 0, 65, 57
1, 132577, Note_on_c, 0, 80, 53
1, 132587, Note_on_c, 0, 62, 41
1, 132639, Note_off_c, 0, 80, 56
1, 132669, Note_on_c, 0, 83, 38
1, 132730, Note_off_c, 0, 83, 51
1, 132731, Note_off_c, 0, 62, 52
1, 132743, Note_on_c, 0, 82, 38
1, 132798, Note_off_c, 0, 82, 44
1, 132804, Note_on_c, 0, 80, 55
1, 132806, Note_off_c, 0, 65, 61
1, 132818, Note_on_c, 0, 66, 55
1, 132842, Note_off_c, 0, 80, 65
1, 132869, Note_off_c, 0, 66, 59
1, 132907, Note_on_c, 0, 80, 56
1, 132908, Note_on_c, 0, 68, 58
1, 132937, Note_on_c, 0, 62, 34
1, 132959, Note_on_c, 0, 65, 36
1, 132985, Note_off_c, 0, 80, 62
1, 133003, Note_on_c, 0, 83, 53
1, 133072, Note_off_c, 0, 83, 50
1, 133079, Note_off_c, 0, 62, 49
1, 133089, Note_on_c, 0, 82, 41
1, 133089, Note_off_c, 0, 68, 39
1, 133092, Note_off_c, 0, 65, 55
1, 133151, Note_on_c, 0, 80, 48
1, 133160, Note_off_c, 0, 82, 41
1, 133206, Note_off_c, 0, 80, 59
1, 133235, Note_on_c, 0, 83, 46
1, 133329, Note_on_c, 0, 80, 49
1, 133351, Note_off_c, 0, 83, 35
1, 133367, Note_off_c, 0, 80, 53
1, 133378, Note_on_c, 0, 78, 52
1, 133454, Note_on_c, 0, 77, 54
1, 133456, Note_off_c, 0, 78, 55
1, 133543, Note_off_c, 0, 77, 59
1, 133546, Note_on_c, 0, 83, 62
1, 133626, Note_on_c, 0, 80, 63
1, 133649, Note_off_c, 0, 83, 52
1, 133702, Note_on_c, 0, 78, 60
1, 133708, Note_off_c, 0, 80, 62
1, 133786, Note_off_c, 0, 78, 60
1, 133788, Note_on_c, 0, 77, 56
1, 133843, Note_off_c, 0, 77, 55
1, 133871, Note_on_c, 0, 82, 60
1, 133878, Note_on_c, 0, 62, 40
1, 133885, Note_on_c, 0, 65, 38
1, 133948, Note_on_c, 0, 80, 61
1, 133951, Note_off_c, 0, 82, 57
1, 134022, Note_off_c, 0, 80, 61
1, 134025, Note_on_c, 0, 78, 67
1, 134046, Note_off_c, 0, 65, 57
1, 134088, Note_off_c, 0, 78, 62
1, 134100, Note_on_c, 0, 70, 43
1, 134109, Note_on_c, 0, 77, 49
1, 134130, Note_off_c, 0, 62, 46
1, 134154, Note_off_c, 0, 70, 41
1, 134163, Note_off_c, 0, 77, 41
1, 134194, Note_on_c, 0, 78, 55
1, 134195, Note_on_c, 0, 66, 42
1, 134234, Note_on_c, 0, 63, 17
1, 134246, Note_off_c, 0, 78, 59
1, 134276, Note_on_c, 0, 82, 53
1, 134282, Note_off_c, 0, 66, 65
1, 134288, Note_off_c, 0, 63, 62
1, 134341, Note_off_c, 0, 82, 52
1, 134355, Note_on_c, 0, 80, 55
1, 134425, Note_off_c, 0, 80, 63
1, 134432, Note_on_c, 0, 78, 56
1, 134508, Note_off_c, 0, 78, 62
1, 134523, Note_on_c, 0, 51, 40
1, 134523, Note_on_c, 0, 54, 51
1, 134525, Note_on_c, 0, 80, 58
1, 134601, Note_on_c, 0, 78, 68
1, 134618, Note_off_c, 0, 80, 55
1, 134687, Note_on_c, 0, 77, 71
1, 134687, Note_off_c, 0, 78, 63
1, 134722, Note_off_c, 0, 54, 55
1, 134730, Note_off_c, 0, 77, 54
1, 134753, Note_on_c, 0, 58, 57
1, 134760, Note_on_c, 0, 75, 64
1, 134801, Note_off_c, 0, 51, 36
1, 134840, Note_off_c, 0, 75, 64
1, 134844, Note_off_c, 0, 58, 61
1, 134848, Note_on_c, 0, 74, 65
1, 134874, Note_on_c, 0, 56, 47
1, 134875, Note_on_c, 0, 53, 43
1, 134916, Note_off_c, 0, 74, 63
1, 134923, Note_on_c, 0, 77, 63
1, 134942, Note_off_c, 0, 53, 65
1, 134967, Note_off_c, 0, 56, 63
1, 134992, Note_off_c, 0, 77, 60
1, 135000, Note_on_c, 0, 75, 67
1, 135069, Note_off_c, 0, 75, 65
1, 135072, Note_on_c, 0, 74, 73
1, 135134, Note_off_c, 0, 74, 64
1, 135162, Note_on_c, 0, 82, 75
1, 135172, Note_on_c, 0, 65, 57
1, 135179, Note_on_c, 0, 62, 42
1, 135246, Note_on_c, 0, 80, 76
1, 135260, Note_off_c, 0, 82, 58
1, 135326, Note_on_c, 0, 78, 76
1, 135331, Note_off_c, 0, 80, 61
1, 135337, Note_off_c, 0, 65, 62
1, 135394, Note_off_c, 0, 78, 64
1, 135398, Note_on_c, 0, 70, 48
1, 135399, Note_on_c, 0, 77, 76
1, 135410, Note_off_c, 0, 62, 55
1, 135459, Note_off_c, 0, 70, 51
1, 135466, Note_off_c, 0, 77, 48
1, 135481, Note_on_c, 0, 78, 76
1, 135491, Note_on_c, 0, 66, 48
1, 135505, Note_on_c, 0, 63, 38
1, 135541, Note_off_c, 0, 78, 62
1, 135546, Note_off_c, 0, 66, 64
1, 135556, Note_off_c, 0, 63, 64
1, 135561, Note_on_c, 0, 82, 69
1, 135638, Note_on_c, 0, 80, 64
1, 135641, Note_off_c, 0, 82, 56
1, 135704, Note_off_c, 0, 80, 63
1, 135711, Note_on_c, 0, 78, 63
1, 135787, Note_off_c, 0, 78, 62
1, 135823, Note_on_c, 0, 80, 42
1, 135829, Note_on_c, 0, 51, 39
1, 135832, Note_on_c, 0, 54, 27
1, 135889, Note_off_c, 0, 80, 42
1, 135893, Note_on_c, 0, 78, 57
1, 135954, Note_off_c, 0, 78, 62
1, 135963, Note_on_c, 0, 77, 62
1, 135978, Note_off_c, 0, 54, 49
1, 135995, Note_off_c, 0, 77, 59
1, 135996, Note_off_c, 0, 51, 51
1, 136024, Note_on_c, 0, 58, 38
1, 136063, Note_on_c, 0, 75, 50
1, 136079, Note_off_c, 0, 58, 45
1, 136120, Note_off_c, 0, 75, 62
1, 136135, Note_on_c, 0, 72, 55
1, 136148, Note_on_c, 0, 51, 26
1, 136155, Note_on_c, 0, 56, 34
1, 136161, Note_on_c, 0, 54, 3
1, 136203, Note_off_c, 0, 72, 59
1, 136217, Note_off_c, 0, 51, 61
1, 136220, Note_off_c, 0, 56, 57
1, 136229, Note_on_c, 0, 75, 47
1, 136238, Note_off_c, 0, 54, 58
1, 136304, Note_off_c, 0, 75, 53
1, 136309, Note_on_c, 0, 73, 48
1, 136368, Note_off_c, 0, 73, 63
1, 136385, Note_on_c, 0, 72, 48
1, 136435, Note_off_c, 0, 72, 49
1, 136472, Note_on_c, 0, 60, 51
1, 136475, Note_on_c, 0, 63, 56
1, 136475, Note_on_c, 0, 80, 65
1, 136553, Note_on_c, 0, 78, 65
1, 136601, Note_off_c, 0, 80, 53
1, 136640, Note_on_c, 0, 76, 64
1, 136652, Note_off_c, 0, 78, 60
1, 136679, Control_c, 0, 67, 122
1, 136694, Control_c, 0, 67, 115
1, 136698, Note_off_c, 0, 63, 62
1, 136704, Note_off_c, 0, 76, 67
1, 136706, Note_on_c, 0, 75, 70
1, 136709, Control_c, 0, 67, 109
1, 136730, Note_on_c, 0, 68, 66
1, 136731, Control_c, 0, 67, 104
1, 136744, Note_off_c, 0, 60, 59
1, 136746, Control_c, 0, 67, 101
1, 136761, Control_c, 0, 67, 102
1, 136762, Note_off_c, 0, 75, 57
1, 136776, Control_c, 0, 67, 103
1, 136791, Control_c, 0, 67, 106
1, 136798, Note_on_c, 0, 76, 68
1, 136805, Control_c, 0, 67, 109
1, 136808, Note_off_c, 0, 68, 63
1, 136815, Note_on_c, 0, 64, 68
1, 136820, Control_c, 0, 67, 112
1, 136835, Control_c, 0, 67, 114
1, 136845, Note_on_c, 0, 61, 41
1, 136851, Control_c, 0, 67, 117
1, 136866, Control_c, 0, 67, 123
1, 136876, Note_off_c, 0, 76, 65
1, 136881, Control_c, 0, 67, 127
1, 136885, Note_on_c, 0, 80, 64
1, 136904, Note_off_c, 0, 64, 64
1, 136917, Note_off_c, 0, 61, 63
1, 136963, Note_on_c, 0, 78, 67
1, 136971, Note_off_c, 0, 80, 57
1, 137038, Note_off_c, 0, 78, 61
1, 137039, Note_on_c, 0, 76, 58
1, 137117, Note_off_c, 0, 76, 64
1, 137146, Note_on_c, 0, 78, 55
1, 137149, Note_on_c, 0, 52, 52
1, 137161, Note_on_c, 0, 49, 39
1, 137227, Note_off_c, 0, 78, 54
1, 137233, Note_on_c, 0, 76, 54
1, 137287, Note_off_c, 0, 76, 65
1, 137308, Note_on_c, 0, 75, 54
1, 137328, Note_off_c, 0, 75, 63
1, 137334, Note_off_c, 0, 52, 61
1, 137385, Note_on_c, 0, 56, 46
1, 137389, Note_on_c, 0, 73, 55
1, 137397, Note_off_c, 0, 49, 39
1, 137439, Note_off_c, 0, 73, 52
1, 137453, Note_off_c, 0, 56, 60
1, 137456, Note_on_c, 0, 72, 60
1, 137486, Note_on_c, 0, 54, 51
1, 137500, Note_on_c, 0, 51, 51
1, 137528, Note_off_c, 0, 72, 57
1, 137548, Note_off_c, 0, 51, 63
1, 137552, Note_on_c, 0, 75, 55
1, 137552, Note_off_c, 0, 54, 60
1, 137630, Note_on_c, 0, 73, 52
1, 137632, Note_off_c, 0, 75, 58
1, 137698, Note_off_c, 0, 73, 62
1, 137701, Note_on_c, 0, 72, 64
1, 137758, Note_off_c, 0, 72, 61
1, 137786, Note_on_c, 0, 80, 81
1, 137789, Note_on_c, 0, 63, 66
1, 137793, Note_on_c, 0, 60, 48
1, 137871, Note_on_c, 0, 78, 76
1, 137936, Note_off_c, 0, 80, 50
1, 137944, Note_on_c, 0, 76, 72
1, 137969, Note_off_c, 0, 78, 62
1, 137972, Note_off_c, 0, 63, 60
1, 138018, Note_off_c, 0, 76, 67
1, 138022, Note_on_c, 0, 75, 68
1, 138023, Note_off_c, 0, 60, 55
1, 138039, Note_on_c, 0, 68, 58
1, 138083, Note_off_c, 0, 75, 56
1, 138094, Note_off_c, 0, 68, 60
1, 138103, Note_on_c, 0, 64, 72
1, 138108, Note_on_c, 0, 76, 77
1, 138117, Note_on_c, 0, 61, 54
1, 138175, Note_off_c, 0, 64, 64
1, 138177, Note_off_c, 0, 76, 62
1, 138187, Note_on_c, 0, 80, 71
1, 138194, Note_off_c, 0, 61, 62
1, 138271, Note_on_c, 0, 78, 67
1, 138279, Note_off_c, 0, 80, 59
1, 138337, Note_off_c, 0, 78, 63
1, 138342, Note_on_c, 0, 76, 67
1, 138419, Note_off_c, 0, 76, 65
1, 138429, Note_on_c, 0, 49, 59
1, 138431, Note_on_c, 0, 78, 71
1, 138439, Note_on_c, 0, 52, 71
1, 138508, Note_on_c, 0, 76, 67
1, 138508, Note_off_c, 0, 78, 61
1, 138558, Note_off_c, 0, 49, 52
1, 138579, Note_off_c, 0, 76, 66
1, 138593, Note_on_c, 0, 75, 69
1, 138622, Note_off_c, 0, 75, 67
1, 138633, Note_off_c, 0, 52, 65
1, 138655, Note_on_c, 0, 56, 65
1, 138669, Note_on_c, 0, 73, 68
1, 138717, Note_off_c, 0, 56, 52
1, 138741, Note_off_c, 0, 73, 64
1, 138744, Note_on_c, 0, 70, 72
1, 138776, Note_on_c, 0, 54, 72
1, 138777, Note_on_c, 0, 52, 60
1, 138783, Note_on_c, 0, 49, 46
1, 138813, Note_off_c, 0, 70, 61
1, 138831, Note_on_c, 0, 73, 65
1, 138846, Note_off_c, 0, 49, 60
1, 138855, Note_off_c, 0, 52, 65
1, 138869, Note_off_c, 0, 54, 61
1, 138899, Note_off_c, 0, 73, 58
1, 138908, Note_on_c, 0, 71, 67
1, 138995, Note_off_c, 0, 71, 57
1, 139001, Note_on_c, 0, 70, 64
1, 139078, Note_off_c, 0, 70, 59
1, 139097, Note_on_c, 0, 78, 61
1, 139107, Note_on_c, 0, 61, 53
1, 139124, Note_on_c, 0, 58, 37
1, 139185, Note_on_c, 0, 76, 53
1, 139192, Note_off_c, 0, 78, 54
1, 139257, Note_off_c, 0, 76, 58
1, 139271, Note_on_c, 0, 75, 50
1, 139281, Note_off_c, 0, 61, 56
1, 139318, Note_off_c, 0, 75, 62
1, 139323, Note_on_c, 0, 73, 58
1, 139346, Note_on_c, 0, 66, 51
1, 139357, Note_off_c, 0, 58, 35
1, 139388, Note_off_c, 0, 73, 57
1, 139400, Note_off_c, 0, 66, 64
1, 139411, Note_on_c, 0, 71, 54
1, 139421, Note_on_c, 0, 59, 29
1, 139425, Note_on_c, 0, 63, 54
1, 139481, Note_off_c, 0, 63, 62
1, 139495, Note_off_c, 0, 59, 48
1, 139508, Note_off_c, 0, 71, 54
1, 139510, Note_on_c, 0, 75, 48
1, 139570, Note_off_c, 0, 75, 58
1, 139597, Note_on_c, 0, 73, 46
1, 139653, Note_off_c, 0, 73, 53
1, 139655, Note_on_c, 0, 71, 49
1, 139728, Note_off_c, 0, 71, 47
1, 139749, Note_on_c, 0, 49, 34
1, 139752, Note_on_c, 0, 46, 41
1, 139764, Note_on_c, 0, 78, 50
1, 139833, Note_on_c, 0, 76, 37
1, 139838, Note_off_c, 0, 78, 43
1, 139872, Note_off_c, 0, 76, 51
1, 139904, Note_on_c, 0, 75, 41
1, 139904, Note_off_c, 0, 49, 52
1, 139945, Note_off_c, 0, 46, 39
1, 139962, Note_on_c, 0, 73, 51
1, 139973, Note_off_c, 0, 75, 55
1, 139980, Note_on_c, 0, 54, 36
1, 140030, Note_off_c, 0, 54, 53
1, 140042, Note_off_c, 0, 73, 55
1, 140051, Note_on_c, 0, 71, 50
1, 140069, Note_on_c, 0, 47, 38
1, 140079, Note_on_c, 0, 51, 46
1, 140108, Note_off_c, 0, 71, 57
1, 140113, Note_on_c, 0, 75, 54
1, 140140, Note_off_c, 0, 47, 61
1, 140167, Note_off_c, 0, 51, 62
1, 140199, Note_off_c, 0, 75, 55
1, 140205, Note_on_c, 0, 73, 44
1, 140280, Note_on_c, 0, 71, 49
1, 140290, Note_off_c, 0, 73, 47
1, 140339, Note_off_c, 0, 71, 50
1, 140366, Note_on_c, 0, 78, 57
1, 140388, Note_on_c, 0, 66, 38
1, 140441, Note_off_c, 0, 66, 45
1, 140454, Note_on_c, 0, 76, 45
1, 140469, Note_on_c, 0, 64, 39
1, 140470, Note_off_c, 0, 78, 54
1, 140519, Note_off_c, 0, 64, 59
1, 140531, Note_off_c, 0, 76, 50
1, 140539, Note_on_c, 0, 63, 40
1, 140545, Note_on_c, 0, 75, 48
1, 140592, Note_off_c, 0, 63, 44
1, 140604, Note_on_c, 0, 61, 38
1, 140617, Note_on_c, 0, 73, 49
1, 140617, Note_off_c, 0, 75, 52
1, 140661, Note_off_c, 0, 61, 54
1, 140690, Note_off_c, 0, 73, 58
1, 140694, Note_on_c, 0, 59, 46
1, 140705, Note_on_c, 0, 71, 52
1, 140732, Note_off_c, 0, 59, 63
1, 140757, Control_c, 0, 67, 122
1, 140761, Note_off_c, 0, 71, 54
1, 140769, Note_on_c, 0, 75, 52
1, 140771, Control_c, 0, 67, 119
1, 140786, Control_c, 0, 67, 117
1, 140801, Control_c, 0, 67, 116
1, 140816, Control_c, 0, 67, 116
1, 140831, Control_c, 0, 67, 114
1, 140844, Note_on_c, 0, 73, 55
1, 140846, Note_off_c, 0, 75, 61
1, 140847, Control_c, 0, 67, 112
1, 140862, Control_c, 0, 67, 110
1, 140876, Control_c, 0, 67, 108
1, 140891, Control_c, 0, 67, 106
1, 140898, Note_off_c, 0, 73, 61
1, 140906, Control_c, 0, 67, 104
1, 140917, Note_on_c, 0, 71, 58
1, 140921, Control_c, 0, 67, 102
1, 140936, Control_c, 0, 67, 100
1, 140951, Control_c, 0, 67, 97
1, 140956, Note_off_c, 0, 71, 61
1, 140966, Control_c, 0, 67, 95
1, 140981, Control_c, 0, 67, 95
1, 140995, Control_c, 0, 67, 96
1, 141003, Note_on_c, 0, 83, 61
1, 141008, Note_on_c, 0, 71, 49
1, 141010, Control_c, 0, 67, 95
1, 141040, Control_c, 0, 67, 94
1, 141055, Control_c, 0, 67, 94
1, 141065, Note_off_c, 0, 71, 53
1, 141069, Control_c, 0, 67, 91
1, 141084, Control_c, 0, 67, 88
1, 141089, Note_off_c, 0, 83, 52
1, 141094, Note_on_c, 0, 82, 57
1, 141099, Control_c, 0, 67, 85
1, 141101, Note_on_c, 0, 70, 49
1, 141114, Control_c, 0, 67, 80
1, 141129, Control_c, 0, 67, 73
1, 141144, Control_c, 0, 67, 65
1, 141147, Note_off_c, 0, 70, 60
1, 141155, Note_on_c, 0, 68, 53
1, 141158, Note_on_c, 0, 80, 62
1, 141159, Control_c, 0, 67, 56
1, 141159, Note_off_c, 0, 82, 59
1, 141174, Control_c, 0, 67, 48
1, 141188, Control_c, 0, 67, 42
1, 141203, Control_c, 0, 67, 36
1, 141225, Control_c, 0, 67, 33
1, 141228, Note_off_c, 0, 68, 63
1, 141240, Note_on_c, 0, 78, 69
1, 141240, Control_c, 0, 67, 31
1, 141248, Note_off_c, 0, 80, 61
1, 141248, Note_on_c, 0, 66, 48
1, 141302, Note_off_c, 0, 78, 61
1, 141322, Note_on_c, 0, 65, 62
1, 141327, Note_on_c, 0, 77, 60
1, 141347, Note_off_c, 0, 66, 39
1, 141359, Control_c, 0, 67, 32
1, 141373, Control_c, 0, 67, 32
1, 141388, Control_c, 0, 67, 33
1, 141393, Note_off_c, 0, 77, 58
1, 141400, Note_on_c, 0, 80, 71
1, 141410, Note_off_c, 0, 65, 63
1, 141448, Control_c, 0, 67, 34
1, 141462, Control_c, 0, 67, 34
1, 141477, Control_c, 0, 67, 35
1, 141480, Note_on_c, 0, 78, 73
1, 141484, Note_off_c, 0, 80, 62
1, 141492, Control_c, 0, 67, 35
1, 141507, Control_c, 0, 67, 36
1, 141536, Control_c, 0, 67, 37
1, 141551, Control_c, 0, 67, 38
1, 141558, Note_on_c, 0, 77, 77
1, 141566, Control_c, 0, 67, 38
1, 141570, Note_off_c, 0, 78, 59
1, 141610, Control_c, 0, 67, 39
1, 141625, Control_c, 0, 67, 40
1, 141629, Note_off_c, 0, 77, 61
1, 141632, Note_on_c, 0, 71, 63
1, 141637, Note_on_c, 0, 83, 73
1, 141641, Control_c, 0, 67, 40
1, 141700, Note_off_c, 0, 71, 59
1, 141704, Note_on_c, 0, 70, 69
1, 141713, Note_on_c, 0, 82, 76
1, 141730, Control_c, 0, 67, 40
1, 141744, Control_c, 0, 67, 39
1, 141759, Note_off_c, 0, 83, 59
1, 141787, Note_on_c, 0, 80, 85
1, 141788, Note_on_c, 0, 68, 73
1, 141789, Control_c, 0, 67, 40
1, 141794, Note_off_c, 0, 70, 63
1, 141804, Control_c, 0, 67, 40
1, 141820, Note_off_c, 0, 82, 62
1, 141854, Note_on_c, 0, 66, 70
1, 141858, Note_on_c, 0, 78, 85
1, 141861, Note_off_c, 0, 68, 65
1, 141881, Note_off_c, 0, 80, 63
1, 141892, Control_c, 0, 67, 41
1, 141907, Control_c, 0, 67, 41
1, 141934, Note_on_c, 0, 77, 83
1, 141937, Control_c, 0, 67, 41
1, 141938, Note_on_c, 0, 65, 78
1, 141955, Note_off_c, 0, 78, 64
1, 141977, Note_off_c, 0, 66, 66
1, 142004, Control_c, 0, 67, 40
1, 142016, Note_on_c, 0, 80, 86
1, 142029, Note_off_c, 0, 77, 62
1, 142034, Control_c, 0, 67, 40
1, 142041, Note_off_c, 0, 65, 65
1, 142094, Note_on_c, 0, 78, 85
1, 142108, Control_c, 0, 67, 39
1, 142116, Note_off_c, 0, 80, 59
1, 142137, Control_c, 0, 67, 39
1, 142170, Note_on_c, 0, 77, 87
1, 142178, Note_off_c, 0, 78, 64
1, 142211, Control_c, 0, 67, 38
1, 142270, Note_on_c, 0, 87, 86
1, 142283, Note_on_c, 0, 75, 81
1, 142288, Note_off_c, 0, 77, 62
1, 142315, Control_c, 0, 67, 39
1, 142363, Note_on_c, 0, 85, 76
1, 142374, Note_on_c, 0, 73, 78
1, 142387, Note_off_c, 0, 75, 62
1, 142420, Control_c, 0, 67, 39
1, 142426, Note_off_c, 0, 87, 63
1, 142435, Control_c, 0, 67, 40
1, 142449, Note_on_c, 0, 83, 80
1, 142467, Note_on_c, 0, 71, 66
1, 142488, Note_off_c, 0, 73, 63
1, 142494, Control_c, 0, 67, 41
1, 142501, Note_off_c, 0, 85, 54
1, 142509, Control_c, 0, 67, 41
1, 142524, Control_c, 0, 67, 42
1, 142528, Note_on_c, 0, 82, 85
1, 142539, Control_c, 0, 67, 42
1, 142544, Note_on_c, 0, 70, 75
1, 142553, Note_off_c, 0, 83, 59
1, 142554, Control_c, 0, 67, 43
1, 142569, Control_c, 0, 67, 43
1, 142573, Note_off_c, 0, 71, 62
1, 142584, Control_c, 0, 67, 44
1, 142602, Note_on_c, 0, 80, 80
1, 142602, Note_on_c, 0, 68, 74
1, 142615, Note_off_c, 0, 82, 63
1, 142641, Note_off_c, 0, 70, 61
1, 142649, Note_off_c, 0, 80, 67
1, 142673, Control_c, 0, 67, 43
1, 142681, Note_on_c, 0, 83, 82
1, 142691, Note_on_c, 0, 71, 80
1, 142695, Note_off_c, 0, 68, 66
1, 142702, Control_c, 0, 67, 43
1, 142754, Control_c, 0, 67, 42
1, 142771, Note_on_c, 0, 82, 82
1, 142780, Note_on_c, 0, 70, 79
1, 142783, Control_c, 0, 67, 42
1, 142789, Note_off_c, 0, 71, 59
1, 142828, Note_off_c, 0, 83, 58
1, 142846, Note_on_c, 0, 80, 88
1, 142852, Note_on_c, 0, 68, 74
1, 142871, Note_off_c, 0, 70, 62
1, 142873, Control_c, 0, 67, 42
1, 142876, Note_off_c, 0, 82, 64
1, 142917, Control_c, 0, 67, 43
1, 142923, Note_on_c, 0, 78, 89
1, 142928, Note_on_c, 0, 66, 76
1, 142947, Control_c, 0, 67, 43
1, 142960, Note_off_c, 0, 80, 62
1, 142961, Note_off_c, 0, 68, 64
1, 142962, Control_c, 0, 67, 44
1, 142986, Note_off_c, 0, 66, 68
1, 142992, Note_on_c, 0, 77, 87
1, 143001, Note_on_c, 0, 65, 83
1, 143011, Note_off_c, 0, 78, 63
1, 143065, Control_c, 0, 67, 44
1, 143073, Note_on_c, 0, 75, 88
1, 143080, Control_c, 0, 67, 45
1, 143085, Note_off_c, 0, 65, 61
1, 143086, Note_on_c, 0, 63, 82
1, 143090, Note_off_c, 0, 77, 60
1, 143094, Control_c, 0, 67, 45
1, 143109, Control_c, 0, 67, 46
1, 143150, Note_on_c, 0, 61, 66
1, 143153, Note_on_c, 0, 73, 84
1, 143154, Control_c, 0, 67, 47
1, 143165, Note_off_c, 0, 75, 62
1, 143168, Control_c, 0, 67, 47
1, 143185, Note_off_c, 0, 63, 64
1, 143198, Control_c, 0, 67, 48
1, 143231, Note_on_c, 0, 59, 68
1, 143234, Note_on_c, 0, 71, 86
1, 143243, Note_off_c, 0, 61, 64
1, 143248, Note_off_c, 0, 73, 63
1, 143307, Note_on_c, 0, 63, 87
1, 143313, Note_on_c, 0, 75, 84
1, 143317, Control_c, 0, 67, 48
1, 143318, Note_off_c, 0, 59, 64
1, 143322, Note_off_c, 0, 71, 60
1, 143332, Control_c, 0, 67, 49
1, 143362, Control_c, 0, 67, 49
1, 143391, Note_on_c, 0, 73, 83
1, 143391, Control_c, 0, 67, 50
1, 143393, Note_on_c, 0, 61, 79
1, 143394, Note_off_c, 0, 63, 66
1, 143406, Control_c, 0, 67, 51
1, 143418, Note_off_c, 0, 75, 62
1, 143421, Control_c, 0, 67, 52
1, 143436, Control_c, 0, 67, 55
1, 143451, Control_c, 0, 67, 58
1, 143452, Note_off_c, 0, 61, 64
1, 143469, Note_on_c, 0, 59, 81
1, 143472, Note_on_c, 0, 71, 86
1, 143473, Control_c, 0, 67, 61
1, 143479, Note_off_c, 0, 73, 63
1, 143488, Control_c, 0, 67, 64
1, 143503, Control_c, 0, 67, 68
1, 143517, Control_c, 0, 67, 71
1, 143532, Control_c, 0, 67, 75
1, 143547, Control_c, 0, 67, 78
1, 143555, Note_on_c, 0, 70, 88
1, 143561, Note_on_c, 0, 58, 81
1, 143561, Note_off_c, 0, 59, 61
1, 143562, Control_c, 0, 67, 81
1, 143573, Note_off_c, 0, 71, 58
1, 143577, Control_c, 0, 67, 84
1, 143591, Control_c, 0, 67, 87
1, 143606, Control_c, 0, 67, 88
1, 143627, Note_on_c, 0, 68, 85
1, 143630, Note_on_c, 0, 56, 70
1, 143660, Note_off_c, 0, 58, 62
1, 143666, Control_c, 0, 67, 88
1, 143669, Note_off_c, 0, 70, 59
1, 143696, Control_c, 0, 67, 87
1, 143710, Control_c, 0, 67, 87
1, 143711, Note_on_c, 0, 54, 72
1, 143711, Note_on_c, 0, 66, 89
1, 143725, Control_c, 0, 67, 86
1, 143740, Control_c, 0, 67, 85
1, 143741, Note_off_c, 0, 56, 65
1, 143755, Control_c, 0, 67, 84
1, 143762, Note_off_c, 0, 68, 62
1, 143770, Control_c, 0, 67, 83
1, 143780, Note_on_c, 0, 53, 70
1, 143785, Control_c, 0, 67, 80
1, 143790, Note_on_c, 0, 65, 90
1, 143799, Control_c, 0, 67, 76
1, 143814, Control_c, 0, 67, 67
1, 143822, Note_off_c, 0, 66, 65
1, 143829, Control_c, 0, 67, 48
1, 143831, Note_off_c, 0, 54, 61
1, 143843, Control_c, 0, 67, 20
1, 143858, Control_c, 0, 67, 0
1, 143876, Note_on_c, 0, 71, 90
1, 143880, Note_on_c, 0, 59, 82
1, 143886, Note_off_c, 0, 65, 64
1, 143924, Note_off_c, 0, 53, 66
1, 143951, Note_on_c, 0, 70, 85
1, 143969, Note_on_c, 0, 58, 82
1, 143994, Note_off_c, 0, 59, 62
1, 144037, Note_off_c, 0, 71, 56
1, 144038, Note_on_c, 0, 68, 85
1, 144051, Note_on_c, 0, 56, 72
1, 144056, Note_off_c, 0, 58, 65
1, 144079, Note_off_c, 0, 70, 59
1, 144108, Note_on_c, 0, 66, 87
1, 144128, Note_on_c, 0, 55, 44
1, 144149, Note_on_c, 0, 54, 73
1, 144154, Note_off_c, 0, 68, 60
1, 144175, Note_off_c, 0, 56, 63
1, 144181, Note_off_c, 0, 55, 47
1, 144201, Note_on_c, 0, 65, 87
1, 144224, Note_off_c, 0, 54, 64
1, 144235, Note_on_c, 0, 53, 72
1, 144236, Note_off_c, 0, 66, 65
1, 144301, Note_on_c, 0, 63, 91
1, 144326, Note_on_c, 0, 51, 80
1, 144330, Note_off_c, 0, 65, 67
1, 144350, Note_off_c, 0, 53, 61
1, 144386, Note_on_c, 0, 61, 86
1, 144401, Note_on_c, 0, 49, 72
1, 144420, Note_off_c, 0, 63, 65
1, 144434, Note_off_c, 0, 51, 63
1, 144473, Note_on_c, 0, 60, 93
1, 144485, Note_on_c, 0, 48, 77
1, 144508, Note_off_c, 0, 61, 64
1, 144522, Note_off_c, 0, 49, 62
1, 144603, Note_on_c, 0, 61, 100
1, 144609, Note_on_c, 0, 49, 90
1, 144635, Note_off_c, 0, 60, 55
1, 144643, Note_off_c, 0, 48, 66
1, 145000, Control_c, 0, 67, 9
1, 145015, Control_c, 0, 67, 11
1, 145030, Control_c, 0, 67, 12
1, 145133, Control_c, 0, 67, 11
1, 145148, Control_c, 0, 67, 11
1, 145162, Control_c, 0, 67, 10
1, 145177, Control_c, 0, 67, 9
1, 145192, Control_c, 0, 67, 9
1, 145207, Control_c, 0, 67, 8
1, 145222, Control_c, 0, 64, 49
1, 145222, Control_c, 0, 67, 0
1, 145237, Control_c, 0, 64, 54
1, 145252, Control_c, 0, 64, 60
1, 145266, Control_c, 0, 64, 63
1, 145281, Control_c, 0, 64, 66
1, 145296, Control_c, 0, 64, 68
1, 145311, Control_c, 0, 64, 71
1, 145326, Control_c, 0, 64, 75
1, 145341, Control_c, 0, 64, 79
1, 145356, Control_c, 0, 64, 83
1, 145370, Control_c, 0, 64, 87
1, 145385, Control_c, 0, 64, 89
1, 145400, Control_c, 0, 64, 90
1, 145415, Control_c, 0, 64, 92
1, 145430, Control_c, 0, 64, 93
1, 145444, Control_c, 0, 64, 95
1, 145459, Control_c, 0, 64, 96
1, 145474, Control_c, 0, 64, 98
1, 145488, Control_c, 0, 64, 99
1, 145503, Control_c, 0, 64, 100
1, 145518, Control_c, 0, 64, 101
1, 145533, Control_c, 0, 64, 101
1, 145604, Note_on_c, 0, 65, 95
1, 145606, Control_c, 0, 67, 8
1, 145609, Note_on_c, 0, 53, 89
1, 145621, Control_c, 0, 67, 9
1, 145638, Control_c, 0, 67, 12
1, 145653, Control_c, 0, 64, 101
1, 145653, Control_c, 0, 67, 14
1, 145667, Control_c, 0, 64, 98
1, 145667, Control_c, 0, 67, 17
1, 145682, Control_c, 0, 64, 94
1, 145682, Control_c, 0, 67, 23
1, 145697, Control_c, 0, 64, 87
1, 145697, Control_c, 0, 67, 27
1, 145719, Control_c, 0, 64, 79
1, 145719, Control_c, 0, 67, 28
1, 145734, Control_c, 0, 64, 68
1, 145749, Control_c, 0, 64, 0
1, 145779, Control_c, 0, 67, 29
1, 145793, Control_c, 0, 67, 30
1, 145808, Control_c, 0, 67, 32
1, 145823, Control_c, 0, 67, 36
1, 145837, Control_c, 0, 67, 38
1, 145852, Control_c, 0, 67, 42
1, 145867, Control_c, 0, 67, 46
1, 145882, Control_c, 0, 67, 53
1, 145897, Control_c, 0, 67, 62
1, 145911, Control_c, 0, 67, 72
1, 145926, Control_c, 0, 67, 85
1, 145941, Control_c, 0, 67, 94
1, 145956, Control_c, 0, 67, 101
1, 145971, Control_c, 0, 67, 106
1, 145985, Control_c, 0, 67, 109
1, 146000, Control_c, 0, 67, 112
1, 146015, Control_c, 0, 67, 113
1, 146030, Control_c, 0, 67, 114
1, 146074, Control_c, 0, 67, 113
1, 146089, Control_c, 0, 64, 36
1, 146089, Control_c, 0, 67, 112
1, 146104, Control_c, 0, 64, 65
1, 146104, Control_c, 0, 67, 111
1, 146119, Control_c, 0, 64, 71
1, 146119, Control_c, 0, 67, 110
1, 146134, Control_c, 0, 64, 80
1, 146134, Control_c, 0, 67, 109
1, 146149, Control_c, 0, 64, 89
1, 146164, Control_c, 0, 64, 95
1, 146164, Control_c, 0, 67, 109
1, 146179, Control_c, 0, 64, 101
1, 146179, Control_c, 0, 67, 108
1, 146194, Control_c, 0, 64, 106
1, 146208, Control_c, 0, 64, 111
1, 146208, Control_c, 0, 67, 108
1, 146223, Control_c, 0, 64, 116
1, 146223, Control_c, 0, 67, 107
1, 146238, Control_c, 0, 64, 124
1, 146238, Control_c, 0, 67, 107
1, 146245, Note_off_c, 0, 49, 59
1, 146253, Control_c, 0, 64, 127
1, 146253, Control_c, 0, 67, 106
1, 146268, Control_c, 0, 67, 106
1, 146277, Note_off_c, 0, 53, 61
1, 146286, Note_off_c, 0, 61, 57
1, 146295, Note_off_c, 0, 65, 58
1, 146528, Control_c, 0, 67, 105
1, 146542, Control_c, 0, 67, 105
1, 146572, Control_c, 0, 67, 104
1, 146609, Note_on_c, 0, 56, 86
1, 146610, Note_on_c, 0, 68, 86
1, 146612, Note_on_c, 0, 65, 84
1, 146614, Note_on_c, 0, 61, 80
1, 146617, Control_c, 0, 67, 105
1, 146632, Control_c, 0, 67, 106
1, 146647, Control_c, 0, 67, 107
1, 146676, Control_c, 0, 67, 107
1, 146706, Control_c, 0, 64, 124
1, 146706, Control_c, 0, 67, 108
1, 146721, Control_c, 0, 64, 110
1, 146735, Control_c, 0, 64, 102
1, 146735, Control_c, 0, 67, 108
1, 146750, Control_c, 0, 64, 93
1, 146765, Control_c, 0, 64, 84
1, 146780, Control_c, 0, 64, 74
1, 146795, Control_c, 0, 64, 58
1, 146795, Control_c, 0, 67, 109
1, 146809, Control_c, 0, 64, 0
1, 146822, Note_on_c, 0, 58, 87
1, 146827, Note_off_c, 0, 56, 65
1, 146853, Control_c, 0, 67, 109
1, 146964, Note_on_c, 0, 56, 86
1, 146984, Note_off_c, 0, 58, 65
1, 146986, Control_c, 0, 67, 109
1, 147015, Control_c, 0, 67, 108
1, 147045, Control_c, 0, 67, 108
1, 147074, Control_c, 0, 67, 107
1, 147089, Control_c, 0, 67, 107
1, 147104, Note_on_c, 0, 54, 84
1, 147119, Control_c, 0, 67, 106
1, 147130, Note_off_c, 0, 56, 61
1, 147148, Control_c, 0, 67, 106
1, 147215, Control_c, 0, 67, 105
1, 147222, Note_on_c, 0, 53, 78
1, 147239, Note_off_c, 0, 54, 60
1, 147246, Control_c, 0, 67, 105
1, 147320, Control_c, 0, 67, 104
1, 147373, Note_off_c, 0, 53, 63
1, 147376, Note_on_c, 0, 51, 71
1, 147532, Note_off_c, 0, 51, 61
1, 147535, Note_on_c, 0, 49, 67
1, 147556, Control_c, 0, 67, 104
1, 147586, Control_c, 0, 67, 103
1, 147616, Control_c, 0, 67, 103
1, 147630, Control_c, 0, 67, 102
1, 147645, Control_c, 0, 64, 45
1, 147660, Control_c, 0, 64, 64
1, 147675, Control_c, 0, 64, 68
1, 147686, Note_off_c, 0, 49, 59
1, 147690, Control_c, 0, 64, 72
1, 147702, Note_on_c, 0, 51, 57
1, 147705, Control_c, 0, 64, 75
1, 147720, Control_c, 0, 64, 78
1, 147720, Control_c, 0, 67, 103
1, 147735, Control_c, 0, 64, 79
1, 147749, Control_c, 0, 64, 79
1, 147770, Note_off_c, 0, 65, 55
1, 147794, Control_c, 0, 67, 103
1, 147858, Note_off_c, 0, 51, 59
1, 147868, Control_c, 0, 67, 104
1, 147869, Note_on_c, 0, 49, 54
1, 147882, Control_c, 0, 64, 79
1, 147882, Control_c, 0, 67, 104
1, 147897, Control_c, 0, 64, 78
1, 147912, Control_c, 0, 64, 77
1, 147927, Control_c, 0, 64, 75
1, 147942, Control_c, 0, 64, 75
1, 147964, Control_c, 0, 64, 74
1, 148018, Note_off_c, 0, 49, 61
1, 148023, Control_c, 0, 64, 74
1, 148025, Note_off_c, 0, 61, 61
1, 148039, Control_c, 0, 64, 72
1, 148039, Control_c, 0, 67, 104
1, 148042, Note_on_c, 0, 70, 70
1, 148054, Control_c, 0, 64, 66
1, 148054, Control_c, 0, 67, 103
1, 148062, Note_on_c, 0, 47, 50
1, 148069, Control_c, 0, 64, 22
1, 148081, Note_off_c, 0, 68, 63
1, 148082, Note_on_c, 0, 66, 44
1, 148083, Control_c, 0, 64, 0
1, 148098, Control_c, 0, 67, 103
1, 148113, Control_c, 0, 67, 102
1, 148173, Control_c, 0, 67, 103
1, 148202, Note_off_c, 0, 47, 64
1, 148217, Control_c, 0, 64, 46
1, 148230, Note_on_c, 0, 46, 52
1, 148232, Control_c, 0, 64, 63
1, 148247, Control_c, 0, 64, 67
1, 148261, Control_c, 0, 64, 70
1, 148276, Control_c, 0, 64, 74
1, 148291, Control_c, 0, 64, 77
1, 148305, Control_c, 0, 64, 79
1, 148320, Control_c, 0, 64, 79
1, 148320, Control_c, 0, 67, 103
1, 148335, Control_c, 0, 64, 80
1, 148337, Note_off_c, 0, 46, 48
1, 148343, Note_off_c, 0, 70, 53
1, 148365, Control_c, 0, 67, 104
1, 148376, Note_on_c, 0, 44, 48
1, 148409, Control_c, 0, 67, 104
1, 148453, Control_c, 0, 67, 105
1, 148472, Note_off_c, 0, 66, 65
1, 148480, Note_on_c, 0, 71, 65
1, 148483, Note_on_c, 0, 68, 52
1, 148489, Note_off_c, 0, 44, 53
1, 148513, Control_c, 0, 64, 79
1, 148513, Control_c, 0, 67, 105
1, 148528, Control_c, 0, 64, 79
1, 148542, Control_c, 0, 64, 78
1, 148542, Control_c, 0, 67, 106
1, 148555, Note_off_c, 0, 68, 37
1, 148555, Note_off_c, 0, 71, 56
1, 148557, Control_c, 0, 64, 76
1, 148557, Control_c, 0, 67, 106
1, 148572, Control_c, 0, 64, 72
1, 148572, Control_c, 0, 67, 107
1, 148587, Control_c, 0, 64, 66
1, 148587, Control_c, 0, 67, 107
1, 148593, Note_on_c, 0, 73, 57
1, 148594, Note_on_c, 0, 70, 56
1, 148602, Control_c, 0, 64, 42
1, 148617, Control_c, 0, 64, 0
1, 148617, Control_c, 0, 67, 108
1, 148623, Note_on_c, 0, 42, 41
1, 148646, Control_c, 0, 67, 108
1, 148727, Control_c, 0, 64, 44
1, 148742, Control_c, 0, 64, 64
1, 148742, Control_c, 0, 67, 108
1, 148748, Note_off_c, 0, 42, 60
1, 148757, Control_c, 0, 64, 68
1, 148772, Control_c, 0, 64, 72
1, 148787, Control_c, 0, 64, 75
1, 148802, Control_c, 0, 64, 78
1, 148811, Note_off_c, 0, 70, 53
1, 148817, Control_c, 0, 64, 79
1, 148832, Control_c, 0, 64, 80
1, 148847, Control_c, 0, 64, 80
1, 148847, Control_c, 0, 67, 107
1, 148891, Control_c, 0, 67, 107
1, 148951, Control_c, 0, 67, 106
1, 148957, Note_on_c, 0, 54, 40
1, 148966, Control_c, 0, 67, 106
1, 148981, Control_c, 0, 67, 105
1, 148996, Control_c, 0, 67, 105
1, 149010, Control_c, 0, 67, 104
1, 149025, Control_c, 0, 67, 103
1, 149040, Control_c, 0, 67, 102
1, 149054, Control_c, 0, 67, 101
1, 149069, Control_c, 0, 67, 101
1, 149099, Control_c, 0, 67, 100
1, 149114, Control_c, 0, 67, 96
1, 149128, Control_c, 0, 67, 88
1, 149144, Control_c, 0, 67, 80
1, 149159, Control_c, 0, 67, 72
1, 149163, Note_off_c, 0, 54, 36
1, 149172, Note_on_c, 0, 66, 53
1, 149174, Control_c, 0, 67, 65
1, 149187, Note_on_c, 0, 61, 37
1, 149189, Control_c, 0, 67, 60
1, 149202, Note_on_c, 0, 58, 38
1, 149203, Control_c, 0, 67, 56
1, 149218, Control_c, 0, 64, 79
1, 149218, Control_c, 0, 67, 53
1, 149233, Control_c, 0, 64, 76
1, 149233, Control_c, 0, 67, 52
1, 149240, Note_off_c, 0, 61, 0
1, 149248, Control_c, 0, 64, 73
1, 149248, Control_c, 0, 67, 51
1, 149262, Control_c, 0, 64, 69
1, 149262, Control_c, 0, 67, 49
1, 149276, Poly_aftertouch_c, 0, 61, 127
1, 149277, Control_c, 0, 64, 65
1, 149277, Control_c, 0, 67, 48
1, 149292, Control_c, 0, 64, 59
1, 149292, Control_c, 0, 67, 47
1, 149294, Note_off_c, 0, 73, 52
1, 149307, Control_c, 0, 64, 60
1, 149307, Control_c, 0, 67, 46
1, 149322, Control_c, 0, 64, 64
1, 149336, Control_c, 0, 64, 67
1, 149336, Control_c, 0, 67, 46
1, 149351, Control_c, 0, 64, 70
1, 149366, Control_c, 0, 64, 72
1, 149380, Note_on_c, 0, 54, 42
1, 149381, Control_c, 0, 64, 74
1, 149396, Control_c, 0, 64, 75
1, 149396, Control_c, 0, 67, 46
1, 149440, Control_c, 0, 67, 47
1, 149443, Poly_aftertouch_c, 0, 61, 0
1, 149462, Control_c, 0, 67, 47
1, 149492, Control_c, 0, 67, 48
1, 149510, Note_off_c, 0, 58, 38
1, 149522, Control_c, 0, 64, 74
1, 149536, Control_c, 0, 64, 73
1, 149538, Note_on_c, 0, 65, 71
1, 149551, Control_c, 0, 64, 71
1, 149556, Note_off_c, 0, 66, 53
1, 149560, Note_on_c, 0, 61, 53
1, 149566, Control_c, 0, 64, 66
1, 149566, Control_c, 0, 67, 48
1, 149569, Note_on_c, 0, 59, 41
1, 149576, Note_off_c, 0, 54, 39
1, 149581, Control_c, 0, 64, 35
1, 149596, Control_c, 0, 64, 0
1, 149656, Control_c, 0, 64, 53
1, 149671, Control_c, 0, 64, 64
1, 149685, Control_c, 0, 64, 69
1, 149700, Control_c, 0, 64, 72
1, 149715, Note_on_c, 0, 54, 49
1, 149715, Control_c, 0, 64, 75
1, 149720, Note_off_c, 0, 61, 34
1, 149730, Control_c, 0, 64, 77
1, 149730, Control_c, 0, 67, 49
1, 149745, Control_c, 0, 64, 77
1, 149759, Control_c, 0, 67, 50
1, 149780, Note_off_c, 0, 59, 35
1, 149789, Control_c, 0, 67, 51
1, 149819, Control_c, 0, 67, 51
1, 149833, Control_c, 0, 67, 52
1, 149848, Control_c, 0, 64, 77
1, 149848, Control_c, 0, 67, 53
1, 149860, Note_on_c, 0, 66, 85
1, 149863, Control_c, 0, 64, 74
1, 149863, Control_c, 0, 67, 54
1, 149878, Control_c, 0, 64, 67
1, 149878, Control_c, 0, 67, 55
1, 149884, Note_on_c, 0, 61, 56
1, 149891, Note_off_c, 0, 65, 64
1, 149892, Note_on_c, 0, 58, 58
1, 149893, Control_c, 0, 64, 26
1, 149893, Control_c, 0, 67, 56
1, 149893, Note_off_c, 0, 54, 58
1, 149908, Control_c, 0, 64, 0
1, 149908, Control_c, 0, 67, 57
1, 149923, Control_c, 0, 67, 58
1, 149938, Control_c, 0, 67, 59
1, 149952, Control_c, 0, 67, 61
1, 149967, Control_c, 0, 64, 16
1, 149967, Control_c, 0, 67, 64
1, 149982, Control_c, 0, 64, 63
1, 149982, Control_c, 0, 67, 67
1, 149997, Control_c, 0, 64, 69
1, 149997, Control_c, 0, 67, 70
1, 150009, Note_off_c, 0, 61, 62
1, 150012, Control_c, 0, 64, 74
1, 150012, Control_c, 0, 67, 74
1, 150026, Control_c, 0, 64, 78
1, 150026, Control_c, 0, 67, 78
1, 150030, Note_on_c, 0, 54, 58
1, 150041, Control_c, 0, 64, 81
1, 150041, Control_c, 0, 67, 82
1, 150048, Note_off_c, 0, 58, 62
1, 150056, Control_c, 0, 64, 82
1, 150056, Control_c, 0, 67, 87
1, 150071, Control_c, 0, 64, 82
1, 150071, Control_c, 0, 67, 91
1, 150085, Control_c, 0, 67, 95
1, 150100, Control_c, 0, 67, 99
1, 150115, Control_c, 0, 67, 101
1, 150122, Note_off_c, 0, 66, 63
1, 150130, Control_c, 0, 67, 103
1, 150145, Control_c, 0, 67, 105
1, 150159, Control_c, 0, 67, 106
1, 150164, Note_off_c, 0, 54, 54
1, 150174, Control_c, 0, 67, 108
1, 150189, Control_c, 0, 64, 82
1, 150189, Control_c, 0, 67, 109
1, 150212, Control_c, 0, 67, 110
1, 150227, Control_c, 0, 64, 81
1, 150231, Note_on_c, 0, 71, 81
1, 150241, Control_c, 0, 64, 81
1, 150241, Control_c, 0, 67, 111
1, 150242, Note_on_c, 0, 61, 57
1, 150250, Note_on_c, 0, 59, 59
1, 150251, Note_on_c, 0, 65, 64
1, 150256, Control_c, 0, 64, 80
1, 150256, Control_c, 0, 67, 112
1, 150262, Note_on_c, 0, 56, 48
1, 150271, Control_c, 0, 64, 78
1, 150271, Control_c, 0, 67, 114
1, 150285, Control_c, 0, 64, 75
1, 150285, Control_c, 0, 67, 115
1, 150300, Control_c, 0, 64, 71
1, 150300, Control_c, 0, 67, 116
1, 150315, Control_c, 0, 64, 63
1, 150315, Control_c, 0, 67, 117
1, 150330, Control_c, 0, 64, 0
1, 150330, Control_c, 0, 67, 117
1, 150345, Control_c, 0, 67, 118
1, 150359, Control_c, 0, 67, 120
1, 150374, Control_c, 0, 67, 121
1, 150389, Control_c, 0, 67, 121
1, 150403, Control_c, 0, 67, 122
1, 150450, Note_off_c, 0, 56, 55
1, 150458, Note_on_c, 0, 49, 47
1, 150508, Control_c, 0, 67, 121
1, 150523, Control_c, 0, 67, 121
1, 150538, Control_c, 0, 64, 39
1, 150538, Control_c, 0, 67, 120
1, 150553, Control_c, 0, 64, 62
1, 150553, Control_c, 0, 67, 119
1, 150568, Control_c, 0, 64, 65
1, 150568, Control_c, 0, 67, 117
1, 150582, Control_c, 0, 64, 68
1, 150582, Control_c, 0, 67, 116
1, 150592, Note_off_c, 0, 49, 53
1, 150597, Control_c, 0, 64, 70
1, 150597, Control_c, 0, 67, 115
1, 150606, Note_on_c, 0, 56, 44
1, 150612, Control_c, 0, 64, 72
1, 150612, Control_c, 0, 67, 114
1, 150627, Control_c, 0, 64, 75
1, 150627, Control_c, 0, 67, 113
1, 150642, Control_c, 0, 64, 77
1, 150642, Control_c, 0, 67, 112
1, 150656, Control_c, 0, 64, 78
1, 150656, Control_c, 0, 67, 111
1, 150671, Control_c, 0, 64, 79
1, 150671, Control_c, 0, 67, 110
1, 150686, Control_c, 0, 64, 79
1, 150686, Control_c, 0, 67, 109
1, 150700, Control_c, 0, 64, 81
1, 150715, Control_c, 0, 64, 83
1, 150715, Control_c, 0, 67, 108
1, 150730, Control_c, 0, 64, 86
1, 150730, Control_c, 0, 67, 107
1, 150745, Control_c, 0, 64, 88
1, 150745, Control_c, 0, 67, 105
1, 150760, Control_c, 0, 64, 90
1, 150760, Control_c, 0, 67, 103
1, 150769, Note_off_c, 0, 56, 44
1, 150774, Control_c, 0, 64, 92
1, 150774, Control_c, 0, 67, 102
1, 150778, Note_on_c, 0, 49, 40
1, 150789, Control_c, 0, 64, 92
1, 150789, Control_c, 0, 67, 101
1, 150833, Control_c, 0, 67, 101
1, 150894, Note_off_c, 0, 71, 52
1, 150931, Note_off_c, 0, 49, 32
1, 150936, Note_on_c, 0, 56, 47
1, 150960, Control_c, 0, 67, 100
1, 151020, Note_off_c, 0, 61, 37
1, 151033, Control_c, 0, 67, 100
1, 151052, Note_off_c, 0, 59, 56
1, 151122, Note_on_c, 0, 49, 33
1, 151144, Note_off_c, 0, 56, 35
1, 151167, Control_c, 0, 64, 92
1, 151301, Control_c, 0, 64, 91
1, 151309, Note_on_c, 0, 68, 63
1, 151316, Control_c, 0, 64, 89
1, 151321, Note_on_c, 0, 56, 47
1, 151326, Note_on_c, 0, 53, 47
1, 151330, Control_c, 0, 64, 84
1, 151333, Note_on_c, 0, 61, 46
1, 151343, Note_off_c, 0, 49, 39
1, 151345, Control_c, 0, 64, 78
1, 151360, Control_c, 0, 64, 69
1, 151360, Control_c, 0, 67, 99
1, 151375, Control_c, 0, 64, 49
1, 151390, Control_c, 0, 64, 0
1, 151419, Control_c, 0, 64, 57
1, 151419, Control_c, 0, 67, 99
1, 151434, Control_c, 0, 64, 65
1, 151449, Control_c, 0, 64, 69
1, 151464, Control_c, 0, 64, 72
1, 151479, Control_c, 0, 64, 76
1, 151494, Control_c, 0, 64, 79
1, 151494, Control_c, 0, 67, 95
1, 151499, Note_on_c, 0, 49, 47
1, 151508, Control_c, 0, 64, 80
1, 151508, Control_c, 0, 67, 91
1, 151521, Note_off_c, 0, 68, 63
1, 151523, Control_c, 0, 67, 88
1, 151538, Control_c, 0, 64, 80
1, 151538, Control_c, 0, 67, 87
1, 151553, Control_c, 0, 67, 88
1, 151557, Note_off_c, 0, 56, 41
1, 151568, Control_c, 0, 67, 88
1, 151597, Control_c, 0, 64, 80
1, 151627, Control_c, 0, 64, 79
1, 151627, Control_c, 0, 67, 89
1, 151642, Control_c, 0, 64, 76
1, 151642, Control_c, 0, 67, 89
1, 151656, Control_c, 0, 64, 68
1, 151662, Note_on_c, 0, 70, 80
1, 151671, Control_c, 0, 64, 32
1, 151676, Note_on_c, 0, 58, 59
1, 151681, Note_on_c, 0, 42, 49
1, 151686, Control_c, 0, 64, 0
1, 151702, Note_off_c, 0, 53, 40
1, 151714, Note_off_c, 0, 65, 57
1, 151738, Control_c, 0, 64, 48
1, 151753, Control_c, 0, 64, 65
1, 151757, Note_off_c, 0, 61, 43
1, 151768, Control_c, 0, 64, 70
1, 151783, Note_off_c, 0, 58, 64
1, 151783, Control_c, 0, 64, 77
1, 151789, Note_off_c, 0, 49, 36
1, 151798, Control_c, 0, 64, 81
1, 151812, Control_c, 0, 64, 82
1, 151818, Note_off_c, 0, 70, 62
1, 151827, Control_c, 0, 64, 83
1, 151856, Control_c, 0, 67, 90
1, 151857, Note_on_c, 0, 54, 53
1, 151871, Control_c, 0, 67, 90
1, 151901, Control_c, 0, 67, 91
1, 151990, Control_c, 0, 64, 82
1, 152004, Control_c, 0, 64, 82
1, 152004, Control_c, 0, 67, 91
1, 152009, Note_off_c, 0, 54, 52
1, 152018, Note_on_c, 0, 75, 85
1, 152019, Control_c, 0, 64, 79
1, 152035, Control_c, 0, 64, 75
1, 152036, Note_on_c, 0, 47, 53
1, 152040, Note_on_c, 0, 63, 54
1, 152050, Control_c, 0, 64, 67
1, 152050, Control_c, 0, 67, 92
1, 152065, Control_c, 0, 64, 0
1, 152139, Control_c, 0, 67, 93
1, 152153, Control_c, 0, 64, 47
1, 152168, Control_c, 0, 64, 66
1, 152183, Control_c, 0, 64, 72
1, 152198, Control_c, 0, 64, 77
1, 152198, Control_c, 0, 67, 93
1, 152212, Note_off_c, 0, 63, 62
1, 152213, Control_c, 0, 64, 80
1, 152213, Control_c, 0, 67, 94
1, 152215, Note_on_c, 0, 54, 43
1, 152227, Control_c, 0, 64, 80
1, 152236, Note_off_c, 0, 75, 64
1, 152242, Control_c, 0, 67, 94
1, 152272, Control_c, 0, 67, 95
1, 152286, Control_c, 0, 67, 95
1, 152346, Control_c, 0, 64, 80
1, 152361, Control_c, 0, 64, 76
1, 152367, Note_on_c, 0, 73, 73
1, 152370, Note_off_c, 0, 54, 39
1, 152376, Control_c, 0, 64, 68
1, 152382, Note_on_c, 0, 61, 55
1, 152391, Control_c, 0, 64, 0
1, 152394, Note_on_c, 0, 46, 48
1, 152406, Control_c, 0, 67, 95
1, 152413, Note_off_c, 0, 47, 46
1, 152420, Control_c, 0, 67, 94
1, 152455, Note_off_c, 0, 42, 52
1, 152486, Control_c, 0, 64, 54
1, 152501, Control_c, 0, 64, 66
1, 152516, Control_c, 0, 64, 71
1, 152528, Note_off_c, 0, 61, 59
1, 152531, Control_c, 0, 64, 76
1, 152531, Control_c, 0, 67, 95
1, 152546, Control_c, 0, 64, 79
1, 152546, Control_c, 0, 67, 95
1, 152561, Control_c, 0, 64, 80
1, 152561, Control_c, 0, 67, 96
1, 152565, Note_on_c, 0, 54, 44
1, 152576, Control_c, 0, 67, 96
1, 152580, Note_off_c, 0, 73, 62
1, 152591, Control_c, 0, 67, 97
1, 152605, Control_c, 0, 67, 99
1, 152620, Control_c, 0, 67, 100
1, 152635, Control_c, 0, 67, 101
1, 152650, Control_c, 0, 67, 104
1, 152665, Control_c, 0, 64, 80
1, 152665, Control_c, 0, 67, 107
1, 152679, Control_c, 0, 67, 111
1, 152694, Control_c, 0, 64, 79
1, 152694, Control_c, 0, 67, 116
1, 152709, Control_c, 0, 64, 78
1, 152709, Control_c, 0, 67, 123
1, 152724, Control_c, 0, 64, 76
1, 152724, Control_c, 0, 67, 127
1, 152739, Control_c, 0, 64, 74
1, 152740, Note_off_c, 0, 46, 40
1, 152746, Note_on_c, 0, 78, 77
1, 152753, Control_c, 0, 64, 71
1, 152759, Note_off_c, 0, 54, 20
1, 152768, Control_c, 0, 64, 66
1, 152776, Note_on_c, 0, 66, 41
1, 152777, Note_on_c, 0, 42, 37
1, 152783, Control_c, 0, 64, 41
1, 152788, Note_on_c, 0, 51, 32
1, 152797, Control_c, 0, 64, 0
1, 152889, Control_c, 0, 64, 60
1, 152903, Control_c, 0, 64, 67
1, 152918, Control_c, 0, 64, 70
1, 152933, Control_c, 0, 64, 74
1, 152942, Note_off_c, 0, 51, 54
1, 152948, Control_c, 0, 64, 75
1, 152960, Note_on_c, 0, 54, 31
1, 152962, Note_off_c, 0, 42, 40
1, 152963, Control_c, 0, 64, 76
1, 153002, Note_off_c, 0, 66, 52
1, 153005, Note_off_c, 0, 78, 63
1, 153110, Control_c, 0, 64, 76
1, 153117, Note_on_c, 0, 77, 66
1, 153124, Note_off_c, 0, 54, 19
1, 153125, Control_c, 0, 64, 74
1, 153130, Note_on_c, 0, 65, 47
1, 153134, Note_on_c, 0, 42, 21
1, 153140, Control_c, 0, 64, 68
1, 153141, Note_on_c, 0, 49, 38
1, 153155, Control_c, 0, 64, 52
1, 153169, Control_c, 0, 64, 0
1, 153186, Note_off_c, 0, 65, 0
1, 153186, Note_on_c, 0, 65, 4
1, 153236, Control_c, 0, 64, 52
1, 153251, Control_c, 0, 64, 63
1, 153266, Control_c, 0, 64, 67
1, 153281, Control_c, 0, 64, 69
1, 153295, Control_c, 0, 64, 73
1, 153308, Note_off_c, 0, 77, 56
1, 153310, Control_c, 0, 64, 75
1, 153320, Note_off_c, 0, 65, 56
1, 153325, Control_c, 0, 64, 77
1, 153327, Note_on_c, 0, 54, 32
1, 153330, Note_off_c, 0, 42, 41
1, 153340, Control_c, 0, 64, 77
1, 153473, Control_c, 0, 64, 77
1, 153476, Note_off_c, 0, 54, 37
1, 153488, Control_c, 0, 64, 76
1, 153500, Note_on_c, 0, 42, 29
1, 153502, Note_on_c, 0, 47, 35
1, 153503, Control_c, 0, 64, 74
1, 153511, Note_on_c, 0, 63, 39
1, 153511, Note_on_c, 0, 75, 44
1, 153518, Control_c, 0, 64, 70
1, 153533, Control_c, 0, 64, 62
1, 153547, Note_off_c, 0, 49, 31
1, 153547, Control_c, 0, 64, 0
1, 153607, Control_c, 0, 64, 33
1, 153622, Control_c, 0, 64, 60
1, 153637, Control_c, 0, 64, 65
1, 153652, Control_c, 0, 64, 69
1, 153667, Control_c, 0, 64, 72
1, 153677, Note_off_c, 0, 42, 45
1, 153682, Control_c, 0, 64, 75
1, 153696, Control_c, 0, 64, 78
1, 153705, Note_on_c, 0, 54, 32
1, 153711, Control_c, 0, 64, 78
1, 153722, Note_off_c, 0, 75, 59
1, 153729, Note_off_c, 0, 63, 51
1, 153874, Control_c, 0, 64, 78
1, 153904, Control_c, 0, 64, 77
1, 153917, Note_on_c, 0, 42, 18
1, 153918, Control_c, 0, 64, 77
1, 153923, Note_on_c, 0, 46, 30
1, 153925, Note_on_c, 0, 73, 44
1, 153932, Note_on_c, 0, 61, 37
1, 153933, Control_c, 0, 64, 76
1, 153956, Control_c, 0, 64, 74
1, 153967, Note_off_c, 0, 54, 22
1, 153971, Control_c, 0, 64, 70
1, 153986, Control_c, 0, 64, 56
1, 153993, Note_off_c, 0, 47, 34
1, 153994, Note_off_c, 0, 73, 0
1, 153994, Note_on_c, 0, 73, 5
1, 154000, Control_c, 0, 64, 0
1, 154089, Control_c, 0, 64, 60
1, 154104, Control_c, 0, 64, 64
1, 154119, Control_c, 0, 64, 67
1, 154133, Control_c, 0, 64, 68
1, 154148, Control_c, 0, 64, 70
1, 154150, Note_on_c, 0, 54, 4
1, 154163, Control_c, 0, 64, 72
1, 154178, Control_c, 0, 64, 74
1, 154193, Control_c, 0, 64, 75
1, 154207, Control_c, 0, 64, 75
1, 154258, Note_off_c, 0, 61, 36
1, 154281, Control_c, 0, 64, 75
1, 154311, Control_c, 0, 64, 74
1, 154320, Note_off_c, 0, 73, 37
1, 154325, Control_c, 0, 64, 74
1, 154335, Note_on_c, 0, 70, 45
1, 154340, Control_c, 0, 64, 73
1, 154342, Note_off_c, 0, 54, 34
1, 154355, Control_c, 0, 64, 72
1, 154358, Note_off_c, 0, 42, 40
1, 154370, Note_off_c, 0, 46, 39
1, 154370, Control_c, 0, 64, 70
1, 154385, Control_c, 0, 64, 68
1, 154398, Note_off_c, 0, 70, 60
1, 154400, Control_c, 0, 64, 64
1, 154415, Control_c, 0, 64, 52
1, 154422, Note_on_c, 0, 71, 44
1, 154430, Control_c, 0, 64, 0
1, 154501, Note_on_c, 0, 70, 62
1, 154534, Note_off_c, 0, 71, 40
1, 154561, Note_off_c, 0, 70, 62
1, 154572, Note_on_c, 0, 66, 54
1, 154625, Note_off_c, 0, 66, 63
1, 154656, Note_on_c, 0, 71, 58
1, 154733, Note_off_c, 0, 71, 62
1, 154745, Note_on_c, 0, 73, 62
1, 154818, Note_off_c, 0, 73, 60
1, 154823, Note_on_c, 0, 71, 60
1, 154892, Note_off_c, 0, 71, 60
1, 154895, Note_on_c, 0, 68, 55
1, 154975, Note_off_c, 0, 68, 58
1, 154985, Note_on_c, 0, 65, 52
1, 154988, Note_on_c, 0, 49, 37
1, 155060, Note_on_c, 0, 53, 44
1, 155143, Note_on_c, 0, 56, 48
1, 155154, Note_off_c, 0, 49, 41
1, 155157, Note_off_c, 0, 53, 60
1, 155221, Note_off_c, 0, 56, 61
1, 155250, Note_on_c, 0, 59, 40
1, 155299, Note_off_c, 0, 65, 41
1, 155354, Note_off_c, 0, 59, 39
1, 155365, Note_on_c, 0, 47, 35
1, 155644, Note_off_c, 0, 47, 42
1, 155846, Note_on_c, 0, 71, 43
1, 155917, Note_off_c, 0, 71, 58
1, 155940, Note_on_c, 0, 73, 39
1, 156012, Note_on_c, 0, 71, 39
1, 156029, Note_off_c, 0, 73, 34
1, 156069, Note_off_c, 0, 71, 58
1, 156096, Note_on_c, 0, 68, 50
1, 156185, Note_on_c, 0, 73, 42
1, 156194, Note_off_c, 0, 68, 58
1, 156268, Note_off_c, 0, 73, 59
1, 156286, Note_on_c, 0, 75, 38
1, 156349, Note_off_c, 0, 75, 42
1, 156380, Note_on_c, 0, 73, 33
1, 156436, Note_off_c, 0, 73, 42
1, 156461, Note_on_c, 0, 70, 29
1, 156515, Note_off_c, 0, 70, 42
1, 156546, Note_on_c, 0, 66, 24
1, 156562, Note_on_c, 0, 46, 24
1, 156635, Note_on_c, 0, 49, 31
1, 156705, Note_off_c, 0, 46, 39
1, 156721, Note_off_c, 0, 49, 46
1, 156728, Note_on_c, 0, 54, 28
1, 156780, Note_off_c, 0, 54, 45
1, 156803, Note_on_c, 0, 58, 39
1, 156895, Note_off_c, 0, 58, 52
1, 156941, Note_off_c, 0, 66, 44
1, 156976, Note_on_c, 0, 46, 31
1, 157142, Note_off_c, 0, 46, 43
1, 157492, Note_on_c, 0, 70, 41
1, 157563, Note_off_c, 0, 70, 58
1, 157602, Note_on_c, 0, 71, 44
1, 157655, Note_off_c, 0, 71, 58
1, 157694, Note_on_c, 0, 70, 54
1, 157756, Note_off_c, 0, 70, 59
1, 157769, Note_on_c, 0, 66, 52
1, 157824, Note_off_c, 0, 66, 60
1, 157858, Note_on_c, 0, 73, 61
1, 157923, Note_off_c, 0, 73, 62
1, 157933, Note_on_c, 0, 75, 61
1, 158011, Note_on_c, 0, 73, 68
1, 158015, Note_off_c, 0, 75, 59
1, 158076, Note_off_c, 0, 73, 59
1, 158087, Note_on_c, 0, 70, 55
1, 158163, Note_off_c, 0, 70, 54
1, 158177, Note_on_c, 0, 51, 40
1, 158177, Note_on_c, 0, 67, 56
1, 158245, Note_on_c, 0, 55, 45
1, 158275, Note_off_c, 0, 51, 55
1, 158332, Note_on_c, 0, 58, 45
1, 158349, Note_off_c, 0, 55, 59
1, 158409, Note_off_c, 0, 58, 62
1, 158427, Note_on_c, 0, 61, 46
1, 158469, Note_off_c, 0, 67, 38
1, 158494, Note_off_c, 0, 61, 51
1, 158527, Note_on_c, 0, 49, 49
1, 158597, Control_c, 0, 67, 114
1, 158612, Control_c, 0, 67, 104
1, 158627, Control_c, 0, 67, 96
1, 158641, Control_c, 0, 67, 88
1, 158656, Control_c, 0, 67, 81
1, 158671, Control_c, 0, 67, 73
1, 158686, Control_c, 0, 67, 65
1, 158701, Control_c, 0, 67, 54
1, 158703, Note_off_c, 0, 49, 55
1, 158715, Control_c, 0, 67, 39
1, 158730, Control_c, 0, 67, 26
1, 158745, Control_c, 0, 67, 16
1, 158760, Control_c, 0, 67, 11
1, 158775, Control_c, 0, 67, 0
1, 158953, Note_on_c, 0, 73, 49
1, 159014, Note_off_c, 0, 73, 57
1, 159032, Note_on_c, 0, 75, 53
1, 159104, Note_on_c, 0, 73, 70
1, 159108, Note_off_c, 0, 75, 61
1, 159178, Note_off_c, 0, 73, 61
1, 159181, Note_on_c, 0, 70, 72
1, 159274, Note_on_c, 0, 75, 73
1, 159278, Note_off_c, 0, 70, 62
1, 159349, Note_off_c, 0, 75, 63
1, 159351, Note_on_c, 0, 76, 67
1, 159424, Note_on_c, 0, 75, 71
1, 159444, Note_off_c, 0, 76, 65
1, 159460, Note_off_c, 0, 75, 64
1, 159503, Note_on_c, 0, 71, 62
1, 159557, Note_off_c, 0, 71, 57
1, 159575, Note_on_c, 0, 47, 38
1, 159578, Note_on_c, 0, 68, 74
1, 159612, Control_c, 0, 64, 51
1, 159627, Control_c, 0, 64, 68
1, 159641, Control_c, 0, 64, 75
1, 159656, Control_c, 0, 64, 85
1, 159658, Note_on_c, 0, 51, 53
1, 159670, Control_c, 0, 64, 92
1, 159685, Control_c, 0, 64, 96
1, 159694, Note_off_c, 0, 47, 28
1, 159700, Control_c, 0, 64, 97
1, 159715, Control_c, 0, 64, 99
1, 159730, Control_c, 0, 64, 100
1, 159733, Note_on_c, 0, 56, 57
1, 159772, Note_off_c, 0, 51, 55
1, 159822, Note_off_c, 0, 56, 61
1, 159834, Control_c, 0, 64, 99
1, 159834, Note_on_c, 0, 59, 62
1, 159849, Control_c, 0, 64, 96
1, 159850, Note_off_c, 0, 68, 60
1, 159863, Control_c, 0, 64, 92
1, 159878, Control_c, 0, 64, 85
1, 159893, Control_c, 0, 64, 77
1, 159902, Note_off_c, 0, 59, 61
1, 159908, Control_c, 0, 64, 63
1, 159923, Control_c, 0, 64, 0
1, 159944, Note_on_c, 0, 47, 70
1, 160129, Note_off_c, 0, 47, 62
1, 160346, Control_c, 0, 67, 8
1, 160360, Control_c, 0, 67, 8
1, 160375, Control_c, 0, 67, 9
1, 160390, Control_c, 0, 67, 11
1, 160405, Control_c, 0, 67, 12
1, 160406, Note_on_c, 0, 52, 53
1, 160407, Note_on_c, 0, 44, 41
1, 160407, Note_on_c, 0, 88, 68
1, 160411, Note_on_c, 0, 56, 55
1, 160419, Control_c, 0, 67, 13
1, 160449, Control_c, 0, 67, 12
1, 160464, Control_c, 0, 67, 11
1, 160479, Control_c, 0, 64, 47
1, 160479, Control_c, 0, 67, 9
1, 160486, Poly_aftertouch_c, 0, 47, 127
1, 160493, Control_c, 0, 64, 62
1, 160493, Control_c, 0, 67, 8
1, 160508, Control_c, 0, 64, 65
1, 160508, Control_c, 0, 67, 8
1, 160523, Control_c, 0, 64, 69
1, 160523, Control_c, 0, 67, 0
1, 160538, Control_c, 0, 64, 73
1, 160550, Note_on_c, 0, 87, 81
1, 160553, Control_c, 0, 64, 79
1, 160567, Control_c, 0, 64, 82
1, 160582, Control_c, 0, 64, 84
1, 160596, Note_off_c, 0, 52, 60
1, 160597, Control_c, 0, 64, 85
1, 160612, Control_c, 0, 64, 86
1, 160627, Control_c, 0, 64, 87
1, 160642, Control_c, 0, 64, 88
1, 160643, Note_off_c, 0, 88, 33
1, 160657, Control_c, 0, 64, 89
1, 160659, Note_off_c, 0, 56, 63
1, 160660, Note_on_c, 0, 85, 89
1, 160666, Note_off_c, 0, 44, 57
1, 160693, Control_c, 0, 64, 89
1, 160710, Note_off_c, 0, 87, 61
1, 160758, Poly_aftertouch_c, 0, 47, 0
1, 160772, Note_on_c, 0, 83, 86
1, 160777, Note_on_c, 0, 57, 86
1, 160782, Note_on_c, 0, 45, 68
1, 160782, Control_c, 0, 64, 89
1, 160784, Note_on_c, 0, 54, 79
1, 160792, Note_on_c, 0, 49, 72
1, 160797, Control_c, 0, 64, 88
1, 160810, Note_off_c, 0, 85, 64
1, 160813, Control_c, 0, 64, 85
1, 160828, Control_c, 0, 64, 81
1, 160842, Control_c, 0, 64, 74
1, 160857, Control_c, 0, 64, 65
1, 160872, Control_c, 0, 64, 0
1, 160881, Note_on_c, 0, 81, 86
1, 160889, Note_off_c, 0, 83, 59
1, 160985, Note_on_c, 0, 80, 86
1, 161015, Note_off_c, 0, 81, 63
1, 161021, Control_c, 0, 64, 46
1, 161035, Control_c, 0, 64, 63
1, 161050, Control_c, 0, 64, 66
1, 161065, Control_c, 0, 64, 70
1, 161080, Control_c, 0, 64, 75
1, 161090, Note_on_c, 0, 78, 95
1, 161095, Control_c, 0, 64, 81
1, 161109, Control_c, 0, 64, 83
1, 161124, Control_c, 0, 64, 84
1, 161129, Note_off_c, 0, 80, 61
1, 161138, Control_c, 0, 64, 85
1, 161153, Control_c, 0, 64, 86
1, 161168, Control_c, 0, 64, 86
1, 161190, Note_on_c, 0, 76, 92
1, 161196, Note_off_c, 0, 78, 64
1, 161206, Note_off_c, 0, 45, 57
1, 161211, Note_off_c, 0, 49, 57
1, 161212, Control_c, 0, 64, 87
1, 161233, Note_off_c, 0, 54, 55
1, 161239, Note_off_c, 0, 57, 56
1, 161271, Control_c, 0, 64, 86
1, 161295, Note_on_c, 0, 75, 91
1, 161325, Note_off_c, 0, 76, 68
1, 161355, Note_on_c, 0, 78, 4
1, 161403, Note_off_c, 0, 78, 27
1, 161419, Note_on_c, 0, 73, 88
1, 161420, Control_c, 0, 64, 86
1, 161439, Note_on_c, 0, 57, 78
1, 161441, Control_c, 0, 64, 85
1, 161443, Note_on_c, 0, 47, 70
1, 161444, Note_on_c, 0, 59, 91
1, 161446, Note_on_c, 0, 54, 75
1, 161450, Note_on_c, 0, 51, 72
1, 161456, Control_c, 0, 64, 82
1, 161460, Note_off_c, 0, 75, 59
1, 161471, Control_c, 0, 64, 77
1, 161486, Control_c, 0, 64, 69
1, 161501, Control_c, 0, 64, 24
1, 161515, Control_c, 0, 64, 0
1, 161534, Note_on_c, 0, 71, 76
1, 161561, Note_off_c, 0, 73, 59
1, 161641, Note_on_c, 0, 70, 81
1, 161672, Note_off_c, 0, 71, 61
1, 161754, Note_off_c, 0, 70, 55
1, 161762, Note_on_c, 0, 71, 84
1, 161799, Control_c, 0, 64, 59
1, 161813, Control_c, 0, 64, 66
1, 161828, Control_c, 0, 64, 72
1, 161843, Control_c, 0, 64, 78
1, 161857, Control_c, 0, 64, 83
1, 161859, Note_on_c, 0, 73, 83
1, 161872, Control_c, 0, 64, 86
1, 161877, Note_off_c, 0, 71, 59
1, 161887, Control_c, 0, 64, 88
1, 161902, Control_c, 0, 64, 89
1, 161905, Note_off_c, 0, 54, 60
1, 161917, Control_c, 0, 64, 90
1, 161931, Control_c, 0, 64, 91
1, 161936, Note_off_c, 0, 73, 60
1, 161946, Control_c, 0, 64, 92
1, 161961, Control_c, 0, 64, 92
1, 161969, Note_off_c, 0, 51, 57
1, 161972, Note_off_c, 0, 57, 37
1, 161972, Note_off_c, 0, 59, 51
1, 161977, Note_on_c, 0, 75, 80
1, 162040, Note_off_c, 0, 47, 36
1, 162118, Note_off_c, 0, 75, 63
1, 162124, Control_c, 0, 64, 92
1, 162138, Control_c, 0, 64, 90
1, 162153, Control_c, 0, 64, 85
1, 162156, Note_on_c, 0, 76, 85
1, 162161, Note_on_c, 0, 68, 93
1, 162162, Note_on_c, 0, 64, 87
1, 162168, Note_on_c, 0, 56, 79
1, 162168, Note_on_c, 0, 59, 79
1, 162168, Note_on_c, 0, 71, 81
1, 162168, Control_c, 0, 64, 76
1, 162171, Note_on_c, 0, 52, 78
1, 162190, Control_c, 0, 64, 62
1, 162190, Control_c, 0, 67, 8
1, 162205, Control_c, 0, 64, 0
1, 162205, Control_c, 0, 67, 9
1, 162220, Control_c, 0, 67, 12
1, 162235, Control_c, 0, 67, 15
1, 162250, Control_c, 0, 67, 17
1, 162264, Control_c, 0, 67, 20
1, 162279, Control_c, 0, 67, 21
1, 162294, Control_c, 0, 64, 63
1, 162294, Control_c, 0, 67, 22
1, 162309, Control_c, 0, 64, 71
1, 162309, Control_c, 0, 67, 24
1, 162324, Control_c, 0, 64, 78
1, 162324, Control_c, 0, 67, 27
1, 162338, Control_c, 0, 64, 84
1, 162338, Control_c, 0, 67, 27
1, 162345, Note_off_c, 0, 64, 62
1, 162353, Control_c, 0, 64, 86
1, 162353, Control_c, 0, 67, 26
1, 162360, Note_off_c, 0, 68, 61
1, 162368, Note_off_c, 0, 76, 63
1, 162368, Control_c, 0, 64, 87
1, 162368, Control_c, 0, 67, 25
1, 162373, Note_off_c, 0, 56, 63
1, 162383, Control_c, 0, 67, 25
1, 162384, Note_off_c, 0, 71, 62
1, 162386, Note_off_c, 0, 59, 55
1, 162398, Control_c, 0, 67, 24
1, 162414, Control_c, 0, 64, 87
1, 162434, Note_off_c, 0, 52, 59
1, 162443, Control_c, 0, 67, 24
1, 162487, Control_c, 0, 67, 24
1, 162517, Control_c, 0, 67, 25
1, 162532, Control_c, 0, 67, 25
1, 162547, Control_c, 0, 64, 86
1, 162547, Control_c, 0, 67, 26
1, 162562, Control_c, 0, 64, 82
1, 162562, Control_c, 0, 67, 27
1, 162567, Note_on_c, 0, 66, 97
1, 162570, Note_on_c, 0, 78, 94
1, 162571, Note_on_c, 0, 69, 80
1, 162574, Note_on_c, 0, 75, 80
1, 162577, Control_c, 0, 64, 71
1, 162579, Note_on_c, 0, 59, 81
1, 162580, Note_on_c, 0, 54, 78
1, 162586, Note_on_c, 0, 47, 75
1, 162591, Control_c, 0, 64, 0
1, 162594, Note_on_c, 0, 51, 71
1, 162605, Note_on_c, 0, 73, 42
1, 162606, Control_c, 0, 67, 26
1, 162621, Control_c, 0, 67, 25
1, 162633, Note_off_c, 0, 73, 52
1, 162636, Control_c, 0, 67, 24
1, 162651, Control_c, 0, 64, 62
1, 162651, Control_c, 0, 67, 23
1, 162661, Note_off_c, 0, 69, 63
1, 162666, Control_c, 0, 64, 71
1, 162666, Control_c, 0, 67, 22
1, 162681, Control_c, 0, 64, 81
1, 162681, Control_c, 0, 67, 22
1, 162696, Control_c, 0, 64, 90
1, 162696, Control_c, 0, 67, 21
1, 162701, Note_off_c, 0, 59, 62
1, 162711, Control_c, 0, 64, 93
1, 162711, Control_c, 0, 67, 21
1, 162726, Control_c, 0, 64, 93
1, 162731, Note_off_c, 0, 51, 63
1, 162741, Note_off_c, 0, 54, 61
1, 162741, Note_off_c, 0, 66, 64
1, 162741, Control_c, 0, 67, 21
1, 162749, Note_off_c, 0, 47, 62
1, 162755, Control_c, 0, 67, 22
1, 162773, Note_off_c, 0, 78, 62
1, 162792, Note_off_c, 0, 75, 59
1, 162800, Control_c, 0, 67, 22
1, 162814, Control_c, 0, 67, 23
1, 162829, Control_c, 0, 67, 24
1, 162844, Control_c, 0, 67, 24
1, 162859, Control_c, 0, 67, 25
1, 162874, Control_c, 0, 67, 25
1, 162903, Control_c, 0, 64, 93
1, 162918, Control_c, 0, 64, 92
1, 162918, Control_c, 0, 67, 25
1, 162940, Control_c, 0, 64, 91
1, 162955, Control_c, 0, 64, 88
1, 162970, Control_c, 0, 64, 84
1, 162970, Control_c, 0, 67, 24
1, 162974, Note_on_c, 0, 80, 91
1, 162975, Note_on_c, 0, 68, 92
1, 162983, Note_on_c, 0, 71, 79
1, 162985, Note_on_c, 0, 76, 77
1, 162985, Control_c, 0, 64, 75
1, 162985, Control_c, 0, 67, 25
1, 162994, Note_on_c, 0, 47, 74
1, 162997, Note_on_c, 0, 40, 71
1, 162997, Note_on_c, 0, 52, 77
1, 163000, Control_c, 0, 64, 64
1, 163000, Control_c, 0, 67, 25
1, 163004, Note_on_c, 0, 44, 69
1, 163014, Control_c, 0, 64, 0
1, 163014, Control_c, 0, 67, 26
1, 163029, Control_c, 0, 67, 27
1, 163044, Control_c, 0, 67, 27
1, 163059, Control_c, 0, 67, 28
1, 163088, Control_c, 0, 67, 27
1, 163103, Control_c, 0, 67, 25
1, 163118, Control_c, 0, 67, 24
1, 163133, Control_c, 0, 67, 22
1, 163148, Control_c, 0, 67, 22
1, 163162, Control_c, 0, 64, 54
1, 163177, Control_c, 0, 64, 69
1, 163192, Control_c, 0, 64, 78
1, 163192, Control_c, 0, 67, 21
1, 163208, Control_c, 0, 64, 87
1, 163223, Control_c, 0, 64, 90
1, 163237, Control_c, 0, 64, 91
1, 163237, Control_c, 0, 67, 22
1, 163252, Control_c, 0, 67, 23
1, 163267, Control_c, 0, 67, 26
1, 163271, Note_off_c, 0, 80, 65
1, 163278, Note_off_c, 0, 68, 57
1, 163282, Control_c, 0, 67, 29
1, 163286, Note_off_c, 0, 40, 61
1, 163287, Note_off_c, 0, 76, 62
1, 163297, Control_c, 0, 67, 35
1, 163298, Note_off_c, 0, 52, 60
1, 163300, Note_off_c, 0, 71, 58
1, 163310, Note_off_c, 0, 47, 61
1, 163311, Control_c, 0, 67, 52
1, 163315, Note_off_c, 0, 44, 62
1, 163326, Control_c, 0, 64, 89
1, 163326, Control_c, 0, 67, 82
1, 163341, Control_c, 0, 64, 84
1, 163341, Control_c, 0, 67, 110
1, 163356, Control_c, 0, 64, 72
1, 163356, Control_c, 0, 67, 127
1, 163371, Control_c, 0, 64, 40
1, 163385, Control_c, 0, 64, 0
1, 163994, Note_on_c, 0, 68, 45
1, 163995, Note_on_c, 0, 59, 39
1, 164007, Note_on_c, 0, 56, 32
1, 164008, Note_on_c, 0, 64, 36
1, 164031, Note_on_c, 0, 52, 23
1, 164127, Note_off_c, 0, 56, 51
1, 164133, Note_off_c, 0, 52, 59
1, 164133, Note_off_c, 0, 59, 52
1, 164150, Note_off_c, 0, 68, 57
1, 164158, Note_off_c, 0, 64, 56
1, 164841, Note_on_c, 0, 69, 42
1, 164847, Note_on_c, 0, 61, 34
1, 164863, Note_on_c, 0, 45, 29
1, 164872, Note_on_c, 0, 54, 21
1, 164883, Note_on_c, 0, 66, 14
1, 164887, Note_on_c, 0, 49, 19
1, 164962, Note_off_c, 0, 45, 49
1, 164973, Note_off_c, 0, 61, 55
1, 164980, Note_off_c, 0, 69, 56
1, 164982, Note_off_c, 0, 49, 37
1, 165000, Note_off_c, 0, 66, 39
1, 165012, Note_off_c, 0, 54, 41
1, 165453, Control_c, 0, 64, 25
1, 165468, Control_c, 0, 64, 34
1, 165483, Control_c, 0, 64, 39
1, 165498, Control_c, 0, 64, 41
1, 165513, Control_c, 0, 64, 43
1, 165527, Control_c, 0, 64, 44
1, 165542, Control_c, 0, 64, 45
1, 165557, Control_c, 0, 64, 46
1, 165572, Control_c, 0, 64, 48
1, 165587, Control_c, 0, 64, 50
1, 165602, Control_c, 0, 64, 52
1, 165617, Control_c, 0, 64, 53
1, 165632, Control_c, 0, 64, 55
1, 165647, Control_c, 0, 64, 57
1, 165662, Control_c, 0, 64, 59
1, 165663, Note_on_c, 0, 78, 84
1, 165677, Note_on_c, 0, 71, 60
1, 165677, Control_c, 0, 64, 61
1, 165683, Note_on_c, 0, 63, 47
1, 165684, Note_on_c, 0, 66, 48
1, 165689, Note_on_c, 0, 75, 43
1, 165691, Note_on_c, 0, 59, 43
1, 165692, Control_c, 0, 64, 64
1, 165706, Control_c, 0, 64, 66
1, 165721, Control_c, 0, 64, 68
1, 165736, Control_c, 0, 64, 72
1, 165751, Control_c, 0, 64, 77
1, 165766, Control_c, 0, 64, 81
1, 165780, Control_c, 0, 64, 83
1, 165795, Control_c, 0, 64, 85
1, 165810, Control_c, 0, 64, 86
1, 165824, Control_c, 0, 64, 88
1, 165839, Control_c, 0, 64, 89
1, 165853, Note_off_c, 0, 75, 62
1, 165854, Control_c, 0, 64, 89
1, 165869, Note_off_c, 0, 63, 58
1, 165918, Note_off_c, 0, 59, 49
1, 165948, Note_off_c, 0, 71, 31
1, 165958, Note_off_c, 0, 78, 58
1, 165971, Note_off_c, 0, 66, 39
1, 166010, Control_c, 0, 67, 108
1, 166025, Control_c, 0, 67, 88
1, 166039, Control_c, 0, 67, 72
1, 166054, Control_c, 0, 64, 89
1, 166054, Control_c, 0, 67, 59
1, 166069, Control_c, 0, 64, 88
1, 166069, Control_c, 0, 67, 51
1, 166083, Note_on_c, 0, 80, 90
1, 166084, Control_c, 0, 64, 86
1, 166084, Control_c, 0, 67, 45
1, 166099, Control_c, 0, 64, 83
1, 166099, Control_c, 0, 67, 43
1, 166102, Note_on_c, 0, 73, 55
1, 166103, Note_on_c, 0, 71, 53
1, 166106, Note_on_c, 0, 77, 54
1, 166109, Note_on_c, 0, 56, 53
1, 166112, Note_on_c, 0, 59, 45
1, 166112, Note_on_c, 0, 61, 49
1, 166113, Control_c, 0, 64, 78
1, 166113, Control_c, 0, 67, 42
1, 166121, Note_on_c, 0, 65, 52
1, 166128, Control_c, 0, 64, 69
1, 166143, Control_c, 0, 64, 0
1, 166143, Control_c, 0, 67, 42
1, 166148, Note_off_c, 0, 71, 0
1, 166148, Note_on_c, 0, 71, 4
1, 166157, Note_off_c, 0, 73, 0
1, 166157, Note_on_c, 0, 73, 14
1, 166157, Control_c, 0, 67, 41
1, 166172, Control_c, 0, 67, 40
1, 166187, Control_c, 0, 67, 37
1, 166202, Control_c, 0, 67, 31
1, 166217, Control_c, 0, 67, 19
1, 166231, Control_c, 0, 64, 64
1, 166231, Control_c, 0, 67, 0
1, 166246, Control_c, 0, 64, 72
1, 166261, Control_c, 0, 64, 79
1, 166276, Control_c, 0, 64, 85
1, 166281, Note_off_c, 0, 56, 54
1, 166291, Control_c, 0, 64, 86
1, 166297, Note_off_c, 0, 65, 62
1, 166306, Control_c, 0, 64, 87
1, 166321, Control_c, 0, 64, 87
1, 166322, Note_off_c, 0, 73, 38
1, 166323, Note_off_c, 0, 61, 58
1, 166374, Note_off_c, 0, 71, 47
1, 166390, Note_off_c, 0, 80, 58
1, 166474, Note_off_c, 0, 77, 24
1, 166522, Note_on_c, 0, 81, 88
1, 166544, Note_on_c, 0, 69, 59
1, 166544, Note_on_c, 0, 66, 54
1, 166544, Note_on_c, 0, 73, 55
1, 166549, Note_on_c, 0, 61, 44
1, 166550, Note_on_c, 0, 78, 60
1, 166553, Note_off_c, 0, 59, 40
1, 166556, Note_on_c, 0, 57, 47
1, 166558, Note_on_c, 0, 54, 41
1, 166559, Control_c, 0, 64, 87
1, 166573, Control_c, 0, 64, 86
1, 166588, Control_c, 0, 64, 85
1, 166603, Control_c, 0, 64, 84
1, 166618, Control_c, 0, 64, 82
1, 166633, Control_c, 0, 64, 80
1, 166647, Control_c, 0, 64, 76
1, 166662, Control_c, 0, 64, 71
1, 166684, Control_c, 0, 64, 64
1, 166699, Control_c, 0, 64, 38
1, 166714, Control_c, 0, 64, 0
1, 166803, Control_c, 0, 67, 11
1, 166818, Control_c, 0, 67, 22
1, 166818, Note_off_c, 0, 78, 32
1, 166833, Control_c, 0, 67, 39
1, 166848, Control_c, 0, 67, 62
1, 166862, Control_c, 0, 67, 92
1, 166877, Control_c, 0, 67, 120
1, 166892, Control_c, 0, 67, 127
1, 166896, Note_off_c, 0, 81, 58
1, 166911, Note_off_c, 0, 66, 65
1, 166923, Note_off_c, 0, 57, 58
1, 166932, Note_off_c, 0, 61, 41
1, 166938, Note_off_c, 0, 73, 57
1, 166941, Note_off_c, 0, 69, 40
1, 166970, Note_off_c, 0, 54, 56
1, 167575, Note_on_c, 0, 61, 30
1, 167583, Note_on_c, 0, 69, 25
1, 167584, Note_on_c, 0, 57, 30
1, 167590, Note_on_c, 0, 54, 30
1, 167656, Poly_aftertouch_c, 0, 66, 127
1, 167709, Note_off_c, 0, 61, 50
1, 167711, Poly_aftertouch_c, 0, 66, 0
1, 167716, Note_off_c, 0, 57, 50
1, 167723, Note_off_c, 0, 54, 36
1, 167725, Note_off_c, 0, 69, 47
1, 168384, Note_on_c, 0, 56, 40
1, 168390, Note_on_c, 0, 71, 43
1, 168397, Note_on_c, 0, 62, 35
1, 168401, Note_on_c, 0, 47, 34
1, 168456, Poly_aftertouch_c, 0, 68, 127
1, 168513, Note_off_c, 0, 62, 39
1, 168519, Poly_aftertouch_c, 0, 68, 0
1, 168519, Note_off_c, 0, 71, 54
1, 168522, Note_off_c, 0, 47, 38
1, 168533, Note_off_c, 0, 56, 54
1, 168850, Control_c, 0, 64, 16
1, 168865, Control_c, 0, 64, 32
1, 168880, Control_c, 0, 64, 43
1, 168895, Control_c, 0, 64, 51
1, 168910, Control_c, 0, 64, 57
1, 168932, Control_c, 0, 64, 60
1, 168947, Control_c, 0, 64, 61
1, 168962, Control_c, 0, 64, 63
1, 168976, Control_c, 0, 64, 63
1, 168991, Control_c, 0, 64, 64
1, 169006, Control_c, 0, 64, 65
1, 169021, Control_c, 0, 64, 66
1, 169036, Control_c, 0, 64, 67
1, 169050, Control_c, 0, 64, 69
1, 169065, Control_c, 0, 64, 72
1, 169080, Control_c, 0, 64, 75
1, 169095, Control_c, 0, 64, 78
1, 169110, Control_c, 0, 64, 79
1, 169139, Control_c, 0, 64, 80
1, 169183, Control_c, 0, 64, 80
1, 169213, Control_c, 0, 64, 81
1, 169228, Control_c, 0, 64, 81
1, 169330, Note_on_c, 0, 80, 49
1, 169340, Note_on_c, 0, 61, 34
1, 169343, Note_on_c, 0, 71, 34
1, 169367, Note_on_c, 0, 65, 31
1, 169371, Note_on_c, 0, 77, 6
1, 169489, Note_off_c, 0, 71, 36
1, 169498, Note_off_c, 0, 65, 40
1, 169501, Note_off_c, 0, 80, 48
1, 169506, Note_off_c, 0, 61, 40
1, 169514, Note_off_c, 0, 77, 33
1, 169769, Control_c, 0, 64, 81
1, 169784, Control_c, 0, 64, 80
1, 169798, Control_c, 0, 64, 78
1, 169810, Note_on_c, 0, 82, 61
1, 169813, Control_c, 0, 64, 75
1, 169826, Note_on_c, 0, 70, 38
1, 169828, Control_c, 0, 64, 71
1, 169843, Control_c, 0, 64, 66
1, 169847, Note_on_c, 0, 73, 17
1, 169852, Note_on_c, 0, 61, 29
1, 169852, Note_on_c, 0, 64, 29
1, 169856, Note_on_c, 0, 54, 18
1, 169856, Note_on_c, 0, 76, 13
1, 169858, Control_c, 0, 64, 51
1, 169872, Control_c, 0, 64, 0
1, 169946, Control_c, 0, 64, 54
1, 169961, Control_c, 0, 64, 65
1, 169976, Control_c, 0, 64, 68
1, 169991, Control_c, 0, 64, 71
1, 170005, Control_c, 0, 64, 75
1, 170018, Note_off_c, 0, 73, 36
1, 170020, Control_c, 0, 64, 77
1, 170035, Control_c, 0, 64, 78
1, 170045, Note_off_c, 0, 64, 42
1, 170050, Control_c, 0, 64, 79
1, 170061, Note_off_c, 0, 70, 41
1, 170065, Control_c, 0, 64, 79
1, 170066, Note_off_c, 0, 61, 38
1, 170100, Note_off_c, 0, 54, 38
1, 170114, Note_off_c, 0, 82, 57
1, 170187, Note_off_c, 0, 76, 27
1, 170316, Control_c, 0, 64, 79
1, 170327, Note_on_c, 0, 83, 53
1, 170342, Note_on_c, 0, 74, 28
1, 170346, Control_c, 0, 64, 78
1, 170359, Note_on_c, 0, 62, 26
1, 170363, Note_on_c, 0, 59, 26
1, 170369, Note_on_c, 0, 71, 18
1, 170376, Control_c, 0, 64, 77
1, 170392, Control_c, 0, 64, 75
1, 170407, Control_c, 0, 64, 70
1, 170428, Control_c, 0, 64, 62
1, 170443, Control_c, 0, 64, 25
1, 170458, Control_c, 0, 64, 0
1, 170723, Note_off_c, 0, 83, 59
1, 170736, Note_off_c, 0, 62, 54
1, 170748, Note_off_c, 0, 71, 38
1, 170750, Note_off_c, 0, 59, 41
1, 170758, Note_off_c, 0, 74, 43
1, 171377, Note_on_c, 0, 74, 37
1, 171380, Note_on_c, 0, 66, 37
1, 171385, Control_c, 0, 64, 24
1, 171385, Note_on_c, 0, 71, 26
1, 171400, Control_c, 0, 64, 67
1, 171400, Note_on_c, 0, 59, 27
1, 171400, Note_on_c, 0, 62, 16
1, 171415, Control_c, 0, 64, 74
1, 171430, Control_c, 0, 64, 82
1, 171444, Control_c, 0, 64, 85
1, 171459, Control_c, 0, 64, 86
1, 171474, Control_c, 0, 64, 88
1, 171489, Control_c, 0, 64, 89
1, 171534, Note_off_c, 0, 59, 39
1, 171542, Note_off_c, 0, 71, 37
1, 171545, Note_off_c, 0, 62, 37
1, 171546, Note_off_c, 0, 74, 46
1, 171548, Control_c, 0, 64, 88
1, 171550, Note_off_c, 0, 66, 40
1, 171563, Control_c, 0, 64, 87
1, 171577, Control_c, 0, 64, 82
1, 171592, Control_c, 0, 64, 75
1, 171607, Control_c, 0, 64, 66
1, 171621, Control_c, 0, 64, 24
1, 171636, Control_c, 0, 64, 0
1, 171999, Control_c, 0, 64, 57
1, 172014, Control_c, 0, 64, 62
1, 172029, Control_c, 0, 64, 64
1, 172044, Control_c, 0, 64, 65
1, 172059, Control_c, 0, 64, 66
1, 172073, Control_c, 0, 64, 69
1, 172088, Control_c, 0, 64, 71
1, 172103, Control_c, 0, 64, 74
1, 172118, Control_c, 0, 64, 76
1, 172133, Control_c, 0, 64, 77
1, 172147, Control_c, 0, 64, 78
1, 172177, Control_c, 0, 64, 78
1, 172191, Control_c, 0, 64, 79
1, 172280, Control_c, 0, 64, 78
1, 172286, Note_on_c, 0, 76, 49
1, 172292, Note_on_c, 0, 67, 43
1, 172295, Control_c, 0, 64, 76
1, 172309, Note_on_c, 0, 61, 34
1, 172310, Note_on_c, 0, 52, 30
1, 172310, Control_c, 0, 64, 72
1, 172325, Control_c, 0, 64, 65
1, 172331, Note_on_c, 0, 73, 26
1, 172336, Note_on_c, 0, 55, 12
1, 172339, Control_c, 0, 64, 22
1, 172354, Control_c, 0, 64, 0
1, 172473, Control_c, 0, 67, 124
1, 172474, Note_off_c, 0, 76, 52
1, 172479, Note_off_c, 0, 73, 33
1, 172488, Note_off_c, 0, 55, 40
1, 172488, Note_off_c, 0, 61, 47
1, 172488, Control_c, 0, 67, 118
1, 172490, Note_off_c, 0, 67, 46
1, 172503, Note_off_c, 0, 52, 48
1, 172503, Control_c, 0, 67, 113
1, 172518, Control_c, 0, 67, 108
1, 172533, Control_c, 0, 67, 104
1, 172548, Control_c, 0, 67, 99
1, 172563, Control_c, 0, 67, 94
1, 172578, Control_c, 0, 67, 87
1, 172592, Control_c, 0, 67, 80
1, 172607, Control_c, 0, 67, 74
1, 172622, Control_c, 0, 67, 69
1, 172637, Control_c, 0, 67, 63
1, 172652, Control_c, 0, 67, 61
1, 172673, Control_c, 0, 67, 60
1, 172688, Control_c, 0, 67, 58
1, 172703, Control_c, 0, 67, 53
1, 172718, Control_c, 0, 67, 46
1, 172733, Control_c, 0, 67, 37
1, 172747, Control_c, 0, 67, 28
1, 172762, Control_c, 0, 67, 23
1, 172777, Control_c, 0, 67, 21
1, 172793, Control_c, 0, 67, 17
1, 172808, Control_c, 0, 67, 13
1, 172822, Control_c, 0, 67, 9
1, 172837, Control_c, 0, 67, 0
1, 172882, Control_c, 0, 64, 26
1, 172896, Control_c, 0, 64, 32
1, 172911, Control_c, 0, 64, 38
1, 172926, Control_c, 0, 64, 43
1, 172941, Control_c, 0, 64, 45
1, 172956, Control_c, 0, 64, 46
1, 172971, Control_c, 0, 64, 47
1, 172986, Control_c, 0, 64, 48
1, 173001, Control_c, 0, 64, 50
1, 173015, Control_c, 0, 64, 53
1, 173030, Control_c, 0, 64, 60
1, 173045, Control_c, 0, 64, 64
1, 173051, Note_on_c, 0, 82, 69
1, 173060, Control_c, 0, 64, 67
1, 173066, Note_on_c, 0, 70, 47
1, 173069, Note_on_c, 0, 58, 41
1, 173069, Note_on_c, 0, 73, 48
1, 173075, Control_c, 0, 64, 71
1, 173075, Note_on_c, 0, 61, 43
1, 173089, Note_on_c, 0, 54, 37
1, 173089, Control_c, 0, 64, 77
1, 173096, Note_on_c, 0, 76, 43
1, 173104, Control_c, 0, 64, 84
1, 173119, Control_c, 0, 64, 89
1, 173134, Control_c, 0, 64, 92
1, 173148, Control_c, 0, 64, 95
1, 173163, Control_c, 0, 64, 97
1, 173178, Control_c, 0, 64, 100
1, 173193, Control_c, 0, 64, 101
1, 173208, Control_c, 0, 64, 102
1, 173211, Note_off_c, 0, 58, 62
1, 173211, Note_off_c, 0, 61, 62
1, 173222, Control_c, 0, 64, 103
1, 173226, Note_off_c, 0, 70, 52
1, 173239, Note_off_c, 0, 54, 53
1, 173242, Note_off_c, 0, 73, 63
1, 173267, Control_c, 0, 64, 103
1, 173317, Note_off_c, 0, 82, 63
1, 173321, Note_off_c, 0, 76, 42
1, 173422, Control_c, 0, 64, 103
1, 173454, Note_on_c, 0, 83, 87
1, 173464, Note_on_c, 0, 71, 72
1, 173467, Note_on_c, 0, 47, 63
1, 173467, Control_c, 0, 64, 102
1, 173469, Note_on_c, 0, 54, 59
1, 173470, Note_on_c, 0, 74, 60
1, 173471, Note_on_c, 0, 59, 60
1, 173482, Control_c, 0, 64, 98
1, 173496, Control_c, 0, 64, 88
1, 173511, Control_c, 0, 64, 76
1, 173526, Control_c, 0, 64, 62
1, 173540, Control_c, 0, 64, 0
1, 173555, Control_c, 0, 64, 25
1, 173570, Control_c, 0, 64, 65
1, 173585, Control_c, 0, 64, 74
1, 173601, Control_c, 0, 64, 87
1, 173615, Note_off_c, 0, 71, 58
1, 173616, Control_c, 0, 64, 95
1, 173618, Note_off_c, 0, 47, 61
1, 173623, Note_off_c, 0, 74, 65
1, 173631, Control_c, 0, 64, 98
1, 173640, Note_off_c, 0, 59, 57
1, 173645, Control_c, 0, 64, 101
1, 173655, Note_off_c, 0, 83, 62
1, 173660, Control_c, 0, 64, 103
1, 173666, Note_off_c, 0, 54, 60
1, 173675, Control_c, 0, 64, 106
1, 173690, Control_c, 0, 64, 106
1, 173705, Control_c, 0, 64, 107
1, 173794, Control_c, 0, 64, 106
1, 173880, Note_on_c, 0, 85, 94
1, 173892, Note_on_c, 0, 76, 72
1, 173895, Note_on_c, 0, 73, 76
1, 173898, Control_c, 0, 64, 106
1, 173904, Note_on_c, 0, 46, 62
1, 173907, Note_on_c, 0, 58, 63
1, 173912, Control_c, 0, 64, 105
1, 173914, Note_on_c, 0, 54, 60
1, 173927, Control_c, 0, 64, 102
1, 173942, Control_c, 0, 64, 98
1, 173956, Control_c, 0, 64, 93
1, 173971, Control_c, 0, 64, 84
1, 173986, Control_c, 0, 64, 74
1, 174001, Control_c, 0, 64, 50
1, 174016, Control_c, 0, 64, 0
1, 174149, Control_c, 0, 64, 64
1, 174171, Control_c, 0, 64, 75
1, 174186, Control_c, 0, 64, 86
1, 174201, Control_c, 0, 64, 92
1, 174216, Control_c, 0, 64, 94
1, 174222, Note_off_c, 0, 73, 61
1, 174231, Control_c, 0, 64, 94
1, 174244, Note_off_c, 0, 76, 65
1, 174244, Note_off_c, 0, 85, 63
1, 174247, Note_off_c, 0, 46, 59
1, 174271, Note_off_c, 0, 54, 58
1, 174289, Note_off_c, 0, 58, 61
1, 174290, Control_c, 0, 67, 8
1, 174305, Control_c, 0, 64, 93
1, 174305, Control_c, 0, 67, 13
1, 174319, Control_c, 0, 64, 89
1, 174319, Control_c, 0, 67, 22
1, 174334, Control_c, 0, 64, 83
1, 174334, Control_c, 0, 67, 35
1, 174349, Control_c, 0, 64, 74
1, 174349, Control_c, 0, 67, 55
1, 174363, Control_c, 0, 64, 57
1, 174363, Control_c, 0, 67, 73
1, 174378, Control_c, 0, 64, 0
1, 174378, Control_c, 0, 67, 90
1, 174394, Control_c, 0, 67, 104
1, 174409, Control_c, 0, 67, 116
1, 174424, Control_c, 0, 67, 126
1, 174439, Control_c, 0, 67, 127
1, 174779, Note_on_c, 0, 73, 57
1, 174794, Note_on_c, 0, 70, 46
1, 174798, Note_on_c, 0, 61, 35
1, 174798, Note_on_c, 0, 64, 32
1, 174824, Control_c, 0, 64, 10
1, 174839, Control_c, 0, 64, 52
1, 174854, Control_c, 0, 64, 61
1, 174868, Control_c, 0, 64, 64
1, 174883, Control_c, 0, 64, 67
1, 174898, Control_c, 0, 64, 70
1, 174920, Control_c, 0, 64, 75
1, 174935, Control_c, 0, 64, 80
1, 174950, Control_c, 0, 64, 82
1, 174965, Control_c, 0, 64, 82
1, 174994, Control_c, 0, 64, 83
1, 175127, Control_c, 0, 64, 82
1, 175142, Control_c, 0, 64, 80
1, 175157, Control_c, 0, 64, 77
1, 175172, Control_c, 0, 64, 71
1, 175188, Note_on_c, 0, 63, 40
1, 175188, Control_c, 0, 64, 63
1, 175191, Note_on_c, 0, 75, 72
1, 175197, Note_on_c, 0, 71, 58
1, 175201, Note_off_c, 0, 64, 40
1, 175203, Control_c, 0, 64, 0
1, 175207, Note_off_c, 0, 73, 60
1, 175225, Note_on_c, 0, 59, 31
1, 175241, Note_off_c, 0, 61, 40
1, 175252, Note_off_c, 0, 70, 40
1, 175335, Control_c, 0, 64, 49
1, 175350, Control_c, 0, 64, 65
1, 175366, Control_c, 0, 64, 69
1, 175381, Control_c, 0, 64, 72
1, 175396, Control_c, 0, 64, 75
1, 175410, Control_c, 0, 64, 77
1, 175425, Control_c, 0, 64, 78
1, 175532, Note_off_c, 0, 59, 40
1, 175551, Note_off_c, 0, 71, 49
1, 175579, Note_off_c, 0, 75, 60
1, 175588, Control_c, 0, 64, 77
1, 175603, Control_c, 0, 64, 74
1, 175610, Note_on_c, 0, 76, 58
1, 175618, Control_c, 0, 64, 70
1, 175633, Control_c, 0, 64, 63
1, 175635, Note_on_c, 0, 61, 37
1, 175639, Note_on_c, 0, 73, 39
1, 175648, Control_c, 0, 64, 34
1, 175666, Note_on_c, 0, 58, 30
1, 175670, Control_c, 0, 64, 0
1, 175707, Note_off_c, 0, 63, 20
1, 175925, Note_off_c, 0, 76, 61
1, 175946, Note_off_c, 0, 61, 53
1, 175955, Note_off_c, 0, 58, 54
1, 175962, Note_off_c, 0, 73, 56
1, 176467, Note_on_c, 0, 73, 43
1, 176479, Note_on_c, 0, 58, 29
1, 176481, Note_on_c, 0, 66, 33
1, 176482, Note_on_c, 0, 70, 28
1, 176500, Note_on_c, 0, 61, 25
1, 176661, Note_off_c, 0, 70, 19
1, 176667, Note_off_c, 0, 61, 49
1, 176673, Note_off_c, 0, 58, 45
1, 176679, Note_off_c, 0, 66, 47
1, 176688, Note_off_c, 0, 73, 54
1, 177308, Note_on_c, 0, 76, 50
1, 177314, Note_on_c, 0, 66, 41
1, 177316, Note_on_c, 0, 58, 32
1, 177319, Note_on_c, 0, 73, 24
1, 177332, Note_on_c, 0, 54, 34
1, 177483, Note_off_c, 0, 54, 50
1, 177494, Note_off_c, 0, 58, 55
1, 177513, Note_off_c, 0, 66, 54
1, 177515, Note_off_c, 0, 76, 42
1, 177531, Note_off_c, 0, 73, 47
1, 178152, Control_c, 0, 64, 43
1, 178162, Note_on_c, 0, 71, 39
1, 178167, Control_c, 0, 64, 61
1, 178174, Note_on_c, 0, 66, 27
1, 178176, Note_on_c, 0, 75, 39
1, 178182, Control_c, 0, 64, 66
1, 178185, Note_on_c, 0, 59, 20
1, 178189, Note_on_c, 0, 63, 26
1, 178197, Control_c, 0, 64, 69
1, 178211, Control_c, 0, 64, 72
1, 178226, Control_c, 0, 64, 77
1, 178241, Control_c, 0, 64, 80
1, 178256, Control_c, 0, 64, 82
1, 178271, Control_c, 0, 64, 83
1, 178286, Control_c, 0, 64, 84
1, 178291, Note_off_c, 0, 66, 43
1, 178301, Control_c, 0, 64, 84
1, 178316, Control_c, 0, 64, 85
1, 178326, Note_off_c, 0, 75, 41
1, 178343, Note_off_c, 0, 71, 37
1, 178367, Note_off_c, 0, 59, 39
1, 178418, Note_off_c, 0, 63, 33
1, 178480, Control_c, 0, 64, 84
1, 178524, Control_c, 0, 64, 84
1, 178553, Control_c, 0, 64, 83
1, 178553, Control_c, 0, 67, 123
1, 178568, Control_c, 0, 64, 82
1, 178568, Control_c, 0, 67, 109
1, 178573, Note_on_c, 0, 78, 57
1, 178583, Control_c, 0, 64, 82
1, 178583, Control_c, 0, 67, 91
1, 178598, Control_c, 0, 64, 81
1, 178598, Control_c, 0, 67, 59
1, 178613, Control_c, 0, 64, 79
1, 178613, Control_c, 0, 67, 27
1, 178627, Control_c, 0, 64, 77
1, 178627, Control_c, 0, 67, 0
1, 178642, Control_c, 0, 64, 73
1, 178647, Note_off_c, 0, 78, 61
1, 178658, Note_on_c, 0, 80, 65
1, 178665, Control_c, 0, 64, 66
1, 178679, Control_c, 0, 64, 42
1, 178694, Control_c, 0, 64, 0
1, 178737, Note_on_c, 0, 78, 69
1, 178757, Note_off_c, 0, 80, 56
1, 178817, Note_off_c, 0, 78, 60
1, 178824, Note_on_c, 0, 75, 62
1, 178910, Note_off_c, 0, 75, 58
1, 178931, Note_on_c, 0, 83, 67
1, 179079, Control_c, 0, 64, 43
1, 179094, Control_c, 0, 64, 62
1, 179109, Control_c, 0, 64, 65
1, 179124, Control_c, 0, 64, 66
1, 179139, Control_c, 0, 64, 67
1, 179154, Control_c, 0, 64, 69
1, 179168, Control_c, 0, 64, 71
1, 179184, Control_c, 0, 64, 73
1, 179199, Control_c, 0, 64, 74
1, 179214, Control_c, 0, 64, 75
1, 179229, Control_c, 0, 64, 75
1, 179288, Control_c, 0, 64, 75
1, 179318, Control_c, 0, 64, 74
1, 179331, Note_on_c, 0, 71, 31
1, 179332, Control_c, 0, 64, 73
1, 179334, Note_on_c, 0, 75, 38
1, 179347, Control_c, 0, 64, 72
1, 179362, Control_c, 0, 64, 69
1, 179377, Control_c, 0, 64, 66
1, 179392, Control_c, 0, 64, 57
1, 179414, Control_c, 0, 64, 13
1, 179429, Control_c, 0, 64, 0
1, 179473, Control_c, 0, 64, 21
1, 179488, Control_c, 0, 64, 56
1, 179503, Control_c, 0, 64, 63
1, 179518, Control_c, 0, 64, 66
1, 179532, Control_c, 0, 64, 68
1, 179547, Control_c, 0, 64, 70
1, 179562, Control_c, 0, 64, 71
1, 179577, Control_c, 0, 64, 72
1, 179592, Control_c, 0, 64, 73
1, 179606, Control_c, 0, 64, 74
1, 179621, Control_c, 0, 64, 74
1, 179710, Control_c, 0, 64, 74
1, 179725, Control_c, 0, 64, 71
1, 179740, Control_c, 0, 64, 64
1, 179749, Note_on_c, 0, 76, 54
1, 179749, Note_off_c, 0, 71, 39
1, 179750, Note_on_c, 0, 73, 44
1, 179753, Note_off_c, 0, 75, 32
1, 179755, Control_c, 0, 64, 0
1, 179872, Control_c, 0, 64, 56
1, 179887, Control_c, 0, 64, 66
1, 179902, Control_c, 0, 64, 69
1, 179916, Control_c, 0, 64, 71
1, 179931, Control_c, 0, 64, 72
1, 179946, Control_c, 0, 64, 74
1, 179961, Control_c, 0, 64, 76
1, 179968, Note_off_c, 0, 83, 55
1, 179977, Control_c, 0, 64, 77
1, 179995, Note_on_c, 0, 82, 52
1, 180034, Note_off_c, 0, 82, 65
1, 180051, Control_c, 0, 64, 76
1, 180058, Note_on_c, 0, 83, 53
1, 180066, Control_c, 0, 64, 74
1, 180080, Control_c, 0, 64, 70
1, 180095, Control_c, 0, 64, 58
1, 180108, Note_off_c, 0, 83, 58
1, 180110, Control_c, 0, 64, 0
1, 180121, Note_on_c, 0, 82, 68
1, 180188, Note_off_c, 0, 82, 65
1, 180197, Note_on_c, 0, 80, 70
1, 180236, Control_c, 0, 67, 11
1, 180251, Control_c, 0, 67, 19
1, 180257, Note_off_c, 0, 80, 62
1, 180266, Control_c, 0, 67, 26
1, 180268, Note_on_c, 0, 82, 70
1, 180280, Control_c, 0, 67, 27
1, 180310, Control_c, 0, 67, 29
1, 180325, Control_c, 0, 67, 31
1, 180331, Note_off_c, 0, 82, 64
1, 180343, Note_on_c, 0, 83, 75
1, 180355, Control_c, 0, 67, 31
1, 180392, Note_off_c, 0, 83, 58
1, 180414, Control_c, 0, 67, 30
1, 180429, Control_c, 0, 67, 29
1, 180442, Note_on_c, 0, 85, 71
1, 180459, Control_c, 0, 67, 30
1, 180474, Control_c, 0, 67, 31
1, 180488, Control_c, 0, 64, 24
1, 180488, Control_c, 0, 67, 32
1, 180503, Control_c, 0, 64, 64
1, 180518, Control_c, 0, 64, 69
1, 180518, Control_c, 0, 67, 32
1, 180532, Control_c, 0, 64, 74
1, 180532, Control_c, 0, 67, 32
1, 180547, Control_c, 0, 64, 78
1, 180547, Control_c, 0, 67, 33
1, 180562, Control_c, 0, 64, 81
1, 180562, Control_c, 0, 67, 35
1, 180577, Control_c, 0, 64, 83
1, 180577, Control_c, 0, 67, 42
1, 180592, Control_c, 0, 64, 84
1, 180592, Control_c, 0, 67, 51
1, 180606, Control_c, 0, 64, 84
1, 180606, Control_c, 0, 67, 58
1, 180621, Control_c, 0, 64, 85
1, 180621, Control_c, 0, 67, 64
1, 180636, Control_c, 0, 67, 71
1, 180651, Control_c, 0, 67, 81
1, 180658, Note_off_c, 0, 73, 52
1, 180666, Control_c, 0, 67, 93
1, 180680, Control_c, 0, 67, 103
1, 180682, Note_off_c, 0, 76, 59
1, 180695, Control_c, 0, 67, 112
1, 180710, Control_c, 0, 67, 118
1, 180724, Control_c, 0, 67, 123
1, 180739, Control_c, 0, 67, 127
1, 180754, Control_c, 0, 67, 127
1, 180800, Control_c, 0, 64, 84
1, 180815, Control_c, 0, 64, 82
1, 180826, Note_on_c, 0, 76, 80
1, 180829, Note_on_c, 0, 73, 52
1, 180829, Control_c, 0, 64, 80
1, 180831, Note_on_c, 0, 82, 70
1, 180844, Control_c, 0, 64, 74
1, 180859, Control_c, 0, 64, 58
1, 180874, Control_c, 0, 64, 0
1, 180878, Note_off_c, 0, 85, 56
1, 180955, Control_c, 0, 64, 32
1, 180970, Control_c, 0, 64, 63
1, 180985, Control_c, 0, 64, 67
1, 181000, Control_c, 0, 64, 69
1, 181015, Control_c, 0, 64, 72
1, 181029, Control_c, 0, 64, 74
1, 181044, Control_c, 0, 64, 76
1, 181059, Control_c, 0, 64, 77
1, 181091, Note_off_c, 0, 73, 50
1, 181207, Control_c, 0, 64, 76
1, 181222, Control_c, 0, 64, 76
1, 181237, Control_c, 0, 64, 75
1, 181252, Control_c, 0, 64, 75
1, 181267, Control_c, 0, 64, 74
1, 181281, Control_c, 0, 64, 74
1, 181309, Note_on_c, 0, 75, 32
1, 181311, Control_c, 0, 64, 73
1, 181326, Control_c, 0, 64, 72
1, 181328, Note_on_c, 0, 73, 35
1, 181329, Note_on_c, 0, 79, 45
1, 181340, Note_off_c, 0, 82, 36
1, 181341, Control_c, 0, 64, 68
1, 181355, Control_c, 0, 64, 62
1, 181370, Control_c, 0, 64, 0
1, 181372, Note_off_c, 0, 76, 61
1, 181452, Note_on_c, 0, 88, 39
1, 181457, Note_off_c, 0, 79, 56
1, 181503, Control_c, 0, 64, 56
1, 181518, Control_c, 0, 64, 63
1, 181520, Note_off_c, 0, 88, 53
1, 181525, Note_on_c, 0, 87, 49
1, 181533, Control_c, 0, 64, 64
1, 181548, Control_c, 0, 64, 65
1, 181562, Control_c, 0, 64, 66
1, 181578, Control_c, 0, 64, 67
1, 181583, Note_off_c, 0, 87, 53
1, 181592, Note_on_c, 0, 79, 53
1, 181593, Control_c, 0, 64, 68
1, 181615, Note_off_c, 0, 79, 59
1, 181623, Control_c, 0, 64, 68
1, 181696, Note_on_c, 0, 79, 61
1, 181734, Control_c, 0, 64, 68
1, 181746, Note_off_c, 0, 79, 48
1, 181749, Control_c, 0, 64, 65
1, 181762, Note_on_c, 0, 88, 56
1, 181764, Control_c, 0, 64, 53
1, 181778, Control_c, 0, 64, 0
1, 181808, Control_c, 0, 64, 46
1, 181823, Control_c, 0, 64, 61
1, 181838, Control_c, 0, 64, 64
1, 181847, Note_on_c, 0, 87, 64
1, 181852, Control_c, 0, 64, 67
1, 181860, Note_off_c, 0, 88, 51
1, 181867, Control_c, 0, 64, 70
1, 181882, Control_c, 0, 64, 74
1, 181897, Control_c, 0, 64, 76
1, 181911, Control_c, 0, 64, 78
1, 181920, Note_on_c, 0, 79, 59
1, 181923, Note_off_c, 0, 87, 57
1, 181943, Note_off_c, 0, 79, 61
1, 181985, Control_c, 0, 64, 76
1, 182000, Control_c, 0, 64, 70
1, 182015, Control_c, 0, 64, 51
1, 182022, Note_on_c, 0, 70, 48
1, 182030, Note_on_c, 0, 79, 59
1, 182030, Control_c, 0, 64, 0
1, 182072, Note_off_c, 0, 79, 55
1, 182075, Control_c, 0, 64, 41
1, 182086, Note_on_c, 0, 88, 53
1, 182090, Control_c, 0, 64, 62
1, 182104, Control_c, 0, 64, 67
1, 182105, Note_off_c, 0, 73, 53
1, 182119, Control_c, 0, 64, 70
1, 182134, Control_c, 0, 64, 73
1, 182149, Control_c, 0, 64, 76
1, 182164, Control_c, 0, 64, 77
1, 182170, Note_off_c, 0, 75, 57
1, 182172, Note_on_c, 0, 87, 58
1, 182179, Control_c, 0, 64, 78
1, 182208, Note_off_c, 0, 70, 56
1, 182209, Note_off_c, 0, 88, 36
1, 182245, Note_off_c, 0, 87, 56
1, 182264, Note_on_c, 0, 79, 47
1, 182286, Note_off_c, 0, 79, 53
1, 182297, Control_c, 0, 64, 77
1, 182312, Control_c, 0, 64, 77
1, 182327, Control_c, 0, 64, 76
1, 182342, Control_c, 0, 64, 73
1, 182357, Control_c, 0, 64, 68
1, 182363, Note_on_c, 0, 73, 59
1, 182367, Note_on_c, 0, 79, 57
1, 182373, Control_c, 0, 64, 50
1, 182383, Note_on_c, 0, 70, 40
1, 182385, Note_on_c, 0, 63, 44
1, 182388, Control_c, 0, 64, 0
1, 182452, Note_on_c, 0, 88, 41
1, 182469, Control_c, 0, 64, 46
1, 182483, Control_c, 0, 64, 62
1, 182496, Note_off_c, 0, 79, 24
1, 182498, Control_c, 0, 64, 66
1, 182513, Control_c, 0, 64, 67
1, 182528, Control_c, 0, 64, 69
1, 182530, Note_on_c, 0, 87, 53
1, 182535, Note_off_c, 0, 63, 53
1, 182543, Control_c, 0, 64, 70
1, 182558, Control_c, 0, 64, 72
1, 182572, Control_c, 0, 64, 72
1, 182588, Note_off_c, 0, 88, 35
1, 182597, Note_off_c, 0, 87, 53
1, 182617, Note_on_c, 0, 79, 39
1, 182640, Note_off_c, 0, 70, 35
1, 182644, Note_off_c, 0, 73, 50
1, 182647, Control_c, 0, 64, 72
1, 182662, Control_c, 0, 64, 70
1, 182676, Control_c, 0, 64, 65
1, 182686, Note_off_c, 0, 79, 47
1, 182691, Control_c, 0, 64, 42
1, 182693, Note_on_c, 0, 80, 67
1, 182702, Note_on_c, 0, 71, 63
1, 182706, Control_c, 0, 64, 0
1, 182709, Note_on_c, 0, 68, 47
1, 182715, Note_on_c, 0, 63, 44
1, 182788, Note_on_c, 0, 88, 51
1, 182795, Control_c, 0, 64, 61
1, 182797, Note_off_c, 0, 68, 63
1, 182809, Control_c, 0, 64, 65
1, 182824, Note_off_c, 0, 80, 60
1, 182824, Control_c, 0, 64, 67
1, 182839, Control_c, 0, 64, 68
1, 182842, Note_off_c, 0, 63, 61
1, 182854, Note_on_c, 0, 87, 66
1, 182854, Control_c, 0, 64, 70
1, 182869, Control_c, 0, 64, 72
1, 182883, Control_c, 0, 64, 72
1, 182898, Note_off_c, 0, 88, 54
1, 182931, Note_off_c, 0, 87, 64
1, 182936, Note_on_c, 0, 80, 66
1, 182942, Control_c, 0, 64, 72
1, 182957, Control_c, 0, 64, 70
1, 182972, Control_c, 0, 64, 65
1, 182987, Control_c, 0, 64, 37
1, 182999, Note_off_c, 0, 71, 56
1, 183002, Control_c, 0, 64, 0
1, 183013, Note_on_c, 0, 70, 58
1, 183023, Note_on_c, 0, 61, 52
1, 183023, Note_on_c, 0, 82, 73
1, 183026, Note_on_c, 0, 67, 54
1, 183064, Note_off_c, 0, 80, 56
1, 183091, Control_c, 0, 64, 45
1, 183100, Note_on_c, 0, 88, 74
1, 183101, Note_off_c, 0, 82, 64
1, 183106, Control_c, 0, 64, 64
1, 183120, Control_c, 0, 64, 68
1, 183130, Note_off_c, 0, 67, 61
1, 183135, Control_c, 0, 64, 70
1, 183157, Control_c, 0, 64, 73
1, 183172, Note_off_c, 0, 61, 59
1, 183172, Control_c, 0, 64, 75
1, 183184, Note_off_c, 0, 70, 62
1, 183186, Note_on_c, 0, 87, 77
1, 183188, Control_c, 0, 64, 76
1, 183216, Note_off_c, 0, 88, 61
1, 183273, Note_on_c, 0, 82, 72
1, 183277, Control_c, 0, 64, 75
1, 183284, Note_off_c, 0, 87, 56
1, 183292, Control_c, 0, 64, 73
1, 183306, Control_c, 0, 64, 68
1, 183321, Control_c, 0, 64, 50
1, 183321, Control_c, 0, 67, 122
1, 183336, Control_c, 0, 64, 0
1, 183336, Control_c, 0, 67, 111
1, 183350, Control_c, 0, 67, 101
1, 183351, Note_on_c, 0, 83, 75
1, 183353, Note_on_c, 0, 59, 46
1, 183359, Note_on_c, 0, 68, 56
1, 183362, Note_off_c, 0, 82, 58
1, 183365, Control_c, 0, 67, 88
1, 183380, Control_c, 0, 67, 74
1, 183395, Control_c, 0, 67, 58
1, 183398, Note_on_c, 0, 63, 30
1, 183410, Control_c, 0, 67, 42
1, 183425, Control_c, 0, 64, 58
1, 183425, Control_c, 0, 67, 27
1, 183428, Note_on_c, 0, 88, 75
1, 183433, Note_off_c, 0, 83, 59
1, 183440, Control_c, 0, 64, 67
1, 183440, Control_c, 0, 67, 15
1, 183455, Control_c, 0, 64, 71
1, 183455, Control_c, 0, 67, 0
1, 183470, Control_c, 0, 64, 75
1, 183485, Control_c, 0, 64, 77
1, 183499, Control_c, 0, 64, 78
1, 183503, Note_on_c, 0, 87, 77
1, 183508, Note_off_c, 0, 59, 55
1, 183509, Note_off_c, 0, 68, 63
1, 183515, Note_off_c, 0, 63, 48
1, 183526, Note_off_c, 0, 88, 61
1, 183583, Note_on_c, 0, 83, 68
1, 183597, Note_off_c, 0, 87, 55
1, 183603, Control_c, 0, 64, 78
1, 183618, Control_c, 0, 64, 76
1, 183632, Control_c, 0, 64, 71
1, 183647, Control_c, 0, 64, 41
1, 183662, Control_c, 0, 64, 0
1, 183683, Note_on_c, 0, 92, 78
1, 183690, Note_off_c, 0, 83, 53
1, 183693, Note_on_c, 0, 59, 34
1, 183710, Note_on_c, 0, 68, 39
1, 183717, Note_on_c, 0, 63, 35
1, 183765, Control_c, 0, 64, 56
1, 183770, Note_on_c, 0, 87, 67
1, 183780, Control_c, 0, 64, 66
1, 183795, Control_c, 0, 64, 70
1, 183804, Note_off_c, 0, 92, 50
1, 183807, Note_off_c, 0, 63, 59
1, 183810, Control_c, 0, 64, 74
1, 183824, Control_c, 0, 64, 77
1, 183839, Control_c, 0, 64, 78
1, 183843, Note_off_c, 0, 59, 51
1, 183854, Control_c, 0, 64, 79
1, 183857, Note_on_c, 0, 83, 58
1, 183866, Note_off_c, 0, 68, 35
1, 183885, Note_off_c, 0, 87, 58
1, 183948, Note_on_c, 0, 80, 52
1, 183962, Note_off_c, 0, 83, 48
1, 183996, Control_c, 0, 64, 78
1, 184011, Control_c, 0, 64, 74
1, 184018, Note_off_c, 0, 80, 57
1, 184026, Control_c, 0, 64, 64
1, 184028, Note_on_c, 0, 89, 80
1, 184033, Note_on_c, 0, 68, 55
1, 184039, Note_on_c, 0, 62, 64
1, 184041, Control_c, 0, 64, 0
1, 184047, Note_on_c, 0, 59, 47
1, 184119, Note_on_c, 0, 83, 68
1, 184129, Control_c, 0, 64, 64
1, 184144, Control_c, 0, 64, 71
1, 184159, Control_c, 0, 64, 77
1, 184165, Note_off_c, 0, 89, 58
1, 184173, Control_c, 0, 64, 81
1, 184188, Control_c, 0, 64, 82
1, 184203, Control_c, 0, 64, 82
1, 184206, Note_off_c, 0, 59, 38
1, 184209, Note_on_c, 0, 80, 67
1, 184229, Note_off_c, 0, 68, 59
1, 184245, Note_off_c, 0, 83, 58
1, 184289, Note_on_c, 0, 89, 73
1, 184317, Note_off_c, 0, 62, 58
1, 184328, Note_off_c, 0, 80, 49
1, 184337, Control_c, 0, 64, 82
1, 184350, Control_c, 0, 64, 81
1, 184365, Control_c, 0, 64, 79
1, 184379, Control_c, 0, 64, 76
1, 184382, Note_on_c, 0, 92, 73
1, 184394, Control_c, 0, 64, 68
1, 184397, Note_on_c, 0, 61, 44
1, 184400, Note_on_c, 0, 68, 31
1, 184409, Control_c, 0, 64, 0
1, 184413, Note_on_c, 0, 59, 13
1, 184429, Note_off_c, 0, 89, 53
1, 184483, Note_on_c, 0, 83, 52
1, 184498, Control_c, 0, 64, 64
1, 184507, Note_off_c, 0, 92, 60
1, 184513, Control_c, 0, 64, 73
1, 184528, Control_c, 0, 64, 81
1, 184543, Control_c, 0, 64, 87
1, 184552, Note_on_c, 0, 80, 65
1, 184558, Control_c, 0, 64, 89
1, 184566, Note_off_c, 0, 59, 40
1, 184572, Control_c, 0, 64, 89
1, 184591, Note_off_c, 0, 68, 44
1, 184594, Note_off_c, 0, 83, 58
1, 184606, Note_off_c, 0, 61, 35
1, 184651, Note_on_c, 0, 90, 72
1, 184661, Note_off_c, 0, 80, 63
1, 184698, Control_c, 0, 64, 89
1, 184713, Control_c, 0, 64, 87
1, 184724, Note_on_c, 0, 91, 47
1, 184728, Control_c, 0, 64, 81
1, 184731, Note_on_c, 0, 68, 46
1, 184733, Note_on_c, 0, 89, 81
1, 184736, Note_on_c, 0, 62, 66
1, 184743, Control_c, 0, 64, 69
1, 184748, Note_on_c, 0, 59, 55
1, 184750, Note_off_c, 0, 91, 36
1, 184757, Control_c, 0, 64, 0
1, 184813, Note_off_c, 0, 90, 59
1, 184834, Note_on_c, 0, 83, 72
1, 184847, Control_c, 0, 64, 59
1, 184862, Control_c, 0, 64, 70
1, 184877, Control_c, 0, 64, 80
1, 184892, Control_c, 0, 64, 90
1, 184896, Note_off_c, 0, 89, 57
1, 184902, Note_on_c, 0, 80, 72
1, 184907, Control_c, 0, 64, 92
1, 184910, Note_off_c, 0, 59, 58
1, 184953, Note_off_c, 0, 68, 57
1, 184969, Note_off_c, 0, 83, 57
1, 184990, Note_on_c, 0, 89, 70
1, 185014, Note_off_c, 0, 62, 60
1, 185017, Note_off_c, 0, 80, 60
1, 185025, Control_c, 0, 64, 91
1, 185040, Control_c, 0, 64, 89
1, 185055, Control_c, 0, 64, 82
1, 185063, Note_on_c, 0, 59, 33
1, 185069, Control_c, 0, 64, 67
1, 185078, Note_on_c, 0, 92, 77
1, 185083, Note_on_c, 0, 61, 41
1, 185084, Control_c, 0, 64, 0
1, 185094, Note_on_c, 0, 68, 42
1, 185097, Note_off_c, 0, 89, 58
1, 185137, Note_on_c, 0, 83, 54
1, 185159, Control_c, 0, 64, 62
1, 185174, Control_c, 0, 64, 71
1, 185176, Note_off_c, 0, 92, 61
1, 185189, Control_c, 0, 64, 78
1, 185203, Control_c, 0, 64, 84
1, 185218, Control_c, 0, 64, 86
1, 185220, Note_off_c, 0, 59, 40
1, 185230, Note_on_c, 0, 80, 68
1, 185246, Note_off_c, 0, 83, 53
1, 185248, Control_c, 0, 64, 87
1, 185267, Note_off_c, 0, 68, 37
1, 185292, Note_off_c, 0, 80, 57
1, 185310, Note_on_c, 0, 90, 79
1, 185352, Note_off_c, 0, 61, 22
1, 185366, Control_c, 0, 64, 84
1, 185381, Control_c, 0, 64, 78
1, 185399, Note_on_c, 0, 89, 86
1, 185403, Control_c, 0, 64, 66
1, 185409, Note_on_c, 0, 62, 71
1, 185410, Note_on_c, 0, 68, 64
1, 185418, Control_c, 0, 64, 0
1, 185431, Note_on_c, 0, 59, 59
1, 185433, Note_off_c, 0, 90, 63
1, 185499, Note_on_c, 0, 83, 66
1, 185521, Control_c, 0, 64, 40
1, 185536, Control_c, 0, 64, 66
1, 185551, Control_c, 0, 64, 74
1, 185566, Control_c, 0, 64, 81
1, 185580, Note_off_c, 0, 89, 59
1, 185580, Note_on_c, 0, 80, 74
1, 185582, Control_c, 0, 64, 85
1, 185597, Control_c, 0, 64, 86
1, 185604, Note_off_c, 0, 59, 33
1, 185612, Control_c, 0, 64, 87
1, 185643, Note_off_c, 0, 68, 39
1, 185646, Note_off_c, 0, 83, 54
1, 185658, Note_on_c, 0, 89, 68
1, 185671, Control_c, 0, 64, 86
1, 185673, Note_off_c, 0, 80, 52
1, 185700, Control_c, 0, 64, 86
1, 185700, Control_c, 0, 67, 10
1, 185701, Note_off_c, 0, 62, 58
1, 185715, Control_c, 0, 64, 84
1, 185715, Control_c, 0, 67, 15
1, 185730, Control_c, 0, 64, 81
1, 185730, Control_c, 0, 67, 22
1, 185744, Control_c, 0, 64, 73
1, 185744, Control_c, 0, 67, 32
1, 185749, Note_on_c, 0, 92, 75
1, 185759, Note_off_c, 0, 89, 63
1, 185759, Control_c, 0, 64, 62
1, 185759, Control_c, 0, 67, 43
1, 185761, Note_on_c, 0, 68, 37
1, 185763, Note_on_c, 0, 61, 41
1, 185768, Note_on_c, 0, 59, 30
1, 185774, Control_c, 0, 64, 0
1, 185774, Control_c, 0, 67, 53
1, 185789, Control_c, 0, 67, 66
1, 185804, Control_c, 0, 67, 77
1, 185819, Control_c, 0, 67, 87
1, 185825, Note_on_c, 0, 83, 59
1, 185834, Control_c, 0, 67, 98
1, 185848, Control_c, 0, 67, 108
1, 185855, Note_off_c, 0, 92, 55
1, 185863, Control_c, 0, 67, 117
1, 185878, Control_c, 0, 67, 126
1, 185893, Control_c, 0, 67, 127
1, 185909, Note_on_c, 0, 80, 54
1, 185933, Note_off_c, 0, 83, 54
1, 185934, Note_off_c, 0, 61, 53
1, 185962, Note_off_c, 0, 68, 41
1, 185965, Note_off_c, 0, 59, 41
1, 185980, Note_on_c, 0, 92, 63
1, 185981, Note_off_c, 0, 80, 58
1, 186075, Note_on_c, 0, 85, 60
1, 186077, Note_off_c, 0, 92, 55
1, 186157, Note_off_c, 0, 85, 61
1, 186161, Note_on_c, 0, 83, 57
1, 186239, Note_off_c, 0, 83, 55
1, 186243, Note_on_c, 0, 80, 50
1, 186289, Note_off_c, 0, 80, 55
1, 186308, Note_on_c, 0, 85, 53
1, 186390, Control_c, 0, 64, 45
1, 186405, Control_c, 0, 64, 59
1, 186412, Note_on_c, 0, 87, 60
1, 186420, Control_c, 0, 64, 65
1, 186427, Note_off_c, 0, 85, 53
1, 186430, Note_on_c, 0, 63, 36
1, 186430, Note_on_c, 0, 68, 30
1, 186431, Note_on_c, 0, 59, 29
1, 186435, Control_c, 0, 64, 67
1, 186449, Control_c, 0, 64, 70
1, 186464, Control_c, 0, 64, 73
1, 186479, Control_c, 0, 64, 76
1, 186492, Note_on_c, 0, 83, 49
1, 186493, Control_c, 0, 64, 78
1, 186495, Note_off_c, 0, 87, 52
1, 186508, Control_c, 0, 64, 78
1, 186523, Control_c, 0, 64, 79
1, 186531, Note_off_c, 0, 63, 37
1, 186537, Note_off_c, 0, 59, 40
1, 186546, Note_off_c, 0, 68, 42
1, 186567, Note_on_c, 0, 80, 55
1, 186573, Note_off_c, 0, 83, 54
1, 186614, Note_off_c, 0, 80, 54
1, 186641, Control_c, 0, 64, 78
1, 186656, Control_c, 0, 64, 77
1, 186665, Note_on_c, 0, 87, 51
1, 186671, Control_c, 0, 64, 76
1, 186686, Control_c, 0, 64, 75
1, 186700, Control_c, 0, 64, 74
1, 186715, Control_c, 0, 64, 73
1, 186730, Control_c, 0, 64, 72
1, 186745, Control_c, 0, 64, 68
1, 186753, Note_off_c, 0, 87, 55
1, 186759, Control_c, 0, 64, 61
1, 186774, Control_c, 0, 64, 0
1, 186789, Note_on_c, 0, 68, 51
1, 186793, Note_on_c, 0, 89, 59
1, 186803, Note_on_c, 0, 59, 38
1, 186804, Note_on_c, 0, 62, 49
1, 186878, Control_c, 0, 64, 63
1, 186900, Control_c, 0, 64, 69
1, 186911, Note_on_c, 0, 83, 49
1, 186915, Control_c, 0, 64, 73
1, 186917, Note_off_c, 0, 89, 59
1, 186930, Control_c, 0, 64, 77
1, 186945, Control_c, 0, 64, 79
1, 186960, Control_c, 0, 64, 79
1, 186970, Note_off_c, 0, 59, 38
1, 186986, Note_on_c, 0, 80, 50
1, 187018, Note_off_c, 0, 83, 56
1, 187030, Note_off_c, 0, 68, 38
1, 187034, Note_off_c, 0, 62, 26
1, 187075, Note_on_c, 0, 89, 42
1, 187105, Note_off_c, 0, 80, 47
1, 187107, Control_c, 0, 64, 79
1, 187122, Control_c, 0, 64, 77
1, 187137, Control_c, 0, 64, 71
1, 187152, Control_c, 0, 64, 61
1, 187162, Note_on_c, 0, 92, 68
1, 187168, Control_c, 0, 64, 0
1, 187169, Note_on_c, 0, 68, 49
1, 187178, Note_on_c, 0, 59, 40
1, 187189, Note_on_c, 0, 61, 30
1, 187190, Note_off_c, 0, 89, 35
1, 187212, Control_c, 0, 64, 59
1, 187227, Control_c, 0, 64, 66
1, 187242, Control_c, 0, 64, 70
1, 187249, Note_off_c, 0, 92, 59
1, 187252, Note_on_c, 0, 83, 52
1, 187257, Control_c, 0, 64, 75
1, 187262, Note_off_c, 0, 59, 52
1, 187271, Control_c, 0, 64, 80
1, 187286, Control_c, 0, 64, 82
1, 187294, Note_off_c, 0, 68, 57
1, 187295, Note_off_c, 0, 61, 54
1, 187301, Control_c, 0, 64, 82
1, 187340, Note_off_c, 0, 83, 52
1, 187359, Note_on_c, 0, 80, 55
1, 187411, Note_off_c, 0, 80, 59
1, 187425, Note_on_c, 0, 90, 58
1, 187464, Control_c, 0, 64, 82
1, 187479, Control_c, 0, 64, 80
1, 187494, Control_c, 0, 64, 75
1, 187509, Control_c, 0, 64, 67
1, 187513, Note_on_c, 0, 68, 65
1, 187514, Note_on_c, 0, 89, 76
1, 187518, Note_on_c, 0, 59, 47
1, 187523, Control_c, 0, 64, 0
1, 187529, Note_on_c, 0, 62, 62
1, 187538, Note_off_c, 0, 90, 59
1, 187597, Control_c, 0, 64, 51
1, 187612, Control_c, 0, 64, 65
1, 187616, Note_on_c, 0, 83, 65
1, 187627, Control_c, 0, 64, 70
1, 187649, Control_c, 0, 64, 75
1, 187655, Note_off_c, 0, 89, 54
1, 187664, Control_c, 0, 64, 78
1, 187679, Control_c, 0, 64, 80
1, 187700, Note_on_c, 0, 80, 69
1, 187751, Note_off_c, 0, 83, 58
1, 187759, Note_off_c, 0, 62, 53
1, 187767, Note_off_c, 0, 68, 47
1, 187776, Note_off_c, 0, 59, 30
1, 187778, Note_off_c, 0, 80, 59
1, 187786, Note_on_c, 0, 89, 66
1, 187827, Control_c, 0, 64, 79
1, 187841, Control_c, 0, 64, 78
1, 187856, Control_c, 0, 64, 73
1, 187871, Control_c, 0, 64, 65
1, 187873, Note_on_c, 0, 92, 84
1, 187876, Note_on_c, 0, 59, 56
1, 187876, Note_on_c, 0, 68, 65
1, 187886, Control_c, 0, 64, 0
1, 187896, Note_on_c, 0, 61, 47
1, 187926, Note_off_c, 0, 89, 56
1, 187960, Control_c, 0, 64, 54
1, 187976, Control_c, 0, 64, 65
1, 187986, Note_on_c, 0, 83, 52
1, 187991, Control_c, 0, 64, 68
1, 188004, Note_off_c, 0, 92, 62
1, 188006, Control_c, 0, 64, 72
1, 188020, Control_c, 0, 64, 75
1, 188029, Note_off_c, 0, 61, 54
1, 188035, Control_c, 0, 64, 77
1, 188046, Note_off_c, 0, 59, 57
1, 188057, Note_on_c, 0, 80, 69
1, 188070, Note_off_c, 0, 68, 56
1, 188084, Note_off_c, 0, 83, 58
1, 188135, Note_on_c, 0, 90, 82
1, 188145, Note_off_c, 0, 80, 57
1, 188168, Control_c, 0, 64, 77
1, 188183, Control_c, 0, 64, 76
1, 188198, Control_c, 0, 64, 73
1, 188212, Control_c, 0, 64, 66
1, 188221, Note_on_c, 0, 89, 87
1, 188224, Note_on_c, 0, 68, 66
1, 188227, Control_c, 0, 64, 0
1, 188229, Note_on_c, 0, 59, 59
1, 188238, Note_on_c, 0, 62, 73
1, 188262, Note_off_c, 0, 90, 62
1, 188302, Note_on_c, 0, 83, 71
1, 188317, Control_c, 0, 64, 63
1, 188332, Control_c, 0, 64, 68
1, 188346, Control_c, 0, 64, 72
1, 188361, Control_c, 0, 64, 77
1, 188369, Note_off_c, 0, 89, 59
1, 188376, Control_c, 0, 64, 79
1, 188398, Control_c, 0, 64, 80
1, 188400, Note_on_c, 0, 80, 72
1, 188437, Note_off_c, 0, 59, 38
1, 188455, Note_off_c, 0, 68, 49
1, 188459, Note_off_c, 0, 83, 56
1, 188481, Note_on_c, 0, 89, 75
1, 188493, Note_off_c, 0, 80, 49
1, 188516, Note_off_c, 0, 62, 55
1, 188531, Control_c, 0, 64, 79
1, 188546, Control_c, 0, 64, 79
1, 188561, Control_c, 0, 64, 76
1, 188568, Note_on_c, 0, 68, 52
1, 188570, Note_on_c, 0, 92, 75
1, 188576, Control_c, 0, 64, 72
1, 188583, Note_on_c, 0, 59, 47
1, 188590, Note_on_c, 0, 61, 44
1, 188591, Control_c, 0, 64, 65
1, 188591, Note_off_c, 0, 89, 63
1, 188606, Control_c, 0, 64, 10
1, 188620, Control_c, 0, 64, 0
1, 188672, Note_on_c, 0, 83, 54
1, 188687, Note_off_c, 0, 92, 56
1, 188759, Note_on_c, 0, 80, 55
1, 188762, Note_off_c, 0, 61, 57
1, 188764, Note_off_c, 0, 59, 53
1, 188776, Note_off_c, 0, 68, 55
1, 188779, Note_off_c, 0, 83, 53
1, 188810, Note_on_c, 0, 92, 62
1, 188819, Note_off_c, 0, 80, 49
1, 188909, Note_on_c, 0, 85, 56
1, 188917, Note_off_c, 0, 92, 54
1, 188977, Control_c, 0, 64, 10
1, 188982, Note_off_c, 0, 85, 59
1, 188984, Note_on_c, 0, 83, 50
1, 188992, Control_c, 0, 64, 32
1, 189022, Control_c, 0, 64, 31
1, 189036, Control_c, 0, 64, 26
1, 189051, Control_c, 0, 64, 13
1, 189059, Note_off_c, 0, 83, 55
1, 189066, Control_c, 0, 64, 0
1, 189068, Note_on_c, 0, 80, 39
1, 189111, Note_off_c, 0, 80, 48
1, 189133, Note_on_c, 0, 85, 45
1, 189233, Note_on_c, 0, 87, 52
1, 189237, Control_c, 0, 64, 28
1, 189244, Note_on_c, 0, 63, 34
1, 189246, Note_on_c, 0, 68, 36
1, 189251, Control_c, 0, 64, 59
1, 189252, Note_on_c, 0, 59, 16
1, 189266, Control_c, 0, 64, 63
1, 189281, Control_c, 0, 64, 64
1, 189285, Note_off_c, 0, 85, 32
1, 189295, Control_c, 0, 64, 66
1, 189310, Control_c, 0, 64, 68
1, 189317, Note_off_c, 0, 87, 49
1, 189325, Control_c, 0, 64, 70
1, 189327, Note_on_c, 0, 83, 46
1, 189340, Control_c, 0, 64, 72
1, 189355, Control_c, 0, 64, 75
1, 189369, Control_c, 0, 64, 76
1, 189384, Control_c, 0, 64, 77
1, 189399, Control_c, 0, 64, 77
1, 189408, Note_on_c, 0, 80, 41
1, 189416, Note_off_c, 0, 83, 54
1, 189427, Note_off_c, 0, 63, 39
1, 189437, Note_off_c, 0, 59, 35
1, 189440, Note_off_c, 0, 68, 38
1, 189458, Control_c, 0, 64, 77
1, 189470, Note_on_c, 0, 87, 53
1, 189473, Control_c, 0, 64, 76
1, 189488, Control_c, 0, 64, 75
1, 189490, Note_off_c, 0, 80, 36
1, 189503, Control_c, 0, 64, 73
1, 189518, Control_c, 0, 64, 72
1, 189533, Control_c, 0, 64, 72
1, 189548, Control_c, 0, 64, 70
1, 189563, Control_c, 0, 64, 67
1, 189578, Control_c, 0, 64, 57
1, 189584, Note_on_c, 0, 89, 52
1, 189593, Control_c, 0, 64, 0
1, 189601, Note_on_c, 0, 59, 27
1, 189615, Note_on_c, 0, 68, 31
1, 189616, Note_on_c, 0, 61, 33
1, 189640, Note_off_c, 0, 87, 32
1, 189667, Control_c, 0, 64, 49
1, 189667, Note_on_c, 0, 85, 50
1, 189682, Note_off_c, 0, 89, 55
1, 189682, Control_c, 0, 64, 63
1, 189697, Control_c, 0, 64, 67
1, 189711, Control_c, 0, 64, 69
1, 189726, Control_c, 0, 64, 72
1, 189741, Control_c, 0, 64, 74
1, 189753, Note_off_c, 0, 59, 42
1, 189756, Control_c, 0, 64, 76
1, 189775, Note_on_c, 0, 80, 42
1, 189785, Note_off_c, 0, 61, 38
1, 189809, Note_off_c, 0, 85, 33
1, 189846, Note_on_c, 0, 89, 48
1, 189862, Note_off_c, 0, 68, 37
1, 189941, Control_c, 0, 64, 76
1, 189956, Control_c, 0, 64, 75
1, 189986, Control_c, 0, 64, 74
1, 189999, Note_on_c, 0, 90, 57
1, 190000, Control_c, 0, 64, 73
1, 190002, Note_off_c, 0, 80, 39
1, 190015, Control_c, 0, 64, 71
1, 190030, Note_on_c, 0, 58, 32
1, 190030, Control_c, 0, 64, 69
1, 190037, Note_on_c, 0, 66, 26
1, 190037, Note_on_c, 0, 61, 16
1, 190042, Note_off_c, 0, 89, 30
1, 190045, Control_c, 0, 64, 64
1, 190060, Control_c, 0, 64, 48
1, 190074, Control_c, 0, 64, 0
1, 190106, Note_on_c, 0, 85, 45
1, 190110, Note_off_c, 0, 90, 62
1, 190133, Control_c, 0, 64, 25
1, 190148, Control_c, 0, 64, 59
1, 190163, Control_c, 0, 64, 64
1, 190178, Control_c, 0, 64, 67
1, 190188, Note_on_c, 0, 78, 41
1, 190192, Control_c, 0, 64, 69
1, 190207, Control_c, 0, 64, 71
1, 190222, Control_c, 0, 64, 74
1, 190233, Note_off_c, 0, 58, 50
1, 190236, Control_c, 0, 64, 76
1, 190248, Note_off_c, 0, 85, 29
1, 190251, Control_c, 0, 64, 77
1, 190256, Note_off_c, 0, 61, 41
1, 190266, Control_c, 0, 64, 77
1, 190270, Note_off_c, 0, 66, 41
1, 190277, Note_on_c, 0, 90, 58
1, 190302, Note_off_c, 0, 90, 54
1, 190329, Note_off_c, 0, 78, 35
1, 190377, Note_on_c, 0, 90, 63
1, 190385, Note_on_c, 0, 58, 27
1, 190391, Note_on_c, 0, 61, 38
1, 190408, Note_on_c, 0, 66, 42
1, 190450, Note_on_c, 0, 85, 56
1, 190472, Note_off_c, 0, 90, 41
1, 190545, Note_off_c, 0, 85, 54
1, 190546, Note_on_c, 0, 78, 55
1, 190560, Note_off_c, 0, 58, 40
1, 190578, Control_c, 0, 67, 116
1, 190582, Note_off_c, 0, 61, 42
1, 190586, Note_off_c, 0, 66, 41
1, 190593, Control_c, 0, 67, 101
1, 190607, Control_c, 0, 67, 87
1, 190620, Note_on_c, 0, 90, 66
1, 190622, Control_c, 0, 67, 73
1, 190645, Control_c, 0, 67, 58
1, 190654, Note_off_c, 0, 78, 49
1, 190658, Note_off_c, 0, 90, 57
1, 190660, Control_c, 0, 67, 45
1, 190674, Control_c, 0, 67, 36
1, 190689, Control_c, 0, 67, 30
1, 190704, Control_c, 0, 67, 28
1, 190723, Note_on_c, 0, 90, 74
1, 190754, Note_on_c, 0, 66, 41
1, 190759, Note_on_c, 0, 61, 35
1, 190764, Note_on_c, 0, 58, 39
1, 190793, Control_c, 0, 67, 29
1, 190804, Note_on_c, 0, 85, 64
1, 190806, Note_off_c, 0, 90, 59
1, 190808, Control_c, 0, 67, 30
1, 190837, Control_c, 0, 67, 30
1, 190852, Control_c, 0, 67, 31
1, 190866, Control_c, 0, 67, 31
1, 190880, Note_off_c, 0, 66, 52
1, 190896, Control_c, 0, 67, 32
1, 190907, Note_off_c, 0, 85, 54
1, 190909, Note_on_c, 0, 78, 60
1, 190926, Control_c, 0, 67, 32
1, 190931, Note_off_c, 0, 58, 37
1, 190947, Note_off_c, 0, 61, 35
1, 190989, Note_on_c, 0, 90, 69
1, 191039, Note_off_c, 0, 90, 62
1, 191044, Control_c, 0, 64, 77
1, 191089, Control_c, 0, 64, 76
1, 191104, Control_c, 0, 64, 75
1, 191107, Note_on_c, 0, 90, 58
1, 191116, Note_on_c, 0, 66, 46
1, 191119, Control_c, 0, 64, 73
1, 191125, Note_off_c, 0, 78, 32
1, 191126, Note_on_c, 0, 57, 41
1, 191131, Note_on_c, 0, 60, 46
1, 191133, Control_c, 0, 64, 69
1, 191148, Control_c, 0, 64, 58
1, 191148, Control_c, 0, 67, 33
1, 191163, Control_c, 0, 64, 0
1, 191163, Control_c, 0, 67, 33
1, 191207, Note_on_c, 0, 84, 55
1, 191223, Control_c, 0, 64, 41
1, 191238, Control_c, 0, 64, 63
1, 191250, Note_off_c, 0, 90, 57
1, 191253, Control_c, 0, 64, 68
1, 191268, Control_c, 0, 64, 72
1, 191268, Control_c, 0, 67, 32
1, 191282, Control_c, 0, 64, 77
1, 191282, Control_c, 0, 67, 31
1, 191297, Control_c, 0, 64, 81
1, 191297, Control_c, 0, 67, 29
1, 191312, Control_c, 0, 64, 82
1, 191312, Control_c, 0, 67, 25
1, 191322, Note_on_c, 0, 78, 59
1, 191327, Control_c, 0, 64, 83
1, 191327, Control_c, 0, 67, 14
1, 191342, Control_c, 0, 67, 0
1, 191348, Note_off_c, 0, 60, 50
1, 191356, Note_off_c, 0, 66, 54
1, 191369, Note_off_c, 0, 57, 34
1, 191387, Note_off_c, 0, 84, 34
1, 191411, Note_on_c, 0, 90, 66
1, 191450, Note_off_c, 0, 90, 60
1, 191490, Note_off_c, 0, 78, 30
1, 191503, Note_on_c, 0, 66, 58
1, 191514, Note_on_c, 0, 90, 60
1, 191518, Note_on_c, 0, 57, 40
1, 191523, Note_on_c, 0, 60, 53
1, 191613, Note_on_c, 0, 84, 64
1, 191628, Note_off_c, 0, 90, 62
1, 191665, Note_off_c, 0, 60, 55
1, 191674, Note_off_c, 0, 66, 56
1, 191684, Note_off_c, 0, 57, 43
1, 191698, Note_on_c, 0, 78, 64
1, 191714, Note_off_c, 0, 84, 55
1, 191756, Note_on_c, 0, 90, 82
1, 191788, Note_off_c, 0, 78, 56
1, 191810, Note_off_c, 0, 90, 64
1, 191855, Note_on_c, 0, 90, 78
1, 191861, Note_on_c, 0, 57, 54
1, 191870, Note_on_c, 0, 66, 70
1, 191870, Note_on_c, 0, 60, 58
1, 191942, Note_on_c, 0, 84, 70
1, 191989, Note_off_c, 0, 90, 62
1, 192024, Note_off_c, 0, 66, 61
1, 192025, Note_off_c, 0, 57, 45
1, 192028, Note_on_c, 0, 78, 77
1, 192036, Note_off_c, 0, 84, 63
1, 192043, Note_off_c, 0, 60, 58
1, 192100, Note_on_c, 0, 90, 87
1, 192140, Note_off_c, 0, 78, 45
1, 192153, Note_off_c, 0, 90, 64
1, 192195, Note_on_c, 0, 90, 83
1, 192200, Note_on_c, 0, 57, 59
1, 192210, Note_on_c, 0, 60, 54
1, 192213, Note_on_c, 0, 66, 72
1, 192251, Note_off_c, 0, 66, 59
1, 192276, Note_off_c, 0, 60, 62
1, 192283, Note_on_c, 0, 84, 77
1, 192290, Note_off_c, 0, 57, 63
1, 192337, Note_off_c, 0, 90, 62
1, 192379, Note_on_c, 0, 78, 78
1, 192386, Note_off_c, 0, 84, 61
1, 192455, Note_on_c, 0, 90, 87
1, 192507, Note_off_c, 0, 90, 64
1, 192513, Control_c, 0, 64, 82
1, 192516, Note_off_c, 0, 78, 34
1, 192528, Control_c, 0, 64, 82
1, 192543, Control_c, 0, 64, 81
1, 192555, Note_on_c, 0, 90, 83
1, 192558, Control_c, 0, 64, 77
1, 192571, Note_on_c, 0, 48, 77
1, 192573, Control_c, 0, 64, 70
1, 192578, Note_on_c, 0, 38, 67
1, 192578, Note_on_c, 0, 45, 67
1, 192585, Note_on_c, 0, 42, 61
1, 192587, Control_c, 0, 64, 47
1, 192602, Control_c, 0, 64, 0
1, 192654, Note_on_c, 0, 84, 73
1, 192661, Control_c, 0, 64, 38
1, 192676, Control_c, 0, 64, 63
1, 192690, Note_off_c, 0, 90, 63
1, 192691, Control_c, 0, 64, 69
1, 192706, Control_c, 0, 64, 74
1, 192720, Control_c, 0, 64, 81
1, 192735, Control_c, 0, 64, 83
1, 192738, Note_on_c, 0, 78, 75
1, 192742, Note_off_c, 0, 38, 59
1, 192745, Note_off_c, 0, 48, 62
1, 192750, Control_c, 0, 64, 84
1, 192756, Note_off_c, 0, 42, 60
1, 192759, Note_off_c, 0, 84, 60
1, 192765, Note_off_c, 0, 45, 57
1, 192830, Note_on_c, 0, 90, 78
1, 192863, Note_off_c, 0, 90, 60
1, 192904, Note_off_c, 0, 78, 32
1, 192922, Control_c, 0, 64, 82
1, 192923, Note_on_c, 0, 90, 89
1, 192932, Note_on_c, 0, 48, 81
1, 192936, Note_on_c, 0, 38, 66
1, 192936, Control_c, 0, 64, 76
1, 192940, Note_on_c, 0, 45, 69
1, 192949, Note_on_c, 0, 42, 64
1, 192951, Control_c, 0, 64, 65
1, 192966, Control_c, 0, 64, 0
1, 193010, Control_c, 0, 64, 51
1, 193016, Note_on_c, 0, 84, 77
1, 193025, Control_c, 0, 64, 65
1, 193040, Control_c, 0, 64, 71
1, 193055, Control_c, 0, 64, 77
1, 193059, Note_off_c, 0, 90, 63
1, 193069, Control_c, 0, 64, 82
1, 193071, Note_off_c, 0, 48, 62
1, 193084, Control_c, 0, 64, 83
1, 193099, Control_c, 0, 64, 84
1, 193101, Note_off_c, 0, 38, 59
1, 193103, Note_on_c, 0, 78, 83
1, 193106, Note_off_c, 0, 42, 62
1, 193106, Note_off_c, 0, 84, 65
1, 193107, Note_off_c, 0, 45, 59
1, 193165, Note_off_c, 0, 78, 63
1, 193179, Note_on_c, 0, 90, 91
1, 193217, Note_off_c, 0, 90, 62
1, 193262, Control_c, 0, 64, 82
1, 193262, Note_on_c, 0, 90, 90
1, 193277, Control_c, 0, 64, 77
1, 193277, Note_on_c, 0, 38, 76
1, 193282, Note_on_c, 0, 48, 86
1, 193288, Note_on_c, 0, 45, 77
1, 193292, Control_c, 0, 64, 67
1, 193292, Note_on_c, 0, 42, 75
1, 193307, Control_c, 0, 64, 0
1, 193358, Note_on_c, 0, 84, 80
1, 193366, Control_c, 0, 64, 50
1, 193381, Control_c, 0, 64, 66
1, 193396, Control_c, 0, 64, 74
1, 193410, Control_c, 0, 64, 80
1, 193411, Note_off_c, 0, 90, 62
1, 193425, Control_c, 0, 64, 82
1, 193437, Note_off_c, 0, 48, 62
1, 193438, Note_on_c, 0, 78, 84
1, 193440, Control_c, 0, 64, 82
1, 193444, Note_off_c, 0, 38, 61
1, 193454, Note_off_c, 0, 42, 62
1, 193457, Note_off_c, 0, 84, 59
1, 193460, Note_off_c, 0, 45, 61
1, 193520, Note_on_c, 0, 90, 94
1, 193566, Note_off_c, 0, 90, 64
1, 193580, Note_off_c, 0, 78, 40
1, 193589, Control_c, 0, 64, 82
1, 193604, Control_c, 0, 64, 78
1, 193617, Note_on_c, 0, 90, 94
1, 193619, Control_c, 0, 64, 69
1, 193637, Note_on_c, 0, 38, 77
1, 193638, Note_on_c, 0, 48, 89
1, 193641, Control_c, 0, 64, 0
1, 193644, Note_on_c, 0, 45, 82
1, 193651, Note_on_c, 0, 42, 77
1, 193710, Note_on_c, 0, 84, 73
1, 193715, Control_c, 0, 64, 57
1, 193730, Control_c, 0, 64, 70
1, 193740, Note_off_c, 0, 48, 57
1, 193742, Note_off_c, 0, 38, 63
1, 193745, Control_c, 0, 64, 79
1, 193759, Control_c, 0, 64, 87
1, 193764, Note_off_c, 0, 42, 64
1, 193769, Note_off_c, 0, 45, 65
1, 193774, Control_c, 0, 64, 90
1, 193788, Note_off_c, 0, 90, 64
1, 193808, Note_on_c, 0, 78, 86
1, 193824, Note_off_c, 0, 84, 64
1, 193887, Note_on_c, 0, 90, 98
1, 193956, Note_off_c, 0, 90, 63
1, 193981, Control_c, 0, 64, 89
1, 193996, Control_c, 0, 64, 83
1, 194011, Control_c, 0, 64, 71
1, 194012, Note_on_c, 0, 90, 89
1, 194026, Note_on_c, 0, 49, 69
1, 194026, Control_c, 0, 64, 0
1, 194026, Control_c, 0, 67, 10
1, 194028, Note_on_c, 0, 58, 80
1, 194040, Note_off_c, 0, 78, 62
1, 194040, Control_c, 0, 67, 12
1, 194050, Note_on_c, 0, 87, 51
1, 194055, Control_c, 0, 67, 14
1, 194070, Control_c, 0, 67, 15
1, 194079, Note_off_c, 0, 87, 50
1, 194112, Note_on_c, 0, 83, 76
1, 194115, Control_c, 0, 67, 14
1, 194123, Note_on_c, 0, 56, 79
1, 194129, Control_c, 0, 67, 14
1, 194137, Note_off_c, 0, 58, 65
1, 194144, Control_c, 0, 64, 62
1, 194144, Control_c, 0, 67, 13
1, 194159, Control_c, 0, 64, 72
1, 194159, Control_c, 0, 67, 12
1, 194174, Control_c, 0, 64, 81
1, 194174, Control_c, 0, 67, 12
1, 194182, Note_off_c, 0, 90, 64
1, 194189, Control_c, 0, 64, 87
1, 194189, Control_c, 0, 67, 11
1, 194198, Note_on_c, 0, 78, 82
1, 194204, Note_off_c, 0, 56, 64
1, 194204, Control_c, 0, 64, 88
1, 194204, Control_c, 0, 67, 11
1, 194207, Note_on_c, 0, 58, 75
1, 194219, Control_c, 0, 64, 89
1, 194219, Control_c, 0, 67, 10
1, 194219, Note_off_c, 0, 83, 58
1, 194233, Control_c, 0, 64, 89
1, 194263, Control_c, 0, 67, 11
1, 194270, Note_on_c, 0, 56, 75
1, 194272, Note_on_c, 0, 90, 91
1, 194275, Note_off_c, 0, 78, 48
1, 194277, Control_c, 0, 67, 11
1, 194278, Note_off_c, 0, 58, 62
1, 194307, Control_c, 0, 67, 12
1, 194318, Note_off_c, 0, 90, 63
1, 194322, Control_c, 0, 64, 88
1, 194337, Control_c, 0, 64, 82
1, 194343, Note_on_c, 0, 58, 83
1, 194344, Note_off_c, 0, 56, 63
1, 194353, Control_c, 0, 64, 67
1, 194356, Note_on_c, 0, 90, 79
1, 194368, Control_c, 0, 64, 0
1, 194404, Control_c, 0, 64, 54
1, 194417, Note_on_c, 0, 56, 68
1, 194419, Control_c, 0, 64, 66
1, 194430, Note_off_c, 0, 58, 64
1, 194434, Control_c, 0, 64, 72
1, 194442, Note_on_c, 0, 83, 69
1, 194449, Control_c, 0, 64, 80
1, 194463, Control_c, 0, 64, 85
1, 194476, Note_off_c, 0, 90, 64
1, 194478, Control_c, 0, 64, 86
1, 194490, Note_on_c, 0, 58, 75
1, 194493, Control_c, 0, 64, 86
1, 194500, Note_off_c, 0, 56, 63
1, 194516, Note_on_c, 0, 78, 71
1, 194552, Note_off_c, 0, 83, 48
1, 194557, Note_on_c, 0, 56, 69
1, 194558, Note_on_c, 0, 90, 89
1, 194561, Note_off_c, 0, 58, 62
1, 194563, Note_off_c, 0, 78, 62
1, 194568, Control_c, 0, 67, 12
1, 194582, Control_c, 0, 67, 13
1, 194607, Note_off_c, 0, 90, 66
1, 194612, Control_c, 0, 64, 86
1, 194612, Control_c, 0, 67, 13
1, 194627, Control_c, 0, 64, 84
1, 194627, Control_c, 0, 67, 14
1, 194628, Note_on_c, 0, 58, 77
1, 194628, Note_off_c, 0, 56, 63
1, 194642, Control_c, 0, 64, 75
1, 194647, Note_on_c, 0, 89, 93
1, 194656, Control_c, 0, 64, 61
1, 194671, Control_c, 0, 64, 0
1, 194671, Control_c, 0, 67, 13
1, 194693, Note_on_c, 0, 56, 70
1, 194697, Note_off_c, 0, 58, 65
1, 194701, Control_c, 0, 67, 13
1, 194725, Note_on_c, 0, 83, 76
1, 194730, Control_c, 0, 64, 51
1, 194745, Control_c, 0, 64, 66
1, 194760, Control_c, 0, 64, 72
1, 194762, Note_on_c, 0, 58, 72
1, 194767, Note_off_c, 0, 56, 64
1, 194775, Control_c, 0, 64, 77
1, 194788, Note_off_c, 0, 89, 63
1, 194789, Control_c, 0, 64, 80
1, 194789, Control_c, 0, 67, 12
1, 194804, Control_c, 0, 64, 81
1, 194806, Note_on_c, 0, 77, 79
1, 194819, Control_c, 0, 67, 12
1, 194825, Note_off_c, 0, 83, 59
1, 194830, Note_on_c, 0, 56, 62
1, 194834, Note_off_c, 0, 58, 62
1, 194882, Note_on_c, 0, 89, 89
1, 194900, Note_off_c, 0, 77, 59
1, 194908, Note_off_c, 0, 56, 63
1, 194918, Note_on_c, 0, 58, 72
1, 194922, Control_c, 0, 67, 11
1, 194927, Note_off_c, 0, 89, 65
1, 194937, Control_c, 0, 64, 81
1, 194952, Control_c, 0, 64, 80
1, 194952, Control_c, 0, 67, 11
1, 194967, Control_c, 0, 64, 79
1, 194967, Control_c, 0, 67, 10
1, 194968, Note_on_c, 0, 89, 80
1, 194970, Note_on_c, 0, 56, 61
1, 194979, Note_off_c, 0, 58, 62
1, 194982, Control_c, 0, 64, 76
1, 194997, Control_c, 0, 64, 69
1, 195012, Control_c, 0, 64, 54
1, 195012, Control_c, 0, 67, 10
1, 195026, Control_c, 0, 64, 0
1, 195041, Control_c, 0, 67, 9
1, 195045, Note_on_c, 0, 58, 63
1, 195051, Note_off_c, 0, 56, 61
1, 195063, Note_on_c, 0, 83, 84
1, 195071, Control_c, 0, 67, 9
1, 195086, Control_c, 0, 67, 8
1, 195100, Control_c, 0, 67, 8
1, 195105, Note_on_c, 0, 56, 51
1, 195110, Note_off_c, 0, 58, 63
1, 195115, Control_c, 0, 67, 0
1, 195152, Note_off_c, 0, 89, 59
1, 195180, Note_off_c, 0, 83, 60
1, 195188, Note_on_c, 0, 77, 80
1, 195211, Note_off_c, 0, 56, 63
1, 195219, Note_on_c, 0, 54, 63
1, 195272, Control_c, 0, 64, 46
1, 195286, Control_c, 0, 64, 66
1, 195301, Control_c, 0, 64, 73
1, 195307, Note_on_c, 0, 89, 94
1, 195316, Control_c, 0, 64, 81
1, 195331, Note_off_c, 0, 54, 61
1, 195331, Control_c, 0, 64, 85
1, 195339, Note_off_c, 0, 77, 60
1, 195342, Note_on_c, 0, 56, 69
1, 195346, Control_c, 0, 64, 87
1, 195348, Note_off_c, 0, 49, 53
1, 195361, Control_c, 0, 64, 88
1, 195375, Control_c, 0, 64, 89
1, 195387, Note_off_c, 0, 56, 57
1, 195390, Control_c, 0, 64, 89
1, 195399, Note_off_c, 0, 89, 64
1, 195420, Control_c, 0, 64, 90
1, 195519, Note_on_c, 0, 90, 90
1, 195524, Control_c, 0, 64, 89
1, 195538, Control_c, 0, 64, 88
1, 195540, Note_on_c, 0, 78, 76
1, 195542, Note_on_c, 0, 42, 58
1, 195553, Control_c, 0, 64, 85
1, 195554, Note_on_c, 0, 54, 49
1, 195566, Note_on_c, 0, 82, 21
1, 195568, Control_c, 0, 64, 80
1, 195583, Control_c, 0, 64, 71
1, 195598, Control_c, 0, 64, 32
1, 195612, Control_c, 0, 64, 0
1, 195775, Control_c, 0, 67, 11
1, 195790, Control_c, 0, 67, 15
1, 195805, Control_c, 0, 67, 22
1, 195820, Control_c, 0, 67, 28
1, 195835, Control_c, 0, 67, 35
1, 195849, Control_c, 0, 67, 43
1, 195864, Control_c, 0, 67, 51
1, 195886, Control_c, 0, 67, 58
1, 195891, Note_off_c, 0, 82, 10
1, 195901, Control_c, 0, 67, 66
1, 195916, Control_c, 0, 67, 72
1, 195930, Control_c, 0, 67, 78
1, 195945, Control_c, 0, 67, 83
1, 195948, Note_off_c, 0, 42, 58
1, 195961, Control_c, 0, 67, 87
1, 195969, Note_off_c, 0, 90, 63
1, 195976, Control_c, 0, 67, 90
1, 195977, Note_off_c, 0, 78, 56
1, 195987, Note_off_c, 0, 54, 53
1, 195991, Control_c, 0, 67, 94
1, 196006, Control_c, 0, 67, 101
1, 196021, Control_c, 0, 67, 110
1, 196035, Control_c, 0, 67, 119
1, 196050, Control_c, 0, 67, 127
1, 196466, Note_on_c, 0, 82, 47
1, 196475, Note_on_c, 0, 66, 37
1, 196583, Note_on_c, 0, 68, 45
1, 196588, Note_on_c, 0, 78, 51
1, 196608, Note_off_c, 0, 66, 35
1, 196618, Note_off_c, 0, 82, 42
1, 196690, Note_off_c, 0, 68, 54
1, 196696, Note_on_c, 0, 70, 41
1, 196699, Note_on_c, 0, 73, 61
1, 196724, Note_off_c, 0, 78, 57
1, 196817, Note_off_c, 0, 70, 47
1, 196823, Note_on_c, 0, 75, 56
1, 196827, Note_on_c, 0, 71, 41
1, 196835, Note_off_c, 0, 73, 50
1, 196871, Note_off_c, 0, 71, 50
1, 196888, Control_c, 0, 67, 123
1, 196902, Control_c, 0, 67, 116
1, 196908, Note_off_c, 0, 75, 65
1, 196911, Note_on_c, 0, 78, 69
1, 196917, Control_c, 0, 67, 106
1, 196932, Control_c, 0, 67, 97
1, 196947, Control_c, 0, 67, 85
1, 196961, Note_on_c, 0, 66, 24
1, 196962, Control_c, 0, 67, 70
1, 196976, Control_c, 0, 67, 54
1, 196991, Control_c, 0, 67, 38
1, 197000, Note_on_c, 0, 71, 44
1, 197006, Control_c, 0, 67, 25
1, 197008, Note_on_c, 0, 75, 68
1, 197016, Note_off_c, 0, 66, 47
1, 197021, Control_c, 0, 67, 14
1, 197036, Control_c, 0, 67, 9
1, 197045, Note_off_c, 0, 78, 56
1, 197051, Control_c, 0, 67, 0
1, 197092, Note_off_c, 0, 71, 55
1, 197107, Note_off_c, 0, 75, 64
1, 197109, Note_on_c, 0, 73, 69
1, 197131, Note_on_c, 0, 70, 44
1, 197140, Note_on_c, 0, 66, 42
1, 197215, Note_on_c, 0, 78, 76
1, 197218, Note_off_c, 0, 73, 58
1, 197318, Note_on_c, 0, 80, 78
1, 197331, Control_c, 0, 67, 10
1, 197333, Note_off_c, 0, 70, 58
1, 197346, Control_c, 0, 67, 14
1, 197349, Note_off_c, 0, 78, 55
1, 197361, Control_c, 0, 67, 18
1, 197376, Note_off_c, 0, 66, 53
1, 197382, Control_c, 0, 67, 22
1, 197397, Control_c, 0, 67, 27
1, 197412, Control_c, 0, 67, 30
1, 197426, Note_on_c, 0, 82, 78
1, 197426, Control_c, 0, 67, 33
1, 197440, Note_off_c, 0, 80, 64
1, 197441, Control_c, 0, 67, 34
1, 197456, Control_c, 0, 67, 35
1, 197471, Control_c, 0, 67, 36
1, 197486, Control_c, 0, 67, 37
1, 197501, Control_c, 0, 67, 41
1, 197516, Control_c, 0, 67, 47
1, 197527, Note_on_c, 0, 78, 79
1, 197531, Control_c, 0, 67, 55
1, 197541, Note_off_c, 0, 82, 59
1, 197546, Control_c, 0, 67, 61
1, 197561, Control_c, 0, 67, 69
1, 197576, Control_c, 0, 67, 77
1, 197591, Control_c, 0, 67, 86
1, 197605, Control_c, 0, 67, 94
1, 197620, Control_c, 0, 67, 103
1, 197625, Note_on_c, 0, 85, 81
1, 197635, Control_c, 0, 67, 110
1, 197650, Control_c, 0, 67, 119
1, 197660, Note_off_c, 0, 78, 58
1, 197665, Control_c, 0, 67, 127
1, 197729, Note_on_c, 0, 54, 49
1, 197733, Note_on_c, 0, 82, 85
1, 197772, Note_off_c, 0, 85, 60
1, 197832, Note_on_c, 0, 78, 79
1, 197842, Note_on_c, 0, 56, 62
1, 197867, Note_off_c, 0, 82, 58
1, 197887, Note_off_c, 0, 54, 57
1, 197932, Note_on_c, 0, 58, 67
1, 197933, Note_on_c, 0, 73, 73
1, 197936, Note_off_c, 0, 56, 61
1, 197936, Note_off_c, 0, 78, 63
1, 198011, Note_off_c, 0, 73, 61
1, 198028, Note_off_c, 0, 58, 64
1, 198048, Note_on_c, 0, 71, 64
1, 198057, Note_on_c, 0, 59, 57
1, 198067, Note_on_c, 0, 49, 52
1, 198148, Note_off_c, 0, 59, 62
1, 198164, Note_on_c, 0, 68, 63
1, 198165, Note_on_c, 0, 56, 55
1, 198165, Note_off_c, 0, 71, 57
1, 198264, Note_off_c, 0, 68, 62
1, 198270, Note_off_c, 0, 56, 54
1, 198284, Note_on_c, 0, 73, 57
1, 198292, Note_on_c, 0, 61, 47
1, 198325, Note_off_c, 0, 49, 26
1, 198386, Note_off_c, 0, 61, 51
1, 198424, Note_on_c, 0, 58, 35
1, 198431, Note_on_c, 0, 54, 29
1, 198440, Note_on_c, 0, 70, 45
1, 198455, Note_off_c, 0, 73, 41
1, 198656, Note_off_c, 0, 70, 61
1, 198670, Note_off_c, 0, 54, 50
1, 198690, Note_off_c, 0, 58, 63
1, 198837, Note_on_c, 0, 73, 30
1, 198931, Note_on_c, 0, 78, 45
1, 198976, Note_off_c, 0, 73, 37
1, 199034, Note_on_c, 0, 80, 49
1, 199069, Note_off_c, 0, 78, 38
1, 199137, Note_on_c, 0, 82, 54
1, 199169, Note_on_c, 0, 66, 37
1, 199194, Note_off_c, 0, 80, 36
1, 199249, Note_off_c, 0, 82, 57
1, 199260, Note_on_c, 0, 78, 53
1, 199269, Note_on_c, 0, 68, 38
1, 199325, Note_off_c, 0, 66, 38
1, 199344, Note_off_c, 0, 78, 62
1, 199346, Note_on_c, 0, 70, 47
1, 199356, Note_on_c, 0, 73, 50
1, 199357, Note_off_c, 0, 68, 52
1, 199444, Note_off_c, 0, 70, 56
1, 199448, Note_off_c, 0, 73, 54
1, 199468, Note_on_c, 0, 75, 49
1, 199477, Note_on_c, 0, 71, 37
1, 199558, Note_off_c, 0, 71, 54
1, 199567, Note_off_c, 0, 75, 60
1, 199579, Note_on_c, 0, 78, 48
1, 199589, Note_on_c, 0, 66, 41
1, 199665, Note_off_c, 0, 66, 59
1, 199713, Note_on_c, 0, 71, 23
1, 199713, Note_off_c, 0, 78, 35
1, 199716, Note_on_c, 0, 75, 46
1, 199767, Note_off_c, 0, 71, 42
1, 199794, Note_off_c, 0, 75, 64
1, 199812, Note_on_c, 0, 73, 50
1, 199814, Note_on_c, 0, 66, 38
1, 199818, Note_on_c, 0, 70, 34
1, 199880, Note_off_c, 0, 73, 51
1, 199920, Note_on_c, 0, 78, 54
1, 199978, Note_off_c, 0, 70, 46
1, 199986, Note_off_c, 0, 66, 53
1, 200029, Note_on_c, 0, 80, 53
1, 200038, Note_off_c, 0, 78, 50
1, 200090, Control_c, 0, 67, 120
1, 200105, Control_c, 0, 67, 105
1, 200119, Control_c, 0, 67, 92
1, 200132, Note_off_c, 0, 80, 62
1, 200134, Control_c, 0, 67, 81
1, 200139, Note_on_c, 0, 82, 58
1, 200149, Control_c, 0, 67, 74
1, 200164, Control_c, 0, 67, 75
1, 200179, Control_c, 0, 67, 74
1, 200193, Control_c, 0, 67, 72
1, 200208, Control_c, 0, 67, 66
1, 200223, Control_c, 0, 67, 57
1, 200229, Note_off_c, 0, 82, 59
1, 200238, Control_c, 0, 67, 48
1, 200246, Note_on_c, 0, 78, 58
1, 200252, Control_c, 0, 67, 41
1, 200267, Control_c, 0, 67, 36
1, 200282, Control_c, 0, 67, 30
1, 200297, Control_c, 0, 67, 26
1, 200312, Control_c, 0, 67, 25
1, 200357, Control_c, 0, 67, 24
1, 200361, Note_on_c, 0, 85, 50
1, 200394, Note_off_c, 0, 78, 60
1, 200394, Control_c, 0, 67, 24
1, 200408, Control_c, 0, 67, 23
1, 200438, Control_c, 0, 67, 23
1, 200452, Control_c, 0, 67, 21
1, 200467, Control_c, 0, 67, 17
1, 200482, Control_c, 0, 67, 13
1, 200497, Control_c, 0, 64, 30
1, 200497, Control_c, 0, 67, 8
1, 200510, Note_on_c, 0, 79, 88
1, 200512, Control_c, 0, 64, 57
1, 200512, Control_c, 0, 67, 0
1, 200523, Note_on_c, 0, 67, 66
1, 200523, Note_on_c, 0, 70, 61
1, 200526, Control_c, 0, 64, 65
1, 200527, Note_on_c, 0, 73, 69
1, 200530, Note_on_c, 0, 63, 61
1, 200532, Note_off_c, 0, 85, 64
1, 200541, Control_c, 0, 64, 71
1, 200556, Control_c, 0, 64, 81
1, 200571, Control_c, 0, 64, 94
1, 200586, Control_c, 0, 64, 111
1, 200601, Control_c, 0, 64, 117
1, 200616, Control_c, 0, 64, 123
1, 200631, Control_c, 0, 64, 127
1, 200705, Note_off_c, 0, 70, 56
1, 200724, Note_off_c, 0, 67, 61
1, 200751, Note_off_c, 0, 63, 63
1, 200765, Note_off_c, 0, 73, 60
1, 200959, Note_on_c, 0, 80, 93
1, 200972, Note_on_c, 0, 71, 74
1, 200974, Note_on_c, 0, 75, 70
1, 200977, Note_on_c, 0, 63, 62
1, 200980, Note_on_c, 0, 68, 67
1, 200986, Note_on_c, 0, 56, 60
1, 200991, Note_on_c, 0, 59, 58
1, 201024, Note_off_c, 0, 79, 40
1, 201045, Control_c, 0, 64, 103
1, 201060, Control_c, 0, 64, 85
1, 201075, Control_c, 0, 64, 65
1, 201090, Control_c, 0, 64, 0
1, 201158, Note_off_c, 0, 75, 64
1, 201160, Note_off_c, 0, 56, 63
1, 201164, Note_off_c, 0, 59, 62
1, 201167, Note_off_c, 0, 71, 54
1, 201169, Note_off_c, 0, 68, 61
1, 201185, Note_off_c, 0, 63, 64
1, 201203, Note_off_c, 0, 80, 62
1, 201245, Control_c, 0, 67, 8
1, 201260, Control_c, 0, 67, 8
1, 201275, Control_c, 0, 67, 9
1, 201290, Control_c, 0, 67, 10
1, 201319, Control_c, 0, 67, 11
1, 201453, Control_c, 0, 67, 11
1, 201475, Note_on_c, 0, 77, 91
1, 201480, Note_on_c, 0, 71, 81
1, 201480, Note_on_c, 0, 73, 79
1, 201482, Control_c, 0, 67, 12
1, 201494, Note_on_c, 0, 61, 71
1, 201497, Note_on_c, 0, 65, 67
1, 201497, Control_c, 0, 67, 15
1, 201499, Note_on_c, 0, 68, 67
1, 201512, Control_c, 0, 67, 20
1, 201527, Control_c, 0, 67, 27
1, 201543, Control_c, 0, 67, 34
1, 201558, Control_c, 0, 67, 39
1, 201573, Control_c, 0, 67, 41
1, 201603, Control_c, 0, 67, 40
1, 201617, Control_c, 0, 67, 39
1, 201632, Control_c, 0, 67, 38
1, 201647, Control_c, 0, 64, 34
1, 201647, Control_c, 0, 67, 38
1, 201662, Control_c, 0, 64, 51
1, 201662, Control_c, 0, 67, 37
1, 201677, Control_c, 0, 64, 61
1, 201691, Control_c, 0, 64, 64
1, 201691, Control_c, 0, 67, 38
1, 201706, Control_c, 0, 64, 68
1, 201706, Control_c, 0, 67, 38
1, 201721, Control_c, 0, 64, 73
1, 201721, Control_c, 0, 67, 39
1, 201736, Control_c, 0, 64, 81
1, 201736, Control_c, 0, 67, 39
1, 201743, Note_off_c, 0, 68, 51
1, 201751, Control_c, 0, 64, 86
1, 201751, Control_c, 0, 67, 40
1, 201765, Control_c, 0, 64, 88
1, 201765, Control_c, 0, 67, 42
1, 201780, Control_c, 0, 64, 89
1, 201780, Control_c, 0, 67, 44
1, 201795, Control_c, 0, 64, 90
1, 201795, Control_c, 0, 67, 51
1, 201810, Control_c, 0, 64, 91
1, 201810, Control_c, 0, 67, 61
1, 201824, Control_c, 0, 64, 92
1, 201824, Control_c, 0, 67, 73
1, 201839, Control_c, 0, 67, 85
1, 201854, Control_c, 0, 67, 98
1, 201877, Control_c, 0, 67, 115
1, 201892, Control_c, 0, 67, 127
1, 201949, Note_off_c, 0, 65, 61
1, 201985, Note_off_c, 0, 61, 62
1, 201995, Control_c, 0, 64, 91
1, 201996, Note_off_c, 0, 73, 60
1, 202010, Control_c, 0, 64, 89
1, 202011, Note_off_c, 0, 77, 59
1, 202016, Note_off_c, 0, 71, 55
1, 202024, Control_c, 0, 64, 85
1, 202039, Control_c, 0, 64, 81
1, 202054, Control_c, 0, 64, 76
1, 202069, Control_c, 0, 64, 70
1, 202084, Control_c, 0, 64, 63
1, 202098, Control_c, 0, 64, 29
1, 202113, Control_c, 0, 64, 0
1, 202425, Note_on_c, 0, 56, 24
1, 202439, Note_on_c, 0, 49, 34
1, 202443, Note_on_c, 0, 71, 39
1, 202449, Note_on_c, 0, 59, 31
1, 202490, Note_off_c, 0, 71, 46
1, 202510, Note_on_c, 0, 73, 48
1, 202589, Note_off_c, 0, 73, 62
1, 202595, Note_on_c, 0, 71, 58
1, 202670, Note_off_c, 0, 71, 60
1, 202677, Note_on_c, 0, 70, 63
1, 202745, Note_off_c, 0, 70, 62
1, 202770, Note_on_c, 0, 71, 66
1, 202810, Note_off_c, 0, 56, 35
1, 202839, Note_off_c, 0, 71, 56
1, 202840, Note_on_c, 0, 80, 64
1, 202920, Note_on_c, 0, 78, 73
1, 202931, Note_off_c, 0, 80, 60
1, 202980, Note_off_c, 0, 78, 61
1, 202997, Note_on_c, 0, 77, 56
1, 203052, Note_off_c, 0, 49, 39
1, 203075, Note_off_c, 0, 59, 42
1, 203081, Note_on_c, 0, 78, 75
1, 203084, Note_off_c, 0, 77, 62
1, 203110, Note_on_c, 0, 54, 35
1, 203117, Note_on_c, 0, 58, 33
1, 203129, Control_c, 0, 64, 41
1, 203144, Control_c, 0, 64, 60
1, 203152, Note_off_c, 0, 78, 59
1, 203159, Control_c, 0, 64, 63
1, 203165, Note_on_c, 0, 73, 70
1, 203174, Control_c, 0, 64, 64
1, 203189, Control_c, 0, 64, 66
1, 203204, Control_c, 0, 64, 69
1, 203218, Control_c, 0, 64, 73
1, 203232, Note_off_c, 0, 73, 64
1, 203233, Control_c, 0, 64, 77
1, 203245, Note_on_c, 0, 70, 74
1, 203248, Control_c, 0, 64, 80
1, 203263, Control_c, 0, 64, 82
1, 203278, Control_c, 0, 64, 83
1, 203293, Control_c, 0, 64, 85
1, 203302, Note_off_c, 0, 70, 61
1, 203303, Note_off_c, 0, 54, 54
1, 203308, Control_c, 0, 64, 86
1, 203309, Note_off_c, 0, 58, 58
1, 203319, Note_on_c, 0, 73, 72
1, 203323, Control_c, 0, 64, 87
1, 203323, Control_c, 0, 67, 110
1, 203337, Control_c, 0, 64, 89
1, 203337, Control_c, 0, 67, 91
1, 203352, Control_c, 0, 64, 89
1, 203352, Control_c, 0, 67, 70
1, 203374, Control_c, 0, 64, 90
1, 203374, Control_c, 0, 67, 49
1, 203389, Control_c, 0, 67, 27
1, 203397, Note_off_c, 0, 73, 64
1, 203400, Note_on_c, 0, 78, 80
1, 203404, Control_c, 0, 64, 90
1, 203404, Control_c, 0, 67, 11
1, 203418, Control_c, 0, 67, 0
1, 203436, Note_off_c, 0, 78, 61
1, 203484, Note_on_c, 0, 82, 81
1, 203540, Note_off_c, 0, 82, 63
1, 203551, Note_on_c, 0, 85, 77
1, 203619, Note_on_c, 0, 90, 89
1, 203620, Note_off_c, 0, 85, 63
1, 203641, Control_c, 0, 64, 90
1, 203656, Control_c, 0, 64, 89
1, 203670, Control_c, 0, 64, 88
1, 203685, Note_off_c, 0, 90, 64
1, 203685, Control_c, 0, 64, 85
1, 203700, Control_c, 0, 64, 78
1, 203715, Control_c, 0, 64, 67
1, 203730, Control_c, 0, 64, 0
1, 203738, Note_on_c, 0, 91, 96
1, 203742, Note_on_c, 0, 79, 88
1, 203751, Note_on_c, 0, 73, 66
1, 203754, Note_on_c, 0, 75, 66
1, 203755, Note_on_c, 0, 63, 57
1, 203763, Note_on_c, 0, 70, 61
1, 203767, Note_on_c, 0, 67, 57
1, 203863, Control_c, 0, 64, 60
1, 203877, Control_c, 0, 64, 67
1, 203892, Control_c, 0, 64, 73
1, 203907, Control_c, 0, 64, 81
1, 203913, Note_off_c, 0, 70, 59
1, 203922, Control_c, 0, 64, 87
1, 203938, Control_c, 0, 64, 90
1, 203953, Control_c, 0, 64, 92
1, 203968, Control_c, 0, 64, 95
1, 203968, Note_off_c, 0, 79, 56
1, 203971, Note_off_c, 0, 73, 64
1, 203978, Note_off_c, 0, 75, 54
1, 203982, Control_c, 0, 64, 98
1, 203985, Note_off_c, 0, 91, 58
1, 203997, Control_c, 0, 64, 100
1, 204012, Control_c, 0, 64, 101
1, 204027, Control_c, 0, 64, 102
1, 204041, Control_c, 0, 64, 103
1, 204056, Control_c, 0, 64, 103
1, 204071, Control_c, 0, 64, 104
1, 204086, Control_c, 0, 64, 104
1, 204152, Note_off_c, 0, 67, 51
1, 204169, Note_on_c, 0, 92, 100
1, 204172, Note_on_c, 0, 80, 94
1, 204175, Note_on_c, 0, 83, 81
1, 204176, Note_on_c, 0, 75, 61
1, 204178, Note_on_c, 0, 87, 79
1, 204179, Note_on_c, 0, 68, 69
1, 204181, Note_on_c, 0, 71, 67
1, 204195, Note_off_c, 0, 63, 57
1, 204212, Control_c, 0, 64, 103
1, 204226, Control_c, 0, 64, 97
1, 204241, Control_c, 0, 64, 84
1, 204256, Control_c, 0, 64, 66
1, 204271, Control_c, 0, 64, 0
1, 204305, Note_off_c, 0, 75, 62
1, 204327, Note_off_c, 0, 68, 56
1, 204330, Note_off_c, 0, 83, 55
1, 204340, Note_off_c, 0, 71, 56
1, 204342, Note_off_c, 0, 87, 61
1, 204345, Control_c, 0, 67, 10
1, 204354, Note_off_c, 0, 92, 64
1, 204355, Note_off_c, 0, 80, 57
1, 204360, Control_c, 0, 67, 17
1, 204375, Control_c, 0, 67, 23
1, 204390, Control_c, 0, 67, 31
1, 204405, Control_c, 0, 67, 39
1, 204419, Control_c, 0, 67, 46
1, 204434, Control_c, 0, 67, 51
1, 204449, Control_c, 0, 67, 57
1, 204464, Control_c, 0, 67, 59
1, 204479, Control_c, 0, 67, 60
1, 204493, Control_c, 0, 67, 60
1, 204508, Control_c, 0, 67, 59
1, 204523, Control_c, 0, 67, 58
1, 204538, Control_c, 0, 67, 57
1, 204553, Control_c, 0, 67, 56
1, 204567, Control_c, 0, 67, 56
1, 204611, Control_c, 0, 67, 57
1, 204626, Control_c, 0, 67, 58
1, 204636, Note_on_c, 0, 83, 87
1, 204636, Note_on_c, 0, 89, 89
1, 204638, Note_on_c, 0, 77, 86
1, 204641, Control_c, 0, 67, 59
1, 204643, Note_on_c, 0, 85, 87
1, 204652, Note_on_c, 0, 73, 75
1, 204656, Control_c, 0, 67, 60
1, 204658, Note_on_c, 0, 71, 72
1, 204660, Note_on_c, 0, 61, 62
1, 204662, Note_on_c, 0, 68, 64
1, 204665, Note_on_c, 0, 65, 53
1, 204671, Control_c, 0, 67, 63
1, 204686, Control_c, 0, 67, 67
1, 204700, Control_c, 0, 67, 76
1, 204715, Control_c, 0, 67, 85
1, 204730, Control_c, 0, 67, 91
1, 204746, Control_c, 0, 67, 93
1, 204761, Control_c, 0, 67, 93
1, 204790, Control_c, 0, 64, 47
1, 204790, Control_c, 0, 67, 93
1, 204805, Control_c, 0, 64, 59
1, 204820, Control_c, 0, 64, 64
1, 204834, Control_c, 0, 64, 67
1, 204834, Control_c, 0, 67, 92
1, 204849, Control_c, 0, 64, 70
1, 204849, Control_c, 0, 67, 92
1, 204872, Control_c, 0, 64, 76
1, 204872, Control_c, 0, 67, 91
1, 204887, Control_c, 0, 64, 81
1, 204887, Control_c, 0, 67, 90
1, 204902, Control_c, 0, 64, 83
1, 204902, Control_c, 0, 67, 90
1, 204916, Control_c, 0, 64, 84
1, 204916, Control_c, 0, 67, 89
1, 204931, Control_c, 0, 64, 84
1, 204931, Control_c, 0, 67, 89
1, 204946, Control_c, 0, 64, 85
1, 204961, Control_c, 0, 64, 86
1, 204976, Control_c, 0, 64, 86
1, 204976, Control_c, 0, 67, 89
1, 204990, Control_c, 0, 67, 90
1, 205005, Control_c, 0, 67, 91
1, 205020, Control_c, 0, 67, 92
1, 205035, Control_c, 0, 67, 93
1, 205049, Control_c, 0, 67, 94
1, 205064, Control_c, 0, 67, 97
1, 205079, Control_c, 0, 67, 104
1, 205094, Control_c, 0, 67, 111
1, 205109, Control_c, 0, 67, 118
1, 205123, Control_c, 0, 67, 124
1, 205136, Note_off_c, 0, 71, 57
1, 205138, Control_c, 0, 67, 127
1, 205156, Note_off_c, 0, 73, 37
1, 205164, Note_off_c, 0, 68, 59
1, 205170, Note_off_c, 0, 77, 57
1, 205179, Note_off_c, 0, 65, 40
1, 205198, Control_c, 0, 64, 86
1, 205203, Note_off_c, 0, 61, 57
1, 205212, Control_c, 0, 64, 85
1, 205221, Note_off_c, 0, 89, 37
1, 205221, Note_off_c, 0, 83, 54
1, 205227, Control_c, 0, 64, 84
1, 205232, Note_off_c, 0, 85, 50
1, 205242, Control_c, 0, 64, 81
1, 205257, Control_c, 0, 64, 77
1, 205272, Control_c, 0, 64, 72
1, 205287, Control_c, 0, 64, 64
1, 205302, Control_c, 0, 64, 0
1, 205531, Note_on_c, 0, 83, 51
1, 205543, Note_on_c, 0, 59, 38
1, 205549, Note_on_c, 0, 49, 29
1, 205563, Note_on_c, 0, 56, 27
1, 205615, Note_off_c, 0, 83, 57
1, 205636, Note_on_c, 0, 85, 50
1, 205701, Note_on_c, 0, 83, 64
1, 205708, Note_off_c, 0, 85, 60
1, 205776, Note_off_c, 0, 83, 61
1, 205781, Note_on_c, 0, 82, 67
1, 205856, Note_off_c, 0, 82, 64
1, 205865, Note_on_c, 0, 83, 70
1, 205928, Note_off_c, 0, 83, 54
1, 205938, Note_on_c, 0, 92, 81
1, 205947, Note_off_c, 0, 56, 51
1, 206023, Note_on_c, 0, 90, 73
1, 206042, Note_off_c, 0, 92, 60
1, 206092, Note_off_c, 0, 90, 63
1, 206101, Note_on_c, 0, 89, 62
1, 206176, Note_off_c, 0, 89, 63
1, 206187, Note_on_c, 0, 90, 74
1, 206196, Note_on_c, 0, 58, 42
1, 206211, Note_on_c, 0, 54, 40
1, 206213, Control_c, 0, 64, 19
1, 206214, Note_off_c, 0, 59, 42
1, 206223, Note_off_c, 0, 49, 41
1, 206228, Control_c, 0, 64, 55
1, 206243, Control_c, 0, 64, 61
1, 206257, Control_c, 0, 64, 63
1, 206272, Control_c, 0, 64, 64
1, 206280, Note_off_c, 0, 90, 60
1, 206280, Note_on_c, 0, 85, 58
1, 206287, Control_c, 0, 64, 66
1, 206302, Control_c, 0, 64, 68
1, 206317, Control_c, 0, 64, 70
1, 206333, Control_c, 0, 64, 71
1, 206343, Note_on_c, 0, 82, 67
1, 206348, Control_c, 0, 64, 73
1, 206369, Note_off_c, 0, 85, 59
1, 206369, Control_c, 0, 64, 74
1, 206384, Control_c, 0, 64, 74
1, 206431, Note_off_c, 0, 82, 62
1, 206435, Note_on_c, 0, 78, 74
1, 206462, Note_off_c, 0, 78, 63
1, 206478, Note_off_c, 0, 58, 63
1, 206497, Note_off_c, 0, 54, 54
1, 206503, Control_c, 0, 64, 74
1, 206513, Note_on_c, 0, 73, 77
1, 206518, Control_c, 0, 64, 73
1, 206533, Control_c, 0, 64, 70
1, 206548, Control_c, 0, 64, 66
1, 206562, Control_c, 0, 64, 57
1, 206574, Note_off_c, 0, 73, 62
1, 206577, Control_c, 0, 64, 21
1, 206590, Note_on_c, 0, 78, 69
1, 206592, Control_c, 0, 64, 0
1, 206667, Note_on_c, 0, 73, 67
1, 206673, Note_off_c, 0, 78, 61
1, 206730, Note_off_c, 0, 73, 62
1, 206737, Note_on_c, 0, 70, 71
1, 206813, Note_off_c, 0, 70, 60
1, 206820, Note_on_c, 0, 71, 70
1, 206838, Note_on_c, 0, 47, 46
1, 206858, Note_on_c, 0, 44, 32
1, 206862, Note_on_c, 0, 37, 16
1, 206889, Note_off_c, 0, 71, 58
1, 206902, Note_on_c, 0, 73, 66
1, 206974, Note_off_c, 0, 73, 62
1, 206977, Note_on_c, 0, 71, 76
1, 207047, Note_off_c, 0, 71, 59
1, 207055, Note_on_c, 0, 70, 73
1, 207133, Note_off_c, 0, 70, 62
1, 207146, Note_on_c, 0, 71, 67
1, 207180, Note_off_c, 0, 44, 32
1, 207203, Note_off_c, 0, 71, 58
1, 207228, Note_on_c, 0, 80, 71
1, 207304, Note_on_c, 0, 78, 63
1, 207327, Note_off_c, 0, 80, 57
1, 207367, Note_off_c, 0, 78, 61
1, 207383, Note_on_c, 0, 77, 58
1, 207458, Note_off_c, 0, 77, 61
1, 207475, Note_off_c, 0, 37, 40
1, 207475, Note_on_c, 0, 78, 72
1, 207515, Note_off_c, 0, 47, 42
1, 207520, Note_on_c, 0, 46, 45
1, 207525, Note_on_c, 0, 42, 28
1, 207556, Note_off_c, 0, 78, 61
1, 207564, Note_on_c, 0, 73, 61
1, 207636, Note_on_c, 0, 70, 63
1, 207642, Note_off_c, 0, 73, 57
1, 207701, Note_off_c, 0, 70, 61
1, 207708, Note_on_c, 0, 66, 66
1, 207738, Note_off_c, 0, 66, 67
1, 207754, Note_off_c, 0, 42, 43
1, 207797, Note_on_c, 0, 61, 65
1, 207799, Note_off_c, 0, 46, 55
1, 207871, Note_off_c, 0, 61, 63
1, 207885, Note_on_c, 0, 66, 55
1, 207953, Note_off_c, 0, 66, 63
1, 207959, Note_on_c, 0, 61, 46
1, 208018, Note_off_c, 0, 61, 57
1, 208047, Note_on_c, 0, 58, 38
1, 208161, Note_on_c, 0, 47, 43
1, 208172, Note_off_c, 0, 58, 56
1, 208211, Note_off_c, 0, 47, 61
1, 208240, Note_on_c, 0, 49, 49
1, 208294, Note_off_c, 0, 49, 61
1, 208325, Note_on_c, 0, 47, 51
1, 208384, Note_off_c, 0, 47, 60
1, 208397, Note_on_c, 0, 46, 59
1, 208462, Note_off_c, 0, 46, 59
1, 208492, Note_on_c, 0, 47, 59
1, 208496, Note_on_c, 0, 71, 53
1, 208503, Note_on_c, 0, 61, 41
1, 208526, Note_on_c, 0, 65, 29
1, 208560, Note_off_c, 0, 47, 56
1, 208578, Note_on_c, 0, 49, 57
1, 208591, Poly_aftertouch_c, 0, 68, 127
1, 208658, Note_off_c, 0, 61, 50
1, 208687, Note_on_c, 0, 51, 63
1, 208705, Control_c, 0, 67, 121
1, 208720, Control_c, 0, 67, 111
1, 208721, Note_off_c, 0, 49, 62
1, 208736, Control_c, 0, 67, 102
1, 208751, Control_c, 0, 67, 95
1, 208760, Note_off_c, 0, 51, 62
1, 208761, Note_on_c, 0, 53, 75
1, 208765, Control_c, 0, 67, 93
1, 208780, Control_c, 0, 67, 94
1, 208787, Note_off_c, 0, 65, 35
1, 208795, Note_off_c, 0, 71, 45
1, 208809, Control_c, 0, 67, 94
1, 208845, Note_on_c, 0, 54, 69
1, 208845, Note_off_c, 0, 53, 64
1, 208857, Poly_aftertouch_c, 0, 68, 0
1, 208883, Control_c, 0, 67, 95
1, 208898, Control_c, 0, 67, 96
1, 208910, Note_on_c, 0, 56, 69
1, 208913, Control_c, 0, 67, 97
1, 208928, Control_c, 0, 67, 97
1, 208943, Control_c, 0, 67, 98
1, 208952, Note_off_c, 0, 54, 60
1, 208972, Control_c, 0, 67, 98
1, 208983, Note_on_c, 0, 58, 76
1, 209007, Note_off_c, 0, 56, 60
1, 209056, Note_off_c, 0, 58, 64
1, 209066, Note_on_c, 0, 59, 72
1, 209119, Control_c, 0, 67, 98
1, 209155, Note_off_c, 0, 59, 62
1, 209162, Note_on_c, 0, 61, 68
1, 209165, Note_on_c, 0, 65, 49
1, 209171, Note_on_c, 0, 71, 49
1, 209194, Note_on_c, 0, 68, 42
1, 209220, Note_off_c, 0, 61, 62
1, 209243, Note_on_c, 0, 59, 59
1, 209312, Control_c, 0, 67, 98
1, 209327, Note_off_c, 0, 59, 61
1, 209327, Control_c, 0, 67, 99
1, 209340, Note_on_c, 0, 58, 64
1, 209342, Control_c, 0, 67, 99
1, 209364, Control_c, 0, 67, 100
1, 209394, Control_c, 0, 67, 100
1, 209410, Note_off_c, 0, 65, 42
1, 209418, Note_off_c, 0, 58, 63
1, 209423, Control_c, 0, 67, 101
1, 209435, Note_on_c, 0, 56, 55
1, 209453, Control_c, 0, 67, 101
1, 209468, Control_c, 0, 67, 102
1, 209483, Control_c, 0, 67, 102
1, 209489, Note_off_c, 0, 56, 61
1, 209497, Control_c, 0, 67, 103
1, 209512, Note_off_c, 0, 71, 59
1, 209512, Control_c, 0, 67, 103
1, 209517, Note_on_c, 0, 54, 55
1, 209525, Note_off_c, 0, 68, 51
1, 209527, Control_c, 0, 67, 104
1, 209543, Control_c, 0, 67, 104
1, 209558, Control_c, 0, 67, 105
1, 209566, Note_off_c, 0, 54, 63
1, 209586, Note_on_c, 0, 53, 68
1, 209587, Control_c, 0, 67, 105
1, 209602, Control_c, 0, 67, 107
1, 209617, Control_c, 0, 67, 108
1, 209631, Control_c, 0, 67, 109
1, 209642, Note_off_c, 0, 53, 62
1, 209646, Control_c, 0, 67, 111
1, 209661, Control_c, 0, 67, 112
1, 209676, Control_c, 0, 67, 114
1, 209681, Note_on_c, 0, 51, 63
1, 209691, Control_c, 0, 67, 115
1, 209705, Control_c, 0, 67, 117
1, 209720, Control_c, 0, 67, 119
1, 209735, Control_c, 0, 67, 121
1, 209748, Note_off_c, 0, 51, 61
1, 209750, Control_c, 0, 67, 123
1, 209760, Note_on_c, 0, 49, 57
1, 209765, Control_c, 0, 67, 124
1, 209779, Control_c, 0, 67, 125
1, 209794, Control_c, 0, 67, 126
1, 209809, Control_c, 0, 67, 127
1, 209831, Note_off_c, 0, 49, 61
1, 209839, Control_c, 0, 67, 127
1, 209846, Note_on_c, 0, 51, 54
1, 209863, Note_on_c, 0, 73, 48
1, 209872, Note_on_c, 0, 65, 38
1, 209888, Note_on_c, 0, 71, 32
1, 209890, Note_on_c, 0, 68, 27
1, 209912, Note_off_c, 0, 51, 62
1, 209934, Note_on_c, 0, 49, 59
1, 210024, Note_on_c, 0, 51, 62
1, 210030, Note_off_c, 0, 49, 60
1, 210071, Note_off_c, 0, 51, 63
1, 210090, Note_on_c, 0, 53, 63
1, 210180, Note_off_c, 0, 53, 41
1, 210189, Note_on_c, 0, 54, 67
1, 210229, Note_off_c, 0, 71, 28
1, 210237, Note_off_c, 0, 65, 43
1, 210253, Note_off_c, 0, 68, 45
1, 210262, Note_off_c, 0, 73, 61
1, 210277, Note_on_c, 0, 56, 45
1, 210281, Note_off_c, 0, 54, 57
1, 210320, Note_on_c, 0, 57, 30
1, 210334, Note_off_c, 0, 56, 37
1, 210353, Note_off_c, 0, 57, 53
1, 210357, Note_on_c, 0, 58, 67
1, 210427, Note_off_c, 0, 58, 63
1, 210449, Note_on_c, 0, 59, 56
1, 210518, Note_off_c, 0, 59, 49
1, 210533, Note_on_c, 0, 61, 60
1, 210542, Note_on_c, 0, 73, 48
1, 210547, Note_on_c, 0, 66, 48
1, 210553, Note_on_c, 0, 70, 47
1, 210615, Note_off_c, 0, 61, 61
1, 210635, Note_on_c, 0, 63, 56
1, 210647, Control_c, 0, 67, 127
1, 210662, Control_c, 0, 67, 126
1, 210676, Control_c, 0, 67, 125
1, 210691, Control_c, 0, 67, 125
1, 210695, Note_off_c, 0, 63, 63
1, 210706, Control_c, 0, 67, 124
1, 210712, Note_on_c, 0, 61, 58
1, 210721, Control_c, 0, 67, 124
1, 210750, Note_off_c, 0, 61, 63
1, 210760, Note_off_c, 0, 66, 59
1, 210766, Control_c, 0, 67, 123
1, 210780, Control_c, 0, 67, 122
1, 210787, Note_on_c, 0, 59, 57
1, 210795, Control_c, 0, 67, 122
1, 210799, Note_off_c, 0, 70, 41
1, 210810, Control_c, 0, 67, 121
1, 210825, Control_c, 0, 67, 121
1, 210840, Control_c, 0, 67, 120
1, 210859, Note_off_c, 0, 59, 59
1, 210861, Control_c, 0, 67, 119
1, 210875, Note_on_c, 0, 58, 63
1, 210876, Control_c, 0, 67, 117
1, 210891, Control_c, 0, 67, 116
1, 210936, Control_c, 0, 67, 116
1, 210936, Note_off_c, 0, 58, 64
1, 210951, Control_c, 0, 67, 115
1, 210966, Control_c, 0, 67, 115
1, 210971, Note_on_c, 0, 59, 50
1, 210980, Control_c, 0, 67, 114
1, 210995, Control_c, 0, 67, 112
1, 211000, Note_off_c, 0, 73, 56
1, 211010, Control_c, 0, 67, 111
1, 211012, Note_off_c, 0, 59, 62
1, 211030, Note_on_c, 0, 61, 61
1, 211054, Control_c, 0, 67, 111
1, 211084, Control_c, 0, 67, 112
1, 211089, Note_off_c, 0, 61, 62
1, 211114, Control_c, 0, 67, 112
1, 211115, Note_on_c, 0, 59, 54
1, 211130, Control_c, 0, 67, 111
1, 211174, Control_c, 0, 67, 112
1, 211183, Note_off_c, 0, 59, 58
1, 211186, Note_on_c, 0, 70, 75
1, 211189, Control_c, 0, 67, 111
1, 211207, Note_on_c, 0, 58, 51
1, 211218, Control_c, 0, 67, 111
1, 211233, Control_c, 0, 67, 110
1, 211263, Control_c, 0, 67, 111
1, 211264, Note_off_c, 0, 58, 62
1, 211299, Note_on_c, 0, 59, 44
1, 211307, Control_c, 0, 67, 110
1, 211333, Note_off_c, 0, 59, 58
1, 211352, Control_c, 0, 67, 111
1, 211353, Note_on_c, 0, 58, 56
1, 211366, Control_c, 0, 67, 110
1, 211396, Control_c, 0, 67, 110
1, 211410, Control_c, 0, 67, 109
1, 211421, Note_off_c, 0, 58, 63
1, 211439, Note_on_c, 0, 56, 56
1, 211455, Control_c, 0, 67, 109
1, 211460, Note_on_c, 0, 71, 68
1, 211470, Control_c, 0, 67, 108
1, 211477, Note_off_c, 0, 70, 50
1, 211484, Control_c, 0, 67, 104
1, 211499, Control_c, 0, 67, 101
1, 211500, Note_off_c, 0, 56, 61
1, 211514, Control_c, 0, 67, 99
1, 211529, Control_c, 0, 67, 98
1, 211534, Note_on_c, 0, 54, 48
1, 211549, Note_off_c, 0, 71, 61
1, 211574, Control_c, 0, 67, 99
1, 211589, Control_c, 0, 67, 99
1, 211610, Control_c, 0, 67, 100
1, 211618, Note_on_c, 0, 56, 55
1, 211620, Note_off_c, 0, 54, 56
1, 211625, Control_c, 0, 67, 101
1, 211640, Control_c, 0, 67, 101
1, 211655, Control_c, 0, 67, 102
1, 211666, Note_off_c, 0, 56, 60
1, 211670, Control_c, 0, 67, 103
1, 211677, Note_on_c, 0, 58, 54
1, 211684, Control_c, 0, 67, 104
1, 211699, Control_c, 0, 67, 105
1, 211714, Control_c, 0, 67, 106
1, 211729, Control_c, 0, 67, 107
1, 211740, Note_off_c, 0, 58, 62
1, 211744, Control_c, 0, 67, 108
1, 211756, Note_on_c, 0, 59, 53
1, 211759, Control_c, 0, 67, 109
1, 211773, Control_c, 0, 67, 109
1, 211788, Control_c, 0, 67, 110
1, 211818, Control_c, 0, 67, 111
1, 211827, Note_on_c, 0, 73, 64
1, 211831, Note_on_c, 0, 66, 52
1, 211832, Note_off_c, 0, 59, 59
1, 211833, Control_c, 0, 67, 111
1, 211841, Note_on_c, 0, 64, 49
1, 211846, Note_on_c, 0, 61, 56
1, 211847, Note_on_c, 0, 70, 46
1, 211848, Control_c, 0, 67, 112
1, 211863, Control_c, 0, 67, 113
1, 211877, Control_c, 0, 67, 113
1, 211896, Note_off_c, 0, 61, 60
1, 211926, Note_on_c, 0, 59, 52
1, 211937, Control_c, 0, 67, 114
1, 211952, Control_c, 0, 67, 115
1, 211967, Control_c, 0, 67, 117
1, 211979, Note_off_c, 0, 59, 56
1, 211982, Control_c, 0, 67, 123
1, 211997, Control_c, 0, 67, 127
1, 212016, Note_on_c, 0, 58, 50
1, 212069, Note_off_c, 0, 66, 39
1, 212086, Note_off_c, 0, 58, 62
1, 212101, Note_off_c, 0, 70, 33
1, 212106, Note_on_c, 0, 56, 48
1, 212157, Note_off_c, 0, 56, 59
1, 212182, Note_on_c, 0, 54, 48
1, 212190, Note_off_c, 0, 64, 62
1, 212247, Note_off_c, 0, 54, 60
1, 212253, Note_off_c, 0, 73, 61
1, 212268, Note_on_c, 0, 58, 44
1, 212316, Note_off_c, 0, 58, 64
1, 212344, Note_on_c, 0, 56, 39
1, 212399, Note_off_c, 0, 56, 57
1, 212418, Note_on_c, 0, 54, 45
1, 212467, Note_off_c, 0, 54, 63
1, 212478, Control_c, 0, 64, 38
1, 212493, Control_c, 0, 64, 55
1, 212495, Note_on_c, 0, 70, 59
1, 212507, Control_c, 0, 64, 62
1, 212512, Note_on_c, 0, 58, 42
1, 212522, Control_c, 0, 64, 65
1, 212537, Note_on_c, 0, 52, 32
1, 212537, Control_c, 0, 64, 69
1, 212551, Control_c, 0, 64, 73
1, 212566, Control_c, 0, 64, 78
1, 212581, Control_c, 0, 64, 81
1, 212587, Note_off_c, 0, 52, 52
1, 212596, Control_c, 0, 64, 82
1, 212597, Note_off_c, 0, 58, 56
1, 212611, Control_c, 0, 64, 83
1, 212616, Note_on_c, 0, 51, 44
1, 212626, Control_c, 0, 64, 84
1, 212626, Note_off_c, 0, 70, 61
1, 212641, Control_c, 0, 64, 85
1, 212659, Note_off_c, 0, 51, 60
1, 212686, Note_on_c, 0, 49, 49
1, 212730, Note_off_c, 0, 49, 62
1, 212734, Note_on_c, 0, 71, 56
1, 212736, Note_on_c, 0, 59, 49
1, 212754, Note_off_c, 0, 71, 61
1, 212760, Note_off_c, 0, 59, 57
1, 212763, Note_on_c, 0, 47, 55
1, 212775, Control_c, 0, 67, 119
1, 212785, Note_on_c, 0, 64, 12
1, 212790, Control_c, 0, 64, 84
1, 212790, Control_c, 0, 67, 110
1, 212805, Control_c, 0, 64, 84
1, 212805, Control_c, 0, 67, 102
1, 212820, Control_c, 0, 64, 81
1, 212820, Control_c, 0, 67, 96
1, 212826, Note_on_c, 0, 73, 72
1, 212834, Note_off_c, 0, 47, 60
1, 212835, Control_c, 0, 64, 76
1, 212835, Control_c, 0, 67, 89
1, 212837, Note_on_c, 0, 61, 60
1, 212849, Control_c, 0, 64, 68
1, 212849, Control_c, 0, 67, 83
1, 212855, Note_on_c, 0, 46, 61
1, 212861, Note_off_c, 0, 73, 0
1, 212861, Note_on_c, 0, 73, 42
1, 212864, Control_c, 0, 64, 45
1, 212864, Control_c, 0, 67, 77
1, 212879, Control_c, 0, 64, 0
1, 212879, Control_c, 0, 67, 70
1, 212894, Control_c, 0, 67, 62
1, 212909, Control_c, 0, 67, 54
1, 212919, Note_off_c, 0, 46, 59
1, 212923, Control_c, 0, 67, 47
1, 212938, Control_c, 0, 67, 39
1, 212943, Note_on_c, 0, 47, 62
1, 212953, Control_c, 0, 67, 32
1, 212968, Control_c, 0, 64, 52
1, 212968, Control_c, 0, 67, 26
1, 212982, Control_c, 0, 64, 65
1, 212982, Control_c, 0, 67, 22
1, 212997, Control_c, 0, 64, 69
1, 212997, Control_c, 0, 67, 18
1, 213000, Note_off_c, 0, 47, 60
1, 213009, Note_off_c, 0, 61, 54
1, 213012, Control_c, 0, 64, 72
1, 213012, Control_c, 0, 67, 15
1, 213016, Note_on_c, 0, 49, 49
1, 213027, Control_c, 0, 64, 75
1, 213027, Control_c, 0, 67, 10
1, 213039, Note_off_c, 0, 64, 37
1, 213042, Control_c, 0, 64, 76
1, 213042, Control_c, 0, 67, 0
1, 213056, Control_c, 0, 64, 77
1, 213068, Note_off_c, 0, 49, 52
1, 213088, Note_on_c, 0, 47, 54
1, 213153, Control_c, 0, 64, 76
1, 213168, Control_c, 0, 64, 73
1, 213172, Note_on_c, 0, 66, 73
1, 213172, Note_off_c, 0, 47, 64
1, 213178, Note_on_c, 0, 64, 28
1, 213180, Note_on_c, 0, 61, 47
1, 213182, Control_c, 0, 64, 68
1, 213191, Note_on_c, 0, 46, 59
1, 213197, Control_c, 0, 64, 38
1, 213207, Note_off_c, 0, 73, 62
1, 213212, Control_c, 0, 64, 0
1, 213287, Note_on_c, 0, 49, 57
1, 213301, Note_off_c, 0, 46, 59
1, 213301, Control_c, 0, 64, 63
1, 213316, Control_c, 0, 64, 67
1, 213330, Control_c, 0, 64, 70
1, 213335, Note_off_c, 0, 49, 62
1, 213345, Control_c, 0, 64, 72
1, 213358, Note_on_c, 0, 52, 60
1, 213360, Control_c, 0, 64, 73
1, 213371, Note_off_c, 0, 61, 37
1, 213375, Control_c, 0, 64, 74
1, 213389, Control_c, 0, 64, 74
1, 213415, Note_off_c, 0, 52, 47
1, 213430, Note_on_c, 0, 54, 64
1, 213449, Control_c, 0, 64, 74
1, 213464, Control_c, 0, 64, 73
1, 213478, Control_c, 0, 64, 72
1, 213485, Note_off_c, 0, 54, 58
1, 213493, Control_c, 0, 64, 68
1, 213506, Note_on_c, 0, 67, 86
1, 213508, Control_c, 0, 64, 56
1, 213511, Note_off_c, 0, 64, 14
1, 213524, Control_c, 0, 64, 0
1, 213533, Note_on_c, 0, 61, 45
1, 213537, Note_on_c, 0, 55, 59
1, 213551, Note_off_c, 0, 66, 60
1, 213559, Note_off_c, 0, 61, 54
1, 213589, Note_off_c, 0, 55, 60
1, 213598, Control_c, 0, 64, 57
1, 213613, Control_c, 0, 64, 65
1, 213628, Control_c, 0, 64, 69
1, 213636, Note_on_c, 0, 52, 39
1, 213642, Control_c, 0, 64, 72
1, 213657, Control_c, 0, 64, 75
1, 213672, Control_c, 0, 64, 77
1, 213672, Note_off_c, 0, 52, 64
1, 213687, Note_on_c, 0, 49, 60
1, 213757, Note_on_c, 0, 47, 60
1, 213762, Note_off_c, 0, 49, 57
1, 213791, Control_c, 0, 64, 76
1, 213805, Control_c, 0, 64, 74
1, 213820, Control_c, 0, 64, 69
1, 213829, Note_off_c, 0, 47, 64
1, 213835, Control_c, 0, 64, 53
1, 213857, Control_c, 0, 64, 0
1, 213860, Note_on_c, 0, 46, 65
1, 213862, Note_on_c, 0, 64, 79
1, 213879, Note_on_c, 0, 61, 59
1, 213881, Note_off_c, 0, 67, 59
1, 213926, Note_on_c, 0, 49, 57
1, 213937, Note_off_c, 0, 61, 47
1, 213946, Control_c, 0, 64, 62
1, 213956, Note_off_c, 0, 46, 51
1, 213961, Control_c, 0, 64, 72
1, 213976, Control_c, 0, 64, 81
1, 213991, Control_c, 0, 64, 89
1, 214002, Note_on_c, 0, 52, 66
1, 214005, Control_c, 0, 64, 93
1, 214014, Note_off_c, 0, 64, 62
1, 214018, Note_off_c, 0, 49, 56
1, 214020, Control_c, 0, 64, 95
1, 214035, Control_c, 0, 64, 96
1, 214050, Control_c, 0, 64, 97
1, 214084, Note_on_c, 0, 54, 56
1, 214132, Note_off_c, 0, 52, 53
1, 214171, Note_off_c, 0, 54, 56
1, 214198, Control_c, 0, 64, 97
1, 214200, Note_on_c, 0, 76, 81
1, 214205, Note_on_c, 0, 55, 49
1, 214212, Control_c, 0, 64, 96
1, 214218, Note_on_c, 0, 64, 54
1, 214220, Note_on_c, 0, 67, 54
1, 214227, Control_c, 0, 64, 94
1, 214242, Control_c, 0, 64, 91
1, 214257, Control_c, 0, 64, 85
1, 214271, Control_c, 0, 64, 77
1, 214283, Note_on_c, 0, 52, 53
1, 214286, Control_c, 0, 64, 66
1, 214301, Control_c, 0, 64, 0
1, 214355, Note_off_c, 0, 67, 59
1, 214364, Note_off_c, 0, 55, 35
1, 214373, Note_on_c, 0, 49, 59
1, 214376, Note_off_c, 0, 52, 63
1, 214376, Control_c, 0, 64, 55
1, 214391, Control_c, 0, 64, 66
1, 214406, Control_c, 0, 64, 71
1, 214420, Control_c, 0, 64, 77
1, 214435, Control_c, 0, 64, 81
1, 214447, Note_on_c, 0, 47, 62
1, 214450, Control_c, 0, 64, 82
1, 214456, Note_off_c, 0, 49, 59
1, 214467, Note_off_c, 0, 64, 36
1, 214540, Control_c, 0, 64, 81
1, 214553, Note_on_c, 0, 46, 72
1, 214555, Control_c, 0, 64, 80
1, 214558, Note_on_c, 0, 73, 84
1, 214567, Note_off_c, 0, 47, 61
1, 214569, Control_c, 0, 64, 76
1, 214577, Note_on_c, 0, 64, 61
1, 214584, Control_c, 0, 64, 70
1, 214597, Note_on_c, 0, 66, 57
1, 214606, Control_c, 0, 64, 56
1, 214621, Control_c, 0, 64, 0
1, 214629, Note_off_c, 0, 76, 58
1, 214659, Note_on_c, 0, 49, 65
1, 214703, Note_off_c, 0, 46, 57
1, 214710, Control_c, 0, 64, 62
1, 214722, Note_off_c, 0, 66, 44
1, 214725, Control_c, 0, 64, 70
1, 214738, Note_on_c, 0, 54, 69
1, 214739, Control_c, 0, 64, 79
1, 214754, Control_c, 0, 64, 83
1, 214769, Note_off_c, 0, 64, 49
1, 214769, Control_c, 0, 64, 83
1, 214770, Note_off_c, 0, 49, 61
1, 214800, Note_on_c, 0, 58, 74
1, 214826, Note_off_c, 0, 54, 60
1, 214853, Note_off_c, 0, 73, 61
1, 214873, Control_c, 0, 64, 82
1, 214878, Note_off_c, 0, 58, 63
1, 214888, Control_c, 0, 64, 80
1, 214891, Note_on_c, 0, 74, 87
1, 214899, Note_on_c, 0, 62, 75
1, 214900, Note_on_c, 0, 47, 79
1, 214902, Control_c, 0, 64, 75
1, 214909, Note_on_c, 0, 66, 55
1, 214917, Control_c, 0, 64, 64
1, 214932, Control_c, 0, 64, 0
1, 214964, Note_off_c, 0, 66, 52
1, 214988, Note_on_c, 0, 50, 67
1, 215051, Control_c, 0, 64, 64
1, 215059, Note_off_c, 0, 62, 55
1, 215066, Control_c, 0, 64, 71
1, 215073, Note_on_c, 0, 54, 74
1, 215081, Control_c, 0, 64, 77
1, 215095, Control_c, 0, 64, 80
1, 215099, Note_off_c, 0, 47, 37
1, 215108, Note_off_c, 0, 50, 63
1, 215110, Control_c, 0, 64, 81
1, 215137, Note_on_c, 0, 59, 76
1, 215151, Note_off_c, 0, 54, 61
1, 215187, Note_off_c, 0, 74, 63
1, 215215, Control_c, 0, 64, 78
1, 215222, Note_on_c, 0, 71, 86
1, 215224, Note_on_c, 0, 50, 83
1, 215227, Note_off_c, 0, 59, 58
1, 215230, Control_c, 0, 64, 71
1, 215232, Note_on_c, 0, 62, 79
1, 215238, Note_on_c, 0, 66, 66
1, 215244, Control_c, 0, 64, 0
1, 215310, Note_on_c, 0, 54, 72
1, 215312, Note_off_c, 0, 62, 61
1, 215332, Note_off_c, 0, 66, 65
1, 215333, Control_c, 0, 64, 63
1, 215356, Control_c, 0, 64, 71
1, 215366, Note_off_c, 0, 71, 62
1, 215371, Control_c, 0, 64, 79
1, 215379, Note_off_c, 0, 50, 55
1, 215385, Control_c, 0, 64, 85
1, 215395, Note_on_c, 0, 59, 72
1, 215400, Control_c, 0, 64, 86
1, 215415, Control_c, 0, 64, 87
1, 215430, Note_off_c, 0, 54, 61
1, 215464, Note_on_c, 0, 62, 74
1, 215468, Note_off_c, 0, 59, 63
1, 215519, Control_c, 0, 64, 86
1, 215533, Control_c, 0, 64, 84
1, 215548, Control_c, 0, 64, 79
1, 215562, Note_on_c, 0, 83, 91
1, 215563, Note_off_c, 0, 62, 60
1, 215563, Control_c, 0, 64, 70
1, 215568, Note_on_c, 0, 53, 72
1, 215574, Note_on_c, 0, 71, 66
1, 215578, Control_c, 0, 64, 0
1, 215586, Note_on_c, 0, 74, 55
1, 215659, Note_on_c, 0, 56, 62
1, 215682, Control_c, 0, 64, 60
1, 215697, Control_c, 0, 64, 72
1, 215712, Control_c, 0, 64, 84
1, 215717, Note_off_c, 0, 53, 52
1, 215719, Note_on_c, 0, 59, 66
1, 215726, Note_off_c, 0, 74, 58
1, 215726, Control_c, 0, 64, 91
1, 215741, Control_c, 0, 64, 92
1, 215750, Note_off_c, 0, 71, 40
1, 215753, Note_off_c, 0, 56, 61
1, 215788, Note_off_c, 0, 59, 62
1, 215805, Note_on_c, 0, 62, 62
1, 215815, Control_c, 0, 64, 91
1, 215833, Note_off_c, 0, 62, 63
1, 215859, Control_c, 0, 64, 91
1, 215874, Control_c, 0, 64, 88
1, 215889, Control_c, 0, 64, 82
1, 215897, Note_on_c, 0, 80, 83
1, 215904, Control_c, 0, 64, 69
1, 215909, Note_on_c, 0, 65, 67
1, 215919, Control_c, 0, 64, 0
1, 215922, Note_on_c, 0, 71, 53
1, 215939, Note_on_c, 0, 74, 16
1, 215939, Note_off_c, 0, 83, 52
1, 215974, Note_off_c, 0, 71, 40
1, 215974, Note_off_c, 0, 74, 32
1, 215994, Note_on_c, 0, 68, 63
1, 215994, Control_c, 0, 64, 53
1, 216008, Control_c, 0, 64, 68
1, 216023, Control_c, 0, 64, 75
1, 216029, Note_off_c, 0, 80, 64
1, 216038, Control_c, 0, 64, 81
1, 216053, Control_c, 0, 64, 83
1, 216061, Note_off_c, 0, 68, 63
1, 216067, Control_c, 0, 64, 83
1, 216072, Note_off_c, 0, 65, 38
1, 216078, Note_on_c, 0, 71, 61
1, 216129, Note_off_c, 0, 71, 53
1, 216134, Control_c, 0, 64, 83
1, 216149, Control_c, 0, 64, 81
1, 216164, Control_c, 0, 64, 76
1, 216165, Note_on_c, 0, 68, 56
1, 216179, Control_c, 0, 64, 70
1, 216194, Control_c, 0, 64, 59
1, 216208, Control_c, 0, 64, 0
1, 216230, Note_off_c, 0, 68, 59
1, 216243, Note_on_c, 0, 86, 71
1, 216266, Note_on_c, 0, 80, 62
1, 216267, Note_on_c, 0, 65, 47
1, 216267, Note_on_c, 0, 83, 55
1, 216334, Note_off_c, 0, 83, 52
1, 216348, Note_on_c, 0, 68, 56
1, 216371, Control_c, 0, 64, 61
1, 216384, Note_off_c, 0, 80, 49
1, 216386, Control_c, 0, 64, 67
1, 216400, Control_c, 0, 64, 70
1, 216410, Note_off_c, 0, 68, 60
1, 216415, Control_c, 0, 64, 71
1, 216426, Note_off_c, 0, 65, 32
1, 216437, Note_on_c, 0, 71, 43
1, 216445, Control_c, 0, 64, 72
1, 216474, Control_c, 0, 64, 71
1, 216484, Note_off_c, 0, 71, 54
1, 216489, Control_c, 0, 64, 70
1, 216504, Control_c, 0, 64, 68
1, 216519, Control_c, 0, 64, 65
1, 216534, Control_c, 0, 64, 61
1, 216536, Note_on_c, 0, 68, 24
1, 216549, Control_c, 0, 64, 56
1, 216564, Control_c, 0, 64, 48
1, 216576, Note_off_c, 0, 68, 52
1, 216579, Control_c, 0, 64, 0
1, 216595, Note_on_c, 0, 85, 59
1, 216604, Note_on_c, 0, 65, 38
1, 216615, Note_on_c, 0, 83, 42
1, 216627, Note_on_c, 0, 80, 41
1, 216682, Note_off_c, 0, 86, 24
1, 216682, Control_c, 0, 64, 51
1, 216683, Note_on_c, 0, 68, 47
1, 216687, Note_off_c, 0, 65, 52
1, 216697, Control_c, 0, 64, 64
1, 216712, Control_c, 0, 64, 67
1, 216728, Control_c, 0, 64, 70
1, 216743, Control_c, 0, 64, 72
1, 216747, Note_off_c, 0, 68, 60
1, 216757, Control_c, 0, 64, 73
1, 216772, Note_on_c, 0, 71, 43
1, 216772, Control_c, 0, 64, 74
1, 216822, Note_off_c, 0, 71, 59
1, 216853, Control_c, 0, 64, 73
1, 216868, Control_c, 0, 64, 72
1, 216880, Note_on_c, 0, 68, 39
1, 216883, Control_c, 0, 64, 68
1, 216898, Control_c, 0, 64, 61
1, 216912, Control_c, 0, 64, 0
1, 216922, Note_off_c, 0, 85, 35
1, 216935, Note_off_c, 0, 80, 40
1, 216942, Note_off_c, 0, 68, 51
1, 216949, Note_off_c, 0, 83, 39
1, 216974, Note_on_c, 0, 65, 25
1, 217012, Note_off_c, 0, 65, 55
1, 217041, Note_on_c, 0, 71, 41
1, 217099, Note_off_c, 0, 71, 52
1, 217124, Note_on_c, 0, 70, 44
1, 217189, Note_off_c, 0, 70, 55
1, 217214, Note_on_c, 0, 68, 42
1, 217275, Note_on_c, 0, 85, 54
1, 217282, Note_off_c, 0, 68, 60
1, 217296, Note_on_c, 0, 80, 43
1, 217296, Note_on_c, 0, 83, 38
1, 217313, Note_on_c, 0, 73, 41
1, 217355, Note_off_c, 0, 73, 59
1, 217375, Note_on_c, 0, 71, 50
1, 217457, Note_off_c, 0, 71, 59
1, 217467, Note_on_c, 0, 70, 54
1, 217500, Note_off_c, 0, 80, 48
1, 217505, Note_off_c, 0, 70, 65
1, 217529, Note_on_c, 0, 68, 57
1, 217534, Note_off_c, 0, 83, 53
1, 217566, Note_off_c, 0, 85, 35
1, 217622, Note_on_c, 0, 66, 57
1, 217652, Note_off_c, 0, 68, 63
1, 217693, Note_on_c, 0, 73, 58
1, 217714, Note_off_c, 0, 66, 57
1, 217756, Note_off_c, 0, 73, 56
1, 217773, Note_on_c, 0, 71, 59
1, 217854, Note_on_c, 0, 70, 63
1, 217862, Note_off_c, 0, 71, 60
1, 217905, Note_off_c, 0, 70, 62
1, 217937, Note_on_c, 0, 85, 55
1, 217938, Note_on_c, 0, 78, 57
1, 217939, Note_on_c, 0, 82, 53
1, 217970, Note_off_c, 0, 78, 64
1, 217998, Note_on_c, 0, 77, 60
1, 218024, Note_off_c, 0, 82, 0
1, 218024, Note_on_c, 0, 82, 3
1, 218081, Note_off_c, 0, 77, 59
1, 218083, Note_on_c, 0, 75, 64
1, 218107, Note_off_c, 0, 82, 40
1, 218163, Note_off_c, 0, 75, 65
1, 218171, Note_on_c, 0, 73, 56
1, 218209, Note_off_c, 0, 85, 33
1, 218222, Note_off_c, 0, 73, 63
1, 218233, Note_on_c, 0, 71, 52
1, 218290, Note_off_c, 0, 71, 58
1, 218298, Note_on_c, 0, 70, 71
1, 218370, Note_off_c, 0, 70, 63
1, 218402, Note_on_c, 0, 75, 61
1, 218457, Note_off_c, 0, 75, 63
1, 218469, Note_on_c, 0, 73, 65
1, 218545, Note_off_c, 0, 73, 63
1, 218571, Note_on_c, 0, 71, 57
1, 218588, Note_on_c, 0, 85, 54
1, 218602, Note_on_c, 0, 82, 43
1, 218625, Note_off_c, 0, 71, 58
1, 218647, Note_on_c, 0, 70, 59
1, 218724, Note_off_c, 0, 70, 62
1, 218737, Note_on_c, 0, 68, 52
1, 218755, Note_off_c, 0, 82, 49
1, 218802, Note_off_c, 0, 68, 60
1, 218817, Note_off_c, 0, 85, 35
1, 218825, Note_on_c, 0, 66, 50
1, 218871, Note_off_c, 0, 66, 60
1, 218881, Note_on_c, 0, 65, 50
1, 218957, Note_off_c, 0, 65, 64
1, 218973, Note_on_c, 0, 66, 57
1, 219031, Note_off_c, 0, 66, 64
1, 219044, Note_on_c, 0, 68, 54
1, 219116, Note_off_c, 0, 68, 61
1, 219131, Note_on_c, 0, 66, 48
1, 219212, Note_off_c, 0, 66, 63
1, 219241, Note_on_c, 0, 60, 51
1, 219244, Note_on_c, 0, 85, 50
1, 219261, Note_on_c, 0, 82, 47
1, 219311, Note_off_c, 0, 60, 56
1, 219340, Note_on_c, 0, 61, 50
1, 219389, Note_off_c, 0, 61, 60
1, 219413, Note_on_c, 0, 63, 40
1, 219486, Note_off_c, 0, 63, 51
1, 219511, Note_on_c, 0, 61, 52
1, 219559, Note_off_c, 0, 61, 59
1, 219606, Note_on_c, 0, 57, 39
1, 219650, Note_off_c, 0, 85, 50
1, 219653, Note_off_c, 0, 82, 48
1, 219655, Note_off_c, 0, 57, 46
1, 219690, Note_on_c, 0, 58, 46
1, 219735, Note_off_c, 0, 58, 62
1, 219771, Note_on_c, 0, 59, 40
1, 219808, Note_off_c, 0, 59, 53
1, 219852, Note_on_c, 0, 58, 45
1, 219931, Note_off_c, 0, 58, 61
1, 219937, Note_on_c, 0, 90, 71
1, 219938, Control_c, 0, 64, 28
1, 219950, Note_on_c, 0, 78, 54
1, 219953, Control_c, 0, 64, 47
1, 219956, Note_on_c, 0, 82, 55
1, 219958, Note_on_c, 0, 85, 48
1, 219967, Control_c, 0, 64, 56
1, 219975, Note_on_c, 0, 53, 38
1, 219982, Control_c, 0, 64, 61
1, 219997, Control_c, 0, 64, 64
1, 220012, Control_c, 0, 64, 66
1, 220027, Control_c, 0, 64, 69
1, 220041, Control_c, 0, 64, 72
1, 220048, Note_off_c, 0, 53, 62
1, 220056, Control_c, 0, 64, 75
1, 220057, Note_on_c, 0, 54, 52
1, 220071, Control_c, 0, 64, 77
1, 220076, Note_off_c, 0, 78, 57
1, 220086, Control_c, 0, 64, 78
1, 220100, Note_off_c, 0, 90, 58
1, 220101, Control_c, 0, 64, 79
1, 220105, Note_off_c, 0, 82, 60
1, 220114, Note_off_c, 0, 54, 61
1, 220117, Note_off_c, 0, 85, 61
1, 220135, Note_on_c, 0, 56, 58
1, 220145, Control_c, 0, 64, 79
1, 220189, Control_c, 0, 64, 79
1, 220190, Note_off_c, 0, 56, 60
1, 220204, Note_on_c, 0, 54, 62
1, 220234, Control_c, 0, 64, 77
1, 220248, Control_c, 0, 64, 74
1, 220263, Control_c, 0, 64, 68
1, 220278, Control_c, 0, 64, 19
1, 220287, Note_off_c, 0, 54, 62
1, 220293, Control_c, 0, 64, 0
1, 220296, Note_on_c, 0, 90, 97
1, 220306, Note_on_c, 0, 78, 88
1, 220309, Note_on_c, 0, 85, 83
1, 220311, Note_on_c, 0, 82, 79
1, 220316, Note_on_c, 0, 48, 59
1, 220367, Control_c, 0, 64, 10
1, 220382, Control_c, 0, 64, 64
1, 220397, Control_c, 0, 64, 71
1, 220400, Note_on_c, 0, 49, 62
1, 220411, Note_off_c, 0, 48, 58
1, 220412, Control_c, 0, 64, 78
1, 220421, Note_off_c, 0, 78, 57
1, 220427, Control_c, 0, 64, 83
1, 220441, Control_c, 0, 64, 84
1, 220450, Note_off_c, 0, 82, 59
1, 220456, Note_off_c, 0, 90, 63
1, 220456, Control_c, 0, 64, 85
1, 220477, Note_off_c, 0, 49, 62
1, 220477, Note_off_c, 0, 85, 59
1, 220482, Note_on_c, 0, 51, 71
1, 220552, Note_off_c, 0, 51, 60
1, 220559, Note_on_c, 0, 49, 72
1, 220597, Control_c, 0, 64, 85
1, 220612, Control_c, 0, 64, 83
1, 220627, Control_c, 0, 64, 80
1, 220642, Control_c, 0, 64, 73
1, 220656, Note_on_c, 0, 90, 97
1, 220656, Control_c, 0, 64, 47
1, 220656, Note_off_c, 0, 49, 62
1, 220664, Note_on_c, 0, 78, 88
1, 220670, Note_on_c, 0, 85, 83
1, 220671, Note_on_c, 0, 45, 69
1, 220671, Note_on_c, 0, 82, 77
1, 220671, Control_c, 0, 64, 0
1, 220761, Control_c, 0, 64, 67
1, 220767, Note_on_c, 0, 46, 77
1, 220773, Note_off_c, 0, 45, 65
1, 220776, Control_c, 0, 64, 76
1, 220790, Control_c, 0, 64, 85
1, 220792, Note_off_c, 0, 78, 59
1, 220805, Control_c, 0, 64, 89
1, 220814, Note_off_c, 0, 90, 64
1, 220820, Note_off_c, 0, 82, 62
1, 220820, Control_c, 0, 64, 90
1, 220835, Control_c, 0, 64, 90
1, 220848, Note_off_c, 0, 46, 63
1, 220848, Note_off_c, 0, 85, 60
1, 220854, Note_on_c, 0, 47, 78
1, 220864, Control_c, 0, 64, 91
1, 220924, Control_c, 0, 64, 90
1, 220936, Note_on_c, 0, 46, 78
1, 220939, Note_off_c, 0, 47, 65
1, 220983, Control_c, 0, 64, 89
1, 220997, Control_c, 0, 64, 88
1, 221012, Control_c, 0, 64, 86
1, 221027, Control_c, 0, 64, 81
1, 221043, Control_c, 0, 64, 72
1, 221046, Note_off_c, 0, 46, 57
1, 221058, Control_c, 0, 64, 47
1, 221072, Control_c, 0, 64, 0
1, 221083, Note_on_c, 0, 90, 91
1, 221091, Note_on_c, 0, 42, 77
1, 221091, Note_on_c, 0, 78, 82
1, 221099, Note_on_c, 0, 82, 70
1, 221101, Note_on_c, 0, 85, 73
1, 221176, Control_c, 0, 64, 58
1, 221190, Control_c, 0, 64, 71
1, 221205, Control_c, 0, 64, 82
1, 221206, Note_off_c, 0, 42, 64
1, 221220, Control_c, 0, 64, 91
1, 221235, Control_c, 0, 64, 96
1, 221250, Control_c, 0, 64, 97
1, 221265, Control_c, 0, 64, 98
1, 221314, Note_off_c, 0, 90, 61
1, 221365, Note_off_c, 0, 85, 54
1, 221367, Note_off_c, 0, 82, 58
1, 221403, Note_off_c, 0, 78, 62
1, 221457, Note_on_c, 0, 53, 67
1, 221465, Control_c, 0, 64, 97
1, 221479, Control_c, 0, 64, 96
1, 221494, Control_c, 0, 64, 92
1, 221509, Control_c, 0, 64, 85
1, 221525, Control_c, 0, 64, 72
1, 221532, Note_off_c, 0, 53, 62
1, 221536, Note_on_c, 0, 54, 61
1, 221540, Control_c, 0, 64, 45
1, 221554, Control_c, 0, 64, 0
1, 221594, Note_off_c, 0, 54, 61
1, 221610, Note_on_c, 0, 56, 56
1, 221679, Note_off_c, 0, 56, 60
1, 221706, Note_on_c, 0, 54, 52
1, 221757, Note_off_c, 0, 54, 59
1, 221797, Note_on_c, 0, 53, 45
1, 221872, Note_off_c, 0, 53, 59
1, 221887, Note_on_c, 0, 54, 44
1, 221972, Note_off_c, 0, 54, 56
1, 221995, Note_on_c, 0, 56, 36
1, 222042, Control_c, 0, 67, 8
1, 222057, Control_c, 0, 67, 8
1, 222061, Note_off_c, 0, 56, 55
1, 222072, Control_c, 0, 67, 9
1, 222093, Control_c, 0, 67, 10
1, 222105, Note_on_c, 0, 54, 35
1, 222108, Control_c, 0, 67, 11
1, 222123, Control_c, 0, 67, 14
1, 222138, Control_c, 0, 67, 16
1, 222153, Control_c, 0, 67, 19
1, 222168, Control_c, 0, 67, 22
1, 222183, Control_c, 0, 67, 24
1, 222198, Control_c, 0, 67, 25
1, 222212, Control_c, 0, 67, 27
1, 222227, Control_c, 0, 67, 28
1, 222229, Note_off_c, 0, 54, 41
1, 222234, Note_on_c, 0, 69, 54
1, 222242, Control_c, 0, 67, 31
1, 222243, Note_on_c, 0, 53, 26
1, 222257, Control_c, 0, 67, 35
1, 222272, Control_c, 0, 67, 40
1, 222286, Control_c, 0, 67, 46
1, 222301, Control_c, 0, 64, 49
1, 222301, Control_c, 0, 67, 51
1, 222317, Control_c, 0, 64, 60
1, 222317, Control_c, 0, 67, 59
1, 222332, Control_c, 0, 64, 65
1, 222332, Control_c, 0, 67, 67
1, 222347, Control_c, 0, 64, 67
1, 222347, Control_c, 0, 67, 75
1, 222352, Note_on_c, 0, 54, 39
1, 222361, Control_c, 0, 64, 71
1, 222361, Control_c, 0, 67, 83
1, 222374, Note_off_c, 0, 53, 42
1, 222376, Control_c, 0, 64, 75
1, 222376, Control_c, 0, 67, 92
1, 222391, Control_c, 0, 64, 79
1, 222391, Control_c, 0, 67, 100
1, 222406, Control_c, 0, 64, 81
1, 222406, Control_c, 0, 67, 107
1, 222421, Control_c, 0, 64, 81
1, 222421, Control_c, 0, 67, 113
1, 222436, Control_c, 0, 67, 116
1, 222450, Control_c, 0, 64, 82
1, 222450, Control_c, 0, 67, 118
1, 222465, Control_c, 0, 67, 119
1, 222469, Note_on_c, 0, 56, 33
1, 222480, Control_c, 0, 67, 120
1, 222495, Control_c, 0, 67, 121
1, 222498, Note_off_c, 0, 54, 33
1, 222510, Control_c, 0, 67, 123
1, 222524, Control_c, 0, 67, 123
1, 222539, Control_c, 0, 67, 124
1, 222543, Note_off_c, 0, 56, 37
1, 222554, Control_c, 0, 67, 124
1, 222568, Control_c, 0, 67, 125
1, 222583, Control_c, 0, 64, 81
1, 222583, Control_c, 0, 67, 126
1, 222598, Control_c, 0, 67, 126
1, 222611, Note_on_c, 0, 54, 37
1, 222628, Control_c, 0, 67, 127
1, 222629, Note_on_c, 0, 71, 50
1, 222629, Note_off_c, 0, 69, 49
1, 222657, Control_c, 0, 64, 81
1, 222687, Control_c, 0, 64, 80
1, 222731, Control_c, 0, 64, 80
1, 222746, Control_c, 0, 64, 79
1, 222746, Control_c, 0, 67, 127
1, 222761, Control_c, 0, 64, 78
1, 222776, Control_c, 0, 64, 76
1, 222791, Control_c, 0, 64, 73
1, 222806, Control_c, 0, 64, 68
1, 222809, Note_on_c, 0, 73, 46
1, 222821, Control_c, 0, 64, 61
1, 222842, Note_on_c, 0, 42, 32
1, 222842, Control_c, 0, 64, 43
1, 222843, Note_off_c, 0, 71, 35
1, 222857, Control_c, 0, 64, 10
1, 222872, Control_c, 0, 64, 0
1, 222961, Control_c, 0, 64, 25
1, 222976, Control_c, 0, 64, 61
1, 222991, Control_c, 0, 64, 66
1, 223005, Control_c, 0, 64, 68
1, 223020, Control_c, 0, 64, 71
1, 223032, Note_off_c, 0, 42, 50
1, 223035, Control_c, 0, 64, 73
1, 223050, Control_c, 0, 64, 75
1, 223065, Control_c, 0, 64, 77
1, 223091, Note_off_c, 0, 54, 9
1, 223094, Control_c, 0, 64, 77
1, 223200, Note_on_c, 0, 54, 34
1, 223391, Control_c, 0, 64, 77
1, 223416, Note_on_c, 0, 66, 53
1, 223436, Control_c, 0, 67, 127
1, 223441, Note_on_c, 0, 57, 38
1, 223441, Note_on_c, 0, 61, 34
1, 223450, Note_off_c, 0, 54, 31
1, 223451, Control_c, 0, 67, 126
1, 223465, Control_c, 0, 67, 125
1, 223480, Control_c, 0, 67, 123
1, 223495, Control_c, 0, 67, 121
1, 223510, Control_c, 0, 67, 119
1, 223525, Control_c, 0, 67, 114
1, 223539, Control_c, 0, 64, 76
1, 223539, Control_c, 0, 67, 109
1, 223554, Control_c, 0, 67, 106
1, 223569, Control_c, 0, 67, 103
1, 223591, Control_c, 0, 67, 100
1, 223606, Control_c, 0, 67, 95
1, 223621, Control_c, 0, 67, 88
1, 223625, Note_on_c, 0, 54, 40
1, 223628, Note_off_c, 0, 57, 53
1, 223636, Control_c, 0, 67, 74
1, 223640, Note_off_c, 0, 73, 32
1, 223651, Control_c, 0, 67, 58
1, 223656, Note_off_c, 0, 61, 38
1, 223665, Control_c, 0, 67, 41
1, 223680, Control_c, 0, 67, 24
1, 223695, Control_c, 0, 67, 13
1, 223709, Control_c, 0, 67, 9
1, 223724, Control_c, 0, 67, 8
1, 223754, Control_c, 0, 67, 8
1, 223785, Note_on_c, 0, 65, 60
1, 223791, Note_off_c, 0, 66, 58
1, 223798, Control_c, 0, 64, 75
1, 223804, Note_on_c, 0, 61, 35
1, 223810, Note_off_c, 0, 54, 37
1, 223813, Control_c, 0, 64, 72
1, 223819, Note_on_c, 0, 59, 36
1, 223828, Control_c, 0, 64, 65
1, 223843, Control_c, 0, 64, 33
1, 223843, Control_c, 0, 67, 8
1, 223858, Control_c, 0, 64, 0
1, 223858, Control_c, 0, 67, 9
1, 223873, Control_c, 0, 67, 10
1, 223888, Control_c, 0, 64, 49
1, 223888, Control_c, 0, 67, 10
1, 223903, Control_c, 0, 64, 61
1, 223903, Control_c, 0, 67, 11
1, 223918, Control_c, 0, 64, 64
1, 223918, Control_c, 0, 67, 12
1, 223933, Control_c, 0, 64, 67
1, 223933, Control_c, 0, 67, 13
1, 223948, Control_c, 0, 64, 69
1, 223948, Control_c, 0, 67, 14
1, 223950, Note_off_c, 0, 59, 54
1, 223959, Note_on_c, 0, 54, 37
1, 223962, Control_c, 0, 64, 72
1, 223962, Control_c, 0, 67, 15
1, 223966, Note_off_c, 0, 61, 37
1, 223977, Control_c, 0, 64, 73
1, 223977, Control_c, 0, 67, 16
1, 223992, Control_c, 0, 64, 74
1, 223992, Control_c, 0, 67, 17
1, 224007, Control_c, 0, 67, 18
1, 224022, Control_c, 0, 67, 19
1, 224037, Control_c, 0, 67, 21
1, 224052, Control_c, 0, 67, 22
1, 224067, Control_c, 0, 67, 25
1, 224081, Control_c, 0, 67, 28
1, 224096, Control_c, 0, 64, 73
1, 224096, Control_c, 0, 67, 30
1, 224111, Control_c, 0, 64, 72
1, 224111, Control_c, 0, 67, 33
1, 224126, Control_c, 0, 64, 70
1, 224126, Control_c, 0, 67, 37
1, 224140, Control_c, 0, 64, 67
1, 224140, Control_c, 0, 67, 39
1, 224150, Note_on_c, 0, 66, 58
1, 224155, Control_c, 0, 64, 62
1, 224155, Control_c, 0, 67, 42
1, 224157, Note_off_c, 0, 65, 60
1, 224165, Note_off_c, 0, 54, 35
1, 224170, Control_c, 0, 64, 45
1, 224170, Control_c, 0, 67, 44
1, 224180, Note_on_c, 0, 61, 33
1, 224185, Control_c, 0, 64, 0
1, 224185, Control_c, 0, 67, 49
1, 224186, Note_on_c, 0, 57, 34
1, 224200, Control_c, 0, 67, 55
1, 224214, Control_c, 0, 67, 63
1, 224229, Control_c, 0, 67, 72
1, 224244, Control_c, 0, 67, 80
1, 224259, Control_c, 0, 67, 87
1, 224274, Control_c, 0, 67, 93
1, 224288, Control_c, 0, 64, 62
1, 224288, Control_c, 0, 67, 99
1, 224303, Control_c, 0, 64, 66
1, 224303, Control_c, 0, 67, 103
1, 224318, Control_c, 0, 64, 69
1, 224318, Control_c, 0, 67, 107
1, 224340, Control_c, 0, 64, 72
1, 224340, Control_c, 0, 67, 108
1, 224348, Note_off_c, 0, 61, 43
1, 224355, Control_c, 0, 64, 75
1, 224358, Note_off_c, 0, 57, 35
1, 224368, Note_on_c, 0, 54, 34
1, 224370, Control_c, 0, 64, 76
1, 224382, Note_off_c, 0, 66, 63
1, 224385, Control_c, 0, 64, 77
1, 224429, Control_c, 0, 67, 108
1, 224466, Note_off_c, 0, 54, 38
1, 224503, Control_c, 0, 67, 107
1, 224636, Control_c, 0, 64, 76
1, 224669, Note_on_c, 0, 74, 52
1, 224694, Note_on_c, 0, 62, 36
1, 224696, Control_c, 0, 64, 76
1, 224696, Control_c, 0, 67, 108
1, 224701, Note_on_c, 0, 47, 33
1, 224711, Control_c, 0, 64, 75
1, 224726, Note_on_c, 0, 66, 25
1, 224726, Control_c, 0, 64, 74
1, 224741, Control_c, 0, 64, 73
1, 224755, Control_c, 0, 64, 70
1, 224770, Control_c, 0, 64, 66
1, 224786, Control_c, 0, 64, 57
1, 224801, Control_c, 0, 64, 0
1, 224949, Control_c, 0, 67, 107
1, 224964, Control_c, 0, 64, 48
1, 224964, Control_c, 0, 67, 107
1, 224970, Note_on_c, 0, 54, 23
1, 224979, Control_c, 0, 64, 63
1, 224979, Control_c, 0, 67, 106
1, 224994, Control_c, 0, 64, 66
1, 224994, Control_c, 0, 67, 106
1, 225009, Control_c, 0, 64, 68
1, 225024, Control_c, 0, 64, 71
1, 225024, Control_c, 0, 67, 105
1, 225038, Control_c, 0, 64, 75
1, 225038, Control_c, 0, 67, 104
1, 225053, Control_c, 0, 64, 78
1, 225068, Control_c, 0, 64, 79
1, 225068, Control_c, 0, 67, 104
1, 225090, Control_c, 0, 64, 79
1, 225105, Control_c, 0, 64, 80
1, 225119, Control_c, 0, 64, 81
1, 225145, Note_off_c, 0, 54, 38
1, 225149, Control_c, 0, 64, 81
1, 225149, Control_c, 0, 67, 104
1, 225173, Note_on_c, 0, 59, 29
1, 225193, Control_c, 0, 67, 105
1, 225208, Control_c, 0, 67, 105
1, 225223, Control_c, 0, 67, 106
1, 225238, Control_c, 0, 67, 106
1, 225253, Control_c, 0, 67, 107
1, 225268, Control_c, 0, 67, 107
1, 225283, Control_c, 0, 67, 108
1, 225312, Control_c, 0, 64, 81
1, 225312, Control_c, 0, 67, 108
1, 225316, Note_on_c, 0, 54, 43
1, 225320, Note_off_c, 0, 59, 38
1, 225327, Control_c, 0, 67, 109
1, 225342, Control_c, 0, 67, 110
1, 225357, Control_c, 0, 67, 110
1, 225371, Control_c, 0, 67, 112
1, 225386, Control_c, 0, 67, 116
1, 225401, Control_c, 0, 67, 121
1, 225416, Control_c, 0, 64, 80
1, 225416, Control_c, 0, 67, 124
1, 225420, Note_off_c, 0, 62, 33
1, 225426, Note_off_c, 0, 74, 50
1, 225431, Control_c, 0, 67, 127
1, 225450, Note_off_c, 0, 66, 35
1, 225460, Control_c, 0, 64, 80
1, 225489, Control_c, 0, 64, 79
1, 225490, Note_off_c, 0, 54, 46
1, 225516, Note_on_c, 0, 59, 39
1, 225535, Control_c, 0, 64, 79
1, 225594, Control_c, 0, 64, 78
1, 225644, Note_on_c, 0, 54, 46
1, 225662, Note_off_c, 0, 59, 35
1, 225666, Note_off_c, 0, 47, 43
1, 225683, Control_c, 0, 64, 78
1, 225816, Control_c, 0, 64, 77
1, 225818, Note_off_c, 0, 54, 36
1, 225834, Note_on_c, 0, 74, 63
1, 225835, Note_on_c, 0, 57, 54
1, 225839, Control_c, 0, 64, 73
1, 225849, Note_on_c, 0, 45, 50
1, 225854, Control_c, 0, 64, 65
1, 225855, Note_on_c, 0, 62, 41
1, 225868, Control_c, 0, 64, 0
1, 225942, Control_c, 0, 64, 57
1, 225957, Control_c, 0, 64, 65
1, 225972, Control_c, 0, 64, 69
1, 225986, Control_c, 0, 64, 73
1, 225992, Note_off_c, 0, 57, 61
1, 225997, Note_off_c, 0, 45, 63
1, 226001, Note_off_c, 0, 62, 50
1, 226001, Control_c, 0, 64, 76
1, 226016, Note_on_c, 0, 54, 50
1, 226016, Control_c, 0, 64, 78
1, 226031, Control_c, 0, 64, 78
1, 226062, Note_off_c, 0, 74, 64
1, 226111, Note_off_c, 0, 54, 44
1, 226120, Control_c, 0, 64, 78
1, 226135, Control_c, 0, 64, 77
1, 226150, Control_c, 0, 64, 76
1, 226165, Control_c, 0, 64, 73
1, 226180, Control_c, 0, 64, 68
1, 226189, Note_on_c, 0, 44, 46
1, 226194, Note_on_c, 0, 56, 42
1, 226194, Control_c, 0, 64, 48
1, 226200, Note_on_c, 0, 76, 53
1, 226209, Control_c, 0, 64, 0
1, 226210, Note_on_c, 0, 71, 49
1, 226280, Note_off_c, 0, 76, 62
1, 226284, Note_on_c, 0, 74, 55
1, 226297, Control_c, 0, 64, 59
1, 226313, Control_c, 0, 64, 65
1, 226328, Control_c, 0, 64, 67
1, 226328, Control_c, 0, 67, 115
1, 226338, Note_off_c, 0, 44, 54
1, 226343, Control_c, 0, 64, 69
1, 226343, Control_c, 0, 67, 103
1, 226344, Note_on_c, 0, 52, 50
1, 226345, Note_off_c, 0, 56, 35
1, 226354, Note_off_c, 0, 74, 64
1, 226357, Control_c, 0, 64, 70
1, 226357, Control_c, 0, 67, 90
1, 226365, Note_on_c, 0, 76, 59
1, 226372, Control_c, 0, 64, 72
1, 226372, Control_c, 0, 67, 79
1, 226387, Control_c, 0, 64, 73
1, 226387, Control_c, 0, 67, 64
1, 226398, Note_off_c, 0, 71, 48
1, 226401, Control_c, 0, 64, 73
1, 226401, Control_c, 0, 67, 48
1, 226416, Control_c, 0, 67, 31
1, 226418, Note_off_c, 0, 76, 65
1, 226420, Note_off_c, 0, 52, 60
1, 226429, Note_on_c, 0, 74, 52
1, 226431, Control_c, 0, 67, 16
1, 226446, Control_c, 0, 67, 0
1, 226487, Note_off_c, 0, 74, 65
1, 226490, Note_on_c, 0, 76, 66
1, 226505, Control_c, 0, 64, 73
1, 226526, Note_on_c, 0, 42, 44
1, 226539, Note_off_c, 0, 76, 64
1, 226542, Note_on_c, 0, 74, 54
1, 226550, Control_c, 0, 64, 72
1, 226587, Control_c, 0, 64, 72
1, 226597, Note_off_c, 0, 74, 66
1, 226598, Note_on_c, 0, 76, 63
1, 226616, Control_c, 0, 64, 71
1, 226646, Control_c, 0, 64, 71
1, 226655, Note_off_c, 0, 76, 66
1, 226659, Note_on_c, 0, 74, 67
1, 226661, Control_c, 0, 64, 70
1, 226676, Control_c, 0, 64, 70
1, 226690, Control_c, 0, 64, 68
1, 226705, Note_off_c, 0, 74, 65
1, 226705, Control_c, 0, 64, 67
1, 226714, Note_on_c, 0, 73, 68
1, 226720, Control_c, 0, 64, 67
1, 226727, Note_on_c, 0, 52, 45
1, 226735, Control_c, 0, 64, 66
1, 226749, Control_c, 0, 64, 66
1, 226759, Note_off_c, 0, 42, 31
1, 226764, Control_c, 0, 64, 65
1, 226777, Note_off_c, 0, 73, 58
1, 226779, Control_c, 0, 64, 64
1, 226787, Note_off_c, 0, 52, 40
1, 226791, Note_on_c, 0, 74, 75
1, 226794, Control_c, 0, 64, 64
1, 226809, Control_c, 0, 64, 63
1, 226824, Control_c, 0, 64, 62
1, 226839, Control_c, 0, 64, 61
1, 226854, Control_c, 0, 64, 57
1, 226869, Control_c, 0, 64, 42
1, 226882, Note_off_c, 0, 74, 62
1, 226883, Control_c, 0, 64, 0
1, 226903, Note_on_c, 0, 76, 74
1, 226919, Note_on_c, 0, 68, 61
1, 226920, Note_on_c, 0, 40, 50
1, 226987, Control_c, 0, 64, 63
1, 227001, Control_c, 0, 64, 69
1, 227016, Control_c, 0, 64, 74
1, 227031, Control_c, 0, 64, 78
1, 227046, Control_c, 0, 64, 79
1, 227051, Note_off_c, 0, 68, 48
1, 227058, Note_off_c, 0, 40, 52
1, 227076, Control_c, 0, 64, 80
1, 227092, Note_on_c, 0, 52, 48
1, 227121, Control_c, 0, 67, 9
1, 227136, Control_c, 0, 67, 11
1, 227147, Note_off_c, 0, 52, 58
1, 227151, Control_c, 0, 67, 13
1, 227165, Control_c, 0, 67, 15
1, 227180, Control_c, 0, 67, 18
1, 227195, Control_c, 0, 64, 79
1, 227195, Control_c, 0, 67, 22
1, 227210, Control_c, 0, 67, 26
1, 227224, Control_c, 0, 64, 78
1, 227224, Control_c, 0, 67, 30
1, 227239, Control_c, 0, 64, 76
1, 227239, Control_c, 0, 67, 33
1, 227254, Control_c, 0, 64, 69
1, 227254, Control_c, 0, 67, 36
1, 227269, Control_c, 0, 64, 51
1, 227269, Control_c, 0, 67, 40
1, 227274, Note_on_c, 0, 64, 57
1, 227275, Note_on_c, 0, 44, 48
1, 227284, Control_c, 0, 64, 0
1, 227284, Control_c, 0, 67, 43
1, 227298, Control_c, 0, 67, 46
1, 227313, Control_c, 0, 67, 49
1, 227336, Control_c, 0, 67, 52
1, 227351, Control_c, 0, 67, 55
1, 227365, Control_c, 0, 67, 58
1, 227380, Control_c, 0, 64, 52
1, 227380, Control_c, 0, 67, 62
1, 227395, Control_c, 0, 64, 66
1, 227395, Control_c, 0, 67, 65
1, 227410, Control_c, 0, 64, 72
1, 227410, Control_c, 0, 67, 68
1, 227417, Note_on_c, 0, 71, 58
1, 227420, Note_off_c, 0, 76, 9
1, 227425, Control_c, 0, 64, 77
1, 227425, Control_c, 0, 67, 72
1, 227439, Control_c, 0, 64, 80
1, 227439, Control_c, 0, 67, 74
1, 227441, Note_on_c, 0, 56, 49
1, 227448, Note_off_c, 0, 64, 36
1, 227454, Control_c, 0, 64, 81
1, 227454, Control_c, 0, 67, 77
1, 227469, Control_c, 0, 67, 81
1, 227481, Note_off_c, 0, 56, 62
1, 227483, Note_off_c, 0, 71, 60
1, 227484, Control_c, 0, 67, 83
1, 227499, Control_c, 0, 67, 85
1, 227501, Note_off_c, 0, 44, 39
1, 227513, Control_c, 0, 67, 86
1, 227528, Control_c, 0, 67, 87
1, 227543, Control_c, 0, 67, 87
1, 227557, Control_c, 0, 67, 88
1, 227572, Control_c, 0, 67, 91
1, 227587, Control_c, 0, 64, 79
1, 227587, Control_c, 0, 67, 97
1, 227602, Control_c, 0, 64, 73
1, 227602, Control_c, 0, 67, 107
1, 227612, Note_on_c, 0, 73, 58
1, 227617, Control_c, 0, 64, 62
1, 227617, Control_c, 0, 67, 121
1, 227626, Note_on_c, 0, 57, 37
1, 227632, Control_c, 0, 64, 0
1, 227632, Control_c, 0, 67, 127
1, 227636, Note_on_c, 0, 45, 31
1, 227662, Note_off_c, 0, 73, 59
1, 227677, Note_off_c, 0, 57, 42
1, 227698, Note_on_c, 0, 76, 47
1, 227703, Note_off_c, 0, 45, 47
1, 227745, Note_off_c, 0, 76, 51
1, 227781, Note_on_c, 0, 73, 51
1, 227820, Note_off_c, 0, 73, 63
1, 227873, Note_on_c, 0, 76, 30
1, 227907, Note_off_c, 0, 76, 53
1, 227928, Note_on_c, 0, 73, 55
1, 227981, Note_off_c, 0, 73, 57
1, 228013, Note_on_c, 0, 76, 48
1, 228070, Note_off_c, 0, 76, 55
1, 228115, Note_on_c, 0, 73, 47
1, 228155, Note_off_c, 0, 73, 56
1, 228203, Note_on_c, 0, 76, 43
1, 228240, Note_off_c, 0, 76, 54
1, 228274, Note_on_c, 0, 68, 58
1, 228276, Note_on_c, 0, 73, 50
1, 228322, Note_off_c, 0, 73, 58
1, 228359, Note_on_c, 0, 76, 51
1, 228380, Note_off_c, 0, 68, 62
1, 228413, Note_off_c, 0, 76, 52
1, 228452, Note_on_c, 0, 73, 43
1, 228492, Note_off_c, 0, 73, 51
1, 228530, Note_on_c, 0, 76, 37
1, 228584, Note_off_c, 0, 76, 47
1, 228607, Note_on_c, 0, 73, 53
1, 228648, Note_off_c, 0, 73, 61
1, 228682, Note_on_c, 0, 76, 37
1, 228737, Note_off_c, 0, 76, 50
1, 228760, Note_on_c, 0, 73, 54
1, 228803, Note_off_c, 0, 73, 60
1, 228842, Note_on_c, 0, 76, 41
1, 228907, Note_off_c, 0, 76, 55
1, 228928, Note_on_c, 0, 67, 57
1, 228929, Note_on_c, 0, 73, 52
1, 228937, Control_c, 0, 64, 56
1, 228952, Control_c, 0, 64, 65
1, 228967, Control_c, 0, 64, 69
1, 228971, Note_off_c, 0, 67, 63
1, 228973, Note_off_c, 0, 73, 58
1, 228982, Control_c, 0, 64, 75
1, 228997, Control_c, 0, 64, 80
1, 229012, Control_c, 0, 64, 83
1, 229018, Note_on_c, 0, 75, 48
1, 229027, Control_c, 0, 64, 84
1, 229042, Control_c, 0, 64, 84
1, 229069, Note_off_c, 0, 75, 59
1, 229095, Note_on_c, 0, 73, 46
1, 229116, Control_c, 0, 64, 84
1, 229130, Control_c, 0, 64, 83
1, 229145, Control_c, 0, 64, 82
1, 229160, Control_c, 0, 64, 81
1, 229167, Note_off_c, 0, 73, 45
1, 229175, Note_on_c, 0, 75, 49
1, 229175, Control_c, 0, 64, 80
1, 229190, Control_c, 0, 64, 79
1, 229204, Control_c, 0, 64, 77
1, 229219, Control_c, 0, 64, 75
1, 229230, Note_off_c, 0, 75, 62
1, 229234, Control_c, 0, 64, 73
1, 229249, Control_c, 0, 64, 70
1, 229253, Note_on_c, 0, 71, 58
1, 229253, Note_on_c, 0, 47, 53
1, 229264, Control_c, 0, 64, 65
1, 229278, Control_c, 0, 64, 57
1, 229293, Control_c, 0, 64, 27
1, 229305, Note_off_c, 0, 71, 48
1, 229308, Control_c, 0, 64, 0
1, 229341, Note_on_c, 0, 75, 40
1, 229396, Note_off_c, 0, 75, 63
1, 229418, Note_on_c, 0, 71, 48
1, 229456, Note_off_c, 0, 47, 63
1, 229465, Note_off_c, 0, 71, 58
1, 229465, Note_on_c, 0, 49, 62
1, 229471, Control_c, 0, 67, 125
1, 229486, Note_on_c, 0, 75, 51
1, 229486, Control_c, 0, 67, 113
1, 229501, Control_c, 0, 67, 103
1, 229516, Control_c, 0, 67, 89
1, 229531, Control_c, 0, 67, 70
1, 229540, Note_off_c, 0, 75, 61
1, 229541, Note_off_c, 0, 49, 61
1, 229546, Control_c, 0, 67, 46
1, 229557, Note_on_c, 0, 51, 66
1, 229560, Control_c, 0, 67, 17
1, 229561, Note_on_c, 0, 71, 65
1, 229583, Control_c, 0, 67, 0
1, 229636, Note_off_c, 0, 71, 58
1, 229649, Note_on_c, 0, 75, 68
1, 229688, Note_off_c, 0, 75, 62
1, 229727, Note_on_c, 0, 71, 46
1, 229788, Note_off_c, 0, 71, 47
1, 229822, Note_on_c, 0, 75, 62
1, 229879, Note_off_c, 0, 75, 64
1, 229894, Control_c, 0, 64, 64
1, 229902, Note_on_c, 0, 83, 93
1, 229909, Control_c, 0, 64, 73
1, 229911, Note_on_c, 0, 71, 78
1, 229915, Note_on_c, 0, 44, 62
1, 229924, Control_c, 0, 64, 82
1, 229939, Control_c, 0, 64, 89
1, 229953, Control_c, 0, 64, 92
1, 229964, Note_off_c, 0, 51, 56
1, 229968, Control_c, 0, 64, 94
1, 229983, Control_c, 0, 64, 97
1, 229986, Note_off_c, 0, 44, 64
1, 229995, Note_off_c, 0, 71, 59
1, 229998, Control_c, 0, 64, 99
1, 230005, Note_on_c, 0, 75, 71
1, 230013, Control_c, 0, 64, 100
1, 230039, Note_off_c, 0, 83, 62
1, 230094, Note_off_c, 0, 75, 64
1, 230103, Note_on_c, 0, 71, 64
1, 230131, Note_off_c, 0, 71, 64
1, 230160, Control_c, 0, 64, 100
1, 230167, Note_on_c, 0, 85, 90
1, 230175, Control_c, 0, 64, 97
1, 230189, Control_c, 0, 64, 88
1, 230204, Control_c, 0, 64, 73
1, 230210, Note_off_c, 0, 85, 66
1, 230219, Control_c, 0, 64, 0
1, 230249, Control_c, 0, 64, 51
1, 230258, Note_on_c, 0, 87, 103
1, 230260, Note_on_c, 0, 75, 96
1, 230264, Control_c, 0, 64, 68
1, 230268, Note_on_c, 0, 56, 63
1, 230275, Note_on_c, 0, 59, 68
1, 230278, Control_c, 0, 64, 76
1, 230283, Note_off_c, 0, 75, 69
1, 230294, Control_c, 0, 64, 84
1, 230297, Note_on_c, 0, 85, 34
1, 230298, Note_off_c, 0, 85, 127
1, 230300, Note_off_c, 0, 87, 70
1, 230309, Control_c, 0, 64, 89
1, 230331, Control_c, 0, 64, 90
1, 230346, Control_c, 0, 64, 91
1, 230347, Note_off_c, 0, 56, 59
1, 230366, Note_off_c, 0, 59, 59
1, 230378, Note_on_c, 0, 63, 64
1, 230456, Note_off_c, 0, 63, 63
1, 230457, Note_on_c, 0, 56, 67
1, 230473, Note_on_c, 0, 59, 65
1, 230520, Note_off_c, 0, 56, 60
1, 230531, Note_on_c, 0, 63, 65
1, 230544, Note_off_c, 0, 59, 60
1, 230568, Control_c, 0, 64, 90
1, 230583, Control_c, 0, 64, 89
1, 230598, Control_c, 0, 64, 83
1, 230605, Note_on_c, 0, 80, 101
1, 230608, Note_on_c, 0, 68, 101
1, 230613, Control_c, 0, 64, 67
1, 230613, Note_off_c, 0, 63, 63
1, 230627, Note_on_c, 0, 59, 67
1, 230628, Note_on_c, 0, 56, 68
1, 230628, Control_c, 0, 64, 0
1, 230672, Control_c, 0, 64, 58
1, 230684, Note_off_c, 0, 56, 62
1, 230687, Control_c, 0, 64, 68
1, 230692, Note_on_c, 0, 63, 64
1, 230701, Control_c, 0, 64, 77
1, 230703, Note_off_c, 0, 59, 62
1, 230716, Control_c, 0, 64, 85
1, 230731, Control_c, 0, 64, 89
1, 230746, Control_c, 0, 64, 90
1, 230761, Control_c, 0, 64, 91
1, 230780, Note_off_c, 0, 63, 63
1, 230786, Note_on_c, 0, 56, 63
1, 230789, Note_on_c, 0, 59, 67
1, 230844, Note_off_c, 0, 68, 60
1, 230851, Note_off_c, 0, 56, 60
1, 230852, Note_on_c, 0, 63, 67
1, 230863, Note_off_c, 0, 59, 62
1, 230870, Note_off_c, 0, 80, 61
1, 230924, Control_c, 0, 64, 90
1, 230939, Control_c, 0, 64, 86
1, 230942, Note_on_c, 0, 67, 95
1, 230942, Note_on_c, 0, 79, 97
1, 230948, Note_off_c, 0, 63, 62
1, 230951, Note_on_c, 0, 61, 79
1, 230954, Control_c, 0, 64, 74
1, 230960, Note_on_c, 0, 58, 71
1, 230969, Control_c, 0, 64, 0
1, 231027, Note_on_c, 0, 63, 70
1, 231027, Note_off_c, 0, 58, 65
1, 231028, Control_c, 0, 64, 63
1, 231032, Note_off_c, 0, 61, 63
1, 231043, Control_c, 0, 64, 70
1, 231057, Control_c, 0, 64, 79
1, 231080, Control_c, 0, 64, 88
1, 231095, Control_c, 0, 64, 91
1, 231125, Control_c, 0, 64, 91
1, 231125, Note_on_c, 0, 61, 67
1, 231125, Note_off_c, 0, 67, 57
1, 231130, Note_on_c, 0, 58, 70
1, 231130, Note_off_c, 0, 63, 60
1, 231157, Note_off_c, 0, 79, 44
1, 231200, Note_on_c, 0, 63, 67
1, 231207, Note_off_c, 0, 58, 61
1, 231218, Note_off_c, 0, 61, 62
1, 231244, Control_c, 0, 64, 91
1, 231259, Control_c, 0, 64, 90
1, 231273, Control_c, 0, 64, 84
1, 231280, Note_on_c, 0, 80, 98
1, 231283, Note_on_c, 0, 68, 94
1, 231283, Note_off_c, 0, 63, 64
1, 231288, Control_c, 0, 64, 67
1, 231292, Note_on_c, 0, 56, 66
1, 231293, Note_on_c, 0, 59, 61
1, 231303, Control_c, 0, 64, 0
1, 231353, Note_off_c, 0, 56, 57
1, 231360, Note_on_c, 0, 63, 63
1, 231362, Control_c, 0, 64, 65
1, 231364, Note_off_c, 0, 59, 63
1, 231377, Control_c, 0, 64, 78
1, 231392, Control_c, 0, 64, 91
1, 231397, Note_off_c, 0, 68, 59
1, 231406, Control_c, 0, 64, 99
1, 231421, Control_c, 0, 64, 101
1, 231434, Note_off_c, 0, 63, 63
1, 231441, Note_off_c, 0, 80, 62
1, 231447, Note_on_c, 0, 56, 50
1, 231450, Note_on_c, 0, 59, 59
1, 231466, Control_c, 0, 67, 12
1, 231480, Control_c, 0, 67, 22
1, 231495, Control_c, 0, 67, 37
1, 231510, Note_on_c, 0, 63, 56
1, 231510, Control_c, 0, 67, 59
1, 231512, Note_off_c, 0, 56, 49
1, 231517, Note_off_c, 0, 59, 60
1, 231525, Control_c, 0, 67, 80
1, 231540, Control_c, 0, 67, 103
1, 231551, Note_off_c, 0, 63, 63
1, 231555, Control_c, 0, 67, 126
1, 231570, Control_c, 0, 64, 99
1, 231570, Control_c, 0, 67, 127
1, 231584, Control_c, 0, 64, 95
1, 231599, Control_c, 0, 64, 88
1, 231605, Note_on_c, 0, 80, 63
1, 231614, Control_c, 0, 64, 76
1, 231629, Control_c, 0, 64, 56
1, 231644, Control_c, 0, 64, 0
1, 231644, Note_on_c, 0, 62, 33
1, 231654, Note_on_c, 0, 65, 45
1, 231671, Note_off_c, 0, 80, 63
1, 231689, Note_on_c, 0, 83, 53
1, 231764, Note_off_c, 0, 65, 34
1, 231766, Note_off_c, 0, 83, 50
1, 231777, Note_on_c, 0, 82, 54
1, 231794, Note_off_c, 0, 62, 40
1, 231840, Note_off_c, 0, 82, 58
1, 231850, Note_on_c, 0, 80, 56
1, 231876, Note_off_c, 0, 80, 61
1, 231950, Note_on_c, 0, 80, 58
1, 232000, Note_off_c, 0, 80, 59
1, 232018, Note_on_c, 0, 83, 54
1, 232092, Note_off_c, 0, 83, 52
1, 232099, Note_on_c, 0, 82, 49
1, 232151, Note_off_c, 0, 82, 61
1, 232163, Note_on_c, 0, 80, 51
1, 232186, Note_off_c, 0, 80, 60
1, 232242, Note_on_c, 0, 80, 59
1, 232292, Note_off_c, 0, 80, 56
1, 232336, Note_on_c, 0, 83, 40
1, 232393, Note_on_c, 0, 82, 49
1, 232407, Note_off_c, 0, 83, 36
1, 232452, Control_c, 0, 64, 50
1, 232452, Note_off_c, 0, 82, 59
1, 232466, Note_on_c, 0, 80, 56
1, 232466, Control_c, 0, 64, 59
1, 232481, Control_c, 0, 64, 63
1, 232496, Control_c, 0, 64, 65
1, 232498, Note_off_c, 0, 80, 58
1, 232511, Control_c, 0, 64, 67
1, 232526, Control_c, 0, 64, 69
1, 232541, Control_c, 0, 64, 72
1, 232549, Note_on_c, 0, 65, 53
1, 232555, Control_c, 0, 64, 76
1, 232572, Note_on_c, 0, 62, 40
1, 232577, Control_c, 0, 64, 79
1, 232592, Control_c, 0, 64, 81
1, 232597, Note_on_c, 0, 80, 59
1, 232607, Control_c, 0, 64, 82
1, 232622, Control_c, 0, 64, 83
1, 232635, Note_off_c, 0, 62, 56
1, 232643, Note_off_c, 0, 80, 54
1, 232652, Control_c, 0, 64, 83
1, 232675, Note_on_c, 0, 83, 35
1, 232690, Note_off_c, 0, 65, 58
1, 232726, Control_c, 0, 64, 84
1, 232771, Note_on_c, 0, 82, 45
1, 232796, Note_on_c, 0, 66, 64
1, 232800, Note_off_c, 0, 83, 31
1, 232803, Note_off_c, 0, 82, 52
1, 232810, Note_on_c, 0, 80, 61
1, 232831, Note_off_c, 0, 80, 62
1, 232831, Control_c, 0, 64, 83
1, 232838, Note_off_c, 0, 66, 62
1, 232845, Control_c, 0, 64, 82
1, 232860, Control_c, 0, 64, 78
1, 232875, Control_c, 0, 64, 67
1, 232887, Note_on_c, 0, 68, 68
1, 232890, Control_c, 0, 64, 0
1, 232902, Note_on_c, 0, 62, 36
1, 232910, Note_on_c, 0, 80, 64
1, 232913, Note_on_c, 0, 65, 54
1, 232987, Note_off_c, 0, 80, 57
1, 232998, Note_off_c, 0, 65, 50
1, 233008, Note_on_c, 0, 83, 38
1, 233012, Note_off_c, 0, 62, 55
1, 233033, Note_off_c, 0, 68, 61
1, 233057, Note_on_c, 0, 82, 43
1, 233076, Note_off_c, 0, 83, 34
1, 233120, Note_on_c, 0, 80, 49
1, 233123, Note_off_c, 0, 82, 55
1, 233185, Note_off_c, 0, 80, 60
1, 233210, Note_on_c, 0, 83, 46
1, 233298, Note_on_c, 0, 80, 50
1, 233299, Note_off_c, 0, 83, 50
1, 233357, Note_off_c, 0, 80, 55
1, 233367, Note_on_c, 0, 78, 44
1, 233432, Note_off_c, 0, 78, 55
1, 233442, Note_on_c, 0, 77, 49
1, 233531, Note_off_c, 0, 77, 49
1, 233534, Note_on_c, 0, 83, 43
1, 233597, Note_on_c, 0, 80, 48
1, 233600, Note_off_c, 0, 83, 49
1, 233665, Note_off_c, 0, 80, 51
1, 233666, Note_on_c, 0, 78, 48
1, 233739, Note_on_c, 0, 77, 59
1, 233740, Note_off_c, 0, 78, 47
1, 233813, Note_off_c, 0, 77, 47
1, 233836, Note_on_c, 0, 65, 39
1, 233839, Note_on_c, 0, 82, 54
1, 233880, Note_on_c, 0, 62, 18
1, 233918, Control_c, 0, 64, 56
1, 233920, Note_on_c, 0, 80, 56
1, 233924, Note_off_c, 0, 82, 57
1, 233933, Control_c, 0, 64, 64
1, 233948, Control_c, 0, 64, 68
1, 233963, Control_c, 0, 64, 72
1, 233978, Control_c, 0, 64, 75
1, 233992, Control_c, 0, 64, 78
1, 233998, Note_off_c, 0, 80, 59
1, 234003, Note_on_c, 0, 78, 58
1, 234004, Note_off_c, 0, 65, 52
1, 234052, Control_c, 0, 64, 76
1, 234053, Note_off_c, 0, 62, 37
1, 234058, Note_off_c, 0, 78, 59
1, 234059, Note_on_c, 0, 70, 58
1, 234074, Control_c, 0, 64, 73
1, 234079, Note_on_c, 0, 77, 63
1, 234088, Control_c, 0, 64, 67
1, 234103, Control_c, 0, 64, 43
1, 234118, Control_c, 0, 64, 0
1, 234132, Note_off_c, 0, 77, 43
1, 234133, Control_c, 0, 67, 126
1, 234134, Note_off_c, 0, 70, 59
1, 234148, Control_c, 0, 67, 116
1, 234153, Note_on_c, 0, 66, 58
1, 234160, Note_on_c, 0, 78, 75
1, 234163, Control_c, 0, 67, 107
1, 234178, Control_c, 0, 67, 99
1, 234191, Note_on_c, 0, 63, 40
1, 234192, Control_c, 0, 67, 91
1, 234207, Control_c, 0, 67, 85
1, 234221, Note_off_c, 0, 78, 62
1, 234222, Control_c, 0, 67, 83
1, 234229, Note_off_c, 0, 66, 65
1, 234236, Note_on_c, 0, 82, 67
1, 234236, Note_off_c, 0, 63, 62
1, 234237, Control_c, 0, 67, 84
1, 234251, Control_c, 0, 67, 87
1, 234266, Control_c, 0, 67, 90
1, 234281, Control_c, 0, 67, 93
1, 234297, Control_c, 0, 67, 96
1, 234306, Note_off_c, 0, 82, 57
1, 234312, Control_c, 0, 67, 103
1, 234313, Note_on_c, 0, 80, 65
1, 234327, Control_c, 0, 67, 115
1, 234341, Control_c, 0, 67, 127
1, 234387, Note_on_c, 0, 78, 69
1, 234390, Note_off_c, 0, 80, 62
1, 234457, Note_on_c, 0, 51, 42
1, 234463, Note_on_c, 0, 54, 34
1, 234464, Note_off_c, 0, 78, 61
1, 234488, Note_on_c, 0, 80, 55
1, 234562, Note_on_c, 0, 78, 63
1, 234583, Note_off_c, 0, 80, 53
1, 234611, Note_off_c, 0, 54, 38
1, 234630, Note_on_c, 0, 77, 70
1, 234630, Note_off_c, 0, 78, 62
1, 234658, Note_off_c, 0, 77, 62
1, 234677, Note_off_c, 0, 51, 30
1, 234682, Note_on_c, 0, 58, 57
1, 234706, Note_on_c, 0, 75, 65
1, 234771, Note_off_c, 0, 58, 58
1, 234779, Note_off_c, 0, 75, 64
1, 234786, Note_on_c, 0, 74, 66
1, 234794, Note_on_c, 0, 56, 65
1, 234799, Note_on_c, 0, 53, 54
1, 234868, Note_off_c, 0, 53, 63
1, 234872, Note_on_c, 0, 77, 65
1, 234875, Note_off_c, 0, 74, 61
1, 234894, Note_off_c, 0, 56, 63
1, 234936, Note_off_c, 0, 77, 62
1, 234949, Note_on_c, 0, 75, 56
1, 235004, Note_on_c, 0, 74, 69
1, 235013, Note_off_c, 0, 75, 64
1, 235069, Note_off_c, 0, 74, 63
1, 235101, Note_on_c, 0, 82, 71
1, 235108, Note_on_c, 0, 65, 68
1, 235111, Note_on_c, 0, 62, 59
1, 235186, Note_on_c, 0, 80, 70
1, 235194, Note_off_c, 0, 82, 59
1, 235225, Control_c, 0, 67, 122
1, 235239, Control_c, 0, 67, 112
1, 235254, Control_c, 0, 67, 101
1, 235258, Note_on_c, 0, 78, 77
1, 235269, Control_c, 0, 67, 91
1, 235276, Note_off_c, 0, 80, 59
1, 235284, Control_c, 0, 67, 85
1, 235291, Note_off_c, 0, 65, 64
1, 235299, Control_c, 0, 67, 82
1, 235314, Control_c, 0, 67, 82
1, 235328, Note_off_c, 0, 78, 64
1, 235329, Control_c, 0, 67, 82
1, 235329, Note_on_c, 0, 70, 70
1, 235334, Note_on_c, 0, 77, 74
1, 235337, Note_off_c, 0, 62, 57
1, 235343, Control_c, 0, 67, 83
1, 235373, Control_c, 0, 67, 84
1, 235388, Control_c, 0, 67, 84
1, 235392, Note_off_c, 0, 70, 60
1, 235403, Control_c, 0, 67, 85
1, 235403, Note_off_c, 0, 77, 37
1, 235409, Note_on_c, 0, 78, 82
1, 235418, Control_c, 0, 67, 86
1, 235443, Note_on_c, 0, 66, 67
1, 235448, Note_on_c, 0, 63, 63
1, 235462, Control_c, 0, 67, 85
1, 235483, Note_off_c, 0, 78, 63
1, 235487, Note_off_c, 0, 66, 66
1, 235492, Note_on_c, 0, 82, 76
1, 235494, Note_off_c, 0, 63, 64
1, 235506, Control_c, 0, 67, 85
1, 235551, Control_c, 0, 67, 85
1, 235572, Note_on_c, 0, 80, 77
1, 235573, Control_c, 0, 67, 86
1, 235588, Note_off_c, 0, 82, 56
1, 235618, Control_c, 0, 67, 86
1, 235633, Control_c, 0, 67, 87
1, 235646, Note_on_c, 0, 78, 78
1, 235647, Control_c, 0, 67, 87
1, 235650, Note_off_c, 0, 80, 64
1, 235692, Control_c, 0, 67, 88
1, 235706, Control_c, 0, 67, 89
1, 235720, Note_off_c, 0, 78, 62
1, 235721, Control_c, 0, 67, 90
1, 235731, Note_on_c, 0, 80, 76
1, 235747, Note_on_c, 0, 54, 62
1, 235749, Note_on_c, 0, 51, 61
1, 235766, Control_c, 0, 67, 90
1, 235795, Control_c, 0, 67, 91
1, 235802, Note_on_c, 0, 78, 77
1, 235810, Control_c, 0, 67, 92
1, 235814, Note_off_c, 0, 80, 60
1, 235825, Control_c, 0, 67, 93
1, 235840, Control_c, 0, 67, 94
1, 235854, Control_c, 0, 67, 95
1, 235869, Control_c, 0, 67, 99
1, 235882, Note_on_c, 0, 77, 78
1, 235884, Control_c, 0, 67, 105
1, 235886, Note_off_c, 0, 78, 63
1, 235900, Control_c, 0, 67, 115
1, 235914, Control_c, 0, 67, 123
1, 235921, Note_off_c, 0, 54, 60
1, 235928, Note_off_c, 0, 77, 60
1, 235929, Control_c, 0, 67, 127
1, 235937, Note_off_c, 0, 51, 51
1, 235953, Note_on_c, 0, 58, 62
1, 235963, Note_on_c, 0, 75, 72
1, 236011, Note_off_c, 0, 58, 50
1, 236032, Note_off_c, 0, 75, 62
1, 236044, Note_on_c, 0, 72, 68
1, 236071, Note_on_c, 0, 56, 49
1, 236075, Note_on_c, 0, 54, 41
1, 236086, Note_on_c, 0, 51, 38
1, 236095, Note_off_c, 0, 72, 57
1, 236137, Note_on_c, 0, 75, 59
1, 236140, Note_off_c, 0, 51, 63
1, 236145, Note_off_c, 0, 56, 61
1, 236148, Note_off_c, 0, 54, 61
1, 236204, Note_off_c, 0, 75, 61
1, 236205, Note_on_c, 0, 73, 59
1, 236256, Note_off_c, 0, 73, 62
1, 236274, Note_on_c, 0, 72, 62
1, 236321, Note_off_c, 0, 72, 59
1, 236362, Note_on_c, 0, 80, 65
1, 236382, Note_on_c, 0, 63, 48
1, 236387, Note_on_c, 0, 60, 40
1, 236448, Note_on_c, 0, 78, 63
1, 236494, Note_off_c, 0, 80, 51
1, 236522, Note_off_c, 0, 78, 60
1, 236524, Note_on_c, 0, 76, 57
1, 236536, Note_off_c, 0, 63, 60
1, 236576, Note_off_c, 0, 60, 56
1, 236586, Note_off_c, 0, 76, 64
1, 236592, Note_on_c, 0, 75, 52
1, 236622, Note_on_c, 0, 68, 46
1, 236664, Note_off_c, 0, 75, 43
1, 236684, Note_on_c, 0, 76, 45
1, 236688, Note_on_c, 0, 64, 54
1, 236691, Note_off_c, 0, 68, 52
1, 236712, Note_on_c, 0, 61, 44
1, 236753, Note_off_c, 0, 64, 63
1, 236758, Note_off_c, 0, 76, 63
1, 236760, Note_off_c, 0, 61, 63
1, 236768, Note_on_c, 0, 80, 61
1, 236841, Note_on_c, 0, 78, 63
1, 236857, Note_off_c, 0, 80, 54
1, 236909, Note_off_c, 0, 78, 62
1, 236925, Note_on_c, 0, 76, 54
1, 236983, Note_off_c, 0, 76, 64
1, 237012, Note_on_c, 0, 78, 56
1, 237025, Note_on_c, 0, 49, 37
1, 237027, Note_on_c, 0, 52, 44
1, 237085, Note_off_c, 0, 78, 58
1, 237087, Note_on_c, 0, 76, 53
1, 237145, Note_off_c, 0, 76, 66
1, 237165, Note_on_c, 0, 75, 59
1, 237185, Note_off_c, 0, 75, 65
1, 237199, Note_off_c, 0, 52, 61
1, 237233, Note_on_c, 0, 73, 66
1, 237245, Note_on_c, 0, 56, 46
1, 237261, Note_off_c, 0, 49, 40
1, 237296, Note_off_c, 0, 56, 58
1, 237305, Note_off_c, 0, 73, 61
1, 237316, Note_on_c, 0, 72, 68
1, 237338, Note_on_c, 0, 54, 50
1, 237343, Note_on_c, 0, 51, 49
1, 237383, Note_off_c, 0, 72, 61
1, 237399, Note_on_c, 0, 75, 71
1, 237409, Note_off_c, 0, 51, 61
1, 237414, Note_off_c, 0, 54, 62
1, 237470, Note_on_c, 0, 73, 72
1, 237486, Note_off_c, 0, 75, 62
1, 237543, Note_off_c, 0, 73, 63
1, 237545, Note_on_c, 0, 72, 76
1, 237623, Note_off_c, 0, 72, 58
1, 237637, Note_on_c, 0, 80, 78
1, 237652, Note_on_c, 0, 60, 45
1, 237654, Note_on_c, 0, 63, 40
1, 237728, Note_on_c, 0, 78, 76
1, 237791, Note_off_c, 0, 80, 59
1, 237809, Note_off_c, 0, 63, 54
1, 237824, Note_on_c, 0, 76, 75
1, 237833, Note_off_c, 0, 78, 63
1, 237841, Note_off_c, 0, 60, 56
1, 237865, Note_on_c, 0, 68, 53
1, 237880, Note_on_c, 0, 75, 55
1, 237889, Note_off_c, 0, 76, 66
1, 237934, Note_off_c, 0, 75, 64
1, 237945, Note_off_c, 0, 68, 62
1, 237958, Note_on_c, 0, 64, 61
1, 237964, Note_on_c, 0, 76, 77
1, 237970, Note_on_c, 0, 61, 51
1, 237982, Control_c, 0, 67, 111
1, 237997, Control_c, 0, 67, 89
1, 238012, Control_c, 0, 67, 68
1, 238027, Control_c, 0, 67, 48
1, 238035, Note_off_c, 0, 64, 64
1, 238041, Control_c, 0, 67, 29
1, 238044, Note_off_c, 0, 76, 65
1, 238047, Note_on_c, 0, 80, 84
1, 238050, Note_off_c, 0, 61, 63
1, 238056, Control_c, 0, 67, 16
1, 238071, Control_c, 0, 67, 12
1, 238101, Control_c, 0, 67, 15
1, 238116, Control_c, 0, 67, 16
1, 238124, Note_on_c, 0, 78, 82
1, 238131, Control_c, 0, 67, 17
1, 238145, Control_c, 0, 67, 19
1, 238152, Note_off_c, 0, 80, 63
1, 238160, Control_c, 0, 67, 20
1, 238175, Control_c, 0, 67, 22
1, 238190, Note_on_c, 0, 76, 81
1, 238190, Control_c, 0, 67, 23
1, 238203, Note_off_c, 0, 78, 63
1, 238205, Control_c, 0, 67, 26
1, 238220, Control_c, 0, 67, 30
1, 238235, Control_c, 0, 67, 35
1, 238249, Control_c, 0, 67, 39
1, 238264, Control_c, 0, 67, 43
1, 238275, Note_on_c, 0, 49, 59
1, 238275, Note_off_c, 0, 76, 67
1, 238277, Note_on_c, 0, 78, 84
1, 238279, Control_c, 0, 67, 47
1, 238295, Control_c, 0, 67, 52
1, 238301, Note_on_c, 0, 52, 52
1, 238309, Control_c, 0, 67, 57
1, 238324, Control_c, 0, 67, 62
1, 238339, Control_c, 0, 67, 66
1, 238354, Control_c, 0, 67, 71
1, 238356, Note_off_c, 0, 78, 62
1, 238358, Note_on_c, 0, 76, 75
1, 238369, Control_c, 0, 67, 76
1, 238381, Note_off_c, 0, 49, 56
1, 238384, Control_c, 0, 67, 82
1, 238398, Control_c, 0, 67, 89
1, 238413, Control_c, 0, 67, 96
1, 238421, Note_off_c, 0, 76, 66
1, 238428, Control_c, 0, 67, 102
1, 238429, Note_on_c, 0, 75, 76
1, 238443, Control_c, 0, 67, 108
1, 238449, Note_off_c, 0, 52, 64
1, 238457, Control_c, 0, 67, 114
1, 238463, Note_on_c, 0, 56, 67
1, 238466, Note_off_c, 0, 75, 64
1, 238472, Control_c, 0, 67, 119
1, 238487, Control_c, 0, 67, 123
1, 238495, Note_on_c, 0, 73, 77
1, 238502, Control_c, 0, 67, 125
1, 238516, Control_c, 0, 67, 127
1, 238572, Note_off_c, 0, 56, 54
1, 238587, Note_on_c, 0, 70, 80
1, 238587, Note_off_c, 0, 73, 62
1, 238589, Note_on_c, 0, 54, 62
1, 238596, Note_on_c, 0, 49, 52
1, 238598, Control_c, 0, 67, 126
1, 238607, Note_on_c, 0, 52, 52
1, 238628, Control_c, 0, 67, 126
1, 238643, Control_c, 0, 67, 125
1, 238662, Note_on_c, 0, 73, 80
1, 238664, Note_off_c, 0, 70, 64
1, 238673, Note_off_c, 0, 49, 60
1, 238688, Note_off_c, 0, 52, 65
1, 238700, Note_off_c, 0, 54, 61
1, 238716, Control_c, 0, 67, 126
1, 238731, Control_c, 0, 67, 126
1, 238742, Note_on_c, 0, 71, 77
1, 238748, Note_off_c, 0, 73, 62
1, 238761, Control_c, 0, 67, 127
1, 238776, Control_c, 0, 67, 127
1, 238817, Note_on_c, 0, 70, 79
1, 238824, Note_off_c, 0, 71, 61
1, 238913, Note_on_c, 0, 78, 78
1, 238926, Note_on_c, 0, 61, 66
1, 238926, Note_off_c, 0, 70, 60
1, 238929, Note_on_c, 0, 58, 55
1, 239003, Note_on_c, 0, 76, 70
1, 239039, Note_off_c, 0, 78, 63
1, 239087, Note_on_c, 0, 75, 66
1, 239093, Note_off_c, 0, 76, 57
1, 239100, Note_off_c, 0, 61, 59
1, 239153, Note_on_c, 0, 73, 65
1, 239153, Note_off_c, 0, 75, 62
1, 239168, Note_off_c, 0, 58, 55
1, 239189, Note_on_c, 0, 66, 56
1, 239237, Note_off_c, 0, 73, 59
1, 239237, Note_off_c, 0, 66, 62
1, 239256, Note_on_c, 0, 71, 50
1, 239258, Note_on_c, 0, 63, 65
1, 239278, Note_on_c, 0, 59, 42
1, 239345, Note_off_c, 0, 59, 60
1, 239347, Note_off_c, 0, 63, 64
1, 239349, Note_on_c, 0, 75, 54
1, 239359, Note_off_c, 0, 71, 54
1, 239425, Note_on_c, 0, 73, 54
1, 239425, Note_off_c, 0, 75, 54
1, 239505, Note_off_c, 0, 73, 51
1, 239514, Note_on_c, 0, 71, 36
1, 239576, Note_on_c, 0, 49, 48
1, 239582, Note_on_c, 0, 46, 46
1, 239598, Note_on_c, 0, 78, 50
1, 239610, Note_off_c, 0, 71, 37
1, 239663, Note_on_c, 0, 76, 53
1, 239669, Note_off_c, 0, 78, 55
1, 239743, Note_off_c, 0, 76, 58
1, 239755, Note_off_c, 0, 49, 41
1, 239765, Note_on_c, 0, 75, 46
1, 239783, Note_off_c, 0, 46, 47
1, 239821, Note_on_c, 0, 54, 43
1, 239830, Note_off_c, 0, 75, 54
1, 239844, Note_on_c, 0, 73, 31
1, 239877, Note_off_c, 0, 54, 54
1, 239906, Note_off_c, 0, 73, 40
1, 239913, Note_on_c, 0, 71, 50
1, 239919, Note_on_c, 0, 51, 49
1, 239925, Note_on_c, 0, 47, 30
1, 239976, Note_off_c, 0, 47, 62
1, 239983, Note_off_c, 0, 71, 53
1, 239993, Note_on_c, 0, 75, 51
1, 239996, Note_off_c, 0, 51, 57
1, 240079, Note_off_c, 0, 75, 58
1, 240095, Note_on_c, 0, 73, 49
1, 240152, Note_off_c, 0, 73, 53
1, 240162, Note_on_c, 0, 71, 41
1, 240226, Note_off_c, 0, 71, 48
1, 240247, Note_on_c, 0, 66, 44
1, 240251, Note_on_c, 0, 78, 52
1, 240307, Note_off_c, 0, 66, 59
1, 240328, Note_on_c, 0, 64, 46
1, 240330, Note_on_c, 0, 76, 53
1, 240375, Note_off_c, 0, 78, 37
1, 240394, Note_off_c, 0, 64, 54
1, 240407, Note_off_c, 0, 76, 61
1, 240410, Note_on_c, 0, 63, 46
1, 240417, Note_on_c, 0, 75, 54
1, 240454, Note_off_c, 0, 63, 61
1, 240478, Note_on_c, 0, 61, 39
1, 240481, Note_on_c, 0, 73, 57
1, 240512, Note_off_c, 0, 75, 57
1, 240555, Note_off_c, 0, 61, 52
1, 240575, Note_on_c, 0, 71, 57
1, 240575, Note_off_c, 0, 73, 59
1, 240589, Note_on_c, 0, 59, 32
1, 240620, Note_off_c, 0, 59, 50
1, 240639, Note_on_c, 0, 75, 68
1, 240640, Note_off_c, 0, 71, 60
1, 240716, Note_on_c, 0, 73, 68
1, 240727, Note_off_c, 0, 75, 60
1, 240778, Control_c, 0, 67, 126
1, 240778, Note_off_c, 0, 73, 63
1, 240793, Note_on_c, 0, 71, 67
1, 240793, Control_c, 0, 67, 106
1, 240815, Control_c, 0, 67, 86
1, 240830, Control_c, 0, 67, 65
1, 240844, Note_off_c, 0, 71, 60
1, 240845, Control_c, 0, 67, 50
1, 240859, Control_c, 0, 67, 35
1, 240874, Control_c, 0, 67, 21
1, 240889, Control_c, 0, 67, 8
1, 240899, Note_on_c, 0, 83, 59
1, 240904, Control_c, 0, 67, 0
1, 240927, Note_on_c, 0, 71, 29
1, 240979, Note_off_c, 0, 71, 58
1, 240988, Note_on_c, 0, 82, 65
1, 240997, Note_on_c, 0, 70, 47
1, 241001, Note_off_c, 0, 83, 54
1, 241046, Note_off_c, 0, 70, 59
1, 241067, Note_on_c, 0, 68, 40
1, 241067, Note_on_c, 0, 80, 63
1, 241074, Note_off_c, 0, 82, 58
1, 241123, Note_off_c, 0, 68, 43
1, 241138, Note_on_c, 0, 78, 71
1, 241141, Note_on_c, 0, 66, 42
1, 241142, Note_off_c, 0, 80, 62
1, 241213, Note_off_c, 0, 78, 62
1, 241214, Note_on_c, 0, 77, 75
1, 241231, Note_on_c, 0, 65, 39
1, 241235, Note_off_c, 0, 66, 34
1, 241289, Note_off_c, 0, 77, 56
1, 241293, Note_on_c, 0, 80, 77
1, 241296, Note_off_c, 0, 65, 58
1, 241366, Note_on_c, 0, 78, 78
1, 241376, Note_off_c, 0, 80, 61
1, 241442, Note_off_c, 0, 78, 64
1, 241443, Note_on_c, 0, 77, 79
1, 241522, Note_on_c, 0, 83, 80
1, 241523, Note_off_c, 0, 77, 58
1, 241541, Note_on_c, 0, 71, 53
1, 241615, Note_off_c, 0, 71, 57
1, 241616, Note_on_c, 0, 82, 80
1, 241619, Note_on_c, 0, 70, 65
1, 241654, Note_off_c, 0, 83, 57
1, 241686, Note_on_c, 0, 80, 85
1, 241698, Note_off_c, 0, 70, 61
1, 241702, Note_on_c, 0, 68, 60
1, 241722, Note_off_c, 0, 82, 60
1, 241752, Note_on_c, 0, 78, 86
1, 241760, Note_on_c, 0, 66, 68
1, 241760, Note_off_c, 0, 68, 63
1, 241787, Note_off_c, 0, 80, 65
1, 241831, Note_on_c, 0, 77, 89
1, 241842, Note_on_c, 0, 65, 74
1, 241851, Note_off_c, 0, 78, 64
1, 241863, Note_off_c, 0, 66, 64
1, 241911, Note_on_c, 0, 80, 91
1, 241921, Note_off_c, 0, 65, 64
1, 241925, Note_off_c, 0, 77, 62
1, 241990, Note_on_c, 0, 78, 85
1, 242021, Note_off_c, 0, 80, 62
1, 242062, Note_on_c, 0, 77, 89
1, 242069, Note_off_c, 0, 78, 64
1, 242185, Note_on_c, 0, 87, 86
1, 242202, Note_on_c, 0, 75, 68
1, 242268, Note_on_c, 0, 85, 81
1, 242282, Note_on_c, 0, 73, 67
1, 242282, Note_off_c, 0, 75, 59
1, 242310, Note_off_c, 0, 77, 24
1, 242332, Note_off_c, 0, 87, 62
1, 242357, Note_on_c, 0, 83, 79
1, 242372, Note_on_c, 0, 71, 66
1, 242376, Note_off_c, 0, 73, 63
1, 242415, Note_off_c, 0, 85, 54
1, 242434, Note_on_c, 0, 82, 84
1, 242453, Note_on_c, 0, 70, 71
1, 242459, Note_off_c, 0, 83, 59
1, 242473, Note_off_c, 0, 71, 61
1, 242515, Note_on_c, 0, 80, 76
1, 242517, Note_on_c, 0, 68, 68
1, 242520, Note_off_c, 0, 82, 63
1, 242551, Note_off_c, 0, 80, 66
1, 242553, Note_off_c, 0, 70, 63
1, 242578, Note_on_c, 0, 83, 82
1, 242596, Note_on_c, 0, 71, 77
1, 242602, Note_off_c, 0, 68, 65
1, 242665, Note_on_c, 0, 82, 83
1, 242679, Note_on_c, 0, 70, 83
1, 242682, Note_off_c, 0, 71, 60
1, 242708, Note_off_c, 0, 83, 61
1, 242741, Note_on_c, 0, 80, 87
1, 242751, Note_on_c, 0, 68, 75
1, 242765, Note_off_c, 0, 70, 57
1, 242775, Note_off_c, 0, 82, 63
1, 242821, Note_on_c, 0, 78, 90
1, 242825, Note_on_c, 0, 66, 76
1, 242857, Note_off_c, 0, 68, 64
1, 242861, Note_off_c, 0, 80, 64
1, 242885, Note_off_c, 0, 66, 68
1, 242894, Note_on_c, 0, 77, 92
1, 242901, Note_on_c, 0, 65, 75
1, 242918, Note_off_c, 0, 78, 63
1, 242922, Note_on_c, 0, 64, 50
1, 242953, Note_off_c, 0, 64, 35
1, 242977, Note_on_c, 0, 75, 90
1, 242980, Note_off_c, 0, 65, 56
1, 242983, Note_off_c, 0, 77, 40
1, 242983, Note_on_c, 0, 63, 83
1, 243048, Note_on_c, 0, 61, 66
1, 243067, Note_on_c, 0, 73, 86
1, 243087, Note_off_c, 0, 63, 63
1, 243105, Note_off_c, 0, 75, 63
1, 243136, Note_on_c, 0, 59, 76
1, 243146, Note_on_c, 0, 71, 83
1, 243147, Note_off_c, 0, 61, 64
1, 243172, Note_off_c, 0, 73, 60
1, 243223, Note_on_c, 0, 63, 79
1, 243228, Note_on_c, 0, 75, 89
1, 243228, Note_off_c, 0, 59, 64
1, 243238, Note_off_c, 0, 71, 60
1, 243306, Note_on_c, 0, 73, 86
1, 243311, Note_on_c, 0, 61, 81
1, 243320, Note_off_c, 0, 63, 66
1, 243342, Note_off_c, 0, 75, 58
1, 243363, Note_on_c, 0, 60, 40
1, 243368, Note_off_c, 0, 61, 62
1, 243378, Note_on_c, 0, 59, 82
1, 243386, Note_on_c, 0, 71, 86
1, 243390, Note_off_c, 0, 60, 35
1, 243395, Note_off_c, 0, 73, 63
1, 243467, Note_on_c, 0, 58, 85
1, 243469, Note_on_c, 0, 70, 85
1, 243470, Note_off_c, 0, 59, 60
1, 243484, Note_off_c, 0, 71, 60
1, 243541, Note_on_c, 0, 56, 73
1, 243542, Note_on_c, 0, 68, 91
1, 243573, Note_off_c, 0, 58, 63
1, 243596, Note_off_c, 0, 70, 56
1, 243624, Note_on_c, 0, 54, 76
1, 243624, Note_on_c, 0, 66, 89
1, 243649, Note_off_c, 0, 56, 63
1, 243675, Note_off_c, 0, 68, 61
1, 243703, Note_on_c, 0, 53, 76
1, 243706, Note_on_c, 0, 65, 90
1, 243738, Note_off_c, 0, 66, 63
1, 243753, Note_off_c, 0, 54, 61
1, 243808, Note_on_c, 0, 71, 86
1, 243810, Note_on_c, 0, 59, 87
1, 243827, Note_off_c, 0, 65, 67
1, 243860, Note_off_c, 0, 53, 64
1, 243899, Note_on_c, 0, 70, 85
1, 243901, Note_on_c, 0, 58, 86
1, 243925, Note_off_c, 0, 59, 63
1, 243974, Note_off_c, 0, 71, 52
1, 243982, Note_on_c, 0, 68, 90
1, 243987, Note_on_c, 0, 56, 78
1, 244017, Note_off_c, 0, 58, 64
1, 244019, Note_off_c, 0, 70, 60
1, 244061, Note_on_c, 0, 66, 90
1, 244075, Note_on_c, 0, 54, 76
1, 244113, Note_off_c, 0, 56, 63
1, 244113, Note_off_c, 0, 68, 60
1, 244158, Note_off_c, 0, 54, 63
1, 244161, Note_on_c, 0, 65, 94
1, 244162, Note_on_c, 0, 53, 85
1, 244195, Note_off_c, 0, 66, 65
1, 244256, Note_on_c, 0, 63, 93
1, 244265, Note_on_c, 0, 51, 84
1, 244273, Note_off_c, 0, 53, 64
1, 244291, Note_off_c, 0, 65, 66
1, 244345, Note_on_c, 0, 61, 90
1, 244347, Note_on_c, 0, 49, 71
1, 244393, Note_off_c, 0, 63, 63
1, 244396, Note_off_c, 0, 51, 61
1, 244430, Note_on_c, 0, 48, 78
1, 244434, Note_on_c, 0, 60, 95
1, 244477, Note_off_c, 0, 49, 61
1, 244482, Note_off_c, 0, 61, 64
1, 244575, Note_on_c, 0, 49, 91
1, 244577, Note_on_c, 0, 61, 99
1, 244605, Note_off_c, 0, 48, 65
1, 244618, Note_off_c, 0, 60, 62
1, 244945, Control_c, 0, 64, 29
1, 244960, Control_c, 0, 64, 54
1, 244975, Control_c, 0, 64, 59
1, 244990, Control_c, 0, 64, 63
1, 245004, Control_c, 0, 64, 65
1, 245019, Control_c, 0, 64, 68
1, 245033, Control_c, 0, 64, 73
1, 245048, Control_c, 0, 64, 79
1, 245063, Control_c, 0, 64, 84
1, 245077, Control_c, 0, 64, 87
1, 245092, Control_c, 0, 64, 91
1, 245107, Control_c, 0, 64, 95
1, 245122, Control_c, 0, 64, 100
1, 245137, Control_c, 0, 64, 104
1, 245151, Control_c, 0, 64, 107
1, 245166, Control_c, 0, 64, 109
1, 245181, Control_c, 0, 64, 112
1, 245196, Control_c, 0, 64, 114
1, 245211, Control_c, 0, 64, 117
1, 245225, Control_c, 0, 64, 119
1, 245240, Control_c, 0, 64, 122
1, 245255, Control_c, 0, 64, 124
1, 245270, Control_c, 0, 64, 125
1, 245285, Control_c, 0, 64, 126
1, 245322, Control_c, 0, 64, 126
1, 245351, Control_c, 0, 64, 127
1, 245440, Control_c, 0, 64, 126
1, 245515, Control_c, 0, 64, 126
1, 245545, Control_c, 0, 64, 125
1, 245560, Control_c, 0, 64, 125
1, 245574, Control_c, 0, 64, 124
1, 245589, Control_c, 0, 64, 122
1, 245591, Note_on_c, 0, 65, 94
1, 245600, Note_on_c, 0, 53, 88
1, 245604, Control_c, 0, 64, 120
1, 245619, Control_c, 0, 64, 117
1, 245634, Control_c, 0, 64, 113
1, 245649, Control_c, 0, 64, 108
1, 245663, Control_c, 0, 64, 103
1, 245678, Control_c, 0, 64, 97
1, 245693, Control_c, 0, 64, 90
1, 245708, Control_c, 0, 64, 82
1, 245723, Control_c, 0, 64, 72
1, 245738, Control_c, 0, 64, 56
1, 245753, Control_c, 0, 64, 0
1, 245960, Control_c, 0, 64, 42
1, 245974, Control_c, 0, 64, 62
1, 245989, Control_c, 0, 64, 66
1, 246004, Control_c, 0, 64, 71
1, 246019, Control_c, 0, 64, 77
1, 246033, Control_c, 0, 64, 85
1, 246056, Control_c, 0, 64, 91
1, 246071, Control_c, 0, 64, 94
1, 246086, Control_c, 0, 64, 96
1, 246101, Control_c, 0, 64, 98
1, 246112, Note_off_c, 0, 65, 57
1, 246113, Note_off_c, 0, 61, 55
1, 246115, Control_c, 0, 64, 100
1, 246130, Control_c, 0, 64, 101
1, 246145, Control_c, 0, 64, 102
1, 246165, Note_off_c, 0, 53, 60
1, 246167, Note_off_c, 0, 49, 55
1, 246383, Control_c, 0, 67, 8
1, 246397, Control_c, 0, 67, 10
1, 246412, Control_c, 0, 67, 12
1, 246427, Control_c, 0, 67, 14
1, 246442, Control_c, 0, 67, 17
1, 246456, Control_c, 0, 67, 21
1, 246471, Control_c, 0, 67, 25
1, 246486, Control_c, 0, 67, 29
1, 246501, Control_c, 0, 67, 32
1, 246516, Control_c, 0, 67, 34
1, 246530, Control_c, 0, 67, 36
1, 246545, Control_c, 0, 67, 37
1, 246560, Control_c, 0, 67, 39
1, 246575, Control_c, 0, 67, 40
1, 246590, Control_c, 0, 67, 42
1, 246598, Note_on_c, 0, 68, 90
1, 246604, Control_c, 0, 64, 101
1, 246604, Control_c, 0, 67, 42
1, 246605, Note_on_c, 0, 65, 81
1, 246605, Note_on_c, 0, 56, 89
1, 246606, Note_on_c, 0, 61, 76
1, 246619, Control_c, 0, 67, 44
1, 246634, Control_c, 0, 64, 101
1, 246634, Control_c, 0, 67, 45
1, 246648, Control_c, 0, 64, 100
1, 246648, Control_c, 0, 67, 47
1, 246663, Control_c, 0, 64, 99
1, 246663, Control_c, 0, 67, 49
1, 246678, Control_c, 0, 64, 96
1, 246678, Control_c, 0, 67, 51
1, 246693, Control_c, 0, 64, 92
1, 246693, Control_c, 0, 67, 53
1, 246708, Control_c, 0, 64, 84
1, 246708, Control_c, 0, 67, 55
1, 246722, Control_c, 0, 64, 74
1, 246722, Control_c, 0, 67, 57
1, 246737, Control_c, 0, 64, 60
1, 246737, Control_c, 0, 67, 58
1, 246752, Control_c, 0, 64, 0
1, 246752, Control_c, 0, 67, 60
1, 246767, Control_c, 0, 67, 62
1, 246782, Control_c, 0, 67, 65
1, 246804, Control_c, 0, 67, 70
1, 246819, Control_c, 0, 67, 74
1, 246826, Note_on_c, 0, 58, 85
1, 246830, Note_off_c, 0, 56, 64
1, 246834, Control_c, 0, 67, 79
1, 246849, Control_c, 0, 67, 84
1, 246863, Control_c, 0, 67, 89
1, 246878, Control_c, 0, 67, 94
1, 246893, Control_c, 0, 67, 98
1, 246908, Control_c, 0, 67, 101
1, 246923, Control_c, 0, 67, 102
1, 246952, Control_c, 0, 67, 101
1, 246967, Note_on_c, 0, 56, 80
1, 246967, Control_c, 0, 67, 101
1, 246981, Note_off_c, 0, 58, 62
1, 247011, Control_c, 0, 67, 100
1, 247026, Control_c, 0, 67, 100
1, 247108, Note_on_c, 0, 54, 72
1, 247141, Note_off_c, 0, 56, 58
1, 247205, Control_c, 0, 67, 99
1, 247234, Control_c, 0, 67, 99
1, 247246, Note_off_c, 0, 54, 62
1, 247262, Note_on_c, 0, 53, 62
1, 247279, Control_c, 0, 67, 98
1, 247383, Control_c, 0, 67, 98
1, 247395, Note_off_c, 0, 53, 62
1, 247409, Note_on_c, 0, 51, 61
1, 247442, Control_c, 0, 67, 97
1, 247471, Control_c, 0, 67, 97
1, 247486, Control_c, 0, 67, 96
1, 247501, Control_c, 0, 67, 96
1, 247516, Control_c, 0, 67, 95
1, 247531, Control_c, 0, 67, 94
1, 247553, Control_c, 0, 67, 94
1, 247568, Control_c, 0, 67, 93
1, 247579, Note_off_c, 0, 51, 58
1, 247583, Control_c, 0, 67, 93
1, 247587, Note_on_c, 0, 49, 57
1, 247612, Control_c, 0, 67, 92
1, 247627, Control_c, 0, 67, 92
1, 247642, Control_c, 0, 67, 91
1, 247657, Control_c, 0, 67, 91
1, 247686, Control_c, 0, 64, 44
1, 247701, Control_c, 0, 64, 56
1, 247716, Control_c, 0, 64, 61
1, 247716, Control_c, 0, 67, 90
1, 247731, Control_c, 0, 64, 64
1, 247746, Control_c, 0, 64, 66
1, 247752, Note_off_c, 0, 49, 56
1, 247759, Note_on_c, 0, 51, 50
1, 247760, Control_c, 0, 64, 68
1, 247760, Control_c, 0, 67, 90
1, 247775, Control_c, 0, 64, 71
1, 247775, Control_c, 0, 67, 89
1, 247790, Control_c, 0, 64, 73
1, 247790, Control_c, 0, 67, 88
1, 247804, Control_c, 0, 64, 75
1, 247804, Control_c, 0, 67, 87
1, 247819, Control_c, 0, 64, 76
1, 247819, Control_c, 0, 67, 86
1, 247824, Note_off_c, 0, 65, 55
1, 247834, Control_c, 0, 67, 84
1, 247849, Control_c, 0, 67, 81
1, 247864, Control_c, 0, 67, 77
1, 247880, Control_c, 0, 67, 73
1, 247894, Control_c, 0, 67, 68
1, 247899, Note_on_c, 0, 49, 50
1, 247904, Note_off_c, 0, 51, 56
1, 247909, Control_c, 0, 67, 64
1, 247924, Control_c, 0, 67, 61
1, 247939, Control_c, 0, 67, 59
1, 247954, Control_c, 0, 67, 58
1, 247968, Control_c, 0, 67, 56
1, 247983, Control_c, 0, 67, 54
1, 247998, Control_c, 0, 67, 51
1, 248009, Note_off_c, 0, 61, 50
1, 248013, Control_c, 0, 67, 48
1, 248028, Control_c, 0, 64, 75
1, 248028, Control_c, 0, 67, 46
1, 248042, Control_c, 0, 64, 75
1, 248042, Control_c, 0, 67, 45
1, 248057, Control_c, 0, 64, 74
1, 248057, Control_c, 0, 67, 44
1, 248072, Control_c, 0, 64, 73
1, 248072, Control_c, 0, 67, 43
1, 248087, Control_c, 0, 64, 72
1, 248087, Control_c, 0, 67, 43
1, 248091, Note_on_c, 0, 70, 65
1, 248102, Control_c, 0, 64, 71
1, 248104, Note_on_c, 0, 47, 36
1, 248112, Note_off_c, 0, 49, 53
1, 248117, Control_c, 0, 64, 68
1, 248117, Note_on_c, 0, 66, 47
1, 248120, Note_off_c, 0, 68, 61
1, 248131, Control_c, 0, 64, 63
1, 248131, Control_c, 0, 67, 43
1, 248146, Control_c, 0, 64, 44
1, 248146, Control_c, 0, 67, 44
1, 248161, Control_c, 0, 64, 0
1, 248161, Control_c, 0, 67, 44
1, 248176, Control_c, 0, 67, 45
1, 248191, Control_c, 0, 67, 46
1, 248202, Note_off_c, 0, 66, 0
1, 248202, Note_on_c, 0, 66, 3
1, 248206, Control_c, 0, 67, 48
1, 248221, Control_c, 0, 67, 49
1, 248236, Control_c, 0, 67, 50
1, 248250, Control_c, 0, 64, 55
1, 248250, Control_c, 0, 67, 51
1, 248265, Control_c, 0, 64, 63
1, 248265, Control_c, 0, 67, 52
1, 248272, Note_off_c, 0, 47, 54
1, 248280, Control_c, 0, 64, 66
1, 248280, Control_c, 0, 67, 53
1, 248301, Control_c, 0, 64, 69
1, 248301, Control_c, 0, 67, 54
1, 248306, Note_on_c, 0, 46, 45
1, 248316, Control_c, 0, 64, 72
1, 248316, Control_c, 0, 67, 55
1, 248331, Control_c, 0, 64, 75
1, 248331, Control_c, 0, 67, 57
1, 248346, Control_c, 0, 64, 77
1, 248346, Control_c, 0, 67, 59
1, 248361, Control_c, 0, 64, 78
1, 248361, Control_c, 0, 67, 63
1, 248376, Control_c, 0, 67, 67
1, 248391, Control_c, 0, 64, 79
1, 248391, Control_c, 0, 67, 72
1, 248400, Note_off_c, 0, 70, 48
1, 248406, Control_c, 0, 67, 76
1, 248421, Control_c, 0, 67, 81
1, 248435, Control_c, 0, 67, 85
1, 248450, Control_c, 0, 67, 88
1, 248456, Note_off_c, 0, 46, 39
1, 248465, Control_c, 0, 67, 91
1, 248470, Note_on_c, 0, 44, 43
1, 248480, Control_c, 0, 67, 94
1, 248495, Control_c, 0, 67, 96
1, 248509, Control_c, 0, 67, 98
1, 248524, Control_c, 0, 64, 78
1, 248524, Control_c, 0, 67, 100
1, 248539, Control_c, 0, 67, 101
1, 248554, Control_c, 0, 67, 103
1, 248569, Control_c, 0, 64, 78
1, 248569, Control_c, 0, 67, 104
1, 248579, Note_on_c, 0, 71, 56
1, 248583, Control_c, 0, 64, 77
1, 248583, Control_c, 0, 67, 105
1, 248585, Note_off_c, 0, 66, 43
1, 248590, Note_on_c, 0, 68, 44
1, 248598, Control_c, 0, 64, 77
1, 248598, Control_c, 0, 67, 106
1, 248613, Control_c, 0, 64, 75
1, 248613, Control_c, 0, 67, 108
1, 248627, Control_c, 0, 64, 73
1, 248627, Control_c, 0, 67, 110
1, 248635, Note_off_c, 0, 68, 44
1, 248642, Control_c, 0, 64, 69
1, 248642, Control_c, 0, 67, 112
1, 248653, Note_off_c, 0, 71, 55
1, 248655, Note_off_c, 0, 44, 30
1, 248657, Control_c, 0, 64, 64
1, 248657, Control_c, 0, 67, 113
1, 248673, Control_c, 0, 64, 49
1, 248673, Control_c, 0, 67, 114
1, 248688, Control_c, 0, 64, 0
1, 248718, Control_c, 0, 67, 114
1, 248721, Note_on_c, 0, 73, 45
1, 248732, Note_on_c, 0, 70, 40
1, 248734, Note_on_c, 0, 42, 34
1, 248747, Control_c, 0, 67, 115
1, 248836, Control_c, 0, 64, 57
1, 248850, Control_c, 0, 64, 67
1, 248865, Control_c, 0, 64, 72
1, 248880, Control_c, 0, 64, 78
1, 248886, Note_off_c, 0, 70, 38
1, 248895, Control_c, 0, 64, 81
1, 248910, Control_c, 0, 64, 83
1, 248917, Note_off_c, 0, 42, 40
1, 248924, Control_c, 0, 64, 83
1, 248939, Control_c, 0, 64, 84
1, 248954, Control_c, 0, 67, 115
1, 248969, Control_c, 0, 67, 116
1, 248999, Control_c, 0, 67, 116
1, 249014, Control_c, 0, 67, 122
1, 249029, Control_c, 0, 67, 126
1, 249050, Control_c, 0, 67, 127
1, 249094, Note_on_c, 0, 54, 33
1, 249243, Control_c, 0, 64, 84
1, 249258, Control_c, 0, 64, 82
1, 249273, Control_c, 0, 64, 81
1, 249288, Control_c, 0, 64, 81
1, 249303, Control_c, 0, 64, 80
1, 249319, Note_off_c, 0, 54, 14
1, 249340, Note_on_c, 0, 66, 51
1, 249343, Note_on_c, 0, 58, 37
1, 249362, Control_c, 0, 64, 79
1, 249366, Note_on_c, 0, 61, 34
1, 249377, Control_c, 0, 64, 77
1, 249392, Control_c, 0, 64, 73
1, 249406, Control_c, 0, 64, 67
1, 249420, Note_off_c, 0, 73, 34
1, 249421, Control_c, 0, 64, 52
1, 249436, Control_c, 0, 64, 0
1, 249465, Control_c, 0, 64, 34
1, 249481, Control_c, 0, 64, 56
1, 249496, Control_c, 0, 64, 63
1, 249511, Control_c, 0, 64, 66
1, 249526, Control_c, 0, 64, 69
1, 249541, Control_c, 0, 64, 71
1, 249545, Note_on_c, 0, 54, 35
1, 249555, Control_c, 0, 64, 73
1, 249570, Control_c, 0, 64, 74
1, 249583, Note_off_c, 0, 61, 35
1, 249585, Control_c, 0, 64, 75
1, 249596, Note_off_c, 0, 58, 54
1, 249688, Control_c, 0, 64, 74
1, 249702, Note_on_c, 0, 65, 61
1, 249703, Control_c, 0, 64, 74
1, 249718, Note_off_c, 0, 66, 58
1, 249718, Control_c, 0, 64, 73
1, 249725, Note_on_c, 0, 61, 48
1, 249732, Note_on_c, 0, 59, 40
1, 249733, Control_c, 0, 64, 72
1, 249738, Note_off_c, 0, 54, 38
1, 249747, Control_c, 0, 64, 70
1, 249762, Control_c, 0, 64, 67
1, 249777, Control_c, 0, 64, 61
1, 249800, Control_c, 0, 64, 0
1, 249873, Control_c, 0, 64, 41
1, 249884, Note_off_c, 0, 61, 52
1, 249888, Control_c, 0, 64, 61
1, 249896, Note_on_c, 0, 54, 48
1, 249903, Control_c, 0, 64, 65
1, 249918, Control_c, 0, 64, 67
1, 249933, Note_off_c, 0, 59, 40
1, 249933, Control_c, 0, 64, 69
1, 249947, Control_c, 0, 64, 71
1, 249947, Control_c, 0, 67, 123
1, 249962, Control_c, 0, 64, 73
1, 249962, Control_c, 0, 67, 114
1, 249977, Control_c, 0, 64, 74
1, 249977, Control_c, 0, 67, 103
1, 249992, Control_c, 0, 67, 91
1, 250007, Control_c, 0, 67, 77
1, 250021, Control_c, 0, 67, 63
1, 250036, Control_c, 0, 67, 47
1, 250045, Note_on_c, 0, 66, 81
1, 250051, Control_c, 0, 64, 73
1, 250051, Control_c, 0, 67, 34
1, 250057, Note_on_c, 0, 61, 53
1, 250066, Control_c, 0, 64, 71
1, 250066, Control_c, 0, 67, 23
1, 250068, Note_off_c, 0, 54, 56
1, 250071, Note_on_c, 0, 58, 52
1, 250081, Control_c, 0, 64, 67
1, 250081, Control_c, 0, 67, 14
1, 250096, Control_c, 0, 64, 53
1, 250096, Control_c, 0, 67, 0
1, 250099, Note_off_c, 0, 65, 58
1, 250111, Control_c, 0, 64, 0
1, 250170, Control_c, 0, 64, 49
1, 250185, Control_c, 0, 64, 63
1, 250192, Note_off_c, 0, 61, 62
1, 250200, Control_c, 0, 64, 68
1, 250215, Control_c, 0, 64, 72
1, 250216, Note_on_c, 0, 54, 50
1, 250223, Note_off_c, 0, 58, 64
1, 250230, Control_c, 0, 64, 76
1, 250245, Control_c, 0, 64, 79
1, 250260, Control_c, 0, 64, 80
1, 250275, Control_c, 0, 64, 80
1, 250343, Note_off_c, 0, 66, 59
1, 250346, Note_off_c, 0, 54, 53
1, 250399, Note_on_c, 0, 71, 76
1, 250417, Note_on_c, 0, 61, 53
1, 250420, Note_on_c, 0, 59, 52
1, 250424, Control_c, 0, 64, 80
1, 250430, Note_on_c, 0, 65, 55
1, 250436, Note_on_c, 0, 56, 43
1, 250439, Control_c, 0, 64, 79
1, 250453, Control_c, 0, 64, 79
1, 250468, Control_c, 0, 64, 78
1, 250483, Control_c, 0, 64, 76
1, 250497, Control_c, 0, 64, 73
1, 250512, Control_c, 0, 64, 67
1, 250527, Control_c, 0, 64, 44
1, 250549, Control_c, 0, 64, 0
1, 250604, Note_on_c, 0, 49, 44
1, 250626, Note_off_c, 0, 56, 40
1, 250683, Control_c, 0, 64, 57
1, 250697, Control_c, 0, 64, 64
1, 250712, Control_c, 0, 64, 66
1, 250727, Control_c, 0, 64, 67
1, 250742, Control_c, 0, 64, 70
1, 250757, Control_c, 0, 64, 73
1, 250771, Control_c, 0, 64, 77
1, 250772, Note_on_c, 0, 56, 42
1, 250786, Note_off_c, 0, 49, 39
1, 250786, Control_c, 0, 64, 79
1, 250801, Control_c, 0, 64, 79
1, 250830, Control_c, 0, 64, 80
1, 250891, Note_off_c, 0, 71, 58
1, 250934, Note_off_c, 0, 56, 41
1, 250948, Note_on_c, 0, 49, 36
1, 250993, Control_c, 0, 64, 79
1, 251002, Note_off_c, 0, 61, 56
1, 251023, Control_c, 0, 64, 79
1, 251068, Control_c, 0, 64, 78
1, 251083, Control_c, 0, 64, 78
1, 251113, Control_c, 0, 64, 77
1, 251114, Note_off_c, 0, 49, 36
1, 251127, Note_on_c, 0, 56, 40
1, 251142, Control_c, 0, 64, 77
1, 251154, Note_off_c, 0, 59, 54
1, 251172, Control_c, 0, 64, 76
1, 251246, Control_c, 0, 64, 76
1, 251306, Note_on_c, 0, 49, 40
1, 251307, Note_off_c, 0, 56, 41
1, 251372, Control_c, 0, 64, 75
1, 251387, Control_c, 0, 67, 8
1, 251402, Control_c, 0, 67, 9
1, 251416, Control_c, 0, 67, 10
1, 251431, Control_c, 0, 67, 10
1, 251446, Control_c, 0, 67, 11
1, 251461, Control_c, 0, 67, 12
1, 251476, Control_c, 0, 67, 13
1, 251491, Control_c, 0, 64, 75
1, 251491, Control_c, 0, 67, 14
1, 251498, Note_on_c, 0, 68, 51
1, 251504, Note_on_c, 0, 56, 67
1, 251506, Control_c, 0, 67, 14
1, 251520, Control_c, 0, 64, 74
1, 251520, Control_c, 0, 67, 15
1, 251528, Note_on_c, 0, 61, 45
1, 251532, Note_on_c, 0, 53, 44
1, 251535, Control_c, 0, 64, 72
1, 251535, Control_c, 0, 67, 16
1, 251550, Control_c, 0, 64, 68
1, 251550, Control_c, 0, 67, 17
1, 251565, Control_c, 0, 64, 53
1, 251565, Control_c, 0, 67, 17
1, 251576, Note_off_c, 0, 49, 27
1, 251580, Control_c, 0, 64, 0
1, 251580, Control_c, 0, 67, 18
1, 251624, Control_c, 0, 67, 19
1, 251668, Control_c, 0, 67, 19
1, 251683, Control_c, 0, 64, 47
1, 251698, Control_c, 0, 64, 63
1, 251698, Control_c, 0, 67, 20
1, 251713, Control_c, 0, 64, 67
1, 251723, Note_on_c, 0, 49, 39
1, 251727, Control_c, 0, 64, 71
1, 251736, Note_off_c, 0, 68, 62
1, 251742, Control_c, 0, 64, 75
1, 251757, Control_c, 0, 64, 77
1, 251757, Control_c, 0, 67, 21
1, 251772, Control_c, 0, 64, 78
1, 251772, Control_c, 0, 67, 22
1, 251786, Control_c, 0, 67, 23
1, 251801, Control_c, 0, 67, 25
1, 251816, Control_c, 0, 67, 26
1, 251824, Note_off_c, 0, 56, 58
1, 251831, Control_c, 0, 67, 27
1, 251846, Control_c, 0, 67, 29
1, 251861, Control_c, 0, 67, 30
1, 251876, Control_c, 0, 67, 33
1, 251891, Control_c, 0, 67, 35
1, 251906, Control_c, 0, 64, 78
1, 251906, Control_c, 0, 67, 37
1, 251921, Control_c, 0, 64, 77
1, 251921, Control_c, 0, 67, 39
1, 251935, Control_c, 0, 64, 75
1, 251935, Control_c, 0, 67, 41
1, 251950, Control_c, 0, 64, 70
1, 251950, Control_c, 0, 67, 42
1, 251953, Note_on_c, 0, 70, 61
1, 251962, Note_on_c, 0, 58, 64
1, 251965, Control_c, 0, 64, 60
1, 251965, Control_c, 0, 67, 42
1, 251980, Note_on_c, 0, 42, 39
1, 251980, Control_c, 0, 64, 0
1, 251980, Control_c, 0, 67, 44
1, 251995, Control_c, 0, 67, 44
1, 252006, Note_off_c, 0, 53, 43
1, 252010, Control_c, 0, 67, 45
1, 252025, Control_c, 0, 67, 46
1, 252047, Control_c, 0, 67, 46
1, 252062, Control_c, 0, 67, 48
1, 252076, Control_c, 0, 64, 40
1, 252076, Control_c, 0, 67, 49
1, 252091, Control_c, 0, 64, 63
1, 252091, Control_c, 0, 67, 50
1, 252105, Note_off_c, 0, 49, 36
1, 252106, Control_c, 0, 64, 68
1, 252106, Control_c, 0, 67, 51
1, 252121, Control_c, 0, 64, 71
1, 252121, Control_c, 0, 67, 51
1, 252135, Note_off_c, 0, 61, 54
1, 252136, Control_c, 0, 64, 76
1, 252136, Control_c, 0, 67, 52
1, 252150, Control_c, 0, 64, 79
1, 252150, Control_c, 0, 67, 53
1, 252162, Note_off_c, 0, 58, 65
1, 252164, Note_off_c, 0, 65, 65
1, 252165, Control_c, 0, 64, 79
1, 252165, Control_c, 0, 67, 55
1, 252168, Note_off_c, 0, 70, 56
1, 252180, Control_c, 0, 67, 56
1, 252182, Note_on_c, 0, 54, 41
1, 252195, Control_c, 0, 67, 57
1, 252284, Control_c, 0, 67, 56
1, 252299, Control_c, 0, 67, 56
1, 252314, Control_c, 0, 64, 79
1, 252314, Control_c, 0, 67, 55
1, 252329, Control_c, 0, 64, 78
1, 252343, Control_c, 0, 64, 76
1, 252344, Note_on_c, 0, 63, 79
1, 252357, Note_on_c, 0, 75, 65
1, 252358, Control_c, 0, 64, 73
1, 252358, Control_c, 0, 67, 54
1, 252358, Note_off_c, 0, 54, 38
1, 252373, Note_on_c, 0, 47, 46
1, 252373, Control_c, 0, 64, 67
1, 252388, Control_c, 0, 64, 28
1, 252402, Control_c, 0, 64, 0
1, 252417, Control_c, 0, 67, 54
1, 252476, Control_c, 0, 64, 42
1, 252476, Control_c, 0, 67, 53
1, 252491, Control_c, 0, 64, 64
1, 252506, Control_c, 0, 64, 69
1, 252506, Control_c, 0, 67, 53
1, 252521, Control_c, 0, 64, 74
1, 252521, Control_c, 0, 67, 52
1, 252536, Control_c, 0, 64, 78
1, 252536, Control_c, 0, 67, 51
1, 252537, Note_on_c, 0, 54, 49
1, 252550, Control_c, 0, 64, 79
1, 252550, Control_c, 0, 67, 51
1, 252565, Control_c, 0, 67, 50
1, 252580, Control_c, 0, 64, 80
1, 252580, Control_c, 0, 67, 49
1, 252583, Note_off_c, 0, 75, 64
1, 252594, Control_c, 0, 67, 49
1, 252595, Note_off_c, 0, 63, 61
1, 252609, Control_c, 0, 67, 48
1, 252624, Control_c, 0, 67, 47
1, 252654, Control_c, 0, 64, 79
1, 252670, Control_c, 0, 67, 47
1, 252684, Control_c, 0, 64, 79
1, 252699, Control_c, 0, 64, 76
1, 252699, Control_c, 0, 67, 46
1, 252700, Note_on_c, 0, 61, 88
1, 252710, Note_on_c, 0, 73, 69
1, 252714, Control_c, 0, 64, 71
1, 252717, Note_on_c, 0, 46, 55
1, 252729, Control_c, 0, 64, 61
1, 252729, Control_c, 0, 67, 47
1, 252732, Note_off_c, 0, 54, 41
1, 252739, Note_off_c, 0, 47, 45
1, 252744, Control_c, 0, 64, 0
1, 252758, Control_c, 0, 67, 46
1, 252773, Control_c, 0, 67, 45
1, 252811, Control_c, 0, 67, 45
1, 252825, Control_c, 0, 64, 55
1, 252825, Control_c, 0, 67, 45
1, 252840, Control_c, 0, 64, 66
1, 252850, Note_off_c, 0, 42, 42
1, 252855, Control_c, 0, 64, 71
1, 252870, Control_c, 0, 64, 76
1, 252877, Note_off_c, 0, 73, 59
1, 252880, Note_off_c, 0, 61, 64
1, 252885, Control_c, 0, 64, 80
1, 252889, Note_on_c, 0, 54, 48
1, 252899, Control_c, 0, 64, 81
1, 252914, Control_c, 0, 64, 82
1, 252944, Control_c, 0, 67, 45
1, 252959, Control_c, 0, 67, 44
1, 252988, Control_c, 0, 67, 45
1, 253003, Control_c, 0, 67, 45
1, 253032, Control_c, 0, 67, 46
1, 253047, Control_c, 0, 64, 81
1, 253047, Control_c, 0, 67, 46
1, 253062, Control_c, 0, 64, 78
1, 253065, Note_off_c, 0, 46, 58
1, 253074, Note_on_c, 0, 66, 85
1, 253077, Control_c, 0, 64, 73
1, 253084, Note_on_c, 0, 78, 73
1, 253089, Note_on_c, 0, 51, 45
1, 253092, Note_on_c, 0, 42, 41
1, 253092, Control_c, 0, 64, 62
1, 253106, Note_off_c, 0, 54, 41
1, 253107, Control_c, 0, 64, 0
1, 253107, Control_c, 0, 67, 47
1, 253136, Control_c, 0, 67, 47
1, 253151, Control_c, 0, 67, 48
1, 253166, Control_c, 0, 67, 49
1, 253181, Control_c, 0, 67, 49
1, 253196, Control_c, 0, 67, 50
1, 253211, Control_c, 0, 67, 52
1, 253225, Control_c, 0, 64, 61
1, 253225, Control_c, 0, 67, 52
1, 253240, Control_c, 0, 64, 68
1, 253255, Control_c, 0, 64, 71
1, 253255, Control_c, 0, 67, 53
1, 253270, Control_c, 0, 64, 75
1, 253270, Control_c, 0, 67, 54
1, 253280, Note_off_c, 0, 51, 60
1, 253285, Control_c, 0, 64, 77
1, 253285, Control_c, 0, 67, 55
1, 253294, Note_on_c, 0, 54, 42
1, 253299, Note_off_c, 0, 42, 41
1, 253299, Control_c, 0, 64, 78
1, 253299, Control_c, 0, 67, 56
1, 253314, Control_c, 0, 64, 78
1, 253314, Control_c, 0, 67, 57
1, 253332, Note_off_c, 0, 66, 64
1, 253344, Control_c, 0, 67, 58
1, 253348, Note_off_c, 0, 78, 63
1, 253359, Control_c, 0, 67, 62
1, 253373, Control_c, 0, 67, 66
1, 253388, Control_c, 0, 67, 69
1, 253403, Control_c, 0, 64, 78
1, 253403, Control_c, 0, 67, 71
1, 253417, Control_c, 0, 64, 77
1, 253417, Control_c, 0, 67, 74
1, 253432, Control_c, 0, 64, 75
1, 253432, Control_c, 0, 67, 77
1, 253447, Control_c, 0, 64, 72
1, 253447, Control_c, 0, 67, 80
1, 253451, Note_on_c, 0, 65, 71
1, 253463, Control_c, 0, 64, 64
1, 253463, Control_c, 0, 67, 82
1, 253465, Note_on_c, 0, 77, 53
1, 253470, Note_on_c, 0, 49, 39
1, 253471, Note_off_c, 0, 54, 40
1, 253478, Control_c, 0, 64, 0
1, 253478, Control_c, 0, 67, 86
1, 253484, Note_on_c, 0, 42, 29
1, 253493, Control_c, 0, 67, 90
1, 253507, Control_c, 0, 67, 94
1, 253522, Control_c, 0, 67, 97
1, 253545, Control_c, 0, 67, 101
1, 253560, Control_c, 0, 67, 103
1, 253575, Control_c, 0, 67, 106
1, 253590, Control_c, 0, 64, 56
1, 253590, Control_c, 0, 67, 108
1, 253604, Control_c, 0, 64, 65
1, 253604, Control_c, 0, 67, 111
1, 253619, Control_c, 0, 64, 69
1, 253619, Control_c, 0, 67, 113
1, 253634, Control_c, 0, 64, 71
1, 253634, Control_c, 0, 67, 115
1, 253648, Control_c, 0, 64, 74
1, 253648, Control_c, 0, 67, 117
1, 253651, Note_on_c, 0, 54, 35
1, 253658, Note_off_c, 0, 77, 54
1, 253661, Note_off_c, 0, 42, 42
1, 253663, Control_c, 0, 64, 76
1, 253663, Control_c, 0, 67, 119
1, 253668, Note_off_c, 0, 65, 61
1, 253678, Control_c, 0, 64, 77
1, 253678, Control_c, 0, 67, 123
1, 253693, Control_c, 0, 67, 125
1, 253708, Control_c, 0, 67, 127
1, 253782, Control_c, 0, 64, 77
1, 253796, Control_c, 0, 64, 75
1, 253811, Control_c, 0, 64, 73
1, 253826, Note_off_c, 0, 54, 36
1, 253826, Control_c, 0, 64, 68
1, 253828, Note_on_c, 0, 63, 50
1, 253832, Note_off_c, 0, 49, 39
1, 253838, Note_on_c, 0, 75, 42
1, 253840, Control_c, 0, 64, 51
1, 253844, Note_on_c, 0, 47, 26
1, 253855, Control_c, 0, 64, 0
1, 253897, Poly_aftertouch_c, 0, 42, 127
1, 253944, Control_c, 0, 64, 57
1, 253959, Control_c, 0, 64, 66
1, 253974, Control_c, 0, 64, 69
1, 253989, Control_c, 0, 64, 72
1, 254004, Control_c, 0, 64, 74
1, 254006, Note_off_c, 0, 75, 57
1, 254014, Poly_aftertouch_c, 0, 42, 0
1, 254019, Control_c, 0, 64, 75
1, 254029, Note_on_c, 0, 54, 31
1, 254034, Control_c, 0, 64, 76
1, 254049, Control_c, 0, 64, 76
1, 254050, Note_off_c, 0, 63, 55
1, 254078, Control_c, 0, 64, 77
1, 254153, Control_c, 0, 64, 76
1, 254183, Control_c, 0, 64, 75
1, 254197, Control_c, 0, 64, 73
1, 254201, Note_on_c, 0, 61, 51
1, 254212, Control_c, 0, 64, 69
1, 254214, Note_on_c, 0, 42, 20
1, 254216, Note_off_c, 0, 54, 26
1, 254227, Control_c, 0, 64, 57
1, 254230, Note_on_c, 0, 73, 21
1, 254232, Note_off_c, 0, 47, 40
1, 254239, Note_on_c, 0, 46, 27
1, 254241, Control_c, 0, 64, 0
1, 254324, Control_c, 0, 64, 53
1, 254339, Control_c, 0, 64, 65
1, 254353, Control_c, 0, 64, 69
1, 254368, Control_c, 0, 64, 72
1, 254383, Control_c, 0, 64, 75
1, 254395, Note_on_c, 0, 54, 40
1, 254398, Control_c, 0, 64, 77
1, 254413, Control_c, 0, 64, 78
1, 254502, Control_c, 0, 64, 77
1, 254512, Note_off_c, 0, 54, 37
1, 254513, Note_off_c, 0, 61, 53
1, 254514, Note_off_c, 0, 42, 40
1, 254517, Control_c, 0, 64, 76
1, 254518, Note_off_c, 0, 73, 37
1, 254529, Note_off_c, 0, 46, 38
1, 254531, Control_c, 0, 64, 72
1, 254546, Control_c, 0, 64, 66
1, 254561, Control_c, 0, 64, 51
1, 254564, Note_on_c, 0, 70, 48
1, 254576, Control_c, 0, 64, 0
1, 254617, Note_off_c, 0, 70, 60
1, 254632, Note_on_c, 0, 71, 59
1, 254709, Note_on_c, 0, 70, 64
1, 254719, Note_off_c, 0, 71, 57
1, 254776, Note_off_c, 0, 70, 61
1, 254781, Note_on_c, 0, 66, 65
1, 254812, Note_off_c, 0, 66, 66
1, 254880, Note_on_c, 0, 71, 62
1, 254932, Note_off_c, 0, 71, 62
1, 254955, Note_on_c, 0, 73, 57
1, 255014, Note_off_c, 0, 73, 59
1, 255027, Note_on_c, 0, 71, 52
1, 255092, Note_off_c, 0, 71, 57
1, 255099, Note_on_c, 0, 68, 57
1, 255186, Note_off_c, 0, 68, 56
1, 255193, Note_on_c, 0, 49, 38
1, 255200, Note_on_c, 0, 65, 52
1, 255273, Note_on_c, 0, 53, 41
1, 255340, Note_off_c, 0, 49, 30
1, 255363, Note_off_c, 0, 53, 63
1, 255366, Note_on_c, 0, 56, 47
1, 255425, Note_off_c, 0, 56, 60
1, 255466, Note_on_c, 0, 59, 32
1, 255551, Note_off_c, 0, 59, 50
1, 255553, Note_off_c, 0, 65, 52
1, 255592, Note_on_c, 0, 47, 41
1, 255951, Note_off_c, 0, 47, 48
1, 256028, Note_on_c, 0, 71, 35
1, 256076, Note_off_c, 0, 71, 58
1, 256092, Note_on_c, 0, 73, 44
1, 256148, Note_off_c, 0, 73, 48
1, 256192, Note_on_c, 0, 71, 43
1, 256229, Note_off_c, 0, 71, 55
1, 256267, Note_on_c, 0, 68, 39
1, 256313, Note_off_c, 0, 68, 46
1, 256362, Note_on_c, 0, 73, 44
1, 256415, Note_off_c, 0, 73, 57
1, 256442, Note_on_c, 0, 75, 35
1, 256482, Note_off_c, 0, 75, 51
1, 256511, Note_on_c, 0, 73, 41
1, 256568, Note_off_c, 0, 73, 55
1, 256585, Note_on_c, 0, 70, 40
1, 256693, Note_off_c, 0, 70, 35
1, 256696, Note_on_c, 0, 66, 28
1, 256702, Note_on_c, 0, 46, 28
1, 256786, Note_on_c, 0, 49, 25
1, 256857, Note_off_c, 0, 46, 41
1, 256880, Note_on_c, 0, 54, 18
1, 256909, Note_off_c, 0, 49, 35
1, 256935, Note_off_c, 0, 54, 42
1, 256957, Note_on_c, 0, 58, 28
1, 257091, Note_off_c, 0, 58, 40
1, 257102, Note_on_c, 0, 46, 31
1, 257113, Note_off_c, 0, 66, 43
1, 257303, Note_off_c, 0, 46, 38
1, 257578, Note_on_c, 0, 70, 43
1, 257638, Note_off_c, 0, 70, 57
1, 257661, Note_on_c, 0, 71, 47
1, 257737, Note_off_c, 0, 71, 55
1, 257746, Note_on_c, 0, 70, 60
1, 257813, Note_on_c, 0, 66, 58
1, 257822, Note_off_c, 0, 70, 56
1, 257908, Note_off_c, 0, 66, 59
1, 257916, Note_on_c, 0, 73, 57
1, 257976, Note_off_c, 0, 73, 62
1, 257977, Note_on_c, 0, 75, 61
1, 258064, Note_on_c, 0, 73, 69
1, 258064, Note_off_c, 0, 75, 62
1, 258082, Control_c, 0, 67, 123
1, 258097, Control_c, 0, 67, 115
1, 258112, Control_c, 0, 67, 108
1, 258126, Control_c, 0, 67, 101
1, 258136, Note_on_c, 0, 70, 59
1, 258136, Note_off_c, 0, 73, 59
1, 258141, Control_c, 0, 67, 93
1, 258156, Control_c, 0, 67, 87
1, 258171, Control_c, 0, 67, 84
1, 258186, Control_c, 0, 67, 82
1, 258213, Note_off_c, 0, 70, 59
1, 258215, Control_c, 0, 67, 83
1, 258219, Note_on_c, 0, 67, 64
1, 258220, Note_on_c, 0, 51, 46
1, 258230, Control_c, 0, 67, 84
1, 258261, Control_c, 0, 67, 85
1, 258276, Control_c, 0, 67, 87
1, 258290, Control_c, 0, 67, 89
1, 258304, Note_on_c, 0, 55, 49
1, 258305, Control_c, 0, 67, 91
1, 258320, Control_c, 0, 67, 94
1, 258333, Note_off_c, 0, 51, 58
1, 258335, Control_c, 0, 67, 99
1, 258350, Control_c, 0, 67, 111
1, 258365, Control_c, 0, 67, 127
1, 258376, Note_on_c, 0, 58, 55
1, 258379, Control_c, 0, 67, 127
1, 258410, Note_off_c, 0, 55, 61
1, 258453, Note_off_c, 0, 58, 63
1, 258457, Note_on_c, 0, 61, 57
1, 258528, Note_off_c, 0, 67, 56
1, 258556, Note_on_c, 0, 49, 51
1, 258556, Note_off_c, 0, 61, 58
1, 258800, Note_off_c, 0, 49, 58
1, 258966, Note_on_c, 0, 73, 51
1, 259036, Note_on_c, 0, 75, 60
1, 259039, Note_off_c, 0, 73, 64
1, 259116, Note_on_c, 0, 73, 72
1, 259128, Note_off_c, 0, 75, 59
1, 259196, Note_on_c, 0, 70, 73
1, 259200, Note_off_c, 0, 73, 62
1, 259285, Note_on_c, 0, 75, 75
1, 259290, Note_off_c, 0, 70, 62
1, 259352, Note_on_c, 0, 76, 69
1, 259361, Note_off_c, 0, 75, 64
1, 259426, Note_on_c, 0, 75, 68
1, 259456, Note_off_c, 0, 76, 65
1, 259509, Note_on_c, 0, 71, 74
1, 259510, Note_off_c, 0, 75, 65
1, 259548, Control_c, 0, 67, 111
1, 259563, Control_c, 0, 67, 98
1, 259578, Control_c, 0, 67, 84
1, 259589, Note_off_c, 0, 71, 56
1, 259593, Control_c, 0, 67, 70
1, 259602, Note_on_c, 0, 68, 76
1, 259608, Control_c, 0, 67, 56
1, 259611, Note_on_c, 0, 47, 54
1, 259623, Control_c, 0, 67, 43
1, 259638, Control_c, 0, 67, 32
1, 259653, Control_c, 0, 67, 23
1, 259667, Control_c, 0, 67, 19
1, 259682, Control_c, 0, 67, 14
1, 259682, Note_on_c, 0, 51, 52
1, 259697, Control_c, 0, 64, 62
1, 259697, Control_c, 0, 67, 10
1, 259712, Control_c, 0, 64, 69
1, 259712, Control_c, 0, 67, 0
1, 259727, Control_c, 0, 64, 75
1, 259741, Control_c, 0, 64, 82
1, 259756, Control_c, 0, 64, 85
1, 259763, Note_on_c, 0, 56, 59
1, 259771, Control_c, 0, 64, 86
1, 259785, Control_c, 0, 64, 87
1, 259797, Note_off_c, 0, 51, 56
1, 259800, Control_c, 0, 64, 88
1, 259801, Note_off_c, 0, 47, 25
1, 259815, Control_c, 0, 64, 88
1, 259834, Note_off_c, 0, 56, 62
1, 259841, Note_on_c, 0, 59, 69
1, 259879, Note_off_c, 0, 68, 61
1, 259922, Note_off_c, 0, 59, 58
1, 259935, Control_c, 0, 64, 88
1, 259949, Control_c, 0, 64, 85
1, 259955, Note_on_c, 0, 47, 73
1, 259964, Control_c, 0, 64, 81
1, 259979, Control_c, 0, 64, 72
1, 259994, Control_c, 0, 64, 56
1, 260008, Control_c, 0, 64, 0
1, 260008, Control_c, 0, 67, 8
1, 260023, Control_c, 0, 67, 10
1, 260038, Control_c, 0, 67, 12
1, 260053, Control_c, 0, 67, 18
1, 260068, Control_c, 0, 67, 27
1, 260082, Control_c, 0, 67, 38
1, 260097, Control_c, 0, 67, 51
1, 260112, Control_c, 0, 67, 66
1, 260127, Control_c, 0, 67, 86
1, 260142, Control_c, 0, 67, 105
1, 260156, Control_c, 0, 67, 127
1, 260171, Control_c, 0, 67, 127
1, 260189, Note_off_c, 0, 47, 62
1, 260425, Note_on_c, 0, 88, 69
1, 260443, Note_on_c, 0, 56, 49
1, 260446, Note_on_c, 0, 44, 36
1, 260455, Note_on_c, 0, 52, 38
1, 260476, Note_on_c, 0, 47, 44
1, 260490, Control_c, 0, 64, 35
1, 260505, Control_c, 0, 64, 50
1, 260520, Control_c, 0, 64, 57
1, 260535, Control_c, 0, 64, 62
1, 260550, Control_c, 0, 64, 64
1, 260564, Control_c, 0, 64, 67
1, 260575, Note_on_c, 0, 87, 75
1, 260579, Control_c, 0, 64, 69
1, 260594, Control_c, 0, 64, 73
1, 260608, Note_off_c, 0, 52, 57
1, 260608, Control_c, 0, 64, 77
1, 260608, Control_c, 0, 67, 120
1, 260623, Control_c, 0, 64, 79
1, 260623, Control_c, 0, 67, 105
1, 260638, Control_c, 0, 64, 80
1, 260638, Control_c, 0, 67, 90
1, 260654, Control_c, 0, 64, 80
1, 260654, Control_c, 0, 67, 74
1, 260669, Control_c, 0, 64, 81
1, 260669, Control_c, 0, 67, 59
1, 260671, Note_off_c, 0, 88, 32
1, 260684, Control_c, 0, 64, 81
1, 260684, Control_c, 0, 67, 46
1, 260693, Note_on_c, 0, 85, 84
1, 260699, Control_c, 0, 64, 82
1, 260699, Control_c, 0, 67, 33
1, 260713, Control_c, 0, 67, 21
1, 260720, Note_off_c, 0, 56, 61
1, 260729, Control_c, 0, 67, 11
1, 260732, Note_off_c, 0, 44, 56
1, 260742, Note_off_c, 0, 87, 58
1, 260744, Control_c, 0, 67, 0
1, 260795, Note_on_c, 0, 83, 87
1, 260801, Note_on_c, 0, 57, 85
1, 260815, Note_on_c, 0, 45, 68
1, 260815, Note_on_c, 0, 49, 72
1, 260815, Note_on_c, 0, 54, 77
1, 260821, Note_off_c, 0, 85, 63
1, 260827, Note_off_c, 0, 47, 34
1, 260847, Control_c, 0, 64, 81
1, 260862, Control_c, 0, 64, 79
1, 260877, Control_c, 0, 64, 74
1, 260892, Control_c, 0, 64, 66
1, 260902, Note_on_c, 0, 81, 86
1, 260905, Note_off_c, 0, 83, 63
1, 260906, Control_c, 0, 64, 0
1, 261008, Note_on_c, 0, 80, 86
1, 261046, Note_off_c, 0, 81, 62
1, 261092, Control_c, 0, 64, 52
1, 261107, Control_c, 0, 64, 62
1, 261121, Control_c, 0, 64, 65
1, 261122, Note_on_c, 0, 78, 90
1, 261136, Control_c, 0, 64, 67
1, 261150, Control_c, 0, 64, 71
1, 261162, Note_off_c, 0, 80, 62
1, 261165, Control_c, 0, 64, 75
1, 261180, Control_c, 0, 64, 78
1, 261195, Control_c, 0, 64, 79
1, 261210, Control_c, 0, 64, 79
1, 261224, Control_c, 0, 64, 80
1, 261230, Note_on_c, 0, 76, 88
1, 261240, Note_off_c, 0, 78, 62
1, 261267, Note_off_c, 0, 49, 60
1, 261279, Note_off_c, 0, 45, 38
1, 261296, Note_off_c, 0, 54, 55
1, 261312, Note_off_c, 0, 57, 53
1, 261313, Control_c, 0, 67, 8
1, 261328, Control_c, 0, 67, 10
1, 261331, Note_on_c, 0, 75, 90
1, 261343, Control_c, 0, 67, 12
1, 261358, Control_c, 0, 67, 14
1, 261362, Note_off_c, 0, 76, 66
1, 261373, Control_c, 0, 67, 15
1, 261402, Control_c, 0, 67, 16
1, 261417, Control_c, 0, 64, 79
1, 261432, Control_c, 0, 64, 79
1, 261432, Control_c, 0, 67, 16
1, 261447, Control_c, 0, 64, 78
1, 261460, Note_on_c, 0, 73, 88
1, 261462, Control_c, 0, 64, 77
1, 261463, Note_on_c, 0, 57, 76
1, 261465, Note_on_c, 0, 47, 72
1, 261467, Note_on_c, 0, 59, 83
1, 261471, Note_on_c, 0, 54, 72
1, 261475, Note_on_c, 0, 51, 71
1, 261477, Control_c, 0, 64, 75
1, 261492, Control_c, 0, 64, 72
1, 261492, Control_c, 0, 67, 17
1, 261504, Note_off_c, 0, 75, 57
1, 261507, Control_c, 0, 64, 67
1, 261522, Control_c, 0, 64, 60
1, 261536, Control_c, 0, 64, 27
1, 261551, Control_c, 0, 64, 0
1, 261566, Control_c, 0, 67, 16
1, 261576, Note_on_c, 0, 71, 86
1, 261597, Note_off_c, 0, 73, 59
1, 261640, Control_c, 0, 67, 16
1, 261674, Note_on_c, 0, 70, 86
1, 261703, Note_off_c, 0, 71, 60
1, 261758, Control_c, 0, 67, 15
1, 261790, Note_on_c, 0, 71, 85
1, 261791, Note_off_c, 0, 70, 60
1, 261889, Note_on_c, 0, 73, 83
1, 261895, Note_off_c, 0, 71, 58
1, 261928, Control_c, 0, 67, 15
1, 261972, Note_off_c, 0, 73, 58
1, 261991, Note_off_c, 0, 54, 60
1, 262004, Note_on_c, 0, 75, 79
1, 262017, Control_c, 0, 64, 40
1, 262019, Note_off_c, 0, 51, 61
1, 262032, Control_c, 0, 64, 64
1, 262046, Control_c, 0, 64, 69
1, 262061, Control_c, 0, 64, 73
1, 262064, Note_off_c, 0, 59, 48
1, 262068, Note_off_c, 0, 75, 67
1, 262073, Note_off_c, 0, 57, 37
1, 262076, Control_c, 0, 64, 78
1, 262091, Control_c, 0, 64, 79
1, 262106, Control_c, 0, 64, 80
1, 262106, Control_c, 0, 67, 14
1, 262121, Control_c, 0, 64, 80
1, 262136, Control_c, 0, 67, 14
1, 262180, Control_c, 0, 64, 80
1, 262180, Note_on_c, 0, 76, 90
1, 262183, Note_on_c, 0, 64, 87
1, 262186, Note_on_c, 0, 68, 90
1, 262192, Note_on_c, 0, 71, 83
1, 262195, Note_on_c, 0, 59, 79
1, 262195, Control_c, 0, 64, 75
1, 262195, Control_c, 0, 67, 14
1, 262195, Note_on_c, 0, 56, 75
1, 262201, Note_on_c, 0, 52, 79
1, 262210, Control_c, 0, 64, 66
1, 262210, Control_c, 0, 67, 15
1, 262219, Poly_aftertouch_c, 0, 70, 0
1, 262225, Control_c, 0, 64, 0
1, 262225, Control_c, 0, 67, 15
1, 262242, Note_off_c, 0, 47, 35
1, 262255, Control_c, 0, 67, 16
1, 262270, Control_c, 0, 67, 17
1, 262285, Control_c, 0, 67, 17
1, 262315, Control_c, 0, 64, 63
1, 262315, Control_c, 0, 67, 18
1, 262330, Control_c, 0, 64, 72
1, 262344, Control_c, 0, 64, 80
1, 262351, Note_off_c, 0, 64, 62
1, 262359, Control_c, 0, 64, 86
1, 262373, Note_off_c, 0, 76, 63
1, 262374, Control_c, 0, 64, 87
1, 262381, Note_off_c, 0, 68, 61
1, 262389, Note_off_c, 0, 56, 61
1, 262398, Note_off_c, 0, 71, 60
1, 262403, Control_c, 0, 64, 87
1, 262443, Note_off_c, 0, 59, 47
1, 262452, Note_off_c, 0, 52, 60
1, 262463, Control_c, 0, 67, 18
1, 262574, Control_c, 0, 64, 87
1, 262589, Control_c, 0, 64, 83
1, 262597, Note_on_c, 0, 78, 96
1, 262598, Note_on_c, 0, 66, 93
1, 262601, Note_on_c, 0, 69, 87
1, 262603, Control_c, 0, 64, 72
1, 262603, Control_c, 0, 67, 17
1, 262605, Note_on_c, 0, 59, 84
1, 262607, Note_on_c, 0, 75, 77
1, 262614, Note_on_c, 0, 47, 75
1, 262615, Note_on_c, 0, 54, 76
1, 262618, Control_c, 0, 64, 0
1, 262618, Control_c, 0, 67, 16
1, 262624, Note_on_c, 0, 51, 71
1, 262633, Control_c, 0, 67, 15
1, 262640, Note_on_c, 0, 67, 38
1, 262648, Control_c, 0, 67, 14
1, 262672, Note_off_c, 0, 67, 39
1, 262677, Control_c, 0, 64, 54
1, 262677, Control_c, 0, 67, 13
1, 262692, Control_c, 0, 64, 69
1, 262692, Control_c, 0, 67, 12
1, 262693, Note_off_c, 0, 69, 63
1, 262707, Control_c, 0, 64, 79
1, 262707, Control_c, 0, 67, 11
1, 262714, Note_off_c, 0, 59, 63
1, 262722, Control_c, 0, 64, 89
1, 262722, Control_c, 0, 67, 10
1, 262736, Note_off_c, 0, 51, 63
1, 262737, Control_c, 0, 64, 92
1, 262737, Control_c, 0, 67, 9
1, 262741, Note_off_c, 0, 54, 61
1, 262751, Note_off_c, 0, 66, 63
1, 262751, Control_c, 0, 64, 92
1, 262754, Note_off_c, 0, 47, 63
1, 262791, Note_off_c, 0, 78, 62
1, 262810, Control_c, 0, 67, 10
1, 262825, Control_c, 0, 67, 10
1, 262832, Note_off_c, 0, 75, 56
1, 262840, Control_c, 0, 67, 11
1, 262855, Control_c, 0, 67, 12
1, 262870, Control_c, 0, 67, 13
1, 262884, Control_c, 0, 67, 14
1, 262914, Control_c, 0, 64, 92
1, 262914, Control_c, 0, 67, 14
1, 262988, Control_c, 0, 64, 91
1, 262990, Note_on_c, 0, 80, 94
1, 262994, Note_on_c, 0, 68, 92
1, 262994, Note_on_c, 0, 71, 83
1, 263003, Note_on_c, 0, 76, 80
1, 263003, Control_c, 0, 64, 89
1, 263008, Note_on_c, 0, 52, 83
1, 263011, Note_on_c, 0, 40, 76
1, 263014, Note_on_c, 0, 47, 81
1, 263018, Control_c, 0, 64, 85
1, 263018, Control_c, 0, 67, 15
1, 263022, Note_on_c, 0, 44, 76
1, 263033, Control_c, 0, 64, 76
1, 263033, Control_c, 0, 67, 16
1, 263048, Control_c, 0, 64, 64
1, 263048, Control_c, 0, 67, 16
1, 263063, Control_c, 0, 64, 0
1, 263063, Control_c, 0, 67, 17
1, 263078, Control_c, 0, 67, 17
1, 263108, Control_c, 0, 67, 16
1, 263122, Control_c, 0, 67, 15
1, 263137, Control_c, 0, 67, 14
1, 263152, Control_c, 0, 67, 13
1, 263167, Control_c, 0, 67, 12
1, 263212, Control_c, 0, 64, 58
1, 263226, Control_c, 0, 64, 68
1, 263241, Control_c, 0, 64, 76
1, 263241, Control_c, 0, 67, 13
1, 263256, Control_c, 0, 64, 84
1, 263256, Control_c, 0, 67, 14
1, 263278, Control_c, 0, 64, 87
1, 263278, Control_c, 0, 67, 16
1, 263293, Control_c, 0, 64, 88
1, 263293, Control_c, 0, 67, 19
1, 263307, Control_c, 0, 64, 88
1, 263307, Control_c, 0, 67, 27
1, 263322, Control_c, 0, 67, 45
1, 263331, Note_off_c, 0, 80, 61
1, 263336, Note_off_c, 0, 40, 62
1, 263337, Note_off_c, 0, 76, 60
1, 263337, Control_c, 0, 67, 72
1, 263345, Note_off_c, 0, 71, 58
1, 263349, Note_off_c, 0, 68, 49
1, 263351, Note_off_c, 0, 52, 55
1, 263352, Control_c, 0, 64, 87
1, 263352, Control_c, 0, 67, 107
1, 263354, Note_off_c, 0, 47, 60
1, 263367, Control_c, 0, 64, 80
1, 263367, Control_c, 0, 67, 127
1, 263371, Note_off_c, 0, 44, 54
1, 263382, Control_c, 0, 64, 68
1, 263397, Control_c, 0, 64, 0
1, 264052, Note_on_c, 0, 68, 40
1, 264058, Note_on_c, 0, 59, 34
1, 264071, Note_on_c, 0, 56, 25
1, 264075, Note_on_c, 0, 64, 33
1, 264088, Note_on_c, 0, 52, 27
1, 264202, Note_off_c, 0, 52, 52
1, 264214, Note_off_c, 0, 56, 52
1, 264225, Note_off_c, 0, 64, 52
1, 264233, Note_off_c, 0, 59, 47
1, 264247, Note_off_c, 0, 68, 57
1, 264916, Note_on_c, 0, 69, 46
1, 264920, Note_on_c, 0, 61, 39
1, 264935, Note_on_c, 0, 45, 29
1, 264938, Note_on_c, 0, 54, 26
1, 264938, Note_on_c, 0, 49, 16
1, 264948, Note_on_c, 0, 66, 26
1, 265038, Note_off_c, 0, 61, 44
1, 265063, Note_off_c, 0, 45, 48
1, 265075, Note_off_c, 0, 66, 32
1, 265077, Note_off_c, 0, 69, 55
1, 265084, Note_off_c, 0, 49, 42
1, 265087, Note_off_c, 0, 54, 48
1, 265540, Control_c, 0, 64, 26
1, 265555, Control_c, 0, 64, 44
1, 265570, Control_c, 0, 64, 54
1, 265585, Control_c, 0, 64, 59
1, 265600, Control_c, 0, 64, 62
1, 265614, Control_c, 0, 64, 64
1, 265629, Control_c, 0, 64, 66
1, 265644, Control_c, 0, 64, 67
1, 265659, Control_c, 0, 64, 69
1, 265674, Control_c, 0, 64, 70
1, 265689, Control_c, 0, 64, 73
1, 265703, Control_c, 0, 64, 75
1, 265718, Control_c, 0, 64, 76
1, 265748, Control_c, 0, 64, 77
1, 265777, Control_c, 0, 64, 77
1, 265789, Note_on_c, 0, 78, 90
1, 265792, Control_c, 0, 64, 78
1, 265792, Control_c, 0, 67, 115
1, 265796, Note_on_c, 0, 71, 73
1, 265803, Note_on_c, 0, 59, 57
1, 265803, Note_on_c, 0, 75, 66
1, 265807, Control_c, 0, 64, 78
1, 265807, Control_c, 0, 67, 96
1, 265808, Note_on_c, 0, 63, 55
1, 265811, Note_on_c, 0, 66, 59
1, 265821, Control_c, 0, 64, 79
1, 265821, Control_c, 0, 67, 67
1, 265836, Control_c, 0, 64, 80
1, 265836, Control_c, 0, 67, 38
1, 265851, Control_c, 0, 64, 81
1, 265851, Control_c, 0, 67, 10
1, 265866, Control_c, 0, 64, 83
1, 265866, Control_c, 0, 67, 0
1, 265881, Control_c, 0, 64, 85
1, 265895, Control_c, 0, 64, 88
1, 265910, Control_c, 0, 64, 91
1, 265925, Control_c, 0, 64, 94
1, 265930, Note_off_c, 0, 75, 63
1, 265940, Control_c, 0, 64, 95
1, 265953, Note_off_c, 0, 63, 59
1, 265954, Control_c, 0, 64, 97
1, 265969, Control_c, 0, 64, 98
1, 266020, Note_off_c, 0, 59, 55
1, 266034, Note_off_c, 0, 78, 63
1, 266039, Note_off_c, 0, 71, 48
1, 266100, Note_off_c, 0, 66, 34
1, 266176, Control_c, 0, 64, 97
1, 266191, Control_c, 0, 64, 96
1, 266202, Note_on_c, 0, 80, 93
1, 266206, Control_c, 0, 64, 94
1, 266212, Note_on_c, 0, 56, 62
1, 266213, Note_on_c, 0, 71, 72
1, 266217, Note_on_c, 0, 59, 55
1, 266217, Note_on_c, 0, 61, 58
1, 266217, Note_on_c, 0, 77, 69
1, 266217, Note_on_c, 0, 65, 68
1, 266217, Note_on_c, 0, 73, 66
1, 266220, Control_c, 0, 64, 92
1, 266235, Control_c, 0, 64, 88
1, 266251, Control_c, 0, 64, 80
1, 266273, Control_c, 0, 64, 68
1, 266288, Control_c, 0, 64, 0
1, 266363, Control_c, 0, 64, 21
1, 266377, Control_c, 0, 64, 63
1, 266392, Control_c, 0, 64, 71
1, 266393, Note_off_c, 0, 73, 51
1, 266404, Note_off_c, 0, 56, 57
1, 266407, Control_c, 0, 64, 78
1, 266422, Control_c, 0, 64, 84
1, 266437, Control_c, 0, 64, 86
1, 266444, Note_off_c, 0, 65, 57
1, 266451, Control_c, 0, 64, 87
1, 266456, Note_off_c, 0, 71, 60
1, 266466, Control_c, 0, 64, 88
1, 266476, Note_off_c, 0, 61, 53
1, 266481, Control_c, 0, 64, 89
1, 266496, Control_c, 0, 64, 90
1, 266496, Control_c, 0, 67, 8
1, 266507, Note_off_c, 0, 80, 58
1, 266511, Control_c, 0, 64, 91
1, 266511, Control_c, 0, 67, 10
1, 266525, Control_c, 0, 67, 11
1, 266569, Control_c, 0, 67, 12
1, 266599, Control_c, 0, 67, 12
1, 266601, Note_off_c, 0, 77, 32
1, 266614, Control_c, 0, 67, 12
1, 266629, Control_c, 0, 67, 11
1, 266643, Control_c, 0, 67, 11
1, 266658, Control_c, 0, 64, 90
1, 266658, Control_c, 0, 67, 10
1, 266664, Note_on_c, 0, 81, 90
1, 266671, Note_on_c, 0, 69, 75
1, 266673, Note_on_c, 0, 73, 65
1, 266673, Note_on_c, 0, 54, 56
1, 266673, Control_c, 0, 67, 9
1, 266677, Note_on_c, 0, 61, 59
1, 266677, Note_on_c, 0, 78, 70
1, 266682, Note_on_c, 0, 66, 66
1, 266688, Control_c, 0, 64, 90
1, 266688, Control_c, 0, 67, 0
1, 266689, Note_off_c, 0, 59, 51
1, 266693, Note_on_c, 0, 57, 57
1, 266703, Control_c, 0, 64, 89
1, 266718, Control_c, 0, 64, 89
1, 266733, Control_c, 0, 64, 88
1, 266748, Control_c, 0, 64, 87
1, 266762, Control_c, 0, 64, 85
1, 266777, Control_c, 0, 64, 80
1, 266792, Control_c, 0, 64, 71
1, 266807, Control_c, 0, 64, 48
1, 266807, Control_c, 0, 67, 8
1, 266822, Control_c, 0, 64, 0
1, 266822, Control_c, 0, 67, 10
1, 266837, Control_c, 0, 67, 13
1, 266852, Control_c, 0, 67, 17
1, 266866, Control_c, 0, 67, 29
1, 266881, Control_c, 0, 67, 47
1, 266896, Control_c, 0, 67, 68
1, 266911, Control_c, 0, 67, 92
1, 266926, Control_c, 0, 67, 120
1, 266941, Control_c, 0, 67, 127
1, 266990, Note_off_c, 0, 81, 59
1, 267021, Note_off_c, 0, 66, 65
1, 267024, Note_off_c, 0, 69, 56
1, 267025, Note_off_c, 0, 61, 55
1, 267029, Note_off_c, 0, 57, 57
1, 267033, Note_off_c, 0, 78, 61
1, 267039, Note_off_c, 0, 73, 61
1, 267075, Note_off_c, 0, 54, 62
1, 267751, Note_on_c, 0, 69, 43
1, 267761, Note_on_c, 0, 61, 34
1, 267775, Note_on_c, 0, 57, 27
1, 267776, Note_on_c, 0, 54, 26
1, 267804, Note_on_c, 0, 66, 17
1, 267897, Note_off_c, 0, 54, 45
1, 267897, Note_off_c, 0, 69, 53
1, 267920, Note_off_c, 0, 57, 36
1, 267932, Note_off_c, 0, 61, 35
1, 267939, Note_off_c, 0, 66, 32
1, 268497, Control_c, 0, 64, 28
1, 268520, Control_c, 0, 64, 56
1, 268535, Control_c, 0, 64, 62
1, 268549, Control_c, 0, 64, 65
1, 268564, Control_c, 0, 64, 66
1, 268579, Control_c, 0, 64, 67
1, 268594, Control_c, 0, 64, 69
1, 268609, Control_c, 0, 64, 70
1, 268623, Control_c, 0, 64, 70
1, 268634, Note_on_c, 0, 71, 50
1, 268638, Note_on_c, 0, 47, 35
1, 268650, Note_on_c, 0, 62, 33
1, 268652, Note_on_c, 0, 56, 34
1, 268654, Control_c, 0, 64, 70
1, 268669, Control_c, 0, 64, 69
1, 268684, Control_c, 0, 64, 65
1, 268699, Control_c, 0, 64, 57
1, 268713, Control_c, 0, 64, 0
1, 268727, Poly_aftertouch_c, 0, 68, 127
1, 268809, Note_off_c, 0, 47, 44
1, 268813, Note_off_c, 0, 56, 44
1, 268817, Note_off_c, 0, 62, 40
1, 268842, Note_off_c, 0, 71, 54
1, 268865, Poly_aftertouch_c, 0, 68, 0
1, 269217, Control_c, 0, 64, 21
1, 269232, Control_c, 0, 64, 28
1, 269246, Control_c, 0, 64, 37
1, 269269, Control_c, 0, 64, 45
1, 269284, Control_c, 0, 64, 51
1, 269299, Control_c, 0, 64, 56
1, 269314, Control_c, 0, 64, 60
1, 269328, Control_c, 0, 64, 62
1, 269343, Control_c, 0, 64, 63
1, 269358, Control_c, 0, 64, 65
1, 269372, Control_c, 0, 64, 67
1, 269387, Control_c, 0, 64, 69
1, 269402, Control_c, 0, 64, 72
1, 269417, Control_c, 0, 64, 75
1, 269432, Control_c, 0, 64, 78
1, 269448, Control_c, 0, 64, 79
1, 269462, Control_c, 0, 64, 80
1, 269477, Control_c, 0, 64, 80
1, 269492, Control_c, 0, 64, 81
1, 269507, Control_c, 0, 64, 81
1, 269522, Control_c, 0, 64, 82
1, 269551, Control_c, 0, 64, 82
1, 269553, Note_on_c, 0, 80, 80
1, 269566, Control_c, 0, 64, 83
1, 269581, Note_on_c, 0, 71, 43
1, 269581, Control_c, 0, 64, 84
1, 269585, Note_on_c, 0, 61, 40
1, 269595, Control_c, 0, 64, 86
1, 269597, Note_on_c, 0, 65, 38
1, 269600, Note_on_c, 0, 77, 27
1, 269610, Control_c, 0, 64, 87
1, 269612, Note_on_c, 0, 73, 12
1, 269625, Control_c, 0, 64, 90
1, 269636, Note_off_c, 0, 71, 0
1, 269636, Note_on_c, 0, 71, 25
1, 269640, Control_c, 0, 64, 93
1, 269655, Control_c, 0, 64, 95
1, 269669, Control_c, 0, 64, 98
1, 269669, Control_c, 0, 67, 120
1, 269684, Control_c, 0, 64, 100
1, 269684, Control_c, 0, 67, 108
1, 269699, Control_c, 0, 64, 101
1, 269699, Control_c, 0, 67, 96
1, 269713, Control_c, 0, 64, 102
1, 269713, Control_c, 0, 67, 81
1, 269728, Control_c, 0, 64, 102
1, 269728, Control_c, 0, 67, 65
1, 269740, Note_off_c, 0, 65, 48
1, 269743, Control_c, 0, 67, 49
1, 269754, Note_off_c, 0, 61, 56
1, 269758, Control_c, 0, 67, 30
1, 269773, Control_c, 0, 67, 18
1, 269775, Note_off_c, 0, 71, 47
1, 269787, Control_c, 0, 67, 10
1, 269788, Note_off_c, 0, 73, 42
1, 269802, Control_c, 0, 67, 8
1, 269808, Note_off_c, 0, 77, 56
1, 269820, Note_off_c, 0, 80, 63
1, 269832, Control_c, 0, 67, 9
1, 269847, Control_c, 0, 67, 11
1, 269861, Control_c, 0, 67, 13
1, 269876, Control_c, 0, 67, 14
1, 269891, Control_c, 0, 67, 15
1, 269906, Control_c, 0, 67, 15
1, 269921, Control_c, 0, 64, 102
1, 269921, Control_c, 0, 67, 16
1, 269935, Control_c, 0, 67, 17
1, 269950, Control_c, 0, 67, 18
1, 269965, Control_c, 0, 64, 101
1, 269965, Control_c, 0, 67, 19
1, 269980, Control_c, 0, 64, 101
1, 269980, Control_c, 0, 67, 19
1, 269994, Control_c, 0, 64, 100
1, 269994, Control_c, 0, 67, 20
1, 269999, Note_on_c, 0, 82, 84
1, 270017, Control_c, 0, 64, 96
1, 270017, Control_c, 0, 67, 21
1, 270023, Note_on_c, 0, 73, 48
1, 270028, Note_on_c, 0, 70, 54
1, 270032, Control_c, 0, 64, 90
1, 270032, Control_c, 0, 67, 23
1, 270036, Note_on_c, 0, 61, 32
1, 270041, Note_on_c, 0, 64, 39
1, 270044, Note_on_c, 0, 54, 34
1, 270047, Note_on_c, 0, 76, 43
1, 270047, Control_c, 0, 64, 82
1, 270047, Control_c, 0, 67, 25
1, 270062, Control_c, 0, 64, 73
1, 270062, Control_c, 0, 67, 26
1, 270076, Control_c, 0, 64, 59
1, 270076, Control_c, 0, 67, 27
1, 270091, Control_c, 0, 64, 0
1, 270091, Control_c, 0, 67, 28
1, 270106, Control_c, 0, 67, 30
1, 270120, Control_c, 0, 67, 31
1, 270135, Control_c, 0, 64, 39
1, 270135, Control_c, 0, 67, 32
1, 270145, Note_off_c, 0, 73, 62
1, 270150, Control_c, 0, 64, 63
1, 270150, Control_c, 0, 67, 34
1, 270165, Control_c, 0, 64, 68
1, 270165, Control_c, 0, 67, 36
1, 270180, Control_c, 0, 64, 74
1, 270180, Control_c, 0, 67, 38
1, 270194, Control_c, 0, 64, 81
1, 270194, Control_c, 0, 67, 39
1, 270209, Control_c, 0, 64, 85
1, 270209, Control_c, 0, 67, 39
1, 270220, Note_off_c, 0, 61, 39
1, 270224, Control_c, 0, 64, 86
1, 270224, Control_c, 0, 67, 40
1, 270239, Note_off_c, 0, 64, 41
1, 270240, Control_c, 0, 64, 86
1, 270240, Control_c, 0, 67, 41
1, 270255, Note_off_c, 0, 70, 60
1, 270255, Control_c, 0, 64, 87
1, 270255, Control_c, 0, 67, 43
1, 270270, Control_c, 0, 67, 47
1, 270285, Control_c, 0, 67, 51
1, 270299, Control_c, 0, 67, 56
1, 270310, Note_off_c, 0, 54, 35
1, 270314, Control_c, 0, 67, 61
1, 270329, Note_off_c, 0, 76, 40
1, 270329, Control_c, 0, 67, 65
1, 270335, Note_off_c, 0, 82, 61
1, 270344, Control_c, 0, 67, 70
1, 270358, Control_c, 0, 67, 74
1, 270373, Control_c, 0, 67, 79
1, 270388, Control_c, 0, 67, 84
1, 270403, Control_c, 0, 67, 90
1, 270417, Control_c, 0, 67, 96
1, 270432, Control_c, 0, 67, 102
1, 270447, Control_c, 0, 67, 108
1, 270463, Control_c, 0, 67, 112
1, 270478, Control_c, 0, 67, 115
1, 270492, Control_c, 0, 64, 86
1, 270492, Control_c, 0, 67, 117
1, 270494, Note_on_c, 0, 83, 72
1, 270507, Note_on_c, 0, 74, 46
1, 270507, Control_c, 0, 64, 86
1, 270507, Control_c, 0, 67, 119
1, 270514, Note_on_c, 0, 71, 51
1, 270518, Note_on_c, 0, 59, 32
1, 270522, Control_c, 0, 64, 84
1, 270522, Control_c, 0, 67, 122
1, 270526, Note_on_c, 0, 62, 38
1, 270536, Control_c, 0, 64, 82
1, 270536, Control_c, 0, 67, 124
1, 270551, Control_c, 0, 64, 79
1, 270551, Control_c, 0, 67, 126
1, 270566, Control_c, 0, 64, 74
1, 270566, Control_c, 0, 67, 127
1, 270581, Control_c, 0, 64, 66
1, 270596, Control_c, 0, 64, 0
1, 270850, Note_off_c, 0, 83, 55
1, 270867, Note_off_c, 0, 62, 43
1, 270875, Note_off_c, 0, 59, 41
1, 270891, Note_off_c, 0, 71, 43
1, 270894, Note_off_c, 0, 74, 57
1, 271463, Control_c, 0, 64, 48
1, 271478, Control_c, 0, 64, 63
1, 271493, Control_c, 0, 64, 66
1, 271514, Control_c, 0, 64, 69
1, 271529, Control_c, 0, 64, 73
1, 271544, Note_on_c, 0, 62, 32
1, 271544, Note_on_c, 0, 66, 34
1, 271544, Note_on_c, 0, 59, 28
1, 271544, Control_c, 0, 64, 77
1, 271546, Note_on_c, 0, 71, 33
1, 271548, Note_on_c, 0, 74, 36
1, 271559, Control_c, 0, 64, 82
1, 271573, Control_c, 0, 64, 83
1, 271698, Note_off_c, 0, 59, 40
1, 271714, Note_off_c, 0, 62, 42
1, 271722, Control_c, 0, 64, 82
1, 271737, Control_c, 0, 64, 82
1, 271740, Note_off_c, 0, 71, 34
1, 271743, Note_off_c, 0, 74, 57
1, 271750, Note_off_c, 0, 66, 43
1, 271752, Control_c, 0, 64, 81
1, 271766, Control_c, 0, 64, 78
1, 271781, Control_c, 0, 64, 75
1, 271796, Control_c, 0, 64, 68
1, 271811, Control_c, 0, 64, 52
1, 271826, Control_c, 0, 64, 0
1, 272455, Note_on_c, 0, 67, 37
1, 272462, Note_on_c, 0, 76, 31
1, 272470, Control_c, 0, 64, 22
1, 272482, Note_on_c, 0, 61, 32
1, 272485, Control_c, 0, 64, 52
1, 272490, Note_on_c, 0, 52, 21
1, 272500, Control_c, 0, 64, 61
1, 272506, Note_on_c, 0, 55, 24
1, 272513, Note_on_c, 0, 73, 13
1, 272514, Control_c, 0, 64, 65
1, 272529, Control_c, 0, 64, 68
1, 272544, Control_c, 0, 64, 71
1, 272559, Control_c, 0, 64, 75
1, 272574, Control_c, 0, 64, 78
1, 272588, Control_c, 0, 64, 79
1, 272673, Note_off_c, 0, 67, 36
1, 272676, Note_off_c, 0, 52, 39
1, 272679, Control_c, 0, 64, 79
1, 272681, Note_off_c, 0, 55, 42
1, 272691, Note_off_c, 0, 61, 48
1, 272693, Control_c, 0, 64, 77
1, 272708, Control_c, 0, 64, 74
1, 272712, Note_off_c, 0, 76, 34
1, 272723, Control_c, 0, 64, 69
1, 272737, Note_off_c, 0, 73, 37
1, 272738, Control_c, 0, 64, 64
1, 272753, Control_c, 0, 64, 46
1, 272767, Control_c, 0, 64, 0
1, 273115, Control_c, 0, 64, 25
1, 273130, Control_c, 0, 64, 46
1, 273144, Control_c, 0, 64, 49
1, 273159, Control_c, 0, 64, 50
1, 273174, Control_c, 0, 64, 52
1, 273189, Control_c, 0, 64, 53
1, 273204, Control_c, 0, 64, 55
1, 273219, Control_c, 0, 64, 56
1, 273234, Control_c, 0, 64, 58
1, 273249, Control_c, 0, 64, 59
1, 273263, Control_c, 0, 64, 60
1, 273278, Control_c, 0, 64, 61
1, 273293, Control_c, 0, 64, 62
1, 273308, Control_c, 0, 64, 63
1, 273323, Control_c, 0, 64, 64
1, 273337, Control_c, 0, 64, 64
1, 273352, Control_c, 0, 64, 65
1, 273367, Control_c, 0, 64, 66
1, 273367, Control_c, 0, 67, 127
1, 273382, Control_c, 0, 64, 68
1, 273382, Control_c, 0, 67, 120
1, 273397, Control_c, 0, 64, 70
1, 273397, Control_c, 0, 67, 112
1, 273410, Note_on_c, 0, 82, 70
1, 273411, Control_c, 0, 64, 72
1, 273411, Control_c, 0, 67, 105
1, 273427, Control_c, 0, 64, 74
1, 273427, Control_c, 0, 67, 97
1, 273429, Note_on_c, 0, 70, 49
1, 273437, Note_on_c, 0, 73, 47
1, 273441, Note_on_c, 0, 58, 36
1, 273442, Control_c, 0, 64, 76
1, 273442, Control_c, 0, 67, 88
1, 273445, Note_on_c, 0, 76, 47
1, 273446, Note_on_c, 0, 61, 37
1, 273455, Note_on_c, 0, 54, 35
1, 273457, Control_c, 0, 64, 79
1, 273457, Control_c, 0, 67, 75
1, 273472, Control_c, 0, 64, 81
1, 273472, Control_c, 0, 67, 59
1, 273487, Control_c, 0, 64, 83
1, 273487, Control_c, 0, 67, 42
1, 273502, Control_c, 0, 64, 85
1, 273502, Control_c, 0, 67, 24
1, 273517, Control_c, 0, 64, 88
1, 273517, Control_c, 0, 67, 12
1, 273532, Control_c, 0, 64, 90
1, 273532, Control_c, 0, 67, 0
1, 273547, Control_c, 0, 64, 91
1, 273561, Control_c, 0, 64, 93
1, 273576, Control_c, 0, 64, 94
1, 273580, Note_off_c, 0, 70, 54
1, 273591, Control_c, 0, 64, 95
1, 273594, Note_off_c, 0, 61, 62
1, 273599, Note_off_c, 0, 58, 63
1, 273621, Control_c, 0, 64, 95
1, 273627, Note_off_c, 0, 54, 53
1, 273639, Note_off_c, 0, 73, 33
1, 273689, Note_off_c, 0, 82, 61
1, 273758, Note_off_c, 0, 76, 30
1, 273776, Control_c, 0, 64, 95
1, 273821, Control_c, 0, 64, 94
1, 273828, Note_on_c, 0, 83, 86
1, 273835, Control_c, 0, 64, 92
1, 273836, Note_on_c, 0, 71, 76
1, 273842, Note_on_c, 0, 74, 70
1, 273848, Note_on_c, 0, 54, 63
1, 273850, Note_on_c, 0, 47, 64
1, 273850, Note_on_c, 0, 59, 62
1, 273850, Control_c, 0, 64, 85
1, 273865, Control_c, 0, 64, 74
1, 273880, Control_c, 0, 64, 55
1, 273895, Control_c, 0, 64, 0
1, 273939, Control_c, 0, 64, 63
1, 273954, Control_c, 0, 64, 71
1, 273968, Control_c, 0, 64, 80
1, 273971, Note_off_c, 0, 71, 57
1, 273978, Note_off_c, 0, 74, 63
1, 273983, Control_c, 0, 64, 89
1, 273997, Note_off_c, 0, 59, 61
1, 273998, Control_c, 0, 64, 92
1, 274002, Note_off_c, 0, 47, 60
1, 274013, Control_c, 0, 64, 93
1, 274018, Note_off_c, 0, 83, 63
1, 274028, Control_c, 0, 64, 94
1, 274042, Control_c, 0, 64, 94
1, 274043, Note_off_c, 0, 54, 61
1, 274235, Note_on_c, 0, 85, 91
1, 274236, Control_c, 0, 64, 94
1, 274241, Note_on_c, 0, 76, 68
1, 274246, Note_on_c, 0, 73, 82
1, 274251, Control_c, 0, 64, 93
1, 274260, Note_on_c, 0, 58, 65
1, 274262, Note_on_c, 0, 46, 67
1, 274265, Control_c, 0, 64, 91
1, 274266, Note_on_c, 0, 54, 64
1, 274280, Control_c, 0, 64, 87
1, 274295, Control_c, 0, 64, 78
1, 274310, Control_c, 0, 64, 65
1, 274325, Control_c, 0, 64, 0
1, 274429, Control_c, 0, 64, 65
1, 274444, Control_c, 0, 64, 73
1, 274458, Control_c, 0, 64, 81
1, 274473, Control_c, 0, 64, 86
1, 274488, Control_c, 0, 64, 87
1, 274510, Control_c, 0, 64, 88
1, 274525, Control_c, 0, 64, 89
1, 274539, Control_c, 0, 64, 89
1, 274584, Control_c, 0, 67, 9
1, 274599, Control_c, 0, 67, 14
1, 274605, Note_off_c, 0, 85, 61
1, 274614, Control_c, 0, 64, 88
1, 274614, Control_c, 0, 67, 22
1, 274622, Note_off_c, 0, 76, 64
1, 274629, Control_c, 0, 64, 84
1, 274629, Control_c, 0, 67, 36
1, 274629, Note_off_c, 0, 46, 59
1, 274634, Note_off_c, 0, 73, 49
1, 274644, Control_c, 0, 64, 78
1, 274644, Control_c, 0, 67, 51
1, 274654, Note_off_c, 0, 54, 58
1, 274658, Control_c, 0, 64, 67
1, 274658, Control_c, 0, 67, 69
1, 274659, Note_off_c, 0, 58, 51
1, 274673, Control_c, 0, 64, 0
1, 274673, Control_c, 0, 67, 88
1, 274688, Control_c, 0, 67, 110
1, 274703, Control_c, 0, 67, 127
1, 275240, Note_on_c, 0, 73, 60
1, 275264, Note_on_c, 0, 61, 36
1, 275267, Note_on_c, 0, 70, 51
1, 275275, Note_on_c, 0, 64, 39
1, 275669, Note_on_c, 0, 75, 67
1, 275679, Note_off_c, 0, 61, 35
1, 275684, Note_on_c, 0, 71, 47
1, 275686, Note_on_c, 0, 63, 36
1, 275689, Note_on_c, 0, 59, 32
1, 275705, Note_off_c, 0, 73, 60
1, 275722, Note_off_c, 0, 70, 36
1, 275723, Note_off_c, 0, 64, 39
1, 276028, Note_off_c, 0, 59, 41
1, 276045, Note_off_c, 0, 75, 54
1, 276086, Note_on_c, 0, 76, 53
1, 276102, Note_off_c, 0, 71, 46
1, 276103, Note_on_c, 0, 61, 33
1, 276106, Note_on_c, 0, 73, 29
1, 276112, Note_on_c, 0, 58, 13
1, 276186, Note_off_c, 0, 63, 43
1, 276236, Note_off_c, 0, 73, 0
1, 276274, Poly_aftertouch_c, 0, 73, 127
1, 276388, Note_off_c, 0, 76, 61
1, 276420, Note_off_c, 0, 58, 57
1, 276420, Note_off_c, 0, 61, 40
1, 276430, Poly_aftertouch_c, 0, 73, 0
1, 276993, Note_on_c, 0, 73, 40
1, 277010, Note_on_c, 0, 70, 36
1, 277013, Note_on_c, 0, 66, 34
1, 277016, Note_on_c, 0, 61, 25
1, 277021, Note_on_c, 0, 58, 23
1, 277169, Note_off_c, 0, 61, 53
1, 277170, Note_off_c, 0, 58, 48
1, 277171, Note_off_c, 0, 66, 48
1, 277171, Note_off_c, 0, 70, 39
1, 277180, Note_off_c, 0, 73, 35
1, 277825, Note_on_c, 0, 76, 53
1, 277845, Note_on_c, 0, 58, 18
1, 277846, Note_on_c, 0, 66, 25
1, 277866, Note_on_c, 0, 54, 31
1, 277889, Poly_aftertouch_c, 0, 73, 127
1, 277973, Note_off_c, 0, 54, 49
1, 277979, Poly_aftertouch_c, 0, 73, 0
1, 277980, Note_off_c, 0, 76, 57
1, 277996, Note_off_c, 0, 58, 55
1, 278000, Note_off_c, 0, 66, 43
1, 278698, Control_c, 0, 64, 18
1, 278713, Control_c, 0, 64, 28
1, 278728, Control_c, 0, 64, 38
1, 278743, Control_c, 0, 64, 46
1, 278757, Control_c, 0, 64, 54
1, 278772, Control_c, 0, 64, 59
1, 278786, Note_on_c, 0, 75, 36
1, 278787, Control_c, 0, 64, 63
1, 278795, Note_on_c, 0, 66, 6
1, 278802, Note_on_c, 0, 63, 6
1, 278802, Note_on_c, 0, 59, 16
1, 278802, Control_c, 0, 64, 64
1, 278817, Control_c, 0, 64, 67
1, 278832, Control_c, 0, 64, 70
1, 278847, Control_c, 0, 64, 74
1, 278849, Poly_aftertouch_c, 0, 71, 127
1, 278862, Control_c, 0, 64, 77
1, 278876, Control_c, 0, 64, 79
1, 278891, Control_c, 0, 64, 80
1, 278904, Note_off_c, 0, 66, 33
1, 278906, Control_c, 0, 64, 81
1, 278921, Control_c, 0, 64, 81
1, 278936, Control_c, 0, 64, 82
1, 278950, Note_off_c, 0, 75, 45
1, 278950, Control_c, 0, 64, 82
1, 278978, Poly_aftertouch_c, 0, 71, 0
1, 279061, Note_off_c, 0, 59, 31
1, 279076, Note_off_c, 0, 63, 38
1, 279122, Control_c, 0, 64, 82
1, 279151, Control_c, 0, 64, 81
1, 279166, Control_c, 0, 64, 81
1, 279181, Control_c, 0, 64, 80
1, 279195, Control_c, 0, 64, 80
1, 279210, Control_c, 0, 64, 79
1, 279225, Control_c, 0, 64, 79
1, 279240, Control_c, 0, 64, 78
1, 279255, Control_c, 0, 64, 78
1, 279270, Control_c, 0, 64, 77
1, 279283, Note_on_c, 0, 78, 46
1, 279285, Control_c, 0, 64, 77
1, 279300, Control_c, 0, 64, 75
1, 279315, Control_c, 0, 64, 73
1, 279329, Control_c, 0, 64, 70
1, 279344, Control_c, 0, 64, 66
1, 279353, Note_off_c, 0, 78, 54
1, 279359, Control_c, 0, 64, 62
1, 279369, Note_on_c, 0, 80, 49
1, 279373, Control_c, 0, 64, 58
1, 279388, Control_c, 0, 64, 54
1, 279403, Control_c, 0, 64, 47
1, 279418, Control_c, 0, 64, 35
1, 279433, Control_c, 0, 64, 0
1, 279443, Note_on_c, 0, 78, 65
1, 279444, Note_off_c, 0, 80, 54
1, 279462, Control_c, 0, 67, 124
1, 279477, Control_c, 0, 67, 101
1, 279492, Control_c, 0, 67, 81
1, 279503, Note_off_c, 0, 78, 62
1, 279506, Control_c, 0, 67, 62
1, 279521, Control_c, 0, 67, 44
1, 279522, Note_on_c, 0, 75, 58
1, 279536, Control_c, 0, 67, 27
1, 279551, Control_c, 0, 67, 12
1, 279566, Control_c, 0, 67, 0
1, 279595, Note_off_c, 0, 75, 64
1, 279643, Note_on_c, 0, 83, 72
1, 279795, Control_c, 0, 64, 44
1, 279810, Control_c, 0, 64, 60
1, 279826, Control_c, 0, 64, 64
1, 279841, Control_c, 0, 64, 65
1, 279856, Control_c, 0, 64, 67
1, 279870, Control_c, 0, 64, 69
1, 279885, Control_c, 0, 64, 72
1, 279900, Control_c, 0, 64, 74
1, 279915, Control_c, 0, 64, 75
1, 279929, Control_c, 0, 64, 76
1, 279944, Control_c, 0, 64, 77
1, 279959, Control_c, 0, 64, 77
1, 280096, Note_on_c, 0, 71, 37
1, 280099, Note_on_c, 0, 75, 31
1, 280108, Control_c, 0, 64, 76
1, 280122, Control_c, 0, 64, 72
1, 280137, Control_c, 0, 64, 65
1, 280152, Control_c, 0, 64, 26
1, 280167, Control_c, 0, 64, 0
1, 280196, Control_c, 0, 64, 29
1, 280211, Control_c, 0, 64, 59
1, 280226, Control_c, 0, 64, 64
1, 280241, Control_c, 0, 64, 66
1, 280256, Control_c, 0, 64, 69
1, 280270, Control_c, 0, 64, 72
1, 280285, Control_c, 0, 64, 75
1, 280300, Control_c, 0, 64, 77
1, 280315, Control_c, 0, 64, 78
1, 280373, Note_off_c, 0, 75, 39
1, 280515, Control_c, 0, 64, 77
1, 280544, Control_c, 0, 64, 76
1, 280559, Control_c, 0, 64, 76
1, 280564, Note_on_c, 0, 76, 56
1, 280574, Control_c, 0, 64, 74
1, 280586, Note_off_c, 0, 71, 25
1, 280589, Control_c, 0, 64, 72
1, 280590, Note_on_c, 0, 73, 36
1, 280603, Control_c, 0, 64, 69
1, 280619, Control_c, 0, 64, 64
1, 280634, Control_c, 0, 64, 50
1, 280649, Control_c, 0, 64, 0
1, 280710, Note_off_c, 0, 73, 32
1, 280800, Note_off_c, 0, 83, 52
1, 280834, Note_on_c, 0, 82, 48
1, 280840, Poly_aftertouch_c, 0, 73, 127
1, 280888, Note_off_c, 0, 82, 61
1, 280929, Note_on_c, 0, 83, 41
1, 280979, Note_off_c, 0, 83, 43
1, 280990, Note_on_c, 0, 82, 63
1, 281059, Note_off_c, 0, 82, 63
1, 281060, Note_on_c, 0, 80, 65
1, 281093, Note_off_c, 0, 80, 57
1, 281126, Note_on_c, 0, 82, 62
1, 281208, Note_off_c, 0, 82, 64
1, 281211, Note_on_c, 0, 83, 75
1, 281272, Note_off_c, 0, 83, 60
1, 281308, Control_c, 0, 64, 33
1, 281322, Note_on_c, 0, 85, 81
1, 281323, Control_c, 0, 64, 51
1, 281338, Control_c, 0, 64, 62
1, 281352, Control_c, 0, 64, 67
1, 281367, Control_c, 0, 64, 72
1, 281382, Control_c, 0, 64, 78
1, 281397, Control_c, 0, 64, 84
1, 281412, Control_c, 0, 64, 89
1, 281412, Control_c, 0, 67, 12
1, 281428, Control_c, 0, 64, 92
1, 281428, Control_c, 0, 67, 21
1, 281443, Control_c, 0, 64, 94
1, 281443, Control_c, 0, 67, 26
1, 281457, Control_c, 0, 64, 96
1, 281457, Control_c, 0, 67, 26
1, 281472, Control_c, 0, 64, 97
1, 281472, Control_c, 0, 67, 25
1, 281502, Control_c, 0, 67, 26
1, 281517, Control_c, 0, 67, 26
1, 281531, Control_c, 0, 67, 27
1, 281561, Poly_aftertouch_c, 0, 73, 0
1, 281561, Control_c, 0, 67, 28
1, 281575, Control_c, 0, 67, 29
1, 281580, Note_off_c, 0, 76, 34
1, 281590, Control_c, 0, 67, 33
1, 281605, Control_c, 0, 67, 38
1, 281620, Control_c, 0, 67, 40
1, 281664, Control_c, 0, 67, 41
1, 281708, Control_c, 0, 64, 96
1, 281718, Note_on_c, 0, 76, 73
1, 281718, Note_on_c, 0, 82, 63
1, 281723, Control_c, 0, 64, 96
1, 281723, Control_c, 0, 67, 41
1, 281736, Note_on_c, 0, 73, 46
1, 281738, Control_c, 0, 64, 93
1, 281738, Control_c, 0, 67, 43
1, 281753, Control_c, 0, 64, 88
1, 281753, Control_c, 0, 67, 46
1, 281768, Control_c, 0, 64, 82
1, 281768, Control_c, 0, 67, 49
1, 281769, Note_off_c, 0, 85, 52
1, 281783, Control_c, 0, 64, 72
1, 281783, Control_c, 0, 67, 51
1, 281798, Control_c, 0, 64, 61
1, 281798, Control_c, 0, 67, 53
1, 281813, Control_c, 0, 64, 0
1, 281813, Control_c, 0, 67, 54
1, 281828, Control_c, 0, 67, 55
1, 281842, Control_c, 0, 67, 57
1, 281857, Control_c, 0, 64, 34
1, 281857, Control_c, 0, 67, 59
1, 281872, Control_c, 0, 64, 56
1, 281872, Control_c, 0, 67, 62
1, 281887, Control_c, 0, 64, 64
1, 281887, Control_c, 0, 67, 66
1, 281901, Control_c, 0, 64, 67
1, 281901, Control_c, 0, 67, 73
1, 281916, Control_c, 0, 64, 70
1, 281916, Control_c, 0, 67, 81
1, 281931, Control_c, 0, 64, 73
1, 281931, Control_c, 0, 67, 88
1, 281946, Control_c, 0, 64, 76
1, 281946, Control_c, 0, 67, 95
1, 281961, Control_c, 0, 64, 78
1, 281961, Control_c, 0, 67, 101
1, 281975, Control_c, 0, 64, 79
1, 281975, Control_c, 0, 67, 106
1, 281998, Control_c, 0, 64, 79
1, 281998, Control_c, 0, 67, 110
1, 282012, Note_off_c, 0, 73, 40
1, 282012, Control_c, 0, 64, 80
1, 282012, Control_c, 0, 67, 116
1, 282027, Control_c, 0, 67, 122
1, 282042, Control_c, 0, 67, 127
1, 282190, Control_c, 0, 64, 79
1, 282205, Control_c, 0, 64, 79
1, 282211, Note_on_c, 0, 79, 47
1, 282221, Control_c, 0, 64, 78
1, 282228, Note_on_c, 0, 75, 38
1, 282236, Note_off_c, 0, 82, 32
1, 282236, Control_c, 0, 64, 76
1, 282236, Note_on_c, 0, 73, 30
1, 282251, Control_c, 0, 64, 72
1, 282266, Control_c, 0, 64, 65
1, 282272, Note_off_c, 0, 76, 35
1, 282280, Control_c, 0, 64, 24
1, 282295, Control_c, 0, 64, 0
1, 282326, Note_on_c, 0, 88, 41
1, 282337, Note_off_c, 0, 79, 49
1, 282398, Control_c, 0, 64, 26
1, 282413, Note_on_c, 0, 87, 55
1, 282413, Control_c, 0, 64, 57
1, 282417, Note_off_c, 0, 88, 52
1, 282428, Control_c, 0, 64, 62
1, 282443, Control_c, 0, 64, 63
1, 282458, Control_c, 0, 64, 65
1, 282472, Control_c, 0, 64, 67
1, 282478, Note_off_c, 0, 87, 55
1, 282482, Note_on_c, 0, 79, 54
1, 282487, Control_c, 0, 64, 69
1, 282502, Control_c, 0, 64, 71
1, 282513, Note_off_c, 0, 79, 62
1, 282516, Control_c, 0, 64, 72
1, 282531, Control_c, 0, 64, 73
1, 282546, Control_c, 0, 64, 75
1, 282561, Control_c, 0, 64, 76
1, 282576, Control_c, 0, 64, 76
1, 282582, Note_on_c, 0, 79, 63
1, 282591, Control_c, 0, 64, 77
1, 282626, Note_off_c, 0, 79, 60
1, 282650, Note_on_c, 0, 88, 55
1, 282749, Note_on_c, 0, 87, 63
1, 282759, Note_off_c, 0, 88, 54
1, 282803, Note_off_c, 0, 87, 56
1, 282805, Control_c, 0, 64, 76
1, 282830, Note_on_c, 0, 79, 57
1, 282835, Control_c, 0, 64, 76
1, 282850, Note_off_c, 0, 79, 60
1, 282850, Control_c, 0, 64, 75
1, 282865, Control_c, 0, 64, 74
1, 282880, Control_c, 0, 64, 73
1, 282895, Control_c, 0, 64, 71
1, 282910, Control_c, 0, 64, 68
1, 282924, Control_c, 0, 64, 63
1, 282929, Note_on_c, 0, 79, 59
1, 282938, Note_on_c, 0, 70, 45
1, 282939, Control_c, 0, 64, 52
1, 282954, Control_c, 0, 64, 33
1, 282969, Note_off_c, 0, 79, 52
1, 282969, Control_c, 0, 64, 0
1, 283001, Note_on_c, 0, 88, 63
1, 283013, Control_c, 0, 64, 29
1, 283029, Control_c, 0, 64, 55
1, 283035, Note_off_c, 0, 73, 47
1, 283044, Control_c, 0, 64, 63
1, 283059, Control_c, 0, 64, 66
1, 283074, Control_c, 0, 64, 69
1, 283081, Note_on_c, 0, 87, 62
1, 283089, Note_off_c, 0, 75, 64
1, 283089, Control_c, 0, 64, 71
1, 283095, Note_off_c, 0, 88, 50
1, 283101, Note_off_c, 0, 70, 63
1, 283103, Control_c, 0, 64, 73
1, 283118, Control_c, 0, 64, 75
1, 283133, Control_c, 0, 64, 76
1, 283147, Control_c, 0, 64, 77
1, 283160, Note_off_c, 0, 87, 56
1, 283162, Control_c, 0, 64, 77
1, 283174, Note_on_c, 0, 79, 50
1, 283199, Note_off_c, 0, 79, 56
1, 283237, Control_c, 0, 64, 77
1, 283252, Control_c, 0, 64, 76
1, 283266, Note_on_c, 0, 79, 55
1, 283267, Control_c, 0, 64, 74
1, 283282, Control_c, 0, 64, 70
1, 283284, Note_on_c, 0, 73, 57
1, 283294, Note_on_c, 0, 70, 40
1, 283296, Control_c, 0, 64, 63
1, 283299, Note_on_c, 0, 63, 41
1, 283311, Control_c, 0, 64, 0
1, 283348, Note_off_c, 0, 79, 49
1, 283353, Note_on_c, 0, 88, 47
1, 283385, Control_c, 0, 64, 52
1, 283400, Control_c, 0, 64, 62
1, 283414, Control_c, 0, 64, 65
1, 283429, Control_c, 0, 64, 67
1, 283444, Control_c, 0, 64, 69
1, 283445, Note_on_c, 0, 87, 55
1, 283459, Control_c, 0, 64, 71
1, 283473, Control_c, 0, 64, 72
1, 283484, Note_off_c, 0, 63, 41
1, 283496, Control_c, 0, 64, 73
1, 283514, Note_off_c, 0, 88, 30
1, 283524, Note_off_c, 0, 87, 58
1, 283530, Note_on_c, 0, 79, 49
1, 283543, Note_off_c, 0, 70, 51
1, 283585, Note_off_c, 0, 73, 35
1, 283600, Control_c, 0, 64, 72
1, 283615, Control_c, 0, 64, 71
1, 283620, Note_on_c, 0, 71, 54
1, 283629, Control_c, 0, 64, 67
1, 283632, Note_on_c, 0, 80, 52
1, 283642, Note_on_c, 0, 68, 46
1, 283644, Control_c, 0, 64, 55
1, 283648, Note_on_c, 0, 63, 38
1, 283659, Control_c, 0, 64, 0
1, 283667, Note_off_c, 0, 79, 32
1, 283719, Note_on_c, 0, 88, 42
1, 283721, Note_off_c, 0, 80, 64
1, 283733, Note_off_c, 0, 68, 62
1, 283733, Control_c, 0, 64, 56
1, 283747, Control_c, 0, 64, 63
1, 283762, Control_c, 0, 64, 66
1, 283777, Control_c, 0, 64, 68
1, 283781, Note_off_c, 0, 63, 57
1, 283792, Note_on_c, 0, 87, 48
1, 283792, Control_c, 0, 64, 70
1, 283807, Control_c, 0, 64, 72
1, 283823, Control_c, 0, 64, 73
1, 283838, Control_c, 0, 64, 74
1, 283852, Control_c, 0, 64, 74
1, 283861, Note_on_c, 0, 80, 58
1, 283867, Note_off_c, 0, 88, 31
1, 283875, Note_off_c, 0, 87, 58
1, 283911, Control_c, 0, 64, 74
1, 283940, Control_c, 0, 64, 73
1, 283944, Note_off_c, 0, 71, 57
1, 283947, Note_on_c, 0, 70, 65
1, 283955, Note_on_c, 0, 82, 62
1, 283955, Control_c, 0, 64, 71
1, 283963, Note_on_c, 0, 61, 55
1, 283969, Control_c, 0, 64, 66
1, 283974, Note_on_c, 0, 67, 52
1, 283982, Note_off_c, 0, 80, 52
1, 283984, Control_c, 0, 64, 32
1, 283999, Control_c, 0, 64, 0
1, 284033, Note_off_c, 0, 82, 64
1, 284049, Note_on_c, 0, 88, 63
1, 284073, Control_c, 0, 64, 58
1, 284087, Control_c, 0, 64, 64
1, 284090, Note_off_c, 0, 67, 61
1, 284102, Control_c, 0, 64, 67
1, 284117, Control_c, 0, 64, 69
1, 284126, Note_off_c, 0, 61, 57
1, 284130, Note_on_c, 0, 87, 72
1, 284132, Control_c, 0, 64, 71
1, 284147, Control_c, 0, 64, 73
1, 284158, Note_off_c, 0, 70, 62
1, 284162, Control_c, 0, 64, 74
1, 284168, Note_off_c, 0, 88, 50
1, 284177, Control_c, 0, 64, 75
1, 284208, Note_on_c, 0, 82, 69
1, 284224, Note_off_c, 0, 87, 62
1, 284258, Control_c, 0, 64, 75
1, 284273, Control_c, 0, 64, 73
1, 284288, Control_c, 0, 64, 70
1, 284301, Note_on_c, 0, 83, 75
1, 284302, Control_c, 0, 64, 62
1, 284308, Note_on_c, 0, 68, 63
1, 284315, Note_off_c, 0, 82, 59
1, 284317, Control_c, 0, 64, 0
1, 284320, Note_on_c, 0, 59, 48
1, 284349, Note_on_c, 0, 63, 30
1, 284379, Note_on_c, 0, 88, 75
1, 284390, Note_off_c, 0, 83, 58
1, 284391, Control_c, 0, 64, 49
1, 284406, Control_c, 0, 64, 64
1, 284421, Control_c, 0, 64, 67
1, 284436, Control_c, 0, 64, 71
1, 284451, Control_c, 0, 64, 74
1, 284461, Note_off_c, 0, 63, 37
1, 284462, Note_off_c, 0, 68, 63
1, 284463, Note_on_c, 0, 87, 80
1, 284466, Control_c, 0, 64, 77
1, 284472, Note_off_c, 0, 59, 37
1, 284481, Control_c, 0, 64, 78
1, 284492, Note_off_c, 0, 88, 60
1, 284495, Control_c, 0, 64, 79
1, 284551, Note_on_c, 0, 83, 60
1, 284556, Note_on_c, 0, 81, 61
1, 284578, Note_off_c, 0, 87, 61
1, 284584, Control_c, 0, 64, 78
1, 284599, Control_c, 0, 64, 76
1, 284615, Control_c, 0, 64, 72
1, 284630, Control_c, 0, 64, 64
1, 284645, Control_c, 0, 64, 0
1, 284651, Note_on_c, 0, 92, 79
1, 284663, Note_on_c, 0, 59, 40
1, 284666, Note_off_c, 0, 81, 37
1, 284673, Note_on_c, 0, 68, 51
1, 284676, Note_on_c, 0, 63, 47
1, 284680, Note_off_c, 0, 83, 52
1, 284733, Control_c, 0, 64, 34
1, 284741, Note_on_c, 0, 87, 67
1, 284748, Control_c, 0, 64, 65
1, 284763, Control_c, 0, 64, 69
1, 284778, Control_c, 0, 64, 73
1, 284780, Note_off_c, 0, 63, 61
1, 284792, Control_c, 0, 64, 76
1, 284807, Control_c, 0, 64, 78
1, 284816, Note_on_c, 0, 83, 62
1, 284822, Control_c, 0, 64, 79
1, 284832, Note_off_c, 0, 59, 41
1, 284835, Note_off_c, 0, 92, 33
1, 284857, Note_off_c, 0, 87, 57
1, 284866, Note_off_c, 0, 68, 37
1, 284904, Note_on_c, 0, 80, 57
1, 284941, Note_off_c, 0, 83, 52
1, 284955, Control_c, 0, 64, 78
1, 284970, Control_c, 0, 64, 76
1, 284992, Control_c, 0, 64, 71
1, 284995, Note_on_c, 0, 89, 86
1, 284997, Note_off_c, 0, 80, 61
1, 285007, Control_c, 0, 64, 59
1, 285016, Note_on_c, 0, 62, 61
1, 285016, Note_on_c, 0, 68, 51
1, 285020, Note_on_c, 0, 59, 44
1, 285022, Control_c, 0, 64, 0
1, 285037, Control_c, 0, 67, 108
1, 285052, Control_c, 0, 67, 77
1, 285066, Control_c, 0, 67, 57
1, 285081, Note_on_c, 0, 83, 66
1, 285081, Control_c, 0, 64, 35
1, 285081, Control_c, 0, 67, 46
1, 285096, Control_c, 0, 64, 63
1, 285096, Control_c, 0, 67, 41
1, 285111, Control_c, 0, 64, 69
1, 285111, Control_c, 0, 67, 38
1, 285125, Control_c, 0, 64, 73
1, 285125, Control_c, 0, 67, 37
1, 285140, Control_c, 0, 64, 79
1, 285140, Control_c, 0, 67, 35
1, 285148, Note_off_c, 0, 89, 57
1, 285155, Control_c, 0, 64, 81
1, 285155, Control_c, 0, 67, 34
1, 285170, Control_c, 0, 64, 81
1, 285170, Control_c, 0, 67, 32
1, 285178, Note_on_c, 0, 80, 66
1, 285181, Note_off_c, 0, 59, 54
1, 285185, Control_c, 0, 67, 30
1, 285197, Note_off_c, 0, 68, 54
1, 285199, Control_c, 0, 67, 27
1, 285214, Control_c, 0, 67, 24
1, 285229, Control_c, 0, 67, 22
1, 285244, Control_c, 0, 67, 20
1, 285248, Note_off_c, 0, 83, 55
1, 285259, Note_on_c, 0, 89, 75
1, 285259, Control_c, 0, 67, 17
1, 285274, Control_c, 0, 67, 13
1, 285277, Note_off_c, 0, 80, 59
1, 285283, Note_off_c, 0, 62, 54
1, 285288, Control_c, 0, 67, 0
1, 285303, Control_c, 0, 64, 81
1, 285318, Control_c, 0, 64, 80
1, 285333, Control_c, 0, 64, 77
1, 285348, Control_c, 0, 64, 71
1, 285351, Note_on_c, 0, 59, 29
1, 285353, Note_on_c, 0, 92, 73
1, 285362, Note_on_c, 0, 68, 37
1, 285363, Control_c, 0, 64, 58
1, 285364, Note_on_c, 0, 61, 42
1, 285378, Control_c, 0, 64, 0
1, 285394, Note_off_c, 0, 89, 60
1, 285437, Note_on_c, 0, 83, 51
1, 285437, Control_c, 0, 64, 25
1, 285452, Control_c, 0, 64, 63
1, 285467, Control_c, 0, 64, 69
1, 285471, Note_off_c, 0, 92, 61
1, 285482, Control_c, 0, 64, 75
1, 285497, Control_c, 0, 64, 81
1, 285512, Control_c, 0, 64, 83
1, 285527, Control_c, 0, 64, 84
1, 285534, Note_on_c, 0, 80, 62
1, 285541, Control_c, 0, 64, 84
1, 285549, Note_off_c, 0, 59, 41
1, 285570, Note_off_c, 0, 83, 55
1, 285573, Note_off_c, 0, 68, 37
1, 285609, Note_on_c, 0, 90, 76
1, 285625, Note_off_c, 0, 80, 59
1, 285690, Note_off_c, 0, 61, 36
1, 285702, Note_on_c, 0, 89, 84
1, 285704, Control_c, 0, 64, 83
1, 285712, Note_on_c, 0, 68, 71
1, 285719, Control_c, 0, 64, 78
1, 285720, Note_on_c, 0, 59, 61
1, 285721, Note_on_c, 0, 62, 71
1, 285741, Control_c, 0, 64, 68
1, 285756, Control_c, 0, 64, 0
1, 285764, Note_off_c, 0, 90, 61
1, 285792, Note_on_c, 0, 83, 69
1, 285830, Control_c, 0, 64, 56
1, 285845, Control_c, 0, 64, 67
1, 285860, Control_c, 0, 64, 73
1, 285872, Note_on_c, 0, 80, 69
1, 285874, Control_c, 0, 64, 80
1, 285880, Note_off_c, 0, 89, 62
1, 285889, Control_c, 0, 64, 85
1, 285904, Control_c, 0, 64, 88
1, 285919, Control_c, 0, 64, 89
1, 285934, Control_c, 0, 64, 90
1, 285938, Note_off_c, 0, 59, 48
1, 285963, Note_on_c, 0, 89, 77
1, 285981, Note_off_c, 0, 83, 54
1, 285998, Note_off_c, 0, 80, 58
1, 286022, Control_c, 0, 64, 89
1, 286037, Control_c, 0, 64, 87
1, 286043, Note_off_c, 0, 62, 58
1, 286051, Note_off_c, 0, 68, 0
1, 286052, Control_c, 0, 64, 81
1, 286058, Note_on_c, 0, 92, 74
1, 286065, Note_on_c, 0, 68, 35
1, 286066, Control_c, 0, 64, 71
1, 286078, Note_on_c, 0, 59, 46
1, 286081, Control_c, 0, 64, 0
1, 286081, Control_c, 0, 67, 8
1, 286084, Note_on_c, 0, 61, 45
1, 286096, Control_c, 0, 67, 0
1, 286115, Note_off_c, 0, 89, 52
1, 286129, Note_on_c, 0, 83, 46
1, 286164, Note_off_c, 0, 92, 62
1, 286186, Control_c, 0, 64, 63
1, 286201, Control_c, 0, 64, 69
1, 286216, Control_c, 0, 64, 75
1, 286230, Control_c, 0, 64, 80
1, 286232, Note_on_c, 0, 80, 64
1, 286245, Control_c, 0, 64, 83
1, 286251, Note_off_c, 0, 59, 41
1, 286256, Note_off_c, 0, 68, 54
1, 286260, Control_c, 0, 64, 84
1, 286275, Control_c, 0, 64, 84
1, 286284, Note_off_c, 0, 80, 53
1, 286290, Control_c, 0, 64, 85
1, 286320, Control_c, 0, 64, 85
1, 286326, Note_on_c, 0, 90, 79
1, 286338, Note_off_c, 0, 83, 32
1, 286379, Control_c, 0, 64, 85
1, 286399, Note_off_c, 0, 61, 49
1, 286404, Note_on_c, 0, 89, 87
1, 286409, Control_c, 0, 64, 82
1, 286415, Note_on_c, 0, 68, 72
1, 286422, Note_on_c, 0, 62, 69
1, 286424, Control_c, 0, 64, 76
1, 286427, Note_on_c, 0, 59, 58
1, 286438, Control_c, 0, 64, 63
1, 286449, Note_off_c, 0, 90, 61
1, 286453, Control_c, 0, 64, 0
1, 286503, Note_on_c, 0, 83, 69
1, 286534, Control_c, 0, 64, 62
1, 286534, Control_c, 0, 67, 8
1, 286549, Control_c, 0, 64, 69
1, 286549, Control_c, 0, 67, 9
1, 286564, Control_c, 0, 64, 75
1, 286564, Control_c, 0, 67, 13
1, 286573, Note_off_c, 0, 89, 56
1, 286579, Control_c, 0, 64, 82
1, 286579, Control_c, 0, 67, 20
1, 286591, Note_on_c, 0, 80, 69
1, 286594, Control_c, 0, 64, 85
1, 286594, Control_c, 0, 67, 28
1, 286609, Control_c, 0, 64, 85
1, 286609, Control_c, 0, 67, 35
1, 286622, Note_off_c, 0, 68, 54
1, 286624, Control_c, 0, 64, 86
1, 286624, Control_c, 0, 67, 42
1, 286638, Control_c, 0, 67, 47
1, 286649, Note_off_c, 0, 59, 38
1, 286653, Control_c, 0, 67, 51
1, 286667, Note_off_c, 0, 83, 59
1, 286668, Control_c, 0, 67, 57
1, 286680, Note_on_c, 0, 89, 78
1, 286683, Control_c, 0, 67, 61
1, 286697, Control_c, 0, 67, 65
1, 286709, Note_off_c, 0, 80, 60
1, 286712, Control_c, 0, 67, 70
1, 286727, Control_c, 0, 67, 77
1, 286742, Control_c, 0, 64, 85
1, 286742, Control_c, 0, 67, 87
1, 286744, Note_off_c, 0, 62, 57
1, 286757, Control_c, 0, 64, 83
1, 286757, Control_c, 0, 67, 98
1, 286771, Note_on_c, 0, 92, 78
1, 286771, Control_c, 0, 64, 76
1, 286771, Control_c, 0, 67, 111
1, 286777, Note_on_c, 0, 68, 46
1, 286778, Note_on_c, 0, 59, 42
1, 286784, Note_on_c, 0, 61, 44
1, 286786, Control_c, 0, 64, 65
1, 286786, Control_c, 0, 67, 121
1, 286789, Note_off_c, 0, 89, 59
1, 286801, Control_c, 0, 64, 0
1, 286801, Control_c, 0, 67, 127
1, 286837, Note_off_c, 0, 68, 0
1, 286837, Note_on_c, 0, 68, 4
1, 286855, Note_on_c, 0, 83, 57
1, 286862, Note_off_c, 0, 92, 62
1, 286918, Note_off_c, 0, 59, 55
1, 286922, Note_off_c, 0, 61, 52
1, 286937, Note_off_c, 0, 68, 49
1, 286950, Note_off_c, 0, 83, 57
1, 286959, Note_on_c, 0, 80, 44
1, 287020, Note_off_c, 0, 80, 41
1, 287039, Note_on_c, 0, 92, 62
1, 287121, Note_on_c, 0, 85, 57
1, 287123, Note_off_c, 0, 92, 56
1, 287184, Note_off_c, 0, 85, 56
1, 287193, Note_on_c, 0, 83, 51
1, 287277, Note_off_c, 0, 83, 57
1, 287285, Note_on_c, 0, 80, 49
1, 287350, Note_off_c, 0, 80, 55
1, 287352, Note_on_c, 0, 85, 38
1, 287444, Note_off_c, 0, 85, 53
1, 287449, Note_on_c, 0, 87, 44
1, 287452, Note_on_c, 0, 68, 46
1, 287461, Control_c, 0, 64, 50
1, 287476, Control_c, 0, 64, 61
1, 287476, Note_on_c, 0, 59, 30
1, 287479, Note_on_c, 0, 63, 33
1, 287491, Control_c, 0, 64, 64
1, 287506, Control_c, 0, 64, 66
1, 287520, Control_c, 0, 64, 70
1, 287521, Note_on_c, 0, 83, 49
1, 287522, Note_off_c, 0, 87, 50
1, 287535, Control_c, 0, 64, 75
1, 287550, Control_c, 0, 64, 79
1, 287565, Control_c, 0, 64, 81
1, 287580, Control_c, 0, 64, 81
1, 287594, Control_c, 0, 64, 82
1, 287605, Note_on_c, 0, 80, 51
1, 287618, Note_off_c, 0, 83, 55
1, 287655, Note_off_c, 0, 63, 38
1, 287655, Note_off_c, 0, 68, 39
1, 287663, Note_off_c, 0, 59, 38
1, 287685, Note_off_c, 0, 80, 31
1, 287694, Note_on_c, 0, 87, 52
1, 287772, Control_c, 0, 64, 81
1, 287783, Note_off_c, 0, 87, 53
1, 287786, Control_c, 0, 64, 80
1, 287798, Note_on_c, 0, 89, 60
1, 287801, Control_c, 0, 64, 77
1, 287813, Note_on_c, 0, 68, 47
1, 287816, Note_on_c, 0, 59, 34
1, 287817, Control_c, 0, 64, 72
1, 287820, Note_on_c, 0, 62, 52
1, 287832, Control_c, 0, 64, 64
1, 287847, Control_c, 0, 64, 0
1, 287906, Control_c, 0, 64, 53
1, 287909, Note_on_c, 0, 83, 48
1, 287921, Control_c, 0, 64, 63
1, 287924, Note_off_c, 0, 89, 49
1, 287935, Control_c, 0, 64, 66
1, 287950, Control_c, 0, 64, 68
1, 287965, Control_c, 0, 64, 71
1, 287986, Note_on_c, 0, 80, 58
1, 287988, Control_c, 0, 64, 73
1, 288003, Control_c, 0, 64, 75
1, 288017, Control_c, 0, 64, 76
1, 288022, Note_off_c, 0, 83, 58
1, 288032, Control_c, 0, 64, 77
1, 288040, Note_off_c, 0, 59, 39
1, 288056, Note_off_c, 0, 68, 53
1, 288062, Note_on_c, 0, 89, 62
1, 288064, Note_off_c, 0, 62, 47
1, 288088, Note_off_c, 0, 80, 39
1, 288135, Control_c, 0, 64, 76
1, 288150, Note_on_c, 0, 92, 71
1, 288150, Control_c, 0, 64, 73
1, 288165, Control_c, 0, 64, 67
1, 288175, Note_on_c, 0, 59, 47
1, 288179, Note_off_c, 0, 89, 58
1, 288180, Note_on_c, 0, 68, 50
1, 288180, Control_c, 0, 64, 41
1, 288186, Note_on_c, 0, 61, 47
1, 288195, Control_c, 0, 64, 0
1, 288240, Control_c, 0, 64, 31
1, 288246, Note_off_c, 0, 92, 60
1, 288254, Control_c, 0, 64, 60
1, 288269, Note_on_c, 0, 83, 44
1, 288269, Control_c, 0, 64, 65
1, 288284, Control_c, 0, 64, 69
1, 288299, Control_c, 0, 64, 75
1, 288314, Control_c, 0, 64, 79
1, 288326, Note_on_c, 0, 80, 64
1, 288329, Control_c, 0, 64, 81
1, 288343, Control_c, 0, 64, 81
1, 288359, Note_off_c, 0, 68, 56
1, 288368, Note_off_c, 0, 59, 36
1, 288411, Note_off_c, 0, 83, 34
1, 288412, Note_on_c, 0, 90, 72
1, 288421, Note_off_c, 0, 80, 61
1, 288461, Control_c, 0, 64, 81
1, 288476, Control_c, 0, 64, 80
1, 288491, Control_c, 0, 64, 77
1, 288496, Note_off_c, 0, 61, 37
1, 288501, Note_on_c, 0, 68, 58
1, 288502, Note_on_c, 0, 89, 76
1, 288506, Control_c, 0, 64, 71
1, 288511, Note_on_c, 0, 59, 52
1, 288512, Note_on_c, 0, 62, 67
1, 288521, Control_c, 0, 64, 59
1, 288529, Note_off_c, 0, 90, 58
1, 288535, Control_c, 0, 64, 0
1, 288595, Control_c, 0, 64, 46
1, 288601, Note_on_c, 0, 83, 69
1, 288611, Control_c, 0, 64, 63
1, 288622, Note_off_c, 0, 89, 59
1, 288626, Control_c, 0, 64, 67
1, 288640, Control_c, 0, 64, 71
1, 288655, Control_c, 0, 64, 75
1, 288670, Control_c, 0, 64, 78
1, 288681, Note_on_c, 0, 80, 68
1, 288684, Control_c, 0, 64, 79
1, 288708, Note_off_c, 0, 68, 55
1, 288738, Note_off_c, 0, 59, 33
1, 288764, Note_off_c, 0, 83, 60
1, 288769, Note_on_c, 0, 89, 78
1, 288797, Note_off_c, 0, 80, 63
1, 288826, Control_c, 0, 64, 79
1, 288840, Control_c, 0, 64, 77
1, 288853, Note_on_c, 0, 92, 89
1, 288855, Control_c, 0, 64, 73
1, 288861, Note_off_c, 0, 62, 61
1, 288863, Note_on_c, 0, 61, 65
1, 288870, Control_c, 0, 64, 60
1, 288873, Note_on_c, 0, 59, 60
1, 288874, Note_on_c, 0, 68, 68
1, 288884, Control_c, 0, 64, 0
1, 288919, Note_off_c, 0, 89, 55
1, 288940, Note_on_c, 0, 83, 73
1, 288958, Control_c, 0, 64, 61
1, 288973, Control_c, 0, 64, 66
1, 288984, Note_off_c, 0, 92, 59
1, 288988, Control_c, 0, 64, 70
1, 289003, Control_c, 0, 64, 74
1, 289018, Control_c, 0, 64, 78
1, 289027, Note_on_c, 0, 80, 79
1, 289032, Control_c, 0, 64, 80
1, 289047, Note_off_c, 0, 83, 57
1, 289062, Note_off_c, 0, 59, 50
1, 289084, Note_off_c, 0, 68, 53
1, 289092, Note_on_c, 0, 90, 90
1, 289110, Note_off_c, 0, 80, 64
1, 289176, Note_on_c, 0, 89, 84
1, 289181, Control_c, 0, 64, 78
1, 289196, Control_c, 0, 64, 72
1, 289203, Note_on_c, 0, 62, 77
1, 289205, Note_on_c, 0, 59, 59
1, 289205, Note_on_c, 0, 68, 75
1, 289211, Control_c, 0, 64, 57
1, 289223, Note_off_c, 0, 90, 63
1, 289226, Control_c, 0, 64, 0
1, 289235, Note_off_c, 0, 61, 49
1, 289270, Note_on_c, 0, 83, 75
1, 289314, Control_c, 0, 64, 53
1, 289329, Control_c, 0, 64, 66
1, 289344, Control_c, 0, 64, 72
1, 289352, Note_on_c, 0, 80, 75
1, 289357, Note_off_c, 0, 89, 56
1, 289358, Control_c, 0, 64, 77
1, 289373, Control_c, 0, 64, 79
1, 289388, Control_c, 0, 64, 81
1, 289402, Note_off_c, 0, 68, 53
1, 289404, Control_c, 0, 64, 81
1, 289435, Note_on_c, 0, 89, 87
1, 289445, Note_off_c, 0, 59, 38
1, 289453, Note_off_c, 0, 83, 54
1, 289461, Note_off_c, 0, 80, 60
1, 289525, Note_on_c, 0, 92, 86
1, 289530, Control_c, 0, 64, 79
1, 289536, Note_off_c, 0, 62, 58
1, 289545, Control_c, 0, 64, 74
1, 289546, Note_on_c, 0, 68, 56
1, 289548, Note_on_c, 0, 61, 52
1, 289548, Note_on_c, 0, 59, 52
1, 289560, Control_c, 0, 64, 64
1, 289563, Note_off_c, 0, 89, 61
1, 289575, Control_c, 0, 64, 0
1, 289608, Note_on_c, 0, 83, 65
1, 289681, Note_off_c, 0, 92, 57
1, 289697, Note_on_c, 0, 80, 68
1, 289724, Note_off_c, 0, 68, 56
1, 289727, Note_off_c, 0, 61, 58
1, 289728, Note_off_c, 0, 59, 58
1, 289728, Note_off_c, 0, 83, 57
1, 289768, Note_on_c, 0, 92, 65
1, 289776, Note_off_c, 0, 80, 46
1, 289850, Note_on_c, 0, 85, 61
1, 289868, Note_off_c, 0, 92, 52
1, 289925, Note_off_c, 0, 85, 60
1, 289940, Note_on_c, 0, 83, 35
1, 290000, Note_on_c, 0, 80, 53
1, 290057, Note_off_c, 0, 80, 61
1, 290074, Note_off_c, 0, 83, 35
1, 290088, Note_on_c, 0, 85, 47
1, 290169, Note_on_c, 0, 68, 40
1, 290174, Note_on_c, 0, 87, 53
1, 290175, Note_on_c, 0, 63, 29
1, 290188, Note_on_c, 0, 59, 24
1, 290197, Control_c, 0, 64, 52
1, 290213, Control_c, 0, 64, 62
1, 290229, Note_off_c, 0, 85, 35
1, 290235, Control_c, 0, 64, 65
1, 290250, Control_c, 0, 64, 67
1, 290254, Note_on_c, 0, 83, 53
1, 290257, Note_off_c, 0, 87, 50
1, 290265, Control_c, 0, 64, 70
1, 290280, Control_c, 0, 64, 73
1, 290294, Control_c, 0, 64, 75
1, 290309, Control_c, 0, 64, 76
1, 290324, Control_c, 0, 64, 77
1, 290339, Note_on_c, 0, 80, 44
1, 290342, Note_off_c, 0, 83, 53
1, 290343, Note_off_c, 0, 59, 42
1, 290373, Note_off_c, 0, 68, 36
1, 290406, Note_on_c, 0, 87, 54
1, 290421, Note_off_c, 0, 63, 34
1, 290441, Note_off_c, 0, 80, 42
1, 290442, Control_c, 0, 64, 76
1, 290457, Control_c, 0, 64, 76
1, 290472, Control_c, 0, 64, 74
1, 290487, Control_c, 0, 64, 67
1, 290496, Note_on_c, 0, 59, 34
1, 290499, Note_on_c, 0, 89, 57
1, 290502, Control_c, 0, 64, 41
1, 290517, Control_c, 0, 64, 0
1, 290526, Note_on_c, 0, 61, 32
1, 290532, Note_on_c, 0, 68, 37
1, 290542, Note_off_c, 0, 87, 34
1, 290588, Note_on_c, 0, 85, 53
1, 290591, Control_c, 0, 64, 26
1, 290598, Note_off_c, 0, 89, 56
1, 290605, Control_c, 0, 64, 60
1, 290620, Control_c, 0, 64, 65
1, 290635, Control_c, 0, 64, 67
1, 290650, Control_c, 0, 64, 69
1, 290660, Note_off_c, 0, 59, 52
1, 290664, Control_c, 0, 64, 72
1, 290678, Control_c, 0, 64, 75
1, 290681, Note_off_c, 0, 68, 54
1, 290684, Note_on_c, 0, 80, 48
1, 290693, Control_c, 0, 64, 76
1, 290698, Note_off_c, 0, 61, 51
1, 290766, Note_off_c, 0, 85, 25
1, 290781, Note_on_c, 0, 89, 55
1, 290855, Note_off_c, 0, 80, 32
1, 290871, Control_c, 0, 64, 76
1, 290886, Control_c, 0, 64, 75
1, 290895, Note_off_c, 0, 89, 58
1, 290901, Control_c, 0, 64, 73
1, 290910, Note_on_c, 0, 90, 59
1, 290916, Control_c, 0, 64, 71
1, 290930, Control_c, 0, 64, 67
1, 290936, Note_on_c, 0, 58, 35
1, 290945, Control_c, 0, 64, 61
1, 290948, Note_on_c, 0, 66, 18
1, 290960, Control_c, 0, 64, 35
1, 290981, Note_on_c, 0, 61, 16
1, 290982, Control_c, 0, 64, 0
1, 291023, Note_off_c, 0, 90, 60
1, 291024, Note_on_c, 0, 85, 51
1, 291057, Control_c, 0, 64, 53
1, 291072, Control_c, 0, 64, 64
1, 291086, Control_c, 0, 64, 66
1, 291101, Control_c, 0, 64, 68
1, 291102, Note_on_c, 0, 78, 49
1, 291116, Control_c, 0, 64, 69
1, 291125, Note_off_c, 0, 58, 52
1, 291131, Control_c, 0, 64, 71
1, 291146, Note_off_c, 0, 85, 36
1, 291146, Control_c, 0, 64, 72
1, 291161, Control_c, 0, 64, 73
1, 291170, Note_off_c, 0, 66, 42
1, 291176, Control_c, 0, 64, 74
1, 291188, Note_on_c, 0, 90, 59
1, 291204, Note_off_c, 0, 78, 43
1, 291210, Note_off_c, 0, 61, 33
1, 291210, Note_off_c, 0, 90, 59
1, 291276, Note_on_c, 0, 90, 69
1, 291290, Note_on_c, 0, 66, 46
1, 291295, Note_on_c, 0, 58, 38
1, 291301, Note_on_c, 0, 61, 25
1, 291324, Control_c, 0, 64, 74
1, 291353, Note_on_c, 0, 85, 55
1, 291375, Note_off_c, 0, 90, 39
1, 291408, Note_off_c, 0, 58, 55
1, 291438, Note_off_c, 0, 85, 59
1, 291441, Note_on_c, 0, 78, 63
1, 291459, Note_off_c, 0, 61, 33
1, 291466, Note_off_c, 0, 66, 41
1, 291490, Note_off_c, 0, 78, 57
1, 291517, Note_on_c, 0, 90, 67
1, 291546, Control_c, 0, 64, 73
1, 291551, Note_off_c, 0, 90, 62
1, 291614, Note_on_c, 0, 90, 62
1, 291623, Note_on_c, 0, 61, 40
1, 291630, Note_on_c, 0, 66, 43
1, 291633, Note_on_c, 0, 58, 44
1, 291692, Note_on_c, 0, 85, 62
1, 291712, Note_off_c, 0, 90, 46
1, 291778, Note_off_c, 0, 66, 55
1, 291789, Note_off_c, 0, 85, 60
1, 291793, Note_on_c, 0, 78, 63
1, 291795, Note_off_c, 0, 58, 37
1, 291821, Control_c, 0, 67, 127
1, 291836, Control_c, 0, 67, 107
1, 291843, Note_off_c, 0, 61, 27
1, 291850, Control_c, 0, 67, 86
1, 291865, Note_off_c, 0, 78, 56
1, 291865, Control_c, 0, 67, 72
1, 291880, Control_c, 0, 67, 65
1, 291882, Note_on_c, 0, 90, 61
1, 291895, Control_c, 0, 67, 60
1, 291909, Control_c, 0, 67, 55
1, 291924, Control_c, 0, 67, 49
1, 291930, Note_off_c, 0, 90, 57
1, 291939, Control_c, 0, 67, 45
1, 291954, Control_c, 0, 67, 42
1, 291969, Control_c, 0, 67, 38
1, 291984, Control_c, 0, 67, 33
1, 291997, Note_on_c, 0, 57, 32
1, 291998, Control_c, 0, 64, 73
1, 291998, Control_c, 0, 67, 24
1, 292000, Note_on_c, 0, 66, 48
1, 292001, Note_on_c, 0, 90, 55
1, 292010, Note_on_c, 0, 60, 51
1, 292013, Control_c, 0, 67, 11
1, 292028, Control_c, 0, 64, 72
1, 292028, Control_c, 0, 67, 0
1, 292043, Control_c, 0, 64, 70
1, 292058, Control_c, 0, 64, 65
1, 292073, Control_c, 0, 64, 44
1, 292082, Note_on_c, 0, 84, 60
1, 292088, Control_c, 0, 64, 0
1, 292091, Note_off_c, 0, 90, 55
1, 292117, Control_c, 0, 64, 25
1, 292132, Control_c, 0, 64, 56
1, 292147, Control_c, 0, 64, 64
1, 292162, Control_c, 0, 64, 67
1, 292176, Control_c, 0, 64, 71
1, 292183, Note_on_c, 0, 78, 64
1, 292191, Control_c, 0, 64, 75
1, 292202, Note_off_c, 0, 84, 51
1, 292206, Control_c, 0, 64, 80
1, 292221, Control_c, 0, 64, 81
1, 292236, Control_c, 0, 64, 82
1, 292247, Note_off_c, 0, 60, 38
1, 292250, Control_c, 0, 64, 83
1, 292257, Note_off_c, 0, 57, 37
1, 292258, Note_off_c, 0, 66, 38
1, 292265, Control_c, 0, 64, 84
1, 292267, Note_off_c, 0, 78, 58
1, 292275, Note_on_c, 0, 90, 65
1, 292280, Control_c, 0, 64, 84
1, 292295, Control_c, 0, 64, 85
1, 292309, Control_c, 0, 64, 86
1, 292310, Note_off_c, 0, 90, 59
1, 292324, Control_c, 0, 64, 88
1, 292339, Control_c, 0, 64, 90
1, 292354, Control_c, 0, 64, 93
1, 292357, Note_on_c, 0, 90, 77
1, 292369, Control_c, 0, 64, 96
1, 292377, Note_on_c, 0, 57, 61
1, 292377, Note_on_c, 0, 66, 67
1, 292381, Note_on_c, 0, 60, 57
1, 292383, Control_c, 0, 64, 99
1, 292398, Control_c, 0, 64, 102
1, 292413, Control_c, 0, 64, 105
1, 292428, Control_c, 0, 64, 108
1, 292443, Control_c, 0, 64, 112
1, 292443, Note_on_c, 0, 84, 67
1, 292458, Control_c, 0, 64, 116
1, 292462, Note_off_c, 0, 90, 61
1, 292480, Control_c, 0, 64, 120
1, 292495, Control_c, 0, 64, 122
1, 292509, Control_c, 0, 64, 124
1, 292524, Control_c, 0, 64, 125
1, 292539, Control_c, 0, 64, 126
1, 292540, Note_off_c, 0, 60, 58
1, 292544, Note_off_c, 0, 57, 37
1, 292547, Note_on_c, 0, 78, 66
1, 292550, Note_off_c, 0, 84, 59
1, 292554, Note_off_c, 0, 66, 57
1, 292554, Control_c, 0, 64, 126
1, 292569, Control_c, 0, 64, 127
1, 292640, Note_on_c, 0, 90, 72
1, 292652, Note_off_c, 0, 78, 63
1, 292674, Control_c, 0, 64, 127
1, 292675, Note_off_c, 0, 90, 59
1, 292716, Note_on_c, 0, 90, 81
1, 292732, Control_c, 0, 67, 8
1, 292733, Note_on_c, 0, 57, 60
1, 292743, Note_on_c, 0, 66, 63
1, 292747, Note_on_c, 0, 60, 57
1, 292747, Control_c, 0, 67, 9
1, 292762, Control_c, 0, 67, 9
1, 292777, Control_c, 0, 67, 10
1, 292792, Control_c, 0, 67, 11
1, 292804, Note_on_c, 0, 84, 71
1, 292806, Control_c, 0, 67, 11
1, 292821, Control_c, 0, 67, 12
1, 292831, Note_off_c, 0, 90, 60
1, 292836, Control_c, 0, 67, 12
1, 292842, Note_off_c, 0, 57, 57
1, 292851, Control_c, 0, 67, 13
1, 292878, Note_off_c, 0, 60, 55
1, 292880, Note_off_c, 0, 66, 53
1, 292893, Note_on_c, 0, 78, 77
1, 292897, Note_off_c, 0, 84, 62
1, 292926, Control_c, 0, 67, 12
1, 292940, Control_c, 0, 67, 12
1, 292953, Note_off_c, 0, 78, 64
1, 292970, Note_on_c, 0, 90, 84
1, 292985, Control_c, 0, 67, 13
1, 293011, Note_off_c, 0, 90, 64
1, 293015, Control_c, 0, 67, 13
1, 293030, Control_c, 0, 67, 14
1, 293045, Control_c, 0, 67, 14
1, 293048, Note_on_c, 0, 90, 83
1, 293059, Control_c, 0, 67, 16
1, 293060, Note_on_c, 0, 57, 63
1, 293064, Note_on_c, 0, 60, 51
1, 293069, Note_on_c, 0, 66, 63
1, 293074, Control_c, 0, 67, 20
1, 293089, Control_c, 0, 67, 22
1, 293099, Note_off_c, 0, 66, 67
1, 293104, Control_c, 0, 67, 23
1, 293111, Note_off_c, 0, 60, 61
1, 293119, Control_c, 0, 67, 25
1, 293124, Note_off_c, 0, 57, 59
1, 293133, Control_c, 0, 67, 30
1, 293145, Note_on_c, 0, 84, 73
1, 293148, Control_c, 0, 67, 35
1, 293163, Control_c, 0, 67, 41
1, 293178, Control_c, 0, 67, 47
1, 293193, Control_c, 0, 67, 51
1, 293197, Note_off_c, 0, 90, 61
1, 293207, Control_c, 0, 67, 55
1, 293230, Control_c, 0, 67, 57
1, 293242, Note_on_c, 0, 78, 74
1, 293244, Control_c, 0, 67, 57
1, 293255, Note_off_c, 0, 84, 60
1, 293274, Control_c, 0, 67, 57
1, 293319, Note_on_c, 0, 90, 87
1, 293333, Control_c, 0, 67, 56
1, 293346, Note_off_c, 0, 78, 52
1, 293370, Note_off_c, 0, 90, 64
1, 293378, Control_c, 0, 67, 56
1, 293393, Control_c, 0, 64, 127
1, 293408, Control_c, 0, 64, 120
1, 293408, Control_c, 0, 67, 55
1, 293423, Control_c, 0, 64, 112
1, 293423, Control_c, 0, 67, 55
1, 293426, Note_on_c, 0, 90, 88
1, 293435, Note_on_c, 0, 48, 70
1, 293438, Control_c, 0, 64, 103
1, 293444, Note_on_c, 0, 45, 66
1, 293445, Note_on_c, 0, 38, 58
1, 293451, Note_on_c, 0, 42, 58
1, 293453, Control_c, 0, 64, 90
1, 293453, Control_c, 0, 67, 54
1, 293468, Control_c, 0, 64, 76
1, 293468, Control_c, 0, 67, 53
1, 293482, Control_c, 0, 64, 58
1, 293482, Control_c, 0, 67, 52
1, 293497, Control_c, 0, 64, 0
1, 293497, Control_c, 0, 67, 51
1, 293512, Control_c, 0, 67, 51
1, 293527, Note_on_c, 0, 84, 65
1, 293527, Control_c, 0, 64, 24
1, 293542, Control_c, 0, 64, 64
1, 293542, Control_c, 0, 67, 50
1, 293556, Control_c, 0, 64, 70
1, 293556, Control_c, 0, 67, 50
1, 293560, Note_off_c, 0, 90, 62
1, 293571, Control_c, 0, 64, 77
1, 293586, Control_c, 0, 64, 84
1, 293587, Note_off_c, 0, 38, 60
1, 293601, Control_c, 0, 64, 89
1, 293608, Note_off_c, 0, 48, 62
1, 293612, Note_off_c, 0, 42, 62
1, 293616, Control_c, 0, 64, 90
1, 293616, Control_c, 0, 67, 49
1, 293620, Note_on_c, 0, 78, 74
1, 293626, Note_off_c, 0, 45, 61
1, 293626, Note_off_c, 0, 84, 64
1, 293630, Control_c, 0, 64, 91
1, 293630, Control_c, 0, 67, 49
1, 293645, Control_c, 0, 64, 92
1, 293645, Control_c, 0, 67, 48
1, 293660, Control_c, 0, 67, 48
1, 293678, Note_off_c, 0, 78, 59
1, 293688, Note_on_c, 0, 90, 85
1, 293717, Note_off_c, 0, 90, 63
1, 293734, Control_c, 0, 67, 47
1, 293748, Control_c, 0, 67, 46
1, 293763, Control_c, 0, 67, 43
1, 293778, Note_on_c, 0, 90, 84
1, 293778, Control_c, 0, 64, 91
1, 293778, Control_c, 0, 67, 38
1, 293779, Note_on_c, 0, 45, 66
1, 293786, Note_on_c, 0, 48, 81
1, 293793, Note_on_c, 0, 38, 69
1, 293793, Control_c, 0, 64, 89
1, 293793, Control_c, 0, 67, 32
1, 293802, Note_on_c, 0, 42, 69
1, 293808, Control_c, 0, 64, 83
1, 293808, Control_c, 0, 67, 26
1, 293823, Control_c, 0, 64, 73
1, 293823, Control_c, 0, 67, 17
1, 293838, Control_c, 0, 64, 55
1, 293838, Control_c, 0, 67, 0
1, 293853, Control_c, 0, 64, 0
1, 293862, Note_on_c, 0, 84, 54
1, 293867, Control_c, 0, 64, 52
1, 293882, Control_c, 0, 64, 65
1, 293897, Control_c, 0, 64, 72
1, 293912, Control_c, 0, 64, 80
1, 293915, Note_off_c, 0, 90, 63
1, 293927, Control_c, 0, 64, 87
1, 293937, Note_off_c, 0, 38, 54
1, 293942, Control_c, 0, 64, 90
1, 293954, Note_on_c, 0, 78, 78
1, 293956, Control_c, 0, 64, 91
1, 293966, Note_off_c, 0, 84, 63
1, 293967, Note_off_c, 0, 48, 54
1, 293971, Control_c, 0, 64, 92
1, 293995, Note_off_c, 0, 45, 60
1, 293998, Note_off_c, 0, 42, 55
1, 294029, Note_off_c, 0, 78, 63
1, 294042, Note_on_c, 0, 90, 89
1, 294091, Note_off_c, 0, 90, 63
1, 294142, Note_on_c, 0, 90, 91
1, 294142, Control_c, 0, 64, 90
1, 294151, Note_on_c, 0, 48, 83
1, 294155, Note_on_c, 0, 38, 74
1, 294156, Note_on_c, 0, 45, 78
1, 294156, Control_c, 0, 64, 83
1, 294160, Note_on_c, 0, 42, 70
1, 294171, Control_c, 0, 64, 71
1, 294185, Note_on_c, 0, 91, 34
1, 294186, Control_c, 0, 64, 18
1, 294201, Control_c, 0, 64, 0
1, 294213, Note_off_c, 0, 91, 37
1, 294219, Note_on_c, 0, 84, 72
1, 294231, Control_c, 0, 64, 10
1, 294246, Control_c, 0, 64, 63
1, 294261, Control_c, 0, 64, 70
1, 294276, Control_c, 0, 64, 78
1, 294287, Note_off_c, 0, 90, 63
1, 294291, Control_c, 0, 64, 85
1, 294305, Control_c, 0, 64, 87
1, 294316, Note_on_c, 0, 78, 82
1, 294320, Control_c, 0, 64, 88
1, 294332, Note_off_c, 0, 84, 62
1, 294336, Note_off_c, 0, 48, 58
1, 294342, Note_off_c, 0, 38, 59
1, 294349, Note_off_c, 0, 42, 58
1, 294365, Note_off_c, 0, 45, 60
1, 294393, Note_on_c, 0, 90, 93
1, 294410, Note_off_c, 0, 78, 54
1, 294435, Note_off_c, 0, 90, 66
1, 294468, Control_c, 0, 64, 88
1, 294483, Control_c, 0, 64, 82
1, 294484, Note_on_c, 0, 90, 92
1, 294493, Note_on_c, 0, 38, 71
1, 294493, Note_on_c, 0, 48, 83
1, 294494, Note_on_c, 0, 45, 74
1, 294497, Control_c, 0, 64, 72
1, 294505, Note_on_c, 0, 42, 68
1, 294512, Control_c, 0, 64, 0
1, 294557, Control_c, 0, 64, 59
1, 294557, Control_c, 0, 67, 9
1, 294567, Note_on_c, 0, 84, 77
1, 294571, Control_c, 0, 64, 69
1, 294571, Control_c, 0, 67, 12
1, 294583, Note_off_c, 0, 48, 62
1, 294586, Control_c, 0, 64, 78
1, 294586, Control_c, 0, 67, 15
1, 294590, Note_off_c, 0, 38, 62
1, 294601, Control_c, 0, 64, 89
1, 294601, Control_c, 0, 67, 19
1, 294616, Note_off_c, 0, 42, 64
1, 294616, Control_c, 0, 64, 94
1, 294616, Control_c, 0, 67, 21
1, 294617, Note_off_c, 0, 45, 64
1, 294630, Note_off_c, 0, 90, 63
1, 294631, Control_c, 0, 64, 95
1, 294631, Control_c, 0, 67, 23
1, 294654, Note_on_c, 0, 78, 83
1, 294675, Control_c, 0, 67, 22
1, 294676, Note_off_c, 0, 84, 64
1, 294705, Control_c, 0, 67, 23
1, 294727, Control_c, 0, 67, 23
1, 294741, Note_on_c, 0, 90, 97
1, 294742, Control_c, 0, 67, 24
1, 294757, Control_c, 0, 67, 26
1, 294758, Note_off_c, 0, 78, 41
1, 294772, Control_c, 0, 67, 27
1, 294801, Control_c, 0, 67, 27
1, 294809, Note_off_c, 0, 90, 64
1, 294816, Control_c, 0, 64, 95
1, 294830, Control_c, 0, 64, 93
1, 294830, Control_c, 0, 67, 28
1, 294845, Control_c, 0, 64, 91
1, 294845, Control_c, 0, 67, 30
1, 294852, Note_on_c, 0, 90, 80
1, 294860, Control_c, 0, 64, 85
1, 294860, Control_c, 0, 67, 37
1, 294866, Note_on_c, 0, 49, 75
1, 294872, Note_on_c, 0, 58, 80
1, 294875, Control_c, 0, 64, 76
1, 294875, Control_c, 0, 67, 44
1, 294890, Control_c, 0, 64, 48
1, 294890, Control_c, 0, 67, 48
1, 294905, Control_c, 0, 64, 0
1, 294905, Control_c, 0, 67, 49
1, 294920, Control_c, 0, 67, 48
1, 294935, Control_c, 0, 67, 47
1, 294948, Note_on_c, 0, 83, 64
1, 294950, Control_c, 0, 67, 46
1, 294961, Note_on_c, 0, 56, 68
1, 294962, Note_off_c, 0, 58, 63
1, 294964, Control_c, 0, 67, 46
1, 294979, Control_c, 0, 67, 45
1, 294994, Control_c, 0, 64, 56
1, 294994, Control_c, 0, 67, 44
1, 295000, Note_off_c, 0, 90, 64
1, 295009, Control_c, 0, 64, 68
1, 295024, Control_c, 0, 64, 74
1, 295025, Note_on_c, 0, 78, 76
1, 295026, Note_on_c, 0, 58, 61
1, 295028, Note_off_c, 0, 56, 63
1, 295039, Control_c, 0, 64, 82
1, 295045, Note_off_c, 0, 83, 56
1, 295054, Control_c, 0, 64, 85
1, 295069, Control_c, 0, 64, 86
1, 295078, Note_off_c, 0, 78, 62
1, 295084, Control_c, 0, 64, 87
1, 295099, Control_c, 0, 64, 87
1, 295099, Note_off_c, 0, 58, 64
1, 295103, Note_on_c, 0, 56, 63
1, 295105, Note_on_c, 0, 90, 83
1, 295136, Note_off_c, 0, 90, 61
1, 295157, Note_on_c, 0, 58, 66
1, 295162, Note_off_c, 0, 56, 63
1, 295172, Control_c, 0, 64, 88
1, 295183, Note_on_c, 0, 90, 90
1, 295201, Control_c, 0, 67, 44
1, 295219, Note_on_c, 0, 56, 61
1, 295224, Note_off_c, 0, 58, 63
1, 295231, Control_c, 0, 67, 43
1, 295260, Control_c, 0, 67, 42
1, 295262, Note_on_c, 0, 83, 72
1, 295274, Note_on_c, 0, 58, 62
1, 295275, Control_c, 0, 67, 41
1, 295290, Control_c, 0, 67, 40
1, 295296, Note_off_c, 0, 56, 56
1, 295305, Control_c, 0, 67, 39
1, 295310, Note_off_c, 0, 90, 63
1, 295319, Control_c, 0, 67, 38
1, 295331, Note_on_c, 0, 56, 34
1, 295334, Control_c, 0, 67, 36
1, 295343, Note_on_c, 0, 78, 71
1, 295349, Control_c, 0, 67, 34
1, 295352, Note_off_c, 0, 58, 63
1, 295353, Note_off_c, 0, 83, 59
1, 295364, Control_c, 0, 67, 29
1, 295379, Control_c, 0, 67, 24
1, 295388, Note_off_c, 0, 78, 63
1, 295394, Control_c, 0, 67, 21
1, 295395, Note_on_c, 0, 90, 88
1, 295401, Note_on_c, 0, 58, 62
1, 295406, Note_off_c, 0, 56, 63
1, 295409, Control_c, 0, 67, 18
1, 295424, Control_c, 0, 67, 18
1, 295442, Note_off_c, 0, 90, 66
1, 295462, Note_on_c, 0, 56, 63
1, 295477, Note_off_c, 0, 58, 64
1, 295483, Note_on_c, 0, 89, 91
1, 295505, Control_c, 0, 64, 87
1, 295520, Control_c, 0, 64, 85
1, 295520, Control_c, 0, 67, 18
1, 295525, Poly_aftertouch_c, 0, 85, 127
1, 295531, Note_on_c, 0, 58, 67
1, 295534, Control_c, 0, 64, 79
1, 295534, Control_c, 0, 67, 20
1, 295540, Note_off_c, 0, 56, 63
1, 295549, Control_c, 0, 64, 67
1, 295549, Control_c, 0, 67, 21
1, 295561, Note_on_c, 0, 83, 72
1, 295564, Control_c, 0, 64, 0
1, 295564, Control_c, 0, 67, 22
1, 295579, Control_c, 0, 67, 23
1, 295593, Control_c, 0, 67, 23
1, 295594, Note_on_c, 0, 56, 62
1, 295611, Note_off_c, 0, 58, 60
1, 295612, Poly_aftertouch_c, 0, 85, 0
1, 295623, Control_c, 0, 67, 24
1, 295626, Note_off_c, 0, 89, 63
1, 295650, Note_on_c, 0, 77, 83
1, 295653, Control_c, 0, 67, 23
1, 295667, Note_on_c, 0, 58, 67
1, 295667, Note_off_c, 0, 83, 58
1, 295669, Note_off_c, 0, 56, 64
1, 295683, Control_c, 0, 64, 65
1, 295698, Control_c, 0, 64, 74
1, 295698, Control_c, 0, 67, 23
1, 295710, Note_off_c, 0, 77, 62
1, 295713, Control_c, 0, 64, 80
1, 295713, Control_c, 0, 67, 22
1, 295714, Note_on_c, 0, 56, 56
1, 295725, Note_on_c, 0, 89, 88
1, 295727, Control_c, 0, 64, 85
1, 295727, Control_c, 0, 67, 22
1, 295734, Note_off_c, 0, 58, 62
1, 295742, Control_c, 0, 64, 86
1, 295742, Control_c, 0, 67, 21
1, 295757, Control_c, 0, 64, 87
1, 295757, Control_c, 0, 67, 21
1, 295768, Note_off_c, 0, 89, 65
1, 295772, Control_c, 0, 64, 87
1, 295772, Control_c, 0, 67, 20
1, 295789, Note_off_c, 0, 56, 62
1, 295805, Note_on_c, 0, 89, 75
1, 295811, Note_on_c, 0, 58, 73
1, 295817, Control_c, 0, 67, 20
1, 295856, Note_on_c, 0, 56, 62
1, 295871, Note_off_c, 0, 58, 62
1, 295888, Note_on_c, 0, 83, 79
1, 295906, Control_c, 0, 67, 20
1, 295942, Note_off_c, 0, 89, 57
1, 295949, Control_c, 0, 67, 21
1, 295981, Note_off_c, 0, 56, 63
1, 295987, Note_on_c, 0, 54, 67
1, 295994, Control_c, 0, 64, 87
1, 295996, Note_on_c, 0, 77, 87
1, 296015, Note_off_c, 0, 83, 55
1, 296023, Control_c, 0, 67, 20
1, 296038, Control_c, 0, 67, 19
1, 296053, Control_c, 0, 67, 19
1, 296067, Control_c, 0, 67, 17
1, 296082, Control_c, 0, 67, 16
1, 296097, Note_off_c, 0, 54, 61
1, 296097, Control_c, 0, 64, 86
1, 296097, Control_c, 0, 67, 12
1, 296101, Note_on_c, 0, 89, 98
1, 296112, Control_c, 0, 67, 0
1, 296118, Note_on_c, 0, 56, 62
1, 296119, Note_off_c, 0, 49, 38
1, 296127, Control_c, 0, 64, 86
1, 296137, Note_off_c, 0, 77, 59
1, 296154, Note_off_c, 0, 56, 62
1, 296172, Control_c, 0, 64, 85
1, 296199, Note_off_c, 0, 89, 64
1, 296238, Control_c, 0, 64, 85
1, 296335, Note_on_c, 0, 90, 90
1, 296343, Note_on_c, 0, 78, 78
1, 296348, Note_on_c, 0, 82, 65
1, 296357, Control_c, 0, 64, 84
1, 296360, Note_on_c, 0, 54, 51
1, 296361, Note_on_c, 0, 42, 56
1, 296401, Control_c, 0, 64, 84
1, 296416, Control_c, 0, 64, 83
1, 296431, Control_c, 0, 64, 79
1, 296446, Control_c, 0, 64, 74
1, 296461, Control_c, 0, 64, 66
1, 296475, Control_c, 0, 64, 30
1, 296490, Control_c, 0, 64, 0
1, 296654, Control_c, 0, 67, 10
1, 296670, Control_c, 0, 67, 14
1, 296684, Control_c, 0, 67, 21
1, 296699, Control_c, 0, 67, 30
1, 296714, Control_c, 0, 67, 44
1, 296729, Control_c, 0, 67, 58
1, 296744, Control_c, 0, 67, 72
1, 296759, Control_c, 0, 67, 85
1, 296773, Control_c, 0, 67, 99
1, 296788, Control_c, 0, 67, 111
1, 296795, Note_off_c, 0, 42, 62
1, 296803, Control_c, 0, 67, 122
1, 296816, Note_off_c, 0, 54, 55
1, 296818, Control_c, 0, 67, 127
1, 296849, Note_off_c, 0, 90, 59
1, 296872, Note_off_c, 0, 82, 58
1, 296890, Note_off_c, 0, 78, 37
1, 297136, Control_c, 0, 64, 10
1, 297151, Control_c, 0, 64, 19
1, 297166, Control_c, 0, 64, 22
1, 297180, Control_c, 0, 64, 25
1, 297195, Control_c, 0, 64, 26
1, 297210, Control_c, 0, 64, 27
1, 297224, Control_c, 0, 64, 28
1, 297239, Control_c, 0, 64, 29
1, 297254, Control_c, 0, 64, 31
1, 297269, Control_c, 0, 64, 32
1, 297283, Note_on_c, 0, 82, 52
1, 297284, Control_c, 0, 64, 33
1, 297299, Control_c, 0, 64, 34
1, 297309, Note_on_c, 0, 66, 27
1, 297313, Control_c, 0, 64, 34
1, 297343, Control_c, 0, 64, 35
1, 297358, Control_c, 0, 64, 37
1, 297373, Control_c, 0, 64, 38
1, 297388, Control_c, 0, 64, 39
1, 297403, Control_c, 0, 64, 40
1, 297405, Note_on_c, 0, 78, 63
1, 297412, Note_on_c, 0, 68, 47
1, 297418, Control_c, 0, 64, 41
1, 297433, Control_c, 0, 64, 42
1, 297447, Control_c, 0, 64, 44
1, 297461, Note_off_c, 0, 66, 41
1, 297462, Control_c, 0, 64, 44
1, 297465, Note_off_c, 0, 82, 36
1, 297477, Control_c, 0, 64, 45
1, 297494, Note_on_c, 0, 70, 49
1, 297507, Control_c, 0, 64, 46
1, 297516, Note_off_c, 0, 68, 53
1, 297518, Note_on_c, 0, 73, 61
1, 297519, Note_off_c, 0, 78, 57
1, 297551, Control_c, 0, 64, 46
1, 297566, Control_c, 0, 64, 49
1, 297581, Control_c, 0, 64, 51
1, 297595, Control_c, 0, 64, 54
1, 297603, Note_off_c, 0, 70, 55
1, 297610, Control_c, 0, 64, 55
1, 297617, Note_on_c, 0, 71, 45
1, 297625, Control_c, 0, 64, 55
1, 297639, Control_c, 0, 64, 56
1, 297640, Note_on_c, 0, 75, 56
1, 297645, Note_off_c, 0, 73, 51
1, 297669, Control_c, 0, 64, 55
1, 297684, Control_c, 0, 64, 54
1, 297699, Note_off_c, 0, 71, 56
1, 297699, Control_c, 0, 64, 53
1, 297721, Control_c, 0, 64, 51
1, 297734, Note_on_c, 0, 66, 43
1, 297736, Control_c, 0, 64, 48
1, 297737, Note_on_c, 0, 78, 67
1, 297740, Note_off_c, 0, 75, 64
1, 297751, Control_c, 0, 64, 45
1, 297766, Control_c, 0, 64, 40
1, 297781, Control_c, 0, 64, 34
1, 297795, Control_c, 0, 64, 24
1, 297808, Note_off_c, 0, 66, 59
1, 297810, Control_c, 0, 64, 0
1, 297811, Note_off_c, 0, 78, 63
1, 297840, Note_on_c, 0, 75, 67
1, 297846, Note_on_c, 0, 71, 48
1, 297935, Note_off_c, 0, 75, 65
1, 297936, Note_off_c, 0, 71, 56
1, 297944, Note_on_c, 0, 73, 70
1, 297957, Note_on_c, 0, 70, 53
1, 297969, Note_on_c, 0, 66, 39
1, 298047, Note_off_c, 0, 73, 57
1, 298052, Note_on_c, 0, 78, 75
1, 298151, Note_on_c, 0, 80, 83
1, 298174, Note_off_c, 0, 78, 56
1, 298213, Note_off_c, 0, 70, 61
1, 298235, Note_off_c, 0, 66, 56
1, 298254, Note_on_c, 0, 82, 79
1, 298265, Note_off_c, 0, 80, 65
1, 298356, Note_on_c, 0, 78, 82
1, 298387, Note_off_c, 0, 82, 59
1, 298452, Note_on_c, 0, 85, 80
1, 298479, Note_off_c, 0, 78, 62
1, 298568, Note_on_c, 0, 82, 80
1, 298577, Note_on_c, 0, 54, 58
1, 298611, Note_off_c, 0, 85, 58
1, 298670, Note_on_c, 0, 56, 70
1, 298679, Note_on_c, 0, 78, 72
1, 298714, Note_off_c, 0, 82, 59
1, 298716, Note_off_c, 0, 54, 58
1, 298774, Note_on_c, 0, 58, 72
1, 298777, Note_off_c, 0, 78, 64
1, 298777, Note_on_c, 0, 73, 73
1, 298798, Note_off_c, 0, 56, 58
1, 298840, Note_off_c, 0, 73, 55
1, 298873, Note_off_c, 0, 58, 64
1, 298883, Note_on_c, 0, 71, 65
1, 298893, Note_on_c, 0, 59, 65
1, 298895, Note_on_c, 0, 49, 56
1, 298980, Note_off_c, 0, 59, 61
1, 298989, Note_on_c, 0, 68, 62
1, 298999, Note_off_c, 0, 71, 54
1, 299005, Note_on_c, 0, 56, 55
1, 299084, Note_off_c, 0, 49, 35
1, 299094, Note_off_c, 0, 68, 62
1, 299096, Note_off_c, 0, 56, 58
1, 299114, Note_on_c, 0, 73, 53
1, 299125, Note_on_c, 0, 61, 47
1, 299199, Note_off_c, 0, 61, 59
1, 299251, Note_on_c, 0, 58, 37
1, 299257, Note_on_c, 0, 70, 53
1, 299266, Note_on_c, 0, 54, 34
1, 299278, Control_c, 0, 64, 29
1, 299293, Note_off_c, 0, 73, 29
1, 299293, Control_c, 0, 64, 58
1, 299308, Control_c, 0, 64, 65
1, 299323, Control_c, 0, 64, 69
1, 299337, Control_c, 0, 64, 73
1, 299352, Control_c, 0, 64, 79
1, 299367, Control_c, 0, 64, 83
1, 299382, Control_c, 0, 64, 85
1, 299397, Control_c, 0, 64, 87
1, 299412, Control_c, 0, 64, 89
1, 299421, Note_off_c, 0, 70, 62
1, 299426, Control_c, 0, 64, 90
1, 299441, Control_c, 0, 64, 92
1, 299456, Control_c, 0, 64, 92
1, 299505, Note_off_c, 0, 54, 45
1, 299511, Note_off_c, 0, 58, 62
1, 299604, Control_c, 0, 64, 92
1, 299618, Note_on_c, 0, 73, 46
1, 299618, Control_c, 0, 64, 91
1, 299633, Control_c, 0, 64, 90
1, 299648, Control_c, 0, 64, 88
1, 299664, Control_c, 0, 64, 86
1, 299679, Control_c, 0, 64, 83
1, 299693, Control_c, 0, 64, 80
1, 299708, Control_c, 0, 64, 75
1, 299713, Note_on_c, 0, 78, 55
1, 299717, Note_off_c, 0, 73, 50
1, 299723, Control_c, 0, 64, 68
1, 299738, Control_c, 0, 64, 59
1, 299753, Control_c, 0, 64, 0
1, 299813, Note_on_c, 0, 80, 51
1, 299814, Note_off_c, 0, 78, 53
1, 299922, Note_on_c, 0, 82, 54
1, 299931, Note_on_c, 0, 66, 44
1, 299943, Note_off_c, 0, 80, 51
1, 300035, Note_off_c, 0, 82, 59
1, 300042, Note_on_c, 0, 68, 49
1, 300044, Note_on_c, 0, 78, 53
1, 300090, Note_off_c, 0, 66, 38
1, 300136, Note_on_c, 0, 70, 45
1, 300143, Note_off_c, 0, 68, 54
1, 300145, Note_off_c, 0, 78, 58
1, 300157, Note_on_c, 0, 73, 44
1, 300228, Note_off_c, 0, 70, 54
1, 300243, Note_off_c, 0, 73, 54
1, 300254, Note_on_c, 0, 71, 38
1, 300273, Note_on_c, 0, 75, 43
1, 300322, Note_off_c, 0, 71, 47
1, 300361, Note_off_c, 0, 75, 61
1, 300375, Note_on_c, 0, 66, 29
1, 300377, Note_on_c, 0, 78, 44
1, 300434, Note_off_c, 0, 66, 44
1, 300452, Note_off_c, 0, 78, 42
1, 300457, Note_on_c, 0, 71, 31
1, 300506, Note_on_c, 0, 75, 37
1, 300586, Note_off_c, 0, 75, 57
1, 300587, Note_off_c, 0, 71, 24
1, 300596, Note_on_c, 0, 73, 42
1, 300598, Note_on_c, 0, 70, 41
1, 300601, Note_on_c, 0, 66, 25
1, 300729, Note_on_c, 0, 78, 50
1, 300738, Note_off_c, 0, 73, 33
1, 300776, Note_off_c, 0, 70, 40
1, 300787, Note_off_c, 0, 66, 47
1, 300836, Note_on_c, 0, 80, 50
1, 300836, Control_c, 0, 64, 16
1, 300851, Control_c, 0, 64, 22
1, 300865, Control_c, 0, 64, 26
1, 300871, Note_off_c, 0, 78, 40
1, 300880, Control_c, 0, 64, 28
1, 300895, Control_c, 0, 64, 32
1, 300910, Control_c, 0, 64, 34
1, 300939, Control_c, 0, 64, 35
1, 300944, Note_on_c, 0, 82, 55
1, 300969, Note_off_c, 0, 80, 38
1, 300969, Control_c, 0, 64, 36
1, 300984, Control_c, 0, 64, 37
1, 300999, Control_c, 0, 64, 39
1, 301013, Control_c, 0, 64, 40
1, 301029, Note_off_c, 0, 82, 63
1, 301053, Note_on_c, 0, 78, 59
1, 301072, Control_c, 0, 64, 40
1, 301156, Note_off_c, 0, 78, 53
1, 301159, Note_on_c, 0, 85, 56
1, 301161, Control_c, 0, 64, 40
1, 301176, Control_c, 0, 64, 41
1, 301205, Control_c, 0, 64, 41
1, 301250, Control_c, 0, 64, 42
1, 301250, Control_c, 0, 67, 125
1, 301264, Control_c, 0, 64, 44
1, 301264, Control_c, 0, 67, 119
1, 301279, Control_c, 0, 64, 49
1, 301279, Control_c, 0, 67, 115
1, 301294, Control_c, 0, 64, 59
1, 301294, Control_c, 0, 67, 108
1, 301308, Note_off_c, 0, 85, 56
1, 301309, Control_c, 0, 64, 64
1, 301309, Control_c, 0, 67, 99
1, 301313, Note_on_c, 0, 79, 86
1, 301324, Control_c, 0, 64, 70
1, 301324, Control_c, 0, 67, 81
1, 301326, Note_on_c, 0, 73, 74
1, 301329, Note_on_c, 0, 67, 67
1, 301329, Note_on_c, 0, 70, 65
1, 301332, Note_on_c, 0, 63, 61
1, 301338, Control_c, 0, 64, 78
1, 301338, Control_c, 0, 67, 63
1, 301353, Control_c, 0, 64, 88
1, 301353, Control_c, 0, 67, 45
1, 301368, Control_c, 0, 64, 99
1, 301368, Control_c, 0, 67, 28
1, 301384, Control_c, 0, 64, 108
1, 301384, Control_c, 0, 67, 12
1, 301399, Control_c, 0, 64, 119
1, 301399, Control_c, 0, 67, 0
1, 301414, Control_c, 0, 64, 127
1, 301491, Note_off_c, 0, 70, 61
1, 301505, Note_off_c, 0, 67, 62
1, 301527, Note_off_c, 0, 63, 62
1, 301558, Note_off_c, 0, 73, 62
1, 301775, Note_on_c, 0, 80, 89
1, 301784, Note_on_c, 0, 71, 73
1, 301788, Note_on_c, 0, 75, 77
1, 301794, Note_on_c, 0, 63, 63
1, 301796, Note_on_c, 0, 68, 69
1, 301800, Note_on_c, 0, 56, 64
1, 301802, Note_on_c, 0, 59, 62
1, 301835, Control_c, 0, 64, 119
1, 301840, Note_off_c, 0, 79, 59
1, 301850, Control_c, 0, 64, 104
1, 301865, Control_c, 0, 64, 90
1, 301880, Control_c, 0, 64, 72
1, 301895, Control_c, 0, 64, 0
1, 301964, Note_off_c, 0, 56, 60
1, 301970, Note_off_c, 0, 71, 57
1, 301977, Note_off_c, 0, 59, 61
1, 301979, Note_off_c, 0, 68, 58
1, 301984, Note_off_c, 0, 75, 64
1, 301994, Note_off_c, 0, 63, 63
1, 302017, Note_off_c, 0, 80, 59
1, 302305, Note_on_c, 0, 77, 89
1, 302312, Note_on_c, 0, 71, 83
1, 302312, Note_on_c, 0, 68, 74
1, 302313, Note_on_c, 0, 73, 78
1, 302318, Note_on_c, 0, 65, 78
1, 302325, Note_on_c, 0, 61, 68
1, 302467, Control_c, 0, 64, 53
1, 302482, Control_c, 0, 64, 62
1, 302497, Control_c, 0, 64, 66
1, 302511, Control_c, 0, 64, 69
1, 302526, Control_c, 0, 64, 74
1, 302541, Control_c, 0, 64, 80
1, 302556, Control_c, 0, 64, 84
1, 302571, Control_c, 0, 64, 85
1, 302585, Control_c, 0, 64, 86
1, 302600, Control_c, 0, 64, 88
1, 302615, Control_c, 0, 64, 89
1, 302615, Control_c, 0, 67, 8
1, 302630, Control_c, 0, 64, 90
1, 302630, Control_c, 0, 67, 13
1, 302644, Control_c, 0, 67, 23
1, 302659, Control_c, 0, 67, 35
1, 302674, Control_c, 0, 64, 90
1, 302674, Control_c, 0, 67, 50
1, 302689, Control_c, 0, 67, 68
1, 302704, Control_c, 0, 67, 87
1, 302708, Note_off_c, 0, 68, 56
1, 302718, Control_c, 0, 67, 106
1, 302733, Control_c, 0, 64, 90
1, 302733, Control_c, 0, 67, 122
1, 302748, Control_c, 0, 67, 127
1, 302777, Note_off_c, 0, 65, 63
1, 302807, Control_c, 0, 64, 89
1, 302817, Note_off_c, 0, 61, 63
1, 302822, Control_c, 0, 64, 88
1, 302837, Control_c, 0, 64, 84
1, 302852, Control_c, 0, 64, 78
1, 302867, Control_c, 0, 64, 68
1, 302882, Control_c, 0, 64, 0
1, 302892, Note_off_c, 0, 77, 58
1, 302901, Note_off_c, 0, 71, 58
1, 302905, Note_off_c, 0, 73, 56
1, 303305, Note_on_c, 0, 71, 44
1, 303317, Note_on_c, 0, 49, 35
1, 303317, Note_on_c, 0, 59, 29
1, 303326, Note_on_c, 0, 56, 29
1, 303362, Note_off_c, 0, 71, 54
1, 303368, Note_on_c, 0, 73, 51
1, 303455, Note_off_c, 0, 73, 61
1, 303469, Note_on_c, 0, 71, 56
1, 303534, Note_off_c, 0, 71, 59
1, 303538, Note_on_c, 0, 70, 63
1, 303618, Note_off_c, 0, 70, 62
1, 303640, Note_on_c, 0, 71, 62
1, 303711, Note_off_c, 0, 56, 29
1, 303718, Note_off_c, 0, 71, 48
1, 303723, Note_on_c, 0, 80, 63
1, 303780, Poly_aftertouch_c, 0, 52, 127
1, 303799, Note_on_c, 0, 78, 61
1, 303818, Note_off_c, 0, 80, 57
1, 303870, Note_on_c, 0, 77, 63
1, 303884, Note_off_c, 0, 78, 62
1, 303965, Note_off_c, 0, 77, 59
1, 303967, Note_on_c, 0, 78, 60
1, 303982, Poly_aftertouch_c, 0, 52, 0
1, 303984, Note_on_c, 0, 58, 33
1, 303997, Note_on_c, 0, 54, 26
1, 304002, Note_off_c, 0, 49, 37
1, 304005, Note_off_c, 0, 59, 41
1, 304039, Control_c, 0, 64, 19
1, 304043, Note_off_c, 0, 78, 62
1, 304047, Note_on_c, 0, 73, 59
1, 304054, Control_c, 0, 64, 59
1, 304069, Control_c, 0, 64, 64
1, 304083, Control_c, 0, 64, 67
1, 304098, Control_c, 0, 64, 70
1, 304111, Note_off_c, 0, 73, 63
1, 304113, Control_c, 0, 64, 74
1, 304128, Control_c, 0, 64, 77
1, 304128, Control_c, 0, 67, 117
1, 304134, Note_on_c, 0, 70, 58
1, 304143, Control_c, 0, 64, 79
1, 304143, Control_c, 0, 67, 88
1, 304158, Control_c, 0, 64, 80
1, 304158, Control_c, 0, 67, 53
1, 304172, Control_c, 0, 64, 81
1, 304172, Control_c, 0, 67, 30
1, 304187, Control_c, 0, 64, 82
1, 304187, Control_c, 0, 67, 12
1, 304202, Note_off_c, 0, 70, 60
1, 304202, Control_c, 0, 64, 83
1, 304202, Control_c, 0, 67, 0
1, 304217, Control_c, 0, 64, 84
1, 304222, Note_on_c, 0, 73, 56
1, 304229, Note_off_c, 0, 54, 39
1, 304232, Control_c, 0, 64, 84
1, 304233, Note_off_c, 0, 58, 55
1, 304262, Control_c, 0, 64, 85
1, 304276, Note_off_c, 0, 73, 62
1, 304277, Control_c, 0, 64, 85
1, 304291, Control_c, 0, 64, 86
1, 304292, Note_on_c, 0, 78, 69
1, 304316, Note_off_c, 0, 78, 69
1, 304321, Control_c, 0, 64, 86
1, 304336, Control_c, 0, 64, 87
1, 304374, Note_on_c, 0, 82, 72
1, 304417, Note_off_c, 0, 82, 55
1, 304458, Note_on_c, 0, 85, 68
1, 304514, Note_off_c, 0, 85, 64
1, 304527, Note_on_c, 0, 90, 77
1, 304602, Note_off_c, 0, 90, 64
1, 304626, Control_c, 0, 64, 85
1, 304640, Control_c, 0, 64, 82
1, 304655, Control_c, 0, 64, 74
1, 304655, Note_on_c, 0, 91, 97
1, 304656, Note_on_c, 0, 79, 93
1, 304669, Note_on_c, 0, 75, 70
1, 304670, Control_c, 0, 64, 61
1, 304673, Note_on_c, 0, 63, 63
1, 304674, Note_on_c, 0, 73, 65
1, 304682, Note_on_c, 0, 67, 59
1, 304682, Note_on_c, 0, 70, 62
1, 304685, Control_c, 0, 64, 0
1, 304774, Control_c, 0, 64, 63
1, 304788, Control_c, 0, 64, 71
1, 304803, Control_c, 0, 64, 79
1, 304818, Control_c, 0, 64, 85
1, 304832, Control_c, 0, 64, 86
1, 304847, Control_c, 0, 64, 87
1, 304848, Note_off_c, 0, 70, 59
1, 304860, Note_off_c, 0, 73, 54
1, 304873, Note_off_c, 0, 91, 60
1, 304877, Control_c, 0, 64, 87
1, 304883, Note_off_c, 0, 79, 51
1, 304897, Note_off_c, 0, 75, 58
1, 304936, Control_c, 0, 64, 88
1, 305069, Note_off_c, 0, 67, 48
1, 305075, Note_on_c, 0, 87, 81
1, 305077, Note_on_c, 0, 92, 95
1, 305079, Note_on_c, 0, 80, 94
1, 305085, Note_on_c, 0, 83, 79
1, 305087, Note_on_c, 0, 68, 70
1, 305088, Note_on_c, 0, 75, 75
1, 305090, Note_on_c, 0, 71, 70
1, 305114, Control_c, 0, 64, 87
1, 305117, Note_off_c, 0, 63, 41
1, 305129, Control_c, 0, 64, 79
1, 305144, Control_c, 0, 64, 67
1, 305159, Control_c, 0, 64, 0
1, 305222, Note_off_c, 0, 92, 65
1, 305231, Note_off_c, 0, 75, 59
1, 305244, Note_off_c, 0, 83, 55
1, 305250, Note_off_c, 0, 71, 56
1, 305258, Note_off_c, 0, 68, 59
1, 305280, Note_off_c, 0, 87, 63
1, 305287, Note_off_c, 0, 80, 60
1, 305359, Control_c, 0, 67, 8
1, 305373, Control_c, 0, 67, 10
1, 305389, Control_c, 0, 67, 12
1, 305404, Control_c, 0, 67, 14
1, 305418, Control_c, 0, 67, 15
1, 305433, Control_c, 0, 67, 17
1, 305448, Control_c, 0, 67, 19
1, 305463, Control_c, 0, 67, 22
1, 305478, Control_c, 0, 67, 26
1, 305493, Control_c, 0, 67, 29
1, 305508, Control_c, 0, 67, 31
1, 305523, Control_c, 0, 67, 33
1, 305537, Control_c, 0, 67, 35
1, 305552, Control_c, 0, 67, 38
1, 305567, Note_on_c, 0, 83, 86
1, 305567, Control_c, 0, 67, 42
1, 305568, Note_on_c, 0, 89, 88
1, 305573, Note_on_c, 0, 77, 89
1, 305574, Note_on_c, 0, 85, 81
1, 305582, Control_c, 0, 67, 46
1, 305584, Note_on_c, 0, 61, 62
1, 305584, Note_on_c, 0, 73, 78
1, 305588, Note_on_c, 0, 71, 79
1, 305593, Note_on_c, 0, 68, 67
1, 305597, Control_c, 0, 67, 49
1, 305605, Note_on_c, 0, 65, 49
1, 305611, Control_c, 0, 67, 51
1, 305669, Control_c, 0, 67, 51
1, 305684, Control_c, 0, 67, 50
1, 305714, Control_c, 0, 67, 49
1, 305729, Control_c, 0, 64, 59
1, 305729, Control_c, 0, 67, 48
1, 305743, Control_c, 0, 64, 67
1, 305743, Control_c, 0, 67, 48
1, 305758, Control_c, 0, 64, 73
1, 305758, Control_c, 0, 67, 47
1, 305773, Control_c, 0, 64, 81
1, 305788, Control_c, 0, 64, 86
1, 305803, Control_c, 0, 64, 88
1, 305803, Control_c, 0, 67, 48
1, 305818, Control_c, 0, 64, 89
1, 305818, Control_c, 0, 67, 48
1, 305833, Control_c, 0, 64, 91
1, 305833, Control_c, 0, 67, 50
1, 305848, Control_c, 0, 64, 92
1, 305848, Control_c, 0, 67, 51
1, 305862, Control_c, 0, 64, 93
1, 305862, Control_c, 0, 67, 52
1, 305877, Control_c, 0, 64, 94
1, 305877, Control_c, 0, 67, 53
1, 305892, Control_c, 0, 64, 94
1, 305892, Control_c, 0, 67, 58
1, 305907, Control_c, 0, 67, 65
1, 305910, Note_off_c, 0, 73, 59
1, 305922, Control_c, 0, 67, 74
1, 305936, Control_c, 0, 67, 82
1, 305958, Control_c, 0, 67, 91
1, 305964, Note_off_c, 0, 71, 52
1, 305973, Control_c, 0, 67, 101
1, 305988, Control_c, 0, 67, 115
1, 306003, Control_c, 0, 67, 125
1, 306007, Note_off_c, 0, 68, 55
1, 306018, Control_c, 0, 67, 127
1, 306042, Note_off_c, 0, 65, 40
1, 306073, Note_off_c, 0, 61, 62
1, 306074, Note_off_c, 0, 77, 58
1, 306092, Control_c, 0, 64, 94
1, 306102, Note_off_c, 0, 83, 55
1, 306107, Control_c, 0, 64, 92
1, 306114, Note_off_c, 0, 85, 60
1, 306122, Control_c, 0, 64, 91
1, 306136, Control_c, 0, 64, 88
1, 306138, Note_off_c, 0, 89, 27
1, 306151, Control_c, 0, 64, 83
1, 306166, Control_c, 0, 64, 77
1, 306182, Control_c, 0, 64, 67
1, 306197, Control_c, 0, 64, 41
1, 306211, Control_c, 0, 64, 0
1, 306553, Note_on_c, 0, 83, 51
1, 306560, Note_on_c, 0, 59, 34
1, 306572, Note_on_c, 0, 49, 32
1, 306580, Note_on_c, 0, 56, 34
1, 306627, Note_off_c, 0, 83, 57
1, 306641, Note_on_c, 0, 85, 52
1, 306719, Note_off_c, 0, 85, 63
1, 306724, Note_on_c, 0, 83, 62
1, 306803, Note_on_c, 0, 82, 68
1, 306804, Note_off_c, 0, 83, 60
1, 306883, Note_on_c, 0, 83, 75
1, 306884, Note_off_c, 0, 56, 39
1, 306884, Note_off_c, 0, 82, 63
1, 306948, Note_off_c, 0, 83, 59
1, 306961, Note_on_c, 0, 92, 84
1, 307052, Note_on_c, 0, 90, 73
1, 307079, Note_off_c, 0, 92, 62
1, 307109, Note_off_c, 0, 90, 63
1, 307113, Note_on_c, 0, 89, 67
1, 307183, Note_off_c, 0, 89, 63
1, 307206, Note_on_c, 0, 90, 77
1, 307230, Note_on_c, 0, 58, 36
1, 307242, Note_on_c, 0, 54, 33
1, 307250, Note_off_c, 0, 59, 40
1, 307282, Note_off_c, 0, 49, 38
1, 307288, Note_on_c, 0, 85, 67
1, 307290, Note_off_c, 0, 90, 61
1, 307365, Note_on_c, 0, 82, 66
1, 307367, Note_off_c, 0, 85, 64
1, 307433, Note_off_c, 0, 82, 64
1, 307434, Note_on_c, 0, 78, 71
1, 307481, Note_off_c, 0, 78, 62
1, 307520, Note_off_c, 0, 58, 59
1, 307529, Note_on_c, 0, 73, 67
1, 307540, Note_off_c, 0, 54, 56
1, 307589, Note_off_c, 0, 73, 62
1, 307598, Note_on_c, 0, 78, 71
1, 307672, Note_on_c, 0, 73, 62
1, 307676, Note_off_c, 0, 78, 59
1, 307745, Note_off_c, 0, 73, 61
1, 307751, Note_on_c, 0, 70, 63
1, 307839, Note_off_c, 0, 70, 58
1, 307851, Note_on_c, 0, 71, 64
1, 307873, Note_on_c, 0, 47, 44
1, 307876, Note_on_c, 0, 44, 28
1, 307893, Note_on_c, 0, 37, 21
1, 307912, Note_off_c, 0, 71, 58
1, 307923, Note_on_c, 0, 73, 61
1, 307997, Note_off_c, 0, 73, 62
1, 308006, Note_on_c, 0, 71, 71
1, 308073, Note_off_c, 0, 71, 60
1, 308074, Note_on_c, 0, 70, 76
1, 308157, Note_off_c, 0, 70, 60
1, 308167, Note_on_c, 0, 71, 70
1, 308231, Note_off_c, 0, 71, 60
1, 308252, Note_on_c, 0, 80, 77
1, 308256, Note_off_c, 0, 44, 50
1, 308333, Note_on_c, 0, 78, 70
1, 308359, Note_off_c, 0, 80, 58
1, 308401, Note_off_c, 0, 78, 62
1, 308410, Note_on_c, 0, 77, 58
1, 308485, Note_off_c, 0, 37, 40
1, 308495, Note_off_c, 0, 77, 62
1, 308512, Note_on_c, 0, 78, 67
1, 308513, Note_off_c, 0, 47, 42
1, 308531, Note_on_c, 0, 46, 40
1, 308534, Note_on_c, 0, 42, 34
1, 308587, Note_off_c, 0, 78, 61
1, 308590, Note_on_c, 0, 73, 61
1, 308665, Note_on_c, 0, 70, 66
1, 308668, Note_off_c, 0, 73, 61
1, 308733, Note_off_c, 0, 70, 61
1, 308742, Note_on_c, 0, 66, 70
1, 308768, Note_off_c, 0, 42, 42
1, 308781, Note_off_c, 0, 66, 64
1, 308814, Note_off_c, 0, 46, 56
1, 308829, Note_on_c, 0, 61, 63
1, 308894, Note_off_c, 0, 61, 62
1, 308903, Note_on_c, 0, 66, 62
1, 308992, Note_off_c, 0, 66, 61
1, 309007, Note_on_c, 0, 61, 45
1, 309066, Note_off_c, 0, 61, 55
1, 309074, Note_on_c, 0, 58, 42
1, 309176, Note_off_c, 0, 58, 48
1, 309177, Note_on_c, 0, 47, 46
1, 309231, Note_off_c, 0, 47, 61
1, 309261, Note_on_c, 0, 49, 49
1, 309314, Note_off_c, 0, 49, 62
1, 309342, Note_on_c, 0, 47, 57
1, 309395, Note_off_c, 0, 47, 63
1, 309409, Note_on_c, 0, 46, 61
1, 309487, Note_off_c, 0, 46, 61
1, 309498, Note_on_c, 0, 47, 67
1, 309507, Note_on_c, 0, 71, 62
1, 309523, Note_on_c, 0, 61, 42
1, 309542, Note_on_c, 0, 65, 34
1, 309578, Note_off_c, 0, 47, 62
1, 309586, Note_on_c, 0, 49, 68
1, 309586, Note_on_c, 0, 68, 11
1, 309689, Note_on_c, 0, 51, 66
1, 309718, Note_off_c, 0, 49, 60
1, 309762, Note_off_c, 0, 51, 62
1, 309771, Note_on_c, 0, 53, 73
1, 309815, Note_off_c, 0, 61, 43
1, 309836, Note_off_c, 0, 53, 49
1, 309851, Note_on_c, 0, 54, 64
1, 309917, Note_on_c, 0, 56, 60
1, 309932, Note_off_c, 0, 65, 55
1, 309953, Note_off_c, 0, 54, 56
1, 309983, Note_off_c, 0, 68, 44
1, 309988, Note_on_c, 0, 58, 68
1, 309991, Note_off_c, 0, 71, 54
1, 309993, Note_off_c, 0, 56, 60
1, 310048, Note_off_c, 0, 58, 65
1, 310078, Note_on_c, 0, 59, 56
1, 310143, Note_off_c, 0, 59, 58
1, 310146, Note_on_c, 0, 71, 72
1, 310164, Note_on_c, 0, 61, 57
1, 310170, Note_on_c, 0, 65, 50
1, 310179, Note_on_c, 0, 68, 34
1, 310214, Note_off_c, 0, 61, 61
1, 310248, Note_on_c, 0, 59, 51
1, 310316, Note_off_c, 0, 59, 59
1, 310335, Note_on_c, 0, 58, 55
1, 310405, Note_off_c, 0, 58, 64
1, 310418, Note_on_c, 0, 56, 53
1, 310502, Note_off_c, 0, 56, 59
1, 310509, Note_on_c, 0, 54, 53
1, 310552, Note_off_c, 0, 54, 63
1, 310558, Note_off_c, 0, 65, 62
1, 310572, Note_off_c, 0, 68, 58
1, 310584, Note_off_c, 0, 71, 58
1, 310585, Note_on_c, 0, 53, 60
1, 310626, Note_off_c, 0, 53, 62
1, 310660, Note_on_c, 0, 51, 58
1, 310734, Note_off_c, 0, 51, 62
1, 310751, Note_on_c, 0, 49, 53
1, 310822, Note_on_c, 0, 73, 71
1, 310826, Note_off_c, 0, 49, 61
1, 310838, Note_on_c, 0, 65, 49
1, 310842, Note_on_c, 0, 68, 56
1, 310848, Note_on_c, 0, 51, 48
1, 310852, Note_on_c, 0, 71, 51
1, 310886, Note_off_c, 0, 65, 0
1, 310886, Note_on_c, 0, 65, 10
1, 310898, Note_off_c, 0, 51, 63
1, 310930, Note_on_c, 0, 49, 51
1, 311012, Note_on_c, 0, 51, 58
1, 311020, Note_off_c, 0, 49, 60
1, 311069, Note_off_c, 0, 51, 60
1, 311089, Note_on_c, 0, 53, 59
1, 311137, Note_off_c, 0, 53, 49
1, 311173, Note_on_c, 0, 54, 58
1, 311265, Note_on_c, 0, 56, 55
1, 311285, Note_off_c, 0, 54, 55
1, 311297, Note_off_c, 0, 68, 60
1, 311300, Note_off_c, 0, 71, 60
1, 311328, Note_off_c, 0, 73, 62
1, 311338, Note_on_c, 0, 58, 60
1, 311359, Note_off_c, 0, 56, 59
1, 311400, Note_off_c, 0, 65, 37
1, 311402, Note_off_c, 0, 58, 64
1, 311416, Note_on_c, 0, 59, 58
1, 311491, Note_on_c, 0, 73, 55
1, 311498, Note_off_c, 0, 59, 57
1, 311503, Note_on_c, 0, 66, 51
1, 311505, Note_on_c, 0, 61, 59
1, 311512, Note_on_c, 0, 70, 49
1, 311583, Note_off_c, 0, 61, 60
1, 311597, Note_on_c, 0, 63, 54
1, 311666, Note_off_c, 0, 63, 64
1, 311682, Note_on_c, 0, 61, 55
1, 311719, Note_off_c, 0, 61, 65
1, 311761, Note_on_c, 0, 59, 49
1, 311816, Note_off_c, 0, 59, 56
1, 311837, Note_on_c, 0, 58, 57
1, 311896, Note_off_c, 0, 58, 62
1, 311926, Note_off_c, 0, 66, 61
1, 311935, Note_on_c, 0, 59, 52
1, 311935, Note_off_c, 0, 70, 60
1, 311988, Note_off_c, 0, 59, 58
1, 312012, Note_on_c, 0, 61, 52
1, 312074, Note_off_c, 0, 61, 60
1, 312102, Note_on_c, 0, 59, 44
1, 312175, Note_off_c, 0, 59, 59
1, 312181, Note_on_c, 0, 70, 61
1, 312197, Note_on_c, 0, 58, 52
1, 312221, Note_off_c, 0, 73, 34
1, 312246, Note_off_c, 0, 58, 62
1, 312301, Note_on_c, 0, 59, 32
1, 312330, Note_off_c, 0, 59, 55
1, 312358, Note_on_c, 0, 58, 50
1, 312409, Note_off_c, 0, 58, 60
1, 312436, Note_on_c, 0, 56, 41
1, 312447, Note_on_c, 0, 71, 57
1, 312469, Note_off_c, 0, 70, 58
1, 312479, Note_off_c, 0, 56, 61
1, 312536, Note_on_c, 0, 54, 36
1, 312559, Note_off_c, 0, 71, 60
1, 312608, Note_on_c, 0, 56, 49
1, 312632, Note_off_c, 0, 54, 49
1, 312665, Note_off_c, 0, 56, 57
1, 312677, Note_on_c, 0, 58, 48
1, 312739, Note_off_c, 0, 58, 62
1, 312767, Note_on_c, 0, 59, 45
1, 312827, Note_off_c, 0, 59, 58
1, 312844, Note_on_c, 0, 73, 69
1, 312851, Note_on_c, 0, 61, 49
1, 312863, Note_on_c, 0, 64, 46
1, 312874, Note_on_c, 0, 66, 34
1, 312877, Note_on_c, 0, 70, 42
1, 312903, Note_off_c, 0, 61, 62
1, 312942, Note_on_c, 0, 59, 43
1, 313002, Note_off_c, 0, 59, 50
1, 313027, Note_on_c, 0, 58, 49
1, 313097, Note_off_c, 0, 58, 59
1, 313127, Note_on_c, 0, 56, 42
1, 313175, Note_off_c, 0, 56, 57
1, 313179, Note_off_c, 0, 66, 35
1, 313184, Note_off_c, 0, 70, 36
1, 313205, Note_on_c, 0, 54, 32
1, 313246, Control_c, 0, 64, 41
1, 313247, Note_off_c, 0, 64, 62
1, 313261, Control_c, 0, 64, 57
1, 313276, Control_c, 0, 64, 59
1, 313277, Note_off_c, 0, 54, 55
1, 313282, Note_on_c, 0, 58, 41
1, 313291, Control_c, 0, 64, 60
1, 313306, Control_c, 0, 64, 61
1, 313321, Control_c, 0, 64, 62
1, 313335, Note_off_c, 0, 58, 64
1, 313336, Control_c, 0, 64, 62
1, 313351, Control_c, 0, 64, 63
1, 313372, Note_on_c, 0, 56, 37
1, 313395, Control_c, 0, 64, 62
1, 313414, Note_off_c, 0, 73, 59
1, 313425, Control_c, 0, 64, 62
1, 313448, Control_c, 0, 64, 61
1, 313461, Note_on_c, 0, 54, 41
1, 313463, Control_c, 0, 64, 59
1, 313464, Note_off_c, 0, 56, 36
1, 313477, Control_c, 0, 64, 56
1, 313492, Control_c, 0, 64, 53
1, 313507, Control_c, 0, 64, 51
1, 313514, Note_off_c, 0, 54, 62
1, 313537, Control_c, 0, 64, 53
1, 313545, Note_on_c, 0, 70, 60
1, 313551, Control_c, 0, 64, 56
1, 313564, Note_on_c, 0, 58, 49
1, 313566, Control_c, 0, 64, 59
1, 313571, Note_on_c, 0, 52, 39
1, 313581, Control_c, 0, 64, 63
1, 313595, Control_c, 0, 64, 65
1, 313610, Control_c, 0, 64, 67
1, 313622, Note_off_c, 0, 52, 56
1, 313625, Control_c, 0, 64, 70
1, 313640, Control_c, 0, 64, 74
1, 313655, Control_c, 0, 64, 78
1, 313661, Note_off_c, 0, 70, 53
1, 313664, Note_on_c, 0, 51, 50
1, 313670, Control_c, 0, 64, 81
1, 313685, Control_c, 0, 64, 82
1, 313699, Control_c, 0, 64, 83
1, 313710, Note_off_c, 0, 51, 57
1, 313714, Control_c, 0, 64, 84
1, 313715, Note_off_c, 0, 58, 33
1, 313721, Note_on_c, 0, 49, 50
1, 313780, Note_off_c, 0, 49, 61
1, 313793, Note_on_c, 0, 71, 61
1, 313797, Note_on_c, 0, 59, 44
1, 313814, Note_off_c, 0, 71, 63
1, 313815, Note_on_c, 0, 47, 53
1, 313823, Note_off_c, 0, 59, 55
1, 313848, Control_c, 0, 64, 83
1, 313863, Control_c, 0, 64, 82
1, 313877, Control_c, 0, 64, 78
1, 313887, Note_on_c, 0, 73, 74
1, 313890, Note_off_c, 0, 47, 60
1, 313892, Control_c, 0, 64, 71
1, 313899, Poly_aftertouch_c, 0, 64, 127
1, 313899, Note_on_c, 0, 61, 63
1, 313907, Note_on_c, 0, 46, 59
1, 313907, Control_c, 0, 64, 59
1, 313922, Control_c, 0, 64, 0
1, 313970, Note_off_c, 0, 46, 57
1, 313992, Note_on_c, 0, 47, 58
1, 313995, Control_c, 0, 64, 39
1, 314010, Control_c, 0, 64, 61
1, 314025, Control_c, 0, 64, 65
1, 314040, Control_c, 0, 64, 67
1, 314055, Control_c, 0, 64, 70
1, 314069, Control_c, 0, 64, 72
1, 314070, Note_off_c, 0, 47, 62
1, 314082, Note_on_c, 0, 49, 47
1, 314084, Control_c, 0, 64, 74
1, 314095, Note_off_c, 0, 61, 50
1, 314099, Control_c, 0, 64, 75
1, 314114, Control_c, 0, 64, 76
1, 314117, Poly_aftertouch_c, 0, 64, 0
1, 314121, Note_off_c, 0, 49, 52
1, 314135, Note_on_c, 0, 47, 48
1, 314174, Control_c, 0, 64, 75
1, 314197, Control_c, 0, 64, 75
1, 314212, Control_c, 0, 64, 73
1, 314226, Control_c, 0, 64, 68
1, 314240, Note_on_c, 0, 66, 82
1, 314241, Control_c, 0, 64, 57
1, 314242, Note_off_c, 0, 47, 60
1, 314249, Note_on_c, 0, 64, 45
1, 314256, Control_c, 0, 64, 0
1, 314261, Note_on_c, 0, 46, 58
1, 314262, Note_on_c, 0, 61, 42
1, 314276, Note_off_c, 0, 73, 62
1, 314345, Control_c, 0, 64, 54
1, 314359, Note_on_c, 0, 49, 55
1, 314360, Control_c, 0, 64, 65
1, 314369, Note_off_c, 0, 46, 60
1, 314374, Control_c, 0, 64, 68
1, 314374, Control_c, 0, 67, 118
1, 314389, Control_c, 0, 64, 71
1, 314389, Control_c, 0, 67, 97
1, 314404, Control_c, 0, 64, 74
1, 314404, Control_c, 0, 67, 82
1, 314408, Note_off_c, 0, 49, 62
1, 314418, Control_c, 0, 64, 75
1, 314418, Control_c, 0, 67, 70
1, 314427, Note_off_c, 0, 61, 55
1, 314432, Note_on_c, 0, 52, 65
1, 314433, Control_c, 0, 64, 76
1, 314433, Control_c, 0, 67, 60
1, 314448, Control_c, 0, 67, 54
1, 314463, Control_c, 0, 67, 51
1, 314478, Note_off_c, 0, 52, 51
1, 314493, Control_c, 0, 67, 50
1, 314507, Note_on_c, 0, 54, 65
1, 314507, Control_c, 0, 67, 47
1, 314522, Control_c, 0, 64, 76
1, 314522, Control_c, 0, 67, 42
1, 314537, Control_c, 0, 64, 74
1, 314537, Control_c, 0, 67, 37
1, 314552, Control_c, 0, 64, 70
1, 314552, Control_c, 0, 67, 36
1, 314565, Note_off_c, 0, 54, 59
1, 314567, Control_c, 0, 64, 62
1, 314567, Control_c, 0, 67, 35
1, 314581, Note_on_c, 0, 67, 84
1, 314582, Control_c, 0, 64, 0
1, 314582, Control_c, 0, 67, 33
1, 314597, Control_c, 0, 67, 28
1, 314608, Note_on_c, 0, 55, 62
1, 314612, Control_c, 0, 67, 23
1, 314617, Note_on_c, 0, 61, 42
1, 314619, Note_off_c, 0, 64, 39
1, 314626, Control_c, 0, 67, 18
1, 314640, Note_off_c, 0, 66, 57
1, 314641, Control_c, 0, 67, 15
1, 314656, Control_c, 0, 67, 11
1, 314661, Note_off_c, 0, 55, 59
1, 314671, Control_c, 0, 67, 0
1, 314697, Note_on_c, 0, 52, 57
1, 314700, Control_c, 0, 64, 54
1, 314715, Control_c, 0, 64, 65
1, 314730, Control_c, 0, 64, 68
1, 314736, Note_off_c, 0, 61, 36
1, 314744, Control_c, 0, 64, 72
1, 314757, Note_off_c, 0, 52, 64
1, 314759, Control_c, 0, 64, 76
1, 314770, Note_on_c, 0, 49, 58
1, 314774, Control_c, 0, 64, 79
1, 314789, Control_c, 0, 64, 80
1, 314833, Control_c, 0, 64, 80
1, 314836, Note_off_c, 0, 49, 58
1, 314848, Note_on_c, 0, 47, 61
1, 314878, Control_c, 0, 64, 80
1, 314907, Control_c, 0, 64, 79
1, 314922, Control_c, 0, 64, 77
1, 314930, Note_off_c, 0, 47, 63
1, 314944, Control_c, 0, 64, 72
1, 314950, Note_on_c, 0, 64, 74
1, 314959, Control_c, 0, 64, 64
1, 314963, Note_off_c, 0, 67, 60
1, 314969, Note_on_c, 0, 61, 49
1, 314975, Control_c, 0, 64, 0
1, 314978, Note_on_c, 0, 46, 49
1, 315048, Note_on_c, 0, 49, 53
1, 315064, Control_c, 0, 64, 61
1, 315079, Control_c, 0, 64, 69
1, 315081, Note_off_c, 0, 46, 53
1, 315090, Note_off_c, 0, 61, 58
1, 315094, Control_c, 0, 64, 74
1, 315106, Note_off_c, 0, 64, 63
1, 315109, Control_c, 0, 64, 79
1, 315122, Note_on_c, 0, 52, 57
1, 315123, Control_c, 0, 64, 80
1, 315127, Note_off_c, 0, 49, 51
1, 315138, Control_c, 0, 64, 81
1, 315153, Control_c, 0, 64, 81
1, 315202, Note_on_c, 0, 54, 44
1, 315203, Note_off_c, 0, 52, 58
1, 315258, Note_off_c, 0, 54, 0
1, 315258, Note_on_c, 0, 54, 3
1, 315301, Note_off_c, 0, 54, 54
1, 315301, Control_c, 0, 64, 81
1, 315304, Note_on_c, 0, 76, 78
1, 315313, Note_on_c, 0, 64, 54
1, 315316, Control_c, 0, 64, 80
1, 315318, Note_on_c, 0, 55, 55
1, 315330, Note_on_c, 0, 67, 50
1, 315330, Control_c, 0, 64, 77
1, 315345, Control_c, 0, 64, 72
1, 315360, Control_c, 0, 64, 56
1, 315375, Control_c, 0, 64, 0
1, 315378, Note_off_c, 0, 64, 0
1, 315378, Note_on_c, 0, 64, 9
1, 315410, Note_on_c, 0, 52, 48
1, 315445, Note_off_c, 0, 55, 37
1, 315464, Control_c, 0, 64, 39
1, 315479, Control_c, 0, 64, 64
1, 315488, Note_on_c, 0, 49, 57
1, 315491, Note_off_c, 0, 52, 64
1, 315494, Control_c, 0, 64, 68
1, 315509, Control_c, 0, 64, 73
1, 315510, Note_off_c, 0, 67, 50
1, 315523, Control_c, 0, 64, 78
1, 315538, Control_c, 0, 64, 81
1, 315553, Control_c, 0, 64, 82
1, 315560, Note_on_c, 0, 47, 57
1, 315566, Note_off_c, 0, 49, 60
1, 315567, Control_c, 0, 64, 82
1, 315586, Note_off_c, 0, 64, 41
1, 315612, Control_c, 0, 64, 82
1, 315627, Control_c, 0, 64, 81
1, 315641, Control_c, 0, 64, 76
1, 315649, Note_off_c, 0, 47, 62
1, 315652, Note_on_c, 0, 73, 84
1, 315653, Note_on_c, 0, 46, 67
1, 315656, Control_c, 0, 64, 68
1, 315671, Note_on_c, 0, 64, 62
1, 315671, Control_c, 0, 64, 36
1, 315691, Note_on_c, 0, 66, 61
1, 315694, Control_c, 0, 64, 0
1, 315708, Note_off_c, 0, 76, 56
1, 315753, Control_c, 0, 64, 38
1, 315760, Note_on_c, 0, 49, 60
1, 315768, Control_c, 0, 64, 64
1, 315783, Control_c, 0, 64, 70
1, 315798, Control_c, 0, 64, 75
1, 315813, Control_c, 0, 64, 80
1, 315817, Note_on_c, 0, 54, 63
1, 315822, Note_off_c, 0, 66, 63
1, 315828, Control_c, 0, 64, 82
1, 315842, Note_off_c, 0, 49, 60
1, 315843, Control_c, 0, 64, 83
1, 315843, Note_off_c, 0, 46, 32
1, 315855, Note_off_c, 0, 64, 61
1, 315858, Control_c, 0, 64, 83
1, 315901, Note_on_c, 0, 58, 67
1, 315920, Note_off_c, 0, 54, 57
1, 315934, Note_off_c, 0, 73, 64
1, 315961, Control_c, 0, 64, 83
1, 315967, Note_off_c, 0, 58, 64
1, 315976, Control_c, 0, 64, 80
1, 315981, Note_on_c, 0, 74, 85
1, 315989, Note_on_c, 0, 62, 77
1, 315990, Control_c, 0, 64, 73
1, 315993, Note_on_c, 0, 47, 72
1, 315999, Note_on_c, 0, 66, 65
1, 316005, Control_c, 0, 64, 59
1, 316020, Control_c, 0, 64, 0
1, 316089, Note_on_c, 0, 50, 56
1, 316109, Control_c, 0, 64, 52
1, 316111, Note_off_c, 0, 66, 58
1, 316124, Control_c, 0, 64, 68
1, 316138, Control_c, 0, 64, 74
1, 316153, Control_c, 0, 64, 80
1, 316168, Control_c, 0, 64, 83
1, 316177, Note_on_c, 0, 54, 69
1, 316181, Note_off_c, 0, 47, 38
1, 316183, Control_c, 0, 64, 83
1, 316203, Note_off_c, 0, 62, 52
1, 316208, Note_off_c, 0, 50, 62
1, 316240, Note_on_c, 0, 59, 67
1, 316248, Note_off_c, 0, 54, 62
1, 316302, Control_c, 0, 64, 83
1, 316316, Control_c, 0, 64, 78
1, 316317, Note_off_c, 0, 74, 54
1, 316323, Note_on_c, 0, 71, 83
1, 316331, Control_c, 0, 64, 67
1, 316332, Note_on_c, 0, 50, 71
1, 316332, Note_on_c, 0, 62, 74
1, 316335, Note_off_c, 0, 59, 59
1, 316338, Note_on_c, 0, 66, 74
1, 316346, Control_c, 0, 64, 0
1, 316420, Control_c, 0, 64, 60
1, 316424, Note_on_c, 0, 54, 63
1, 316430, Note_off_c, 0, 62, 62
1, 316435, Control_c, 0, 64, 70
1, 316455, Note_off_c, 0, 66, 65
1, 316457, Control_c, 0, 64, 80
1, 316472, Control_c, 0, 64, 89
1, 316481, Note_off_c, 0, 71, 63
1, 316487, Control_c, 0, 64, 93
1, 316501, Control_c, 0, 64, 94
1, 316509, Note_on_c, 0, 59, 68
1, 316535, Note_off_c, 0, 50, 36
1, 316545, Note_off_c, 0, 54, 61
1, 316585, Note_off_c, 0, 59, 63
1, 316588, Note_on_c, 0, 62, 70
1, 316621, Control_c, 0, 64, 93
1, 316636, Control_c, 0, 64, 91
1, 316651, Control_c, 0, 64, 86
1, 316665, Control_c, 0, 64, 77
1, 316674, Note_on_c, 0, 83, 92
1, 316680, Control_c, 0, 64, 62
1, 316683, Note_on_c, 0, 71, 75
1, 316683, Note_off_c, 0, 62, 58
1, 316689, Note_on_c, 0, 53, 63
1, 316689, Note_on_c, 0, 74, 66
1, 316695, Control_c, 0, 64, 0
1, 316755, Note_on_c, 0, 56, 65
1, 316784, Control_c, 0, 64, 64
1, 316799, Control_c, 0, 64, 74
1, 316813, Control_c, 0, 64, 82
1, 316817, Note_off_c, 0, 74, 60
1, 316828, Control_c, 0, 64, 87
1, 316843, Control_c, 0, 64, 88
1, 316844, Note_on_c, 0, 59, 67
1, 316847, Note_off_c, 0, 53, 55
1, 316849, Note_off_c, 0, 71, 53
1, 316858, Control_c, 0, 64, 89
1, 316869, Note_off_c, 0, 56, 62
1, 316907, Note_off_c, 0, 59, 63
1, 316931, Note_on_c, 0, 62, 51
1, 316955, Note_off_c, 0, 62, 55
1, 316961, Control_c, 0, 64, 88
1, 316976, Control_c, 0, 64, 83
1, 316991, Control_c, 0, 64, 72
1, 316999, Note_on_c, 0, 80, 89
1, 317006, Control_c, 0, 64, 30
1, 317010, Note_on_c, 0, 71, 66
1, 317010, Note_on_c, 0, 74, 66
1, 317020, Control_c, 0, 64, 0
1, 317032, Note_on_c, 0, 65, 49
1, 317034, Note_off_c, 0, 83, 54
1, 317080, Control_c, 0, 64, 52
1, 317087, Note_off_c, 0, 71, 56
1, 317088, Note_off_c, 0, 74, 61
1, 317095, Control_c, 0, 64, 68
1, 317107, Note_on_c, 0, 68, 60
1, 317110, Control_c, 0, 64, 77
1, 317125, Control_c, 0, 64, 85
1, 317139, Control_c, 0, 64, 89
1, 317154, Control_c, 0, 64, 90
1, 317156, Note_off_c, 0, 80, 63
1, 317169, Control_c, 0, 64, 90
1, 317181, Note_off_c, 0, 68, 62
1, 317200, Note_off_c, 0, 65, 34
1, 317214, Note_on_c, 0, 71, 55
1, 317249, Note_off_c, 0, 71, 54
1, 317280, Control_c, 0, 64, 90
1, 317287, Note_on_c, 0, 68, 51
1, 317294, Control_c, 0, 64, 89
1, 317309, Control_c, 0, 64, 86
1, 317324, Control_c, 0, 64, 82
1, 317324, Control_c, 0, 67, 8
1, 317339, Control_c, 0, 64, 74
1, 317339, Control_c, 0, 67, 0
1, 317349, Note_off_c, 0, 68, 58
1, 317354, Control_c, 0, 64, 64
1, 317369, Note_on_c, 0, 86, 80
1, 317369, Control_c, 0, 64, 0
1, 317389, Note_on_c, 0, 65, 40
1, 317393, Note_on_c, 0, 80, 59
1, 317403, Note_on_c, 0, 83, 50
1, 317461, Note_off_c, 0, 83, 39
1, 317470, Note_off_c, 0, 65, 54
1, 317471, Note_on_c, 0, 68, 51
1, 317488, Control_c, 0, 64, 61
1, 317503, Control_c, 0, 64, 70
1, 317518, Control_c, 0, 64, 79
1, 317520, Note_off_c, 0, 68, 62
1, 317521, Note_off_c, 0, 80, 53
1, 317533, Control_c, 0, 64, 85
1, 317548, Control_c, 0, 64, 87
1, 317553, Note_on_c, 0, 71, 45
1, 317562, Control_c, 0, 64, 87
1, 317568, Note_off_c, 0, 86, 56
1, 317592, Control_c, 0, 64, 88
1, 317594, Note_off_c, 0, 71, 47
1, 317634, Note_on_c, 0, 68, 47
1, 317651, Control_c, 0, 67, 8
1, 317666, Control_c, 0, 64, 87
1, 317666, Control_c, 0, 67, 11
1, 317681, Control_c, 0, 64, 87
1, 317681, Control_c, 0, 67, 17
1, 317682, Note_off_c, 0, 68, 54
1, 317696, Control_c, 0, 64, 85
1, 317696, Control_c, 0, 67, 26
1, 317710, Control_c, 0, 64, 83
1, 317710, Control_c, 0, 67, 38
1, 317725, Control_c, 0, 64, 80
1, 317725, Control_c, 0, 67, 50
1, 317734, Note_on_c, 0, 65, 47
1, 317737, Note_on_c, 0, 85, 65
1, 317740, Control_c, 0, 64, 74
1, 317740, Control_c, 0, 67, 63
1, 317750, Note_on_c, 0, 83, 54
1, 317755, Control_c, 0, 64, 64
1, 317755, Control_c, 0, 67, 78
1, 317767, Note_on_c, 0, 80, 38
1, 317769, Control_c, 0, 64, 0
1, 317769, Control_c, 0, 67, 92
1, 317784, Control_c, 0, 67, 106
1, 317799, Control_c, 0, 67, 117
1, 317804, Note_on_c, 0, 68, 45
1, 317814, Control_c, 0, 67, 127
1, 317833, Note_off_c, 0, 65, 49
1, 317873, Note_off_c, 0, 68, 57
1, 317908, Note_on_c, 0, 71, 40
1, 317959, Note_off_c, 0, 71, 51
1, 318000, Note_on_c, 0, 68, 48
1, 318070, Note_off_c, 0, 80, 42
1, 318072, Note_off_c, 0, 68, 56
1, 318077, Note_off_c, 0, 83, 55
1, 318078, Note_off_c, 0, 85, 35
1, 318111, Note_on_c, 0, 65, 24
1, 318151, Note_off_c, 0, 65, 52
1, 318177, Note_on_c, 0, 71, 46
1, 318221, Note_off_c, 0, 71, 57
1, 318256, Note_on_c, 0, 70, 51
1, 318315, Note_off_c, 0, 70, 54
1, 318347, Note_on_c, 0, 68, 42
1, 318404, Note_on_c, 0, 85, 57
1, 318415, Note_off_c, 0, 68, 41
1, 318427, Note_on_c, 0, 80, 44
1, 318431, Note_on_c, 0, 83, 44
1, 318502, Note_on_c, 0, 71, 47
1, 318581, Note_off_c, 0, 71, 59
1, 318612, Note_off_c, 0, 80, 42
1, 318613, Note_on_c, 0, 70, 41
1, 318641, Note_off_c, 0, 70, 57
1, 318660, Note_on_c, 0, 68, 56
1, 318660, Note_off_c, 0, 83, 39
1, 318695, Note_off_c, 0, 85, 27
1, 318761, Note_on_c, 0, 66, 62
1, 318775, Note_off_c, 0, 68, 59
1, 318825, Note_on_c, 0, 73, 57
1, 318849, Note_off_c, 0, 66, 58
1, 318898, Note_off_c, 0, 73, 61
1, 318910, Note_on_c, 0, 71, 62
1, 318994, Note_off_c, 0, 71, 59
1, 319079, Note_on_c, 0, 85, 64
1, 319080, Note_on_c, 0, 78, 61
1, 319087, Note_on_c, 0, 82, 54
1, 319128, Note_off_c, 0, 78, 62
1, 319167, Note_on_c, 0, 77, 45
1, 319229, Note_off_c, 0, 77, 59
1, 319242, Note_on_c, 0, 75, 52
1, 319316, Note_off_c, 0, 75, 65
1, 319321, Note_on_c, 0, 73, 57
1, 319356, Note_off_c, 0, 73, 63
1, 319389, Note_on_c, 0, 71, 45
1, 319450, Note_off_c, 0, 71, 55
1, 319477, Note_on_c, 0, 70, 61
1, 319482, Note_off_c, 0, 85, 58
1, 319495, Note_off_c, 0, 82, 40
1, 319521, Note_off_c, 0, 70, 64
1, 319566, Note_on_c, 0, 75, 63
1, 319622, Note_off_c, 0, 75, 61
1, 319643, Note_on_c, 0, 73, 63
1, 319710, Note_off_c, 0, 73, 61
1, 319747, Note_on_c, 0, 85, 61
1, 319754, Note_on_c, 0, 71, 52
1, 319761, Note_on_c, 0, 82, 49
1, 319811, Note_off_c, 0, 71, 54
1, 319829, Note_on_c, 0, 70, 60
1, 319902, Note_off_c, 0, 70, 60
1, 319918, Note_on_c, 0, 68, 55
1, 320002, Note_off_c, 0, 68, 60
1, 320003, Note_on_c, 0, 66, 51
1, 320076, Note_on_c, 0, 65, 57
1, 320079, Note_off_c, 0, 85, 50
1, 320102, Note_off_c, 0, 66, 59
1, 320105, Note_off_c, 0, 82, 54
1, 320156, Note_off_c, 0, 65, 64
1, 320174, Note_on_c, 0, 66, 39
1, 320229, Note_off_c, 0, 66, 64
1, 320246, Note_on_c, 0, 68, 49
1, 320303, Note_off_c, 0, 68, 61
1, 320337, Note_on_c, 0, 66, 53
1, 320401, Note_off_c, 0, 66, 62
1, 320418, Note_on_c, 0, 85, 49
1, 320423, Note_on_c, 0, 60, 52
1, 320430, Note_on_c, 0, 82, 39
1, 320494, Note_off_c, 0, 60, 58
1, 320517, Note_on_c, 0, 61, 54
1, 320570, Note_off_c, 0, 61, 58
1, 320605, Note_on_c, 0, 63, 39
1, 320659, Note_off_c, 0, 63, 59
1, 320683, Note_on_c, 0, 61, 52
1, 320741, Note_off_c, 0, 61, 59
1, 320774, Note_on_c, 0, 57, 50
1, 320815, Note_off_c, 0, 57, 59
1, 320863, Note_on_c, 0, 58, 48
1, 320864, Note_off_c, 0, 85, 24
1, 320883, Note_off_c, 0, 82, 54
1, 320911, Note_off_c, 0, 58, 63
1, 320957, Note_on_c, 0, 59, 46
1, 320996, Note_off_c, 0, 59, 60
1, 321022, Note_on_c, 0, 58, 51
1, 321108, Note_off_c, 0, 58, 62
1, 321128, Note_on_c, 0, 90, 71
1, 321146, Note_on_c, 0, 53, 42
1, 321154, Note_on_c, 0, 82, 49
1, 321154, Note_on_c, 0, 85, 49
1, 321157, Control_c, 0, 64, 59
1, 321162, Note_on_c, 0, 78, 35
1, 321172, Control_c, 0, 64, 65
1, 321186, Control_c, 0, 64, 68
1, 321201, Control_c, 0, 64, 71
1, 321216, Control_c, 0, 64, 75
1, 321231, Note_off_c, 0, 53, 63
1, 321231, Control_c, 0, 64, 80
1, 321241, Note_on_c, 0, 54, 52
1, 321246, Control_c, 0, 64, 82
1, 321260, Control_c, 0, 64, 84
1, 321275, Control_c, 0, 64, 84
1, 321289, Note_off_c, 0, 78, 46
1, 321290, Control_c, 0, 64, 85
1, 321301, Note_off_c, 0, 90, 56
1, 321304, Note_off_c, 0, 82, 53
1, 321304, Control_c, 0, 64, 85
1, 321308, Note_off_c, 0, 54, 60
1, 321322, Note_off_c, 0, 85, 59
1, 321325, Note_on_c, 0, 56, 58
1, 321334, Control_c, 0, 64, 86
1, 321380, Note_off_c, 0, 56, 57
1, 321395, Control_c, 0, 67, 119
1, 321401, Note_on_c, 0, 54, 54
1, 321409, Control_c, 0, 67, 108
1, 321424, Control_c, 0, 64, 85
1, 321424, Control_c, 0, 67, 97
1, 321439, Control_c, 0, 67, 86
1, 321454, Control_c, 0, 64, 84
1, 321454, Control_c, 0, 67, 72
1, 321469, Control_c, 0, 64, 79
1, 321469, Control_c, 0, 67, 58
1, 321477, Note_off_c, 0, 54, 62
1, 321483, Note_on_c, 0, 90, 95
1, 321483, Control_c, 0, 64, 67
1, 321483, Control_c, 0, 67, 45
1, 321488, Note_on_c, 0, 48, 66
1, 321492, Note_on_c, 0, 78, 83
1, 321494, Note_on_c, 0, 82, 73
1, 321496, Note_on_c, 0, 85, 67
1, 321498, Control_c, 0, 64, 0
1, 321498, Control_c, 0, 67, 32
1, 321513, Control_c, 0, 67, 19
1, 321527, Control_c, 0, 67, 0
1, 321572, Control_c, 0, 64, 62
1, 321587, Control_c, 0, 64, 70
1, 321593, Note_off_c, 0, 48, 65
1, 321593, Note_on_c, 0, 49, 71
1, 321602, Control_c, 0, 64, 77
1, 321617, Control_c, 0, 64, 83
1, 321629, Note_off_c, 0, 78, 58
1, 321632, Control_c, 0, 64, 84
1, 321638, Note_off_c, 0, 82, 61
1, 321652, Note_off_c, 0, 90, 63
1, 321661, Control_c, 0, 64, 85
1, 321667, Note_off_c, 0, 85, 62
1, 321674, Note_on_c, 0, 51, 74
1, 321676, Note_off_c, 0, 49, 62
1, 321755, Note_on_c, 0, 49, 66
1, 321766, Note_off_c, 0, 51, 59
1, 321802, Control_c, 0, 64, 84
1, 321831, Control_c, 0, 64, 84
1, 321846, Control_c, 0, 64, 81
1, 321852, Note_on_c, 0, 90, 95
1, 321853, Note_off_c, 0, 49, 62
1, 321858, Note_on_c, 0, 78, 92
1, 321861, Control_c, 0, 64, 74
1, 321864, Note_on_c, 0, 45, 74
1, 321866, Note_on_c, 0, 82, 80
1, 321867, Note_on_c, 0, 85, 86
1, 321876, Control_c, 0, 64, 32
1, 321891, Control_c, 0, 64, 0
1, 321954, Note_on_c, 0, 46, 76
1, 321956, Note_off_c, 0, 45, 64
1, 321980, Control_c, 0, 64, 64
1, 321994, Note_off_c, 0, 78, 60
1, 321995, Control_c, 0, 64, 72
1, 322009, Control_c, 0, 64, 81
1, 322018, Note_off_c, 0, 82, 61
1, 322024, Control_c, 0, 64, 87
1, 322033, Note_off_c, 0, 46, 63
1, 322037, Note_on_c, 0, 47, 83
1, 322039, Control_c, 0, 64, 88
1, 322049, Note_off_c, 0, 90, 63
1, 322054, Control_c, 0, 64, 90
1, 322055, Note_off_c, 0, 85, 59
1, 322069, Control_c, 0, 64, 91
1, 322083, Control_c, 0, 64, 92
1, 322098, Control_c, 0, 64, 92
1, 322113, Control_c, 0, 64, 93
1, 322120, Note_on_c, 0, 46, 83
1, 322135, Note_off_c, 0, 47, 63
1, 322235, Note_on_c, 0, 82, 85
1, 322236, Note_on_c, 0, 42, 88
1, 322236, Note_on_c, 0, 90, 97
1, 322239, Note_on_c, 0, 78, 96
1, 322244, Note_on_c, 0, 85, 86
1, 322245, Note_off_c, 0, 46, 54
1, 322246, Control_c, 0, 64, 92
1, 322276, Control_c, 0, 64, 92
1, 322291, Control_c, 0, 64, 90
1, 322305, Control_c, 0, 64, 87
1, 322320, Control_c, 0, 64, 81
1, 322335, Control_c, 0, 64, 73
1, 322350, Control_c, 0, 64, 49
1, 322365, Control_c, 0, 64, 0
1, 322431, Control_c, 0, 67, 10
1, 322446, Control_c, 0, 67, 16
1, 322461, Control_c, 0, 67, 24
1, 322476, Control_c, 0, 67, 36
1, 322491, Control_c, 0, 67, 48
1, 322505, Control_c, 0, 67, 61
1, 322520, Control_c, 0, 67, 74
1, 322535, Control_c, 0, 67, 88
1, 322550, Control_c, 0, 67, 103
1, 322565, Control_c, 0, 67, 120
1, 322580, Control_c, 0, 67, 127
1, 322588, Note_off_c, 0, 90, 62
1, 322615, Note_off_c, 0, 85, 59
1, 322627, Note_off_c, 0, 42, 63
1, 322627, Note_off_c, 0, 82, 60
1, 322635, Note_off_c, 0, 78, 59
1, 324720, Note_on_c, 0, 72, 92
1, 324729, Note_on_c, 0, 66, 89
1, 324732, Note_on_c, 0, 54, 80
1, 324745, Note_on_c, 0, 50, 71
1, 324782, Control_c, 0, 64, 65
1, 324797, Control_c, 0, 64, 73
1, 324812, Control_c, 0, 64, 87
1, 324827, Control_c, 0, 64, 108
1, 324842, Control_c, 0, 64, 127
1, 324857, Control_c, 0, 67, 114
1, 324872, Control_c, 0, 67, 90
1, 324887, Control_c, 0, 67, 62
1, 324901, Control_c, 0, 67, 26
1, 324916, Control_c, 0, 67, 0
1, 325092, Note_off_c, 0, 72, 59
1, 325101, Note_off_c, 0, 50, 63
1, 325119, Note_on_c, 0, 73, 90
1, 325123, Control_c, 0, 64, 97
1, 325125, Note_on_c, 0, 65, 81
1, 325127, Note_on_c, 0, 49, 67
1, 325131, Note_off_c, 0, 54, 55
1, 325138, Control_c, 0, 64, 71
1, 325143, Note_on_c, 0, 56, 70
1, 325148, Note_off_c, 0, 66, 56
1, 325149, Note_off_c, 0, 65, 69
1, 325152, Control_c, 0, 64, 0
1, 325165, Note_off_c, 0, 49, 64
1, 325167, Note_off_c, 0, 56, 67
1, 325179, Note_off_c, 0, 73, 58
1, 325286, Control_c, 0, 67, 19
1, 325301, Control_c, 0, 67, 58
1, 325304, Note_on_c, 0, 68, 91
1, 325307, Note_on_c, 0, 65, 78
1, 325312, Note_on_c, 0, 49, 55
1, 325316, Note_on_c, 0, 47, 69
1, 325316, Control_c, 0, 67, 114
1, 325331, Note_off_c, 0, 65, 71
1, 325331, Control_c, 0, 67, 127
1, 325348, Note_off_c, 0, 68, 64
1, 325354, Note_off_c, 0, 47, 66
1, 325358, Note_off_c, 0, 49, 64
1, 325861, Note_on_c, 0, 70, 56
1, 325870, Note_on_c, 0, 66, 56
1, 325889, Note_on_c, 0, 46, 29
1, 325903, Note_off_c, 0, 66, 65
1, 325906, Note_off_c, 0, 70, 60
1, 325922, Note_off_c, 0, 46, 47
1, 326048, Note_on_c, 0, 71, 51
1, 326052, Note_on_c, 0, 63, 42
1, 326055, Note_on_c, 0, 44, 39
1, 326081, Control_c, 0, 64, 61
1, 326095, Control_c, 0, 64, 68
1, 326110, Control_c, 0, 64, 73
1, 326114, Note_off_c, 0, 63, 49
1, 326125, Control_c, 0, 64, 80
1, 326140, Control_c, 0, 64, 85
1, 326156, Control_c, 0, 64, 87
1, 326178, Control_c, 0, 64, 88
1, 326207, Control_c, 0, 64, 89
1, 326312, Control_c, 0, 64, 88
1, 326315, Note_off_c, 0, 44, 32
1, 326318, Note_off_c, 0, 71, 32
1, 326321, Note_on_c, 0, 70, 52
1, 326322, Note_on_c, 0, 46, 44
1, 326326, Control_c, 0, 64, 87
1, 326338, Note_on_c, 0, 68, 66
1, 326341, Control_c, 0, 64, 85
1, 326347, Note_off_c, 0, 70, 55
1, 326353, Note_off_c, 0, 46, 58
1, 326356, Control_c, 0, 64, 81
1, 326364, Note_on_c, 0, 47, 56
1, 326371, Control_c, 0, 64, 74
1, 326381, Note_on_c, 0, 59, 34
1, 326384, Note_off_c, 0, 68, 63
1, 326386, Control_c, 0, 64, 65
1, 326395, Note_off_c, 0, 47, 57
1, 326401, Control_c, 0, 64, 10
1, 326415, Control_c, 0, 64, 0
1, 326416, Note_off_c, 0, 59, 51
1, 326535, Note_on_c, 0, 48, 55
1, 326548, Note_on_c, 0, 66, 36
1, 326554, Note_on_c, 0, 58, 47
1, 326574, Note_off_c, 0, 48, 62
1, 326583, Note_off_c, 0, 58, 58
1, 326589, Note_off_c, 0, 66, 48
1, 326762, Note_on_c, 0, 65, 38
1, 326772, Note_on_c, 0, 56, 39
1, 326794, Note_on_c, 0, 49, 29
1, 326799, Control_c, 0, 64, 51
1, 326814, Control_c, 0, 64, 60
1, 326829, Control_c, 0, 64, 63
1, 326844, Control_c, 0, 64, 65
1, 326859, Control_c, 0, 64, 68
1, 326873, Control_c, 0, 64, 71
1, 326888, Control_c, 0, 64, 75
1, 326903, Control_c, 0, 64, 77
1, 326925, Control_c, 0, 64, 78
1, 326940, Control_c, 0, 64, 79
1, 326970, Control_c, 0, 64, 79
1, 327075, Control_c, 0, 64, 79
1, 327090, Control_c, 0, 64, 78
1, 327104, Control_c, 0, 64, 76
1, 327119, Control_c, 0, 64, 75
1, 327134, Control_c, 0, 64, 71
1, 327148, Control_c, 0, 64, 65
1, 327163, Control_c, 0, 64, 40
1, 327167, Note_off_c, 0, 56, 58
1, 327178, Control_c, 0, 64, 0
1, 327188, Note_off_c, 0, 49, 40
1, 327195, Note_off_c, 0, 65, 61
1, 327584, Note_on_c, 0, 73, 93
1, 327594, Note_on_c, 0, 70, 81
1, 327596, Note_on_c, 0, 67, 80
1, 327599, Note_on_c, 0, 64, 78
1, 327667, Control_c, 0, 64, 64
1, 327667, Control_c, 0, 67, 117
1, 327689, Control_c, 0, 64, 73
1, 327689, Control_c, 0, 67, 96
1, 327704, Control_c, 0, 64, 85
1, 327704, Control_c, 0, 67, 76
1, 327719, Control_c, 0, 64, 92
1, 327719, Control_c, 0, 67, 52
1, 327734, Control_c, 0, 64, 95
1, 327734, Control_c, 0, 67, 26
1, 327749, Control_c, 0, 64, 96
1, 327749, Control_c, 0, 67, 0
1, 327764, Control_c, 0, 64, 97
1, 327778, Control_c, 0, 64, 98
1, 328011, Note_off_c, 0, 70, 62
1, 328016, Control_c, 0, 64, 97
1, 328031, Control_c, 0, 64, 97
1, 328040, Note_on_c, 0, 71, 82
1, 328042, Note_on_c, 0, 75, 82
1, 328045, Control_c, 0, 64, 95
1, 328052, Note_on_c, 0, 63, 68
1, 328052, Note_on_c, 0, 66, 67
1, 328053, Note_off_c, 0, 73, 59
1, 328057, Note_off_c, 0, 67, 61
1, 328060, Note_off_c, 0, 64, 62
1, 328060, Control_c, 0, 64, 88
1, 328075, Control_c, 0, 64, 78
1, 328083, Note_off_c, 0, 66, 66
1, 328085, Note_off_c, 0, 71, 58
1, 328089, Note_off_c, 0, 63, 62
1, 328090, Control_c, 0, 64, 58
1, 328094, Note_off_c, 0, 75, 66
1, 328104, Control_c, 0, 64, 0
1, 328247, Note_on_c, 0, 76, 88
1, 328255, Note_on_c, 0, 73, 79
1, 328256, Note_on_c, 0, 61, 65
1, 328261, Note_on_c, 0, 64, 68
1, 328327, Control_c, 0, 64, 61
1, 328342, Control_c, 0, 64, 71
1, 328357, Control_c, 0, 64, 80
1, 328371, Control_c, 0, 64, 91
1, 328386, Control_c, 0, 64, 95
1, 328401, Control_c, 0, 64, 98
1, 328416, Control_c, 0, 64, 101
1, 328438, Control_c, 0, 64, 103
1, 328452, Control_c, 0, 64, 103
1, 328497, Control_c, 0, 67, 8
1, 328512, Control_c, 0, 67, 21
1, 328520, Note_off_c, 0, 61, 64
1, 328526, Control_c, 0, 64, 103
1, 328526, Control_c, 0, 67, 44
1, 328533, Note_off_c, 0, 76, 63
1, 328541, Control_c, 0, 64, 99
1, 328541, Control_c, 0, 67, 78
1, 328547, Note_off_c, 0, 64, 59
1, 328557, Note_off_c, 0, 73, 60
1, 328557, Control_c, 0, 64, 91
1, 328557, Control_c, 0, 67, 124
1, 328572, Control_c, 0, 64, 76
1, 328572, Control_c, 0, 67, 127
1, 328587, Control_c, 0, 64, 46
1, 328601, Control_c, 0, 64, 0
1, 328786, Note_on_c, 0, 78, 61
1, 328795, Note_on_c, 0, 63, 45
1, 328804, Note_on_c, 0, 75, 38
1, 328815, Note_on_c, 0, 59, 13
1, 328821, Note_off_c, 0, 63, 55
1, 328828, Note_off_c, 0, 75, 49
1, 328833, Note_off_c, 0, 78, 64
1, 328858, Note_off_c, 0, 59, 37
1, 329006, Note_on_c, 0, 80, 56
1, 329018, Note_on_c, 0, 56, 38
1, 329021, Note_on_c, 0, 76, 45
1, 329023, Note_on_c, 0, 52, 26
1, 329046, Control_c, 0, 64, 28
1, 329061, Control_c, 0, 64, 63
1, 329075, Note_off_c, 0, 76, 49
1, 329075, Control_c, 0, 64, 68
1, 329090, Control_c, 0, 64, 73
1, 329105, Control_c, 0, 64, 80
1, 329120, Control_c, 0, 64, 84
1, 329135, Control_c, 0, 64, 85
1, 329149, Control_c, 0, 64, 85
1, 329172, Control_c, 0, 64, 86
1, 329207, Note_off_c, 0, 52, 52
1, 329215, Note_off_c, 0, 56, 42
1, 329255, Note_on_c, 0, 76, 60
1, 329261, Control_c, 0, 64, 85
1, 329266, Note_on_c, 0, 61, 40
1, 329275, Control_c, 0, 64, 84
1, 329290, Control_c, 0, 64, 82
1, 329303, Note_off_c, 0, 80, 35
1, 329305, Control_c, 0, 64, 77
1, 329307, Note_off_c, 0, 61, 44
1, 329315, Note_off_c, 0, 76, 64
1, 329320, Control_c, 0, 64, 70
1, 329323, Note_on_c, 0, 75, 63
1, 329331, Note_on_c, 0, 73, 44
1, 329333, Note_on_c, 0, 54, 40
1, 329334, Control_c, 0, 64, 53
1, 329343, Note_on_c, 0, 71, 20
1, 329350, Control_c, 0, 64, 0
1, 329351, Note_on_c, 0, 63, 29
1, 329355, Note_off_c, 0, 73, 57
1, 329364, Note_off_c, 0, 75, 58
1, 329368, Note_off_c, 0, 54, 50
1, 329376, Note_off_c, 0, 71, 43
1, 329379, Note_off_c, 0, 63, 50
1, 329507, Note_on_c, 0, 73, 46
1, 329519, Note_on_c, 0, 70, 44
1, 329531, Note_on_c, 0, 64, 43
1, 329544, Note_off_c, 0, 70, 57
1, 329573, Note_off_c, 0, 73, 56
1, 329574, Note_off_c, 0, 64, 54
1, 329749, Note_on_c, 0, 71, 37
1, 329764, Note_on_c, 0, 75, 41
1, 329767, Note_on_c, 0, 63, 31
1, 329769, Note_on_c, 0, 59, 27
1, 329811, Control_c, 0, 64, 40
1, 329825, Control_c, 0, 64, 54
1, 329840, Control_c, 0, 64, 60
1, 329855, Control_c, 0, 64, 63
1, 329869, Control_c, 0, 64, 65
1, 329884, Control_c, 0, 64, 68
1, 329899, Control_c, 0, 64, 71
1, 329922, Control_c, 0, 64, 74
1, 329936, Control_c, 0, 64, 76
1, 329951, Control_c, 0, 64, 77
1, 329966, Control_c, 0, 64, 78
1, 329981, Control_c, 0, 64, 78
1, 330084, Control_c, 0, 64, 78
1, 330099, Control_c, 0, 64, 76
1, 330114, Control_c, 0, 64, 73
1, 330129, Control_c, 0, 64, 65
1, 330140, Note_off_c, 0, 71, 53
1, 330143, Note_off_c, 0, 59, 51
1, 330145, Control_c, 0, 64, 34
1, 330150, Note_off_c, 0, 75, 63
1, 330160, Control_c, 0, 64, 0
1, 330160, Note_off_c, 0, 63, 51
1, 330573, Control_c, 0, 64, 22
1, 330588, Control_c, 0, 64, 25
1, 330603, Control_c, 0, 64, 29
1, 330618, Control_c, 0, 64, 34
1, 330633, Control_c, 0, 64, 38
1, 330647, Control_c, 0, 64, 42
1, 330670, Control_c, 0, 64, 46
1, 330685, Control_c, 0, 64, 50
1, 330699, Control_c, 0, 64, 53
1, 330714, Control_c, 0, 64, 56
1, 330729, Control_c, 0, 64, 60
1, 330743, Note_on_c, 0, 71, 37
1, 330744, Note_on_c, 0, 63, 18
1, 330744, Control_c, 0, 64, 63
1, 330744, Note_on_c, 0, 66, 28
1, 330759, Control_c, 0, 64, 64
1, 330773, Control_c, 0, 64, 66
1, 330788, Control_c, 0, 64, 68
1, 330803, Control_c, 0, 64, 70
1, 330818, Control_c, 0, 64, 73
1, 330833, Control_c, 0, 64, 76
1, 330847, Control_c, 0, 64, 78
1, 330862, Control_c, 0, 64, 78
1, 330877, Control_c, 0, 64, 79
1, 331029, Note_off_c, 0, 66, 40
1, 331159, Control_c, 0, 64, 78
1, 331174, Control_c, 0, 64, 78
1, 331188, Control_c, 0, 64, 77
1, 331203, Control_c, 0, 64, 76
1, 331218, Control_c, 0, 64, 74
1, 331233, Control_c, 0, 64, 72
1, 331248, Control_c, 0, 64, 67
1, 331252, Note_on_c, 0, 70, 51
1, 331257, Note_on_c, 0, 61, 42
1, 331261, Note_off_c, 0, 71, 36
1, 331263, Control_c, 0, 64, 61
1, 331270, Note_on_c, 0, 66, 41
1, 331278, Note_off_c, 0, 63, 41
1, 331278, Control_c, 0, 64, 51
1, 331287, Note_off_c, 0, 61, 58
1, 331293, Control_c, 0, 64, 44
1, 331299, Note_off_c, 0, 70, 57
1, 331300, Note_off_c, 0, 66, 58
1, 331308, Control_c, 0, 64, 35
1, 331322, Control_c, 0, 64, 0
1, 331496, Note_on_c, 0, 66, 28
1, 331496, Note_on_c, 0, 75, 50
1, 331515, Note_on_c, 0, 59, 36
1, 331567, Control_c, 0, 64, 48
1, 331582, Control_c, 0, 64, 61
1, 331596, Control_c, 0, 64, 64
1, 331611, Control_c, 0, 64, 66
1, 331626, Control_c, 0, 64, 68
1, 331641, Control_c, 0, 64, 70
1, 331656, Control_c, 0, 64, 72
1, 331670, Control_c, 0, 64, 75
1, 331685, Control_c, 0, 64, 76
1, 331700, Control_c, 0, 64, 77
1, 331714, Control_c, 0, 64, 78
1, 331787, Note_off_c, 0, 59, 41
1, 331790, Control_c, 0, 64, 77
1, 331805, Control_c, 0, 64, 76
1, 331819, Control_c, 0, 64, 71
1, 331821, Note_off_c, 0, 66, 43
1, 331829, Note_off_c, 0, 75, 60
1, 331834, Control_c, 0, 64, 64
1, 331849, Control_c, 0, 64, 35
1, 331864, Control_c, 0, 64, 0
1, 332062, Note_on_c, 0, 73, 48
1, 332068, Note_on_c, 0, 66, 46
1, 332075, Note_on_c, 0, 58, 38
1, 332105, Note_off_c, 0, 66, 59
1, 332105, Note_off_c, 0, 58, 56
1, 332114, Note_off_c, 0, 73, 46
1, 332260, Note_on_c, 0, 71, 51
1, 332270, Control_c, 0, 64, 26
1, 332276, Note_on_c, 0, 56, 33
1, 332282, Note_on_c, 0, 66, 33
1, 332285, Control_c, 0, 64, 59
1, 332300, Control_c, 0, 64, 64
1, 332315, Control_c, 0, 64, 65
1, 332330, Control_c, 0, 64, 67
1, 332345, Control_c, 0, 64, 69
1, 332360, Control_c, 0, 64, 70
1, 332375, Control_c, 0, 64, 72
1, 332390, Control_c, 0, 64, 73
1, 332419, Control_c, 0, 64, 73
1, 332464, Control_c, 0, 64, 73
1, 332474, Note_on_c, 0, 70, 55
1, 332474, Note_off_c, 0, 66, 43
1, 332493, Control_c, 0, 64, 71
1, 332505, Note_on_c, 0, 58, 35
1, 332508, Control_c, 0, 64, 68
1, 332512, Note_off_c, 0, 71, 58
1, 332523, Note_off_c, 0, 56, 13
1, 332523, Control_c, 0, 64, 61
1, 332535, Note_off_c, 0, 70, 52
1, 332539, Control_c, 0, 64, 0
1, 332541, Note_off_c, 0, 58, 55
1, 332542, Note_on_c, 0, 68, 53
1, 332551, Note_on_c, 0, 59, 41
1, 332580, Note_on_c, 0, 66, 39
1, 332595, Note_off_c, 0, 68, 56
1, 332607, Note_off_c, 0, 59, 44
1, 332608, Note_off_c, 0, 66, 53
1, 332709, Note_on_c, 0, 73, 52
1, 332715, Note_on_c, 0, 65, 48
1, 332751, Note_off_c, 0, 65, 54
1, 332801, Note_off_c, 0, 73, 50
1, 332865, Control_c, 0, 64, 13
1, 332879, Note_on_c, 0, 70, 52
1, 332880, Control_c, 0, 64, 56
1, 332894, Control_c, 0, 64, 62
1, 332905, Note_on_c, 0, 54, 38
1, 332909, Control_c, 0, 64, 63
1, 332932, Control_c, 0, 64, 64
1, 332947, Control_c, 0, 64, 66
1, 332956, Note_off_c, 0, 70, 44
1, 332962, Control_c, 0, 64, 67
1, 332963, Note_on_c, 0, 66, 50
1, 332976, Control_c, 0, 64, 68
1, 332991, Control_c, 0, 64, 69
1, 333018, Note_off_c, 0, 66, 62
1, 333055, Note_on_c, 0, 65, 45
1, 333065, Control_c, 0, 64, 68
1, 333068, Note_on_c, 0, 61, 52
1, 333080, Control_c, 0, 64, 67
1, 333092, Note_off_c, 0, 54, 40
1, 333094, Control_c, 0, 64, 64
1, 333099, Note_off_c, 0, 65, 60
1, 333109, Control_c, 0, 64, 58
1, 333124, Control_c, 0, 64, 47
1, 333130, Note_on_c, 0, 66, 55
1, 333139, Control_c, 0, 64, 22
1, 333154, Control_c, 0, 64, 0
1, 333178, Note_off_c, 0, 66, 61
1, 333196, Note_off_c, 0, 61, 60
1, 333215, Note_on_c, 0, 63, 54
1, 333221, Note_on_c, 0, 71, 51
1, 333276, Note_off_c, 0, 71, 51
1, 333296, Note_on_c, 0, 78, 55
1, 333345, Note_off_c, 0, 78, 52
1, 333350, Note_off_c, 0, 63, 63
1, 333363, Note_on_c, 0, 61, 60
1, 333363, Note_on_c, 0, 70, 62
1, 333409, Note_off_c, 0, 70, 62
1, 333439, Note_on_c, 0, 78, 68
1, 333508, Note_off_c, 0, 78, 60
1, 333516, Note_on_c, 0, 75, 61
1, 333522, Note_off_c, 0, 61, 62
1, 333526, Note_on_c, 0, 59, 68
1, 333585, Note_on_c, 0, 78, 61
1, 333587, Note_off_c, 0, 75, 61
1, 333667, Note_off_c, 0, 78, 60
1, 333675, Note_on_c, 0, 73, 60
1, 333680, Note_on_c, 0, 58, 69
1, 333683, Note_off_c, 0, 59, 58
1, 333739, Note_on_c, 0, 78, 65
1, 333751, Note_off_c, 0, 73, 61
1, 333799, Note_off_c, 0, 78, 64
1, 333823, Note_off_c, 0, 58, 63
1, 333831, Note_on_c, 0, 56, 63
1, 333838, Note_on_c, 0, 77, 58
1, 333883, Note_off_c, 0, 77, 53
1, 333923, Note_on_c, 0, 80, 53
1, 333986, Note_off_c, 0, 80, 60
1, 333987, Note_off_c, 0, 56, 53
1, 333987, Note_on_c, 0, 49, 56
1, 334002, Note_on_c, 0, 77, 53
1, 334047, Note_off_c, 0, 77, 47
1, 334052, Note_on_c, 0, 85, 60
1, 334128, Note_off_c, 0, 85, 59
1, 334144, Note_off_c, 0, 49, 62
1, 334145, Note_on_c, 0, 78, 68
1, 334154, Note_on_c, 0, 54, 58
1, 334208, Note_off_c, 0, 78, 62
1, 334217, Note_on_c, 0, 82, 60
1, 334290, Note_off_c, 0, 82, 59
1, 334295, Note_on_c, 0, 78, 77
1, 334302, Note_on_c, 0, 49, 70
1, 334306, Note_off_c, 0, 54, 60
1, 334357, Note_off_c, 0, 78, 63
1, 334368, Note_on_c, 0, 85, 75
1, 334447, Note_off_c, 0, 85, 63
1, 334454, Note_on_c, 0, 78, 85
1, 334462, Note_on_c, 0, 46, 75
1, 334467, Note_off_c, 0, 49, 62
1, 334518, Note_off_c, 0, 78, 62
1, 334520, Note_on_c, 0, 85, 76
1, 334561, Control_c, 0, 67, 116
1, 334576, Control_c, 0, 67, 97
1, 334591, Control_c, 0, 67, 82
1, 334595, Note_off_c, 0, 46, 58
1, 334600, Note_on_c, 0, 82, 81
1, 334600, Note_off_c, 0, 85, 65
1, 334606, Control_c, 0, 67, 70
1, 334613, Note_on_c, 0, 49, 62
1, 334620, Control_c, 0, 67, 58
1, 334635, Control_c, 0, 67, 52
1, 334650, Control_c, 0, 67, 51
1, 334667, Note_on_c, 0, 85, 74
1, 334670, Note_off_c, 0, 82, 64
1, 334724, Control_c, 0, 67, 51
1, 334739, Control_c, 0, 67, 50
1, 334748, Note_off_c, 0, 85, 66
1, 334754, Note_on_c, 0, 82, 75
1, 334754, Note_off_c, 0, 49, 58
1, 334754, Control_c, 0, 67, 48
1, 334768, Control_c, 0, 67, 44
1, 334769, Note_on_c, 0, 42, 50
1, 334783, Control_c, 0, 67, 40
1, 334798, Control_c, 0, 67, 36
1, 334813, Control_c, 0, 67, 30
1, 334815, Note_off_c, 0, 82, 63
1, 334816, Note_on_c, 0, 85, 68
1, 334828, Control_c, 0, 67, 22
1, 334843, Control_c, 0, 67, 14
1, 334857, Control_c, 0, 67, 0
1, 334891, Note_off_c, 0, 42, 61
1, 334907, Note_on_c, 0, 82, 73
1, 334907, Note_off_c, 0, 85, 64
1, 334926, Note_on_c, 0, 49, 56
1, 334980, Note_off_c, 0, 82, 62
1, 334981, Note_on_c, 0, 85, 62
1, 335034, Note_off_c, 0, 49, 55
1, 335067, Note_on_c, 0, 80, 63
1, 335072, Note_off_c, 0, 85, 60
1, 335085, Note_on_c, 0, 37, 47
1, 335116, Note_off_c, 0, 80, 62
1, 335142, Note_on_c, 0, 83, 57
1, 335177, Note_off_c, 0, 37, 57
1, 335219, Note_off_c, 0, 83, 57
1, 335227, Note_on_c, 0, 77, 52
1, 335247, Note_on_c, 0, 49, 39
1, 335266, Control_c, 0, 64, 60
1, 335281, Control_c, 0, 64, 65
1, 335283, Note_off_c, 0, 77, 54
1, 335286, Note_on_c, 0, 85, 59
1, 335295, Control_c, 0, 64, 68
1, 335310, Control_c, 0, 64, 70
1, 335325, Control_c, 0, 64, 74
1, 335340, Control_c, 0, 64, 77
1, 335355, Control_c, 0, 64, 79
1, 335368, Note_off_c, 0, 85, 52
1, 335368, Note_on_c, 0, 82, 64
1, 335369, Control_c, 0, 64, 80
1, 335397, Note_on_c, 0, 42, 46
1, 335399, Control_c, 0, 64, 80
1, 335412, Note_off_c, 0, 49, 34
1, 335414, Control_c, 0, 64, 81
1, 335430, Note_off_c, 0, 42, 51
1, 335450, Note_on_c, 0, 78, 61
1, 335451, Note_off_c, 0, 82, 59
1, 335495, Note_off_c, 0, 78, 54
1, 335550, Note_on_c, 0, 70, 54
1, 335557, Note_on_c, 0, 61, 58
1, 335591, Control_c, 0, 64, 80
1, 335607, Control_c, 0, 64, 80
1, 335614, Note_off_c, 0, 70, 50
1, 335619, Note_on_c, 0, 78, 53
1, 335622, Control_c, 0, 64, 78
1, 335636, Control_c, 0, 64, 75
1, 335651, Control_c, 0, 64, 70
1, 335666, Control_c, 0, 64, 61
1, 335681, Control_c, 0, 64, 0
1, 335690, Note_off_c, 0, 61, 53
1, 335701, Note_on_c, 0, 71, 58
1, 335709, Note_off_c, 0, 78, 46
1, 335710, Note_on_c, 0, 63, 63
1, 335771, Note_off_c, 0, 71, 53
1, 335803, Note_on_c, 0, 78, 59
1, 335815, Control_c, 0, 67, 9
1, 335830, Control_c, 0, 67, 14
1, 335845, Control_c, 0, 67, 20
1, 335852, Note_off_c, 0, 78, 59
1, 335858, Note_on_c, 0, 61, 70
1, 335859, Note_on_c, 0, 70, 75
1, 335859, Control_c, 0, 67, 27
1, 335867, Note_off_c, 0, 63, 64
1, 335874, Control_c, 0, 67, 34
1, 335889, Control_c, 0, 67, 39
1, 335904, Control_c, 0, 67, 42
1, 335926, Control_c, 0, 67, 44
1, 335941, Note_off_c, 0, 70, 61
1, 335941, Control_c, 0, 67, 45
1, 335946, Note_on_c, 0, 78, 73
1, 335956, Control_c, 0, 67, 45
1, 335986, Control_c, 0, 67, 45
1, 336015, Control_c, 0, 67, 44
1, 336018, Note_off_c, 0, 78, 64
1, 336019, Note_on_c, 0, 75, 77
1, 336022, Note_on_c, 0, 59, 76
1, 336026, Note_off_c, 0, 61, 62
1, 336045, Control_c, 0, 67, 45
1, 336059, Control_c, 0, 67, 45
1, 336074, Control_c, 0, 67, 46
1, 336087, Note_on_c, 0, 78, 73
1, 336089, Control_c, 0, 67, 46
1, 336104, Note_off_c, 0, 75, 59
1, 336104, Control_c, 0, 67, 47
1, 336119, Control_c, 0, 67, 48
1, 336134, Control_c, 0, 67, 50
1, 336164, Control_c, 0, 67, 50
1, 336165, Note_on_c, 0, 58, 77
1, 336169, Note_on_c, 0, 73, 75
1, 336175, Note_off_c, 0, 59, 60
1, 336175, Note_off_c, 0, 78, 63
1, 336178, Control_c, 0, 67, 51
1, 336193, Control_c, 0, 67, 53
1, 336208, Control_c, 0, 67, 58
1, 336223, Control_c, 0, 67, 65
1, 336227, Note_on_c, 0, 78, 68
1, 336238, Control_c, 0, 67, 71
1, 336246, Note_off_c, 0, 73, 62
1, 336253, Control_c, 0, 67, 74
1, 336267, Control_c, 0, 67, 76
1, 336282, Control_c, 0, 67, 77
1, 336297, Control_c, 0, 67, 78
1, 336298, Note_off_c, 0, 78, 64
1, 336311, Control_c, 0, 67, 80
1, 336319, Note_on_c, 0, 77, 65
1, 336322, Note_off_c, 0, 58, 62
1, 336324, Note_on_c, 0, 56, 66
1, 336326, Control_c, 0, 67, 80
1, 336341, Control_c, 0, 67, 81
1, 336356, Control_c, 0, 67, 81
1, 336363, Note_off_c, 0, 77, 50
1, 336395, Note_on_c, 0, 80, 63
1, 336459, Note_off_c, 0, 80, 59
1, 336459, Control_c, 0, 64, 26
1, 336459, Control_c, 0, 67, 82
1, 336471, Note_on_c, 0, 77, 62
1, 336474, Control_c, 0, 64, 46
1, 336485, Note_off_c, 0, 56, 55
1, 336489, Control_c, 0, 64, 53
1, 336491, Note_on_c, 0, 49, 58
1, 336503, Control_c, 0, 64, 58
1, 336518, Control_c, 0, 64, 61
1, 336518, Control_c, 0, 67, 82
1, 336534, Control_c, 0, 64, 63
1, 336536, Note_on_c, 0, 85, 59
1, 336547, Note_off_c, 0, 77, 60
1, 336549, Control_c, 0, 64, 64
1, 336549, Control_c, 0, 67, 83
1, 336564, Control_c, 0, 64, 66
1, 336564, Control_c, 0, 67, 85
1, 336579, Control_c, 0, 64, 67
1, 336579, Control_c, 0, 67, 87
1, 336594, Control_c, 0, 64, 68
1, 336594, Control_c, 0, 67, 89
1, 336608, Control_c, 0, 64, 70
1, 336608, Control_c, 0, 67, 91
1, 336623, Control_c, 0, 64, 71
1, 336623, Control_c, 0, 67, 92
1, 336635, Note_on_c, 0, 78, 68
1, 336638, Control_c, 0, 64, 73
1, 336638, Control_c, 0, 67, 93
1, 336661, Control_c, 0, 64, 74
1, 336661, Control_c, 0, 67, 94
1, 336667, Note_off_c, 0, 49, 61
1, 336671, Note_on_c, 0, 54, 65
1, 336676, Control_c, 0, 64, 75
1, 336676, Control_c, 0, 67, 94
1, 336690, Control_c, 0, 64, 75
1, 336690, Control_c, 0, 67, 95
1, 336703, Note_off_c, 0, 78, 63
1, 336705, Control_c, 0, 64, 76
1, 336705, Control_c, 0, 67, 96
1, 336715, Note_on_c, 0, 82, 72
1, 336715, Note_off_c, 0, 85, 31
1, 336720, Control_c, 0, 67, 97
1, 336735, Control_c, 0, 64, 77
1, 336735, Control_c, 0, 67, 97
1, 336764, Control_c, 0, 67, 98
1, 336787, Note_off_c, 0, 54, 55
1, 336790, Note_on_c, 0, 49, 74
1, 336801, Note_on_c, 0, 78, 79
1, 336805, Note_off_c, 0, 82, 59
1, 336823, Control_c, 0, 67, 98
1, 336864, Note_on_c, 0, 85, 68
1, 336865, Note_off_c, 0, 78, 64
1, 336912, Control_c, 0, 67, 98
1, 336927, Control_c, 0, 67, 97
1, 336942, Control_c, 0, 64, 76
1, 336942, Control_c, 0, 67, 96
1, 336949, Note_on_c, 0, 46, 81
1, 336950, Note_on_c, 0, 78, 84
1, 336956, Control_c, 0, 64, 75
1, 336956, Control_c, 0, 67, 95
1, 336964, Note_off_c, 0, 85, 58
1, 336967, Note_off_c, 0, 49, 58
1, 336971, Control_c, 0, 64, 73
1, 336971, Control_c, 0, 67, 94
1, 336986, Control_c, 0, 64, 68
1, 336986, Control_c, 0, 67, 93
1, 337001, Control_c, 0, 64, 61
1, 337001, Control_c, 0, 67, 91
1, 337016, Control_c, 0, 64, 0
1, 337016, Control_c, 0, 67, 89
1, 337022, Note_off_c, 0, 78, 64
1, 337023, Note_on_c, 0, 82, 83
1, 337031, Control_c, 0, 67, 86
1, 337046, Control_c, 0, 67, 79
1, 337060, Control_c, 0, 67, 68
1, 337075, Note_off_c, 0, 46, 60
1, 337075, Control_c, 0, 67, 55
1, 337088, Note_on_c, 0, 49, 83
1, 337090, Note_off_c, 0, 82, 62
1, 337090, Control_c, 0, 67, 44
1, 337104, Control_c, 0, 67, 34
1, 337119, Note_on_c, 0, 82, 65
1, 337119, Control_c, 0, 67, 24
1, 337133, Control_c, 0, 67, 14
1, 337148, Control_c, 0, 67, 0
1, 337189, Note_off_c, 0, 82, 63
1, 337201, Note_on_c, 0, 85, 70
1, 337255, Note_on_c, 0, 42, 80
1, 337264, Note_off_c, 0, 49, 58
1, 337267, Note_on_c, 0, 82, 79
1, 337268, Note_off_c, 0, 85, 64
1, 337323, Note_on_c, 0, 85, 66
1, 337325, Note_off_c, 0, 82, 63
1, 337394, Note_off_c, 0, 85, 65
1, 337410, Note_on_c, 0, 82, 80
1, 337411, Note_on_c, 0, 49, 77
1, 337412, Note_off_c, 0, 42, 64
1, 337475, Note_on_c, 0, 85, 77
1, 337493, Note_off_c, 0, 82, 59
1, 337565, Note_on_c, 0, 80, 86
1, 337570, Note_on_c, 0, 37, 75
1, 337583, Note_off_c, 0, 49, 61
1, 337588, Note_off_c, 0, 85, 59
1, 337641, Note_off_c, 0, 80, 64
1, 337651, Note_on_c, 0, 83, 69
1, 337726, Note_on_c, 0, 49, 60
1, 337727, Note_off_c, 0, 83, 55
1, 337731, Note_on_c, 0, 77, 64
1, 337740, Note_off_c, 0, 37, 57
1, 337787, Note_on_c, 0, 85, 63
1, 337787, Note_off_c, 0, 77, 60
1, 337843, Note_off_c, 0, 49, 59
1, 337863, Note_off_c, 0, 85, 63
1, 337866, Note_on_c, 0, 42, 65
1, 337866, Note_on_c, 0, 82, 68
1, 337937, Note_on_c, 0, 85, 64
1, 337942, Control_c, 0, 64, 54
1, 337943, Note_off_c, 0, 82, 63
1, 337956, Control_c, 0, 64, 63
1, 337971, Control_c, 0, 64, 65
1, 337986, Control_c, 0, 64, 67
1, 338001, Control_c, 0, 64, 68
1, 338013, Note_off_c, 0, 85, 65
1, 338016, Control_c, 0, 64, 70
1, 338017, Note_on_c, 0, 54, 81
1, 338017, Note_on_c, 0, 82, 73
1, 338027, Note_off_c, 0, 42, 0
1, 338030, Control_c, 0, 64, 73
1, 338045, Control_c, 0, 64, 74
1, 338060, Control_c, 0, 64, 75
1, 338065, Poly_aftertouch_c, 0, 42, 127
1, 338086, Note_on_c, 0, 85, 72
1, 338104, Note_off_c, 0, 54, 62
1, 338122, Note_off_c, 0, 82, 59
1, 338135, Control_c, 0, 64, 74
1, 338145, Poly_aftertouch_c, 0, 42, 0
1, 338158, Control_c, 0, 64, 70
1, 338173, Control_c, 0, 64, 57
1, 338181, Note_on_c, 0, 39, 84
1, 338182, Note_on_c, 0, 78, 97
1, 338187, Control_c, 0, 64, 0
1, 338190, Note_off_c, 0, 85, 59
1, 338259, Note_on_c, 0, 80, 85
1, 338261, Note_off_c, 0, 78, 63
1, 338276, Control_c, 0, 64, 58
1, 338291, Control_c, 0, 64, 66
1, 338305, Control_c, 0, 64, 70
1, 338320, Control_c, 0, 64, 75
1, 338334, Note_on_c, 0, 78, 94
1, 338335, Control_c, 0, 64, 77
1, 338336, Note_on_c, 0, 51, 92
1, 338350, Control_c, 0, 64, 79
1, 338364, Note_off_c, 0, 80, 63
1, 338365, Control_c, 0, 64, 79
1, 338381, Note_off_c, 0, 39, 62
1, 338394, Note_off_c, 0, 51, 63
1, 338403, Note_on_c, 0, 84, 86
1, 338411, Note_off_c, 0, 78, 65
1, 338453, Control_c, 0, 64, 79
1, 338468, Control_c, 0, 64, 74
1, 338483, Control_c, 0, 64, 63
1, 338489, Note_on_c, 0, 78, 97
1, 338492, Note_on_c, 0, 36, 87
1, 338498, Control_c, 0, 64, 0
1, 338503, Note_off_c, 0, 84, 64
1, 338560, Note_on_c, 0, 80, 96
1, 338569, Note_off_c, 0, 78, 65
1, 338587, Control_c, 0, 64, 63
1, 338602, Control_c, 0, 64, 70
1, 338617, Control_c, 0, 64, 76
1, 338631, Control_c, 0, 64, 80
1, 338639, Note_on_c, 0, 78, 97
1, 338645, Note_on_c, 0, 48, 92
1, 338646, Control_c, 0, 64, 81
1, 338661, Control_c, 0, 64, 82
1, 338669, Note_off_c, 0, 80, 62
1, 338678, Note_off_c, 0, 48, 64
1, 338695, Note_off_c, 0, 36, 64
1, 338705, Control_c, 0, 64, 82
1, 338713, Note_on_c, 0, 87, 88
1, 338722, Note_off_c, 0, 78, 66
1, 338798, Note_on_c, 0, 78, 101
1, 338802, Note_on_c, 0, 32, 91
1, 338809, Control_c, 0, 64, 82
1, 338824, Control_c, 0, 64, 79
1, 338826, Note_off_c, 0, 87, 63
1, 338838, Control_c, 0, 64, 70
1, 338853, Control_c, 0, 64, 0
1, 338869, Note_on_c, 0, 80, 94
1, 338879, Note_off_c, 0, 78, 63
1, 338961, Note_on_c, 0, 78, 96
1, 338974, Note_on_c, 0, 44, 98
1, 338978, Note_off_c, 0, 80, 64
1, 339007, Note_off_c, 0, 32, 63
1, 339024, Note_off_c, 0, 44, 62
1, 339036, Note_on_c, 0, 87, 88
1, 339047, Note_off_c, 0, 78, 63
1, 339094, Note_off_c, 0, 87, 61
1, 339127, Note_on_c, 0, 85, 101
1, 339127, Note_on_c, 0, 77, 96
1, 339128, Control_c, 0, 64, 67
1, 339130, Note_on_c, 0, 37, 91
1, 339130, Note_on_c, 0, 49, 106
1, 339132, Note_on_c, 0, 87, 59
1, 339133, Note_on_c, 0, 80, 93
1, 339143, Control_c, 0, 64, 85
1, 339150, Note_off_c, 0, 87, 64
1, 339154, Note_off_c, 0, 80, 65
1, 339157, Note_off_c, 0, 49, 63
1, 339158, Control_c, 0, 64, 114
1, 339162, Note_off_c, 0, 77, 64
1, 339164, Note_off_c, 0, 85, 68
1, 339168, Note_off_c, 0, 37, 61
1, 339173, Control_c, 0, 64, 127
1, 339291, Control_c, 0, 64, 118
1, 339306, Control_c, 0, 64, 108
1, 339306, Control_c, 0, 67, 9
1, 339321, Control_c, 0, 64, 96
1, 339321, Control_c, 0, 67, 11
1, 339323, Note_on_c, 0, 60, 80
1, 339335, Control_c, 0, 64, 81
1, 339335, Control_c, 0, 67, 15
1, 339351, Control_c, 0, 64, 61
1, 339351, Control_c, 0, 67, 17
1, 339366, Control_c, 0, 64, 0
1, 339366, Control_c, 0, 67, 20
1, 339381, Control_c, 0, 67, 23
1, 339389, Note_off_c, 0, 60, 58
1, 339396, Control_c, 0, 67, 26
1, 339406, Note_on_c, 0, 61, 74
1, 339410, Control_c, 0, 67, 30
1, 339425, Control_c, 0, 67, 33
1, 339440, Control_c, 0, 67, 36
1, 339446, Note_off_c, 0, 61, 61
1, 339454, Control_c, 0, 67, 37
1, 339469, Control_c, 0, 67, 38
1, 339499, Control_c, 0, 67, 37
1, 339502, Note_on_c, 0, 60, 63
1, 339529, Control_c, 0, 67, 37
1, 339544, Control_c, 0, 67, 37
1, 339574, Control_c, 0, 67, 38
1, 339575, Note_off_c, 0, 60, 60
1, 339579, Note_on_c, 0, 61, 66
1, 339589, Control_c, 0, 67, 38
1, 339627, Note_off_c, 0, 61, 61
1, 339641, Note_on_c, 0, 64, 60
1, 339718, Note_off_c, 0, 64, 64
1, 339722, Note_on_c, 0, 65, 65
1, 339730, Control_c, 0, 67, 38
1, 339758, Note_off_c, 0, 65, 66
1, 339759, Control_c, 0, 67, 37
1, 339774, Control_c, 0, 67, 37
1, 339809, Note_on_c, 0, 64, 68
1, 339863, Control_c, 0, 67, 36
1, 339878, Control_c, 0, 67, 36
1, 339887, Note_on_c, 0, 65, 69
1, 339891, Note_off_c, 0, 64, 63
1, 339931, Note_off_c, 0, 65, 65
1, 339937, Control_c, 0, 67, 35
1, 339950, Note_on_c, 0, 67, 68
1, 339952, Control_c, 0, 67, 35
1, 339997, Control_c, 0, 67, 34
1, 340012, Control_c, 0, 67, 33
1, 340015, Note_off_c, 0, 67, 62
1, 340015, Note_on_c, 0, 68, 79
1, 340026, Control_c, 0, 67, 32
1, 340039, Note_off_c, 0, 68, 69
1, 340041, Control_c, 0, 67, 31
1, 340056, Control_c, 0, 67, 30
1, 340071, Control_c, 0, 67, 29
1, 340085, Control_c, 0, 67, 28
1, 340098, Note_on_c, 0, 67, 82
1, 340100, Control_c, 0, 67, 26
1, 340115, Control_c, 0, 67, 24
1, 340130, Control_c, 0, 67, 21
1, 340145, Control_c, 0, 67, 16
1, 340159, Control_c, 0, 67, 12
1, 340170, Note_on_c, 0, 68, 76
1, 340174, Control_c, 0, 67, 8
1, 340188, Note_off_c, 0, 67, 61
1, 340189, Control_c, 0, 67, 0
1, 340223, Note_off_c, 0, 68, 65
1, 340235, Note_on_c, 0, 72, 81
1, 340301, Note_on_c, 0, 73, 87
1, 340301, Note_off_c, 0, 72, 64
1, 340334, Note_off_c, 0, 73, 68
1, 340382, Note_on_c, 0, 72, 89
1, 340456, Note_on_c, 0, 73, 78
1, 340480, Note_off_c, 0, 72, 66
1, 340519, Note_off_c, 0, 73, 65
1, 340539, Note_on_c, 0, 76, 91
1, 340610, Note_on_c, 0, 77, 88
1, 340611, Note_off_c, 0, 76, 67
1, 340653, Note_off_c, 0, 77, 63
1, 340690, Note_on_c, 0, 76, 95
1, 340754, Note_on_c, 0, 77, 86
1, 340777, Note_off_c, 0, 76, 66
1, 340808, Note_off_c, 0, 77, 65
1, 340827, Note_on_c, 0, 79, 86
1, 340884, Note_off_c, 0, 79, 63
1, 340886, Note_on_c, 0, 80, 95
1, 340933, Note_off_c, 0, 80, 67
1, 340972, Note_on_c, 0, 79, 78
1, 340997, Note_on_c, 0, 77, 52
1, 340998, Note_off_c, 0, 77, 127
1, 341037, Note_on_c, 0, 80, 84
1, 341058, Note_off_c, 0, 79, 63
1, 341097, Note_off_c, 0, 80, 66
1, 341104, Note_on_c, 0, 84, 84
1, 341152, Control_c, 0, 67, 8
1, 341160, Note_off_c, 0, 84, 62
1, 341167, Control_c, 0, 67, 8
1, 341175, Note_on_c, 0, 85, 86
1, 341181, Control_c, 0, 67, 9
1, 341196, Control_c, 0, 67, 11
1, 341211, Control_c, 0, 67, 12
1, 341221, Note_off_c, 0, 85, 66
1, 341253, Note_on_c, 0, 84, 69
1, 341285, Control_c, 0, 67, 12
1, 341300, Control_c, 0, 67, 14
1, 341315, Control_c, 0, 67, 18
1, 341323, Note_off_c, 0, 84, 53
1, 341330, Control_c, 0, 67, 29
1, 341332, Note_on_c, 0, 85, 65
1, 341345, Control_c, 0, 67, 44
1, 341360, Control_c, 0, 67, 63
1, 341374, Note_off_c, 0, 85, 63
1, 341375, Control_c, 0, 67, 83
1, 341390, Control_c, 0, 67, 100
1, 341404, Control_c, 0, 67, 115
1, 341419, Control_c, 0, 67, 125
1, 341425, Note_on_c, 0, 88, 52
1, 341434, Control_c, 0, 67, 127
1, 341478, Note_off_c, 0, 88, 61
1, 341490, Note_on_c, 0, 89, 59
1, 341523, Note_off_c, 0, 89, 67
1, 341565, Note_on_c, 0, 88, 48
1, 341628, Note_off_c, 0, 88, 57
1, 341637, Note_on_c, 0, 89, 46
1, 341663, Note_off_c, 0, 89, 56
1, 341711, Note_on_c, 0, 91, 51
1, 341758, Note_off_c, 0, 91, 55
1, 341772, Note_on_c, 0, 92, 56
1, 341806, Note_off_c, 0, 92, 65
1, 341854, Note_on_c, 0, 84, 56
1, 341917, Note_off_c, 0, 84, 63
1, 341919, Note_on_c, 0, 85, 53
1, 341965, Note_off_c, 0, 85, 65
1, 341997, Note_on_c, 0, 88, 50
1, 342057, Note_off_c, 0, 88, 54
1, 342065, Note_on_c, 0, 89, 48
1, 342095, Note_off_c, 0, 89, 57
1, 342146, Note_on_c, 0, 79, 53
1, 342202, Note_off_c, 0, 79, 51
1, 342210, Note_on_c, 0, 80, 48
1, 342236, Note_off_c, 0, 80, 64
1, 342281, Note_on_c, 0, 84, 48
1, 342352, Note_on_c, 0, 85, 47
1, 342355, Note_off_c, 0, 84, 56
1, 342385, Note_off_c, 0, 85, 59
1, 342424, Note_on_c, 0, 76, 52
1, 342486, Note_off_c, 0, 76, 60
1, 342488, Note_on_c, 0, 77, 53
1, 342532, Note_off_c, 0, 77, 60
1, 342579, Note_on_c, 0, 79, 50
1, 342642, Note_off_c, 0, 79, 55
1, 342656, Note_on_c, 0, 80, 48
1, 342689, Note_off_c, 0, 80, 54
1, 342736, Note_on_c, 0, 72, 56
1, 342780, Note_off_c, 0, 72, 59
1, 342796, Note_on_c, 0, 73, 46
1, 342834, Note_off_c, 0, 73, 64
1, 342877, Note_on_c, 0, 76, 40
1, 342942, Note_off_c, 0, 76, 52
1, 342955, Note_on_c, 0, 77, 38
1, 342981, Note_off_c, 0, 77, 54
1, 343007, Note_on_c, 0, 67, 52
1, 343069, Note_off_c, 0, 67, 57
1, 343070, Note_on_c, 0, 68, 58
1, 343118, Note_off_c, 0, 68, 64
1, 343159, Note_on_c, 0, 72, 45
1, 343234, Note_off_c, 0, 72, 52
1, 343245, Note_on_c, 0, 73, 29
1, 343280, Note_off_c, 0, 73, 52
1, 343321, Note_on_c, 0, 64, 36
1, 343381, Note_off_c, 0, 64, 58
1, 343389, Note_on_c, 0, 65, 42
1, 343431, Note_off_c, 0, 65, 61
1, 343491, Note_on_c, 0, 72, 39
1, 343541, Note_off_c, 0, 72, 43
1, 343550, Note_on_c, 0, 73, 38
1, 343604, Note_off_c, 0, 73, 48
1, 343654, Note_on_c, 0, 60, 41
1, 343735, Note_on_c, 0, 61, 36
1, 343744, Note_off_c, 0, 60, 57
1, 343780, Note_off_c, 0, 61, 52
1, 343821, Note_on_c, 0, 72, 54
1, 343870, Note_off_c, 0, 72, 60
1, 343874, Note_on_c, 0, 73, 54
1, 343915, Note_off_c, 0, 73, 62
1, 343964, Note_on_c, 0, 60, 42
1, 344005, Note_off_c, 0, 60, 63
1, 344019, Note_on_c, 0, 61, 45
1, 344046, Note_off_c, 0, 61, 62
1, 344105, Note_on_c, 0, 72, 48
1, 344171, Note_on_c, 0, 73, 49
1, 344172, Note_off_c, 0, 72, 53
1, 344207, Note_off_c, 0, 73, 64
1, 344262, Note_on_c, 0, 48, 42
1, 344325, Note_off_c, 0, 48, 64
1, 344325, Note_on_c, 0, 49, 47
1, 344358, Note_off_c, 0, 49, 61
1, 344401, Note_on_c, 0, 60, 47
1, 344469, Note_on_c, 0, 61, 58
1, 344479, Note_off_c, 0, 60, 63
1, 344498, Note_off_c, 0, 61, 65
1, 344568, Note_on_c, 0, 60, 44
1, 344635, Note_on_c, 0, 61, 48
1, 344642, Note_off_c, 0, 60, 60
1, 344679, Note_off_c, 0, 61, 63
1, 344743, Note_on_c, 0, 72, 37
1, 344783, Note_off_c, 0, 72, 54
1, 344793, Note_on_c, 0, 73, 50
1, 344819, Note_off_c, 0, 73, 56
1, 344884, Note_on_c, 0, 48, 40
1, 344947, Note_off_c, 0, 48, 57
1, 344980, Note_on_c, 0, 49, 40
1, 345035, Note_off_c, 0, 49, 60
1, 345078, Note_on_c, 0, 60, 48
1, 345145, Note_on_c, 0, 61, 57
1, 345154, Note_off_c, 0, 60, 58
1, 345191, Note_off_c, 0, 61, 63
1, 345282, Control_c, 0, 67, 109
1, 345297, Control_c, 0, 67, 91
1, 345312, Control_c, 0, 67, 73
1, 345319, Note_on_c, 0, 72, 91
1, 345327, Note_on_c, 0, 66, 91
1, 345327, Control_c, 0, 67, 52
1, 345332, Note_on_c, 0, 54, 79
1, 345337, Note_on_c, 0, 50, 72
1, 345342, Control_c, 0, 67, 21
1, 345357, Control_c, 0, 64, 68
1, 345357, Control_c, 0, 67, 0
1, 345371, Control_c, 0, 64, 81
1, 345386, Control_c, 0, 64, 93
1, 345401, Control_c, 0, 64, 100
1, 345416, Control_c, 0, 64, 110
1, 345431, Control_c, 0, 64, 127
1, 345457, Note_off_c, 0, 66, 63
1, 345734, Control_c, 0, 67, 10
1, 345749, Control_c, 0, 67, 22
1, 345764, Control_c, 0, 67, 38
1, 345778, Control_c, 0, 67, 60
1, 345793, Control_c, 0, 64, 110
1, 345793, Control_c, 0, 67, 85
1, 345795, Note_off_c, 0, 50, 53
1, 345808, Control_c, 0, 64, 96
1, 345808, Control_c, 0, 67, 115
1, 345821, Note_off_c, 0, 54, 59
1, 345822, Note_on_c, 0, 73, 69
1, 345822, Note_on_c, 0, 49, 53
1, 345822, Control_c, 0, 64, 80
1, 345822, Control_c, 0, 67, 127
1, 345825, Note_on_c, 0, 65, 67
1, 345837, Control_c, 0, 64, 56
1, 345838, Note_off_c, 0, 72, 59
1, 345839, Note_on_c, 0, 56, 54
1, 345852, Control_c, 0, 64, 0
1, 345862, Note_off_c, 0, 65, 62
1, 345866, Note_off_c, 0, 49, 64
1, 345872, Note_off_c, 0, 56, 64
1, 345872, Note_off_c, 0, 73, 64
1, 346025, Note_on_c, 0, 68, 58
1, 346033, Note_on_c, 0, 65, 50
1, 346046, Note_on_c, 0, 49, 36
1, 346054, Note_on_c, 0, 47, 41
1, 346213, Note_off_c, 0, 47, 58
1, 346220, Note_off_c, 0, 65, 59
1, 346224, Note_off_c, 0, 49, 44
1, 346225, Note_off_c, 0, 68, 62
1, 346559, Note_on_c, 0, 70, 53
1, 346580, Note_on_c, 0, 49, 31
1, 346588, Note_on_c, 0, 66, 22
1, 346592, Note_on_c, 0, 46, 21
1, 346606, Note_off_c, 0, 70, 56
1, 346615, Note_off_c, 0, 66, 49
1, 346618, Note_off_c, 0, 49, 51
1, 346635, Note_off_c, 0, 46, 46
1, 346734, Control_c, 0, 64, 43
1, 346748, Note_on_c, 0, 71, 51
1, 346749, Control_c, 0, 64, 63
1, 346755, Note_on_c, 0, 63, 36
1, 346757, Note_on_c, 0, 44, 39
1, 346764, Control_c, 0, 64, 68
1, 346779, Control_c, 0, 64, 73
1, 346793, Control_c, 0, 64, 80
1, 346794, Note_off_c, 0, 63, 47
1, 346808, Control_c, 0, 64, 82
1, 346838, Control_c, 0, 64, 83
1, 346929, Note_off_c, 0, 71, 47
1, 346957, Control_c, 0, 64, 82
1, 346987, Control_c, 0, 64, 82
1, 346998, Note_on_c, 0, 70, 59
1, 347000, Note_on_c, 0, 46, 50
1, 347002, Control_c, 0, 64, 80
1, 347017, Control_c, 0, 64, 77
1, 347032, Control_c, 0, 64, 69
1, 347045, Note_off_c, 0, 44, 40
1, 347047, Note_off_c, 0, 46, 60
1, 347047, Control_c, 0, 64, 56
1, 347052, Note_on_c, 0, 68, 51
1, 347060, Note_off_c, 0, 70, 62
1, 347062, Control_c, 0, 64, 0
1, 347075, Note_on_c, 0, 47, 47
1, 347090, Note_off_c, 0, 68, 65
1, 347094, Note_on_c, 0, 59, 34
1, 347104, Note_off_c, 0, 47, 60
1, 347127, Note_off_c, 0, 59, 55
1, 347247, Note_on_c, 0, 66, 44
1, 347258, Note_on_c, 0, 48, 44
1, 347261, Note_on_c, 0, 58, 41
1, 347285, Note_off_c, 0, 58, 58
1, 347292, Note_off_c, 0, 48, 55
1, 347317, Note_off_c, 0, 66, 45
1, 347459, Note_on_c, 0, 56, 40
1, 347459, Note_on_c, 0, 65, 39
1, 347489, Note_on_c, 0, 49, 25
1, 347703, Note_off_c, 0, 49, 35
1, 347726, Note_off_c, 0, 56, 54
1, 347786, Note_off_c, 0, 65, 54
1, 348246, Note_on_c, 0, 73, 91
1, 348255, Note_on_c, 0, 70, 74
1, 348263, Note_on_c, 0, 67, 71
1, 348266, Note_on_c, 0, 64, 67
1, 348335, Control_c, 0, 64, 44
1, 348350, Control_c, 0, 64, 61
1, 348364, Control_c, 0, 64, 67
1, 348379, Control_c, 0, 64, 71
1, 348394, Control_c, 0, 64, 77
1, 348409, Control_c, 0, 64, 81
1, 348424, Control_c, 0, 64, 83
1, 348439, Control_c, 0, 64, 85
1, 348454, Control_c, 0, 64, 86
1, 348469, Control_c, 0, 64, 87
1, 348483, Control_c, 0, 64, 88
1, 348498, Control_c, 0, 64, 89
1, 348513, Control_c, 0, 64, 89
1, 348573, Control_c, 0, 67, 119
1, 348588, Control_c, 0, 67, 116
1, 348639, Control_c, 0, 67, 117
1, 348669, Control_c, 0, 67, 118
1, 348684, Control_c, 0, 67, 119
1, 348699, Control_c, 0, 67, 120
1, 348713, Control_c, 0, 67, 121
1, 348728, Control_c, 0, 67, 122
1, 348743, Control_c, 0, 64, 89
1, 348743, Control_c, 0, 67, 123
1, 348758, Control_c, 0, 64, 88
1, 348758, Control_c, 0, 67, 124
1, 348773, Control_c, 0, 64, 87
1, 348773, Control_c, 0, 67, 126
1, 348788, Control_c, 0, 64, 85
1, 348788, Control_c, 0, 67, 127
1, 348791, Note_off_c, 0, 70, 59
1, 348797, Note_off_c, 0, 64, 51
1, 348803, Control_c, 0, 64, 82
1, 348817, Control_c, 0, 64, 77
1, 348821, Note_on_c, 0, 75, 66
1, 348825, Note_on_c, 0, 66, 57
1, 348826, Note_on_c, 0, 63, 50
1, 348832, Control_c, 0, 64, 70
1, 348835, Note_off_c, 0, 73, 59
1, 348836, Note_off_c, 0, 67, 53
1, 348838, Note_on_c, 0, 71, 41
1, 348847, Control_c, 0, 64, 52
1, 348859, Note_off_c, 0, 66, 52
1, 348862, Control_c, 0, 64, 0
1, 348863, Note_off_c, 0, 71, 55
1, 348870, Note_off_c, 0, 63, 56
1, 348898, Note_off_c, 0, 75, 56
1, 349046, Note_on_c, 0, 76, 54
1, 349048, Note_on_c, 0, 61, 31
1, 349060, Note_on_c, 0, 73, 39
1, 349065, Note_on_c, 0, 64, 39
1, 349174, Control_c, 0, 64, 58
1, 349188, Control_c, 0, 64, 64
1, 349203, Control_c, 0, 64, 65
1, 349218, Control_c, 0, 64, 67
1, 349233, Control_c, 0, 64, 68
1, 349247, Control_c, 0, 64, 68
1, 349262, Control_c, 0, 64, 67
1, 349277, Control_c, 0, 64, 65
1, 349292, Control_c, 0, 64, 63
1, 349294, Note_off_c, 0, 64, 48
1, 349302, Note_off_c, 0, 76, 60
1, 349305, Note_off_c, 0, 73, 52
1, 349308, Note_off_c, 0, 61, 57
1, 349308, Control_c, 0, 64, 59
1, 349323, Control_c, 0, 64, 45
1, 349337, Control_c, 0, 64, 0
1, 349605, Note_on_c, 0, 78, 67
1, 349625, Note_on_c, 0, 63, 35
1, 349631, Note_on_c, 0, 59, 28
1, 349649, Note_off_c, 0, 78, 65
1, 349655, Note_off_c, 0, 63, 56
1, 349658, Note_off_c, 0, 59, 49
1, 349804, Control_c, 0, 64, 18
1, 349809, Note_on_c, 0, 80, 76
1, 349819, Control_c, 0, 64, 60
1, 349826, Note_on_c, 0, 56, 46
1, 349834, Note_on_c, 0, 52, 24
1, 349834, Note_on_c, 0, 76, 48
1, 349834, Control_c, 0, 64, 64
1, 349849, Control_c, 0, 64, 66
1, 349855, Note_off_c, 0, 76, 60
1, 349863, Control_c, 0, 64, 69
1, 349878, Control_c, 0, 64, 72
1, 349893, Control_c, 0, 64, 76
1, 349908, Control_c, 0, 64, 78
1, 349923, Control_c, 0, 64, 79
1, 349937, Control_c, 0, 64, 79
1, 349995, Note_off_c, 0, 52, 42
1, 350015, Note_off_c, 0, 56, 42
1, 350052, Note_off_c, 0, 80, 55
1, 350055, Note_on_c, 0, 76, 66
1, 350056, Control_c, 0, 64, 79
1, 350063, Note_on_c, 0, 61, 36
1, 350070, Control_c, 0, 64, 77
1, 350085, Control_c, 0, 64, 71
1, 350096, Note_off_c, 0, 61, 44
1, 350100, Control_c, 0, 64, 59
1, 350116, Control_c, 0, 64, 0
1, 350117, Note_on_c, 0, 75, 63
1, 350117, Note_off_c, 0, 76, 66
1, 350126, Note_on_c, 0, 63, 52
1, 350128, Note_on_c, 0, 54, 44
1, 350138, Note_on_c, 0, 71, 31
1, 350141, Note_on_c, 0, 73, 31
1, 350161, Note_off_c, 0, 75, 63
1, 350162, Note_off_c, 0, 63, 61
1, 350164, Note_off_c, 0, 71, 45
1, 350171, Note_off_c, 0, 54, 52
1, 350171, Note_off_c, 0, 73, 42
1, 350299, Note_on_c, 0, 73, 54
1, 350314, Note_on_c, 0, 70, 42
1, 350319, Note_on_c, 0, 64, 49
1, 350334, Note_on_c, 0, 54, 9
1, 350338, Note_off_c, 0, 70, 57
1, 350352, Note_off_c, 0, 73, 59
1, 350366, Note_off_c, 0, 64, 59
1, 350392, Note_off_c, 0, 54, 42
1, 350528, Note_on_c, 0, 75, 53
1, 350540, Note_on_c, 0, 71, 24
1, 350543, Note_on_c, 0, 63, 34
1, 350555, Note_on_c, 0, 59, 11
1, 350803, Note_off_c, 0, 59, 41
1, 350806, Note_off_c, 0, 75, 60
1, 350806, Note_off_c, 0, 71, 52
1, 350817, Note_off_c, 0, 63, 47
1, 351287, Control_c, 0, 64, 10
1, 351302, Control_c, 0, 64, 16
1, 351316, Control_c, 0, 64, 21
1, 351330, Control_c, 0, 64, 25
1, 351345, Control_c, 0, 64, 27
1, 351360, Control_c, 0, 64, 29
1, 351375, Control_c, 0, 64, 32
1, 351390, Control_c, 0, 64, 36
1, 351405, Control_c, 0, 64, 40
1, 351420, Control_c, 0, 64, 46
1, 351434, Control_c, 0, 64, 51
1, 351449, Note_on_c, 0, 71, 45
1, 351449, Control_c, 0, 64, 55
1, 351453, Note_on_c, 0, 66, 34
1, 351459, Note_on_c, 0, 63, 27
1, 351464, Control_c, 0, 64, 58
1, 351479, Control_c, 0, 64, 60
1, 351494, Control_c, 0, 64, 62
1, 351508, Control_c, 0, 64, 64
1, 351523, Control_c, 0, 64, 66
1, 351538, Control_c, 0, 64, 68
1, 351553, Control_c, 0, 64, 69
1, 351568, Control_c, 0, 64, 72
1, 351582, Control_c, 0, 64, 75
1, 351597, Control_c, 0, 64, 77
1, 351612, Control_c, 0, 64, 78
1, 351627, Control_c, 0, 64, 79
1, 351664, Control_c, 0, 64, 79
1, 351793, Note_off_c, 0, 66, 33
1, 351872, Control_c, 0, 64, 79
1, 351887, Control_c, 0, 64, 78
1, 351902, Control_c, 0, 64, 78
1, 351917, Control_c, 0, 64, 76
1, 351931, Control_c, 0, 64, 75
1, 351946, Control_c, 0, 64, 73
1, 351947, Note_off_c, 0, 71, 30
1, 351961, Control_c, 0, 64, 70
1, 351976, Control_c, 0, 64, 65
1, 351991, Control_c, 0, 64, 58
1, 351995, Note_on_c, 0, 66, 38
1, 351995, Note_on_c, 0, 70, 45
1, 352004, Note_on_c, 0, 61, 37
1, 352004, Note_off_c, 0, 63, 32
1, 352005, Control_c, 0, 64, 49
1, 352020, Control_c, 0, 64, 49
1, 352035, Control_c, 0, 64, 47
1, 352039, Note_off_c, 0, 61, 56
1, 352050, Control_c, 0, 64, 38
1, 352051, Note_off_c, 0, 70, 56
1, 352058, Note_off_c, 0, 66, 45
1, 352064, Control_c, 0, 64, 0
1, 352233, Note_on_c, 0, 66, 20
1, 352233, Note_on_c, 0, 75, 27
1, 352237, Note_on_c, 0, 59, 30
1, 352243, Control_c, 0, 64, 54
1, 352257, Control_c, 0, 64, 63
1, 352272, Control_c, 0, 64, 65
1, 352287, Control_c, 0, 64, 67
1, 352302, Control_c, 0, 64, 68
1, 352317, Control_c, 0, 64, 71
1, 352332, Control_c, 0, 64, 73
1, 352347, Control_c, 0, 64, 75
1, 352362, Control_c, 0, 64, 76
1, 352443, Control_c, 0, 64, 75
1, 352457, Note_off_c, 0, 59, 33
1, 352457, Control_c, 0, 64, 74
1, 352469, Note_off_c, 0, 75, 51
1, 352471, Note_off_c, 0, 66, 43
1, 352472, Control_c, 0, 64, 72
1, 352487, Control_c, 0, 64, 67
1, 352502, Control_c, 0, 64, 61
1, 352518, Control_c, 0, 64, 51
1, 352533, Control_c, 0, 64, 44
1, 352548, Control_c, 0, 64, 33
1, 352562, Control_c, 0, 64, 0
1, 352737, Note_on_c, 0, 73, 52
1, 352742, Note_on_c, 0, 66, 45
1, 352755, Note_on_c, 0, 58, 30
1, 352782, Note_off_c, 0, 73, 52
1, 352784, Note_off_c, 0, 58, 55
1, 352789, Note_off_c, 0, 66, 62
1, 352918, Control_c, 0, 64, 48
1, 352929, Note_on_c, 0, 71, 48
1, 352933, Control_c, 0, 64, 59
1, 352942, Note_on_c, 0, 56, 39
1, 352943, Note_on_c, 0, 66, 36
1, 352948, Control_c, 0, 64, 63
1, 352962, Control_c, 0, 64, 64
1, 352977, Control_c, 0, 64, 65
1, 352992, Control_c, 0, 64, 67
1, 353006, Control_c, 0, 64, 68
1, 353021, Control_c, 0, 64, 70
1, 353036, Control_c, 0, 64, 71
1, 353051, Control_c, 0, 64, 72
1, 353080, Control_c, 0, 64, 73
1, 353148, Control_c, 0, 64, 72
1, 353162, Control_c, 0, 64, 71
1, 353163, Note_on_c, 0, 70, 41
1, 353167, Note_off_c, 0, 66, 38
1, 353177, Control_c, 0, 64, 69
1, 353184, Note_off_c, 0, 56, 37
1, 353186, Note_on_c, 0, 58, 35
1, 353192, Control_c, 0, 64, 65
1, 353200, Note_off_c, 0, 71, 59
1, 353206, Control_c, 0, 64, 55
1, 353208, Note_on_c, 0, 68, 55
1, 353221, Control_c, 0, 64, 0
1, 353222, Note_off_c, 0, 70, 42
1, 353229, Note_on_c, 0, 66, 31
1, 353232, Note_off_c, 0, 58, 50
1, 353241, Note_on_c, 0, 59, 38
1, 353268, Note_off_c, 0, 68, 56
1, 353277, Note_off_c, 0, 66, 49
1, 353291, Note_off_c, 0, 59, 44
1, 353390, Note_on_c, 0, 73, 49
1, 353396, Note_on_c, 0, 65, 44
1, 353399, Note_on_c, 0, 49, 34
1, 353440, Note_off_c, 0, 65, 50
1, 353480, Note_off_c, 0, 49, 35
1, 353515, Note_off_c, 0, 73, 34
1, 353548, Control_c, 0, 64, 13
1, 353563, Control_c, 0, 64, 52
1, 353565, Note_on_c, 0, 70, 50
1, 353578, Control_c, 0, 64, 59
1, 353593, Control_c, 0, 64, 61
1, 353599, Note_on_c, 0, 54, 25
1, 353608, Control_c, 0, 64, 63
1, 353623, Control_c, 0, 64, 64
1, 353637, Control_c, 0, 64, 65
1, 353643, Note_on_c, 0, 66, 48
1, 353652, Control_c, 0, 64, 66
1, 353658, Note_off_c, 0, 70, 41
1, 353667, Control_c, 0, 64, 67
1, 353682, Control_c, 0, 64, 68
1, 353700, Note_off_c, 0, 66, 60
1, 353716, Note_on_c, 0, 65, 47
1, 353726, Control_c, 0, 64, 68
1, 353743, Note_on_c, 0, 61, 41
1, 353770, Note_off_c, 0, 65, 60
1, 353785, Control_c, 0, 64, 68
1, 353798, Note_on_c, 0, 66, 60
1, 353815, Control_c, 0, 64, 67
1, 353844, Control_c, 0, 64, 66
1, 353853, Note_off_c, 0, 66, 61
1, 353859, Control_c, 0, 64, 65
1, 353865, Note_off_c, 0, 61, 57
1, 353879, Note_off_c, 0, 54, 29
1, 353882, Control_c, 0, 64, 64
1, 353891, Note_on_c, 0, 63, 53
1, 353894, Note_on_c, 0, 71, 55
1, 353897, Control_c, 0, 64, 61
1, 353911, Control_c, 0, 64, 53
1, 353926, Control_c, 0, 64, 10
1, 353941, Control_c, 0, 64, 0
1, 353963, Note_off_c, 0, 71, 58
1, 353972, Note_on_c, 0, 78, 61
1, 354004, Note_off_c, 0, 63, 62
1, 354037, Note_on_c, 0, 61, 50
1, 354037, Note_off_c, 0, 78, 60
1, 354037, Note_on_c, 0, 70, 62
1, 354100, Note_off_c, 0, 70, 62
1, 354117, Note_on_c, 0, 78, 59
1, 354197, Note_off_c, 0, 78, 61
1, 354200, Note_on_c, 0, 75, 60
1, 354202, Note_off_c, 0, 61, 59
1, 354206, Note_on_c, 0, 59, 56
1, 354273, Note_on_c, 0, 78, 62
1, 354273, Note_off_c, 0, 75, 61
1, 354333, Note_off_c, 0, 59, 56
1, 354344, Note_off_c, 0, 78, 61
1, 354352, Note_on_c, 0, 73, 61
1, 354357, Note_on_c, 0, 58, 55
1, 354419, Note_on_c, 0, 78, 66
1, 354425, Note_off_c, 0, 73, 61
1, 354478, Note_off_c, 0, 78, 64
1, 354484, Note_off_c, 0, 58, 62
1, 354499, Note_on_c, 0, 56, 54
1, 354507, Note_on_c, 0, 77, 56
1, 354563, Note_off_c, 0, 77, 56
1, 354583, Note_on_c, 0, 80, 59
1, 354655, Note_off_c, 0, 80, 57
1, 354656, Note_on_c, 0, 77, 53
1, 354658, Note_off_c, 0, 56, 50
1, 354675, Note_on_c, 0, 49, 51
1, 354726, Note_off_c, 0, 77, 55
1, 354728, Note_on_c, 0, 85, 55
1, 354812, Note_on_c, 0, 78, 63
1, 354812, Note_off_c, 0, 85, 59
1, 354817, Note_off_c, 0, 49, 59
1, 354824, Note_on_c, 0, 54, 54
1, 354893, Note_off_c, 0, 78, 59
1, 354896, Note_on_c, 0, 82, 58
1, 354973, Note_on_c, 0, 49, 57
1, 354974, Note_on_c, 0, 78, 64
1, 354978, Note_off_c, 0, 82, 59
1, 354981, Note_off_c, 0, 54, 55
1, 355042, Note_off_c, 0, 78, 62
1, 355045, Note_on_c, 0, 85, 64
1, 355112, Note_off_c, 0, 85, 64
1, 355120, Note_on_c, 0, 78, 72
1, 355122, Note_on_c, 0, 46, 71
1, 355129, Note_off_c, 0, 49, 60
1, 355185, Note_on_c, 0, 85, 70
1, 355185, Note_off_c, 0, 78, 62
1, 355253, Note_off_c, 0, 46, 59
1, 355262, Note_off_c, 0, 85, 65
1, 355264, Note_on_c, 0, 82, 83
1, 355273, Note_on_c, 0, 49, 68
1, 355334, Note_on_c, 0, 85, 68
1, 355338, Note_off_c, 0, 82, 63
1, 355357, Control_c, 0, 67, 121
1, 355379, Control_c, 0, 67, 97
1, 355394, Control_c, 0, 67, 72
1, 355408, Control_c, 0, 67, 46
1, 355419, Note_on_c, 0, 82, 82
1, 355422, Note_off_c, 0, 85, 66
1, 355423, Control_c, 0, 67, 24
1, 355427, Note_off_c, 0, 49, 60
1, 355435, Note_on_c, 0, 42, 63
1, 355438, Control_c, 0, 67, 8
1, 355453, Control_c, 0, 67, 0
1, 355494, Note_off_c, 0, 82, 64
1, 355495, Note_on_c, 0, 85, 72
1, 355577, Note_off_c, 0, 42, 63
1, 355578, Note_off_c, 0, 85, 65
1, 355579, Note_on_c, 0, 82, 77
1, 355593, Note_on_c, 0, 49, 60
1, 355656, Note_on_c, 0, 85, 64
1, 355662, Note_off_c, 0, 82, 59
1, 355731, Note_on_c, 0, 80, 72
1, 355739, Note_off_c, 0, 49, 34
1, 355742, Note_off_c, 0, 85, 61
1, 355743, Note_on_c, 0, 37, 54
1, 355766, Control_c, 0, 67, 9
1, 355780, Control_c, 0, 67, 12
1, 355795, Control_c, 0, 64, 53
1, 355795, Control_c, 0, 67, 17
1, 355802, Note_off_c, 0, 80, 63
1, 355810, Control_c, 0, 64, 63
1, 355810, Control_c, 0, 67, 22
1, 355811, Note_on_c, 0, 83, 65
1, 355825, Control_c, 0, 64, 68
1, 355825, Control_c, 0, 67, 27
1, 355839, Control_c, 0, 64, 71
1, 355839, Control_c, 0, 67, 34
1, 355854, Control_c, 0, 64, 75
1, 355854, Control_c, 0, 67, 41
1, 355858, Note_off_c, 0, 37, 55
1, 355869, Control_c, 0, 64, 77
1, 355869, Control_c, 0, 67, 50
1, 355882, Note_on_c, 0, 77, 65
1, 355884, Control_c, 0, 64, 78
1, 355884, Control_c, 0, 67, 58
1, 355887, Note_off_c, 0, 83, 59
1, 355888, Note_on_c, 0, 49, 51
1, 355898, Control_c, 0, 67, 65
1, 355913, Control_c, 0, 67, 72
1, 355928, Control_c, 0, 67, 78
1, 355938, Note_off_c, 0, 77, 60
1, 355943, Control_c, 0, 67, 84
1, 355951, Note_on_c, 0, 85, 68
1, 355958, Control_c, 0, 67, 90
1, 355966, Note_off_c, 0, 85, 68
1, 355972, Control_c, 0, 64, 78
1, 355972, Control_c, 0, 67, 99
1, 355987, Control_c, 0, 64, 76
1, 355987, Control_c, 0, 67, 111
1, 356002, Control_c, 0, 64, 73
1, 356002, Control_c, 0, 67, 125
1, 356017, Control_c, 0, 64, 64
1, 356017, Control_c, 0, 67, 127
1, 356031, Control_c, 0, 64, 16
1, 356046, Control_c, 0, 64, 0
1, 356052, Note_off_c, 0, 49, 33
1, 356056, Note_on_c, 0, 70, 71
1, 356066, Note_on_c, 0, 42, 57
1, 356076, Control_c, 0, 64, 46
1, 356091, Control_c, 0, 64, 61
1, 356106, Note_off_c, 0, 42, 64
1, 356106, Control_c, 0, 64, 65
1, 356128, Control_c, 0, 64, 67
1, 356130, Note_on_c, 0, 68, 25
1, 356143, Control_c, 0, 64, 69
1, 356146, Note_off_c, 0, 70, 54
1, 356156, Note_on_c, 0, 67, 49
1, 356158, Control_c, 0, 64, 71
1, 356173, Control_c, 0, 64, 73
1, 356184, Note_off_c, 0, 68, 64
1, 356185, Note_off_c, 0, 67, 57
1, 356187, Control_c, 0, 64, 74
1, 356214, Note_on_c, 0, 65, 62
1, 356241, Note_on_c, 0, 61, 66
1, 356261, Control_c, 0, 64, 73
1, 356276, Control_c, 0, 64, 73
1, 356279, Note_off_c, 0, 65, 63
1, 356282, Note_on_c, 0, 66, 71
1, 356291, Control_c, 0, 64, 72
1, 356305, Control_c, 0, 64, 71
1, 356320, Control_c, 0, 64, 70
1, 356335, Control_c, 0, 64, 68
1, 356343, Note_off_c, 0, 66, 65
1, 356350, Control_c, 0, 64, 65
1, 356359, Note_off_c, 0, 61, 54
1, 356365, Control_c, 0, 64, 60
1, 356376, Note_on_c, 0, 71, 59
1, 356380, Control_c, 0, 64, 47
1, 356392, Note_on_c, 0, 63, 64
1, 356395, Control_c, 0, 64, 0
1, 356443, Note_off_c, 0, 71, 59
1, 356443, Note_on_c, 0, 78, 69
1, 356508, Note_off_c, 0, 63, 58
1, 356515, Note_off_c, 0, 78, 62
1, 356522, Note_on_c, 0, 70, 66
1, 356539, Note_on_c, 0, 61, 57
1, 356579, Note_off_c, 0, 70, 60
1, 356595, Note_on_c, 0, 78, 64
1, 356657, Note_off_c, 0, 61, 59
1, 356668, Note_off_c, 0, 78, 63
1, 356676, Note_on_c, 0, 75, 64
1, 356677, Control_c, 0, 67, 116
1, 356678, Note_on_c, 0, 59, 59
1, 356692, Control_c, 0, 67, 104
1, 356707, Control_c, 0, 67, 93
1, 356721, Control_c, 0, 67, 83
1, 356736, Control_c, 0, 67, 75
1, 356746, Note_on_c, 0, 78, 66
1, 356751, Control_c, 0, 67, 66
1, 356752, Note_off_c, 0, 75, 60
1, 356766, Control_c, 0, 67, 54
1, 356780, Control_c, 0, 67, 38
1, 356794, Note_off_c, 0, 59, 61
1, 356795, Control_c, 0, 67, 24
1, 356810, Control_c, 0, 64, 44
1, 356810, Control_c, 0, 67, 14
1, 356814, Note_off_c, 0, 78, 62
1, 356817, Note_on_c, 0, 58, 56
1, 356825, Control_c, 0, 64, 56
1, 356825, Control_c, 0, 67, 8
1, 356826, Note_on_c, 0, 73, 66
1, 356840, Control_c, 0, 64, 59
1, 356840, Control_c, 0, 67, 0
1, 356854, Control_c, 0, 64, 61
1, 356877, Control_c, 0, 64, 62
1, 356892, Control_c, 0, 64, 63
1, 356896, Note_off_c, 0, 73, 59
1, 356899, Note_on_c, 0, 78, 65
1, 356907, Control_c, 0, 64, 63
1, 356907, Control_c, 0, 67, 8
1, 356922, Control_c, 0, 67, 8
1, 356936, Control_c, 0, 64, 62
1, 356936, Control_c, 0, 67, 9
1, 356939, Note_off_c, 0, 58, 62
1, 356951, Control_c, 0, 64, 60
1, 356951, Control_c, 0, 67, 10
1, 356957, Note_off_c, 0, 78, 63
1, 356966, Control_c, 0, 64, 51
1, 356966, Control_c, 0, 67, 11
1, 356976, Note_on_c, 0, 56, 50
1, 356980, Control_c, 0, 64, 0
1, 356980, Control_c, 0, 67, 13
1, 356985, Note_on_c, 0, 77, 62
1, 356995, Control_c, 0, 67, 14
1, 357010, Control_c, 0, 67, 15
1, 357025, Control_c, 0, 67, 17
1, 357033, Note_off_c, 0, 77, 54
1, 357040, Control_c, 0, 67, 18
1, 357054, Control_c, 0, 67, 20
1, 357066, Note_on_c, 0, 80, 59
1, 357069, Control_c, 0, 67, 24
1, 357084, Control_c, 0, 64, 58
1, 357084, Control_c, 0, 67, 29
1, 357099, Control_c, 0, 64, 64
1, 357099, Control_c, 0, 67, 32
1, 357114, Control_c, 0, 64, 66
1, 357114, Control_c, 0, 67, 36
1, 357121, Note_off_c, 0, 80, 58
1, 357128, Note_off_c, 0, 56, 36
1, 357129, Control_c, 0, 64, 68
1, 357129, Control_c, 0, 67, 38
1, 357132, Note_on_c, 0, 49, 49
1, 357134, Note_on_c, 0, 77, 48
1, 357144, Control_c, 0, 64, 71
1, 357144, Control_c, 0, 67, 38
1, 357159, Control_c, 0, 64, 74
1, 357174, Control_c, 0, 64, 76
1, 357174, Control_c, 0, 67, 38
1, 357188, Control_c, 0, 64, 77
1, 357188, Control_c, 0, 67, 37
1, 357193, Note_on_c, 0, 85, 63
1, 357194, Note_off_c, 0, 77, 58
1, 357233, Control_c, 0, 67, 37
1, 357262, Control_c, 0, 67, 36
1, 357277, Control_c, 0, 67, 37
1, 357279, Note_off_c, 0, 49, 57
1, 357283, Note_on_c, 0, 78, 68
1, 357292, Note_on_c, 0, 54, 54
1, 357292, Control_c, 0, 64, 76
1, 357323, Control_c, 0, 67, 37
1, 357338, Control_c, 0, 64, 76
1, 357340, Note_off_c, 0, 78, 61
1, 357344, Note_off_c, 0, 85, 31
1, 357350, Note_on_c, 0, 82, 67
1, 357352, Control_c, 0, 64, 75
1, 357367, Control_c, 0, 64, 75
1, 357382, Control_c, 0, 64, 74
1, 357382, Control_c, 0, 67, 38
1, 357397, Control_c, 0, 64, 73
1, 357411, Control_c, 0, 64, 72
1, 357414, Note_off_c, 0, 54, 57
1, 357426, Control_c, 0, 64, 69
1, 357431, Note_on_c, 0, 78, 78
1, 357433, Note_on_c, 0, 42, 78
1, 357436, Note_off_c, 0, 82, 58
1, 357441, Control_c, 0, 64, 63
1, 357456, Control_c, 0, 64, 0
1, 357456, Control_c, 0, 67, 38
1, 357486, Control_c, 0, 64, 34
1, 357486, Control_c, 0, 67, 38
1, 357492, Note_on_c, 0, 85, 74
1, 357497, Note_off_c, 0, 78, 65
1, 357501, Control_c, 0, 64, 60
1, 357501, Control_c, 0, 67, 37
1, 357516, Control_c, 0, 64, 64
1, 357516, Control_c, 0, 67, 37
1, 357531, Control_c, 0, 64, 67
1, 357531, Control_c, 0, 67, 36
1, 357545, Control_c, 0, 64, 70
1, 357545, Control_c, 0, 67, 36
1, 357560, Control_c, 0, 64, 73
1, 357560, Control_c, 0, 67, 35
1, 357560, Note_off_c, 0, 42, 55
1, 357575, Control_c, 0, 64, 76
1, 357575, Control_c, 0, 67, 34
1, 357578, Note_on_c, 0, 78, 85
1, 357580, Note_on_c, 0, 51, 90
1, 357588, Note_off_c, 0, 85, 64
1, 357590, Control_c, 0, 64, 77
1, 357590, Control_c, 0, 67, 34
1, 357604, Control_c, 0, 67, 33
1, 357655, Note_off_c, 0, 78, 64
1, 357660, Note_on_c, 0, 82, 87
1, 357724, Note_on_c, 0, 39, 88
1, 357731, Note_on_c, 0, 78, 93
1, 357738, Note_off_c, 0, 82, 63
1, 357750, Note_off_c, 0, 51, 56
1, 357760, Control_c, 0, 64, 77
1, 357775, Control_c, 0, 64, 76
1, 357790, Control_c, 0, 64, 74
1, 357790, Control_c, 0, 67, 34
1, 357802, Note_on_c, 0, 87, 90
1, 357805, Control_c, 0, 64, 71
1, 357808, Note_off_c, 0, 78, 63
1, 357820, Control_c, 0, 64, 65
1, 357835, Control_c, 0, 64, 0
1, 357850, Control_c, 0, 67, 33
1, 357865, Control_c, 0, 67, 32
1, 357879, Control_c, 0, 67, 31
1, 357882, Note_on_c, 0, 78, 96
1, 357885, Note_on_c, 0, 47, 95
1, 357886, Note_off_c, 0, 39, 57
1, 357891, Note_off_c, 0, 87, 61
1, 357894, Control_c, 0, 67, 28
1, 357909, Control_c, 0, 67, 24
1, 357924, Control_c, 0, 67, 17
1, 357939, Control_c, 0, 67, 0
1, 357953, Control_c, 0, 64, 41
1, 357960, Note_on_c, 0, 87, 83
1, 357968, Note_off_c, 0, 78, 66
1, 357968, Control_c, 0, 64, 63
1, 357983, Control_c, 0, 64, 66
1, 357997, Control_c, 0, 64, 68
1, 358012, Control_c, 0, 64, 69
1, 358027, Control_c, 0, 64, 72
1, 358038, Note_on_c, 0, 35, 94
1, 358042, Control_c, 0, 64, 73
1, 358047, Note_on_c, 0, 78, 101
1, 358056, Note_off_c, 0, 87, 62
1, 358057, Control_c, 0, 64, 75
1, 358070, Note_off_c, 0, 47, 63
1, 358119, Note_on_c, 0, 87, 81
1, 358130, Note_off_c, 0, 78, 64
1, 358149, Note_on_c, 0, 82, 49
1, 358173, Note_off_c, 0, 82, 57
1, 358175, Control_c, 0, 64, 73
1, 358189, Control_c, 0, 64, 70
1, 358204, Control_c, 0, 64, 59
1, 358208, Note_on_c, 0, 45, 101
1, 358210, Note_on_c, 0, 78, 103
1, 358219, Control_c, 0, 64, 0
1, 358223, Note_off_c, 0, 87, 64
1, 358231, Note_off_c, 0, 35, 62
1, 358281, Note_on_c, 0, 87, 81
1, 358294, Note_off_c, 0, 78, 64
1, 358380, Note_on_c, 0, 33, 85
1, 358383, Note_on_c, 0, 78, 99
1, 358393, Note_off_c, 0, 87, 62
1, 358410, Note_off_c, 0, 45, 63
1, 358450, Note_on_c, 0, 87, 85
1, 358470, Note_off_c, 0, 78, 62
1, 358483, Note_off_c, 0, 33, 58
1, 358517, Note_off_c, 0, 87, 67
1, 358575, Note_on_c, 0, 77, 94
1, 358575, Note_on_c, 0, 86, 98
1, 358582, Note_on_c, 0, 46, 104
1, 358582, Control_c, 0, 64, 63
1, 358583, Note_on_c, 0, 34, 89
1, 358597, Control_c, 0, 64, 75
1, 358607, Note_off_c, 0, 77, 66
1, 358609, Note_off_c, 0, 34, 71
1, 358612, Control_c, 0, 64, 88
1, 358619, Note_off_c, 0, 86, 68
1, 358625, Note_off_c, 0, 46, 62
1, 358626, Control_c, 0, 64, 93
1, 358641, Control_c, 0, 64, 94
1, 358671, Control_c, 0, 64, 94
1, 358785, Note_on_c, 0, 71, 84
1, 358789, Control_c, 0, 64, 94
1, 358804, Control_c, 0, 64, 93
1, 358819, Control_c, 0, 64, 91
1, 358834, Control_c, 0, 64, 86
1, 358849, Control_c, 0, 64, 79
1, 358853, Note_off_c, 0, 71, 62
1, 358858, Note_on_c, 0, 70, 88
1, 358864, Control_c, 0, 64, 68
1, 358879, Control_c, 0, 64, 0
1, 358908, Note_off_c, 0, 70, 65
1, 358910, Control_c, 0, 67, 8
1, 358924, Control_c, 0, 67, 10
1, 358939, Control_c, 0, 67, 14
1, 358951, Note_on_c, 0, 70, 90
1, 358954, Control_c, 0, 67, 21
1, 358969, Control_c, 0, 67, 28
1, 358984, Control_c, 0, 67, 35
1, 358998, Control_c, 0, 67, 42
1, 359013, Control_c, 0, 67, 47
1, 359014, Note_on_c, 0, 68, 83
1, 359018, Note_off_c, 0, 70, 66
1, 359028, Control_c, 0, 67, 52
1, 359042, Control_c, 0, 67, 57
1, 359049, Note_off_c, 0, 68, 66
1, 359057, Control_c, 0, 67, 61
1, 359072, Control_c, 0, 67, 64
1, 359087, Control_c, 0, 67, 65
1, 359097, Note_on_c, 0, 70, 82
1, 359102, Control_c, 0, 67, 67
1, 359117, Control_c, 0, 67, 69
1, 359139, Control_c, 0, 67, 72
1, 359154, Control_c, 0, 67, 74
1, 359169, Note_on_c, 0, 68, 81
1, 359169, Control_c, 0, 67, 75
1, 359178, Note_off_c, 0, 70, 60
1, 359213, Control_c, 0, 67, 74
1, 359214, Note_off_c, 0, 68, 64
1, 359248, Note_on_c, 0, 68, 86
1, 359257, Control_c, 0, 67, 74
1, 359315, Note_on_c, 0, 66, 79
1, 359319, Note_off_c, 0, 68, 66
1, 359331, Control_c, 0, 67, 73
1, 359358, Note_off_c, 0, 66, 66
1, 359379, Note_on_c, 0, 68, 75
1, 359435, Control_c, 0, 67, 73
1, 359453, Note_off_c, 0, 68, 65
1, 359454, Note_on_c, 0, 66, 79
1, 359465, Control_c, 0, 67, 72
1, 359483, Note_off_c, 0, 66, 64
1, 359495, Control_c, 0, 67, 72
1, 359537, Note_on_c, 0, 66, 79
1, 359554, Control_c, 0, 67, 72
1, 359569, Control_c, 0, 67, 73
1, 359594, Note_on_c, 0, 65, 72
1, 359598, Control_c, 0, 67, 73
1, 359614, Note_off_c, 0, 66, 65
1, 359643, Note_off_c, 0, 65, 66
1, 359659, Note_on_c, 0, 66, 67
1, 359687, Control_c, 0, 67, 73
1, 359703, Control_c, 0, 67, 72
1, 359718, Control_c, 0, 67, 72
1, 359732, Note_off_c, 0, 66, 66
1, 359733, Control_c, 0, 67, 71
1, 359734, Note_on_c, 0, 65, 81
1, 359747, Control_c, 0, 67, 71
1, 359772, Note_off_c, 0, 65, 65
1, 359777, Control_c, 0, 67, 70
1, 359791, Control_c, 0, 67, 70
1, 359807, Note_on_c, 0, 65, 81
1, 359836, Control_c, 0, 67, 70
1, 359851, Control_c, 0, 67, 71
1, 359873, Control_c, 0, 67, 71
1, 359878, Note_off_c, 0, 65, 64
1, 359880, Note_on_c, 0, 63, 77
1, 359888, Control_c, 0, 67, 72
1, 359912, Note_off_c, 0, 63, 65
1, 359957, Note_on_c, 0, 65, 69
1, 359992, Control_c, 0, 67, 71
1, 360006, Control_c, 0, 67, 71
1, 360022, Note_off_c, 0, 65, 59
1, 360029, Note_on_c, 0, 63, 74
1, 360036, Control_c, 0, 67, 70
1, 360051, Control_c, 0, 67, 70
1, 360067, Note_off_c, 0, 63, 66
1, 360103, Poly_aftertouch_c, 0, 63, 0
1, 360110, Note_on_c, 0, 63, 75
1, 360173, Note_off_c, 0, 63, 65
1, 360181, Note_on_c, 0, 61, 56
1, 360199, Control_c, 0, 67, 70
1, 360205, Note_off_c, 0, 61, 63
1, 360242, Note_on_c, 0, 63, 64
1, 360273, Control_c, 0, 67, 71
1, 360288, Control_c, 0, 67, 71
1, 360303, Control_c, 0, 67, 72
1, 360306, Note_on_c, 0, 61, 66
1, 360310, Note_off_c, 0, 63, 65
1, 360318, Control_c, 0, 67, 74
1, 360332, Control_c, 0, 67, 76
1, 360342, Note_off_c, 0, 61, 65
1, 360347, Control_c, 0, 67, 82
1, 360362, Control_c, 0, 67, 100
1, 360377, Control_c, 0, 67, 122
1, 360391, Note_on_c, 0, 61, 66
1, 360392, Control_c, 0, 67, 127
1, 360456, Note_off_c, 0, 61, 63
1, 360464, Note_on_c, 0, 59, 59
1, 360495, Note_off_c, 0, 59, 64
1, 360524, Note_on_c, 0, 61, 51
1, 360587, Note_on_c, 0, 59, 60
1, 360593, Note_off_c, 0, 61, 62
1, 360634, Note_off_c, 0, 59, 61
1, 360690, Note_on_c, 0, 59, 60
1, 360738, Note_off_c, 0, 59, 63
1, 360751, Note_on_c, 0, 58, 68
1, 360780, Note_off_c, 0, 58, 67
1, 360849, Note_on_c, 0, 59, 34
1, 360885, Note_off_c, 0, 59, 50
1, 360918, Note_on_c, 0, 58, 47
1, 360941, Note_off_c, 0, 58, 63
1, 360989, Note_on_c, 0, 58, 55
1, 361028, Note_off_c, 0, 58, 64
1, 361044, Note_on_c, 0, 57, 62
1, 361095, Note_off_c, 0, 57, 60
1, 361145, Note_on_c, 0, 58, 49
1, 361188, Note_off_c, 0, 58, 63
1, 361209, Note_on_c, 0, 57, 49
1, 361245, Note_off_c, 0, 57, 62
1, 361303, Note_on_c, 0, 58, 56
1, 361358, Note_off_c, 0, 58, 61
1, 361378, Note_on_c, 0, 56, 47
1, 361407, Note_off_c, 0, 56, 59
1, 361471, Note_on_c, 0, 58, 51
1, 361519, Note_off_c, 0, 58, 61
1, 361533, Note_on_c, 0, 56, 43
1, 361576, Note_off_c, 0, 56, 60
1, 361635, Note_on_c, 0, 58, 59
1, 361690, Note_off_c, 0, 58, 59
1, 361707, Note_on_c, 0, 54, 36
1, 361739, Note_off_c, 0, 54, 54
1, 361787, Note_on_c, 0, 58, 40
1, 361836, Note_off_c, 0, 58, 46
1, 361853, Note_on_c, 0, 54, 49
1, 361898, Note_off_c, 0, 54, 59
1, 361949, Note_on_c, 0, 58, 48
1, 362031, Note_on_c, 0, 53, 45
1, 362045, Note_off_c, 0, 58, 60
1, 362062, Note_off_c, 0, 53, 59
1, 362160, Note_on_c, 0, 58, 24
1, 362202, Note_off_c, 0, 58, 50
1, 362227, Note_on_c, 0, 53, 46
1, 362284, Note_off_c, 0, 53, 62
1, 362353, Note_on_c, 0, 39, 79
1, 362357, Control_c, 0, 64, 62
1, 362372, Control_c, 0, 64, 74
1, 362386, Note_off_c, 0, 39, 68
1, 362387, Control_c, 0, 64, 89
1, 362401, Control_c, 0, 64, 105
1, 362401, Control_c, 0, 67, 124
1, 362416, Control_c, 0, 64, 114
1, 362416, Control_c, 0, 67, 105
1, 362431, Control_c, 0, 64, 117
1, 362431, Control_c, 0, 67, 89
1, 362446, Control_c, 0, 64, 119
1, 362446, Control_c, 0, 67, 71
1, 362461, Control_c, 0, 64, 119
1, 362461, Control_c, 0, 67, 51
1, 362475, Control_c, 0, 67, 27
1, 362490, Control_c, 0, 67, 0
1, 362667, Control_c, 0, 64, 120
1, 362679, Note_on_c, 0, 58, 48
1, 362682, Control_c, 0, 64, 121
1, 362697, Control_c, 0, 64, 123
1, 362712, Control_c, 0, 64, 127
1, 362726, Note_on_c, 0, 57, 17
1, 362763, Note_off_c, 0, 58, 59
1, 362779, Note_off_c, 0, 57, 44
1, 362783, Note_on_c, 0, 63, 48
1, 362814, Note_off_c, 0, 63, 66
1, 362916, Note_on_c, 0, 63, 55
1, 362925, Note_on_c, 0, 58, 55
1, 362971, Note_off_c, 0, 63, 58
1, 362983, Note_on_c, 0, 67, 62
1, 362986, Note_off_c, 0, 58, 59
1, 363017, Note_off_c, 0, 67, 64
1, 363084, Note_on_c, 0, 67, 65
1, 363095, Note_on_c, 0, 63, 58
1, 363126, Note_off_c, 0, 67, 63
1, 363146, Note_off_c, 0, 63, 54
1, 363148, Note_on_c, 0, 70, 67
1, 363175, Note_off_c, 0, 70, 67
1, 363228, Note_on_c, 0, 70, 81
1, 363234, Note_on_c, 0, 67, 77
1, 363276, Note_off_c, 0, 70, 60
1, 363281, Note_off_c, 0, 67, 60
1, 363297, Note_on_c, 0, 75, 79
1, 363327, Note_off_c, 0, 75, 67
1, 363370, Note_on_c, 0, 75, 83
1, 363375, Note_on_c, 0, 70, 88
1, 363436, Note_off_c, 0, 75, 63
1, 363441, Note_on_c, 0, 79, 80
1, 363459, Note_off_c, 0, 70, 60
1, 363484, Note_off_c, 0, 79, 59
1, 363516, Note_on_c, 0, 79, 85
1, 363528, Note_on_c, 0, 75, 93
1, 363576, Note_off_c, 0, 79, 60
1, 363580, Note_off_c, 0, 75, 67
1, 363591, Note_on_c, 0, 82, 80
1, 363620, Note_off_c, 0, 82, 67
1, 363657, Note_on_c, 0, 79, 99
1, 363665, Note_on_c, 0, 82, 93
1, 363708, Note_off_c, 0, 79, 65
1, 363733, Note_off_c, 0, 82, 62
1, 363737, Note_on_c, 0, 87, 77
1, 363775, Note_on_c, 0, 88, 48
1, 363788, Note_on_c, 0, 91, 107
1, 363793, Note_on_c, 0, 82, 90
1, 363805, Note_off_c, 0, 87, 63
1, 363811, Note_off_c, 0, 88, 64
1, 363812, Note_off_c, 0, 82, 69
1, 363823, Note_off_c, 0, 91, 66
1, 363957, Note_on_c, 0, 66, 71
1, 363977, Note_on_c, 0, 51, 53
1, 364002, Control_c, 0, 64, 118
1, 364017, Control_c, 0, 64, 98
1, 364025, Note_off_c, 0, 66, 60
1, 364032, Control_c, 0, 64, 81
1, 364047, Control_c, 0, 64, 62
1, 364048, Note_on_c, 0, 70, 53
1, 364062, Control_c, 0, 64, 0
1, 364095, Note_off_c, 0, 70, 45
1, 364107, Note_off_c, 0, 51, 53
1, 364131, Note_on_c, 0, 63, 53
1, 364145, Note_on_c, 0, 54, 44
1, 364188, Note_off_c, 0, 63, 57
1, 364200, Note_on_c, 0, 70, 54
1, 364247, Note_off_c, 0, 70, 57
1, 364275, Note_on_c, 0, 66, 54
1, 364283, Note_off_c, 0, 54, 52
1, 364285, Note_on_c, 0, 51, 42
1, 364324, Note_off_c, 0, 66, 60
1, 364364, Note_on_c, 0, 70, 49
1, 364408, Note_off_c, 0, 51, 54
1, 364412, Note_off_c, 0, 70, 58
1, 364433, Note_on_c, 0, 54, 44
1, 364455, Note_on_c, 0, 63, 48
1, 364513, Note_off_c, 0, 63, 57
1, 364530, Note_on_c, 0, 70, 50
1, 364561, Note_off_c, 0, 54, 58
1, 364574, Note_off_c, 0, 70, 60
1, 364586, Note_on_c, 0, 51, 28
1, 364595, Note_on_c, 0, 66, 46
1, 364643, Note_off_c, 0, 66, 57
1, 364676, Note_on_c, 0, 70, 51
1, 364735, Note_off_c, 0, 70, 53
1, 364760, Note_on_c, 0, 68, 47
1, 364762, Note_off_c, 0, 51, 40
1, 364768, Note_on_c, 0, 46, 43
1, 364780, Note_on_c, 0, 53, 43
1, 364827, Note_off_c, 0, 68, 49
1, 364846, Note_on_c, 0, 70, 43
1, 364887, Note_off_c, 0, 70, 53
1, 364918, Note_off_c, 0, 53, 27
1, 364923, Note_on_c, 0, 65, 41
1, 364932, Note_off_c, 0, 46, 30
1, 364955, Note_on_c, 0, 50, 29
1, 364991, Note_off_c, 0, 50, 31
1, 364998, Note_off_c, 0, 65, 41
1, 365000, Note_on_c, 0, 70, 53
1, 365061, Note_off_c, 0, 70, 49
1, 365142, Note_on_c, 0, 39, 83
1, 365159, Control_c, 0, 64, 70
1, 365174, Control_c, 0, 64, 91
1, 365189, Control_c, 0, 64, 127
1, 365190, Note_off_c, 0, 39, 65
1, 365419, Note_on_c, 0, 58, 48
1, 365492, Note_off_c, 0, 58, 64
1, 365505, Note_on_c, 0, 63, 51
1, 365530, Note_off_c, 0, 63, 63
1, 365621, Note_on_c, 0, 63, 49
1, 365627, Note_on_c, 0, 58, 57
1, 365663, Note_off_c, 0, 63, 59
1, 365676, Note_on_c, 0, 67, 66
1, 365683, Note_off_c, 0, 58, 54
1, 365705, Note_off_c, 0, 67, 65
1, 365774, Note_on_c, 0, 63, 60
1, 365774, Note_on_c, 0, 67, 63
1, 365817, Note_off_c, 0, 67, 57
1, 365849, Note_on_c, 0, 70, 65
1, 365866, Note_off_c, 0, 63, 62
1, 365883, Note_off_c, 0, 70, 66
1, 365928, Note_on_c, 0, 67, 80
1, 365937, Note_on_c, 0, 70, 73
1, 365965, Note_off_c, 0, 70, 66
1, 365981, Note_off_c, 0, 67, 60
1, 366024, Note_on_c, 0, 75, 24
1, 366032, Note_on_c, 0, 76, 43
1, 366056, Note_off_c, 0, 76, 37
1, 366061, Note_off_c, 0, 75, 0
1, 366068, Note_on_c, 0, 70, 91
1, 366074, Note_on_c, 0, 75, 66
1, 366104, Note_on_c, 0, 71, 55
1, 366129, Note_off_c, 0, 71, 52
1, 366138, Note_off_c, 0, 75, 64
1, 366148, Note_on_c, 0, 79, 73
1, 366149, Note_off_c, 0, 70, 56
1, 366183, Note_off_c, 0, 79, 60
1, 366195, Note_on_c, 0, 81, 11
1, 366220, Note_on_c, 0, 79, 89
1, 366229, Note_on_c, 0, 75, 97
1, 366241, Note_off_c, 0, 81, 34
1, 366273, Note_off_c, 0, 79, 65
1, 366292, Note_on_c, 0, 82, 81
1, 366311, Note_off_c, 0, 82, 70
1, 366315, Note_off_c, 0, 75, 58
1, 366357, Note_on_c, 0, 79, 99
1, 366360, Note_on_c, 0, 82, 92
1, 366409, Note_off_c, 0, 79, 65
1, 366428, Note_on_c, 0, 87, 83
1, 366428, Note_off_c, 0, 82, 60
1, 366487, Note_on_c, 0, 91, 101
1, 366494, Note_on_c, 0, 82, 90
1, 366494, Note_off_c, 0, 87, 61
1, 366510, Note_off_c, 0, 82, 74
1, 366520, Note_off_c, 0, 91, 65
1, 366535, Note_on_c, 0, 80, 28
1, 366536, Note_off_c, 0, 80, 127
1, 366641, Control_c, 0, 67, 8
1, 366656, Control_c, 0, 67, 21
1, 366659, Note_on_c, 0, 66, 78
1, 366671, Control_c, 0, 67, 44
1, 366682, Note_on_c, 0, 51, 65
1, 366686, Control_c, 0, 67, 73
1, 366701, Control_c, 0, 64, 106
1, 366701, Control_c, 0, 67, 103
1, 366715, Note_off_c, 0, 66, 57
1, 366715, Control_c, 0, 64, 87
1, 366715, Control_c, 0, 67, 126
1, 366730, Control_c, 0, 64, 63
1, 366730, Control_c, 0, 67, 127
1, 366736, Note_on_c, 0, 70, 63
1, 366745, Control_c, 0, 64, 0
1, 366802, Note_off_c, 0, 70, 60
1, 366807, Note_off_c, 0, 51, 58
1, 366817, Note_on_c, 0, 63, 65
1, 366837, Note_on_c, 0, 54, 54
1, 366878, Note_off_c, 0, 63, 53
1, 366905, Note_on_c, 0, 70, 54
1, 366941, Note_off_c, 0, 70, 59
1, 366965, Note_off_c, 0, 54, 53
1, 366968, Note_on_c, 0, 66, 57
1, 366984, Note_on_c, 0, 51, 45
1, 367018, Note_off_c, 0, 66, 59
1, 367037, Note_on_c, 0, 70, 58
1, 367111, Note_off_c, 0, 70, 59
1, 367115, Note_off_c, 0, 51, 45
1, 367132, Note_on_c, 0, 63, 51
1, 367133, Note_on_c, 0, 54, 43
1, 367195, Note_off_c, 0, 63, 57
1, 367212, Note_on_c, 0, 70, 40
1, 367257, Note_off_c, 0, 70, 50
1, 367279, Note_on_c, 0, 66, 51
1, 367282, Note_off_c, 0, 54, 49
1, 367296, Note_on_c, 0, 51, 33
1, 367326, Note_off_c, 0, 66, 62
1, 367373, Note_on_c, 0, 70, 53
1, 367417, Note_off_c, 0, 70, 56
1, 367454, Note_on_c, 0, 68, 49
1, 367472, Note_on_c, 0, 46, 36
1, 367473, Note_off_c, 0, 51, 42
1, 367484, Note_on_c, 0, 53, 38
1, 367517, Note_off_c, 0, 68, 55
1, 367542, Note_on_c, 0, 70, 50
1, 367584, Note_off_c, 0, 70, 60
1, 367606, Note_off_c, 0, 53, 36
1, 367620, Note_on_c, 0, 65, 44
1, 367644, Note_on_c, 0, 50, 45
1, 367681, Note_off_c, 0, 65, 41
1, 367687, Note_on_c, 0, 70, 53
1, 367694, Note_off_c, 0, 46, 37
1, 367780, Note_off_c, 0, 70, 52
1, 367789, Note_on_c, 0, 63, 54
1, 367799, Note_off_c, 0, 50, 42
1, 367815, Note_on_c, 0, 51, 45
1, 367859, Note_off_c, 0, 51, 60
1, 367862, Note_off_c, 0, 63, 62
1, 367893, Note_on_c, 0, 66, 12
1, 367928, Note_off_c, 0, 66, 0
1, 367958, Note_on_c, 0, 66, 37
1, 367976, Note_on_c, 0, 51, 55
1, 367999, Control_c, 0, 64, 59
1, 368013, Control_c, 0, 64, 64
1, 368028, Control_c, 0, 64, 66
1, 368043, Control_c, 0, 64, 68
1, 368045, Note_off_c, 0, 66, 62
1, 368058, Control_c, 0, 64, 69
1, 368060, Note_on_c, 0, 75, 54
1, 368073, Control_c, 0, 64, 71
1, 368087, Control_c, 0, 64, 71
1, 368089, Note_off_c, 0, 51, 60
1, 368125, Control_c, 0, 64, 70
1, 368132, Note_off_c, 0, 75, 64
1, 368139, Control_c, 0, 64, 66
1, 368142, Note_on_c, 0, 65, 59
1, 368144, Note_on_c, 0, 58, 63
1, 368154, Control_c, 0, 64, 53
1, 368169, Control_c, 0, 64, 0
1, 368200, Note_off_c, 0, 65, 62
1, 368221, Note_on_c, 0, 74, 54
1, 368247, Note_off_c, 0, 74, 60
1, 368291, Note_on_c, 0, 74, 60
1, 368292, Note_on_c, 0, 46, 72
1, 368298, Note_off_c, 0, 58, 64
1, 368361, Control_c, 0, 64, 60
1, 368362, Note_on_c, 0, 77, 70
1, 368362, Note_off_c, 0, 74, 65
1, 368376, Control_c, 0, 64, 67
1, 368391, Control_c, 0, 64, 72
1, 368406, Control_c, 0, 64, 78
1, 368417, Note_off_c, 0, 46, 63
1, 368419, Note_off_c, 0, 77, 61
1, 368420, Control_c, 0, 64, 82
1, 368450, Note_on_c, 0, 66, 74
1, 368451, Note_on_c, 0, 51, 73
1, 368480, Control_c, 0, 64, 80
1, 368496, Control_c, 0, 64, 75
1, 368510, Control_c, 0, 64, 64
1, 368512, Note_off_c, 0, 66, 63
1, 368515, Note_on_c, 0, 75, 73
1, 368525, Control_c, 0, 64, 0
1, 368540, Note_off_c, 0, 75, 67
1, 368581, Note_off_c, 0, 51, 56
1, 368596, Note_on_c, 0, 39, 75
1, 368596, Note_on_c, 0, 75, 75
1, 368661, Note_on_c, 0, 78, 79
1, 368672, Note_off_c, 0, 75, 59
1, 368674, Control_c, 0, 64, 61
1, 368689, Control_c, 0, 64, 68
1, 368704, Control_c, 0, 64, 73
1, 368718, Control_c, 0, 64, 78
1, 368723, Note_off_c, 0, 39, 61
1, 368733, Control_c, 0, 64, 80
1, 368743, Note_on_c, 0, 46, 86
1, 368748, Control_c, 0, 64, 81
1, 368751, Note_on_c, 0, 74, 62
1, 368758, Note_off_c, 0, 78, 61
1, 368763, Control_c, 0, 67, 124
1, 368778, Control_c, 0, 67, 107
1, 368793, Control_c, 0, 64, 81
1, 368793, Control_c, 0, 67, 83
1, 368803, Note_on_c, 0, 77, 73
1, 368807, Control_c, 0, 64, 79
1, 368807, Control_c, 0, 67, 52
1, 368815, Note_off_c, 0, 74, 64
1, 368822, Control_c, 0, 64, 72
1, 368822, Control_c, 0, 67, 27
1, 368837, Control_c, 0, 64, 47
1, 368837, Control_c, 0, 67, 0
1, 368837, Note_off_c, 0, 77, 60
1, 368852, Control_c, 0, 64, 0
1, 368898, Note_off_c, 0, 46, 50
1, 368902, Note_on_c, 0, 77, 68
1, 368916, Note_on_c, 0, 34, 68
1, 368956, Note_off_c, 0, 34, 67
1, 368963, Note_on_c, 0, 80, 74
1, 368975, Note_off_c, 0, 77, 58
1, 369028, Note_off_c, 0, 80, 64
1, 369057, Note_on_c, 0, 66, 71
1, 369076, Note_on_c, 0, 51, 55
1, 369100, Note_off_c, 0, 66, 64
1, 369116, Note_off_c, 0, 51, 61
1, 369133, Note_on_c, 0, 75, 63
1, 369165, Note_off_c, 0, 75, 61
1, 369208, Note_on_c, 0, 75, 51
1, 369209, Note_on_c, 0, 51, 73
1, 369259, Control_c, 0, 64, 44
1, 369274, Control_c, 0, 64, 63
1, 369278, Note_on_c, 0, 78, 68
1, 369290, Control_c, 0, 64, 67
1, 369296, Note_off_c, 0, 75, 60
1, 369305, Control_c, 0, 64, 70
1, 369320, Control_c, 0, 64, 75
1, 369334, Control_c, 0, 64, 79
1, 369337, Note_off_c, 0, 51, 62
1, 369349, Control_c, 0, 64, 82
1, 369355, Note_on_c, 0, 74, 74
1, 369361, Note_on_c, 0, 58, 83
1, 369364, Control_c, 0, 64, 83
1, 369379, Note_off_c, 0, 78, 58
1, 369379, Control_c, 0, 64, 84
1, 369393, Control_c, 0, 64, 85
1, 369427, Note_on_c, 0, 77, 60
1, 369427, Note_off_c, 0, 74, 65
1, 369453, Control_c, 0, 64, 83
1, 369454, Note_off_c, 0, 77, 53
1, 369467, Control_c, 0, 64, 79
1, 369482, Control_c, 0, 64, 71
1, 369497, Control_c, 0, 64, 44
1, 369503, Note_off_c, 0, 58, 63
1, 369505, Note_on_c, 0, 77, 82
1, 369511, Note_on_c, 0, 46, 84
1, 369512, Control_c, 0, 64, 0
1, 369574, Note_on_c, 0, 80, 81
1, 369585, Control_c, 0, 64, 58
1, 369589, Note_off_c, 0, 77, 60
1, 369600, Control_c, 0, 64, 70
1, 369623, Control_c, 0, 64, 76
1, 369627, Note_off_c, 0, 46, 58
1, 369637, Note_off_c, 0, 80, 66
1, 369638, Control_c, 0, 64, 82
1, 369653, Control_c, 0, 64, 84
1, 369668, Note_on_c, 0, 51, 84
1, 369669, Note_on_c, 0, 75, 91
1, 369712, Control_c, 0, 64, 82
1, 369727, Control_c, 0, 64, 75
1, 369731, Note_off_c, 0, 75, 63
1, 369740, Note_on_c, 0, 78, 73
1, 369741, Control_c, 0, 64, 61
1, 369756, Control_c, 0, 64, 0
1, 369758, Note_off_c, 0, 78, 67
1, 369791, Note_off_c, 0, 51, 58
1, 369808, Note_on_c, 0, 78, 98
1, 369809, Note_on_c, 0, 39, 89
1, 369815, Control_c, 0, 64, 60
1, 369830, Control_c, 0, 64, 70
1, 369845, Control_c, 0, 64, 78
1, 369860, Control_c, 0, 64, 84
1, 369865, Note_off_c, 0, 78, 62
1, 369871, Note_on_c, 0, 87, 89
1, 369875, Control_c, 0, 64, 85
1, 369904, Control_c, 0, 64, 85
1, 369919, Control_c, 0, 64, 82
1, 369930, Note_off_c, 0, 39, 55
1, 369934, Control_c, 0, 64, 72
1, 369945, Note_off_c, 0, 87, 62
1, 369949, Control_c, 0, 64, 18
1, 369952, Note_on_c, 0, 77, 88
1, 369958, Note_on_c, 0, 46, 95
1, 369964, Control_c, 0, 64, 0
1, 370012, Note_off_c, 0, 77, 59
1, 370031, Note_on_c, 0, 86, 83
1, 370038, Control_c, 0, 64, 49
1, 370051, Control_c, 0, 64, 68
1, 370066, Control_c, 0, 64, 77
1, 370071, Note_off_c, 0, 86, 63
1, 370082, Control_c, 0, 64, 86
1, 370097, Control_c, 0, 64, 89
1, 370098, Note_off_c, 0, 46, 58
1, 370110, Note_on_c, 0, 34, 84
1, 370112, Control_c, 0, 64, 89
1, 370114, Note_on_c, 0, 86, 71
1, 370127, Control_c, 0, 64, 90
1, 370142, Control_c, 0, 64, 90
1, 370149, Note_on_c, 0, 89, 88
1, 370150, Note_off_c, 0, 34, 65
1, 370167, Note_off_c, 0, 86, 65
1, 370171, Control_c, 0, 67, 12
1, 370182, Note_off_c, 0, 89, 64
1, 370186, Control_c, 0, 67, 23
1, 370201, Control_c, 0, 67, 44
1, 370215, Control_c, 0, 67, 68
1, 370230, Control_c, 0, 64, 89
1, 370230, Control_c, 0, 67, 94
1, 370245, Control_c, 0, 64, 85
1, 370245, Control_c, 0, 67, 112
1, 370260, Control_c, 0, 64, 73
1, 370260, Control_c, 0, 67, 127
1, 370275, Control_c, 0, 64, 0
1, 370275, Control_c, 0, 67, 127
1, 370277, Note_on_c, 0, 51, 59
1, 370324, Note_off_c, 0, 51, 58
1, 370340, Note_on_c, 0, 66, 62
1, 370386, Note_off_c, 0, 66, 66
1, 370438, Note_on_c, 0, 66, 59
1, 370439, Note_on_c, 0, 51, 58
1, 370498, Note_off_c, 0, 66, 63
1, 370500, Note_on_c, 0, 75, 59
1, 370534, Note_off_c, 0, 51, 61
1, 370571, Note_off_c, 0, 75, 63
1, 370588, Note_on_c, 0, 65, 63
1, 370591, Note_on_c, 0, 58, 60
1, 370593, Control_c, 0, 64, 56
1, 370608, Control_c, 0, 64, 62
1, 370623, Control_c, 0, 64, 64
1, 370638, Control_c, 0, 64, 65
1, 370644, Note_off_c, 0, 65, 60
1, 370653, Control_c, 0, 64, 65
1, 370659, Note_on_c, 0, 74, 59
1, 370667, Control_c, 0, 64, 66
1, 370686, Note_off_c, 0, 74, 67
1, 370697, Control_c, 0, 64, 65
1, 370712, Control_c, 0, 64, 64
1, 370727, Control_c, 0, 64, 59
1, 370727, Control_c, 0, 67, 121
1, 370728, Note_off_c, 0, 58, 59
1, 370730, Note_on_c, 0, 74, 56
1, 370741, Control_c, 0, 64, 0
1, 370741, Control_c, 0, 67, 109
1, 370751, Note_on_c, 0, 46, 68
1, 370756, Control_c, 0, 67, 100
1, 370771, Control_c, 0, 67, 88
1, 370786, Control_c, 0, 67, 76
1, 370800, Control_c, 0, 67, 64
1, 370807, Note_on_c, 0, 77, 73
1, 370814, Control_c, 0, 67, 51
1, 370817, Note_off_c, 0, 74, 64
1, 370829, Control_c, 0, 64, 60
1, 370829, Control_c, 0, 67, 13
1, 370844, Control_c, 0, 64, 68
1, 370844, Control_c, 0, 67, 0
1, 370852, Note_off_c, 0, 46, 63
1, 370859, Control_c, 0, 64, 73
1, 370864, Note_off_c, 0, 77, 61
1, 370875, Control_c, 0, 64, 79
1, 370890, Note_on_c, 0, 66, 78
1, 370890, Control_c, 0, 64, 81
1, 370898, Note_on_c, 0, 51, 77
1, 370904, Control_c, 0, 64, 81
1, 370945, Note_off_c, 0, 66, 64
1, 370960, Note_on_c, 0, 75, 79
1, 370963, Control_c, 0, 64, 80
1, 370978, Control_c, 0, 64, 76
1, 370986, Note_off_c, 0, 75, 63
1, 370993, Control_c, 0, 64, 66
1, 371008, Control_c, 0, 64, 0
1, 371035, Note_on_c, 0, 39, 80
1, 371037, Note_on_c, 0, 75, 70
1, 371037, Note_off_c, 0, 51, 52
1, 371110, Note_on_c, 0, 78, 81
1, 371126, Note_off_c, 0, 75, 55
1, 371149, Control_c, 0, 64, 35
1, 371161, Note_off_c, 0, 39, 62
1, 371163, Control_c, 0, 64, 65
1, 371177, Note_on_c, 0, 46, 85
1, 371178, Control_c, 0, 64, 71
1, 371187, Note_on_c, 0, 74, 74
1, 371193, Control_c, 0, 64, 76
1, 371208, Control_c, 0, 64, 81
1, 371223, Control_c, 0, 64, 82
1, 371229, Note_off_c, 0, 78, 59
1, 371230, Note_on_c, 0, 44, 15
1, 371237, Control_c, 0, 64, 84
1, 371248, Note_on_c, 0, 77, 75
1, 371250, Note_off_c, 0, 74, 66
1, 371252, Control_c, 0, 64, 84
1, 371267, Control_c, 0, 64, 85
1, 371274, Note_off_c, 0, 44, 38
1, 371282, Control_c, 0, 64, 86
1, 371288, Note_off_c, 0, 77, 60
1, 371297, Control_c, 0, 64, 86
1, 371311, Control_c, 0, 64, 87
1, 371328, Note_on_c, 0, 77, 80
1, 371332, Note_on_c, 0, 34, 76
1, 371341, Control_c, 0, 64, 87
1, 371349, Note_off_c, 0, 46, 62
1, 371365, Note_off_c, 0, 34, 68
1, 371371, Control_c, 0, 64, 87
1, 371386, Control_c, 0, 64, 84
1, 371389, Note_on_c, 0, 80, 80
1, 371401, Control_c, 0, 64, 77
1, 371416, Control_c, 0, 64, 63
1, 371424, Note_off_c, 0, 77, 59
1, 371430, Control_c, 0, 64, 0
1, 371457, Note_off_c, 0, 80, 65
1, 371481, Note_on_c, 0, 66, 76
1, 371520, Note_off_c, 0, 66, 67
1, 371555, Note_on_c, 0, 75, 67
1, 371558, Note_on_c, 0, 52, 3
1, 371559, Note_off_c, 0, 52, 127
1, 371584, Note_off_c, 0, 75, 66
1, 371648, Note_on_c, 0, 75, 62
1, 371657, Note_on_c, 0, 51, 59
1, 371717, Note_on_c, 0, 78, 70
1, 371726, Note_off_c, 0, 75, 59
1, 371768, Note_off_c, 0, 51, 56
1, 371787, Control_c, 0, 64, 59
1, 371802, Control_c, 0, 64, 64
1, 371807, Note_on_c, 0, 74, 61
1, 371815, Note_on_c, 0, 58, 73
1, 371817, Note_off_c, 0, 78, 56
1, 371817, Control_c, 0, 64, 66
1, 371832, Control_c, 0, 64, 69
1, 371854, Control_c, 0, 64, 73
1, 371865, Note_off_c, 0, 74, 66
1, 371869, Control_c, 0, 64, 77
1, 371875, Note_on_c, 0, 77, 66
1, 371884, Control_c, 0, 64, 80
1, 371899, Control_c, 0, 64, 80
1, 371906, Note_off_c, 0, 77, 62
1, 371914, Control_c, 0, 64, 81
1, 371943, Control_c, 0, 64, 81
1, 371952, Note_on_c, 0, 77, 56
1, 371964, Note_off_c, 0, 58, 59
1, 371973, Control_c, 0, 64, 82
1, 371975, Note_on_c, 0, 46, 78
1, 371987, Control_c, 0, 64, 82
1, 372030, Note_on_c, 0, 80, 82
1, 372033, Note_off_c, 0, 77, 62
1, 372063, Note_off_c, 0, 80, 67
1, 372089, Note_off_c, 0, 46, 61
1, 372113, Note_on_c, 0, 75, 85
1, 372120, Control_c, 0, 64, 79
1, 372121, Note_on_c, 0, 51, 91
1, 372135, Control_c, 0, 64, 71
1, 372150, Control_c, 0, 64, 47
1, 372165, Control_c, 0, 64, 0
1, 372188, Note_off_c, 0, 75, 63
1, 372190, Note_on_c, 0, 78, 82
1, 372224, Control_c, 0, 64, 61
1, 372227, Note_off_c, 0, 78, 63
1, 372239, Control_c, 0, 64, 66
1, 372253, Control_c, 0, 64, 71
1, 372268, Control_c, 0, 64, 76
1, 372273, Note_on_c, 0, 39, 89
1, 372275, Note_on_c, 0, 78, 85
1, 372283, Control_c, 0, 64, 81
1, 372298, Control_c, 0, 64, 82
1, 372312, Control_c, 0, 64, 83
1, 372316, Note_off_c, 0, 51, 59
1, 372340, Note_on_c, 0, 87, 81
1, 372342, Control_c, 0, 64, 83
1, 372349, Note_off_c, 0, 78, 63
1, 372372, Control_c, 0, 64, 84
1, 372416, Control_c, 0, 64, 83
1, 372429, Note_on_c, 0, 76, 92
1, 372431, Control_c, 0, 64, 81
1, 372432, Note_on_c, 0, 49, 103
1, 372446, Control_c, 0, 64, 73
1, 372449, Note_off_c, 0, 87, 63
1, 372456, Note_off_c, 0, 39, 62
1, 372460, Control_c, 0, 64, 46
1, 372476, Control_c, 0, 64, 0
1, 372519, Note_on_c, 0, 78, 82
1, 372535, Control_c, 0, 64, 58
1, 372537, Note_off_c, 0, 76, 63
1, 372544, Note_off_c, 0, 78, 62
1, 372550, Control_c, 0, 64, 67
1, 372565, Control_c, 0, 64, 73
1, 372580, Control_c, 0, 64, 79
1, 372601, Note_on_c, 0, 37, 91
1, 372602, Control_c, 0, 64, 83
1, 372606, Note_on_c, 0, 78, 92
1, 372617, Control_c, 0, 64, 84
1, 372632, Control_c, 0, 64, 84
1, 372644, Note_off_c, 0, 49, 61
1, 372671, Note_on_c, 0, 88, 85
1, 372678, Note_off_c, 0, 78, 66
1, 372716, Poly_aftertouch_c, 0, 36, 127
1, 372753, Note_off_c, 0, 88, 49
1, 372763, Note_on_c, 0, 47, 109
1, 372763, Note_on_c, 0, 75, 105
1, 372765, Control_c, 0, 64, 80
1, 372780, Control_c, 0, 64, 70
1, 372791, Note_off_c, 0, 37, 65
1, 372795, Control_c, 0, 64, 0
1, 372805, Poly_aftertouch_c, 0, 36, 0
1, 372851, Note_on_c, 0, 78, 86
1, 372854, Control_c, 0, 64, 43
1, 372855, Note_off_c, 0, 75, 65
1, 372869, Control_c, 0, 64, 65
1, 372883, Control_c, 0, 64, 71
1, 372898, Control_c, 0, 64, 77
1, 372913, Control_c, 0, 64, 82
1, 372927, Control_c, 0, 64, 83
1, 372938, Note_on_c, 0, 35, 90
1, 372945, Note_on_c, 0, 83, 86
1, 372949, Note_off_c, 0, 78, 62
1, 372983, Note_off_c, 0, 47, 57
1, 373005, Note_on_c, 0, 87, 83
1, 373022, Note_off_c, 0, 83, 59
1, 373031, Control_c, 0, 64, 79
1, 373034, Poly_aftertouch_c, 0, 36, 127
1, 373046, Control_c, 0, 64, 65
1, 373061, Control_c, 0, 64, 0
1, 373083, Poly_aftertouch_c, 0, 36, 0
1, 373096, Note_on_c, 0, 83, 89
1, 373107, Note_off_c, 0, 87, 61
1, 373113, Note_on_c, 0, 47, 102
1, 373121, Control_c, 0, 64, 50
1, 373135, Control_c, 0, 64, 70
1, 373138, Note_off_c, 0, 35, 62
1, 373150, Control_c, 0, 64, 80
1, 373165, Control_c, 0, 64, 87
1, 373180, Control_c, 0, 64, 89
1, 373191, Poly_aftertouch_c, 0, 38, 127
1, 373196, Note_on_c, 0, 87, 86
1, 373204, Note_off_c, 0, 83, 60
1, 373236, Poly_aftertouch_c, 0, 38, 0
1, 373273, Note_off_c, 0, 47, 56
1, 373281, Note_on_c, 0, 35, 78
1, 373282, Note_on_c, 0, 83, 87
1, 373288, Note_off_c, 0, 87, 63
1, 373299, Control_c, 0, 64, 88
1, 373314, Control_c, 0, 64, 85
1, 373329, Control_c, 0, 64, 77
1, 373333, Note_off_c, 0, 35, 63
1, 373340, Note_on_c, 0, 87, 72
1, 373344, Control_c, 0, 64, 66
1, 373359, Note_off_c, 0, 83, 59
1, 373365, Control_c, 0, 64, 0
1, 373405, Note_off_c, 0, 87, 65
1, 373480, Note_on_c, 0, 83, 99
1, 373481, Note_on_c, 0, 86, 99
1, 373481, Note_on_c, 0, 89, 93
1, 373483, Note_on_c, 0, 77, 98
1, 373485, Note_on_c, 0, 43, 100
1, 373492, Note_on_c, 0, 31, 88
1, 373618, Control_c, 0, 64, 61
1, 373632, Control_c, 0, 64, 74
1, 373647, Control_c, 0, 64, 88
1, 373662, Control_c, 0, 64, 101
1, 373677, Control_c, 0, 64, 106
1, 373679, Note_off_c, 0, 89, 65
1, 373692, Control_c, 0, 64, 108
1, 373702, Note_off_c, 0, 77, 56
1, 373703, Note_off_c, 0, 83, 59
1, 373705, Note_off_c, 0, 86, 62
1, 373706, Control_c, 0, 64, 110
1, 373721, Control_c, 0, 64, 113
1, 373736, Control_c, 0, 64, 115
1, 373750, Control_c, 0, 64, 115
1, 373795, Control_c, 0, 64, 115
1, 373807, Note_off_c, 0, 31, 63
1, 373820, Note_off_c, 0, 43, 62
1, 373824, Control_c, 0, 64, 110
1, 373839, Control_c, 0, 64, 95
1, 373854, Control_c, 0, 64, 73
1, 373869, Control_c, 0, 64, 0
1, 374049, Note_on_c, 0, 58, 69
1, 374119, Note_off_c, 0, 58, 61
1, 374124, Note_on_c, 0, 59, 86
1, 374185, Note_off_c, 0, 59, 64
1, 374218, Note_on_c, 0, 58, 87
1, 374287, Note_on_c, 0, 59, 84
1, 374296, Note_off_c, 0, 58, 65
1, 374330, Note_off_c, 0, 59, 65
1, 374370, Note_on_c, 0, 61, 72
1, 374426, Note_off_c, 0, 61, 65
1, 374453, Note_on_c, 0, 62, 78
1, 374493, Note_off_c, 0, 62, 61
1, 374527, Note_on_c, 0, 61, 78
1, 374529, Control_c, 0, 67, 8
1, 374544, Control_c, 0, 67, 8
1, 374559, Control_c, 0, 67, 9
1, 374573, Control_c, 0, 67, 10
1, 374591, Note_on_c, 0, 62, 74
1, 374599, Note_off_c, 0, 61, 63
1, 374633, Control_c, 0, 67, 10
1, 374636, Note_off_c, 0, 62, 62
1, 374662, Control_c, 0, 67, 9
1, 374676, Note_on_c, 0, 64, 69
1, 374736, Control_c, 0, 67, 9
1, 374743, Note_off_c, 0, 64, 64
1, 374745, Note_on_c, 0, 65, 73
1, 374751, Control_c, 0, 67, 8
1, 374766, Control_c, 0, 67, 8
1, 374775, Note_off_c, 0, 65, 67
1, 374811, Control_c, 0, 67, 0
1, 374820, Note_on_c, 0, 64, 71
1, 374826, Control_c, 0, 67, 8
1, 374862, Control_c, 0, 67, 8
1, 374893, Control_c, 0, 67, 9
1, 374899, Note_on_c, 0, 65, 71
1, 374906, Note_off_c, 0, 64, 66
1, 374908, Control_c, 0, 67, 10
1, 374923, Control_c, 0, 67, 10
1, 374937, Control_c, 0, 67, 11
1, 374945, Note_off_c, 0, 65, 64
1, 374952, Control_c, 0, 67, 11
1, 374970, Note_on_c, 0, 70, 69
1, 374982, Control_c, 0, 67, 12
1, 374997, Control_c, 0, 67, 14
1, 375011, Control_c, 0, 67, 17
1, 375015, Note_off_c, 0, 70, 65
1, 375026, Control_c, 0, 67, 19
1, 375039, Note_on_c, 0, 71, 71
1, 375041, Control_c, 0, 67, 21
1, 375056, Control_c, 0, 67, 23
1, 375070, Note_off_c, 0, 71, 61
1, 375071, Control_c, 0, 67, 25
1, 375085, Control_c, 0, 67, 28
1, 375100, Control_c, 0, 67, 30
1, 375115, Control_c, 0, 67, 33
1, 375122, Note_on_c, 0, 70, 77
1, 375130, Control_c, 0, 67, 34
1, 375145, Control_c, 0, 67, 35
1, 375160, Control_c, 0, 67, 36
1, 375190, Control_c, 0, 67, 36
1, 375199, Note_on_c, 0, 71, 67
1, 375204, Note_off_c, 0, 70, 62
1, 375219, Control_c, 0, 67, 37
1, 375246, Note_off_c, 0, 71, 61
1, 375263, Note_on_c, 0, 73, 65
1, 375264, Control_c, 0, 67, 37
1, 375294, Control_c, 0, 67, 38
1, 375309, Control_c, 0, 67, 39
1, 375312, Note_off_c, 0, 73, 64
1, 375337, Note_on_c, 0, 74, 67
1, 375353, Control_c, 0, 67, 38
1, 375362, Note_off_c, 0, 74, 69
1, 375409, Note_on_c, 0, 73, 72
1, 375427, Control_c, 0, 67, 38
1, 375472, Note_on_c, 0, 74, 68
1, 375494, Note_off_c, 0, 73, 64
1, 375529, Note_off_c, 0, 74, 64
1, 375545, Note_on_c, 0, 76, 73
1, 375560, Control_c, 0, 67, 37
1, 375597, Control_c, 0, 67, 37
1, 375612, Control_c, 0, 67, 36
1, 375617, Note_off_c, 0, 76, 65
1, 375625, Note_on_c, 0, 77, 72
1, 375627, Control_c, 0, 67, 36
1, 375642, Control_c, 0, 67, 35
1, 375648, Note_off_c, 0, 77, 68
1, 375657, Control_c, 0, 67, 34
1, 375672, Control_c, 0, 67, 34
1, 375687, Control_c, 0, 67, 33
1, 375702, Control_c, 0, 67, 32
1, 375708, Note_on_c, 0, 76, 72
1, 375717, Control_c, 0, 67, 31
1, 375732, Control_c, 0, 67, 31
1, 375747, Control_c, 0, 67, 30
1, 375761, Control_c, 0, 67, 31
1, 375776, Control_c, 0, 67, 31
1, 375777, Note_on_c, 0, 77, 68
1, 375789, Note_off_c, 0, 76, 65
1, 375791, Control_c, 0, 67, 32
1, 375806, Control_c, 0, 67, 33
1, 375821, Control_c, 0, 67, 34
1, 375833, Note_off_c, 0, 77, 61
1, 375835, Control_c, 0, 67, 34
1, 375838, Note_on_c, 0, 82, 69
1, 375850, Control_c, 0, 67, 35
1, 375865, Control_c, 0, 67, 36
1, 375866, Note_off_c, 0, 82, 62
1, 375895, Control_c, 0, 67, 37
1, 375905, Note_on_c, 0, 83, 70
1, 375936, Note_off_c, 0, 83, 60
1, 375939, Control_c, 0, 67, 37
1, 375982, Note_on_c, 0, 82, 64
1, 376027, Control_c, 0, 67, 38
1, 376042, Control_c, 0, 67, 39
1, 376054, Note_on_c, 0, 83, 60
1, 376057, Control_c, 0, 67, 39
1, 376060, Note_off_c, 0, 82, 63
1, 376072, Control_c, 0, 67, 40
1, 376087, Note_off_c, 0, 83, 61
1, 376087, Control_c, 0, 67, 41
1, 376102, Control_c, 0, 67, 51
1, 376111, Note_on_c, 0, 85, 68
1, 376117, Control_c, 0, 67, 65
1, 376131, Control_c, 0, 67, 80
1, 376146, Control_c, 0, 67, 94
1, 376161, Control_c, 0, 67, 107
1, 376164, Note_off_c, 0, 85, 64
1, 376176, Control_c, 0, 67, 117
1, 376188, Note_on_c, 0, 86, 57
1, 376191, Control_c, 0, 67, 127
1, 376210, Note_off_c, 0, 86, 61
1, 376270, Note_on_c, 0, 85, 53
1, 376331, Note_off_c, 0, 85, 59
1, 376334, Note_on_c, 0, 86, 42
1, 376389, Note_off_c, 0, 86, 60
1, 376416, Note_on_c, 0, 88, 50
1, 376469, Note_off_c, 0, 88, 58
1, 376513, Note_on_c, 0, 89, 22
1, 376536, Note_off_c, 0, 89, 49
1, 376576, Note_on_c, 0, 83, 51
1, 376633, Note_off_c, 0, 83, 58
1, 376638, Note_on_c, 0, 86, 42
1, 376677, Note_off_c, 0, 86, 0
1, 376696, Note_on_c, 0, 86, 31
1, 376771, Note_off_c, 0, 86, 59
1, 376789, Note_on_c, 0, 89, 37
1, 376826, Note_off_c, 0, 89, 51
1, 376858, Note_on_c, 0, 85, 58
1, 376920, Note_off_c, 0, 85, 62
1, 376936, Note_on_c, 0, 86, 48
1, 376984, Note_off_c, 0, 86, 50
1, 377001, Note_on_c, 0, 88, 48
1, 377061, Note_off_c, 0, 88, 53
1, 377082, Note_on_c, 0, 89, 37
1, 377121, Note_off_c, 0, 89, 55
1, 377164, Note_on_c, 0, 83, 51
1, 377220, Note_on_c, 0, 86, 49
1, 377222, Note_off_c, 0, 83, 59
1, 377243, Note_off_c, 0, 86, 60
1, 377305, Note_on_c, 0, 86, 50
1, 377365, Note_off_c, 0, 86, 55
1, 377395, Note_on_c, 0, 89, 36
1, 377426, Note_off_c, 0, 89, 55
1, 377440, Note_on_c, 0, 82, 49
1, 377489, Note_off_c, 0, 82, 63
1, 377499, Note_on_c, 0, 83, 54
1, 377542, Note_off_c, 0, 83, 56
1, 377592, Note_on_c, 0, 86, 52
1, 377660, Note_off_c, 0, 86, 56
1, 377672, Note_on_c, 0, 89, 42
1, 377707, Note_off_c, 0, 89, 53
1, 377739, Note_on_c, 0, 78, 53
1, 377799, Note_off_c, 0, 78, 55
1, 377814, Note_on_c, 0, 79, 49
1, 377852, Note_off_c, 0, 79, 54
1, 377891, Note_on_c, 0, 86, 49
1, 377967, Note_on_c, 0, 89, 47
1, 377976, Note_off_c, 0, 86, 56
1, 377994, Note_off_c, 0, 89, 57
1, 378035, Note_on_c, 0, 76, 54
1, 378082, Note_off_c, 0, 76, 66
1, 378112, Note_on_c, 0, 77, 47
1, 378134, Note_off_c, 0, 77, 56
1, 378181, Note_on_c, 0, 76, 50
1, 378246, Note_off_c, 0, 76, 62
1, 378255, Note_on_c, 0, 77, 47
1, 378293, Note_off_c, 0, 77, 55
1, 378319, Note_on_c, 0, 73, 52
1, 378390, Note_off_c, 0, 73, 63
1, 378403, Note_on_c, 0, 74, 48
1, 378430, Note_off_c, 0, 74, 59
1, 378486, Note_on_c, 0, 76, 41
1, 378530, Note_off_c, 0, 76, 53
1, 378555, Note_on_c, 0, 77, 36
1, 378585, Note_off_c, 0, 77, 54
1, 378635, Note_on_c, 0, 70, 46
1, 378695, Note_off_c, 0, 70, 56
1, 378698, Note_on_c, 0, 71, 48
1, 378739, Note_off_c, 0, 71, 56
1, 378768, Note_on_c, 0, 74, 44
1, 378829, Note_off_c, 0, 74, 62
1, 378850, Note_on_c, 0, 77, 42
1, 378882, Note_off_c, 0, 77, 54
1, 378921, Note_on_c, 0, 73, 47
1, 378979, Note_off_c, 0, 73, 55
1, 378981, Note_on_c, 0, 74, 44
1, 379029, Note_off_c, 0, 74, 62
1, 379071, Note_on_c, 0, 76, 38
1, 379117, Note_off_c, 0, 76, 49
1, 379141, Note_on_c, 0, 77, 39
1, 379173, Note_off_c, 0, 77, 54
1, 379202, Note_on_c, 0, 70, 45
1, 379270, Note_off_c, 0, 70, 56
1, 379271, Note_on_c, 0, 71, 45
1, 379314, Note_off_c, 0, 71, 60
1, 379354, Note_on_c, 0, 74, 41
1, 379396, Note_off_c, 0, 74, 62
1, 379443, Note_on_c, 0, 77, 19
1, 379481, Note_on_c, 0, 73, 44
1, 379482, Note_off_c, 0, 77, 44
1, 379565, Note_on_c, 0, 74, 44
1, 379580, Note_off_c, 0, 73, 58
1, 379604, Note_off_c, 0, 74, 66
1, 379642, Note_on_c, 0, 76, 40
1, 379684, Note_off_c, 0, 76, 50
1, 379717, Note_on_c, 0, 77, 37
1, 379760, Note_off_c, 0, 77, 46
1, 379799, Note_on_c, 0, 82, 51
1, 379847, Note_on_c, 0, 83, 61
1, 379871, Note_off_c, 0, 82, 61
1, 379900, Note_off_c, 0, 83, 62
1, 379950, Note_on_c, 0, 74, 41
1, 379996, Note_off_c, 0, 74, 49
1, 380004, Note_on_c, 0, 77, 54
1, 380096, Note_off_c, 0, 77, 47
1, 380107, Note_on_c, 0, 85, 56
1, 380169, Note_off_c, 0, 85, 65
1, 380171, Note_on_c, 0, 86, 69
1, 380229, Note_off_c, 0, 86, 61
1, 380273, Note_on_c, 0, 74, 33
1, 380321, Note_off_c, 0, 74, 47
1, 380322, Note_on_c, 0, 77, 48
1, 380397, Note_off_c, 0, 77, 49
1, 380413, Note_on_c, 0, 82, 53
1, 380488, Note_on_c, 0, 83, 54
1, 380489, Note_off_c, 0, 82, 62
1, 380526, Note_off_c, 0, 83, 61
1, 380578, Note_on_c, 0, 74, 38
1, 380651, Note_on_c, 0, 77, 42
1, 380653, Note_off_c, 0, 74, 52
1, 380687, Note_off_c, 0, 77, 52
1, 380741, Note_on_c, 0, 73, 50
1, 380813, Note_on_c, 0, 74, 51
1, 380818, Note_off_c, 0, 73, 53
1, 380865, Note_off_c, 0, 74, 62
1, 380937, Note_on_c, 0, 85, 36
1, 380981, Note_on_c, 0, 86, 50
1, 380996, Note_off_c, 0, 85, 43
1, 381034, Note_off_c, 0, 86, 56
1, 381076, Note_on_c, 0, 70, 47
1, 381134, Note_off_c, 0, 70, 56
1, 381136, Note_on_c, 0, 71, 38
1, 381186, Note_off_c, 0, 71, 50
1, 381229, Note_on_c, 0, 82, 39
1, 381297, Note_off_c, 0, 82, 40
1, 381301, Note_on_c, 0, 83, 37
1, 381339, Note_off_c, 0, 83, 48
1, 381390, Note_on_c, 0, 73, 44
1, 381449, Note_off_c, 0, 73, 54
1, 381477, Note_on_c, 0, 74, 21
1, 381515, Note_off_c, 0, 74, 55
1, 381545, Note_on_c, 0, 85, 42
1, 381623, Note_off_c, 0, 85, 57
1, 381624, Note_on_c, 0, 86, 46
1, 381658, Note_off_c, 0, 86, 53
1, 381732, Note_on_c, 0, 70, 38
1, 381778, Note_off_c, 0, 70, 45
1, 381805, Note_on_c, 0, 71, 29
1, 381867, Note_off_c, 0, 71, 42
1, 381873, Note_on_c, 0, 82, 27
1, 381932, Note_off_c, 0, 82, 50
1, 381977, Note_on_c, 0, 83, 37
1, 382020, Note_off_c, 0, 83, 44
1, 382160, Note_on_c, 0, 89, 96
1, 382169, Note_on_c, 0, 77, 80
1, 382171, Note_on_c, 0, 71, 74
1, 382172, Note_on_c, 0, 83, 75
1, 382174, Note_on_c, 0, 67, 70
1, 382352, Control_c, 0, 64, 54
1, 382367, Control_c, 0, 64, 74
1, 382382, Control_c, 0, 64, 86
1, 382382, Control_c, 0, 67, 102
1, 382396, Control_c, 0, 64, 97
1, 382396, Control_c, 0, 67, 71
1, 382411, Control_c, 0, 64, 103
1, 382411, Control_c, 0, 67, 37
1, 382426, Control_c, 0, 64, 106
1, 382426, Control_c, 0, 67, 9
1, 382427, Note_off_c, 0, 83, 61
1, 382441, Control_c, 0, 64, 108
1, 382441, Control_c, 0, 67, 0
1, 382456, Control_c, 0, 64, 109
1, 382496, Note_off_c, 0, 77, 58
1, 382507, Note_off_c, 0, 89, 63
1, 382597, Note_off_c, 0, 71, 53
1, 382603, Control_c, 0, 64, 107
1, 382618, Note_on_c, 0, 90, 101
1, 382618, Control_c, 0, 64, 98
1, 382624, Note_on_c, 0, 66, 70
1, 382624, Note_on_c, 0, 70, 74
1, 382625, Note_off_c, 0, 67, 62
1, 382627, Note_on_c, 0, 73, 76
1, 382627, Note_on_c, 0, 78, 86
1, 382628, Note_on_c, 0, 82, 79
1, 382633, Control_c, 0, 64, 85
1, 382648, Control_c, 0, 64, 68
1, 382663, Control_c, 0, 64, 0
1, 382667, Note_off_c, 0, 73, 61
1, 382676, Note_off_c, 0, 70, 61
1, 382683, Note_off_c, 0, 82, 47
1, 382685, Note_off_c, 0, 66, 57
1, 382692, Note_off_c, 0, 78, 53
1, 382710, Note_off_c, 0, 90, 60
1, 382797, Note_on_c, 0, 78, 91
1, 382800, Note_on_c, 0, 85, 92
1, 382800, Note_on_c, 0, 82, 77
1, 382809, Note_on_c, 0, 73, 81
1, 382809, Control_c, 0, 64, 61
1, 382813, Note_on_c, 0, 66, 69
1, 382813, Note_on_c, 0, 70, 72
1, 382824, Control_c, 0, 64, 74
1, 382836, Note_off_c, 0, 78, 64
1, 382839, Control_c, 0, 64, 88
1, 382841, Note_off_c, 0, 82, 64
1, 382848, Note_off_c, 0, 85, 70
1, 382849, Note_off_c, 0, 73, 65
1, 382855, Control_c, 0, 64, 100
1, 382862, Note_off_c, 0, 70, 63
1, 382870, Control_c, 0, 64, 105
1, 382874, Note_off_c, 0, 66, 67
1, 382884, Control_c, 0, 64, 106
1, 382899, Control_c, 0, 64, 108
1, 382914, Control_c, 0, 64, 109
1, 382928, Control_c, 0, 64, 110
1, 383017, Control_c, 0, 64, 110
1, 383017, Control_c, 0, 67, 8
1, 383032, Control_c, 0, 64, 108
1, 383032, Control_c, 0, 67, 13
1, 383047, Control_c, 0, 64, 105
1, 383047, Control_c, 0, 67, 19
1, 383062, Control_c, 0, 64, 99
1, 383062, Control_c, 0, 67, 28
1, 383084, Control_c, 0, 64, 92
1, 383084, Control_c, 0, 67, 41
1, 383099, Control_c, 0, 64, 82
1, 383099, Control_c, 0, 67, 50
1, 383114, Control_c, 0, 64, 71
1, 383114, Control_c, 0, 67, 56
1, 383129, Control_c, 0, 64, 47
1, 383129, Control_c, 0, 67, 63
1, 383143, Control_c, 0, 64, 0
1, 383143, Control_c, 0, 67, 73
1, 383158, Control_c, 0, 67, 84
1, 383173, Control_c, 0, 67, 94
1, 383188, Control_c, 0, 67, 106
1, 383203, Control_c, 0, 67, 116
1, 383217, Control_c, 0, 67, 124
1, 383232, Control_c, 0, 67, 127
1, 383352, Note_on_c, 0, 63, 53
1, 383371, Note_on_c, 0, 35, 40
1, 383376, Note_on_c, 0, 59, 31
1, 383408, Note_off_c, 0, 35, 54
1, 383408, Note_off_c, 0, 59, 50
1, 383415, Note_off_c, 0, 63, 57
1, 383546, Note_on_c, 0, 64, 58
1, 383569, Note_on_c, 0, 37, 40
1, 383573, Control_c, 0, 64, 53
1, 383574, Note_on_c, 0, 56, 40
1, 383588, Control_c, 0, 64, 63
1, 383603, Control_c, 0, 64, 66
1, 383617, Control_c, 0, 64, 68
1, 383632, Control_c, 0, 64, 70
1, 383647, Control_c, 0, 64, 73
1, 383663, Control_c, 0, 64, 75
1, 383678, Control_c, 0, 64, 75
1, 383732, Note_off_c, 0, 64, 36
1, 383781, Control_c, 0, 64, 75
1, 383796, Control_c, 0, 64, 74
1, 383809, Note_on_c, 0, 63, 49
1, 383811, Control_c, 0, 64, 72
1, 383813, Note_off_c, 0, 56, 40
1, 383822, Note_off_c, 0, 37, 14
1, 383833, Control_c, 0, 64, 68
1, 383838, Note_on_c, 0, 39, 25
1, 383839, Note_on_c, 0, 61, 61
1, 383848, Control_c, 0, 64, 61
1, 383861, Note_off_c, 0, 63, 54
1, 383862, Note_on_c, 0, 40, 61
1, 383863, Control_c, 0, 64, 0
1, 383870, Note_on_c, 0, 52, 51
1, 383873, Note_off_c, 0, 39, 42
1, 383891, Note_off_c, 0, 61, 63
1, 383901, Note_off_c, 0, 40, 63
1, 383924, Note_off_c, 0, 52, 57
1, 384052, Note_on_c, 0, 59, 52
1, 384080, Note_on_c, 0, 41, 33
1, 384080, Note_on_c, 0, 51, 38
1, 384102, Note_off_c, 0, 59, 61
1, 384120, Note_off_c, 0, 51, 52
1, 384120, Note_off_c, 0, 41, 54
1, 384302, Note_on_c, 0, 58, 35
1, 384315, Note_on_c, 0, 49, 34
1, 384317, Note_on_c, 0, 42, 32
1, 384337, Control_c, 0, 64, 32
1, 384352, Control_c, 0, 64, 51
1, 384366, Control_c, 0, 64, 57
1, 384381, Control_c, 0, 64, 60
1, 384396, Control_c, 0, 64, 62
1, 384411, Control_c, 0, 64, 64
1, 384426, Control_c, 0, 64, 66
1, 384440, Control_c, 0, 64, 67
1, 384456, Control_c, 0, 64, 68
1, 384471, Control_c, 0, 64, 70
1, 384486, Control_c, 0, 64, 71
1, 384501, Control_c, 0, 64, 71
1, 384515, Control_c, 0, 64, 72
1, 384530, Control_c, 0, 64, 72
1, 384633, Note_off_c, 0, 49, 53
1, 384671, Control_c, 0, 64, 72
1, 384686, Control_c, 0, 64, 71
1, 384696, Note_off_c, 0, 42, 53
1, 384701, Control_c, 0, 64, 68
1, 384712, Note_off_c, 0, 58, 64
1, 384715, Control_c, 0, 64, 60
1, 384730, Control_c, 0, 64, 16
1, 384745, Control_c, 0, 64, 0
1, 384834, Control_c, 0, 67, 120
1, 384849, Control_c, 0, 67, 105
1, 384863, Control_c, 0, 67, 88
1, 384878, Control_c, 0, 67, 69
1, 384893, Control_c, 0, 67, 48
1, 384907, Control_c, 0, 67, 22
1, 384922, Control_c, 0, 67, 0
1, 385095, Note_on_c, 0, 87, 95
1, 385100, Note_on_c, 0, 75, 90
1, 385102, Note_on_c, 0, 78, 86
1, 385105, Note_on_c, 0, 83, 80
1, 385107, Note_on_c, 0, 69, 84
1, 385107, Note_on_c, 0, 71, 81
1, 385176, Control_c, 0, 64, 52
1, 385190, Control_c, 0, 64, 69
1, 385205, Control_c, 0, 64, 78
1, 385220, Control_c, 0, 64, 87
1, 385234, Control_c, 0, 64, 91
1, 385249, Control_c, 0, 64, 93
1, 385256, Note_off_c, 0, 71, 43
1, 385265, Control_c, 0, 64, 94
1, 385280, Control_c, 0, 64, 95
1, 385294, Note_off_c, 0, 78, 60
1, 385295, Control_c, 0, 64, 95
1, 385325, Note_off_c, 0, 83, 56
1, 385338, Note_off_c, 0, 75, 61
1, 385395, Note_off_c, 0, 87, 62
1, 385569, Control_c, 0, 64, 95
1, 385572, Note_on_c, 0, 88, 91
1, 385577, Note_on_c, 0, 76, 92
1, 385583, Note_on_c, 0, 68, 77
1, 385583, Note_on_c, 0, 80, 86
1, 385584, Control_c, 0, 64, 93
1, 385590, Note_on_c, 0, 71, 70
1, 385596, Note_on_c, 0, 85, 66
1, 385599, Control_c, 0, 64, 90
1, 385600, Note_off_c, 0, 69, 63
1, 385613, Control_c, 0, 64, 84
1, 385614, Note_off_c, 0, 85, 67
1, 385624, Note_off_c, 0, 76, 66
1, 385628, Control_c, 0, 64, 75
1, 385634, Note_off_c, 0, 71, 52
1, 385643, Control_c, 0, 64, 64
1, 385654, Note_off_c, 0, 80, 53
1, 385655, Note_off_c, 0, 68, 53
1, 385657, Control_c, 0, 64, 0
1, 385662, Note_off_c, 0, 88, 51
1, 385794, Note_on_c, 0, 90, 93
1, 385796, Note_on_c, 0, 81, 83
1, 385797, Note_on_c, 0, 78, 91
1, 385801, Note_on_c, 0, 69, 54
1, 385801, Note_on_c, 0, 87, 80
1, 385807, Note_on_c, 0, 71, 75
1, 385808, Note_on_c, 0, 66, 72
1, 385894, Control_c, 0, 64, 63
1, 385909, Control_c, 0, 64, 71
1, 385924, Control_c, 0, 64, 80
1, 385939, Control_c, 0, 64, 89
1, 385954, Control_c, 0, 64, 93
1, 385965, Note_off_c, 0, 90, 65
1, 385968, Control_c, 0, 64, 94
1, 385980, Note_off_c, 0, 69, 63
1, 385983, Note_off_c, 0, 71, 56
1, 385983, Control_c, 0, 64, 95
1, 385986, Note_off_c, 0, 87, 63
1, 385986, Note_off_c, 0, 66, 61
1, 385998, Note_off_c, 0, 81, 60
1, 385998, Control_c, 0, 64, 96
1, 386013, Control_c, 0, 64, 96
1, 386020, Note_off_c, 0, 78, 63
1, 386110, Control_c, 0, 67, 11
1, 386125, Control_c, 0, 64, 95
1, 386125, Control_c, 0, 67, 21
1, 386140, Control_c, 0, 64, 91
1, 386140, Control_c, 0, 67, 37
1, 386155, Control_c, 0, 64, 82
1, 386155, Control_c, 0, 67, 57
1, 386169, Control_c, 0, 64, 71
1, 386169, Control_c, 0, 67, 73
1, 386184, Control_c, 0, 64, 53
1, 386184, Control_c, 0, 67, 85
1, 386199, Control_c, 0, 64, 0
1, 386199, Control_c, 0, 67, 97
1, 386214, Control_c, 0, 67, 113
1, 386229, Control_c, 0, 67, 126
1, 386243, Control_c, 0, 67, 127
1, 386392, Note_on_c, 0, 40, 50
1, 386392, Note_on_c, 0, 59, 50
1, 386395, Note_on_c, 0, 56, 47
1, 386422, Note_off_c, 0, 40, 59
1, 386429, Note_off_c, 0, 56, 62
1, 386430, Note_off_c, 0, 59, 62
1, 386594, Note_on_c, 0, 61, 55
1, 386610, Note_on_c, 0, 57, 50
1, 386627, Note_on_c, 0, 33, 43
1, 386628, Control_c, 0, 64, 54
1, 386643, Control_c, 0, 64, 62
1, 386658, Control_c, 0, 64, 65
1, 386673, Control_c, 0, 64, 67
1, 386687, Control_c, 0, 64, 70
1, 386691, Note_off_c, 0, 57, 53
1, 386702, Control_c, 0, 64, 74
1, 386717, Control_c, 0, 64, 77
1, 386732, Control_c, 0, 64, 78
1, 386746, Control_c, 0, 64, 79
1, 386763, Note_off_c, 0, 33, 33
1, 386860, Note_on_c, 0, 57, 50
1, 386870, Note_on_c, 0, 45, 27
1, 386874, Control_c, 0, 64, 78
1, 386885, Note_off_c, 0, 61, 59
1, 386889, Control_c, 0, 64, 77
1, 386904, Control_c, 0, 64, 73
1, 386907, Note_off_c, 0, 45, 53
1, 386910, Note_on_c, 0, 52, 47
1, 386916, Note_on_c, 0, 56, 58
1, 386918, Control_c, 0, 64, 65
1, 386922, Note_off_c, 0, 57, 57
1, 386933, Control_c, 0, 64, 0
1, 386949, Note_on_c, 0, 47, 56
1, 386949, Note_off_c, 0, 52, 56
1, 386967, Note_off_c, 0, 56, 62
1, 386977, Note_off_c, 0, 47, 60
1, 387122, Note_on_c, 0, 54, 47
1, 387139, Note_on_c, 0, 51, 37
1, 387169, Note_off_c, 0, 51, 48
1, 387172, Note_on_c, 0, 35, 17
1, 387176, Note_off_c, 0, 54, 56
1, 387214, Note_off_c, 0, 35, 51
1, 387364, Note_on_c, 0, 56, 41
1, 387371, Note_on_c, 0, 40, 36
1, 387376, Control_c, 0, 64, 40
1, 387391, Control_c, 0, 64, 57
1, 387394, Note_on_c, 0, 52, 8
1, 387406, Control_c, 0, 64, 61
1, 387421, Control_c, 0, 64, 64
1, 387435, Control_c, 0, 64, 65
1, 387450, Control_c, 0, 64, 67
1, 387465, Control_c, 0, 64, 70
1, 387480, Control_c, 0, 64, 72
1, 387495, Control_c, 0, 64, 75
1, 387498, Note_off_c, 0, 52, 53
1, 387510, Control_c, 0, 64, 77
1, 387525, Control_c, 0, 64, 77
1, 387539, Control_c, 0, 64, 78
1, 387544, Note_off_c, 0, 56, 58
1, 387588, Note_off_c, 0, 40, 40
1, 387681, Control_c, 0, 64, 77
1, 387696, Control_c, 0, 64, 77
1, 387711, Control_c, 0, 64, 75
1, 387725, Control_c, 0, 64, 72
1, 387740, Control_c, 0, 64, 66
1, 387755, Control_c, 0, 64, 48
1, 387770, Control_c, 0, 64, 0
1, 388169, Note_on_c, 0, 88, 53
1, 388174, Note_on_c, 0, 68, 28
1, 388174, Note_on_c, 0, 76, 46
1, 388183, Note_on_c, 0, 83, 35
1, 388192, Note_on_c, 0, 71, 26
1, 388215, Control_c, 0, 64, 19
1, 388230, Control_c, 0, 64, 56
1, 388245, Control_c, 0, 64, 62
1, 388259, Control_c, 0, 64, 65
1, 388274, Control_c, 0, 64, 67
1, 388289, Control_c, 0, 64, 70
1, 388304, Control_c, 0, 64, 73
1, 388319, Control_c, 0, 64, 76
1, 388341, Control_c, 0, 64, 79
1, 388355, Note_off_c, 0, 88, 34
1, 388356, Control_c, 0, 64, 80
1, 388371, Control_c, 0, 64, 80
1, 388386, Control_c, 0, 64, 81
1, 388401, Control_c, 0, 64, 82
1, 388431, Note_off_c, 0, 76, 43
1, 388452, Note_off_c, 0, 83, 13
1, 388482, Note_off_c, 0, 71, 39
1, 388609, Control_c, 0, 64, 82
1, 388638, Control_c, 0, 64, 81
1, 388653, Control_c, 0, 64, 80
1, 388668, Control_c, 0, 64, 79
1, 388675, Note_off_c, 0, 68, 23
1, 388682, Control_c, 0, 64, 76
1, 388696, Note_on_c, 0, 87, 53
1, 388697, Control_c, 0, 64, 71
1, 388712, Control_c, 0, 64, 64
1, 388716, Note_on_c, 0, 75, 29
1, 388721, Note_on_c, 0, 66, 29
1, 388727, Control_c, 0, 64, 27
1, 388729, Note_on_c, 0, 71, 16
1, 388741, Note_off_c, 0, 75, 45
1, 388742, Control_c, 0, 64, 0
1, 388754, Note_off_c, 0, 87, 57
1, 388761, Note_off_c, 0, 66, 50
1, 388774, Note_off_c, 0, 71, 45
1, 388939, Note_on_c, 0, 92, 56
1, 388949, Control_c, 0, 64, 55
1, 388949, Note_on_c, 0, 80, 48
1, 388964, Control_c, 0, 64, 64
1, 388964, Note_on_c, 0, 71, 28
1, 388977, Note_on_c, 0, 64, 23
1, 388979, Control_c, 0, 64, 68
1, 388994, Control_c, 0, 64, 71
1, 389009, Control_c, 0, 64, 75
1, 389010, Note_off_c, 0, 92, 62
1, 389013, Note_off_c, 0, 80, 40
1, 389023, Control_c, 0, 64, 78
1, 389026, Note_off_c, 0, 64, 44
1, 389038, Control_c, 0, 64, 78
1, 389041, Note_off_c, 0, 71, 38
1, 389041, Poly_aftertouch_c, 0, 83, 0
1, 389164, Control_c, 0, 64, 78
1, 389179, Control_c, 0, 64, 77
1, 389194, Control_c, 0, 64, 74
1, 389209, Control_c, 0, 64, 69
1, 389224, Control_c, 0, 64, 60
1, 389238, Control_c, 0, 64, 31
1, 389253, Control_c, 0, 64, 0
1, 389563, Note_on_c, 0, 39, 40
1, 389569, Note_on_c, 0, 66, 52
1, 389581, Note_on_c, 0, 54, 38
1, 389581, Note_on_c, 0, 59, 39
1, 389596, Note_off_c, 0, 39, 57
1, 389609, Note_off_c, 0, 59, 56
1, 389624, Note_off_c, 0, 54, 43
1, 389624, Note_off_c, 0, 66, 49
1, 389770, Note_on_c, 0, 64, 56
1, 389772, Control_c, 0, 64, 32
1, 389784, Note_on_c, 0, 54, 38
1, 389787, Control_c, 0, 64, 62
1, 389794, Note_on_c, 0, 37, 25
1, 389802, Control_c, 0, 64, 65
1, 389817, Control_c, 0, 64, 67
1, 389838, Control_c, 0, 64, 69
1, 389853, Control_c, 0, 64, 71
1, 389868, Control_c, 0, 64, 73
1, 389883, Control_c, 0, 64, 75
1, 389898, Control_c, 0, 64, 76
1, 389912, Control_c, 0, 64, 76
1, 389997, Note_off_c, 0, 54, 37
1, 390002, Control_c, 0, 64, 75
1, 390008, Note_on_c, 0, 63, 54
1, 390011, Note_on_c, 0, 39, 42
1, 390017, Note_off_c, 0, 64, 53
1, 390017, Control_c, 0, 64, 73
1, 390027, Note_off_c, 0, 37, 16
1, 390031, Control_c, 0, 64, 69
1, 390046, Control_c, 0, 64, 59
1, 390052, Note_off_c, 0, 39, 63
1, 390062, Control_c, 0, 64, 0
1, 390069, Note_off_c, 0, 63, 56
1, 390073, Note_on_c, 0, 61, 59
1, 390084, Note_on_c, 0, 40, 38
1, 390116, Note_off_c, 0, 40, 49
1, 390116, Note_off_c, 0, 61, 59
1, 390244, Note_on_c, 0, 66, 58
1, 390255, Note_on_c, 0, 42, 45
1, 390285, Note_off_c, 0, 42, 56
1, 390291, Note_off_c, 0, 66, 59
1, 390436, Note_on_c, 0, 63, 51
1, 390439, Note_on_c, 0, 47, 47
1, 390446, Control_c, 0, 64, 21
1, 390461, Control_c, 0, 64, 54
1, 390476, Control_c, 0, 64, 59
1, 390491, Control_c, 0, 64, 60
1, 390506, Control_c, 0, 64, 61
1, 390520, Note_on_c, 0, 59, 43
1, 390520, Control_c, 0, 64, 63
1, 390535, Control_c, 0, 64, 64
1, 390542, Note_off_c, 0, 63, 38
1, 390550, Control_c, 0, 64, 65
1, 390562, Note_off_c, 0, 59, 53
1, 390565, Control_c, 0, 64, 65
1, 390588, Control_c, 0, 64, 66
1, 390592, Note_on_c, 0, 54, 62
1, 390593, Note_on_c, 0, 58, 49
1, 390602, Control_c, 0, 64, 67
1, 390617, Control_c, 0, 64, 68
1, 390632, Control_c, 0, 64, 68
1, 390640, Note_off_c, 0, 58, 64
1, 390651, Note_off_c, 0, 47, 42
1, 390671, Note_on_c, 0, 59, 44
1, 390706, Control_c, 0, 64, 67
1, 390708, Note_off_c, 0, 59, 47
1, 390721, Control_c, 0, 64, 65
1, 390735, Control_c, 0, 64, 59
1, 390746, Note_off_c, 0, 54, 62
1, 390750, Control_c, 0, 64, 29
1, 390753, Note_on_c, 0, 56, 67
1, 390757, Note_on_c, 0, 64, 49
1, 390765, Control_c, 0, 64, 0
1, 390820, Note_off_c, 0, 64, 59
1, 390844, Note_on_c, 0, 71, 39
1, 390908, Note_off_c, 0, 71, 47
1, 390911, Note_on_c, 0, 54, 70
1, 390921, Note_off_c, 0, 56, 60
1, 390928, Note_on_c, 0, 63, 58
1, 390988, Control_c, 0, 67, 118
1, 390990, Note_off_c, 0, 63, 62
1, 391003, Control_c, 0, 67, 108
1, 391012, Note_on_c, 0, 71, 51
1, 391018, Control_c, 0, 67, 100
1, 391032, Control_c, 0, 67, 87
1, 391047, Control_c, 0, 67, 73
1, 391056, Note_off_c, 0, 71, 48
1, 391062, Control_c, 0, 67, 58
1, 391076, Control_c, 0, 67, 42
1, 391078, Note_on_c, 0, 52, 73
1, 391078, Note_on_c, 0, 68, 64
1, 391087, Note_off_c, 0, 54, 61
1, 391091, Control_c, 0, 67, 29
1, 391106, Control_c, 0, 67, 16
1, 391121, Control_c, 0, 67, 0
1, 391158, Note_off_c, 0, 68, 59
1, 391164, Note_on_c, 0, 71, 55
1, 391218, Note_off_c, 0, 71, 58
1, 391237, Note_on_c, 0, 51, 75
1, 391239, Note_off_c, 0, 52, 65
1, 391239, Note_on_c, 0, 66, 63
1, 391304, Note_off_c, 0, 66, 65
1, 391309, Note_on_c, 0, 71, 56
1, 391363, Note_off_c, 0, 71, 59
1, 391400, Note_on_c, 0, 49, 72
1, 391400, Note_off_c, 0, 51, 61
1, 391468, Control_c, 0, 67, 8
1, 391483, Control_c, 0, 67, 9
1, 391487, Note_on_c, 0, 73, 59
1, 391498, Control_c, 0, 67, 9
1, 391513, Control_c, 0, 67, 11
1, 391528, Control_c, 0, 67, 14
1, 391543, Control_c, 0, 67, 18
1, 391558, Control_c, 0, 67, 20
1, 391562, Note_on_c, 0, 70, 60
1, 391564, Note_on_c, 0, 42, 67
1, 391571, Note_off_c, 0, 73, 58
1, 391573, Control_c, 0, 67, 20
1, 391584, Note_off_c, 0, 49, 54
1, 391602, Control_c, 0, 67, 21
1, 391617, Control_c, 0, 67, 22
1, 391623, Note_off_c, 0, 70, 58
1, 391631, Note_on_c, 0, 78, 60
1, 391632, Control_c, 0, 67, 24
1, 391647, Control_c, 0, 67, 27
1, 391662, Control_c, 0, 67, 28
1, 391710, Note_off_c, 0, 78, 58
1, 391722, Control_c, 0, 67, 28
1, 391723, Note_off_c, 0, 42, 64
1, 391725, Note_on_c, 0, 47, 67
1, 391731, Note_on_c, 0, 71, 62
1, 391751, Control_c, 0, 67, 27
1, 391767, Control_c, 0, 67, 26
1, 391794, Note_off_c, 0, 71, 57
1, 391796, Control_c, 0, 67, 26
1, 391805, Note_on_c, 0, 75, 55
1, 391811, Control_c, 0, 67, 25
1, 391841, Control_c, 0, 67, 25
1, 391856, Control_c, 0, 67, 24
1, 391871, Note_on_c, 0, 42, 72
1, 391873, Note_off_c, 0, 75, 63
1, 391886, Control_c, 0, 67, 24
1, 391888, Note_on_c, 0, 71, 62
1, 391900, Control_c, 0, 67, 23
1, 391902, Note_off_c, 0, 47, 40
1, 391930, Control_c, 0, 67, 23
1, 391953, Note_off_c, 0, 71, 59
1, 391960, Control_c, 0, 67, 22
1, 391964, Note_on_c, 0, 78, 61
1, 392004, Control_c, 0, 67, 22
1, 392025, Note_off_c, 0, 78, 59
1, 392037, Note_on_c, 0, 39, 66
1, 392045, Note_on_c, 0, 71, 68
1, 392048, Control_c, 0, 67, 21
1, 392061, Note_off_c, 0, 42, 63
1, 392063, Control_c, 0, 67, 21
1, 392085, Control_c, 0, 67, 20
1, 392100, Control_c, 0, 67, 20
1, 392115, Control_c, 0, 67, 19
1, 392117, Note_off_c, 0, 71, 59
1, 392121, Note_on_c, 0, 78, 65
1, 392130, Control_c, 0, 67, 17
1, 392145, Control_c, 0, 67, 13
1, 392160, Control_c, 0, 67, 0
1, 392196, Note_off_c, 0, 39, 57
1, 392202, Note_on_c, 0, 75, 75
1, 392202, Note_off_c, 0, 78, 65
1, 392209, Note_on_c, 0, 42, 66
1, 392273, Note_on_c, 0, 78, 69
1, 392273, Note_off_c, 0, 75, 65
1, 392351, Note_on_c, 0, 75, 76
1, 392354, Note_off_c, 0, 78, 64
1, 392360, Note_off_c, 0, 42, 59
1, 392374, Note_on_c, 0, 35, 51
1, 392423, Note_off_c, 0, 75, 65
1, 392425, Note_on_c, 0, 78, 72
1, 392495, Note_off_c, 0, 35, 59
1, 392506, Note_on_c, 0, 75, 73
1, 392509, Note_off_c, 0, 78, 64
1, 392523, Note_on_c, 0, 42, 47
1, 392586, Note_on_c, 0, 78, 66
1, 392588, Note_off_c, 0, 75, 61
1, 392655, Note_on_c, 0, 30, 61
1, 392659, Note_on_c, 0, 73, 67
1, 392666, Note_off_c, 0, 42, 54
1, 392684, Note_off_c, 0, 78, 56
1, 392708, Control_c, 0, 64, 43
1, 392723, Note_off_c, 0, 73, 62
1, 392723, Control_c, 0, 64, 66
1, 392738, Control_c, 0, 64, 74
1, 392744, Note_on_c, 0, 76, 60
1, 392753, Control_c, 0, 64, 83
1, 392768, Control_c, 0, 64, 87
1, 392778, Note_off_c, 0, 30, 55
1, 392783, Control_c, 0, 64, 88
1, 392783, Control_c, 0, 67, 8
1, 392795, Note_off_c, 0, 76, 64
1, 392797, Control_c, 0, 64, 89
1, 392797, Control_c, 0, 67, 9
1, 392807, Note_on_c, 0, 42, 59
1, 392810, Note_on_c, 0, 70, 57
1, 392812, Control_c, 0, 64, 90
1, 392845, Note_off_c, 0, 42, 65
1, 392883, Note_on_c, 0, 78, 62
1, 392884, Note_off_c, 0, 70, 60
1, 392938, Control_c, 0, 67, 9
1, 392953, Control_c, 0, 64, 89
1, 392960, Note_on_c, 0, 47, 71
1, 392960, Note_on_c, 0, 75, 63
1, 392968, Control_c, 0, 64, 87
1, 392969, Note_off_c, 0, 78, 59
1, 392983, Control_c, 0, 64, 84
1, 392983, Control_c, 0, 67, 8
1, 392997, Control_c, 0, 64, 79
1, 393012, Control_c, 0, 64, 70
1, 393027, Control_c, 0, 64, 39
1, 393034, Note_on_c, 0, 71, 62
1, 393040, Note_off_c, 0, 75, 60
1, 393042, Control_c, 0, 64, 0
1, 393092, Note_off_c, 0, 71, 59
1, 393111, Note_on_c, 0, 54, 81
1, 393117, Note_on_c, 0, 63, 69
1, 393130, Control_c, 0, 67, 9
1, 393135, Note_off_c, 0, 47, 56
1, 393160, Control_c, 0, 67, 9
1, 393173, Note_off_c, 0, 63, 64
1, 393200, Note_on_c, 0, 71, 71
1, 393204, Control_c, 0, 67, 8
1, 393219, Control_c, 0, 67, 8
1, 393234, Control_c, 0, 67, 0
1, 393271, Note_on_c, 0, 56, 84
1, 393274, Note_off_c, 0, 54, 60
1, 393275, Note_on_c, 0, 64, 69
1, 393278, Note_off_c, 0, 71, 59
1, 393343, Note_on_c, 0, 71, 71
1, 393352, Note_off_c, 0, 64, 64
1, 393430, Note_on_c, 0, 54, 78
1, 393433, Note_on_c, 0, 63, 88
1, 393433, Note_off_c, 0, 71, 60
1, 393442, Note_off_c, 0, 56, 58
1, 393507, Note_off_c, 0, 63, 64
1, 393510, Note_on_c, 0, 71, 70
1, 393588, Note_on_c, 0, 68, 80
1, 393589, Note_off_c, 0, 71, 61
1, 393598, Note_on_c, 0, 52, 80
1, 393600, Note_off_c, 0, 54, 62
1, 393663, Note_on_c, 0, 71, 65
1, 393665, Note_off_c, 0, 68, 63
1, 393730, Note_off_c, 0, 71, 59
1, 393736, Note_on_c, 0, 66, 78
1, 393749, Note_off_c, 0, 52, 66
1, 393749, Note_on_c, 0, 51, 75
1, 393805, Note_off_c, 0, 66, 66
1, 393805, Control_c, 0, 64, 32
1, 393808, Note_on_c, 0, 71, 62
1, 393820, Control_c, 0, 64, 52
1, 393835, Control_c, 0, 64, 54
1, 393840, Note_off_c, 0, 71, 62
1, 393850, Control_c, 0, 64, 52
1, 393865, Control_c, 0, 64, 47
1, 393879, Control_c, 0, 64, 36
1, 393894, Control_c, 0, 64, 0
1, 393896, Note_off_c, 0, 51, 60
1, 393898, Note_on_c, 0, 70, 71
1, 393903, Note_on_c, 0, 49, 67
1, 393956, Note_off_c, 0, 70, 61
1, 393977, Note_on_c, 0, 73, 68
1, 394012, Control_c, 0, 67, 8
1, 394027, Control_c, 0, 67, 8
1, 394043, Control_c, 0, 67, 9
1, 394048, Note_on_c, 0, 70, 74
1, 394050, Note_off_c, 0, 73, 58
1, 394058, Control_c, 0, 67, 11
1, 394065, Note_on_c, 0, 42, 66
1, 394067, Note_off_c, 0, 49, 60
1, 394073, Control_c, 0, 67, 15
1, 394087, Control_c, 0, 67, 20
1, 394102, Control_c, 0, 67, 26
1, 394105, Note_off_c, 0, 70, 61
1, 394113, Note_on_c, 0, 78, 73
1, 394117, Control_c, 0, 67, 31
1, 394132, Control_c, 0, 67, 36
1, 394147, Control_c, 0, 67, 40
1, 394162, Control_c, 0, 67, 44
1, 394176, Control_c, 0, 67, 48
1, 394186, Note_off_c, 0, 42, 63
1, 394191, Control_c, 0, 67, 51
1, 394196, Note_off_c, 0, 78, 59
1, 394206, Control_c, 0, 67, 54
1, 394208, Note_on_c, 0, 71, 69
1, 394213, Note_on_c, 0, 47, 63
1, 394221, Control_c, 0, 67, 56
1, 394235, Control_c, 0, 67, 57
1, 394250, Control_c, 0, 67, 59
1, 394265, Control_c, 0, 67, 60
1, 394267, Note_on_c, 0, 75, 72
1, 394276, Note_off_c, 0, 71, 61
1, 394280, Control_c, 0, 67, 61
1, 394294, Control_c, 0, 67, 62
1, 394317, Control_c, 0, 67, 63
1, 394332, Control_c, 0, 67, 64
1, 394343, Note_off_c, 0, 47, 52
1, 394347, Note_off_c, 0, 75, 63
1, 394347, Control_c, 0, 67, 65
1, 394355, Note_on_c, 0, 71, 68
1, 394361, Note_on_c, 0, 42, 68
1, 394362, Control_c, 0, 67, 66
1, 394376, Control_c, 0, 67, 67
1, 394391, Control_c, 0, 67, 69
1, 394406, Control_c, 0, 67, 71
1, 394421, Control_c, 0, 67, 73
1, 394423, Note_on_c, 0, 78, 79
1, 394425, Note_off_c, 0, 71, 61
1, 394436, Control_c, 0, 67, 74
1, 394450, Control_c, 0, 67, 76
1, 394465, Control_c, 0, 67, 78
1, 394480, Control_c, 0, 67, 80
1, 394494, Control_c, 0, 64, 32
1, 394494, Control_c, 0, 67, 82
1, 394502, Note_off_c, 0, 78, 64
1, 394503, Note_on_c, 0, 74, 81
1, 394509, Control_c, 0, 64, 43
1, 394509, Control_c, 0, 67, 84
1, 394511, Note_on_c, 0, 38, 81
1, 394517, Note_off_c, 0, 42, 62
1, 394524, Control_c, 0, 64, 48
1, 394524, Control_c, 0, 67, 87
1, 394539, Control_c, 0, 64, 49
1, 394539, Control_c, 0, 67, 90
1, 394554, Control_c, 0, 67, 93
1, 394568, Control_c, 0, 67, 96
1, 394583, Control_c, 0, 64, 50
1, 394583, Control_c, 0, 67, 98
1, 394594, Note_off_c, 0, 74, 64
1, 394597, Note_on_c, 0, 83, 79
1, 394598, Control_c, 0, 64, 51
1, 394598, Control_c, 0, 67, 101
1, 394613, Control_c, 0, 64, 55
1, 394613, Control_c, 0, 67, 102
1, 394628, Control_c, 0, 64, 58
1, 394628, Control_c, 0, 67, 102
1, 394643, Control_c, 0, 64, 60
1, 394658, Control_c, 0, 64, 62
1, 394658, Note_on_c, 0, 74, 81
1, 394664, Note_on_c, 0, 42, 82
1, 394670, Note_off_c, 0, 83, 58
1, 394673, Control_c, 0, 64, 63
1, 394673, Control_c, 0, 67, 102
1, 394673, Note_off_c, 0, 38, 58
1, 394688, Control_c, 0, 64, 64
1, 394702, Control_c, 0, 64, 65
1, 394702, Control_c, 0, 67, 101
1, 394717, Control_c, 0, 64, 65
1, 394717, Control_c, 0, 67, 101
1, 394732, Control_c, 0, 64, 66
1, 394732, Note_off_c, 0, 74, 60
1, 394742, Note_on_c, 0, 83, 79
1, 394747, Control_c, 0, 64, 66
1, 394747, Control_c, 0, 67, 100
1, 394762, Control_c, 0, 67, 99
1, 394777, Control_c, 0, 64, 66
1, 394792, Control_c, 0, 64, 62
1, 394792, Control_c, 0, 67, 98
1, 394798, Note_on_c, 0, 35, 82
1, 394807, Control_c, 0, 64, 27
1, 394807, Control_c, 0, 67, 98
1, 394807, Note_off_c, 0, 42, 55
1, 394812, Note_on_c, 0, 74, 88
1, 394813, Note_off_c, 0, 83, 60
1, 394821, Control_c, 0, 64, 0
1, 394836, Control_c, 0, 67, 97
1, 394880, Note_on_c, 0, 83, 80
1, 394881, Control_c, 0, 64, 50
1, 394884, Note_off_c, 0, 74, 63
1, 394896, Control_c, 0, 64, 64
1, 394911, Control_c, 0, 64, 68
1, 394926, Control_c, 0, 64, 73
1, 394941, Control_c, 0, 64, 79
1, 394955, Note_on_c, 0, 74, 86
1, 394956, Control_c, 0, 64, 81
1, 394956, Note_on_c, 0, 42, 85
1, 394964, Note_off_c, 0, 83, 59
1, 394971, Control_c, 0, 64, 82
1, 395000, Control_c, 0, 67, 98
1, 395002, Note_off_c, 0, 35, 62
1, 395016, Note_on_c, 0, 83, 75
1, 395018, Note_off_c, 0, 74, 65
1, 395044, Control_c, 0, 64, 81
1, 395066, Control_c, 0, 64, 78
1, 395081, Control_c, 0, 64, 70
1, 395096, Control_c, 0, 64, 0
1, 395111, Note_on_c, 0, 77, 90
1, 395111, Note_off_c, 0, 42, 56
1, 395114, Note_on_c, 0, 37, 86
1, 395114, Note_on_c, 0, 73, 90
1, 395118, Note_off_c, 0, 83, 61
1, 395126, Control_c, 0, 67, 97
1, 395141, Control_c, 0, 67, 96
1, 395144, Note_on_c, 0, 41, 45
1, 395156, Control_c, 0, 67, 94
1, 395171, Control_c, 0, 67, 93
1, 395180, Note_off_c, 0, 41, 53
1, 395185, Control_c, 0, 64, 39
1, 395185, Control_c, 0, 67, 91
1, 395192, Note_off_c, 0, 73, 61
1, 395193, Note_on_c, 0, 83, 80
1, 395200, Control_c, 0, 64, 63
1, 395200, Control_c, 0, 67, 88
1, 395203, Note_off_c, 0, 77, 59
1, 395215, Control_c, 0, 64, 68
1, 395215, Control_c, 0, 67, 81
1, 395230, Control_c, 0, 64, 71
1, 395230, Control_c, 0, 67, 65
1, 395244, Control_c, 0, 64, 75
1, 395244, Control_c, 0, 67, 45
1, 395259, Note_on_c, 0, 41, 80
1, 395259, Control_c, 0, 64, 77
1, 395259, Control_c, 0, 67, 20
1, 395268, Note_on_c, 0, 77, 84
1, 395274, Note_off_c, 0, 83, 61
1, 395274, Control_c, 0, 67, 0
1, 395275, Note_on_c, 0, 73, 84
1, 395286, Note_off_c, 0, 37, 61
1, 395329, Note_off_c, 0, 73, 63
1, 395333, Note_on_c, 0, 83, 78
1, 395334, Note_off_c, 0, 41, 66
1, 395345, Note_off_c, 0, 77, 62
1, 395392, Control_c, 0, 64, 76
1, 395401, Note_on_c, 0, 42, 87
1, 395407, Control_c, 0, 64, 73
1, 395414, Note_on_c, 0, 78, 102
1, 395422, Control_c, 0, 64, 64
1, 395424, Note_off_c, 0, 83, 60
1, 395424, Note_on_c, 0, 73, 93
1, 395437, Control_c, 0, 64, 0
1, 395496, Control_c, 0, 67, 9
1, 395499, Note_off_c, 0, 73, 61
1, 395500, Note_on_c, 0, 81, 86
1, 395510, Control_c, 0, 67, 12
1, 395518, Note_off_c, 0, 78, 62
1, 395524, Control_c, 0, 67, 17
1, 395539, Control_c, 0, 67, 22
1, 395544, Note_on_c, 0, 49, 87
1, 395554, Control_c, 0, 67, 28
1, 395569, Control_c, 0, 67, 32
1, 395574, Note_on_c, 0, 78, 89
1, 395584, Control_c, 0, 67, 35
1, 395588, Note_off_c, 0, 81, 61
1, 395589, Note_on_c, 0, 73, 84
1, 395598, Control_c, 0, 67, 37
1, 395613, Control_c, 0, 67, 38
1, 395628, Control_c, 0, 67, 39
1, 395640, Note_off_c, 0, 73, 60
1, 395644, Control_c, 0, 67, 40
1, 395651, Note_on_c, 0, 81, 81
1, 395666, Note_off_c, 0, 78, 64
1, 395703, Note_on_c, 0, 45, 81
1, 395718, Control_c, 0, 67, 39
1, 395722, Note_off_c, 0, 49, 59
1, 395723, Note_on_c, 0, 78, 91
1, 395731, Note_off_c, 0, 42, 59
1, 395733, Control_c, 0, 67, 39
1, 395740, Note_off_c, 0, 81, 62
1, 395740, Note_on_c, 0, 73, 85
1, 395747, Control_c, 0, 67, 38
1, 395762, Control_c, 0, 64, 27
1, 395762, Control_c, 0, 67, 37
1, 395777, Control_c, 0, 64, 59
1, 395777, Control_c, 0, 67, 36
1, 395786, Note_off_c, 0, 73, 56
1, 395792, Control_c, 0, 64, 64
1, 395792, Control_c, 0, 67, 35
1, 395805, Note_on_c, 0, 81, 78
1, 395807, Control_c, 0, 64, 66
1, 395807, Control_c, 0, 67, 33
1, 395818, Note_off_c, 0, 78, 65
1, 395829, Control_c, 0, 64, 68
1, 395829, Control_c, 0, 67, 29
1, 395844, Control_c, 0, 64, 70
1, 395844, Control_c, 0, 67, 23
1, 395859, Control_c, 0, 64, 73
1, 395859, Control_c, 0, 67, 12
1, 395873, Control_c, 0, 64, 74
1, 395873, Control_c, 0, 67, 0
1, 395880, Note_on_c, 0, 78, 85
1, 395888, Control_c, 0, 64, 75
1, 395893, Note_on_c, 0, 49, 83
1, 395903, Note_on_c, 0, 73, 73
1, 395904, Note_off_c, 0, 81, 60
1, 395920, Note_off_c, 0, 73, 61
1, 395952, Note_on_c, 0, 81, 65
1, 395957, Note_off_c, 0, 45, 55
1, 395967, Note_off_c, 0, 78, 64
1, 395977, Control_c, 0, 64, 74
1, 395992, Control_c, 0, 64, 71
1, 396007, Control_c, 0, 64, 52
1, 396016, Note_off_c, 0, 49, 57
1, 396021, Control_c, 0, 64, 0
1, 396046, Note_on_c, 0, 78, 82
1, 396048, Note_on_c, 0, 42, 90
1, 396052, Note_off_c, 0, 81, 60
1, 396067, Note_on_c, 0, 73, 67
1, 396095, Control_c, 0, 64, 61
1, 396110, Control_c, 0, 64, 67
1, 396112, Note_off_c, 0, 73, 44
1, 396116, Note_on_c, 0, 81, 72
1, 396125, Control_c, 0, 64, 72
1, 396139, Control_c, 0, 64, 76
1, 396153, Note_off_c, 0, 78, 59
1, 396154, Control_c, 0, 64, 79
1, 396169, Control_c, 0, 64, 80
1, 396210, Note_off_c, 0, 81, 58
1, 396215, Note_on_c, 0, 78, 52
1, 396217, Note_on_c, 0, 73, 89
1, 396218, Note_on_c, 0, 69, 80
1, 396225, Note_on_c, 0, 54, 87
1, 396235, Note_off_c, 0, 78, 59
1, 396263, Note_off_c, 0, 69, 62
1, 396300, Note_off_c, 0, 73, 65
1, 396303, Note_on_c, 0, 78, 79
1, 396310, Note_off_c, 0, 54, 61
1, 396350, Note_on_c, 0, 79, 38
1, 396379, Note_off_c, 0, 79, 35
1, 396390, Note_on_c, 0, 73, 88
1, 396391, Control_c, 0, 64, 79
1, 396399, Note_on_c, 0, 38, 92
1, 396399, Note_on_c, 0, 66, 89
1, 396406, Control_c, 0, 64, 72
1, 396412, Note_off_c, 0, 78, 62
1, 396421, Control_c, 0, 64, 50
1, 396437, Control_c, 0, 64, 0
1, 396441, Note_on_c, 0, 41, 25
1, 396458, Note_off_c, 0, 66, 63
1, 396465, Note_off_c, 0, 42, 38
1, 396486, Note_off_c, 0, 41, 44
1, 396493, Note_off_c, 0, 73, 67
1, 396500, Note_on_c, 0, 78, 79
1, 396569, Note_on_c, 0, 72, 76
1, 396572, Note_on_c, 0, 66, 83
1, 396584, Note_on_c, 0, 50, 89
1, 396592, Note_off_c, 0, 78, 61
1, 396622, Note_off_c, 0, 66, 62
1, 396629, Note_off_c, 0, 38, 62
1, 396646, Note_on_c, 0, 78, 77
1, 396656, Note_off_c, 0, 50, 59
1, 396670, Note_off_c, 0, 72, 63
1, 396706, Note_off_c, 0, 78, 65
1, 396776, Note_on_c, 0, 73, 91
1, 396778, Note_on_c, 0, 65, 95
1, 396780, Note_on_c, 0, 77, 86
1, 396785, Control_c, 0, 64, 48
1, 396787, Note_on_c, 0, 37, 82
1, 396789, Note_on_c, 0, 49, 97
1, 396800, Control_c, 0, 64, 70
1, 396814, Control_c, 0, 64, 81
1, 396822, Note_off_c, 0, 65, 65
1, 396829, Control_c, 0, 64, 91
1, 396844, Note_off_c, 0, 37, 65
1, 396844, Control_c, 0, 64, 94
1, 396847, Note_off_c, 0, 49, 62
1, 396859, Control_c, 0, 64, 95
1, 396866, Note_off_c, 0, 73, 62
1, 396874, Control_c, 0, 64, 95
1, 396888, Control_c, 0, 64, 96
1, 396933, Control_c, 0, 67, 8
1, 396962, Control_c, 0, 67, 0
1, 396992, Control_c, 0, 64, 95
1, 397007, Control_c, 0, 64, 94
1, 397022, Control_c, 0, 64, 89
1, 397026, Note_on_c, 0, 73, 82
1, 397037, Control_c, 0, 64, 81
1, 397051, Control_c, 0, 64, 66
1, 397066, Control_c, 0, 64, 0
1, 397073, Note_off_c, 0, 77, 57
1, 397108, Note_on_c, 0, 71, 79
1, 397117, Note_off_c, 0, 73, 61
1, 397122, Note_on_c, 0, 69, 60
1, 397140, Note_off_c, 0, 69, 62
1, 397152, Note_off_c, 0, 71, 64
1, 397204, Note_on_c, 0, 71, 93
1, 397254, Note_on_c, 0, 69, 79
1, 397280, Note_off_c, 0, 71, 60
1, 397317, Note_off_c, 0, 69, 67
1, 397373, Note_on_c, 0, 71, 83
1, 397439, Note_on_c, 0, 69, 80
1, 397441, Note_off_c, 0, 71, 60
1, 397474, Note_off_c, 0, 69, 66
1, 397505, Note_on_c, 0, 69, 86
1, 397570, Note_on_c, 0, 68, 81
1, 397570, Note_off_c, 0, 69, 65
1, 397609, Note_off_c, 0, 68, 65
1, 397623, Control_c, 0, 67, 8
1, 397637, Control_c, 0, 67, 10
1, 397652, Control_c, 0, 67, 13
1, 397666, Note_on_c, 0, 69, 78
1, 397667, Control_c, 0, 67, 15
1, 397682, Control_c, 0, 67, 19
1, 397697, Control_c, 0, 67, 22
1, 397711, Control_c, 0, 67, 26
1, 397725, Note_off_c, 0, 69, 60
1, 397726, Control_c, 0, 67, 27
1, 397741, Control_c, 0, 67, 28
1, 397742, Note_on_c, 0, 68, 74
1, 397756, Control_c, 0, 67, 28
1, 397771, Control_c, 0, 67, 29
1, 397772, Note_off_c, 0, 68, 66
1, 397785, Control_c, 0, 67, 30
1, 397800, Control_c, 0, 67, 30
1, 397815, Note_on_c, 0, 68, 83
1, 397815, Control_c, 0, 67, 32
1, 397830, Control_c, 0, 67, 34
1, 397844, Control_c, 0, 67, 36
1, 397859, Control_c, 0, 67, 39
1, 397874, Control_c, 0, 67, 43
1, 397886, Note_on_c, 0, 66, 77
1, 397889, Note_off_c, 0, 68, 64
1, 397889, Control_c, 0, 67, 47
1, 397904, Control_c, 0, 67, 51
1, 397919, Control_c, 0, 67, 55
1, 397934, Control_c, 0, 67, 61
1, 397936, Note_off_c, 0, 66, 64
1, 397949, Control_c, 0, 67, 69
1, 397960, Note_on_c, 0, 68, 77
1, 397964, Control_c, 0, 67, 76
1, 397979, Control_c, 0, 67, 84
1, 397993, Control_c, 0, 67, 92
1, 398008, Control_c, 0, 67, 101
1, 398023, Control_c, 0, 67, 111
1, 398034, Note_on_c, 0, 66, 80
1, 398036, Note_off_c, 0, 68, 64
1, 398038, Control_c, 0, 67, 122
1, 398053, Control_c, 0, 67, 127
1, 398071, Note_off_c, 0, 66, 64
1, 398123, Note_on_c, 0, 66, 85
1, 398159, Note_on_c, 0, 67, 77
1, 398169, Note_off_c, 0, 66, 63
1, 398188, Note_on_c, 0, 65, 81
1, 398196, Note_off_c, 0, 67, 59
1, 398244, Note_off_c, 0, 65, 67
1, 398259, Note_on_c, 0, 66, 77
1, 398331, Note_on_c, 0, 65, 84
1, 398333, Note_off_c, 0, 66, 66
1, 398368, Note_off_c, 0, 65, 66
1, 398408, Note_on_c, 0, 65, 78
1, 398478, Note_on_c, 0, 62, 77
1, 398483, Note_off_c, 0, 65, 65
1, 398515, Note_off_c, 0, 62, 64
1, 398560, Note_on_c, 0, 65, 64
1, 398622, Note_on_c, 0, 62, 81
1, 398628, Note_off_c, 0, 65, 66
1, 398661, Note_off_c, 0, 62, 63
1, 398706, Note_on_c, 0, 62, 79
1, 398781, Note_off_c, 0, 62, 62
1, 398782, Note_on_c, 0, 61, 78
1, 398835, Note_off_c, 0, 61, 59
1, 398857, Note_on_c, 0, 62, 68
1, 398929, Note_off_c, 0, 62, 62
1, 398938, Note_on_c, 0, 61, 70
1, 398965, Note_off_c, 0, 61, 66
1, 399031, Note_on_c, 0, 61, 75
1, 399085, Note_on_c, 0, 60, 72
1, 399087, Note_off_c, 0, 61, 62
1, 399131, Note_off_c, 0, 60, 61
1, 399165, Note_on_c, 0, 61, 59
1, 399236, Note_off_c, 0, 61, 62
1, 399244, Note_on_c, 0, 60, 65
1, 399298, Note_off_c, 0, 60, 55
1, 399331, Note_on_c, 0, 61, 56
1, 399400, Note_off_c, 0, 61, 62
1, 399412, Note_on_c, 0, 59, 56
1, 399459, Note_off_c, 0, 59, 57
1, 399488, Note_on_c, 0, 61, 51
1, 399573, Note_off_c, 0, 61, 61
1, 399580, Note_on_c, 0, 59, 57
1, 399623, Note_off_c, 0, 59, 59
1, 399669, Note_on_c, 0, 61, 47
1, 399751, Note_on_c, 0, 57, 41
1, 399755, Note_off_c, 0, 61, 59
1, 399808, Note_off_c, 0, 57, 58
1, 399831, Note_on_c, 0, 61, 34
1, 399902, Note_off_c, 0, 61, 57
1, 399918, Note_on_c, 0, 57, 51
1, 399964, Note_off_c, 0, 57, 59
1, 400028, Note_on_c, 0, 61, 43
1, 400109, Note_off_c, 0, 61, 60
1, 400116, Note_on_c, 0, 56, 47
1, 400156, Note_off_c, 0, 56, 62
1, 400232, Note_on_c, 0, 61, 39
1, 400286, Note_off_c, 0, 61, 55
1, 400316, Note_on_c, 0, 56, 41
1, 400384, Note_off_c, 0, 56, 51
1, 400441, Control_c, 0, 64, 63
1, 400447, Note_on_c, 0, 42, 81
1, 400456, Control_c, 0, 64, 76
1, 400470, Control_c, 0, 64, 95
1, 400485, Control_c, 0, 64, 127
1, 400497, Note_off_c, 0, 42, 63
1, 400559, Control_c, 0, 67, 122
1, 400574, Control_c, 0, 67, 109
1, 400589, Control_c, 0, 67, 81
1, 400604, Control_c, 0, 67, 48
1, 400618, Control_c, 0, 67, 15
1, 400633, Control_c, 0, 67, 0
1, 400757, Note_on_c, 0, 61, 41
1, 400790, Note_on_c, 0, 58, 50
1, 400815, Note_off_c, 0, 61, 59
1, 400838, Note_off_c, 0, 58, 59
1, 400849, Note_on_c, 0, 66, 53
1, 400916, Note_off_c, 0, 66, 63
1, 400971, Note_on_c, 0, 66, 47
1, 401004, Note_on_c, 0, 61, 51
1, 401006, Note_off_c, 0, 66, 50
1, 401061, Note_off_c, 0, 61, 57
1, 401062, Note_on_c, 0, 70, 57
1, 401110, Note_off_c, 0, 70, 58
1, 401156, Note_on_c, 0, 70, 50
1, 401181, Note_on_c, 0, 66, 48
1, 401181, Note_off_c, 0, 70, 59
1, 401239, Note_off_c, 0, 66, 56
1, 401323, Note_on_c, 0, 73, 76
1, 401360, Note_off_c, 0, 73, 57
1, 401362, Note_on_c, 0, 70, 39
1, 401386, Note_off_c, 0, 70, 55
1, 401413, Note_on_c, 0, 78, 50
1, 401440, Note_off_c, 0, 78, 52
1, 401475, Note_on_c, 0, 73, 81
1, 401484, Note_on_c, 0, 78, 82
1, 401533, Note_off_c, 0, 78, 60
1, 401544, Note_off_c, 0, 73, 61
1, 401562, Note_on_c, 0, 82, 70
1, 401587, Note_off_c, 0, 82, 68
1, 401630, Note_on_c, 0, 78, 97
1, 401633, Note_on_c, 0, 82, 79
1, 401687, Note_off_c, 0, 82, 61
1, 401688, Note_off_c, 0, 78, 62
1, 401704, Note_on_c, 0, 85, 73
1, 401726, Note_off_c, 0, 85, 69
1, 401770, Note_on_c, 0, 82, 101
1, 401788, Note_on_c, 0, 85, 87
1, 401824, Note_off_c, 0, 82, 65
1, 401840, Note_off_c, 0, 85, 65
1, 401859, Note_on_c, 0, 90, 80
1, 401920, Note_on_c, 0, 85, 93
1, 401924, Note_on_c, 0, 94, 99
1, 401935, Note_off_c, 0, 85, 75
1, 401952, Note_off_c, 0, 94, 70
1, 401953, Note_off_c, 0, 90, 63
1, 402098, Note_on_c, 0, 69, 71
1, 402112, Note_on_c, 0, 54, 63
1, 402152, Note_off_c, 0, 69, 59
1, 402190, Control_c, 0, 64, 103
1, 402191, Note_on_c, 0, 73, 55
1, 402205, Control_c, 0, 64, 87
1, 402220, Control_c, 0, 64, 66
1, 402234, Control_c, 0, 64, 0
1, 402239, Note_off_c, 0, 73, 59
1, 402254, Note_off_c, 0, 54, 60
1, 402260, Note_on_c, 0, 66, 61
1, 402264, Note_on_c, 0, 57, 51
1, 402264, Control_c, 0, 67, 15
1, 402279, Control_c, 0, 67, 28
1, 402294, Control_c, 0, 67, 45
1, 402308, Control_c, 0, 67, 65
1, 402318, Note_off_c, 0, 66, 57
1, 402323, Control_c, 0, 67, 83
1, 402327, Note_on_c, 0, 73, 56
1, 402338, Control_c, 0, 67, 101
1, 402353, Control_c, 0, 67, 119
1, 402368, Control_c, 0, 67, 127
1, 402381, Note_off_c, 0, 73, 60
1, 402397, Note_off_c, 0, 57, 53
1, 402412, Note_on_c, 0, 69, 52
1, 402426, Note_on_c, 0, 54, 44
1, 402471, Note_off_c, 0, 69, 55
1, 402491, Note_on_c, 0, 73, 49
1, 402537, Note_off_c, 0, 73, 58
1, 402577, Note_off_c, 0, 54, 47
1, 402581, Note_on_c, 0, 66, 51
1, 402599, Note_on_c, 0, 57, 44
1, 402629, Note_off_c, 0, 66, 60
1, 402656, Note_on_c, 0, 73, 48
1, 402713, Note_off_c, 0, 57, 46
1, 402721, Note_off_c, 0, 73, 50
1, 402733, Note_on_c, 0, 69, 57
1, 402754, Note_on_c, 0, 54, 42
1, 402779, Note_off_c, 0, 69, 58
1, 402814, Note_on_c, 0, 73, 43
1, 402883, Note_off_c, 0, 73, 57
1, 402921, Note_on_c, 0, 71, 47
1, 402922, Note_off_c, 0, 54, 35
1, 402933, Note_on_c, 0, 49, 25
1, 402937, Note_on_c, 0, 56, 36
1, 402960, Note_off_c, 0, 71, 54
1, 402988, Note_on_c, 0, 73, 48
1, 403043, Note_off_c, 0, 73, 55
1, 403087, Note_on_c, 0, 68, 45
1, 403091, Note_off_c, 0, 56, 29
1, 403113, Note_on_c, 0, 53, 11
1, 403113, Note_off_c, 0, 49, 37
1, 403152, Note_off_c, 0, 68, 57
1, 403158, Note_off_c, 0, 53, 28
1, 403263, Poly_aftertouch_c, 0, 73, 0
1, 403294, Control_c, 0, 64, 59
1, 403317, Control_c, 0, 64, 68
1, 403328, Note_on_c, 0, 42, 73
1, 403331, Control_c, 0, 64, 78
1, 403346, Control_c, 0, 64, 91
1, 403361, Note_off_c, 0, 42, 67
1, 403361, Control_c, 0, 64, 102
1, 403376, Control_c, 0, 64, 108
1, 403390, Control_c, 0, 64, 111
1, 403405, Control_c, 0, 64, 114
1, 403405, Control_c, 0, 67, 125
1, 403420, Control_c, 0, 64, 118
1, 403420, Control_c, 0, 67, 113
1, 403435, Control_c, 0, 64, 120
1, 403435, Control_c, 0, 67, 105
1, 403450, Control_c, 0, 64, 121
1, 403450, Control_c, 0, 67, 97
1, 403464, Control_c, 0, 64, 123
1, 403464, Control_c, 0, 67, 89
1, 403479, Control_c, 0, 64, 124
1, 403479, Control_c, 0, 67, 79
1, 403494, Control_c, 0, 64, 127
1, 403494, Control_c, 0, 67, 68
1, 403509, Control_c, 0, 64, 127
1, 403509, Control_c, 0, 67, 57
1, 403524, Control_c, 0, 67, 44
1, 403538, Control_c, 0, 67, 35
1, 403553, Control_c, 0, 67, 27
1, 403568, Control_c, 0, 67, 22
1, 403583, Control_c, 0, 67, 18
1, 403598, Control_c, 0, 67, 15
1, 403612, Control_c, 0, 67, 11
1, 403628, Control_c, 0, 67, 8
1, 403643, Control_c, 0, 67, 0
1, 403650, Note_on_c, 0, 61, 44
1, 403656, Note_on_c, 0, 58, 53
1, 403699, Note_off_c, 0, 61, 58
1, 403706, Note_off_c, 0, 58, 58
1, 403749, Note_on_c, 0, 66, 50
1, 403785, Note_off_c, 0, 66, 67
1, 403859, Note_on_c, 0, 61, 56
1, 403880, Control_c, 0, 67, 8
1, 403895, Poly_aftertouch_c, 0, 68, 127
1, 403906, Note_off_c, 0, 61, 56
1, 403928, Note_on_c, 0, 70, 61
1, 403930, Poly_aftertouch_c, 0, 68, 0
1, 403967, Note_off_c, 0, 70, 58
1, 404032, Note_on_c, 0, 66, 63
1, 404080, Control_c, 0, 67, 0
1, 404108, Note_off_c, 0, 66, 61
1, 404129, Poly_aftertouch_c, 0, 70, 0
1, 404188, Note_on_c, 0, 70, 90
1, 404204, Note_on_c, 0, 73, 49
1, 404218, Poly_aftertouch_c, 0, 75, 127
1, 404227, Note_off_c, 0, 70, 62
1, 404227, Note_off_c, 0, 73, 53
1, 404248, Poly_aftertouch_c, 0, 75, 0
1, 404254, Note_on_c, 0, 78, 79
1, 404277, Note_off_c, 0, 78, 56
1, 404318, Note_on_c, 0, 73, 87
1, 404333, Note_on_c, 0, 80, 87
1, 404383, Note_off_c, 0, 80, 62
1, 404389, Note_off_c, 0, 73, 64
1, 404471, Note_on_c, 0, 82, 84
1, 404478, Note_on_c, 0, 78, 106
1, 404523, Note_off_c, 0, 82, 62
1, 404539, Note_off_c, 0, 78, 59
1, 404548, Note_on_c, 0, 85, 74
1, 404570, Note_off_c, 0, 85, 68
1, 404615, Note_on_c, 0, 82, 102
1, 404625, Note_on_c, 0, 85, 86
1, 404656, Note_off_c, 0, 82, 67
1, 404671, Note_off_c, 0, 85, 59
1, 404695, Note_on_c, 0, 90, 82
1, 404748, Note_off_c, 0, 90, 65
1, 404766, Note_on_c, 0, 85, 93
1, 404767, Note_on_c, 0, 94, 102
1, 404780, Note_off_c, 0, 85, 75
1, 404793, Note_off_c, 0, 94, 70
1, 404889, Control_c, 0, 67, 9
1, 404903, Control_c, 0, 67, 26
1, 404918, Control_c, 0, 67, 60
1, 404933, Control_c, 0, 67, 121
1, 404948, Control_c, 0, 67, 127
1, 404963, Control_c, 0, 64, 107
1, 404968, Note_on_c, 0, 69, 68
1, 404978, Control_c, 0, 64, 93
1, 404991, Note_on_c, 0, 54, 50
1, 404993, Control_c, 0, 64, 79
1, 405002, Note_off_c, 0, 69, 60
1, 405008, Control_c, 0, 64, 56
1, 405022, Control_c, 0, 64, 0
1, 405030, Note_on_c, 0, 73, 43
1, 405082, Note_off_c, 0, 73, 59
1, 405107, Note_on_c, 0, 66, 60
1, 405111, Note_off_c, 0, 54, 48
1, 405133, Note_on_c, 0, 57, 50
1, 405173, Note_off_c, 0, 66, 58
1, 405179, Note_on_c, 0, 73, 53
1, 405232, Note_off_c, 0, 73, 58
1, 405266, Note_on_c, 0, 69, 51
1, 405273, Note_off_c, 0, 57, 55
1, 405293, Note_on_c, 0, 54, 45
1, 405312, Note_off_c, 0, 69, 61
1, 405336, Note_on_c, 0, 73, 52
1, 405398, Note_off_c, 0, 73, 58
1, 405410, Note_off_c, 0, 54, 46
1, 405428, Note_on_c, 0, 57, 42
1, 405429, Note_on_c, 0, 66, 51
1, 405481, Note_off_c, 0, 66, 59
1, 405493, Note_on_c, 0, 73, 44
1, 405535, Note_off_c, 0, 57, 50
1, 405565, Note_off_c, 0, 73, 58
1, 405585, Note_on_c, 0, 69, 52
1, 405589, Note_on_c, 0, 54, 47
1, 405628, Note_off_c, 0, 69, 63
1, 405651, Note_on_c, 0, 73, 38
1, 405720, Note_off_c, 0, 73, 58
1, 405750, Note_on_c, 0, 71, 50
1, 405765, Note_on_c, 0, 49, 24
1, 405769, Note_on_c, 0, 56, 38
1, 405786, Note_off_c, 0, 54, 37
1, 405794, Note_off_c, 0, 71, 56
1, 405842, Note_on_c, 0, 73, 42
1, 405882, Note_off_c, 0, 73, 49
1, 405905, Control_c, 0, 64, 28
1, 405913, Note_off_c, 0, 56, 35
1, 405917, Note_on_c, 0, 68, 49
1, 405920, Control_c, 0, 64, 0
1, 405932, Note_on_c, 0, 53, 39
1, 405982, Note_off_c, 0, 68, 53
1, 405985, Note_off_c, 0, 49, 32
1, 406000, Note_on_c, 0, 73, 44
1, 406096, Note_on_c, 0, 66, 40
1, 406100, Note_off_c, 0, 53, 43
1, 406112, Note_off_c, 0, 73, 35
1, 406143, Note_on_c, 0, 54, 32
1, 406164, Note_on_c, 0, 69, 52
1, 406172, Note_off_c, 0, 66, 41
1, 406210, Note_off_c, 0, 69, 64
1, 406212, Note_off_c, 0, 54, 40
1, 406285, Note_on_c, 0, 69, 46
1, 406322, Note_on_c, 0, 54, 49
1, 406366, Note_off_c, 0, 69, 56
1, 406386, Control_c, 0, 64, 57
1, 406394, Note_on_c, 0, 78, 53
1, 406400, Control_c, 0, 64, 64
1, 406415, Control_c, 0, 64, 66
1, 406430, Control_c, 0, 64, 67
1, 406434, Note_off_c, 0, 54, 55
1, 406445, Control_c, 0, 64, 69
1, 406459, Note_off_c, 0, 78, 58
1, 406460, Control_c, 0, 64, 70
1, 406478, Note_on_c, 0, 68, 55
1, 406489, Control_c, 0, 64, 69
1, 406492, Note_on_c, 0, 61, 44
1, 406504, Control_c, 0, 64, 68
1, 406519, Control_c, 0, 64, 64
1, 406522, Note_off_c, 0, 68, 62
1, 406534, Control_c, 0, 64, 49
1, 406534, Control_c, 0, 67, 127
1, 406549, Control_c, 0, 64, 0
1, 406549, Control_c, 0, 67, 122
1, 406564, Control_c, 0, 67, 119
1, 406567, Note_on_c, 0, 77, 37
1, 406578, Control_c, 0, 67, 115
1, 406593, Control_c, 0, 67, 111
1, 406596, Note_off_c, 0, 77, 48
1, 406608, Control_c, 0, 67, 106
1, 406623, Control_c, 0, 67, 103
1, 406627, Note_off_c, 0, 61, 54
1, 406638, Control_c, 0, 67, 100
1, 406641, Note_on_c, 0, 77, 58
1, 406651, Note_on_c, 0, 49, 55
1, 406653, Control_c, 0, 67, 96
1, 406668, Control_c, 0, 67, 93
1, 406682, Control_c, 0, 67, 88
1, 406697, Control_c, 0, 64, 58
1, 406697, Control_c, 0, 67, 83
1, 406712, Control_c, 0, 64, 64
1, 406712, Control_c, 0, 67, 80
1, 406723, Note_on_c, 0, 80, 58
1, 406727, Control_c, 0, 64, 65
1, 406727, Control_c, 0, 67, 79
1, 406739, Note_off_c, 0, 77, 51
1, 406756, Control_c, 0, 64, 65
1, 406756, Control_c, 0, 67, 78
1, 406757, Note_off_c, 0, 80, 65
1, 406773, Note_off_c, 0, 49, 59
1, 406786, Control_c, 0, 67, 79
1, 406787, Note_on_c, 0, 69, 68
1, 406800, Control_c, 0, 64, 64
1, 406800, Control_c, 0, 67, 80
1, 406804, Note_on_c, 0, 54, 68
1, 406815, Control_c, 0, 64, 57
1, 406815, Control_c, 0, 67, 81
1, 406831, Control_c, 0, 64, 0
1, 406831, Control_c, 0, 67, 82
1, 406847, Note_off_c, 0, 69, 58
1, 406865, Note_on_c, 0, 78, 72
1, 406894, Note_off_c, 0, 78, 61
1, 406946, Note_off_c, 0, 54, 59
1, 406947, Note_on_c, 0, 78, 71
1, 406949, Note_on_c, 0, 42, 77
1, 406965, Control_c, 0, 67, 83
1, 406979, Control_c, 0, 67, 83
1, 406994, Control_c, 0, 67, 84
1, 407009, Control_c, 0, 64, 60
1, 407009, Control_c, 0, 67, 85
1, 407023, Control_c, 0, 64, 68
1, 407023, Control_c, 0, 67, 85
1, 407026, Note_off_c, 0, 78, 61
1, 407026, Note_on_c, 0, 81, 69
1, 407038, Control_c, 0, 64, 73
1, 407038, Control_c, 0, 67, 86
1, 407061, Control_c, 0, 64, 76
1, 407076, Control_c, 0, 64, 77
1, 407076, Control_c, 0, 67, 87
1, 407082, Note_off_c, 0, 42, 60
1, 407091, Control_c, 0, 64, 76
1, 407091, Control_c, 0, 67, 87
1, 407104, Note_off_c, 0, 81, 59
1, 407105, Control_c, 0, 64, 69
1, 407105, Control_c, 0, 67, 89
1, 407106, Note_on_c, 0, 49, 76
1, 407109, Note_on_c, 0, 77, 71
1, 407120, Control_c, 0, 64, 19
1, 407120, Control_c, 0, 67, 91
1, 407135, Control_c, 0, 64, 0
1, 407135, Control_c, 0, 67, 93
1, 407150, Control_c, 0, 67, 94
1, 407165, Control_c, 0, 67, 96
1, 407180, Note_off_c, 0, 77, 61
1, 407189, Note_on_c, 0, 80, 67
1, 407194, Control_c, 0, 67, 96
1, 407217, Note_off_c, 0, 80, 66
1, 407223, Control_c, 0, 64, 53
1, 407223, Control_c, 0, 67, 96
1, 407238, Control_c, 0, 64, 66
1, 407238, Control_c, 0, 67, 95
1, 407253, Control_c, 0, 64, 68
1, 407253, Control_c, 0, 67, 95
1, 407264, Note_on_c, 0, 37, 60
1, 407267, Note_on_c, 0, 80, 72
1, 407268, Note_off_c, 0, 49, 58
1, 407268, Control_c, 0, 64, 69
1, 407268, Control_c, 0, 67, 94
1, 407283, Control_c, 0, 64, 68
1, 407297, Control_c, 0, 64, 64
1, 407300, Note_off_c, 0, 37, 67
1, 407312, Control_c, 0, 64, 48
1, 407312, Control_c, 0, 67, 95
1, 407327, Control_c, 0, 64, 0
1, 407327, Control_c, 0, 67, 95
1, 407336, Note_on_c, 0, 83, 63
1, 407344, Note_off_c, 0, 80, 55
1, 407356, Control_c, 0, 67, 95
1, 407366, Note_off_c, 0, 83, 57
1, 407371, Control_c, 0, 67, 94
1, 407386, Control_c, 0, 67, 94
1, 407401, Control_c, 0, 67, 92
1, 407416, Control_c, 0, 67, 90
1, 407418, Note_on_c, 0, 69, 66
1, 407422, Note_on_c, 0, 54, 55
1, 407431, Control_c, 0, 67, 88
1, 407446, Control_c, 0, 67, 86
1, 407461, Control_c, 0, 67, 84
1, 407461, Note_off_c, 0, 54, 62
1, 407463, Note_off_c, 0, 69, 64
1, 407476, Control_c, 0, 67, 79
1, 407485, Note_on_c, 0, 78, 75
1, 407490, Control_c, 0, 67, 70
1, 407504, Control_c, 0, 67, 61
1, 407510, Note_off_c, 0, 78, 64
1, 407519, Control_c, 0, 67, 56
1, 407534, Control_c, 0, 67, 54
1, 407548, Control_c, 0, 67, 52
1, 407560, Note_on_c, 0, 54, 68
1, 407563, Control_c, 0, 67, 50
1, 407568, Note_on_c, 0, 78, 71
1, 407578, Control_c, 0, 67, 49
1, 407608, Control_c, 0, 64, 24
1, 407624, Control_c, 0, 64, 61
1, 407639, Note_on_c, 0, 81, 76
1, 407639, Control_c, 0, 64, 65
1, 407639, Control_c, 0, 67, 48
1, 407643, Note_off_c, 0, 78, 62
1, 407653, Control_c, 0, 64, 67
1, 407668, Control_c, 0, 64, 70
1, 407673, Note_off_c, 0, 54, 60
1, 407683, Control_c, 0, 64, 74
1, 407698, Control_c, 0, 64, 77
1, 407698, Control_c, 0, 67, 49
1, 407713, Control_c, 0, 64, 79
1, 407717, Note_on_c, 0, 77, 80
1, 407718, Note_on_c, 0, 61, 71
1, 407720, Note_off_c, 0, 81, 60
1, 407727, Control_c, 0, 64, 80
1, 407772, Control_c, 0, 67, 50
1, 407779, Note_off_c, 0, 77, 61
1, 407787, Control_c, 0, 64, 78
1, 407800, Note_on_c, 0, 80, 85
1, 407809, Control_c, 0, 64, 73
1, 407824, Control_c, 0, 64, 65
1, 407834, Note_off_c, 0, 80, 63
1, 407839, Control_c, 0, 64, 0
1, 407869, Note_off_c, 0, 61, 61
1, 407882, Note_on_c, 0, 80, 85
1, 407883, Control_c, 0, 64, 61
1, 407883, Control_c, 0, 67, 49
1, 407887, Note_on_c, 0, 49, 73
1, 407898, Control_c, 0, 64, 67
1, 407898, Control_c, 0, 67, 48
1, 407913, Control_c, 0, 64, 71
1, 407913, Control_c, 0, 67, 48
1, 407927, Control_c, 0, 64, 77
1, 407927, Control_c, 0, 67, 47
1, 407942, Control_c, 0, 64, 81
1, 407942, Control_c, 0, 67, 44
1, 407944, Note_on_c, 0, 83, 77
1, 407957, Control_c, 0, 64, 82
1, 407957, Control_c, 0, 67, 40
1, 407962, Note_off_c, 0, 80, 64
1, 407971, Control_c, 0, 64, 82
1, 407971, Control_c, 0, 67, 32
1, 407985, Note_off_c, 0, 83, 64
1, 407986, Control_c, 0, 67, 26
1, 407991, Note_off_c, 0, 49, 59
1, 408001, Control_c, 0, 67, 20
1, 408016, Control_c, 0, 67, 13
1, 408027, Note_on_c, 0, 54, 82
1, 408030, Note_on_c, 0, 78, 95
1, 408031, Control_c, 0, 64, 79
1, 408031, Control_c, 0, 67, 0
1, 408045, Control_c, 0, 64, 71
1, 408060, Control_c, 0, 64, 39
1, 408075, Control_c, 0, 64, 0
1, 408096, Note_off_c, 0, 78, 63
1, 408100, Note_on_c, 0, 82, 43
1, 408102, Note_on_c, 0, 81, 79
1, 408105, Control_c, 0, 64, 59
1, 408120, Control_c, 0, 64, 66
1, 408126, Note_off_c, 0, 81, 63
1, 408128, Note_off_c, 0, 82, 39
1, 408134, Control_c, 0, 64, 71
1, 408149, Control_c, 0, 64, 77
1, 408164, Control_c, 0, 64, 81
1, 408173, Note_off_c, 0, 54, 53
1, 408179, Control_c, 0, 64, 81
1, 408180, Note_on_c, 0, 81, 90
1, 408182, Note_on_c, 0, 42, 88
1, 408224, Control_c, 0, 64, 77
1, 408230, Note_off_c, 0, 81, 64
1, 408239, Control_c, 0, 64, 68
1, 408253, Control_c, 0, 64, 0
1, 408254, Note_on_c, 0, 90, 91
1, 408307, Note_off_c, 0, 42, 61
1, 408328, Note_on_c, 0, 80, 84
1, 408331, Note_on_c, 0, 49, 86
1, 408334, Note_on_c, 0, 82, 69
1, 408342, Note_off_c, 0, 90, 63
1, 408342, Control_c, 0, 64, 63
1, 408357, Control_c, 0, 64, 71
1, 408369, Note_off_c, 0, 82, 62
1, 408371, Control_c, 0, 64, 79
1, 408386, Note_off_c, 0, 80, 64
1, 408386, Control_c, 0, 64, 85
1, 408393, Note_on_c, 0, 89, 87
1, 408401, Control_c, 0, 64, 87
1, 408432, Control_c, 0, 64, 87
1, 408442, Note_off_c, 0, 89, 66
1, 408462, Control_c, 0, 64, 88
1, 408486, Note_on_c, 0, 89, 79
1, 408491, Control_c, 0, 67, 10
1, 408492, Note_on_c, 0, 37, 74
1, 408492, Note_off_c, 0, 49, 57
1, 408506, Control_c, 0, 67, 15
1, 408515, Note_on_c, 0, 92, 89
1, 408521, Control_c, 0, 67, 20
1, 408535, Note_off_c, 0, 37, 66
1, 408536, Control_c, 0, 67, 25
1, 408549, Note_off_c, 0, 89, 65
1, 408558, Control_c, 0, 64, 86
1, 408558, Control_c, 0, 67, 30
1, 408558, Note_off_c, 0, 92, 67
1, 408573, Control_c, 0, 64, 82
1, 408573, Control_c, 0, 67, 37
1, 408588, Control_c, 0, 64, 72
1, 408588, Control_c, 0, 67, 47
1, 408602, Control_c, 0, 64, 46
1, 408602, Control_c, 0, 67, 55
1, 408617, Control_c, 0, 64, 0
1, 408617, Control_c, 0, 67, 62
1, 408632, Control_c, 0, 67, 67
1, 408646, Note_on_c, 0, 66, 79
1, 408647, Control_c, 0, 67, 72
1, 408662, Control_c, 0, 67, 77
1, 408676, Control_c, 0, 67, 84
1, 408680, Note_on_c, 0, 54, 62
1, 408691, Control_c, 0, 67, 88
1, 408706, Control_c, 0, 67, 90
1, 408720, Note_off_c, 0, 66, 63
1, 408721, Control_c, 0, 67, 92
1, 408725, Note_off_c, 0, 54, 56
1, 408731, Note_on_c, 0, 69, 46
1, 408736, Control_c, 0, 67, 93
1, 408750, Control_c, 0, 67, 94
1, 408754, Note_off_c, 0, 69, 60
1, 408808, Note_on_c, 0, 69, 67
1, 408824, Control_c, 0, 67, 93
1, 408828, Note_on_c, 0, 54, 48
1, 408854, Control_c, 0, 67, 93
1, 408869, Note_off_c, 0, 69, 65
1, 408883, Control_c, 0, 67, 92
1, 408886, Note_on_c, 0, 78, 66
1, 408898, Control_c, 0, 67, 92
1, 408913, Control_c, 0, 64, 48
1, 408921, Note_off_c, 0, 54, 54
1, 408928, Control_c, 0, 64, 57
1, 408942, Control_c, 0, 64, 60
1, 408946, Note_off_c, 0, 78, 59
1, 408957, Control_c, 0, 64, 62
1, 408957, Control_c, 0, 67, 91
1, 408966, Note_on_c, 0, 68, 65
1, 408972, Control_c, 0, 64, 63
1, 408972, Control_c, 0, 67, 91
1, 408981, Note_on_c, 0, 61, 54
1, 408987, Control_c, 0, 64, 65
1, 408987, Control_c, 0, 67, 90
1, 408997, Note_off_c, 0, 68, 63
1, 409002, Control_c, 0, 64, 66
1, 409002, Control_c, 0, 67, 89
1, 409017, Control_c, 0, 64, 68
1, 409017, Control_c, 0, 67, 89
1, 409032, Control_c, 0, 64, 69
1, 409032, Control_c, 0, 67, 88
1, 409044, Note_on_c, 0, 77, 54
1, 409047, Control_c, 0, 64, 70
1, 409047, Control_c, 0, 67, 87
1, 409062, Control_c, 0, 64, 72
1, 409062, Control_c, 0, 67, 87
1, 409068, Note_off_c, 0, 77, 56
1, 409076, Control_c, 0, 64, 73
1, 409076, Control_c, 0, 67, 85
1, 409091, Control_c, 0, 64, 74
1, 409091, Control_c, 0, 67, 84
1, 409091, Note_off_c, 0, 61, 57
1, 409106, Control_c, 0, 64, 75
1, 409106, Control_c, 0, 67, 82
1, 409121, Control_c, 0, 64, 75
1, 409121, Control_c, 0, 67, 79
1, 409131, Note_on_c, 0, 77, 58
1, 409136, Control_c, 0, 67, 75
1, 409142, Note_on_c, 0, 49, 63
1, 409150, Control_c, 0, 67, 71
1, 409165, Control_c, 0, 67, 68
1, 409180, Control_c, 0, 67, 68
1, 409194, Control_c, 0, 64, 75
1, 409194, Control_c, 0, 67, 69
1, 409202, Note_on_c, 0, 80, 62
1, 409209, Control_c, 0, 64, 74
1, 409209, Control_c, 0, 67, 71
1, 409220, Note_off_c, 0, 77, 51
1, 409225, Control_c, 0, 64, 73
1, 409225, Control_c, 0, 67, 73
1, 409237, Note_off_c, 0, 49, 62
1, 409240, Control_c, 0, 64, 68
1, 409240, Control_c, 0, 67, 74
1, 409255, Control_c, 0, 64, 55
1, 409255, Control_c, 0, 67, 76
1, 409259, Note_off_c, 0, 80, 63
1, 409270, Control_c, 0, 64, 0
1, 409270, Control_c, 0, 67, 77
1, 409277, Note_on_c, 0, 69, 68
1, 409285, Control_c, 0, 67, 78
1, 409300, Note_on_c, 0, 54, 66
1, 409306, Control_c, 0, 67, 80
1, 409321, Control_c, 0, 67, 81
1, 409336, Control_c, 0, 67, 84
1, 409345, Note_off_c, 0, 69, 56
1, 409351, Control_c, 0, 64, 51
1, 409351, Control_c, 0, 67, 86
1, 409356, Note_on_c, 0, 78, 77
1, 409366, Control_c, 0, 64, 62
1, 409366, Control_c, 0, 67, 88
1, 409380, Control_c, 0, 64, 65
1, 409380, Control_c, 0, 67, 89
1, 409395, Control_c, 0, 64, 68
1, 409398, Note_off_c, 0, 78, 57
1, 409410, Control_c, 0, 64, 71
1, 409425, Control_c, 0, 64, 74
1, 409425, Control_c, 0, 67, 88
1, 409440, Control_c, 0, 64, 76
1, 409440, Control_c, 0, 67, 88
1, 409440, Note_on_c, 0, 78, 55
1, 409443, Note_on_c, 0, 42, 74
1, 409455, Control_c, 0, 64, 77
1, 409455, Control_c, 0, 67, 87
1, 409464, Note_off_c, 0, 54, 60
1, 409470, Control_c, 0, 64, 78
1, 409485, Note_on_c, 0, 44, 24
1, 409499, Control_c, 0, 67, 87
1, 409504, Note_on_c, 0, 81, 73
1, 409511, Note_off_c, 0, 78, 63
1, 409514, Control_c, 0, 67, 86
1, 409525, Note_off_c, 0, 44, 40
1, 409529, Control_c, 0, 67, 84
1, 409544, Control_c, 0, 67, 80
1, 409559, Control_c, 0, 64, 74
1, 409559, Control_c, 0, 67, 75
1, 409573, Control_c, 0, 64, 65
1, 409573, Control_c, 0, 67, 68
1, 409583, Note_on_c, 0, 49, 86
1, 409588, Control_c, 0, 64, 0
1, 409588, Control_c, 0, 67, 60
1, 409597, Note_on_c, 0, 77, 71
1, 409600, Note_off_c, 0, 81, 60
1, 409603, Control_c, 0, 67, 49
1, 409617, Control_c, 0, 67, 35
1, 409632, Control_c, 0, 67, 14
1, 409634, Note_off_c, 0, 42, 26
1, 409647, Control_c, 0, 67, 0
1, 409662, Control_c, 0, 64, 62
1, 409664, Note_on_c, 0, 80, 72
1, 409664, Note_off_c, 0, 77, 63
1, 409677, Control_c, 0, 64, 69
1, 409688, Note_off_c, 0, 80, 67
1, 409691, Control_c, 0, 64, 78
1, 409706, Control_c, 0, 64, 84
1, 409721, Control_c, 0, 64, 85
1, 409736, Control_c, 0, 64, 86
1, 409738, Note_on_c, 0, 37, 74
1, 409741, Note_on_c, 0, 80, 84
1, 409750, Control_c, 0, 64, 86
1, 409753, Note_off_c, 0, 49, 59
1, 409774, Note_off_c, 0, 37, 68
1, 409811, Note_on_c, 0, 83, 76
1, 409824, Note_off_c, 0, 80, 62
1, 409825, Control_c, 0, 64, 85
1, 409840, Control_c, 0, 64, 81
1, 409854, Note_off_c, 0, 83, 58
1, 409854, Control_c, 0, 64, 70
1, 409869, Control_c, 0, 64, 0
1, 409894, Note_on_c, 0, 54, 61
1, 409906, Note_on_c, 0, 69, 69
1, 409941, Note_off_c, 0, 69, 61
1, 409947, Note_off_c, 0, 54, 58
1, 409969, Note_on_c, 0, 78, 73
1, 409995, Note_off_c, 0, 78, 66
1, 410060, Note_on_c, 0, 78, 71
1, 410062, Note_on_c, 0, 54, 75
1, 410114, Control_c, 0, 64, 50
1, 410129, Control_c, 0, 64, 62
1, 410130, Note_on_c, 0, 81, 77
1, 410136, Note_off_c, 0, 78, 63
1, 410144, Control_c, 0, 64, 64
1, 410159, Control_c, 0, 64, 67
1, 410174, Control_c, 0, 64, 69
1, 410189, Control_c, 0, 64, 72
1, 410203, Note_off_c, 0, 54, 61
1, 410203, Control_c, 0, 64, 75
1, 410209, Note_on_c, 0, 77, 80
1, 410209, Note_off_c, 0, 81, 59
1, 410218, Control_c, 0, 64, 77
1, 410226, Note_on_c, 0, 61, 80
1, 410233, Control_c, 0, 64, 77
1, 410248, Control_c, 0, 64, 78
1, 410278, Control_c, 0, 64, 76
1, 410287, Note_off_c, 0, 77, 62
1, 410289, Note_on_c, 0, 80, 77
1, 410293, Control_c, 0, 64, 69
1, 410308, Control_c, 0, 64, 44
1, 410314, Note_off_c, 0, 80, 67
1, 410322, Control_c, 0, 64, 0
1, 410357, Note_on_c, 0, 80, 84
1, 410366, Control_c, 0, 64, 56
1, 410381, Control_c, 0, 64, 64
1, 410388, Note_on_c, 0, 49, 69
1, 410396, Control_c, 0, 64, 68
1, 410402, Note_off_c, 0, 61, 62
1, 410411, Control_c, 0, 64, 74
1, 410426, Control_c, 0, 64, 81
1, 410440, Control_c, 0, 64, 91
1, 410441, Note_on_c, 0, 83, 69
1, 410445, Note_off_c, 0, 80, 64
1, 410455, Control_c, 0, 64, 96
1, 410470, Control_c, 0, 64, 98
1, 410477, Note_off_c, 0, 83, 60
1, 410485, Control_c, 0, 64, 99
1, 410486, Note_off_c, 0, 49, 62
1, 410512, Note_on_c, 0, 78, 94
1, 410527, Note_on_c, 0, 54, 87
1, 410573, Control_c, 0, 64, 98
1, 410582, Note_off_c, 0, 78, 65
1, 410585, Note_on_c, 0, 81, 86
1, 410628, Note_off_c, 0, 81, 63
1, 410633, Control_c, 0, 64, 98
1, 410662, Control_c, 0, 64, 97
1, 410665, Note_on_c, 0, 81, 84
1, 410677, Note_on_c, 0, 42, 95
1, 410677, Control_c, 0, 64, 94
1, 410692, Control_c, 0, 64, 85
1, 410707, Control_c, 0, 64, 69
1, 410713, Note_off_c, 0, 54, 62
1, 410722, Control_c, 0, 64, 0
1, 410725, Note_on_c, 0, 41, 38
1, 410738, Note_on_c, 0, 90, 90
1, 410738, Note_off_c, 0, 81, 60
1, 410764, Note_on_c, 0, 87, 45
1, 410770, Note_off_c, 0, 41, 48
1, 410793, Note_off_c, 0, 87, 61
1, 410803, Control_c, 0, 64, 51
1, 410819, Control_c, 0, 64, 65
1, 410826, Note_on_c, 0, 78, 104
1, 410833, Note_on_c, 0, 52, 104
1, 410834, Control_c, 0, 64, 71
1, 410848, Note_off_c, 0, 90, 65
1, 410849, Control_c, 0, 64, 75
1, 410864, Control_c, 0, 64, 79
1, 410868, Note_off_c, 0, 42, 61
1, 410878, Control_c, 0, 64, 80
1, 410893, Control_c, 0, 64, 81
1, 410907, Note_on_c, 0, 81, 80
1, 410916, Note_off_c, 0, 78, 63
1, 410951, Note_off_c, 0, 81, 61
1, 410990, Note_on_c, 0, 81, 82
1, 411002, Note_on_c, 0, 40, 93
1, 411026, Control_c, 0, 64, 80
1, 411035, Note_off_c, 0, 52, 61
1, 411041, Control_c, 0, 64, 76
1, 411056, Control_c, 0, 64, 68
1, 411063, Note_on_c, 0, 90, 93
1, 411071, Control_c, 0, 64, 0
1, 411072, Note_off_c, 0, 81, 62
1, 411149, Note_on_c, 0, 78, 95
1, 411160, Note_off_c, 0, 90, 64
1, 411170, Note_on_c, 0, 50, 101
1, 411188, Note_off_c, 0, 40, 53
1, 411204, Control_c, 0, 64, 63
1, 411219, Control_c, 0, 64, 69
1, 411235, Note_on_c, 0, 81, 80
1, 411235, Control_c, 0, 64, 73
1, 411244, Note_off_c, 0, 78, 65
1, 411250, Control_c, 0, 64, 76
1, 411264, Control_c, 0, 64, 78
1, 411279, Control_c, 0, 64, 79
1, 411280, Note_off_c, 0, 81, 61
1, 411327, Note_on_c, 0, 81, 82
1, 411342, Note_on_c, 0, 38, 87
1, 411382, Note_off_c, 0, 50, 55
1, 411383, Control_c, 0, 64, 76
1, 411397, Control_c, 0, 64, 65
1, 411402, Note_on_c, 0, 90, 93
1, 411408, Note_off_c, 0, 81, 65
1, 411412, Control_c, 0, 64, 0
1, 411492, Note_on_c, 0, 78, 103
1, 411501, Control_c, 0, 64, 64
1, 411503, Note_on_c, 0, 50, 93
1, 411515, Control_c, 0, 64, 71
1, 411521, Note_off_c, 0, 90, 64
1, 411530, Control_c, 0, 64, 77
1, 411543, Note_off_c, 0, 38, 60
1, 411553, Control_c, 0, 64, 81
1, 411568, Control_c, 0, 64, 81
1, 411585, Note_on_c, 0, 81, 75
1, 411592, Note_off_c, 0, 78, 64
1, 411628, Note_off_c, 0, 81, 58
1, 411628, Control_c, 0, 64, 81
1, 411643, Control_c, 0, 64, 79
1, 411658, Control_c, 0, 64, 72
1, 411667, Note_on_c, 0, 81, 67
1, 411673, Control_c, 0, 64, 55
1, 411688, Control_c, 0, 64, 0
1, 411696, Note_on_c, 0, 38, 73
1, 411713, Note_off_c, 0, 50, 59
1, 411750, Note_off_c, 0, 81, 62
1, 411764, Note_off_c, 0, 38, 63
1, 411768, Note_on_c, 0, 90, 74
1, 411811, Note_off_c, 0, 90, 62
1, 411866, Note_on_c, 0, 90, 85
1, 411873, Note_on_c, 0, 78, 95
1, 411873, Note_on_c, 0, 50, 104
1, 411873, Note_on_c, 0, 81, 84
1, 411875, Note_on_c, 0, 84, 77
1, 411883, Note_on_c, 0, 83, 80
1, 411887, Note_on_c, 0, 38, 86
1, 411902, Note_on_c, 0, 85, 44
1, 411909, Control_c, 0, 64, 62
1, 411912, Note_on_c, 0, 80, 29
1, 411913, Note_off_c, 0, 80, 127
1, 411924, Control_c, 0, 64, 71
1, 411935, Note_off_c, 0, 85, 54
1, 411939, Control_c, 0, 64, 81
1, 411954, Control_c, 0, 64, 91
1, 411959, Note_off_c, 0, 83, 29
1, 411968, Control_c, 0, 64, 97
1, 411983, Control_c, 0, 64, 100
1, 411998, Control_c, 0, 64, 100
1, 412012, Control_c, 0, 64, 101
1, 412025, Note_off_c, 0, 90, 65
1, 412063, Note_off_c, 0, 84, 0
1, 412063, Note_on_c, 0, 84, 6
1, 412084, Note_off_c, 0, 81, 57
1, 412093, Note_off_c, 0, 84, 58
1, 412117, Note_off_c, 0, 78, 62
1, 412205, Note_off_c, 0, 50, 59
1, 412205, Control_c, 0, 64, 100
1, 412215, Note_off_c, 0, 38, 62
1, 412219, Control_c, 0, 64, 95
1, 412234, Control_c, 0, 64, 83
1, 412249, Control_c, 0, 64, 62
1, 412264, Control_c, 0, 64, 0
1, 412279, Control_c, 0, 67, 10
1, 412301, Control_c, 0, 67, 12
1, 412316, Control_c, 0, 67, 16
1, 412331, Control_c, 0, 67, 23
1, 412345, Control_c, 0, 67, 31
1, 412360, Control_c, 0, 67, 41
1, 412375, Control_c, 0, 67, 50
1, 412390, Control_c, 0, 67, 56
1, 412405, Control_c, 0, 67, 60
1, 412421, Control_c, 0, 67, 63
1, 412436, Control_c, 0, 67, 64
1, 412445, Note_on_c, 0, 59, 81
1, 412450, Control_c, 0, 67, 65
1, 412510, Control_c, 0, 67, 65
1, 412515, Note_on_c, 0, 60, 86
1, 412522, Note_off_c, 0, 59, 63
1, 412539, Control_c, 0, 67, 64
1, 412560, Note_off_c, 0, 60, 65
1, 412568, Control_c, 0, 67, 64
1, 412583, Control_c, 0, 67, 65
1, 412592, Note_on_c, 0, 59, 89
1, 412598, Control_c, 0, 67, 65
1, 412613, Control_c, 0, 67, 66
1, 412628, Control_c, 0, 67, 66
1, 412668, Note_on_c, 0, 60, 82
1, 412684, Note_off_c, 0, 59, 63
1, 412702, Control_c, 0, 67, 66
1, 412716, Control_c, 0, 67, 65
1, 412722, Note_off_c, 0, 60, 63
1, 412731, Control_c, 0, 67, 65
1, 412740, Note_on_c, 0, 65, 83
1, 412746, Control_c, 0, 67, 64
1, 412761, Control_c, 0, 67, 63
1, 412776, Control_c, 0, 67, 63
1, 412805, Note_on_c, 0, 66, 90
1, 412809, Note_off_c, 0, 65, 66
1, 412853, Note_off_c, 0, 66, 68
1, 412865, Control_c, 0, 67, 63
1, 412880, Control_c, 0, 67, 64
1, 412888, Note_on_c, 0, 65, 87
1, 412909, Control_c, 0, 67, 64
1, 412924, Control_c, 0, 67, 65
1, 412959, Note_on_c, 0, 66, 83
1, 412981, Note_off_c, 0, 65, 67
1, 412983, Control_c, 0, 67, 65
1, 413022, Note_off_c, 0, 66, 67
1, 413026, Note_on_c, 0, 68, 79
1, 413065, Control_c, 0, 67, 66
1, 413080, Control_c, 0, 67, 66
1, 413085, Note_off_c, 0, 68, 66
1, 413103, Note_on_c, 0, 69, 84
1, 413110, Control_c, 0, 67, 67
1, 413124, Control_c, 0, 67, 67
1, 413147, Note_off_c, 0, 69, 64
1, 413183, Note_on_c, 0, 68, 88
1, 413254, Note_on_c, 0, 69, 86
1, 413271, Note_off_c, 0, 68, 66
1, 413303, Control_c, 0, 67, 67
1, 413317, Note_off_c, 0, 69, 65
1, 413329, Note_on_c, 0, 71, 81
1, 413347, Control_c, 0, 67, 66
1, 413377, Control_c, 0, 67, 67
1, 413391, Control_c, 0, 67, 67
1, 413400, Note_on_c, 0, 72, 83
1, 413401, Note_off_c, 0, 71, 59
1, 413435, Note_off_c, 0, 72, 62
1, 413465, Control_c, 0, 67, 68
1, 413472, Note_on_c, 0, 71, 83
1, 413480, Control_c, 0, 67, 68
1, 413548, Note_on_c, 0, 72, 80
1, 413564, Note_off_c, 0, 71, 62
1, 413569, Control_c, 0, 67, 68
1, 413600, Note_off_c, 0, 72, 67
1, 413607, Note_on_c, 0, 77, 76
1, 413658, Control_c, 0, 67, 67
1, 413673, Control_c, 0, 67, 68
1, 413673, Note_off_c, 0, 77, 63
1, 413676, Note_on_c, 0, 78, 83
1, 413688, Control_c, 0, 67, 68
1, 413714, Note_off_c, 0, 78, 65
1, 413718, Control_c, 0, 67, 69
1, 413732, Control_c, 0, 67, 70
1, 413747, Control_c, 0, 67, 71
1, 413762, Control_c, 0, 67, 74
1, 413765, Note_on_c, 0, 77, 72
1, 413776, Note_on_c, 0, 76, 69
1, 413777, Control_c, 0, 67, 79
1, 413798, Control_c, 0, 67, 81
1, 413810, Note_off_c, 0, 76, 51
1, 413813, Control_c, 0, 67, 83
1, 413828, Note_on_c, 0, 78, 83
1, 413828, Control_c, 0, 67, 84
1, 413853, Note_off_c, 0, 77, 59
1, 413858, Control_c, 0, 67, 84
1, 413892, Note_off_c, 0, 78, 66
1, 413903, Control_c, 0, 67, 85
1, 413903, Note_on_c, 0, 80, 73
1, 413962, Note_off_c, 0, 80, 63
1, 413983, Note_on_c, 0, 81, 76
1, 414006, Control_c, 0, 67, 84
1, 414007, Note_off_c, 0, 81, 64
1, 414051, Note_on_c, 0, 80, 79
1, 414096, Control_c, 0, 67, 85
1, 414115, Note_on_c, 0, 81, 72
1, 414132, Note_off_c, 0, 80, 63
1, 414141, Control_c, 0, 67, 85
1, 414170, Control_c, 0, 67, 86
1, 414177, Note_off_c, 0, 81, 61
1, 414183, Note_on_c, 0, 83, 66
1, 414237, Note_off_c, 0, 83, 59
1, 414245, Note_on_c, 0, 84, 72
1, 414271, Note_off_c, 0, 84, 67
1, 414304, Control_c, 0, 67, 85
1, 414319, Note_on_c, 0, 83, 67
1, 414348, Control_c, 0, 67, 84
1, 414363, Control_c, 0, 67, 84
1, 414378, Control_c, 0, 67, 83
1, 414395, Note_on_c, 0, 84, 68
1, 414399, Note_off_c, 0, 83, 61
1, 414407, Control_c, 0, 67, 83
1, 414422, Control_c, 0, 67, 82
1, 414437, Control_c, 0, 67, 82
1, 414438, Note_off_c, 0, 84, 65
1, 414452, Control_c, 0, 67, 81
1, 414454, Note_on_c, 0, 89, 66
1, 414481, Control_c, 0, 67, 81
1, 414496, Control_c, 0, 67, 80
1, 414500, Note_off_c, 0, 89, 64
1, 414526, Control_c, 0, 67, 81
1, 414528, Note_on_c, 0, 90, 63
1, 414548, Control_c, 0, 67, 82
1, 414562, Note_off_c, 0, 90, 66
1, 414563, Control_c, 0, 67, 84
1, 414578, Control_c, 0, 67, 85
1, 414593, Control_c, 0, 67, 86
1, 414608, Control_c, 0, 67, 88
1, 414609, Note_on_c, 0, 89, 58
1, 414622, Control_c, 0, 67, 94
1, 414637, Control_c, 0, 67, 109
1, 414652, Control_c, 0, 67, 127
1, 414658, Note_on_c, 0, 90, 57
1, 414691, Note_off_c, 0, 89, 61
1, 414712, Note_off_c, 0, 90, 58
1, 414740, Note_on_c, 0, 92, 48
1, 414785, Note_off_c, 0, 92, 62
1, 414791, Note_on_c, 0, 93, 64
1, 414838, Note_off_c, 0, 93, 50
1, 414877, Note_on_c, 0, 89, 48
1, 414928, Note_off_c, 0, 89, 63
1, 414944, Note_on_c, 0, 90, 58
1, 414973, Note_off_c, 0, 90, 66
1, 415021, Note_on_c, 0, 89, 45
1, 415073, Note_off_c, 0, 89, 63
1, 415096, Note_on_c, 0, 90, 49
1, 415155, Note_off_c, 0, 90, 41
1, 415177, Note_on_c, 0, 83, 38
1, 415236, Note_on_c, 0, 84, 51
1, 415238, Note_off_c, 0, 83, 55
1, 415301, Note_off_c, 0, 84, 58
1, 415320, Note_on_c, 0, 92, 52
1, 415394, Note_on_c, 0, 93, 51
1, 415399, Note_off_c, 0, 92, 54
1, 415434, Note_off_c, 0, 93, 58
1, 415474, Note_on_c, 0, 83, 54
1, 415523, Note_off_c, 0, 83, 55
1, 415543, Note_on_c, 0, 84, 50
1, 415583, Note_off_c, 0, 84, 62
1, 415621, Note_on_c, 0, 89, 45
1, 415671, Note_on_c, 0, 90, 58
1, 415674, Note_off_c, 0, 89, 56
1, 415709, Note_off_c, 0, 90, 64
1, 415760, Note_on_c, 0, 80, 53
1, 415808, Note_on_c, 0, 81, 53
1, 415817, Note_off_c, 0, 80, 55
1, 415860, Note_off_c, 0, 81, 60
1, 415897, Note_on_c, 0, 83, 59
1, 415942, Note_off_c, 0, 83, 60
1, 415965, Note_on_c, 0, 84, 58
1, 415998, Note_off_c, 0, 84, 66
1, 416051, Note_on_c, 0, 77, 54
1, 416091, Note_on_c, 0, 78, 61
1, 416099, Note_off_c, 0, 77, 59
1, 416120, Note_off_c, 0, 78, 66
1, 416195, Note_on_c, 0, 81, 64
1, 416247, Note_off_c, 0, 81, 62
1, 416263, Note_on_c, 0, 84, 62
1, 416308, Note_off_c, 0, 84, 61
1, 416341, Note_on_c, 0, 71, 57
1, 416397, Note_off_c, 0, 71, 59
1, 416403, Note_on_c, 0, 72, 56
1, 416444, Note_off_c, 0, 72, 64
1, 416481, Note_on_c, 0, 83, 62
1, 416544, Note_off_c, 0, 83, 62
1, 416552, Note_on_c, 0, 84, 67
1, 416592, Note_off_c, 0, 84, 60
1, 416633, Note_on_c, 0, 68, 53
1, 416690, Note_off_c, 0, 68, 58
1, 416702, Note_on_c, 0, 69, 50
1, 416753, Note_off_c, 0, 69, 58
1, 416790, Note_on_c, 0, 81, 57
1, 416845, Note_off_c, 0, 81, 58
1, 416870, Note_on_c, 0, 84, 47
1, 416913, Note_off_c, 0, 84, 51
1, 416929, Note_on_c, 0, 65, 31
1, 417003, Note_off_c, 0, 65, 54
1, 417005, Note_on_c, 0, 66, 41
1, 417047, Note_off_c, 0, 66, 51
1, 417094, Note_on_c, 0, 83, 44
1, 417142, Note_off_c, 0, 83, 50
1, 417164, Note_on_c, 0, 84, 38
1, 417196, Note_off_c, 0, 84, 55
1, 417251, Note_on_c, 0, 68, 38
1, 417316, Note_on_c, 0, 69, 35
1, 417316, Note_off_c, 0, 68, 42
1, 417369, Note_off_c, 0, 69, 46
1, 417397, Note_on_c, 0, 81, 46
1, 417458, Note_on_c, 0, 84, 44
1, 417458, Note_off_c, 0, 81, 47
1, 417492, Control_c, 0, 64, 39
1, 417500, Note_off_c, 0, 84, 49
1, 417506, Control_c, 0, 64, 59
1, 417528, Control_c, 0, 64, 64
1, 417543, Control_c, 0, 64, 67
1, 417555, Note_on_c, 0, 66, 43
1, 417557, Control_c, 0, 64, 69
1, 417572, Control_c, 0, 64, 72
1, 417587, Control_c, 0, 64, 75
1, 417602, Control_c, 0, 64, 78
1, 417617, Control_c, 0, 64, 79
1, 417618, Note_off_c, 0, 66, 63
1, 417629, Note_on_c, 0, 69, 38
1, 417632, Control_c, 0, 64, 79
1, 417647, Control_c, 0, 64, 80
1, 417657, Note_off_c, 0, 69, 48
1, 417710, Note_on_c, 0, 81, 52
1, 417757, Note_off_c, 0, 81, 61
1, 417765, Control_c, 0, 64, 79
1, 417774, Note_on_c, 0, 84, 56
1, 417794, Note_off_c, 0, 84, 59
1, 417795, Control_c, 0, 64, 79
1, 417810, Control_c, 0, 64, 78
1, 417825, Control_c, 0, 64, 77
1, 417839, Control_c, 0, 64, 75
1, 417854, Control_c, 0, 64, 72
1, 417855, Note_on_c, 0, 80, 61
1, 417869, Control_c, 0, 64, 67
1, 417884, Control_c, 0, 64, 57
1, 417896, Note_off_c, 0, 80, 65
1, 417897, Note_on_c, 0, 81, 55
1, 417899, Control_c, 0, 64, 36
1, 417913, Control_c, 0, 64, 10
1, 417925, Note_off_c, 0, 81, 59
1, 417928, Control_c, 0, 64, 0
1, 418017, Note_on_c, 0, 71, 42
1, 418076, Note_on_c, 0, 72, 48
1, 418087, Note_off_c, 0, 71, 41
1, 418110, Note_off_c, 0, 72, 55
1, 418162, Note_on_c, 0, 77, 27
1, 418194, Note_on_c, 0, 78, 61
1, 418199, Note_off_c, 0, 77, 48
1, 418255, Note_off_c, 0, 78, 58
1, 418314, Note_on_c, 0, 69, 52
1, 418360, Note_off_c, 0, 69, 59
1, 418387, Note_on_c, 0, 72, 36
1, 418428, Note_off_c, 0, 72, 47
1, 418456, Note_on_c, 0, 80, 55
1, 418503, Note_on_c, 0, 81, 51
1, 418539, Note_off_c, 0, 80, 61
1, 418559, Note_off_c, 0, 81, 55
1, 418642, Note_on_c, 0, 71, 22
1, 418677, Note_off_c, 0, 71, 52
1, 418682, Note_on_c, 0, 72, 42
1, 418729, Note_off_c, 0, 72, 47
1, 418743, Note_on_c, 0, 77, 25
1, 418814, Note_on_c, 0, 78, 44
1, 418851, Note_off_c, 0, 78, 50
1, 418884, Note_off_c, 0, 77, 36
1, 418915, Note_on_c, 0, 69, 46
1, 418964, Note_off_c, 0, 69, 51
1, 418969, Note_on_c, 0, 72, 38
1, 419012, Note_off_c, 0, 72, 47
1, 419060, Note_on_c, 0, 80, 49
1, 419122, Note_on_c, 0, 81, 51
1, 419134, Note_off_c, 0, 80, 57
1, 419179, Note_off_c, 0, 81, 52
1, 419210, Note_on_c, 0, 69, 44
1, 419273, Note_off_c, 0, 69, 60
1, 419282, Note_on_c, 0, 72, 43
1, 419328, Note_off_c, 0, 72, 47
1, 419365, Note_on_c, 0, 77, 45
1, 419446, Note_on_c, 0, 78, 35
1, 419463, Note_off_c, 0, 77, 41
1, 419478, Note_off_c, 0, 78, 52
1, 419504, Note_on_c, 0, 69, 43
1, 419559, Note_on_c, 0, 72, 42
1, 419568, Note_off_c, 0, 69, 56
1, 419610, Note_off_c, 0, 72, 43
1, 419674, Note_on_c, 0, 80, 39
1, 419724, Note_on_c, 0, 81, 52
1, 419736, Note_off_c, 0, 80, 46
1, 419748, Note_off_c, 0, 81, 56
1, 419804, Note_on_c, 0, 69, 48
1, 419871, Note_off_c, 0, 69, 65
1, 419916, Note_on_c, 0, 72, 35
1, 419949, Note_off_c, 0, 72, 62
1, 419972, Note_on_c, 0, 68, 43
1, 420040, Note_on_c, 0, 69, 50
1, 420063, Note_off_c, 0, 68, 60
1, 420096, Note_off_c, 0, 69, 58
1, 420146, Note_on_c, 0, 80, 51
1, 420199, Note_off_c, 0, 80, 60
1, 420213, Note_on_c, 0, 81, 48
1, 420261, Note_off_c, 0, 81, 46
1, 420314, Note_on_c, 0, 71, 41
1, 420383, Note_off_c, 0, 71, 56
1, 420395, Note_on_c, 0, 72, 40
1, 420433, Note_off_c, 0, 72, 53
1, 420462, Note_on_c, 0, 83, 39
1, 420532, Note_off_c, 0, 83, 37
1, 420540, Note_on_c, 0, 84, 41
1, 420598, Note_off_c, 0, 84, 44
1, 420633, Note_on_c, 0, 68, 37
1, 420714, Note_on_c, 0, 69, 42
1, 420749, Note_off_c, 0, 68, 33
1, 420777, Note_off_c, 0, 69, 60
1, 420778, Note_on_c, 0, 80, 48
1, 420827, Note_off_c, 0, 80, 49
1, 420851, Note_on_c, 0, 81, 54
1, 420924, Note_off_c, 0, 81, 58
1, 420971, Note_on_c, 0, 71, 45
1, 421042, Note_off_c, 0, 71, 45
1, 421061, Note_on_c, 0, 72, 38
1, 421112, Note_off_c, 0, 72, 49
1, 421178, Note_on_c, 0, 83, 30
1, 421255, Note_on_c, 0, 84, 56
1, 421261, Note_off_c, 0, 83, 37
1, 421303, Note_off_c, 0, 84, 60
1, 421417, Note_on_c, 0, 84, 96
1, 421419, Note_on_c, 0, 78, 95
1, 421420, Control_c, 0, 64, 42
1, 421422, Note_on_c, 0, 66, 86
1, 421423, Note_on_c, 0, 72, 84
1, 421430, Note_on_c, 0, 62, 69
1, 421435, Control_c, 0, 64, 68
1, 421450, Control_c, 0, 64, 80
1, 421465, Control_c, 0, 64, 92
1, 421480, Control_c, 0, 64, 100
1, 421495, Control_c, 0, 64, 105
1, 421510, Control_c, 0, 64, 110
1, 421513, Note_off_c, 0, 62, 61
1, 421524, Control_c, 0, 64, 116
1, 421539, Control_c, 0, 64, 124
1, 421546, Note_off_c, 0, 72, 58
1, 421554, Control_c, 0, 64, 127
1, 421578, Note_off_c, 0, 78, 63
1, 421578, Note_off_c, 0, 84, 63
1, 421761, Control_c, 0, 64, 126
1, 421776, Control_c, 0, 64, 124
1, 421791, Control_c, 0, 64, 121
1, 421805, Control_c, 0, 64, 118
1, 421820, Control_c, 0, 64, 114
1, 421821, Note_off_c, 0, 66, 61
1, 421823, Note_on_c, 0, 85, 95
1, 421830, Note_on_c, 0, 73, 84
1, 421834, Note_on_c, 0, 77, 76
1, 421835, Control_c, 0, 64, 108
1, 421836, Note_on_c, 0, 61, 68
1, 421838, Note_on_c, 0, 68, 74
1, 421844, Note_on_c, 0, 65, 63
1, 421850, Control_c, 0, 64, 101
1, 421865, Control_c, 0, 64, 91
1, 421879, Note_off_c, 0, 73, 62
1, 421879, Control_c, 0, 64, 79
1, 421882, Note_off_c, 0, 65, 60
1, 421885, Note_off_c, 0, 77, 56
1, 421885, Note_off_c, 0, 61, 59
1, 421891, Note_off_c, 0, 68, 62
1, 421894, Control_c, 0, 64, 65
1, 421906, Note_off_c, 0, 85, 63
1, 421909, Control_c, 0, 64, 0
1, 422011, Note_on_c, 0, 80, 96
1, 422022, Note_on_c, 0, 77, 77
1, 422022, Note_on_c, 0, 73, 86
1, 422030, Note_on_c, 0, 68, 77
1, 422036, Control_c, 0, 64, 55
1, 422037, Note_on_c, 0, 65, 60
1, 422038, Note_on_c, 0, 61, 70
1, 422051, Control_c, 0, 64, 67
1, 422054, Note_off_c, 0, 77, 62
1, 422058, Note_off_c, 0, 73, 63
1, 422066, Control_c, 0, 64, 74
1, 422072, Note_off_c, 0, 68, 64
1, 422072, Note_off_c, 0, 80, 68
1, 422073, Note_off_c, 0, 65, 67
1, 422081, Control_c, 0, 64, 81
1, 422096, Control_c, 0, 64, 84
1, 422100, Note_off_c, 0, 61, 65
1, 422110, Control_c, 0, 64, 85
1, 422125, Control_c, 0, 64, 85
1, 422140, Control_c, 0, 64, 86
1, 422243, Control_c, 0, 64, 85
1, 422258, Control_c, 0, 64, 83
1, 422273, Control_c, 0, 64, 79
1, 422288, Control_c, 0, 64, 73
1, 422303, Control_c, 0, 64, 65
1, 422318, Control_c, 0, 64, 25
1, 422333, Control_c, 0, 64, 0
1, 422640, Note_on_c, 0, 58, 45
1, 422647, Note_on_c, 0, 49, 44
1, 422675, Note_on_c, 0, 42, 25
1, 422717, Control_c, 0, 64, 42
1, 422732, Control_c, 0, 64, 57
1, 422746, Control_c, 0, 64, 61
1, 422761, Control_c, 0, 64, 62
1, 422783, Control_c, 0, 64, 63
1, 422814, Control_c, 0, 64, 62
1, 422829, Control_c, 0, 64, 62
1, 422844, Control_c, 0, 64, 60
1, 422858, Control_c, 0, 64, 57
1, 422873, Control_c, 0, 64, 50
1, 422888, Control_c, 0, 64, 28
1, 422903, Control_c, 0, 64, 0
1, 422927, Note_on_c, 0, 59, 41
1, 422930, Note_on_c, 0, 35, 35
1, 422931, Note_on_c, 0, 51, 43
1, 422964, Note_off_c, 0, 42, 41
1, 422970, Note_off_c, 0, 49, 38
1, 422981, Note_off_c, 0, 58, 19
1, 423051, Control_c, 0, 64, 28
1, 423066, Control_c, 0, 64, 56
1, 423081, Control_c, 0, 64, 60
1, 423125, Control_c, 0, 64, 60
1, 423140, Control_c, 0, 64, 58
1, 423155, Control_c, 0, 64, 53
1, 423169, Control_c, 0, 64, 29
1, 423184, Control_c, 0, 64, 0
1, 423185, Note_off_c, 0, 51, 57
1, 423221, Note_on_c, 0, 58, 49
1, 423223, Note_on_c, 0, 49, 20
1, 423232, Note_on_c, 0, 37, 35
1, 423239, Note_off_c, 0, 59, 35
1, 423261, Note_off_c, 0, 49, 43
1, 423280, Note_off_c, 0, 58, 52
1, 423288, Note_on_c, 0, 56, 48
1, 423289, Note_off_c, 0, 35, 40
1, 423295, Note_off_c, 0, 37, 56
1, 423323, Note_on_c, 0, 47, 45
1, 423325, Note_on_c, 0, 39, 34
1, 423362, Control_c, 0, 64, 22
1, 423376, Control_c, 0, 64, 60
1, 423391, Control_c, 0, 64, 64
1, 423395, Note_off_c, 0, 47, 54
1, 423406, Control_c, 0, 64, 65
1, 423421, Control_c, 0, 64, 66
1, 423436, Control_c, 0, 64, 67
1, 423450, Control_c, 0, 64, 67
1, 423465, Control_c, 0, 64, 68
1, 423495, Control_c, 0, 64, 67
1, 423510, Control_c, 0, 64, 67
1, 423513, Note_off_c, 0, 56, 61
1, 423529, Note_on_c, 0, 54, 47
1, 423532, Control_c, 0, 64, 65
1, 423547, Control_c, 0, 64, 63
1, 423556, Note_on_c, 0, 46, 45
1, 423562, Control_c, 0, 64, 56
1, 423565, Note_on_c, 0, 36, 32
1, 423576, Control_c, 0, 64, 39
1, 423591, Control_c, 0, 64, 0
1, 423593, Note_off_c, 0, 39, 37
1, 423594, Note_off_c, 0, 46, 53
1, 423750, Note_off_c, 0, 54, 52
1, 423769, Note_on_c, 0, 53, 50
1, 423794, Note_on_c, 0, 44, 35
1, 423824, Note_on_c, 0, 37, 25
1, 423832, Note_off_c, 0, 36, 37
1, 423978, Control_c, 0, 64, 33
1, 423993, Control_c, 0, 64, 55
1, 424008, Control_c, 0, 64, 60
1, 424023, Control_c, 0, 64, 63
1, 424038, Control_c, 0, 64, 64
1, 424052, Control_c, 0, 64, 66
1, 424064, Note_off_c, 0, 44, 42
1, 424067, Control_c, 0, 64, 68
1, 424082, Control_c, 0, 64, 69
1, 424097, Control_c, 0, 64, 71
1, 424112, Control_c, 0, 64, 72
1, 424126, Control_c, 0, 64, 72
1, 424156, Control_c, 0, 64, 72
1, 424171, Control_c, 0, 64, 71
1, 424186, Control_c, 0, 64, 67
1, 424200, Control_c, 0, 64, 59
1, 424201, Note_off_c, 0, 37, 58
1, 424215, Control_c, 0, 64, 0
1, 424237, Note_off_c, 0, 53, 65
1, 424564, Control_c, 0, 67, 113
1, 424579, Control_c, 0, 67, 101
1, 424594, Control_c, 0, 67, 89
1, 424609, Control_c, 0, 67, 77
1, 424623, Control_c, 0, 67, 63
1, 424638, Control_c, 0, 67, 49
1, 424653, Control_c, 0, 67, 35
1, 424668, Control_c, 0, 67, 18
1, 424679, Note_on_c, 0, 85, 91
1, 424683, Control_c, 0, 67, 0
1, 424684, Note_on_c, 0, 73, 91
1, 424696, Note_on_c, 0, 66, 65
1, 424697, Note_on_c, 0, 64, 67
1, 424786, Control_c, 0, 64, 52
1, 424801, Control_c, 0, 64, 65
1, 424816, Control_c, 0, 64, 68
1, 424831, Control_c, 0, 64, 71
1, 424845, Control_c, 0, 64, 75
1, 424860, Control_c, 0, 64, 78
1, 424868, Note_off_c, 0, 66, 55
1, 424875, Control_c, 0, 64, 80
1, 424890, Control_c, 0, 64, 80
1, 424905, Control_c, 0, 64, 81
1, 424949, Control_c, 0, 64, 81
1, 425049, Note_off_c, 0, 73, 51
1, 425105, Control_c, 0, 64, 81
1, 425149, Control_c, 0, 64, 80
1, 425164, Control_c, 0, 64, 80
1, 425179, Control_c, 0, 64, 78
1, 425194, Control_c, 0, 64, 75
1, 425209, Control_c, 0, 64, 69
1, 425215, Note_on_c, 0, 87, 86
1, 425222, Note_on_c, 0, 75, 67
1, 425224, Control_c, 0, 64, 53
1, 425227, Note_off_c, 0, 64, 58
1, 425239, Control_c, 0, 64, 0
1, 425242, Note_on_c, 0, 63, 54
1, 425243, Note_on_c, 0, 66, 54
1, 425248, Note_off_c, 0, 85, 61
1, 425278, Note_off_c, 0, 66, 57
1, 425291, Note_off_c, 0, 63, 60
1, 425299, Note_off_c, 0, 75, 61
1, 425313, Note_off_c, 0, 87, 60
1, 425459, Note_on_c, 0, 88, 83
1, 425462, Note_on_c, 0, 76, 79
1, 425480, Note_on_c, 0, 66, 57
1, 425480, Note_on_c, 0, 64, 48
1, 425481, Note_on_c, 0, 61, 50
1, 425511, Note_on_c, 0, 84, 4
1, 425535, Control_c, 0, 64, 51
1, 425543, Note_off_c, 0, 84, 30
1, 425550, Control_c, 0, 64, 65
1, 425564, Control_c, 0, 64, 70
1, 425579, Control_c, 0, 64, 75
1, 425594, Control_c, 0, 64, 80
1, 425609, Control_c, 0, 64, 84
1, 425624, Control_c, 0, 64, 85
1, 425638, Control_c, 0, 64, 86
1, 425653, Control_c, 0, 64, 86
1, 425665, Note_off_c, 0, 66, 61
1, 425668, Control_c, 0, 64, 87
1, 425681, Note_off_c, 0, 61, 54
1, 425691, Note_off_c, 0, 64, 37
1, 425731, Note_off_c, 0, 88, 62
1, 425778, Note_off_c, 0, 76, 65
1, 425779, Control_c, 0, 67, 10
1, 425794, Control_c, 0, 64, 86
1, 425794, Control_c, 0, 67, 21
1, 425809, Control_c, 0, 64, 86
1, 425809, Control_c, 0, 67, 38
1, 425824, Control_c, 0, 64, 84
1, 425824, Control_c, 0, 67, 60
1, 425839, Control_c, 0, 64, 80
1, 425839, Control_c, 0, 67, 81
1, 425853, Control_c, 0, 64, 74
1, 425853, Control_c, 0, 67, 101
1, 425868, Control_c, 0, 64, 65
1, 425868, Control_c, 0, 67, 121
1, 425883, Control_c, 0, 64, 0
1, 425883, Control_c, 0, 67, 127
1, 426184, Note_on_c, 0, 54, 46
1, 426193, Note_on_c, 0, 35, 23
1, 426204, Note_on_c, 0, 51, 37
1, 426210, Control_c, 0, 64, 52
1, 426225, Control_c, 0, 64, 64
1, 426240, Control_c, 0, 64, 65
1, 426255, Control_c, 0, 64, 66
1, 426269, Control_c, 0, 64, 67
1, 426284, Control_c, 0, 64, 67
1, 426324, Note_off_c, 0, 54, 61
1, 426328, Control_c, 0, 64, 67
1, 426329, Note_off_c, 0, 51, 50
1, 426343, Control_c, 0, 64, 66
1, 426358, Control_c, 0, 64, 64
1, 426373, Control_c, 0, 64, 60
1, 426387, Note_on_c, 0, 56, 47
1, 426387, Control_c, 0, 64, 46
1, 426400, Note_off_c, 0, 35, 38
1, 426402, Control_c, 0, 64, 0
1, 426410, Note_on_c, 0, 40, 32
1, 426425, Note_on_c, 0, 52, 39
1, 426535, Note_off_c, 0, 52, 51
1, 426543, Control_c, 0, 64, 49
1, 426558, Control_c, 0, 64, 62
1, 426573, Control_c, 0, 64, 64
1, 426588, Control_c, 0, 64, 64
1, 426602, Control_c, 0, 64, 65
1, 426616, Note_off_c, 0, 40, 43
1, 426617, Control_c, 0, 64, 65
1, 426632, Control_c, 0, 64, 66
1, 426675, Note_on_c, 0, 52, 44
1, 426683, Note_on_c, 0, 37, 7
1, 426691, Control_c, 0, 64, 65
1, 426703, Note_off_c, 0, 56, 49
1, 426706, Control_c, 0, 64, 64
1, 426720, Control_c, 0, 64, 61
1, 426721, Note_off_c, 0, 52, 63
1, 426735, Control_c, 0, 64, 51
1, 426740, Note_off_c, 0, 37, 59
1, 426742, Note_on_c, 0, 51, 52
1, 426747, Note_on_c, 0, 47, 37
1, 426750, Control_c, 0, 64, 21
1, 426765, Control_c, 0, 64, 0
1, 426771, Note_on_c, 0, 42, 36
1, 426803, Poly_aftertouch_c, 0, 49, 0
1, 426825, Note_off_c, 0, 42, 47
1, 426891, Note_off_c, 0, 47, 32
1, 426908, Note_on_c, 0, 49, 47
1, 426917, Note_off_c, 0, 51, 53
1, 426948, Note_on_c, 0, 42, 41
1, 426950, Note_on_c, 0, 46, 38
1, 427156, Note_on_c, 0, 47, 29
1, 427158, Note_off_c, 0, 46, 40
1, 427160, Note_on_c, 0, 51, 40
1, 427165, Note_off_c, 0, 49, 36
1, 427168, Note_on_c, 0, 35, 31
1, 427173, Note_off_c, 0, 42, 24
1, 427276, Control_c, 0, 64, 40
1, 427291, Control_c, 0, 64, 56
1, 427306, Control_c, 0, 64, 61
1, 427321, Control_c, 0, 64, 63
1, 427336, Control_c, 0, 64, 65
1, 427350, Control_c, 0, 64, 67
1, 427365, Control_c, 0, 64, 68
1, 427380, Control_c, 0, 64, 70
1, 427395, Control_c, 0, 64, 72
1, 427410, Control_c, 0, 64, 73
1, 427424, Control_c, 0, 64, 74
1, 427483, Note_off_c, 0, 47, 42
1, 427498, Control_c, 0, 64, 73
1, 427506, Note_off_c, 0, 51, 62
1, 427513, Control_c, 0, 64, 72
1, 427527, Note_off_c, 0, 35, 40
1, 427528, Control_c, 0, 64, 69
1, 427543, Control_c, 0, 64, 64
1, 427558, Control_c, 0, 64, 47
1, 427573, Control_c, 0, 64, 0
1, 427960, Control_c, 0, 64, 10
1, 427974, Control_c, 0, 64, 18
1, 427989, Control_c, 0, 64, 25
1, 428004, Control_c, 0, 64, 30
1, 428026, Control_c, 0, 64, 34
1, 428041, Control_c, 0, 64, 36
1, 428056, Control_c, 0, 64, 39
1, 428071, Control_c, 0, 64, 41
1, 428086, Control_c, 0, 64, 44
1, 428100, Control_c, 0, 64, 47
1, 428115, Control_c, 0, 64, 49
1, 428130, Control_c, 0, 64, 51
1, 428145, Control_c, 0, 64, 55
1, 428148, Note_on_c, 0, 83, 49
1, 428154, Note_on_c, 0, 63, 21
1, 428160, Control_c, 0, 64, 58
1, 428161, Note_on_c, 0, 66, 24
1, 428174, Control_c, 0, 64, 62
1, 428189, Control_c, 0, 64, 64
1, 428204, Control_c, 0, 64, 66
1, 428219, Control_c, 0, 64, 68
1, 428232, Poly_aftertouch_c, 0, 71, 127
1, 428234, Control_c, 0, 64, 71
1, 428248, Control_c, 0, 64, 74
1, 428263, Control_c, 0, 64, 77
1, 428278, Control_c, 0, 64, 79
1, 428292, Control_c, 0, 64, 80
1, 428322, Control_c, 0, 64, 80
1, 428342, Poly_aftertouch_c, 0, 71, 0
1, 428501, Control_c, 0, 64, 80
1, 428507, Note_off_c, 0, 66, 30
1, 428589, Control_c, 0, 64, 79
1, 428619, Control_c, 0, 64, 78
1, 428634, Control_c, 0, 64, 78
1, 428649, Control_c, 0, 64, 77
1, 428664, Control_c, 0, 64, 76
1, 428664, Note_off_c, 0, 63, 43
1, 428678, Note_on_c, 0, 82, 47
1, 428679, Control_c, 0, 64, 75
1, 428691, Note_on_c, 0, 66, 35
1, 428691, Note_on_c, 0, 70, 29
1, 428694, Control_c, 0, 64, 73
1, 428708, Control_c, 0, 64, 71
1, 428723, Control_c, 0, 64, 67
1, 428724, Note_off_c, 0, 70, 45
1, 428729, Note_on_c, 0, 61, 25
1, 428738, Control_c, 0, 64, 63
1, 428746, Note_off_c, 0, 83, 35
1, 428753, Control_c, 0, 64, 57
1, 428775, Control_c, 0, 64, 55
1, 428778, Note_off_c, 0, 61, 50
1, 428780, Note_off_c, 0, 66, 41
1, 428785, Note_off_c, 0, 82, 61
1, 428790, Control_c, 0, 64, 53
1, 428804, Control_c, 0, 64, 47
1, 428819, Control_c, 0, 64, 34
1, 428834, Control_c, 0, 64, 0
1, 428940, Note_on_c, 0, 87, 48
1, 428962, Note_on_c, 0, 75, 36
1, 428969, Note_on_c, 0, 66, 15
1, 428977, Note_on_c, 0, 59, 31
1, 428997, Control_c, 0, 64, 43
1, 429012, Control_c, 0, 64, 61
1, 429027, Control_c, 0, 64, 64
1, 429042, Control_c, 0, 64, 67
1, 429057, Control_c, 0, 64, 69
1, 429071, Control_c, 0, 64, 72
1, 429082, Note_off_c, 0, 87, 55
1, 429086, Control_c, 0, 64, 74
1, 429124, Note_off_c, 0, 66, 41
1, 429144, Note_off_c, 0, 59, 40
1, 429144, Note_off_c, 0, 75, 59
1, 429220, Control_c, 0, 64, 73
1, 429235, Control_c, 0, 64, 72
1, 429250, Control_c, 0, 64, 71
1, 429265, Control_c, 0, 64, 69
1, 429280, Control_c, 0, 64, 67
1, 429294, Control_c, 0, 64, 63
1, 429309, Control_c, 0, 64, 59
1, 429324, Control_c, 0, 64, 55
1, 429338, Control_c, 0, 64, 49
1, 429353, Control_c, 0, 64, 38
1, 429368, Control_c, 0, 64, 0
1, 429568, Control_c, 0, 64, 43
1, 429583, Control_c, 0, 64, 60
1, 429598, Control_c, 0, 64, 64
1, 429603, Note_on_c, 0, 61, 39
1, 429612, Control_c, 0, 64, 66
1, 429618, Note_on_c, 0, 46, 29
1, 429627, Control_c, 0, 64, 68
1, 429638, Note_on_c, 0, 54, 15
1, 429642, Control_c, 0, 64, 71
1, 429657, Control_c, 0, 64, 74
1, 429671, Control_c, 0, 64, 76
1, 429686, Control_c, 0, 64, 77
1, 429701, Control_c, 0, 64, 77
1, 429725, Note_off_c, 0, 61, 58
1, 429784, Note_off_c, 0, 54, 37
1, 429864, Note_on_c, 0, 59, 46
1, 429889, Note_on_c, 0, 54, 22
1, 429909, Control_c, 0, 64, 77
1, 429911, Note_on_c, 0, 44, 35
1, 429920, Note_off_c, 0, 46, 24
1, 429924, Control_c, 0, 64, 76
1, 429938, Control_c, 0, 64, 75
1, 429953, Control_c, 0, 64, 71
1, 429968, Control_c, 0, 64, 65
1, 429984, Control_c, 0, 64, 52
1, 429999, Control_c, 0, 64, 27
1, 430014, Control_c, 0, 64, 24
1, 430029, Control_c, 0, 64, 18
1, 430043, Control_c, 0, 64, 0
1, 430151, Note_off_c, 0, 54, 36
1, 430153, Note_on_c, 0, 58, 49
1, 430163, Note_off_c, 0, 44, 31
1, 430182, Note_on_c, 0, 46, 36
1, 430187, Note_off_c, 0, 59, 52
1, 430214, Note_off_c, 0, 58, 52
1, 430227, Note_on_c, 0, 56, 44
1, 430235, Note_off_c, 0, 46, 56
1, 430235, Note_on_c, 0, 47, 41
1, 430306, Poly_aftertouch_c, 0, 54, 127
1, 430404, Poly_aftertouch_c, 0, 54, 0
1, 430406, Note_off_c, 0, 56, 32
1, 430420, Note_on_c, 0, 61, 48
1, 430433, Note_on_c, 0, 53, 31
1, 430444, Note_on_c, 0, 49, 41
1, 430452, Note_off_c, 0, 47, 40
1, 430637, Note_off_c, 0, 53, 43
1, 430641, Note_on_c, 0, 58, 45
1, 430643, Note_on_c, 0, 42, 41
1, 430651, Note_off_c, 0, 61, 54
1, 430654, Note_on_c, 0, 54, 32
1, 430655, Note_off_c, 0, 49, 38
1, 430925, Note_on_c, 0, 44, 41
1, 430938, Note_off_c, 0, 42, 41
1, 430983, Note_off_c, 0, 54, 38
1, 430986, Note_off_c, 0, 44, 59
1, 431011, Note_on_c, 0, 46, 45
1, 431140, Control_c, 0, 64, 56
1, 431155, Control_c, 0, 64, 63
1, 431170, Control_c, 0, 64, 65
1, 431184, Control_c, 0, 64, 66
1, 431199, Control_c, 0, 64, 67
1, 431201, Note_on_c, 0, 63, 53
1, 431214, Control_c, 0, 64, 68
1, 431216, Note_off_c, 0, 46, 39
1, 431229, Control_c, 0, 64, 69
1, 431230, Note_on_c, 0, 47, 47
1, 431232, Note_on_c, 0, 54, 40
1, 431244, Control_c, 0, 64, 70
1, 431248, Note_off_c, 0, 63, 63
1, 431287, Note_off_c, 0, 54, 42
1, 431347, Control_c, 0, 64, 70
1, 431362, Control_c, 0, 64, 69
1, 431377, Control_c, 0, 64, 68
1, 431391, Control_c, 0, 64, 64
1, 431406, Control_c, 0, 64, 53
1, 431415, Note_on_c, 0, 59, 48
1, 431419, Note_on_c, 0, 44, 40
1, 431421, Control_c, 0, 64, 0
1, 431425, Note_on_c, 0, 54, 37
1, 431433, Note_off_c, 0, 47, 42
1, 431439, Note_off_c, 0, 58, 34
1, 431654, Note_on_c, 0, 58, 50
1, 431656, Note_off_c, 0, 54, 41
1, 431670, Note_on_c, 0, 46, 45
1, 431678, Note_off_c, 0, 44, 45
1, 431711, Note_off_c, 0, 59, 61
1, 431720, Note_off_c, 0, 46, 61
1, 431732, Note_on_c, 0, 56, 55
1, 431735, Note_off_c, 0, 58, 59
1, 431744, Note_on_c, 0, 47, 52
1, 431777, Note_on_c, 0, 54, 35
1, 431913, Note_off_c, 0, 56, 54
1, 431919, Note_on_c, 0, 61, 64
1, 431924, Note_off_c, 0, 54, 38
1, 431925, Note_off_c, 0, 47, 37
1, 431935, Note_on_c, 0, 49, 46
1, 431936, Note_on_c, 0, 53, 47
1, 432105, Note_off_c, 0, 49, 57
1, 432115, Note_off_c, 0, 53, 45
1, 432123, Note_on_c, 0, 58, 59
1, 432131, Note_off_c, 0, 61, 58
1, 432133, Note_on_c, 0, 42, 41
1, 432139, Note_on_c, 0, 54, 33
1, 432304, Control_c, 0, 64, 46
1, 432319, Control_c, 0, 64, 59
1, 432333, Control_c, 0, 64, 62
1, 432348, Control_c, 0, 64, 63
1, 432363, Control_c, 0, 64, 64
1, 432365, Note_off_c, 0, 42, 48
1, 432368, Note_on_c, 0, 44, 46
1, 432378, Control_c, 0, 64, 65
1, 432393, Control_c, 0, 64, 66
1, 432408, Control_c, 0, 64, 66
1, 432416, Note_off_c, 0, 58, 63
1, 432423, Control_c, 0, 64, 67
1, 432426, Note_off_c, 0, 44, 61
1, 432437, Note_on_c, 0, 46, 58
1, 432465, Note_off_c, 0, 54, 48
1, 432497, Control_c, 0, 64, 66
1, 432519, Control_c, 0, 64, 66
1, 432549, Control_c, 0, 64, 65
1, 432563, Control_c, 0, 64, 65
1, 432578, Control_c, 0, 64, 64
1, 432593, Control_c, 0, 64, 61
1, 432608, Control_c, 0, 64, 46
1, 432619, Note_off_c, 0, 46, 62
1, 432623, Control_c, 0, 64, 0
1, 432629, Note_on_c, 0, 66, 59
1, 432637, Note_on_c, 0, 47, 54
1, 432642, Note_on_c, 0, 54, 42
1, 432667, Control_c, 0, 64, 34
1, 432682, Control_c, 0, 64, 56
1, 432697, Control_c, 0, 64, 63
1, 432712, Control_c, 0, 64, 65
1, 432719, Note_off_c, 0, 66, 65
1, 432727, Control_c, 0, 64, 67
1, 432742, Control_c, 0, 64, 69
1, 432756, Control_c, 0, 64, 70
1, 432771, Control_c, 0, 64, 71
1, 432797, Note_off_c, 0, 54, 0
1, 432805, Note_off_c, 0, 47, 51
1, 432811, Note_on_c, 0, 64, 62
1, 432812, Note_on_c, 0, 54, 22
1, 432816, Control_c, 0, 64, 70
1, 432821, Note_on_c, 0, 49, 51
1, 432830, Control_c, 0, 64, 69
1, 432841, Note_on_c, 0, 58, 46
1, 432845, Control_c, 0, 64, 65
1, 432845, Control_c, 0, 67, 127
1, 432860, Control_c, 0, 64, 49
1, 432860, Control_c, 0, 67, 126
1, 432875, Control_c, 0, 64, 0
1, 432875, Control_c, 0, 67, 124
1, 432889, Control_c, 0, 67, 119
1, 432904, Control_c, 0, 67, 112
1, 432919, Control_c, 0, 67, 105
1, 432934, Control_c, 0, 67, 99
1, 432948, Control_c, 0, 64, 47
1, 432948, Control_c, 0, 67, 93
1, 432962, Control_c, 0, 64, 62
1, 432962, Control_c, 0, 67, 89
1, 432977, Control_c, 0, 64, 64
1, 432977, Control_c, 0, 67, 85
1, 432992, Control_c, 0, 64, 66
1, 432992, Control_c, 0, 67, 81
1, 433007, Control_c, 0, 64, 67
1, 433007, Control_c, 0, 67, 77
1, 433022, Control_c, 0, 64, 68
1, 433022, Control_c, 0, 67, 72
1, 433036, Control_c, 0, 64, 68
1, 433036, Control_c, 0, 67, 69
1, 433043, Note_on_c, 0, 51, 53
1, 433051, Control_c, 0, 67, 67
1, 433055, Note_on_c, 0, 63, 56
1, 433058, Note_off_c, 0, 49, 55
1, 433058, Note_off_c, 0, 54, 40
1, 433060, Note_off_c, 0, 58, 58
1, 433066, Control_c, 0, 67, 66
1, 433074, Note_off_c, 0, 64, 57
1, 433080, Control_c, 0, 64, 67
1, 433080, Control_c, 0, 67, 65
1, 433095, Control_c, 0, 64, 63
1, 433095, Control_c, 0, 67, 64
1, 433100, Note_off_c, 0, 51, 61
1, 433110, Control_c, 0, 64, 28
1, 433110, Control_c, 0, 67, 64
1, 433123, Note_on_c, 0, 61, 65
1, 433124, Note_off_c, 0, 63, 60
1, 433125, Control_c, 0, 64, 0
1, 433127, Note_on_c, 0, 52, 59
1, 433140, Control_c, 0, 67, 63
1, 433154, Control_c, 0, 67, 62
1, 433169, Control_c, 0, 67, 60
1, 433185, Control_c, 0, 64, 52
1, 433185, Control_c, 0, 67, 59
1, 433200, Control_c, 0, 64, 62
1, 433215, Control_c, 0, 64, 65
1, 433230, Control_c, 0, 64, 67
1, 433245, Control_c, 0, 64, 69
1, 433246, Note_off_c, 0, 61, 60
1, 433266, Control_c, 0, 64, 70
1, 433281, Control_c, 0, 64, 70
1, 433296, Control_c, 0, 67, 60
1, 433311, Note_on_c, 0, 66, 79
1, 433311, Control_c, 0, 64, 70
1, 433311, Control_c, 0, 67, 60
1, 433311, Note_off_c, 0, 52, 36
1, 433324, Note_on_c, 0, 54, 56
1, 433326, Control_c, 0, 64, 67
1, 433326, Control_c, 0, 67, 61
1, 433338, Note_on_c, 0, 58, 49
1, 433341, Control_c, 0, 64, 55
1, 433341, Control_c, 0, 67, 62
1, 433355, Note_on_c, 0, 61, 18
1, 433356, Control_c, 0, 64, 0
1, 433356, Control_c, 0, 67, 63
1, 433371, Control_c, 0, 67, 64
1, 433383, Note_off_c, 0, 58, 47
1, 433385, Control_c, 0, 67, 65
1, 433400, Control_c, 0, 67, 65
1, 433405, Note_off_c, 0, 61, 43
1, 433415, Control_c, 0, 64, 57
1, 433430, Control_c, 0, 64, 63
1, 433430, Control_c, 0, 67, 66
1, 433445, Control_c, 0, 64, 65
1, 433459, Control_c, 0, 64, 67
1, 433474, Control_c, 0, 64, 68
1, 433489, Control_c, 0, 64, 69
1, 433510, Note_off_c, 0, 54, 59
1, 433511, Note_on_c, 0, 64, 73
1, 433511, Note_off_c, 0, 66, 62
1, 433512, Note_on_c, 0, 56, 63
1, 433530, Note_on_c, 0, 58, 47
1, 433533, Control_c, 0, 64, 67
1, 433533, Control_c, 0, 67, 65
1, 433548, Control_c, 0, 64, 60
1, 433563, Control_c, 0, 64, 0
1, 433652, Control_c, 0, 67, 65
1, 433666, Control_c, 0, 64, 61
1, 433681, Control_c, 0, 64, 66
1, 433681, Control_c, 0, 67, 64
1, 433687, Note_off_c, 0, 58, 64
1, 433697, Control_c, 0, 64, 70
1, 433697, Control_c, 0, 67, 64
1, 433711, Control_c, 0, 64, 73
1, 433711, Control_c, 0, 67, 63
1, 433726, Control_c, 0, 64, 77
1, 433726, Control_c, 0, 67, 63
1, 433737, Note_off_c, 0, 64, 63
1, 433741, Control_c, 0, 64, 78
1, 433741, Control_c, 0, 67, 62
1, 433756, Control_c, 0, 67, 62
1, 433758, Note_on_c, 0, 58, 57
1, 433771, Control_c, 0, 67, 61
1, 433772, Note_off_c, 0, 56, 58
1, 433785, Control_c, 0, 67, 61
1, 433800, Control_c, 0, 67, 60
1, 433815, Note_off_c, 0, 58, 65
1, 433832, Note_on_c, 0, 59, 72
1, 433845, Control_c, 0, 64, 77
1, 433860, Control_c, 0, 64, 75
1, 433875, Control_c, 0, 64, 70
1, 433889, Control_c, 0, 64, 62
1, 433904, Control_c, 0, 64, 22
1, 433919, Control_c, 0, 64, 0
1, 433934, Control_c, 0, 67, 61
1, 433964, Control_c, 0, 67, 61
1, 433994, Note_off_c, 0, 59, 41
1, 433997, Note_on_c, 0, 78, 78
1, 433997, Note_on_c, 0, 70, 65
1, 434016, Note_on_c, 0, 61, 58
1, 434061, Control_c, 0, 64, 56
1, 434076, Control_c, 0, 64, 65
1, 434076, Control_c, 0, 67, 61
1, 434090, Control_c, 0, 64, 67
1, 434090, Control_c, 0, 67, 60
1, 434105, Control_c, 0, 64, 68
1, 434105, Control_c, 0, 67, 60
1, 434120, Control_c, 0, 64, 69
1, 434120, Control_c, 0, 67, 59
1, 434134, Control_c, 0, 64, 71
1, 434134, Control_c, 0, 67, 59
1, 434141, Note_off_c, 0, 78, 61
1, 434149, Control_c, 0, 64, 71
1, 434149, Control_c, 0, 67, 58
1, 434152, Note_off_c, 0, 70, 62
1, 434164, Control_c, 0, 64, 72
1, 434164, Control_c, 0, 67, 58
1, 434179, Control_c, 0, 67, 56
1, 434194, Control_c, 0, 67, 50
1, 434200, Note_on_c, 0, 78, 71
1, 434207, Note_on_c, 0, 63, 60
1, 434208, Note_on_c, 0, 71, 60
1, 434208, Control_c, 0, 64, 70
1, 434208, Control_c, 0, 67, 45
1, 434223, Control_c, 0, 64, 67
1, 434223, Control_c, 0, 67, 42
1, 434238, Control_c, 0, 64, 53
1, 434238, Control_c, 0, 67, 40
1, 434247, Note_off_c, 0, 61, 56
1, 434253, Control_c, 0, 64, 0
1, 434253, Control_c, 0, 67, 38
1, 434268, Control_c, 0, 67, 36
1, 434283, Control_c, 0, 67, 32
1, 434298, Control_c, 0, 67, 29
1, 434313, Control_c, 0, 67, 26
1, 434327, Control_c, 0, 67, 24
1, 434342, Control_c, 0, 64, 60
1, 434342, Control_c, 0, 67, 22
1, 434357, Control_c, 0, 64, 67
1, 434357, Control_c, 0, 67, 22
1, 434372, Control_c, 0, 64, 70
1, 434372, Control_c, 0, 67, 21
1, 434387, Control_c, 0, 64, 73
1, 434387, Control_c, 0, 67, 20
1, 434401, Control_c, 0, 64, 75
1, 434401, Control_c, 0, 67, 17
1, 434413, Note_off_c, 0, 63, 64
1, 434416, Control_c, 0, 64, 76
1, 434416, Control_c, 0, 67, 13
1, 434427, Note_on_c, 0, 64, 63
1, 434431, Control_c, 0, 64, 76
1, 434431, Control_c, 0, 67, 11
1, 434446, Control_c, 0, 67, 10
1, 434447, Note_on_c, 0, 76, 65
1, 434460, Control_c, 0, 67, 9
1, 434474, Note_off_c, 0, 64, 56
1, 434475, Control_c, 0, 67, 8
1, 434490, Control_c, 0, 64, 76
1, 434490, Control_c, 0, 67, 0
1, 434495, Note_off_c, 0, 78, 57
1, 434505, Control_c, 0, 64, 73
1, 434510, Note_on_c, 0, 75, 73
1, 434512, Note_off_c, 0, 71, 31
1, 434519, Note_on_c, 0, 66, 63
1, 434520, Control_c, 0, 64, 67
1, 434534, Control_c, 0, 64, 0
1, 434539, Note_off_c, 0, 76, 60
1, 434608, Control_c, 0, 64, 13
1, 434623, Control_c, 0, 64, 62
1, 434638, Control_c, 0, 64, 68
1, 434653, Control_c, 0, 64, 72
1, 434667, Control_c, 0, 64, 75
1, 434668, Note_on_c, 0, 78, 93
1, 434682, Control_c, 0, 64, 78
1, 434683, Note_off_c, 0, 75, 64
1, 434684, Note_off_c, 0, 66, 56
1, 434692, Note_on_c, 0, 71, 62
1, 434697, Control_c, 0, 64, 79
1, 434712, Control_c, 0, 64, 80
1, 434735, Note_off_c, 0, 78, 64
1, 434825, Control_c, 0, 64, 79
1, 434854, Control_c, 0, 64, 77
1, 434869, Control_c, 0, 64, 73
1, 434879, Note_on_c, 0, 80, 79
1, 434879, Note_off_c, 0, 71, 37
1, 434883, Control_c, 0, 64, 65
1, 434893, Note_on_c, 0, 65, 53
1, 434898, Control_c, 0, 64, 0
1, 435114, Note_on_c, 0, 78, 68
1, 435177, Note_on_c, 0, 66, 23
1, 435179, Note_off_c, 0, 80, 61
1, 435185, Note_on_c, 0, 77, 77
1, 435204, Note_on_c, 0, 68, 55
1, 435210, Control_c, 0, 64, 48
1, 435215, Note_off_c, 0, 78, 59
1, 435221, Note_off_c, 0, 66, 51
1, 435225, Control_c, 0, 64, 64
1, 435240, Control_c, 0, 64, 67
1, 435255, Control_c, 0, 64, 69
1, 435270, Control_c, 0, 64, 71
1, 435284, Control_c, 0, 64, 74
1, 435299, Control_c, 0, 64, 76
1, 435314, Control_c, 0, 64, 77
1, 435340, Note_off_c, 0, 77, 58
1, 435356, Note_on_c, 0, 85, 89
1, 435371, Note_on_c, 0, 73, 55
1, 435374, Note_off_c, 0, 65, 56
1, 435403, Control_c, 0, 64, 75
1, 435418, Control_c, 0, 64, 69
1, 435432, Control_c, 0, 64, 56
1, 435447, Control_c, 0, 64, 0
1, 435484, Note_off_c, 0, 68, 20
1, 435555, Note_on_c, 0, 80, 88
1, 435558, Note_on_c, 0, 65, 58
1, 435693, Control_c, 0, 64, 59
1, 435707, Control_c, 0, 64, 66
1, 435722, Control_c, 0, 64, 68
1, 435737, Control_c, 0, 64, 71
1, 435752, Control_c, 0, 64, 74
1, 435764, Note_on_c, 0, 78, 79
1, 435767, Control_c, 0, 64, 77
1, 435781, Control_c, 0, 64, 79
1, 435795, Note_on_c, 0, 66, 63
1, 435796, Control_c, 0, 64, 80
1, 435796, Control_c, 0, 67, 8
1, 435811, Control_c, 0, 67, 10
1, 435815, Note_off_c, 0, 85, 56
1, 435821, Note_off_c, 0, 80, 62
1, 435826, Control_c, 0, 67, 13
1, 435830, Note_off_c, 0, 73, 40
1, 435835, Note_on_c, 0, 77, 93
1, 435841, Control_c, 0, 67, 14
1, 435842, Note_on_c, 0, 68, 72
1, 435855, Control_c, 0, 67, 15
1, 435870, Control_c, 0, 67, 15
1, 435875, Note_off_c, 0, 78, 64
1, 435885, Control_c, 0, 67, 17
1, 435890, Note_off_c, 0, 66, 64
1, 435899, Control_c, 0, 64, 79
1, 435899, Control_c, 0, 67, 18
1, 435914, Control_c, 0, 64, 78
1, 435914, Control_c, 0, 67, 19
1, 435929, Control_c, 0, 64, 77
1, 435929, Control_c, 0, 67, 19
1, 435944, Control_c, 0, 64, 73
1, 435944, Control_c, 0, 67, 20
1, 435959, Control_c, 0, 64, 69
1, 435973, Control_c, 0, 64, 62
1, 435988, Control_c, 0, 64, 0
1, 436022, Note_on_c, 0, 85, 93
1, 436029, Note_on_c, 0, 73, 73
1, 436033, Control_c, 0, 67, 19
1, 436063, Note_off_c, 0, 77, 60
1, 436065, Note_off_c, 0, 68, 60
1, 436092, Control_c, 0, 67, 18
1, 436107, Control_c, 0, 67, 17
1, 436122, Control_c, 0, 67, 16
1, 436137, Control_c, 0, 67, 15
1, 436152, Control_c, 0, 67, 14
1, 436167, Control_c, 0, 67, 14
1, 436195, Note_off_c, 0, 65, 48
1, 436210, Note_on_c, 0, 82, 86
1, 436211, Control_c, 0, 67, 13
1, 436224, Note_on_c, 0, 66, 82
1, 436225, Control_c, 0, 67, 13
1, 436277, Control_c, 0, 64, 35
1, 436292, Control_c, 0, 64, 61
1, 436292, Control_c, 0, 67, 13
1, 436307, Control_c, 0, 64, 64
1, 436307, Control_c, 0, 67, 14
1, 436322, Control_c, 0, 64, 66
1, 436322, Control_c, 0, 67, 14
1, 436337, Control_c, 0, 64, 68
1, 436337, Control_c, 0, 67, 15
1, 436352, Control_c, 0, 64, 70
1, 436367, Control_c, 0, 64, 74
1, 436382, Control_c, 0, 64, 78
1, 436397, Control_c, 0, 64, 80
1, 436411, Control_c, 0, 64, 80
1, 436411, Control_c, 0, 67, 15
1, 436426, Control_c, 0, 64, 81
1, 436441, Control_c, 0, 64, 81
1, 436463, Note_on_c, 0, 68, 76
1, 436467, Note_on_c, 0, 80, 81
1, 436502, Note_off_c, 0, 66, 63
1, 436509, Note_off_c, 0, 82, 60
1, 436516, Note_off_c, 0, 85, 42
1, 436530, Note_on_c, 0, 70, 86
1, 436532, Note_off_c, 0, 73, 40
1, 436534, Note_on_c, 0, 78, 100
1, 436562, Note_off_c, 0, 80, 64
1, 436564, Note_off_c, 0, 68, 60
1, 436604, Control_c, 0, 67, 16
1, 436648, Control_c, 0, 67, 15
1, 436663, Control_c, 0, 67, 15
1, 436693, Control_c, 0, 64, 81
1, 436693, Control_c, 0, 67, 14
1, 436708, Note_off_c, 0, 70, 55
1, 436708, Control_c, 0, 64, 78
1, 436710, Note_off_c, 0, 78, 62
1, 436712, Note_on_c, 0, 85, 101
1, 436712, Note_on_c, 0, 73, 93
1, 436722, Control_c, 0, 64, 72
1, 436737, Control_c, 0, 64, 55
1, 436737, Control_c, 0, 67, 15
1, 436752, Control_c, 0, 64, 0
1, 436782, Control_c, 0, 67, 14
1, 436796, Control_c, 0, 67, 13
1, 436811, Control_c, 0, 67, 12
1, 436826, Control_c, 0, 67, 11
1, 436841, Control_c, 0, 67, 10
1, 436855, Control_c, 0, 67, 9
1, 436870, Control_c, 0, 67, 9
1, 436885, Control_c, 0, 67, 8
1, 436900, Control_c, 0, 67, 8
1, 436902, Note_on_c, 0, 80, 95
1, 436906, Note_on_c, 0, 65, 82
1, 436915, Control_c, 0, 67, 0
1, 436945, Note_off_c, 0, 85, 56
1, 436990, Control_c, 0, 64, 25
1, 437011, Control_c, 0, 64, 60
1, 437026, Control_c, 0, 64, 65
1, 437041, Control_c, 0, 64, 67
1, 437055, Control_c, 0, 64, 69
1, 437070, Control_c, 0, 64, 71
1, 437085, Control_c, 0, 64, 74
1, 437100, Control_c, 0, 64, 76
1, 437115, Control_c, 0, 64, 77
1, 437130, Control_c, 0, 64, 77
1, 437130, Control_c, 0, 67, 8
1, 437145, Control_c, 0, 67, 8
1, 437155, Note_on_c, 0, 78, 83
1, 437160, Control_c, 0, 67, 10
1, 437162, Note_on_c, 0, 66, 73
1, 437175, Control_c, 0, 67, 11
1, 437190, Control_c, 0, 67, 12
1, 437191, Note_off_c, 0, 80, 62
1, 437201, Note_on_c, 0, 68, 81
1, 437205, Control_c, 0, 67, 13
1, 437207, Note_off_c, 0, 65, 61
1, 437207, Note_on_c, 0, 77, 92
1, 437220, Control_c, 0, 67, 14
1, 437234, Control_c, 0, 67, 15
1, 437236, Note_off_c, 0, 78, 62
1, 437243, Note_on_c, 0, 79, 38
1, 437249, Control_c, 0, 67, 17
1, 437257, Note_off_c, 0, 73, 35
1, 437264, Control_c, 0, 67, 19
1, 437270, Note_off_c, 0, 66, 59
1, 437273, Note_off_c, 0, 79, 52
1, 437279, Control_c, 0, 67, 21
1, 437294, Control_c, 0, 67, 22
1, 437338, Control_c, 0, 67, 21
1, 437368, Control_c, 0, 67, 20
1, 437383, Control_c, 0, 64, 75
1, 437395, Note_on_c, 0, 85, 98
1, 437398, Note_on_c, 0, 73, 91
1, 437398, Control_c, 0, 64, 69
1, 437398, Control_c, 0, 67, 21
1, 437413, Control_c, 0, 64, 36
1, 437420, Note_off_c, 0, 68, 61
1, 437427, Control_c, 0, 64, 0
1, 437427, Control_c, 0, 67, 22
1, 437486, Control_c, 0, 67, 21
1, 437501, Control_c, 0, 67, 21
1, 437516, Control_c, 0, 67, 20
1, 437531, Control_c, 0, 67, 20
1, 437545, Control_c, 0, 67, 19
1, 437560, Control_c, 0, 67, 19
1, 437575, Control_c, 0, 67, 18
1, 437590, Control_c, 0, 67, 18
1, 437591, Note_on_c, 0, 63, 87
1, 437597, Note_on_c, 0, 78, 96
1, 437605, Control_c, 0, 67, 16
1, 437618, Note_on_c, 0, 62, 66
1, 437619, Control_c, 0, 67, 15
1, 437634, Control_c, 0, 67, 15
1, 437636, Note_off_c, 0, 77, 62
1, 437664, Control_c, 0, 64, 50
1, 437678, Control_c, 0, 64, 62
1, 437693, Control_c, 0, 64, 64
1, 437708, Control_c, 0, 64, 66
1, 437708, Control_c, 0, 67, 15
1, 437723, Control_c, 0, 64, 68
1, 437730, Note_off_c, 0, 62, 35
1, 437738, Control_c, 0, 64, 70
1, 437760, Control_c, 0, 64, 72
1, 437775, Control_c, 0, 64, 73
1, 437775, Control_c, 0, 67, 16
1, 437790, Control_c, 0, 64, 74
1, 437790, Control_c, 0, 67, 17
1, 437805, Control_c, 0, 67, 18
1, 437827, Note_on_c, 0, 65, 79
1, 437838, Note_on_c, 0, 77, 79
1, 437849, Control_c, 0, 64, 73
1, 437849, Control_c, 0, 67, 18
1, 437861, Note_off_c, 0, 63, 60
1, 437864, Control_c, 0, 64, 68
1, 437869, Note_off_c, 0, 85, 56
1, 437876, Note_off_c, 0, 78, 61
1, 437878, Control_c, 0, 64, 55
1, 437893, Control_c, 0, 64, 0
1, 437903, Note_on_c, 0, 66, 83
1, 437908, Control_c, 0, 67, 19
1, 437916, Note_on_c, 0, 75, 92
1, 437923, Control_c, 0, 67, 21
1, 437928, Note_off_c, 0, 73, 33
1, 437932, Note_off_c, 0, 77, 61
1, 437938, Note_off_c, 0, 65, 63
1, 437938, Control_c, 0, 67, 22
1, 437952, Control_c, 0, 67, 22
1, 437967, Control_c, 0, 67, 23
1, 437983, Control_c, 0, 67, 24
1, 437998, Control_c, 0, 67, 25
1, 438013, Control_c, 0, 67, 25
1, 438043, Control_c, 0, 67, 25
1, 438057, Control_c, 0, 67, 24
1, 438071, Note_off_c, 0, 75, 65
1, 438101, Note_on_c, 0, 85, 92
1, 438102, Note_on_c, 0, 73, 85
1, 438116, Control_c, 0, 67, 23
1, 438150, Note_off_c, 0, 66, 50
1, 438176, Control_c, 0, 67, 23
1, 438206, Control_c, 0, 67, 22
1, 438235, Control_c, 0, 67, 22
1, 438250, Control_c, 0, 67, 21
1, 438265, Control_c, 0, 67, 20
1, 438280, Control_c, 0, 67, 18
1, 438294, Control_c, 0, 67, 16
1, 438307, Note_on_c, 0, 77, 88
1, 438309, Control_c, 0, 64, 26
1, 438309, Control_c, 0, 67, 13
1, 438315, Note_on_c, 0, 61, 81
1, 438322, Note_off_c, 0, 85, 65
1, 438324, Control_c, 0, 64, 62
1, 438324, Control_c, 0, 67, 9
1, 438339, Control_c, 0, 64, 65
1, 438339, Control_c, 0, 67, 0
1, 438346, Note_off_c, 0, 73, 53
1, 438354, Control_c, 0, 64, 68
1, 438368, Control_c, 0, 64, 70
1, 438383, Control_c, 0, 64, 73
1, 438398, Control_c, 0, 64, 76
1, 438413, Control_c, 0, 64, 79
1, 438427, Control_c, 0, 64, 80
1, 438442, Control_c, 0, 64, 81
1, 438457, Control_c, 0, 64, 81
1, 438487, Control_c, 0, 64, 82
1, 438518, Note_off_c, 0, 61, 56
1, 438558, Note_off_c, 0, 77, 56
1, 438572, Note_on_c, 0, 75, 85
1, 438576, Note_on_c, 0, 63, 70
1, 438598, Control_c, 0, 64, 81
1, 438613, Control_c, 0, 64, 80
1, 438627, Control_c, 0, 64, 77
1, 438642, Note_off_c, 0, 63, 63
1, 438642, Control_c, 0, 64, 70
1, 438644, Note_off_c, 0, 75, 66
1, 438657, Control_c, 0, 64, 47
1, 438671, Note_on_c, 0, 85, 102
1, 438672, Control_c, 0, 64, 0
1, 438679, Note_on_c, 0, 73, 79
1, 438686, Note_on_c, 0, 65, 80
1, 438705, Note_off_c, 0, 73, 62
1, 438722, Note_off_c, 0, 65, 67
1, 438739, Note_off_c, 0, 85, 68
1, 438852, Note_on_c, 0, 78, 20
1, 438891, Note_off_c, 0, 78, 52
1, 438906, Note_on_c, 0, 83, 93
1, 438911, Note_on_c, 0, 73, 84
1, 438916, Note_on_c, 0, 68, 76
1, 438918, Note_on_c, 0, 65, 70
1, 438950, Note_off_c, 0, 73, 62
1, 438956, Note_off_c, 0, 65, 65
1, 438958, Note_off_c, 0, 68, 64
1, 438982, Note_off_c, 0, 83, 52
1, 439175, Note_on_c, 0, 83, 96
1, 439178, Note_on_c, 0, 73, 89
1, 439183, Note_on_c, 0, 68, 86
1, 439187, Note_on_c, 0, 65, 67
1, 439236, Control_c, 0, 64, 61
1, 439258, Control_c, 0, 64, 71
1, 439273, Control_c, 0, 64, 80
1, 439288, Control_c, 0, 64, 87
1, 439303, Control_c, 0, 64, 89
1, 439318, Control_c, 0, 64, 90
1, 439332, Control_c, 0, 64, 91
1, 439347, Control_c, 0, 64, 92
1, 439362, Control_c, 0, 64, 93
1, 439377, Control_c, 0, 64, 94
1, 439392, Control_c, 0, 64, 94
1, 439445, Note_off_c, 0, 68, 61
1, 439478, Note_off_c, 0, 65, 61
1, 439488, Note_on_c, 0, 70, 65
1, 439489, Note_on_c, 0, 82, 78
1, 439491, Note_on_c, 0, 66, 69
1, 439508, Note_off_c, 0, 83, 43
1, 439517, Note_off_c, 0, 73, 58
1, 439526, Note_off_c, 0, 70, 60
1, 439566, Note_on_c, 0, 71, 78
1, 439566, Note_on_c, 0, 80, 95
1, 439580, Note_on_c, 0, 68, 82
1, 439585, Control_c, 0, 64, 94
1, 439585, Control_c, 0, 67, 15
1, 439588, Note_off_c, 0, 66, 64
1, 439592, Note_off_c, 0, 71, 66
1, 439594, Note_off_c, 0, 82, 64
1, 439600, Control_c, 0, 64, 91
1, 439600, Control_c, 0, 67, 35
1, 439607, Note_off_c, 0, 80, 68
1, 439610, Note_off_c, 0, 68, 66
1, 439615, Control_c, 0, 64, 82
1, 439615, Control_c, 0, 67, 68
1, 439629, Control_c, 0, 64, 64
1, 439629, Control_c, 0, 67, 111
1, 439644, Control_c, 0, 64, 0
1, 439644, Control_c, 0, 67, 127
1, 439864, Note_on_c, 0, 73, 64
1, 439873, Note_on_c, 0, 56, 59
1, 439882, Note_on_c, 0, 71, 61
1, 439886, Note_on_c, 0, 53, 46
1, 439917, Note_off_c, 0, 53, 59
1, 439917, Note_off_c, 0, 71, 60
1, 439920, Note_off_c, 0, 73, 58
1, 439921, Note_off_c, 0, 56, 57
1, 440197, Note_on_c, 0, 53, 41
1, 440199, Note_on_c, 0, 71, 55
1, 440206, Note_on_c, 0, 56, 32
1, 440209, Note_on_c, 0, 73, 50
1, 440215, Control_c, 0, 64, 54
1, 440229, Control_c, 0, 64, 63
1, 440244, Control_c, 0, 64, 65
1, 440259, Control_c, 0, 64, 66
1, 440273, Control_c, 0, 64, 68
1, 440288, Control_c, 0, 64, 71
1, 440303, Control_c, 0, 64, 74
1, 440318, Control_c, 0, 64, 76
1, 440333, Control_c, 0, 64, 77
1, 440365, Note_off_c, 0, 71, 51
1, 440487, Note_off_c, 0, 56, 33
1, 440521, Note_on_c, 0, 70, 52
1, 440524, Note_off_c, 0, 53, 42
1, 440531, Note_on_c, 0, 58, 30
1, 440533, Note_off_c, 0, 73, 25
1, 440542, Control_c, 0, 64, 76
1, 440551, Note_on_c, 0, 54, 33
1, 440557, Control_c, 0, 64, 73
1, 440560, Note_off_c, 0, 70, 51
1, 440571, Control_c, 0, 64, 68
1, 440586, Control_c, 0, 64, 52
1, 440594, Note_off_c, 0, 54, 45
1, 440601, Control_c, 0, 64, 0
1, 440616, Note_off_c, 0, 58, 36
1, 440621, Note_on_c, 0, 68, 63
1, 440626, Note_on_c, 0, 73, 47
1, 440637, Note_on_c, 0, 56, 52
1, 440641, Note_on_c, 0, 71, 46
1, 440662, Note_on_c, 0, 59, 36
1, 440685, Note_off_c, 0, 56, 58
1, 440689, Note_off_c, 0, 71, 46
1, 440695, Note_off_c, 0, 73, 51
1, 440695, Note_off_c, 0, 68, 56
1, 440702, Note_off_c, 0, 59, 48
1, 440975, Note_on_c, 0, 73, 51
1, 440978, Note_on_c, 0, 66, 50
1, 440982, Note_on_c, 0, 58, 41
1, 440983, Note_on_c, 0, 70, 42
1, 440993, Note_on_c, 0, 61, 39
1, 441035, Note_off_c, 0, 66, 58
1, 441041, Note_off_c, 0, 61, 53
1, 441054, Note_off_c, 0, 58, 52
1, 441057, Note_off_c, 0, 70, 54
1, 441062, Note_off_c, 0, 73, 57
1, 441427, Note_on_c, 0, 73, 54
1, 441432, Note_on_c, 0, 65, 48
1, 441440, Note_on_c, 0, 68, 45
1, 441455, Note_on_c, 0, 61, 32
1, 441476, Note_on_c, 0, 59, 15
1, 441549, Control_c, 0, 64, 26
1, 441564, Control_c, 0, 64, 34
1, 441579, Control_c, 0, 64, 39
1, 441593, Control_c, 0, 64, 45
1, 441608, Control_c, 0, 64, 51
1, 441623, Control_c, 0, 64, 55
1, 441638, Control_c, 0, 64, 59
1, 441652, Control_c, 0, 64, 61
1, 441667, Control_c, 0, 64, 62
1, 441682, Control_c, 0, 64, 63
1, 441697, Control_c, 0, 64, 64
1, 441712, Control_c, 0, 64, 65
1, 441726, Control_c, 0, 64, 66
1, 441741, Control_c, 0, 64, 67
1, 441756, Control_c, 0, 64, 68
1, 441771, Control_c, 0, 64, 70
1, 441786, Control_c, 0, 64, 72
1, 441801, Control_c, 0, 64, 73
1, 441816, Control_c, 0, 64, 74
1, 441831, Control_c, 0, 64, 75
1, 441845, Control_c, 0, 64, 76
1, 441860, Control_c, 0, 64, 77
1, 441875, Control_c, 0, 64, 78
1, 441890, Control_c, 0, 64, 79
1, 441905, Control_c, 0, 64, 79
1, 441919, Control_c, 0, 64, 80
1, 441949, Control_c, 0, 64, 81
1, 441980, Control_c, 0, 64, 81
1, 441995, Control_c, 0, 64, 82
1, 442009, Control_c, 0, 64, 82
1, 442024, Control_c, 0, 64, 83
1, 442039, Control_c, 0, 64, 83
1, 442054, Control_c, 0, 64, 84
1, 442083, Control_c, 0, 64, 84
1, 442353, Note_off_c, 0, 68, 38
1, 442375, Note_off_c, 0, 61, 31
1, 442555, Note_off_c, 0, 73, 28
1, 442613, Note_off_c, 0, 65, 37
1, 442699, Note_off_c, 0, 59, 39
1, 442921, Control_c, 0, 64, 84
1, 443313, Control_c, 0, 64, 83
1, 443372, Control_c, 0, 64, 83
1, 443387, Note_on_c, 0, 75, 36
1, 443387, Control_c, 0, 64, 82
1, 443393, Note_on_c, 0, 57, 25
1, 443398, Note_on_c, 0, 60, 28
1, 443402, Note_on_c, 0, 69, 31
1, 443408, Note_on_c, 0, 66, 36
1, 443446, Control_c, 0, 64, 82
1, 443476, Control_c, 0, 64, 81
1, 443491, Control_c, 0, 64, 80
1, 443506, Control_c, 0, 64, 79
1, 443521, Control_c, 0, 64, 78
1, 443536, Control_c, 0, 64, 75
1, 443551, Control_c, 0, 64, 71
1, 443566, Control_c, 0, 64, 66
1, 443581, Control_c, 0, 64, 60
1, 443595, Control_c, 0, 64, 53
1, 443610, Control_c, 0, 64, 50
1, 443625, Control_c, 0, 64, 47
1, 443640, Control_c, 0, 64, 38
1, 443655, Control_c, 0, 64, 18
1, 443670, Control_c, 0, 64, 0
1, 444121, Control_c, 0, 64, 21
1, 444136, Control_c, 0, 64, 25
1, 444151, Control_c, 0, 64, 31
1, 444166, Control_c, 0, 64, 37
1, 444182, Control_c, 0, 64, 40
1, 444196, Control_c, 0, 64, 43
1, 444211, Control_c, 0, 64, 46
1, 444226, Control_c, 0, 64, 48
1, 444240, Control_c, 0, 64, 51
1, 444255, Control_c, 0, 64, 53
1, 444270, Control_c, 0, 64, 55
1, 444285, Control_c, 0, 64, 57
1, 444300, Control_c, 0, 64, 58
1, 444314, Control_c, 0, 64, 60
1, 444329, Control_c, 0, 64, 61
1, 444344, Control_c, 0, 64, 62
1, 444360, Control_c, 0, 64, 63
1, 444375, Control_c, 0, 64, 63
1, 444390, Control_c, 0, 64, 64
1, 444405, Control_c, 0, 64, 65
1, 444419, Control_c, 0, 64, 65
1, 444434, Control_c, 0, 64, 66
1, 444449, Control_c, 0, 64, 67
1, 444463, Control_c, 0, 64, 67
1, 444478, Control_c, 0, 64, 68
1, 444501, Control_c, 0, 64, 69
1, 444516, Control_c, 0, 64, 70
1, 444531, Control_c, 0, 64, 70
1, 444545, Control_c, 0, 64, 71
1, 444560, Control_c, 0, 64, 72
1, 444575, Control_c, 0, 64, 73
1, 444590, Control_c, 0, 64, 74
1, 444605, Control_c, 0, 64, 75
1, 444619, Control_c, 0, 64, 76
1, 444634, Control_c, 0, 64, 77
1, 444649, Control_c, 0, 64, 78
1, 444664, Control_c, 0, 64, 79
1, 444678, Control_c, 0, 64, 79
1, 444693, Control_c, 0, 64, 80
1, 444708, Control_c, 0, 64, 81
1, 444723, Control_c, 0, 64, 81
1, 444738, Control_c, 0, 64, 82
1, 444767, Control_c, 0, 64, 82
1, 445238, Note_off_c, 0, 60, 29
1, 445306, Note_off_c, 0, 75, 29
1, 445368, Note_off_c, 0, 69, 31
1, 445375, Note_off_c, 0, 57, 36
1, 445506, Note_off_c, 0, 66, 42
1, 445589, Control_c, 0, 64, 82
1, 445678, Control_c, 0, 64, 81
1, 445752, Control_c, 0, 64, 81
1, 445825, Control_c, 0, 64, 80
1, 445929, Control_c, 0, 64, 80
1, 445960, Control_c, 0, 64, 79
1, 446041, Control_c, 0, 64, 79
1, 446056, Control_c, 0, 64, 78
1, 446061, Note_on_c, 0, 37, 19
1, 446071, Control_c, 0, 64, 78
1, 446086, Control_c, 0, 64, 76
1, 446101, Control_c, 0, 64, 74
1, 446115, Control_c, 0, 64, 71
1, 446130, Control_c, 0, 64, 65
1, 446145, Control_c, 0, 64, 61
1, 446160, Control_c, 0, 64, 60
1, 446175, Control_c, 0, 64, 61
1, 446189, Control_c, 0, 64, 62
1, 446204, Control_c, 0, 64, 64
1, 446219, Control_c, 0, 64, 65
1, 446233, Control_c, 0, 64, 67
1, 446248, Control_c, 0, 64, 69
1, 446263, Control_c, 0, 64, 71
1, 446278, Control_c, 0, 64, 73
1, 446293, Control_c, 0, 64, 74
1, 446308, Control_c, 0, 64, 75
1, 446314, Note_on_c, 0, 41, 30
1, 446323, Control_c, 0, 64, 76
1, 446338, Control_c, 0, 64, 77
1, 446353, Control_c, 0, 64, 78
1, 446368, Control_c, 0, 64, 79
1, 446382, Control_c, 0, 64, 79
1, 446397, Control_c, 0, 64, 80
1, 446407, Note_off_c, 0, 41, 55
1, 446412, Control_c, 0, 64, 81
1, 446418, Note_off_c, 0, 37, 36
1, 446427, Control_c, 0, 64, 81
1, 446440, Note_on_c, 0, 44, 20
1, 446441, Control_c, 0, 64, 82
1, 446456, Control_c, 0, 64, 83
1, 446471, Control_c, 0, 64, 84
1, 446481, Note_on_c, 0, 47, 43
1, 446483, Note_off_c, 0, 44, 39
1, 446486, Control_c, 0, 64, 85
1, 446501, Control_c, 0, 64, 86
1, 446515, Control_c, 0, 64, 88
1, 446518, Note_off_c, 0, 47, 51
1, 446530, Control_c, 0, 64, 89
1, 446545, Control_c, 0, 64, 91
1, 446560, Control_c, 0, 64, 94
1, 446575, Control_c, 0, 64, 97
1, 446589, Control_c, 0, 64, 101
1, 446604, Control_c, 0, 64, 106
1, 446612, Note_on_c, 0, 53, 42
1, 446619, Control_c, 0, 64, 109
1, 446633, Control_c, 0, 64, 112
1, 446642, Note_on_c, 0, 56, 49
1, 446648, Control_c, 0, 64, 115
1, 446663, Control_c, 0, 64, 118
1, 446664, Note_on_c, 0, 59, 48
1, 446678, Control_c, 0, 64, 120
1, 446690, Note_off_c, 0, 56, 63
1, 446693, Control_c, 0, 64, 122
1, 446693, Control_c, 0, 67, 106
1, 446703, Note_on_c, 0, 61, 49
1, 446707, Control_c, 0, 64, 123
1, 446707, Control_c, 0, 67, 67
1, 446722, Note_on_c, 0, 65, 64
1, 446722, Control_c, 0, 64, 124
1, 446722, Control_c, 0, 67, 30
1, 446723, Note_off_c, 0, 59, 60
1, 446737, Note_off_c, 0, 61, 66
1, 446745, Control_c, 0, 64, 124
1, 446745, Control_c, 0, 67, 0
1, 446764, Note_off_c, 0, 65, 65
1, 446765, Note_on_c, 0, 49, 57
1, 446773, Note_off_c, 0, 53, 0
1, 446787, Note_on_c, 0, 53, 43
1, 446820, Note_on_c, 0, 56, 67
1, 446836, Note_off_c, 0, 49, 61
1, 446841, Note_off_c, 0, 53, 65
1, 446850, Note_on_c, 0, 59, 74
1, 446852, Note_off_c, 0, 56, 66
1, 446879, Note_off_c, 0, 59, 64
1, 446907, Note_on_c, 0, 65, 74
1, 446909, Control_c, 0, 64, 125
1, 446924, Control_c, 0, 64, 126
1, 446935, Note_on_c, 0, 70, 41
1, 446935, Note_on_c, 0, 68, 74
1, 446938, Control_c, 0, 64, 127
1, 446967, Note_on_c, 0, 71, 66
1, 446982, Note_off_c, 0, 68, 63
1, 446989, Note_on_c, 0, 73, 78
1, 447000, Note_on_c, 0, 77, 86
1, 447005, Note_off_c, 0, 65, 63
1, 447005, Note_off_c, 0, 70, 37
1, 447014, Note_off_c, 0, 73, 68
1, 447015, Note_off_c, 0, 71, 62
1, 447033, Note_on_c, 0, 61, 68
1, 447047, Note_off_c, 0, 77, 65
1, 447077, Note_on_c, 0, 65, 56
1, 447087, Note_on_c, 0, 68, 73
1, 447110, Note_off_c, 0, 65, 67
1, 447112, Note_off_c, 0, 61, 62
1, 447142, Note_off_c, 0, 68, 63
1, 447146, Note_on_c, 0, 71, 75
1, 447199, Note_on_c, 0, 73, 84
1, 447205, Note_off_c, 0, 71, 60
1, 447213, Note_on_c, 0, 77, 69
1, 447241, Note_off_c, 0, 73, 63
1, 447256, Note_on_c, 0, 80, 76
1, 447275, Note_off_c, 0, 77, 59
1, 447288, Note_on_c, 0, 83, 71
1, 447297, Note_off_c, 0, 80, 66
1, 447312, Note_on_c, 0, 85, 86
1, 447328, Note_on_c, 0, 89, 94
1, 447329, Note_off_c, 0, 83, 63
1, 447351, Note_off_c, 0, 85, 69
1, 447367, Note_off_c, 0, 89, 69
1, 447509, Control_c, 0, 64, 118
1, 447509, Control_c, 0, 67, 11
1, 447524, Control_c, 0, 64, 109
1, 447524, Control_c, 0, 67, 27
1, 447539, Control_c, 0, 64, 100
1, 447539, Control_c, 0, 67, 48
1, 447554, Control_c, 0, 64, 89
1, 447554, Control_c, 0, 67, 73
1, 447569, Control_c, 0, 64, 74
1, 447569, Control_c, 0, 67, 96
1, 447584, Control_c, 0, 64, 51
1, 447584, Control_c, 0, 67, 118
1, 447599, Control_c, 0, 64, 0
1, 447599, Control_c, 0, 67, 127
1, 448287, Control_c, 0, 67, 75
1, 448302, Control_c, 0, 67, 0
1, 448557, Note_on_c, 0, 57, 87
1, 448573, Note_on_c, 0, 48, 62
1, 448573, Note_on_c, 0, 42, 55
1, 448599, Note_off_c, 0, 57, 65
1, 448637, Note_on_c, 0, 66, 68
1, 448687, Note_off_c, 0, 66, 53
1, 448694, Note_on_c, 0, 57, 76
1, 448741, Note_off_c, 0, 57, 60
1, 448791, Note_on_c, 0, 66, 48
1, 448818, Note_off_c, 0, 66, 62
1, 448843, Note_on_c, 0, 57, 68
1, 448871, Note_off_c, 0, 57, 65
1, 448901, Note_on_c, 0, 66, 69
1, 448964, Note_off_c, 0, 48, 41
1, 448967, Note_off_c, 0, 66, 64
1, 448988, Note_on_c, 0, 58, 65
1, 448998, Note_on_c, 0, 49, 62
1, 449038, Note_off_c, 0, 49, 59
1, 449051, Note_off_c, 0, 58, 63
1, 449053, Note_on_c, 0, 66, 60
1, 449110, Control_c, 0, 64, 43
1, 449122, Note_off_c, 0, 66, 65
1, 449125, Control_c, 0, 64, 64
1, 449134, Note_on_c, 0, 59, 72
1, 449140, Control_c, 0, 64, 69
1, 449152, Note_on_c, 0, 51, 73
1, 449155, Control_c, 0, 64, 74
1, 449170, Control_c, 0, 64, 79
1, 449185, Control_c, 0, 64, 83
1, 449190, Note_off_c, 0, 59, 60
1, 449193, Note_on_c, 0, 66, 61
1, 449200, Control_c, 0, 64, 86
1, 449214, Control_c, 0, 64, 87
1, 449229, Control_c, 0, 64, 87
1, 449239, Note_off_c, 0, 66, 66
1, 449244, Control_c, 0, 64, 88
1, 449252, Note_off_c, 0, 51, 53
1, 449273, Note_on_c, 0, 63, 76
1, 449283, Note_on_c, 0, 47, 77
1, 449334, Note_off_c, 0, 63, 64
1, 449351, Note_on_c, 0, 71, 65
1, 449392, Note_off_c, 0, 47, 55
1, 449395, Note_off_c, 0, 71, 45
1, 449419, Note_on_c, 0, 68, 76
1, 449425, Note_on_c, 0, 53, 75
1, 449452, Control_c, 0, 64, 87
1, 449466, Control_c, 0, 64, 85
1, 449480, Note_off_c, 0, 68, 63
1, 449481, Control_c, 0, 64, 79
1, 449486, Note_off_c, 0, 53, 63
1, 449488, Note_on_c, 0, 71, 69
1, 449496, Control_c, 0, 64, 70
1, 449511, Control_c, 0, 64, 0
1, 449528, Note_off_c, 0, 71, 52
1, 449566, Note_on_c, 0, 65, 82
1, 449574, Note_on_c, 0, 49, 69
1, 449587, Note_off_c, 0, 42, 60
1, 449593, Note_off_c, 0, 49, 61
1, 449605, Note_off_c, 0, 65, 64
1, 449635, Note_on_c, 0, 73, 75
1, 449674, Note_off_c, 0, 73, 57
1, 449719, Note_on_c, 0, 69, 95
1, 449735, Note_on_c, 0, 54, 69
1, 449736, Note_on_c, 0, 60, 68
1, 449768, Note_off_c, 0, 69, 67
1, 449790, Note_on_c, 0, 78, 80
1, 449868, Note_off_c, 0, 78, 59
1, 449873, Note_on_c, 0, 69, 85
1, 449915, Note_off_c, 0, 69, 67
1, 449950, Note_on_c, 0, 78, 75
1, 450010, Note_off_c, 0, 78, 57
1, 450019, Note_on_c, 0, 69, 84
1, 450057, Note_off_c, 0, 69, 66
1, 450092, Note_on_c, 0, 78, 65
1, 450134, Note_off_c, 0, 60, 61
1, 450149, Note_off_c, 0, 78, 61
1, 450171, Note_on_c, 0, 70, 79
1, 450177, Note_on_c, 0, 61, 59
1, 450216, Note_off_c, 0, 61, 59
1, 450225, Note_off_c, 0, 70, 60
1, 450231, Note_on_c, 0, 78, 69
1, 450302, Note_off_c, 0, 78, 63
1, 450315, Note_on_c, 0, 71, 82
1, 450320, Control_c, 0, 64, 63
1, 450327, Note_on_c, 0, 63, 90
1, 450335, Control_c, 0, 64, 71
1, 450350, Control_c, 0, 64, 77
1, 450364, Control_c, 0, 64, 83
1, 450378, Note_off_c, 0, 71, 57
1, 450379, Control_c, 0, 64, 86
1, 450381, Note_on_c, 0, 78, 73
1, 450394, Control_c, 0, 64, 88
1, 450408, Control_c, 0, 64, 90
1, 450423, Control_c, 0, 64, 92
1, 450436, Note_off_c, 0, 78, 65
1, 450438, Control_c, 0, 64, 94
1, 450453, Control_c, 0, 64, 96
1, 450457, Note_on_c, 0, 75, 76
1, 450460, Note_off_c, 0, 63, 63
1, 450462, Note_on_c, 0, 59, 84
1, 450468, Control_c, 0, 64, 96
1, 450505, Control_c, 0, 64, 97
1, 450530, Note_off_c, 0, 75, 64
1, 450535, Note_on_c, 0, 83, 82
1, 450589, Note_off_c, 0, 83, 52
1, 450607, Note_on_c, 0, 65, 96
1, 450627, Note_on_c, 0, 80, 67
1, 450627, Note_on_c, 0, 81, 68
1, 450638, Note_off_c, 0, 59, 55
1, 450670, Note_on_c, 0, 83, 72
1, 450673, Note_off_c, 0, 80, 67
1, 450677, Note_off_c, 0, 81, 62
1, 450681, Note_off_c, 0, 65, 62
1, 450719, Note_off_c, 0, 83, 59
1, 450720, Note_off_c, 0, 54, 52
1, 450749, Note_on_c, 0, 61, 90
1, 450753, Note_on_c, 0, 77, 87
1, 450773, Control_c, 0, 64, 96
1, 450807, Note_off_c, 0, 77, 63
1, 450825, Note_on_c, 0, 85, 82
1, 450830, Note_off_c, 0, 61, 60
1, 450831, Control_c, 0, 64, 95
1, 450846, Control_c, 0, 64, 92
1, 450861, Control_c, 0, 64, 85
1, 450876, Control_c, 0, 64, 74
1, 450878, Note_off_c, 0, 85, 64
1, 450891, Control_c, 0, 64, 34
1, 450900, Note_on_c, 0, 66, 92
1, 450903, Note_on_c, 0, 78, 91
1, 450905, Control_c, 0, 64, 0
1, 450960, Note_off_c, 0, 66, 63
1, 450970, Note_on_c, 0, 82, 85
1, 450973, Note_off_c, 0, 78, 64
1, 451007, Note_off_c, 0, 82, 65
1, 451057, Note_on_c, 0, 82, 86
1, 451082, Note_on_c, 0, 61, 71
1, 451134, Note_off_c, 0, 82, 61
1, 451137, Note_on_c, 0, 85, 86
1, 451149, Note_off_c, 0, 61, 56
1, 451217, Note_on_c, 0, 82, 96
1, 451217, Note_off_c, 0, 85, 50
1, 451227, Note_on_c, 0, 54, 73
1, 451257, Note_off_c, 0, 54, 66
1, 451300, Note_on_c, 0, 85, 84
1, 451303, Note_off_c, 0, 82, 63
1, 451381, Note_on_c, 0, 83, 88
1, 451381, Note_off_c, 0, 85, 65
1, 451389, Note_on_c, 0, 49, 89
1, 451392, Note_on_c, 0, 80, 77
1, 451416, Note_off_c, 0, 49, 65
1, 451469, Note_on_c, 0, 90, 87
1, 451477, Note_off_c, 0, 83, 61
1, 451489, Note_off_c, 0, 80, 64
1, 451519, Note_off_c, 0, 90, 66
1, 451600, Note_on_c, 0, 90, 99
1, 451600, Note_on_c, 0, 82, 93
1, 451602, Note_on_c, 0, 78, 97
1, 451608, Note_on_c, 0, 42, 90
1, 451668, Control_c, 0, 64, 62
1, 451682, Note_off_c, 0, 78, 60
1, 451683, Control_c, 0, 64, 80
1, 451691, Note_off_c, 0, 90, 67
1, 451698, Control_c, 0, 64, 101
1, 451706, Note_off_c, 0, 82, 60
1, 451713, Control_c, 0, 64, 127
1, 451731, Note_off_c, 0, 42, 61
1, 451861, Control_c, 0, 67, 11
1, 451876, Control_c, 0, 67, 19
1, 451891, Control_c, 0, 67, 31
1, 451906, Control_c, 0, 64, 123
1, 451906, Control_c, 0, 67, 44
1, 451920, Control_c, 0, 64, 116
1, 451920, Control_c, 0, 67, 59
1, 451935, Control_c, 0, 64, 110
1, 451935, Control_c, 0, 67, 73
1, 451950, Control_c, 0, 64, 103
1, 451950, Control_c, 0, 67, 85
1, 451965, Control_c, 0, 64, 94
1, 451965, Control_c, 0, 67, 97
1, 451987, Control_c, 0, 64, 84
1, 451987, Control_c, 0, 67, 109
1, 452001, Control_c, 0, 64, 73
1, 452001, Control_c, 0, 67, 120
1, 452016, Control_c, 0, 64, 47
1, 452016, Control_c, 0, 67, 127
1, 452031, Control_c, 0, 64, 0
1, 453344, Control_c, 0, 64, 10
1, 453359, Control_c, 0, 64, 25
1, 453373, Control_c, 0, 64, 31
1, 453388, Control_c, 0, 64, 35
1, 453403, Control_c, 0, 64, 38
1, 453417, Control_c, 0, 64, 39
1, 453432, Control_c, 0, 64, 41
1, 453447, Control_c, 0, 64, 42
1, 453462, Control_c, 0, 64, 43
1, 453485, Control_c, 0, 64, 44
1, 453499, Control_c, 0, 64, 45
1, 453514, Control_c, 0, 64, 46
1, 453529, Control_c, 0, 64, 47
1, 453544, Control_c, 0, 64, 47
1, 453559, Control_c, 0, 64, 48
1, 453573, Control_c, 0, 64, 49
1, 453588, Control_c, 0, 64, 50
1, 453603, Control_c, 0, 64, 51
1, 453662, Control_c, 0, 64, 51
1, 453692, Control_c, 0, 64, 52
1, 453721, Control_c, 0, 64, 52
1, 453751, Control_c, 0, 64, 53
1, 453766, Control_c, 0, 64, 53
1, 453781, Control_c, 0, 64, 54
1, 453796, Control_c, 0, 64, 55
1, 453811, Control_c, 0, 64, 55
1, 453840, Control_c, 0, 64, 56
1, 453855, Control_c, 0, 64, 56
1, 453870, Control_c, 0, 64, 57
1, 453885, Control_c, 0, 64, 58
1, 453899, Control_c, 0, 64, 59
1, 453930, Control_c, 0, 64, 59
1, 453945, Control_c, 0, 64, 60
1, 453975, Control_c, 0, 64, 60
1, 453990, Control_c, 0, 64, 61
1, 454005, Control_c, 0, 64, 61
1, 454020, Control_c, 0, 64, 62
1, 454034, Control_c, 0, 64, 63
1, 454049, Control_c, 0, 64, 63
1, 454064, Control_c, 0, 64, 64
1, 454138, Control_c, 0, 64, 64
1, 454168, Control_c, 0, 64, 65
1, 454183, Control_c, 0, 64, 66
1, 454197, Control_c, 0, 64, 66
1, 454212, Control_c, 0, 64, 67
1, 454234, Control_c, 0, 64, 68
1, 454249, Control_c, 0, 64, 68
1, 454279, Control_c, 0, 64, 69
1, 454294, Control_c, 0, 64, 69
1, 454323, Control_c, 0, 64, 70
1, 454368, Control_c, 0, 64, 70
1, 454708, Control_c, 0, 64, 71
1, 454768, Control_c, 0, 64, 71
1, 454872, Control_c, 0, 64, 72
1, 455265, Control_c, 0, 64, 71
1, 455339, Control_c, 0, 64, 71
1, 455427, Control_c, 0, 64, 70
1, 456058, Control_c, 0, 67, 126
1, 456073, Control_c, 0, 67, 125
1, 456088, Control_c, 0, 67, 123
1, 456102, Control_c, 0, 67, 121
1, 456117, Control_c, 0, 67, 119
1, 456132, Control_c, 0, 67, 116
1, 456146, Control_c, 0, 67, 114
1, 456160, Control_c, 0, 67, 112
1, 456175, Control_c, 0, 67, 109
1, 456190, Control_c, 0, 67, 107
1, 456205, Control_c, 0, 67, 103
1, 456219, Control_c, 0, 67, 99
1, 456234, Control_c, 0, 67, 94
1, 456249, Control_c, 0, 67, 88
1, 456264, Control_c, 0, 67, 82
1, 456279, Control_c, 0, 67, 75
1, 456294, Control_c, 0, 67, 68
1, 456309, Control_c, 0, 67, 59
1, 456324, Control_c, 0, 67, 47
1, 456339, Control_c, 0, 67, 38
1, 456354, Control_c, 0, 67, 30
1, 456369, Control_c, 0, 67, 22
1, 456384, Control_c, 0, 67, 16
1, 456398, Control_c, 0, 67, 10
1, 456413, Control_c, 0, 67, 0
1, 456413, End_track
0, 0, End_of_file
