0, 0, Header, 0, 1, 384
1, 0, Start_track
1, 0, Title_t, "Prelude + Fugue--Jan Lisiecki      "
1, 0, Text_t, "2008 e-Piano Junior Competition virtual audition round"
1, 0, Text_t, "recorded January and February 2008"
1, 0, Text_t, "http://www.piano-e-competition.com/"
1, 0, Text_t, "File processed for distribution by software from Zenph Studios, Inc., http://www.zenph.com"
1, 0, Instrument_name_t, "Yamaha Disklavier Pro Mark IV concert grand piano, model DCFIIISM4PRO"
1, 0, Sequencer_specific, 39, 67, 113, 0, 1, 0, 1, 0, 80, 114, 101, 108, 117, 100, 101, 32, 43, 32, 70, 117, 103, 117, 101, 32, 74, 97, 110, 32, 76, 105, 115, 105, 101, 99, 107, 105, 32, 32, 32, 32
1, 0, Sequencer_specific, 6, 67, 113, 0, 0, 0, 69
1, 0, System_exclusive, 21, 67, 113, 126, 21, 0, 2, 2, 0, 0, 8, 1, 4, 7, 9, 14, 3, 0, 12, 5, 3, 247
1, 0, Sequencer_specific, 5, 67, 123, 12, 2, 1
1, 0, Tempo, 512820
1, 0, Time_signature, 4, 2, 24, 8
1, 0, System_exclusive, 5, 126, 127, 9, 1, 247
1, 1, System_exclusive, 8, 67, 16, 76, 0, 0, 126, 0, 247
1, 2, System_exclusive, 8, 67, 16, 76, 8, 9, 7, 1, 247
1, 3, Control_c, 0, 0, 0
1, 3, Control_c, 1, 0, 0
1, 3, Control_c, 2, 0, 0
1, 3, Control_c, 3, 0, 0
1, 3, Control_c, 4, 0, 0
1, 3, Control_c, 5, 0, 0
1, 3, Control_c, 6, 0, 0
1, 3, Control_c, 7, 0, 0
1, 3, Control_c, 8, 0, 0
1, 3, Control_c, 9, 0, 127
1, 3, Control_c, 10, 0, 0
1, 3, Control_c, 11, 0, 0
1, 3, Control_c, 12, 0, 0
1, 3, Control_c, 13, 0, 0
1, 3, Control_c, 14, 0, 0
1, 3, Control_c, 15, 0, 0
1, 4, Control_c, 0, 32, 0
1, 4, Control_c, 1, 32, 0
1, 4, Control_c, 2, 32, 0
1, 4, Control_c, 3, 32, 0
1, 4, Control_c, 4, 32, 0
1, 4, Control_c, 5, 32, 0
1, 4, Control_c, 6, 32, 0
1, 4, Control_c, 7, 32, 0
1, 4, Control_c, 8, 32, 0
1, 4, Control_c, 9, 32, 0
1, 4, Control_c, 10, 32, 0
1, 4, Control_c, 11, 32, 0
1, 4, Control_c, 12, 32, 0
1, 4, Control_c, 13, 32, 0
1, 4, Control_c, 14, 32, 0
1, 4, Control_c, 15, 32, 0
1, 5, Program_c, 0, 0
1, 5, Program_c, 1, 0
1, 5, Program_c, 2, 0
1, 5, Program_c, 3, 0
1, 5, Program_c, 4, 0
1, 5, Program_c, 5, 0
1, 5, Program_c, 6, 0
1, 5, Program_c, 7, 0
1, 5, Program_c, 8, 0
1, 5, Program_c, 9, 0
1, 5, Program_c, 10, 0
1, 5, Program_c, 11, 0
1, 5, Program_c, 12, 0
1, 5, Program_c, 13, 0
1, 5, Program_c, 14, 0
1, 5, Program_c, 15, 0
1, 6, Control_c, 0, 7, 100
1, 6, Control_c, 1, 7, 100
1, 6, Control_c, 2, 7, 100
1, 6, Control_c, 3, 7, 100
1, 6, Control_c, 4, 7, 100
1, 6, Control_c, 5, 7, 100
1, 6, Control_c, 6, 7, 100
1, 6, Control_c, 7, 7, 100
1, 6, Control_c, 8, 7, 100
1, 6, Control_c, 9, 7, 100
1, 6, Control_c, 10, 7, 100
1, 6, Control_c, 11, 7, 100
1, 6, Control_c, 12, 7, 100
1, 6, Control_c, 13, 7, 100
1, 6, Control_c, 14, 7, 100
1, 6, Control_c, 15, 7, 100
1, 1124, Control_c, 0, 64, 49
1, 1135, Note_on_c, 0, 49, 34
1, 1139, Control_c, 0, 64, 49
1, 1153, Control_c, 0, 64, 48
1, 1168, Control_c, 0, 64, 48
1, 1183, Control_c, 0, 64, 47
1, 1197, Control_c, 0, 64, 46
1, 1212, Control_c, 0, 64, 44
1, 1227, Control_c, 0, 64, 41
1, 1242, Control_c, 0, 64, 34
1, 1257, Control_c, 0, 64, 26
1, 1287, Control_c, 0, 64, 0
1, 1415, Note_on_c, 0, 52, 46
1, 1465, Note_off_c, 0, 49, 57
1, 1537, Note_off_c, 0, 52, 53
1, 1683, Note_on_c, 0, 56, 60
1, 1839, Note_off_c, 0, 56, 52
1, 2026, Note_on_c, 0, 61, 58
1, 2615, Note_on_c, 0, 68, 44
1, 2751, Note_off_c, 0, 68, 36
1, 2865, Note_on_c, 0, 73, 57
1, 2893, Note_on_c, 0, 64, 34
1, 2927, Note_on_c, 0, 72, 59
1, 2928, Note_off_c, 0, 73, 52
1, 2971, Note_on_c, 0, 73, 30
1, 2998, Note_off_c, 0, 72, 58
1, 3525, Note_on_c, 0, 76, 60
1, 3572, Note_off_c, 0, 73, 53
1, 3749, Note_off_c, 0, 76, 35
1, 3830, Note_on_c, 0, 76, 60
1, 3850, Note_on_c, 0, 66, 37
1, 4121, Note_on_c, 0, 75, 51
1, 4141, Note_on_c, 0, 59, 36
1, 4162, Note_off_c, 0, 64, 35
1, 4205, Note_off_c, 0, 76, 35
1, 4220, Note_off_c, 0, 61, 42
1, 4300, Note_off_c, 0, 59, 35
1, 4425, Note_on_c, 0, 57, 45
1, 4558, Note_off_c, 0, 66, 54
1, 4643, Note_off_c, 0, 57, 38
1, 4761, Note_on_c, 0, 59, 37
1, 4761, Note_on_c, 0, 68, 39
1, 5108, Note_off_c, 0, 75, 38
1, 5239, Note_on_c, 0, 75, 53
1, 5316, Note_off_c, 0, 75, 59
1, 5368, Note_on_c, 0, 76, 69
1, 5430, Note_off_c, 0, 76, 53
1, 5500, Note_on_c, 0, 78, 72
1, 5578, Note_off_c, 0, 78, 58
1, 5666, Note_on_c, 0, 80, 66
1, 5679, Note_off_c, 0, 68, 55
1, 5689, Note_on_c, 0, 63, 41
1, 5721, Note_on_c, 0, 78, 68
1, 5722, Note_off_c, 0, 80, 60
1, 5782, Note_on_c, 0, 80, 56
1, 5787, Note_off_c, 0, 78, 61
1, 5831, Note_off_c, 0, 59, 56
1, 6083, Note_on_c, 0, 52, 53
1, 6133, Note_off_c, 0, 52, 55
1, 6143, Note_off_c, 0, 80, 56
1, 6230, Note_on_c, 0, 80, 74
1, 6239, Note_on_c, 0, 54, 57
1, 6284, Note_off_c, 0, 54, 62
1, 6342, Note_off_c, 0, 80, 59
1, 6356, Note_on_c, 0, 56, 64
1, 6402, Note_off_c, 0, 63, 55
1, 6410, Note_off_c, 0, 56, 51
1, 6507, Note_on_c, 0, 80, 68
1, 6514, Note_on_c, 0, 61, 43
1, 6538, Note_on_c, 0, 56, 39
1, 6821, Note_on_c, 0, 57, 44
1, 6860, Note_off_c, 0, 56, 35
1, 7132, Note_on_c, 0, 73, 64
1, 7150, Note_off_c, 0, 80, 48
1, 7249, Note_off_c, 0, 73, 54
1, 7388, Note_on_c, 0, 78, 52
1, 7437, Note_off_c, 0, 78, 60
1, 7451, Note_on_c, 0, 76, 56
1, 7502, Note_on_c, 0, 78, 59
1, 7511, Note_off_c, 0, 76, 60
1, 7836, Note_off_c, 0, 57, 45
1, 7859, Note_on_c, 0, 76, 67
1, 7863, Note_on_c, 0, 56, 42
1, 7947, Note_off_c, 0, 76, 61
1, 7950, Note_off_c, 0, 61, 49
1, 7976, Note_off_c, 0, 56, 36
1, 7999, Note_on_c, 0, 75, 74
1, 8007, Note_on_c, 0, 54, 56
1, 8038, Note_off_c, 0, 54, 64
1, 8110, Note_off_c, 0, 75, 51
1, 8139, Note_on_c, 0, 73, 77
1, 8141, Note_on_c, 0, 52, 55
1, 8214, Note_off_c, 0, 52, 46
1, 8234, Note_off_c, 0, 73, 61
1, 8294, Note_on_c, 0, 73, 62
1, 8300, Note_on_c, 0, 51, 42
1, 8521, Note_off_c, 0, 78, 33
1, 8622, Note_on_c, 0, 72, 60
1, 8672, Note_off_c, 0, 73, 36
1, 8757, Note_off_c, 0, 51, 53
1, 8822, Note_off_c, 0, 72, 47
1, 8950, Note_on_c, 0, 78, 58
1, 8959, Note_on_c, 0, 75, 43
1, 8974, Note_on_c, 0, 54, 38
1, 9113, Note_off_c, 0, 54, 52
1, 9120, Note_off_c, 0, 75, 46
1, 9159, Note_off_c, 0, 78, 49
1, 9279, Note_on_c, 0, 78, 66
1, 9297, Note_on_c, 0, 48, 37
1, 9298, Note_on_c, 0, 69, 37
1, 9541, Note_off_c, 0, 69, 43
1, 9592, Note_on_c, 0, 68, 53
1, 9711, Note_off_c, 0, 78, 53
1, 9723, Note_off_c, 0, 48, 49
1, 9836, Note_off_c, 0, 68, 43
1, 9910, Note_on_c, 0, 80, 59
1, 9914, Note_on_c, 0, 72, 55
1, 9920, Note_on_c, 0, 44, 40
1, 10079, Note_off_c, 0, 44, 42
1, 10092, Note_off_c, 0, 72, 55
1, 10099, Note_off_c, 0, 80, 57
1, 10237, Note_on_c, 0, 78, 49
1, 10247, Note_on_c, 0, 49, 42
1, 10247, Note_on_c, 0, 73, 48
1, 10292, Note_off_c, 0, 49, 61
1, 10309, Note_on_c, 0, 48, 50
1, 10396, Note_off_c, 0, 48, 54
1, 10406, Note_on_c, 0, 49, 38
1, 10555, Note_on_c, 0, 76, 54
1, 10614, Note_off_c, 0, 78, 54
1, 11024, Note_off_c, 0, 49, 36
1, 11241, Note_on_c, 0, 37, 38
1, 11580, Note_on_c, 0, 75, 47
1, 11582, Note_off_c, 0, 73, 48
1, 11592, Note_on_c, 0, 72, 47
1, 11593, Note_off_c, 0, 76, 37
1, 11891, Note_off_c, 0, 37, 53
1, 11916, Note_on_c, 0, 73, 42
1, 11916, Note_on_c, 0, 76, 53
1, 11954, Note_off_c, 0, 72, 30
1, 11957, Note_off_c, 0, 75, 34
1, 12162, Note_off_c, 0, 76, 32
1, 12271, Note_on_c, 0, 76, 46
1, 12289, Note_on_c, 0, 44, 37
1, 12296, Note_on_c, 0, 72, 44
1, 12304, Note_off_c, 0, 73, 40
1, 12566, Note_on_c, 0, 75, 49
1, 12585, Note_on_c, 0, 48, 49
1, 12596, Note_off_c, 0, 76, 34
1, 12642, Note_off_c, 0, 44, 37
1, 12770, Note_off_c, 0, 48, 56
1, 12897, Note_on_c, 0, 51, 60
1, 13106, Note_off_c, 0, 51, 53
1, 13219, Note_on_c, 0, 56, 59
1, 13613, Note_off_c, 0, 75, 55
1, 13621, Note_on_c, 0, 57, 60
1, 13664, Note_off_c, 0, 56, 45
1, 13717, Note_off_c, 0, 57, 58
1, 13780, Note_on_c, 0, 56, 69
1, 13783, Note_on_c, 0, 75, 63
1, 13844, Note_off_c, 0, 56, 59
1, 13899, Note_on_c, 0, 54, 72
1, 13964, Note_off_c, 0, 75, 53
1, 13991, Note_off_c, 0, 54, 58
1, 14038, Note_on_c, 0, 75, 64
1, 14040, Note_on_c, 0, 56, 61
1, 14109, Note_off_c, 0, 56, 59
1, 14110, Note_on_c, 0, 54, 67
1, 14168, Note_on_c, 0, 56, 55
1, 14172, Note_off_c, 0, 54, 58
1, 14359, Note_on_c, 0, 76, 70
1, 14384, Note_off_c, 0, 75, 47
1, 14447, Note_off_c, 0, 72, 50
1, 14551, Note_off_c, 0, 76, 56
1, 14562, Note_off_c, 0, 56, 47
1, 14687, Note_on_c, 0, 72, 72
1, 14705, Note_on_c, 0, 56, 46
1, 14708, Note_on_c, 0, 68, 54
1, 14901, Note_off_c, 0, 56, 52
1, 14916, Note_off_c, 0, 72, 55
1, 14937, Note_off_c, 0, 68, 46
1, 15022, Note_on_c, 0, 72, 64
1, 15034, Note_on_c, 0, 56, 50
1, 15035, Note_on_c, 0, 69, 53
1, 15356, Note_on_c, 0, 73, 53
1, 15413, Note_off_c, 0, 72, 38
1, 15482, Note_on_c, 0, 49, 53
1, 15520, Note_off_c, 0, 56, 38
1, 15565, Note_off_c, 0, 49, 53
1, 15619, Note_on_c, 0, 51, 55
1, 15707, Note_off_c, 0, 51, 45
1, 15738, Note_on_c, 0, 53, 56
1, 15836, Note_off_c, 0, 53, 35
1, 15883, Note_on_c, 0, 54, 48
1, 15948, Note_off_c, 0, 54, 56
1, 15953, Note_on_c, 0, 53, 52
1, 16027, Note_off_c, 0, 53, 59
1, 16045, Note_on_c, 0, 54, 51
1, 16379, Note_on_c, 0, 76, 66
1, 16385, Note_off_c, 0, 73, 59
1, 16397, Note_on_c, 0, 56, 47
1, 16421, Note_off_c, 0, 54, 36
1, 16456, Note_off_c, 0, 56, 53
1, 16522, Note_on_c, 0, 75, 75
1, 16529, Note_on_c, 0, 54, 55
1, 16583, Note_off_c, 0, 54, 54
1, 16602, Note_off_c, 0, 76, 33
1, 16658, Note_on_c, 0, 73, 73
1, 16677, Note_off_c, 0, 75, 58
1, 16677, Note_on_c, 0, 52, 49
1, 16744, Note_off_c, 0, 73, 61
1, 16787, Note_off_c, 0, 52, 35
1, 16803, Note_on_c, 0, 73, 67
1, 16816, Note_on_c, 0, 54, 40
1, 16861, Note_off_c, 0, 54, 61
1, 16877, Note_on_c, 0, 52, 52
1, 16927, Note_off_c, 0, 52, 59
1, 16956, Note_on_c, 0, 54, 57
1, 17115, Note_on_c, 0, 81, 64
1, 17141, Note_off_c, 0, 73, 55
1, 17192, Note_off_c, 0, 69, 36
1, 17293, Note_off_c, 0, 54, 44
1, 17312, Note_off_c, 0, 81, 34
1, 17431, Note_on_c, 0, 73, 59
1, 17443, Note_on_c, 0, 69, 42
1, 17444, Note_on_c, 0, 54, 38
1, 17589, Note_off_c, 0, 73, 60
1, 17636, Note_off_c, 0, 54, 54
1, 17638, Note_off_c, 0, 69, 56
1, 17770, Note_on_c, 0, 73, 57
1, 17783, Note_on_c, 0, 54, 40
1, 17815, Note_on_c, 0, 68, 33
1, 18080, Note_on_c, 0, 72, 62
1, 18090, Note_off_c, 0, 54, 35
1, 18093, Note_on_c, 0, 56, 40
1, 18099, Note_off_c, 0, 68, 38
1, 18134, Note_off_c, 0, 73, 51
1, 18155, Note_off_c, 0, 56, 54
1, 18215, Note_on_c, 0, 54, 55
1, 18287, Note_off_c, 0, 54, 53
1, 18373, Note_on_c, 0, 68, 72
1, 18381, Note_on_c, 0, 52, 47
1, 18423, Note_off_c, 0, 72, 50
1, 18498, Note_off_c, 0, 52, 30
1, 18525, Note_on_c, 0, 51, 44
1, 18579, Note_off_c, 0, 51, 53
1, 18591, Note_off_c, 0, 68, 50
1, 18694, Note_on_c, 0, 52, 48
1, 18694, Note_on_c, 0, 68, 75
1, 18885, Note_on_c, 0, 73, 67
1, 18924, Note_off_c, 0, 68, 55
1, 18950, Note_off_c, 0, 73, 61
1, 18953, Note_on_c, 0, 72, 65
1, 19014, Note_on_c, 0, 73, 70
1, 19048, Note_off_c, 0, 72, 61
1, 19338, Note_on_c, 0, 56, 71
1, 19682, Note_on_c, 0, 61, 80
1, 19808, Note_off_c, 0, 56, 54
1, 20017, Note_on_c, 0, 51, 44
1, 20057, Note_off_c, 0, 52, 52
1, 20129, Note_off_c, 0, 51, 52
1, 20330, Note_on_c, 0, 64, 75
1, 20341, Note_on_c, 0, 49, 51
1, 20421, Note_off_c, 0, 61, 56
1, 20477, Note_off_c, 0, 49, 54
1, 20683, Note_on_c, 0, 63, 73
1, 20698, Note_on_c, 0, 54, 48
1, 20728, Note_off_c, 0, 64, 58
1, 21009, Note_on_c, 0, 52, 49
1, 21039, Note_off_c, 0, 54, 44
1, 21172, Note_off_c, 0, 52, 48
1, 21321, Note_on_c, 0, 75, 63
1, 21351, Note_on_c, 0, 51, 43
1, 21384, Note_off_c, 0, 73, 53
1, 21489, Note_off_c, 0, 51, 55
1, 21642, Note_on_c, 0, 73, 57
1, 21673, Note_on_c, 0, 56, 44
1, 21712, Note_off_c, 0, 75, 51
1, 21968, Note_off_c, 0, 63, 47
1, 21971, Note_on_c, 0, 71, 58
1, 21982, Note_off_c, 0, 73, 59
1, 22098, Note_on_c, 0, 63, 57
1, 22107, Note_off_c, 0, 56, 39
1, 22163, Note_off_c, 0, 63, 60
1, 22251, Note_on_c, 0, 64, 71
1, 22263, Note_on_c, 0, 54, 46
1, 22315, Note_off_c, 0, 64, 59
1, 22328, Note_off_c, 0, 54, 51
1, 22372, Note_on_c, 0, 66, 74
1, 22430, Note_off_c, 0, 66, 61
1, 22546, Note_on_c, 0, 68, 68
1, 22576, Note_on_c, 0, 54, 37
1, 22591, Note_off_c, 0, 68, 62
1, 22596, Note_on_c, 0, 66, 67
1, 22655, Note_off_c, 0, 66, 60
1, 22673, Note_on_c, 0, 68, 59
1, 22865, Note_on_c, 0, 53, 57
1, 22872, Note_off_c, 0, 54, 35
1, 22934, Note_off_c, 0, 53, 58
1, 23002, Note_on_c, 0, 53, 62
1, 23047, Note_off_c, 0, 68, 39
1, 23095, Note_off_c, 0, 53, 57
1, 23146, Note_on_c, 0, 68, 71
1, 23151, Note_on_c, 0, 54, 75
1, 23217, Note_off_c, 0, 54, 61
1, 23286, Note_on_c, 0, 56, 75
1, 23353, Note_off_c, 0, 56, 59
1, 23353, Note_off_c, 0, 68, 48
1, 23464, Note_on_c, 0, 57, 65
1, 23465, Note_on_c, 0, 68, 70
1, 23787, Note_on_c, 0, 59, 63
1, 23837, Note_off_c, 0, 57, 51
1, 23950, Note_off_c, 0, 59, 50
1, 24099, Note_on_c, 0, 61, 57
1, 24103, Note_off_c, 0, 68, 52
1, 24108, Note_on_c, 0, 56, 51
1, 24261, Note_off_c, 0, 56, 44
1, 24412, Note_on_c, 0, 69, 55
1, 24413, Note_on_c, 0, 66, 48
1, 24418, Note_off_c, 0, 71, 47
1, 24419, Note_on_c, 0, 54, 46
1, 24468, Note_off_c, 0, 61, 30
1, 24520, Note_off_c, 0, 69, 57
1, 24534, Note_on_c, 0, 71, 50
1, 24611, Note_off_c, 0, 71, 60
1, 24623, Note_on_c, 0, 69, 57
1, 24686, Note_off_c, 0, 69, 56
1, 24691, Note_on_c, 0, 71, 59
1, 24710, Note_on_c, 0, 56, 45
1, 24715, Note_off_c, 0, 54, 56
1, 24746, Note_off_c, 0, 71, 63
1, 24749, Note_on_c, 0, 69, 38
1, 24812, Note_off_c, 0, 69, 61
1, 24829, Note_off_c, 0, 56, 35
1, 24832, Note_on_c, 0, 71, 44
1, 24848, Poly_aftertouch_c, 0, 69, 0
1, 24860, Note_on_c, 0, 69, 42
1, 24872, Note_off_c, 0, 71, 59
1, 24967, Note_off_c, 0, 69, 61
1, 24982, Note_on_c, 0, 68, 56
1, 24991, Note_on_c, 0, 52, 43
1, 25116, Note_off_c, 0, 68, 34
1, 25120, Note_off_c, 0, 52, 60
1, 25278, Note_on_c, 0, 68, 61
1, 25300, Note_on_c, 0, 51, 44
1, 25587, Note_on_c, 0, 69, 61
1, 25591, Note_on_c, 0, 52, 45
1, 25622, Note_off_c, 0, 51, 34
1, 25668, Note_off_c, 0, 66, 41
1, 25670, Note_off_c, 0, 68, 35
1, 25751, Note_off_c, 0, 52, 46
1, 25903, Note_on_c, 0, 71, 55
1, 25917, Note_on_c, 0, 66, 46
1, 25922, Note_on_c, 0, 49, 42
1, 25941, Note_off_c, 0, 69, 32
1, 26080, Note_off_c, 0, 49, 55
1, 26118, Note_off_c, 0, 66, 39
1, 26228, Note_on_c, 0, 69, 54
1, 26240, Note_on_c, 0, 48, 44
1, 26243, Note_on_c, 0, 66, 42
1, 26284, Note_off_c, 0, 71, 35
1, 26544, Note_on_c, 0, 46, 43
1, 26547, Note_on_c, 0, 68, 49
1, 26560, Note_off_c, 0, 48, 41
1, 26582, Note_off_c, 0, 69, 34
1, 26685, Note_off_c, 0, 46, 47
1, 26745, Note_off_c, 0, 68, 36
1, 26854, Note_on_c, 0, 44, 45
1, 26854, Note_on_c, 0, 68, 55
1, 26957, Note_off_c, 0, 66, 45
1, 26985, Note_off_c, 0, 44, 55
1, 27086, Note_on_c, 0, 66, 44
1, 27104, Note_off_c, 0, 68, 45
1, 27143, Note_on_c, 0, 49, 52
1, 27151, Note_off_c, 0, 66, 60
1, 27161, Note_on_c, 0, 64, 56
1, 27211, Note_off_c, 0, 64, 57
1, 27214, Note_on_c, 0, 66, 55
1, 27270, Note_on_c, 0, 64, 59
1, 27277, Note_off_c, 0, 66, 62
1, 27432, Note_off_c, 0, 49, 52
1, 27433, Note_on_c, 0, 51, 60
1, 27604, Note_off_c, 0, 51, 57
1, 27728, Note_on_c, 0, 68, 70
1, 27731, Note_on_c, 0, 47, 64
1, 27891, Note_off_c, 0, 68, 57
1, 27894, Note_off_c, 0, 47, 60
1, 28056, Note_on_c, 0, 73, 77
1, 28064, Note_on_c, 0, 46, 59
1, 28378, Note_on_c, 0, 63, 82
1, 28386, Note_on_c, 0, 47, 56
1, 28446, Note_off_c, 0, 46, 44
1, 28452, Note_off_c, 0, 64, 53
1, 28540, Note_off_c, 0, 47, 55
1, 28687, Note_on_c, 0, 64, 76
1, 28694, Note_on_c, 0, 44, 56
1, 28752, Note_off_c, 0, 63, 59
1, 28857, Note_off_c, 0, 44, 57
1, 29005, Note_on_c, 0, 63, 62
1, 29014, Note_on_c, 0, 43, 47
1, 29014, Note_off_c, 0, 64, 53
1, 29316, Note_on_c, 0, 41, 48
1, 29359, Note_off_c, 0, 43, 38
1, 29441, Note_off_c, 0, 41, 59
1, 29628, Note_on_c, 0, 75, 62
1, 29639, Note_on_c, 0, 39, 45
1, 29670, Note_off_c, 0, 73, 47
1, 29792, Note_off_c, 0, 39, 52
1, 29942, Note_on_c, 0, 73, 57
1, 29945, Note_on_c, 0, 44, 48
1, 30009, Note_off_c, 0, 75, 41
1, 30043, Note_off_c, 0, 73, 57
1, 30048, Note_on_c, 0, 71, 62
1, 30129, Note_off_c, 0, 71, 60
1, 30146, Note_on_c, 0, 73, 60
1, 30213, Note_on_c, 0, 71, 57
1, 30218, Note_off_c, 0, 73, 62
1, 30239, Note_on_c, 0, 47, 44
1, 30264, Note_off_c, 0, 44, 49
1, 30273, Note_off_c, 0, 71, 57
1, 30282, Note_on_c, 0, 73, 62
1, 30342, Note_off_c, 0, 47, 37
1, 30344, Note_on_c, 0, 71, 54
1, 30350, Note_off_c, 0, 73, 59
1, 30392, Note_on_c, 0, 73, 49
1, 30396, Note_off_c, 0, 71, 58
1, 30446, Note_on_c, 0, 71, 47
1, 30481, Note_off_c, 0, 73, 61
1, 30488, Note_off_c, 0, 63, 45
1, 30515, Note_on_c, 0, 46, 49
1, 30650, Note_off_c, 0, 46, 52
1, 30844, Note_on_c, 0, 68, 64
1, 30873, Note_on_c, 0, 47, 52
1, 31159, Note_on_c, 0, 70, 58
1, 31174, Note_off_c, 0, 71, 53
1, 31178, Note_on_c, 0, 49, 60
1, 31215, Note_off_c, 0, 47, 51
1, 31320, Note_off_c, 0, 49, 59
1, 31481, Note_on_c, 0, 71, 71
1, 31488, Note_on_c, 0, 51, 68
1, 31504, Note_off_c, 0, 70, 58
1, 31679, Note_off_c, 0, 51, 57
1, 31711, Note_off_c, 0, 71, 54
1, 31819, Note_on_c, 0, 71, 78
1, 31823, Note_on_c, 0, 52, 69
1, 32128, Note_on_c, 0, 70, 73
1, 32148, Note_off_c, 0, 71, 56
1, 32148, Note_on_c, 0, 54, 57
1, 32226, Note_off_c, 0, 52, 53
1, 32288, Note_off_c, 0, 54, 57
1, 32475, Note_on_c, 0, 51, 62
1, 32648, Note_off_c, 0, 51, 58
1, 32801, Note_on_c, 0, 67, 78
1, 32817, Note_on_c, 0, 49, 69
1, 32880, Note_off_c, 0, 68, 48
1, 33124, Note_on_c, 0, 51, 72
1, 33129, Note_off_c, 0, 49, 61
1, 33349, Note_off_c, 0, 51, 35
1, 33451, Note_on_c, 0, 47, 70
1, 33457, Note_on_c, 0, 71, 79
1, 33464, Note_on_c, 0, 68, 67
1, 33498, Note_off_c, 0, 67, 60
1, 33510, Note_off_c, 0, 70, 54
1, 33637, Note_off_c, 0, 47, 61
1, 33643, Note_off_c, 0, 71, 60
1, 33647, Note_off_c, 0, 68, 54
1, 33796, Note_on_c, 0, 73, 75
1, 33800, Note_on_c, 0, 46, 66
1, 33803, Note_on_c, 0, 70, 62
1, 33877, Note_off_c, 0, 73, 62
1, 33879, Note_on_c, 0, 71, 67
1, 33949, Note_on_c, 0, 47, 71
1, 33953, Note_on_c, 0, 73, 76
1, 33955, Note_off_c, 0, 46, 59
1, 33966, Note_off_c, 0, 71, 61
1, 34109, Note_on_c, 0, 49, 77
1, 34109, Note_off_c, 0, 47, 61
1, 34289, Note_off_c, 0, 49, 55
1, 34458, Note_on_c, 0, 46, 73
1, 34673, Note_off_c, 0, 46, 55
1, 34931, Note_on_c, 0, 39, 69
1, 35293, Note_on_c, 0, 76, 73
1, 35578, Note_off_c, 0, 73, 53
1, 35607, Note_on_c, 0, 71, 62
1, 35608, Note_on_c, 0, 75, 72
1, 35622, Note_off_c, 0, 70, 47
1, 35698, Note_off_c, 0, 76, 35
1, 35874, Note_off_c, 0, 71, 35
1, 35879, Note_off_c, 0, 75, 59
1, 35942, Note_on_c, 0, 75, 62
1, 35968, Note_on_c, 0, 71, 53
1, 36228, Note_off_c, 0, 75, 59
1, 36232, Note_on_c, 0, 76, 59
1, 36242, Note_off_c, 0, 39, 62
1, 36256, Note_on_c, 0, 73, 50
1, 36269, Note_off_c, 0, 71, 33
1, 36303, Note_off_c, 0, 76, 53
1, 36305, Note_on_c, 0, 75, 56
1, 36360, Note_on_c, 0, 76, 41
1, 36376, Note_off_c, 0, 75, 59
1, 36525, Note_on_c, 0, 55, 60
1, 36694, Note_off_c, 0, 55, 54
1, 36878, Note_on_c, 0, 55, 50
1, 37199, Note_on_c, 0, 56, 47
1, 37263, Note_off_c, 0, 55, 49
1, 37360, Note_off_c, 0, 73, 39
1, 37552, Note_on_c, 0, 73, 58
1, 37563, Note_on_c, 0, 70, 44
1, 37590, Note_off_c, 0, 76, 47
1, 37685, Note_off_c, 0, 73, 56
1, 37692, Note_off_c, 0, 70, 39
1, 37838, Note_on_c, 0, 75, 60
1, 37857, Note_on_c, 0, 71, 37
1, 37896, Note_off_c, 0, 75, 58
1, 37899, Note_on_c, 0, 73, 63
1, 37953, Note_on_c, 0, 75, 60
1, 37961, Note_off_c, 0, 73, 58
1, 38199, Note_on_c, 0, 54, 45
1, 38245, Note_off_c, 0, 56, 55
1, 38426, Note_off_c, 0, 54, 50
1, 38545, Note_on_c, 0, 76, 72
1, 38560, Note_on_c, 0, 52, 47
1, 38572, Note_off_c, 0, 75, 50
1, 38695, Control_c, 0, 67, 37
1, 38710, Control_c, 0, 67, 34
1, 38725, Control_c, 0, 67, 30
1, 38739, Control_c, 0, 67, 26
1, 38745, Note_off_c, 0, 71, 54
1, 38754, Control_c, 0, 67, 22
1, 38769, Control_c, 0, 67, 19
1, 38784, Control_c, 0, 67, 17
1, 38799, Control_c, 0, 67, 16
1, 38804, Note_off_c, 0, 52, 33
1, 38813, Control_c, 0, 67, 16
1, 38882, Note_on_c, 0, 78, 72
1, 38901, Note_on_c, 0, 72, 50
1, 38912, Note_on_c, 0, 51, 35
1, 38918, Note_off_c, 0, 76, 57
1, 39051, Control_c, 0, 67, 16
1, 39080, Control_c, 0, 67, 17
1, 39125, Control_c, 0, 67, 17
1, 39162, Control_c, 0, 67, 18
1, 39176, Control_c, 0, 67, 18
1, 39206, Control_c, 0, 67, 19
1, 39235, Note_on_c, 0, 76, 72
1, 39235, Control_c, 0, 67, 19
1, 39250, Control_c, 0, 67, 20
1, 39266, Control_c, 0, 67, 20
1, 39281, Control_c, 0, 67, 21
1, 39332, Note_off_c, 0, 78, 34
1, 39337, Note_off_c, 0, 51, 33
1, 39384, Control_c, 0, 67, 21
1, 39387, Note_off_c, 0, 76, 51
1, 39399, Control_c, 0, 67, 22
1, 39414, Control_c, 0, 67, 22
1, 39429, Control_c, 0, 67, 23
1, 39443, Control_c, 0, 67, 24
1, 39458, Control_c, 0, 67, 25
1, 39473, Control_c, 0, 67, 26
1, 39488, Control_c, 0, 67, 27
1, 39503, Control_c, 0, 67, 29
1, 39517, Control_c, 0, 67, 32
1, 39532, Control_c, 0, 67, 36
1, 39546, Note_on_c, 0, 75, 60
1, 39547, Control_c, 0, 67, 40
1, 39557, Note_on_c, 0, 56, 42
1, 39561, Control_c, 0, 67, 45
1, 39576, Control_c, 0, 67, 49
1, 39591, Control_c, 0, 67, 53
1, 39606, Control_c, 0, 67, 57
1, 39621, Control_c, 0, 67, 62
1, 39636, Control_c, 0, 67, 67
1, 39649, Note_off_c, 0, 72, 50
1, 39651, Control_c, 0, 67, 73
1, 39666, Control_c, 0, 67, 79
1, 39681, Control_c, 0, 67, 86
1, 39694, Note_off_c, 0, 56, 51
1, 39695, Control_c, 0, 67, 90
1, 39710, Control_c, 0, 67, 92
1, 39713, Note_off_c, 0, 75, 60
1, 39755, Control_c, 0, 67, 93
1, 39769, Control_c, 0, 67, 99
1, 39784, Control_c, 0, 67, 107
1, 39799, Control_c, 0, 67, 115
1, 39814, Control_c, 0, 67, 120
1, 39829, Control_c, 0, 67, 122
1, 39844, Note_on_c, 0, 49, 37
1, 39854, Note_on_c, 0, 77, 57
1, 39858, Control_c, 0, 67, 121
1, 39871, Note_on_c, 0, 73, 44
1, 39895, Control_c, 0, 67, 122
1, 39910, Control_c, 0, 67, 123
1, 39944, Note_off_c, 0, 49, 36
1, 39947, Note_on_c, 0, 51, 36
1, 39955, Control_c, 0, 67, 122
1, 39970, Control_c, 0, 67, 120
1, 40001, Note_off_c, 0, 51, 57
1, 40014, Control_c, 0, 67, 120
1, 40029, Control_c, 0, 67, 119
1, 40033, Note_on_c, 0, 49, 34
1, 40044, Control_c, 0, 67, 117
1, 40059, Control_c, 0, 67, 114
1, 40074, Control_c, 0, 67, 113
1, 40077, Note_off_c, 0, 49, 59
1, 40089, Note_on_c, 0, 51, 42
1, 40134, Control_c, 0, 67, 113
1, 40141, Note_off_c, 0, 51, 56
1, 40149, Control_c, 0, 67, 111
1, 40153, Note_on_c, 0, 80, 83
1, 40163, Note_off_c, 0, 77, 60
1, 40164, Control_c, 0, 67, 108
1, 40175, Note_on_c, 0, 49, 44
1, 40178, Control_c, 0, 67, 104
1, 40193, Control_c, 0, 67, 101
1, 40208, Control_c, 0, 67, 98
1, 40217, Note_off_c, 0, 49, 61
1, 40223, Control_c, 0, 67, 95
1, 40238, Control_c, 0, 67, 92
1, 40238, Note_on_c, 0, 51, 37
1, 40253, Control_c, 0, 67, 90
1, 40267, Control_c, 0, 67, 89
1, 40273, Note_off_c, 0, 51, 56
1, 40282, Control_c, 0, 67, 89
1, 40296, Note_on_c, 0, 49, 51
1, 40297, Control_c, 0, 67, 88
1, 40311, Control_c, 0, 67, 87
1, 40321, Note_off_c, 0, 80, 55
1, 40326, Control_c, 0, 67, 86
1, 40341, Control_c, 0, 67, 85
1, 40345, Note_off_c, 0, 49, 57
1, 40356, Control_c, 0, 67, 85
1, 40371, Control_c, 0, 67, 84
1, 40380, Note_on_c, 0, 51, 39
1, 40385, Control_c, 0, 67, 83
1, 40400, Control_c, 0, 67, 82
1, 40415, Control_c, 0, 67, 81
1, 40429, Note_off_c, 0, 51, 42
1, 40430, Control_c, 0, 67, 80
1, 40431, Note_on_c, 0, 49, 43
1, 40445, Control_c, 0, 67, 79
1, 40459, Control_c, 0, 67, 77
1, 40467, Note_on_c, 0, 79, 92
1, 40474, Control_c, 0, 67, 75
1, 40488, Note_on_c, 0, 51, 20
1, 40489, Control_c, 0, 67, 73
1, 40504, Control_c, 0, 67, 71
1, 40518, Control_c, 0, 67, 67
1, 40526, Note_off_c, 0, 51, 48
1, 40533, Control_c, 0, 67, 64
1, 40548, Control_c, 0, 67, 61
1, 40563, Control_c, 0, 67, 57
1, 40567, Note_off_c, 0, 49, 51
1, 40578, Control_c, 0, 67, 55
1, 40580, Note_off_c, 0, 73, 37
1, 40584, Note_off_c, 0, 79, 61
1, 40593, Control_c, 0, 67, 54
1, 40595, Note_on_c, 0, 48, 34
1, 40608, Control_c, 0, 67, 54
1, 40697, Note_on_c, 0, 49, 55
1, 40704, Control_c, 0, 67, 53
1, 40718, Control_c, 0, 67, 53
1, 40733, Control_c, 0, 67, 52
1, 40736, Note_off_c, 0, 48, 33
1, 40748, Control_c, 0, 67, 52
1, 40767, Note_off_c, 0, 49, 49
1, 40791, Note_on_c, 0, 50, 46
1, 40805, Note_on_c, 0, 80, 89
1, 40816, Note_on_c, 0, 71, 64
1, 40837, Control_c, 0, 67, 51
1, 40852, Control_c, 0, 67, 49
1, 40868, Control_c, 0, 67, 47
1, 40876, Note_off_c, 0, 50, 53
1, 40880, Note_on_c, 0, 51, 43
1, 40882, Control_c, 0, 67, 45
1, 40897, Control_c, 0, 67, 43
1, 40912, Control_c, 0, 67, 40
1, 40927, Control_c, 0, 67, 37
1, 40939, Note_off_c, 0, 51, 57
1, 40942, Control_c, 0, 67, 32
1, 40954, Note_on_c, 0, 50, 37
1, 40956, Control_c, 0, 67, 24
1, 40971, Control_c, 0, 67, 18
1, 41013, Note_off_c, 0, 50, 57
1, 41031, Note_on_c, 0, 51, 44
1, 41082, Note_off_c, 0, 51, 58
1, 41102, Note_on_c, 0, 50, 38
1, 41129, Note_on_c, 0, 79, 89
1, 41163, Note_off_c, 0, 50, 55
1, 41179, Note_on_c, 0, 51, 47
1, 41179, Control_c, 0, 67, 0
1, 41194, Note_off_c, 0, 80, 51
1, 41235, Note_off_c, 0, 51, 54
1, 41251, Note_on_c, 0, 50, 47
1, 41272, Note_off_c, 0, 79, 60
1, 41320, Note_off_c, 0, 50, 52
1, 41333, Note_on_c, 0, 51, 39
1, 41364, Note_off_c, 0, 51, 56
1, 41372, Note_on_c, 0, 50, 34
1, 41431, Note_off_c, 0, 50, 59
1, 41446, Note_on_c, 0, 51, 50
1, 41460, Note_on_c, 0, 77, 84
1, 41479, Note_off_c, 0, 51, 55
1, 41491, Note_on_c, 0, 50, 43
1, 41562, Note_off_c, 0, 71, 54
1, 41578, Note_off_c, 0, 50, 59
1, 41593, Note_on_c, 0, 48, 51
1, 41616, Note_off_c, 0, 77, 57
1, 41662, Note_off_c, 0, 48, 58
1, 41679, Note_on_c, 0, 50, 45
1, 41748, Note_off_c, 0, 50, 57
1, 41772, Note_on_c, 0, 79, 82
1, 41778, Note_on_c, 0, 51, 51
1, 41791, Note_on_c, 0, 70, 60
1, 42123, Note_on_c, 0, 73, 66
1, 42218, Note_off_c, 0, 70, 38
1, 42453, Note_off_c, 0, 73, 61
1, 42461, Note_on_c, 0, 80, 81
1, 42467, Note_on_c, 0, 71, 53
1, 42560, Note_off_c, 0, 79, 37
1, 42766, Note_on_c, 0, 82, 76
1, 42780, Note_on_c, 0, 73, 56
1, 42818, Note_off_c, 0, 71, 47
1, 42833, Note_off_c, 0, 80, 60
1, 42929, Note_off_c, 0, 73, 33
1, 42930, Note_on_c, 0, 75, 60
1, 42998, Note_off_c, 0, 75, 50
1, 43108, Note_on_c, 0, 76, 62
1, 43383, Note_off_c, 0, 76, 45
1, 43400, Note_off_c, 0, 51, 48
1, 43401, Note_on_c, 0, 79, 68
1, 43425, Note_on_c, 0, 75, 46
1, 43428, Note_on_c, 0, 63, 41
1, 43428, Note_off_c, 0, 82, 57
1, 43495, Note_off_c, 0, 75, 0
1, 43532, Poly_aftertouch_c, 0, 75, 127
1, 43738, Poly_aftertouch_c, 0, 75, 0
1, 43762, Note_on_c, 0, 80, 65
1, 43770, Note_on_c, 0, 73, 49
1, 43781, Note_on_c, 0, 64, 35
1, 43781, Note_off_c, 0, 63, 38
1, 43836, Note_off_c, 0, 79, 36
1, 44092, Note_on_c, 0, 71, 58
1, 44097, Note_on_c, 0, 63, 45
1, 44118, Note_off_c, 0, 64, 39
1, 44144, Note_off_c, 0, 73, 48
1, 44265, Note_off_c, 0, 63, 50
1, 44435, Note_on_c, 0, 82, 60
1, 44435, Note_on_c, 0, 73, 51
1, 44458, Note_on_c, 0, 61, 42
1, 44477, Note_off_c, 0, 71, 39
1, 44492, Note_off_c, 0, 80, 42
1, 44617, Note_off_c, 0, 61, 41
1, 44757, Note_off_c, 0, 73, 39
1, 44766, Note_on_c, 0, 80, 57
1, 44775, Note_on_c, 0, 71, 49
1, 44801, Note_on_c, 0, 63, 42
1, 44811, Note_off_c, 0, 82, 61
1, 45345, Control_c, 0, 64, 23
1, 45360, Control_c, 0, 64, 34
1, 45375, Control_c, 0, 64, 43
1, 45389, Control_c, 0, 64, 48
1, 45404, Control_c, 0, 64, 51
1, 45419, Control_c, 0, 64, 54
1, 45434, Control_c, 0, 64, 56
1, 45449, Control_c, 0, 64, 57
1, 45461, Note_off_c, 0, 80, 54
1, 45464, Control_c, 0, 64, 58
1, 45478, Control_c, 0, 64, 59
1, 45482, Note_off_c, 0, 71, 51
1, 45493, Control_c, 0, 64, 59
1, 45508, Control_c, 0, 64, 60
1, 45523, Control_c, 0, 64, 60
1, 45553, Control_c, 0, 64, 61
1, 45568, Control_c, 0, 64, 61
1, 45709, Note_on_c, 0, 51, 36
1, 45714, Note_on_c, 0, 80, 48
1, 45716, Note_on_c, 0, 70, 44
1, 45746, Control_c, 0, 64, 61
1, 45773, Note_off_c, 0, 70, 0
1, 45773, Note_on_c, 0, 70, 3
1, 45776, Control_c, 0, 64, 60
1, 45791, Control_c, 0, 64, 59
1, 45820, Control_c, 0, 64, 59
1, 45835, Control_c, 0, 64, 58
1, 45848, Note_off_c, 0, 63, 42
1, 45850, Control_c, 0, 64, 57
1, 45860, Note_off_c, 0, 80, 56
1, 45865, Control_c, 0, 64, 56
1, 45872, Note_on_c, 0, 79, 56
1, 45887, Control_c, 0, 64, 55
1, 45902, Control_c, 0, 64, 54
1, 45917, Control_c, 0, 64, 53
1, 45932, Control_c, 0, 64, 52
1, 45945, Note_off_c, 0, 79, 60
1, 45946, Control_c, 0, 64, 50
1, 45961, Control_c, 0, 64, 48
1, 45964, Note_on_c, 0, 80, 58
1, 45976, Control_c, 0, 64, 47
1, 45991, Control_c, 0, 64, 45
1, 46004, Note_off_c, 0, 80, 55
1, 46006, Control_c, 0, 64, 43
1, 46007, Note_on_c, 0, 79, 46
1, 46021, Control_c, 0, 64, 38
1, 46036, Control_c, 0, 64, 48
1, 46051, Control_c, 0, 64, 41
1, 46065, Control_c, 0, 64, 32
1, 46077, Note_off_c, 0, 79, 0
1, 46078, Note_on_c, 0, 80, 53
1, 46080, Control_c, 0, 64, 25
1, 46090, Note_on_c, 0, 79, 44
1, 46095, Control_c, 0, 64, 18
1, 46109, Note_off_c, 0, 80, 62
1, 46125, Control_c, 0, 64, 0
1, 46184, Control_c, 0, 67, 17
1, 46199, Control_c, 0, 67, 18
1, 46206, Note_off_c, 0, 70, 34
1, 46213, Control_c, 0, 67, 20
1, 46228, Control_c, 0, 67, 22
1, 46243, Control_c, 0, 67, 24
1, 46257, Control_c, 0, 67, 27
1, 46272, Control_c, 0, 67, 29
1, 46287, Control_c, 0, 67, 31
1, 46302, Control_c, 0, 67, 33
1, 46317, Control_c, 0, 67, 35
1, 46331, Control_c, 0, 67, 37
1, 46346, Control_c, 0, 67, 39
1, 46361, Control_c, 0, 67, 40
1, 46376, Control_c, 0, 67, 41
1, 46405, Note_on_c, 0, 80, 59
1, 46406, Note_on_c, 0, 68, 46
1, 46444, Note_off_c, 0, 79, 37
1, 46495, Control_c, 0, 67, 40
1, 46510, Control_c, 0, 67, 39
1, 46513, Note_off_c, 0, 68, 0
1, 46525, Control_c, 0, 67, 39
1, 46540, Control_c, 0, 67, 38
1, 46549, Poly_aftertouch_c, 0, 68, 127
1, 46569, Control_c, 0, 67, 37
1, 46577, Note_off_c, 0, 51, 35
1, 46584, Control_c, 0, 67, 37
1, 46599, Control_c, 0, 67, 35
1, 46602, Note_off_c, 0, 80, 50
1, 46614, Control_c, 0, 67, 34
1, 46636, Control_c, 0, 67, 33
1, 46639, Poly_aftertouch_c, 0, 68, 0
1, 46651, Control_c, 0, 67, 38
1, 46666, Control_c, 0, 67, 37
1, 46680, Control_c, 0, 67, 36
1, 46695, Control_c, 0, 67, 34
1, 46710, Control_c, 0, 67, 33
1, 46725, Control_c, 0, 67, 32
1, 46736, Note_on_c, 0, 80, 52
1, 46740, Control_c, 0, 67, 31
1, 46754, Control_c, 0, 67, 29
1, 46760, Note_on_c, 0, 44, 43
1, 46765, Note_on_c, 0, 68, 33
1, 46769, Control_c, 0, 67, 27
1, 46784, Control_c, 0, 67, 25
1, 46799, Control_c, 0, 67, 22
1, 46814, Control_c, 0, 67, 20
1, 46826, Note_off_c, 0, 68, 0
1, 46829, Control_c, 0, 67, 18
1, 46844, Control_c, 0, 67, 17
1, 46859, Control_c, 0, 67, 16
1, 46863, Poly_aftertouch_c, 0, 68, 127
1, 46874, Control_c, 0, 67, 16
1, 47067, Note_on_c, 0, 47, 53
1, 47115, Note_off_c, 0, 44, 55
1, 47235, Note_off_c, 0, 47, 36
1, 47386, Note_on_c, 0, 51, 51
1, 47541, Note_off_c, 0, 51, 52
1, 47720, Note_on_c, 0, 56, 44
1, 47760, Note_off_c, 0, 80, 50
1, 48302, Note_on_c, 0, 75, 59
1, 48552, Note_off_c, 0, 75, 36
1, 48661, Note_on_c, 0, 75, 68
1, 48992, Note_on_c, 0, 76, 72
1, 49035, Note_off_c, 0, 75, 56
1, 49163, Note_off_c, 0, 76, 36
1, 49309, Note_on_c, 0, 73, 70
1, 49496, Note_off_c, 0, 73, 52
1, 49538, Poly_aftertouch_c, 0, 68, 0
1, 49637, Note_on_c, 0, 71, 62
1, 49719, Control_c, 0, 67, 17
1, 49734, Control_c, 0, 67, 17
1, 49749, Control_c, 0, 67, 18
1, 49764, Control_c, 0, 67, 19
1, 49778, Control_c, 0, 67, 20
1, 49793, Control_c, 0, 67, 22
1, 49808, Control_c, 0, 67, 23
1, 49822, Control_c, 0, 67, 24
1, 49837, Control_c, 0, 67, 27
1, 49852, Control_c, 0, 67, 31
1, 49867, Control_c, 0, 67, 34
1, 49882, Control_c, 0, 67, 37
1, 49896, Control_c, 0, 67, 39
1, 49911, Control_c, 0, 67, 42
1, 49926, Control_c, 0, 67, 44
1, 49941, Control_c, 0, 67, 46
1, 49956, Control_c, 0, 67, 48
1, 49970, Note_on_c, 0, 70, 53
1, 50000, Control_c, 0, 67, 47
1, 50008, Note_off_c, 0, 71, 36
1, 50015, Control_c, 0, 67, 47
1, 50030, Control_c, 0, 67, 46
1, 50045, Control_c, 0, 67, 45
1, 50060, Control_c, 0, 67, 44
1, 50070, Note_off_c, 0, 56, 35
1, 50075, Control_c, 0, 67, 43
1, 50090, Control_c, 0, 67, 42
1, 50090, Note_on_c, 0, 49, 50
1, 50104, Control_c, 0, 67, 40
1, 50119, Control_c, 0, 67, 39
1, 50134, Control_c, 0, 67, 38
1, 50149, Control_c, 0, 67, 37
1, 50164, Control_c, 0, 67, 35
1, 50175, Note_off_c, 0, 49, 50
1, 50178, Control_c, 0, 67, 34
1, 50193, Control_c, 0, 67, 32
1, 50208, Control_c, 0, 67, 29
1, 50222, Control_c, 0, 67, 27
1, 50232, Note_on_c, 0, 51, 53
1, 50237, Control_c, 0, 67, 25
1, 50252, Control_c, 0, 67, 23
1, 50267, Control_c, 0, 67, 22
1, 50282, Control_c, 0, 67, 20
1, 50290, Note_off_c, 0, 51, 52
1, 50296, Control_c, 0, 67, 19
1, 50311, Control_c, 0, 67, 18
1, 50326, Control_c, 0, 67, 17
1, 50341, Control_c, 0, 67, 16
1, 50356, Control_c, 0, 67, 16
1, 50377, Note_on_c, 0, 52, 54
1, 50466, Note_off_c, 0, 52, 52
1, 50561, Note_on_c, 0, 54, 49
1, 50719, Control_c, 0, 67, 0
1, 50984, Note_on_c, 0, 73, 63
1, 51074, Note_off_c, 0, 54, 35
1, 51088, Note_off_c, 0, 70, 35
1, 51095, Note_off_c, 0, 73, 54
1, 51157, Note_on_c, 0, 71, 67
1, 51182, Note_on_c, 0, 42, 42
1, 51273, Note_off_c, 0, 71, 36
1, 51299, Note_on_c, 0, 70, 72
1, 51320, Note_off_c, 0, 42, 53
1, 51422, Note_off_c, 0, 70, 36
1, 51476, Note_on_c, 0, 54, 47
1, 51479, Note_on_c, 0, 75, 66
1, 51527, Note_off_c, 0, 54, 61
1, 51544, Note_on_c, 0, 52, 54
1, 51634, Note_off_c, 0, 52, 56
1, 51643, Note_on_c, 0, 54, 45
1, 51812, Note_on_c, 0, 78, 61
1, 51840, Note_off_c, 0, 75, 39
1, 51909, Note_off_c, 0, 78, 37
1, 51960, Note_on_c, 0, 76, 72
1, 52025, Note_off_c, 0, 76, 60
1, 52124, Note_on_c, 0, 78, 63
1, 52301, Note_off_c, 0, 78, 46
1, 52307, Note_on_c, 0, 73, 59
1, 52359, Note_on_c, 0, 72, 58
1, 52365, Note_off_c, 0, 73, 49
1, 52397, Note_on_c, 0, 73, 51
1, 52403, Note_off_c, 0, 72, 63
1, 52452, Note_on_c, 0, 72, 55
1, 52463, Note_off_c, 0, 73, 62
1, 52746, Note_on_c, 0, 70, 56
1, 52781, Note_off_c, 0, 72, 36
1, 52881, Note_off_c, 0, 70, 45
1, 53066, Note_on_c, 0, 68, 47
1, 53189, Note_off_c, 0, 68, 50
1, 53355, Note_on_c, 0, 73, 58
1, 53373, Note_on_c, 0, 52, 31
1, 53374, Control_c, 0, 64, 19
1, 53389, Control_c, 0, 64, 29
1, 53395, Note_off_c, 0, 54, 35
1, 53404, Control_c, 0, 64, 34
1, 53419, Control_c, 0, 64, 37
1, 53434, Control_c, 0, 64, 42
1, 53448, Control_c, 0, 64, 46
1, 53463, Control_c, 0, 64, 50
1, 53465, Note_off_c, 0, 52, 51
1, 53478, Control_c, 0, 64, 52
1, 53490, Note_on_c, 0, 54, 37
1, 53493, Control_c, 0, 64, 55
1, 53508, Control_c, 0, 64, 56
1, 53522, Control_c, 0, 64, 57
1, 53537, Control_c, 0, 64, 58
1, 53544, Note_off_c, 0, 54, 58
1, 53552, Control_c, 0, 64, 58
1, 53566, Control_c, 0, 64, 59
1, 53573, Note_on_c, 0, 52, 32
1, 53596, Control_c, 0, 64, 59
1, 53611, Control_c, 0, 64, 60
1, 53624, Note_off_c, 0, 52, 56
1, 53626, Control_c, 0, 64, 60
1, 53642, Control_c, 0, 64, 61
1, 53652, Note_on_c, 0, 54, 41
1, 53657, Control_c, 0, 64, 61
1, 53686, Note_off_c, 0, 54, 55
1, 53701, Control_c, 0, 64, 62
1, 53708, Note_on_c, 0, 52, 40
1, 53759, Note_off_c, 0, 52, 53
1, 53765, Note_on_c, 0, 54, 48
1, 53775, Control_c, 0, 64, 61
1, 53789, Control_c, 0, 64, 60
1, 53804, Control_c, 0, 64, 59
1, 53807, Note_off_c, 0, 54, 49
1, 53818, Note_on_c, 0, 52, 36
1, 53819, Control_c, 0, 64, 57
1, 53834, Note_on_c, 0, 80, 69
1, 53834, Control_c, 0, 64, 55
1, 53849, Control_c, 0, 64, 53
1, 53864, Control_c, 0, 64, 50
1, 53879, Control_c, 0, 64, 48
1, 53894, Control_c, 0, 64, 45
1, 53908, Control_c, 0, 64, 42
1, 53923, Control_c, 0, 64, 47
1, 53937, Note_off_c, 0, 52, 53
1, 53938, Control_c, 0, 64, 45
1, 53953, Control_c, 0, 64, 44
1, 53966, Note_on_c, 0, 51, 39
1, 53968, Control_c, 0, 64, 43
1, 53982, Control_c, 0, 64, 41
1, 53997, Control_c, 0, 64, 37
1, 54012, Control_c, 0, 64, 32
1, 54023, Note_off_c, 0, 80, 52
1, 54027, Control_c, 0, 64, 28
1, 54042, Control_c, 0, 64, 27
1, 54057, Control_c, 0, 64, 26
1, 54071, Control_c, 0, 64, 25
1, 54075, Note_on_c, 0, 52, 47
1, 54084, Note_off_c, 0, 51, 35
1, 54086, Control_c, 0, 64, 23
1, 54101, Control_c, 0, 64, 18
1, 54138, Control_c, 0, 64, 0
1, 54144, Note_on_c, 0, 80, 78
1, 54168, Note_on_c, 0, 54, 50
1, 54171, Note_off_c, 0, 52, 52
1, 54236, Note_off_c, 0, 54, 54
1, 54242, Note_on_c, 0, 56, 47
1, 54301, Note_off_c, 0, 56, 56
1, 54312, Note_on_c, 0, 54, 46
1, 54379, Note_off_c, 0, 54, 57
1, 54382, Note_on_c, 0, 56, 47
1, 54429, Note_on_c, 0, 81, 84
1, 54435, Note_off_c, 0, 56, 58
1, 54442, Note_on_c, 0, 54, 44
1, 54484, Note_off_c, 0, 80, 39
1, 54515, Note_off_c, 0, 54, 59
1, 54517, Note_on_c, 0, 56, 50
1, 54572, Note_off_c, 0, 56, 58
1, 54582, Note_on_c, 0, 54, 45
1, 54650, Note_off_c, 0, 81, 25
1, 54657, Note_off_c, 0, 54, 61
1, 54669, Note_on_c, 0, 56, 52
1, 54712, Note_off_c, 0, 56, 62
1, 54721, Note_on_c, 0, 78, 84
1, 54722, Note_on_c, 0, 54, 55
1, 54838, Note_off_c, 0, 54, 58
1, 54843, Note_off_c, 0, 78, 60
1, 54864, Note_on_c, 0, 52, 49
1, 54886, Control_c, 0, 67, 16
1, 54931, Control_c, 0, 67, 17
1, 54934, Note_off_c, 0, 52, 52
1, 54945, Control_c, 0, 67, 19
1, 54956, Note_on_c, 0, 54, 51
1, 54960, Control_c, 0, 67, 22
1, 54975, Control_c, 0, 67, 27
1, 54990, Control_c, 0, 67, 30
1, 55005, Control_c, 0, 67, 32
1, 55019, Control_c, 0, 67, 34
1, 55027, Note_off_c, 0, 54, 49
1, 55034, Control_c, 0, 67, 37
1, 55038, Note_on_c, 0, 76, 79
1, 55044, Note_on_c, 0, 56, 49
1, 55049, Control_c, 0, 67, 42
1, 55064, Control_c, 0, 67, 49
1, 55079, Control_c, 0, 67, 55
1, 55093, Control_c, 0, 67, 59
1, 55108, Control_c, 0, 67, 61
1, 55137, Control_c, 0, 67, 60
1, 55152, Control_c, 0, 67, 57
1, 55167, Control_c, 0, 67, 55
1, 55182, Control_c, 0, 67, 53
1, 55197, Control_c, 0, 67, 53
1, 55211, Control_c, 0, 67, 52
1, 55226, Control_c, 0, 67, 51
1, 55257, Control_c, 0, 67, 51
1, 55272, Control_c, 0, 67, 50
1, 55302, Control_c, 0, 67, 50
1, 55331, Control_c, 0, 67, 49
1, 55370, Note_on_c, 0, 75, 68
1, 55370, Note_off_c, 0, 76, 58
1, 55479, Control_c, 0, 67, 50
1, 55509, Control_c, 0, 67, 50
1, 55598, Control_c, 0, 67, 50
1, 55620, Control_c, 0, 67, 49
1, 55635, Control_c, 0, 67, 48
1, 55650, Control_c, 0, 67, 48
1, 55665, Control_c, 0, 67, 47
1, 55680, Control_c, 0, 67, 45
1, 55695, Control_c, 0, 67, 43
1, 55710, Control_c, 0, 67, 41
1, 55715, Note_on_c, 0, 57, 44
1, 55724, Control_c, 0, 67, 40
1, 55739, Control_c, 0, 67, 38
1, 55751, Note_off_c, 0, 56, 34
1, 55754, Control_c, 0, 67, 36
1, 55769, Control_c, 0, 67, 34
1, 55783, Control_c, 0, 67, 32
1, 55798, Control_c, 0, 67, 31
1, 55813, Control_c, 0, 67, 30
1, 55828, Control_c, 0, 67, 29
1, 55843, Control_c, 0, 67, 28
1, 55858, Control_c, 0, 67, 26
1, 55873, Control_c, 0, 67, 38
1, 55887, Control_c, 0, 67, 37
1, 55902, Control_c, 0, 67, 36
1, 55917, Control_c, 0, 67, 35
1, 55930, Note_off_c, 0, 57, 53
1, 55932, Control_c, 0, 67, 35
1, 55947, Control_c, 0, 67, 34
1, 55961, Control_c, 0, 67, 33
1, 55976, Control_c, 0, 67, 32
1, 55991, Control_c, 0, 67, 32
1, 56006, Control_c, 0, 67, 31
1, 56037, Control_c, 0, 67, 31
1, 56066, Note_off_c, 0, 73, 36
1, 56068, Note_on_c, 0, 71, 53
1, 56081, Control_c, 0, 67, 30
1, 56090, Note_on_c, 0, 56, 39
1, 56111, Control_c, 0, 67, 30
1, 56126, Control_c, 0, 67, 29
1, 56140, Control_c, 0, 67, 29
1, 56155, Control_c, 0, 67, 28
1, 56170, Control_c, 0, 67, 27
1, 56184, Control_c, 0, 67, 27
1, 56199, Control_c, 0, 67, 26
1, 56214, Control_c, 0, 67, 26
1, 56229, Control_c, 0, 67, 25
1, 56258, Control_c, 0, 67, 25
1, 56288, Control_c, 0, 67, 24
1, 56318, Control_c, 0, 67, 24
1, 56399, Control_c, 0, 67, 23
1, 56547, Note_on_c, 0, 78, 61
1, 56555, Note_off_c, 0, 75, 36
1, 56653, Note_off_c, 0, 78, 55
1, 56663, Note_off_c, 0, 56, 38
1, 56709, Note_on_c, 0, 76, 70
1, 56746, Note_on_c, 0, 54, 43
1, 56801, Note_off_c, 0, 76, 59
1, 56848, Note_on_c, 0, 75, 70
1, 56879, Note_off_c, 0, 54, 54
1, 56943, Note_off_c, 0, 75, 51
1, 56993, Control_c, 0, 67, 24
1, 57020, Note_on_c, 0, 80, 65
1, 57042, Note_on_c, 0, 53, 39
1, 57096, Control_c, 0, 67, 24
1, 57178, Control_c, 0, 67, 25
1, 57337, Note_on_c, 0, 83, 68
1, 57355, Control_c, 0, 67, 25
1, 57360, Note_on_c, 0, 54, 38
1, 57385, Note_off_c, 0, 80, 34
1, 57400, Note_off_c, 0, 53, 41
1, 57429, Control_c, 0, 67, 26
1, 57459, Control_c, 0, 67, 26
1, 57470, Note_off_c, 0, 83, 34
1, 57471, Note_off_c, 0, 54, 35
1, 57486, Note_on_c, 0, 81, 66
1, 57489, Control_c, 0, 67, 27
1, 57518, Control_c, 0, 67, 27
1, 57563, Note_off_c, 0, 81, 56
1, 57649, Note_on_c, 0, 83, 62
1, 57676, Note_on_c, 0, 56, 31
1, 57834, Note_on_c, 0, 78, 54
1, 57840, Note_off_c, 0, 83, 41
1, 57843, Note_off_c, 0, 56, 38
1, 57898, Note_on_c, 0, 77, 49
1, 57900, Note_off_c, 0, 78, 0
1, 57924, Note_on_c, 0, 78, 18
1, 57924, Note_off_c, 0, 77, 56
1, 57984, Note_on_c, 0, 77, 67
1, 58001, Note_off_c, 0, 78, 57
1, 58006, Note_on_c, 0, 49, 42
1, 58015, Control_c, 0, 67, 27
1, 58044, Control_c, 0, 67, 26
1, 58059, Control_c, 0, 67, 26
1, 58074, Control_c, 0, 67, 25
1, 58103, Control_c, 0, 67, 25
1, 58133, Control_c, 0, 67, 24
1, 58177, Control_c, 0, 67, 24
1, 58222, Control_c, 0, 67, 23
1, 58252, Control_c, 0, 67, 23
1, 58281, Control_c, 0, 67, 22
1, 58296, Control_c, 0, 67, 20
1, 58307, Note_on_c, 0, 75, 75
1, 58311, Control_c, 0, 67, 16
1, 58341, Control_c, 0, 67, 0
1, 58347, Note_off_c, 0, 77, 52
1, 58458, Note_off_c, 0, 75, 59
1, 58628, Note_on_c, 0, 73, 73
1, 58805, Note_off_c, 0, 71, 51
1, 58806, Note_off_c, 0, 73, 61
1, 58949, Note_on_c, 0, 78, 69
1, 58964, Note_on_c, 0, 69, 51
1, 59288, Note_on_c, 0, 71, 57
1, 59328, Note_off_c, 0, 49, 58
1, 59438, Note_off_c, 0, 69, 38
1, 59462, Note_off_c, 0, 71, 36
1, 59600, Note_on_c, 0, 61, 58
1, 59604, Note_on_c, 0, 69, 50
1, 59831, Note_off_c, 0, 61, 57
1, 59848, Note_off_c, 0, 69, 38
1, 59948, Note_on_c, 0, 61, 66
1, 59948, Note_on_c, 0, 69, 60
1, 60269, Note_on_c, 0, 62, 66
1, 60269, Note_on_c, 0, 68, 57
1, 60349, Note_off_c, 0, 61, 56
1, 60360, Note_off_c, 0, 69, 36
1, 60461, Note_off_c, 0, 62, 57
1, 60556, Note_off_c, 0, 68, 53
1, 60586, Note_on_c, 0, 59, 57
1, 60592, Note_on_c, 0, 69, 53
1, 60763, Note_off_c, 0, 59, 55
1, 60904, Note_on_c, 0, 71, 44
1, 60910, Note_off_c, 0, 69, 41
1, 60922, Note_on_c, 0, 57, 46
1, 61049, Note_off_c, 0, 78, 36
1, 61234, Note_on_c, 0, 76, 51
1, 61245, Note_on_c, 0, 56, 43
1, 61321, Note_off_c, 0, 57, 36
1, 61423, Note_off_c, 0, 76, 32
1, 61572, Note_on_c, 0, 75, 56
1, 61759, Note_off_c, 0, 75, 42
1, 61903, Note_on_c, 0, 76, 56
1, 62321, Note_on_c, 0, 59, 43
1, 62392, Note_off_c, 0, 56, 54
1, 62457, Note_off_c, 0, 59, 49
1, 62480, Note_on_c, 0, 57, 58
1, 62493, Note_on_c, 0, 73, 64
1, 62548, Note_off_c, 0, 57, 56
1, 62595, Note_off_c, 0, 71, 43
1, 62619, Note_on_c, 0, 56, 67
1, 62711, Note_off_c, 0, 56, 53
1, 62789, Note_on_c, 0, 61, 61
1, 62789, Note_on_c, 0, 71, 66
1, 62798, Note_off_c, 0, 73, 55
1, 63075, Note_on_c, 0, 70, 69
1, 63086, Note_on_c, 0, 64, 65
1, 63102, Note_off_c, 0, 61, 58
1, 63162, Note_off_c, 0, 71, 37
1, 63223, Note_off_c, 0, 64, 34
1, 63227, Note_on_c, 0, 63, 75
1, 63296, Note_off_c, 0, 63, 60
1, 63373, Note_off_c, 0, 70, 54
1, 63386, Note_on_c, 0, 68, 62
1, 63391, Note_on_c, 0, 64, 67
1, 63642, Note_off_c, 0, 68, 57
1, 63644, Note_on_c, 0, 58, 55
1, 63645, Note_on_c, 0, 73, 60
1, 63647, Note_off_c, 0, 64, 51
1, 63704, Note_on_c, 0, 71, 48
1, 63707, Note_off_c, 0, 58, 58
1, 63714, Note_on_c, 0, 59, 63
1, 63742, Note_off_c, 0, 76, 0
1, 63742, Note_on_c, 0, 76, 7
1, 63754, Note_off_c, 0, 73, 0
1, 63766, Note_on_c, 0, 73, 48
1, 63769, Note_off_c, 0, 71, 61
1, 63798, Note_off_c, 0, 59, 59
1, 63804, Note_on_c, 0, 58, 53
1, 64060, Note_on_c, 0, 56, 51
1, 64095, Note_off_c, 0, 58, 34
1, 64219, Note_off_c, 0, 56, 49
1, 64368, Note_on_c, 0, 54, 47
1, 64382, Note_on_c, 0, 70, 54
1, 64443, Note_off_c, 0, 73, 36
1, 64591, Note_off_c, 0, 54, 35
1, 64714, Note_on_c, 0, 66, 50
1, 64717, Note_on_c, 0, 59, 38
1, 64727, Note_off_c, 0, 70, 31
1, 64760, Note_off_c, 0, 76, 53
1, 65052, Note_on_c, 0, 75, 70
1, 65156, Note_off_c, 0, 59, 45
1, 65382, Note_on_c, 0, 73, 76
1, 65391, Note_on_c, 0, 47, 54
1, 65433, Note_off_c, 0, 75, 60
1, 65560, Note_off_c, 0, 47, 37
1, 65698, Note_on_c, 0, 75, 75
1, 65711, Note_on_c, 0, 59, 51
1, 65746, Note_off_c, 0, 73, 60
1, 65749, Note_off_c, 0, 59, 49
1, 65760, Note_on_c, 0, 58, 58
1, 65840, Note_on_c, 0, 59, 62
1, 65841, Note_off_c, 0, 58, 54
1, 66011, Note_on_c, 0, 73, 76
1, 66066, Note_off_c, 0, 75, 60
1, 66317, Note_on_c, 0, 71, 74
1, 66330, Note_on_c, 0, 68, 52
1, 66373, Note_off_c, 0, 73, 52
1, 66478, Note_off_c, 0, 66, 38
1, 66648, Note_on_c, 0, 73, 69
1, 66663, Note_on_c, 0, 64, 46
1, 66694, Note_off_c, 0, 71, 49
1, 66723, Note_off_c, 0, 68, 50
1, 66956, Note_on_c, 0, 63, 64
1, 66962, Note_on_c, 0, 61, 46
1, 66991, Note_off_c, 0, 59, 44
1, 66992, Note_off_c, 0, 64, 52
1, 67044, Note_off_c, 0, 61, 53
1, 67099, Note_on_c, 0, 59, 59
1, 67183, Note_off_c, 0, 59, 42
1, 67260, Note_on_c, 0, 61, 75
1, 67269, Note_on_c, 0, 57, 50
1, 67281, Note_off_c, 0, 63, 60
1, 67320, Note_off_c, 0, 57, 54
1, 67414, Note_on_c, 0, 56, 52
1, 67470, Note_off_c, 0, 56, 53
1, 67566, Note_off_c, 0, 61, 50
1, 67588, Note_on_c, 0, 66, 72
1, 67600, Note_on_c, 0, 57, 53
1, 67925, Note_on_c, 0, 68, 75
1, 67943, Note_off_c, 0, 73, 60
1, 67959, Note_off_c, 0, 66, 58
1, 68044, Note_off_c, 0, 57, 46
1, 68240, Note_off_c, 0, 68, 57
1, 68252, Note_on_c, 0, 78, 66
1, 68253, Note_on_c, 0, 69, 59
1, 68266, Note_on_c, 0, 45, 40
1, 68414, Note_off_c, 0, 45, 46
1, 68420, Note_off_c, 0, 78, 60
1, 68562, Note_off_c, 0, 69, 35
1, 68580, Note_on_c, 0, 68, 54
1, 68581, Note_on_c, 0, 57, 42
1, 68586, Note_on_c, 0, 76, 59
1, 68642, Note_off_c, 0, 57, 58
1, 68655, Note_on_c, 0, 56, 56
1, 68689, Control_c, 0, 67, 16
1, 68704, Control_c, 0, 67, 16
1, 68723, Note_on_c, 0, 57, 49
1, 68724, Note_off_c, 0, 56, 57
1, 68793, Control_c, 0, 67, 16
1, 68861, Note_off_c, 0, 68, 57
1, 68886, Note_on_c, 0, 75, 61
1, 68897, Note_on_c, 0, 66, 42
1, 68913, Note_off_c, 0, 76, 43
1, 69113, Control_c, 0, 67, 0
1, 69145, Note_off_c, 0, 66, 40
1, 69213, Note_on_c, 0, 73, 56
1, 69220, Note_on_c, 0, 64, 49
1, 69271, Note_off_c, 0, 75, 35
1, 69320, Control_c, 0, 67, 16
1, 69335, Control_c, 0, 67, 17
1, 69350, Control_c, 0, 67, 17
1, 69367, Note_off_c, 0, 73, 61
1, 69499, Control_c, 0, 67, 18
1, 69513, Control_c, 0, 67, 18
1, 69528, Control_c, 0, 67, 19
1, 69537, Note_on_c, 0, 71, 61
1, 69543, Control_c, 0, 67, 22
1, 69558, Control_c, 0, 67, 25
1, 69564, Note_on_c, 0, 63, 35
1, 69572, Control_c, 0, 67, 28
1, 69587, Control_c, 0, 67, 28
1, 69627, Note_off_c, 0, 64, 40
1, 69677, Control_c, 0, 67, 28
1, 69692, Control_c, 0, 67, 27
1, 69707, Control_c, 0, 67, 27
1, 69766, Control_c, 0, 67, 26
1, 69781, Control_c, 0, 67, 26
1, 69862, Control_c, 0, 67, 26
1, 69869, Note_on_c, 0, 61, 51
1, 69878, Note_on_c, 0, 59, 51
1, 69894, Note_off_c, 0, 63, 54
1, 69895, Note_off_c, 0, 57, 35
1, 69907, Control_c, 0, 67, 27
1, 69922, Control_c, 0, 67, 27
1, 69937, Control_c, 0, 67, 28
1, 69943, Note_off_c, 0, 59, 50
1, 69966, Control_c, 0, 67, 28
1, 69981, Control_c, 0, 67, 29
1, 69995, Control_c, 0, 67, 30
1, 70010, Control_c, 0, 67, 31
1, 70011, Note_on_c, 0, 57, 50
1, 70025, Control_c, 0, 67, 33
1, 70040, Control_c, 0, 67, 34
1, 70055, Control_c, 0, 67, 36
1, 70069, Control_c, 0, 67, 37
1, 70084, Control_c, 0, 67, 37
1, 70085, Note_off_c, 0, 57, 52
1, 70099, Control_c, 0, 67, 38
1, 70114, Control_c, 0, 67, 39
1, 70129, Control_c, 0, 67, 40
1, 70143, Control_c, 0, 67, 41
1, 70173, Control_c, 0, 67, 42
1, 70177, Note_on_c, 0, 59, 55
1, 70184, Note_on_c, 0, 56, 44
1, 70187, Control_c, 0, 67, 42
1, 70216, Note_off_c, 0, 61, 57
1, 70217, Control_c, 0, 67, 43
1, 70249, Note_off_c, 0, 56, 54
1, 70321, Note_on_c, 0, 54, 53
1, 70421, Note_off_c, 0, 54, 36
1, 70426, Control_c, 0, 67, 42
1, 70457, Note_off_c, 0, 59, 44
1, 70470, Control_c, 0, 67, 42
1, 70485, Control_c, 0, 67, 41
1, 70489, Note_on_c, 0, 64, 47
1, 70493, Note_on_c, 0, 56, 44
1, 70500, Control_c, 0, 67, 41
1, 70515, Control_c, 0, 67, 40
1, 70530, Control_c, 0, 67, 40
1, 70545, Control_c, 0, 67, 39
1, 70559, Control_c, 0, 67, 39
1, 70574, Control_c, 0, 67, 38
1, 70596, Control_c, 0, 67, 37
1, 70611, Control_c, 0, 67, 36
1, 70625, Control_c, 0, 67, 35
1, 70640, Control_c, 0, 67, 35
1, 70655, Control_c, 0, 67, 34
1, 70670, Control_c, 0, 67, 34
1, 70685, Control_c, 0, 67, 33
1, 70700, Control_c, 0, 67, 32
1, 70715, Control_c, 0, 67, 32
1, 70730, Control_c, 0, 67, 31
1, 70759, Control_c, 0, 67, 30
1, 70774, Control_c, 0, 67, 28
1, 70789, Control_c, 0, 64, 16
1, 70789, Control_c, 0, 67, 25
1, 70804, Control_c, 0, 64, 19
1, 70804, Control_c, 0, 67, 19
1, 70818, Control_c, 0, 64, 20
1, 70818, Control_c, 0, 67, 32
1, 70829, Note_on_c, 0, 69, 68
1, 70833, Control_c, 0, 64, 22
1, 70833, Control_c, 0, 67, 27
1, 70848, Control_c, 0, 64, 22
1, 70848, Control_c, 0, 67, 23
1, 70863, Control_c, 0, 64, 23
1, 70863, Control_c, 0, 67, 21
1, 70878, Control_c, 0, 67, 19
1, 70881, Note_off_c, 0, 71, 49
1, 70892, Control_c, 0, 67, 16
1, 70922, Control_c, 0, 67, 0
1, 70936, Control_c, 0, 64, 22
1, 70944, Note_off_c, 0, 56, 53
1, 70951, Control_c, 0, 64, 21
1, 70966, Control_c, 0, 64, 20
1, 70981, Control_c, 0, 64, 16
1, 71010, Control_c, 0, 64, 0
1, 71137, Note_on_c, 0, 68, 70
1, 71147, Note_on_c, 0, 61, 40
1, 71182, Note_off_c, 0, 69, 58
1, 71379, Note_off_c, 0, 61, 35
1, 71471, Note_on_c, 0, 73, 74
1, 71489, Note_on_c, 0, 59, 50
1, 71526, Note_off_c, 0, 68, 55
1, 71798, Note_on_c, 0, 75, 74
1, 71803, Note_on_c, 0, 57, 44
1, 71844, Note_off_c, 0, 73, 58
1, 71880, Note_off_c, 0, 59, 36
1, 71961, Note_off_c, 0, 57, 59
1, 72129, Note_on_c, 0, 76, 69
1, 72138, Note_off_c, 0, 75, 61
1, 72151, Note_on_c, 0, 56, 47
1, 72270, Note_off_c, 0, 56, 48
1, 72302, Control_c, 0, 64, 21
1, 72317, Control_c, 0, 64, 26
1, 72332, Control_c, 0, 64, 25
1, 72346, Control_c, 0, 64, 24
1, 72361, Control_c, 0, 64, 18
1, 72376, Control_c, 0, 64, 0
1, 72446, Note_on_c, 0, 69, 57
1, 72472, Note_on_c, 0, 54, 45
1, 72475, Note_off_c, 0, 76, 49
1, 72784, Note_on_c, 0, 71, 56
1, 72795, Note_on_c, 0, 56, 44
1, 72804, Note_off_c, 0, 69, 52
1, 72890, Note_off_c, 0, 54, 36
1, 72977, Note_off_c, 0, 56, 35
1, 73117, Note_on_c, 0, 73, 54
1, 73131, Note_off_c, 0, 71, 53
1, 73135, Note_on_c, 0, 57, 35
1, 73331, Note_off_c, 0, 57, 35
1, 73420, Note_on_c, 0, 59, 38
1, 73431, Note_on_c, 0, 69, 50
1, 73463, Note_off_c, 0, 73, 36
1, 73495, Note_on_c, 0, 57, 36
1, 73519, Note_off_c, 0, 59, 0
1, 73543, Note_on_c, 0, 59, 15
1, 73553, Note_off_c, 0, 57, 56
1, 73712, Note_off_c, 0, 69, 47
1, 73745, Note_on_c, 0, 68, 39
1, 73874, Note_off_c, 0, 64, 42
1, 73884, Note_on_c, 0, 66, 47
1, 73897, Note_off_c, 0, 68, 39
1, 74041, Note_on_c, 0, 64, 46
1, 74045, Note_off_c, 0, 66, 53
1, 74144, Note_off_c, 0, 59, 40
1, 74169, Note_off_c, 0, 64, 50
1, 74181, Note_on_c, 0, 66, 46
1, 74322, Note_off_c, 0, 66, 59
1, 74365, Note_on_c, 0, 68, 42
1, 74382, Note_on_c, 0, 63, 22
1, 74393, Note_on_c, 0, 47, 33
1, 74447, Note_off_c, 0, 68, 56
1, 74470, Note_on_c, 0, 66, 48
1, 74518, Note_off_c, 0, 66, 59
1, 74549, Note_on_c, 0, 68, 38
1, 74585, Note_off_c, 0, 68, 57
1, 74610, Note_on_c, 0, 66, 41
1, 74655, Note_off_c, 0, 66, 57
1, 74661, Note_on_c, 0, 68, 45
1, 74700, Note_off_c, 0, 68, 57
1, 74714, Note_on_c, 0, 66, 40
1, 74757, Note_off_c, 0, 66, 62
1, 74773, Note_on_c, 0, 68, 52
1, 74824, Note_off_c, 0, 68, 56
1, 74845, Note_on_c, 0, 66, 46
1, 74882, Note_off_c, 0, 66, 59
1, 74900, Note_on_c, 0, 68, 45
1, 74918, Note_off_c, 0, 63, 41
1, 74962, Note_off_c, 0, 68, 48
1, 74979, Note_on_c, 0, 66, 51
1, 75035, Note_off_c, 0, 66, 55
1, 75053, Note_on_c, 0, 64, 48
1, 75114, Note_on_c, 0, 66, 45
1, 75115, Note_off_c, 0, 64, 53
1, 75182, Note_on_c, 0, 64, 47
1, 75195, Note_off_c, 0, 66, 50
1, 75196, Note_on_c, 0, 52, 37
1, 75313, Note_off_c, 0, 47, 16
1, 75517, Note_on_c, 0, 68, 57
1, 75709, Note_off_c, 0, 68, 36
1, 75836, Note_on_c, 0, 71, 68
1, 75990, Note_off_c, 0, 71, 59
1, 76130, Note_on_c, 0, 76, 73
1, 76283, Note_on_c, 0, 75, 73
1, 76289, Note_off_c, 0, 64, 31
1, 76319, Note_off_c, 0, 76, 41
1, 76390, Note_off_c, 0, 75, 56
1, 76438, Note_on_c, 0, 76, 66
1, 76471, Note_on_c, 0, 56, 37
1, 76483, Note_off_c, 0, 52, 30
1, 76541, Note_off_c, 0, 56, 52
1, 76611, Note_on_c, 0, 54, 50
1, 76677, Note_off_c, 0, 76, 59
1, 76678, Note_off_c, 0, 54, 51
1, 76751, Note_on_c, 0, 76, 72
1, 76765, Note_on_c, 0, 52, 45
1, 76823, Note_off_c, 0, 52, 54
1, 76885, Note_on_c, 0, 51, 41
1, 76972, Note_off_c, 0, 76, 61
1, 77002, Note_off_c, 0, 51, 34
1, 77039, Note_on_c, 0, 76, 66
1, 77068, Note_on_c, 0, 49, 40
1, 77094, Note_off_c, 0, 76, 62
1, 77096, Note_on_c, 0, 75, 72
1, 77151, Note_on_c, 0, 76, 70
1, 77332, Note_off_c, 0, 75, 26
1, 77401, Note_off_c, 0, 49, 45
1, 77404, Note_on_c, 0, 59, 63
1, 77613, Note_off_c, 0, 76, 55
1, 77640, Note_off_c, 0, 59, 52
1, 77724, Note_on_c, 0, 76, 82
1, 77747, Note_on_c, 0, 58, 56
1, 77897, Note_off_c, 0, 58, 48
1, 77974, Note_off_c, 0, 76, 57
1, 78051, Note_on_c, 0, 76, 73
1, 78064, Note_on_c, 0, 59, 53
1, 78382, Note_on_c, 0, 78, 64
1, 78398, Note_on_c, 0, 63, 75
1, 78424, Note_off_c, 0, 76, 51
1, 78555, Note_on_c, 0, 76, 74
1, 78580, Note_off_c, 0, 63, 61
1, 78623, Note_off_c, 0, 78, 40
1, 78714, Note_on_c, 0, 66, 74
1, 78721, Note_on_c, 0, 75, 72
1, 78746, Note_off_c, 0, 76, 34
1, 78864, Note_on_c, 0, 73, 77
1, 78871, Note_off_c, 0, 75, 50
1, 78944, Note_off_c, 0, 66, 61
1, 78984, Note_off_c, 0, 73, 58
1, 79021, Note_on_c, 0, 75, 67
1, 79023, Note_on_c, 0, 71, 74
1, 79172, Note_on_c, 0, 70, 78
1, 79219, Note_off_c, 0, 71, 58
1, 79303, Note_off_c, 0, 70, 58
1, 79318, Note_on_c, 0, 71, 83
1, 79353, Note_off_c, 0, 59, 34
1, 79425, Control_c, 0, 67, 17
1, 79440, Control_c, 0, 67, 20
1, 79455, Control_c, 0, 67, 23
1, 79470, Control_c, 0, 67, 26
1, 79482, Note_on_c, 0, 57, 57
1, 79485, Control_c, 0, 67, 29
1, 79499, Control_c, 0, 67, 31
1, 79514, Control_c, 0, 67, 34
1, 79529, Control_c, 0, 67, 36
1, 79544, Control_c, 0, 67, 38
1, 79559, Control_c, 0, 67, 40
1, 79564, Note_off_c, 0, 71, 58
1, 79580, Control_c, 0, 67, 42
1, 79583, Note_off_c, 0, 57, 47
1, 79595, Control_c, 0, 67, 44
1, 79610, Control_c, 0, 67, 46
1, 79629, Note_on_c, 0, 77, 70
1, 79630, Note_on_c, 0, 71, 69
1, 79640, Control_c, 0, 67, 45
1, 79652, Note_on_c, 0, 56, 51
1, 79652, Note_off_c, 0, 75, 57
1, 79655, Control_c, 0, 67, 44
1, 79669, Control_c, 0, 67, 44
1, 79684, Control_c, 0, 67, 43
1, 79699, Control_c, 0, 67, 41
1, 79702, Note_off_c, 0, 56, 57
1, 79714, Control_c, 0, 67, 38
1, 79729, Control_c, 0, 67, 36
1, 79744, Control_c, 0, 67, 34
1, 79759, Control_c, 0, 67, 34
1, 79773, Control_c, 0, 67, 33
1, 79784, Note_on_c, 0, 54, 49
1, 79788, Control_c, 0, 67, 32
1, 79803, Control_c, 0, 67, 29
1, 79818, Control_c, 0, 67, 26
1, 79832, Control_c, 0, 67, 37
1, 79836, Note_off_c, 0, 54, 56
1, 79847, Control_c, 0, 67, 33
1, 79860, Note_off_c, 0, 71, 52
1, 79862, Control_c, 0, 67, 30
1, 79877, Control_c, 0, 67, 28
1, 79892, Control_c, 0, 67, 27
1, 79906, Control_c, 0, 67, 27
1, 79921, Control_c, 0, 67, 26
1, 79933, Note_on_c, 0, 78, 59
1, 79936, Control_c, 0, 67, 25
1, 79944, Note_on_c, 0, 71, 60
1, 79951, Control_c, 0, 67, 24
1, 79957, Note_on_c, 0, 56, 43
1, 79966, Control_c, 0, 67, 24
1, 79980, Control_c, 0, 67, 22
1, 79988, Note_off_c, 0, 77, 40
1, 79996, Control_c, 0, 67, 21
1, 80011, Control_c, 0, 67, 20
1, 80026, Control_c, 0, 67, 20
1, 80041, Control_c, 0, 67, 19
1, 80056, Control_c, 0, 67, 19
1, 80085, Control_c, 0, 67, 18
1, 80233, Control_c, 0, 67, 18
1, 80260, Note_on_c, 0, 77, 52
1, 80278, Control_c, 0, 67, 17
1, 80292, Control_c, 0, 67, 17
1, 80307, Control_c, 0, 67, 16
1, 80323, Note_off_c, 0, 78, 36
1, 80329, Control_c, 0, 67, 16
1, 80366, Note_off_c, 0, 56, 57
1, 80452, Note_off_c, 0, 77, 55
1, 80489, Note_off_c, 0, 71, 36
1, 80507, Control_c, 0, 67, 0
1, 80588, Note_on_c, 0, 71, 62
1, 80596, Note_on_c, 0, 78, 54
1, 80617, Note_on_c, 0, 61, 39
1, 80769, Note_off_c, 0, 61, 48
1, 80775, Note_off_c, 0, 78, 51
1, 80817, Note_off_c, 0, 71, 53
1, 80927, Note_on_c, 0, 78, 46
1, 80933, Note_on_c, 0, 71, 56
1, 80962, Note_on_c, 0, 54, 31
1, 81256, Note_on_c, 0, 73, 61
1, 81258, Note_on_c, 0, 57, 56
1, 81288, Note_off_c, 0, 71, 41
1, 81309, Note_off_c, 0, 54, 52
1, 81395, Note_off_c, 0, 73, 36
1, 81424, Note_on_c, 0, 71, 58
1, 81434, Note_off_c, 0, 57, 58
1, 81562, Note_on_c, 0, 61, 67
1, 81568, Note_off_c, 0, 71, 45
1, 81577, Note_on_c, 0, 69, 62
1, 81661, Note_off_c, 0, 69, 36
1, 81721, Note_on_c, 0, 68, 60
1, 81751, Note_off_c, 0, 61, 55
1, 81794, Note_off_c, 0, 68, 46
1, 81877, Note_off_c, 0, 78, 55
1, 81883, Note_on_c, 0, 69, 63
1, 81887, Note_on_c, 0, 66, 62
1, 82021, Note_on_c, 0, 65, 66
1, 82023, Note_off_c, 0, 66, 57
1, 82125, Note_off_c, 0, 65, 54
1, 82186, Note_on_c, 0, 66, 68
1, 82188, Note_on_c, 0, 81, 67
1, 82326, Note_on_c, 0, 80, 67
1, 82382, Note_off_c, 0, 66, 58
1, 82488, Note_on_c, 0, 66, 78
1, 82494, Note_on_c, 0, 78, 71
1, 82508, Note_off_c, 0, 81, 17
1, 82609, Note_off_c, 0, 80, 28
1, 82610, Note_off_c, 0, 78, 53
1, 82647, Note_on_c, 0, 76, 68
1, 82713, Note_off_c, 0, 66, 57
1, 82713, Note_off_c, 0, 76, 61
1, 82725, Note_off_c, 0, 69, 44
1, 82805, Note_on_c, 0, 75, 71
1, 82810, Note_on_c, 0, 66, 68
1, 82821, Note_on_c, 0, 69, 61
1, 82858, Note_on_c, 0, 65, 71
1, 82870, Note_off_c, 0, 66, 59
1, 82926, Note_on_c, 0, 66, 67
1, 82941, Note_off_c, 0, 65, 61
1, 83118, Note_on_c, 0, 78, 68
1, 83154, Note_off_c, 0, 75, 53
1, 83229, Note_off_c, 0, 69, 34
1, 83255, Note_on_c, 0, 76, 77
1, 83294, Note_off_c, 0, 66, 53
1, 83299, Note_off_c, 0, 78, 55
1, 83344, Note_off_c, 0, 76, 56
1, 83413, Note_on_c, 0, 78, 74
1, 83415, Note_on_c, 0, 66, 75
1, 83424, Note_on_c, 0, 69, 60
1, 83565, Note_off_c, 0, 69, 50
1, 83669, Note_off_c, 0, 66, 62
1, 83729, Note_on_c, 0, 73, 67
1, 83744, Note_on_c, 0, 66, 63
1, 83750, Poly_aftertouch_c, 0, 63, 127
1, 83762, Note_on_c, 0, 68, 43
1, 83791, Poly_aftertouch_c, 0, 63, 0
1, 83843, Note_off_c, 0, 78, 38
1, 83937, Note_off_c, 0, 68, 44
1, 84040, Note_off_c, 0, 66, 57
1, 84045, Note_on_c, 0, 72, 62
1, 84048, Note_on_c, 0, 68, 68
1, 84052, Note_off_c, 0, 73, 55
1, 84187, Note_off_c, 0, 68, 52
1, 84195, Note_on_c, 0, 66, 66
1, 84284, Note_off_c, 0, 66, 60
1, 84350, Note_on_c, 0, 64, 64
1, 84352, Note_on_c, 0, 75, 66
1, 84367, Note_off_c, 0, 72, 48
1, 84437, Note_off_c, 0, 64, 56
1, 84482, Note_on_c, 0, 63, 66
1, 84558, Note_off_c, 0, 63, 60
1, 84649, Note_on_c, 0, 64, 55
1, 84670, Note_on_c, 0, 80, 58
1, 84737, Note_off_c, 0, 75, 39
1, 84785, Note_on_c, 0, 63, 57
1, 84832, Note_off_c, 0, 64, 35
1, 84877, Note_off_c, 0, 63, 56
1, 84952, Note_on_c, 0, 64, 52
1, 85154, Note_off_c, 0, 64, 51
1, 85285, Note_on_c, 0, 68, 56
1, 85291, Note_on_c, 0, 64, 48
1, 85426, Note_off_c, 0, 68, 52
1, 85449, Note_off_c, 0, 64, 52
1, 85616, Note_on_c, 0, 64, 38
1, 85625, Note_on_c, 0, 73, 53
1, 85679, Note_off_c, 0, 64, 53
1, 85685, Note_on_c, 0, 63, 56
1, 85747, Note_off_c, 0, 63, 55
1, 85756, Note_on_c, 0, 64, 40
1, 85777, Note_off_c, 0, 80, 39
1, 86092, Note_on_c, 0, 80, 55
1, 86152, Note_off_c, 0, 64, 51
1, 86264, Note_on_c, 0, 82, 71
1, 86265, Note_off_c, 0, 80, 37
1, 86272, Note_on_c, 0, 64, 53
1, 86400, Note_on_c, 0, 83, 73
1, 86403, Note_off_c, 0, 82, 54
1, 86450, Note_off_c, 0, 64, 53
1, 86546, Note_on_c, 0, 82, 67
1, 86558, Note_off_c, 0, 83, 37
1, 86581, Note_on_c, 0, 64, 57
1, 86607, Note_off_c, 0, 82, 62
1, 86615, Note_on_c, 0, 83, 65
1, 86669, Note_on_c, 0, 82, 63
1, 86672, Note_off_c, 0, 83, 60
1, 86731, Note_off_c, 0, 82, 60
1, 86737, Note_on_c, 0, 83, 66
1, 86788, Note_on_c, 0, 82, 54
1, 86791, Note_off_c, 0, 83, 59
1, 86842, Note_on_c, 0, 83, 69
1, 86844, Note_off_c, 0, 82, 60
1, 86856, Note_on_c, 0, 66, 48
1, 86865, Note_off_c, 0, 64, 35
1, 86906, Note_on_c, 0, 82, 67
1, 86913, Note_off_c, 0, 83, 61
1, 86958, Note_on_c, 0, 83, 65
1, 86961, Note_off_c, 0, 82, 59
1, 86974, Note_off_c, 0, 66, 44
1, 86977, Note_on_c, 0, 64, 57
1, 87023, Note_on_c, 0, 82, 65
1, 87029, Note_off_c, 0, 83, 62
1, 87083, Note_on_c, 0, 83, 67
1, 87083, Note_off_c, 0, 82, 60
1, 87109, Note_off_c, 0, 64, 44
1, 87117, Note_on_c, 0, 62, 52
1, 87157, Note_off_c, 0, 83, 62
1, 87160, Note_on_c, 0, 82, 60
1, 87250, Note_on_c, 0, 61, 44
1, 87250, Note_off_c, 0, 62, 51
1, 87261, Note_off_c, 0, 82, 62
1, 87277, Note_on_c, 0, 80, 56
1, 87354, Note_off_c, 0, 80, 57
1, 87359, Note_on_c, 0, 82, 61
1, 87414, Note_off_c, 0, 82, 57
1, 87425, Note_on_c, 0, 62, 46
1, 87425, Note_off_c, 0, 61, 51
1, 87428, Note_on_c, 0, 83, 67
1, 87583, Note_on_c, 0, 61, 43
1, 87583, Note_off_c, 0, 62, 54
1, 87736, Note_on_c, 0, 62, 54
1, 87745, Note_off_c, 0, 61, 29
1, 87909, Note_on_c, 0, 81, 65
1, 87946, Note_off_c, 0, 83, 36
1, 87984, Note_off_c, 0, 62, 53
1, 88051, Note_off_c, 0, 81, 50
1, 88070, Note_on_c, 0, 80, 69
1, 88074, Note_on_c, 0, 66, 64
1, 88088, Note_on_c, 0, 62, 58
1, 88129, Note_off_c, 0, 73, 38
1, 88250, Note_on_c, 0, 78, 63
1, 88296, Note_off_c, 0, 80, 42
1, 88324, Note_off_c, 0, 62, 49
1, 88362, Note_off_c, 0, 78, 58
1, 88396, Note_on_c, 0, 78, 50
1, 88397, Note_on_c, 0, 71, 75
1, 88397, Note_off_c, 0, 66, 57
1, 88417, Note_on_c, 0, 62, 50
1, 88770, Note_on_c, 0, 80, 76
1, 88798, Note_off_c, 0, 78, 54
1, 88856, Note_off_c, 0, 62, 55
1, 89081, Note_on_c, 0, 77, 71
1, 89087, Note_on_c, 0, 68, 69
1, 89093, Note_on_c, 0, 62, 51
1, 89131, Note_off_c, 0, 71, 48
1, 89131, Note_off_c, 0, 80, 54
1, 89310, Note_off_c, 0, 62, 54
1, 89328, Note_off_c, 0, 77, 51
1, 89334, Note_off_c, 0, 68, 49
1, 89439, Note_on_c, 0, 77, 71
1, 89440, Note_on_c, 0, 61, 41
1, 89444, Note_on_c, 0, 69, 65
1, 89771, Note_on_c, 0, 78, 70
1, 89781, Note_off_c, 0, 77, 53
1, 89909, Note_off_c, 0, 69, 45
1, 89986, Note_off_c, 0, 61, 34
1, 90091, Note_on_c, 0, 80, 61
1, 90106, Note_on_c, 0, 59, 48
1, 90107, Note_on_c, 0, 71, 47
1, 90138, Note_off_c, 0, 78, 36
1, 90237, Note_off_c, 0, 71, 48
1, 90301, Note_off_c, 0, 80, 56
1, 90317, Note_off_c, 0, 59, 50
1, 90450, Note_on_c, 0, 78, 57
1, 90465, Note_on_c, 0, 68, 41
1, 90471, Note_on_c, 0, 61, 44
1, 91020, Note_off_c, 0, 68, 44
1, 91110, Note_on_c, 0, 71, 50
1, 91280, Note_off_c, 0, 78, 35
1, 91285, Note_off_c, 0, 61, 47
1, 91295, Note_on_c, 0, 73, 57
1, 91333, Note_off_c, 0, 71, 35
1, 91365, Note_on_c, 0, 74, 60
1, 91381, Note_off_c, 0, 73, 48
1, 91421, Note_off_c, 0, 74, 57
1, 91483, Note_on_c, 0, 77, 56
1, 91490, Note_on_c, 0, 74, 50
1, 91520, Note_on_c, 0, 49, 41
1, 91837, Note_on_c, 0, 73, 59
1, 91844, Note_off_c, 0, 74, 55
1, 92120, Note_off_c, 0, 73, 52
1, 92150, Note_on_c, 0, 78, 58
1, 92164, Note_on_c, 0, 71, 45
1, 92248, Note_off_c, 0, 77, 39
1, 92319, Note_off_c, 0, 49, 47
1, 92380, Note_off_c, 0, 78, 45
1, 92389, Note_off_c, 0, 71, 40
1, 92506, Note_on_c, 0, 78, 53
1, 92515, Note_on_c, 0, 69, 45
1, 92553, Note_on_c, 0, 42, 33
1, 92854, Note_on_c, 0, 45, 49
1, 92890, Note_off_c, 0, 42, 48
1, 93027, Note_off_c, 0, 45, 53
1, 93167, Note_on_c, 0, 49, 59
1, 93343, Note_off_c, 0, 49, 54
1, 93495, Note_on_c, 0, 54, 46
1, 93847, Note_off_c, 0, 78, 34
1, 94115, Note_on_c, 0, 61, 53
1, 94119, Note_on_c, 0, 78, 48
1, 94302, Note_on_c, 0, 80, 57
1, 94355, Note_off_c, 0, 78, 38
1, 94373, Note_on_c, 0, 81, 61
1, 94398, Note_off_c, 0, 80, 56
1, 94428, Note_off_c, 0, 69, 39
1, 94446, Note_on_c, 0, 66, 65
1, 94456, Note_on_c, 0, 76, 59
1, 94488, Note_off_c, 0, 61, 48
1, 94538, Note_off_c, 0, 81, 31
1, 94796, Note_on_c, 0, 74, 70
1, 94811, Note_off_c, 0, 76, 60
1, 95105, Note_on_c, 0, 73, 56
1, 95108, Note_on_c, 0, 69, 71
1, 95143, Note_off_c, 0, 74, 40
1, 95212, Note_off_c, 0, 66, 43
1, 95309, Note_off_c, 0, 73, 36
1, 95447, Note_on_c, 0, 68, 64
1, 95451, Note_on_c, 0, 73, 55
1, 95453, Control_c, 0, 67, 16
1, 95468, Control_c, 0, 67, 16
1, 95498, Control_c, 0, 67, 17
1, 95523, Note_off_c, 0, 69, 27
1, 95646, Control_c, 0, 67, 16
1, 95676, Control_c, 0, 67, 16
1, 95770, Note_on_c, 0, 71, 49
1, 95775, Note_on_c, 0, 52, 45
1, 95794, Control_c, 0, 67, 16
1, 95824, Control_c, 0, 67, 17
1, 95836, Note_off_c, 0, 54, 48
1, 95850, Note_off_c, 0, 73, 27
1, 95868, Control_c, 0, 67, 17
1, 95897, Control_c, 0, 67, 18
1, 95912, Note_on_c, 0, 74, 65
1, 95912, Control_c, 0, 67, 19
1, 95913, Note_off_c, 0, 71, 57
1, 95919, Note_off_c, 0, 52, 52
1, 95927, Control_c, 0, 67, 20
1, 96002, Control_c, 0, 67, 20
1, 96017, Control_c, 0, 67, 19
1, 96032, Control_c, 0, 67, 17
1, 96083, Note_on_c, 0, 73, 65
1, 96097, Note_on_c, 0, 50, 50
1, 96120, Note_off_c, 0, 74, 35
1, 96128, Control_c, 0, 67, 0
1, 96158, Control_c, 0, 67, 36
1, 96173, Control_c, 0, 67, 32
1, 96188, Control_c, 0, 67, 28
1, 96202, Control_c, 0, 67, 26
1, 96217, Control_c, 0, 67, 24
1, 96218, Note_off_c, 0, 73, 61
1, 96226, Note_on_c, 0, 71, 65
1, 96232, Control_c, 0, 67, 24
1, 96246, Control_c, 0, 67, 23
1, 96259, Note_off_c, 0, 50, 48
1, 96261, Control_c, 0, 67, 22
1, 96276, Control_c, 0, 67, 21
1, 96291, Control_c, 0, 67, 21
1, 96306, Control_c, 0, 67, 20
1, 96321, Control_c, 0, 67, 20
1, 96336, Control_c, 0, 67, 19
1, 96351, Control_c, 0, 67, 19
1, 96365, Control_c, 0, 67, 18
1, 96380, Control_c, 0, 67, 18
1, 96395, Control_c, 0, 67, 17
1, 96395, Note_on_c, 0, 80, 63
1, 96410, Control_c, 0, 67, 17
1, 96416, Note_on_c, 0, 50, 45
1, 96425, Control_c, 0, 67, 16
1, 96450, Note_off_c, 0, 71, 35
1, 96543, Control_c, 0, 67, 0
1, 96719, Note_off_c, 0, 50, 57
1, 96723, Note_on_c, 0, 52, 48
1, 96732, Note_off_c, 0, 68, 36
1, 96854, Note_on_c, 0, 68, 58
1, 96935, Note_off_c, 0, 68, 57
1, 96994, Note_on_c, 0, 69, 68
1, 97045, Note_off_c, 0, 69, 60
1, 97125, Note_on_c, 0, 71, 62
1, 97198, Note_off_c, 0, 71, 53
1, 97284, Note_on_c, 0, 73, 63
1, 97581, Control_c, 0, 67, 16
1, 97596, Control_c, 0, 67, 17
1, 97611, Control_c, 0, 67, 18
1, 97626, Control_c, 0, 67, 20
1, 97641, Control_c, 0, 67, 21
1, 97655, Control_c, 0, 67, 23
1, 97670, Control_c, 0, 67, 24
1, 97691, Note_on_c, 0, 45, 49
1, 97699, Control_c, 0, 67, 24
1, 97729, Control_c, 0, 67, 25
1, 97734, Note_off_c, 0, 52, 39
1, 97754, Note_off_c, 0, 80, 58
1, 97781, Note_off_c, 0, 73, 55
1, 97804, Note_off_c, 0, 45, 36
1, 97847, Control_c, 0, 67, 24
1, 97851, Note_on_c, 0, 81, 65
1, 97854, Note_on_c, 0, 47, 56
1, 97856, Note_on_c, 0, 73, 53
1, 97877, Control_c, 0, 67, 24
1, 97892, Control_c, 0, 67, 23
1, 97907, Control_c, 0, 67, 23
1, 97919, Note_off_c, 0, 47, 49
1, 97936, Control_c, 0, 67, 22
1, 97966, Control_c, 0, 67, 22
1, 97981, Control_c, 0, 67, 21
1, 97988, Note_on_c, 0, 49, 56
1, 97996, Control_c, 0, 67, 20
1, 98011, Control_c, 0, 67, 19
1, 98026, Note_off_c, 0, 73, 30
1, 98040, Control_c, 0, 67, 19
1, 98048, Note_off_c, 0, 49, 52
1, 98070, Control_c, 0, 67, 18
1, 98085, Control_c, 0, 67, 18
1, 98099, Control_c, 0, 67, 17
1, 98114, Control_c, 0, 67, 16
1, 98129, Control_c, 0, 67, 16
1, 98157, Note_on_c, 0, 50, 54
1, 98160, Note_on_c, 0, 80, 61
1, 98169, Note_on_c, 0, 73, 50
1, 98221, Note_off_c, 0, 81, 35
1, 98503, Note_on_c, 0, 78, 64
1, 98533, Note_off_c, 0, 80, 60
1, 98745, Control_c, 0, 67, 0
1, 98822, Note_on_c, 0, 66, 62
1, 98879, Note_off_c, 0, 73, 60
1, 98979, Note_off_c, 0, 66, 58
1, 99158, Note_on_c, 0, 71, 60
1, 99323, Note_off_c, 0, 78, 52
1, 99560, Note_on_c, 0, 81, 71
1, 99562, Note_on_c, 0, 49, 60
1, 99602, Note_off_c, 0, 50, 50
1, 99703, Note_on_c, 0, 80, 77
1, 99707, Note_off_c, 0, 49, 30
1, 99714, Note_on_c, 0, 47, 58
1, 99731, Note_off_c, 0, 81, 50
1, 99776, Note_off_c, 0, 47, 53
1, 99842, Note_on_c, 0, 78, 80
1, 99849, Note_on_c, 0, 45, 66
1, 99849, Note_off_c, 0, 71, 0
1, 99849, Note_on_c, 0, 71, 3
1, 99880, Note_off_c, 0, 80, 53
1, 99940, Note_off_c, 0, 45, 52
1, 99944, Note_off_c, 0, 78, 61
1, 99999, Note_on_c, 0, 78, 70
1, 100014, Note_on_c, 0, 44, 58
1, 100325, Note_on_c, 0, 77, 78
1, 100394, Note_off_c, 0, 78, 53
1, 100515, Note_off_c, 0, 71, 41
1, 100518, Note_off_c, 0, 77, 60
1, 100519, Note_off_c, 0, 44, 58
1, 100657, Note_on_c, 0, 80, 82
1, 100679, Note_on_c, 0, 47, 54
1, 100679, Note_on_c, 0, 71, 46
1, 100861, Note_off_c, 0, 47, 56
1, 100879, Note_off_c, 0, 71, 58
1, 100932, Note_off_c, 0, 80, 54
1, 100999, Note_on_c, 0, 74, 77
1, 101010, Note_on_c, 0, 71, 62
1, 101019, Note_on_c, 0, 41, 45
1, 101338, Note_on_c, 0, 73, 67
1, 101378, Note_off_c, 0, 74, 54
1, 101475, Note_off_c, 0, 41, 54
1, 101516, Note_off_c, 0, 73, 56
1, 101528, Note_off_c, 0, 71, 35
1, 101629, Note_on_c, 0, 77, 59
1, 101639, Note_on_c, 0, 37, 40
1, 101648, Note_on_c, 0, 73, 54
1, 101743, Note_off_c, 0, 77, 55
1, 101845, Note_off_c, 0, 37, 35
1, 101869, Note_off_c, 0, 73, 38
1, 101937, Note_on_c, 0, 78, 50
1, 101951, Note_on_c, 0, 42, 43
1, 101951, Note_on_c, 0, 71, 45
1, 102258, Note_on_c, 0, 69, 48
1, 102297, Note_off_c, 0, 71, 35
1, 102371, Note_on_c, 0, 49, 58
1, 102395, Note_off_c, 0, 42, 34
1, 102431, Note_off_c, 0, 49, 50
1, 102524, Note_on_c, 0, 51, 59
1, 102526, Note_on_c, 0, 81, 68
1, 102603, Note_off_c, 0, 78, 36
1, 102608, Note_off_c, 0, 51, 52
1, 102655, Note_on_c, 0, 52, 73
1, 102720, Note_off_c, 0, 52, 58
1, 102835, Note_on_c, 0, 54, 66
1, 102835, Note_on_c, 0, 74, 65
1, 102872, Note_off_c, 0, 81, 43
1, 102954, Note_off_c, 0, 69, 55
1, 103159, Note_on_c, 0, 68, 49
1, 103251, Note_off_c, 0, 74, 36
1, 103285, Note_off_c, 0, 54, 58
1, 103337, Note_off_c, 0, 68, 55
1, 103412, Note_on_c, 0, 74, 56
1, 103427, Note_on_c, 0, 69, 46
1, 103432, Note_on_c, 0, 54, 53
1, 103461, Note_off_c, 0, 74, 59
1, 103468, Note_on_c, 0, 73, 60
1, 103511, Note_on_c, 0, 74, 49
1, 103555, Note_off_c, 0, 73, 0
1, 103567, Note_on_c, 0, 73, 41
1, 103592, Note_off_c, 0, 74, 57
1, 103639, Note_off_c, 0, 69, 42
1, 103682, Note_off_c, 0, 73, 62
1, 103687, Note_off_c, 0, 54, 58
1, 103775, Note_on_c, 0, 73, 56
1, 103794, Note_on_c, 0, 68, 47
1, 103803, Note_on_c, 0, 54, 55
1, 103852, Control_c, 0, 67, 16
1, 103867, Control_c, 0, 67, 17
1, 103882, Control_c, 0, 67, 18
1, 103897, Control_c, 0, 67, 19
1, 103911, Control_c, 0, 67, 20
1, 103941, Control_c, 0, 67, 20
1, 103957, Control_c, 0, 67, 21
1, 103972, Control_c, 0, 67, 21
1, 104001, Control_c, 0, 67, 22
1, 104060, Control_c, 0, 67, 21
1, 104075, Note_on_c, 0, 72, 69
1, 104075, Control_c, 0, 67, 20
1, 104084, Note_off_c, 0, 68, 47
1, 104088, Note_off_c, 0, 54, 54
1, 104090, Control_c, 0, 67, 19
1, 104092, Note_on_c, 0, 56, 52
1, 104105, Control_c, 0, 67, 17
1, 104115, Note_off_c, 0, 73, 50
1, 104170, Note_off_c, 0, 56, 51
1, 104193, Control_c, 0, 67, 0
1, 104217, Note_on_c, 0, 54, 62
1, 104301, Note_off_c, 0, 54, 59
1, 104373, Note_on_c, 0, 52, 58
1, 104380, Note_on_c, 0, 68, 72
1, 104399, Note_off_c, 0, 72, 61
1, 104437, Note_off_c, 0, 52, 54
1, 104512, Note_on_c, 0, 51, 55
1, 104540, Note_off_c, 0, 68, 54
1, 104582, Note_off_c, 0, 51, 53
1, 104673, Note_on_c, 0, 73, 70
1, 104704, Note_on_c, 0, 51, 45
1, 104988, Note_on_c, 0, 52, 48
1, 104994, Note_off_c, 0, 51, 54
1, 105052, Note_off_c, 0, 52, 55
1, 105129, Note_on_c, 0, 49, 58
1, 105185, Note_off_c, 0, 49, 54
1, 105281, Note_on_c, 0, 68, 73
1, 105283, Note_on_c, 0, 51, 49
1, 105343, Note_off_c, 0, 51, 51
1, 105403, Note_on_c, 0, 52, 62
1, 105466, Note_off_c, 0, 52, 48
1, 105502, Note_off_c, 0, 68, 55
1, 105547, Note_on_c, 0, 69, 67
1, 105562, Note_on_c, 0, 54, 51
1, 105594, Note_off_c, 0, 69, 64
1, 105596, Note_on_c, 0, 68, 65
1, 105654, Note_on_c, 0, 69, 58
1, 105656, Note_off_c, 0, 68, 58
1, 105842, Note_off_c, 0, 54, 52
1, 105872, Note_on_c, 0, 57, 52
1, 105937, Note_off_c, 0, 57, 49
1, 106006, Note_on_c, 0, 56, 54
1, 106073, Note_off_c, 0, 56, 48
1, 106182, Note_on_c, 0, 57, 41
1, 106185, Note_off_c, 0, 69, 44
1, 106186, Note_on_c, 0, 64, 49
1, 106445, Note_off_c, 0, 57, 39
1, 106495, Note_off_c, 0, 64, 41
1, 106504, Note_on_c, 0, 66, 46
1, 106514, Note_on_c, 0, 51, 33
1, 106654, Note_off_c, 0, 73, 55
1, 106703, Note_off_c, 0, 51, 39
1, 106814, Note_on_c, 0, 52, 48
1, 106946, Note_off_c, 0, 52, 53
1, 106955, Note_on_c, 0, 76, 64
1, 107093, Note_off_c, 0, 76, 34
1, 107112, Note_on_c, 0, 54, 53
1, 107112, Note_on_c, 0, 75, 71
1, 107212, Note_off_c, 0, 75, 59
1, 107227, Note_off_c, 0, 54, 41
1, 107250, Note_on_c, 0, 73, 76
1, 107359, Note_off_c, 0, 73, 62
1, 107423, Note_on_c, 0, 73, 68
1, 107454, Note_on_c, 0, 56, 44
1, 107726, Note_on_c, 0, 72, 70
1, 107747, Note_off_c, 0, 73, 54
1, 107804, Note_off_c, 0, 66, 41
1, 107871, Note_on_c, 0, 69, 72
1, 107878, Note_off_c, 0, 56, 34
1, 108021, Note_on_c, 0, 68, 72
1, 108029, Note_off_c, 0, 69, 49
1, 108042, Note_on_c, 0, 51, 46
1, 108115, Note_off_c, 0, 68, 57
1, 108153, Note_off_c, 0, 51, 53
1, 108171, Note_on_c, 0, 66, 71
1, 108268, Note_off_c, 0, 66, 53
1, 108341, Note_on_c, 0, 66, 60
1, 108364, Note_on_c, 0, 48, 47
1, 108429, Note_off_c, 0, 72, 45
1, 108675, Note_on_c, 0, 75, 62
1, 108713, Note_off_c, 0, 66, 46
1, 108761, Note_off_c, 0, 48, 56
1, 108801, Note_off_c, 0, 75, 52
1, 108987, Note_on_c, 0, 66, 45
1, 108993, Note_on_c, 0, 44, 35
1, 109133, Note_off_c, 0, 66, 40
1, 109154, Note_off_c, 0, 44, 42
1, 109299, Note_on_c, 0, 64, 43
1, 109311, Note_on_c, 0, 49, 43
1, 109729, Note_on_c, 0, 56, 58
1, 109768, Note_off_c, 0, 49, 42
1, 109830, Note_off_c, 0, 56, 57
1, 109888, Note_on_c, 0, 58, 66
1, 109967, Note_off_c, 0, 58, 57
1, 110027, Note_on_c, 0, 60, 72
1, 110108, Note_off_c, 0, 60, 56
1, 110182, Note_on_c, 0, 61, 69
1, 110499, Note_on_c, 0, 63, 75
1, 110537, Note_off_c, 0, 61, 59
1, 110671, Note_off_c, 0, 64, 39
1, 110702, Note_off_c, 0, 63, 54
1, 110820, Note_on_c, 0, 68, 80
1, 110822, Note_on_c, 0, 59, 71
1, 110972, Note_off_c, 0, 68, 58
1, 111001, Note_off_c, 0, 59, 53
1, 111109, Note_on_c, 0, 73, 72
1, 111133, Note_on_c, 0, 57, 58
1, 111154, Note_on_c, 0, 72, 79
1, 111166, Note_off_c, 0, 73, 61
1, 111220, Note_on_c, 0, 73, 75
1, 111226, Note_off_c, 0, 72, 63
1, 111411, Note_off_c, 0, 57, 56
1, 111422, Note_on_c, 0, 59, 72
1, 111518, Note_off_c, 0, 73, 49
1, 111602, Note_off_c, 0, 59, 55
1, 111727, Note_on_c, 0, 76, 75
1, 111730, Note_on_c, 0, 73, 57
1, 111741, Note_on_c, 0, 56, 58
1, 111896, Note_off_c, 0, 56, 56
1, 111940, Note_off_c, 0, 76, 49
1, 111979, Note_off_c, 0, 73, 47
1, 112063, Note_on_c, 0, 76, 67
1, 112077, Note_on_c, 0, 73, 61
1, 112081, Note_on_c, 0, 54, 52
1, 112398, Note_on_c, 0, 75, 61
1, 112438, Note_off_c, 0, 76, 35
1, 112505, Note_off_c, 0, 54, 35
1, 112534, Note_on_c, 0, 51, 51
1, 112615, Note_off_c, 0, 51, 49
1, 112674, Note_on_c, 0, 52, 57
1, 112731, Note_off_c, 0, 52, 55
1, 112814, Note_on_c, 0, 54, 58
1, 112886, Note_off_c, 0, 54, 48
1, 112976, Note_on_c, 0, 72, 58
1, 112990, Note_off_c, 0, 73, 56
1, 112992, Note_on_c, 0, 56, 45
1, 113280, Note_on_c, 0, 57, 50
1, 113320, Note_off_c, 0, 75, 41
1, 113372, Note_off_c, 0, 56, 37
1, 113413, Note_on_c, 0, 75, 75
1, 113420, Note_off_c, 0, 57, 55
1, 113518, Note_off_c, 0, 75, 59
1, 113570, Note_on_c, 0, 76, 75
1, 113588, Note_on_c, 0, 54, 37
1, 113646, Control_c, 0, 67, 17
1, 113648, Note_off_c, 0, 76, 59
1, 113661, Control_c, 0, 67, 24
1, 113676, Control_c, 0, 67, 32
1, 113690, Control_c, 0, 67, 39
1, 113705, Control_c, 0, 67, 46
1, 113710, Note_on_c, 0, 78, 72
1, 113714, Note_off_c, 0, 54, 44
1, 113720, Control_c, 0, 67, 52
1, 113735, Control_c, 0, 67, 59
1, 113750, Control_c, 0, 67, 65
1, 113765, Control_c, 0, 67, 71
1, 113778, Note_off_c, 0, 78, 55
1, 113780, Control_c, 0, 67, 78
1, 113795, Control_c, 0, 67, 81
1, 113810, Control_c, 0, 67, 83
1, 113825, Control_c, 0, 67, 84
1, 113828, Note_off_c, 0, 72, 30
1, 113858, Note_on_c, 0, 54, 41
1, 113865, Note_on_c, 0, 80, 75
1, 113884, Control_c, 0, 67, 82
1, 113898, Control_c, 0, 67, 80
1, 113913, Control_c, 0, 67, 78
1, 113916, Note_off_c, 0, 54, 58
1, 113928, Control_c, 0, 67, 76
1, 113935, Note_on_c, 0, 53, 49
1, 113943, Control_c, 0, 67, 75
1, 113958, Control_c, 0, 67, 74
1, 113987, Control_c, 0, 67, 74
1, 113994, Note_off_c, 0, 53, 53
1, 114022, Note_on_c, 0, 54, 52
1, 114024, Control_c, 0, 67, 73
1, 114075, Note_off_c, 0, 54, 55
1, 114103, Note_on_c, 0, 53, 41
1, 114143, Note_on_c, 0, 71, 72
1, 114161, Note_off_c, 0, 53, 57
1, 114171, Note_on_c, 0, 54, 55
1, 114224, Note_off_c, 0, 54, 55
1, 114235, Note_on_c, 0, 53, 47
1, 114278, Note_on_c, 0, 70, 74
1, 114305, Note_off_c, 0, 53, 56
1, 114306, Control_c, 0, 67, 73
1, 114309, Note_off_c, 0, 71, 55
1, 114313, Note_off_c, 0, 80, 46
1, 114315, Note_on_c, 0, 54, 55
1, 114321, Control_c, 0, 67, 72
1, 114353, Note_off_c, 0, 54, 64
1, 114362, Note_on_c, 0, 53, 40
1, 114367, Control_c, 0, 67, 72
1, 114382, Control_c, 0, 67, 71
1, 114392, Note_off_c, 0, 70, 59
1, 114396, Control_c, 0, 67, 71
1, 114410, Note_on_c, 0, 80, 85
1, 114411, Control_c, 0, 67, 70
1, 114418, Note_on_c, 0, 71, 79
1, 114426, Control_c, 0, 67, 69
1, 114427, Note_on_c, 0, 54, 57
1, 114436, Note_off_c, 0, 53, 0
1, 114441, Control_c, 0, 67, 68
1, 114456, Control_c, 0, 67, 67
1, 114461, Note_off_c, 0, 54, 57
1, 114465, Note_on_c, 0, 53, 31
1, 114470, Control_c, 0, 67, 67
1, 114485, Control_c, 0, 67, 66
1, 114500, Control_c, 0, 67, 66
1, 114514, Control_c, 0, 67, 65
1, 114544, Control_c, 0, 67, 65
1, 114558, Note_on_c, 0, 51, 58
1, 114564, Note_off_c, 0, 53, 54
1, 114588, Control_c, 0, 67, 64
1, 114607, Note_off_c, 0, 80, 56
1, 114626, Note_on_c, 0, 53, 49
1, 114632, Note_off_c, 0, 51, 57
1, 114645, Note_off_c, 0, 71, 41
1, 114662, Control_c, 0, 67, 64
1, 114692, Control_c, 0, 67, 63
1, 114707, Control_c, 0, 67, 63
1, 114720, Note_on_c, 0, 81, 84
1, 114722, Control_c, 0, 67, 62
1, 114723, Note_off_c, 0, 53, 56
1, 114728, Note_on_c, 0, 71, 80
1, 114731, Note_on_c, 0, 54, 58
1, 114737, Control_c, 0, 67, 61
1, 114752, Control_c, 0, 67, 59
1, 114774, Control_c, 0, 67, 58
1, 114789, Control_c, 0, 67, 57
1, 114803, Control_c, 0, 67, 55
1, 114818, Control_c, 0, 67, 54
1, 114833, Control_c, 0, 67, 53
1, 114847, Control_c, 0, 67, 52
1, 114862, Control_c, 0, 67, 51
1, 114877, Control_c, 0, 67, 50
1, 114892, Control_c, 0, 67, 50
1, 114922, Control_c, 0, 67, 49
1, 114936, Control_c, 0, 67, 49
1, 114951, Control_c, 0, 67, 48
1, 114966, Control_c, 0, 67, 47
1, 114981, Control_c, 0, 67, 46
1, 114996, Control_c, 0, 67, 44
1, 115011, Control_c, 0, 67, 43
1, 115026, Control_c, 0, 67, 41
1, 115040, Control_c, 0, 67, 38
1, 115055, Control_c, 0, 67, 36
1, 115069, Note_on_c, 0, 80, 67
1, 115070, Control_c, 0, 67, 34
1, 115085, Control_c, 0, 67, 31
1, 115100, Control_c, 0, 67, 29
1, 115112, Note_off_c, 0, 81, 63
1, 115115, Control_c, 0, 67, 27
1, 115129, Control_c, 0, 67, 26
1, 115145, Control_c, 0, 67, 24
1, 115160, Control_c, 0, 67, 23
1, 115175, Control_c, 0, 67, 22
1, 115190, Control_c, 0, 67, 20
1, 115205, Control_c, 0, 67, 18
1, 115219, Control_c, 0, 67, 16
1, 115263, Control_c, 0, 67, 0
1, 115278, Control_c, 0, 67, 37
1, 115293, Control_c, 0, 67, 35
1, 115308, Control_c, 0, 67, 32
1, 115323, Control_c, 0, 67, 29
1, 115337, Control_c, 0, 67, 24
1, 115352, Control_c, 0, 67, 20
1, 115366, Note_off_c, 0, 80, 59
1, 115370, Note_on_c, 0, 73, 70
1, 115411, Control_c, 0, 67, 0
1, 115528, Note_off_c, 0, 71, 58
1, 115704, Note_on_c, 0, 78, 60
1, 115714, Note_on_c, 0, 70, 52
1, 115739, Note_off_c, 0, 73, 48
1, 116144, Note_on_c, 0, 71, 57
1, 116168, Note_off_c, 0, 70, 51
1, 116205, Note_off_c, 0, 54, 54
1, 116246, Note_off_c, 0, 71, 58
1, 116288, Note_on_c, 0, 70, 66
1, 116298, Note_on_c, 0, 52, 49
1, 116373, Note_off_c, 0, 70, 53
1, 116430, Note_on_c, 0, 68, 68
1, 116519, Note_off_c, 0, 68, 52
1, 116522, Note_off_c, 0, 52, 49
1, 116600, Note_on_c, 0, 69, 63
1, 116609, Note_on_c, 0, 51, 51
1, 116922, Note_on_c, 0, 52, 65
1, 116940, Note_off_c, 0, 51, 52
1, 117071, Note_off_c, 0, 78, 35
1, 117107, Note_off_c, 0, 69, 54
1, 117130, Note_off_c, 0, 52, 55
1, 117235, Note_on_c, 0, 78, 63
1, 117239, Note_on_c, 0, 69, 61
1, 117241, Note_on_c, 0, 49, 65
1, 117458, Note_off_c, 0, 69, 51
1, 117471, Note_off_c, 0, 78, 55
1, 117475, Note_off_c, 0, 49, 57
1, 117560, Note_on_c, 0, 78, 68
1, 117567, Note_on_c, 0, 69, 58
1, 117568, Note_on_c, 0, 48, 59
1, 117891, Note_on_c, 0, 68, 60
1, 117914, Note_off_c, 0, 69, 34
1, 117976, Note_off_c, 0, 78, 54
1, 118020, Note_off_c, 0, 48, 58
1, 118108, Note_off_c, 0, 68, 38
1, 118189, Note_on_c, 0, 80, 69
1, 118201, Note_on_c, 0, 72, 49
1, 118202, Note_on_c, 0, 44, 49
1, 118336, Note_off_c, 0, 44, 55
1, 118374, Note_off_c, 0, 72, 42
1, 118390, Note_off_c, 0, 80, 53
1, 118544, Note_on_c, 0, 49, 46
1, 118548, Note_on_c, 0, 73, 47
1, 118554, Note_on_c, 0, 78, 58
1, 118590, Note_off_c, 0, 49, 60
1, 118601, Note_on_c, 0, 48, 56
1, 118658, Note_off_c, 0, 48, 60
1, 118668, Note_on_c, 0, 49, 56
1, 118861, Note_on_c, 0, 76, 57
1, 118904, Note_off_c, 0, 78, 57
1, 119365, Note_off_c, 0, 49, 34
1, 119531, Note_on_c, 0, 37, 39
1, 119867, Note_on_c, 0, 72, 45
1, 119871, Note_on_c, 0, 75, 48
1, 119879, Note_off_c, 0, 73, 49
1, 119944, Note_off_c, 0, 76, 35
1, 120132, Note_off_c, 0, 37, 59
1, 120195, Note_on_c, 0, 76, 58
1, 120197, Note_on_c, 0, 73, 50
1, 120211, Note_off_c, 0, 75, 51
1, 120250, Note_off_c, 0, 72, 34
1, 120405, Note_off_c, 0, 76, 46
1, 120537, Note_on_c, 0, 76, 53
1, 120547, Note_on_c, 0, 72, 42
1, 120553, Note_on_c, 0, 44, 40
1, 120601, Note_off_c, 0, 73, 42
1, 120865, Note_on_c, 0, 75, 55
1, 120873, Note_on_c, 0, 48, 55
1, 120873, Note_off_c, 0, 76, 52
1, 120883, Note_off_c, 0, 44, 49
1, 121047, Note_off_c, 0, 48, 56
1, 121190, Note_on_c, 0, 51, 62
1, 121312, Control_c, 0, 67, 16
1, 121327, Control_c, 0, 67, 16
1, 121341, Control_c, 0, 67, 17
1, 121356, Control_c, 0, 67, 17
1, 121371, Control_c, 0, 67, 18
1, 121385, Note_off_c, 0, 51, 56
1, 121386, Control_c, 0, 67, 19
1, 121401, Control_c, 0, 67, 20
1, 121415, Control_c, 0, 67, 22
1, 121430, Control_c, 0, 67, 24
1, 121445, Control_c, 0, 67, 25
1, 121460, Control_c, 0, 67, 26
1, 121475, Control_c, 0, 67, 27
1, 121512, Control_c, 0, 67, 27
1, 121530, Note_on_c, 0, 56, 56
1, 121542, Control_c, 0, 67, 28
1, 121572, Control_c, 0, 67, 28
1, 121646, Control_c, 0, 67, 29
1, 121705, Control_c, 0, 67, 29
1, 121720, Control_c, 0, 67, 30
1, 121735, Control_c, 0, 67, 31
1, 121750, Control_c, 0, 67, 31
1, 121764, Control_c, 0, 67, 32
1, 121779, Control_c, 0, 67, 33
1, 121794, Control_c, 0, 67, 35
1, 121809, Control_c, 0, 67, 36
1, 121824, Control_c, 0, 67, 37
1, 121838, Control_c, 0, 67, 38
1, 121853, Control_c, 0, 67, 39
1, 121868, Control_c, 0, 67, 40
1, 121883, Control_c, 0, 67, 41
1, 121898, Control_c, 0, 67, 42
1, 121912, Control_c, 0, 67, 43
1, 121927, Control_c, 0, 67, 44
1, 121942, Note_on_c, 0, 57, 66
1, 121942, Control_c, 0, 67, 44
1, 121946, Note_off_c, 0, 75, 42
1, 121957, Control_c, 0, 67, 45
1, 121959, Note_off_c, 0, 56, 55
1, 121971, Control_c, 0, 67, 45
1, 121986, Control_c, 0, 67, 46
1, 122025, Note_off_c, 0, 57, 58
1, 122081, Note_on_c, 0, 75, 63
1, 122088, Note_on_c, 0, 56, 67
1, 122120, Control_c, 0, 67, 46
1, 122150, Note_off_c, 0, 56, 59
1, 122194, Control_c, 0, 67, 47
1, 122208, Note_on_c, 0, 54, 68
1, 122238, Control_c, 0, 67, 47
1, 122261, Control_c, 0, 67, 48
1, 122264, Note_off_c, 0, 75, 57
1, 122275, Control_c, 0, 67, 48
1, 122290, Control_c, 0, 67, 49
1, 122293, Note_off_c, 0, 54, 56
1, 122305, Control_c, 0, 67, 49
1, 122320, Control_c, 0, 67, 50
1, 122335, Control_c, 0, 67, 50
1, 122350, Note_on_c, 0, 56, 62
1, 122365, Control_c, 0, 67, 51
1, 122366, Note_on_c, 0, 75, 74
1, 122380, Control_c, 0, 67, 51
1, 122395, Control_c, 0, 67, 52
1, 122410, Control_c, 0, 67, 52
1, 122411, Note_on_c, 0, 54, 70
1, 122416, Note_off_c, 0, 56, 61
1, 122425, Control_c, 0, 67, 53
1, 122439, Control_c, 0, 67, 53
1, 122454, Control_c, 0, 67, 54
1, 122466, Note_on_c, 0, 56, 58
1, 122469, Control_c, 0, 67, 56
1, 122480, Note_off_c, 0, 54, 61
1, 122484, Control_c, 0, 67, 57
1, 122499, Control_c, 0, 67, 59
1, 122514, Control_c, 0, 67, 60
1, 122528, Control_c, 0, 67, 61
1, 122543, Control_c, 0, 67, 62
1, 122587, Control_c, 0, 67, 62
1, 122666, Note_on_c, 0, 76, 78
1, 122706, Note_off_c, 0, 75, 59
1, 122784, Note_off_c, 0, 72, 42
1, 122845, Note_off_c, 0, 56, 58
1, 122847, Note_off_c, 0, 76, 57
1, 122975, Note_on_c, 0, 72, 74
1, 123004, Note_on_c, 0, 56, 57
1, 123010, Note_on_c, 0, 68, 54
1, 123039, Control_c, 0, 67, 62
1, 123053, Control_c, 0, 67, 61
1, 123068, Control_c, 0, 67, 59
1, 123083, Control_c, 0, 67, 59
1, 123097, Note_off_c, 0, 68, 0
1, 123097, Note_on_c, 0, 68, 3
1, 123098, Control_c, 0, 67, 58
1, 123112, Control_c, 0, 67, 58
1, 123127, Control_c, 0, 67, 57
1, 123143, Control_c, 0, 67, 56
1, 123206, Note_off_c, 0, 72, 55
1, 123211, Note_off_c, 0, 68, 43
1, 123220, Note_off_c, 0, 56, 44
1, 123232, Control_c, 0, 67, 56
1, 123317, Note_on_c, 0, 72, 76
1, 123328, Note_on_c, 0, 69, 55
1, 123335, Control_c, 0, 67, 55
1, 123340, Note_on_c, 0, 56, 56
1, 123350, Control_c, 0, 67, 54
1, 123365, Control_c, 0, 67, 54
1, 123395, Control_c, 0, 67, 53
1, 123409, Control_c, 0, 67, 53
1, 123424, Control_c, 0, 67, 52
1, 123439, Control_c, 0, 67, 51
1, 123454, Control_c, 0, 67, 50
1, 123469, Control_c, 0, 67, 48
1, 123483, Control_c, 0, 67, 46
1, 123498, Control_c, 0, 67, 44
1, 123513, Control_c, 0, 67, 42
1, 123527, Control_c, 0, 67, 41
1, 123542, Control_c, 0, 67, 41
1, 123557, Control_c, 0, 67, 40
1, 123572, Control_c, 0, 67, 40
1, 123602, Control_c, 0, 67, 38
1, 123617, Control_c, 0, 67, 38
1, 123622, Note_on_c, 0, 73, 65
1, 123632, Control_c, 0, 67, 37
1, 123647, Control_c, 0, 67, 37
1, 123660, Note_off_c, 0, 72, 55
1, 123662, Control_c, 0, 67, 36
1, 123676, Control_c, 0, 67, 35
1, 123691, Control_c, 0, 67, 34
1, 123700, Note_off_c, 0, 56, 34
1, 123706, Control_c, 0, 67, 33
1, 123720, Control_c, 0, 67, 32
1, 123735, Control_c, 0, 67, 32
1, 123757, Control_c, 0, 67, 31
1, 123769, Note_on_c, 0, 49, 53
1, 123772, Control_c, 0, 67, 30
1, 123788, Control_c, 0, 67, 30
1, 123803, Control_c, 0, 67, 29
1, 123817, Control_c, 0, 67, 28
1, 123832, Control_c, 0, 67, 28
1, 123847, Control_c, 0, 67, 27
1, 123848, Note_off_c, 0, 49, 51
1, 123862, Control_c, 0, 67, 27
1, 123906, Control_c, 0, 67, 26
1, 123919, Note_on_c, 0, 51, 55
1, 123937, Control_c, 0, 67, 26
1, 123952, Control_c, 0, 67, 25
1, 123966, Control_c, 0, 67, 25
1, 123977, Note_off_c, 0, 51, 51
1, 123981, Control_c, 0, 67, 24
1, 123996, Control_c, 0, 67, 24
1, 124011, Control_c, 0, 67, 23
1, 124026, Control_c, 0, 67, 21
1, 124040, Control_c, 0, 67, 19
1, 124069, Note_on_c, 0, 53, 47
1, 124085, Control_c, 0, 67, 0
1, 124161, Note_off_c, 0, 53, 49
1, 124206, Note_on_c, 0, 54, 40
1, 124259, Note_off_c, 0, 54, 58
1, 124287, Note_on_c, 0, 53, 49
1, 124328, Note_off_c, 0, 53, 61
1, 124344, Note_on_c, 0, 54, 45
1, 124694, Note_on_c, 0, 76, 67
1, 124702, Note_off_c, 0, 73, 60
1, 124717, Note_on_c, 0, 56, 42
1, 124746, Note_off_c, 0, 54, 37
1, 124766, Note_off_c, 0, 56, 56
1, 124845, Note_on_c, 0, 75, 74
1, 124850, Note_on_c, 0, 54, 57
1, 124895, Note_off_c, 0, 54, 61
1, 124909, Note_off_c, 0, 76, 35
1, 124979, Note_on_c, 0, 73, 78
1, 125002, Note_on_c, 0, 52, 42
1, 125006, Note_off_c, 0, 75, 48
1, 125063, Note_off_c, 0, 52, 55
1, 125073, Note_off_c, 0, 73, 60
1, 125128, Note_on_c, 0, 73, 62
1, 125137, Note_on_c, 0, 54, 40
1, 125187, Note_off_c, 0, 54, 59
1, 125192, Note_on_c, 0, 52, 53
1, 125264, Note_off_c, 0, 52, 55
1, 125289, Note_on_c, 0, 54, 53
1, 125442, Note_on_c, 0, 81, 70
1, 125510, Note_off_c, 0, 73, 55
1, 125553, Note_off_c, 0, 69, 42
1, 125635, Note_off_c, 0, 54, 42
1, 125651, Note_off_c, 0, 81, 35
1, 125780, Note_on_c, 0, 73, 63
1, 125791, Note_on_c, 0, 54, 43
1, 125794, Note_on_c, 0, 69, 44
1, 125927, Note_off_c, 0, 69, 53
1, 125961, Note_off_c, 0, 73, 61
1, 126010, Note_off_c, 0, 54, 36
1, 126120, Note_on_c, 0, 73, 57
1, 126147, Note_on_c, 0, 54, 38
1, 126148, Note_on_c, 0, 68, 39
1, 126442, Note_on_c, 0, 72, 60
1, 126471, Note_off_c, 0, 73, 51
1, 126536, Note_off_c, 0, 54, 42
1, 126558, Note_off_c, 0, 68, 40
1, 126598, Note_on_c, 0, 48, 45
1, 126652, Note_off_c, 0, 48, 56
1, 126751, Note_off_c, 0, 72, 59
1, 126760, Note_on_c, 0, 68, 76
1, 126778, Note_on_c, 0, 49, 52
1, 126820, Note_off_c, 0, 49, 63
1, 126920, Note_on_c, 0, 51, 51
1, 126970, Note_off_c, 0, 51, 55
1, 126981, Note_off_c, 0, 68, 37
1, 127126, Note_on_c, 0, 80, 77
1, 127143, Note_on_c, 0, 52, 45
1, 127555, Note_on_c, 0, 54, 56
1, 127602, Note_off_c, 0, 52, 36
1, 127636, Note_off_c, 0, 54, 54
1, 127702, Note_on_c, 0, 52, 58
1, 127704, Note_on_c, 0, 68, 75
1, 127787, Note_off_c, 0, 52, 48
1, 127835, Note_on_c, 0, 51, 44
1, 127861, Note_off_c, 0, 68, 51
1, 127885, Note_off_c, 0, 51, 57
1, 127989, Note_on_c, 0, 73, 81
1, 128001, Note_on_c, 0, 52, 41
1, 128129, Note_on_c, 0, 75, 78
1, 128152, Note_off_c, 0, 73, 29
1, 128204, Note_off_c, 0, 75, 60
1, 128296, Note_on_c, 0, 76, 77
1, 128394, Note_off_c, 0, 80, 53
1, 128444, Note_off_c, 0, 52, 48
1, 128627, Note_on_c, 0, 80, 72
1, 128636, Note_on_c, 0, 73, 61
1, 128645, Note_on_c, 0, 52, 41
1, 128651, Note_off_c, 0, 76, 57
1, 128831, Note_off_c, 0, 52, 51
1, 128855, Note_off_c, 0, 80, 49
1, 128964, Note_on_c, 0, 80, 67
1, 128965, Note_on_c, 0, 71, 54
1, 128980, Note_on_c, 0, 52, 41
1, 129033, Note_off_c, 0, 73, 55
1, 129281, Control_c, 0, 67, 16
1, 129295, Note_on_c, 0, 70, 52
1, 129296, Control_c, 0, 67, 18
1, 129307, Note_off_c, 0, 71, 51
1, 129311, Control_c, 0, 67, 19
1, 129326, Control_c, 0, 67, 19
1, 129340, Control_c, 0, 67, 18
1, 129359, Note_off_c, 0, 52, 34
1, 129370, Control_c, 0, 67, 17
1, 129385, Control_c, 0, 67, 17
1, 129441, Note_on_c, 0, 46, 48
1, 129497, Note_off_c, 0, 46, 53
1, 129564, Control_c, 0, 67, 0
1, 129591, Note_on_c, 0, 47, 54
1, 129650, Note_off_c, 0, 47, 54
1, 129752, Note_on_c, 0, 49, 58
1, 129816, Note_off_c, 0, 49, 49
1, 129832, Note_off_c, 0, 80, 60
1, 129921, Note_on_c, 0, 79, 55
1, 129933, Note_on_c, 0, 51, 40
1, 130337, Note_on_c, 0, 52, 52
1, 130339, Note_on_c, 0, 73, 66
1, 130380, Note_off_c, 0, 51, 36
1, 130387, Note_off_c, 0, 70, 43
1, 130417, Note_off_c, 0, 52, 53
1, 130482, Note_off_c, 0, 73, 58
1, 130494, Note_on_c, 0, 71, 76
1, 130503, Note_on_c, 0, 51, 53
1, 130554, Note_off_c, 0, 51, 55
1, 130622, Note_off_c, 0, 71, 59
1, 130634, Note_on_c, 0, 70, 78
1, 130649, Note_on_c, 0, 49, 44
1, 130691, Note_off_c, 0, 49, 56
1, 130746, Note_off_c, 0, 70, 47
1, 130796, Note_on_c, 0, 72, 78
1, 130808, Note_on_c, 0, 51, 45
1, 130919, Note_off_c, 0, 79, 43
1, 131154, Note_on_c, 0, 73, 84
1, 131196, Control_c, 0, 67, 16
1, 131206, Note_off_c, 0, 72, 60
1, 131210, Control_c, 0, 67, 17
1, 131225, Control_c, 0, 67, 18
1, 131248, Control_c, 0, 67, 19
1, 131263, Control_c, 0, 67, 20
1, 131276, Control_c, 0, 67, 21
1, 131291, Control_c, 0, 67, 22
1, 131306, Control_c, 0, 67, 23
1, 131313, Note_off_c, 0, 51, 48
1, 131321, Control_c, 0, 67, 24
1, 131439, Control_c, 0, 67, 23
1, 131483, Control_c, 0, 67, 23
1, 131489, Note_on_c, 0, 78, 71
1, 131494, Note_on_c, 0, 75, 70
1, 131504, Note_on_c, 0, 51, 42
1, 131507, Note_off_c, 0, 73, 62
1, 131528, Control_c, 0, 67, 22
1, 131603, Control_c, 0, 67, 23
1, 131632, Control_c, 0, 67, 23
1, 131647, Control_c, 0, 67, 24
1, 131676, Control_c, 0, 67, 24
1, 131691, Control_c, 0, 67, 25
1, 131706, Control_c, 0, 67, 25
1, 131711, Note_off_c, 0, 51, 35
1, 131723, Note_off_c, 0, 78, 36
1, 131750, Control_c, 0, 67, 26
1, 131834, Note_on_c, 0, 78, 63
1, 131848, Note_on_c, 0, 68, 52
1, 131854, Control_c, 0, 67, 26
1, 131859, Note_on_c, 0, 51, 36
1, 131868, Control_c, 0, 67, 27
1, 131898, Control_c, 0, 67, 27
1, 131904, Note_off_c, 0, 75, 55
1, 131914, Control_c, 0, 67, 28
1, 131929, Control_c, 0, 67, 28
1, 131944, Control_c, 0, 67, 29
1, 131958, Control_c, 0, 67, 30
1, 131973, Control_c, 0, 67, 31
1, 131996, Control_c, 0, 67, 33
1, 132011, Control_c, 0, 67, 34
1, 132025, Control_c, 0, 67, 35
1, 132039, Control_c, 0, 67, 37
1, 132054, Control_c, 0, 67, 37
1, 132069, Control_c, 0, 67, 38
1, 132084, Control_c, 0, 67, 39
1, 132098, Control_c, 0, 67, 39
1, 132128, Control_c, 0, 67, 40
1, 132143, Control_c, 0, 67, 40
1, 132172, Note_on_c, 0, 77, 64
1, 132172, Control_c, 0, 67, 41
1, 132187, Control_c, 0, 67, 41
1, 132202, Note_off_c, 0, 78, 56
1, 132217, Control_c, 0, 67, 42
1, 132247, Control_c, 0, 67, 42
1, 132266, Note_off_c, 0, 51, 35
1, 132276, Control_c, 0, 67, 43
1, 132291, Control_c, 0, 67, 44
1, 132295, Note_off_c, 0, 77, 54
1, 132303, Note_on_c, 0, 75, 63
1, 132306, Control_c, 0, 67, 44
1, 132312, Note_on_c, 0, 44, 49
1, 132321, Control_c, 0, 67, 45
1, 132336, Control_c, 0, 67, 47
1, 132351, Control_c, 0, 67, 49
1, 132365, Control_c, 0, 67, 51
1, 132375, Note_off_c, 0, 44, 53
1, 132380, Control_c, 0, 67, 53
1, 132395, Control_c, 0, 67, 54
1, 132452, Note_on_c, 0, 73, 66
1, 132455, Note_off_c, 0, 75, 44
1, 132464, Note_on_c, 0, 46, 46
1, 132518, Note_off_c, 0, 46, 54
1, 132572, Control_c, 0, 67, 53
1, 132584, Note_on_c, 0, 75, 61
1, 132584, Note_off_c, 0, 73, 33
1, 132587, Control_c, 0, 67, 53
1, 132601, Note_on_c, 0, 48, 45
1, 132602, Control_c, 0, 67, 52
1, 132616, Control_c, 0, 67, 52
1, 132646, Control_c, 0, 67, 51
1, 132657, Note_off_c, 0, 48, 56
1, 132661, Control_c, 0, 67, 51
1, 132676, Control_c, 0, 67, 50
1, 132691, Control_c, 0, 67, 50
1, 132693, Note_off_c, 0, 75, 42
1, 132759, Control_c, 0, 67, 49
1, 132774, Control_c, 0, 67, 49
1, 132778, Note_on_c, 0, 76, 60
1, 132780, Note_on_c, 0, 49, 41
1, 132788, Control_c, 0, 67, 48
1, 132803, Control_c, 0, 67, 48
1, 132847, Control_c, 0, 67, 47
1, 132862, Control_c, 0, 67, 46
1, 132877, Control_c, 0, 67, 45
1, 132892, Control_c, 0, 67, 44
1, 132907, Control_c, 0, 67, 43
1, 132921, Control_c, 0, 67, 42
1, 132936, Control_c, 0, 67, 42
1, 132951, Control_c, 0, 67, 41
1, 132966, Control_c, 0, 67, 40
1, 132981, Control_c, 0, 67, 38
1, 132995, Control_c, 0, 67, 36
1, 133010, Control_c, 0, 67, 33
1, 133025, Control_c, 0, 67, 31
1, 133040, Control_c, 0, 67, 28
1, 133054, Control_c, 0, 67, 26
1, 133069, Control_c, 0, 67, 37
1, 133084, Control_c, 0, 67, 36
1, 133099, Control_c, 0, 67, 36
1, 133114, Control_c, 0, 67, 35
1, 133159, Control_c, 0, 67, 36
1, 133174, Control_c, 0, 67, 36
1, 133178, Note_on_c, 0, 64, 64
1, 133188, Control_c, 0, 67, 37
1, 133197, Note_on_c, 0, 51, 44
1, 133203, Control_c, 0, 67, 38
1, 133204, Note_off_c, 0, 68, 44
1, 133218, Control_c, 0, 67, 38
1, 133233, Control_c, 0, 67, 39
1, 133233, Note_off_c, 0, 49, 48
1, 133252, Note_off_c, 0, 51, 52
1, 133262, Control_c, 0, 67, 39
1, 133292, Control_c, 0, 67, 40
1, 133293, Note_off_c, 0, 64, 35
1, 133324, Note_on_c, 0, 66, 74
1, 133347, Note_on_c, 0, 49, 56
1, 133391, Note_off_c, 0, 49, 60
1, 133399, Note_off_c, 0, 66, 58
1, 133454, Control_c, 0, 67, 40
1, 133464, Note_on_c, 0, 68, 76
1, 133474, Note_on_c, 0, 47, 56
1, 133571, Note_off_c, 0, 68, 50
1, 133634, Note_on_c, 0, 69, 78
1, 133638, Note_off_c, 0, 47, 39
1, 133652, Note_on_c, 0, 49, 50
1, 133656, Control_c, 0, 67, 40
1, 133685, Control_c, 0, 67, 39
1, 133715, Control_c, 0, 67, 39
1, 133774, Control_c, 0, 67, 38
1, 133789, Control_c, 0, 67, 38
1, 133818, Control_c, 0, 67, 37
1, 133833, Control_c, 0, 67, 36
1, 133862, Control_c, 0, 67, 36
1, 133892, Control_c, 0, 67, 35
1, 133937, Control_c, 0, 67, 35
1, 133947, Note_on_c, 0, 73, 76
1, 133957, Note_on_c, 0, 51, 49
1, 133967, Control_c, 0, 67, 34
1, 133973, Note_off_c, 0, 49, 45
1, 133979, Note_off_c, 0, 69, 60
1, 133981, Control_c, 0, 67, 34
1, 133996, Control_c, 0, 67, 32
1, 134011, Control_c, 0, 67, 30
1, 134026, Control_c, 0, 67, 23
1, 134055, Control_c, 0, 67, 0
1, 134089, Note_on_c, 0, 72, 84
1, 134140, Note_off_c, 0, 51, 41
1, 134140, Note_off_c, 0, 73, 38
1, 134205, Note_off_c, 0, 72, 54
1, 134270, Note_on_c, 0, 73, 71
1, 134274, Note_on_c, 0, 52, 45
1, 134495, Note_off_c, 0, 52, 43
1, 134604, Note_off_c, 0, 76, 54
1, 134607, Note_on_c, 0, 66, 68
1, 134634, Note_on_c, 0, 45, 41
1, 134649, Note_off_c, 0, 73, 59
1, 134939, Note_on_c, 0, 75, 60
1, 135026, Note_off_c, 0, 45, 51
1, 135251, Note_on_c, 0, 73, 57
1, 135254, Note_on_c, 0, 57, 69
1, 135338, Note_off_c, 0, 75, 38
1, 135374, Note_off_c, 0, 73, 55
1, 135469, Note_off_c, 0, 57, 56
1, 135553, Control_c, 0, 67, 18
1, 135568, Control_c, 0, 67, 21
1, 135576, Note_on_c, 0, 73, 59
1, 135582, Control_c, 0, 67, 24
1, 135587, Note_on_c, 0, 57, 59
1, 135597, Control_c, 0, 67, 26
1, 135612, Control_c, 0, 67, 28
1, 135627, Control_c, 0, 67, 30
1, 135635, Note_off_c, 0, 57, 60
1, 135639, Note_on_c, 0, 56, 63
1, 135642, Control_c, 0, 67, 32
1, 135657, Control_c, 0, 67, 33
1, 135672, Control_c, 0, 67, 35
1, 135687, Control_c, 0, 67, 37
1, 135701, Control_c, 0, 67, 40
1, 135703, Note_off_c, 0, 56, 59
1, 135708, Note_on_c, 0, 57, 58
1, 135716, Control_c, 0, 67, 44
1, 135738, Control_c, 0, 67, 47
1, 135753, Control_c, 0, 67, 52
1, 135767, Control_c, 0, 67, 57
1, 135782, Control_c, 0, 67, 63
1, 135797, Control_c, 0, 67, 67
1, 135812, Control_c, 0, 67, 71
1, 135827, Control_c, 0, 67, 74
1, 135842, Control_c, 0, 67, 76
1, 135903, Note_on_c, 0, 72, 57
1, 135946, Control_c, 0, 67, 75
1, 135962, Note_off_c, 0, 57, 50
1, 135972, Note_off_c, 0, 73, 37
1, 136006, Control_c, 0, 67, 74
1, 136020, Control_c, 0, 67, 73
1, 136026, Note_on_c, 0, 51, 61
1, 136035, Control_c, 0, 67, 72
1, 136050, Control_c, 0, 67, 71
1, 136080, Control_c, 0, 67, 71
1, 136095, Control_c, 0, 67, 70
1, 136107, Note_off_c, 0, 51, 54
1, 136110, Control_c, 0, 67, 68
1, 136125, Control_c, 0, 67, 66
1, 136139, Control_c, 0, 67, 66
1, 136184, Note_on_c, 0, 52, 69
1, 136199, Control_c, 0, 67, 65
1, 136202, Note_on_c, 0, 68, 56
1, 136213, Control_c, 0, 67, 64
1, 136216, Note_off_c, 0, 72, 54
1, 136228, Control_c, 0, 67, 61
1, 136243, Control_c, 0, 67, 58
1, 136257, Note_off_c, 0, 52, 56
1, 136257, Control_c, 0, 67, 55
1, 136272, Control_c, 0, 67, 52
1, 136287, Control_c, 0, 67, 50
1, 136302, Control_c, 0, 67, 48
1, 136317, Control_c, 0, 67, 46
1, 136327, Note_on_c, 0, 54, 66
1, 136331, Control_c, 0, 67, 43
1, 136346, Control_c, 0, 67, 39
1, 136361, Control_c, 0, 67, 35
1, 136376, Control_c, 0, 67, 32
1, 136390, Control_c, 0, 67, 37
1, 136403, Note_off_c, 0, 54, 50
1, 136405, Control_c, 0, 67, 36
1, 136420, Control_c, 0, 67, 34
1, 136435, Control_c, 0, 67, 34
1, 136450, Control_c, 0, 67, 33
1, 136465, Control_c, 0, 67, 32
1, 136487, Control_c, 0, 67, 32
1, 136498, Note_on_c, 0, 56, 53
1, 136502, Control_c, 0, 67, 31
1, 136506, Note_on_c, 0, 71, 50
1, 136509, Note_off_c, 0, 68, 53
1, 136517, Control_c, 0, 67, 31
1, 136532, Control_c, 0, 67, 30
1, 136546, Control_c, 0, 67, 30
1, 136561, Control_c, 0, 67, 29
1, 136576, Control_c, 0, 67, 29
1, 136590, Control_c, 0, 67, 28
1, 136605, Control_c, 0, 67, 28
1, 136620, Control_c, 0, 67, 27
1, 136635, Control_c, 0, 67, 27
1, 136664, Control_c, 0, 67, 26
1, 136694, Control_c, 0, 67, 26
1, 136710, Control_c, 0, 67, 25
1, 136725, Control_c, 0, 67, 22
1, 136740, Control_c, 0, 67, 17
1, 136769, Control_c, 0, 67, 0
1, 136837, Note_on_c, 0, 65, 66
1, 136885, Note_off_c, 0, 66, 37
1, 136934, Note_off_c, 0, 56, 52
1, 137152, Note_on_c, 0, 63, 50
1, 137166, Note_on_c, 0, 56, 45
1, 137248, Note_off_c, 0, 65, 38
1, 137334, Note_off_c, 0, 56, 45
1, 137364, Note_off_c, 0, 63, 57
1, 137470, Note_on_c, 0, 56, 47
1, 137485, Note_on_c, 0, 63, 46
1, 137513, Note_off_c, 0, 56, 61
1, 137524, Note_on_c, 0, 54, 47
1, 137576, Note_off_c, 0, 54, 60
1, 137602, Note_on_c, 0, 56, 50
1, 137636, Control_c, 0, 67, 16
1, 137651, Control_c, 0, 67, 22
1, 137666, Control_c, 0, 67, 28
1, 137681, Control_c, 0, 67, 33
1, 137696, Control_c, 0, 67, 37
1, 137711, Control_c, 0, 67, 41
1, 137725, Control_c, 0, 67, 42
1, 137740, Control_c, 0, 67, 42
1, 137769, Note_on_c, 0, 65, 51
1, 137770, Control_c, 0, 67, 43
1, 137773, Note_off_c, 0, 71, 35
1, 137785, Control_c, 0, 67, 44
1, 137797, Note_off_c, 0, 63, 52
1, 137800, Control_c, 0, 67, 46
1, 137815, Control_c, 0, 67, 47
1, 137844, Control_c, 0, 67, 48
1, 137874, Control_c, 0, 67, 48
1, 137889, Control_c, 0, 67, 49
1, 137901, Note_off_c, 0, 56, 35
1, 137903, Control_c, 0, 67, 50
1, 137962, Control_c, 0, 67, 49
1, 138000, Control_c, 0, 67, 49
1, 138092, Note_on_c, 0, 73, 54
1, 138103, Note_on_c, 0, 49, 48
1, 138272, Note_off_c, 0, 49, 50
1, 138288, Note_off_c, 0, 73, 57
1, 138341, Control_c, 0, 67, 49
1, 138385, Control_c, 0, 67, 50
1, 138430, Control_c, 0, 67, 50
1, 138432, Note_off_c, 0, 65, 39
1, 138437, Note_on_c, 0, 71, 53
1, 138452, Note_on_c, 0, 66, 45
1, 138459, Control_c, 0, 67, 51
1, 138465, Note_on_c, 0, 54, 49
1, 138474, Control_c, 0, 67, 51
1, 138489, Control_c, 0, 67, 52
1, 138504, Control_c, 0, 67, 53
1, 138548, Control_c, 0, 67, 53
1, 138578, Control_c, 0, 67, 54
1, 138608, Control_c, 0, 67, 55
1, 138623, Control_c, 0, 67, 55
1, 138638, Control_c, 0, 67, 56
1, 138652, Control_c, 0, 67, 58
1, 138667, Control_c, 0, 67, 59
1, 138682, Control_c, 0, 67, 60
1, 138697, Control_c, 0, 67, 61
1, 138712, Control_c, 0, 67, 63
1, 138733, Control_c, 0, 67, 64
1, 138748, Control_c, 0, 67, 65
1, 138763, Control_c, 0, 67, 65
1, 138766, Note_on_c, 0, 69, 63
1, 138778, Control_c, 0, 67, 66
1, 138795, Note_off_c, 0, 71, 44
1, 138927, Control_c, 0, 67, 65
1, 138941, Control_c, 0, 67, 64
1, 138956, Control_c, 0, 67, 63
1, 138971, Control_c, 0, 67, 62
1, 138985, Control_c, 0, 67, 62
1, 139000, Control_c, 0, 67, 60
1, 139015, Control_c, 0, 67, 59
1, 139030, Control_c, 0, 67, 57
1, 139045, Control_c, 0, 67, 57
1, 139055, Note_off_c, 0, 69, 41
1, 139064, Note_on_c, 0, 68, 59
1, 139074, Note_on_c, 0, 64, 45
1, 139105, Control_c, 0, 67, 56
1, 139118, Note_off_c, 0, 66, 36
1, 139322, Note_off_c, 0, 68, 53
1, 139323, Note_off_c, 0, 64, 42
1, 139401, Note_on_c, 0, 68, 40
1, 139427, Note_on_c, 0, 64, 40
1, 139526, Control_c, 0, 67, 56
1, 139556, Control_c, 0, 67, 55
1, 139600, Control_c, 0, 67, 55
1, 139615, Control_c, 0, 67, 54
1, 139630, Control_c, 0, 67, 54
1, 139645, Control_c, 0, 67, 53
1, 139660, Control_c, 0, 67, 53
1, 139675, Control_c, 0, 67, 52
1, 139690, Control_c, 0, 67, 51
1, 139705, Control_c, 0, 67, 50
1, 139720, Control_c, 0, 67, 49
1, 139734, Control_c, 0, 67, 48
1, 139735, Note_on_c, 0, 66, 51
1, 139741, Note_off_c, 0, 68, 55
1, 139744, Note_off_c, 0, 64, 47
1, 139749, Control_c, 0, 67, 46
1, 139760, Note_on_c, 0, 63, 41
1, 139764, Control_c, 0, 67, 45
1, 139779, Control_c, 0, 67, 44
1, 139794, Control_c, 0, 67, 43
1, 139808, Control_c, 0, 67, 43
1, 139823, Control_c, 0, 67, 42
1, 139928, Control_c, 0, 67, 42
1, 140052, Note_off_c, 0, 63, 45
1, 140068, Note_on_c, 0, 64, 47
1, 140074, Note_on_c, 0, 61, 31
1, 140115, Note_off_c, 0, 66, 43
1, 140209, Control_c, 0, 67, 41
1, 140336, Control_c, 0, 67, 41
1, 140344, Note_off_c, 0, 61, 44
1, 140380, Control_c, 0, 67, 40
1, 140395, Control_c, 0, 67, 38
1, 140408, Note_on_c, 0, 63, 49
1, 140410, Control_c, 0, 67, 37
1, 140420, Note_on_c, 0, 60, 33
1, 140424, Note_off_c, 0, 64, 34
1, 140424, Control_c, 0, 67, 36
1, 140454, Control_c, 0, 67, 36
1, 140543, Control_c, 0, 64, 20
1, 140557, Control_c, 0, 64, 37
1, 140572, Control_c, 0, 64, 42
1, 140587, Control_c, 0, 64, 44
1, 140602, Control_c, 0, 64, 46
1, 140617, Control_c, 0, 64, 49
1, 140632, Control_c, 0, 64, 51
1, 140647, Control_c, 0, 64, 53
1, 140648, Note_off_c, 0, 60, 40
1, 140662, Control_c, 0, 64, 54
1, 140677, Control_c, 0, 64, 56
1, 140691, Control_c, 0, 64, 57
1, 140707, Control_c, 0, 64, 58
1, 140711, Note_off_c, 0, 63, 57
1, 140713, Note_on_c, 0, 56, 37
1, 140722, Control_c, 0, 64, 58
1, 140736, Control_c, 0, 64, 59
1, 140745, Note_off_c, 0, 54, 36
1, 140851, Note_on_c, 0, 68, 51
1, 140855, Control_c, 0, 64, 58
1, 140857, Note_off_c, 0, 56, 37
1, 140858, Note_on_c, 0, 54, 51
1, 140870, Control_c, 0, 64, 58
1, 140885, Control_c, 0, 64, 57
1, 140900, Control_c, 0, 64, 57
1, 140915, Control_c, 0, 64, 55
1, 140929, Control_c, 0, 64, 54
1, 140944, Control_c, 0, 64, 51
1, 140959, Control_c, 0, 64, 49
1, 140981, Control_c, 0, 64, 46
1, 140996, Control_c, 0, 64, 43
1, 141000, Note_off_c, 0, 54, 46
1, 141008, Note_on_c, 0, 72, 63
1, 141010, Control_c, 0, 64, 39
1, 141016, Note_off_c, 0, 68, 38
1, 141025, Control_c, 0, 64, 36
1, 141040, Control_c, 0, 64, 33
1, 141040, Control_c, 0, 67, 35
1, 141041, Note_on_c, 0, 52, 40
1, 141055, Control_c, 0, 64, 49
1, 141055, Control_c, 0, 67, 34
1, 141070, Control_c, 0, 64, 47
1, 141070, Control_c, 0, 67, 32
1, 141085, Control_c, 0, 64, 45
1, 141085, Control_c, 0, 67, 29
1, 141100, Control_c, 0, 64, 43
1, 141100, Control_c, 0, 67, 26
1, 141115, Control_c, 0, 64, 42
1, 141115, Control_c, 0, 67, 23
1, 141129, Control_c, 0, 64, 39
1, 141129, Control_c, 0, 67, 20
1, 141144, Control_c, 0, 64, 36
1, 141144, Control_c, 0, 67, 16
1, 141159, Control_c, 0, 64, 32
1, 141171, Note_on_c, 0, 75, 71
1, 141174, Control_c, 0, 64, 27
1, 141183, Note_on_c, 0, 51, 28
1, 141185, Note_off_c, 0, 72, 55
1, 141188, Control_c, 0, 64, 25
1, 141188, Control_c, 0, 67, 0
1, 141191, Note_off_c, 0, 52, 37
1, 141306, Control_c, 0, 64, 24
1, 141336, Control_c, 0, 64, 24
1, 141341, Note_on_c, 0, 54, 35
1, 141341, Note_off_c, 0, 75, 56
1, 141347, Note_on_c, 0, 80, 69
1, 141353, Note_off_c, 0, 51, 43
1, 141404, Note_off_c, 0, 54, 53
1, 141415, Note_on_c, 0, 52, 35
1, 141455, Control_c, 0, 64, 26
1, 141470, Control_c, 0, 64, 36
1, 141478, Note_off_c, 0, 52, 55
1, 141484, Control_c, 0, 64, 48
1, 141489, Note_on_c, 0, 54, 43
1, 141500, Control_c, 0, 64, 56
1, 141508, Note_on_c, 0, 78, 63
1, 141515, Control_c, 0, 64, 59
1, 141530, Control_c, 0, 64, 60
1, 141544, Control_c, 0, 64, 60
1, 141559, Control_c, 0, 64, 61
1, 141568, Note_off_c, 0, 80, 36
1, 141573, Note_on_c, 0, 52, 37
1, 141574, Control_c, 0, 64, 62
1, 141589, Control_c, 0, 64, 62
1, 141601, Note_off_c, 0, 54, 0
1, 141619, Note_on_c, 0, 54, 33
1, 141627, Note_off_c, 0, 52, 51
1, 141633, Control_c, 0, 64, 60
1, 141648, Control_c, 0, 64, 57
1, 141663, Control_c, 0, 64, 52
1, 141667, Note_on_c, 0, 80, 75
1, 141678, Control_c, 0, 64, 48
1, 141690, Note_off_c, 0, 78, 34
1, 141693, Control_c, 0, 64, 45
1, 141696, Note_on_c, 0, 52, 34
1, 141708, Control_c, 0, 64, 44
1, 141711, Note_off_c, 0, 54, 0
1, 141753, Note_on_c, 0, 54, 23
1, 141758, Note_off_c, 0, 52, 56
1, 141759, Control_c, 0, 64, 48
1, 141774, Control_c, 0, 64, 57
1, 141788, Control_c, 0, 64, 63
1, 141803, Control_c, 0, 64, 65
1, 141833, Control_c, 0, 64, 65
1, 141836, Note_on_c, 0, 52, 36
1, 141842, Note_off_c, 0, 80, 56
1, 141848, Control_c, 0, 64, 66
1, 141863, Control_c, 0, 64, 66
1, 141864, Note_off_c, 0, 54, 0
1, 141887, Note_on_c, 0, 54, 26
1, 141887, Note_off_c, 0, 52, 56
1, 141936, Control_c, 0, 64, 65
1, 141951, Control_c, 0, 64, 64
1, 141966, Control_c, 0, 64, 61
1, 141973, Note_on_c, 0, 52, 44
1, 141978, Note_off_c, 0, 54, 47
1, 141981, Note_on_c, 0, 80, 85
1, 141981, Control_c, 0, 64, 57
1, 141996, Control_c, 0, 64, 53
1, 142010, Control_c, 0, 64, 52
1, 142026, Note_off_c, 0, 52, 58
1, 142043, Note_on_c, 0, 54, 50
1, 142055, Control_c, 0, 64, 57
1, 142070, Control_c, 0, 64, 63
1, 142084, Control_c, 0, 64, 66
1, 142099, Control_c, 0, 64, 68
1, 142107, Note_off_c, 0, 54, 57
1, 142114, Control_c, 0, 64, 69
1, 142121, Note_on_c, 0, 52, 47
1, 142128, Control_c, 0, 64, 70
1, 142143, Control_c, 0, 64, 71
1, 142148, Note_off_c, 0, 80, 58
1, 142158, Control_c, 0, 64, 71
1, 142166, Note_off_c, 0, 52, 60
1, 142176, Note_on_c, 0, 54, 47
1, 142244, Note_on_c, 0, 52, 48
1, 142262, Control_c, 0, 64, 71
1, 142271, Note_off_c, 0, 54, 0
1, 142277, Control_c, 0, 64, 68
1, 142287, Note_off_c, 0, 52, 59
1, 142288, Note_on_c, 0, 54, 41
1, 142292, Control_c, 0, 64, 64
1, 142307, Control_c, 0, 64, 58
1, 142313, Note_on_c, 0, 80, 87
1, 142322, Control_c, 0, 64, 54
1, 142337, Control_c, 0, 64, 53
1, 142352, Control_c, 0, 64, 52
1, 142359, Note_off_c, 0, 54, 58
1, 142361, Note_on_c, 0, 52, 51
1, 142397, Control_c, 0, 64, 52
1, 142411, Control_c, 0, 64, 57
1, 142420, Note_off_c, 0, 52, 55
1, 142425, Note_on_c, 0, 54, 42
1, 142426, Control_c, 0, 64, 62
1, 142441, Control_c, 0, 64, 66
1, 142456, Control_c, 0, 64, 67
1, 142478, Control_c, 0, 64, 68
1, 142491, Note_on_c, 0, 52, 43
1, 142493, Control_c, 0, 64, 68
1, 142498, Note_off_c, 0, 54, 59
1, 142507, Control_c, 0, 64, 69
1, 142522, Control_c, 0, 64, 70
1, 142537, Control_c, 0, 64, 70
1, 142552, Control_c, 0, 64, 71
1, 142566, Control_c, 0, 67, 18
1, 142572, Note_on_c, 0, 54, 52
1, 142573, Note_off_c, 0, 52, 53
1, 142581, Control_c, 0, 67, 22
1, 142596, Control_c, 0, 67, 27
1, 142608, Poly_aftertouch_c, 0, 52, 0
1, 142611, Control_c, 0, 67, 32
1, 142623, Note_on_c, 0, 52, 30
1, 142626, Control_c, 0, 67, 37
1, 142627, Note_off_c, 0, 54, 59
1, 142641, Control_c, 0, 67, 42
1, 142641, Note_off_c, 0, 80, 37
1, 142656, Control_c, 0, 67, 46
1, 142671, Control_c, 0, 67, 51
1, 142686, Control_c, 0, 67, 57
1, 142699, Note_on_c, 0, 54, 40
1, 142700, Control_c, 0, 67, 64
1, 142715, Note_off_c, 0, 52, 0
1, 142715, Control_c, 0, 64, 70
1, 142715, Control_c, 0, 67, 70
1, 142730, Control_c, 0, 64, 68
1, 142730, Control_c, 0, 67, 75
1, 142739, Note_on_c, 0, 52, 33
1, 142745, Note_off_c, 0, 54, 60
1, 142745, Control_c, 0, 64, 65
1, 142745, Control_c, 0, 67, 80
1, 142748, Poly_aftertouch_c, 0, 77, 127
1, 142759, Control_c, 0, 64, 59
1, 142759, Control_c, 0, 67, 82
1, 142774, Control_c, 0, 64, 55
1, 142774, Control_c, 0, 67, 83
1, 142789, Control_c, 0, 64, 52
1, 142802, Poly_aftertouch_c, 0, 77, 0
1, 142804, Control_c, 0, 64, 47
1, 142819, Control_c, 0, 64, 43
1, 142833, Control_c, 0, 64, 39
1, 142835, Note_on_c, 0, 80, 63
1, 142848, Control_c, 0, 64, 36
1, 142863, Control_c, 0, 64, 34
1, 142866, Note_off_c, 0, 52, 53
1, 142872, Note_on_c, 0, 51, 47
1, 142922, Control_c, 0, 64, 37
1, 142937, Control_c, 0, 64, 46
1, 142937, Control_c, 0, 67, 81
1, 142951, Control_c, 0, 64, 55
1, 142951, Control_c, 0, 67, 79
1, 142966, Control_c, 0, 64, 61
1, 142966, Control_c, 0, 67, 79
1, 142981, Control_c, 0, 64, 63
1, 142981, Control_c, 0, 67, 77
1, 142996, Control_c, 0, 64, 63
1, 142996, Control_c, 0, 67, 76
1, 143011, Control_c, 0, 64, 64
1, 143011, Control_c, 0, 67, 74
1, 143021, Note_on_c, 0, 52, 51
1, 143026, Control_c, 0, 64, 64
1, 143026, Control_c, 0, 67, 72
1, 143033, Note_off_c, 0, 51, 53
1, 143040, Control_c, 0, 64, 65
1, 143040, Control_c, 0, 67, 70
1, 143055, Control_c, 0, 67, 69
1, 143070, Control_c, 0, 67, 67
1, 143085, Control_c, 0, 67, 63
1, 143092, Note_off_c, 0, 80, 36
1, 143101, Control_c, 0, 67, 59
1, 143115, Control_c, 0, 67, 55
1, 143130, Control_c, 0, 64, 64
1, 143130, Control_c, 0, 67, 50
1, 143145, Control_c, 0, 64, 63
1, 143145, Control_c, 0, 67, 46
1, 143160, Control_c, 0, 64, 58
1, 143160, Control_c, 0, 67, 43
1, 143166, Note_off_c, 0, 52, 47
1, 143175, Control_c, 0, 64, 52
1, 143175, Control_c, 0, 67, 40
1, 143189, Control_c, 0, 64, 47
1, 143189, Control_c, 0, 67, 39
1, 143191, Note_on_c, 0, 51, 44
1, 143192, Note_on_c, 0, 80, 71
1, 143204, Control_c, 0, 64, 43
1, 143204, Control_c, 0, 67, 38
1, 143227, Control_c, 0, 64, 40
1, 143227, Control_c, 0, 67, 37
1, 143242, Control_c, 0, 64, 38
1, 143242, Control_c, 0, 67, 36
1, 143256, Control_c, 0, 67, 35
1, 143271, Control_c, 0, 64, 38
1, 143271, Control_c, 0, 67, 34
1, 143286, Control_c, 0, 64, 45
1, 143286, Control_c, 0, 67, 34
1, 143301, Control_c, 0, 64, 55
1, 143301, Control_c, 0, 67, 33
1, 143316, Control_c, 0, 64, 62
1, 143316, Control_c, 0, 67, 33
1, 143330, Control_c, 0, 64, 64
1, 143330, Control_c, 0, 67, 32
1, 143345, Control_c, 0, 64, 65
1, 143345, Control_c, 0, 67, 32
1, 143360, Control_c, 0, 64, 66
1, 143360, Control_c, 0, 67, 31
1, 143374, Control_c, 0, 64, 66
1, 143374, Control_c, 0, 67, 31
1, 143389, Control_c, 0, 64, 67
1, 143389, Control_c, 0, 67, 29
1, 143404, Control_c, 0, 64, 68
1, 143404, Control_c, 0, 67, 28
1, 143419, Control_c, 0, 64, 69
1, 143419, Control_c, 0, 67, 27
1, 143434, Control_c, 0, 64, 70
1, 143434, Control_c, 0, 67, 27
1, 143449, Control_c, 0, 64, 70
1, 143449, Control_c, 0, 67, 26
1, 143464, Control_c, 0, 67, 26
1, 143481, Note_off_c, 0, 51, 58
1, 143494, Control_c, 0, 64, 71
1, 143555, Note_on_c, 0, 81, 66
1, 143583, Note_off_c, 0, 80, 37
1, 143700, Control_c, 0, 64, 70
1, 143709, Note_on_c, 0, 63, 59
1, 143716, Note_on_c, 0, 80, 69
1, 143730, Control_c, 0, 64, 70
1, 143745, Control_c, 0, 64, 69
1, 143756, Note_off_c, 0, 81, 38
1, 143760, Control_c, 0, 64, 69
1, 143774, Control_c, 0, 64, 67
1, 143789, Control_c, 0, 64, 65
1, 143804, Control_c, 0, 64, 63
1, 143819, Control_c, 0, 64, 60
1, 143834, Control_c, 0, 64, 57
1, 143848, Control_c, 0, 64, 54
1, 143863, Control_c, 0, 64, 51
1, 143875, Note_on_c, 0, 78, 71
1, 143875, Note_on_c, 0, 66, 63
1, 143878, Control_c, 0, 64, 45
1, 143894, Control_c, 0, 64, 39
1, 143905, Note_off_c, 0, 63, 41
1, 143909, Control_c, 0, 64, 34
1, 143923, Control_c, 0, 64, 32
1, 143931, Note_off_c, 0, 80, 38
1, 143938, Control_c, 0, 64, 29
1, 143953, Control_c, 0, 64, 27
1, 143976, Control_c, 0, 64, 23
1, 143991, Control_c, 0, 64, 17
1, 144016, Note_off_c, 0, 66, 45
1, 144021, Control_c, 0, 64, 0
1, 144022, Note_off_c, 0, 78, 58
1, 144024, Note_on_c, 0, 76, 70
1, 144036, Note_on_c, 0, 70, 56
1, 144178, Note_off_c, 0, 76, 56
1, 144182, Note_off_c, 0, 70, 55
1, 144194, Note_on_c, 0, 75, 69
1, 144200, Note_on_c, 0, 78, 62
1, 144258, Control_c, 0, 64, 20
1, 144272, Control_c, 0, 64, 25
1, 144287, Control_c, 0, 64, 29
1, 144302, Control_c, 0, 64, 31
1, 144331, Control_c, 0, 64, 32
1, 144343, Note_off_c, 0, 75, 59
1, 144345, Note_on_c, 0, 73, 67
1, 144361, Control_c, 0, 64, 32
1, 144376, Control_c, 0, 67, 26
1, 144406, Control_c, 0, 67, 27
1, 144510, Control_c, 0, 67, 27
1, 144516, Note_on_c, 0, 75, 62
1, 144539, Control_c, 0, 67, 28
1, 144540, Note_off_c, 0, 73, 49
1, 144569, Control_c, 0, 67, 28
1, 144584, Control_c, 0, 67, 29
1, 144596, Note_off_c, 0, 78, 33
1, 144613, Control_c, 0, 67, 29
1, 144628, Control_c, 0, 67, 30
1, 144642, Control_c, 0, 67, 30
1, 144650, Note_on_c, 0, 52, 68
1, 144657, Control_c, 0, 64, 32
1, 144672, Control_c, 0, 67, 31
1, 144703, Control_c, 0, 64, 31
1, 144725, Control_c, 0, 64, 31
1, 144732, Note_off_c, 0, 75, 58
1, 144740, Control_c, 0, 64, 29
1, 144754, Control_c, 0, 64, 27
1, 144769, Control_c, 0, 64, 25
1, 144784, Control_c, 0, 64, 19
1, 144799, Control_c, 0, 64, 0
1, 144799, Control_c, 0, 67, 30
1, 144823, Note_on_c, 0, 51, 66
1, 144837, Note_on_c, 0, 78, 63
1, 144838, Note_on_c, 0, 75, 60
1, 144844, Control_c, 0, 67, 30
1, 144861, Note_off_c, 0, 52, 38
1, 144874, Control_c, 0, 67, 29
1, 144918, Control_c, 0, 67, 29
1, 144962, Control_c, 0, 67, 28
1, 144971, Note_on_c, 0, 49, 70
1, 144991, Note_off_c, 0, 51, 55
1, 145021, Control_c, 0, 67, 28
1, 145028, Note_off_c, 0, 78, 46
1, 145029, Note_off_c, 0, 75, 46
1, 145065, Control_c, 0, 67, 27
1, 145095, Control_c, 0, 67, 27
1, 145139, Note_on_c, 0, 48, 67
1, 145139, Note_on_c, 0, 75, 56
1, 145139, Control_c, 0, 67, 26
1, 145147, Note_on_c, 0, 78, 59
1, 145148, Note_off_c, 0, 49, 62
1, 145169, Control_c, 0, 67, 26
1, 145214, Control_c, 0, 67, 25
1, 145243, Control_c, 0, 67, 25
1, 145273, Control_c, 0, 67, 24
1, 145295, Note_on_c, 0, 49, 66
1, 145303, Control_c, 0, 67, 24
1, 145306, Note_off_c, 0, 48, 56
1, 145318, Control_c, 0, 67, 23
1, 145333, Control_c, 0, 67, 22
1, 145347, Control_c, 0, 67, 21
1, 145408, Note_off_c, 0, 49, 57
1, 145491, Note_on_c, 0, 51, 47
1, 145607, Note_off_c, 0, 78, 30
1, 145658, Note_off_c, 0, 75, 43
1, 145694, Control_c, 0, 67, 21
1, 145703, Note_off_c, 0, 51, 52
1, 145724, Control_c, 0, 67, 20
1, 145828, Control_c, 0, 67, 20
1, 145860, Note_on_c, 0, 75, 33
1, 145869, Note_on_c, 0, 44, 37
1, 145878, Note_on_c, 0, 78, 42
1, 145961, Control_c, 0, 67, 19
1, 145976, Control_c, 0, 67, 19
1, 145991, Control_c, 0, 67, 17
1, 146035, Control_c, 0, 67, 0
1, 146096, Note_off_c, 0, 75, 40
1, 146096, Note_off_c, 0, 78, 45
1, 146102, Note_off_c, 0, 44, 35
1, 146230, Note_on_c, 0, 78, 52
1, 146233, Note_on_c, 0, 75, 45
1, 146250, Note_on_c, 0, 49, 36
1, 146551, Note_on_c, 0, 76, 58
1, 146587, Note_off_c, 0, 75, 41
1, 146693, Note_on_c, 0, 75, 66
1, 146698, Note_on_c, 0, 51, 53
1, 146728, Note_off_c, 0, 76, 38
1, 146738, Note_off_c, 0, 49, 48
1, 146843, Note_on_c, 0, 73, 67
1, 146855, Note_off_c, 0, 51, 53
1, 146861, Note_off_c, 0, 75, 34
1, 146862, Note_on_c, 0, 52, 61
1, 146873, Control_c, 0, 64, 26
1, 146888, Control_c, 0, 64, 42
1, 146903, Control_c, 0, 64, 51
1, 146917, Control_c, 0, 64, 54
1, 146932, Control_c, 0, 64, 55
1, 146947, Control_c, 0, 64, 56
1, 146969, Control_c, 0, 64, 58
1, 146984, Control_c, 0, 64, 60
1, 146990, Note_off_c, 0, 52, 57
1, 146998, Note_on_c, 0, 72, 64
1, 146999, Control_c, 0, 64, 61
1, 147002, Note_off_c, 0, 73, 55
1, 147014, Control_c, 0, 64, 62
1, 147017, Note_on_c, 0, 56, 62
1, 147029, Control_c, 0, 64, 63
1, 147044, Control_c, 0, 64, 63
1, 147104, Control_c, 0, 64, 62
1, 147119, Control_c, 0, 64, 59
1, 147134, Control_c, 0, 64, 53
1, 147141, Note_off_c, 0, 56, 36
1, 147148, Control_c, 0, 64, 44
1, 147155, Note_off_c, 0, 78, 39
1, 147163, Control_c, 0, 64, 37
1, 147169, Note_off_c, 0, 72, 47
1, 147171, Note_on_c, 0, 76, 65
1, 147178, Note_on_c, 0, 73, 53
1, 147178, Control_c, 0, 64, 31
1, 147180, Note_on_c, 0, 61, 53
1, 147193, Control_c, 0, 64, 23
1, 147208, Control_c, 0, 64, 16
1, 147252, Control_c, 0, 64, 0
1, 147310, Note_off_c, 0, 61, 59
1, 147319, Note_on_c, 0, 60, 65
1, 147440, Note_off_c, 0, 60, 52
1, 147491, Note_on_c, 0, 61, 63
1, 147496, Note_on_c, 0, 78, 69
1, 147509, Note_on_c, 0, 75, 55
1, 147533, Note_off_c, 0, 76, 35
1, 147577, Note_off_c, 0, 73, 34
1, 147593, Control_c, 0, 64, 32
1, 147608, Control_c, 0, 64, 49
1, 147622, Control_c, 0, 64, 58
1, 147637, Control_c, 0, 64, 61
1, 147652, Control_c, 0, 64, 62
1, 147667, Control_c, 0, 64, 64
1, 147670, Note_off_c, 0, 75, 0
1, 147682, Control_c, 0, 64, 65
1, 147697, Control_c, 0, 64, 66
1, 147707, Poly_aftertouch_c, 0, 75, 127
1, 147708, Note_off_c, 0, 78, 56
1, 147719, Control_c, 0, 64, 67
1, 147734, Control_c, 0, 64, 68
1, 147741, Note_off_c, 0, 61, 56
1, 147747, Control_c, 0, 64, 68
1, 147762, Control_c, 0, 64, 69
1, 147792, Control_c, 0, 64, 69
1, 147807, Control_c, 0, 64, 70
1, 147819, Poly_aftertouch_c, 0, 75, 0
1, 147822, Control_c, 0, 64, 70
1, 147843, Note_on_c, 0, 80, 68
1, 147847, Note_on_c, 0, 61, 74
1, 147849, Note_on_c, 0, 76, 63
1, 147866, Control_c, 0, 64, 68
1, 147881, Control_c, 0, 64, 63
1, 147896, Control_c, 0, 64, 55
1, 147911, Control_c, 0, 64, 48
1, 147926, Control_c, 0, 64, 44
1, 147941, Control_c, 0, 64, 42
1, 147956, Control_c, 0, 64, 42
1, 147986, Control_c, 0, 64, 44
1, 148001, Control_c, 0, 64, 53
1, 148016, Control_c, 0, 64, 61
1, 148030, Control_c, 0, 64, 65
1, 148045, Control_c, 0, 64, 66
1, 148060, Control_c, 0, 64, 67
1, 148075, Control_c, 0, 64, 67
1, 148089, Control_c, 0, 64, 68
1, 148095, Note_off_c, 0, 61, 60
1, 148104, Control_c, 0, 64, 70
1, 148119, Control_c, 0, 64, 70
1, 148147, Note_on_c, 0, 58, 22
1, 148176, Note_on_c, 0, 73, 66
1, 148188, Note_on_c, 0, 70, 54
1, 148193, Control_c, 0, 64, 69
1, 148196, Note_on_c, 0, 61, 72
1, 148197, Note_off_c, 0, 58, 45
1, 148208, Control_c, 0, 64, 65
1, 148215, Note_off_c, 0, 76, 32
1, 148223, Control_c, 0, 64, 59
1, 148237, Control_c, 0, 64, 49
1, 148252, Control_c, 0, 64, 42
1, 148267, Control_c, 0, 64, 38
1, 148282, Control_c, 0, 64, 35
1, 148296, Control_c, 0, 64, 28
1, 148298, Note_off_c, 0, 80, 35
1, 148326, Control_c, 0, 64, 0
1, 148404, Note_off_c, 0, 70, 35
1, 148514, Note_on_c, 0, 75, 57
1, 148516, Note_off_c, 0, 73, 54
1, 148522, Note_on_c, 0, 71, 58
1, 148697, Note_off_c, 0, 61, 55
1, 148835, Note_on_c, 0, 61, 55
1, 148845, Note_on_c, 0, 76, 62
1, 148853, Control_c, 0, 64, 24
1, 148859, Note_on_c, 0, 73, 50
1, 148865, Note_off_c, 0, 71, 40
1, 148868, Control_c, 0, 64, 34
1, 148874, Note_off_c, 0, 75, 55
1, 148883, Control_c, 0, 64, 43
1, 148898, Control_c, 0, 64, 49
1, 148912, Control_c, 0, 64, 56
1, 148927, Control_c, 0, 64, 60
1, 148942, Control_c, 0, 64, 62
1, 148957, Control_c, 0, 64, 63
1, 148972, Control_c, 0, 64, 65
1, 148986, Note_off_c, 0, 76, 60
1, 148986, Control_c, 0, 64, 66
1, 148992, Note_off_c, 0, 73, 54
1, 149001, Control_c, 0, 64, 68
1, 149016, Control_c, 0, 64, 70
1, 149030, Control_c, 0, 64, 72
1, 149041, Note_off_c, 0, 61, 59
1, 149045, Control_c, 0, 64, 73
1, 149060, Control_c, 0, 64, 74
1, 149075, Control_c, 0, 64, 74
1, 149164, Control_c, 0, 64, 74
1, 149174, Note_on_c, 0, 61, 50
1, 149175, Note_on_c, 0, 71, 59
1, 149179, Control_c, 0, 64, 71
1, 149191, Note_on_c, 0, 68, 42
1, 149193, Control_c, 0, 64, 67
1, 149216, Control_c, 0, 64, 61
1, 149231, Control_c, 0, 64, 54
1, 149245, Control_c, 0, 64, 50
1, 149260, Control_c, 0, 64, 45
1, 149275, Control_c, 0, 64, 40
1, 149290, Control_c, 0, 64, 32
1, 149305, Control_c, 0, 64, 23
1, 149319, Control_c, 0, 64, 16
1, 149344, Note_off_c, 0, 68, 0
1, 149364, Control_c, 0, 64, 0
1, 149381, Poly_aftertouch_c, 0, 68, 127
1, 149487, Poly_aftertouch_c, 0, 68, 0
1, 149505, Note_on_c, 0, 70, 54
1, 149518, Note_on_c, 0, 63, 55
1, 149526, Note_on_c, 0, 67, 32
1, 149555, Note_off_c, 0, 61, 35
1, 149594, Note_off_c, 0, 67, 36
1, 149607, Note_off_c, 0, 71, 33
1, 149652, Note_on_c, 0, 61, 65
1, 149664, Note_off_c, 0, 63, 50
1, 149750, Note_off_c, 0, 61, 59
1, 149804, Note_off_c, 0, 70, 52
1, 149815, Note_on_c, 0, 63, 57
1, 149817, Note_on_c, 0, 59, 63
1, 149890, Note_off_c, 0, 59, 55
1, 149964, Note_on_c, 0, 58, 60
1, 150046, Note_off_c, 0, 63, 44
1, 150063, Note_off_c, 0, 58, 58
1, 150134, Note_on_c, 0, 75, 66
1, 150135, Note_on_c, 0, 59, 54
1, 150284, Note_on_c, 0, 73, 70
1, 150329, Note_off_c, 0, 59, 55
1, 150340, Note_off_c, 0, 75, 41
1, 150357, Note_off_c, 0, 73, 59
1, 150442, Note_on_c, 0, 75, 69
1, 150460, Note_on_c, 0, 59, 49
1, 150591, Note_off_c, 0, 59, 49
1, 150592, Note_on_c, 0, 58, 50
1, 150649, Note_off_c, 0, 58, 54
1, 150767, Note_on_c, 0, 63, 60
1, 150768, Note_on_c, 0, 59, 40
1, 150885, Note_off_c, 0, 59, 53
1, 150904, Note_off_c, 0, 63, 49
1, 151114, Note_on_c, 0, 68, 53
1, 151138, Note_on_c, 0, 59, 32
1, 151170, Note_off_c, 0, 59, 55
1, 151190, Note_on_c, 0, 58, 47
1, 151247, Note_off_c, 0, 58, 52
1, 151257, Note_on_c, 0, 59, 51
1, 151409, Note_off_c, 0, 75, 38
1, 151647, Note_on_c, 0, 75, 66
1, 151688, Note_off_c, 0, 59, 56
1, 151810, Note_on_c, 0, 59, 62
1, 151812, Note_on_c, 0, 77, 69
1, 151833, Note_off_c, 0, 75, 57
1, 151848, Control_c, 0, 64, 28
1, 151863, Control_c, 0, 64, 47
1, 151878, Control_c, 0, 64, 56
1, 151894, Control_c, 0, 64, 59
1, 151897, Note_off_c, 0, 68, 50
1, 151909, Control_c, 0, 64, 60
1, 151924, Control_c, 0, 64, 62
1, 151938, Control_c, 0, 64, 64
1, 151953, Control_c, 0, 64, 65
1, 151957, Note_on_c, 0, 78, 72
1, 151965, Note_off_c, 0, 77, 58
1, 151968, Control_c, 0, 64, 66
1, 151976, Note_off_c, 0, 59, 54
1, 151983, Control_c, 0, 64, 67
1, 151998, Control_c, 0, 64, 67
1, 152098, Note_off_c, 0, 78, 36
1, 152101, Control_c, 0, 64, 66
1, 152114, Note_on_c, 0, 77, 63
1, 152116, Control_c, 0, 64, 64
1, 152130, Control_c, 0, 64, 58
1, 152133, Note_on_c, 0, 59, 56
1, 152145, Control_c, 0, 64, 50
1, 152160, Control_c, 0, 64, 46
1, 152175, Control_c, 0, 64, 40
1, 152182, Note_on_c, 0, 78, 74
1, 152182, Note_off_c, 0, 77, 58
1, 152190, Control_c, 0, 64, 32
1, 152212, Control_c, 0, 64, 24
1, 152241, Control_c, 0, 64, 0
1, 152241, Control_c, 0, 67, 16
1, 152245, Note_off_c, 0, 78, 56
1, 152253, Note_on_c, 0, 77, 68
1, 152255, Control_c, 0, 67, 18
1, 152270, Control_c, 0, 67, 20
1, 152285, Control_c, 0, 67, 21
1, 152308, Note_on_c, 0, 78, 59
1, 152310, Note_off_c, 0, 77, 58
1, 152357, Note_off_c, 0, 78, 57
1, 152366, Note_on_c, 0, 77, 63
1, 152419, Note_on_c, 0, 78, 68
1, 152426, Note_off_c, 0, 77, 58
1, 152430, Note_off_c, 0, 59, 36
1, 152433, Note_on_c, 0, 61, 47
1, 152433, Control_c, 0, 67, 20
1, 152463, Control_c, 0, 67, 20
1, 152468, Note_off_c, 0, 78, 57
1, 152472, Note_on_c, 0, 77, 58
1, 152478, Control_c, 0, 67, 19
1, 152531, Note_on_c, 0, 78, 71
1, 152536, Note_off_c, 0, 77, 60
1, 152560, Note_on_c, 0, 59, 49
1, 152570, Note_off_c, 0, 61, 44
1, 152584, Note_off_c, 0, 78, 56
1, 152588, Note_on_c, 0, 77, 66
1, 152639, Note_on_c, 0, 78, 67
1, 152646, Note_off_c, 0, 77, 59
1, 152694, Note_off_c, 0, 78, 59
1, 152701, Control_c, 0, 67, 20
1, 152705, Note_on_c, 0, 77, 57
1, 152708, Note_off_c, 0, 59, 55
1, 152731, Control_c, 0, 67, 20
1, 152731, Note_on_c, 0, 57, 50
1, 152737, Note_on_c, 0, 78, 58
1, 152742, Note_off_c, 0, 77, 58
1, 152790, Control_c, 0, 67, 21
1, 152792, Note_on_c, 0, 77, 64
1, 152798, Note_off_c, 0, 78, 60
1, 152804, Control_c, 0, 67, 21
1, 152845, Note_off_c, 0, 77, 60
1, 152850, Note_on_c, 0, 75, 70
1, 152872, Note_off_c, 0, 57, 54
1, 152878, Control_c, 0, 67, 21
1, 152897, Note_on_c, 0, 56, 43
1, 152908, Control_c, 0, 67, 20
1, 152909, Note_off_c, 0, 75, 53
1, 152923, Control_c, 0, 67, 20
1, 152935, Note_on_c, 0, 77, 67
1, 152938, Control_c, 0, 67, 19
1, 152960, Control_c, 0, 67, 17
1, 152975, Control_c, 0, 67, 16
1, 153000, Note_off_c, 0, 77, 55
1, 153010, Note_on_c, 0, 78, 74
1, 153026, Note_off_c, 0, 56, 48
1, 153038, Note_on_c, 0, 61, 38
1, 153041, Note_on_c, 0, 57, 38
1, 153079, Control_c, 0, 67, 37
1, 153093, Control_c, 0, 67, 35
1, 153108, Control_c, 0, 67, 31
1, 153123, Control_c, 0, 67, 26
1, 153138, Control_c, 0, 67, 24
1, 153153, Control_c, 0, 67, 22
1, 153164, Note_off_c, 0, 57, 60
1, 153167, Control_c, 0, 67, 21
1, 153179, Note_on_c, 0, 54, 55
1, 153182, Control_c, 0, 67, 20
1, 153197, Control_c, 0, 67, 18
1, 153211, Control_c, 0, 67, 17
1, 153226, Control_c, 0, 67, 17
1, 153241, Control_c, 0, 67, 16
1, 153256, Control_c, 0, 67, 16
1, 153271, Note_off_c, 0, 61, 28
1, 153326, Note_on_c, 0, 56, 56
1, 153327, Note_off_c, 0, 54, 57
1, 153475, Note_off_c, 0, 56, 54
1, 153480, Note_on_c, 0, 76, 76
1, 153491, Note_on_c, 0, 57, 61
1, 153518, Note_off_c, 0, 78, 55
1, 153621, Note_off_c, 0, 57, 58
1, 153635, Note_on_c, 0, 74, 84
1, 153650, Note_on_c, 0, 59, 61
1, 153666, Note_off_c, 0, 76, 36
1, 153785, Note_on_c, 0, 61, 66
1, 153793, Note_off_c, 0, 59, 51
1, 153795, Note_on_c, 0, 73, 85
1, 153804, Note_off_c, 0, 74, 55
1, 153843, Control_c, 0, 67, 0
1, 153891, Note_off_c, 0, 61, 53
1, 153958, Note_on_c, 0, 62, 64
1, 153961, Note_on_c, 0, 71, 78
1, 153974, Note_off_c, 0, 73, 61
1, 154096, Note_on_c, 0, 61, 59
1, 154126, Note_off_c, 0, 62, 54
1, 154201, Note_off_c, 0, 61, 51
1, 154261, Note_on_c, 0, 62, 70
1, 154415, Note_on_c, 0, 69, 71
1, 154457, Note_off_c, 0, 71, 55
1, 154498, Note_off_c, 0, 62, 51
1, 154596, Note_on_c, 0, 59, 70
1, 154597, Note_on_c, 0, 68, 73
1, 154628, Note_off_c, 0, 69, 36
1, 154651, Control_c, 0, 67, 18
1, 154666, Control_c, 0, 67, 24
1, 154681, Control_c, 0, 67, 31
1, 154696, Control_c, 0, 67, 34
1, 154711, Control_c, 0, 67, 35
1, 154726, Control_c, 0, 67, 35
1, 154740, Control_c, 0, 67, 34
1, 154748, Note_on_c, 0, 66, 75
1, 154748, Note_off_c, 0, 68, 54
1, 154755, Control_c, 0, 67, 32
1, 154807, Note_off_c, 0, 59, 59
1, 154881, Note_off_c, 0, 66, 53
1, 154888, Control_c, 0, 67, 33
1, 154918, Control_c, 0, 67, 33
1, 154932, Control_c, 0, 67, 34
1, 154947, Control_c, 0, 67, 35
1, 154954, Note_on_c, 0, 68, 67
1, 154962, Control_c, 0, 67, 36
1, 154972, Note_on_c, 0, 54, 60
1, 154976, Control_c, 0, 67, 38
1, 154991, Control_c, 0, 67, 41
1, 155006, Control_c, 0, 67, 45
1, 155021, Control_c, 0, 67, 50
1, 155036, Control_c, 0, 67, 54
1, 155051, Control_c, 0, 67, 58
1, 155065, Control_c, 0, 67, 61
1, 155081, Control_c, 0, 67, 63
1, 155096, Control_c, 0, 67, 64
1, 155185, Control_c, 0, 67, 63
1, 155207, Control_c, 0, 67, 62
1, 155222, Control_c, 0, 67, 61
1, 155237, Control_c, 0, 67, 61
1, 155252, Control_c, 0, 67, 60
1, 155261, Note_on_c, 0, 53, 59
1, 155267, Control_c, 0, 67, 59
1, 155281, Control_c, 0, 67, 57
1, 155296, Control_c, 0, 67, 55
1, 155311, Control_c, 0, 67, 53
1, 155326, Control_c, 0, 67, 52
1, 155341, Control_c, 0, 67, 51
1, 155343, Note_off_c, 0, 54, 32
1, 155355, Control_c, 0, 67, 49
1, 155370, Control_c, 0, 67, 47
1, 155385, Control_c, 0, 67, 43
1, 155399, Note_off_c, 0, 53, 37
1, 155400, Control_c, 0, 67, 37
1, 155405, Note_on_c, 0, 49, 54
1, 155414, Control_c, 0, 67, 33
1, 155429, Control_c, 0, 67, 29
1, 155444, Control_c, 0, 67, 37
1, 155459, Control_c, 0, 67, 35
1, 155474, Control_c, 0, 67, 34
1, 155489, Control_c, 0, 67, 34
1, 155504, Control_c, 0, 67, 33
1, 155504, Note_off_c, 0, 49, 55
1, 155519, Control_c, 0, 67, 32
1, 155533, Control_c, 0, 67, 32
1, 155548, Control_c, 0, 67, 31
1, 155554, Note_on_c, 0, 73, 64
1, 155565, Note_on_c, 0, 51, 56
1, 155578, Control_c, 0, 67, 31
1, 155631, Note_off_c, 0, 68, 36
1, 155650, Note_off_c, 0, 51, 49
1, 155652, Control_c, 0, 67, 30
1, 155667, Control_c, 0, 67, 30
1, 155681, Control_c, 0, 67, 29
1, 155699, Note_on_c, 0, 53, 56
1, 155711, Control_c, 0, 67, 29
1, 155741, Note_on_c, 0, 71, 48
1, 155770, Control_c, 0, 67, 28
1, 155797, Note_off_c, 0, 53, 45
1, 155799, Control_c, 0, 67, 28
1, 155803, Note_off_c, 0, 71, 49
1, 155829, Control_c, 0, 67, 27
1, 155844, Control_c, 0, 67, 27
1, 155859, Control_c, 0, 67, 26
1, 155875, Control_c, 0, 67, 26
1, 155878, Note_on_c, 0, 54, 60
1, 155888, Note_on_c, 0, 71, 70
1, 155904, Control_c, 0, 67, 25
1, 155934, Control_c, 0, 67, 25
1, 155954, Note_off_c, 0, 73, 59
1, 155972, Control_c, 0, 67, 24
1, 156044, Control_c, 0, 67, 24
1, 156118, Control_c, 0, 67, 23
1, 156133, Control_c, 0, 67, 23
1, 156162, Control_c, 0, 67, 22
1, 156192, Control_c, 0, 67, 22
1, 156222, Control_c, 0, 67, 21
1, 156225, Note_on_c, 0, 57, 44
1, 156238, Note_off_c, 0, 54, 51
1, 156295, Note_off_c, 0, 57, 43
1, 156371, Note_on_c, 0, 56, 45
1, 156400, Control_c, 0, 67, 22
1, 156415, Control_c, 0, 67, 22
1, 156424, Note_off_c, 0, 56, 57
1, 156429, Control_c, 0, 67, 23
1, 156444, Control_c, 0, 67, 23
1, 156459, Control_c, 0, 67, 24
1, 156474, Control_c, 0, 67, 25
1, 156489, Control_c, 0, 67, 25
1, 156503, Control_c, 0, 67, 26
1, 156515, Note_on_c, 0, 54, 51
1, 156518, Control_c, 0, 67, 27
1, 156533, Control_c, 0, 67, 28
1, 156547, Control_c, 0, 67, 28
1, 156562, Control_c, 0, 67, 29
1, 156577, Control_c, 0, 67, 29
1, 156592, Control_c, 0, 67, 30
1, 156607, Control_c, 0, 67, 31
1, 156613, Note_off_c, 0, 54, 36
1, 156621, Control_c, 0, 67, 31
1, 156636, Control_c, 0, 67, 32
1, 156651, Control_c, 0, 67, 32
1, 156658, Note_on_c, 0, 52, 52
1, 156666, Control_c, 0, 67, 33
1, 156682, Control_c, 0, 67, 33
1, 156705, Control_c, 0, 67, 34
1, 156720, Control_c, 0, 67, 34
1, 156729, Note_off_c, 0, 52, 47
1, 156750, Control_c, 0, 67, 35
1, 156765, Control_c, 0, 67, 36
1, 156779, Control_c, 0, 67, 36
1, 156794, Control_c, 0, 67, 37
1, 156839, Note_on_c, 0, 66, 41
1, 156841, Note_on_c, 0, 69, 51
1, 156842, Note_off_c, 0, 71, 54
1, 156861, Note_on_c, 0, 51, 36
1, 156949, Note_off_c, 0, 69, 57
1, 156962, Note_on_c, 0, 71, 54
1, 157012, Note_off_c, 0, 71, 59
1, 157022, Note_on_c, 0, 69, 45
1, 157031, Control_c, 0, 67, 36
1, 157076, Note_off_c, 0, 69, 62
1, 157086, Note_on_c, 0, 71, 57
1, 157090, Control_c, 0, 67, 36
1, 157105, Control_c, 0, 67, 35
1, 157107, Note_on_c, 0, 52, 45
1, 157120, Control_c, 0, 67, 35
1, 157139, Note_off_c, 0, 71, 63
1, 157144, Note_on_c, 0, 69, 59
1, 157148, Note_off_c, 0, 51, 35
1, 157191, Note_off_c, 0, 52, 49
1, 157198, Note_off_c, 0, 69, 63
1, 157208, Note_on_c, 0, 71, 56
1, 157254, Note_on_c, 0, 69, 58
1, 157258, Note_off_c, 0, 71, 61
1, 157312, Note_off_c, 0, 69, 62
1, 157316, Note_on_c, 0, 71, 48
1, 157371, Control_c, 0, 67, 35
1, 157372, Note_off_c, 0, 66, 42
1, 157373, Note_on_c, 0, 49, 52
1, 157377, Note_on_c, 0, 69, 56
1, 157379, Note_off_c, 0, 71, 59
1, 157461, Note_off_c, 0, 49, 44
1, 157498, Note_off_c, 0, 69, 62
1, 157522, Note_on_c, 0, 68, 51
1, 157562, Note_off_c, 0, 68, 59
1, 157574, Note_on_c, 0, 69, 53
1, 157650, Note_off_c, 0, 69, 59
1, 157651, Note_on_c, 0, 68, 48
1, 157663, Note_on_c, 0, 48, 43
1, 157790, Note_off_c, 0, 48, 48
1, 157805, Note_on_c, 0, 49, 47
1, 157839, Control_c, 0, 67, 35
1, 157854, Control_c, 0, 67, 34
1, 157869, Control_c, 0, 67, 32
1, 157874, Note_off_c, 0, 49, 51
1, 157883, Control_c, 0, 67, 31
1, 157898, Control_c, 0, 67, 29
1, 157913, Control_c, 0, 67, 28
1, 157927, Control_c, 0, 67, 27
1, 157942, Control_c, 0, 67, 26
1, 157957, Control_c, 0, 67, 25
1, 157972, Note_on_c, 0, 51, 42
1, 157972, Control_c, 0, 67, 25
1, 157987, Control_c, 0, 67, 24
1, 158002, Control_c, 0, 67, 23
1, 158017, Control_c, 0, 67, 19
1, 158061, Control_c, 0, 67, 0
1, 158090, Note_off_c, 0, 51, 47
1, 158115, Note_off_c, 0, 68, 37
1, 158301, Note_on_c, 0, 68, 66
1, 158319, Note_on_c, 0, 44, 42
1, 158459, Note_off_c, 0, 68, 57
1, 158472, Note_off_c, 0, 44, 35
1, 158590, Note_on_c, 0, 66, 63
1, 158620, Note_on_c, 0, 49, 43
1, 158622, Note_off_c, 0, 66, 62
1, 158630, Note_on_c, 0, 64, 65
1, 158657, Note_off_c, 0, 64, 65
1, 158672, Note_on_c, 0, 66, 59
1, 158728, Note_on_c, 0, 64, 71
1, 158740, Note_off_c, 0, 66, 60
1, 158868, Note_off_c, 0, 49, 45
1, 158902, Note_on_c, 0, 52, 60
1, 159043, Note_off_c, 0, 52, 50
1, 159225, Note_on_c, 0, 68, 65
1, 159238, Note_on_c, 0, 51, 51
1, 159330, Note_off_c, 0, 51, 50
1, 159360, Note_off_c, 0, 68, 48
1, 159559, Note_on_c, 0, 52, 51
1, 159560, Note_on_c, 0, 73, 75
1, 159889, Note_on_c, 0, 63, 78
1, 159894, Note_on_c, 0, 54, 58
1, 159939, Note_off_c, 0, 52, 53
1, 159981, Note_off_c, 0, 54, 56
1, 160016, Note_off_c, 0, 64, 46
1, 160217, Note_on_c, 0, 56, 53
1, 160218, Note_on_c, 0, 64, 79
1, 160312, Note_off_c, 0, 63, 36
1, 160362, Note_off_c, 0, 56, 54
1, 160472, Note_off_c, 0, 64, 57
1, 160536, Note_on_c, 0, 64, 66
1, 160552, Note_on_c, 0, 57, 51
1, 160854, Note_on_c, 0, 63, 60
1, 160874, Note_on_c, 0, 59, 38
1, 160908, Note_off_c, 0, 64, 35
1, 160947, Note_off_c, 0, 57, 39
1, 161003, Note_off_c, 0, 59, 48
1, 161192, Note_on_c, 0, 56, 56
1, 161361, Note_off_c, 0, 56, 51
1, 161531, Note_on_c, 0, 54, 57
1, 161535, Note_on_c, 0, 72, 79
1, 161579, Note_off_c, 0, 73, 61
1, 161848, Note_off_c, 0, 54, 59
1, 161855, Note_on_c, 0, 56, 62
1, 162065, Note_off_c, 0, 63, 47
1, 162075, Note_off_c, 0, 56, 35
1, 162187, Note_on_c, 0, 64, 77
1, 162191, Note_on_c, 0, 73, 80
1, 162208, Note_on_c, 0, 52, 51
1, 162270, Note_off_c, 0, 72, 35
1, 162385, Note_off_c, 0, 73, 60
1, 162390, Note_off_c, 0, 52, 58
1, 162404, Note_off_c, 0, 64, 52
1, 162536, Note_on_c, 0, 66, 76
1, 162542, Note_on_c, 0, 75, 73
1, 162557, Note_on_c, 0, 51, 56
1, 162618, Note_on_c, 0, 64, 78
1, 162623, Note_off_c, 0, 66, 61
1, 162706, Note_on_c, 0, 52, 60
1, 162708, Note_on_c, 0, 66, 76
1, 162717, Note_off_c, 0, 51, 54
1, 162721, Note_off_c, 0, 64, 58
1, 162859, Note_on_c, 0, 54, 71
1, 162859, Note_off_c, 0, 52, 59
1, 163020, Note_off_c, 0, 54, 58
1, 163227, Note_on_c, 0, 51, 73
1, 163428, Note_off_c, 0, 51, 60
1, 163687, Note_on_c, 0, 44, 74
1, 164028, Note_on_c, 0, 69, 74
1, 164068, Note_off_c, 0, 66, 60
1, 164351, Note_on_c, 0, 68, 78
1, 164351, Note_on_c, 0, 76, 75
1, 164364, Note_off_c, 0, 69, 58
1, 164398, Note_off_c, 0, 75, 58
1, 164610, Note_off_c, 0, 68, 48
1, 164626, Note_off_c, 0, 76, 34
1, 164682, Note_on_c, 0, 76, 67
1, 164687, Note_on_c, 0, 68, 71
1, 164980, Note_off_c, 0, 68, 56
1, 165013, Note_on_c, 0, 78, 61
1, 165016, Note_on_c, 0, 69, 57
1, 165041, Note_off_c, 0, 44, 60
1, 165060, Note_off_c, 0, 76, 35
1, 165323, Note_on_c, 0, 60, 60
1, 165444, Control_c, 0, 67, 17
1, 165460, Control_c, 0, 67, 21
1, 165475, Control_c, 0, 67, 26
1, 165490, Control_c, 0, 67, 30
1, 165505, Control_c, 0, 67, 34
1, 165519, Control_c, 0, 67, 37
1, 165534, Control_c, 0, 67, 39
1, 165535, Note_off_c, 0, 60, 54
1, 165564, Control_c, 0, 67, 37
1, 165579, Control_c, 0, 67, 36
1, 165608, Control_c, 0, 67, 36
1, 165623, Control_c, 0, 67, 35
1, 165638, Control_c, 0, 67, 34
1, 165652, Control_c, 0, 67, 33
1, 165667, Control_c, 0, 67, 32
1, 165670, Note_on_c, 0, 60, 58
1, 165689, Control_c, 0, 67, 31
1, 165704, Control_c, 0, 67, 30
1, 165719, Control_c, 0, 67, 30
1, 165734, Control_c, 0, 67, 29
1, 165749, Control_c, 0, 67, 29
1, 165956, Control_c, 0, 67, 29
1, 165971, Control_c, 0, 67, 30
1, 165978, Note_off_c, 0, 69, 53
1, 165986, Control_c, 0, 67, 32
1, 166001, Control_c, 0, 67, 33
1, 166004, Note_on_c, 0, 61, 51
1, 166015, Control_c, 0, 67, 34
1, 166045, Control_c, 0, 67, 34
1, 166073, Note_off_c, 0, 60, 33
1, 166328, Note_on_c, 0, 75, 62
1, 166333, Note_on_c, 0, 66, 53
1, 166439, Note_off_c, 0, 78, 40
1, 166453, Control_c, 0, 67, 35
1, 166557, Note_off_c, 0, 75, 60
1, 166588, Note_off_c, 0, 66, 40
1, 166671, Note_on_c, 0, 76, 63
1, 166678, Note_on_c, 0, 68, 57
1, 166764, Control_c, 0, 67, 34
1, 166794, Control_c, 0, 67, 34
1, 166808, Control_c, 0, 67, 33
1, 166823, Control_c, 0, 67, 31
1, 166838, Control_c, 0, 67, 29
1, 166853, Control_c, 0, 67, 27
1, 166868, Control_c, 0, 67, 36
1, 166882, Control_c, 0, 67, 32
1, 166897, Control_c, 0, 67, 28
1, 166912, Control_c, 0, 67, 24
1, 166927, Control_c, 0, 67, 21
1, 166942, Control_c, 0, 67, 19
1, 166956, Control_c, 0, 67, 17
1, 166971, Control_c, 0, 67, 16
1, 166981, Note_on_c, 0, 59, 62
1, 167068, Note_off_c, 0, 61, 32
1, 167150, Control_c, 0, 67, 0
1, 167188, Note_off_c, 0, 59, 57
1, 167314, Note_on_c, 0, 69, 72
1, 167332, Note_off_c, 0, 68, 58
1, 167338, Note_on_c, 0, 57, 46
1, 167571, Note_off_c, 0, 57, 36
1, 167674, Note_on_c, 0, 77, 64
1, 167677, Note_on_c, 0, 71, 66
1, 167685, Note_on_c, 0, 56, 47
1, 167710, Note_off_c, 0, 76, 55
1, 167733, Note_off_c, 0, 69, 38
1, 168019, Note_on_c, 0, 69, 62
1, 168029, Note_off_c, 0, 71, 56
1, 168040, Control_c, 0, 67, 17
1, 168055, Control_c, 0, 67, 20
1, 168069, Control_c, 0, 67, 24
1, 168084, Control_c, 0, 67, 27
1, 168099, Control_c, 0, 67, 30
1, 168114, Control_c, 0, 67, 32
1, 168129, Control_c, 0, 67, 33
1, 168178, Note_off_c, 0, 56, 37
1, 168188, Control_c, 0, 67, 34
1, 168189, Note_off_c, 0, 69, 50
1, 168203, Control_c, 0, 67, 34
1, 168217, Control_c, 0, 67, 35
1, 168232, Control_c, 0, 67, 36
1, 168247, Control_c, 0, 67, 37
1, 168262, Control_c, 0, 67, 38
1, 168277, Control_c, 0, 67, 40
1, 168292, Control_c, 0, 67, 43
1, 168307, Control_c, 0, 67, 45
1, 168321, Control_c, 0, 67, 47
1, 168336, Control_c, 0, 67, 49
1, 168339, Note_on_c, 0, 68, 52
1, 168341, Note_on_c, 0, 61, 33
1, 168351, Control_c, 0, 67, 49
1, 168465, Note_off_c, 0, 77, 42
1, 168476, Note_off_c, 0, 61, 46
1, 168484, Control_c, 0, 67, 50
1, 168514, Control_c, 0, 67, 50
1, 168518, Note_off_c, 0, 68, 59
1, 168543, Control_c, 0, 67, 51
1, 168558, Control_c, 0, 67, 51
1, 168573, Control_c, 0, 67, 52
1, 168587, Control_c, 0, 67, 52
1, 168602, Control_c, 0, 67, 53
1, 168617, Control_c, 0, 67, 54
1, 168632, Control_c, 0, 67, 54
1, 168650, Note_on_c, 0, 78, 67
1, 168653, Note_on_c, 0, 54, 38
1, 168659, Note_on_c, 0, 70, 48
1, 168663, Control_c, 0, 67, 55
1, 168685, Control_c, 0, 67, 56
1, 168700, Control_c, 0, 67, 57
1, 168715, Control_c, 0, 67, 58
1, 168727, Note_off_c, 0, 54, 52
1, 168730, Control_c, 0, 67, 58
1, 168745, Control_c, 0, 67, 59
1, 168759, Control_c, 0, 67, 61
1, 168760, Note_on_c, 0, 56, 33
1, 168774, Control_c, 0, 67, 62
1, 168789, Control_c, 0, 67, 64
1, 168804, Control_c, 0, 67, 66
1, 168818, Control_c, 0, 67, 67
1, 168829, Note_off_c, 0, 56, 55
1, 168833, Control_c, 0, 67, 68
1, 168847, Note_on_c, 0, 54, 41
1, 168848, Control_c, 0, 67, 69
1, 168863, Control_c, 0, 67, 71
1, 168878, Control_c, 0, 67, 72
1, 168892, Control_c, 0, 67, 74
1, 168896, Note_off_c, 0, 54, 60
1, 168907, Control_c, 0, 67, 75
1, 168920, Note_on_c, 0, 56, 33
1, 168922, Control_c, 0, 67, 76
1, 168937, Control_c, 0, 67, 77
1, 168952, Control_c, 0, 67, 77
1, 168966, Control_c, 0, 67, 78
1, 168967, Note_off_c, 0, 56, 60
1, 168973, Note_on_c, 0, 73, 65
1, 168999, Note_on_c, 0, 54, 44
1, 169007, Note_off_c, 0, 70, 53
1, 169043, Note_off_c, 0, 54, 61
1, 169073, Note_on_c, 0, 56, 39
1, 169078, Note_off_c, 0, 73, 53
1, 169107, Note_off_c, 0, 56, 56
1, 169132, Note_on_c, 0, 54, 45
1, 169171, Note_off_c, 0, 54, 57
1, 169213, Note_on_c, 0, 56, 39
1, 169249, Note_off_c, 0, 56, 49
1, 169267, Note_on_c, 0, 54, 45
1, 169277, Note_on_c, 0, 72, 77
1, 169322, Control_c, 0, 67, 78
1, 169337, Control_c, 0, 67, 79
1, 169351, Control_c, 0, 67, 81
1, 169366, Control_c, 0, 67, 84
1, 169377, Note_off_c, 0, 54, 51
1, 169381, Control_c, 0, 67, 87
1, 169396, Control_c, 0, 67, 91
1, 169401, Note_on_c, 0, 53, 45
1, 169410, Control_c, 0, 67, 93
1, 169411, Note_off_c, 0, 78, 45
1, 169433, Control_c, 0, 67, 95
1, 169448, Control_c, 0, 67, 97
1, 169464, Control_c, 0, 67, 99
1, 169472, Note_off_c, 0, 72, 36
1, 169479, Control_c, 0, 67, 100
1, 169502, Note_on_c, 0, 54, 51
1, 169508, Control_c, 0, 67, 100
1, 169510, Note_off_c, 0, 53, 51
1, 169581, Note_off_c, 0, 54, 54
1, 169591, Note_on_c, 0, 76, 79
1, 169594, Note_on_c, 0, 73, 70
1, 169594, Note_on_c, 0, 55, 50
1, 169672, Control_c, 0, 67, 100
1, 169696, Note_on_c, 0, 56, 45
1, 169743, Note_off_c, 0, 55, 0
1, 169746, Control_c, 0, 67, 99
1, 169760, Note_off_c, 0, 56, 54
1, 169761, Note_on_c, 0, 55, 28
1, 169846, Note_off_c, 0, 55, 54
1, 169859, Note_on_c, 0, 56, 44
1, 169904, Note_on_c, 0, 72, 85
1, 169904, Note_off_c, 0, 56, 57
1, 169916, Note_on_c, 0, 55, 39
1, 169921, Note_off_c, 0, 73, 63
1, 169979, Note_off_c, 0, 55, 55
1, 169994, Note_on_c, 0, 56, 49
1, 170012, Control_c, 0, 67, 100
1, 170023, Note_off_c, 0, 72, 61
1, 170037, Note_off_c, 0, 56, 62
1, 170045, Note_on_c, 0, 55, 45
1, 170121, Note_off_c, 0, 55, 57
1, 170146, Note_on_c, 0, 56, 43
1, 170182, Note_off_c, 0, 56, 55
1, 170190, Note_on_c, 0, 55, 44
1, 170226, Note_on_c, 0, 70, 80
1, 170249, Note_off_c, 0, 55, 56
1, 170257, Control_c, 0, 67, 99
1, 170265, Note_on_c, 0, 56, 54
1, 170296, Note_off_c, 0, 56, 54
1, 170301, Note_on_c, 0, 55, 33
1, 170378, Note_off_c, 0, 70, 58
1, 170382, Note_off_c, 0, 55, 58
1, 170392, Note_on_c, 0, 53, 55
1, 170456, Note_on_c, 0, 55, 54
1, 170471, Note_off_c, 0, 53, 53
1, 170538, Note_on_c, 0, 72, 76
1, 170538, Note_on_c, 0, 75, 83
1, 170554, Note_off_c, 0, 55, 60
1, 170560, Note_on_c, 0, 56, 69
1, 170578, Note_off_c, 0, 76, 60
1, 170687, Control_c, 0, 67, 99
1, 170702, Control_c, 0, 67, 98
1, 170717, Control_c, 0, 67, 98
1, 170731, Control_c, 0, 67, 97
1, 170761, Control_c, 0, 67, 97
1, 170775, Control_c, 0, 67, 96
1, 170849, Control_c, 0, 67, 95
1, 170907, Note_on_c, 0, 78, 83
1, 170931, Control_c, 0, 67, 95
1, 170946, Control_c, 0, 67, 94
1, 170963, Note_off_c, 0, 75, 55
1, 171189, Note_off_c, 0, 72, 55
1, 171198, Control_c, 0, 67, 95
1, 171235, Note_on_c, 0, 73, 70
1, 171240, Note_on_c, 0, 76, 85
1, 171243, Control_c, 0, 67, 95
1, 171252, Note_off_c, 0, 78, 55
1, 171264, Note_on_c, 0, 75, 21
1, 171272, Control_c, 0, 67, 96
1, 171302, Control_c, 0, 67, 96
1, 171316, Note_off_c, 0, 75, 27
1, 171435, Control_c, 0, 67, 96
1, 171450, Control_c, 0, 67, 95
1, 171465, Control_c, 0, 67, 95
1, 171479, Control_c, 0, 67, 94
1, 171494, Control_c, 0, 67, 93
1, 171509, Control_c, 0, 67, 93
1, 171524, Control_c, 0, 67, 92
1, 171539, Control_c, 0, 67, 91
1, 171553, Note_on_c, 0, 78, 79
1, 171553, Note_off_c, 0, 76, 56
1, 171553, Control_c, 0, 67, 90
1, 171565, Note_on_c, 0, 75, 71
1, 171568, Control_c, 0, 67, 89
1, 171583, Control_c, 0, 67, 87
1, 171598, Control_c, 0, 67, 84
1, 171606, Note_off_c, 0, 73, 62
1, 171612, Control_c, 0, 67, 81
1, 171627, Control_c, 0, 67, 77
1, 171642, Control_c, 0, 67, 72
1, 171657, Control_c, 0, 67, 66
1, 171679, Control_c, 0, 67, 61
1, 171694, Control_c, 0, 67, 56
1, 171709, Control_c, 0, 67, 52
1, 171719, Note_on_c, 0, 80, 81
1, 171724, Control_c, 0, 67, 51
1, 171739, Control_c, 0, 67, 49
1, 171753, Control_c, 0, 67, 48
1, 171768, Control_c, 0, 67, 46
1, 171783, Control_c, 0, 67, 45
1, 171792, Note_off_c, 0, 78, 43
1, 171798, Control_c, 0, 67, 45
1, 171812, Control_c, 0, 67, 44
1, 171845, Note_off_c, 0, 80, 60
1, 171873, Control_c, 0, 67, 44
1, 171899, Note_on_c, 0, 81, 84
1, 171917, Control_c, 0, 67, 43
1, 171932, Control_c, 0, 67, 43
1, 171947, Control_c, 0, 67, 42
1, 171962, Control_c, 0, 67, 42
1, 171976, Control_c, 0, 67, 41
1, 171991, Control_c, 0, 67, 38
1, 172006, Control_c, 0, 67, 35
1, 172021, Control_c, 0, 67, 29
1, 172036, Control_c, 0, 67, 22
1, 172066, Control_c, 0, 67, 0
1, 172282, Note_on_c, 0, 80, 78
1, 172289, Note_on_c, 0, 72, 67
1, 172293, Note_on_c, 0, 44, 63
1, 172297, Note_off_c, 0, 75, 59
1, 172319, Note_off_c, 0, 81, 62
1, 172357, Note_off_c, 0, 56, 49
1, 172679, Note_on_c, 0, 78, 79
1, 172680, Note_on_c, 0, 73, 69
1, 172690, Note_on_c, 0, 45, 69
1, 172694, Note_off_c, 0, 72, 36
1, 172718, Note_off_c, 0, 80, 59
1, 172732, Note_off_c, 0, 44, 57
1, 173019, Note_on_c, 0, 76, 74
1, 173050, Note_off_c, 0, 78, 61
1, 173104, Note_off_c, 0, 73, 59
1, 173401, Note_on_c, 0, 75, 74
1, 173419, Note_on_c, 0, 42, 64
1, 173428, Note_on_c, 0, 67, 52
1, 173428, Note_off_c, 0, 76, 58
1, 173466, Note_off_c, 0, 45, 53
1, 173533, Control_c, 0, 64, 22
1, 173547, Control_c, 0, 64, 45
1, 173562, Control_c, 0, 64, 53
1, 173577, Control_c, 0, 64, 57
1, 173592, Control_c, 0, 64, 59
1, 173605, Note_off_c, 0, 75, 61
1, 173607, Control_c, 0, 64, 61
1, 173607, Control_c, 0, 67, 21
1, 173622, Control_c, 0, 64, 62
1, 173622, Control_c, 0, 67, 26
1, 173636, Control_c, 0, 64, 63
1, 173636, Control_c, 0, 67, 31
1, 173639, Note_off_c, 0, 67, 49
1, 173651, Control_c, 0, 64, 64
1, 173651, Control_c, 0, 67, 35
1, 173666, Control_c, 0, 64, 66
1, 173666, Control_c, 0, 67, 39
1, 173681, Control_c, 0, 64, 67
1, 173681, Control_c, 0, 67, 42
1, 173696, Control_c, 0, 64, 68
1, 173696, Control_c, 0, 67, 46
1, 173711, Control_c, 0, 64, 70
1, 173711, Control_c, 0, 67, 49
1, 173726, Control_c, 0, 64, 70
1, 173726, Control_c, 0, 67, 52
1, 173741, Control_c, 0, 64, 71
1, 173741, Control_c, 0, 67, 53
1, 173755, Control_c, 0, 67, 53
1, 173765, Poly_aftertouch_c, 0, 70, 127
1, 173785, Control_c, 0, 64, 71
1, 173858, Note_on_c, 0, 73, 80
1, 173859, Control_c, 0, 64, 69
1, 173866, Note_on_c, 0, 44, 68
1, 173873, Control_c, 0, 64, 63
1, 173875, Note_on_c, 0, 64, 55
1, 173888, Control_c, 0, 64, 51
1, 173903, Control_c, 0, 64, 42
1, 173911, Note_off_c, 0, 42, 60
1, 173925, Control_c, 0, 64, 27
1, 173940, Control_c, 0, 64, 0
1, 173942, Poly_aftertouch_c, 0, 70, 0
1, 173955, Control_c, 0, 67, 53
1, 173985, Control_c, 0, 67, 52
1, 174029, Control_c, 0, 67, 52
1, 174044, Control_c, 0, 67, 53
1, 174059, Control_c, 0, 67, 54
1, 174118, Control_c, 0, 67, 53
1, 174132, Control_c, 0, 67, 53
1, 174147, Control_c, 0, 67, 52
1, 174162, Control_c, 0, 67, 51
1, 174177, Control_c, 0, 67, 50
1, 174192, Control_c, 0, 67, 49
1, 174206, Control_c, 0, 67, 47
1, 174221, Control_c, 0, 67, 46
1, 174236, Control_c, 0, 67, 45
1, 174252, Control_c, 0, 67, 44
1, 174267, Control_c, 0, 67, 43
1, 174282, Control_c, 0, 67, 40
1, 174296, Control_c, 0, 67, 37
1, 174311, Control_c, 0, 67, 32
1, 174326, Control_c, 0, 67, 25
1, 174341, Control_c, 0, 67, 33
1, 174355, Control_c, 0, 67, 29
1, 174370, Control_c, 0, 67, 26
1, 174385, Control_c, 0, 67, 24
1, 174400, Control_c, 0, 67, 23
1, 174415, Control_c, 0, 67, 22
1, 174429, Control_c, 0, 67, 20
1, 174444, Control_c, 0, 67, 19
1, 174459, Control_c, 0, 67, 19
1, 174474, Control_c, 0, 67, 18
1, 174489, Control_c, 0, 67, 18
1, 174504, Control_c, 0, 67, 17
1, 174534, Control_c, 0, 67, 17
1, 174563, Control_c, 0, 67, 16
1, 174593, Control_c, 0, 67, 16
1, 174692, Note_on_c, 0, 55, 72
1, 174763, Control_c, 0, 64, 32
1, 174778, Control_c, 0, 64, 49
1, 174783, Note_off_c, 0, 44, 47
1, 174793, Control_c, 0, 64, 59
1, 174808, Control_c, 0, 64, 61
1, 174822, Control_c, 0, 64, 62
1, 174837, Control_c, 0, 64, 64
1, 174852, Control_c, 0, 64, 65
1, 174867, Control_c, 0, 64, 67
1, 174868, Note_off_c, 0, 64, 35
1, 174882, Control_c, 0, 64, 69
1, 174894, Note_off_c, 0, 73, 56
1, 174896, Control_c, 0, 64, 70
1, 174911, Control_c, 0, 64, 72
1, 174926, Control_c, 0, 64, 73
1, 174941, Control_c, 0, 64, 74
1, 175090, Control_c, 0, 67, 16
1, 175105, Control_c, 0, 67, 17
1, 175119, Control_c, 0, 67, 17
1, 175134, Control_c, 0, 67, 18
1, 175164, Control_c, 0, 67, 19
1, 175178, Control_c, 0, 67, 20
1, 175182, Note_on_c, 0, 73, 73
1, 175186, Note_on_c, 0, 63, 66
1, 175193, Control_c, 0, 64, 73
1, 175193, Control_c, 0, 67, 20
1, 175198, Note_on_c, 0, 56, 54
1, 175208, Control_c, 0, 64, 71
1, 175208, Control_c, 0, 67, 22
1, 175223, Control_c, 0, 64, 65
1, 175223, Control_c, 0, 67, 22
1, 175238, Control_c, 0, 64, 58
1, 175238, Control_c, 0, 67, 24
1, 175252, Control_c, 0, 64, 49
1, 175252, Control_c, 0, 67, 24
1, 175265, Note_off_c, 0, 55, 53
1, 175267, Control_c, 0, 64, 42
1, 175267, Control_c, 0, 67, 25
1, 175282, Control_c, 0, 64, 37
1, 175282, Control_c, 0, 67, 25
1, 175297, Control_c, 0, 64, 29
1, 175297, Control_c, 0, 67, 26
1, 175312, Control_c, 0, 64, 20
1, 175312, Control_c, 0, 67, 26
1, 175327, Control_c, 0, 64, 0
1, 175342, Note_on_c, 0, 72, 70
1, 175351, Note_off_c, 0, 73, 60
1, 175356, Control_c, 0, 67, 27
1, 175423, Control_c, 0, 67, 26
1, 175429, Note_on_c, 0, 73, 61
1, 175429, Note_off_c, 0, 72, 61
1, 175452, Control_c, 0, 67, 26
1, 175485, Note_on_c, 0, 72, 52
1, 175494, Note_off_c, 0, 73, 61
1, 175512, Control_c, 0, 67, 25
1, 175558, Note_off_c, 0, 72, 0
1, 175562, Note_on_c, 0, 73, 60
1, 175577, Note_on_c, 0, 72, 28
1, 175586, Control_c, 0, 67, 25
1, 175614, Note_off_c, 0, 73, 61
1, 175631, Control_c, 0, 67, 24
1, 175675, Control_c, 0, 67, 24
1, 175778, Control_c, 0, 67, 23
1, 175839, Control_c, 0, 67, 23
1, 175883, Control_c, 0, 67, 22
1, 176075, Control_c, 0, 64, 16
1, 176202, Control_c, 0, 64, 16
1, 176241, Note_off_c, 0, 63, 48
1, 176278, Note_on_c, 0, 73, 66
1, 176283, Note_on_c, 0, 64, 47
1, 176292, Note_on_c, 0, 44, 45
1, 176325, Note_off_c, 0, 72, 37
1, 176365, Control_c, 0, 64, 17
1, 176380, Control_c, 0, 64, 23
1, 176394, Control_c, 0, 64, 35
1, 176409, Control_c, 0, 64, 47
1, 176412, Note_off_c, 0, 56, 36
1, 176424, Control_c, 0, 64, 57
1, 176439, Control_c, 0, 64, 60
1, 176454, Control_c, 0, 64, 61
1, 176468, Control_c, 0, 64, 62
1, 176483, Control_c, 0, 64, 64
1, 176498, Control_c, 0, 64, 65
1, 176513, Control_c, 0, 64, 67
1, 176528, Control_c, 0, 64, 69
1, 176543, Control_c, 0, 64, 71
1, 176558, Control_c, 0, 64, 74
1, 176558, Control_c, 0, 67, 22
1, 176573, Control_c, 0, 64, 76
1, 176588, Control_c, 0, 64, 78
1, 176602, Control_c, 0, 64, 80
1, 176617, Note_off_c, 0, 64, 40
1, 176617, Control_c, 0, 64, 82
1, 176618, Note_off_c, 0, 73, 54
1, 176632, Control_c, 0, 64, 84
1, 176647, Control_c, 0, 64, 85
1, 176662, Control_c, 0, 64, 86
1, 176677, Control_c, 0, 64, 88
1, 176692, Control_c, 0, 64, 88
1, 176707, Control_c, 0, 64, 89
1, 176722, Control_c, 0, 64, 90
1, 176796, Control_c, 0, 67, 22
1, 176855, Control_c, 0, 67, 23
1, 176870, Control_c, 0, 67, 23
1, 176899, Control_c, 0, 67, 24
1, 176950, Control_c, 0, 67, 24
1, 176980, Control_c, 0, 67, 25
1, 177054, Control_c, 0, 67, 25
1, 177069, Control_c, 0, 64, 88
1, 177084, Control_c, 0, 64, 84
1, 177084, Control_c, 0, 67, 26
1, 177092, Note_on_c, 0, 73, 62
1, 177097, Note_on_c, 0, 64, 43
1, 177098, Control_c, 0, 64, 78
1, 177107, Note_on_c, 0, 61, 46
1, 177112, Note_on_c, 0, 68, 43
1, 177113, Control_c, 0, 64, 72
1, 177118, Note_on_c, 0, 49, 37
1, 177121, Note_on_c, 0, 37, 34
1, 177128, Control_c, 0, 64, 68
1, 177128, Control_c, 0, 67, 26
1, 177142, Control_c, 0, 64, 67
1, 177157, Control_c, 0, 64, 65
1, 177157, Control_c, 0, 67, 27
1, 177172, Control_c, 0, 64, 62
1, 177187, Control_c, 0, 64, 56
1, 177202, Control_c, 0, 64, 49
1, 177202, Control_c, 0, 67, 27
1, 177217, Control_c, 0, 64, 44
1, 177219, Note_off_c, 0, 44, 52
1, 177231, Control_c, 0, 64, 37
1, 177231, Control_c, 0, 67, 28
1, 177246, Control_c, 0, 64, 25
1, 177261, Control_c, 0, 64, 0
1, 177440, Control_c, 0, 67, 28
1, 177500, Control_c, 0, 67, 29
1, 177529, Control_c, 0, 67, 29
1, 177559, Control_c, 0, 67, 30
1, 177573, Control_c, 0, 67, 31
1, 177588, Control_c, 0, 67, 32
1, 177603, Control_c, 0, 67, 33
1, 177618, Control_c, 0, 67, 34
1, 177633, Control_c, 0, 67, 35
1, 177647, Control_c, 0, 67, 35
1, 177670, Control_c, 0, 67, 36
1, 177685, Control_c, 0, 67, 36
1, 177699, Control_c, 0, 67, 37
1, 177906, Control_c, 0, 67, 36
1, 178263, Control_c, 0, 64, 23
1, 178278, Control_c, 0, 64, 29
1, 178293, Control_c, 0, 64, 32
1, 178308, Control_c, 0, 64, 32
1, 178396, Control_c, 0, 67, 37
1, 178418, Control_c, 0, 64, 33
1, 178433, Control_c, 0, 64, 33
1, 178448, Control_c, 0, 64, 34
1, 178463, Control_c, 0, 64, 34
1, 178507, Control_c, 0, 64, 35
1, 178537, Control_c, 0, 64, 35
1, 178552, Control_c, 0, 64, 36
1, 178567, Control_c, 0, 64, 36
1, 178818, Control_c, 0, 64, 37
1, 178877, Control_c, 0, 67, 37
1, 178981, Control_c, 0, 67, 38
1, 179011, Control_c, 0, 67, 39
1, 179026, Control_c, 0, 67, 40
1, 179041, Control_c, 0, 67, 41
1, 179056, Control_c, 0, 67, 42
1, 179145, Control_c, 0, 64, 37
1, 179509, Control_c, 0, 64, 38
1, 179660, Note_off_c, 0, 64, 24
1, 179678, Note_off_c, 0, 73, 26
1, 179700, Note_off_c, 0, 61, 30
1, 179745, Control_c, 0, 64, 38
1, 179770, Note_off_c, 0, 37, 35
1, 179770, Note_off_c, 0, 68, 33
1, 179783, Note_off_c, 0, 49, 33
1, 179805, Control_c, 0, 67, 41
1, 179865, Control_c, 0, 67, 41
1, 179894, Control_c, 0, 67, 40
1, 179976, Control_c, 0, 67, 40
1, 180065, Control_c, 0, 64, 39
1, 180272, Control_c, 0, 64, 39
1, 180406, Control_c, 0, 64, 40
1, 180554, Control_c, 0, 67, 41
1, 180568, Control_c, 0, 67, 41
1, 180583, Control_c, 0, 67, 42
1, 180665, Control_c, 0, 64, 40
1, 180740, Control_c, 0, 64, 41
1, 180770, Control_c, 0, 64, 41
1, 180799, Control_c, 0, 67, 41
1, 180814, Control_c, 0, 64, 42
1, 180873, Control_c, 0, 64, 42
1, 180932, Control_c, 0, 64, 43
1, 181480, Note_on_c, 0, 49, 56
1, 181518, Control_c, 0, 64, 42
1, 181532, Control_c, 0, 64, 39
1, 181547, Control_c, 0, 64, 34
1, 181549, Note_off_c, 0, 49, 57
1, 181562, Control_c, 0, 64, 27
1, 181562, Control_c, 0, 67, 42
1, 181568, Note_on_c, 0, 48, 48
1, 181577, Control_c, 0, 64, 20
1, 181607, Control_c, 0, 64, 0
1, 181624, Note_off_c, 0, 48, 58
1, 181652, Note_on_c, 0, 49, 56
1, 181705, Note_off_c, 0, 49, 59
1, 181710, Control_c, 0, 67, 42
1, 181736, Note_on_c, 0, 51, 60
1, 181799, Note_off_c, 0, 51, 57
1, 181829, Note_on_c, 0, 49, 55
1, 181873, Control_c, 0, 67, 43
1, 181885, Note_off_c, 0, 49, 58
1, 181921, Note_on_c, 0, 51, 54
1, 181965, Note_off_c, 0, 51, 60
1, 182019, Note_on_c, 0, 44, 53
1, 182095, Control_c, 0, 67, 43
1, 182097, Note_off_c, 0, 44, 57
1, 182113, Note_on_c, 0, 46, 50
1, 182177, Note_off_c, 0, 46, 56
1, 182204, Note_on_c, 0, 48, 54
1, 182264, Note_off_c, 0, 48, 54
1, 182287, Note_on_c, 0, 49, 57
1, 182355, Control_c, 0, 67, 44
1, 182382, Note_on_c, 0, 51, 58
1, 182385, Note_off_c, 0, 49, 57
1, 182448, Note_off_c, 0, 51, 58
1, 182469, Note_on_c, 0, 52, 61
1, 182503, Control_c, 0, 67, 44
1, 182543, Note_off_c, 0, 52, 54
1, 182555, Note_on_c, 0, 54, 61
1, 182642, Note_off_c, 0, 54, 62
1, 182665, Note_on_c, 0, 52, 60
1, 182723, Note_off_c, 0, 52, 56
1, 182740, Control_c, 0, 67, 45
1, 182749, Note_on_c, 0, 54, 65
1, 182796, Note_off_c, 0, 54, 59
1, 182838, Note_on_c, 0, 51, 59
1, 182910, Control_c, 0, 67, 44
1, 182914, Note_off_c, 0, 51, 56
1, 182925, Control_c, 0, 67, 44
1, 182932, Note_on_c, 0, 56, 57
1, 182941, Control_c, 0, 67, 43
1, 182956, Control_c, 0, 67, 42
1, 182970, Control_c, 0, 67, 40
1, 182985, Control_c, 0, 67, 39
1, 183000, Control_c, 0, 67, 38
1, 183006, Note_off_c, 0, 56, 58
1, 183014, Control_c, 0, 67, 37
1, 183022, Note_on_c, 0, 54, 55
1, 183029, Control_c, 0, 67, 36
1, 183046, Control_c, 0, 67, 35
1, 183060, Control_c, 0, 67, 35
1, 183075, Control_c, 0, 67, 34
1, 183090, Control_c, 0, 67, 34
1, 183094, Note_off_c, 0, 54, 58
1, 183111, Note_on_c, 0, 68, 62
1, 183113, Note_on_c, 0, 52, 55
1, 183119, Control_c, 0, 67, 33
1, 183149, Control_c, 0, 67, 33
1, 183172, Note_off_c, 0, 52, 53
1, 183179, Control_c, 0, 67, 32
1, 183189, Note_on_c, 0, 51, 49
1, 183189, Note_off_c, 0, 68, 57
1, 183190, Note_on_c, 0, 67, 64
1, 183208, Control_c, 0, 67, 32
1, 183223, Control_c, 0, 67, 31
1, 183238, Note_off_c, 0, 67, 56
1, 183238, Control_c, 0, 67, 31
1, 183253, Control_c, 0, 67, 30
1, 183261, Note_off_c, 0, 51, 51
1, 183268, Control_c, 0, 67, 30
1, 183283, Control_c, 0, 67, 29
1, 183283, Note_on_c, 0, 52, 60
1, 183295, Note_on_c, 0, 68, 68
1, 183298, Control_c, 0, 67, 28
1, 183312, Control_c, 0, 67, 26
1, 183327, Control_c, 0, 67, 25
1, 183342, Control_c, 0, 67, 24
1, 183353, Note_off_c, 0, 52, 49
1, 183357, Control_c, 0, 67, 22
1, 183368, Note_off_c, 0, 68, 46
1, 183372, Control_c, 0, 67, 19
1, 183379, Note_on_c, 0, 49, 58
1, 183382, Note_on_c, 0, 70, 74
1, 183386, Control_c, 0, 67, 17
1, 183445, Control_c, 0, 67, 0
1, 183471, Note_on_c, 0, 68, 69
1, 183474, Note_off_c, 0, 70, 58
1, 183560, Note_off_c, 0, 68, 56
1, 183567, Note_on_c, 0, 70, 72
1, 183630, Note_off_c, 0, 70, 59
1, 183661, Note_on_c, 0, 63, 74
1, 183715, Note_off_c, 0, 63, 58
1, 183761, Note_on_c, 0, 65, 70
1, 183827, Note_off_c, 0, 49, 53
1, 183843, Note_off_c, 0, 65, 62
1, 183858, Note_on_c, 0, 67, 76
1, 183927, Note_off_c, 0, 67, 55
1, 183928, Note_on_c, 0, 47, 50
1, 183941, Note_on_c, 0, 68, 78
1, 184034, Note_on_c, 0, 70, 76
1, 184046, Note_off_c, 0, 68, 56
1, 184096, Note_off_c, 0, 70, 60
1, 184115, Note_on_c, 0, 71, 69
1, 184117, Note_off_c, 0, 47, 50
1, 184207, Note_off_c, 0, 71, 58
1, 184222, Note_on_c, 0, 73, 81
1, 184236, Note_on_c, 0, 46, 53
1, 184314, Note_on_c, 0, 71, 82
1, 184319, Note_off_c, 0, 73, 53
1, 184332, Note_off_c, 0, 46, 54
1, 184389, Note_off_c, 0, 71, 54
1, 184415, Note_on_c, 0, 73, 82
1, 184517, Note_on_c, 0, 70, 73
1, 184525, Note_off_c, 0, 73, 36
1, 184535, Note_on_c, 0, 55, 48
1, 184612, Note_on_c, 0, 75, 70
1, 184621, Note_off_c, 0, 70, 53
1, 184621, Note_off_c, 0, 55, 55
1, 184702, Note_off_c, 0, 75, 61
1, 184704, Note_on_c, 0, 73, 72
1, 184803, Note_on_c, 0, 71, 72
1, 184815, Note_on_c, 0, 44, 51
1, 184822, Note_off_c, 0, 73, 33
1, 184863, Note_off_c, 0, 44, 61
1, 184900, Note_off_c, 0, 71, 62
1, 184911, Note_on_c, 0, 70, 61
1, 184980, Note_off_c, 0, 70, 56
1, 185000, Note_on_c, 0, 71, 63
1, 185060, Note_off_c, 0, 71, 52
1, 185103, Note_on_c, 0, 68, 71
1, 185111, Note_on_c, 0, 52, 54
1, 185211, Note_on_c, 0, 73, 62
1, 185215, Note_off_c, 0, 68, 55
1, 185290, Note_off_c, 0, 73, 62
1, 185295, Note_on_c, 0, 71, 61
1, 185393, Note_off_c, 0, 71, 57
1, 185408, Note_on_c, 0, 69, 62
1, 185504, Note_off_c, 0, 69, 56
1, 185508, Note_on_c, 0, 68, 56
1, 185593, Note_off_c, 0, 52, 40
1, 185595, Note_off_c, 0, 68, 55
1, 185611, Note_on_c, 0, 69, 56
1, 185649, Note_off_c, 0, 69, 61
1, 185694, Note_on_c, 0, 66, 64
1, 185697, Note_on_c, 0, 51, 53
1, 185739, Note_off_c, 0, 66, 57
1, 185792, Note_on_c, 0, 71, 54
1, 185821, Note_off_c, 0, 51, 41
1, 185873, Note_on_c, 0, 69, 61
1, 185873, Note_off_c, 0, 71, 54
1, 185904, Note_off_c, 0, 69, 63
1, 185985, Note_on_c, 0, 68, 66
1, 185990, Note_on_c, 0, 61, 66
1, 185998, Note_on_c, 0, 52, 51
1, 186059, Note_off_c, 0, 61, 58
1, 186078, Note_on_c, 0, 60, 67
1, 186102, Note_off_c, 0, 68, 46
1, 186117, Note_off_c, 0, 52, 35
1, 186162, Note_off_c, 0, 60, 34
1, 186170, Note_on_c, 0, 61, 67
1, 186240, Note_off_c, 0, 61, 52
1, 186266, Note_on_c, 0, 63, 73
1, 186266, Note_on_c, 0, 66, 69
1, 186273, Note_on_c, 0, 48, 56
1, 186344, Note_off_c, 0, 48, 56
1, 186355, Note_off_c, 0, 63, 62
1, 186360, Note_on_c, 0, 61, 63
1, 186460, Note_on_c, 0, 63, 61
1, 186469, Note_off_c, 0, 61, 40
1, 186523, Note_off_c, 0, 63, 55
1, 186556, Note_on_c, 0, 49, 62
1, 186559, Note_on_c, 0, 56, 69
1, 186587, Note_off_c, 0, 49, 65
1, 186617, Note_off_c, 0, 56, 56
1, 186654, Note_on_c, 0, 58, 60
1, 186726, Note_off_c, 0, 58, 60
1, 186756, Note_on_c, 0, 60, 62
1, 186791, Note_off_c, 0, 60, 57
1, 186797, Note_off_c, 0, 66, 50
1, 186860, Note_on_c, 0, 61, 74
1, 186860, Note_on_c, 0, 64, 78
1, 186952, Note_off_c, 0, 64, 59
1, 186952, Note_on_c, 0, 63, 70
1, 187036, Note_off_c, 0, 63, 59
1, 187042, Note_on_c, 0, 64, 74
1, 187103, Note_off_c, 0, 64, 58
1, 187143, Note_on_c, 0, 66, 71
1, 187229, Note_on_c, 0, 64, 72
1, 187238, Note_off_c, 0, 66, 56
1, 187333, Note_off_c, 0, 64, 34
1, 187344, Note_on_c, 0, 66, 64
1, 187370, Note_off_c, 0, 66, 65
1, 187375, Note_off_c, 0, 61, 35
1, 187437, Note_on_c, 0, 75, 78
1, 187444, Note_on_c, 0, 63, 67
1, 187454, Note_on_c, 0, 60, 52
1, 187537, Note_on_c, 0, 68, 64
1, 187545, Note_off_c, 0, 75, 53
1, 187557, Note_off_c, 0, 63, 36
1, 187621, Note_on_c, 0, 66, 67
1, 187631, Note_off_c, 0, 68, 52
1, 187648, Note_off_c, 0, 60, 34
1, 187691, Note_off_c, 0, 66, 60
1, 187728, Note_on_c, 0, 64, 68
1, 187733, Note_on_c, 0, 68, 76
1, 187752, Note_on_c, 0, 61, 56
1, 187826, Note_off_c, 0, 64, 34
1, 187843, Note_on_c, 0, 63, 64
1, 187929, Note_on_c, 0, 64, 67
1, 187939, Note_off_c, 0, 63, 60
1, 187947, Note_off_c, 0, 61, 52
1, 187948, Note_off_c, 0, 68, 33
1, 187979, Note_off_c, 0, 64, 60
1, 188039, Note_on_c, 0, 69, 69
1, 188052, Note_on_c, 0, 54, 55
1, 188055, Note_on_c, 0, 61, 58
1, 188108, Note_off_c, 0, 61, 53
1, 188157, Note_on_c, 0, 66, 56
1, 188216, Note_off_c, 0, 54, 42
1, 188232, Note_on_c, 0, 64, 63
1, 188300, Note_off_c, 0, 66, 38
1, 188338, Note_off_c, 0, 64, 60
1, 188341, Note_on_c, 0, 59, 52
1, 188346, Note_on_c, 0, 63, 65
1, 188431, Note_off_c, 0, 63, 60
1, 188445, Note_on_c, 0, 61, 54
1, 188481, Note_off_c, 0, 59, 36
1, 188528, Note_off_c, 0, 61, 55
1, 188539, Note_on_c, 0, 63, 61
1, 188541, Note_off_c, 0, 69, 40
1, 188605, Note_off_c, 0, 63, 58
1, 188633, Note_on_c, 0, 68, 63
1, 188636, Note_on_c, 0, 59, 49
1, 188648, Note_on_c, 0, 52, 45
1, 188738, Note_off_c, 0, 59, 37
1, 188741, Note_on_c, 0, 64, 55
1, 188749, Note_off_c, 0, 52, 52
1, 188812, Note_off_c, 0, 64, 54
1, 188829, Note_on_c, 0, 63, 59
1, 188918, Note_off_c, 0, 63, 59
1, 188931, Note_on_c, 0, 61, 53
1, 188946, Note_on_c, 0, 57, 41
1, 189035, Note_on_c, 0, 63, 54
1, 189061, Note_off_c, 0, 61, 34
1, 189083, Note_off_c, 0, 68, 38
1, 189115, Note_on_c, 0, 64, 53
1, 189119, Note_off_c, 0, 63, 47
1, 189220, Note_on_c, 0, 66, 49
1, 189220, Note_off_c, 0, 64, 59
1, 189248, Note_on_c, 0, 63, 50
1, 189313, Note_off_c, 0, 63, 57
1, 189331, Note_on_c, 0, 64, 46
1, 189414, Note_off_c, 0, 64, 52
1, 189422, Note_on_c, 0, 61, 53
1, 189432, Note_off_c, 0, 66, 31
1, 189502, Note_off_c, 0, 61, 61
1, 189522, Note_off_c, 0, 57, 35
1, 189531, Note_on_c, 0, 60, 53
1, 189553, Note_on_c, 0, 56, 39
1, 189629, Note_on_c, 0, 68, 52
1, 189720, Note_on_c, 0, 69, 64
1, 189736, Note_off_c, 0, 68, 53
1, 189808, Note_off_c, 0, 69, 59
1, 189832, Note_on_c, 0, 68, 58
1, 189918, Note_on_c, 0, 69, 72
1, 189926, Note_off_c, 0, 68, 52
1, 190006, Note_off_c, 0, 69, 60
1, 190007, Note_on_c, 0, 66, 68
1, 190040, Note_off_c, 0, 60, 38
1, 190045, Note_off_c, 0, 56, 35
1, 190073, Note_off_c, 0, 66, 53
1, 190115, Note_on_c, 0, 64, 70
1, 190174, Note_on_c, 0, 54, 53
1, 190297, Note_off_c, 0, 54, 54
1, 190300, Note_on_c, 0, 56, 57
1, 190380, Note_off_c, 0, 56, 55
1, 190413, Note_on_c, 0, 61, 81
1, 190416, Note_on_c, 0, 52, 58
1, 190434, Note_off_c, 0, 64, 52
1, 190493, Note_off_c, 0, 52, 53
1, 190505, Note_on_c, 0, 57, 57
1, 190581, Note_off_c, 0, 57, 59
1, 190593, Note_on_c, 0, 56, 61
1, 190708, Note_on_c, 0, 54, 53
1, 190711, Note_off_c, 0, 56, 49
1, 190717, Note_on_c, 0, 63, 63
1, 190803, Note_off_c, 0, 54, 63
1, 190823, Note_on_c, 0, 52, 53
1, 190919, Note_off_c, 0, 52, 60
1, 190932, Note_on_c, 0, 54, 58
1, 191027, Note_on_c, 0, 60, 65
1, 191030, Note_off_c, 0, 63, 46
1, 191036, Note_off_c, 0, 54, 59
1, 191042, Note_off_c, 0, 61, 56
1, 191061, Note_on_c, 0, 51, 47
1, 191144, Note_on_c, 0, 56, 47
1, 191166, Note_off_c, 0, 60, 48
1, 191194, Note_off_c, 0, 51, 35
1, 191230, Note_off_c, 0, 56, 55
1, 191256, Note_on_c, 0, 54, 39
1, 191319, Note_off_c, 0, 54, 58
1, 191327, Note_on_c, 0, 68, 66
1, 191337, Note_on_c, 0, 61, 44
1, 191343, Note_on_c, 0, 52, 52
1, 191406, Note_off_c, 0, 52, 55
1, 191428, Note_on_c, 0, 66, 69
1, 191430, Note_on_c, 0, 51, 50
1, 191436, Note_off_c, 0, 68, 58
1, 191518, Note_off_c, 0, 51, 54
1, 191529, Note_on_c, 0, 52, 52
1, 191529, Note_on_c, 0, 68, 76
1, 191537, Note_off_c, 0, 66, 57
1, 191624, Note_off_c, 0, 52, 57
1, 191626, Note_on_c, 0, 64, 74
1, 191629, Note_on_c, 0, 49, 55
1, 191644, Note_off_c, 0, 68, 52
1, 191710, Note_on_c, 0, 54, 63
1, 191719, Note_on_c, 0, 69, 74
1, 191732, Note_off_c, 0, 64, 59
1, 191744, Note_off_c, 0, 49, 52
1, 191803, Note_off_c, 0, 54, 61
1, 191808, Note_on_c, 0, 52, 66
1, 191813, Note_on_c, 0, 68, 78
1, 191852, Note_off_c, 0, 69, 60
1, 191905, Note_off_c, 0, 61, 40
1, 191916, Note_on_c, 0, 66, 82
1, 191933, Note_off_c, 0, 52, 59
1, 191945, Note_on_c, 0, 51, 59
1, 191964, Note_off_c, 0, 68, 55
1, 192012, Note_on_c, 0, 64, 84
1, 192033, Note_off_c, 0, 66, 59
1, 192109, Note_off_c, 0, 51, 32
1, 192113, Note_on_c, 0, 66, 84
1, 192118, Note_off_c, 0, 64, 62
1, 192212, Note_on_c, 0, 63, 81
1, 192234, Note_on_c, 0, 59, 54
1, 192242, Note_off_c, 0, 66, 38
1, 192243, Note_on_c, 0, 56, 44
1, 192291, Note_off_c, 0, 56, 59
1, 192313, Note_on_c, 0, 68, 70
1, 192404, Note_on_c, 0, 66, 67
1, 192425, Note_off_c, 0, 63, 34
1, 192456, Note_off_c, 0, 68, 47
1, 192510, Note_on_c, 0, 65, 71
1, 192525, Note_on_c, 0, 49, 44
1, 192550, Note_off_c, 0, 66, 51
1, 192605, Note_on_c, 0, 63, 69
1, 192606, Note_off_c, 0, 65, 60
1, 192626, Note_off_c, 0, 59, 39
1, 192705, Note_on_c, 0, 61, 73
1, 192713, Note_off_c, 0, 63, 59
1, 192734, Note_off_c, 0, 61, 64
1, 192810, Note_on_c, 0, 57, 73
1, 192810, Note_on_c, 0, 66, 68
1, 192882, Note_off_c, 0, 49, 60
1, 192911, Note_on_c, 0, 56, 66
1, 192914, Note_off_c, 0, 57, 36
1, 192993, Note_off_c, 0, 56, 62
1, 192995, Note_on_c, 0, 54, 75
1, 193028, Note_off_c, 0, 54, 62
1, 193096, Note_on_c, 0, 56, 70
1, 193191, Note_on_c, 0, 47, 54
1, 193215, Note_off_c, 0, 66, 42
1, 193285, Note_off_c, 0, 47, 59
1, 193304, Note_on_c, 0, 49, 57
1, 193418, Note_off_c, 0, 49, 45
1, 193421, Note_on_c, 0, 64, 65
1, 193434, Note_on_c, 0, 44, 54
1, 193513, Note_off_c, 0, 44, 56
1, 193528, Note_on_c, 0, 49, 60
1, 193597, Note_off_c, 0, 49, 56
1, 193615, Note_on_c, 0, 47, 53
1, 193701, Note_off_c, 0, 47, 57
1, 193725, Note_on_c, 0, 46, 52
1, 193740, Note_on_c, 0, 54, 64
1, 193764, Note_off_c, 0, 56, 55
1, 193793, Note_off_c, 0, 46, 57
1, 193823, Note_on_c, 0, 44, 50
1, 193928, Note_on_c, 0, 42, 46
1, 193966, Note_off_c, 0, 44, 34
1, 194049, Note_on_c, 0, 63, 52
1, 194051, Note_on_c, 0, 47, 55
1, 194060, Note_off_c, 0, 42, 46
1, 194096, Note_off_c, 0, 64, 56
1, 194158, Note_on_c, 0, 61, 52
1, 194233, Note_off_c, 0, 63, 45
1, 194240, Note_off_c, 0, 54, 44
1, 194250, Note_on_c, 0, 59, 62
1, 194251, Note_off_c, 0, 61, 55
1, 194301, Note_off_c, 0, 59, 55
1, 194368, Note_on_c, 0, 61, 59
1, 194374, Note_on_c, 0, 52, 52
1, 194442, Note_off_c, 0, 52, 58
1, 194449, Note_on_c, 0, 51, 58
1, 194518, Note_off_c, 0, 51, 54
1, 194542, Note_on_c, 0, 52, 56
1, 194616, Note_off_c, 0, 52, 57
1, 194629, Note_on_c, 0, 49, 64
1, 194634, Note_off_c, 0, 47, 59
1, 194642, Note_on_c, 0, 45, 63
1, 194706, Note_off_c, 0, 49, 60
1, 194738, Note_on_c, 0, 54, 63
1, 194801, Note_off_c, 0, 54, 62
1, 194840, Note_on_c, 0, 52, 58
1, 194929, Note_off_c, 0, 52, 58
1, 194933, Note_on_c, 0, 51, 60
1, 194962, Note_on_c, 0, 59, 70
1, 194980, Note_off_c, 0, 61, 54
1, 195042, Note_on_c, 0, 49, 60
1, 195053, Note_off_c, 0, 51, 48
1, 195129, Note_off_c, 0, 49, 61
1, 195153, Note_on_c, 0, 47, 57
1, 195224, Note_off_c, 0, 47, 57
1, 195230, Note_off_c, 0, 45, 35
1, 195240, Note_on_c, 0, 44, 68
1, 195248, Note_on_c, 0, 52, 56
1, 195339, Note_off_c, 0, 44, 58
1, 195343, Note_on_c, 0, 42, 72
1, 195381, Control_c, 0, 67, 16
1, 195396, Control_c, 0, 67, 18
1, 195424, Note_off_c, 0, 42, 62
1, 195427, Note_on_c, 0, 40, 70
1, 195529, Control_c, 0, 67, 18
1, 195531, Note_on_c, 0, 42, 78
1, 195553, Note_on_c, 0, 57, 73
1, 195555, Note_off_c, 0, 59, 60
1, 195558, Control_c, 0, 67, 19
1, 195571, Note_off_c, 0, 40, 61
1, 195573, Control_c, 0, 67, 19
1, 195588, Control_c, 0, 67, 20
1, 195603, Control_c, 0, 67, 21
1, 195618, Control_c, 0, 67, 21
1, 195640, Control_c, 0, 67, 22
1, 195655, Control_c, 0, 67, 23
1, 195656, Note_on_c, 0, 56, 63
1, 195659, Note_off_c, 0, 57, 59
1, 195669, Control_c, 0, 67, 25
1, 195684, Control_c, 0, 67, 26
1, 195699, Control_c, 0, 67, 26
1, 195714, Control_c, 0, 67, 27
1, 195725, Note_off_c, 0, 52, 16
1, 195739, Note_off_c, 0, 42, 59
1, 195743, Note_off_c, 0, 56, 53
1, 195754, Note_on_c, 0, 57, 69
1, 195773, Control_c, 0, 67, 27
1, 195864, Note_on_c, 0, 54, 71
1, 195871, Note_on_c, 0, 47, 62
1, 195885, Note_off_c, 0, 57, 36
1, 195894, Note_on_c, 0, 51, 38
1, 195951, Note_off_c, 0, 54, 61
1, 195968, Note_on_c, 0, 59, 60
1, 196050, Note_off_c, 0, 47, 54
1, 196064, Note_on_c, 0, 57, 65
1, 196092, Note_off_c, 0, 51, 42
1, 196101, Note_off_c, 0, 59, 36
1, 196181, Note_on_c, 0, 40, 57
1, 196182, Note_on_c, 0, 56, 64
1, 196182, Note_off_c, 0, 57, 40
1, 196254, Poly_aftertouch_c, 0, 52, 127
1, 196279, Note_off_c, 0, 40, 46
1, 196282, Note_on_c, 0, 59, 63
1, 196291, Note_off_c, 0, 56, 53
1, 196307, Control_c, 0, 67, 28
1, 196308, Poly_aftertouch_c, 0, 52, 0
1, 196345, Poly_aftertouch_c, 0, 52, 127
1, 196396, Note_on_c, 0, 64, 71
1, 196399, Poly_aftertouch_c, 0, 52, 0
1, 196408, Note_off_c, 0, 59, 44
1, 196419, Control_c, 0, 67, 27
1, 196448, Control_c, 0, 67, 27
1, 196463, Control_c, 0, 67, 26
1, 196492, Control_c, 0, 67, 26
1, 196497, Note_on_c, 0, 54, 76
1, 196507, Control_c, 0, 67, 25
1, 196522, Control_c, 0, 67, 24
1, 196537, Control_c, 0, 67, 23
1, 196552, Control_c, 0, 67, 22
1, 196566, Control_c, 0, 67, 21
1, 196581, Control_c, 0, 67, 20
1, 196596, Control_c, 0, 67, 19
1, 196607, Note_on_c, 0, 63, 78
1, 196612, Control_c, 0, 67, 19
1, 196627, Control_c, 0, 67, 18
1, 196642, Control_c, 0, 67, 17
1, 196655, Note_off_c, 0, 64, 56
1, 196657, Control_c, 0, 67, 17
1, 196670, Note_off_c, 0, 54, 57
1, 196671, Control_c, 0, 67, 16
1, 196686, Control_c, 0, 67, 16
1, 196702, Note_on_c, 0, 61, 77
1, 196742, Note_off_c, 0, 63, 56
1, 196785, Note_off_c, 0, 61, 60
1, 196798, Note_on_c, 0, 56, 79
1, 196805, Note_on_c, 0, 59, 82
1, 196819, Control_c, 0, 67, 0
1, 196885, Note_off_c, 0, 59, 58
1, 196904, Note_on_c, 0, 64, 79
1, 197010, Note_off_c, 0, 56, 51
1, 197015, Note_on_c, 0, 68, 80
1, 197019, Note_off_c, 0, 64, 58
1, 197114, Note_on_c, 0, 58, 78
1, 197239, Note_on_c, 0, 66, 72
1, 197305, Note_off_c, 0, 58, 57
1, 197305, Note_off_c, 0, 68, 37
1, 197315, Note_on_c, 0, 64, 82
1, 197323, Note_off_c, 0, 66, 60
1, 197373, Note_off_c, 0, 64, 61
1, 197432, Note_on_c, 0, 63, 85
1, 197451, Note_on_c, 0, 47, 64
1, 197451, Note_on_c, 0, 59, 60
1, 197511, Note_off_c, 0, 59, 42
1, 197530, Note_on_c, 0, 45, 69
1, 197543, Note_off_c, 0, 47, 57
1, 197627, Note_off_c, 0, 45, 58
1, 197634, Note_on_c, 0, 47, 67
1, 197725, Note_off_c, 0, 47, 59
1, 197733, Note_on_c, 0, 49, 68
1, 197738, Note_on_c, 0, 65, 82
1, 197747, Note_off_c, 0, 63, 60
1, 197818, Note_off_c, 0, 49, 62
1, 197829, Note_on_c, 0, 47, 69
1, 197936, Note_off_c, 0, 47, 59
1, 197939, Note_on_c, 0, 49, 73
1, 198001, Note_off_c, 0, 49, 61
1, 198040, Note_on_c, 0, 66, 80
1, 198059, Note_on_c, 0, 42, 74
1, 198077, Note_off_c, 0, 65, 45
1, 198166, Note_on_c, 0, 57, 72
1, 198193, Note_off_c, 0, 66, 59
1, 198258, Note_on_c, 0, 59, 82
1, 198265, Note_off_c, 0, 42, 60
1, 198266, Note_off_c, 0, 57, 63
1, 198348, Note_on_c, 0, 61, 82
1, 198351, Note_on_c, 0, 40, 68
1, 198353, Note_off_c, 0, 59, 61
1, 198439, Note_on_c, 0, 63, 85
1, 198444, Note_off_c, 0, 61, 61
1, 198536, Note_off_c, 0, 63, 58
1, 198544, Note_on_c, 0, 64, 82
1, 198565, Note_off_c, 0, 40, 61
1, 198636, Note_off_c, 0, 64, 52
1, 198654, Note_on_c, 0, 66, 70
1, 198661, Note_on_c, 0, 70, 72
1, 198676, Note_on_c, 0, 39, 54
1, 198744, Note_off_c, 0, 66, 60
1, 198751, Note_on_c, 0, 64, 68
1, 198829, Note_off_c, 0, 39, 57
1, 198837, Note_off_c, 0, 64, 40
1, 198853, Note_on_c, 0, 66, 57
1, 198858, Note_off_c, 0, 70, 54
1, 198941, Note_off_c, 0, 66, 59
1, 198945, Note_on_c, 0, 72, 67
1, 198948, Note_on_c, 0, 63, 66
1, 198972, Note_on_c, 0, 44, 64
1, 199037, Note_off_c, 0, 44, 59
1, 199057, Note_on_c, 0, 68, 57
1, 199077, Note_off_c, 0, 72, 53
1, 199102, Note_off_c, 0, 63, 38
1, 199143, Note_on_c, 0, 66, 55
1, 199148, Note_off_c, 0, 68, 54
1, 199219, Note_off_c, 0, 66, 57
1, 199243, Note_on_c, 0, 73, 64
1, 199248, Note_on_c, 0, 49, 58
1, 199258, Note_on_c, 0, 64, 49
1, 199333, Note_on_c, 0, 51, 65
1, 199335, Note_off_c, 0, 73, 57
1, 199344, Note_on_c, 0, 72, 53
1, 199357, Note_off_c, 0, 49, 53
1, 199412, Note_off_c, 0, 64, 38
1, 199424, Note_off_c, 0, 51, 59
1, 199434, Note_on_c, 0, 52, 75
1, 199434, Note_off_c, 0, 72, 60
1, 199444, Note_on_c, 0, 73, 63
1, 199472, Note_off_c, 0, 73, 66
1, 199526, Note_off_c, 0, 52, 41
1, 199530, Note_on_c, 0, 54, 72
1, 199547, Note_on_c, 0, 75, 72
1, 199634, Note_on_c, 0, 73, 64
1, 199648, Note_off_c, 0, 75, 55
1, 199748, Note_on_c, 0, 75, 72
1, 199749, Note_off_c, 0, 73, 57
1, 199801, Note_off_c, 0, 54, 60
1, 199838, Note_on_c, 0, 68, 74
1, 199913, Note_on_c, 0, 52, 62
1, 199939, Note_on_c, 0, 70, 77
1, 199952, Note_off_c, 0, 68, 58
1, 199964, Note_off_c, 0, 75, 33
1, 200010, Note_on_c, 0, 51, 67
1, 200010, Note_off_c, 0, 52, 59
1, 200029, Note_on_c, 0, 72, 83
1, 200035, Note_off_c, 0, 70, 60
1, 200103, Note_off_c, 0, 51, 59
1, 200107, Note_on_c, 0, 52, 67
1, 200122, Note_on_c, 0, 73, 87
1, 200140, Note_off_c, 0, 72, 61
1, 200202, Note_on_c, 0, 54, 72
1, 200205, Note_off_c, 0, 52, 59
1, 200227, Note_on_c, 0, 75, 85
1, 200236, Note_off_c, 0, 73, 62
1, 200312, Note_on_c, 0, 56, 60
1, 200316, Note_on_c, 0, 76, 88
1, 200321, Note_off_c, 0, 54, 57
1, 200327, Note_off_c, 0, 75, 59
1, 200391, Note_off_c, 0, 56, 61
1, 200404, Note_on_c, 0, 57, 66
1, 200410, Note_on_c, 0, 78, 88
1, 200424, Note_off_c, 0, 76, 59
1, 200489, Note_off_c, 0, 57, 63
1, 200494, Note_on_c, 0, 56, 71
1, 200513, Note_on_c, 0, 76, 88
1, 200528, Note_off_c, 0, 78, 57
1, 200571, Note_off_c, 0, 56, 61
1, 200579, Note_on_c, 0, 54, 66
1, 200610, Note_on_c, 0, 78, 84
1, 200622, Note_off_c, 0, 76, 51
1, 200671, Note_on_c, 0, 56, 71
1, 200673, Note_off_c, 0, 54, 60
1, 200708, Note_on_c, 0, 75, 83
1, 200747, Note_off_c, 0, 78, 54
1, 200775, Note_on_c, 0, 58, 53
1, 200797, Note_on_c, 0, 80, 83
1, 200807, Note_off_c, 0, 75, 60
1, 200846, Note_off_c, 0, 56, 35
1, 200887, Note_off_c, 0, 58, 60
1, 200895, Note_on_c, 0, 60, 62
1, 200895, Note_on_c, 0, 78, 89
1, 200924, Note_off_c, 0, 60, 63
1, 200932, Note_off_c, 0, 80, 60
1, 200947, Note_off_c, 0, 78, 63
1, 201002, Note_on_c, 0, 76, 95
1, 201019, Note_on_c, 0, 61, 61
1, 201021, Note_on_c, 0, 68, 71
1, 201099, Note_off_c, 0, 68, 58
1, 201105, Note_on_c, 0, 75, 82
1, 201116, Note_on_c, 0, 67, 74
1, 201138, Note_off_c, 0, 76, 61
1, 201201, Note_on_c, 0, 76, 81
1, 201203, Note_on_c, 0, 68, 77
1, 201204, Note_off_c, 0, 67, 60
1, 201231, Note_off_c, 0, 75, 59
1, 201300, Note_on_c, 0, 73, 89
1, 201306, Note_on_c, 0, 70, 67
1, 201306, Note_off_c, 0, 68, 59
1, 201327, Note_off_c, 0, 76, 59
1, 201383, Note_off_c, 0, 70, 60
1, 201387, Note_on_c, 0, 68, 63
1, 201391, Note_off_c, 0, 73, 61
1, 201398, Note_on_c, 0, 71, 82
1, 201460, Control_c, 0, 67, 16
1, 201475, Control_c, 0, 67, 17
1, 201478, Note_off_c, 0, 68, 58
1, 201487, Note_on_c, 0, 70, 71
1, 201489, Note_on_c, 0, 73, 83
1, 201495, Note_off_c, 0, 71, 60
1, 201505, Control_c, 0, 67, 17
1, 201559, Note_off_c, 0, 70, 54
1, 201579, Control_c, 0, 67, 16
1, 201593, Note_off_c, 0, 73, 60
1, 201598, Note_on_c, 0, 82, 85
1, 201613, Note_on_c, 0, 63, 65
1, 201698, Note_off_c, 0, 63, 59
1, 201705, Note_on_c, 0, 65, 71
1, 201789, Note_on_c, 0, 67, 76
1, 201795, Note_off_c, 0, 65, 62
1, 201818, Note_off_c, 0, 82, 60
1, 201857, Note_off_c, 0, 61, 40
1, 201915, Note_on_c, 0, 59, 66
1, 201915, Note_on_c, 0, 75, 77
1, 201917, Note_off_c, 0, 67, 56
1, 201920, Note_on_c, 0, 68, 77
1, 201971, Control_c, 0, 67, 0
1, 202030, Note_on_c, 0, 70, 78
1, 202047, Note_off_c, 0, 68, 51
1, 202098, Note_off_c, 0, 75, 52
1, 202117, Note_on_c, 0, 71, 78
1, 202119, Note_off_c, 0, 59, 51
1, 202126, Note_off_c, 0, 70, 60
1, 202214, Note_on_c, 0, 77, 77
1, 202219, Note_on_c, 0, 73, 70
1, 202221, Note_off_c, 0, 71, 49
1, 202239, Note_on_c, 0, 58, 56
1, 202326, Note_off_c, 0, 73, 61
1, 202329, Note_on_c, 0, 71, 72
1, 202351, Note_off_c, 0, 77, 55
1, 202388, Note_off_c, 0, 58, 52
1, 202394, Control_c, 0, 67, 17
1, 202408, Control_c, 0, 67, 18
1, 202423, Control_c, 0, 67, 19
1, 202424, Note_off_c, 0, 71, 61
1, 202429, Note_on_c, 0, 73, 71
1, 202438, Control_c, 0, 67, 21
1, 202453, Control_c, 0, 67, 21
1, 202483, Control_c, 0, 67, 20
1, 202508, Note_off_c, 0, 73, 63
1, 202519, Note_on_c, 0, 79, 72
1, 202531, Note_on_c, 0, 70, 75
1, 202542, Note_on_c, 0, 63, 58
1, 202572, Control_c, 0, 67, 20
1, 202616, Control_c, 0, 67, 20
1, 202636, Note_on_c, 0, 75, 70
1, 202644, Note_off_c, 0, 70, 53
1, 202664, Note_off_c, 0, 79, 51
1, 202675, Control_c, 0, 67, 19
1, 202690, Control_c, 0, 67, 18
1, 202708, Note_off_c, 0, 63, 56
1, 202733, Note_on_c, 0, 73, 70
1, 202749, Control_c, 0, 67, 18
1, 202764, Control_c, 0, 67, 17
1, 202775, Note_off_c, 0, 75, 56
1, 202778, Control_c, 0, 67, 17
1, 202824, Note_off_c, 0, 73, 60
1, 202830, Note_on_c, 0, 80, 75
1, 202834, Note_on_c, 0, 71, 66
1, 202854, Note_on_c, 0, 56, 46
1, 202920, Note_off_c, 0, 71, 55
1, 202932, Note_on_c, 0, 70, 64
1, 202942, Control_c, 0, 67, 17
1, 202957, Control_c, 0, 67, 18
1, 202971, Control_c, 0, 67, 19
1, 202986, Control_c, 0, 67, 19
1, 203002, Control_c, 0, 67, 20
1, 203007, Note_off_c, 0, 80, 49
1, 203010, Note_off_c, 0, 56, 40
1, 203017, Control_c, 0, 67, 20
1, 203028, Note_on_c, 0, 71, 68
1, 203031, Control_c, 0, 67, 21
1, 203037, Note_off_c, 0, 70, 58
1, 203076, Note_off_c, 0, 71, 60
1, 203091, Control_c, 0, 67, 21
1, 203106, Control_c, 0, 67, 22
1, 203128, Control_c, 0, 67, 23
1, 203136, Note_on_c, 0, 76, 76
1, 203143, Control_c, 0, 67, 23
1, 203151, Note_on_c, 0, 68, 67
1, 203157, Control_c, 0, 67, 25
1, 203159, Note_on_c, 0, 61, 53
1, 203172, Control_c, 0, 67, 27
1, 203187, Control_c, 0, 67, 30
1, 203201, Control_c, 0, 67, 35
1, 203216, Control_c, 0, 67, 40
1, 203231, Control_c, 0, 67, 46
1, 203232, Note_off_c, 0, 68, 52
1, 203246, Control_c, 0, 67, 50
1, 203247, Note_on_c, 0, 73, 63
1, 203261, Control_c, 0, 67, 51
1, 203287, Note_off_c, 0, 61, 55
1, 203330, Note_on_c, 0, 71, 59
1, 203335, Control_c, 0, 67, 51
1, 203350, Control_c, 0, 67, 49
1, 203365, Control_c, 0, 67, 47
1, 203380, Control_c, 0, 67, 47
1, 203431, Note_off_c, 0, 71, 61
1, 203445, Note_on_c, 0, 69, 64
1, 203448, Note_on_c, 0, 54, 56
1, 203454, Control_c, 0, 67, 45
1, 203469, Control_c, 0, 67, 44
1, 203472, Note_off_c, 0, 73, 39
1, 203523, Note_off_c, 0, 69, 62
1, 203528, Control_c, 0, 67, 44
1, 203532, Note_on_c, 0, 68, 62
1, 203553, Note_off_c, 0, 76, 50
1, 203557, Control_c, 0, 67, 43
1, 203587, Note_off_c, 0, 54, 54
1, 203587, Control_c, 0, 67, 44
1, 203601, Control_c, 0, 67, 44
1, 203620, Note_off_c, 0, 68, 59
1, 203631, Control_c, 0, 67, 45
1, 203639, Note_on_c, 0, 69, 59
1, 203661, Control_c, 0, 67, 45
1, 203709, Note_off_c, 0, 69, 39
1, 203726, Note_on_c, 0, 75, 68
1, 203729, Note_on_c, 0, 59, 53
1, 203738, Note_on_c, 0, 66, 51
1, 203776, Note_off_c, 0, 66, 62
1, 203779, Control_c, 0, 67, 45
1, 203795, Control_c, 0, 67, 44
1, 203800, Note_on_c, 0, 71, 51
1, 203836, Note_off_c, 0, 59, 44
1, 203892, Control_c, 0, 67, 44
1, 203896, Note_on_c, 0, 69, 60
1, 203899, Note_off_c, 0, 75, 37
1, 203906, Control_c, 0, 67, 43
1, 203915, Note_off_c, 0, 71, 52
1, 203921, Control_c, 0, 67, 43
1, 203936, Control_c, 0, 67, 42
1, 203980, Control_c, 0, 67, 42
1, 203995, Control_c, 0, 67, 41
1, 203998, Note_off_c, 0, 69, 40
1, 204010, Control_c, 0, 67, 41
1, 204017, Note_on_c, 0, 76, 65
1, 204024, Note_on_c, 0, 68, 62
1, 204025, Control_c, 0, 67, 40
1, 204026, Note_on_c, 0, 52, 56
1, 204039, Control_c, 0, 67, 40
1, 204054, Control_c, 0, 67, 39
1, 204082, Note_off_c, 0, 68, 59
1, 204084, Control_c, 0, 67, 39
1, 204098, Note_on_c, 0, 66, 65
1, 204115, Note_off_c, 0, 52, 57
1, 204128, Control_c, 0, 67, 38
1, 204131, Note_on_c, 0, 51, 52
1, 204185, Note_off_c, 0, 66, 54
1, 204200, Note_on_c, 0, 68, 66
1, 204217, Note_off_c, 0, 51, 56
1, 204222, Note_on_c, 0, 52, 66
1, 204232, Note_off_c, 0, 76, 40
1, 204292, Note_off_c, 0, 68, 58
1, 204294, Note_on_c, 0, 70, 78
1, 204306, Control_c, 0, 67, 38
1, 204316, Note_off_c, 0, 52, 59
1, 204319, Note_on_c, 0, 54, 70
1, 204395, Control_c, 0, 67, 37
1, 204397, Note_on_c, 0, 68, 79
1, 204402, Note_off_c, 0, 54, 61
1, 204408, Note_off_c, 0, 70, 58
1, 204415, Note_on_c, 0, 52, 66
1, 204454, Control_c, 0, 67, 37
1, 204483, Note_off_c, 0, 52, 60
1, 204486, Note_on_c, 0, 70, 81
1, 204492, Note_off_c, 0, 68, 50
1, 204498, Note_on_c, 0, 54, 74
1, 204528, Control_c, 0, 67, 36
1, 204542, Control_c, 0, 67, 36
1, 204553, Note_off_c, 0, 54, 63
1, 204560, Note_off_c, 0, 70, 60
1, 204572, Control_c, 0, 67, 35
1, 204592, Note_on_c, 0, 71, 83
1, 204598, Note_on_c, 0, 75, 80
1, 204603, Control_c, 0, 67, 35
1, 204615, Note_on_c, 0, 47, 67
1, 204717, Note_on_c, 0, 49, 72
1, 204745, Note_off_c, 0, 47, 58
1, 204812, Note_on_c, 0, 51, 78
1, 204844, Note_off_c, 0, 49, 58
1, 204897, Note_on_c, 0, 52, 83
1, 204902, Note_off_c, 0, 51, 59
1, 204903, Note_on_c, 0, 74, 85
1, 204935, Note_off_c, 0, 75, 58
1, 204998, Note_on_c, 0, 54, 78
1, 205016, Note_off_c, 0, 52, 40
1, 205091, Note_on_c, 0, 56, 78
1, 205100, Control_c, 0, 67, 34
1, 205110, Note_off_c, 0, 54, 57
1, 205144, Control_c, 0, 67, 34
1, 205173, Control_c, 0, 67, 33
1, 205183, Note_off_c, 0, 56, 60
1, 205188, Control_c, 0, 67, 33
1, 205189, Note_on_c, 0, 57, 79
1, 205204, Note_on_c, 0, 73, 83
1, 205218, Control_c, 0, 67, 32
1, 205228, Note_off_c, 0, 74, 59
1, 205233, Control_c, 0, 67, 32
1, 205262, Control_c, 0, 67, 31
1, 205263, Note_off_c, 0, 71, 55
1, 205277, Control_c, 0, 67, 31
1, 205284, Note_off_c, 0, 73, 62
1, 205288, Note_off_c, 0, 57, 62
1, 205288, Note_on_c, 0, 56, 74
1, 205307, Control_c, 0, 67, 30
1, 205321, Control_c, 0, 67, 30
1, 205336, Control_c, 0, 67, 29
1, 205351, Control_c, 0, 67, 28
1, 205373, Control_c, 0, 67, 28
1, 205377, Note_off_c, 0, 56, 61
1, 205388, Control_c, 0, 67, 27
1, 205395, Note_on_c, 0, 57, 79
1, 205404, Control_c, 0, 67, 27
1, 205419, Control_c, 0, 67, 26
1, 205434, Control_c, 0, 67, 25
1, 205449, Control_c, 0, 67, 25
1, 205464, Control_c, 0, 67, 24
1, 205478, Control_c, 0, 67, 22
1, 205493, Note_on_c, 0, 54, 78
1, 205493, Control_c, 0, 67, 21
1, 205495, Note_off_c, 0, 57, 47
1, 205496, Note_on_c, 0, 75, 79
1, 205507, Note_on_c, 0, 69, 59
1, 205508, Control_c, 0, 67, 38
1, 205523, Control_c, 0, 67, 37
1, 205538, Control_c, 0, 67, 36
1, 205553, Control_c, 0, 67, 35
1, 205568, Control_c, 0, 67, 34
1, 205577, Note_on_c, 0, 59, 76
1, 205589, Note_off_c, 0, 54, 59
1, 205597, Note_on_c, 0, 76, 75
1, 205597, Control_c, 0, 67, 34
1, 205627, Control_c, 0, 67, 33
1, 205651, Note_off_c, 0, 75, 57
1, 205671, Control_c, 0, 67, 33
1, 205679, Note_off_c, 0, 59, 60
1, 205684, Note_on_c, 0, 57, 69
1, 205690, Note_on_c, 0, 78, 76
1, 205705, Note_off_c, 0, 76, 55
1, 205716, Control_c, 0, 67, 32
1, 205784, Note_off_c, 0, 57, 62
1, 205785, Note_on_c, 0, 71, 71
1, 205787, Note_on_c, 0, 56, 71
1, 205807, Note_off_c, 0, 78, 56
1, 205849, Note_off_c, 0, 69, 53
1, 205871, Note_off_c, 0, 71, 60
1, 205876, Note_off_c, 0, 56, 63
1, 205881, Note_on_c, 0, 54, 63
1, 205983, Note_off_c, 0, 54, 62
1, 205984, Note_on_c, 0, 56, 65
1, 206075, Note_on_c, 0, 73, 70
1, 206079, Note_off_c, 0, 56, 57
1, 206086, Note_on_c, 0, 52, 62
1, 206110, Note_on_c, 0, 68, 20
1, 206162, Note_off_c, 0, 68, 0
1, 206170, Note_on_c, 0, 57, 57
1, 206176, Note_off_c, 0, 52, 57
1, 206185, Note_on_c, 0, 75, 62
1, 206200, Poly_aftertouch_c, 0, 68, 127
1, 206236, Note_off_c, 0, 73, 58
1, 206256, Control_c, 0, 67, 32
1, 206259, Note_off_c, 0, 57, 60
1, 206275, Note_on_c, 0, 56, 59
1, 206291, Note_on_c, 0, 76, 70
1, 206301, Control_c, 0, 67, 31
1, 206313, Note_off_c, 0, 75, 36
1, 206316, Control_c, 0, 67, 31
1, 206375, Control_c, 0, 67, 30
1, 206376, Note_on_c, 0, 54, 62
1, 206376, Note_off_c, 0, 76, 59
1, 206376, Note_off_c, 0, 56, 58
1, 206379, Note_on_c, 0, 69, 65
1, 206453, Poly_aftertouch_c, 0, 68, 0
1, 206463, Note_off_c, 0, 69, 58
1, 206474, Note_off_c, 0, 54, 62
1, 206483, Note_on_c, 0, 52, 57
1, 206567, Control_c, 0, 67, 30
1, 206576, Note_off_c, 0, 52, 59
1, 206592, Note_on_c, 0, 54, 62
1, 206676, Note_on_c, 0, 71, 54
1, 206677, Note_off_c, 0, 54, 60
1, 206680, Note_on_c, 0, 66, 41
1, 206706, Note_on_c, 0, 51, 49
1, 206729, Note_off_c, 0, 66, 0
1, 206729, Note_on_c, 0, 66, 16
1, 206772, Note_on_c, 0, 73, 59
1, 206776, Note_off_c, 0, 71, 51
1, 206802, Note_off_c, 0, 51, 53
1, 206804, Note_on_c, 0, 56, 45
1, 206884, Note_on_c, 0, 75, 62
1, 206885, Note_off_c, 0, 56, 57
1, 206886, Control_c, 0, 67, 29
1, 206887, Note_off_c, 0, 73, 54
1, 206889, Note_on_c, 0, 54, 52
1, 206960, Control_c, 0, 67, 29
1, 206964, Note_off_c, 0, 54, 61
1, 206975, Control_c, 0, 67, 28
1, 206987, Note_on_c, 0, 52, 56
1, 206987, Note_off_c, 0, 75, 49
1, 206990, Control_c, 0, 67, 28
1, 206992, Note_on_c, 0, 68, 56
1, 207005, Control_c, 0, 67, 27
1, 207020, Control_c, 0, 67, 26
1, 207035, Control_c, 0, 67, 24
1, 207049, Control_c, 0, 67, 23
1, 207064, Note_off_c, 0, 52, 55
1, 207064, Control_c, 0, 67, 21
1, 207072, Note_on_c, 0, 51, 49
1, 207079, Control_c, 0, 67, 19
1, 207094, Control_c, 0, 67, 17
1, 207109, Control_c, 0, 67, 16
1, 207162, Note_off_c, 0, 51, 57
1, 207181, Note_off_c, 0, 66, 54
1, 207187, Note_on_c, 0, 52, 56
1, 207294, Note_on_c, 0, 49, 62
1, 207300, Note_off_c, 0, 52, 50
1, 207303, Note_on_c, 0, 64, 61
1, 207352, Note_off_c, 0, 68, 48
1, 207367, Note_off_c, 0, 49, 47
1, 207386, Note_on_c, 0, 71, 62
1, 207401, Note_off_c, 0, 64, 53
1, 207484, Note_on_c, 0, 70, 62
1, 207486, Note_off_c, 0, 71, 54
1, 207567, Note_off_c, 0, 70, 50
1, 207587, Note_on_c, 0, 71, 82
1, 207605, Note_on_c, 0, 56, 64
1, 207687, Note_off_c, 0, 56, 60
1, 207691, Note_on_c, 0, 54, 67
1, 207780, Note_off_c, 0, 54, 61
1, 207795, Note_on_c, 0, 56, 65
1, 207887, Note_off_c, 0, 56, 59
1, 207894, Note_on_c, 0, 68, 83
1, 207902, Note_off_c, 0, 71, 61
1, 207904, Note_on_c, 0, 52, 69
1, 207968, Note_off_c, 0, 52, 58
1, 207991, Note_on_c, 0, 75, 79
1, 208009, Note_off_c, 0, 68, 59
1, 208080, Control_c, 0, 67, 0
1, 208091, Note_on_c, 0, 73, 75
1, 208114, Note_off_c, 0, 75, 60
1, 208185, Note_on_c, 0, 75, 83
1, 208189, Note_off_c, 0, 73, 38
1, 208191, Note_on_c, 0, 66, 76
1, 208196, Note_on_c, 0, 59, 79
1, 208282, Note_off_c, 0, 59, 59
1, 208283, Note_on_c, 0, 58, 73
1, 208372, Note_off_c, 0, 58, 58
1, 208375, Note_off_c, 0, 66, 59
1, 208385, Note_on_c, 0, 59, 75
1, 208494, Note_on_c, 0, 71, 89
1, 208495, Note_on_c, 0, 56, 85
1, 208504, Note_off_c, 0, 59, 38
1, 208504, Note_off_c, 0, 75, 56
1, 208565, Note_off_c, 0, 56, 62
1, 208599, Note_on_c, 0, 78, 76
1, 208697, Note_on_c, 0, 76, 75
1, 208726, Note_off_c, 0, 78, 57
1, 208790, Note_off_c, 0, 76, 58
1, 208805, Note_on_c, 0, 78, 75
1, 208809, Note_on_c, 0, 63, 88
1, 208844, Note_off_c, 0, 71, 56
1, 208862, Note_off_c, 0, 78, 59
1, 208928, Note_on_c, 0, 80, 81
1, 209019, Note_on_c, 0, 78, 71
1, 209050, Note_off_c, 0, 80, 48
1, 209102, Note_on_c, 0, 76, 86
1, 209103, Note_off_c, 0, 63, 57
1, 209122, Note_on_c, 0, 64, 74
1, 209123, Note_on_c, 0, 69, 75
1, 209134, Note_off_c, 0, 78, 55
1, 209178, Note_on_c, 0, 65, 20
1, 209220, Note_on_c, 0, 78, 76
1, 209220, Note_off_c, 0, 65, 48
1, 209234, Note_off_c, 0, 76, 57
1, 209331, Note_on_c, 0, 76, 88
1, 209338, Note_on_c, 0, 68, 70
1, 209375, Note_off_c, 0, 69, 45
1, 209375, Note_off_c, 0, 78, 52
1, 209406, Note_on_c, 0, 66, 81
1, 209415, Note_off_c, 0, 64, 35
1, 209420, Note_off_c, 0, 76, 61
1, 209430, Note_off_c, 0, 68, 59
1, 209437, Note_on_c, 0, 83, 90
1, 209459, Note_off_c, 0, 66, 62
1, 209535, Note_on_c, 0, 82, 83
1, 209570, Note_off_c, 0, 83, 60
1, 209632, Note_on_c, 0, 80, 75
1, 209661, Note_off_c, 0, 82, 57
1, 209696, Note_on_c, 0, 71, 63
1, 209705, Note_on_c, 0, 63, 63
1, 209719, Note_on_c, 0, 78, 77
1, 209742, Note_off_c, 0, 80, 53
1, 209781, Note_off_c, 0, 63, 57
1, 209803, Note_on_c, 0, 61, 49
1, 209810, Note_off_c, 0, 78, 59
1, 209812, Note_on_c, 0, 76, 75
1, 209845, Control_c, 0, 67, 20
1, 209865, Note_off_c, 0, 61, 54
1, 209867, Control_c, 0, 67, 27
1, 209879, Note_on_c, 0, 59, 45
1, 209882, Control_c, 0, 67, 31
1, 209896, Control_c, 0, 67, 32
1, 209901, Note_on_c, 0, 75, 75
1, 209911, Control_c, 0, 67, 31
1, 209916, Note_off_c, 0, 76, 36
1, 209926, Control_c, 0, 67, 29
1, 209941, Control_c, 0, 67, 27
1, 209967, Note_off_c, 0, 71, 39
1, 209971, Control_c, 0, 67, 28
1, 209986, Control_c, 0, 67, 28
1, 210003, Note_on_c, 0, 73, 68
1, 210004, Note_off_c, 0, 75, 60
1, 210007, Note_on_c, 0, 66, 59
1, 210016, Note_on_c, 0, 71, 53
1, 210030, Control_c, 0, 67, 28
1, 210036, Note_off_c, 0, 66, 65
1, 210045, Control_c, 0, 67, 26
1, 210060, Control_c, 0, 67, 26
1, 210062, Note_off_c, 0, 71, 55
1, 210074, Note_off_c, 0, 59, 38
1, 210096, Note_off_c, 0, 73, 60
1, 210099, Note_on_c, 0, 75, 66
1, 210134, Control_c, 0, 67, 26
1, 210163, Control_c, 0, 67, 27
1, 210201, Note_on_c, 0, 70, 67
1, 210206, Note_off_c, 0, 75, 52
1, 210210, Note_on_c, 0, 54, 68
1, 210227, Note_on_c, 0, 73, 41
1, 210247, Note_off_c, 0, 70, 61
1, 210251, Note_off_c, 0, 54, 62
1, 210251, Note_off_c, 0, 73, 57
1, 210268, Control_c, 0, 67, 26
1, 210293, Note_on_c, 0, 76, 68
1, 210307, Note_on_c, 0, 68, 68
1, 210310, Note_on_c, 0, 56, 71
1, 210312, Control_c, 0, 67, 26
1, 210357, Note_off_c, 0, 56, 54
1, 210357, Control_c, 0, 67, 25
1, 210382, Note_off_c, 0, 68, 56
1, 210386, Control_c, 0, 67, 25
1, 210388, Note_on_c, 0, 71, 68
1, 210392, Note_off_c, 0, 76, 55
1, 210416, Control_c, 0, 67, 24
1, 210431, Control_c, 0, 67, 24
1, 210454, Note_off_c, 0, 71, 59
1, 210460, Control_c, 0, 67, 23
1, 210475, Control_c, 0, 67, 23
1, 210493, Note_on_c, 0, 73, 78
1, 210500, Note_on_c, 0, 67, 66
1, 210504, Note_on_c, 0, 58, 71
1, 210505, Control_c, 0, 67, 22
1, 210519, Control_c, 0, 67, 22
1, 210526, Note_off_c, 0, 67, 63
1, 210534, Control_c, 0, 67, 21
1, 210561, Note_off_c, 0, 73, 60
1, 210573, Note_off_c, 0, 58, 59
1, 210584, Note_on_c, 0, 75, 79
1, 210598, Note_on_c, 0, 59, 75
1, 210601, Note_on_c, 0, 66, 71
1, 210657, Note_off_c, 0, 66, 54
1, 210663, Note_off_c, 0, 59, 53
1, 210686, Note_on_c, 0, 76, 81
1, 210734, Control_c, 0, 67, 22
1, 210738, Note_off_c, 0, 75, 37
1, 210753, Note_off_c, 0, 76, 53
1, 210789, Note_on_c, 0, 75, 82
1, 210794, Note_on_c, 0, 60, 68
1, 210811, Note_on_c, 0, 56, 60
1, 210853, Control_c, 0, 67, 22
1, 210882, Control_c, 0, 67, 23
1, 210886, Note_on_c, 0, 78, 84
1, 210892, Note_off_c, 0, 75, 0
1, 210892, Note_on_c, 0, 75, 8
1, 210895, Note_on_c, 0, 58, 67
1, 210897, Control_c, 0, 67, 23
1, 210901, Note_on_c, 0, 61, 75
1, 210911, Control_c, 0, 67, 24
1, 210916, Note_off_c, 0, 75, 57
1, 210923, Note_off_c, 0, 60, 58
1, 210937, Note_off_c, 0, 56, 44
1, 210948, Note_off_c, 0, 61, 56
1, 210956, Control_c, 0, 67, 24
1, 210963, Note_off_c, 0, 58, 60
1, 210978, Note_on_c, 0, 73, 87
1, 211004, Note_off_c, 0, 78, 57
1, 211038, Note_off_c, 0, 73, 63
1, 211046, Control_c, 0, 67, 25
1, 211082, Note_on_c, 0, 75, 85
1, 211099, Note_on_c, 0, 60, 75
1, 211142, Note_off_c, 0, 75, 62
1, 211164, Control_c, 0, 67, 26
1, 211179, Control_c, 0, 67, 27
1, 211184, Note_on_c, 0, 76, 93
1, 211187, Note_off_c, 0, 60, 55
1, 211192, Note_on_c, 0, 73, 87
1, 211193, Note_on_c, 0, 61, 74
1, 211194, Control_c, 0, 67, 29
1, 211208, Control_c, 0, 67, 30
1, 211223, Control_c, 0, 67, 31
1, 211238, Control_c, 0, 67, 32
1, 211247, Note_off_c, 0, 73, 58
1, 211253, Control_c, 0, 67, 33
1, 211268, Control_c, 0, 67, 34
1, 211274, Note_on_c, 0, 59, 68
1, 211279, Note_on_c, 0, 75, 76
1, 211282, Note_off_c, 0, 61, 57
1, 211283, Control_c, 0, 67, 37
1, 211297, Control_c, 0, 67, 39
1, 211312, Control_c, 0, 67, 42
1, 211327, Control_c, 0, 67, 45
1, 211342, Control_c, 0, 67, 47
1, 211364, Control_c, 0, 67, 49
1, 211378, Note_on_c, 0, 73, 76
1, 211379, Control_c, 0, 67, 49
1, 211380, Note_on_c, 0, 57, 67
1, 211380, Note_off_c, 0, 59, 61
1, 211394, Control_c, 0, 67, 50
1, 211409, Control_c, 0, 67, 50
1, 211413, Note_off_c, 0, 76, 56
1, 211423, Control_c, 0, 67, 51
1, 211429, Note_off_c, 0, 75, 56
1, 211438, Control_c, 0, 67, 52
1, 211453, Control_c, 0, 67, 53
1, 211468, Control_c, 0, 67, 54
1, 211474, Note_off_c, 0, 73, 62
1, 211482, Note_on_c, 0, 71, 81
1, 211482, Note_on_c, 0, 77, 85
1, 211483, Control_c, 0, 67, 55
1, 211484, Note_off_c, 0, 57, 60
1, 211488, Note_on_c, 0, 56, 68
1, 211497, Control_c, 0, 67, 56
1, 211512, Control_c, 0, 67, 56
1, 211562, Note_off_c, 0, 56, 60
1, 211577, Note_on_c, 0, 57, 58
1, 211582, Note_off_c, 0, 71, 59
1, 211583, Note_on_c, 0, 73, 72
1, 211636, Note_off_c, 0, 77, 55
1, 211679, Note_off_c, 0, 57, 60
1, 211679, Note_off_c, 0, 73, 58
1, 211691, Note_on_c, 0, 71, 66
1, 211702, Note_on_c, 0, 56, 53
1, 211705, Control_c, 0, 67, 57
1, 211721, Note_off_c, 0, 71, 62
1, 211749, Control_c, 0, 67, 57
1, 211764, Control_c, 0, 67, 58
1, 211779, Control_c, 0, 67, 59
1, 211788, Note_on_c, 0, 78, 76
1, 211792, Note_off_c, 0, 56, 55
1, 211795, Control_c, 0, 67, 61
1, 211801, Note_on_c, 0, 69, 63
1, 211810, Control_c, 0, 67, 64
1, 211810, Note_on_c, 0, 54, 55
1, 211825, Control_c, 0, 67, 69
1, 211839, Control_c, 0, 67, 73
1, 211854, Control_c, 0, 67, 76
1, 211869, Control_c, 0, 67, 78
1, 211882, Note_on_c, 0, 76, 46
1, 211884, Control_c, 0, 64, 19
1, 211884, Control_c, 0, 67, 79
1, 211899, Control_c, 0, 64, 38
1, 211913, Control_c, 0, 64, 48
1, 211928, Control_c, 0, 64, 52
1, 211943, Control_c, 0, 64, 54
1, 211943, Control_c, 0, 67, 79
1, 211953, Note_off_c, 0, 78, 50
1, 211957, Control_c, 0, 64, 55
1, 211972, Control_c, 0, 64, 56
1, 211979, Note_off_c, 0, 54, 51
1, 211980, Note_on_c, 0, 74, 60
1, 211987, Control_c, 0, 64, 57
1, 212002, Control_c, 0, 64, 59
1, 212012, Note_off_c, 0, 76, 48
1, 212017, Control_c, 0, 64, 60
1, 212027, Note_off_c, 0, 69, 56
1, 212031, Control_c, 0, 64, 61
1, 212043, Note_on_c, 0, 73, 66
1, 212046, Control_c, 0, 64, 62
1, 212051, Note_off_c, 0, 74, 56
1, 212061, Control_c, 0, 64, 62
1, 212076, Control_c, 0, 64, 63
1, 212091, Control_c, 0, 64, 63
1, 212113, Control_c, 0, 64, 64
1, 212113, Control_c, 0, 67, 78
1, 212128, Control_c, 0, 67, 76
1, 212144, Control_c, 0, 67, 75
1, 212147, Note_on_c, 0, 71, 60
1, 212148, Note_off_c, 0, 73, 58
1, 212159, Control_c, 0, 67, 73
1, 212173, Control_c, 0, 64, 63
1, 212173, Control_c, 0, 67, 71
1, 212174, Note_off_c, 0, 71, 66
1, 212188, Control_c, 0, 64, 62
1, 212188, Control_c, 0, 67, 69
1, 212203, Control_c, 0, 64, 57
1, 212203, Control_c, 0, 67, 68
1, 212218, Control_c, 0, 64, 47
1, 212218, Control_c, 0, 67, 67
1, 212233, Control_c, 0, 67, 67
1, 212239, Note_on_c, 0, 77, 68
1, 212247, Control_c, 0, 64, 40
1, 212247, Control_c, 0, 67, 66
1, 212262, Note_on_c, 0, 69, 37
1, 212262, Control_c, 0, 64, 33
1, 212262, Control_c, 0, 67, 65
1, 212269, Note_off_c, 0, 77, 59
1, 212277, Control_c, 0, 64, 25
1, 212290, Note_off_c, 0, 69, 54
1, 212291, Control_c, 0, 64, 18
1, 212326, Note_on_c, 0, 77, 69
1, 212331, Note_on_c, 0, 68, 76
1, 212351, Control_c, 0, 64, 0
1, 212396, Note_off_c, 0, 77, 53
1, 212415, Note_on_c, 0, 69, 57
1, 212435, Note_off_c, 0, 68, 59
1, 212498, Control_c, 0, 67, 65
1, 212507, Note_off_c, 0, 69, 63
1, 212513, Control_c, 0, 67, 64
1, 212519, Note_on_c, 0, 77, 51
1, 212525, Note_on_c, 0, 68, 65
1, 212528, Control_c, 0, 67, 63
1, 212543, Control_c, 0, 67, 61
1, 212556, Note_on_c, 0, 76, 33
1, 212558, Control_c, 0, 67, 58
1, 212571, Note_off_c, 0, 68, 57
1, 212573, Control_c, 0, 67, 53
1, 212583, Note_off_c, 0, 77, 0
1, 212588, Control_c, 0, 67, 47
1, 212591, Note_off_c, 0, 76, 34
1, 212603, Control_c, 0, 67, 39
1, 212618, Control_c, 0, 67, 31
1, 212623, Note_on_c, 0, 75, 69
1, 212624, Note_on_c, 0, 71, 65
1, 212633, Control_c, 0, 67, 33
1, 212648, Poly_aftertouch_c, 0, 77, 0
1, 212648, Control_c, 0, 67, 28
1, 212662, Control_c, 0, 67, 22
1, 212692, Control_c, 0, 67, 0
1, 212709, Note_on_c, 0, 66, 62
1, 212716, Note_off_c, 0, 75, 60
1, 212743, Note_off_c, 0, 66, 61
1, 212777, Note_off_c, 0, 71, 59
1, 212802, Note_on_c, 0, 74, 59
1, 212817, Note_on_c, 0, 68, 69
1, 212833, Note_on_c, 0, 75, 44
1, 212834, Note_off_c, 0, 75, 127
1, 212900, Note_on_c, 0, 73, 79
1, 212901, Note_off_c, 0, 68, 60
1, 212904, Note_on_c, 0, 69, 70
1, 212916, Note_off_c, 0, 74, 50
1, 212991, Note_on_c, 0, 71, 80
1, 213008, Note_off_c, 0, 69, 61
1, 213041, Note_off_c, 0, 73, 59
1, 213083, Note_on_c, 0, 78, 81
1, 213093, Note_off_c, 0, 71, 59
1, 213094, Note_on_c, 0, 69, 81
1, 213133, Note_off_c, 0, 69, 64
1, 213146, Note_off_c, 0, 78, 62
1, 213176, Note_on_c, 0, 77, 78
1, 213181, Note_on_c, 0, 73, 82
1, 213269, Note_on_c, 0, 68, 74
1, 213278, Note_off_c, 0, 77, 60
1, 213291, Note_off_c, 0, 73, 59
1, 213354, Note_on_c, 0, 76, 81
1, 213359, Note_off_c, 0, 68, 36
1, 213360, Note_on_c, 0, 70, 77
1, 213405, Note_off_c, 0, 70, 57
1, 213421, Note_off_c, 0, 76, 56
1, 213450, Note_on_c, 0, 75, 86
1, 213455, Note_on_c, 0, 71, 76
1, 213470, Note_on_c, 0, 56, 59
1, 213548, Note_off_c, 0, 56, 61
1, 213552, Note_on_c, 0, 57, 59
1, 213636, Note_off_c, 0, 57, 61
1, 213655, Note_on_c, 0, 56, 54
1, 213670, Note_on_c, 0, 77, 85
1, 213686, Note_off_c, 0, 75, 61
1, 213739, Note_off_c, 0, 56, 60
1, 213743, Note_on_c, 0, 54, 62
1, 213759, Note_on_c, 0, 78, 83
1, 213764, Note_off_c, 0, 71, 0
1, 213764, Note_on_c, 0, 71, 10
1, 213801, Note_off_c, 0, 77, 57
1, 213847, Note_off_c, 0, 54, 57
1, 213852, Note_on_c, 0, 56, 61
1, 213881, Note_off_c, 0, 71, 35
1, 213953, Note_off_c, 0, 56, 60
1, 213962, Note_on_c, 0, 54, 66
1, 213965, Note_off_c, 0, 78, 61
1, 213967, Note_on_c, 0, 69, 74
1, 214039, Note_off_c, 0, 54, 61
1, 214054, Note_on_c, 0, 61, 59
1, 214062, Note_on_c, 0, 68, 77
1, 214090, Note_off_c, 0, 69, 51
1, 214129, Note_off_c, 0, 61, 59
1, 214137, Note_on_c, 0, 59, 63
1, 214222, Note_off_c, 0, 59, 60
1, 214249, Note_on_c, 0, 57, 52
1, 214251, Note_on_c, 0, 72, 75
1, 214252, Note_off_c, 0, 68, 54
1, 214320, Note_on_c, 0, 56, 57
1, 214321, Note_off_c, 0, 57, 57
1, 214329, Note_off_c, 0, 72, 55
1, 214345, Note_on_c, 0, 76, 72
1, 214363, Note_on_c, 0, 73, 67
1, 214424, Note_on_c, 0, 54, 60
1, 214432, Note_off_c, 0, 56, 56
1, 214467, Note_off_c, 0, 54, 63
1, 214542, Note_on_c, 0, 52, 56
1, 214638, Note_off_c, 0, 76, 60
1, 214643, Note_off_c, 0, 52, 59
1, 214645, Note_on_c, 0, 66, 65
1, 214657, Note_on_c, 0, 51, 58
1, 214660, Note_off_c, 0, 73, 45
1, 214736, Note_off_c, 0, 51, 57
1, 214755, Note_on_c, 0, 52, 60
1, 214855, Note_off_c, 0, 52, 57
1, 214859, Note_on_c, 0, 51, 54
1, 214931, Note_off_c, 0, 66, 60
1, 214933, Note_off_c, 0, 51, 57
1, 214935, Note_on_c, 0, 75, 70
1, 214952, Note_on_c, 0, 54, 56
1, 215040, Note_on_c, 0, 64, 59
1, 215059, Note_on_c, 0, 49, 50
1, 215095, Note_off_c, 0, 64, 52
1, 215130, Note_on_c, 0, 66, 56
1, 215132, Note_off_c, 0, 49, 55
1, 215154, Note_off_c, 0, 54, 22
1, 215156, Note_on_c, 0, 51, 54
1, 215218, Note_on_c, 0, 68, 68
1, 215218, Note_off_c, 0, 75, 39
1, 215222, Note_off_c, 0, 66, 61
1, 215240, Note_off_c, 0, 51, 56
1, 215249, Note_on_c, 0, 52, 61
1, 215342, Note_off_c, 0, 52, 57
1, 215358, Note_on_c, 0, 54, 44
1, 215431, Note_on_c, 0, 73, 65
1, 215432, Note_off_c, 0, 54, 61
1, 215441, Note_off_c, 0, 68, 42
1, 215449, Note_on_c, 0, 52, 57
1, 215472, Note_off_c, 0, 73, 58
1, 215518, Note_on_c, 0, 72, 78
1, 215518, Note_off_c, 0, 52, 55
1, 215530, Note_on_c, 0, 56, 60
1, 215610, Note_on_c, 0, 51, 56
1, 215611, Note_off_c, 0, 72, 50
1, 215616, Note_on_c, 0, 66, 69
1, 215618, Note_off_c, 0, 56, 55
1, 215702, Note_off_c, 0, 66, 54
1, 215707, Note_on_c, 0, 53, 72
1, 215709, Note_on_c, 0, 71, 66
1, 215714, Note_on_c, 0, 68, 68
1, 215724, Note_off_c, 0, 51, 51
1, 215744, Note_off_c, 0, 68, 60
1, 215747, Note_off_c, 0, 71, 58
1, 215801, Note_off_c, 0, 53, 58
1, 215806, Note_on_c, 0, 54, 77
1, 215807, Note_on_c, 0, 70, 79
1, 215813, Note_on_c, 0, 61, 78
1, 215835, Control_c, 0, 64, 17
1, 215858, Control_c, 0, 64, 39
1, 215873, Control_c, 0, 64, 53
1, 215887, Control_c, 0, 64, 59
1, 215897, Note_off_c, 0, 61, 58
1, 215899, Note_off_c, 0, 70, 58
1, 215902, Control_c, 0, 64, 62
1, 215904, Note_on_c, 0, 60, 74
1, 215917, Control_c, 0, 64, 64
1, 215931, Control_c, 0, 64, 65
1, 215946, Control_c, 0, 64, 66
1, 215961, Control_c, 0, 64, 67
1, 215976, Control_c, 0, 64, 68
1, 215980, Note_on_c, 0, 69, 72
1, 215981, Note_on_c, 0, 61, 66
1, 215987, Note_off_c, 0, 60, 59
1, 215991, Control_c, 0, 64, 70
1, 216006, Note_off_c, 0, 61, 67
1, 216006, Control_c, 0, 64, 71
1, 216021, Control_c, 0, 64, 71
1, 216025, Note_off_c, 0, 69, 63
1, 216065, Control_c, 0, 64, 69
1, 216080, Control_c, 0, 64, 64
1, 216095, Control_c, 0, 64, 55
1, 216097, Note_on_c, 0, 63, 84
1, 216098, Note_on_c, 0, 78, 88
1, 216110, Control_c, 0, 64, 39
1, 216125, Control_c, 0, 64, 0
1, 216182, Note_on_c, 0, 61, 72
1, 216185, Note_off_c, 0, 63, 60
1, 216187, Note_on_c, 0, 76, 74
1, 216187, Note_off_c, 0, 78, 61
1, 216255, Note_off_c, 0, 76, 60
1, 216278, Note_off_c, 0, 61, 60
1, 216282, Note_on_c, 0, 78, 75
1, 216294, Note_on_c, 0, 63, 79
1, 216350, Note_off_c, 0, 78, 58
1, 216376, Note_on_c, 0, 72, 79
1, 216391, Note_on_c, 0, 56, 68
1, 216396, Note_off_c, 0, 63, 60
1, 216469, Note_on_c, 0, 58, 70
1, 216469, Note_on_c, 0, 73, 79
1, 216478, Note_off_c, 0, 72, 58
1, 216496, Note_off_c, 0, 56, 53
1, 216526, Note_off_c, 0, 54, 35
1, 216545, Note_off_c, 0, 73, 58
1, 216553, Note_off_c, 0, 58, 59
1, 216563, Note_on_c, 0, 75, 81
1, 216567, Note_on_c, 0, 60, 75
1, 216590, Note_off_c, 0, 75, 62
1, 216652, Note_off_c, 0, 60, 54
1, 216682, Note_on_c, 0, 61, 78
1, 216685, Note_on_c, 0, 68, 69
1, 216692, Note_on_c, 0, 52, 67
1, 216739, Note_off_c, 0, 61, 59
1, 216781, Note_on_c, 0, 63, 76
1, 216835, Note_off_c, 0, 68, 51
1, 216863, Note_off_c, 0, 63, 60
1, 216872, Note_off_c, 0, 52, 58
1, 216881, Note_on_c, 0, 64, 79
1, 216952, Note_off_c, 0, 64, 59
1, 216977, Note_on_c, 0, 66, 78
1, 216982, Note_on_c, 0, 70, 78
1, 216989, Note_on_c, 0, 51, 56
1, 217056, Note_off_c, 0, 66, 57
1, 217070, Note_on_c, 0, 64, 75
1, 217117, Note_off_c, 0, 70, 57
1, 217151, Note_off_c, 0, 51, 36
1, 217166, Note_on_c, 0, 66, 76
1, 217179, Note_off_c, 0, 64, 46
1, 217259, Note_off_c, 0, 66, 58
1, 217270, Note_on_c, 0, 63, 79
1, 217270, Note_on_c, 0, 72, 75
1, 217289, Note_on_c, 0, 56, 58
1, 217381, Note_on_c, 0, 68, 73
1, 217387, Note_off_c, 0, 56, 55
1, 217402, Note_off_c, 0, 63, 52
1, 217414, Note_off_c, 0, 72, 54
1, 217483, Note_on_c, 0, 66, 70
1, 217522, Note_off_c, 0, 68, 41
1, 217566, Note_off_c, 0, 66, 59
1, 217574, Note_on_c, 0, 73, 72
1, 217577, Note_on_c, 0, 64, 67
1, 217596, Note_on_c, 0, 49, 47
1, 217673, Note_off_c, 0, 64, 57
1, 217685, Note_off_c, 0, 49, 38
1, 217685, Note_on_c, 0, 63, 63
1, 217771, Note_off_c, 0, 73, 40
1, 217781, Note_on_c, 0, 64, 67
1, 217781, Note_off_c, 0, 63, 60
1, 217824, Note_off_c, 0, 64, 53
1, 217876, Note_on_c, 0, 69, 72
1, 217885, Note_on_c, 0, 61, 57
1, 217885, Note_on_c, 0, 54, 54
1, 217957, Note_off_c, 0, 61, 52
1, 217983, Note_on_c, 0, 66, 61
1, 218001, Note_off_c, 0, 54, 39
1, 218073, Note_on_c, 0, 64, 67
1, 218171, Note_off_c, 0, 66, 34
1, 218174, Note_off_c, 0, 64, 60
1, 218186, Note_on_c, 0, 63, 68
1, 218192, Note_on_c, 0, 47, 53
1, 218275, Note_off_c, 0, 63, 60
1, 218284, Note_on_c, 0, 61, 58
1, 218336, Note_off_c, 0, 47, 38
1, 218364, Note_off_c, 0, 69, 58
1, 218369, Note_off_c, 0, 61, 60
1, 218386, Note_on_c, 0, 63, 60
1, 218464, Note_off_c, 0, 63, 51
1, 218478, Note_on_c, 0, 59, 60
1, 218481, Note_on_c, 0, 68, 58
1, 218497, Note_on_c, 0, 52, 54
1, 218565, Note_off_c, 0, 59, 49
1, 218575, Note_on_c, 0, 64, 55
1, 218594, Note_off_c, 0, 52, 53
1, 218652, Note_off_c, 0, 64, 57
1, 218664, Note_on_c, 0, 63, 52
1, 218750, Note_off_c, 0, 63, 58
1, 218770, Note_on_c, 0, 61, 46
1, 218779, Note_on_c, 0, 45, 55
1, 218833, Note_off_c, 0, 45, 55
1, 218860, Note_on_c, 0, 47, 53
1, 218879, Note_on_c, 0, 63, 54
1, 218923, Note_on_c, 0, 45, 58
1, 218923, Note_off_c, 0, 47, 58
1, 218952, Note_on_c, 0, 64, 61
1, 218966, Note_off_c, 0, 63, 44
1, 218980, Note_off_c, 0, 68, 40
1, 218982, Note_off_c, 0, 45, 56
1, 218988, Note_off_c, 0, 61, 44
1, 218998, Note_on_c, 0, 47, 59
1, 219049, Note_off_c, 0, 64, 57
1, 219058, Note_on_c, 0, 45, 63
1, 219059, Note_off_c, 0, 47, 59
1, 219065, Note_on_c, 0, 63, 68
1, 219068, Note_on_c, 0, 66, 49
1, 219118, Note_off_c, 0, 45, 56
1, 219125, Note_on_c, 0, 47, 57
1, 219158, Note_off_c, 0, 63, 46
1, 219165, Control_c, 0, 67, 16
1, 219170, Note_on_c, 0, 64, 65
1, 219173, Note_on_c, 0, 45, 61
1, 219179, Note_off_c, 0, 47, 59
1, 219180, Control_c, 0, 67, 19
1, 219195, Control_c, 0, 67, 22
1, 219210, Control_c, 0, 67, 25
1, 219224, Control_c, 0, 67, 27
1, 219237, Note_on_c, 0, 61, 55
1, 219238, Note_off_c, 0, 45, 56
1, 219239, Control_c, 0, 67, 28
1, 219246, Note_on_c, 0, 47, 53
1, 219269, Control_c, 0, 67, 29
1, 219280, Note_on_c, 0, 45, 45
1, 219290, Note_off_c, 0, 47, 57
1, 219292, Note_off_c, 0, 64, 34
1, 219323, Note_off_c, 0, 66, 33
1, 219325, Note_off_c, 0, 61, 55
1, 219328, Control_c, 0, 67, 29
1, 219358, Control_c, 0, 67, 30
1, 219361, Note_on_c, 0, 68, 61
1, 219369, Note_off_c, 0, 45, 58
1, 219371, Note_on_c, 0, 44, 62
1, 219371, Note_on_c, 0, 60, 53
1, 219387, Control_c, 0, 67, 30
1, 219402, Control_c, 0, 67, 31
1, 219417, Control_c, 0, 67, 32
1, 219473, Note_off_c, 0, 68, 56
1, 219477, Note_on_c, 0, 63, 58
1, 219491, Control_c, 0, 67, 31
1, 219506, Control_c, 0, 67, 31
1, 219536, Control_c, 0, 67, 30
1, 219550, Control_c, 0, 67, 29
1, 219565, Control_c, 0, 67, 28
1, 219572, Note_off_c, 0, 44, 56
1, 219580, Control_c, 0, 67, 27
1, 219587, Note_on_c, 0, 68, 62
1, 219589, Note_off_c, 0, 60, 53
1, 219602, Control_c, 0, 67, 26
1, 219605, Note_off_c, 0, 63, 49
1, 219617, Control_c, 0, 67, 25
1, 219647, Control_c, 0, 67, 25
1, 219662, Control_c, 0, 67, 24
1, 219676, Control_c, 0, 67, 24
1, 219696, Note_on_c, 0, 46, 75
1, 219700, Note_on_c, 0, 61, 72
1, 219721, Control_c, 0, 67, 23
1, 219765, Control_c, 0, 67, 23
1, 219781, Control_c, 0, 67, 22
1, 219802, Note_on_c, 0, 66, 67
1, 219811, Control_c, 0, 67, 22
1, 219823, Note_off_c, 0, 68, 48
1, 219826, Control_c, 0, 67, 38
1, 219855, Control_c, 0, 67, 38
1, 219870, Control_c, 0, 67, 37
1, 219885, Control_c, 0, 67, 36
1, 219900, Control_c, 0, 67, 34
1, 219906, Note_off_c, 0, 46, 57
1, 219906, Note_on_c, 0, 64, 74
1, 219914, Control_c, 0, 67, 30
1, 219929, Control_c, 0, 67, 25
1, 219937, Note_off_c, 0, 61, 52
1, 219942, Note_off_c, 0, 66, 53
1, 219944, Control_c, 0, 67, 22
1, 219959, Control_c, 0, 67, 20
1, 219973, Control_c, 0, 67, 19
1, 219988, Control_c, 0, 67, 17
1, 220010, Note_on_c, 0, 48, 78
1, 220011, Note_off_c, 0, 64, 51
1, 220017, Note_on_c, 0, 63, 75
1, 220103, Note_on_c, 0, 66, 66
1, 220215, Note_on_c, 0, 69, 72
1, 220237, Note_off_c, 0, 48, 61
1, 220246, Note_off_c, 0, 66, 41
1, 220248, Note_off_c, 0, 63, 51
1, 220270, Control_c, 0, 67, 0
1, 220340, Note_on_c, 0, 60, 69
1, 220341, Note_on_c, 0, 44, 59
1, 220437, Note_on_c, 0, 68, 65
1, 220462, Note_off_c, 0, 69, 43
1, 220529, Note_on_c, 0, 66, 65
1, 220545, Note_off_c, 0, 68, 58
1, 220555, Note_off_c, 0, 44, 60
1, 220555, Note_off_c, 0, 60, 24
1, 220555, Note_off_c, 0, 66, 66
1, 220645, Note_on_c, 0, 61, 66
1, 220657, Note_on_c, 0, 64, 52
1, 220661, Note_on_c, 0, 49, 56
1, 220663, Note_on_c, 0, 63, 54
1, 220759, Note_off_c, 0, 61, 36
1, 220776, Note_on_c, 0, 56, 61
1, 220835, Note_off_c, 0, 63, 35
1, 220842, Note_off_c, 0, 64, 36
1, 220842, Note_off_c, 0, 49, 51
1, 220848, Note_on_c, 0, 61, 69
1, 220879, Note_off_c, 0, 56, 52
1, 220948, Note_on_c, 0, 51, 60
1, 220951, Note_on_c, 0, 66, 78
1, 220985, Note_off_c, 0, 61, 44
1, 221039, Note_on_c, 0, 59, 70
1, 221087, Note_off_c, 0, 51, 45
1, 221098, Note_off_c, 0, 66, 56
1, 221152, Note_on_c, 0, 57, 76
1, 221191, Note_off_c, 0, 59, 58
1, 221198, Note_off_c, 0, 57, 59
1, 221253, Note_on_c, 0, 68, 78
1, 221264, Note_on_c, 0, 56, 73
1, 221281, Note_on_c, 0, 52, 61
1, 221361, Note_on_c, 0, 59, 69
1, 221363, Note_off_c, 0, 56, 59
1, 221480, Note_off_c, 0, 52, 55
1, 221483, Note_on_c, 0, 62, 76
1, 221488, Note_off_c, 0, 59, 58
1, 221569, Note_on_c, 0, 53, 72
1, 221574, Control_c, 0, 64, 27
1, 221589, Control_c, 0, 64, 45
1, 221603, Control_c, 0, 64, 52
1, 221618, Control_c, 0, 64, 55
1, 221633, Control_c, 0, 64, 57
1, 221648, Control_c, 0, 64, 59
1, 221663, Control_c, 0, 64, 60
1, 221664, Note_off_c, 0, 68, 43
1, 221665, Note_off_c, 0, 62, 34
1, 221677, Control_c, 0, 64, 61
1, 221687, Note_on_c, 0, 61, 65
1, 221692, Control_c, 0, 64, 62
1, 221707, Control_c, 0, 64, 63
1, 221722, Control_c, 0, 64, 63
1, 221737, Control_c, 0, 64, 64
1, 221765, Note_off_c, 0, 61, 53
1, 221766, Control_c, 0, 64, 64
1, 221784, Note_on_c, 0, 59, 60
1, 221791, Note_off_c, 0, 53, 52
1, 221804, Note_off_c, 0, 59, 62
1, 221823, Note_on_c, 0, 60, 29
1, 221841, Control_c, 0, 64, 63
1, 221863, Control_c, 0, 64, 58
1, 221870, Note_off_c, 0, 60, 33
1, 221878, Control_c, 0, 64, 47
1, 221893, Control_c, 0, 64, 36
1, 221895, Note_on_c, 0, 57, 62
1, 221900, Note_on_c, 0, 78, 81
1, 221904, Note_on_c, 0, 54, 57
1, 221908, Control_c, 0, 64, 0
1, 221954, Note_off_c, 0, 57, 59
1, 221998, Note_on_c, 0, 59, 61
1, 222100, Note_on_c, 0, 61, 62
1, 222118, Note_off_c, 0, 59, 42
1, 222145, Note_off_c, 0, 61, 60
1, 222160, Note_off_c, 0, 54, 60
1, 222209, Note_on_c, 0, 50, 49
1, 222312, Note_on_c, 0, 54, 52
1, 222343, Note_off_c, 0, 50, 56
1, 222412, Note_on_c, 0, 59, 53
1, 222487, Note_off_c, 0, 59, 54
1, 222492, Note_off_c, 0, 54, 35
1, 222514, Note_on_c, 0, 77, 71
1, 222526, Note_on_c, 0, 49, 50
1, 222550, Note_off_c, 0, 78, 55
1, 222590, Control_c, 0, 67, 17
1, 222613, Control_c, 0, 67, 24
1, 222627, Control_c, 0, 67, 31
1, 222642, Control_c, 0, 67, 39
1, 222648, Note_on_c, 0, 58, 44
1, 222657, Control_c, 0, 67, 45
1, 222672, Control_c, 0, 67, 51
1, 222687, Control_c, 0, 67, 56
1, 222701, Control_c, 0, 67, 59
1, 222716, Control_c, 0, 67, 61
1, 222731, Control_c, 0, 67, 62
1, 222732, Note_on_c, 0, 56, 50
1, 222738, Note_off_c, 0, 58, 46
1, 222760, Control_c, 0, 67, 62
1, 222809, Note_off_c, 0, 49, 52
1, 222820, Control_c, 0, 67, 62
1, 222824, Note_on_c, 0, 76, 81
1, 222834, Control_c, 0, 67, 60
1, 222842, Note_off_c, 0, 56, 56
1, 222849, Control_c, 0, 67, 57
1, 222854, Note_on_c, 0, 58, 55
1, 222854, Note_off_c, 0, 77, 52
1, 222858, Note_on_c, 0, 54, 51
1, 222864, Control_c, 0, 67, 56
1, 222879, Control_c, 0, 67, 54
1, 222893, Control_c, 0, 67, 53
1, 222896, Note_on_c, 0, 52, 30
1, 222908, Control_c, 0, 67, 52
1, 222923, Control_c, 0, 67, 51
1, 222938, Control_c, 0, 67, 50
1, 222953, Control_c, 0, 64, 32
1, 222953, Control_c, 0, 67, 50
1, 222953, Note_off_c, 0, 54, 62
1, 222969, Control_c, 0, 64, 46
1, 222969, Control_c, 0, 67, 49
1, 222984, Control_c, 0, 64, 52
1, 222998, Control_c, 0, 64, 55
1, 222998, Control_c, 0, 67, 49
1, 223002, Note_off_c, 0, 52, 56
1, 223013, Control_c, 0, 64, 56
1, 223013, Control_c, 0, 67, 48
1, 223028, Control_c, 0, 64, 57
1, 223028, Control_c, 0, 67, 48
1, 223030, Note_on_c, 0, 54, 54
1, 223039, Note_off_c, 0, 58, 60
1, 223043, Control_c, 0, 64, 58
1, 223043, Control_c, 0, 67, 47
1, 223057, Control_c, 0, 64, 59
1, 223057, Control_c, 0, 67, 46
1, 223072, Control_c, 0, 64, 60
1, 223072, Control_c, 0, 67, 45
1, 223087, Control_c, 0, 67, 44
1, 223102, Control_c, 0, 67, 43
1, 223105, Note_off_c, 0, 54, 61
1, 223116, Control_c, 0, 64, 59
1, 223116, Control_c, 0, 67, 42
1, 223131, Control_c, 0, 64, 54
1, 223131, Control_c, 0, 67, 41
1, 223136, Note_on_c, 0, 75, 73
1, 223141, Note_on_c, 0, 59, 57
1, 223146, Control_c, 0, 64, 48
1, 223146, Control_c, 0, 67, 41
1, 223148, Note_on_c, 0, 47, 56
1, 223161, Control_c, 0, 64, 26
1, 223161, Control_c, 0, 67, 40
1, 223176, Control_c, 0, 64, 0
1, 223176, Control_c, 0, 67, 40
1, 223197, Note_off_c, 0, 76, 57
1, 223206, Control_c, 0, 67, 39
1, 223221, Control_c, 0, 67, 38
1, 223242, Note_on_c, 0, 56, 52
1, 223250, Control_c, 0, 67, 38
1, 223265, Control_c, 0, 67, 37
1, 223295, Control_c, 0, 67, 36
1, 223307, Note_off_c, 0, 59, 41
1, 223310, Control_c, 0, 67, 34
1, 223324, Control_c, 0, 67, 31
1, 223329, Note_off_c, 0, 56, 56
1, 223332, Note_on_c, 0, 54, 51
1, 223346, Control_c, 0, 67, 38
1, 223361, Control_c, 0, 67, 34
1, 223376, Control_c, 0, 67, 30
1, 223391, Control_c, 0, 67, 26
1, 223391, Note_off_c, 0, 47, 18
1, 223400, Note_off_c, 0, 54, 50
1, 223406, Control_c, 0, 67, 22
1, 223421, Control_c, 0, 67, 19
1, 223435, Control_c, 0, 67, 16
1, 223447, Note_on_c, 0, 80, 80
1, 223450, Note_on_c, 0, 71, 77
1, 223474, Note_off_c, 0, 75, 60
1, 223479, Note_on_c, 0, 53, 52
1, 223480, Control_c, 0, 67, 0
1, 223580, Note_off_c, 0, 53, 54
1, 223587, Note_on_c, 0, 51, 47
1, 223680, Note_off_c, 0, 51, 55
1, 223686, Note_on_c, 0, 53, 55
1, 223781, Note_on_c, 0, 73, 81
1, 223785, Note_on_c, 0, 70, 81
1, 223787, Note_off_c, 0, 53, 56
1, 223792, Note_on_c, 0, 54, 56
1, 223817, Note_off_c, 0, 71, 60
1, 223838, Note_off_c, 0, 80, 56
1, 223853, Note_off_c, 0, 54, 60
1, 223868, Note_on_c, 0, 56, 57
1, 223967, Note_off_c, 0, 56, 56
1, 223969, Note_on_c, 0, 52, 55
1, 224070, Note_on_c, 0, 51, 52
1, 224071, Note_off_c, 0, 52, 58
1, 224103, Note_on_c, 0, 78, 75
1, 224112, Note_on_c, 0, 69, 67
1, 224145, Note_off_c, 0, 73, 61
1, 224162, Note_off_c, 0, 70, 48
1, 224165, Note_off_c, 0, 51, 60
1, 224206, Note_on_c, 0, 52, 57
1, 224292, Note_off_c, 0, 52, 56
1, 224300, Note_on_c, 0, 49, 54
1, 224404, Note_off_c, 0, 49, 51
1, 224427, Note_on_c, 0, 48, 44
1, 224428, Note_on_c, 0, 68, 61
1, 224508, Note_off_c, 0, 69, 37
1, 224519, Note_off_c, 0, 48, 56
1, 224523, Note_on_c, 0, 49, 55
1, 224544, Note_off_c, 0, 78, 55
1, 224605, Note_off_c, 0, 49, 52
1, 224607, Note_on_c, 0, 51, 53
1, 224699, Note_off_c, 0, 51, 56
1, 224729, Note_off_c, 0, 68, 58
1, 224731, Note_on_c, 0, 52, 42
1, 224738, Note_on_c, 0, 76, 65
1, 224765, Note_on_c, 0, 73, 55
1, 224796, Note_off_c, 0, 52, 51
1, 224822, Note_on_c, 0, 51, 44
1, 224822, Control_c, 0, 67, 16
1, 224844, Control_c, 0, 67, 17
1, 224859, Control_c, 0, 67, 17
1, 224874, Control_c, 0, 67, 18
1, 224889, Control_c, 0, 67, 19
1, 224899, Note_on_c, 0, 49, 40
1, 224903, Control_c, 0, 67, 20
1, 224918, Control_c, 0, 67, 21
1, 224933, Control_c, 0, 67, 22
1, 224938, Note_off_c, 0, 51, 35
1, 224947, Control_c, 0, 67, 22
1, 224962, Control_c, 0, 67, 23
1, 224976, Note_off_c, 0, 49, 61
1, 225007, Control_c, 0, 67, 22
1, 225021, Control_c, 0, 67, 21
1, 225035, Note_on_c, 0, 56, 49
1, 225036, Control_c, 0, 67, 20
1, 225043, Note_on_c, 0, 75, 61
1, 225051, Control_c, 0, 67, 19
1, 225066, Control_c, 0, 67, 18
1, 225081, Control_c, 0, 67, 18
1, 225096, Control_c, 0, 67, 17
1, 225097, Note_off_c, 0, 76, 35
1, 225122, Note_off_c, 0, 56, 38
1, 225126, Control_c, 0, 67, 16
1, 225146, Note_on_c, 0, 71, 57
1, 225177, Note_off_c, 0, 73, 34
1, 225247, Note_off_c, 0, 71, 57
1, 225260, Note_on_c, 0, 70, 65
1, 225270, Note_on_c, 0, 51, 61
1, 225300, Note_off_c, 0, 75, 53
1, 225323, Note_off_c, 0, 51, 54
1, 225337, Note_off_c, 0, 70, 57
1, 225353, Note_on_c, 0, 76, 69
1, 225361, Note_on_c, 0, 71, 69
1, 225372, Note_on_c, 0, 56, 72
1, 225378, Control_c, 0, 67, 17
1, 225438, Control_c, 0, 67, 17
1, 225452, Note_off_c, 0, 71, 36
1, 225467, Note_on_c, 0, 73, 61
1, 225512, Control_c, 0, 67, 18
1, 225556, Control_c, 0, 67, 18
1, 225560, Note_on_c, 0, 71, 67
1, 225560, Note_off_c, 0, 73, 56
1, 225635, Note_off_c, 0, 56, 58
1, 225649, Note_off_c, 0, 71, 51
1, 225676, Note_on_c, 0, 55, 80
1, 225676, Note_on_c, 0, 70, 74
1, 225712, Control_c, 0, 67, 18
1, 225775, Note_on_c, 0, 71, 69
1, 225781, Note_off_c, 0, 70, 59
1, 225878, Note_on_c, 0, 73, 75
1, 225886, Note_off_c, 0, 71, 60
1, 225924, Note_off_c, 0, 76, 41
1, 225938, Note_off_c, 0, 55, 58
1, 225957, Note_off_c, 0, 73, 61
1, 225996, Note_on_c, 0, 71, 70
1, 225996, Note_on_c, 0, 75, 71
1, 225998, Note_on_c, 0, 54, 77
1, 226093, Note_off_c, 0, 71, 34
1, 226099, Note_on_c, 0, 73, 66
1, 226180, Note_on_c, 0, 70, 64
1, 226201, Control_c, 0, 67, 17
1, 226226, Note_off_c, 0, 73, 56
1, 226231, Control_c, 0, 67, 17
1, 226283, Note_off_c, 0, 54, 35
1, 226288, Note_on_c, 0, 68, 70
1, 226294, Note_off_c, 0, 70, 59
1, 226295, Note_on_c, 0, 53, 70
1, 226295, Note_off_c, 0, 75, 0
1, 226295, Note_on_c, 0, 75, 3
1, 226387, Control_c, 0, 67, 16
1, 226418, Note_on_c, 0, 73, 64
1, 226452, Note_off_c, 0, 75, 44
1, 226518, Note_off_c, 0, 73, 61
1, 226543, Note_on_c, 0, 71, 43
1, 226561, Note_on_c, 0, 72, 36
1, 226561, Note_off_c, 0, 53, 55
1, 226593, Control_c, 0, 67, 16
1, 226601, Note_off_c, 0, 72, 46
1, 226614, Note_on_c, 0, 58, 66
1, 226633, Note_on_c, 0, 73, 71
1, 226666, Note_off_c, 0, 71, 40
1, 226722, Note_off_c, 0, 73, 61
1, 226723, Note_on_c, 0, 75, 68
1, 226831, Note_on_c, 0, 76, 67
1, 226837, Note_off_c, 0, 58, 51
1, 226863, Note_off_c, 0, 68, 47
1, 226872, Note_off_c, 0, 75, 50
1, 226919, Note_on_c, 0, 51, 56
1, 226935, Note_on_c, 0, 67, 67
1, 227020, Note_on_c, 0, 75, 63
1, 227046, Note_off_c, 0, 67, 55
1, 227135, Note_on_c, 0, 73, 68
1, 227155, Note_off_c, 0, 76, 41
1, 227185, Note_off_c, 0, 75, 57
1, 227211, Note_off_c, 0, 51, 35
1, 227225, Note_on_c, 0, 71, 67
1, 227236, Note_off_c, 0, 73, 61
1, 227237, Note_on_c, 0, 68, 60
1, 227284, Control_c, 0, 67, 17
1, 227298, Control_c, 0, 67, 18
1, 227313, Control_c, 0, 67, 19
1, 227317, Note_off_c, 0, 71, 61
1, 227323, Note_on_c, 0, 73, 64
1, 227328, Control_c, 0, 67, 20
1, 227337, Note_on_c, 0, 52, 61
1, 227342, Control_c, 0, 67, 21
1, 227357, Control_c, 0, 67, 22
1, 227372, Control_c, 0, 67, 22
1, 227387, Control_c, 0, 67, 23
1, 227406, Note_off_c, 0, 73, 62
1, 227406, Note_off_c, 0, 52, 58
1, 227407, Note_on_c, 0, 51, 67
1, 227425, Note_on_c, 0, 71, 66
1, 227431, Control_c, 0, 67, 23
1, 227461, Control_c, 0, 67, 24
1, 227490, Control_c, 0, 67, 24
1, 227505, Control_c, 0, 67, 25
1, 227507, Note_on_c, 0, 49, 65
1, 227513, Note_off_c, 0, 51, 55
1, 227513, Note_off_c, 0, 71, 61
1, 227516, Note_on_c, 0, 70, 67
1, 227520, Control_c, 0, 67, 26
1, 227535, Control_c, 0, 67, 27
1, 227549, Control_c, 0, 67, 28
1, 227564, Control_c, 0, 67, 28
1, 227594, Control_c, 0, 67, 29
1, 227601, Note_off_c, 0, 49, 63
1, 227607, Note_on_c, 0, 47, 66
1, 227609, Control_c, 0, 67, 30
1, 227624, Control_c, 0, 67, 31
1, 227638, Control_c, 0, 67, 32
1, 227653, Control_c, 0, 67, 33
1, 227668, Control_c, 0, 67, 35
1, 227677, Note_off_c, 0, 68, 50
1, 227683, Control_c, 0, 67, 35
1, 227698, Control_c, 0, 67, 36
1, 227713, Control_c, 0, 67, 37
1, 227718, Note_off_c, 0, 47, 60
1, 227722, Note_on_c, 0, 49, 65
1, 227728, Control_c, 0, 67, 38
1, 227742, Control_c, 0, 67, 39
1, 227758, Control_c, 0, 67, 41
1, 227773, Control_c, 0, 67, 44
1, 227788, Control_c, 0, 67, 48
1, 227798, Note_off_c, 0, 70, 53
1, 227802, Control_c, 0, 67, 51
1, 227810, Note_off_c, 0, 49, 58
1, 227811, Note_on_c, 0, 67, 63
1, 227817, Control_c, 0, 67, 54
1, 227839, Control_c, 0, 67, 57
1, 227848, Note_on_c, 0, 46, 53
1, 227854, Control_c, 0, 67, 60
1, 227870, Control_c, 0, 67, 62
1, 227885, Control_c, 0, 67, 63
1, 227900, Control_c, 0, 67, 64
1, 227914, Control_c, 0, 67, 64
1, 227925, Note_on_c, 0, 51, 51
1, 227929, Control_c, 0, 67, 65
1, 227937, Note_off_c, 0, 46, 51
1, 227944, Control_c, 0, 67, 66
1, 227959, Control_c, 0, 67, 68
1, 227969, Note_off_c, 0, 67, 54
1, 227973, Control_c, 0, 67, 69
1, 227988, Control_c, 0, 67, 71
1, 228042, Note_on_c, 0, 49, 49
1, 228066, Note_off_c, 0, 51, 35
1, 228092, Control_c, 0, 67, 70
1, 228107, Control_c, 0, 67, 70
1, 228119, Note_off_c, 0, 49, 56
1, 228121, Control_c, 0, 67, 69
1, 228130, Note_on_c, 0, 75, 66
1, 228136, Control_c, 0, 67, 69
1, 228137, Note_on_c, 0, 47, 53
1, 228137, Note_on_c, 0, 68, 52
1, 228151, Control_c, 0, 67, 68
1, 228166, Control_c, 0, 67, 68
1, 228181, Control_c, 0, 67, 67
1, 228196, Control_c, 0, 67, 66
1, 228211, Control_c, 0, 67, 65
1, 228221, Note_on_c, 0, 73, 71
1, 228226, Note_off_c, 0, 47, 53
1, 228227, Note_off_c, 0, 75, 60
1, 228229, Note_on_c, 0, 46, 51
1, 228240, Control_c, 0, 67, 65
1, 228255, Control_c, 0, 67, 64
1, 228270, Control_c, 0, 67, 64
1, 228285, Control_c, 0, 67, 63
1, 228299, Control_c, 0, 67, 62
1, 228314, Control_c, 0, 67, 62
1, 228315, Note_off_c, 0, 46, 54
1, 228329, Control_c, 0, 67, 61
1, 228333, Note_on_c, 0, 75, 74
1, 228338, Note_off_c, 0, 73, 61
1, 228341, Note_on_c, 0, 47, 60
1, 228344, Control_c, 0, 67, 60
1, 228359, Control_c, 0, 67, 60
1, 228373, Control_c, 0, 67, 59
1, 228388, Control_c, 0, 67, 58
1, 228403, Control_c, 0, 67, 56
1, 228418, Control_c, 0, 67, 52
1, 228424, Note_on_c, 0, 71, 76
1, 228425, Note_off_c, 0, 47, 57
1, 228432, Note_on_c, 0, 44, 61
1, 228433, Control_c, 0, 67, 46
1, 228441, Note_off_c, 0, 75, 56
1, 228447, Control_c, 0, 67, 38
1, 228462, Control_c, 0, 67, 30
1, 228477, Control_c, 0, 67, 24
1, 228491, Control_c, 0, 67, 18
1, 228521, Control_c, 0, 67, 0
1, 228524, Note_on_c, 0, 49, 62
1, 228529, Note_on_c, 0, 76, 82
1, 228540, Note_off_c, 0, 71, 59
1, 228636, Note_off_c, 0, 44, 36
1, 228637, Note_on_c, 0, 75, 81
1, 228640, Note_on_c, 0, 47, 65
1, 228643, Note_off_c, 0, 49, 58
1, 228674, Note_off_c, 0, 76, 61
1, 228732, Note_on_c, 0, 73, 82
1, 228751, Note_off_c, 0, 47, 54
1, 228753, Note_on_c, 0, 46, 61
1, 228769, Note_off_c, 0, 75, 60
1, 228825, Note_on_c, 0, 71, 77
1, 228851, Note_off_c, 0, 73, 61
1, 228861, Note_off_c, 0, 46, 50
1, 228885, Note_off_c, 0, 68, 39
1, 228927, Note_on_c, 0, 73, 83
1, 228933, Note_off_c, 0, 71, 63
1, 229021, Note_on_c, 0, 70, 77
1, 229028, Note_on_c, 0, 51, 53
1, 229034, Note_off_c, 0, 73, 61
1, 229035, Note_on_c, 0, 66, 62
1, 229132, Note_on_c, 0, 75, 75
1, 229191, Note_off_c, 0, 51, 35
1, 229232, Note_on_c, 0, 73, 71
1, 229262, Note_off_c, 0, 70, 41
1, 229282, Note_off_c, 0, 75, 58
1, 229324, Note_on_c, 0, 44, 41
1, 229341, Note_on_c, 0, 72, 73
1, 229373, Note_off_c, 0, 66, 48
1, 229384, Note_off_c, 0, 73, 56
1, 229432, Note_on_c, 0, 70, 65
1, 229440, Control_c, 0, 64, 42
1, 229450, Note_off_c, 0, 72, 60
1, 229455, Control_c, 0, 64, 51
1, 229470, Control_c, 0, 64, 54
1, 229484, Control_c, 0, 64, 56
1, 229499, Control_c, 0, 64, 57
1, 229514, Control_c, 0, 64, 58
1, 229528, Note_off_c, 0, 44, 58
1, 229529, Control_c, 0, 64, 59
1, 229535, Note_on_c, 0, 68, 64
1, 229540, Note_off_c, 0, 70, 58
1, 229543, Control_c, 0, 64, 59
1, 229562, Note_off_c, 0, 68, 65
1, 229573, Control_c, 0, 64, 58
1, 229588, Control_c, 0, 64, 53
1, 229603, Control_c, 0, 64, 45
1, 229618, Control_c, 0, 64, 46
1, 229633, Control_c, 0, 64, 38
1, 229635, Note_on_c, 0, 73, 66
1, 229645, Note_on_c, 0, 64, 55
1, 229648, Control_c, 0, 64, 25
1, 229663, Control_c, 0, 64, 0
1, 229728, Note_off_c, 0, 64, 59
1, 229737, Note_on_c, 0, 63, 62
1, 229821, Note_off_c, 0, 63, 59
1, 229829, Note_on_c, 0, 61, 68
1, 229863, Note_off_c, 0, 61, 57
1, 229932, Note_on_c, 0, 63, 71
1, 229942, Note_on_c, 0, 56, 47
1, 230026, Note_off_c, 0, 56, 58
1, 230036, Note_on_c, 0, 54, 55
1, 230113, Note_off_c, 0, 73, 59
1, 230145, Note_off_c, 0, 54, 57
1, 230163, Note_on_c, 0, 56, 55
1, 230242, Note_off_c, 0, 56, 52
1, 230251, Note_on_c, 0, 71, 71
1, 230262, Note_on_c, 0, 51, 48
1, 230359, Note_on_c, 0, 56, 42
1, 230385, Note_off_c, 0, 51, 34
1, 230426, Note_off_c, 0, 56, 54
1, 230438, Note_on_c, 0, 54, 51
1, 230533, Note_off_c, 0, 54, 57
1, 230545, Note_on_c, 0, 53, 51
1, 230566, Note_on_c, 0, 61, 59
1, 230604, Control_c, 0, 67, 17
1, 230616, Note_off_c, 0, 63, 55
1, 230619, Control_c, 0, 67, 18
1, 230633, Control_c, 0, 67, 18
1, 230640, Note_off_c, 0, 53, 54
1, 230647, Note_on_c, 0, 51, 42
1, 230737, Control_c, 0, 67, 18
1, 230748, Note_on_c, 0, 49, 50
1, 230766, Control_c, 0, 67, 17
1, 230775, Note_off_c, 0, 51, 35
1, 230796, Control_c, 0, 67, 17
1, 230850, Note_off_c, 0, 49, 53
1, 230879, Note_on_c, 0, 54, 47
1, 230882, Note_on_c, 0, 70, 65
1, 230892, Control_c, 0, 67, 17
1, 230922, Control_c, 0, 67, 18
1, 230926, Note_off_c, 0, 71, 36
1, 230937, Control_c, 0, 67, 18
1, 230968, Control_c, 0, 67, 19
1, 230980, Note_on_c, 0, 68, 59
1, 230997, Control_c, 0, 67, 19
1, 231005, Note_off_c, 0, 70, 49
1, 231012, Control_c, 0, 67, 20
1, 231027, Control_c, 0, 67, 21
1, 231042, Control_c, 0, 67, 21
1, 231056, Control_c, 0, 67, 22
1, 231070, Note_on_c, 0, 66, 61
1, 231071, Control_c, 0, 67, 23
1, 231072, Note_off_c, 0, 68, 58
1, 231086, Control_c, 0, 67, 24
1, 231100, Note_off_c, 0, 61, 43
1, 231101, Control_c, 0, 67, 25
1, 231115, Control_c, 0, 67, 26
1, 231130, Control_c, 0, 67, 28
1, 231138, Note_off_c, 0, 66, 45
1, 231145, Control_c, 0, 67, 28
1, 231160, Control_c, 0, 67, 29
1, 231175, Control_c, 0, 67, 29
1, 231184, Note_on_c, 0, 68, 63
1, 231189, Control_c, 0, 67, 30
1, 231190, Note_on_c, 0, 59, 49
1, 231219, Control_c, 0, 67, 30
1, 231278, Note_off_c, 0, 59, 56
1, 231299, Note_on_c, 0, 58, 49
1, 231308, Control_c, 0, 67, 30
1, 231338, Control_c, 0, 67, 29
1, 231353, Control_c, 0, 67, 28
1, 231368, Control_c, 0, 67, 28
1, 231382, Control_c, 0, 67, 27
1, 231397, Control_c, 0, 67, 26
1, 231406, Note_off_c, 0, 58, 46
1, 231411, Note_on_c, 0, 59, 52
1, 231412, Control_c, 0, 67, 24
1, 231427, Control_c, 0, 67, 23
1, 231442, Control_c, 0, 67, 21
1, 231456, Control_c, 0, 67, 20
1, 231471, Note_off_c, 0, 59, 57
1, 231471, Control_c, 0, 67, 19
1, 231484, Note_off_c, 0, 54, 45
1, 231485, Note_on_c, 0, 52, 49
1, 231486, Control_c, 0, 67, 18
1, 231500, Note_on_c, 0, 56, 61
1, 231500, Control_c, 0, 67, 17
1, 231515, Control_c, 0, 67, 17
1, 231530, Control_c, 0, 67, 16
1, 231583, Note_off_c, 0, 56, 58
1, 231609, Note_on_c, 0, 61, 53
1, 231641, Control_c, 0, 67, 0
1, 231659, Note_off_c, 0, 61, 60
1, 231708, Note_on_c, 0, 59, 61
1, 231803, Note_on_c, 0, 58, 69
1, 231803, Note_off_c, 0, 59, 58
1, 231818, Note_on_c, 0, 66, 73
1, 231862, Note_off_c, 0, 68, 54
1, 231909, Control_c, 0, 64, 30
1, 231913, Note_on_c, 0, 56, 66
1, 231916, Note_off_c, 0, 58, 57
1, 231924, Control_c, 0, 64, 50
1, 231938, Control_c, 0, 64, 60
1, 231953, Control_c, 0, 64, 63
1, 231968, Control_c, 0, 64, 64
1, 231983, Control_c, 0, 64, 65
1, 231998, Note_on_c, 0, 54, 71
1, 231998, Control_c, 0, 64, 65
1, 232012, Control_c, 0, 64, 66
1, 232015, Note_off_c, 0, 56, 61
1, 232027, Control_c, 0, 64, 66
1, 232032, Note_off_c, 0, 52, 25
1, 232035, Note_off_c, 0, 54, 65
1, 232056, Control_c, 0, 64, 66
1, 232071, Control_c, 0, 64, 65
1, 232086, Control_c, 0, 64, 62
1, 232101, Note_on_c, 0, 59, 70
1, 232101, Control_c, 0, 64, 55
1, 232110, Note_on_c, 0, 51, 66
1, 232116, Control_c, 0, 64, 46
1, 232131, Control_c, 0, 64, 32
1, 232146, Control_c, 0, 64, 0
1, 232198, Note_on_c, 0, 49, 72
1, 232200, Note_off_c, 0, 51, 58
1, 232291, Note_off_c, 0, 49, 63
1, 232292, Note_on_c, 0, 47, 75
1, 232404, Note_on_c, 0, 64, 71
1, 232406, Note_on_c, 0, 49, 76
1, 232410, Note_off_c, 0, 66, 60
1, 232461, Note_off_c, 0, 47, 57
1, 232503, Note_on_c, 0, 63, 70
1, 232520, Note_off_c, 0, 64, 58
1, 232613, Note_off_c, 0, 63, 59
1, 232614, Note_on_c, 0, 64, 73
1, 232620, Note_off_c, 0, 59, 45
1, 232659, Note_off_c, 0, 49, 57
1, 232724, Note_on_c, 0, 54, 64
1, 232735, Note_on_c, 0, 61, 63
1, 232757, Note_on_c, 0, 58, 45
1, 232804, Note_off_c, 0, 64, 31
1, 232837, Note_on_c, 0, 66, 57
1, 232849, Note_off_c, 0, 61, 54
1, 232928, Note_on_c, 0, 64, 68
1, 232932, Note_off_c, 0, 66, 57
1, 232957, Note_off_c, 0, 58, 57
1, 232980, Note_off_c, 0, 54, 36
1, 232995, Note_off_c, 0, 64, 57
1, 233034, Note_on_c, 0, 63, 72
1, 233064, Note_on_c, 0, 47, 50
1, 233082, Note_on_c, 0, 59, 37
1, 233149, Note_off_c, 0, 63, 53
1, 233156, Note_on_c, 0, 66, 68
1, 233182, Note_off_c, 0, 47, 46
1, 233204, Note_off_c, 0, 59, 0
1, 233228, Note_on_c, 0, 59, 5
1, 233250, Note_on_c, 0, 71, 74
1, 233269, Note_off_c, 0, 66, 57
1, 233369, Note_on_c, 0, 61, 66
1, 233395, Note_off_c, 0, 59, 45
1, 233469, Note_on_c, 0, 69, 75
1, 233522, Note_off_c, 0, 61, 56
1, 233523, Note_off_c, 0, 71, 43
1, 233565, Note_on_c, 0, 68, 79
1, 233575, Note_off_c, 0, 69, 62
1, 233577, Note_on_c, 0, 59, 49
1, 233654, Note_off_c, 0, 68, 54
1, 233656, Note_off_c, 0, 59, 56
1, 233660, Note_on_c, 0, 66, 78
1, 233666, Note_on_c, 0, 63, 51
1, 233676, Note_on_c, 0, 57, 59
1, 233714, Note_off_c, 0, 66, 59
1, 233768, Note_on_c, 0, 77, 75
1, 233846, Note_off_c, 0, 57, 57
1, 233876, Note_on_c, 0, 78, 82
1, 233892, Note_off_c, 0, 77, 57
1, 233958, Note_off_c, 0, 63, 45
1, 233977, Control_c, 0, 64, 16
1, 233979, Note_off_c, 0, 78, 54
1, 233979, Note_on_c, 0, 80, 79
1, 233991, Control_c, 0, 64, 25
1, 234004, Note_on_c, 0, 56, 53
1, 234006, Note_on_c, 0, 65, 45
1, 234006, Control_c, 0, 64, 34
1, 234021, Control_c, 0, 64, 42
1, 234036, Control_c, 0, 64, 50
1, 234050, Control_c, 0, 64, 55
1, 234065, Control_c, 0, 64, 59
1, 234080, Control_c, 0, 64, 61
1, 234082, Note_on_c, 0, 73, 81
1, 234095, Control_c, 0, 64, 63
1, 234095, Control_c, 0, 67, 17
1, 234104, Note_off_c, 0, 80, 55
1, 234110, Control_c, 0, 64, 64
1, 234110, Control_c, 0, 67, 24
1, 234125, Control_c, 0, 64, 65
1, 234125, Control_c, 0, 67, 30
1, 234140, Control_c, 0, 64, 65
1, 234140, Control_c, 0, 67, 36
1, 234154, Note_off_c, 0, 73, 60
1, 234155, Control_c, 0, 64, 66
1, 234155, Control_c, 0, 67, 40
1, 234170, Control_c, 0, 64, 67
1, 234170, Control_c, 0, 67, 42
1, 234176, Note_on_c, 0, 71, 77
1, 234193, Note_off_c, 0, 56, 48
1, 234196, Note_off_c, 0, 65, 42
1, 234199, Control_c, 0, 67, 40
1, 234205, Note_off_c, 0, 71, 60
1, 234214, Control_c, 0, 67, 38
1, 234229, Control_c, 0, 67, 38
1, 234244, Control_c, 0, 64, 66
1, 234244, Control_c, 0, 67, 37
1, 234259, Control_c, 0, 64, 65
1, 234259, Control_c, 0, 67, 37
1, 234274, Control_c, 0, 64, 61
1, 234274, Control_c, 0, 67, 35
1, 234286, Note_on_c, 0, 69, 65
1, 234287, Note_on_c, 0, 66, 65
1, 234289, Control_c, 0, 64, 54
1, 234289, Control_c, 0, 67, 34
1, 234304, Control_c, 0, 64, 47
1, 234304, Control_c, 0, 67, 34
1, 234310, Note_on_c, 0, 54, 54
1, 234319, Control_c, 0, 64, 40
1, 234333, Control_c, 0, 64, 33
1, 234348, Control_c, 0, 64, 28
1, 234360, Note_off_c, 0, 66, 53
1, 234363, Control_c, 0, 64, 23
1, 234378, Control_c, 0, 64, 16
1, 234378, Control_c, 0, 67, 33
1, 234392, Note_on_c, 0, 61, 61
1, 234393, Control_c, 0, 67, 32
1, 234407, Control_c, 0, 67, 31
1, 234422, Control_c, 0, 64, 0
1, 234422, Control_c, 0, 67, 30
1, 234437, Control_c, 0, 67, 30
1, 234451, Control_c, 0, 67, 29
1, 234466, Control_c, 0, 67, 27
1, 234481, Control_c, 0, 67, 23
1, 234486, Note_on_c, 0, 66, 62
1, 234496, Control_c, 0, 67, 19
1, 234511, Control_c, 0, 67, 38
1, 234521, Note_off_c, 0, 61, 40
1, 234524, Note_off_c, 0, 69, 45
1, 234525, Control_c, 0, 64, 29
1, 234525, Control_c, 0, 67, 33
1, 234540, Control_c, 0, 64, 47
1, 234540, Control_c, 0, 67, 30
1, 234555, Note_on_c, 0, 56, 59
1, 234555, Control_c, 0, 64, 58
1, 234555, Control_c, 0, 67, 28
1, 234567, Note_off_c, 0, 66, 61
1, 234570, Control_c, 0, 64, 63
1, 234570, Control_c, 0, 67, 26
1, 234593, Control_c, 0, 64, 64
1, 234593, Control_c, 0, 67, 25
1, 234618, Note_off_c, 0, 54, 36
1, 234623, Control_c, 0, 64, 65
1, 234623, Control_c, 0, 67, 25
1, 234635, Note_off_c, 0, 56, 59
1, 234638, Control_c, 0, 64, 65
1, 234659, Note_on_c, 0, 64, 57
1, 234667, Control_c, 0, 64, 65
1, 234682, Control_c, 0, 64, 61
1, 234697, Control_c, 0, 64, 51
1, 234712, Control_c, 0, 64, 40
1, 234727, Control_c, 0, 64, 23
1, 234741, Control_c, 0, 64, 0
1, 234742, Note_off_c, 0, 64, 51
1, 234743, Note_on_c, 0, 63, 54
1, 234760, Note_on_c, 0, 78, 72
1, 234845, Control_c, 0, 67, 24
1, 234859, Control_c, 0, 67, 24
1, 234867, Note_on_c, 0, 76, 68
1, 234872, Note_on_c, 0, 61, 47
1, 234874, Control_c, 0, 67, 23
1, 234876, Note_off_c, 0, 78, 54
1, 234889, Control_c, 0, 67, 21
1, 234894, Note_on_c, 0, 58, 40
1, 234903, Note_off_c, 0, 63, 36
1, 234904, Control_c, 0, 67, 19
1, 234919, Control_c, 0, 67, 17
1, 234952, Note_on_c, 0, 72, 57
1, 234964, Control_c, 0, 67, 0
1, 234971, Note_off_c, 0, 76, 60
1, 235062, Note_on_c, 0, 73, 61
1, 235066, Note_off_c, 0, 72, 58
1, 235102, Note_off_c, 0, 73, 60
1, 235132, Note_off_c, 0, 61, 34
1, 235156, Note_on_c, 0, 75, 76
1, 235174, Note_on_c, 0, 60, 50
1, 235187, Note_off_c, 0, 58, 51
1, 235255, Note_on_c, 0, 68, 57
1, 235261, Control_c, 0, 64, 17
1, 235275, Control_c, 0, 64, 23
1, 235290, Control_c, 0, 64, 27
1, 235305, Control_c, 0, 64, 28
1, 235342, Note_on_c, 0, 66, 66
1, 235415, Note_off_c, 0, 60, 58
1, 235418, Note_off_c, 0, 68, 41
1, 235443, Note_off_c, 0, 75, 44
1, 235448, Note_on_c, 0, 64, 73
1, 235459, Note_off_c, 0, 66, 61
1, 235464, Note_on_c, 0, 61, 59
1, 235497, Note_off_c, 0, 61, 61
1, 235504, Control_c, 0, 64, 27
1, 235527, Note_off_c, 0, 64, 55
1, 235539, Note_on_c, 0, 73, 82
1, 235548, Control_c, 0, 64, 27
1, 235630, Note_on_c, 0, 75, 69
1, 235669, Note_on_c, 0, 56, 61
1, 235721, Note_off_c, 0, 73, 34
1, 235726, Control_c, 0, 64, 26
1, 235747, Note_on_c, 0, 76, 84
1, 235758, Note_off_c, 0, 56, 59
1, 235767, Note_on_c, 0, 61, 69
1, 235772, Control_c, 0, 64, 26
1, 235785, Note_off_c, 0, 75, 61
1, 235786, Control_c, 0, 64, 25
1, 235801, Control_c, 0, 64, 24
1, 235816, Control_c, 0, 64, 23
1, 235830, Control_c, 0, 64, 23
1, 235836, Note_on_c, 0, 69, 64
1, 235909, Note_on_c, 0, 49, 62
1, 235926, Note_off_c, 0, 61, 59
1, 235928, Note_off_c, 0, 69, 64
1, 235944, Note_on_c, 0, 68, 79
1, 235979, Control_c, 0, 64, 25
1, 235994, Control_c, 0, 64, 32
1, 235994, Note_off_c, 0, 68, 58
1, 236005, Note_off_c, 0, 76, 0
1, 236005, Note_on_c, 0, 76, 29
1, 236009, Control_c, 0, 64, 44
1, 236022, Note_on_c, 0, 51, 64
1, 236023, Control_c, 0, 64, 53
1, 236027, Note_off_c, 0, 49, 55
1, 236038, Control_c, 0, 64, 57
1, 236046, Note_on_c, 0, 66, 81
1, 236052, Note_off_c, 0, 76, 54
1, 236053, Control_c, 0, 64, 59
1, 236075, Control_c, 0, 64, 61
1, 236090, Control_c, 0, 64, 62
1, 236104, Control_c, 0, 64, 63
1, 236119, Control_c, 0, 64, 64
1, 236126, Note_off_c, 0, 51, 59
1, 236134, Control_c, 0, 64, 65
1, 236142, Note_on_c, 0, 59, 73
1, 236146, Note_on_c, 0, 75, 76
1, 236149, Control_c, 0, 64, 65
1, 236158, Note_off_c, 0, 66, 58
1, 236164, Control_c, 0, 64, 66
1, 236227, Note_on_c, 0, 76, 78
1, 236238, Control_c, 0, 64, 65
1, 236249, Note_on_c, 0, 61, 66
1, 236252, Note_off_c, 0, 59, 44
1, 236253, Control_c, 0, 64, 63
1, 236268, Control_c, 0, 64, 58
1, 236283, Control_c, 0, 64, 50
1, 236285, Note_off_c, 0, 75, 45
1, 236297, Control_c, 0, 64, 38
1, 236312, Control_c, 0, 64, 20
1, 236327, Control_c, 0, 64, 0
1, 236337, Note_on_c, 0, 78, 82
1, 236339, Note_on_c, 0, 63, 69
1, 236358, Note_on_c, 0, 79, 63
1, 236362, Note_off_c, 0, 76, 58
1, 236378, Note_off_c, 0, 61, 59
1, 236387, Note_off_c, 0, 79, 48
1, 236423, Note_off_c, 0, 63, 60
1, 236426, Note_on_c, 0, 71, 71
1, 236428, Note_on_c, 0, 64, 71
1, 236448, Note_off_c, 0, 78, 58
1, 236460, Control_c, 0, 64, 21
1, 236475, Control_c, 0, 64, 27
1, 236490, Control_c, 0, 64, 34
1, 236504, Control_c, 0, 64, 42
1, 236519, Note_off_c, 0, 71, 61
1, 236519, Control_c, 0, 64, 52
1, 236520, Note_on_c, 0, 66, 63
1, 236522, Note_off_c, 0, 64, 57
1, 236525, Note_on_c, 0, 69, 82
1, 236534, Control_c, 0, 64, 58
1, 236536, Note_on_c, 0, 63, 61
1, 236550, Control_c, 0, 64, 61
1, 236565, Control_c, 0, 64, 63
1, 236580, Control_c, 0, 64, 64
1, 236595, Control_c, 0, 64, 65
1, 236604, Note_off_c, 0, 63, 58
1, 236609, Control_c, 0, 64, 66
1, 236617, Note_on_c, 0, 68, 75
1, 236619, Note_on_c, 0, 64, 72
1, 236620, Note_off_c, 0, 66, 57
1, 236623, Note_off_c, 0, 69, 64
1, 236624, Control_c, 0, 64, 68
1, 236638, Note_off_c, 0, 68, 67
1, 236639, Control_c, 0, 64, 70
1, 236653, Control_c, 0, 64, 72
1, 236668, Control_c, 0, 64, 73
1, 236677, Note_off_c, 0, 64, 58
1, 236713, Control_c, 0, 64, 73
1, 236722, Note_on_c, 0, 52, 68
1, 236724, Note_on_c, 0, 80, 80
1, 236727, Control_c, 0, 64, 66
1, 236742, Control_c, 0, 64, 57
1, 236757, Control_c, 0, 64, 40
1, 236772, Control_c, 0, 64, 0
1, 236818, Note_on_c, 0, 81, 83
1, 236818, Note_off_c, 0, 80, 63
1, 236830, Note_on_c, 0, 54, 69
1, 236835, Note_off_c, 0, 52, 54
1, 236924, Note_on_c, 0, 83, 90
1, 236931, Note_on_c, 0, 56, 70
1, 236932, Note_off_c, 0, 54, 61
1, 236946, Note_off_c, 0, 81, 58
1, 237019, Note_on_c, 0, 76, 80
1, 237022, Note_off_c, 0, 56, 61
1, 237030, Note_on_c, 0, 54, 73
1, 237061, Control_c, 0, 64, 18
1, 237076, Control_c, 0, 64, 24
1, 237085, Note_off_c, 0, 83, 56
1, 237091, Control_c, 0, 64, 28
1, 237100, Note_off_c, 0, 76, 59
1, 237106, Control_c, 0, 64, 30
1, 237107, Note_on_c, 0, 56, 71
1, 237112, Note_on_c, 0, 74, 87
1, 237120, Control_c, 0, 64, 31
1, 237132, Note_off_c, 0, 54, 57
1, 237135, Control_c, 0, 64, 32
1, 237150, Control_c, 0, 64, 33
1, 237165, Control_c, 0, 64, 33
1, 237168, Note_off_c, 0, 74, 62
1, 237179, Control_c, 0, 64, 34
1, 237198, Note_off_c, 0, 56, 59
1, 237204, Note_on_c, 0, 57, 75
1, 237235, Note_on_c, 0, 73, 78
1, 237258, Note_on_c, 0, 70, 37
1, 237259, Note_off_c, 0, 70, 127
1, 237264, Note_on_c, 0, 72, 63
1, 237279, Note_off_c, 0, 73, 57
1, 237301, Note_off_c, 0, 57, 62
1, 237308, Note_on_c, 0, 56, 71
1, 237323, Note_off_c, 0, 72, 58
1, 237329, Note_on_c, 0, 65, 63
1, 237400, Note_on_c, 0, 54, 75
1, 237400, Note_off_c, 0, 56, 59
1, 237425, Note_on_c, 0, 66, 65
1, 237437, Note_off_c, 0, 65, 57
1, 237479, Note_off_c, 0, 54, 62
1, 237516, Note_on_c, 0, 53, 67
1, 237532, Note_on_c, 0, 68, 74
1, 237538, Note_off_c, 0, 66, 60
1, 237588, Control_c, 0, 64, 34
1, 237613, Note_off_c, 0, 68, 58
1, 237614, Note_off_c, 0, 53, 58
1, 237618, Control_c, 0, 64, 35
1, 237619, Note_on_c, 0, 51, 60
1, 237622, Note_on_c, 0, 61, 71
1, 237633, Control_c, 0, 64, 37
1, 237648, Control_c, 0, 64, 39
1, 237663, Control_c, 0, 64, 40
1, 237666, Note_off_c, 0, 61, 60
1, 237677, Control_c, 0, 64, 41
1, 237692, Control_c, 0, 64, 41
1, 237710, Note_on_c, 0, 53, 72
1, 237716, Note_off_c, 0, 51, 52
1, 237718, Note_on_c, 0, 59, 74
1, 237751, Control_c, 0, 64, 42
1, 237766, Control_c, 0, 64, 45
1, 237781, Control_c, 0, 64, 52
1, 237784, Note_off_c, 0, 59, 61
1, 237785, Note_off_c, 0, 53, 58
1, 237794, Note_on_c, 0, 54, 75
1, 237795, Control_c, 0, 64, 59
1, 237807, Note_on_c, 0, 57, 77
1, 237810, Control_c, 0, 64, 62
1, 237825, Control_c, 0, 64, 64
1, 237834, Note_off_c, 0, 57, 65
1, 237840, Control_c, 0, 64, 66
1, 237855, Control_c, 0, 64, 68
1, 237870, Control_c, 0, 64, 69
1, 237884, Control_c, 0, 64, 71
1, 237899, Control_c, 0, 64, 72
1, 237912, Note_on_c, 0, 72, 79
1, 237914, Control_c, 0, 64, 72
1, 237929, Control_c, 0, 64, 73
1, 237943, Control_c, 0, 64, 73
1, 238006, Note_off_c, 0, 72, 59
1, 238010, Note_on_c, 0, 69, 47
1, 238030, Note_on_c, 0, 73, 62
1, 238063, Control_c, 0, 64, 73
1, 238077, Control_c, 0, 64, 71
1, 238092, Control_c, 0, 64, 65
1, 238103, Note_on_c, 0, 61, 65
1, 238107, Control_c, 0, 64, 55
1, 238117, Note_on_c, 0, 75, 80
1, 238122, Control_c, 0, 64, 24
1, 238128, Note_off_c, 0, 73, 61
1, 238137, Control_c, 0, 64, 0
1, 238186, Note_on_c, 0, 60, 46
1, 238206, Note_off_c, 0, 61, 56
1, 238213, Note_on_c, 0, 73, 82
1, 238219, Note_off_c, 0, 75, 63
1, 238324, Note_on_c, 0, 75, 82
1, 238346, Note_off_c, 0, 73, 60
1, 238347, Note_off_c, 0, 69, 59
1, 238406, Note_off_c, 0, 60, 52
1, 238426, Note_on_c, 0, 68, 83
1, 238433, Note_on_c, 0, 53, 59
1, 238435, Note_on_c, 0, 61, 50
1, 238450, Note_off_c, 0, 54, 45
1, 238468, Note_off_c, 0, 75, 53
1, 238522, Note_on_c, 0, 70, 82
1, 238537, Note_off_c, 0, 68, 60
1, 238620, Note_on_c, 0, 72, 85
1, 238626, Note_off_c, 0, 70, 60
1, 238719, Note_on_c, 0, 73, 89
1, 238728, Note_on_c, 0, 52, 61
1, 238759, Note_off_c, 0, 72, 53
1, 238766, Note_off_c, 0, 53, 37
1, 238817, Note_on_c, 0, 75, 92
1, 238831, Note_off_c, 0, 73, 63
1, 238911, Note_on_c, 0, 76, 90
1, 238928, Note_off_c, 0, 75, 62
1, 239011, Note_on_c, 0, 78, 86
1, 239022, Note_off_c, 0, 76, 59
1, 239040, Note_on_c, 0, 51, 51
1, 239074, Note_off_c, 0, 52, 43
1, 239125, Note_on_c, 0, 76, 82
1, 239132, Note_off_c, 0, 61, 39
1, 239133, Note_off_c, 0, 78, 59
1, 239217, Note_on_c, 0, 78, 75
1, 239225, Note_off_c, 0, 76, 61
1, 239312, Note_on_c, 0, 75, 77
1, 239321, Note_on_c, 0, 56, 48
1, 239333, Note_off_c, 0, 78, 50
1, 239355, Note_on_c, 0, 60, 33
1, 239356, Note_off_c, 0, 51, 35
1, 239417, Note_on_c, 0, 80, 63
1, 239422, Note_off_c, 0, 75, 58
1, 239486, Note_off_c, 0, 60, 43
1, 239515, Note_on_c, 0, 78, 69
1, 239531, Note_off_c, 0, 56, 34
1, 239534, Note_off_c, 0, 80, 57
1, 239555, Note_off_c, 0, 78, 59
1, 239625, Note_on_c, 0, 76, 75
1, 239640, Note_on_c, 0, 49, 42
1, 239640, Note_on_c, 0, 61, 38
1, 239720, Note_on_c, 0, 64, 59
1, 239768, Note_off_c, 0, 61, 42
1, 239790, Note_off_c, 0, 76, 29
1, 239833, Note_on_c, 0, 69, 80
1, 239850, Note_off_c, 0, 64, 50
1, 239926, Note_off_c, 0, 49, 52
1, 239948, Note_on_c, 0, 75, 79
1, 239949, Note_on_c, 0, 47, 73
1, 240042, Note_off_c, 0, 69, 62
1, 240053, Note_on_c, 0, 67, 75
1, 240156, Note_on_c, 0, 68, 69
1, 240158, Note_off_c, 0, 67, 53
1, 240158, Note_off_c, 0, 75, 59
1, 240177, Note_off_c, 0, 47, 54
1, 240258, Note_off_c, 0, 68, 55
1, 240276, Note_on_c, 0, 73, 75
1, 240292, Note_on_c, 0, 45, 72
1, 240378, Note_on_c, 0, 66, 60
1, 240480, Note_on_c, 0, 65, 61
1, 240480, Note_off_c, 0, 73, 40
1, 240480, Note_off_c, 0, 66, 58
1, 240561, Note_off_c, 0, 45, 58
1, 240590, Note_off_c, 0, 65, 53
1, 240595, Note_on_c, 0, 66, 66
1, 240653, Note_off_c, 0, 66, 56
1, 240691, Note_on_c, 0, 73, 68
1, 240784, Note_on_c, 0, 76, 77
1, 240797, Note_off_c, 0, 73, 59
1, 240802, Note_on_c, 0, 46, 68
1, 240866, Note_off_c, 0, 46, 57
1, 240888, Note_on_c, 0, 75, 82
1, 240892, Note_on_c, 0, 47, 83
1, 240913, Note_off_c, 0, 76, 62
1, 241002, Note_on_c, 0, 63, 61
1, 241050, Note_off_c, 0, 75, 52
1, 241057, Control_c, 0, 67, 19
1, 241072, Control_c, 0, 67, 23
1, 241078, Note_off_c, 0, 63, 51
1, 241086, Control_c, 0, 67, 27
1, 241093, Note_on_c, 0, 68, 59
1, 241101, Control_c, 0, 67, 30
1, 241116, Control_c, 0, 67, 31
1, 241129, Note_off_c, 0, 47, 60
1, 241131, Control_c, 0, 67, 34
1, 241145, Control_c, 0, 67, 35
1, 241160, Control_c, 0, 67, 36
1, 241175, Control_c, 0, 67, 36
1, 241205, Control_c, 0, 67, 36
1, 241213, Note_on_c, 0, 45, 70
1, 241214, Note_on_c, 0, 73, 67
1, 241219, Control_c, 0, 67, 35
1, 241234, Control_c, 0, 67, 35
1, 241249, Control_c, 0, 67, 34
1, 241250, Note_off_c, 0, 68, 35
1, 241264, Control_c, 0, 67, 34
1, 241279, Control_c, 0, 67, 33
1, 241294, Control_c, 0, 67, 33
1, 241294, Note_on_c, 0, 65, 58
1, 241309, Control_c, 0, 67, 32
1, 241331, Control_c, 0, 67, 32
1, 241348, Control_c, 0, 67, 31
1, 241363, Control_c, 0, 67, 30
1, 241370, Note_off_c, 0, 73, 48
1, 241377, Control_c, 0, 67, 29
1, 241392, Control_c, 0, 67, 28
1, 241407, Control_c, 0, 67, 27
1, 241412, Note_on_c, 0, 66, 58
1, 241422, Control_c, 0, 67, 26
1, 241431, Note_off_c, 0, 65, 47
1, 241437, Control_c, 0, 67, 25
1, 241446, Note_off_c, 0, 45, 56
1, 241451, Control_c, 0, 67, 24
1, 241466, Control_c, 0, 67, 23
1, 241481, Control_c, 0, 67, 22
1, 241496, Control_c, 0, 67, 19
1, 241511, Control_c, 0, 67, 17
1, 241535, Note_on_c, 0, 71, 58
1, 241541, Note_on_c, 0, 44, 61
1, 241565, Note_off_c, 0, 66, 42
1, 241569, Control_c, 0, 67, 38
1, 241584, Control_c, 0, 67, 37
1, 241599, Control_c, 0, 67, 36
1, 241614, Control_c, 0, 67, 34
1, 241622, Note_on_c, 0, 64, 52
1, 241629, Control_c, 0, 67, 33
1, 241643, Control_c, 0, 67, 33
1, 241673, Control_c, 0, 67, 32
1, 241688, Control_c, 0, 67, 32
1, 241703, Control_c, 0, 67, 31
1, 241716, Note_off_c, 0, 64, 44
1, 241717, Note_on_c, 0, 63, 60
1, 241717, Control_c, 0, 67, 31
1, 241732, Control_c, 0, 67, 30
1, 241747, Control_c, 0, 67, 30
1, 241762, Control_c, 0, 67, 29
1, 241777, Control_c, 0, 67, 28
1, 241787, Note_off_c, 0, 44, 61
1, 241792, Control_c, 0, 67, 27
1, 241804, Note_off_c, 0, 63, 60
1, 241807, Control_c, 0, 67, 26
1, 241810, Note_off_c, 0, 71, 59
1, 241822, Control_c, 0, 67, 26
1, 241831, Note_on_c, 0, 64, 64
1, 241836, Control_c, 0, 67, 25
1, 241851, Control_c, 0, 67, 24
1, 241881, Control_c, 0, 67, 24
1, 241910, Control_c, 0, 67, 23
1, 241935, Note_on_c, 0, 71, 44
1, 241972, Note_off_c, 0, 71, 49
1, 242009, Note_on_c, 0, 56, 65
1, 242009, Note_on_c, 0, 74, 71
1, 242014, Control_c, 0, 67, 24
1, 242029, Control_c, 0, 67, 25
1, 242043, Control_c, 0, 67, 27
1, 242058, Control_c, 0, 67, 28
1, 242081, Control_c, 0, 67, 30
1, 242095, Control_c, 0, 67, 32
1, 242110, Control_c, 0, 67, 34
1, 242117, Note_on_c, 0, 73, 71
1, 242118, Note_off_c, 0, 56, 61
1, 242125, Control_c, 0, 67, 36
1, 242126, Note_on_c, 0, 57, 68
1, 242140, Control_c, 0, 67, 39
1, 242143, Note_off_c, 0, 74, 57
1, 242155, Control_c, 0, 67, 44
1, 242170, Control_c, 0, 67, 51
1, 242185, Control_c, 0, 67, 57
1, 242200, Control_c, 0, 67, 62
1, 242205, Note_off_c, 0, 57, 61
1, 242209, Note_on_c, 0, 71, 68
1, 242215, Control_c, 0, 67, 67
1, 242218, Note_off_c, 0, 73, 61
1, 242218, Note_on_c, 0, 56, 68
1, 242230, Control_c, 0, 67, 73
1, 242245, Control_c, 0, 67, 79
1, 242246, Note_off_c, 0, 64, 41
1, 242260, Control_c, 0, 67, 85
1, 242274, Control_c, 0, 67, 89
1, 242289, Control_c, 0, 67, 94
1, 242304, Control_c, 0, 67, 98
1, 242305, Note_off_c, 0, 56, 59
1, 242312, Note_on_c, 0, 57, 73
1, 242319, Note_on_c, 0, 73, 77
1, 242319, Control_c, 0, 67, 100
1, 242334, Control_c, 0, 67, 102
1, 242338, Note_off_c, 0, 71, 36
1, 242349, Note_off_c, 0, 57, 63
1, 242358, Note_off_c, 0, 73, 63
1, 242392, Control_c, 0, 67, 101
1, 242407, Control_c, 0, 67, 100
1, 242416, Note_on_c, 0, 59, 76
1, 242417, Note_on_c, 0, 63, 67
1, 242418, Note_on_c, 0, 66, 64
1, 242422, Control_c, 0, 67, 98
1, 242437, Control_c, 0, 67, 95
1, 242452, Control_c, 0, 67, 93
1, 242466, Control_c, 0, 67, 91
1, 242481, Control_c, 0, 67, 90
1, 242496, Control_c, 0, 67, 88
1, 242504, Note_on_c, 0, 71, 67
1, 242505, Note_on_c, 0, 57, 69
1, 242506, Note_off_c, 0, 59, 59
1, 242510, Note_off_c, 0, 66, 44
1, 242511, Control_c, 0, 67, 86
1, 242526, Control_c, 0, 67, 84
1, 242540, Control_c, 0, 67, 81
1, 242555, Control_c, 0, 67, 77
1, 242570, Control_c, 0, 67, 73
1, 242573, Note_off_c, 0, 57, 60
1, 242585, Control_c, 0, 67, 68
1, 242585, Note_on_c, 0, 59, 72
1, 242591, Note_off_c, 0, 63, 36
1, 242600, Control_c, 0, 67, 65
1, 242603, Note_on_c, 0, 69, 74
1, 242615, Control_c, 0, 67, 62
1, 242629, Control_c, 0, 67, 59
1, 242632, Note_off_c, 0, 71, 53
1, 242644, Control_c, 0, 67, 56
1, 242659, Control_c, 0, 67, 53
1, 242660, Note_off_c, 0, 59, 59
1, 242674, Control_c, 0, 67, 51
1, 242689, Control_c, 0, 67, 50
1, 242710, Note_on_c, 0, 52, 75
1, 242712, Note_on_c, 0, 68, 78
1, 242725, Note_off_c, 0, 69, 57
1, 242728, Note_on_c, 0, 62, 61
1, 242733, Control_c, 0, 67, 50
1, 242763, Control_c, 0, 67, 49
1, 242826, Note_on_c, 0, 66, 60
1, 242857, Note_off_c, 0, 68, 54
1, 242895, Note_off_c, 0, 62, 53
1, 242942, Note_on_c, 0, 68, 59
1, 242943, Note_off_c, 0, 52, 59
1, 242949, Note_off_c, 0, 66, 60
1, 243023, Note_off_c, 0, 68, 57
1, 243036, Note_on_c, 0, 64, 60
1, 243040, Note_on_c, 0, 57, 74
1, 243053, Note_on_c, 0, 61, 50
1, 243081, Control_c, 0, 67, 49
1, 243147, Note_on_c, 0, 69, 57
1, 243181, Note_off_c, 0, 64, 47
1, 243245, Note_off_c, 0, 57, 60
1, 243246, Note_on_c, 0, 68, 64
1, 243266, Note_off_c, 0, 61, 55
1, 243285, Note_off_c, 0, 69, 36
1, 243318, Control_c, 0, 67, 48
1, 243349, Note_on_c, 0, 51, 63
1, 243350, Note_on_c, 0, 66, 63
1, 243362, Note_on_c, 0, 60, 53
1, 243377, Control_c, 0, 67, 48
1, 243399, Note_off_c, 0, 68, 39
1, 243436, Control_c, 0, 67, 47
1, 243458, Note_on_c, 0, 64, 58
1, 243458, Note_off_c, 0, 66, 57
1, 243540, Note_off_c, 0, 60, 35
1, 243565, Note_off_c, 0, 64, 59
1, 243575, Note_off_c, 0, 51, 56
1, 243583, Note_on_c, 0, 66, 56
1, 243592, Control_c, 0, 67, 47
1, 243618, Note_off_c, 0, 66, 61
1, 243651, Control_c, 0, 67, 46
1, 243665, Control_c, 0, 67, 46
1, 243677, Note_on_c, 0, 59, 58
1, 243679, Note_on_c, 0, 68, 59
1, 243680, Control_c, 0, 67, 45
1, 243685, Note_on_c, 0, 52, 55
1, 243710, Control_c, 0, 67, 45
1, 243725, Control_c, 0, 67, 44
1, 243765, Note_off_c, 0, 68, 53
1, 243783, Note_on_c, 0, 66, 51
1, 243800, Control_c, 0, 67, 45
1, 243815, Control_c, 0, 67, 46
1, 243830, Control_c, 0, 67, 47
1, 243844, Control_c, 0, 67, 48
1, 243849, Note_off_c, 0, 52, 54
1, 243859, Control_c, 0, 67, 50
1, 243874, Control_c, 0, 67, 51
1, 243878, Note_on_c, 0, 68, 64
1, 243889, Control_c, 0, 67, 53
1, 243899, Note_off_c, 0, 59, 25
1, 243904, Control_c, 0, 67, 54
1, 243911, Note_off_c, 0, 66, 43
1, 243918, Control_c, 0, 67, 56
1, 243924, Note_off_c, 0, 68, 48
1, 243933, Control_c, 0, 67, 57
1, 243948, Control_c, 0, 67, 58
1, 243962, Control_c, 0, 67, 60
1, 243977, Control_c, 0, 67, 61
1, 244000, Note_on_c, 0, 45, 65
1, 244001, Note_on_c, 0, 61, 51
1, 244004, Note_on_c, 0, 69, 56
1, 244083, Note_off_c, 0, 61, 58
1, 244103, Note_on_c, 0, 47, 66
1, 244108, Note_on_c, 0, 62, 59
1, 244141, Control_c, 0, 67, 62
1, 244156, Control_c, 0, 67, 63
1, 244170, Control_c, 0, 67, 63
1, 244180, Note_off_c, 0, 45, 37
1, 244185, Control_c, 0, 67, 64
1, 244200, Note_on_c, 0, 61, 66
1, 244200, Note_off_c, 0, 62, 57
1, 244211, Note_on_c, 0, 49, 75
1, 244215, Control_c, 0, 67, 65
1, 244222, Note_off_c, 0, 47, 56
1, 244230, Control_c, 0, 67, 66
1, 244244, Control_c, 0, 67, 70
1, 244259, Control_c, 0, 67, 75
1, 244274, Control_c, 0, 67, 80
1, 244288, Control_c, 0, 67, 85
1, 244296, Note_off_c, 0, 61, 58
1, 244299, Note_on_c, 0, 50, 76
1, 244302, Note_on_c, 0, 59, 74
1, 244303, Control_c, 0, 67, 88
1, 244318, Note_off_c, 0, 49, 61
1, 244326, Control_c, 0, 67, 89
1, 244403, Note_off_c, 0, 50, 60
1, 244409, Note_on_c, 0, 52, 75
1, 244415, Control_c, 0, 67, 87
1, 244421, Note_on_c, 0, 61, 70
1, 244424, Note_off_c, 0, 59, 59
1, 244430, Control_c, 0, 67, 85
1, 244445, Control_c, 0, 67, 84
1, 244460, Control_c, 0, 67, 82
1, 244466, Note_off_c, 0, 69, 39
1, 244475, Control_c, 0, 67, 81
1, 244489, Control_c, 0, 67, 80
1, 244500, Note_on_c, 0, 50, 75
1, 244504, Control_c, 0, 67, 79
1, 244510, Note_off_c, 0, 61, 58
1, 244511, Note_off_c, 0, 52, 59
1, 244517, Note_on_c, 0, 59, 71
1, 244519, Control_c, 0, 67, 79
1, 244534, Control_c, 0, 67, 78
1, 244549, Control_c, 0, 67, 77
1, 244564, Control_c, 0, 67, 76
1, 244579, Control_c, 0, 67, 75
1, 244594, Control_c, 0, 67, 72
1, 244601, Note_on_c, 0, 49, 76
1, 244604, Note_off_c, 0, 50, 61
1, 244606, Note_off_c, 0, 59, 57
1, 244607, Note_on_c, 0, 64, 74
1, 244609, Control_c, 0, 67, 70
1, 244624, Control_c, 0, 67, 66
1, 244639, Control_c, 0, 67, 61
1, 244653, Control_c, 0, 67, 57
1, 244668, Control_c, 0, 67, 53
1, 244683, Control_c, 0, 67, 49
1, 244688, Note_off_c, 0, 49, 62
1, 244692, Note_on_c, 0, 47, 69
1, 244698, Control_c, 0, 67, 47
1, 244713, Control_c, 0, 67, 45
1, 244716, Note_on_c, 0, 62, 73
1, 244728, Control_c, 0, 67, 43
1, 244742, Control_c, 0, 67, 41
1, 244757, Note_off_c, 0, 64, 26
1, 244757, Control_c, 0, 67, 39
1, 244772, Control_c, 0, 67, 36
1, 244786, Control_c, 0, 67, 34
1, 244801, Note_off_c, 0, 62, 57
1, 244801, Control_c, 0, 67, 32
1, 244808, Note_on_c, 0, 45, 68
1, 244808, Note_on_c, 0, 61, 70
1, 244816, Control_c, 0, 67, 31
1, 244831, Control_c, 0, 67, 29
1, 244846, Control_c, 0, 67, 29
1, 244855, Note_off_c, 0, 47, 58
1, 244860, Control_c, 0, 67, 28
1, 244875, Control_c, 0, 67, 28
1, 244877, Note_off_c, 0, 61, 60
1, 244905, Control_c, 0, 67, 27
1, 244907, Note_on_c, 0, 52, 79
1, 244907, Note_off_c, 0, 45, 58
1, 244908, Note_on_c, 0, 59, 73
1, 244910, Note_on_c, 0, 68, 67
1, 244947, Note_off_c, 0, 68, 57
1, 244980, Control_c, 0, 64, 20
1, 244985, Note_off_c, 0, 52, 0
1, 244994, Control_c, 0, 64, 49
1, 245005, Note_on_c, 0, 52, 35
1, 245009, Note_on_c, 0, 57, 68
1, 245009, Control_c, 0, 64, 56
1, 245024, Control_c, 0, 64, 59
1, 245034, Note_off_c, 0, 59, 42
1, 245039, Control_c, 0, 64, 61
1, 245054, Control_c, 0, 64, 62
1, 245076, Control_c, 0, 64, 63
1, 245091, Control_c, 0, 64, 65
1, 245106, Control_c, 0, 64, 66
1, 245110, Note_off_c, 0, 57, 60
1, 245113, Note_on_c, 0, 56, 67
1, 245120, Control_c, 0, 64, 67
1, 245135, Control_c, 0, 64, 69
1, 245140, Note_off_c, 0, 56, 66
1, 245150, Control_c, 0, 64, 69
1, 245165, Control_c, 0, 64, 70
1, 245194, Control_c, 0, 64, 68
1, 245209, Control_c, 0, 64, 62
1, 245224, Control_c, 0, 64, 50
1, 245228, Note_on_c, 0, 54, 74
1, 245239, Note_on_c, 0, 69, 71
1, 245239, Control_c, 0, 64, 37
1, 245254, Control_c, 0, 64, 0
1, 245268, Control_c, 0, 67, 27
1, 245311, Note_off_c, 0, 69, 51
1, 245321, Note_on_c, 0, 73, 73
1, 245322, Note_off_c, 0, 54, 60
1, 245348, Note_on_c, 0, 57, 59
1, 245422, Note_off_c, 0, 57, 61
1, 245429, Note_on_c, 0, 56, 67
1, 245432, Note_on_c, 0, 71, 68
1, 245434, Note_off_c, 0, 52, 59
1, 245437, Note_off_c, 0, 73, 60
1, 245492, Note_off_c, 0, 56, 59
1, 245497, Note_off_c, 0, 71, 59
1, 245528, Note_on_c, 0, 51, 75
1, 245534, Note_on_c, 0, 57, 59
1, 245536, Note_on_c, 0, 73, 83
1, 245576, Note_off_c, 0, 57, 59
1, 245618, Note_on_c, 0, 71, 75
1, 245625, Note_off_c, 0, 73, 61
1, 245661, Note_on_c, 0, 52, 66
1, 245692, Note_off_c, 0, 71, 56
1, 245728, Note_on_c, 0, 69, 77
1, 245737, Note_on_c, 0, 54, 65
1, 245755, Note_off_c, 0, 52, 58
1, 245773, Note_off_c, 0, 51, 43
1, 245777, Note_off_c, 0, 69, 63
1, 245777, Note_off_c, 0, 54, 63
1, 245835, Note_on_c, 0, 50, 72
1, 245838, Note_on_c, 0, 71, 79
1, 245861, Note_on_c, 0, 56, 75
1, 245929, Note_off_c, 0, 56, 60
1, 245936, Note_on_c, 0, 74, 79
1, 245950, Note_off_c, 0, 71, 54
1, 245960, Note_on_c, 0, 59, 61
1, 246013, Note_off_c, 0, 50, 57
1, 246031, Note_on_c, 0, 66, 73
1, 246036, Note_on_c, 0, 57, 64
1, 246038, Note_off_c, 0, 59, 56
1, 246046, Note_off_c, 0, 74, 57
1, 246114, Note_off_c, 0, 66, 58
1, 246125, Note_off_c, 0, 57, 61
1, 246149, Note_on_c, 0, 49, 70
1, 246150, Note_on_c, 0, 59, 69
1, 246151, Note_on_c, 0, 65, 71
1, 246210, Control_c, 0, 67, 28
1, 246225, Control_c, 0, 67, 30
1, 246239, Control_c, 0, 67, 31
1, 246245, Note_on_c, 0, 54, 64
1, 246245, Note_off_c, 0, 59, 55
1, 246254, Control_c, 0, 67, 33
1, 246269, Control_c, 0, 67, 34
1, 246284, Control_c, 0, 67, 36
1, 246286, Note_off_c, 0, 49, 52
1, 246299, Control_c, 0, 67, 37
1, 246314, Control_c, 0, 67, 39
1, 246329, Control_c, 0, 67, 41
1, 246342, Note_off_c, 0, 65, 43
1, 246344, Control_c, 0, 67, 44
1, 246344, Note_on_c, 0, 56, 66
1, 246358, Control_c, 0, 67, 48
1, 246361, Note_off_c, 0, 54, 55
1, 246373, Control_c, 0, 67, 52
1, 246388, Control_c, 0, 67, 59
1, 246403, Control_c, 0, 67, 65
1, 246417, Note_off_c, 0, 56, 60
1, 246418, Control_c, 0, 67, 71
1, 246432, Control_c, 0, 67, 76
1, 246442, Note_on_c, 0, 57, 66
1, 246447, Control_c, 0, 67, 79
1, 246462, Control_c, 0, 67, 81
1, 246463, Note_on_c, 0, 73, 77
1, 246506, Control_c, 0, 67, 82
1, 246521, Control_c, 0, 67, 83
1, 246534, Note_on_c, 0, 48, 69
1, 246536, Control_c, 0, 67, 84
1, 246558, Control_c, 0, 67, 87
1, 246573, Control_c, 0, 67, 90
1, 246588, Control_c, 0, 67, 94
1, 246603, Control_c, 0, 67, 98
1, 246618, Control_c, 0, 67, 102
1, 246633, Control_c, 0, 67, 106
1, 246635, Note_on_c, 0, 49, 76
1, 246647, Control_c, 0, 67, 109
1, 246662, Note_off_c, 0, 48, 60
1, 246662, Control_c, 0, 67, 113
1, 246677, Control_c, 0, 67, 116
1, 246691, Control_c, 0, 67, 118
1, 246706, Control_c, 0, 67, 119
1, 246721, Control_c, 0, 67, 120
1, 246736, Control_c, 0, 67, 120
1, 246748, Note_on_c, 0, 69, 74
1, 246751, Control_c, 0, 67, 121
1, 246752, Note_on_c, 0, 51, 77
1, 246758, Note_off_c, 0, 49, 61
1, 246765, Control_c, 0, 67, 123
1, 246768, Note_off_c, 0, 57, 42
1, 246776, Note_off_c, 0, 73, 52
1, 246780, Control_c, 0, 67, 125
1, 246795, Control_c, 0, 67, 126
1, 246839, Control_c, 0, 67, 124
1, 246851, Note_off_c, 0, 51, 60
1, 246853, Note_on_c, 0, 49, 74
1, 246854, Control_c, 0, 67, 123
1, 246869, Control_c, 0, 67, 121
1, 246883, Control_c, 0, 67, 119
1, 246898, Control_c, 0, 67, 117
1, 246913, Control_c, 0, 67, 115
1, 246928, Control_c, 0, 67, 113
1, 246944, Control_c, 0, 67, 112
1, 246945, Note_on_c, 0, 51, 78
1, 246952, Note_off_c, 0, 49, 63
1, 246959, Control_c, 0, 67, 110
1, 246974, Control_c, 0, 67, 107
1, 246988, Control_c, 0, 67, 105
1, 247000, Note_off_c, 0, 51, 58
1, 247003, Control_c, 0, 67, 103
1, 247018, Control_c, 0, 67, 102
1, 247033, Control_c, 0, 67, 101
1, 247037, Note_off_c, 0, 69, 60
1, 247048, Control_c, 0, 67, 101
1, 247053, Note_on_c, 0, 72, 76
1, 247059, Note_on_c, 0, 44, 81
1, 247077, Control_c, 0, 67, 100
1, 247146, Note_on_c, 0, 46, 74
1, 247146, Note_on_c, 0, 68, 71
1, 247155, Note_off_c, 0, 72, 57
1, 247178, Note_off_c, 0, 44, 58
1, 247196, Control_c, 0, 67, 100
1, 247235, Note_off_c, 0, 46, 60
1, 247239, Note_on_c, 0, 48, 80
1, 247241, Control_c, 0, 67, 99
1, 247244, Note_off_c, 0, 68, 55
1, 247244, Note_on_c, 0, 66, 74
1, 247255, Control_c, 0, 67, 99
1, 247270, Control_c, 0, 67, 98
1, 247285, Control_c, 0, 67, 98
1, 247321, Control_c, 0, 67, 97
1, 247337, Control_c, 0, 67, 97
1, 247345, Note_off_c, 0, 66, 58
1, 247347, Note_on_c, 0, 49, 78
1, 247354, Note_off_c, 0, 48, 60
1, 247354, Note_on_c, 0, 71, 75
1, 247357, Note_on_c, 0, 65, 75
1, 247381, Control_c, 0, 67, 96
1, 247396, Control_c, 0, 67, 95
1, 247411, Control_c, 0, 67, 94
1, 247426, Control_c, 0, 67, 92
1, 247439, Note_off_c, 0, 65, 44
1, 247441, Control_c, 0, 67, 89
1, 247450, Note_on_c, 0, 51, 75
1, 247456, Note_on_c, 0, 66, 75
1, 247456, Control_c, 0, 67, 84
1, 247458, Note_off_c, 0, 71, 54
1, 247470, Control_c, 0, 67, 78
1, 247485, Control_c, 0, 67, 72
1, 247491, Note_off_c, 0, 49, 60
1, 247500, Control_c, 0, 67, 65
1, 247515, Control_c, 0, 67, 59
1, 247526, Note_off_c, 0, 66, 60
1, 247530, Control_c, 0, 67, 53
1, 247538, Note_off_c, 0, 51, 60
1, 247545, Control_c, 0, 67, 50
1, 247551, Note_on_c, 0, 53, 81
1, 247556, Note_on_c, 0, 68, 79
1, 247560, Control_c, 0, 67, 47
1, 247575, Control_c, 0, 67, 45
1, 247589, Control_c, 0, 67, 44
1, 247604, Control_c, 0, 67, 42
1, 247618, Note_off_c, 0, 68, 60
1, 247619, Control_c, 0, 67, 40
1, 247634, Control_c, 0, 67, 39
1, 247649, Control_c, 0, 67, 38
1, 247649, Note_on_c, 0, 54, 74
1, 247652, Note_on_c, 0, 70, 80
1, 247658, Note_off_c, 0, 53, 35
1, 247664, Note_on_c, 0, 61, 66
1, 247678, Control_c, 0, 67, 37
1, 247743, Note_on_c, 0, 52, 68
1, 247756, Note_off_c, 0, 61, 0
1, 247756, Note_on_c, 0, 61, 3
1, 247759, Note_off_c, 0, 54, 58
1, 247843, Note_off_c, 0, 61, 54
1, 247850, Note_off_c, 0, 52, 60
1, 247858, Note_on_c, 0, 54, 74
1, 247878, Note_off_c, 0, 70, 35
1, 247886, Control_c, 0, 67, 37
1, 247960, Note_off_c, 0, 54, 50
1, 247971, Note_on_c, 0, 60, 56
1, 247974, Note_on_c, 0, 75, 78
1, 247974, Note_on_c, 0, 51, 62
1, 247975, Control_c, 0, 67, 36
1, 248019, Control_c, 0, 67, 36
1, 248093, Note_on_c, 0, 56, 64
1, 248095, Note_off_c, 0, 51, 57
1, 248131, Control_c, 0, 67, 35
1, 248134, Note_off_c, 0, 60, 44
1, 248201, Note_on_c, 0, 54, 66
1, 248201, Note_off_c, 0, 56, 57
1, 248288, Note_on_c, 0, 68, 74
1, 248306, Note_off_c, 0, 54, 63
1, 248306, Note_off_c, 0, 75, 48
1, 248315, Note_on_c, 0, 52, 66
1, 248383, Control_c, 0, 67, 36
1, 248394, Note_on_c, 0, 66, 75
1, 248406, Note_off_c, 0, 68, 58
1, 248408, Note_on_c, 0, 51, 65
1, 248411, Note_off_c, 0, 52, 58
1, 248427, Control_c, 0, 67, 36
1, 248490, Note_on_c, 0, 68, 73
1, 248490, Note_off_c, 0, 51, 60
1, 248493, Note_off_c, 0, 66, 60
1, 248496, Note_on_c, 0, 52, 70
1, 248516, Control_c, 0, 67, 37
1, 248578, Note_on_c, 0, 64, 76
1, 248582, Note_on_c, 0, 73, 80
1, 248602, Note_off_c, 0, 52, 60
1, 248603, Note_on_c, 0, 49, 70
1, 248603, Note_off_c, 0, 68, 42
1, 248650, Control_c, 0, 67, 37
1, 248667, Note_on_c, 0, 54, 73
1, 248678, Note_on_c, 0, 69, 74
1, 248687, Note_off_c, 0, 64, 48
1, 248775, Note_on_c, 0, 68, 73
1, 248793, Note_on_c, 0, 52, 75
1, 248795, Note_off_c, 0, 69, 56
1, 248811, Note_off_c, 0, 73, 60
1, 248813, Note_off_c, 0, 54, 57
1, 248818, Note_off_c, 0, 49, 56
1, 248892, Note_on_c, 0, 66, 78
1, 248897, Note_off_c, 0, 68, 57
1, 248906, Note_on_c, 0, 51, 78
1, 248913, Note_off_c, 0, 52, 61
1, 248963, Note_off_c, 0, 66, 63
1, 248997, Note_on_c, 0, 64, 65
1, 249042, Control_c, 0, 67, 37
1, 249065, Note_off_c, 0, 51, 58
1, 249086, Control_c, 0, 67, 36
1, 249088, Note_on_c, 0, 66, 76
1, 249101, Note_off_c, 0, 64, 59
1, 249193, Note_on_c, 0, 72, 78
1, 249201, Note_on_c, 0, 63, 81
1, 249203, Note_off_c, 0, 66, 59
1, 249208, Note_on_c, 0, 56, 74
1, 249309, Note_on_c, 0, 68, 72
1, 249351, Note_off_c, 0, 72, 55
1, 249384, Control_c, 0, 67, 36
1, 249408, Note_on_c, 0, 66, 74
1, 249432, Note_off_c, 0, 63, 44
1, 249432, Note_off_c, 0, 56, 53
1, 249461, Note_off_c, 0, 68, 49
1, 249508, Note_on_c, 0, 73, 83
1, 249512, Note_off_c, 0, 66, 59
1, 249515, Note_on_c, 0, 64, 75
1, 249527, Note_on_c, 0, 49, 63
1, 249569, Control_c, 0, 67, 35
1, 249617, Note_off_c, 0, 64, 60
1, 249622, Note_on_c, 0, 63, 70
1, 249657, Note_off_c, 0, 49, 48
1, 249712, Note_on_c, 0, 64, 74
1, 249721, Note_off_c, 0, 63, 58
1, 249751, Note_off_c, 0, 73, 57
1, 249756, Note_off_c, 0, 64, 60
1, 249813, Note_on_c, 0, 69, 55
1, 249821, Control_c, 0, 64, 40
1, 249825, Note_on_c, 0, 61, 76
1, 249832, Note_on_c, 0, 54, 75
1, 249835, Control_c, 0, 64, 53
1, 249850, Control_c, 0, 64, 58
1, 249865, Control_c, 0, 64, 60
1, 249880, Control_c, 0, 64, 61
1, 249895, Control_c, 0, 64, 63
1, 249909, Control_c, 0, 64, 64
1, 249910, Note_off_c, 0, 54, 62
1, 249913, Note_off_c, 0, 61, 59
1, 249917, Note_on_c, 0, 68, 68
1, 249924, Control_c, 0, 64, 65
1, 249931, Note_on_c, 0, 66, 64
1, 249939, Control_c, 0, 64, 66
1, 249943, Note_off_c, 0, 69, 52
1, 249954, Control_c, 0, 64, 68
1, 249969, Control_c, 0, 64, 68
1, 249983, Control_c, 0, 64, 69
1, 250027, Note_on_c, 0, 64, 75
1, 250031, Note_on_c, 0, 69, 71
1, 250034, Note_off_c, 0, 66, 44
1, 250073, Control_c, 0, 64, 68
1, 250073, Note_off_c, 0, 64, 57
1, 250077, Note_off_c, 0, 68, 50
1, 250088, Control_c, 0, 64, 63
1, 250100, Note_off_c, 0, 69, 62
1, 250102, Control_c, 0, 64, 50
1, 250117, Control_c, 0, 64, 33
1, 250132, Control_c, 0, 64, 0
1, 250139, Note_on_c, 0, 66, 85
1, 250141, Note_on_c, 0, 63, 75
1, 250173, Note_on_c, 0, 59, 63
1, 250222, Control_c, 0, 67, 36
1, 250228, Note_off_c, 0, 63, 60
1, 250240, Note_on_c, 0, 71, 79
1, 250249, Note_on_c, 0, 61, 64
1, 250259, Note_off_c, 0, 66, 61
1, 250280, Note_off_c, 0, 59, 58
1, 250326, Note_on_c, 0, 63, 72
1, 250327, Note_off_c, 0, 61, 59
1, 250345, Note_on_c, 0, 69, 83
1, 250375, Note_off_c, 0, 63, 58
1, 250381, Note_off_c, 0, 71, 59
1, 250406, Control_c, 0, 67, 35
1, 250448, Note_on_c, 0, 59, 76
1, 250451, Note_on_c, 0, 68, 87
1, 250469, Note_on_c, 0, 52, 59
1, 250497, Note_off_c, 0, 69, 26
1, 250523, Note_off_c, 0, 59, 60
1, 250526, Note_off_c, 0, 52, 55
1, 250544, Note_on_c, 0, 64, 76
1, 250550, Note_on_c, 0, 66, 84
1, 250583, Note_off_c, 0, 68, 57
1, 250632, Note_on_c, 0, 63, 73
1, 250654, Note_on_c, 0, 68, 80
1, 250668, Note_off_c, 0, 66, 60
1, 250672, Note_off_c, 0, 64, 35
1, 250743, Note_on_c, 0, 57, 55
1, 250749, Note_on_c, 0, 61, 74
1, 250752, Note_off_c, 0, 63, 60
1, 250757, Note_on_c, 0, 64, 86
1, 250761, Note_off_c, 0, 68, 56
1, 250842, Note_on_c, 0, 69, 78
1, 250846, Note_off_c, 0, 57, 46
1, 250850, Control_c, 0, 67, 36
1, 250860, Note_off_c, 0, 61, 60
1, 250865, Control_c, 0, 67, 36
1, 250866, Note_off_c, 0, 64, 60
1, 250880, Control_c, 0, 67, 37
1, 250895, Control_c, 0, 67, 37
1, 250910, Control_c, 0, 67, 38
1, 250925, Control_c, 0, 67, 38
1, 250934, Note_on_c, 0, 68, 73
1, 250940, Control_c, 0, 64, 24
1, 250955, Control_c, 0, 64, 30
1, 250955, Control_c, 0, 67, 39
1, 250970, Control_c, 0, 64, 33
1, 250970, Control_c, 0, 67, 40
1, 250985, Control_c, 0, 67, 41
1, 250994, Note_off_c, 0, 69, 52
1, 251000, Control_c, 0, 67, 42
1, 251015, Control_c, 0, 67, 43
1, 251029, Control_c, 0, 67, 44
1, 251051, Control_c, 0, 67, 45
1, 251053, Note_on_c, 0, 66, 81
1, 251065, Note_on_c, 0, 51, 81
1, 251066, Control_c, 0, 64, 32
1, 251066, Control_c, 0, 67, 45
1, 251068, Note_off_c, 0, 68, 59
1, 251081, Control_c, 0, 64, 30
1, 251081, Control_c, 0, 67, 46
1, 251096, Control_c, 0, 64, 28
1, 251111, Control_c, 0, 64, 26
1, 251126, Control_c, 0, 64, 22
1, 251140, Note_off_c, 0, 51, 60
1, 251141, Control_c, 0, 64, 19
1, 251155, Control_c, 0, 64, 17
1, 251170, Control_c, 0, 64, 16
1, 251173, Note_on_c, 0, 60, 82
1, 251229, Control_c, 0, 67, 46
1, 251244, Control_c, 0, 64, 0
1, 251268, Note_on_c, 0, 58, 77
1, 251289, Note_off_c, 0, 60, 51
1, 251304, Control_c, 0, 67, 47
1, 251319, Control_c, 0, 67, 48
1, 251334, Control_c, 0, 67, 49
1, 251348, Control_c, 0, 67, 50
1, 251363, Control_c, 0, 67, 51
1, 251378, Control_c, 0, 67, 53
1, 251380, Note_off_c, 0, 58, 56
1, 251384, Note_on_c, 0, 60, 89
1, 251387, Note_on_c, 0, 56, 87
1, 251393, Control_c, 0, 64, 26
1, 251393, Control_c, 0, 67, 55
1, 251407, Control_c, 0, 64, 38
1, 251407, Control_c, 0, 67, 55
1, 251422, Control_c, 0, 64, 53
1, 251422, Control_c, 0, 67, 56
1, 251437, Control_c, 0, 64, 60
1, 251452, Control_c, 0, 64, 63
1, 251467, Control_c, 0, 64, 66
1, 251467, Control_c, 0, 67, 56
1, 251481, Control_c, 0, 64, 67
1, 251486, Note_on_c, 0, 64, 65
1, 251496, Control_c, 0, 64, 69
1, 251511, Control_c, 0, 64, 71
1, 251526, Control_c, 0, 64, 72
1, 251541, Control_c, 0, 67, 56
1, 251544, Note_off_c, 0, 60, 55
1, 251559, Note_off_c, 0, 66, 36
1, 251570, Control_c, 0, 64, 72
1, 251585, Control_c, 0, 67, 55
1, 251591, Note_on_c, 0, 63, 76
1, 251595, Note_off_c, 0, 64, 60
1, 251656, Note_off_c, 0, 63, 60
1, 251659, Control_c, 0, 64, 71
1, 251674, Control_c, 0, 64, 68
1, 251688, Control_c, 0, 64, 63
1, 251703, Control_c, 0, 64, 52
1, 251709, Note_on_c, 0, 61, 71
1, 251712, Note_on_c, 0, 64, 67
1, 251712, Note_on_c, 0, 65, 68
1, 251719, Control_c, 0, 64, 32
1, 251734, Control_c, 0, 64, 0
1, 251749, Control_c, 0, 67, 56
1, 251764, Control_c, 0, 67, 56
1, 251775, Note_off_c, 0, 65, 57
1, 251793, Control_c, 0, 64, 35
1, 251793, Control_c, 0, 67, 57
1, 251813, Note_on_c, 0, 68, 72
1, 251814, Note_off_c, 0, 64, 61
1, 251816, Control_c, 0, 64, 54
1, 251831, Control_c, 0, 64, 63
1, 251846, Control_c, 0, 64, 65
1, 251846, Control_c, 0, 67, 57
1, 251860, Control_c, 0, 64, 65
1, 251875, Control_c, 0, 64, 66
1, 251887, Note_off_c, 0, 61, 58
1, 251890, Control_c, 0, 64, 67
1, 251890, Control_c, 0, 67, 57
1, 251903, Note_on_c, 0, 73, 76
1, 251904, Control_c, 0, 64, 67
1, 251919, Control_c, 0, 64, 68
1, 251919, Control_c, 0, 67, 56
1, 251936, Note_off_c, 0, 68, 57
1, 251993, Control_c, 0, 64, 67
1, 252008, Control_c, 0, 64, 62
1, 252022, Note_on_c, 0, 63, 87
1, 252022, Control_c, 0, 64, 51
1, 252037, Control_c, 0, 64, 26
1, 252052, Control_c, 0, 64, 0
1, 252067, Control_c, 0, 67, 56
1, 252112, Control_c, 0, 64, 27
1, 252118, Note_on_c, 0, 72, 71
1, 252127, Control_c, 0, 64, 50
1, 252142, Control_c, 0, 64, 62
1, 252149, Note_off_c, 0, 73, 61
1, 252156, Control_c, 0, 64, 65
1, 252171, Control_c, 0, 64, 66
1, 252171, Control_c, 0, 67, 55
1, 252186, Control_c, 0, 64, 66
1, 252186, Control_c, 0, 67, 54
1, 252201, Control_c, 0, 64, 67
1, 252201, Control_c, 0, 67, 53
1, 252216, Control_c, 0, 64, 68
1, 252216, Control_c, 0, 67, 52
1, 252218, Note_on_c, 0, 70, 80
1, 252230, Control_c, 0, 64, 69
1, 252230, Control_c, 0, 67, 51
1, 252235, Note_off_c, 0, 63, 27
1, 252245, Control_c, 0, 64, 71
1, 252245, Control_c, 0, 67, 50
1, 252246, Note_off_c, 0, 72, 61
1, 252260, Control_c, 0, 64, 72
1, 252260, Control_c, 0, 67, 49
1, 252273, Note_off_c, 0, 70, 61
1, 252275, Control_c, 0, 67, 49
1, 252290, Control_c, 0, 67, 48
1, 252319, Control_c, 0, 67, 48
1, 252328, Note_on_c, 0, 72, 77
1, 252334, Control_c, 0, 64, 71
1, 252338, Note_on_c, 0, 66, 71
1, 252349, Control_c, 0, 64, 68
1, 252349, Control_c, 0, 67, 47
1, 252364, Control_c, 0, 64, 61
1, 252364, Control_c, 0, 67, 47
1, 252378, Control_c, 0, 64, 49
1, 252378, Control_c, 0, 67, 46
1, 252393, Control_c, 0, 64, 33
1, 252408, Control_c, 0, 64, 24
1, 252408, Control_c, 0, 67, 46
1, 252434, Note_on_c, 0, 75, 81
1, 252437, Control_c, 0, 64, 26
1, 252443, Note_off_c, 0, 72, 63
1, 252452, Control_c, 0, 64, 40
1, 252467, Control_c, 0, 64, 53
1, 252482, Control_c, 0, 64, 61
1, 252490, Note_off_c, 0, 66, 47
1, 252496, Control_c, 0, 64, 64
1, 252511, Control_c, 0, 64, 65
1, 252536, Note_on_c, 0, 80, 82
1, 252542, Control_c, 0, 64, 66
1, 252542, Control_c, 0, 67, 45
1, 252559, Note_off_c, 0, 75, 61
1, 252565, Control_c, 0, 64, 67
1, 252580, Control_c, 0, 64, 68
1, 252580, Control_c, 0, 67, 45
1, 252595, Control_c, 0, 64, 69
1, 252624, Control_c, 0, 64, 68
1, 252639, Control_c, 0, 64, 64
1, 252641, Note_on_c, 0, 64, 78
1, 252653, Control_c, 0, 64, 53
1, 252668, Control_c, 0, 64, 42
1, 252668, Control_c, 0, 67, 44
1, 252683, Control_c, 0, 64, 30
1, 252698, Control_c, 0, 64, 25
1, 252722, Note_on_c, 0, 78, 73
1, 252727, Control_c, 0, 64, 27
1, 252727, Control_c, 0, 67, 44
1, 252731, Note_on_c, 0, 63, 77
1, 252742, Control_c, 0, 64, 42
1, 252748, Note_off_c, 0, 64, 56
1, 252757, Control_c, 0, 64, 58
1, 252766, Note_off_c, 0, 80, 57
1, 252772, Control_c, 0, 64, 64
1, 252787, Control_c, 0, 64, 66
1, 252801, Control_c, 0, 64, 67
1, 252819, Note_on_c, 0, 76, 84
1, 252834, Note_on_c, 0, 61, 69
1, 252847, Note_off_c, 0, 63, 59
1, 252853, Note_off_c, 0, 78, 58
1, 252870, Note_off_c, 0, 76, 63
1, 252875, Control_c, 0, 64, 65
1, 252875, Control_c, 0, 67, 43
1, 252890, Control_c, 0, 64, 60
1, 252905, Control_c, 0, 64, 49
1, 252919, Note_off_c, 0, 61, 60
1, 252920, Control_c, 0, 64, 24
1, 252934, Note_on_c, 0, 75, 89
1, 252934, Control_c, 0, 64, 0
1, 252936, Note_on_c, 0, 67, 90
1, 253042, Note_on_c, 0, 76, 79
1, 253053, Control_c, 0, 67, 44
1, 253068, Control_c, 0, 67, 44
1, 253096, Note_off_c, 0, 67, 36
1, 253097, Note_off_c, 0, 75, 58
1, 253134, Note_on_c, 0, 73, 82
1, 253161, Note_off_c, 0, 76, 58
1, 253185, Note_off_c, 0, 56, 56
1, 253201, Control_c, 0, 67, 44
1, 253230, Note_on_c, 0, 72, 82
1, 253240, Note_on_c, 0, 68, 75
1, 253241, Note_off_c, 0, 73, 62
1, 253347, Note_on_c, 0, 73, 87
1, 253353, Note_off_c, 0, 72, 64
1, 253373, Note_off_c, 0, 68, 48
1, 253373, Control_c, 0, 67, 44
1, 253447, Control_c, 0, 67, 44
1, 253452, Note_on_c, 0, 75, 84
1, 253459, Note_on_c, 0, 54, 72
1, 253476, Note_off_c, 0, 73, 63
1, 253491, Control_c, 0, 67, 43
1, 253551, Note_on_c, 0, 68, 76
1, 253553, Note_off_c, 0, 75, 58
1, 253566, Note_on_c, 0, 52, 82
1, 253584, Note_off_c, 0, 54, 48
1, 253648, Note_off_c, 0, 68, 58
1, 253655, Note_off_c, 0, 52, 58
1, 253662, Note_on_c, 0, 80, 83
1, 253726, Note_off_c, 0, 80, 60
1, 253773, Note_on_c, 0, 78, 84
1, 253784, Note_on_c, 0, 51, 70
1, 253836, Note_off_c, 0, 78, 61
1, 253847, Note_off_c, 0, 51, 59
1, 253861, Control_c, 0, 67, 44
1, 253884, Note_on_c, 0, 76, 95
1, 253890, Note_on_c, 0, 56, 79
1, 253891, Control_c, 0, 67, 44
1, 253894, Note_on_c, 0, 49, 74
1, 253921, Control_c, 0, 67, 45
1, 253936, Control_c, 0, 67, 45
1, 253950, Control_c, 0, 67, 46
1, 253965, Control_c, 0, 67, 47
1, 253980, Control_c, 0, 67, 47
1, 253981, Note_on_c, 0, 75, 80
1, 253987, Note_on_c, 0, 55, 71
1, 253987, Note_off_c, 0, 56, 61
1, 253989, Note_off_c, 0, 76, 61
1, 253994, Control_c, 0, 64, 22
1, 253994, Control_c, 0, 67, 48
1, 254009, Control_c, 0, 64, 39
1, 254009, Control_c, 0, 67, 48
1, 254024, Control_c, 0, 64, 49
1, 254046, Control_c, 0, 64, 54
1, 254046, Control_c, 0, 67, 49
1, 254061, Control_c, 0, 64, 56
1, 254076, Control_c, 0, 64, 58
1, 254086, Note_on_c, 0, 76, 81
1, 254091, Note_on_c, 0, 56, 75
1, 254091, Control_c, 0, 64, 60
1, 254094, Note_off_c, 0, 55, 57
1, 254095, Note_off_c, 0, 75, 63
1, 254106, Control_c, 0, 64, 62
1, 254108, Note_off_c, 0, 76, 66
1, 254121, Control_c, 0, 64, 63
1, 254136, Control_c, 0, 64, 64
1, 254151, Control_c, 0, 64, 65
1, 254166, Control_c, 0, 64, 65
1, 254180, Control_c, 0, 64, 66
1, 254180, Control_c, 0, 67, 49
1, 254186, Note_off_c, 0, 56, 60
1, 254195, Control_c, 0, 64, 67
1, 254195, Control_c, 0, 67, 50
1, 254202, Note_on_c, 0, 68, 83
1, 254210, Control_c, 0, 64, 67
1, 254216, Note_on_c, 0, 58, 74
1, 254225, Control_c, 0, 64, 68
1, 254225, Control_c, 0, 67, 50
1, 254240, Control_c, 0, 64, 69
1, 254255, Control_c, 0, 64, 70
1, 254255, Control_c, 0, 67, 51
1, 254259, Note_on_c, 0, 67, 81
1, 254264, Note_off_c, 0, 68, 62
1, 254270, Control_c, 0, 64, 70
1, 254270, Control_c, 0, 67, 51
1, 254285, Control_c, 0, 64, 71
1, 254291, Note_on_c, 0, 56, 72
1, 254297, Note_off_c, 0, 58, 57
1, 254299, Control_c, 0, 67, 52
1, 254314, Control_c, 0, 64, 71
1, 254314, Control_c, 0, 67, 52
1, 254323, Note_off_c, 0, 67, 60
1, 254329, Control_c, 0, 67, 53
1, 254330, Note_on_c, 0, 68, 70
1, 254344, Control_c, 0, 67, 54
1, 254359, Control_c, 0, 64, 72
1, 254359, Control_c, 0, 67, 55
1, 254368, Note_off_c, 0, 56, 60
1, 254373, Control_c, 0, 64, 72
1, 254373, Control_c, 0, 67, 57
1, 254375, Note_on_c, 0, 58, 72
1, 254386, Note_on_c, 0, 67, 75
1, 254388, Control_c, 0, 67, 58
1, 254398, Note_off_c, 0, 68, 58
1, 254403, Control_c, 0, 67, 59
1, 254418, Control_c, 0, 67, 60
1, 254420, Note_off_c, 0, 49, 61
1, 254432, Control_c, 0, 67, 61
1, 254438, Note_off_c, 0, 58, 60
1, 254447, Control_c, 0, 67, 62
1, 254458, Note_on_c, 0, 68, 72
1, 254462, Control_c, 0, 64, 70
1, 254462, Control_c, 0, 67, 65
1, 254472, Note_off_c, 0, 67, 61
1, 254477, Control_c, 0, 64, 62
1, 254477, Control_c, 0, 67, 68
1, 254481, Note_on_c, 0, 48, 58
1, 254491, Note_on_c, 0, 51, 74
1, 254492, Control_c, 0, 64, 48
1, 254492, Control_c, 0, 67, 72
1, 254506, Control_c, 0, 64, 0
1, 254506, Control_c, 0, 67, 75
1, 254521, Control_c, 0, 67, 78
1, 254536, Control_c, 0, 67, 80
1, 254551, Control_c, 0, 67, 82
1, 254566, Control_c, 0, 67, 83
1, 254576, Note_on_c, 0, 53, 76
1, 254576, Note_off_c, 0, 51, 60
1, 254580, Control_c, 0, 67, 84
1, 254595, Control_c, 0, 64, 16
1, 254595, Control_c, 0, 67, 86
1, 254610, Control_c, 0, 64, 29
1, 254610, Control_c, 0, 67, 88
1, 254625, Control_c, 0, 64, 32
1, 254625, Control_c, 0, 67, 90
1, 254640, Control_c, 0, 67, 92
1, 254654, Control_c, 0, 67, 93
1, 254669, Control_c, 0, 67, 94
1, 254673, Note_on_c, 0, 55, 75
1, 254679, Note_off_c, 0, 53, 60
1, 254684, Control_c, 0, 67, 94
1, 254699, Control_c, 0, 64, 30
1, 254714, Control_c, 0, 64, 27
1, 254729, Control_c, 0, 64, 20
1, 254744, Control_c, 0, 64, 0
1, 254759, Note_on_c, 0, 56, 88
1, 254773, Control_c, 0, 67, 94
1, 254777, Note_on_c, 0, 47, 72
1, 254795, Control_c, 0, 67, 93
1, 254798, Note_off_c, 0, 55, 56
1, 254810, Control_c, 0, 67, 92
1, 254824, Control_c, 0, 67, 90
1, 254839, Note_off_c, 0, 56, 58
1, 254839, Control_c, 0, 67, 89
1, 254848, Note_off_c, 0, 48, 43
1, 254854, Control_c, 0, 67, 87
1, 254864, Note_on_c, 0, 58, 81
1, 254869, Control_c, 0, 67, 86
1, 254884, Control_c, 0, 67, 85
1, 254899, Control_c, 0, 67, 85
1, 254914, Control_c, 0, 67, 84
1, 254944, Control_c, 0, 67, 84
1, 254954, Note_off_c, 0, 58, 60
1, 254976, Note_off_c, 0, 47, 51
1, 254979, Note_on_c, 0, 59, 84
1, 255018, Control_c, 0, 67, 83
1, 255081, Note_on_c, 0, 61, 82
1, 255081, Note_off_c, 0, 59, 34
1, 255102, Note_on_c, 0, 46, 76
1, 255108, Control_c, 0, 67, 84
1, 255178, Note_on_c, 0, 59, 81
1, 255180, Note_off_c, 0, 46, 60
1, 255191, Note_off_c, 0, 61, 59
1, 255211, Note_off_c, 0, 68, 39
1, 255284, Note_on_c, 0, 61, 78
1, 255291, Note_off_c, 0, 59, 61
1, 255329, Control_c, 0, 67, 83
1, 255344, Control_c, 0, 67, 83
1, 255384, Note_on_c, 0, 66, 84
1, 255385, Note_on_c, 0, 58, 86
1, 255388, Note_off_c, 0, 61, 57
1, 255409, Note_on_c, 0, 51, 62
1, 255418, Control_c, 0, 67, 82
1, 255450, Note_off_c, 0, 51, 59
1, 255462, Control_c, 0, 67, 82
1, 255487, Note_on_c, 0, 63, 77
1, 255492, Control_c, 0, 67, 81
1, 255498, Note_off_c, 0, 58, 57
1, 255522, Control_c, 0, 67, 81
1, 255593, Note_on_c, 0, 61, 79
1, 255632, Note_off_c, 0, 63, 59
1, 255669, Note_off_c, 0, 66, 36
1, 255690, Note_on_c, 0, 60, 84
1, 255701, Note_on_c, 0, 44, 78
1, 255706, Note_off_c, 0, 61, 61
1, 255739, Note_off_c, 0, 44, 63
1, 255780, Note_on_c, 0, 64, 80
1, 255805, Note_off_c, 0, 60, 52
1, 255856, Note_off_c, 0, 64, 56
1, 255886, Control_c, 0, 67, 81
1, 255889, Note_on_c, 0, 66, 76
1, 255968, Note_off_c, 0, 66, 59
1, 255994, Note_on_c, 0, 59, 85
1, 255996, Note_on_c, 0, 63, 84
1, 256001, Note_on_c, 0, 56, 79
1, 256019, Control_c, 0, 67, 82
1, 256097, Note_on_c, 0, 68, 82
1, 256098, Note_on_c, 0, 54, 72
1, 256126, Note_off_c, 0, 56, 59
1, 256130, Note_off_c, 0, 63, 61
1, 256188, Note_on_c, 0, 56, 55
1, 256196, Control_c, 0, 67, 81
1, 256199, Note_on_c, 0, 66, 78
1, 256200, Note_off_c, 0, 54, 60
1, 256226, Control_c, 0, 67, 80
1, 256254, Note_off_c, 0, 59, 56
1, 256256, Control_c, 0, 67, 80
1, 256270, Note_off_c, 0, 68, 57
1, 256285, Control_c, 0, 67, 79
1, 256306, Note_on_c, 0, 65, 81
1, 256321, Note_on_c, 0, 49, 85
1, 256321, Note_off_c, 0, 56, 59
1, 256352, Control_c, 0, 67, 79
1, 256370, Note_off_c, 0, 66, 57
1, 256371, Note_off_c, 0, 49, 64
1, 256402, Note_off_c, 0, 65, 61
1, 256415, Note_on_c, 0, 58, 82
1, 256497, Note_on_c, 0, 59, 80
1, 256511, Note_off_c, 0, 58, 49
1, 256516, Control_c, 0, 67, 78
1, 256531, Control_c, 0, 67, 78
1, 256561, Control_c, 0, 67, 77
1, 256610, Note_on_c, 0, 64, 81
1, 256612, Note_on_c, 0, 56, 87
1, 256618, Note_on_c, 0, 49, 74
1, 256619, Control_c, 0, 67, 78
1, 256620, Note_off_c, 0, 59, 60
1, 256634, Control_c, 0, 67, 78
1, 256637, Note_on_c, 0, 58, 42
1, 256664, Control_c, 0, 67, 79
1, 256667, Note_off_c, 0, 58, 53
1, 256679, Control_c, 0, 67, 79
1, 256693, Control_c, 0, 67, 80
1, 256695, Note_off_c, 0, 49, 61
1, 256708, Control_c, 0, 67, 81
1, 256709, Note_on_c, 0, 47, 65
1, 256711, Note_off_c, 0, 56, 58
1, 256711, Note_on_c, 0, 61, 80
1, 256723, Control_c, 0, 67, 82
1, 256738, Control_c, 0, 67, 84
1, 256753, Control_c, 0, 67, 85
1, 256768, Control_c, 0, 67, 86
1, 256783, Control_c, 0, 67, 87
1, 256797, Note_on_c, 0, 58, 76
1, 256798, Control_c, 0, 67, 88
1, 256813, Note_off_c, 0, 61, 60
1, 256813, Control_c, 0, 67, 89
1, 256813, Note_on_c, 0, 49, 66
1, 256827, Control_c, 0, 67, 90
1, 256842, Control_c, 0, 67, 90
1, 256853, Note_off_c, 0, 47, 40
1, 256857, Control_c, 0, 67, 91
1, 256882, Note_off_c, 0, 64, 0
1, 256882, Note_on_c, 0, 64, 6
1, 256890, Note_off_c, 0, 58, 57
1, 256901, Control_c, 0, 67, 90
1, 256908, Note_on_c, 0, 58, 73
1, 256916, Control_c, 0, 67, 89
1, 256919, Note_on_c, 0, 42, 82
1, 256927, Note_off_c, 0, 49, 60
1, 256931, Control_c, 0, 67, 88
1, 256946, Control_c, 0, 67, 88
1, 256961, Control_c, 0, 67, 87
1, 256965, Note_off_c, 0, 42, 60
1, 256974, Note_off_c, 0, 64, 0
1, 257002, Note_on_c, 0, 63, 82
1, 257012, Poly_aftertouch_c, 0, 64, 127
1, 257016, Note_off_c, 0, 58, 56
1, 257062, Poly_aftertouch_c, 0, 64, 0
1, 257108, Note_on_c, 0, 64, 65
1, 257200, Note_off_c, 0, 63, 49
1, 257203, Note_off_c, 0, 64, 55
1, 257204, Control_c, 0, 67, 88
1, 257218, Control_c, 0, 67, 89
1, 257223, Note_on_c, 0, 61, 80
1, 257227, Note_on_c, 0, 57, 83
1, 257233, Control_c, 0, 67, 90
1, 257243, Note_on_c, 0, 54, 73
1, 257248, Control_c, 0, 67, 91
1, 257263, Control_c, 0, 67, 91
1, 257278, Control_c, 0, 67, 92
1, 257293, Control_c, 0, 67, 93
1, 257307, Control_c, 0, 67, 95
1, 257315, Note_on_c, 0, 66, 73
1, 257323, Control_c, 0, 67, 98
1, 257334, Note_off_c, 0, 54, 60
1, 257338, Control_c, 0, 67, 101
1, 257342, Note_off_c, 0, 61, 53
1, 257351, Note_on_c, 0, 52, 54
1, 257353, Control_c, 0, 67, 105
1, 257368, Control_c, 0, 67, 108
1, 257383, Control_c, 0, 67, 110
1, 257397, Control_c, 0, 67, 111
1, 257407, Note_on_c, 0, 64, 71
1, 257412, Control_c, 0, 67, 112
1, 257427, Control_c, 0, 67, 113
1, 257431, Note_on_c, 0, 54, 62
1, 257439, Note_off_c, 0, 52, 52
1, 257442, Control_c, 0, 67, 114
1, 257456, Control_c, 0, 67, 115
1, 257471, Control_c, 0, 67, 115
1, 257483, Note_off_c, 0, 66, 0
1, 257486, Control_c, 0, 67, 116
1, 257501, Control_c, 0, 67, 116
1, 257513, Note_on_c, 0, 63, 81
1, 257516, Control_c, 0, 67, 117
1, 257525, Poly_aftertouch_c, 0, 66, 0
1, 257531, Control_c, 0, 67, 118
1, 257531, Note_on_c, 0, 47, 78
1, 257546, Control_c, 0, 67, 118
1, 257546, Note_off_c, 0, 64, 54
1, 257549, Note_off_c, 0, 54, 55
1, 257613, Note_on_c, 0, 61, 74
1, 257618, Note_off_c, 0, 57, 49
1, 257658, Note_off_c, 0, 63, 55
1, 257664, Control_c, 0, 67, 118
1, 257708, Control_c, 0, 67, 117
1, 257713, Note_on_c, 0, 59, 80
1, 257727, Note_off_c, 0, 61, 57
1, 257738, Control_c, 0, 67, 117
1, 257753, Control_c, 0, 67, 116
1, 257794, Note_off_c, 0, 59, 57
1, 257826, Note_on_c, 0, 64, 87
1, 257843, Note_on_c, 0, 56, 74
1, 257864, Control_c, 0, 67, 115
1, 257879, Control_c, 0, 67, 113
1, 257894, Control_c, 0, 67, 112
1, 257909, Control_c, 0, 67, 111
1, 257922, Note_on_c, 0, 54, 73
1, 257923, Control_c, 0, 67, 110
1, 257932, Note_off_c, 0, 56, 58
1, 257938, Control_c, 0, 67, 109
1, 257953, Control_c, 0, 67, 108
1, 257967, Control_c, 0, 67, 107
1, 257982, Control_c, 0, 67, 106
1, 257997, Control_c, 0, 67, 104
1, 258012, Control_c, 0, 67, 101
1, 258019, Note_on_c, 0, 52, 74
1, 258020, Note_off_c, 0, 54, 62
1, 258027, Control_c, 0, 67, 97
1, 258041, Control_c, 0, 67, 93
1, 258056, Control_c, 0, 67, 87
1, 258071, Control_c, 0, 67, 80
1, 258086, Control_c, 0, 67, 73
1, 258101, Control_c, 0, 67, 66
1, 258114, Note_on_c, 0, 54, 77
1, 258117, Control_c, 0, 67, 59
1, 258132, Control_c, 0, 67, 53
1, 258140, Note_off_c, 0, 52, 55
1, 258146, Control_c, 0, 67, 49
1, 258161, Control_c, 0, 67, 45
1, 258176, Control_c, 0, 67, 42
1, 258186, Note_on_c, 0, 56, 78
1, 258190, Control_c, 0, 67, 38
1, 258195, Note_off_c, 0, 54, 61
1, 258205, Control_c, 0, 67, 37
1, 258221, Note_on_c, 0, 63, 83
1, 258234, Note_off_c, 0, 56, 59
1, 258235, Control_c, 0, 67, 37
1, 258238, Note_off_c, 0, 64, 57
1, 258301, Note_on_c, 0, 58, 79
1, 258315, Note_on_c, 0, 61, 81
1, 258324, Control_c, 0, 67, 37
1, 258344, Note_off_c, 0, 63, 59
1, 258369, Control_c, 0, 67, 38
1, 258381, Note_off_c, 0, 47, 41
1, 258402, Note_on_c, 0, 59, 75
1, 258402, Note_off_c, 0, 58, 60
1, 258404, Note_on_c, 0, 63, 81
1, 258413, Control_c, 0, 67, 38
1, 258427, Note_off_c, 0, 61, 61
1, 258487, Note_on_c, 0, 49, 59
1, 258487, Control_c, 0, 67, 39
1, 258497, Note_on_c, 0, 65, 90
1, 258511, Note_off_c, 0, 63, 61
1, 258527, Note_off_c, 0, 59, 51
1, 258553, Control_c, 0, 67, 38
1, 258583, Control_c, 0, 67, 38
1, 258595, Note_on_c, 0, 50, 64
1, 258598, Control_c, 0, 67, 37
1, 258600, Note_on_c, 0, 66, 83
1, 258607, Note_off_c, 0, 49, 60
1, 258613, Control_c, 0, 67, 37
1, 258628, Control_c, 0, 67, 35
1, 258637, Note_off_c, 0, 65, 62
1, 258643, Control_c, 0, 67, 33
1, 258658, Control_c, 0, 67, 28
1, 258671, Note_off_c, 0, 50, 60
1, 258672, Control_c, 0, 67, 21
1, 258702, Control_c, 0, 67, 0
1, 258709, Note_on_c, 0, 68, 84
1, 258715, Note_on_c, 0, 41, 67
1, 258730, Note_off_c, 0, 66, 57
1, 258810, Note_on_c, 0, 61, 79
1, 258896, Note_off_c, 0, 61, 61
1, 258906, Note_on_c, 0, 62, 83
1, 258938, Note_off_c, 0, 41, 45
1, 259001, Note_on_c, 0, 61, 85
1, 259007, Note_on_c, 0, 53, 74
1, 259011, Note_off_c, 0, 62, 58
1, 259098, Note_on_c, 0, 62, 85
1, 259098, Note_off_c, 0, 61, 61
1, 259202, Note_on_c, 0, 59, 82
1, 259206, Note_off_c, 0, 53, 37
1, 259223, Note_off_c, 0, 62, 58
1, 259281, Note_off_c, 0, 59, 61
1, 259305, Note_on_c, 0, 57, 81
1, 259307, Note_on_c, 0, 54, 70
1, 259403, Note_on_c, 0, 66, 84
1, 259449, Note_off_c, 0, 68, 55
1, 259502, Note_on_c, 0, 65, 86
1, 259512, Note_off_c, 0, 57, 57
1, 259516, Note_off_c, 0, 66, 60
1, 259516, Note_on_c, 0, 56, 75
1, 259603, Note_on_c, 0, 66, 87
1, 259606, Note_on_c, 0, 57, 72
1, 259612, Note_off_c, 0, 65, 57
1, 259616, Note_off_c, 0, 56, 60
1, 259662, Note_off_c, 0, 66, 63
1, 259695, Note_on_c, 0, 69, 90
1, 259712, Note_off_c, 0, 54, 0
1, 259712, Note_on_c, 0, 54, 17
1, 259782, Note_on_c, 0, 73, 93
1, 259815, Note_off_c, 0, 69, 37
1, 259826, Note_off_c, 0, 57, 58
1, 259871, Note_off_c, 0, 73, 56
1, 259883, Note_on_c, 0, 78, 91
1, 259889, Note_on_c, 0, 61, 67
1, 259971, Note_on_c, 0, 60, 67
1, 260008, Note_off_c, 0, 61, 35
1, 260047, Note_off_c, 0, 54, 36
1, 260083, Note_on_c, 0, 61, 68
1, 260088, Note_on_c, 0, 56, 64
1, 260089, Note_off_c, 0, 60, 58
1, 260139, Note_off_c, 0, 61, 61
1, 260172, Note_off_c, 0, 56, 61
1, 260182, Note_on_c, 0, 54, 57
1, 260197, Note_on_c, 0, 63, 76
1, 260275, Note_on_c, 0, 61, 70
1, 260282, Note_off_c, 0, 63, 61
1, 260379, Note_off_c, 0, 61, 60
1, 260386, Note_on_c, 0, 63, 80
1, 260466, Note_off_c, 0, 54, 58
1, 260473, Note_off_c, 0, 78, 59
1, 260480, Note_on_c, 0, 77, 84
1, 260481, Note_on_c, 0, 56, 73
1, 260488, Note_off_c, 0, 63, 59
1, 260589, Note_on_c, 0, 58, 69
1, 260685, Note_off_c, 0, 58, 59
1, 260700, Note_on_c, 0, 60, 69
1, 260796, Note_on_c, 0, 76, 94
1, 260808, Note_on_c, 0, 61, 73
1, 260817, Note_off_c, 0, 60, 59
1, 260842, Note_off_c, 0, 77, 56
1, 260894, Note_on_c, 0, 63, 77
1, 260933, Control_c, 0, 64, 32
1, 260938, Note_off_c, 0, 61, 57
1, 260948, Control_c, 0, 64, 39
1, 260963, Control_c, 0, 64, 38
1, 260971, Note_off_c, 0, 76, 62
1, 260978, Control_c, 0, 64, 34
1, 260992, Control_c, 0, 64, 23
1, 260995, Note_on_c, 0, 64, 78
1, 260998, Note_off_c, 0, 63, 61
1, 261007, Control_c, 0, 64, 0
1, 261089, Note_on_c, 0, 75, 86
1, 261090, Note_off_c, 0, 64, 49
1, 261090, Note_on_c, 0, 66, 87
1, 261126, Control_c, 0, 64, 37
1, 261141, Control_c, 0, 64, 49
1, 261156, Control_c, 0, 64, 54
1, 261171, Control_c, 0, 64, 56
1, 261185, Control_c, 0, 64, 58
1, 261190, Note_off_c, 0, 66, 59
1, 261191, Note_on_c, 0, 64, 78
1, 261200, Control_c, 0, 64, 60
1, 261215, Control_c, 0, 64, 61
1, 261230, Control_c, 0, 64, 63
1, 261245, Control_c, 0, 64, 63
1, 261259, Control_c, 0, 64, 64
1, 261274, Control_c, 0, 64, 64
1, 261275, Note_on_c, 0, 66, 79
1, 261279, Note_off_c, 0, 64, 59
1, 261290, Note_off_c, 0, 75, 54
1, 261311, Note_off_c, 0, 66, 64
1, 261320, Control_c, 0, 64, 61
1, 261334, Control_c, 0, 64, 50
1, 261349, Control_c, 0, 64, 35
1, 261364, Control_c, 0, 64, 0
1, 261376, Note_on_c, 0, 80, 93
1, 261398, Note_on_c, 0, 63, 77
1, 261408, Control_c, 0, 64, 26
1, 261423, Control_c, 0, 64, 51
1, 261438, Control_c, 0, 64, 61
1, 261453, Control_c, 0, 64, 65
1, 261468, Control_c, 0, 64, 66
1, 261471, Note_off_c, 0, 80, 60
1, 261475, Note_on_c, 0, 68, 74
1, 261482, Control_c, 0, 64, 67
1, 261497, Control_c, 0, 64, 68
1, 261505, Note_off_c, 0, 68, 52
1, 261509, Note_on_c, 0, 66, 49
1, 261512, Control_c, 0, 64, 70
1, 261513, Note_off_c, 0, 63, 56
1, 261534, Control_c, 0, 64, 72
1, 261542, Note_off_c, 0, 66, 39
1, 261549, Control_c, 0, 64, 73
1, 261564, Control_c, 0, 64, 73
1, 261586, Note_on_c, 0, 66, 68
1, 261668, Control_c, 0, 64, 73
1, 261677, Note_off_c, 0, 66, 56
1, 261678, Note_on_c, 0, 73, 82
1, 261680, Note_on_c, 0, 64, 77
1, 261697, Control_c, 0, 64, 72
1, 261712, Control_c, 0, 64, 69
1, 261727, Control_c, 0, 64, 61
1, 261728, Note_off_c, 0, 56, 40
1, 261741, Control_c, 0, 64, 46
1, 261746, Note_off_c, 0, 64, 52
1, 261771, Control_c, 0, 64, 0
1, 261775, Note_on_c, 0, 54, 59
1, 261783, Note_on_c, 0, 63, 75
1, 261853, Note_on_c, 0, 56, 58
1, 261868, Note_off_c, 0, 54, 58
1, 261871, Note_off_c, 0, 63, 44
1, 261872, Note_on_c, 0, 64, 75
1, 261910, Note_off_c, 0, 64, 62
1, 261956, Note_off_c, 0, 56, 61
1, 261968, Note_on_c, 0, 57, 66
1, 261984, Note_on_c, 0, 61, 84
1, 262053, Note_off_c, 0, 57, 59
1, 262070, Note_on_c, 0, 69, 80
1, 262074, Note_off_c, 0, 61, 60
1, 262077, Note_on_c, 0, 56, 66
1, 262163, Note_off_c, 0, 73, 35
1, 262169, Note_on_c, 0, 68, 82
1, 262169, Note_off_c, 0, 56, 59
1, 262175, Note_on_c, 0, 57, 64
1, 262184, Note_off_c, 0, 69, 58
1, 262266, Note_off_c, 0, 57, 58
1, 262274, Note_on_c, 0, 66, 89
1, 262286, Note_on_c, 0, 51, 69
1, 262321, Note_off_c, 0, 68, 58
1, 262375, Note_on_c, 0, 72, 80
1, 262375, Note_on_c, 0, 52, 67
1, 262456, Note_off_c, 0, 51, 39
1, 262471, Note_on_c, 0, 54, 69
1, 262475, Note_on_c, 0, 70, 81
1, 262491, Control_c, 0, 64, 25
1, 262501, Note_off_c, 0, 52, 58
1, 262506, Note_off_c, 0, 72, 58
1, 262506, Control_c, 0, 64, 41
1, 262520, Control_c, 0, 64, 53
1, 262535, Control_c, 0, 64, 59
1, 262550, Control_c, 0, 64, 61
1, 262557, Note_off_c, 0, 54, 61
1, 262564, Control_c, 0, 64, 62
1, 262566, Note_on_c, 0, 72, 75
1, 262569, Note_on_c, 0, 56, 67
1, 262576, Note_off_c, 0, 70, 60
1, 262579, Control_c, 0, 64, 63
1, 262594, Control_c, 0, 64, 64
1, 262599, Note_off_c, 0, 66, 60
1, 262605, Note_off_c, 0, 56, 59
1, 262609, Control_c, 0, 64, 64
1, 262624, Control_c, 0, 64, 65
1, 262653, Control_c, 0, 64, 65
1, 262656, Note_on_c, 0, 70, 79
1, 262660, Note_on_c, 0, 58, 55
1, 262682, Control_c, 0, 64, 66
1, 262694, Note_off_c, 0, 72, 60
1, 262712, Control_c, 0, 64, 66
1, 262742, Control_c, 0, 64, 67
1, 262759, Note_on_c, 0, 68, 83
1, 262771, Note_on_c, 0, 60, 63
1, 262792, Note_off_c, 0, 70, 58
1, 262806, Note_off_c, 0, 68, 59
1, 262807, Note_off_c, 0, 58, 57
1, 262809, Note_off_c, 0, 60, 59
1, 262816, Control_c, 0, 64, 66
1, 262831, Control_c, 0, 64, 63
1, 262846, Control_c, 0, 64, 51
1, 262861, Control_c, 0, 64, 25
1, 262867, Note_on_c, 0, 80, 94
1, 262876, Control_c, 0, 64, 0
1, 262879, Note_on_c, 0, 61, 66
1, 262881, Note_on_c, 0, 65, 78
1, 262995, Note_off_c, 0, 61, 59
1, 263007, Note_on_c, 0, 59, 67
1, 263115, Note_on_c, 0, 61, 72
1, 263123, Note_off_c, 0, 59, 61
1, 263123, Note_off_c, 0, 65, 37
1, 263138, Note_off_c, 0, 80, 58
1, 263204, Note_off_c, 0, 61, 60
1, 263205, Note_on_c, 0, 79, 87
1, 263212, Note_on_c, 0, 64, 76
1, 263226, Note_on_c, 0, 58, 71
1, 263322, Note_on_c, 0, 63, 61
1, 263414, Note_on_c, 0, 61, 59
1, 263437, Note_off_c, 0, 64, 58
1, 263450, Note_off_c, 0, 63, 60
1, 263468, Note_off_c, 0, 58, 59
1, 263516, Note_on_c, 0, 60, 64
1, 263532, Note_on_c, 0, 78, 89
1, 263534, Note_on_c, 0, 63, 64
1, 263571, Note_off_c, 0, 79, 61
1, 263619, Note_off_c, 0, 61, 18
1, 263621, Note_on_c, 0, 58, 69
1, 263639, Control_c, 0, 64, 28
1, 263651, Note_off_c, 0, 60, 58
1, 263654, Control_c, 0, 64, 37
1, 263669, Control_c, 0, 64, 42
1, 263672, Note_off_c, 0, 78, 60
1, 263684, Control_c, 0, 64, 42
1, 263714, Control_c, 0, 64, 42
1, 263728, Control_c, 0, 64, 40
1, 263743, Control_c, 0, 64, 38
1, 263750, Note_on_c, 0, 60, 66
1, 263758, Control_c, 0, 64, 35
1, 263766, Note_off_c, 0, 58, 56
1, 263773, Control_c, 0, 64, 32
1, 263796, Control_c, 0, 64, 29
1, 263805, Note_off_c, 0, 63, 52
1, 263811, Control_c, 0, 64, 26
1, 263826, Control_c, 0, 64, 25
1, 263841, Control_c, 0, 64, 24
1, 263850, Note_on_c, 0, 77, 85
1, 263862, Note_on_c, 0, 56, 74
1, 263865, Note_on_c, 0, 68, 61
1, 263869, Note_off_c, 0, 60, 60
1, 263871, Control_c, 0, 64, 23
1, 263915, Control_c, 0, 64, 26
1, 263930, Control_c, 0, 64, 33
1, 263944, Control_c, 0, 64, 43
1, 263959, Control_c, 0, 64, 50
1, 263974, Control_c, 0, 64, 55
1, 263979, Note_on_c, 0, 61, 60
1, 263989, Control_c, 0, 64, 56
1, 264048, Note_off_c, 0, 77, 54
1, 264048, Control_c, 0, 64, 57
1, 264068, Note_on_c, 0, 59, 65
1, 264083, Note_off_c, 0, 61, 54
1, 264092, Control_c, 0, 64, 55
1, 264107, Control_c, 0, 64, 50
1, 264113, Note_off_c, 0, 68, 39
1, 264116, Note_off_c, 0, 56, 55
1, 264122, Control_c, 0, 64, 39
1, 264137, Control_c, 0, 64, 0
1, 264150, Note_on_c, 0, 76, 94
1, 264184, Note_off_c, 0, 59, 61
1, 264188, Note_on_c, 0, 61, 67
1, 264190, Note_on_c, 0, 57, 66
1, 264211, Control_c, 0, 64, 27
1, 264226, Control_c, 0, 64, 49
1, 264241, Control_c, 0, 64, 60
1, 264255, Control_c, 0, 64, 63
1, 264270, Control_c, 0, 64, 65
1, 264285, Control_c, 0, 64, 66
1, 264300, Control_c, 0, 64, 67
1, 264308, Note_off_c, 0, 76, 61
1, 264315, Control_c, 0, 64, 68
1, 264317, Note_off_c, 0, 57, 59
1, 264327, Note_on_c, 0, 56, 58
1, 264329, Control_c, 0, 64, 70
1, 264339, Note_off_c, 0, 61, 56
1, 264344, Control_c, 0, 64, 72
1, 264359, Control_c, 0, 64, 72
1, 264374, Control_c, 0, 64, 73
1, 264389, Control_c, 0, 64, 73
1, 264393, Note_on_c, 0, 57, 61
1, 264403, Control_c, 0, 64, 74
1, 264414, Note_off_c, 0, 56, 60
1, 264418, Control_c, 0, 64, 74
1, 264419, Note_off_c, 0, 57, 67
1, 264433, Control_c, 0, 64, 75
1, 264492, Control_c, 0, 64, 73
1, 264508, Control_c, 0, 64, 69
1, 264510, Note_on_c, 0, 75, 93
1, 264519, Note_on_c, 0, 48, 76
1, 264522, Note_on_c, 0, 66, 74
1, 264523, Control_c, 0, 64, 60
1, 264545, Control_c, 0, 64, 45
1, 264559, Control_c, 0, 64, 22
1, 264574, Control_c, 0, 64, 0
1, 264646, Note_on_c, 0, 49, 75
1, 264673, Note_off_c, 0, 48, 58
1, 264707, Control_c, 0, 64, 16
1, 264711, Note_off_c, 0, 75, 51
1, 264722, Control_c, 0, 64, 17
1, 264760, Note_on_c, 0, 51, 80
1, 264766, Control_c, 0, 64, 16
1, 264792, Note_off_c, 0, 49, 58
1, 264796, Control_c, 0, 64, 0
1, 264838, Note_off_c, 0, 66, 54
1, 264882, Note_on_c, 0, 52, 87
1, 264882, Note_on_c, 0, 72, 80
1, 264897, Note_off_c, 0, 51, 59
1, 264899, Note_on_c, 0, 70, 63
1, 264909, Note_on_c, 0, 71, 55
1, 264930, Note_off_c, 0, 71, 58
1, 264933, Note_on_c, 0, 65, 20
1, 264936, Note_off_c, 0, 70, 57
1, 264973, Note_off_c, 0, 65, 30
1, 265009, Note_on_c, 0, 51, 76
1, 265040, Note_off_c, 0, 52, 57
1, 265145, Note_on_c, 0, 52, 82
1, 265145, Note_on_c, 0, 68, 82
1, 265155, Note_off_c, 0, 51, 58
1, 265160, Note_off_c, 0, 72, 62
1, 265238, Note_off_c, 0, 68, 59
1, 265257, Note_off_c, 0, 52, 52
1, 265263, Note_on_c, 0, 73, 96
1, 265263, Note_on_c, 0, 43, 81
1, 265279, Note_on_c, 0, 64, 82
1, 265415, Note_on_c, 0, 44, 80
1, 265427, Note_off_c, 0, 64, 0
1, 265427, Note_on_c, 0, 64, 3
1, 265447, Note_off_c, 0, 43, 58
1, 265546, Note_on_c, 0, 46, 80
1, 265553, Note_on_c, 0, 63, 81
1, 265560, Note_off_c, 0, 44, 61
1, 265597, Note_off_c, 0, 64, 56
1, 265672, Note_on_c, 0, 44, 85
1, 265679, Note_on_c, 0, 64, 88
1, 265700, Note_off_c, 0, 46, 60
1, 265715, Note_off_c, 0, 63, 40
1, 265742, Note_off_c, 0, 73, 61
1, 265800, Note_on_c, 0, 69, 82
1, 265951, Note_on_c, 0, 68, 80
1, 265989, Note_off_c, 0, 69, 56
1, 266076, Note_off_c, 0, 64, 33
1, 266107, Note_on_c, 0, 72, 90
1, 266118, Note_on_c, 0, 66, 73
1, 266122, Note_off_c, 0, 68, 52
1, 266265, Note_on_c, 0, 64, 72
1, 266273, Note_off_c, 0, 66, 57
1, 266379, Note_off_c, 0, 64, 46
1, 266426, Note_on_c, 0, 63, 79
1, 266427, Control_c, 0, 64, 27
1, 266442, Control_c, 0, 64, 46
1, 266456, Control_c, 0, 64, 57
1, 266471, Control_c, 0, 64, 61
1, 266486, Control_c, 0, 64, 63
1, 266501, Control_c, 0, 64, 64
1, 266508, Note_off_c, 0, 72, 62
1, 266516, Control_c, 0, 64, 66
1, 266530, Control_c, 0, 64, 68
1, 266545, Control_c, 0, 64, 70
1, 266560, Control_c, 0, 64, 72
1, 266575, Control_c, 0, 64, 74
1, 266590, Control_c, 0, 64, 76
1, 266605, Control_c, 0, 64, 77
1, 266620, Control_c, 0, 64, 78
1, 266707, Note_on_c, 0, 37, 69
1, 266709, Note_on_c, 0, 73, 92
1, 266712, Note_off_c, 0, 44, 60
1, 266716, Note_on_c, 0, 65, 80
1, 266723, Control_c, 0, 64, 76
1, 266727, Note_on_c, 0, 49, 48
1, 266738, Control_c, 0, 64, 71
1, 266739, Note_off_c, 0, 63, 46
1, 266753, Control_c, 0, 64, 63
1, 266768, Control_c, 0, 64, 53
1, 266790, Control_c, 0, 64, 40
1, 266805, Control_c, 0, 64, 23
1, 266820, Control_c, 0, 64, 0
1, 267132, Control_c, 0, 64, 18
1, 267147, Control_c, 0, 64, 30
1, 267162, Control_c, 0, 64, 32
1, 267280, Control_c, 0, 64, 33
1, 267295, Control_c, 0, 64, 36
1, 267310, Control_c, 0, 64, 40
1, 267325, Control_c, 0, 64, 42
1, 267443, Control_c, 0, 64, 41
1, 267458, Control_c, 0, 64, 40
1, 267733, Control_c, 0, 64, 41
1, 267887, Note_off_c, 0, 49, 25
1, 268793, Control_c, 0, 64, 40
1, 268867, Control_c, 0, 64, 40
1, 268874, Note_off_c, 0, 65, 50
1, 268882, Note_off_c, 0, 73, 55
1, 268895, Note_off_c, 0, 37, 3
1, 268897, Control_c, 0, 64, 39
1, 268926, Control_c, 0, 64, 38
1, 268941, Control_c, 0, 64, 36
1, 268956, Control_c, 0, 64, 34
1, 268971, Control_c, 0, 64, 33
1, 268986, Control_c, 0, 64, 33
1, 269037, Control_c, 0, 64, 32
1, 269051, Control_c, 0, 64, 32
1, 269096, Control_c, 0, 64, 31
1, 269125, Control_c, 0, 64, 31
1, 269155, Control_c, 0, 64, 30
1, 269170, Control_c, 0, 64, 30
1, 269185, Control_c, 0, 64, 28
1, 269199, Control_c, 0, 64, 27
1, 269214, Control_c, 0, 64, 26
1, 269229, Control_c, 0, 64, 25
1, 269244, Control_c, 0, 64, 24
1, 269304, Control_c, 0, 64, 23
1, 269319, Control_c, 0, 64, 23
1, 269348, Control_c, 0, 64, 22
1, 269363, Control_c, 0, 64, 21
1, 269378, Control_c, 0, 64, 21
1, 269393, Control_c, 0, 64, 20
1, 269408, Control_c, 0, 64, 18
1, 269422, Control_c, 0, 64, 16
1, 269645, Control_c, 0, 64, 0
1, 271445, Control_c, 0, 64, 18
1, 271460, Control_c, 0, 64, 20
1, 271475, Control_c, 0, 64, 21
1, 271490, Control_c, 0, 64, 21
1, 271505, Control_c, 0, 64, 22
1, 271519, Control_c, 0, 64, 24
1, 271534, Control_c, 0, 64, 25
1, 271549, Control_c, 0, 64, 27
1, 271564, Control_c, 0, 64, 28
1, 271578, Control_c, 0, 64, 29
1, 271593, Control_c, 0, 64, 29
1, 271608, Control_c, 0, 64, 30
1, 271623, Control_c, 0, 64, 30
1, 271637, Control_c, 0, 64, 31
1, 271652, Control_c, 0, 64, 32
1, 271667, Control_c, 0, 64, 33
1, 271682, Control_c, 0, 64, 34
1, 271698, Control_c, 0, 64, 34
1, 271713, Control_c, 0, 64, 35
1, 271728, Control_c, 0, 64, 36
1, 271742, Control_c, 0, 64, 36
1, 271802, Control_c, 0, 64, 37
1, 271846, Control_c, 0, 64, 37
1, 271935, Control_c, 0, 64, 38
1, 272031, Control_c, 0, 64, 38
1, 272342, Control_c, 0, 64, 39
1, 272342, End_track
0, 0, End_of_file
