0, 0, Header, 0, 1, 384
1, 0, Start_track
1, 0, Title_t, "Prelude from 3 Pieces-J.Lisiecki"
1, 0, Text_t, "2008 e-Piano Junior Competition recital round"
1, 0, Text_t, "recorded July 2008"
1, 0, Text_t, "http://www.piano-e-competition.com/"
1, 0, Text_t, "File processed for distribution by software from Zenph Studios, Inc., http://www.zenph.com"
1, 0, Instrument_name_t, "Yamaha Disklavier Pro Mark IV concert grand piano, model DCFIIISM4PRO"
1, 0, Sequencer_specific, 39, 67, 113, 0, 1, 0, 1, 0, 80, 114, 101, 108, 117, 100, 101, 32, 32, 32, 32, 32, 32, 32, 32, 32, 74, 97, 110, 32, 76, 105, 115, 105, 101, 99, 107, 105, 32, 32, 32, 32
1, 0, Sequencer_specific, 6, 67, 113, 0, 0, 0, 69
1, 0, System_exclusive, 21, 67, 113, 126, 21, 0, 2, 2, 0, 3, 14, 1, 4, 1, 13, 13, 10, 11, 9, 2, 7, 247
1, 0, Sequencer_specific, 5, 67, 123, 12, 2, 1
1, 0, Tempo, 512820
1, 0, Time_signature, 4, 2, 24, 8
1, 0, System_exclusive, 5, 126, 127, 9, 1, 247
1, 1, System_exclusive, 8, 67, 16, 76, 0, 0, 126, 0, 247
1, 2, System_exclusive, 8, 67, 16, 76, 8, 9, 7, 1, 247
1, 3, Control_c, 0, 0, 0
1, 3, Control_c, 1, 0, 0
1, 3, Control_c, 2, 0, 0
1, 3, Control_c, 3, 0, 0
1, 3, Control_c, 4, 0, 0
1, 3, Control_c, 5, 0, 0
1, 3, Control_c, 6, 0, 0
1, 3, Control_c, 7, 0, 0
1, 3, Control_c, 8, 0, 0
1, 3, Control_c, 9, 0, 127
1, 3, Control_c, 10, 0, 0
1, 3, Control_c, 11, 0, 0
1, 3, Control_c, 12, 0, 0
1, 3, Control_c, 13, 0, 0
1, 3, Control_c, 14, 0, 0
1, 3, Control_c, 15, 0, 0
1, 4, Control_c, 0, 32, 0
1, 4, Control_c, 1, 32, 0
1, 4, Control_c, 2, 32, 0
1, 4, Control_c, 3, 32, 0
1, 4, Control_c, 4, 32, 0
1, 4, Control_c, 5, 32, 0
1, 4, Control_c, 6, 32, 0
1, 4, Control_c, 7, 32, 0
1, 4, Control_c, 8, 32, 0
1, 4, Control_c, 9, 32, 0
1, 4, Control_c, 10, 32, 0
1, 4, Control_c, 11, 32, 0
1, 4, Control_c, 12, 32, 0
1, 4, Control_c, 13, 32, 0
1, 4, Control_c, 14, 32, 0
1, 4, Control_c, 15, 32, 0
1, 5, Program_c, 0, 0
1, 5, Program_c, 1, 0
1, 5, Program_c, 2, 0
1, 5, Program_c, 3, 0
1, 5, Program_c, 4, 0
1, 5, Program_c, 5, 0
1, 5, Program_c, 6, 0
1, 5, Program_c, 7, 0
1, 5, Program_c, 8, 0
1, 5, Program_c, 9, 0
1, 5, Program_c, 10, 0
1, 5, Program_c, 11, 0
1, 5, Program_c, 12, 0
1, 5, Program_c, 13, 0
1, 5, Program_c, 14, 0
1, 5, Program_c, 15, 0
1, 6, Control_c, 0, 7, 100
1, 6, Control_c, 1, 7, 100
1, 6, Control_c, 2, 7, 100
1, 6, Control_c, 3, 7, 100
1, 6, Control_c, 4, 7, 100
1, 6, Control_c, 5, 7, 100
1, 6, Control_c, 6, 7, 100
1, 6, Control_c, 7, 7, 100
1, 6, Control_c, 8, 7, 100
1, 6, Control_c, 9, 7, 100
1, 6, Control_c, 10, 7, 100
1, 6, Control_c, 11, 7, 100
1, 6, Control_c, 12, 7, 100
1, 6, Control_c, 13, 7, 100
1, 6, Control_c, 14, 7, 100
1, 6, Control_c, 15, 7, 100
1, 117, Control_c, 0, 64, 15
1, 117, Control_c, 0, 67, 15
1, 229, Control_c, 0, 64, 31
1, 229, Control_c, 0, 67, 31
1, 341, Control_c, 0, 64, 46
1, 341, Control_c, 0, 67, 46
1, 452, Control_c, 0, 64, 63
1, 452, Control_c, 0, 67, 63
1, 564, Control_c, 0, 64, 77
1, 564, Control_c, 0, 67, 77
1, 676, Control_c, 0, 64, 94
1, 676, Control_c, 0, 67, 94
1, 787, Control_c, 0, 64, 108
1, 787, Control_c, 0, 67, 108
1, 899, Control_c, 0, 64, 127
1, 899, Control_c, 0, 67, 127
1, 1146, Note_on_c, 0, 27, 8
1, 1598, Note_on_c, 0, 34, 15
1, 1714, Note_off_c, 0, 27, 35
1, 1756, Note_off_c, 0, 34, 28
1, 1806, Note_on_c, 0, 39, 23
1, 1963, Note_off_c, 0, 39, 38
1, 1976, Note_on_c, 0, 50, 14
1, 2080, Note_on_c, 0, 55, 28
1, 2173, Note_off_c, 0, 50, 37
1, 2183, Note_on_c, 0, 62, 39
1, 2210, Note_off_c, 0, 55, 0
1, 2246, Poly_aftertouch_c, 0, 55, 127
1, 2307, Note_off_c, 0, 62, 32
1, 2351, Note_on_c, 0, 50, 26
1, 2354, Note_on_c, 0, 51, 45
1, 2436, Poly_aftertouch_c, 0, 55, 0
1, 2475, Note_on_c, 0, 58, 35
1, 2499, Note_off_c, 0, 50, 39
1, 2520, Note_off_c, 0, 51, 31
1, 2559, Note_on_c, 0, 63, 44
1, 2651, Note_off_c, 0, 63, 57
1, 2664, Note_off_c, 0, 58, 37
1, 2714, Note_on_c, 0, 50, 14
1, 2814, Note_on_c, 0, 57, 29
1, 2893, Note_off_c, 0, 57, 54
1, 2927, Note_on_c, 0, 62, 39
1, 2934, Note_off_c, 0, 50, 33
1, 2988, Note_off_c, 0, 62, 51
1, 3024, Note_on_c, 0, 57, 41
1, 3152, Note_on_c, 0, 50, 18
1, 3158, Note_off_c, 0, 57, 37
1, 3285, Note_off_c, 0, 50, 39
1, 3372, Note_on_c, 0, 27, 19
1, 3507, Note_on_c, 0, 34, 32
1, 3587, Note_off_c, 0, 27, 40
1, 3605, Note_on_c, 0, 39, 32
1, 3675, Note_off_c, 0, 34, 46
1, 3677, Note_off_c, 0, 39, 58
1, 3693, Note_on_c, 0, 50, 36
1, 3745, Note_on_c, 0, 55, 46
1, 3802, Note_off_c, 0, 55, 60
1, 3808, Note_on_c, 0, 62, 57
1, 3818, Note_off_c, 0, 50, 36
1, 3876, Note_on_c, 0, 55, 43
1, 3897, Note_off_c, 0, 62, 53
1, 3949, Note_on_c, 0, 50, 42
1, 3955, Note_off_c, 0, 55, 61
1, 3983, Note_on_c, 0, 51, 43
1, 4037, Note_off_c, 0, 50, 53
1, 4047, Note_on_c, 0, 58, 47
1, 4064, Note_off_c, 0, 51, 48
1, 4102, Note_on_c, 0, 63, 49
1, 4195, Note_off_c, 0, 58, 55
1, 4203, Note_off_c, 0, 63, 61
1, 4213, Note_on_c, 0, 50, 35
1, 4311, Note_on_c, 0, 57, 42
1, 4401, Note_off_c, 0, 57, 56
1, 4405, Note_off_c, 0, 50, 39
1, 4407, Note_on_c, 0, 62, 37
1, 4484, Note_off_c, 0, 62, 52
1, 4493, Note_on_c, 0, 57, 35
1, 4583, Note_on_c, 0, 50, 36
1, 4648, Note_off_c, 0, 50, 56
1, 4662, Note_off_c, 0, 57, 36
1, 4725, Note_on_c, 0, 27, 41
1, 4865, Note_on_c, 0, 34, 41
1, 4910, Note_off_c, 0, 27, 42
1, 4958, Note_on_c, 0, 39, 51
1, 5026, Note_on_c, 0, 57, 48
1, 5028, Note_off_c, 0, 39, 60
1, 5033, Note_off_c, 0, 34, 43
1, 5100, Note_on_c, 0, 62, 53
1, 5153, Note_off_c, 0, 57, 60
1, 5158, Note_on_c, 0, 69, 72
1, 5164, Note_off_c, 0, 62, 61
1, 5245, Note_on_c, 0, 62, 50
1, 5274, Note_off_c, 0, 69, 57
1, 5284, Note_on_c, 0, 57, 55
1, 5323, Note_off_c, 0, 62, 56
1, 5361, Note_off_c, 0, 57, 57
1, 5375, Note_on_c, 0, 51, 52
1, 5429, Note_on_c, 0, 58, 50
1, 5462, Note_off_c, 0, 51, 60
1, 5477, Note_on_c, 0, 63, 44
1, 5549, Note_on_c, 0, 55, 51
1, 5561, Note_off_c, 0, 58, 55
1, 5590, Note_off_c, 0, 63, 41
1, 5620, Note_on_c, 0, 60, 53
1, 5709, Note_off_c, 0, 55, 58
1, 5710, Note_off_c, 0, 60, 61
1, 5715, Note_on_c, 0, 67, 65
1, 5798, Note_on_c, 0, 60, 41
1, 5847, Note_off_c, 0, 67, 55
1, 5862, Note_on_c, 0, 55, 49
1, 5906, Note_off_c, 0, 60, 58
1, 5939, Note_on_c, 0, 27, 44
1, 5961, Note_off_c, 0, 55, 50
1, 6025, Note_on_c, 0, 34, 41
1, 6058, Note_off_c, 0, 27, 52
1, 6061, Note_on_c, 0, 39, 50
1, 6091, Note_on_c, 0, 53, 42
1, 6111, Note_off_c, 0, 34, 60
1, 6114, Note_off_c, 0, 39, 58
1, 6155, Note_on_c, 0, 58, 46
1, 6217, Note_off_c, 0, 53, 56
1, 6221, Note_off_c, 0, 58, 61
1, 6228, Note_on_c, 0, 65, 61
1, 6312, Note_off_c, 0, 65, 58
1, 6326, Note_on_c, 0, 58, 41
1, 6368, Note_off_c, 0, 58, 62
1, 6374, Note_on_c, 0, 53, 46
1, 6416, Note_on_c, 0, 51, 43
1, 6463, Note_off_c, 0, 53, 55
1, 6486, Note_off_c, 0, 51, 51
1, 6498, Note_on_c, 0, 58, 49
1, 6546, Note_on_c, 0, 63, 42
1, 6583, Note_off_c, 0, 63, 48
1, 6780, Note_on_c, 0, 57, 27
1, 6836, Note_on_c, 0, 63, 62
1, 6841, Note_off_c, 0, 57, 58
1, 6856, Note_off_c, 0, 58, 31
1, 6931, Note_on_c, 0, 57, 46
1, 7112, Note_off_c, 0, 63, 18
1, 7123, Note_on_c, 0, 27, 36
1, 7239, Control_c, 0, 64, 119
1, 7244, Note_on_c, 0, 34, 39
1, 7254, Control_c, 0, 64, 109
1, 7269, Control_c, 0, 64, 99
1, 7283, Control_c, 0, 64, 91
1, 7298, Control_c, 0, 64, 83
1, 7313, Control_c, 0, 64, 76
1, 7328, Control_c, 0, 64, 73
1, 7331, Note_on_c, 0, 39, 42
1, 7343, Control_c, 0, 64, 74
1, 7358, Control_c, 0, 64, 78
1, 7373, Control_c, 0, 64, 85
1, 7379, Note_off_c, 0, 27, 41
1, 7387, Control_c, 0, 64, 93
1, 7402, Control_c, 0, 64, 99
1, 7417, Note_on_c, 0, 50, 39
1, 7417, Control_c, 0, 64, 102
1, 7432, Control_c, 0, 64, 105
1, 7436, Note_off_c, 0, 34, 54
1, 7441, Note_off_c, 0, 39, 55
1, 7447, Control_c, 0, 64, 107
1, 7461, Control_c, 0, 64, 109
1, 7476, Control_c, 0, 64, 112
1, 7477, Note_on_c, 0, 55, 43
1, 7491, Control_c, 0, 64, 114
1, 7506, Control_c, 0, 64, 117
1, 7521, Note_off_c, 0, 50, 51
1, 7521, Control_c, 0, 64, 119
1, 7525, Note_on_c, 0, 62, 64
1, 7532, Note_off_c, 0, 55, 59
1, 7533, Note_off_c, 0, 57, 32
1, 7535, Control_c, 0, 64, 122
1, 7550, Control_c, 0, 64, 125
1, 7566, Control_c, 0, 64, 127
1, 7602, Note_on_c, 0, 55, 48
1, 7628, Note_off_c, 0, 62, 54
1, 7663, Note_on_c, 0, 50, 49
1, 7680, Note_off_c, 0, 55, 61
1, 7686, Note_on_c, 0, 51, 49
1, 7714, Control_c, 0, 67, 123
1, 7729, Control_c, 0, 67, 118
1, 7744, Control_c, 0, 67, 113
1, 7745, Note_on_c, 0, 58, 56
1, 7753, Note_off_c, 0, 51, 55
1, 7758, Control_c, 0, 67, 109
1, 7759, Note_off_c, 0, 50, 44
1, 7773, Control_c, 0, 67, 106
1, 7777, Note_on_c, 0, 63, 69
1, 7788, Control_c, 0, 67, 102
1, 7802, Control_c, 0, 67, 99
1, 7817, Control_c, 0, 67, 95
1, 7831, Note_off_c, 0, 63, 63
1, 7832, Control_c, 0, 67, 92
1, 7847, Control_c, 0, 67, 90
1, 7855, Note_off_c, 0, 58, 61
1, 7862, Control_c, 0, 67, 89
1, 7864, Note_on_c, 0, 50, 49
1, 7877, Control_c, 0, 67, 89
1, 7892, Control_c, 0, 67, 88
1, 7921, Control_c, 0, 67, 88
1, 7944, Control_c, 0, 67, 87
1, 7958, Note_on_c, 0, 57, 48
1, 7959, Control_c, 0, 67, 87
1, 8018, Note_off_c, 0, 57, 57
1, 8019, Note_on_c, 0, 62, 69
1, 8021, Note_off_c, 0, 50, 35
1, 8032, Control_c, 0, 67, 87
1, 8062, Control_c, 0, 67, 88
1, 8077, Control_c, 0, 67, 88
1, 8091, Note_on_c, 0, 57, 49
1, 8091, Control_c, 0, 67, 89
1, 8106, Control_c, 0, 67, 89
1, 8119, Note_off_c, 0, 62, 57
1, 8121, Control_c, 0, 67, 90
1, 8136, Control_c, 0, 67, 90
1, 8151, Control_c, 0, 67, 91
1, 8157, Note_on_c, 0, 50, 55
1, 8179, Note_off_c, 0, 57, 59
1, 8181, Control_c, 0, 64, 125
1, 8181, Control_c, 0, 67, 91
1, 8193, Note_on_c, 0, 27, 54
1, 8196, Control_c, 0, 64, 117
1, 8196, Control_c, 0, 67, 92
1, 8210, Control_c, 0, 64, 106
1, 8225, Control_c, 0, 64, 92
1, 8240, Control_c, 0, 64, 77
1, 8255, Control_c, 0, 64, 65
1, 8268, Note_on_c, 0, 34, 51
1, 8270, Control_c, 0, 64, 59
1, 8284, Control_c, 0, 64, 67
1, 8299, Control_c, 0, 64, 80
1, 8299, Control_c, 0, 67, 91
1, 8314, Control_c, 0, 64, 95
1, 8315, Note_on_c, 0, 39, 58
1, 8327, Note_off_c, 0, 50, 50
1, 8329, Control_c, 0, 64, 111
1, 8329, Control_c, 0, 67, 91
1, 8335, Note_off_c, 0, 27, 53
1, 8344, Control_c, 0, 64, 127
1, 8360, Control_c, 0, 67, 90
1, 8361, Note_off_c, 0, 34, 65
1, 8372, Note_off_c, 0, 39, 60
1, 8404, Control_c, 0, 67, 90
1, 8413, Note_on_c, 0, 50, 44
1, 8419, Control_c, 0, 67, 89
1, 8502, Note_on_c, 0, 55, 49
1, 8522, Control_c, 0, 67, 90
1, 8541, Note_off_c, 0, 50, 57
1, 8552, Control_c, 0, 67, 90
1, 8553, Note_on_c, 0, 62, 64
1, 8555, Note_off_c, 0, 55, 64
1, 8652, Note_on_c, 0, 55, 54
1, 8658, Note_off_c, 0, 62, 53
1, 8658, Note_on_c, 0, 51, 37
1, 8704, Note_on_c, 0, 50, 45
1, 8707, Control_c, 0, 67, 90
1, 8747, Note_on_c, 0, 58, 45
1, 8752, Control_c, 0, 67, 89
1, 8792, Note_on_c, 0, 63, 58
1, 8792, Note_off_c, 0, 55, 31
1, 8796, Control_c, 0, 67, 89
1, 8810, Control_c, 0, 67, 88
1, 8839, Note_off_c, 0, 63, 64
1, 8853, Note_off_c, 0, 50, 31
1, 8854, Control_c, 0, 67, 87
1, 8866, Note_off_c, 0, 58, 62
1, 8884, Control_c, 0, 67, 87
1, 8893, Note_off_c, 0, 51, 52
1, 8905, Note_on_c, 0, 50, 29
1, 8981, Note_on_c, 0, 57, 44
1, 9037, Note_off_c, 0, 57, 60
1, 9041, Note_on_c, 0, 62, 56
1, 9050, Note_off_c, 0, 50, 35
1, 9121, Note_off_c, 0, 62, 56
1, 9138, Note_on_c, 0, 57, 40
1, 9177, Note_on_c, 0, 50, 39
1, 9204, Note_off_c, 0, 57, 51
1, 9206, Note_on_c, 0, 27, 44
1, 9212, Note_off_c, 0, 50, 56
1, 9264, Note_on_c, 0, 34, 43
1, 9300, Control_c, 0, 64, 113
1, 9315, Control_c, 0, 64, 98
1, 9328, Note_on_c, 0, 39, 52
1, 9329, Control_c, 0, 64, 83
1, 9344, Control_c, 0, 64, 68
1, 9359, Control_c, 0, 64, 63
1, 9374, Control_c, 0, 64, 66
1, 9374, Control_c, 0, 67, 86
1, 9387, Note_on_c, 0, 57, 50
1, 9389, Control_c, 0, 64, 73
1, 9403, Control_c, 0, 64, 84
1, 9404, Note_off_c, 0, 27, 56
1, 9418, Control_c, 0, 64, 96
1, 9418, Control_c, 0, 67, 86
1, 9441, Control_c, 0, 64, 108
1, 9455, Control_c, 0, 64, 116
1, 9462, Note_off_c, 0, 34, 54
1, 9462, Note_off_c, 0, 39, 59
1, 9470, Control_c, 0, 64, 119
1, 9482, Note_on_c, 0, 62, 42
1, 9485, Control_c, 0, 64, 120
1, 9485, Control_c, 0, 67, 85
1, 9500, Control_c, 0, 64, 121
1, 9544, Control_c, 0, 67, 85
1, 9545, Note_off_c, 0, 57, 57
1, 9547, Note_on_c, 0, 69, 70
1, 9549, Note_off_c, 0, 62, 61
1, 9560, Control_c, 0, 67, 84
1, 9575, Control_c, 0, 67, 82
1, 9589, Control_c, 0, 67, 80
1, 9604, Control_c, 0, 67, 77
1, 9619, Control_c, 0, 67, 73
1, 9634, Control_c, 0, 67, 69
1, 9644, Note_on_c, 0, 62, 46
1, 9649, Control_c, 0, 67, 66
1, 9663, Control_c, 0, 67, 63
1, 9678, Control_c, 0, 67, 61
1, 9681, Note_on_c, 0, 57, 47
1, 9693, Control_c, 0, 67, 59
1, 9708, Control_c, 0, 67, 57
1, 9723, Note_off_c, 0, 69, 40
1, 9723, Control_c, 0, 67, 53
1, 9737, Control_c, 0, 67, 48
1, 9749, Note_on_c, 0, 58, 60
1, 9752, Control_c, 0, 64, 121
1, 9752, Control_c, 0, 67, 44
1, 9767, Control_c, 0, 64, 120
1, 9767, Control_c, 0, 67, 41
1, 9781, Control_c, 0, 64, 119
1, 9781, Control_c, 0, 67, 39
1, 9790, Note_off_c, 0, 57, 51
1, 9796, Control_c, 0, 64, 118
1, 9796, Control_c, 0, 67, 39
1, 9811, Control_c, 0, 64, 117
1, 9826, Control_c, 0, 64, 115
1, 9826, Control_c, 0, 67, 38
1, 9841, Control_c, 0, 64, 113
1, 9856, Control_c, 0, 64, 110
1, 9861, Note_on_c, 0, 65, 20
1, 9871, Control_c, 0, 64, 106
1, 9873, Note_off_c, 0, 62, 18
1, 9886, Control_c, 0, 64, 102
1, 9886, Control_c, 0, 67, 39
1, 9901, Control_c, 0, 64, 98
1, 9911, Note_on_c, 0, 70, 67
1, 9916, Control_c, 0, 64, 91
1, 9916, Control_c, 0, 67, 39
1, 9930, Control_c, 0, 64, 83
1, 9945, Control_c, 0, 64, 72
1, 9945, Control_c, 0, 67, 40
1, 9960, Control_c, 0, 64, 56
1, 9960, Control_c, 0, 67, 40
1, 9975, Control_c, 0, 64, 0
1, 10005, Control_c, 0, 67, 41
1, 10020, Control_c, 0, 67, 41
1, 10043, Note_on_c, 0, 55, 45
1, 10050, Control_c, 0, 67, 42
1, 10064, Note_off_c, 0, 65, 39
1, 10065, Control_c, 0, 67, 43
1, 10079, Control_c, 0, 64, 61
1, 10079, Control_c, 0, 67, 44
1, 10094, Control_c, 0, 64, 70
1, 10094, Control_c, 0, 67, 45
1, 10109, Control_c, 0, 64, 79
1, 10109, Control_c, 0, 67, 47
1, 10122, Note_on_c, 0, 60, 50
1, 10124, Control_c, 0, 64, 87
1, 10124, Control_c, 0, 67, 50
1, 10139, Control_c, 0, 64, 93
1, 10139, Control_c, 0, 67, 55
1, 10153, Control_c, 0, 64, 96
1, 10153, Control_c, 0, 67, 63
1, 10168, Control_c, 0, 64, 98
1, 10168, Control_c, 0, 67, 74
1, 10190, Control_c, 0, 64, 100
1, 10190, Control_c, 0, 67, 84
1, 10205, Control_c, 0, 64, 102
1, 10205, Control_c, 0, 67, 93
1, 10209, Note_off_c, 0, 60, 54
1, 10220, Control_c, 0, 64, 103
1, 10220, Control_c, 0, 67, 101
1, 10235, Note_on_c, 0, 67, 48
1, 10235, Control_c, 0, 67, 110
1, 10238, Note_off_c, 0, 55, 45
1, 10249, Control_c, 0, 67, 119
1, 10258, Note_off_c, 0, 70, 59
1, 10264, Control_c, 0, 67, 126
1, 10279, Control_c, 0, 67, 127
1, 10292, Note_on_c, 0, 60, 23
1, 10303, Note_off_c, 0, 58, 48
1, 10354, Note_off_c, 0, 67, 33
1, 10381, Note_on_c, 0, 57, 48
1, 10395, Note_on_c, 0, 55, 39
1, 10412, Control_c, 0, 64, 103
1, 10427, Control_c, 0, 64, 102
1, 10442, Control_c, 0, 64, 101
1, 10457, Note_off_c, 0, 55, 59
1, 10457, Control_c, 0, 64, 99
1, 10472, Control_c, 0, 64, 95
1, 10486, Control_c, 0, 64, 88
1, 10501, Control_c, 0, 64, 77
1, 10512, Note_on_c, 0, 69, 55
1, 10516, Control_c, 0, 64, 65
1, 10531, Control_c, 0, 64, 0
1, 10573, Note_off_c, 0, 60, 35
1, 10575, Control_c, 0, 64, 29
1, 10590, Control_c, 0, 64, 65
1, 10604, Control_c, 0, 64, 71
1, 10618, Note_on_c, 0, 53, 37
1, 10619, Control_c, 0, 64, 77
1, 10634, Control_c, 0, 64, 83
1, 10649, Control_c, 0, 64, 88
1, 10664, Control_c, 0, 64, 91
1, 10679, Control_c, 0, 64, 93
1, 10684, Note_off_c, 0, 69, 49
1, 10694, Control_c, 0, 64, 95
1, 10708, Control_c, 0, 64, 96
1, 10723, Control_c, 0, 64, 97
1, 10741, Note_on_c, 0, 58, 42
1, 10741, Note_off_c, 0, 57, 40
1, 10762, Note_off_c, 0, 53, 36
1, 10783, Note_off_c, 0, 58, 55
1, 10798, Note_on_c, 0, 65, 52
1, 10896, Note_on_c, 0, 58, 15
1, 10917, Note_off_c, 0, 65, 35
1, 10968, Note_on_c, 0, 53, 24
1, 10976, Note_off_c, 0, 58, 38
1, 11001, Note_on_c, 0, 55, 46
1, 11024, Note_off_c, 0, 53, 43
1, 11027, Control_c, 0, 64, 97
1, 11042, Control_c, 0, 64, 96
1, 11057, Control_c, 0, 64, 96
1, 11072, Control_c, 0, 64, 94
1, 11087, Control_c, 0, 64, 90
1, 11102, Control_c, 0, 64, 84
1, 11112, Note_on_c, 0, 67, 54
1, 11117, Control_c, 0, 64, 76
1, 11132, Control_c, 0, 64, 66
1, 11147, Control_c, 0, 64, 52
1, 11162, Control_c, 0, 64, 58
1, 11176, Control_c, 0, 64, 65
1, 11191, Control_c, 0, 64, 71
1, 11206, Control_c, 0, 64, 77
1, 11221, Control_c, 0, 64, 83
1, 11235, Control_c, 0, 64, 87
1, 11250, Control_c, 0, 64, 89
1, 11260, Note_off_c, 0, 67, 41
1, 11265, Control_c, 0, 64, 90
1, 11267, Note_on_c, 0, 58, 34
1, 11280, Control_c, 0, 64, 91
1, 11289, Note_off_c, 0, 55, 40
1, 11295, Control_c, 0, 64, 91
1, 11354, Control_c, 0, 64, 92
1, 11378, Note_off_c, 0, 58, 39
1, 11382, Note_on_c, 0, 63, 48
1, 11466, Note_on_c, 0, 58, 27
1, 11510, Note_off_c, 0, 63, 35
1, 11562, Note_on_c, 0, 51, 40
1, 11592, Note_off_c, 0, 58, 33
1, 11594, Note_off_c, 0, 51, 52
1, 11606, Control_c, 0, 64, 91
1, 11626, Note_on_c, 0, 54, 35
1, 11650, Control_c, 0, 64, 91
1, 11665, Control_c, 0, 64, 90
1, 11688, Control_c, 0, 64, 90
1, 11703, Control_c, 0, 64, 89
1, 11718, Control_c, 0, 64, 88
1, 11732, Control_c, 0, 64, 87
1, 11747, Control_c, 0, 64, 85
1, 11762, Control_c, 0, 64, 81
1, 11776, Note_on_c, 0, 66, 46
1, 11777, Control_c, 0, 64, 77
1, 11791, Control_c, 0, 64, 71
1, 11806, Control_c, 0, 64, 64
1, 11821, Control_c, 0, 64, 41
1, 11836, Control_c, 0, 64, 0
1, 11895, Control_c, 0, 64, 35
1, 11907, Note_on_c, 0, 50, 25
1, 11910, Control_c, 0, 64, 64
1, 11925, Control_c, 0, 64, 70
1, 11940, Control_c, 0, 64, 77
1, 11954, Control_c, 0, 64, 82
1, 11969, Control_c, 0, 64, 86
1, 11980, Note_off_c, 0, 66, 65
1, 11984, Control_c, 0, 64, 89
1, 11999, Control_c, 0, 64, 91
1, 12014, Control_c, 0, 64, 94
1, 12024, Note_on_c, 0, 57, 26
1, 12029, Control_c, 0, 64, 96
1, 12044, Control_c, 0, 64, 98
1, 12058, Control_c, 0, 64, 99
1, 12073, Control_c, 0, 64, 100
1, 12088, Control_c, 0, 64, 100
1, 12103, Note_off_c, 0, 54, 39
1, 12133, Note_off_c, 0, 57, 36
1, 12134, Note_on_c, 0, 62, 38
1, 12136, Note_off_c, 0, 50, 38
1, 12194, Note_off_c, 0, 62, 46
1, 12220, Note_on_c, 0, 57, 26
1, 12365, Note_off_c, 0, 57, 34
1, 12368, Note_on_c, 0, 50, 22
1, 12452, Control_c, 0, 64, 100
1, 12507, Note_off_c, 0, 50, 37
1, 12511, Control_c, 0, 64, 99
1, 12541, Control_c, 0, 64, 99
1, 12551, Note_on_c, 0, 30, 39
1, 12555, Control_c, 0, 64, 98
1, 12570, Control_c, 0, 64, 98
1, 12585, Control_c, 0, 64, 97
1, 12599, Control_c, 0, 64, 97
1, 12614, Control_c, 0, 64, 96
1, 12629, Control_c, 0, 64, 93
1, 12629, Control_c, 0, 67, 126
1, 12644, Control_c, 0, 64, 89
1, 12644, Control_c, 0, 67, 119
1, 12659, Control_c, 0, 64, 85
1, 12659, Control_c, 0, 67, 113
1, 12674, Control_c, 0, 67, 109
1, 12688, Control_c, 0, 67, 107
1, 12703, Control_c, 0, 64, 86
1, 12703, Control_c, 0, 67, 106
1, 12718, Control_c, 0, 64, 88
1, 12718, Control_c, 0, 67, 106
1, 12733, Control_c, 0, 64, 92
1, 12741, Note_on_c, 0, 37, 33
1, 12748, Control_c, 0, 64, 95
1, 12762, Control_c, 0, 64, 98
1, 12777, Control_c, 0, 64, 99
1, 12792, Control_c, 0, 64, 100
1, 12822, Note_on_c, 0, 42, 40
1, 12837, Control_c, 0, 67, 105
1, 12840, Note_off_c, 0, 30, 39
1, 12885, Note_on_c, 0, 50, 33
1, 12891, Note_off_c, 0, 37, 51
1, 12891, Note_off_c, 0, 42, 60
1, 12944, Note_on_c, 0, 55, 36
1, 12980, Note_off_c, 0, 50, 52
1, 12996, Note_on_c, 0, 62, 50
1, 12997, Note_off_c, 0, 55, 43
1, 13059, Note_on_c, 0, 55, 39
1, 13136, Note_on_c, 0, 50, 41
1, 13140, Note_off_c, 0, 62, 34
1, 13165, Note_on_c, 0, 54, 53
1, 13214, Note_off_c, 0, 50, 54
1, 13221, Note_off_c, 0, 55, 29
1, 13237, Note_on_c, 0, 66, 61
1, 13260, Control_c, 0, 67, 106
1, 13272, Note_off_c, 0, 66, 67
1, 13332, Note_off_c, 0, 54, 58
1, 13334, Control_c, 0, 67, 106
1, 13337, Note_on_c, 0, 50, 43
1, 13364, Control_c, 0, 67, 107
1, 13393, Control_c, 0, 67, 107
1, 13408, Control_c, 0, 67, 108
1, 13417, Note_on_c, 0, 57, 39
1, 13422, Control_c, 0, 67, 108
1, 13437, Control_c, 0, 67, 109
1, 13445, Note_off_c, 0, 50, 53
1, 13452, Control_c, 0, 67, 109
1, 13464, Note_off_c, 0, 57, 58
1, 13467, Control_c, 0, 67, 110
1, 13470, Note_on_c, 0, 62, 58
1, 13496, Control_c, 0, 67, 111
1, 13541, Control_c, 0, 67, 112
1, 13546, Note_off_c, 0, 62, 55
1, 13549, Note_on_c, 0, 57, 49
1, 13585, Control_c, 0, 67, 112
1, 13600, Note_on_c, 0, 50, 47
1, 13615, Note_off_c, 0, 57, 55
1, 13615, Control_c, 0, 67, 113
1, 13627, Note_on_c, 0, 30, 46
1, 13668, Note_off_c, 0, 50, 54
1, 13687, Note_on_c, 0, 37, 47
1, 13689, Control_c, 0, 67, 112
1, 13719, Control_c, 0, 67, 112
1, 13725, Note_on_c, 0, 42, 57
1, 13730, Note_off_c, 0, 30, 51
1, 13748, Control_c, 0, 67, 111
1, 13758, Note_off_c, 0, 42, 62
1, 13759, Note_off_c, 0, 37, 64
1, 13778, Control_c, 0, 67, 110
1, 13790, Note_on_c, 0, 50, 45
1, 13793, Control_c, 0, 67, 110
1, 13808, Control_c, 0, 67, 109
1, 13822, Control_c, 0, 67, 109
1, 13837, Control_c, 0, 67, 108
1, 13861, Note_on_c, 0, 55, 52
1, 13867, Control_c, 0, 64, 100
1, 13867, Control_c, 0, 67, 108
1, 13892, Note_off_c, 0, 50, 57
1, 13928, Note_on_c, 0, 62, 59
1, 13949, Control_c, 0, 64, 101
1, 13976, Note_off_c, 0, 55, 0
1, 13995, Note_on_c, 0, 55, 23
1, 14008, Control_c, 0, 64, 101
1, 14023, Control_c, 0, 67, 108
1, 14026, Note_off_c, 0, 62, 48
1, 14053, Note_on_c, 0, 50, 46
1, 14072, Note_off_c, 0, 55, 61
1, 14098, Control_c, 0, 67, 109
1, 14113, Note_on_c, 0, 54, 35
1, 14122, Note_off_c, 0, 50, 54
1, 14142, Control_c, 0, 67, 109
1, 14155, Note_on_c, 0, 66, 54
1, 14186, Control_c, 0, 67, 110
1, 14201, Control_c, 0, 67, 110
1, 14202, Note_off_c, 0, 66, 65
1, 14231, Control_c, 0, 67, 111
1, 14236, Note_on_c, 0, 50, 38
1, 14245, Control_c, 0, 67, 111
1, 14300, Note_off_c, 0, 54, 33
1, 14305, Control_c, 0, 67, 112
1, 14325, Note_on_c, 0, 57, 39
1, 14331, Note_off_c, 0, 50, 52
1, 14334, Control_c, 0, 67, 112
1, 14349, Control_c, 0, 67, 113
1, 14361, Note_off_c, 0, 57, 56
1, 14364, Control_c, 0, 67, 113
1, 14378, Note_on_c, 0, 62, 52
1, 14378, Control_c, 0, 67, 114
1, 14408, Control_c, 0, 67, 114
1, 14438, Control_c, 0, 67, 115
1, 14447, Note_off_c, 0, 62, 52
1, 14476, Note_on_c, 0, 57, 35
1, 14497, Control_c, 0, 64, 101
1, 14497, Control_c, 0, 67, 115
1, 14512, Note_off_c, 0, 57, 49
1, 14512, Control_c, 0, 64, 100
1, 14527, Control_c, 0, 64, 99
1, 14531, Note_on_c, 0, 50, 40
1, 14542, Control_c, 0, 64, 97
1, 14557, Control_c, 0, 64, 92
1, 14566, Note_on_c, 0, 30, 43
1, 14571, Control_c, 0, 64, 83
1, 14586, Control_c, 0, 64, 71
1, 14592, Note_off_c, 0, 50, 55
1, 14601, Control_c, 0, 64, 47
1, 14616, Control_c, 0, 64, 0
1, 14631, Control_c, 0, 64, 49
1, 14632, Note_on_c, 0, 37, 37
1, 14645, Control_c, 0, 64, 65
1, 14660, Control_c, 0, 64, 72
1, 14660, Control_c, 0, 67, 116
1, 14679, Note_on_c, 0, 42, 44
1, 14682, Control_c, 0, 64, 79
1, 14696, Note_off_c, 0, 30, 52
1, 14697, Control_c, 0, 64, 85
1, 14697, Control_c, 0, 67, 116
1, 14712, Control_c, 0, 64, 90
1, 14727, Control_c, 0, 64, 93
1, 14727, Control_c, 0, 67, 117
1, 14730, Note_off_c, 0, 37, 57
1, 14740, Note_off_c, 0, 42, 59
1, 14742, Control_c, 0, 64, 95
1, 14742, Control_c, 0, 67, 117
1, 14757, Control_c, 0, 64, 97
1, 14757, Control_c, 0, 67, 118
1, 14764, Note_on_c, 0, 50, 17
1, 14772, Control_c, 0, 64, 99
1, 14772, Control_c, 0, 67, 118
1, 14787, Control_c, 0, 64, 100
1, 14787, Control_c, 0, 67, 120
1, 14801, Control_c, 0, 64, 101
1, 14801, Control_c, 0, 67, 123
1, 14812, Note_on_c, 0, 60, 54
1, 14816, Control_c, 0, 67, 127
1, 14834, Note_off_c, 0, 50, 39
1, 14867, Note_on_c, 0, 62, 52
1, 14867, Note_off_c, 0, 60, 55
1, 14956, Note_on_c, 0, 60, 34
1, 14956, Note_off_c, 0, 62, 55
1, 15015, Note_off_c, 0, 60, 50
1, 15016, Note_on_c, 0, 50, 37
1, 15078, Note_on_c, 0, 54, 35
1, 15110, Note_off_c, 0, 50, 35
1, 15138, Note_on_c, 0, 66, 33
1, 15169, Note_off_c, 0, 66, 47
1, 15187, Note_off_c, 0, 54, 54
1, 15219, Note_on_c, 0, 58, 46
1, 15276, Note_off_c, 0, 58, 57
1, 15282, Note_on_c, 0, 62, 41
1, 15290, Control_c, 0, 64, 100
1, 15335, Control_c, 0, 64, 100
1, 15346, Note_on_c, 0, 58, 41
1, 15360, Note_off_c, 0, 62, 54
1, 15394, Control_c, 0, 64, 99
1, 15409, Control_c, 0, 64, 99
1, 15431, Control_c, 0, 64, 98
1, 15446, Control_c, 0, 64, 96
1, 15460, Note_on_c, 0, 50, 36
1, 15461, Control_c, 0, 64, 93
1, 15474, Note_on_c, 0, 30, 40
1, 15475, Control_c, 0, 64, 85
1, 15490, Control_c, 0, 64, 75
1, 15505, Control_c, 0, 64, 63
1, 15520, Control_c, 0, 64, 0
1, 15535, Control_c, 0, 64, 37
1, 15538, Note_off_c, 0, 50, 36
1, 15540, Note_on_c, 0, 37, 37
1, 15550, Control_c, 0, 64, 64
1, 15565, Control_c, 0, 64, 72
1, 15579, Control_c, 0, 64, 80
1, 15587, Note_off_c, 0, 30, 56
1, 15588, Note_on_c, 0, 42, 44
1, 15593, Note_off_c, 0, 58, 40
1, 15594, Control_c, 0, 64, 86
1, 15609, Control_c, 0, 64, 90
1, 15619, Note_off_c, 0, 37, 62
1, 15624, Control_c, 0, 64, 92
1, 15630, Note_off_c, 0, 42, 63
1, 15639, Control_c, 0, 64, 93
1, 15644, Note_on_c, 0, 57, 48
1, 15654, Control_c, 0, 64, 94
1, 15669, Control_c, 0, 64, 94
1, 15720, Note_off_c, 0, 57, 58
1, 15730, Note_on_c, 0, 62, 44
1, 15791, Note_on_c, 0, 57, 34
1, 15791, Note_off_c, 0, 62, 51
1, 15883, Note_off_c, 0, 57, 53
1, 15903, Note_on_c, 0, 50, 13
1, 15935, Note_on_c, 0, 54, 36
1, 15982, Note_on_c, 0, 66, 39
1, 15994, Note_off_c, 0, 50, 33
1, 16010, Note_off_c, 0, 66, 55
1, 16054, Note_off_c, 0, 54, 52
1, 16107, Note_on_c, 0, 55, 40
1, 16158, Note_off_c, 0, 55, 45
1, 16161, Note_on_c, 0, 62, 36
1, 16255, Note_on_c, 0, 55, 39
1, 16299, Note_off_c, 0, 62, 35
1, 16337, Note_off_c, 0, 55, 54
1, 16344, Note_on_c, 0, 50, 36
1, 16350, Note_on_c, 0, 30, 32
1, 16397, Note_on_c, 0, 37, 37
1, 16414, Note_off_c, 0, 50, 38
1, 16457, Note_on_c, 0, 42, 44
1, 16469, Note_off_c, 0, 37, 62
1, 16471, Note_off_c, 0, 30, 39
1, 16489, Note_off_c, 0, 42, 58
1, 16541, Note_on_c, 0, 57, 41
1, 16580, Control_c, 0, 64, 94
1, 16596, Note_off_c, 0, 57, 49
1, 16599, Note_on_c, 0, 62, 43
1, 16655, Note_on_c, 0, 57, 37
1, 16657, Note_off_c, 0, 62, 47
1, 16739, Note_off_c, 0, 57, 57
1, 16774, Note_on_c, 0, 50, 13
1, 16816, Note_on_c, 0, 54, 36
1, 16894, Note_on_c, 0, 66, 44
1, 16927, Note_off_c, 0, 66, 57
1, 16930, Note_off_c, 0, 50, 23
1, 16958, Note_on_c, 0, 58, 51
1, 16968, Note_off_c, 0, 54, 53
1, 17004, Note_off_c, 0, 58, 60
1, 17027, Note_on_c, 0, 62, 46
1, 17093, Note_off_c, 0, 62, 50
1, 17103, Note_on_c, 0, 58, 48
1, 17152, Note_off_c, 0, 58, 55
1, 17205, Note_on_c, 0, 50, 20
1, 17254, Note_off_c, 0, 50, 48
1, 17258, Note_on_c, 0, 30, 30
1, 17323, Note_on_c, 0, 37, 18
1, 17347, Note_on_c, 0, 42, 50
1, 17389, Control_c, 0, 64, 93
1, 17392, Note_off_c, 0, 30, 38
1, 17407, Note_on_c, 0, 50, 23
1, 17416, Note_off_c, 0, 42, 61
1, 17434, Note_off_c, 0, 37, 39
1, 17442, Note_on_c, 0, 60, 48
1, 17472, Note_off_c, 0, 50, 42
1, 17493, Note_off_c, 0, 60, 55
1, 17507, Control_c, 0, 64, 93
1, 17514, Note_on_c, 0, 62, 40
1, 17537, Control_c, 0, 64, 92
1, 17566, Control_c, 0, 64, 92
1, 17581, Control_c, 0, 64, 91
1, 17585, Note_on_c, 0, 60, 46
1, 17625, Control_c, 0, 64, 91
1, 17640, Control_c, 0, 67, 122
1, 17655, Control_c, 0, 67, 117
1, 17677, Control_c, 0, 64, 90
1, 17677, Control_c, 0, 67, 112
1, 17682, Note_off_c, 0, 60, 57
1, 17692, Control_c, 0, 67, 107
1, 17699, Note_on_c, 0, 50, 44
1, 17707, Control_c, 0, 64, 90
1, 17707, Control_c, 0, 67, 101
1, 17722, Control_c, 0, 67, 94
1, 17737, Control_c, 0, 67, 86
1, 17751, Control_c, 0, 64, 89
1, 17751, Control_c, 0, 67, 80
1, 17766, Control_c, 0, 67, 77
1, 17781, Control_c, 0, 64, 89
1, 17781, Control_c, 0, 67, 74
1, 17785, Note_on_c, 0, 54, 44
1, 17789, Note_off_c, 0, 62, 34
1, 17795, Control_c, 0, 67, 72
1, 17810, Control_c, 0, 64, 88
1, 17810, Control_c, 0, 67, 69
1, 17825, Control_c, 0, 64, 87
1, 17825, Control_c, 0, 67, 66
1, 17840, Control_c, 0, 64, 86
1, 17840, Control_c, 0, 67, 62
1, 17855, Control_c, 0, 64, 85
1, 17855, Control_c, 0, 67, 59
1, 17869, Control_c, 0, 64, 83
1, 17869, Control_c, 0, 67, 57
1, 17884, Control_c, 0, 64, 80
1, 17884, Control_c, 0, 67, 54
1, 17899, Control_c, 0, 64, 76
1, 17899, Control_c, 0, 67, 48
1, 17913, Control_c, 0, 64, 70
1, 17913, Control_c, 0, 67, 39
1, 17914, Note_on_c, 0, 66, 36
1, 17928, Control_c, 0, 64, 63
1, 17928, Control_c, 0, 67, 28
1, 17945, Control_c, 0, 64, 38
1, 17945, Control_c, 0, 67, 16
1, 17960, Control_c, 0, 64, 0
1, 17960, Control_c, 0, 67, 0
1, 17973, Note_off_c, 0, 50, 15
1, 18005, Note_on_c, 0, 58, 34
1, 18063, Control_c, 0, 64, 61
1, 18078, Control_c, 0, 64, 66
1, 18083, Note_off_c, 0, 58, 59
1, 18089, Note_on_c, 0, 62, 30
1, 18092, Control_c, 0, 64, 70
1, 18107, Control_c, 0, 64, 73
1, 18122, Control_c, 0, 64, 78
1, 18137, Control_c, 0, 64, 82
1, 18152, Control_c, 0, 64, 85
1, 18167, Note_on_c, 0, 58, 37
1, 18167, Control_c, 0, 64, 87
1, 18182, Control_c, 0, 64, 89
1, 18197, Control_c, 0, 64, 91
1, 18211, Control_c, 0, 64, 93
1, 18226, Control_c, 0, 64, 95
1, 18241, Control_c, 0, 64, 95
1, 18256, Note_off_c, 0, 58, 55
1, 18259, Note_on_c, 0, 50, 28
1, 18267, Note_off_c, 0, 54, 0
1, 18286, Control_c, 0, 64, 96
1, 18286, Note_on_c, 0, 54, 8
1, 18308, Note_off_c, 0, 66, 42
1, 18343, Note_off_c, 0, 62, 20
1, 18363, Note_off_c, 0, 50, 33
1, 18421, Note_on_c, 0, 66, 56
1, 18509, Note_on_c, 0, 50, 36
1, 18539, Note_on_c, 0, 57, 40
1, 18581, Note_off_c, 0, 50, 53
1, 18590, Note_off_c, 0, 57, 54
1, 18600, Note_on_c, 0, 62, 52
1, 18611, Note_off_c, 0, 54, 39
1, 18618, Control_c, 0, 67, 9
1, 18633, Control_c, 0, 67, 14
1, 18648, Control_c, 0, 67, 22
1, 18663, Control_c, 0, 67, 30
1, 18670, Note_on_c, 0, 57, 41
1, 18678, Control_c, 0, 67, 39
1, 18691, Note_off_c, 0, 62, 49
1, 18692, Control_c, 0, 67, 49
1, 18707, Control_c, 0, 67, 58
1, 18722, Control_c, 0, 67, 67
1, 18738, Control_c, 0, 67, 76
1, 18753, Control_c, 0, 67, 87
1, 18754, Note_on_c, 0, 50, 39
1, 18761, Note_off_c, 0, 66, 49
1, 18768, Control_c, 0, 67, 94
1, 18783, Control_c, 0, 64, 95
1, 18783, Control_c, 0, 67, 99
1, 18797, Control_c, 0, 67, 102
1, 18808, Note_off_c, 0, 57, 31
1, 18812, Note_on_c, 0, 54, 48
1, 18812, Control_c, 0, 67, 102
1, 18820, Note_off_c, 0, 50, 41
1, 18841, Control_c, 0, 67, 101
1, 18856, Control_c, 0, 67, 101
1, 18882, Note_on_c, 0, 66, 71
1, 18915, Control_c, 0, 67, 101
1, 18930, Control_c, 0, 67, 102
1, 18945, Control_c, 0, 67, 104
1, 18956, Note_on_c, 0, 50, 47
1, 18960, Control_c, 0, 67, 108
1, 18975, Control_c, 0, 64, 95
1, 18975, Control_c, 0, 67, 115
1, 18989, Control_c, 0, 67, 123
1, 19004, Control_c, 0, 67, 127
1, 19023, Note_on_c, 0, 55, 49
1, 19058, Note_off_c, 0, 50, 47
1, 19064, Control_c, 0, 64, 94
1, 19082, Note_off_c, 0, 55, 59
1, 19087, Note_off_c, 0, 66, 63
1, 19090, Note_on_c, 0, 62, 59
1, 19094, Control_c, 0, 64, 94
1, 19123, Control_c, 0, 64, 93
1, 19125, Note_off_c, 0, 54, 36
1, 19138, Control_c, 0, 64, 93
1, 19153, Control_c, 0, 64, 92
1, 19172, Note_on_c, 0, 55, 27
1, 19174, Control_c, 0, 64, 91
1, 19185, Note_off_c, 0, 62, 54
1, 19189, Control_c, 0, 64, 90
1, 19204, Control_c, 0, 64, 88
1, 19219, Control_c, 0, 64, 85
1, 19228, Note_on_c, 0, 50, 46
1, 19232, Note_on_c, 0, 53, 58
1, 19234, Control_c, 0, 64, 82
1, 19249, Control_c, 0, 64, 77
1, 19264, Control_c, 0, 64, 70
1, 19279, Control_c, 0, 64, 60
1, 19287, Note_off_c, 0, 50, 56
1, 19293, Control_c, 0, 64, 0
1, 19353, Control_c, 0, 64, 63
1, 19357, Note_on_c, 0, 65, 72
1, 19367, Control_c, 0, 64, 69
1, 19382, Control_c, 0, 64, 75
1, 19397, Control_c, 0, 64, 82
1, 19412, Control_c, 0, 64, 87
1, 19418, Note_on_c, 0, 50, 48
1, 19427, Control_c, 0, 64, 90
1, 19434, Note_off_c, 0, 65, 58
1, 19441, Control_c, 0, 64, 92
1, 19456, Control_c, 0, 64, 93
1, 19471, Control_c, 0, 64, 94
1, 19473, Note_off_c, 0, 55, 37
1, 19518, Note_off_c, 0, 53, 40
1, 19541, Note_on_c, 0, 54, 43
1, 19574, Note_off_c, 0, 54, 53
1, 19587, Note_off_c, 0, 50, 35
1, 19595, Note_on_c, 0, 62, 49
1, 19650, Control_c, 0, 64, 93
1, 19656, Note_off_c, 0, 62, 46
1, 19666, Note_on_c, 0, 54, 50
1, 19679, Control_c, 0, 64, 93
1, 19694, Control_c, 0, 64, 92
1, 19709, Control_c, 0, 64, 92
1, 19717, Note_off_c, 0, 54, 54
1, 19724, Control_c, 0, 64, 91
1, 19729, Note_on_c, 0, 50, 35
1, 19738, Control_c, 0, 64, 90
1, 19752, Note_on_c, 0, 51, 50
1, 19753, Control_c, 0, 64, 88
1, 19768, Control_c, 0, 64, 85
1, 19775, Note_off_c, 0, 50, 46
1, 19782, Control_c, 0, 64, 80
1, 19797, Control_c, 0, 64, 72
1, 19812, Control_c, 0, 64, 63
1, 19827, Control_c, 0, 64, 0
1, 19836, Note_on_c, 0, 63, 60
1, 19887, Control_c, 0, 64, 57
1, 19899, Note_on_c, 0, 50, 47
1, 19902, Control_c, 0, 64, 66
1, 19924, Control_c, 0, 64, 71
1, 19938, Control_c, 0, 64, 75
1, 19953, Control_c, 0, 64, 80
1, 19968, Control_c, 0, 64, 85
1, 19979, Note_on_c, 0, 53, 44
1, 19983, Control_c, 0, 64, 87
1, 19997, Control_c, 0, 64, 88
1, 20012, Control_c, 0, 64, 89
1, 20026, Note_off_c, 0, 50, 36
1, 20027, Control_c, 0, 64, 89
1, 20035, Note_off_c, 0, 53, 53
1, 20053, Note_on_c, 0, 62, 51
1, 20053, Note_off_c, 0, 63, 60
1, 20111, Note_off_c, 0, 51, 37
1, 20122, Note_on_c, 0, 53, 25
1, 20161, Control_c, 0, 64, 89
1, 20167, Note_on_c, 0, 50, 50
1, 20173, Note_off_c, 0, 62, 36
1, 20185, Note_off_c, 0, 53, 42
1, 20205, Control_c, 0, 64, 88
1, 20220, Control_c, 0, 64, 88
1, 20235, Control_c, 0, 64, 87
1, 20250, Control_c, 0, 64, 86
1, 20264, Control_c, 0, 64, 85
1, 20279, Control_c, 0, 64, 82
1, 20294, Control_c, 0, 64, 78
1, 20309, Control_c, 0, 64, 71
1, 20318, Note_on_c, 0, 62, 54
1, 20323, Control_c, 0, 64, 62
1, 20340, Control_c, 0, 64, 14
1, 20355, Control_c, 0, 64, 30
1, 20369, Control_c, 0, 64, 60
1, 20384, Control_c, 0, 64, 67
1, 20399, Control_c, 0, 64, 71
1, 20409, Note_on_c, 0, 48, 50
1, 20413, Control_c, 0, 64, 76
1, 20428, Control_c, 0, 64, 80
1, 20443, Control_c, 0, 64, 84
1, 20458, Control_c, 0, 64, 85
1, 20466, Note_off_c, 0, 62, 53
1, 20473, Control_c, 0, 64, 86
1, 20487, Control_c, 0, 64, 87
1, 20510, Note_on_c, 0, 54, 36
1, 20519, Note_off_c, 0, 50, 37
1, 20532, Note_off_c, 0, 48, 36
1, 20572, Note_off_c, 0, 54, 38
1, 20581, Note_on_c, 0, 60, 47
1, 20632, Note_on_c, 0, 54, 23
1, 20652, Note_off_c, 0, 60, 43
1, 20724, Note_on_c, 0, 48, 48
1, 20746, Control_c, 0, 64, 86
1, 20750, Note_off_c, 0, 54, 36
1, 20853, Note_on_c, 0, 60, 52
1, 20876, Note_off_c, 0, 48, 36
1, 20898, Note_off_c, 0, 60, 47
1, 20984, Note_on_c, 0, 54, 34
1, 21192, Control_c, 0, 64, 86
1, 21251, Control_c, 0, 64, 85
1, 21277, Note_on_c, 0, 46, 19
1, 21279, Note_off_c, 0, 54, 38
1, 21296, Control_c, 0, 64, 85
1, 21310, Control_c, 0, 64, 84
1, 21325, Control_c, 0, 64, 84
1, 21340, Control_c, 0, 64, 83
1, 21354, Control_c, 0, 64, 83
1, 21369, Control_c, 0, 64, 82
1, 21384, Control_c, 0, 64, 81
1, 21399, Control_c, 0, 64, 80
1, 21422, Control_c, 0, 64, 78
1, 21436, Control_c, 0, 64, 76
1, 21440, Note_on_c, 0, 58, 42
1, 21451, Control_c, 0, 64, 73
1, 21466, Control_c, 0, 64, 68
1, 21481, Control_c, 0, 64, 62
1, 21496, Control_c, 0, 64, 0
1, 21564, Note_on_c, 0, 45, 32
1, 21569, Control_c, 0, 64, 61
1, 21584, Control_c, 0, 64, 68
1, 21599, Control_c, 0, 64, 74
1, 21614, Control_c, 0, 64, 79
1, 21623, Note_off_c, 0, 58, 51
1, 21629, Control_c, 0, 64, 83
1, 21643, Control_c, 0, 64, 86
1, 21658, Control_c, 0, 64, 88
1, 21672, Note_on_c, 0, 54, 24
1, 21673, Control_c, 0, 64, 89
1, 21688, Control_c, 0, 64, 90
1, 21703, Control_c, 0, 64, 91
1, 21710, Note_off_c, 0, 46, 49
1, 21758, Note_off_c, 0, 54, 36
1, 21767, Note_on_c, 0, 57, 38
1, 21806, Note_off_c, 0, 45, 35
1, 21861, Note_on_c, 0, 54, 27
1, 21965, Note_off_c, 0, 57, 41
1, 21970, Control_c, 0, 64, 90
1, 21989, Note_on_c, 0, 45, 23
1, 22000, Control_c, 0, 64, 90
1, 22045, Control_c, 0, 64, 89
1, 22068, Note_off_c, 0, 54, 39
1, 22074, Control_c, 0, 64, 89
1, 22104, Control_c, 0, 64, 88
1, 22142, Note_off_c, 0, 45, 42
1, 22148, Control_c, 0, 64, 88
1, 22179, Note_on_c, 0, 27, 32
1, 22185, Control_c, 0, 64, 87
1, 22200, Control_c, 0, 64, 87
1, 22215, Control_c, 0, 64, 86
1, 22230, Control_c, 0, 64, 85
1, 22245, Control_c, 0, 64, 85
1, 22259, Control_c, 0, 64, 83
1, 22274, Control_c, 0, 64, 82
1, 22289, Control_c, 0, 64, 80
1, 22304, Control_c, 0, 64, 77
1, 22319, Control_c, 0, 64, 73
1, 22334, Control_c, 0, 64, 67
1, 22349, Control_c, 0, 64, 62
1, 22364, Control_c, 0, 64, 54
1, 22373, Note_on_c, 0, 34, 17
1, 22379, Control_c, 0, 64, 44
1, 22393, Control_c, 0, 64, 26
1, 22408, Control_c, 0, 64, 0
1, 22438, Control_c, 0, 64, 45
1, 22453, Control_c, 0, 64, 63
1, 22467, Control_c, 0, 64, 67
1, 22476, Note_on_c, 0, 39, 30
1, 22482, Control_c, 0, 64, 71
1, 22483, Note_off_c, 0, 27, 41
1, 22497, Control_c, 0, 64, 75
1, 22511, Control_c, 0, 64, 79
1, 22526, Control_c, 0, 64, 82
1, 22537, Note_on_c, 0, 43, 34
1, 22541, Control_c, 0, 64, 84
1, 22542, Note_off_c, 0, 39, 54
1, 22555, Note_off_c, 0, 34, 40
1, 22556, Control_c, 0, 64, 86
1, 22571, Control_c, 0, 64, 87
1, 22585, Control_c, 0, 64, 88
1, 22600, Control_c, 0, 64, 89
1, 22606, Note_on_c, 0, 48, 27
1, 22615, Control_c, 0, 64, 89
1, 22630, Control_c, 0, 64, 90
1, 22645, Control_c, 0, 64, 90
1, 22659, Note_on_c, 0, 55, 50
1, 22659, Control_c, 0, 64, 91
1, 22663, Note_off_c, 0, 43, 40
1, 22677, Note_off_c, 0, 48, 0
1, 22689, Control_c, 0, 64, 91
1, 22713, Poly_aftertouch_c, 0, 48, 127
1, 22780, Poly_aftertouch_c, 0, 43, 127
1, 22802, Note_on_c, 0, 46, 43
1, 22814, Poly_aftertouch_c, 0, 43, 0
1, 22841, Poly_aftertouch_c, 0, 48, 0
1, 22869, Note_off_c, 0, 55, 20
1, 22871, Note_on_c, 0, 51, 46
1, 22913, Note_on_c, 0, 58, 50
1, 22953, Note_off_c, 0, 58, 53
1, 22986, Note_off_c, 0, 51, 53
1, 23009, Control_c, 0, 64, 91
1, 23026, Note_off_c, 0, 46, 39
1, 23041, Note_on_c, 0, 57, 37
1, 23085, Note_off_c, 0, 57, 53
1, 23110, Note_on_c, 0, 62, 53
1, 23112, Control_c, 0, 64, 90
1, 23198, Note_off_c, 0, 62, 58
1, 23344, Note_on_c, 0, 27, 39
1, 23378, Control_c, 0, 64, 90
1, 23389, Note_on_c, 0, 34, 33
1, 23398, Note_off_c, 0, 27, 49
1, 23424, Note_on_c, 0, 39, 49
1, 23442, Note_off_c, 0, 34, 60
1, 23461, Note_off_c, 0, 39, 60
1, 23533, Poly_aftertouch_c, 0, 43, 127
1, 23538, Note_on_c, 0, 48, 52
1, 23582, Poly_aftertouch_c, 0, 43, 0
1, 23584, Note_on_c, 0, 55, 69
1, 23640, Note_off_c, 0, 48, 0
1, 23669, Note_on_c, 0, 48, 37
1, 23725, Poly_aftertouch_c, 0, 43, 127
1, 23758, Note_off_c, 0, 48, 53
1, 23762, Note_on_c, 0, 46, 33
1, 23767, Poly_aftertouch_c, 0, 43, 0
1, 23789, Note_on_c, 0, 51, 57
1, 23798, Note_off_c, 0, 55, 37
1, 23818, Note_on_c, 0, 58, 42
1, 23830, Control_c, 0, 64, 89
1, 23838, Note_off_c, 0, 51, 62
1, 23847, Note_off_c, 0, 58, 49
1, 23859, Note_off_c, 0, 46, 59
1, 23860, Control_c, 0, 64, 89
1, 23968, Note_on_c, 0, 57, 48
1, 24021, Note_off_c, 0, 57, 52
1, 24033, Note_on_c, 0, 62, 57
1, 24143, Note_on_c, 0, 50, 50
1, 24152, Poly_aftertouch_c, 0, 57, 127
1, 24165, Note_on_c, 0, 27, 45
1, 24174, Note_off_c, 0, 50, 59
1, 24192, Poly_aftertouch_c, 0, 57, 0
1, 24212, Note_on_c, 0, 34, 50
1, 24234, Note_off_c, 0, 27, 64
1, 24245, Note_off_c, 0, 62, 54
1, 24257, Note_on_c, 0, 39, 49
1, 24259, Note_off_c, 0, 34, 64
1, 24285, Note_off_c, 0, 39, 55
1, 24322, Note_on_c, 0, 57, 50
1, 24370, Note_on_c, 0, 62, 53
1, 24394, Control_c, 0, 67, 119
1, 24412, Note_off_c, 0, 57, 58
1, 24417, Control_c, 0, 67, 103
1, 24427, Note_off_c, 0, 62, 59
1, 24430, Note_on_c, 0, 69, 80
1, 24432, Control_c, 0, 67, 86
1, 24447, Control_c, 0, 67, 69
1, 24461, Control_c, 0, 67, 53
1, 24476, Control_c, 0, 67, 40
1, 24491, Control_c, 0, 67, 31
1, 24506, Control_c, 0, 67, 25
1, 24521, Control_c, 0, 67, 19
1, 24528, Note_on_c, 0, 51, 52
1, 24529, Note_on_c, 0, 62, 40
1, 24535, Control_c, 0, 67, 14
1, 24550, Control_c, 0, 67, 0
1, 24556, Note_on_c, 0, 57, 44
1, 24573, Note_on_c, 0, 58, 52
1, 24581, Note_off_c, 0, 62, 48
1, 24603, Note_off_c, 0, 69, 52
1, 24615, Note_off_c, 0, 57, 60
1, 24626, Note_on_c, 0, 63, 58
1, 24664, Note_off_c, 0, 58, 60
1, 24682, Note_off_c, 0, 63, 42
1, 24704, Note_off_c, 0, 51, 39
1, 24719, Note_on_c, 0, 55, 57
1, 24743, Control_c, 0, 64, 89
1, 24758, Note_on_c, 0, 60, 54
1, 24805, Note_off_c, 0, 55, 56
1, 24812, Note_off_c, 0, 60, 58
1, 24823, Note_on_c, 0, 67, 65
1, 24897, Note_on_c, 0, 46, 47
1, 24920, Control_c, 0, 64, 90
1, 24926, Note_on_c, 0, 60, 45
1, 24929, Note_on_c, 0, 55, 42
1, 24935, Control_c, 0, 64, 90
1, 24959, Note_on_c, 0, 51, 60
1, 24959, Note_off_c, 0, 60, 61
1, 24963, Note_off_c, 0, 55, 50
1, 24965, Control_c, 0, 64, 91
1, 24979, Control_c, 0, 64, 91
1, 24996, Note_off_c, 0, 46, 55
1, 25000, Note_off_c, 0, 67, 59
1, 25026, Note_on_c, 0, 58, 62
1, 25037, Note_off_c, 0, 51, 62
1, 25054, Note_off_c, 0, 58, 68
1, 25082, Note_on_c, 0, 62, 59
1, 25127, Note_on_c, 0, 67, 64
1, 25172, Note_off_c, 0, 62, 60
1, 25182, Note_on_c, 0, 74, 78
1, 25196, Note_on_c, 0, 61, 29
1, 25199, Note_off_c, 0, 67, 63
1, 25229, Note_off_c, 0, 61, 56
1, 25251, Note_on_c, 0, 58, 64
1, 25262, Note_on_c, 0, 67, 48
1, 25300, Note_on_c, 0, 62, 45
1, 25319, Note_off_c, 0, 74, 58
1, 25336, Note_on_c, 0, 63, 62
1, 25339, Note_off_c, 0, 67, 59
1, 25342, Note_off_c, 0, 62, 45
1, 25370, Note_on_c, 0, 70, 72
1, 25376, Note_off_c, 0, 58, 63
1, 25404, Note_off_c, 0, 70, 58
1, 25429, Note_off_c, 0, 63, 64
1, 25446, Note_on_c, 0, 60, 54
1, 25479, Note_on_c, 0, 65, 63
1, 25522, Note_off_c, 0, 60, 59
1, 25535, Control_c, 0, 64, 91
1, 25549, Note_off_c, 0, 65, 65
1, 25550, Note_on_c, 0, 72, 72
1, 25565, Control_c, 0, 64, 90
1, 25595, Control_c, 0, 64, 90
1, 25610, Control_c, 0, 64, 89
1, 25625, Control_c, 0, 64, 89
1, 25630, Note_on_c, 0, 65, 66
1, 25631, Note_on_c, 0, 51, 72
1, 25637, Note_on_c, 0, 60, 64
1, 25659, Note_off_c, 0, 72, 52
1, 25661, Note_off_c, 0, 60, 63
1, 25688, Note_on_c, 0, 56, 70
1, 25693, Note_off_c, 0, 65, 66
1, 25745, Note_off_c, 0, 51, 60
1, 25748, Note_on_c, 0, 63, 84
1, 25764, Note_off_c, 0, 56, 65
1, 25795, Note_off_c, 0, 63, 65
1, 25798, Note_on_c, 0, 67, 56
1, 25847, Note_on_c, 0, 72, 62
1, 25886, Note_off_c, 0, 67, 58
1, 25907, Note_on_c, 0, 79, 92
1, 25920, Note_off_c, 0, 72, 66
1, 25976, Note_on_c, 0, 72, 67
1, 25994, Note_on_c, 0, 63, 68
1, 26006, Note_on_c, 0, 67, 51
1, 26048, Note_off_c, 0, 67, 43
1, 26058, Note_off_c, 0, 79, 56
1, 26066, Note_off_c, 0, 72, 62
1, 26070, Note_on_c, 0, 68, 70
1, 26108, Note_on_c, 0, 75, 79
1, 26113, Note_off_c, 0, 63, 63
1, 26138, Note_off_c, 0, 75, 66
1, 26164, Note_on_c, 0, 65, 69
1, 26167, Note_off_c, 0, 68, 64
1, 26215, Note_on_c, 0, 72, 64
1, 26229, Note_off_c, 0, 65, 65
1, 26266, Note_on_c, 0, 77, 86
1, 26279, Note_off_c, 0, 72, 65
1, 26286, Control_c, 0, 64, 88
1, 26300, Control_c, 0, 64, 87
1, 26315, Control_c, 0, 64, 84
1, 26330, Control_c, 0, 64, 75
1, 26345, Control_c, 0, 64, 63
1, 26346, Note_on_c, 0, 65, 77
1, 26349, Note_on_c, 0, 72, 62
1, 26359, Note_on_c, 0, 56, 68
1, 26359, Control_c, 0, 64, 0
1, 26388, Note_off_c, 0, 65, 65
1, 26404, Control_c, 0, 64, 63
1, 26418, Note_off_c, 0, 72, 66
1, 26418, Note_on_c, 0, 63, 71
1, 26419, Control_c, 0, 64, 69
1, 26433, Control_c, 0, 64, 75
1, 26447, Note_off_c, 0, 77, 60
1, 26448, Control_c, 0, 64, 82
1, 26454, Note_on_c, 0, 68, 85
1, 26461, Note_off_c, 0, 56, 63
1, 26463, Control_c, 0, 64, 87
1, 26478, Control_c, 0, 64, 91
1, 26479, Note_off_c, 0, 63, 66
1, 26493, Control_c, 0, 64, 92
1, 26501, Note_off_c, 0, 68, 65
1, 26512, Note_on_c, 0, 72, 61
1, 26569, Note_on_c, 0, 77, 53
1, 26580, Note_on_c, 0, 76, 53
1, 26600, Note_off_c, 0, 72, 64
1, 26608, Note_off_c, 0, 76, 54
1, 26619, Note_on_c, 0, 84, 90
1, 26629, Note_off_c, 0, 77, 62
1, 26691, Note_on_c, 0, 77, 57
1, 26698, Note_on_c, 0, 72, 67
1, 26704, Note_on_c, 0, 68, 73
1, 26745, Note_off_c, 0, 77, 62
1, 26774, Note_on_c, 0, 75, 73
1, 26802, Note_on_c, 0, 80, 89
1, 26810, Note_off_c, 0, 84, 52
1, 26842, Note_off_c, 0, 68, 57
1, 26845, Note_off_c, 0, 80, 67
1, 26864, Note_off_c, 0, 72, 37
1, 26871, Note_off_c, 0, 75, 65
1, 26873, Note_on_c, 0, 74, 71
1, 26901, Note_on_c, 0, 79, 73
1, 26916, Poly_aftertouch_c, 0, 82, 127
1, 26931, Control_c, 0, 64, 91
1, 26954, Note_off_c, 0, 74, 64
1, 26960, Control_c, 0, 64, 91
1, 26968, Note_on_c, 0, 86, 91
1, 26969, Poly_aftertouch_c, 0, 82, 0
1, 26982, Note_off_c, 0, 79, 60
1, 26990, Control_c, 0, 64, 90
1, 27005, Control_c, 0, 64, 90
1, 27020, Control_c, 0, 64, 89
1, 27033, Note_on_c, 0, 79, 64
1, 27035, Control_c, 0, 64, 88
1, 27047, Note_on_c, 0, 63, 75
1, 27049, Control_c, 0, 64, 85
1, 27057, Note_on_c, 0, 74, 73
1, 27064, Control_c, 0, 64, 78
1, 27079, Control_c, 0, 64, 68
1, 27092, Note_off_c, 0, 74, 58
1, 27094, Control_c, 0, 64, 0
1, 27107, Note_off_c, 0, 79, 63
1, 27108, Note_on_c, 0, 68, 75
1, 27137, Note_off_c, 0, 86, 61
1, 27138, Control_c, 0, 64, 36
1, 27153, Control_c, 0, 64, 69
1, 27164, Note_on_c, 0, 75, 91
1, 27168, Control_c, 0, 64, 81
1, 27173, Note_off_c, 0, 63, 63
1, 27182, Control_c, 0, 64, 96
1, 27197, Control_c, 0, 64, 109
1, 27198, Note_off_c, 0, 68, 66
1, 27212, Control_c, 0, 64, 113
1, 27217, Note_on_c, 0, 79, 74
1, 27218, Note_off_c, 0, 75, 65
1, 27242, Control_c, 0, 64, 114
1, 27262, Note_on_c, 0, 84, 73
1, 27294, Note_off_c, 0, 79, 62
1, 27318, Note_on_c, 0, 89, 93
1, 27326, Note_off_c, 0, 84, 65
1, 27344, Note_on_c, 0, 78, 49
1, 27375, Control_c, 0, 64, 113
1, 27387, Note_off_c, 0, 78, 59
1, 27392, Note_on_c, 0, 84, 72
1, 27416, Note_on_c, 0, 75, 74
1, 27428, Note_on_c, 0, 79, 55
1, 27466, Note_on_c, 0, 80, 65
1, 27468, Note_off_c, 0, 84, 60
1, 27486, Note_off_c, 0, 89, 57
1, 27502, Note_off_c, 0, 79, 54
1, 27503, Note_on_c, 0, 87, 87
1, 27526, Note_off_c, 0, 87, 66
1, 27531, Note_off_c, 0, 75, 60
1, 27575, Note_off_c, 0, 80, 65
1, 27577, Note_on_c, 0, 77, 77
1, 27604, Control_c, 0, 64, 113
1, 27619, Control_c, 0, 64, 112
1, 27625, Note_on_c, 0, 84, 72
1, 27634, Control_c, 0, 64, 112
1, 27649, Control_c, 0, 64, 111
1, 27664, Control_c, 0, 64, 110
1, 27668, Note_off_c, 0, 77, 60
1, 27678, Control_c, 0, 64, 109
1, 27690, Note_on_c, 0, 89, 86
1, 27693, Control_c, 0, 64, 107
1, 27695, Note_off_c, 0, 84, 66
1, 27708, Control_c, 0, 64, 105
1, 27722, Control_c, 0, 64, 100
1, 27737, Control_c, 0, 64, 95
1, 27752, Control_c, 0, 64, 90
1, 27760, Note_on_c, 0, 84, 75
1, 27767, Control_c, 0, 64, 85
1, 27777, Note_on_c, 0, 67, 64
1, 27782, Control_c, 0, 64, 80
1, 27791, Note_on_c, 0, 77, 75
1, 27796, Control_c, 0, 64, 75
1, 27807, Note_off_c, 0, 89, 64
1, 27811, Control_c, 0, 64, 66
1, 27826, Note_off_c, 0, 84, 64
1, 27826, Control_c, 0, 64, 0
1, 27863, Note_off_c, 0, 77, 59
1, 27871, Note_on_c, 0, 74, 91
1, 27885, Control_c, 0, 64, 36
1, 27900, Control_c, 0, 64, 72
1, 27915, Note_off_c, 0, 67, 63
1, 27915, Control_c, 0, 64, 88
1, 27929, Control_c, 0, 64, 118
1, 27934, Note_off_c, 0, 74, 66
1, 27944, Control_c, 0, 64, 127
1, 27965, Note_on_c, 0, 79, 75
1, 28022, Note_on_c, 0, 84, 69
1, 28067, Note_off_c, 0, 79, 62
1, 28082, Note_on_c, 0, 91, 93
1, 28089, Note_off_c, 0, 84, 65
1, 28151, Note_on_c, 0, 84, 73
1, 28188, Poly_aftertouch_c, 0, 78, 127
1, 28191, Note_on_c, 0, 75, 67
1, 28197, Note_on_c, 0, 79, 68
1, 28204, Note_off_c, 0, 91, 58
1, 28210, Note_off_c, 0, 84, 66
1, 28246, Poly_aftertouch_c, 0, 78, 0
1, 28265, Note_on_c, 0, 82, 74
1, 28292, Note_on_c, 0, 87, 90
1, 28309, Note_off_c, 0, 75, 66
1, 28340, Note_off_c, 0, 87, 67
1, 28353, Note_off_c, 0, 79, 0
1, 28368, Note_on_c, 0, 79, 42
1, 28375, Note_off_c, 0, 82, 65
1, 28424, Note_on_c, 0, 86, 69
1, 28450, Note_off_c, 0, 79, 61
1, 28482, Note_off_c, 0, 86, 65
1, 28484, Note_on_c, 0, 91, 79
1, 28553, Note_on_c, 0, 86, 68
1, 28578, Note_off_c, 0, 91, 59
1, 28585, Note_on_c, 0, 79, 60
1, 28608, Note_on_c, 0, 67, 58
1, 28612, Note_off_c, 0, 86, 62
1, 28641, Note_on_c, 0, 74, 71
1, 28646, Note_off_c, 0, 79, 59
1, 28674, Note_off_c, 0, 67, 62
1, 28694, Note_off_c, 0, 74, 64
1, 28722, Note_on_c, 0, 79, 69
1, 28759, Note_on_c, 0, 84, 69
1, 28793, Note_off_c, 0, 79, 64
1, 28810, Note_on_c, 0, 91, 88
1, 28813, Note_off_c, 0, 84, 66
1, 28865, Note_on_c, 0, 84, 76
1, 28904, Note_on_c, 0, 79, 65
1, 28913, Note_on_c, 0, 75, 72
1, 28919, Note_off_c, 0, 91, 58
1, 28923, Note_on_c, 0, 77, 33
1, 28928, Note_off_c, 0, 84, 67
1, 28964, Note_off_c, 0, 79, 63
1, 28977, Note_on_c, 0, 82, 82
1, 28996, Note_on_c, 0, 87, 93
1, 29001, Note_off_c, 0, 77, 47
1, 29007, Note_off_c, 0, 75, 66
1, 29026, Note_on_c, 0, 91, 37
1, 29041, Note_off_c, 0, 87, 66
1, 29058, Note_off_c, 0, 91, 33
1, 29069, Note_on_c, 0, 79, 80
1, 29071, Note_off_c, 0, 82, 65
1, 29101, Note_on_c, 0, 86, 69
1, 29134, Note_off_c, 0, 79, 62
1, 29158, Note_on_c, 0, 91, 72
1, 29163, Note_off_c, 0, 86, 64
1, 29235, Note_on_c, 0, 86, 66
1, 29253, Note_off_c, 0, 91, 56
1, 29281, Note_on_c, 0, 67, 55
1, 29282, Note_on_c, 0, 79, 70
1, 29286, Note_off_c, 0, 86, 64
1, 29327, Note_off_c, 0, 79, 61
1, 29331, Note_on_c, 0, 74, 73
1, 29354, Note_off_c, 0, 67, 62
1, 29379, Note_off_c, 0, 74, 65
1, 29408, Note_on_c, 0, 79, 72
1, 29480, Note_on_c, 0, 89, 77
1, 29491, Note_off_c, 0, 79, 62
1, 29523, Note_on_c, 0, 91, 75
1, 29536, Note_off_c, 0, 89, 63
1, 29587, Note_on_c, 0, 89, 68
1, 29619, Note_off_c, 0, 91, 61
1, 29649, Note_on_c, 0, 79, 55
1, 29651, Note_on_c, 0, 75, 43
1, 29678, Note_off_c, 0, 89, 64
1, 29700, Note_off_c, 0, 79, 62
1, 29705, Note_on_c, 0, 87, 94
1, 29737, Note_off_c, 0, 87, 69
1, 29762, Note_on_c, 0, 79, 63
1, 29777, Note_off_c, 0, 75, 65
1, 29834, Note_on_c, 0, 86, 72
1, 29850, Note_off_c, 0, 79, 62
1, 29882, Note_off_c, 0, 86, 65
1, 29885, Note_on_c, 0, 91, 76
1, 29957, Note_on_c, 0, 86, 76
1, 29989, Note_off_c, 0, 91, 59
1, 30020, Note_on_c, 0, 79, 67
1, 30021, Note_off_c, 0, 86, 61
1, 30025, Note_on_c, 0, 67, 61
1, 30062, Note_off_c, 0, 79, 59
1, 30071, Note_on_c, 0, 74, 71
1, 30088, Note_off_c, 0, 67, 63
1, 30108, Note_off_c, 0, 74, 62
1, 30130, Note_on_c, 0, 79, 66
1, 30189, Note_on_c, 0, 84, 67
1, 30214, Note_off_c, 0, 79, 63
1, 30235, Note_on_c, 0, 91, 76
1, 30237, Note_off_c, 0, 84, 65
1, 30298, Note_on_c, 0, 84, 65
1, 30326, Note_off_c, 0, 91, 57
1, 30355, Note_on_c, 0, 79, 63
1, 30362, Note_on_c, 0, 75, 64
1, 30371, Note_off_c, 0, 84, 61
1, 30412, Note_off_c, 0, 79, 60
1, 30442, Note_on_c, 0, 87, 76
1, 30463, Note_off_c, 0, 87, 70
1, 30485, Note_on_c, 0, 79, 64
1, 30486, Note_off_c, 0, 75, 65
1, 30524, Control_c, 0, 67, 8
1, 30539, Control_c, 0, 67, 10
1, 30546, Note_on_c, 0, 82, 64
1, 30554, Control_c, 0, 67, 12
1, 30560, Note_off_c, 0, 79, 63
1, 30569, Control_c, 0, 67, 15
1, 30576, Note_off_c, 0, 82, 65
1, 30584, Control_c, 0, 67, 18
1, 30592, Note_on_c, 0, 91, 66
1, 30598, Control_c, 0, 67, 21
1, 30613, Control_c, 0, 67, 23
1, 30628, Control_c, 0, 67, 24
1, 30643, Control_c, 0, 67, 25
1, 30654, Note_off_c, 0, 91, 54
1, 30654, Note_on_c, 0, 82, 69
1, 30684, Note_on_c, 0, 79, 64
1, 30687, Control_c, 0, 67, 25
1, 30706, Note_off_c, 0, 82, 59
1, 30709, Note_on_c, 0, 67, 60
1, 30733, Control_c, 0, 67, 26
1, 30742, Note_off_c, 0, 79, 62
1, 30770, Note_on_c, 0, 74, 63
1, 30780, Note_off_c, 0, 67, 61
1, 30816, Note_off_c, 0, 74, 61
1, 30819, Note_on_c, 0, 79, 56
1, 30866, Control_c, 0, 67, 25
1, 30873, Note_on_c, 0, 81, 71
1, 30881, Control_c, 0, 67, 24
1, 30884, Note_off_c, 0, 79, 63
1, 30895, Control_c, 0, 67, 23
1, 30910, Control_c, 0, 67, 23
1, 30912, Note_off_c, 0, 81, 55
1, 30925, Control_c, 0, 67, 24
1, 30935, Note_on_c, 0, 91, 64
1, 30940, Control_c, 0, 67, 24
1, 30985, Control_c, 0, 67, 24
1, 30991, Note_on_c, 0, 81, 65
1, 30999, Control_c, 0, 67, 23
1, 31014, Control_c, 0, 67, 24
1, 31020, Note_off_c, 0, 91, 50
1, 31029, Note_on_c, 0, 79, 64
1, 31044, Control_c, 0, 67, 24
1, 31059, Note_off_c, 0, 81, 37
1, 31062, Note_on_c, 0, 75, 56
1, 31082, Note_off_c, 0, 79, 59
1, 31118, Control_c, 0, 67, 25
1, 31132, Note_on_c, 0, 87, 66
1, 31133, Control_c, 0, 67, 25
1, 31154, Control_c, 0, 67, 26
1, 31156, Note_off_c, 0, 87, 64
1, 31169, Control_c, 0, 67, 26
1, 31178, Note_on_c, 0, 79, 67
1, 31184, Control_c, 0, 67, 27
1, 31188, Note_off_c, 0, 75, 65
1, 31199, Control_c, 0, 67, 28
1, 31214, Control_c, 0, 67, 30
1, 31229, Control_c, 0, 67, 34
1, 31232, Note_on_c, 0, 82, 63
1, 31244, Control_c, 0, 67, 37
1, 31247, Note_off_c, 0, 79, 60
1, 31259, Control_c, 0, 67, 39
1, 31274, Control_c, 0, 67, 42
1, 31287, Note_off_c, 0, 82, 60
1, 31289, Control_c, 0, 67, 44
1, 31290, Note_on_c, 0, 91, 66
1, 31303, Control_c, 0, 67, 45
1, 31318, Control_c, 0, 67, 47
1, 31333, Control_c, 0, 67, 48
1, 31341, Note_on_c, 0, 82, 44
1, 31347, Control_c, 0, 67, 49
1, 31352, Note_off_c, 0, 91, 50
1, 31362, Control_c, 0, 67, 52
1, 31377, Control_c, 0, 67, 55
1, 31383, Note_on_c, 0, 79, 63
1, 31392, Note_off_c, 0, 82, 64
1, 31392, Control_c, 0, 67, 58
1, 31405, Note_on_c, 0, 67, 48
1, 31407, Control_c, 0, 67, 62
1, 31421, Control_c, 0, 67, 65
1, 31436, Control_c, 0, 67, 68
1, 31451, Control_c, 0, 67, 71
1, 31452, Note_off_c, 0, 79, 57
1, 31456, Note_on_c, 0, 74, 54
1, 31466, Control_c, 0, 67, 73
1, 31472, Note_off_c, 0, 67, 60
1, 31480, Control_c, 0, 67, 77
1, 31489, Note_off_c, 0, 74, 66
1, 31495, Control_c, 0, 67, 81
1, 31510, Control_c, 0, 67, 86
1, 31512, Note_on_c, 0, 79, 50
1, 31526, Control_c, 0, 67, 90
1, 31541, Control_c, 0, 67, 94
1, 31556, Control_c, 0, 67, 97
1, 31566, Note_on_c, 0, 84, 65
1, 31570, Control_c, 0, 67, 100
1, 31585, Control_c, 0, 67, 103
1, 31593, Note_off_c, 0, 79, 61
1, 31600, Control_c, 0, 67, 107
1, 31615, Control_c, 0, 67, 110
1, 31618, Note_off_c, 0, 84, 62
1, 31624, Note_on_c, 0, 91, 66
1, 31630, Control_c, 0, 67, 113
1, 31644, Control_c, 0, 67, 116
1, 31659, Control_c, 0, 67, 116
1, 31676, Note_on_c, 0, 84, 50
1, 31703, Note_off_c, 0, 91, 53
1, 31724, Note_on_c, 0, 79, 54
1, 31727, Note_off_c, 0, 84, 65
1, 31733, Control_c, 0, 67, 116
1, 31748, Control_c, 0, 67, 115
1, 31760, Note_on_c, 0, 75, 60
1, 31763, Control_c, 0, 67, 114
1, 31778, Control_c, 0, 67, 114
1, 31783, Note_off_c, 0, 79, 53
1, 31804, Note_on_c, 0, 87, 64
1, 31822, Note_off_c, 0, 87, 65
1, 31822, Control_c, 0, 67, 113
1, 31837, Control_c, 0, 67, 113
1, 31848, Note_off_c, 0, 75, 64
1, 31867, Note_on_c, 0, 79, 56
1, 31903, Control_c, 0, 67, 112
1, 31918, Control_c, 0, 67, 111
1, 31933, Note_on_c, 0, 86, 44
1, 31933, Control_c, 0, 67, 109
1, 31948, Control_c, 0, 67, 108
1, 31949, Note_off_c, 0, 79, 59
1, 31959, Note_off_c, 0, 86, 56
1, 31972, Note_on_c, 0, 91, 60
1, 32023, Control_c, 0, 67, 108
1, 32038, Control_c, 0, 67, 106
1, 32048, Note_on_c, 0, 86, 58
1, 32052, Control_c, 0, 67, 105
1, 32055, Note_off_c, 0, 91, 52
1, 32084, Note_off_c, 0, 86, 60
1, 32095, Note_on_c, 0, 79, 54
1, 32096, Note_on_c, 0, 67, 44
1, 32126, Control_c, 0, 67, 104
1, 32129, Note_off_c, 0, 79, 54
1, 32143, Note_on_c, 0, 74, 49
1, 32156, Control_c, 0, 67, 103
1, 32163, Note_off_c, 0, 67, 60
1, 32171, Control_c, 0, 67, 100
1, 32177, Note_off_c, 0, 74, 64
1, 32186, Control_c, 0, 67, 96
1, 32201, Control_c, 0, 67, 92
1, 32216, Control_c, 0, 67, 88
1, 32222, Note_on_c, 0, 79, 58
1, 32231, Control_c, 0, 67, 86
1, 32245, Control_c, 0, 67, 83
1, 32260, Control_c, 0, 67, 80
1, 32275, Control_c, 0, 67, 78
1, 32290, Control_c, 0, 67, 77
1, 32297, Note_off_c, 0, 79, 58
1, 32303, Note_on_c, 0, 91, 55
1, 32304, Control_c, 0, 67, 76
1, 32320, Control_c, 0, 67, 74
1, 32335, Control_c, 0, 67, 73
1, 32350, Control_c, 0, 67, 72
1, 32363, Note_on_c, 0, 87, 39
1, 32365, Control_c, 0, 67, 70
1, 32380, Control_c, 0, 67, 68
1, 32393, Note_off_c, 0, 91, 56
1, 32394, Control_c, 0, 67, 67
1, 32406, Note_off_c, 0, 87, 62
1, 32409, Control_c, 0, 67, 66
1, 32424, Control_c, 0, 67, 65
1, 32424, Note_on_c, 0, 79, 46
1, 32454, Control_c, 0, 67, 65
1, 32468, Control_c, 0, 67, 63
1, 32469, Note_off_c, 0, 79, 44
1, 32483, Control_c, 0, 67, 62
1, 32490, Note_on_c, 0, 75, 46
1, 32498, Control_c, 0, 67, 61
1, 32512, Control_c, 0, 67, 60
1, 32527, Control_c, 0, 67, 60
1, 32542, Control_c, 0, 67, 59
1, 32561, Note_on_c, 0, 87, 45
1, 32572, Control_c, 0, 67, 58
1, 32586, Control_c, 0, 67, 58
1, 32587, Note_on_c, 0, 79, 44
1, 32601, Control_c, 0, 67, 56
1, 32616, Control_c, 0, 67, 55
1, 32631, Control_c, 0, 67, 54
1, 32654, Control_c, 0, 67, 54
1, 32668, Note_on_c, 0, 89, 45
1, 32668, Control_c, 0, 67, 53
1, 32678, Note_off_c, 0, 87, 43
1, 32701, Note_off_c, 0, 89, 52
1, 32705, Note_off_c, 0, 79, 43
1, 32713, Note_on_c, 0, 91, 54
1, 32757, Control_c, 0, 67, 53
1, 32768, Note_off_c, 0, 75, 36
1, 32788, Note_on_c, 0, 89, 50
1, 32797, Note_off_c, 0, 91, 48
1, 32824, Note_off_c, 0, 89, 50
1, 32842, Note_on_c, 0, 79, 46
1, 32872, Note_on_c, 0, 74, 44
1, 32890, Note_off_c, 0, 79, 50
1, 32922, Note_off_c, 0, 74, 51
1, 32944, Note_on_c, 0, 86, 62
1, 32981, Note_on_c, 0, 79, 49
1, 33000, Note_off_c, 0, 86, 56
1, 33009, Control_c, 0, 67, 52
1, 33026, Note_on_c, 0, 87, 58
1, 33071, Note_off_c, 0, 79, 56
1, 33074, Note_off_c, 0, 87, 57
1, 33083, Note_on_c, 0, 91, 67
1, 33125, Note_on_c, 0, 87, 45
1, 33162, Note_off_c, 0, 91, 58
1, 33193, Note_on_c, 0, 79, 62
1, 33205, Note_off_c, 0, 87, 64
1, 33207, Note_on_c, 0, 75, 52
1, 33254, Note_off_c, 0, 79, 57
1, 33284, Note_on_c, 0, 84, 69
1, 33306, Control_c, 0, 67, 53
1, 33321, Control_c, 0, 67, 53
1, 33324, Note_on_c, 0, 79, 53
1, 33345, Note_off_c, 0, 84, 57
1, 33372, Note_on_c, 0, 86, 61
1, 33413, Note_off_c, 0, 79, 58
1, 33420, Note_off_c, 0, 86, 62
1, 33429, Note_on_c, 0, 91, 71
1, 33490, Note_on_c, 0, 86, 60
1, 33506, Control_c, 0, 67, 53
1, 33522, Note_off_c, 0, 91, 58
1, 33541, Note_on_c, 0, 79, 67
1, 33558, Note_off_c, 0, 86, 63
1, 33562, Note_on_c, 0, 74, 50
1, 33564, Control_c, 0, 67, 52
1, 33603, Note_off_c, 0, 79, 60
1, 33605, Note_off_c, 0, 75, 64
1, 33610, Note_on_c, 0, 82, 79
1, 33683, Note_on_c, 0, 79, 64
1, 33719, Note_on_c, 0, 84, 65
1, 33742, Control_c, 0, 67, 52
1, 33754, Note_off_c, 0, 79, 63
1, 33757, Control_c, 0, 67, 51
1, 33772, Control_c, 0, 67, 48
1, 33773, Note_off_c, 0, 84, 66
1, 33776, Note_on_c, 0, 91, 78
1, 33787, Control_c, 0, 67, 42
1, 33802, Control_c, 0, 67, 36
1, 33816, Control_c, 0, 67, 30
1, 33831, Control_c, 0, 67, 24
1, 33837, Note_on_c, 0, 84, 75
1, 33846, Control_c, 0, 67, 18
1, 33860, Control_c, 0, 67, 12
1, 33864, Note_off_c, 0, 91, 58
1, 33875, Control_c, 0, 67, 0
1, 33880, Note_on_c, 0, 79, 67
1, 33899, Note_off_c, 0, 84, 64
1, 33917, Note_on_c, 0, 75, 62
1, 33936, Note_off_c, 0, 79, 62
1, 33943, Note_off_c, 0, 82, 62
1, 33951, Note_on_c, 0, 81, 87
1, 33958, Note_off_c, 0, 74, 56
1, 34014, Note_on_c, 0, 79, 74
1, 34046, Note_off_c, 0, 81, 56
1, 34054, Note_on_c, 0, 82, 68
1, 34090, Note_off_c, 0, 79, 63
1, 34113, Note_off_c, 0, 82, 64
1, 34120, Note_on_c, 0, 91, 80
1, 34171, Note_on_c, 0, 82, 68
1, 34207, Note_off_c, 0, 91, 55
1, 34217, Note_on_c, 0, 79, 67
1, 34227, Note_off_c, 0, 82, 66
1, 34261, Note_on_c, 0, 74, 71
1, 34270, Note_off_c, 0, 79, 62
1, 34289, Note_off_c, 0, 75, 65
1, 34299, Note_on_c, 0, 82, 81
1, 34346, Note_on_c, 0, 79, 73
1, 34377, Note_on_c, 0, 81, 73
1, 34405, Note_off_c, 0, 79, 62
1, 34432, Note_off_c, 0, 81, 63
1, 34438, Note_on_c, 0, 91, 81
1, 34499, Note_on_c, 0, 81, 82
1, 34541, Note_off_c, 0, 91, 59
1, 34546, Note_on_c, 0, 79, 77
1, 34546, Note_off_c, 0, 81, 62
1, 34560, Note_off_c, 0, 82, 61
1, 34589, Note_on_c, 0, 75, 78
1, 34594, Note_off_c, 0, 79, 64
1, 34626, Note_off_c, 0, 74, 62
1, 34642, Note_on_c, 0, 81, 79
1, 34679, Note_on_c, 0, 79, 78
1, 34734, Note_on_c, 0, 82, 76
1, 34759, Note_off_c, 0, 79, 62
1, 34781, Note_off_c, 0, 82, 64
1, 34788, Note_on_c, 0, 91, 79
1, 34805, Note_off_c, 0, 81, 49
1, 34848, Note_on_c, 0, 82, 76
1, 34878, Note_off_c, 0, 91, 53
1, 34906, Note_on_c, 0, 79, 62
1, 34913, Note_off_c, 0, 82, 64
1, 34945, Note_on_c, 0, 74, 56
1, 34954, Note_off_c, 0, 79, 56
1, 34994, Note_on_c, 0, 82, 70
1, 34998, Note_off_c, 0, 75, 61
1, 35052, Note_on_c, 0, 79, 55
1, 35084, Note_on_c, 0, 84, 65
1, 35092, Note_off_c, 0, 79, 52
1, 35133, Note_off_c, 0, 84, 63
1, 35136, Control_c, 0, 67, 10
1, 35145, Note_on_c, 0, 91, 62
1, 35151, Control_c, 0, 67, 13
1, 35166, Control_c, 0, 67, 16
1, 35181, Control_c, 0, 67, 20
1, 35195, Control_c, 0, 67, 25
1, 35207, Note_on_c, 0, 84, 55
1, 35210, Control_c, 0, 67, 31
1, 35225, Control_c, 0, 67, 41
1, 35226, Note_off_c, 0, 91, 58
1, 35240, Control_c, 0, 67, 56
1, 35255, Control_c, 0, 67, 67
1, 35265, Note_off_c, 0, 82, 52
1, 35268, Note_off_c, 0, 84, 64
1, 35269, Control_c, 0, 67, 75
1, 35284, Control_c, 0, 67, 80
1, 35289, Note_on_c, 0, 79, 45
1, 35298, Note_on_c, 0, 75, 49
1, 35299, Control_c, 0, 67, 85
1, 35313, Control_c, 0, 67, 89
1, 35318, Note_off_c, 0, 79, 52
1, 35328, Control_c, 0, 67, 92
1, 35343, Control_c, 0, 67, 93
1, 35361, Note_on_c, 0, 81, 63
1, 35387, Control_c, 0, 67, 93
1, 35396, Note_off_c, 0, 74, 55
1, 35408, Note_on_c, 0, 79, 51
1, 35432, Control_c, 0, 67, 92
1, 35438, Note_on_c, 0, 82, 54
1, 35447, Control_c, 0, 67, 90
1, 35453, Note_off_c, 0, 79, 46
1, 35462, Control_c, 0, 67, 89
1, 35477, Control_c, 0, 67, 89
1, 35477, Note_off_c, 0, 82, 60
1, 35483, Note_off_c, 0, 81, 54
1, 35492, Control_c, 0, 67, 88
1, 35493, Note_on_c, 0, 91, 62
1, 35507, Control_c, 0, 67, 87
1, 35522, Control_c, 0, 67, 86
1, 35536, Control_c, 0, 67, 84
1, 35551, Control_c, 0, 67, 83
1, 35561, Note_on_c, 0, 82, 59
1, 35566, Control_c, 0, 67, 83
1, 35580, Note_off_c, 0, 91, 54
1, 35581, Control_c, 0, 67, 82
1, 35611, Note_off_c, 0, 82, 61
1, 35617, Note_on_c, 0, 79, 51
1, 35626, Control_c, 0, 67, 81
1, 35648, Control_c, 0, 67, 81
1, 35652, Note_off_c, 0, 79, 57
1, 35655, Note_on_c, 0, 74, 51
1, 35663, Control_c, 0, 67, 80
1, 35678, Control_c, 0, 67, 77
1, 35692, Control_c, 0, 67, 74
1, 35696, Note_off_c, 0, 75, 62
1, 35707, Control_c, 0, 67, 73
1, 35722, Control_c, 0, 67, 71
1, 35729, Note_on_c, 0, 82, 65
1, 35736, Control_c, 0, 67, 70
1, 35748, Note_on_c, 0, 79, 57
1, 35767, Control_c, 0, 67, 69
1, 35782, Control_c, 0, 67, 67
1, 35797, Control_c, 0, 67, 64
1, 35808, Note_on_c, 0, 81, 50
1, 35812, Note_off_c, 0, 79, 61
1, 35812, Control_c, 0, 67, 63
1, 35826, Control_c, 0, 67, 62
1, 35832, Note_off_c, 0, 81, 56
1, 35841, Control_c, 0, 67, 62
1, 35848, Note_on_c, 0, 91, 68
1, 35856, Control_c, 0, 67, 61
1, 35871, Control_c, 0, 67, 57
1, 35886, Control_c, 0, 67, 52
1, 35900, Control_c, 0, 67, 46
1, 35912, Note_on_c, 0, 81, 72
1, 35915, Control_c, 0, 67, 40
1, 35930, Control_c, 0, 67, 34
1, 35936, Note_off_c, 0, 91, 58
1, 35945, Control_c, 0, 67, 28
1, 35960, Control_c, 0, 67, 22
1, 35968, Note_off_c, 0, 81, 61
1, 35975, Control_c, 0, 67, 17
1, 35975, Note_on_c, 0, 79, 65
1, 35989, Note_off_c, 0, 82, 61
1, 35990, Control_c, 0, 67, 13
1, 35996, Note_on_c, 0, 75, 65
1, 36004, Control_c, 0, 67, 9
1, 36009, Note_off_c, 0, 79, 60
1, 36019, Control_c, 0, 67, 0
1, 36072, Note_on_c, 0, 81, 69
1, 36075, Note_off_c, 0, 74, 60
1, 36102, Note_on_c, 0, 79, 72
1, 36150, Note_on_c, 0, 82, 70
1, 36171, Note_off_c, 0, 79, 62
1, 36199, Note_on_c, 0, 91, 74
1, 36202, Note_off_c, 0, 81, 54
1, 36202, Note_off_c, 0, 82, 64
1, 36261, Note_on_c, 0, 82, 61
1, 36285, Note_off_c, 0, 91, 55
1, 36304, Note_on_c, 0, 79, 69
1, 36325, Note_off_c, 0, 82, 65
1, 36326, Note_on_c, 0, 74, 63
1, 36358, Note_off_c, 0, 79, 61
1, 36379, Note_off_c, 0, 75, 58
1, 36398, Note_on_c, 0, 82, 76
1, 36455, Note_on_c, 0, 79, 73
1, 36495, Note_on_c, 0, 84, 74
1, 36519, Note_off_c, 0, 79, 64
1, 36551, Note_on_c, 0, 91, 81
1, 36553, Note_off_c, 0, 84, 66
1, 36610, Note_on_c, 0, 84, 77
1, 36641, Note_off_c, 0, 91, 61
1, 36667, Note_on_c, 0, 79, 75
1, 36669, Note_on_c, 0, 75, 73
1, 36672, Note_off_c, 0, 84, 67
1, 36673, Note_off_c, 0, 82, 62
1, 36720, Note_off_c, 0, 79, 62
1, 36735, Note_off_c, 0, 74, 56
1, 36750, Note_on_c, 0, 81, 76
1, 36799, Note_on_c, 0, 79, 70
1, 36862, Note_on_c, 0, 86, 65
1, 36872, Note_off_c, 0, 79, 61
1, 36881, Note_off_c, 0, 81, 54
1, 36906, Note_off_c, 0, 86, 63
1, 36912, Note_on_c, 0, 91, 75
1, 36971, Note_on_c, 0, 86, 62
1, 37000, Note_off_c, 0, 91, 59
1, 37039, Note_off_c, 0, 86, 62
1, 37046, Note_on_c, 0, 79, 61
1, 37075, Note_on_c, 0, 74, 54
1, 37084, Note_off_c, 0, 79, 50
1, 37142, Note_on_c, 0, 82, 51
1, 37148, Note_off_c, 0, 75, 56
1, 37194, Note_on_c, 0, 79, 53
1, 37242, Note_on_c, 0, 84, 51
1, 37268, Note_off_c, 0, 79, 56
1, 37268, Note_off_c, 0, 84, 62
1, 37286, Note_on_c, 0, 91, 62
1, 37370, Note_on_c, 0, 84, 53
1, 37370, Note_off_c, 0, 91, 56
1, 37388, Note_off_c, 0, 82, 38
1, 37410, Note_off_c, 0, 84, 62
1, 37415, Note_on_c, 0, 79, 54
1, 37446, Note_off_c, 0, 79, 53
1, 37477, Note_on_c, 0, 75, 47
1, 37515, Note_off_c, 0, 74, 58
1, 37527, Note_on_c, 0, 81, 59
1, 37552, Note_on_c, 0, 79, 58
1, 37627, Note_off_c, 0, 79, 59
1, 37637, Note_on_c, 0, 82, 36
1, 37668, Note_off_c, 0, 81, 37
1, 37670, Note_off_c, 0, 82, 49
1, 37678, Note_on_c, 0, 91, 51
1, 37730, Note_on_c, 0, 82, 47
1, 37752, Note_off_c, 0, 91, 31
1, 37793, Note_on_c, 0, 79, 47
1, 37799, Note_off_c, 0, 82, 58
1, 37827, Note_off_c, 0, 79, 53
1, 37848, Note_on_c, 0, 74, 45
1, 37909, Note_off_c, 0, 75, 52
1, 37914, Note_on_c, 0, 82, 50
1, 37946, Note_on_c, 0, 79, 45
1, 37984, Note_off_c, 0, 79, 51
1, 37996, Note_on_c, 0, 81, 48
1, 38024, Note_off_c, 0, 82, 51
1, 38025, Note_off_c, 0, 81, 55
1, 38044, Note_on_c, 0, 91, 56
1, 38115, Note_on_c, 0, 81, 58
1, 38127, Note_off_c, 0, 91, 55
1, 38153, Note_off_c, 0, 81, 59
1, 38174, Note_on_c, 0, 79, 47
1, 38195, Note_on_c, 0, 75, 50
1, 38200, Note_off_c, 0, 79, 55
1, 38209, Note_off_c, 0, 74, 54
1, 38269, Note_on_c, 0, 81, 57
1, 38296, Note_on_c, 0, 79, 49
1, 38344, Note_off_c, 0, 81, 57
1, 38352, Note_off_c, 0, 79, 56
1, 38356, Note_on_c, 0, 82, 53
1, 38388, Note_off_c, 0, 82, 56
1, 38417, Note_on_c, 0, 91, 48
1, 38472, Note_on_c, 0, 82, 56
1, 38474, Note_off_c, 0, 91, 35
1, 38520, Note_off_c, 0, 82, 58
1, 38531, Note_on_c, 0, 79, 43
1, 38551, Note_on_c, 0, 74, 45
1, 38557, Note_off_c, 0, 79, 55
1, 38571, Note_off_c, 0, 75, 36
1, 38620, Control_c, 0, 67, 9
1, 38621, Note_on_c, 0, 82, 54
1, 38643, Control_c, 0, 67, 12
1, 38657, Note_on_c, 0, 79, 53
1, 38657, Control_c, 0, 67, 15
1, 38660, Note_off_c, 0, 82, 63
1, 38672, Control_c, 0, 67, 18
1, 38686, Note_off_c, 0, 74, 63
1, 38687, Control_c, 0, 67, 23
1, 38702, Control_c, 0, 67, 27
1, 38713, Note_off_c, 0, 79, 54
1, 38717, Control_c, 0, 67, 32
1, 38732, Control_c, 0, 67, 37
1, 38747, Control_c, 0, 67, 41
1, 38762, Control_c, 0, 67, 44
1, 38777, Control_c, 0, 67, 45
1, 38779, Note_on_c, 0, 91, 46
1, 38819, Note_on_c, 0, 81, 22
1, 38822, Control_c, 0, 67, 46
1, 38836, Control_c, 0, 67, 46
1, 38844, Note_off_c, 0, 91, 47
1, 38881, Control_c, 0, 67, 47
1, 38882, Note_on_c, 0, 79, 49
1, 38885, Note_off_c, 0, 81, 60
1, 38896, Control_c, 0, 67, 47
1, 38908, Note_off_c, 0, 79, 55
1, 38941, Control_c, 0, 67, 48
1, 38949, Note_on_c, 0, 63, 50
1, 38956, Control_c, 0, 67, 49
1, 38970, Control_c, 0, 67, 50
1, 38972, Note_on_c, 0, 69, 46
1, 38995, Note_off_c, 0, 63, 63
1, 38997, Note_off_c, 0, 69, 64
1, 39000, Control_c, 0, 67, 50
1, 39015, Control_c, 0, 67, 49
1, 39029, Control_c, 0, 67, 48
1, 39044, Control_c, 0, 67, 47
1, 39059, Control_c, 0, 67, 46
1, 39066, Note_on_c, 0, 67, 34
1, 39074, Control_c, 0, 67, 45
1, 39088, Control_c, 0, 67, 45
1, 39103, Control_c, 0, 67, 44
1, 39106, Note_on_c, 0, 70, 53
1, 39119, Note_off_c, 0, 67, 45
1, 39139, Note_off_c, 0, 70, 57
1, 39146, Note_on_c, 0, 79, 56
1, 39188, Note_off_c, 0, 79, 51
1, 39199, Note_on_c, 0, 70, 52
1, 39233, Note_off_c, 0, 70, 63
1, 39238, Note_on_c, 0, 67, 48
1, 39251, Control_c, 0, 67, 45
1, 39263, Note_off_c, 0, 67, 61
1, 39266, Control_c, 0, 67, 45
1, 39282, Note_on_c, 0, 50, 52
1, 39292, Note_on_c, 0, 58, 64
1, 39316, Note_off_c, 0, 58, 67
1, 39340, Note_off_c, 0, 50, 63
1, 39355, Control_c, 0, 67, 46
1, 39370, Control_c, 0, 67, 46
1, 39385, Note_on_c, 0, 57, 62
1, 39392, Control_c, 0, 67, 46
1, 39407, Control_c, 0, 67, 45
1, 39427, Note_off_c, 0, 57, 59
1, 39436, Note_on_c, 0, 67, 66
1, 39492, Note_on_c, 0, 57, 58
1, 39509, Note_off_c, 0, 67, 61
1, 39525, Control_c, 0, 67, 46
1, 39549, Note_on_c, 0, 55, 66
1, 39552, Note_off_c, 0, 57, 61
1, 39570, Control_c, 0, 67, 46
1, 39579, Note_off_c, 0, 55, 65
1, 39614, Control_c, 0, 67, 47
1, 39617, Note_on_c, 0, 39, 64
1, 39626, Note_on_c, 0, 45, 67
1, 39629, Control_c, 0, 67, 48
1, 39644, Control_c, 0, 67, 49
1, 39659, Control_c, 0, 67, 50
1, 39662, Note_off_c, 0, 45, 62
1, 39665, Note_off_c, 0, 39, 60
1, 39674, Control_c, 0, 67, 51
1, 39689, Control_c, 0, 67, 52
1, 39697, Note_on_c, 0, 46, 67
1, 39704, Control_c, 0, 67, 58
1, 39718, Control_c, 0, 67, 69
1, 39733, Control_c, 0, 67, 78
1, 39748, Control_c, 0, 67, 83
1, 39759, Note_on_c, 0, 55, 69
1, 39763, Note_off_c, 0, 46, 62
1, 39763, Control_c, 0, 67, 84
1, 39778, Control_c, 0, 67, 85
1, 39792, Control_c, 0, 67, 85
1, 39807, Control_c, 0, 67, 86
1, 39822, Control_c, 0, 67, 86
1, 39826, Note_on_c, 0, 46, 57
1, 39846, Note_off_c, 0, 55, 63
1, 39852, Control_c, 0, 64, 124
1, 39866, Control_c, 0, 64, 115
1, 39881, Control_c, 0, 64, 106
1, 39881, Control_c, 0, 67, 87
1, 39884, Note_on_c, 0, 43, 69
1, 39891, Note_off_c, 0, 46, 63
1, 39896, Control_c, 0, 64, 92
1, 39896, Control_c, 0, 67, 88
1, 39910, Control_c, 0, 64, 71
1, 39910, Control_c, 0, 67, 94
1, 39918, Note_off_c, 0, 43, 63
1, 39925, Control_c, 0, 64, 0
1, 39925, Control_c, 0, 67, 104
1, 39940, Control_c, 0, 67, 113
1, 39943, Note_on_c, 0, 38, 70
1, 39955, Control_c, 0, 67, 121
1, 39970, Control_c, 0, 67, 127
1, 39975, Note_on_c, 0, 46, 67
1, 39989, Note_off_c, 0, 38, 64
1, 40004, Note_on_c, 0, 43, 63
1, 40016, Note_off_c, 0, 46, 63
1, 40085, Note_on_c, 0, 48, 64
1, 40101, Note_off_c, 0, 43, 59
1, 40133, Note_off_c, 0, 48, 68
1, 40144, Note_on_c, 0, 55, 67
1, 40204, Note_on_c, 0, 48, 45
1, 40209, Note_off_c, 0, 55, 59
1, 40242, Note_on_c, 0, 43, 60
1, 40252, Note_off_c, 0, 48, 65
1, 40275, Note_off_c, 0, 43, 62
1, 40284, Note_on_c, 0, 39, 63
1, 40314, Note_on_c, 0, 45, 73
1, 40358, Note_off_c, 0, 45, 63
1, 40364, Note_off_c, 0, 39, 58
1, 40368, Note_on_c, 0, 43, 52
1, 40431, Note_on_c, 0, 50, 56
1, 40454, Note_off_c, 0, 43, 57
1, 40482, Note_on_c, 0, 55, 58
1, 40560, Note_off_c, 0, 55, 62
1, 40586, Note_on_c, 0, 43, 50
1, 40603, Note_off_c, 0, 50, 59
1, 40610, Note_on_c, 0, 38, 59
1, 40632, Note_off_c, 0, 43, 56
1, 40655, Note_on_c, 0, 46, 72
1, 40675, Note_off_c, 0, 38, 62
1, 40711, Note_off_c, 0, 46, 57
1, 40726, Note_on_c, 0, 43, 54
1, 40785, Note_off_c, 0, 43, 60
1, 40790, Note_on_c, 0, 48, 34
1, 40831, Note_on_c, 0, 55, 49
1, 40833, Note_off_c, 0, 48, 45
1, 40887, Note_on_c, 0, 48, 43
1, 40890, Note_off_c, 0, 55, 56
1, 40920, Note_on_c, 0, 43, 54
1, 40932, Note_off_c, 0, 48, 62
1, 40951, Note_on_c, 0, 39, 57
1, 40966, Note_off_c, 0, 43, 59
1, 41010, Note_on_c, 0, 45, 64
1, 41021, Note_off_c, 0, 39, 61
1, 41041, Note_off_c, 0, 45, 65
1, 41058, Note_on_c, 0, 43, 54
1, 41102, Note_on_c, 0, 46, 58
1, 41119, Note_off_c, 0, 43, 59
1, 41138, Note_off_c, 0, 46, 61
1, 41159, Note_on_c, 0, 55, 50
1, 41209, Note_off_c, 0, 55, 57
1, 41215, Note_on_c, 0, 46, 57
1, 41253, Note_on_c, 0, 43, 55
1, 41265, Note_off_c, 0, 46, 56
1, 41278, Note_on_c, 0, 38, 50
1, 41292, Note_off_c, 0, 43, 57
1, 41339, Note_off_c, 0, 38, 62
1, 41341, Note_on_c, 0, 46, 55
1, 41377, Note_on_c, 0, 43, 49
1, 41379, Note_off_c, 0, 46, 61
1, 41427, Note_on_c, 0, 48, 48
1, 41433, Note_off_c, 0, 43, 59
1, 41461, Note_off_c, 0, 48, 54
1, 41481, Note_on_c, 0, 55, 46
1, 41533, Note_off_c, 0, 55, 49
1, 41535, Note_on_c, 0, 48, 48
1, 41575, Note_on_c, 0, 43, 51
1, 41576, Note_off_c, 0, 48, 65
1, 41594, Note_on_c, 0, 39, 44
1, 41612, Note_off_c, 0, 43, 51
1, 41660, Note_off_c, 0, 39, 59
1, 41664, Note_on_c, 0, 45, 50
1, 41698, Note_off_c, 0, 45, 55
1, 41701, Note_on_c, 0, 43, 58
1, 41756, Note_on_c, 0, 50, 40
1, 41763, Note_off_c, 0, 43, 55
1, 41803, Note_on_c, 0, 55, 52
1, 41818, Note_off_c, 0, 50, 0
1, 41835, Note_on_c, 0, 50, 33
1, 41857, Note_off_c, 0, 55, 60
1, 41880, Note_on_c, 0, 43, 50
1, 41892, Note_off_c, 0, 50, 62
1, 41915, Note_off_c, 0, 43, 50
1, 41920, Note_on_c, 0, 38, 55
1, 41950, Control_c, 0, 64, 25
1, 41965, Control_c, 0, 64, 63
1, 41973, Note_on_c, 0, 46, 76
1, 41979, Control_c, 0, 64, 69
1, 41994, Control_c, 0, 64, 75
1, 42009, Control_c, 0, 64, 84
1, 42018, Note_on_c, 0, 45, 69
1, 42024, Control_c, 0, 64, 93
1, 42039, Control_c, 0, 64, 99
1, 42053, Control_c, 0, 64, 104
1, 42068, Control_c, 0, 64, 109
1, 42074, Note_off_c, 0, 46, 57
1, 42075, Note_on_c, 0, 50, 52
1, 42083, Control_c, 0, 64, 115
1, 42085, Note_off_c, 0, 45, 64
1, 42094, Note_off_c, 0, 38, 59
1, 42097, Control_c, 0, 64, 121
1, 42106, Note_on_c, 0, 57, 78
1, 42109, Note_off_c, 0, 50, 61
1, 42112, Control_c, 0, 64, 126
1, 42127, Control_c, 0, 64, 127
1, 42177, Note_on_c, 0, 50, 62
1, 42200, Note_off_c, 0, 57, 60
1, 42207, Note_on_c, 0, 45, 60
1, 42216, Note_off_c, 0, 50, 62
1, 42246, Control_c, 0, 64, 119
1, 42247, Note_off_c, 0, 45, 62
1, 42249, Note_on_c, 0, 39, 60
1, 42261, Control_c, 0, 64, 111
1, 42276, Control_c, 0, 64, 103
1, 42291, Control_c, 0, 64, 93
1, 42303, Note_on_c, 0, 45, 64
1, 42305, Control_c, 0, 64, 80
1, 42317, Note_off_c, 0, 39, 62
1, 42320, Control_c, 0, 64, 64
1, 42335, Control_c, 0, 64, 0
1, 42344, Note_off_c, 0, 45, 61
1, 42356, Note_on_c, 0, 43, 54
1, 42416, Note_on_c, 0, 50, 48
1, 42421, Note_off_c, 0, 43, 58
1, 42454, Note_on_c, 0, 55, 62
1, 42471, Note_off_c, 0, 50, 55
1, 42539, Note_on_c, 0, 43, 55
1, 42540, Note_off_c, 0, 55, 59
1, 42545, Note_on_c, 0, 50, 23
1, 42574, Note_off_c, 0, 43, 56
1, 42586, Note_on_c, 0, 38, 52
1, 42586, Note_off_c, 0, 50, 49
1, 42609, Control_c, 0, 64, 20
1, 42624, Control_c, 0, 64, 58
1, 42638, Control_c, 0, 64, 65
1, 42640, Note_on_c, 0, 46, 62
1, 42653, Control_c, 0, 64, 68
1, 42668, Control_c, 0, 64, 72
1, 42683, Control_c, 0, 64, 77
1, 42684, Note_on_c, 0, 45, 55
1, 42692, Note_off_c, 0, 38, 54
1, 42699, Control_c, 0, 64, 83
1, 42708, Note_on_c, 0, 50, 49
1, 42714, Control_c, 0, 64, 88
1, 42728, Control_c, 0, 64, 90
1, 42743, Control_c, 0, 64, 92
1, 42755, Note_off_c, 0, 45, 56
1, 42758, Control_c, 0, 64, 93
1, 42764, Note_off_c, 0, 46, 35
1, 42768, Note_off_c, 0, 50, 63
1, 42773, Control_c, 0, 64, 95
1, 42774, Note_on_c, 0, 57, 71
1, 42788, Control_c, 0, 64, 96
1, 42852, Note_off_c, 0, 57, 61
1, 42862, Note_on_c, 0, 50, 52
1, 42866, Note_on_c, 0, 45, 59
1, 42891, Control_c, 0, 64, 96
1, 42900, Note_off_c, 0, 45, 49
1, 42906, Control_c, 0, 64, 93
1, 42915, Note_on_c, 0, 36, 59
1, 42920, Control_c, 0, 64, 84
1, 42935, Control_c, 0, 64, 72
1, 42945, Note_off_c, 0, 50, 62
1, 42950, Control_c, 0, 64, 51
1, 42965, Control_c, 0, 64, 0
1, 42976, Note_on_c, 0, 45, 75
1, 42995, Control_c, 0, 64, 11
1, 43010, Control_c, 0, 64, 67
1, 43024, Control_c, 0, 64, 73
1, 43030, Note_on_c, 0, 46, 67
1, 43039, Control_c, 0, 64, 80
1, 43046, Note_off_c, 0, 36, 57
1, 43048, Note_off_c, 0, 45, 61
1, 43054, Control_c, 0, 64, 85
1, 43064, Note_on_c, 0, 50, 32
1, 43069, Control_c, 0, 64, 87
1, 43084, Control_c, 0, 64, 88
1, 43099, Control_c, 0, 64, 89
1, 43111, Note_off_c, 0, 46, 61
1, 43114, Control_c, 0, 64, 90
1, 43135, Note_on_c, 0, 58, 70
1, 43143, Note_off_c, 0, 50, 58
1, 43204, Note_on_c, 0, 50, 34
1, 43219, Note_on_c, 0, 46, 62
1, 43224, Control_c, 0, 64, 89
1, 43239, Control_c, 0, 64, 87
1, 43254, Control_c, 0, 64, 82
1, 43260, Note_off_c, 0, 46, 63
1, 43265, Note_on_c, 0, 34, 71
1, 43265, Note_off_c, 0, 50, 55
1, 43269, Control_c, 0, 64, 72
1, 43284, Control_c, 0, 64, 46
1, 43286, Note_off_c, 0, 58, 32
1, 43299, Control_c, 0, 64, 0
1, 43322, Note_on_c, 0, 46, 76
1, 43343, Control_c, 0, 64, 30
1, 43358, Control_c, 0, 64, 64
1, 43373, Control_c, 0, 64, 70
1, 43378, Note_on_c, 0, 45, 68
1, 43388, Control_c, 0, 64, 75
1, 43402, Control_c, 0, 64, 81
1, 43417, Control_c, 0, 64, 84
1, 43432, Control_c, 0, 64, 86
1, 43438, Note_on_c, 0, 52, 52
1, 43447, Control_c, 0, 64, 87
1, 43455, Note_off_c, 0, 45, 61
1, 43455, Note_off_c, 0, 46, 61
1, 43461, Control_c, 0, 64, 87
1, 43463, Note_on_c, 0, 57, 71
1, 43477, Note_off_c, 0, 52, 59
1, 43478, Note_off_c, 0, 34, 57
1, 43544, Note_on_c, 0, 45, 65
1, 43552, Note_off_c, 0, 57, 60
1, 43570, Note_on_c, 0, 52, 62
1, 43581, Control_c, 0, 64, 87
1, 43592, Note_off_c, 0, 45, 57
1, 43596, Control_c, 0, 64, 85
1, 43597, Note_on_c, 0, 36, 74
1, 43611, Control_c, 0, 64, 80
1, 43625, Control_c, 0, 64, 70
1, 43640, Control_c, 0, 64, 0
1, 43654, Note_off_c, 0, 52, 60
1, 43663, Note_on_c, 0, 45, 76
1, 43699, Control_c, 0, 64, 22
1, 43709, Note_on_c, 0, 46, 76
1, 43714, Control_c, 0, 64, 65
1, 43729, Control_c, 0, 64, 72
1, 43740, Note_on_c, 0, 50, 54
1, 43743, Control_c, 0, 64, 79
1, 43758, Control_c, 0, 64, 86
1, 43773, Control_c, 0, 64, 90
1, 43788, Control_c, 0, 64, 91
1, 43795, Note_off_c, 0, 46, 61
1, 43799, Note_off_c, 0, 45, 58
1, 43803, Control_c, 0, 64, 92
1, 43810, Note_on_c, 0, 58, 80
1, 43824, Note_off_c, 0, 50, 64
1, 43844, Note_off_c, 0, 36, 56
1, 43847, Control_c, 0, 64, 92
1, 43879, Note_on_c, 0, 50, 50
1, 43891, Note_on_c, 0, 46, 77
1, 43914, Control_c, 0, 64, 92
1, 43929, Control_c, 0, 64, 91
1, 43934, Note_on_c, 0, 34, 77
1, 43944, Control_c, 0, 64, 88
1, 43949, Note_off_c, 0, 46, 63
1, 43954, Note_off_c, 0, 58, 49
1, 43958, Note_off_c, 0, 50, 58
1, 43958, Control_c, 0, 64, 80
1, 43973, Control_c, 0, 64, 65
1, 43988, Control_c, 0, 64, 0
1, 43990, Note_on_c, 0, 46, 84
1, 44002, Control_c, 0, 67, 122
1, 44017, Control_c, 0, 67, 109
1, 44032, Control_c, 0, 64, 56
1, 44032, Control_c, 0, 67, 90
1, 44047, Note_on_c, 0, 45, 80
1, 44047, Control_c, 0, 64, 70
1, 44047, Control_c, 0, 67, 66
1, 44062, Control_c, 0, 64, 79
1, 44062, Control_c, 0, 67, 47
1, 44076, Control_c, 0, 64, 92
1, 44076, Control_c, 0, 67, 27
1, 44077, Note_on_c, 0, 52, 68
1, 44091, Control_c, 0, 64, 100
1, 44091, Control_c, 0, 67, 9
1, 44101, Note_off_c, 0, 46, 61
1, 44106, Control_c, 0, 64, 105
1, 44106, Control_c, 0, 67, 0
1, 44121, Control_c, 0, 64, 107
1, 44122, Note_off_c, 0, 45, 61
1, 44133, Note_on_c, 0, 57, 78
1, 44136, Control_c, 0, 64, 109
1, 44150, Control_c, 0, 64, 109
1, 44163, Note_off_c, 0, 52, 61
1, 44165, Control_c, 0, 64, 110
1, 44173, Note_off_c, 0, 34, 62
1, 44180, Control_c, 0, 64, 110
1, 44195, Control_c, 0, 64, 111
1, 44199, Note_on_c, 0, 52, 49
1, 44211, Note_on_c, 0, 45, 79
1, 44231, Note_off_c, 0, 57, 61
1, 44254, Control_c, 0, 64, 109
1, 44262, Note_off_c, 0, 45, 63
1, 44265, Note_on_c, 0, 33, 80
1, 44269, Control_c, 0, 64, 100
1, 44283, Control_c, 0, 64, 85
1, 44299, Control_c, 0, 64, 64
1, 44306, Note_on_c, 0, 45, 78
1, 44314, Control_c, 0, 64, 0
1, 44322, Note_off_c, 0, 52, 64
1, 44354, Note_on_c, 0, 46, 85
1, 44359, Control_c, 0, 64, 63
1, 44373, Control_c, 0, 64, 74
1, 44388, Control_c, 0, 64, 87
1, 44403, Control_c, 0, 64, 102
1, 44409, Note_on_c, 0, 52, 61
1, 44418, Control_c, 0, 64, 110
1, 44433, Control_c, 0, 64, 112
1, 44443, Note_off_c, 0, 46, 62
1, 44447, Control_c, 0, 64, 112
1, 44461, Note_off_c, 0, 33, 64
1, 44466, Note_off_c, 0, 45, 54
1, 44470, Note_on_c, 0, 58, 84
1, 44477, Control_c, 0, 64, 113
1, 44523, Note_on_c, 0, 46, 92
1, 44536, Control_c, 0, 67, 8
1, 44551, Control_c, 0, 67, 9
1, 44566, Control_c, 0, 64, 111
1, 44566, Control_c, 0, 67, 9
1, 44578, Note_off_c, 0, 46, 63
1, 44578, Note_on_c, 0, 31, 83
1, 44580, Control_c, 0, 64, 103
1, 44595, Control_c, 0, 64, 88
1, 44595, Control_c, 0, 67, 10
1, 44610, Note_off_c, 0, 52, 66
1, 44610, Control_c, 0, 64, 66
1, 44610, Control_c, 0, 67, 10
1, 44611, Note_off_c, 0, 58, 62
1, 44633, Control_c, 0, 64, 0
1, 44633, Control_c, 0, 67, 12
1, 44636, Note_on_c, 0, 43, 89
1, 44647, Control_c, 0, 67, 15
1, 44662, Control_c, 0, 67, 20
1, 44677, Control_c, 0, 64, 41
1, 44677, Control_c, 0, 67, 22
1, 44692, Control_c, 0, 64, 70
1, 44692, Control_c, 0, 67, 24
1, 44694, Note_on_c, 0, 49, 74
1, 44706, Control_c, 0, 64, 84
1, 44706, Control_c, 0, 67, 25
1, 44721, Control_c, 0, 64, 104
1, 44721, Control_c, 0, 67, 27
1, 44736, Control_c, 0, 64, 124
1, 44738, Note_on_c, 0, 52, 63
1, 44751, Control_c, 0, 64, 125
1, 44766, Control_c, 0, 67, 26
1, 44773, Note_off_c, 0, 49, 61
1, 44797, Note_off_c, 0, 31, 62
1, 44802, Note_on_c, 0, 61, 80
1, 44807, Note_off_c, 0, 52, 66
1, 44810, Control_c, 0, 67, 26
1, 44823, Note_off_c, 0, 43, 55
1, 44825, Control_c, 0, 67, 26
1, 44855, Control_c, 0, 64, 124
1, 44855, Control_c, 0, 67, 27
1, 44863, Note_on_c, 0, 52, 64
1, 44870, Control_c, 0, 64, 123
1, 44870, Control_c, 0, 67, 28
1, 44884, Note_off_c, 0, 61, 64
1, 44885, Control_c, 0, 64, 118
1, 44885, Control_c, 0, 67, 30
1, 44888, Note_on_c, 0, 49, 69
1, 44899, Control_c, 0, 64, 112
1, 44899, Control_c, 0, 67, 37
1, 44914, Control_c, 0, 64, 103
1, 44914, Control_c, 0, 67, 50
1, 44926, Note_off_c, 0, 52, 65
1, 44929, Control_c, 0, 64, 88
1, 44929, Control_c, 0, 67, 66
1, 44940, Note_off_c, 0, 49, 61
1, 44944, Control_c, 0, 64, 61
1, 44944, Control_c, 0, 67, 83
1, 44956, Note_on_c, 0, 33, 64
1, 44959, Control_c, 0, 64, 0
1, 44959, Control_c, 0, 67, 103
1, 44973, Control_c, 0, 67, 118
1, 44988, Control_c, 0, 67, 127
1, 45005, Note_on_c, 0, 45, 67
1, 45042, Note_on_c, 0, 46, 66
1, 45077, Note_off_c, 0, 45, 64
1, 45090, Note_off_c, 0, 33, 63
1, 45102, Note_on_c, 0, 52, 44
1, 45115, Note_off_c, 0, 46, 61
1, 45134, Note_on_c, 0, 58, 64
1, 45139, Note_off_c, 0, 52, 60
1, 45209, Note_on_c, 0, 46, 61
1, 45216, Note_on_c, 0, 52, 42
1, 45217, Note_off_c, 0, 58, 61
1, 45256, Note_off_c, 0, 46, 63
1, 45275, Note_off_c, 0, 52, 63
1, 45287, Note_on_c, 0, 31, 50
1, 45315, Control_c, 0, 64, 25
1, 45329, Control_c, 0, 64, 50
1, 45344, Control_c, 0, 64, 59
1, 45354, Note_on_c, 0, 43, 58
1, 45359, Control_c, 0, 64, 64
1, 45382, Control_c, 0, 64, 66
1, 45388, Note_on_c, 0, 49, 49
1, 45397, Control_c, 0, 64, 70
1, 45411, Control_c, 0, 64, 76
1, 45425, Note_on_c, 0, 52, 55
1, 45426, Control_c, 0, 64, 83
1, 45441, Control_c, 0, 64, 89
1, 45455, Control_c, 0, 64, 92
1, 45470, Control_c, 0, 64, 93
1, 45485, Control_c, 0, 64, 94
1, 45486, Note_off_c, 0, 31, 41
1, 45487, Note_off_c, 0, 49, 56
1, 45501, Control_c, 0, 64, 94
1, 45507, Note_off_c, 0, 52, 65
1, 45522, Note_on_c, 0, 61, 58
1, 45522, Note_off_c, 0, 43, 37
1, 45560, Control_c, 0, 64, 95
1, 45560, Control_c, 0, 67, 121
1, 45575, Control_c, 0, 67, 108
1, 45577, Note_on_c, 0, 52, 51
1, 45590, Control_c, 0, 67, 97
1, 45604, Control_c, 0, 67, 89
1, 45608, Note_off_c, 0, 61, 58
1, 45616, Note_on_c, 0, 49, 60
1, 45619, Control_c, 0, 67, 84
1, 45634, Control_c, 0, 67, 80
1, 45639, Note_off_c, 0, 52, 63
1, 45645, Note_on_c, 0, 33, 67
1, 45648, Control_c, 0, 64, 94
1, 45648, Control_c, 0, 67, 76
1, 45663, Control_c, 0, 64, 93
1, 45663, Control_c, 0, 67, 69
1, 45678, Control_c, 0, 64, 88
1, 45678, Control_c, 0, 67, 62
1, 45681, Note_off_c, 0, 49, 59
1, 45693, Control_c, 0, 64, 77
1, 45693, Control_c, 0, 67, 56
1, 45708, Control_c, 0, 64, 60
1, 45708, Control_c, 0, 67, 52
1, 45722, Control_c, 0, 64, 0
1, 45722, Control_c, 0, 67, 49
1, 45725, Note_on_c, 0, 45, 68
1, 45737, Control_c, 0, 67, 46
1, 45752, Control_c, 0, 64, 50
1, 45752, Control_c, 0, 67, 42
1, 45767, Control_c, 0, 64, 68
1, 45767, Control_c, 0, 67, 37
1, 45771, Note_on_c, 0, 49, 68
1, 45782, Control_c, 0, 64, 75
1, 45782, Control_c, 0, 67, 34
1, 45797, Control_c, 0, 64, 84
1, 45797, Control_c, 0, 67, 30
1, 45812, Control_c, 0, 64, 89
1, 45812, Control_c, 0, 67, 27
1, 45816, Note_on_c, 0, 54, 58
1, 45827, Control_c, 0, 64, 91
1, 45827, Control_c, 0, 67, 21
1, 45841, Control_c, 0, 64, 93
1, 45841, Control_c, 0, 67, 12
1, 45850, Note_off_c, 0, 49, 61
1, 45856, Control_c, 0, 64, 93
1, 45856, Control_c, 0, 67, 0
1, 45871, Control_c, 0, 64, 94
1, 45871, Note_off_c, 0, 54, 60
1, 45873, Note_on_c, 0, 61, 72
1, 45886, Control_c, 0, 64, 94
1, 45939, Note_on_c, 0, 54, 58
1, 45958, Note_off_c, 0, 33, 55
1, 45970, Note_off_c, 0, 45, 62
1, 45974, Note_on_c, 0, 49, 70
1, 45976, Control_c, 0, 64, 94
1, 45990, Control_c, 0, 64, 89
1, 46005, Control_c, 0, 64, 76
1, 46011, Note_off_c, 0, 54, 60
1, 46017, Note_on_c, 0, 34, 71
1, 46017, Note_off_c, 0, 61, 37
1, 46020, Control_c, 0, 64, 50
1, 46035, Control_c, 0, 64, 0
1, 46047, Note_off_c, 0, 49, 60
1, 46079, Control_c, 0, 64, 58
1, 46092, Note_on_c, 0, 46, 83
1, 46094, Control_c, 0, 64, 69
1, 46109, Control_c, 0, 64, 79
1, 46131, Control_c, 0, 64, 90
1, 46137, Note_on_c, 0, 49, 73
1, 46146, Control_c, 0, 64, 98
1, 46160, Control_c, 0, 64, 103
1, 46175, Control_c, 0, 64, 106
1, 46190, Control_c, 0, 64, 110
1, 46205, Control_c, 0, 64, 115
1, 46211, Note_on_c, 0, 55, 59
1, 46220, Control_c, 0, 64, 120
1, 46225, Note_off_c, 0, 49, 62
1, 46235, Control_c, 0, 64, 122
1, 46248, Note_on_c, 0, 61, 71
1, 46248, Note_off_c, 0, 34, 63
1, 46250, Control_c, 0, 64, 124
1, 46255, Note_off_c, 0, 55, 64
1, 46265, Control_c, 0, 64, 125
1, 46277, Note_off_c, 0, 46, 57
1, 46279, Control_c, 0, 64, 126
1, 46324, Note_on_c, 0, 55, 66
1, 46353, Control_c, 0, 64, 124
1, 46354, Note_off_c, 0, 61, 58
1, 46358, Note_on_c, 0, 49, 75
1, 46368, Control_c, 0, 64, 115
1, 46383, Control_c, 0, 64, 104
1, 46387, Note_off_c, 0, 55, 63
1, 46389, Note_on_c, 0, 33, 70
1, 46398, Control_c, 0, 64, 90
1, 46413, Control_c, 0, 64, 75
1, 46420, Note_off_c, 0, 49, 61
1, 46427, Control_c, 0, 64, 57
1, 46442, Control_c, 0, 64, 0
1, 46449, Note_on_c, 0, 45, 85
1, 46450, Note_on_c, 0, 38, 30
1, 46486, Control_c, 0, 64, 56
1, 46501, Control_c, 0, 64, 70
1, 46503, Note_off_c, 0, 38, 43
1, 46506, Note_on_c, 0, 49, 76
1, 46516, Control_c, 0, 64, 83
1, 46531, Control_c, 0, 64, 101
1, 46545, Control_c, 0, 64, 117
1, 46560, Control_c, 0, 64, 123
1, 46568, Note_on_c, 0, 57, 50
1, 46575, Control_c, 0, 64, 125
1, 46579, Note_off_c, 0, 49, 61
1, 46590, Control_c, 0, 64, 126
1, 46604, Note_off_c, 0, 45, 60
1, 46605, Control_c, 0, 64, 126
1, 46606, Note_off_c, 0, 33, 63
1, 46611, Note_on_c, 0, 61, 71
1, 46664, Control_c, 0, 64, 126
1, 46679, Control_c, 0, 64, 125
1, 46694, Control_c, 0, 64, 123
1, 46697, Note_on_c, 0, 49, 70
1, 46699, Note_off_c, 0, 61, 63
1, 46709, Control_c, 0, 64, 119
1, 46724, Control_c, 0, 64, 116
1, 46727, Poly_aftertouch_c, 0, 56, 0
1, 46739, Control_c, 0, 64, 113
1, 46741, Note_off_c, 0, 57, 58
1, 46754, Control_c, 0, 64, 109
1, 46762, Note_on_c, 0, 30, 69
1, 46768, Control_c, 0, 64, 103
1, 46772, Note_off_c, 0, 49, 62
1, 46783, Control_c, 0, 64, 92
1, 46788, Poly_aftertouch_c, 0, 38, 127
1, 46798, Control_c, 0, 64, 75
1, 46813, Control_c, 0, 64, 0
1, 46816, Note_on_c, 0, 42, 88
1, 46873, Note_on_c, 0, 49, 75
1, 46888, Poly_aftertouch_c, 0, 38, 0
1, 46894, Control_c, 0, 64, 62
1, 46909, Control_c, 0, 64, 75
1, 46924, Control_c, 0, 64, 90
1, 46939, Control_c, 0, 64, 107
1, 46954, Control_c, 0, 64, 115
1, 46956, Note_on_c, 0, 58, 58
1, 46969, Control_c, 0, 64, 116
1, 46976, Note_off_c, 0, 49, 56
1, 46983, Control_c, 0, 64, 117
1, 47007, Note_on_c, 0, 61, 61
1, 47052, Note_off_c, 0, 30, 62
1, 47055, Note_off_c, 0, 58, 0
1, 47070, Note_on_c, 0, 58, 34
1, 47098, Note_off_c, 0, 42, 61
1, 47102, Control_c, 0, 64, 116
1, 47117, Control_c, 0, 64, 115
1, 47120, Note_off_c, 0, 61, 59
1, 47132, Control_c, 0, 64, 113
1, 47147, Control_c, 0, 64, 111
1, 47158, Note_on_c, 0, 49, 59
1, 47158, Note_off_c, 0, 58, 64
1, 47162, Control_c, 0, 64, 105
1, 47168, Note_on_c, 0, 33, 64
1, 47176, Control_c, 0, 64, 97
1, 47191, Control_c, 0, 64, 85
1, 47200, Note_off_c, 0, 49, 58
1, 47206, Control_c, 0, 64, 70
1, 47220, Control_c, 0, 64, 0
1, 47223, Note_on_c, 0, 45, 70
1, 47282, Note_on_c, 0, 49, 63
1, 47324, Control_c, 0, 64, 65
1, 47329, Note_on_c, 0, 57, 46
1, 47339, Control_c, 0, 64, 73
1, 47350, Note_off_c, 0, 49, 58
1, 47354, Control_c, 0, 64, 80
1, 47368, Control_c, 0, 64, 81
1, 47372, Note_off_c, 0, 33, 63
1, 47374, Note_off_c, 0, 45, 61
1, 47375, Note_on_c, 0, 61, 55
1, 47383, Control_c, 0, 64, 78
1, 47398, Control_c, 0, 64, 70
1, 47413, Control_c, 0, 64, 0
1, 47427, Note_off_c, 0, 57, 0
1, 47448, Note_on_c, 0, 57, 23
1, 47460, Note_off_c, 0, 61, 58
1, 47499, Note_off_c, 0, 57, 61
1, 47502, Note_on_c, 0, 49, 45
1, 47533, Note_on_c, 0, 30, 58
1, 47548, Note_off_c, 0, 49, 58
1, 47591, Control_c, 0, 64, 48
1, 47606, Control_c, 0, 64, 67
1, 47609, Note_on_c, 0, 42, 57
1, 47629, Control_c, 0, 64, 71
1, 47643, Control_c, 0, 64, 76
1, 47652, Note_on_c, 0, 49, 54
1, 47658, Control_c, 0, 64, 81
1, 47673, Control_c, 0, 64, 85
1, 47688, Control_c, 0, 64, 88
1, 47703, Control_c, 0, 64, 91
1, 47717, Control_c, 0, 64, 94
1, 47729, Note_off_c, 0, 30, 55
1, 47730, Note_on_c, 0, 58, 46
1, 47731, Note_off_c, 0, 49, 56
1, 47732, Control_c, 0, 64, 97
1, 47747, Control_c, 0, 64, 99
1, 47762, Control_c, 0, 64, 101
1, 47764, Note_off_c, 0, 58, 58
1, 47776, Note_on_c, 0, 61, 49
1, 47777, Control_c, 0, 64, 102
1, 47779, Note_off_c, 0, 42, 58
1, 47821, Control_c, 0, 64, 102
1, 47842, Note_on_c, 0, 58, 47
1, 47853, Note_off_c, 0, 61, 58
1, 47887, Note_on_c, 0, 49, 55
1, 47893, Note_off_c, 0, 58, 59
1, 47895, Control_c, 0, 64, 102
1, 47910, Control_c, 0, 64, 101
1, 47919, Note_on_c, 0, 33, 77
1, 47925, Control_c, 0, 64, 98
1, 47938, Note_off_c, 0, 49, 52
1, 47940, Control_c, 0, 64, 90
1, 47955, Control_c, 0, 64, 76
1, 47970, Control_c, 0, 64, 50
1, 47985, Control_c, 0, 64, 0
1, 47986, Note_on_c, 0, 45, 66
1, 48014, Control_c, 0, 64, 64
1, 48029, Control_c, 0, 64, 75
1, 48034, Note_on_c, 0, 49, 66
1, 48043, Control_c, 0, 64, 88
1, 48058, Control_c, 0, 64, 101
1, 48073, Control_c, 0, 64, 108
1, 48088, Control_c, 0, 64, 111
1, 48092, Note_on_c, 0, 57, 55
1, 48101, Note_off_c, 0, 49, 61
1, 48103, Control_c, 0, 64, 112
1, 48135, Note_off_c, 0, 57, 60
1, 48137, Note_off_c, 0, 45, 38
1, 48143, Note_on_c, 0, 61, 58
1, 48175, Note_off_c, 0, 33, 58
1, 48191, Control_c, 0, 64, 112
1, 48195, Note_on_c, 0, 57, 59
1, 48230, Note_off_c, 0, 61, 62
1, 48237, Note_on_c, 0, 49, 67
1, 48263, Note_off_c, 0, 57, 61
1, 48265, Control_c, 0, 64, 112
1, 48280, Control_c, 0, 64, 110
1, 48296, Control_c, 0, 64, 103
1, 48297, Note_off_c, 0, 49, 59
1, 48302, Note_on_c, 0, 34, 93
1, 48311, Control_c, 0, 64, 89
1, 48326, Control_c, 0, 64, 72
1, 48340, Control_c, 0, 64, 0
1, 48372, Note_on_c, 0, 46, 77
1, 48378, Control_c, 0, 64, 58
1, 48393, Control_c, 0, 64, 71
1, 48408, Control_c, 0, 64, 82
1, 48410, Note_on_c, 0, 49, 71
1, 48422, Control_c, 0, 64, 93
1, 48437, Control_c, 0, 64, 99
1, 48452, Control_c, 0, 64, 101
1, 48459, Note_on_c, 0, 55, 62
1, 48466, Control_c, 0, 64, 102
1, 48481, Control_c, 0, 64, 103
1, 48482, Note_off_c, 0, 34, 63
1, 48483, Note_off_c, 0, 49, 60
1, 48488, Note_off_c, 0, 46, 61
1, 48511, Note_off_c, 0, 55, 62
1, 48515, Note_on_c, 0, 61, 66
1, 48571, Note_on_c, 0, 55, 55
1, 48599, Note_off_c, 0, 61, 63
1, 48625, Note_on_c, 0, 49, 70
1, 48651, Note_off_c, 0, 55, 62
1, 48659, Control_c, 0, 64, 102
1, 48673, Control_c, 0, 64, 95
1, 48677, Note_on_c, 0, 33, 95
1, 48682, Note_off_c, 0, 49, 61
1, 48688, Control_c, 0, 64, 80
1, 48703, Control_c, 0, 64, 57
1, 48718, Note_on_c, 0, 35, 29
1, 48719, Note_off_c, 0, 35, 127
1, 48719, Control_c, 0, 64, 0
1, 48748, Note_on_c, 0, 45, 76
1, 48748, Control_c, 0, 64, 23
1, 48763, Control_c, 0, 64, 70
1, 48773, Note_on_c, 0, 49, 71
1, 48778, Control_c, 0, 64, 80
1, 48793, Control_c, 0, 64, 93
1, 48807, Control_c, 0, 64, 101
1, 48822, Control_c, 0, 64, 103
1, 48824, Note_off_c, 0, 45, 62
1, 48838, Note_off_c, 0, 33, 59
1, 48840, Note_on_c, 0, 53, 58
1, 48867, Note_off_c, 0, 49, 61
1, 48891, Note_on_c, 0, 61, 71
1, 48894, Note_off_c, 0, 53, 64
1, 48952, Note_on_c, 0, 53, 66
1, 48983, Note_on_c, 0, 49, 73
1, 48985, Note_off_c, 0, 61, 62
1, 49019, Note_off_c, 0, 53, 65
1, 49044, Control_c, 0, 64, 102
1, 49055, Note_on_c, 0, 31, 100
1, 49055, Note_off_c, 0, 49, 61
1, 49059, Control_c, 0, 64, 98
1, 49073, Control_c, 0, 64, 90
1, 49089, Control_c, 0, 64, 73
1, 49104, Control_c, 0, 64, 0
1, 49152, Note_on_c, 0, 43, 74
1, 49156, Control_c, 0, 64, 60
1, 49171, Control_c, 0, 64, 72
1, 49172, Note_on_c, 0, 49, 74
1, 49186, Control_c, 0, 64, 85
1, 49201, Control_c, 0, 64, 100
1, 49206, Note_on_c, 0, 55, 62
1, 49213, Note_off_c, 0, 31, 60
1, 49216, Control_c, 0, 64, 110
1, 49231, Note_off_c, 0, 43, 57
1, 49231, Control_c, 0, 64, 111
1, 49247, Note_off_c, 0, 49, 62
1, 49267, Note_on_c, 0, 61, 78
1, 49278, Note_off_c, 0, 55, 64
1, 49304, Control_c, 0, 64, 112
1, 49319, Control_c, 0, 64, 113
1, 49326, Note_on_c, 0, 55, 61
1, 49334, Control_c, 0, 64, 113
1, 49349, Control_c, 0, 64, 114
1, 49363, Control_c, 0, 64, 117
1, 49366, Note_off_c, 0, 61, 62
1, 49368, Note_on_c, 0, 49, 81
1, 49378, Control_c, 0, 64, 120
1, 49393, Control_c, 0, 64, 123
1, 49407, Note_off_c, 0, 55, 63
1, 49408, Control_c, 0, 64, 123
1, 49436, Note_off_c, 0, 49, 57
1, 49442, Note_on_c, 0, 29, 101
1, 49452, Control_c, 0, 64, 115
1, 49467, Control_c, 0, 64, 100
1, 49482, Control_c, 0, 64, 82
1, 49490, Note_on_c, 0, 31, 36
1, 49496, Control_c, 0, 64, 63
1, 49511, Control_c, 0, 64, 0
1, 49538, Note_on_c, 0, 49, 74
1, 49541, Control_c, 0, 64, 56
1, 49548, Note_on_c, 0, 41, 76
1, 49556, Control_c, 0, 64, 72
1, 49571, Control_c, 0, 64, 86
1, 49585, Control_c, 0, 64, 105
1, 49600, Control_c, 0, 64, 127
1, 49606, Note_on_c, 0, 57, 57
1, 49609, Note_off_c, 0, 41, 65
1, 49618, Note_off_c, 0, 31, 42
1, 49619, Note_off_c, 0, 29, 58
1, 49622, Note_off_c, 0, 49, 61
1, 49652, Note_on_c, 0, 61, 75
1, 49757, Note_off_c, 0, 61, 58
1, 49761, Note_on_c, 0, 49, 78
1, 49798, Note_off_c, 0, 57, 61
1, 49807, Control_c, 0, 64, 119
1, 49822, Control_c, 0, 64, 105
1, 49832, Note_on_c, 0, 28, 107
1, 49837, Control_c, 0, 64, 86
1, 49849, Note_off_c, 0, 49, 49
1, 49852, Control_c, 0, 64, 64
1, 49875, Control_c, 0, 64, 0
1, 49964, Control_c, 0, 64, 65
1, 49971, Note_on_c, 0, 49, 5
1, 49979, Control_c, 0, 64, 75
1, 49989, Note_on_c, 0, 40, 69
1, 49994, Control_c, 0, 64, 87
1, 50009, Control_c, 0, 64, 102
1, 50024, Control_c, 0, 64, 109
1, 50039, Control_c, 0, 64, 112
1, 50049, Note_on_c, 0, 58, 57
1, 50053, Control_c, 0, 64, 115
1, 50060, Note_off_c, 0, 40, 63
1, 50068, Control_c, 0, 64, 119
1, 50069, Note_off_c, 0, 49, 52
1, 50083, Control_c, 0, 64, 123
1, 50089, Note_on_c, 0, 61, 69
1, 50089, Note_off_c, 0, 28, 58
1, 50098, Control_c, 0, 64, 127
1, 50180, Note_on_c, 0, 49, 72
1, 50197, Note_off_c, 0, 61, 57
1, 50241, Note_off_c, 0, 58, 57
1, 50245, Control_c, 0, 64, 125
1, 50260, Control_c, 0, 64, 110
1, 50267, Note_off_c, 0, 49, 59
1, 50275, Control_c, 0, 64, 92
1, 50290, Note_on_c, 0, 26, 102
1, 50290, Control_c, 0, 64, 67
1, 50305, Control_c, 0, 64, 0
1, 50408, Note_on_c, 0, 50, 48
1, 50408, Control_c, 0, 64, 58
1, 50423, Control_c, 0, 64, 68
1, 50435, Note_on_c, 0, 38, 66
1, 50438, Control_c, 0, 64, 74
1, 50446, Note_off_c, 0, 26, 62
1, 50453, Control_c, 0, 64, 80
1, 50467, Note_on_c, 0, 53, 58
1, 50468, Control_c, 0, 64, 86
1, 50483, Note_off_c, 0, 38, 64
1, 50483, Control_c, 0, 64, 90
1, 50498, Control_c, 0, 64, 93
1, 50510, Note_off_c, 0, 50, 61
1, 50512, Control_c, 0, 64, 95
1, 50527, Control_c, 0, 64, 99
1, 50533, Note_off_c, 0, 53, 65
1, 50539, Note_on_c, 0, 62, 66
1, 50542, Control_c, 0, 64, 104
1, 50557, Control_c, 0, 64, 109
1, 50572, Control_c, 0, 64, 116
1, 50586, Control_c, 0, 64, 122
1, 50588, Note_on_c, 0, 53, 59
1, 50597, Note_on_c, 0, 50, 65
1, 50601, Control_c, 0, 64, 127
1, 50604, Note_off_c, 0, 62, 59
1, 50638, Note_off_c, 0, 50, 66
1, 50678, Note_off_c, 0, 53, 65
1, 50682, Note_on_c, 0, 62, 69
1, 50699, Note_on_c, 0, 50, 69
1, 50724, Note_off_c, 0, 62, 62
1, 50791, Note_on_c, 0, 57, 68
1, 50806, Note_on_c, 0, 62, 57
1, 50808, Note_off_c, 0, 50, 64
1, 50808, Note_on_c, 0, 60, 44
1, 50818, Note_off_c, 0, 57, 64
1, 50845, Note_off_c, 0, 60, 62
1, 50846, Note_off_c, 0, 62, 60
1, 50852, Note_on_c, 0, 64, 52
1, 50861, Note_on_c, 0, 65, 56
1, 50882, Note_off_c, 0, 65, 65
1, 50885, Note_off_c, 0, 64, 66
1, 50903, Note_on_c, 0, 74, 56
1, 50921, Note_on_c, 0, 72, 47
1, 50948, Note_off_c, 0, 72, 51
1, 50951, Note_on_c, 0, 65, 79
1, 50964, Note_off_c, 0, 74, 64
1, 50966, Note_on_c, 0, 62, 67
1, 50997, Note_off_c, 0, 62, 64
1, 51041, Note_off_c, 0, 65, 64
1, 51048, Note_on_c, 0, 74, 67
1, 51066, Note_on_c, 0, 62, 59
1, 51074, Note_off_c, 0, 74, 64
1, 51138, Note_on_c, 0, 69, 68
1, 51147, Note_off_c, 0, 62, 58
1, 51156, Note_on_c, 0, 74, 60
1, 51170, Note_off_c, 0, 69, 64
1, 51207, Note_on_c, 0, 77, 75
1, 51228, Note_off_c, 0, 74, 63
1, 51260, Note_off_c, 0, 77, 62
1, 51270, Note_on_c, 0, 86, 66
1, 51324, Note_off_c, 0, 86, 56
1, 51344, Note_on_c, 0, 77, 61
1, 51349, Note_on_c, 0, 74, 32
1, 51354, Note_on_c, 0, 79, 53
1, 51386, Note_off_c, 0, 74, 52
1, 51424, Note_off_c, 0, 77, 59
1, 51431, Note_on_c, 0, 86, 65
1, 51441, Note_off_c, 0, 79, 51
1, 51462, Note_off_c, 0, 86, 61
1, 51499, Note_on_c, 0, 74, 41
1, 51522, Note_on_c, 0, 86, 70
1, 51621, Note_on_c, 0, 89, 72
1, 51633, Note_off_c, 0, 86, 53
1, 51640, Note_on_c, 0, 81, 53
1, 51779, Note_off_c, 0, 81, 34
1, 51800, Note_on_c, 0, 98, 88
1, 51914, Note_off_c, 0, 74, 38
1, 51928, Note_off_c, 0, 89, 62
1, 51958, Note_on_c, 0, 81, 49
1, 52054, Note_off_c, 0, 81, 49
1, 52079, Note_on_c, 0, 74, 40
1, 52148, Note_off_c, 0, 74, 43
1, 52191, Note_on_c, 0, 96, 83
1, 52284, Note_on_c, 0, 74, 23
1, 52292, Note_off_c, 0, 98, 64
1, 52327, Note_off_c, 0, 74, 49
1, 52377, Note_on_c, 0, 69, 40
1, 52489, Note_off_c, 0, 69, 50
1, 52526, Note_on_c, 0, 94, 80
1, 52570, Note_on_c, 0, 62, 31
1, 52581, Note_off_c, 0, 96, 61
1, 52662, Note_on_c, 0, 69, 43
1, 52702, Note_off_c, 0, 62, 38
1, 52720, Note_off_c, 0, 69, 61
1, 52763, Note_on_c, 0, 74, 42
1, 52773, Control_c, 0, 64, 126
1, 52773, Control_c, 0, 67, 12
1, 52787, Control_c, 0, 64, 125
1, 52787, Control_c, 0, 67, 19
1, 52802, Control_c, 0, 64, 125
1, 52802, Control_c, 0, 67, 27
1, 52810, Note_off_c, 0, 74, 48
1, 52817, Control_c, 0, 64, 124
1, 52817, Control_c, 0, 67, 33
1, 52832, Control_c, 0, 64, 123
1, 52832, Control_c, 0, 67, 38
1, 52847, Control_c, 0, 64, 122
1, 52847, Control_c, 0, 67, 39
1, 52869, Control_c, 0, 67, 39
1, 52871, Note_on_c, 0, 69, 41
1, 52884, Control_c, 0, 64, 122
1, 52884, Control_c, 0, 67, 41
1, 52890, Note_on_c, 0, 93, 83
1, 52899, Control_c, 0, 64, 121
1, 52899, Control_c, 0, 67, 47
1, 52913, Control_c, 0, 64, 121
1, 52913, Control_c, 0, 67, 58
1, 52915, Note_off_c, 0, 94, 57
1, 52923, Note_off_c, 0, 69, 57
1, 52928, Control_c, 0, 64, 120
1, 52928, Control_c, 0, 67, 72
1, 52943, Control_c, 0, 64, 119
1, 52943, Control_c, 0, 67, 84
1, 52958, Control_c, 0, 64, 119
1, 52958, Control_c, 0, 67, 94
1, 52972, Note_on_c, 0, 62, 19
1, 52973, Control_c, 0, 67, 97
1, 52987, Control_c, 0, 67, 97
1, 53002, Control_c, 0, 67, 95
1, 53032, Control_c, 0, 64, 118
1, 53041, Note_off_c, 0, 62, 0
1, 53054, Note_on_c, 0, 62, 29
1, 53076, Control_c, 0, 67, 94
1, 53092, Control_c, 0, 67, 93
1, 53124, Note_off_c, 0, 62, 40
1, 53153, Note_on_c, 0, 57, 39
1, 53225, Control_c, 0, 67, 92
1, 53228, Note_off_c, 0, 57, 45
1, 53240, Control_c, 0, 67, 92
1, 53255, Control_c, 0, 67, 91
1, 53270, Control_c, 0, 67, 91
1, 53282, Note_on_c, 0, 50, 44
1, 53300, Control_c, 0, 67, 90
1, 53344, Control_c, 0, 67, 90
1, 53383, Note_on_c, 0, 57, 45
1, 53389, Control_c, 0, 67, 89
1, 53434, Note_off_c, 0, 50, 39
1, 53448, Control_c, 0, 67, 89
1, 53451, Note_off_c, 0, 57, 59
1, 53474, Note_on_c, 0, 91, 78
1, 53490, Note_off_c, 0, 93, 56
1, 53491, Note_on_c, 0, 62, 32
1, 53492, Control_c, 0, 67, 88
1, 53536, Note_off_c, 0, 62, 37
1, 53574, Note_on_c, 0, 62, 45
1, 53580, Control_c, 0, 67, 88
1, 53618, Control_c, 0, 67, 88
1, 53662, Control_c, 0, 67, 89
1, 53667, Note_on_c, 0, 69, 48
1, 53690, Note_off_c, 0, 62, 43
1, 53692, Control_c, 0, 67, 89
1, 53708, Note_off_c, 0, 69, 65
1, 53723, Note_on_c, 0, 89, 86
1, 53750, Note_on_c, 0, 74, 58
1, 53758, Note_off_c, 0, 91, 60
1, 53795, Note_off_c, 0, 74, 62
1, 53840, Control_c, 0, 67, 89
1, 53842, Note_on_c, 0, 69, 50
1, 53872, Note_on_c, 0, 62, 61
1, 53877, Note_off_c, 0, 69, 67
1, 53900, Control_c, 0, 64, 118
1, 53906, Note_off_c, 0, 62, 62
1, 53915, Control_c, 0, 64, 117
1, 53930, Control_c, 0, 64, 117
1, 53959, Control_c, 0, 64, 116
1, 53973, Note_on_c, 0, 88, 88
1, 53974, Control_c, 0, 64, 116
1, 53985, Note_on_c, 0, 62, 52
1, 53989, Control_c, 0, 64, 115
1, 53989, Control_c, 0, 67, 89
1, 54004, Control_c, 0, 64, 115
1, 54018, Note_off_c, 0, 62, 49
1, 54019, Control_c, 0, 64, 114
1, 54026, Note_off_c, 0, 89, 67
1, 54033, Control_c, 0, 64, 113
1, 54048, Control_c, 0, 64, 112
1, 54048, Control_c, 0, 67, 90
1, 54057, Note_on_c, 0, 57, 54
1, 54063, Control_c, 0, 64, 111
1, 54078, Control_c, 0, 64, 109
1, 54078, Control_c, 0, 67, 90
1, 54093, Control_c, 0, 64, 106
1, 54107, Control_c, 0, 64, 100
1, 54122, Control_c, 0, 64, 93
1, 54122, Control_c, 0, 67, 91
1, 54137, Control_c, 0, 64, 84
1, 54141, Note_off_c, 0, 57, 61
1, 54152, Control_c, 0, 64, 72
1, 54164, Note_on_c, 0, 50, 55
1, 54167, Control_c, 0, 64, 50
1, 54167, Control_c, 0, 67, 91
1, 54182, Control_c, 0, 64, 0
1, 54197, Control_c, 0, 67, 92
1, 54241, Control_c, 0, 64, 61
1, 54241, Control_c, 0, 67, 92
1, 54256, Control_c, 0, 64, 67
1, 54256, Control_c, 0, 67, 93
1, 54271, Note_on_c, 0, 58, 60
1, 54271, Control_c, 0, 64, 71
1, 54285, Control_c, 0, 64, 76
1, 54296, Note_off_c, 0, 50, 61
1, 54300, Control_c, 0, 64, 81
1, 54315, Control_c, 0, 64, 83
1, 54315, Control_c, 0, 67, 93
1, 54330, Control_c, 0, 64, 85
1, 54330, Control_c, 0, 67, 94
1, 54339, Note_off_c, 0, 58, 63
1, 54345, Control_c, 0, 64, 87
1, 54349, Note_on_c, 0, 62, 52
1, 54367, Control_c, 0, 64, 89
1, 54367, Control_c, 0, 67, 94
1, 54380, Note_off_c, 0, 62, 58
1, 54382, Control_c, 0, 64, 91
1, 54397, Control_c, 0, 64, 92
1, 54411, Control_c, 0, 64, 93
1, 54426, Control_c, 0, 64, 94
1, 54429, Note_on_c, 0, 86, 78
1, 54441, Control_c, 0, 64, 94
1, 54471, Control_c, 0, 64, 95
1, 54529, Control_c, 0, 67, 95
1, 54538, Note_off_c, 0, 88, 50
1, 54544, Control_c, 0, 67, 95
1, 54545, Poly_aftertouch_c, 0, 62, 127
1, 54548, Note_on_c, 0, 70, 58
1, 54558, Poly_aftertouch_c, 0, 64, 127
1, 54615, Poly_aftertouch_c, 0, 62, 0
1, 54620, Poly_aftertouch_c, 0, 64, 0
1, 54622, Note_off_c, 0, 70, 60
1, 54632, Control_c, 0, 67, 96
1, 54659, Note_on_c, 0, 74, 49
1, 54701, Note_on_c, 0, 84, 72
1, 54722, Control_c, 0, 67, 95
1, 54743, Note_off_c, 0, 74, 58
1, 54750, Note_off_c, 0, 86, 63
1, 54752, Control_c, 0, 67, 95
1, 54772, Note_on_c, 0, 70, 51
1, 54796, Control_c, 0, 67, 94
1, 54813, Note_off_c, 0, 70, 64
1, 54833, Note_on_c, 0, 62, 50
1, 54875, Note_off_c, 0, 62, 61
1, 54915, Control_c, 0, 64, 94
1, 54969, Note_on_c, 0, 82, 70
1, 54971, Note_on_c, 0, 62, 49
1, 55019, Control_c, 0, 67, 95
1, 55021, Note_off_c, 0, 84, 61
1, 55022, Note_off_c, 0, 62, 44
1, 55033, Control_c, 0, 67, 95
1, 55048, Control_c, 0, 64, 94
1, 55063, Control_c, 0, 67, 96
1, 55078, Note_on_c, 0, 58, 45
1, 55093, Control_c, 0, 64, 93
1, 55093, Control_c, 0, 67, 96
1, 55130, Control_c, 0, 64, 93
1, 55138, Note_off_c, 0, 58, 48
1, 55145, Control_c, 0, 64, 92
1, 55159, Control_c, 0, 64, 91
1, 55174, Control_c, 0, 64, 89
1, 55189, Control_c, 0, 64, 83
1, 55189, Control_c, 0, 67, 96
1, 55204, Control_c, 0, 64, 73
1, 55204, Control_c, 0, 67, 95
1, 55209, Note_on_c, 0, 50, 36
1, 55219, Control_c, 0, 64, 60
1, 55234, Control_c, 0, 64, 0
1, 55249, Control_c, 0, 67, 95
1, 55264, Control_c, 0, 67, 94
1, 55294, Control_c, 0, 64, 56
1, 55308, Control_c, 0, 64, 66
1, 55323, Control_c, 0, 64, 71
1, 55323, Control_c, 0, 67, 94
1, 55330, Note_on_c, 0, 57, 40
1, 55338, Control_c, 0, 64, 77
1, 55353, Control_c, 0, 64, 84
1, 55368, Control_c, 0, 64, 87
1, 55369, Note_off_c, 0, 50, 49
1, 55382, Control_c, 0, 64, 88
1, 55397, Control_c, 0, 64, 89
1, 55406, Note_off_c, 0, 57, 55
1, 55412, Control_c, 0, 64, 89
1, 55427, Control_c, 0, 64, 90
1, 55431, Note_on_c, 0, 62, 43
1, 55441, Control_c, 0, 64, 90
1, 55456, Control_c, 0, 67, 94
1, 55458, Note_off_c, 0, 62, 57
1, 55463, Note_on_c, 0, 81, 70
1, 55471, Control_c, 0, 64, 91
1, 55517, Note_off_c, 0, 82, 58
1, 55550, Note_on_c, 0, 62, 56
1, 55648, Note_off_c, 0, 62, 51
1, 55702, Note_on_c, 0, 69, 10
1, 55762, Note_off_c, 0, 69, 48
1, 55768, Note_on_c, 0, 79, 68
1, 55800, Note_off_c, 0, 81, 56
1, 55805, Note_on_c, 0, 74, 34
1, 55864, Control_c, 0, 67, 95
1, 55870, Note_off_c, 0, 74, 45
1, 55879, Control_c, 0, 67, 96
1, 55894, Control_c, 0, 67, 97
1, 55905, Note_on_c, 0, 69, 36
1, 55909, Control_c, 0, 67, 98
1, 55924, Control_c, 0, 67, 99
1, 55938, Control_c, 0, 67, 103
1, 55953, Control_c, 0, 67, 109
1, 55965, Note_off_c, 0, 69, 58
1, 55968, Control_c, 0, 67, 113
1, 55982, Control_c, 0, 64, 90
1, 55984, Note_on_c, 0, 62, 41
1, 56022, Note_off_c, 0, 62, 52
1, 56042, Note_on_c, 0, 77, 66
1, 56072, Control_c, 0, 67, 112
1, 56074, Note_off_c, 0, 79, 58
1, 56087, Control_c, 0, 67, 111
1, 56102, Control_c, 0, 64, 90
1, 56102, Control_c, 0, 67, 111
1, 56117, Control_c, 0, 67, 110
1, 56131, Control_c, 0, 67, 110
1, 56140, Note_on_c, 0, 62, 18
1, 56146, Control_c, 0, 67, 109
1, 56161, Control_c, 0, 64, 89
1, 56161, Control_c, 0, 67, 108
1, 56191, Note_off_c, 0, 62, 45
1, 56220, Control_c, 0, 67, 107
1, 56221, Note_on_c, 0, 57, 42
1, 56235, Control_c, 0, 64, 89
1, 56235, Control_c, 0, 67, 107
1, 56280, Control_c, 0, 64, 88
1, 56295, Control_c, 0, 67, 106
1, 56296, Note_off_c, 0, 57, 44
1, 56310, Control_c, 0, 64, 88
1, 56325, Control_c, 0, 64, 87
1, 56325, Control_c, 0, 67, 106
1, 56340, Control_c, 0, 64, 85
1, 56349, Note_on_c, 0, 76, 62
1, 56354, Control_c, 0, 64, 82
1, 56369, Control_c, 0, 64, 77
1, 56369, Control_c, 0, 67, 105
1, 56384, Control_c, 0, 64, 69
1, 56384, Control_c, 0, 67, 105
1, 56391, Note_off_c, 0, 77, 59
1, 56399, Control_c, 0, 64, 60
1, 56407, Note_on_c, 0, 50, 28
1, 56413, Control_c, 0, 64, 0
1, 56428, Control_c, 0, 67, 104
1, 56487, Control_c, 0, 64, 29
1, 56502, Control_c, 0, 64, 64
1, 56514, Note_on_c, 0, 58, 46
1, 56517, Control_c, 0, 64, 70
1, 56532, Control_c, 0, 64, 75
1, 56547, Control_c, 0, 64, 80
1, 56561, Control_c, 0, 64, 83
1, 56561, Control_c, 0, 67, 103
1, 56567, Note_off_c, 0, 50, 37
1, 56576, Control_c, 0, 64, 84
1, 56576, Control_c, 0, 67, 101
1, 56591, Control_c, 0, 64, 86
1, 56591, Control_c, 0, 67, 90
1, 56592, Note_off_c, 0, 58, 61
1, 56613, Note_on_c, 0, 62, 45
1, 56613, Control_c, 0, 64, 87
1, 56613, Control_c, 0, 67, 74
1, 56628, Control_c, 0, 64, 88
1, 56628, Control_c, 0, 67, 60
1, 56639, Note_off_c, 0, 62, 57
1, 56643, Control_c, 0, 64, 89
1, 56643, Control_c, 0, 67, 54
1, 56656, Note_on_c, 0, 74, 67
1, 56658, Control_c, 0, 64, 91
1, 56658, Control_c, 0, 67, 51
1, 56673, Control_c, 0, 64, 94
1, 56673, Control_c, 0, 67, 47
1, 56687, Control_c, 0, 64, 96
1, 56687, Control_c, 0, 67, 42
1, 56695, Note_off_c, 0, 76, 63
1, 56702, Control_c, 0, 64, 97
1, 56702, Control_c, 0, 67, 36
1, 56717, Control_c, 0, 67, 30
1, 56729, Note_on_c, 0, 62, 56
1, 56732, Control_c, 0, 67, 26
1, 56746, Note_off_c, 0, 74, 64
1, 56747, Control_c, 0, 67, 22
1, 56761, Control_c, 0, 67, 19
1, 56776, Control_c, 0, 67, 17
1, 56791, Control_c, 0, 67, 15
1, 56805, Control_c, 0, 67, 13
1, 56808, Note_on_c, 0, 70, 57
1, 56820, Control_c, 0, 67, 12
1, 56835, Control_c, 0, 67, 11
1, 56837, Note_off_c, 0, 62, 44
1, 56850, Control_c, 0, 67, 9
1, 56865, Control_c, 0, 67, 8
1, 56880, Control_c, 0, 67, 0
1, 56892, Note_off_c, 0, 70, 61
1, 56901, Note_on_c, 0, 74, 72
1, 56967, Note_off_c, 0, 74, 65
1, 56998, Control_c, 0, 64, 97
1, 57018, Note_on_c, 0, 70, 56
1, 57038, Note_off_c, 0, 70, 65
1, 57058, Control_c, 0, 64, 96
1, 57059, Note_on_c, 0, 62, 55
1, 57094, Note_off_c, 0, 62, 62
1, 57120, Note_on_c, 0, 76, 77
1, 57185, Note_on_c, 0, 62, 46
1, 57192, Control_c, 0, 64, 96
1, 57236, Note_off_c, 0, 62, 57
1, 57251, Control_c, 0, 64, 95
1, 57267, Note_on_c, 0, 58, 45
1, 57281, Control_c, 0, 64, 95
1, 57310, Control_c, 0, 64, 94
1, 57325, Control_c, 0, 64, 94
1, 57327, Note_off_c, 0, 58, 50
1, 57340, Control_c, 0, 64, 93
1, 57363, Control_c, 0, 64, 91
1, 57378, Control_c, 0, 64, 87
1, 57385, Note_on_c, 0, 79, 75
1, 57392, Control_c, 0, 64, 81
1, 57403, Note_on_c, 0, 50, 46
1, 57407, Control_c, 0, 64, 72
1, 57410, Note_off_c, 0, 76, 65
1, 57422, Control_c, 0, 64, 57
1, 57436, Control_c, 0, 64, 0
1, 57496, Control_c, 0, 64, 39
1, 57510, Control_c, 0, 64, 67
1, 57512, Note_on_c, 0, 57, 47
1, 57525, Control_c, 0, 64, 75
1, 57540, Control_c, 0, 64, 82
1, 57541, Note_off_c, 0, 50, 54
1, 57555, Control_c, 0, 64, 87
1, 57570, Note_off_c, 0, 57, 58
1, 57570, Control_c, 0, 64, 90
1, 57584, Control_c, 0, 64, 91
1, 57599, Control_c, 0, 64, 91
1, 57603, Note_on_c, 0, 62, 39
1, 57633, Note_on_c, 0, 77, 81
1, 57633, Note_off_c, 0, 62, 49
1, 57673, Note_off_c, 0, 79, 62
1, 57713, Note_on_c, 0, 62, 64
1, 57717, Control_c, 0, 64, 92
1, 57753, Note_off_c, 0, 77, 56
1, 57786, Note_on_c, 0, 69, 48
1, 57810, Note_off_c, 0, 62, 51
1, 57852, Note_off_c, 0, 69, 59
1, 57869, Note_on_c, 0, 77, 82
1, 57895, Note_on_c, 0, 74, 50
1, 57911, Control_c, 0, 67, 8
1, 57926, Control_c, 0, 67, 12
1, 57941, Control_c, 0, 67, 17
1, 57947, Note_off_c, 0, 74, 63
1, 57956, Control_c, 0, 67, 23
1, 57971, Control_c, 0, 67, 28
1, 57974, Note_on_c, 0, 69, 58
1, 57986, Control_c, 0, 67, 33
1, 58000, Control_c, 0, 67, 37
1, 58015, Control_c, 0, 67, 41
1, 58030, Control_c, 0, 67, 44
1, 58030, Note_off_c, 0, 69, 64
1, 58033, Note_on_c, 0, 62, 58
1, 58044, Control_c, 0, 67, 45
1, 58059, Control_c, 0, 67, 47
1, 58073, Note_off_c, 0, 62, 61
1, 58074, Control_c, 0, 67, 48
1, 58089, Control_c, 0, 67, 51
1, 58093, Note_on_c, 0, 76, 83
1, 58111, Control_c, 0, 67, 56
1, 58126, Control_c, 0, 67, 59
1, 58141, Control_c, 0, 67, 64
1, 58156, Control_c, 0, 67, 68
1, 58159, Note_on_c, 0, 62, 55
1, 58160, Note_off_c, 0, 77, 59
1, 58170, Control_c, 0, 67, 73
1, 58185, Control_c, 0, 64, 91
1, 58185, Control_c, 0, 67, 78
1, 58200, Note_off_c, 0, 62, 50
1, 58200, Control_c, 0, 67, 84
1, 58215, Control_c, 0, 67, 90
1, 58230, Control_c, 0, 67, 94
1, 58238, Note_on_c, 0, 57, 52
1, 58245, Control_c, 0, 64, 91
1, 58245, Control_c, 0, 67, 96
1, 58276, Note_off_c, 0, 76, 61
1, 58290, Control_c, 0, 64, 90
1, 58290, Control_c, 0, 67, 95
1, 58305, Control_c, 0, 64, 90
1, 58305, Control_c, 0, 67, 94
1, 58310, Note_off_c, 0, 57, 52
1, 58319, Control_c, 0, 64, 89
1, 58319, Control_c, 0, 67, 94
1, 58334, Control_c, 0, 64, 88
1, 58349, Control_c, 0, 64, 87
1, 58361, Note_on_c, 0, 76, 81
1, 58364, Control_c, 0, 64, 84
1, 58378, Note_on_c, 0, 50, 42
1, 58378, Control_c, 0, 64, 78
1, 58393, Control_c, 0, 64, 69
1, 58408, Control_c, 0, 64, 34
1, 58408, Control_c, 0, 67, 94
1, 58423, Control_c, 0, 64, 0
1, 58423, Control_c, 0, 67, 95
1, 58438, Control_c, 0, 67, 95
1, 58464, Note_on_c, 0, 58, 48
1, 58482, Control_c, 0, 64, 47
1, 58497, Control_c, 0, 64, 66
1, 58497, Control_c, 0, 67, 95
1, 58512, Control_c, 0, 64, 74
1, 58512, Control_c, 0, 67, 94
1, 58517, Note_off_c, 0, 50, 57
1, 58526, Control_c, 0, 64, 81
1, 58526, Control_c, 0, 67, 93
1, 58541, Control_c, 0, 64, 86
1, 58552, Note_off_c, 0, 58, 63
1, 58556, Control_c, 0, 64, 89
1, 58564, Note_on_c, 0, 62, 47
1, 58571, Control_c, 0, 64, 91
1, 58585, Control_c, 0, 64, 92
1, 58588, Note_off_c, 0, 62, 58
1, 58600, Control_c, 0, 64, 93
1, 58621, Note_on_c, 0, 74, 74
1, 58638, Note_off_c, 0, 76, 62
1, 58645, Control_c, 0, 67, 94
1, 58690, Control_c, 0, 67, 94
1, 58705, Note_off_c, 0, 74, 62
1, 58735, Control_c, 0, 67, 94
1, 58755, Note_on_c, 0, 70, 60
1, 58770, Poly_aftertouch_c, 0, 60, 0
1, 58770, Poly_aftertouch_c, 0, 62, 127
1, 58793, Control_c, 0, 67, 94
1, 58838, Control_c, 0, 67, 94
1, 58852, Note_off_c, 0, 70, 59
1, 58904, Poly_aftertouch_c, 0, 62, 0
1, 58905, Control_c, 0, 67, 94
1, 58906, Note_on_c, 0, 74, 10
1, 58945, Note_off_c, 0, 74, 44
1, 58972, Note_on_c, 0, 70, 57
1, 58993, Control_c, 0, 67, 95
1, 59008, Control_c, 0, 64, 93
1, 59008, Control_c, 0, 67, 95
1, 59023, Control_c, 0, 67, 96
1, 59025, Note_off_c, 0, 70, 62
1, 59045, Note_on_c, 0, 62, 45
1, 59053, Control_c, 0, 67, 96
1, 59085, Note_off_c, 0, 62, 60
1, 59097, Control_c, 0, 64, 92
1, 59097, Control_c, 0, 67, 97
1, 59115, Note_on_c, 0, 72, 71
1, 59142, Control_c, 0, 64, 92
1, 59156, Control_c, 0, 67, 97
1, 59171, Control_c, 0, 64, 91
1, 59196, Note_on_c, 0, 62, 28
1, 59198, Note_off_c, 0, 72, 56
1, 59200, Control_c, 0, 64, 91
1, 59215, Control_c, 0, 67, 98
1, 59235, Note_off_c, 0, 62, 43
1, 59245, Control_c, 0, 64, 90
1, 59245, Control_c, 0, 67, 98
1, 59254, Note_on_c, 0, 58, 48
1, 59260, Control_c, 0, 67, 101
1, 59274, Control_c, 0, 64, 90
1, 59274, Control_c, 0, 67, 103
1, 59289, Control_c, 0, 67, 105
1, 59303, Note_off_c, 0, 58, 55
1, 59304, Control_c, 0, 64, 89
1, 59304, Control_c, 0, 67, 107
1, 59319, Control_c, 0, 64, 89
1, 59319, Control_c, 0, 67, 108
1, 59334, Control_c, 0, 64, 88
1, 59334, Control_c, 0, 67, 110
1, 59348, Control_c, 0, 64, 87
1, 59348, Control_c, 0, 67, 110
1, 59363, Control_c, 0, 64, 86
1, 59378, Control_c, 0, 64, 85
1, 59378, Control_c, 0, 67, 111
1, 59381, Note_on_c, 0, 70, 68
1, 59393, Control_c, 0, 64, 82
1, 59393, Control_c, 0, 67, 111
1, 59400, Note_on_c, 0, 50, 41
1, 59408, Control_c, 0, 64, 77
1, 59408, Control_c, 0, 67, 112
1, 59422, Control_c, 0, 64, 68
1, 59422, Control_c, 0, 67, 115
1, 59437, Control_c, 0, 64, 26
1, 59437, Control_c, 0, 67, 116
1, 59452, Control_c, 0, 64, 0
1, 59452, Control_c, 0, 67, 118
1, 59467, Control_c, 0, 67, 119
1, 59483, Control_c, 0, 67, 121
1, 59497, Control_c, 0, 67, 121
1, 59499, Note_on_c, 0, 57, 42
1, 59512, Control_c, 0, 64, 63
1, 59512, Control_c, 0, 67, 122
1, 59527, Control_c, 0, 64, 70
1, 59527, Control_c, 0, 67, 123
1, 59542, Control_c, 0, 64, 76
1, 59542, Control_c, 0, 67, 125
1, 59557, Control_c, 0, 64, 83
1, 59557, Control_c, 0, 67, 126
1, 59560, Note_off_c, 0, 50, 45
1, 59563, Note_off_c, 0, 70, 55
1, 59571, Control_c, 0, 64, 87
1, 59571, Control_c, 0, 67, 126
1, 59582, Note_off_c, 0, 57, 60
1, 59586, Control_c, 0, 64, 89
1, 59586, Control_c, 0, 67, 127
1, 59606, Note_on_c, 0, 62, 51
1, 59609, Control_c, 0, 64, 89
1, 59634, Note_off_c, 0, 62, 61
1, 59683, Control_c, 0, 67, 127
1, 59696, Note_on_c, 0, 69, 70
1, 59744, Note_on_c, 0, 62, 47
1, 59798, Note_off_c, 0, 69, 59
1, 59844, Note_off_c, 0, 62, 53
1, 59864, Note_on_c, 0, 69, 26
1, 59920, Note_off_c, 0, 69, 58
1, 59982, Note_on_c, 0, 69, 64
1, 59994, Note_on_c, 0, 74, 46
1, 60081, Note_off_c, 0, 74, 37
1, 60157, Control_c, 0, 64, 89
1, 60162, Note_on_c, 0, 62, 50
1, 60201, Control_c, 0, 64, 88
1, 60216, Note_off_c, 0, 62, 59
1, 60230, Control_c, 0, 64, 88
1, 60260, Control_c, 0, 64, 87
1, 60272, Note_on_c, 0, 67, 66
1, 60276, Control_c, 0, 64, 87
1, 60289, Note_off_c, 0, 69, 59
1, 60306, Control_c, 0, 64, 86
1, 60335, Control_c, 0, 64, 86
1, 60351, Note_on_c, 0, 62, 18
1, 60362, Note_off_c, 0, 67, 60
1, 60389, Note_off_c, 0, 62, 50
1, 60421, Note_on_c, 0, 57, 43
1, 60432, Control_c, 0, 64, 85
1, 60491, Control_c, 0, 64, 85
1, 60494, Note_off_c, 0, 57, 46
1, 60521, Control_c, 0, 64, 84
1, 60535, Control_c, 0, 64, 84
1, 60550, Control_c, 0, 64, 83
1, 60565, Control_c, 0, 64, 83
1, 60575, Note_on_c, 0, 65, 52
1, 60580, Control_c, 0, 64, 82
1, 60594, Control_c, 0, 64, 80
1, 60609, Control_c, 0, 64, 76
1, 60621, Note_on_c, 0, 50, 31
1, 60624, Control_c, 0, 64, 68
1, 60639, Control_c, 0, 64, 49
1, 60654, Control_c, 0, 64, 0
1, 60728, Control_c, 0, 64, 59
1, 60743, Control_c, 0, 64, 67
1, 60755, Note_on_c, 0, 58, 35
1, 60758, Control_c, 0, 64, 71
1, 60772, Control_c, 0, 64, 76
1, 60772, Control_c, 0, 67, 127
1, 60787, Control_c, 0, 64, 79
1, 60802, Control_c, 0, 64, 82
1, 60802, Control_c, 0, 67, 126
1, 60810, Note_off_c, 0, 50, 39
1, 60817, Control_c, 0, 64, 84
1, 60817, Control_c, 0, 67, 125
1, 60827, Note_on_c, 0, 62, 52
1, 60832, Note_off_c, 0, 58, 63
1, 60832, Control_c, 0, 64, 85
1, 60832, Control_c, 0, 67, 125
1, 60846, Control_c, 0, 64, 86
1, 60846, Control_c, 0, 67, 124
1, 60856, Note_off_c, 0, 62, 61
1, 60861, Control_c, 0, 64, 87
1, 60861, Control_c, 0, 67, 124
1, 60876, Control_c, 0, 64, 88
1, 60876, Control_c, 0, 67, 123
1, 60878, Note_off_c, 0, 65, 59
1, 60881, Note_on_c, 0, 64, 59
1, 60891, Control_c, 0, 64, 88
1, 60891, Control_c, 0, 67, 122
1, 60906, Control_c, 0, 67, 121
1, 60920, Control_c, 0, 67, 121
1, 60935, Control_c, 0, 67, 120
1, 60950, Control_c, 0, 67, 120
1, 60974, Note_off_c, 0, 64, 57
1, 60976, Note_on_c, 0, 62, 48
1, 60994, Control_c, 0, 67, 120
1, 61024, Control_c, 0, 67, 121
1, 61065, Note_on_c, 0, 70, 42
1, 61068, Note_off_c, 0, 62, 37
1, 61125, Note_off_c, 0, 70, 54
1, 61145, Note_on_c, 0, 64, 64
1, 61151, Control_c, 0, 67, 121
1, 61161, Note_on_c, 0, 74, 55
1, 61181, Control_c, 0, 67, 122
1, 61196, Control_c, 0, 64, 88
1, 61210, Control_c, 0, 64, 87
1, 61215, Note_off_c, 0, 74, 60
1, 61240, Control_c, 0, 67, 122
1, 61255, Control_c, 0, 64, 87
1, 61255, Control_c, 0, 67, 123
1, 61258, Note_on_c, 0, 70, 46
1, 61284, Control_c, 0, 64, 86
1, 61293, Note_off_c, 0, 70, 56
1, 61299, Control_c, 0, 67, 123
1, 61303, Note_on_c, 0, 62, 45
1, 61314, Control_c, 0, 64, 86
1, 61329, Control_c, 0, 67, 124
1, 61333, Note_off_c, 0, 62, 54
1, 61344, Control_c, 0, 67, 124
1, 61373, Control_c, 0, 64, 85
1, 61373, Control_c, 0, 67, 125
1, 61387, Note_on_c, 0, 65, 68
1, 61402, Control_c, 0, 67, 126
1, 61413, Note_off_c, 0, 64, 60
1, 61417, Control_c, 0, 67, 127
1, 61422, Note_on_c, 0, 62, 49
1, 61432, Control_c, 0, 64, 85
1, 61432, Control_c, 0, 67, 127
1, 61462, Note_off_c, 0, 62, 46
1, 61462, Control_c, 0, 64, 84
1, 61488, Note_on_c, 0, 58, 57
1, 61490, Note_off_c, 0, 65, 57
1, 61506, Control_c, 0, 64, 84
1, 61536, Control_c, 0, 64, 83
1, 61541, Note_off_c, 0, 58, 51
1, 61551, Control_c, 0, 64, 83
1, 61566, Control_c, 0, 64, 82
1, 61581, Control_c, 0, 64, 80
1, 61595, Control_c, 0, 64, 77
1, 61598, Note_on_c, 0, 50, 47
1, 61610, Control_c, 0, 64, 71
1, 61611, Note_on_c, 0, 65, 71
1, 61625, Control_c, 0, 64, 63
1, 61640, Control_c, 0, 64, 0
1, 61697, Note_on_c, 0, 57, 48
1, 61714, Control_c, 0, 64, 62
1, 61729, Control_c, 0, 64, 69
1, 61739, Note_off_c, 0, 50, 58
1, 61743, Control_c, 0, 64, 75
1, 61758, Control_c, 0, 64, 80
1, 61773, Control_c, 0, 64, 85
1, 61786, Note_off_c, 0, 57, 61
1, 61788, Control_c, 0, 64, 87
1, 61793, Note_on_c, 0, 62, 59
1, 61803, Control_c, 0, 64, 88
1, 61816, Note_off_c, 0, 62, 61
1, 61818, Control_c, 0, 64, 89
1, 61858, Note_on_c, 0, 67, 73
1, 61891, Note_off_c, 0, 65, 58
1, 61925, Note_on_c, 0, 62, 51
1, 61950, Note_off_c, 0, 67, 59
1, 62003, Note_on_c, 0, 69, 56
1, 62023, Note_off_c, 0, 62, 36
1, 62062, Note_off_c, 0, 69, 63
1, 62088, Note_on_c, 0, 74, 60
1, 62093, Note_on_c, 0, 67, 77
1, 62147, Note_off_c, 0, 74, 65
1, 62187, Note_on_c, 0, 69, 59
1, 62218, Note_off_c, 0, 69, 69
1, 62228, Note_on_c, 0, 62, 61
1, 62266, Note_off_c, 0, 62, 62
1, 62287, Control_c, 0, 64, 88
1, 62316, Control_c, 0, 64, 88
1, 62325, Note_on_c, 0, 65, 79
1, 62347, Note_on_c, 0, 62, 59
1, 62354, Note_off_c, 0, 67, 58
1, 62361, Control_c, 0, 64, 87
1, 62389, Note_off_c, 0, 62, 60
1, 62390, Control_c, 0, 64, 87
1, 62403, Note_off_c, 0, 65, 65
1, 62415, Note_on_c, 0, 57, 59
1, 62419, Control_c, 0, 64, 86
1, 62449, Control_c, 0, 64, 86
1, 62464, Control_c, 0, 64, 85
1, 62479, Control_c, 0, 64, 84
1, 62492, Note_off_c, 0, 57, 59
1, 62493, Control_c, 0, 64, 83
1, 62508, Control_c, 0, 64, 82
1, 62523, Control_c, 0, 64, 79
1, 62529, Note_on_c, 0, 50, 56
1, 62537, Control_c, 0, 64, 75
1, 62552, Control_c, 0, 64, 68
1, 62560, Note_on_c, 0, 65, 76
1, 62567, Control_c, 0, 64, 40
1, 62582, Control_c, 0, 64, 0
1, 62649, Control_c, 0, 64, 62
1, 62651, Note_on_c, 0, 58, 56
1, 62664, Control_c, 0, 64, 68
1, 62680, Control_c, 0, 64, 74
1, 62684, Note_off_c, 0, 50, 62
1, 62695, Control_c, 0, 64, 81
1, 62710, Control_c, 0, 64, 86
1, 62722, Note_off_c, 0, 58, 66
1, 62723, Control_c, 0, 64, 89
1, 62725, Note_on_c, 0, 62, 69
1, 62738, Control_c, 0, 64, 91
1, 62753, Control_c, 0, 64, 91
1, 62755, Note_off_c, 0, 62, 65
1, 62805, Note_on_c, 0, 67, 77
1, 62839, Note_on_c, 0, 62, 61
1, 62849, Note_off_c, 0, 65, 64
1, 62901, Note_off_c, 0, 67, 58
1, 62916, Note_off_c, 0, 62, 58
1, 62925, Note_on_c, 0, 70, 64
1, 63014, Note_off_c, 0, 70, 61
1, 63023, Note_on_c, 0, 67, 84
1, 63032, Note_on_c, 0, 74, 63
1, 63070, Note_off_c, 0, 74, 58
1, 63079, Control_c, 0, 64, 91
1, 63116, Note_on_c, 0, 70, 58
1, 63119, Poly_aftertouch_c, 0, 66, 127
1, 63138, Control_c, 0, 64, 90
1, 63163, Note_on_c, 0, 62, 59
1, 63166, Note_off_c, 0, 70, 62
1, 63174, Poly_aftertouch_c, 0, 66, 0
1, 63202, Note_off_c, 0, 62, 62
1, 63241, Control_c, 0, 64, 90
1, 63256, Note_on_c, 0, 69, 90
1, 63286, Control_c, 0, 64, 89
1, 63296, Note_on_c, 0, 62, 46
1, 63302, Note_off_c, 0, 67, 54
1, 63330, Control_c, 0, 64, 89
1, 63345, Note_off_c, 0, 69, 64
1, 63351, Note_off_c, 0, 62, 45
1, 63366, Note_on_c, 0, 58, 60
1, 63412, Control_c, 0, 64, 88
1, 63456, Control_c, 0, 64, 87
1, 63457, Note_off_c, 0, 58, 56
1, 63472, Control_c, 0, 64, 87
1, 63487, Control_c, 0, 64, 86
1, 63494, Note_on_c, 0, 50, 53
1, 63502, Control_c, 0, 64, 84
1, 63512, Note_on_c, 0, 69, 86
1, 63517, Control_c, 0, 64, 80
1, 63532, Control_c, 0, 64, 73
1, 63546, Control_c, 0, 64, 60
1, 63561, Control_c, 0, 64, 0
1, 63612, Note_on_c, 0, 57, 53
1, 63620, Control_c, 0, 64, 62
1, 63635, Control_c, 0, 64, 71
1, 63642, Note_off_c, 0, 50, 61
1, 63650, Control_c, 0, 64, 79
1, 63664, Control_c, 0, 64, 88
1, 63679, Control_c, 0, 64, 93
1, 63688, Note_off_c, 0, 57, 60
1, 63694, Control_c, 0, 64, 95
1, 63700, Note_on_c, 0, 62, 55
1, 63709, Control_c, 0, 64, 96
1, 63726, Note_off_c, 0, 62, 63
1, 63757, Note_on_c, 0, 70, 89
1, 63769, Note_off_c, 0, 69, 66
1, 63815, Note_on_c, 0, 62, 59
1, 63876, Note_off_c, 0, 70, 58
1, 63894, Note_on_c, 0, 69, 60
1, 63992, Note_off_c, 0, 69, 58
1, 64022, Note_off_c, 0, 62, 23
1, 64048, Note_on_c, 0, 70, 76
1, 64060, Note_on_c, 0, 74, 51
1, 64128, Note_off_c, 0, 74, 60
1, 64169, Note_on_c, 0, 69, 46
1, 64190, Note_off_c, 0, 70, 50
1, 64216, Note_off_c, 0, 69, 65
1, 64220, Note_on_c, 0, 62, 56
1, 64220, Control_c, 0, 64, 95
1, 64250, Control_c, 0, 64, 95
1, 64260, Note_off_c, 0, 62, 61
1, 64281, Control_c, 0, 64, 94
1, 64323, Note_on_c, 0, 69, 72
1, 64340, Control_c, 0, 64, 94
1, 64355, Control_c, 0, 64, 93
1, 64359, Note_on_c, 0, 62, 42
1, 64384, Control_c, 0, 64, 93
1, 64388, Note_off_c, 0, 62, 51
1, 64391, Note_off_c, 0, 69, 63
1, 64399, Control_c, 0, 64, 92
1, 64413, Control_c, 0, 64, 91
1, 64428, Control_c, 0, 64, 89
1, 64443, Control_c, 0, 64, 87
1, 64447, Note_on_c, 0, 57, 44
1, 64458, Control_c, 0, 64, 84
1, 64473, Control_c, 0, 64, 82
1, 64487, Control_c, 0, 64, 80
1, 64502, Control_c, 0, 64, 77
1, 64517, Control_c, 0, 64, 73
1, 64519, Note_off_c, 0, 57, 47
1, 64532, Control_c, 0, 64, 68
1, 64547, Control_c, 0, 64, 53
1, 64556, Note_on_c, 0, 50, 48
1, 64559, Note_on_c, 0, 69, 66
1, 64562, Control_c, 0, 64, 0
1, 64636, Control_c, 0, 64, 64
1, 64651, Control_c, 0, 64, 70
1, 64654, Note_on_c, 0, 57, 50
1, 64666, Control_c, 0, 64, 76
1, 64681, Control_c, 0, 64, 81
1, 64685, Note_off_c, 0, 50, 59
1, 64695, Control_c, 0, 64, 84
1, 64710, Control_c, 0, 64, 86
1, 64725, Control_c, 0, 64, 88
1, 64733, Note_off_c, 0, 57, 59
1, 64739, Control_c, 0, 64, 89
1, 64743, Note_on_c, 0, 62, 51
1, 64754, Control_c, 0, 64, 90
1, 64771, Note_off_c, 0, 62, 59
1, 64776, Note_off_c, 0, 69, 64
1, 64788, Note_on_c, 0, 70, 75
1, 64865, Note_off_c, 0, 70, 58
1, 64872, Note_on_c, 0, 62, 51
1, 64946, Note_on_c, 0, 69, 52
1, 64955, Note_off_c, 0, 62, 57
1, 64998, Note_off_c, 0, 69, 59
1, 65057, Control_c, 0, 67, 127
1, 65073, Control_c, 0, 67, 126
1, 65086, Note_on_c, 0, 70, 73
1, 65088, Control_c, 0, 67, 125
1, 65103, Control_c, 0, 67, 123
1, 65110, Note_on_c, 0, 74, 46
1, 65117, Control_c, 0, 67, 122
1, 65132, Control_c, 0, 67, 121
1, 65147, Control_c, 0, 67, 119
1, 65162, Control_c, 0, 67, 119
1, 65172, Note_off_c, 0, 74, 60
1, 65177, Control_c, 0, 67, 118
1, 65206, Control_c, 0, 67, 119
1, 65216, Note_on_c, 0, 69, 55
1, 65235, Control_c, 0, 67, 119
1, 65280, Note_off_c, 0, 69, 62
1, 65280, Control_c, 0, 64, 89
1, 65294, Note_on_c, 0, 62, 46
1, 65324, Note_off_c, 0, 62, 59
1, 65340, Control_c, 0, 64, 89
1, 65340, Control_c, 0, 67, 119
1, 65352, Note_on_c, 0, 69, 67
1, 65360, Note_off_c, 0, 70, 57
1, 65369, Control_c, 0, 67, 118
1, 65384, Control_c, 0, 64, 88
1, 65428, Note_off_c, 0, 69, 65
1, 65433, Note_on_c, 0, 62, 34
1, 65458, Control_c, 0, 64, 88
1, 65468, Note_off_c, 0, 62, 50
1, 65473, Control_c, 0, 67, 119
1, 65498, Note_on_c, 0, 57, 44
1, 65503, Control_c, 0, 64, 87
1, 65503, Control_c, 0, 67, 119
1, 65517, Control_c, 0, 64, 87
1, 65547, Control_c, 0, 64, 86
1, 65547, Control_c, 0, 67, 120
1, 65561, Control_c, 0, 64, 85
1, 65576, Control_c, 0, 64, 82
1, 65576, Control_c, 0, 67, 120
1, 65591, Note_off_c, 0, 57, 55
1, 65599, Control_c, 0, 64, 75
1, 65606, Note_on_c, 0, 69, 67
1, 65614, Control_c, 0, 64, 64
1, 65614, Control_c, 0, 67, 121
1, 65629, Control_c, 0, 64, 0
1, 65643, Control_c, 0, 67, 122
1, 65649, Note_on_c, 0, 50, 43
1, 65658, Control_c, 0, 67, 124
1, 65673, Control_c, 0, 67, 125
1, 65688, Control_c, 0, 67, 126
1, 65703, Control_c, 0, 64, 64
1, 65703, Control_c, 0, 67, 127
1, 65717, Control_c, 0, 64, 71
1, 65717, Control_c, 0, 67, 127
1, 65730, Note_on_c, 0, 58, 51
1, 65732, Control_c, 0, 64, 77
1, 65747, Control_c, 0, 64, 83
1, 65762, Control_c, 0, 64, 86
1, 65776, Control_c, 0, 64, 88
1, 65791, Control_c, 0, 64, 90
1, 65801, Note_off_c, 0, 50, 32
1, 65806, Control_c, 0, 64, 90
1, 65811, Note_off_c, 0, 58, 63
1, 65819, Note_on_c, 0, 62, 57
1, 65821, Control_c, 0, 64, 91
1, 65836, Control_c, 0, 64, 91
1, 65846, Note_off_c, 0, 62, 63
1, 65850, Control_c, 0, 64, 92
1, 65866, Control_c, 0, 64, 92
1, 65881, Control_c, 0, 64, 93
1, 65882, Note_on_c, 0, 67, 67
1, 65894, Note_off_c, 0, 69, 55
1, 65896, Control_c, 0, 64, 94
1, 65976, Note_off_c, 0, 67, 60
1, 66157, Note_on_c, 0, 74, 46
1, 66160, Note_on_c, 0, 67, 50
1, 66281, Note_on_c, 0, 70, 46
1, 66350, Note_off_c, 0, 74, 28
1, 66355, Note_off_c, 0, 70, 55
1, 66371, Note_on_c, 0, 62, 40
1, 66405, Note_off_c, 0, 62, 52
1, 66422, Control_c, 0, 64, 93
1, 66439, Note_on_c, 0, 65, 57
1, 66457, Note_off_c, 0, 67, 56
1, 66496, Control_c, 0, 64, 93
1, 66511, Note_on_c, 0, 62, 34
1, 66523, Note_off_c, 0, 65, 65
1, 66526, Control_c, 0, 64, 92
1, 66546, Note_off_c, 0, 62, 50
1, 66555, Control_c, 0, 64, 92
1, 66584, Note_on_c, 0, 58, 49
1, 66585, Control_c, 0, 64, 91
1, 66599, Control_c, 0, 64, 91
1, 66629, Control_c, 0, 64, 90
1, 66644, Control_c, 0, 64, 90
1, 66652, Note_off_c, 0, 58, 52
1, 66659, Control_c, 0, 64, 89
1, 66675, Control_c, 0, 64, 88
1, 66689, Control_c, 0, 64, 87
1, 66704, Control_c, 0, 64, 85
1, 66715, Note_on_c, 0, 50, 41
1, 66719, Note_on_c, 0, 65, 63
1, 66719, Control_c, 0, 64, 82
1, 66734, Control_c, 0, 64, 77
1, 66749, Control_c, 0, 64, 67
1, 66763, Control_c, 0, 64, 0
1, 66822, Note_on_c, 0, 57, 38
1, 66822, Control_c, 0, 64, 35
1, 66837, Control_c, 0, 64, 66
1, 66852, Control_c, 0, 64, 71
1, 66867, Control_c, 0, 64, 77
1, 66882, Control_c, 0, 64, 82
1, 66884, Note_off_c, 0, 50, 50
1, 66896, Control_c, 0, 64, 86
1, 66911, Control_c, 0, 64, 88
1, 66919, Note_off_c, 0, 57, 58
1, 66926, Control_c, 0, 64, 89
1, 66927, Note_on_c, 0, 62, 46
1, 66941, Control_c, 0, 64, 89
1, 66955, Note_off_c, 0, 62, 58
1, 66996, Note_on_c, 0, 64, 62
1, 66998, Note_off_c, 0, 65, 64
1, 67097, Note_on_c, 0, 62, 30
1, 67167, Note_on_c, 0, 69, 50
1, 67173, Note_off_c, 0, 64, 35
1, 67175, Note_off_c, 0, 62, 37
1, 67214, Control_c, 0, 64, 89
1, 67244, Note_off_c, 0, 69, 59
1, 67271, Note_on_c, 0, 64, 54
1, 67285, Note_on_c, 0, 74, 47
1, 67333, Control_c, 0, 64, 88
1, 67366, Note_off_c, 0, 74, 53
1, 67393, Note_on_c, 0, 69, 49
1, 67437, Control_c, 0, 64, 88
1, 67453, Note_off_c, 0, 69, 56
1, 67483, Control_c, 0, 64, 87
1, 67484, Note_on_c, 0, 62, 45
1, 67512, Note_off_c, 0, 62, 54
1, 67527, Control_c, 0, 64, 87
1, 67542, Control_c, 0, 64, 86
1, 67566, Note_off_c, 0, 64, 57
1, 67570, Note_on_c, 0, 65, 67
1, 67572, Control_c, 0, 64, 86
1, 67586, Control_c, 0, 64, 85
1, 67616, Control_c, 0, 64, 85
1, 67680, Note_off_c, 0, 65, 59
1, 67718, Poly_aftertouch_c, 0, 62, 0
1, 67726, Note_on_c, 0, 57, 45
1, 67778, Control_c, 0, 64, 84
1, 67793, Control_c, 0, 64, 84
1, 67808, Control_c, 0, 64, 83
1, 67823, Control_c, 0, 64, 82
1, 67845, Control_c, 0, 64, 81
1, 67860, Control_c, 0, 64, 79
1, 67863, Note_off_c, 0, 57, 55
1, 67875, Control_c, 0, 64, 77
1, 67890, Control_c, 0, 64, 74
1, 67904, Note_on_c, 0, 65, 54
1, 67905, Control_c, 0, 64, 69
1, 67919, Control_c, 0, 64, 65
1, 67923, Note_on_c, 0, 50, 36
1, 67934, Control_c, 0, 64, 61
1, 67949, Control_c, 0, 64, 55
1, 67964, Control_c, 0, 64, 28
1, 67979, Control_c, 0, 64, 0
1, 68053, Control_c, 0, 64, 63
1, 68054, Note_on_c, 0, 58, 38
1, 68068, Control_c, 0, 64, 69
1, 68083, Control_c, 0, 64, 74
1, 68098, Control_c, 0, 64, 80
1, 68112, Control_c, 0, 64, 84
1, 68116, Note_off_c, 0, 50, 40
1, 68127, Control_c, 0, 64, 85
1, 68142, Control_c, 0, 64, 86
1, 68145, Note_off_c, 0, 58, 61
1, 68150, Note_on_c, 0, 62, 45
1, 68156, Control_c, 0, 64, 86
1, 68176, Note_off_c, 0, 62, 55
1, 68203, Note_off_c, 0, 65, 58
1, 68230, Note_on_c, 0, 64, 52
1, 68330, Note_on_c, 0, 62, 36
1, 68389, Note_off_c, 0, 62, 38
1, 68395, Note_off_c, 0, 64, 35
1, 68437, Note_on_c, 0, 70, 47
1, 68514, Control_c, 0, 64, 86
1, 68593, Note_off_c, 0, 70, 41
1, 68603, Note_on_c, 0, 64, 53
1, 68629, Note_on_c, 0, 74, 22
1, 68693, Note_off_c, 0, 74, 42
1, 68732, Note_on_c, 0, 70, 37
1, 68851, Note_off_c, 0, 70, 34
1, 68864, Note_on_c, 0, 62, 42
1, 68907, Note_off_c, 0, 64, 33
1, 68912, Note_off_c, 0, 62, 48
1, 69036, Note_on_c, 0, 62, 42
1, 69056, Note_on_c, 0, 64, 42
1, 69199, Note_off_c, 0, 64, 20
1, 69200, Note_on_c, 0, 58, 36
1, 69359, Control_c, 0, 64, 85
1, 69432, Control_c, 0, 64, 85
1, 69447, Control_c, 0, 64, 84
1, 69462, Control_c, 0, 64, 84
1, 69477, Control_c, 0, 64, 83
1, 69491, Control_c, 0, 64, 83
1, 69492, Note_on_c, 0, 50, 31
1, 69506, Control_c, 0, 64, 82
1, 69521, Control_c, 0, 64, 79
1, 69535, Control_c, 0, 64, 74
1, 69550, Control_c, 0, 64, 66
1, 69565, Control_c, 0, 64, 51
1, 69580, Control_c, 0, 64, 33
1, 69595, Control_c, 0, 64, 52
1, 69609, Control_c, 0, 64, 63
1, 69624, Control_c, 0, 64, 67
1, 69626, Note_off_c, 0, 58, 45
1, 69639, Control_c, 0, 64, 71
1, 69654, Control_c, 0, 64, 76
1, 69669, Control_c, 0, 64, 81
1, 69683, Control_c, 0, 64, 84
1, 69698, Control_c, 0, 64, 85
1, 69713, Control_c, 0, 64, 86
1, 69728, Control_c, 0, 64, 86
1, 69733, Note_on_c, 0, 57, 37
1, 69758, Note_off_c, 0, 62, 1
1, 69820, Note_off_c, 0, 50, 38
1, 69840, Note_off_c, 0, 57, 56
1, 69877, Note_on_c, 0, 62, 44
1, 69903, Note_off_c, 0, 62, 54
1, 69981, Control_c, 0, 64, 86
1, 69997, Note_on_c, 0, 62, 44
1, 70087, Note_off_c, 0, 62, 50
1, 70094, Note_on_c, 0, 69, 45
1, 70145, Note_off_c, 0, 69, 57
1, 70195, Note_on_c, 0, 74, 48
1, 70249, Note_off_c, 0, 74, 56
1, 70277, Note_on_c, 0, 69, 44
1, 70300, Control_c, 0, 64, 85
1, 70315, Note_off_c, 0, 69, 60
1, 70343, Note_on_c, 0, 62, 43
1, 70370, Note_off_c, 0, 62, 51
1, 70455, Note_on_c, 0, 62, 32
1, 70493, Note_off_c, 0, 62, 48
1, 70514, Note_on_c, 0, 57, 48
1, 70573, Note_off_c, 0, 57, 49
1, 70632, Note_on_c, 0, 50, 38
1, 70707, Note_on_c, 0, 57, 46
1, 70755, Note_off_c, 0, 50, 39
1, 70767, Note_off_c, 0, 57, 59
1, 70792, Note_on_c, 0, 62, 45
1, 70821, Note_off_c, 0, 62, 53
1, 70855, Control_c, 0, 64, 85
1, 70929, Note_on_c, 0, 62, 44
1, 70979, Note_off_c, 0, 62, 43
1, 71015, Note_on_c, 0, 69, 42
1, 71096, Note_off_c, 0, 69, 59
1, 71123, Note_on_c, 0, 74, 41
1, 71179, Note_off_c, 0, 74, 43
1, 71245, Note_on_c, 0, 69, 30
1, 71284, Note_off_c, 0, 69, 50
1, 71331, Note_on_c, 0, 62, 46
1, 71375, Note_off_c, 0, 62, 46
1, 71513, Note_on_c, 0, 62, 17
1, 71594, Note_off_c, 0, 62, 35
1, 71638, Note_on_c, 0, 57, 34
1, 71853, Note_off_c, 0, 57, 16
1, 71888, Note_on_c, 0, 50, 31
1, 72020, Control_c, 0, 67, 124
1, 72035, Control_c, 0, 67, 121
1, 72050, Control_c, 0, 67, 117
1, 72064, Control_c, 0, 67, 110
1, 72079, Control_c, 0, 67, 99
1, 72094, Control_c, 0, 67, 89
1, 72109, Control_c, 0, 67, 81
1, 72124, Control_c, 0, 67, 78
1, 72134, Note_on_c, 0, 57, 35
1, 72138, Control_c, 0, 67, 77
1, 72153, Control_c, 0, 67, 77
1, 72193, Note_off_c, 0, 57, 55
1, 72197, Note_off_c, 0, 50, 37
1, 72198, Control_c, 0, 67, 77
1, 72250, Note_on_c, 0, 62, 29
1, 72273, Control_c, 0, 67, 76
1, 72317, Control_c, 0, 67, 77
1, 72339, Control_c, 0, 67, 77
1, 72343, Note_on_c, 0, 69, 43
1, 72354, Control_c, 0, 67, 78
1, 72368, Control_c, 0, 67, 78
1, 72418, Note_off_c, 0, 69, 56
1, 72427, Note_on_c, 0, 74, 49
1, 72443, Control_c, 0, 67, 78
1, 72458, Control_c, 0, 67, 77
1, 72473, Control_c, 0, 67, 77
1, 72479, Note_off_c, 0, 62, 37
1, 72503, Control_c, 0, 67, 76
1, 72517, Control_c, 0, 67, 75
1, 72529, Note_on_c, 0, 69, 41
1, 72532, Control_c, 0, 67, 74
1, 72547, Control_c, 0, 67, 67
1, 72561, Control_c, 0, 67, 58
1, 72576, Control_c, 0, 67, 50
1, 72577, Note_off_c, 0, 74, 32
1, 72591, Control_c, 0, 67, 44
1, 72606, Control_c, 0, 67, 40
1, 72617, Note_on_c, 0, 62, 33
1, 72621, Control_c, 0, 67, 36
1, 72634, Note_on_c, 0, 63, 44
1, 72635, Control_c, 0, 67, 31
1, 72640, Note_off_c, 0, 69, 36
1, 72650, Control_c, 0, 67, 28
1, 72665, Control_c, 0, 67, 27
1, 72720, Note_off_c, 0, 62, 31
1, 72739, Control_c, 0, 67, 28
1, 72749, Note_on_c, 0, 70, 45
1, 72753, Control_c, 0, 67, 30
1, 72768, Control_c, 0, 67, 33
1, 72783, Control_c, 0, 67, 36
1, 72798, Control_c, 0, 67, 38
1, 72813, Control_c, 0, 67, 42
1, 72818, Note_on_c, 0, 75, 46
1, 72822, Note_off_c, 0, 63, 43
1, 72828, Control_c, 0, 67, 47
1, 72842, Control_c, 0, 67, 52
1, 72857, Control_c, 0, 67, 58
1, 72872, Control_c, 0, 67, 65
1, 72887, Control_c, 0, 67, 77
1, 72902, Control_c, 0, 67, 90
1, 72907, Note_off_c, 0, 75, 50
1, 72917, Control_c, 0, 67, 101
1, 72923, Note_off_c, 0, 70, 44
1, 72932, Control_c, 0, 67, 110
1, 72946, Control_c, 0, 67, 116
1, 72961, Control_c, 0, 67, 120
1, 72965, Note_on_c, 0, 62, 30
1, 72976, Control_c, 0, 67, 125
1, 72991, Control_c, 0, 67, 127
1, 73030, Note_on_c, 0, 67, 31
1, 73098, Note_off_c, 0, 67, 43
1, 73102, Note_on_c, 0, 74, 23
1, 73149, Note_off_c, 0, 62, 36
1, 73220, Note_on_c, 0, 67, 34
1, 73271, Note_on_c, 0, 62, 32
1, 73345, Note_on_c, 0, 50, 26
1, 73348, Note_off_c, 0, 67, 40
1, 73351, Note_off_c, 0, 74, 0
1, 73362, Note_off_c, 0, 62, 35
1, 73388, Poly_aftertouch_c, 0, 74, 127
1, 73396, Note_on_c, 0, 57, 41
1, 73474, Note_on_c, 0, 62, 41
1, 73476, Note_off_c, 0, 50, 38
1, 73477, Note_off_c, 0, 57, 54
1, 73513, Poly_aftertouch_c, 0, 74, 0
1, 73531, Control_c, 0, 64, 85
1, 73537, Note_on_c, 0, 69, 43
1, 73575, Note_off_c, 0, 69, 57
1, 73576, Note_off_c, 0, 62, 50
1, 73583, Note_on_c, 0, 74, 53
1, 73591, Control_c, 0, 64, 86
1, 73620, Control_c, 0, 64, 86
1, 73635, Control_c, 0, 64, 87
1, 73665, Control_c, 0, 64, 87
1, 73680, Control_c, 0, 64, 88
1, 73683, Note_on_c, 0, 69, 44
1, 73694, Control_c, 0, 64, 88
1, 73719, Note_off_c, 0, 69, 52
1, 73724, Control_c, 0, 64, 89
1, 73731, Note_on_c, 0, 62, 45
1, 73754, Control_c, 0, 64, 89
1, 73796, Note_on_c, 0, 63, 22
1, 73827, Note_off_c, 0, 62, 46
1, 73844, Note_on_c, 0, 70, 48
1, 73898, Note_on_c, 0, 75, 52
1, 73932, Note_off_c, 0, 75, 64
1, 73971, Note_off_c, 0, 70, 59
1, 73978, Note_on_c, 0, 62, 36
1, 74024, Note_off_c, 0, 63, 45
1, 74075, Note_on_c, 0, 67, 31
1, 74120, Note_off_c, 0, 74, 0
1, 74135, Note_on_c, 0, 74, 35
1, 74139, Note_off_c, 0, 62, 53
1, 74143, Note_off_c, 0, 67, 41
1, 74236, Note_on_c, 0, 67, 37
1, 74258, Note_on_c, 0, 62, 48
1, 74280, Control_c, 0, 67, 112
1, 74292, Note_off_c, 0, 62, 58
1, 74295, Control_c, 0, 67, 91
1, 74310, Control_c, 0, 67, 73
1, 74316, Note_off_c, 0, 67, 55
1, 74324, Control_c, 0, 67, 57
1, 74336, Note_on_c, 0, 50, 33
1, 74339, Control_c, 0, 67, 43
1, 74354, Control_c, 0, 67, 32
1, 74366, Note_on_c, 0, 57, 43
1, 74369, Control_c, 0, 67, 23
1, 74371, Note_off_c, 0, 74, 60
1, 74384, Control_c, 0, 67, 16
1, 74398, Control_c, 0, 67, 8
1, 74413, Control_c, 0, 67, 0
1, 74432, Note_off_c, 0, 50, 36
1, 74437, Note_off_c, 0, 57, 55
1, 74462, Note_on_c, 0, 69, 17
1, 74538, Note_on_c, 0, 74, 40
1, 74637, Note_off_c, 0, 74, 58
1, 74638, Note_on_c, 0, 81, 78
1, 74652, Note_off_c, 0, 69, 47
1, 74736, Note_on_c, 0, 74, 13
1, 74789, Note_on_c, 0, 69, 36
1, 74797, Note_off_c, 0, 74, 46
1, 74817, Note_on_c, 0, 63, 40
1, 74851, Note_off_c, 0, 69, 48
1, 74899, Note_off_c, 0, 81, 37
1, 74911, Note_on_c, 0, 70, 41
1, 74984, Note_on_c, 0, 75, 36
1, 74988, Note_off_c, 0, 63, 41
1, 74992, Note_on_c, 0, 67, 45
1, 75023, Note_off_c, 0, 75, 52
1, 75055, Note_off_c, 0, 70, 36
1, 75101, Note_on_c, 0, 72, 44
1, 75157, Note_off_c, 0, 72, 55
1, 75170, Note_on_c, 0, 79, 76
1, 75191, Note_off_c, 0, 67, 34
1, 75283, Note_on_c, 0, 72, 7
1, 75330, Note_on_c, 0, 67, 42
1, 75364, Note_off_c, 0, 72, 38
1, 75393, Control_c, 0, 67, 11
1, 75408, Control_c, 0, 67, 18
1, 75415, Note_off_c, 0, 79, 52
1, 75421, Note_off_c, 0, 67, 59
1, 75423, Control_c, 0, 67, 28
1, 75437, Control_c, 0, 67, 38
1, 75453, Control_c, 0, 67, 47
1, 75465, Note_on_c, 0, 50, 28
1, 75468, Control_c, 0, 67, 54
1, 75481, Note_on_c, 0, 57, 39
1, 75483, Control_c, 0, 67, 60
1, 75498, Control_c, 0, 67, 67
1, 75513, Control_c, 0, 67, 73
1, 75527, Control_c, 0, 67, 81
1, 75542, Control_c, 0, 67, 86
1, 75545, Note_on_c, 0, 65, 40
1, 75557, Control_c, 0, 67, 91
1, 75571, Control_c, 0, 67, 94
1, 75586, Control_c, 0, 67, 97
1, 75597, Note_off_c, 0, 50, 40
1, 75601, Control_c, 0, 67, 98
1, 75616, Control_c, 0, 67, 100
1, 75617, Note_off_c, 0, 57, 47
1, 75631, Control_c, 0, 67, 102
1, 75645, Control_c, 0, 67, 103
1, 75656, Note_on_c, 0, 70, 41
1, 75660, Control_c, 0, 67, 105
1, 75675, Control_c, 0, 67, 107
1, 75690, Control_c, 0, 67, 110
1, 75700, Note_on_c, 0, 77, 67
1, 75704, Note_off_c, 0, 70, 45
1, 75705, Control_c, 0, 67, 113
1, 75716, Note_off_c, 0, 65, 41
1, 75720, Control_c, 0, 67, 116
1, 75735, Control_c, 0, 67, 118
1, 75750, Control_c, 0, 67, 120
1, 75765, Control_c, 0, 67, 122
1, 75779, Control_c, 0, 67, 124
1, 75794, Control_c, 0, 67, 127
1, 75809, Control_c, 0, 67, 127
1, 75861, Note_off_c, 0, 77, 35
1, 75914, Poly_aftertouch_c, 0, 65, 127
1, 75955, Poly_aftertouch_c, 0, 65, 0
1, 75966, Note_on_c, 0, 70, 24
1, 76011, Note_on_c, 0, 75, 35
1, 76042, Note_off_c, 0, 75, 55
1, 76149, Note_off_c, 0, 70, 34
1, 76171, Note_on_c, 0, 63, 34
1, 76262, Note_off_c, 0, 63, 30
1, 76282, Poly_aftertouch_c, 0, 69, 127
1, 76285, Note_on_c, 0, 75, 54
1, 76321, Poly_aftertouch_c, 0, 69, 0
1, 76336, Control_c, 0, 64, 89
1, 76357, Poly_aftertouch_c, 0, 69, 127
1, 76443, Poly_aftertouch_c, 0, 63, 127
1, 76474, Poly_aftertouch_c, 0, 63, 0
1, 76479, Note_off_c, 0, 75, 36
1, 76516, Note_on_c, 0, 50, 24
1, 76555, Poly_aftertouch_c, 0, 69, 0
1, 76579, Note_on_c, 0, 57, 35
1, 76628, Note_on_c, 0, 62, 33
1, 76652, Note_off_c, 0, 57, 53
1, 76668, Note_off_c, 0, 50, 39
1, 76704, Note_on_c, 0, 69, 33
1, 76765, Note_off_c, 0, 69, 56
1, 76767, Note_off_c, 0, 62, 36
1, 76768, Note_on_c, 0, 74, 52
1, 76854, Note_on_c, 0, 69, 23
1, 76905, Note_on_c, 0, 62, 36
1, 76949, Note_on_c, 0, 63, 40
1, 76952, Note_off_c, 0, 69, 34
1, 77018, Note_on_c, 0, 70, 42
1, 77042, Note_off_c, 0, 63, 33
1, 77064, Note_on_c, 0, 75, 43
1, 77084, Control_c, 0, 64, 89
1, 77090, Note_off_c, 0, 75, 60
1, 77093, Note_off_c, 0, 62, 0
1, 77109, Note_on_c, 0, 62, 21
1, 77109, Note_off_c, 0, 70, 54
1, 77186, Note_on_c, 0, 67, 46
1, 77189, Note_off_c, 0, 74, 15
1, 77244, Note_off_c, 0, 67, 58
1, 77255, Note_on_c, 0, 74, 43
1, 77262, Note_off_c, 0, 62, 46
1, 77362, Note_on_c, 0, 67, 45
1, 77381, Note_on_c, 0, 62, 47
1, 77402, Note_off_c, 0, 74, 34
1, 77417, Note_off_c, 0, 67, 45
1, 77424, Note_on_c, 0, 50, 40
1, 77445, Note_off_c, 0, 62, 54
1, 77468, Note_on_c, 0, 57, 49
1, 77472, Note_off_c, 0, 50, 59
1, 77498, Note_off_c, 0, 57, 61
1, 77513, Control_c, 0, 67, 123
1, 77528, Control_c, 0, 67, 108
1, 77541, Note_on_c, 0, 62, 55
1, 77542, Control_c, 0, 67, 95
1, 77557, Control_c, 0, 67, 90
1, 77579, Control_c, 0, 67, 86
1, 77594, Control_c, 0, 67, 81
1, 77609, Control_c, 0, 67, 77
1, 77614, Note_on_c, 0, 69, 46
1, 77624, Control_c, 0, 67, 73
1, 77639, Control_c, 0, 67, 72
1, 77642, Note_off_c, 0, 62, 55
1, 77654, Control_c, 0, 67, 73
1, 77660, Note_off_c, 0, 69, 62
1, 77666, Note_on_c, 0, 74, 62
1, 77669, Control_c, 0, 67, 73
1, 77683, Control_c, 0, 67, 74
1, 77728, Control_c, 0, 67, 74
1, 77745, Note_on_c, 0, 69, 43
1, 77772, Control_c, 0, 67, 74
1, 77780, Poly_aftertouch_c, 0, 66, 127
1, 77784, Note_on_c, 0, 62, 50
1, 77802, Control_c, 0, 67, 73
1, 77817, Control_c, 0, 67, 74
1, 77847, Control_c, 0, 67, 74
1, 77851, Note_off_c, 0, 62, 50
1, 77851, Poly_aftertouch_c, 0, 66, 0
1, 77865, Note_on_c, 0, 70, 48
1, 77877, Control_c, 0, 67, 74
1, 77886, Note_on_c, 0, 75, 57
1, 77909, Note_off_c, 0, 75, 66
1, 77934, Note_off_c, 0, 70, 59
1, 77943, Poly_aftertouch_c, 0, 71, 127
1, 77946, Note_on_c, 0, 62, 53
1, 77951, Control_c, 0, 67, 73
1, 77988, Poly_aftertouch_c, 0, 71, 0
1, 77990, Note_off_c, 0, 74, 37
1, 77992, Note_on_c, 0, 67, 50
1, 78049, Note_off_c, 0, 69, 21
1, 78053, Note_off_c, 0, 62, 58
1, 78054, Control_c, 0, 67, 73
1, 78068, Note_on_c, 0, 74, 52
1, 78069, Note_off_c, 0, 67, 57
1, 78114, Control_c, 0, 67, 72
1, 78128, Control_c, 0, 67, 72
1, 78157, Note_on_c, 0, 67, 44
1, 78158, Control_c, 0, 67, 71
1, 78172, Control_c, 0, 67, 71
1, 78175, Note_on_c, 0, 62, 43
1, 78187, Control_c, 0, 67, 70
1, 78200, Note_off_c, 0, 62, 54
1, 78201, Note_off_c, 0, 67, 62
1, 78202, Control_c, 0, 67, 68
1, 78212, Note_on_c, 0, 50, 45
1, 78217, Control_c, 0, 67, 63
1, 78228, Note_on_c, 0, 57, 54
1, 78232, Control_c, 0, 67, 57
1, 78247, Control_c, 0, 67, 51
1, 78248, Note_off_c, 0, 50, 58
1, 78251, Note_off_c, 0, 74, 58
1, 78262, Control_c, 0, 67, 46
1, 78264, Note_off_c, 0, 57, 62
1, 78277, Control_c, 0, 67, 41
1, 78291, Control_c, 0, 67, 36
1, 78306, Control_c, 0, 67, 30
1, 78328, Control_c, 0, 67, 25
1, 78331, Note_on_c, 0, 69, 64
1, 78343, Control_c, 0, 67, 22
1, 78372, Control_c, 0, 67, 23
1, 78382, Note_on_c, 0, 74, 53
1, 78387, Control_c, 0, 67, 23
1, 78402, Control_c, 0, 67, 24
1, 78417, Control_c, 0, 67, 24
1, 78432, Control_c, 0, 67, 25
1, 78447, Control_c, 0, 67, 26
1, 78457, Note_on_c, 0, 81, 83
1, 78461, Note_off_c, 0, 69, 62
1, 78462, Note_off_c, 0, 74, 64
1, 78462, Control_c, 0, 67, 27
1, 78477, Control_c, 0, 64, 89
1, 78477, Control_c, 0, 67, 27
1, 78536, Control_c, 0, 64, 88
1, 78552, Note_on_c, 0, 74, 41
1, 78566, Control_c, 0, 67, 27
1, 78590, Note_on_c, 0, 69, 50
1, 78596, Control_c, 0, 67, 26
1, 78604, Note_on_c, 0, 70, 53
1, 78610, Control_c, 0, 64, 88
1, 78625, Control_c, 0, 67, 26
1, 78641, Control_c, 0, 67, 25
1, 78649, Note_off_c, 0, 69, 57
1, 78670, Control_c, 0, 67, 25
1, 78715, Control_c, 0, 64, 87
1, 78715, Control_c, 0, 67, 26
1, 78730, Control_c, 0, 67, 28
1, 78745, Control_c, 0, 64, 87
1, 78745, Control_c, 0, 67, 30
1, 78758, Note_on_c, 0, 82, 76
1, 78760, Control_c, 0, 64, 86
1, 78760, Control_c, 0, 67, 30
1, 78765, Poly_aftertouch_c, 0, 76, 127
1, 78774, Control_c, 0, 64, 83
1, 78774, Control_c, 0, 67, 31
1, 78784, Note_off_c, 0, 74, 16
1, 78789, Control_c, 0, 64, 79
1, 78789, Control_c, 0, 67, 32
1, 78804, Control_c, 0, 64, 70
1, 78804, Control_c, 0, 67, 32
1, 78816, Poly_aftertouch_c, 0, 76, 0
1, 78819, Control_c, 0, 64, 61
1, 78819, Control_c, 0, 67, 33
1, 78834, Control_c, 0, 64, 37
1, 78834, Control_c, 0, 67, 34
1, 78849, Control_c, 0, 64, 40
1, 78849, Control_c, 0, 67, 35
1, 78858, Note_on_c, 0, 67, 47
1, 78864, Control_c, 0, 64, 54
1, 78864, Control_c, 0, 67, 37
1, 78878, Control_c, 0, 64, 62
1, 78878, Control_c, 0, 67, 39
1, 78893, Control_c, 0, 64, 66
1, 78893, Control_c, 0, 67, 40
1, 78908, Control_c, 0, 64, 70
1, 78908, Control_c, 0, 67, 41
1, 78915, Note_off_c, 0, 81, 55
1, 78922, Control_c, 0, 64, 75
1, 78922, Control_c, 0, 67, 41
1, 78937, Control_c, 0, 64, 80
1, 78946, Note_on_c, 0, 72, 39
1, 78952, Control_c, 0, 64, 84
1, 78967, Control_c, 0, 64, 87
1, 78967, Control_c, 0, 67, 42
1, 78982, Control_c, 0, 64, 88
1, 78996, Control_c, 0, 64, 90
1, 78996, Control_c, 0, 67, 43
1, 79011, Control_c, 0, 64, 91
1, 79011, Control_c, 0, 67, 45
1, 79020, Note_off_c, 0, 82, 61
1, 79022, Note_off_c, 0, 67, 58
1, 79026, Control_c, 0, 64, 92
1, 79026, Control_c, 0, 67, 49
1, 79041, Control_c, 0, 67, 53
1, 79052, Note_on_c, 0, 79, 65
1, 79053, Note_off_c, 0, 72, 48
1, 79056, Control_c, 0, 64, 93
1, 79056, Control_c, 0, 67, 58
1, 79078, Control_c, 0, 67, 62
1, 79093, Control_c, 0, 67, 65
1, 79108, Control_c, 0, 67, 68
1, 79122, Control_c, 0, 67, 71
1, 79137, Control_c, 0, 67, 74
1, 79152, Control_c, 0, 67, 77
1, 79162, Note_off_c, 0, 70, 38
1, 79167, Control_c, 0, 67, 81
1, 79168, Note_on_c, 0, 69, 48
1, 79182, Control_c, 0, 67, 85
1, 79183, Poly_aftertouch_c, 0, 72, 127
1, 79192, Note_on_c, 0, 67, 37
1, 79196, Control_c, 0, 67, 88
1, 79197, Note_off_c, 0, 79, 48
1, 79211, Control_c, 0, 67, 91
1, 79226, Control_c, 0, 64, 92
1, 79226, Control_c, 0, 67, 92
1, 79241, Control_c, 0, 64, 92
1, 79241, Control_c, 0, 67, 94
1, 79242, Poly_aftertouch_c, 0, 72, 0
1, 79246, Note_off_c, 0, 67, 58
1, 79256, Control_c, 0, 64, 91
1, 79256, Control_c, 0, 67, 95
1, 79270, Control_c, 0, 64, 88
1, 79270, Control_c, 0, 67, 97
1, 79285, Control_c, 0, 64, 81
1, 79285, Control_c, 0, 67, 98
1, 79287, Note_on_c, 0, 81, 56
1, 79300, Control_c, 0, 64, 69
1, 79300, Control_c, 0, 67, 100
1, 79315, Control_c, 0, 64, 39
1, 79315, Control_c, 0, 67, 102
1, 79326, Note_off_c, 0, 81, 0
1, 79326, Note_on_c, 0, 81, 9
1, 79329, Control_c, 0, 64, 0
1, 79329, Control_c, 0, 67, 103
1, 79344, Control_c, 0, 64, 39
1, 79344, Control_c, 0, 67, 104
1, 79359, Control_c, 0, 64, 60
1, 79359, Control_c, 0, 67, 105
1, 79374, Control_c, 0, 64, 66
1, 79374, Control_c, 0, 67, 106
1, 79377, Note_on_c, 0, 65, 46
1, 79388, Control_c, 0, 64, 70
1, 79388, Control_c, 0, 67, 108
1, 79403, Control_c, 0, 64, 77
1, 79403, Control_c, 0, 67, 110
1, 79418, Control_c, 0, 64, 83
1, 79418, Control_c, 0, 67, 113
1, 79433, Control_c, 0, 64, 87
1, 79433, Control_c, 0, 67, 115
1, 79441, Note_off_c, 0, 69, 53
1, 79448, Note_off_c, 0, 81, 36
1, 79449, Control_c, 0, 64, 89
1, 79449, Control_c, 0, 67, 117
1, 79464, Control_c, 0, 64, 90
1, 79464, Control_c, 0, 67, 119
1, 79472, Note_on_c, 0, 70, 44
1, 79479, Control_c, 0, 64, 91
1, 79479, Control_c, 0, 67, 120
1, 79493, Control_c, 0, 64, 91
1, 79493, Control_c, 0, 67, 122
1, 79508, Control_c, 0, 67, 123
1, 79523, Note_off_c, 0, 65, 36
1, 79523, Note_on_c, 0, 77, 58
1, 79523, Control_c, 0, 67, 123
1, 79527, Note_off_c, 0, 70, 42
1, 79538, Control_c, 0, 67, 124
1, 79552, Control_c, 0, 67, 124
1, 79592, Note_on_c, 0, 70, 29
1, 79649, Note_off_c, 0, 77, 35
1, 79652, Note_on_c, 0, 67, 50
1, 79665, Note_on_c, 0, 65, 38
1, 79717, Note_off_c, 0, 65, 45
1, 79729, Note_off_c, 0, 70, 40
1, 79745, Control_c, 0, 64, 91
1, 79752, Note_off_c, 0, 67, 39
1, 79766, Note_on_c, 0, 79, 55
1, 79871, Control_c, 0, 67, 125
1, 79880, Note_off_c, 0, 79, 40
1, 79901, Note_on_c, 0, 70, 37
1, 79944, Control_c, 0, 67, 125
1, 79991, Note_off_c, 0, 70, 61
1, 80018, Control_c, 0, 67, 126
1, 80026, Note_on_c, 0, 75, 50
1, 80033, Control_c, 0, 67, 126
1, 80048, Control_c, 0, 67, 127
1, 80113, Note_on_c, 0, 70, 52
1, 80225, Note_on_c, 0, 66, 48
1, 80232, Poly_aftertouch_c, 0, 63, 127
1, 80232, Note_off_c, 0, 75, 25
1, 80255, Poly_aftertouch_c, 0, 63, 0
1, 80316, Control_c, 0, 64, 90
1, 80319, Note_off_c, 0, 70, 20
1, 80330, Control_c, 0, 64, 90
1, 80345, Control_c, 0, 64, 89
1, 80357, Note_on_c, 0, 78, 58
1, 80360, Control_c, 0, 64, 86
1, 80375, Control_c, 0, 64, 80
1, 80390, Control_c, 0, 64, 71
1, 80405, Control_c, 0, 64, 60
1, 80420, Control_c, 0, 64, 34
1, 80435, Control_c, 0, 64, 54
1, 80450, Control_c, 0, 64, 64
1, 80465, Control_c, 0, 64, 68
1, 80477, Note_off_c, 0, 78, 64
1, 80480, Control_c, 0, 64, 73
1, 80483, Note_on_c, 0, 62, 27
1, 80494, Control_c, 0, 64, 79
1, 80509, Control_c, 0, 64, 85
1, 80524, Control_c, 0, 64, 89
1, 80539, Control_c, 0, 64, 92
1, 80549, Note_off_c, 0, 66, 62
1, 80554, Control_c, 0, 64, 93
1, 80569, Note_on_c, 0, 69, 32
1, 80575, Control_c, 0, 64, 94
1, 80620, Note_off_c, 0, 69, 47
1, 80640, Note_on_c, 0, 74, 46
1, 80645, Note_off_c, 0, 62, 38
1, 80707, Note_off_c, 0, 74, 48
1, 80718, Note_on_c, 0, 69, 32
1, 80754, Note_off_c, 0, 69, 52
1, 80774, Note_on_c, 0, 62, 39
1, 80801, Note_off_c, 0, 62, 59
1, 80805, Note_on_c, 0, 54, 39
1, 80858, Note_on_c, 0, 66, 62
1, 80882, Note_off_c, 0, 66, 67
1, 80959, Note_off_c, 0, 54, 38
1, 81005, Note_on_c, 0, 57, 32
1, 81040, Note_off_c, 0, 57, 54
1, 81051, Note_on_c, 0, 62, 58
1, 81135, Note_off_c, 0, 62, 61
1, 81153, Note_on_c, 0, 57, 25
1, 81195, Note_off_c, 0, 57, 40
1, 81210, Note_on_c, 0, 42, 54
1, 81275, Note_on_c, 0, 54, 66
1, 81326, Note_off_c, 0, 54, 61
1, 81369, Note_off_c, 0, 42, 55
1, 81427, Note_on_c, 0, 45, 45
1, 81481, Note_off_c, 0, 45, 61
1, 81502, Note_on_c, 0, 50, 53
1, 81503, Control_c, 0, 64, 94
1, 81562, Control_c, 0, 64, 93
1, 81591, Control_c, 0, 64, 93
1, 81601, Note_on_c, 0, 45, 44
1, 81621, Control_c, 0, 64, 92
1, 81636, Control_c, 0, 64, 91
1, 81651, Control_c, 0, 64, 90
1, 81655, Note_on_c, 0, 38, 47
1, 81666, Note_off_c, 0, 45, 61
1, 81666, Control_c, 0, 64, 86
1, 81681, Control_c, 0, 64, 80
1, 81696, Note_off_c, 0, 50, 53
1, 81696, Control_c, 0, 64, 70
1, 81711, Control_c, 0, 64, 51
1, 81725, Control_c, 0, 64, 0
1, 81745, Note_on_c, 0, 42, 51
1, 81755, Control_c, 0, 64, 58
1, 81770, Control_c, 0, 64, 66
1, 81785, Control_c, 0, 64, 70
1, 81799, Control_c, 0, 64, 76
1, 81806, Note_on_c, 0, 45, 49
1, 81814, Control_c, 0, 64, 81
1, 81820, Note_off_c, 0, 38, 51
1, 81829, Control_c, 0, 64, 85
1, 81839, Note_off_c, 0, 42, 62
1, 81845, Control_c, 0, 64, 88
1, 81846, Note_off_c, 0, 45, 64
1, 81860, Control_c, 0, 64, 90
1, 81867, Note_on_c, 0, 50, 35
1, 81875, Control_c, 0, 64, 91
1, 81889, Control_c, 0, 64, 92
1, 81902, Note_off_c, 0, 50, 43
1, 81904, Control_c, 0, 64, 93
1, 81904, Control_c, 0, 67, 126
1, 81906, Note_on_c, 0, 54, 58
1, 81919, Control_c, 0, 67, 118
1, 81934, Control_c, 0, 64, 93
1, 81934, Control_c, 0, 67, 110
1, 81948, Control_c, 0, 67, 101
1, 81949, Note_off_c, 0, 54, 60
1, 81961, Note_on_c, 0, 62, 61
1, 81963, Control_c, 0, 64, 94
1, 81963, Control_c, 0, 67, 90
1, 81978, Control_c, 0, 64, 94
1, 81978, Control_c, 0, 67, 79
1, 81993, Control_c, 0, 67, 63
1, 82008, Control_c, 0, 67, 48
1, 82020, Note_on_c, 0, 54, 52
1, 82022, Control_c, 0, 64, 95
1, 82022, Control_c, 0, 67, 35
1, 82037, Control_c, 0, 67, 25
1, 82045, Note_off_c, 0, 54, 64
1, 82052, Control_c, 0, 64, 95
1, 82052, Control_c, 0, 67, 18
1, 82070, Note_on_c, 0, 50, 32
1, 82074, Control_c, 0, 67, 14
1, 82089, Control_c, 0, 64, 96
1, 82089, Control_c, 0, 67, 10
1, 82089, Note_off_c, 0, 62, 59
1, 82104, Control_c, 0, 67, 0
1, 82125, Note_on_c, 0, 54, 72
1, 82167, Note_on_c, 0, 57, 61
1, 82170, Note_off_c, 0, 50, 58
1, 82188, Note_off_c, 0, 54, 62
1, 82197, Note_off_c, 0, 57, 64
1, 82227, Note_on_c, 0, 62, 59
1, 82282, Note_on_c, 0, 66, 71
1, 82331, Note_off_c, 0, 62, 60
1, 82343, Note_on_c, 0, 74, 85
1, 82346, Note_off_c, 0, 66, 64
1, 82409, Note_on_c, 0, 66, 63
1, 82444, Control_c, 0, 64, 96
1, 82447, Note_on_c, 0, 62, 67
1, 82459, Control_c, 0, 64, 97
1, 82474, Control_c, 0, 64, 98
1, 82489, Control_c, 0, 64, 99
1, 82503, Note_off_c, 0, 74, 49
1, 82504, Control_c, 0, 64, 100
1, 82518, Control_c, 0, 64, 101
1, 82533, Control_c, 0, 64, 101
1, 82534, Note_off_c, 0, 62, 58
1, 82553, Note_on_c, 0, 78, 82
1, 82563, Control_c, 0, 64, 102
1, 82601, Note_off_c, 0, 78, 65
1, 82608, Control_c, 0, 64, 102
1, 82619, Poly_aftertouch_c, 0, 74, 127
1, 82648, Note_on_c, 0, 62, 63
1, 82656, Note_off_c, 0, 66, 63
1, 82665, Poly_aftertouch_c, 0, 74, 0
1, 82705, Note_on_c, 0, 69, 55
1, 82741, Note_off_c, 0, 62, 59
1, 82746, Note_off_c, 0, 69, 63
1, 82759, Note_on_c, 0, 74, 64
1, 82820, Note_on_c, 0, 69, 61
1, 82831, Note_off_c, 0, 74, 63
1, 82852, Control_c, 0, 64, 102
1, 82867, Control_c, 0, 64, 101
1, 82867, Control_c, 0, 67, 8
1, 82875, Note_off_c, 0, 69, 64
1, 82881, Note_on_c, 0, 62, 53
1, 82882, Control_c, 0, 64, 100
1, 82882, Control_c, 0, 67, 12
1, 82897, Control_c, 0, 64, 97
1, 82897, Control_c, 0, 67, 19
1, 82912, Control_c, 0, 64, 91
1, 82912, Control_c, 0, 67, 29
1, 82923, Note_off_c, 0, 62, 61
1, 82927, Control_c, 0, 64, 80
1, 82927, Control_c, 0, 67, 37
1, 82936, Note_on_c, 0, 38, 48
1, 82942, Control_c, 0, 64, 65
1, 82942, Control_c, 0, 67, 45
1, 82957, Control_c, 0, 64, 0
1, 82957, Control_c, 0, 67, 50
1, 82971, Control_c, 0, 67, 54
1, 82986, Control_c, 0, 67, 58
1, 83001, Control_c, 0, 67, 62
1, 83007, Note_on_c, 0, 42, 38
1, 83016, Control_c, 0, 67, 69
1, 83031, Control_c, 0, 67, 78
1, 83045, Control_c, 0, 67, 87
1, 83060, Control_c, 0, 64, 63
1, 83060, Control_c, 0, 67, 93
1, 83070, Note_on_c, 0, 45, 44
1, 83075, Control_c, 0, 64, 73
1, 83075, Control_c, 0, 67, 96
1, 83089, Control_c, 0, 64, 83
1, 83089, Control_c, 0, 67, 98
1, 83104, Note_on_c, 0, 50, 45
1, 83104, Control_c, 0, 64, 94
1, 83104, Control_c, 0, 67, 100
1, 83119, Control_c, 0, 64, 98
1, 83119, Control_c, 0, 67, 101
1, 83132, Note_off_c, 0, 38, 40
1, 83134, Control_c, 0, 64, 101
1, 83134, Control_c, 0, 67, 103
1, 83140, Note_off_c, 0, 45, 61
1, 83144, Note_off_c, 0, 42, 55
1, 83149, Control_c, 0, 64, 102
1, 83149, Control_c, 0, 67, 105
1, 83156, Note_on_c, 0, 54, 34
1, 83163, Control_c, 0, 64, 103
1, 83163, Control_c, 0, 67, 106
1, 83178, Control_c, 0, 64, 105
1, 83178, Control_c, 0, 67, 107
1, 83193, Control_c, 0, 64, 106
1, 83193, Control_c, 0, 67, 107
1, 83194, Note_off_c, 0, 54, 48
1, 83207, Note_on_c, 0, 62, 51
1, 83208, Control_c, 0, 64, 108
1, 83208, Control_c, 0, 67, 108
1, 83210, Note_off_c, 0, 50, 0
1, 83223, Control_c, 0, 64, 109
1, 83223, Control_c, 0, 67, 109
1, 83234, Note_on_c, 0, 50, 13
1, 83238, Control_c, 0, 64, 110
1, 83238, Control_c, 0, 67, 110
1, 83252, Control_c, 0, 64, 111
1, 83252, Control_c, 0, 67, 112
1, 83267, Control_c, 0, 64, 112
1, 83267, Control_c, 0, 67, 113
1, 83282, Control_c, 0, 64, 112
1, 83282, Control_c, 0, 67, 114
1, 83292, Note_on_c, 0, 54, 33
1, 83296, Control_c, 0, 67, 115
1, 83311, Control_c, 0, 67, 115
1, 83335, Note_off_c, 0, 62, 58
1, 83335, Note_off_c, 0, 54, 39
1, 83341, Control_c, 0, 67, 116
1, 83384, Note_on_c, 0, 54, 38
1, 83386, Control_c, 0, 67, 115
1, 83401, Control_c, 0, 67, 114
1, 83416, Control_c, 0, 67, 113
1, 83431, Control_c, 0, 67, 112
1, 83435, Note_on_c, 0, 57, 51
1, 83436, Note_off_c, 0, 50, 51
1, 83446, Control_c, 0, 67, 111
1, 83460, Control_c, 0, 67, 110
1, 83462, Note_off_c, 0, 54, 58
1, 83469, Note_off_c, 0, 57, 63
1, 83473, Note_on_c, 0, 62, 48
1, 83475, Control_c, 0, 67, 110
1, 83490, Control_c, 0, 67, 109
1, 83541, Note_on_c, 0, 66, 47
1, 83587, Control_c, 0, 67, 110
1, 83589, Note_off_c, 0, 62, 55
1, 83596, Note_off_c, 0, 66, 60
1, 83601, Control_c, 0, 67, 110
1, 83617, Note_on_c, 0, 74, 53
1, 83661, Control_c, 0, 67, 110
1, 83675, Control_c, 0, 67, 109
1, 83690, Control_c, 0, 67, 109
1, 83699, Note_on_c, 0, 66, 47
1, 83705, Control_c, 0, 67, 108
1, 83719, Control_c, 0, 67, 107
1, 83731, Note_on_c, 0, 62, 41
1, 83734, Control_c, 0, 67, 107
1, 83749, Control_c, 0, 67, 106
1, 83776, Note_off_c, 0, 66, 0
1, 83776, Note_on_c, 0, 66, 22
1, 83805, Note_off_c, 0, 62, 52
1, 83808, Control_c, 0, 67, 107
1, 83823, Control_c, 0, 67, 107
1, 83838, Control_c, 0, 67, 108
1, 83853, Control_c, 0, 67, 109
1, 83882, Control_c, 0, 67, 110
1, 83893, Note_on_c, 0, 78, 53
1, 83956, Control_c, 0, 67, 110
1, 83958, Note_off_c, 0, 66, 57
1, 83964, Note_off_c, 0, 78, 49
1, 83971, Control_c, 0, 67, 111
1, 83985, Control_c, 0, 67, 112
1, 83991, Note_off_c, 0, 74, 10
1, 84000, Note_on_c, 0, 62, 24
1, 84015, Control_c, 0, 67, 113
1, 84030, Control_c, 0, 67, 114
1, 84045, Control_c, 0, 67, 115
1, 84063, Note_on_c, 0, 69, 27
1, 84100, Note_on_c, 0, 74, 34
1, 84105, Note_off_c, 0, 69, 52
1, 84128, Note_off_c, 0, 62, 39
1, 84194, Control_c, 0, 64, 112
1, 84206, Note_on_c, 0, 69, 43
1, 84224, Control_c, 0, 64, 111
1, 84230, Note_off_c, 0, 74, 37
1, 84254, Control_c, 0, 64, 111
1, 84269, Control_c, 0, 64, 110
1, 84283, Control_c, 0, 64, 109
1, 84286, Note_on_c, 0, 62, 36
1, 84298, Control_c, 0, 64, 109
1, 84321, Control_c, 0, 64, 108
1, 84336, Control_c, 0, 67, 115
1, 84341, Note_off_c, 0, 69, 56
1, 84350, Control_c, 0, 64, 108
1, 84350, Control_c, 0, 67, 116
1, 84365, Control_c, 0, 64, 107
1, 84365, Control_c, 0, 67, 116
1, 84380, Control_c, 0, 64, 107
1, 84380, Control_c, 0, 67, 117
1, 84395, Control_c, 0, 64, 106
1, 84395, Control_c, 0, 67, 117
1, 84401, Note_off_c, 0, 62, 53
1, 84410, Control_c, 0, 64, 106
1, 84410, Control_c, 0, 67, 121
1, 84424, Control_c, 0, 64, 105
1, 84424, Control_c, 0, 67, 127
1, 84440, Control_c, 0, 64, 105
1, 84455, Control_c, 0, 64, 104
1, 84470, Control_c, 0, 64, 103
1, 84485, Control_c, 0, 64, 103
1, 84499, Control_c, 0, 64, 102
1, 84514, Control_c, 0, 64, 102
1, 84529, Control_c, 0, 64, 101
1, 84543, Control_c, 0, 64, 100
1, 84544, Note_on_c, 0, 35, 37
1, 84558, Control_c, 0, 64, 99
1, 84573, Control_c, 0, 64, 97
1, 84588, Control_c, 0, 64, 95
1, 84603, Control_c, 0, 64, 92
1, 84617, Control_c, 0, 64, 87
1, 84632, Control_c, 0, 64, 80
1, 84647, Control_c, 0, 64, 71
1, 84662, Control_c, 0, 64, 57
1, 84677, Control_c, 0, 64, 0
1, 84766, Control_c, 0, 64, 56
1, 84771, Poly_aftertouch_c, 0, 38, 127
1, 84781, Control_c, 0, 64, 64
1, 84796, Control_c, 0, 64, 67
1, 84810, Control_c, 0, 64, 70
1, 84825, Control_c, 0, 64, 74
1, 84840, Control_c, 0, 64, 79
1, 84855, Control_c, 0, 64, 84
1, 84869, Control_c, 0, 64, 88
1, 84884, Control_c, 0, 64, 91
1, 84894, Note_on_c, 0, 42, 42
1, 84899, Control_c, 0, 64, 95
1, 84900, Note_off_c, 0, 35, 40
1, 84914, Control_c, 0, 64, 98
1, 84921, Poly_aftertouch_c, 0, 38, 0
1, 84928, Control_c, 0, 64, 101
1, 84939, Note_off_c, 0, 42, 62
1, 84943, Control_c, 0, 64, 103
1, 84958, Control_c, 0, 64, 103
1, 84960, Note_on_c, 0, 50, 28
1, 84966, Note_on_c, 0, 54, 36
1, 85037, Note_on_c, 0, 62, 50
1, 85087, Note_off_c, 0, 54, 0
1, 85100, Note_on_c, 0, 54, 28
1, 85129, Note_off_c, 0, 50, 38
1, 85151, Note_off_c, 0, 54, 62
1, 85173, Note_on_c, 0, 47, 55
1, 85187, Note_off_c, 0, 62, 59
1, 85204, Control_c, 0, 67, 124
1, 85219, Control_c, 0, 67, 109
1, 85231, Note_on_c, 0, 50, 53
1, 85234, Control_c, 0, 67, 91
1, 85245, Note_off_c, 0, 47, 54
1, 85248, Control_c, 0, 67, 75
1, 85263, Control_c, 0, 67, 62
1, 85278, Control_c, 0, 67, 50
1, 85286, Note_off_c, 0, 50, 62
1, 85292, Control_c, 0, 67, 39
1, 85295, Note_on_c, 0, 54, 38
1, 85307, Control_c, 0, 67, 29
1, 85322, Control_c, 0, 67, 21
1, 85326, Note_off_c, 0, 54, 52
1, 85337, Control_c, 0, 67, 13
1, 85350, Note_on_c, 0, 62, 38
1, 85352, Control_c, 0, 67, 8
1, 85366, Control_c, 0, 67, 0
1, 85370, Note_on_c, 0, 66, 53
1, 85396, Note_off_c, 0, 62, 46
1, 85404, Note_off_c, 0, 66, 65
1, 85411, Note_on_c, 0, 74, 65
1, 85483, Note_on_c, 0, 66, 58
1, 85501, Note_on_c, 0, 62, 53
1, 85523, Note_off_c, 0, 66, 60
1, 85526, Note_off_c, 0, 74, 39
1, 85538, Note_on_c, 0, 59, 61
1, 85622, Note_off_c, 0, 59, 59
1, 85636, Note_on_c, 0, 66, 66
1, 85680, Note_off_c, 0, 66, 64
1, 85714, Note_on_c, 0, 67, 62
1, 85761, Note_off_c, 0, 62, 57
1, 85771, Note_off_c, 0, 67, 61
1, 85775, Note_on_c, 0, 74, 70
1, 85828, Note_on_c, 0, 67, 55
1, 85876, Note_on_c, 0, 62, 61
1, 85877, Note_off_c, 0, 74, 61
1, 85908, Note_off_c, 0, 67, 62
1, 85934, Note_on_c, 0, 66, 53
1, 85963, Note_off_c, 0, 62, 56
1, 85968, Note_on_c, 0, 78, 72
1, 85991, Note_off_c, 0, 78, 69
1, 86027, Note_off_c, 0, 66, 65
1, 86050, Note_on_c, 0, 62, 55
1, 86110, Note_on_c, 0, 69, 29
1, 86122, Note_off_c, 0, 62, 57
1, 86139, Note_on_c, 0, 74, 65
1, 86176, Note_off_c, 0, 69, 0
1, 86188, Note_on_c, 0, 69, 48
1, 86204, Note_off_c, 0, 74, 60
1, 86234, Control_c, 0, 64, 103
1, 86246, Note_on_c, 0, 62, 56
1, 86249, Control_c, 0, 64, 102
1, 86249, Control_c, 0, 67, 8
1, 86250, Note_off_c, 0, 69, 65
1, 86263, Control_c, 0, 64, 99
1, 86278, Control_c, 0, 64, 95
1, 86278, Control_c, 0, 67, 8
1, 86290, Note_off_c, 0, 62, 59
1, 86293, Control_c, 0, 64, 88
1, 86293, Control_c, 0, 67, 9
1, 86307, Control_c, 0, 64, 80
1, 86307, Control_c, 0, 67, 11
1, 86322, Control_c, 0, 64, 70
1, 86322, Control_c, 0, 67, 14
1, 86337, Control_c, 0, 64, 45
1, 86337, Control_c, 0, 67, 16
1, 86345, Note_on_c, 0, 35, 45
1, 86352, Control_c, 0, 64, 0
1, 86352, Control_c, 0, 67, 19
1, 86367, Control_c, 0, 67, 21
1, 86382, Control_c, 0, 67, 22
1, 86397, Control_c, 0, 67, 23
1, 86412, Control_c, 0, 67, 24
1, 86421, Note_on_c, 0, 38, 27
1, 86426, Control_c, 0, 64, 61
1, 86426, Control_c, 0, 67, 25
1, 86441, Control_c, 0, 64, 69
1, 86441, Control_c, 0, 67, 26
1, 86456, Control_c, 0, 64, 76
1, 86456, Control_c, 0, 67, 26
1, 86471, Control_c, 0, 64, 83
1, 86481, Note_on_c, 0, 42, 51
1, 86486, Control_c, 0, 64, 88
1, 86501, Control_c, 0, 64, 93
1, 86515, Control_c, 0, 64, 97
1, 86516, Note_on_c, 0, 50, 36
1, 86517, Note_off_c, 0, 35, 42
1, 86525, Note_off_c, 0, 42, 63
1, 86527, Note_off_c, 0, 38, 51
1, 86530, Control_c, 0, 64, 101
1, 86545, Control_c, 0, 64, 106
1, 86567, Control_c, 0, 64, 108
1, 86567, Control_c, 0, 67, 26
1, 86578, Note_on_c, 0, 54, 19
1, 86582, Control_c, 0, 64, 110
1, 86582, Control_c, 0, 67, 25
1, 86596, Control_c, 0, 64, 110
1, 86606, Note_on_c, 0, 62, 55
1, 86623, Note_off_c, 0, 50, 0
1, 86629, Note_off_c, 0, 54, 37
1, 86642, Note_on_c, 0, 50, 20
1, 86642, Control_c, 0, 67, 25
1, 86672, Control_c, 0, 67, 24
1, 86678, Note_off_c, 0, 50, 62
1, 86686, Note_on_c, 0, 54, 35
1, 86701, Control_c, 0, 67, 24
1, 86713, Note_off_c, 0, 54, 56
1, 86716, Control_c, 0, 67, 23
1, 86740, Note_off_c, 0, 62, 59
1, 86752, Note_on_c, 0, 47, 59
1, 86760, Control_c, 0, 67, 23
1, 86775, Control_c, 0, 67, 22
1, 86785, Note_on_c, 0, 50, 57
1, 86790, Control_c, 0, 67, 22
1, 86805, Control_c, 0, 67, 21
1, 86820, Control_c, 0, 67, 21
1, 86821, Note_on_c, 0, 54, 60
1, 86833, Note_off_c, 0, 47, 63
1, 86845, Note_off_c, 0, 50, 62
1, 86850, Control_c, 0, 67, 20
1, 86865, Control_c, 0, 67, 19
1, 86874, Note_off_c, 0, 54, 61
1, 86875, Note_on_c, 0, 62, 61
1, 86880, Control_c, 0, 67, 18
1, 86894, Control_c, 0, 67, 16
1, 86909, Control_c, 0, 67, 15
1, 86911, Note_on_c, 0, 66, 63
1, 86924, Control_c, 0, 67, 15
1, 86938, Control_c, 0, 67, 10
1, 86951, Note_off_c, 0, 62, 60
1, 86953, Control_c, 0, 67, 0
1, 86968, Note_on_c, 0, 74, 73
1, 86968, Control_c, 0, 64, 110
1, 86969, Note_off_c, 0, 66, 65
1, 87023, Note_on_c, 0, 66, 69
1, 87060, Note_on_c, 0, 62, 66
1, 87073, Note_off_c, 0, 74, 51
1, 87097, Note_off_c, 0, 66, 65
1, 87100, Note_on_c, 0, 59, 65
1, 87179, Note_off_c, 0, 59, 61
1, 87188, Note_on_c, 0, 66, 78
1, 87209, Note_off_c, 0, 62, 62
1, 87240, Note_off_c, 0, 66, 65
1, 87255, Note_on_c, 0, 62, 52
1, 87273, Note_on_c, 0, 67, 75
1, 87330, Note_off_c, 0, 62, 61
1, 87331, Control_c, 0, 64, 110
1, 87345, Control_c, 0, 64, 111
1, 87353, Note_on_c, 0, 74, 84
1, 87360, Control_c, 0, 64, 111
1, 87363, Note_off_c, 0, 67, 58
1, 87375, Control_c, 0, 64, 112
1, 87390, Control_c, 0, 64, 113
1, 87401, Note_on_c, 0, 67, 54
1, 87405, Control_c, 0, 64, 114
1, 87419, Control_c, 0, 64, 115
1, 87435, Control_c, 0, 64, 115
1, 87449, Note_on_c, 0, 62, 69
1, 87450, Control_c, 0, 64, 116
1, 87497, Note_off_c, 0, 67, 62
1, 87506, Poly_aftertouch_c, 0, 68, 0
1, 87514, Note_on_c, 0, 66, 76
1, 87534, Note_off_c, 0, 62, 60
1, 87554, Note_on_c, 0, 78, 85
1, 87571, Note_off_c, 0, 78, 69
1, 87598, Note_off_c, 0, 74, 41
1, 87619, Note_off_c, 0, 66, 65
1, 87635, Note_on_c, 0, 62, 68
1, 87687, Note_on_c, 0, 69, 59
1, 87720, Note_off_c, 0, 62, 61
1, 87732, Control_c, 0, 64, 116
1, 87741, Note_on_c, 0, 74, 72
1, 87747, Control_c, 0, 64, 115
1, 87752, Note_off_c, 0, 69, 65
1, 87776, Control_c, 0, 64, 115
1, 87791, Control_c, 0, 64, 114
1, 87806, Control_c, 0, 64, 113
1, 87810, Note_on_c, 0, 69, 67
1, 87821, Control_c, 0, 64, 112
1, 87821, Note_off_c, 0, 74, 62
1, 87835, Control_c, 0, 64, 111
1, 87850, Control_c, 0, 64, 109
1, 87857, Note_on_c, 0, 62, 63
1, 87863, Note_off_c, 0, 69, 64
1, 87865, Control_c, 0, 64, 107
1, 87880, Control_c, 0, 64, 104
1, 87894, Control_c, 0, 64, 98
1, 87894, Control_c, 0, 67, 8
1, 87899, Note_off_c, 0, 62, 61
1, 87909, Control_c, 0, 64, 90
1, 87909, Control_c, 0, 67, 11
1, 87924, Control_c, 0, 64, 78
1, 87924, Control_c, 0, 67, 15
1, 87939, Control_c, 0, 64, 62
1, 87939, Control_c, 0, 67, 21
1, 87953, Control_c, 0, 64, 0
1, 87953, Control_c, 0, 67, 28
1, 87968, Control_c, 0, 67, 37
1, 87972, Note_on_c, 0, 31, 40
1, 87983, Control_c, 0, 67, 45
1, 87998, Control_c, 0, 67, 52
1, 88013, Control_c, 0, 67, 59
1, 88018, Note_on_c, 0, 35, 28
1, 88027, Control_c, 0, 67, 65
1, 88042, Control_c, 0, 67, 71
1, 88065, Control_c, 0, 67, 75
1, 88080, Control_c, 0, 64, 64
1, 88080, Control_c, 0, 67, 76
1, 88084, Note_on_c, 0, 38, 39
1, 88094, Control_c, 0, 64, 69
1, 88109, Control_c, 0, 64, 75
1, 88109, Control_c, 0, 67, 76
1, 88124, Control_c, 0, 64, 83
1, 88137, Note_off_c, 0, 31, 38
1, 88139, Control_c, 0, 64, 91
1, 88139, Control_c, 0, 67, 75
1, 88154, Control_c, 0, 64, 97
1, 88155, Note_on_c, 0, 52, 32
1, 88157, Note_off_c, 0, 38, 59
1, 88164, Note_off_c, 0, 35, 37
1, 88168, Control_c, 0, 64, 99
1, 88168, Control_c, 0, 67, 74
1, 88170, Note_on_c, 0, 54, 35
1, 88183, Control_c, 0, 64, 102
1, 88183, Control_c, 0, 67, 74
1, 88198, Control_c, 0, 64, 105
1, 88198, Control_c, 0, 67, 73
1, 88212, Note_off_c, 0, 54, 48
1, 88213, Note_off_c, 0, 52, 56
1, 88213, Control_c, 0, 64, 108
1, 88213, Control_c, 0, 67, 72
1, 88228, Control_c, 0, 64, 110
1, 88228, Control_c, 0, 67, 70
1, 88234, Note_on_c, 0, 64, 56
1, 88244, Control_c, 0, 64, 112
1, 88244, Control_c, 0, 67, 69
1, 88258, Control_c, 0, 64, 114
1, 88258, Control_c, 0, 67, 68
1, 88273, Control_c, 0, 64, 115
1, 88273, Control_c, 0, 67, 66
1, 88288, Control_c, 0, 64, 118
1, 88288, Control_c, 0, 67, 65
1, 88289, Note_on_c, 0, 52, 50
1, 88303, Note_on_c, 0, 54, 45
1, 88303, Control_c, 0, 64, 121
1, 88303, Control_c, 0, 67, 64
1, 88317, Control_c, 0, 64, 125
1, 88317, Control_c, 0, 67, 62
1, 88320, Note_off_c, 0, 52, 67
1, 88332, Control_c, 0, 64, 127
1, 88332, Control_c, 0, 67, 58
1, 88339, Note_off_c, 0, 54, 64
1, 88347, Control_c, 0, 67, 55
1, 88362, Control_c, 0, 67, 51
1, 88377, Control_c, 0, 67, 46
1, 88391, Note_off_c, 0, 64, 62
1, 88391, Control_c, 0, 67, 43
1, 88406, Control_c, 0, 67, 39
1, 88421, Control_c, 0, 67, 36
1, 88430, Note_on_c, 0, 43, 34
1, 88433, Note_on_c, 0, 47, 40
1, 88436, Control_c, 0, 67, 34
1, 88451, Control_c, 0, 67, 32
1, 88465, Note_on_c, 0, 50, 46
1, 88465, Control_c, 0, 67, 30
1, 88469, Note_off_c, 0, 43, 48
1, 88480, Control_c, 0, 67, 29
1, 88484, Note_off_c, 0, 47, 60
1, 88495, Control_c, 0, 67, 27
1, 88498, Note_off_c, 0, 50, 58
1, 88510, Control_c, 0, 67, 21
1, 88522, Note_on_c, 0, 64, 54
1, 88525, Control_c, 0, 67, 13
1, 88540, Control_c, 0, 67, 0
1, 88554, Note_on_c, 0, 66, 56
1, 88566, Note_off_c, 0, 64, 58
1, 88594, Note_off_c, 0, 66, 62
1, 88610, Note_on_c, 0, 76, 62
1, 88663, Note_on_c, 0, 66, 64
1, 88686, Note_on_c, 0, 64, 57
1, 88719, Note_off_c, 0, 66, 58
1, 88728, Note_off_c, 0, 76, 33
1, 88737, Note_on_c, 0, 55, 47
1, 88741, Note_off_c, 0, 64, 55
1, 88767, Note_on_c, 0, 59, 56
1, 88792, Note_on_c, 0, 62, 69
1, 88809, Note_off_c, 0, 55, 62
1, 88841, Note_off_c, 0, 59, 61
1, 88859, Note_on_c, 0, 64, 69
1, 88865, Note_off_c, 0, 62, 61
1, 88895, Note_on_c, 0, 67, 70
1, 88927, Note_off_c, 0, 64, 64
1, 88951, Note_off_c, 0, 67, 62
1, 88961, Note_on_c, 0, 76, 75
1, 89011, Note_on_c, 0, 67, 70
1, 89059, Note_on_c, 0, 64, 58
1, 89070, Note_off_c, 0, 76, 56
1, 89076, Note_off_c, 0, 67, 63
1, 89088, Note_on_c, 0, 59, 53
1, 89100, Note_on_c, 0, 62, 65
1, 89127, Note_off_c, 0, 64, 64
1, 89172, Note_on_c, 0, 66, 80
1, 89173, Note_off_c, 0, 59, 61
1, 89204, Note_off_c, 0, 62, 62
1, 89225, Note_on_c, 0, 64, 63
1, 89225, Note_off_c, 0, 66, 67
1, 89261, Note_on_c, 0, 69, 81
1, 89282, Note_off_c, 0, 64, 64
1, 89328, Note_on_c, 0, 76, 86
1, 89332, Note_off_c, 0, 69, 66
1, 89384, Note_on_c, 0, 69, 68
1, 89421, Note_on_c, 0, 64, 68
1, 89463, Note_off_c, 0, 76, 54
1, 89473, Note_on_c, 0, 66, 77
1, 89500, Note_off_c, 0, 64, 60
1, 89506, Note_on_c, 0, 78, 87
1, 89543, Note_off_c, 0, 78, 63
1, 89546, Note_off_c, 0, 69, 47
1, 89589, Note_off_c, 0, 66, 68
1, 89596, Note_on_c, 0, 64, 73
1, 89638, Note_on_c, 0, 71, 71
1, 89664, Note_off_c, 0, 64, 63
1, 89700, Note_on_c, 0, 76, 81
1, 89700, Note_off_c, 0, 71, 61
1, 89765, Note_on_c, 0, 71, 65
1, 89783, Note_off_c, 0, 76, 65
1, 89799, Control_c, 0, 64, 108
1, 89813, Control_c, 0, 64, 91
1, 89818, Note_off_c, 0, 71, 62
1, 89819, Note_on_c, 0, 64, 63
1, 89829, Control_c, 0, 64, 71
1, 89844, Control_c, 0, 64, 0
1, 89850, Note_off_c, 0, 64, 66
1, 89900, Note_on_c, 0, 31, 29
1, 89914, Note_on_c, 0, 35, 39
1, 89918, Control_c, 0, 64, 34
1, 89933, Control_c, 0, 64, 67
1, 89948, Control_c, 0, 64, 76
1, 89962, Control_c, 0, 64, 86
1, 89967, Note_on_c, 0, 38, 48
1, 89977, Control_c, 0, 64, 96
1, 89992, Note_off_c, 0, 35, 55
1, 89992, Control_c, 0, 64, 104
1, 89995, Note_off_c, 0, 31, 37
1, 90003, Note_off_c, 0, 38, 61
1, 90007, Control_c, 0, 64, 110
1, 90012, Note_on_c, 0, 52, 55
1, 90022, Control_c, 0, 64, 117
1, 90036, Control_c, 0, 64, 126
1, 90044, Note_on_c, 0, 54, 51
1, 90051, Control_c, 0, 64, 127
1, 90060, Note_off_c, 0, 52, 62
1, 90089, Note_off_c, 0, 54, 60
1, 90099, Note_on_c, 0, 64, 63
1, 90160, Note_on_c, 0, 52, 64
1, 90170, Note_on_c, 0, 54, 52
1, 90198, Note_off_c, 0, 52, 65
1, 90214, Note_off_c, 0, 54, 64
1, 90248, Note_on_c, 0, 43, 36
1, 90255, Note_on_c, 0, 47, 56
1, 90266, Note_off_c, 0, 64, 63
1, 90308, Note_on_c, 0, 50, 67
1, 90332, Note_off_c, 0, 43, 55
1, 90340, Note_off_c, 0, 47, 64
1, 90353, Note_off_c, 0, 50, 62
1, 90359, Note_on_c, 0, 64, 53
1, 90409, Note_on_c, 0, 66, 70
1, 90441, Note_off_c, 0, 64, 63
1, 90463, Note_off_c, 0, 66, 65
1, 90465, Note_on_c, 0, 76, 78
1, 90519, Note_on_c, 0, 66, 70
1, 90537, Poly_aftertouch_c, 0, 61, 127
1, 90547, Note_on_c, 0, 64, 71
1, 90564, Poly_aftertouch_c, 0, 61, 0
1, 90564, Note_off_c, 0, 76, 59
1, 90585, Note_off_c, 0, 66, 66
1, 90595, Note_on_c, 0, 55, 67
1, 90612, Note_on_c, 0, 59, 70
1, 90639, Note_off_c, 0, 64, 60
1, 90662, Note_on_c, 0, 62, 83
1, 90694, Note_off_c, 0, 55, 63
1, 90712, Note_off_c, 0, 59, 62
1, 90722, Note_on_c, 0, 64, 70
1, 90736, Note_off_c, 0, 62, 60
1, 90766, Note_on_c, 0, 67, 81
1, 90771, Note_off_c, 0, 64, 68
1, 90829, Note_on_c, 0, 76, 87
1, 90831, Note_off_c, 0, 67, 64
1, 90898, Note_on_c, 0, 67, 81
1, 90934, Note_on_c, 0, 64, 74
1, 90941, Note_on_c, 0, 59, 55
1, 90957, Note_on_c, 0, 62, 71
1, 90957, Note_off_c, 0, 67, 60
1, 90965, Note_on_c, 0, 60, 54
1, 90974, Note_off_c, 0, 76, 48
1, 90987, Note_off_c, 0, 60, 58
1, 90996, Note_off_c, 0, 64, 63
1, 91031, Note_on_c, 0, 66, 79
1, 91048, Note_off_c, 0, 59, 62
1, 91074, Note_off_c, 0, 62, 61
1, 91097, Note_on_c, 0, 64, 75
1, 91108, Note_off_c, 0, 66, 66
1, 91146, Note_on_c, 0, 69, 77
1, 91154, Note_off_c, 0, 64, 67
1, 91205, Note_on_c, 0, 76, 90
1, 91214, Note_off_c, 0, 69, 65
1, 91267, Note_on_c, 0, 69, 65
1, 91315, Note_on_c, 0, 64, 69
1, 91346, Note_on_c, 0, 66, 78
1, 91356, Note_off_c, 0, 76, 61
1, 91381, Note_on_c, 0, 78, 99
1, 91384, Note_off_c, 0, 64, 59
1, 91415, Note_off_c, 0, 78, 66
1, 91429, Note_on_c, 0, 76, 17
1, 91454, Note_off_c, 0, 69, 41
1, 91467, Note_off_c, 0, 66, 67
1, 91474, Note_on_c, 0, 64, 74
1, 91487, Note_off_c, 0, 76, 43
1, 91512, Note_on_c, 0, 71, 70
1, 91532, Note_off_c, 0, 64, 65
1, 91577, Note_on_c, 0, 76, 85
1, 91586, Note_off_c, 0, 71, 62
1, 91646, Note_on_c, 0, 71, 72
1, 91679, Note_off_c, 0, 76, 65
1, 91682, Control_c, 0, 64, 121
1, 91697, Control_c, 0, 64, 116
1, 91698, Note_on_c, 0, 64, 62
1, 91712, Note_off_c, 0, 71, 62
1, 91712, Control_c, 0, 64, 111
1, 91726, Control_c, 0, 64, 104
1, 91733, Note_off_c, 0, 64, 65
1, 91741, Control_c, 0, 64, 94
1, 91756, Control_c, 0, 64, 80
1, 91771, Control_c, 0, 64, 64
1, 91785, Note_on_c, 0, 28, 60
1, 91786, Control_c, 0, 64, 0
1, 91852, Note_on_c, 0, 35, 50
1, 91897, Control_c, 0, 64, 58
1, 91905, Note_off_c, 0, 28, 57
1, 91912, Control_c, 0, 64, 70
1, 91921, Note_on_c, 0, 40, 53
1, 91926, Control_c, 0, 64, 77
1, 91938, Note_on_c, 0, 52, 60
1, 91941, Note_off_c, 0, 35, 60
1, 91941, Control_c, 0, 64, 88
1, 91956, Control_c, 0, 64, 98
1, 91963, Note_on_c, 0, 54, 53
1, 91964, Note_off_c, 0, 40, 63
1, 91971, Control_c, 0, 64, 111
1, 91986, Control_c, 0, 64, 127
1, 92007, Note_off_c, 0, 52, 64
1, 92015, Note_off_c, 0, 54, 62
1, 92022, Note_on_c, 0, 64, 70
1, 92072, Note_on_c, 0, 52, 69
1, 92084, Note_on_c, 0, 54, 53
1, 92125, Note_off_c, 0, 52, 66
1, 92132, Note_off_c, 0, 54, 63
1, 92141, Note_on_c, 0, 40, 68
1, 92181, Note_off_c, 0, 64, 64
1, 92195, Note_on_c, 0, 47, 74
1, 92253, Note_off_c, 0, 40, 63
1, 92260, Note_on_c, 0, 52, 68
1, 92270, Note_on_c, 0, 64, 64
1, 92284, Note_off_c, 0, 47, 64
1, 92311, Note_off_c, 0, 52, 65
1, 92326, Note_on_c, 0, 66, 75
1, 92357, Note_off_c, 0, 64, 64
1, 92377, Note_on_c, 0, 76, 83
1, 92379, Note_off_c, 0, 66, 66
1, 92429, Note_on_c, 0, 66, 76
1, 92456, Note_on_c, 0, 64, 82
1, 92478, Note_off_c, 0, 76, 56
1, 92493, Note_on_c, 0, 52, 82
1, 92510, Note_off_c, 0, 66, 65
1, 92520, Control_c, 0, 64, 126
1, 92525, Note_on_c, 0, 55, 70
1, 92525, Note_off_c, 0, 64, 61
1, 92535, Control_c, 0, 64, 98
1, 92557, Control_c, 0, 64, 81
1, 92572, Control_c, 0, 64, 67
1, 92587, Control_c, 0, 64, 64
1, 92602, Note_on_c, 0, 59, 73
1, 92602, Control_c, 0, 64, 69
1, 92617, Control_c, 0, 64, 78
1, 92631, Control_c, 0, 64, 92
1, 92645, Note_on_c, 0, 64, 83
1, 92646, Control_c, 0, 64, 112
1, 92661, Control_c, 0, 64, 127
1, 92666, Note_off_c, 0, 52, 66
1, 92671, Note_on_c, 0, 67, 70
1, 92674, Note_off_c, 0, 55, 65
1, 92689, Note_off_c, 0, 59, 63
1, 92693, Note_off_c, 0, 64, 67
1, 92729, Note_on_c, 0, 76, 85
1, 92741, Note_off_c, 0, 67, 63
1, 92800, Note_on_c, 0, 67, 83
1, 92813, Note_on_c, 0, 64, 83
1, 92814, Note_off_c, 0, 76, 59
1, 92819, Note_on_c, 0, 61, 22
1, 92860, Note_on_c, 0, 55, 77
1, 92862, Note_off_c, 0, 61, 40
1, 92874, Note_off_c, 0, 64, 64
1, 92878, Note_off_c, 0, 67, 58
1, 92883, Control_c, 0, 64, 122
1, 92898, Control_c, 0, 64, 107
1, 92898, Note_on_c, 0, 59, 70
1, 92913, Control_c, 0, 64, 90
1, 92928, Control_c, 0, 64, 71
1, 92943, Control_c, 0, 64, 0
1, 92943, Note_on_c, 0, 62, 87
1, 92972, Control_c, 0, 64, 59
1, 92987, Control_c, 0, 64, 73
1, 92997, Note_on_c, 0, 66, 86
1, 93002, Control_c, 0, 64, 85
1, 93017, Control_c, 0, 64, 97
1, 93027, Note_on_c, 0, 71, 66
1, 93032, Control_c, 0, 64, 104
1, 93047, Control_c, 0, 64, 106
1, 93058, Note_off_c, 0, 66, 65
1, 93062, Control_c, 0, 64, 107
1, 93077, Control_c, 0, 64, 108
1, 93089, Note_off_c, 0, 55, 57
1, 93092, Control_c, 0, 64, 108
1, 93094, Note_on_c, 0, 78, 88
1, 93098, Note_off_c, 0, 59, 57
1, 93110, Note_off_c, 0, 71, 62
1, 93157, Note_on_c, 0, 71, 69
1, 93169, Note_off_c, 0, 62, 58
1, 93173, Note_on_c, 0, 66, 89
1, 93210, Note_on_c, 0, 59, 78
1, 93211, Note_off_c, 0, 78, 59
1, 93232, Note_off_c, 0, 71, 63
1, 93239, Control_c, 0, 64, 108
1, 93253, Note_on_c, 0, 62, 79
1, 93254, Control_c, 0, 64, 105
1, 93255, Note_off_c, 0, 66, 66
1, 93265, Note_on_c, 0, 60, 15
1, 93269, Control_c, 0, 64, 97
1, 93284, Control_c, 0, 64, 81
1, 93303, Note_on_c, 0, 64, 94
1, 93306, Control_c, 0, 64, 62
1, 93309, Note_off_c, 0, 60, 52
1, 93321, Control_c, 0, 64, 0
1, 93331, Note_off_c, 0, 59, 63
1, 93343, Note_off_c, 0, 62, 64
1, 93351, Control_c, 0, 64, 56
1, 93363, Note_on_c, 0, 67, 79
1, 93366, Control_c, 0, 64, 71
1, 93380, Control_c, 0, 64, 82
1, 93395, Control_c, 0, 64, 94
1, 93402, Note_on_c, 0, 71, 63
1, 93410, Control_c, 0, 64, 101
1, 93425, Control_c, 0, 64, 104
1, 93440, Control_c, 0, 64, 106
1, 93452, Note_off_c, 0, 67, 62
1, 93454, Control_c, 0, 64, 107
1, 93467, Note_on_c, 0, 79, 91
1, 93484, Control_c, 0, 64, 108
1, 93485, Note_off_c, 0, 71, 62
1, 93515, Note_off_c, 0, 64, 48
1, 93527, Note_on_c, 0, 71, 66
1, 93548, Note_on_c, 0, 59, 77
1, 93551, Note_on_c, 0, 67, 84
1, 93579, Note_off_c, 0, 79, 59
1, 93598, Note_off_c, 0, 71, 61
1, 93602, Note_on_c, 0, 62, 55
1, 93617, Control_c, 0, 64, 107
1, 93620, Note_off_c, 0, 67, 61
1, 93624, Note_on_c, 0, 61, 40
1, 93626, Note_on_c, 0, 66, 96
1, 93631, Control_c, 0, 64, 103
1, 93646, Control_c, 0, 64, 94
1, 93655, Note_off_c, 0, 61, 33
1, 93661, Control_c, 0, 64, 77
1, 93676, Control_c, 0, 64, 54
1, 93691, Control_c, 0, 64, 0
1, 93706, Control_c, 0, 64, 28
1, 93721, Note_on_c, 0, 69, 77
1, 93721, Control_c, 0, 64, 68
1, 93731, Note_on_c, 0, 74, 69
1, 93736, Control_c, 0, 64, 78
1, 93750, Control_c, 0, 64, 89
1, 93765, Control_c, 0, 64, 99
1, 93780, Control_c, 0, 64, 103
1, 93782, Note_off_c, 0, 69, 68
1, 93795, Control_c, 0, 64, 105
1, 93805, Note_on_c, 0, 81, 94
1, 93810, Control_c, 0, 64, 105
1, 93822, Note_off_c, 0, 59, 60
1, 93823, Note_off_c, 0, 74, 65
1, 93825, Control_c, 0, 64, 106
1, 93828, Note_off_c, 0, 62, 35
1, 93884, Note_on_c, 0, 74, 71
1, 93898, Note_on_c, 0, 69, 80
1, 93905, Note_off_c, 0, 66, 64
1, 93918, Note_on_c, 0, 62, 84
1, 93925, Note_off_c, 0, 81, 56
1, 93971, Note_on_c, 0, 66, 76
1, 93973, Note_off_c, 0, 69, 61
1, 93974, Control_c, 0, 64, 102
1, 93989, Note_off_c, 0, 74, 49
1, 93989, Control_c, 0, 64, 91
1, 94003, Control_c, 0, 64, 74
1, 94014, Note_on_c, 0, 67, 91
1, 94018, Control_c, 0, 64, 0
1, 94019, Note_off_c, 0, 62, 63
1, 94055, Control_c, 0, 64, 22
1, 94068, Note_off_c, 0, 66, 66
1, 94069, Control_c, 0, 64, 68
1, 94075, Note_on_c, 0, 65, 4
1, 94076, Note_off_c, 0, 65, 127
1, 94084, Control_c, 0, 64, 79
1, 94095, Note_on_c, 0, 71, 73
1, 94099, Control_c, 0, 64, 92
1, 94114, Control_c, 0, 64, 103
1, 94129, Control_c, 0, 64, 105
1, 94131, Poly_aftertouch_c, 0, 65, 0
1, 94135, Note_on_c, 0, 76, 71
1, 94144, Control_c, 0, 64, 106
1, 94159, Control_c, 0, 64, 106
1, 94162, Note_off_c, 0, 67, 58
1, 94174, Control_c, 0, 64, 107
1, 94175, Note_off_c, 0, 71, 62
1, 94203, Control_c, 0, 64, 107
1, 94205, Note_on_c, 0, 83, 91
1, 94218, Control_c, 0, 64, 108
1, 94228, Note_off_c, 0, 76, 61
1, 94233, Control_c, 0, 64, 108
1, 94274, Note_on_c, 0, 76, 48
1, 94314, Note_on_c, 0, 71, 50
1, 94316, Note_on_c, 0, 74, 35
1, 94339, Note_on_c, 0, 66, 77
1, 94343, Note_off_c, 0, 74, 55
1, 94381, Control_c, 0, 64, 106
1, 94395, Note_on_c, 0, 73, 73
1, 94395, Control_c, 0, 64, 95
1, 94410, Control_c, 0, 64, 78
1, 94422, Note_off_c, 0, 76, 37
1, 94425, Control_c, 0, 64, 43
1, 94439, Control_c, 0, 64, 0
1, 94457, Note_on_c, 0, 78, 94
1, 94484, Control_c, 0, 64, 65
1, 94499, Control_c, 0, 64, 76
1, 94502, Note_off_c, 0, 83, 44
1, 94514, Control_c, 0, 64, 87
1, 94528, Note_off_c, 0, 71, 0
1, 94529, Control_c, 0, 64, 96
1, 94534, Note_off_c, 0, 73, 58
1, 94543, Control_c, 0, 64, 99
1, 94545, Note_on_c, 0, 71, 14
1, 94557, Note_off_c, 0, 66, 66
1, 94558, Control_c, 0, 64, 101
1, 94573, Control_c, 0, 64, 103
1, 94588, Control_c, 0, 64, 105
1, 94603, Control_c, 0, 64, 107
1, 94610, Note_on_c, 0, 76, 56
1, 94670, Note_on_c, 0, 83, 92
1, 94678, Note_off_c, 0, 78, 56
1, 94697, Note_off_c, 0, 71, 53
1, 94710, Note_off_c, 0, 76, 60
1, 94776, Note_on_c, 0, 73, 70
1, 94785, Note_on_c, 0, 76, 16
1, 94785, Note_on_c, 0, 71, 62
1, 94834, Note_on_c, 0, 72, 26
1, 94847, Note_on_c, 0, 78, 71
1, 94866, Note_off_c, 0, 71, 57
1, 94867, Note_off_c, 0, 72, 53
1, 94898, Note_on_c, 0, 85, 95
1, 94916, Note_off_c, 0, 73, 65
1, 94947, Note_off_c, 0, 85, 70
1, 94967, Note_off_c, 0, 83, 56
1, 94977, Note_on_c, 0, 69, 57
1, 94996, Note_off_c, 0, 78, 63
1, 95005, Note_on_c, 0, 74, 65
1, 95050, Note_off_c, 0, 76, 61
1, 95074, Note_off_c, 0, 69, 64
1, 95077, Note_on_c, 0, 81, 93
1, 95095, Note_off_c, 0, 74, 65
1, 95158, Note_on_c, 0, 66, 75
1, 95178, Note_on_c, 0, 74, 48
1, 95181, Note_on_c, 0, 69, 58
1, 95221, Note_on_c, 0, 73, 69
1, 95231, Poly_aftertouch_c, 0, 70, 127
1, 95235, Note_off_c, 0, 69, 60
1, 95271, Note_on_c, 0, 78, 101
1, 95275, Note_off_c, 0, 66, 66
1, 95275, Poly_aftertouch_c, 0, 70, 0
1, 95301, Note_off_c, 0, 73, 64
1, 95313, Note_off_c, 0, 81, 56
1, 95348, Note_on_c, 0, 71, 63
1, 95351, Note_off_c, 0, 78, 62
1, 95426, Note_on_c, 0, 76, 61
1, 95444, Note_off_c, 0, 71, 56
1, 95447, Note_on_c, 0, 83, 88
1, 95467, Note_off_c, 0, 74, 62
1, 95521, Note_on_c, 0, 79, 21
1, 95532, Note_on_c, 0, 73, 69
1, 95565, Note_on_c, 0, 71, 38
1, 95572, Note_off_c, 0, 79, 38
1, 95596, Note_on_c, 0, 78, 74
1, 95621, Note_off_c, 0, 71, 62
1, 95650, Note_on_c, 0, 85, 86
1, 95659, Note_off_c, 0, 73, 64
1, 95685, Note_off_c, 0, 83, 53
1, 95710, Note_off_c, 0, 85, 66
1, 95750, Note_on_c, 0, 69, 56
1, 95763, Note_off_c, 0, 78, 63
1, 95798, Note_on_c, 0, 74, 35
1, 95807, Note_off_c, 0, 69, 58
1, 95830, Note_on_c, 0, 81, 86
1, 95841, Note_off_c, 0, 74, 55
1, 95851, Note_off_c, 0, 76, 56
1, 95914, Note_on_c, 0, 66, 63
1, 95929, Note_on_c, 0, 74, 30
1, 95932, Note_on_c, 0, 69, 50
1, 95972, Note_off_c, 0, 69, 52
1, 95974, Note_on_c, 0, 73, 65
1, 96006, Note_off_c, 0, 81, 51
1, 96013, Note_on_c, 0, 78, 85
1, 96019, Note_off_c, 0, 66, 66
1, 96022, Poly_aftertouch_c, 0, 76, 127
1, 96047, Note_off_c, 0, 73, 62
1, 96092, Note_off_c, 0, 78, 63
1, 96111, Note_off_c, 0, 74, 0
1, 96114, Note_on_c, 0, 71, 56
1, 96128, Note_on_c, 0, 74, 28
1, 96174, Poly_aftertouch_c, 0, 76, 0
1, 96187, Note_on_c, 0, 79, 88
1, 96212, Note_off_c, 0, 74, 60
1, 96233, Note_off_c, 0, 71, 30
1, 96281, Note_on_c, 0, 73, 67
1, 96318, Note_on_c, 0, 74, 32
1, 96325, Note_on_c, 0, 71, 46
1, 96335, Note_on_c, 0, 78, 49
1, 96370, Note_off_c, 0, 74, 46
1, 96403, Note_on_c, 0, 85, 77
1, 96447, Note_off_c, 0, 85, 64
1, 96466, Note_off_c, 0, 73, 60
1, 96484, Note_off_c, 0, 71, 0
1, 96484, Note_on_c, 0, 71, 10
1, 96484, Note_on_c, 0, 74, 45
1, 96487, Note_off_c, 0, 78, 63
1, 96566, Note_off_c, 0, 79, 39
1, 96569, Note_on_c, 0, 78, 85
1, 96576, Note_off_c, 0, 71, 58
1, 96581, Note_off_c, 0, 74, 58
1, 96650, Note_on_c, 0, 74, 38
1, 96654, Note_on_c, 0, 66, 66
1, 96696, Note_off_c, 0, 78, 61
1, 96706, Note_on_c, 0, 73, 62
1, 96719, Note_on_c, 0, 71, 29
1, 96720, Note_off_c, 0, 74, 63
1, 96752, Note_off_c, 0, 66, 64
1, 96761, Note_on_c, 0, 78, 75
1, 96763, Note_off_c, 0, 71, 45
1, 96771, Note_off_c, 0, 73, 64
1, 96824, Note_off_c, 0, 78, 62
1, 96857, Note_on_c, 0, 71, 45
1, 96862, Note_on_c, 0, 72, 42
1, 96900, Note_off_c, 0, 72, 53
1, 96923, Note_on_c, 0, 74, 40
1, 96929, Note_on_c, 0, 76, 61
1, 96944, Note_off_c, 0, 71, 53
1, 96978, Note_off_c, 0, 74, 52
1, 97025, Note_on_c, 0, 73, 52
1, 97067, Note_on_c, 0, 71, 39
1, 97104, Note_on_c, 0, 78, 54
1, 97116, Note_off_c, 0, 71, 57
1, 97149, Note_on_c, 0, 85, 65
1, 97159, Note_off_c, 0, 73, 60
1, 97172, Note_off_c, 0, 76, 37
1, 97172, Note_off_c, 0, 85, 68
1, 97211, Note_off_c, 0, 78, 60
1, 97227, Note_on_c, 0, 69, 57
1, 97294, Note_on_c, 0, 71, 57
1, 97305, Note_off_c, 0, 69, 60
1, 97335, Note_on_c, 0, 74, 65
1, 97335, Note_off_c, 0, 71, 56
1, 97392, Note_on_c, 0, 71, 36
1, 97414, Note_on_c, 0, 66, 45
1, 97432, Note_on_c, 0, 69, 59
1, 97434, Note_off_c, 0, 74, 58
1, 97450, Control_c, 0, 64, 107
1, 97459, Note_on_c, 0, 73, 48
1, 97477, Note_off_c, 0, 69, 60
1, 97497, Note_off_c, 0, 71, 45
1, 97507, Note_on_c, 0, 78, 68
1, 97528, Note_off_c, 0, 66, 58
1, 97537, Note_off_c, 0, 73, 64
1, 97575, Note_off_c, 0, 78, 60
1, 97643, Note_on_c, 0, 71, 28
1, 97679, Note_on_c, 0, 74, 49
1, 97688, Note_off_c, 0, 71, 44
1, 97710, Note_on_c, 0, 76, 66
1, 97793, Note_off_c, 0, 74, 0
1, 97797, Note_on_c, 0, 73, 53
1, 97818, Note_on_c, 0, 71, 46
1, 97831, Poly_aftertouch_c, 0, 74, 127
1, 97840, Note_off_c, 0, 76, 59
1, 97863, Poly_aftertouch_c, 0, 74, 0
1, 97870, Note_on_c, 0, 78, 54
1, 97888, Control_c, 0, 64, 108
1, 97890, Note_off_c, 0, 71, 60
1, 97903, Control_c, 0, 64, 108
1, 97918, Control_c, 0, 64, 109
1, 97933, Control_c, 0, 64, 110
1, 97939, Note_on_c, 0, 85, 65
1, 97948, Control_c, 0, 64, 111
1, 97963, Control_c, 0, 64, 112
1, 97977, Control_c, 0, 64, 112
1, 97984, Note_off_c, 0, 85, 64
1, 98008, Note_on_c, 0, 69, 52
1, 98009, Note_off_c, 0, 73, 61
1, 98024, Note_off_c, 0, 78, 61
1, 98066, Note_on_c, 0, 71, 62
1, 98099, Note_off_c, 0, 69, 60
1, 98121, Note_on_c, 0, 74, 76
1, 98122, Note_off_c, 0, 71, 60
1, 98185, Control_c, 0, 64, 112
1, 98194, Note_on_c, 0, 71, 58
1, 98200, Control_c, 0, 64, 111
1, 98214, Control_c, 0, 64, 111
1, 98229, Control_c, 0, 64, 110
1, 98244, Control_c, 0, 64, 109
1, 98247, Note_on_c, 0, 69, 53
1, 98259, Control_c, 0, 64, 109
1, 98274, Control_c, 0, 64, 108
1, 98288, Control_c, 0, 64, 107
1, 98292, Note_on_c, 0, 66, 61
1, 98303, Control_c, 0, 64, 105
1, 98318, Control_c, 0, 64, 103
1, 98332, Note_off_c, 0, 69, 62
1, 98333, Control_c, 0, 64, 100
1, 98348, Control_c, 0, 64, 93
1, 98362, Control_c, 0, 64, 83
1, 98368, Note_off_c, 0, 71, 22
1, 98377, Control_c, 0, 64, 70
1, 98377, Control_c, 0, 67, 8
1, 98389, Note_on_c, 0, 76, 84
1, 98392, Control_c, 0, 64, 0
1, 98392, Control_c, 0, 67, 11
1, 98407, Control_c, 0, 67, 13
1, 98422, Control_c, 0, 67, 16
1, 98436, Control_c, 0, 67, 19
1, 98451, Control_c, 0, 67, 23
1, 98466, Control_c, 0, 64, 60
1, 98466, Control_c, 0, 67, 27
1, 98481, Control_c, 0, 64, 69
1, 98481, Control_c, 0, 67, 31
1, 98487, Note_off_c, 0, 74, 55
1, 98496, Control_c, 0, 64, 76
1, 98496, Control_c, 0, 67, 34
1, 98498, Note_on_c, 0, 69, 57
1, 98511, Control_c, 0, 64, 86
1, 98511, Control_c, 0, 67, 36
1, 98526, Control_c, 0, 64, 92
1, 98526, Control_c, 0, 67, 36
1, 98548, Control_c, 0, 64, 96
1, 98563, Control_c, 0, 64, 99
1, 98563, Control_c, 0, 67, 36
1, 98569, Note_on_c, 0, 71, 64
1, 98577, Note_off_c, 0, 66, 57
1, 98577, Control_c, 0, 64, 101
1, 98592, Control_c, 0, 64, 103
1, 98600, Note_off_c, 0, 69, 63
1, 98607, Control_c, 0, 64, 104
1, 98615, Note_off_c, 0, 76, 62
1, 98620, Note_on_c, 0, 74, 85
1, 98623, Control_c, 0, 67, 36
1, 98630, Note_off_c, 0, 71, 61
1, 98638, Control_c, 0, 67, 37
1, 98652, Control_c, 0, 64, 105
1, 98652, Control_c, 0, 67, 37
1, 98666, Control_c, 0, 67, 38
1, 98681, Control_c, 0, 64, 105
1, 98681, Control_c, 0, 67, 40
1, 98696, Control_c, 0, 67, 42
1, 98711, Control_c, 0, 67, 44
1, 98719, Note_on_c, 0, 69, 59
1, 98726, Control_c, 0, 67, 46
1, 98741, Control_c, 0, 67, 48
1, 98747, Note_on_c, 0, 66, 72
1, 98755, Control_c, 0, 67, 51
1, 98770, Control_c, 0, 67, 55
1, 98781, Note_off_c, 0, 69, 64
1, 98785, Control_c, 0, 67, 57
1, 98800, Control_c, 0, 67, 59
1, 98814, Note_on_c, 0, 76, 88
1, 98815, Control_c, 0, 64, 103
1, 98815, Control_c, 0, 67, 62
1, 98830, Control_c, 0, 64, 97
1, 98830, Control_c, 0, 67, 67
1, 98844, Control_c, 0, 64, 87
1, 98844, Control_c, 0, 67, 74
1, 98859, Control_c, 0, 64, 70
1, 98859, Control_c, 0, 67, 82
1, 98874, Control_c, 0, 64, 0
1, 98874, Control_c, 0, 67, 89
1, 98889, Control_c, 0, 67, 94
1, 98904, Control_c, 0, 67, 99
1, 98907, Note_on_c, 0, 67, 62
1, 98918, Control_c, 0, 67, 101
1, 98933, Control_c, 0, 67, 103
1, 98948, Control_c, 0, 67, 105
1, 98963, Control_c, 0, 64, 71
1, 98963, Control_c, 0, 67, 107
1, 98978, Control_c, 0, 64, 86
1, 98978, Control_c, 0, 67, 108
1, 98983, Note_on_c, 0, 71, 41
1, 98985, Note_off_c, 0, 74, 38
1, 98986, Note_off_c, 0, 67, 59
1, 98992, Control_c, 0, 64, 113
1, 98992, Control_c, 0, 67, 108
1, 99007, Control_c, 0, 64, 127
1, 99018, Note_on_c, 0, 74, 63
1, 99021, Note_off_c, 0, 76, 58
1, 99036, Note_off_c, 0, 66, 58
1, 99051, Control_c, 0, 67, 107
1, 99066, Control_c, 0, 67, 106
1, 99081, Control_c, 0, 67, 106
1, 99096, Control_c, 0, 67, 105
1, 99098, Note_off_c, 0, 71, 0
1, 99111, Control_c, 0, 67, 105
1, 99114, Note_on_c, 0, 67, 62
1, 99136, Poly_aftertouch_c, 0, 71, 127
1, 99154, Note_on_c, 0, 66, 69
1, 99176, Note_off_c, 0, 67, 60
1, 99209, Note_on_c, 0, 76, 73
1, 99229, Control_c, 0, 64, 125
1, 99244, Control_c, 0, 64, 104
1, 99257, Note_off_c, 0, 74, 24
1, 99259, Control_c, 0, 64, 89
1, 99274, Control_c, 0, 64, 74
1, 99296, Control_c, 0, 64, 64
1, 99311, Control_c, 0, 64, 59
1, 99316, Poly_aftertouch_c, 0, 71, 0
1, 99325, Control_c, 0, 64, 64
1, 99340, Control_c, 0, 64, 71
1, 99355, Control_c, 0, 64, 78
1, 99370, Control_c, 0, 64, 87
1, 99375, Note_off_c, 0, 76, 40
1, 99385, Control_c, 0, 64, 92
1, 99388, Note_off_c, 0, 66, 65
1, 99395, Note_on_c, 0, 71, 49
1, 99399, Control_c, 0, 64, 94
1, 99415, Control_c, 0, 64, 96
1, 99417, Note_on_c, 0, 74, 61
1, 99430, Control_c, 0, 64, 97
1, 99445, Control_c, 0, 64, 98
1, 99460, Control_c, 0, 64, 99
1, 99475, Note_on_c, 0, 66, 58
1, 99501, Note_off_c, 0, 74, 56
1, 99568, Note_off_c, 0, 71, 26
1, 99578, Control_c, 0, 64, 98
1, 99578, Control_c, 0, 67, 105
1, 99593, Control_c, 0, 64, 97
1, 99607, Note_on_c, 0, 76, 66
1, 99608, Control_c, 0, 64, 94
1, 99608, Control_c, 0, 67, 106
1, 99623, Control_c, 0, 64, 88
1, 99638, Control_c, 0, 64, 79
1, 99638, Control_c, 0, 67, 106
1, 99653, Control_c, 0, 64, 66
1, 99667, Control_c, 0, 64, 0
1, 99674, Note_on_c, 0, 64, 52
1, 99682, Control_c, 0, 67, 107
1, 99712, Control_c, 0, 64, 28
1, 99727, Control_c, 0, 64, 64
1, 99741, Control_c, 0, 64, 69
1, 99741, Control_c, 0, 67, 107
1, 99754, Note_on_c, 0, 71, 31
1, 99756, Control_c, 0, 64, 75
1, 99770, Note_off_c, 0, 64, 62
1, 99771, Control_c, 0, 64, 80
1, 99786, Control_c, 0, 64, 83
1, 99790, Note_off_c, 0, 66, 56
1, 99801, Control_c, 0, 64, 86
1, 99811, Note_on_c, 0, 74, 53
1, 99815, Control_c, 0, 64, 87
1, 99830, Control_c, 0, 64, 88
1, 99845, Note_off_c, 0, 76, 38
1, 99874, Control_c, 0, 67, 107
1, 99895, Note_on_c, 0, 64, 51
1, 99939, Note_off_c, 0, 74, 33
1, 99943, Note_off_c, 0, 64, 57
1, 99971, Note_on_c, 0, 66, 51
1, 99993, Control_c, 0, 64, 87
1, 100007, Control_c, 0, 64, 86
1, 100016, Note_off_c, 0, 71, 17
1, 100022, Control_c, 0, 64, 85
1, 100043, Note_on_c, 0, 76, 57
1, 100045, Control_c, 0, 64, 83
1, 100060, Control_c, 0, 64, 79
1, 100074, Control_c, 0, 64, 74
1, 100074, Control_c, 0, 67, 107
1, 100089, Control_c, 0, 64, 66
1, 100104, Control_c, 0, 64, 47
1, 100118, Note_on_c, 0, 62, 46
1, 100119, Control_c, 0, 64, 0
1, 100148, Control_c, 0, 67, 108
1, 100163, Control_c, 0, 64, 54
1, 100178, Control_c, 0, 64, 65
1, 100192, Control_c, 0, 64, 69
1, 100201, Note_on_c, 0, 71, 28
1, 100207, Control_c, 0, 64, 74
1, 100207, Control_c, 0, 67, 108
1, 100220, Note_off_c, 0, 62, 58
1, 100224, Control_c, 0, 64, 80
1, 100227, Note_off_c, 0, 66, 38
1, 100238, Control_c, 0, 64, 85
1, 100253, Control_c, 0, 64, 88
1, 100254, Note_on_c, 0, 74, 59
1, 100268, Control_c, 0, 64, 90
1, 100283, Control_c, 0, 64, 91
1, 100291, Note_off_c, 0, 76, 49
1, 100297, Control_c, 0, 64, 91
1, 100335, Note_off_c, 0, 74, 57
1, 100346, Note_on_c, 0, 62, 51
1, 100379, Note_on_c, 0, 66, 48
1, 100407, Note_off_c, 0, 62, 52
1, 100429, Note_off_c, 0, 71, 17
1, 100431, Control_c, 0, 64, 90
1, 100446, Control_c, 0, 64, 88
1, 100449, Note_on_c, 0, 74, 69
1, 100461, Control_c, 0, 64, 84
1, 100475, Control_c, 0, 64, 77
1, 100490, Control_c, 0, 64, 68
1, 100505, Control_c, 0, 64, 60
1, 100517, Note_on_c, 0, 62, 58
1, 100520, Control_c, 0, 64, 62
1, 100535, Control_c, 0, 64, 67
1, 100550, Control_c, 0, 64, 72
1, 100562, Note_on_c, 0, 69, 57
1, 100564, Control_c, 0, 64, 78
1, 100564, Control_c, 0, 67, 109
1, 100579, Control_c, 0, 64, 84
1, 100579, Control_c, 0, 67, 109
1, 100586, Note_off_c, 0, 66, 54
1, 100594, Control_c, 0, 64, 87
1, 100598, Note_off_c, 0, 74, 56
1, 100606, Note_off_c, 0, 62, 61
1, 100608, Control_c, 0, 64, 89
1, 100608, Control_c, 0, 67, 110
1, 100623, Control_c, 0, 64, 90
1, 100627, Note_on_c, 0, 73, 73
1, 100638, Control_c, 0, 67, 110
1, 100644, Note_off_c, 0, 73, 62
1, 100654, Note_on_c, 0, 72, 66
1, 100656, Note_off_c, 0, 69, 65
1, 100668, Control_c, 0, 67, 112
1, 100682, Control_c, 0, 67, 116
1, 100697, Control_c, 0, 67, 119
1, 100708, Note_on_c, 0, 62, 78
1, 100712, Control_c, 0, 67, 122
1, 100720, Note_off_c, 0, 72, 63
1, 100727, Control_c, 0, 67, 124
1, 100742, Control_c, 0, 67, 126
1, 100756, Control_c, 0, 67, 127
1, 100765, Note_on_c, 0, 66, 73
1, 100765, Note_off_c, 0, 62, 56
1, 100771, Control_c, 0, 64, 89
1, 100794, Control_c, 0, 64, 88
1, 100809, Control_c, 0, 64, 83
1, 100818, Note_on_c, 0, 73, 77
1, 100823, Control_c, 0, 64, 75
1, 100838, Control_c, 0, 64, 64
1, 100853, Control_c, 0, 64, 0
1, 100882, Control_c, 0, 64, 50
1, 100897, Control_c, 0, 64, 67
1, 100904, Note_on_c, 0, 62, 63
1, 100913, Control_c, 0, 64, 74
1, 100928, Control_c, 0, 64, 81
1, 100943, Control_c, 0, 64, 86
1, 100952, Note_off_c, 0, 66, 60
1, 100958, Control_c, 0, 64, 88
1, 100959, Note_on_c, 0, 67, 67
1, 100972, Control_c, 0, 64, 90
1, 100987, Control_c, 0, 64, 90
1, 100996, Note_off_c, 0, 62, 57
1, 101009, Note_on_c, 0, 71, 80
1, 101039, Note_off_c, 0, 67, 63
1, 101050, Note_off_c, 0, 73, 60
1, 101104, Note_on_c, 0, 62, 69
1, 101104, Note_off_c, 0, 71, 58
1, 101121, Control_c, 0, 64, 90
1, 101136, Control_c, 0, 64, 89
1, 101150, Note_on_c, 0, 66, 65
1, 101151, Control_c, 0, 64, 85
1, 101155, Note_off_c, 0, 62, 53
1, 101166, Control_c, 0, 64, 79
1, 101179, Note_on_c, 0, 71, 74
1, 101181, Control_c, 0, 64, 67
1, 101195, Control_c, 0, 64, 0
1, 101239, Control_c, 0, 64, 44
1, 101254, Control_c, 0, 64, 65
1, 101263, Note_on_c, 0, 62, 65
1, 101269, Control_c, 0, 64, 71
1, 101284, Control_c, 0, 64, 78
1, 101299, Control_c, 0, 64, 83
1, 101307, Note_off_c, 0, 71, 52
1, 101313, Control_c, 0, 64, 86
1, 101328, Control_c, 0, 64, 87
1, 101337, Note_off_c, 0, 62, 58
1, 101343, Control_c, 0, 64, 88
1, 101366, Note_on_c, 0, 69, 73
1, 101399, Note_off_c, 0, 66, 55
1, 101438, Note_on_c, 0, 62, 61
1, 101453, Note_off_c, 0, 69, 61
1, 101472, Note_off_c, 0, 62, 55
1, 101477, Control_c, 0, 64, 87
1, 101492, Control_c, 0, 64, 86
1, 101506, Control_c, 0, 64, 83
1, 101516, Note_on_c, 0, 66, 59
1, 101521, Control_c, 0, 64, 76
1, 101537, Note_on_c, 0, 69, 69
1, 101543, Control_c, 0, 64, 65
1, 101558, Control_c, 0, 64, 0
1, 101602, Control_c, 0, 64, 48
1, 101612, Note_on_c, 0, 62, 53
1, 101617, Control_c, 0, 64, 65
1, 101632, Control_c, 0, 64, 71
1, 101647, Control_c, 0, 64, 75
1, 101660, Control_c, 0, 64, 80
1, 101673, Note_on_c, 0, 64, 57
1, 101675, Control_c, 0, 64, 84
1, 101677, Note_off_c, 0, 62, 54
1, 101690, Control_c, 0, 64, 85
1, 101712, Note_off_c, 0, 64, 62
1, 101725, Note_on_c, 0, 67, 62
1, 101791, Note_off_c, 0, 69, 36
1, 101812, Note_on_c, 0, 64, 37
1, 101816, Note_off_c, 0, 67, 58
1, 101827, Note_on_c, 0, 62, 56
1, 101868, Control_c, 0, 64, 84
1, 101883, Note_off_c, 0, 62, 57
1, 101888, Note_off_c, 0, 64, 0
1, 101896, Note_off_c, 0, 66, 55
1, 101898, Control_c, 0, 64, 83
1, 101901, Note_on_c, 0, 64, 36
1, 101913, Control_c, 0, 64, 80
1, 101919, Note_on_c, 0, 67, 68
1, 101928, Control_c, 0, 64, 73
1, 101942, Control_c, 0, 64, 64
1, 101957, Control_c, 0, 64, 0
1, 102002, Control_c, 0, 64, 16
1, 102004, Note_on_c, 0, 59, 51
1, 102017, Control_c, 0, 64, 61
1, 102031, Control_c, 0, 64, 67
1, 102046, Control_c, 0, 64, 71
1, 102060, Note_off_c, 0, 59, 55
1, 102061, Control_c, 0, 64, 76
1, 102072, Note_on_c, 0, 62, 55
1, 102076, Control_c, 0, 64, 80
1, 102091, Control_c, 0, 64, 83
1, 102106, Control_c, 0, 64, 84
1, 102121, Control_c, 0, 64, 84
1, 102145, Note_off_c, 0, 62, 56
1, 102186, Note_on_c, 0, 59, 51
1, 102195, Note_off_c, 0, 64, 56
1, 102225, Note_off_c, 0, 59, 48
1, 102268, Control_c, 0, 64, 84
1, 102288, Note_off_c, 0, 67, 57
1, 102291, Control_c, 0, 64, 83
1, 102291, Note_on_c, 0, 69, 62
1, 102306, Control_c, 0, 64, 82
1, 102316, Note_on_c, 0, 66, 46
1, 102321, Control_c, 0, 64, 78
1, 102335, Control_c, 0, 64, 70
1, 102350, Control_c, 0, 64, 55
1, 102365, Control_c, 0, 64, 0
1, 102401, Note_on_c, 0, 62, 34
1, 102409, Control_c, 0, 64, 29
1, 102424, Control_c, 0, 64, 62
1, 102439, Control_c, 0, 64, 68
1, 102443, Note_off_c, 0, 62, 48
1, 102454, Control_c, 0, 64, 72
1, 102464, Note_on_c, 0, 64, 19
1, 102468, Control_c, 0, 64, 76
1, 102480, Note_on_c, 0, 67, 54
1, 102483, Control_c, 0, 64, 80
1, 102498, Control_c, 0, 64, 83
1, 102513, Control_c, 0, 64, 84
1, 102524, Note_off_c, 0, 69, 57
1, 102528, Control_c, 0, 64, 85
1, 102566, Note_off_c, 0, 67, 55
1, 102578, Note_on_c, 0, 62, 49
1, 102632, Note_off_c, 0, 62, 57
1, 102647, Control_c, 0, 64, 84
1, 102659, Note_off_c, 0, 64, 0
1, 102662, Control_c, 0, 64, 84
1, 102676, Control_c, 0, 64, 83
1, 102677, Note_on_c, 0, 64, 15
1, 102690, Note_on_c, 0, 67, 54
1, 102691, Control_c, 0, 64, 81
1, 102701, Note_off_c, 0, 66, 42
1, 102706, Control_c, 0, 64, 77
1, 102721, Control_c, 0, 64, 69
1, 102736, Control_c, 0, 64, 56
1, 102751, Control_c, 0, 64, 0
1, 102754, Note_on_c, 0, 59, 47
1, 102780, Control_c, 0, 64, 38
1, 102795, Control_c, 0, 64, 62
1, 102810, Control_c, 0, 64, 68
1, 102817, Note_off_c, 0, 59, 54
1, 102825, Control_c, 0, 64, 72
1, 102830, Note_on_c, 0, 62, 53
1, 102839, Control_c, 0, 64, 77
1, 102854, Control_c, 0, 64, 81
1, 102869, Control_c, 0, 64, 84
1, 102884, Control_c, 0, 64, 85
1, 102885, Note_off_c, 0, 64, 0
1, 102885, Note_on_c, 0, 64, 3
1, 102892, Note_off_c, 0, 62, 49
1, 102899, Control_c, 0, 64, 86
1, 102914, Control_c, 0, 64, 86
1, 102953, Note_on_c, 0, 59, 45
1, 102970, Note_off_c, 0, 64, 48
1, 103000, Note_off_c, 0, 59, 45
1, 103019, Note_off_c, 0, 67, 27
1, 103054, Control_c, 0, 64, 86
1, 103069, Control_c, 0, 64, 84
1, 103071, Note_on_c, 0, 61, 38
1, 103081, Note_on_c, 0, 66, 53
1, 103084, Control_c, 0, 64, 81
1, 103099, Control_c, 0, 64, 77
1, 103114, Control_c, 0, 64, 71
1, 103128, Control_c, 0, 64, 64
1, 103143, Control_c, 0, 64, 44
1, 103158, Control_c, 0, 64, 0
1, 103185, Note_on_c, 0, 62, 28
1, 103188, Control_c, 0, 64, 28
1, 103203, Control_c, 0, 64, 62
1, 103217, Control_c, 0, 64, 67
1, 103232, Control_c, 0, 64, 72
1, 103233, Note_off_c, 0, 62, 45
1, 103241, Note_on_c, 0, 64, 33
1, 103247, Control_c, 0, 64, 77
1, 103262, Control_c, 0, 64, 81
1, 103274, Note_off_c, 0, 64, 50
1, 103277, Control_c, 0, 64, 82
1, 103283, Note_on_c, 0, 67, 53
1, 103291, Control_c, 0, 64, 83
1, 103297, Note_off_c, 0, 61, 40
1, 103306, Control_c, 0, 64, 83
1, 103352, Note_off_c, 0, 67, 51
1, 103357, Note_on_c, 0, 64, 27
1, 103385, Note_on_c, 0, 62, 49
1, 103397, Note_off_c, 0, 64, 49
1, 103413, Note_off_c, 0, 66, 39
1, 103424, Note_on_c, 0, 61, 48
1, 103434, Note_off_c, 0, 62, 57
1, 103440, Control_c, 0, 64, 83
1, 103455, Control_c, 0, 64, 82
1, 103470, Control_c, 0, 64, 80
1, 103478, Note_on_c, 0, 64, 59
1, 103485, Control_c, 0, 64, 76
1, 103500, Control_c, 0, 64, 70
1, 103514, Control_c, 0, 64, 62
1, 103529, Control_c, 0, 64, 39
1, 103544, Control_c, 0, 64, 0
1, 103559, Control_c, 0, 64, 40
1, 103561, Note_on_c, 0, 59, 37
1, 103573, Control_c, 0, 64, 60
1, 103588, Control_c, 0, 64, 65
1, 103603, Control_c, 0, 64, 69
1, 103614, Note_off_c, 0, 59, 42
1, 103618, Control_c, 0, 64, 74
1, 103626, Note_on_c, 0, 62, 52
1, 103632, Control_c, 0, 64, 79
1, 103647, Control_c, 0, 64, 82
1, 103662, Control_c, 0, 64, 83
1, 103665, Note_off_c, 0, 64, 0
1, 103665, Note_on_c, 0, 64, 19
1, 103677, Control_c, 0, 64, 84
1, 103681, Note_off_c, 0, 62, 51
1, 103698, Note_off_c, 0, 61, 39
1, 103736, Note_off_c, 0, 64, 56
1, 103742, Note_on_c, 0, 59, 37
1, 103790, Note_off_c, 0, 59, 48
1, 103818, Control_c, 0, 64, 83
1, 103826, Note_on_c, 0, 57, 57
1, 103832, Control_c, 0, 64, 82
1, 103847, Control_c, 0, 64, 80
1, 103849, Note_on_c, 0, 66, 59
1, 103862, Control_c, 0, 64, 72
1, 103877, Control_c, 0, 64, 63
1, 103892, Control_c, 0, 64, 0
1, 103921, Control_c, 0, 64, 57
1, 103936, Control_c, 0, 64, 65
1, 103951, Control_c, 0, 64, 68
1, 103957, Note_on_c, 0, 62, 42
1, 103966, Control_c, 0, 64, 73
1, 103981, Control_c, 0, 64, 77
1, 103996, Control_c, 0, 64, 79
1, 103999, Note_off_c, 0, 57, 59
1, 104005, Note_off_c, 0, 62, 55
1, 104011, Control_c, 0, 64, 80
1, 104023, Note_on_c, 0, 64, 38
1, 104026, Control_c, 0, 64, 81
1, 104040, Control_c, 0, 64, 81
1, 104053, Note_off_c, 0, 64, 51
1, 104056, Note_on_c, 0, 67, 55
1, 104085, Note_off_c, 0, 66, 37
1, 104133, Note_on_c, 0, 64, 36
1, 104139, Note_off_c, 0, 67, 50
1, 104165, Note_on_c, 0, 62, 55
1, 104185, Note_off_c, 0, 64, 42
1, 104188, Control_c, 0, 64, 81
1, 104204, Control_c, 0, 64, 80
1, 104210, Note_off_c, 0, 62, 58
1, 104211, Note_on_c, 0, 55, 64
1, 104219, Control_c, 0, 64, 79
1, 104234, Control_c, 0, 64, 76
1, 104249, Control_c, 0, 64, 68
1, 104251, Note_on_c, 0, 64, 49
1, 104263, Control_c, 0, 64, 50
1, 104278, Control_c, 0, 64, 0
1, 104308, Control_c, 0, 64, 56
1, 104323, Control_c, 0, 64, 65
1, 104337, Control_c, 0, 64, 69
1, 104352, Control_c, 0, 64, 74
1, 104363, Note_off_c, 0, 64, 53
1, 104367, Control_c, 0, 64, 78
1, 104374, Poly_aftertouch_c, 0, 59, 127
1, 104382, Control_c, 0, 64, 81
1, 104392, Note_on_c, 0, 62, 57
1, 104397, Control_c, 0, 64, 82
1, 104404, Note_off_c, 0, 55, 48
1, 104423, Poly_aftertouch_c, 0, 59, 0
1, 104439, Note_on_c, 0, 64, 28
1, 104472, Note_off_c, 0, 62, 55
1, 104497, Note_on_c, 0, 59, 50
1, 104544, Note_off_c, 0, 64, 52
1, 104562, Note_off_c, 0, 59, 57
1, 104582, Control_c, 0, 64, 82
1, 104595, Note_on_c, 0, 54, 71
1, 104597, Control_c, 0, 64, 81
1, 104606, Note_on_c, 0, 66, 58
1, 104611, Control_c, 0, 64, 78
1, 104626, Control_c, 0, 64, 71
1, 104641, Control_c, 0, 64, 57
1, 104656, Control_c, 0, 64, 0
1, 104671, Control_c, 0, 64, 36
1, 104686, Control_c, 0, 64, 62
1, 104701, Control_c, 0, 64, 68
1, 104704, Note_on_c, 0, 62, 41
1, 104716, Control_c, 0, 64, 73
1, 104731, Control_c, 0, 64, 79
1, 104739, Note_off_c, 0, 66, 66
1, 104744, Note_on_c, 0, 64, 57
1, 104745, Control_c, 0, 64, 82
1, 104753, Note_off_c, 0, 62, 47
1, 104760, Control_c, 0, 64, 84
1, 104775, Control_c, 0, 64, 85
1, 104784, Note_off_c, 0, 64, 61
1, 104799, Note_on_c, 0, 67, 57
1, 104818, Note_off_c, 0, 54, 54
1, 104819, Control_c, 0, 67, 122
1, 104834, Control_c, 0, 67, 111
1, 104849, Control_c, 0, 67, 101
1, 104863, Control_c, 0, 67, 92
1, 104875, Note_on_c, 0, 64, 47
1, 104878, Control_c, 0, 67, 85
1, 104887, Note_off_c, 0, 67, 55
1, 104893, Control_c, 0, 67, 78
1, 104908, Control_c, 0, 67, 70
1, 104913, Note_off_c, 0, 64, 54
1, 104914, Note_on_c, 0, 62, 60
1, 104923, Control_c, 0, 67, 62
1, 104938, Control_c, 0, 67, 54
1, 104953, Control_c, 0, 64, 83
1, 104953, Control_c, 0, 67, 46
1, 104954, Note_on_c, 0, 52, 76
1, 104959, Note_off_c, 0, 62, 60
1, 104968, Control_c, 0, 64, 79
1, 104968, Control_c, 0, 67, 38
1, 104979, Note_on_c, 0, 64, 63
1, 104982, Control_c, 0, 64, 71
1, 104982, Control_c, 0, 67, 32
1, 104997, Control_c, 0, 64, 63
1, 104997, Control_c, 0, 67, 26
1, 105013, Control_c, 0, 67, 20
1, 105027, Control_c, 0, 64, 68
1, 105027, Control_c, 0, 67, 11
1, 105033, Note_off_c, 0, 64, 61
1, 105042, Control_c, 0, 64, 74
1, 105042, Control_c, 0, 67, 0
1, 105057, Control_c, 0, 64, 81
1, 105067, Note_on_c, 0, 59, 63
1, 105072, Control_c, 0, 64, 85
1, 105086, Note_off_c, 0, 52, 63
1, 105087, Control_c, 0, 64, 88
1, 105102, Control_c, 0, 64, 89
1, 105117, Control_c, 0, 64, 91
1, 105127, Note_on_c, 0, 62, 66
1, 105132, Note_off_c, 0, 59, 59
1, 105132, Control_c, 0, 64, 91
1, 105146, Control_c, 0, 64, 92
1, 105177, Note_on_c, 0, 64, 56
1, 105197, Note_off_c, 0, 62, 60
1, 105236, Note_on_c, 0, 59, 62
1, 105277, Note_off_c, 0, 59, 48
1, 105282, Note_off_c, 0, 64, 60
1, 105301, Control_c, 0, 64, 91
1, 105310, Note_on_c, 0, 50, 80
1, 105316, Control_c, 0, 64, 89
1, 105331, Control_c, 0, 64, 83
1, 105346, Control_c, 0, 64, 72
1, 105358, Note_on_c, 0, 62, 60
1, 105361, Control_c, 0, 64, 59
1, 105376, Control_c, 0, 64, 51
1, 105391, Control_c, 0, 64, 63
1, 105405, Control_c, 0, 64, 69
1, 105420, Control_c, 0, 64, 75
1, 105435, Control_c, 0, 64, 82
1, 105450, Control_c, 0, 64, 87
1, 105465, Control_c, 0, 64, 90
1, 105470, Note_off_c, 0, 62, 61
1, 105471, Note_on_c, 0, 64, 68
1, 105472, Note_off_c, 0, 50, 61
1, 105479, Control_c, 0, 64, 92
1, 105494, Control_c, 0, 64, 94
1, 105509, Control_c, 0, 64, 94
1, 105515, Note_off_c, 0, 64, 63
1, 105526, Note_on_c, 0, 67, 62
1, 105596, Note_on_c, 0, 64, 58
1, 105624, Note_off_c, 0, 67, 60
1, 105632, Note_on_c, 0, 62, 66
1, 105649, Note_off_c, 0, 64, 55
1, 105660, Note_on_c, 0, 49, 80
1, 105686, Note_on_c, 0, 61, 63
1, 105692, Note_off_c, 0, 62, 61
1, 105701, Control_c, 0, 64, 92
1, 105716, Control_c, 0, 64, 85
1, 105731, Control_c, 0, 64, 75
1, 105746, Control_c, 0, 64, 62
1, 105746, Control_c, 0, 67, 9
1, 105761, Control_c, 0, 64, 0
1, 105761, Control_c, 0, 67, 18
1, 105775, Control_c, 0, 64, 53
1, 105775, Control_c, 0, 67, 34
1, 105787, Note_off_c, 0, 61, 61
1, 105790, Note_on_c, 0, 59, 60
1, 105790, Control_c, 0, 64, 68
1, 105790, Control_c, 0, 67, 49
1, 105806, Control_c, 0, 64, 75
1, 105806, Control_c, 0, 67, 61
1, 105821, Control_c, 0, 64, 83
1, 105821, Control_c, 0, 67, 68
1, 105835, Control_c, 0, 64, 88
1, 105835, Control_c, 0, 67, 74
1, 105842, Note_on_c, 0, 62, 64
1, 105850, Control_c, 0, 64, 89
1, 105850, Control_c, 0, 67, 80
1, 105859, Note_off_c, 0, 59, 55
1, 105865, Control_c, 0, 64, 90
1, 105865, Control_c, 0, 67, 87
1, 105880, Control_c, 0, 64, 91
1, 105880, Control_c, 0, 67, 94
1, 105895, Control_c, 0, 67, 98
1, 105907, Note_on_c, 0, 64, 57
1, 105910, Control_c, 0, 67, 101
1, 105925, Control_c, 0, 67, 101
1, 105926, Note_off_c, 0, 62, 57
1, 105939, Control_c, 0, 67, 102
1, 105954, Control_c, 0, 67, 104
1, 105968, Note_on_c, 0, 59, 66
1, 105969, Control_c, 0, 67, 108
1, 105984, Control_c, 0, 67, 111
1, 105999, Control_c, 0, 67, 111
1, 106008, Note_off_c, 0, 49, 21
1, 106009, Note_off_c, 0, 59, 59
1, 106031, Note_off_c, 0, 64, 61
1, 106050, Note_on_c, 0, 47, 88
1, 106050, Control_c, 0, 67, 112
1, 106065, Control_c, 0, 67, 113
1, 106080, Control_c, 0, 64, 89
1, 106080, Control_c, 0, 67, 115
1, 106095, Control_c, 0, 64, 84
1, 106095, Control_c, 0, 67, 117
1, 106109, Control_c, 0, 64, 73
1, 106109, Control_c, 0, 67, 119
1, 106119, Note_on_c, 0, 59, 56
1, 106124, Control_c, 0, 64, 59
1, 106124, Control_c, 0, 67, 120
1, 106139, Control_c, 0, 64, 22
1, 106139, Control_c, 0, 67, 122
1, 106154, Control_c, 0, 64, 58
1, 106154, Control_c, 0, 67, 125
1, 106169, Control_c, 0, 64, 68
1, 106169, Control_c, 0, 67, 127
1, 106184, Control_c, 0, 64, 74
1, 106199, Control_c, 0, 64, 82
1, 106208, Note_off_c, 0, 59, 54
1, 106214, Control_c, 0, 64, 88
1, 106228, Control_c, 0, 64, 91
1, 106243, Control_c, 0, 64, 91
1, 106261, Note_on_c, 0, 66, 54
1, 106285, Note_off_c, 0, 47, 61
1, 106295, Note_on_c, 0, 64, 20
1, 106299, Note_on_c, 0, 62, 54
1, 106333, Note_off_c, 0, 64, 47
1, 106349, Note_off_c, 0, 66, 57
1, 106362, Note_on_c, 0, 59, 52
1, 106365, Poly_aftertouch_c, 0, 65, 0
1, 106366, Note_off_c, 0, 62, 56
1, 106418, Note_off_c, 0, 59, 42
1, 106439, Note_on_c, 0, 45, 83
1, 106480, Control_c, 0, 64, 90
1, 106495, Control_c, 0, 64, 86
1, 106500, Note_on_c, 0, 57, 65
1, 106509, Control_c, 0, 64, 77
1, 106524, Control_c, 0, 64, 64
1, 106539, Control_c, 0, 64, 0
1, 106552, Note_on_c, 0, 59, 56
1, 106562, Note_on_c, 0, 62, 52
1, 106569, Control_c, 0, 64, 53
1, 106583, Control_c, 0, 64, 67
1, 106599, Control_c, 0, 64, 73
1, 106599, Control_c, 0, 67, 126
1, 106614, Control_c, 0, 64, 80
1, 106614, Control_c, 0, 67, 125
1, 106629, Control_c, 0, 64, 86
1, 106629, Control_c, 0, 67, 125
1, 106637, Note_off_c, 0, 59, 59
1, 106644, Control_c, 0, 64, 89
1, 106644, Control_c, 0, 67, 124
1, 106646, Note_on_c, 0, 64, 69
1, 106647, Note_off_c, 0, 62, 61
1, 106648, Note_off_c, 0, 57, 38
1, 106658, Control_c, 0, 64, 90
1, 106662, Note_off_c, 0, 45, 63
1, 106673, Control_c, 0, 64, 91
1, 106673, Control_c, 0, 67, 123
1, 106688, Control_c, 0, 67, 120
1, 106703, Control_c, 0, 67, 114
1, 106715, Note_on_c, 0, 62, 64
1, 106717, Note_off_c, 0, 64, 63
1, 106718, Control_c, 0, 64, 91
1, 106718, Control_c, 0, 67, 106
1, 106732, Control_c, 0, 64, 92
1, 106732, Control_c, 0, 67, 94
1, 106747, Control_c, 0, 67, 80
1, 106751, Note_on_c, 0, 59, 63
1, 106762, Control_c, 0, 64, 92
1, 106762, Control_c, 0, 67, 63
1, 106785, Control_c, 0, 67, 45
1, 106786, Note_off_c, 0, 62, 61
1, 106800, Control_c, 0, 67, 23
1, 106814, Note_on_c, 0, 43, 92
1, 106814, Control_c, 0, 67, 0
1, 106829, Control_c, 0, 64, 91
1, 106838, Note_off_c, 0, 59, 49
1, 106844, Control_c, 0, 64, 86
1, 106858, Control_c, 0, 64, 75
1, 106873, Control_c, 0, 64, 57
1, 106888, Control_c, 0, 64, 0
1, 106899, Note_on_c, 0, 55, 63
1, 106918, Control_c, 0, 64, 63
1, 106929, Note_on_c, 0, 59, 62
1, 106932, Control_c, 0, 64, 72
1, 106947, Control_c, 0, 64, 80
1, 106962, Control_c, 0, 64, 87
1, 106969, Note_on_c, 0, 62, 63
1, 106977, Control_c, 0, 64, 90
1, 106992, Control_c, 0, 64, 92
1, 107007, Control_c, 0, 64, 93
1, 107018, Note_off_c, 0, 59, 60
1, 107021, Control_c, 0, 64, 93
1, 107036, Control_c, 0, 64, 94
1, 107040, Note_on_c, 0, 66, 74
1, 107040, Note_off_c, 0, 62, 62
1, 107054, Note_off_c, 0, 55, 60
1, 107111, Note_on_c, 0, 62, 68
1, 107120, Note_off_c, 0, 66, 62
1, 107123, Note_off_c, 0, 43, 57
1, 107135, Note_on_c, 0, 59, 71
1, 107178, Note_off_c, 0, 62, 60
1, 107184, Control_c, 0, 64, 91
1, 107194, Note_on_c, 0, 42, 97
1, 107199, Control_c, 0, 64, 83
1, 107208, Note_off_c, 0, 59, 59
1, 107214, Control_c, 0, 64, 67
1, 107226, Note_on_c, 0, 54, 69
1, 107229, Control_c, 0, 64, 0
1, 107240, Note_on_c, 0, 41, 40
1, 107258, Control_c, 0, 64, 63
1, 107273, Control_c, 0, 64, 71
1, 107285, Note_off_c, 0, 41, 47
1, 107288, Note_on_c, 0, 59, 75
1, 107288, Control_c, 0, 64, 79
1, 107303, Control_c, 0, 64, 88
1, 107315, Note_on_c, 0, 64, 62
1, 107318, Control_c, 0, 64, 94
1, 107332, Control_c, 0, 64, 96
1, 107347, Control_c, 0, 64, 98
1, 107355, Note_off_c, 0, 54, 63
1, 107362, Control_c, 0, 64, 98
1, 107378, Note_off_c, 0, 42, 61
1, 107380, Note_off_c, 0, 59, 61
1, 107384, Note_on_c, 0, 67, 73
1, 107401, Note_off_c, 0, 64, 63
1, 107408, Control_c, 0, 64, 99
1, 107466, Note_on_c, 0, 64, 60
1, 107496, Control_c, 0, 64, 99
1, 107499, Note_on_c, 0, 59, 68
1, 107501, Note_off_c, 0, 67, 61
1, 107546, Note_on_c, 0, 40, 101
1, 107555, Note_off_c, 0, 64, 62
1, 107563, Control_c, 0, 64, 99
1, 107578, Control_c, 0, 64, 98
1, 107593, Note_off_c, 0, 59, 59
1, 107593, Control_c, 0, 64, 93
1, 107607, Control_c, 0, 64, 79
1, 107622, Control_c, 0, 64, 62
1, 107630, Note_on_c, 0, 52, 79
1, 107637, Control_c, 0, 64, 0
1, 107663, Note_on_c, 0, 59, 65
1, 107668, Control_c, 0, 64, 55
1, 107682, Control_c, 0, 64, 70
1, 107697, Control_c, 0, 64, 79
1, 107700, Note_off_c, 0, 52, 64
1, 107712, Control_c, 0, 64, 87
1, 107727, Control_c, 0, 64, 91
1, 107728, Note_off_c, 0, 40, 59
1, 107735, Note_on_c, 0, 66, 63
1, 107742, Control_c, 0, 64, 92
1, 107756, Control_c, 0, 64, 93
1, 107758, Note_off_c, 0, 59, 60
1, 107771, Control_c, 0, 64, 93
1, 107786, Control_c, 0, 64, 94
1, 107787, Note_on_c, 0, 69, 73
1, 107810, Note_off_c, 0, 66, 62
1, 107815, Control_c, 0, 64, 94
1, 107830, Control_c, 0, 64, 95
1, 107845, Control_c, 0, 64, 96
1, 107859, Note_on_c, 0, 66, 39
1, 107861, Note_on_c, 0, 59, 72
1, 107867, Note_off_c, 0, 69, 63
1, 107889, Note_off_c, 0, 66, 54
1, 107919, Note_on_c, 0, 38, 104
1, 107929, Note_off_c, 0, 59, 61
1, 107934, Control_c, 0, 64, 95
1, 107949, Control_c, 0, 64, 91
1, 107963, Control_c, 0, 64, 79
1, 107978, Control_c, 0, 64, 0
1, 108021, Note_on_c, 0, 50, 68
1, 108029, Note_on_c, 0, 59, 71
1, 108053, Control_c, 0, 64, 57
1, 108068, Control_c, 0, 64, 69
1, 108082, Control_c, 0, 64, 79
1, 108097, Control_c, 0, 64, 89
1, 108107, Note_on_c, 0, 66, 61
1, 108110, Note_off_c, 0, 50, 61
1, 108112, Control_c, 0, 64, 96
1, 108125, Note_off_c, 0, 59, 61
1, 108127, Control_c, 0, 64, 98
1, 108142, Control_c, 0, 64, 99
1, 108156, Control_c, 0, 64, 100
1, 108164, Note_on_c, 0, 69, 77
1, 108178, Note_off_c, 0, 38, 56
1, 108190, Note_off_c, 0, 66, 63
1, 108202, Control_c, 0, 64, 100
1, 108239, Note_on_c, 0, 59, 76
1, 108249, Note_off_c, 0, 69, 65
1, 108295, Poly_aftertouch_c, 0, 66, 127
1, 108311, Note_off_c, 0, 59, 58
1, 108312, Note_on_c, 0, 37, 97
1, 108312, Control_c, 0, 64, 97
1, 108320, Poly_aftertouch_c, 0, 66, 0
1, 108327, Control_c, 0, 64, 89
1, 108342, Control_c, 0, 64, 74
1, 108357, Control_c, 0, 64, 0
1, 108372, Note_on_c, 0, 39, 13
1, 108417, Note_off_c, 0, 39, 29
1, 108425, Note_on_c, 0, 49, 41
1, 108452, Note_on_c, 0, 59, 63
1, 108461, Control_c, 0, 64, 58
1, 108476, Control_c, 0, 64, 71
1, 108491, Control_c, 0, 64, 82
1, 108502, Note_on_c, 0, 66, 51
1, 108505, Control_c, 0, 64, 96
1, 108520, Control_c, 0, 64, 106
1, 108535, Note_off_c, 0, 59, 61
1, 108535, Control_c, 0, 64, 112
1, 108550, Note_on_c, 0, 69, 66
1, 108550, Control_c, 0, 64, 117
1, 108554, Note_off_c, 0, 37, 62
1, 108565, Control_c, 0, 64, 123
1, 108577, Note_off_c, 0, 49, 35
1, 108579, Control_c, 0, 64, 127
1, 108580, Note_off_c, 0, 66, 0
1, 108594, Note_on_c, 0, 66, 51
1, 108620, Note_off_c, 0, 69, 64
1, 108644, Note_on_c, 0, 59, 66
1, 108661, Note_off_c, 0, 66, 66
1, 108688, Note_off_c, 0, 59, 59
1, 108710, Note_on_c, 0, 35, 100
1, 108712, Control_c, 0, 64, 120
1, 108727, Control_c, 0, 64, 108
1, 108742, Control_c, 0, 64, 91
1, 108757, Control_c, 0, 64, 70
1, 108757, Control_c, 0, 67, 8
1, 108771, Control_c, 0, 64, 0
1, 108771, Control_c, 0, 67, 10
1, 108780, Note_on_c, 0, 38, 30
1, 108786, Control_c, 0, 67, 12
1, 108801, Control_c, 0, 67, 13
1, 108846, Control_c, 0, 67, 12
1, 108846, Note_on_c, 0, 47, 58
1, 108858, Note_on_c, 0, 50, 49
1, 108861, Control_c, 0, 67, 11
1, 108866, Note_on_c, 0, 42, 65
1, 108872, Note_off_c, 0, 35, 62
1, 108876, Control_c, 0, 64, 66
1, 108876, Control_c, 0, 67, 10
1, 108891, Control_c, 0, 64, 77
1, 108891, Control_c, 0, 67, 9
1, 108894, Note_off_c, 0, 38, 58
1, 108905, Control_c, 0, 64, 91
1, 108905, Control_c, 0, 67, 8
1, 108905, Note_off_c, 0, 42, 66
1, 108920, Control_c, 0, 64, 103
1, 108920, Control_c, 0, 67, 0
1, 108930, Note_off_c, 0, 50, 63
1, 108932, Note_on_c, 0, 54, 58
1, 108935, Control_c, 0, 64, 111
1, 108947, Note_off_c, 0, 47, 53
1, 108949, Control_c, 0, 64, 114
1, 108964, Control_c, 0, 64, 120
1, 108979, Control_c, 0, 64, 127
1, 108989, Note_on_c, 0, 50, 47
1, 109043, Note_off_c, 0, 50, 62
1, 109044, Note_off_c, 0, 54, 0
1, 109055, Note_on_c, 0, 54, 41
1, 109086, Note_off_c, 0, 54, 49
1, 109113, Note_on_c, 0, 47, 67
1, 109147, Note_on_c, 0, 50, 65
1, 109194, Note_on_c, 0, 54, 60
1, 109201, Note_off_c, 0, 47, 63
1, 109212, Note_off_c, 0, 50, 63
1, 109215, Note_on_c, 0, 59, 64
1, 109230, Note_off_c, 0, 54, 63
1, 109249, Note_on_c, 0, 62, 58
1, 109296, Note_off_c, 0, 59, 60
1, 109311, Note_off_c, 0, 62, 62
1, 109323, Note_on_c, 0, 66, 61
1, 109362, Note_on_c, 0, 62, 60
1, 109388, Note_off_c, 0, 66, 0
1, 109403, Note_on_c, 0, 66, 53
1, 109440, Note_off_c, 0, 66, 67
1, 109442, Note_off_c, 0, 62, 0
1, 109457, Note_on_c, 0, 59, 66
1, 109463, Note_on_c, 0, 62, 48
1, 109522, Note_on_c, 0, 66, 82
1, 109542, Note_off_c, 0, 59, 63
1, 109546, Note_off_c, 0, 62, 61
1, 109562, Note_on_c, 0, 71, 70
1, 109572, Note_off_c, 0, 66, 63
1, 109605, Note_on_c, 0, 74, 61
1, 109642, Note_off_c, 0, 71, 60
1, 109654, Note_on_c, 0, 78, 77
1, 109656, Note_off_c, 0, 74, 66
1, 109718, Note_on_c, 0, 74, 72
1, 109763, Note_on_c, 0, 71, 67
1, 109809, Note_off_c, 0, 74, 63
1, 109820, Note_on_c, 0, 73, 82
1, 109824, Control_c, 0, 64, 106
1, 109839, Control_c, 0, 64, 84
1, 109843, Note_off_c, 0, 71, 60
1, 109854, Control_c, 0, 64, 63
1, 109858, Poly_aftertouch_c, 0, 79, 127
1, 109869, Control_c, 0, 64, 0
1, 109892, Note_on_c, 0, 85, 98
1, 109898, Control_c, 0, 64, 64
1, 109913, Control_c, 0, 64, 75
1, 109928, Control_c, 0, 64, 91
1, 109943, Control_c, 0, 64, 119
1, 109951, Note_off_c, 0, 85, 70
1, 109958, Control_c, 0, 64, 127
1, 109966, Note_on_c, 0, 69, 64
1, 109968, Poly_aftertouch_c, 0, 79, 0
1, 109973, Note_off_c, 0, 78, 15
1, 109999, Note_off_c, 0, 73, 64
1, 110016, Note_on_c, 0, 76, 57
1, 110057, Note_off_c, 0, 69, 65
1, 110064, Note_on_c, 0, 81, 79
1, 110078, Note_off_c, 0, 76, 64
1, 110128, Note_on_c, 0, 76, 53
1, 110161, Note_off_c, 0, 81, 61
1, 110164, Note_on_c, 0, 69, 69
1, 110187, Note_off_c, 0, 69, 70
1, 110187, Note_off_c, 0, 76, 65
1, 110203, Note_on_c, 0, 61, 71
1, 110251, Note_on_c, 0, 73, 85
1, 110269, Note_off_c, 0, 73, 70
1, 110320, Note_off_c, 0, 61, 63
1, 110362, Note_on_c, 0, 64, 31
1, 110396, Note_off_c, 0, 64, 55
1, 110399, Note_on_c, 0, 69, 67
1, 110471, Note_on_c, 0, 64, 59
1, 110485, Note_off_c, 0, 69, 64
1, 110523, Note_on_c, 0, 57, 60
1, 110533, Note_off_c, 0, 64, 63
1, 110554, Note_off_c, 0, 57, 66
1, 110563, Note_on_c, 0, 49, 66
1, 110605, Note_on_c, 0, 61, 69
1, 110628, Note_off_c, 0, 61, 67
1, 110664, Note_off_c, 0, 49, 61
1, 110736, Note_on_c, 0, 52, 27
1, 110752, Control_c, 0, 67, 8
1, 110767, Control_c, 0, 67, 10
1, 110769, Note_off_c, 0, 52, 62
1, 110774, Note_on_c, 0, 57, 64
1, 110781, Control_c, 0, 67, 12
1, 110796, Control_c, 0, 67, 15
1, 110811, Control_c, 0, 67, 20
1, 110825, Control_c, 0, 67, 26
1, 110840, Control_c, 0, 67, 33
1, 110843, Note_on_c, 0, 52, 58
1, 110855, Control_c, 0, 67, 38
1, 110860, Note_off_c, 0, 57, 62
1, 110870, Control_c, 0, 67, 42
1, 110876, Note_off_c, 0, 52, 53
1, 110885, Control_c, 0, 67, 45
1, 110900, Control_c, 0, 67, 48
1, 110913, Note_on_c, 0, 45, 58
1, 110915, Control_c, 0, 64, 119
1, 110915, Control_c, 0, 67, 51
1, 110918, Note_on_c, 0, 33, 66
1, 110929, Control_c, 0, 64, 112
1, 110929, Control_c, 0, 67, 55
1, 110944, Control_c, 0, 64, 101
1, 110944, Control_c, 0, 67, 60
1, 110959, Control_c, 0, 64, 90
1, 110959, Control_c, 0, 67, 65
1, 110969, Note_off_c, 0, 45, 57
1, 110974, Control_c, 0, 64, 75
1, 110974, Control_c, 0, 67, 68
1, 110988, Note_on_c, 0, 37, 55
1, 110989, Control_c, 0, 64, 46
1, 110989, Control_c, 0, 67, 70
1, 111004, Control_c, 0, 64, 0
1, 111004, Control_c, 0, 67, 70
1, 111025, Note_on_c, 0, 40, 61
1, 111027, Note_off_c, 0, 33, 62
1, 111033, Control_c, 0, 64, 58
1, 111048, Control_c, 0, 64, 72
1, 111053, Note_on_c, 0, 45, 14
1, 111060, Note_off_c, 0, 37, 64
1, 111061, Note_on_c, 0, 49, 49
1, 111063, Control_c, 0, 64, 81
1, 111071, Note_off_c, 0, 40, 64
1, 111078, Control_c, 0, 64, 93
1, 111078, Control_c, 0, 67, 70
1, 111092, Control_c, 0, 64, 104
1, 111092, Control_c, 0, 67, 69
1, 111096, Note_off_c, 0, 45, 52
1, 111107, Control_c, 0, 64, 113
1, 111107, Control_c, 0, 67, 68
1, 111109, Note_off_c, 0, 49, 62
1, 111120, Note_on_c, 0, 52, 52
1, 111122, Control_c, 0, 64, 119
1, 111122, Control_c, 0, 67, 67
1, 111137, Control_c, 0, 64, 127
1, 111137, Control_c, 0, 67, 66
1, 111166, Control_c, 0, 67, 65
1, 111174, Note_on_c, 0, 49, 74
1, 111181, Control_c, 0, 67, 65
1, 111196, Control_c, 0, 67, 64
1, 111201, Note_off_c, 0, 49, 65
1, 111206, Note_off_c, 0, 52, 65
1, 111211, Control_c, 0, 67, 63
1, 111225, Control_c, 0, 67, 62
1, 111239, Note_on_c, 0, 45, 49
1, 111293, Control_c, 0, 67, 61
1, 111294, Note_on_c, 0, 49, 64
1, 111307, Control_c, 0, 67, 61
1, 111322, Control_c, 0, 67, 59
1, 111337, Control_c, 0, 67, 58
1, 111343, Note_on_c, 0, 52, 69
1, 111351, Control_c, 0, 67, 55
1, 111354, Note_off_c, 0, 45, 62
1, 111366, Control_c, 0, 67, 52
1, 111374, Note_off_c, 0, 49, 62
1, 111381, Note_off_c, 0, 52, 64
1, 111381, Control_c, 0, 67, 49
1, 111386, Note_on_c, 0, 57, 49
1, 111397, Control_c, 0, 67, 47
1, 111412, Control_c, 0, 67, 46
1, 111413, Note_off_c, 0, 57, 60
1, 111427, Control_c, 0, 67, 46
1, 111439, Note_on_c, 0, 64, 62
1, 111511, Note_on_c, 0, 61, 72
1, 111532, Note_off_c, 0, 61, 67
1, 111545, Control_c, 0, 67, 45
1, 111549, Note_off_c, 0, 64, 63
1, 111560, Control_c, 0, 67, 45
1, 111570, Note_on_c, 0, 57, 47
1, 111575, Control_c, 0, 67, 43
1, 111590, Control_c, 0, 67, 37
1, 111604, Control_c, 0, 67, 25
1, 111619, Control_c, 0, 67, 9
1, 111624, Note_on_c, 0, 61, 58
1, 111634, Control_c, 0, 67, 0
1, 111668, Note_on_c, 0, 64, 64
1, 111668, Note_off_c, 0, 57, 62
1, 111691, Note_off_c, 0, 61, 62
1, 111696, Note_off_c, 0, 64, 68
1, 111710, Note_on_c, 0, 69, 60
1, 111731, Note_on_c, 0, 73, 54
1, 111770, Note_off_c, 0, 69, 61
1, 111771, Note_off_c, 0, 73, 60
1, 111784, Note_on_c, 0, 76, 65
1, 111833, Note_on_c, 0, 73, 71
1, 111863, Note_on_c, 0, 75, 27
1, 111879, Note_off_c, 0, 76, 56
1, 111899, Note_on_c, 0, 69, 62
1, 111915, Control_c, 0, 64, 127
1, 111924, Note_off_c, 0, 73, 59
1, 111930, Control_c, 0, 64, 121
1, 111945, Control_c, 0, 64, 115
1, 111959, Note_on_c, 0, 71, 61
1, 111959, Control_c, 0, 64, 109
1, 111967, Note_off_c, 0, 69, 63
1, 111974, Control_c, 0, 64, 101
1, 111989, Control_c, 0, 64, 89
1, 112002, Note_off_c, 0, 75, 27
1, 112004, Control_c, 0, 64, 72
1, 112026, Control_c, 0, 64, 27
1, 112041, Control_c, 0, 64, 0
1, 112052, Note_on_c, 0, 83, 83
1, 112071, Control_c, 0, 64, 65
1, 112086, Control_c, 0, 64, 75
1, 112101, Control_c, 0, 64, 88
1, 112101, Note_off_c, 0, 83, 59
1, 112116, Control_c, 0, 64, 99
1, 112130, Control_c, 0, 64, 105
1, 112141, Note_on_c, 0, 67, 41
1, 112143, Note_off_c, 0, 71, 62
1, 112145, Control_c, 0, 64, 108
1, 112160, Control_c, 0, 64, 109
1, 112174, Control_c, 0, 64, 110
1, 112182, Note_on_c, 0, 74, 55
1, 112218, Note_off_c, 0, 74, 63
1, 112221, Note_off_c, 0, 67, 56
1, 112232, Note_on_c, 0, 79, 64
1, 112303, Note_off_c, 0, 79, 60
1, 112305, Note_on_c, 0, 74, 45
1, 112329, Note_off_c, 0, 74, 63
1, 112343, Note_on_c, 0, 67, 54
1, 112366, Note_off_c, 0, 67, 58
1, 112375, Note_on_c, 0, 59, 33
1, 112422, Note_on_c, 0, 71, 56
1, 112441, Note_off_c, 0, 71, 62
1, 112468, Note_off_c, 0, 59, 52
1, 112522, Note_on_c, 0, 62, 50
1, 112545, Control_c, 0, 67, 9
1, 112560, Control_c, 0, 67, 13
1, 112569, Note_off_c, 0, 62, 55
1, 112575, Control_c, 0, 67, 18
1, 112584, Note_on_c, 0, 67, 68
1, 112590, Control_c, 0, 67, 24
1, 112605, Control_c, 0, 67, 31
1, 112620, Control_c, 0, 67, 39
1, 112635, Control_c, 0, 67, 47
1, 112648, Note_off_c, 0, 67, 59
1, 112649, Control_c, 0, 67, 56
1, 112657, Note_on_c, 0, 62, 48
1, 112664, Control_c, 0, 67, 66
1, 112679, Control_c, 0, 67, 73
1, 112687, Note_off_c, 0, 62, 54
1, 112692, Note_on_c, 0, 47, 56
1, 112693, Note_on_c, 0, 55, 39
1, 112694, Control_c, 0, 67, 80
1, 112709, Control_c, 0, 67, 87
1, 112724, Control_c, 0, 67, 94
1, 112725, Note_off_c, 0, 55, 54
1, 112738, Control_c, 0, 67, 100
1, 112753, Control_c, 0, 67, 105
1, 112775, Control_c, 0, 67, 107
1, 112790, Control_c, 0, 67, 108
1, 112795, Note_on_c, 0, 59, 60
1, 112815, Note_off_c, 0, 59, 62
1, 112838, Note_off_c, 0, 47, 64
1, 112908, Control_c, 0, 67, 108
1, 112918, Note_on_c, 0, 50, 47
1, 112923, Control_c, 0, 67, 109
1, 112938, Control_c, 0, 67, 109
1, 112952, Note_off_c, 0, 50, 63
1, 112967, Control_c, 0, 67, 110
1, 112971, Note_on_c, 0, 55, 59
1, 112982, Control_c, 0, 67, 112
1, 112998, Control_c, 0, 67, 116
1, 113013, Control_c, 0, 67, 121
1, 113027, Control_c, 0, 67, 126
1, 113028, Note_off_c, 0, 55, 61
1, 113042, Control_c, 0, 67, 127
1, 113045, Note_on_c, 0, 50, 36
1, 113057, Control_c, 0, 64, 109
1, 113072, Control_c, 0, 64, 109
1, 113082, Note_off_c, 0, 50, 45
1, 113087, Control_c, 0, 64, 108
1, 113094, Note_on_c, 0, 31, 42
1, 113100, Note_on_c, 0, 43, 48
1, 113101, Control_c, 0, 64, 107
1, 113116, Control_c, 0, 64, 105
1, 113131, Control_c, 0, 64, 100
1, 113140, Note_off_c, 0, 43, 48
1, 113146, Control_c, 0, 64, 90
1, 113151, Note_on_c, 0, 35, 48
1, 113161, Control_c, 0, 64, 77
1, 113175, Control_c, 0, 64, 62
1, 113190, Control_c, 0, 64, 0
1, 113211, Note_on_c, 0, 38, 36
1, 113221, Note_off_c, 0, 31, 56
1, 113228, Note_off_c, 0, 35, 61
1, 113234, Note_on_c, 0, 43, 51
1, 113234, Control_c, 0, 64, 65
1, 113248, Note_off_c, 0, 38, 58
1, 113249, Control_c, 0, 64, 72
1, 113264, Control_c, 0, 64, 79
1, 113272, Note_on_c, 0, 47, 56
1, 113279, Control_c, 0, 64, 87
1, 113287, Note_off_c, 0, 43, 58
1, 113293, Control_c, 0, 64, 92
1, 113307, Note_off_c, 0, 47, 63
1, 113308, Control_c, 0, 64, 94
1, 113321, Note_on_c, 0, 50, 49
1, 113323, Control_c, 0, 64, 95
1, 113338, Control_c, 0, 64, 97
1, 113353, Control_c, 0, 64, 98
1, 113368, Control_c, 0, 64, 99
1, 113377, Note_on_c, 0, 47, 63
1, 113383, Control_c, 0, 64, 100
1, 113399, Note_off_c, 0, 47, 63
1, 113404, Note_off_c, 0, 50, 62
1, 113412, Control_c, 0, 64, 100
1, 113457, Note_on_c, 0, 43, 48
1, 113457, Control_c, 0, 67, 121
1, 113472, Control_c, 0, 67, 114
1, 113483, Note_on_c, 0, 47, 63
1, 113486, Control_c, 0, 67, 106
1, 113501, Control_c, 0, 67, 98
1, 113523, Control_c, 0, 67, 91
1, 113536, Note_on_c, 0, 50, 54
1, 113536, Note_off_c, 0, 43, 60
1, 113538, Control_c, 0, 67, 84
1, 113551, Note_off_c, 0, 47, 63
1, 113553, Control_c, 0, 67, 79
1, 113568, Control_c, 0, 67, 76
1, 113569, Note_off_c, 0, 50, 65
1, 113578, Note_on_c, 0, 55, 48
1, 113582, Control_c, 0, 67, 74
1, 113597, Control_c, 0, 67, 72
1, 113611, Note_on_c, 0, 59, 49
1, 113612, Control_c, 0, 67, 67
1, 113614, Note_off_c, 0, 55, 54
1, 113627, Control_c, 0, 67, 56
1, 113642, Control_c, 0, 67, 42
1, 113648, Note_off_c, 0, 59, 63
1, 113657, Control_c, 0, 67, 29
1, 113669, Note_on_c, 0, 62, 50
1, 113672, Control_c, 0, 67, 16
1, 113687, Control_c, 0, 67, 9
1, 113701, Control_c, 0, 67, 0
1, 113751, Note_on_c, 0, 59, 8
1, 113760, Note_off_c, 0, 62, 58
1, 113778, Note_off_c, 0, 59, 0
1, 113782, Note_on_c, 0, 55, 48
1, 113816, Poly_aftertouch_c, 0, 59, 127
1, 113824, Note_on_c, 0, 59, 18
1, 113877, Note_on_c, 0, 62, 60
1, 113883, Note_off_c, 0, 55, 56
1, 113892, Note_off_c, 0, 59, 60
1, 113912, Note_off_c, 0, 62, 63
1, 113941, Note_on_c, 0, 67, 47
1, 113967, Note_on_c, 0, 71, 45
1, 114005, Note_off_c, 0, 67, 62
1, 114011, Note_off_c, 0, 71, 55
1, 114027, Note_on_c, 0, 74, 63
1, 114028, Control_c, 0, 64, 100
1, 114042, Control_c, 0, 64, 99
1, 114057, Control_c, 0, 64, 99
1, 114072, Control_c, 0, 64, 98
1, 114082, Note_on_c, 0, 71, 56
1, 114087, Control_c, 0, 64, 97
1, 114102, Control_c, 0, 64, 96
1, 114131, Control_c, 0, 64, 96
1, 114132, Note_off_c, 0, 74, 56
1, 114146, Control_c, 0, 64, 95
1, 114155, Note_off_c, 0, 71, 57
1, 114161, Control_c, 0, 64, 95
1, 114163, Note_on_c, 0, 67, 46
1, 114176, Control_c, 0, 64, 94
1, 114191, Control_c, 0, 64, 91
1, 114193, Note_on_c, 0, 66, 65
1, 114205, Control_c, 0, 64, 88
1, 114220, Control_c, 0, 64, 82
1, 114235, Control_c, 0, 64, 75
1, 114250, Control_c, 0, 64, 67
1, 114272, Control_c, 0, 64, 46
1, 114287, Control_c, 0, 64, 0
1, 114300, Note_off_c, 0, 67, 48
1, 114343, Note_on_c, 0, 78, 71
1, 114390, Control_c, 0, 64, 56
1, 114405, Control_c, 0, 64, 72
1, 114420, Control_c, 0, 64, 84
1, 114426, Note_on_c, 0, 64, 48
1, 114435, Control_c, 0, 64, 98
1, 114444, Note_off_c, 0, 78, 65
1, 114450, Control_c, 0, 64, 108
1, 114465, Control_c, 0, 64, 114
1, 114480, Control_c, 0, 64, 119
1, 114490, Note_off_c, 0, 66, 66
1, 114495, Control_c, 0, 64, 126
1, 114506, Note_on_c, 0, 70, 52
1, 114510, Control_c, 0, 64, 127
1, 114542, Note_off_c, 0, 70, 64
1, 114543, Note_off_c, 0, 64, 60
1, 114558, Note_on_c, 0, 76, 63
1, 114628, Note_on_c, 0, 70, 57
1, 114636, Note_off_c, 0, 76, 59
1, 114665, Note_off_c, 0, 70, 58
1, 114670, Note_on_c, 0, 64, 54
1, 114691, Note_off_c, 0, 64, 64
1, 114694, Note_on_c, 0, 54, 52
1, 114745, Note_on_c, 0, 66, 69
1, 114763, Note_off_c, 0, 66, 66
1, 114795, Note_off_c, 0, 54, 62
1, 114864, Note_on_c, 0, 58, 63
1, 114912, Note_off_c, 0, 58, 62
1, 114920, Note_on_c, 0, 64, 78
1, 114982, Note_on_c, 0, 58, 65
1, 115025, Note_off_c, 0, 64, 61
1, 115027, Note_on_c, 0, 52, 72
1, 115046, Note_on_c, 0, 30, 70
1, 115066, Control_c, 0, 64, 123
1, 115067, Note_off_c, 0, 58, 61
1, 115074, Note_off_c, 0, 52, 60
1, 115080, Control_c, 0, 64, 114
1, 115095, Control_c, 0, 64, 100
1, 115110, Control_c, 0, 64, 82
1, 115118, Note_on_c, 0, 42, 77
1, 115125, Control_c, 0, 64, 64
1, 115137, Note_off_c, 0, 30, 63
1, 115138, Control_c, 0, 64, 0
1, 115153, Control_c, 0, 64, 61
1, 115168, Control_c, 0, 64, 71
1, 115174, Note_off_c, 0, 42, 64
1, 115175, Note_on_c, 0, 52, 76
1, 115183, Control_c, 0, 64, 82
1, 115198, Control_c, 0, 64, 95
1, 115210, Note_on_c, 0, 57, 62
1, 115213, Control_c, 0, 64, 107
1, 115228, Control_c, 0, 64, 115
1, 115239, Note_off_c, 0, 52, 64
1, 115243, Control_c, 0, 64, 117
1, 115258, Control_c, 0, 64, 117
1, 115275, Note_on_c, 0, 64, 82
1, 115329, Note_on_c, 0, 61, 39
1, 115335, Note_on_c, 0, 52, 72
1, 115349, Note_on_c, 0, 53, 59
1, 115361, Note_off_c, 0, 52, 71
1, 115373, Note_off_c, 0, 53, 67
1, 115386, Note_on_c, 0, 54, 73
1, 115404, Note_off_c, 0, 61, 34
1, 115415, Note_off_c, 0, 57, 56
1, 115437, Note_off_c, 0, 64, 63
1, 115452, Note_on_c, 0, 66, 94
1, 115454, Note_on_c, 0, 60, 18
1, 115474, Note_off_c, 0, 54, 63
1, 115496, Note_off_c, 0, 60, 38
1, 115513, Note_off_c, 0, 66, 66
1, 115552, Note_on_c, 0, 64, 73
1, 115555, Control_c, 0, 64, 117
1, 115569, Note_on_c, 0, 69, 69
1, 115599, Control_c, 0, 64, 116
1, 115613, Control_c, 0, 64, 116
1, 115619, Note_off_c, 0, 64, 63
1, 115628, Control_c, 0, 64, 115
1, 115639, Note_on_c, 0, 76, 87
1, 115644, Note_off_c, 0, 69, 64
1, 115658, Control_c, 0, 64, 115
1, 115687, Control_c, 0, 64, 114
1, 115705, Note_on_c, 0, 69, 39
1, 115717, Control_c, 0, 64, 114
1, 115732, Note_on_c, 0, 64, 69
1, 115732, Control_c, 0, 64, 112
1, 115747, Control_c, 0, 64, 108
1, 115769, Control_c, 0, 64, 98
1, 115770, Note_on_c, 0, 66, 70
1, 115784, Control_c, 0, 64, 83
1, 115799, Control_c, 0, 64, 65
1, 115813, Control_c, 0, 64, 0
1, 115819, Note_off_c, 0, 64, 63
1, 115848, Note_on_c, 0, 78, 96
1, 115873, Control_c, 0, 64, 62
1, 115882, Note_off_c, 0, 76, 56
1, 115888, Control_c, 0, 64, 75
1, 115899, Note_on_c, 0, 79, 21
1, 115902, Note_off_c, 0, 78, 66
1, 115902, Control_c, 0, 64, 91
1, 115917, Control_c, 0, 64, 113
1, 115918, Note_off_c, 0, 69, 59
1, 115931, Note_on_c, 0, 62, 55
1, 115932, Control_c, 0, 64, 126
1, 115934, Poly_aftertouch_c, 0, 72, 0
1, 115936, Note_off_c, 0, 79, 43
1, 115946, Control_c, 0, 64, 127
1, 115948, Note_off_c, 0, 66, 69
1, 115997, Note_on_c, 0, 69, 67
1, 116019, Note_off_c, 0, 62, 60
1, 116045, Note_on_c, 0, 74, 81
1, 116047, Note_off_c, 0, 69, 66
1, 116105, Note_on_c, 0, 69, 68
1, 116135, Note_on_c, 0, 62, 73
1, 116142, Note_off_c, 0, 74, 60
1, 116170, Note_on_c, 0, 54, 58
1, 116170, Note_off_c, 0, 62, 64
1, 116179, Note_off_c, 0, 69, 66
1, 116206, Note_on_c, 0, 66, 84
1, 116230, Note_off_c, 0, 66, 70
1, 116271, Note_off_c, 0, 54, 63
1, 116304, Control_c, 0, 64, 126
1, 116318, Control_c, 0, 64, 126
1, 116333, Control_c, 0, 64, 125
1, 116334, Note_on_c, 0, 57, 64
1, 116348, Control_c, 0, 64, 125
1, 116362, Control_c, 0, 64, 124
1, 116377, Control_c, 0, 64, 123
1, 116387, Note_off_c, 0, 57, 60
1, 116392, Note_on_c, 0, 62, 71
1, 116392, Control_c, 0, 64, 121
1, 116407, Control_c, 0, 64, 119
1, 116422, Control_c, 0, 64, 117
1, 116436, Control_c, 0, 64, 114
1, 116451, Control_c, 0, 64, 109
1, 116466, Control_c, 0, 64, 103
1, 116473, Note_off_c, 0, 62, 59
1, 116481, Control_c, 0, 64, 96
1, 116483, Note_on_c, 0, 57, 37
1, 116491, Note_on_c, 0, 50, 62
1, 116496, Control_c, 0, 64, 85
1, 116518, Control_c, 0, 64, 71
1, 116525, Note_off_c, 0, 57, 49
1, 116528, Note_on_c, 0, 28, 65
1, 116533, Control_c, 0, 64, 0
1, 116542, Note_off_c, 0, 50, 59
1, 116577, Control_c, 0, 67, 8
1, 116591, Note_on_c, 0, 40, 69
1, 116592, Control_c, 0, 67, 0
1, 116601, Note_off_c, 0, 28, 62
1, 116607, Control_c, 0, 64, 66
1, 116622, Control_c, 0, 64, 89
1, 116635, Note_off_c, 0, 40, 65
1, 116636, Control_c, 0, 64, 118
1, 116651, Control_c, 0, 64, 127
1, 116655, Note_on_c, 0, 50, 64
1, 116666, Note_on_c, 0, 55, 63
1, 116717, Note_off_c, 0, 50, 63
1, 116733, Note_on_c, 0, 62, 78
1, 116739, Note_off_c, 0, 55, 64
1, 116784, Note_on_c, 0, 55, 52
1, 116791, Note_on_c, 0, 50, 72
1, 116796, Note_on_c, 0, 54, 27
1, 116814, Note_off_c, 0, 50, 67
1, 116849, Note_on_c, 0, 52, 71
1, 116858, Note_off_c, 0, 54, 41
1, 116866, Note_off_c, 0, 55, 65
1, 116901, Poly_aftertouch_c, 0, 56, 0
1, 116907, Note_off_c, 0, 62, 58
1, 116918, Note_on_c, 0, 64, 89
1, 116939, Note_off_c, 0, 52, 66
1, 116956, Note_off_c, 0, 64, 65
1, 116996, Note_on_c, 0, 64, 58
1, 117040, Note_on_c, 0, 67, 68
1, 117076, Note_off_c, 0, 64, 65
1, 117100, Note_on_c, 0, 74, 79
1, 117109, Note_off_c, 0, 67, 62
1, 117155, Note_on_c, 0, 67, 57
1, 117185, Control_c, 0, 64, 123
1, 117189, Note_on_c, 0, 62, 65
1, 117200, Control_c, 0, 64, 112
1, 117214, Note_on_c, 0, 64, 77
1, 117215, Control_c, 0, 64, 98
1, 117230, Control_c, 0, 64, 81
1, 117245, Control_c, 0, 64, 60
1, 117248, Poly_aftertouch_c, 0, 70, 0
1, 117249, Note_off_c, 0, 74, 53
1, 117267, Control_c, 0, 64, 0
1, 117268, Note_off_c, 0, 67, 57
1, 117290, Note_off_c, 0, 62, 57
1, 117299, Note_on_c, 0, 76, 95
1, 117312, Control_c, 0, 64, 50
1, 117326, Control_c, 0, 64, 71
1, 117340, Note_off_c, 0, 76, 67
1, 117341, Control_c, 0, 64, 85
1, 117356, Control_c, 0, 64, 109
1, 117371, Control_c, 0, 64, 127
1, 117386, Note_on_c, 0, 67, 41
1, 117387, Note_off_c, 0, 64, 65
1, 117458, Note_on_c, 0, 72, 77
1, 117458, Note_off_c, 0, 67, 63
1, 117529, Note_on_c, 0, 67, 60
1, 117552, Note_on_c, 0, 60, 60
1, 117568, Note_off_c, 0, 72, 59
1, 117579, Note_off_c, 0, 60, 66
1, 117579, Note_off_c, 0, 67, 59
1, 117599, Note_on_c, 0, 52, 54
1, 117638, Note_on_c, 0, 64, 83
1, 117653, Note_on_c, 0, 53, 4
1, 117660, Note_off_c, 0, 64, 71
1, 117667, Control_c, 0, 64, 126
1, 117682, Control_c, 0, 64, 123
1, 117696, Note_off_c, 0, 52, 66
1, 117697, Control_c, 0, 64, 120
1, 117703, Note_off_c, 0, 53, 27
1, 117711, Control_c, 0, 64, 117
1, 117726, Control_c, 0, 64, 117
1, 117771, Control_c, 0, 64, 116
1, 117777, Note_on_c, 0, 55, 47
1, 117820, Note_off_c, 0, 55, 65
1, 117831, Control_c, 0, 64, 116
1, 117833, Note_on_c, 0, 60, 60
1, 117846, Control_c, 0, 67, 8
1, 117861, Control_c, 0, 64, 115
1, 117861, Control_c, 0, 67, 9
1, 117876, Control_c, 0, 64, 115
1, 117876, Control_c, 0, 67, 10
1, 117890, Control_c, 0, 64, 114
1, 117890, Control_c, 0, 67, 11
1, 117899, Note_off_c, 0, 60, 58
1, 117901, Note_on_c, 0, 55, 38
1, 117905, Control_c, 0, 64, 112
1, 117905, Control_c, 0, 67, 12
1, 117920, Control_c, 0, 64, 108
1, 117920, Control_c, 0, 67, 13
1, 117923, Note_on_c, 0, 48, 60
1, 117935, Control_c, 0, 64, 104
1, 117950, Note_off_c, 0, 55, 47
1, 117950, Control_c, 0, 64, 99
1, 117952, Note_on_c, 0, 27, 63
1, 117964, Control_c, 0, 64, 89
1, 117969, Note_off_c, 0, 48, 59
1, 117979, Control_c, 0, 64, 75
1, 117994, Control_c, 0, 64, 46
1, 118016, Control_c, 0, 64, 0
1, 118017, Note_on_c, 0, 39, 63
1, 118031, Control_c, 0, 67, 12
1, 118034, Note_off_c, 0, 27, 65
1, 118046, Control_c, 0, 64, 63
1, 118046, Control_c, 0, 67, 12
1, 118061, Control_c, 0, 64, 74
1, 118061, Control_c, 0, 67, 10
1, 118064, Note_off_c, 0, 39, 62
1, 118076, Control_c, 0, 64, 85
1, 118076, Control_c, 0, 67, 9
1, 118086, Note_on_c, 0, 48, 66
1, 118090, Control_c, 0, 64, 96
1, 118090, Control_c, 0, 67, 8
1, 118099, Note_on_c, 0, 54, 56
1, 118105, Control_c, 0, 64, 101
1, 118105, Control_c, 0, 67, 0
1, 118120, Control_c, 0, 64, 101
1, 118135, Control_c, 0, 64, 102
1, 118160, Note_on_c, 0, 60, 68
1, 118160, Note_off_c, 0, 48, 64
1, 118208, Note_on_c, 0, 48, 64
1, 118211, Note_off_c, 0, 54, 0
1, 118221, Note_on_c, 0, 54, 42
1, 118237, Note_off_c, 0, 48, 69
1, 118285, Note_on_c, 0, 51, 76
1, 118290, Note_off_c, 0, 54, 61
1, 118319, Note_off_c, 0, 60, 61
1, 118331, Poly_aftertouch_c, 0, 53, 127
1, 118332, Note_on_c, 0, 63, 93
1, 118364, Note_off_c, 0, 51, 64
1, 118366, Poly_aftertouch_c, 0, 53, 0
1, 118386, Note_off_c, 0, 63, 68
1, 118403, Note_on_c, 0, 60, 69
1, 118465, Note_on_c, 0, 68, 71
1, 118486, Note_off_c, 0, 60, 55
1, 118505, Control_c, 0, 64, 101
1, 118520, Note_off_c, 0, 68, 63
1, 118531, Note_on_c, 0, 74, 58
1, 118534, Note_on_c, 0, 72, 62
1, 118571, Note_off_c, 0, 74, 63
1, 118593, Note_on_c, 0, 66, 79
1, 118641, Note_off_c, 0, 66, 62
1, 118659, Note_on_c, 0, 61, 74
1, 118671, Note_off_c, 0, 72, 65
1, 118697, Note_off_c, 0, 61, 64
1, 118699, Control_c, 0, 64, 101
1, 118701, Note_on_c, 0, 75, 92
1, 118713, Control_c, 0, 64, 100
1, 118743, Control_c, 0, 64, 100
1, 118748, Note_off_c, 0, 75, 67
1, 118784, Note_on_c, 0, 72, 80
1, 118827, Note_on_c, 0, 78, 75
1, 118866, Note_off_c, 0, 72, 64
1, 118877, Note_off_c, 0, 78, 62
1, 118880, Note_on_c, 0, 84, 77
1, 118930, Note_on_c, 0, 78, 79
1, 118960, Note_off_c, 0, 78, 61
1, 118969, Note_off_c, 0, 84, 65
1, 119017, Note_on_c, 0, 74, 76
1, 119089, Note_on_c, 0, 86, 105
1, 119123, Note_off_c, 0, 86, 66
1, 119169, Note_off_c, 0, 74, 65
1, 119185, Note_on_c, 0, 84, 81
1, 119195, Control_c, 0, 64, 100
1, 119210, Control_c, 0, 64, 101
1, 119225, Control_c, 0, 64, 102
1, 119239, Control_c, 0, 64, 104
1, 119243, Note_on_c, 0, 90, 74
1, 119254, Control_c, 0, 64, 105
1, 119267, Note_off_c, 0, 84, 65
1, 119269, Control_c, 0, 64, 107
1, 119284, Control_c, 0, 64, 108
1, 119287, Note_on_c, 0, 96, 105
1, 119305, Note_off_c, 0, 90, 61
1, 119342, Note_on_c, 0, 90, 71
1, 119350, Note_on_c, 0, 93, 40
1, 119371, Note_off_c, 0, 96, 63
1, 119376, Note_on_c, 0, 84, 78
1, 119377, Note_off_c, 0, 93, 54
1, 119408, Note_off_c, 0, 90, 64
1, 119428, Note_off_c, 0, 84, 65
1, 119440, Note_on_c, 0, 62, 65
1, 119468, Note_on_c, 0, 74, 93
1, 119477, Control_c, 0, 64, 108
1, 119511, Note_off_c, 0, 74, 69
1, 119529, Control_c, 0, 64, 109
1, 119557, Note_off_c, 0, 62, 62
1, 119559, Note_on_c, 0, 72, 69
1, 119619, Note_on_c, 0, 78, 74
1, 119637, Note_off_c, 0, 72, 63
1, 119663, Note_on_c, 0, 84, 80
1, 119666, Note_off_c, 0, 78, 63
1, 119676, Control_c, 0, 67, 9
1, 119691, Control_c, 0, 67, 13
1, 119706, Control_c, 0, 67, 19
1, 119714, Note_on_c, 0, 78, 70
1, 119721, Control_c, 0, 67, 25
1, 119723, Note_off_c, 0, 84, 65
1, 119735, Control_c, 0, 67, 30
1, 119750, Note_on_c, 0, 72, 72
1, 119750, Control_c, 0, 67, 35
1, 119761, Note_off_c, 0, 78, 65
1, 119765, Control_c, 0, 67, 38
1, 119780, Control_c, 0, 67, 38
1, 119780, Note_off_c, 0, 72, 64
1, 119808, Note_on_c, 0, 50, 68
1, 119810, Control_c, 0, 67, 38
1, 119824, Control_c, 0, 67, 37
1, 119833, Note_on_c, 0, 62, 63
1, 119839, Control_c, 0, 67, 36
1, 119851, Note_off_c, 0, 62, 64
1, 119854, Control_c, 0, 67, 35
1, 119869, Control_c, 0, 67, 34
1, 119884, Control_c, 0, 67, 33
1, 119892, Note_off_c, 0, 50, 64
1, 119899, Control_c, 0, 67, 31
1, 119914, Control_c, 0, 67, 30
1, 119916, Note_on_c, 0, 60, 64
1, 119928, Control_c, 0, 67, 30
1, 119943, Control_c, 0, 67, 28
1, 119954, Note_on_c, 0, 66, 56
1, 119958, Control_c, 0, 67, 27
1, 119973, Control_c, 0, 67, 27
1, 119976, Note_off_c, 0, 60, 61
1, 119987, Control_c, 0, 67, 26
1, 119994, Note_off_c, 0, 66, 66
1, 120001, Note_on_c, 0, 72, 73
1, 120002, Control_c, 0, 67, 25
1, 120032, Control_c, 0, 67, 24
1, 120053, Note_off_c, 0, 72, 63
1, 120067, Note_on_c, 0, 66, 61
1, 120076, Control_c, 0, 67, 24
1, 120086, Note_off_c, 0, 66, 68
1, 120094, Note_on_c, 0, 60, 60
1, 120105, Control_c, 0, 64, 109
1, 120105, Control_c, 0, 67, 23
1, 120120, Control_c, 0, 64, 110
1, 120128, Note_off_c, 0, 60, 65
1, 120135, Control_c, 0, 64, 115
1, 120150, Note_on_c, 0, 38, 62
1, 120150, Control_c, 0, 64, 127
1, 120165, Control_c, 0, 67, 23
1, 120167, Note_on_c, 0, 50, 66
1, 120206, Note_off_c, 0, 50, 62
1, 120225, Control_c, 0, 67, 23
1, 120239, Note_off_c, 0, 38, 62
1, 120287, Note_on_c, 0, 54, 54
1, 120340, Note_off_c, 0, 54, 61
1, 120342, Note_on_c, 0, 60, 70
1, 120366, Control_c, 0, 67, 24
1, 120405, Note_off_c, 0, 60, 59
1, 120412, Note_on_c, 0, 54, 61
1, 120445, Note_on_c, 0, 48, 65
1, 120456, Control_c, 0, 67, 23
1, 120457, Note_off_c, 0, 54, 61
1, 120480, Note_off_c, 0, 48, 66
1, 120500, Control_c, 0, 64, 125
1, 120500, Control_c, 0, 67, 24
1, 120501, Note_on_c, 0, 35, 69
1, 120515, Control_c, 0, 64, 94
1, 120515, Control_c, 0, 67, 24
1, 120526, Note_on_c, 0, 38, 83
1, 120530, Control_c, 0, 64, 67
1, 120530, Control_c, 0, 67, 25
1, 120544, Control_c, 0, 64, 0
1, 120544, Control_c, 0, 67, 26
1, 120559, Control_c, 0, 67, 28
1, 120566, Note_off_c, 0, 35, 64
1, 120574, Control_c, 0, 67, 29
1, 120589, Control_c, 0, 67, 30
1, 120590, Note_off_c, 0, 38, 64
1, 120601, Note_on_c, 0, 47, 59
1, 120604, Control_c, 0, 67, 31
1, 120618, Control_c, 0, 67, 32
1, 120633, Control_c, 0, 67, 32
1, 120663, Note_on_c, 0, 50, 60
1, 120677, Control_c, 0, 67, 33
1, 120678, Note_off_c, 0, 47, 64
1, 120692, Control_c, 0, 67, 32
1, 120695, Note_off_c, 0, 50, 63
1, 120703, Note_on_c, 0, 59, 66
1, 120762, Note_on_c, 0, 50, 63
1, 120776, Note_off_c, 0, 59, 62
1, 120799, Note_on_c, 0, 47, 71
1, 120808, Note_off_c, 0, 50, 65
1, 120822, Note_on_c, 0, 35, 58
1, 120840, Note_off_c, 0, 47, 65
1, 120858, Note_on_c, 0, 40, 90
1, 120895, Note_off_c, 0, 35, 64
1, 120915, Control_c, 0, 67, 32
1, 120920, Note_off_c, 0, 40, 64
1, 120929, Control_c, 0, 67, 31
1, 120933, Note_on_c, 0, 47, 66
1, 120990, Note_on_c, 0, 52, 66
1, 121007, Note_off_c, 0, 47, 64
1, 121012, Control_c, 0, 67, 31
1, 121031, Note_off_c, 0, 52, 67
1, 121035, Note_on_c, 0, 59, 70
1, 121086, Control_c, 0, 67, 30
1, 121096, Note_on_c, 0, 52, 75
1, 121115, Control_c, 0, 67, 30
1, 121118, Note_off_c, 0, 59, 62
1, 121137, Note_on_c, 0, 35, 73
1, 121145, Control_c, 0, 67, 29
1, 121154, Note_on_c, 0, 47, 69
1, 121160, Control_c, 0, 67, 29
1, 121166, Note_off_c, 0, 52, 64
1, 121175, Control_c, 0, 67, 28
1, 121195, Note_off_c, 0, 47, 67
1, 121199, Note_on_c, 0, 42, 92
1, 121205, Control_c, 0, 67, 28
1, 121248, Note_off_c, 0, 35, 66
1, 121264, Control_c, 0, 67, 28
1, 121266, Note_on_c, 0, 47, 80
1, 121271, Note_off_c, 0, 42, 65
1, 121279, Control_c, 0, 67, 29
1, 121313, Note_off_c, 0, 47, 66
1, 121319, Note_on_c, 0, 54, 68
1, 121371, Note_on_c, 0, 59, 72
1, 121440, Note_off_c, 0, 59, 63
1, 121469, Note_on_c, 0, 47, 78
1, 121475, Note_on_c, 0, 35, 75
1, 121504, Note_off_c, 0, 54, 58
1, 121515, Control_c, 0, 67, 29
1, 121520, Note_off_c, 0, 47, 63
1, 121530, Note_on_c, 0, 43, 99
1, 121530, Control_c, 0, 67, 30
1, 121545, Control_c, 0, 67, 30
1, 121574, Control_c, 0, 67, 31
1, 121583, Note_off_c, 0, 35, 64
1, 121589, Control_c, 0, 67, 31
1, 121598, Note_on_c, 0, 47, 81
1, 121614, Note_off_c, 0, 43, 62
1, 121619, Control_c, 0, 67, 32
1, 121649, Control_c, 0, 67, 33
1, 121659, Note_off_c, 0, 47, 64
1, 121661, Note_on_c, 0, 55, 52
1, 121679, Control_c, 0, 67, 33
1, 121716, Note_on_c, 0, 59, 58
1, 121742, Note_on_c, 0, 57, 49
1, 121759, Control_c, 0, 67, 34
1, 121763, Note_off_c, 0, 55, 64
1, 121780, Note_on_c, 0, 47, 75
1, 121782, Note_off_c, 0, 57, 52
1, 121792, Note_on_c, 0, 35, 78
1, 121792, Note_off_c, 0, 59, 63
1, 121850, Control_c, 0, 67, 33
1, 121851, Note_off_c, 0, 47, 64
1, 121884, Note_on_c, 0, 45, 99
1, 121937, Note_off_c, 0, 35, 63
1, 121944, Note_on_c, 0, 47, 72
1, 121953, Control_c, 0, 67, 33
1, 121967, Note_off_c, 0, 45, 64
1, 121986, Note_on_c, 0, 57, 53
1, 122006, Note_off_c, 0, 47, 61
1, 122012, Control_c, 0, 67, 33
1, 122024, Note_on_c, 0, 59, 62
1, 122027, Control_c, 0, 67, 34
1, 122057, Control_c, 0, 67, 35
1, 122072, Control_c, 0, 67, 35
1, 122087, Control_c, 0, 67, 36
1, 122100, Note_off_c, 0, 59, 59
1, 122102, Control_c, 0, 67, 37
1, 122117, Control_c, 0, 67, 42
1, 122127, Note_off_c, 0, 57, 0
1, 122127, Note_on_c, 0, 57, 3
1, 122131, Control_c, 0, 67, 50
1, 122146, Control_c, 0, 67, 60
1, 122151, Note_off_c, 0, 57, 59
1, 122156, Note_on_c, 0, 47, 54
1, 122161, Control_c, 0, 67, 68
1, 122167, Note_on_c, 0, 35, 55
1, 122175, Control_c, 0, 67, 73
1, 122190, Control_c, 0, 67, 76
1, 122205, Control_c, 0, 67, 79
1, 122210, Note_off_c, 0, 47, 60
1, 122220, Control_c, 0, 67, 82
1, 122232, Note_on_c, 0, 43, 75
1, 122235, Control_c, 0, 67, 87
1, 122249, Control_c, 0, 67, 91
1, 122264, Control_c, 0, 67, 93
1, 122279, Control_c, 0, 67, 94
1, 122286, Note_off_c, 0, 35, 59
1, 122303, Note_on_c, 0, 47, 42
1, 122308, Note_off_c, 0, 43, 60
1, 122309, Control_c, 0, 67, 94
1, 122338, Control_c, 0, 67, 95
1, 122339, Note_on_c, 0, 55, 48
1, 122353, Control_c, 0, 67, 98
1, 122368, Control_c, 0, 67, 104
1, 122375, Note_off_c, 0, 47, 57
1, 122382, Control_c, 0, 67, 108
1, 122397, Control_c, 0, 67, 111
1, 122398, Note_on_c, 0, 59, 43
1, 122405, Note_off_c, 0, 55, 53
1, 122412, Control_c, 0, 67, 112
1, 122427, Control_c, 0, 67, 114
1, 122442, Control_c, 0, 67, 116
1, 122457, Control_c, 0, 67, 118
1, 122471, Control_c, 0, 67, 121
1, 122474, Note_on_c, 0, 35, 42
1, 122486, Control_c, 0, 67, 124
1, 122488, Note_on_c, 0, 47, 48
1, 122503, Note_off_c, 0, 59, 41
1, 122508, Control_c, 0, 67, 125
1, 122537, Poly_aftertouch_c, 0, 55, 0
1, 122549, Note_off_c, 0, 47, 60
1, 122589, Note_on_c, 0, 42, 66
1, 122599, Control_c, 0, 67, 126
1, 122628, Control_c, 0, 67, 126
1, 122645, Note_off_c, 0, 35, 47
1, 122655, Note_on_c, 0, 47, 50
1, 122673, Control_c, 0, 67, 127
1, 122676, Note_off_c, 0, 42, 62
1, 122706, Note_on_c, 0, 54, 44
1, 122713, Note_off_c, 0, 47, 60
1, 122744, Note_off_c, 0, 54, 49
1, 122748, Note_on_c, 0, 59, 50
1, 122806, Note_off_c, 0, 59, 56
1, 122833, Note_on_c, 0, 54, 12
1, 122836, Note_on_c, 0, 47, 50
1, 122877, Note_on_c, 0, 35, 44
1, 122879, Note_off_c, 0, 54, 49
1, 122905, Note_off_c, 0, 47, 58
1, 122943, Note_on_c, 0, 40, 55
1, 123014, Note_on_c, 0, 47, 45
1, 123057, Note_off_c, 0, 35, 46
1, 123065, Note_off_c, 0, 40, 61
1, 123077, Note_on_c, 0, 52, 21
1, 123080, Note_off_c, 0, 47, 57
1, 123120, Note_off_c, 0, 52, 39
1, 123121, Note_on_c, 0, 59, 38
1, 123194, Note_on_c, 0, 52, 19
1, 123195, Note_off_c, 0, 59, 51
1, 123224, Note_on_c, 0, 47, 39
1, 123258, Note_off_c, 0, 52, 51
1, 123290, Note_on_c, 0, 35, 38
1, 123312, Note_off_c, 0, 47, 55
1, 123349, Note_on_c, 0, 42, 45
1, 123375, Control_c, 0, 64, 34
1, 123391, Control_c, 0, 64, 50
1, 123406, Control_c, 0, 64, 58
1, 123421, Control_c, 0, 64, 63
1, 123424, Note_on_c, 0, 47, 20
1, 123435, Control_c, 0, 64, 65
1, 123450, Control_c, 0, 64, 69
1, 123465, Control_c, 0, 64, 73
1, 123480, Control_c, 0, 64, 80
1, 123495, Control_c, 0, 64, 84
1, 123509, Control_c, 0, 64, 86
1, 123512, Note_on_c, 0, 51, 36
1, 123524, Control_c, 0, 64, 87
1, 123539, Control_c, 0, 64, 88
1, 123554, Note_on_c, 0, 59, 43
1, 123554, Control_c, 0, 64, 89
1, 123557, Note_off_c, 0, 51, 45
1, 123568, Control_c, 0, 64, 91
1, 123583, Control_c, 0, 64, 94
1, 123598, Control_c, 0, 64, 96
1, 123613, Control_c, 0, 64, 98
1, 123625, Note_off_c, 0, 47, 41
1, 123628, Control_c, 0, 64, 100
1, 123643, Control_c, 0, 64, 101
1, 123646, Note_on_c, 0, 51, 38
1, 123687, Note_off_c, 0, 35, 38
1, 123698, Note_on_c, 0, 47, 38
1, 123718, Note_off_c, 0, 51, 55
1, 123720, Note_off_c, 0, 59, 29
1, 123753, Note_on_c, 0, 37, 37
1, 123786, Note_off_c, 0, 42, 30
1, 123818, Note_off_c, 0, 47, 35
1, 123835, Control_c, 0, 64, 100
1, 123850, Control_c, 0, 64, 99
1, 123865, Control_c, 0, 64, 97
1, 123880, Control_c, 0, 64, 93
1, 123884, Note_on_c, 0, 49, 57
1, 123894, Control_c, 0, 64, 87
1, 123909, Control_c, 0, 64, 77
1, 123920, Note_on_c, 0, 47, 16
1, 123924, Control_c, 0, 64, 65
1, 123939, Control_c, 0, 64, 0
1, 123983, Control_c, 0, 64, 39
1, 124006, Control_c, 0, 64, 63
1, 124021, Control_c, 0, 64, 66
1, 124035, Control_c, 0, 64, 70
1, 124047, Note_on_c, 0, 52, 13
1, 124050, Control_c, 0, 64, 74
1, 124065, Control_c, 0, 64, 77
1, 124069, Note_on_c, 0, 59, 41
1, 124080, Control_c, 0, 64, 80
1, 124095, Control_c, 0, 64, 81
1, 124104, Note_off_c, 0, 52, 0
1, 124109, Control_c, 0, 64, 82
1, 124133, Note_on_c, 0, 52, 15
1, 124154, Control_c, 0, 64, 83
1, 124179, Note_off_c, 0, 47, 0
1, 124199, Note_off_c, 0, 52, 59
1, 124206, Note_on_c, 0, 47, 13
1, 124220, Note_off_c, 0, 49, 57
1, 124248, Note_on_c, 0, 39, 42
1, 124304, Control_c, 0, 64, 82
1, 124313, Note_off_c, 0, 59, 18
1, 124314, Note_off_c, 0, 37, 37
1, 124319, Control_c, 0, 64, 81
1, 124333, Note_on_c, 0, 51, 66
1, 124333, Control_c, 0, 64, 78
1, 124348, Control_c, 0, 64, 71
1, 124355, Note_off_c, 0, 47, 0
1, 124363, Control_c, 0, 64, 60
1, 124377, Note_on_c, 0, 47, 26
1, 124377, Control_c, 0, 64, 0
1, 124407, Control_c, 0, 64, 57
1, 124422, Control_c, 0, 64, 67
1, 124437, Control_c, 0, 64, 73
1, 124437, Control_c, 0, 67, 124
1, 124451, Control_c, 0, 64, 78
1, 124451, Control_c, 0, 67, 119
1, 124466, Control_c, 0, 64, 82
1, 124466, Control_c, 0, 67, 116
1, 124477, Note_on_c, 0, 54, 33
1, 124481, Control_c, 0, 64, 85
1, 124481, Control_c, 0, 67, 113
1, 124495, Note_off_c, 0, 39, 0
1, 124496, Control_c, 0, 64, 86
1, 124496, Control_c, 0, 67, 110
1, 124511, Control_c, 0, 64, 87
1, 124511, Control_c, 0, 67, 108
1, 124517, Note_on_c, 0, 59, 43
1, 124519, Note_off_c, 0, 54, 45
1, 124525, Control_c, 0, 64, 87
1, 124525, Control_c, 0, 67, 104
1, 124540, Control_c, 0, 67, 99
1, 124547, Poly_aftertouch_c, 0, 39, 0
1, 124555, Note_off_c, 0, 47, 33
1, 124555, Control_c, 0, 67, 95
1, 124570, Control_c, 0, 67, 93
1, 124574, Note_on_c, 0, 54, 42
1, 124585, Control_c, 0, 67, 90
1, 124600, Control_c, 0, 67, 88
1, 124615, Control_c, 0, 67, 86
1, 124630, Control_c, 0, 67, 83
1, 124640, Note_off_c, 0, 54, 54
1, 124642, Note_on_c, 0, 47, 27
1, 124644, Control_c, 0, 67, 80
1, 124658, Note_off_c, 0, 51, 57
1, 124659, Control_c, 0, 67, 78
1, 124674, Control_c, 0, 67, 76
1, 124686, Note_on_c, 0, 40, 49
1, 124689, Control_c, 0, 64, 87
1, 124689, Control_c, 0, 67, 74
1, 124704, Control_c, 0, 67, 74
1, 124717, Note_off_c, 0, 47, 42
1, 124718, Control_c, 0, 64, 86
1, 124718, Control_c, 0, 67, 73
1, 124733, Control_c, 0, 64, 84
1, 124733, Control_c, 0, 67, 72
1, 124755, Control_c, 0, 64, 81
1, 124755, Control_c, 0, 67, 71
1, 124761, Note_on_c, 0, 52, 75
1, 124770, Control_c, 0, 64, 74
1, 124770, Control_c, 0, 67, 70
1, 124785, Control_c, 0, 64, 63
1, 124785, Control_c, 0, 67, 67
1, 124800, Control_c, 0, 64, 0
1, 124800, Control_c, 0, 67, 65
1, 124814, Control_c, 0, 67, 62
1, 124829, Control_c, 0, 67, 58
1, 124833, Note_on_c, 0, 47, 39
1, 124844, Control_c, 0, 64, 58
1, 124844, Control_c, 0, 67, 52
1, 124859, Control_c, 0, 64, 67
1, 124859, Control_c, 0, 67, 43
1, 124874, Control_c, 0, 64, 73
1, 124874, Control_c, 0, 67, 31
1, 124889, Control_c, 0, 64, 79
1, 124889, Control_c, 0, 67, 17
1, 124898, Note_on_c, 0, 56, 52
1, 124903, Control_c, 0, 64, 82
1, 124903, Control_c, 0, 67, 0
1, 124918, Control_c, 0, 64, 84
1, 124933, Control_c, 0, 64, 85
1, 124950, Note_off_c, 0, 56, 53
1, 124985, Note_off_c, 0, 47, 41
1, 125014, Note_off_c, 0, 52, 59
1, 125029, Note_on_c, 0, 56, 40
1, 125074, Note_off_c, 0, 56, 46
1, 125112, Control_c, 0, 64, 84
1, 125116, Note_off_c, 0, 59, 0
1, 125117, Poly_aftertouch_c, 0, 47, 127
1, 125119, Note_off_c, 0, 40, 40
1, 125127, Control_c, 0, 64, 83
1, 125127, Note_on_c, 0, 42, 46
1, 125142, Control_c, 0, 64, 82
1, 125153, Poly_aftertouch_c, 0, 59, 127
1, 125156, Control_c, 0, 64, 78
1, 125171, Control_c, 0, 64, 71
1, 125186, Control_c, 0, 64, 63
1, 125200, Control_c, 0, 64, 0
1, 125223, Note_on_c, 0, 54, 55
1, 125260, Control_c, 0, 67, 8
1, 125269, Poly_aftertouch_c, 0, 47, 0
1, 125273, Note_on_c, 0, 57, 44
1, 125274, Control_c, 0, 67, 8
1, 125289, Control_c, 0, 67, 10
1, 125304, Control_c, 0, 64, 58
1, 125304, Control_c, 0, 67, 16
1, 125318, Control_c, 0, 64, 67
1, 125318, Control_c, 0, 67, 26
1, 125324, Poly_aftertouch_c, 0, 59, 0
1, 125333, Control_c, 0, 64, 72
1, 125333, Control_c, 0, 67, 40
1, 125347, Note_off_c, 0, 57, 57
1, 125348, Control_c, 0, 64, 76
1, 125348, Control_c, 0, 67, 54
1, 125361, Poly_aftertouch_c, 0, 59, 127
1, 125363, Control_c, 0, 64, 78
1, 125363, Control_c, 0, 67, 68
1, 125366, Note_on_c, 0, 59, 3
1, 125378, Control_c, 0, 64, 80
1, 125378, Control_c, 0, 67, 78
1, 125393, Control_c, 0, 64, 81
1, 125393, Control_c, 0, 67, 85
1, 125408, Control_c, 0, 64, 82
1, 125408, Control_c, 0, 67, 92
1, 125423, Control_c, 0, 64, 82
1, 125423, Control_c, 0, 67, 98
1, 125437, Control_c, 0, 67, 103
1, 125441, Note_on_c, 0, 57, 43
1, 125452, Control_c, 0, 67, 108
1, 125467, Control_c, 0, 67, 112
1, 125482, Control_c, 0, 67, 116
1, 125504, Control_c, 0, 67, 119
1, 125511, Note_off_c, 0, 54, 37
1, 125517, Note_off_c, 0, 57, 55
1, 125519, Control_c, 0, 67, 119
1, 125528, Note_on_c, 0, 47, 23
1, 125563, Control_c, 0, 67, 119
1, 125578, Control_c, 0, 64, 82
1, 125584, Note_on_c, 0, 40, 36
1, 125584, Note_off_c, 0, 47, 45
1, 125593, Control_c, 0, 64, 81
1, 125593, Control_c, 0, 67, 118
1, 125607, Control_c, 0, 64, 80
1, 125607, Control_c, 0, 67, 118
1, 125622, Control_c, 0, 64, 77
1, 125622, Control_c, 0, 67, 117
1, 125631, Note_off_c, 0, 42, 50
1, 125637, Control_c, 0, 64, 72
1, 125637, Control_c, 0, 67, 116
1, 125652, Control_c, 0, 64, 63
1, 125652, Control_c, 0, 67, 116
1, 125667, Control_c, 0, 64, 0
1, 125688, Note_on_c, 0, 52, 23
1, 125702, Note_on_c, 0, 47, 31
1, 125712, Control_c, 0, 64, 40
1, 125712, Control_c, 0, 67, 115
1, 125725, Note_off_c, 0, 59, 20
1, 125726, Control_c, 0, 64, 62
1, 125726, Control_c, 0, 67, 114
1, 125741, Control_c, 0, 64, 66
1, 125741, Control_c, 0, 67, 113
1, 125756, Control_c, 0, 64, 69
1, 125756, Control_c, 0, 67, 113
1, 125771, Note_on_c, 0, 56, 36
1, 125771, Control_c, 0, 64, 73
1, 125786, Control_c, 0, 64, 77
1, 125801, Control_c, 0, 64, 80
1, 125816, Control_c, 0, 64, 81
1, 125822, Note_on_c, 0, 59, 32
1, 125829, Note_off_c, 0, 56, 40
1, 125831, Control_c, 0, 64, 81
1, 125836, Note_off_c, 0, 47, 42
1, 125846, Control_c, 0, 67, 112
1, 125849, Note_off_c, 0, 52, 45
1, 125876, Control_c, 0, 67, 111
1, 125892, Note_on_c, 0, 56, 35
1, 125920, Control_c, 0, 67, 112
1, 125944, Note_off_c, 0, 56, 53
1, 125956, Note_on_c, 0, 47, 39
1, 125979, Control_c, 0, 67, 111
1, 125994, Control_c, 0, 67, 111
1, 126007, Note_on_c, 0, 39, 40
1, 126021, Note_off_c, 0, 47, 44
1, 126023, Control_c, 0, 67, 111
1, 126038, Control_c, 0, 64, 80
1, 126038, Control_c, 0, 67, 112
1, 126053, Control_c, 0, 64, 79
1, 126067, Note_off_c, 0, 40, 34
1, 126068, Control_c, 0, 64, 75
1, 126083, Control_c, 0, 64, 69
1, 126097, Control_c, 0, 64, 57
1, 126099, Note_on_c, 0, 51, 45
1, 126112, Control_c, 0, 64, 0
1, 126112, Control_c, 0, 67, 111
1, 126127, Control_c, 0, 67, 110
1, 126147, Note_off_c, 0, 59, 14
1, 126153, Note_on_c, 0, 47, 36
1, 126156, Control_c, 0, 64, 50
1, 126156, Control_c, 0, 67, 111
1, 126171, Control_c, 0, 64, 64
1, 126186, Control_c, 0, 64, 68
1, 126201, Control_c, 0, 64, 72
1, 126216, Control_c, 0, 64, 76
1, 126216, Control_c, 0, 67, 110
1, 126226, Note_on_c, 0, 54, 33
1, 126230, Control_c, 0, 64, 79
1, 126230, Control_c, 0, 67, 109
1, 126253, Control_c, 0, 64, 81
1, 126268, Control_c, 0, 64, 82
1, 126283, Control_c, 0, 64, 82
1, 126297, Note_on_c, 0, 59, 38
1, 126297, Control_c, 0, 64, 83
1, 126301, Note_off_c, 0, 47, 35
1, 126314, Note_off_c, 0, 51, 34
1, 126318, Note_off_c, 0, 54, 0
1, 126335, Note_on_c, 0, 54, 24
1, 126418, Note_on_c, 0, 47, 38
1, 126444, Note_on_c, 0, 37, 38
1, 126445, Control_c, 0, 64, 82
1, 126474, Note_off_c, 0, 54, 31
1, 126475, Control_c, 0, 64, 82
1, 126488, Note_off_c, 0, 39, 23
1, 126490, Control_c, 0, 64, 81
1, 126490, Control_c, 0, 67, 110
1, 126494, Note_off_c, 0, 47, 40
1, 126505, Control_c, 0, 64, 79
1, 126505, Control_c, 0, 67, 110
1, 126520, Control_c, 0, 64, 78
1, 126534, Control_c, 0, 64, 75
1, 126543, Note_on_c, 0, 49, 48
1, 126549, Control_c, 0, 64, 69
1, 126549, Control_c, 0, 67, 111
1, 126564, Control_c, 0, 64, 58
1, 126564, Control_c, 0, 67, 111
1, 126579, Control_c, 0, 64, 0
1, 126591, Note_off_c, 0, 59, 30
1, 126594, Control_c, 0, 67, 112
1, 126605, Note_on_c, 0, 47, 17
1, 126609, Control_c, 0, 64, 33
1, 126624, Control_c, 0, 64, 62
1, 126624, Control_c, 0, 67, 113
1, 126639, Control_c, 0, 64, 68
1, 126654, Control_c, 0, 64, 72
1, 126669, Control_c, 0, 64, 77
1, 126674, Note_off_c, 0, 37, 54
1, 126681, Note_on_c, 0, 52, 41
1, 126684, Control_c, 0, 64, 81
1, 126698, Control_c, 0, 64, 83
1, 126704, Note_off_c, 0, 47, 37
1, 126707, Note_off_c, 0, 49, 58
1, 126713, Control_c, 0, 64, 84
1, 126721, Note_off_c, 0, 52, 46
1, 126724, Note_on_c, 0, 59, 49
1, 126728, Control_c, 0, 64, 85
1, 126743, Control_c, 0, 64, 86
1, 126798, Note_on_c, 0, 52, 34
1, 126843, Note_off_c, 0, 59, 36
1, 126846, Control_c, 0, 67, 112
1, 126858, Note_off_c, 0, 52, 59
1, 126875, Note_on_c, 0, 47, 41
1, 126935, Control_c, 0, 67, 112
1, 127012, Note_off_c, 0, 47, 39
1, 127017, Control_c, 0, 64, 85
1, 127032, Control_c, 0, 64, 85
1, 127061, Control_c, 0, 64, 84
1, 127076, Control_c, 0, 64, 84
1, 127089, Note_on_c, 0, 51, 70
1, 127091, Control_c, 0, 64, 82
1, 127105, Control_c, 0, 64, 79
1, 127113, Note_on_c, 0, 47, 19
1, 127119, Control_c, 0, 64, 71
1, 127134, Control_c, 0, 64, 59
1, 127149, Control_c, 0, 64, 0
1, 127164, Control_c, 0, 67, 111
1, 127178, Control_c, 0, 64, 52
1, 127193, Control_c, 0, 64, 65
1, 127208, Control_c, 0, 64, 71
1, 127208, Control_c, 0, 67, 111
1, 127223, Control_c, 0, 64, 76
1, 127223, Control_c, 0, 67, 110
1, 127228, Note_off_c, 0, 47, 42
1, 127238, Control_c, 0, 64, 80
1, 127238, Control_c, 0, 67, 109
1, 127253, Control_c, 0, 64, 83
1, 127268, Control_c, 0, 64, 84
1, 127268, Control_c, 0, 67, 109
1, 127271, Note_on_c, 0, 54, 35
1, 127283, Control_c, 0, 64, 84
1, 127283, Control_c, 0, 67, 108
1, 127297, Control_c, 0, 64, 85
1, 127297, Control_c, 0, 67, 108
1, 127312, Control_c, 0, 67, 107
1, 127318, Note_off_c, 0, 51, 52
1, 127327, Control_c, 0, 67, 105
1, 127342, Control_c, 0, 67, 102
1, 127349, Note_off_c, 0, 54, 48
1, 127357, Control_c, 0, 67, 101
1, 127372, Control_c, 0, 67, 100
1, 127402, Control_c, 0, 67, 99
1, 127412, Poly_aftertouch_c, 0, 59, 127
1, 127417, Control_c, 0, 67, 97
1, 127432, Control_c, 0, 67, 96
1, 127447, Control_c, 0, 67, 96
1, 127481, Poly_aftertouch_c, 0, 59, 0
1, 127485, Note_on_c, 0, 54, 31
1, 127506, Control_c, 0, 64, 84
1, 127525, Note_off_c, 0, 54, 47
1, 127535, Note_on_c, 0, 51, 41
1, 127535, Control_c, 0, 67, 95
1, 127609, Control_c, 0, 67, 95
1, 127624, Control_c, 0, 64, 84
1, 127624, Control_c, 0, 67, 94
1, 127654, Control_c, 0, 64, 83
1, 127654, Control_c, 0, 67, 92
1, 127668, Control_c, 0, 64, 83
1, 127668, Control_c, 0, 67, 86
1, 127683, Control_c, 0, 64, 82
1, 127683, Control_c, 0, 67, 79
1, 127698, Control_c, 0, 64, 81
1, 127698, Control_c, 0, 67, 73
1, 127707, Note_on_c, 0, 52, 70
1, 127709, Note_on_c, 0, 47, 43
1, 127712, Control_c, 0, 64, 80
1, 127712, Control_c, 0, 67, 66
1, 127727, Control_c, 0, 64, 78
1, 127727, Control_c, 0, 67, 60
1, 127750, Control_c, 0, 64, 72
1, 127750, Control_c, 0, 67, 55
1, 127765, Control_c, 0, 64, 63
1, 127765, Control_c, 0, 67, 50
1, 127780, Control_c, 0, 64, 0
1, 127780, Control_c, 0, 67, 46
1, 127787, Note_off_c, 0, 51, 0
1, 127794, Control_c, 0, 67, 42
1, 127809, Control_c, 0, 67, 39
1, 127824, Poly_aftertouch_c, 0, 51, 127
1, 127824, Control_c, 0, 64, 59
1, 127824, Control_c, 0, 67, 36
1, 127839, Control_c, 0, 64, 67
1, 127839, Control_c, 0, 67, 30
1, 127854, Control_c, 0, 64, 72
1, 127854, Control_c, 0, 67, 21
1, 127864, Note_off_c, 0, 47, 40
1, 127869, Control_c, 0, 64, 77
1, 127869, Control_c, 0, 67, 10
1, 127884, Control_c, 0, 64, 83
1, 127884, Control_c, 0, 67, 0
1, 127887, Note_on_c, 0, 54, 46
1, 127896, Poly_aftertouch_c, 0, 51, 0
1, 127899, Control_c, 0, 64, 87
1, 127914, Control_c, 0, 64, 89
1, 127928, Control_c, 0, 64, 91
1, 127943, Control_c, 0, 64, 92
1, 127947, Note_on_c, 0, 57, 38
1, 127958, Control_c, 0, 64, 93
1, 127962, Note_off_c, 0, 54, 0
1, 127973, Control_c, 0, 64, 95
1, 127988, Control_c, 0, 64, 98
1, 127999, Poly_aftertouch_c, 0, 54, 127
1, 128001, Note_off_c, 0, 52, 37
1, 128001, Note_on_c, 0, 54, 22
1, 128002, Control_c, 0, 64, 99
1, 128017, Control_c, 0, 64, 100
1, 128019, Note_off_c, 0, 57, 55
1, 128074, Note_on_c, 0, 51, 37
1, 128084, Note_off_c, 0, 54, 39
1, 128147, Note_off_c, 0, 51, 49
1, 128150, Control_c, 0, 64, 100
1, 128166, Control_c, 0, 64, 95
1, 128181, Control_c, 0, 64, 87
1, 128192, Note_on_c, 0, 54, 68
1, 128196, Control_c, 0, 64, 75
1, 128211, Control_c, 0, 64, 64
1, 128214, Note_on_c, 0, 47, 40
1, 128225, Control_c, 0, 64, 37
1, 128240, Control_c, 0, 64, 54
1, 128255, Control_c, 0, 64, 66
1, 128270, Control_c, 0, 64, 74
1, 128270, Control_c, 0, 67, 11
1, 128285, Control_c, 0, 64, 81
1, 128285, Control_c, 0, 67, 19
1, 128299, Control_c, 0, 64, 87
1, 128299, Control_c, 0, 67, 30
1, 128314, Note_off_c, 0, 54, 61
1, 128314, Control_c, 0, 64, 90
1, 128314, Control_c, 0, 67, 43
1, 128320, Note_on_c, 0, 51, 41
1, 128329, Control_c, 0, 64, 91
1, 128329, Control_c, 0, 67, 54
1, 128344, Control_c, 0, 64, 93
1, 128344, Control_c, 0, 67, 63
1, 128359, Control_c, 0, 64, 94
1, 128359, Control_c, 0, 67, 69
1, 128374, Control_c, 0, 64, 94
1, 128374, Control_c, 0, 67, 74
1, 128375, Note_off_c, 0, 51, 54
1, 128389, Control_c, 0, 64, 95
1, 128389, Control_c, 0, 67, 77
1, 128403, Control_c, 0, 67, 78
1, 128407, Poly_aftertouch_c, 0, 54, 127
1, 128458, Poly_aftertouch_c, 0, 54, 0
1, 128478, Control_c, 0, 67, 78
1, 128486, Note_off_c, 0, 47, 36
1, 128534, Note_on_c, 0, 54, 32
1, 128544, Control_c, 0, 67, 79
1, 128559, Control_c, 0, 67, 80
1, 128573, Control_c, 0, 67, 82
1, 128585, Note_off_c, 0, 54, 55
1, 128588, Control_c, 0, 67, 86
1, 128603, Control_c, 0, 67, 90
1, 128609, Note_on_c, 0, 51, 31
1, 128618, Control_c, 0, 64, 94
1, 128618, Control_c, 0, 67, 92
1, 128633, Control_c, 0, 67, 93
1, 128648, Control_c, 0, 64, 94
1, 128651, Note_off_c, 0, 51, 48
1, 128663, Control_c, 0, 64, 93
1, 128663, Control_c, 0, 67, 93
1, 128678, Control_c, 0, 64, 92
1, 128678, Control_c, 0, 67, 94
1, 128679, Note_on_c, 0, 56, 67
1, 128687, Note_on_c, 0, 47, 42
1, 128692, Control_c, 0, 64, 90
1, 128707, Control_c, 0, 64, 86
1, 128707, Control_c, 0, 67, 94
1, 128722, Control_c, 0, 64, 79
1, 128722, Control_c, 0, 67, 96
1, 128737, Control_c, 0, 64, 66
1, 128737, Control_c, 0, 67, 97
1, 128751, Control_c, 0, 64, 0
1, 128751, Control_c, 0, 67, 98
1, 128766, Control_c, 0, 67, 98
1, 128781, Control_c, 0, 67, 99
1, 128788, Note_on_c, 0, 51, 21
1, 128796, Control_c, 0, 67, 100
1, 128811, Control_c, 0, 67, 102
1, 128825, Control_c, 0, 64, 42
1, 128825, Control_c, 0, 67, 104
1, 128840, Control_c, 0, 64, 65
1, 128840, Control_c, 0, 67, 106
1, 128855, Control_c, 0, 64, 70
1, 128855, Control_c, 0, 67, 107
1, 128869, Control_c, 0, 64, 76
1, 128869, Control_c, 0, 67, 108
1, 128877, Note_on_c, 0, 54, 38
1, 128884, Control_c, 0, 64, 82
1, 128884, Control_c, 0, 67, 109
1, 128899, Control_c, 0, 64, 86
1, 128899, Control_c, 0, 67, 110
1, 128914, Control_c, 0, 64, 88
1, 128914, Control_c, 0, 67, 111
1, 128917, Note_off_c, 0, 51, 29
1, 128918, Note_off_c, 0, 56, 58
1, 128929, Control_c, 0, 64, 89
1, 128929, Control_c, 0, 67, 112
1, 128943, Note_off_c, 0, 54, 54
1, 128943, Control_c, 0, 64, 89
1, 128958, Control_c, 0, 64, 90
1, 128967, Note_on_c, 0, 57, 47
1, 129020, Note_off_c, 0, 57, 54
1, 129034, Control_c, 0, 67, 112
1, 129047, Note_on_c, 0, 54, 36
1, 129049, Note_off_c, 0, 47, 40
1, 129063, Control_c, 0, 67, 113
1, 129089, Note_off_c, 0, 54, 51
1, 129116, Note_on_c, 0, 51, 29
1, 129173, Note_off_c, 0, 51, 44
1, 129182, Control_c, 0, 64, 89
1, 129193, Note_on_c, 0, 57, 56
1, 129196, Control_c, 0, 64, 89
1, 129211, Control_c, 0, 64, 87
1, 129219, Note_on_c, 0, 47, 36
1, 129226, Control_c, 0, 64, 83
1, 129248, Control_c, 0, 64, 75
1, 129263, Control_c, 0, 64, 62
1, 129278, Control_c, 0, 64, 0
1, 129322, Control_c, 0, 64, 42
1, 129325, Note_on_c, 0, 51, 34
1, 129337, Control_c, 0, 64, 63
1, 129352, Control_c, 0, 64, 67
1, 129357, Note_off_c, 0, 57, 54
1, 129366, Control_c, 0, 64, 70
1, 129381, Control_c, 0, 64, 74
1, 129396, Control_c, 0, 64, 77
1, 129411, Control_c, 0, 64, 80
1, 129416, Note_off_c, 0, 51, 48
1, 129426, Control_c, 0, 64, 82
1, 129433, Note_on_c, 0, 54, 27
1, 129441, Control_c, 0, 64, 82
1, 129441, Control_c, 0, 67, 113
1, 129456, Control_c, 0, 64, 83
1, 129456, Control_c, 0, 67, 114
1, 129471, Note_off_c, 0, 54, 50
1, 129500, Note_on_c, 0, 59, 26
1, 129530, Control_c, 0, 67, 114
1, 129560, Control_c, 0, 67, 116
1, 129574, Control_c, 0, 67, 120
1, 129588, Note_off_c, 0, 47, 42
1, 129589, Control_c, 0, 67, 123
1, 129598, Note_on_c, 0, 54, 33
1, 129604, Control_c, 0, 67, 124
1, 129619, Control_c, 0, 67, 126
1, 129634, Control_c, 0, 67, 126
1, 129637, Note_off_c, 0, 54, 48
1, 129663, Control_c, 0, 67, 127
1, 129664, Note_on_c, 0, 51, 32
1, 129707, Control_c, 0, 64, 82
1, 129733, Note_off_c, 0, 59, 0
1, 129733, Note_on_c, 0, 59, 5
1, 129735, Note_off_c, 0, 51, 38
1, 129737, Control_c, 0, 64, 82
1, 129768, Control_c, 0, 64, 81
1, 129783, Control_c, 0, 64, 80
1, 129783, Control_c, 0, 67, 127
1, 129786, Note_on_c, 0, 47, 31
1, 129797, Control_c, 0, 64, 79
1, 129812, Control_c, 0, 64, 75
1, 129827, Control_c, 0, 64, 69
1, 129842, Control_c, 0, 64, 61
1, 129857, Control_c, 0, 64, 27
1, 129871, Control_c, 0, 64, 0
1, 129886, Control_c, 0, 64, 41
1, 129891, Note_on_c, 0, 51, 32
1, 129901, Control_c, 0, 64, 58
1, 129915, Control_c, 0, 64, 64
1, 129930, Control_c, 0, 64, 68
1, 129945, Control_c, 0, 64, 72
1, 129960, Control_c, 0, 64, 77
1, 129975, Control_c, 0, 64, 81
1, 129976, Note_off_c, 0, 51, 34
1, 129978, Note_on_c, 0, 54, 34
1, 129990, Control_c, 0, 64, 84
1, 130012, Control_c, 0, 64, 85
1, 130026, Note_off_c, 0, 59, 41
1, 130027, Control_c, 0, 64, 86
1, 130042, Control_c, 0, 64, 87
1, 130090, Note_on_c, 0, 57, 30
1, 130147, Note_off_c, 0, 54, 0
1, 130147, Note_off_c, 0, 57, 42
1, 130167, Note_on_c, 0, 54, 9
1, 130201, Note_off_c, 0, 47, 41
1, 130252, Note_off_c, 0, 54, 38
1, 130258, Note_on_c, 0, 51, 29
1, 130338, Control_c, 0, 64, 87
1, 130346, Note_off_c, 0, 51, 36
1, 130383, Control_c, 0, 64, 86
1, 130391, Note_on_c, 0, 61, 51
1, 130401, Note_on_c, 0, 47, 30
1, 130427, Control_c, 0, 64, 86
1, 130442, Control_c, 0, 64, 85
1, 130457, Control_c, 0, 64, 84
1, 130471, Control_c, 0, 64, 81
1, 130486, Control_c, 0, 64, 76
1, 130501, Control_c, 0, 64, 69
1, 130502, Note_on_c, 0, 51, 39
1, 130515, Control_c, 0, 64, 61
1, 130530, Control_c, 0, 64, 55
1, 130545, Control_c, 0, 64, 61
1, 130561, Control_c, 0, 64, 66
1, 130576, Control_c, 0, 64, 69
1, 130591, Control_c, 0, 64, 72
1, 130591, Note_off_c, 0, 51, 50
1, 130598, Note_on_c, 0, 54, 35
1, 130606, Control_c, 0, 64, 76
1, 130620, Control_c, 0, 64, 78
1, 130635, Control_c, 0, 64, 80
1, 130650, Control_c, 0, 64, 81
1, 130665, Control_c, 0, 64, 82
1, 130669, Note_off_c, 0, 54, 37
1, 130680, Control_c, 0, 64, 83
1, 130694, Control_c, 0, 64, 83
1, 130696, Note_off_c, 0, 61, 51
1, 130711, Note_on_c, 0, 59, 31
1, 130794, Note_off_c, 0, 59, 36
1, 130824, Note_on_c, 0, 54, 31
1, 130871, Note_off_c, 0, 47, 38
1, 130946, Note_on_c, 0, 51, 34
1, 130946, Note_off_c, 0, 54, 28
1, 130968, Control_c, 0, 64, 83
1, 131057, Control_c, 0, 64, 82
1, 131131, Control_c, 0, 64, 82
1, 131191, Control_c, 0, 64, 81
1, 131203, Note_on_c, 0, 63, 45
1, 131215, Note_on_c, 0, 47, 32
1, 131220, Control_c, 0, 64, 81
1, 131235, Control_c, 0, 64, 80
1, 131250, Control_c, 0, 64, 80
1, 131264, Control_c, 0, 64, 78
1, 131279, Control_c, 0, 64, 76
1, 131294, Control_c, 0, 64, 72
1, 131309, Control_c, 0, 64, 66
1, 131320, Note_off_c, 0, 51, 35
1, 131324, Control_c, 0, 64, 52
1, 131338, Control_c, 0, 64, 0
1, 131384, Control_c, 0, 64, 28
1, 131399, Control_c, 0, 64, 51
1, 131414, Control_c, 0, 64, 63
1, 131429, Control_c, 0, 64, 66
1, 131443, Control_c, 0, 64, 69
1, 131447, Poly_aftertouch_c, 0, 51, 127
1, 131458, Control_c, 0, 64, 72
1, 131473, Control_c, 0, 64, 75
1, 131495, Control_c, 0, 64, 77
1, 131510, Control_c, 0, 64, 78
1, 131525, Control_c, 0, 64, 80
1, 131539, Control_c, 0, 64, 82
1, 131554, Control_c, 0, 64, 84
1, 131569, Control_c, 0, 64, 85
1, 131584, Control_c, 0, 64, 86
1, 131599, Control_c, 0, 64, 87
1, 131614, Control_c, 0, 64, 88
1, 131626, Note_on_c, 0, 54, 31
1, 131629, Control_c, 0, 64, 88
1, 131630, Poly_aftertouch_c, 0, 51, 0
1, 131643, Control_c, 0, 64, 89
1, 131658, Control_c, 0, 64, 90
1, 131673, Control_c, 0, 64, 91
1, 131688, Control_c, 0, 64, 93
1, 131702, Control_c, 0, 64, 95
1, 131717, Control_c, 0, 64, 97
1, 131732, Control_c, 0, 64, 98
1, 131747, Control_c, 0, 64, 98
1, 131762, Note_on_c, 0, 57, 33
1, 131776, Note_off_c, 0, 54, 29
1, 131925, Note_off_c, 0, 57, 42
1, 131957, Note_on_c, 0, 54, 24
1, 131998, Control_c, 0, 64, 98
1, 132043, Control_c, 0, 64, 97
1, 132073, Control_c, 0, 64, 97
1, 132100, Note_off_c, 0, 54, 39
1, 132113, Note_off_c, 0, 47, 35
1, 132117, Control_c, 0, 64, 96
1, 132166, Note_on_c, 0, 51, 33
1, 132205, Note_off_c, 0, 51, 60
1, 132422, Control_c, 0, 64, 96
1, 132466, Control_c, 0, 64, 95
1, 132469, Note_off_c, 0, 63, 42
1, 132510, Control_c, 0, 64, 95
1, 132540, Control_c, 0, 64, 94
1, 132570, Control_c, 0, 64, 94
1, 132584, Control_c, 0, 64, 93
1, 132605, Note_on_c, 0, 40, 35
1, 132629, Control_c, 0, 64, 93
1, 132644, Control_c, 0, 64, 92
1, 132659, Control_c, 0, 64, 90
1, 132673, Control_c, 0, 64, 88
1, 132688, Control_c, 0, 64, 86
1, 132703, Control_c, 0, 64, 84
1, 132717, Control_c, 0, 64, 80
1, 132732, Control_c, 0, 64, 75
1, 132747, Control_c, 0, 64, 67
1, 132762, Control_c, 0, 64, 50
1, 132777, Control_c, 0, 64, 0
1, 132806, Control_c, 0, 64, 38
1, 132821, Control_c, 0, 64, 52
1, 132836, Control_c, 0, 64, 60
1, 132851, Control_c, 0, 64, 64
1, 132866, Control_c, 0, 64, 66
1, 132881, Control_c, 0, 64, 68
1, 132896, Control_c, 0, 64, 70
1, 132910, Control_c, 0, 64, 72
1, 132925, Control_c, 0, 64, 74
1, 132940, Control_c, 0, 64, 75
1, 132955, Control_c, 0, 64, 77
1, 132970, Control_c, 0, 64, 79
1, 132993, Control_c, 0, 64, 81
1, 133008, Control_c, 0, 64, 82
1, 133022, Control_c, 0, 64, 84
1, 133037, Control_c, 0, 64, 85
1, 133052, Control_c, 0, 64, 87
1, 133067, Control_c, 0, 64, 88
1, 133069, Note_on_c, 0, 47, 32
1, 133082, Control_c, 0, 64, 90
1, 133096, Control_c, 0, 64, 91
1, 133111, Control_c, 0, 64, 91
1, 133126, Control_c, 0, 64, 92
1, 133140, Control_c, 0, 64, 93
1, 133185, Control_c, 0, 64, 93
1, 133215, Control_c, 0, 64, 94
1, 133218, Note_off_c, 0, 47, 44
1, 133230, Note_on_c, 0, 52, 27
1, 133230, Note_off_c, 0, 40, 41
1, 133244, Control_c, 0, 64, 95
1, 133259, Control_c, 0, 64, 95
1, 133274, Control_c, 0, 64, 96
1, 133289, Control_c, 0, 64, 96
1, 133304, Control_c, 0, 64, 97
1, 133322, Note_on_c, 0, 56, 26
1, 133396, Note_off_c, 0, 52, 37
1, 133397, Note_off_c, 0, 56, 40
1, 133417, Note_on_c, 0, 59, 14
1, 133485, Note_on_c, 0, 64, 40
1, 133598, Note_off_c, 0, 59, 36
1, 133623, Note_on_c, 0, 56, 20
1, 133677, Note_on_c, 0, 52, 30
1, 133686, Note_off_c, 0, 56, 40
1, 133784, Note_off_c, 0, 52, 36
1, 133851, Note_off_c, 0, 64, 26
1, 133926, Note_on_c, 0, 66, 35
1, 134025, Note_off_c, 0, 66, 54
1, 134089, Note_on_c, 0, 52, 24
1, 134162, Note_on_c, 0, 57, 26
1, 134254, Note_off_c, 0, 57, 38
1, 134269, Note_on_c, 0, 61, 22
1, 134275, Note_off_c, 0, 52, 39
1, 134285, Note_on_c, 0, 64, 34
1, 134393, Note_on_c, 0, 57, 29
1, 134445, Note_off_c, 0, 61, 38
1, 134453, Note_off_c, 0, 64, 37
1, 134464, Note_on_c, 0, 52, 17
1, 134489, Note_off_c, 0, 57, 54
1, 134511, Note_on_c, 0, 40, 32
1, 134531, Note_off_c, 0, 52, 45
1, 134639, Note_on_c, 0, 47, 31
1, 134702, Note_off_c, 0, 40, 40
1, 134744, Note_on_c, 0, 52, 9
1, 134745, Note_off_c, 0, 47, 37
1, 134766, Note_on_c, 0, 56, 38
1, 134857, Note_on_c, 0, 59, 27
1, 134889, Note_off_c, 0, 56, 35
1, 134899, Note_off_c, 0, 52, 43
1, 134905, Control_c, 0, 64, 96
1, 134934, Note_on_c, 0, 64, 38
1, 135009, Control_c, 0, 64, 96
1, 135037, Note_on_c, 0, 56, 28
1, 135068, Control_c, 0, 64, 95
1, 135078, Note_on_c, 0, 52, 32
1, 135092, Note_off_c, 0, 56, 41
1, 135127, Control_c, 0, 64, 95
1, 135143, Note_on_c, 0, 54, 26
1, 135157, Control_c, 0, 64, 94
1, 135159, Note_off_c, 0, 59, 27
1, 135185, Note_off_c, 0, 52, 37
1, 135186, Control_c, 0, 64, 94
1, 135254, Note_on_c, 0, 66, 45
1, 135254, Control_c, 0, 64, 93
1, 135310, Note_off_c, 0, 54, 38
1, 135316, Note_off_c, 0, 66, 57
1, 135327, Control_c, 0, 64, 93
1, 135343, Note_off_c, 0, 64, 37
1, 135350, Note_on_c, 0, 52, 29
1, 135405, Note_on_c, 0, 57, 23
1, 135503, Note_on_c, 0, 61, 19
1, 135529, Note_off_c, 0, 52, 37
1, 135534, Note_off_c, 0, 57, 38
1, 135565, Note_on_c, 0, 64, 41
1, 135674, Note_on_c, 0, 57, 29
1, 135685, Note_off_c, 0, 64, 36
1, 135705, Note_on_c, 0, 52, 29
1, 135705, Note_off_c, 0, 61, 33
1, 135728, Control_c, 0, 64, 92
1, 135731, Note_off_c, 0, 57, 45
1, 135757, Control_c, 0, 64, 91
1, 135772, Control_c, 0, 64, 89
1, 135775, Note_on_c, 0, 40, 35
1, 135775, Note_off_c, 0, 52, 55
1, 135787, Control_c, 0, 64, 85
1, 135802, Control_c, 0, 64, 79
1, 135817, Control_c, 0, 64, 71
1, 135832, Control_c, 0, 64, 68
1, 135847, Control_c, 0, 64, 68
1, 135861, Control_c, 0, 64, 70
1, 135863, Note_on_c, 0, 47, 27
1, 135876, Control_c, 0, 64, 74
1, 135891, Control_c, 0, 64, 78
1, 135906, Control_c, 0, 64, 82
1, 135916, Note_on_c, 0, 52, 36
1, 135921, Control_c, 0, 64, 85
1, 135935, Control_c, 0, 64, 86
1, 135948, Note_off_c, 0, 40, 40
1, 135950, Control_c, 0, 64, 88
1, 135965, Control_c, 0, 64, 88
1, 135987, Control_c, 0, 64, 89
1, 135990, Note_off_c, 0, 47, 41
1, 135994, Note_on_c, 0, 56, 37
1, 136055, Note_off_c, 0, 56, 41
1, 136058, Note_on_c, 0, 59, 32
1, 136085, Note_off_c, 0, 52, 36
1, 136109, Note_on_c, 0, 64, 37
1, 136150, Control_c, 0, 64, 89
1, 136181, Control_c, 0, 64, 90
1, 136192, Note_on_c, 0, 56, 39
1, 136210, Control_c, 0, 64, 90
1, 136219, Note_off_c, 0, 59, 36
1, 136240, Control_c, 0, 64, 91
1, 136241, Note_on_c, 0, 52, 27
1, 136258, Note_off_c, 0, 56, 44
1, 136292, Note_off_c, 0, 52, 49
1, 136295, Note_on_c, 0, 54, 34
1, 136376, Note_on_c, 0, 66, 44
1, 136432, Control_c, 0, 64, 90
1, 136454, Note_off_c, 0, 54, 40
1, 136462, Note_on_c, 0, 52, 22
1, 136471, Note_off_c, 0, 64, 27
1, 136497, Note_on_c, 0, 57, 40
1, 136529, Note_off_c, 0, 66, 39
1, 136571, Note_on_c, 0, 61, 46
1, 136571, Note_off_c, 0, 57, 55
1, 136598, Note_off_c, 0, 52, 35
1, 136604, Note_on_c, 0, 64, 41
1, 136697, Note_on_c, 0, 57, 39
1, 136703, Note_off_c, 0, 64, 50
1, 136712, Note_off_c, 0, 61, 35
1, 136738, Note_on_c, 0, 56, 30
1, 136744, Note_off_c, 0, 57, 57
1, 136766, Note_on_c, 0, 52, 19
1, 136810, Note_off_c, 0, 52, 51
1, 136823, Note_on_c, 0, 68, 54
1, 136862, Note_off_c, 0, 68, 64
1, 136884, Control_c, 0, 64, 90
1, 136911, Note_off_c, 0, 56, 52
1, 136929, Control_c, 0, 64, 89
1, 136938, Note_on_c, 0, 52, 35
1, 136986, Note_on_c, 0, 59, 44
1, 137043, Note_off_c, 0, 52, 36
1, 137057, Note_on_c, 0, 63, 45
1, 137078, Note_on_c, 0, 64, 43
1, 137093, Control_c, 0, 64, 89
1, 137138, Control_c, 0, 64, 88
1, 137141, Note_on_c, 0, 52, 47
1, 137152, Control_c, 0, 64, 87
1, 137155, Note_off_c, 0, 59, 0
1, 137167, Control_c, 0, 64, 86
1, 137179, Note_off_c, 0, 52, 48
1, 137182, Control_c, 0, 64, 83
1, 137192, Poly_aftertouch_c, 0, 59, 127
1, 137197, Control_c, 0, 64, 77
1, 137204, Note_off_c, 0, 64, 36
1, 137212, Control_c, 0, 64, 68
1, 137222, Note_on_c, 0, 40, 44
1, 137227, Control_c, 0, 64, 52
1, 137242, Control_c, 0, 64, 34
1, 137256, Control_c, 0, 64, 60
1, 137266, Poly_aftertouch_c, 0, 59, 0
1, 137271, Control_c, 0, 64, 66
1, 137284, Note_on_c, 0, 47, 36
1, 137286, Control_c, 0, 64, 70
1, 137289, Note_off_c, 0, 40, 57
1, 137299, Note_off_c, 0, 63, 62
1, 137301, Control_c, 0, 64, 75
1, 137315, Control_c, 0, 64, 79
1, 137319, Note_off_c, 0, 47, 56
1, 137330, Control_c, 0, 64, 81
1, 137345, Control_c, 0, 64, 83
1, 137360, Control_c, 0, 64, 83
1, 137365, Note_on_c, 0, 56, 40
1, 137375, Control_c, 0, 64, 84
1, 137389, Control_c, 0, 64, 84
1, 137413, Note_off_c, 0, 56, 43
1, 137438, Note_on_c, 0, 63, 43
1, 137450, Note_on_c, 0, 59, 20
1, 137462, Note_on_c, 0, 68, 65
1, 137496, Note_off_c, 0, 59, 50
1, 137530, Control_c, 0, 67, 120
1, 137545, Control_c, 0, 67, 109
1, 137560, Control_c, 0, 67, 104
1, 137575, Control_c, 0, 67, 102
1, 137589, Control_c, 0, 67, 101
1, 137591, Note_on_c, 0, 56, 41
1, 137604, Control_c, 0, 67, 99
1, 137619, Control_c, 0, 67, 96
1, 137632, Note_off_c, 0, 68, 35
1, 137633, Control_c, 0, 67, 92
1, 137648, Control_c, 0, 67, 89
1, 137663, Note_off_c, 0, 56, 40
1, 137663, Control_c, 0, 67, 86
1, 137678, Control_c, 0, 67, 86
1, 137686, Note_on_c, 0, 57, 31
1, 137737, Note_on_c, 0, 69, 63
1, 137753, Control_c, 0, 67, 86
1, 137768, Control_c, 0, 67, 87
1, 137798, Control_c, 0, 67, 88
1, 137803, Note_off_c, 0, 69, 66
1, 137811, Note_on_c, 0, 56, 36
1, 137813, Control_c, 0, 67, 88
1, 137843, Control_c, 0, 67, 89
1, 137844, Note_off_c, 0, 63, 38
1, 137858, Control_c, 0, 67, 90
1, 137873, Control_c, 0, 67, 91
1, 137876, Note_on_c, 0, 61, 30
1, 137902, Control_c, 0, 67, 92
1, 137909, Note_off_c, 0, 56, 39
1, 137913, Note_off_c, 0, 57, 38
1, 137917, Control_c, 0, 67, 92
1, 137931, Control_c, 0, 67, 93
1, 137946, Control_c, 0, 67, 94
1, 137961, Control_c, 0, 67, 96
1, 137971, Note_on_c, 0, 64, 17
1, 137973, Note_on_c, 0, 68, 45
1, 137976, Control_c, 0, 67, 98
1, 137991, Control_c, 0, 67, 99
1, 138005, Control_c, 0, 67, 101
1, 138020, Control_c, 0, 67, 103
1, 138035, Control_c, 0, 67, 104
1, 138041, Note_off_c, 0, 68, 0
1, 138041, Note_on_c, 0, 68, 3
1, 138050, Control_c, 0, 64, 84
1, 138050, Control_c, 0, 67, 105
1, 138065, Control_c, 0, 67, 105
1, 138070, Note_on_c, 0, 56, 42
1, 138080, Control_c, 0, 64, 83
1, 138080, Control_c, 0, 67, 106
1, 138094, Control_c, 0, 64, 82
1, 138094, Control_c, 0, 67, 105
1, 138109, Control_c, 0, 64, 78
1, 138123, Note_off_c, 0, 61, 13
1, 138124, Control_c, 0, 64, 73
1, 138139, Control_c, 0, 64, 65
1, 138141, Note_on_c, 0, 40, 46
1, 138154, Control_c, 0, 64, 49
1, 138154, Control_c, 0, 67, 105
1, 138163, Note_off_c, 0, 56, 36
1, 138169, Control_c, 0, 64, 51
1, 138174, Note_off_c, 0, 64, 16
1, 138184, Control_c, 0, 64, 61
1, 138199, Control_c, 0, 64, 65
1, 138213, Control_c, 0, 64, 68
1, 138235, Control_c, 0, 64, 72
1, 138235, Control_c, 0, 67, 104
1, 138236, Note_on_c, 0, 56, 33
1, 138239, Note_on_c, 0, 47, 38
1, 138249, Note_off_c, 0, 40, 58
1, 138250, Control_c, 0, 64, 78
1, 138252, Note_off_c, 0, 68, 51
1, 138264, Control_c, 0, 64, 82
1, 138264, Control_c, 0, 67, 104
1, 138277, Note_off_c, 0, 47, 52
1, 138279, Control_c, 0, 64, 85
1, 138279, Control_c, 0, 67, 103
1, 138294, Control_c, 0, 64, 87
1, 138309, Control_c, 0, 64, 88
1, 138309, Control_c, 0, 67, 103
1, 138312, Note_on_c, 0, 59, 42
1, 138324, Control_c, 0, 64, 89
1, 138324, Control_c, 0, 67, 102
1, 138339, Control_c, 0, 64, 90
1, 138348, Note_on_c, 0, 63, 52
1, 138353, Control_c, 0, 64, 91
1, 138365, Note_off_c, 0, 56, 36
1, 138378, Note_on_c, 0, 68, 63
1, 138409, Note_off_c, 0, 59, 33
1, 138483, Note_on_c, 0, 56, 49
1, 138512, Note_off_c, 0, 68, 52
1, 138516, Control_c, 0, 67, 102
1, 138530, Control_c, 0, 67, 101
1, 138558, Note_on_c, 0, 57, 49
1, 138561, Control_c, 0, 67, 101
1, 138576, Control_c, 0, 67, 100
1, 138596, Note_off_c, 0, 56, 39
1, 138640, Note_on_c, 0, 69, 65
1, 138665, Control_c, 0, 67, 101
1, 138705, Note_off_c, 0, 69, 66
1, 138724, Control_c, 0, 67, 101
1, 138737, Note_on_c, 0, 56, 44
1, 138756, Note_on_c, 0, 61, 36
1, 138789, Note_off_c, 0, 57, 61
1, 138810, Note_on_c, 0, 64, 44
1, 138831, Note_off_c, 0, 56, 38
1, 138835, Note_off_c, 0, 61, 42
1, 138836, Note_off_c, 0, 63, 39
1, 138858, Control_c, 0, 64, 90
1, 138860, Note_on_c, 0, 68, 54
1, 138887, Control_c, 0, 64, 90
1, 138917, Control_c, 0, 64, 89
1, 138932, Control_c, 0, 64, 89
1, 138932, Control_c, 0, 67, 101
1, 138938, Note_off_c, 0, 64, 38
1, 138946, Control_c, 0, 64, 88
1, 138961, Control_c, 0, 64, 87
1, 138961, Control_c, 0, 67, 100
1, 138962, Note_on_c, 0, 56, 49
1, 138983, Control_c, 0, 64, 85
1, 138990, Poly_aftertouch_c, 0, 61, 127
1, 138998, Control_c, 0, 64, 81
1, 138998, Control_c, 0, 67, 100
1, 139013, Control_c, 0, 64, 72
1, 139025, Poly_aftertouch_c, 0, 61, 0
1, 139028, Control_c, 0, 64, 61
1, 139028, Control_c, 0, 67, 99
1, 139042, Control_c, 0, 64, 0
1, 139048, Note_on_c, 0, 40, 49
1, 139053, Note_off_c, 0, 56, 51
1, 139056, Note_off_c, 0, 68, 29
1, 139057, Control_c, 0, 64, 11
1, 139057, Control_c, 0, 67, 98
1, 139071, Note_on_c, 0, 47, 62
1, 139072, Control_c, 0, 64, 64
1, 139072, Control_c, 0, 67, 97
1, 139087, Control_c, 0, 64, 69
1, 139087, Control_c, 0, 67, 97
1, 139101, Control_c, 0, 64, 74
1, 139101, Control_c, 0, 67, 96
1, 139105, Note_off_c, 0, 40, 64
1, 139111, Note_on_c, 0, 56, 39
1, 139116, Control_c, 0, 64, 80
1, 139116, Control_c, 0, 67, 95
1, 139126, Note_off_c, 0, 47, 62
1, 139131, Control_c, 0, 64, 85
1, 139131, Control_c, 0, 67, 95
1, 139146, Control_c, 0, 64, 87
1, 139146, Control_c, 0, 67, 94
1, 139160, Control_c, 0, 64, 88
1, 139160, Control_c, 0, 67, 93
1, 139175, Control_c, 0, 67, 91
1, 139182, Note_on_c, 0, 59, 44
1, 139190, Control_c, 0, 67, 90
1, 139205, Control_c, 0, 67, 87
1, 139211, Note_off_c, 0, 56, 49
1, 139220, Control_c, 0, 67, 85
1, 139224, Note_on_c, 0, 63, 51
1, 139234, Control_c, 0, 67, 83
1, 139248, Note_on_c, 0, 68, 63
1, 139249, Control_c, 0, 67, 82
1, 139264, Control_c, 0, 67, 80
1, 139278, Control_c, 0, 67, 79
1, 139279, Note_off_c, 0, 59, 37
1, 139293, Control_c, 0, 67, 77
1, 139308, Control_c, 0, 67, 75
1, 139323, Control_c, 0, 67, 72
1, 139338, Control_c, 0, 67, 69
1, 139344, Note_on_c, 0, 56, 52
1, 139354, Control_c, 0, 67, 66
1, 139366, Note_off_c, 0, 68, 56
1, 139369, Control_c, 0, 67, 64
1, 139383, Control_c, 0, 67, 59
1, 139398, Control_c, 0, 67, 56
1, 139413, Control_c, 0, 67, 53
1, 139422, Note_off_c, 0, 56, 52
1, 139428, Control_c, 0, 67, 51
1, 139430, Note_on_c, 0, 57, 50
1, 139443, Control_c, 0, 67, 50
1, 139457, Control_c, 0, 67, 49
1, 139472, Control_c, 0, 64, 87
1, 139472, Control_c, 0, 67, 48
1, 139483, Note_on_c, 0, 69, 73
1, 139487, Control_c, 0, 67, 48
1, 139501, Control_c, 0, 67, 47
1, 139516, Control_c, 0, 67, 47
1, 139531, Control_c, 0, 67, 46
1, 139556, Note_on_c, 0, 56, 41
1, 139561, Control_c, 0, 67, 47
1, 139576, Control_c, 0, 67, 47
1, 139608, Note_on_c, 0, 61, 20
1, 139618, Note_off_c, 0, 57, 52
1, 139641, Note_on_c, 0, 64, 59
1, 139665, Note_off_c, 0, 56, 58
1, 139690, Note_on_c, 0, 68, 68
1, 139709, Control_c, 0, 67, 48
1, 139748, Note_off_c, 0, 64, 52
1, 139761, Control_c, 0, 67, 49
1, 139764, Note_off_c, 0, 69, 61
1, 139776, Control_c, 0, 67, 50
1, 139788, Note_on_c, 0, 56, 58
1, 139791, Control_c, 0, 67, 51
1, 139805, Control_c, 0, 67, 53
1, 139819, Note_off_c, 0, 63, 37
1, 139820, Note_on_c, 0, 59, 55
1, 139820, Control_c, 0, 67, 53
1, 139835, Note_off_c, 0, 68, 57
1, 139835, Control_c, 0, 67, 54
1, 139841, Note_off_c, 0, 56, 53
1, 139865, Control_c, 0, 67, 55
1, 139880, Control_c, 0, 67, 56
1, 139895, Control_c, 0, 67, 58
1, 139901, Note_on_c, 0, 71, 72
1, 139909, Control_c, 0, 67, 59
1, 139924, Control_c, 0, 64, 87
1, 139924, Control_c, 0, 67, 60
1, 139928, Note_off_c, 0, 71, 67
1, 139939, Control_c, 0, 67, 63
1, 139954, Control_c, 0, 67, 66
1, 139969, Control_c, 0, 67, 70
1, 139983, Control_c, 0, 67, 74
1, 139998, Note_off_c, 0, 61, 18
1, 139998, Control_c, 0, 67, 79
1, 140012, Note_on_c, 0, 56, 41
1, 140013, Note_off_c, 0, 59, 38
1, 140013, Control_c, 0, 67, 83
1, 140027, Control_c, 0, 67, 88
1, 140042, Control_c, 0, 67, 93
1, 140053, Note_on_c, 0, 63, 46
1, 140057, Control_c, 0, 67, 97
1, 140072, Control_c, 0, 67, 102
1, 140087, Control_c, 0, 64, 86
1, 140087, Control_c, 0, 67, 107
1, 140101, Control_c, 0, 67, 110
1, 140108, Note_on_c, 0, 66, 52
1, 140116, Note_on_c, 0, 68, 64
1, 140116, Control_c, 0, 67, 112
1, 140128, Note_off_c, 0, 56, 35
1, 140131, Control_c, 0, 67, 114
1, 140146, Control_c, 0, 67, 115
1, 140162, Control_c, 0, 67, 116
1, 140177, Control_c, 0, 64, 86
1, 140192, Control_c, 0, 64, 85
1, 140195, Note_off_c, 0, 63, 0
1, 140206, Control_c, 0, 64, 83
1, 140220, Note_on_c, 0, 56, 48
1, 140221, Control_c, 0, 64, 79
1, 140221, Control_c, 0, 67, 115
1, 140232, Poly_aftertouch_c, 0, 63, 127
1, 140236, Control_c, 0, 64, 71
1, 140236, Control_c, 0, 67, 114
1, 140246, Note_on_c, 0, 42, 52
1, 140250, Note_off_c, 0, 66, 35
1, 140251, Control_c, 0, 64, 58
1, 140251, Control_c, 0, 67, 112
1, 140262, Note_off_c, 0, 56, 53
1, 140266, Control_c, 0, 64, 0
1, 140266, Control_c, 0, 67, 111
1, 140273, Poly_aftertouch_c, 0, 63, 0
1, 140280, Control_c, 0, 67, 110
1, 140295, Control_c, 0, 67, 109
1, 140310, Control_c, 0, 67, 108
1, 140316, Note_on_c, 0, 49, 63
1, 140324, Control_c, 0, 64, 51
1, 140324, Control_c, 0, 67, 108
1, 140330, Note_off_c, 0, 68, 60
1, 140339, Control_c, 0, 64, 65
1, 140343, Note_off_c, 0, 42, 62
1, 140354, Control_c, 0, 64, 69
1, 140369, Control_c, 0, 64, 73
1, 140369, Control_c, 0, 67, 108
1, 140372, Note_off_c, 0, 49, 60
1, 140376, Note_on_c, 0, 57, 49
1, 140384, Control_c, 0, 64, 78
1, 140384, Control_c, 0, 67, 109
1, 140399, Control_c, 0, 64, 81
1, 140399, Control_c, 0, 67, 109
1, 140414, Control_c, 0, 64, 83
1, 140428, Control_c, 0, 64, 84
1, 140428, Control_c, 0, 67, 110
1, 140437, Note_on_c, 0, 61, 50
1, 140443, Control_c, 0, 64, 85
1, 140443, Control_c, 0, 67, 110
1, 140458, Control_c, 0, 64, 85
1, 140480, Control_c, 0, 67, 111
1, 140490, Note_off_c, 0, 61, 58
1, 140495, Control_c, 0, 67, 111
1, 140502, Note_on_c, 0, 69, 69
1, 140506, Note_on_c, 0, 65, 49
1, 140510, Control_c, 0, 64, 86
1, 140516, Note_off_c, 0, 57, 37
1, 140539, Control_c, 0, 67, 111
1, 140554, Control_c, 0, 67, 110
1, 140569, Control_c, 0, 67, 109
1, 140584, Control_c, 0, 67, 108
1, 140598, Control_c, 0, 67, 109
1, 140613, Control_c, 0, 67, 110
1, 140616, Note_on_c, 0, 61, 36
1, 140624, Note_on_c, 0, 59, 60
1, 140628, Control_c, 0, 64, 86
1, 140634, Note_on_c, 0, 57, 53
1, 140643, Control_c, 0, 64, 87
1, 140673, Control_c, 0, 64, 87
1, 140688, Control_c, 0, 64, 88
1, 140689, Note_off_c, 0, 57, 48
1, 140703, Control_c, 0, 64, 89
1, 140718, Control_c, 0, 64, 90
1, 140718, Control_c, 0, 67, 109
1, 140723, Note_on_c, 0, 71, 67
1, 140732, Control_c, 0, 64, 92
1, 140732, Control_c, 0, 67, 109
1, 140741, Note_off_c, 0, 71, 63
1, 140747, Note_off_c, 0, 65, 25
1, 140747, Control_c, 0, 64, 94
1, 140747, Control_c, 0, 67, 108
1, 140756, Note_off_c, 0, 61, 21
1, 140762, Control_c, 0, 64, 96
1, 140762, Control_c, 0, 67, 108
1, 140777, Control_c, 0, 64, 97
1, 140777, Control_c, 0, 67, 107
1, 140782, Note_on_c, 0, 57, 57
1, 140783, Note_off_c, 0, 59, 62
1, 140792, Control_c, 0, 64, 97
1, 140792, Control_c, 0, 67, 105
1, 140795, Note_off_c, 0, 69, 19
1, 140806, Control_c, 0, 67, 104
1, 140821, Control_c, 0, 67, 103
1, 140828, Note_on_c, 0, 62, 52
1, 140836, Control_c, 0, 67, 101
1, 140850, Control_c, 0, 67, 100
1, 140865, Control_c, 0, 64, 97
1, 140865, Control_c, 0, 67, 98
1, 140880, Control_c, 0, 64, 96
1, 140880, Control_c, 0, 67, 93
1, 140888, Note_off_c, 0, 57, 57
1, 140895, Control_c, 0, 64, 96
1, 140895, Control_c, 0, 67, 81
1, 140910, Control_c, 0, 64, 95
1, 140910, Control_c, 0, 67, 64
1, 140911, Note_on_c, 0, 66, 60
1, 140912, Note_on_c, 0, 69, 69
1, 140913, Note_off_c, 0, 62, 54
1, 140924, Control_c, 0, 64, 95
1, 140924, Control_c, 0, 67, 41
1, 140939, Control_c, 0, 64, 94
1, 140939, Control_c, 0, 67, 16
1, 140955, Control_c, 0, 64, 92
1, 140955, Control_c, 0, 67, 0
1, 140970, Control_c, 0, 64, 88
1, 140978, Note_on_c, 0, 62, 40
1, 140985, Control_c, 0, 64, 79
1, 141000, Control_c, 0, 64, 71
1, 141003, Note_on_c, 0, 57, 60
1, 141004, Note_on_c, 0, 42, 59
1, 141015, Control_c, 0, 64, 69
1, 141029, Control_c, 0, 64, 72
1, 141044, Control_c, 0, 64, 78
1, 141054, Note_off_c, 0, 66, 38
1, 141054, Note_off_c, 0, 62, 61
1, 141059, Control_c, 0, 64, 87
1, 141073, Control_c, 0, 64, 95
1, 141078, Note_off_c, 0, 57, 53
1, 141088, Note_on_c, 0, 49, 70
1, 141088, Control_c, 0, 64, 111
1, 141103, Control_c, 0, 64, 122
1, 141109, Note_off_c, 0, 42, 63
1, 141110, Note_off_c, 0, 69, 27
1, 141118, Control_c, 0, 64, 127
1, 141129, Note_off_c, 0, 49, 62
1, 141143, Note_on_c, 0, 57, 52
1, 141180, Note_on_c, 0, 61, 61
1, 141266, Note_on_c, 0, 69, 77
1, 141269, Note_on_c, 0, 65, 60
1, 141269, Note_off_c, 0, 57, 60
1, 141365, Note_on_c, 0, 57, 56
1, 141408, Note_on_c, 0, 59, 57
1, 141436, Control_c, 0, 64, 110
1, 141451, Control_c, 0, 64, 91
1, 141466, Note_on_c, 0, 60, 16
1, 141466, Control_c, 0, 64, 71
1, 141475, Note_off_c, 0, 57, 57
1, 141481, Control_c, 0, 64, 56
1, 141495, Note_on_c, 0, 71, 81
1, 141496, Control_c, 0, 64, 63
1, 141511, Control_c, 0, 64, 71
1, 141525, Control_c, 0, 64, 82
1, 141540, Control_c, 0, 64, 95
1, 141545, Note_off_c, 0, 65, 61
1, 141555, Control_c, 0, 64, 107
1, 141559, Note_on_c, 0, 57, 56
1, 141560, Note_off_c, 0, 71, 63
1, 141570, Control_c, 0, 64, 117
1, 141580, Note_off_c, 0, 69, 60
1, 141585, Control_c, 0, 64, 120
1, 141591, Note_on_c, 0, 62, 61
1, 141604, Note_off_c, 0, 59, 62
1, 141610, Note_off_c, 0, 61, 36
1, 141620, Note_off_c, 0, 60, 16
1, 141663, Note_off_c, 0, 57, 60
1, 141682, Note_on_c, 0, 66, 66
1, 141685, Note_off_c, 0, 62, 61
1, 141686, Note_on_c, 0, 69, 77
1, 141718, Control_c, 0, 64, 119
1, 141733, Control_c, 0, 64, 119
1, 141749, Control_c, 0, 64, 118
1, 141764, Note_on_c, 0, 46, 25
1, 141768, Note_on_c, 0, 62, 52
1, 141779, Note_off_c, 0, 69, 63
1, 141780, Note_on_c, 0, 57, 63
1, 141788, Note_off_c, 0, 66, 64
1, 141793, Control_c, 0, 64, 118
1, 141800, Note_on_c, 0, 42, 71
1, 141808, Control_c, 0, 64, 117
1, 141812, Note_off_c, 0, 46, 40
1, 141823, Control_c, 0, 64, 114
1, 141831, Note_off_c, 0, 62, 60
1, 141838, Control_c, 0, 64, 105
1, 141852, Control_c, 0, 64, 90
1, 141861, Note_off_c, 0, 57, 57
1, 141866, Note_on_c, 0, 49, 78
1, 141867, Control_c, 0, 64, 73
1, 141882, Control_c, 0, 64, 0
1, 141917, Note_off_c, 0, 42, 63
1, 141926, Control_c, 0, 64, 62
1, 141941, Control_c, 0, 64, 74
1, 141949, Note_on_c, 0, 57, 66
1, 141949, Note_off_c, 0, 49, 63
1, 141956, Control_c, 0, 64, 82
1, 141978, Control_c, 0, 64, 90
1, 141987, Note_on_c, 0, 61, 63
1, 141993, Control_c, 0, 64, 94
1, 142008, Control_c, 0, 64, 95
1, 142023, Control_c, 0, 64, 96
1, 142038, Control_c, 0, 64, 97
1, 142050, Note_on_c, 0, 69, 79
1, 142052, Control_c, 0, 64, 98
1, 142053, Note_on_c, 0, 65, 69
1, 142054, Note_off_c, 0, 57, 59
1, 142067, Control_c, 0, 64, 99
1, 142082, Control_c, 0, 64, 100
1, 142097, Control_c, 0, 64, 100
1, 142118, Note_off_c, 0, 61, 0
1, 142126, Control_c, 0, 64, 101
1, 142134, Note_on_c, 0, 61, 26
1, 142153, Note_on_c, 0, 57, 56
1, 142190, Note_on_c, 0, 58, 70
1, 142209, Note_off_c, 0, 65, 54
1, 142243, Poly_aftertouch_c, 0, 66, 127
1, 142248, Note_on_c, 0, 59, 37
1, 142262, Note_off_c, 0, 58, 64
1, 142275, Note_off_c, 0, 57, 61
1, 142284, Note_on_c, 0, 71, 86
1, 142336, Note_off_c, 0, 61, 40
1, 142368, Poly_aftertouch_c, 0, 66, 0
1, 142378, Note_on_c, 0, 57, 63
1, 142408, Control_c, 0, 64, 100
1, 142413, Note_on_c, 0, 62, 63
1, 142452, Control_c, 0, 64, 100
1, 142469, Note_off_c, 0, 69, 0
1, 142471, Note_off_c, 0, 59, 40
1, 142476, Note_off_c, 0, 57, 60
1, 142480, Note_on_c, 0, 69, 53
1, 142486, Note_on_c, 0, 66, 68
1, 142496, Control_c, 0, 64, 99
1, 142500, Note_off_c, 0, 62, 61
1, 142526, Control_c, 0, 64, 99
1, 142542, Control_c, 0, 64, 98
1, 142557, Control_c, 0, 64, 97
1, 142570, Note_on_c, 0, 62, 58
1, 142572, Control_c, 0, 64, 97
1, 142587, Control_c, 0, 64, 96
1, 142589, Note_on_c, 0, 57, 64
1, 142601, Control_c, 0, 64, 96
1, 142605, Note_off_c, 0, 71, 58
1, 142616, Control_c, 0, 64, 95
1, 142617, Note_on_c, 0, 61, 62
1, 142631, Control_c, 0, 64, 91
1, 142646, Control_c, 0, 64, 83
1, 142649, Note_on_c, 0, 67, 43
1, 142661, Control_c, 0, 64, 68
1, 142664, Poly_aftertouch_c, 0, 64, 127
1, 142675, Control_c, 0, 64, 0
1, 142708, Note_on_c, 0, 73, 85
1, 142722, Poly_aftertouch_c, 0, 65, 127
1, 142729, Note_off_c, 0, 57, 55
1, 142742, Control_c, 0, 64, 63
1, 142750, Poly_aftertouch_c, 0, 64, 0
1, 142757, Poly_aftertouch_c, 0, 65, 0
1, 142757, Control_c, 0, 64, 72
1, 142765, Note_off_c, 0, 67, 26
1, 142771, Control_c, 0, 64, 81
1, 142773, Note_off_c, 0, 62, 0
1, 142786, Control_c, 0, 64, 90
1, 142787, Poly_aftertouch_c, 0, 64, 127
1, 142789, Note_off_c, 0, 73, 66
1, 142801, Control_c, 0, 64, 96
1, 142810, Poly_aftertouch_c, 0, 62, 127
1, 142812, Note_on_c, 0, 62, 8
1, 142816, Control_c, 0, 64, 98
1, 142818, Note_on_c, 0, 57, 63
1, 142831, Control_c, 0, 64, 98
1, 142841, Note_off_c, 0, 66, 40
1, 142844, Note_off_c, 0, 69, 40
1, 142846, Control_c, 0, 64, 100
1, 142852, Note_off_c, 0, 61, 60
1, 142857, Poly_aftertouch_c, 0, 64, 0
1, 142860, Control_c, 0, 64, 101
1, 142875, Control_c, 0, 64, 101
1, 142912, Note_off_c, 0, 62, 58
1, 142927, Note_off_c, 0, 57, 57
1, 142933, Note_on_c, 0, 69, 66
1, 142948, Note_on_c, 0, 66, 63
1, 143041, Note_off_c, 0, 69, 60
1, 143043, Note_off_c, 0, 66, 62
1, 143046, Note_on_c, 0, 57, 51
1, 143063, Poly_aftertouch_c, 0, 49, 127
1, 143078, Note_on_c, 0, 44, 75
1, 143082, Control_c, 0, 64, 101
1, 143097, Control_c, 0, 64, 97
1, 143099, Note_off_c, 0, 57, 57
1, 143112, Control_c, 0, 64, 90
1, 143126, Control_c, 0, 64, 77
1, 143141, Control_c, 0, 64, 61
1, 143156, Control_c, 0, 64, 0
1, 143157, Note_on_c, 0, 51, 73
1, 143186, Control_c, 0, 64, 37
1, 143201, Control_c, 0, 64, 67
1, 143206, Note_off_c, 0, 44, 64
1, 143215, Poly_aftertouch_c, 0, 49, 0
1, 143216, Control_c, 0, 64, 75
1, 143223, Note_on_c, 0, 59, 59
1, 143231, Control_c, 0, 64, 84
1, 143236, Note_off_c, 0, 51, 63
1, 143245, Control_c, 0, 64, 91
1, 143253, Note_on_c, 0, 63, 58
1, 143260, Control_c, 0, 64, 94
1, 143275, Control_c, 0, 64, 95
1, 143290, Control_c, 0, 64, 96
1, 143308, Note_off_c, 0, 59, 61
1, 143308, Note_on_c, 0, 71, 78
1, 143312, Note_off_c, 0, 63, 62
1, 143313, Note_on_c, 0, 67, 66
1, 143409, Note_on_c, 0, 63, 48
1, 143433, Note_on_c, 0, 59, 53
1, 143449, Note_on_c, 0, 61, 74
1, 143457, Note_off_c, 0, 63, 52
1, 143457, Poly_aftertouch_c, 0, 68, 0
1, 143459, Note_off_c, 0, 67, 36
1, 143520, Note_off_c, 0, 59, 55
1, 143520, Note_on_c, 0, 73, 91
1, 143578, Note_off_c, 0, 73, 68
1, 143598, Note_on_c, 0, 59, 65
1, 143612, Note_off_c, 0, 71, 28
1, 143632, Note_off_c, 0, 61, 64
1, 143640, Note_on_c, 0, 64, 51
1, 143684, Control_c, 0, 64, 95
1, 143699, Control_c, 0, 64, 95
1, 143708, Note_off_c, 0, 59, 60
1, 143719, Note_on_c, 0, 71, 71
1, 143721, Note_on_c, 0, 68, 66
1, 143738, Note_off_c, 0, 64, 60
1, 143743, Control_c, 0, 64, 94
1, 143798, Note_on_c, 0, 64, 32
1, 143803, Control_c, 0, 64, 94
1, 143810, Note_off_c, 0, 71, 55
1, 143816, Note_off_c, 0, 68, 60
1, 143818, Control_c, 0, 64, 93
1, 143820, Note_on_c, 0, 59, 55
1, 143828, Note_on_c, 0, 44, 72
1, 143832, Control_c, 0, 64, 91
1, 143847, Control_c, 0, 64, 83
1, 143862, Control_c, 0, 64, 65
1, 143870, Note_off_c, 0, 64, 57
1, 143876, Control_c, 0, 64, 0
1, 143878, Note_off_c, 0, 59, 50
1, 143898, Note_on_c, 0, 51, 76
1, 143940, Note_off_c, 0, 44, 63
1, 143950, Control_c, 0, 64, 65
1, 143965, Control_c, 0, 64, 73
1, 143967, Note_on_c, 0, 59, 63
1, 143970, Note_off_c, 0, 51, 63
1, 143980, Control_c, 0, 64, 81
1, 143995, Control_c, 0, 64, 88
1, 144010, Control_c, 0, 64, 93
1, 144017, Note_on_c, 0, 62, 57
1, 144024, Control_c, 0, 64, 96
1, 144039, Control_c, 0, 64, 98
1, 144043, Note_off_c, 0, 62, 61
1, 144049, Note_off_c, 0, 59, 61
1, 144052, Note_on_c, 0, 67, 71
1, 144054, Control_c, 0, 64, 100
1, 144056, Note_on_c, 0, 71, 81
1, 144068, Control_c, 0, 64, 101
1, 144098, Control_c, 0, 64, 101
1, 144146, Poly_aftertouch_c, 0, 65, 127
1, 144155, Note_on_c, 0, 63, 55
1, 144157, Note_on_c, 0, 59, 52
1, 144193, Poly_aftertouch_c, 0, 66, 127
1, 144196, Poly_aftertouch_c, 0, 65, 0
1, 144197, Note_on_c, 0, 61, 77
1, 144232, Note_off_c, 0, 63, 61
1, 144253, Note_on_c, 0, 73, 85
1, 144259, Note_off_c, 0, 59, 52
1, 144301, Note_off_c, 0, 73, 67
1, 144313, Poly_aftertouch_c, 0, 66, 0
1, 144321, Note_off_c, 0, 67, 43
1, 144327, Note_on_c, 0, 59, 59
1, 144339, Note_off_c, 0, 61, 64
1, 144360, Note_on_c, 0, 64, 67
1, 144366, Note_off_c, 0, 71, 57
1, 144372, Control_c, 0, 64, 101
1, 144387, Control_c, 0, 64, 100
1, 144402, Control_c, 0, 64, 99
1, 144417, Control_c, 0, 64, 98
1, 144427, Note_off_c, 0, 59, 60
1, 144432, Control_c, 0, 64, 97
1, 144440, Note_off_c, 0, 64, 64
1, 144444, Note_on_c, 0, 71, 60
1, 144447, Control_c, 0, 64, 96
1, 144447, Note_on_c, 0, 68, 66
1, 144462, Control_c, 0, 64, 95
1, 144477, Control_c, 0, 64, 94
1, 144491, Control_c, 0, 64, 94
1, 144506, Control_c, 0, 64, 93
1, 144507, Note_on_c, 0, 64, 56
1, 144521, Control_c, 0, 64, 91
1, 144533, Note_off_c, 0, 68, 61
1, 144536, Control_c, 0, 64, 89
1, 144540, Note_off_c, 0, 71, 60
1, 144545, Note_on_c, 0, 59, 56
1, 144551, Control_c, 0, 64, 84
1, 144564, Note_on_c, 0, 44, 59
1, 144566, Control_c, 0, 64, 75
1, 144573, Note_off_c, 0, 64, 63
1, 144580, Control_c, 0, 64, 63
1, 144595, Control_c, 0, 64, 0
1, 144617, Note_off_c, 0, 59, 52
1, 144636, Note_on_c, 0, 51, 70
1, 144669, Control_c, 0, 64, 54
1, 144679, Note_off_c, 0, 44, 64
1, 144684, Control_c, 0, 64, 67
1, 144698, Note_on_c, 0, 59, 57
1, 144698, Control_c, 0, 64, 74
1, 144710, Note_off_c, 0, 51, 62
1, 144713, Control_c, 0, 64, 83
1, 144728, Control_c, 0, 64, 88
1, 144742, Note_on_c, 0, 63, 62
1, 144743, Control_c, 0, 64, 91
1, 144758, Control_c, 0, 64, 93
1, 144772, Control_c, 0, 64, 94
1, 144787, Note_off_c, 0, 59, 61
1, 144787, Control_c, 0, 64, 95
1, 144798, Note_on_c, 0, 67, 70
1, 144799, Note_on_c, 0, 71, 74
1, 144802, Control_c, 0, 64, 96
1, 144807, Note_off_c, 0, 63, 63
1, 144816, Control_c, 0, 64, 96
1, 144831, Control_c, 0, 64, 97
1, 144846, Control_c, 0, 64, 98
1, 144874, Note_on_c, 0, 63, 65
1, 144902, Note_on_c, 0, 59, 63
1, 144955, Note_on_c, 0, 61, 69
1, 144973, Note_off_c, 0, 63, 62
1, 144980, Note_on_c, 0, 64, 13
1, 145006, Note_off_c, 0, 59, 60
1, 145014, Poly_aftertouch_c, 0, 65, 127
1, 145058, Note_on_c, 0, 73, 90
1, 145058, Poly_aftertouch_c, 0, 65, 0
1, 145066, Note_off_c, 0, 64, 0
1, 145066, Note_on_c, 0, 64, 14
1, 145119, Note_on_c, 0, 59, 60
1, 145141, Note_off_c, 0, 64, 0
1, 145141, Note_on_c, 0, 64, 31
1, 145146, Note_off_c, 0, 67, 38
1, 145180, Note_off_c, 0, 71, 59
1, 145207, Note_off_c, 0, 61, 60
1, 145238, Note_off_c, 0, 59, 58
1, 145269, Note_on_c, 0, 68, 75
1, 145271, Note_on_c, 0, 71, 77
1, 145275, Note_off_c, 0, 64, 61
1, 145329, Control_c, 0, 64, 97
1, 145344, Control_c, 0, 64, 96
1, 145359, Control_c, 0, 64, 94
1, 145363, Note_on_c, 0, 64, 57
1, 145374, Control_c, 0, 64, 92
1, 145388, Control_c, 0, 64, 87
1, 145403, Control_c, 0, 64, 81
1, 145406, Note_on_c, 0, 59, 69
1, 145408, Note_on_c, 0, 63, 6
1, 145416, Note_off_c, 0, 68, 60
1, 145418, Control_c, 0, 64, 72
1, 145419, Note_off_c, 0, 71, 56
1, 145433, Control_c, 0, 64, 66
1, 145447, Control_c, 0, 64, 66
1, 145462, Control_c, 0, 64, 71
1, 145466, Note_off_c, 0, 64, 63
1, 145477, Control_c, 0, 64, 79
1, 145480, Note_off_c, 0, 73, 62
1, 145485, Note_on_c, 0, 69, 24
1, 145492, Control_c, 0, 64, 89
1, 145507, Control_c, 0, 64, 97
1, 145521, Control_c, 0, 64, 104
1, 145527, Note_off_c, 0, 59, 60
1, 145536, Control_c, 0, 64, 108
1, 145541, Note_on_c, 0, 75, 95
1, 145551, Control_c, 0, 64, 112
1, 145566, Control_c, 0, 64, 115
1, 145581, Control_c, 0, 64, 116
1, 145594, Note_off_c, 0, 75, 69
1, 145636, Note_on_c, 0, 59, 65
1, 145651, Note_off_c, 0, 69, 42
1, 145660, Note_off_c, 0, 63, 58
1, 145676, Note_on_c, 0, 66, 71
1, 145721, Control_c, 0, 64, 116
1, 145752, Control_c, 0, 64, 115
1, 145756, Note_off_c, 0, 59, 58
1, 145767, Control_c, 0, 64, 115
1, 145774, Note_on_c, 0, 69, 67
1, 145780, Note_on_c, 0, 71, 80
1, 145801, Note_off_c, 0, 66, 62
1, 145812, Control_c, 0, 64, 114
1, 145826, Control_c, 0, 64, 114
1, 145841, Control_c, 0, 64, 113
1, 145856, Control_c, 0, 64, 113
1, 145869, Note_on_c, 0, 66, 61
1, 145870, Control_c, 0, 64, 112
1, 145884, Note_on_c, 0, 59, 66
1, 145885, Control_c, 0, 64, 111
1, 145885, Control_c, 0, 67, 8
1, 145900, Control_c, 0, 64, 109
1, 145900, Control_c, 0, 67, 10
1, 145915, Control_c, 0, 64, 107
1, 145915, Control_c, 0, 67, 13
1, 145930, Control_c, 0, 64, 103
1, 145930, Control_c, 0, 67, 15
1, 145934, Note_on_c, 0, 40, 71
1, 145944, Control_c, 0, 64, 94
1, 145944, Control_c, 0, 67, 16
1, 145946, Note_off_c, 0, 59, 62
1, 145959, Control_c, 0, 64, 78
1, 145959, Control_c, 0, 67, 17
1, 145974, Control_c, 0, 64, 56
1, 145974, Control_c, 0, 67, 17
1, 145976, Note_off_c, 0, 71, 60
1, 145982, Note_off_c, 0, 66, 65
1, 145989, Control_c, 0, 64, 0
1, 145989, Control_c, 0, 67, 18
1, 145994, Note_off_c, 0, 69, 64
1, 145997, Note_on_c, 0, 47, 66
1, 146018, Control_c, 0, 67, 17
1, 146033, Control_c, 0, 64, 65
1, 146033, Control_c, 0, 67, 16
1, 146048, Control_c, 0, 64, 75
1, 146048, Control_c, 0, 67, 14
1, 146051, Note_on_c, 0, 52, 82
1, 146062, Note_off_c, 0, 40, 63
1, 146062, Control_c, 0, 64, 89
1, 146062, Control_c, 0, 67, 13
1, 146077, Control_c, 0, 64, 102
1, 146077, Control_c, 0, 67, 12
1, 146088, Note_off_c, 0, 47, 64
1, 146092, Control_c, 0, 64, 109
1, 146107, Control_c, 0, 64, 111
1, 146107, Control_c, 0, 67, 11
1, 146112, Note_off_c, 0, 52, 67
1, 146113, Note_on_c, 0, 68, 56
1, 146122, Control_c, 0, 64, 113
1, 146122, Control_c, 0, 67, 11
1, 146137, Control_c, 0, 64, 114
1, 146137, Control_c, 0, 67, 10
1, 146152, Control_c, 0, 64, 115
1, 146152, Control_c, 0, 67, 11
1, 146166, Note_on_c, 0, 71, 70
1, 146167, Control_c, 0, 64, 116
1, 146167, Control_c, 0, 67, 11
1, 146182, Control_c, 0, 64, 116
1, 146182, Control_c, 0, 67, 12
1, 146197, Control_c, 0, 67, 14
1, 146211, Control_c, 0, 67, 16
1, 146214, Note_off_c, 0, 68, 63
1, 146226, Control_c, 0, 67, 17
1, 146235, Note_on_c, 0, 80, 92
1, 146238, Note_on_c, 0, 76, 78
1, 146241, Control_c, 0, 67, 19
1, 146250, Note_off_c, 0, 71, 62
1, 146256, Control_c, 0, 67, 22
1, 146270, Control_c, 0, 67, 26
1, 146285, Control_c, 0, 67, 33
1, 146300, Control_c, 0, 64, 116
1, 146300, Control_c, 0, 67, 42
1, 146315, Control_c, 0, 67, 50
1, 146330, Control_c, 0, 64, 115
1, 146330, Control_c, 0, 67, 58
1, 146331, Note_on_c, 0, 71, 59
1, 146344, Control_c, 0, 64, 115
1, 146344, Control_c, 0, 67, 65
1, 146358, Note_on_c, 0, 68, 62
1, 146359, Control_c, 0, 64, 114
1, 146359, Control_c, 0, 67, 73
1, 146368, Note_off_c, 0, 76, 63
1, 146374, Control_c, 0, 64, 114
1, 146374, Control_c, 0, 67, 78
1, 146381, Note_on_c, 0, 63, 71
1, 146389, Control_c, 0, 64, 113
1, 146389, Control_c, 0, 67, 82
1, 146397, Note_off_c, 0, 80, 62
1, 146398, Note_off_c, 0, 71, 61
1, 146404, Control_c, 0, 67, 84
1, 146418, Control_c, 0, 64, 113
1, 146418, Control_c, 0, 67, 86
1, 146422, Note_off_c, 0, 68, 52
1, 146433, Control_c, 0, 64, 112
1, 146433, Control_c, 0, 67, 87
1, 146448, Control_c, 0, 64, 112
1, 146448, Control_c, 0, 67, 88
1, 146470, Control_c, 0, 64, 111
1, 146470, Control_c, 0, 67, 88
1, 146474, Note_on_c, 0, 75, 90
1, 146485, Control_c, 0, 64, 111
1, 146500, Control_c, 0, 64, 110
1, 146515, Control_c, 0, 64, 110
1, 146530, Control_c, 0, 64, 109
1, 146563, Note_on_c, 0, 64, 67
1, 146575, Control_c, 0, 64, 109
1, 146591, Note_on_c, 0, 68, 68
1, 146604, Note_off_c, 0, 75, 60
1, 146605, Control_c, 0, 67, 89
1, 146620, Control_c, 0, 67, 89
1, 146627, Note_off_c, 0, 63, 61
1, 146650, Control_c, 0, 67, 90
1, 146652, Note_off_c, 0, 64, 63
1, 146665, Control_c, 0, 67, 90
1, 146667, Note_on_c, 0, 71, 48
1, 146673, Note_on_c, 0, 76, 80
1, 146678, Note_off_c, 0, 68, 61
1, 146679, Control_c, 0, 67, 91
1, 146694, Control_c, 0, 67, 91
1, 146709, Control_c, 0, 67, 92
1, 146724, Control_c, 0, 67, 92
1, 146727, Note_off_c, 0, 71, 50
1, 146734, Note_on_c, 0, 68, 50
1, 146739, Control_c, 0, 67, 93
1, 146769, Note_on_c, 0, 61, 63
1, 146790, Note_on_c, 0, 64, 47
1, 146816, Note_off_c, 0, 76, 49
1, 146837, Poly_aftertouch_c, 0, 65, 127
1, 146842, Control_c, 0, 67, 93
1, 146852, Note_on_c, 0, 73, 77
1, 146857, Control_c, 0, 67, 94
1, 146872, Note_off_c, 0, 64, 60
1, 146877, Note_on_c, 0, 70, 34
1, 146881, Poly_aftertouch_c, 0, 65, 0
1, 146888, Note_off_c, 0, 73, 56
1, 146901, Control_c, 0, 67, 94
1, 146904, Note_off_c, 0, 68, 0
1, 146904, Note_on_c, 0, 68, 30
1, 146911, Note_off_c, 0, 70, 50
1, 146948, Note_off_c, 0, 61, 62
1, 146975, Control_c, 0, 67, 94
1, 147012, Note_on_c, 0, 71, 48
1, 147026, Note_off_c, 0, 68, 55
1, 147039, Note_on_c, 0, 75, 72
1, 147064, Control_c, 0, 67, 93
1, 147076, Note_on_c, 0, 68, 26
1, 147085, Note_off_c, 0, 71, 54
1, 147121, Note_on_c, 0, 63, 46
1, 147138, Note_on_c, 0, 59, 49
1, 147138, Note_off_c, 0, 75, 66
1, 147138, Control_c, 0, 67, 94
1, 147162, Note_off_c, 0, 63, 46
1, 147183, Control_c, 0, 64, 108
1, 147196, Note_off_c, 0, 68, 55
1, 147219, Control_c, 0, 67, 94
1, 147220, Note_on_c, 0, 71, 72
1, 147246, Note_off_c, 0, 71, 64
1, 147296, Note_off_c, 0, 59, 62
1, 147298, Note_on_c, 0, 61, 56
1, 147335, Note_on_c, 0, 68, 50
1, 147369, Control_c, 0, 64, 108
1, 147378, Note_off_c, 0, 61, 60
1, 147398, Control_c, 0, 67, 95
1, 147407, Note_on_c, 0, 73, 66
1, 147407, Note_off_c, 0, 68, 62
1, 147410, Note_on_c, 0, 71, 51
1, 147413, Control_c, 0, 64, 107
1, 147413, Control_c, 0, 67, 95
1, 147443, Control_c, 0, 64, 107
1, 147458, Control_c, 0, 64, 106
1, 147458, Control_c, 0, 67, 96
1, 147472, Control_c, 0, 64, 105
1, 147472, Control_c, 0, 67, 97
1, 147475, Note_on_c, 0, 61, 61
1, 147487, Control_c, 0, 64, 104
1, 147487, Control_c, 0, 67, 99
1, 147490, Note_off_c, 0, 71, 56
1, 147502, Control_c, 0, 64, 100
1, 147502, Control_c, 0, 67, 101
1, 147510, Note_off_c, 0, 61, 58
1, 147517, Control_c, 0, 64, 93
1, 147517, Control_c, 0, 67, 101
1, 147521, Note_off_c, 0, 73, 56
1, 147526, Note_on_c, 0, 40, 52
1, 147532, Control_c, 0, 64, 82
1, 147532, Control_c, 0, 67, 102
1, 147547, Control_c, 0, 64, 67
1, 147547, Control_c, 0, 67, 102
1, 147559, Note_on_c, 0, 68, 30
1, 147562, Control_c, 0, 64, 0
1, 147574, Note_on_c, 0, 47, 50
1, 147577, Control_c, 0, 67, 103
1, 147591, Control_c, 0, 67, 106
1, 147606, Control_c, 0, 64, 64
1, 147606, Control_c, 0, 67, 108
1, 147607, Note_off_c, 0, 40, 63
1, 147612, Note_off_c, 0, 68, 42
1, 147618, Note_on_c, 0, 52, 61
1, 147621, Control_c, 0, 64, 71
1, 147621, Control_c, 0, 67, 111
1, 147636, Control_c, 0, 64, 79
1, 147636, Control_c, 0, 67, 114
1, 147650, Control_c, 0, 64, 86
1, 147650, Control_c, 0, 67, 116
1, 147651, Note_off_c, 0, 47, 64
1, 147656, Note_on_c, 0, 64, 59
1, 147665, Note_off_c, 0, 52, 64
1, 147665, Control_c, 0, 64, 90
1, 147665, Control_c, 0, 67, 120
1, 147680, Control_c, 0, 64, 93
1, 147680, Control_c, 0, 67, 122
1, 147695, Control_c, 0, 64, 93
1, 147695, Control_c, 0, 67, 125
1, 147700, Note_on_c, 0, 68, 51
1, 147710, Control_c, 0, 64, 94
1, 147710, Control_c, 0, 67, 127
1, 147724, Control_c, 0, 64, 94
1, 147743, Note_off_c, 0, 64, 60
1, 147748, Note_on_c, 0, 71, 46
1, 147770, Note_on_c, 0, 76, 75
1, 147796, Note_off_c, 0, 71, 51
1, 147812, Note_off_c, 0, 68, 0
1, 147849, Poly_aftertouch_c, 0, 68, 127
1, 147850, Note_on_c, 0, 68, 3
1, 147869, Note_on_c, 0, 64, 41
1, 147875, Note_off_c, 0, 76, 55
1, 147906, Note_on_c, 0, 61, 61
1, 147975, Note_on_c, 0, 73, 59
1, 147999, Note_off_c, 0, 64, 29
1, 148008, Note_off_c, 0, 68, 0
1, 148008, Note_on_c, 0, 68, 12
1, 148020, Note_off_c, 0, 73, 61
1, 148042, Note_off_c, 0, 61, 48
1, 148090, Note_on_c, 0, 71, 46
1, 148149, Note_on_c, 0, 75, 66
1, 148171, Note_off_c, 0, 71, 56
1, 148181, Note_off_c, 0, 68, 0
1, 148204, Note_on_c, 0, 68, 13
1, 148245, Note_off_c, 0, 75, 55
1, 148250, Note_on_c, 0, 63, 6
1, 148277, Note_on_c, 0, 59, 46
1, 148300, Note_off_c, 0, 63, 50
1, 148331, Note_off_c, 0, 68, 37
1, 148384, Note_on_c, 0, 71, 36
1, 148386, Note_off_c, 0, 59, 53
1, 148413, Note_off_c, 0, 71, 50
1, 148438, Note_on_c, 0, 61, 54
1, 148447, Note_on_c, 0, 68, 48
1, 148501, Note_on_c, 0, 73, 71
1, 148509, Note_on_c, 0, 71, 48
1, 148510, Note_off_c, 0, 61, 61
1, 148519, Note_off_c, 0, 68, 59
1, 148574, Note_off_c, 0, 71, 55
1, 148579, Note_on_c, 0, 61, 55
1, 148610, Note_off_c, 0, 73, 58
1, 148621, Note_off_c, 0, 61, 63
1, 148651, Control_c, 0, 64, 94
1, 148656, Note_on_c, 0, 58, 51
1, 148718, Note_on_c, 0, 70, 52
1, 148733, Control_c, 0, 64, 93
1, 148739, Note_off_c, 0, 70, 59
1, 148754, Note_off_c, 0, 58, 63
1, 148762, Control_c, 0, 64, 93
1, 148805, Note_on_c, 0, 59, 20
1, 148821, Control_c, 0, 64, 92
1, 148839, Note_on_c, 0, 64, 37
1, 148878, Note_on_c, 0, 71, 58
1, 148894, Control_c, 0, 64, 92
1, 148912, Note_off_c, 0, 59, 34
1, 148924, Control_c, 0, 64, 91
1, 148925, Note_on_c, 0, 68, 41
1, 148940, Control_c, 0, 64, 91
1, 148955, Control_c, 0, 64, 90
1, 148960, Note_off_c, 0, 64, 0
1, 148969, Control_c, 0, 64, 89
1, 148984, Control_c, 0, 64, 87
1, 148990, Note_off_c, 0, 71, 59
1, 148996, Poly_aftertouch_c, 0, 64, 127
1, 148999, Control_c, 0, 64, 84
1, 149013, Note_on_c, 0, 59, 42
1, 149014, Control_c, 0, 64, 79
1, 149025, Note_on_c, 0, 40, 47
1, 149029, Control_c, 0, 64, 68
1, 149043, Control_c, 0, 64, 35
1, 149044, Note_off_c, 0, 59, 53
1, 149049, Note_off_c, 0, 68, 43
1, 149055, Note_off_c, 0, 40, 65
1, 149058, Control_c, 0, 64, 0
1, 149075, Note_on_c, 0, 47, 49
1, 149103, Control_c, 0, 64, 44
1, 149118, Poly_aftertouch_c, 0, 64, 0
1, 149118, Control_c, 0, 64, 66
1, 149132, Note_on_c, 0, 52, 50
1, 149133, Control_c, 0, 64, 71
1, 149148, Control_c, 0, 64, 78
1, 149162, Control_c, 0, 64, 86
1, 149174, Note_off_c, 0, 52, 65
1, 149174, Note_off_c, 0, 47, 59
1, 149177, Control_c, 0, 64, 91
1, 149182, Note_on_c, 0, 61, 51
1, 149192, Control_c, 0, 64, 94
1, 149207, Control_c, 0, 64, 96
1, 149222, Control_c, 0, 64, 97
1, 149225, Note_on_c, 0, 64, 37
1, 149236, Control_c, 0, 64, 98
1, 149258, Note_off_c, 0, 61, 61
1, 149281, Note_on_c, 0, 73, 57
1, 149333, Note_on_c, 0, 68, 23
1, 149347, Note_on_c, 0, 61, 50
1, 149377, Note_off_c, 0, 68, 47
1, 149379, Note_off_c, 0, 73, 62
1, 149393, Note_off_c, 0, 61, 58
1, 149473, Note_on_c, 0, 58, 51
1, 149480, Poly_aftertouch_c, 0, 62, 127
1, 149539, Note_on_c, 0, 70, 50
1, 149571, Note_on_c, 0, 59, 45
1, 149586, Note_off_c, 0, 64, 0
1, 149597, Poly_aftertouch_c, 0, 62, 0
1, 149622, Poly_aftertouch_c, 0, 64, 127
1, 149630, Note_off_c, 0, 58, 56
1, 149636, Note_off_c, 0, 70, 38
1, 149655, Note_off_c, 0, 59, 44
1, 149691, Poly_aftertouch_c, 0, 64, 0
1, 149701, Note_on_c, 0, 71, 54
1, 149717, Control_c, 0, 67, 123
1, 149733, Control_c, 0, 67, 119
1, 149748, Control_c, 0, 67, 116
1, 149763, Control_c, 0, 67, 111
1, 149768, Note_on_c, 0, 64, 28
1, 149771, Poly_aftertouch_c, 0, 68, 127
1, 149778, Control_c, 0, 67, 107
1, 149783, Note_off_c, 0, 71, 55
1, 149792, Control_c, 0, 67, 103
1, 149800, Poly_aftertouch_c, 0, 68, 0
1, 149803, Note_on_c, 0, 59, 43
1, 149807, Control_c, 0, 67, 100
1, 149811, Note_off_c, 0, 64, 59
1, 149822, Control_c, 0, 67, 98
1, 149831, Note_on_c, 0, 56, 47
1, 149836, Control_c, 0, 67, 96
1, 149851, Control_c, 0, 67, 94
1, 149860, Note_off_c, 0, 59, 43
1, 149866, Control_c, 0, 67, 92
1, 149881, Control_c, 0, 67, 88
1, 149896, Control_c, 0, 67, 82
1, 149909, Note_on_c, 0, 68, 60
1, 149911, Control_c, 0, 67, 78
1, 149926, Control_c, 0, 67, 74
1, 149941, Control_c, 0, 67, 72
1, 149955, Control_c, 0, 67, 69
1, 149970, Control_c, 0, 67, 65
1, 149976, Note_off_c, 0, 68, 62
1, 149985, Control_c, 0, 67, 62
1, 149995, Note_on_c, 0, 63, 52
1, 149998, Note_on_c, 0, 57, 41
1, 150000, Control_c, 0, 67, 58
1, 150004, Note_off_c, 0, 56, 32
1, 150015, Control_c, 0, 67, 55
1, 150029, Control_c, 0, 67, 52
1, 150044, Control_c, 0, 67, 50
1, 150049, Note_off_c, 0, 57, 60
1, 150059, Control_c, 0, 67, 47
1, 150066, Note_on_c, 0, 69, 67
1, 150074, Control_c, 0, 67, 43
1, 150077, Note_off_c, 0, 63, 51
1, 150089, Control_c, 0, 67, 39
1, 150103, Control_c, 0, 67, 34
1, 150118, Control_c, 0, 67, 31
1, 150133, Control_c, 0, 67, 29
1, 150143, Note_off_c, 0, 69, 55
1, 150148, Control_c, 0, 67, 28
1, 150159, Note_on_c, 0, 57, 52
1, 150161, Note_on_c, 0, 55, 39
1, 150163, Control_c, 0, 67, 27
1, 150177, Control_c, 0, 67, 26
1, 150192, Control_c, 0, 67, 26
1, 150215, Control_c, 0, 67, 25
1, 150237, Note_off_c, 0, 57, 43
1, 150243, Note_on_c, 0, 67, 77
1, 150246, Note_off_c, 0, 55, 59
1, 150274, Control_c, 0, 67, 26
1, 150289, Control_c, 0, 67, 26
1, 150299, Note_off_c, 0, 67, 59
1, 150304, Control_c, 0, 67, 27
1, 150318, Control_c, 0, 67, 28
1, 150334, Control_c, 0, 67, 29
1, 150340, Note_on_c, 0, 63, 27
1, 150364, Control_c, 0, 67, 30
1, 150379, Note_on_c, 0, 64, 37
1, 150379, Control_c, 0, 67, 30
1, 150408, Control_c, 0, 67, 31
1, 150416, Note_on_c, 0, 68, 74
1, 150423, Control_c, 0, 67, 32
1, 150437, Control_c, 0, 67, 33
1, 150452, Control_c, 0, 67, 33
1, 150467, Note_off_c, 0, 64, 53
1, 150467, Control_c, 0, 67, 34
1, 150479, Note_off_c, 0, 63, 30
1, 150482, Control_c, 0, 67, 34
1, 150487, Note_on_c, 0, 56, 63
1, 150497, Control_c, 0, 67, 35
1, 150507, Poly_aftertouch_c, 0, 60, 0
1, 150523, Note_on_c, 0, 59, 62
1, 150526, Control_c, 0, 67, 36
1, 150537, Note_off_c, 0, 56, 60
1, 150542, Control_c, 0, 67, 36
1, 150557, Control_c, 0, 67, 37
1, 150587, Control_c, 0, 67, 37
1, 150600, Note_off_c, 0, 68, 61
1, 150641, Note_on_c, 0, 71, 71
1, 150664, Note_on_c, 0, 57, 63
1, 150709, Note_off_c, 0, 59, 0
1, 150720, Control_c, 0, 67, 37
1, 150722, Note_off_c, 0, 71, 58
1, 150749, Control_c, 0, 67, 36
1, 150754, Poly_aftertouch_c, 0, 59, 0
1, 150757, Note_off_c, 0, 57, 58
1, 150764, Control_c, 0, 67, 36
1, 150769, Note_on_c, 0, 69, 66
1, 150771, Poly_aftertouch_c, 0, 61, 127
1, 150779, Control_c, 0, 67, 35
1, 150782, Note_on_c, 0, 65, 28
1, 150794, Control_c, 0, 67, 35
1, 150808, Poly_aftertouch_c, 0, 61, 0
1, 150808, Control_c, 0, 67, 34
1, 150823, Control_c, 0, 67, 34
1, 150845, Poly_aftertouch_c, 0, 61, 127
1, 150853, Control_c, 0, 67, 33
1, 150856, Note_off_c, 0, 69, 61
1, 150858, Note_on_c, 0, 57, 54
1, 150897, Note_on_c, 0, 56, 62
1, 150897, Control_c, 0, 67, 32
1, 150938, Note_off_c, 0, 57, 56
1, 150939, Poly_aftertouch_c, 0, 62, 127
1, 150969, Note_on_c, 0, 68, 84
1, 150987, Poly_aftertouch_c, 0, 61, 0
1, 150994, Control_c, 0, 67, 32
1, 150997, Poly_aftertouch_c, 0, 62, 0
1, 150999, Note_off_c, 0, 56, 62
1, 151065, Note_on_c, 0, 57, 63
1, 151070, Note_on_c, 0, 62, 48
1, 151079, Note_off_c, 0, 68, 60
1, 151109, Note_off_c, 0, 65, 0
1, 151130, Note_on_c, 0, 65, 13
1, 151132, Note_off_c, 0, 57, 60
1, 151135, Note_on_c, 0, 69, 64
1, 151169, Note_off_c, 0, 62, 0
1, 151181, Note_on_c, 0, 62, 40
1, 151201, Control_c, 0, 67, 31
1, 151203, Note_on_c, 0, 57, 56
1, 151219, Note_off_c, 0, 69, 61
1, 151226, Note_on_c, 0, 59, 63
1, 151252, Note_off_c, 0, 65, 0
1, 151258, Note_off_c, 0, 57, 60
1, 151277, Note_off_c, 0, 62, 58
1, 151288, Poly_aftertouch_c, 0, 65, 127
1, 151291, Note_on_c, 0, 71, 85
1, 151302, Note_off_c, 0, 59, 62
1, 151320, Control_c, 0, 67, 31
1, 151322, Poly_aftertouch_c, 0, 65, 0
1, 151350, Control_c, 0, 67, 30
1, 151369, Note_off_c, 0, 71, 55
1, 151392, Note_on_c, 0, 64, 62
1, 151436, Note_on_c, 0, 67, 63
1, 151454, Note_off_c, 0, 64, 64
1, 151465, Note_on_c, 0, 72, 70
1, 151469, Control_c, 0, 67, 30
1, 151483, Control_c, 0, 67, 29
1, 151498, Control_c, 0, 64, 99
1, 151498, Control_c, 0, 67, 28
1, 151505, Note_on_c, 0, 64, 56
1, 151513, Control_c, 0, 64, 101
1, 151513, Control_c, 0, 67, 26
1, 151520, Note_off_c, 0, 67, 62
1, 151528, Control_c, 0, 64, 103
1, 151528, Control_c, 0, 67, 24
1, 151543, Control_c, 0, 64, 106
1, 151543, Control_c, 0, 67, 18
1, 151553, Note_on_c, 0, 60, 65
1, 151555, Note_off_c, 0, 72, 63
1, 151557, Control_c, 0, 64, 109
1, 151557, Control_c, 0, 67, 10
1, 151562, Note_on_c, 0, 62, 71
1, 151565, Note_on_c, 0, 65, 34
1, 151571, Note_off_c, 0, 64, 60
1, 151572, Control_c, 0, 64, 114
1, 151572, Control_c, 0, 67, 0
1, 151587, Control_c, 0, 64, 118
1, 151596, Note_off_c, 0, 65, 63
1, 151602, Control_c, 0, 64, 124
1, 151606, Poly_aftertouch_c, 0, 68, 0
1, 151612, Note_off_c, 0, 60, 60
1, 151617, Note_on_c, 0, 74, 92
1, 151617, Control_c, 0, 64, 127
1, 151634, Poly_aftertouch_c, 0, 68, 0
1, 151636, Note_off_c, 0, 62, 61
1, 151676, Note_off_c, 0, 74, 62
1, 151723, Note_on_c, 0, 64, 63
1, 151723, Note_on_c, 0, 68, 75
1, 151787, Note_off_c, 0, 64, 63
1, 151810, Note_on_c, 0, 76, 70
1, 151815, Note_on_c, 0, 71, 37
1, 151822, Note_on_c, 0, 74, 64
1, 151844, Note_off_c, 0, 71, 53
1, 151862, Note_on_c, 0, 64, 73
1, 151877, Note_off_c, 0, 74, 48
1, 151882, Note_off_c, 0, 76, 63
1, 151900, Note_on_c, 0, 65, 81
1, 151921, Note_off_c, 0, 64, 64
1, 151932, Note_off_c, 0, 68, 39
1, 151950, Note_on_c, 0, 77, 89
1, 151955, Note_on_c, 0, 73, 67
1, 151959, Note_off_c, 0, 65, 66
1, 151987, Note_off_c, 0, 73, 61
1, 152042, Note_off_c, 0, 77, 61
1, 152045, Note_on_c, 0, 71, 63
1, 152051, Note_on_c, 0, 67, 59
1, 152100, Note_on_c, 0, 74, 55
1, 152115, Note_off_c, 0, 67, 63
1, 152133, Note_off_c, 0, 71, 57
1, 152134, Note_on_c, 0, 79, 78
1, 152187, Note_on_c, 0, 71, 42
1, 152191, Note_off_c, 0, 74, 62
1, 152192, Note_on_c, 0, 72, 7
1, 152206, Note_on_c, 0, 67, 71
1, 152209, Note_on_c, 0, 68, 79
1, 152230, Note_off_c, 0, 79, 56
1, 152247, Poly_aftertouch_c, 0, 75, 0
1, 152263, Note_on_c, 0, 80, 96
1, 152289, Note_off_c, 0, 67, 59
1, 152293, Note_off_c, 0, 71, 60
1, 152296, Note_off_c, 0, 68, 67
1, 152297, Note_on_c, 0, 74, 41
1, 152334, Note_off_c, 0, 80, 65
1, 152343, Note_off_c, 0, 72, 0
1, 152343, Note_on_c, 0, 72, 8
1, 152343, Note_on_c, 0, 79, 48
1, 152367, Note_off_c, 0, 79, 36
1, 152381, Note_on_c, 0, 67, 67
1, 152430, Note_on_c, 0, 76, 52
1, 152434, Note_on_c, 0, 79, 82
1, 152437, Note_off_c, 0, 67, 63
1, 152445, Note_off_c, 0, 72, 0
1, 152488, Note_on_c, 0, 72, 25
1, 152500, Note_on_c, 0, 67, 62
1, 152503, Note_on_c, 0, 77, 14
1, 152522, Note_off_c, 0, 67, 68
1, 152524, Note_on_c, 0, 71, 80
1, 152524, Note_off_c, 0, 74, 0
1, 152524, Note_on_c, 0, 74, 3
1, 152529, Note_off_c, 0, 79, 61
1, 152537, Note_off_c, 0, 76, 47
1, 152550, Note_off_c, 0, 77, 34
1, 152553, Note_off_c, 0, 74, 56
1, 152577, Note_on_c, 0, 83, 96
1, 152591, Note_off_c, 0, 71, 64
1, 152629, Note_off_c, 0, 72, 36
1, 152638, Note_off_c, 0, 83, 57
1, 152652, Note_on_c, 0, 76, 62
1, 152660, Note_on_c, 0, 74, 57
1, 152687, Note_on_c, 0, 79, 61
1, 152689, Note_off_c, 0, 74, 64
1, 152709, Note_on_c, 0, 77, 37
1, 152728, Note_on_c, 0, 84, 72
1, 152747, Note_off_c, 0, 76, 0
1, 152763, Note_on_c, 0, 76, 45
1, 152781, Note_off_c, 0, 79, 55
1, 152792, Note_off_c, 0, 77, 0
1, 152802, Note_on_c, 0, 72, 69
1, 152811, Note_on_c, 0, 77, 7
1, 152811, Note_off_c, 0, 84, 60
1, 152817, Note_on_c, 0, 74, 82
1, 152843, Note_off_c, 0, 77, 56
1, 152857, Note_off_c, 0, 72, 64
1, 152869, Note_on_c, 0, 86, 104
1, 152886, Note_off_c, 0, 74, 45
1, 152893, Note_on_c, 0, 82, 65
1, 152912, Note_off_c, 0, 76, 47
1, 152921, Note_off_c, 0, 86, 61
1, 152950, Note_on_c, 0, 80, 80
1, 152955, Note_on_c, 0, 76, 67
1, 153014, Note_off_c, 0, 76, 64
1, 153024, Note_on_c, 0, 88, 84
1, 153032, Note_on_c, 0, 85, 12
1, 153072, Note_off_c, 0, 82, 0
1, 153089, Note_on_c, 0, 76, 74
1, 153108, Note_on_c, 0, 77, 83
1, 153110, Note_off_c, 0, 88, 61
1, 153121, Poly_aftertouch_c, 0, 82, 0
1, 153137, Note_off_c, 0, 76, 67
1, 153151, Note_off_c, 0, 85, 38
1, 153169, Note_on_c, 0, 89, 103
1, 153173, Note_off_c, 0, 77, 60
1, 153184, Note_on_c, 0, 85, 43
1, 153208, Note_off_c, 0, 80, 59
1, 153238, Note_on_c, 0, 79, 77
1, 153245, Note_off_c, 0, 89, 59
1, 153253, Note_on_c, 0, 83, 70
1, 153255, Note_off_c, 0, 85, 0
1, 153255, Note_on_c, 0, 85, 9
1, 153272, Poly_aftertouch_c, 0, 86, 0
1, 153293, Note_off_c, 0, 79, 64
1, 153297, Note_on_c, 0, 86, 41
1, 153318, Note_on_c, 0, 91, 85
1, 153387, Note_on_c, 0, 84, 29
1, 153389, Note_on_c, 0, 79, 81
1, 153395, Note_off_c, 0, 91, 64
1, 153411, Note_off_c, 0, 85, 36
1, 153416, Note_on_c, 0, 80, 76
1, 153443, Note_off_c, 0, 79, 63
1, 153452, Note_off_c, 0, 84, 0
1, 153452, Note_on_c, 0, 84, 23
1, 153456, Note_off_c, 0, 86, 0
1, 153456, Note_on_c, 0, 86, 28
1, 153456, Note_on_c, 0, 92, 108
1, 153500, Note_off_c, 0, 92, 68
1, 153503, Note_off_c, 0, 86, 64
1, 153512, Note_off_c, 0, 83, 58
1, 153518, Note_off_c, 0, 84, 0
1, 153539, Note_on_c, 0, 84, 31
1, 153540, Note_on_c, 0, 79, 85
1, 153544, Note_off_c, 0, 80, 66
1, 153596, Note_off_c, 0, 79, 64
1, 153614, Note_on_c, 0, 91, 80
1, 153616, Note_on_c, 0, 88, 66
1, 153634, Note_off_c, 0, 84, 57
1, 153661, Note_on_c, 0, 84, 59
1, 153674, Note_off_c, 0, 91, 61
1, 153689, Note_on_c, 0, 79, 84
1, 153696, Note_off_c, 0, 88, 61
1, 153715, Note_off_c, 0, 84, 66
1, 153718, Note_on_c, 0, 72, 73
1, 153732, Note_off_c, 0, 79, 65
1, 153748, Note_on_c, 0, 76, 93
1, 153788, Note_off_c, 0, 76, 70
1, 153790, Note_off_c, 0, 72, 66
1, 153833, Note_on_c, 0, 67, 84
1, 153893, Note_on_c, 0, 72, 62
1, 153900, Note_off_c, 0, 67, 62
1, 153911, Note_on_c, 0, 79, 88
1, 153916, Note_on_c, 0, 76, 69
1, 153983, Note_off_c, 0, 72, 0
1, 153987, Note_on_c, 0, 67, 89
1, 154016, Note_off_c, 0, 79, 44
1, 154020, Poly_aftertouch_c, 0, 72, 127
1, 154027, Note_off_c, 0, 76, 62
1, 154049, Note_on_c, 0, 68, 82
1, 154080, Note_off_c, 0, 67, 60
1, 154088, Note_on_c, 0, 80, 101
1, 154114, Poly_aftertouch_c, 0, 72, 0
1, 154114, Poly_aftertouch_c, 0, 74, 127
1, 154122, Note_off_c, 0, 80, 69
1, 154134, Poly_aftertouch_c, 0, 73, 127
1, 154151, Note_off_c, 0, 68, 65
1, 154161, Note_on_c, 0, 67, 89
1, 154188, Note_on_c, 0, 72, 66
1, 154189, Poly_aftertouch_c, 0, 74, 0
1, 154231, Note_off_c, 0, 67, 63
1, 154240, Note_on_c, 0, 76, 78
1, 154242, Note_on_c, 0, 79, 94
1, 154256, Note_off_c, 0, 72, 63
1, 154274, Poly_aftertouch_c, 0, 73, 0
1, 154295, Note_on_c, 0, 72, 71
1, 154305, Poly_aftertouch_c, 0, 74, 0
1, 154308, Note_off_c, 0, 79, 65
1, 154317, Note_on_c, 0, 67, 88
1, 154322, Note_off_c, 0, 76, 68
1, 154344, Note_off_c, 0, 72, 66
1, 154345, Note_on_c, 0, 60, 64
1, 154362, Note_off_c, 0, 67, 64
1, 154377, Note_on_c, 0, 64, 92
1, 154413, Note_off_c, 0, 64, 70
1, 154419, Note_off_c, 0, 60, 64
1, 154467, Note_on_c, 0, 55, 82
1, 154528, Note_off_c, 0, 55, 66
1, 154540, Note_on_c, 0, 60, 59
1, 154553, Note_on_c, 0, 67, 91
1, 154565, Note_on_c, 0, 64, 67
1, 154615, Note_off_c, 0, 60, 0
1, 154627, Note_on_c, 0, 60, 44
1, 154631, Note_on_c, 0, 55, 86
1, 154647, Note_on_c, 0, 61, 16
1, 154663, Note_off_c, 0, 67, 43
1, 154664, Note_off_c, 0, 64, 56
1, 154669, Poly_aftertouch_c, 0, 62, 127
1, 154687, Note_on_c, 0, 56, 81
1, 154722, Note_off_c, 0, 55, 59
1, 154726, Note_on_c, 0, 68, 98
1, 154728, Note_off_c, 0, 61, 0
1, 154728, Note_on_c, 0, 61, 25
1, 154733, Note_on_c, 0, 62, 7
1, 154768, Note_off_c, 0, 68, 70
1, 154773, Note_on_c, 0, 67, 37
1, 154791, Note_off_c, 0, 60, 55
1, 154805, Note_off_c, 0, 62, 40
1, 154807, Note_off_c, 0, 56, 65
1, 154825, Note_on_c, 0, 55, 88
1, 154830, Poly_aftertouch_c, 0, 64, 127
1, 154838, Note_on_c, 0, 60, 59
1, 154851, Note_off_c, 0, 67, 38
1, 154862, Poly_aftertouch_c, 0, 64, 0
1, 154927, Note_off_c, 0, 55, 57
1, 154943, Note_off_c, 0, 61, 15
1, 154945, Note_on_c, 0, 64, 84
1, 154951, Note_on_c, 0, 67, 90
1, 154967, Note_off_c, 0, 60, 63
1, 155048, Note_on_c, 0, 55, 87
1, 155059, Note_off_c, 0, 64, 63
1, 155060, Note_off_c, 0, 67, 60
1, 155174, Note_on_c, 0, 36, 77
1, 155211, Control_c, 0, 64, 123
1, 155226, Control_c, 0, 64, 115
1, 155241, Control_c, 0, 64, 105
1, 155247, Note_on_c, 0, 56, 99
1, 155255, Control_c, 0, 64, 94
1, 155270, Control_c, 0, 64, 81
1, 155284, Note_off_c, 0, 55, 60
1, 155285, Control_c, 0, 64, 64
1, 155300, Control_c, 0, 64, 0
1, 155405, Control_c, 0, 64, 54
1, 155419, Control_c, 0, 64, 70
1, 155434, Control_c, 0, 64, 83
1, 155456, Control_c, 0, 64, 96
1, 155467, Note_on_c, 0, 43, 59
1, 155471, Control_c, 0, 64, 107
1, 155486, Control_c, 0, 64, 112
1, 155501, Control_c, 0, 64, 114
1, 155516, Control_c, 0, 64, 117
1, 155523, Note_off_c, 0, 36, 60
1, 155530, Control_c, 0, 64, 120
1, 155545, Control_c, 0, 64, 123
1, 155557, Note_on_c, 0, 48, 66
1, 155560, Control_c, 0, 64, 126
1, 155565, Note_off_c, 0, 43, 60
1, 155575, Control_c, 0, 64, 127
1, 155596, Note_off_c, 0, 48, 65
1, 155695, Note_on_c, 0, 55, 96
1, 155729, Note_on_c, 0, 50, 36
1, 155796, Note_off_c, 0, 56, 48
1, 155807, Note_off_c, 0, 50, 57
1, 155856, Note_on_c, 0, 62, 50
1, 155870, Note_on_c, 0, 60, 53
1, 155884, Note_off_c, 0, 62, 60
1, 155893, Note_off_c, 0, 60, 62
1, 155944, Note_on_c, 0, 48, 72
1, 155976, Note_off_c, 0, 48, 66
1, 156033, Note_on_c, 0, 48, 76
1, 156070, Note_off_c, 0, 48, 59
1, 156078, Control_c, 0, 64, 125
1, 156084, Note_on_c, 0, 43, 68
1, 156093, Control_c, 0, 64, 122
1, 156108, Control_c, 0, 64, 118
1, 156124, Control_c, 0, 64, 114
1, 156139, Control_c, 0, 64, 108
1, 156141, Note_on_c, 0, 53, 92
1, 156151, Note_off_c, 0, 43, 62
1, 156153, Control_c, 0, 64, 100
1, 156161, Note_on_c, 0, 36, 70
1, 156168, Control_c, 0, 64, 88
1, 156171, Note_off_c, 0, 55, 61
1, 156183, Control_c, 0, 64, 73
1, 156206, Control_c, 0, 64, 0
1, 156250, Control_c, 0, 64, 26
1, 156265, Control_c, 0, 64, 67
1, 156275, Note_on_c, 0, 43, 63
1, 156279, Control_c, 0, 64, 76
1, 156294, Control_c, 0, 64, 89
1, 156308, Note_off_c, 0, 36, 60
1, 156309, Control_c, 0, 64, 98
1, 156325, Control_c, 0, 64, 102
1, 156340, Control_c, 0, 64, 103
1, 156354, Control_c, 0, 64, 104
1, 156364, Note_on_c, 0, 48, 59
1, 156366, Note_off_c, 0, 43, 61
1, 156369, Control_c, 0, 64, 105
1, 156384, Control_c, 0, 64, 105
1, 156388, Note_off_c, 0, 48, 62
1, 156534, Note_off_c, 0, 53, 59
1, 156540, Note_on_c, 0, 48, 33
1, 156557, Note_on_c, 0, 52, 90
1, 156632, Note_off_c, 0, 48, 37
1, 156651, Note_on_c, 0, 55, 44
1, 156682, Note_off_c, 0, 55, 55
1, 156692, Note_on_c, 0, 60, 66
1, 156721, Note_off_c, 0, 60, 65
1, 156740, Control_c, 0, 64, 105
1, 156761, Note_on_c, 0, 55, 71
1, 156767, Note_on_c, 0, 48, 69
1, 156784, Note_off_c, 0, 55, 69
1, 156803, Note_off_c, 0, 48, 68
1, 156843, Control_c, 0, 64, 104
1, 156855, Note_on_c, 0, 48, 68
1, 156872, Control_c, 0, 64, 104
1, 156887, Control_c, 0, 64, 103
1, 156902, Control_c, 0, 64, 103
1, 156913, Note_off_c, 0, 48, 63
1, 156917, Control_c, 0, 64, 102
1, 156919, Note_on_c, 0, 43, 71
1, 156933, Control_c, 0, 64, 101
1, 156955, Control_c, 0, 64, 100
1, 156970, Control_c, 0, 64, 98
1, 156984, Control_c, 0, 64, 94
1, 156999, Control_c, 0, 64, 89
1, 157000, Note_off_c, 0, 43, 62
1, 157003, Note_on_c, 0, 53, 94
1, 157008, Note_on_c, 0, 36, 69
1, 157014, Control_c, 0, 64, 79
1, 157025, Note_off_c, 0, 52, 54
1, 157029, Control_c, 0, 64, 65
1, 157044, Control_c, 0, 64, 0
1, 157089, Control_c, 0, 67, 8
1, 157103, Control_c, 0, 67, 8
1, 157105, Note_on_c, 0, 43, 64
1, 157118, Control_c, 0, 64, 64
1, 157118, Control_c, 0, 67, 9
1, 157133, Control_c, 0, 64, 72
1, 157133, Control_c, 0, 67, 12
1, 157145, Note_off_c, 0, 36, 60
1, 157148, Control_c, 0, 64, 81
1, 157148, Control_c, 0, 67, 15
1, 157163, Control_c, 0, 64, 92
1, 157163, Control_c, 0, 67, 21
1, 157177, Control_c, 0, 64, 97
1, 157177, Control_c, 0, 67, 29
1, 157187, Note_on_c, 0, 48, 69
1, 157192, Control_c, 0, 64, 100
1, 157192, Control_c, 0, 67, 39
1, 157193, Note_off_c, 0, 43, 61
1, 157207, Control_c, 0, 64, 101
1, 157207, Control_c, 0, 67, 47
1, 157221, Control_c, 0, 64, 102
1, 157221, Control_c, 0, 67, 54
1, 157231, Note_off_c, 0, 48, 65
1, 157236, Control_c, 0, 64, 102
1, 157236, Control_c, 0, 67, 61
1, 157251, Control_c, 0, 67, 67
1, 157266, Control_c, 0, 67, 73
1, 157281, Control_c, 0, 67, 80
1, 157292, Note_on_c, 0, 48, 72
1, 157295, Control_c, 0, 67, 86
1, 157310, Control_c, 0, 67, 91
1, 157325, Control_c, 0, 67, 94
1, 157340, Control_c, 0, 67, 94
1, 157369, Control_c, 0, 67, 94
1, 157384, Control_c, 0, 67, 93
1, 157398, Note_off_c, 0, 53, 63
1, 157399, Control_c, 0, 67, 92
1, 157414, Control_c, 0, 67, 92
1, 157423, Note_on_c, 0, 55, 93
1, 157443, Control_c, 0, 67, 91
1, 157482, Note_off_c, 0, 55, 61
1, 157488, Note_off_c, 0, 48, 48
1, 157488, Control_c, 0, 67, 90
1, 157533, Control_c, 0, 67, 91
1, 157577, Control_c, 0, 67, 91
1, 157592, Control_c, 0, 67, 92
1, 157636, Control_c, 0, 67, 92
1, 157651, Control_c, 0, 67, 93
1, 157676, Note_on_c, 0, 54, 63
1, 157706, Note_off_c, 0, 54, 59
1, 157718, Control_c, 0, 64, 102
1, 157724, Note_on_c, 0, 55, 55
1, 157748, Note_off_c, 0, 55, 64
1, 157761, Note_on_c, 0, 48, 50
1, 157763, Control_c, 0, 67, 92
1, 157789, Note_off_c, 0, 48, 55
1, 157807, Control_c, 0, 67, 92
1, 157822, Control_c, 0, 64, 101
1, 157837, Poly_aftertouch_c, 0, 50, 0
1, 157852, Control_c, 0, 64, 101
1, 157867, Control_c, 0, 64, 100
1, 157882, Control_c, 0, 64, 100
1, 157897, Control_c, 0, 64, 99
1, 157898, Note_on_c, 0, 43, 63
1, 157911, Control_c, 0, 64, 98
1, 157911, Control_c, 0, 67, 91
1, 157918, Poly_aftertouch_c, 0, 48, 127
1, 157926, Control_c, 0, 64, 96
1, 157932, Note_on_c, 0, 56, 89
1, 157941, Control_c, 0, 64, 93
1, 157949, Poly_aftertouch_c, 0, 48, 0
1, 157956, Control_c, 0, 64, 87
1, 157958, Note_off_c, 0, 43, 57
1, 157964, Note_on_c, 0, 36, 60
1, 157971, Control_c, 0, 64, 76
1, 157971, Control_c, 0, 67, 91
1, 157985, Control_c, 0, 64, 57
1, 158000, Control_c, 0, 64, 0
1, 158045, Control_c, 0, 64, 62
1, 158059, Control_c, 0, 64, 71
1, 158070, Note_on_c, 0, 43, 59
1, 158074, Control_c, 0, 64, 80
1, 158089, Control_c, 0, 64, 90
1, 158093, Note_off_c, 0, 36, 59
1, 158104, Control_c, 0, 64, 97
1, 158104, Control_c, 0, 67, 90
1, 158119, Control_c, 0, 64, 99
1, 158133, Control_c, 0, 64, 101
1, 158133, Control_c, 0, 67, 89
1, 158140, Note_off_c, 0, 43, 61
1, 158148, Control_c, 0, 64, 102
1, 158156, Note_on_c, 0, 48, 47
1, 158163, Control_c, 0, 64, 103
1, 158163, Control_c, 0, 67, 88
1, 158177, Control_c, 0, 67, 88
1, 158184, Note_off_c, 0, 48, 57
1, 158192, Control_c, 0, 67, 87
1, 158207, Control_c, 0, 67, 87
1, 158222, Control_c, 0, 67, 86
1, 158237, Control_c, 0, 67, 86
1, 158249, Note_on_c, 0, 48, 58
1, 158251, Control_c, 0, 67, 85
1, 158266, Control_c, 0, 67, 85
1, 158317, Note_on_c, 0, 55, 55
1, 158329, Note_off_c, 0, 48, 59
1, 158381, Note_off_c, 0, 56, 62
1, 158382, Note_off_c, 0, 55, 63
1, 158403, Note_on_c, 0, 58, 85
1, 158415, Control_c, 0, 67, 85
1, 158418, Note_on_c, 0, 60, 51
1, 158481, Control_c, 0, 67, 86
1, 158487, Note_off_c, 0, 60, 63
1, 158511, Control_c, 0, 67, 85
1, 158516, Note_on_c, 0, 55, 62
1, 158542, Control_c, 0, 67, 85
1, 158556, Control_c, 0, 64, 102
1, 158558, Note_off_c, 0, 55, 64
1, 158571, Control_c, 0, 67, 84
1, 158573, Note_on_c, 0, 48, 51
1, 158586, Control_c, 0, 64, 102
1, 158602, Note_off_c, 0, 48, 67
1, 158630, Control_c, 0, 64, 101
1, 158675, Control_c, 0, 64, 101
1, 158675, Control_c, 0, 67, 84
1, 158719, Control_c, 0, 64, 100
1, 158743, Note_on_c, 0, 43, 56
1, 158764, Control_c, 0, 64, 100
1, 158779, Control_c, 0, 64, 99
1, 158808, Control_c, 0, 64, 99
1, 158823, Control_c, 0, 64, 98
1, 158838, Control_c, 0, 64, 97
1, 158844, Note_off_c, 0, 43, 51
1, 158853, Control_c, 0, 64, 96
1, 158868, Control_c, 0, 64, 95
1, 158882, Control_c, 0, 64, 94
1, 158897, Control_c, 0, 64, 93
1, 158912, Control_c, 0, 64, 92
1, 158927, Control_c, 0, 64, 91
1, 158942, Control_c, 0, 64, 90
1, 158956, Control_c, 0, 64, 88
1, 158956, Control_c, 0, 67, 84
1, 158964, Note_on_c, 0, 60, 67
1, 158971, Control_c, 0, 64, 87
1, 158980, Note_on_c, 0, 36, 46
1, 158986, Control_c, 0, 64, 85
1, 158986, Control_c, 0, 67, 85
1, 159000, Control_c, 0, 64, 83
1, 159014, Note_off_c, 0, 58, 58
1, 159015, Control_c, 0, 64, 79
1, 159030, Control_c, 0, 64, 70
1, 159045, Control_c, 0, 64, 36
1, 159060, Control_c, 0, 64, 0
1, 159134, Control_c, 0, 64, 37
1, 159149, Control_c, 0, 64, 65
1, 159159, Note_on_c, 0, 44, 46
1, 159163, Control_c, 0, 64, 73
1, 159178, Control_c, 0, 64, 80
1, 159200, Control_c, 0, 64, 85
1, 159200, Control_c, 0, 67, 84
1, 159215, Control_c, 0, 64, 88
1, 159224, Note_off_c, 0, 36, 41
1, 159230, Control_c, 0, 64, 90
1, 159245, Control_c, 0, 64, 92
1, 159245, Control_c, 0, 67, 84
1, 159257, Note_off_c, 0, 44, 61
1, 159260, Control_c, 0, 64, 93
1, 159264, Note_on_c, 0, 48, 56
1, 159274, Control_c, 0, 64, 95
1, 159289, Control_c, 0, 64, 95
1, 159299, Note_off_c, 0, 48, 64
1, 159304, Control_c, 0, 64, 96
1, 159319, Control_c, 0, 67, 83
1, 159326, Note_off_c, 0, 60, 66
1, 159344, Note_on_c, 0, 62, 75
1, 159401, Note_on_c, 0, 48, 56
1, 159408, Control_c, 0, 67, 83
1, 159467, Control_c, 0, 67, 83
1, 159483, Note_on_c, 0, 56, 56
1, 159497, Note_off_c, 0, 48, 58
1, 159527, Control_c, 0, 67, 84
1, 159565, Note_off_c, 0, 56, 62
1, 159581, Note_on_c, 0, 60, 51
1, 159601, Control_c, 0, 67, 83
1, 159625, Note_on_c, 0, 64, 79
1, 159628, Note_off_c, 0, 60, 63
1, 159630, Control_c, 0, 67, 82
1, 159645, Control_c, 0, 67, 82
1, 159654, Note_on_c, 0, 56, 56
1, 159654, Note_off_c, 0, 62, 59
1, 159660, Control_c, 0, 67, 80
1, 159675, Control_c, 0, 67, 79
1, 159682, Note_off_c, 0, 56, 64
1, 159685, Note_on_c, 0, 48, 49
1, 159690, Control_c, 0, 67, 78
1, 159704, Control_c, 0, 67, 79
1, 159718, Note_off_c, 0, 48, 64
1, 159719, Control_c, 0, 67, 80
1, 159734, Control_c, 0, 67, 80
1, 159749, Control_c, 0, 67, 81
1, 159764, Control_c, 0, 67, 82
1, 159778, Control_c, 0, 67, 83
1, 159779, Note_on_c, 0, 48, 54
1, 159793, Control_c, 0, 67, 84
1, 159808, Control_c, 0, 67, 84
1, 159822, Control_c, 0, 67, 85
1, 159828, Note_off_c, 0, 48, 59
1, 159837, Note_on_c, 0, 44, 64
1, 159837, Control_c, 0, 67, 85
1, 159867, Control_c, 0, 67, 86
1, 159888, Note_on_c, 0, 65, 86
1, 159897, Control_c, 0, 64, 94
1, 159898, Note_off_c, 0, 64, 65
1, 159906, Note_off_c, 0, 44, 59
1, 159912, Control_c, 0, 64, 91
1, 159918, Note_on_c, 0, 36, 65
1, 159927, Control_c, 0, 64, 83
1, 159927, Control_c, 0, 67, 85
1, 159949, Control_c, 0, 64, 70
1, 159964, Control_c, 0, 64, 0
1, 159964, Control_c, 0, 67, 85
1, 159993, Control_c, 0, 67, 84
1, 160005, Note_on_c, 0, 43, 65
1, 160008, Control_c, 0, 64, 34
1, 160022, Control_c, 0, 64, 65
1, 160022, Control_c, 0, 67, 83
1, 160037, Control_c, 0, 64, 73
1, 160037, Control_c, 0, 67, 82
1, 160045, Note_off_c, 0, 36, 64
1, 160052, Control_c, 0, 64, 80
1, 160052, Control_c, 0, 67, 81
1, 160068, Control_c, 0, 64, 88
1, 160068, Control_c, 0, 67, 81
1, 160076, Note_on_c, 0, 48, 75
1, 160083, Note_off_c, 0, 43, 62
1, 160083, Control_c, 0, 64, 94
1, 160083, Control_c, 0, 67, 80
1, 160097, Control_c, 0, 64, 98
1, 160106, Note_off_c, 0, 48, 68
1, 160112, Control_c, 0, 64, 102
1, 160112, Control_c, 0, 67, 79
1, 160128, Control_c, 0, 64, 106
1, 160128, Control_c, 0, 67, 79
1, 160135, Note_on_c, 0, 67, 91
1, 160143, Control_c, 0, 64, 109
1, 160143, Control_c, 0, 67, 78
1, 160158, Control_c, 0, 64, 111
1, 160158, Control_c, 0, 67, 77
1, 160168, Note_on_c, 0, 48, 69
1, 160173, Control_c, 0, 64, 112
1, 160173, Control_c, 0, 67, 76
1, 160176, Note_off_c, 0, 65, 57
1, 160188, Control_c, 0, 67, 73
1, 160202, Control_c, 0, 67, 68
1, 160217, Control_c, 0, 67, 63
1, 160224, Note_on_c, 0, 55, 68
1, 160232, Control_c, 0, 67, 61
1, 160246, Control_c, 0, 67, 60
1, 160263, Note_off_c, 0, 48, 62
1, 160276, Control_c, 0, 67, 61
1, 160290, Note_on_c, 0, 60, 75
1, 160291, Control_c, 0, 67, 61
1, 160292, Note_off_c, 0, 55, 64
1, 160306, Control_c, 0, 67, 62
1, 160320, Control_c, 0, 67, 63
1, 160335, Control_c, 0, 67, 62
1, 160343, Note_off_c, 0, 60, 65
1, 160350, Control_c, 0, 67, 61
1, 160356, Note_on_c, 0, 68, 95
1, 160357, Note_on_c, 0, 55, 62
1, 160365, Control_c, 0, 64, 111
1, 160365, Control_c, 0, 67, 60
1, 160380, Control_c, 0, 64, 110
1, 160380, Control_c, 0, 67, 60
1, 160383, Note_off_c, 0, 67, 62
1, 160384, Note_on_c, 0, 48, 71
1, 160395, Control_c, 0, 64, 109
1, 160395, Control_c, 0, 67, 60
1, 160395, Note_off_c, 0, 55, 66
1, 160409, Control_c, 0, 67, 61
1, 160416, Note_off_c, 0, 48, 67
1, 160424, Control_c, 0, 67, 62
1, 160439, Control_c, 0, 67, 62
1, 160454, Control_c, 0, 67, 63
1, 160460, Note_on_c, 0, 48, 73
1, 160469, Control_c, 0, 67, 64
1, 160484, Control_c, 0, 67, 65
1, 160499, Control_c, 0, 67, 66
1, 160514, Control_c, 0, 67, 68
1, 160524, Note_on_c, 0, 43, 73
1, 160528, Control_c, 0, 67, 69
1, 160529, Note_off_c, 0, 48, 64
1, 160543, Control_c, 0, 64, 108
1, 160543, Control_c, 0, 67, 70
1, 160558, Control_c, 0, 64, 104
1, 160572, Control_c, 0, 64, 92
1, 160587, Control_c, 0, 64, 70
1, 160587, Control_c, 0, 67, 69
1, 160588, Note_on_c, 0, 36, 78
1, 160588, Note_off_c, 0, 43, 61
1, 160591, Note_on_c, 0, 70, 88
1, 160602, Control_c, 0, 64, 0
1, 160602, Control_c, 0, 67, 68
1, 160607, Note_off_c, 0, 68, 69
1, 160617, Control_c, 0, 67, 67
1, 160632, Control_c, 0, 67, 67
1, 160646, Control_c, 0, 67, 66
1, 160661, Control_c, 0, 64, 65
1, 160676, Control_c, 0, 64, 79
1, 160679, Note_on_c, 0, 44, 77
1, 160699, Control_c, 0, 64, 100
1, 160699, Control_c, 0, 67, 65
1, 160714, Control_c, 0, 64, 127
1, 160722, Note_off_c, 0, 36, 62
1, 160728, Control_c, 0, 67, 65
1, 160740, Note_on_c, 0, 48, 78
1, 160743, Control_c, 0, 67, 64
1, 160756, Note_off_c, 0, 44, 63
1, 160758, Control_c, 0, 67, 63
1, 160772, Control_c, 0, 67, 63
1, 160777, Note_off_c, 0, 48, 66
1, 160802, Control_c, 0, 67, 62
1, 160810, Note_off_c, 0, 70, 60
1, 160817, Control_c, 0, 67, 62
1, 160821, Note_on_c, 0, 72, 100
1, 160832, Control_c, 0, 67, 61
1, 160842, Note_on_c, 0, 50, 56
1, 160845, Note_on_c, 0, 48, 69
1, 160846, Control_c, 0, 67, 60
1, 160861, Control_c, 0, 67, 59
1, 160874, Note_on_c, 0, 54, 43
1, 160876, Control_c, 0, 67, 56
1, 160891, Control_c, 0, 67, 52
1, 160892, Note_on_c, 0, 56, 76
1, 160906, Control_c, 0, 67, 46
1, 160916, Note_off_c, 0, 54, 48
1, 160922, Control_c, 0, 67, 40
1, 160932, Note_off_c, 0, 48, 58
1, 160934, Note_off_c, 0, 50, 62
1, 160937, Control_c, 0, 67, 36
1, 160951, Note_on_c, 0, 60, 81
1, 160951, Control_c, 0, 67, 35
1, 160952, Note_off_c, 0, 56, 65
1, 160966, Control_c, 0, 67, 33
1, 160981, Control_c, 0, 67, 29
1, 160995, Control_c, 0, 67, 23
1, 161010, Control_c, 0, 67, 16
1, 161014, Note_off_c, 0, 60, 66
1, 161020, Note_on_c, 0, 56, 80
1, 161021, Note_off_c, 0, 72, 56
1, 161025, Control_c, 0, 67, 9
1, 161039, Note_on_c, 0, 74, 97
1, 161040, Control_c, 0, 67, 0
1, 161043, Note_off_c, 0, 56, 69
1, 161047, Note_on_c, 0, 48, 73
1, 161089, Note_off_c, 0, 48, 66
1, 161123, Note_on_c, 0, 48, 79
1, 161143, Control_c, 0, 67, 9
1, 161158, Control_c, 0, 67, 11
1, 161173, Control_c, 0, 67, 13
1, 161179, Note_on_c, 0, 44, 85
1, 161187, Control_c, 0, 67, 14
1, 161195, Note_off_c, 0, 48, 56
1, 161202, Control_c, 0, 67, 15
1, 161217, Control_c, 0, 67, 17
1, 161220, Note_on_c, 0, 43, 57
1, 161232, Control_c, 0, 67, 21
1, 161247, Control_c, 0, 64, 118
1, 161247, Control_c, 0, 67, 25
1, 161250, Note_off_c, 0, 44, 63
1, 161262, Control_c, 0, 64, 106
1, 161262, Control_c, 0, 67, 30
1, 161271, Note_on_c, 0, 36, 92
1, 161271, Note_on_c, 0, 76, 102
1, 161277, Control_c, 0, 64, 92
1, 161277, Control_c, 0, 67, 34
1, 161287, Note_off_c, 0, 43, 59
1, 161292, Control_c, 0, 64, 71
1, 161292, Control_c, 0, 67, 35
1, 161307, Control_c, 0, 64, 0
1, 161308, Note_off_c, 0, 74, 64
1, 161351, Control_c, 0, 67, 33
1, 161366, Control_c, 0, 64, 68
1, 161366, Control_c, 0, 67, 31
1, 161375, Note_on_c, 0, 43, 82
1, 161381, Control_c, 0, 64, 79
1, 161381, Control_c, 0, 67, 30
1, 161395, Control_c, 0, 64, 95
1, 161395, Control_c, 0, 67, 29
1, 161402, Note_off_c, 0, 36, 63
1, 161410, Control_c, 0, 64, 110
1, 161410, Control_c, 0, 67, 28
1, 161425, Control_c, 0, 64, 117
1, 161425, Control_c, 0, 67, 26
1, 161429, Note_on_c, 0, 48, 74
1, 161432, Note_off_c, 0, 43, 62
1, 161447, Control_c, 0, 64, 118
1, 161447, Control_c, 0, 67, 23
1, 161462, Control_c, 0, 67, 19
1, 161465, Note_off_c, 0, 48, 67
1, 161477, Control_c, 0, 67, 11
1, 161492, Control_c, 0, 67, 0
1, 161530, Note_on_c, 0, 48, 66
1, 161536, Note_off_c, 0, 76, 66
1, 161536, Note_on_c, 0, 50, 66
1, 161557, Note_on_c, 0, 77, 101
1, 161582, Note_on_c, 0, 55, 52
1, 161602, Note_off_c, 0, 48, 61
1, 161617, Note_off_c, 0, 50, 61
1, 161638, Note_on_c, 0, 60, 83
1, 161658, Note_off_c, 0, 55, 61
1, 161694, Note_off_c, 0, 60, 65
1, 161702, Note_on_c, 0, 55, 55
1, 161727, Note_on_c, 0, 48, 72
1, 161739, Note_off_c, 0, 55, 66
1, 161754, Note_off_c, 0, 48, 69
1, 161801, Note_on_c, 0, 48, 77
1, 161840, Note_off_c, 0, 77, 55
1, 161848, Control_c, 0, 64, 118
1, 161855, Note_off_c, 0, 48, 66
1, 161862, Note_on_c, 0, 43, 76
1, 161863, Control_c, 0, 64, 116
1, 161878, Control_c, 0, 64, 114
1, 161890, Note_on_c, 0, 79, 100
1, 161892, Control_c, 0, 64, 110
1, 161907, Control_c, 0, 64, 103
1, 161914, Note_on_c, 0, 36, 89
1, 161918, Note_off_c, 0, 43, 59
1, 161922, Control_c, 0, 64, 88
1, 161937, Control_c, 0, 64, 62
1, 161940, Note_on_c, 0, 77, 30
1, 161952, Control_c, 0, 64, 0
1, 161958, Note_on_c, 0, 38, 29
1, 161976, Note_off_c, 0, 77, 32
1, 161996, Control_c, 0, 64, 37
1, 162010, Control_c, 0, 64, 71
1, 162013, Note_on_c, 0, 44, 77
1, 162015, Note_off_c, 0, 38, 27
1, 162025, Control_c, 0, 64, 84
1, 162040, Control_c, 0, 64, 105
1, 162044, Note_off_c, 0, 36, 63
1, 162055, Control_c, 0, 64, 121
1, 162069, Note_on_c, 0, 48, 73
1, 162070, Control_c, 0, 64, 127
1, 162081, Note_off_c, 0, 44, 64
1, 162100, Note_off_c, 0, 48, 68
1, 162161, Note_on_c, 0, 48, 68
1, 162226, Note_on_c, 0, 80, 103
1, 162238, Note_on_c, 0, 56, 71
1, 162251, Note_off_c, 0, 79, 58
1, 162288, Note_off_c, 0, 48, 57
1, 162291, Note_off_c, 0, 80, 70
1, 162312, Note_off_c, 0, 56, 64
1, 162313, Note_on_c, 0, 60, 76
1, 162386, Note_off_c, 0, 60, 62
1, 162387, Note_on_c, 0, 56, 74
1, 162422, Note_on_c, 0, 48, 69
1, 162426, Note_off_c, 0, 56, 66
1, 162461, Note_off_c, 0, 48, 65
1, 162463, Control_c, 0, 64, 127
1, 162478, Control_c, 0, 64, 126
1, 162492, Control_c, 0, 64, 125
1, 162504, Note_on_c, 0, 48, 72
1, 162507, Control_c, 0, 64, 125
1, 162568, Control_c, 0, 64, 124
1, 162574, Note_on_c, 0, 44, 80
1, 162585, Note_off_c, 0, 48, 57
1, 162597, Control_c, 0, 64, 124
1, 162627, Control_c, 0, 64, 123
1, 162671, Control_c, 0, 64, 122
1, 162686, Control_c, 0, 64, 120
1, 162701, Control_c, 0, 64, 116
1, 162715, Note_on_c, 0, 80, 102
1, 162715, Control_c, 0, 64, 109
1, 162716, Note_on_c, 0, 92, 102
1, 162719, Note_off_c, 0, 44, 64
1, 162724, Note_on_c, 0, 36, 97
1, 162730, Control_c, 0, 64, 96
1, 162745, Control_c, 0, 64, 78
1, 162758, Note_on_c, 0, 89, 47
1, 162760, Control_c, 0, 64, 0
1, 162808, Note_off_c, 0, 89, 41
1, 162945, Control_c, 0, 64, 51
1, 162960, Control_c, 0, 64, 67
1, 162974, Control_c, 0, 64, 74
1, 162989, Control_c, 0, 64, 85
1, 163004, Control_c, 0, 64, 95
1, 163019, Control_c, 0, 64, 104
1, 163034, Control_c, 0, 64, 115
1, 163048, Control_c, 0, 64, 127
1, 163079, Note_on_c, 0, 43, 67
1, 163133, Note_off_c, 0, 92, 65
1, 163161, Note_off_c, 0, 36, 58
1, 163179, Note_off_c, 0, 80, 61
1, 163220, Note_off_c, 0, 43, 61
1, 163222, Note_on_c, 0, 48, 71
1, 163260, Note_off_c, 0, 48, 64
1, 163360, Note_on_c, 0, 48, 43
1, 163367, Note_on_c, 0, 50, 40
1, 163423, Note_on_c, 0, 55, 67
1, 163439, Note_off_c, 0, 48, 56
1, 163442, Note_off_c, 0, 50, 49
1, 163485, Note_off_c, 0, 55, 64
1, 163499, Note_on_c, 0, 60, 71
1, 163542, Note_on_c, 0, 67, 65
1, 163569, Note_off_c, 0, 60, 61
1, 163594, Note_off_c, 0, 67, 64
1, 163598, Note_on_c, 0, 72, 71
1, 163655, Note_on_c, 0, 60, 77
1, 163656, Note_off_c, 0, 72, 58
1, 163659, Note_on_c, 0, 67, 71
1, 163705, Note_off_c, 0, 60, 0
1, 163725, Note_on_c, 0, 72, 79
1, 163732, Note_off_c, 0, 67, 65
1, 163742, Poly_aftertouch_c, 0, 60, 127
1, 163765, Note_off_c, 0, 72, 67
1, 163783, Note_on_c, 0, 67, 89
1, 163808, Poly_aftertouch_c, 0, 60, 0
1, 163823, Note_off_c, 0, 67, 65
1, 163841, Note_on_c, 0, 72, 78
1, 163871, Note_on_c, 0, 79, 74
1, 163882, Note_off_c, 0, 72, 67
1, 163921, Note_on_c, 0, 84, 87
1, 163927, Note_off_c, 0, 79, 64
1, 163982, Note_on_c, 0, 79, 68
1, 163990, Note_on_c, 0, 72, 82
1, 163997, Note_off_c, 0, 84, 63
1, 164036, Note_off_c, 0, 72, 67
1, 164061, Note_on_c, 0, 84, 91
1, 164064, Note_off_c, 0, 79, 66
1, 164095, Note_off_c, 0, 84, 68
1, 164106, Note_on_c, 0, 72, 67
1, 164148, Note_on_c, 0, 79, 91
1, 164174, Note_off_c, 0, 72, 65
1, 164189, Note_off_c, 0, 79, 66
1, 164211, Note_on_c, 0, 84, 75
1, 164220, Note_on_c, 0, 86, 55
1, 164240, Note_off_c, 0, 86, 61
1, 164261, Note_on_c, 0, 91, 83
1, 164272, Note_off_c, 0, 84, 64
1, 164311, Note_on_c, 0, 96, 81
1, 164319, Note_off_c, 0, 91, 61
1, 164384, Note_on_c, 0, 84, 79
1, 164386, Note_on_c, 0, 91, 61
1, 164392, Note_off_c, 0, 96, 64
1, 164443, Note_off_c, 0, 84, 67
1, 164477, Note_on_c, 0, 96, 90
1, 164487, Note_off_c, 0, 91, 63
1, 164517, Note_off_c, 0, 96, 67
1, 164550, Note_on_c, 0, 84, 74
1, 164613, Note_on_c, 0, 91, 93
1, 164692, Note_on_c, 0, 96, 86
1, 164760, Note_on_c, 0, 103, 94
1, 164784, Note_off_c, 0, 96, 62
1, 164831, Note_on_c, 0, 108, 105
1, 164848, Note_off_c, 0, 103, 66
1, 164881, Note_off_c, 0, 108, 64
1, 165969, Control_c, 0, 64, 126
1, 165983, Control_c, 0, 64, 125
1, 165998, Control_c, 0, 64, 124
1, 166013, Control_c, 0, 64, 123
1, 166028, Control_c, 0, 64, 122
1, 166043, Control_c, 0, 64, 122
1, 166058, Control_c, 0, 64, 121
1, 166073, Control_c, 0, 64, 120
1, 166088, Control_c, 0, 64, 119
1, 166088, Note_off_c, 0, 91, 30
1, 166103, Control_c, 0, 64, 118
1, 166118, Control_c, 0, 64, 118
1, 166133, Control_c, 0, 64, 117
1, 166147, Control_c, 0, 64, 117
1, 166177, Control_c, 0, 64, 116
1, 166265, Control_c, 0, 64, 116
1, 166310, Control_c, 0, 64, 115
1, 166325, Control_c, 0, 64, 115
1, 166339, Control_c, 0, 64, 114
1, 166354, Control_c, 0, 64, 114
1, 166369, Control_c, 0, 64, 113
1, 166383, Control_c, 0, 64, 112
1, 166398, Control_c, 0, 64, 112
1, 166398, Control_c, 0, 67, 8
1, 166413, Control_c, 0, 64, 111
1, 166413, Control_c, 0, 67, 10
1, 166428, Control_c, 0, 64, 110
1, 166428, Control_c, 0, 67, 12
1, 166443, Control_c, 0, 64, 109
1, 166443, Control_c, 0, 67, 13
1, 166458, Control_c, 0, 64, 109
1, 166473, Control_c, 0, 64, 108
1, 166488, Control_c, 0, 64, 107
1, 166503, Control_c, 0, 64, 107
1, 166518, Control_c, 0, 64, 106
1, 166533, Control_c, 0, 64, 105
1, 166548, Control_c, 0, 64, 104
1, 166548, Control_c, 0, 67, 12
1, 166562, Control_c, 0, 64, 104
1, 166562, Control_c, 0, 67, 11
1, 166577, Control_c, 0, 64, 103
1, 166592, Control_c, 0, 64, 103
1, 166607, Control_c, 0, 64, 102
1, 166622, Control_c, 0, 64, 101
1, 166637, Control_c, 0, 64, 101
1, 166651, Control_c, 0, 64, 100
1, 166651, Control_c, 0, 67, 11
1, 166666, Control_c, 0, 64, 100
1, 166666, Control_c, 0, 67, 10
1, 166688, Control_c, 0, 64, 99
1, 166703, Control_c, 0, 64, 98
1, 166703, Control_c, 0, 67, 10
1, 166718, Control_c, 0, 64, 98
1, 166748, Control_c, 0, 64, 97
1, 166762, Control_c, 0, 67, 9
1, 166777, Control_c, 0, 64, 97
1, 166807, Control_c, 0, 67, 10
1, 166821, Control_c, 0, 64, 96
1, 166828, Note_off_c, 0, 84, 21
1, 166866, Control_c, 0, 64, 96
1, 166866, Control_c, 0, 67, 10
1, 166896, Control_c, 0, 64, 95
1, 166911, Control_c, 0, 64, 95
1, 166926, Control_c, 0, 64, 94
1, 166941, Control_c, 0, 64, 94
1, 166941, Control_c, 0, 67, 11
1, 166956, Control_c, 0, 64, 93
1, 166956, Control_c, 0, 67, 11
1, 167000, Control_c, 0, 64, 93
1, 167000, Control_c, 0, 67, 12
1, 167029, Control_c, 0, 64, 92
1, 167059, Control_c, 0, 64, 92
1, 167059, Control_c, 0, 67, 12
1, 167088, Control_c, 0, 64, 91
1, 167118, Control_c, 0, 64, 91
1, 167118, Control_c, 0, 67, 13
1, 167162, Control_c, 0, 64, 90
1, 167221, Control_c, 0, 64, 90
1, 167326, Control_c, 0, 64, 89
1, 167400, Control_c, 0, 67, 12
1, 167437, Control_c, 0, 67, 11
1, 167467, Control_c, 0, 67, 11
1, 167482, Control_c, 0, 67, 10
1, 167511, Control_c, 0, 67, 10
1, 167526, Control_c, 0, 67, 9
1, 167600, Control_c, 0, 64, 89
1, 167629, Control_c, 0, 64, 88
1, 167674, Control_c, 0, 67, 10
1, 167719, Control_c, 0, 67, 10
1, 167763, Control_c, 0, 64, 88
1, 167778, Control_c, 0, 64, 87
1, 167793, Control_c, 0, 64, 87
1, 167793, Control_c, 0, 67, 11
1, 167808, Control_c, 0, 64, 86
1, 167823, Control_c, 0, 64, 84
1, 167823, Control_c, 0, 67, 11
1, 167837, Control_c, 0, 64, 82
1, 167852, Control_c, 0, 64, 80
1, 167867, Control_c, 0, 64, 77
1, 167882, Control_c, 0, 64, 74
1, 167897, Control_c, 0, 64, 71
1, 167911, Control_c, 0, 64, 67
1, 167911, Control_c, 0, 67, 12
1, 167926, Control_c, 0, 64, 64
1, 167941, Control_c, 0, 64, 62
1, 167985, Control_c, 0, 64, 61
1, 168000, Control_c, 0, 64, 57
1, 168015, Control_c, 0, 64, 47
1, 168029, Control_c, 0, 64, 29
1, 168044, Control_c, 0, 64, 0
1, 168059, Control_c, 0, 67, 12
1, 168305, Control_c, 0, 67, 12
1, 168438, Control_c, 0, 67, 11
1, 168823, Control_c, 0, 67, 11
1, 168913, Control_c, 0, 67, 10
1, 169187, Control_c, 0, 67, 11
1, 169394, Control_c, 0, 67, 11
1, 169468, Control_c, 0, 67, 12
1, 169513, Control_c, 0, 67, 12
1, 169542, Control_c, 0, 67, 13
1, 169616, Control_c, 0, 67, 13
1, 169646, Control_c, 0, 67, 14
1, 169713, Control_c, 0, 67, 14
1, 169862, Control_c, 0, 67, 14
1, 169906, Control_c, 0, 67, 13
1, 169921, Control_c, 0, 67, 13
1, 169980, Control_c, 0, 67, 12
1, 170084, Control_c, 0, 64, 16
1, 170099, Control_c, 0, 64, 35
1, 170113, Control_c, 0, 64, 48
1, 170128, Control_c, 0, 64, 55
1, 170128, Control_c, 0, 67, 12
1, 170143, Control_c, 0, 64, 58
1, 170157, Control_c, 0, 67, 11
1, 170172, Control_c, 0, 64, 57
1, 170187, Control_c, 0, 64, 56
1, 170187, Control_c, 0, 67, 10
1, 170217, Control_c, 0, 64, 56
1, 170246, Control_c, 0, 64, 56
1, 170291, Control_c, 0, 67, 10
1, 170306, Control_c, 0, 67, 9
1, 170321, Control_c, 0, 64, 57
1, 170350, Control_c, 0, 64, 56
1, 170566, Control_c, 0, 64, 56
1, 170580, Control_c, 0, 67, 10
1, 170625, Control_c, 0, 64, 55
1, 170625, Control_c, 0, 67, 10
1, 170655, Control_c, 0, 64, 55
1, 170670, Control_c, 0, 64, 54
1, 170700, Control_c, 0, 64, 54
1, 170714, Control_c, 0, 64, 53
1, 170729, Control_c, 0, 64, 53
1, 170744, Control_c, 0, 64, 52
1, 170759, Control_c, 0, 64, 51
1, 170774, Control_c, 0, 64, 50
1, 170803, Control_c, 0, 64, 49
1, 170848, Control_c, 0, 64, 49
1, 170862, Control_c, 0, 64, 48
1, 170951, Control_c, 0, 67, 10
1, 171010, Control_c, 0, 64, 49
1, 171010, Control_c, 0, 67, 9
1, 171054, Control_c, 0, 67, 9
1, 171069, Control_c, 0, 64, 49
1, 171084, Control_c, 0, 67, 8
1, 171159, Control_c, 0, 67, 8
1, 171195, Control_c, 0, 67, 0
1, 171195, End_track
0, 0, End_of_file
