0, 0, Header, 0, 1, 384
1, 0, Start_track
1, 0, Title_t, "Un Sospiro, by Liszt--Jan Lisiecki "
1, 0, Text_t, "2008 e-Piano Junior Competition virtual audition round"
1, 0, Text_t, "recorded January and February 2008"
1, 0, Text_t, "http://www.piano-e-competition.com/"
1, 0, Text_t, "File processed for distribution by software from Zenph Studios, Inc., http://www.zenph.com"
1, 0, Instrument_name_t, "Yamaha Disklavier Pro Mark IV concert grand piano, model DCFIIISM4PRO"
1, 0, Sequencer_specific, 39, 67, 113, 0, 1, 0, 1, 0, 85, 110, 32, 83, 111, 115, 112, 105, 114, 111, 44, 76, 105, 115, 122, 116, 74, 97, 110, 32, 76, 105, 115, 105, 101, 99, 107, 105, 32, 32, 32, 32
1, 0, Sequencer_specific, 6, 67, 113, 0, 0, 0, 69
1, 0, System_exclusive, 21, 67, 113, 126, 21, 0, 2, 2, 0, 0, 8, 1, 4, 7, 9, 14, 3, 2, 7, 4, 0, 247
1, 0, Sequencer_specific, 5, 67, 123, 12, 2, 1
1, 0, Tempo, 512820
1, 0, Time_signature, 4, 2, 24, 8
1, 0, System_exclusive, 5, 126, 127, 9, 1, 247
1, 1, System_exclusive, 8, 67, 16, 76, 0, 0, 126, 0, 247
1, 2, System_exclusive, 8, 67, 16, 76, 8, 9, 7, 1, 247
1, 3, Control_c, 0, 0, 0
1, 3, Control_c, 1, 0, 0
1, 3, Control_c, 2, 0, 0
1, 3, Control_c, 3, 0, 0
1, 3, Control_c, 4, 0, 0
1, 3, Control_c, 5, 0, 0
1, 3, Control_c, 6, 0, 0
1, 3, Control_c, 7, 0, 0
1, 3, Control_c, 8, 0, 0
1, 3, Control_c, 9, 0, 127
1, 3, Control_c, 10, 0, 0
1, 3, Control_c, 11, 0, 0
1, 3, Control_c, 12, 0, 0
1, 3, Control_c, 13, 0, 0
1, 3, Control_c, 14, 0, 0
1, 3, Control_c, 15, 0, 0
1, 4, Control_c, 0, 32, 0
1, 4, Control_c, 1, 32, 0
1, 4, Control_c, 2, 32, 0
1, 4, Control_c, 3, 32, 0
1, 4, Control_c, 4, 32, 0
1, 4, Control_c, 5, 32, 0
1, 4, Control_c, 6, 32, 0
1, 4, Control_c, 7, 32, 0
1, 4, Control_c, 8, 32, 0
1, 4, Control_c, 9, 32, 0
1, 4, Control_c, 10, 32, 0
1, 4, Control_c, 11, 32, 0
1, 4, Control_c, 12, 32, 0
1, 4, Control_c, 13, 32, 0
1, 4, Control_c, 14, 32, 0
1, 4, Control_c, 15, 32, 0
1, 5, Program_c, 0, 0
1, 5, Program_c, 1, 0
1, 5, Program_c, 2, 0
1, 5, Program_c, 3, 0
1, 5, Program_c, 4, 0
1, 5, Program_c, 5, 0
1, 5, Program_c, 6, 0
1, 5, Program_c, 7, 0
1, 5, Program_c, 8, 0
1, 5, Program_c, 9, 0
1, 5, Program_c, 10, 0
1, 5, Program_c, 11, 0
1, 5, Program_c, 12, 0
1, 5, Program_c, 13, 0
1, 5, Program_c, 14, 0
1, 5, Program_c, 15, 0
1, 6, Control_c, 0, 7, 100
1, 117, Control_c, 0, 64, 15
1, 117, Control_c, 0, 67, 14
1, 229, Control_c, 0, 64, 31
1, 229, Control_c, 0, 67, 29
1, 341, Control_c, 0, 64, 46
1, 341, Control_c, 0, 67, 43
1, 452, Control_c, 0, 64, 63
1, 452, Control_c, 0, 67, 58
1, 564, Control_c, 0, 64, 77
1, 564, Control_c, 0, 67, 72
1, 676, Control_c, 0, 64, 94
1, 676, Control_c, 0, 67, 87
1, 787, Control_c, 0, 64, 108
1, 787, Control_c, 0, 67, 101
1, 899, Control_c, 0, 64, 127
1, 899, Control_c, 0, 67, 117
1, 899, Control_c, 1, 7, 100
1, 899, Control_c, 2, 7, 100
1, 899, Control_c, 3, 7, 100
1, 899, Control_c, 4, 7, 100
1, 899, Control_c, 5, 7, 100
1, 899, Control_c, 6, 7, 100
1, 899, Control_c, 7, 7, 100
1, 899, Control_c, 8, 7, 100
1, 899, Control_c, 9, 7, 100
1, 899, Control_c, 10, 7, 100
1, 899, Control_c, 11, 7, 100
1, 899, Control_c, 12, 7, 100
1, 899, Control_c, 13, 7, 100
1, 899, Control_c, 14, 7, 100
1, 899, Control_c, 15, 7, 100
1, 1134, Note_on_c, 0, 37, 37
1, 1331, Control_c, 0, 67, 118
1, 1361, Control_c, 0, 67, 118
1, 1376, Note_off_c, 0, 37, 36
1, 1405, Control_c, 0, 67, 119
1, 1434, Control_c, 0, 67, 119
1, 1464, Control_c, 0, 67, 120
1, 1508, Control_c, 0, 67, 120
1, 1553, Control_c, 0, 67, 121
1, 1597, Control_c, 0, 67, 121
1, 1627, Control_c, 0, 67, 122
1, 1642, Control_c, 0, 67, 122
1, 1657, Control_c, 0, 67, 123
1, 1672, Control_c, 0, 67, 123
1, 1702, Control_c, 0, 67, 124
1, 1776, Control_c, 0, 67, 124
1, 1805, Control_c, 0, 67, 125
1, 1864, Control_c, 0, 67, 125
1, 1894, Control_c, 0, 67, 126
1, 1902, Note_on_c, 0, 44, 34
1, 1908, Control_c, 0, 67, 127
1, 1938, Control_c, 0, 67, 127
1, 2115, Note_on_c, 0, 49, 29
1, 2267, Note_on_c, 0, 53, 31
1, 2365, Note_on_c, 0, 56, 26
1, 2465, Note_on_c, 0, 61, 32
1, 2483, Note_off_c, 0, 53, 39
1, 2549, Note_on_c, 0, 65, 42
1, 2602, Note_off_c, 0, 49, 36
1, 2603, Note_off_c, 0, 61, 40
1, 2638, Note_on_c, 0, 68, 38
1, 2664, Note_off_c, 0, 56, 37
1, 2740, Note_on_c, 0, 61, 40
1, 2813, Note_on_c, 0, 56, 34
1, 2826, Note_off_c, 0, 68, 24
1, 2856, Note_off_c, 0, 65, 35
1, 2876, Note_on_c, 0, 53, 29
1, 2897, Note_off_c, 0, 61, 38
1, 2914, Note_off_c, 0, 44, 40
1, 2944, Note_off_c, 0, 56, 37
1, 2994, Note_on_c, 0, 49, 35
1, 2995, Note_off_c, 0, 53, 39
1, 3028, Note_off_c, 0, 49, 57
1, 3046, Note_on_c, 0, 44, 39
1, 3244, Note_on_c, 0, 37, 42
1, 3248, Note_off_c, 0, 44, 35
1, 3339, Note_off_c, 0, 37, 55
1, 3375, Note_on_c, 0, 44, 49
1, 3499, Note_on_c, 0, 49, 32
1, 3526, Note_off_c, 0, 44, 35
1, 3548, Note_on_c, 0, 53, 44
1, 3587, Note_on_c, 0, 56, 44
1, 3627, Note_on_c, 0, 61, 47
1, 3673, Note_off_c, 0, 49, 41
1, 3690, Note_on_c, 0, 65, 50
1, 3712, Note_off_c, 0, 61, 53
1, 3720, Note_off_c, 0, 53, 39
1, 3737, Note_off_c, 0, 56, 35
1, 3748, Note_on_c, 0, 68, 55
1, 3778, Note_off_c, 0, 65, 0
1, 3792, Note_on_c, 0, 65, 32
1, 3849, Note_off_c, 0, 68, 35
1, 3856, Note_on_c, 0, 61, 47
1, 3890, Note_off_c, 0, 65, 50
1, 3904, Note_on_c, 0, 56, 43
1, 3922, Note_on_c, 0, 53, 47
1, 3933, Note_off_c, 0, 61, 37
1, 3964, Note_off_c, 0, 56, 42
1, 3999, Note_off_c, 0, 53, 50
1, 4078, Poly_aftertouch_c, 0, 49, 127
1, 4105, Note_on_c, 0, 44, 45
1, 4113, Poly_aftertouch_c, 0, 49, 0
1, 4218, Note_off_c, 0, 44, 35
1, 4246, Note_on_c, 0, 37, 31
1, 4369, Note_on_c, 0, 44, 43
1, 4387, Note_off_c, 0, 37, 35
1, 4461, Note_off_c, 0, 44, 53
1, 4487, Note_on_c, 0, 49, 25
1, 4530, Note_on_c, 0, 53, 41
1, 4620, Note_on_c, 0, 56, 28
1, 4670, Note_on_c, 0, 61, 34
1, 4676, Note_off_c, 0, 49, 19
1, 4691, Note_off_c, 0, 53, 39
1, 4727, Note_off_c, 0, 61, 52
1, 4735, Note_on_c, 0, 65, 39
1, 4787, Note_off_c, 0, 56, 38
1, 4822, Note_on_c, 0, 68, 28
1, 4833, Note_off_c, 0, 65, 0
1, 4833, Note_on_c, 0, 65, 24
1, 4863, Note_on_c, 0, 61, 43
1, 4928, Note_off_c, 0, 68, 0
1, 4955, Note_on_c, 0, 56, 32
1, 4973, Poly_aftertouch_c, 0, 68, 127
1, 4992, Note_on_c, 0, 53, 29
1, 5048, Note_off_c, 0, 61, 35
1, 5050, Note_off_c, 0, 56, 30
1, 5091, Note_off_c, 0, 65, 25
1, 5104, Note_off_c, 0, 53, 40
1, 5121, Note_on_c, 0, 49, 5
1, 5178, Note_off_c, 0, 49, 50
1, 5180, Note_on_c, 0, 44, 42
1, 5264, Note_off_c, 0, 44, 45
1, 5344, Note_on_c, 0, 37, 36
1, 5434, Poly_aftertouch_c, 0, 68, 0
1, 5483, Note_off_c, 0, 37, 52
1, 5514, Note_on_c, 0, 44, 37
1, 5567, Note_off_c, 0, 44, 46
1, 5623, Note_on_c, 0, 49, 39
1, 5688, Note_on_c, 0, 53, 33
1, 5751, Note_on_c, 0, 56, 29
1, 5798, Note_off_c, 0, 49, 26
1, 5821, Note_on_c, 0, 61, 38
1, 5883, Note_off_c, 0, 53, 33
1, 5884, Note_off_c, 0, 61, 51
1, 5899, Note_on_c, 0, 65, 38
1, 5935, Note_off_c, 0, 56, 37
1, 5983, Note_on_c, 0, 68, 41
1, 6048, Note_on_c, 0, 61, 37
1, 6123, Note_on_c, 0, 56, 24
1, 6210, Note_on_c, 0, 53, 29
1, 6256, Note_off_c, 0, 61, 30
1, 6322, Note_on_c, 0, 49, 37
1, 6331, Note_off_c, 0, 53, 39
1, 6371, Note_off_c, 0, 49, 57
1, 6453, Note_on_c, 0, 44, 39
1, 6551, Note_off_c, 0, 44, 34
1, 6635, Note_on_c, 0, 37, 34
1, 6821, Note_off_c, 0, 65, 36
1, 6828, Note_off_c, 0, 37, 37
1, 6846, Note_on_c, 0, 44, 33
1, 6900, Note_off_c, 0, 68, 38
1, 6944, Note_off_c, 0, 56, 38
1, 6975, Note_on_c, 0, 49, 35
1, 6977, Note_off_c, 0, 44, 40
1, 7053, Note_on_c, 0, 53, 41
1, 7094, Note_off_c, 0, 49, 36
1, 7105, Note_off_c, 0, 53, 58
1, 7132, Note_on_c, 0, 56, 37
1, 7258, Note_on_c, 0, 61, 26
1, 7294, Note_on_c, 0, 65, 42
1, 7438, Note_off_c, 0, 65, 41
1, 7492, Note_off_c, 0, 56, 27
1, 7511, Note_off_c, 0, 61, 30
1, 7513, Note_on_c, 0, 68, 57
1, 7605, Note_off_c, 0, 68, 48
1, 7645, Note_on_c, 0, 65, 29
1, 7760, Note_on_c, 0, 61, 35
1, 7768, Note_off_c, 0, 65, 40
1, 7823, Note_on_c, 0, 56, 43
1, 7828, Note_off_c, 0, 61, 44
1, 7866, Note_off_c, 0, 56, 56
1, 7908, Note_on_c, 0, 53, 40
1, 7970, Note_off_c, 0, 53, 53
1, 8008, Note_on_c, 0, 49, 44
1, 8057, Note_off_c, 0, 49, 59
1, 8103, Note_on_c, 0, 44, 41
1, 8224, Note_off_c, 0, 44, 31
1, 8232, Control_c, 0, 64, 119
1, 8247, Control_c, 0, 64, 109
1, 8257, Note_on_c, 0, 70, 72
1, 8262, Control_c, 0, 64, 99
1, 8276, Control_c, 0, 64, 89
1, 8284, Note_on_c, 0, 37, 48
1, 8291, Control_c, 0, 64, 77
1, 8306, Control_c, 0, 64, 67
1, 8320, Control_c, 0, 64, 61
1, 8335, Control_c, 0, 64, 60
1, 8365, Control_c, 0, 64, 61
1, 8381, Control_c, 0, 64, 64
1, 8396, Control_c, 0, 64, 68
1, 8401, Note_off_c, 0, 37, 59
1, 8411, Control_c, 0, 64, 73
1, 8415, Note_on_c, 0, 44, 45
1, 8425, Control_c, 0, 64, 81
1, 8440, Control_c, 0, 64, 89
1, 8455, Control_c, 0, 64, 93
1, 8462, Note_off_c, 0, 70, 58
1, 8470, Control_c, 0, 64, 95
1, 8485, Control_c, 0, 64, 96
1, 8499, Control_c, 0, 64, 98
1, 8500, Note_off_c, 0, 44, 56
1, 8513, Note_on_c, 0, 49, 49
1, 8514, Control_c, 0, 64, 102
1, 8529, Control_c, 0, 64, 106
1, 8544, Control_c, 0, 64, 109
1, 8549, Note_on_c, 0, 53, 53
1, 8558, Control_c, 0, 64, 112
1, 8573, Control_c, 0, 64, 113
1, 8587, Note_off_c, 0, 53, 59
1, 8588, Control_c, 0, 64, 113
1, 8594, Note_on_c, 0, 56, 56
1, 8594, Note_off_c, 0, 49, 37
1, 8603, Control_c, 0, 64, 114
1, 8632, Control_c, 0, 64, 114
1, 8647, Control_c, 0, 64, 115
1, 8662, Control_c, 0, 64, 116
1, 8677, Control_c, 0, 64, 116
1, 8684, Note_on_c, 0, 61, 41
1, 8699, Control_c, 0, 64, 117
1, 8714, Control_c, 0, 64, 117
1, 8729, Control_c, 0, 64, 118
1, 8744, Control_c, 0, 64, 118
1, 8746, Note_on_c, 0, 65, 54
1, 8758, Control_c, 0, 64, 119
1, 8788, Control_c, 0, 64, 120
1, 8832, Control_c, 0, 64, 121
1, 8832, Control_c, 0, 67, 126
1, 8847, Control_c, 0, 67, 124
1, 8862, Control_c, 0, 67, 122
1, 8874, Note_off_c, 0, 65, 35
1, 8877, Control_c, 0, 67, 121
1, 8909, Note_on_c, 0, 73, 79
1, 8963, Note_off_c, 0, 61, 31
1, 8968, Note_off_c, 0, 73, 63
1, 8990, Note_on_c, 0, 65, 48
1, 8996, Control_c, 0, 67, 121
1, 9035, Note_off_c, 0, 56, 38
1, 9088, Note_on_c, 0, 61, 46
1, 9099, Control_c, 0, 67, 121
1, 9113, Note_off_c, 0, 65, 35
1, 9114, Control_c, 0, 67, 120
1, 9129, Control_c, 0, 67, 120
1, 9162, Note_on_c, 0, 56, 51
1, 9174, Control_c, 0, 64, 120
1, 9189, Control_c, 0, 64, 119
1, 9204, Control_c, 0, 64, 118
1, 9206, Note_off_c, 0, 61, 32
1, 9213, Note_off_c, 0, 56, 60
1, 9219, Control_c, 0, 64, 117
1, 9234, Control_c, 0, 64, 116
1, 9234, Control_c, 0, 67, 120
1, 9246, Note_on_c, 0, 53, 42
1, 9248, Control_c, 0, 64, 115
1, 9248, Control_c, 0, 67, 121
1, 9263, Control_c, 0, 64, 115
1, 9278, Control_c, 0, 64, 114
1, 9278, Control_c, 0, 67, 121
1, 9307, Note_off_c, 0, 53, 52
1, 9308, Control_c, 0, 64, 113
1, 9322, Control_c, 0, 64, 113
1, 9322, Control_c, 0, 67, 122
1, 9335, Note_on_c, 0, 49, 49
1, 9366, Control_c, 0, 64, 112
1, 9381, Control_c, 0, 64, 112
1, 9396, Control_c, 0, 64, 111
1, 9411, Control_c, 0, 64, 111
1, 9421, Note_off_c, 0, 49, 51
1, 9426, Control_c, 0, 64, 110
1, 9452, Note_on_c, 0, 44, 46
1, 9463, Control_c, 0, 64, 110
1, 9508, Control_c, 0, 64, 109
1, 9523, Control_c, 0, 64, 108
1, 9537, Control_c, 0, 64, 108
1, 9552, Control_c, 0, 64, 106
1, 9567, Control_c, 0, 64, 104
1, 9581, Control_c, 0, 64, 101
1, 9581, Control_c, 0, 67, 122
1, 9586, Note_off_c, 0, 44, 0
1, 9596, Control_c, 0, 64, 95
1, 9612, Control_c, 0, 64, 88
1, 9616, Poly_aftertouch_c, 0, 44, 0
1, 9627, Control_c, 0, 64, 78
1, 9631, Note_on_c, 0, 37, 50
1, 9635, Note_on_c, 0, 75, 76
1, 9642, Control_c, 0, 64, 68
1, 9656, Control_c, 0, 64, 61
1, 9656, Control_c, 0, 67, 123
1, 9671, Control_c, 0, 64, 58
1, 9716, Control_c, 0, 64, 59
1, 9730, Control_c, 0, 64, 63
1, 9745, Control_c, 0, 64, 68
1, 9760, Control_c, 0, 64, 74
1, 9774, Control_c, 0, 64, 83
1, 9775, Note_off_c, 0, 37, 58
1, 9789, Control_c, 0, 64, 91
1, 9803, Note_on_c, 0, 46, 47
1, 9804, Control_c, 0, 64, 94
1, 9819, Control_c, 0, 64, 94
1, 9829, Note_off_c, 0, 75, 61
1, 9834, Control_c, 0, 64, 95
1, 9848, Control_c, 0, 64, 97
1, 9863, Control_c, 0, 64, 99
1, 9863, Control_c, 0, 67, 122
1, 9878, Control_c, 0, 64, 101
1, 9878, Control_c, 0, 67, 122
1, 9893, Control_c, 0, 64, 103
1, 9893, Control_c, 0, 67, 121
1, 9908, Control_c, 0, 64, 103
1, 9908, Control_c, 0, 67, 120
1, 9923, Control_c, 0, 64, 104
1, 9923, Control_c, 0, 67, 118
1, 9924, Note_on_c, 0, 49, 39
1, 9938, Control_c, 0, 64, 104
1, 9938, Control_c, 0, 67, 114
1, 9953, Control_c, 0, 64, 105
1, 9953, Control_c, 0, 67, 107
1, 9955, Note_on_c, 0, 54, 52
1, 9968, Control_c, 0, 67, 99
1, 9971, Note_off_c, 0, 49, 47
1, 9974, Note_off_c, 0, 46, 39
1, 9983, Control_c, 0, 64, 105
1, 9983, Control_c, 0, 67, 89
1, 9994, Note_off_c, 0, 54, 64
1, 9997, Control_c, 0, 67, 79
1, 9999, Note_on_c, 0, 58, 53
1, 10012, Control_c, 0, 67, 69
1, 10027, Control_c, 0, 67, 58
1, 10042, Control_c, 0, 67, 50
1, 10057, Control_c, 0, 67, 43
1, 10072, Control_c, 0, 67, 37
1, 10082, Note_on_c, 0, 61, 50
1, 10087, Control_c, 0, 67, 31
1, 10096, Note_off_c, 0, 58, 0
1, 10102, Control_c, 0, 67, 24
1, 10117, Control_c, 0, 67, 36
1, 10132, Control_c, 0, 67, 29
1, 10146, Control_c, 0, 67, 23
1, 10150, Poly_aftertouch_c, 0, 58, 0
1, 10161, Control_c, 0, 67, 17
1, 10197, Control_c, 0, 67, 0
1, 10203, Note_on_c, 0, 66, 41
1, 10236, Note_off_c, 0, 61, 40
1, 10252, Note_off_c, 0, 66, 42
1, 10314, Note_on_c, 0, 77, 65
1, 10380, Note_off_c, 0, 77, 58
1, 10405, Control_c, 0, 64, 106
1, 10421, Note_on_c, 0, 66, 44
1, 10535, Note_on_c, 0, 61, 43
1, 10539, Note_off_c, 0, 66, 37
1, 10633, Note_off_c, 0, 61, 31
1, 10634, Note_on_c, 0, 58, 36
1, 10677, Note_off_c, 0, 58, 46
1, 10710, Note_on_c, 0, 54, 32
1, 10785, Note_off_c, 0, 54, 38
1, 10810, Note_on_c, 0, 49, 43
1, 10865, Note_off_c, 0, 49, 58
1, 10917, Note_on_c, 0, 46, 40
1, 10924, Control_c, 0, 64, 105
1, 11031, Note_off_c, 0, 46, 34
1, 11035, Control_c, 0, 64, 105
1, 11050, Control_c, 0, 64, 104
1, 11065, Control_c, 0, 64, 103
1, 11068, Note_on_c, 0, 75, 66
1, 11080, Control_c, 0, 64, 99
1, 11090, Note_on_c, 0, 37, 42
1, 11094, Control_c, 0, 64, 94
1, 11109, Control_c, 0, 64, 86
1, 11124, Control_c, 0, 64, 75
1, 11139, Control_c, 0, 64, 66
1, 11153, Control_c, 0, 64, 63
1, 11168, Control_c, 0, 64, 62
1, 11198, Control_c, 0, 64, 63
1, 11213, Control_c, 0, 64, 66
1, 11227, Control_c, 0, 64, 70
1, 11242, Control_c, 0, 64, 76
1, 11247, Note_off_c, 0, 37, 59
1, 11257, Control_c, 0, 64, 84
1, 11261, Note_on_c, 0, 46, 41
1, 11272, Control_c, 0, 64, 90
1, 11281, Note_off_c, 0, 75, 57
1, 11287, Control_c, 0, 64, 91
1, 11301, Control_c, 0, 64, 92
1, 11316, Control_c, 0, 64, 93
1, 11331, Control_c, 0, 64, 94
1, 11345, Control_c, 0, 64, 96
1, 11360, Control_c, 0, 64, 97
1, 11372, Note_off_c, 0, 46, 35
1, 11375, Control_c, 0, 64, 97
1, 11390, Control_c, 0, 64, 98
1, 11399, Note_on_c, 0, 49, 26
1, 11405, Control_c, 0, 64, 98
1, 11419, Control_c, 0, 64, 99
1, 11426, Note_on_c, 0, 54, 50
1, 11434, Control_c, 0, 64, 100
1, 11449, Control_c, 0, 64, 101
1, 11451, Note_off_c, 0, 49, 45
1, 11464, Control_c, 0, 64, 103
1, 11473, Note_on_c, 0, 58, 37
1, 11479, Control_c, 0, 64, 104
1, 11482, Note_off_c, 0, 54, 56
1, 11494, Control_c, 0, 64, 105
1, 11509, Control_c, 0, 64, 105
1, 11524, Control_c, 0, 64, 106
1, 11538, Control_c, 0, 64, 106
1, 11555, Note_off_c, 0, 58, 0
1, 11556, Note_on_c, 0, 61, 45
1, 11568, Control_c, 0, 64, 107
1, 11593, Poly_aftertouch_c, 0, 58, 127
1, 11673, Note_on_c, 0, 66, 29
1, 11705, Note_off_c, 0, 61, 27
1, 11716, Poly_aftertouch_c, 0, 58, 0
1, 11720, Note_off_c, 0, 66, 49
1, 11789, Note_on_c, 0, 70, 60
1, 11874, Note_off_c, 0, 70, 55
1, 11928, Note_on_c, 0, 66, 41
1, 11985, Note_off_c, 0, 66, 51
1, 12031, Note_on_c, 0, 61, 40
1, 12132, Note_on_c, 0, 58, 40
1, 12180, Note_off_c, 0, 61, 23
1, 12207, Note_off_c, 0, 58, 36
1, 12234, Note_on_c, 0, 54, 35
1, 12322, Note_off_c, 0, 54, 35
1, 12389, Note_on_c, 0, 49, 40
1, 12473, Control_c, 0, 64, 106
1, 12528, Note_on_c, 0, 46, 45
1, 12532, Control_c, 0, 64, 106
1, 12573, Note_off_c, 0, 49, 41
1, 12577, Control_c, 0, 64, 105
1, 12606, Control_c, 0, 64, 105
1, 12651, Control_c, 0, 64, 104
1, 12664, Note_off_c, 0, 46, 41
1, 12680, Control_c, 0, 64, 104
1, 12710, Control_c, 0, 64, 103
1, 12725, Control_c, 0, 64, 103
1, 12755, Control_c, 0, 64, 102
1, 12770, Control_c, 0, 64, 102
1, 12799, Control_c, 0, 64, 101
1, 12814, Control_c, 0, 64, 100
1, 12829, Control_c, 0, 64, 97
1, 12830, Note_on_c, 0, 73, 61
1, 12844, Control_c, 0, 64, 91
1, 12859, Control_c, 0, 64, 80
1, 12859, Note_on_c, 0, 37, 33
1, 12873, Control_c, 0, 64, 69
1, 12888, Control_c, 0, 64, 63
1, 12903, Control_c, 0, 64, 58
1, 12917, Control_c, 0, 64, 58
1, 12932, Control_c, 0, 64, 57
1, 12991, Control_c, 0, 64, 59
1, 13006, Control_c, 0, 64, 63
1, 13021, Control_c, 0, 64, 67
1, 13036, Control_c, 0, 64, 73
1, 13051, Control_c, 0, 64, 81
1, 13065, Control_c, 0, 64, 87
1, 13080, Control_c, 0, 64, 90
1, 13095, Control_c, 0, 64, 91
1, 13108, Note_on_c, 0, 44, 43
1, 13109, Note_off_c, 0, 37, 39
1, 13110, Control_c, 0, 64, 93
1, 13121, Note_off_c, 0, 73, 60
1, 13124, Control_c, 0, 64, 96
1, 13139, Control_c, 0, 64, 101
1, 13154, Control_c, 0, 64, 107
1, 13170, Control_c, 0, 64, 111
1, 13185, Control_c, 0, 64, 114
1, 13247, Note_on_c, 0, 49, 38
1, 13267, Note_off_c, 0, 44, 40
1, 13337, Note_on_c, 0, 53, 40
1, 13475, Control_c, 0, 67, 24
1, 13477, Note_on_c, 0, 56, 38
1, 13489, Control_c, 0, 67, 32
1, 13504, Control_c, 0, 67, 39
1, 13513, Note_off_c, 0, 53, 38
1, 13519, Control_c, 0, 67, 44
1, 13534, Control_c, 0, 67, 50
1, 13547, Note_on_c, 0, 61, 28
1, 13548, Control_c, 0, 67, 52
1, 13563, Control_c, 0, 67, 53
1, 13593, Control_c, 0, 67, 53
1, 13604, Note_off_c, 0, 61, 42
1, 13608, Control_c, 0, 67, 54
1, 13616, Note_on_c, 0, 65, 36
1, 13622, Control_c, 0, 67, 56
1, 13637, Control_c, 0, 67, 57
1, 13652, Control_c, 0, 67, 60
1, 13667, Control_c, 0, 67, 65
1, 13682, Control_c, 0, 67, 71
1, 13697, Control_c, 0, 67, 80
1, 13700, Note_off_c, 0, 56, 34
1, 13712, Control_c, 0, 67, 88
1, 13715, Note_on_c, 0, 68, 39
1, 13724, Note_off_c, 0, 65, 0
1, 13724, Note_on_c, 0, 65, 3
1, 13727, Control_c, 0, 67, 99
1, 13741, Control_c, 0, 67, 108
1, 13756, Control_c, 0, 67, 117
1, 13756, Note_on_c, 0, 61, 33
1, 13771, Control_c, 0, 67, 124
1, 13777, Note_off_c, 0, 49, 32
1, 13786, Control_c, 0, 67, 127
1, 13837, Note_on_c, 0, 56, 26
1, 13879, Note_off_c, 0, 61, 25
1, 13882, Note_on_c, 0, 53, 34
1, 13919, Control_c, 0, 64, 113
1, 13951, Note_off_c, 0, 68, 38
1, 13956, Control_c, 0, 64, 113
1, 13968, Note_off_c, 0, 56, 34
1, 13971, Note_on_c, 0, 49, 42
1, 13971, Note_off_c, 0, 53, 39
1, 13974, Note_off_c, 0, 65, 39
1, 14004, Note_off_c, 0, 49, 56
1, 14086, Note_on_c, 0, 44, 40
1, 14149, Note_off_c, 0, 44, 45
1, 14199, Note_on_c, 0, 37, 38
1, 14327, Note_on_c, 0, 44, 42
1, 14350, Note_off_c, 0, 37, 35
1, 14403, Note_off_c, 0, 44, 57
1, 14465, Note_on_c, 0, 49, 30
1, 14496, Note_on_c, 0, 53, 39
1, 14570, Note_on_c, 0, 56, 28
1, 14589, Note_off_c, 0, 53, 35
1, 14641, Note_on_c, 0, 61, 16
1, 14677, Note_on_c, 0, 65, 33
1, 14696, Note_off_c, 0, 61, 47
1, 14769, Note_off_c, 0, 65, 0
1, 14783, Note_off_c, 0, 56, 39
1, 14796, Note_on_c, 0, 68, 27
1, 14806, Poly_aftertouch_c, 0, 65, 127
1, 14836, Note_on_c, 0, 61, 30
1, 14917, Note_off_c, 0, 49, 38
1, 14920, Note_on_c, 0, 56, 23
1, 14943, Control_c, 0, 67, 125
1, 14958, Control_c, 0, 67, 122
1, 14973, Control_c, 0, 67, 120
1, 14987, Control_c, 0, 67, 117
1, 15002, Control_c, 0, 67, 115
1, 15008, Note_on_c, 0, 53, 27
1, 15017, Control_c, 0, 67, 114
1, 15062, Control_c, 0, 67, 115
1, 15065, Note_off_c, 0, 53, 44
1, 15077, Control_c, 0, 67, 115
1, 15091, Note_on_c, 0, 49, 27
1, 15092, Control_c, 0, 67, 116
1, 15107, Control_c, 0, 67, 117
1, 15121, Control_c, 0, 67, 118
1, 15136, Control_c, 0, 67, 119
1, 15136, Note_off_c, 0, 61, 22
1, 15139, Note_off_c, 0, 49, 47
1, 15151, Control_c, 0, 67, 119
1, 15166, Control_c, 0, 67, 120
1, 15181, Control_c, 0, 67, 121
1, 15195, Control_c, 0, 67, 121
1, 15214, Note_on_c, 0, 44, 32
1, 15240, Control_c, 0, 67, 122
1, 15255, Control_c, 0, 67, 122
1, 15284, Control_c, 0, 67, 123
1, 15299, Control_c, 0, 67, 123
1, 15331, Note_off_c, 0, 44, 29
1, 15354, Poly_aftertouch_c, 0, 65, 0
1, 15381, Note_off_c, 0, 56, 37
1, 15381, Note_off_c, 0, 68, 38
1, 15383, Note_on_c, 0, 37, 35
1, 15417, Control_c, 0, 67, 122
1, 15439, Control_c, 0, 67, 121
1, 15454, Control_c, 0, 67, 119
1, 15469, Control_c, 0, 67, 117
1, 15484, Control_c, 0, 67, 114
1, 15499, Control_c, 0, 67, 112
1, 15513, Control_c, 0, 67, 109
1, 15528, Control_c, 0, 67, 102
1, 15539, Note_off_c, 0, 37, 54
1, 15543, Control_c, 0, 67, 93
1, 15558, Control_c, 0, 67, 84
1, 15573, Note_on_c, 0, 44, 31
1, 15574, Control_c, 0, 67, 71
1, 15589, Control_c, 0, 67, 60
1, 15603, Control_c, 0, 67, 49
1, 15617, Control_c, 0, 67, 38
1, 15632, Control_c, 0, 67, 35
1, 15647, Control_c, 0, 67, 25
1, 15677, Control_c, 0, 67, 0
1, 15679, Note_on_c, 0, 49, 38
1, 15681, Note_off_c, 0, 44, 33
1, 15730, Note_off_c, 0, 49, 44
1, 15748, Note_on_c, 0, 53, 32
1, 15786, Note_on_c, 0, 56, 31
1, 15788, Note_off_c, 0, 53, 50
1, 15901, Note_on_c, 0, 61, 4
1, 15914, Control_c, 0, 64, 116
1, 15929, Control_c, 0, 64, 122
1, 15932, Note_on_c, 0, 65, 38
1, 15943, Control_c, 0, 64, 127
1, 16028, Note_off_c, 0, 65, 32
1, 16079, Note_on_c, 0, 68, 61
1, 16141, Note_off_c, 0, 61, 14
1, 16158, Note_off_c, 0, 68, 44
1, 16205, Note_on_c, 0, 65, 42
1, 16251, Note_off_c, 0, 56, 38
1, 16280, Note_on_c, 0, 61, 29
1, 16332, Note_off_c, 0, 65, 35
1, 16388, Note_on_c, 0, 56, 30
1, 16393, Note_off_c, 0, 61, 35
1, 16433, Note_off_c, 0, 56, 44
1, 16447, Note_on_c, 0, 53, 38
1, 16493, Note_off_c, 0, 53, 46
1, 16535, Note_on_c, 0, 49, 45
1, 16592, Note_off_c, 0, 49, 55
1, 16654, Note_on_c, 0, 44, 40
1, 16791, Note_on_c, 0, 70, 70
1, 16797, Control_c, 0, 64, 113
1, 16799, Note_off_c, 0, 44, 33
1, 16812, Control_c, 0, 64, 95
1, 16812, Note_on_c, 0, 37, 47
1, 16827, Control_c, 0, 64, 75
1, 16841, Control_c, 0, 64, 62
1, 16856, Control_c, 0, 64, 54
1, 16871, Control_c, 0, 64, 53
1, 16885, Control_c, 0, 64, 55
1, 16900, Control_c, 0, 64, 61
1, 16915, Control_c, 0, 64, 67
1, 16937, Control_c, 0, 64, 77
1, 16949, Note_off_c, 0, 37, 57
1, 16952, Control_c, 0, 64, 90
1, 16955, Note_on_c, 0, 44, 51
1, 16967, Control_c, 0, 64, 104
1, 16982, Control_c, 0, 64, 112
1, 16997, Control_c, 0, 64, 117
1, 17011, Control_c, 0, 64, 127
1, 17018, Note_off_c, 0, 70, 57
1, 17101, Note_on_c, 0, 53, 43
1, 17125, Note_off_c, 0, 44, 34
1, 17144, Note_off_c, 0, 53, 48
1, 17169, Note_on_c, 0, 56, 47
1, 17244, Note_on_c, 0, 61, 45
1, 17304, Note_on_c, 0, 65, 48
1, 17402, Note_off_c, 0, 61, 36
1, 17428, Note_off_c, 0, 65, 35
1, 17445, Note_on_c, 0, 73, 76
1, 17506, Note_off_c, 0, 73, 62
1, 17527, Note_on_c, 0, 65, 40
1, 17595, Note_off_c, 0, 56, 38
1, 17637, Note_on_c, 0, 61, 43
1, 17694, Note_off_c, 0, 65, 40
1, 17703, Note_off_c, 0, 61, 54
1, 17721, Note_on_c, 0, 56, 50
1, 17751, Note_off_c, 0, 56, 62
1, 17807, Note_on_c, 0, 53, 45
1, 17895, Note_on_c, 0, 49, 52
1, 17911, Note_off_c, 0, 53, 35
1, 17967, Note_off_c, 0, 49, 53
1, 18001, Note_on_c, 0, 44, 49
1, 18170, Note_on_c, 0, 75, 80
1, 18173, Note_on_c, 0, 37, 54
1, 18176, Control_c, 0, 64, 116
1, 18177, Note_off_c, 0, 44, 40
1, 18191, Control_c, 0, 64, 103
1, 18205, Control_c, 0, 64, 88
1, 18220, Control_c, 0, 64, 73
1, 18235, Control_c, 0, 64, 63
1, 18250, Control_c, 0, 64, 55
1, 18279, Control_c, 0, 64, 56
1, 18294, Control_c, 0, 64, 61
1, 18309, Control_c, 0, 64, 67
1, 18324, Control_c, 0, 64, 75
1, 18335, Note_off_c, 0, 37, 59
1, 18338, Control_c, 0, 64, 85
1, 18353, Control_c, 0, 64, 96
1, 18362, Note_on_c, 0, 46, 45
1, 18368, Control_c, 0, 64, 102
1, 18383, Control_c, 0, 64, 104
1, 18389, Note_off_c, 0, 75, 61
1, 18398, Control_c, 0, 64, 106
1, 18413, Control_c, 0, 64, 112
1, 18435, Control_c, 0, 64, 124
1, 18450, Control_c, 0, 64, 127
1, 18481, Note_on_c, 0, 49, 45
1, 18522, Note_on_c, 0, 54, 47
1, 18531, Note_off_c, 0, 46, 40
1, 18562, Note_off_c, 0, 49, 38
1, 18564, Note_off_c, 0, 54, 62
1, 18582, Note_on_c, 0, 58, 55
1, 18660, Note_on_c, 0, 61, 45
1, 18743, Note_off_c, 0, 58, 38
1, 18773, Note_on_c, 0, 66, 42
1, 18806, Note_off_c, 0, 61, 41
1, 18825, Note_off_c, 0, 66, 54
1, 18881, Note_on_c, 0, 77, 74
1, 18955, Note_off_c, 0, 77, 58
1, 18973, Note_on_c, 0, 66, 48
1, 19100, Note_off_c, 0, 66, 43
1, 19109, Note_on_c, 0, 61, 45
1, 19205, Note_off_c, 0, 61, 36
1, 19212, Note_on_c, 0, 58, 46
1, 19266, Note_off_c, 0, 58, 54
1, 19313, Note_on_c, 0, 54, 45
1, 19439, Note_on_c, 0, 49, 46
1, 19443, Note_off_c, 0, 54, 34
1, 19488, Note_off_c, 0, 49, 59
1, 19533, Note_on_c, 0, 46, 46
1, 19619, Note_off_c, 0, 46, 37
1, 19658, Control_c, 0, 64, 122
1, 19670, Note_on_c, 0, 75, 68
1, 19673, Control_c, 0, 64, 113
1, 19688, Control_c, 0, 64, 102
1, 19693, Note_on_c, 0, 37, 48
1, 19703, Control_c, 0, 64, 89
1, 19717, Control_c, 0, 64, 75
1, 19732, Control_c, 0, 64, 64
1, 19747, Control_c, 0, 64, 58
1, 19762, Control_c, 0, 64, 57
1, 19777, Control_c, 0, 64, 57
1, 19791, Control_c, 0, 64, 63
1, 19806, Control_c, 0, 64, 68
1, 19821, Control_c, 0, 64, 75
1, 19831, Note_off_c, 0, 37, 58
1, 19835, Control_c, 0, 64, 84
1, 19844, Note_on_c, 0, 46, 43
1, 19850, Control_c, 0, 64, 92
1, 19859, Note_off_c, 0, 75, 59
1, 19865, Control_c, 0, 64, 95
1, 19880, Control_c, 0, 64, 96
1, 19895, Control_c, 0, 64, 97
1, 19909, Control_c, 0, 64, 99
1, 19932, Control_c, 0, 64, 101
1, 19947, Control_c, 0, 64, 102
1, 19970, Note_on_c, 0, 49, 36
1, 19991, Control_c, 0, 64, 102
1, 20019, Note_off_c, 0, 46, 30
1, 20030, Note_on_c, 0, 54, 40
1, 20082, Note_off_c, 0, 49, 32
1, 20100, Note_on_c, 0, 58, 41
1, 20100, Note_off_c, 0, 54, 40
1, 20168, Note_on_c, 0, 61, 42
1, 20276, Note_off_c, 0, 58, 26
1, 20279, Note_on_c, 0, 66, 43
1, 20296, Note_off_c, 0, 61, 31
1, 20323, Note_off_c, 0, 66, 44
1, 20402, Note_on_c, 0, 70, 62
1, 20491, Note_off_c, 0, 70, 51
1, 20526, Note_on_c, 0, 66, 36
1, 20636, Note_off_c, 0, 66, 31
1, 20649, Note_on_c, 0, 61, 37
1, 20772, Note_on_c, 0, 58, 21
1, 20776, Note_off_c, 0, 61, 26
1, 20835, Note_off_c, 0, 58, 39
1, 20906, Note_on_c, 0, 54, 28
1, 20994, Note_off_c, 0, 54, 34
1, 21048, Note_on_c, 0, 49, 32
1, 21107, Note_off_c, 0, 49, 41
1, 21170, Note_on_c, 0, 46, 28
1, 21200, Control_c, 0, 64, 102
1, 21259, Control_c, 0, 64, 101
1, 21289, Control_c, 0, 64, 101
1, 21309, Note_off_c, 0, 46, 29
1, 21334, Control_c, 0, 64, 100
1, 21378, Control_c, 0, 64, 100
1, 21407, Control_c, 0, 64, 99
1, 21411, Note_on_c, 0, 73, 60
1, 21429, Control_c, 0, 64, 99
1, 21444, Control_c, 0, 64, 98
1, 21459, Control_c, 0, 64, 95
1, 21468, Note_on_c, 0, 37, 32
1, 21474, Control_c, 0, 64, 92
1, 21489, Control_c, 0, 64, 87
1, 21504, Control_c, 0, 64, 80
1, 21519, Control_c, 0, 64, 71
1, 21534, Control_c, 0, 64, 63
1, 21548, Control_c, 0, 64, 59
1, 21563, Control_c, 0, 64, 58
1, 21621, Control_c, 0, 64, 59
1, 21636, Control_c, 0, 64, 61
1, 21651, Control_c, 0, 64, 64
1, 21666, Control_c, 0, 64, 68
1, 21680, Control_c, 0, 64, 72
1, 21695, Control_c, 0, 64, 78
1, 21710, Control_c, 0, 64, 84
1, 21725, Control_c, 0, 64, 88
1, 21731, Note_on_c, 0, 44, 38
1, 21733, Note_off_c, 0, 73, 55
1, 21740, Control_c, 0, 64, 90
1, 21744, Note_off_c, 0, 37, 37
1, 21754, Control_c, 0, 64, 93
1, 21769, Control_c, 0, 64, 96
1, 21784, Control_c, 0, 64, 102
1, 21799, Control_c, 0, 64, 108
1, 21814, Control_c, 0, 64, 115
1, 21829, Control_c, 0, 64, 123
1, 21844, Control_c, 0, 64, 127
1, 21879, Note_off_c, 0, 44, 36
1, 21900, Note_on_c, 0, 49, 36
1, 22026, Note_on_c, 0, 53, 42
1, 22100, Note_on_c, 0, 56, 31
1, 22179, Note_on_c, 0, 61, 32
1, 22240, Note_off_c, 0, 61, 40
1, 22249, Note_on_c, 0, 65, 40
1, 22265, Note_off_c, 0, 53, 28
1, 22334, Note_off_c, 0, 56, 39
1, 22343, Note_on_c, 0, 68, 27
1, 22356, Note_off_c, 0, 65, 0
1, 22376, Note_on_c, 0, 65, 9
1, 22422, Note_on_c, 0, 61, 18
1, 22476, Note_on_c, 0, 56, 34
1, 22497, Note_off_c, 0, 49, 9
1, 22510, Note_off_c, 0, 61, 32
1, 22535, Note_on_c, 0, 53, 33
1, 22612, Note_off_c, 0, 53, 39
1, 22628, Note_on_c, 0, 49, 48
1, 22668, Note_off_c, 0, 49, 63
1, 22669, Note_off_c, 0, 56, 35
1, 22727, Note_on_c, 0, 44, 43
1, 22784, Note_off_c, 0, 68, 31
1, 22792, Note_off_c, 0, 44, 51
1, 22814, Note_off_c, 0, 65, 35
1, 22825, Note_on_c, 0, 37, 46
1, 22933, Note_off_c, 0, 37, 56
1, 22945, Note_on_c, 0, 44, 55
1, 23028, Note_off_c, 0, 44, 55
1, 23036, Note_on_c, 0, 49, 51
1, 23073, Note_on_c, 0, 53, 57
1, 23137, Note_on_c, 0, 56, 54
1, 23194, Note_on_c, 0, 61, 50
1, 23213, Note_off_c, 0, 49, 38
1, 23230, Note_on_c, 0, 44, 35
1, 23262, Note_on_c, 0, 65, 57
1, 23275, Note_off_c, 0, 61, 54
1, 23319, Note_off_c, 0, 65, 60
1, 23325, Note_on_c, 0, 68, 62
1, 23327, Note_off_c, 0, 53, 40
1, 23352, Note_off_c, 0, 56, 38
1, 23381, Note_on_c, 0, 65, 49
1, 23391, Note_off_c, 0, 68, 57
1, 23417, Note_on_c, 0, 61, 51
1, 23461, Note_off_c, 0, 65, 58
1, 23475, Note_on_c, 0, 56, 53
1, 23519, Note_on_c, 0, 53, 61
1, 23537, Note_off_c, 0, 61, 36
1, 23590, Note_on_c, 0, 49, 65
1, 23593, Note_off_c, 0, 44, 33
1, 23593, Note_off_c, 0, 56, 34
1, 23623, Note_off_c, 0, 53, 36
1, 23704, Note_off_c, 0, 49, 58
1, 23709, Note_on_c, 0, 44, 70
1, 23736, Control_c, 0, 64, 124
1, 23750, Control_c, 0, 64, 122
1, 23765, Control_c, 0, 64, 120
1, 23780, Control_c, 0, 64, 119
1, 23795, Control_c, 0, 64, 118
1, 23809, Control_c, 0, 64, 117
1, 23824, Control_c, 0, 64, 114
1, 23839, Control_c, 0, 64, 111
1, 23854, Control_c, 0, 64, 108
1, 23869, Control_c, 0, 64, 100
1, 23883, Control_c, 0, 64, 87
1, 23891, Note_on_c, 0, 36, 77
1, 23898, Control_c, 0, 64, 69
1, 23908, Note_off_c, 0, 44, 54
1, 23913, Control_c, 0, 64, 53
1, 23928, Control_c, 0, 64, 19
1, 23943, Control_c, 0, 64, 0
1, 23972, Control_c, 0, 64, 27
1, 23987, Control_c, 0, 64, 55
1, 24002, Control_c, 0, 64, 67
1, 24017, Control_c, 0, 64, 74
1, 24024, Note_off_c, 0, 36, 61
1, 24032, Control_c, 0, 64, 81
1, 24046, Control_c, 0, 64, 86
1, 24061, Control_c, 0, 64, 89
1, 24076, Control_c, 0, 64, 92
1, 24091, Control_c, 0, 64, 93
1, 24106, Control_c, 0, 64, 94
1, 24139, Note_on_c, 0, 45, 61
1, 24150, Control_c, 0, 64, 95
1, 24180, Control_c, 0, 64, 95
1, 24233, Note_on_c, 0, 51, 61
1, 24270, Note_off_c, 0, 45, 53
1, 24293, Note_on_c, 0, 53, 54
1, 24305, Note_off_c, 0, 51, 59
1, 24318, Note_on_c, 0, 57, 53
1, 24321, Note_off_c, 0, 53, 56
1, 24327, Control_c, 0, 64, 96
1, 24372, Note_on_c, 0, 63, 64
1, 24388, Control_c, 0, 64, 96
1, 24418, Control_c, 0, 64, 97
1, 24440, Note_on_c, 0, 65, 48
1, 24440, Control_c, 0, 64, 98
1, 24455, Control_c, 0, 64, 99
1, 24470, Control_c, 0, 64, 99
1, 24485, Control_c, 0, 64, 100
1, 24499, Control_c, 0, 64, 101
1, 24511, Note_on_c, 0, 69, 63
1, 24529, Control_c, 0, 64, 101
1, 24617, Note_on_c, 0, 78, 83
1, 24645, Note_off_c, 0, 65, 33
1, 24691, Note_off_c, 0, 78, 61
1, 24692, Note_off_c, 0, 69, 0
1, 24705, Note_on_c, 0, 69, 39
1, 24772, Note_off_c, 0, 63, 41
1, 24809, Note_on_c, 0, 65, 54
1, 24816, Note_off_c, 0, 57, 36
1, 24836, Note_off_c, 0, 69, 37
1, 24878, Note_on_c, 0, 63, 57
1, 24947, Note_on_c, 0, 57, 52
1, 24972, Note_on_c, 0, 53, 46
1, 24972, Note_off_c, 0, 57, 58
1, 25004, Note_off_c, 0, 63, 51
1, 25012, Note_off_c, 0, 65, 33
1, 25047, Control_c, 0, 64, 101
1, 25070, Note_on_c, 0, 51, 51
1, 25077, Control_c, 0, 64, 100
1, 25101, Note_off_c, 0, 53, 38
1, 25106, Control_c, 0, 64, 100
1, 25121, Control_c, 0, 64, 99
1, 25136, Control_c, 0, 64, 99
1, 25157, Note_on_c, 0, 45, 51
1, 25168, Note_off_c, 0, 51, 47
1, 25188, Control_c, 0, 64, 98
1, 25189, Note_off_c, 0, 45, 57
1, 25233, Control_c, 0, 64, 98
1, 25263, Control_c, 0, 64, 97
1, 25278, Control_c, 0, 64, 97
1, 25292, Control_c, 0, 64, 95
1, 25307, Control_c, 0, 64, 92
1, 25322, Control_c, 0, 64, 87
1, 25337, Control_c, 0, 64, 77
1, 25352, Control_c, 0, 64, 65
1, 25354, Note_on_c, 0, 77, 78
1, 25367, Control_c, 0, 64, 54
1, 25376, Note_on_c, 0, 33, 64
1, 25381, Control_c, 0, 64, 48
1, 25396, Control_c, 0, 64, 48
1, 25411, Control_c, 0, 64, 55
1, 25426, Control_c, 0, 64, 63
1, 25441, Control_c, 0, 64, 70
1, 25455, Note_off_c, 0, 33, 59
1, 25455, Control_c, 0, 64, 77
1, 25470, Control_c, 0, 64, 84
1, 25485, Control_c, 0, 64, 87
1, 25500, Control_c, 0, 64, 88
1, 25510, Note_off_c, 0, 77, 58
1, 25515, Control_c, 0, 64, 89
1, 25529, Control_c, 0, 64, 91
1, 25544, Control_c, 0, 64, 92
1, 25559, Control_c, 0, 64, 92
1, 25582, Note_on_c, 0, 48, 53
1, 25588, Control_c, 0, 64, 93
1, 25603, Control_c, 0, 64, 93
1, 25673, Note_on_c, 0, 51, 57
1, 25710, Note_on_c, 0, 53, 54
1, 25750, Note_off_c, 0, 51, 54
1, 25757, Note_off_c, 0, 48, 34
1, 25759, Note_off_c, 0, 53, 58
1, 25788, Note_on_c, 0, 60, 53
1, 25855, Control_c, 0, 64, 94
1, 25871, Note_on_c, 0, 63, 52
1, 25921, Control_c, 0, 64, 94
1, 25965, Note_on_c, 0, 65, 53
1, 25987, Note_off_c, 0, 60, 31
1, 26021, Note_off_c, 0, 63, 40
1, 26034, Note_on_c, 0, 72, 80
1, 26094, Note_off_c, 0, 72, 61
1, 26098, Note_off_c, 0, 65, 0
1, 26114, Note_on_c, 0, 65, 25
1, 26136, Poly_aftertouch_c, 0, 60, 127
1, 26175, Poly_aftertouch_c, 0, 60, 0
1, 26194, Note_on_c, 0, 63, 54
1, 26243, Note_off_c, 0, 65, 41
1, 26298, Note_on_c, 0, 60, 48
1, 26322, Note_off_c, 0, 63, 35
1, 26328, Note_off_c, 0, 60, 53
1, 26369, Note_on_c, 0, 53, 46
1, 26382, Control_c, 0, 64, 94
1, 26456, Control_c, 0, 64, 93
1, 26458, Note_on_c, 0, 51, 47
1, 26471, Note_off_c, 0, 53, 34
1, 26530, Control_c, 0, 64, 93
1, 26556, Note_off_c, 0, 51, 55
1, 26564, Note_on_c, 0, 48, 47
1, 26574, Control_c, 0, 64, 92
1, 26590, Note_off_c, 0, 48, 58
1, 26634, Control_c, 0, 64, 92
1, 26649, Control_c, 0, 64, 91
1, 26670, Control_c, 0, 64, 90
1, 26685, Control_c, 0, 64, 89
1, 26700, Control_c, 0, 64, 86
1, 26715, Control_c, 0, 64, 82
1, 26729, Control_c, 0, 64, 74
1, 26746, Control_c, 0, 64, 65
1, 26758, Note_on_c, 0, 75, 72
1, 26760, Note_on_c, 0, 34, 46
1, 26761, Control_c, 0, 64, 59
1, 26775, Control_c, 0, 64, 54
1, 26819, Control_c, 0, 64, 58
1, 26834, Control_c, 0, 64, 64
1, 26847, Note_off_c, 0, 34, 60
1, 26849, Control_c, 0, 64, 70
1, 26864, Control_c, 0, 64, 77
1, 26879, Control_c, 0, 64, 84
1, 26893, Control_c, 0, 64, 88
1, 26908, Control_c, 0, 64, 90
1, 26923, Control_c, 0, 64, 90
1, 26928, Note_off_c, 0, 75, 59
1, 26938, Control_c, 0, 64, 91
1, 26978, Note_on_c, 0, 49, 45
1, 26998, Control_c, 0, 64, 92
1, 27003, Note_on_c, 0, 54, 42
1, 27036, Note_off_c, 0, 54, 53
1, 27066, Note_on_c, 0, 53, 46
1, 27114, Note_on_c, 0, 58, 54
1, 27117, Note_on_c, 0, 61, 47
1, 27132, Note_off_c, 0, 49, 36
1, 27148, Note_off_c, 0, 53, 55
1, 27161, Note_off_c, 0, 58, 57
1, 27204, Note_on_c, 0, 65, 58
1, 27218, Note_off_c, 0, 61, 0
1, 27234, Control_c, 0, 64, 92
1, 27255, Poly_aftertouch_c, 0, 61, 0
1, 27278, Note_on_c, 0, 70, 62
1, 27293, Control_c, 0, 64, 93
1, 27346, Note_off_c, 0, 70, 50
1, 27347, Note_off_c, 0, 65, 32
1, 27362, Note_on_c, 0, 73, 85
1, 27418, Note_on_c, 0, 70, 45
1, 27426, Note_off_c, 0, 73, 61
1, 27546, Note_on_c, 0, 65, 58
1, 27549, Note_off_c, 0, 70, 54
1, 27610, Note_on_c, 0, 61, 61
1, 27656, Note_off_c, 0, 61, 60
1, 27664, Note_on_c, 0, 58, 62
1, 27672, Note_off_c, 0, 65, 36
1, 27744, Note_off_c, 0, 58, 53
1, 27746, Control_c, 0, 64, 93
1, 27761, Note_on_c, 0, 53, 59
1, 27868, Note_off_c, 0, 53, 57
1, 27869, Note_on_c, 0, 49, 63
1, 27898, Note_off_c, 0, 49, 65
1, 28057, Control_c, 0, 64, 93
1, 28095, Note_on_c, 0, 42, 55
1, 28101, Control_c, 0, 64, 92
1, 28105, Note_on_c, 0, 80, 83
1, 28116, Control_c, 0, 64, 92
1, 28131, Control_c, 0, 64, 91
1, 28146, Control_c, 0, 64, 89
1, 28161, Control_c, 0, 64, 85
1, 28183, Control_c, 0, 64, 79
1, 28198, Control_c, 0, 64, 69
1, 28213, Control_c, 0, 64, 61
1, 28228, Control_c, 0, 64, 51
1, 28243, Control_c, 0, 64, 47
1, 28257, Control_c, 0, 64, 46
1, 28287, Control_c, 0, 64, 47
1, 28301, Control_c, 0, 64, 54
1, 28316, Control_c, 0, 64, 62
1, 28331, Control_c, 0, 64, 69
1, 28347, Control_c, 0, 64, 74
1, 28356, Note_on_c, 0, 49, 47
1, 28359, Note_off_c, 0, 42, 54
1, 28362, Control_c, 0, 64, 81
1, 28377, Control_c, 0, 64, 84
1, 28379, Note_off_c, 0, 80, 61
1, 28391, Control_c, 0, 64, 87
1, 28406, Control_c, 0, 64, 90
1, 28421, Control_c, 0, 64, 95
1, 28431, Note_on_c, 0, 51, 46
1, 28436, Control_c, 0, 64, 99
1, 28451, Control_c, 0, 64, 102
1, 28465, Control_c, 0, 64, 105
1, 28480, Control_c, 0, 64, 106
1, 28497, Note_off_c, 0, 49, 40
1, 28509, Note_on_c, 0, 58, 56
1, 28510, Control_c, 0, 64, 106
1, 28528, Note_off_c, 0, 51, 51
1, 28549, Note_off_c, 0, 58, 60
1, 28578, Note_on_c, 0, 61, 52
1, 28670, Note_on_c, 0, 63, 48
1, 28764, Note_on_c, 0, 70, 48
1, 28861, Note_off_c, 0, 70, 34
1, 28884, Note_on_c, 0, 78, 73
1, 28974, Note_off_c, 0, 78, 59
1, 28988, Note_off_c, 0, 63, 19
1, 29007, Note_on_c, 0, 70, 52
1, 29022, Note_off_c, 0, 61, 10
1, 29124, Note_on_c, 0, 63, 31
1, 29159, Note_off_c, 0, 70, 37
1, 29200, Note_off_c, 0, 63, 38
1, 29215, Control_c, 0, 64, 105
1, 29216, Note_on_c, 0, 61, 34
1, 29230, Control_c, 0, 64, 104
1, 29245, Control_c, 0, 64, 102
1, 29260, Control_c, 0, 64, 101
1, 29275, Control_c, 0, 64, 99
1, 29289, Control_c, 0, 64, 99
1, 29297, Note_off_c, 0, 61, 38
1, 29319, Control_c, 0, 64, 98
1, 29364, Note_on_c, 0, 58, 35
1, 29378, Control_c, 0, 64, 98
1, 29408, Control_c, 0, 64, 97
1, 29422, Control_c, 0, 64, 97
1, 29437, Control_c, 0, 64, 96
1, 29467, Control_c, 0, 64, 96
1, 29482, Control_c, 0, 64, 95
1, 29487, Note_on_c, 0, 51, 45
1, 29496, Control_c, 0, 64, 94
1, 29500, Note_off_c, 0, 58, 37
1, 29511, Control_c, 0, 64, 93
1, 29555, Control_c, 0, 64, 93
1, 29570, Control_c, 0, 64, 92
1, 29600, Control_c, 0, 64, 92
1, 29632, Note_on_c, 0, 49, 41
1, 29666, Control_c, 0, 64, 91
1, 29681, Control_c, 0, 64, 91
1, 29683, Note_off_c, 0, 51, 35
1, 29696, Control_c, 0, 64, 90
1, 29711, Control_c, 0, 64, 90
1, 29726, Control_c, 0, 64, 89
1, 29755, Control_c, 0, 64, 89
1, 29770, Control_c, 0, 64, 88
1, 29785, Control_c, 0, 64, 88
1, 29800, Control_c, 0, 64, 87
1, 29814, Control_c, 0, 64, 87
1, 29829, Control_c, 0, 64, 86
1, 29844, Control_c, 0, 64, 85
1, 29859, Control_c, 0, 64, 84
1, 29860, Note_off_c, 0, 49, 33
1, 29873, Control_c, 0, 64, 82
1, 29874, Note_on_c, 0, 44, 46
1, 29888, Control_c, 0, 64, 79
1, 29892, Note_on_c, 0, 68, 58
1, 29903, Control_c, 0, 64, 76
1, 29918, Control_c, 0, 64, 71
1, 29933, Control_c, 0, 64, 66
1, 29949, Control_c, 0, 64, 61
1, 29964, Control_c, 0, 64, 54
1, 29978, Control_c, 0, 64, 49
1, 29993, Control_c, 0, 64, 46
1, 30023, Control_c, 0, 64, 47
1, 30038, Control_c, 0, 64, 53
1, 30052, Control_c, 0, 64, 60
1, 30067, Control_c, 0, 64, 66
1, 30082, Control_c, 0, 64, 70
1, 30097, Control_c, 0, 64, 74
1, 30111, Control_c, 0, 64, 76
1, 30115, Note_off_c, 0, 44, 56
1, 30126, Control_c, 0, 64, 78
1, 30141, Control_c, 0, 64, 79
1, 30144, Note_on_c, 0, 53, 49
1, 30156, Control_c, 0, 64, 82
1, 30170, Control_c, 0, 64, 84
1, 30185, Control_c, 0, 64, 86
1, 30200, Control_c, 0, 64, 89
1, 30215, Control_c, 0, 64, 92
1, 30230, Control_c, 0, 64, 95
1, 30244, Control_c, 0, 64, 99
1, 30259, Control_c, 0, 64, 103
1, 30274, Control_c, 0, 64, 105
1, 30288, Control_c, 0, 64, 106
1, 30299, Note_on_c, 0, 56, 36
1, 30303, Control_c, 0, 64, 107
1, 30333, Control_c, 0, 64, 107
1, 30350, Note_off_c, 0, 56, 44
1, 30351, Note_on_c, 0, 61, 43
1, 30393, Note_off_c, 0, 61, 46
1, 30468, Note_on_c, 0, 61, 42
1, 30517, Note_off_c, 0, 68, 40
1, 30543, Note_on_c, 0, 65, 43
1, 30622, Control_c, 0, 64, 107
1, 30659, Note_off_c, 0, 61, 34
1, 30687, Note_on_c, 0, 67, 65
1, 30726, Note_off_c, 0, 65, 35
1, 30771, Control_c, 0, 64, 106
1, 30821, Note_off_c, 0, 67, 48
1, 30839, Note_on_c, 0, 65, 49
1, 30861, Control_c, 0, 64, 106
1, 30894, Note_off_c, 0, 65, 57
1, 30905, Control_c, 0, 64, 105
1, 30916, Note_on_c, 0, 61, 43
1, 30934, Control_c, 0, 64, 105
1, 30967, Note_off_c, 0, 61, 0
1, 30979, Control_c, 0, 64, 104
1, 30987, Note_on_c, 0, 61, 23
1, 30993, Control_c, 0, 64, 104
1, 31008, Control_c, 0, 64, 103
1, 31023, Control_c, 0, 64, 103
1, 31115, Note_on_c, 0, 56, 47
1, 31117, Note_off_c, 0, 61, 38
1, 31156, Control_c, 0, 64, 102
1, 31193, Note_off_c, 0, 53, 32
1, 31260, Note_on_c, 0, 68, 58
1, 31363, Note_on_c, 0, 53, 35
1, 31394, Note_off_c, 0, 68, 35
1, 31404, Note_off_c, 0, 56, 36
1, 31415, Control_c, 0, 64, 102
1, 31439, Note_on_c, 0, 68, 43
1, 31549, Control_c, 0, 64, 101
1, 31579, Control_c, 0, 64, 101
1, 31609, Control_c, 0, 64, 100
1, 31624, Control_c, 0, 64, 100
1, 31654, Control_c, 0, 64, 99
1, 31675, Note_off_c, 0, 53, 28
1, 31683, Control_c, 0, 64, 99
1, 31698, Control_c, 0, 64, 98
1, 31713, Control_c, 0, 64, 98
1, 31728, Control_c, 0, 64, 97
1, 31742, Control_c, 0, 64, 97
1, 31757, Control_c, 0, 64, 96
1, 31772, Control_c, 0, 64, 95
1, 31793, Note_on_c, 0, 44, 37
1, 31802, Control_c, 0, 64, 95
1, 31816, Control_c, 0, 64, 94
1, 31831, Control_c, 0, 64, 93
1, 31846, Control_c, 0, 64, 92
1, 31860, Note_on_c, 0, 77, 65
1, 31860, Control_c, 0, 64, 90
1, 31875, Control_c, 0, 64, 88
1, 31890, Control_c, 0, 64, 86
1, 31904, Note_off_c, 0, 68, 36
1, 31905, Control_c, 0, 64, 81
1, 31928, Control_c, 0, 64, 73
1, 31943, Control_c, 0, 64, 64
1, 31957, Control_c, 0, 64, 56
1, 31972, Control_c, 0, 64, 52
1, 31987, Control_c, 0, 64, 51
1, 32031, Control_c, 0, 64, 54
1, 32046, Control_c, 0, 64, 60
1, 32060, Control_c, 0, 64, 65
1, 32074, Control_c, 0, 64, 70
1, 32089, Control_c, 0, 64, 75
1, 32104, Control_c, 0, 64, 79
1, 32119, Control_c, 0, 64, 82
1, 32133, Control_c, 0, 64, 84
1, 32148, Control_c, 0, 64, 86
1, 32153, Note_off_c, 0, 77, 55
1, 32163, Control_c, 0, 64, 89
1, 32178, Control_c, 0, 64, 92
1, 32184, Note_off_c, 0, 44, 51
1, 32193, Control_c, 0, 64, 95
1, 32198, Note_on_c, 0, 54, 38
1, 32207, Control_c, 0, 64, 98
1, 32222, Control_c, 0, 64, 99
1, 32237, Control_c, 0, 64, 99
1, 32252, Control_c, 0, 64, 100
1, 32300, Note_off_c, 0, 54, 35
1, 32330, Note_on_c, 0, 56, 42
1, 32342, Control_c, 0, 64, 100
1, 32386, Control_c, 0, 64, 101
1, 32413, Note_on_c, 0, 60, 37
1, 32416, Control_c, 0, 64, 102
1, 32430, Control_c, 0, 64, 103
1, 32445, Control_c, 0, 64, 105
1, 32460, Control_c, 0, 64, 105
1, 32461, Note_off_c, 0, 56, 31
1, 32475, Control_c, 0, 64, 106
1, 32480, Note_off_c, 0, 60, 0
1, 32489, Control_c, 0, 64, 106
1, 32491, Note_on_c, 0, 60, 39
1, 32519, Control_c, 0, 64, 107
1, 32643, Note_on_c, 0, 66, 39
1, 32801, Note_on_c, 0, 68, 54
1, 32808, Control_c, 0, 64, 107
1, 32824, Control_c, 0, 64, 108
1, 32838, Control_c, 0, 64, 108
1, 32853, Control_c, 0, 64, 110
1, 32868, Control_c, 0, 64, 111
1, 32883, Control_c, 0, 64, 112
1, 32897, Control_c, 0, 64, 113
1, 32956, Note_off_c, 0, 68, 36
1, 32957, Control_c, 0, 64, 113
1, 33079, Note_on_c, 0, 77, 57
1, 33120, Control_c, 0, 64, 114
1, 33192, Note_off_c, 0, 77, 53
1, 33275, Note_on_c, 0, 68, 39
1, 33280, Note_off_c, 0, 66, 37
1, 33441, Note_on_c, 0, 66, 43
1, 33475, Note_off_c, 0, 60, 31
1, 33518, Note_off_c, 0, 68, 25
1, 33572, Note_on_c, 0, 60, 33
1, 33591, Note_off_c, 0, 66, 27
1, 33700, Note_off_c, 0, 60, 35
1, 33793, Note_on_c, 0, 60, 24
1, 33928, Control_c, 0, 64, 113
1, 33958, Control_c, 0, 64, 113
1, 33984, Note_on_c, 0, 56, 36
1, 34107, Control_c, 0, 64, 112
1, 34262, Control_c, 0, 64, 112
1, 34303, Note_on_c, 0, 54, 32
1, 34322, Control_c, 0, 64, 111
1, 34400, Note_off_c, 0, 56, 37
1, 34473, Note_off_c, 0, 60, 35
1, 34499, Control_c, 0, 64, 111
1, 34511, Note_off_c, 0, 54, 39
1, 34543, Control_c, 0, 64, 110
1, 34617, Control_c, 0, 64, 110
1, 34676, Control_c, 0, 64, 109
1, 34721, Control_c, 0, 64, 108
1, 34840, Control_c, 0, 64, 108
1, 34852, Note_on_c, 0, 75, 54
1, 35011, Control_c, 0, 64, 107
1, 35055, Control_c, 0, 64, 107
1, 35085, Control_c, 0, 64, 106
1, 35100, Control_c, 0, 64, 106
1, 35129, Control_c, 0, 64, 105
1, 35144, Control_c, 0, 64, 105
1, 35159, Control_c, 0, 64, 104
1, 35174, Control_c, 0, 64, 103
1, 35189, Control_c, 0, 64, 100
1, 35192, Note_on_c, 0, 73, 51
1, 35204, Control_c, 0, 64, 97
1, 35213, Note_on_c, 0, 37, 41
1, 35219, Control_c, 0, 64, 92
1, 35233, Control_c, 0, 64, 87
1, 35237, Note_off_c, 0, 75, 39
1, 35248, Control_c, 0, 64, 81
1, 35263, Control_c, 0, 64, 72
1, 35277, Control_c, 0, 64, 65
1, 35292, Control_c, 0, 64, 60
1, 35307, Control_c, 0, 64, 57
1, 35381, Control_c, 0, 64, 59
1, 35396, Control_c, 0, 64, 64
1, 35410, Control_c, 0, 64, 68
1, 35425, Control_c, 0, 64, 72
1, 35440, Control_c, 0, 64, 78
1, 35455, Control_c, 0, 64, 83
1, 35470, Control_c, 0, 64, 86
1, 35484, Control_c, 0, 64, 87
1, 35496, Note_off_c, 0, 73, 55
1, 35499, Control_c, 0, 64, 89
1, 35514, Control_c, 0, 64, 91
1, 35530, Control_c, 0, 64, 94
1, 35545, Control_c, 0, 64, 97
1, 35560, Control_c, 0, 64, 100
1, 35565, Note_off_c, 0, 37, 40
1, 35575, Control_c, 0, 64, 103
1, 35576, Note_on_c, 0, 44, 37
1, 35589, Control_c, 0, 64, 105
1, 35604, Control_c, 0, 64, 107
1, 35619, Control_c, 0, 64, 108
1, 35634, Control_c, 0, 64, 109
1, 35646, Note_off_c, 0, 44, 42
1, 35671, Control_c, 0, 64, 109
1, 35686, Control_c, 0, 64, 110
1, 35758, Note_on_c, 0, 49, 33
1, 35863, Note_on_c, 0, 53, 27
1, 35885, Note_off_c, 0, 49, 0
1, 35922, Poly_aftertouch_c, 0, 49, 127
1, 35966, Note_on_c, 0, 56, 35
1, 36059, Note_on_c, 0, 61, 14
1, 36071, Poly_aftertouch_c, 0, 49, 0
1, 36076, Note_off_c, 0, 53, 36
1, 36107, Note_off_c, 0, 61, 49
1, 36110, Note_on_c, 0, 65, 37
1, 36174, Note_off_c, 0, 56, 37
1, 36185, Note_off_c, 0, 65, 0
1, 36222, Poly_aftertouch_c, 0, 65, 127
1, 36241, Note_on_c, 0, 61, 32
1, 36248, Note_on_c, 0, 68, 13
1, 36321, Note_on_c, 0, 56, 30
1, 36399, Control_c, 0, 64, 109
1, 36414, Note_on_c, 0, 53, 32
1, 36420, Control_c, 0, 64, 109
1, 36433, Note_off_c, 0, 56, 0
1, 36450, Control_c, 0, 64, 108
1, 36465, Control_c, 0, 64, 107
1, 36470, Poly_aftertouch_c, 0, 56, 127
1, 36480, Control_c, 0, 64, 106
1, 36495, Control_c, 0, 64, 105
1, 36508, Note_off_c, 0, 53, 37
1, 36518, Note_on_c, 0, 49, 34
1, 36524, Control_c, 0, 64, 105
1, 36551, Note_off_c, 0, 49, 53
1, 36554, Control_c, 0, 64, 104
1, 36568, Control_c, 0, 64, 104
1, 36583, Control_c, 0, 64, 103
1, 36598, Control_c, 0, 64, 103
1, 36612, Control_c, 0, 64, 102
1, 36622, Poly_aftertouch_c, 0, 56, 0
1, 36627, Note_on_c, 0, 44, 33
1, 36627, Control_c, 0, 64, 102
1, 36642, Control_c, 0, 64, 100
1, 36656, Control_c, 0, 64, 99
1, 36671, Control_c, 0, 64, 97
1, 36680, Note_off_c, 0, 44, 43
1, 36686, Control_c, 0, 64, 96
1, 36701, Control_c, 0, 64, 96
1, 36716, Control_c, 0, 64, 95
1, 36718, Note_off_c, 0, 61, 28
1, 36730, Control_c, 0, 64, 94
1, 36757, Note_on_c, 0, 37, 36
1, 36829, Poly_aftertouch_c, 0, 65, 0
1, 36912, Note_off_c, 0, 37, 34
1, 36917, Note_on_c, 0, 44, 33
1, 36997, Note_off_c, 0, 68, 27
1, 37008, Note_off_c, 0, 44, 36
1, 37012, Control_c, 0, 64, 94
1, 37037, Note_on_c, 0, 49, 34
1, 37056, Control_c, 0, 64, 93
1, 37056, Control_c, 0, 67, 18
1, 37071, Control_c, 0, 67, 21
1, 37077, Note_on_c, 0, 53, 40
1, 37086, Control_c, 0, 64, 93
1, 37086, Control_c, 0, 67, 23
1, 37101, Control_c, 0, 67, 25
1, 37105, Note_off_c, 0, 49, 37
1, 37116, Control_c, 0, 64, 92
1, 37159, Note_on_c, 0, 56, 29
1, 37168, Control_c, 0, 67, 25
1, 37197, Note_off_c, 0, 53, 30
1, 37204, Note_on_c, 0, 61, 29
1, 37228, Control_c, 0, 67, 25
1, 37238, Note_on_c, 0, 65, 25
1, 37243, Control_c, 0, 67, 24
1, 37251, Note_off_c, 0, 61, 44
1, 37258, Control_c, 0, 67, 22
1, 37273, Control_c, 0, 67, 21
1, 37287, Control_c, 0, 67, 20
1, 37302, Control_c, 0, 67, 20
1, 37317, Control_c, 0, 67, 19
1, 37332, Control_c, 0, 67, 18
1, 37337, Note_off_c, 0, 56, 37
1, 37347, Control_c, 0, 67, 17
1, 37355, Note_on_c, 0, 68, 19
1, 37361, Control_c, 0, 67, 17
1, 37392, Note_on_c, 0, 61, 30
1, 37449, Note_on_c, 0, 56, 28
1, 37467, Note_off_c, 0, 61, 0
1, 37504, Poly_aftertouch_c, 0, 61, 127
1, 37509, Control_c, 0, 64, 92
1, 37539, Control_c, 0, 64, 91
1, 37553, Control_c, 0, 64, 91
1, 37564, Note_on_c, 0, 53, 35
1, 37568, Control_c, 0, 67, 17
1, 37583, Control_c, 0, 64, 90
1, 37598, Control_c, 0, 67, 18
1, 37613, Control_c, 0, 64, 90
1, 37624, Note_off_c, 0, 53, 43
1, 37627, Control_c, 0, 64, 89
1, 37627, Control_c, 0, 67, 18
1, 37657, Control_c, 0, 67, 19
1, 37672, Control_c, 0, 67, 19
1, 37677, Note_on_c, 0, 49, 27
1, 37687, Control_c, 0, 67, 20
1, 37702, Control_c, 0, 67, 20
1, 37714, Note_off_c, 0, 49, 50
1, 37732, Control_c, 0, 67, 21
1, 37784, Note_on_c, 0, 44, 35
1, 37805, Control_c, 0, 64, 89
1, 37805, Control_c, 0, 67, 21
1, 37835, Control_c, 0, 64, 88
1, 37835, Control_c, 0, 67, 22
1, 37850, Control_c, 0, 64, 86
1, 37865, Control_c, 0, 64, 84
1, 37865, Control_c, 0, 67, 22
1, 37870, Note_off_c, 0, 44, 33
1, 37880, Control_c, 0, 64, 81
1, 37902, Control_c, 0, 64, 80
1, 37902, Control_c, 0, 67, 23
1, 37917, Control_c, 0, 64, 79
1, 37928, Poly_aftertouch_c, 0, 61, 0
1, 37933, Control_c, 0, 64, 80
1, 37933, Control_c, 0, 67, 23
1, 37948, Control_c, 0, 64, 81
1, 37948, Control_c, 0, 67, 24
1, 37958, Note_on_c, 0, 37, 27
1, 37963, Control_c, 0, 64, 82
1, 37963, Control_c, 0, 67, 24
1, 37977, Control_c, 0, 64, 83
1, 37977, Control_c, 0, 67, 25
1, 37992, Control_c, 0, 64, 85
1, 37992, Control_c, 0, 67, 25
1, 38007, Control_c, 0, 64, 87
1, 38007, Control_c, 0, 67, 26
1, 38022, Control_c, 0, 64, 88
1, 38022, Control_c, 0, 67, 26
1, 38036, Control_c, 0, 64, 88
1, 38051, Control_c, 0, 64, 89
1, 38051, Control_c, 0, 67, 27
1, 38066, Control_c, 0, 64, 90
1, 38066, Control_c, 0, 67, 30
1, 38069, Note_off_c, 0, 65, 38
1, 38073, Note_off_c, 0, 68, 39
1, 38081, Control_c, 0, 64, 91
1, 38081, Control_c, 0, 67, 32
1, 38096, Control_c, 0, 64, 92
1, 38096, Control_c, 0, 67, 33
1, 38101, Note_off_c, 0, 37, 49
1, 38110, Control_c, 0, 64, 92
1, 38110, Control_c, 0, 67, 34
1, 38125, Control_c, 0, 64, 93
1, 38125, Control_c, 0, 67, 35
1, 38138, Note_off_c, 0, 56, 37
1, 38145, Note_on_c, 0, 44, 22
1, 38155, Control_c, 0, 64, 93
1, 38200, Note_off_c, 0, 44, 43
1, 38215, Control_c, 0, 67, 35
1, 38238, Note_on_c, 0, 49, 31
1, 38259, Control_c, 0, 67, 34
1, 38275, Note_on_c, 0, 53, 38
1, 38286, Note_off_c, 0, 49, 46
1, 38289, Control_c, 0, 67, 34
1, 38303, Control_c, 0, 64, 94
1, 38316, Note_off_c, 0, 53, 48
1, 38318, Control_c, 0, 64, 94
1, 38333, Control_c, 0, 64, 95
1, 38348, Note_on_c, 0, 56, 36
1, 38348, Control_c, 0, 64, 95
1, 38363, Control_c, 0, 67, 33
1, 38406, Note_on_c, 0, 61, 34
1, 38459, Note_on_c, 0, 65, 38
1, 38555, Control_c, 0, 67, 33
1, 38570, Control_c, 0, 67, 32
1, 38584, Note_off_c, 0, 65, 26
1, 38584, Control_c, 0, 67, 32
1, 38597, Note_on_c, 0, 68, 64
1, 38599, Control_c, 0, 67, 31
1, 38614, Control_c, 0, 67, 31
1, 38629, Control_c, 0, 67, 29
1, 38644, Control_c, 0, 67, 28
1, 38657, Note_off_c, 0, 68, 60
1, 38666, Control_c, 0, 67, 27
1, 38710, Control_c, 0, 67, 27
1, 38741, Control_c, 0, 67, 26
1, 38814, Note_on_c, 0, 80, 61
1, 38817, Note_off_c, 0, 56, 9
1, 38839, Note_off_c, 0, 80, 61
1, 38846, Control_c, 0, 67, 27
1, 38875, Note_on_c, 0, 65, 40
1, 38907, Note_off_c, 0, 61, 0
1, 38934, Control_c, 0, 67, 26
1, 38940, Note_off_c, 0, 65, 39
1, 38944, Poly_aftertouch_c, 0, 61, 127
1, 38949, Control_c, 0, 67, 25
1, 38964, Control_c, 0, 67, 24
1, 38978, Note_on_c, 0, 56, 50
1, 38979, Control_c, 0, 67, 24
1, 38994, Control_c, 0, 67, 23
1, 39008, Control_c, 0, 67, 22
1, 39020, Note_off_c, 0, 56, 62
1, 39023, Control_c, 0, 67, 21
1, 39038, Control_c, 0, 67, 19
1, 39046, Poly_aftertouch_c, 0, 61, 0
1, 39052, Control_c, 0, 64, 95
1, 39052, Control_c, 0, 67, 17
1, 39067, Control_c, 0, 64, 94
1, 39067, Control_c, 0, 67, 16
1, 39070, Note_on_c, 0, 53, 41
1, 39107, Note_off_c, 0, 53, 51
1, 39134, Note_on_c, 0, 49, 37
1, 39157, Control_c, 0, 64, 94
1, 39169, Note_off_c, 0, 49, 50
1, 39186, Note_on_c, 0, 44, 47
1, 39231, Control_c, 0, 64, 93
1, 39246, Control_c, 0, 64, 93
1, 39260, Control_c, 0, 64, 91
1, 39275, Control_c, 0, 64, 84
1, 39290, Control_c, 0, 64, 75
1, 39292, Note_on_c, 0, 70, 72
1, 39305, Control_c, 0, 64, 66
1, 39305, Control_c, 0, 67, 16
1, 39308, Note_off_c, 0, 44, 35
1, 39312, Note_on_c, 0, 37, 51
1, 39320, Control_c, 0, 64, 58
1, 39334, Control_c, 0, 64, 55
1, 39349, Control_c, 0, 67, 17
1, 39364, Control_c, 0, 64, 56
1, 39378, Control_c, 0, 64, 62
1, 39393, Control_c, 0, 64, 67
1, 39416, Control_c, 0, 64, 73
1, 39416, Control_c, 0, 67, 17
1, 39429, Note_off_c, 0, 37, 58
1, 39431, Note_on_c, 0, 44, 51
1, 39431, Control_c, 0, 64, 81
1, 39446, Control_c, 0, 64, 88
1, 39460, Control_c, 0, 64, 90
1, 39475, Control_c, 0, 64, 90
1, 39490, Control_c, 0, 64, 91
1, 39495, Note_on_c, 0, 82, 60
1, 39505, Control_c, 0, 64, 91
1, 39511, Note_off_c, 0, 70, 35
1, 39515, Note_off_c, 0, 82, 64
1, 39517, Note_off_c, 0, 44, 56
1, 39520, Control_c, 0, 64, 92
1, 39535, Note_on_c, 0, 49, 45
1, 39565, Control_c, 0, 64, 92
1, 39572, Note_on_c, 0, 53, 53
1, 39590, Note_off_c, 0, 49, 55
1, 39611, Note_off_c, 0, 53, 49
1, 39657, Note_on_c, 0, 56, 60
1, 39728, Control_c, 0, 67, 18
1, 39729, Note_on_c, 0, 61, 53
1, 39747, Note_off_c, 0, 56, 0
1, 39772, Control_c, 0, 67, 18
1, 39790, Poly_aftertouch_c, 0, 56, 0
1, 39792, Note_on_c, 0, 65, 49
1, 39869, Note_on_c, 0, 73, 81
1, 39899, Note_off_c, 0, 65, 50
1, 39924, Note_off_c, 0, 73, 60
1, 39942, Note_off_c, 0, 61, 22
1, 40074, Note_on_c, 0, 85, 68
1, 40096, Note_off_c, 0, 85, 70
1, 40105, Note_on_c, 0, 65, 49
1, 40113, Control_c, 0, 64, 93
1, 40149, Control_c, 0, 64, 93
1, 40179, Note_on_c, 0, 61, 25
1, 40226, Note_off_c, 0, 65, 35
1, 40233, Note_on_c, 0, 56, 50
1, 40260, Note_off_c, 0, 56, 61
1, 40293, Note_off_c, 0, 61, 49
1, 40312, Note_on_c, 0, 53, 59
1, 40312, Control_c, 0, 64, 93
1, 40328, Control_c, 0, 64, 92
1, 40350, Note_off_c, 0, 53, 56
1, 40387, Control_c, 0, 67, 19
1, 40403, Note_on_c, 0, 49, 37
1, 40417, Control_c, 0, 67, 19
1, 40436, Note_off_c, 0, 49, 50
1, 40444, Note_on_c, 0, 44, 56
1, 40491, Control_c, 0, 64, 92
1, 40504, Note_off_c, 0, 44, 53
1, 40505, Control_c, 0, 64, 86
1, 40505, Control_c, 0, 67, 20
1, 40517, Note_on_c, 0, 75, 87
1, 40520, Control_c, 0, 64, 75
1, 40535, Control_c, 0, 64, 63
1, 40535, Control_c, 0, 67, 20
1, 40538, Note_on_c, 0, 37, 60
1, 40550, Control_c, 0, 64, 50
1, 40565, Control_c, 0, 64, 46
1, 40579, Control_c, 0, 64, 46
1, 40594, Control_c, 0, 64, 55
1, 40609, Control_c, 0, 64, 64
1, 40623, Control_c, 0, 64, 71
1, 40638, Control_c, 0, 64, 77
1, 40643, Note_off_c, 0, 37, 59
1, 40653, Control_c, 0, 64, 83
1, 40668, Control_c, 0, 64, 85
1, 40671, Note_on_c, 0, 46, 52
1, 40683, Control_c, 0, 64, 86
1, 40698, Control_c, 0, 64, 88
1, 40713, Control_c, 0, 64, 89
1, 40728, Control_c, 0, 64, 89
1, 40729, Note_off_c, 0, 75, 41
1, 40741, Note_on_c, 0, 87, 50
1, 40742, Control_c, 0, 64, 90
1, 40742, Control_c, 0, 67, 20
1, 40762, Note_off_c, 0, 87, 60
1, 40767, Note_on_c, 0, 49, 51
1, 40772, Control_c, 0, 64, 90
1, 40784, Note_off_c, 0, 46, 0
1, 40816, Control_c, 0, 67, 20
1, 40819, Note_on_c, 0, 54, 47
1, 40832, Poly_aftertouch_c, 0, 46, 0
1, 40838, Note_off_c, 0, 49, 56
1, 40847, Note_off_c, 0, 54, 57
1, 40911, Note_on_c, 0, 58, 57
1, 40942, Control_c, 0, 67, 21
1, 40957, Note_on_c, 0, 61, 50
1, 40976, Note_off_c, 0, 58, 49
1, 41046, Control_c, 0, 67, 20
1, 41055, Note_on_c, 0, 66, 49
1, 41090, Note_off_c, 0, 61, 40
1, 41134, Note_on_c, 0, 77, 77
1, 41156, Note_off_c, 0, 66, 35
1, 41181, Control_c, 0, 67, 20
1, 41191, Note_off_c, 0, 77, 60
1, 41254, Control_c, 0, 64, 91
1, 41284, Control_c, 0, 64, 91
1, 41299, Control_c, 0, 64, 92
1, 41314, Control_c, 0, 67, 20
1, 41342, Note_on_c, 0, 89, 67
1, 41343, Control_c, 0, 64, 92
1, 41358, Control_c, 0, 64, 93
1, 41368, Note_off_c, 0, 89, 63
1, 41372, Control_c, 0, 64, 93
1, 41377, Note_on_c, 0, 66, 45
1, 41387, Control_c, 0, 64, 94
1, 41402, Control_c, 0, 64, 95
1, 41417, Control_c, 0, 64, 96
1, 41432, Control_c, 0, 64, 96
1, 41432, Control_c, 0, 67, 20
1, 41446, Control_c, 0, 67, 19
1, 41457, Note_off_c, 0, 66, 37
1, 41461, Control_c, 0, 67, 18
1, 41473, Note_on_c, 0, 61, 41
1, 41476, Control_c, 0, 67, 18
1, 41491, Control_c, 0, 67, 17
1, 41522, Note_off_c, 0, 61, 42
1, 41529, Note_on_c, 0, 58, 50
1, 41553, Note_off_c, 0, 58, 57
1, 41595, Control_c, 0, 67, 18
1, 41610, Control_c, 0, 67, 18
1, 41628, Note_on_c, 0, 54, 25
1, 41650, Note_on_c, 0, 49, 21
1, 41674, Note_off_c, 0, 54, 54
1, 41696, Note_off_c, 0, 49, 53
1, 41720, Control_c, 0, 67, 19
1, 41733, Note_on_c, 0, 46, 30
1, 41765, Control_c, 0, 64, 96
1, 41777, Note_off_c, 0, 46, 46
1, 41780, Control_c, 0, 64, 95
1, 41795, Control_c, 0, 64, 95
1, 41810, Control_c, 0, 64, 93
1, 41810, Control_c, 0, 67, 19
1, 41825, Control_c, 0, 64, 89
1, 41825, Control_c, 0, 67, 20
1, 41830, Note_on_c, 0, 75, 70
1, 41839, Control_c, 0, 64, 79
1, 41839, Control_c, 0, 67, 20
1, 41850, Note_on_c, 0, 37, 51
1, 41854, Control_c, 0, 64, 68
1, 41869, Control_c, 0, 64, 58
1, 41884, Control_c, 0, 64, 49
1, 41899, Control_c, 0, 64, 49
1, 41914, Control_c, 0, 64, 50
1, 41929, Control_c, 0, 64, 58
1, 41944, Control_c, 0, 64, 64
1, 41952, Note_off_c, 0, 37, 59
1, 41959, Control_c, 0, 64, 70
1, 41974, Control_c, 0, 64, 76
1, 41985, Note_on_c, 0, 46, 29
1, 41988, Control_c, 0, 64, 82
1, 42003, Control_c, 0, 64, 85
1, 42018, Control_c, 0, 64, 86
1, 42021, Note_off_c, 0, 75, 53
1, 42033, Control_c, 0, 64, 87
1, 42036, Note_on_c, 0, 87, 56
1, 42048, Control_c, 0, 64, 88
1, 42057, Note_off_c, 0, 87, 64
1, 42063, Control_c, 0, 64, 89
1, 42066, Note_off_c, 0, 46, 38
1, 42077, Control_c, 0, 64, 89
1, 42084, Note_on_c, 0, 49, 45
1, 42122, Control_c, 0, 64, 90
1, 42126, Note_on_c, 0, 54, 51
1, 42126, Note_off_c, 0, 49, 63
1, 42157, Note_off_c, 0, 54, 53
1, 42226, Note_on_c, 0, 58, 50
1, 42295, Note_off_c, 0, 58, 44
1, 42298, Note_on_c, 0, 61, 34
1, 42358, Control_c, 0, 67, 20
1, 42388, Control_c, 0, 67, 19
1, 42390, Note_on_c, 0, 66, 41
1, 42428, Note_off_c, 0, 61, 41
1, 42461, Note_off_c, 0, 66, 38
1, 42475, Note_on_c, 0, 70, 58
1, 42514, Control_c, 0, 67, 19
1, 42565, Note_off_c, 0, 70, 35
1, 42707, Note_on_c, 0, 82, 55
1, 42740, Note_off_c, 0, 82, 50
1, 42752, Note_on_c, 0, 66, 32
1, 42767, Control_c, 0, 64, 90
1, 42782, Control_c, 0, 67, 18
1, 42793, Note_off_c, 0, 66, 45
1, 42812, Control_c, 0, 67, 18
1, 42826, Control_c, 0, 67, 17
1, 42859, Note_on_c, 0, 61, 29
1, 42910, Note_off_c, 0, 61, 41
1, 42924, Note_on_c, 0, 58, 36
1, 42969, Note_off_c, 0, 58, 44
1, 43020, Note_on_c, 0, 54, 47
1, 43049, Control_c, 0, 67, 18
1, 43070, Note_off_c, 0, 54, 44
1, 43079, Control_c, 0, 67, 18
1, 43093, Control_c, 0, 67, 19
1, 43123, Control_c, 0, 67, 19
1, 43130, Note_on_c, 0, 49, 37
1, 43160, Control_c, 0, 67, 20
1, 43175, Note_off_c, 0, 49, 53
1, 43190, Control_c, 0, 67, 20
1, 43205, Control_c, 0, 67, 21
1, 43223, Note_on_c, 0, 46, 41
1, 43264, Control_c, 0, 67, 21
1, 43302, Note_off_c, 0, 46, 40
1, 43323, Control_c, 0, 64, 90
1, 43338, Control_c, 0, 67, 22
1, 43352, Control_c, 0, 64, 89
1, 43366, Note_on_c, 0, 73, 63
1, 43367, Control_c, 0, 64, 87
1, 43367, Control_c, 0, 67, 22
1, 43379, Note_on_c, 0, 37, 40
1, 43382, Control_c, 0, 64, 83
1, 43382, Control_c, 0, 67, 23
1, 43397, Control_c, 0, 64, 76
1, 43412, Control_c, 0, 64, 66
1, 43412, Control_c, 0, 67, 23
1, 43426, Control_c, 0, 64, 58
1, 43426, Control_c, 0, 67, 24
1, 43441, Control_c, 0, 64, 50
1, 43456, Control_c, 0, 64, 45
1, 43471, Control_c, 0, 67, 24
1, 43486, Control_c, 0, 67, 25
1, 43500, Control_c, 0, 64, 51
1, 43500, Control_c, 0, 67, 25
1, 43516, Control_c, 0, 64, 60
1, 43531, Control_c, 0, 64, 66
1, 43531, Control_c, 0, 67, 26
1, 43546, Control_c, 0, 64, 71
1, 43546, Control_c, 0, 67, 26
1, 43550, Note_off_c, 0, 37, 56
1, 43561, Control_c, 0, 64, 77
1, 43566, Note_on_c, 0, 44, 42
1, 43575, Control_c, 0, 64, 81
1, 43575, Control_c, 0, 67, 27
1, 43590, Control_c, 0, 64, 83
1, 43605, Control_c, 0, 64, 86
1, 43617, Note_off_c, 0, 73, 57
1, 43620, Control_c, 0, 64, 91
1, 43620, Control_c, 0, 67, 27
1, 43630, Note_on_c, 0, 85, 59
1, 43635, Control_c, 0, 64, 96
1, 43637, Note_off_c, 0, 44, 57
1, 43649, Note_off_c, 0, 85, 64
1, 43649, Control_c, 0, 64, 101
1, 43664, Control_c, 0, 64, 105
1, 43679, Control_c, 0, 64, 106
1, 43729, Note_on_c, 0, 49, 30
1, 43780, Note_on_c, 0, 53, 41
1, 43798, Control_c, 0, 67, 28
1, 43817, Note_off_c, 0, 49, 32
1, 43828, Control_c, 0, 67, 28
1, 43842, Control_c, 0, 67, 29
1, 43857, Control_c, 0, 67, 30
1, 43872, Control_c, 0, 67, 32
1, 43887, Control_c, 0, 67, 35
1, 43909, Control_c, 0, 67, 37
1, 43912, Note_on_c, 0, 56, 39
1, 43923, Control_c, 0, 67, 38
1, 43938, Control_c, 0, 67, 39
1, 43953, Control_c, 0, 67, 39
1, 43963, Note_off_c, 0, 53, 21
1, 43991, Note_on_c, 0, 61, 34
1, 44013, Control_c, 0, 67, 40
1, 44027, Control_c, 0, 67, 40
1, 44031, Note_off_c, 0, 61, 47
1, 44042, Control_c, 0, 67, 41
1, 44054, Note_on_c, 0, 65, 37
1, 44057, Control_c, 0, 67, 42
1, 44072, Control_c, 0, 67, 43
1, 44087, Control_c, 0, 67, 45
1, 44098, Note_off_c, 0, 65, 45
1, 44102, Control_c, 0, 67, 47
1, 44110, Note_off_c, 0, 56, 38
1, 44117, Control_c, 0, 67, 49
1, 44131, Control_c, 0, 67, 51
1, 44141, Note_on_c, 0, 68, 20
1, 44146, Control_c, 0, 67, 53
1, 44159, Note_on_c, 0, 65, 41
1, 44161, Control_c, 0, 67, 56
1, 44175, Control_c, 0, 67, 58
1, 44190, Note_off_c, 0, 68, 42
1, 44190, Control_c, 0, 67, 60
1, 44197, Note_on_c, 0, 61, 29
1, 44205, Control_c, 0, 67, 61
1, 44220, Control_c, 0, 67, 62
1, 44235, Control_c, 0, 67, 63
1, 44246, Note_on_c, 0, 56, 47
1, 44249, Control_c, 0, 67, 64
1, 44264, Control_c, 0, 67, 65
1, 44279, Control_c, 0, 64, 105
1, 44279, Control_c, 0, 67, 67
1, 44293, Control_c, 0, 64, 105
1, 44293, Control_c, 0, 67, 70
1, 44295, Note_off_c, 0, 56, 53
1, 44303, Note_off_c, 0, 65, 25
1, 44308, Note_on_c, 0, 53, 41
1, 44308, Control_c, 0, 67, 72
1, 44325, Control_c, 0, 67, 76
1, 44326, Note_off_c, 0, 61, 41
1, 44339, Control_c, 0, 64, 104
1, 44339, Control_c, 0, 67, 80
1, 44354, Control_c, 0, 67, 84
1, 44369, Control_c, 0, 64, 104
1, 44369, Control_c, 0, 67, 87
1, 44376, Note_off_c, 0, 53, 41
1, 44384, Control_c, 0, 67, 91
1, 44393, Note_on_c, 0, 49, 44
1, 44398, Control_c, 0, 67, 96
1, 44413, Control_c, 0, 64, 103
1, 44413, Control_c, 0, 67, 102
1, 44424, Note_off_c, 0, 49, 55
1, 44428, Control_c, 0, 67, 107
1, 44443, Control_c, 0, 67, 113
1, 44458, Control_c, 0, 67, 117
1, 44468, Note_on_c, 0, 44, 46
1, 44472, Control_c, 0, 67, 121
1, 44487, Control_c, 0, 67, 126
1, 44502, Control_c, 0, 64, 103
1, 44502, Control_c, 0, 67, 127
1, 44520, Note_off_c, 0, 44, 48
1, 44560, Note_on_c, 0, 37, 46
1, 44643, Control_c, 0, 67, 127
1, 44658, Control_c, 0, 67, 126
1, 44659, Note_off_c, 0, 37, 55
1, 44668, Note_on_c, 0, 44, 51
1, 44744, Note_off_c, 0, 44, 57
1, 44746, Control_c, 0, 67, 126
1, 44761, Control_c, 0, 67, 124
1, 44763, Note_on_c, 0, 49, 45
1, 44776, Control_c, 0, 67, 124
1, 44791, Control_c, 0, 67, 123
1, 44796, Note_on_c, 0, 53, 44
1, 44805, Control_c, 0, 67, 123
1, 44820, Control_c, 0, 67, 122
1, 44826, Note_off_c, 0, 49, 48
1, 44835, Control_c, 0, 67, 121
1, 44850, Control_c, 0, 67, 119
1, 44865, Control_c, 0, 67, 119
1, 44879, Control_c, 0, 67, 118
1, 44880, Note_on_c, 0, 56, 27
1, 44894, Control_c, 0, 67, 118
1, 44909, Control_c, 0, 67, 117
1, 44918, Note_on_c, 0, 61, 39
1, 44923, Control_c, 0, 67, 117
1, 44928, Note_off_c, 0, 53, 32
1, 44938, Control_c, 0, 67, 115
1, 44953, Control_c, 0, 67, 114
1, 44981, Note_on_c, 0, 65, 42
1, 44984, Note_off_c, 0, 61, 38
1, 45071, Control_c, 0, 64, 102
1, 45084, Note_on_c, 0, 68, 26
1, 45086, Control_c, 0, 67, 114
1, 45101, Control_c, 0, 64, 102
1, 45101, Control_c, 0, 67, 113
1, 45117, Control_c, 0, 67, 113
1, 45129, Note_on_c, 0, 61, 34
1, 45132, Control_c, 0, 64, 101
1, 45132, Control_c, 0, 67, 112
1, 45135, Note_off_c, 0, 56, 0
1, 45146, Control_c, 0, 67, 110
1, 45160, Note_on_c, 0, 56, 12
1, 45161, Control_c, 0, 64, 101
1, 45161, Control_c, 0, 67, 108
1, 45176, Control_c, 0, 67, 105
1, 45191, Control_c, 0, 67, 102
1, 45206, Control_c, 0, 67, 100
1, 45220, Control_c, 0, 67, 99
1, 45235, Control_c, 0, 64, 100
1, 45235, Control_c, 0, 67, 97
1, 45250, Control_c, 0, 67, 97
1, 45265, Control_c, 0, 67, 96
1, 45280, Control_c, 0, 67, 95
1, 45286, Note_on_c, 0, 53, 39
1, 45294, Control_c, 0, 64, 100
1, 45294, Control_c, 0, 67, 94
1, 45309, Control_c, 0, 64, 99
1, 45309, Control_c, 0, 67, 92
1, 45324, Control_c, 0, 64, 99
1, 45324, Control_c, 0, 67, 91
1, 45339, Control_c, 0, 67, 89
1, 45347, Note_off_c, 0, 53, 44
1, 45354, Control_c, 0, 67, 88
1, 45369, Control_c, 0, 67, 86
1, 45391, Control_c, 0, 67, 85
1, 45406, Control_c, 0, 67, 83
1, 45420, Control_c, 0, 67, 82
1, 45435, Control_c, 0, 67, 81
1, 45450, Control_c, 0, 67, 80
1, 45465, Control_c, 0, 67, 79
1, 45468, Note_on_c, 0, 44, 33
1, 45480, Control_c, 0, 67, 78
1, 45494, Control_c, 0, 67, 77
1, 45509, Control_c, 0, 67, 76
1, 45522, Note_off_c, 0, 61, 11
1, 45524, Control_c, 0, 67, 76
1, 45539, Control_c, 0, 67, 75
1, 45542, Note_off_c, 0, 44, 36
1, 45554, Control_c, 0, 67, 75
1, 45569, Control_c, 0, 67, 74
1, 45589, Note_on_c, 0, 37, 40
1, 45599, Control_c, 0, 67, 73
1, 45607, Note_off_c, 0, 65, 38
1, 45613, Control_c, 0, 67, 73
1, 45622, Note_off_c, 0, 68, 39
1, 45628, Note_off_c, 0, 56, 34
1, 45628, Control_c, 0, 67, 72
1, 45643, Control_c, 0, 67, 72
1, 45658, Control_c, 0, 67, 71
1, 45688, Control_c, 0, 67, 71
1, 45703, Control_c, 0, 67, 70
1, 45714, Note_off_c, 0, 37, 58
1, 45718, Control_c, 0, 67, 69
1, 45732, Control_c, 0, 67, 68
1, 45747, Note_on_c, 0, 44, 40
1, 45747, Control_c, 0, 67, 67
1, 45762, Control_c, 0, 67, 65
1, 45777, Control_c, 0, 67, 64
1, 45792, Control_c, 0, 67, 62
1, 45807, Control_c, 0, 64, 98
1, 45807, Control_c, 0, 67, 60
1, 45821, Control_c, 0, 67, 58
1, 45836, Control_c, 0, 67, 56
1, 45847, Note_on_c, 0, 49, 42
1, 45851, Control_c, 0, 67, 54
1, 45855, Note_off_c, 0, 44, 32
1, 45865, Control_c, 0, 67, 53
1, 45880, Control_c, 0, 67, 51
1, 45881, Note_on_c, 0, 53, 47
1, 45895, Note_off_c, 0, 49, 45
1, 45895, Control_c, 0, 67, 50
1, 45910, Control_c, 0, 67, 49
1, 45926, Control_c, 0, 67, 48
1, 45941, Control_c, 0, 67, 47
1, 45944, Note_off_c, 0, 53, 41
1, 45944, Note_on_c, 0, 56, 36
1, 45956, Control_c, 0, 67, 45
1, 45970, Control_c, 0, 67, 44
1, 45985, Control_c, 0, 67, 42
1, 46000, Control_c, 0, 67, 42
1, 46012, Note_on_c, 0, 61, 34
1, 46015, Control_c, 0, 67, 41
1, 46030, Control_c, 0, 67, 40
1, 46044, Control_c, 0, 67, 40
1, 46063, Note_on_c, 0, 65, 31
1, 46074, Control_c, 0, 67, 39
1, 46089, Control_c, 0, 67, 39
1, 46104, Control_c, 0, 67, 38
1, 46118, Control_c, 0, 67, 38
1, 46141, Control_c, 0, 67, 37
1, 46156, Control_c, 0, 67, 36
1, 46170, Control_c, 0, 67, 35
1, 46185, Control_c, 0, 67, 34
1, 46191, Note_on_c, 0, 68, 57
1, 46200, Control_c, 0, 67, 31
1, 46201, Note_off_c, 0, 65, 40
1, 46215, Control_c, 0, 67, 36
1, 46230, Control_c, 0, 67, 32
1, 46244, Control_c, 0, 67, 28
1, 46251, Note_off_c, 0, 68, 57
1, 46259, Control_c, 0, 67, 25
1, 46274, Control_c, 0, 67, 23
1, 46288, Control_c, 0, 67, 22
1, 46347, Control_c, 0, 64, 99
1, 46376, Control_c, 0, 64, 99
1, 46376, Control_c, 0, 67, 22
1, 46391, Control_c, 0, 64, 100
1, 46391, Control_c, 0, 67, 21
1, 46397, Note_on_c, 0, 80, 53
1, 46406, Control_c, 0, 64, 100
1, 46406, Control_c, 0, 67, 20
1, 46418, Note_off_c, 0, 80, 60
1, 46421, Control_c, 0, 67, 18
1, 46436, Control_c, 0, 64, 101
1, 46436, Control_c, 0, 67, 17
1, 46448, Note_off_c, 0, 56, 39
1, 46451, Control_c, 0, 64, 101
1, 46460, Note_on_c, 0, 65, 24
1, 46495, Control_c, 0, 67, 0
1, 46507, Note_off_c, 0, 65, 45
1, 46573, Note_on_c, 0, 56, 31
1, 46612, Note_off_c, 0, 56, 44
1, 46614, Note_off_c, 0, 61, 39
1, 46669, Note_on_c, 0, 53, 29
1, 46713, Note_off_c, 0, 53, 50
1, 46729, Note_on_c, 0, 49, 43
1, 46779, Note_off_c, 0, 49, 57
1, 46796, Note_on_c, 0, 44, 47
1, 46852, Control_c, 0, 64, 101
1, 46904, Control_c, 0, 64, 100
1, 46918, Control_c, 0, 64, 97
1, 46919, Note_on_c, 0, 70, 72
1, 46922, Note_off_c, 0, 44, 35
1, 46933, Control_c, 0, 64, 90
1, 46940, Note_on_c, 0, 37, 59
1, 46948, Control_c, 0, 64, 79
1, 46963, Control_c, 0, 64, 67
1, 46978, Control_c, 0, 64, 58
1, 46992, Control_c, 0, 64, 54
1, 47007, Control_c, 0, 64, 54
1, 47022, Control_c, 0, 64, 58
1, 47037, Control_c, 0, 64, 65
1, 47051, Control_c, 0, 64, 72
1, 47065, Note_off_c, 0, 37, 57
1, 47065, Control_c, 0, 64, 81
1, 47067, Note_on_c, 0, 44, 47
1, 47080, Control_c, 0, 64, 90
1, 47095, Control_c, 0, 64, 94
1, 47110, Control_c, 0, 64, 95
1, 47122, Note_on_c, 0, 82, 64
1, 47125, Control_c, 0, 64, 96
1, 47139, Control_c, 0, 64, 97
1, 47142, Note_off_c, 0, 70, 36
1, 47145, Note_off_c, 0, 82, 61
1, 47154, Control_c, 0, 64, 99
1, 47166, Note_on_c, 0, 49, 53
1, 47169, Control_c, 0, 64, 102
1, 47184, Control_c, 0, 64, 104
1, 47199, Control_c, 0, 64, 105
1, 47214, Control_c, 0, 64, 106
1, 47214, Note_off_c, 0, 44, 35
1, 47215, Note_on_c, 0, 53, 59
1, 47229, Control_c, 0, 64, 107
1, 47244, Control_c, 0, 64, 108
1, 47252, Note_off_c, 0, 53, 62
1, 47262, Note_off_c, 0, 49, 36
1, 47273, Control_c, 0, 64, 108
1, 47296, Note_on_c, 0, 56, 55
1, 47352, Note_on_c, 0, 61, 43
1, 47423, Note_on_c, 0, 65, 49
1, 47475, Note_off_c, 0, 56, 26
1, 47496, Note_on_c, 0, 73, 83
1, 47525, Note_off_c, 0, 65, 51
1, 47563, Note_off_c, 0, 73, 62
1, 47696, Control_c, 0, 64, 109
1, 47711, Note_on_c, 0, 85, 68
1, 47741, Note_off_c, 0, 85, 64
1, 47765, Note_on_c, 0, 65, 51
1, 47802, Note_off_c, 0, 61, 0
1, 47817, Note_on_c, 0, 61, 28
1, 47872, Note_on_c, 0, 56, 53
1, 47878, Note_off_c, 0, 65, 35
1, 47909, Note_off_c, 0, 56, 63
1, 47929, Note_off_c, 0, 61, 47
1, 47933, Control_c, 0, 64, 108
1, 47947, Control_c, 0, 64, 107
1, 47962, Control_c, 0, 64, 107
1, 47965, Note_on_c, 0, 55, 22
1, 47977, Note_on_c, 0, 53, 29
1, 47977, Control_c, 0, 64, 106
1, 47992, Control_c, 0, 64, 106
1, 48007, Control_c, 0, 64, 105
1, 48010, Note_off_c, 0, 55, 49
1, 48023, Note_off_c, 0, 53, 52
1, 48153, Note_on_c, 0, 82, 32
1, 48155, Control_c, 0, 64, 105
1, 48185, Control_c, 0, 64, 104
1, 48188, Note_off_c, 0, 82, 51
1, 48196, Note_on_c, 0, 75, 85
1, 48200, Control_c, 0, 64, 103
1, 48214, Control_c, 0, 64, 100
1, 48229, Control_c, 0, 64, 94
1, 48232, Note_on_c, 0, 37, 67
1, 48244, Control_c, 0, 64, 84
1, 48258, Control_c, 0, 64, 71
1, 48273, Control_c, 0, 64, 62
1, 48288, Control_c, 0, 64, 58
1, 48319, Control_c, 0, 64, 59
1, 48334, Control_c, 0, 64, 63
1, 48349, Control_c, 0, 64, 66
1, 48363, Control_c, 0, 64, 72
1, 48385, Control_c, 0, 64, 79
1, 48387, Note_off_c, 0, 37, 52
1, 48400, Control_c, 0, 64, 86
1, 48415, Control_c, 0, 64, 89
1, 48430, Control_c, 0, 64, 90
1, 48442, Note_on_c, 0, 87, 74
1, 48443, Note_on_c, 0, 46, 50
1, 48445, Control_c, 0, 64, 90
1, 48449, Note_off_c, 0, 75, 60
1, 48460, Control_c, 0, 64, 92
1, 48469, Note_off_c, 0, 87, 66
1, 48475, Control_c, 0, 64, 94
1, 48489, Control_c, 0, 64, 96
1, 48504, Control_c, 0, 64, 98
1, 48519, Control_c, 0, 64, 100
1, 48534, Control_c, 0, 64, 102
1, 48541, Note_on_c, 0, 49, 55
1, 48549, Control_c, 0, 64, 103
1, 48564, Control_c, 0, 64, 104
1, 48576, Note_off_c, 0, 46, 36
1, 48579, Control_c, 0, 64, 105
1, 48590, Note_on_c, 0, 54, 61
1, 48594, Control_c, 0, 64, 106
1, 48609, Control_c, 0, 64, 106
1, 48612, Note_off_c, 0, 49, 49
1, 48624, Control_c, 0, 64, 107
1, 48627, Note_off_c, 0, 54, 63
1, 48638, Control_c, 0, 64, 107
1, 48647, Note_on_c, 0, 58, 45
1, 48690, Note_on_c, 0, 61, 51
1, 48767, Note_on_c, 0, 66, 63
1, 48789, Note_off_c, 0, 58, 30
1, 48843, Note_off_c, 0, 61, 32
1, 48867, Note_on_c, 0, 77, 84
1, 48916, Note_off_c, 0, 66, 34
1, 48935, Note_off_c, 0, 77, 59
1, 48994, Control_c, 0, 64, 108
1, 49023, Control_c, 0, 64, 108
1, 49029, Poly_aftertouch_c, 0, 61, 127
1, 49038, Control_c, 0, 64, 109
1, 49053, Control_c, 0, 64, 110
1, 49068, Control_c, 0, 64, 111
1, 49082, Control_c, 0, 64, 113
1, 49089, Note_on_c, 0, 89, 65
1, 49097, Control_c, 0, 64, 114
1, 49113, Poly_aftertouch_c, 0, 61, 0
1, 49113, Control_c, 0, 64, 117
1, 49118, Note_off_c, 0, 89, 63
1, 49119, Note_on_c, 0, 66, 50
1, 49135, Control_c, 0, 64, 121
1, 49150, Control_c, 0, 64, 127
1, 49224, Note_on_c, 0, 61, 50
1, 49229, Note_off_c, 0, 66, 34
1, 49259, Note_on_c, 0, 58, 53
1, 49270, Note_off_c, 0, 61, 56
1, 49304, Note_off_c, 0, 58, 59
1, 49353, Note_on_c, 0, 54, 55
1, 49393, Note_on_c, 0, 49, 37
1, 49397, Note_off_c, 0, 54, 57
1, 49417, Control_c, 0, 64, 124
1, 49436, Note_off_c, 0, 49, 58
1, 49445, Note_on_c, 0, 46, 52
1, 49447, Control_c, 0, 64, 122
1, 49461, Control_c, 0, 64, 121
1, 49476, Control_c, 0, 64, 120
1, 49506, Control_c, 0, 64, 118
1, 49520, Control_c, 0, 64, 117
1, 49535, Control_c, 0, 64, 113
1, 49550, Control_c, 0, 64, 108
1, 49565, Control_c, 0, 64, 100
1, 49568, Note_on_c, 0, 75, 80
1, 49574, Note_off_c, 0, 46, 35
1, 49580, Control_c, 0, 64, 87
1, 49583, Note_on_c, 0, 37, 56
1, 49594, Control_c, 0, 64, 73
1, 49609, Control_c, 0, 64, 62
1, 49624, Control_c, 0, 64, 53
1, 49639, Control_c, 0, 64, 52
1, 49654, Control_c, 0, 64, 52
1, 49668, Control_c, 0, 64, 58
1, 49669, Note_off_c, 0, 37, 60
1, 49683, Control_c, 0, 64, 66
1, 49687, Note_on_c, 0, 46, 52
1, 49698, Control_c, 0, 64, 73
1, 49712, Control_c, 0, 64, 82
1, 49727, Control_c, 0, 64, 90
1, 49742, Control_c, 0, 64, 93
1, 49757, Control_c, 0, 64, 94
1, 49769, Note_off_c, 0, 75, 59
1, 49772, Control_c, 0, 64, 95
1, 49786, Note_on_c, 0, 49, 46
1, 49787, Control_c, 0, 64, 96
1, 49798, Note_on_c, 0, 87, 49
1, 49801, Control_c, 0, 64, 98
1, 49816, Control_c, 0, 64, 100
1, 49818, Note_off_c, 0, 46, 31
1, 49820, Note_off_c, 0, 87, 59
1, 49831, Control_c, 0, 64, 102
1, 49834, Note_on_c, 0, 54, 55
1, 49846, Control_c, 0, 64, 102
1, 49869, Note_off_c, 0, 49, 50
1, 49876, Note_off_c, 0, 54, 63
1, 49876, Control_c, 0, 64, 103
1, 49979, Note_on_c, 0, 58, 51
1, 50043, Note_on_c, 0, 61, 45
1, 50089, Note_off_c, 0, 58, 32
1, 50111, Note_on_c, 0, 66, 49
1, 50186, Note_on_c, 0, 70, 71
1, 50201, Note_off_c, 0, 61, 32
1, 50225, Note_off_c, 0, 66, 33
1, 50251, Note_off_c, 0, 70, 59
1, 50435, Note_on_c, 0, 66, 39
1, 50445, Note_on_c, 0, 82, 43
1, 50470, Note_off_c, 0, 82, 58
1, 50499, Note_off_c, 0, 66, 47
1, 50535, Note_on_c, 0, 61, 45
1, 50639, Note_off_c, 0, 61, 36
1, 50639, Note_on_c, 0, 58, 44
1, 50687, Note_off_c, 0, 58, 43
1, 50722, Control_c, 0, 64, 102
1, 50779, Poly_aftertouch_c, 0, 54, 127
1, 50810, Control_c, 0, 64, 102
1, 50848, Note_on_c, 0, 49, 53
1, 50907, Poly_aftertouch_c, 0, 54, 0
1, 50943, Control_c, 0, 67, 16
1, 50951, Note_off_c, 0, 49, 54
1, 50958, Control_c, 0, 67, 18
1, 50973, Control_c, 0, 67, 20
1, 50976, Note_on_c, 0, 46, 46
1, 50988, Control_c, 0, 67, 22
1, 51003, Control_c, 0, 67, 23
1, 51018, Control_c, 0, 67, 25
1, 51032, Control_c, 0, 67, 26
1, 51047, Control_c, 0, 67, 27
1, 51062, Control_c, 0, 67, 29
1, 51076, Control_c, 0, 67, 31
1, 51091, Control_c, 0, 67, 33
1, 51106, Control_c, 0, 64, 101
1, 51106, Control_c, 0, 67, 35
1, 51121, Control_c, 0, 64, 101
1, 51121, Control_c, 0, 67, 37
1, 51134, Note_off_c, 0, 46, 33
1, 51136, Control_c, 0, 64, 99
1, 51136, Control_c, 0, 67, 37
1, 51145, Note_on_c, 0, 73, 74
1, 51149, Note_on_c, 0, 37, 47
1, 51151, Control_c, 0, 64, 94
1, 51165, Control_c, 0, 64, 88
1, 51180, Control_c, 0, 64, 80
1, 51195, Control_c, 0, 64, 69
1, 51210, Control_c, 0, 64, 61
1, 51224, Control_c, 0, 64, 54
1, 51239, Control_c, 0, 64, 51
1, 51254, Control_c, 0, 64, 50
1, 51283, Control_c, 0, 64, 50
1, 51298, Control_c, 0, 64, 56
1, 51313, Control_c, 0, 64, 65
1, 51328, Control_c, 0, 64, 71
1, 51343, Note_on_c, 0, 44, 45
1, 51343, Control_c, 0, 64, 79
1, 51357, Control_c, 0, 64, 85
1, 51357, Control_c, 0, 67, 36
1, 51359, Note_off_c, 0, 37, 57
1, 51372, Control_c, 0, 64, 88
1, 51372, Control_c, 0, 67, 36
1, 51395, Control_c, 0, 64, 90
1, 51395, Control_c, 0, 67, 34
1, 51409, Control_c, 0, 64, 94
1, 51409, Control_c, 0, 67, 33
1, 51420, Note_on_c, 0, 85, 59
1, 51424, Control_c, 0, 64, 99
1, 51424, Control_c, 0, 67, 31
1, 51427, Note_off_c, 0, 73, 62
1, 51438, Note_off_c, 0, 85, 64
1, 51439, Control_c, 0, 64, 104
1, 51439, Control_c, 0, 67, 30
1, 51454, Control_c, 0, 64, 110
1, 51454, Control_c, 0, 67, 29
1, 51469, Control_c, 0, 64, 113
1, 51469, Control_c, 0, 67, 28
1, 51483, Control_c, 0, 64, 115
1, 51483, Control_c, 0, 67, 27
1, 51486, Note_on_c, 0, 49, 44
1, 51498, Control_c, 0, 64, 116
1, 51498, Control_c, 0, 67, 38
1, 51500, Note_off_c, 0, 44, 34
1, 51514, Control_c, 0, 64, 117
1, 51514, Control_c, 0, 67, 37
1, 51529, Control_c, 0, 64, 117
1, 51529, Control_c, 0, 67, 36
1, 51544, Control_c, 0, 67, 34
1, 51559, Control_c, 0, 67, 32
1, 51574, Control_c, 0, 67, 31
1, 51588, Control_c, 0, 67, 30
1, 51589, Note_on_c, 0, 53, 56
1, 51603, Control_c, 0, 67, 29
1, 51618, Control_c, 0, 67, 28
1, 51633, Control_c, 0, 67, 28
1, 51648, Control_c, 0, 67, 27
1, 51668, Note_on_c, 0, 56, 62
1, 51721, Control_c, 0, 67, 27
1, 51745, Note_on_c, 0, 61, 58
1, 51747, Note_off_c, 0, 56, 56
1, 51751, Control_c, 0, 64, 118
1, 51766, Control_c, 0, 67, 26
1, 51781, Control_c, 0, 67, 25
1, 51796, Control_c, 0, 67, 23
1, 51811, Control_c, 0, 67, 20
1, 51815, Note_on_c, 0, 65, 66
1, 51821, Note_off_c, 0, 53, 39
1, 51825, Control_c, 0, 67, 16
1, 51827, Note_off_c, 0, 61, 60
1, 51870, Control_c, 0, 67, 0
1, 51922, Note_off_c, 0, 65, 59
1, 51930, Note_on_c, 0, 73, 70
1, 51978, Note_off_c, 0, 73, 63
1, 52020, Note_on_c, 0, 65, 62
1, 52092, Control_c, 0, 64, 117
1, 52094, Note_on_c, 0, 61, 65
1, 52111, Note_off_c, 0, 65, 54
1, 52170, Note_on_c, 0, 56, 74
1, 52183, Note_off_c, 0, 49, 43
1, 52190, Note_on_c, 0, 53, 62
1, 52192, Note_off_c, 0, 61, 46
1, 52226, Note_off_c, 0, 56, 57
1, 52262, Control_c, 0, 64, 117
1, 52273, Note_off_c, 0, 53, 51
1, 52275, Note_on_c, 0, 49, 71
1, 52277, Control_c, 0, 64, 116
1, 52338, Note_off_c, 0, 49, 61
1, 52347, Note_on_c, 0, 44, 69
1, 52368, Control_c, 0, 64, 116
1, 52383, Control_c, 0, 64, 115
1, 52398, Control_c, 0, 64, 114
1, 52412, Control_c, 0, 64, 112
1, 52427, Control_c, 0, 64, 107
1, 52438, Note_on_c, 0, 37, 75
1, 52442, Control_c, 0, 64, 95
1, 52456, Control_c, 0, 64, 80
1, 52457, Note_off_c, 0, 44, 56
1, 52471, Control_c, 0, 64, 65
1, 52486, Control_c, 0, 64, 52
1, 52501, Control_c, 0, 64, 42
1, 52516, Control_c, 0, 64, 41
1, 52530, Control_c, 0, 64, 43
1, 52545, Control_c, 0, 64, 54
1, 52560, Control_c, 0, 64, 64
1, 52565, Note_on_c, 0, 44, 72
1, 52575, Control_c, 0, 64, 71
1, 52589, Note_off_c, 0, 37, 61
1, 52590, Control_c, 0, 64, 78
1, 52604, Control_c, 0, 64, 85
1, 52619, Control_c, 0, 64, 89
1, 52634, Control_c, 0, 64, 93
1, 52649, Control_c, 0, 64, 98
1, 52652, Note_on_c, 0, 49, 69
1, 52663, Control_c, 0, 64, 102
1, 52678, Control_c, 0, 64, 108
1, 52693, Control_c, 0, 64, 113
1, 52708, Control_c, 0, 64, 116
1, 52711, Note_on_c, 0, 52, 64
1, 52723, Control_c, 0, 64, 117
1, 52738, Control_c, 0, 64, 118
1, 52741, Note_on_c, 0, 56, 63
1, 52745, Note_off_c, 0, 49, 55
1, 52753, Control_c, 0, 64, 123
1, 52767, Control_c, 0, 64, 127
1, 52797, Note_on_c, 0, 61, 61
1, 52854, Note_on_c, 0, 64, 63
1, 52860, Note_off_c, 0, 52, 34
1, 52865, Note_off_c, 0, 61, 59
1, 52916, Note_off_c, 0, 56, 33
1, 52924, Note_on_c, 0, 68, 73
1, 52929, Note_off_c, 0, 64, 60
1, 52982, Note_on_c, 0, 64, 55
1, 53005, Note_off_c, 0, 68, 57
1, 53045, Note_on_c, 0, 61, 57
1, 53078, Note_off_c, 0, 64, 55
1, 53086, Note_on_c, 0, 52, 56
1, 53108, Note_on_c, 0, 56, 69
1, 53122, Note_off_c, 0, 61, 54
1, 53133, Note_off_c, 0, 44, 36
1, 53156, Note_on_c, 0, 49, 60
1, 53194, Note_off_c, 0, 52, 35
1, 53244, Note_on_c, 0, 44, 73
1, 53250, Control_c, 0, 64, 124
1, 53258, Note_off_c, 0, 49, 59
1, 53265, Control_c, 0, 64, 123
1, 53279, Control_c, 0, 64, 121
1, 53291, Note_off_c, 0, 44, 61
1, 53292, Note_off_c, 0, 56, 31
1, 53294, Control_c, 0, 64, 120
1, 53309, Control_c, 0, 64, 119
1, 53324, Control_c, 0, 64, 118
1, 53339, Control_c, 0, 64, 117
1, 53348, Poly_aftertouch_c, 0, 64, 127
1, 53353, Control_c, 0, 64, 116
1, 53368, Control_c, 0, 64, 115
1, 53398, Control_c, 0, 64, 115
1, 53413, Control_c, 0, 64, 114
1, 53427, Control_c, 0, 64, 110
1, 53442, Control_c, 0, 64, 102
1, 53457, Control_c, 0, 64, 89
1, 53472, Control_c, 0, 64, 76
1, 53473, Note_on_c, 0, 35, 83
1, 53486, Control_c, 0, 64, 64
1, 53501, Control_c, 0, 64, 51
1, 53516, Control_c, 0, 64, 41
1, 53531, Control_c, 0, 64, 40
1, 53545, Control_c, 0, 64, 45
1, 53560, Control_c, 0, 64, 59
1, 53575, Control_c, 0, 64, 67
1, 53576, Note_off_c, 0, 35, 61
1, 53590, Control_c, 0, 64, 73
1, 53592, Poly_aftertouch_c, 0, 64, 0
1, 53605, Control_c, 0, 64, 79
1, 53620, Control_c, 0, 64, 85
1, 53642, Control_c, 0, 64, 90
1, 53657, Control_c, 0, 64, 94
1, 53672, Control_c, 0, 64, 97
1, 53686, Control_c, 0, 64, 98
1, 53701, Control_c, 0, 64, 100
1, 53709, Note_on_c, 0, 44, 56
1, 53716, Control_c, 0, 64, 101
1, 53731, Control_c, 0, 64, 101
1, 53746, Control_c, 0, 64, 102
1, 53751, Note_on_c, 0, 50, 63
1, 53760, Control_c, 0, 64, 102
1, 53775, Control_c, 0, 64, 103
1, 53787, Note_off_c, 0, 44, 58
1, 53790, Control_c, 0, 64, 103
1, 53803, Note_on_c, 0, 52, 58
1, 53808, Note_off_c, 0, 50, 58
1, 53823, Note_on_c, 0, 56, 64
1, 53827, Note_off_c, 0, 52, 60
1, 53835, Control_c, 0, 64, 104
1, 53864, Control_c, 0, 64, 104
1, 53871, Note_off_c, 0, 56, 56
1, 53874, Note_on_c, 0, 62, 61
1, 53909, Control_c, 0, 64, 105
1, 53921, Note_on_c, 0, 64, 59
1, 53939, Control_c, 0, 64, 105
1, 53990, Note_on_c, 0, 68, 66
1, 54028, Control_c, 0, 64, 106
1, 54050, Note_on_c, 0, 78, 98
1, 54058, Control_c, 0, 64, 106
1, 54073, Control_c, 0, 64, 109
1, 54088, Control_c, 0, 64, 113
1, 54095, Note_off_c, 0, 78, 61
1, 54102, Control_c, 0, 64, 118
1, 54117, Control_c, 0, 64, 120
1, 54133, Note_off_c, 0, 68, 36
1, 54162, Control_c, 0, 64, 121
1, 54191, Control_c, 0, 64, 122
1, 54250, Control_c, 0, 64, 123
1, 54259, Note_on_c, 0, 90, 69
1, 54279, Note_off_c, 0, 90, 69
1, 54294, Note_on_c, 0, 68, 54
1, 54295, Control_c, 0, 64, 124
1, 54297, Note_off_c, 0, 64, 39
1, 54339, Control_c, 0, 64, 127
1, 54347, Note_off_c, 0, 62, 38
1, 54353, Note_on_c, 0, 64, 55
1, 54401, Note_off_c, 0, 68, 35
1, 54408, Note_on_c, 0, 62, 54
1, 54437, Note_off_c, 0, 64, 54
1, 54461, Note_on_c, 0, 56, 55
1, 54484, Note_off_c, 0, 56, 59
1, 54496, Note_off_c, 0, 62, 55
1, 54521, Note_on_c, 0, 53, 25
1, 54539, Control_c, 0, 64, 124
1, 54554, Control_c, 0, 64, 123
1, 54568, Note_off_c, 0, 53, 52
1, 54570, Note_on_c, 0, 50, 57
1, 54583, Control_c, 0, 64, 122
1, 54598, Control_c, 0, 64, 120
1, 54613, Control_c, 0, 64, 119
1, 54625, Note_off_c, 0, 50, 56
1, 54628, Control_c, 0, 64, 118
1, 54669, Note_on_c, 0, 43, 22
1, 54672, Control_c, 0, 64, 118
1, 54710, Note_off_c, 0, 43, 42
1, 54732, Control_c, 0, 64, 117
1, 54747, Control_c, 0, 64, 117
1, 54762, Control_c, 0, 64, 114
1, 54777, Control_c, 0, 64, 106
1, 54791, Note_on_c, 0, 76, 86
1, 54792, Control_c, 0, 64, 88
1, 54794, Note_on_c, 0, 32, 73
1, 54806, Control_c, 0, 64, 69
1, 54821, Control_c, 0, 64, 54
1, 54836, Control_c, 0, 64, 43
1, 54851, Control_c, 0, 64, 45
1, 54866, Control_c, 0, 64, 56
1, 54881, Control_c, 0, 64, 68
1, 54896, Control_c, 0, 64, 76
1, 54905, Note_off_c, 0, 32, 62
1, 54911, Control_c, 0, 64, 85
1, 54925, Control_c, 0, 64, 92
1, 54940, Control_c, 0, 64, 96
1, 54955, Control_c, 0, 64, 98
1, 54970, Control_c, 0, 64, 100
1, 54985, Control_c, 0, 64, 101
1, 54992, Note_off_c, 0, 76, 53
1, 54999, Control_c, 0, 64, 102
1, 55006, Note_on_c, 0, 88, 73
1, 55029, Note_off_c, 0, 88, 68
1, 55044, Control_c, 0, 64, 102
1, 55058, Control_c, 0, 64, 103
1, 55074, Note_on_c, 0, 47, 56
1, 55118, Control_c, 0, 64, 103
1, 55140, Control_c, 0, 64, 104
1, 55144, Note_on_c, 0, 50, 64
1, 55155, Control_c, 0, 64, 104
1, 55183, Note_off_c, 0, 47, 49
1, 55194, Note_on_c, 0, 52, 60
1, 55214, Note_off_c, 0, 50, 59
1, 55214, Control_c, 0, 64, 105
1, 55223, Note_on_c, 0, 59, 51
1, 55227, Note_off_c, 0, 52, 63
1, 55275, Note_on_c, 0, 62, 63
1, 55355, Note_on_c, 0, 64, 64
1, 55411, Note_off_c, 0, 59, 31
1, 55418, Note_on_c, 0, 71, 88
1, 55421, Control_c, 0, 64, 105
1, 55436, Control_c, 0, 64, 106
1, 55450, Control_c, 0, 64, 108
1, 55465, Control_c, 0, 64, 110
1, 55480, Control_c, 0, 64, 110
1, 55496, Note_off_c, 0, 71, 60
1, 55496, Control_c, 0, 64, 111
1, 55498, Note_on_c, 0, 59, 31
1, 55515, Note_off_c, 0, 64, 34
1, 55526, Control_c, 0, 64, 112
1, 55555, Control_c, 0, 64, 112
1, 55608, Note_off_c, 0, 62, 31
1, 55635, Note_on_c, 0, 83, 77
1, 55639, Note_on_c, 0, 64, 46
1, 55662, Note_off_c, 0, 83, 64
1, 55695, Note_off_c, 0, 59, 38
1, 55723, Note_on_c, 0, 62, 57
1, 55769, Note_off_c, 0, 64, 35
1, 55783, Note_off_c, 0, 62, 56
1, 55795, Note_on_c, 0, 59, 62
1, 55815, Note_off_c, 0, 59, 63
1, 55876, Note_on_c, 0, 53, 41
1, 55915, Note_off_c, 0, 53, 48
1, 55918, Control_c, 0, 64, 112
1, 55948, Control_c, 0, 64, 111
1, 55985, Note_on_c, 0, 50, 53
1, 56013, Note_on_c, 0, 47, 50
1, 56035, Note_off_c, 0, 50, 58
1, 56044, Note_on_c, 0, 48, 22
1, 56054, Note_off_c, 0, 47, 60
1, 56086, Note_off_c, 0, 48, 51
1, 56141, Control_c, 0, 64, 110
1, 56155, Control_c, 0, 64, 108
1, 56170, Control_c, 0, 64, 101
1, 56185, Control_c, 0, 64, 87
1, 56193, Note_on_c, 0, 73, 82
1, 56199, Control_c, 0, 64, 69
1, 56203, Note_on_c, 0, 33, 70
1, 56214, Control_c, 0, 64, 48
1, 56229, Control_c, 0, 64, 31
1, 56244, Control_c, 0, 64, 33
1, 56259, Control_c, 0, 64, 51
1, 56273, Control_c, 0, 64, 64
1, 56288, Control_c, 0, 64, 72
1, 56304, Control_c, 0, 64, 79
1, 56308, Note_off_c, 0, 33, 61
1, 56319, Control_c, 0, 64, 88
1, 56334, Control_c, 0, 64, 93
1, 56349, Control_c, 0, 64, 97
1, 56364, Control_c, 0, 64, 99
1, 56378, Control_c, 0, 64, 102
1, 56393, Control_c, 0, 64, 103
1, 56411, Note_on_c, 0, 85, 77
1, 56422, Control_c, 0, 64, 104
1, 56428, Note_off_c, 0, 73, 61
1, 56437, Control_c, 0, 64, 105
1, 56445, Note_off_c, 0, 85, 61
1, 56446, Note_on_c, 0, 49, 52
1, 56452, Control_c, 0, 64, 106
1, 56511, Control_c, 0, 64, 107
1, 56519, Note_on_c, 0, 52, 60
1, 56571, Note_on_c, 0, 57, 62
1, 56594, Note_off_c, 0, 52, 58
1, 56597, Note_off_c, 0, 49, 36
1, 56610, Note_off_c, 0, 57, 60
1, 56622, Control_c, 0, 67, 16
1, 56623, Note_on_c, 0, 61, 65
1, 56683, Note_on_c, 0, 64, 58
1, 56726, Note_off_c, 0, 61, 48
1, 56763, Note_on_c, 0, 69, 66
1, 56833, Note_on_c, 0, 76, 89
1, 56845, Control_c, 0, 64, 107
1, 56856, Poly_aftertouch_c, 0, 66, 127
1, 56860, Control_c, 0, 64, 108
1, 56890, Control_c, 0, 64, 108
1, 56892, Note_off_c, 0, 76, 63
1, 56919, Control_c, 0, 64, 109
1, 56921, Note_off_c, 0, 69, 36
1, 56941, Poly_aftertouch_c, 0, 66, 0
1, 56948, Control_c, 0, 64, 109
1, 56954, Poly_aftertouch_c, 0, 61, 127
1, 57008, Control_c, 0, 64, 110
1, 57051, Note_on_c, 0, 88, 65
1, 57069, Poly_aftertouch_c, 0, 61, 0
1, 57071, Note_off_c, 0, 64, 45
1, 57072, Note_on_c, 0, 69, 55
1, 57078, Note_off_c, 0, 88, 66
1, 57150, Note_off_c, 0, 69, 52
1, 57155, Note_on_c, 0, 64, 58
1, 57201, Note_on_c, 0, 61, 60
1, 57206, Note_off_c, 0, 64, 53
1, 57252, Note_off_c, 0, 61, 59
1, 57313, Note_on_c, 0, 57, 52
1, 57386, Control_c, 0, 67, 17
1, 57401, Control_c, 0, 67, 18
1, 57409, Note_off_c, 0, 57, 37
1, 57416, Control_c, 0, 67, 20
1, 57431, Control_c, 0, 67, 23
1, 57432, Note_on_c, 0, 52, 55
1, 57445, Control_c, 0, 67, 26
1, 57460, Control_c, 0, 67, 29
1, 57475, Control_c, 0, 67, 30
1, 57490, Control_c, 0, 67, 31
1, 57508, Note_off_c, 0, 52, 57
1, 57511, Note_on_c, 0, 49, 63
1, 57519, Control_c, 0, 67, 31
1, 57540, Note_off_c, 0, 49, 65
1, 57549, Control_c, 0, 64, 109
1, 57564, Control_c, 0, 67, 32
1, 57579, Control_c, 0, 64, 109
1, 57594, Control_c, 0, 67, 32
1, 57608, Control_c, 0, 64, 108
1, 57608, Control_c, 0, 67, 33
1, 57623, Control_c, 0, 64, 108
1, 57623, Control_c, 0, 67, 34
1, 57638, Control_c, 0, 64, 106
1, 57638, Control_c, 0, 67, 36
1, 57653, Control_c, 0, 64, 103
1, 57653, Control_c, 0, 67, 37
1, 57668, Control_c, 0, 64, 99
1, 57668, Control_c, 0, 67, 38
1, 57682, Note_on_c, 0, 39, 17
1, 57683, Control_c, 0, 64, 92
1, 57683, Control_c, 0, 67, 39
1, 57683, Note_on_c, 0, 83, 86
1, 57698, Control_c, 0, 64, 81
1, 57698, Control_c, 0, 67, 41
1, 57702, Note_on_c, 0, 37, 57
1, 57713, Control_c, 0, 64, 67
1, 57713, Control_c, 0, 67, 41
1, 57727, Control_c, 0, 64, 56
1, 57727, Control_c, 0, 67, 42
1, 57731, Note_off_c, 0, 39, 51
1, 57742, Control_c, 0, 64, 43
1, 57742, Control_c, 0, 67, 43
1, 57756, Note_off_c, 0, 37, 0
1, 57756, Note_on_c, 0, 37, 30
1, 57757, Control_c, 0, 64, 42
1, 57757, Control_c, 0, 67, 44
1, 57771, Control_c, 0, 64, 45
1, 57771, Control_c, 0, 67, 45
1, 57786, Control_c, 0, 64, 56
1, 57786, Control_c, 0, 67, 47
1, 57801, Control_c, 0, 64, 65
1, 57801, Control_c, 0, 67, 48
1, 57816, Note_off_c, 0, 37, 62
1, 57816, Control_c, 0, 64, 72
1, 57816, Control_c, 0, 67, 49
1, 57831, Control_c, 0, 64, 79
1, 57831, Control_c, 0, 67, 50
1, 57845, Control_c, 0, 64, 87
1, 57845, Control_c, 0, 67, 51
1, 57860, Control_c, 0, 64, 90
1, 57860, Control_c, 0, 67, 51
1, 57875, Control_c, 0, 64, 93
1, 57890, Control_c, 0, 64, 95
1, 57906, Control_c, 0, 64, 97
1, 57921, Control_c, 0, 64, 100
1, 57925, Note_on_c, 0, 95, 75
1, 57927, Note_off_c, 0, 83, 55
1, 57936, Control_c, 0, 64, 103
1, 57944, Note_off_c, 0, 95, 69
1, 57950, Control_c, 0, 64, 108
1, 57965, Control_c, 0, 64, 114
1, 57980, Control_c, 0, 64, 122
1, 57987, Note_on_c, 0, 49, 54
1, 57994, Control_c, 0, 64, 127
1, 57994, Control_c, 0, 67, 51
1, 58009, Control_c, 0, 67, 50
1, 58024, Control_c, 0, 67, 49
1, 58039, Control_c, 0, 67, 48
1, 58040, Note_on_c, 0, 53, 55
1, 58054, Control_c, 0, 67, 48
1, 58068, Control_c, 0, 67, 47
1, 58083, Control_c, 0, 67, 47
1, 58098, Control_c, 0, 67, 46
1, 58100, Note_on_c, 0, 57, 58
1, 58113, Control_c, 0, 67, 46
1, 58134, Note_off_c, 0, 49, 43
1, 58146, Note_off_c, 0, 53, 52
1, 58148, Note_off_c, 0, 57, 60
1, 58161, Note_on_c, 0, 61, 43
1, 58209, Control_c, 0, 67, 45
1, 58224, Control_c, 0, 67, 45
1, 58231, Note_on_c, 0, 65, 60
1, 58316, Note_on_c, 0, 69, 55
1, 58373, Control_c, 0, 67, 44
1, 58417, Note_on_c, 0, 81, 84
1, 58488, Note_off_c, 0, 81, 61
1, 58497, Note_off_c, 0, 69, 38
1, 58565, Control_c, 0, 67, 45
1, 58595, Control_c, 0, 67, 45
1, 58625, Control_c, 0, 67, 46
1, 58655, Control_c, 0, 67, 46
1, 58677, Note_on_c, 0, 93, 64
1, 58699, Note_off_c, 0, 65, 40
1, 58708, Note_on_c, 0, 69, 43
1, 58711, Note_off_c, 0, 93, 59
1, 58722, Note_off_c, 0, 61, 39
1, 58774, Control_c, 0, 67, 46
1, 58789, Control_c, 0, 67, 45
1, 58804, Control_c, 0, 67, 44
1, 58814, Note_on_c, 0, 65, 52
1, 58818, Control_c, 0, 67, 43
1, 58835, Note_off_c, 0, 69, 37
1, 58848, Control_c, 0, 67, 42
1, 58873, Note_on_c, 0, 61, 44
1, 58885, Control_c, 0, 67, 42
1, 58905, Note_off_c, 0, 65, 37
1, 59001, Note_off_c, 0, 61, 34
1, 59003, Control_c, 0, 67, 43
1, 59018, Control_c, 0, 67, 43
1, 59030, Note_on_c, 0, 57, 41
1, 59032, Control_c, 0, 67, 44
1, 59047, Control_c, 0, 67, 44
1, 59062, Control_c, 0, 67, 45
1, 59077, Control_c, 0, 67, 46
1, 59092, Control_c, 0, 67, 47
1, 59106, Control_c, 0, 67, 47
1, 59107, Note_off_c, 0, 57, 46
1, 59121, Control_c, 0, 67, 48
1, 59129, Note_on_c, 0, 53, 45
1, 59165, Control_c, 0, 67, 48
1, 59248, Note_on_c, 0, 49, 51
1, 59254, Control_c, 0, 67, 48
1, 59266, Note_off_c, 0, 53, 39
1, 59269, Control_c, 0, 67, 47
1, 59281, Note_off_c, 0, 49, 60
1, 59284, Control_c, 0, 67, 46
1, 59299, Control_c, 0, 67, 45
1, 59328, Control_c, 0, 67, 45
1, 59343, Control_c, 0, 67, 44
1, 59373, Control_c, 0, 67, 44
1, 59388, Control_c, 0, 67, 43
1, 59403, Control_c, 0, 67, 42
1, 59417, Control_c, 0, 67, 41
1, 59432, Control_c, 0, 67, 41
1, 59447, Control_c, 0, 64, 117
1, 59451, Note_on_c, 0, 80, 75
1, 59456, Note_on_c, 0, 38, 43
1, 59462, Control_c, 0, 64, 108
1, 59462, Control_c, 0, 67, 40
1, 59477, Control_c, 0, 64, 96
1, 59477, Control_c, 0, 67, 40
1, 59492, Control_c, 0, 64, 85
1, 59492, Control_c, 0, 67, 39
1, 59507, Control_c, 0, 64, 73
1, 59522, Control_c, 0, 64, 63
1, 59537, Control_c, 0, 64, 57
1, 59537, Control_c, 0, 67, 38
1, 59552, Control_c, 0, 64, 56
1, 59552, Control_c, 0, 67, 37
1, 59566, Control_c, 0, 67, 35
1, 59581, Control_c, 0, 64, 60
1, 59581, Control_c, 0, 67, 32
1, 59596, Control_c, 0, 64, 65
1, 59596, Control_c, 0, 67, 30
1, 59611, Control_c, 0, 64, 71
1, 59611, Control_c, 0, 67, 28
1, 59633, Control_c, 0, 64, 79
1, 59633, Control_c, 0, 67, 27
1, 59640, Note_on_c, 0, 45, 52
1, 59647, Control_c, 0, 64, 89
1, 59647, Control_c, 0, 67, 38
1, 59662, Control_c, 0, 64, 95
1, 59662, Control_c, 0, 67, 35
1, 59671, Note_off_c, 0, 38, 35
1, 59677, Control_c, 0, 64, 96
1, 59677, Control_c, 0, 67, 31
1, 59692, Control_c, 0, 64, 98
1, 59692, Control_c, 0, 67, 26
1, 59707, Control_c, 0, 64, 100
1, 59707, Control_c, 0, 67, 22
1, 59722, Control_c, 0, 64, 105
1, 59722, Control_c, 0, 67, 19
1, 59727, Note_on_c, 0, 92, 72
1, 59737, Control_c, 0, 64, 110
1, 59747, Note_off_c, 0, 80, 59
1, 59751, Note_on_c, 0, 47, 60
1, 59752, Control_c, 0, 64, 114
1, 59764, Note_off_c, 0, 45, 36
1, 59767, Control_c, 0, 64, 118
1, 59767, Control_c, 0, 67, 0
1, 59769, Note_off_c, 0, 92, 56
1, 59780, Control_c, 0, 64, 127
1, 59819, Note_off_c, 0, 47, 56
1, 59855, Note_on_c, 0, 54, 50
1, 59883, Note_off_c, 0, 54, 59
1, 59948, Note_on_c, 0, 78, 82
1, 59954, Note_on_c, 0, 57, 59
1, 60056, Note_on_c, 0, 59, 52
1, 60071, Note_off_c, 0, 57, 35
1, 60097, Note_off_c, 0, 59, 59
1, 60124, Note_on_c, 0, 66, 54
1, 60127, Note_on_c, 0, 90, 75
1, 60160, Note_off_c, 0, 78, 56
1, 60168, Note_off_c, 0, 90, 62
1, 60180, Note_off_c, 0, 66, 56
1, 60199, Note_on_c, 0, 59, 56
1, 60285, Note_on_c, 0, 57, 55
1, 60289, Note_off_c, 0, 59, 49
1, 60318, Note_off_c, 0, 57, 65
1, 60340, Note_on_c, 0, 71, 78
1, 60503, Poly_aftertouch_c, 0, 54, 127
1, 60541, Poly_aftertouch_c, 0, 54, 0
1, 60546, Note_on_c, 0, 47, 51
1, 60556, Note_off_c, 0, 71, 31
1, 60560, Note_on_c, 0, 83, 64
1, 60589, Control_c, 0, 64, 122
1, 60603, Note_off_c, 0, 83, 57
1, 60603, Control_c, 0, 64, 120
1, 60618, Control_c, 0, 64, 119
1, 60633, Control_c, 0, 64, 118
1, 60648, Control_c, 0, 64, 118
1, 60660, Note_on_c, 0, 45, 52
1, 60663, Control_c, 0, 64, 117
1, 60669, Note_off_c, 0, 47, 36
1, 60677, Control_c, 0, 64, 116
1, 60736, Control_c, 0, 64, 116
1, 60751, Control_c, 0, 64, 115
1, 60766, Control_c, 0, 64, 113
1, 60781, Control_c, 0, 64, 111
1, 60795, Control_c, 0, 64, 109
1, 60810, Control_c, 0, 64, 106
1, 60823, Note_off_c, 0, 45, 32
1, 60825, Control_c, 0, 64, 103
1, 60840, Control_c, 0, 64, 100
1, 60855, Control_c, 0, 64, 95
1, 60859, Note_on_c, 0, 73, 69
1, 60870, Control_c, 0, 64, 88
1, 60877, Note_on_c, 0, 40, 43
1, 60884, Control_c, 0, 64, 81
1, 60899, Control_c, 0, 64, 72
1, 60914, Control_c, 0, 64, 65
1, 60929, Control_c, 0, 64, 61
1, 60944, Control_c, 0, 64, 57
1, 60959, Control_c, 0, 64, 55
1, 61003, Control_c, 0, 64, 57
1, 61010, Note_on_c, 0, 85, 65
1, 61018, Control_c, 0, 64, 62
1, 61033, Control_c, 0, 64, 68
1, 61048, Control_c, 0, 64, 74
1, 61051, Note_on_c, 0, 47, 37
1, 61062, Control_c, 0, 64, 81
1, 61077, Control_c, 0, 64, 88
1, 61090, Note_off_c, 0, 73, 54
1, 61093, Control_c, 0, 64, 90
1, 61115, Control_c, 0, 64, 92
1, 61130, Control_c, 0, 64, 93
1, 61144, Control_c, 0, 64, 96
1, 61158, Note_off_c, 0, 85, 59
1, 61159, Control_c, 0, 64, 98
1, 61165, Note_on_c, 0, 74, 73
1, 61170, Note_off_c, 0, 40, 28
1, 61174, Note_off_c, 0, 47, 56
1, 61174, Control_c, 0, 64, 100
1, 61186, Note_on_c, 0, 50, 51
1, 61189, Control_c, 0, 64, 100
1, 61215, Note_off_c, 0, 50, 56
1, 61311, Note_off_c, 0, 74, 37
1, 61319, Note_on_c, 0, 86, 63
1, 61334, Note_on_c, 0, 56, 45
1, 61357, Note_off_c, 0, 86, 55
1, 61485, Control_c, 0, 64, 101
1, 61499, Control_c, 0, 64, 101
1, 61514, Control_c, 0, 64, 102
1, 61529, Control_c, 0, 64, 102
1, 61534, Note_on_c, 0, 78, 70
1, 61540, Note_on_c, 0, 59, 44
1, 61558, Control_c, 0, 64, 103
1, 61588, Control_c, 0, 64, 103
1, 61766, Control_c, 0, 67, 17
1, 61767, Note_on_c, 0, 90, 64
1, 61779, Note_on_c, 0, 62, 43
1, 61781, Control_c, 0, 67, 20
1, 61796, Control_c, 0, 67, 22
1, 61810, Control_c, 0, 67, 24
1, 61811, Note_off_c, 0, 78, 35
1, 61815, Note_off_c, 0, 90, 55
1, 61825, Control_c, 0, 67, 24
1, 61840, Control_c, 0, 67, 25
1, 62011, Control_c, 0, 67, 25
1, 62041, Control_c, 0, 67, 26
1, 62056, Control_c, 0, 67, 27
1, 62071, Control_c, 0, 64, 103
1, 62071, Control_c, 0, 67, 29
1, 62086, Control_c, 0, 67, 30
1, 62101, Control_c, 0, 64, 102
1, 62116, Control_c, 0, 64, 102
1, 62143, Note_off_c, 0, 59, 38
1, 62145, Control_c, 0, 64, 101
1, 62160, Control_c, 0, 64, 101
1, 62190, Control_c, 0, 64, 100
1, 62205, Control_c, 0, 64, 99
1, 62205, Control_c, 0, 67, 29
1, 62216, Note_off_c, 0, 56, 39
1, 62220, Control_c, 0, 64, 99
1, 62220, Control_c, 0, 67, 29
1, 62234, Control_c, 0, 64, 98
1, 62249, Control_c, 0, 64, 97
1, 62249, Control_c, 0, 67, 28
1, 62264, Control_c, 0, 64, 95
1, 62265, Note_off_c, 0, 62, 39
1, 62279, Control_c, 0, 64, 93
1, 62293, Control_c, 0, 64, 89
1, 62306, Note_on_c, 0, 66, 54
1, 62308, Control_c, 0, 64, 85
1, 62323, Control_c, 0, 64, 79
1, 62323, Control_c, 0, 67, 29
1, 62338, Control_c, 0, 64, 72
1, 62353, Control_c, 0, 64, 67
1, 62367, Control_c, 0, 64, 63
1, 62367, Control_c, 0, 67, 29
1, 62382, Control_c, 0, 64, 61
1, 62382, Control_c, 0, 67, 30
1, 62397, Control_c, 0, 64, 59
1, 62397, Control_c, 0, 67, 30
1, 62412, Control_c, 0, 64, 56
1, 62427, Control_c, 0, 64, 53
1, 62427, Control_c, 0, 67, 31
1, 62441, Control_c, 0, 64, 49
1, 62456, Control_c, 0, 64, 47
1, 62500, Control_c, 0, 64, 50
1, 62500, Control_c, 0, 67, 31
1, 62515, Control_c, 0, 64, 56
1, 62515, Control_c, 0, 67, 32
1, 62530, Control_c, 0, 64, 62
1, 62530, Control_c, 0, 67, 33
1, 62545, Control_c, 0, 64, 66
1, 62545, Control_c, 0, 67, 34
1, 62560, Control_c, 0, 64, 69
1, 62560, Control_c, 0, 67, 34
1, 62575, Control_c, 0, 64, 72
1, 62575, Control_c, 0, 67, 35
1, 62589, Control_c, 0, 64, 75
1, 62589, Control_c, 0, 67, 36
1, 62604, Control_c, 0, 64, 77
1, 62604, Control_c, 0, 67, 37
1, 62627, Control_c, 0, 64, 79
1, 62627, Control_c, 0, 67, 38
1, 62641, Control_c, 0, 64, 82
1, 62641, Control_c, 0, 67, 39
1, 62656, Control_c, 0, 64, 84
1, 62656, Control_c, 0, 67, 41
1, 62666, Note_off_c, 0, 66, 35
1, 62671, Control_c, 0, 64, 86
1, 62671, Control_c, 0, 67, 42
1, 62686, Control_c, 0, 64, 88
1, 62686, Control_c, 0, 67, 43
1, 62702, Control_c, 0, 64, 91
1, 62702, Control_c, 0, 67, 44
1, 62717, Control_c, 0, 64, 93
1, 62717, Control_c, 0, 67, 45
1, 62732, Control_c, 0, 64, 95
1, 62732, Control_c, 0, 67, 46
1, 62746, Control_c, 0, 64, 98
1, 62746, Control_c, 0, 67, 46
1, 62761, Control_c, 0, 64, 100
1, 62776, Control_c, 0, 64, 102
1, 62790, Control_c, 0, 64, 104
1, 62790, Control_c, 0, 67, 46
1, 62805, Control_c, 0, 64, 106
1, 62814, Note_on_c, 0, 78, 62
1, 62819, Note_on_c, 0, 66, 34
1, 62820, Control_c, 0, 64, 108
1, 62820, Control_c, 0, 67, 45
1, 62835, Control_c, 0, 64, 111
1, 62835, Control_c, 0, 67, 45
1, 62850, Control_c, 0, 64, 114
1, 62850, Control_c, 0, 67, 44
1, 62864, Control_c, 0, 64, 116
1, 62864, Control_c, 0, 67, 43
1, 62879, Control_c, 0, 64, 118
1, 62879, Control_c, 0, 67, 42
1, 62894, Control_c, 0, 64, 118
1, 62894, Control_c, 0, 67, 41
1, 62909, Control_c, 0, 67, 39
1, 62923, Control_c, 0, 67, 38
1, 62938, Control_c, 0, 67, 36
1, 62953, Control_c, 0, 67, 35
1, 62968, Control_c, 0, 67, 33
1, 62983, Control_c, 0, 67, 32
1, 62998, Control_c, 0, 67, 28
1, 63013, Control_c, 0, 67, 25
1, 63022, Note_off_c, 0, 78, 32
1, 63028, Control_c, 0, 67, 38
1, 63043, Control_c, 0, 67, 36
1, 63057, Control_c, 0, 67, 34
1, 63069, Note_off_c, 0, 66, 36
1, 63072, Control_c, 0, 67, 33
1, 63075, Note_on_c, 0, 68, 70
1, 63079, Note_on_c, 0, 64, 43
1, 63087, Control_c, 0, 67, 32
1, 63102, Control_c, 0, 67, 32
1, 63116, Control_c, 0, 67, 31
1, 63131, Control_c, 0, 67, 30
1, 63146, Control_c, 0, 67, 29
1, 63161, Control_c, 0, 67, 28
1, 63176, Control_c, 0, 67, 27
1, 63190, Control_c, 0, 67, 26
1, 63205, Control_c, 0, 67, 25
1, 63220, Control_c, 0, 67, 23
1, 63235, Control_c, 0, 67, 21
1, 63250, Control_c, 0, 67, 19
1, 63264, Control_c, 0, 67, 17
1, 63323, Note_on_c, 0, 80, 58
1, 63335, Note_on_c, 0, 62, 45
1, 63370, Note_off_c, 0, 64, 31
1, 63376, Control_c, 0, 67, 0
1, 63403, Note_off_c, 0, 68, 35
1, 63444, Note_off_c, 0, 80, 55
1, 63626, Note_on_c, 0, 73, 62
1, 63646, Note_on_c, 0, 56, 40
1, 63747, Note_off_c, 0, 62, 39
1, 63920, Note_on_c, 0, 85, 58
1, 63925, Control_c, 0, 64, 120
1, 63925, Note_on_c, 0, 52, 40
1, 63939, Control_c, 0, 64, 121
1, 63954, Control_c, 0, 64, 123
1, 63969, Control_c, 0, 64, 124
1, 63976, Note_off_c, 0, 73, 40
1, 63999, Control_c, 0, 64, 127
1, 64035, Note_off_c, 0, 85, 34
1, 64047, Note_off_c, 0, 56, 37
1, 64086, Note_off_c, 0, 52, 35
1, 64199, Control_c, 0, 67, 19
1, 64213, Control_c, 0, 67, 24
1, 64228, Control_c, 0, 67, 27
1, 64243, Control_c, 0, 67, 29
1, 64257, Control_c, 0, 67, 30
1, 64272, Control_c, 0, 64, 124
1, 64272, Control_c, 0, 67, 30
1, 64289, Control_c, 0, 64, 123
1, 64289, Control_c, 0, 67, 31
1, 64304, Control_c, 0, 64, 122
1, 64304, Control_c, 0, 67, 31
1, 64318, Control_c, 0, 64, 120
1, 64318, Control_c, 0, 67, 33
1, 64333, Control_c, 0, 64, 119
1, 64333, Control_c, 0, 67, 34
1, 64348, Control_c, 0, 64, 118
1, 64362, Control_c, 0, 64, 118
1, 64377, Control_c, 0, 64, 117
1, 64392, Control_c, 0, 64, 114
1, 64407, Control_c, 0, 64, 110
1, 64422, Control_c, 0, 64, 107
1, 64436, Control_c, 0, 64, 105
1, 64451, Control_c, 0, 64, 105
1, 64466, Control_c, 0, 64, 104
1, 64481, Control_c, 0, 64, 103
1, 64495, Control_c, 0, 64, 101
1, 64510, Control_c, 0, 64, 98
1, 64521, Note_on_c, 0, 71, 57
1, 64525, Note_on_c, 0, 83, 64
1, 64525, Control_c, 0, 64, 92
1, 64525, Control_c, 0, 67, 33
1, 64540, Control_c, 0, 64, 85
1, 64555, Control_c, 0, 64, 76
1, 64555, Control_c, 0, 67, 33
1, 64569, Control_c, 0, 64, 67
1, 64584, Control_c, 0, 64, 60
1, 64599, Control_c, 0, 64, 57
1, 64614, Control_c, 0, 64, 56
1, 64629, Control_c, 0, 64, 53
1, 64643, Control_c, 0, 64, 49
1, 64658, Control_c, 0, 64, 41
1, 64673, Control_c, 0, 64, 27
1, 64673, Control_c, 0, 67, 33
1, 64688, Control_c, 0, 64, 0
1, 64703, Control_c, 0, 67, 34
1, 64718, Control_c, 0, 67, 34
1, 64733, Control_c, 0, 67, 35
1, 64736, Note_on_c, 0, 45, 34
1, 64748, Control_c, 0, 67, 36
1, 64762, Control_c, 0, 64, 36
1, 64762, Control_c, 0, 67, 38
1, 64777, Control_c, 0, 64, 50
1, 64777, Control_c, 0, 67, 43
1, 64792, Control_c, 0, 64, 60
1, 64792, Control_c, 0, 67, 48
1, 64807, Control_c, 0, 64, 63
1, 64807, Control_c, 0, 67, 53
1, 64822, Control_c, 0, 64, 65
1, 64822, Control_c, 0, 67, 58
1, 64836, Control_c, 0, 64, 66
1, 64836, Control_c, 0, 67, 62
1, 64858, Note_on_c, 0, 52, 38
1, 64858, Control_c, 0, 64, 68
1, 64858, Control_c, 0, 67, 65
1, 64873, Control_c, 0, 64, 71
1, 64873, Control_c, 0, 67, 67
1, 64888, Control_c, 0, 64, 75
1, 64888, Control_c, 0, 67, 69
1, 64900, Note_off_c, 0, 45, 40
1, 64903, Control_c, 0, 64, 79
1, 64903, Control_c, 0, 67, 69
1, 64918, Control_c, 0, 64, 82
1, 64918, Control_c, 0, 67, 70
1, 64932, Control_c, 0, 64, 85
1, 64932, Control_c, 0, 67, 71
1, 64940, Note_off_c, 0, 52, 49
1, 64947, Control_c, 0, 64, 88
1, 64947, Control_c, 0, 67, 72
1, 64962, Control_c, 0, 64, 90
1, 64962, Control_c, 0, 67, 73
1, 64977, Control_c, 0, 64, 92
1, 64977, Control_c, 0, 67, 73
1, 64981, Note_on_c, 0, 57, 45
1, 64992, Control_c, 0, 64, 95
1, 64992, Control_c, 0, 67, 74
1, 65007, Control_c, 0, 64, 98
1, 65007, Control_c, 0, 67, 74
1, 65022, Control_c, 0, 64, 102
1, 65022, Control_c, 0, 67, 75
1, 65028, Note_off_c, 0, 57, 45
1, 65037, Control_c, 0, 64, 105
1, 65037, Control_c, 0, 67, 76
1, 65052, Control_c, 0, 64, 110
1, 65052, Control_c, 0, 67, 77
1, 65067, Control_c, 0, 64, 115
1, 65067, Control_c, 0, 67, 78
1, 65082, Control_c, 0, 64, 120
1, 65082, Control_c, 0, 67, 79
1, 65097, Control_c, 0, 64, 127
1, 65097, Control_c, 0, 67, 79
1, 65111, Control_c, 0, 67, 80
1, 65150, Note_on_c, 0, 61, 37
1, 65171, Control_c, 0, 67, 80
1, 65231, Control_c, 0, 67, 81
1, 65245, Control_c, 0, 67, 82
1, 65254, Note_off_c, 0, 71, 41
1, 65260, Control_c, 0, 67, 83
1, 65275, Control_c, 0, 67, 84
1, 65282, Note_off_c, 0, 61, 43
1, 65285, Note_on_c, 0, 64, 42
1, 65287, Note_off_c, 0, 83, 35
1, 65290, Control_c, 0, 67, 86
1, 65305, Control_c, 0, 67, 87
1, 65319, Control_c, 0, 67, 90
1, 65329, Note_off_c, 0, 64, 59
1, 65334, Control_c, 0, 67, 92
1, 65349, Control_c, 0, 67, 94
1, 65364, Control_c, 0, 67, 95
1, 65379, Control_c, 0, 67, 96
1, 65408, Control_c, 0, 67, 97
1, 65423, Control_c, 0, 67, 97
1, 65438, Control_c, 0, 67, 98
1, 65453, Control_c, 0, 67, 98
1, 65467, Control_c, 0, 67, 99
1, 65482, Control_c, 0, 67, 99
1, 65486, Note_on_c, 0, 81, 58
1, 65497, Note_on_c, 0, 69, 41
1, 65497, Control_c, 0, 67, 100
1, 65511, Control_c, 0, 67, 100
1, 65529, Note_on_c, 0, 73, 43
1, 65541, Control_c, 0, 67, 101
1, 65556, Control_c, 0, 67, 102
1, 65564, Note_off_c, 0, 73, 58
1, 65571, Control_c, 0, 67, 102
1, 65580, Note_off_c, 0, 69, 0
1, 65580, Note_on_c, 0, 69, 18
1, 65585, Control_c, 0, 67, 103
1, 65600, Control_c, 0, 67, 105
1, 65623, Control_c, 0, 67, 107
1, 65638, Control_c, 0, 67, 109
1, 65653, Control_c, 0, 67, 110
1, 65662, Note_off_c, 0, 69, 57
1, 65667, Control_c, 0, 67, 111
1, 65682, Control_c, 0, 67, 112
1, 65687, Note_on_c, 0, 64, 37
1, 65697, Control_c, 0, 67, 113
1, 65711, Control_c, 0, 67, 114
1, 65716, Note_off_c, 0, 64, 52
1, 65726, Control_c, 0, 67, 115
1, 65741, Control_c, 0, 67, 116
1, 65756, Control_c, 0, 67, 117
1, 65770, Control_c, 0, 67, 119
1, 65785, Control_c, 0, 67, 121
1, 65800, Control_c, 0, 67, 124
1, 65801, Note_on_c, 0, 61, 51
1, 65815, Control_c, 0, 67, 127
1, 65830, Control_c, 0, 67, 127
1, 65842, Note_off_c, 0, 61, 61
1, 65929, Note_on_c, 0, 57, 33
1, 65973, Note_off_c, 0, 57, 63
1, 65987, Note_on_c, 0, 52, 41
1, 66019, Note_off_c, 0, 52, 51
1, 66120, Note_off_c, 0, 81, 56
1, 66127, Note_on_c, 0, 45, 41
1, 66202, Note_on_c, 0, 52, 33
1, 66205, Note_off_c, 0, 45, 47
1, 66262, Note_off_c, 0, 52, 54
1, 66302, Note_on_c, 0, 57, 40
1, 66329, Note_off_c, 0, 57, 57
1, 66422, Note_on_c, 0, 61, 40
1, 66430, Control_c, 0, 64, 124
1, 66471, Note_off_c, 0, 61, 46
1, 66474, Control_c, 0, 64, 123
1, 66504, Control_c, 0, 64, 122
1, 66515, Note_on_c, 0, 64, 48
1, 66533, Control_c, 0, 64, 121
1, 66593, Control_c, 0, 64, 120
1, 66626, Note_off_c, 0, 64, 32
1, 66654, Note_on_c, 0, 69, 39
1, 66683, Control_c, 0, 64, 119
1, 66757, Control_c, 0, 64, 118
1, 66829, Note_on_c, 0, 52, 73
1, 66842, Note_off_c, 0, 69, 40
1, 66858, Note_on_c, 0, 73, 23
1, 66894, Note_off_c, 0, 73, 49
1, 67015, Note_on_c, 0, 69, 20
1, 67052, Note_off_c, 0, 69, 45
1, 67065, Note_off_c, 0, 52, 53
1, 67120, Note_on_c, 0, 64, 42
1, 67156, Note_off_c, 0, 64, 59
1, 67195, Note_on_c, 0, 61, 30
1, 67231, Note_off_c, 0, 61, 49
1, 67268, Control_c, 0, 64, 118
1, 67277, Note_on_c, 0, 57, 50
1, 67297, Control_c, 0, 64, 117
1, 67309, Note_off_c, 0, 57, 52
1, 67312, Control_c, 0, 64, 116
1, 67327, Control_c, 0, 64, 115
1, 67342, Control_c, 0, 64, 113
1, 67345, Note_on_c, 0, 52, 54
1, 67356, Control_c, 0, 64, 112
1, 67371, Control_c, 0, 64, 111
1, 67386, Control_c, 0, 64, 110
1, 67393, Note_off_c, 0, 52, 52
1, 67401, Control_c, 0, 64, 109
1, 67416, Control_c, 0, 64, 107
1, 67430, Control_c, 0, 64, 104
1, 67443, Note_on_c, 0, 54, 83
1, 67445, Control_c, 0, 64, 97
1, 67460, Control_c, 0, 64, 86
1, 67475, Control_c, 0, 64, 73
1, 67491, Control_c, 0, 64, 64
1, 67505, Control_c, 0, 64, 57
1, 67520, Control_c, 0, 64, 56
1, 67535, Control_c, 0, 64, 57
1, 67550, Control_c, 0, 64, 62
1, 67565, Control_c, 0, 64, 68
1, 67580, Control_c, 0, 64, 75
1, 67594, Control_c, 0, 64, 84
1, 67609, Control_c, 0, 64, 93
1, 67624, Control_c, 0, 64, 97
1, 67639, Control_c, 0, 64, 98
1, 67654, Control_c, 0, 64, 98
1, 67669, Control_c, 0, 64, 100
1, 67684, Control_c, 0, 64, 101
1, 67698, Control_c, 0, 64, 103
1, 67713, Control_c, 0, 64, 103
1, 67728, Control_c, 0, 64, 104
1, 67743, Control_c, 0, 64, 104
1, 67761, Note_on_c, 0, 57, 34
1, 67779, Note_off_c, 0, 54, 36
1, 67797, Note_off_c, 0, 57, 52
1, 67805, Note_on_c, 0, 62, 52
1, 67860, Note_off_c, 0, 62, 51
1, 67898, Note_on_c, 0, 66, 58
1, 67987, Control_c, 0, 64, 105
1, 68036, Note_on_c, 0, 57, 82
1, 68047, Control_c, 0, 64, 105
1, 68048, Note_on_c, 0, 73, 61
1, 68066, Note_off_c, 0, 66, 35
1, 68077, Control_c, 0, 64, 106
1, 68080, Note_off_c, 0, 73, 65
1, 68092, Control_c, 0, 64, 106
1, 68141, Note_on_c, 0, 69, 41
1, 68151, Control_c, 0, 64, 107
1, 68188, Note_off_c, 0, 69, 62
1, 68200, Note_on_c, 0, 66, 58
1, 68227, Note_off_c, 0, 66, 65
1, 68268, Note_off_c, 0, 57, 55
1, 68283, Note_on_c, 0, 62, 59
1, 68366, Note_off_c, 0, 62, 46
1, 68371, Note_on_c, 0, 57, 50
1, 68423, Note_off_c, 0, 57, 58
1, 68432, Note_on_c, 0, 54, 60
1, 68448, Control_c, 0, 64, 106
1, 68462, Control_c, 0, 64, 106
1, 68465, Note_off_c, 0, 54, 64
1, 68477, Control_c, 0, 64, 105
1, 68507, Control_c, 0, 64, 105
1, 68522, Control_c, 0, 64, 104
1, 68536, Control_c, 0, 64, 102
1, 68537, Note_on_c, 0, 59, 80
1, 68551, Control_c, 0, 64, 98
1, 68566, Control_c, 0, 64, 93
1, 68581, Control_c, 0, 64, 86
1, 68603, Control_c, 0, 64, 78
1, 68618, Control_c, 0, 64, 69
1, 68633, Control_c, 0, 64, 63
1, 68648, Control_c, 0, 64, 57
1, 68662, Control_c, 0, 64, 55
1, 68682, Note_on_c, 0, 45, 57
1, 68692, Control_c, 0, 64, 56
1, 68707, Control_c, 0, 64, 60
1, 68722, Control_c, 0, 64, 66
1, 68736, Control_c, 0, 64, 71
1, 68751, Control_c, 0, 64, 79
1, 68754, Note_off_c, 0, 45, 51
1, 68766, Control_c, 0, 64, 88
1, 68781, Control_c, 0, 64, 92
1, 68788, Note_on_c, 0, 53, 51
1, 68796, Control_c, 0, 64, 93
1, 68811, Control_c, 0, 64, 95
1, 68826, Control_c, 0, 64, 97
1, 68829, Note_off_c, 0, 59, 53
1, 68840, Control_c, 0, 64, 99
1, 68855, Control_c, 0, 64, 101
1, 68858, Note_on_c, 0, 56, 58
1, 68870, Control_c, 0, 64, 102
1, 68885, Control_c, 0, 64, 103
1, 68895, Note_off_c, 0, 53, 51
1, 68900, Control_c, 0, 64, 104
1, 68915, Control_c, 0, 64, 105
1, 68921, Note_off_c, 0, 56, 52
1, 68929, Control_c, 0, 64, 105
1, 68931, Note_on_c, 0, 62, 61
1, 68970, Note_off_c, 0, 62, 58
1, 69040, Note_on_c, 0, 65, 55
1, 69078, Control_c, 0, 64, 106
1, 69123, Control_c, 0, 64, 106
1, 69167, Control_c, 0, 64, 107
1, 69168, Note_on_c, 0, 61, 78
1, 69193, Note_on_c, 0, 73, 57
1, 69222, Note_off_c, 0, 65, 37
1, 69226, Control_c, 0, 64, 107
1, 69254, Note_off_c, 0, 73, 60
1, 69277, Note_on_c, 0, 68, 57
1, 69300, Control_c, 0, 64, 108
1, 69364, Note_on_c, 0, 65, 58
1, 69379, Note_off_c, 0, 68, 50
1, 69416, Note_off_c, 0, 65, 54
1, 69484, Note_on_c, 0, 62, 63
1, 69536, Note_off_c, 0, 61, 32
1, 69558, Note_off_c, 0, 62, 46
1, 69590, Note_on_c, 0, 56, 58
1, 69676, Note_off_c, 0, 56, 54
1, 69683, Note_on_c, 0, 53, 57
1, 69737, Note_off_c, 0, 53, 55
1, 69751, Control_c, 0, 64, 107
1, 69766, Control_c, 0, 64, 107
1, 69795, Control_c, 0, 64, 106
1, 69808, Note_on_c, 0, 61, 64
1, 69825, Control_c, 0, 64, 106
1, 69840, Control_c, 0, 64, 105
1, 69855, Control_c, 0, 64, 105
1, 69870, Control_c, 0, 64, 103
1, 69886, Control_c, 0, 64, 100
1, 69900, Control_c, 0, 64, 97
1, 69915, Control_c, 0, 64, 92
1, 69923, Note_off_c, 0, 61, 53
1, 69930, Control_c, 0, 64, 85
1, 69945, Control_c, 0, 64, 77
1, 69952, Note_on_c, 0, 64, 62
1, 69960, Control_c, 0, 64, 67
1, 69974, Control_c, 0, 64, 60
1, 69989, Control_c, 0, 64, 54
1, 70004, Control_c, 0, 64, 52
1, 70019, Control_c, 0, 64, 51
1, 70030, Note_on_c, 0, 45, 40
1, 70063, Control_c, 0, 64, 53
1, 70078, Control_c, 0, 64, 61
1, 70093, Control_c, 0, 64, 67
1, 70115, Control_c, 0, 64, 73
1, 70125, Note_on_c, 0, 52, 46
1, 70130, Control_c, 0, 64, 80
1, 70133, Note_off_c, 0, 45, 48
1, 70145, Control_c, 0, 64, 85
1, 70160, Control_c, 0, 64, 87
1, 70166, Note_off_c, 0, 52, 62
1, 70175, Control_c, 0, 64, 88
1, 70189, Control_c, 0, 64, 90
1, 70193, Note_on_c, 0, 57, 51
1, 70204, Control_c, 0, 64, 93
1, 70219, Note_off_c, 0, 57, 60
1, 70219, Note_off_c, 0, 64, 31
1, 70219, Control_c, 0, 64, 95
1, 70233, Control_c, 0, 64, 97
1, 70248, Control_c, 0, 64, 98
1, 70278, Control_c, 0, 64, 98
1, 70293, Control_c, 0, 64, 99
1, 70358, Note_on_c, 0, 63, 55
1, 70382, Note_off_c, 0, 63, 62
1, 70455, Note_on_c, 0, 73, 61
1, 70488, Note_off_c, 0, 73, 47
1, 70565, Note_on_c, 0, 69, 46
1, 70587, Note_off_c, 0, 69, 60
1, 70599, Note_on_c, 0, 64, 51
1, 70621, Note_off_c, 0, 64, 60
1, 70733, Note_on_c, 0, 61, 22
1, 70771, Note_off_c, 0, 61, 45
1, 70783, Control_c, 0, 67, 126
1, 70786, Note_on_c, 0, 56, 37
1, 70797, Control_c, 0, 67, 119
1, 70812, Control_c, 0, 67, 110
1, 70820, Note_off_c, 0, 56, 53
1, 70827, Control_c, 0, 67, 101
1, 70842, Control_c, 0, 67, 93
1, 70851, Note_on_c, 0, 52, 52
1, 70864, Control_c, 0, 67, 86
1, 70879, Control_c, 0, 67, 80
1, 70886, Note_off_c, 0, 52, 62
1, 70894, Control_c, 0, 67, 74
1, 70909, Control_c, 0, 67, 68
1, 70924, Control_c, 0, 67, 61
1, 70938, Control_c, 0, 64, 99
1, 70938, Control_c, 0, 67, 55
1, 70953, Control_c, 0, 67, 48
1, 70968, Control_c, 0, 64, 100
1, 70968, Control_c, 0, 67, 39
1, 70983, Control_c, 0, 64, 100
1, 70983, Control_c, 0, 67, 31
1, 70998, Control_c, 0, 64, 101
1, 70998, Control_c, 0, 67, 34
1, 71005, Note_on_c, 0, 45, 40
1, 71012, Control_c, 0, 64, 103
1, 71012, Control_c, 0, 67, 24
1, 71027, Control_c, 0, 64, 106
1, 71027, Control_c, 0, 67, 16
1, 71042, Control_c, 0, 64, 111
1, 71056, Control_c, 0, 64, 117
1, 71056, Control_c, 0, 67, 0
1, 71071, Control_c, 0, 64, 127
1, 71094, Note_on_c, 0, 52, 41
1, 71163, Note_on_c, 0, 57, 44
1, 71167, Note_off_c, 0, 45, 36
1, 71197, Note_off_c, 0, 52, 46
1, 71209, Note_off_c, 0, 57, 60
1, 71257, Note_on_c, 0, 61, 39
1, 71304, Note_on_c, 0, 64, 44
1, 71377, Note_on_c, 0, 69, 44
1, 71459, Note_on_c, 0, 73, 47
1, 71520, Note_off_c, 0, 73, 54
1, 71541, Note_off_c, 0, 69, 38
1, 71615, Note_on_c, 0, 76, 71
1, 71625, Note_off_c, 0, 64, 0
1, 71663, Poly_aftertouch_c, 0, 64, 127
1, 71676, Note_off_c, 0, 76, 62
1, 71710, Note_on_c, 0, 73, 48
1, 71738, Note_off_c, 0, 61, 9
1, 71742, Poly_aftertouch_c, 0, 64, 0
1, 71788, Note_on_c, 0, 69, 38
1, 71830, Note_off_c, 0, 73, 34
1, 71875, Note_off_c, 0, 69, 39
1, 71875, Note_on_c, 0, 64, 45
1, 71930, Note_on_c, 0, 61, 36
1, 71932, Note_off_c, 0, 64, 48
1, 71965, Note_off_c, 0, 61, 51
1, 72005, Note_on_c, 0, 57, 35
1, 72063, Note_off_c, 0, 57, 54
1, 72084, Note_on_c, 0, 52, 46
1, 72155, Note_off_c, 0, 52, 49
1, 72257, Note_on_c, 0, 78, 82
1, 72266, Control_c, 0, 64, 112
1, 72281, Control_c, 0, 64, 91
1, 72289, Note_on_c, 0, 45, 51
1, 72295, Control_c, 0, 64, 76
1, 72310, Control_c, 0, 64, 65
1, 72325, Control_c, 0, 64, 57
1, 72348, Control_c, 0, 64, 56
1, 72377, Control_c, 0, 64, 56
1, 72392, Control_c, 0, 64, 62
1, 72407, Control_c, 0, 64, 70
1, 72421, Control_c, 0, 64, 84
1, 72429, Note_on_c, 0, 54, 48
1, 72436, Control_c, 0, 64, 127
1, 72468, Note_off_c, 0, 78, 62
1, 72499, Note_off_c, 0, 45, 36
1, 72525, Note_on_c, 0, 57, 57
1, 72544, Note_off_c, 0, 54, 60
1, 72559, Note_off_c, 0, 57, 64
1, 72595, Note_on_c, 0, 62, 50
1, 72647, Note_on_c, 0, 66, 62
1, 72695, Note_on_c, 0, 69, 57
1, 72759, Note_on_c, 0, 73, 68
1, 72845, Note_off_c, 0, 73, 59
1, 72871, Note_off_c, 0, 69, 36
1, 72883, Note_on_c, 0, 81, 87
1, 72938, Note_off_c, 0, 81, 63
1, 72964, Note_on_c, 0, 73, 64
1, 73020, Note_off_c, 0, 66, 57
1, 73028, Note_on_c, 0, 69, 57
1, 73047, Note_off_c, 0, 62, 30
1, 73080, Note_off_c, 0, 73, 58
1, 73130, Note_on_c, 0, 66, 62
1, 73169, Note_off_c, 0, 69, 50
1, 73185, Note_on_c, 0, 62, 62
1, 73193, Note_off_c, 0, 66, 59
1, 73213, Note_off_c, 0, 62, 64
1, 73246, Note_on_c, 0, 57, 57
1, 73326, Note_off_c, 0, 57, 56
1, 73344, Note_on_c, 0, 54, 55
1, 73426, Note_off_c, 0, 54, 55
1, 73512, Note_on_c, 0, 83, 93
1, 73520, Note_on_c, 0, 45, 64
1, 73541, Control_c, 0, 64, 102
1, 73556, Control_c, 0, 64, 71
1, 73570, Control_c, 0, 64, 55
1, 73585, Control_c, 0, 64, 46
1, 73600, Control_c, 0, 64, 47
1, 73615, Control_c, 0, 64, 56
1, 73630, Control_c, 0, 64, 66
1, 73644, Control_c, 0, 64, 76
1, 73659, Control_c, 0, 64, 90
1, 73674, Control_c, 0, 64, 103
1, 73676, Note_on_c, 0, 53, 55
1, 73689, Control_c, 0, 64, 112
1, 73700, Note_off_c, 0, 83, 64
1, 73701, Note_off_c, 0, 45, 37
1, 73704, Control_c, 0, 64, 127
1, 73779, Note_on_c, 0, 56, 57
1, 73823, Note_off_c, 0, 53, 54
1, 73833, Note_on_c, 0, 59, 59
1, 73852, Note_off_c, 0, 56, 59
1, 73862, Note_off_c, 0, 59, 61
1, 73894, Note_on_c, 0, 62, 60
1, 73958, Note_on_c, 0, 65, 67
1, 74023, Note_on_c, 0, 68, 64
1, 74107, Note_on_c, 0, 71, 71
1, 74170, Note_off_c, 0, 68, 46
1, 74196, Note_off_c, 0, 71, 58
1, 74212, Note_on_c, 0, 85, 88
1, 74263, Note_off_c, 0, 85, 66
1, 74274, Note_on_c, 0, 71, 65
1, 74373, Note_off_c, 0, 65, 40
1, 74376, Note_on_c, 0, 68, 68
1, 74415, Note_off_c, 0, 62, 40
1, 74432, Note_off_c, 0, 71, 35
1, 74461, Note_on_c, 0, 65, 64
1, 74505, Note_off_c, 0, 68, 36
1, 74511, Note_on_c, 0, 62, 75
1, 74528, Note_off_c, 0, 65, 57
1, 74537, Note_off_c, 0, 62, 62
1, 74576, Note_on_c, 0, 59, 45
1, 74671, Note_on_c, 0, 56, 52
1, 74680, Note_off_c, 0, 59, 36
1, 74765, Note_on_c, 0, 53, 69
1, 74772, Note_off_c, 0, 56, 58
1, 74793, Note_off_c, 0, 53, 65
1, 74857, Note_on_c, 0, 85, 93
1, 75063, Note_on_c, 0, 45, 58
1, 75080, Note_on_c, 0, 88, 93
1, 75108, Note_off_c, 0, 85, 63
1, 75127, Control_c, 0, 64, 84
1, 75141, Control_c, 0, 64, 63
1, 75156, Control_c, 0, 64, 41
1, 75186, Control_c, 0, 64, 0
1, 75201, Control_c, 0, 64, 35
1, 75215, Control_c, 0, 64, 56
1, 75230, Control_c, 0, 64, 68
1, 75234, Note_off_c, 0, 45, 57
1, 75245, Control_c, 0, 64, 77
1, 75260, Control_c, 0, 64, 90
1, 75275, Control_c, 0, 64, 111
1, 75289, Control_c, 0, 64, 127
1, 75363, Note_off_c, 0, 88, 60
1, 75424, Note_on_c, 0, 52, 56
1, 75520, Note_on_c, 0, 57, 59
1, 75595, Note_on_c, 0, 61, 64
1, 75660, Note_on_c, 0, 64, 60
1, 75702, Note_off_c, 0, 61, 54
1, 75720, Note_on_c, 0, 69, 66
1, 75736, Note_off_c, 0, 57, 32
1, 75765, Note_on_c, 0, 73, 65
1, 75782, Note_off_c, 0, 64, 35
1, 75803, Note_off_c, 0, 69, 57
1, 75813, Note_on_c, 0, 76, 77
1, 75823, Note_off_c, 0, 73, 61
1, 75860, Poly_aftertouch_c, 0, 73, 0
1, 75868, Note_on_c, 0, 73, 58
1, 75905, Note_on_c, 0, 69, 65
1, 75909, Note_off_c, 0, 76, 60
1, 75947, Note_off_c, 0, 73, 62
1, 75953, Note_off_c, 0, 52, 56
1, 75969, Note_on_c, 0, 61, 67
1, 75972, Note_on_c, 0, 64, 64
1, 75985, Note_off_c, 0, 69, 62
1, 75999, Note_off_c, 0, 61, 61
1, 76030, Note_off_c, 0, 64, 55
1, 76033, Note_on_c, 0, 57, 63
1, 76083, Note_on_c, 0, 52, 67
1, 76101, Note_off_c, 0, 57, 61
1, 76176, Note_on_c, 0, 45, 79
1, 76183, Note_off_c, 0, 52, 59
1, 76209, Control_c, 0, 64, 110
1, 76224, Control_c, 0, 64, 72
1, 76238, Control_c, 0, 64, 54
1, 76252, Control_c, 0, 64, 46
1, 76268, Control_c, 0, 64, 47
1, 76273, Note_off_c, 0, 45, 56
1, 76281, Note_on_c, 0, 52, 67
1, 76283, Control_c, 0, 64, 58
1, 76298, Control_c, 0, 64, 67
1, 76313, Control_c, 0, 64, 77
1, 76328, Control_c, 0, 64, 88
1, 76342, Control_c, 0, 64, 101
1, 76357, Control_c, 0, 64, 115
1, 76361, Note_on_c, 0, 56, 71
1, 76372, Control_c, 0, 64, 127
1, 76426, Note_on_c, 0, 61, 76
1, 76431, Note_off_c, 0, 56, 59
1, 76454, Note_on_c, 0, 64, 66
1, 76506, Note_on_c, 0, 68, 70
1, 76546, Note_on_c, 0, 73, 70
1, 76579, Note_off_c, 0, 61, 36
1, 76579, Note_off_c, 0, 64, 36
1, 76583, Note_off_c, 0, 68, 58
1, 76607, Note_on_c, 0, 76, 77
1, 76616, Note_off_c, 0, 73, 62
1, 76663, Note_on_c, 0, 73, 63
1, 76698, Note_off_c, 0, 76, 60
1, 76699, Note_on_c, 0, 68, 68
1, 76740, Note_off_c, 0, 73, 62
1, 76758, Note_on_c, 0, 61, 59
1, 76761, Note_on_c, 0, 64, 69
1, 76789, Note_off_c, 0, 64, 63
1, 76791, Note_off_c, 0, 68, 58
1, 76813, Note_off_c, 0, 52, 46
1, 76824, Note_on_c, 0, 56, 71
1, 76826, Note_off_c, 0, 61, 58
1, 76912, Note_on_c, 0, 52, 68
1, 76920, Note_off_c, 0, 56, 58
1, 77000, Note_on_c, 0, 46, 78
1, 77016, Control_c, 0, 64, 103
1, 77031, Control_c, 0, 64, 71
1, 77036, Note_off_c, 0, 52, 56
1, 77046, Control_c, 0, 64, 54
1, 77062, Control_c, 0, 64, 37
1, 77077, Control_c, 0, 64, 33
1, 77091, Control_c, 0, 64, 36
1, 77106, Control_c, 0, 64, 50
1, 77121, Control_c, 0, 64, 64
1, 77136, Control_c, 0, 64, 76
1, 77151, Control_c, 0, 64, 89
1, 77153, Note_on_c, 0, 52, 69
1, 77165, Control_c, 0, 64, 110
1, 77180, Control_c, 0, 64, 127
1, 77244, Note_off_c, 0, 46, 56
1, 77251, Note_on_c, 0, 55, 63
1, 77302, Note_off_c, 0, 52, 49
1, 77342, Note_on_c, 0, 88, 94
1, 77346, Note_off_c, 0, 55, 57
1, 77348, Note_on_c, 0, 76, 89
1, 77366, Note_on_c, 0, 61, 59
1, 77399, Note_off_c, 0, 61, 62
1, 77491, Note_on_c, 0, 64, 56
1, 77506, Note_off_c, 0, 76, 53
1, 77546, Note_off_c, 0, 88, 53
1, 77603, Note_on_c, 0, 67, 63
1, 77625, Note_off_c, 0, 64, 48
1, 77764, Note_off_c, 0, 67, 53
1, 77770, Note_on_c, 0, 88, 89
1, 77778, Note_on_c, 0, 73, 65
1, 77780, Note_on_c, 0, 76, 77
1, 77857, Note_off_c, 0, 73, 59
1, 77885, Note_on_c, 0, 67, 56
1, 77966, Note_off_c, 0, 67, 57
1, 77975, Note_on_c, 0, 64, 59
1, 77990, Note_off_c, 0, 76, 54
1, 78005, Note_off_c, 0, 64, 65
1, 78037, Note_off_c, 0, 88, 50
1, 78103, Note_on_c, 0, 61, 28
1, 78190, Note_off_c, 0, 61, 37
1, 78192, Note_on_c, 0, 55, 43
1, 78212, Note_on_c, 0, 88, 76
1, 78221, Note_on_c, 0, 76, 70
1, 78279, Note_off_c, 0, 55, 49
1, 78284, Note_on_c, 0, 52, 52
1, 78382, Note_off_c, 0, 76, 35
1, 78387, Note_off_c, 0, 88, 50
1, 78481, Note_on_c, 0, 46, 59
1, 78484, Note_on_c, 0, 76, 77
1, 78485, Control_c, 0, 64, 106
1, 78486, Note_on_c, 0, 88, 82
1, 78487, Note_off_c, 0, 52, 55
1, 78499, Control_c, 0, 64, 77
1, 78514, Control_c, 0, 64, 66
1, 78529, Control_c, 0, 64, 66
1, 78544, Control_c, 0, 64, 70
1, 78559, Control_c, 0, 64, 83
1, 78573, Control_c, 0, 64, 117
1, 78588, Control_c, 0, 64, 127
1, 78603, Note_off_c, 0, 76, 54
1, 78606, Note_on_c, 0, 52, 66
1, 78626, Note_off_c, 0, 88, 60
1, 78666, Note_on_c, 0, 55, 64
1, 78668, Note_off_c, 0, 46, 52
1, 78684, Note_on_c, 0, 88, 87
1, 78689, Note_on_c, 0, 76, 85
1, 78710, Note_off_c, 0, 52, 55
1, 78735, Note_off_c, 0, 55, 59
1, 78739, Note_off_c, 0, 76, 63
1, 78743, Note_on_c, 0, 60, 66
1, 78748, Note_off_c, 0, 88, 61
1, 78774, Note_off_c, 0, 60, 60
1, 78820, Note_on_c, 0, 88, 96
1, 78823, Note_on_c, 0, 76, 97
1, 78849, Note_on_c, 0, 64, 67
1, 78859, Note_off_c, 0, 76, 65
1, 78864, Note_off_c, 0, 88, 64
1, 78926, Note_on_c, 0, 88, 98
1, 78928, Note_on_c, 0, 76, 100
1, 78944, Note_off_c, 0, 64, 54
1, 78961, Note_on_c, 0, 66, 38
1, 78962, Note_off_c, 0, 76, 62
1, 78968, Note_off_c, 0, 88, 66
1, 78981, Note_on_c, 0, 67, 20
1, 78989, Note_off_c, 0, 66, 56
1, 79023, Note_off_c, 0, 67, 40
1, 79037, Note_on_c, 0, 72, 74
1, 79042, Note_on_c, 0, 92, 99
1, 79047, Note_on_c, 0, 80, 93
1, 79067, Note_off_c, 0, 80, 63
1, 79090, Note_off_c, 0, 92, 64
1, 79100, Note_off_c, 0, 72, 62
1, 79135, Note_on_c, 0, 67, 52
1, 79165, Note_on_c, 0, 64, 69
1, 79166, Note_off_c, 0, 67, 64
1, 79191, Note_off_c, 0, 64, 64
1, 79256, Note_on_c, 0, 60, 66
1, 79309, Note_off_c, 0, 60, 41
1, 79323, Note_on_c, 0, 55, 65
1, 79380, Note_off_c, 0, 55, 58
1, 79381, Note_on_c, 0, 52, 58
1, 79453, Note_on_c, 0, 88, 92
1, 79455, Note_on_c, 0, 76, 97
1, 79489, Note_off_c, 0, 88, 67
1, 79491, Note_off_c, 0, 76, 65
1, 79531, Control_c, 0, 64, 74
1, 79535, Note_on_c, 0, 88, 89
1, 79536, Note_on_c, 0, 76, 97
1, 79539, Note_off_c, 0, 52, 40
1, 79543, Note_on_c, 0, 44, 82
1, 79545, Control_c, 0, 64, 51
1, 79560, Control_c, 0, 64, 42
1, 79575, Control_c, 0, 64, 56
1, 79590, Control_c, 0, 64, 69
1, 79605, Control_c, 0, 64, 82
1, 79619, Control_c, 0, 64, 111
1, 79634, Control_c, 0, 64, 127
1, 79640, Note_off_c, 0, 76, 61
1, 79642, Note_on_c, 0, 53, 71
1, 79670, Note_off_c, 0, 44, 60
1, 79683, Note_off_c, 0, 88, 62
1, 79734, Note_on_c, 0, 56, 78
1, 79775, Note_off_c, 0, 53, 57
1, 79783, Note_on_c, 0, 89, 103
1, 79785, Note_on_c, 0, 77, 100
1, 79796, Note_on_c, 0, 60, 75
1, 79803, Note_off_c, 0, 56, 61
1, 79840, Note_off_c, 0, 77, 63
1, 79863, Note_off_c, 0, 60, 53
1, 79876, Note_off_c, 0, 89, 65
1, 79909, Note_on_c, 0, 65, 72
1, 79945, Poly_aftertouch_c, 0, 64, 127
1, 79983, Poly_aftertouch_c, 0, 64, 0
1, 80005, Note_on_c, 0, 68, 56
1, 80018, Note_on_c, 0, 69, 69
1, 80077, Note_off_c, 0, 69, 59
1, 80095, Note_off_c, 0, 68, 54
1, 80124, Note_on_c, 0, 99, 104
1, 80126, Note_on_c, 0, 87, 103
1, 80133, Note_on_c, 0, 72, 94
1, 80212, Note_off_c, 0, 65, 39
1, 80214, Note_on_c, 0, 68, 71
1, 80270, Note_off_c, 0, 72, 34
1, 80311, Note_on_c, 0, 65, 73
1, 80324, Note_off_c, 0, 68, 57
1, 80362, Note_off_c, 0, 65, 61
1, 80418, Note_on_c, 0, 60, 75
1, 80485, Note_off_c, 0, 60, 52
1, 80490, Note_on_c, 0, 56, 73
1, 80564, Note_on_c, 0, 53, 76
1, 80566, Note_off_c, 0, 56, 60
1, 80627, Control_c, 0, 64, 85
1, 80642, Control_c, 0, 64, 60
1, 80653, Note_on_c, 0, 46, 84
1, 80657, Control_c, 0, 64, 20
1, 80669, Note_off_c, 0, 53, 59
1, 80672, Control_c, 0, 64, 0
1, 80686, Control_c, 0, 64, 44
1, 80701, Control_c, 0, 64, 68
1, 80716, Control_c, 0, 64, 82
1, 80718, Note_off_c, 0, 87, 58
1, 80727, Note_off_c, 0, 99, 63
1, 80731, Control_c, 0, 64, 111
1, 80746, Control_c, 0, 64, 127
1, 80761, Poly_aftertouch_c, 0, 57, 127
1, 80801, Note_on_c, 0, 53, 64
1, 80818, Poly_aftertouch_c, 0, 57, 0
1, 80915, Note_on_c, 0, 97, 93
1, 80916, Note_on_c, 0, 85, 100
1, 80921, Note_off_c, 0, 46, 36
1, 80936, Note_on_c, 0, 55, 73
1, 80946, Note_on_c, 0, 94, 54
1, 80966, Note_off_c, 0, 94, 61
1, 80991, Note_off_c, 0, 53, 49
1, 81032, Note_off_c, 0, 97, 66
1, 81041, Note_off_c, 0, 85, 59
1, 81073, Note_off_c, 0, 55, 57
1, 81091, Note_on_c, 0, 61, 63
1, 81119, Note_off_c, 0, 61, 64
1, 81209, Note_on_c, 0, 94, 101
1, 81210, Note_on_c, 0, 82, 100
1, 81229, Note_on_c, 0, 65, 78
1, 81287, Note_off_c, 0, 94, 67
1, 81319, Note_on_c, 0, 67, 67
1, 81325, Note_off_c, 0, 82, 38
1, 81381, Note_off_c, 0, 65, 36
1, 81403, Note_off_c, 0, 67, 62
1, 81414, Note_on_c, 0, 73, 80
1, 81422, Note_on_c, 0, 92, 96
1, 81426, Note_on_c, 0, 80, 98
1, 81468, Note_on_c, 0, 67, 63
1, 81471, Note_off_c, 0, 73, 63
1, 81511, Note_off_c, 0, 80, 58
1, 81514, Note_off_c, 0, 92, 65
1, 81533, Note_on_c, 0, 65, 71
1, 81542, Note_off_c, 0, 67, 63
1, 81563, Note_off_c, 0, 65, 63
1, 81592, Note_on_c, 0, 91, 93
1, 81598, Note_on_c, 0, 79, 98
1, 81632, Note_on_c, 0, 61, 79
1, 81642, Note_off_c, 0, 91, 64
1, 81643, Note_off_c, 0, 79, 65
1, 81688, Note_off_c, 0, 61, 60
1, 81691, Note_on_c, 0, 56, 66
1, 81750, Note_on_c, 0, 75, 105
1, 81750, Note_on_c, 0, 87, 94
1, 81771, Note_off_c, 0, 56, 61
1, 81773, Note_on_c, 0, 53, 76
1, 81777, Note_on_c, 0, 85, 57
1, 81796, Note_off_c, 0, 85, 65
1, 81801, Note_off_c, 0, 53, 65
1, 81840, Note_off_c, 0, 75, 48
1, 81865, Note_off_c, 0, 87, 61
1, 81896, Control_c, 0, 64, 81
1, 81911, Control_c, 0, 64, 58
1, 81926, Control_c, 0, 64, 42
1, 81932, Note_on_c, 0, 36, 88
1, 81935, Note_on_c, 0, 73, 109
1, 81936, Note_on_c, 0, 85, 95
1, 81940, Control_c, 0, 64, 52
1, 81955, Control_c, 0, 64, 66
1, 81962, Note_on_c, 0, 82, 53
1, 81970, Control_c, 0, 64, 80
1, 81983, Note_off_c, 0, 82, 63
1, 81985, Control_c, 0, 64, 106
1, 81987, Note_off_c, 0, 36, 60
1, 82000, Control_c, 0, 64, 127
1, 82046, Note_off_c, 0, 73, 61
1, 82046, Note_off_c, 0, 85, 65
1, 82109, Note_on_c, 0, 44, 60
1, 82117, Note_on_c, 0, 72, 97
1, 82120, Note_on_c, 0, 84, 77
1, 82122, Note_on_c, 0, 86, 85
1, 82138, Note_off_c, 0, 86, 73
1, 82147, Note_on_c, 0, 82, 45
1, 82149, Note_on_c, 0, 48, 56
1, 82164, Note_off_c, 0, 72, 65
1, 82171, Note_off_c, 0, 84, 62
1, 82173, Note_off_c, 0, 82, 57
1, 82193, Note_off_c, 0, 44, 60
1, 82196, Note_on_c, 0, 53, 76
1, 82203, Note_off_c, 0, 48, 60
1, 82224, Note_off_c, 0, 53, 64
1, 82272, Note_on_c, 0, 68, 102
1, 82274, Note_on_c, 0, 80, 95
1, 82280, Note_on_c, 0, 54, 78
1, 82318, Note_on_c, 0, 78, 23
1, 82323, Note_off_c, 0, 68, 60
1, 82337, Note_off_c, 0, 80, 60
1, 82353, Note_off_c, 0, 54, 61
1, 82356, Note_off_c, 0, 78, 49
1, 82369, Note_on_c, 0, 60, 53
1, 82376, Poly_aftertouch_c, 0, 56, 127
1, 82403, Note_off_c, 0, 60, 62
1, 82416, Note_on_c, 0, 79, 93
1, 82418, Note_on_c, 0, 67, 96
1, 82418, Note_on_c, 0, 68, 84
1, 82468, Note_off_c, 0, 68, 58
1, 82472, Note_off_c, 0, 67, 62
1, 82472, Note_off_c, 0, 79, 64
1, 82480, Note_on_c, 0, 60, 66
1, 82517, Poly_aftertouch_c, 0, 56, 0
1, 82529, Note_on_c, 0, 56, 52
1, 82534, Note_off_c, 0, 60, 60
1, 82563, Note_on_c, 0, 77, 97
1, 82565, Note_on_c, 0, 65, 94
1, 82571, Note_off_c, 0, 56, 61
1, 82603, Note_on_c, 0, 75, 40
1, 82608, Note_off_c, 0, 65, 64
1, 82609, Note_off_c, 0, 77, 60
1, 82616, Note_on_c, 0, 53, 78
1, 82632, Note_off_c, 0, 75, 57
1, 82686, Note_off_c, 0, 53, 52
1, 82696, Note_on_c, 0, 48, 72
1, 82718, Note_on_c, 0, 61, 100
1, 82718, Note_on_c, 0, 73, 98
1, 82750, Note_on_c, 0, 44, 69
1, 82755, Note_off_c, 0, 48, 62
1, 82782, Note_off_c, 0, 44, 63
1, 82817, Note_off_c, 0, 61, 57
1, 82833, Poly_aftertouch_c, 0, 70, 0
1, 82840, Note_off_c, 0, 73, 55
1, 82946, Note_on_c, 0, 42, 16
1, 82948, Note_on_c, 0, 73, 99
1, 82949, Note_on_c, 0, 61, 102
1, 82949, Control_c, 0, 64, 72
1, 82958, Note_on_c, 0, 36, 90
1, 82963, Control_c, 0, 64, 48
1, 82978, Control_c, 0, 64, 0
1, 82982, Note_off_c, 0, 42, 57
1, 82993, Control_c, 0, 64, 20
1, 83008, Control_c, 0, 64, 56
1, 83023, Control_c, 0, 64, 73
1, 83033, Note_off_c, 0, 36, 61
1, 83037, Control_c, 0, 64, 95
1, 83052, Control_c, 0, 64, 127
1, 83139, Note_on_c, 0, 46, 65
1, 83185, Note_off_c, 0, 61, 53
1, 83224, Note_on_c, 0, 52, 75
1, 83257, Note_off_c, 0, 46, 55
1, 83279, Note_off_c, 0, 52, 61
1, 83282, Note_on_c, 0, 55, 71
1, 83309, Note_off_c, 0, 55, 64
1, 83369, Note_on_c, 0, 58, 70
1, 83463, Note_on_c, 0, 64, 63
1, 83498, Note_off_c, 0, 58, 51
1, 83512, Note_on_c, 0, 67, 82
1, 83523, Note_off_c, 0, 64, 58
1, 83589, Note_off_c, 0, 67, 61
1, 83594, Note_on_c, 0, 64, 56
1, 83647, Note_on_c, 0, 58, 64
1, 83657, Note_off_c, 0, 64, 59
1, 83688, Note_off_c, 0, 58, 60
1, 83732, Note_on_c, 0, 55, 61
1, 83828, Note_off_c, 0, 55, 58
1, 83828, Note_on_c, 0, 52, 70
1, 83920, Note_off_c, 0, 52, 57
1, 83924, Note_on_c, 0, 46, 94
1, 83984, Note_off_c, 0, 46, 63
1, 83996, Note_off_c, 0, 73, 62
1, 84394, Note_on_c, 0, 72, 92
1, 84404, Note_on_c, 0, 60, 74
1, 84630, Note_on_c, 0, 71, 83
1, 84636, Note_off_c, 0, 72, 59
1, 84642, Note_on_c, 0, 59, 77
1, 84654, Note_off_c, 0, 60, 56
1, 84794, Note_off_c, 0, 71, 61
1, 84797, Note_on_c, 0, 72, 75
1, 84805, Note_off_c, 0, 59, 54
1, 84809, Note_on_c, 0, 60, 67
1, 84964, Note_on_c, 0, 59, 73
1, 84964, Note_on_c, 0, 71, 78
1, 84973, Note_off_c, 0, 72, 55
1, 84991, Note_off_c, 0, 60, 53
1, 85099, Note_on_c, 0, 72, 82
1, 85099, Note_off_c, 0, 71, 62
1, 85105, Note_off_c, 0, 59, 59
1, 85108, Note_on_c, 0, 60, 80
1, 85191, Note_off_c, 0, 72, 50
1, 85197, Note_on_c, 0, 71, 93
1, 85201, Note_on_c, 0, 59, 89
1, 85221, Note_off_c, 0, 60, 47
1, 85273, Note_off_c, 0, 59, 60
1, 85284, Note_on_c, 0, 72, 91
1, 85284, Note_off_c, 0, 71, 52
1, 85289, Note_on_c, 0, 60, 78
1, 85348, Note_off_c, 0, 72, 61
1, 85368, Note_on_c, 0, 59, 90
1, 85373, Note_on_c, 0, 71, 100
1, 85389, Note_off_c, 0, 60, 57
1, 85413, Note_on_c, 0, 57, 38
1, 85434, Note_off_c, 0, 71, 0
1, 85443, Note_off_c, 0, 57, 54
1, 85449, Note_off_c, 0, 59, 59
1, 85452, Note_on_c, 0, 72, 87
1, 85459, Poly_aftertouch_c, 0, 71, 0
1, 85460, Note_on_c, 0, 60, 87
1, 85535, Note_on_c, 0, 71, 94
1, 85539, Note_on_c, 0, 59, 96
1, 85568, Note_off_c, 0, 60, 58
1, 85569, Note_off_c, 0, 72, 54
1, 85575, Note_on_c, 0, 57, 34
1, 85608, Note_off_c, 0, 57, 52
1, 85616, Note_off_c, 0, 59, 61
1, 85617, Note_on_c, 0, 72, 74
1, 85630, Note_off_c, 0, 71, 63
1, 85633, Note_on_c, 0, 60, 82
1, 85683, Note_off_c, 0, 72, 59
1, 85811, Note_on_c, 0, 75, 98
1, 85818, Note_on_c, 0, 63, 88
1, 85832, Note_off_c, 0, 60, 41
1, 85874, Note_off_c, 0, 75, 62
1, 85885, Control_c, 0, 64, 105
1, 85900, Control_c, 0, 64, 86
1, 85902, Note_on_c, 0, 61, 93
1, 85906, Note_on_c, 0, 73, 101
1, 85914, Control_c, 0, 64, 65
1, 85926, Note_off_c, 0, 63, 58
1, 85929, Control_c, 0, 64, 44
1, 85944, Control_c, 0, 64, 0
1, 86018, Control_c, 0, 64, 34
1, 86033, Control_c, 0, 64, 58
1, 86048, Control_c, 0, 64, 67
1, 86062, Control_c, 0, 64, 73
1, 86077, Control_c, 0, 64, 81
1, 86092, Control_c, 0, 64, 91
1, 86106, Control_c, 0, 64, 103
1, 86121, Control_c, 0, 64, 118
1, 86136, Note_off_c, 0, 73, 60
1, 86136, Control_c, 0, 64, 127
1, 86157, Note_off_c, 0, 61, 57
1, 86675, Note_on_c, 0, 60, 87
1, 86676, Note_on_c, 0, 72, 90
1, 86708, Note_off_c, 0, 60, 57
1, 86710, Note_off_c, 0, 72, 59
1, 86753, Note_on_c, 0, 60, 90
1, 86753, Note_on_c, 0, 72, 90
1, 86759, Note_on_c, 0, 29, 91
1, 86797, Control_c, 0, 64, 90
1, 86811, Control_c, 0, 64, 65
1, 86826, Control_c, 0, 64, 38
1, 86841, Control_c, 0, 64, 0
1, 86974, Control_c, 0, 64, 34
1, 86989, Control_c, 0, 64, 53
1, 87003, Control_c, 0, 64, 60
1, 87018, Control_c, 0, 64, 62
1, 87033, Control_c, 0, 64, 64
1, 87048, Control_c, 0, 64, 66
1, 87063, Control_c, 0, 64, 69
1, 87078, Control_c, 0, 64, 75
1, 87093, Control_c, 0, 64, 85
1, 87100, Note_off_c, 0, 29, 61
1, 87107, Control_c, 0, 64, 100
1, 87122, Control_c, 0, 64, 127
1, 87513, Note_on_c, 0, 41, 57
1, 87581, Note_off_c, 0, 41, 54
1, 87613, Note_off_c, 0, 60, 33
1, 87650, Note_off_c, 0, 72, 45
1, 87710, Note_on_c, 0, 48, 54
1, 87826, Note_on_c, 0, 57, 55
1, 87835, Note_on_c, 0, 53, 53
1, 87882, Note_off_c, 0, 57, 55
1, 87891, Note_off_c, 0, 48, 34
1, 87923, Note_off_c, 0, 53, 46
1, 87941, Note_on_c, 0, 57, 50
1, 88006, Note_on_c, 0, 60, 62
1, 88009, Note_off_c, 0, 57, 60
1, 88077, Note_off_c, 0, 60, 56
1, 88079, Note_on_c, 0, 65, 62
1, 88088, Note_on_c, 0, 69, 63
1, 88104, Note_off_c, 0, 65, 66
1, 88116, Note_off_c, 0, 69, 64
1, 88154, Note_on_c, 0, 69, 74
1, 88207, Note_off_c, 0, 69, 64
1, 88210, Note_on_c, 0, 72, 79
1, 88278, Note_on_c, 0, 77, 74
1, 88279, Note_on_c, 0, 81, 77
1, 88282, Note_off_c, 0, 72, 61
1, 88319, Note_off_c, 0, 77, 57
1, 88329, Note_off_c, 0, 81, 62
1, 88349, Note_on_c, 0, 81, 79
1, 88410, Note_on_c, 0, 84, 86
1, 88410, Note_off_c, 0, 81, 64
1, 88461, Note_on_c, 0, 89, 78
1, 88461, Note_on_c, 0, 93, 83
1, 88467, Note_off_c, 0, 84, 62
1, 88503, Note_off_c, 0, 93, 62
1, 88506, Note_off_c, 0, 89, 59
1, 88531, Note_on_c, 0, 93, 82
1, 88533, Note_on_c, 0, 89, 73
1, 88610, Note_on_c, 0, 84, 84
1, 88628, Note_off_c, 0, 93, 56
1, 88649, Note_off_c, 0, 89, 58
1, 88676, Note_off_c, 0, 84, 61
1, 88678, Note_on_c, 0, 81, 76
1, 88708, Note_off_c, 0, 81, 61
1, 88757, Note_on_c, 0, 81, 76
1, 88758, Note_on_c, 0, 60, 102
1, 88762, Note_on_c, 0, 77, 82
1, 88763, Note_on_c, 0, 48, 84
1, 88854, Note_on_c, 0, 72, 71
1, 88871, Note_off_c, 0, 77, 47
1, 88875, Note_off_c, 0, 81, 59
1, 88924, Note_off_c, 0, 72, 60
1, 88931, Note_on_c, 0, 69, 71
1, 88972, Note_off_c, 0, 69, 58
1, 89019, Note_on_c, 0, 69, 62
1, 89027, Note_on_c, 0, 65, 72
1, 89065, Note_off_c, 0, 48, 53
1, 89074, Note_off_c, 0, 60, 55
1, 89105, Note_on_c, 0, 60, 53
1, 89116, Note_off_c, 0, 69, 62
1, 89120, Note_off_c, 0, 65, 57
1, 89176, Note_off_c, 0, 60, 57
1, 89194, Note_on_c, 0, 57, 72
1, 89313, Note_on_c, 0, 62, 98
1, 89317, Note_on_c, 0, 50, 77
1, 89323, Control_c, 0, 64, 123
1, 89338, Control_c, 0, 64, 75
1, 89353, Control_c, 0, 64, 57
1, 89368, Control_c, 0, 64, 49
1, 89383, Control_c, 0, 64, 51
1, 89397, Control_c, 0, 64, 62
1, 89412, Control_c, 0, 64, 72
1, 89416, Note_off_c, 0, 62, 58
1, 89427, Control_c, 0, 64, 86
1, 89441, Control_c, 0, 64, 110
1, 89447, Note_off_c, 0, 57, 36
1, 89454, Note_off_c, 0, 50, 61
1, 89456, Control_c, 0, 64, 127
1, 89552, Note_on_c, 0, 41, 71
1, 89562, Note_on_c, 0, 59, 73
1, 89620, Note_off_c, 0, 41, 61
1, 89629, Note_on_c, 0, 62, 64
1, 89629, Note_off_c, 0, 59, 62
1, 89631, Note_on_c, 0, 47, 69
1, 89646, Note_on_c, 0, 65, 69
1, 89658, Note_on_c, 0, 50, 73
1, 89695, Note_off_c, 0, 47, 59
1, 89704, Note_off_c, 0, 50, 58
1, 89708, Note_off_c, 0, 62, 51
1, 89733, Note_on_c, 0, 69, 77
1, 89754, Note_off_c, 0, 65, 59
1, 89780, Note_off_c, 0, 69, 65
1, 89817, Note_on_c, 0, 65, 100
1, 89826, Note_on_c, 0, 69, 88
1, 89826, Note_on_c, 0, 53, 93
1, 89860, Note_on_c, 0, 56, 38
1, 89877, Note_off_c, 0, 69, 67
1, 89892, Note_off_c, 0, 56, 55
1, 89901, Note_on_c, 0, 71, 70
1, 89902, Note_on_c, 0, 74, 77
1, 89960, Note_off_c, 0, 71, 60
1, 89985, Note_on_c, 0, 81, 83
1, 89997, Note_off_c, 0, 74, 62
1, 90023, Note_off_c, 0, 81, 61
1, 90053, Note_on_c, 0, 81, 77
1, 90098, Note_off_c, 0, 81, 67
1, 90112, Note_on_c, 0, 83, 59
1, 90118, Note_on_c, 0, 86, 90
1, 90165, Note_off_c, 0, 83, 62
1, 90166, Note_off_c, 0, 53, 57
1, 90187, Note_on_c, 0, 93, 96
1, 90196, Note_off_c, 0, 86, 65
1, 90200, Note_off_c, 0, 65, 51
1, 90232, Note_off_c, 0, 93, 64
1, 90296, Note_on_c, 0, 67, 102
1, 90303, Note_on_c, 0, 55, 84
1, 90309, Control_c, 0, 64, 117
1, 90332, Control_c, 0, 64, 78
1, 90346, Control_c, 0, 64, 61
1, 90361, Control_c, 0, 64, 57
1, 90376, Control_c, 0, 64, 65
1, 90391, Control_c, 0, 64, 80
1, 90405, Control_c, 0, 64, 127
1, 90413, Note_off_c, 0, 67, 56
1, 90461, Note_off_c, 0, 55, 62
1, 90468, Note_on_c, 0, 66, 33
1, 90511, Note_off_c, 0, 66, 45
1, 90547, Note_on_c, 0, 58, 82
1, 90563, Note_on_c, 0, 41, 70
1, 90566, Note_on_c, 0, 46, 69
1, 90599, Note_off_c, 0, 58, 62
1, 90622, Note_on_c, 0, 64, 72
1, 90629, Note_on_c, 0, 61, 59
1, 90643, Note_on_c, 0, 49, 75
1, 90661, Note_off_c, 0, 61, 64
1, 90685, Note_off_c, 0, 46, 57
1, 90686, Note_off_c, 0, 41, 61
1, 90694, Note_on_c, 0, 52, 66
1, 90708, Note_off_c, 0, 49, 62
1, 90722, Note_on_c, 0, 69, 87
1, 90723, Note_off_c, 0, 52, 64
1, 90732, Poly_aftertouch_c, 0, 66, 0
1, 90735, Note_off_c, 0, 64, 60
1, 90769, Note_off_c, 0, 69, 65
1, 90860, Note_on_c, 0, 70, 97
1, 90865, Note_on_c, 0, 69, 110
1, 90872, Note_on_c, 0, 57, 91
1, 90908, Note_off_c, 0, 70, 65
1, 90957, Poly_aftertouch_c, 0, 60, 127
1, 90958, Note_on_c, 0, 76, 69
1, 90983, Poly_aftertouch_c, 0, 71, 0
1, 90992, Poly_aftertouch_c, 0, 59, 0
1, 90999, Poly_aftertouch_c, 0, 60, 0
1, 91040, Note_off_c, 0, 76, 63
1, 91041, Note_on_c, 0, 81, 87
1, 91090, Note_off_c, 0, 81, 65
1, 91092, Poly_aftertouch_c, 0, 78, 127
1, 91120, Poly_aftertouch_c, 0, 78, 0
1, 91158, Note_on_c, 0, 82, 53
1, 91159, Note_off_c, 0, 82, 127
1, 91189, Note_on_c, 0, 84, 42
1, 91203, Note_on_c, 0, 83, 35
1, 91214, Note_off_c, 0, 84, 55
1, 91218, Note_on_c, 0, 88, 76
1, 91219, Note_off_c, 0, 57, 50
1, 91224, Note_on_c, 0, 89, 57
1, 91236, Note_off_c, 0, 83, 52
1, 91245, Note_off_c, 0, 89, 61
1, 91286, Note_off_c, 0, 69, 58
1, 91297, Note_off_c, 0, 88, 60
1, 91305, Note_on_c, 0, 93, 90
1, 91334, Note_on_c, 0, 91, 45
1, 91335, Note_off_c, 0, 91, 127
1, 91352, Note_off_c, 0, 93, 64
1, 91463, Note_on_c, 0, 60, 82
1, 91463, Note_on_c, 0, 72, 102
1, 91481, Control_c, 0, 64, 72
1, 91496, Control_c, 0, 64, 42
1, 91511, Control_c, 0, 64, 0
1, 91525, Control_c, 0, 64, 44
1, 91540, Control_c, 0, 64, 67
1, 91555, Control_c, 0, 64, 86
1, 91570, Control_c, 0, 64, 127
1, 91600, Note_off_c, 0, 72, 61
1, 91645, Note_off_c, 0, 60, 59
1, 91843, Note_on_c, 0, 57, 83
1, 91913, Note_off_c, 0, 57, 62
1, 91920, Note_on_c, 0, 60, 70
1, 91925, Poly_aftertouch_c, 0, 55, 127
1, 91931, Note_on_c, 0, 41, 80
1, 91936, Note_on_c, 0, 29, 69
1, 91940, Note_on_c, 0, 33, 74
1, 91940, Note_on_c, 0, 36, 77
1, 91964, Poly_aftertouch_c, 0, 55, 0
1, 91966, Note_on_c, 0, 65, 70
1, 91967, Note_off_c, 0, 29, 63
1, 91969, Note_off_c, 0, 41, 61
1, 91975, Note_on_c, 0, 40, 25
1, 91981, Note_on_c, 0, 69, 79
1, 91982, Note_off_c, 0, 60, 58
1, 91983, Note_off_c, 0, 33, 61
1, 91998, Note_off_c, 0, 36, 59
1, 92008, Note_off_c, 0, 65, 64
1, 92014, Note_on_c, 0, 41, 94
1, 92017, Note_on_c, 0, 36, 69
1, 92019, Note_off_c, 0, 40, 0
1, 92020, Note_on_c, 0, 33, 76
1, 92021, Note_off_c, 0, 69, 58
1, 92024, Note_on_c, 0, 29, 95
1, 92041, Note_on_c, 0, 69, 80
1, 92106, Note_off_c, 0, 69, 63
1, 92112, Note_on_c, 0, 72, 83
1, 92144, Poly_aftertouch_c, 0, 40, 0
1, 92175, Note_on_c, 0, 81, 75
1, 92176, Note_on_c, 0, 77, 65
1, 92180, Note_off_c, 0, 72, 62
1, 92208, Note_off_c, 0, 77, 61
1, 92223, Note_off_c, 0, 81, 62
1, 92252, Note_on_c, 0, 81, 73
1, 92315, Note_on_c, 0, 84, 81
1, 92318, Note_off_c, 0, 81, 63
1, 92339, Note_off_c, 0, 29, 51
1, 92358, Note_on_c, 0, 93, 79
1, 92362, Note_on_c, 0, 89, 76
1, 92367, Poly_aftertouch_c, 0, 83, 0
1, 92370, Note_off_c, 0, 84, 59
1, 92397, Note_off_c, 0, 33, 55
1, 92403, Note_off_c, 0, 36, 56
1, 92404, Note_off_c, 0, 93, 60
1, 92411, Note_off_c, 0, 89, 57
1, 92427, Note_off_c, 0, 41, 58
1, 92435, Note_on_c, 0, 89, 59
1, 92437, Note_on_c, 0, 93, 68
1, 92521, Note_on_c, 0, 84, 71
1, 92536, Note_off_c, 0, 93, 52
1, 92550, Note_off_c, 0, 89, 58
1, 92586, Note_off_c, 0, 84, 60
1, 92589, Note_on_c, 0, 81, 71
1, 92616, Note_off_c, 0, 81, 63
1, 92682, Note_on_c, 0, 81, 62
1, 92685, Note_on_c, 0, 77, 62
1, 92748, Note_on_c, 0, 72, 65
1, 92759, Note_off_c, 0, 81, 50
1, 92760, Note_off_c, 0, 77, 53
1, 92816, Note_on_c, 0, 69, 65
1, 92816, Note_off_c, 0, 72, 56
1, 92932, Note_on_c, 0, 81, 52
1, 92933, Note_off_c, 0, 69, 36
1, 92938, Note_on_c, 0, 60, 89
1, 92943, Note_on_c, 0, 77, 38
1, 92949, Note_on_c, 0, 48, 74
1, 92963, Control_c, 0, 64, 97
1, 92978, Control_c, 0, 64, 80
1, 92992, Control_c, 0, 64, 68
1, 93007, Control_c, 0, 64, 62
1, 93022, Control_c, 0, 64, 61
1, 93038, Control_c, 0, 64, 61
1, 93046, Note_on_c, 0, 72, 55
1, 93053, Control_c, 0, 64, 66
1, 93068, Control_c, 0, 64, 71
1, 93076, Note_off_c, 0, 81, 36
1, 93077, Note_off_c, 0, 77, 51
1, 93083, Control_c, 0, 64, 82
1, 93097, Control_c, 0, 64, 99
1, 93109, Note_off_c, 0, 72, 57
1, 93112, Control_c, 0, 64, 127
1, 93117, Note_on_c, 0, 69, 59
1, 93148, Note_off_c, 0, 69, 64
1, 93200, Note_off_c, 0, 48, 57
1, 93208, Note_off_c, 0, 60, 54
1, 93215, Note_on_c, 0, 69, 47
1, 93224, Note_on_c, 0, 65, 51
1, 93284, Note_off_c, 0, 65, 58
1, 93284, Note_off_c, 0, 69, 59
1, 93294, Note_on_c, 0, 60, 53
1, 93333, Note_off_c, 0, 60, 63
1, 93361, Note_on_c, 0, 57, 72
1, 93365, Poly_aftertouch_c, 0, 62, 127
1, 93405, Poly_aftertouch_c, 0, 62, 0
1, 93457, Note_on_c, 0, 50, 78
1, 93463, Note_on_c, 0, 62, 95
1, 93475, Control_c, 0, 64, 84
1, 93490, Control_c, 0, 64, 64
1, 93504, Control_c, 0, 64, 57
1, 93519, Control_c, 0, 64, 61
1, 93534, Control_c, 0, 64, 72
1, 93548, Note_off_c, 0, 62, 61
1, 93549, Control_c, 0, 64, 97
1, 93564, Control_c, 0, 64, 127
1, 93587, Note_off_c, 0, 50, 62
1, 93590, Note_off_c, 0, 57, 34
1, 93634, Poly_aftertouch_c, 0, 66, 127
1, 93673, Poly_aftertouch_c, 0, 66, 0
1, 93681, Note_on_c, 0, 41, 72
1, 93688, Note_on_c, 0, 59, 71
1, 93725, Note_on_c, 0, 47, 59
1, 93734, Note_on_c, 0, 62, 70
1, 93740, Note_off_c, 0, 59, 62
1, 93764, Note_on_c, 0, 65, 71
1, 93769, Note_off_c, 0, 41, 59
1, 93770, Note_on_c, 0, 50, 77
1, 93810, Note_off_c, 0, 47, 59
1, 93818, Note_off_c, 0, 50, 59
1, 93821, Note_off_c, 0, 62, 57
1, 93851, Note_on_c, 0, 69, 77
1, 93866, Note_off_c, 0, 65, 58
1, 93893, Note_off_c, 0, 69, 65
1, 93922, Note_on_c, 0, 65, 92
1, 93924, Note_on_c, 0, 69, 86
1, 93931, Note_on_c, 0, 53, 95
1, 93948, Note_on_c, 0, 56, 62
1, 93970, Note_off_c, 0, 56, 62
1, 93978, Note_off_c, 0, 69, 65
1, 94001, Note_on_c, 0, 71, 76
1, 94004, Note_on_c, 0, 74, 84
1, 94080, Note_off_c, 0, 71, 60
1, 94098, Note_on_c, 0, 81, 86
1, 94113, Note_off_c, 0, 74, 62
1, 94136, Note_off_c, 0, 81, 59
1, 94160, Note_on_c, 0, 81, 81
1, 94214, Note_off_c, 0, 81, 66
1, 94235, Note_on_c, 0, 86, 92
1, 94236, Note_on_c, 0, 83, 91
1, 94278, Note_off_c, 0, 83, 63
1, 94297, Note_on_c, 0, 93, 100
1, 94301, Note_off_c, 0, 65, 53
1, 94306, Note_off_c, 0, 86, 66
1, 94310, Note_off_c, 0, 53, 36
1, 94326, Note_off_c, 0, 93, 68
1, 94372, Control_c, 0, 64, 88
1, 94383, Note_on_c, 0, 67, 111
1, 94386, Note_on_c, 0, 55, 77
1, 94387, Control_c, 0, 64, 60
1, 94402, Control_c, 0, 64, 40
1, 94417, Control_c, 0, 64, 50
1, 94432, Control_c, 0, 64, 65
1, 94446, Control_c, 0, 64, 82
1, 94461, Control_c, 0, 64, 127
1, 94476, Note_off_c, 0, 67, 59
1, 94521, Note_off_c, 0, 55, 61
1, 94626, Note_on_c, 0, 41, 75
1, 94626, Note_on_c, 0, 58, 84
1, 94636, Note_on_c, 0, 46, 71
1, 94692, Note_off_c, 0, 58, 60
1, 94705, Note_on_c, 0, 61, 73
1, 94706, Note_on_c, 0, 47, 57
1, 94717, Note_on_c, 0, 64, 76
1, 94718, Note_on_c, 0, 49, 73
1, 94747, Note_off_c, 0, 47, 60
1, 94757, Note_off_c, 0, 46, 54
1, 94766, Note_off_c, 0, 61, 61
1, 94768, Note_on_c, 0, 52, 80
1, 94773, Note_off_c, 0, 41, 62
1, 94786, Note_off_c, 0, 49, 61
1, 94815, Note_on_c, 0, 69, 92
1, 94820, Note_off_c, 0, 52, 60
1, 94829, Note_off_c, 0, 64, 61
1, 94867, Note_off_c, 0, 69, 65
1, 94941, Note_on_c, 0, 70, 100
1, 94952, Note_on_c, 0, 69, 111
1, 94956, Note_on_c, 0, 57, 94
1, 94993, Note_off_c, 0, 70, 63
1, 95018, Note_on_c, 0, 75, 80
1, 95043, Poly_aftertouch_c, 0, 59, 127
1, 95095, Note_on_c, 0, 76, 65
1, 95095, Note_off_c, 0, 75, 60
1, 95123, Note_on_c, 0, 81, 85
1, 95123, Note_off_c, 0, 76, 63
1, 95162, Note_off_c, 0, 81, 66
1, 95208, Note_on_c, 0, 82, 89
1, 95243, Note_on_c, 0, 83, 68
1, 95245, Note_off_c, 0, 82, 61
1, 95268, Note_off_c, 0, 83, 54
1, 95271, Note_on_c, 0, 81, 47
1, 95281, Note_on_c, 0, 88, 80
1, 95287, Note_off_c, 0, 57, 54
1, 95294, Note_off_c, 0, 81, 59
1, 95332, Poly_aftertouch_c, 0, 59, 0
1, 95355, Note_on_c, 0, 93, 100
1, 95359, Note_off_c, 0, 69, 53
1, 95361, Note_off_c, 0, 88, 61
1, 95400, Note_off_c, 0, 93, 67
1, 95475, Note_on_c, 0, 60, 85
1, 95476, Note_on_c, 0, 72, 115
1, 95492, Control_c, 0, 64, 71
1, 95505, Note_on_c, 0, 65, 44
1, 95507, Control_c, 0, 64, 28
1, 95508, Note_on_c, 0, 62, 46
1, 95522, Control_c, 0, 64, 0
1, 95536, Control_c, 0, 64, 39
1, 95545, Note_off_c, 0, 65, 45
1, 95551, Control_c, 0, 64, 68
1, 95573, Control_c, 0, 64, 94
1, 95588, Control_c, 0, 64, 127
1, 95620, Note_off_c, 0, 72, 59
1, 95623, Note_off_c, 0, 62, 34
1, 95665, Note_off_c, 0, 60, 61
1, 95815, Note_on_c, 0, 57, 96
1, 95880, Note_off_c, 0, 57, 65
1, 95899, Note_on_c, 0, 60, 83
1, 95934, Note_on_c, 0, 41, 84
1, 95942, Note_on_c, 0, 29, 66
1, 95944, Note_on_c, 0, 33, 76
1, 95952, Note_on_c, 0, 36, 73
1, 95961, Note_on_c, 0, 65, 70
1, 95970, Note_off_c, 0, 29, 64
1, 95982, Note_off_c, 0, 60, 60
1, 95985, Note_off_c, 0, 41, 63
1, 95989, Note_on_c, 0, 69, 79
1, 95994, Note_off_c, 0, 33, 60
1, 96008, Note_off_c, 0, 36, 58
1, 96017, Note_off_c, 0, 65, 63
1, 96023, Note_on_c, 0, 41, 94
1, 96025, Note_on_c, 0, 36, 70
1, 96027, Note_on_c, 0, 33, 80
1, 96029, Note_on_c, 0, 29, 92
1, 96033, Note_off_c, 0, 69, 59
1, 96053, Note_on_c, 0, 67, 92
1, 96059, Note_on_c, 0, 69, 74
1, 96112, Note_off_c, 0, 67, 64
1, 96115, Note_off_c, 0, 69, 62
1, 96122, Note_on_c, 0, 72, 86
1, 96196, Note_off_c, 0, 72, 61
1, 96198, Note_on_c, 0, 81, 79
1, 96206, Note_on_c, 0, 77, 63
1, 96230, Note_off_c, 0, 77, 66
1, 96248, Note_off_c, 0, 81, 62
1, 96274, Note_on_c, 0, 81, 82
1, 96298, Note_off_c, 0, 29, 56
1, 96342, Note_on_c, 0, 84, 85
1, 96346, Note_off_c, 0, 81, 64
1, 96352, Note_off_c, 0, 33, 58
1, 96357, Note_off_c, 0, 36, 56
1, 96375, Note_off_c, 0, 41, 61
1, 96397, Note_on_c, 0, 89, 81
1, 96397, Note_on_c, 0, 93, 86
1, 96402, Note_off_c, 0, 84, 62
1, 96439, Note_off_c, 0, 93, 62
1, 96444, Note_off_c, 0, 89, 57
1, 96467, Note_on_c, 0, 93, 84
1, 96470, Note_on_c, 0, 89, 75
1, 96554, Note_on_c, 0, 84, 84
1, 96555, Note_off_c, 0, 93, 52
1, 96595, Note_off_c, 0, 89, 59
1, 96618, Note_on_c, 0, 81, 80
1, 96620, Note_off_c, 0, 84, 60
1, 96654, Note_off_c, 0, 81, 60
1, 96694, Note_on_c, 0, 81, 68
1, 96700, Note_on_c, 0, 77, 83
1, 96775, Note_on_c, 0, 72, 74
1, 96806, Note_off_c, 0, 77, 58
1, 96811, Note_off_c, 0, 81, 46
1, 96831, Note_on_c, 0, 69, 80
1, 96854, Note_off_c, 0, 72, 59
1, 96892, Note_off_c, 0, 69, 62
1, 96918, Note_on_c, 0, 48, 102
1, 96924, Note_on_c, 0, 40, 87
1, 96926, Note_on_c, 0, 81, 89
1, 96931, Note_on_c, 0, 45, 88
1, 96936, Note_on_c, 0, 77, 73
1, 96944, Control_c, 0, 64, 109
1, 96959, Control_c, 0, 64, 75
1, 96974, Control_c, 0, 64, 53
1, 96989, Control_c, 0, 64, 0
1, 97020, Note_on_c, 0, 72, 68
1, 97024, Note_off_c, 0, 81, 57
1, 97034, Control_c, 0, 64, 29
1, 97049, Control_c, 0, 64, 56
1, 97071, Control_c, 0, 64, 66
1, 97073, Note_off_c, 0, 77, 57
1, 97086, Control_c, 0, 64, 74
1, 97101, Note_on_c, 0, 69, 73
1, 97101, Control_c, 0, 64, 84
1, 97105, Note_off_c, 0, 72, 61
1, 97115, Control_c, 0, 64, 95
1, 97130, Control_c, 0, 64, 107
1, 97138, Note_off_c, 0, 69, 59
1, 97145, Control_c, 0, 64, 112
1, 97160, Control_c, 0, 64, 116
1, 97175, Control_c, 0, 64, 123
1, 97189, Control_c, 0, 64, 127
1, 97196, Note_on_c, 0, 69, 61
1, 97201, Note_on_c, 0, 65, 70
1, 97219, Note_off_c, 0, 40, 51
1, 97266, Note_on_c, 0, 60, 72
1, 97275, Note_off_c, 0, 69, 61
1, 97283, Note_off_c, 0, 65, 55
1, 97333, Note_on_c, 0, 57, 73
1, 97335, Note_off_c, 0, 60, 57
1, 97350, Note_on_c, 0, 39, 70
1, 97356, Note_off_c, 0, 45, 55
1, 97403, Note_on_c, 0, 42, 65
1, 97477, Note_off_c, 0, 57, 35
1, 97478, Note_off_c, 0, 48, 56
1, 97489, Note_on_c, 0, 45, 64
1, 97565, Note_on_c, 0, 48, 102
1, 97590, Control_c, 0, 64, 110
1, 97605, Control_c, 0, 64, 81
1, 97620, Control_c, 0, 64, 59
1, 97635, Control_c, 0, 64, 0
1, 97664, Control_c, 0, 64, 19
1, 97679, Control_c, 0, 64, 54
1, 97688, Note_off_c, 0, 45, 58
1, 97694, Control_c, 0, 64, 67
1, 97698, Note_off_c, 0, 42, 58
1, 97708, Control_c, 0, 64, 76
1, 97723, Control_c, 0, 64, 88
1, 97732, Note_off_c, 0, 39, 58
1, 97738, Control_c, 0, 64, 102
1, 97753, Control_c, 0, 64, 112
1, 97768, Control_c, 0, 64, 121
1, 97782, Control_c, 0, 64, 127
1, 97836, Note_on_c, 0, 57, 73
1, 97920, Note_off_c, 0, 57, 63
1, 97921, Note_on_c, 0, 60, 72
1, 97931, Note_on_c, 0, 37, 76
1, 97973, Note_off_c, 0, 37, 62
1, 97975, Note_off_c, 0, 48, 62
1, 98028, Note_off_c, 0, 60, 56
1, 98040, Note_on_c, 0, 66, 66
1, 98043, Note_on_c, 0, 69, 71
1, 98071, Note_off_c, 0, 66, 63
1, 98091, Note_off_c, 0, 69, 62
1, 98161, Control_c, 0, 64, 89
1, 98176, Control_c, 0, 64, 66
1, 98180, Note_on_c, 0, 57, 96
1, 98181, Note_on_c, 0, 69, 93
1, 98190, Note_on_c, 0, 52, 89
1, 98191, Control_c, 0, 64, 51
1, 98197, Note_on_c, 0, 49, 86
1, 98205, Control_c, 0, 64, 52
1, 98220, Control_c, 0, 64, 64
1, 98235, Control_c, 0, 64, 78
1, 98250, Control_c, 0, 64, 113
1, 98256, Note_off_c, 0, 57, 62
1, 98265, Control_c, 0, 64, 127
1, 98273, Note_off_c, 0, 52, 60
1, 98278, Note_on_c, 0, 73, 71
1, 98292, Note_off_c, 0, 49, 60
1, 98294, Note_off_c, 0, 69, 48
1, 98339, Note_on_c, 0, 78, 63
1, 98350, Note_on_c, 0, 81, 63
1, 98352, Note_off_c, 0, 73, 62
1, 98384, Note_off_c, 0, 78, 63
1, 98390, Note_off_c, 0, 81, 56
1, 98438, Note_on_c, 0, 81, 63
1, 98471, Note_on_c, 0, 83, 37
1, 98486, Note_on_c, 0, 36, 77
1, 98507, Note_on_c, 0, 85, 69
1, 98524, Note_off_c, 0, 36, 61
1, 98530, Note_off_c, 0, 83, 38
1, 98547, Note_off_c, 0, 81, 55
1, 98572, Note_off_c, 0, 85, 61
1, 98587, Note_on_c, 0, 93, 76
1, 98607, Note_off_c, 0, 93, 67
1, 98717, Control_c, 0, 64, 101
1, 98732, Control_c, 0, 64, 70
1, 98739, Note_on_c, 0, 56, 99
1, 98745, Note_on_c, 0, 48, 70
1, 98747, Control_c, 0, 64, 47
1, 98755, Note_on_c, 0, 51, 74
1, 98761, Control_c, 0, 64, 36
1, 98776, Control_c, 0, 64, 52
1, 98791, Control_c, 0, 64, 68
1, 98806, Control_c, 0, 64, 82
1, 98817, Note_off_c, 0, 56, 63
1, 98821, Control_c, 0, 64, 113
1, 98827, Note_off_c, 0, 48, 60
1, 98835, Control_c, 0, 64, 127
1, 98844, Note_on_c, 0, 68, 72
1, 98847, Note_off_c, 0, 51, 61
1, 98918, Note_off_c, 0, 68, 59
1, 98921, Note_on_c, 0, 72, 58
1, 98980, Note_on_c, 0, 80, 73
1, 98986, Note_off_c, 0, 72, 54
1, 98996, Note_on_c, 0, 32, 67
1, 99038, Note_off_c, 0, 80, 61
1, 99049, Note_off_c, 0, 32, 62
1, 99088, Note_on_c, 0, 80, 52
1, 99161, Note_on_c, 0, 84, 73
1, 99171, Note_off_c, 0, 80, 52
1, 99225, Note_on_c, 0, 51, 97
1, 99231, Note_on_c, 0, 44, 77
1, 99234, Note_off_c, 0, 84, 58
1, 99235, Control_c, 0, 64, 106
1, 99241, Note_on_c, 0, 92, 87
1, 99246, Note_on_c, 0, 48, 70
1, 99250, Control_c, 0, 64, 71
1, 99265, Control_c, 0, 64, 35
1, 99279, Control_c, 0, 64, 0
1, 99317, Control_c, 0, 64, 38
1, 99332, Control_c, 0, 64, 63
1, 99336, Note_on_c, 0, 84, 67
1, 99347, Control_c, 0, 64, 74
1, 99356, Note_off_c, 0, 48, 58
1, 99359, Note_off_c, 0, 92, 61
1, 99361, Control_c, 0, 64, 86
1, 99368, Note_off_c, 0, 51, 55
1, 99376, Control_c, 0, 64, 104
1, 99390, Note_off_c, 0, 44, 55
1, 99391, Control_c, 0, 64, 127
1, 99396, Note_off_c, 0, 84, 61
1, 99403, Note_on_c, 0, 80, 68
1, 99426, Note_off_c, 0, 80, 67
1, 99466, Note_on_c, 0, 87, 69
1, 99531, Note_on_c, 0, 80, 68
1, 99537, Note_on_c, 0, 37, 66
1, 99565, Note_off_c, 0, 87, 59
1, 99589, Note_on_c, 0, 75, 67
1, 99600, Note_off_c, 0, 80, 58
1, 99624, Note_off_c, 0, 37, 59
1, 99626, Note_on_c, 0, 44, 68
1, 99629, Note_off_c, 0, 75, 58
1, 99695, Note_on_c, 0, 49, 74
1, 99803, Note_on_c, 0, 54, 95
1, 99821, Control_c, 0, 64, 98
1, 99836, Control_c, 0, 64, 80
1, 99851, Control_c, 0, 64, 64
1, 99866, Control_c, 0, 64, 50
1, 99881, Control_c, 0, 64, 36
1, 99896, Control_c, 0, 64, 31
1, 99925, Control_c, 0, 64, 34
1, 99940, Control_c, 0, 64, 47
1, 99955, Control_c, 0, 64, 60
1, 99970, Control_c, 0, 64, 67
1, 99984, Control_c, 0, 64, 73
1, 99999, Control_c, 0, 64, 79
1, 100014, Control_c, 0, 64, 86
1, 100029, Control_c, 0, 64, 93
1, 100044, Control_c, 0, 64, 102
1, 100065, Control_c, 0, 64, 112
1, 100080, Control_c, 0, 64, 127
1, 100117, Note_off_c, 0, 54, 56
1, 100143, Note_off_c, 0, 49, 57
1, 100149, Note_on_c, 0, 66, 58
1, 100276, Note_on_c, 0, 68, 56
1, 100310, Note_on_c, 0, 37, 55
1, 100323, Poly_aftertouch_c, 0, 73, 127
1, 100324, Note_off_c, 0, 66, 35
1, 100353, Note_on_c, 0, 78, 53
1, 100383, Note_off_c, 0, 78, 64
1, 100384, Note_off_c, 0, 68, 0
1, 100410, Note_off_c, 0, 37, 60
1, 100423, Poly_aftertouch_c, 0, 68, 0
1, 100452, Poly_aftertouch_c, 0, 73, 0
1, 100468, Note_on_c, 0, 64, 68
1, 100472, Note_on_c, 0, 52, 82
1, 100481, Control_c, 0, 64, 102
1, 100496, Control_c, 0, 64, 77
1, 100511, Control_c, 0, 64, 61
1, 100525, Control_c, 0, 64, 48
1, 100540, Control_c, 0, 64, 47
1, 100555, Control_c, 0, 64, 53
1, 100557, Note_on_c, 0, 49, 22
1, 100561, Note_on_c, 0, 68, 51
1, 100567, Note_off_c, 0, 64, 59
1, 100570, Control_c, 0, 64, 64
1, 100585, Control_c, 0, 64, 71
1, 100599, Control_c, 0, 64, 81
1, 100614, Note_off_c, 0, 68, 59
1, 100614, Control_c, 0, 64, 91
1, 100624, Note_on_c, 0, 76, 69
1, 100629, Control_c, 0, 64, 97
1, 100644, Control_c, 0, 64, 102
1, 100656, Note_off_c, 0, 76, 61
1, 100659, Control_c, 0, 64, 106
1, 100674, Control_c, 0, 64, 111
1, 100688, Control_c, 0, 64, 119
1, 100697, Note_on_c, 0, 76, 73
1, 100703, Control_c, 0, 64, 127
1, 100763, Note_on_c, 0, 80, 75
1, 100776, Note_off_c, 0, 76, 61
1, 100828, Note_off_c, 0, 80, 60
1, 100831, Note_on_c, 0, 88, 80
1, 100840, Note_off_c, 0, 52, 56
1, 100870, Note_off_c, 0, 88, 62
1, 100879, Note_off_c, 0, 49, 45
1, 100900, Note_off_c, 0, 44, 58
1, 100901, Note_on_c, 0, 88, 74
1, 100968, Note_on_c, 0, 92, 83
1, 101016, Note_off_c, 0, 88, 53
1, 101032, Note_on_c, 0, 100, 86
1, 101036, Note_off_c, 0, 92, 62
1, 101070, Note_off_c, 0, 100, 63
1, 101105, Note_on_c, 0, 100, 83
1, 101121, Note_on_c, 0, 35, 59
1, 101192, Note_on_c, 0, 92, 79
1, 101207, Note_on_c, 0, 41, 69
1, 101228, Note_off_c, 0, 100, 60
1, 101252, Note_on_c, 0, 44, 78
1, 101253, Note_off_c, 0, 35, 35
1, 101270, Note_on_c, 0, 88, 69
1, 101271, Note_off_c, 0, 92, 61
1, 101319, Note_off_c, 0, 88, 57
1, 101355, Note_on_c, 0, 50, 94
1, 101371, Note_on_c, 0, 86, 84
1, 101379, Control_c, 0, 64, 101
1, 101394, Control_c, 0, 64, 81
1, 101409, Control_c, 0, 64, 63
1, 101410, Note_off_c, 0, 41, 0
1, 101423, Control_c, 0, 64, 48
1, 101438, Control_c, 0, 64, 41
1, 101446, Poly_aftertouch_c, 0, 41, 127
1, 101452, Note_on_c, 0, 77, 63
1, 101453, Control_c, 0, 64, 42
1, 101454, Note_off_c, 0, 86, 55
1, 101467, Note_on_c, 0, 80, 43
1, 101468, Control_c, 0, 64, 53
1, 101482, Control_c, 0, 64, 63
1, 101497, Control_c, 0, 64, 69
1, 101499, Note_off_c, 0, 80, 60
1, 101512, Control_c, 0, 64, 77
1, 101521, Note_on_c, 0, 74, 66
1, 101523, Note_off_c, 0, 77, 58
1, 101527, Control_c, 0, 64, 83
1, 101542, Control_c, 0, 64, 88
1, 101564, Control_c, 0, 64, 92
1, 101577, Note_off_c, 0, 74, 59
1, 101579, Control_c, 0, 64, 95
1, 101594, Control_c, 0, 64, 99
1, 101609, Control_c, 0, 64, 102
1, 101617, Poly_aftertouch_c, 0, 74, 0
1, 101624, Control_c, 0, 64, 107
1, 101625, Note_on_c, 0, 74, 65
1, 101638, Control_c, 0, 64, 109
1, 101653, Control_c, 0, 64, 110
1, 101654, Note_off_c, 0, 50, 54
1, 101668, Control_c, 0, 64, 111
1, 101682, Control_c, 0, 64, 112
1, 101697, Control_c, 0, 64, 114
1, 101708, Note_on_c, 0, 65, 59
1, 101711, Control_c, 0, 64, 114
1, 101726, Control_c, 0, 64, 115
1, 101758, Note_off_c, 0, 74, 35
1, 101763, Poly_aftertouch_c, 0, 41, 0
1, 101776, Note_off_c, 0, 65, 47
1, 101781, Note_on_c, 0, 62, 68
1, 101821, Note_off_c, 0, 44, 56
1, 101833, Note_on_c, 0, 34, 68
1, 101852, Note_off_c, 0, 62, 49
1, 101923, Note_on_c, 0, 42, 70
1, 101934, Note_off_c, 0, 34, 62
1, 101978, Control_c, 0, 64, 114
1, 101993, Control_c, 0, 64, 109
1, 102005, Note_on_c, 0, 50, 88
1, 102008, Control_c, 0, 64, 101
1, 102023, Control_c, 0, 64, 90
1, 102038, Control_c, 0, 64, 78
1, 102052, Control_c, 0, 64, 66
1, 102067, Control_c, 0, 64, 55
1, 102082, Control_c, 0, 64, 46
1, 102096, Control_c, 0, 64, 42
1, 102119, Note_on_c, 0, 62, 62
1, 102141, Control_c, 0, 64, 46
1, 102156, Control_c, 0, 64, 56
1, 102170, Control_c, 0, 64, 64
1, 102185, Control_c, 0, 64, 70
1, 102193, Note_on_c, 0, 66, 56
1, 102200, Control_c, 0, 64, 75
1, 102215, Control_c, 0, 64, 79
1, 102230, Control_c, 0, 64, 81
1, 102236, Note_off_c, 0, 62, 35
1, 102244, Control_c, 0, 64, 84
1, 102250, Note_on_c, 0, 70, 54
1, 102259, Control_c, 0, 64, 88
1, 102274, Control_c, 0, 64, 92
1, 102296, Control_c, 0, 64, 97
1, 102298, Note_off_c, 0, 66, 57
1, 102311, Control_c, 0, 64, 102
1, 102312, Note_on_c, 0, 74, 67
1, 102317, Note_off_c, 0, 50, 50
1, 102326, Control_c, 0, 64, 106
1, 102340, Note_off_c, 0, 70, 53
1, 102341, Control_c, 0, 64, 112
1, 102356, Control_c, 0, 64, 118
1, 102368, Note_off_c, 0, 74, 55
1, 102371, Control_c, 0, 64, 127
1, 102419, Note_on_c, 0, 74, 49
1, 102499, Note_on_c, 0, 78, 50
1, 102521, Note_on_c, 0, 82, 54
1, 102527, Note_off_c, 0, 74, 34
1, 102562, Note_on_c, 0, 34, 53
1, 102575, Note_off_c, 0, 42, 57
1, 102589, Note_on_c, 0, 86, 68
1, 102592, Note_off_c, 0, 82, 57
1, 102602, Note_off_c, 0, 78, 35
1, 102665, Note_on_c, 0, 42, 59
1, 102673, Note_off_c, 0, 34, 61
1, 102683, Control_c, 0, 64, 113
1, 102698, Control_c, 0, 64, 100
1, 102712, Control_c, 0, 64, 86
1, 102719, Note_on_c, 0, 85, 67
1, 102722, Note_off_c, 0, 86, 60
1, 102727, Control_c, 0, 64, 73
1, 102742, Control_c, 0, 64, 62
1, 102757, Control_c, 0, 64, 54
1, 102760, Note_on_c, 0, 49, 75
1, 102772, Control_c, 0, 64, 51
1, 102787, Control_c, 0, 64, 51
1, 102820, Note_off_c, 0, 85, 62
1, 102831, Control_c, 0, 64, 51
1, 102842, Note_on_c, 0, 78, 37
1, 102845, Control_c, 0, 64, 58
1, 102860, Control_c, 0, 64, 64
1, 102875, Control_c, 0, 64, 69
1, 102889, Note_on_c, 0, 73, 62
1, 102890, Control_c, 0, 64, 74
1, 102893, Note_off_c, 0, 78, 57
1, 102905, Control_c, 0, 64, 81
1, 102919, Control_c, 0, 64, 86
1, 102921, Note_off_c, 0, 73, 63
1, 102934, Control_c, 0, 64, 89
1, 102949, Control_c, 0, 64, 93
1, 102964, Control_c, 0, 64, 97
1, 102979, Control_c, 0, 64, 101
1, 102993, Control_c, 0, 64, 106
1, 103008, Control_c, 0, 64, 113
1, 103021, Note_on_c, 0, 73, 56
1, 103023, Control_c, 0, 64, 120
1, 103038, Control_c, 0, 64, 127
1, 103112, Note_off_c, 0, 49, 48
1, 103129, Note_on_c, 0, 66, 55
1, 103156, Note_off_c, 0, 73, 35
1, 103219, Note_off_c, 0, 66, 54
1, 103245, Note_on_c, 0, 61, 41
1, 103274, Note_off_c, 0, 61, 56
1, 103276, Note_on_c, 0, 34, 51
1, 103342, Note_off_c, 0, 42, 33
1, 103388, Note_on_c, 0, 40, 42
1, 103416, Control_c, 0, 64, 123
1, 103431, Control_c, 0, 64, 119
1, 103446, Control_c, 0, 64, 116
1, 103453, Note_on_c, 0, 43, 49
1, 103461, Control_c, 0, 64, 113
1, 103468, Note_off_c, 0, 34, 38
1, 103476, Control_c, 0, 64, 111
1, 103490, Control_c, 0, 64, 108
1, 103505, Control_c, 0, 64, 106
1, 103520, Control_c, 0, 64, 105
1, 103535, Control_c, 0, 64, 104
1, 103550, Control_c, 0, 64, 103
1, 103565, Control_c, 0, 64, 101
1, 103580, Control_c, 0, 64, 99
1, 103595, Control_c, 0, 64, 98
1, 103610, Control_c, 0, 64, 96
1, 103624, Control_c, 0, 64, 94
1, 103639, Control_c, 0, 64, 91
1, 103647, Note_on_c, 0, 64, 71
1, 103654, Control_c, 0, 64, 85
1, 103660, Note_on_c, 0, 52, 57
1, 103666, Note_on_c, 0, 49, 47
1, 103668, Control_c, 0, 64, 78
1, 103683, Control_c, 0, 64, 69
1, 103698, Control_c, 0, 64, 63
1, 103713, Control_c, 0, 64, 57
1, 103728, Control_c, 0, 64, 54
1, 103742, Control_c, 0, 64, 53
1, 103757, Control_c, 0, 64, 52
1, 103787, Control_c, 0, 64, 53
1, 103809, Control_c, 0, 64, 59
1, 103824, Control_c, 0, 64, 66
1, 103839, Control_c, 0, 64, 72
1, 103854, Control_c, 0, 64, 80
1, 103856, Note_off_c, 0, 43, 51
1, 103859, Note_off_c, 0, 40, 38
1, 103869, Control_c, 0, 64, 89
1, 103883, Control_c, 0, 64, 93
1, 103898, Control_c, 0, 64, 96
1, 103903, Note_off_c, 0, 49, 60
1, 103913, Control_c, 0, 64, 99
1, 103922, Note_on_c, 0, 55, 50
1, 103928, Control_c, 0, 64, 103
1, 103943, Note_off_c, 0, 64, 36
1, 103943, Control_c, 0, 64, 110
1, 103958, Control_c, 0, 64, 123
1, 103973, Control_c, 0, 64, 127
1, 104021, Note_off_c, 0, 52, 37
1, 104042, Note_on_c, 0, 61, 47
1, 104066, Note_off_c, 0, 55, 41
1, 104074, Note_on_c, 0, 64, 49
1, 104074, Note_off_c, 0, 61, 64
1, 104111, Note_off_c, 0, 64, 59
1, 104207, Note_on_c, 0, 55, 38
1, 104222, Note_on_c, 0, 61, 41
1, 104236, Note_off_c, 0, 55, 55
1, 104244, Note_on_c, 0, 64, 60
1, 104269, Note_off_c, 0, 61, 56
1, 104340, Note_on_c, 0, 67, 66
1, 104354, Note_off_c, 0, 64, 54
1, 104406, Note_off_c, 0, 67, 55
1, 104409, Note_on_c, 0, 76, 65
1, 104429, Note_on_c, 0, 73, 39
1, 104446, Note_off_c, 0, 76, 58
1, 104458, Note_off_c, 0, 73, 55
1, 104495, Note_on_c, 0, 67, 32
1, 104550, Note_on_c, 0, 73, 54
1, 104552, Note_off_c, 0, 67, 46
1, 104573, Note_off_c, 0, 73, 63
1, 104576, Note_on_c, 0, 76, 58
1, 104596, Note_off_c, 0, 76, 62
1, 104636, Note_on_c, 0, 76, 70
1, 104682, Note_on_c, 0, 79, 65
1, 104690, Note_off_c, 0, 76, 62
1, 104732, Note_off_c, 0, 79, 62
1, 104742, Note_on_c, 0, 88, 55
1, 104776, Note_off_c, 0, 88, 63
1, 104793, Note_on_c, 0, 79, 47
1, 104859, Note_off_c, 0, 79, 59
1, 104863, Note_on_c, 0, 85, 60
1, 104902, Note_off_c, 0, 85, 58
1, 104906, Note_on_c, 0, 88, 62
1, 104926, Note_off_c, 0, 88, 66
1, 104989, Note_on_c, 0, 88, 77
1, 105061, Note_off_c, 0, 88, 59
1, 105079, Note_on_c, 0, 91, 59
1, 105103, Note_off_c, 0, 91, 62
1, 105184, Note_on_c, 0, 87, 57
1, 105185, Note_on_c, 0, 96, 82
1, 105322, Note_on_c, 0, 88, 65
1, 105324, Note_on_c, 0, 97, 91
1, 105350, Note_off_c, 0, 87, 36
1, 105352, Note_off_c, 0, 96, 56
1, 105443, Note_on_c, 0, 99, 98
1, 105445, Note_off_c, 0, 88, 55
1, 105446, Note_on_c, 0, 90, 66
1, 105468, Note_off_c, 0, 97, 62
1, 105637, Note_on_c, 0, 102, 96
1, 105658, Note_on_c, 0, 93, 67
1, 105667, Note_off_c, 0, 99, 62
1, 105699, Note_off_c, 0, 90, 31
1, 105770, Note_on_c, 0, 101, 88
1, 105773, Note_off_c, 0, 93, 49
1, 105796, Note_on_c, 0, 92, 67
1, 105829, Note_off_c, 0, 102, 60
1, 105883, Note_on_c, 0, 100, 98
1, 105886, Note_off_c, 0, 92, 59
1, 105912, Note_on_c, 0, 91, 66
1, 105913, Note_off_c, 0, 101, 60
1, 105978, Note_on_c, 0, 99, 94
1, 105994, Note_on_c, 0, 90, 67
1, 106001, Note_off_c, 0, 91, 39
1, 106005, Note_off_c, 0, 100, 60
1, 106058, Note_off_c, 0, 90, 61
1, 106071, Note_on_c, 0, 98, 88
1, 106081, Note_off_c, 0, 99, 62
1, 106089, Note_on_c, 0, 89, 67
1, 106138, Note_on_c, 0, 97, 84
1, 106144, Note_off_c, 0, 98, 65
1, 106161, Note_off_c, 0, 89, 0
1, 106164, Note_on_c, 0, 88, 61
1, 106181, Note_on_c, 0, 89, 33
1, 106204, Note_on_c, 0, 96, 67
1, 106205, Note_off_c, 0, 97, 64
1, 106210, Note_off_c, 0, 89, 51
1, 106215, Note_off_c, 0, 88, 58
1, 106216, Note_on_c, 0, 87, 61
1, 106224, Note_on_c, 0, 98, 50
1, 106251, Note_off_c, 0, 98, 35
1, 106253, Note_off_c, 0, 87, 59
1, 106259, Note_on_c, 0, 95, 80
1, 106260, Note_off_c, 0, 96, 59
1, 106282, Note_on_c, 0, 86, 66
1, 106322, Note_on_c, 0, 94, 77
1, 106326, Note_off_c, 0, 95, 63
1, 106338, Note_off_c, 0, 86, 53
1, 106341, Note_on_c, 0, 85, 67
1, 106366, Note_off_c, 0, 85, 69
1, 106375, Note_off_c, 0, 94, 57
1, 106379, Note_on_c, 0, 93, 80
1, 106410, Note_on_c, 0, 84, 66
1, 106438, Note_off_c, 0, 93, 60
1, 106451, Note_on_c, 0, 92, 76
1, 106458, Note_off_c, 0, 84, 56
1, 106477, Note_on_c, 0, 83, 61
1, 106500, Note_off_c, 0, 92, 61
1, 106502, Note_on_c, 0, 91, 76
1, 106509, Note_off_c, 0, 83, 62
1, 106518, Note_on_c, 0, 82, 53
1, 106543, Note_off_c, 0, 82, 60
1, 106547, Note_off_c, 0, 91, 60
1, 106559, Control_c, 0, 64, 121
1, 106567, Note_on_c, 0, 90, 77
1, 106567, Note_on_c, 0, 81, 63
1, 106574, Control_c, 0, 64, 118
1, 106588, Control_c, 0, 64, 117
1, 106603, Control_c, 0, 64, 116
1, 106610, Note_off_c, 0, 81, 60
1, 106619, Control_c, 0, 64, 114
1, 106620, Note_on_c, 0, 80, 67
1, 106626, Note_off_c, 0, 90, 62
1, 106629, Note_on_c, 0, 89, 78
1, 106634, Control_c, 0, 64, 112
1, 106646, Note_off_c, 0, 80, 65
1, 106649, Control_c, 0, 64, 109
1, 106664, Control_c, 0, 64, 106
1, 106679, Control_c, 0, 64, 103
1, 106684, Note_off_c, 0, 89, 62
1, 106691, Note_on_c, 0, 79, 68
1, 106693, Control_c, 0, 64, 97
1, 106696, Note_on_c, 0, 88, 73
1, 106708, Control_c, 0, 64, 90
1, 106723, Control_c, 0, 64, 85
1, 106738, Control_c, 0, 64, 84
1, 106749, Note_off_c, 0, 79, 56
1, 106753, Control_c, 0, 64, 85
1, 106758, Note_on_c, 0, 75, 66
1, 106764, Note_on_c, 0, 84, 77
1, 106767, Control_c, 0, 64, 86
1, 106771, Note_off_c, 0, 88, 55
1, 106805, Control_c, 0, 64, 87
1, 106835, Note_on_c, 0, 76, 66
1, 106844, Note_on_c, 0, 85, 69
1, 106845, Note_off_c, 0, 84, 60
1, 106864, Control_c, 0, 64, 89
1, 106870, Note_off_c, 0, 75, 57
1, 106879, Control_c, 0, 64, 93
1, 106893, Control_c, 0, 64, 98
1, 106907, Note_off_c, 0, 85, 65
1, 106908, Control_c, 0, 64, 102
1, 106912, Note_on_c, 0, 78, 69
1, 106912, Note_on_c, 0, 87, 63
1, 106916, Note_off_c, 0, 76, 61
1, 106960, Note_off_c, 0, 78, 59
1, 106978, Note_on_c, 0, 90, 72
1, 106980, Note_on_c, 0, 81, 72
1, 106983, Control_c, 0, 64, 100
1, 106987, Note_off_c, 0, 87, 61
1, 106998, Control_c, 0, 64, 96
1, 107013, Control_c, 0, 64, 91
1, 107027, Control_c, 0, 64, 87
1, 107041, Note_off_c, 0, 81, 62
1, 107042, Control_c, 0, 64, 85
1, 107048, Note_on_c, 0, 89, 74
1, 107049, Note_on_c, 0, 80, 66
1, 107056, Note_off_c, 0, 90, 55
1, 107072, Control_c, 0, 64, 85
1, 107077, Note_off_c, 0, 80, 61
1, 107087, Control_c, 0, 64, 86
1, 107101, Control_c, 0, 64, 88
1, 107112, Note_on_c, 0, 88, 68
1, 107116, Control_c, 0, 64, 90
1, 107119, Note_on_c, 0, 79, 69
1, 107131, Control_c, 0, 64, 91
1, 107169, Note_off_c, 0, 79, 60
1, 107170, Note_on_c, 0, 87, 75
1, 107174, Note_off_c, 0, 88, 62
1, 107175, Note_off_c, 0, 89, 34
1, 107178, Note_on_c, 0, 78, 68
1, 107205, Note_off_c, 0, 78, 65
1, 107205, Control_c, 0, 64, 91
1, 107220, Control_c, 0, 64, 90
1, 107220, Note_off_c, 0, 87, 62
1, 107229, Note_on_c, 0, 86, 73
1, 107234, Control_c, 0, 64, 89
1, 107246, Note_on_c, 0, 77, 69
1, 107249, Control_c, 0, 64, 87
1, 107264, Control_c, 0, 64, 83
1, 107266, Note_off_c, 0, 86, 55
1, 107279, Control_c, 0, 64, 80
1, 107287, Note_on_c, 0, 85, 67
1, 107288, Note_off_c, 0, 77, 56
1, 107289, Note_on_c, 0, 76, 68
1, 107294, Control_c, 0, 64, 79
1, 107324, Control_c, 0, 64, 80
1, 107333, Note_off_c, 0, 85, 60
1, 107335, Note_off_c, 0, 76, 61
1, 107338, Control_c, 0, 64, 81
1, 107342, Note_on_c, 0, 84, 71
1, 107350, Note_on_c, 0, 75, 55
1, 107353, Control_c, 0, 64, 83
1, 107368, Control_c, 0, 64, 85
1, 107378, Note_off_c, 0, 84, 60
1, 107381, Note_off_c, 0, 75, 64
1, 107383, Note_on_c, 0, 83, 75
1, 107383, Control_c, 0, 64, 88
1, 107398, Control_c, 0, 64, 90
1, 107399, Note_on_c, 0, 74, 69
1, 107430, Note_off_c, 0, 83, 56
1, 107433, Note_off_c, 0, 74, 49
1, 107442, Note_on_c, 0, 82, 70
1, 107453, Note_on_c, 0, 73, 69
1, 107476, Note_off_c, 0, 82, 61
1, 107481, Note_off_c, 0, 73, 66
1, 107501, Note_on_c, 0, 81, 72
1, 107521, Note_on_c, 0, 72, 71
1, 107552, Note_off_c, 0, 81, 61
1, 107568, Note_on_c, 0, 80, 74
1, 107573, Note_off_c, 0, 72, 60
1, 107586, Note_on_c, 0, 71, 61
1, 107613, Note_off_c, 0, 80, 58
1, 107628, Note_on_c, 0, 79, 71
1, 107631, Note_off_c, 0, 71, 59
1, 107643, Note_on_c, 0, 70, 63
1, 107674, Note_off_c, 0, 79, 61
1, 107679, Note_off_c, 0, 70, 59
1, 107688, Note_on_c, 0, 78, 74
1, 107703, Note_on_c, 0, 69, 64
1, 107717, Control_c, 0, 64, 89
1, 107737, Note_off_c, 0, 69, 63
1, 107747, Control_c, 0, 64, 89
1, 107748, Note_on_c, 0, 68, 70
1, 107751, Note_off_c, 0, 78, 60
1, 107753, Note_on_c, 0, 77, 70
1, 107761, Control_c, 0, 64, 88
1, 107771, Note_off_c, 0, 68, 67
1, 107776, Control_c, 0, 64, 87
1, 107791, Control_c, 0, 64, 86
1, 107806, Control_c, 0, 64, 83
1, 107818, Note_off_c, 0, 77, 60
1, 107821, Control_c, 0, 64, 80
1, 107822, Note_on_c, 0, 76, 77
1, 107827, Note_on_c, 0, 67, 63
1, 107835, Control_c, 0, 64, 76
1, 107850, Control_c, 0, 64, 71
1, 107865, Control_c, 0, 64, 69
1, 107875, Note_off_c, 0, 67, 54
1, 107880, Control_c, 0, 64, 69
1, 107893, Note_on_c, 0, 63, 60
1, 107894, Note_on_c, 0, 72, 73
1, 107909, Note_off_c, 0, 76, 45
1, 107924, Control_c, 0, 64, 70
1, 107939, Control_c, 0, 64, 74
1, 107954, Control_c, 0, 64, 80
1, 107959, Note_on_c, 0, 64, 59
1, 107961, Note_on_c, 0, 73, 66
1, 107965, Note_off_c, 0, 72, 61
1, 107968, Control_c, 0, 64, 87
1, 107983, Control_c, 0, 64, 93
1, 107998, Control_c, 0, 64, 94
1, 108027, Note_on_c, 0, 75, 63
1, 108028, Note_off_c, 0, 73, 63
1, 108030, Note_off_c, 0, 64, 57
1, 108031, Note_on_c, 0, 66, 64
1, 108037, Note_off_c, 0, 63, 41
1, 108071, Note_off_c, 0, 66, 57
1, 108072, Control_c, 0, 64, 92
1, 108084, Note_on_c, 0, 78, 71
1, 108087, Control_c, 0, 64, 89
1, 108088, Note_on_c, 0, 69, 68
1, 108095, Note_off_c, 0, 75, 60
1, 108102, Control_c, 0, 64, 83
1, 108117, Control_c, 0, 64, 75
1, 108132, Control_c, 0, 64, 68
1, 108138, Note_off_c, 0, 78, 57
1, 108147, Control_c, 0, 64, 65
1, 108149, Note_off_c, 0, 69, 55
1, 108156, Note_on_c, 0, 77, 71
1, 108160, Note_on_c, 0, 68, 65
1, 108176, Control_c, 0, 64, 66
1, 108191, Control_c, 0, 64, 67
1, 108203, Note_off_c, 0, 68, 48
1, 108206, Control_c, 0, 64, 70
1, 108213, Note_on_c, 0, 76, 61
1, 108221, Control_c, 0, 64, 76
1, 108233, Note_on_c, 0, 67, 70
1, 108236, Control_c, 0, 64, 83
1, 108251, Control_c, 0, 64, 91
1, 108255, Note_on_c, 0, 75, 68
1, 108259, Note_off_c, 0, 77, 52
1, 108266, Control_c, 0, 64, 92
1, 108267, Note_off_c, 0, 76, 58
1, 108281, Note_off_c, 0, 67, 59
1, 108297, Note_on_c, 0, 66, 64
1, 108323, Note_off_c, 0, 66, 66
1, 108329, Note_off_c, 0, 75, 60
1, 108332, Note_on_c, 0, 74, 75
1, 108366, Note_on_c, 0, 65, 68
1, 108377, Control_c, 0, 64, 91
1, 108383, Note_off_c, 0, 74, 52
1, 108390, Note_on_c, 0, 73, 69
1, 108391, Control_c, 0, 64, 90
1, 108406, Control_c, 0, 64, 88
1, 108413, Note_off_c, 0, 65, 61
1, 108421, Control_c, 0, 64, 86
1, 108429, Note_on_c, 0, 64, 53
1, 108436, Control_c, 0, 64, 83
1, 108451, Control_c, 0, 64, 79
1, 108454, Note_off_c, 0, 73, 54
1, 108458, Note_on_c, 0, 72, 62
1, 108463, Note_off_c, 0, 64, 52
1, 108466, Control_c, 0, 64, 74
1, 108481, Note_on_c, 0, 63, 60
1, 108481, Control_c, 0, 64, 72
1, 108495, Control_c, 0, 64, 71
1, 108502, Note_on_c, 0, 71, 66
1, 108504, Note_off_c, 0, 72, 60
1, 108509, Note_off_c, 0, 63, 65
1, 108528, Note_on_c, 0, 62, 71
1, 108540, Control_c, 0, 64, 71
1, 108556, Note_off_c, 0, 71, 55
1, 108564, Note_on_c, 0, 70, 65
1, 108580, Note_off_c, 0, 62, 54
1, 108585, Control_c, 0, 64, 71
1, 108599, Control_c, 0, 64, 72
1, 108601, Note_on_c, 0, 61, 63
1, 108606, Note_off_c, 0, 70, 61
1, 108614, Control_c, 0, 64, 74
1, 108629, Control_c, 0, 64, 77
1, 108630, Note_off_c, 0, 61, 63
1, 108631, Note_on_c, 0, 69, 69
1, 108644, Control_c, 0, 64, 80
1, 108659, Control_c, 0, 64, 82
1, 108665, Note_on_c, 0, 60, 72
1, 108676, Note_off_c, 0, 69, 63
1, 108688, Control_c, 0, 64, 82
1, 108692, Note_on_c, 0, 68, 69
1, 108703, Control_c, 0, 64, 80
1, 108717, Note_off_c, 0, 60, 55
1, 108718, Control_c, 0, 64, 78
1, 108727, Note_on_c, 0, 59, 66
1, 108733, Control_c, 0, 64, 73
1, 108734, Note_off_c, 0, 68, 54
1, 108747, Control_c, 0, 64, 68
1, 108753, Note_on_c, 0, 67, 69
1, 108762, Control_c, 0, 64, 64
1, 108777, Control_c, 0, 64, 63
1, 108782, Note_off_c, 0, 59, 59
1, 108785, Note_off_c, 0, 67, 60
1, 108796, Note_on_c, 0, 58, 59
1, 108810, Note_on_c, 0, 66, 66
1, 108821, Control_c, 0, 64, 64
1, 108829, Note_off_c, 0, 58, 62
1, 108836, Control_c, 0, 64, 66
1, 108841, Note_on_c, 0, 57, 62
1, 108851, Control_c, 0, 64, 69
1, 108863, Note_off_c, 0, 66, 61
1, 108865, Control_c, 0, 64, 72
1, 108872, Note_on_c, 0, 65, 71
1, 108880, Control_c, 0, 64, 75
1, 108895, Control_c, 0, 64, 77
1, 108907, Note_off_c, 0, 57, 61
1, 108910, Control_c, 0, 64, 76
1, 108925, Control_c, 0, 64, 75
1, 108940, Control_c, 0, 64, 74
1, 108940, Note_off_c, 0, 65, 59
1, 108944, Note_on_c, 0, 64, 73
1, 108954, Note_on_c, 0, 55, 61
1, 108954, Control_c, 0, 64, 74
1, 108999, Control_c, 0, 64, 73
1, 109014, Control_c, 0, 64, 72
1, 109019, Note_on_c, 0, 60, 73
1, 109024, Note_on_c, 0, 51, 67
1, 109029, Control_c, 0, 64, 72
1, 109044, Note_off_c, 0, 64, 48
1, 109054, Note_off_c, 0, 55, 38
1, 109082, Control_c, 0, 64, 71
1, 109095, Note_on_c, 0, 61, 59
1, 109096, Control_c, 0, 64, 71
1, 109096, Control_c, 0, 67, 19
1, 109107, Note_off_c, 0, 60, 56
1, 109111, Control_c, 0, 64, 70
1, 109111, Control_c, 0, 67, 24
1, 109113, Note_on_c, 0, 52, 63
1, 109115, Note_off_c, 0, 51, 59
1, 109126, Control_c, 0, 64, 69
1, 109126, Control_c, 0, 67, 28
1, 109141, Control_c, 0, 64, 68
1, 109141, Control_c, 0, 67, 31
1, 109156, Control_c, 0, 64, 67
1, 109156, Control_c, 0, 67, 33
1, 109166, Note_off_c, 0, 61, 61
1, 109170, Control_c, 0, 64, 66
1, 109170, Control_c, 0, 67, 34
1, 109171, Note_on_c, 0, 63, 66
1, 109175, Note_on_c, 0, 54, 69
1, 109180, Note_off_c, 0, 52, 60
1, 109185, Control_c, 0, 64, 64
1, 109199, Control_c, 0, 64, 63
1, 109214, Control_c, 0, 64, 61
1, 109214, Control_c, 0, 67, 35
1, 109226, Note_off_c, 0, 54, 60
1, 109229, Control_c, 0, 64, 59
1, 109235, Note_on_c, 0, 57, 64
1, 109240, Note_on_c, 0, 66, 68
1, 109244, Control_c, 0, 64, 58
1, 109247, Note_off_c, 0, 63, 59
1, 109259, Control_c, 0, 64, 57
1, 109273, Control_c, 0, 64, 55
1, 109288, Control_c, 0, 64, 54
1, 109292, Note_off_c, 0, 57, 59
1, 109299, Note_on_c, 0, 56, 72
1, 109303, Control_c, 0, 64, 52
1, 109303, Control_c, 0, 67, 35
1, 109304, Note_off_c, 0, 66, 61
1, 109310, Note_on_c, 0, 65, 67
1, 109318, Control_c, 0, 64, 49
1, 109318, Control_c, 0, 67, 36
1, 109333, Control_c, 0, 64, 46
1, 109348, Control_c, 0, 64, 43
1, 109348, Control_c, 0, 67, 37
1, 109359, Note_off_c, 0, 56, 58
1, 109362, Control_c, 0, 64, 41
1, 109367, Note_on_c, 0, 64, 70
1, 109374, Note_on_c, 0, 55, 71
1, 109377, Control_c, 0, 64, 38
1, 109392, Control_c, 0, 64, 36
1, 109392, Control_c, 0, 67, 37
1, 109405, Note_off_c, 0, 65, 59
1, 109407, Control_c, 0, 64, 35
1, 109418, Note_on_c, 0, 51, 65
1, 109421, Control_c, 0, 64, 34
1, 109429, Note_on_c, 0, 60, 65
1, 109430, Note_off_c, 0, 64, 61
1, 109436, Control_c, 0, 64, 33
1, 109439, Note_off_c, 0, 55, 61
1, 109451, Control_c, 0, 67, 38
1, 109479, Note_on_c, 0, 52, 70
1, 109483, Note_on_c, 0, 61, 74
1, 109495, Control_c, 0, 67, 38
1, 109510, Control_c, 0, 64, 33
1, 109510, Control_c, 0, 67, 39
1, 109518, Note_off_c, 0, 60, 52
1, 109523, Note_off_c, 0, 51, 57
1, 109525, Control_c, 0, 67, 39
1, 109528, Note_on_c, 0, 63, 74
1, 109539, Control_c, 0, 67, 40
1, 109541, Note_on_c, 0, 54, 75
1, 109551, Note_off_c, 0, 61, 60
1, 109554, Control_c, 0, 67, 41
1, 109558, Note_off_c, 0, 52, 60
1, 109569, Control_c, 0, 67, 41
1, 109589, Note_on_c, 0, 66, 77
1, 109597, Note_on_c, 0, 57, 72
1, 109598, Note_off_c, 0, 63, 61
1, 109599, Control_c, 0, 67, 42
1, 109601, Note_off_c, 0, 54, 60
1, 109613, Control_c, 0, 67, 42
1, 109628, Control_c, 0, 67, 43
1, 109643, Control_c, 0, 64, 32
1, 109643, Control_c, 0, 67, 44
1, 109657, Note_on_c, 0, 67, 35
1, 109658, Note_off_c, 0, 57, 62
1, 109662, Note_on_c, 0, 56, 78
1, 109665, Note_on_c, 0, 65, 70
1, 109669, Note_off_c, 0, 66, 60
1, 109673, Control_c, 0, 67, 44
1, 109685, Note_off_c, 0, 67, 56
1, 109718, Note_on_c, 0, 64, 63
1, 109724, Note_off_c, 0, 56, 61
1, 109732, Control_c, 0, 67, 45
1, 109745, Note_on_c, 0, 55, 65
1, 109747, Control_c, 0, 67, 45
1, 109754, Note_off_c, 0, 65, 61
1, 109762, Control_c, 0, 67, 46
1, 109781, Note_off_c, 0, 64, 61
1, 109796, Note_on_c, 0, 60, 66
1, 109799, Control_c, 0, 67, 46
1, 109813, Note_on_c, 0, 51, 66
1, 109819, Note_off_c, 0, 55, 60
1, 109830, Control_c, 0, 67, 47
1, 109844, Control_c, 0, 67, 47
1, 109861, Note_on_c, 0, 61, 62
1, 109873, Note_off_c, 0, 60, 50
1, 109889, Control_c, 0, 67, 48
1, 109897, Note_on_c, 0, 52, 69
1, 109904, Control_c, 0, 67, 48
1, 109905, Note_off_c, 0, 51, 55
1, 109925, Note_on_c, 0, 63, 57
1, 109931, Note_off_c, 0, 61, 58
1, 109933, Control_c, 0, 67, 49
1, 109948, Control_c, 0, 67, 49
1, 109967, Note_on_c, 0, 54, 60
1, 109967, Note_off_c, 0, 52, 58
1, 109998, Note_on_c, 0, 66, 62
1, 109998, Note_off_c, 0, 63, 59
1, 110006, Note_off_c, 0, 54, 65
1, 110007, Control_c, 0, 67, 50
1, 110022, Control_c, 0, 67, 50
1, 110026, Note_on_c, 0, 57, 55
1, 110037, Control_c, 0, 67, 51
1, 110051, Control_c, 0, 67, 51
1, 110066, Control_c, 0, 67, 52
1, 110072, Note_off_c, 0, 66, 58
1, 110072, Note_off_c, 0, 57, 57
1, 110081, Control_c, 0, 67, 54
1, 110086, Note_on_c, 0, 65, 60
1, 110096, Control_c, 0, 67, 56
1, 110103, Note_on_c, 0, 56, 55
1, 110111, Control_c, 0, 67, 58
1, 110126, Control_c, 0, 67, 61
1, 110141, Control_c, 0, 67, 64
1, 110149, Note_off_c, 0, 56, 61
1, 110152, Note_off_c, 0, 65, 58
1, 110156, Control_c, 0, 67, 66
1, 110164, Note_on_c, 0, 64, 59
1, 110170, Control_c, 0, 67, 67
1, 110174, Note_on_c, 0, 55, 56
1, 110185, Control_c, 0, 67, 68
1, 110200, Control_c, 0, 67, 69
1, 110215, Control_c, 0, 67, 69
1, 110230, Control_c, 0, 67, 70
1, 110242, Note_off_c, 0, 64, 59
1, 110243, Note_off_c, 0, 55, 57
1, 110244, Control_c, 0, 67, 71
1, 110255, Note_on_c, 0, 60, 55
1, 110257, Note_on_c, 0, 51, 54
1, 110259, Control_c, 0, 67, 71
1, 110274, Control_c, 0, 67, 72
1, 110289, Control_c, 0, 67, 74
1, 110304, Control_c, 0, 67, 77
1, 110318, Control_c, 0, 67, 81
1, 110333, Control_c, 0, 67, 84
1, 110338, Note_off_c, 0, 51, 58
1, 110343, Note_on_c, 0, 61, 49
1, 110348, Note_on_c, 0, 52, 51
1, 110348, Control_c, 0, 67, 86
1, 110362, Control_c, 0, 67, 86
1, 110405, Note_off_c, 0, 60, 30
1, 110427, Note_on_c, 0, 54, 58
1, 110429, Note_on_c, 0, 63, 53
1, 110462, Note_off_c, 0, 52, 49
1, 110481, Control_c, 0, 67, 87
1, 110483, Note_off_c, 0, 61, 35
1, 110511, Control_c, 0, 67, 87
1, 110525, Control_c, 0, 67, 89
1, 110543, Note_on_c, 0, 66, 55
1, 110548, Control_c, 0, 67, 91
1, 110555, Note_off_c, 0, 54, 54
1, 110557, Note_off_c, 0, 63, 43
1, 110562, Control_c, 0, 67, 94
1, 110575, Note_on_c, 0, 57, 50
1, 110577, Control_c, 0, 67, 98
1, 110592, Control_c, 0, 67, 100
1, 110608, Control_c, 0, 67, 101
1, 110622, Note_off_c, 0, 66, 58
1, 110623, Note_off_c, 0, 57, 59
1, 110623, Control_c, 0, 67, 101
1, 110638, Control_c, 0, 67, 102
1, 110653, Control_c, 0, 67, 102
1, 110667, Control_c, 0, 67, 103
1, 110683, Note_on_c, 0, 65, 56
1, 110698, Control_c, 0, 67, 103
1, 110710, Note_on_c, 0, 56, 51
1, 110747, Note_off_c, 0, 65, 59
1, 110755, Note_off_c, 0, 56, 60
1, 110810, Note_on_c, 0, 64, 58
1, 110813, Note_on_c, 0, 55, 52
1, 110857, Note_off_c, 0, 64, 56
1, 110869, Note_off_c, 0, 55, 48
1, 110925, Note_on_c, 0, 63, 65
1, 110939, Note_on_c, 0, 54, 53
1, 110979, Note_off_c, 0, 54, 64
1, 110996, Note_off_c, 0, 63, 51
1, 111031, Note_on_c, 0, 62, 66
1, 111039, Note_on_c, 0, 53, 53
1, 111053, Control_c, 0, 67, 103
1, 111068, Control_c, 0, 67, 102
1, 111076, Note_off_c, 0, 62, 54
1, 111083, Control_c, 0, 67, 101
1, 111087, Note_off_c, 0, 53, 56
1, 111098, Control_c, 0, 67, 100
1, 111113, Control_c, 0, 67, 99
1, 111128, Control_c, 0, 67, 97
1, 111137, Note_on_c, 0, 61, 66
1, 111141, Note_on_c, 0, 52, 57
1, 111142, Control_c, 0, 67, 95
1, 111157, Control_c, 0, 67, 93
1, 111172, Control_c, 0, 67, 92
1, 111186, Control_c, 0, 67, 91
1, 111190, Note_off_c, 0, 61, 50
1, 111200, Note_off_c, 0, 52, 50
1, 111201, Control_c, 0, 67, 89
1, 111216, Control_c, 0, 67, 87
1, 111231, Control_c, 0, 67, 85
1, 111246, Control_c, 0, 67, 84
1, 111250, Note_on_c, 0, 60, 67
1, 111253, Note_on_c, 0, 51, 54
1, 111260, Control_c, 0, 67, 82
1, 111275, Control_c, 0, 67, 81
1, 111297, Control_c, 0, 67, 79
1, 111310, Note_off_c, 0, 60, 52
1, 111312, Control_c, 0, 67, 77
1, 111315, Note_off_c, 0, 51, 52
1, 111327, Control_c, 0, 64, 33
1, 111327, Control_c, 0, 67, 75
1, 111342, Control_c, 0, 67, 73
1, 111357, Control_c, 0, 64, 33
1, 111357, Control_c, 0, 67, 71
1, 111369, Note_on_c, 0, 63, 68
1, 111371, Note_on_c, 0, 54, 57
1, 111372, Control_c, 0, 67, 70
1, 111386, Control_c, 0, 64, 34
1, 111386, Control_c, 0, 67, 68
1, 111401, Control_c, 0, 67, 66
1, 111417, Control_c, 0, 64, 34
1, 111417, Control_c, 0, 67, 63
1, 111427, Note_off_c, 0, 54, 55
1, 111432, Control_c, 0, 64, 35
1, 111432, Control_c, 0, 67, 59
1, 111447, Note_off_c, 0, 63, 54
1, 111447, Control_c, 0, 64, 36
1, 111447, Control_c, 0, 67, 55
1, 111461, Control_c, 0, 64, 36
1, 111461, Control_c, 0, 67, 50
1, 111476, Control_c, 0, 64, 37
1, 111476, Control_c, 0, 67, 43
1, 111491, Control_c, 0, 64, 37
1, 111491, Control_c, 0, 67, 32
1, 111500, Note_on_c, 0, 61, 61
1, 111506, Control_c, 0, 64, 38
1, 111506, Control_c, 0, 67, 22
1, 111507, Note_on_c, 0, 52, 47
1, 111521, Control_c, 0, 64, 38
1, 111535, Control_c, 0, 64, 39
1, 111535, Control_c, 0, 67, 0
1, 111550, Control_c, 0, 64, 39
1, 111550, Control_c, 0, 67, 30
1, 111565, Control_c, 0, 64, 40
1, 111565, Control_c, 0, 67, 17
1, 111575, Note_off_c, 0, 52, 49
1, 111579, Note_off_c, 0, 61, 50
1, 111580, Control_c, 0, 67, 0
1, 111609, Control_c, 0, 64, 40
1, 111655, Note_on_c, 0, 64, 49
1, 111676, Note_on_c, 0, 55, 32
1, 111698, Control_c, 0, 64, 41
1, 111728, Control_c, 0, 64, 41
1, 111757, Control_c, 0, 64, 42
1, 111758, Note_off_c, 0, 64, 42
1, 111761, Note_off_c, 0, 55, 45
1, 111772, Control_c, 0, 64, 42
1, 111787, Control_c, 0, 64, 43
1, 111802, Control_c, 0, 64, 44
1, 111807, Note_on_c, 0, 63, 44
1, 111813, Note_on_c, 0, 54, 46
1, 111861, Control_c, 0, 64, 44
1, 111886, Note_off_c, 0, 54, 48
1, 111912, Note_off_c, 0, 63, 37
1, 111935, Control_c, 0, 64, 45
1, 111950, Control_c, 0, 64, 45
1, 111965, Control_c, 0, 64, 46
1, 111980, Control_c, 0, 64, 47
1, 111995, Control_c, 0, 64, 48
1, 112009, Control_c, 0, 64, 49
1, 112010, Note_on_c, 0, 66, 44
1, 112024, Control_c, 0, 64, 51
1, 112037, Note_on_c, 0, 57, 30
1, 112046, Control_c, 0, 64, 52
1, 112061, Control_c, 0, 64, 54
1, 112076, Control_c, 0, 64, 55
1, 112090, Control_c, 0, 64, 55
1, 112120, Control_c, 0, 64, 56
1, 112150, Note_off_c, 0, 66, 44
1, 112168, Note_off_c, 0, 57, 35
1, 112289, Note_on_c, 0, 64, 44
1, 112317, Note_on_c, 0, 56, 27
1, 112373, Control_c, 0, 64, 57
1, 112388, Control_c, 0, 64, 59
1, 112403, Control_c, 0, 64, 63
1, 112418, Control_c, 0, 64, 66
1, 112432, Control_c, 0, 64, 69
1, 112447, Control_c, 0, 64, 72
1, 112462, Control_c, 0, 64, 77
1, 112477, Control_c, 0, 64, 82
1, 112492, Control_c, 0, 64, 87
1, 112506, Control_c, 0, 64, 91
1, 112521, Control_c, 0, 64, 94
1, 112536, Control_c, 0, 64, 96
1, 112540, Note_off_c, 0, 56, 40
1, 112551, Control_c, 0, 64, 98
1, 112566, Note_off_c, 0, 64, 31
1, 112580, Control_c, 0, 64, 98
1, 112595, Control_c, 0, 64, 99
1, 112610, Control_c, 0, 64, 103
1, 112625, Control_c, 0, 64, 107
1, 112639, Control_c, 0, 64, 112
1, 112654, Control_c, 0, 64, 115
1, 112669, Control_c, 0, 64, 116
1, 112713, Control_c, 0, 64, 116
1, 112871, Note_on_c, 0, 60, 50
1, 112878, Note_on_c, 0, 45, 30
1, 112883, Control_c, 0, 64, 115
1, 112891, Note_on_c, 0, 54, 43
1, 112895, Note_on_c, 0, 51, 38
1, 112898, Control_c, 0, 64, 113
1, 112913, Control_c, 0, 64, 110
1, 112928, Control_c, 0, 64, 106
1, 112943, Control_c, 0, 64, 100
1, 112958, Control_c, 0, 64, 93
1, 112973, Control_c, 0, 64, 84
1, 112988, Control_c, 0, 64, 75
1, 113003, Control_c, 0, 64, 67
1, 113018, Control_c, 0, 64, 63
1, 113033, Control_c, 0, 64, 63
1, 113077, Control_c, 0, 64, 63
1, 113092, Control_c, 0, 64, 66
1, 113107, Control_c, 0, 64, 70
1, 113122, Control_c, 0, 64, 77
1, 113137, Control_c, 0, 64, 86
1, 113152, Control_c, 0, 64, 95
1, 113166, Control_c, 0, 64, 97
1, 113181, Control_c, 0, 64, 97
1, 113196, Control_c, 0, 64, 98
1, 113211, Control_c, 0, 64, 100
1, 113222, Note_off_c, 0, 45, 38
1, 113226, Control_c, 0, 64, 102
1, 113241, Note_off_c, 0, 54, 42
1, 113241, Control_c, 0, 64, 103
1, 113270, Control_c, 0, 64, 104
1, 113300, Control_c, 0, 64, 104
1, 113426, Note_on_c, 0, 61, 63
1, 113429, Note_on_c, 0, 45, 32
1, 113432, Note_on_c, 0, 52, 40
1, 113433, Control_c, 0, 64, 103
1, 113436, Note_on_c, 0, 55, 48
1, 113448, Control_c, 0, 64, 102
1, 113462, Control_c, 0, 64, 99
1, 113477, Control_c, 0, 64, 96
1, 113492, Control_c, 0, 64, 91
1, 113506, Control_c, 0, 64, 84
1, 113521, Control_c, 0, 64, 75
1, 113536, Note_off_c, 0, 60, 31
1, 113544, Control_c, 0, 64, 67
1, 113549, Note_off_c, 0, 51, 42
1, 113559, Control_c, 0, 64, 62
1, 113574, Control_c, 0, 64, 61
1, 113588, Control_c, 0, 64, 60
1, 113603, Control_c, 0, 64, 60
1, 113677, Control_c, 0, 64, 63
1, 113692, Control_c, 0, 64, 67
1, 113707, Control_c, 0, 64, 72
1, 113710, Note_off_c, 0, 55, 36
1, 113721, Control_c, 0, 64, 79
1, 113736, Control_c, 0, 64, 86
1, 113751, Control_c, 0, 64, 92
1, 113766, Control_c, 0, 64, 94
1, 113781, Control_c, 0, 64, 96
1, 113795, Control_c, 0, 64, 98
1, 113811, Control_c, 0, 64, 103
1, 113826, Control_c, 0, 64, 108
1, 113841, Control_c, 0, 64, 114
1, 113856, Control_c, 0, 64, 124
1, 113871, Control_c, 0, 64, 127
1, 113968, Note_off_c, 0, 45, 33
1, 114075, Note_off_c, 0, 52, 32
1, 114483, Note_on_c, 0, 69, 71
1, 114485, Control_c, 0, 64, 119
1, 114500, Control_c, 0, 64, 114
1, 114515, Control_c, 0, 64, 111
1, 114529, Control_c, 0, 64, 109
1, 114544, Control_c, 0, 64, 106
1, 114559, Control_c, 0, 64, 100
1, 114574, Control_c, 0, 64, 92
1, 114589, Control_c, 0, 64, 87
1, 114605, Control_c, 0, 64, 82
1, 114620, Control_c, 0, 64, 76
1, 114625, Note_off_c, 0, 61, 38
1, 114634, Control_c, 0, 64, 71
1, 114649, Control_c, 0, 64, 67
1, 114664, Control_c, 0, 64, 65
1, 114679, Control_c, 0, 64, 64
1, 114694, Control_c, 0, 64, 63
1, 114708, Control_c, 0, 64, 62
1, 114723, Control_c, 0, 64, 60
1, 114738, Control_c, 0, 64, 57
1, 114752, Control_c, 0, 64, 55
1, 114767, Control_c, 0, 64, 54
1, 114782, Control_c, 0, 64, 53
1, 115190, Control_c, 0, 64, 53
1, 115205, Control_c, 0, 64, 51
1, 115220, Control_c, 0, 64, 49
1, 115234, Control_c, 0, 64, 47
1, 115249, Control_c, 0, 64, 46
1, 115264, Control_c, 0, 64, 45
1, 115278, Control_c, 0, 64, 43
1, 115293, Control_c, 0, 64, 42
1, 115308, Control_c, 0, 64, 41
1, 115323, Control_c, 0, 64, 40
1, 115338, Control_c, 0, 64, 38
1, 115352, Control_c, 0, 64, 38
1, 115367, Control_c, 0, 64, 37
1, 115382, Control_c, 0, 64, 37
1, 115397, Control_c, 0, 64, 36
1, 115413, Control_c, 0, 64, 36
1, 115560, Note_on_c, 0, 44, 27
1, 115590, Control_c, 0, 64, 38
1, 115605, Control_c, 0, 64, 42
1, 115620, Control_c, 0, 64, 48
1, 115635, Control_c, 0, 64, 53
1, 115650, Control_c, 0, 64, 56
1, 115664, Control_c, 0, 64, 58
1, 115679, Control_c, 0, 64, 60
1, 115694, Control_c, 0, 64, 61
1, 115709, Control_c, 0, 64, 62
1, 115724, Control_c, 0, 64, 63
1, 115739, Control_c, 0, 64, 64
1, 115754, Control_c, 0, 64, 65
1, 115769, Control_c, 0, 64, 67
1, 115790, Control_c, 0, 64, 68
1, 115805, Control_c, 0, 64, 70
1, 115820, Control_c, 0, 64, 72
1, 115835, Control_c, 0, 64, 74
1, 115850, Control_c, 0, 64, 75
1, 115857, Note_on_c, 0, 51, 18
1, 115864, Control_c, 0, 64, 76
1, 115879, Control_c, 0, 64, 76
1, 115894, Control_c, 0, 64, 77
1, 115909, Control_c, 0, 64, 79
1, 115924, Control_c, 0, 64, 82
1, 115937, Control_c, 0, 64, 84
1, 115952, Control_c, 0, 64, 87
1, 115967, Control_c, 0, 64, 89
1, 115981, Control_c, 0, 64, 92
1, 115996, Control_c, 0, 64, 94
1, 116001, Note_on_c, 0, 56, 25
1, 116011, Control_c, 0, 64, 98
1, 116026, Control_c, 0, 64, 101
1, 116041, Control_c, 0, 64, 104
1, 116055, Control_c, 0, 64, 108
1, 116070, Control_c, 0, 64, 113
1, 116085, Control_c, 0, 64, 127
1, 116132, Note_on_c, 0, 60, 36
1, 116289, Note_on_c, 0, 63, 30
1, 116463, Note_off_c, 0, 63, 36
1, 116474, Note_on_c, 0, 68, 41
1, 116572, Note_off_c, 0, 51, 1
1, 116575, Note_off_c, 0, 60, 29
1, 116592, Note_off_c, 0, 56, 8
1, 116603, Note_on_c, 0, 63, 31
1, 116604, Note_off_c, 0, 69, 34
1, 116670, Note_on_c, 0, 60, 13
1, 116779, Note_on_c, 0, 56, 33
1, 116779, Note_off_c, 0, 63, 38
1, 116819, Note_off_c, 0, 60, 37
1, 116829, Note_off_c, 0, 68, 37
1, 116853, Note_off_c, 0, 44, 39
1, 116916, Note_on_c, 0, 51, 32
1, 116936, Note_off_c, 0, 56, 37
1, 117027, Note_on_c, 0, 44, 32
1, 117036, Note_off_c, 0, 51, 33
1, 117199, Note_on_c, 0, 51, 31
1, 117275, Note_off_c, 0, 44, 38
1, 117279, Note_on_c, 0, 56, 30
1, 117349, Note_on_c, 0, 60, 35
1, 117376, Control_c, 0, 67, 16
1, 117379, Note_off_c, 0, 51, 40
1, 117391, Control_c, 0, 67, 17
1, 117404, Note_off_c, 0, 56, 37
1, 117406, Control_c, 0, 67, 18
1, 117421, Control_c, 0, 67, 19
1, 117435, Control_c, 0, 67, 19
1, 117450, Control_c, 0, 67, 20
1, 117462, Note_on_c, 0, 63, 44
1, 117480, Control_c, 0, 67, 21
1, 117510, Control_c, 0, 67, 21
1, 117525, Control_c, 0, 67, 22
1, 117554, Control_c, 0, 67, 22
1, 117569, Control_c, 0, 67, 23
1, 117578, Note_on_c, 0, 68, 44
1, 117580, Note_off_c, 0, 60, 26
1, 117596, Note_off_c, 0, 63, 45
1, 117628, Control_c, 0, 67, 23
1, 117647, Note_off_c, 0, 68, 39
1, 117776, Control_c, 0, 67, 23
1, 117807, Control_c, 0, 67, 22
1, 117822, Control_c, 0, 67, 21
1, 117837, Note_on_c, 0, 72, 60
1, 117837, Control_c, 0, 67, 21
1, 117851, Control_c, 0, 67, 20
1, 117859, Note_on_c, 0, 68, 49
1, 117866, Control_c, 0, 67, 18
1, 117881, Control_c, 0, 67, 17
1, 117895, Control_c, 0, 67, 17
1, 117906, Note_off_c, 0, 72, 57
1, 117910, Control_c, 0, 67, 16
1, 117921, Note_off_c, 0, 68, 44
1, 117940, Control_c, 0, 67, 16
1, 117969, Control_c, 0, 67, 38
1, 118040, Note_on_c, 0, 68, 3
1, 118125, Control_c, 0, 67, 39
1, 118164, Note_on_c, 0, 63, 10
1, 118170, Control_c, 0, 67, 39
1, 118185, Note_off_c, 0, 68, 33
1, 118186, Note_on_c, 0, 60, 40
1, 118199, Control_c, 0, 67, 40
1, 118214, Control_c, 0, 67, 41
1, 118229, Control_c, 0, 67, 41
1, 118234, Note_off_c, 0, 63, 39
1, 118244, Control_c, 0, 67, 42
1, 118255, Note_off_c, 0, 60, 47
1, 118258, Control_c, 0, 67, 42
1, 118273, Control_c, 0, 67, 43
1, 118288, Control_c, 0, 67, 44
1, 118303, Control_c, 0, 67, 44
1, 118313, Note_on_c, 0, 56, 37
1, 118317, Control_c, 0, 67, 45
1, 118332, Control_c, 0, 67, 45
1, 118347, Control_c, 0, 67, 46
1, 118362, Control_c, 0, 67, 46
1, 118392, Control_c, 0, 67, 47
1, 118407, Control_c, 0, 67, 47
1, 118421, Control_c, 0, 64, 124
1, 118431, Note_on_c, 0, 51, 28
1, 118436, Control_c, 0, 64, 122
1, 118451, Control_c, 0, 64, 120
1, 118458, Note_off_c, 0, 56, 27
1, 118466, Control_c, 0, 64, 118
1, 118466, Control_c, 0, 67, 48
1, 118481, Control_c, 0, 64, 117
1, 118491, Note_off_c, 0, 51, 39
1, 118495, Control_c, 0, 64, 116
1, 118510, Control_c, 0, 64, 115
1, 118525, Control_c, 0, 64, 112
1, 118525, Control_c, 0, 67, 49
1, 118540, Control_c, 0, 64, 108
1, 118555, Control_c, 0, 64, 102
1, 118555, Control_c, 0, 67, 49
1, 118569, Control_c, 0, 64, 97
1, 118579, Note_on_c, 0, 73, 70
1, 118584, Control_c, 0, 64, 91
1, 118587, Note_on_c, 0, 44, 43
1, 118600, Control_c, 0, 64, 83
1, 118605, Note_on_c, 0, 69, 51
1, 118615, Control_c, 0, 64, 74
1, 118630, Control_c, 0, 64, 66
1, 118645, Control_c, 0, 64, 61
1, 118645, Control_c, 0, 67, 48
1, 118660, Control_c, 0, 64, 59
1, 118660, Control_c, 0, 67, 46
1, 118674, Control_c, 0, 67, 44
1, 118689, Control_c, 0, 67, 42
1, 118704, Control_c, 0, 64, 60
1, 118704, Control_c, 0, 67, 40
1, 118715, Note_on_c, 0, 52, 37
1, 118718, Control_c, 0, 64, 64
1, 118718, Control_c, 0, 67, 39
1, 118733, Control_c, 0, 64, 68
1, 118733, Control_c, 0, 67, 38
1, 118748, Control_c, 0, 64, 73
1, 118748, Control_c, 0, 67, 37
1, 118763, Control_c, 0, 64, 82
1, 118763, Control_c, 0, 67, 36
1, 118785, Control_c, 0, 64, 90
1, 118785, Control_c, 0, 67, 33
1, 118790, Note_off_c, 0, 44, 39
1, 118800, Control_c, 0, 64, 94
1, 118800, Control_c, 0, 67, 30
1, 118811, Note_off_c, 0, 69, 37
1, 118815, Control_c, 0, 64, 95
1, 118815, Control_c, 0, 67, 28
1, 118825, Note_on_c, 0, 57, 40
1, 118830, Control_c, 0, 64, 95
1, 118830, Control_c, 0, 67, 26
1, 118845, Control_c, 0, 64, 97
1, 118845, Control_c, 0, 67, 25
1, 118859, Control_c, 0, 64, 100
1, 118859, Control_c, 0, 67, 23
1, 118863, Note_off_c, 0, 57, 58
1, 118869, Note_off_c, 0, 52, 35
1, 118874, Control_c, 0, 64, 103
1, 118874, Control_c, 0, 67, 21
1, 118889, Control_c, 0, 64, 105
1, 118889, Control_c, 0, 67, 19
1, 118893, Note_on_c, 0, 61, 40
1, 118904, Control_c, 0, 64, 107
1, 118904, Control_c, 0, 67, 18
1, 118919, Control_c, 0, 64, 108
1, 118922, Note_off_c, 0, 61, 54
1, 118925, Note_off_c, 0, 73, 46
1, 118933, Control_c, 0, 64, 109
1, 118948, Control_c, 0, 64, 110
1, 118958, Note_on_c, 0, 64, 41
1, 118963, Control_c, 0, 64, 110
1, 119051, Note_on_c, 0, 69, 43
1, 119096, Control_c, 0, 67, 18
1, 119109, Note_off_c, 0, 69, 50
1, 119125, Control_c, 0, 67, 19
1, 119170, Control_c, 0, 67, 19
1, 119197, Note_on_c, 0, 76, 72
1, 119200, Control_c, 0, 67, 20
1, 119211, Note_on_c, 0, 73, 58
1, 119230, Control_c, 0, 67, 20
1, 119256, Note_off_c, 0, 76, 60
1, 119261, Note_off_c, 0, 73, 58
1, 119274, Control_c, 0, 67, 21
1, 119316, Note_on_c, 0, 69, 38
1, 119319, Note_off_c, 0, 64, 37
1, 119394, Control_c, 0, 67, 20
1, 119408, Note_on_c, 0, 64, 37
1, 119429, Note_off_c, 0, 69, 35
1, 119504, Note_on_c, 0, 61, 36
1, 119512, Control_c, 0, 67, 21
1, 119534, Control_c, 0, 67, 21
1, 119549, Control_c, 0, 67, 22
1, 119549, Note_off_c, 0, 64, 30
1, 119564, Control_c, 0, 67, 23
1, 119567, Note_off_c, 0, 61, 41
1, 119578, Control_c, 0, 67, 23
1, 119593, Control_c, 0, 67, 24
1, 119608, Control_c, 0, 67, 24
1, 119620, Note_on_c, 0, 57, 29
1, 119638, Control_c, 0, 67, 25
1, 119653, Control_c, 0, 67, 25
1, 119677, Note_off_c, 0, 57, 41
1, 119681, Control_c, 0, 67, 26
1, 119696, Control_c, 0, 67, 26
1, 119711, Control_c, 0, 67, 27
1, 119715, Note_on_c, 0, 52, 43
1, 119741, Control_c, 0, 67, 27
1, 119761, Note_off_c, 0, 52, 54
1, 119770, Control_c, 0, 67, 28
1, 119785, Control_c, 0, 67, 28
1, 119800, Control_c, 0, 64, 110
1, 119800, Control_c, 0, 67, 29
1, 119815, Control_c, 0, 64, 109
1, 119829, Control_c, 0, 64, 109
1, 119829, Control_c, 0, 67, 29
1, 119844, Control_c, 0, 64, 108
1, 119859, Control_c, 0, 64, 108
1, 119874, Control_c, 0, 64, 106
1, 119874, Control_c, 0, 67, 30
1, 119888, Control_c, 0, 64, 105
1, 119903, Control_c, 0, 64, 102
1, 119918, Control_c, 0, 64, 99
1, 119918, Control_c, 0, 67, 30
1, 119933, Control_c, 0, 64, 94
1, 119948, Control_c, 0, 64, 88
1, 119948, Control_c, 0, 67, 31
1, 119956, Note_on_c, 0, 78, 58
1, 119963, Control_c, 0, 64, 81
1, 119963, Control_c, 0, 67, 31
1, 119965, Note_on_c, 0, 42, 32
1, 119978, Control_c, 0, 64, 70
1, 119978, Control_c, 0, 67, 33
1, 119984, Note_on_c, 0, 74, 39
1, 119993, Control_c, 0, 64, 64
1, 119993, Control_c, 0, 67, 34
1, 120008, Control_c, 0, 64, 59
1, 120008, Control_c, 0, 67, 35
1, 120022, Control_c, 0, 64, 59
1, 120022, Control_c, 0, 67, 36
1, 120037, Control_c, 0, 67, 37
1, 120052, Control_c, 0, 67, 38
1, 120066, Control_c, 0, 64, 61
1, 120066, Control_c, 0, 67, 39
1, 120081, Control_c, 0, 64, 66
1, 120081, Control_c, 0, 67, 40
1, 120096, Control_c, 0, 64, 70
1, 120096, Control_c, 0, 67, 40
1, 120111, Control_c, 0, 64, 77
1, 120114, Note_off_c, 0, 42, 57
1, 120126, Control_c, 0, 64, 85
1, 120140, Control_c, 0, 64, 91
1, 120155, Control_c, 0, 64, 93
1, 120168, Note_off_c, 0, 78, 55
1, 120170, Control_c, 0, 64, 94
1, 120176, Note_off_c, 0, 74, 39
1, 120185, Control_c, 0, 64, 95
1, 120201, Control_c, 0, 64, 97
1, 120212, Note_on_c, 0, 54, 39
1, 120216, Control_c, 0, 64, 99
1, 120216, Control_c, 0, 67, 40
1, 120231, Control_c, 0, 64, 100
1, 120260, Control_c, 0, 64, 100
1, 120260, Control_c, 0, 67, 39
1, 120310, Note_on_c, 0, 57, 41
1, 120350, Note_off_c, 0, 57, 59
1, 120365, Note_off_c, 0, 54, 42
1, 120380, Note_on_c, 0, 62, 40
1, 120463, Note_on_c, 0, 66, 31
1, 120506, Note_on_c, 0, 69, 38
1, 120517, Note_off_c, 0, 66, 40
1, 120520, Control_c, 0, 67, 40
1, 120580, Note_on_c, 0, 74, 40
1, 120589, Note_off_c, 0, 69, 32
1, 120634, Note_off_c, 0, 74, 40
1, 120644, Note_off_c, 0, 62, 25
1, 120692, Note_on_c, 0, 81, 59
1, 120698, Note_on_c, 0, 78, 47
1, 120740, Note_off_c, 0, 78, 56
1, 120756, Note_off_c, 0, 81, 56
1, 120789, Note_on_c, 0, 74, 38
1, 120845, Control_c, 0, 67, 39
1, 120878, Note_off_c, 0, 74, 33
1, 120889, Note_on_c, 0, 69, 27
1, 120961, Note_off_c, 0, 69, 35
1, 120964, Control_c, 0, 67, 39
1, 121006, Note_on_c, 0, 66, 18
1, 121046, Control_c, 0, 67, 38
1, 121062, Note_on_c, 0, 62, 36
1, 121150, Control_c, 0, 67, 39
1, 121171, Note_off_c, 0, 66, 21
1, 121195, Control_c, 0, 67, 39
1, 121198, Note_on_c, 0, 57, 29
1, 121200, Note_off_c, 0, 62, 36
1, 121254, Control_c, 0, 67, 40
1, 121283, Control_c, 0, 67, 40
1, 121313, Control_c, 0, 67, 41
1, 121343, Control_c, 0, 67, 41
1, 121349, Note_off_c, 0, 57, 40
1, 121361, Note_on_c, 0, 54, 36
1, 121402, Control_c, 0, 67, 42
1, 121446, Control_c, 0, 67, 42
1, 121461, Control_c, 0, 67, 43
1, 121476, Control_c, 0, 67, 43
1, 121491, Control_c, 0, 67, 44
1, 121505, Note_off_c, 0, 54, 41
1, 121506, Control_c, 0, 67, 44
1, 121520, Control_c, 0, 67, 45
1, 121609, Control_c, 0, 64, 100
1, 121609, Control_c, 0, 67, 45
1, 121624, Control_c, 0, 64, 99
1, 121638, Control_c, 0, 64, 99
1, 121653, Control_c, 0, 64, 98
1, 121662, Note_on_c, 0, 84, 54
1, 121668, Control_c, 0, 64, 97
1, 121668, Control_c, 0, 67, 46
1, 121673, Note_on_c, 0, 80, 39
1, 121680, Note_on_c, 0, 44, 37
1, 121683, Control_c, 0, 64, 95
1, 121698, Control_c, 0, 64, 91
1, 121698, Control_c, 0, 67, 46
1, 121713, Control_c, 0, 64, 83
1, 121713, Control_c, 0, 67, 47
1, 121728, Control_c, 0, 64, 74
1, 121743, Control_c, 0, 64, 66
1, 121757, Control_c, 0, 64, 61
1, 121757, Control_c, 0, 67, 47
1, 121779, Control_c, 0, 64, 59
1, 121796, Control_c, 0, 67, 48
1, 121811, Control_c, 0, 67, 48
1, 121825, Control_c, 0, 67, 49
1, 121840, Control_c, 0, 67, 49
1, 121855, Control_c, 0, 64, 61
1, 121855, Control_c, 0, 67, 50
1, 121869, Control_c, 0, 64, 64
1, 121869, Control_c, 0, 67, 51
1, 121884, Control_c, 0, 64, 68
1, 121884, Control_c, 0, 67, 51
1, 121899, Control_c, 0, 64, 73
1, 121914, Control_c, 0, 64, 80
1, 121914, Control_c, 0, 67, 52
1, 121929, Control_c, 0, 64, 87
1, 121943, Control_c, 0, 64, 90
1, 121947, Note_off_c, 0, 84, 53
1, 121957, Note_off_c, 0, 44, 40
1, 121958, Control_c, 0, 64, 91
1, 121973, Control_c, 0, 64, 92
1, 121974, Note_on_c, 0, 51, 32
1, 121988, Control_c, 0, 64, 94
1, 122001, Note_off_c, 0, 80, 40
1, 122003, Control_c, 0, 64, 98
1, 122017, Control_c, 0, 64, 101
1, 122032, Control_c, 0, 64, 104
1, 122047, Control_c, 0, 64, 105
1, 122062, Control_c, 0, 64, 107
1, 122076, Control_c, 0, 64, 108
1, 122091, Control_c, 0, 64, 108
1, 122106, Control_c, 0, 64, 109
1, 122121, Control_c, 0, 64, 109
1, 122136, Note_off_c, 0, 51, 40
1, 122136, Control_c, 0, 64, 110
1, 122140, Note_on_c, 0, 56, 34
1, 122241, Note_on_c, 0, 60, 35
1, 122341, Note_on_c, 0, 63, 31
1, 122425, Note_on_c, 0, 68, 29
1, 122428, Note_off_c, 0, 60, 34
1, 122432, Control_c, 0, 67, 52
1, 122467, Note_off_c, 0, 68, 45
1, 122473, Note_on_c, 0, 72, 31
1, 122550, Note_off_c, 0, 56, 32
1, 122568, Note_on_c, 0, 75, 37
1, 122569, Note_off_c, 0, 63, 35
1, 122580, Note_off_c, 0, 72, 0
1, 122619, Poly_aftertouch_c, 0, 72, 127
1, 122634, Control_c, 0, 67, 53
1, 122648, Control_c, 0, 64, 109
1, 122663, Control_c, 0, 64, 109
1, 122668, Note_on_c, 0, 68, 18
1, 122707, Control_c, 0, 64, 108
1, 122720, Note_on_c, 0, 63, 5
1, 122722, Control_c, 0, 67, 53
1, 122737, Control_c, 0, 64, 108
1, 122752, Control_c, 0, 67, 54
1, 122755, Note_off_c, 0, 68, 0
1, 122757, Note_on_c, 0, 60, 30
1, 122766, Control_c, 0, 64, 107
1, 122766, Control_c, 0, 67, 55
1, 122792, Poly_aftertouch_c, 0, 68, 127
1, 122796, Control_c, 0, 67, 55
1, 122811, Control_c, 0, 64, 107
1, 122811, Control_c, 0, 67, 56
1, 122825, Control_c, 0, 67, 56
1, 122840, Control_c, 0, 67, 57
1, 122845, Note_off_c, 0, 60, 35
1, 122849, Note_on_c, 0, 56, 35
1, 122870, Control_c, 0, 67, 57
1, 122884, Note_off_c, 0, 56, 51
1, 122929, Control_c, 0, 67, 58
1, 122934, Note_on_c, 0, 51, 28
1, 123054, Poly_aftertouch_c, 0, 72, 0
1, 123055, Note_off_c, 0, 51, 28
1, 123066, Poly_aftertouch_c, 0, 68, 0
1, 123069, Note_off_c, 0, 75, 40
1, 123078, Control_c, 0, 64, 106
1, 123102, Note_on_c, 0, 44, 41
1, 123141, Note_off_c, 0, 63, 39
1, 123223, Note_on_c, 0, 51, 27
1, 123290, Note_off_c, 0, 44, 40
1, 123328, Note_on_c, 0, 56, 39
1, 123381, Control_c, 0, 67, 57
1, 123394, Note_on_c, 0, 60, 32
1, 123394, Note_off_c, 0, 51, 39
1, 123406, Note_off_c, 0, 56, 39
1, 123477, Note_on_c, 0, 63, 28
1, 123516, Control_c, 0, 67, 58
1, 123546, Control_c, 0, 67, 58
1, 123576, Control_c, 0, 67, 59
1, 123590, Control_c, 0, 67, 60
1, 123596, Note_off_c, 0, 60, 37
1, 123605, Control_c, 0, 67, 61
1, 123612, Note_on_c, 0, 68, 33
1, 123620, Control_c, 0, 67, 62
1, 123634, Note_off_c, 0, 63, 38
1, 123668, Note_off_c, 0, 68, 40
1, 123882, Note_on_c, 0, 72, 56
1, 123915, Note_on_c, 0, 68, 36
1, 123945, Control_c, 0, 67, 62
1, 123963, Note_off_c, 0, 72, 59
1, 123964, Note_off_c, 0, 68, 41
1, 124054, Note_on_c, 0, 68, 17
1, 124116, Control_c, 0, 64, 106
1, 124160, Note_on_c, 0, 63, 30
1, 124162, Note_off_c, 0, 68, 30
1, 124174, Control_c, 0, 64, 105
1, 124190, Control_c, 0, 64, 105
1, 124190, Control_c, 0, 67, 62
1, 124205, Control_c, 0, 64, 104
1, 124212, Note_off_c, 0, 63, 43
1, 124235, Control_c, 0, 64, 104
1, 124243, Note_on_c, 0, 60, 27
1, 124264, Control_c, 0, 64, 103
1, 124288, Note_off_c, 0, 60, 44
1, 124294, Control_c, 0, 64, 103
1, 124324, Control_c, 0, 67, 62
1, 124342, Note_on_c, 0, 56, 17
1, 124353, Control_c, 0, 64, 102
1, 124397, Control_c, 0, 67, 63
1, 124441, Note_on_c, 0, 51, 35
1, 124442, Control_c, 0, 67, 63
1, 124471, Control_c, 0, 67, 64
1, 124486, Control_c, 0, 67, 65
1, 124488, Note_off_c, 0, 56, 22
1, 124501, Control_c, 0, 67, 66
1, 124516, Control_c, 0, 67, 67
1, 124531, Control_c, 0, 67, 67
1, 124545, Control_c, 0, 67, 68
1, 124560, Control_c, 0, 64, 101
1, 124575, Control_c, 0, 64, 99
1, 124575, Control_c, 0, 67, 68
1, 124589, Control_c, 0, 64, 95
1, 124597, Note_off_c, 0, 51, 21
1, 124604, Control_c, 0, 64, 91
1, 124607, Note_on_c, 0, 44, 38
1, 124612, Note_on_c, 0, 73, 65
1, 124618, Note_on_c, 0, 69, 48
1, 124619, Control_c, 0, 64, 84
1, 124619, Control_c, 0, 67, 69
1, 124634, Control_c, 0, 64, 76
1, 124649, Control_c, 0, 64, 67
1, 124649, Control_c, 0, 67, 69
1, 124664, Control_c, 0, 64, 61
1, 124664, Control_c, 0, 67, 70
1, 124679, Control_c, 0, 64, 57
1, 124679, Control_c, 0, 67, 70
1, 124694, Control_c, 0, 64, 57
1, 124723, Control_c, 0, 67, 71
1, 124738, Control_c, 0, 64, 57
1, 124753, Control_c, 0, 64, 60
1, 124753, Control_c, 0, 67, 71
1, 124754, Note_on_c, 0, 52, 33
1, 124775, Control_c, 0, 64, 65
1, 124775, Control_c, 0, 67, 72
1, 124789, Control_c, 0, 64, 70
1, 124789, Control_c, 0, 67, 72
1, 124804, Control_c, 0, 64, 77
1, 124804, Control_c, 0, 67, 73
1, 124819, Control_c, 0, 64, 84
1, 124819, Control_c, 0, 67, 73
1, 124820, Note_off_c, 0, 44, 39
1, 124833, Note_off_c, 0, 69, 0
1, 124834, Control_c, 0, 64, 88
1, 124849, Control_c, 0, 64, 91
1, 124849, Control_c, 0, 67, 74
1, 124864, Control_c, 0, 64, 92
1, 124875, Poly_aftertouch_c, 0, 69, 0
1, 124876, Note_on_c, 0, 57, 46
1, 124878, Control_c, 0, 64, 95
1, 124893, Control_c, 0, 64, 98
1, 124908, Control_c, 0, 64, 102
1, 124915, Note_off_c, 0, 57, 63
1, 124919, Note_off_c, 0, 52, 36
1, 124923, Control_c, 0, 64, 107
1, 124935, Note_on_c, 0, 61, 37
1, 124938, Control_c, 0, 64, 112
1, 124953, Control_c, 0, 64, 116
1, 124966, Note_off_c, 0, 61, 52
1, 124968, Control_c, 0, 64, 118
1, 124970, Note_off_c, 0, 73, 34
1, 124983, Control_c, 0, 64, 119
1, 124995, Note_on_c, 0, 64, 46
1, 124998, Control_c, 0, 64, 121
1, 125013, Control_c, 0, 64, 124
1, 125028, Control_c, 0, 64, 127
1, 125097, Note_on_c, 0, 69, 43
1, 125234, Note_off_c, 0, 69, 42
1, 125245, Note_on_c, 0, 76, 69
1, 125254, Note_on_c, 0, 73, 53
1, 125280, Control_c, 0, 67, 74
1, 125294, Control_c, 0, 67, 75
1, 125305, Note_off_c, 0, 76, 60
1, 125308, Note_off_c, 0, 73, 56
1, 125324, Control_c, 0, 67, 75
1, 125339, Control_c, 0, 67, 76
1, 125354, Control_c, 0, 67, 76
1, 125356, Note_on_c, 0, 69, 50
1, 125364, Note_off_c, 0, 64, 37
1, 125368, Control_c, 0, 67, 77
1, 125398, Control_c, 0, 67, 77
1, 125412, Control_c, 0, 67, 78
1, 125461, Note_on_c, 0, 64, 38
1, 125477, Note_off_c, 0, 69, 35
1, 125548, Note_on_c, 0, 61, 41
1, 125565, Note_off_c, 0, 64, 36
1, 125589, Note_off_c, 0, 61, 46
1, 125618, Note_on_c, 0, 57, 39
1, 125672, Control_c, 0, 67, 78
1, 125680, Note_off_c, 0, 57, 44
1, 125686, Control_c, 0, 64, 124
1, 125686, Control_c, 0, 67, 79
1, 125701, Control_c, 0, 64, 123
1, 125716, Control_c, 0, 67, 79
1, 125730, Note_on_c, 0, 52, 44
1, 125731, Control_c, 0, 64, 122
1, 125731, Control_c, 0, 67, 80
1, 125746, Control_c, 0, 64, 120
1, 125746, Control_c, 0, 67, 81
1, 125761, Control_c, 0, 64, 119
1, 125761, Control_c, 0, 67, 81
1, 125776, Control_c, 0, 64, 118
1, 125776, Control_c, 0, 67, 82
1, 125786, Note_off_c, 0, 52, 54
1, 125791, Control_c, 0, 64, 116
1, 125791, Control_c, 0, 67, 82
1, 125806, Control_c, 0, 64, 115
1, 125806, Control_c, 0, 67, 83
1, 125821, Control_c, 0, 64, 114
1, 125835, Control_c, 0, 64, 113
1, 125835, Control_c, 0, 67, 83
1, 125850, Control_c, 0, 64, 112
1, 125865, Control_c, 0, 64, 111
1, 125880, Control_c, 0, 64, 110
1, 125895, Control_c, 0, 64, 108
1, 125910, Control_c, 0, 64, 105
1, 125925, Control_c, 0, 64, 99
1, 125940, Control_c, 0, 64, 91
1, 125954, Note_on_c, 0, 78, 60
1, 125955, Control_c, 0, 64, 79
1, 125957, Note_on_c, 0, 74, 52
1, 125958, Note_on_c, 0, 42, 37
1, 125969, Control_c, 0, 64, 67
1, 125984, Control_c, 0, 64, 60
1, 125984, Control_c, 0, 67, 84
1, 125999, Control_c, 0, 64, 58
1, 126014, Control_c, 0, 67, 84
1, 126043, Control_c, 0, 64, 59
1, 126043, Control_c, 0, 67, 85
1, 126058, Control_c, 0, 64, 63
1, 126073, Control_c, 0, 64, 68
1, 126088, Control_c, 0, 64, 74
1, 126088, Control_c, 0, 67, 85
1, 126103, Control_c, 0, 64, 83
1, 126110, Note_off_c, 0, 42, 57
1, 126117, Control_c, 0, 64, 90
1, 126132, Control_c, 0, 64, 92
1, 126143, Note_off_c, 0, 74, 51
1, 126147, Control_c, 0, 64, 93
1, 126151, Note_off_c, 0, 78, 56
1, 126161, Control_c, 0, 64, 94
1, 126176, Control_c, 0, 64, 95
1, 126191, Control_c, 0, 64, 97
1, 126206, Control_c, 0, 64, 98
1, 126206, Control_c, 0, 67, 85
1, 126213, Note_on_c, 0, 54, 38
1, 126221, Control_c, 0, 64, 98
1, 126235, Control_c, 0, 67, 84
1, 126285, Note_on_c, 0, 57, 43
1, 126317, Control_c, 0, 67, 84
1, 126336, Note_off_c, 0, 57, 59
1, 126360, Note_off_c, 0, 54, 42
1, 126361, Control_c, 0, 67, 83
1, 126366, Note_on_c, 0, 62, 41
1, 126441, Note_on_c, 0, 66, 36
1, 126465, Control_c, 0, 64, 99
1, 126481, Note_on_c, 0, 69, 35
1, 126524, Control_c, 0, 67, 83
1, 126539, Control_c, 0, 67, 82
1, 126569, Control_c, 0, 67, 82
1, 126595, Note_on_c, 0, 74, 27
1, 126629, Control_c, 0, 67, 81
1, 126654, Note_off_c, 0, 74, 39
1, 126679, Note_off_c, 0, 66, 0
1, 126716, Poly_aftertouch_c, 0, 66, 127
1, 126759, Note_on_c, 0, 81, 54
1, 126764, Note_on_c, 0, 78, 41
1, 126783, Note_off_c, 0, 69, 26
1, 126848, Note_off_c, 0, 81, 55
1, 126862, Note_off_c, 0, 78, 43
1, 126866, Control_c, 0, 64, 99
1, 126871, Note_on_c, 0, 74, 36
1, 126898, Poly_aftertouch_c, 0, 66, 0
1, 126900, Note_off_c, 0, 62, 22
1, 127011, Note_on_c, 0, 69, 32
1, 127032, Note_off_c, 0, 74, 36
1, 127100, Note_on_c, 0, 66, 37
1, 127141, Note_off_c, 0, 69, 41
1, 127192, Note_on_c, 0, 62, 28
1, 127245, Note_off_c, 0, 62, 43
1, 127287, Note_off_c, 0, 66, 38
1, 127296, Note_on_c, 0, 57, 32
1, 127394, Control_c, 0, 67, 82
1, 127452, Note_on_c, 0, 54, 40
1, 127452, Note_off_c, 0, 57, 39
1, 127453, Control_c, 0, 67, 82
1, 127482, Control_c, 0, 67, 83
1, 127512, Control_c, 0, 67, 83
1, 127556, Control_c, 0, 67, 84
1, 127586, Control_c, 0, 67, 84
1, 127595, Note_off_c, 0, 54, 41
1, 127630, Control_c, 0, 67, 85
1, 127719, Control_c, 0, 64, 99
1, 127734, Control_c, 0, 64, 98
1, 127749, Control_c, 0, 64, 98
1, 127749, Control_c, 0, 67, 85
1, 127771, Control_c, 0, 64, 97
1, 127786, Control_c, 0, 64, 95
1, 127787, Note_on_c, 0, 68, 47
1, 127788, Note_on_c, 0, 44, 40
1, 127801, Control_c, 0, 64, 91
1, 127815, Control_c, 0, 64, 87
1, 127830, Control_c, 0, 64, 80
1, 127845, Control_c, 0, 64, 71
1, 127860, Control_c, 0, 64, 65
1, 127860, Control_c, 0, 67, 86
1, 127875, Control_c, 0, 64, 62
1, 127889, Control_c, 0, 64, 61
1, 127889, Control_c, 0, 67, 86
1, 127904, Control_c, 0, 64, 61
1, 127948, Control_c, 0, 67, 87
1, 127963, Control_c, 0, 67, 88
1, 127978, Control_c, 0, 64, 62
1, 127978, Control_c, 0, 67, 89
1, 127993, Control_c, 0, 64, 64
1, 127993, Control_c, 0, 67, 90
1, 128007, Control_c, 0, 64, 67
1, 128022, Control_c, 0, 64, 70
1, 128037, Control_c, 0, 64, 74
1, 128052, Control_c, 0, 64, 81
1, 128067, Control_c, 0, 64, 86
1, 128072, Note_on_c, 0, 75, 50
1, 128081, Control_c, 0, 64, 88
1, 128096, Control_c, 0, 64, 89
1, 128111, Control_c, 0, 64, 90
1, 128121, Note_off_c, 0, 68, 35
1, 128126, Control_c, 0, 64, 92
1, 128140, Control_c, 0, 64, 94
1, 128155, Control_c, 0, 64, 97
1, 128170, Control_c, 0, 64, 100
1, 128178, Note_on_c, 0, 51, 36
1, 128186, Control_c, 0, 64, 102
1, 128186, Control_c, 0, 67, 89
1, 128201, Control_c, 0, 64, 104
1, 128211, Note_off_c, 0, 44, 40
1, 128216, Control_c, 0, 64, 105
1, 128230, Control_c, 0, 64, 107
1, 128230, Control_c, 0, 67, 89
1, 128245, Control_c, 0, 64, 109
1, 128260, Control_c, 0, 64, 110
1, 128260, Control_c, 0, 67, 88
1, 128275, Control_c, 0, 64, 111
1, 128290, Control_c, 0, 64, 112
1, 128304, Control_c, 0, 64, 113
1, 128314, Note_on_c, 0, 84, 62
1, 128319, Control_c, 0, 64, 114
1, 128326, Note_off_c, 0, 75, 45
1, 128334, Control_c, 0, 64, 114
1, 128349, Control_c, 0, 64, 115
1, 128363, Control_c, 0, 64, 116
1, 128378, Control_c, 0, 64, 117
1, 128384, Note_off_c, 0, 84, 57
1, 128393, Control_c, 0, 64, 117
1, 128408, Control_c, 0, 64, 118
1, 128423, Control_c, 0, 64, 118
1, 128438, Control_c, 0, 64, 119
1, 128453, Control_c, 0, 64, 120
1, 128466, Note_off_c, 0, 51, 36
1, 128473, Note_on_c, 0, 56, 42
1, 128576, Note_on_c, 0, 60, 35
1, 128697, Control_c, 0, 64, 121
1, 128712, Note_on_c, 0, 63, 36
1, 128727, Control_c, 0, 64, 122
1, 128742, Control_c, 0, 64, 124
1, 128756, Control_c, 0, 64, 127
1, 128778, Note_on_c, 0, 68, 33
1, 128792, Note_off_c, 0, 60, 36
1, 128820, Note_on_c, 0, 72, 46
1, 128825, Note_off_c, 0, 68, 44
1, 128839, Note_off_c, 0, 63, 40
1, 128870, Note_off_c, 0, 72, 55
1, 128889, Control_c, 0, 67, 89
1, 128903, Note_on_c, 0, 75, 33
1, 128919, Control_c, 0, 67, 89
1, 128927, Note_on_c, 0, 72, 39
1, 128934, Control_c, 0, 67, 90
1, 128936, Note_off_c, 0, 75, 53
1, 128963, Control_c, 0, 67, 91
1, 128979, Control_c, 0, 67, 91
1, 128990, Note_off_c, 0, 56, 26
1, 128994, Control_c, 0, 67, 92
1, 129009, Control_c, 0, 67, 94
1, 129022, Note_on_c, 0, 68, 36
1, 129024, Control_c, 0, 67, 95
1, 129039, Control_c, 0, 67, 95
1, 129043, Note_off_c, 0, 72, 36
1, 129064, Note_on_c, 0, 60, 31
1, 129068, Control_c, 0, 67, 96
1, 129069, Note_off_c, 0, 68, 44
1, 129083, Control_c, 0, 67, 96
1, 129087, Note_on_c, 0, 63, 33
1, 129098, Control_c, 0, 67, 98
1, 129113, Control_c, 0, 67, 102
1, 129119, Note_off_c, 0, 63, 54
1, 129127, Control_c, 0, 67, 106
1, 129142, Control_c, 0, 67, 110
1, 129157, Control_c, 0, 67, 113
1, 129163, Note_on_c, 0, 56, 38
1, 129172, Control_c, 0, 67, 115
1, 129186, Control_c, 0, 67, 118
1, 129201, Control_c, 0, 67, 121
1, 129216, Control_c, 0, 67, 124
1, 129231, Control_c, 0, 67, 125
1, 129259, Note_on_c, 0, 51, 36
1, 129320, Note_off_c, 0, 56, 26
1, 129372, Control_c, 0, 67, 125
1, 129386, Control_c, 0, 67, 126
1, 129401, Control_c, 0, 67, 127
1, 129415, Control_c, 0, 67, 127
1, 129427, Note_on_c, 0, 42, 62
1, 129445, Control_c, 0, 64, 114
1, 129460, Control_c, 0, 64, 101
1, 129475, Control_c, 0, 64, 87
1, 129490, Control_c, 0, 64, 74
1, 129502, Note_off_c, 0, 51, 41
1, 129504, Control_c, 0, 64, 66
1, 129519, Control_c, 0, 64, 63
1, 129531, Note_off_c, 0, 60, 5
1, 129549, Control_c, 0, 64, 65
1, 129564, Control_c, 0, 64, 69
1, 129579, Control_c, 0, 64, 77
1, 129593, Control_c, 0, 64, 88
1, 129603, Note_off_c, 0, 42, 61
1, 129608, Control_c, 0, 64, 99
1, 129620, Note_on_c, 0, 51, 43
1, 129623, Control_c, 0, 64, 103
1, 129638, Control_c, 0, 64, 104
1, 129652, Control_c, 0, 64, 104
1, 129667, Control_c, 0, 64, 105
1, 129686, Note_on_c, 0, 56, 40
1, 129772, Note_on_c, 0, 60, 43
1, 129830, Note_off_c, 0, 56, 25
1, 129845, Note_off_c, 0, 60, 37
1, 129846, Control_c, 0, 67, 126
1, 129861, Control_c, 0, 67, 122
1, 129865, Note_on_c, 0, 63, 28
1, 129875, Control_c, 0, 67, 119
1, 129890, Control_c, 0, 67, 117
1, 129901, Note_off_c, 0, 63, 51
1, 129905, Control_c, 0, 67, 116
1, 129910, Note_on_c, 0, 73, 55
1, 129916, Note_off_c, 0, 51, 34
1, 129920, Control_c, 0, 67, 115
1, 129934, Control_c, 0, 67, 115
1, 129949, Control_c, 0, 67, 114
1, 129964, Control_c, 0, 67, 114
1, 129979, Control_c, 0, 67, 113
1, 129991, Note_off_c, 0, 73, 60
1, 129994, Control_c, 0, 67, 112
1, 130016, Control_c, 0, 67, 111
1, 130025, Note_on_c, 0, 75, 52
1, 130031, Control_c, 0, 67, 111
1, 130035, Note_on_c, 0, 60, 47
1, 130046, Control_c, 0, 67, 110
1, 130061, Control_c, 0, 67, 109
1, 130068, Note_on_c, 0, 72, 65
1, 130071, Note_off_c, 0, 75, 52
1, 130075, Control_c, 0, 67, 109
1, 130090, Control_c, 0, 67, 108
1, 130105, Control_c, 0, 67, 107
1, 130120, Control_c, 0, 67, 107
1, 130126, Note_on_c, 0, 56, 44
1, 130134, Control_c, 0, 67, 106
1, 130149, Note_on_c, 0, 68, 56
1, 130164, Control_c, 0, 67, 106
1, 130190, Note_off_c, 0, 56, 54
1, 130195, Note_off_c, 0, 72, 36
1, 130198, Note_off_c, 0, 60, 33
1, 130208, Control_c, 0, 67, 105
1, 130220, Note_on_c, 0, 63, 51
1, 130222, Note_off_c, 0, 68, 51
1, 130223, Control_c, 0, 67, 105
1, 130229, Note_on_c, 0, 51, 4
1, 130238, Control_c, 0, 67, 104
1, 130243, Note_off_c, 0, 63, 60
1, 130253, Control_c, 0, 67, 102
1, 130268, Control_c, 0, 67, 100
1, 130281, Note_off_c, 0, 51, 51
1, 130283, Control_c, 0, 67, 98
1, 130298, Control_c, 0, 67, 96
1, 130313, Control_c, 0, 67, 95
1, 130328, Control_c, 0, 67, 95
1, 130387, Control_c, 0, 64, 103
1, 130401, Control_c, 0, 64, 101
1, 130401, Control_c, 0, 67, 94
1, 130416, Control_c, 0, 64, 97
1, 130431, Control_c, 0, 64, 89
1, 130446, Control_c, 0, 64, 77
1, 130446, Control_c, 0, 67, 94
1, 130450, Note_on_c, 0, 69, 66
1, 130453, Note_on_c, 0, 41, 57
1, 130461, Control_c, 0, 64, 66
1, 130461, Control_c, 0, 67, 93
1, 130476, Control_c, 0, 64, 59
1, 130476, Control_c, 0, 67, 92
1, 130490, Control_c, 0, 64, 56
1, 130490, Control_c, 0, 67, 90
1, 130505, Control_c, 0, 67, 87
1, 130520, Control_c, 0, 64, 59
1, 130520, Control_c, 0, 67, 84
1, 130534, Control_c, 0, 64, 64
1, 130534, Control_c, 0, 67, 81
1, 130549, Control_c, 0, 64, 70
1, 130549, Control_c, 0, 67, 78
1, 130557, Note_off_c, 0, 41, 62
1, 130562, Note_on_c, 0, 75, 67
1, 130564, Control_c, 0, 64, 79
1, 130564, Control_c, 0, 67, 76
1, 130575, Note_off_c, 0, 69, 54
1, 130580, Control_c, 0, 64, 89
1, 130580, Control_c, 0, 67, 73
1, 130595, Control_c, 0, 64, 97
1, 130595, Control_c, 0, 67, 69
1, 130610, Control_c, 0, 64, 97
1, 130610, Control_c, 0, 67, 65
1, 130624, Control_c, 0, 64, 98
1, 130624, Control_c, 0, 67, 61
1, 130639, Control_c, 0, 64, 99
1, 130639, Control_c, 0, 67, 56
1, 130654, Control_c, 0, 64, 101
1, 130654, Control_c, 0, 67, 51
1, 130664, Note_on_c, 0, 84, 78
1, 130668, Note_off_c, 0, 75, 60
1, 130669, Control_c, 0, 64, 103
1, 130669, Control_c, 0, 67, 47
1, 130684, Control_c, 0, 64, 103
1, 130684, Control_c, 0, 67, 43
1, 130698, Control_c, 0, 64, 104
1, 130698, Control_c, 0, 67, 38
1, 130704, Note_off_c, 0, 84, 59
1, 130713, Control_c, 0, 64, 105
1, 130713, Control_c, 0, 67, 36
1, 130743, Control_c, 0, 64, 105
1, 130768, Note_on_c, 0, 51, 45
1, 130795, Control_c, 0, 67, 36
1, 130809, Note_on_c, 0, 57, 46
1, 130810, Control_c, 0, 64, 106
1, 130810, Control_c, 0, 67, 37
1, 130825, Control_c, 0, 67, 37
1, 130854, Control_c, 0, 67, 38
1, 130865, Note_on_c, 0, 60, 52
1, 130869, Control_c, 0, 64, 106
1, 130869, Control_c, 0, 67, 38
1, 130903, Note_on_c, 0, 63, 59
1, 130928, Control_c, 0, 67, 39
1, 130939, Note_off_c, 0, 63, 56
1, 130944, Note_off_c, 0, 57, 38
1, 130951, Note_off_c, 0, 60, 34
1, 130957, Note_on_c, 0, 69, 60
1, 130989, Note_on_c, 0, 72, 56
1, 131037, Note_off_c, 0, 72, 60
1, 131041, Note_on_c, 0, 75, 63
1, 131058, Note_off_c, 0, 69, 36
1, 131088, Note_on_c, 0, 72, 48
1, 131091, Note_on_c, 0, 60, 47
1, 131093, Note_off_c, 0, 51, 38
1, 131103, Note_off_c, 0, 75, 59
1, 131150, Note_on_c, 0, 69, 52
1, 131157, Note_on_c, 0, 57, 46
1, 131185, Note_off_c, 0, 57, 58
1, 131195, Note_off_c, 0, 72, 38
1, 131215, Note_off_c, 0, 60, 31
1, 131217, Note_on_c, 0, 51, 43
1, 131219, Note_off_c, 0, 69, 59
1, 131226, Note_on_c, 0, 63, 46
1, 131246, Note_off_c, 0, 51, 54
1, 131249, Note_off_c, 0, 63, 59
1, 131254, Control_c, 0, 67, 38
1, 131313, Control_c, 0, 64, 105
1, 131328, Control_c, 0, 64, 105
1, 131343, Control_c, 0, 64, 103
1, 131357, Control_c, 0, 64, 101
1, 131373, Control_c, 0, 64, 98
1, 131388, Control_c, 0, 64, 95
1, 131388, Control_c, 0, 67, 38
1, 131403, Control_c, 0, 64, 90
1, 131403, Control_c, 0, 67, 37
1, 131418, Control_c, 0, 64, 83
1, 131418, Control_c, 0, 67, 36
1, 131433, Control_c, 0, 64, 73
1, 131433, Control_c, 0, 67, 35
1, 131444, Note_on_c, 0, 69, 73
1, 131447, Control_c, 0, 64, 63
1, 131447, Control_c, 0, 67, 34
1, 131456, Note_on_c, 0, 40, 63
1, 131462, Control_c, 0, 64, 55
1, 131462, Control_c, 0, 67, 32
1, 131477, Control_c, 0, 64, 52
1, 131477, Control_c, 0, 67, 29
1, 131492, Control_c, 0, 67, 26
1, 131514, Control_c, 0, 64, 56
1, 131514, Control_c, 0, 67, 22
1, 131529, Control_c, 0, 64, 63
1, 131529, Control_c, 0, 67, 19
1, 131544, Control_c, 0, 64, 69
1, 131544, Control_c, 0, 67, 17
1, 131553, Note_on_c, 0, 76, 74
1, 131559, Control_c, 0, 64, 75
1, 131574, Control_c, 0, 64, 84
1, 131574, Note_off_c, 0, 40, 60
1, 131588, Control_c, 0, 64, 90
1, 131596, Note_off_c, 0, 69, 37
1, 131603, Control_c, 0, 64, 93
1, 131618, Control_c, 0, 64, 95
1, 131633, Control_c, 0, 64, 97
1, 131648, Control_c, 0, 64, 100
1, 131662, Control_c, 0, 64, 104
1, 131669, Note_on_c, 0, 84, 80
1, 131677, Control_c, 0, 64, 105
1, 131678, Note_off_c, 0, 76, 61
1, 131692, Control_c, 0, 64, 106
1, 131706, Control_c, 0, 64, 107
1, 131721, Control_c, 0, 64, 107
1, 131723, Note_off_c, 0, 84, 60
1, 131736, Control_c, 0, 64, 108
1, 131741, Note_on_c, 0, 52, 48
1, 131823, Note_on_c, 0, 57, 54
1, 131887, Note_on_c, 0, 60, 56
1, 131913, Note_on_c, 0, 64, 62
1, 131965, Note_off_c, 0, 57, 41
1, 131974, Note_on_c, 0, 69, 64
1, 131997, Note_off_c, 0, 64, 58
1, 131999, Note_off_c, 0, 60, 34
1, 132025, Note_on_c, 0, 72, 65
1, 132038, Note_off_c, 0, 69, 59
1, 132083, Note_off_c, 0, 72, 59
1, 132084, Note_on_c, 0, 76, 65
1, 132097, Note_off_c, 0, 52, 38
1, 132133, Note_on_c, 0, 60, 54
1, 132134, Note_on_c, 0, 72, 42
1, 132143, Note_off_c, 0, 76, 59
1, 132151, Control_c, 0, 67, 0
1, 132189, Note_on_c, 0, 69, 57
1, 132209, Note_off_c, 0, 72, 51
1, 132215, Note_on_c, 0, 57, 45
1, 132271, Note_off_c, 0, 60, 32
1, 132274, Note_off_c, 0, 69, 55
1, 132279, Note_on_c, 0, 64, 60
1, 132284, Note_off_c, 0, 57, 56
1, 132299, Note_on_c, 0, 52, 48
1, 132321, Note_off_c, 0, 64, 57
1, 132328, Note_off_c, 0, 52, 53
1, 132515, Control_c, 0, 64, 106
1, 132529, Control_c, 0, 64, 102
1, 132544, Control_c, 0, 64, 96
1, 132553, Note_on_c, 0, 38, 70
1, 132559, Control_c, 0, 64, 86
1, 132562, Note_on_c, 0, 74, 68
1, 132574, Control_c, 0, 64, 73
1, 132589, Control_c, 0, 64, 62
1, 132603, Control_c, 0, 64, 51
1, 132618, Control_c, 0, 64, 44
1, 132648, Control_c, 0, 64, 48
1, 132663, Control_c, 0, 64, 58
1, 132669, Note_on_c, 0, 81, 69
1, 132677, Note_off_c, 0, 74, 44
1, 132677, Control_c, 0, 64, 66
1, 132692, Control_c, 0, 64, 73
1, 132701, Note_off_c, 0, 38, 61
1, 132707, Control_c, 0, 64, 81
1, 132721, Control_c, 0, 64, 87
1, 132736, Control_c, 0, 64, 92
1, 132751, Control_c, 0, 64, 96
1, 132766, Control_c, 0, 64, 100
1, 132768, Note_on_c, 0, 90, 82
1, 132776, Note_off_c, 0, 81, 60
1, 132781, Control_c, 0, 64, 105
1, 132794, Note_off_c, 0, 90, 61
1, 132796, Control_c, 0, 64, 110
1, 132811, Control_c, 0, 64, 113
1, 132826, Control_c, 0, 64, 114
1, 132840, Control_c, 0, 64, 115
1, 132855, Control_c, 0, 64, 115
1, 132855, Note_on_c, 0, 54, 57
1, 132870, Control_c, 0, 64, 116
1, 132885, Control_c, 0, 64, 116
1, 132937, Note_on_c, 0, 57, 47
1, 132989, Note_on_c, 0, 66, 54
1, 132998, Note_on_c, 0, 62, 53
1, 133058, Note_on_c, 0, 69, 55
1, 133066, Note_off_c, 0, 66, 0
1, 133095, Note_off_c, 0, 57, 41
1, 133097, Note_off_c, 0, 62, 35
1, 133100, Note_on_c, 0, 74, 56
1, 133128, Note_off_c, 0, 69, 56
1, 133132, Poly_aftertouch_c, 0, 66, 0
1, 133138, Note_off_c, 0, 74, 61
1, 133152, Note_on_c, 0, 78, 57
1, 133160, Note_off_c, 0, 54, 32
1, 133197, Note_off_c, 0, 78, 57
1, 133199, Note_on_c, 0, 74, 57
1, 133244, Note_on_c, 0, 62, 45
1, 133252, Note_on_c, 0, 69, 59
1, 133260, Note_off_c, 0, 74, 54
1, 133308, Note_on_c, 0, 66, 41
1, 133323, Note_off_c, 0, 69, 50
1, 133323, Control_c, 0, 64, 116
1, 133330, Note_on_c, 0, 57, 45
1, 133338, Note_off_c, 0, 66, 56
1, 133338, Control_c, 0, 64, 115
1, 133353, Control_c, 0, 64, 114
1, 133368, Control_c, 0, 64, 113
1, 133413, Control_c, 0, 64, 113
1, 133442, Control_c, 0, 64, 111
1, 133446, Note_on_c, 0, 54, 52
1, 133457, Control_c, 0, 64, 110
1, 133468, Note_off_c, 0, 57, 47
1, 133501, Control_c, 0, 64, 110
1, 133560, Control_c, 0, 64, 109
1, 133560, Control_c, 0, 67, 16
1, 133575, Control_c, 0, 64, 109
1, 133575, Control_c, 0, 67, 21
1, 133590, Control_c, 0, 64, 108
1, 133590, Control_c, 0, 67, 26
1, 133605, Control_c, 0, 64, 106
1, 133605, Control_c, 0, 67, 30
1, 133619, Control_c, 0, 64, 105
1, 133619, Control_c, 0, 67, 32
1, 133634, Control_c, 0, 64, 105
1, 133634, Control_c, 0, 67, 33
1, 133648, Note_off_c, 0, 54, 35
1, 133649, Control_c, 0, 64, 104
1, 133649, Control_c, 0, 67, 33
1, 133661, Note_on_c, 0, 36, 74
1, 133664, Control_c, 0, 64, 102
1, 133664, Control_c, 0, 67, 34
1, 133678, Control_c, 0, 64, 98
1, 133678, Control_c, 0, 67, 34
1, 133693, Control_c, 0, 64, 90
1, 133708, Control_c, 0, 64, 77
1, 133723, Control_c, 0, 64, 66
1, 133738, Control_c, 0, 64, 57
1, 133743, Note_off_c, 0, 62, 39
1, 133760, Control_c, 0, 64, 54
1, 133791, Control_c, 0, 64, 58
1, 133791, Control_c, 0, 67, 33
1, 133806, Control_c, 0, 64, 65
1, 133806, Control_c, 0, 67, 33
1, 133821, Control_c, 0, 64, 71
1, 133821, Control_c, 0, 67, 32
1, 133833, Note_on_c, 0, 54, 37
1, 133836, Control_c, 0, 64, 79
1, 133836, Control_c, 0, 67, 31
1, 133839, Note_off_c, 0, 36, 60
1, 133850, Control_c, 0, 64, 89
1, 133850, Control_c, 0, 67, 31
1, 133865, Control_c, 0, 64, 95
1, 133865, Control_c, 0, 67, 30
1, 133880, Control_c, 0, 64, 96
1, 133880, Control_c, 0, 67, 30
1, 133895, Control_c, 0, 64, 97
1, 133895, Control_c, 0, 67, 29
1, 133909, Control_c, 0, 64, 99
1, 133909, Control_c, 0, 67, 29
1, 133914, Note_on_c, 0, 57, 48
1, 133924, Control_c, 0, 64, 103
1, 133924, Control_c, 0, 67, 28
1, 133939, Control_c, 0, 64, 107
1, 133939, Control_c, 0, 67, 28
1, 133954, Control_c, 0, 64, 111
1, 133969, Control_c, 0, 64, 113
1, 133969, Control_c, 0, 67, 27
1, 133983, Note_on_c, 0, 62, 53
1, 133998, Control_c, 0, 64, 114
1, 134043, Control_c, 0, 67, 27
1, 134083, Note_on_c, 0, 66, 57
1, 134095, Note_off_c, 0, 57, 44
1, 134114, Note_off_c, 0, 62, 33
1, 134131, Note_off_c, 0, 66, 55
1, 134157, Note_off_c, 0, 54, 41
1, 134161, Control_c, 0, 64, 114
1, 134161, Control_c, 0, 67, 27
1, 134176, Control_c, 0, 64, 115
1, 134191, Control_c, 0, 64, 115
1, 134205, Note_on_c, 0, 74, 63
1, 134221, Control_c, 0, 67, 28
1, 134250, Note_on_c, 0, 62, 47
1, 134274, Note_on_c, 0, 78, 61
1, 134277, Note_off_c, 0, 74, 59
1, 134280, Control_c, 0, 67, 27
1, 134309, Poly_aftertouch_c, 0, 74, 0
1, 134309, Control_c, 0, 67, 27
1, 134319, Note_on_c, 0, 57, 41
1, 134322, Note_on_c, 0, 74, 35
1, 134340, Note_off_c, 0, 78, 55
1, 134354, Control_c, 0, 67, 26
1, 134368, Control_c, 0, 67, 26
1, 134383, Control_c, 0, 67, 25
1, 134389, Note_on_c, 0, 69, 57
1, 134390, Note_off_c, 0, 62, 28
1, 134391, Note_off_c, 0, 57, 52
1, 134398, Control_c, 0, 67, 24
1, 134406, Note_on_c, 0, 54, 49
1, 134413, Control_c, 0, 67, 24
1, 134427, Control_c, 0, 67, 23
1, 134435, Note_off_c, 0, 54, 55
1, 134438, Note_off_c, 0, 74, 36
1, 134459, Note_off_c, 0, 69, 53
1, 134462, Note_on_c, 0, 66, 49
1, 134472, Control_c, 0, 67, 23
1, 134484, Note_off_c, 0, 66, 61
1, 134554, Control_c, 0, 64, 115
1, 134569, Control_c, 0, 64, 113
1, 134584, Control_c, 0, 64, 111
1, 134599, Control_c, 0, 64, 110
1, 134614, Control_c, 0, 64, 108
1, 134629, Control_c, 0, 64, 107
1, 134629, Control_c, 0, 67, 23
1, 134644, Control_c, 0, 64, 105
1, 134644, Control_c, 0, 67, 24
1, 134658, Control_c, 0, 64, 103
1, 134672, Control_c, 0, 64, 99
1, 134672, Control_c, 0, 67, 24
1, 134687, Control_c, 0, 64, 93
1, 134687, Control_c, 0, 67, 25
1, 134702, Control_c, 0, 64, 85
1, 134702, Control_c, 0, 67, 25
1, 134709, Note_on_c, 0, 35, 59
1, 134717, Control_c, 0, 64, 73
1, 134717, Control_c, 0, 67, 26
1, 134723, Note_on_c, 0, 75, 67
1, 134731, Control_c, 0, 64, 63
1, 134731, Control_c, 0, 67, 26
1, 134746, Control_c, 0, 64, 53
1, 134746, Control_c, 0, 67, 27
1, 134761, Control_c, 0, 64, 49
1, 134761, Control_c, 0, 67, 27
1, 134791, Control_c, 0, 64, 51
1, 134805, Control_c, 0, 64, 59
1, 134820, Control_c, 0, 64, 66
1, 134835, Control_c, 0, 64, 74
1, 134836, Note_on_c, 0, 83, 67
1, 134847, Note_off_c, 0, 35, 61
1, 134850, Control_c, 0, 64, 83
1, 134859, Note_off_c, 0, 75, 58
1, 134865, Control_c, 0, 64, 92
1, 134879, Control_c, 0, 64, 96
1, 134894, Control_c, 0, 64, 98
1, 134909, Control_c, 0, 64, 100
1, 134924, Control_c, 0, 64, 104
1, 134924, Control_c, 0, 67, 27
1, 134933, Note_on_c, 0, 90, 82
1, 134939, Note_off_c, 0, 83, 61
1, 134939, Control_c, 0, 64, 108
1, 134954, Control_c, 0, 64, 110
1, 134969, Control_c, 0, 64, 111
1, 134969, Control_c, 0, 67, 26
1, 134978, Note_off_c, 0, 90, 60
1, 134984, Control_c, 0, 64, 111
1, 135025, Note_on_c, 0, 54, 41
1, 135115, Note_on_c, 0, 59, 52
1, 135117, Control_c, 0, 67, 26
1, 135131, Control_c, 0, 67, 25
1, 135146, Control_c, 0, 67, 24
1, 135161, Control_c, 0, 67, 23
1, 135163, Note_on_c, 0, 63, 53
1, 135176, Control_c, 0, 67, 21
1, 135189, Note_on_c, 0, 66, 53
1, 135191, Control_c, 0, 67, 17
1, 135220, Control_c, 0, 67, 0
1, 135232, Note_on_c, 0, 71, 56
1, 135259, Note_off_c, 0, 66, 47
1, 135269, Note_off_c, 0, 59, 43
1, 135285, Note_off_c, 0, 54, 21
1, 135290, Note_off_c, 0, 63, 36
1, 135300, Note_on_c, 0, 75, 59
1, 135322, Note_off_c, 0, 71, 58
1, 135346, Note_on_c, 0, 78, 57
1, 135347, Note_off_c, 0, 75, 55
1, 135405, Note_on_c, 0, 75, 42
1, 135410, Note_on_c, 0, 63, 49
1, 135425, Note_off_c, 0, 78, 51
1, 135457, Note_on_c, 0, 71, 53
1, 135470, Note_on_c, 0, 59, 44
1, 135497, Note_off_c, 0, 63, 34
1, 135524, Note_off_c, 0, 75, 38
1, 135525, Note_on_c, 0, 66, 42
1, 135534, Note_off_c, 0, 71, 54
1, 135552, Note_off_c, 0, 66, 55
1, 135565, Note_off_c, 0, 59, 54
1, 135567, Note_on_c, 0, 54, 48
1, 135592, Note_off_c, 0, 54, 61
1, 135672, Control_c, 0, 64, 111
1, 135687, Control_c, 0, 64, 110
1, 135747, Control_c, 0, 64, 109
1, 135762, Control_c, 0, 64, 107
1, 135777, Control_c, 0, 64, 104
1, 135791, Poly_aftertouch_c, 0, 34, 127
1, 135792, Control_c, 0, 64, 100
1, 135806, Control_c, 0, 64, 96
1, 135821, Control_c, 0, 64, 92
1, 135824, Note_on_c, 0, 75, 64
1, 135836, Control_c, 0, 64, 85
1, 135839, Poly_aftertouch_c, 0, 34, 0
1, 135846, Note_on_c, 0, 33, 62
1, 135851, Control_c, 0, 64, 74
1, 135865, Control_c, 0, 64, 64
1, 135880, Control_c, 0, 64, 55
1, 135895, Control_c, 0, 64, 48
1, 135910, Control_c, 0, 64, 48
1, 135925, Control_c, 0, 64, 49
1, 135940, Control_c, 0, 64, 57
1, 135946, Note_on_c, 0, 83, 63
1, 135954, Control_c, 0, 64, 64
1, 135961, Note_off_c, 0, 75, 57
1, 135969, Control_c, 0, 64, 71
1, 135984, Control_c, 0, 64, 78
1, 136006, Control_c, 0, 64, 87
1, 136015, Note_off_c, 0, 33, 52
1, 136021, Control_c, 0, 64, 92
1, 136036, Control_c, 0, 64, 94
1, 136051, Control_c, 0, 64, 99
1, 136066, Control_c, 0, 64, 105
1, 136073, Note_on_c, 0, 90, 75
1, 136080, Control_c, 0, 64, 117
1, 136086, Note_off_c, 0, 83, 55
1, 136095, Control_c, 0, 64, 127
1, 136121, Note_off_c, 0, 90, 60
1, 136224, Note_on_c, 0, 54, 48
1, 136322, Note_on_c, 0, 59, 50
1, 136384, Note_on_c, 0, 63, 43
1, 136391, Note_on_c, 0, 66, 39
1, 136424, Note_on_c, 0, 71, 52
1, 136434, Note_off_c, 0, 66, 44
1, 136489, Note_on_c, 0, 75, 51
1, 136490, Note_off_c, 0, 59, 33
1, 136504, Note_off_c, 0, 71, 47
1, 136505, Note_off_c, 0, 63, 35
1, 136525, Note_off_c, 0, 75, 61
1, 136537, Note_on_c, 0, 78, 55
1, 136580, Note_on_c, 0, 75, 53
1, 136601, Note_off_c, 0, 78, 47
1, 136626, Note_on_c, 0, 71, 50
1, 136647, Note_on_c, 0, 63, 42
1, 136728, Note_on_c, 0, 66, 47
1, 136730, Note_off_c, 0, 75, 29
1, 136731, Note_off_c, 0, 54, 41
1, 136755, Note_off_c, 0, 71, 45
1, 136760, Note_off_c, 0, 66, 58
1, 136763, Note_on_c, 0, 59, 45
1, 136780, Note_off_c, 0, 63, 44
1, 136877, Note_on_c, 0, 54, 43
1, 136930, Note_off_c, 0, 59, 31
1, 136992, Note_on_c, 0, 78, 62
1, 137052, Note_off_c, 0, 54, 38
1, 137081, Note_off_c, 0, 78, 55
1, 137104, Note_on_c, 0, 84, 58
1, 137283, Note_on_c, 0, 87, 71
1, 137682, Control_c, 0, 64, 116
1, 137697, Control_c, 0, 64, 108
1, 137699, Note_on_c, 0, 32, 42
1, 137712, Control_c, 0, 64, 100
1, 137720, Note_on_c, 0, 93, 76
1, 137726, Control_c, 0, 64, 92
1, 137741, Control_c, 0, 64, 82
1, 137756, Control_c, 0, 64, 72
1, 137772, Control_c, 0, 64, 64
1, 137787, Control_c, 0, 64, 58
1, 137802, Control_c, 0, 64, 53
1, 137816, Control_c, 0, 64, 49
1, 137831, Control_c, 0, 64, 48
1, 137861, Control_c, 0, 64, 50
1, 137875, Control_c, 0, 64, 58
1, 137890, Control_c, 0, 64, 66
1, 137905, Control_c, 0, 64, 73
1, 137920, Control_c, 0, 64, 81
1, 137935, Control_c, 0, 64, 88
1, 137950, Control_c, 0, 64, 92
1, 137965, Control_c, 0, 64, 96
1, 137980, Control_c, 0, 64, 100
1, 137994, Control_c, 0, 64, 106
1, 138009, Control_c, 0, 64, 112
1, 138017, Note_off_c, 0, 32, 39
1, 138018, Note_off_c, 0, 93, 36
1, 138024, Control_c, 0, 64, 122
1, 138026, Note_off_c, 0, 84, 39
1, 138039, Control_c, 0, 64, 127
1, 138054, Note_off_c, 0, 87, 44
1, 138679, Note_on_c, 0, 44, 35
1, 138902, Note_off_c, 0, 44, 38
1, 138977, Note_on_c, 0, 60, 39
1, 139005, Note_on_c, 0, 51, 33
1, 139133, Note_on_c, 0, 63, 48
1, 139143, Note_on_c, 0, 54, 45
1, 139148, Note_off_c, 0, 60, 40
1, 139162, Note_off_c, 0, 51, 42
1, 139164, Control_c, 0, 67, 16
1, 139169, Note_off_c, 0, 63, 63
1, 139179, Control_c, 0, 67, 17
1, 139194, Control_c, 0, 67, 18
1, 139202, Note_off_c, 0, 54, 57
1, 139209, Control_c, 0, 67, 18
1, 139238, Control_c, 0, 67, 19
1, 139260, Note_on_c, 0, 69, 55
1, 139261, Note_on_c, 0, 60, 39
1, 139289, Note_off_c, 0, 60, 53
1, 139324, Note_off_c, 0, 69, 54
1, 139339, Note_on_c, 0, 72, 54
1, 139342, Note_on_c, 0, 63, 39
1, 139342, Control_c, 0, 67, 18
1, 139357, Control_c, 0, 67, 18
1, 139373, Control_c, 0, 67, 17
1, 139383, Note_off_c, 0, 63, 49
1, 139403, Note_off_c, 0, 72, 55
1, 139415, Note_on_c, 0, 66, 55
1, 139425, Note_on_c, 0, 75, 50
1, 139447, Note_off_c, 0, 75, 62
1, 139467, Note_off_c, 0, 66, 55
1, 139522, Note_on_c, 0, 81, 48
1, 139536, Control_c, 0, 67, 17
1, 139557, Note_off_c, 0, 81, 49
1, 139587, Note_on_c, 0, 75, 38
1, 139595, Note_on_c, 0, 84, 48
1, 139607, Poly_aftertouch_c, 0, 72, 0
1, 139627, Note_off_c, 0, 75, 47
1, 139638, Note_off_c, 0, 84, 58
1, 139639, Control_c, 0, 67, 18
1, 139661, Note_on_c, 0, 78, 53
1, 139664, Note_on_c, 0, 87, 50
1, 139699, Control_c, 0, 67, 18
1, 139726, Note_off_c, 0, 78, 54
1, 139739, Note_off_c, 0, 87, 55
1, 139757, Note_on_c, 0, 93, 59
1, 139775, Note_on_c, 0, 84, 54
1, 139791, Note_off_c, 0, 93, 48
1, 139816, Note_off_c, 0, 84, 58
1, 139860, Note_on_c, 0, 78, 57
1, 139861, Note_on_c, 0, 87, 57
1, 139886, Note_off_c, 0, 78, 62
1, 139918, Note_on_c, 0, 81, 70
1, 139920, Note_off_c, 0, 87, 61
1, 139956, Note_on_c, 0, 72, 48
1, 139983, Note_off_c, 0, 81, 62
1, 140001, Note_on_c, 0, 75, 66
1, 140004, Note_off_c, 0, 72, 53
1, 140018, Control_c, 0, 67, 18
1, 140022, Note_on_c, 0, 66, 41
1, 140027, Note_off_c, 0, 75, 67
1, 140033, Control_c, 0, 67, 17
1, 140050, Note_on_c, 0, 81, 60
1, 140050, Note_off_c, 0, 66, 56
1, 140062, Control_c, 0, 67, 16
1, 140092, Control_c, 0, 67, 16
1, 140096, Note_off_c, 0, 81, 61
1, 140105, Note_on_c, 0, 87, 62
1, 140141, Note_off_c, 0, 87, 62
1, 140150, Note_on_c, 0, 78, 61
1, 140150, Note_on_c, 0, 93, 74
1, 140173, Note_off_c, 0, 93, 65
1, 140193, Note_off_c, 0, 78, 59
1, 140206, Note_on_c, 0, 87, 62
1, 140240, Note_on_c, 0, 72, 54
1, 140254, Poly_aftertouch_c, 0, 91, 0
1, 140256, Note_on_c, 0, 81, 49
1, 140269, Note_off_c, 0, 87, 60
1, 140320, Note_off_c, 0, 81, 62
1, 140345, Note_on_c, 0, 75, 59
1, 140349, Note_off_c, 0, 72, 35
1, 140352, Note_on_c, 0, 66, 56
1, 140374, Control_c, 0, 67, 16
1, 140382, Note_off_c, 0, 66, 65
1, 140390, Note_on_c, 0, 81, 58
1, 140392, Note_off_c, 0, 75, 56
1, 140403, Control_c, 0, 64, 124
1, 140418, Control_c, 0, 64, 122
1, 140418, Control_c, 0, 67, 16
1, 140433, Control_c, 0, 64, 119
1, 140448, Control_c, 0, 64, 116
1, 140449, Note_off_c, 0, 81, 61
1, 140457, Note_on_c, 0, 87, 66
1, 140463, Control_c, 0, 64, 113
1, 140478, Control_c, 0, 64, 110
1, 140478, Control_c, 0, 67, 16
1, 140500, Control_c, 0, 64, 107
1, 140500, Control_c, 0, 67, 17
1, 140515, Control_c, 0, 64, 106
1, 140528, Note_off_c, 0, 87, 49
1, 140530, Control_c, 0, 64, 105
1, 140531, Note_on_c, 0, 78, 61
1, 140544, Control_c, 0, 64, 105
1, 140544, Control_c, 0, 67, 17
1, 140559, Control_c, 0, 64, 104
1, 140559, Control_c, 0, 67, 18
1, 140574, Control_c, 0, 64, 104
1, 140574, Control_c, 0, 67, 17
1, 140582, Note_off_c, 0, 78, 61
1, 140589, Control_c, 0, 64, 103
1, 140592, Note_on_c, 0, 84, 60
1, 140603, Control_c, 0, 64, 101
1, 140618, Control_c, 0, 64, 99
1, 140633, Control_c, 0, 64, 96
1, 140641, Note_on_c, 0, 87, 68
1, 140648, Control_c, 0, 64, 92
1, 140663, Control_c, 0, 64, 87
1, 140677, Control_c, 0, 64, 78
1, 140692, Control_c, 0, 64, 68
1, 140707, Control_c, 0, 64, 59
1, 140708, Note_off_c, 0, 84, 35
1, 140716, Note_on_c, 0, 93, 70
1, 140722, Control_c, 0, 64, 50
1, 140727, Note_on_c, 0, 32, 39
1, 140737, Control_c, 0, 64, 44
1, 140752, Control_c, 0, 64, 42
1, 140752, Control_c, 0, 67, 18
1, 140752, Note_off_c, 0, 87, 51
1, 140782, Control_c, 0, 64, 46
1, 140796, Control_c, 0, 64, 59
1, 140811, Control_c, 0, 64, 68
1, 140826, Control_c, 0, 64, 75
1, 140841, Control_c, 0, 64, 82
1, 140856, Control_c, 0, 64, 88
1, 140856, Control_c, 0, 67, 17
1, 140865, Note_off_c, 0, 93, 54
1, 140870, Control_c, 0, 64, 92
1, 140870, Control_c, 0, 67, 17
1, 140878, Note_off_c, 0, 32, 42
1, 140885, Control_c, 0, 64, 95
1, 140900, Control_c, 0, 64, 100
1, 140900, Control_c, 0, 67, 16
1, 140915, Control_c, 0, 64, 106
1, 140930, Control_c, 0, 64, 112
1, 140944, Control_c, 0, 64, 117
1, 140959, Control_c, 0, 64, 118
1, 141049, Control_c, 0, 64, 118
1, 141108, Control_c, 0, 64, 119
1, 141123, Control_c, 0, 64, 121
1, 141138, Control_c, 0, 64, 124
1, 141153, Control_c, 0, 64, 127
1, 141352, Note_on_c, 0, 44, 34
1, 141547, Note_off_c, 0, 44, 36
1, 141565, Note_on_c, 0, 51, 38
1, 141580, Note_on_c, 0, 60, 41
1, 141681, Note_on_c, 0, 54, 44
1, 141686, Note_on_c, 0, 63, 47
1, 141704, Note_off_c, 0, 51, 38
1, 141706, Note_off_c, 0, 60, 34
1, 141718, Note_off_c, 0, 63, 63
1, 141750, Note_off_c, 0, 54, 58
1, 141778, Note_on_c, 0, 60, 36
1, 141800, Note_on_c, 0, 69, 47
1, 141816, Note_off_c, 0, 60, 50
1, 141830, Note_off_c, 0, 69, 52
1, 141851, Note_on_c, 0, 63, 45
1, 141853, Note_on_c, 0, 72, 62
1, 141905, Note_off_c, 0, 72, 57
1, 141926, Note_on_c, 0, 66, 57
1, 141927, Note_on_c, 0, 75, 55
1, 141950, Note_off_c, 0, 75, 60
1, 141956, Note_off_c, 0, 63, 35
1, 141957, Note_off_c, 0, 66, 64
1, 141998, Note_on_c, 0, 72, 43
1, 142003, Note_on_c, 0, 81, 67
1, 142025, Note_off_c, 0, 72, 57
1, 142032, Note_off_c, 0, 81, 63
1, 142052, Note_on_c, 0, 84, 68
1, 142072, Note_on_c, 0, 75, 33
1, 142090, Note_off_c, 0, 84, 56
1, 142106, Note_on_c, 0, 87, 64
1, 142116, Control_c, 0, 67, 16
1, 142138, Note_on_c, 0, 78, 41
1, 142140, Note_on_c, 0, 93, 81
1, 142142, Note_off_c, 0, 87, 61
1, 142172, Note_off_c, 0, 78, 47
1, 142175, Note_on_c, 0, 84, 62
1, 142175, Control_c, 0, 67, 17
1, 142185, Note_off_c, 0, 93, 57
1, 142193, Note_off_c, 0, 75, 35
1, 142203, Note_off_c, 0, 84, 63
1, 142215, Note_on_c, 0, 87, 70
1, 142225, Note_on_c, 0, 78, 49
1, 142231, Note_on_c, 0, 82, 59
1, 142234, Control_c, 0, 67, 17
1, 142248, Note_off_c, 0, 78, 58
1, 142264, Control_c, 0, 67, 18
1, 142270, Note_off_c, 0, 87, 62
1, 142298, Note_off_c, 0, 82, 60
1, 142308, Control_c, 0, 67, 18
1, 142323, Control_c, 0, 67, 19
1, 142324, Note_on_c, 0, 75, 65
1, 142350, Note_off_c, 0, 75, 67
1, 142353, Note_on_c, 0, 66, 58
1, 142353, Control_c, 0, 67, 19
1, 142366, Note_on_c, 0, 81, 58
1, 142419, Note_on_c, 0, 87, 63
1, 142419, Note_off_c, 0, 81, 61
1, 142423, Note_off_c, 0, 66, 52
1, 142473, Note_off_c, 0, 87, 62
1, 142475, Note_on_c, 0, 93, 65
1, 142484, Note_on_c, 0, 91, 57
1, 142490, Note_on_c, 0, 78, 58
1, 142493, Note_off_c, 0, 93, 66
1, 142511, Note_off_c, 0, 91, 56
1, 142522, Note_off_c, 0, 78, 60
1, 142528, Note_on_c, 0, 87, 58
1, 142531, Control_c, 0, 67, 20
1, 142546, Note_on_c, 0, 80, 52
1, 142546, Control_c, 0, 67, 21
1, 142561, Control_c, 0, 67, 22
1, 142567, Note_off_c, 0, 80, 61
1, 142572, Note_on_c, 0, 72, 43
1, 142576, Control_c, 0, 67, 23
1, 142588, Note_on_c, 0, 81, 60
1, 142588, Note_off_c, 0, 87, 61
1, 142591, Control_c, 0, 67, 24
1, 142645, Note_off_c, 0, 81, 61
1, 142651, Control_c, 0, 67, 24
1, 142660, Note_on_c, 0, 75, 53
1, 142680, Note_on_c, 0, 66, 54
1, 142692, Note_off_c, 0, 72, 36
1, 142695, Control_c, 0, 67, 24
1, 142707, Note_on_c, 0, 81, 54
1, 142715, Note_off_c, 0, 66, 64
1, 142718, Note_off_c, 0, 75, 57
1, 142746, Control_c, 0, 67, 23
1, 142761, Control_c, 0, 67, 23
1, 142770, Note_off_c, 0, 81, 61
1, 142776, Control_c, 0, 67, 22
1, 142780, Note_on_c, 0, 87, 63
1, 142821, Control_c, 0, 67, 22
1, 142834, Note_on_c, 0, 78, 58
1, 142838, Note_off_c, 0, 87, 50
1, 142884, Note_off_c, 0, 78, 58
1, 142901, Note_on_c, 0, 84, 59
1, 142910, Control_c, 0, 67, 22
1, 142925, Control_c, 0, 67, 23
1, 142939, Control_c, 0, 64, 124
1, 142952, Note_on_c, 0, 87, 70
1, 142954, Control_c, 0, 64, 112
1, 142969, Control_c, 0, 64, 104
1, 142969, Control_c, 0, 67, 23
1, 142983, Control_c, 0, 64, 95
1, 142983, Control_c, 0, 67, 24
1, 142989, Note_off_c, 0, 84, 48
1, 142998, Control_c, 0, 64, 86
1, 142998, Control_c, 0, 67, 24
1, 143005, Note_on_c, 0, 32, 49
1, 143013, Control_c, 0, 64, 75
1, 143013, Control_c, 0, 67, 25
1, 143016, Note_on_c, 0, 93, 67
1, 143028, Control_c, 0, 64, 65
1, 143043, Control_c, 0, 64, 55
1, 143043, Control_c, 0, 67, 26
1, 143057, Control_c, 0, 64, 52
1, 143057, Control_c, 0, 67, 26
1, 143072, Control_c, 0, 64, 51
1, 143087, Control_c, 0, 64, 53
1, 143102, Control_c, 0, 64, 60
1, 143117, Control_c, 0, 64, 66
1, 143131, Control_c, 0, 64, 72
1, 143131, Control_c, 0, 67, 26
1, 143145, Note_off_c, 0, 93, 58
1, 143146, Control_c, 0, 64, 83
1, 143159, Note_off_c, 0, 32, 56
1, 143161, Control_c, 0, 64, 92
1, 143176, Control_c, 0, 64, 98
1, 143190, Control_c, 0, 64, 101
1, 143205, Control_c, 0, 64, 105
1, 143211, Note_off_c, 0, 87, 17
1, 143220, Control_c, 0, 64, 112
1, 143220, Control_c, 0, 67, 25
1, 143235, Control_c, 0, 64, 127
1, 143235, Control_c, 0, 67, 25
1, 143250, Control_c, 0, 67, 24
1, 143265, Control_c, 0, 67, 24
1, 143324, Control_c, 0, 67, 23
1, 143458, Control_c, 0, 67, 24
1, 143495, Control_c, 0, 67, 24
1, 143510, Control_c, 0, 67, 25
1, 143525, Control_c, 0, 67, 26
1, 143540, Control_c, 0, 67, 26
1, 143555, Control_c, 0, 67, 27
1, 143569, Control_c, 0, 67, 27
1, 143584, Control_c, 0, 67, 28
1, 143599, Control_c, 0, 67, 32
1, 143607, Note_on_c, 0, 44, 34
1, 143613, Control_c, 0, 67, 40
1, 143628, Control_c, 0, 67, 53
1, 143643, Control_c, 0, 67, 67
1, 143658, Control_c, 0, 67, 78
1, 143673, Control_c, 0, 67, 86
1, 143687, Control_c, 0, 67, 91
1, 143702, Control_c, 0, 67, 94
1, 143717, Control_c, 0, 67, 95
1, 143823, Note_on_c, 0, 51, 37
1, 143837, Note_on_c, 0, 60, 41
1, 143850, Control_c, 0, 67, 94
1, 143865, Control_c, 0, 67, 91
1, 143879, Note_off_c, 0, 44, 40
1, 143879, Control_c, 0, 67, 89
1, 143894, Control_c, 0, 67, 87
1, 143909, Control_c, 0, 67, 86
1, 143924, Control_c, 0, 67, 84
1, 143938, Control_c, 0, 67, 82
1, 143953, Control_c, 0, 67, 79
1, 143962, Note_on_c, 0, 54, 47
1, 143962, Note_on_c, 0, 63, 45
1, 143968, Control_c, 0, 67, 74
1, 143975, Note_off_c, 0, 60, 33
1, 143983, Control_c, 0, 67, 66
1, 143989, Note_off_c, 0, 51, 39
1, 143989, Note_off_c, 0, 63, 60
1, 143998, Control_c, 0, 67, 57
1, 144013, Control_c, 0, 67, 45
1, 144028, Control_c, 0, 67, 37
1, 144043, Control_c, 0, 67, 29
1, 144058, Control_c, 0, 67, 34
1, 144072, Control_c, 0, 67, 29
1, 144076, Note_on_c, 0, 69, 56
1, 144087, Control_c, 0, 67, 25
1, 144096, Note_off_c, 0, 54, 34
1, 144099, Note_on_c, 0, 60, 38
1, 144102, Control_c, 0, 67, 24
1, 144133, Note_off_c, 0, 60, 49
1, 144153, Note_off_c, 0, 69, 57
1, 144160, Note_on_c, 0, 72, 55
1, 144191, Note_on_c, 0, 63, 23
1, 144192, Control_c, 0, 67, 24
1, 144207, Control_c, 0, 67, 25
1, 144222, Note_off_c, 0, 72, 53
1, 144222, Control_c, 0, 67, 27
1, 144243, Control_c, 0, 67, 28
1, 144258, Control_c, 0, 67, 29
1, 144261, Note_off_c, 0, 63, 42
1, 144273, Control_c, 0, 67, 30
1, 144280, Note_on_c, 0, 66, 37
1, 144288, Control_c, 0, 67, 31
1, 144303, Control_c, 0, 67, 31
1, 144307, Note_off_c, 0, 66, 56
1, 144317, Control_c, 0, 67, 32
1, 144332, Control_c, 0, 67, 32
1, 144337, Poly_aftertouch_c, 0, 75, 0
1, 144347, Control_c, 0, 67, 33
1, 144355, Note_on_c, 0, 81, 59
1, 144361, Note_on_c, 0, 72, 32
1, 144377, Control_c, 0, 67, 33
1, 144391, Control_c, 0, 67, 34
1, 144394, Note_off_c, 0, 72, 50
1, 144402, Note_off_c, 0, 81, 50
1, 144406, Control_c, 0, 67, 34
1, 144421, Control_c, 0, 67, 35
1, 144436, Control_c, 0, 67, 35
1, 144440, Note_on_c, 0, 84, 52
1, 144445, Note_on_c, 0, 75, 48
1, 144451, Control_c, 0, 67, 36
1, 144466, Control_c, 0, 67, 36
1, 144481, Control_c, 0, 67, 37
1, 144496, Control_c, 0, 67, 37
1, 144499, Note_off_c, 0, 84, 54
1, 144502, Note_off_c, 0, 75, 46
1, 144510, Control_c, 0, 67, 38
1, 144525, Control_c, 0, 67, 39
1, 144529, Note_on_c, 0, 78, 44
1, 144530, Note_on_c, 0, 87, 52
1, 144540, Control_c, 0, 67, 41
1, 144554, Control_c, 0, 67, 43
1, 144569, Control_c, 0, 67, 45
1, 144584, Control_c, 0, 67, 47
1, 144599, Control_c, 0, 67, 49
1, 144614, Control_c, 0, 67, 50
1, 144620, Note_off_c, 0, 87, 53
1, 144628, Control_c, 0, 67, 51
1, 144643, Control_c, 0, 67, 51
1, 144646, Note_on_c, 0, 93, 62
1, 144655, Note_off_c, 0, 78, 29
1, 144658, Control_c, 0, 67, 52
1, 144663, Note_on_c, 0, 84, 28
1, 144690, Note_off_c, 0, 93, 50
1, 144752, Note_off_c, 0, 84, 36
1, 144770, Note_on_c, 0, 78, 39
1, 144770, Note_on_c, 0, 87, 36
1, 144791, Control_c, 0, 67, 51
1, 144798, Note_off_c, 0, 87, 55
1, 144800, Note_off_c, 0, 78, 50
1, 144818, Note_on_c, 0, 73, 34
1, 144829, Note_on_c, 0, 81, 60
1, 144848, Note_off_c, 0, 73, 52
1, 144899, Note_on_c, 0, 72, 13
1, 144911, Note_off_c, 0, 81, 60
1, 144926, Note_on_c, 0, 66, 53
1, 144936, Note_on_c, 0, 75, 47
1, 144962, Note_off_c, 0, 75, 61
1, 144970, Note_off_c, 0, 66, 57
1, 144990, Note_on_c, 0, 81, 49
1, 144992, Control_c, 0, 67, 51
1, 145038, Note_off_c, 0, 81, 60
1, 145047, Note_off_c, 0, 72, 22
1, 145061, Note_on_c, 0, 87, 56
1, 145111, Control_c, 0, 64, 124
1, 145122, Note_off_c, 0, 87, 58
1, 145122, Note_on_c, 0, 93, 73
1, 145126, Control_c, 0, 64, 119
1, 145140, Control_c, 0, 64, 117
1, 145149, Note_on_c, 0, 84, 52
1, 145155, Control_c, 0, 64, 116
1, 145169, Note_off_c, 0, 93, 41
1, 145169, Control_c, 0, 64, 116
1, 145179, Note_on_c, 0, 78, 60
1, 145181, Note_on_c, 0, 87, 62
1, 145182, Note_off_c, 0, 84, 63
1, 145184, Control_c, 0, 64, 115
1, 145184, Control_c, 0, 67, 50
1, 145199, Control_c, 0, 64, 115
1, 145220, Note_on_c, 0, 82, 61
1, 145226, Note_off_c, 0, 78, 56
1, 145244, Note_off_c, 0, 87, 61
1, 145250, Note_off_c, 0, 82, 65
1, 145267, Note_on_c, 0, 81, 60
1, 145273, Control_c, 0, 67, 51
1, 145274, Note_on_c, 0, 72, 44
1, 145304, Note_off_c, 0, 81, 62
1, 145318, Note_on_c, 0, 75, 69
1, 145318, Control_c, 0, 67, 51
1, 145327, Note_on_c, 0, 66, 56
1, 145347, Control_c, 0, 67, 52
1, 145362, Control_c, 0, 67, 52
1, 145363, Note_off_c, 0, 66, 63
1, 145363, Note_off_c, 0, 75, 59
1, 145372, Note_on_c, 0, 81, 61
1, 145372, Note_off_c, 0, 72, 0
1, 145376, Control_c, 0, 67, 53
1, 145391, Control_c, 0, 67, 54
1, 145406, Control_c, 0, 67, 55
1, 145421, Control_c, 0, 67, 58
1, 145426, Note_off_c, 0, 81, 62
1, 145434, Note_on_c, 0, 87, 70
1, 145436, Control_c, 0, 67, 60
1, 145441, Poly_aftertouch_c, 0, 72, 0
1, 145451, Control_c, 0, 67, 63
1, 145465, Control_c, 0, 67, 67
1, 145480, Control_c, 0, 67, 73
1, 145487, Note_on_c, 0, 93, 79
1, 145489, Note_off_c, 0, 87, 61
1, 145494, Note_on_c, 0, 84, 73
1, 145495, Control_c, 0, 67, 79
1, 145509, Control_c, 0, 67, 82
1, 145524, Control_c, 0, 64, 114
1, 145524, Control_c, 0, 67, 83
1, 145541, Note_on_c, 0, 78, 64
1, 145541, Note_off_c, 0, 84, 60
1, 145548, Note_off_c, 0, 93, 44
1, 145550, Note_on_c, 0, 87, 70
1, 145554, Control_c, 0, 67, 84
1, 145581, Note_on_c, 0, 82, 49
1, 145584, Note_off_c, 0, 78, 56
1, 145597, Poly_aftertouch_c, 0, 91, 0
1, 145599, Control_c, 0, 67, 84
1, 145605, Note_off_c, 0, 82, 58
1, 145621, Note_off_c, 0, 87, 61
1, 145627, Note_on_c, 0, 72, 38
1, 145627, Note_on_c, 0, 81, 61
1, 145658, Control_c, 0, 67, 84
1, 145683, Note_off_c, 0, 81, 61
1, 145688, Control_c, 0, 67, 83
1, 145690, Note_on_c, 0, 75, 64
1, 145700, Note_on_c, 0, 66, 60
1, 145702, Control_c, 0, 67, 83
1, 145717, Control_c, 0, 67, 82
1, 145736, Note_off_c, 0, 75, 59
1, 145739, Note_off_c, 0, 66, 65
1, 145739, Control_c, 0, 67, 82
1, 145751, Note_on_c, 0, 81, 58
1, 145755, Control_c, 0, 67, 81
1, 145785, Control_c, 0, 67, 81
1, 145800, Note_off_c, 0, 72, 21
1, 145807, Note_off_c, 0, 81, 62
1, 145825, Note_on_c, 0, 87, 66
1, 145885, Note_on_c, 0, 93, 80
1, 145888, Note_off_c, 0, 87, 61
1, 145900, Note_on_c, 0, 84, 46
1, 145909, Note_off_c, 0, 93, 63
1, 145930, Note_off_c, 0, 84, 61
1, 145942, Note_on_c, 0, 78, 59
1, 145962, Note_on_c, 0, 87, 58
1, 145977, Note_off_c, 0, 78, 62
1, 146036, Note_on_c, 0, 81, 68
1, 146043, Note_on_c, 0, 72, 44
1, 146066, Note_off_c, 0, 87, 34
1, 146089, Note_off_c, 0, 81, 57
1, 146101, Note_on_c, 0, 75, 63
1, 146108, Note_on_c, 0, 66, 60
1, 146133, Note_off_c, 0, 75, 61
1, 146143, Note_off_c, 0, 66, 63
1, 146147, Note_on_c, 0, 81, 50
1, 146170, Control_c, 0, 67, 80
1, 146200, Control_c, 0, 67, 80
1, 146207, Note_off_c, 0, 81, 60
1, 146214, Control_c, 0, 67, 78
1, 146217, Note_off_c, 0, 72, 21
1, 146229, Control_c, 0, 67, 77
1, 146233, Note_on_c, 0, 87, 56
1, 146244, Control_c, 0, 67, 74
1, 146259, Control_c, 0, 67, 72
1, 146274, Control_c, 0, 67, 71
1, 146288, Control_c, 0, 67, 69
1, 146303, Control_c, 0, 67, 66
1, 146314, Note_on_c, 0, 93, 85
1, 146314, Note_off_c, 0, 87, 60
1, 146318, Note_on_c, 0, 84, 58
1, 146318, Control_c, 0, 67, 61
1, 146332, Control_c, 0, 67, 53
1, 146347, Control_c, 0, 67, 44
1, 146359, Note_off_c, 0, 84, 58
1, 146362, Note_off_c, 0, 93, 49
1, 146362, Control_c, 0, 67, 36
1, 146377, Control_c, 0, 67, 32
1, 146379, Note_on_c, 0, 78, 49
1, 146392, Control_c, 0, 67, 30
1, 146407, Control_c, 0, 67, 30
1, 146407, Note_on_c, 0, 87, 64
1, 146418, Note_off_c, 0, 78, 59
1, 146451, Control_c, 0, 67, 30
1, 146466, Control_c, 0, 67, 31
1, 146483, Note_off_c, 0, 87, 61
1, 146484, Note_on_c, 0, 72, 41
1, 146488, Control_c, 0, 67, 33
1, 146503, Note_on_c, 0, 81, 56
1, 146503, Control_c, 0, 67, 35
1, 146518, Control_c, 0, 67, 36
1, 146532, Control_c, 0, 67, 37
1, 146547, Control_c, 0, 67, 39
1, 146563, Control_c, 0, 67, 40
1, 146578, Control_c, 0, 67, 41
1, 146593, Control_c, 0, 67, 42
1, 146613, Note_on_c, 0, 66, 46
1, 146616, Note_on_c, 0, 75, 54
1, 146618, Note_off_c, 0, 81, 35
1, 146637, Note_off_c, 0, 72, 23
1, 146653, Control_c, 0, 67, 42
1, 146658, Note_off_c, 0, 75, 57
1, 146668, Control_c, 0, 67, 44
1, 146681, Note_off_c, 0, 66, 38
1, 146683, Control_c, 0, 67, 49
1, 146698, Control_c, 0, 67, 53
1, 146712, Control_c, 0, 64, 114
1, 146712, Control_c, 0, 67, 56
1, 146727, Control_c, 0, 64, 113
1, 146727, Control_c, 0, 67, 59
1, 146734, Note_on_c, 0, 81, 54
1, 146742, Control_c, 0, 64, 111
1, 146742, Control_c, 0, 67, 64
1, 146756, Control_c, 0, 64, 111
1, 146756, Control_c, 0, 67, 68
1, 146771, Control_c, 0, 64, 110
1, 146771, Control_c, 0, 67, 73
1, 146786, Control_c, 0, 67, 80
1, 146801, Control_c, 0, 67, 87
1, 146816, Control_c, 0, 64, 110
1, 146816, Control_c, 0, 67, 94
1, 146830, Control_c, 0, 64, 109
1, 146830, Control_c, 0, 67, 101
1, 146845, Control_c, 0, 64, 109
1, 146845, Control_c, 0, 67, 108
1, 146849, Note_off_c, 0, 81, 34
1, 146860, Control_c, 0, 64, 108
1, 146860, Control_c, 0, 67, 115
1, 146875, Control_c, 0, 67, 121
1, 146890, Control_c, 0, 67, 126
1, 146892, Note_on_c, 0, 87, 54
1, 146904, Control_c, 0, 67, 127
1, 146927, Note_off_c, 0, 87, 61
1, 147009, Control_c, 0, 64, 108
1, 147023, Control_c, 0, 64, 106
1, 147038, Control_c, 0, 64, 104
1, 147053, Control_c, 0, 64, 101
1, 147068, Control_c, 0, 64, 97
1, 147083, Control_c, 0, 64, 93
1, 147098, Control_c, 0, 64, 88
1, 147112, Control_c, 0, 64, 82
1, 147127, Control_c, 0, 64, 75
1, 147142, Control_c, 0, 64, 71
1, 147156, Control_c, 0, 64, 67
1, 147161, Note_on_c, 0, 87, 45
1, 147171, Control_c, 0, 64, 64
1, 147177, Note_on_c, 0, 96, 50
1, 147186, Control_c, 0, 64, 61
1, 147201, Control_c, 0, 64, 60
1, 147208, Note_off_c, 0, 96, 0
1, 147208, Note_on_c, 0, 96, 25
1, 147249, Note_off_c, 0, 87, 55
1, 147261, Poly_aftertouch_c, 0, 95, 127
1, 147268, Control_c, 0, 64, 63
1, 147282, Control_c, 0, 64, 66
1, 147297, Control_c, 0, 64, 70
1, 147302, Poly_aftertouch_c, 0, 95, 0
1, 147304, Note_on_c, 0, 87, 38
1, 147305, Note_on_c, 0, 78, 49
1, 147307, Note_off_c, 0, 96, 45
1, 147312, Control_c, 0, 64, 76
1, 147327, Control_c, 0, 64, 84
1, 147328, Note_off_c, 0, 78, 60
1, 147342, Control_c, 0, 64, 92
1, 147349, Note_off_c, 0, 87, 55
1, 147357, Control_c, 0, 64, 95
1, 147371, Note_on_c, 0, 81, 66
1, 147372, Control_c, 0, 64, 95
1, 147387, Control_c, 0, 64, 96
1, 147402, Control_c, 0, 64, 97
1, 147404, Note_off_c, 0, 81, 62
1, 147417, Control_c, 0, 64, 98
1, 147447, Control_c, 0, 64, 98
1, 147464, Note_on_c, 0, 84, 59
1, 147490, Note_off_c, 0, 84, 52
1, 147542, Note_on_c, 0, 75, 61
1, 147543, Note_on_c, 0, 59, 46
1, 147584, Note_off_c, 0, 75, 58
1, 147605, Note_off_c, 0, 59, 54
1, 147616, Note_on_c, 0, 69, 48
1, 147649, Note_off_c, 0, 69, 50
1, 147662, Note_on_c, 0, 66, 52
1, 147678, Note_on_c, 0, 75, 51
1, 147712, Note_off_c, 0, 75, 63
1, 147725, Note_on_c, 0, 78, 50
1, 147730, Note_off_c, 0, 66, 53
1, 147744, Note_on_c, 0, 69, 23
1, 147768, Note_off_c, 0, 78, 60
1, 147770, Note_on_c, 0, 84, 42
1, 147778, Note_off_c, 0, 69, 54
1, 147787, Control_c, 0, 64, 98
1, 147796, Note_off_c, 0, 84, 55
1, 147802, Control_c, 0, 64, 97
1, 147829, Note_on_c, 0, 81, 70
1, 147831, Control_c, 0, 64, 97
1, 147855, Note_off_c, 0, 81, 63
1, 147876, Control_c, 0, 64, 96
1, 147891, Control_c, 0, 64, 96
1, 147894, Note_on_c, 0, 78, 53
1, 147905, Control_c, 0, 64, 95
1, 147918, Note_on_c, 0, 90, 59
1, 147920, Note_on_c, 0, 87, 39
1, 147930, Note_off_c, 0, 78, 47
1, 147948, Note_off_c, 0, 87, 56
1, 147986, Note_off_c, 0, 90, 41
1, 147994, Note_on_c, 0, 96, 70
1, 148016, Note_on_c, 0, 87, 41
1, 148027, Note_off_c, 0, 96, 47
1, 148031, Control_c, 0, 64, 95
1, 148053, Note_on_c, 0, 78, 62
1, 148061, Control_c, 0, 64, 94
1, 148076, Control_c, 0, 64, 94
1, 148080, Note_off_c, 0, 78, 65
1, 148100, Note_off_c, 0, 87, 58
1, 148105, Control_c, 0, 64, 93
1, 148120, Control_c, 0, 64, 93
1, 148126, Note_on_c, 0, 81, 53
1, 148135, Control_c, 0, 64, 92
1, 148147, Note_off_c, 0, 81, 59
1, 148195, Control_c, 0, 64, 92
1, 148212, Note_on_c, 0, 84, 42
1, 148230, Poly_aftertouch_c, 0, 75, 0
1, 148240, Note_off_c, 0, 84, 53
1, 148252, Note_on_c, 0, 75, 38
1, 148255, Control_c, 0, 64, 91
1, 148315, Note_on_c, 0, 59, 43
1, 148320, Note_off_c, 0, 75, 59
1, 148341, Note_on_c, 0, 69, 56
1, 148348, Note_off_c, 0, 59, 50
1, 148379, Note_off_c, 0, 69, 57
1, 148388, Control_c, 0, 64, 91
1, 148398, Note_on_c, 0, 66, 44
1, 148400, Note_on_c, 0, 75, 49
1, 148432, Control_c, 0, 64, 90
1, 148455, Note_off_c, 0, 75, 59
1, 148457, Note_on_c, 0, 78, 50
1, 148462, Control_c, 0, 64, 90
1, 148497, Note_on_c, 0, 69, 39
1, 148518, Note_off_c, 0, 66, 36
1, 148521, Note_on_c, 0, 84, 53
1, 148521, Note_off_c, 0, 78, 56
1, 148526, Note_off_c, 0, 69, 54
1, 148546, Note_off_c, 0, 84, 56
1, 148562, Note_on_c, 0, 75, 39
1, 148592, Note_off_c, 0, 75, 51
1, 148617, Note_on_c, 0, 81, 25
1, 148624, Control_c, 0, 64, 90
1, 148639, Control_c, 0, 64, 91
1, 148654, Control_c, 0, 64, 94
1, 148655, Note_off_c, 0, 81, 54
1, 148656, Note_on_c, 0, 87, 65
1, 148662, Note_on_c, 0, 78, 52
1, 148669, Control_c, 0, 64, 99
1, 148684, Control_c, 0, 64, 111
1, 148685, Note_off_c, 0, 87, 62
1, 148699, Control_c, 0, 64, 127
1, 148744, Note_on_c, 0, 90, 47
1, 148752, Note_off_c, 0, 78, 58
1, 148780, Control_c, 0, 67, 121
1, 148795, Control_c, 0, 67, 107
1, 148797, Note_off_c, 0, 90, 59
1, 148803, Note_on_c, 0, 87, 56
1, 148809, Control_c, 0, 67, 95
1, 148821, Note_on_c, 0, 96, 58
1, 148824, Control_c, 0, 67, 84
1, 148839, Control_c, 0, 67, 71
1, 148842, Note_off_c, 0, 87, 60
1, 148844, Note_off_c, 0, 96, 55
1, 148854, Control_c, 0, 67, 58
1, 148869, Control_c, 0, 67, 44
1, 148883, Control_c, 0, 67, 30
1, 148888, Note_on_c, 0, 87, 43
1, 148893, Note_on_c, 0, 78, 47
1, 148898, Control_c, 0, 67, 20
1, 148927, Control_c, 0, 67, 0
1, 148939, Note_off_c, 0, 87, 60
1, 148948, Note_on_c, 0, 81, 48
1, 148949, Note_on_c, 0, 90, 58
1, 148969, Note_off_c, 0, 78, 37
1, 148979, Note_off_c, 0, 90, 64
1, 149000, Note_on_c, 0, 71, 57
1, 149010, Note_off_c, 0, 81, 0
1, 149021, Note_on_c, 0, 81, 47
1, 149048, Note_off_c, 0, 71, 57
1, 149071, Note_on_c, 0, 87, 65
1, 149071, Note_off_c, 0, 81, 58
1, 149094, Note_on_c, 0, 78, 36
1, 149114, Note_off_c, 0, 87, 61
1, 149123, Note_on_c, 0, 90, 58
1, 149124, Note_off_c, 0, 78, 50
1, 149152, Note_on_c, 0, 87, 52
1, 149171, Note_on_c, 0, 96, 73
1, 149171, Note_off_c, 0, 90, 58
1, 149187, Note_off_c, 0, 87, 64
1, 149205, Note_off_c, 0, 96, 48
1, 149229, Note_on_c, 0, 87, 58
1, 149236, Note_on_c, 0, 78, 42
1, 149267, Note_off_c, 0, 78, 60
1, 149289, Note_on_c, 0, 90, 72
1, 149290, Note_on_c, 0, 81, 70
1, 149290, Note_off_c, 0, 87, 60
1, 149312, Note_off_c, 0, 81, 69
1, 149338, Note_off_c, 0, 90, 63
1, 149358, Note_on_c, 0, 71, 53
1, 149371, Note_on_c, 0, 81, 57
1, 149384, Note_off_c, 0, 71, 53
1, 149390, Note_on_c, 0, 72, 24
1, 149410, Note_on_c, 0, 87, 70
1, 149410, Note_off_c, 0, 81, 60
1, 149425, Note_off_c, 0, 72, 51
1, 149426, Note_on_c, 0, 82, 67
1, 149462, Note_off_c, 0, 87, 61
1, 149466, Note_on_c, 0, 90, 65
1, 149492, Note_off_c, 0, 82, 49
1, 149538, Note_on_c, 0, 96, 75
1, 149539, Note_off_c, 0, 90, 62
1, 149548, Note_on_c, 0, 87, 56
1, 149587, Note_off_c, 0, 96, 53
1, 149596, Note_off_c, 0, 87, 0
1, 149607, Note_on_c, 0, 87, 58
1, 149609, Note_on_c, 0, 78, 55
1, 149665, Note_off_c, 0, 87, 59
1, 149666, Note_on_c, 0, 90, 72
1, 149677, Note_off_c, 0, 78, 49
1, 149680, Note_on_c, 0, 81, 64
1, 149718, Note_off_c, 0, 90, 62
1, 149722, Note_off_c, 0, 81, 57
1, 149746, Note_on_c, 0, 81, 52
1, 149752, Note_on_c, 0, 71, 55
1, 149812, Note_off_c, 0, 71, 59
1, 149825, Note_off_c, 0, 81, 61
1, 149830, Note_on_c, 0, 87, 73
1, 149832, Note_on_c, 0, 78, 52
1, 149914, Note_on_c, 0, 90, 74
1, 149920, Note_off_c, 0, 87, 61
1, 149982, Note_off_c, 0, 78, 58
1, 150046, Note_off_c, 0, 90, 58
1, 150050, Note_on_c, 0, 96, 76
1, 150067, Poly_aftertouch_c, 0, 81, 0
1, 150076, Note_on_c, 0, 87, 50
1, 150108, Note_off_c, 0, 87, 63
1, 150162, Note_off_c, 0, 96, 48
1, 150186, Note_on_c, 0, 87, 73
1, 150209, Note_on_c, 0, 78, 48
1, 150280, Note_off_c, 0, 87, 59
1, 150313, Note_on_c, 0, 90, 75
1, 150329, Note_on_c, 0, 81, 55
1, 150347, Note_off_c, 0, 78, 38
1, 150366, Note_off_c, 0, 81, 56
1, 150413, Note_off_c, 0, 90, 58
1, 150438, Note_on_c, 0, 81, 82
1, 150450, Note_on_c, 0, 71, 44
1, 150474, Note_off_c, 0, 71, 57
1, 150591, Note_on_c, 0, 87, 80
1, 150622, Note_on_c, 0, 75, 56
1, 150647, Note_off_c, 0, 81, 36
1, 150762, Note_on_c, 0, 90, 77
1, 150774, Note_off_c, 0, 87, 61
1, 150791, Note_off_c, 0, 75, 41
1, 150815, Note_on_c, 0, 66, 51
1, 150881, Note_off_c, 0, 66, 52
1, 150932, Note_off_c, 0, 90, 62
1, 150945, Note_on_c, 0, 96, 77
1, 151029, Note_off_c, 0, 96, 59
1, 151175, Control_c, 0, 64, 104
1, 151190, Control_c, 0, 64, 89
1, 151204, Note_on_c, 0, 56, 42
1, 151204, Note_on_c, 0, 84, 70
1, 151204, Control_c, 0, 64, 75
1, 151219, Control_c, 0, 64, 69
1, 151234, Control_c, 0, 64, 66
1, 151248, Control_c, 0, 64, 64
1, 151263, Control_c, 0, 64, 62
1, 151278, Control_c, 0, 64, 58
1, 151293, Control_c, 0, 64, 54
1, 151308, Control_c, 0, 64, 49
1, 151322, Control_c, 0, 64, 47
1, 151368, Control_c, 0, 64, 50
1, 151383, Control_c, 0, 64, 57
1, 151398, Control_c, 0, 64, 62
1, 151413, Control_c, 0, 64, 66
1, 151427, Control_c, 0, 64, 68
1, 151442, Control_c, 0, 64, 71
1, 151457, Control_c, 0, 64, 73
1, 151465, Note_on_c, 0, 90, 72
1, 151471, Control_c, 0, 64, 76
1, 151486, Control_c, 0, 64, 79
1, 151492, Note_on_c, 0, 63, 42
1, 151501, Control_c, 0, 64, 82
1, 151516, Control_c, 0, 64, 85
1, 151531, Control_c, 0, 64, 87
1, 151546, Control_c, 0, 64, 90
1, 151561, Control_c, 0, 64, 93
1, 151575, Control_c, 0, 64, 96
1, 151590, Control_c, 0, 64, 99
1, 151605, Control_c, 0, 64, 103
1, 151608, Note_off_c, 0, 56, 34
1, 151620, Control_c, 0, 64, 106
1, 151635, Control_c, 0, 64, 109
1, 151650, Control_c, 0, 64, 111
1, 151664, Control_c, 0, 64, 113
1, 151679, Control_c, 0, 64, 114
1, 151684, Note_off_c, 0, 84, 30
1, 151694, Control_c, 0, 64, 117
1, 151709, Control_c, 0, 64, 127
1, 151777, Note_on_c, 0, 92, 79
1, 151791, Note_on_c, 0, 66, 48
1, 151859, Note_off_c, 0, 90, 53
1, 151995, Note_off_c, 0, 92, 62
1, 152394, Note_on_c, 0, 101, 69
1, 152432, Note_on_c, 0, 72, 36
1, 152862, Note_on_c, 0, 99, 72
1, 152916, Note_off_c, 0, 101, 54
1, 153116, Note_on_c, 0, 97, 75
1, 153176, Note_off_c, 0, 99, 51
1, 153304, Note_on_c, 0, 96, 74
1, 153319, Note_off_c, 0, 97, 62
1, 153442, Note_off_c, 0, 66, 41
1, 153444, Note_on_c, 0, 94, 77
1, 153453, Note_off_c, 0, 63, 39
1, 153483, Note_off_c, 0, 72, 51
1, 153483, Note_off_c, 0, 96, 56
1, 153570, Note_on_c, 0, 92, 77
1, 153599, Note_off_c, 0, 94, 47
1, 153695, Note_on_c, 0, 91, 78
1, 153723, Note_off_c, 0, 92, 60
1, 153837, Control_c, 0, 64, 117
1, 153850, Note_on_c, 0, 94, 71
1, 153852, Control_c, 0, 64, 96
1, 153866, Control_c, 0, 64, 83
1, 153871, Note_on_c, 0, 85, 46
1, 153881, Control_c, 0, 64, 73
1, 153896, Control_c, 0, 64, 66
1, 153911, Control_c, 0, 64, 64
1, 153955, Note_off_c, 0, 91, 33
1, 153955, Control_c, 0, 64, 65
1, 153978, Control_c, 0, 64, 67
1, 153991, Note_on_c, 0, 92, 72
1, 153991, Note_off_c, 0, 85, 59
1, 153993, Control_c, 0, 64, 71
1, 154008, Note_on_c, 0, 84, 54
1, 154008, Control_c, 0, 64, 77
1, 154022, Control_c, 0, 64, 86
1, 154037, Control_c, 0, 64, 95
1, 154044, Note_off_c, 0, 94, 53
1, 154052, Control_c, 0, 64, 98
1, 154100, Note_off_c, 0, 84, 35
1, 154103, Note_on_c, 0, 90, 72
1, 154111, Control_c, 0, 64, 98
1, 154112, Note_off_c, 0, 92, 59
1, 154124, Note_on_c, 0, 82, 51
1, 154191, Note_off_c, 0, 90, 63
1, 154195, Note_on_c, 0, 89, 67
1, 154205, Note_off_c, 0, 82, 56
1, 154215, Note_on_c, 0, 80, 59
1, 154275, Note_off_c, 0, 80, 58
1, 154278, Note_on_c, 0, 87, 72
1, 154289, Note_off_c, 0, 89, 53
1, 154297, Note_on_c, 0, 78, 54
1, 154361, Note_on_c, 0, 86, 69
1, 154366, Note_off_c, 0, 87, 60
1, 154383, Note_off_c, 0, 78, 55
1, 154387, Note_on_c, 0, 77, 52
1, 154416, Note_on_c, 0, 82, 54
1, 154422, Control_c, 0, 64, 97
1, 154435, Note_off_c, 0, 86, 60
1, 154437, Control_c, 0, 64, 95
1, 154440, Note_on_c, 0, 90, 70
1, 154452, Control_c, 0, 64, 91
1, 154466, Control_c, 0, 64, 83
1, 154481, Control_c, 0, 64, 74
1, 154482, Note_off_c, 0, 82, 57
1, 154494, Note_on_c, 0, 80, 59
1, 154496, Control_c, 0, 64, 69
1, 154511, Control_c, 0, 64, 68
1, 154512, Note_on_c, 0, 89, 68
1, 154527, Note_off_c, 0, 77, 32
1, 154530, Note_on_c, 0, 78, 35
1, 154541, Note_off_c, 0, 80, 60
1, 154541, Control_c, 0, 64, 70
1, 154542, Note_off_c, 0, 90, 58
1, 154556, Control_c, 0, 64, 74
1, 154559, Note_off_c, 0, 78, 49
1, 154571, Control_c, 0, 64, 83
1, 154576, Note_on_c, 0, 87, 69
1, 154586, Control_c, 0, 64, 94
1, 154594, Note_on_c, 0, 77, 64
1, 154601, Control_c, 0, 64, 100
1, 154603, Note_off_c, 0, 89, 57
1, 154640, Note_on_c, 0, 85, 70
1, 154641, Note_off_c, 0, 77, 55
1, 154655, Note_off_c, 0, 87, 58
1, 154664, Note_on_c, 0, 75, 64
1, 154702, Note_off_c, 0, 85, 63
1, 154705, Note_on_c, 0, 84, 72
1, 154729, Note_on_c, 0, 73, 61
1, 154749, Note_off_c, 0, 75, 58
1, 154783, Note_on_c, 0, 82, 70
1, 154786, Note_on_c, 0, 72, 52
1, 154794, Note_off_c, 0, 73, 61
1, 154819, Note_off_c, 0, 84, 33
1, 154821, Note_on_c, 0, 71, 63
1, 154848, Note_off_c, 0, 82, 62
1, 154849, Note_on_c, 0, 80, 72
1, 154850, Note_off_c, 0, 72, 39
1, 154885, Note_off_c, 0, 71, 62
1, 154890, Control_c, 0, 64, 99
1, 154894, Note_on_c, 0, 73, 69
1, 154904, Control_c, 0, 64, 96
1, 154905, Note_on_c, 0, 79, 74
1, 154907, Note_off_c, 0, 80, 58
1, 154919, Control_c, 0, 64, 91
1, 154934, Control_c, 0, 64, 82
1, 154949, Control_c, 0, 64, 72
1, 154953, Note_off_c, 0, 73, 61
1, 154956, Note_on_c, 0, 82, 75
1, 154963, Control_c, 0, 64, 66
1, 154965, Note_off_c, 0, 79, 62
1, 154971, Note_on_c, 0, 72, 64
1, 154978, Control_c, 0, 64, 65
1, 155008, Control_c, 0, 64, 67
1, 155016, Note_on_c, 0, 80, 68
1, 155017, Note_off_c, 0, 72, 55
1, 155022, Control_c, 0, 64, 70
1, 155031, Note_off_c, 0, 82, 56
1, 155037, Control_c, 0, 64, 75
1, 155039, Note_on_c, 0, 70, 62
1, 155052, Control_c, 0, 64, 83
1, 155067, Control_c, 0, 64, 91
1, 155072, Note_on_c, 0, 78, 66
1, 155082, Control_c, 0, 64, 95
1, 155089, Note_off_c, 0, 80, 56
1, 155099, Note_on_c, 0, 68, 58
1, 155105, Note_off_c, 0, 70, 54
1, 155115, Note_on_c, 0, 77, 77
1, 155126, Note_off_c, 0, 78, 59
1, 155155, Note_on_c, 0, 66, 61
1, 155161, Note_off_c, 0, 68, 52
1, 155171, Note_off_c, 0, 77, 50
1, 155179, Note_on_c, 0, 75, 72
1, 155215, Note_on_c, 0, 65, 57
1, 155221, Note_on_c, 0, 74, 71
1, 155230, Note_off_c, 0, 66, 57
1, 155239, Note_off_c, 0, 75, 59
1, 155245, Note_on_c, 0, 70, 56
1, 155260, Control_c, 0, 64, 92
1, 155260, Control_c, 0, 67, 18
1, 155273, Note_off_c, 0, 74, 62
1, 155275, Note_on_c, 0, 78, 64
1, 155275, Control_c, 0, 64, 86
1, 155275, Control_c, 0, 67, 19
1, 155289, Control_c, 0, 64, 77
1, 155304, Note_on_c, 0, 68, 53
1, 155304, Control_c, 0, 64, 69
1, 155315, Note_on_c, 0, 77, 60
1, 155315, Note_off_c, 0, 70, 58
1, 155319, Control_c, 0, 64, 66
1, 155323, Note_off_c, 0, 65, 40
1, 155334, Control_c, 0, 67, 20
1, 155348, Note_on_c, 0, 66, 35
1, 155349, Control_c, 0, 67, 20
1, 155354, Note_off_c, 0, 68, 58
1, 155364, Control_c, 0, 64, 67
1, 155364, Control_c, 0, 67, 21
1, 155370, Note_on_c, 0, 75, 68
1, 155379, Control_c, 0, 64, 69
1, 155379, Control_c, 0, 67, 22
1, 155382, Note_off_c, 0, 66, 47
1, 155390, Note_off_c, 0, 78, 36
1, 155394, Control_c, 0, 64, 74
1, 155394, Control_c, 0, 67, 23
1, 155399, Note_on_c, 0, 65, 67
1, 155409, Control_c, 0, 64, 82
1, 155409, Control_c, 0, 67, 26
1, 155411, Note_off_c, 0, 77, 57
1, 155424, Control_c, 0, 64, 88
1, 155424, Control_c, 0, 67, 29
1, 155428, Note_on_c, 0, 73, 69
1, 155436, Note_off_c, 0, 65, 57
1, 155438, Control_c, 0, 64, 90
1, 155438, Control_c, 0, 67, 33
1, 155451, Note_off_c, 0, 75, 59
1, 155453, Control_c, 0, 67, 36
1, 155474, Note_on_c, 0, 63, 63
1, 155475, Control_c, 0, 64, 90
1, 155475, Control_c, 0, 67, 39
1, 155487, Note_on_c, 0, 72, 76
1, 155490, Control_c, 0, 64, 89
1, 155490, Control_c, 0, 67, 42
1, 155496, Note_off_c, 0, 73, 62
1, 155505, Control_c, 0, 64, 88
1, 155505, Control_c, 0, 67, 46
1, 155519, Control_c, 0, 64, 88
1, 155519, Control_c, 0, 67, 52
1, 155525, Note_on_c, 0, 61, 57
1, 155533, Note_off_c, 0, 72, 47
1, 155534, Control_c, 0, 64, 86
1, 155534, Control_c, 0, 67, 58
1, 155543, Note_off_c, 0, 63, 53
1, 155549, Note_on_c, 0, 70, 69
1, 155549, Control_c, 0, 64, 81
1, 155549, Control_c, 0, 67, 64
1, 155564, Control_c, 0, 64, 75
1, 155564, Control_c, 0, 67, 69
1, 155565, Note_on_c, 0, 60, 57
1, 155579, Control_c, 0, 64, 69
1, 155579, Control_c, 0, 67, 74
1, 155582, Note_off_c, 0, 61, 54
1, 155594, Control_c, 0, 64, 65
1, 155594, Control_c, 0, 67, 77
1, 155608, Note_on_c, 0, 68, 66
1, 155609, Control_c, 0, 64, 64
1, 155609, Control_c, 0, 67, 78
1, 155609, Note_on_c, 0, 59, 63
1, 155611, Note_off_c, 0, 70, 60
1, 155638, Control_c, 0, 64, 64
1, 155647, Note_off_c, 0, 60, 53
1, 155649, Note_on_c, 0, 67, 69
1, 155653, Control_c, 0, 64, 66
1, 155655, Note_off_c, 0, 68, 59
1, 155668, Control_c, 0, 64, 70
1, 155670, Note_on_c, 0, 61, 56
1, 155677, Note_off_c, 0, 59, 58
1, 155683, Control_c, 0, 64, 76
1, 155698, Control_c, 0, 64, 86
1, 155698, Control_c, 0, 67, 77
1, 155707, Note_off_c, 0, 67, 59
1, 155707, Note_on_c, 0, 70, 72
1, 155713, Control_c, 0, 64, 91
1, 155727, Note_off_c, 0, 61, 58
1, 155727, Control_c, 0, 64, 91
1, 155741, Note_on_c, 0, 60, 70
1, 155742, Control_c, 0, 64, 91
1, 155757, Control_c, 0, 64, 88
1, 155767, Note_on_c, 0, 68, 72
1, 155772, Control_c, 0, 64, 83
1, 155773, Note_off_c, 0, 70, 59
1, 155786, Control_c, 0, 64, 75
1, 155787, Note_off_c, 0, 60, 58
1, 155801, Control_c, 0, 64, 67
1, 155810, Note_on_c, 0, 58, 62
1, 155810, Note_on_c, 0, 66, 63
1, 155816, Control_c, 0, 64, 63
1, 155831, Control_c, 0, 64, 63
1, 155835, Note_off_c, 0, 68, 55
1, 155845, Control_c, 0, 67, 78
1, 155859, Note_on_c, 0, 65, 73
1, 155865, Note_on_c, 0, 56, 59
1, 155868, Note_off_c, 0, 58, 55
1, 155869, Note_off_c, 0, 66, 59
1, 155905, Control_c, 0, 67, 78
1, 155916, Note_on_c, 0, 54, 57
1, 155926, Note_on_c, 0, 63, 66
1, 155929, Note_off_c, 0, 56, 53
1, 155954, Note_off_c, 0, 65, 36
1, 155964, Control_c, 0, 64, 62
1, 155973, Note_on_c, 0, 62, 64
1, 155979, Control_c, 0, 64, 62
1, 155979, Control_c, 0, 67, 79
1, 155984, Note_off_c, 0, 54, 62
1, 155986, Note_on_c, 0, 53, 50
1, 155986, Note_off_c, 0, 63, 56
1, 155993, Control_c, 0, 64, 61
1, 156003, Note_on_c, 0, 58, 56
1, 156024, Note_off_c, 0, 62, 60
1, 156029, Note_on_c, 0, 66, 57
1, 156038, Control_c, 0, 67, 79
1, 156048, Note_off_c, 0, 53, 45
1, 156053, Control_c, 0, 64, 63
1, 156067, Note_on_c, 0, 56, 60
1, 156068, Control_c, 0, 64, 66
1, 156074, Note_off_c, 0, 58, 60
1, 156082, Note_on_c, 0, 65, 61
1, 156083, Control_c, 0, 64, 68
1, 156097, Control_c, 0, 64, 69
1, 156112, Note_on_c, 0, 54, 53
1, 156112, Note_off_c, 0, 56, 56
1, 156112, Note_off_c, 0, 66, 58
1, 156138, Note_off_c, 0, 54, 59
1, 156142, Note_on_c, 0, 63, 60
1, 156142, Control_c, 0, 64, 67
1, 156142, Control_c, 0, 67, 80
1, 156157, Control_c, 0, 64, 64
1, 156172, Note_off_c, 0, 65, 55
1, 156172, Control_c, 0, 64, 61
1, 156172, Control_c, 0, 67, 80
1, 156175, Note_on_c, 0, 53, 65
1, 156187, Control_c, 0, 64, 57
1, 156187, Control_c, 0, 67, 81
1, 156202, Control_c, 0, 64, 53
1, 156202, Control_c, 0, 67, 81
1, 156217, Note_on_c, 0, 61, 64
1, 156224, Control_c, 0, 64, 49
1, 156224, Control_c, 0, 67, 82
1, 156233, Note_off_c, 0, 63, 57
1, 156239, Control_c, 0, 64, 41
1, 156242, Note_off_c, 0, 53, 42
1, 156254, Control_c, 0, 64, 23
1, 156254, Control_c, 0, 67, 83
1, 156256, Note_on_c, 0, 51, 60
1, 156268, Control_c, 0, 64, 0
1, 156283, Control_c, 0, 67, 83
1, 156285, Note_off_c, 0, 61, 59
1, 156285, Note_on_c, 0, 60, 64
1, 156313, Control_c, 0, 67, 84
1, 156325, Note_on_c, 0, 49, 51
1, 156325, Note_off_c, 0, 51, 58
1, 156350, Note_off_c, 0, 60, 44
1, 156352, Note_on_c, 0, 58, 64
1, 156377, Note_off_c, 0, 49, 57
1, 156388, Control_c, 0, 67, 84
1, 156395, Note_on_c, 0, 48, 54
1, 156428, Note_on_c, 0, 56, 65
1, 156428, Note_off_c, 0, 58, 55
1, 156447, Control_c, 0, 67, 85
1, 156462, Control_c, 0, 67, 85
1, 156476, Control_c, 0, 67, 86
1, 156486, Note_off_c, 0, 48, 60
1, 156497, Note_off_c, 0, 56, 60
1, 156512, Note_on_c, 0, 55, 68
1, 156512, Note_on_c, 0, 47, 56
1, 156592, Note_off_c, 0, 55, 57
1, 156594, Note_on_c, 0, 56, 64
1, 156606, Note_off_c, 0, 47, 52
1, 156611, Note_on_c, 0, 48, 57
1, 156672, Note_off_c, 0, 48, 58
1, 156675, Note_off_c, 0, 56, 61
1, 156676, Note_on_c, 0, 49, 61
1, 156681, Note_on_c, 0, 58, 63
1, 156699, Control_c, 0, 67, 85
1, 156729, Control_c, 0, 67, 85
1, 156731, Note_off_c, 0, 58, 56
1, 156748, Note_on_c, 0, 60, 70
1, 156749, Note_on_c, 0, 51, 54
1, 156757, Note_off_c, 0, 49, 60
1, 156773, Control_c, 0, 67, 84
1, 156792, Note_off_c, 0, 51, 60
1, 156802, Control_c, 0, 67, 84
1, 156803, Note_off_c, 0, 60, 51
1, 156804, Note_on_c, 0, 53, 66
1, 156815, Note_on_c, 0, 61, 67
1, 156870, Note_off_c, 0, 53, 39
1, 156876, Note_on_c, 0, 54, 67
1, 156878, Note_off_c, 0, 61, 60
1, 156879, Note_on_c, 0, 63, 72
1, 156938, Note_on_c, 0, 56, 65
1, 156941, Note_off_c, 0, 63, 61
1, 156948, Note_on_c, 0, 65, 80
1, 156968, Note_off_c, 0, 54, 55
1, 157008, Note_on_c, 0, 58, 61
1, 157009, Note_off_c, 0, 65, 54
1, 157021, Note_off_c, 0, 56, 59
1, 157024, Note_on_c, 0, 66, 69
1, 157061, Note_off_c, 0, 66, 56
1, 157062, Note_off_c, 0, 58, 57
1, 157069, Note_on_c, 0, 59, 74
1, 157072, Note_on_c, 0, 67, 82
1, 157135, Note_off_c, 0, 67, 61
1, 157136, Note_on_c, 0, 60, 66
1, 157138, Note_on_c, 0, 68, 74
1, 157147, Note_off_c, 0, 59, 0
1, 157193, Note_on_c, 0, 61, 65
1, 157204, Note_on_c, 0, 70, 75
1, 157209, Note_off_c, 0, 60, 53
1, 157216, Poly_aftertouch_c, 0, 59, 0
1, 157219, Note_off_c, 0, 68, 57
1, 157241, Note_off_c, 0, 70, 61
1, 157245, Note_on_c, 0, 63, 67
1, 157254, Control_c, 0, 67, 84
1, 157265, Note_off_c, 0, 61, 60
1, 157269, Control_c, 0, 67, 85
1, 157270, Note_on_c, 0, 72, 79
1, 157284, Control_c, 0, 67, 85
1, 157299, Control_c, 0, 67, 86
1, 157304, Note_on_c, 0, 65, 72
1, 157306, Note_off_c, 0, 63, 59
1, 157314, Control_c, 0, 67, 86
1, 157329, Control_c, 0, 67, 87
1, 157331, Note_off_c, 0, 72, 61
1, 157343, Note_on_c, 0, 73, 72
1, 157343, Control_c, 0, 67, 88
1, 157358, Control_c, 0, 67, 92
1, 157373, Control_c, 0, 67, 98
1, 157377, Note_on_c, 0, 66, 64
1, 157385, Note_off_c, 0, 65, 50
1, 157388, Control_c, 0, 67, 104
1, 157388, Note_off_c, 0, 73, 61
1, 157395, Note_on_c, 0, 75, 73
1, 157403, Control_c, 0, 67, 109
1, 157417, Control_c, 0, 67, 113
1, 157428, Note_on_c, 0, 68, 58
1, 157432, Control_c, 0, 67, 116
1, 157447, Control_c, 0, 67, 121
1, 157453, Note_off_c, 0, 75, 62
1, 157460, Note_on_c, 0, 77, 74
1, 157462, Control_c, 0, 67, 126
1, 157477, Control_c, 0, 67, 127
1, 157480, Note_on_c, 0, 70, 60
1, 157487, Note_off_c, 0, 66, 37
1, 157504, Note_off_c, 0, 68, 56
1, 157507, Note_off_c, 0, 77, 55
1, 157524, Note_on_c, 0, 78, 68
1, 157543, Note_off_c, 0, 70, 57
1, 157544, Note_on_c, 0, 71, 67
1, 157567, Note_off_c, 0, 78, 55
1, 157580, Note_on_c, 0, 79, 73
1, 157627, Note_on_c, 0, 72, 60
1, 157637, Note_off_c, 0, 79, 59
1, 157639, Note_on_c, 0, 80, 68
1, 157645, Note_off_c, 0, 71, 34
1, 157696, Note_on_c, 0, 73, 61
1, 157724, Note_on_c, 0, 82, 70
1, 157734, Note_off_c, 0, 80, 57
1, 157744, Note_off_c, 0, 82, 71
1, 157746, Note_off_c, 0, 72, 36
1, 157773, Note_on_c, 0, 75, 59
1, 157791, Note_on_c, 0, 84, 72
1, 157794, Note_off_c, 0, 73, 58
1, 157838, Note_off_c, 0, 84, 53
1, 157844, Note_off_c, 0, 75, 62
1, 157858, Note_on_c, 0, 85, 68
1, 157863, Note_on_c, 0, 77, 62
1, 157913, Note_off_c, 0, 85, 63
1, 157919, Note_on_c, 0, 87, 65
1, 157938, Note_on_c, 0, 78, 59
1, 157943, Note_off_c, 0, 77, 45
1, 157969, Note_off_c, 0, 87, 60
1, 158000, Note_on_c, 0, 89, 69
1, 158003, Note_on_c, 0, 80, 55
1, 158048, Note_off_c, 0, 78, 36
1, 158056, Note_off_c, 0, 89, 54
1, 158077, Note_on_c, 0, 90, 66
1, 158080, Note_off_c, 0, 80, 59
1, 158082, Note_on_c, 0, 82, 43
1, 158118, Note_off_c, 0, 82, 52
1, 158124, Note_off_c, 0, 90, 58
1, 158151, Note_on_c, 0, 83, 56
1, 158151, Note_on_c, 0, 91, 71
1, 158229, Note_on_c, 0, 92, 66
1, 158232, Note_off_c, 0, 91, 55
1, 158235, Note_on_c, 0, 84, 58
1, 158240, Note_off_c, 0, 83, 51
1, 158327, Note_on_c, 0, 85, 54
1, 158332, Note_on_c, 0, 94, 67
1, 158338, Note_off_c, 0, 84, 46
1, 158345, Note_off_c, 0, 92, 60
1, 158378, Note_off_c, 0, 94, 62
1, 158431, Note_on_c, 0, 87, 54
1, 158434, Note_on_c, 0, 96, 63
1, 158481, Note_off_c, 0, 85, 42
1, 158549, Note_off_c, 0, 87, 61
1, 158586, Note_on_c, 0, 97, 66
1, 158594, Note_off_c, 0, 96, 35
1, 158601, Note_on_c, 0, 88, 56
1, 158815, Note_on_c, 0, 98, 72
1, 158819, Note_on_c, 0, 89, 53
1, 158825, Note_off_c, 0, 97, 47
1, 158852, Note_off_c, 0, 88, 36
1, 159122, Control_c, 0, 64, 26
1, 159136, Control_c, 0, 64, 37
1, 159151, Control_c, 0, 64, 41
1, 159166, Control_c, 0, 64, 42
1, 159195, Note_on_c, 0, 99, 63
1, 159211, Note_off_c, 0, 89, 38
1, 159218, Control_c, 0, 64, 42
1, 159224, Note_on_c, 0, 90, 39
1, 159227, Note_off_c, 0, 98, 37
1, 159288, Note_off_c, 0, 90, 0
1, 159288, Note_on_c, 0, 90, 3
1, 159338, Control_c, 0, 64, 43
1, 159353, Control_c, 0, 64, 43
1, 159367, Control_c, 0, 64, 45
1, 159382, Control_c, 0, 64, 47
1, 159397, Control_c, 0, 64, 49
1, 159411, Control_c, 0, 64, 50
1, 159426, Control_c, 0, 64, 51
1, 159441, Control_c, 0, 64, 51
1, 159471, Control_c, 0, 64, 53
1, 159485, Control_c, 0, 64, 55
1, 159500, Control_c, 0, 64, 57
1, 159515, Control_c, 0, 64, 58
1, 159530, Control_c, 0, 64, 60
1, 159545, Control_c, 0, 64, 61
1, 159559, Control_c, 0, 64, 62
1, 159574, Control_c, 0, 64, 63
1, 159589, Control_c, 0, 64, 65
1, 159603, Control_c, 0, 64, 66
1, 159618, Control_c, 0, 64, 68
1, 159633, Control_c, 0, 64, 70
1, 159648, Control_c, 0, 64, 71
1, 159660, Note_off_c, 0, 90, 47
1, 159663, Control_c, 0, 64, 72
1, 159678, Control_c, 0, 64, 74
1, 159683, Note_off_c, 0, 99, 43
1, 159692, Control_c, 0, 64, 75
1, 159707, Control_c, 0, 64, 76
1, 159722, Control_c, 0, 64, 78
1, 159737, Control_c, 0, 64, 79
1, 159752, Control_c, 0, 64, 81
1, 159767, Control_c, 0, 64, 83
1, 159782, Control_c, 0, 64, 84
1, 159797, Control_c, 0, 64, 85
1, 160605, Control_c, 0, 64, 84
1, 160694, Control_c, 0, 64, 84
1, 160849, Control_c, 0, 64, 83
1, 161479, Control_c, 0, 64, 83
1, 161496, Note_on_c, 0, 56, 47
1, 161508, Control_c, 0, 64, 82
1, 161520, Note_on_c, 0, 37, 32
1, 161538, Control_c, 0, 64, 82
1, 161553, Control_c, 0, 64, 81
1, 161568, Control_c, 0, 64, 80
1, 161582, Control_c, 0, 64, 79
1, 161597, Control_c, 0, 64, 77
1, 161612, Control_c, 0, 64, 73
1, 161627, Control_c, 0, 64, 70
1, 161642, Control_c, 0, 64, 66
1, 161657, Control_c, 0, 64, 64
1, 161672, Control_c, 0, 64, 62
1, 161687, Control_c, 0, 64, 61
1, 161701, Control_c, 0, 64, 60
1, 161716, Control_c, 0, 64, 60
1, 161791, Control_c, 0, 64, 61
1, 161806, Control_c, 0, 64, 63
1, 161821, Control_c, 0, 64, 66
1, 161836, Control_c, 0, 64, 69
1, 161851, Control_c, 0, 64, 73
1, 161866, Control_c, 0, 64, 76
1, 161880, Control_c, 0, 64, 77
1, 161895, Control_c, 0, 64, 78
1, 161910, Control_c, 0, 64, 79
1, 161925, Control_c, 0, 64, 81
1, 161940, Control_c, 0, 64, 83
1, 161954, Note_on_c, 0, 61, 19
1, 161954, Control_c, 0, 64, 85
1, 161969, Control_c, 0, 64, 87
1, 161984, Control_c, 0, 64, 88
1, 161999, Control_c, 0, 64, 88
1, 162013, Control_c, 0, 64, 89
1, 162028, Control_c, 0, 64, 90
1, 162035, Note_off_c, 0, 56, 41
1, 162043, Control_c, 0, 64, 90
1, 162058, Control_c, 0, 64, 91
1, 162073, Control_c, 0, 64, 92
1, 162087, Control_c, 0, 64, 93
1, 162102, Note_off_c, 0, 61, 40
1, 162102, Control_c, 0, 64, 93
1, 162116, Note_on_c, 0, 44, 34
1, 162117, Note_on_c, 0, 68, 36
1, 162139, Note_off_c, 0, 37, 37
1, 162145, Note_off_c, 0, 68, 53
1, 162281, Poly_aftertouch_c, 0, 68, 127
1, 162287, Note_off_c, 0, 44, 40
1, 162322, Poly_aftertouch_c, 0, 68, 0
1, 162325, Note_on_c, 0, 73, 38
1, 162339, Note_on_c, 0, 53, 38
1, 162362, Control_c, 0, 64, 93
1, 162369, Note_off_c, 0, 73, 44
1, 162377, Control_c, 0, 64, 92
1, 162398, Note_off_c, 0, 53, 45
1, 162406, Note_on_c, 0, 80, 32
1, 162406, Control_c, 0, 64, 92
1, 162421, Control_c, 0, 64, 91
1, 162436, Control_c, 0, 64, 91
1, 162440, Note_off_c, 0, 80, 49
1, 162451, Control_c, 0, 64, 90
1, 162466, Control_c, 0, 64, 90
1, 162480, Control_c, 0, 64, 89
1, 162495, Control_c, 0, 64, 88
1, 162510, Control_c, 0, 64, 86
1, 162526, Control_c, 0, 64, 83
1, 162529, Note_on_c, 0, 82, 55
1, 162541, Control_c, 0, 64, 80
1, 162547, Note_on_c, 0, 58, 59
1, 162555, Control_c, 0, 64, 77
1, 162570, Control_c, 0, 64, 72
1, 162585, Control_c, 0, 64, 66
1, 162599, Note_off_c, 0, 82, 32
1, 162600, Control_c, 0, 64, 61
1, 162615, Control_c, 0, 64, 58
1, 162629, Control_c, 0, 64, 58
1, 162633, Note_on_c, 0, 73, 44
1, 162674, Control_c, 0, 64, 59
1, 162683, Note_off_c, 0, 73, 60
1, 162689, Control_c, 0, 64, 62
1, 162697, Note_on_c, 0, 70, 49
1, 162703, Control_c, 0, 64, 64
1, 162718, Note_off_c, 0, 70, 60
1, 162718, Control_c, 0, 64, 67
1, 162733, Note_on_c, 0, 53, 26
1, 162733, Control_c, 0, 64, 71
1, 162748, Control_c, 0, 64, 75
1, 162763, Control_c, 0, 64, 77
1, 162812, Note_on_c, 0, 70, 44
1, 162837, Control_c, 0, 64, 77
1, 162871, Note_off_c, 0, 58, 33
1, 162891, Note_on_c, 0, 49, 49
1, 162893, Note_off_c, 0, 53, 42
1, 162894, Note_on_c, 0, 61, 42
1, 162915, Note_off_c, 0, 70, 35
1, 162927, Note_off_c, 0, 49, 64
1, 162944, Note_off_c, 0, 61, 59
1, 162999, Note_on_c, 0, 58, 27
1, 163040, Note_off_c, 0, 58, 42
1, 163082, Control_c, 0, 64, 76
1, 163094, Note_on_c, 0, 61, 58
1, 163097, Control_c, 0, 64, 74
1, 163111, Control_c, 0, 64, 69
1, 163120, Note_on_c, 0, 37, 40
1, 163126, Control_c, 0, 64, 64
1, 163141, Control_c, 0, 64, 58
1, 163155, Control_c, 0, 64, 58
1, 163200, Control_c, 0, 64, 60
1, 163215, Control_c, 0, 64, 63
1, 163223, Note_off_c, 0, 61, 56
1, 163229, Control_c, 0, 64, 66
1, 163231, Note_on_c, 0, 68, 37
1, 163244, Control_c, 0, 64, 71
1, 163259, Control_c, 0, 64, 75
1, 163274, Control_c, 0, 64, 78
1, 163276, Note_off_c, 0, 68, 56
1, 163285, Note_on_c, 0, 73, 58
1, 163288, Control_c, 0, 64, 79
1, 163290, Note_off_c, 0, 37, 52
1, 163303, Control_c, 0, 64, 79
1, 163316, Note_off_c, 0, 73, 63
1, 163317, Note_on_c, 0, 44, 49
1, 163370, Note_on_c, 0, 73, 43
1, 163394, Note_off_c, 0, 73, 56
1, 163431, Note_off_c, 0, 44, 33
1, 163432, Note_on_c, 0, 80, 56
1, 163463, Note_on_c, 0, 53, 49
1, 163484, Note_off_c, 0, 80, 51
1, 163497, Note_off_c, 0, 53, 53
1, 163517, Note_on_c, 0, 85, 52
1, 163537, Note_off_c, 0, 85, 63
1, 163556, Control_c, 0, 64, 79
1, 163615, Control_c, 0, 64, 78
1, 163630, Control_c, 0, 64, 76
1, 163639, Note_on_c, 0, 87, 53
1, 163645, Note_on_c, 0, 63, 70
1, 163645, Control_c, 0, 64, 71
1, 163660, Control_c, 0, 64, 64
1, 163675, Control_c, 0, 64, 58
1, 163690, Control_c, 0, 64, 52
1, 163712, Note_off_c, 0, 87, 35
1, 163712, Control_c, 0, 64, 50
1, 163714, Note_on_c, 0, 82, 50
1, 163756, Control_c, 0, 64, 52
1, 163765, Note_off_c, 0, 82, 60
1, 163771, Control_c, 0, 64, 58
1, 163779, Note_on_c, 0, 75, 52
1, 163785, Control_c, 0, 64, 62
1, 163800, Control_c, 0, 64, 66
1, 163806, Note_off_c, 0, 75, 62
1, 163812, Note_on_c, 0, 58, 40
1, 163815, Control_c, 0, 64, 70
1, 163830, Control_c, 0, 64, 74
1, 163845, Control_c, 0, 64, 76
1, 163859, Control_c, 0, 64, 77
1, 163874, Control_c, 0, 64, 77
1, 163889, Control_c, 0, 64, 78
1, 163895, Note_on_c, 0, 75, 53
1, 163903, Control_c, 0, 64, 78
1, 163910, Note_off_c, 0, 63, 56
1, 163933, Control_c, 0, 64, 79
1, 163971, Note_on_c, 0, 70, 43
1, 163971, Note_off_c, 0, 58, 54
1, 163982, Note_on_c, 0, 54, 42
1, 164005, Note_off_c, 0, 75, 33
1, 164012, Note_off_c, 0, 54, 54
1, 164036, Note_off_c, 0, 70, 53
1, 164054, Note_on_c, 0, 63, 49
1, 164079, Note_off_c, 0, 63, 59
1, 164171, Control_c, 0, 64, 78
1, 164186, Control_c, 0, 64, 75
1, 164197, Note_on_c, 0, 65, 58
1, 164200, Control_c, 0, 64, 71
1, 164215, Control_c, 0, 64, 64
1, 164219, Note_on_c, 0, 37, 37
1, 164230, Control_c, 0, 64, 56
1, 164245, Control_c, 0, 64, 51
1, 164274, Control_c, 0, 64, 52
1, 164289, Control_c, 0, 64, 56
1, 164304, Control_c, 0, 64, 61
1, 164319, Control_c, 0, 64, 64
1, 164334, Control_c, 0, 64, 69
1, 164343, Note_off_c, 0, 65, 55
1, 164349, Control_c, 0, 64, 74
1, 164357, Note_on_c, 0, 70, 21
1, 164364, Control_c, 0, 64, 78
1, 164378, Control_c, 0, 64, 79
1, 164396, Note_off_c, 0, 70, 47
1, 164397, Note_on_c, 0, 77, 51
1, 164414, Note_off_c, 0, 37, 31
1, 164419, Note_on_c, 0, 46, 41
1, 164420, Note_off_c, 0, 77, 56
1, 164423, Control_c, 0, 64, 79
1, 164460, Control_c, 0, 64, 80
1, 164509, Note_on_c, 0, 77, 50
1, 164535, Note_off_c, 0, 77, 51
1, 164560, Note_off_c, 0, 46, 28
1, 164570, Note_on_c, 0, 54, 43
1, 164596, Note_on_c, 0, 82, 37
1, 164614, Note_off_c, 0, 54, 63
1, 164636, Note_off_c, 0, 82, 48
1, 164642, Note_on_c, 0, 89, 56
1, 164680, Note_off_c, 0, 89, 61
1, 164726, Control_c, 0, 64, 79
1, 164771, Control_c, 0, 64, 78
1, 164772, Note_on_c, 0, 87, 61
1, 164786, Control_c, 0, 64, 76
1, 164795, Note_on_c, 0, 63, 61
1, 164800, Control_c, 0, 64, 72
1, 164815, Control_c, 0, 64, 66
1, 164830, Control_c, 0, 64, 60
1, 164845, Control_c, 0, 64, 54
1, 164849, Note_on_c, 0, 82, 52
1, 164860, Control_c, 0, 64, 51
1, 164894, Note_off_c, 0, 87, 47
1, 164919, Control_c, 0, 64, 55
1, 164927, Note_off_c, 0, 82, 56
1, 164935, Control_c, 0, 64, 60
1, 164948, Note_on_c, 0, 75, 44
1, 164949, Control_c, 0, 64, 64
1, 164961, Note_on_c, 0, 58, 45
1, 164964, Control_c, 0, 64, 67
1, 164974, Note_off_c, 0, 75, 56
1, 164979, Control_c, 0, 64, 73
1, 164994, Control_c, 0, 64, 76
1, 165009, Control_c, 0, 64, 78
1, 165023, Control_c, 0, 64, 78
1, 165053, Control_c, 0, 64, 79
1, 165060, Note_on_c, 0, 75, 51
1, 165068, Control_c, 0, 64, 79
1, 165083, Control_c, 0, 64, 80
1, 165099, Note_off_c, 0, 63, 31
1, 165112, Control_c, 0, 64, 81
1, 165147, Note_off_c, 0, 75, 35
1, 165153, Note_on_c, 0, 70, 44
1, 165156, Note_on_c, 0, 54, 40
1, 165156, Control_c, 0, 64, 81
1, 165168, Note_off_c, 0, 58, 37
1, 165210, Note_off_c, 0, 54, 61
1, 165230, Note_off_c, 0, 70, 34
1, 165267, Note_on_c, 0, 63, 42
1, 165340, Note_off_c, 0, 63, 39
1, 165401, Control_c, 0, 64, 81
1, 165431, Control_c, 0, 64, 80
1, 165446, Control_c, 0, 64, 79
1, 165460, Control_c, 0, 64, 78
1, 165475, Control_c, 0, 64, 75
1, 165475, Note_on_c, 0, 58, 55
1, 165490, Control_c, 0, 64, 70
1, 165505, Control_c, 0, 64, 63
1, 165511, Note_on_c, 0, 37, 34
1, 165520, Control_c, 0, 64, 57
1, 165535, Control_c, 0, 64, 52
1, 165549, Control_c, 0, 64, 52
1, 165579, Control_c, 0, 64, 52
1, 165594, Control_c, 0, 64, 56
1, 165609, Control_c, 0, 64, 61
1, 165623, Control_c, 0, 64, 64
1, 165638, Control_c, 0, 64, 68
1, 165653, Control_c, 0, 64, 72
1, 165660, Note_off_c, 0, 58, 55
1, 165667, Control_c, 0, 64, 76
1, 165668, Note_on_c, 0, 63, 35
1, 165682, Control_c, 0, 64, 78
1, 165697, Control_c, 0, 64, 78
1, 165723, Note_off_c, 0, 63, 43
1, 165728, Control_c, 0, 64, 79
1, 165736, Note_on_c, 0, 46, 38
1, 165737, Note_off_c, 0, 37, 37
1, 165743, Control_c, 0, 64, 79
1, 165750, Note_on_c, 0, 70, 35
1, 165772, Control_c, 0, 64, 80
1, 165778, Note_off_c, 0, 70, 51
1, 165857, Note_on_c, 0, 70, 26
1, 165895, Note_off_c, 0, 70, 44
1, 165926, Note_off_c, 0, 46, 32
1, 165954, Note_on_c, 0, 54, 38
1, 165955, Note_on_c, 0, 78, 42
1, 166000, Note_off_c, 0, 78, 43
1, 166019, Note_off_c, 0, 54, 54
1, 166056, Note_on_c, 0, 82, 50
1, 166099, Note_off_c, 0, 82, 58
1, 166210, Control_c, 0, 64, 79
1, 166240, Control_c, 0, 64, 79
1, 166254, Control_c, 0, 64, 77
1, 166256, Note_on_c, 0, 61, 53
1, 166269, Control_c, 0, 64, 75
1, 166277, Note_on_c, 0, 85, 43
1, 166284, Control_c, 0, 64, 72
1, 166298, Control_c, 0, 64, 68
1, 166313, Control_c, 0, 64, 64
1, 166328, Control_c, 0, 64, 60
1, 166343, Control_c, 0, 64, 57
1, 166358, Control_c, 0, 64, 54
1, 166373, Control_c, 0, 64, 51
1, 166388, Control_c, 0, 64, 48
1, 166391, Note_on_c, 0, 80, 47
1, 166402, Control_c, 0, 64, 47
1, 166443, Note_off_c, 0, 85, 36
1, 166447, Control_c, 0, 64, 49
1, 166462, Control_c, 0, 64, 55
1, 166469, Note_off_c, 0, 80, 56
1, 166477, Control_c, 0, 64, 60
1, 166484, Note_on_c, 0, 56, 27
1, 166491, Control_c, 0, 64, 63
1, 166504, Note_on_c, 0, 73, 34
1, 166506, Control_c, 0, 64, 66
1, 166522, Control_c, 0, 64, 69
1, 166534, Note_off_c, 0, 73, 49
1, 166537, Control_c, 0, 64, 72
1, 166551, Control_c, 0, 64, 73
1, 166566, Control_c, 0, 64, 74
1, 166581, Control_c, 0, 64, 75
1, 166596, Control_c, 0, 64, 76
1, 166611, Control_c, 0, 64, 77
1, 166623, Note_on_c, 0, 73, 60
1, 166626, Control_c, 0, 64, 78
1, 166641, Control_c, 0, 64, 79
1, 166656, Control_c, 0, 64, 79
1, 166670, Control_c, 0, 64, 80
1, 166685, Control_c, 0, 64, 81
1, 166707, Control_c, 0, 64, 81
1, 166722, Control_c, 0, 64, 82
1, 166736, Control_c, 0, 64, 82
1, 166760, Note_on_c, 0, 53, 32
1, 166776, Note_on_c, 0, 68, 42
1, 166781, Control_c, 0, 64, 83
1, 166786, Note_off_c, 0, 61, 30
1, 166805, Note_off_c, 0, 73, 35
1, 166817, Note_off_c, 0, 56, 37
1, 166889, Note_off_c, 0, 53, 39
1, 166915, Note_on_c, 0, 61, 46
1, 166954, Note_off_c, 0, 68, 36
1, 167011, Note_off_c, 0, 61, 45
1, 167107, Control_c, 0, 64, 82
1, 167121, Control_c, 0, 64, 82
1, 167151, Control_c, 0, 64, 81
1, 167166, Control_c, 0, 64, 79
1, 167181, Control_c, 0, 64, 76
1, 167195, Control_c, 0, 64, 71
1, 167210, Control_c, 0, 64, 64
1, 167221, Note_on_c, 0, 56, 51
1, 167225, Control_c, 0, 64, 57
1, 167229, Note_on_c, 0, 37, 30
1, 167240, Control_c, 0, 64, 51
1, 167255, Control_c, 0, 64, 50
1, 167300, Control_c, 0, 64, 52
1, 167315, Control_c, 0, 64, 58
1, 167330, Control_c, 0, 64, 62
1, 167344, Control_c, 0, 64, 65
1, 167347, Note_off_c, 0, 56, 53
1, 167359, Control_c, 0, 64, 69
1, 167374, Control_c, 0, 64, 74
1, 167389, Note_on_c, 0, 61, 25
1, 167389, Control_c, 0, 64, 77
1, 167404, Control_c, 0, 64, 78
1, 167419, Control_c, 0, 64, 79
1, 167434, Control_c, 0, 64, 80
1, 167435, Note_off_c, 0, 61, 45
1, 167456, Note_off_c, 0, 37, 40
1, 167456, Control_c, 0, 64, 80
1, 167458, Note_on_c, 0, 68, 46
1, 167467, Note_on_c, 0, 44, 42
1, 167471, Control_c, 0, 64, 81
1, 167486, Control_c, 0, 64, 82
1, 167490, Note_off_c, 0, 68, 57
1, 167500, Control_c, 0, 64, 82
1, 167530, Control_c, 0, 64, 83
1, 167537, Note_on_c, 0, 61, 56
1, 167577, Note_off_c, 0, 44, 36
1, 167577, Note_off_c, 0, 61, 59
1, 167604, Note_on_c, 0, 53, 38
1, 167605, Note_on_c, 0, 68, 49
1, 167648, Note_off_c, 0, 68, 57
1, 167657, Note_off_c, 0, 53, 44
1, 167664, Note_on_c, 0, 73, 62
1, 167699, Note_off_c, 0, 73, 62
1, 167737, Note_on_c, 0, 68, 63
1, 167748, Note_on_c, 0, 56, 45
1, 167778, Note_off_c, 0, 68, 52
1, 167807, Note_on_c, 0, 73, 64
1, 167845, Note_off_c, 0, 73, 57
1, 167851, Note_on_c, 0, 80, 71
1, 167883, Note_off_c, 0, 56, 37
1, 167887, Note_off_c, 0, 80, 54
1, 167895, Note_on_c, 0, 61, 34
1, 167920, Note_on_c, 0, 73, 57
1, 167929, Control_c, 0, 64, 83
1, 167930, Note_off_c, 0, 61, 49
1, 167955, Note_off_c, 0, 73, 59
1, 167965, Note_on_c, 0, 65, 46
1, 167994, Note_on_c, 0, 80, 55
1, 167995, Note_off_c, 0, 65, 54
1, 168015, Note_off_c, 0, 80, 61
1, 168029, Note_on_c, 0, 85, 72
1, 168033, Control_c, 0, 64, 84
1, 168062, Note_off_c, 0, 85, 55
1, 168092, Control_c, 0, 64, 84
1, 168096, Note_on_c, 0, 68, 44
1, 168102, Note_on_c, 0, 80, 54
1, 168107, Control_c, 0, 64, 85
1, 168122, Control_c, 0, 64, 86
1, 168125, Note_on_c, 0, 82, 42
1, 168137, Control_c, 0, 64, 87
1, 168142, Note_off_c, 0, 80, 56
1, 168152, Note_off_c, 0, 82, 56
1, 168152, Control_c, 0, 64, 87
1, 168167, Control_c, 0, 64, 88
1, 168168, Note_on_c, 0, 85, 62
1, 168182, Control_c, 0, 64, 88
1, 168204, Control_c, 0, 64, 89
1, 168218, Note_on_c, 0, 73, 43
1, 168219, Note_off_c, 0, 68, 33
1, 168219, Control_c, 0, 64, 89
1, 168233, Note_off_c, 0, 85, 56
1, 168238, Note_on_c, 0, 92, 68
1, 168275, Note_off_c, 0, 92, 58
1, 168276, Note_off_c, 0, 73, 44
1, 168292, Control_c, 0, 64, 90
1, 168301, Note_on_c, 0, 85, 54
1, 168347, Note_off_c, 0, 85, 61
1, 168356, Note_on_c, 0, 77, 22
1, 168373, Note_on_c, 0, 92, 65
1, 168409, Note_off_c, 0, 77, 42
1, 168429, Note_off_c, 0, 92, 58
1, 168440, Note_on_c, 0, 97, 63
1, 168486, Note_off_c, 0, 97, 51
1, 168518, Note_on_c, 0, 92, 50
1, 168573, Note_off_c, 0, 92, 55
1, 168584, Note_on_c, 0, 85, 42
1, 168611, Note_off_c, 0, 85, 56
1, 168634, Control_c, 0, 64, 90
1, 168644, Note_on_c, 0, 80, 46
1, 168719, Note_off_c, 0, 80, 54
1, 168752, Control_c, 0, 64, 91
1, 168763, Note_on_c, 0, 73, 39
1, 168889, Note_on_c, 0, 68, 49
1, 168913, Note_off_c, 0, 73, 39
1, 169049, Note_on_c, 0, 61, 45
1, 169062, Note_off_c, 0, 68, 21
1, 169102, Control_c, 0, 64, 90
1, 169146, Control_c, 0, 64, 90
1, 169166, Note_off_c, 0, 61, 34
1, 169176, Control_c, 0, 64, 89
1, 169190, Control_c, 0, 64, 88
1, 169205, Control_c, 0, 64, 88
1, 169235, Control_c, 0, 64, 87
1, 169249, Control_c, 0, 64, 87
1, 169264, Control_c, 0, 64, 86
1, 169279, Control_c, 0, 64, 85
1, 169294, Control_c, 0, 64, 83
1, 169309, Control_c, 0, 64, 81
1, 169324, Control_c, 0, 64, 79
1, 169339, Control_c, 0, 64, 77
1, 169354, Control_c, 0, 64, 73
1, 169368, Control_c, 0, 64, 68
1, 169370, Note_on_c, 0, 56, 54
1, 169382, Note_on_c, 0, 37, 31
1, 169383, Control_c, 0, 64, 63
1, 169398, Control_c, 0, 64, 58
1, 169413, Control_c, 0, 64, 54
1, 169428, Control_c, 0, 64, 51
1, 169442, Control_c, 0, 64, 50
1, 169487, Control_c, 0, 64, 54
1, 169502, Control_c, 0, 64, 61
1, 169516, Control_c, 0, 64, 66
1, 169531, Control_c, 0, 64, 72
1, 169546, Control_c, 0, 64, 79
1, 169561, Control_c, 0, 64, 85
1, 169571, Note_off_c, 0, 56, 48
1, 169576, Control_c, 0, 64, 88
1, 169578, Note_on_c, 0, 61, 49
1, 169590, Control_c, 0, 64, 89
1, 169605, Control_c, 0, 64, 90
1, 169620, Control_c, 0, 64, 92
1, 169634, Note_off_c, 0, 61, 52
1, 169635, Control_c, 0, 64, 93
1, 169649, Control_c, 0, 64, 94
1, 169654, Note_on_c, 0, 68, 52
1, 169671, Note_on_c, 0, 44, 43
1, 169678, Note_off_c, 0, 37, 32
1, 169681, Note_off_c, 0, 68, 60
1, 169747, Note_on_c, 0, 68, 45
1, 169768, Note_off_c, 0, 44, 54
1, 169817, Note_on_c, 0, 53, 41
1, 169844, Note_on_c, 0, 73, 37
1, 169844, Note_off_c, 0, 68, 32
1, 169866, Note_off_c, 0, 53, 43
1, 169875, Note_off_c, 0, 73, 53
1, 169889, Note_on_c, 0, 80, 57
1, 169910, Control_c, 0, 64, 94
1, 169917, Note_off_c, 0, 80, 61
1, 169925, Control_c, 0, 64, 93
1, 169939, Control_c, 0, 64, 92
1, 169954, Control_c, 0, 64, 89
1, 169969, Control_c, 0, 64, 86
1, 169984, Control_c, 0, 64, 79
1, 169987, Note_on_c, 0, 58, 75
1, 169998, Note_on_c, 0, 82, 68
1, 169999, Control_c, 0, 64, 71
1, 170013, Control_c, 0, 64, 62
1, 170028, Control_c, 0, 64, 54
1, 170043, Control_c, 0, 64, 50
1, 170072, Control_c, 0, 64, 52
1, 170078, Note_off_c, 0, 82, 57
1, 170084, Note_on_c, 0, 73, 53
1, 170087, Control_c, 0, 64, 57
1, 170102, Control_c, 0, 64, 62
1, 170117, Control_c, 0, 64, 67
1, 170126, Note_off_c, 0, 73, 61
1, 170132, Control_c, 0, 64, 73
1, 170139, Note_on_c, 0, 70, 48
1, 170140, Note_on_c, 0, 53, 54
1, 170146, Control_c, 0, 64, 80
1, 170161, Control_c, 0, 64, 85
1, 170162, Note_off_c, 0, 70, 56
1, 170176, Control_c, 0, 64, 86
1, 170176, Control_c, 0, 67, 117
1, 170191, Control_c, 0, 64, 87
1, 170191, Control_c, 0, 67, 103
1, 170206, Control_c, 0, 67, 87
1, 170221, Control_c, 0, 67, 74
1, 170227, Note_off_c, 0, 58, 51
1, 170236, Control_c, 0, 67, 62
1, 170239, Note_on_c, 0, 70, 59
1, 170251, Control_c, 0, 64, 87
1, 170251, Control_c, 0, 67, 51
1, 170264, Note_off_c, 0, 53, 52
1, 170265, Control_c, 0, 67, 40
1, 170280, Control_c, 0, 67, 30
1, 170284, Note_on_c, 0, 49, 45
1, 170295, Control_c, 0, 67, 31
1, 170306, Note_on_c, 0, 61, 50
1, 170306, Note_off_c, 0, 70, 53
1, 170310, Control_c, 0, 67, 19
1, 170314, Note_off_c, 0, 49, 55
1, 170325, Control_c, 0, 67, 0
1, 170345, Note_off_c, 0, 61, 62
1, 170361, Note_on_c, 0, 58, 59
1, 170381, Note_off_c, 0, 58, 62
1, 170451, Control_c, 0, 64, 86
1, 170465, Control_c, 0, 64, 83
1, 170479, Note_on_c, 0, 61, 72
1, 170480, Control_c, 0, 64, 78
1, 170495, Control_c, 0, 64, 67
1, 170499, Note_on_c, 0, 37, 48
1, 170510, Control_c, 0, 64, 58
1, 170525, Control_c, 0, 64, 51
1, 170555, Control_c, 0, 64, 55
1, 170570, Control_c, 0, 64, 61
1, 170585, Control_c, 0, 64, 67
1, 170597, Note_on_c, 0, 68, 43
1, 170600, Control_c, 0, 64, 76
1, 170614, Control_c, 0, 64, 86
1, 170617, Note_off_c, 0, 61, 57
1, 170629, Control_c, 0, 64, 92
1, 170644, Control_c, 0, 64, 93
1, 170659, Control_c, 0, 64, 94
1, 170660, Note_on_c, 0, 73, 66
1, 170669, Note_off_c, 0, 37, 50
1, 170674, Control_c, 0, 64, 96
1, 170674, Note_off_c, 0, 68, 52
1, 170688, Control_c, 0, 64, 99
1, 170689, Note_on_c, 0, 44, 50
1, 170701, Note_off_c, 0, 73, 60
1, 170703, Control_c, 0, 64, 100
1, 170733, Control_c, 0, 64, 101
1, 170739, Note_on_c, 0, 73, 53
1, 170779, Note_off_c, 0, 73, 55
1, 170795, Note_off_c, 0, 44, 48
1, 170806, Note_on_c, 0, 53, 46
1, 170816, Note_on_c, 0, 80, 55
1, 170854, Note_off_c, 0, 53, 55
1, 170866, Note_off_c, 0, 80, 52
1, 170877, Note_on_c, 0, 85, 64
1, 170907, Note_off_c, 0, 85, 63
1, 170984, Control_c, 0, 64, 99
1, 170999, Control_c, 0, 64, 95
1, 171000, Note_on_c, 0, 87, 62
1, 171005, Note_on_c, 0, 63, 76
1, 171014, Control_c, 0, 64, 89
1, 171029, Control_c, 0, 64, 80
1, 171044, Control_c, 0, 64, 69
1, 171059, Control_c, 0, 64, 59
1, 171071, Note_on_c, 0, 82, 55
1, 171074, Control_c, 0, 64, 49
1, 171088, Control_c, 0, 64, 46
1, 171097, Note_off_c, 0, 87, 42
1, 171133, Control_c, 0, 64, 51
1, 171134, Note_off_c, 0, 82, 57
1, 171140, Note_on_c, 0, 75, 53
1, 171148, Control_c, 0, 64, 60
1, 171162, Control_c, 0, 64, 67
1, 171163, Note_off_c, 0, 75, 62
1, 171166, Note_on_c, 0, 58, 49
1, 171177, Control_c, 0, 64, 74
1, 171199, Control_c, 0, 64, 82
1, 171214, Control_c, 0, 64, 87
1, 171229, Control_c, 0, 64, 88
1, 171243, Control_c, 0, 64, 89
1, 171251, Note_on_c, 0, 75, 56
1, 171258, Control_c, 0, 64, 91
1, 171273, Control_c, 0, 64, 94
1, 171288, Control_c, 0, 64, 96
1, 171303, Control_c, 0, 64, 97
1, 171304, Note_off_c, 0, 63, 57
1, 171318, Control_c, 0, 64, 97
1, 171335, Note_on_c, 0, 54, 54
1, 171335, Note_off_c, 0, 58, 54
1, 171345, Note_on_c, 0, 70, 60
1, 171351, Note_off_c, 0, 75, 52
1, 171359, Note_off_c, 0, 54, 60
1, 171408, Note_off_c, 0, 70, 52
1, 171459, Note_on_c, 0, 63, 18
1, 171480, Control_c, 0, 64, 96
1, 171494, Note_off_c, 0, 63, 53
1, 171495, Control_c, 0, 64, 95
1, 171510, Control_c, 0, 64, 94
1, 171524, Control_c, 0, 64, 93
1, 171539, Control_c, 0, 64, 90
1, 171554, Control_c, 0, 64, 83
1, 171565, Note_on_c, 0, 65, 64
1, 171569, Control_c, 0, 64, 73
1, 171583, Note_on_c, 0, 37, 46
1, 171584, Control_c, 0, 64, 63
1, 171598, Control_c, 0, 64, 52
1, 171613, Control_c, 0, 64, 47
1, 171643, Control_c, 0, 64, 50
1, 171658, Control_c, 0, 64, 57
1, 171673, Control_c, 0, 64, 64
1, 171688, Control_c, 0, 64, 69
1, 171702, Control_c, 0, 64, 78
1, 171717, Control_c, 0, 64, 84
1, 171732, Control_c, 0, 64, 85
1, 171732, Note_on_c, 0, 70, 40
1, 171734, Note_off_c, 0, 65, 51
1, 171747, Control_c, 0, 64, 86
1, 171762, Control_c, 0, 64, 86
1, 171764, Note_off_c, 0, 70, 52
1, 171769, Note_on_c, 0, 77, 53
1, 171775, Note_on_c, 0, 46, 46
1, 171775, Note_off_c, 0, 37, 33
1, 171777, Control_c, 0, 64, 87
1, 171791, Control_c, 0, 64, 88
1, 171809, Note_off_c, 0, 77, 59
1, 171835, Control_c, 0, 64, 88
1, 171867, Note_on_c, 0, 77, 42
1, 171920, Note_off_c, 0, 46, 37
1, 171938, Note_on_c, 0, 54, 47
1, 171951, Note_on_c, 0, 82, 48
1, 171980, Note_off_c, 0, 54, 62
1, 171984, Note_off_c, 0, 77, 39
1, 171991, Control_c, 0, 64, 88
1, 172003, Note_off_c, 0, 82, 48
1, 172010, Note_on_c, 0, 89, 62
1, 172021, Control_c, 0, 64, 87
1, 172035, Control_c, 0, 64, 87
1, 172050, Control_c, 0, 64, 86
1, 172054, Note_off_c, 0, 89, 56
1, 172065, Control_c, 0, 64, 85
1, 172080, Control_c, 0, 64, 84
1, 172096, Control_c, 0, 64, 84
1, 172111, Control_c, 0, 64, 83
1, 172126, Control_c, 0, 64, 82
1, 172141, Control_c, 0, 64, 79
1, 172146, Note_on_c, 0, 87, 56
1, 172147, Note_on_c, 0, 63, 64
1, 172156, Control_c, 0, 64, 74
1, 172170, Control_c, 0, 64, 67
1, 172185, Control_c, 0, 64, 60
1, 172200, Control_c, 0, 64, 50
1, 172215, Control_c, 0, 64, 45
1, 172226, Note_on_c, 0, 82, 51
1, 172230, Control_c, 0, 64, 44
1, 172248, Note_off_c, 0, 87, 41
1, 172260, Control_c, 0, 64, 44
1, 172274, Control_c, 0, 64, 51
1, 172289, Control_c, 0, 64, 59
1, 172290, Note_off_c, 0, 82, 57
1, 172304, Control_c, 0, 64, 65
1, 172307, Note_on_c, 0, 58, 44
1, 172319, Control_c, 0, 64, 70
1, 172334, Control_c, 0, 64, 74
1, 172348, Control_c, 0, 64, 76
1, 172363, Control_c, 0, 64, 76
1, 172408, Control_c, 0, 64, 77
1, 172439, Poly_aftertouch_c, 0, 75, 127
1, 172452, Control_c, 0, 64, 77
1, 172493, Note_off_c, 0, 63, 36
1, 172507, Note_on_c, 0, 54, 40
1, 172511, Control_c, 0, 64, 78
1, 172542, Note_off_c, 0, 58, 43
1, 172546, Note_on_c, 0, 70, 32
1, 172555, Control_c, 0, 64, 78
1, 172573, Note_off_c, 0, 54, 55
1, 172602, Poly_aftertouch_c, 0, 75, 0
1, 172608, Note_off_c, 0, 70, 37
1, 172615, Control_c, 0, 64, 79
1, 172622, Note_on_c, 0, 63, 40
1, 172659, Control_c, 0, 64, 79
1, 172693, Note_off_c, 0, 63, 55
1, 172828, Note_on_c, 0, 58, 59
1, 172829, Control_c, 0, 64, 79
1, 172844, Control_c, 0, 64, 77
1, 172849, Note_on_c, 0, 37, 43
1, 172859, Control_c, 0, 64, 72
1, 172874, Control_c, 0, 64, 65
1, 172889, Control_c, 0, 64, 57
1, 172904, Control_c, 0, 64, 49
1, 172919, Control_c, 0, 64, 48
1, 172934, Control_c, 0, 64, 49
1, 172949, Control_c, 0, 64, 53
1, 172963, Control_c, 0, 64, 59
1, 172978, Control_c, 0, 64, 63
1, 172993, Note_off_c, 0, 58, 52
1, 172993, Control_c, 0, 64, 67
1, 173000, Note_on_c, 0, 63, 24
1, 173008, Control_c, 0, 64, 72
1, 173023, Control_c, 0, 64, 76
1, 173038, Control_c, 0, 64, 78
1, 173053, Control_c, 0, 64, 79
1, 173056, Note_off_c, 0, 63, 43
1, 173061, Note_off_c, 0, 37, 32
1, 173076, Note_on_c, 0, 46, 36
1, 173079, Note_on_c, 0, 70, 43
1, 173083, Control_c, 0, 64, 79
1, 173097, Control_c, 0, 64, 80
1, 173104, Note_off_c, 0, 70, 57
1, 173194, Note_on_c, 0, 70, 28
1, 173227, Note_off_c, 0, 70, 42
1, 173243, Note_off_c, 0, 46, 40
1, 173271, Note_on_c, 0, 54, 40
1, 173280, Note_on_c, 0, 78, 41
1, 173330, Note_off_c, 0, 54, 57
1, 173351, Note_off_c, 0, 78, 39
1, 173393, Note_on_c, 0, 82, 52
1, 173442, Note_off_c, 0, 82, 60
1, 173489, Control_c, 0, 64, 79
1, 173519, Control_c, 0, 64, 79
1, 173534, Control_c, 0, 64, 78
1, 173549, Note_on_c, 0, 61, 50
1, 173549, Control_c, 0, 64, 76
1, 173563, Control_c, 0, 64, 73
1, 173570, Note_on_c, 0, 85, 45
1, 173578, Control_c, 0, 64, 68
1, 173593, Control_c, 0, 64, 63
1, 173608, Control_c, 0, 64, 57
1, 173622, Control_c, 0, 64, 53
1, 173637, Control_c, 0, 64, 50
1, 173652, Control_c, 0, 64, 49
1, 173688, Note_on_c, 0, 80, 40
1, 173697, Note_off_c, 0, 85, 35
1, 173697, Control_c, 0, 64, 50
1, 173712, Control_c, 0, 64, 55
1, 173727, Control_c, 0, 64, 61
1, 173740, Note_off_c, 0, 80, 54
1, 173742, Control_c, 0, 64, 64
1, 173757, Control_c, 0, 64, 68
1, 173759, Note_on_c, 0, 73, 53
1, 173772, Control_c, 0, 64, 72
1, 173778, Note_on_c, 0, 56, 41
1, 173782, Note_off_c, 0, 73, 59
1, 173786, Control_c, 0, 64, 75
1, 173801, Control_c, 0, 64, 77
1, 173816, Control_c, 0, 64, 77
1, 173831, Control_c, 0, 64, 78
1, 173846, Control_c, 0, 64, 80
1, 173861, Control_c, 0, 64, 81
1, 173876, Control_c, 0, 64, 82
1, 173890, Control_c, 0, 64, 83
1, 173902, Note_on_c, 0, 73, 40
1, 173905, Control_c, 0, 64, 84
1, 173920, Control_c, 0, 64, 84
1, 173935, Control_c, 0, 64, 85
1, 173968, Note_off_c, 0, 61, 0
1, 174016, Note_on_c, 0, 53, 42
1, 174019, Poly_aftertouch_c, 0, 61, 0
1, 174051, Note_on_c, 0, 68, 32
1, 174080, Note_off_c, 0, 73, 33
1, 174081, Note_off_c, 0, 56, 37
1, 174115, Note_off_c, 0, 68, 0
1, 174144, Note_off_c, 0, 53, 34
1, 174153, Poly_aftertouch_c, 0, 68, 127
1, 174157, Control_c, 0, 67, 23
1, 174172, Control_c, 0, 67, 30
1, 174194, Control_c, 0, 67, 37
1, 174203, Note_on_c, 0, 61, 26
1, 174209, Control_c, 0, 67, 41
1, 174224, Control_c, 0, 67, 42
1, 174239, Poly_aftertouch_c, 0, 68, 0
1, 174306, Note_off_c, 0, 61, 34
1, 174356, Control_c, 0, 67, 42
1, 174370, Control_c, 0, 64, 84
1, 174370, Control_c, 0, 67, 41
1, 174385, Control_c, 0, 67, 41
1, 174400, Control_c, 0, 64, 84
1, 174400, Control_c, 0, 67, 40
1, 174430, Control_c, 0, 64, 83
1, 174445, Control_c, 0, 64, 82
1, 174445, Control_c, 0, 67, 40
1, 174460, Control_c, 0, 64, 80
1, 174475, Control_c, 0, 64, 77
1, 174490, Control_c, 0, 64, 72
1, 174496, Note_on_c, 0, 37, 23
1, 174499, Note_on_c, 0, 56, 47
1, 174505, Control_c, 0, 64, 66
1, 174520, Control_c, 0, 64, 61
1, 174534, Control_c, 0, 64, 56
1, 174549, Control_c, 0, 64, 54
1, 174564, Control_c, 0, 64, 53
1, 174594, Control_c, 0, 64, 54
1, 174609, Control_c, 0, 64, 57
1, 174609, Control_c, 0, 67, 40
1, 174624, Control_c, 0, 64, 61
1, 174639, Control_c, 0, 64, 65
1, 174653, Control_c, 0, 64, 68
1, 174653, Control_c, 0, 67, 41
1, 174668, Control_c, 0, 64, 74
1, 174679, Note_on_c, 0, 61, 32
1, 174683, Control_c, 0, 64, 77
1, 174698, Control_c, 0, 64, 79
1, 174710, Note_off_c, 0, 56, 34
1, 174713, Control_c, 0, 64, 79
1, 174727, Control_c, 0, 64, 80
1, 174742, Control_c, 0, 64, 81
1, 174756, Note_off_c, 0, 61, 36
1, 174757, Control_c, 0, 64, 82
1, 174772, Control_c, 0, 64, 83
1, 174777, Note_on_c, 0, 68, 49
1, 174779, Note_on_c, 0, 44, 31
1, 174779, Note_off_c, 0, 37, 39
1, 174786, Control_c, 0, 64, 83
1, 174801, Control_c, 0, 64, 84
1, 174816, Control_c, 0, 64, 85
1, 174827, Note_off_c, 0, 68, 54
1, 174831, Control_c, 0, 67, 40
1, 174860, Control_c, 0, 64, 85
1, 174860, Control_c, 0, 67, 40
1, 174867, Note_on_c, 0, 61, 50
1, 174904, Note_off_c, 0, 44, 34
1, 174917, Note_off_c, 0, 61, 42
1, 174920, Control_c, 0, 67, 39
1, 174937, Note_on_c, 0, 53, 42
1, 174967, Note_on_c, 0, 68, 50
1, 174986, Control_c, 0, 64, 86
1, 174987, Note_off_c, 0, 53, 44
1, 174993, Note_off_c, 0, 68, 54
1, 175005, Note_on_c, 0, 73, 66
1, 175016, Control_c, 0, 67, 39
1, 175044, Note_off_c, 0, 73, 61
1, 175075, Control_c, 0, 67, 38
1, 175077, Note_on_c, 0, 68, 68
1, 175082, Note_on_c, 0, 56, 45
1, 175090, Control_c, 0, 64, 86
1, 175090, Control_c, 0, 67, 37
1, 175105, Control_c, 0, 67, 36
1, 175120, Control_c, 0, 67, 35
1, 175122, Note_off_c, 0, 68, 51
1, 175149, Control_c, 0, 64, 87
1, 175152, Note_on_c, 0, 73, 63
1, 175179, Control_c, 0, 67, 36
1, 175181, Note_off_c, 0, 73, 58
1, 175192, Note_on_c, 0, 80, 72
1, 175208, Control_c, 0, 67, 35
1, 175220, Note_on_c, 0, 61, 36
1, 175222, Note_off_c, 0, 80, 59
1, 175223, Control_c, 0, 67, 35
1, 175237, Note_off_c, 0, 56, 36
1, 175238, Control_c, 0, 67, 34
1, 175253, Control_c, 0, 67, 34
1, 175259, Note_on_c, 0, 73, 74
1, 175268, Control_c, 0, 67, 33
1, 175274, Note_off_c, 0, 61, 42
1, 175283, Control_c, 0, 67, 32
1, 175286, Note_off_c, 0, 73, 62
1, 175297, Control_c, 0, 67, 30
1, 175298, Note_on_c, 0, 65, 48
1, 175313, Control_c, 0, 64, 87
1, 175313, Control_c, 0, 67, 38
1, 175318, Note_on_c, 0, 80, 69
1, 175328, Control_c, 0, 67, 34
1, 175329, Note_off_c, 0, 65, 55
1, 175343, Control_c, 0, 64, 88
1, 175343, Control_c, 0, 67, 31
1, 175352, Note_off_c, 0, 80, 57
1, 175357, Control_c, 0, 67, 28
1, 175364, Note_on_c, 0, 85, 73
1, 175372, Control_c, 0, 64, 88
1, 175372, Control_c, 0, 67, 27
1, 175387, Control_c, 0, 67, 26
1, 175402, Control_c, 0, 64, 89
1, 175402, Control_c, 0, 67, 25
1, 175403, Note_off_c, 0, 85, 62
1, 175417, Control_c, 0, 64, 89
1, 175432, Note_on_c, 0, 68, 45
1, 175432, Control_c, 0, 64, 90
1, 175439, Note_on_c, 0, 80, 64
1, 175461, Control_c, 0, 64, 90
1, 175477, Note_off_c, 0, 80, 57
1, 175491, Control_c, 0, 67, 26
1, 175498, Note_on_c, 0, 85, 60
1, 175506, Control_c, 0, 64, 91
1, 175506, Control_c, 0, 67, 27
1, 175521, Control_c, 0, 67, 27
1, 175536, Control_c, 0, 67, 28
1, 175544, Note_off_c, 0, 85, 54
1, 175550, Control_c, 0, 67, 28
1, 175555, Note_on_c, 0, 92, 74
1, 175557, Note_on_c, 0, 73, 38
1, 175559, Note_off_c, 0, 68, 32
1, 175565, Control_c, 0, 67, 29
1, 175580, Control_c, 0, 64, 91
1, 175580, Control_c, 0, 67, 31
1, 175595, Control_c, 0, 67, 31
1, 175602, Note_off_c, 0, 92, 60
1, 175609, Control_c, 0, 67, 32
1, 175614, Note_on_c, 0, 85, 59
1, 175624, Control_c, 0, 67, 32
1, 175648, Note_off_c, 0, 85, 65
1, 175654, Control_c, 0, 67, 33
1, 175660, Note_off_c, 0, 73, 40
1, 175691, Control_c, 0, 67, 33
1, 175696, Note_on_c, 0, 92, 63
1, 175698, Note_on_c, 0, 77, 33
1, 175706, Control_c, 0, 64, 92
1, 175721, Control_c, 0, 67, 34
1, 175744, Note_off_c, 0, 92, 59
1, 175751, Control_c, 0, 67, 34
1, 175758, Note_on_c, 0, 97, 70
1, 175792, Note_off_c, 0, 77, 31
1, 175795, Control_c, 0, 67, 35
1, 175830, Note_off_c, 0, 97, 57
1, 175858, Note_on_c, 0, 92, 53
1, 175870, Control_c, 0, 64, 92
1, 175899, Control_c, 0, 67, 34
1, 175914, Control_c, 0, 64, 93
1, 175914, Control_c, 0, 67, 33
1, 175920, Note_on_c, 0, 85, 54
1, 175929, Control_c, 0, 67, 32
1, 175943, Note_off_c, 0, 92, 46
1, 175944, Control_c, 0, 67, 30
1, 175948, Note_off_c, 0, 85, 53
1, 175958, Control_c, 0, 64, 93
1, 175958, Control_c, 0, 67, 28
1, 175973, Control_c, 0, 67, 27
1, 175988, Control_c, 0, 64, 94
1, 175988, Control_c, 0, 67, 25
1, 176003, Control_c, 0, 67, 24
1, 176017, Control_c, 0, 64, 95
1, 176017, Control_c, 0, 67, 22
1, 176021, Note_on_c, 0, 80, 46
1, 176032, Control_c, 0, 64, 95
1, 176032, Control_c, 0, 67, 17
1, 176077, Control_c, 0, 67, 0
1, 176088, Note_off_c, 0, 80, 57
1, 176116, Note_on_c, 0, 73, 54
1, 176259, Note_off_c, 0, 73, 41
1, 176266, Note_on_c, 0, 68, 49
1, 176381, Note_on_c, 0, 61, 49
1, 176388, Control_c, 0, 64, 95
1, 176436, Note_off_c, 0, 68, 29
1, 176462, Note_off_c, 0, 61, 47
1, 176470, Control_c, 0, 64, 94
1, 176500, Control_c, 0, 67, 16
1, 176514, Control_c, 0, 67, 16
1, 176529, Control_c, 0, 64, 94
1, 176544, Control_c, 0, 64, 93
1, 176558, Control_c, 0, 64, 93
1, 176603, Control_c, 0, 64, 92
1, 176618, Control_c, 0, 64, 92
1, 176618, Control_c, 0, 67, 16
1, 176633, Control_c, 0, 64, 91
1, 176648, Control_c, 0, 64, 89
1, 176657, Note_on_c, 0, 66, 76
1, 176663, Control_c, 0, 64, 86
1, 176678, Control_c, 0, 64, 82
1, 176681, Note_on_c, 0, 45, 41
1, 176693, Control_c, 0, 64, 76
1, 176707, Control_c, 0, 64, 67
1, 176722, Control_c, 0, 64, 60
1, 176737, Control_c, 0, 64, 51
1, 176751, Control_c, 0, 64, 49
1, 176781, Control_c, 0, 64, 51
1, 176796, Control_c, 0, 64, 57
1, 176811, Control_c, 0, 64, 63
1, 176825, Control_c, 0, 64, 66
1, 176840, Control_c, 0, 64, 72
1, 176852, Note_on_c, 0, 72, 44
1, 176855, Control_c, 0, 64, 77
1, 176862, Note_off_c, 0, 66, 58
1, 176870, Control_c, 0, 64, 81
1, 176885, Control_c, 0, 64, 83
1, 176900, Control_c, 0, 64, 83
1, 176906, Note_off_c, 0, 72, 55
1, 176916, Control_c, 0, 64, 84
1, 176925, Note_on_c, 0, 78, 59
1, 176930, Control_c, 0, 64, 86
1, 176937, Note_on_c, 0, 51, 42
1, 176945, Control_c, 0, 64, 87
1, 176945, Control_c, 0, 67, 17
1, 176954, Note_off_c, 0, 78, 64
1, 176960, Control_c, 0, 64, 87
1, 176960, Control_c, 0, 67, 17
1, 176964, Note_off_c, 0, 45, 32
1, 176975, Control_c, 0, 64, 88
1, 176975, Control_c, 0, 67, 18
1, 176989, Control_c, 0, 67, 19
1, 177004, Note_on_c, 0, 78, 60
1, 177004, Control_c, 0, 64, 88
1, 177004, Control_c, 0, 67, 20
1, 177019, Control_c, 0, 67, 21
1, 177034, Control_c, 0, 67, 21
1, 177061, Note_on_c, 0, 60, 54
1, 177062, Note_off_c, 0, 51, 34
1, 177072, Note_off_c, 0, 78, 55
1, 177093, Note_on_c, 0, 84, 53
1, 177131, Note_on_c, 0, 90, 64
1, 177145, Note_off_c, 0, 84, 55
1, 177146, Note_off_c, 0, 60, 0
1, 177152, Control_c, 0, 67, 21
1, 177187, Note_off_c, 0, 90, 63
1, 177219, Control_c, 0, 64, 88
1, 177234, Control_c, 0, 64, 85
1, 177235, Note_on_c, 0, 65, 80
1, 177236, Note_on_c, 0, 89, 75
1, 177249, Control_c, 0, 64, 79
1, 177263, Poly_aftertouch_c, 0, 60, 0
1, 177263, Control_c, 0, 64, 70
1, 177278, Control_c, 0, 64, 60
1, 177293, Control_c, 0, 64, 51
1, 177308, Control_c, 0, 64, 50
1, 177319, Note_on_c, 0, 84, 57
1, 177323, Control_c, 0, 64, 53
1, 177333, Note_off_c, 0, 89, 58
1, 177337, Control_c, 0, 64, 59
1, 177352, Control_c, 0, 64, 63
1, 177367, Control_c, 0, 64, 68
1, 177377, Note_off_c, 0, 84, 59
1, 177381, Control_c, 0, 64, 74
1, 177391, Note_on_c, 0, 77, 62
1, 177396, Control_c, 0, 64, 79
1, 177399, Note_on_c, 0, 60, 52
1, 177411, Control_c, 0, 64, 82
1, 177420, Note_off_c, 0, 77, 63
1, 177426, Control_c, 0, 64, 83
1, 177456, Control_c, 0, 64, 83
1, 177456, Control_c, 0, 67, 20
1, 177503, Note_off_c, 0, 65, 32
1, 177504, Note_on_c, 0, 77, 57
1, 177564, Note_off_c, 0, 77, 54
1, 177567, Note_on_c, 0, 57, 51
1, 177573, Note_on_c, 0, 72, 38
1, 177592, Note_off_c, 0, 57, 62
1, 177596, Note_off_c, 0, 60, 36
1, 177601, Note_off_c, 0, 72, 55
1, 177619, Control_c, 0, 67, 21
1, 177648, Note_on_c, 0, 65, 36
1, 177679, Note_off_c, 0, 65, 51
1, 177709, Control_c, 0, 67, 21
1, 177748, Note_on_c, 0, 60, 71
1, 177753, Control_c, 0, 64, 81
1, 177768, Control_c, 0, 64, 75
1, 177769, Note_on_c, 0, 45, 55
1, 177783, Control_c, 0, 64, 66
1, 177783, Control_c, 0, 67, 22
1, 177798, Control_c, 0, 64, 57
1, 177798, Control_c, 0, 67, 22
1, 177812, Control_c, 0, 64, 52
1, 177827, Control_c, 0, 64, 53
1, 177842, Control_c, 0, 64, 58
1, 177842, Control_c, 0, 67, 23
1, 177857, Control_c, 0, 64, 63
1, 177872, Control_c, 0, 64, 67
1, 177872, Control_c, 0, 67, 23
1, 177886, Control_c, 0, 64, 74
1, 177888, Note_off_c, 0, 60, 52
1, 177890, Note_on_c, 0, 65, 41
1, 177901, Control_c, 0, 64, 80
1, 177916, Control_c, 0, 64, 82
1, 177939, Control_c, 0, 64, 83
1, 177947, Note_off_c, 0, 65, 59
1, 177947, Note_on_c, 0, 72, 59
1, 177970, Note_on_c, 0, 53, 46
1, 177980, Note_off_c, 0, 72, 64
1, 177994, Note_off_c, 0, 45, 30
1, 177998, Control_c, 0, 64, 84
1, 178031, Note_on_c, 0, 72, 46
1, 178105, Note_on_c, 0, 77, 58
1, 178109, Note_off_c, 0, 53, 47
1, 178117, Note_off_c, 0, 72, 33
1, 178129, Note_on_c, 0, 60, 49
1, 178145, Control_c, 0, 67, 24
1, 178159, Control_c, 0, 67, 25
1, 178172, Note_off_c, 0, 77, 54
1, 178174, Control_c, 0, 67, 27
1, 178180, Note_on_c, 0, 84, 61
1, 178187, Note_off_c, 0, 60, 55
1, 178189, Control_c, 0, 67, 31
1, 178204, Control_c, 0, 67, 35
1, 178215, Note_off_c, 0, 84, 60
1, 178219, Control_c, 0, 67, 38
1, 178234, Control_c, 0, 67, 39
1, 178263, Control_c, 0, 67, 38
1, 178278, Control_c, 0, 67, 37
1, 178293, Control_c, 0, 67, 36
1, 178308, Control_c, 0, 64, 82
1, 178308, Control_c, 0, 67, 36
1, 178317, Note_on_c, 0, 87, 69
1, 178317, Note_on_c, 0, 63, 76
1, 178322, Control_c, 0, 64, 79
1, 178337, Control_c, 0, 64, 71
1, 178352, Control_c, 0, 64, 60
1, 178367, Control_c, 0, 64, 50
1, 178382, Control_c, 0, 64, 47
1, 178397, Note_on_c, 0, 82, 55
1, 178411, Control_c, 0, 64, 51
1, 178425, Note_off_c, 0, 87, 55
1, 178426, Control_c, 0, 64, 57
1, 178441, Control_c, 0, 64, 62
1, 178456, Control_c, 0, 64, 66
1, 178470, Control_c, 0, 64, 70
1, 178472, Note_on_c, 0, 75, 61
1, 178472, Note_off_c, 0, 82, 58
1, 178485, Control_c, 0, 64, 74
1, 178501, Control_c, 0, 64, 77
1, 178503, Note_off_c, 0, 75, 65
1, 178516, Control_c, 0, 64, 77
1, 178516, Control_c, 0, 67, 36
1, 178517, Note_off_c, 0, 63, 50
1, 178531, Note_on_c, 0, 54, 40
1, 178531, Control_c, 0, 64, 78
1, 178546, Control_c, 0, 64, 78
1, 178561, Control_c, 0, 64, 79
1, 178590, Control_c, 0, 64, 79
1, 178616, Note_on_c, 0, 75, 50
1, 178642, Note_off_c, 0, 54, 50
1, 178690, Note_on_c, 0, 70, 41
1, 178693, Note_on_c, 0, 46, 48
1, 178752, Note_off_c, 0, 46, 51
1, 178759, Note_off_c, 0, 75, 40
1, 178775, Control_c, 0, 67, 37
1, 178784, Note_on_c, 0, 63, 43
1, 178809, Note_off_c, 0, 70, 35
1, 178822, Note_off_c, 0, 63, 49
1, 178924, Control_c, 0, 64, 79
1, 178939, Control_c, 0, 64, 76
1, 178949, Note_on_c, 0, 61, 57
1, 178953, Control_c, 0, 64, 71
1, 178968, Control_c, 0, 64, 64
1, 178982, Note_on_c, 0, 46, 38
1, 178983, Control_c, 0, 64, 59
1, 178998, Control_c, 0, 64, 54
1, 179013, Control_c, 0, 64, 52
1, 179027, Control_c, 0, 64, 48
1, 179042, Control_c, 0, 64, 46
1, 179072, Control_c, 0, 64, 47
1, 179087, Control_c, 0, 64, 54
1, 179101, Control_c, 0, 64, 61
1, 179116, Control_c, 0, 64, 65
1, 179120, Note_on_c, 0, 65, 36
1, 179131, Control_c, 0, 64, 70
1, 179146, Control_c, 0, 64, 74
1, 179151, Note_off_c, 0, 61, 59
1, 179161, Control_c, 0, 64, 76
1, 179171, Note_off_c, 0, 65, 44
1, 179176, Control_c, 0, 64, 77
1, 179208, Note_on_c, 0, 73, 50
1, 179223, Note_on_c, 0, 53, 35
1, 179235, Note_off_c, 0, 73, 60
1, 179235, Control_c, 0, 64, 77
1, 179282, Note_off_c, 0, 46, 34
1, 179317, Note_on_c, 0, 73, 36
1, 179384, Note_off_c, 0, 73, 42
1, 179384, Control_c, 0, 64, 78
1, 179393, Note_off_c, 0, 53, 39
1, 179414, Control_c, 0, 67, 37
1, 179419, Note_on_c, 0, 61, 40
1, 179429, Note_on_c, 0, 77, 48
1, 179465, Note_off_c, 0, 61, 53
1, 179495, Control_c, 0, 67, 38
1, 179524, Control_c, 0, 67, 38
1, 179539, Control_c, 0, 67, 39
1, 179545, Note_off_c, 0, 77, 36
1, 179546, Note_on_c, 0, 85, 49
1, 179569, Control_c, 0, 67, 39
1, 179577, Note_off_c, 0, 85, 51
1, 179703, Control_c, 0, 64, 77
1, 179718, Control_c, 0, 64, 77
1, 179732, Control_c, 0, 64, 75
1, 179747, Control_c, 0, 64, 74
1, 179762, Control_c, 0, 64, 70
1, 179776, Control_c, 0, 64, 64
1, 179791, Control_c, 0, 64, 58
1, 179792, Note_on_c, 0, 68, 66
1, 179806, Control_c, 0, 64, 54
1, 179806, Control_c, 0, 67, 40
1, 179810, Note_on_c, 0, 65, 51
1, 179816, Note_on_c, 0, 62, 35
1, 179821, Control_c, 0, 64, 53
1, 179821, Control_c, 0, 67, 40
1, 179837, Note_on_c, 0, 59, 38
1, 179850, Control_c, 0, 67, 41
1, 179865, Control_c, 0, 64, 55
1, 179865, Control_c, 0, 67, 41
1, 179880, Control_c, 0, 64, 61
1, 179895, Control_c, 0, 64, 64
1, 179895, Control_c, 0, 67, 42
1, 179909, Control_c, 0, 64, 68
1, 179909, Control_c, 0, 67, 42
1, 179924, Control_c, 0, 64, 73
1, 179924, Control_c, 0, 67, 44
1, 179931, Note_off_c, 0, 65, 49
1, 179939, Control_c, 0, 64, 77
1, 179939, Control_c, 0, 67, 45
1, 179954, Control_c, 0, 64, 78
1, 179954, Control_c, 0, 67, 46
1, 179969, Control_c, 0, 64, 79
1, 179969, Control_c, 0, 67, 46
1, 179971, Note_off_c, 0, 62, 51
1, 179975, Note_on_c, 0, 71, 51
1, 179979, Note_off_c, 0, 59, 53
1, 179983, Control_c, 0, 64, 79
1, 179983, Control_c, 0, 67, 47
1, 179986, Note_off_c, 0, 68, 57
1, 179998, Control_c, 0, 64, 80
1, 180013, Control_c, 0, 64, 80
1, 180013, Control_c, 0, 67, 47
1, 180025, Note_off_c, 0, 71, 56
1, 180028, Control_c, 0, 64, 81
1, 180028, Control_c, 0, 67, 48
1, 180043, Control_c, 0, 67, 48
1, 180056, Note_on_c, 0, 80, 58
1, 180058, Control_c, 0, 64, 81
1, 180073, Control_c, 0, 64, 82
1, 180094, Note_off_c, 0, 80, 57
1, 180113, Note_on_c, 0, 54, 52
1, 180153, Note_on_c, 0, 80, 54
1, 180161, Note_off_c, 0, 54, 59
1, 180214, Control_c, 0, 67, 49
1, 180277, Note_on_c, 0, 83, 57
1, 180288, Control_c, 0, 67, 49
1, 180303, Control_c, 0, 67, 50
1, 180304, Note_off_c, 0, 80, 37
1, 180318, Control_c, 0, 67, 50
1, 180323, Note_on_c, 0, 42, 49
1, 180333, Control_c, 0, 67, 51
1, 180347, Control_c, 0, 67, 54
1, 180362, Note_off_c, 0, 83, 53
1, 180362, Control_c, 0, 67, 57
1, 180375, Note_off_c, 0, 42, 59
1, 180377, Control_c, 0, 67, 60
1, 180382, Note_on_c, 0, 92, 63
1, 180392, Control_c, 0, 67, 63
1, 180400, Note_off_c, 0, 92, 66
1, 180407, Control_c, 0, 67, 64
1, 180422, Control_c, 0, 67, 65
1, 180511, Control_c, 0, 67, 65
1, 180525, Control_c, 0, 67, 64
1, 180540, Control_c, 0, 67, 64
1, 180555, Control_c, 0, 67, 63
1, 180570, Control_c, 0, 64, 81
1, 180585, Control_c, 0, 64, 80
1, 180599, Control_c, 0, 64, 78
1, 180614, Control_c, 0, 64, 74
1, 180629, Note_on_c, 0, 66, 68
1, 180629, Control_c, 0, 64, 68
1, 180641, Note_on_c, 0, 63, 45
1, 180644, Control_c, 0, 64, 63
1, 180659, Control_c, 0, 64, 57
1, 180660, Note_on_c, 0, 58, 41
1, 180673, Control_c, 0, 64, 53
1, 180688, Control_c, 0, 64, 49
1, 180703, Control_c, 0, 64, 46
1, 180747, Control_c, 0, 64, 50
1, 180762, Control_c, 0, 64, 58
1, 180777, Control_c, 0, 64, 63
1, 180789, Note_on_c, 0, 70, 46
1, 180792, Control_c, 0, 64, 68
1, 180806, Control_c, 0, 64, 73
1, 180815, Note_off_c, 0, 66, 55
1, 180821, Control_c, 0, 64, 76
1, 180836, Control_c, 0, 64, 78
1, 180851, Control_c, 0, 64, 79
1, 180851, Control_c, 0, 67, 63
1, 180866, Control_c, 0, 64, 80
1, 180881, Control_c, 0, 64, 81
1, 180881, Control_c, 0, 67, 62
1, 180895, Note_off_c, 0, 63, 41
1, 180896, Note_on_c, 0, 78, 53
1, 180896, Control_c, 0, 64, 82
1, 180896, Control_c, 0, 67, 62
1, 180897, Note_off_c, 0, 70, 43
1, 180911, Control_c, 0, 64, 82
1, 180912, Note_on_c, 0, 54, 51
1, 180934, Control_c, 0, 67, 61
1, 180939, Note_off_c, 0, 58, 40
1, 180948, Control_c, 0, 64, 83
1, 180953, Note_off_c, 0, 78, 57
1, 180954, Note_off_c, 0, 54, 64
1, 180993, Control_c, 0, 67, 61
1, 181037, Control_c, 0, 67, 60
1, 181039, Note_on_c, 0, 78, 37
1, 181052, Control_c, 0, 67, 60
1, 181082, Control_c, 0, 67, 59
1, 181094, Note_off_c, 0, 78, 39
1, 181096, Control_c, 0, 67, 59
1, 181126, Control_c, 0, 67, 58
1, 181185, Control_c, 0, 67, 58
1, 181190, Note_on_c, 0, 82, 47
1, 181215, Control_c, 0, 67, 57
1, 181216, Note_on_c, 0, 42, 29
1, 181257, Note_off_c, 0, 82, 36
1, 181367, Note_off_c, 0, 42, 35
1, 181376, Note_on_c, 0, 90, 33
1, 181413, Note_off_c, 0, 90, 53
1, 181422, Control_c, 0, 67, 58
1, 181466, Control_c, 0, 67, 58
1, 181727, Control_c, 0, 67, 59
1, 181757, Control_c, 0, 64, 82
1, 181772, Control_c, 0, 64, 82
1, 181786, Control_c, 0, 64, 81
1, 181801, Note_on_c, 0, 56, 69
1, 181801, Control_c, 0, 64, 80
1, 181802, Note_on_c, 0, 53, 41
1, 181816, Control_c, 0, 64, 76
1, 181832, Control_c, 0, 64, 70
1, 181832, Control_c, 0, 67, 59
1, 181835, Note_on_c, 0, 44, 34
1, 181847, Control_c, 0, 64, 63
1, 181861, Control_c, 0, 64, 55
1, 181876, Control_c, 0, 64, 49
1, 181876, Control_c, 0, 67, 60
1, 181891, Control_c, 0, 64, 49
1, 181921, Control_c, 0, 64, 52
1, 181921, Control_c, 0, 67, 60
1, 181935, Control_c, 0, 64, 58
1, 181935, Control_c, 0, 67, 61
1, 181950, Control_c, 0, 64, 62
1, 181965, Control_c, 0, 64, 66
1, 181965, Control_c, 0, 67, 61
1, 181979, Control_c, 0, 64, 71
1, 181979, Control_c, 0, 67, 62
1, 181994, Control_c, 0, 64, 76
1, 181994, Control_c, 0, 67, 62
1, 182009, Control_c, 0, 64, 79
1, 182009, Control_c, 0, 67, 63
1, 182024, Control_c, 0, 64, 80
1, 182024, Control_c, 0, 67, 63
1, 182028, Note_off_c, 0, 53, 51
1, 182039, Control_c, 0, 64, 81
1, 182039, Control_c, 0, 67, 64
1, 182053, Control_c, 0, 64, 82
1, 182060, Note_on_c, 0, 61, 31
1, 182068, Control_c, 0, 64, 83
1, 182068, Control_c, 0, 67, 64
1, 182080, Note_off_c, 0, 56, 57
1, 182083, Control_c, 0, 64, 84
1, 182083, Control_c, 0, 67, 65
1, 182097, Control_c, 0, 64, 85
1, 182097, Control_c, 0, 67, 65
1, 182111, Note_off_c, 0, 44, 39
1, 182112, Control_c, 0, 67, 66
1, 182127, Control_c, 0, 64, 86
1, 182127, Control_c, 0, 67, 66
1, 182136, Note_off_c, 0, 61, 35
1, 182142, Control_c, 0, 67, 67
1, 182157, Note_on_c, 0, 68, 47
1, 182157, Control_c, 0, 67, 68
1, 182171, Control_c, 0, 67, 71
1, 182183, Note_off_c, 0, 68, 55
1, 182186, Control_c, 0, 67, 73
1, 182201, Control_c, 0, 67, 75
1, 182216, Control_c, 0, 67, 76
1, 182231, Control_c, 0, 67, 77
1, 182246, Control_c, 0, 67, 79
1, 182261, Control_c, 0, 67, 80
1, 182276, Control_c, 0, 67, 82
1, 182291, Control_c, 0, 67, 83
1, 182294, Note_on_c, 0, 68, 39
1, 182305, Control_c, 0, 67, 84
1, 182320, Control_c, 0, 67, 85
1, 182326, Note_on_c, 0, 32, 39
1, 182335, Control_c, 0, 67, 85
1, 182341, Note_off_c, 0, 68, 42
1, 182386, Note_off_c, 0, 32, 42
1, 182431, Control_c, 0, 67, 84
1, 182434, Note_on_c, 0, 73, 34
1, 182446, Control_c, 0, 67, 83
1, 182461, Control_c, 0, 67, 82
1, 182475, Control_c, 0, 67, 81
1, 182490, Control_c, 0, 67, 80
1, 182506, Control_c, 0, 67, 80
1, 182513, Note_off_c, 0, 73, 33
1, 182521, Control_c, 0, 67, 79
1, 182550, Note_on_c, 0, 80, 46
1, 182550, Control_c, 0, 67, 79
1, 182575, Note_off_c, 0, 80, 56
1, 182609, Control_c, 0, 67, 78
1, 182654, Control_c, 0, 67, 78
1, 182742, Control_c, 0, 64, 85
1, 182800, Note_on_c, 0, 55, 74
1, 182801, Control_c, 0, 64, 85
1, 182801, Control_c, 0, 67, 77
1, 182807, Note_on_c, 0, 52, 47
1, 182809, Note_on_c, 0, 44, 42
1, 182816, Control_c, 0, 64, 84
1, 182831, Control_c, 0, 64, 82
1, 182846, Control_c, 0, 64, 78
1, 182861, Control_c, 0, 64, 72
1, 182875, Control_c, 0, 64, 64
1, 182875, Control_c, 0, 67, 77
1, 182890, Control_c, 0, 64, 57
1, 182905, Control_c, 0, 64, 50
1, 182920, Control_c, 0, 64, 48
1, 182949, Control_c, 0, 64, 49
1, 182964, Control_c, 0, 64, 54
1, 182979, Control_c, 0, 64, 59
1, 182994, Control_c, 0, 64, 63
1, 182996, Note_on_c, 0, 61, 40
1, 183009, Control_c, 0, 64, 67
1, 183024, Control_c, 0, 64, 71
1, 183039, Control_c, 0, 64, 75
1, 183054, Control_c, 0, 64, 77
1, 183054, Control_c, 0, 67, 76
1, 183065, Note_off_c, 0, 44, 39
1, 183068, Control_c, 0, 64, 77
1, 183083, Control_c, 0, 64, 78
1, 183098, Control_c, 0, 64, 79
1, 183112, Control_c, 0, 64, 80
1, 183112, Control_c, 0, 67, 76
1, 183123, Note_on_c, 0, 67, 51
1, 183127, Control_c, 0, 64, 80
1, 183127, Control_c, 0, 67, 75
1, 183137, Note_off_c, 0, 61, 39
1, 183142, Control_c, 0, 67, 73
1, 183156, Note_off_c, 0, 55, 36
1, 183157, Control_c, 0, 64, 81
1, 183157, Control_c, 0, 67, 71
1, 183179, Control_c, 0, 64, 81
1, 183179, Control_c, 0, 67, 66
1, 183194, Control_c, 0, 67, 59
1, 183209, Control_c, 0, 67, 51
1, 183224, Control_c, 0, 67, 45
1, 183239, Control_c, 0, 67, 41
1, 183253, Control_c, 0, 67, 40
1, 183268, Note_off_c, 0, 67, 43
1, 183343, Control_c, 0, 67, 41
1, 183346, Note_on_c, 0, 56, 71
1, 183352, Note_on_c, 0, 44, 37
1, 183358, Control_c, 0, 64, 80
1, 183358, Control_c, 0, 67, 43
1, 183369, Note_on_c, 0, 53, 40
1, 183373, Control_c, 0, 64, 78
1, 183373, Control_c, 0, 67, 44
1, 183388, Control_c, 0, 64, 74
1, 183388, Control_c, 0, 67, 46
1, 183403, Control_c, 0, 64, 67
1, 183403, Control_c, 0, 67, 47
1, 183417, Control_c, 0, 64, 61
1, 183417, Control_c, 0, 67, 47
1, 183432, Control_c, 0, 64, 54
1, 183447, Control_c, 0, 64, 48
1, 183447, Control_c, 0, 67, 48
1, 183462, Control_c, 0, 64, 47
1, 183462, Control_c, 0, 67, 48
1, 183470, Note_off_c, 0, 52, 36
1, 183477, Control_c, 0, 64, 46
1, 183477, Control_c, 0, 67, 49
1, 183506, Control_c, 0, 67, 49
1, 183565, Control_c, 0, 64, 48
1, 183569, Note_on_c, 0, 61, 38
1, 183580, Control_c, 0, 64, 52
1, 183595, Control_c, 0, 64, 55
1, 183610, Control_c, 0, 64, 58
1, 183624, Control_c, 0, 64, 60
1, 183639, Control_c, 0, 64, 61
1, 183654, Control_c, 0, 64, 62
1, 183668, Control_c, 0, 64, 64
1, 183678, Note_off_c, 0, 44, 48
1, 183683, Control_c, 0, 64, 66
1, 183683, Control_c, 0, 67, 50
1, 183698, Control_c, 0, 64, 69
1, 183713, Control_c, 0, 64, 72
1, 183713, Control_c, 0, 67, 50
1, 183728, Control_c, 0, 64, 75
1, 183742, Control_c, 0, 64, 77
1, 183742, Control_c, 0, 67, 51
1, 183757, Control_c, 0, 64, 79
1, 183757, Control_c, 0, 67, 51
1, 183763, Note_on_c, 0, 68, 44
1, 183772, Control_c, 0, 64, 80
1, 183787, Control_c, 0, 64, 82
1, 183802, Control_c, 0, 64, 84
1, 183802, Control_c, 0, 67, 52
1, 183805, Note_off_c, 0, 56, 57
1, 183810, Note_on_c, 0, 44, 46
1, 183817, Control_c, 0, 64, 85
1, 183817, Control_c, 0, 67, 56
1, 183832, Control_c, 0, 64, 86
1, 183832, Control_c, 0, 67, 63
1, 183841, Note_off_c, 0, 61, 36
1, 183847, Control_c, 0, 64, 87
1, 183847, Control_c, 0, 67, 71
1, 183862, Control_c, 0, 64, 87
1, 183862, Control_c, 0, 67, 78
1, 183876, Control_c, 0, 64, 88
1, 183876, Control_c, 0, 67, 83
1, 183891, Control_c, 0, 67, 87
1, 183906, Control_c, 0, 64, 88
1, 183906, Control_c, 0, 67, 89
1, 183918, Note_off_c, 0, 68, 44
1, 183928, Control_c, 0, 67, 90
1, 183942, Note_off_c, 0, 53, 36
1, 183972, Control_c, 0, 67, 89
1, 183978, Note_on_c, 0, 54, 44
1, 183987, Control_c, 0, 67, 89
1, 184002, Control_c, 0, 67, 88
1, 184013, Note_off_c, 0, 44, 33
1, 184017, Control_c, 0, 67, 88
1, 184032, Control_c, 0, 67, 87
1, 184046, Control_c, 0, 67, 86
1, 184151, Control_c, 0, 67, 86
1, 184166, Control_c, 0, 64, 88
1, 184166, Control_c, 0, 67, 85
1, 184181, Control_c, 0, 67, 85
1, 184195, Control_c, 0, 64, 87
1, 184210, Control_c, 0, 64, 86
1, 184210, Control_c, 0, 67, 84
1, 184225, Control_c, 0, 64, 84
1, 184225, Control_c, 0, 67, 84
1, 184234, Note_on_c, 0, 65, 66
1, 184240, Control_c, 0, 64, 81
1, 184255, Control_c, 0, 64, 75
1, 184260, Note_on_c, 0, 60, 42
1, 184270, Control_c, 0, 64, 65
1, 184285, Control_c, 0, 64, 56
1, 184299, Control_c, 0, 64, 48
1, 184314, Control_c, 0, 64, 47
1, 184344, Control_c, 0, 64, 48
1, 184359, Control_c, 0, 64, 55
1, 184373, Control_c, 0, 64, 61
1, 184373, Control_c, 0, 67, 83
1, 184388, Control_c, 0, 64, 65
1, 184403, Control_c, 0, 64, 69
1, 184413, Note_off_c, 0, 54, 44
1, 184418, Control_c, 0, 64, 74
1, 184428, Note_off_c, 0, 60, 55
1, 184433, Control_c, 0, 64, 77
1, 184447, Control_c, 0, 64, 79
1, 184462, Control_c, 0, 64, 80
1, 184477, Control_c, 0, 64, 81
1, 184491, Control_c, 0, 64, 82
1, 184506, Control_c, 0, 64, 84
1, 184509, Note_on_c, 0, 68, 29
1, 184521, Control_c, 0, 64, 85
1, 184536, Control_c, 0, 64, 86
1, 184551, Control_c, 0, 64, 87
1, 184554, Note_off_c, 0, 68, 38
1, 184566, Control_c, 0, 64, 88
1, 184580, Control_c, 0, 64, 89
1, 184595, Control_c, 0, 64, 91
1, 184601, Note_on_c, 0, 68, 27
1, 184610, Control_c, 0, 64, 92
1, 184616, Note_off_c, 0, 65, 40
1, 184625, Control_c, 0, 64, 94
1, 184635, Note_off_c, 0, 68, 44
1, 184636, Note_on_c, 0, 77, 54
1, 184640, Control_c, 0, 64, 95
1, 184655, Control_c, 0, 64, 95
1, 184677, Control_c, 0, 64, 96
1, 184677, Control_c, 0, 67, 84
1, 184692, Control_c, 0, 64, 98
1, 184693, Note_off_c, 0, 77, 54
1, 184706, Control_c, 0, 64, 99
1, 184706, Control_c, 0, 67, 84
1, 184721, Control_c, 0, 64, 100
1, 184721, Control_c, 0, 67, 85
1, 184736, Control_c, 0, 67, 85
1, 184740, Note_on_c, 0, 68, 55
1, 184751, Control_c, 0, 64, 101
1, 184751, Control_c, 0, 67, 86
1, 184766, Control_c, 0, 67, 88
1, 184780, Control_c, 0, 64, 102
1, 184780, Control_c, 0, 67, 90
1, 184791, Note_on_c, 0, 77, 45
1, 184792, Note_off_c, 0, 68, 56
1, 184795, Control_c, 0, 64, 102
1, 184795, Control_c, 0, 67, 92
1, 184810, Control_c, 0, 64, 103
1, 184810, Control_c, 0, 67, 95
1, 184812, Note_off_c, 0, 77, 0
1, 184825, Control_c, 0, 64, 103
1, 184825, Control_c, 0, 67, 101
1, 184836, Note_on_c, 0, 77, 45
1, 184840, Control_c, 0, 67, 105
1, 184854, Control_c, 0, 67, 108
1, 184869, Control_c, 0, 64, 104
1, 184869, Control_c, 0, 67, 111
1, 184884, Control_c, 0, 64, 105
1, 184884, Control_c, 0, 67, 112
1, 184900, Control_c, 0, 64, 106
1, 184900, Control_c, 0, 67, 113
1, 184906, Note_on_c, 0, 80, 55
1, 184911, Note_off_c, 0, 77, 57
1, 184914, Control_c, 0, 64, 107
1, 184929, Control_c, 0, 64, 108
1, 184934, Note_off_c, 0, 80, 63
1, 184944, Control_c, 0, 64, 110
1, 184944, Control_c, 0, 67, 113
1, 184953, Note_on_c, 0, 89, 59
1, 184959, Control_c, 0, 64, 113
1, 184959, Control_c, 0, 67, 114
1, 184974, Control_c, 0, 64, 116
1, 184974, Control_c, 0, 67, 116
1, 184982, Note_off_c, 0, 89, 64
1, 184988, Control_c, 0, 64, 118
1, 184988, Control_c, 0, 67, 118
1, 185003, Control_c, 0, 64, 119
1, 185003, Control_c, 0, 67, 120
1, 185018, Control_c, 0, 64, 122
1, 185018, Control_c, 0, 67, 120
1, 185031, Note_on_c, 0, 80, 44
1, 185033, Control_c, 0, 64, 127
1, 185078, Control_c, 0, 67, 121
1, 185093, Control_c, 0, 67, 122
1, 185093, Note_off_c, 0, 80, 0
1, 185098, Note_on_c, 0, 89, 62
1, 185108, Control_c, 0, 67, 123
1, 185122, Note_off_c, 0, 89, 56
1, 185130, Poly_aftertouch_c, 0, 80, 127
1, 185165, Poly_aftertouch_c, 0, 80, 0
1, 185180, Note_on_c, 0, 89, 54
1, 185234, Note_on_c, 0, 92, 56
1, 185240, Note_off_c, 0, 89, 48
1, 185269, Note_off_c, 0, 92, 63
1, 185270, Control_c, 0, 67, 122
1, 185288, Note_on_c, 0, 101, 61
1, 185336, Note_off_c, 0, 101, 42
1, 185361, Note_on_c, 0, 92, 59
1, 185405, Note_off_c, 0, 92, 56
1, 185436, Note_on_c, 0, 89, 50
1, 185455, Control_c, 0, 67, 122
1, 185457, Note_off_c, 0, 89, 61
1, 185470, Control_c, 0, 67, 121
1, 185515, Control_c, 0, 67, 121
1, 185529, Control_c, 0, 67, 120
1, 185534, Note_on_c, 0, 89, 66
1, 185544, Control_c, 0, 67, 119
1, 185559, Control_c, 0, 67, 118
1, 185573, Control_c, 0, 67, 117
1, 185588, Control_c, 0, 67, 117
1, 185602, Control_c, 0, 67, 116
1, 185606, Note_off_c, 0, 89, 50
1, 185617, Control_c, 0, 67, 116
1, 185620, Note_on_c, 0, 80, 46
1, 185632, Control_c, 0, 67, 115
1, 185644, Note_off_c, 0, 80, 54
1, 185647, Control_c, 0, 67, 115
1, 185662, Control_c, 0, 67, 114
1, 185677, Control_c, 0, 67, 114
1, 185712, Note_on_c, 0, 80, 48
1, 185737, Control_c, 0, 67, 113
1, 185779, Note_off_c, 0, 80, 58
1, 185796, Note_on_c, 0, 77, 57
1, 185826, Control_c, 0, 67, 113
1, 185829, Note_off_c, 0, 77, 61
1, 185911, Note_on_c, 0, 77, 52
1, 185930, Control_c, 0, 64, 123
1, 185944, Control_c, 0, 64, 122
1, 185974, Control_c, 0, 64, 121
1, 185989, Control_c, 0, 64, 120
1, 186004, Control_c, 0, 64, 118
1, 186014, Note_on_c, 0, 68, 47
1, 186018, Control_c, 0, 64, 117
1, 186027, Note_off_c, 0, 77, 34
1, 186033, Control_c, 0, 64, 116
1, 186048, Note_off_c, 0, 68, 60
1, 186048, Control_c, 0, 64, 116
1, 186062, Control_c, 0, 64, 115
1, 186077, Control_c, 0, 64, 114
1, 186092, Control_c, 0, 64, 113
1, 186107, Control_c, 0, 64, 113
1, 186139, Note_on_c, 0, 68, 48
1, 186189, Control_c, 0, 64, 112
1, 186204, Control_c, 0, 64, 112
1, 186218, Control_c, 0, 64, 111
1, 186235, Note_on_c, 0, 65, 52
1, 186246, Note_off_c, 0, 68, 34
1, 186271, Note_off_c, 0, 65, 61
1, 186337, Control_c, 0, 64, 111
1, 186419, Note_on_c, 0, 80, 48
1, 186500, Note_off_c, 0, 80, 35
1, 186608, Note_on_c, 0, 77, 62
1, 186643, Note_off_c, 0, 77, 57
1, 186767, Control_c, 0, 67, 113
1, 186823, Note_on_c, 0, 92, 72
1, 186871, Control_c, 0, 67, 112
1, 186885, Control_c, 0, 67, 110
1, 186900, Control_c, 0, 67, 107
1, 186923, Control_c, 0, 67, 100
1, 186938, Control_c, 0, 67, 89
1, 186953, Control_c, 0, 67, 72
1, 186967, Control_c, 0, 67, 57
1, 186982, Control_c, 0, 67, 44
1, 186991, Note_off_c, 0, 92, 32
1, 186997, Control_c, 0, 64, 111
1, 186997, Control_c, 0, 67, 35
1, 187012, Control_c, 0, 64, 112
1, 187012, Control_c, 0, 67, 22
1, 187027, Control_c, 0, 64, 113
1, 187041, Control_c, 0, 64, 113
1, 187041, Control_c, 0, 67, 0
1, 187056, Control_c, 0, 64, 114
1, 187086, Control_c, 0, 64, 114
1, 187115, Control_c, 0, 64, 115
1, 187119, Note_on_c, 0, 89, 66
1, 187130, Control_c, 0, 64, 116
1, 187225, Note_off_c, 0, 89, 56
1, 187694, Note_on_c, 0, 104, 72
1, 187925, Note_off_c, 0, 104, 45
1, 188399, Control_c, 0, 64, 115
1, 188450, Control_c, 0, 64, 115
1, 188479, Control_c, 0, 64, 114
1, 188509, Control_c, 0, 64, 114
1, 188539, Control_c, 0, 64, 113
1, 188554, Control_c, 0, 64, 113
1, 188583, Control_c, 0, 64, 112
1, 188598, Control_c, 0, 64, 111
1, 188613, Control_c, 0, 64, 110
1, 188628, Control_c, 0, 64, 109
1, 188643, Control_c, 0, 64, 108
1, 188657, Control_c, 0, 64, 108
1, 188687, Control_c, 0, 64, 107
1, 188702, Control_c, 0, 64, 107
1, 188717, Control_c, 0, 64, 106
1, 188761, Control_c, 0, 64, 106
1, 188805, Control_c, 0, 64, 105
1, 188864, Control_c, 0, 64, 105
1, 188895, Control_c, 0, 64, 104
1, 188925, Control_c, 0, 64, 104
1, 188955, Control_c, 0, 64, 103
1, 188969, Control_c, 0, 64, 103
1, 188999, Control_c, 0, 64, 102
1, 189029, Control_c, 0, 64, 102
1, 189073, Control_c, 0, 64, 101
1, 189087, Control_c, 0, 64, 101
1, 189132, Control_c, 0, 64, 100
1, 189273, Control_c, 0, 64, 100
1, 189376, Control_c, 0, 64, 99
1, 189451, Control_c, 0, 64, 99
1, 189481, Control_c, 0, 64, 98
1, 189510, Control_c, 0, 64, 98
1, 189540, Control_c, 0, 64, 97
1, 189555, Control_c, 0, 64, 97
1, 189599, Control_c, 0, 64, 96
1, 189643, Control_c, 0, 64, 96
1, 189689, Control_c, 0, 64, 95
1, 189733, Control_c, 0, 64, 95
1, 189763, Control_c, 0, 64, 94
1, 189792, Control_c, 0, 64, 94
1, 189807, Control_c, 0, 64, 93
1, 189836, Control_c, 0, 64, 93
1, 189851, Control_c, 0, 64, 92
1, 189881, Control_c, 0, 64, 92
1, 189889, Note_on_c, 0, 65, 45
1, 189896, Control_c, 0, 64, 91
1, 189901, Note_on_c, 0, 60, 33
1, 189912, Note_on_c, 0, 44, 37
1, 189918, Control_c, 0, 64, 91
1, 189919, Note_on_c, 0, 54, 35
1, 189928, Note_on_c, 0, 32, 35
1, 189948, Control_c, 0, 64, 90
1, 189963, Control_c, 0, 64, 89
1, 189978, Control_c, 0, 64, 88
1, 189992, Control_c, 0, 64, 87
1, 190007, Control_c, 0, 64, 85
1, 190022, Control_c, 0, 64, 83
1, 190036, Control_c, 0, 64, 80
1, 190051, Control_c, 0, 64, 76
1, 190066, Control_c, 0, 64, 71
1, 190081, Control_c, 0, 64, 67
1, 190096, Control_c, 0, 64, 66
1, 190110, Control_c, 0, 64, 65
1, 190125, Control_c, 0, 64, 64
1, 190140, Control_c, 0, 64, 63
1, 190155, Control_c, 0, 64, 62
1, 190170, Control_c, 0, 64, 60
1, 190184, Control_c, 0, 64, 57
1, 190199, Control_c, 0, 64, 55
1, 190214, Control_c, 0, 64, 53
1, 190229, Control_c, 0, 64, 51
1, 190244, Control_c, 0, 64, 49
1, 190259, Control_c, 0, 64, 46
1, 190274, Control_c, 0, 64, 50
1, 190288, Control_c, 0, 64, 46
1, 190303, Control_c, 0, 64, 44
1, 190318, Control_c, 0, 64, 43
1, 190333, Control_c, 0, 64, 41
1, 190348, Control_c, 0, 64, 36
1, 190363, Control_c, 0, 64, 30
1, 190378, Control_c, 0, 64, 23
1, 190392, Control_c, 0, 64, 20
1, 190407, Control_c, 0, 64, 19
1, 190422, Control_c, 0, 64, 16
1, 190436, Control_c, 0, 64, 0
1, 190712, Control_c, 0, 64, 18
1, 190727, Control_c, 0, 64, 34
1, 190741, Control_c, 0, 64, 45
1, 190756, Control_c, 0, 64, 51
1, 190771, Control_c, 0, 64, 54
1, 190786, Control_c, 0, 64, 54
1, 190830, Control_c, 0, 64, 55
1, 190845, Control_c, 0, 64, 55
1, 190859, Control_c, 0, 64, 56
1, 190874, Control_c, 0, 64, 56
1, 190889, Control_c, 0, 64, 57
1, 190904, Control_c, 0, 64, 57
1, 190919, Control_c, 0, 64, 58
1, 190933, Control_c, 0, 64, 59
1, 190948, Control_c, 0, 64, 59
1, 190963, Control_c, 0, 64, 61
1, 190978, Control_c, 0, 64, 63
1, 190992, Control_c, 0, 64, 65
1, 191007, Control_c, 0, 64, 66
1, 191022, Control_c, 0, 64, 67
1, 191037, Control_c, 0, 64, 68
1, 191052, Control_c, 0, 64, 70
1, 191066, Control_c, 0, 64, 71
1, 191081, Control_c, 0, 64, 73
1, 191096, Control_c, 0, 64, 74
1, 191111, Control_c, 0, 64, 75
1, 191126, Control_c, 0, 64, 76
1, 191141, Control_c, 0, 64, 77
1, 191156, Control_c, 0, 64, 77
1, 191171, Control_c, 0, 64, 78
1, 191185, Control_c, 0, 64, 79
1, 191200, Control_c, 0, 64, 80
1, 191215, Control_c, 0, 64, 81
1, 191230, Control_c, 0, 64, 82
1, 191245, Control_c, 0, 64, 84
1, 191259, Control_c, 0, 64, 86
1, 191274, Control_c, 0, 64, 88
1, 191290, Control_c, 0, 64, 91
1, 191305, Control_c, 0, 64, 94
1, 191320, Control_c, 0, 64, 96
1, 191335, Control_c, 0, 64, 99
1, 191349, Control_c, 0, 64, 101
1, 191364, Control_c, 0, 64, 103
1, 191379, Control_c, 0, 64, 105
1, 191394, Control_c, 0, 64, 109
1, 191415, Control_c, 0, 64, 115
1, 191430, Control_c, 0, 64, 127
1, 192110, Note_on_c, 0, 63, 31
1, 192376, Note_off_c, 0, 65, 34
1, 192654, Control_c, 0, 67, 16
1, 192669, Control_c, 0, 64, 123
1, 192669, Control_c, 0, 67, 19
1, 192684, Control_c, 0, 64, 121
1, 192684, Control_c, 0, 67, 23
1, 192699, Control_c, 0, 64, 119
1, 192699, Control_c, 0, 67, 26
1, 192713, Control_c, 0, 64, 118
1, 192713, Control_c, 0, 67, 30
1, 192728, Control_c, 0, 64, 118
1, 192728, Control_c, 0, 67, 32
1, 192733, Note_off_c, 0, 32, 35
1, 192743, Control_c, 0, 64, 117
1, 192743, Control_c, 0, 67, 35
1, 192757, Control_c, 0, 67, 37
1, 192772, Control_c, 0, 64, 117
1, 192772, Control_c, 0, 67, 38
1, 192787, Control_c, 0, 67, 39
1, 192817, Control_c, 0, 64, 116
1, 192861, Control_c, 0, 67, 38
1, 192892, Control_c, 0, 64, 116
1, 192915, Control_c, 0, 67, 38
1, 192944, Control_c, 0, 64, 115
1, 192959, Control_c, 0, 64, 115
1, 192974, Control_c, 0, 64, 114
1, 193004, Control_c, 0, 64, 114
1, 193018, Control_c, 0, 64, 113
1, 193033, Control_c, 0, 64, 113
1, 193048, Control_c, 0, 64, 112
1, 193048, Control_c, 0, 67, 39
1, 193061, Control_c, 0, 64, 111
1, 193061, Control_c, 0, 67, 40
1, 193076, Control_c, 0, 64, 111
1, 193076, Control_c, 0, 67, 43
1, 193091, Control_c, 0, 67, 48
1, 193106, Control_c, 0, 64, 110
1, 193106, Control_c, 0, 67, 52
1, 193121, Control_c, 0, 67, 55
1, 193135, Control_c, 0, 64, 110
1, 193135, Control_c, 0, 67, 55
1, 193180, Control_c, 0, 64, 109
1, 193210, Control_c, 0, 64, 109
1, 193240, Control_c, 0, 67, 55
1, 193254, Control_c, 0, 64, 108
1, 193254, Control_c, 0, 67, 54
1, 193269, Control_c, 0, 67, 53
1, 193314, Control_c, 0, 64, 108
1, 193358, Control_c, 0, 64, 107
1, 193372, Control_c, 0, 64, 107
1, 193372, Control_c, 0, 67, 53
1, 193387, Control_c, 0, 64, 106
1, 193402, Control_c, 0, 64, 106
1, 193432, Control_c, 0, 64, 105
1, 193446, Control_c, 0, 64, 105
1, 193461, Control_c, 0, 64, 104
1, 193461, Control_c, 0, 67, 54
1, 193491, Control_c, 0, 64, 104
1, 193491, Control_c, 0, 67, 54
1, 193506, Control_c, 0, 64, 103
1, 193506, Control_c, 0, 67, 55
1, 193520, Control_c, 0, 64, 103
1, 193535, Control_c, 0, 67, 55
1, 193550, Control_c, 0, 64, 102
1, 193565, Control_c, 0, 64, 102
1, 193579, Control_c, 0, 64, 101
1, 193594, Control_c, 0, 64, 101
1, 193609, Control_c, 0, 64, 100
1, 193624, Control_c, 0, 64, 100
1, 193639, Control_c, 0, 64, 99
1, 193661, Control_c, 0, 64, 98
1, 193672, Note_on_c, 0, 37, 35
1, 193676, Control_c, 0, 64, 97
1, 193692, Control_c, 0, 64, 95
1, 193692, Control_c, 0, 67, 56
1, 193707, Control_c, 0, 64, 92
1, 193722, Control_c, 0, 64, 89
1, 193737, Control_c, 0, 64, 85
1, 193737, Control_c, 0, 67, 56
1, 193752, Control_c, 0, 64, 78
1, 193766, Control_c, 0, 64, 73
1, 193776, Note_off_c, 0, 60, 39
1, 193781, Control_c, 0, 64, 69
1, 193787, Note_off_c, 0, 44, 36
1, 193796, Control_c, 0, 64, 67
1, 193796, Control_c, 0, 67, 57
1, 193809, Note_off_c, 0, 54, 44
1, 193810, Control_c, 0, 64, 66
1, 193825, Control_c, 0, 64, 64
1, 193825, Control_c, 0, 67, 58
1, 193840, Control_c, 0, 64, 62
1, 193840, Control_c, 0, 67, 59
1, 193855, Control_c, 0, 64, 60
1, 193855, Control_c, 0, 67, 60
1, 193870, Control_c, 0, 64, 58
1, 193870, Control_c, 0, 67, 62
1, 193884, Control_c, 0, 64, 57
1, 193884, Control_c, 0, 67, 63
1, 193899, Control_c, 0, 64, 55
1, 193899, Control_c, 0, 67, 64
1, 193914, Control_c, 0, 64, 55
1, 193914, Control_c, 0, 67, 65
1, 193929, Control_c, 0, 64, 54
1, 193929, Control_c, 0, 67, 65
1, 193944, Control_c, 0, 67, 66
1, 193958, Control_c, 0, 67, 66
1, 193973, Control_c, 0, 64, 55
1, 193988, Control_c, 0, 64, 57
1, 194003, Control_c, 0, 64, 61
1, 194018, Control_c, 0, 64, 63
1, 194032, Control_c, 0, 64, 65
1, 194047, Control_c, 0, 64, 67
1, 194062, Control_c, 0, 64, 69
1, 194062, Control_c, 0, 67, 67
1, 194077, Control_c, 0, 64, 72
1, 194092, Control_c, 0, 64, 75
1, 194107, Control_c, 0, 64, 78
1, 194122, Control_c, 0, 64, 79
1, 194127, Note_off_c, 0, 63, 35
1, 194137, Control_c, 0, 64, 80
1, 194151, Control_c, 0, 64, 82
1, 194166, Control_c, 0, 64, 83
1, 194181, Control_c, 0, 64, 85
1, 194184, Note_on_c, 0, 44, 28
1, 194195, Control_c, 0, 64, 86
1, 194195, Control_c, 0, 67, 67
1, 194210, Control_c, 0, 64, 87
1, 194210, Control_c, 0, 67, 68
1, 194213, Note_off_c, 0, 37, 48
1, 194225, Control_c, 0, 64, 89
1, 194225, Control_c, 0, 67, 69
1, 194240, Control_c, 0, 64, 90
1, 194240, Control_c, 0, 67, 72
1, 194255, Control_c, 0, 64, 91
1, 194255, Control_c, 0, 67, 74
1, 194269, Control_c, 0, 64, 92
1, 194269, Control_c, 0, 67, 76
1, 194284, Control_c, 0, 64, 93
1, 194284, Control_c, 0, 67, 78
1, 194299, Control_c, 0, 64, 94
1, 194299, Control_c, 0, 67, 79
1, 194314, Control_c, 0, 64, 95
1, 194314, Control_c, 0, 67, 81
1, 194328, Control_c, 0, 64, 95
1, 194328, Control_c, 0, 67, 84
1, 194332, Note_off_c, 0, 44, 33
1, 194343, Control_c, 0, 64, 96
1, 194343, Control_c, 0, 67, 86
1, 194358, Control_c, 0, 64, 96
1, 194358, Control_c, 0, 67, 88
1, 194373, Control_c, 0, 64, 97
1, 194373, Control_c, 0, 67, 90
1, 194388, Control_c, 0, 64, 97
1, 194388, Control_c, 0, 67, 92
1, 194410, Control_c, 0, 67, 94
1, 194423, Note_on_c, 0, 49, 23
1, 194425, Control_c, 0, 64, 98
1, 194425, Control_c, 0, 67, 96
1, 194440, Control_c, 0, 64, 98
1, 194440, Control_c, 0, 67, 98
1, 194455, Control_c, 0, 67, 100
1, 194470, Control_c, 0, 64, 99
1, 194470, Control_c, 0, 67, 101
1, 194486, Control_c, 0, 64, 99
1, 194486, Control_c, 0, 67, 102
1, 194500, Control_c, 0, 64, 100
1, 194500, Control_c, 0, 67, 103
1, 194515, Control_c, 0, 64, 100
1, 194515, Control_c, 0, 67, 104
1, 194515, Note_off_c, 0, 49, 0
1, 194530, Control_c, 0, 64, 101
1, 194530, Control_c, 0, 67, 105
1, 194536, Note_on_c, 0, 53, 34
1, 194545, Control_c, 0, 64, 101
1, 194545, Control_c, 0, 67, 106
1, 194553, Poly_aftertouch_c, 0, 49, 127
1, 194560, Control_c, 0, 67, 107
1, 194575, Control_c, 0, 64, 102
1, 194575, Control_c, 0, 67, 107
1, 194589, Control_c, 0, 67, 108
1, 194604, Control_c, 0, 64, 102
1, 194604, Control_c, 0, 67, 109
1, 194619, Control_c, 0, 67, 109
1, 194633, Control_c, 0, 64, 103
1, 194633, Control_c, 0, 67, 110
1, 194644, Note_on_c, 0, 56, 29
1, 194663, Control_c, 0, 67, 110
1, 194678, Control_c, 0, 64, 103
1, 194678, Control_c, 0, 67, 111
1, 194693, Control_c, 0, 64, 104
1, 194693, Control_c, 0, 67, 111
1, 194722, Control_c, 0, 64, 104
1, 194722, Control_c, 0, 67, 112
1, 194723, Note_on_c, 0, 61, 34
1, 194737, Control_c, 0, 67, 112
1, 194751, Control_c, 0, 64, 105
1, 194751, Control_c, 0, 67, 113
1, 194772, Note_off_c, 0, 53, 35
1, 194787, Note_off_c, 0, 61, 39
1, 194796, Control_c, 0, 67, 113
1, 194797, Note_on_c, 0, 65, 40
1, 194825, Control_c, 0, 64, 105
1, 194825, Control_c, 0, 67, 114
1, 194855, Control_c, 0, 67, 114
1, 194876, Note_off_c, 0, 56, 29
1, 194889, Note_on_c, 0, 68, 25
1, 194893, Note_off_c, 0, 65, 0
1, 194900, Control_c, 0, 67, 115
1, 194909, Note_on_c, 0, 65, 21
1, 194930, Control_c, 0, 67, 115
1, 194945, Control_c, 0, 67, 116
1, 194951, Note_off_c, 0, 68, 0
1, 194959, Control_c, 0, 67, 117
1, 194960, Note_on_c, 0, 61, 29
1, 194974, Control_c, 0, 67, 117
1, 194989, Poly_aftertouch_c, 0, 68, 127
1, 194989, Control_c, 0, 67, 118
1, 195004, Control_c, 0, 67, 119
1, 195019, Control_c, 0, 67, 119
1, 195033, Control_c, 0, 67, 120
1, 195048, Control_c, 0, 67, 121
1, 195051, Note_on_c, 0, 56, 21
1, 195063, Control_c, 0, 64, 105
1, 195063, Control_c, 0, 67, 122
1, 195075, Poly_aftertouch_c, 0, 49, 0
1, 195078, Control_c, 0, 67, 122
1, 195093, Control_c, 0, 64, 104
1, 195093, Control_c, 0, 67, 123
1, 195095, Note_on_c, 0, 53, 32
1, 195107, Control_c, 0, 64, 104
1, 195107, Control_c, 0, 67, 123
1, 195122, Control_c, 0, 64, 103
1, 195122, Control_c, 0, 67, 124
1, 195137, Control_c, 0, 67, 125
1, 195159, Control_c, 0, 64, 103
1, 195159, Control_c, 0, 67, 125
1, 195174, Control_c, 0, 67, 126
1, 195204, Control_c, 0, 64, 102
1, 195219, Control_c, 0, 64, 102
1, 195222, Note_on_c, 0, 49, 34
1, 195223, Note_off_c, 0, 53, 38
1, 195293, Control_c, 0, 64, 101
1, 195302, Note_off_c, 0, 49, 53
1, 195323, Control_c, 0, 64, 101
1, 195353, Note_on_c, 0, 44, 34
1, 195383, Control_c, 0, 64, 100
1, 195413, Control_c, 0, 64, 100
1, 195428, Control_c, 0, 64, 99
1, 195457, Control_c, 0, 64, 98
1, 195472, Control_c, 0, 64, 98
1, 195487, Control_c, 0, 64, 96
1, 195502, Control_c, 0, 64, 95
1, 195517, Control_c, 0, 64, 93
1, 195521, Note_off_c, 0, 44, 40
1, 195531, Control_c, 0, 64, 91
1, 195534, Note_on_c, 0, 37, 42
1, 195546, Control_c, 0, 64, 87
1, 195546, Control_c, 0, 67, 126
1, 195561, Control_c, 0, 64, 83
1, 195575, Control_c, 0, 64, 76
1, 195590, Control_c, 0, 64, 69
1, 195605, Control_c, 0, 64, 66
1, 195620, Control_c, 0, 64, 65
1, 195649, Control_c, 0, 64, 65
1, 195664, Control_c, 0, 64, 64
1, 195664, Control_c, 0, 67, 127
1, 195678, Note_on_c, 0, 47, 25
1, 195679, Control_c, 0, 64, 64
1, 195722, Poly_aftertouch_c, 0, 68, 0
1, 195723, Control_c, 0, 64, 65
1, 195729, Note_off_c, 0, 65, 41
1, 195738, Control_c, 0, 64, 67
1, 195739, Note_off_c, 0, 61, 41
1, 195753, Control_c, 0, 64, 70
1, 195753, Control_c, 0, 67, 126
1, 195754, Note_off_c, 0, 37, 35
1, 195768, Control_c, 0, 64, 74
1, 195768, Control_c, 0, 67, 125
1, 195782, Control_c, 0, 64, 79
1, 195782, Control_c, 0, 67, 123
1, 195796, Note_off_c, 0, 56, 41
1, 195797, Control_c, 0, 64, 84
1, 195797, Control_c, 0, 67, 122
1, 195812, Control_c, 0, 64, 86
1, 195812, Control_c, 0, 67, 121
1, 195817, Note_on_c, 0, 49, 37
1, 195827, Control_c, 0, 64, 87
1, 195827, Control_c, 0, 67, 119
1, 195842, Control_c, 0, 67, 118
1, 195857, Control_c, 0, 67, 116
1, 195887, Control_c, 0, 67, 115
1, 195901, Note_off_c, 0, 49, 38
1, 195914, Note_off_c, 0, 47, 40
1, 195919, Note_on_c, 0, 53, 34
1, 195997, Control_c, 0, 64, 87
1, 196024, Note_off_c, 0, 53, 0
1, 196042, Control_c, 0, 64, 88
1, 196060, Poly_aftertouch_c, 0, 53, 127
1, 196072, Control_c, 0, 64, 88
1, 196072, Control_c, 0, 67, 115
1, 196082, Poly_aftertouch_c, 0, 56, 127
1, 196087, Control_c, 0, 67, 114
1, 196102, Control_c, 0, 64, 89
1, 196102, Control_c, 0, 67, 113
1, 196117, Control_c, 0, 67, 112
1, 196132, Control_c, 0, 64, 89
1, 196132, Control_c, 0, 67, 110
1, 196139, Note_on_c, 0, 61, 35
1, 196146, Control_c, 0, 67, 108
1, 196151, Poly_aftertouch_c, 0, 56, 0
1, 196152, Poly_aftertouch_c, 0, 53, 0
1, 196161, Control_c, 0, 64, 90
1, 196161, Control_c, 0, 67, 104
1, 196176, Control_c, 0, 67, 100
1, 196189, Note_off_c, 0, 61, 42
1, 196191, Control_c, 0, 64, 90
1, 196191, Control_c, 0, 67, 95
1, 196206, Control_c, 0, 67, 90
1, 196220, Control_c, 0, 67, 88
1, 196235, Control_c, 0, 67, 87
1, 196295, Control_c, 0, 67, 87
1, 196341, Note_on_c, 0, 65, 46
1, 196354, Control_c, 0, 67, 86
1, 196360, Note_on_c, 0, 61, 35
1, 196384, Control_c, 0, 67, 86
1, 196398, Control_c, 0, 67, 84
1, 196413, Control_c, 0, 67, 82
1, 196420, Note_off_c, 0, 65, 58
1, 196428, Control_c, 0, 67, 79
1, 196443, Control_c, 0, 67, 75
1, 196458, Control_c, 0, 67, 71
1, 196472, Control_c, 0, 67, 67
1, 196487, Control_c, 0, 67, 63
1, 196502, Control_c, 0, 67, 59
1, 196517, Control_c, 0, 67, 56
1, 196531, Control_c, 0, 67, 54
1, 196546, Control_c, 0, 67, 52
1, 196561, Control_c, 0, 67, 52
1, 196590, Note_off_c, 0, 61, 35
1, 196593, Note_on_c, 0, 56, 8
1, 196635, Control_c, 0, 67, 52
1, 196653, Note_on_c, 0, 53, 32
1, 196658, Control_c, 0, 67, 53
1, 196660, Note_off_c, 0, 56, 45
1, 196702, Control_c, 0, 67, 54
1, 196703, Note_off_c, 0, 53, 45
1, 196717, Control_c, 0, 64, 90
1, 196717, Control_c, 0, 67, 54
1, 196731, Control_c, 0, 67, 55
1, 196746, Control_c, 0, 64, 89
1, 196746, Control_c, 0, 67, 56
1, 196761, Control_c, 0, 64, 89
1, 196761, Control_c, 0, 67, 57
1, 196788, Note_on_c, 0, 49, 26
1, 196791, Control_c, 0, 67, 57
1, 196805, Control_c, 0, 64, 88
1, 196805, Control_c, 0, 67, 58
1, 196834, Control_c, 0, 64, 88
1, 196838, Note_off_c, 0, 49, 45
1, 196849, Control_c, 0, 67, 58
1, 196863, Note_on_c, 0, 47, 41
1, 196895, Control_c, 0, 64, 87
1, 196895, Control_c, 0, 67, 59
1, 196939, Control_c, 0, 64, 87
1, 196965, Note_off_c, 0, 47, 35
1, 196969, Control_c, 0, 64, 86
1, 196969, Control_c, 0, 67, 59
1, 196984, Control_c, 0, 64, 86
1, 196998, Control_c, 0, 64, 85
1, 197013, Control_c, 0, 64, 83
1, 197028, Control_c, 0, 64, 82
1, 197043, Control_c, 0, 64, 79
1, 197046, Note_on_c, 0, 66, 52
1, 197054, Note_on_c, 0, 62, 43
1, 197058, Control_c, 0, 64, 75
1, 197073, Control_c, 0, 64, 70
1, 197073, Control_c, 0, 67, 60
1, 197088, Control_c, 0, 64, 66
1, 197096, Note_on_c, 0, 37, 37
1, 197102, Control_c, 0, 64, 62
1, 197117, Control_c, 0, 64, 60
1, 197132, Control_c, 0, 64, 58
1, 197146, Control_c, 0, 64, 57
1, 197146, Control_c, 0, 67, 60
1, 197191, Control_c, 0, 64, 60
1, 197206, Control_c, 0, 64, 64
1, 197220, Control_c, 0, 64, 69
1, 197235, Control_c, 0, 64, 75
1, 197250, Control_c, 0, 64, 81
1, 197264, Note_on_c, 0, 45, 26
1, 197265, Control_c, 0, 64, 87
1, 197266, Note_off_c, 0, 62, 54
1, 197273, Note_off_c, 0, 66, 56
1, 197280, Control_c, 0, 64, 89
1, 197294, Control_c, 0, 64, 91
1, 197305, Note_off_c, 0, 37, 31
1, 197309, Control_c, 0, 64, 92
1, 197324, Control_c, 0, 64, 94
1, 197339, Control_c, 0, 64, 97
1, 197340, Note_on_c, 0, 50, 40
1, 197353, Control_c, 0, 64, 99
1, 197368, Control_c, 0, 64, 100
1, 197368, Control_c, 0, 67, 60
1, 197383, Control_c, 0, 64, 100
1, 197386, Note_off_c, 0, 50, 60
1, 197407, Note_off_c, 0, 45, 34
1, 197421, Control_c, 0, 64, 101
1, 197539, Note_on_c, 0, 57, 7
1, 197553, Control_c, 0, 67, 59
1, 197573, Note_on_c, 0, 62, 45
1, 197598, Control_c, 0, 67, 59
1, 197607, Note_off_c, 0, 57, 40
1, 197707, Note_on_c, 0, 69, 61
1, 197714, Note_on_c, 0, 66, 48
1, 197747, Note_off_c, 0, 62, 0
1, 197757, Note_off_c, 0, 69, 61
1, 197760, Note_off_c, 0, 66, 57
1, 197784, Poly_aftertouch_c, 0, 62, 127
1, 197851, Control_c, 0, 67, 58
1, 197891, Note_on_c, 0, 57, 36
1, 197915, Poly_aftertouch_c, 0, 62, 0
1, 197925, Control_c, 0, 67, 58
1, 197955, Control_c, 0, 67, 57
1, 197969, Note_off_c, 0, 57, 37
1, 197969, Control_c, 0, 64, 100
1, 197980, Note_on_c, 0, 54, 37
1, 197984, Control_c, 0, 67, 57
1, 197999, Control_c, 0, 64, 99
1, 198014, Control_c, 0, 67, 56
1, 198021, Note_off_c, 0, 54, 49
1, 198029, Control_c, 0, 64, 99
1, 198043, Control_c, 0, 64, 98
1, 198058, Control_c, 0, 67, 56
1, 198061, Note_on_c, 0, 50, 46
1, 198073, Control_c, 0, 64, 98
1, 198087, Control_c, 0, 64, 97
1, 198087, Control_c, 0, 67, 55
1, 198102, Control_c, 0, 64, 97
1, 198117, Control_c, 0, 64, 96
1, 198132, Control_c, 0, 64, 95
1, 198155, Control_c, 0, 64, 95
1, 198155, Control_c, 0, 67, 55
1, 198158, Note_off_c, 0, 50, 36
1, 198163, Note_on_c, 0, 45, 41
1, 198169, Control_c, 0, 64, 94
1, 198169, Control_c, 0, 67, 54
1, 198184, Control_c, 0, 64, 94
1, 198184, Control_c, 0, 67, 54
1, 198199, Control_c, 0, 64, 93
1, 198199, Control_c, 0, 67, 53
1, 198214, Control_c, 0, 64, 92
1, 198214, Control_c, 0, 67, 53
1, 198229, Control_c, 0, 64, 91
1, 198229, Control_c, 0, 67, 52
1, 198244, Control_c, 0, 64, 90
1, 198244, Control_c, 0, 67, 51
1, 198258, Control_c, 0, 64, 89
1, 198270, Note_off_c, 0, 45, 33
1, 198273, Control_c, 0, 64, 88
1, 198273, Control_c, 0, 67, 51
1, 198288, Control_c, 0, 64, 88
1, 198288, Control_c, 0, 67, 50
1, 198303, Control_c, 0, 64, 86
1, 198303, Control_c, 0, 67, 47
1, 198318, Control_c, 0, 64, 84
1, 198318, Control_c, 0, 67, 45
1, 198333, Control_c, 0, 64, 79
1, 198333, Control_c, 0, 67, 42
1, 198348, Control_c, 0, 64, 71
1, 198348, Control_c, 0, 67, 39
1, 198363, Control_c, 0, 64, 64
1, 198363, Control_c, 0, 67, 37
1, 198366, Note_on_c, 0, 71, 64
1, 198373, Note_on_c, 0, 37, 44
1, 198377, Control_c, 0, 64, 59
1, 198377, Control_c, 0, 67, 36
1, 198392, Note_on_c, 0, 67, 41
1, 198392, Control_c, 0, 64, 57
1, 198392, Control_c, 0, 67, 35
1, 198407, Control_c, 0, 67, 34
1, 198422, Control_c, 0, 64, 59
1, 198422, Control_c, 0, 67, 34
1, 198437, Control_c, 0, 64, 62
1, 198451, Control_c, 0, 64, 67
1, 198452, Note_off_c, 0, 37, 60
1, 198466, Control_c, 0, 64, 71
1, 198482, Control_c, 0, 64, 77
1, 198497, Control_c, 0, 64, 83
1, 198512, Control_c, 0, 64, 87
1, 198526, Control_c, 0, 64, 88
1, 198541, Control_c, 0, 64, 89
1, 198546, Note_off_c, 0, 71, 55
1, 198556, Control_c, 0, 64, 89
1, 198558, Note_off_c, 0, 67, 42
1, 198571, Control_c, 0, 64, 90
1, 198601, Note_on_c, 0, 47, 42
1, 198630, Control_c, 0, 64, 90
1, 198660, Control_c, 0, 67, 34
1, 198674, Control_c, 0, 67, 35
1, 198689, Control_c, 0, 67, 35
1, 198700, Note_on_c, 0, 50, 45
1, 198718, Control_c, 0, 67, 36
1, 198730, Note_off_c, 0, 47, 27
1, 198745, Note_off_c, 0, 50, 60
1, 198755, Note_on_c, 0, 55, 30
1, 198778, Control_c, 0, 67, 36
1, 198792, Note_off_c, 0, 55, 44
1, 198808, Control_c, 0, 67, 37
1, 198810, Note_on_c, 0, 59, 38
1, 198838, Control_c, 0, 67, 37
1, 198909, Note_on_c, 0, 62, 27
1, 198948, Control_c, 0, 67, 38
1, 198983, Note_on_c, 0, 67, 19
1, 199015, Note_off_c, 0, 59, 27
1, 199030, Note_off_c, 0, 67, 45
1, 199068, Note_on_c, 0, 74, 67
1, 199079, Note_off_c, 0, 62, 19
1, 199082, Control_c, 0, 67, 38
1, 199100, Note_on_c, 0, 71, 46
1, 199140, Note_off_c, 0, 74, 60
1, 199145, Note_off_c, 0, 71, 43
1, 199171, Note_on_c, 0, 67, 38
1, 199226, Note_off_c, 0, 67, 39
1, 199267, Note_on_c, 0, 62, 32
1, 199396, Note_on_c, 0, 59, 31
1, 199420, Note_off_c, 0, 62, 30
1, 199423, Control_c, 0, 67, 39
1, 199468, Note_off_c, 0, 59, 37
1, 199483, Control_c, 0, 67, 39
1, 199497, Control_c, 0, 64, 90
1, 199512, Control_c, 0, 67, 40
1, 199534, Note_on_c, 0, 50, 36
1, 199541, Control_c, 0, 67, 40
1, 199571, Control_c, 0, 67, 41
1, 199616, Control_c, 0, 67, 41
1, 199668, Control_c, 0, 64, 89
1, 199682, Control_c, 0, 67, 42
1, 199696, Note_on_c, 0, 47, 34
1, 199727, Control_c, 0, 67, 42
1, 199742, Control_c, 0, 64, 89
1, 199755, Note_off_c, 0, 50, 24
1, 199801, Control_c, 0, 64, 88
1, 199801, Control_c, 0, 67, 43
1, 199823, Note_off_c, 0, 47, 40
1, 199829, Control_c, 0, 64, 88
1, 199844, Control_c, 0, 64, 87
1, 199859, Control_c, 0, 64, 87
1, 199859, Control_c, 0, 67, 43
1, 199873, Control_c, 0, 64, 86
1, 199903, Control_c, 0, 64, 86
1, 199918, Control_c, 0, 64, 85
1, 199933, Control_c, 0, 64, 85
1, 199933, Control_c, 0, 67, 44
1, 199947, Control_c, 0, 64, 84
1, 199962, Control_c, 0, 64, 83
1, 199977, Control_c, 0, 64, 83
1, 199992, Control_c, 0, 64, 82
1, 200007, Control_c, 0, 64, 81
1, 200021, Control_c, 0, 64, 80
1, 200036, Control_c, 0, 64, 79
1, 200051, Control_c, 0, 64, 78
1, 200051, Control_c, 0, 67, 44
1, 200067, Note_on_c, 0, 77, 42
1, 200067, Control_c, 0, 64, 76
1, 200082, Control_c, 0, 64, 74
1, 200092, Note_on_c, 0, 37, 23
1, 200097, Control_c, 0, 64, 73
1, 200100, Note_on_c, 0, 73, 35
1, 200112, Control_c, 0, 64, 72
1, 200126, Control_c, 0, 64, 70
1, 200126, Control_c, 0, 67, 45
1, 200141, Control_c, 0, 64, 67
1, 200141, Control_c, 0, 67, 45
1, 200156, Control_c, 0, 64, 65
1, 200156, Control_c, 0, 67, 46
1, 200170, Control_c, 0, 64, 61
1, 200170, Control_c, 0, 67, 46
1, 200185, Control_c, 0, 64, 58
1, 200185, Control_c, 0, 67, 47
1, 200200, Control_c, 0, 64, 55
1, 200200, Control_c, 0, 67, 47
1, 200215, Control_c, 0, 64, 54
1, 200215, Control_c, 0, 67, 48
1, 200230, Control_c, 0, 64, 53
1, 200230, Control_c, 0, 67, 50
1, 200245, Control_c, 0, 67, 51
1, 200260, Control_c, 0, 67, 52
1, 200274, Control_c, 0, 64, 56
1, 200274, Control_c, 0, 67, 53
1, 200289, Control_c, 0, 64, 60
1, 200289, Control_c, 0, 67, 54
1, 200304, Control_c, 0, 64, 65
1, 200304, Control_c, 0, 67, 55
1, 200319, Control_c, 0, 64, 68
1, 200319, Control_c, 0, 67, 55
1, 200334, Control_c, 0, 64, 71
1, 200349, Control_c, 0, 64, 76
1, 200355, Note_off_c, 0, 37, 46
1, 200363, Control_c, 0, 64, 80
1, 200364, Note_on_c, 0, 44, 31
1, 200378, Control_c, 0, 64, 83
1, 200399, Note_off_c, 0, 77, 51
1, 200400, Control_c, 0, 64, 84
1, 200415, Control_c, 0, 64, 85
1, 200430, Control_c, 0, 64, 87
1, 200435, Note_off_c, 0, 73, 41
1, 200444, Control_c, 0, 64, 89
1, 200459, Control_c, 0, 64, 91
1, 200474, Control_c, 0, 64, 93
1, 200489, Control_c, 0, 64, 94
1, 200504, Control_c, 0, 64, 95
1, 200529, Note_off_c, 0, 44, 40
1, 200531, Note_on_c, 0, 49, 30
1, 200534, Control_c, 0, 64, 96
1, 200549, Control_c, 0, 64, 96
1, 200614, Note_on_c, 0, 53, 36
1, 200711, Control_c, 0, 67, 56
1, 200719, Note_on_c, 0, 56, 35
1, 200731, Note_off_c, 0, 53, 34
1, 200741, Control_c, 0, 67, 56
1, 200757, Note_off_c, 0, 49, 15
1, 200770, Control_c, 0, 67, 57
1, 200772, Note_on_c, 0, 61, 31
1, 200785, Control_c, 0, 67, 58
1, 200800, Control_c, 0, 67, 60
1, 200815, Control_c, 0, 67, 61
1, 200817, Note_off_c, 0, 61, 45
1, 200825, Note_on_c, 0, 65, 45
1, 200830, Control_c, 0, 67, 62
1, 200844, Note_off_c, 0, 56, 24
1, 200890, Control_c, 0, 64, 96
1, 200905, Control_c, 0, 64, 95
1, 200911, Note_on_c, 0, 68, 24
1, 200947, Note_on_c, 0, 61, 42
1, 200979, Control_c, 0, 64, 95
1, 200993, Control_c, 0, 64, 94
1, 201008, Control_c, 0, 67, 62
1, 201011, Note_on_c, 0, 56, 38
1, 201035, Note_on_c, 0, 53, 35
1, 201053, Control_c, 0, 67, 61
1, 201089, Note_off_c, 0, 56, 0
1, 201097, Control_c, 0, 64, 94
1, 201097, Control_c, 0, 67, 61
1, 201126, Note_off_c, 0, 53, 38
1, 201126, Poly_aftertouch_c, 0, 56, 127
1, 201151, Note_on_c, 0, 49, 40
1, 201179, Control_c, 0, 64, 93
1, 201185, Note_off_c, 0, 49, 53
1, 201193, Control_c, 0, 64, 93
1, 201208, Control_c, 0, 64, 92
1, 201223, Control_c, 0, 64, 91
1, 201238, Control_c, 0, 64, 90
1, 201243, Note_on_c, 0, 44, 45
1, 201253, Control_c, 0, 64, 89
1, 201267, Control_c, 0, 64, 86
1, 201282, Control_c, 0, 64, 81
1, 201298, Control_c, 0, 64, 75
1, 201313, Control_c, 0, 64, 71
1, 201320, Poly_aftertouch_c, 0, 56, 0
1, 201327, Control_c, 0, 64, 70
1, 201327, Control_c, 0, 67, 60
1, 201342, Control_c, 0, 64, 72
1, 201357, Control_c, 0, 64, 75
1, 201357, Control_c, 0, 67, 60
1, 201372, Control_c, 0, 64, 80
1, 201372, Control_c, 0, 67, 59
1, 201381, Note_on_c, 0, 37, 48
1, 201387, Control_c, 0, 64, 86
1, 201401, Control_c, 0, 64, 91
1, 201401, Control_c, 0, 67, 59
1, 201402, Note_off_c, 0, 44, 24
1, 201416, Control_c, 0, 64, 92
1, 201420, Note_off_c, 0, 37, 63
1, 201431, Control_c, 0, 67, 58
1, 201443, Note_off_c, 0, 61, 39
1, 201457, Note_off_c, 0, 65, 40
1, 201461, Control_c, 0, 67, 58
1, 201491, Control_c, 0, 67, 57
1, 201495, Note_off_c, 0, 68, 51
1, 201506, Control_c, 0, 67, 57
1, 201535, Control_c, 0, 67, 56
1, 201553, Note_on_c, 0, 53, 44
1, 201624, Control_c, 0, 67, 56
1, 201667, Note_on_c, 0, 56, 38
1, 201689, Note_off_c, 0, 53, 36
1, 201699, Note_on_c, 0, 59, 46
1, 201717, Note_off_c, 0, 56, 43
1, 201726, Note_on_c, 0, 61, 43
1, 201729, Control_c, 0, 67, 55
1, 201733, Note_off_c, 0, 59, 53
1, 201780, Note_on_c, 0, 65, 43
1, 201787, Note_off_c, 0, 61, 38
1, 201849, Note_on_c, 0, 68, 42
1, 201929, Note_off_c, 0, 65, 36
1, 201938, Note_on_c, 0, 73, 25
1, 201957, Note_off_c, 0, 68, 32
1, 201977, Note_off_c, 0, 73, 50
1, 201988, Control_c, 0, 67, 55
1, 202075, Note_on_c, 0, 77, 64
1, 202088, Note_on_c, 0, 73, 60
1, 202127, Note_off_c, 0, 77, 58
1, 202135, Note_off_c, 0, 73, 56
1, 202190, Note_on_c, 0, 73, 30
1, 202288, Note_on_c, 0, 68, 32
1, 202297, Note_off_c, 0, 73, 35
1, 202337, Note_off_c, 0, 68, 41
1, 202352, Note_on_c, 0, 65, 36
1, 202397, Note_off_c, 0, 65, 45
1, 202427, Note_on_c, 0, 61, 5
1, 202459, Note_on_c, 0, 59, 41
1, 202477, Note_off_c, 0, 61, 49
1, 202477, Control_c, 0, 67, 54
1, 202492, Control_c, 0, 67, 53
1, 202507, Control_c, 0, 67, 52
1, 202522, Control_c, 0, 67, 51
1, 202537, Control_c, 0, 67, 49
1, 202544, Note_on_c, 0, 56, 40
1, 202544, Note_off_c, 0, 59, 33
1, 202552, Control_c, 0, 67, 46
1, 202566, Control_c, 0, 64, 91
1, 202566, Control_c, 0, 67, 43
1, 202581, Control_c, 0, 67, 40
1, 202596, Control_c, 0, 67, 36
1, 202601, Note_off_c, 0, 56, 44
1, 202609, Note_on_c, 0, 53, 47
1, 202611, Control_c, 0, 67, 33
1, 202626, Control_c, 0, 64, 91
1, 202626, Control_c, 0, 67, 28
1, 202647, Control_c, 0, 67, 38
1, 202662, Control_c, 0, 67, 33
1, 202677, Control_c, 0, 64, 90
1, 202677, Control_c, 0, 67, 28
1, 202692, Control_c, 0, 67, 24
1, 202707, Control_c, 0, 64, 90
1, 202707, Control_c, 0, 67, 19
1, 202722, Control_c, 0, 64, 89
1, 202737, Control_c, 0, 64, 87
1, 202752, Control_c, 0, 64, 85
1, 202752, Control_c, 0, 67, 0
1, 202763, Note_off_c, 0, 53, 45
1, 202766, Control_c, 0, 64, 83
1, 202775, Note_on_c, 0, 78, 68
1, 202781, Control_c, 0, 64, 79
1, 202792, Note_on_c, 0, 74, 56
1, 202796, Control_c, 0, 64, 74
1, 202800, Note_on_c, 0, 49, 42
1, 202811, Control_c, 0, 64, 68
1, 202826, Control_c, 0, 64, 64
1, 202840, Control_c, 0, 64, 59
1, 202855, Control_c, 0, 64, 58
1, 202899, Control_c, 0, 64, 59
1, 202914, Control_c, 0, 64, 64
1, 202924, Note_on_c, 0, 54, 42
1, 202929, Control_c, 0, 64, 69
1, 202944, Control_c, 0, 64, 74
1, 202959, Control_c, 0, 64, 81
1, 202973, Control_c, 0, 64, 87
1, 202988, Control_c, 0, 64, 90
1, 202994, Note_off_c, 0, 49, 33
1, 202995, Note_off_c, 0, 74, 52
1, 203000, Note_off_c, 0, 78, 57
1, 203002, Note_on_c, 0, 57, 43
1, 203003, Control_c, 0, 64, 91
1, 203018, Control_c, 0, 64, 93
1, 203033, Control_c, 0, 64, 95
1, 203047, Control_c, 0, 64, 96
1, 203062, Note_off_c, 0, 54, 28
1, 203062, Control_c, 0, 64, 97
1, 203075, Note_on_c, 0, 62, 39
1, 203091, Control_c, 0, 64, 98
1, 203095, Note_off_c, 0, 57, 36
1, 203106, Note_off_c, 0, 62, 51
1, 203106, Control_c, 0, 64, 98
1, 203121, Control_c, 0, 64, 99
1, 203133, Note_on_c, 0, 66, 48
1, 203219, Note_on_c, 0, 69, 44
1, 203280, Note_on_c, 0, 74, 19
1, 203390, Note_off_c, 0, 74, 31
1, 203402, Note_off_c, 0, 66, 0
1, 203419, Note_on_c, 0, 81, 65
1, 203420, Note_on_c, 0, 78, 61
1, 203428, Note_off_c, 0, 69, 38
1, 203440, Poly_aftertouch_c, 0, 66, 127
1, 203467, Note_off_c, 0, 81, 60
1, 203471, Note_on_c, 0, 74, 42
1, 203488, Note_off_c, 0, 78, 59
1, 203512, Poly_aftertouch_c, 0, 66, 0
1, 203577, Note_on_c, 0, 69, 41
1, 203600, Note_off_c, 0, 74, 41
1, 203603, Control_c, 0, 64, 98
1, 203618, Control_c, 0, 64, 98
1, 203632, Control_c, 0, 64, 97
1, 203647, Control_c, 0, 64, 97
1, 203648, Note_on_c, 0, 66, 47
1, 203662, Control_c, 0, 64, 96
1, 203692, Control_c, 0, 64, 96
1, 203692, Control_c, 0, 67, 16
1, 203696, Note_off_c, 0, 69, 32
1, 203706, Control_c, 0, 64, 95
1, 203706, Control_c, 0, 67, 19
1, 203721, Control_c, 0, 64, 95
1, 203721, Control_c, 0, 67, 22
1, 203724, Note_off_c, 0, 66, 51
1, 203736, Control_c, 0, 64, 94
1, 203736, Control_c, 0, 67, 24
1, 203751, Control_c, 0, 64, 93
1, 203751, Control_c, 0, 67, 25
1, 203765, Note_on_c, 0, 62, 45
1, 203766, Control_c, 0, 67, 25
1, 203781, Control_c, 0, 64, 93
1, 203795, Control_c, 0, 64, 92
1, 203807, Note_off_c, 0, 62, 44
1, 203825, Control_c, 0, 64, 92
1, 203840, Control_c, 0, 64, 91
1, 203855, Control_c, 0, 64, 90
1, 203858, Note_on_c, 0, 57, 43
1, 203869, Control_c, 0, 64, 90
1, 203884, Control_c, 0, 64, 89
1, 203911, Note_off_c, 0, 57, 59
1, 203914, Control_c, 0, 64, 89
1, 203914, Control_c, 0, 67, 25
1, 203929, Control_c, 0, 64, 88
1, 203944, Control_c, 0, 64, 87
1, 203959, Control_c, 0, 64, 87
1, 203960, Note_on_c, 0, 54, 38
1, 203974, Control_c, 0, 64, 86
1, 204003, Control_c, 0, 64, 86
1, 204010, Note_off_c, 0, 54, 43
1, 204018, Control_c, 0, 64, 85
1, 204032, Control_c, 0, 64, 85
1, 204047, Control_c, 0, 64, 83
1, 204063, Control_c, 0, 64, 82
1, 204078, Control_c, 0, 64, 79
1, 204093, Control_c, 0, 64, 75
1, 204106, Note_on_c, 0, 83, 75
1, 204108, Control_c, 0, 64, 70
1, 204114, Note_on_c, 0, 49, 44
1, 204123, Control_c, 0, 64, 65
1, 204141, Note_on_c, 0, 79, 41
1, 204144, Control_c, 0, 64, 62
1, 204159, Control_c, 0, 64, 61
1, 204189, Control_c, 0, 64, 63
1, 204204, Control_c, 0, 64, 66
1, 204218, Note_off_c, 0, 79, 0
1, 204218, Control_c, 0, 64, 71
1, 204220, Note_off_c, 0, 49, 61
1, 204233, Control_c, 0, 64, 77
1, 204233, Control_c, 0, 67, 24
1, 204248, Control_c, 0, 64, 85
1, 204256, Poly_aftertouch_c, 0, 79, 127
1, 204263, Control_c, 0, 64, 92
1, 204263, Control_c, 0, 67, 24
1, 204278, Control_c, 0, 64, 94
1, 204293, Control_c, 0, 64, 95
1, 204308, Control_c, 0, 64, 95
1, 204308, Control_c, 0, 67, 23
1, 204315, Note_off_c, 0, 83, 56
1, 204318, Poly_aftertouch_c, 0, 79, 0
1, 204323, Control_c, 0, 64, 96
1, 204337, Control_c, 0, 67, 23
1, 204352, Note_on_c, 0, 59, 45
1, 204447, Note_on_c, 0, 62, 46
1, 204454, Note_off_c, 0, 59, 31
1, 204498, Note_off_c, 0, 62, 44
1, 204501, Note_on_c, 0, 67, 53
1, 204526, Note_off_c, 0, 67, 61
1, 204559, Control_c, 0, 67, 23
1, 204589, Control_c, 0, 67, 24
1, 204618, Note_on_c, 0, 71, 37
1, 204633, Control_c, 0, 67, 24
1, 204648, Control_c, 0, 67, 25
1, 204677, Control_c, 0, 67, 25
1, 204686, Note_on_c, 0, 74, 36
1, 204707, Control_c, 0, 67, 26
1, 204767, Note_on_c, 0, 79, 36
1, 204781, Control_c, 0, 67, 25
1, 204808, Note_off_c, 0, 74, 25
1, 204819, Note_off_c, 0, 71, 28
1, 204826, Note_off_c, 0, 79, 39
1, 204865, Note_on_c, 0, 86, 67
1, 204895, Note_on_c, 0, 83, 57
1, 204934, Note_off_c, 0, 83, 59
1, 204937, Note_off_c, 0, 86, 59
1, 204985, Note_on_c, 0, 79, 41
1, 205027, Control_c, 0, 67, 26
1, 205098, Note_on_c, 0, 74, 40
1, 205149, Note_off_c, 0, 74, 43
1, 205188, Note_off_c, 0, 79, 16
1, 205231, Note_on_c, 0, 71, 24
1, 205250, Control_c, 0, 64, 95
1, 205266, Note_off_c, 0, 71, 50
1, 205294, Control_c, 0, 67, 26
1, 205309, Control_c, 0, 67, 27
1, 205354, Control_c, 0, 67, 27
1, 205368, Control_c, 0, 64, 95
1, 205368, Control_c, 0, 67, 28
1, 205383, Control_c, 0, 67, 29
1, 205393, Note_on_c, 0, 62, 23
1, 205398, Control_c, 0, 67, 29
1, 205427, Control_c, 0, 67, 30
1, 205442, Control_c, 0, 67, 30
1, 205457, Control_c, 0, 67, 31
1, 205472, Control_c, 0, 64, 94
1, 205472, Control_c, 0, 67, 31
1, 205486, Control_c, 0, 67, 32
1, 205501, Control_c, 0, 67, 32
1, 205516, Control_c, 0, 67, 33
1, 205531, Control_c, 0, 67, 33
1, 205546, Control_c, 0, 67, 34
1, 205547, Note_on_c, 0, 59, 42
1, 205560, Control_c, 0, 67, 34
1, 205562, Note_off_c, 0, 62, 38
1, 205575, Control_c, 0, 64, 94
1, 205575, Control_c, 0, 67, 35
1, 205590, Control_c, 0, 67, 35
1, 205604, Control_c, 0, 67, 36
1, 205619, Control_c, 0, 64, 93
1, 205619, Control_c, 0, 67, 36
1, 205642, Control_c, 0, 67, 37
1, 205657, Control_c, 0, 67, 37
1, 205673, Control_c, 0, 64, 93
1, 205706, Note_off_c, 0, 59, 40
1, 205717, Control_c, 0, 64, 92
1, 205732, Control_c, 0, 67, 38
1, 205747, Control_c, 0, 64, 92
1, 205762, Control_c, 0, 67, 38
1, 205791, Control_c, 0, 64, 91
1, 205791, Control_c, 0, 67, 39
1, 205806, Control_c, 0, 64, 91
1, 205806, Control_c, 0, 67, 39
1, 205821, Control_c, 0, 64, 90
1, 205821, Control_c, 0, 67, 40
1, 205835, Control_c, 0, 64, 90
1, 205850, Control_c, 0, 64, 88
1, 205850, Control_c, 0, 67, 40
1, 205865, Control_c, 0, 64, 87
1, 205865, Control_c, 0, 67, 41
1, 205880, Control_c, 0, 64, 85
1, 205895, Control_c, 0, 64, 82
1, 205899, Note_on_c, 0, 49, 28
1, 205902, Note_on_c, 0, 73, 38
1, 205909, Control_c, 0, 64, 78
1, 205909, Control_c, 0, 67, 41
1, 205924, Control_c, 0, 64, 75
1, 205939, Control_c, 0, 64, 72
1, 205939, Control_c, 0, 67, 42
1, 205954, Control_c, 0, 64, 69
1, 205954, Control_c, 0, 67, 42
1, 205969, Control_c, 0, 64, 68
1, 205983, Control_c, 0, 64, 66
1, 205998, Control_c, 0, 64, 64
1, 205998, Control_c, 0, 67, 43
1, 206013, Control_c, 0, 64, 62
1, 206013, Control_c, 0, 67, 43
1, 206028, Control_c, 0, 64, 60
1, 206028, Control_c, 0, 67, 44
1, 206043, Control_c, 0, 67, 45
1, 206057, Control_c, 0, 67, 46
1, 206072, Control_c, 0, 64, 61
1, 206072, Control_c, 0, 67, 48
1, 206087, Control_c, 0, 64, 64
1, 206087, Control_c, 0, 67, 49
1, 206091, Note_on_c, 0, 80, 39
1, 206102, Control_c, 0, 64, 67
1, 206102, Control_c, 0, 67, 50
1, 206117, Control_c, 0, 64, 70
1, 206132, Control_c, 0, 64, 75
1, 206132, Control_c, 0, 67, 51
1, 206147, Control_c, 0, 64, 82
1, 206162, Control_c, 0, 64, 87
1, 206177, Control_c, 0, 64, 91
1, 206177, Note_off_c, 0, 73, 41
1, 206181, Note_on_c, 0, 56, 33
1, 206191, Control_c, 0, 64, 93
1, 206204, Note_off_c, 0, 49, 41
1, 206206, Control_c, 0, 64, 94
1, 206221, Control_c, 0, 64, 96
1, 206235, Control_c, 0, 64, 98
1, 206250, Control_c, 0, 64, 99
1, 206265, Control_c, 0, 64, 100
1, 206280, Control_c, 0, 64, 101
1, 206296, Note_on_c, 0, 85, 57
1, 206309, Control_c, 0, 64, 101
1, 206324, Control_c, 0, 64, 102
1, 206414, Note_off_c, 0, 80, 31
1, 206502, Note_on_c, 0, 61, 40
1, 206540, Control_c, 0, 67, 51
1, 206618, Note_on_c, 0, 89, 63
1, 206642, Note_off_c, 0, 85, 46
1, 206687, Note_off_c, 0, 89, 58
1, 206814, Note_on_c, 0, 65, 34
1, 206925, Control_c, 0, 67, 52
1, 206970, Control_c, 0, 67, 52
1, 206995, Note_off_c, 0, 65, 35
1, 206999, Control_c, 0, 67, 53
1, 207008, Note_on_c, 0, 68, 32
1, 207014, Control_c, 0, 67, 54
1, 207029, Control_c, 0, 67, 55
1, 207044, Control_c, 0, 67, 56
1, 207058, Control_c, 0, 67, 57
1, 207073, Control_c, 0, 67, 58
1, 207088, Control_c, 0, 67, 59
1, 207103, Control_c, 0, 67, 60
1, 207116, Note_on_c, 0, 73, 6
1, 207118, Control_c, 0, 67, 61
1, 207139, Note_on_c, 0, 77, 44
1, 207139, Control_c, 0, 67, 63
1, 207154, Control_c, 0, 67, 64
1, 207169, Control_c, 0, 67, 66
1, 207172, Note_off_c, 0, 68, 34
1, 207175, Note_off_c, 0, 73, 51
1, 207183, Note_off_c, 0, 77, 53
1, 207184, Control_c, 0, 67, 68
1, 207199, Control_c, 0, 64, 102
1, 207199, Control_c, 0, 67, 69
1, 207214, Control_c, 0, 64, 103
1, 207214, Control_c, 0, 67, 71
1, 207215, Note_on_c, 0, 80, 40
1, 207229, Control_c, 0, 64, 103
1, 207229, Control_c, 0, 67, 73
1, 207244, Control_c, 0, 67, 74
1, 207247, Note_off_c, 0, 80, 52
1, 207259, Control_c, 0, 64, 104
1, 207259, Control_c, 0, 67, 76
1, 207266, Note_on_c, 0, 77, 41
1, 207274, Control_c, 0, 67, 79
1, 207288, Control_c, 0, 64, 104
1, 207288, Control_c, 0, 67, 80
1, 207296, Note_off_c, 0, 61, 31
1, 207303, Control_c, 0, 67, 83
1, 207308, Note_on_c, 0, 73, 40
1, 207318, Control_c, 0, 67, 85
1, 207333, Control_c, 0, 67, 87
1, 207348, Control_c, 0, 67, 89
1, 207355, Note_off_c, 0, 77, 33
1, 207362, Control_c, 0, 67, 91
1, 207377, Control_c, 0, 67, 93
1, 207392, Control_c, 0, 67, 95
1, 207405, Note_on_c, 0, 68, 22
1, 207406, Control_c, 0, 67, 97
1, 207421, Control_c, 0, 67, 99
1, 207429, Note_on_c, 0, 65, 23
1, 207432, Note_off_c, 0, 73, 39
1, 207436, Control_c, 0, 67, 101
1, 207441, Note_off_c, 0, 68, 49
1, 207451, Control_c, 0, 67, 102
1, 207466, Control_c, 0, 67, 102
1, 207467, Note_off_c, 0, 56, 38
1, 207502, Note_off_c, 0, 65, 37
1, 207508, Note_on_c, 0, 61, 35
1, 207569, Control_c, 0, 64, 104
1, 207599, Control_c, 0, 67, 102
1, 207624, Note_on_c, 0, 56, 31
1, 207643, Control_c, 0, 64, 103
1, 207673, Control_c, 0, 64, 103
1, 207690, Note_off_c, 0, 61, 34
1, 207703, Control_c, 0, 64, 102
1, 207718, Control_c, 0, 64, 102
1, 207718, Control_c, 0, 67, 102
1, 207733, Control_c, 0, 64, 100
1, 207748, Control_c, 0, 64, 99
1, 207748, Control_c, 0, 67, 103
1, 207762, Control_c, 0, 64, 98
1, 207777, Control_c, 0, 64, 96
1, 207792, Control_c, 0, 64, 94
1, 207792, Control_c, 0, 67, 103
1, 207806, Control_c, 0, 64, 90
1, 207820, Note_on_c, 0, 47, 63
1, 207821, Control_c, 0, 64, 85
1, 207836, Control_c, 0, 64, 78
1, 207844, Note_off_c, 0, 56, 39
1, 207851, Control_c, 0, 64, 70
1, 207866, Control_c, 0, 64, 64
1, 207888, Control_c, 0, 64, 60
1, 207903, Control_c, 0, 64, 60
1, 207917, Control_c, 0, 64, 60
1, 207932, Control_c, 0, 64, 63
1, 207947, Control_c, 0, 64, 66
1, 207962, Control_c, 0, 64, 71
1, 207977, Control_c, 0, 64, 77
1, 207991, Note_off_c, 0, 47, 54
1, 207992, Control_c, 0, 64, 85
1, 207994, Note_on_c, 0, 56, 36
1, 208006, Control_c, 0, 64, 92
1, 208021, Control_c, 0, 64, 94
1, 208021, Control_c, 0, 67, 103
1, 208037, Control_c, 0, 64, 94
1, 208052, Control_c, 0, 64, 95
1, 208052, Control_c, 0, 67, 102
1, 208067, Control_c, 0, 64, 96
1, 208079, Note_on_c, 0, 61, 37
1, 208082, Control_c, 0, 64, 96
1, 208082, Control_c, 0, 67, 102
1, 208097, Control_c, 0, 64, 97
1, 208150, Note_on_c, 0, 65, 37
1, 208186, Control_c, 0, 67, 101
1, 208230, Control_c, 0, 67, 101
1, 208252, Note_on_c, 0, 68, 37
1, 208255, Note_off_c, 0, 61, 38
1, 208260, Note_off_c, 0, 65, 38
1, 208314, Note_on_c, 0, 73, 47
1, 208334, Control_c, 0, 67, 100
1, 208347, Note_off_c, 0, 73, 49
1, 208357, Note_on_c, 0, 77, 54
1, 208363, Note_off_c, 0, 68, 26
1, 208364, Control_c, 0, 67, 99
1, 208378, Control_c, 0, 67, 98
1, 208393, Control_c, 0, 67, 97
1, 208408, Control_c, 0, 67, 94
1, 208415, Note_off_c, 0, 77, 58
1, 208421, Note_on_c, 0, 65, 46
1, 208423, Control_c, 0, 67, 92
1, 208433, Note_on_c, 0, 80, 50
1, 208437, Control_c, 0, 67, 89
1, 208452, Control_c, 0, 67, 86
1, 208456, Note_off_c, 0, 56, 34
1, 208467, Control_c, 0, 67, 77
1, 208479, Note_off_c, 0, 80, 55
1, 208482, Control_c, 0, 67, 69
1, 208486, Note_on_c, 0, 77, 38
1, 208497, Control_c, 0, 67, 60
1, 208511, Control_c, 0, 67, 54
1, 208526, Control_c, 0, 67, 51
1, 208536, Note_on_c, 0, 61, 33
1, 208541, Control_c, 0, 67, 49
1, 208543, Note_off_c, 0, 65, 34
1, 208549, Note_off_c, 0, 77, 40
1, 208556, Control_c, 0, 67, 47
1, 208567, Note_on_c, 0, 73, 45
1, 208571, Control_c, 0, 67, 45
1, 208585, Control_c, 0, 67, 44
1, 208590, Note_off_c, 0, 61, 41
1, 208600, Control_c, 0, 67, 42
1, 208611, Note_on_c, 0, 56, 41
1, 208615, Control_c, 0, 67, 40
1, 208617, Note_off_c, 0, 73, 55
1, 208636, Note_on_c, 0, 68, 39
1, 208637, Control_c, 0, 67, 37
1, 208651, Note_off_c, 0, 56, 49
1, 208652, Control_c, 0, 67, 35
1, 208662, Note_off_c, 0, 68, 55
1, 208667, Control_c, 0, 67, 33
1, 208770, Control_c, 0, 67, 35
1, 208785, Control_c, 0, 67, 36
1, 208800, Control_c, 0, 67, 37
1, 208830, Control_c, 0, 64, 96
1, 208830, Control_c, 0, 67, 38
1, 208845, Control_c, 0, 67, 39
1, 208860, Control_c, 0, 67, 41
1, 208875, Control_c, 0, 64, 96
1, 208875, Control_c, 0, 67, 42
1, 208890, Control_c, 0, 67, 43
1, 208905, Control_c, 0, 64, 95
1, 208905, Control_c, 0, 67, 43
1, 208920, Control_c, 0, 64, 94
1, 208920, Control_c, 0, 67, 44
1, 208925, Note_on_c, 0, 46, 55
1, 208934, Note_on_c, 0, 74, 59
1, 208934, Control_c, 0, 64, 92
1, 208934, Control_c, 0, 67, 44
1, 208949, Control_c, 0, 64, 88
1, 208949, Control_c, 0, 67, 45
1, 208964, Control_c, 0, 64, 80
1, 208964, Control_c, 0, 67, 45
1, 208979, Control_c, 0, 64, 70
1, 208994, Control_c, 0, 64, 62
1, 209009, Control_c, 0, 64, 58
1, 209023, Control_c, 0, 67, 46
1, 209038, Control_c, 0, 64, 58
1, 209038, Control_c, 0, 67, 46
1, 209053, Control_c, 0, 64, 63
1, 209065, Note_off_c, 0, 74, 52
1, 209068, Control_c, 0, 64, 66
1, 209071, Note_on_c, 0, 82, 59
1, 209083, Control_c, 0, 64, 71
1, 209098, Control_c, 0, 64, 76
1, 209105, Note_off_c, 0, 46, 59
1, 209113, Control_c, 0, 64, 83
1, 209127, Control_c, 0, 64, 87
1, 209142, Control_c, 0, 64, 88
1, 209157, Control_c, 0, 64, 89
1, 209171, Control_c, 0, 64, 91
1, 209186, Control_c, 0, 64, 92
1, 209197, Note_on_c, 0, 89, 70
1, 209201, Control_c, 0, 64, 94
1, 209214, Note_off_c, 0, 82, 58
1, 209216, Control_c, 0, 64, 95
1, 209231, Control_c, 0, 64, 96
1, 209231, Control_c, 0, 67, 47
1, 209246, Control_c, 0, 64, 98
1, 209246, Control_c, 0, 67, 48
1, 209247, Note_off_c, 0, 89, 58
1, 209261, Control_c, 0, 64, 100
1, 209261, Control_c, 0, 67, 49
1, 209276, Control_c, 0, 64, 101
1, 209276, Control_c, 0, 67, 50
1, 209291, Control_c, 0, 64, 102
1, 209291, Control_c, 0, 67, 51
1, 209306, Control_c, 0, 64, 103
1, 209319, Note_on_c, 0, 53, 45
1, 209321, Control_c, 0, 64, 104
1, 209335, Control_c, 0, 64, 105
1, 209338, Note_on_c, 0, 58, 42
1, 209350, Control_c, 0, 64, 106
1, 209407, Note_on_c, 0, 62, 50
1, 209461, Note_on_c, 0, 65, 46
1, 209464, Note_on_c, 0, 70, 50
1, 209486, Note_off_c, 0, 70, 58
1, 209523, Note_off_c, 0, 65, 46
1, 209542, Note_on_c, 0, 74, 66
1, 209550, Control_c, 0, 67, 52
1, 209559, Note_off_c, 0, 62, 33
1, 209565, Control_c, 0, 67, 52
1, 209579, Control_c, 0, 67, 53
1, 209594, Control_c, 0, 67, 55
1, 209599, Note_off_c, 0, 74, 51
1, 209609, Control_c, 0, 67, 56
1, 209624, Control_c, 0, 67, 57
1, 209634, Note_on_c, 0, 77, 43
1, 209639, Control_c, 0, 67, 58
1, 209655, Control_c, 0, 67, 59
1, 209663, Note_on_c, 0, 86, 59
1, 209670, Control_c, 0, 64, 106
1, 209670, Control_c, 0, 67, 60
1, 209684, Control_c, 0, 64, 108
1, 209684, Control_c, 0, 67, 61
1, 209699, Control_c, 0, 64, 108
1, 209699, Control_c, 0, 67, 62
1, 209714, Control_c, 0, 64, 109
1, 209714, Control_c, 0, 67, 63
1, 209721, Note_off_c, 0, 77, 0
1, 209727, Note_on_c, 0, 65, 46
1, 209729, Control_c, 0, 64, 110
1, 209729, Control_c, 0, 67, 63
1, 209736, Note_on_c, 0, 77, 16
1, 209744, Control_c, 0, 67, 64
1, 209751, Note_off_c, 0, 86, 48
1, 209754, Note_off_c, 0, 53, 37
1, 209758, Control_c, 0, 64, 110
1, 209764, Note_off_c, 0, 58, 20
1, 209773, Control_c, 0, 64, 111
1, 209775, Note_on_c, 0, 62, 52
1, 209802, Control_c, 0, 64, 112
1, 209810, Note_off_c, 0, 77, 39
1, 209817, Note_on_c, 0, 74, 64
1, 209836, Note_off_c, 0, 65, 32
1, 209839, Poly_aftertouch_c, 0, 81, 0
1, 209844, Note_on_c, 0, 58, 31
1, 209847, Note_off_c, 0, 74, 64
1, 209847, Control_c, 0, 67, 63
1, 209862, Control_c, 0, 64, 112
1, 209894, Note_on_c, 0, 70, 61
1, 209905, Note_off_c, 0, 62, 31
1, 209921, Control_c, 0, 67, 63
1, 209936, Control_c, 0, 67, 62
1, 209939, Note_off_c, 0, 70, 53
1, 209948, Note_on_c, 0, 53, 52
1, 209950, Control_c, 0, 67, 62
1, 209965, Control_c, 0, 67, 61
1, 210021, Note_off_c, 0, 58, 39
1, 210025, Control_c, 0, 64, 112
1, 210040, Control_c, 0, 64, 111
1, 210084, Control_c, 0, 64, 111
1, 210084, Control_c, 0, 67, 61
1, 210136, Control_c, 0, 64, 110
1, 210146, Note_off_c, 0, 53, 34
1, 210150, Control_c, 0, 64, 108
1, 210150, Control_c, 0, 67, 61
1, 210165, Control_c, 0, 64, 104
1, 210165, Control_c, 0, 67, 62
1, 210171, Note_on_c, 0, 44, 81
1, 210180, Control_c, 0, 64, 96
1, 210180, Control_c, 0, 67, 64
1, 210195, Control_c, 0, 64, 86
1, 210195, Control_c, 0, 67, 65
1, 210210, Control_c, 0, 64, 74
1, 210210, Control_c, 0, 67, 66
1, 210225, Control_c, 0, 64, 63
1, 210225, Control_c, 0, 67, 69
1, 210240, Control_c, 0, 64, 59
1, 210240, Control_c, 0, 67, 70
1, 210255, Control_c, 0, 67, 71
1, 210263, Note_on_c, 0, 53, 41
1, 210269, Control_c, 0, 64, 62
1, 210269, Control_c, 0, 67, 71
1, 210284, Control_c, 0, 64, 67
1, 210284, Control_c, 0, 67, 72
1, 210299, Control_c, 0, 64, 73
1, 210299, Control_c, 0, 67, 72
1, 210314, Control_c, 0, 64, 81
1, 210314, Control_c, 0, 67, 73
1, 210321, Note_off_c, 0, 44, 60
1, 210328, Control_c, 0, 64, 92
1, 210328, Control_c, 0, 67, 74
1, 210343, Control_c, 0, 64, 101
1, 210348, Note_on_c, 0, 58, 50
1, 210358, Control_c, 0, 64, 105
1, 210358, Control_c, 0, 67, 75
1, 210373, Control_c, 0, 64, 106
1, 210422, Note_on_c, 0, 62, 52
1, 210432, Control_c, 0, 67, 74
1, 210481, Note_on_c, 0, 65, 51
1, 210537, Control_c, 0, 67, 74
1, 210544, Note_on_c, 0, 70, 65
1, 210570, Note_off_c, 0, 70, 65
1, 210572, Note_off_c, 0, 65, 47
1, 210588, Note_off_c, 0, 62, 34
1, 210613, Note_on_c, 0, 74, 72
1, 210629, Note_off_c, 0, 58, 39
1, 210649, Note_off_c, 0, 74, 55
1, 210679, Note_on_c, 0, 77, 71
1, 210711, Note_on_c, 0, 65, 53
1, 210717, Note_on_c, 0, 86, 61
1, 210726, Note_off_c, 0, 77, 54
1, 210761, Note_off_c, 0, 53, 40
1, 210784, Note_on_c, 0, 82, 69
1, 210791, Note_on_c, 0, 62, 46
1, 210800, Note_off_c, 0, 65, 52
1, 210815, Note_off_c, 0, 86, 46
1, 210818, Control_c, 0, 67, 73
1, 210821, Note_on_c, 0, 77, 58
1, 210822, Note_on_c, 0, 58, 53
1, 210848, Control_c, 0, 67, 73
1, 210854, Note_off_c, 0, 82, 61
1, 210860, Note_off_c, 0, 77, 59
1, 210881, Note_on_c, 0, 74, 67
1, 210892, Note_off_c, 0, 62, 34
1, 210916, Note_off_c, 0, 74, 60
1, 210929, Note_on_c, 0, 53, 53
1, 210932, Note_off_c, 0, 58, 58
1, 210960, Note_on_c, 0, 70, 69
1, 210960, Note_off_c, 0, 53, 54
1, 210979, Note_off_c, 0, 70, 62
1, 211003, Control_c, 0, 67, 73
1, 211033, Control_c, 0, 64, 105
1, 211078, Control_c, 0, 64, 105
1, 211107, Control_c, 0, 64, 104
1, 211122, Control_c, 0, 64, 103
1, 211137, Control_c, 0, 64, 102
1, 211152, Control_c, 0, 64, 101
1, 211167, Control_c, 0, 64, 99
1, 211182, Control_c, 0, 64, 96
1, 211182, Control_c, 0, 67, 73
1, 211196, Control_c, 0, 64, 92
1, 211196, Control_c, 0, 67, 72
1, 211211, Control_c, 0, 64, 87
1, 211218, Note_on_c, 0, 43, 69
1, 211226, Control_c, 0, 64, 80
1, 211227, Note_on_c, 0, 74, 75
1, 211241, Control_c, 0, 64, 71
1, 211256, Control_c, 0, 64, 62
1, 211271, Control_c, 0, 64, 55
1, 211286, Control_c, 0, 64, 53
1, 211301, Control_c, 0, 64, 54
1, 211316, Control_c, 0, 64, 59
1, 211331, Control_c, 0, 64, 65
1, 211340, Note_on_c, 0, 83, 76
1, 211346, Control_c, 0, 64, 73
1, 211346, Control_c, 0, 67, 73
1, 211360, Control_c, 0, 64, 83
1, 211361, Note_off_c, 0, 74, 60
1, 211375, Control_c, 0, 64, 95
1, 211384, Note_off_c, 0, 43, 61
1, 211390, Control_c, 0, 64, 105
1, 211405, Control_c, 0, 64, 111
1, 211420, Control_c, 0, 64, 117
1, 211435, Control_c, 0, 64, 127
1, 211449, Control_c, 0, 67, 72
1, 211453, Note_on_c, 0, 91, 87
1, 211456, Note_off_c, 0, 83, 55
1, 211497, Note_off_c, 0, 91, 64
1, 211538, Control_c, 0, 67, 72
1, 211553, Control_c, 0, 67, 71
1, 211580, Note_on_c, 0, 55, 39
1, 211582, Control_c, 0, 67, 71
1, 211612, Control_c, 0, 67, 70
1, 211614, Note_on_c, 0, 59, 45
1, 211659, Note_on_c, 0, 62, 64
1, 211672, Note_on_c, 0, 71, 68
1, 211679, Control_c, 0, 67, 70
1, 211719, Note_off_c, 0, 71, 58
1, 211724, Control_c, 0, 67, 70
1, 211742, Note_on_c, 0, 67, 56
1, 211747, Note_on_c, 0, 74, 67
1, 211778, Note_off_c, 0, 74, 65
1, 211811, Control_c, 0, 67, 71
1, 211813, Note_on_c, 0, 83, 74
1, 211822, Poly_aftertouch_c, 0, 76, 127
1, 211824, Note_on_c, 0, 79, 57
1, 211854, Poly_aftertouch_c, 0, 76, 0
1, 211856, Note_off_c, 0, 79, 62
1, 211857, Note_off_c, 0, 62, 34
1, 211864, Note_off_c, 0, 67, 32
1, 211870, Note_off_c, 0, 83, 57
1, 211876, Note_on_c, 0, 86, 60
1, 211918, Note_on_c, 0, 84, 24
1, 211924, Note_off_c, 0, 86, 0
1, 211924, Note_on_c, 0, 86, 6
1, 211933, Note_on_c, 0, 83, 48
1, 211956, Note_off_c, 0, 84, 32
1, 211957, Note_on_c, 0, 79, 54
1, 211966, Note_off_c, 0, 83, 59
1, 211971, Note_off_c, 0, 86, 39
1, 211972, Note_on_c, 0, 67, 50
1, 211976, Note_off_c, 0, 79, 62
1, 211984, Note_off_c, 0, 59, 39
1, 211995, Note_on_c, 0, 74, 68
1, 212014, Note_off_c, 0, 55, 40
1, 212019, Control_c, 0, 67, 70
1, 212020, Note_on_c, 0, 62, 49
1, 212043, Note_off_c, 0, 74, 47
1, 212049, Control_c, 0, 67, 70
1, 212064, Control_c, 0, 67, 69
1, 212067, Note_on_c, 0, 71, 64
1, 212079, Control_c, 0, 67, 69
1, 212088, Note_off_c, 0, 67, 35
1, 212094, Control_c, 0, 67, 68
1, 212096, Note_on_c, 0, 59, 59
1, 212098, Note_off_c, 0, 71, 63
1, 212109, Control_c, 0, 67, 68
1, 212124, Control_c, 0, 67, 67
1, 212138, Control_c, 0, 67, 66
1, 212139, Note_off_c, 0, 62, 33
1, 212153, Control_c, 0, 67, 65
1, 212168, Control_c, 0, 67, 65
1, 212183, Control_c, 0, 67, 64
1, 212197, Control_c, 0, 67, 63
1, 212201, Note_on_c, 0, 55, 56
1, 212212, Control_c, 0, 67, 60
1, 212227, Control_c, 0, 67, 57
1, 212242, Control_c, 0, 67, 53
1, 212257, Control_c, 0, 67, 51
1, 212271, Control_c, 0, 67, 50
1, 212286, Control_c, 0, 67, 51
1, 212301, Control_c, 0, 67, 51
1, 212305, Note_off_c, 0, 59, 31
1, 212316, Control_c, 0, 67, 52
1, 212331, Control_c, 0, 64, 117
1, 212331, Control_c, 0, 67, 53
1, 212345, Control_c, 0, 64, 110
1, 212345, Control_c, 0, 67, 54
1, 212360, Control_c, 0, 64, 101
1, 212360, Control_c, 0, 67, 55
1, 212383, Control_c, 0, 64, 92
1, 212383, Control_c, 0, 67, 56
1, 212384, Note_on_c, 0, 41, 77
1, 212398, Control_c, 0, 64, 81
1, 212398, Control_c, 0, 67, 57
1, 212412, Control_c, 0, 64, 69
1, 212412, Control_c, 0, 67, 58
1, 212419, Note_off_c, 0, 55, 37
1, 212427, Control_c, 0, 64, 58
1, 212427, Control_c, 0, 67, 58
1, 212442, Control_c, 0, 64, 53
1, 212457, Control_c, 0, 64, 54
1, 212472, Control_c, 0, 64, 61
1, 212486, Control_c, 0, 64, 70
1, 212501, Control_c, 0, 64, 80
1, 212516, Control_c, 0, 64, 95
1, 212516, Control_c, 0, 67, 59
1, 212530, Control_c, 0, 64, 121
1, 212536, Note_off_c, 0, 41, 61
1, 212541, Note_on_c, 0, 55, 49
1, 212545, Control_c, 0, 64, 127
1, 212592, Note_on_c, 0, 59, 49
1, 212604, Control_c, 0, 67, 58
1, 212645, Note_on_c, 0, 62, 60
1, 212649, Control_c, 0, 67, 58
1, 212693, Control_c, 0, 67, 58
1, 212720, Note_on_c, 0, 67, 59
1, 212757, Note_on_c, 0, 71, 46
1, 212781, Note_off_c, 0, 71, 57
1, 212797, Note_on_c, 0, 74, 70
1, 212821, Note_off_c, 0, 67, 34
1, 212835, Note_off_c, 0, 62, 35
1, 212854, Note_off_c, 0, 59, 40
1, 212877, Note_off_c, 0, 74, 35
1, 212884, Note_on_c, 0, 83, 52
1, 212898, Note_on_c, 0, 81, 53
1, 212916, Control_c, 0, 67, 58
1, 212918, Note_off_c, 0, 81, 61
1, 212919, Note_off_c, 0, 83, 53
1, 212924, Note_on_c, 0, 86, 64
1, 212930, Note_on_c, 0, 67, 61
1, 212931, Control_c, 0, 67, 57
1, 212946, Control_c, 0, 67, 57
1, 212955, Note_off_c, 0, 55, 38
1, 212961, Control_c, 0, 67, 55
1, 212976, Control_c, 0, 67, 54
1, 212983, Note_on_c, 0, 79, 39
1, 212984, Note_off_c, 0, 67, 61
1, 212990, Note_on_c, 0, 83, 63
1, 212990, Note_off_c, 0, 86, 58
1, 212991, Note_on_c, 0, 62, 53
1, 212991, Control_c, 0, 67, 52
1, 213006, Control_c, 0, 67, 50
1, 213020, Control_c, 0, 67, 48
1, 213028, Note_off_c, 0, 83, 57
1, 213035, Control_c, 0, 67, 42
1, 213050, Control_c, 0, 67, 30
1, 213052, Note_off_c, 0, 79, 58
1, 213065, Control_c, 0, 67, 16
1, 213068, Note_on_c, 0, 74, 68
1, 213074, Note_on_c, 0, 59, 43
1, 213080, Control_c, 0, 67, 0
1, 213132, Note_on_c, 0, 55, 53
1, 213144, Note_off_c, 0, 74, 37
1, 213152, Note_on_c, 0, 71, 64
1, 213154, Note_off_c, 0, 59, 53
1, 213162, Note_off_c, 0, 62, 33
1, 213168, Note_off_c, 0, 55, 61
1, 213178, Note_off_c, 0, 71, 65
1, 213441, Control_c, 0, 64, 123
1, 213454, Note_on_c, 0, 40, 73
1, 213456, Control_c, 0, 64, 109
1, 213459, Note_on_c, 0, 76, 62
1, 213471, Control_c, 0, 64, 99
1, 213486, Control_c, 0, 64, 89
1, 213501, Control_c, 0, 64, 77
1, 213516, Control_c, 0, 64, 67
1, 213531, Control_c, 0, 64, 60
1, 213545, Control_c, 0, 64, 56
1, 213569, Note_on_c, 0, 83, 67
1, 213575, Control_c, 0, 64, 57
1, 213590, Control_c, 0, 64, 62
1, 213596, Note_off_c, 0, 76, 49
1, 213605, Control_c, 0, 64, 68
1, 213619, Control_c, 0, 64, 76
1, 213634, Control_c, 0, 64, 88
1, 213650, Control_c, 0, 64, 106
1, 213652, Note_off_c, 0, 40, 61
1, 213665, Control_c, 0, 64, 117
1, 213680, Control_c, 0, 64, 127
1, 213703, Note_on_c, 0, 92, 81
1, 213715, Note_off_c, 0, 83, 59
1, 213749, Note_off_c, 0, 92, 61
1, 213871, Note_on_c, 0, 56, 49
1, 213926, Note_on_c, 0, 59, 53
1, 213963, Note_on_c, 0, 64, 61
1, 213998, Note_on_c, 0, 71, 61
1, 214040, Note_on_c, 0, 68, 56
1, 214062, Note_on_c, 0, 76, 64
1, 214070, Note_off_c, 0, 71, 58
1, 214096, Note_off_c, 0, 76, 60
1, 214111, Note_on_c, 0, 80, 59
1, 214151, Note_on_c, 0, 83, 57
1, 214164, Note_off_c, 0, 68, 35
1, 214177, Note_off_c, 0, 80, 61
1, 214186, Note_off_c, 0, 64, 31
1, 214197, Note_on_c, 0, 88, 68
1, 214207, Note_off_c, 0, 83, 58
1, 214249, Note_off_c, 0, 88, 57
1, 214251, Note_on_c, 0, 83, 50
1, 214299, Note_on_c, 0, 68, 47
1, 214309, Note_off_c, 0, 59, 35
1, 214316, Note_on_c, 0, 80, 61
1, 214341, Note_off_c, 0, 83, 56
1, 214358, Note_on_c, 0, 76, 57
1, 214362, Note_on_c, 0, 64, 46
1, 214407, Note_off_c, 0, 56, 40
1, 214415, Note_off_c, 0, 80, 55
1, 214434, Note_on_c, 0, 71, 58
1, 214444, Note_off_c, 0, 68, 41
1, 214446, Note_off_c, 0, 76, 58
1, 214450, Note_on_c, 0, 59, 45
1, 214466, Note_off_c, 0, 71, 62
1, 214575, Note_on_c, 0, 56, 49
1, 214658, Note_off_c, 0, 59, 34
1, 214790, Note_on_c, 0, 38, 78
1, 214806, Control_c, 0, 64, 115
1, 214820, Note_off_c, 0, 56, 37
1, 214821, Control_c, 0, 64, 104
1, 214836, Control_c, 0, 64, 91
1, 214851, Control_c, 0, 64, 76
1, 214858, Note_off_c, 0, 64, 6
1, 214866, Control_c, 0, 64, 64
1, 214880, Control_c, 0, 64, 54
1, 214895, Control_c, 0, 64, 52
1, 214910, Control_c, 0, 64, 53
1, 214924, Control_c, 0, 64, 60
1, 214939, Control_c, 0, 64, 67
1, 214952, Note_on_c, 0, 56, 40
1, 214954, Control_c, 0, 64, 74
1, 214969, Control_c, 0, 64, 85
1, 214984, Control_c, 0, 64, 93
1, 214998, Control_c, 0, 64, 96
1, 215000, Note_off_c, 0, 38, 61
1, 215013, Control_c, 0, 64, 97
1, 215021, Note_on_c, 0, 59, 46
1, 215028, Control_c, 0, 64, 98
1, 215043, Control_c, 0, 64, 100
1, 215058, Control_c, 0, 64, 102
1, 215072, Control_c, 0, 64, 103
1, 215102, Control_c, 0, 64, 104
1, 215111, Note_on_c, 0, 64, 49
1, 215225, Note_on_c, 0, 68, 56
1, 215310, Note_on_c, 0, 71, 61
1, 215410, Note_on_c, 0, 76, 60
1, 215441, Note_off_c, 0, 71, 36
1, 215479, Note_off_c, 0, 68, 34
1, 215483, Note_on_c, 0, 80, 58
1, 215519, Note_off_c, 0, 76, 33
1, 215558, Note_on_c, 0, 83, 54
1, 215565, Note_off_c, 0, 80, 57
1, 215659, Note_on_c, 0, 88, 53
1, 215659, Note_off_c, 0, 83, 56
1, 215674, Control_c, 0, 64, 104
1, 215703, Control_c, 0, 64, 105
1, 215732, Note_off_c, 0, 88, 51
1, 215733, Control_c, 0, 64, 105
1, 215741, Note_on_c, 0, 83, 50
1, 215762, Control_c, 0, 64, 106
1, 215792, Control_c, 0, 64, 106
1, 215817, Note_on_c, 0, 80, 56
1, 215821, Control_c, 0, 64, 107
1, 215885, Note_off_c, 0, 83, 41
1, 215894, Note_on_c, 0, 76, 57
1, 215926, Note_off_c, 0, 80, 46
1, 215930, Note_off_c, 0, 64, 24
1, 215947, Note_off_c, 0, 59, 39
1, 215970, Note_on_c, 0, 68, 44
1, 215996, Note_on_c, 0, 71, 41
1, 216054, Note_off_c, 0, 76, 33
1, 216064, Note_off_c, 0, 71, 54
1, 216087, Note_on_c, 0, 64, 40
1, 216104, Control_c, 0, 67, 16
1, 216106, Note_off_c, 0, 68, 33
1, 216109, Note_off_c, 0, 56, 41
1, 216126, Control_c, 0, 67, 18
1, 216141, Control_c, 0, 67, 20
1, 216156, Control_c, 0, 67, 23
1, 216170, Control_c, 0, 67, 25
1, 216173, Note_on_c, 0, 59, 39
1, 216185, Control_c, 0, 67, 27
1, 216195, Note_off_c, 0, 64, 0
1, 216200, Control_c, 0, 67, 30
1, 216215, Control_c, 0, 67, 31
1, 216230, Control_c, 0, 67, 33
1, 216244, Control_c, 0, 67, 34
1, 216247, Poly_aftertouch_c, 0, 64, 0
1, 216259, Control_c, 0, 67, 36
1, 216274, Control_c, 0, 67, 38
1, 216289, Control_c, 0, 67, 41
1, 216304, Control_c, 0, 67, 44
1, 216318, Control_c, 0, 67, 48
1, 216324, Note_on_c, 0, 56, 44
1, 216333, Control_c, 0, 67, 52
1, 216348, Control_c, 0, 67, 56
1, 216363, Control_c, 0, 67, 60
1, 216377, Control_c, 0, 67, 63
1, 216381, Note_off_c, 0, 59, 39
1, 216392, Control_c, 0, 67, 65
1, 216407, Control_c, 0, 67, 67
1, 216422, Control_c, 0, 67, 68
1, 216436, Note_off_c, 0, 56, 34
1, 216437, Control_c, 0, 67, 69
1, 216452, Control_c, 0, 67, 71
1, 216467, Control_c, 0, 67, 72
1, 216482, Control_c, 0, 67, 73
1, 216496, Control_c, 0, 67, 75
1, 216511, Control_c, 0, 64, 106
1, 216511, Control_c, 0, 67, 76
1, 216526, Control_c, 0, 64, 106
1, 216526, Control_c, 0, 67, 77
1, 216541, Control_c, 0, 67, 79
1, 216556, Control_c, 0, 67, 80
1, 216570, Control_c, 0, 64, 105
1, 216570, Control_c, 0, 67, 82
1, 216585, Control_c, 0, 64, 105
1, 216585, Control_c, 0, 67, 83
1, 216600, Control_c, 0, 64, 104
1, 216600, Control_c, 0, 67, 85
1, 216615, Control_c, 0, 64, 103
1, 216615, Control_c, 0, 67, 86
1, 216630, Control_c, 0, 64, 103
1, 216630, Control_c, 0, 67, 88
1, 216644, Control_c, 0, 64, 102
1, 216644, Control_c, 0, 67, 90
1, 216659, Control_c, 0, 64, 101
1, 216659, Control_c, 0, 67, 91
1, 216674, Control_c, 0, 64, 100
1, 216674, Control_c, 0, 67, 93
1, 216688, Control_c, 0, 64, 99
1, 216688, Control_c, 0, 67, 95
1, 216703, Control_c, 0, 64, 98
1, 216703, Control_c, 0, 67, 96
1, 216718, Control_c, 0, 64, 98
1, 216718, Control_c, 0, 67, 98
1, 216733, Control_c, 0, 64, 97
1, 216733, Control_c, 0, 67, 100
1, 216748, Control_c, 0, 64, 96
1, 216748, Control_c, 0, 67, 101
1, 216762, Control_c, 0, 64, 95
1, 216762, Control_c, 0, 67, 103
1, 216777, Control_c, 0, 64, 92
1, 216777, Control_c, 0, 67, 104
1, 216779, Note_on_c, 0, 37, 57
1, 216792, Control_c, 0, 64, 90
1, 216792, Control_c, 0, 67, 106
1, 216807, Control_c, 0, 64, 86
1, 216807, Control_c, 0, 67, 108
1, 216822, Control_c, 0, 64, 83
1, 216822, Control_c, 0, 67, 109
1, 216838, Control_c, 0, 64, 78
1, 216838, Control_c, 0, 67, 110
1, 216853, Control_c, 0, 64, 74
1, 216853, Control_c, 0, 67, 112
1, 216875, Control_c, 0, 64, 70
1, 216875, Control_c, 0, 67, 113
1, 216890, Control_c, 0, 64, 67
1, 216890, Control_c, 0, 67, 115
1, 216905, Control_c, 0, 64, 64
1, 216905, Control_c, 0, 67, 118
1, 216919, Control_c, 0, 64, 61
1, 216919, Control_c, 0, 67, 121
1, 216934, Control_c, 0, 64, 58
1, 216934, Control_c, 0, 67, 124
1, 216949, Control_c, 0, 64, 54
1, 216949, Control_c, 0, 67, 127
1, 216964, Control_c, 0, 64, 49
1, 216964, Control_c, 0, 67, 127
1, 216979, Control_c, 0, 64, 46
1, 216993, Control_c, 0, 64, 44
1, 217008, Control_c, 0, 64, 44
1, 217053, Control_c, 0, 64, 45
1, 217067, Control_c, 0, 64, 52
1, 217082, Control_c, 0, 64, 58
1, 217097, Control_c, 0, 64, 64
1, 217112, Control_c, 0, 64, 67
1, 217126, Control_c, 0, 64, 70
1, 217141, Control_c, 0, 64, 72
1, 217156, Control_c, 0, 64, 74
1, 217171, Control_c, 0, 64, 76
1, 217186, Control_c, 0, 64, 78
1, 217186, Control_c, 0, 67, 127
1, 217200, Control_c, 0, 64, 80
1, 217200, Control_c, 0, 67, 125
1, 217215, Control_c, 0, 64, 83
1, 217215, Control_c, 0, 67, 123
1, 217220, Note_on_c, 0, 44, 46
1, 217230, Control_c, 0, 64, 85
1, 217230, Control_c, 0, 67, 122
1, 217245, Note_off_c, 0, 37, 59
1, 217245, Control_c, 0, 64, 88
1, 217245, Control_c, 0, 67, 121
1, 217260, Control_c, 0, 64, 90
1, 217260, Control_c, 0, 67, 120
1, 217275, Control_c, 0, 64, 93
1, 217275, Control_c, 0, 67, 119
1, 217289, Control_c, 0, 64, 95
1, 217289, Control_c, 0, 67, 119
1, 217304, Control_c, 0, 64, 98
1, 217304, Control_c, 0, 67, 118
1, 217319, Control_c, 0, 64, 101
1, 217319, Control_c, 0, 67, 117
1, 217334, Control_c, 0, 64, 104
1, 217334, Control_c, 0, 67, 116
1, 217349, Control_c, 0, 64, 108
1, 217349, Control_c, 0, 67, 116
1, 217364, Control_c, 0, 64, 112
1, 217364, Control_c, 0, 67, 115
1, 217379, Control_c, 0, 64, 118
1, 217379, Control_c, 0, 67, 115
1, 217382, Note_on_c, 0, 49, 44
1, 217393, Control_c, 0, 64, 127
1, 217393, Control_c, 0, 67, 114
1, 217403, Note_off_c, 0, 44, 39
1, 217423, Control_c, 0, 67, 113
1, 217438, Control_c, 0, 67, 112
1, 217453, Control_c, 0, 67, 111
1, 217467, Control_c, 0, 67, 109
1, 217469, Note_on_c, 0, 53, 46
1, 217482, Control_c, 0, 67, 106
1, 217497, Control_c, 0, 67, 103
1, 217511, Note_off_c, 0, 53, 57
1, 217511, Control_c, 0, 67, 99
1, 217519, Note_off_c, 0, 49, 44
1, 217526, Control_c, 0, 67, 94
1, 217531, Note_on_c, 0, 56, 43
1, 217541, Control_c, 0, 67, 91
1, 217556, Control_c, 0, 67, 89
1, 217571, Control_c, 0, 67, 88
1, 217581, Note_off_c, 0, 56, 52
1, 217585, Control_c, 0, 67, 86
1, 217588, Note_on_c, 0, 61, 46
1, 217600, Control_c, 0, 67, 84
1, 217623, Control_c, 0, 67, 81
1, 217638, Control_c, 0, 67, 78
1, 217653, Control_c, 0, 67, 75
1, 217662, Note_off_c, 0, 61, 57
1, 217668, Control_c, 0, 67, 73
1, 217683, Control_c, 0, 67, 72
1, 217687, Note_on_c, 0, 65, 45
1, 217698, Control_c, 0, 67, 70
1, 217713, Control_c, 0, 67, 67
1, 217728, Control_c, 0, 67, 63
1, 217742, Control_c, 0, 67, 59
1, 217757, Control_c, 0, 67, 57
1, 217772, Control_c, 0, 67, 55
1, 217787, Control_c, 0, 67, 53
1, 217796, Note_off_c, 0, 65, 51
1, 217802, Control_c, 0, 67, 51
1, 217816, Control_c, 0, 67, 48
1, 217831, Control_c, 0, 67, 44
1, 217845, Note_on_c, 0, 68, 68
1, 217846, Control_c, 0, 67, 40
1, 217861, Control_c, 0, 67, 36
1, 217876, Control_c, 0, 67, 30
1, 217890, Control_c, 0, 67, 35
1, 217905, Control_c, 0, 67, 25
1, 217935, Control_c, 0, 67, 0
1, 218085, Note_on_c, 0, 73, 47
1, 218234, Note_on_c, 0, 77, 42
1, 218354, Note_on_c, 0, 80, 41
1, 218571, Note_on_c, 0, 85, 38
1, 218853, Note_on_c, 0, 89, 42
1, 219334, Note_on_c, 0, 92, 40
1, 220012, Note_off_c, 0, 77, 35
1, 220203, Note_off_c, 0, 73, 36
1, 220264, Note_off_c, 0, 68, 37
1, 220268, Note_off_c, 0, 92, 46
1, 220345, Note_off_c, 0, 89, 32
1, 220396, Note_off_c, 0, 85, 31
1, 220488, Note_off_c, 0, 80, 35
1, 220901, Control_c, 0, 64, 124
1, 220916, Control_c, 0, 64, 119
1, 220931, Control_c, 0, 64, 118
1, 220946, Control_c, 0, 64, 117
1, 220960, Control_c, 0, 64, 117
1, 220975, Control_c, 0, 64, 116
1, 220990, Control_c, 0, 64, 116
1, 221005, Control_c, 0, 64, 115
1, 221020, Control_c, 0, 64, 114
1, 221034, Control_c, 0, 64, 113
1, 221049, Control_c, 0, 64, 111
1, 221064, Control_c, 0, 64, 110
1, 221079, Control_c, 0, 64, 109
1, 221093, Control_c, 0, 64, 108
1, 221108, Control_c, 0, 64, 107
1, 221123, Control_c, 0, 64, 106
1, 221138, Control_c, 0, 64, 105
1, 221153, Control_c, 0, 64, 104
1, 221168, Control_c, 0, 64, 103
1, 221183, Control_c, 0, 64, 103
1, 221197, Control_c, 0, 64, 102
1, 221212, Control_c, 0, 64, 102
1, 221257, Control_c, 0, 64, 101
1, 221286, Control_c, 0, 64, 101
1, 221301, Control_c, 0, 64, 100
1, 221316, Control_c, 0, 64, 100
1, 221331, Control_c, 0, 64, 99
1, 221346, Control_c, 0, 64, 98
1, 221367, Control_c, 0, 64, 98
1, 221372, Note_on_c, 0, 34, 48
1, 221382, Control_c, 0, 64, 96
1, 221397, Control_c, 0, 64, 94
1, 221412, Control_c, 0, 64, 91
1, 221427, Control_c, 0, 64, 86
1, 221442, Control_c, 0, 64, 80
1, 221457, Control_c, 0, 64, 71
1, 221472, Control_c, 0, 64, 65
1, 221486, Control_c, 0, 64, 60
1, 221501, Control_c, 0, 64, 58
1, 221575, Control_c, 0, 64, 59
1, 221590, Control_c, 0, 64, 63
1, 221605, Control_c, 0, 64, 67
1, 221619, Control_c, 0, 64, 71
1, 221619, Control_c, 0, 67, 16
1, 221636, Control_c, 0, 64, 77
1, 221636, Control_c, 0, 67, 17
1, 221648, Note_off_c, 0, 34, 57
1, 221651, Control_c, 0, 64, 84
1, 221651, Control_c, 0, 67, 19
1, 221665, Control_c, 0, 64, 89
1, 221665, Control_c, 0, 67, 20
1, 221680, Control_c, 0, 64, 91
1, 221680, Control_c, 0, 67, 22
1, 221695, Control_c, 0, 64, 92
1, 221695, Control_c, 0, 67, 23
1, 221709, Control_c, 0, 64, 94
1, 221709, Control_c, 0, 67, 24
1, 221710, Note_on_c, 0, 46, 24
1, 221724, Control_c, 0, 64, 95
1, 221724, Control_c, 0, 67, 25
1, 221739, Control_c, 0, 64, 97
1, 221739, Control_c, 0, 67, 25
1, 221753, Note_off_c, 0, 46, 51
1, 221754, Control_c, 0, 64, 98
1, 221754, Control_c, 0, 67, 26
1, 221769, Control_c, 0, 64, 99
1, 221783, Control_c, 0, 64, 100
1, 221798, Control_c, 0, 64, 102
1, 221800, Note_on_c, 0, 49, 46
1, 221813, Control_c, 0, 64, 104
1, 221828, Control_c, 0, 64, 105
1, 221857, Control_c, 0, 64, 105
1, 221872, Control_c, 0, 64, 106
1, 221887, Control_c, 0, 64, 107
1, 221902, Control_c, 0, 64, 108
1, 221905, Note_on_c, 0, 53, 43
1, 221914, Note_off_c, 0, 49, 53
1, 221916, Control_c, 0, 64, 110
1, 221931, Control_c, 0, 64, 111
1, 221931, Control_c, 0, 67, 25
1, 221946, Control_c, 0, 64, 112
1, 221949, Note_off_c, 0, 53, 48
1, 221961, Note_on_c, 0, 58, 40
1, 221961, Control_c, 0, 64, 112
1, 221976, Control_c, 0, 64, 113
1, 221990, Control_c, 0, 64, 114
1, 221997, Note_on_c, 0, 61, 42
1, 222005, Control_c, 0, 64, 116
1, 222020, Control_c, 0, 64, 117
1, 222035, Control_c, 0, 64, 117
1, 222050, Control_c, 0, 64, 118
1, 222056, Note_off_c, 0, 61, 54
1, 222059, Note_off_c, 0, 58, 36
1, 222065, Control_c, 0, 64, 120
1, 222080, Control_c, 0, 64, 121
1, 222082, Note_on_c, 0, 65, 38
1, 222095, Control_c, 0, 64, 122
1, 222116, Control_c, 0, 64, 123
1, 222176, Control_c, 0, 64, 124
1, 222181, Note_off_c, 0, 65, 37
1, 222193, Note_on_c, 0, 70, 64
1, 222265, Control_c, 0, 64, 127
1, 222279, Control_c, 0, 67, 26
1, 222332, Note_off_c, 0, 70, 51
1, 222381, Note_on_c, 0, 73, 50
1, 222453, Note_on_c, 0, 77, 40
1, 222479, Note_off_c, 0, 77, 53
1, 222494, Note_on_c, 0, 82, 54
1, 222503, Note_off_c, 0, 73, 34
1, 222531, Control_c, 0, 67, 25
1, 222546, Control_c, 0, 67, 24
1, 222554, Note_on_c, 0, 85, 53
1, 222561, Control_c, 0, 67, 24
1, 222576, Control_c, 0, 67, 23
1, 222601, Note_on_c, 0, 89, 51
1, 222603, Note_off_c, 0, 85, 52
1, 222671, Note_on_c, 0, 94, 57
1, 222709, Control_c, 0, 64, 112
1, 222709, Control_c, 0, 67, 24
1, 222724, Control_c, 0, 64, 98
1, 222739, Control_c, 0, 64, 86
1, 222753, Control_c, 0, 64, 73
1, 222759, Note_on_c, 0, 30, 46
1, 222761, Note_off_c, 0, 94, 56
1, 222768, Control_c, 0, 64, 64
1, 222776, Note_off_c, 0, 82, 45
1, 222783, Control_c, 0, 64, 59
1, 222795, Note_off_c, 0, 89, 41
1, 222798, Control_c, 0, 67, 24
1, 222813, Control_c, 0, 64, 64
1, 222828, Control_c, 0, 64, 72
1, 222843, Control_c, 0, 64, 83
1, 222864, Control_c, 0, 64, 100
1, 222871, Note_off_c, 0, 30, 55
1, 222879, Control_c, 0, 64, 119
1, 222894, Control_c, 0, 64, 127
1, 222897, Note_on_c, 0, 42, 50
1, 222925, Note_off_c, 0, 42, 55
1, 223043, Note_on_c, 0, 50, 35
1, 223098, Note_off_c, 0, 50, 44
1, 223139, Note_on_c, 0, 58, 54
1, 223168, Note_off_c, 0, 58, 58
1, 223182, Note_on_c, 0, 61, 46
1, 223190, Control_c, 0, 67, 24
1, 223236, Control_c, 0, 67, 23
1, 223248, Note_on_c, 0, 66, 48
1, 223266, Control_c, 0, 67, 23
1, 223281, Note_off_c, 0, 61, 55
1, 223288, Note_on_c, 0, 70, 42
1, 223332, Note_off_c, 0, 70, 55
1, 223334, Note_off_c, 0, 66, 54
1, 223412, Note_on_c, 0, 73, 72
1, 223414, Control_c, 0, 67, 23
1, 223443, Control_c, 0, 67, 24
1, 223458, Control_c, 0, 67, 24
1, 223473, Control_c, 0, 67, 25
1, 223487, Control_c, 0, 67, 26
1, 223517, Control_c, 0, 67, 26
1, 223547, Control_c, 0, 67, 27
1, 223552, Note_off_c, 0, 73, 55
1, 223576, Note_on_c, 0, 78, 53
1, 223643, Control_c, 0, 67, 27
1, 223653, Note_on_c, 0, 82, 49
1, 223678, Note_off_c, 0, 82, 63
1, 223709, Note_on_c, 0, 85, 48
1, 223717, Note_off_c, 0, 78, 48
1, 223776, Control_c, 0, 67, 27
1, 223791, Control_c, 0, 67, 26
1, 223794, Note_on_c, 0, 90, 48
1, 223806, Control_c, 0, 67, 25
1, 223878, Note_on_c, 0, 94, 46
1, 223934, Note_off_c, 0, 90, 42
1, 223952, Note_on_c, 0, 97, 52
1, 223954, Control_c, 0, 64, 121
1, 223954, Control_c, 0, 67, 26
1, 223969, Control_c, 0, 64, 115
1, 223984, Control_c, 0, 64, 110
1, 223984, Control_c, 0, 67, 26
1, 223999, Control_c, 0, 64, 104
1, 224013, Control_c, 0, 64, 98
1, 224013, Control_c, 0, 67, 27
1, 224029, Control_c, 0, 64, 91
1, 224029, Control_c, 0, 67, 27
1, 224044, Control_c, 0, 64, 83
1, 224044, Control_c, 0, 67, 28
1, 224059, Control_c, 0, 64, 73
1, 224059, Control_c, 0, 67, 29
1, 224074, Control_c, 0, 64, 66
1, 224074, Control_c, 0, 67, 30
1, 224084, Note_on_c, 0, 27, 46
1, 224089, Control_c, 0, 64, 61
1, 224089, Control_c, 0, 67, 32
1, 224103, Control_c, 0, 64, 60
1, 224103, Control_c, 0, 67, 36
1, 224118, Control_c, 0, 67, 40
1, 224133, Control_c, 0, 64, 61
1, 224133, Control_c, 0, 67, 44
1, 224148, Control_c, 0, 64, 64
1, 224148, Control_c, 0, 67, 46
1, 224154, Note_off_c, 0, 97, 47
1, 224163, Control_c, 0, 64, 70
1, 224163, Control_c, 0, 67, 47
1, 224176, Note_off_c, 0, 94, 18
1, 224177, Control_c, 0, 64, 77
1, 224177, Control_c, 0, 67, 49
1, 224192, Control_c, 0, 64, 88
1, 224192, Control_c, 0, 67, 51
1, 224207, Control_c, 0, 64, 99
1, 224207, Control_c, 0, 67, 52
1, 224216, Note_off_c, 0, 85, 38
1, 224222, Control_c, 0, 64, 102
1, 224222, Control_c, 0, 67, 53
1, 224236, Control_c, 0, 64, 103
1, 224239, Note_off_c, 0, 27, 37
1, 224251, Control_c, 0, 64, 103
1, 224266, Control_c, 0, 64, 104
1, 224281, Control_c, 0, 64, 104
1, 224295, Poly_aftertouch_c, 0, 39, 127
1, 224296, Control_c, 0, 64, 105
1, 224328, Poly_aftertouch_c, 0, 39, 0
1, 224392, Control_c, 0, 67, 53
1, 224408, Note_on_c, 0, 51, 40
1, 224422, Control_c, 0, 67, 52
1, 224436, Control_c, 0, 67, 52
1, 224496, Control_c, 0, 67, 51
1, 224509, Note_on_c, 0, 54, 40
1, 224513, Note_off_c, 0, 51, 34
1, 224556, Note_off_c, 0, 54, 46
1, 224556, Control_c, 0, 67, 51
1, 224557, Note_on_c, 0, 58, 43
1, 224571, Control_c, 0, 67, 50
1, 224585, Control_c, 0, 67, 49
1, 224590, Note_off_c, 0, 58, 51
1, 224600, Control_c, 0, 67, 48
1, 224615, Control_c, 0, 67, 47
1, 224616, Note_on_c, 0, 63, 42
1, 224629, Control_c, 0, 64, 105
1, 224629, Control_c, 0, 67, 46
1, 224644, Control_c, 0, 67, 45
1, 224659, Control_c, 0, 64, 106
1, 224659, Control_c, 0, 67, 44
1, 224674, Control_c, 0, 64, 107
1, 224684, Note_on_c, 0, 66, 49
1, 224689, Control_c, 0, 64, 108
1, 224703, Control_c, 0, 64, 109
1, 224718, Control_c, 0, 64, 110
1, 224724, Note_on_c, 0, 70, 38
1, 224733, Control_c, 0, 64, 111
1, 224733, Control_c, 0, 67, 44
1, 224748, Control_c, 0, 64, 112
1, 224763, Control_c, 0, 64, 114
1, 224777, Control_c, 0, 64, 116
1, 224790, Note_off_c, 0, 63, 39
1, 224792, Control_c, 0, 64, 116
1, 224807, Control_c, 0, 64, 117
1, 224814, Note_off_c, 0, 66, 45
1, 224822, Control_c, 0, 64, 117
1, 224822, Control_c, 0, 67, 44
1, 224848, Note_off_c, 0, 70, 33
1, 224882, Note_on_c, 0, 75, 64
1, 224882, Control_c, 0, 67, 45
1, 224912, Control_c, 0, 67, 45
1, 224927, Control_c, 0, 67, 46
1, 224941, Control_c, 0, 67, 46
1, 224971, Control_c, 0, 67, 47
1, 224986, Control_c, 0, 67, 47
1, 225016, Control_c, 0, 67, 48
1, 225139, Note_on_c, 0, 78, 41
1, 225216, Control_c, 0, 67, 47
1, 225245, Control_c, 0, 64, 117
1, 225245, Control_c, 0, 67, 47
1, 225256, Note_on_c, 0, 82, 42
1, 225260, Control_c, 0, 64, 116
1, 225275, Control_c, 0, 67, 46
1, 225290, Control_c, 0, 64, 116
1, 225290, Control_c, 0, 67, 45
1, 225305, Control_c, 0, 67, 44
1, 225320, Control_c, 0, 64, 115
1, 225320, Control_c, 0, 67, 41
1, 225334, Control_c, 0, 67, 40
1, 225349, Control_c, 0, 67, 36
1, 225364, Control_c, 0, 64, 115
1, 225364, Control_c, 0, 67, 33
1, 225372, Note_on_c, 0, 87, 47
1, 225378, Control_c, 0, 67, 24
1, 225393, Control_c, 0, 64, 114
1, 225393, Control_c, 0, 67, 16
1, 225408, Control_c, 0, 67, 33
1, 225423, Control_c, 0, 67, 27
1, 225438, Control_c, 0, 67, 23
1, 225452, Control_c, 0, 67, 18
1, 225497, Control_c, 0, 67, 0
1, 225556, Note_on_c, 0, 90, 43
1, 225556, Control_c, 0, 64, 114
1, 225793, Note_on_c, 0, 94, 50
1, 225809, Control_c, 0, 64, 113
1, 225839, Control_c, 0, 64, 113
1, 225890, Control_c, 0, 64, 112
1, 225905, Control_c, 0, 64, 111
1, 225920, Control_c, 0, 64, 110
1, 225935, Control_c, 0, 64, 110
1, 225950, Control_c, 0, 64, 109
1, 225964, Control_c, 0, 64, 108
1, 225979, Control_c, 0, 64, 107
1, 225994, Control_c, 0, 64, 106
1, 226009, Control_c, 0, 64, 105
1, 226023, Control_c, 0, 64, 104
1, 226038, Control_c, 0, 64, 103
1, 226053, Control_c, 0, 64, 103
1, 226082, Control_c, 0, 64, 102
1, 226112, Control_c, 0, 64, 102
1, 226156, Control_c, 0, 64, 101
1, 226241, Note_on_c, 0, 99, 48
1, 226245, Control_c, 0, 64, 101
1, 226319, Control_c, 0, 64, 100
1, 226408, Control_c, 0, 64, 100
1, 226562, Note_off_c, 0, 99, 41
1, 226617, Note_off_c, 0, 82, 42
1, 227021, Note_off_c, 0, 87, 43
1, 227289, Note_off_c, 0, 90, 44
1, 227406, Note_off_c, 0, 94, 41
1, 228402, Note_on_c, 0, 101, 63
1, 228410, Note_on_c, 0, 89, 45
1, 228426, Note_on_c, 0, 77, 39
1, 228519, Note_off_c, 0, 89, 43
1, 228521, Control_c, 0, 64, 99
1, 228536, Control_c, 0, 64, 98
1, 228550, Control_c, 0, 64, 97
1, 228554, Note_off_c, 0, 78, 34
1, 228555, Note_off_c, 0, 75, 34
1, 228565, Control_c, 0, 64, 96
1, 228580, Control_c, 0, 64, 95
1, 228691, Note_off_c, 0, 101, 36
1, 229358, Control_c, 0, 64, 95
1, 229373, Control_c, 0, 64, 94
1, 229386, Note_on_c, 0, 99, 60
1, 229388, Control_c, 0, 64, 93
1, 229395, Note_on_c, 0, 87, 45
1, 229395, Note_on_c, 0, 75, 42
1, 229403, Control_c, 0, 64, 91
1, 229417, Control_c, 0, 64, 88
1, 229432, Control_c, 0, 64, 83
1, 229447, Control_c, 0, 64, 78
1, 229462, Control_c, 0, 64, 73
1, 229477, Control_c, 0, 64, 73
1, 229491, Control_c, 0, 64, 73
1, 229506, Control_c, 0, 64, 74
1, 229521, Control_c, 0, 64, 77
1, 229536, Control_c, 0, 64, 80
1, 229550, Control_c, 0, 64, 85
1, 229565, Control_c, 0, 64, 88
1, 229580, Control_c, 0, 64, 89
1, 229604, Note_off_c, 0, 77, 28
1, 229618, Control_c, 0, 64, 90
1, 229663, Control_c, 0, 64, 90
1, 229771, Note_off_c, 0, 99, 43
1, 229835, Note_off_c, 0, 87, 42
1, 230686, Note_on_c, 0, 94, 49
1, 230694, Control_c, 0, 64, 90
1, 230698, Note_on_c, 0, 70, 35
1, 230709, Control_c, 0, 64, 89
1, 230721, Note_on_c, 0, 82, 23
1, 230723, Control_c, 0, 64, 88
1, 230738, Control_c, 0, 64, 87
1, 230753, Control_c, 0, 64, 85
1, 230768, Control_c, 0, 64, 81
1, 230783, Control_c, 0, 64, 77
1, 230797, Control_c, 0, 64, 73
1, 230812, Control_c, 0, 64, 70
1, 230827, Control_c, 0, 64, 70
1, 230869, Note_off_c, 0, 70, 0
1, 230871, Control_c, 0, 64, 71
1, 230886, Control_c, 0, 64, 73
1, 230901, Control_c, 0, 64, 77
1, 230906, Poly_aftertouch_c, 0, 70, 127
1, 230915, Control_c, 0, 64, 82
1, 230930, Control_c, 0, 64, 86
1, 230943, Note_off_c, 0, 75, 38
1, 230945, Control_c, 0, 64, 87
1, 231005, Control_c, 0, 64, 88
1, 231019, Control_c, 0, 64, 89
1, 231034, Control_c, 0, 64, 89
1, 231049, Control_c, 0, 64, 90
1, 231064, Control_c, 0, 64, 90
1, 231130, Control_c, 0, 64, 91
1, 231739, Control_c, 0, 64, 90
1, 231740, Poly_aftertouch_c, 0, 70, 0
1, 232098, Note_off_c, 0, 94, 41
1, 232217, Note_off_c, 0, 82, 43
1, 232310, Control_c, 0, 64, 90
1, 232429, Control_c, 0, 64, 89
1, 232487, Control_c, 0, 64, 89
1, 232517, Control_c, 0, 64, 88
1, 232599, Control_c, 0, 64, 88
1, 233132, Control_c, 0, 64, 87
1, 233236, Control_c, 0, 64, 87
1, 233510, Control_c, 0, 64, 86
1, 233598, Control_c, 0, 64, 86
1, 233674, Control_c, 0, 64, 85
1, 233762, Control_c, 0, 64, 85
1, 233836, Control_c, 0, 64, 84
1, 233881, Control_c, 0, 64, 84
1, 233970, Control_c, 0, 64, 83
1, 234014, Control_c, 0, 64, 83
1, 234029, Control_c, 0, 64, 82
1, 234044, Note_on_c, 0, 63, 44
1, 234044, Control_c, 0, 64, 82
1, 234059, Control_c, 0, 64, 81
1, 234074, Control_c, 0, 64, 79
1, 234096, Control_c, 0, 64, 76
1, 234111, Control_c, 0, 64, 73
1, 234126, Control_c, 0, 64, 70
1, 234140, Control_c, 0, 64, 67
1, 234155, Control_c, 0, 64, 66
1, 234170, Control_c, 0, 64, 65
1, 234185, Control_c, 0, 64, 63
1, 234200, Control_c, 0, 64, 62
1, 234214, Control_c, 0, 64, 59
1, 234229, Control_c, 0, 64, 56
1, 234244, Control_c, 0, 64, 52
1, 234260, Control_c, 0, 64, 46
1, 234274, Control_c, 0, 64, 42
1, 234289, Control_c, 0, 64, 36
1, 234304, Control_c, 0, 64, 27
1, 234304, Control_c, 0, 67, 16
1, 234319, Control_c, 0, 67, 16
1, 234334, Control_c, 0, 64, 0
1, 234348, Control_c, 0, 67, 17
1, 234378, Control_c, 0, 67, 17
1, 234393, Control_c, 0, 67, 18
1, 234408, Control_c, 0, 67, 18
1, 234424, Control_c, 0, 67, 19
1, 234438, Control_c, 0, 67, 19
1, 234483, Control_c, 0, 67, 20
1, 234645, Control_c, 0, 64, 16
1, 234660, Control_c, 0, 64, 23
1, 234704, Control_c, 0, 64, 24
1, 234719, Control_c, 0, 64, 27
1, 234734, Control_c, 0, 64, 30
1, 234749, Control_c, 0, 64, 32
1, 234764, Control_c, 0, 64, 33
1, 234778, Control_c, 0, 64, 34
1, 234793, Control_c, 0, 64, 35
1, 234808, Control_c, 0, 64, 36
1, 234823, Control_c, 0, 64, 37
1, 234845, Control_c, 0, 64, 39
1, 234845, Control_c, 0, 67, 19
1, 234860, Control_c, 0, 64, 40
1, 234875, Control_c, 0, 64, 42
1, 234889, Control_c, 0, 64, 43
1, 234904, Control_c, 0, 64, 44
1, 234919, Control_c, 0, 64, 44
1, 234934, Control_c, 0, 64, 45
1, 234978, Control_c, 0, 64, 45
1, 235023, Control_c, 0, 64, 46
1, 235053, Control_c, 0, 64, 47
1, 235068, Control_c, 0, 64, 47
1, 235082, Control_c, 0, 64, 48
1, 235097, Control_c, 0, 64, 49
1, 235123, Note_on_c, 0, 65, 46
1, 235127, Control_c, 0, 64, 49
1, 235157, Control_c, 0, 64, 50
1, 235186, Note_off_c, 0, 63, 44
1, 235291, Note_on_c, 0, 63, 55
1, 235348, Note_off_c, 0, 65, 44
1, 235380, Control_c, 0, 64, 50
1, 235394, Control_c, 0, 64, 52
1, 235409, Control_c, 0, 64, 54
1, 235409, Control_c, 0, 67, 19
1, 235424, Control_c, 0, 64, 56
1, 235439, Control_c, 0, 64, 58
1, 235439, Control_c, 0, 67, 18
1, 235454, Control_c, 0, 64, 59
1, 235468, Control_c, 0, 64, 59
1, 235483, Control_c, 0, 64, 60
1, 235483, Control_c, 0, 67, 18
1, 235498, Control_c, 0, 64, 61
1, 235512, Control_c, 0, 64, 61
1, 235512, Control_c, 0, 67, 17
1, 235527, Control_c, 0, 64, 62
1, 235557, Control_c, 0, 67, 17
1, 235572, Control_c, 0, 64, 62
1, 235594, Control_c, 0, 64, 63
1, 235609, Control_c, 0, 64, 63
1, 235624, Control_c, 0, 64, 64
1, 235639, Control_c, 0, 64, 65
1, 235654, Control_c, 0, 64, 65
1, 235668, Control_c, 0, 64, 66
1, 235683, Control_c, 0, 64, 66
1, 235712, Control_c, 0, 64, 67
1, 235727, Control_c, 0, 64, 67
1, 235742, Control_c, 0, 64, 68
1, 235757, Control_c, 0, 64, 68
1, 235801, Control_c, 0, 64, 69
1, 235831, Control_c, 0, 64, 69
1, 235846, Control_c, 0, 64, 70
1, 235860, Control_c, 0, 64, 70
1, 235875, Control_c, 0, 64, 71
1, 235890, Control_c, 0, 64, 71
1, 235905, Control_c, 0, 64, 72
1, 235935, Control_c, 0, 64, 72
1, 235950, Control_c, 0, 64, 73
1, 235965, Control_c, 0, 64, 73
1, 235994, Control_c, 0, 64, 74
1, 236024, Control_c, 0, 64, 74
1, 236054, Control_c, 0, 64, 75
1, 236084, Control_c, 0, 64, 75
1, 236114, Control_c, 0, 64, 76
1, 236143, Control_c, 0, 64, 76
1, 236173, Control_c, 0, 64, 77
1, 236203, Control_c, 0, 64, 77
1, 236232, Control_c, 0, 64, 78
1, 236276, Control_c, 0, 64, 78
1, 236306, Control_c, 0, 64, 79
1, 236321, Control_c, 0, 64, 79
1, 236358, Control_c, 0, 64, 80
1, 236417, Control_c, 0, 64, 80
1, 236680, Note_on_c, 0, 58, 47
1, 236683, Control_c, 0, 67, 17
1, 236683, Note_on_c, 0, 54, 39
1, 236688, Note_on_c, 0, 51, 30
1, 236742, Control_c, 0, 67, 18
1, 236757, Control_c, 0, 64, 79
1, 236772, Control_c, 0, 64, 78
1, 236787, Control_c, 0, 64, 76
1, 236787, Control_c, 0, 67, 18
1, 236802, Control_c, 0, 64, 74
1, 236817, Note_off_c, 0, 63, 46
1, 236817, Control_c, 0, 64, 70
1, 236817, Control_c, 0, 67, 19
1, 236832, Control_c, 0, 64, 66
1, 236847, Control_c, 0, 64, 63
1, 236862, Control_c, 0, 64, 62
1, 236862, Control_c, 0, 67, 19
1, 236877, Control_c, 0, 64, 62
1, 236906, Control_c, 0, 67, 20
1, 236980, Control_c, 0, 64, 62
1, 236995, Control_c, 0, 64, 65
1, 237010, Control_c, 0, 64, 67
1, 237025, Control_c, 0, 64, 69
1, 237039, Control_c, 0, 64, 71
1, 237054, Control_c, 0, 64, 73
1, 237069, Control_c, 0, 64, 74
1, 237091, Control_c, 0, 64, 75
1, 237106, Control_c, 0, 64, 75
1, 237121, Control_c, 0, 64, 76
1, 237136, Control_c, 0, 64, 78
1, 237151, Control_c, 0, 64, 79
1, 237165, Control_c, 0, 64, 80
1, 237180, Control_c, 0, 64, 81
1, 237195, Control_c, 0, 64, 82
1, 237210, Control_c, 0, 64, 82
1, 237225, Control_c, 0, 64, 84
1, 237239, Control_c, 0, 64, 85
1, 237255, Control_c, 0, 64, 87
1, 237270, Control_c, 0, 64, 89
1, 237270, Control_c, 0, 67, 20
1, 237284, Control_c, 0, 64, 92
1, 237284, Control_c, 0, 67, 21
1, 237299, Control_c, 0, 64, 94
1, 237299, Control_c, 0, 67, 21
1, 237314, Control_c, 0, 64, 96
1, 237314, Control_c, 0, 67, 23
1, 237329, Control_c, 0, 64, 99
1, 237329, Control_c, 0, 67, 27
1, 237344, Control_c, 0, 64, 102
1, 237344, Control_c, 0, 67, 30
1, 237359, Control_c, 0, 64, 106
1, 237359, Control_c, 0, 67, 33
1, 237373, Control_c, 0, 64, 110
1, 237373, Control_c, 0, 67, 36
1, 237388, Control_c, 0, 64, 115
1, 237388, Control_c, 0, 67, 38
1, 237403, Control_c, 0, 64, 121
1, 237403, Control_c, 0, 67, 42
1, 237418, Control_c, 0, 64, 127
1, 237418, Control_c, 0, 67, 45
1, 237433, Control_c, 0, 67, 48
1, 237447, Control_c, 0, 67, 51
1, 237462, Control_c, 0, 67, 53
1, 237473, Note_off_c, 0, 54, 42
1, 237477, Control_c, 0, 67, 55
1, 237491, Control_c, 0, 67, 57
1, 237506, Control_c, 0, 67, 59
1, 237521, Control_c, 0, 67, 61
1, 237536, Control_c, 0, 67, 63
1, 237551, Control_c, 0, 67, 65
1, 237566, Control_c, 0, 67, 67
1, 237580, Control_c, 0, 67, 70
1, 237595, Control_c, 0, 67, 72
1, 237611, Control_c, 0, 67, 75
1, 237622, Note_off_c, 0, 58, 39
1, 237626, Control_c, 0, 67, 78
1, 237641, Control_c, 0, 67, 81
1, 237655, Control_c, 0, 67, 84
1, 237670, Control_c, 0, 67, 86
1, 237685, Control_c, 0, 67, 89
1, 237700, Control_c, 0, 67, 91
1, 237715, Control_c, 0, 67, 93
1, 237730, Control_c, 0, 67, 93
1, 237744, Control_c, 0, 67, 94
1, 237759, Control_c, 0, 67, 96
1, 237774, Control_c, 0, 67, 98
1, 237789, Control_c, 0, 67, 101
1, 237804, Control_c, 0, 64, 123
1, 237804, Control_c, 0, 67, 104
1, 237819, Control_c, 0, 64, 122
1, 237819, Control_c, 0, 67, 107
1, 237841, Control_c, 0, 64, 121
1, 237841, Control_c, 0, 67, 110
1, 237856, Control_c, 0, 64, 119
1, 237856, Control_c, 0, 67, 113
1, 237870, Control_c, 0, 64, 118
1, 237870, Control_c, 0, 67, 115
1, 237885, Control_c, 0, 64, 116
1, 237885, Control_c, 0, 67, 117
1, 237900, Control_c, 0, 64, 116
1, 237900, Control_c, 0, 67, 119
1, 237914, Control_c, 0, 64, 115
1, 237914, Control_c, 0, 67, 121
1, 237929, Control_c, 0, 64, 114
1, 237929, Control_c, 0, 67, 122
1, 237944, Control_c, 0, 64, 113
1, 237944, Control_c, 0, 67, 124
1, 237959, Control_c, 0, 64, 112
1, 237959, Control_c, 0, 67, 126
1, 237974, Control_c, 0, 64, 110
1, 237974, Control_c, 0, 67, 127
1, 237989, Control_c, 0, 64, 109
1, 238004, Control_c, 0, 64, 108
1, 238019, Control_c, 0, 64, 106
1, 238033, Control_c, 0, 64, 104
1, 238045, Note_on_c, 0, 61, 51
1, 238048, Control_c, 0, 64, 101
1, 238051, Note_on_c, 0, 53, 40
1, 238057, Note_on_c, 0, 56, 43
1, 238063, Control_c, 0, 64, 97
1, 238066, Note_on_c, 0, 49, 42
1, 238078, Control_c, 0, 64, 91
1, 238093, Control_c, 0, 64, 85
1, 238107, Control_c, 0, 64, 78
1, 238122, Control_c, 0, 64, 70
1, 238137, Control_c, 0, 64, 65
1, 238152, Control_c, 0, 64, 63
1, 238179, Note_off_c, 0, 51, 40
1, 238181, Control_c, 0, 64, 62
1, 238196, Control_c, 0, 64, 62
1, 238211, Control_c, 0, 64, 60
1, 238226, Control_c, 0, 64, 58
1, 238240, Control_c, 0, 64, 55
1, 238255, Control_c, 0, 64, 54
1, 238270, Control_c, 0, 64, 54
1, 238285, Control_c, 0, 64, 53
1, 238300, Control_c, 0, 64, 53
1, 238329, Control_c, 0, 64, 52
1, 238344, Control_c, 0, 64, 52
1, 238419, Control_c, 0, 64, 51
1, 238567, Control_c, 0, 64, 52
1, 238590, Control_c, 0, 64, 52
1, 238605, Control_c, 0, 64, 53
1, 238619, Control_c, 0, 64, 55
1, 238634, Control_c, 0, 64, 56
1, 238649, Control_c, 0, 64, 57
1, 238663, Control_c, 0, 64, 58
1, 238678, Control_c, 0, 64, 59
1, 238693, Control_c, 0, 64, 60
1, 238708, Control_c, 0, 64, 60
1, 238723, Control_c, 0, 64, 61
1, 238737, Control_c, 0, 64, 62
1, 238752, Control_c, 0, 64, 62
1, 238782, Control_c, 0, 64, 63
1, 238797, Control_c, 0, 64, 64
1, 238812, Control_c, 0, 64, 64
1, 238826, Control_c, 0, 64, 65
1, 238841, Control_c, 0, 64, 65
1, 238856, Control_c, 0, 64, 66
1, 238871, Control_c, 0, 64, 66
1, 238886, Control_c, 0, 64, 67
1, 238901, Control_c, 0, 64, 67
1, 238916, Control_c, 0, 64, 68
1, 238945, Control_c, 0, 64, 69
1, 238960, Control_c, 0, 64, 69
1, 238975, Control_c, 0, 64, 70
1, 238990, Control_c, 0, 64, 71
1, 239004, Control_c, 0, 64, 71
1, 239019, Control_c, 0, 64, 72
1, 239034, Control_c, 0, 64, 73
1, 239049, Control_c, 0, 64, 73
1, 239063, Control_c, 0, 64, 74
1, 239078, Control_c, 0, 64, 74
1, 239093, Control_c, 0, 64, 75
1, 239108, Control_c, 0, 64, 76
1, 239123, Control_c, 0, 64, 77
1, 239137, Control_c, 0, 64, 78
1, 239152, Control_c, 0, 64, 79
1, 239167, Control_c, 0, 64, 80
1, 239181, Control_c, 0, 64, 81
1, 239196, Control_c, 0, 64, 82
1, 239213, Control_c, 0, 64, 84
1, 239227, Control_c, 0, 64, 86
1, 239242, Control_c, 0, 64, 88
1, 239257, Control_c, 0, 64, 91
1, 239272, Control_c, 0, 64, 93
1, 239286, Control_c, 0, 64, 96
1, 239301, Control_c, 0, 64, 99
1, 239316, Control_c, 0, 64, 102
1, 239339, Control_c, 0, 64, 106
1, 239354, Control_c, 0, 64, 109
1, 239368, Control_c, 0, 64, 115
1, 239383, Control_c, 0, 64, 122
1, 239398, Control_c, 0, 64, 127
1, 239399, Note_off_c, 0, 56, 39
1, 239435, Note_off_c, 0, 53, 37
1, 239462, Note_off_c, 0, 61, 38
1, 240087, Control_c, 0, 64, 118
1, 240102, Control_c, 0, 64, 113
1, 240117, Note_on_c, 0, 61, 51
1, 240117, Control_c, 0, 64, 110
1, 240120, Note_on_c, 0, 57, 43
1, 240129, Note_on_c, 0, 52, 40
1, 240132, Control_c, 0, 64, 107
1, 240133, Note_on_c, 0, 45, 38
1, 240147, Control_c, 0, 64, 103
1, 240162, Control_c, 0, 64, 99
1, 240177, Control_c, 0, 64, 92
1, 240191, Control_c, 0, 64, 85
1, 240206, Control_c, 0, 64, 78
1, 240221, Control_c, 0, 64, 72
1, 240227, Note_off_c, 0, 49, 40
1, 240235, Control_c, 0, 64, 68
1, 240250, Control_c, 0, 64, 66
1, 240265, Control_c, 0, 64, 64
1, 240280, Control_c, 0, 64, 63
1, 240295, Control_c, 0, 64, 62
1, 240309, Control_c, 0, 64, 59
1, 240324, Control_c, 0, 64, 58
1, 240339, Control_c, 0, 64, 57
1, 240354, Control_c, 0, 64, 56
1, 240369, Control_c, 0, 64, 56
1, 240502, Control_c, 0, 64, 56
1, 240517, Control_c, 0, 64, 58
1, 240532, Control_c, 0, 64, 59
1, 240546, Control_c, 0, 64, 60
1, 240561, Control_c, 0, 64, 61
1, 240576, Control_c, 0, 64, 61
1, 240591, Control_c, 0, 64, 62
1, 240606, Control_c, 0, 64, 62
1, 240635, Control_c, 0, 64, 63
1, 240665, Control_c, 0, 64, 63
1, 240680, Control_c, 0, 64, 64
1, 240695, Control_c, 0, 64, 64
1, 240709, Control_c, 0, 64, 65
1, 240724, Control_c, 0, 64, 65
1, 240739, Control_c, 0, 64, 66
1, 240754, Control_c, 0, 64, 68
1, 240769, Control_c, 0, 64, 70
1, 240783, Control_c, 0, 64, 73
1, 240799, Control_c, 0, 64, 75
1, 240814, Control_c, 0, 64, 76
1, 240851, Control_c, 0, 64, 77
1, 240895, Control_c, 0, 64, 77
1, 240910, Control_c, 0, 64, 78
1, 240985, Control_c, 0, 64, 78
1, 241013, Control_c, 0, 64, 79
1, 241043, Control_c, 0, 64, 79
1, 241057, Control_c, 0, 64, 80
1, 241087, Control_c, 0, 64, 81
1, 241102, Control_c, 0, 64, 81
1, 241117, Control_c, 0, 64, 82
1, 241131, Control_c, 0, 64, 83
1, 241146, Control_c, 0, 64, 83
1, 241161, Control_c, 0, 64, 84
1, 241176, Control_c, 0, 64, 85
1, 241191, Control_c, 0, 64, 86
1, 241205, Control_c, 0, 64, 87
1, 241220, Control_c, 0, 64, 88
1, 241235, Control_c, 0, 64, 89
1, 241250, Control_c, 0, 64, 90
1, 241265, Control_c, 0, 64, 92
1, 241280, Control_c, 0, 64, 94
1, 241295, Control_c, 0, 64, 96
1, 241310, Control_c, 0, 64, 99
1, 241324, Control_c, 0, 64, 103
1, 241339, Control_c, 0, 64, 107
1, 241354, Control_c, 0, 64, 113
1, 241369, Control_c, 0, 64, 124
1, 241383, Control_c, 0, 64, 127
1, 241432, Note_off_c, 0, 52, 37
1, 241522, Note_off_c, 0, 57, 40
1, 241546, Note_off_c, 0, 61, 35
1, 242052, Note_on_c, 0, 61, 52
1, 242058, Control_c, 0, 64, 124
1, 242064, Note_on_c, 0, 54, 47
1, 242065, Note_on_c, 0, 42, 40
1, 242071, Note_on_c, 0, 58, 47
1, 242073, Control_c, 0, 64, 114
1, 242088, Control_c, 0, 64, 108
1, 242102, Control_c, 0, 64, 102
1, 242117, Control_c, 0, 64, 94
1, 242132, Control_c, 0, 64, 87
1, 242147, Control_c, 0, 64, 80
1, 242162, Control_c, 0, 64, 71
1, 242177, Control_c, 0, 64, 66
1, 242192, Control_c, 0, 64, 62
1, 242197, Note_off_c, 0, 45, 41
1, 242206, Control_c, 0, 64, 60
1, 242221, Control_c, 0, 64, 59
1, 242236, Control_c, 0, 64, 58
1, 242251, Control_c, 0, 64, 56
1, 242266, Control_c, 0, 64, 55
1, 242377, Control_c, 0, 64, 56
1, 242377, Control_c, 0, 67, 124
1, 242392, Control_c, 0, 64, 58
1, 242392, Control_c, 0, 67, 121
1, 242407, Control_c, 0, 64, 60
1, 242407, Control_c, 0, 67, 117
1, 242422, Control_c, 0, 64, 62
1, 242422, Control_c, 0, 67, 113
1, 242436, Control_c, 0, 64, 63
1, 242436, Control_c, 0, 67, 108
1, 242451, Control_c, 0, 64, 63
1, 242451, Control_c, 0, 67, 102
1, 242466, Control_c, 0, 64, 64
1, 242466, Control_c, 0, 67, 93
1, 242481, Control_c, 0, 64, 64
1, 242481, Control_c, 0, 67, 85
1, 242496, Control_c, 0, 64, 65
1, 242496, Control_c, 0, 67, 77
1, 242511, Control_c, 0, 64, 65
1, 242511, Control_c, 0, 67, 71
1, 242526, Control_c, 0, 64, 66
1, 242526, Control_c, 0, 67, 66
1, 242541, Control_c, 0, 64, 67
1, 242541, Control_c, 0, 67, 63
1, 242556, Control_c, 0, 64, 69
1, 242556, Control_c, 0, 67, 60
1, 242570, Control_c, 0, 64, 70
1, 242570, Control_c, 0, 67, 58
1, 242585, Control_c, 0, 64, 72
1, 242585, Control_c, 0, 67, 54
1, 242600, Control_c, 0, 64, 73
1, 242600, Control_c, 0, 67, 50
1, 242615, Control_c, 0, 64, 73
1, 242615, Control_c, 0, 67, 45
1, 242629, Control_c, 0, 64, 74
1, 242629, Control_c, 0, 67, 38
1, 242644, Control_c, 0, 67, 32
1, 242659, Control_c, 0, 67, 26
1, 242674, Control_c, 0, 64, 74
1, 242674, Control_c, 0, 67, 21
1, 242689, Control_c, 0, 67, 16
1, 242718, Control_c, 0, 67, 0
1, 242792, Control_c, 0, 64, 74
1, 242807, Control_c, 0, 64, 73
1, 242821, Control_c, 0, 64, 71
1, 242836, Control_c, 0, 64, 68
1, 242851, Control_c, 0, 64, 65
1, 242866, Control_c, 0, 64, 63
1, 242881, Control_c, 0, 64, 62
1, 242895, Control_c, 0, 64, 62
1, 242910, Control_c, 0, 64, 61
1, 242925, Control_c, 0, 64, 60
1, 242940, Control_c, 0, 64, 60
1, 242955, Control_c, 0, 64, 59
1, 243015, Control_c, 0, 64, 60
1, 243029, Control_c, 0, 64, 61
1, 243044, Control_c, 0, 64, 63
1, 243059, Control_c, 0, 64, 65
1, 243081, Control_c, 0, 64, 66
1, 243096, Control_c, 0, 64, 66
1, 243110, Control_c, 0, 64, 68
1, 243125, Control_c, 0, 64, 70
1, 243140, Control_c, 0, 64, 73
1, 243155, Control_c, 0, 64, 75
1, 243170, Control_c, 0, 64, 77
1, 243185, Control_c, 0, 64, 77
1, 243200, Control_c, 0, 64, 78
1, 243215, Control_c, 0, 64, 79
1, 243230, Control_c, 0, 64, 81
1, 243244, Control_c, 0, 64, 82
1, 243259, Control_c, 0, 64, 83
1, 243274, Control_c, 0, 64, 83
1, 243289, Control_c, 0, 64, 84
1, 243304, Control_c, 0, 64, 85
1, 243319, Control_c, 0, 64, 86
1, 243333, Control_c, 0, 64, 86
1, 243348, Control_c, 0, 64, 88
1, 243362, Note_off_c, 0, 58, 24
1, 243363, Control_c, 0, 64, 89
1, 243377, Control_c, 0, 64, 91
1, 243392, Control_c, 0, 64, 92
1, 243407, Control_c, 0, 64, 94
1, 243422, Control_c, 0, 64, 96
1, 243437, Control_c, 0, 64, 98
1, 243451, Control_c, 0, 64, 100
1, 243465, Note_off_c, 0, 54, 12
1, 243466, Control_c, 0, 64, 102
1, 243476, Note_off_c, 0, 61, 36
1, 243481, Control_c, 0, 64, 105
1, 243496, Control_c, 0, 64, 108
1, 243511, Control_c, 0, 64, 113
1, 243525, Control_c, 0, 64, 122
1, 243540, Control_c, 0, 64, 127
1, 244068, Control_c, 0, 64, 119
1, 244082, Note_on_c, 0, 63, 48
1, 244082, Control_c, 0, 64, 115
1, 244097, Control_c, 0, 64, 110
1, 244098, Note_on_c, 0, 58, 40
1, 244101, Note_on_c, 0, 54, 38
1, 244109, Note_on_c, 0, 39, 34
1, 244112, Control_c, 0, 64, 105
1, 244127, Control_c, 0, 64, 100
1, 244142, Control_c, 0, 64, 95
1, 244156, Control_c, 0, 64, 89
1, 244171, Control_c, 0, 64, 83
1, 244186, Control_c, 0, 64, 77
1, 244201, Control_c, 0, 64, 71
1, 244216, Control_c, 0, 64, 67
1, 244222, Note_off_c, 0, 42, 41
1, 244231, Control_c, 0, 64, 64
1, 244246, Control_c, 0, 64, 63
1, 244261, Control_c, 0, 64, 61
1, 244275, Control_c, 0, 64, 59
1, 244290, Control_c, 0, 64, 56
1, 244305, Control_c, 0, 64, 54
1, 244320, Control_c, 0, 64, 52
1, 244335, Control_c, 0, 64, 50
1, 244349, Control_c, 0, 64, 50
1, 244438, Control_c, 0, 64, 50
1, 244453, Control_c, 0, 64, 53
1, 244467, Control_c, 0, 64, 55
1, 244482, Control_c, 0, 64, 57
1, 244497, Control_c, 0, 64, 58
1, 244512, Control_c, 0, 64, 58
1, 244527, Control_c, 0, 64, 59
1, 244541, Control_c, 0, 64, 60
1, 244556, Control_c, 0, 64, 61
1, 244579, Control_c, 0, 64, 62
1, 244608, Control_c, 0, 64, 63
1, 245157, Control_c, 0, 64, 63
1, 245216, Control_c, 0, 64, 64
1, 245261, Control_c, 0, 64, 64
1, 245276, Control_c, 0, 64, 65
1, 245290, Control_c, 0, 64, 65
1, 245305, Control_c, 0, 64, 66
1, 245328, Control_c, 0, 64, 66
1, 245357, Control_c, 0, 64, 67
1, 245372, Control_c, 0, 64, 67
1, 245387, Control_c, 0, 64, 68
1, 245402, Control_c, 0, 64, 69
1, 245417, Control_c, 0, 64, 69
1, 245431, Control_c, 0, 64, 70
1, 245446, Control_c, 0, 64, 71
1, 245461, Control_c, 0, 64, 72
1, 245476, Control_c, 0, 64, 73
1, 245491, Control_c, 0, 64, 74
1, 245505, Control_c, 0, 64, 74
1, 245520, Control_c, 0, 64, 75
1, 245533, Note_off_c, 0, 54, 39
1, 245535, Control_c, 0, 64, 76
1, 245549, Control_c, 0, 64, 77
1, 245564, Control_c, 0, 64, 79
1, 245569, Note_off_c, 0, 58, 31
1, 245579, Control_c, 0, 64, 80
1, 245595, Control_c, 0, 64, 81
1, 245610, Control_c, 0, 64, 82
1, 245625, Control_c, 0, 64, 82
1, 245640, Control_c, 0, 64, 83
1, 245654, Control_c, 0, 64, 84
1, 245669, Control_c, 0, 64, 85
1, 245684, Control_c, 0, 64, 85
1, 245695, Note_off_c, 0, 63, 35
1, 245699, Control_c, 0, 64, 86
1, 245714, Control_c, 0, 64, 86
1, 245728, Control_c, 0, 64, 87
1, 245743, Control_c, 0, 64, 88
1, 245772, Control_c, 0, 64, 88
1, 245787, Control_c, 0, 64, 89
1, 245817, Control_c, 0, 64, 90
1, 245832, Control_c, 0, 64, 91
1, 245847, Control_c, 0, 64, 91
1, 245861, Control_c, 0, 64, 92
1, 245876, Control_c, 0, 64, 92
1, 245906, Control_c, 0, 64, 93
1, 245921, Control_c, 0, 64, 93
1, 245951, Control_c, 0, 64, 94
1, 245995, Control_c, 0, 64, 94
1, 246254, Control_c, 0, 64, 94
1, 246255, Note_on_c, 0, 65, 44
1, 246262, Note_on_c, 0, 61, 26
1, 246264, Note_on_c, 0, 53, 32
1, 246264, Note_on_c, 0, 56, 32
1, 246278, Note_on_c, 0, 37, 27
1, 246284, Control_c, 0, 64, 93
1, 246299, Control_c, 0, 64, 92
1, 246314, Control_c, 0, 64, 90
1, 246328, Control_c, 0, 64, 87
1, 246343, Control_c, 0, 64, 83
1, 246358, Control_c, 0, 64, 77
1, 246372, Control_c, 0, 64, 70
1, 246387, Control_c, 0, 64, 65
1, 246403, Control_c, 0, 64, 60
1, 246413, Note_off_c, 0, 39, 48
1, 246418, Control_c, 0, 64, 57
1, 246433, Control_c, 0, 64, 53
1, 246448, Control_c, 0, 64, 47
1, 246463, Control_c, 0, 64, 37
1, 246477, Control_c, 0, 64, 0
1, 247121, Control_c, 0, 64, 25
1, 247136, Control_c, 0, 64, 35
1, 247151, Control_c, 0, 64, 41
1, 247166, Control_c, 0, 64, 45
1, 247181, Control_c, 0, 64, 49
1, 247197, Control_c, 0, 64, 53
1, 247212, Control_c, 0, 64, 54
1, 247226, Control_c, 0, 64, 55
1, 247241, Control_c, 0, 64, 55
1, 247256, Control_c, 0, 64, 56
1, 247271, Control_c, 0, 64, 58
1, 247286, Control_c, 0, 64, 59
1, 247300, Control_c, 0, 64, 61
1, 247315, Control_c, 0, 64, 61
1, 247330, Control_c, 0, 64, 62
1, 247344, Control_c, 0, 64, 62
1, 247359, Control_c, 0, 64, 63
1, 247374, Control_c, 0, 64, 64
1, 247389, Control_c, 0, 64, 64
1, 247404, Control_c, 0, 64, 65
1, 247418, Control_c, 0, 64, 65
1, 247433, Control_c, 0, 64, 66
1, 247448, Control_c, 0, 64, 66
1, 247463, Control_c, 0, 64, 67
1, 247478, Control_c, 0, 64, 67
1, 247492, Control_c, 0, 64, 68
1, 247507, Control_c, 0, 64, 69
1, 247522, Control_c, 0, 64, 69
1, 247537, Control_c, 0, 64, 70
1, 247552, Control_c, 0, 64, 71
1, 247574, Control_c, 0, 64, 72
1, 247589, Control_c, 0, 64, 72
1, 247604, Control_c, 0, 64, 73
1, 247619, Control_c, 0, 64, 74
1, 247633, Control_c, 0, 64, 75
1, 247648, Control_c, 0, 64, 76
1, 247663, Control_c, 0, 64, 77
1, 247678, Control_c, 0, 64, 78
1, 247693, Control_c, 0, 64, 79
1, 247707, Control_c, 0, 64, 81
1, 247722, Control_c, 0, 64, 82
1, 247737, Control_c, 0, 64, 83
1, 247751, Control_c, 0, 64, 85
1, 247766, Control_c, 0, 64, 87
1, 247781, Control_c, 0, 64, 89
1, 247796, Control_c, 0, 64, 91
1, 247811, Control_c, 0, 64, 94
1, 247826, Control_c, 0, 64, 97
1, 247841, Control_c, 0, 64, 100
1, 247856, Control_c, 0, 64, 104
1, 247871, Control_c, 0, 64, 109
1, 247885, Control_c, 0, 64, 117
1, 247900, Control_c, 0, 64, 127
1, 247964, Note_off_c, 0, 65, 35
1, 248851, Note_on_c, 0, 65, 54
1, 249286, Note_off_c, 0, 37, 40
1, 249769, Note_on_c, 0, 29, 40
1, 249865, Control_c, 0, 64, 113
1, 249880, Control_c, 0, 64, 102
1, 249895, Control_c, 0, 64, 93
1, 249909, Control_c, 0, 64, 84
1, 249924, Control_c, 0, 64, 75
1, 249939, Control_c, 0, 64, 68
1, 249954, Control_c, 0, 64, 64
1, 249969, Control_c, 0, 64, 63
1, 250073, Control_c, 0, 64, 64
1, 250087, Control_c, 0, 64, 65
1, 250102, Control_c, 0, 64, 67
1, 250117, Control_c, 0, 64, 70
1, 250132, Control_c, 0, 64, 73
1, 250146, Control_c, 0, 64, 79
1, 250161, Control_c, 0, 64, 84
1, 250170, Note_on_c, 0, 36, 49
1, 250176, Control_c, 0, 64, 89
1, 250191, Control_c, 0, 64, 91
1, 250206, Control_c, 0, 64, 92
1, 250220, Control_c, 0, 64, 94
1, 250235, Control_c, 0, 64, 96
1, 250250, Control_c, 0, 64, 99
1, 250258, Note_off_c, 0, 29, 55
1, 250264, Control_c, 0, 64, 102
1, 250279, Control_c, 0, 64, 105
1, 250294, Control_c, 0, 64, 107
1, 250309, Control_c, 0, 64, 110
1, 250324, Control_c, 0, 64, 115
1, 250339, Control_c, 0, 64, 124
1, 250354, Control_c, 0, 64, 127
1, 250491, Note_off_c, 0, 56, 39
1, 250542, Note_on_c, 0, 41, 50
1, 250697, Note_off_c, 0, 53, 41
1, 250737, Note_off_c, 0, 61, 37
1, 250790, Note_off_c, 0, 65, 35
1, 251161, Note_on_c, 0, 60, 39
1, 251161, Note_on_c, 0, 65, 53
1, 251168, Note_on_c, 0, 53, 40
1, 251171, Note_on_c, 0, 57, 42
1, 251177, Note_on_c, 0, 48, 41
1, 251467, Control_c, 0, 64, 124
1, 251481, Control_c, 0, 64, 119
1, 251496, Control_c, 0, 64, 116
1, 251510, Control_c, 0, 64, 113
1, 251525, Control_c, 0, 64, 112
1, 251540, Control_c, 0, 64, 111
1, 251585, Control_c, 0, 64, 111
1, 251600, Control_c, 0, 64, 110
1, 251615, Control_c, 0, 64, 110
1, 251644, Control_c, 0, 64, 109
1, 251659, Control_c, 0, 64, 109
1, 251704, Control_c, 0, 64, 108
1, 251763, Control_c, 0, 64, 108
1, 251807, Control_c, 0, 64, 107
1, 251837, Control_c, 0, 64, 107
1, 251896, Control_c, 0, 64, 106
1, 251925, Control_c, 0, 64, 106
1, 251955, Control_c, 0, 64, 105
1, 251970, Control_c, 0, 64, 105
1, 252045, Control_c, 0, 64, 104
1, 252363, Control_c, 0, 64, 104
1, 252452, Control_c, 0, 64, 103
1, 252512, Control_c, 0, 64, 103
1, 252779, Control_c, 0, 64, 102
1, 252861, Control_c, 0, 64, 102
1, 252920, Control_c, 0, 64, 101
1, 252950, Control_c, 0, 64, 101
1, 253024, Control_c, 0, 64, 100
1, 253026, Note_off_c, 0, 65, 33
1, 253142, Control_c, 0, 64, 100
1, 253216, Control_c, 0, 64, 99
1, 253409, Control_c, 0, 64, 99
1, 253624, Control_c, 0, 64, 98
1, 253817, Control_c, 0, 64, 98
1, 254229, Note_on_c, 0, 65, 53
1, 254922, Control_c, 0, 64, 98
1, 254966, Control_c, 0, 64, 99
1, 254996, Control_c, 0, 64, 99
1, 255025, Control_c, 0, 64, 100
1, 255062, Control_c, 0, 64, 100
1, 255077, Control_c, 0, 64, 101
1, 255122, Control_c, 0, 64, 101
1, 255151, Control_c, 0, 64, 102
1, 255247, Note_off_c, 0, 65, 29
1, 256163, Note_on_c, 0, 65, 32
1, 256693, Note_off_c, 0, 48, 37
1, 256783, Control_c, 0, 64, 102
1, 256788, Note_off_c, 0, 41, 32
1, 257243, Note_off_c, 0, 36, 33
1, 257308, Control_c, 0, 67, 18
1, 257323, Control_c, 0, 67, 22
1, 257338, Control_c, 0, 67, 24
1, 257353, Control_c, 0, 67, 24
1, 257383, Control_c, 0, 67, 24
1, 257456, Control_c, 0, 67, 23
1, 257470, Control_c, 0, 67, 22
1, 257634, Control_c, 0, 67, 21
1, 257649, Control_c, 0, 67, 20
1, 257723, Control_c, 0, 64, 103
1, 257752, Control_c, 0, 67, 19
1, 258056, Control_c, 0, 67, 20
1, 258101, Control_c, 0, 67, 20
1, 258131, Control_c, 0, 67, 21
1, 258175, Control_c, 0, 67, 21
1, 258204, Control_c, 0, 67, 22
1, 258264, Control_c, 0, 67, 22
1, 258338, Control_c, 0, 67, 23
1, 258501, Control_c, 0, 67, 23
1, 258524, Note_on_c, 0, 25, 41
1, 258531, Control_c, 0, 64, 102
1, 258561, Control_c, 0, 64, 102
1, 258561, Control_c, 0, 67, 24
1, 258575, Control_c, 0, 64, 101
1, 258590, Control_c, 0, 64, 100
1, 258605, Control_c, 0, 64, 99
1, 258620, Control_c, 0, 64, 98
1, 258620, Control_c, 0, 67, 24
1, 258635, Control_c, 0, 64, 95
1, 258649, Control_c, 0, 64, 92
1, 258649, Control_c, 0, 67, 25
1, 258664, Control_c, 0, 64, 86
1, 258679, Control_c, 0, 64, 80
1, 258694, Control_c, 0, 64, 74
1, 258694, Control_c, 0, 67, 25
1, 258709, Control_c, 0, 64, 71
1, 258724, Control_c, 0, 64, 69
1, 258739, Control_c, 0, 64, 69
1, 258754, Control_c, 0, 64, 68
1, 258769, Control_c, 0, 64, 67
1, 258783, Control_c, 0, 64, 65
1, 258805, Control_c, 0, 64, 63
1, 258805, Control_c, 0, 67, 26
1, 258820, Control_c, 0, 64, 62
1, 258834, Control_c, 0, 64, 61
1, 258849, Control_c, 0, 64, 60
1, 258864, Control_c, 0, 64, 59
1, 258879, Control_c, 0, 64, 57
1, 258894, Control_c, 0, 64, 55
1, 258909, Control_c, 0, 64, 53
1, 258924, Control_c, 0, 64, 51
1, 258939, Control_c, 0, 64, 49
1, 258954, Control_c, 0, 64, 46
1, 258968, Control_c, 0, 64, 43
1, 258983, Control_c, 0, 64, 41
1, 258998, Control_c, 0, 64, 39
1, 259013, Control_c, 0, 64, 38
1, 259177, Control_c, 0, 64, 39
1, 259192, Control_c, 0, 64, 39
1, 259206, Control_c, 0, 64, 40
1, 259221, Control_c, 0, 64, 44
1, 259221, Control_c, 0, 67, 25
1, 259236, Control_c, 0, 64, 48
1, 259250, Control_c, 0, 64, 52
1, 259265, Control_c, 0, 64, 55
1, 259280, Control_c, 0, 64, 57
1, 259280, Control_c, 0, 67, 25
1, 259295, Control_c, 0, 64, 58
1, 259310, Control_c, 0, 64, 59
1, 259324, Control_c, 0, 64, 60
1, 259324, Control_c, 0, 67, 24
1, 259339, Control_c, 0, 64, 61
1, 259354, Control_c, 0, 64, 62
1, 259354, Control_c, 0, 67, 24
1, 259369, Control_c, 0, 64, 62
1, 259384, Control_c, 0, 64, 63
1, 259398, Control_c, 0, 64, 64
1, 259413, Control_c, 0, 64, 65
1, 259428, Control_c, 0, 64, 65
1, 259442, Control_c, 0, 64, 66
1, 259457, Control_c, 0, 64, 67
1, 259457, Control_c, 0, 67, 23
1, 259472, Control_c, 0, 64, 67
1, 259487, Control_c, 0, 64, 68
1, 259502, Control_c, 0, 64, 69
1, 259517, Control_c, 0, 64, 70
1, 259532, Control_c, 0, 64, 70
1, 259554, Control_c, 0, 64, 71
1, 259569, Control_c, 0, 64, 72
1, 259583, Control_c, 0, 64, 72
1, 259598, Control_c, 0, 64, 73
1, 259598, Control_c, 0, 67, 23
1, 259613, Control_c, 0, 64, 74
1, 259628, Control_c, 0, 64, 75
1, 259643, Control_c, 0, 64, 75
1, 259657, Control_c, 0, 64, 76
1, 259672, Control_c, 0, 64, 77
1, 259687, Control_c, 0, 64, 77
1, 259702, Control_c, 0, 64, 78
1, 259717, Control_c, 0, 64, 79
1, 259732, Control_c, 0, 64, 79
1, 259746, Control_c, 0, 64, 80
1, 259761, Control_c, 0, 64, 80
1, 259776, Control_c, 0, 64, 81
1, 259791, Control_c, 0, 64, 81
1, 259806, Control_c, 0, 64, 82
1, 259836, Control_c, 0, 64, 82
1, 259865, Control_c, 0, 64, 83
1, 259910, Control_c, 0, 64, 83
1, 259939, Control_c, 0, 64, 84
1, 259950, Note_on_c, 0, 32, 26
1, 259954, Control_c, 0, 64, 84
1, 259985, Control_c, 0, 64, 85
1, 260000, Control_c, 0, 64, 85
1, 260029, Control_c, 0, 64, 86
1, 260044, Control_c, 0, 64, 86
1, 260059, Control_c, 0, 64, 87
1, 260073, Control_c, 0, 64, 87
1, 260088, Control_c, 0, 64, 88
1, 260092, Note_off_c, 0, 25, 40
1, 260103, Control_c, 0, 64, 88
1, 260118, Control_c, 0, 64, 89
1, 260133, Control_c, 0, 64, 89
1, 260147, Control_c, 0, 64, 90
1, 260162, Control_c, 0, 64, 91
1, 260177, Control_c, 0, 64, 92
1, 260191, Control_c, 0, 64, 93
1, 260206, Control_c, 0, 64, 95
1, 260221, Control_c, 0, 64, 96
1, 260236, Control_c, 0, 64, 98
1, 260251, Control_c, 0, 64, 100
1, 260265, Control_c, 0, 64, 103
1, 260280, Control_c, 0, 64, 105
1, 260303, Control_c, 0, 64, 106
1, 260318, Control_c, 0, 64, 108
1, 260333, Control_c, 0, 64, 110
1, 260346, Note_off_c, 0, 57, 13
1, 260347, Control_c, 0, 64, 112
1, 260362, Control_c, 0, 64, 114
1, 260377, Control_c, 0, 64, 118
1, 260392, Control_c, 0, 64, 123
1, 260406, Control_c, 0, 64, 127
1, 260542, Note_off_c, 0, 60, 34
1, 260548, Note_on_c, 0, 37, 41
1, 260599, Control_c, 0, 67, 23
1, 260670, Note_off_c, 0, 53, 40
1, 261111, Note_on_c, 0, 44, 45
1, 261260, Control_c, 0, 67, 24
1, 261622, Note_on_c, 0, 53, 41
1, 262146, Note_on_c, 0, 56, 44
1, 262879, Note_on_c, 0, 61, 43
1, 263136, Note_off_c, 0, 65, 39
1, 264116, Note_on_c, 0, 65, 45
1, 266650, Control_c, 0, 64, 124
1, 266798, Control_c, 0, 64, 123
1, 266842, Control_c, 0, 64, 122
1, 266901, Control_c, 0, 64, 121
1, 266960, Control_c, 0, 64, 120
1, 267020, Control_c, 0, 64, 119
1, 267072, Control_c, 0, 64, 118
1, 267101, Control_c, 0, 64, 118
1, 267131, Control_c, 0, 64, 117
1, 267161, Control_c, 0, 64, 117
1, 267206, Control_c, 0, 64, 116
1, 267265, Control_c, 0, 64, 116
1, 267310, Control_c, 0, 64, 115
1, 267339, Control_c, 0, 64, 115
1, 267369, Control_c, 0, 64, 114
1, 267398, Control_c, 0, 64, 114
1, 267443, Control_c, 0, 64, 113
1, 267473, Control_c, 0, 64, 113
1, 267532, Control_c, 0, 64, 112
1, 267562, Control_c, 0, 64, 112
1, 267577, Control_c, 0, 64, 111
1, 267665, Control_c, 0, 67, 24
1, 267680, Control_c, 0, 64, 111
1, 267709, Control_c, 0, 64, 110
1, 267754, Control_c, 0, 64, 110
1, 267791, Control_c, 0, 64, 109
1, 267806, Control_c, 0, 64, 109
1, 267851, Control_c, 0, 64, 108
1, 268614, Control_c, 0, 64, 108
1, 268644, Control_c, 0, 64, 107
1, 268658, Control_c, 0, 64, 106
1, 268673, Control_c, 0, 64, 105
1, 268688, Control_c, 0, 64, 104
1, 268701, Control_c, 0, 64, 104
1, 268731, Control_c, 0, 64, 103
1, 268731, Control_c, 0, 67, 25
1, 269102, Control_c, 0, 64, 103
1, 269659, Control_c, 0, 64, 102
1, 269777, Control_c, 0, 64, 102
1, 270230, Control_c, 0, 64, 101
1, 270259, Control_c, 0, 64, 101
1, 270289, Control_c, 0, 64, 100
1, 270318, Control_c, 0, 64, 100
1, 270333, Control_c, 0, 64, 99
1, 270364, Control_c, 0, 64, 99
1, 270379, Control_c, 0, 64, 98
1, 270394, Control_c, 0, 64, 98
1, 270408, Control_c, 0, 64, 97
1, 270423, Note_off_c, 0, 53, 1
1, 270438, Control_c, 0, 64, 97
1, 270452, Control_c, 0, 64, 96
1, 270467, Control_c, 0, 64, 95
1, 270482, Control_c, 0, 64, 94
1, 270497, Control_c, 0, 64, 93
1, 270512, Control_c, 0, 64, 93
1, 270586, Control_c, 0, 64, 92
1, 270660, Control_c, 0, 64, 92
1, 270704, Control_c, 0, 64, 91
1, 270766, Note_off_c, 0, 61, 17
1, 270768, Note_off_c, 0, 65, 12
1, 270782, Note_off_c, 0, 56, 23
1, 270786, Control_c, 0, 64, 91
1, 270845, Control_c, 0, 64, 90
1, 270874, Control_c, 0, 64, 90
1, 270889, Control_c, 0, 64, 89
1, 270904, Control_c, 0, 64, 89
1, 270919, Control_c, 0, 64, 88
1, 270934, Control_c, 0, 64, 88
1, 270964, Control_c, 0, 64, 87
1, 270979, Control_c, 0, 64, 87
1, 270986, Note_off_c, 0, 44, 23
1, 270993, Control_c, 0, 64, 86
1, 271006, Note_off_c, 0, 37, 14
1, 271008, Control_c, 0, 64, 85
1, 271023, Control_c, 0, 64, 85
1, 271038, Control_c, 0, 64, 83
1, 271053, Control_c, 0, 64, 82
1, 271067, Control_c, 0, 64, 82
1, 271082, Control_c, 0, 64, 81
1, 271097, Control_c, 0, 64, 80
1, 271105, Note_off_c, 0, 32, 18
1, 271112, Control_c, 0, 64, 79
1, 271127, Control_c, 0, 64, 79
1, 271141, Control_c, 0, 64, 78
1, 271157, Control_c, 0, 64, 77
1, 271172, Control_c, 0, 64, 77
1, 271187, Control_c, 0, 64, 76
1, 271217, Control_c, 0, 64, 76
1, 271261, Control_c, 0, 64, 75
1, 271290, Control_c, 0, 64, 75
1, 271305, Control_c, 0, 64, 74
1, 271320, Control_c, 0, 64, 74
1, 271349, Control_c, 0, 64, 73
1, 271379, Control_c, 0, 64, 73
1, 271394, Control_c, 0, 64, 72
1, 271409, Control_c, 0, 64, 72
1, 271423, Control_c, 0, 64, 71
1, 271453, Control_c, 0, 64, 71
1, 271482, Control_c, 0, 64, 70
1, 271497, Control_c, 0, 64, 70
1, 271512, Control_c, 0, 64, 69
1, 271535, Control_c, 0, 64, 68
1, 271564, Control_c, 0, 64, 67
1, 271579, Control_c, 0, 64, 66
1, 271594, Control_c, 0, 64, 65
1, 271609, Control_c, 0, 64, 63
1, 271624, Control_c, 0, 64, 62
1, 271638, Control_c, 0, 64, 62
1, 271653, Control_c, 0, 64, 61
1, 271668, Control_c, 0, 64, 60
1, 271682, Control_c, 0, 64, 59
1, 271697, Control_c, 0, 64, 58
1, 271712, Control_c, 0, 64, 57
1, 271727, Control_c, 0, 64, 55
1, 271742, Control_c, 0, 64, 54
1, 271757, Control_c, 0, 64, 52
1, 271771, Control_c, 0, 64, 50
1, 271786, Control_c, 0, 64, 47
1, 271801, Control_c, 0, 64, 43
1, 271816, Control_c, 0, 64, 38
1, 271831, Control_c, 0, 64, 34
1, 271846, Control_c, 0, 64, 30
1, 271861, Control_c, 0, 64, 26
1, 271876, Control_c, 0, 64, 21
1, 271905, Control_c, 0, 64, 0
1, 272084, Control_c, 0, 67, 24
1, 272624, Control_c, 0, 67, 24
1, 273165, Control_c, 0, 67, 23
1, 273225, Control_c, 0, 67, 23
1, 273402, Control_c, 0, 67, 22
1, 273477, Control_c, 0, 67, 22
1, 274360, Control_c, 0, 67, 21
1, 274389, Control_c, 0, 67, 21
1, 274404, Control_c, 0, 67, 20
1, 274419, Control_c, 0, 67, 19
1, 274434, Control_c, 0, 67, 18
1, 274448, Control_c, 0, 67, 17
1, 274463, Control_c, 0, 67, 16
1, 274530, Control_c, 0, 67, 0
1, 274530, End_track
0, 0, End_of_file
