0, 0, Header, 0, 1, 384
1, 0, Start_track
1, 0, Title_t, "Gnomenreigen, by Liszt--Natalie Lo "
1, 0, Text_t, "2008 e-Piano Junior Competition virtual audition round"
1, 0, Text_t, "recorded January and February 2008"
1, 0, Text_t, "http://www.piano-e-competition.com/"
1, 0, Text_t, "File processed for distribution by software from Zenph Studios, Inc., http://www.zenph.com"
1, 0, Instrument_name_t, "Yamaha Disklavier Pro Mark IV concert grand piano, model DCFIIISM4PRO"
1, 0, Sequencer_specific, 39, 67, 113, 0, 1, 0, 1, 0, 71, 110, 111, 109, 101, 110, 114, 101, 105, 103, 101, 110, 32, 32, 32, 32, 78, 97, 116, 97, 108, 105, 101, 32, 76, 111, 32, 32, 32, 32, 32, 32
1, 0, Sequencer_specific, 6, 67, 113, 0, 0, 0, 69
1, 0, System_exclusive, 21, 67, 113, 126, 21, 0, 2, 2, 0, 0, 8, 1, 4, 7, 9, 14, 3, 8, 14, 10, 4, 247
1, 0, Sequencer_specific, 5, 67, 123, 12, 2, 1
1, 0, Tempo, 512820
1, 0, Time_signature, 4, 2, 24, 8
1, 0, System_exclusive, 5, 126, 127, 9, 1, 247
1, 1, System_exclusive, 8, 67, 16, 76, 0, 0, 126, 0, 247
1, 2, System_exclusive, 8, 67, 16, 76, 8, 9, 7, 1, 247
1, 3, Control_c, 0, 0, 0
1, 3, Control_c, 1, 0, 0
1, 3, Control_c, 2, 0, 0
1, 3, Control_c, 3, 0, 0
1, 3, Control_c, 4, 0, 0
1, 3, Control_c, 5, 0, 0
1, 3, Control_c, 6, 0, 0
1, 3, Control_c, 7, 0, 0
1, 3, Control_c, 8, 0, 0
1, 3, Control_c, 9, 0, 127
1, 3, Control_c, 10, 0, 0
1, 3, Control_c, 11, 0, 0
1, 3, Control_c, 12, 0, 0
1, 3, Control_c, 13, 0, 0
1, 3, Control_c, 14, 0, 0
1, 3, Control_c, 15, 0, 0
1, 4, Control_c, 0, 32, 0
1, 4, Control_c, 1, 32, 0
1, 4, Control_c, 2, 32, 0
1, 4, Control_c, 3, 32, 0
1, 4, Control_c, 4, 32, 0
1, 4, Control_c, 5, 32, 0
1, 4, Control_c, 6, 32, 0
1, 4, Control_c, 7, 32, 0
1, 4, Control_c, 8, 32, 0
1, 4, Control_c, 9, 32, 0
1, 4, Control_c, 10, 32, 0
1, 4, Control_c, 11, 32, 0
1, 4, Control_c, 12, 32, 0
1, 4, Control_c, 13, 32, 0
1, 4, Control_c, 14, 32, 0
1, 4, Control_c, 15, 32, 0
1, 5, Program_c, 0, 0
1, 5, Program_c, 1, 0
1, 5, Program_c, 2, 0
1, 5, Program_c, 3, 0
1, 5, Program_c, 4, 0
1, 5, Program_c, 5, 0
1, 5, Program_c, 6, 0
1, 5, Program_c, 7, 0
1, 5, Program_c, 8, 0
1, 5, Program_c, 9, 0
1, 5, Program_c, 10, 0
1, 5, Program_c, 11, 0
1, 5, Program_c, 12, 0
1, 5, Program_c, 13, 0
1, 5, Program_c, 14, 0
1, 5, Program_c, 15, 0
1, 6, Control_c, 0, 7, 100
1, 117, Control_c, 0, 67, 15
1, 229, Control_c, 0, 67, 31
1, 341, Control_c, 0, 67, 46
1, 452, Control_c, 0, 67, 63
1, 564, Control_c, 0, 67, 77
1, 676, Control_c, 0, 67, 94
1, 787, Control_c, 0, 67, 108
1, 899, Control_c, 0, 67, 127
1, 899, Control_c, 1, 7, 100
1, 899, Control_c, 2, 7, 100
1, 899, Control_c, 3, 7, 100
1, 899, Control_c, 4, 7, 100
1, 899, Control_c, 5, 7, 100
1, 899, Control_c, 6, 7, 100
1, 899, Control_c, 7, 7, 100
1, 899, Control_c, 8, 7, 100
1, 899, Control_c, 9, 7, 100
1, 899, Control_c, 10, 7, 100
1, 899, Control_c, 11, 7, 100
1, 899, Control_c, 12, 7, 100
1, 899, Control_c, 13, 7, 100
1, 899, Control_c, 14, 7, 100
1, 899, Control_c, 15, 7, 100
1, 1130, Note_on_c, 0, 62, 53
1, 1154, Note_off_c, 0, 62, 59
1, 1155, Note_on_c, 0, 61, 56
1, 1178, Note_off_c, 0, 61, 62
1, 1375, Note_on_c, 0, 66, 50
1, 1390, Note_on_c, 0, 65, 57
1, 1410, Note_off_c, 0, 66, 62
1, 1412, Note_off_c, 0, 65, 63
1, 1563, Note_on_c, 0, 68, 63
1, 1601, Note_off_c, 0, 68, 54
1, 1697, Note_on_c, 0, 69, 70
1, 1706, Note_on_c, 0, 68, 63
1, 1721, Note_off_c, 0, 69, 66
1, 1730, Note_off_c, 0, 68, 65
1, 1816, Note_on_c, 0, 71, 64
1, 1822, Note_on_c, 0, 73, 63
1, 1843, Note_off_c, 0, 71, 66
1, 1851, Note_off_c, 0, 73, 66
1, 1950, Note_on_c, 0, 74, 65
1, 1954, Note_on_c, 0, 73, 78
1, 1980, Note_off_c, 0, 74, 64
1, 1993, Note_off_c, 0, 73, 59
1, 2088, Note_on_c, 0, 74, 65
1, 2091, Note_on_c, 0, 73, 77
1, 2107, Note_off_c, 0, 74, 63
1, 2111, Note_off_c, 0, 73, 71
1, 2193, Note_on_c, 0, 77, 69
1, 2196, Note_on_c, 0, 78, 68
1, 2225, Note_off_c, 0, 77, 58
1, 2231, Note_off_c, 0, 78, 58
1, 2317, Note_on_c, 0, 81, 79
1, 2338, Note_on_c, 0, 80, 74
1, 2359, Note_off_c, 0, 81, 60
1, 2375, Note_off_c, 0, 80, 53
1, 2454, Note_on_c, 0, 81, 68
1, 2463, Note_on_c, 0, 80, 71
1, 2471, Note_off_c, 0, 81, 68
1, 2485, Note_off_c, 0, 80, 67
1, 2569, Note_on_c, 0, 83, 78
1, 2575, Note_on_c, 0, 85, 74
1, 2594, Note_off_c, 0, 83, 63
1, 2597, Note_off_c, 0, 85, 67
1, 2696, Note_on_c, 0, 86, 76
1, 2702, Note_on_c, 0, 85, 82
1, 2725, Note_off_c, 0, 86, 58
1, 2737, Note_off_c, 0, 85, 63
1, 2821, Note_on_c, 0, 80, 63
1, 2838, Note_on_c, 0, 83, 64
1, 2853, Note_off_c, 0, 80, 66
1, 2857, Note_off_c, 0, 83, 65
1, 2950, Note_on_c, 0, 83, 68
1, 2955, Note_on_c, 0, 85, 66
1, 2978, Note_off_c, 0, 85, 68
1, 2982, Note_off_c, 0, 83, 60
1, 3087, Note_on_c, 0, 86, 63
1, 3092, Note_on_c, 0, 85, 74
1, 3116, Note_off_c, 0, 86, 63
1, 3124, Note_off_c, 0, 85, 64
1, 3193, Note_on_c, 0, 77, 58
1, 3215, Note_on_c, 0, 80, 65
1, 3221, Note_off_c, 0, 77, 64
1, 3249, Note_off_c, 0, 80, 56
1, 3348, Note_on_c, 0, 85, 65
1, 3366, Note_on_c, 0, 83, 67
1, 3375, Note_off_c, 0, 85, 66
1, 3384, Note_off_c, 0, 83, 66
1, 3510, Note_on_c, 0, 86, 59
1, 3540, Note_on_c, 0, 85, 53
1, 3545, Note_off_c, 0, 86, 60
1, 3563, Note_off_c, 0, 85, 58
1, 3676, Note_on_c, 0, 80, 62
1, 3690, Note_on_c, 0, 83, 54
1, 3703, Note_off_c, 0, 80, 65
1, 3713, Note_off_c, 0, 83, 59
1, 3832, Note_on_c, 0, 85, 62
1, 3852, Note_on_c, 0, 83, 60
1, 3860, Note_off_c, 0, 85, 66
1, 3880, Note_off_c, 0, 83, 64
1, 4049, Note_on_c, 0, 86, 63
1, 4067, Note_on_c, 0, 85, 73
1, 4073, Note_off_c, 0, 86, 67
1, 4088, Note_off_c, 0, 85, 69
1, 4362, Note_on_c, 0, 77, 58
1, 4390, Note_on_c, 0, 80, 62
1, 4391, Note_off_c, 0, 77, 64
1, 4418, Note_off_c, 0, 80, 64
1, 4828, Note_on_c, 0, 73, 63
1, 4845, Note_off_c, 0, 73, 66
1, 4988, Note_on_c, 0, 78, 67
1, 5000, Note_on_c, 0, 85, 69
1, 5012, Note_off_c, 0, 78, 66
1, 5024, Note_off_c, 0, 85, 65
1, 5134, Note_on_c, 0, 73, 63
1, 5152, Note_on_c, 0, 81, 55
1, 5162, Note_on_c, 0, 78, 36
1, 5165, Note_off_c, 0, 73, 63
1, 5172, Note_off_c, 0, 81, 62
1, 5192, Note_off_c, 0, 78, 49
1, 5267, Note_on_c, 0, 78, 70
1, 5269, Note_on_c, 0, 73, 68
1, 5277, Note_on_c, 0, 69, 58
1, 5295, Note_off_c, 0, 73, 66
1, 5297, Note_off_c, 0, 69, 62
1, 5298, Note_off_c, 0, 78, 59
1, 5385, Note_on_c, 0, 69, 65
1, 5396, Note_on_c, 0, 74, 73
1, 5402, Note_on_c, 0, 78, 73
1, 5412, Note_off_c, 0, 69, 64
1, 5420, Note_off_c, 0, 74, 67
1, 5441, Note_off_c, 0, 78, 61
1, 5523, Note_on_c, 0, 69, 69
1, 5528, Note_on_c, 0, 66, 69
1, 5549, Note_off_c, 0, 69, 66
1, 5551, Note_off_c, 0, 66, 68
1, 5647, Note_on_c, 0, 66, 68
1, 5659, Note_on_c, 0, 62, 46
1, 5672, Note_off_c, 0, 66, 67
1, 5687, Note_on_c, 0, 71, 10
1, 5687, Note_off_c, 0, 62, 37
1, 5733, Note_off_c, 0, 71, 29
1, 5772, Note_on_c, 0, 66, 78
1, 5775, Note_on_c, 0, 73, 79
1, 5793, Note_off_c, 0, 66, 68
1, 5796, Note_off_c, 0, 73, 68
1, 5914, Note_on_c, 0, 66, 72
1, 5930, Note_on_c, 0, 69, 69
1, 5938, Note_off_c, 0, 66, 67
1, 5951, Note_off_c, 0, 69, 70
1, 6034, Note_on_c, 0, 61, 68
1, 6037, Note_on_c, 0, 66, 66
1, 6060, Note_off_c, 0, 61, 66
1, 6062, Note_off_c, 0, 66, 66
1, 6168, Note_on_c, 0, 57, 67
1, 6171, Note_on_c, 0, 61, 73
1, 6186, Note_off_c, 0, 57, 65
1, 6194, Note_off_c, 0, 61, 68
1, 6294, Note_on_c, 0, 54, 63
1, 6325, Note_off_c, 0, 54, 65
1, 6331, Note_on_c, 0, 57, 56
1, 6362, Note_off_c, 0, 57, 65
1, 6425, Note_on_c, 0, 61, 57
1, 6425, Note_on_c, 0, 66, 64
1, 6446, Note_off_c, 0, 61, 63
1, 6452, Note_off_c, 0, 66, 64
1, 6546, Note_on_c, 0, 61, 66
1, 6565, Note_on_c, 0, 65, 54
1, 6565, Note_on_c, 0, 68, 72
1, 6570, Note_off_c, 0, 61, 66
1, 6594, Note_off_c, 0, 65, 62
1, 6604, Note_off_c, 0, 68, 57
1, 6684, Note_on_c, 0, 49, 65
1, 6697, Note_on_c, 0, 61, 71
1, 6714, Note_off_c, 0, 49, 66
1, 6739, Note_off_c, 0, 61, 60
1, 6807, Note_on_c, 0, 65, 76
1, 6808, Note_on_c, 0, 61, 70
1, 6808, Note_on_c, 0, 68, 77
1, 6833, Note_off_c, 0, 65, 62
1, 6834, Note_off_c, 0, 61, 65
1, 6851, Note_off_c, 0, 68, 58
1, 6928, Note_on_c, 0, 61, 80
1, 6937, Note_on_c, 0, 69, 76
1, 6946, Note_on_c, 0, 66, 50
1, 6950, Note_off_c, 0, 61, 65
1, 6969, Note_off_c, 0, 66, 62
1, 6979, Note_off_c, 0, 69, 65
1, 7063, Note_on_c, 0, 61, 66
1, 7067, Note_on_c, 0, 54, 65
1, 7093, Note_off_c, 0, 61, 62
1, 7107, Note_off_c, 0, 54, 60
1, 7185, Note_on_c, 0, 69, 64
1, 7215, Note_off_c, 0, 69, 59
1, 7220, Note_on_c, 0, 61, 7
1, 7268, Note_off_c, 0, 61, 29
1, 7316, Note_on_c, 0, 63, 65
1, 7342, Note_on_c, 0, 66, 54
1, 7351, Note_off_c, 0, 63, 65
1, 7364, Note_off_c, 0, 66, 60
1, 7447, Note_on_c, 0, 57, 49
1, 7449, Note_on_c, 0, 60, 49
1, 7474, Note_off_c, 0, 60, 57
1, 7475, Note_off_c, 0, 57, 62
1, 7548, Note_on_c, 0, 63, 59
1, 7559, Note_on_c, 0, 66, 53
1, 7595, Note_off_c, 0, 66, 63
1, 7596, Note_off_c, 0, 63, 60
1, 7685, Note_on_c, 0, 61, 53
1, 7692, Note_on_c, 0, 65, 55
1, 7706, Note_off_c, 0, 61, 59
1, 7736, Note_off_c, 0, 65, 59
1, 7832, Note_on_c, 0, 68, 58
1, 7859, Note_on_c, 0, 73, 70
1, 7869, Note_off_c, 0, 68, 58
1, 7895, Note_off_c, 0, 73, 56
1, 7958, Note_on_c, 0, 80, 79
1, 7961, Note_on_c, 0, 77, 56
1, 7981, Note_off_c, 0, 77, 60
1, 7990, Note_off_c, 0, 80, 62
1, 8115, Note_on_c, 0, 82, 59
1, 8123, Note_on_c, 0, 78, 61
1, 8132, Note_on_c, 0, 85, 82
1, 8144, Note_off_c, 0, 82, 54
1, 8148, Note_off_c, 0, 78, 66
1, 8156, Note_on_c, 0, 81, 39
1, 8163, Note_off_c, 0, 85, 64
1, 8185, Note_off_c, 0, 81, 35
1, 8251, Note_on_c, 0, 73, 63
1, 8258, Note_on_c, 0, 81, 72
1, 8266, Note_on_c, 0, 78, 59
1, 8279, Note_off_c, 0, 81, 70
1, 8282, Note_off_c, 0, 73, 65
1, 8294, Note_off_c, 0, 78, 64
1, 8381, Note_on_c, 0, 73, 68
1, 8382, Note_on_c, 0, 69, 65
1, 8386, Note_on_c, 0, 78, 71
1, 8401, Note_off_c, 0, 69, 65
1, 8408, Note_off_c, 0, 73, 67
1, 8412, Note_off_c, 0, 78, 63
1, 8500, Note_on_c, 0, 73, 85
1, 8505, Note_on_c, 0, 69, 53
1, 8519, Note_on_c, 0, 78, 78
1, 8529, Note_off_c, 0, 69, 64
1, 8535, Note_off_c, 0, 73, 60
1, 8555, Note_off_c, 0, 78, 61
1, 8630, Note_on_c, 0, 69, 64
1, 8634, Note_on_c, 0, 66, 71
1, 8655, Note_off_c, 0, 66, 70
1, 8670, Note_off_c, 0, 69, 65
1, 8741, Note_on_c, 0, 66, 76
1, 8751, Note_on_c, 0, 71, 70
1, 8767, Note_off_c, 0, 66, 63
1, 8776, Note_off_c, 0, 71, 66
1, 8880, Note_on_c, 0, 66, 80
1, 8885, Note_on_c, 0, 73, 80
1, 8902, Note_off_c, 0, 66, 67
1, 8905, Note_off_c, 0, 73, 70
1, 9002, Note_on_c, 0, 66, 69
1, 9009, Note_on_c, 0, 69, 75
1, 9033, Note_off_c, 0, 66, 63
1, 9039, Note_off_c, 0, 69, 63
1, 9116, Note_on_c, 0, 61, 72
1, 9128, Note_on_c, 0, 66, 60
1, 9143, Note_off_c, 0, 61, 62
1, 9157, Note_off_c, 0, 66, 65
1, 9256, Note_on_c, 0, 57, 68
1, 9261, Note_on_c, 0, 61, 72
1, 9274, Note_off_c, 0, 57, 66
1, 9283, Note_off_c, 0, 61, 68
1, 9387, Note_on_c, 0, 54, 62
1, 9417, Note_off_c, 0, 54, 65
1, 9421, Note_on_c, 0, 57, 40
1, 9450, Note_off_c, 0, 57, 58
1, 9501, Note_on_c, 0, 61, 63
1, 9504, Note_on_c, 0, 66, 73
1, 9530, Note_off_c, 0, 61, 65
1, 9533, Note_off_c, 0, 66, 60
1, 9646, Note_on_c, 0, 61, 71
1, 9658, Note_on_c, 0, 68, 71
1, 9665, Note_on_c, 0, 65, 45
1, 9671, Note_off_c, 0, 61, 65
1, 9688, Note_off_c, 0, 68, 58
1, 9690, Note_off_c, 0, 65, 57
1, 9762, Note_on_c, 0, 49, 61
1, 9782, Note_on_c, 0, 61, 71
1, 9811, Note_off_c, 0, 49, 60
1, 9832, Note_off_c, 0, 61, 57
1, 9891, Note_on_c, 0, 61, 71
1, 9893, Note_on_c, 0, 68, 78
1, 9899, Note_on_c, 0, 65, 69
1, 9918, Note_off_c, 0, 61, 64
1, 9924, Note_off_c, 0, 65, 66
1, 9936, Note_off_c, 0, 68, 60
1, 10011, Note_on_c, 0, 61, 81
1, 10023, Note_on_c, 0, 69, 77
1, 10035, Note_on_c, 0, 66, 54
1, 10035, Note_off_c, 0, 61, 64
1, 10055, Note_off_c, 0, 66, 62
1, 10061, Note_off_c, 0, 69, 65
1, 10143, Note_on_c, 0, 61, 64
1, 10148, Note_on_c, 0, 54, 59
1, 10186, Note_off_c, 0, 61, 55
1, 10193, Note_off_c, 0, 54, 58
1, 10262, Note_on_c, 0, 69, 66
1, 10274, Note_on_c, 0, 61, 41
1, 10290, Note_off_c, 0, 69, 65
1, 10300, Note_off_c, 0, 61, 56
1, 10403, Note_on_c, 0, 63, 64
1, 10418, Note_on_c, 0, 66, 56
1, 10429, Note_off_c, 0, 63, 61
1, 10446, Note_off_c, 0, 66, 61
1, 10527, Note_on_c, 0, 57, 49
1, 10531, Note_on_c, 0, 60, 46
1, 10553, Note_off_c, 0, 57, 61
1, 10558, Note_off_c, 0, 60, 56
1, 10633, Note_on_c, 0, 63, 59
1, 10637, Note_on_c, 0, 66, 54
1, 10669, Note_off_c, 0, 63, 61
1, 10670, Note_off_c, 0, 66, 63
1, 10756, Note_on_c, 0, 61, 50
1, 10757, Note_on_c, 0, 65, 64
1, 10778, Note_off_c, 0, 61, 59
1, 10804, Note_off_c, 0, 65, 60
1, 10912, Note_on_c, 0, 68, 42
1, 10926, Note_on_c, 0, 73, 69
1, 10943, Note_off_c, 0, 68, 57
1, 10956, Note_off_c, 0, 73, 64
1, 10998, Note_on_c, 0, 77, 68
1, 11003, Note_on_c, 0, 80, 75
1, 11022, Note_off_c, 0, 77, 65
1, 11033, Note_off_c, 0, 80, 56
1, 11160, Control_c, 0, 64, 54
1, 11161, Note_on_c, 0, 81, 80
1, 11175, Control_c, 0, 64, 64
1, 11190, Control_c, 0, 64, 69
1, 11197, Note_on_c, 0, 77, 63
1, 11204, Control_c, 0, 64, 77
1, 11218, Note_off_c, 0, 81, 63
1, 11219, Control_c, 0, 64, 87
1, 11234, Control_c, 0, 64, 97
1, 11245, Note_off_c, 0, 77, 58
1, 11248, Control_c, 0, 64, 104
1, 11263, Control_c, 0, 64, 109
1, 11278, Control_c, 0, 64, 114
1, 11291, Note_on_c, 0, 73, 72
1, 11293, Control_c, 0, 64, 120
1, 11295, Note_on_c, 0, 69, 62
1, 11308, Control_c, 0, 64, 127
1, 11313, Note_off_c, 0, 73, 69
1, 11324, Note_off_c, 0, 69, 64
1, 11382, Control_c, 0, 64, 119
1, 11396, Control_c, 0, 64, 94
1, 11405, Poly_aftertouch_c, 0, 72, 127
1, 11411, Note_on_c, 0, 65, 71
1, 11411, Control_c, 0, 64, 72
1, 11421, Note_on_c, 0, 71, 36
1, 11426, Control_c, 0, 64, 53
1, 11428, Note_off_c, 0, 65, 66
1, 11429, Poly_aftertouch_c, 0, 72, 0
1, 11441, Control_c, 0, 64, 0
1, 11450, Note_off_c, 0, 71, 35
1, 11527, Note_on_c, 0, 65, 53
1, 11534, Note_on_c, 0, 61, 69
1, 11551, Note_off_c, 0, 61, 66
1, 11559, Note_off_c, 0, 65, 64
1, 11665, Note_on_c, 0, 69, 40
1, 11730, Note_off_c, 0, 69, 59
1, 11755, Note_on_c, 0, 77, 70
1, 11778, Note_on_c, 0, 81, 65
1, 11808, Note_off_c, 0, 77, 57
1, 11835, Note_off_c, 0, 81, 61
1, 11864, Control_c, 0, 64, 52
1, 11878, Control_c, 0, 64, 65
1, 11893, Control_c, 0, 64, 71
1, 11908, Control_c, 0, 64, 79
1, 11909, Note_on_c, 0, 78, 70
1, 11923, Control_c, 0, 64, 89
1, 11927, Note_on_c, 0, 74, 75
1, 11938, Control_c, 0, 64, 98
1, 11952, Control_c, 0, 64, 106
1, 11967, Note_off_c, 0, 78, 44
1, 11967, Control_c, 0, 64, 112
1, 11976, Note_off_c, 0, 74, 62
1, 11982, Control_c, 0, 64, 118
1, 11997, Control_c, 0, 64, 127
1, 12020, Note_on_c, 0, 69, 73
1, 12031, Note_on_c, 0, 66, 69
1, 12048, Note_off_c, 0, 69, 64
1, 12053, Note_off_c, 0, 66, 69
1, 12131, Note_on_c, 0, 62, 80
1, 12139, Note_on_c, 0, 66, 71
1, 12166, Note_off_c, 0, 66, 61
1, 12188, Note_off_c, 0, 62, 52
1, 12249, Control_c, 0, 64, 105
1, 12264, Note_on_c, 0, 67, 81
1, 12264, Control_c, 0, 64, 86
1, 12278, Control_c, 0, 64, 67
1, 12287, Note_off_c, 0, 67, 65
1, 12293, Control_c, 0, 64, 53
1, 12308, Control_c, 0, 64, 40
1, 12323, Control_c, 0, 64, 30
1, 12338, Control_c, 0, 64, 18
1, 12352, Control_c, 0, 64, 0
1, 12389, Note_on_c, 0, 70, 79
1, 12432, Note_on_c, 0, 74, 84
1, 12461, Note_off_c, 0, 70, 61
1, 12496, Note_on_c, 0, 78, 85
1, 12496, Note_on_c, 0, 82, 90
1, 12498, Note_off_c, 0, 74, 61
1, 12544, Note_off_c, 0, 78, 60
1, 12550, Note_off_c, 0, 82, 64
1, 12628, Control_c, 0, 64, 35
1, 12642, Control_c, 0, 64, 59
1, 12653, Note_on_c, 0, 83, 91
1, 12657, Control_c, 0, 64, 67
1, 12667, Note_on_c, 0, 82, 56
1, 12672, Control_c, 0, 64, 75
1, 12679, Note_on_c, 0, 78, 62
1, 12687, Control_c, 0, 64, 91
1, 12691, Note_off_c, 0, 82, 58
1, 12701, Control_c, 0, 64, 113
1, 12705, Note_off_c, 0, 83, 63
1, 12705, Note_off_c, 0, 78, 58
1, 12716, Control_c, 0, 64, 127
1, 12760, Note_on_c, 0, 71, 62
1, 12776, Poly_aftertouch_c, 0, 77, 0
1, 12802, Note_on_c, 0, 75, 71
1, 12803, Poly_aftertouch_c, 0, 77, 0
1, 12821, Note_off_c, 0, 71, 56
1, 12842, Note_off_c, 0, 75, 60
1, 12873, Poly_aftertouch_c, 0, 73, 0
1, 12890, Note_on_c, 0, 66, 77
1, 12920, Note_off_c, 0, 66, 59
1, 12983, Control_c, 0, 64, 94
1, 12998, Control_c, 0, 64, 68
1, 13012, Control_c, 0, 64, 50
1, 13016, Note_on_c, 0, 63, 78
1, 13027, Control_c, 0, 64, 27
1, 13032, Note_on_c, 0, 67, 56
1, 13042, Note_off_c, 0, 63, 66
1, 13063, Note_off_c, 0, 67, 63
1, 13072, Control_c, 0, 64, 0
1, 13133, Note_on_c, 0, 71, 63
1, 13176, Note_on_c, 0, 75, 58
1, 13186, Note_off_c, 0, 71, 57
1, 13208, Note_off_c, 0, 75, 65
1, 13249, Note_on_c, 0, 79, 64
1, 13267, Note_off_c, 0, 79, 64
1, 13291, Note_on_c, 0, 83, 24
1, 13338, Note_off_c, 0, 83, 42
1, 13361, Control_c, 0, 64, 42
1, 13364, Poly_aftertouch_c, 0, 81, 0
1, 13376, Control_c, 0, 64, 61
1, 13379, Note_on_c, 0, 80, 73
1, 13391, Control_c, 0, 64, 68
1, 13403, Note_on_c, 0, 76, 71
1, 13406, Control_c, 0, 64, 76
1, 13421, Control_c, 0, 64, 85
1, 13430, Note_off_c, 0, 80, 54
1, 13436, Control_c, 0, 64, 95
1, 13448, Note_off_c, 0, 76, 62
1, 13450, Control_c, 0, 64, 105
1, 13465, Control_c, 0, 64, 111
1, 13480, Control_c, 0, 64, 116
1, 13495, Control_c, 0, 64, 127
1, 13504, Note_on_c, 0, 71, 71
1, 13510, Note_on_c, 0, 68, 57
1, 13536, Note_off_c, 0, 68, 64
1, 13561, Note_off_c, 0, 71, 61
1, 13584, Control_c, 0, 67, 115
1, 13599, Control_c, 0, 67, 100
1, 13614, Note_on_c, 0, 68, 73
1, 13614, Control_c, 0, 67, 85
1, 13617, Note_on_c, 0, 64, 67
1, 13629, Control_c, 0, 67, 61
1, 13643, Control_c, 0, 67, 33
1, 13658, Control_c, 0, 67, 0
1, 13659, Note_off_c, 0, 64, 53
1, 13659, Note_off_c, 0, 68, 52
1, 13732, Note_on_c, 0, 68, 72
1, 13732, Control_c, 0, 64, 93
1, 13746, Note_on_c, 0, 71, 70
1, 13747, Control_c, 0, 64, 70
1, 13756, Note_off_c, 0, 68, 65
1, 13762, Control_c, 0, 64, 54
1, 13773, Note_off_c, 0, 71, 66
1, 13777, Control_c, 0, 64, 39
1, 13791, Control_c, 0, 64, 34
1, 13806, Control_c, 0, 64, 24
1, 13821, Control_c, 0, 64, 0
1, 13838, Note_on_c, 0, 71, 58
1, 13885, Note_on_c, 0, 74, 69
1, 13889, Note_off_c, 0, 71, 61
1, 13925, Note_off_c, 0, 74, 55
1, 13952, Note_on_c, 0, 80, 78
1, 13966, Note_on_c, 0, 84, 79
1, 14005, Note_off_c, 0, 80, 62
1, 14020, Note_off_c, 0, 84, 62
1, 14066, Control_c, 0, 64, 40
1, 14081, Control_c, 0, 64, 62
1, 14095, Note_on_c, 0, 85, 79
1, 14096, Control_c, 0, 64, 69
1, 14110, Note_on_c, 0, 80, 80
1, 14111, Control_c, 0, 64, 80
1, 14126, Control_c, 0, 64, 97
1, 14141, Control_c, 0, 64, 127
1, 14151, Note_off_c, 0, 85, 64
1, 14161, Note_off_c, 0, 80, 60
1, 14188, Note_on_c, 0, 73, 66
1, 14215, Note_on_c, 0, 77, 73
1, 14254, Note_off_c, 0, 73, 62
1, 14279, Note_off_c, 0, 77, 59
1, 14336, Note_on_c, 0, 65, 76
1, 14343, Note_on_c, 0, 68, 71
1, 14375, Note_off_c, 0, 68, 56
1, 14381, Note_off_c, 0, 65, 55
1, 14437, Control_c, 0, 64, 91
1, 14452, Note_on_c, 0, 66, 81
1, 14452, Control_c, 0, 64, 69
1, 14462, Note_on_c, 0, 69, 73
1, 14466, Control_c, 0, 64, 52
1, 14476, Note_off_c, 0, 66, 64
1, 14481, Control_c, 0, 64, 34
1, 14482, Note_off_c, 0, 69, 71
1, 14496, Control_c, 0, 64, 25
1, 14511, Control_c, 0, 64, 19
1, 14526, Control_c, 0, 64, 0
1, 14554, Note_on_c, 0, 72, 68
1, 14601, Note_on_c, 0, 75, 78
1, 14611, Note_off_c, 0, 72, 59
1, 14652, Note_on_c, 0, 78, 77
1, 14655, Note_on_c, 0, 81, 78
1, 14664, Note_on_c, 0, 84, 76
1, 14664, Note_off_c, 0, 75, 60
1, 14674, Note_off_c, 0, 78, 62
1, 14696, Note_off_c, 0, 81, 61
1, 14712, Note_off_c, 0, 84, 61
1, 14777, Control_c, 0, 64, 22
1, 14793, Control_c, 0, 64, 56
1, 14798, Note_on_c, 0, 85, 95
1, 14804, Note_on_c, 0, 80, 87
1, 14815, Control_c, 0, 64, 70
1, 14830, Control_c, 0, 64, 82
1, 14845, Control_c, 0, 64, 104
1, 14852, Note_off_c, 0, 85, 65
1, 14860, Control_c, 0, 64, 127
1, 14863, Note_off_c, 0, 80, 59
1, 14922, Note_on_c, 0, 73, 67
1, 14938, Note_on_c, 0, 77, 74
1, 14977, Note_off_c, 0, 73, 60
1, 15002, Note_off_c, 0, 77, 60
1, 15054, Note_on_c, 0, 65, 74
1, 15058, Note_on_c, 0, 68, 73
1, 15095, Note_off_c, 0, 65, 53
1, 15096, Note_off_c, 0, 68, 49
1, 15166, Note_on_c, 0, 66, 77
1, 15170, Note_on_c, 0, 69, 77
1, 15171, Control_c, 0, 64, 83
1, 15186, Control_c, 0, 64, 62
1, 15188, Note_off_c, 0, 66, 68
1, 15192, Note_off_c, 0, 69, 68
1, 15200, Control_c, 0, 64, 41
1, 15215, Control_c, 0, 64, 32
1, 15230, Control_c, 0, 64, 31
1, 15245, Control_c, 0, 64, 30
1, 15275, Note_on_c, 0, 72, 64
1, 15314, Note_on_c, 0, 75, 73
1, 15323, Note_off_c, 0, 72, 62
1, 15361, Note_on_c, 0, 78, 69
1, 15374, Note_on_c, 0, 81, 65
1, 15375, Note_off_c, 0, 75, 62
1, 15384, Note_off_c, 0, 78, 67
1, 15393, Control_c, 0, 64, 28
1, 15402, Note_on_c, 0, 84, 63
1, 15407, Control_c, 0, 64, 22
1, 15409, Note_off_c, 0, 81, 60
1, 15428, Note_off_c, 0, 84, 65
1, 15437, Control_c, 0, 64, 0
1, 15511, Control_c, 0, 64, 37
1, 15515, Note_on_c, 0, 85, 89
1, 15522, Note_on_c, 0, 80, 81
1, 15526, Control_c, 0, 64, 61
1, 15541, Control_c, 0, 64, 70
1, 15563, Control_c, 0, 64, 78
1, 15567, Note_off_c, 0, 85, 61
1, 15576, Note_off_c, 0, 80, 58
1, 15578, Control_c, 0, 64, 92
1, 15594, Control_c, 0, 64, 108
1, 15609, Control_c, 0, 64, 127
1, 15636, Note_on_c, 0, 73, 66
1, 15649, Note_on_c, 0, 77, 73
1, 15700, Note_off_c, 0, 73, 59
1, 15710, Note_off_c, 0, 77, 59
1, 15745, Note_on_c, 0, 68, 80
1, 15747, Note_on_c, 0, 65, 69
1, 15764, Note_off_c, 0, 65, 68
1, 15770, Note_off_c, 0, 68, 61
1, 15882, Note_on_c, 0, 81, 87
1, 15898, Note_on_c, 0, 84, 67
1, 15905, Note_off_c, 0, 81, 63
1, 15910, Note_on_c, 0, 85, 42
1, 15922, Note_off_c, 0, 84, 62
1, 15936, Note_off_c, 0, 85, 58
1, 15993, Note_on_c, 0, 73, 73
1, 16005, Note_on_c, 0, 77, 78
1, 16049, Note_off_c, 0, 73, 62
1, 16072, Note_off_c, 0, 77, 60
1, 16108, Note_on_c, 0, 69, 84
1, 16115, Note_on_c, 0, 65, 65
1, 16134, Note_off_c, 0, 65, 64
1, 16137, Note_off_c, 0, 69, 60
1, 16251, Note_on_c, 0, 81, 89
1, 16252, Note_on_c, 0, 85, 94
1, 16274, Note_off_c, 0, 81, 64
1, 16297, Note_off_c, 0, 85, 62
1, 16361, Note_on_c, 0, 73, 80
1, 16380, Note_on_c, 0, 77, 80
1, 16416, Control_c, 0, 64, 75
1, 16431, Control_c, 0, 64, 55
1, 16446, Control_c, 0, 64, 52
1, 16460, Note_off_c, 0, 73, 62
1, 16460, Control_c, 0, 64, 61
1, 16462, Note_off_c, 0, 77, 63
1, 16475, Control_c, 0, 64, 68
1, 16490, Control_c, 0, 64, 78
1, 16494, Note_on_c, 0, 65, 84
1, 16499, Note_on_c, 0, 69, 80
1, 16505, Control_c, 0, 64, 99
1, 16520, Control_c, 0, 64, 127
1, 16545, Note_off_c, 0, 65, 60
1, 16551, Note_off_c, 0, 69, 56
1, 16638, Control_c, 0, 64, 78
1, 16639, Note_on_c, 0, 69, 92
1, 16652, Note_on_c, 0, 73, 84
1, 16653, Control_c, 0, 64, 64
1, 16682, Control_c, 0, 64, 69
1, 16687, Note_off_c, 0, 69, 66
1, 16697, Control_c, 0, 64, 77
1, 16712, Control_c, 0, 64, 99
1, 16724, Note_off_c, 0, 73, 63
1, 16727, Control_c, 0, 64, 127
1, 16807, Note_on_c, 0, 73, 98
1, 16816, Control_c, 0, 64, 92
1, 16817, Note_on_c, 0, 78, 89
1, 16831, Control_c, 0, 64, 77
1, 16846, Control_c, 0, 64, 76
1, 16850, Note_on_c, 0, 77, 59
1, 16855, Note_off_c, 0, 73, 65
1, 16860, Control_c, 0, 64, 90
1, 16867, Note_off_c, 0, 78, 65
1, 16875, Control_c, 0, 64, 127
1, 16878, Note_off_c, 0, 77, 64
1, 17008, Control_c, 0, 64, 92
1, 17023, Control_c, 0, 64, 68
1, 17029, Note_on_c, 0, 77, 86
1, 17037, Note_on_c, 0, 81, 95
1, 17038, Control_c, 0, 64, 63
1, 17053, Control_c, 0, 64, 69
1, 17075, Control_c, 0, 64, 83
1, 17083, Note_off_c, 0, 77, 61
1, 17090, Control_c, 0, 64, 127
1, 17150, Note_off_c, 0, 81, 62
1, 17254, Control_c, 0, 64, 111
1, 17269, Control_c, 0, 64, 74
1, 17283, Control_c, 0, 64, 53
1, 17298, Control_c, 0, 64, 34
1, 17328, Control_c, 0, 64, 0
1, 17698, Control_c, 0, 64, 16
1, 17713, Control_c, 0, 64, 39
1, 17728, Control_c, 0, 64, 54
1, 17743, Control_c, 0, 64, 61
1, 17746, Note_on_c, 0, 85, 56
1, 17749, Note_on_c, 0, 73, 45
1, 17756, Note_on_c, 0, 64, 40
1, 17758, Control_c, 0, 64, 64
1, 17761, Note_on_c, 0, 69, 38
1, 17773, Control_c, 0, 64, 67
1, 17788, Note_off_c, 0, 73, 55
1, 17788, Control_c, 0, 64, 75
1, 17789, Note_off_c, 0, 85, 61
1, 17792, Note_off_c, 0, 69, 55
1, 17799, Note_off_c, 0, 64, 50
1, 17803, Control_c, 0, 64, 85
1, 17818, Note_on_c, 0, 88, 62
1, 17824, Control_c, 0, 64, 98
1, 17839, Control_c, 0, 64, 117
1, 17854, Control_c, 0, 64, 127
1, 17871, Note_off_c, 0, 88, 55
1, 17911, Note_on_c, 0, 97, 55
1, 17913, Note_on_c, 0, 69, 49
1, 17916, Note_on_c, 0, 73, 49
1, 17925, Note_on_c, 0, 64, 46
1, 17930, Note_off_c, 0, 97, 66
1, 17944, Note_off_c, 0, 73, 54
1, 17946, Note_off_c, 0, 69, 59
1, 17956, Note_off_c, 0, 64, 53
1, 17970, Note_on_c, 0, 88, 47
1, 17995, Note_off_c, 0, 88, 58
1, 18014, Note_on_c, 0, 85, 66
1, 18031, Note_off_c, 0, 85, 67
1, 18047, Note_on_c, 0, 69, 52
1, 18048, Note_on_c, 0, 73, 55
1, 18054, Note_on_c, 0, 64, 50
1, 18079, Note_off_c, 0, 73, 59
1, 18086, Note_off_c, 0, 64, 57
1, 18087, Note_off_c, 0, 69, 61
1, 18098, Note_on_c, 0, 83, 72
1, 18122, Note_off_c, 0, 83, 66
1, 18155, Note_on_c, 0, 81, 63
1, 18178, Note_on_c, 0, 73, 58
1, 18183, Note_on_c, 0, 64, 49
1, 18186, Note_on_c, 0, 69, 57
1, 18186, Note_off_c, 0, 81, 63
1, 18208, Note_off_c, 0, 73, 60
1, 18215, Note_off_c, 0, 69, 66
1, 18217, Note_off_c, 0, 64, 51
1, 18220, Note_on_c, 0, 85, 75
1, 18255, Note_off_c, 0, 85, 58
1, 18304, Note_on_c, 0, 93, 68
1, 18314, Note_on_c, 0, 64, 55
1, 18314, Note_on_c, 0, 73, 54
1, 18316, Note_on_c, 0, 69, 58
1, 18333, Note_off_c, 0, 93, 59
1, 18347, Note_off_c, 0, 73, 61
1, 18348, Note_off_c, 0, 64, 57
1, 18349, Note_on_c, 0, 85, 71
1, 18350, Note_off_c, 0, 69, 64
1, 18376, Note_off_c, 0, 85, 63
1, 18417, Note_on_c, 0, 81, 65
1, 18435, Note_off_c, 0, 81, 67
1, 18446, Note_on_c, 0, 73, 59
1, 18449, Note_on_c, 0, 64, 47
1, 18474, Note_on_c, 0, 69, 46
1, 18476, Note_on_c, 0, 80, 76
1, 18478, Note_off_c, 0, 73, 62
1, 18482, Note_off_c, 0, 64, 51
1, 18502, Note_off_c, 0, 69, 54
1, 18526, Note_off_c, 0, 80, 58
1, 18536, Control_c, 0, 64, 109
1, 18558, Control_c, 0, 64, 79
1, 18573, Control_c, 0, 64, 61
1, 18577, Note_on_c, 0, 78, 65
1, 18588, Control_c, 0, 64, 44
1, 18596, Note_on_c, 0, 73, 68
1, 18599, Note_on_c, 0, 69, 61
1, 18603, Control_c, 0, 64, 30
1, 18604, Note_on_c, 0, 64, 48
1, 18615, Note_off_c, 0, 78, 56
1, 18618, Control_c, 0, 64, 20
1, 18619, Note_off_c, 0, 69, 65
1, 18623, Note_off_c, 0, 73, 66
1, 18628, Note_off_c, 0, 64, 58
1, 18632, Control_c, 0, 64, 0
1, 18634, Note_on_c, 0, 81, 59
1, 18670, Note_off_c, 0, 81, 53
1, 18707, Note_on_c, 0, 90, 71
1, 18754, Note_off_c, 0, 90, 60
1, 18766, Note_on_c, 0, 81, 63
1, 18816, Note_off_c, 0, 81, 62
1, 18833, Note_on_c, 0, 80, 62
1, 18878, Note_off_c, 0, 80, 47
1, 18903, Note_on_c, 0, 81, 54
1, 18925, Note_off_c, 0, 81, 64
1, 18983, Note_on_c, 0, 75, 61
1, 18989, Control_c, 0, 64, 50
1, 18989, Note_on_c, 0, 64, 49
1, 18992, Note_on_c, 0, 83, 59
1, 19002, Note_on_c, 0, 66, 43
1, 19004, Control_c, 0, 64, 66
1, 19005, Note_on_c, 0, 69, 45
1, 19012, Note_off_c, 0, 83, 62
1, 19015, Note_off_c, 0, 75, 62
1, 19019, Control_c, 0, 64, 73
1, 19029, Note_off_c, 0, 69, 61
1, 19031, Note_off_c, 0, 64, 60
1, 19034, Control_c, 0, 64, 82
1, 19036, Note_off_c, 0, 66, 53
1, 19046, Note_on_c, 0, 87, 71
1, 19049, Control_c, 0, 64, 94
1, 19063, Control_c, 0, 64, 113
1, 19078, Control_c, 0, 64, 127
1, 19094, Note_off_c, 0, 87, 59
1, 19112, Note_on_c, 0, 95, 68
1, 19126, Note_on_c, 0, 69, 53
1, 19130, Note_on_c, 0, 75, 54
1, 19140, Note_on_c, 0, 64, 38
1, 19151, Note_off_c, 0, 75, 62
1, 19152, Note_off_c, 0, 95, 53
1, 19168, Note_off_c, 0, 69, 61
1, 19172, Note_on_c, 0, 90, 72
1, 19173, Note_off_c, 0, 64, 51
1, 19192, Note_off_c, 0, 90, 69
1, 19222, Note_on_c, 0, 83, 74
1, 19227, Poly_aftertouch_c, 0, 66, 0
1, 19237, Note_on_c, 0, 75, 65
1, 19255, Note_off_c, 0, 83, 57
1, 19260, Note_on_c, 0, 64, 46
1, 19270, Note_off_c, 0, 75, 61
1, 19287, Note_off_c, 0, 64, 57
1, 19307, Note_on_c, 0, 80, 76
1, 19323, Control_c, 0, 64, 120
1, 19334, Note_off_c, 0, 80, 60
1, 19337, Control_c, 0, 64, 83
1, 19352, Control_c, 0, 64, 63
1, 19356, Poly_aftertouch_c, 0, 68, 0
1, 19367, Control_c, 0, 64, 43
1, 19375, Note_on_c, 0, 74, 84
1, 19379, Note_on_c, 0, 68, 33
1, 19380, Note_on_c, 0, 64, 62
1, 19381, Control_c, 0, 64, 29
1, 19384, Note_on_c, 0, 78, 63
1, 19396, Control_c, 0, 64, 22
1, 19398, Note_off_c, 0, 74, 66
1, 19401, Note_off_c, 0, 64, 63
1, 19417, Note_off_c, 0, 68, 61
1, 19424, Note_off_c, 0, 78, 58
1, 19426, Control_c, 0, 64, 0
1, 19441, Note_on_c, 0, 83, 71
1, 19496, Note_off_c, 0, 83, 56
1, 19505, Note_on_c, 0, 90, 75
1, 19570, Note_on_c, 0, 83, 57
1, 19577, Note_off_c, 0, 90, 62
1, 19606, Note_off_c, 0, 83, 61
1, 19619, Note_on_c, 0, 78, 79
1, 19659, Note_off_c, 0, 78, 58
1, 19705, Note_on_c, 0, 76, 71
1, 19751, Note_off_c, 0, 76, 57
1, 19765, Note_on_c, 0, 75, 73
1, 19790, Note_off_c, 0, 75, 67
1, 19825, Note_on_c, 0, 76, 56
1, 19863, Note_off_c, 0, 76, 59
1, 19892, Note_on_c, 0, 78, 66
1, 19910, Note_off_c, 0, 78, 64
1, 19948, Note_on_c, 0, 80, 66
1, 19979, Note_off_c, 0, 80, 61
1, 20008, Note_on_c, 0, 81, 80
1, 20064, Note_off_c, 0, 81, 58
1, 20071, Control_c, 0, 64, 42
1, 20078, Note_on_c, 0, 83, 76
1, 20085, Control_c, 0, 64, 60
1, 20100, Note_off_c, 0, 83, 68
1, 20100, Control_c, 0, 64, 67
1, 20115, Control_c, 0, 64, 72
1, 20130, Control_c, 0, 64, 81
1, 20144, Control_c, 0, 64, 94
1, 20148, Note_on_c, 0, 73, 61
1, 20150, Note_on_c, 0, 64, 54
1, 20158, Note_on_c, 0, 69, 57
1, 20159, Control_c, 0, 64, 117
1, 20166, Note_on_c, 0, 85, 76
1, 20174, Control_c, 0, 64, 127
1, 20184, Note_off_c, 0, 73, 62
1, 20192, Note_off_c, 0, 69, 64
1, 20199, Note_off_c, 0, 64, 51
1, 20199, Note_off_c, 0, 85, 61
1, 20203, Note_on_c, 0, 88, 70
1, 20262, Note_off_c, 0, 88, 60
1, 20294, Note_on_c, 0, 97, 63
1, 20300, Note_on_c, 0, 64, 35
1, 20301, Note_on_c, 0, 73, 49
1, 20305, Note_on_c, 0, 69, 48
1, 20322, Note_off_c, 0, 73, 62
1, 20325, Note_off_c, 0, 69, 63
1, 20330, Note_on_c, 0, 88, 60
1, 20333, Note_off_c, 0, 97, 60
1, 20334, Note_off_c, 0, 64, 51
1, 20386, Note_off_c, 0, 88, 60
1, 20394, Note_on_c, 0, 85, 76
1, 20405, Note_on_c, 0, 73, 63
1, 20409, Note_on_c, 0, 69, 63
1, 20416, Note_off_c, 0, 85, 68
1, 20432, Note_on_c, 0, 64, 53
1, 20450, Note_off_c, 0, 69, 55
1, 20450, Note_off_c, 0, 73, 57
1, 20459, Note_off_c, 0, 64, 58
1, 20483, Note_on_c, 0, 83, 77
1, 20506, Note_off_c, 0, 83, 65
1, 20533, Note_on_c, 0, 81, 73
1, 20553, Note_on_c, 0, 73, 57
1, 20554, Note_on_c, 0, 64, 49
1, 20561, Note_on_c, 0, 69, 48
1, 20571, Note_off_c, 0, 73, 64
1, 20573, Note_off_c, 0, 64, 62
1, 20577, Note_off_c, 0, 81, 56
1, 20587, Note_off_c, 0, 69, 57
1, 20597, Note_on_c, 0, 85, 82
1, 20651, Note_off_c, 0, 85, 62
1, 20661, Note_on_c, 0, 73, 66
1, 20661, Note_on_c, 0, 64, 59
1, 20667, Note_on_c, 0, 69, 71
1, 20682, Note_on_c, 0, 93, 74
1, 20697, Note_off_c, 0, 69, 62
1, 20700, Note_off_c, 0, 73, 57
1, 20703, Note_off_c, 0, 64, 55
1, 20718, Note_off_c, 0, 93, 55
1, 20732, Note_on_c, 0, 85, 75
1, 20770, Note_off_c, 0, 85, 60
1, 20779, Note_on_c, 0, 81, 81
1, 20793, Note_on_c, 0, 73, 83
1, 20799, Note_on_c, 0, 69, 70
1, 20809, Note_off_c, 0, 81, 64
1, 20814, Note_on_c, 0, 64, 63
1, 20832, Note_off_c, 0, 73, 53
1, 20835, Note_off_c, 0, 69, 58
1, 20840, Note_off_c, 0, 64, 66
1, 20853, Note_on_c, 0, 80, 85
1, 20894, Control_c, 0, 64, 84
1, 20902, Note_off_c, 0, 80, 61
1, 20909, Control_c, 0, 64, 63
1, 20924, Control_c, 0, 64, 43
1, 20931, Note_on_c, 0, 73, 90
1, 20933, Note_on_c, 0, 78, 83
1, 20937, Note_on_c, 0, 69, 75
1, 20939, Control_c, 0, 64, 25
1, 20943, Note_on_c, 0, 64, 59
1, 20958, Note_off_c, 0, 73, 59
1, 20962, Note_off_c, 0, 69, 65
1, 20963, Note_off_c, 0, 64, 63
1, 20968, Control_c, 0, 64, 0
1, 20983, Note_off_c, 0, 78, 61
1, 20995, Note_on_c, 0, 81, 68
1, 21027, Note_off_c, 0, 81, 59
1, 21061, Note_on_c, 0, 90, 75
1, 21106, Note_off_c, 0, 90, 63
1, 21124, Note_on_c, 0, 81, 66
1, 21167, Note_off_c, 0, 81, 62
1, 21177, Note_on_c, 0, 80, 63
1, 21213, Note_off_c, 0, 80, 59
1, 21232, Note_on_c, 0, 81, 61
1, 21258, Note_off_c, 0, 81, 67
1, 21294, Control_c, 0, 64, 34
1, 21309, Control_c, 0, 64, 55
1, 21317, Note_on_c, 0, 75, 58
1, 21317, Note_on_c, 0, 83, 62
1, 21322, Note_on_c, 0, 64, 51
1, 21323, Control_c, 0, 64, 65
1, 21338, Note_off_c, 0, 83, 62
1, 21338, Control_c, 0, 64, 69
1, 21339, Note_on_c, 0, 66, 38
1, 21343, Note_on_c, 0, 69, 37
1, 21347, Note_off_c, 0, 75, 61
1, 21353, Control_c, 0, 64, 77
1, 21367, Note_off_c, 0, 64, 52
1, 21368, Control_c, 0, 64, 87
1, 21371, Note_off_c, 0, 66, 54
1, 21371, Note_off_c, 0, 69, 53
1, 21373, Note_on_c, 0, 87, 75
1, 21383, Control_c, 0, 64, 100
1, 21398, Control_c, 0, 64, 122
1, 21413, Control_c, 0, 64, 127
1, 21428, Note_off_c, 0, 87, 61
1, 21429, Note_on_c, 0, 95, 75
1, 21442, Note_on_c, 0, 75, 60
1, 21454, Note_on_c, 0, 64, 48
1, 21457, Note_on_c, 0, 69, 60
1, 21471, Note_off_c, 0, 75, 62
1, 21481, Note_off_c, 0, 95, 60
1, 21490, Note_off_c, 0, 69, 60
1, 21493, Note_on_c, 0, 90, 77
1, 21498, Note_off_c, 0, 64, 56
1, 21517, Note_off_c, 0, 90, 65
1, 21537, Note_on_c, 0, 83, 82
1, 21565, Poly_aftertouch_c, 0, 66, 0
1, 21578, Note_on_c, 0, 75, 73
1, 21582, Note_on_c, 0, 64, 60
1, 21587, Note_off_c, 0, 83, 59
1, 21615, Note_off_c, 0, 75, 53
1, 21618, Note_on_c, 0, 68, 44
1, 21620, Note_on_c, 0, 80, 83
1, 21625, Note_off_c, 0, 64, 57
1, 21642, Note_off_c, 0, 68, 55
1, 21647, Note_off_c, 0, 80, 61
1, 21657, Control_c, 0, 64, 104
1, 21672, Control_c, 0, 64, 71
1, 21687, Control_c, 0, 64, 53
1, 21699, Note_on_c, 0, 78, 68
1, 21702, Control_c, 0, 64, 35
1, 21706, Note_on_c, 0, 74, 91
1, 21712, Note_on_c, 0, 68, 72
1, 21713, Note_on_c, 0, 64, 72
1, 21717, Control_c, 0, 64, 26
1, 21725, Note_off_c, 0, 78, 65
1, 21727, Note_off_c, 0, 74, 66
1, 21740, Note_off_c, 0, 64, 64
1, 21746, Note_off_c, 0, 68, 55
1, 21747, Control_c, 0, 64, 0
1, 21754, Note_on_c, 0, 83, 67
1, 21809, Note_off_c, 0, 83, 58
1, 21815, Note_on_c, 0, 90, 76
1, 21870, Note_on_c, 0, 83, 69
1, 21892, Note_off_c, 0, 90, 61
1, 21919, Note_off_c, 0, 83, 61
1, 21932, Note_on_c, 0, 78, 80
1, 21966, Note_off_c, 0, 78, 59
1, 22018, Note_on_c, 0, 76, 71
1, 22045, Note_off_c, 0, 76, 58
1, 22066, Note_on_c, 0, 75, 77
1, 22111, Note_off_c, 0, 75, 59
1, 22117, Note_on_c, 0, 76, 73
1, 22172, Note_off_c, 0, 76, 60
1, 22189, Note_on_c, 0, 78, 75
1, 22230, Note_off_c, 0, 78, 60
1, 22242, Note_on_c, 0, 80, 66
1, 22285, Note_off_c, 0, 80, 61
1, 22317, Note_on_c, 0, 81, 78
1, 22317, Control_c, 0, 64, 29
1, 22331, Control_c, 0, 64, 52
1, 22346, Control_c, 0, 64, 62
1, 22360, Note_off_c, 0, 81, 60
1, 22361, Control_c, 0, 64, 66
1, 22374, Note_on_c, 0, 83, 75
1, 22376, Control_c, 0, 64, 71
1, 22391, Control_c, 0, 64, 79
1, 22396, Note_off_c, 0, 83, 68
1, 22405, Control_c, 0, 64, 90
1, 22420, Control_c, 0, 64, 104
1, 22435, Control_c, 0, 64, 127
1, 22450, Note_on_c, 0, 76, 70
1, 22457, Note_on_c, 0, 85, 76
1, 22459, Note_on_c, 0, 73, 64
1, 22468, Note_on_c, 0, 69, 57
1, 22490, Note_off_c, 0, 76, 50
1, 22492, Note_off_c, 0, 73, 62
1, 22503, Note_on_c, 0, 88, 76
1, 22504, Note_off_c, 0, 69, 59
1, 22504, Note_off_c, 0, 85, 62
1, 22562, Note_off_c, 0, 88, 58
1, 22572, Note_on_c, 0, 97, 70
1, 22607, Note_on_c, 0, 73, 44
1, 22610, Note_on_c, 0, 76, 36
1, 22611, Note_on_c, 0, 69, 38
1, 22629, Note_off_c, 0, 97, 63
1, 22635, Note_off_c, 0, 73, 55
1, 22635, Note_off_c, 0, 76, 56
1, 22640, Note_on_c, 0, 88, 64
1, 22641, Note_off_c, 0, 69, 54
1, 22670, Note_off_c, 0, 88, 60
1, 22698, Note_on_c, 0, 81, 78
1, 22719, Note_on_c, 0, 73, 63
1, 22719, Note_on_c, 0, 76, 65
1, 22747, Note_on_c, 0, 69, 31
1, 22758, Note_off_c, 0, 76, 56
1, 22758, Note_off_c, 0, 81, 55
1, 22761, Control_c, 0, 64, 84
1, 22765, Note_off_c, 0, 73, 52
1, 22769, Note_on_c, 0, 83, 83
1, 22777, Control_c, 0, 64, 65
1, 22778, Note_off_c, 0, 69, 53
1, 22791, Note_off_c, 0, 83, 69
1, 22792, Control_c, 0, 64, 56
1, 22822, Control_c, 0, 64, 59
1, 22836, Control_c, 0, 64, 65
1, 22845, Note_on_c, 0, 76, 67
1, 22847, Note_on_c, 0, 85, 86
1, 22847, Note_on_c, 0, 68, 65
1, 22848, Note_on_c, 0, 73, 67
1, 22851, Control_c, 0, 64, 72
1, 22866, Control_c, 0, 64, 84
1, 22881, Control_c, 0, 64, 106
1, 22887, Note_off_c, 0, 76, 54
1, 22888, Note_off_c, 0, 73, 62
1, 22895, Control_c, 0, 64, 127
1, 22896, Note_on_c, 0, 88, 79
1, 22899, Note_off_c, 0, 68, 54
1, 22906, Note_off_c, 0, 85, 61
1, 22973, Note_on_c, 0, 68, 54
1, 22975, Note_on_c, 0, 97, 78
1, 22981, Note_off_c, 0, 88, 57
1, 22990, Note_on_c, 0, 73, 53
1, 22996, Note_on_c, 0, 76, 36
1, 23012, Note_off_c, 0, 73, 60
1, 23018, Note_off_c, 0, 68, 53
1, 23023, Note_off_c, 0, 76, 55
1, 23030, Note_off_c, 0, 97, 65
1, 23076, Note_on_c, 0, 88, 45
1, 23083, Note_on_c, 0, 68, 58
1, 23094, Note_on_c, 0, 84, 83
1, 23098, Note_on_c, 0, 73, 68
1, 23100, Note_off_c, 0, 88, 57
1, 23110, Note_on_c, 0, 76, 60
1, 23130, Note_off_c, 0, 73, 58
1, 23138, Note_off_c, 0, 76, 62
1, 23140, Note_off_c, 0, 68, 55
1, 23140, Note_off_c, 0, 84, 60
1, 23169, Control_c, 0, 64, 111
1, 23174, Note_on_c, 0, 85, 86
1, 23184, Control_c, 0, 64, 77
1, 23195, Note_off_c, 0, 85, 66
1, 23199, Control_c, 0, 64, 55
1, 23214, Note_on_c, 0, 76, 82
1, 23214, Control_c, 0, 64, 44
1, 23225, Note_on_c, 0, 67, 73
1, 23232, Note_on_c, 0, 73, 70
1, 23241, Note_on_c, 0, 85, 88
1, 23243, Control_c, 0, 64, 45
1, 23258, Control_c, 0, 64, 54
1, 23261, Note_off_c, 0, 73, 62
1, 23273, Control_c, 0, 64, 64
1, 23288, Control_c, 0, 64, 72
1, 23297, Note_on_c, 0, 88, 83
1, 23303, Control_c, 0, 64, 80
1, 23304, Note_off_c, 0, 85, 63
1, 23307, Note_off_c, 0, 76, 0
1, 23317, Control_c, 0, 64, 89
1, 23332, Control_c, 0, 64, 96
1, 23338, Note_on_c, 0, 73, 80
1, 23343, Note_off_c, 0, 67, 51
1, 23345, Poly_aftertouch_c, 0, 76, 127
1, 23348, Control_c, 0, 64, 102
1, 23362, Control_c, 0, 64, 106
1, 23363, Note_on_c, 0, 97, 83
1, 23366, Note_off_c, 0, 88, 57
1, 23377, Control_c, 0, 64, 109
1, 23383, Poly_aftertouch_c, 0, 76, 0
1, 23392, Control_c, 0, 64, 111
1, 23407, Control_c, 0, 64, 115
1, 23412, Note_off_c, 0, 97, 66
1, 23422, Note_off_c, 0, 73, 62
1, 23422, Control_c, 0, 64, 116
1, 23429, Note_on_c, 0, 64, 72
1, 23451, Note_on_c, 0, 88, 56
1, 23470, Note_off_c, 0, 88, 64
1, 23475, Note_on_c, 0, 84, 81
1, 23496, Note_off_c, 0, 64, 58
1, 23503, Note_on_c, 0, 70, 81
1, 23510, Note_off_c, 0, 84, 59
1, 23511, Control_c, 0, 64, 113
1, 23526, Control_c, 0, 64, 98
1, 23541, Note_on_c, 0, 73, 81
1, 23541, Control_c, 0, 64, 78
1, 23547, Note_on_c, 0, 85, 85
1, 23555, Control_c, 0, 64, 61
1, 23571, Control_c, 0, 64, 39
1, 23574, Note_off_c, 0, 85, 66
1, 23586, Control_c, 0, 64, 26
1, 23595, Note_off_c, 0, 70, 59
1, 23601, Control_c, 0, 64, 23
1, 23610, Note_on_c, 0, 79, 90
1, 23617, Note_on_c, 0, 85, 82
1, 23623, Note_off_c, 0, 73, 65
1, 23630, Control_c, 0, 64, 0
1, 23651, Note_off_c, 0, 79, 64
1, 23675, Note_off_c, 0, 85, 63
1, 23686, Note_on_c, 0, 88, 79
1, 23741, Note_on_c, 0, 97, 80
1, 23759, Note_off_c, 0, 88, 57
1, 23791, Note_off_c, 0, 97, 65
1, 23819, Note_on_c, 0, 94, 61
1, 23837, Note_off_c, 0, 94, 63
1, 23862, Note_on_c, 0, 91, 68
1, 23887, Note_off_c, 0, 91, 68
1, 23890, Control_c, 0, 64, 22
1, 23904, Control_c, 0, 64, 54
1, 23909, Note_on_c, 0, 88, 70
1, 23919, Control_c, 0, 64, 65
1, 23934, Control_c, 0, 64, 71
1, 23949, Control_c, 0, 64, 78
1, 23955, Note_off_c, 0, 88, 60
1, 23964, Control_c, 0, 64, 90
1, 23978, Control_c, 0, 64, 105
1, 23985, Note_on_c, 0, 76, 75
1, 23989, Note_on_c, 0, 85, 79
1, 23993, Control_c, 0, 64, 127
1, 24001, Note_on_c, 0, 66, 60
1, 24008, Note_on_c, 0, 73, 51
1, 24014, Note_off_c, 0, 76, 61
1, 24015, Note_on_c, 0, 70, 45
1, 24034, Note_off_c, 0, 66, 60
1, 24034, Note_off_c, 0, 73, 55
1, 24047, Note_off_c, 0, 70, 53
1, 24055, Note_on_c, 0, 82, 75
1, 24060, Note_off_c, 0, 85, 63
1, 24105, Note_on_c, 0, 79, 71
1, 24106, Note_off_c, 0, 82, 64
1, 24157, Note_off_c, 0, 79, 57
1, 24169, Note_on_c, 0, 76, 73
1, 24232, Note_off_c, 0, 76, 63
1, 24236, Note_on_c, 0, 78, 75
1, 24282, Note_on_c, 0, 79, 67
1, 24289, Control_c, 0, 64, 92
1, 24294, Note_off_c, 0, 78, 56
1, 24304, Control_c, 0, 64, 71
1, 24319, Control_c, 0, 64, 53
1, 24334, Control_c, 0, 64, 42
1, 24340, Note_on_c, 0, 80, 73
1, 24349, Control_c, 0, 64, 37
1, 24353, Note_off_c, 0, 79, 58
1, 24364, Control_c, 0, 64, 33
1, 24379, Control_c, 0, 64, 26
1, 24394, Control_c, 0, 64, 22
1, 24397, Note_off_c, 0, 80, 60
1, 24407, Note_on_c, 0, 81, 81
1, 24408, Control_c, 0, 64, 21
1, 24447, Note_off_c, 0, 81, 63
1, 24477, Note_on_c, 0, 82, 71
1, 24515, Note_off_c, 0, 82, 58
1, 24531, Note_on_c, 0, 83, 83
1, 24583, Note_off_c, 0, 83, 57
1, 24608, Note_on_c, 0, 84, 68
1, 24608, Control_c, 0, 64, 21
1, 24623, Control_c, 0, 64, 20
1, 24635, Note_off_c, 0, 84, 62
1, 24638, Control_c, 0, 64, 18
1, 24653, Control_c, 0, 64, 17
1, 24655, Note_on_c, 0, 85, 73
1, 24694, Note_off_c, 0, 85, 62
1, 24713, Control_c, 0, 64, 32
1, 24722, Note_on_c, 0, 86, 74
1, 24727, Control_c, 0, 64, 54
1, 24742, Control_c, 0, 64, 64
1, 24749, Note_on_c, 0, 77, 56
1, 24756, Note_on_c, 0, 70, 52
1, 24757, Control_c, 0, 64, 68
1, 24769, Note_on_c, 0, 74, 43
1, 24770, Note_off_c, 0, 86, 56
1, 24772, Control_c, 0, 64, 73
1, 24776, Note_off_c, 0, 77, 56
1, 24781, Note_on_c, 0, 89, 76
1, 24787, Control_c, 0, 64, 81
1, 24789, Note_off_c, 0, 70, 57
1, 24795, Note_off_c, 0, 74, 54
1, 24801, Control_c, 0, 64, 91
1, 24816, Control_c, 0, 64, 105
1, 24831, Control_c, 0, 64, 127
1, 24838, Note_off_c, 0, 89, 60
1, 24850, Note_on_c, 0, 98, 75
1, 24873, Note_on_c, 0, 70, 68
1, 24874, Note_on_c, 0, 77, 59
1, 24876, Note_off_c, 0, 98, 62
1, 24877, Note_on_c, 0, 74, 63
1, 24894, Note_on_c, 0, 90, 52
1, 24909, Note_off_c, 0, 74, 63
1, 24912, Note_off_c, 0, 77, 55
1, 24916, Note_off_c, 0, 90, 62
1, 24921, Note_off_c, 0, 70, 53
1, 24928, Note_on_c, 0, 89, 23
1, 24969, Note_off_c, 0, 89, 49
1, 24980, Note_on_c, 0, 82, 73
1, 24998, Note_on_c, 0, 77, 64
1, 24999, Note_on_c, 0, 70, 54
1, 25014, Note_off_c, 0, 82, 61
1, 25021, Note_on_c, 0, 74, 57
1, 25043, Note_on_c, 0, 84, 72
1, 25049, Note_off_c, 0, 74, 61
1, 25052, Note_off_c, 0, 70, 54
1, 25064, Note_off_c, 0, 84, 67
1, 25077, Note_off_c, 0, 77, 37
1, 25097, Control_c, 0, 64, 92
1, 25112, Control_c, 0, 64, 71
1, 25115, Note_on_c, 0, 86, 78
1, 25126, Note_on_c, 0, 77, 59
1, 25127, Control_c, 0, 64, 62
1, 25132, Note_on_c, 0, 74, 70
1, 25133, Note_on_c, 0, 69, 69
1, 25157, Control_c, 0, 64, 64
1, 25172, Control_c, 0, 64, 68
1, 25176, Note_off_c, 0, 86, 57
1, 25178, Note_off_c, 0, 74, 54
1, 25178, Note_on_c, 0, 89, 77
1, 25180, Note_off_c, 0, 77, 56
1, 25185, Note_off_c, 0, 69, 59
1, 25187, Control_c, 0, 64, 75
1, 25202, Control_c, 0, 64, 89
1, 25216, Control_c, 0, 64, 110
1, 25229, Note_on_c, 0, 98, 86
1, 25231, Control_c, 0, 64, 127
1, 25240, Note_off_c, 0, 89, 60
1, 25255, Note_on_c, 0, 69, 61
1, 25261, Note_on_c, 0, 77, 62
1, 25273, Note_on_c, 0, 74, 63
1, 25303, Note_off_c, 0, 98, 63
1, 25304, Note_off_c, 0, 74, 63
1, 25304, Note_off_c, 0, 77, 56
1, 25315, Note_on_c, 0, 89, 64
1, 25319, Note_off_c, 0, 69, 58
1, 25340, Note_off_c, 0, 89, 66
1, 25354, Note_on_c, 0, 86, 79
1, 25361, Poly_aftertouch_c, 0, 69, 0
1, 25370, Note_on_c, 0, 69, 57
1, 25379, Note_on_c, 0, 74, 75
1, 25385, Note_on_c, 0, 77, 68
1, 25401, Note_off_c, 0, 86, 54
1, 25415, Note_off_c, 0, 77, 58
1, 25421, Note_on_c, 0, 85, 91
1, 25425, Note_off_c, 0, 69, 61
1, 25434, Note_off_c, 0, 74, 56
1, 25457, Note_off_c, 0, 85, 66
1, 25476, Control_c, 0, 64, 105
1, 25491, Note_on_c, 0, 86, 102
1, 25491, Control_c, 0, 64, 79
1, 25502, Note_on_c, 0, 77, 81
1, 25505, Note_on_c, 0, 74, 72
1, 25505, Control_c, 0, 64, 62
1, 25517, Note_on_c, 0, 68, 64
1, 25520, Control_c, 0, 64, 54
1, 25538, Note_off_c, 0, 77, 55
1, 25547, Note_off_c, 0, 68, 56
1, 25550, Control_c, 0, 64, 55
1, 25551, Note_off_c, 0, 86, 56
1, 25552, Note_off_c, 0, 74, 59
1, 25559, Note_on_c, 0, 89, 85
1, 25565, Control_c, 0, 64, 61
1, 25580, Control_c, 0, 64, 67
1, 25595, Control_c, 0, 64, 74
1, 25610, Control_c, 0, 64, 85
1, 25610, Note_on_c, 0, 68, 70
1, 25610, Note_on_c, 0, 77, 70
1, 25613, Note_on_c, 0, 98, 88
1, 25623, Note_off_c, 0, 89, 60
1, 25624, Control_c, 0, 64, 97
1, 25639, Control_c, 0, 64, 104
1, 25654, Control_c, 0, 64, 106
1, 25668, Control_c, 0, 64, 111
1, 25670, Note_on_c, 0, 74, 76
1, 25670, Note_off_c, 0, 77, 59
1, 25672, Note_off_c, 0, 68, 57
1, 25683, Control_c, 0, 64, 117
1, 25686, Note_off_c, 0, 98, 53
1, 25687, Note_on_c, 0, 89, 70
1, 25698, Control_c, 0, 64, 124
1, 25713, Control_c, 0, 64, 127
1, 25727, Note_off_c, 0, 89, 57
1, 25737, Note_on_c, 0, 86, 78
1, 25753, Note_on_c, 0, 65, 79
1, 25760, Note_off_c, 0, 74, 60
1, 25783, Note_off_c, 0, 86, 53
1, 25786, Note_on_c, 0, 71, 71
1, 25787, Control_c, 0, 64, 121
1, 25800, Note_on_c, 0, 85, 86
1, 25802, Control_c, 0, 64, 99
1, 25816, Control_c, 0, 64, 78
1, 25823, Note_off_c, 0, 65, 61
1, 25831, Control_c, 0, 64, 62
1, 25839, Note_on_c, 0, 74, 83
1, 25841, Note_off_c, 0, 85, 66
1, 25846, Control_c, 0, 64, 43
1, 25857, Note_off_c, 0, 71, 62
1, 25861, Control_c, 0, 64, 39
1, 25875, Control_c, 0, 64, 38
1, 25877, Note_on_c, 0, 86, 93
1, 25890, Control_c, 0, 64, 36
1, 25893, Note_on_c, 0, 80, 96
1, 25902, Note_off_c, 0, 74, 59
1, 25905, Control_c, 0, 64, 34
1, 25920, Control_c, 0, 64, 32
1, 25931, Note_off_c, 0, 86, 58
1, 25935, Control_c, 0, 64, 31
1, 25938, Note_off_c, 0, 80, 61
1, 25953, Note_on_c, 0, 89, 75
1, 26024, Note_on_c, 0, 98, 78
1, 26033, Note_off_c, 0, 89, 59
1, 26092, Control_c, 0, 64, 30
1, 26096, Note_on_c, 0, 95, 61
1, 26106, Control_c, 0, 64, 29
1, 26121, Control_c, 0, 64, 27
1, 26133, Note_on_c, 0, 92, 78
1, 26136, Control_c, 0, 64, 26
1, 26137, Note_off_c, 0, 98, 54
1, 26166, Note_off_c, 0, 95, 51
1, 26180, Control_c, 0, 64, 29
1, 26182, Note_on_c, 0, 89, 67
1, 26195, Control_c, 0, 64, 47
1, 26200, Note_off_c, 0, 92, 61
1, 26210, Control_c, 0, 64, 62
1, 26225, Control_c, 0, 64, 69
1, 26233, Note_on_c, 0, 86, 78
1, 26240, Control_c, 0, 64, 77
1, 26242, Note_off_c, 0, 89, 62
1, 26254, Control_c, 0, 64, 91
1, 26269, Control_c, 0, 64, 110
1, 26272, Note_on_c, 0, 77, 71
1, 26272, Note_off_c, 0, 86, 60
1, 26282, Note_on_c, 0, 67, 61
1, 26284, Control_c, 0, 64, 127
1, 26300, Note_on_c, 0, 71, 51
1, 26300, Note_on_c, 0, 74, 45
1, 26314, Note_off_c, 0, 77, 51
1, 26322, Note_off_c, 0, 67, 55
1, 26326, Note_off_c, 0, 74, 54
1, 26329, Note_on_c, 0, 83, 73
1, 26334, Note_off_c, 0, 71, 57
1, 26382, Note_off_c, 0, 83, 52
1, 26395, Note_on_c, 0, 80, 71
1, 26445, Note_on_c, 0, 77, 70
1, 26450, Note_off_c, 0, 80, 59
1, 26517, Note_on_c, 0, 79, 76
1, 26522, Note_off_c, 0, 77, 58
1, 26561, Note_on_c, 0, 80, 77
1, 26587, Note_off_c, 0, 79, 60
1, 26594, Control_c, 0, 64, 110
1, 26609, Control_c, 0, 64, 83
1, 26623, Control_c, 0, 64, 66
1, 26629, Note_on_c, 0, 81, 75
1, 26638, Control_c, 0, 64, 52
1, 26653, Control_c, 0, 64, 45
1, 26668, Control_c, 0, 64, 41
1, 26683, Control_c, 0, 64, 34
1, 26692, Note_off_c, 0, 80, 59
1, 26698, Control_c, 0, 64, 22
1, 26701, Note_on_c, 0, 82, 69
1, 26707, Note_off_c, 0, 81, 63
1, 26713, Control_c, 0, 64, 0
1, 26723, Note_off_c, 0, 82, 70
1, 26743, Note_on_c, 0, 83, 79
1, 26826, Note_on_c, 0, 84, 81
1, 26828, Note_off_c, 0, 83, 62
1, 26878, Note_on_c, 0, 85, 71
1, 26886, Note_off_c, 0, 84, 60
1, 26911, Note_on_c, 0, 86, 72
1, 26933, Note_off_c, 0, 85, 63
1, 26938, Note_off_c, 0, 86, 64
1, 26943, Control_c, 0, 64, 43
1, 26958, Control_c, 0, 64, 61
1, 26973, Control_c, 0, 64, 69
1, 26988, Control_c, 0, 64, 75
1, 26998, Note_on_c, 0, 78, 64
1, 27002, Control_c, 0, 64, 83
1, 27004, Note_on_c, 0, 87, 78
1, 27005, Note_on_c, 0, 75, 57
1, 27017, Control_c, 0, 64, 94
1, 27032, Control_c, 0, 64, 108
1, 27047, Control_c, 0, 64, 127
1, 27065, Note_on_c, 0, 90, 77
1, 27065, Note_off_c, 0, 87, 61
1, 27082, Note_off_c, 0, 75, 37
1, 27086, Note_off_c, 0, 78, 36
1, 27113, Note_off_c, 0, 90, 63
1, 27131, Note_on_c, 0, 99, 80
1, 27131, Poly_aftertouch_c, 0, 71, 0
1, 27144, Note_on_c, 0, 71, 35
1, 27148, Note_on_c, 0, 78, 54
1, 27150, Note_on_c, 0, 75, 46
1, 27185, Note_off_c, 0, 78, 58
1, 27187, Note_off_c, 0, 75, 63
1, 27189, Note_on_c, 0, 90, 67
1, 27189, Note_off_c, 0, 99, 64
1, 27203, Note_off_c, 0, 71, 57
1, 27240, Note_off_c, 0, 90, 62
1, 27249, Note_on_c, 0, 87, 67
1, 27267, Note_off_c, 0, 87, 68
1, 27277, Note_on_c, 0, 75, 65
1, 27280, Note_on_c, 0, 78, 70
1, 27283, Note_on_c, 0, 71, 50
1, 27310, Note_on_c, 0, 85, 80
1, 27310, Note_off_c, 0, 78, 61
1, 27315, Note_off_c, 0, 75, 59
1, 27324, Note_off_c, 0, 71, 59
1, 27330, Note_off_c, 0, 85, 67
1, 27377, Note_on_c, 0, 83, 85
1, 27398, Note_on_c, 0, 78, 82
1, 27407, Note_on_c, 0, 75, 74
1, 27409, Note_on_c, 0, 71, 61
1, 27424, Note_off_c, 0, 78, 58
1, 27428, Poly_aftertouch_c, 0, 86, 0
1, 27431, Note_off_c, 0, 75, 66
1, 27441, Note_off_c, 0, 71, 63
1, 27446, Note_on_c, 0, 87, 90
1, 27450, Note_off_c, 0, 83, 57
1, 27509, Note_on_c, 0, 95, 90
1, 27513, Note_on_c, 0, 78, 79
1, 27521, Note_off_c, 0, 87, 60
1, 27524, Note_on_c, 0, 75, 72
1, 27527, Note_on_c, 0, 71, 64
1, 27556, Note_off_c, 0, 78, 51
1, 27558, Note_off_c, 0, 75, 63
1, 27581, Note_off_c, 0, 95, 57
1, 27588, Note_on_c, 0, 87, 79
1, 27589, Note_off_c, 0, 71, 46
1, 27628, Note_on_c, 0, 83, 74
1, 27634, Note_off_c, 0, 87, 62
1, 27636, Note_on_c, 0, 71, 47
1, 27642, Note_on_c, 0, 78, 82
1, 27663, Note_on_c, 0, 75, 65
1, 27693, Note_off_c, 0, 75, 60
1, 27696, Note_off_c, 0, 78, 59
1, 27698, Note_on_c, 0, 82, 91
1, 27709, Note_off_c, 0, 71, 59
1, 27723, Control_c, 0, 64, 88
1, 27738, Control_c, 0, 64, 67
1, 27744, Note_off_c, 0, 83, 35
1, 27752, Control_c, 0, 64, 51
1, 27753, Note_off_c, 0, 82, 62
1, 27766, Note_on_c, 0, 80, 103
1, 27767, Control_c, 0, 64, 41
1, 27774, Note_on_c, 0, 71, 76
1, 27782, Control_c, 0, 64, 37
1, 27783, Note_on_c, 0, 76, 77
1, 27797, Control_c, 0, 64, 29
1, 27812, Control_c, 0, 64, 16
1, 27813, Note_off_c, 0, 76, 56
1, 27816, Note_on_c, 0, 83, 78
1, 27819, Note_off_c, 0, 71, 62
1, 27826, Control_c, 0, 64, 0
1, 27831, Note_off_c, 0, 80, 60
1, 27880, Note_on_c, 0, 92, 70
1, 27898, Note_off_c, 0, 83, 44
1, 27936, Note_off_c, 0, 92, 62
1, 27972, Note_on_c, 0, 88, 47
1, 27995, Note_off_c, 0, 88, 58
1, 28004, Note_on_c, 0, 83, 61
1, 28031, Note_off_c, 0, 83, 66
1, 28048, Control_c, 0, 64, 20
1, 28055, Note_on_c, 0, 85, 75
1, 28063, Control_c, 0, 64, 48
1, 28075, Note_off_c, 0, 85, 70
1, 28078, Control_c, 0, 64, 62
1, 28093, Control_c, 0, 64, 68
1, 28108, Control_c, 0, 64, 73
1, 28123, Control_c, 0, 64, 80
1, 28128, Note_on_c, 0, 78, 65
1, 28134, Note_on_c, 0, 71, 59
1, 28138, Control_c, 0, 64, 90
1, 28145, Note_on_c, 0, 87, 63
1, 28147, Note_on_c, 0, 75, 50
1, 28152, Control_c, 0, 64, 102
1, 28167, Control_c, 0, 64, 117
1, 28171, Note_off_c, 0, 75, 60
1, 28172, Note_off_c, 0, 78, 50
1, 28180, Note_off_c, 0, 87, 55
1, 28182, Control_c, 0, 64, 127
1, 28184, Note_off_c, 0, 71, 56
1, 28195, Note_on_c, 0, 90, 73
1, 28227, Note_off_c, 0, 90, 57
1, 28250, Note_on_c, 0, 99, 78
1, 28261, Note_on_c, 0, 75, 60
1, 28275, Note_on_c, 0, 78, 64
1, 28280, Note_on_c, 0, 71, 49
1, 28313, Note_off_c, 0, 75, 56
1, 28313, Note_off_c, 0, 78, 62
1, 28320, Note_on_c, 0, 90, 75
1, 28320, Note_off_c, 0, 99, 63
1, 28320, Note_off_c, 0, 71, 57
1, 28365, Note_off_c, 0, 90, 60
1, 28369, Note_on_c, 0, 87, 75
1, 28389, Note_on_c, 0, 78, 72
1, 28391, Note_off_c, 0, 87, 68
1, 28407, Note_on_c, 0, 71, 60
1, 28409, Note_on_c, 0, 75, 63
1, 28439, Note_off_c, 0, 75, 65
1, 28439, Note_on_c, 0, 85, 85
1, 28441, Note_off_c, 0, 78, 55
1, 28442, Note_off_c, 0, 71, 58
1, 28455, Note_off_c, 0, 85, 72
1, 28500, Note_on_c, 0, 83, 88
1, 28522, Note_on_c, 0, 78, 72
1, 28523, Note_on_c, 0, 71, 60
1, 28527, Note_on_c, 0, 75, 68
1, 28558, Note_off_c, 0, 75, 63
1, 28558, Note_off_c, 0, 78, 55
1, 28566, Note_off_c, 0, 71, 58
1, 28567, Note_on_c, 0, 87, 89
1, 28604, Note_off_c, 0, 83, 34
1, 28637, Note_on_c, 0, 95, 91
1, 28647, Note_on_c, 0, 71, 49
1, 28650, Note_off_c, 0, 87, 62
1, 28654, Note_on_c, 0, 75, 56
1, 28660, Note_on_c, 0, 78, 52
1, 28673, Note_off_c, 0, 71, 54
1, 28677, Note_off_c, 0, 75, 63
1, 28680, Note_off_c, 0, 78, 62
1, 28701, Note_on_c, 0, 87, 84
1, 28710, Note_off_c, 0, 95, 60
1, 28748, Note_on_c, 0, 78, 78
1, 28748, Note_on_c, 0, 83, 75
1, 28750, Note_on_c, 0, 71, 72
1, 28755, Note_on_c, 0, 75, 70
1, 28755, Note_off_c, 0, 87, 62
1, 28809, Note_off_c, 0, 75, 53
1, 28811, Note_off_c, 0, 78, 60
1, 28811, Note_on_c, 0, 82, 92
1, 28827, Control_c, 0, 64, 112
1, 28835, Note_off_c, 0, 71, 45
1, 28842, Control_c, 0, 64, 83
1, 28857, Control_c, 0, 64, 65
1, 28861, Note_off_c, 0, 82, 64
1, 28862, Note_off_c, 0, 83, 35
1, 28872, Control_c, 0, 64, 48
1, 28879, Note_on_c, 0, 80, 95
1, 28882, Note_on_c, 0, 71, 63
1, 28887, Control_c, 0, 64, 35
1, 28890, Note_on_c, 0, 76, 83
1, 28901, Control_c, 0, 64, 21
1, 28916, Control_c, 0, 64, 0
1, 28925, Note_on_c, 0, 83, 80
1, 28939, Note_off_c, 0, 71, 59
1, 28946, Note_off_c, 0, 80, 60
1, 28949, Note_off_c, 0, 76, 61
1, 28998, Note_on_c, 0, 92, 84
1, 29013, Note_off_c, 0, 83, 54
1, 29055, Note_off_c, 0, 92, 65
1, 29100, Note_on_c, 0, 88, 60
1, 29118, Note_off_c, 0, 88, 65
1, 29126, Note_on_c, 0, 83, 66
1, 29160, Note_off_c, 0, 83, 58
1, 29177, Control_c, 0, 64, 26
1, 29184, Note_on_c, 0, 85, 72
1, 29192, Control_c, 0, 64, 52
1, 29204, Note_off_c, 0, 85, 70
1, 29206, Control_c, 0, 64, 63
1, 29221, Control_c, 0, 64, 68
1, 29236, Control_c, 0, 64, 74
1, 29244, Note_on_c, 0, 78, 70
1, 29250, Control_c, 0, 64, 82
1, 29252, Note_on_c, 0, 71, 58
1, 29253, Note_on_c, 0, 75, 62
1, 29265, Control_c, 0, 64, 95
1, 29266, Note_on_c, 0, 87, 72
1, 29280, Control_c, 0, 64, 110
1, 29286, Note_off_c, 0, 78, 49
1, 29288, Note_off_c, 0, 75, 61
1, 29292, Note_off_c, 0, 71, 57
1, 29295, Control_c, 0, 64, 127
1, 29315, Note_off_c, 0, 87, 60
1, 29320, Note_on_c, 0, 90, 76
1, 29368, Note_off_c, 0, 90, 61
1, 29394, Note_on_c, 0, 99, 73
1, 29403, Note_on_c, 0, 78, 50
1, 29408, Note_on_c, 0, 75, 45
1, 29413, Note_on_c, 0, 71, 44
1, 29423, Note_off_c, 0, 78, 60
1, 29432, Note_off_c, 0, 75, 58
1, 29437, Note_off_c, 0, 71, 58
1, 29444, Note_off_c, 0, 99, 57
1, 29448, Note_on_c, 0, 90, 68
1, 29502, Note_off_c, 0, 90, 59
1, 29505, Note_on_c, 0, 78, 62
1, 29507, Note_on_c, 0, 87, 73
1, 29511, Note_on_c, 0, 75, 63
1, 29524, Note_on_c, 0, 71, 55
1, 29540, Note_off_c, 0, 78, 59
1, 29544, Note_off_c, 0, 75, 61
1, 29551, Note_off_c, 0, 87, 55
1, 29552, Note_off_c, 0, 71, 61
1, 29556, Note_on_c, 0, 90, 65
1, 29577, Control_c, 0, 64, 98
1, 29579, Note_off_c, 0, 90, 67
1, 29591, Control_c, 0, 64, 76
1, 29606, Control_c, 0, 64, 63
1, 29621, Control_c, 0, 64, 62
1, 29628, Note_on_c, 0, 88, 80
1, 29635, Control_c, 0, 64, 63
1, 29636, Note_on_c, 0, 71, 63
1, 29637, Note_on_c, 0, 79, 71
1, 29642, Note_on_c, 0, 76, 67
1, 29650, Control_c, 0, 64, 65
1, 29665, Control_c, 0, 64, 68
1, 29677, Note_off_c, 0, 76, 58
1, 29680, Control_c, 0, 64, 76
1, 29682, Note_off_c, 0, 79, 59
1, 29688, Note_on_c, 0, 91, 84
1, 29688, Note_off_c, 0, 71, 59
1, 29691, Note_off_c, 0, 88, 59
1, 29695, Control_c, 0, 64, 88
1, 29709, Control_c, 0, 64, 103
1, 29724, Control_c, 0, 64, 117
1, 29739, Control_c, 0, 64, 124
1, 29753, Note_off_c, 0, 91, 62
1, 29754, Control_c, 0, 64, 127
1, 29757, Note_on_c, 0, 100, 84
1, 29768, Note_on_c, 0, 71, 56
1, 29774, Note_on_c, 0, 79, 61
1, 29779, Note_on_c, 0, 76, 66
1, 29803, Note_off_c, 0, 79, 59
1, 29813, Note_off_c, 0, 76, 67
1, 29833, Note_off_c, 0, 71, 57
1, 29833, Note_off_c, 0, 100, 62
1, 29834, Note_on_c, 0, 91, 69
1, 29865, Note_on_c, 0, 93, 30
1, 29872, Note_on_c, 0, 71, 49
1, 29876, Note_on_c, 0, 79, 75
1, 29885, Note_off_c, 0, 91, 62
1, 29887, Note_on_c, 0, 88, 74
1, 29902, Note_off_c, 0, 93, 53
1, 29920, Note_on_c, 0, 91, 73
1, 29926, Note_off_c, 0, 88, 63
1, 29930, Note_off_c, 0, 79, 61
1, 29931, Note_on_c, 0, 76, 7
1, 29939, Control_c, 0, 64, 97
1, 29947, Note_off_c, 0, 71, 60
1, 29954, Control_c, 0, 64, 72
1, 29960, Note_off_c, 0, 91, 64
1, 29970, Control_c, 0, 64, 56
1, 29980, Note_off_c, 0, 76, 37
1, 29985, Control_c, 0, 64, 52
1, 29997, Note_on_c, 0, 89, 94
1, 30000, Control_c, 0, 64, 53
1, 30003, Note_on_c, 0, 71, 67
1, 30013, Note_on_c, 0, 80, 80
1, 30015, Control_c, 0, 64, 58
1, 30022, Note_on_c, 0, 77, 61
1, 30029, Control_c, 0, 64, 66
1, 30044, Control_c, 0, 64, 73
1, 30053, Note_off_c, 0, 80, 53
1, 30059, Control_c, 0, 64, 86
1, 30060, Note_on_c, 0, 92, 89
1, 30065, Note_off_c, 0, 77, 52
1, 30068, Note_off_c, 0, 71, 59
1, 30073, Control_c, 0, 64, 106
1, 30088, Control_c, 0, 64, 127
1, 30091, Note_off_c, 0, 89, 38
1, 30119, Note_on_c, 0, 101, 89
1, 30126, Note_on_c, 0, 71, 63
1, 30137, Note_on_c, 0, 80, 71
1, 30137, Note_on_c, 0, 77, 60
1, 30138, Note_off_c, 0, 92, 64
1, 30160, Note_off_c, 0, 80, 65
1, 30170, Note_off_c, 0, 77, 58
1, 30178, Note_off_c, 0, 71, 62
1, 30197, Note_off_c, 0, 101, 57
1, 30215, Note_on_c, 0, 92, 83
1, 30250, Note_on_c, 0, 80, 80
1, 30254, Note_on_c, 0, 89, 84
1, 30255, Note_on_c, 0, 71, 64
1, 30260, Note_off_c, 0, 92, 64
1, 30283, Note_off_c, 0, 71, 62
1, 30284, Note_on_c, 0, 77, 47
1, 30296, Control_c, 0, 64, 75
1, 30297, Note_off_c, 0, 80, 56
1, 30308, Note_off_c, 0, 77, 57
1, 30311, Control_c, 0, 64, 34
1, 30314, Note_on_c, 0, 92, 71
1, 30326, Control_c, 0, 64, 0
1, 30327, Note_off_c, 0, 89, 59
1, 30364, Note_on_c, 0, 81, 100
1, 30365, Note_on_c, 0, 72, 93
1, 30370, Control_c, 0, 64, 16
1, 30371, Note_off_c, 0, 92, 63
1, 30385, Control_c, 0, 64, 57
1, 30400, Control_c, 0, 64, 69
1, 30414, Control_c, 0, 64, 77
1, 30429, Control_c, 0, 64, 90
1, 30434, Note_off_c, 0, 81, 60
1, 30444, Control_c, 0, 64, 109
1, 30451, Note_on_c, 0, 93, 67
1, 30451, Note_off_c, 0, 72, 61
1, 30457, Note_on_c, 0, 91, 69
1, 30458, Control_c, 0, 64, 127
1, 30475, Note_off_c, 0, 91, 69
1, 30501, Note_off_c, 0, 93, 60
1, 30506, Note_on_c, 0, 89, 76
1, 30555, Control_c, 0, 64, 106
1, 30570, Control_c, 0, 64, 78
1, 30579, Note_on_c, 0, 82, 68
1, 30580, Note_off_c, 0, 89, 56
1, 30584, Note_on_c, 0, 73, 66
1, 30585, Control_c, 0, 64, 61
1, 30589, Note_on_c, 0, 101, 83
1, 30599, Control_c, 0, 64, 56
1, 30614, Control_c, 0, 64, 59
1, 30629, Control_c, 0, 64, 64
1, 30644, Control_c, 0, 64, 72
1, 30651, Note_off_c, 0, 82, 61
1, 30654, Note_on_c, 0, 94, 75
1, 30659, Control_c, 0, 64, 84
1, 30659, Note_off_c, 0, 73, 56
1, 30668, Note_off_c, 0, 101, 59
1, 30673, Control_c, 0, 64, 103
1, 30688, Control_c, 0, 64, 127
1, 30712, Note_on_c, 0, 89, 69
1, 30740, Note_off_c, 0, 94, 62
1, 30772, Note_on_c, 0, 83, 76
1, 30776, Note_on_c, 0, 101, 87
1, 30777, Note_on_c, 0, 74, 72
1, 30791, Note_off_c, 0, 89, 57
1, 30830, Note_off_c, 0, 83, 59
1, 30835, Note_off_c, 0, 74, 55
1, 30838, Note_on_c, 0, 95, 81
1, 30866, Note_off_c, 0, 101, 60
1, 30893, Note_on_c, 0, 89, 81
1, 30918, Note_off_c, 0, 95, 62
1, 30926, Control_c, 0, 64, 89
1, 30941, Control_c, 0, 64, 68
1, 30947, Note_on_c, 0, 84, 90
1, 30955, Note_on_c, 0, 75, 81
1, 30956, Note_on_c, 0, 101, 95
1, 30956, Control_c, 0, 64, 65
1, 30965, Note_off_c, 0, 89, 58
1, 30970, Control_c, 0, 64, 67
1, 30985, Control_c, 0, 64, 74
1, 31000, Control_c, 0, 64, 86
1, 31014, Control_c, 0, 64, 115
1, 31017, Note_on_c, 0, 96, 89
1, 31029, Control_c, 0, 64, 127
1, 31036, Note_off_c, 0, 75, 60
1, 31040, Note_off_c, 0, 84, 62
1, 31053, Note_off_c, 0, 101, 61
1, 31072, Note_on_c, 0, 89, 84
1, 31104, Control_c, 0, 64, 89
1, 31113, Note_off_c, 0, 96, 61
1, 31119, Control_c, 0, 64, 71
1, 31124, Note_on_c, 0, 76, 85
1, 31128, Note_on_c, 0, 85, 98
1, 31133, Control_c, 0, 64, 67
1, 31139, Note_on_c, 0, 101, 101
1, 31148, Control_c, 0, 64, 71
1, 31150, Note_off_c, 0, 89, 57
1, 31163, Control_c, 0, 64, 85
1, 31166, Note_on_c, 0, 77, 41
1, 31178, Control_c, 0, 64, 109
1, 31193, Control_c, 0, 64, 127
1, 31211, Note_off_c, 0, 77, 44
1, 31211, Note_on_c, 0, 97, 92
1, 31220, Note_off_c, 0, 76, 59
1, 31250, Note_off_c, 0, 101, 57
1, 31251, Note_off_c, 0, 85, 62
1, 31254, Note_on_c, 0, 89, 82
1, 31282, Control_c, 0, 64, 83
1, 31303, Control_c, 0, 64, 64
1, 31304, Note_off_c, 0, 97, 63
1, 31318, Control_c, 0, 64, 58
1, 31333, Control_c, 0, 64, 61
1, 31335, Note_off_c, 0, 89, 62
1, 31347, Note_on_c, 0, 101, 99
1, 31348, Note_on_c, 0, 86, 100
1, 31348, Note_on_c, 0, 77, 94
1, 31348, Control_c, 0, 64, 67
1, 31363, Control_c, 0, 64, 76
1, 31367, Note_on_c, 0, 100, 69
1, 31378, Control_c, 0, 64, 90
1, 31393, Control_c, 0, 64, 113
1, 31408, Control_c, 0, 64, 127
1, 31408, Note_off_c, 0, 77, 60
1, 31414, Note_off_c, 0, 100, 0
1, 31417, Note_off_c, 0, 86, 61
1, 31439, Note_on_c, 0, 98, 84
1, 31443, Note_on_c, 0, 89, 91
1, 31451, Poly_aftertouch_c, 0, 100, 127
1, 31458, Note_off_c, 0, 101, 59
1, 31490, Poly_aftertouch_c, 0, 100, 0
1, 31516, Note_off_c, 0, 89, 62
1, 31542, Note_off_c, 0, 98, 37
1, 31572, Control_c, 0, 64, 112
1, 31587, Control_c, 0, 64, 77
1, 31601, Control_c, 0, 64, 57
1, 31616, Control_c, 0, 64, 39
1, 31618, Note_on_c, 0, 80, 90
1, 31620, Note_on_c, 0, 89, 96
1, 31626, Note_on_c, 0, 86, 79
1, 31631, Control_c, 0, 64, 43
1, 31637, Note_on_c, 0, 83, 78
1, 31643, Note_on_c, 0, 87, 57
1, 31646, Control_c, 0, 64, 54
1, 31661, Control_c, 0, 64, 64
1, 31665, Note_off_c, 0, 87, 39
1, 31676, Control_c, 0, 64, 70
1, 31691, Control_c, 0, 64, 77
1, 31706, Control_c, 0, 64, 86
1, 31718, Note_off_c, 0, 80, 60
1, 31718, Note_off_c, 0, 86, 60
1, 31720, Control_c, 0, 64, 93
1, 31728, Note_off_c, 0, 89, 56
1, 31733, Note_off_c, 0, 83, 62
1, 31735, Control_c, 0, 64, 97
1, 31750, Control_c, 0, 64, 99
1, 31765, Control_c, 0, 64, 103
1, 31780, Control_c, 0, 64, 108
1, 31794, Control_c, 0, 64, 122
1, 31809, Control_c, 0, 64, 127
1, 31822, Note_on_c, 0, 92, 78
1, 31876, Note_on_c, 0, 95, 75
1, 31907, Note_off_c, 0, 92, 61
1, 31914, Note_on_c, 0, 101, 119
1, 31950, Note_off_c, 0, 101, 67
1, 31969, Note_on_c, 0, 100, 83
1, 31980, Note_off_c, 0, 95, 60
1, 32071, Note_on_c, 0, 99, 75
1, 32106, Note_off_c, 0, 100, 55
1, 32114, Note_on_c, 0, 98, 81
1, 32149, Note_off_c, 0, 99, 61
1, 32186, Note_on_c, 0, 96, 77
1, 32188, Note_on_c, 0, 95, 78
1, 32191, Note_off_c, 0, 98, 62
1, 32233, Note_on_c, 0, 94, 79
1, 32248, Note_off_c, 0, 96, 53
1, 32260, Note_off_c, 0, 95, 53
1, 32277, Note_on_c, 0, 93, 78
1, 32320, Note_off_c, 0, 94, 60
1, 32321, Note_on_c, 0, 92, 76
1, 32370, Note_off_c, 0, 93, 60
1, 32388, Note_on_c, 0, 95, 76
1, 32403, Note_off_c, 0, 92, 63
1, 32435, Note_on_c, 0, 94, 82
1, 32461, Note_off_c, 0, 95, 61
1, 32528, Note_on_c, 0, 93, 70
1, 32546, Note_on_c, 0, 92, 90
1, 32548, Note_off_c, 0, 94, 62
1, 32578, Note_off_c, 0, 93, 53
1, 32624, Note_on_c, 0, 89, 88
1, 32624, Note_off_c, 0, 92, 61
1, 32653, Note_on_c, 0, 88, 42
1, 32698, Note_off_c, 0, 89, 60
1, 32725, Note_on_c, 0, 87, 80
1, 32769, Note_on_c, 0, 86, 70
1, 32769, Note_off_c, 0, 88, 61
1, 32829, Note_on_c, 0, 89, 76
1, 32832, Note_off_c, 0, 87, 59
1, 32839, Note_off_c, 0, 86, 61
1, 32882, Note_on_c, 0, 88, 77
1, 32931, Note_on_c, 0, 87, 86
1, 32954, Note_off_c, 0, 89, 50
1, 32955, Note_off_c, 0, 88, 60
1, 32991, Note_on_c, 0, 86, 82
1, 33034, Note_off_c, 0, 87, 60
1, 33052, Note_on_c, 0, 83, 91
1, 33077, Note_off_c, 0, 86, 58
1, 33105, Note_on_c, 0, 82, 79
1, 33144, Note_off_c, 0, 83, 52
1, 33153, Note_on_c, 0, 81, 77
1, 33169, Note_off_c, 0, 82, 62
1, 33211, Note_on_c, 0, 80, 68
1, 33238, Note_off_c, 0, 81, 60
1, 33262, Note_on_c, 0, 83, 77
1, 33272, Note_off_c, 0, 80, 60
1, 33316, Note_on_c, 0, 82, 70
1, 33343, Note_off_c, 0, 83, 58
1, 33372, Note_on_c, 0, 81, 70
1, 33390, Note_off_c, 0, 82, 60
1, 33427, Note_on_c, 0, 80, 72
1, 33441, Note_off_c, 0, 81, 59
1, 33480, Note_on_c, 0, 77, 78
1, 33495, Note_off_c, 0, 80, 59
1, 33546, Note_on_c, 0, 76, 67
1, 33555, Note_off_c, 0, 77, 59
1, 33578, Note_on_c, 0, 75, 69
1, 33611, Note_off_c, 0, 76, 61
1, 33618, Note_on_c, 0, 74, 67
1, 33671, Note_off_c, 0, 75, 59
1, 33676, Note_on_c, 0, 77, 66
1, 33682, Note_off_c, 0, 74, 59
1, 33724, Note_on_c, 0, 76, 67
1, 33760, Note_off_c, 0, 77, 51
1, 33780, Note_on_c, 0, 75, 76
1, 33794, Note_off_c, 0, 76, 57
1, 33838, Note_on_c, 0, 74, 70
1, 33859, Note_off_c, 0, 75, 53
1, 33901, Note_on_c, 0, 71, 67
1, 33908, Note_off_c, 0, 74, 60
1, 33959, Note_on_c, 0, 70, 68
1, 33989, Note_off_c, 0, 71, 47
1, 34007, Note_on_c, 0, 69, 66
1, 34011, Note_off_c, 0, 70, 53
1, 34074, Note_on_c, 0, 68, 68
1, 34089, Note_off_c, 0, 69, 61
1, 34109, Note_on_c, 0, 71, 65
1, 34129, Note_off_c, 0, 68, 58
1, 34154, Note_on_c, 0, 70, 68
1, 34178, Note_off_c, 0, 71, 59
1, 34206, Note_on_c, 0, 69, 75
1, 34222, Note_off_c, 0, 70, 54
1, 34271, Note_on_c, 0, 68, 72
1, 34293, Note_off_c, 0, 69, 59
1, 34315, Control_c, 0, 64, 94
1, 34330, Control_c, 0, 64, 69
1, 34334, Note_off_c, 0, 68, 58
1, 34345, Control_c, 0, 64, 57
1, 34359, Control_c, 0, 64, 50
1, 34361, Note_on_c, 0, 65, 72
1, 34374, Control_c, 0, 64, 47
1, 34389, Control_c, 0, 64, 40
1, 34398, Note_off_c, 0, 65, 58
1, 34404, Control_c, 0, 64, 29
1, 34419, Control_c, 0, 64, 0
1, 34499, Note_on_c, 0, 64, 61
1, 34527, Note_off_c, 0, 64, 65
1, 34629, Note_on_c, 0, 63, 62
1, 34654, Note_off_c, 0, 63, 63
1, 34764, Note_on_c, 0, 62, 62
1, 34790, Note_off_c, 0, 62, 61
1, 34914, Note_on_c, 0, 65, 61
1, 34944, Note_off_c, 0, 65, 64
1, 35097, Note_on_c, 0, 68, 50
1, 35119, Note_off_c, 0, 68, 57
1, 35304, Note_on_c, 0, 61, 66
1, 35329, Control_c, 0, 67, 19
1, 35331, Note_off_c, 0, 61, 63
1, 35344, Control_c, 0, 67, 42
1, 35359, Control_c, 0, 67, 64
1, 35374, Control_c, 0, 67, 83
1, 35388, Control_c, 0, 67, 96
1, 35403, Control_c, 0, 67, 107
1, 35418, Control_c, 0, 67, 119
1, 35433, Control_c, 0, 67, 127
1, 35581, Note_on_c, 0, 62, 64
1, 35607, Note_on_c, 0, 61, 63
1, 35610, Note_off_c, 0, 62, 63
1, 35634, Note_off_c, 0, 61, 66
1, 35813, Note_on_c, 0, 66, 60
1, 35819, Note_on_c, 0, 65, 57
1, 35840, Note_off_c, 0, 65, 64
1, 35843, Note_off_c, 0, 66, 65
1, 35974, Note_on_c, 0, 69, 67
1, 35998, Note_off_c, 0, 69, 67
1, 36007, Note_on_c, 0, 68, 62
1, 36032, Note_off_c, 0, 68, 64
1, 36119, Note_on_c, 0, 69, 75
1, 36127, Note_on_c, 0, 68, 70
1, 36143, Note_off_c, 0, 69, 67
1, 36165, Note_off_c, 0, 68, 61
1, 36251, Note_on_c, 0, 71, 66
1, 36254, Note_on_c, 0, 73, 61
1, 36277, Note_off_c, 0, 71, 66
1, 36284, Note_off_c, 0, 73, 63
1, 36381, Note_on_c, 0, 74, 72
1, 36392, Note_on_c, 0, 73, 80
1, 36410, Note_off_c, 0, 74, 65
1, 36442, Note_off_c, 0, 73, 60
1, 36502, Note_on_c, 0, 74, 82
1, 36516, Note_on_c, 0, 73, 67
1, 36533, Note_off_c, 0, 74, 67
1, 36547, Note_off_c, 0, 73, 68
1, 36635, Note_on_c, 0, 77, 70
1, 36642, Note_on_c, 0, 78, 71
1, 36661, Note_off_c, 0, 77, 62
1, 36669, Note_off_c, 0, 78, 62
1, 36764, Note_on_c, 0, 81, 78
1, 36789, Note_on_c, 0, 80, 68
1, 36794, Note_off_c, 0, 81, 62
1, 36817, Note_off_c, 0, 80, 64
1, 36887, Note_on_c, 0, 81, 87
1, 36907, Note_on_c, 0, 80, 75
1, 36909, Note_off_c, 0, 81, 65
1, 36928, Note_off_c, 0, 80, 69
1, 37017, Note_on_c, 0, 83, 76
1, 37019, Note_on_c, 0, 85, 65
1, 37042, Note_off_c, 0, 83, 62
1, 37048, Note_off_c, 0, 85, 65
1, 37140, Note_on_c, 0, 86, 79
1, 37154, Note_on_c, 0, 85, 84
1, 37160, Note_off_c, 0, 86, 71
1, 37183, Note_off_c, 0, 85, 65
1, 37292, Note_on_c, 0, 80, 69
1, 37293, Note_on_c, 0, 83, 69
1, 37312, Note_off_c, 0, 83, 66
1, 37315, Note_off_c, 0, 80, 67
1, 37397, Note_on_c, 0, 83, 70
1, 37401, Note_on_c, 0, 85, 60
1, 37429, Note_off_c, 0, 83, 60
1, 37431, Note_off_c, 0, 85, 66
1, 37527, Note_on_c, 0, 86, 68
1, 37541, Note_on_c, 0, 85, 74
1, 37554, Note_off_c, 0, 86, 61
1, 37576, Note_off_c, 0, 85, 63
1, 37650, Note_on_c, 0, 77, 49
1, 37675, Note_on_c, 0, 80, 64
1, 37676, Note_off_c, 0, 77, 62
1, 37703, Note_off_c, 0, 80, 64
1, 37790, Note_on_c, 0, 85, 62
1, 37808, Note_on_c, 0, 83, 61
1, 37820, Note_off_c, 0, 85, 64
1, 37828, Note_off_c, 0, 83, 64
1, 37951, Note_on_c, 0, 86, 67
1, 37989, Note_off_c, 0, 86, 60
1, 37995, Note_on_c, 0, 85, 50
1, 38015, Note_off_c, 0, 85, 61
1, 38130, Note_on_c, 0, 80, 56
1, 38133, Note_on_c, 0, 83, 60
1, 38154, Note_off_c, 0, 83, 62
1, 38157, Note_off_c, 0, 80, 63
1, 38283, Note_on_c, 0, 85, 57
1, 38303, Note_on_c, 0, 83, 60
1, 38317, Note_off_c, 0, 85, 63
1, 38333, Note_off_c, 0, 83, 64
1, 38509, Note_on_c, 0, 86, 60
1, 38533, Note_on_c, 0, 85, 69
1, 38535, Note_off_c, 0, 86, 66
1, 38562, Note_off_c, 0, 85, 63
1, 38897, Note_on_c, 0, 77, 57
1, 38925, Note_on_c, 0, 80, 64
1, 38925, Note_off_c, 0, 77, 62
1, 38953, Note_off_c, 0, 80, 62
1, 39984, Note_on_c, 0, 73, 65
1, 40013, Note_off_c, 0, 73, 65
1, 40149, Note_on_c, 0, 78, 69
1, 40160, Note_on_c, 0, 85, 68
1, 40171, Note_on_c, 0, 81, 50
1, 40174, Note_off_c, 0, 78, 65
1, 40193, Note_off_c, 0, 81, 59
1, 40195, Note_off_c, 0, 85, 64
1, 40296, Note_on_c, 0, 73, 59
1, 40303, Note_on_c, 0, 78, 66
1, 40312, Note_on_c, 0, 81, 52
1, 40346, Note_off_c, 0, 81, 65
1, 40354, Note_off_c, 0, 73, 58
1, 40359, Note_off_c, 0, 78, 56
1, 40450, Note_on_c, 0, 69, 66
1, 40455, Note_on_c, 0, 78, 60
1, 40471, Note_on_c, 0, 73, 45
1, 40476, Note_off_c, 0, 69, 65
1, 40479, Note_off_c, 0, 78, 60
1, 40495, Note_off_c, 0, 73, 58
1, 40565, Note_on_c, 0, 69, 72
1, 40571, Note_on_c, 0, 74, 73
1, 40571, Note_on_c, 0, 78, 68
1, 40588, Note_off_c, 0, 69, 69
1, 40597, Note_off_c, 0, 74, 64
1, 40616, Note_off_c, 0, 78, 61
1, 40708, Note_on_c, 0, 69, 72
1, 40720, Note_on_c, 0, 66, 56
1, 40728, Note_off_c, 0, 69, 70
1, 40741, Note_off_c, 0, 66, 60
1, 40821, Note_on_c, 0, 66, 63
1, 40829, Note_on_c, 0, 62, 58
1, 40848, Note_on_c, 0, 71, 39
1, 40852, Note_off_c, 0, 62, 60
1, 40852, Note_off_c, 0, 66, 60
1, 40863, Note_on_c, 0, 70, 12
1, 40875, Note_off_c, 0, 71, 52
1, 40912, Note_off_c, 0, 70, 27
1, 40950, Note_on_c, 0, 66, 77
1, 40955, Note_on_c, 0, 73, 80
1, 40973, Note_off_c, 0, 66, 67
1, 40975, Note_off_c, 0, 73, 69
1, 41081, Note_on_c, 0, 66, 66
1, 41096, Note_on_c, 0, 69, 75
1, 41105, Note_off_c, 0, 66, 68
1, 41131, Note_off_c, 0, 69, 62
1, 41210, Note_on_c, 0, 66, 68
1, 41211, Note_on_c, 0, 61, 70
1, 41239, Note_off_c, 0, 61, 62
1, 41242, Note_off_c, 0, 66, 55
1, 41356, Note_on_c, 0, 57, 67
1, 41358, Note_on_c, 0, 61, 67
1, 41375, Note_off_c, 0, 57, 65
1, 41383, Note_off_c, 0, 61, 67
1, 41475, Note_on_c, 0, 54, 67
1, 41510, Note_on_c, 0, 57, 50
1, 41511, Note_off_c, 0, 54, 65
1, 41550, Note_off_c, 0, 57, 65
1, 41602, Note_on_c, 0, 61, 61
1, 41608, Note_on_c, 0, 66, 63
1, 41632, Note_off_c, 0, 61, 62
1, 41642, Note_off_c, 0, 66, 56
1, 41737, Note_on_c, 0, 61, 70
1, 41748, Note_on_c, 0, 65, 59
1, 41757, Note_on_c, 0, 68, 69
1, 41771, Note_off_c, 0, 61, 63
1, 41788, Note_off_c, 0, 65, 64
1, 41809, Note_off_c, 0, 68, 57
1, 41850, Note_on_c, 0, 49, 68
1, 41863, Note_on_c, 0, 61, 73
1, 41902, Note_off_c, 0, 49, 59
1, 41919, Note_off_c, 0, 61, 60
1, 41979, Note_on_c, 0, 61, 74
1, 41981, Note_on_c, 0, 68, 75
1, 41983, Note_on_c, 0, 65, 68
1, 42011, Note_off_c, 0, 65, 62
1, 42020, Note_off_c, 0, 61, 58
1, 42040, Note_off_c, 0, 68, 59
1, 42118, Note_on_c, 0, 61, 70
1, 42120, Note_on_c, 0, 69, 72
1, 42135, Note_off_c, 0, 61, 66
1, 42142, Note_on_c, 0, 66, 35
1, 42163, Note_off_c, 0, 69, 65
1, 42169, Note_off_c, 0, 66, 48
1, 42246, Note_on_c, 0, 61, 55
1, 42252, Note_on_c, 0, 54, 60
1, 42295, Note_off_c, 0, 61, 59
1, 42299, Note_off_c, 0, 54, 58
1, 42364, Note_on_c, 0, 69, 65
1, 42371, Note_on_c, 0, 61, 42
1, 42393, Note_off_c, 0, 69, 61
1, 42399, Note_off_c, 0, 61, 55
1, 42495, Note_on_c, 0, 63, 60
1, 42503, Note_on_c, 0, 66, 57
1, 42523, Note_off_c, 0, 63, 64
1, 42541, Note_off_c, 0, 66, 63
1, 42622, Note_on_c, 0, 60, 57
1, 42628, Note_on_c, 0, 57, 47
1, 42652, Note_off_c, 0, 57, 59
1, 42652, Note_off_c, 0, 60, 60
1, 42728, Note_on_c, 0, 63, 61
1, 42734, Note_on_c, 0, 66, 61
1, 42766, Note_off_c, 0, 66, 62
1, 42771, Note_off_c, 0, 63, 59
1, 42875, Note_on_c, 0, 65, 61
1, 42882, Note_on_c, 0, 61, 25
1, 42918, Note_off_c, 0, 61, 31
1, 42923, Note_off_c, 0, 65, 61
1, 42989, Note_on_c, 0, 68, 49
1, 43016, Note_on_c, 0, 73, 72
1, 43019, Note_off_c, 0, 68, 59
1, 43052, Note_off_c, 0, 73, 57
1, 43096, Note_on_c, 0, 77, 67
1, 43108, Note_on_c, 0, 80, 73
1, 43117, Note_off_c, 0, 77, 63
1, 43132, Note_off_c, 0, 80, 62
1, 43260, Note_on_c, 0, 78, 74
1, 43275, Note_on_c, 0, 81, 78
1, 43281, Note_on_c, 0, 85, 86
1, 43291, Note_off_c, 0, 78, 65
1, 43301, Note_off_c, 0, 81, 63
1, 43319, Note_off_c, 0, 85, 64
1, 43389, Note_on_c, 0, 73, 66
1, 43397, Note_on_c, 0, 81, 76
1, 43406, Note_on_c, 0, 78, 65
1, 43410, Note_off_c, 0, 73, 68
1, 43416, Note_off_c, 0, 81, 70
1, 43427, Note_off_c, 0, 78, 68
1, 43525, Note_on_c, 0, 78, 76
1, 43528, Note_on_c, 0, 69, 67
1, 43529, Note_on_c, 0, 73, 53
1, 43553, Note_off_c, 0, 69, 67
1, 43561, Note_off_c, 0, 73, 63
1, 43567, Note_off_c, 0, 78, 46
1, 43653, Note_on_c, 0, 69, 67
1, 43656, Note_on_c, 0, 74, 77
1, 43663, Note_on_c, 0, 78, 81
1, 43676, Note_off_c, 0, 69, 67
1, 43680, Note_off_c, 0, 74, 68
1, 43704, Note_off_c, 0, 78, 61
1, 43776, Note_on_c, 0, 69, 74
1, 43779, Note_on_c, 0, 66, 71
1, 43796, Note_off_c, 0, 69, 71
1, 43803, Note_off_c, 0, 66, 65
1, 43886, Note_on_c, 0, 66, 63
1, 43893, Note_on_c, 0, 71, 67
1, 43913, Note_on_c, 0, 64, 29
1, 43916, Note_off_c, 0, 66, 62
1, 43919, Note_on_c, 0, 62, 19
1, 43919, Note_off_c, 0, 71, 65
1, 43948, Note_off_c, 0, 64, 46
1, 43961, Note_off_c, 0, 62, 31
1, 44027, Note_on_c, 0, 66, 75
1, 44027, Note_on_c, 0, 73, 83
1, 44047, Note_off_c, 0, 73, 68
1, 44050, Note_off_c, 0, 66, 68
1, 44142, Note_on_c, 0, 66, 67
1, 44160, Note_on_c, 0, 69, 71
1, 44175, Note_off_c, 0, 66, 62
1, 44188, Note_off_c, 0, 69, 65
1, 44261, Note_on_c, 0, 61, 70
1, 44282, Note_on_c, 0, 66, 49
1, 44291, Note_off_c, 0, 61, 60
1, 44306, Note_off_c, 0, 66, 61
1, 44414, Note_on_c, 0, 57, 63
1, 44416, Note_on_c, 0, 61, 67
1, 44435, Note_off_c, 0, 57, 64
1, 44443, Note_off_c, 0, 61, 63
1, 44531, Note_on_c, 0, 54, 63
1, 44550, Note_on_c, 0, 57, 51
1, 44562, Note_off_c, 0, 54, 65
1, 44589, Note_off_c, 0, 57, 62
1, 44652, Note_on_c, 0, 61, 64
1, 44662, Note_on_c, 0, 66, 64
1, 44685, Note_off_c, 0, 61, 60
1, 44699, Note_off_c, 0, 66, 54
1, 44787, Note_on_c, 0, 61, 77
1, 44803, Note_on_c, 0, 68, 75
1, 44804, Note_on_c, 0, 65, 59
1, 44819, Note_off_c, 0, 61, 61
1, 44833, Note_off_c, 0, 65, 65
1, 44854, Note_off_c, 0, 68, 58
1, 44899, Note_on_c, 0, 49, 70
1, 44920, Note_on_c, 0, 61, 77
1, 44955, Note_off_c, 0, 49, 62
1, 44987, Note_off_c, 0, 61, 59
1, 45030, Note_on_c, 0, 61, 67
1, 45030, Note_on_c, 0, 68, 83
1, 45033, Note_on_c, 0, 65, 67
1, 45060, Note_off_c, 0, 65, 63
1, 45068, Note_off_c, 0, 61, 62
1, 45084, Note_off_c, 0, 68, 60
1, 45163, Note_on_c, 0, 61, 71
1, 45167, Note_on_c, 0, 69, 74
1, 45180, Note_off_c, 0, 61, 67
1, 45186, Note_on_c, 0, 66, 36
1, 45207, Note_off_c, 0, 69, 63
1, 45215, Note_off_c, 0, 66, 50
1, 45281, Note_on_c, 0, 61, 59
1, 45295, Note_on_c, 0, 54, 55
1, 45314, Note_off_c, 0, 61, 60
1, 45337, Note_off_c, 0, 54, 64
1, 45400, Note_on_c, 0, 69, 68
1, 45415, Note_on_c, 0, 61, 47
1, 45427, Note_off_c, 0, 69, 64
1, 45439, Note_off_c, 0, 61, 57
1, 45550, Note_on_c, 0, 63, 58
1, 45561, Note_on_c, 0, 66, 53
1, 45573, Note_off_c, 0, 63, 62
1, 45594, Note_off_c, 0, 66, 62
1, 45656, Note_on_c, 0, 57, 49
1, 45670, Note_on_c, 0, 60, 51
1, 45708, Note_off_c, 0, 57, 59
1, 45708, Note_off_c, 0, 60, 60
1, 45786, Note_on_c, 0, 66, 54
1, 45788, Note_on_c, 0, 63, 48
1, 45823, Note_off_c, 0, 66, 58
1, 45841, Note_off_c, 0, 63, 52
1, 45910, Note_on_c, 0, 65, 67
1, 45912, Note_on_c, 0, 61, 53
1, 45934, Note_off_c, 0, 61, 62
1, 45969, Note_off_c, 0, 65, 58
1, 46053, Note_on_c, 0, 68, 53
1, 46084, Note_on_c, 0, 73, 65
1, 46098, Note_off_c, 0, 68, 57
1, 46133, Note_off_c, 0, 73, 55
1, 46175, Note_on_c, 0, 77, 72
1, 46175, Note_on_c, 0, 80, 80
1, 46197, Note_off_c, 0, 77, 66
1, 46216, Note_off_c, 0, 80, 59
1, 46337, Note_on_c, 0, 81, 85
1, 46339, Control_c, 0, 64, 18
1, 46354, Control_c, 0, 64, 52
1, 46369, Note_on_c, 0, 77, 74
1, 46369, Control_c, 0, 64, 66
1, 46384, Control_c, 0, 64, 72
1, 46399, Control_c, 0, 64, 81
1, 46404, Note_off_c, 0, 81, 61
1, 46413, Control_c, 0, 64, 94
1, 46424, Note_off_c, 0, 77, 60
1, 46428, Control_c, 0, 64, 109
1, 46443, Control_c, 0, 64, 127
1, 46462, Note_on_c, 0, 73, 71
1, 46466, Note_on_c, 0, 69, 67
1, 46484, Note_off_c, 0, 73, 69
1, 46501, Note_off_c, 0, 69, 55
1, 46575, Poly_aftertouch_c, 0, 72, 127
1, 46577, Control_c, 0, 64, 106
1, 46581, Note_on_c, 0, 71, 70
1, 46591, Control_c, 0, 64, 80
1, 46595, Note_on_c, 0, 65, 61
1, 46599, Poly_aftertouch_c, 0, 72, 0
1, 46605, Note_off_c, 0, 71, 63
1, 46606, Control_c, 0, 64, 61
1, 46615, Note_off_c, 0, 65, 62
1, 46621, Control_c, 0, 64, 32
1, 46636, Control_c, 0, 64, 0
1, 46706, Note_on_c, 0, 65, 60
1, 46717, Note_on_c, 0, 61, 66
1, 46736, Note_off_c, 0, 61, 63
1, 46747, Note_off_c, 0, 65, 58
1, 46812, Note_on_c, 0, 69, 35
1, 46885, Note_on_c, 0, 73, 71
1, 46919, Note_off_c, 0, 69, 61
1, 46924, Note_off_c, 0, 73, 56
1, 46932, Note_on_c, 0, 77, 66
1, 46959, Note_on_c, 0, 81, 62
1, 46964, Note_off_c, 0, 77, 59
1, 46997, Note_off_c, 0, 81, 59
1, 47044, Control_c, 0, 64, 41
1, 47059, Control_c, 0, 64, 61
1, 47074, Control_c, 0, 64, 68
1, 47088, Note_on_c, 0, 78, 70
1, 47089, Control_c, 0, 64, 76
1, 47103, Control_c, 0, 64, 85
1, 47108, Note_on_c, 0, 74, 73
1, 47118, Control_c, 0, 64, 95
1, 47133, Control_c, 0, 64, 105
1, 47144, Note_off_c, 0, 78, 52
1, 47148, Control_c, 0, 64, 114
1, 47159, Note_off_c, 0, 74, 60
1, 47163, Control_c, 0, 64, 127
1, 47196, Note_on_c, 0, 69, 72
1, 47204, Note_on_c, 0, 66, 73
1, 47219, Note_off_c, 0, 69, 68
1, 47226, Note_off_c, 0, 66, 68
1, 47309, Note_on_c, 0, 62, 77
1, 47365, Note_off_c, 0, 62, 53
1, 47427, Poly_aftertouch_c, 0, 67, 0
1, 47429, Control_c, 0, 64, 111
1, 47439, Note_on_c, 0, 67, 67
1, 47444, Control_c, 0, 64, 88
1, 47459, Control_c, 0, 64, 70
1, 47473, Note_off_c, 0, 67, 64
1, 47474, Control_c, 0, 64, 55
1, 47488, Control_c, 0, 64, 38
1, 47503, Control_c, 0, 64, 28
1, 47518, Control_c, 0, 64, 16
1, 47533, Control_c, 0, 64, 0
1, 47558, Note_on_c, 0, 70, 81
1, 47594, Note_on_c, 0, 74, 79
1, 47626, Note_off_c, 0, 70, 60
1, 47660, Note_on_c, 0, 78, 85
1, 47663, Note_on_c, 0, 82, 89
1, 47668, Note_off_c, 0, 74, 63
1, 47706, Note_off_c, 0, 78, 60
1, 47717, Note_off_c, 0, 82, 63
1, 47793, Control_c, 0, 64, 52
1, 47808, Control_c, 0, 64, 66
1, 47815, Note_on_c, 0, 83, 94
1, 47823, Note_on_c, 0, 78, 86
1, 47823, Control_c, 0, 64, 73
1, 47838, Control_c, 0, 64, 85
1, 47852, Control_c, 0, 64, 104
1, 47859, Note_off_c, 0, 83, 64
1, 47867, Control_c, 0, 64, 127
1, 47868, Note_off_c, 0, 78, 56
1, 47915, Note_on_c, 0, 71, 60
1, 47952, Note_on_c, 0, 75, 78
1, 47969, Note_on_c, 0, 73, 26
1, 47980, Note_off_c, 0, 71, 56
1, 48005, Note_off_c, 0, 73, 48
1, 48012, Note_off_c, 0, 75, 62
1, 48047, Note_on_c, 0, 66, 77
1, 48071, Note_off_c, 0, 66, 65
1, 48134, Control_c, 0, 64, 101
1, 48145, Poly_aftertouch_c, 0, 71, 0
1, 48148, Control_c, 0, 64, 75
1, 48163, Control_c, 0, 64, 57
1, 48174, Note_on_c, 0, 63, 62
1, 48178, Control_c, 0, 64, 34
1, 48189, Note_on_c, 0, 67, 50
1, 48193, Note_off_c, 0, 63, 64
1, 48212, Note_off_c, 0, 67, 58
1, 48223, Control_c, 0, 64, 0
1, 48268, Note_on_c, 0, 71, 59
1, 48315, Note_on_c, 0, 75, 70
1, 48330, Note_off_c, 0, 71, 58
1, 48365, Note_off_c, 0, 75, 58
1, 48384, Note_on_c, 0, 79, 69
1, 48406, Note_on_c, 0, 83, 67
1, 48409, Note_off_c, 0, 79, 64
1, 48450, Note_off_c, 0, 83, 58
1, 48490, Control_c, 0, 64, 48
1, 48512, Control_c, 0, 64, 65
1, 48527, Control_c, 0, 64, 71
1, 48535, Note_on_c, 0, 80, 67
1, 48542, Control_c, 0, 64, 79
1, 48557, Control_c, 0, 64, 89
1, 48563, Note_on_c, 0, 76, 75
1, 48572, Control_c, 0, 64, 101
1, 48587, Control_c, 0, 64, 113
1, 48602, Control_c, 0, 64, 127
1, 48603, Note_off_c, 0, 80, 55
1, 48611, Note_off_c, 0, 76, 60
1, 48638, Note_on_c, 0, 71, 69
1, 48645, Note_on_c, 0, 68, 56
1, 48670, Note_off_c, 0, 68, 62
1, 48690, Note_off_c, 0, 71, 61
1, 48747, Note_on_c, 0, 68, 76
1, 48758, Note_on_c, 0, 64, 65
1, 48783, Note_off_c, 0, 68, 53
1, 48787, Note_off_c, 0, 64, 62
1, 48861, Poly_aftertouch_c, 0, 65, 0
1, 48866, Control_c, 0, 64, 101
1, 48873, Note_on_c, 0, 68, 85
1, 48881, Control_c, 0, 64, 79
1, 48881, Control_c, 0, 67, 114
1, 48892, Note_on_c, 0, 71, 73
1, 48896, Control_c, 0, 64, 62
1, 48896, Control_c, 0, 67, 87
1, 48898, Note_off_c, 0, 68, 60
1, 48911, Control_c, 0, 64, 42
1, 48911, Control_c, 0, 67, 55
1, 48915, Note_off_c, 0, 71, 65
1, 48926, Control_c, 0, 64, 29
1, 48926, Control_c, 0, 67, 20
1, 48940, Control_c, 0, 67, 0
1, 48955, Control_c, 0, 64, 0
1, 48984, Note_on_c, 0, 71, 66
1, 49020, Note_on_c, 0, 74, 79
1, 49034, Note_off_c, 0, 71, 61
1, 49070, Note_off_c, 0, 74, 59
1, 49091, Note_on_c, 0, 80, 89
1, 49100, Note_on_c, 0, 84, 81
1, 49138, Note_off_c, 0, 80, 62
1, 49149, Control_c, 0, 64, 36
1, 49156, Note_off_c, 0, 84, 61
1, 49163, Control_c, 0, 64, 61
1, 49178, Control_c, 0, 64, 69
1, 49193, Control_c, 0, 64, 78
1, 49207, Control_c, 0, 64, 95
1, 49222, Control_c, 0, 64, 127
1, 49234, Note_on_c, 0, 85, 92
1, 49246, Note_on_c, 0, 80, 86
1, 49296, Note_off_c, 0, 85, 64
1, 49319, Note_off_c, 0, 80, 58
1, 49343, Note_on_c, 0, 73, 62
1, 49373, Note_on_c, 0, 77, 73
1, 49415, Note_off_c, 0, 73, 62
1, 49451, Note_off_c, 0, 77, 60
1, 49481, Note_on_c, 0, 65, 75
1, 49489, Note_on_c, 0, 68, 73
1, 49520, Note_off_c, 0, 65, 56
1, 49527, Note_off_c, 0, 68, 49
1, 49586, Control_c, 0, 64, 83
1, 49599, Note_on_c, 0, 66, 82
1, 49601, Control_c, 0, 64, 63
1, 49604, Note_on_c, 0, 69, 77
1, 49615, Control_c, 0, 64, 45
1, 49630, Note_off_c, 0, 66, 64
1, 49630, Control_c, 0, 64, 33
1, 49638, Note_off_c, 0, 69, 61
1, 49645, Control_c, 0, 64, 31
1, 49660, Control_c, 0, 64, 28
1, 49675, Control_c, 0, 64, 25
1, 49690, Control_c, 0, 64, 25
1, 49691, Note_on_c, 0, 72, 73
1, 49704, Control_c, 0, 64, 24
1, 49749, Note_on_c, 0, 75, 77
1, 49759, Note_off_c, 0, 72, 61
1, 49785, Note_on_c, 0, 80, 91
1, 49794, Control_c, 0, 64, 23
1, 49808, Control_c, 0, 64, 22
1, 49820, Note_off_c, 0, 75, 57
1, 49823, Note_on_c, 0, 77, 47
1, 49823, Control_c, 0, 64, 18
1, 49827, Note_on_c, 0, 84, 63
1, 49841, Note_on_c, 0, 81, 40
1, 49846, Note_off_c, 0, 80, 55
1, 49847, Note_off_c, 0, 77, 57
1, 49853, Control_c, 0, 64, 0
1, 49856, Note_off_c, 0, 84, 63
1, 49869, Note_off_c, 0, 81, 35
1, 49912, Control_c, 0, 64, 25
1, 49927, Control_c, 0, 64, 57
1, 49943, Control_c, 0, 64, 69
1, 49946, Note_on_c, 0, 85, 97
1, 49956, Note_on_c, 0, 80, 84
1, 49958, Control_c, 0, 64, 78
1, 49973, Control_c, 0, 64, 96
1, 49987, Control_c, 0, 64, 127
1, 49997, Note_off_c, 0, 85, 64
1, 50021, Note_off_c, 0, 80, 55
1, 50065, Note_on_c, 0, 73, 70
1, 50077, Note_on_c, 0, 77, 79
1, 50115, Note_off_c, 0, 73, 62
1, 50163, Note_off_c, 0, 77, 57
1, 50181, Note_on_c, 0, 65, 75
1, 50189, Note_on_c, 0, 68, 74
1, 50232, Note_off_c, 0, 65, 55
1, 50235, Note_off_c, 0, 68, 48
1, 50299, Note_on_c, 0, 66, 82
1, 50305, Note_on_c, 0, 69, 80
1, 50306, Control_c, 0, 64, 112
1, 50320, Control_c, 0, 64, 80
1, 50330, Note_off_c, 0, 66, 61
1, 50335, Control_c, 0, 64, 62
1, 50336, Note_off_c, 0, 69, 66
1, 50350, Control_c, 0, 64, 43
1, 50365, Control_c, 0, 64, 39
1, 50380, Control_c, 0, 64, 35
1, 50391, Note_on_c, 0, 72, 71
1, 50394, Control_c, 0, 64, 28
1, 50409, Control_c, 0, 64, 18
1, 50435, Note_on_c, 0, 75, 75
1, 50451, Note_off_c, 0, 72, 59
1, 50453, Control_c, 0, 64, 0
1, 50490, Note_on_c, 0, 81, 82
1, 50496, Note_on_c, 0, 78, 57
1, 50506, Note_off_c, 0, 75, 58
1, 50514, Note_on_c, 0, 84, 69
1, 50515, Note_off_c, 0, 78, 61
1, 50533, Note_off_c, 0, 81, 61
1, 50537, Note_on_c, 0, 77, 10
1, 50558, Note_off_c, 0, 84, 61
1, 50572, Control_c, 0, 64, 33
1, 50586, Note_off_c, 0, 77, 29
1, 50587, Control_c, 0, 64, 57
1, 50602, Control_c, 0, 64, 67
1, 50617, Control_c, 0, 64, 74
1, 50631, Control_c, 0, 64, 85
1, 50645, Note_on_c, 0, 85, 91
1, 50646, Control_c, 0, 64, 107
1, 50652, Note_on_c, 0, 80, 87
1, 50661, Control_c, 0, 64, 127
1, 50690, Note_off_c, 0, 85, 64
1, 50697, Note_off_c, 0, 80, 54
1, 50739, Note_on_c, 0, 73, 71
1, 50751, Note_on_c, 0, 77, 75
1, 50822, Note_off_c, 0, 73, 59
1, 50849, Note_off_c, 0, 77, 57
1, 50855, Note_on_c, 0, 65, 79
1, 50874, Note_off_c, 0, 65, 71
1, 50883, Note_on_c, 0, 69, 50
1, 50906, Note_off_c, 0, 69, 59
1, 51001, Note_on_c, 0, 85, 95
1, 51004, Note_on_c, 0, 81, 86
1, 51023, Note_off_c, 0, 81, 71
1, 51042, Note_off_c, 0, 85, 64
1, 51052, Note_on_c, 0, 83, 15
1, 51053, Note_off_c, 0, 83, 127
1, 51097, Note_on_c, 0, 73, 76
1, 51100, Poly_aftertouch_c, 0, 83, 0
1, 51106, Note_on_c, 0, 77, 76
1, 51161, Note_off_c, 0, 73, 61
1, 51227, Note_on_c, 0, 69, 88
1, 51235, Note_off_c, 0, 77, 51
1, 51236, Note_on_c, 0, 65, 67
1, 51254, Note_off_c, 0, 65, 66
1, 51260, Note_off_c, 0, 69, 59
1, 51338, Poly_aftertouch_c, 0, 67, 0
1, 51378, Note_on_c, 0, 81, 92
1, 51378, Note_on_c, 0, 85, 91
1, 51415, Note_off_c, 0, 81, 61
1, 51437, Note_off_c, 0, 85, 63
1, 51439, Control_c, 0, 64, 108
1, 51453, Control_c, 0, 64, 71
1, 51468, Control_c, 0, 64, 61
1, 51477, Note_on_c, 0, 73, 78
1, 51483, Control_c, 0, 64, 61
1, 51498, Control_c, 0, 64, 65
1, 51507, Note_on_c, 0, 77, 86
1, 51520, Control_c, 0, 64, 71
1, 51536, Control_c, 0, 64, 83
1, 51551, Control_c, 0, 64, 120
1, 51559, Note_on_c, 0, 76, 11
1, 51565, Control_c, 0, 64, 127
1, 51594, Note_off_c, 0, 73, 59
1, 51603, Note_off_c, 0, 76, 40
1, 51609, Note_off_c, 0, 77, 62
1, 51635, Note_on_c, 0, 69, 91
1, 51636, Note_on_c, 0, 65, 85
1, 51669, Control_c, 0, 64, 106
1, 51678, Note_off_c, 0, 65, 65
1, 51684, Control_c, 0, 64, 83
1, 51685, Note_off_c, 0, 69, 60
1, 51699, Control_c, 0, 64, 77
1, 51714, Control_c, 0, 64, 82
1, 51728, Control_c, 0, 64, 99
1, 51743, Control_c, 0, 64, 127
1, 51793, Note_on_c, 0, 69, 92
1, 51805, Note_on_c, 0, 73, 91
1, 51817, Control_c, 0, 64, 107
1, 51832, Control_c, 0, 64, 78
1, 51843, Note_off_c, 0, 69, 64
1, 51847, Control_c, 0, 64, 70
1, 51862, Control_c, 0, 64, 70
1, 51877, Control_c, 0, 64, 79
1, 51891, Note_off_c, 0, 73, 62
1, 51891, Control_c, 0, 64, 94
1, 51906, Control_c, 0, 64, 127
1, 51974, Note_on_c, 0, 73, 99
1, 51991, Note_on_c, 0, 77, 78
1, 51995, Control_c, 0, 64, 101
1, 52009, Control_c, 0, 64, 78
1, 52020, Note_on_c, 0, 76, 36
1, 52021, Note_off_c, 0, 76, 127
1, 52024, Control_c, 0, 64, 73
1, 52030, Note_off_c, 0, 73, 63
1, 52039, Control_c, 0, 64, 78
1, 52054, Control_c, 0, 64, 101
1, 52068, Note_off_c, 0, 77, 59
1, 52069, Control_c, 0, 64, 127
1, 52173, Control_c, 0, 64, 117
1, 52188, Control_c, 0, 64, 74
1, 52202, Control_c, 0, 64, 64
1, 52203, Note_on_c, 0, 77, 84
1, 52212, Note_on_c, 0, 81, 95
1, 52217, Control_c, 0, 64, 66
1, 52232, Control_c, 0, 64, 75
1, 52247, Control_c, 0, 64, 91
1, 52261, Note_off_c, 0, 77, 61
1, 52269, Control_c, 0, 64, 127
1, 52307, Note_off_c, 0, 81, 63
1, 52447, Control_c, 0, 64, 90
1, 52462, Control_c, 0, 64, 66
1, 52477, Control_c, 0, 64, 51
1, 52492, Control_c, 0, 64, 44
1, 52506, Control_c, 0, 64, 40
1, 52521, Control_c, 0, 64, 34
1, 52536, Control_c, 0, 64, 23
1, 52566, Control_c, 0, 64, 0
1, 53033, Control_c, 0, 64, 19
1, 53048, Control_c, 0, 64, 33
1, 53063, Control_c, 0, 64, 47
1, 53078, Control_c, 0, 64, 57
1, 53090, Note_on_c, 0, 70, 43
1, 53091, Note_on_c, 0, 74, 36
1, 53091, Note_on_c, 0, 86, 43
1, 53093, Control_c, 0, 64, 63
1, 53102, Note_on_c, 0, 65, 37
1, 53107, Control_c, 0, 64, 66
1, 53122, Control_c, 0, 64, 70
1, 53133, Note_off_c, 0, 86, 52
1, 53138, Control_c, 0, 64, 76
1, 53141, Note_off_c, 0, 70, 56
1, 53149, Note_off_c, 0, 65, 51
1, 53150, Note_on_c, 0, 89, 63
1, 53153, Control_c, 0, 64, 86
1, 53168, Control_c, 0, 64, 98
1, 53173, Note_off_c, 0, 74, 38
1, 53182, Control_c, 0, 64, 114
1, 53197, Control_c, 0, 64, 127
1, 53203, Note_off_c, 0, 89, 57
1, 53240, Note_on_c, 0, 98, 70
1, 53282, Note_off_c, 0, 98, 52
1, 53283, Note_on_c, 0, 70, 31
1, 53290, Note_on_c, 0, 65, 27
1, 53290, Note_on_c, 0, 74, 12
1, 53309, Note_on_c, 0, 89, 61
1, 53315, Note_off_c, 0, 70, 47
1, 53323, Note_off_c, 0, 65, 47
1, 53330, Note_off_c, 0, 89, 64
1, 53339, Note_off_c, 0, 74, 36
1, 53369, Note_on_c, 0, 86, 67
1, 53387, Note_off_c, 0, 86, 65
1, 53397, Note_on_c, 0, 65, 47
1, 53401, Note_on_c, 0, 74, 34
1, 53414, Note_on_c, 0, 70, 43
1, 53425, Note_on_c, 0, 84, 71
1, 53429, Note_off_c, 0, 65, 54
1, 53437, Note_off_c, 0, 74, 51
1, 53441, Note_off_c, 0, 70, 53
1, 53465, Note_off_c, 0, 84, 57
1, 53517, Note_on_c, 0, 82, 71
1, 53526, Note_on_c, 0, 70, 52
1, 53529, Note_on_c, 0, 74, 52
1, 53539, Note_on_c, 0, 65, 34
1, 53548, Note_off_c, 0, 70, 59
1, 53551, Note_off_c, 0, 82, 60
1, 53556, Note_off_c, 0, 74, 53
1, 53569, Note_off_c, 0, 65, 51
1, 53590, Note_on_c, 0, 86, 54
1, 53616, Note_off_c, 0, 86, 54
1, 53646, Note_on_c, 0, 74, 66
1, 53647, Note_on_c, 0, 70, 57
1, 53648, Note_on_c, 0, 94, 72
1, 53657, Note_on_c, 0, 65, 56
1, 53685, Note_off_c, 0, 65, 59
1, 53692, Note_off_c, 0, 70, 55
1, 53693, Note_off_c, 0, 74, 51
1, 53699, Note_off_c, 0, 94, 62
1, 53699, Note_on_c, 0, 86, 68
1, 53761, Note_off_c, 0, 86, 59
1, 53770, Note_on_c, 0, 82, 74
1, 53788, Note_on_c, 0, 65, 61
1, 53794, Note_off_c, 0, 82, 64
1, 53795, Note_on_c, 0, 74, 69
1, 53809, Note_on_c, 0, 70, 62
1, 53828, Note_off_c, 0, 74, 59
1, 53830, Note_off_c, 0, 65, 51
1, 53833, Note_off_c, 0, 70, 65
1, 53851, Note_on_c, 0, 81, 80
1, 53881, Note_off_c, 0, 81, 60
1, 53886, Control_c, 0, 64, 104
1, 53900, Control_c, 0, 64, 77
1, 53915, Control_c, 0, 64, 58
1, 53924, Note_on_c, 0, 79, 68
1, 53928, Note_on_c, 0, 74, 81
1, 53931, Control_c, 0, 64, 45
1, 53936, Note_on_c, 0, 70, 69
1, 53946, Control_c, 0, 64, 42
1, 53947, Note_on_c, 0, 65, 51
1, 53952, Note_off_c, 0, 74, 67
1, 53958, Note_off_c, 0, 70, 66
1, 53961, Control_c, 0, 64, 37
1, 53961, Note_off_c, 0, 79, 53
1, 53972, Note_off_c, 0, 65, 39
1, 53976, Control_c, 0, 64, 30
1, 53984, Note_on_c, 0, 82, 75
1, 53991, Control_c, 0, 64, 25
1, 54005, Control_c, 0, 64, 25
1, 54025, Note_off_c, 0, 82, 60
1, 54060, Note_on_c, 0, 91, 72
1, 54101, Note_off_c, 0, 91, 56
1, 54131, Note_on_c, 0, 82, 57
1, 54150, Note_off_c, 0, 82, 64
1, 54160, Note_on_c, 0, 81, 76
1, 54196, Note_off_c, 0, 81, 58
1, 54220, Note_on_c, 0, 82, 78
1, 54242, Control_c, 0, 64, 35
1, 54257, Control_c, 0, 64, 52
1, 54265, Note_off_c, 0, 82, 63
1, 54272, Control_c, 0, 64, 63
1, 54286, Control_c, 0, 64, 68
1, 54301, Control_c, 0, 64, 72
1, 54304, Note_on_c, 0, 76, 66
1, 54316, Note_on_c, 0, 70, 57
1, 54316, Note_on_c, 0, 84, 71
1, 54316, Control_c, 0, 64, 81
1, 54318, Note_on_c, 0, 67, 49
1, 54320, Note_on_c, 0, 65, 41
1, 54331, Control_c, 0, 64, 93
1, 54341, Note_off_c, 0, 76, 53
1, 54344, Note_off_c, 0, 84, 62
1, 54346, Control_c, 0, 64, 112
1, 54350, Note_off_c, 0, 67, 54
1, 54350, Note_off_c, 0, 70, 60
1, 54352, Note_off_c, 0, 65, 54
1, 54361, Control_c, 0, 64, 127
1, 54372, Note_on_c, 0, 88, 69
1, 54418, Note_on_c, 0, 96, 81
1, 54432, Note_off_c, 0, 88, 56
1, 54454, Note_on_c, 0, 65, 55
1, 54459, Note_on_c, 0, 70, 56
1, 54471, Note_on_c, 0, 76, 32
1, 54477, Note_off_c, 0, 70, 63
1, 54479, Note_off_c, 0, 65, 59
1, 54488, Note_on_c, 0, 91, 82
1, 54494, Note_off_c, 0, 96, 55
1, 54509, Note_off_c, 0, 76, 51
1, 54540, Note_off_c, 0, 91, 59
1, 54564, Note_on_c, 0, 84, 75
1, 54566, Note_on_c, 0, 65, 72
1, 54574, Note_on_c, 0, 70, 51
1, 54589, Note_off_c, 0, 84, 65
1, 54593, Note_off_c, 0, 70, 62
1, 54594, Note_on_c, 0, 76, 48
1, 54616, Note_off_c, 0, 76, 59
1, 54625, Note_off_c, 0, 65, 59
1, 54637, Note_on_c, 0, 81, 78
1, 54665, Note_off_c, 0, 81, 62
1, 54665, Control_c, 0, 64, 90
1, 54679, Control_c, 0, 64, 67
1, 54694, Control_c, 0, 64, 51
1, 54697, Note_on_c, 0, 65, 56
1, 54699, Note_on_c, 0, 75, 83
1, 54703, Note_on_c, 0, 79, 76
1, 54709, Control_c, 0, 64, 40
1, 54718, Note_on_c, 0, 72, 53
1, 54724, Note_off_c, 0, 65, 56
1, 54724, Control_c, 0, 64, 35
1, 54727, Note_off_c, 0, 79, 66
1, 54739, Control_c, 0, 64, 28
1, 54741, Note_off_c, 0, 75, 57
1, 54744, Note_off_c, 0, 72, 62
1, 54754, Control_c, 0, 64, 18
1, 54767, Note_on_c, 0, 84, 79
1, 54823, Note_off_c, 0, 84, 57
1, 54838, Note_on_c, 0, 91, 80
1, 54894, Note_off_c, 0, 91, 59
1, 54894, Note_on_c, 0, 84, 64
1, 54936, Note_off_c, 0, 84, 60
1, 54957, Note_on_c, 0, 79, 72
1, 54983, Note_off_c, 0, 79, 65
1, 55027, Note_on_c, 0, 77, 78
1, 55066, Note_off_c, 0, 77, 58
1, 55089, Note_on_c, 0, 76, 71
1, 55121, Note_off_c, 0, 76, 59
1, 55149, Note_on_c, 0, 77, 76
1, 55176, Note_off_c, 0, 77, 57
1, 55205, Note_on_c, 0, 79, 67
1, 55228, Note_off_c, 0, 79, 68
1, 55281, Note_on_c, 0, 81, 76
1, 55317, Note_off_c, 0, 81, 54
1, 55340, Note_on_c, 0, 82, 73
1, 55361, Note_off_c, 0, 82, 68
1, 55402, Note_on_c, 0, 84, 74
1, 55424, Note_off_c, 0, 84, 66
1, 55443, Control_c, 0, 64, 42
1, 55458, Control_c, 0, 64, 59
1, 55472, Control_c, 0, 64, 66
1, 55480, Note_on_c, 0, 74, 55
1, 55481, Note_on_c, 0, 70, 55
1, 55481, Note_on_c, 0, 65, 52
1, 55487, Control_c, 0, 64, 71
1, 55487, Note_on_c, 0, 86, 60
1, 55502, Control_c, 0, 64, 77
1, 55506, Note_off_c, 0, 74, 55
1, 55508, Note_off_c, 0, 86, 66
1, 55512, Note_on_c, 0, 88, 34
1, 55515, Note_off_c, 0, 70, 60
1, 55517, Control_c, 0, 64, 86
1, 55518, Note_off_c, 0, 65, 61
1, 55532, Control_c, 0, 64, 97
1, 55543, Note_on_c, 0, 89, 71
1, 55544, Note_off_c, 0, 88, 55
1, 55547, Control_c, 0, 64, 115
1, 55562, Control_c, 0, 64, 127
1, 55592, Note_off_c, 0, 89, 58
1, 55613, Note_on_c, 0, 98, 70
1, 55616, Note_on_c, 0, 65, 57
1, 55616, Note_on_c, 0, 74, 55
1, 55617, Note_on_c, 0, 70, 55
1, 55653, Note_off_c, 0, 70, 59
1, 55658, Note_off_c, 0, 65, 57
1, 55658, Note_off_c, 0, 74, 55
1, 55662, Note_on_c, 0, 89, 77
1, 55663, Note_off_c, 0, 98, 62
1, 55714, Note_off_c, 0, 89, 61
1, 55734, Note_on_c, 0, 86, 69
1, 55754, Note_on_c, 0, 65, 56
1, 55756, Note_on_c, 0, 74, 61
1, 55759, Note_on_c, 0, 70, 61
1, 55763, Note_off_c, 0, 86, 61
1, 55787, Note_on_c, 0, 84, 81
1, 55787, Note_off_c, 0, 70, 64
1, 55792, Note_off_c, 0, 74, 59
1, 55793, Note_off_c, 0, 65, 57
1, 55830, Note_off_c, 0, 84, 63
1, 55879, Note_on_c, 0, 82, 78
1, 55884, Note_on_c, 0, 74, 64
1, 55885, Note_on_c, 0, 65, 54
1, 55887, Note_on_c, 0, 70, 62
1, 55911, Note_off_c, 0, 70, 65
1, 55913, Note_off_c, 0, 74, 63
1, 55918, Note_off_c, 0, 65, 59
1, 55926, Note_off_c, 0, 82, 60
1, 55929, Note_on_c, 0, 86, 68
1, 56012, Note_off_c, 0, 86, 55
1, 56013, Note_on_c, 0, 74, 68
1, 56017, Note_on_c, 0, 94, 82
1, 56018, Note_on_c, 0, 70, 68
1, 56018, Note_on_c, 0, 65, 62
1, 56048, Note_off_c, 0, 74, 57
1, 56048, Note_off_c, 0, 70, 62
1, 56051, Note_off_c, 0, 65, 62
1, 56065, Note_off_c, 0, 94, 65
1, 56069, Note_on_c, 0, 86, 60
1, 56134, Note_on_c, 0, 82, 83
1, 56135, Note_off_c, 0, 86, 60
1, 56143, Note_on_c, 0, 74, 78
1, 56148, Note_on_c, 0, 70, 71
1, 56155, Note_on_c, 0, 65, 60
1, 56161, Note_off_c, 0, 82, 63
1, 56171, Note_off_c, 0, 74, 61
1, 56179, Note_off_c, 0, 70, 60
1, 56180, Note_off_c, 0, 65, 63
1, 56214, Note_on_c, 0, 81, 86
1, 56236, Control_c, 0, 64, 85
1, 56244, Note_off_c, 0, 81, 62
1, 56250, Control_c, 0, 64, 65
1, 56265, Note_on_c, 0, 74, 87
1, 56265, Control_c, 0, 64, 42
1, 56268, Note_on_c, 0, 65, 63
1, 56271, Note_on_c, 0, 70, 81
1, 56280, Control_c, 0, 64, 22
1, 56285, Note_on_c, 0, 79, 71
1, 56288, Note_off_c, 0, 65, 64
1, 56288, Note_off_c, 0, 74, 67
1, 56295, Control_c, 0, 64, 0
1, 56297, Note_off_c, 0, 70, 61
1, 56334, Note_off_c, 0, 79, 60
1, 56342, Note_on_c, 0, 82, 78
1, 56397, Note_off_c, 0, 82, 61
1, 56424, Note_on_c, 0, 91, 63
1, 56452, Note_off_c, 0, 91, 52
1, 56488, Note_on_c, 0, 82, 65
1, 56515, Note_off_c, 0, 82, 67
1, 56523, Note_on_c, 0, 81, 71
1, 56549, Note_off_c, 0, 81, 66
1, 56587, Note_on_c, 0, 82, 78
1, 56607, Control_c, 0, 64, 33
1, 56622, Control_c, 0, 64, 55
1, 56623, Note_off_c, 0, 82, 63
1, 56637, Control_c, 0, 64, 65
1, 56652, Control_c, 0, 64, 69
1, 56659, Note_on_c, 0, 76, 64
1, 56666, Control_c, 0, 64, 76
1, 56667, Note_on_c, 0, 70, 57
1, 56674, Note_on_c, 0, 84, 72
1, 56675, Note_on_c, 0, 67, 43
1, 56680, Note_on_c, 0, 65, 41
1, 56681, Control_c, 0, 64, 85
1, 56696, Control_c, 0, 64, 98
1, 56697, Note_off_c, 0, 76, 57
1, 56705, Note_off_c, 0, 84, 59
1, 56707, Note_off_c, 0, 70, 57
1, 56707, Note_off_c, 0, 67, 53
1, 56708, Note_off_c, 0, 65, 56
1, 56711, Control_c, 0, 64, 113
1, 56725, Note_on_c, 0, 88, 73
1, 56725, Control_c, 0, 64, 127
1, 56789, Note_on_c, 0, 96, 80
1, 56796, Note_off_c, 0, 88, 60
1, 56806, Note_on_c, 0, 65, 61
1, 56810, Note_on_c, 0, 70, 64
1, 56816, Note_on_c, 0, 76, 52
1, 56835, Note_off_c, 0, 76, 62
1, 56842, Note_off_c, 0, 70, 61
1, 56843, Note_off_c, 0, 65, 58
1, 56849, Note_on_c, 0, 91, 80
1, 56855, Note_off_c, 0, 96, 58
1, 56885, Note_off_c, 0, 91, 59
1, 56907, Note_on_c, 0, 84, 72
1, 56915, Note_on_c, 0, 76, 67
1, 56923, Note_on_c, 0, 65, 60
1, 56930, Note_off_c, 0, 84, 66
1, 56945, Note_on_c, 0, 70, 48
1, 56963, Note_off_c, 0, 70, 63
1, 56966, Note_off_c, 0, 76, 55
1, 56978, Note_on_c, 0, 81, 85
1, 57014, Note_off_c, 0, 65, 0
1, 57014, Control_c, 0, 64, 93
1, 57015, Note_off_c, 0, 81, 63
1, 57029, Control_c, 0, 64, 69
1, 57031, Note_on_c, 0, 65, 45
1, 57044, Control_c, 0, 64, 52
1, 57049, Note_on_c, 0, 79, 74
1, 57050, Note_on_c, 0, 75, 83
1, 57059, Control_c, 0, 64, 34
1, 57068, Note_on_c, 0, 72, 46
1, 57073, Control_c, 0, 64, 26
1, 57088, Control_c, 0, 64, 19
1, 57089, Note_off_c, 0, 75, 61
1, 57092, Note_off_c, 0, 72, 60
1, 57094, Note_off_c, 0, 65, 55
1, 57094, Note_off_c, 0, 79, 59
1, 57103, Control_c, 0, 64, 0
1, 57110, Note_on_c, 0, 84, 82
1, 57170, Note_off_c, 0, 84, 60
1, 57184, Note_on_c, 0, 91, 81
1, 57239, Note_on_c, 0, 84, 70
1, 57243, Note_off_c, 0, 91, 62
1, 57283, Note_off_c, 0, 84, 59
1, 57300, Note_on_c, 0, 79, 76
1, 57333, Note_off_c, 0, 79, 59
1, 57370, Note_on_c, 0, 77, 81
1, 57424, Note_off_c, 0, 77, 52
1, 57427, Note_on_c, 0, 76, 75
1, 57466, Note_off_c, 0, 76, 62
1, 57491, Note_on_c, 0, 77, 72
1, 57544, Note_off_c, 0, 77, 59
1, 57545, Note_on_c, 0, 79, 71
1, 57570, Note_off_c, 0, 79, 65
1, 57616, Note_on_c, 0, 81, 85
1, 57655, Note_off_c, 0, 81, 60
1, 57676, Note_on_c, 0, 82, 77
1, 57702, Note_off_c, 0, 82, 62
1, 57737, Note_on_c, 0, 84, 70
1, 57759, Note_off_c, 0, 84, 67
1, 57778, Control_c, 0, 64, 25
1, 57793, Control_c, 0, 64, 50
1, 57808, Control_c, 0, 64, 62
1, 57811, Note_on_c, 0, 86, 77
1, 57822, Control_c, 0, 64, 67
1, 57837, Control_c, 0, 64, 71
1, 57840, Note_off_c, 0, 86, 59
1, 57845, Note_on_c, 0, 77, 47
1, 57848, Note_on_c, 0, 70, 54
1, 57852, Control_c, 0, 64, 78
1, 57866, Note_on_c, 0, 89, 75
1, 57867, Note_on_c, 0, 74, 39
1, 57867, Control_c, 0, 64, 89
1, 57870, Note_off_c, 0, 77, 54
1, 57881, Control_c, 0, 64, 104
1, 57888, Note_off_c, 0, 70, 56
1, 57896, Control_c, 0, 64, 127
1, 57898, Note_off_c, 0, 74, 49
1, 57920, Note_off_c, 0, 89, 60
1, 57938, Note_on_c, 0, 98, 76
1, 57962, Note_on_c, 0, 77, 64
1, 57975, Note_on_c, 0, 70, 55
1, 57979, Note_off_c, 0, 98, 61
1, 57981, Note_on_c, 0, 90, 55
1, 57986, Note_on_c, 0, 74, 59
1, 57994, Note_on_c, 0, 89, 67
1, 58002, Note_off_c, 0, 90, 64
1, 58008, Note_off_c, 0, 74, 62
1, 58013, Note_off_c, 0, 70, 58
1, 58021, Note_off_c, 0, 77, 39
1, 58031, Note_off_c, 0, 89, 58
1, 58071, Note_on_c, 0, 82, 78
1, 58087, Note_on_c, 0, 70, 64
1, 58087, Note_on_c, 0, 74, 68
1, 58087, Note_on_c, 0, 77, 67
1, 58100, Note_off_c, 0, 82, 62
1, 58139, Note_on_c, 0, 84, 71
1, 58149, Note_off_c, 0, 70, 51
1, 58150, Note_off_c, 0, 74, 53
1, 58158, Note_off_c, 0, 77, 48
1, 58162, Note_off_c, 0, 84, 65
1, 58179, Control_c, 0, 64, 87
1, 58194, Control_c, 0, 64, 65
1, 58198, Note_on_c, 0, 86, 86
1, 58209, Control_c, 0, 64, 60
1, 58216, Note_on_c, 0, 77, 57
1, 58221, Note_on_c, 0, 69, 69
1, 58224, Control_c, 0, 64, 60
1, 58226, Note_on_c, 0, 74, 63
1, 58239, Control_c, 0, 64, 63
1, 58260, Control_c, 0, 64, 67
1, 58267, Note_off_c, 0, 86, 60
1, 58275, Control_c, 0, 64, 73
1, 58277, Note_on_c, 0, 89, 82
1, 58279, Note_off_c, 0, 74, 59
1, 58281, Note_off_c, 0, 69, 57
1, 58283, Note_off_c, 0, 77, 54
1, 58290, Control_c, 0, 64, 85
1, 58304, Control_c, 0, 64, 108
1, 58319, Control_c, 0, 64, 127
1, 58331, Note_on_c, 0, 98, 86
1, 58334, Note_off_c, 0, 89, 60
1, 58349, Note_on_c, 0, 69, 63
1, 58351, Note_on_c, 0, 77, 61
1, 58361, Note_on_c, 0, 74, 67
1, 58390, Note_off_c, 0, 74, 65
1, 58400, Note_on_c, 0, 89, 74
1, 58402, Note_off_c, 0, 98, 64
1, 58406, Note_off_c, 0, 69, 60
1, 58412, Note_off_c, 0, 77, 52
1, 58444, Note_off_c, 0, 89, 53
1, 58453, Note_on_c, 0, 86, 81
1, 58460, Note_on_c, 0, 69, 61
1, 58462, Note_on_c, 0, 77, 57
1, 58479, Note_on_c, 0, 74, 68
1, 58492, Note_off_c, 0, 86, 54
1, 58510, Note_off_c, 0, 74, 60
1, 58516, Note_off_c, 0, 69, 61
1, 58521, Note_on_c, 0, 85, 90
1, 58535, Note_off_c, 0, 77, 46
1, 58552, Note_off_c, 0, 85, 66
1, 58557, Control_c, 0, 64, 94
1, 58571, Control_c, 0, 64, 70
1, 58583, Note_on_c, 0, 77, 58
1, 58586, Control_c, 0, 64, 55
1, 58591, Note_on_c, 0, 86, 95
1, 58601, Note_on_c, 0, 74, 73
1, 58601, Control_c, 0, 64, 51
1, 58602, Note_on_c, 0, 68, 67
1, 58626, Note_off_c, 0, 74, 67
1, 58631, Control_c, 0, 64, 54
1, 58640, Note_off_c, 0, 77, 57
1, 58642, Note_off_c, 0, 68, 58
1, 58645, Control_c, 0, 64, 62
1, 58652, Note_off_c, 0, 86, 61
1, 58656, Note_on_c, 0, 89, 81
1, 58660, Control_c, 0, 64, 70
1, 58675, Control_c, 0, 64, 79
1, 58690, Control_c, 0, 64, 92
1, 58695, Note_on_c, 0, 77, 59
1, 58697, Note_on_c, 0, 68, 63
1, 58704, Control_c, 0, 64, 105
1, 58715, Note_on_c, 0, 98, 85
1, 58716, Note_off_c, 0, 89, 59
1, 58720, Control_c, 0, 64, 110
1, 58734, Note_on_c, 0, 74, 69
1, 58735, Control_c, 0, 64, 114
1, 58743, Note_off_c, 0, 77, 59
1, 58746, Note_off_c, 0, 68, 57
1, 58750, Control_c, 0, 64, 119
1, 58765, Control_c, 0, 64, 127
1, 58778, Note_off_c, 0, 98, 63
1, 58782, Note_on_c, 0, 89, 77
1, 58807, Note_off_c, 0, 89, 62
1, 58827, Note_on_c, 0, 65, 78
1, 58838, Note_off_c, 0, 74, 59
1, 58840, Note_on_c, 0, 86, 76
1, 58854, Control_c, 0, 64, 108
1, 58860, Note_on_c, 0, 71, 71
1, 58868, Control_c, 0, 64, 87
1, 58869, Note_off_c, 0, 86, 60
1, 58883, Control_c, 0, 64, 67
1, 58893, Note_off_c, 0, 65, 62
1, 58898, Control_c, 0, 64, 49
1, 58905, Note_on_c, 0, 85, 85
1, 58910, Note_on_c, 0, 74, 83
1, 58913, Control_c, 0, 64, 30
1, 58927, Control_c, 0, 64, 26
1, 58928, Note_off_c, 0, 71, 61
1, 58938, Note_off_c, 0, 85, 65
1, 58942, Control_c, 0, 64, 25
1, 58957, Control_c, 0, 64, 25
1, 58970, Note_on_c, 0, 86, 91
1, 58975, Note_on_c, 0, 80, 98
1, 59008, Note_off_c, 0, 74, 61
1, 59021, Note_off_c, 0, 80, 63
1, 59033, Note_off_c, 0, 86, 60
1, 59061, Note_on_c, 0, 89, 82
1, 59113, Control_c, 0, 64, 24
1, 59124, Note_on_c, 0, 98, 79
1, 59127, Control_c, 0, 64, 23
1, 59136, Note_off_c, 0, 89, 57
1, 59142, Control_c, 0, 64, 22
1, 59157, Control_c, 0, 64, 18
1, 59172, Control_c, 0, 64, 16
1, 59183, Note_on_c, 0, 95, 61
1, 59217, Control_c, 0, 64, 19
1, 59222, Note_off_c, 0, 98, 55
1, 59231, Note_on_c, 0, 92, 79
1, 59231, Control_c, 0, 64, 38
1, 59240, Note_on_c, 0, 67, 61
1, 59243, Note_off_c, 0, 95, 59
1, 59246, Control_c, 0, 64, 56
1, 59261, Control_c, 0, 64, 65
1, 59274, Note_on_c, 0, 71, 69
1, 59276, Control_c, 0, 64, 69
1, 59279, Note_on_c, 0, 89, 58
1, 59291, Control_c, 0, 64, 75
1, 59292, Note_off_c, 0, 92, 62
1, 59297, Note_off_c, 0, 67, 54
1, 59306, Control_c, 0, 64, 84
1, 59320, Control_c, 0, 64, 99
1, 59327, Note_on_c, 0, 72, 36
1, 59328, Note_off_c, 0, 89, 61
1, 59330, Note_on_c, 0, 74, 79
1, 59333, Note_on_c, 0, 86, 82
1, 59335, Control_c, 0, 64, 121
1, 59345, Note_off_c, 0, 71, 60
1, 59350, Control_c, 0, 64, 127
1, 59355, Note_off_c, 0, 72, 54
1, 59357, Note_off_c, 0, 86, 63
1, 59381, Note_on_c, 0, 77, 82
1, 59392, Note_off_c, 0, 74, 60
1, 59432, Note_on_c, 0, 83, 68
1, 59435, Note_off_c, 0, 77, 59
1, 59483, Note_off_c, 0, 83, 57
1, 59485, Note_on_c, 0, 80, 73
1, 59537, Note_off_c, 0, 80, 57
1, 59541, Note_on_c, 0, 77, 73
1, 59607, Note_off_c, 0, 77, 61
1, 59611, Note_on_c, 0, 79, 73
1, 59653, Note_on_c, 0, 80, 72
1, 59680, Note_off_c, 0, 79, 57
1, 59706, Control_c, 0, 64, 96
1, 59721, Control_c, 0, 64, 76
1, 59723, Note_on_c, 0, 81, 73
1, 59736, Control_c, 0, 64, 64
1, 59758, Control_c, 0, 64, 55
1, 59773, Control_c, 0, 64, 52
1, 59788, Note_off_c, 0, 80, 57
1, 59788, Control_c, 0, 64, 49
1, 59795, Note_on_c, 0, 82, 77
1, 59802, Note_off_c, 0, 81, 63
1, 59803, Control_c, 0, 64, 43
1, 59818, Control_c, 0, 64, 34
1, 59833, Note_off_c, 0, 82, 65
1, 59847, Control_c, 0, 64, 0
1, 59856, Note_on_c, 0, 83, 75
1, 59920, Note_on_c, 0, 84, 79
1, 59923, Note_off_c, 0, 83, 62
1, 59977, Note_on_c, 0, 85, 71
1, 59980, Note_off_c, 0, 84, 61
1, 60006, Note_on_c, 0, 86, 71
1, 60010, Control_c, 0, 64, 22
1, 60024, Control_c, 0, 64, 47
1, 60027, Note_off_c, 0, 85, 60
1, 60033, Note_off_c, 0, 86, 64
1, 60039, Control_c, 0, 64, 63
1, 60054, Control_c, 0, 64, 68
1, 60069, Control_c, 0, 64, 74
1, 60074, Note_on_c, 0, 78, 68
1, 60084, Control_c, 0, 64, 83
1, 60087, Note_on_c, 0, 75, 61
1, 60094, Note_on_c, 0, 71, 55
1, 60098, Note_on_c, 0, 87, 81
1, 60099, Control_c, 0, 64, 95
1, 60114, Control_c, 0, 64, 111
1, 60129, Control_c, 0, 64, 127
1, 60134, Note_off_c, 0, 75, 53
1, 60137, Note_off_c, 0, 71, 55
1, 60140, Note_off_c, 0, 78, 55
1, 60158, Note_on_c, 0, 90, 76
1, 60158, Note_off_c, 0, 87, 62
1, 60209, Note_off_c, 0, 90, 62
1, 60219, Note_on_c, 0, 99, 80
1, 60223, Note_on_c, 0, 75, 53
1, 60232, Note_on_c, 0, 78, 40
1, 60241, Note_on_c, 0, 71, 34
1, 60255, Note_off_c, 0, 75, 61
1, 60260, Note_off_c, 0, 78, 54
1, 60266, Note_off_c, 0, 99, 63
1, 60273, Note_off_c, 0, 71, 52
1, 60288, Note_on_c, 0, 90, 55
1, 60308, Note_off_c, 0, 90, 65
1, 60342, Note_on_c, 0, 75, 65
1, 60344, Note_on_c, 0, 78, 68
1, 60346, Note_on_c, 0, 83, 66
1, 60352, Note_on_c, 0, 71, 53
1, 60374, Note_off_c, 0, 83, 63
1, 60383, Note_off_c, 0, 71, 63
1, 60383, Note_off_c, 0, 78, 55
1, 60392, Note_off_c, 0, 75, 54
1, 60397, Note_on_c, 0, 85, 80
1, 60421, Note_off_c, 0, 85, 66
1, 60426, Control_c, 0, 64, 110
1, 60440, Control_c, 0, 64, 79
1, 60455, Control_c, 0, 64, 63
1, 60470, Control_c, 0, 64, 56
1, 60474, Note_on_c, 0, 78, 80
1, 60476, Note_on_c, 0, 70, 66
1, 60477, Note_on_c, 0, 75, 70
1, 60477, Note_on_c, 0, 87, 85
1, 60492, Control_c, 0, 64, 57
1, 60507, Control_c, 0, 64, 58
1, 60522, Control_c, 0, 64, 63
1, 60529, Note_off_c, 0, 78, 58
1, 60534, Note_off_c, 0, 70, 56
1, 60537, Control_c, 0, 64, 67
1, 60538, Note_on_c, 0, 90, 80
1, 60538, Note_off_c, 0, 75, 60
1, 60542, Note_off_c, 0, 87, 63
1, 60552, Control_c, 0, 64, 77
1, 60566, Control_c, 0, 64, 88
1, 60581, Control_c, 0, 64, 102
1, 60596, Control_c, 0, 64, 109
1, 60604, Note_on_c, 0, 70, 55
1, 60607, Note_off_c, 0, 90, 61
1, 60609, Note_on_c, 0, 99, 89
1, 60611, Note_on_c, 0, 78, 64
1, 60611, Control_c, 0, 64, 112
1, 60612, Note_on_c, 0, 75, 62
1, 60626, Control_c, 0, 64, 121
1, 60641, Control_c, 0, 64, 127
1, 60646, Note_off_c, 0, 78, 59
1, 60656, Note_off_c, 0, 75, 61
1, 60666, Note_off_c, 0, 99, 64
1, 60668, Note_off_c, 0, 70, 52
1, 60673, Note_on_c, 0, 90, 71
1, 60714, Note_on_c, 0, 70, 61
1, 60726, Note_on_c, 0, 78, 83
1, 60728, Note_on_c, 0, 86, 79
1, 60731, Note_off_c, 0, 90, 59
1, 60733, Note_on_c, 0, 75, 76
1, 60758, Note_off_c, 0, 86, 58
1, 60774, Note_off_c, 0, 78, 57
1, 60776, Note_off_c, 0, 70, 61
1, 60786, Note_on_c, 0, 87, 90
1, 60790, Note_off_c, 0, 75, 61
1, 60818, Control_c, 0, 64, 103
1, 60825, Note_off_c, 0, 87, 64
1, 60833, Control_c, 0, 64, 75
1, 60847, Control_c, 0, 64, 54
1, 60857, Note_on_c, 0, 78, 87
1, 60861, Note_on_c, 0, 75, 70
1, 60862, Control_c, 0, 64, 43
1, 60869, Note_on_c, 0, 87, 86
1, 60874, Note_on_c, 0, 69, 64
1, 60907, Control_c, 0, 64, 47
1, 60916, Note_off_c, 0, 78, 61
1, 60922, Note_on_c, 0, 90, 82
1, 60922, Control_c, 0, 64, 58
1, 60931, Note_off_c, 0, 69, 60
1, 60934, Note_off_c, 0, 87, 60
1, 60936, Control_c, 0, 64, 66
1, 60951, Control_c, 0, 64, 73
1, 60966, Control_c, 0, 64, 80
1, 60981, Control_c, 0, 64, 86
1, 60981, Note_on_c, 0, 72, 69
1, 60990, Note_on_c, 0, 99, 86
1, 60996, Control_c, 0, 64, 90
1, 61000, Note_off_c, 0, 90, 62
1, 61011, Control_c, 0, 64, 94
1, 61013, Note_off_c, 0, 75, 0
1, 61025, Control_c, 0, 64, 96
1, 61029, Note_off_c, 0, 99, 65
1, 61040, Control_c, 0, 64, 99
1, 61050, Poly_aftertouch_c, 0, 75, 127
1, 61055, Control_c, 0, 64, 101
1, 61056, Note_on_c, 0, 90, 71
1, 61069, Note_off_c, 0, 72, 54
1, 61070, Control_c, 0, 64, 102
1, 61074, Note_on_c, 0, 66, 72
1, 61085, Control_c, 0, 64, 103
1, 61091, Poly_aftertouch_c, 0, 75, 0
1, 61102, Note_off_c, 0, 90, 63
1, 61103, Note_on_c, 0, 86, 73
1, 61126, Note_on_c, 0, 72, 51
1, 61128, Note_off_c, 0, 86, 64
1, 61143, Note_off_c, 0, 66, 59
1, 61160, Control_c, 0, 64, 102
1, 61161, Note_on_c, 0, 87, 91
1, 61175, Control_c, 0, 64, 94
1, 61180, Note_on_c, 0, 75, 82
1, 61189, Control_c, 0, 64, 78
1, 61199, Note_off_c, 0, 87, 63
1, 61204, Control_c, 0, 64, 62
1, 61219, Control_c, 0, 64, 46
1, 61241, Control_c, 0, 64, 35
1, 61249, Note_on_c, 0, 81, 93
1, 61249, Note_on_c, 0, 87, 81
1, 61256, Control_c, 0, 64, 29
1, 61258, Note_off_c, 0, 72, 42
1, 61270, Control_c, 0, 64, 17
1, 61277, Note_off_c, 0, 75, 63
1, 61285, Control_c, 0, 64, 0
1, 61296, Note_on_c, 0, 90, 75
1, 61300, Note_off_c, 0, 81, 63
1, 61310, Note_off_c, 0, 87, 61
1, 61363, Note_on_c, 0, 91, 24
1, 61365, Note_on_c, 0, 99, 75
1, 61381, Note_off_c, 0, 90, 59
1, 61401, Note_on_c, 0, 96, 67
1, 61402, Note_off_c, 0, 91, 50
1, 61413, Note_off_c, 0, 99, 63
1, 61471, Note_off_c, 0, 96, 59
1, 61481, Note_on_c, 0, 91, 66
1, 61486, Note_on_c, 0, 93, 58
1, 61497, Note_on_c, 0, 68, 52
1, 61505, Note_off_c, 0, 93, 64
1, 61508, Note_off_c, 0, 91, 67
1, 61508, Control_c, 0, 64, 28
1, 61522, Control_c, 0, 64, 52
1, 61529, Note_on_c, 0, 72, 67
1, 61537, Control_c, 0, 64, 65
1, 61552, Control_c, 0, 64, 70
1, 61556, Note_on_c, 0, 90, 76
1, 61567, Control_c, 0, 64, 79
1, 61569, Note_off_c, 0, 68, 57
1, 61575, Note_on_c, 0, 74, 50
1, 61582, Control_c, 0, 64, 91
1, 61589, Note_on_c, 0, 75, 77
1, 61592, Note_off_c, 0, 90, 53
1, 61596, Control_c, 0, 64, 106
1, 61598, Note_off_c, 0, 74, 57
1, 61611, Control_c, 0, 64, 127
1, 61614, Note_on_c, 0, 87, 77
1, 61616, Note_off_c, 0, 72, 58
1, 61641, Note_on_c, 0, 78, 87
1, 61653, Note_on_c, 0, 84, 67
1, 61659, Note_off_c, 0, 87, 64
1, 61664, Note_off_c, 0, 75, 56
1, 61696, Note_off_c, 0, 78, 58
1, 61703, Note_on_c, 0, 81, 84
1, 61703, Note_off_c, 0, 84, 56
1, 61742, Note_off_c, 0, 81, 60
1, 61794, Note_on_c, 0, 78, 75
1, 61818, Note_off_c, 0, 78, 63
1, 61839, Note_on_c, 0, 80, 72
1, 61899, Note_off_c, 0, 80, 59
1, 61902, Note_on_c, 0, 81, 82
1, 61944, Note_off_c, 0, 81, 63
1, 61953, Control_c, 0, 64, 113
1, 61968, Control_c, 0, 64, 84
1, 61973, Note_on_c, 0, 82, 81
1, 61983, Control_c, 0, 64, 67
1, 62005, Control_c, 0, 64, 56
1, 62019, Control_c, 0, 64, 49
1, 62023, Note_off_c, 0, 82, 60
1, 62034, Control_c, 0, 64, 48
1, 62041, Note_on_c, 0, 83, 84
1, 62049, Control_c, 0, 64, 45
1, 62064, Control_c, 0, 64, 41
1, 62078, Control_c, 0, 64, 36
1, 62087, Note_off_c, 0, 83, 50
1, 62093, Control_c, 0, 64, 34
1, 62109, Note_on_c, 0, 84, 69
1, 62134, Note_off_c, 0, 84, 66
1, 62142, Note_on_c, 0, 85, 69
1, 62174, Note_off_c, 0, 85, 63
1, 62206, Note_on_c, 0, 86, 81
1, 62248, Note_off_c, 0, 86, 62
1, 62280, Note_on_c, 0, 87, 77
1, 62310, Note_off_c, 0, 87, 59
1, 62316, Control_c, 0, 64, 36
1, 62331, Control_c, 0, 64, 47
1, 62345, Control_c, 0, 64, 59
1, 62346, Note_on_c, 0, 88, 80
1, 62360, Control_c, 0, 64, 66
1, 62361, Note_on_c, 0, 79, 64
1, 62370, Note_on_c, 0, 76, 56
1, 62374, Note_on_c, 0, 72, 54
1, 62375, Control_c, 0, 64, 71
1, 62390, Control_c, 0, 64, 80
1, 62395, Note_off_c, 0, 79, 58
1, 62404, Note_off_c, 0, 76, 62
1, 62405, Note_off_c, 0, 88, 55
1, 62405, Control_c, 0, 64, 90
1, 62412, Note_on_c, 0, 91, 83
1, 62412, Note_off_c, 0, 72, 59
1, 62419, Control_c, 0, 64, 103
1, 62434, Control_c, 0, 64, 127
1, 62469, Note_off_c, 0, 91, 62
1, 62481, Note_on_c, 0, 100, 82
1, 62491, Note_on_c, 0, 76, 63
1, 62500, Note_on_c, 0, 72, 53
1, 62504, Note_on_c, 0, 79, 55
1, 62522, Note_off_c, 0, 76, 61
1, 62524, Note_off_c, 0, 79, 62
1, 62536, Note_off_c, 0, 72, 60
1, 62543, Note_on_c, 0, 91, 77
1, 62549, Note_off_c, 0, 100, 58
1, 62597, Note_off_c, 0, 91, 59
1, 62604, Note_on_c, 0, 79, 68
1, 62605, Note_on_c, 0, 88, 80
1, 62611, Note_on_c, 0, 72, 54
1, 62621, Note_on_c, 0, 76, 68
1, 62635, Note_off_c, 0, 88, 60
1, 62647, Note_off_c, 0, 76, 66
1, 62665, Note_off_c, 0, 79, 55
1, 62671, Note_off_c, 0, 72, 55
1, 62676, Note_on_c, 0, 86, 87
1, 62724, Note_on_c, 0, 79, 68
1, 62727, Note_on_c, 0, 72, 54
1, 62732, Note_off_c, 0, 86, 55
1, 62743, Note_on_c, 0, 76, 77
1, 62743, Note_on_c, 0, 84, 83
1, 62770, Note_off_c, 0, 76, 59
1, 62789, Note_off_c, 0, 79, 61
1, 62791, Note_off_c, 0, 72, 59
1, 62800, Note_off_c, 0, 84, 59
1, 62808, Note_on_c, 0, 88, 87
1, 62852, Note_on_c, 0, 79, 75
1, 62853, Note_on_c, 0, 72, 64
1, 62858, Note_on_c, 0, 76, 79
1, 62862, Note_on_c, 0, 96, 85
1, 62870, Note_off_c, 0, 88, 62
1, 62882, Note_off_c, 0, 76, 64
1, 62898, Note_off_c, 0, 79, 61
1, 62904, Note_off_c, 0, 72, 61
1, 62934, Note_off_c, 0, 96, 60
1, 62940, Note_on_c, 0, 88, 72
1, 62967, Note_on_c, 0, 72, 71
1, 62968, Note_on_c, 0, 79, 85
1, 62975, Note_on_c, 0, 76, 77
1, 62975, Note_on_c, 0, 84, 81
1, 62978, Note_off_c, 0, 88, 58
1, 63005, Note_off_c, 0, 76, 55
1, 63029, Note_off_c, 0, 72, 59
1, 63033, Note_off_c, 0, 79, 61
1, 63043, Note_on_c, 0, 83, 95
1, 63044, Note_off_c, 0, 84, 39
1, 63093, Control_c, 0, 64, 105
1, 63101, Note_off_c, 0, 83, 57
1, 63104, Note_on_c, 0, 81, 103
1, 63108, Note_on_c, 0, 72, 94
1, 63108, Control_c, 0, 64, 72
1, 63123, Control_c, 0, 64, 51
1, 63126, Note_on_c, 0, 77, 66
1, 63138, Control_c, 0, 64, 0
1, 63142, Note_on_c, 0, 84, 86
1, 63151, Note_off_c, 0, 77, 65
1, 63162, Note_off_c, 0, 81, 63
1, 63163, Note_off_c, 0, 72, 62
1, 63220, Note_on_c, 0, 93, 86
1, 63235, Note_off_c, 0, 84, 38
1, 63306, Note_on_c, 0, 89, 69
1, 63339, Note_off_c, 0, 89, 60
1, 63340, Note_on_c, 0, 84, 64
1, 63354, Note_off_c, 0, 93, 35
1, 63390, Note_on_c, 0, 86, 77
1, 63396, Note_off_c, 0, 84, 60
1, 63405, Control_c, 0, 64, 29
1, 63419, Control_c, 0, 64, 54
1, 63424, Note_off_c, 0, 86, 61
1, 63434, Control_c, 0, 64, 63
1, 63449, Control_c, 0, 64, 66
1, 63464, Control_c, 0, 64, 69
1, 63477, Note_on_c, 0, 79, 67
1, 63479, Control_c, 0, 64, 75
1, 63491, Note_on_c, 0, 88, 73
1, 63491, Note_on_c, 0, 72, 59
1, 63495, Note_on_c, 0, 76, 46
1, 63500, Control_c, 0, 64, 85
1, 63516, Control_c, 0, 64, 97
1, 63531, Control_c, 0, 64, 108
1, 63534, Note_off_c, 0, 76, 62
1, 63535, Note_off_c, 0, 72, 55
1, 63537, Note_off_c, 0, 79, 57
1, 63543, Note_off_c, 0, 88, 61
1, 63545, Note_on_c, 0, 91, 78
1, 63546, Control_c, 0, 64, 115
1, 63561, Control_c, 0, 64, 127
1, 63610, Note_on_c, 0, 100, 76
1, 63612, Note_off_c, 0, 91, 51
1, 63632, Note_on_c, 0, 76, 62
1, 63637, Note_on_c, 0, 79, 59
1, 63648, Note_on_c, 0, 72, 45
1, 63667, Note_off_c, 0, 76, 60
1, 63667, Note_off_c, 0, 79, 61
1, 63668, Note_on_c, 0, 91, 56
1, 63672, Note_off_c, 0, 72, 59
1, 63676, Note_off_c, 0, 100, 62
1, 63728, Note_on_c, 0, 88, 78
1, 63729, Note_off_c, 0, 91, 61
1, 63746, Note_on_c, 0, 79, 74
1, 63752, Note_on_c, 0, 72, 67
1, 63760, Note_off_c, 0, 88, 59
1, 63765, Note_on_c, 0, 76, 69
1, 63789, Note_off_c, 0, 76, 66
1, 63803, Note_on_c, 0, 86, 82
1, 63803, Note_off_c, 0, 72, 57
1, 63803, Note_off_c, 0, 79, 60
1, 63856, Note_off_c, 0, 86, 55
1, 63858, Note_on_c, 0, 84, 87
1, 63870, Note_on_c, 0, 79, 73
1, 63871, Note_on_c, 0, 72, 63
1, 63878, Note_on_c, 0, 76, 78
1, 63907, Note_off_c, 0, 76, 59
1, 63919, Note_off_c, 0, 79, 62
1, 63923, Note_off_c, 0, 72, 59
1, 63926, Note_on_c, 0, 88, 85
1, 63932, Note_off_c, 0, 84, 59
1, 63980, Note_on_c, 0, 96, 89
1, 63988, Note_off_c, 0, 88, 62
1, 63989, Note_on_c, 0, 72, 66
1, 63993, Note_on_c, 0, 79, 70
1, 63994, Note_on_c, 0, 76, 77
1, 64017, Note_off_c, 0, 76, 62
1, 64033, Note_off_c, 0, 79, 56
1, 64042, Note_off_c, 0, 72, 60
1, 64060, Note_off_c, 0, 96, 59
1, 64062, Note_on_c, 0, 88, 76
1, 64090, Note_on_c, 0, 72, 56
1, 64099, Note_on_c, 0, 79, 69
1, 64105, Note_on_c, 0, 84, 79
1, 64109, Note_off_c, 0, 88, 59
1, 64111, Note_on_c, 0, 76, 75
1, 64141, Note_off_c, 0, 76, 56
1, 64144, Note_off_c, 0, 84, 53
1, 64152, Note_off_c, 0, 79, 62
1, 64168, Note_off_c, 0, 72, 56
1, 64172, Note_on_c, 0, 83, 92
1, 64198, Control_c, 0, 64, 106
1, 64212, Control_c, 0, 64, 70
1, 64215, Note_on_c, 0, 72, 68
1, 64215, Note_on_c, 0, 81, 98
1, 64223, Note_off_c, 0, 83, 64
1, 64224, Note_on_c, 0, 77, 83
1, 64227, Control_c, 0, 64, 51
1, 64249, Control_c, 0, 64, 31
1, 64279, Control_c, 0, 64, 0
1, 64281, Note_on_c, 0, 84, 83
1, 64282, Note_off_c, 0, 81, 62
1, 64287, Note_off_c, 0, 72, 62
1, 64291, Note_off_c, 0, 77, 58
1, 64339, Note_off_c, 0, 84, 59
1, 64353, Note_on_c, 0, 93, 83
1, 64437, Note_off_c, 0, 93, 57
1, 64449, Note_on_c, 0, 89, 58
1, 64476, Note_off_c, 0, 89, 65
1, 64488, Note_on_c, 0, 84, 44
1, 64505, Poly_aftertouch_c, 0, 91, 127
1, 64524, Note_on_c, 0, 86, 73
1, 64531, Note_off_c, 0, 84, 60
1, 64535, Poly_aftertouch_c, 0, 91, 0
1, 64546, Control_c, 0, 64, 34
1, 64558, Note_off_c, 0, 86, 60
1, 64561, Control_c, 0, 64, 57
1, 64576, Control_c, 0, 64, 65
1, 64591, Control_c, 0, 64, 70
1, 64600, Note_on_c, 0, 79, 68
1, 64605, Note_on_c, 0, 72, 59
1, 64606, Note_on_c, 0, 76, 58
1, 64606, Control_c, 0, 64, 77
1, 64621, Note_on_c, 0, 88, 76
1, 64621, Control_c, 0, 64, 91
1, 64636, Control_c, 0, 64, 106
1, 64638, Note_off_c, 0, 76, 62
1, 64641, Note_off_c, 0, 79, 51
1, 64645, Note_off_c, 0, 72, 58
1, 64651, Control_c, 0, 64, 127
1, 64663, Note_on_c, 0, 91, 69
1, 64666, Note_off_c, 0, 88, 62
1, 64725, Note_off_c, 0, 91, 57
1, 64735, Note_on_c, 0, 100, 76
1, 64749, Note_on_c, 0, 72, 45
1, 64758, Note_on_c, 0, 79, 41
1, 64762, Note_on_c, 0, 76, 34
1, 64773, Note_off_c, 0, 72, 58
1, 64785, Note_off_c, 0, 79, 55
1, 64791, Note_off_c, 0, 76, 54
1, 64797, Note_on_c, 0, 91, 67
1, 64801, Note_off_c, 0, 100, 61
1, 64844, Note_on_c, 0, 72, 63
1, 64849, Note_on_c, 0, 79, 60
1, 64862, Note_on_c, 0, 88, 74
1, 64873, Note_on_c, 0, 76, 43
1, 64880, Note_off_c, 0, 79, 60
1, 64901, Note_off_c, 0, 76, 56
1, 64902, Note_off_c, 0, 72, 56
1, 64906, Note_on_c, 0, 93, 63
1, 64907, Note_off_c, 0, 88, 60
1, 64917, Control_c, 0, 64, 91
1, 64931, Note_off_c, 0, 93, 66
1, 64931, Control_c, 0, 64, 68
1, 64946, Control_c, 0, 64, 59
1, 64955, Note_off_c, 0, 91, 47
1, 64961, Control_c, 0, 64, 59
1, 64966, Note_on_c, 0, 72, 57
1, 64966, Note_on_c, 0, 89, 78
1, 64969, Note_on_c, 0, 77, 71
1, 64970, Note_on_c, 0, 80, 76
1, 64998, Control_c, 0, 64, 62
1, 65013, Control_c, 0, 64, 67
1, 65020, Note_off_c, 0, 80, 60
1, 65028, Control_c, 0, 64, 75
1, 65043, Control_c, 0, 64, 91
1, 65050, Note_on_c, 0, 92, 83
1, 65050, Note_off_c, 0, 77, 53
1, 65057, Control_c, 0, 64, 110
1, 65072, Control_c, 0, 64, 127
1, 65080, Note_off_c, 0, 72, 0
1, 65086, Note_off_c, 0, 89, 49
1, 65087, Note_on_c, 0, 77, 48
1, 65090, Note_on_c, 0, 72, 52
1, 65101, Note_on_c, 0, 80, 73
1, 65119, Note_on_c, 0, 101, 90
1, 65128, Note_off_c, 0, 80, 62
1, 65137, Note_off_c, 0, 92, 62
1, 65161, Note_off_c, 0, 77, 57
1, 65190, Note_off_c, 0, 72, 0
1, 65190, Note_on_c, 0, 72, 17
1, 65194, Note_off_c, 0, 101, 58
1, 65197, Note_on_c, 0, 92, 80
1, 65201, Poly_aftertouch_c, 0, 77, 0
1, 65208, Note_on_c, 0, 77, 53
1, 65211, Note_on_c, 0, 80, 81
1, 65238, Note_on_c, 0, 89, 84
1, 65257, Note_off_c, 0, 80, 61
1, 65268, Note_off_c, 0, 77, 57
1, 65282, Note_off_c, 0, 89, 64
1, 65284, Note_off_c, 0, 72, 53
1, 65295, Control_c, 0, 64, 97
1, 65299, Note_on_c, 0, 94, 52
1, 65305, Note_off_c, 0, 92, 63
1, 65310, Control_c, 0, 64, 70
1, 65321, Note_off_c, 0, 94, 59
1, 65325, Control_c, 0, 64, 52
1, 65337, Note_on_c, 0, 90, 96
1, 65340, Control_c, 0, 64, 42
1, 65342, Note_on_c, 0, 72, 63
1, 65348, Note_on_c, 0, 81, 70
1, 65354, Note_on_c, 0, 83, 76
1, 65362, Note_on_c, 0, 78, 41
1, 65369, Control_c, 0, 64, 48
1, 65374, Note_on_c, 0, 79, 52
1, 65381, Note_off_c, 0, 83, 57
1, 65384, Control_c, 0, 64, 58
1, 65389, Note_off_c, 0, 78, 57
1, 65391, Note_off_c, 0, 81, 62
1, 65396, Note_off_c, 0, 79, 62
1, 65399, Control_c, 0, 64, 67
1, 65414, Control_c, 0, 64, 74
1, 65423, Note_on_c, 0, 93, 66
1, 65428, Note_off_c, 0, 90, 61
1, 65429, Control_c, 0, 64, 83
1, 65430, Note_off_c, 0, 72, 0
1, 65444, Control_c, 0, 64, 96
1, 65447, Note_on_c, 0, 72, 32
1, 65454, Note_on_c, 0, 102, 91
1, 65459, Control_c, 0, 64, 108
1, 65465, Note_on_c, 0, 78, 77
1, 65465, Note_on_c, 0, 81, 76
1, 65473, Control_c, 0, 64, 127
1, 65476, Note_off_c, 0, 93, 61
1, 65515, Note_off_c, 0, 81, 57
1, 65519, Note_off_c, 0, 78, 57
1, 65557, Note_off_c, 0, 102, 65
1, 65557, Note_on_c, 0, 93, 81
1, 65568, Note_off_c, 0, 72, 0
1, 65568, Note_on_c, 0, 72, 33
1, 65568, Note_on_c, 0, 92, 37
1, 65582, Note_on_c, 0, 81, 73
1, 65589, Note_on_c, 0, 78, 73
1, 65602, Note_on_c, 0, 90, 91
1, 65607, Note_off_c, 0, 92, 49
1, 65620, Note_off_c, 0, 72, 60
1, 65621, Control_c, 0, 64, 76
1, 65624, Note_off_c, 0, 81, 58
1, 65636, Control_c, 0, 64, 45
1, 65648, Note_off_c, 0, 78, 61
1, 65651, Control_c, 0, 64, 0
1, 65685, Note_off_c, 0, 90, 62
1, 65687, Note_off_c, 0, 93, 48
1, 65700, Note_on_c, 0, 82, 100
1, 65703, Note_on_c, 0, 73, 90
1, 65710, Control_c, 0, 64, 45
1, 65725, Control_c, 0, 64, 66
1, 65748, Control_c, 0, 64, 77
1, 65762, Control_c, 0, 64, 99
1, 65763, Note_on_c, 0, 94, 82
1, 65765, Note_off_c, 0, 73, 65
1, 65777, Control_c, 0, 64, 127
1, 65780, Note_off_c, 0, 82, 61
1, 65836, Note_on_c, 0, 90, 79
1, 65846, Note_off_c, 0, 94, 63
1, 65851, Control_c, 0, 64, 87
1, 65866, Control_c, 0, 64, 66
1, 65881, Control_c, 0, 64, 60
1, 65895, Control_c, 0, 64, 61
1, 65911, Control_c, 0, 64, 64
1, 65921, Note_on_c, 0, 83, 67
1, 65926, Note_on_c, 0, 102, 81
1, 65926, Control_c, 0, 64, 68
1, 65928, Note_on_c, 0, 74, 66
1, 65941, Control_c, 0, 64, 76
1, 65949, Note_off_c, 0, 90, 37
1, 65956, Control_c, 0, 64, 96
1, 65971, Control_c, 0, 64, 127
1, 65977, Note_off_c, 0, 74, 52
1, 65980, Note_on_c, 0, 95, 71
1, 66013, Note_off_c, 0, 102, 61
1, 66019, Note_off_c, 0, 83, 34
1, 66042, Note_on_c, 0, 90, 76
1, 66063, Note_off_c, 0, 95, 61
1, 66097, Note_on_c, 0, 102, 95
1, 66103, Note_on_c, 0, 84, 86
1, 66111, Note_off_c, 0, 90, 64
1, 66115, Note_on_c, 0, 75, 68
1, 66162, Note_on_c, 0, 96, 83
1, 66167, Note_off_c, 0, 75, 54
1, 66180, Note_off_c, 0, 84, 60
1, 66202, Note_off_c, 0, 102, 64
1, 66216, Note_on_c, 0, 90, 88
1, 66250, Note_off_c, 0, 96, 61
1, 66251, Control_c, 0, 64, 86
1, 66266, Control_c, 0, 64, 69
1, 66269, Note_on_c, 0, 76, 83
1, 66272, Note_on_c, 0, 85, 98
1, 66281, Control_c, 0, 64, 65
1, 66285, Note_on_c, 0, 102, 94
1, 66296, Control_c, 0, 64, 67
1, 66300, Note_off_c, 0, 90, 63
1, 66311, Control_c, 0, 64, 73
1, 66326, Control_c, 0, 64, 83
1, 66338, Note_on_c, 0, 97, 81
1, 66341, Control_c, 0, 64, 103
1, 66356, Control_c, 0, 64, 127
1, 66368, Note_off_c, 0, 76, 57
1, 66383, Note_off_c, 0, 102, 63
1, 66385, Note_off_c, 0, 85, 61
1, 66400, Note_on_c, 0, 90, 87
1, 66429, Note_off_c, 0, 97, 64
1, 66429, Control_c, 0, 64, 95
1, 66444, Control_c, 0, 64, 74
1, 66459, Control_c, 0, 64, 66
1, 66460, Note_on_c, 0, 86, 99
1, 66460, Note_on_c, 0, 102, 85
1, 66463, Note_on_c, 0, 77, 88
1, 66474, Note_off_c, 0, 90, 63
1, 66474, Control_c, 0, 64, 67
1, 66496, Control_c, 0, 64, 73
1, 66500, Note_on_c, 0, 78, 52
1, 66511, Control_c, 0, 64, 84
1, 66521, Note_off_c, 0, 78, 60
1, 66526, Control_c, 0, 64, 106
1, 66527, Note_on_c, 0, 98, 79
1, 66535, Note_off_c, 0, 77, 60
1, 66541, Control_c, 0, 64, 127
1, 66546, Note_off_c, 0, 86, 58
1, 66575, Note_off_c, 0, 102, 63
1, 66578, Note_on_c, 0, 90, 85
1, 66630, Control_c, 0, 64, 87
1, 66639, Note_off_c, 0, 98, 62
1, 66644, Control_c, 0, 64, 66
1, 66656, Note_on_c, 0, 102, 96
1, 66659, Control_c, 0, 64, 57
1, 66672, Note_off_c, 0, 90, 62
1, 66674, Control_c, 0, 64, 59
1, 66678, Note_on_c, 0, 78, 86
1, 66678, Note_on_c, 0, 87, 103
1, 66689, Control_c, 0, 64, 64
1, 66704, Control_c, 0, 64, 70
1, 66719, Control_c, 0, 64, 81
1, 66734, Control_c, 0, 64, 106
1, 66739, Note_off_c, 0, 78, 63
1, 66749, Control_c, 0, 64, 127
1, 66761, Note_on_c, 0, 99, 74
1, 66769, Note_off_c, 0, 87, 61
1, 66778, Note_on_c, 0, 90, 79
1, 66822, Note_off_c, 0, 102, 61
1, 66869, Note_off_c, 0, 90, 63
1, 66882, Control_c, 0, 64, 116
1, 66897, Control_c, 0, 64, 76
1, 66907, Note_off_c, 0, 99, 33
1, 66912, Control_c, 0, 64, 54
1, 66926, Control_c, 0, 64, 23
1, 66931, Note_on_c, 0, 81, 86
1, 66931, Note_on_c, 0, 90, 96
1, 66935, Note_on_c, 0, 87, 90
1, 66941, Note_on_c, 0, 84, 80
1, 66941, Control_c, 0, 64, 27
1, 66956, Control_c, 0, 64, 45
1, 66971, Control_c, 0, 64, 61
1, 66985, Control_c, 0, 64, 68
1, 67000, Control_c, 0, 64, 75
1, 67007, Note_off_c, 0, 81, 58
1, 67015, Control_c, 0, 64, 86
1, 67030, Control_c, 0, 64, 100
1, 67045, Control_c, 0, 64, 122
1, 67053, Note_off_c, 0, 90, 58
1, 67058, Note_off_c, 0, 84, 56
1, 67059, Control_c, 0, 64, 127
1, 67062, Note_off_c, 0, 87, 62
1, 67072, Poly_aftertouch_c, 0, 96, 127
1, 67104, Poly_aftertouch_c, 0, 96, 0
1, 67112, Note_on_c, 0, 93, 75
1, 67172, Note_on_c, 0, 96, 82
1, 67190, Note_off_c, 0, 93, 59
1, 67215, Note_on_c, 0, 102, 111
1, 67251, Poly_aftertouch_c, 0, 98, 127
1, 67264, Note_off_c, 0, 102, 65
1, 67289, Note_on_c, 0, 101, 76
1, 67289, Poly_aftertouch_c, 0, 98, 0
1, 67301, Note_off_c, 0, 96, 58
1, 67361, Note_on_c, 0, 100, 81
1, 67429, Note_on_c, 0, 99, 86
1, 67446, Note_off_c, 0, 100, 63
1, 67447, Note_off_c, 0, 101, 37
1, 67490, Note_on_c, 0, 96, 89
1, 67504, Note_off_c, 0, 99, 62
1, 67543, Note_on_c, 0, 95, 77
1, 67563, Note_off_c, 0, 96, 60
1, 67584, Note_on_c, 0, 94, 77
1, 67635, Note_on_c, 0, 93, 80
1, 67679, Note_off_c, 0, 95, 56
1, 67687, Note_off_c, 0, 94, 58
1, 67688, Note_on_c, 0, 96, 75
1, 67718, Note_off_c, 0, 93, 59
1, 67753, Note_on_c, 0, 95, 86
1, 67770, Note_off_c, 0, 96, 60
1, 67805, Note_on_c, 0, 94, 84
1, 67828, Note_off_c, 0, 95, 62
1, 67855, Note_on_c, 0, 93, 90
1, 67900, Note_off_c, 0, 94, 63
1, 67909, Note_on_c, 0, 90, 92
1, 67937, Note_off_c, 0, 93, 61
1, 67969, Note_on_c, 0, 89, 79
1, 67971, Note_off_c, 0, 90, 65
1, 68049, Note_on_c, 0, 88, 47
1, 68058, Note_on_c, 0, 87, 71
1, 68070, Note_off_c, 0, 89, 60
1, 68087, Note_off_c, 0, 88, 60
1, 68108, Note_on_c, 0, 90, 77
1, 68122, Note_off_c, 0, 87, 64
1, 68156, Note_on_c, 0, 89, 72
1, 68206, Note_on_c, 0, 88, 73
1, 68222, Note_off_c, 0, 90, 36
1, 68228, Note_off_c, 0, 89, 56
1, 68257, Note_on_c, 0, 87, 86
1, 68283, Note_off_c, 0, 88, 57
1, 68313, Note_on_c, 0, 84, 85
1, 68335, Note_off_c, 0, 87, 61
1, 68359, Note_on_c, 0, 83, 76
1, 68386, Note_off_c, 0, 84, 58
1, 68401, Note_on_c, 0, 82, 72
1, 68432, Note_on_c, 0, 81, 74
1, 68441, Note_off_c, 0, 83, 62
1, 68496, Note_off_c, 0, 82, 59
1, 68499, Note_on_c, 0, 84, 57
1, 68504, Note_off_c, 0, 81, 61
1, 68510, Note_on_c, 0, 86, 63
1, 68532, Note_off_c, 0, 86, 57
1, 68544, Note_on_c, 0, 83, 76
1, 68591, Note_on_c, 0, 82, 85
1, 68602, Note_off_c, 0, 84, 57
1, 68607, Note_off_c, 0, 83, 61
1, 68654, Note_on_c, 0, 81, 74
1, 68686, Note_off_c, 0, 82, 56
1, 68692, Note_on_c, 0, 78, 69
1, 68721, Note_off_c, 0, 81, 63
1, 68734, Note_on_c, 0, 77, 72
1, 68747, Note_off_c, 0, 78, 61
1, 68818, Note_on_c, 0, 75, 72
1, 68821, Note_on_c, 0, 76, 47
1, 68824, Note_off_c, 0, 77, 59
1, 68854, Note_off_c, 0, 76, 62
1, 68860, Note_on_c, 0, 78, 70
1, 68883, Note_off_c, 0, 75, 63
1, 68922, Note_on_c, 0, 77, 59
1, 68952, Note_on_c, 0, 76, 76
1, 68958, Note_off_c, 0, 78, 58
1, 68971, Note_off_c, 0, 77, 55
1, 69015, Note_on_c, 0, 75, 76
1, 69024, Note_off_c, 0, 76, 62
1, 69068, Note_on_c, 0, 72, 71
1, 69080, Note_off_c, 0, 75, 62
1, 69112, Note_on_c, 0, 71, 66
1, 69138, Note_off_c, 0, 72, 52
1, 69152, Note_on_c, 0, 70, 66
1, 69178, Note_off_c, 0, 71, 59
1, 69183, Note_on_c, 0, 69, 70
1, 69222, Note_on_c, 0, 72, 61
1, 69234, Note_off_c, 0, 70, 58
1, 69240, Note_off_c, 0, 69, 61
1, 69278, Note_on_c, 0, 71, 75
1, 69304, Note_off_c, 0, 72, 55
1, 69322, Note_on_c, 0, 70, 84
1, 69322, Note_off_c, 0, 71, 63
1, 69364, Note_on_c, 0, 69, 79
1, 69381, Note_off_c, 0, 70, 55
1, 69381, Control_c, 0, 64, 99
1, 69396, Control_c, 0, 64, 76
1, 69411, Control_c, 0, 64, 63
1, 69422, Note_off_c, 0, 69, 65
1, 69424, Note_on_c, 0, 66, 73
1, 69426, Control_c, 0, 64, 55
1, 69441, Control_c, 0, 64, 53
1, 69456, Control_c, 0, 64, 48
1, 69464, Note_off_c, 0, 66, 63
1, 69471, Control_c, 0, 64, 38
1, 69493, Control_c, 0, 64, 23
1, 69508, Control_c, 0, 64, 0
1, 69554, Note_on_c, 0, 65, 75
1, 69593, Note_off_c, 0, 65, 62
1, 69665, Note_on_c, 0, 64, 68
1, 69691, Note_off_c, 0, 64, 65
1, 69775, Note_on_c, 0, 63, 69
1, 69808, Note_off_c, 0, 63, 59
1, 69892, Note_on_c, 0, 66, 72
1, 69934, Note_off_c, 0, 66, 63
1, 70004, Note_on_c, 0, 69, 74
1, 70028, Note_off_c, 0, 69, 68
1, 70114, Note_on_c, 0, 63, 68
1, 70144, Note_off_c, 0, 63, 60
1, 70238, Note_on_c, 0, 62, 70
1, 70271, Note_off_c, 0, 62, 59
1, 70365, Note_on_c, 0, 61, 64
1, 70394, Note_off_c, 0, 61, 65
1, 70475, Note_on_c, 0, 60, 61
1, 70499, Note_off_c, 0, 60, 61
1, 70580, Note_on_c, 0, 63, 68
1, 70624, Note_off_c, 0, 63, 59
1, 70692, Note_on_c, 0, 66, 68
1, 70717, Note_off_c, 0, 66, 67
1, 70814, Note_on_c, 0, 60, 49
1, 70839, Note_off_c, 0, 60, 55
1, 70940, Note_on_c, 0, 59, 59
1, 70979, Note_off_c, 0, 59, 63
1, 71061, Note_on_c, 0, 58, 58
1, 71083, Note_off_c, 0, 58, 59
1, 71184, Note_on_c, 0, 57, 45
1, 71211, Note_off_c, 0, 57, 56
1, 71280, Note_on_c, 0, 60, 62
1, 71321, Note_off_c, 0, 60, 59
1, 71405, Note_on_c, 0, 63, 58
1, 71427, Note_off_c, 0, 63, 62
1, 71522, Note_on_c, 0, 56, 58
1, 71544, Note_off_c, 0, 56, 61
1, 71624, Note_on_c, 0, 60, 61
1, 71668, Note_off_c, 0, 60, 60
1, 71753, Note_on_c, 0, 63, 55
1, 71776, Note_off_c, 0, 63, 61
1, 71875, Note_on_c, 0, 55, 58
1, 71898, Note_off_c, 0, 55, 60
1, 71996, Note_on_c, 0, 60, 62
1, 72037, Note_off_c, 0, 60, 56
1, 72127, Note_on_c, 0, 63, 57
1, 72156, Note_off_c, 0, 63, 62
1, 72257, Note_on_c, 0, 54, 60
1, 72291, Note_off_c, 0, 54, 65
1, 72380, Note_on_c, 0, 60, 59
1, 72421, Note_off_c, 0, 60, 56
1, 72525, Note_on_c, 0, 63, 57
1, 72548, Note_off_c, 0, 63, 62
1, 72673, Note_on_c, 0, 57, 48
1, 72699, Note_off_c, 0, 57, 57
1, 72791, Note_on_c, 0, 60, 63
1, 72820, Note_off_c, 0, 60, 63
1, 72911, Note_on_c, 0, 63, 64
1, 72931, Note_off_c, 0, 63, 64
1, 73010, Note_on_c, 0, 62, 68
1, 73038, Note_off_c, 0, 62, 63
1, 73140, Note_on_c, 0, 58, 62
1, 73161, Note_off_c, 0, 58, 61
1, 73251, Note_on_c, 0, 55, 63
1, 73284, Note_off_c, 0, 55, 61
1, 73346, Note_on_c, 0, 67, 66
1, 73348, Note_on_c, 0, 60, 55
1, 73363, Note_off_c, 0, 67, 65
1, 73370, Note_on_c, 0, 51, 38
1, 73370, Note_off_c, 0, 60, 58
1, 73403, Note_off_c, 0, 51, 50
1, 73469, Note_on_c, 0, 55, 60
1, 73509, Note_off_c, 0, 55, 58
1, 73573, Note_on_c, 0, 57, 52
1, 73611, Note_off_c, 0, 57, 64
1, 73680, Note_on_c, 0, 62, 72
1, 73681, Note_on_c, 0, 58, 56
1, 73704, Note_off_c, 0, 58, 59
1, 73707, Note_off_c, 0, 62, 63
1, 73798, Note_on_c, 0, 55, 51
1, 73823, Note_off_c, 0, 55, 57
1, 73887, Note_on_c, 0, 50, 57
1, 73923, Note_off_c, 0, 50, 64
1, 74009, Note_on_c, 0, 46, 60
1, 74042, Note_off_c, 0, 46, 62
1, 74129, Note_on_c, 0, 55, 54
1, 74161, Note_off_c, 0, 55, 61
1, 74231, Note_on_c, 0, 51, 65
1, 74260, Note_off_c, 0, 51, 64
1, 74359, Note_on_c, 0, 50, 52
1, 74385, Note_off_c, 0, 50, 58
1, 74469, Note_on_c, 0, 49, 61
1, 74502, Note_off_c, 0, 49, 63
1, 74586, Note_on_c, 0, 50, 52
1, 74611, Note_off_c, 0, 50, 57
1, 74680, Note_on_c, 0, 55, 57
1, 74681, Note_on_c, 0, 60, 63
1, 74705, Note_on_c, 0, 51, 52
1, 74705, Note_off_c, 0, 55, 59
1, 74713, Note_off_c, 0, 60, 61
1, 74739, Note_off_c, 0, 51, 59
1, 74833, Note_on_c, 0, 53, 46
1, 74865, Note_off_c, 0, 53, 54
1, 74932, Note_on_c, 0, 51, 55
1, 74966, Note_off_c, 0, 51, 63
1, 75006, Note_on_c, 0, 57, 72
1, 75027, Note_on_c, 0, 54, 44
1, 75034, Note_on_c, 0, 50, 61
1, 75044, Note_off_c, 0, 57, 61
1, 75057, Note_off_c, 0, 54, 55
1, 75068, Note_off_c, 0, 50, 65
1, 75132, Note_on_c, 0, 49, 65
1, 75161, Note_off_c, 0, 49, 66
1, 75238, Note_on_c, 0, 50, 62
1, 75266, Note_off_c, 0, 50, 61
1, 75346, Note_on_c, 0, 54, 82
1, 75403, Note_off_c, 0, 54, 59
1, 75442, Note_on_c, 0, 57, 79
1, 75504, Note_off_c, 0, 57, 60
1, 75558, Note_on_c, 0, 61, 89
1, 75611, Note_off_c, 0, 61, 60
1, 75667, Note_on_c, 0, 62, 79
1, 75704, Note_off_c, 0, 62, 62
1, 75782, Note_on_c, 0, 58, 69
1, 75815, Note_off_c, 0, 58, 60
1, 75881, Note_on_c, 0, 55, 67
1, 75924, Note_off_c, 0, 55, 58
1, 75982, Note_on_c, 0, 60, 69
1, 75987, Note_on_c, 0, 67, 71
1, 76011, Note_off_c, 0, 60, 63
1, 76011, Note_off_c, 0, 67, 67
1, 76012, Note_on_c, 0, 51, 39
1, 76043, Note_off_c, 0, 51, 51
1, 76087, Note_on_c, 0, 55, 63
1, 76144, Note_off_c, 0, 55, 58
1, 76196, Note_on_c, 0, 57, 54
1, 76245, Note_off_c, 0, 57, 63
1, 76302, Note_on_c, 0, 58, 69
1, 76325, Note_on_c, 0, 62, 75
1, 76336, Note_off_c, 0, 58, 60
1, 76366, Note_off_c, 0, 62, 54
1, 76419, Note_on_c, 0, 55, 63
1, 76450, Note_off_c, 0, 55, 63
1, 76518, Note_on_c, 0, 50, 57
1, 76553, Note_off_c, 0, 50, 63
1, 76630, Note_on_c, 0, 46, 57
1, 76655, Note_off_c, 0, 46, 60
1, 76743, Note_on_c, 0, 55, 57
1, 76775, Note_off_c, 0, 55, 62
1, 76849, Note_on_c, 0, 51, 57
1, 76881, Note_off_c, 0, 51, 64
1, 76959, Note_on_c, 0, 50, 59
1, 76997, Note_off_c, 0, 50, 62
1, 77060, Note_on_c, 0, 49, 68
1, 77092, Note_off_c, 0, 49, 65
1, 77168, Note_on_c, 0, 50, 51
1, 77194, Note_off_c, 0, 50, 57
1, 77277, Note_on_c, 0, 55, 54
1, 77278, Note_on_c, 0, 60, 56
1, 77283, Note_on_c, 0, 51, 62
1, 77302, Note_off_c, 0, 55, 57
1, 77311, Note_off_c, 0, 60, 60
1, 77314, Note_off_c, 0, 51, 63
1, 77385, Note_on_c, 0, 53, 60
1, 77424, Note_off_c, 0, 53, 60
1, 77483, Note_on_c, 0, 51, 60
1, 77518, Note_off_c, 0, 51, 62
1, 77595, Note_on_c, 0, 50, 67
1, 77598, Note_on_c, 0, 57, 58
1, 77613, Note_on_c, 0, 54, 31
1, 77631, Note_off_c, 0, 50, 60
1, 77638, Note_off_c, 0, 57, 59
1, 77649, Note_off_c, 0, 54, 45
1, 77692, Note_on_c, 0, 45, 63
1, 77733, Note_off_c, 0, 45, 61
1, 77832, Control_c, 0, 67, 25
1, 77846, Control_c, 0, 67, 57
1, 77856, Note_on_c, 0, 43, 3
1, 77861, Control_c, 0, 67, 94
1, 77876, Control_c, 0, 67, 127
1, 77893, Note_off_c, 0, 43, 29
1, 77918, Note_on_c, 0, 38, 75
1, 77954, Note_off_c, 0, 38, 65
1, 78026, Note_on_c, 0, 38, 64
1, 78062, Note_off_c, 0, 38, 61
1, 78132, Note_on_c, 0, 38, 62
1, 78166, Note_off_c, 0, 38, 63
1, 78245, Note_on_c, 0, 38, 62
1, 78279, Note_off_c, 0, 38, 62
1, 78360, Note_on_c, 0, 38, 55
1, 78387, Note_off_c, 0, 38, 57
1, 78480, Note_on_c, 0, 38, 36
1, 78516, Note_off_c, 0, 38, 43
1, 78566, Note_on_c, 0, 54, 69
1, 78566, Note_on_c, 0, 58, 65
1, 78571, Note_on_c, 0, 38, 45
1, 78594, Note_off_c, 0, 54, 66
1, 78597, Note_off_c, 0, 58, 64
1, 78607, Note_off_c, 0, 38, 62
1, 78664, Note_on_c, 0, 54, 71
1, 78669, Note_on_c, 0, 58, 64
1, 78683, Note_on_c, 0, 38, 53
1, 78689, Note_off_c, 0, 54, 64
1, 78700, Note_off_c, 0, 58, 64
1, 78719, Note_off_c, 0, 38, 63
1, 78754, Note_on_c, 0, 54, 73
1, 78762, Note_on_c, 0, 58, 67
1, 78780, Note_off_c, 0, 54, 66
1, 78789, Note_on_c, 0, 38, 39
1, 78794, Note_off_c, 0, 58, 61
1, 78825, Note_off_c, 0, 38, 43
1, 78857, Note_on_c, 0, 55, 77
1, 78870, Note_on_c, 0, 51, 59
1, 78883, Note_off_c, 0, 55, 63
1, 78887, Note_on_c, 0, 38, 57
1, 78896, Note_off_c, 0, 51, 61
1, 78917, Note_off_c, 0, 38, 62
1, 78984, Note_on_c, 0, 38, 56
1, 79011, Note_off_c, 0, 38, 60
1, 79063, Note_on_c, 0, 38, 60
1, 79096, Note_off_c, 0, 38, 61
1, 79176, Note_on_c, 0, 55, 72
1, 79177, Note_on_c, 0, 38, 67
1, 79183, Note_on_c, 0, 59, 69
1, 79201, Note_off_c, 0, 55, 66
1, 79216, Note_off_c, 0, 59, 66
1, 79220, Note_off_c, 0, 38, 61
1, 79293, Note_on_c, 0, 38, 70
1, 79333, Note_off_c, 0, 38, 60
1, 79400, Note_on_c, 0, 38, 58
1, 79433, Note_off_c, 0, 38, 62
1, 79518, Note_on_c, 0, 38, 61
1, 79551, Note_off_c, 0, 38, 63
1, 79618, Note_on_c, 0, 38, 61
1, 79650, Note_off_c, 0, 38, 63
1, 79731, Note_on_c, 0, 38, 53
1, 79759, Note_off_c, 0, 38, 56
1, 79810, Note_on_c, 0, 56, 68
1, 79813, Note_on_c, 0, 60, 64
1, 79815, Note_on_c, 0, 52, 63
1, 79834, Note_on_c, 0, 38, 54
1, 79844, Note_off_c, 0, 56, 64
1, 79845, Note_off_c, 0, 52, 63
1, 79850, Note_off_c, 0, 60, 57
1, 79868, Note_off_c, 0, 38, 62
1, 79919, Note_on_c, 0, 56, 59
1, 79921, Note_on_c, 0, 52, 66
1, 79923, Note_on_c, 0, 60, 51
1, 79934, Note_on_c, 0, 38, 61
1, 79953, Note_off_c, 0, 52, 61
1, 79955, Note_off_c, 0, 56, 62
1, 79958, Note_off_c, 0, 60, 48
1, 79978, Note_off_c, 0, 38, 61
1, 80011, Note_on_c, 0, 56, 70
1, 80014, Note_on_c, 0, 60, 55
1, 80034, Note_on_c, 0, 38, 56
1, 80040, Note_on_c, 0, 52, 25
1, 80047, Note_off_c, 0, 56, 61
1, 80047, Note_off_c, 0, 60, 61
1, 80063, Note_off_c, 0, 38, 60
1, 80077, Note_off_c, 0, 52, 46
1, 80128, Note_on_c, 0, 57, 76
1, 80131, Note_on_c, 0, 53, 72
1, 80139, Note_on_c, 0, 38, 72
1, 80151, Note_off_c, 0, 57, 68
1, 80160, Note_off_c, 0, 53, 65
1, 80171, Note_off_c, 0, 38, 62
1, 80235, Note_on_c, 0, 38, 68
1, 80268, Note_off_c, 0, 38, 61
1, 80322, Note_on_c, 0, 38, 66
1, 80359, Note_off_c, 0, 38, 59
1, 80436, Note_on_c, 0, 53, 72
1, 80438, Note_on_c, 0, 38, 68
1, 80440, Note_on_c, 0, 61, 70
1, 80445, Note_on_c, 0, 57, 56
1, 80465, Note_off_c, 0, 53, 64
1, 80467, Note_off_c, 0, 57, 60
1, 80467, Note_off_c, 0, 61, 62
1, 80477, Note_off_c, 0, 38, 66
1, 80557, Note_on_c, 0, 38, 66
1, 80590, Note_off_c, 0, 38, 63
1, 80645, Note_on_c, 0, 38, 63
1, 80681, Note_off_c, 0, 38, 63
1, 80762, Note_on_c, 0, 38, 69
1, 80798, Note_off_c, 0, 38, 62
1, 80868, Note_on_c, 0, 38, 69
1, 80903, Note_off_c, 0, 38, 61
1, 80965, Note_on_c, 0, 38, 59
1, 80999, Note_off_c, 0, 38, 63
1, 81078, Note_on_c, 0, 38, 62
1, 81081, Note_on_c, 0, 54, 72
1, 81081, Note_on_c, 0, 58, 69
1, 81087, Note_on_c, 0, 62, 66
1, 81114, Note_off_c, 0, 54, 62
1, 81116, Note_off_c, 0, 58, 61
1, 81119, Note_off_c, 0, 62, 61
1, 81120, Note_off_c, 0, 38, 61
1, 81180, Note_on_c, 0, 54, 67
1, 81182, Note_on_c, 0, 58, 66
1, 81186, Note_on_c, 0, 62, 59
1, 81201, Note_on_c, 0, 38, 65
1, 81213, Note_off_c, 0, 58, 60
1, 81214, Note_off_c, 0, 54, 60
1, 81218, Note_off_c, 0, 62, 63
1, 81238, Note_off_c, 0, 38, 61
1, 81266, Note_on_c, 0, 54, 72
1, 81277, Note_on_c, 0, 62, 60
1, 81278, Note_on_c, 0, 58, 66
1, 81298, Note_on_c, 0, 38, 61
1, 81307, Note_off_c, 0, 58, 62
1, 81311, Note_off_c, 0, 54, 61
1, 81317, Note_off_c, 0, 62, 57
1, 81324, Note_off_c, 0, 38, 58
1, 81380, Note_on_c, 0, 58, 78
1, 81389, Note_on_c, 0, 55, 72
1, 81398, Note_on_c, 0, 38, 71
1, 81414, Note_off_c, 0, 55, 65
1, 81418, Note_off_c, 0, 58, 57
1, 81437, Note_off_c, 0, 38, 61
1, 81512, Note_on_c, 0, 38, 63
1, 81543, Note_off_c, 0, 38, 63
1, 81600, Note_on_c, 0, 38, 61
1, 81627, Note_off_c, 0, 38, 59
1, 81694, Note_on_c, 0, 55, 70
1, 81697, Note_on_c, 0, 63, 77
1, 81707, Note_on_c, 0, 38, 68
1, 81714, Note_on_c, 0, 59, 40
1, 81719, Note_off_c, 0, 55, 67
1, 81737, Note_off_c, 0, 63, 58
1, 81745, Note_off_c, 0, 59, 48
1, 81748, Note_off_c, 0, 38, 65
1, 81824, Note_on_c, 0, 38, 61
1, 81857, Note_off_c, 0, 38, 62
1, 81904, Note_on_c, 0, 38, 60
1, 81948, Note_off_c, 0, 38, 58
1, 82016, Note_on_c, 0, 60, 74
1, 82020, Note_on_c, 0, 56, 72
1, 82023, Note_on_c, 0, 38, 64
1, 82040, Note_off_c, 0, 60, 65
1, 82044, Note_off_c, 0, 56, 66
1, 82052, Note_off_c, 0, 38, 64
1, 82122, Note_on_c, 0, 38, 69
1, 82156, Note_off_c, 0, 38, 61
1, 82222, Note_on_c, 0, 38, 64
1, 82258, Note_off_c, 0, 38, 61
1, 82328, Note_on_c, 0, 56, 75
1, 82331, Note_on_c, 0, 64, 65
1, 82332, Note_on_c, 0, 59, 66
1, 82340, Note_on_c, 0, 38, 66
1, 82359, Note_off_c, 0, 59, 65
1, 82363, Note_off_c, 0, 56, 62
1, 82366, Note_off_c, 0, 64, 58
1, 82372, Note_off_c, 0, 38, 65
1, 82428, Note_on_c, 0, 56, 56
1, 82431, Note_on_c, 0, 64, 55
1, 82442, Note_on_c, 0, 38, 67
1, 82445, Note_on_c, 0, 59, 48
1, 82461, Note_off_c, 0, 56, 59
1, 82464, Note_off_c, 0, 64, 58
1, 82471, Note_off_c, 0, 59, 55
1, 82488, Note_off_c, 0, 38, 61
1, 82506, Note_on_c, 0, 64, 51
1, 82508, Note_on_c, 0, 56, 71
1, 82530, Note_on_c, 0, 59, 54
1, 82553, Note_off_c, 0, 59, 60
1, 82556, Note_on_c, 0, 38, 54
1, 82561, Note_off_c, 0, 64, 58
1, 82569, Note_off_c, 0, 56, 58
1, 82584, Note_off_c, 0, 38, 59
1, 82628, Note_on_c, 0, 60, 84
1, 82660, Note_on_c, 0, 38, 71
1, 82660, Note_on_c, 0, 57, 40
1, 82664, Note_off_c, 0, 60, 61
1, 82690, Note_off_c, 0, 57, 50
1, 82690, Note_off_c, 0, 38, 64
1, 82755, Note_on_c, 0, 38, 69
1, 82789, Note_off_c, 0, 38, 62
1, 82842, Note_on_c, 0, 38, 63
1, 82879, Note_off_c, 0, 38, 62
1, 82936, Note_on_c, 0, 65, 69
1, 82939, Note_on_c, 0, 61, 73
1, 82941, Note_on_c, 0, 57, 71
1, 82959, Note_on_c, 0, 38, 68
1, 82974, Note_off_c, 0, 57, 68
1, 82975, Note_off_c, 0, 65, 59
1, 82977, Note_off_c, 0, 61, 62
1, 82989, Note_off_c, 0, 38, 64
1, 83060, Note_on_c, 0, 38, 71
1, 83094, Note_off_c, 0, 38, 60
1, 83149, Note_on_c, 0, 38, 62
1, 83185, Note_off_c, 0, 38, 61
1, 83250, Note_on_c, 0, 58, 77
1, 83252, Note_on_c, 0, 62, 76
1, 83255, Note_on_c, 0, 38, 67
1, 83276, Note_off_c, 0, 58, 64
1, 83278, Note_off_c, 0, 62, 63
1, 83289, Note_off_c, 0, 38, 62
1, 83360, Note_on_c, 0, 38, 66
1, 83392, Note_off_c, 0, 38, 63
1, 83436, Note_on_c, 0, 38, 67
1, 83481, Note_off_c, 0, 38, 61
1, 83545, Note_on_c, 0, 57, 85
1, 83546, Note_on_c, 0, 66, 84
1, 83556, Note_on_c, 0, 39, 71
1, 83571, Note_off_c, 0, 57, 64
1, 83574, Note_on_c, 0, 60, 37
1, 83592, Note_off_c, 0, 66, 61
1, 83597, Note_off_c, 0, 39, 66
1, 83606, Note_off_c, 0, 60, 34
1, 83651, Note_on_c, 0, 39, 61
1, 83687, Note_off_c, 0, 39, 63
1, 83759, Note_on_c, 0, 39, 62
1, 83796, Note_off_c, 0, 39, 65
1, 83866, Note_on_c, 0, 38, 66
1, 83911, Note_off_c, 0, 38, 63
1, 83965, Note_on_c, 0, 38, 55
1, 84002, Note_off_c, 0, 38, 60
1, 84064, Note_on_c, 0, 38, 59
1, 84098, Note_off_c, 0, 38, 62
1, 84149, Note_on_c, 0, 60, 61
1, 84149, Note_on_c, 0, 69, 67
1, 84152, Note_on_c, 0, 66, 58
1, 84167, Note_on_c, 0, 36, 63
1, 84171, Note_off_c, 0, 60, 61
1, 84171, Note_off_c, 0, 66, 64
1, 84176, Note_off_c, 0, 69, 67
1, 84202, Note_off_c, 0, 36, 61
1, 84278, Note_on_c, 0, 36, 55
1, 84304, Note_off_c, 0, 36, 56
1, 84351, Note_on_c, 0, 36, 64
1, 84389, Note_off_c, 0, 36, 60
1, 84450, Note_on_c, 0, 38, 72
1, 84498, Note_off_c, 0, 38, 64
1, 84553, Note_on_c, 0, 38, 68
1, 84596, Note_off_c, 0, 38, 64
1, 84637, Poly_aftertouch_c, 0, 38, 0
1, 84643, Note_on_c, 0, 38, 67
1, 84742, Note_on_c, 0, 39, 75
1, 84743, Note_off_c, 0, 38, 36
1, 84748, Note_on_c, 0, 66, 82
1, 84751, Note_on_c, 0, 72, 77
1, 84767, Note_on_c, 0, 69, 51
1, 84776, Note_off_c, 0, 66, 61
1, 84790, Note_off_c, 0, 69, 59
1, 84791, Note_off_c, 0, 72, 64
1, 84803, Note_off_c, 0, 39, 62
1, 84852, Poly_aftertouch_c, 0, 39, 0
1, 84859, Note_on_c, 0, 39, 59
1, 84903, Note_off_c, 0, 39, 63
1, 84951, Note_on_c, 0, 39, 61
1, 84997, Note_off_c, 0, 39, 63
1, 85065, Note_on_c, 0, 38, 66
1, 85110, Note_off_c, 0, 38, 64
1, 85165, Note_on_c, 0, 38, 57
1, 85207, Note_off_c, 0, 38, 62
1, 85271, Note_on_c, 0, 38, 56
1, 85300, Note_off_c, 0, 38, 55
1, 85363, Note_on_c, 0, 69, 66
1, 85364, Note_on_c, 0, 78, 73
1, 85369, Note_on_c, 0, 36, 63
1, 85389, Note_off_c, 0, 69, 65
1, 85398, Note_off_c, 0, 78, 54
1, 85406, Note_off_c, 0, 36, 59
1, 85471, Note_on_c, 0, 36, 60
1, 85503, Note_off_c, 0, 36, 59
1, 85552, Note_on_c, 0, 36, 61
1, 85592, Note_off_c, 0, 36, 60
1, 85651, Note_on_c, 0, 81, 71
1, 85653, Note_on_c, 0, 72, 68
1, 85655, Note_on_c, 0, 38, 66
1, 85657, Note_on_c, 0, 78, 66
1, 85674, Note_off_c, 0, 72, 64
1, 85683, Note_off_c, 0, 78, 66
1, 85684, Note_off_c, 0, 81, 60
1, 85696, Note_off_c, 0, 38, 60
1, 85761, Note_on_c, 0, 38, 60
1, 85797, Note_off_c, 0, 38, 62
1, 85844, Note_on_c, 0, 38, 58
1, 85890, Note_off_c, 0, 38, 57
1, 85942, Note_on_c, 0, 39, 67
1, 85947, Note_on_c, 0, 78, 63
1, 85947, Note_on_c, 0, 84, 65
1, 85971, Note_off_c, 0, 78, 65
1, 85979, Note_on_c, 0, 81, 22
1, 85979, Note_off_c, 0, 84, 66
1, 85994, Note_off_c, 0, 39, 62
1, 86019, Note_off_c, 0, 81, 30
1, 86060, Note_on_c, 0, 39, 61
1, 86102, Note_off_c, 0, 39, 60
1, 86163, Note_on_c, 0, 39, 37
1, 86204, Note_off_c, 0, 39, 43
1, 86256, Note_on_c, 0, 38, 57
1, 86261, Note_on_c, 0, 81, 63
1, 86261, Note_on_c, 0, 90, 73
1, 86279, Note_off_c, 0, 81, 66
1, 86280, Note_off_c, 0, 90, 69
1, 86302, Note_off_c, 0, 38, 63
1, 86364, Note_on_c, 0, 38, 51
1, 86390, Note_off_c, 0, 38, 58
1, 86446, Note_on_c, 0, 38, 49
1, 86512, Note_off_c, 0, 38, 36
1, 86536, Note_on_c, 0, 39, 60
1, 86557, Note_on_c, 0, 93, 75
1, 86566, Note_on_c, 0, 84, 64
1, 86566, Note_on_c, 0, 90, 67
1, 86576, Note_off_c, 0, 93, 69
1, 86583, Note_off_c, 0, 84, 64
1, 86583, Note_off_c, 0, 90, 68
1, 86598, Note_off_c, 0, 39, 60
1, 86647, Note_on_c, 0, 39, 51
1, 86678, Control_c, 0, 67, 114
1, 86693, Control_c, 0, 67, 85
1, 86715, Control_c, 0, 67, 54
1, 86721, Note_off_c, 0, 39, 60
1, 86730, Control_c, 0, 67, 18
1, 86745, Control_c, 0, 67, 0
1, 86750, Note_on_c, 0, 39, 46
1, 86775, Control_c, 0, 64, 49
1, 86789, Control_c, 0, 64, 63
1, 86796, Note_off_c, 0, 39, 63
1, 86804, Control_c, 0, 64, 70
1, 86819, Control_c, 0, 64, 78
1, 86833, Control_c, 0, 64, 93
1, 86848, Control_c, 0, 64, 115
1, 86858, Note_on_c, 0, 42, 65
1, 86863, Control_c, 0, 64, 127
1, 86898, Note_off_c, 0, 42, 64
1, 86962, Note_on_c, 0, 42, 60
1, 87004, Note_off_c, 0, 42, 62
1, 87052, Note_on_c, 0, 42, 63
1, 87055, Control_c, 0, 64, 84
1, 87070, Control_c, 0, 64, 52
1, 87085, Control_c, 0, 64, 0
1, 87091, Note_off_c, 0, 42, 63
1, 87130, Control_c, 0, 64, 36
1, 87145, Control_c, 0, 64, 61
1, 87159, Control_c, 0, 64, 70
1, 87162, Note_on_c, 0, 45, 74
1, 87174, Control_c, 0, 64, 80
1, 87189, Control_c, 0, 64, 101
1, 87204, Control_c, 0, 64, 127
1, 87220, Note_off_c, 0, 45, 55
1, 87263, Note_on_c, 0, 45, 48
1, 87295, Note_on_c, 0, 47, 18
1, 87305, Note_off_c, 0, 45, 58
1, 87343, Note_off_c, 0, 47, 51
1, 87347, Note_on_c, 0, 45, 73
1, 87351, Control_c, 0, 64, 90
1, 87366, Control_c, 0, 64, 60
1, 87381, Control_c, 0, 64, 0
1, 87400, Note_off_c, 0, 45, 58
1, 87463, Note_on_c, 0, 46, 77
1, 87478, Control_c, 0, 64, 20
1, 87493, Control_c, 0, 64, 59
1, 87508, Control_c, 0, 64, 69
1, 87519, Note_off_c, 0, 46, 56
1, 87523, Control_c, 0, 64, 77
1, 87538, Control_c, 0, 64, 92
1, 87553, Control_c, 0, 64, 115
1, 87559, Note_on_c, 0, 46, 55
1, 87568, Control_c, 0, 64, 127
1, 87619, Note_off_c, 0, 46, 54
1, 87651, Note_on_c, 0, 46, 51
1, 87701, Control_c, 0, 64, 72
1, 87708, Note_off_c, 0, 46, 57
1, 87716, Control_c, 0, 64, 37
1, 87730, Control_c, 0, 64, 0
1, 87769, Note_on_c, 0, 45, 64
1, 87774, Control_c, 0, 64, 26
1, 87789, Control_c, 0, 64, 56
1, 87803, Note_off_c, 0, 45, 59
1, 87804, Control_c, 0, 64, 67
1, 87819, Control_c, 0, 64, 73
1, 87834, Control_c, 0, 64, 82
1, 87848, Control_c, 0, 64, 92
1, 87863, Control_c, 0, 64, 103
1, 87871, Note_on_c, 0, 45, 62
1, 87878, Control_c, 0, 64, 113
1, 87893, Control_c, 0, 64, 127
1, 87897, Note_off_c, 0, 45, 60
1, 87957, Note_on_c, 0, 45, 74
1, 87982, Control_c, 0, 64, 100
1, 87997, Control_c, 0, 64, 68
1, 88012, Control_c, 0, 64, 39
1, 88017, Note_off_c, 0, 45, 49
1, 88027, Control_c, 0, 64, 0
1, 88067, Note_on_c, 0, 42, 65
1, 88086, Control_c, 0, 64, 51
1, 88101, Control_c, 0, 64, 67
1, 88116, Control_c, 0, 64, 74
1, 88119, Note_off_c, 0, 42, 60
1, 88130, Control_c, 0, 64, 85
1, 88145, Control_c, 0, 64, 98
1, 88160, Control_c, 0, 64, 116
1, 88164, Note_on_c, 0, 42, 50
1, 88174, Control_c, 0, 64, 127
1, 88207, Note_off_c, 0, 42, 62
1, 88256, Note_on_c, 0, 42, 69
1, 88286, Control_c, 0, 64, 82
1, 88296, Note_off_c, 0, 42, 60
1, 88301, Control_c, 0, 64, 59
1, 88316, Control_c, 0, 64, 0
1, 88381, Note_on_c, 0, 39, 60
1, 88391, Control_c, 0, 64, 47
1, 88405, Control_c, 0, 64, 64
1, 88420, Control_c, 0, 64, 70
1, 88425, Note_off_c, 0, 39, 65
1, 88435, Control_c, 0, 64, 76
1, 88450, Control_c, 0, 64, 85
1, 88465, Control_c, 0, 64, 95
1, 88472, Note_on_c, 0, 39, 58
1, 88479, Control_c, 0, 64, 106
1, 88494, Control_c, 0, 64, 118
1, 88509, Control_c, 0, 64, 127
1, 88513, Note_off_c, 0, 39, 63
1, 88575, Note_on_c, 0, 39, 59
1, 88583, Control_c, 0, 64, 97
1, 88597, Control_c, 0, 64, 72
1, 88612, Control_c, 0, 64, 41
1, 88618, Note_off_c, 0, 39, 60
1, 88627, Control_c, 0, 64, 0
1, 88686, Control_c, 0, 64, 27
1, 88696, Note_on_c, 0, 39, 55
1, 88701, Control_c, 0, 64, 56
1, 88716, Control_c, 0, 64, 67
1, 88730, Control_c, 0, 64, 73
1, 88737, Note_off_c, 0, 39, 62
1, 88745, Control_c, 0, 64, 81
1, 88760, Control_c, 0, 64, 90
1, 88775, Control_c, 0, 64, 100
1, 88782, Note_on_c, 0, 39, 55
1, 88790, Control_c, 0, 64, 110
1, 88805, Control_c, 0, 64, 127
1, 88823, Note_off_c, 0, 39, 61
1, 88865, Note_on_c, 0, 39, 55
1, 88915, Note_off_c, 0, 39, 57
1, 88923, Control_c, 0, 64, 77
1, 88938, Control_c, 0, 64, 53
1, 88960, Control_c, 0, 64, 0
1, 88984, Note_on_c, 0, 38, 63
1, 89020, Control_c, 0, 64, 30
1, 89034, Note_off_c, 0, 38, 57
1, 89034, Control_c, 0, 64, 55
1, 89046, Note_on_c, 0, 90, 69
1, 89049, Control_c, 0, 64, 64
1, 89064, Control_c, 0, 64, 68
1, 89080, Control_c, 0, 64, 72
1, 89095, Control_c, 0, 64, 78
1, 89097, Note_on_c, 0, 92, 77
1, 89098, Note_off_c, 0, 90, 64
1, 89098, Poly_aftertouch_c, 0, 38, 127
1, 89109, Control_c, 0, 64, 86
1, 89116, Poly_aftertouch_c, 0, 38, 0
1, 89124, Control_c, 0, 64, 97
1, 89139, Note_off_c, 0, 92, 48
1, 89139, Control_c, 0, 64, 105
1, 89149, Note_on_c, 0, 38, 43
1, 89154, Control_c, 0, 64, 113
1, 89161, Note_on_c, 0, 93, 81
1, 89169, Control_c, 0, 64, 127
1, 89213, Note_off_c, 0, 38, 57
1, 89226, Note_on_c, 0, 95, 82
1, 89234, Note_off_c, 0, 93, 60
1, 89268, Note_off_c, 0, 95, 63
1, 89288, Control_c, 0, 64, 113
1, 89297, Note_on_c, 0, 93, 86
1, 89302, Control_c, 0, 64, 80
1, 89303, Note_on_c, 0, 97, 84
1, 89308, Note_on_c, 0, 37, 76
1, 89317, Control_c, 0, 64, 59
1, 89329, Note_off_c, 0, 97, 62
1, 89332, Control_c, 0, 64, 0
1, 89337, Note_off_c, 0, 93, 64
1, 89353, Note_off_c, 0, 37, 58
1, 89426, Note_on_c, 0, 37, 57
1, 89428, Note_on_c, 0, 90, 78
1, 89449, Note_off_c, 0, 90, 66
1, 89464, Note_off_c, 0, 37, 64
1, 89513, Note_on_c, 0, 37, 52
1, 89521, Note_on_c, 0, 85, 70
1, 89543, Note_off_c, 0, 37, 60
1, 89544, Note_off_c, 0, 85, 68
1, 89619, Note_on_c, 0, 86, 77
1, 89621, Note_on_c, 0, 37, 69
1, 89623, Note_on_c, 0, 90, 78
1, 89638, Note_off_c, 0, 86, 68
1, 89643, Note_off_c, 0, 90, 67
1, 89663, Note_off_c, 0, 37, 62
1, 89731, Note_on_c, 0, 81, 73
1, 89742, Note_on_c, 0, 37, 43
1, 89768, Note_off_c, 0, 81, 62
1, 89770, Note_off_c, 0, 37, 54
1, 89828, Note_on_c, 0, 83, 80
1, 89830, Note_on_c, 0, 37, 39
1, 89849, Note_off_c, 0, 83, 69
1, 89869, Note_off_c, 0, 37, 43
1, 89934, Note_on_c, 0, 81, 74
1, 89938, Note_on_c, 0, 85, 71
1, 89946, Note_on_c, 0, 37, 61
1, 89956, Note_off_c, 0, 81, 67
1, 89966, Note_off_c, 0, 85, 63
1, 89979, Note_off_c, 0, 37, 62
1, 90045, Note_on_c, 0, 78, 76
1, 90068, Note_on_c, 0, 37, 30
1, 90081, Note_off_c, 0, 78, 57
1, 90096, Note_off_c, 0, 37, 0
1, 90124, Note_on_c, 0, 37, 26
1, 90161, Note_on_c, 0, 73, 54
1, 90173, Note_off_c, 0, 37, 55
1, 90182, Note_off_c, 0, 73, 61
1, 90254, Note_on_c, 0, 69, 80
1, 90268, Note_on_c, 0, 37, 62
1, 90278, Note_off_c, 0, 69, 64
1, 90300, Note_off_c, 0, 37, 63
1, 90347, Note_on_c, 0, 73, 87
1, 90370, Note_on_c, 0, 37, 57
1, 90387, Note_off_c, 0, 73, 63
1, 90398, Note_off_c, 0, 37, 59
1, 90447, Note_on_c, 0, 78, 88
1, 90451, Note_on_c, 0, 69, 84
1, 90457, Note_on_c, 0, 37, 63
1, 90477, Note_off_c, 0, 69, 63
1, 90494, Note_off_c, 0, 37, 59
1, 90498, Note_off_c, 0, 78, 61
1, 90559, Note_on_c, 0, 80, 84
1, 90560, Note_on_c, 0, 73, 87
1, 90575, Note_on_c, 0, 37, 68
1, 90587, Note_off_c, 0, 80, 62
1, 90589, Note_off_c, 0, 73, 64
1, 90611, Note_off_c, 0, 37, 61
1, 90680, Note_on_c, 0, 37, 53
1, 90707, Note_off_c, 0, 37, 58
1, 90767, Note_on_c, 0, 37, 49
1, 90767, Note_on_c, 0, 68, 74
1, 90772, Note_on_c, 0, 65, 64
1, 90793, Note_off_c, 0, 68, 61
1, 90796, Note_off_c, 0, 37, 55
1, 90797, Note_off_c, 0, 65, 65
1, 90866, Note_on_c, 0, 69, 71
1, 90869, Note_on_c, 0, 66, 70
1, 90872, Note_on_c, 0, 37, 65
1, 90886, Note_off_c, 0, 66, 67
1, 90890, Note_off_c, 0, 69, 68
1, 90906, Note_off_c, 0, 37, 61
1, 90994, Note_on_c, 0, 37, 43
1, 91055, Note_off_c, 0, 37, 0
1, 91067, Note_on_c, 0, 37, 40
1, 91072, Note_on_c, 0, 73, 68
1, 91075, Note_on_c, 0, 81, 67
1, 91096, Note_off_c, 0, 81, 65
1, 91097, Note_off_c, 0, 37, 57
1, 91097, Note_off_c, 0, 73, 68
1, 91180, Note_on_c, 0, 37, 63
1, 91182, Note_on_c, 0, 78, 72
1, 91192, Note_on_c, 0, 75, 70
1, 91216, Note_off_c, 0, 75, 67
1, 91216, Note_off_c, 0, 78, 64
1, 91228, Note_off_c, 0, 37, 64
1, 91292, Note_on_c, 0, 37, 46
1, 91329, Note_off_c, 0, 37, 57
1, 91384, Note_on_c, 0, 37, 42
1, 91393, Note_on_c, 0, 63, 54
1, 91395, Note_on_c, 0, 66, 57
1, 91415, Note_off_c, 0, 37, 56
1, 91416, Note_off_c, 0, 63, 60
1, 91426, Note_off_c, 0, 66, 64
1, 91490, Note_on_c, 0, 68, 74
1, 91496, Note_on_c, 0, 65, 55
1, 91504, Note_on_c, 0, 37, 62
1, 91511, Note_off_c, 0, 68, 67
1, 91518, Note_off_c, 0, 65, 61
1, 91537, Note_off_c, 0, 37, 63
1, 91599, Note_on_c, 0, 37, 59
1, 91670, Note_off_c, 0, 37, 0
1, 91686, Note_on_c, 0, 37, 37
1, 91703, Note_on_c, 0, 73, 57
1, 91731, Note_off_c, 0, 37, 58
1, 91744, Note_on_c, 0, 77, 74
1, 91766, Note_off_c, 0, 73, 59
1, 91769, Note_on_c, 0, 81, 76
1, 91769, Control_c, 0, 64, 25
1, 91784, Control_c, 0, 64, 56
1, 91799, Control_c, 0, 64, 67
1, 91809, Note_on_c, 0, 85, 81
1, 91813, Note_off_c, 0, 77, 59
1, 91813, Control_c, 0, 64, 75
1, 91816, Note_on_c, 0, 37, 62
1, 91828, Control_c, 0, 64, 89
1, 91833, Note_off_c, 0, 81, 63
1, 91843, Control_c, 0, 64, 111
1, 91851, Note_off_c, 0, 37, 62
1, 91855, Note_off_c, 0, 85, 64
1, 91858, Control_c, 0, 64, 127
1, 91925, Note_on_c, 0, 37, 71
1, 91925, Note_on_c, 0, 77, 77
1, 91932, Control_c, 0, 64, 99
1, 91935, Note_on_c, 0, 78, 36
1, 91954, Control_c, 0, 64, 70
1, 91956, Note_off_c, 0, 77, 64
1, 91969, Control_c, 0, 64, 48
1, 91971, Note_off_c, 0, 37, 62
1, 91971, Note_off_c, 0, 78, 48
1, 91984, Control_c, 0, 64, 0
1, 92018, Note_on_c, 0, 73, 82
1, 92040, Note_on_c, 0, 37, 51
1, 92057, Note_off_c, 0, 73, 63
1, 92069, Note_off_c, 0, 37, 58
1, 92129, Note_on_c, 0, 74, 73
1, 92132, Note_on_c, 0, 78, 69
1, 92150, Note_on_c, 0, 37, 62
1, 92153, Note_off_c, 0, 74, 66
1, 92160, Note_off_c, 0, 78, 63
1, 92185, Note_off_c, 0, 37, 63
1, 92235, Note_on_c, 0, 69, 76
1, 92249, Note_on_c, 0, 37, 57
1, 92269, Note_off_c, 0, 69, 60
1, 92275, Note_off_c, 0, 37, 59
1, 92331, Note_on_c, 0, 71, 82
1, 92341, Note_on_c, 0, 37, 59
1, 92350, Note_off_c, 0, 71, 70
1, 92375, Note_off_c, 0, 37, 62
1, 92440, Note_on_c, 0, 69, 69
1, 92451, Note_on_c, 0, 37, 68
1, 92466, Note_off_c, 0, 69, 67
1, 92482, Note_on_c, 0, 74, 13
1, 92489, Note_off_c, 0, 37, 64
1, 92527, Note_off_c, 0, 74, 30
1, 92544, Note_on_c, 0, 66, 76
1, 92561, Note_on_c, 0, 37, 54
1, 92576, Note_off_c, 0, 66, 57
1, 92590, Note_off_c, 0, 37, 59
1, 92643, Note_on_c, 0, 37, 55
1, 92643, Note_on_c, 0, 61, 70
1, 92667, Note_off_c, 0, 61, 67
1, 92684, Note_off_c, 0, 37, 60
1, 92758, Note_on_c, 0, 57, 81
1, 92770, Note_on_c, 0, 37, 62
1, 92782, Note_off_c, 0, 57, 65
1, 92808, Note_off_c, 0, 37, 60
1, 92847, Note_on_c, 0, 61, 86
1, 92870, Note_on_c, 0, 37, 62
1, 92895, Note_off_c, 0, 61, 62
1, 92905, Note_off_c, 0, 37, 63
1, 92943, Note_on_c, 0, 66, 82
1, 92954, Note_on_c, 0, 57, 71
1, 92966, Note_on_c, 0, 37, 60
1, 92981, Note_off_c, 0, 57, 66
1, 92996, Note_off_c, 0, 37, 60
1, 92996, Note_off_c, 0, 66, 62
1, 93053, Note_on_c, 0, 68, 82
1, 93061, Note_on_c, 0, 61, 78
1, 93077, Note_on_c, 0, 37, 69
1, 93090, Note_off_c, 0, 68, 61
1, 93091, Note_off_c, 0, 61, 59
1, 93109, Note_off_c, 0, 37, 63
1, 93183, Note_on_c, 0, 37, 56
1, 93214, Note_off_c, 0, 37, 58
1, 93270, Note_on_c, 0, 37, 46
1, 93278, Note_on_c, 0, 56, 69
1, 93287, Note_on_c, 0, 53, 54
1, 93302, Note_off_c, 0, 37, 59
1, 93307, Note_off_c, 0, 56, 65
1, 93313, Note_off_c, 0, 53, 57
1, 93374, Note_on_c, 0, 57, 67
1, 93381, Note_on_c, 0, 54, 66
1, 93390, Note_on_c, 0, 37, 60
1, 93401, Note_off_c, 0, 54, 63
1, 93401, Note_off_c, 0, 57, 66
1, 93423, Note_off_c, 0, 37, 63
1, 93502, Note_on_c, 0, 37, 49
1, 93530, Note_off_c, 0, 37, 57
1, 93584, Note_on_c, 0, 37, 55
1, 93589, Note_on_c, 0, 61, 61
1, 93602, Note_on_c, 0, 69, 50
1, 93613, Note_off_c, 0, 61, 63
1, 93619, Note_off_c, 0, 37, 62
1, 93624, Note_off_c, 0, 69, 59
1, 93702, Note_on_c, 0, 37, 66
1, 93702, Note_on_c, 0, 63, 68
1, 93704, Note_on_c, 0, 66, 63
1, 93725, Note_off_c, 0, 66, 63
1, 93729, Note_off_c, 0, 63, 65
1, 93748, Note_off_c, 0, 37, 59
1, 93803, Note_on_c, 0, 37, 53
1, 93852, Note_off_c, 0, 37, 60
1, 93899, Note_on_c, 0, 37, 52
1, 93917, Note_on_c, 0, 54, 58
1, 93920, Note_on_c, 0, 51, 48
1, 93941, Note_off_c, 0, 37, 60
1, 93944, Note_off_c, 0, 54, 58
1, 93947, Note_off_c, 0, 51, 57
1, 94022, Note_on_c, 0, 56, 71
1, 94026, Note_on_c, 0, 37, 61
1, 94036, Note_on_c, 0, 53, 48
1, 94048, Note_off_c, 0, 56, 67
1, 94061, Note_off_c, 0, 37, 61
1, 94065, Note_off_c, 0, 53, 56
1, 94129, Note_on_c, 0, 37, 64
1, 94176, Note_off_c, 0, 37, 56
1, 94228, Note_on_c, 0, 61, 74
1, 94236, Poly_aftertouch_c, 0, 37, 127
1, 94252, Poly_aftertouch_c, 0, 37, 0
1, 94265, Note_off_c, 0, 61, 62
1, 94367, Note_on_c, 0, 37, 76
1, 94368, Note_on_c, 0, 65, 76
1, 94372, Note_on_c, 0, 69, 72
1, 94396, Note_off_c, 0, 65, 62
1, 94397, Note_off_c, 0, 69, 65
1, 94400, Note_off_c, 0, 37, 66
1, 94494, Note_on_c, 0, 61, 62
1, 94513, Note_on_c, 0, 53, 70
1, 94524, Note_off_c, 0, 61, 62
1, 94569, Note_off_c, 0, 53, 58
1, 94600, Note_on_c, 0, 49, 70
1, 94606, Note_on_c, 0, 57, 62
1, 94629, Note_off_c, 0, 49, 66
1, 94639, Note_on_c, 0, 61, 41
1, 94642, Note_off_c, 0, 57, 61
1, 94671, Note_off_c, 0, 61, 54
1, 94687, Note_on_c, 0, 65, 75
1, 94714, Note_off_c, 0, 65, 63
1, 94724, Note_on_c, 0, 37, 63
1, 94758, Note_off_c, 0, 37, 62
1, 94797, Note_on_c, 0, 69, 82
1, 94835, Note_off_c, 0, 69, 63
1, 94840, Note_on_c, 0, 53, 52
1, 94848, Note_on_c, 0, 52, 57
1, 94875, Note_off_c, 0, 53, 56
1, 94878, Note_off_c, 0, 52, 58
1, 94897, Note_on_c, 0, 81, 90
1, 94946, Note_on_c, 0, 48, 7
1, 94947, Note_off_c, 0, 81, 62
1, 94999, Note_off_c, 0, 48, 36
1, 95016, Note_on_c, 0, 78, 88
1, 95018, Note_on_c, 0, 74, 83
1, 95024, Note_on_c, 0, 37, 76
1, 95025, Control_c, 0, 64, 62
1, 95039, Control_c, 0, 64, 78
1, 95054, Control_c, 0, 64, 97
1, 95056, Note_off_c, 0, 37, 63
1, 95056, Note_off_c, 0, 74, 58
1, 95060, Note_off_c, 0, 78, 61
1, 95069, Control_c, 0, 64, 127
1, 95130, Note_on_c, 0, 69, 67
1, 95133, Note_on_c, 0, 54, 76
1, 95147, Note_off_c, 0, 69, 67
1, 95198, Note_off_c, 0, 54, 60
1, 95223, Note_on_c, 0, 50, 63
1, 95251, Note_off_c, 0, 50, 65
1, 95262, Note_on_c, 0, 62, 81
1, 95306, Control_c, 0, 64, 110
1, 95321, Control_c, 0, 64, 75
1, 95336, Control_c, 0, 64, 48
1, 95343, Note_on_c, 0, 37, 66
1, 95351, Control_c, 0, 64, 0
1, 95366, Note_on_c, 0, 66, 59
1, 95369, Note_off_c, 0, 37, 66
1, 95381, Note_on_c, 0, 39, 35
1, 95404, Note_off_c, 0, 66, 59
1, 95414, Note_off_c, 0, 39, 47
1, 95424, Note_on_c, 0, 55, 35
1, 95433, Note_off_c, 0, 62, 53
1, 95447, Note_on_c, 0, 54, 75
1, 95460, Note_off_c, 0, 55, 47
1, 95485, Note_off_c, 0, 54, 60
1, 95491, Note_on_c, 0, 66, 80
1, 95516, Note_on_c, 0, 50, 50
1, 95533, Note_off_c, 0, 66, 62
1, 95548, Note_off_c, 0, 50, 64
1, 95599, Note_on_c, 0, 58, 82
1, 95604, Note_on_c, 0, 70, 80
1, 95635, Note_on_c, 0, 37, 74
1, 95638, Note_off_c, 0, 58, 59
1, 95653, Note_off_c, 0, 70, 58
1, 95666, Note_off_c, 0, 37, 61
1, 95708, Note_on_c, 0, 71, 87
1, 95718, Note_on_c, 0, 66, 77
1, 95742, Note_off_c, 0, 66, 64
1, 95750, Note_on_c, 0, 54, 87
1, 95757, Note_off_c, 0, 71, 60
1, 95800, Note_on_c, 0, 53, 11
1, 95801, Note_off_c, 0, 53, 127
1, 95807, Note_off_c, 0, 54, 60
1, 95823, Note_on_c, 0, 63, 84
1, 95880, Note_off_c, 0, 63, 61
1, 95933, Note_on_c, 0, 59, 77
1, 95995, Note_on_c, 0, 37, 76
1, 96004, Note_on_c, 0, 63, 79
1, 96022, Note_off_c, 0, 59, 60
1, 96024, Note_on_c, 0, 67, 73
1, 96025, Control_c, 0, 64, 36
1, 96028, Note_off_c, 0, 37, 63
1, 96040, Control_c, 0, 64, 60
1, 96049, Note_on_c, 0, 39, 21
1, 96055, Control_c, 0, 64, 67
1, 96057, Note_off_c, 0, 63, 61
1, 96066, Note_off_c, 0, 67, 61
1, 96069, Control_c, 0, 64, 77
1, 96084, Control_c, 0, 64, 90
1, 96096, Note_off_c, 0, 39, 38
1, 96099, Control_c, 0, 64, 110
1, 96111, Note_on_c, 0, 55, 81
1, 96114, Control_c, 0, 64, 127
1, 96135, Note_on_c, 0, 69, 82
1, 96159, Note_off_c, 0, 69, 64
1, 96172, Note_off_c, 0, 55, 59
1, 96174, Control_c, 0, 64, 91
1, 96188, Control_c, 0, 64, 67
1, 96203, Control_c, 0, 64, 27
1, 96218, Control_c, 0, 64, 0
1, 96222, Note_on_c, 0, 83, 93
1, 96230, Note_on_c, 0, 51, 54
1, 96263, Note_off_c, 0, 51, 63
1, 96275, Note_off_c, 0, 83, 63
1, 96329, Note_on_c, 0, 76, 84
1, 96329, Note_on_c, 0, 80, 89
1, 96337, Control_c, 0, 64, 27
1, 96347, Note_on_c, 0, 37, 79
1, 96352, Control_c, 0, 64, 64
1, 96367, Control_c, 0, 64, 77
1, 96376, Note_off_c, 0, 76, 62
1, 96376, Note_off_c, 0, 37, 62
1, 96377, Note_off_c, 0, 80, 62
1, 96382, Control_c, 0, 64, 90
1, 96397, Control_c, 0, 64, 109
1, 96411, Control_c, 0, 64, 127
1, 96441, Note_on_c, 0, 71, 62
1, 96459, Note_off_c, 0, 71, 63
1, 96471, Note_on_c, 0, 56, 81
1, 96531, Note_off_c, 0, 56, 60
1, 96558, Note_on_c, 0, 52, 70
1, 96564, Note_on_c, 0, 64, 67
1, 96582, Control_c, 0, 64, 105
1, 96585, Note_off_c, 0, 52, 64
1, 96597, Control_c, 0, 64, 68
1, 96600, Note_on_c, 0, 65, 34
1, 96601, Note_off_c, 0, 65, 127
1, 96611, Control_c, 0, 64, 0
1, 96619, Note_off_c, 0, 64, 59
1, 96661, Poly_aftertouch_c, 0, 64, 0
1, 96663, Note_on_c, 0, 68, 70
1, 96666, Note_on_c, 0, 64, 52
1, 96671, Note_on_c, 0, 37, 73
1, 96696, Note_off_c, 0, 64, 65
1, 96700, Control_c, 0, 64, 23
1, 96704, Note_off_c, 0, 37, 63
1, 96715, Control_c, 0, 64, 39
1, 96719, Note_off_c, 0, 68, 57
1, 96730, Control_c, 0, 64, 40
1, 96744, Control_c, 0, 64, 37
1, 96759, Control_c, 0, 64, 35
1, 96780, Note_on_c, 0, 56, 81
1, 96789, Control_c, 0, 64, 36
1, 96793, Note_on_c, 0, 68, 33
1, 96804, Control_c, 0, 64, 32
1, 96818, Control_c, 0, 64, 0
1, 96819, Note_off_c, 0, 68, 44
1, 96833, Note_off_c, 0, 56, 58
1, 96872, Note_on_c, 0, 52, 74
1, 96874, Note_on_c, 0, 60, 83
1, 96874, Note_on_c, 0, 72, 84
1, 96901, Note_off_c, 0, 52, 64
1, 96905, Note_on_c, 0, 62, 48
1, 96906, Note_off_c, 0, 62, 127
1, 96912, Note_off_c, 0, 60, 61
1, 96913, Note_off_c, 0, 72, 64
1, 96937, Control_c, 0, 64, 50
1, 96952, Control_c, 0, 64, 74
1, 96967, Control_c, 0, 64, 96
1, 96982, Control_c, 0, 64, 127
1, 96993, Note_on_c, 0, 61, 83
1, 96993, Note_on_c, 0, 73, 87
1, 97003, Note_on_c, 0, 37, 71
1, 97038, Note_off_c, 0, 37, 62
1, 97041, Note_on_c, 0, 39, 42
1, 97041, Note_off_c, 0, 61, 62
1, 97049, Note_on_c, 0, 74, 17
1, 97066, Poly_aftertouch_c, 0, 66, 0
1, 97071, Note_off_c, 0, 73, 61
1, 97077, Note_off_c, 0, 39, 53
1, 97091, Note_off_c, 0, 74, 50
1, 97103, Poly_aftertouch_c, 0, 66, 127
1, 97124, Note_on_c, 0, 57, 74
1, 97196, Note_on_c, 0, 53, 72
1, 97198, Note_off_c, 0, 57, 60
1, 97207, Poly_aftertouch_c, 0, 66, 0
1, 97235, Note_off_c, 0, 53, 58
1, 97271, Control_c, 0, 64, 100
1, 97286, Control_c, 0, 64, 60
1, 97301, Control_c, 0, 64, 0
1, 97318, Note_on_c, 0, 70, 86
1, 97319, Note_on_c, 0, 62, 91
1, 97323, Note_on_c, 0, 74, 81
1, 97326, Note_on_c, 0, 54, 88
1, 97330, Control_c, 0, 64, 24
1, 97345, Control_c, 0, 64, 54
1, 97360, Control_c, 0, 64, 66
1, 97360, Note_off_c, 0, 62, 56
1, 97375, Control_c, 0, 64, 73
1, 97383, Note_off_c, 0, 70, 58
1, 97387, Note_off_c, 0, 74, 49
1, 97390, Control_c, 0, 64, 88
1, 97405, Control_c, 0, 64, 106
1, 97406, Note_off_c, 0, 54, 57
1, 97419, Control_c, 0, 64, 127
1, 97425, Note_on_c, 0, 58, 78
1, 97426, Note_on_c, 0, 66, 73
1, 97482, Note_on_c, 0, 62, 70
1, 97502, Note_off_c, 0, 58, 59
1, 97506, Note_on_c, 0, 54, 73
1, 97513, Note_off_c, 0, 66, 56
1, 97530, Note_off_c, 0, 54, 68
1, 97530, Note_off_c, 0, 62, 60
1, 97538, Control_c, 0, 64, 116
1, 97553, Control_c, 0, 64, 73
1, 97567, Control_c, 0, 64, 19
1, 97582, Control_c, 0, 64, 0
1, 97613, Note_on_c, 0, 75, 80
1, 97616, Note_on_c, 0, 63, 95
1, 97625, Note_on_c, 0, 37, 74
1, 97625, Note_on_c, 0, 71, 75
1, 97626, Control_c, 0, 64, 54
1, 97638, Note_on_c, 0, 39, 67
1, 97639, Note_on_c, 0, 73, 58
1, 97641, Control_c, 0, 64, 70
1, 97654, Note_on_c, 0, 68, 29
1, 97656, Note_off_c, 0, 37, 62
1, 97656, Control_c, 0, 64, 84
1, 97671, Control_c, 0, 64, 116
1, 97674, Note_off_c, 0, 39, 64
1, 97678, Note_off_c, 0, 73, 52
1, 97685, Note_off_c, 0, 68, 52
1, 97685, Control_c, 0, 64, 127
1, 97696, Note_off_c, 0, 75, 57
1, 97705, Note_off_c, 0, 63, 59
1, 97750, Note_on_c, 0, 59, 80
1, 97760, Note_on_c, 0, 67, 40
1, 97815, Note_off_c, 0, 59, 59
1, 97818, Note_on_c, 0, 63, 78
1, 97824, Note_on_c, 0, 55, 67
1, 97852, Note_off_c, 0, 55, 64
1, 97859, Note_off_c, 0, 67, 48
1, 97861, Note_off_c, 0, 63, 61
1, 97863, Note_off_c, 0, 71, 44
1, 97879, Control_c, 0, 64, 82
1, 97894, Control_c, 0, 64, 50
1, 97909, Control_c, 0, 64, 0
1, 97936, Note_on_c, 0, 56, 91
1, 97937, Note_on_c, 0, 72, 86
1, 97938, Note_on_c, 0, 64, 89
1, 97944, Note_on_c, 0, 76, 82
1, 97961, Control_c, 0, 64, 44
1, 97976, Control_c, 0, 64, 63
1, 97990, Control_c, 0, 64, 72
1, 98000, Note_off_c, 0, 64, 57
1, 98005, Control_c, 0, 64, 86
1, 98020, Control_c, 0, 64, 107
1, 98028, Note_off_c, 0, 56, 59
1, 98034, Control_c, 0, 64, 127
1, 98039, Note_on_c, 0, 68, 60
1, 98040, Note_off_c, 0, 72, 55
1, 98040, Note_off_c, 0, 76, 51
1, 98045, Note_on_c, 0, 60, 71
1, 98123, Note_on_c, 0, 64, 77
1, 98130, Note_on_c, 0, 56, 73
1, 98137, Note_off_c, 0, 60, 56
1, 98164, Note_off_c, 0, 68, 55
1, 98168, Control_c, 0, 64, 88
1, 98169, Note_off_c, 0, 56, 49
1, 98171, Note_off_c, 0, 64, 56
1, 98183, Control_c, 0, 64, 60
1, 98198, Control_c, 0, 64, 0
1, 98234, Note_on_c, 0, 65, 93
1, 98234, Note_on_c, 0, 57, 84
1, 98236, Note_on_c, 0, 73, 88
1, 98238, Note_on_c, 0, 77, 83
1, 98257, Control_c, 0, 64, 44
1, 98272, Note_on_c, 0, 75, 44
1, 98272, Control_c, 0, 64, 64
1, 98287, Control_c, 0, 64, 73
1, 98302, Note_off_c, 0, 75, 53
1, 98302, Control_c, 0, 64, 86
1, 98315, Note_off_c, 0, 77, 60
1, 98317, Control_c, 0, 64, 117
1, 98326, Note_off_c, 0, 57, 61
1, 98326, Note_off_c, 0, 65, 63
1, 98329, Note_off_c, 0, 73, 62
1, 98332, Note_on_c, 0, 69, 73
1, 98332, Control_c, 0, 64, 127
1, 98344, Note_on_c, 0, 61, 75
1, 98391, Control_c, 0, 64, 103
1, 98392, Note_off_c, 0, 69, 56
1, 98406, Control_c, 0, 64, 68
1, 98421, Control_c, 0, 64, 33
1, 98435, Control_c, 0, 64, 0
1, 98437, Note_off_c, 0, 61, 52
1, 98451, Note_on_c, 0, 74, 49
1, 98454, Note_on_c, 0, 58, 71
1, 98459, Note_on_c, 0, 66, 68
1, 98460, Note_on_c, 0, 78, 69
1, 98465, Control_c, 0, 64, 21
1, 98480, Control_c, 0, 64, 54
1, 98495, Control_c, 0, 64, 67
1, 98509, Control_c, 0, 64, 77
1, 98524, Control_c, 0, 64, 92
1, 98537, Note_off_c, 0, 74, 56
1, 98538, Note_off_c, 0, 66, 59
1, 98539, Control_c, 0, 64, 112
1, 98541, Note_on_c, 0, 70, 68
1, 98547, Note_off_c, 0, 78, 56
1, 98554, Control_c, 0, 64, 127
1, 98555, Note_off_c, 0, 58, 45
1, 98571, Note_on_c, 0, 62, 68
1, 98615, Note_off_c, 0, 70, 58
1, 98627, Control_c, 0, 64, 118
1, 98642, Control_c, 0, 64, 80
1, 98658, Control_c, 0, 64, 58
1, 98660, Note_on_c, 0, 67, 77
1, 98663, Note_on_c, 0, 59, 69
1, 98663, Note_on_c, 0, 75, 75
1, 98663, Note_off_c, 0, 62, 54
1, 98665, Note_on_c, 0, 79, 70
1, 98673, Control_c, 0, 64, 34
1, 98696, Control_c, 0, 64, 36
1, 98710, Control_c, 0, 64, 49
1, 98725, Control_c, 0, 64, 65
1, 98740, Control_c, 0, 64, 74
1, 98746, Note_off_c, 0, 79, 60
1, 98755, Note_off_c, 0, 67, 62
1, 98755, Control_c, 0, 64, 85
1, 98758, Note_on_c, 0, 71, 72
1, 98759, Note_on_c, 0, 63, 80
1, 98761, Note_off_c, 0, 75, 62
1, 98770, Control_c, 0, 64, 103
1, 98772, Note_off_c, 0, 59, 58
1, 98785, Control_c, 0, 64, 127
1, 98819, Note_off_c, 0, 71, 59
1, 98829, Control_c, 0, 64, 111
1, 98844, Control_c, 0, 64, 79
1, 98853, Note_off_c, 0, 63, 60
1, 98858, Control_c, 0, 64, 59
1, 98864, Note_on_c, 0, 76, 82
1, 98865, Note_on_c, 0, 60, 79
1, 98866, Note_on_c, 0, 68, 88
1, 98873, Control_c, 0, 64, 50
1, 98874, Note_on_c, 0, 80, 78
1, 98888, Control_c, 0, 64, 54
1, 98903, Control_c, 0, 64, 64
1, 98918, Control_c, 0, 64, 76
1, 98932, Control_c, 0, 64, 93
1, 98947, Control_c, 0, 64, 127
1, 98961, Note_on_c, 0, 72, 78
1, 98963, Note_on_c, 0, 64, 79
1, 98964, Note_off_c, 0, 60, 55
1, 98977, Note_off_c, 0, 80, 57
1, 98980, Note_off_c, 0, 68, 59
1, 98986, Note_off_c, 0, 76, 59
1, 99006, Control_c, 0, 64, 76
1, 99006, Note_off_c, 0, 72, 62
1, 99021, Control_c, 0, 64, 42
1, 99035, Control_c, 0, 64, 0
1, 99053, Note_on_c, 0, 61, 80
1, 99062, Note_off_c, 0, 64, 60
1, 99064, Note_on_c, 0, 77, 84
1, 99065, Control_c, 0, 64, 39
1, 99070, Note_on_c, 0, 69, 84
1, 99071, Note_on_c, 0, 81, 82
1, 99080, Control_c, 0, 64, 60
1, 99095, Control_c, 0, 64, 69
1, 99110, Control_c, 0, 64, 77
1, 99125, Control_c, 0, 64, 96
1, 99131, Note_on_c, 0, 73, 83
1, 99139, Control_c, 0, 64, 127
1, 99141, Note_off_c, 0, 61, 56
1, 99145, Note_off_c, 0, 69, 63
1, 99146, Note_off_c, 0, 81, 60
1, 99155, Note_on_c, 0, 65, 81
1, 99158, Note_off_c, 0, 77, 59
1, 99169, Control_c, 0, 64, 124
1, 99183, Control_c, 0, 64, 84
1, 99189, Note_off_c, 0, 73, 62
1, 99194, Note_off_c, 0, 65, 63
1, 99198, Control_c, 0, 64, 59
1, 99228, Control_c, 0, 64, 0
1, 99243, Control_c, 0, 64, 43
1, 99256, Note_on_c, 0, 70, 89
1, 99257, Control_c, 0, 64, 60
1, 99261, Note_on_c, 0, 62, 79
1, 99261, Note_on_c, 0, 78, 78
1, 99263, Note_on_c, 0, 82, 78
1, 99271, Note_on_c, 0, 66, 82
1, 99272, Control_c, 0, 64, 68
1, 99287, Control_c, 0, 64, 74
1, 99302, Control_c, 0, 64, 82
1, 99304, Note_off_c, 0, 82, 62
1, 99309, Note_off_c, 0, 70, 61
1, 99313, Note_off_c, 0, 78, 60
1, 99317, Control_c, 0, 64, 88
1, 99331, Control_c, 0, 64, 91
1, 99356, Note_on_c, 0, 67, 86
1, 99359, Note_on_c, 0, 79, 92
1, 99363, Note_on_c, 0, 71, 86
1, 99365, Note_on_c, 0, 63, 89
1, 99375, Note_on_c, 0, 83, 76
1, 99385, Note_off_c, 0, 66, 61
1, 99398, Note_off_c, 0, 62, 59
1, 99399, Note_off_c, 0, 83, 67
1, 99404, Note_off_c, 0, 71, 63
1, 99405, Control_c, 0, 64, 89
1, 99410, Note_off_c, 0, 79, 64
1, 99412, Note_off_c, 0, 67, 63
1, 99418, Note_off_c, 0, 63, 62
1, 99420, Control_c, 0, 64, 77
1, 99443, Control_c, 0, 64, 63
1, 99459, Control_c, 0, 64, 44
1, 99474, Control_c, 0, 64, 16
1, 99480, Note_on_c, 0, 72, 68
1, 99486, Note_on_c, 0, 84, 88
1, 99488, Control_c, 0, 64, 0
1, 99489, Note_on_c, 0, 74, 84
1, 99489, Note_on_c, 0, 81, 87
1, 99491, Note_on_c, 0, 80, 57
1, 99502, Note_on_c, 0, 64, 64
1, 99504, Note_off_c, 0, 74, 64
1, 99508, Note_on_c, 0, 68, 41
1, 99522, Note_on_c, 0, 66, 31
1, 99523, Note_off_c, 0, 66, 127
1, 99527, Note_off_c, 0, 80, 58
1, 99530, Note_off_c, 0, 64, 65
1, 99533, Note_off_c, 0, 72, 62
1, 99533, Note_off_c, 0, 84, 59
1, 99535, Note_off_c, 0, 68, 37
1, 99542, Note_on_c, 0, 69, 17
1, 99543, Note_off_c, 0, 69, 127
1, 99545, Note_off_c, 0, 81, 61
1, 99578, Note_on_c, 0, 69, 63
1, 99583, Note_on_c, 0, 65, 61
1, 99588, Poly_aftertouch_c, 0, 81, 0
1, 99590, Note_on_c, 0, 73, 95
1, 99596, Note_on_c, 0, 81, 75
1, 99600, Note_on_c, 0, 85, 72
1, 99629, Note_off_c, 0, 85, 60
1, 99632, Note_off_c, 0, 69, 64
1, 99638, Note_off_c, 0, 65, 62
1, 99638, Note_off_c, 0, 81, 65
1, 99643, Note_off_c, 0, 73, 63
1, 99699, Note_on_c, 0, 66, 74
1, 99700, Note_on_c, 0, 70, 82
1, 99700, Note_on_c, 0, 82, 97
1, 99700, Note_on_c, 0, 74, 95
1, 99715, Note_on_c, 0, 86, 67
1, 99724, Note_off_c, 0, 70, 61
1, 99728, Note_on_c, 0, 76, 54
1, 99729, Note_off_c, 0, 76, 127
1, 99730, Note_off_c, 0, 86, 67
1, 99734, Note_off_c, 0, 74, 62
1, 99736, Note_off_c, 0, 66, 58
1, 99742, Note_off_c, 0, 82, 64
1, 99799, Note_on_c, 0, 71, 88
1, 99799, Note_on_c, 0, 75, 94
1, 99807, Note_on_c, 0, 67, 72
1, 99807, Note_on_c, 0, 83, 85
1, 99809, Note_on_c, 0, 87, 76
1, 99827, Note_on_c, 0, 85, 50
1, 99832, Note_off_c, 0, 67, 65
1, 99833, Note_off_c, 0, 87, 64
1, 99834, Note_off_c, 0, 71, 63
1, 99834, Note_off_c, 0, 83, 59
1, 99848, Note_off_c, 0, 75, 62
1, 99848, Note_off_c, 0, 85, 59
1, 99888, Note_on_c, 0, 72, 69
1, 99891, Note_on_c, 0, 67, 68
1, 99899, Note_on_c, 0, 71, 61
1, 99907, Note_off_c, 0, 72, 65
1, 99915, Note_on_c, 0, 76, 82
1, 99915, Note_on_c, 0, 84, 92
1, 99916, Note_on_c, 0, 77, 82
1, 99918, Note_off_c, 0, 71, 62
1, 99920, Note_on_c, 0, 85, 55
1, 99924, Note_on_c, 0, 88, 69
1, 99933, Note_off_c, 0, 67, 62
1, 99934, Note_off_c, 0, 77, 70
1, 99936, Note_off_c, 0, 84, 63
1, 99937, Note_off_c, 0, 76, 66
1, 99938, Note_off_c, 0, 85, 63
1, 99946, Note_off_c, 0, 88, 68
1, 100008, Note_on_c, 0, 85, 94
1, 100010, Note_on_c, 0, 77, 97
1, 100012, Note_on_c, 0, 89, 69
1, 100013, Note_on_c, 0, 73, 56
1, 100027, Note_on_c, 0, 87, 73
1, 100028, Note_on_c, 0, 74, 56
1, 100031, Note_on_c, 0, 69, 49
1, 100034, Note_off_c, 0, 73, 62
1, 100043, Note_off_c, 0, 77, 62
1, 100049, Note_off_c, 0, 74, 61
1, 100050, Note_off_c, 0, 87, 65
1, 100052, Note_off_c, 0, 89, 60
1, 100054, Note_off_c, 0, 69, 61
1, 100058, Note_off_c, 0, 85, 65
1, 100115, Note_on_c, 0, 76, 82
1, 100117, Note_on_c, 0, 78, 92
1, 100119, Note_on_c, 0, 69, 72
1, 100123, Note_on_c, 0, 74, 65
1, 100129, Note_on_c, 0, 90, 76
1, 100138, Note_on_c, 0, 86, 64
1, 100140, Note_on_c, 0, 87, 46
1, 100142, Note_off_c, 0, 74, 63
1, 100152, Note_off_c, 0, 76, 63
1, 100156, Note_off_c, 0, 90, 57
1, 100160, Note_off_c, 0, 69, 60
1, 100162, Note_off_c, 0, 86, 67
1, 100162, Note_off_c, 0, 87, 61
1, 100171, Note_off_c, 0, 78, 60
1, 100207, Control_c, 0, 64, 25
1, 100222, Control_c, 0, 64, 41
1, 100230, Note_on_c, 0, 76, 74
1, 100230, Note_on_c, 0, 79, 88
1, 100232, Note_on_c, 0, 87, 101
1, 100237, Control_c, 0, 64, 53
1, 100240, Note_on_c, 0, 70, 59
1, 100243, Note_on_c, 0, 71, 64
1, 100243, Note_on_c, 0, 91, 77
1, 100252, Control_c, 0, 64, 58
1, 100254, Note_on_c, 0, 81, 62
1, 100255, Note_off_c, 0, 81, 127
1, 100264, Note_off_c, 0, 91, 67
1, 100265, Note_off_c, 0, 79, 67
1, 100271, Note_off_c, 0, 87, 66
1, 100282, Control_c, 0, 64, 51
1, 100294, Note_off_c, 0, 76, 60
1, 100297, Control_c, 0, 64, 0
1, 100304, Note_off_c, 0, 71, 58
1, 100305, Note_off_c, 0, 70, 56
1, 100332, Note_on_c, 0, 80, 87
1, 100337, Note_on_c, 0, 88, 89
1, 100337, Note_on_c, 0, 92, 86
1, 100350, Note_off_c, 0, 80, 67
1, 100351, Note_on_c, 0, 90, 65
1, 100355, Note_off_c, 0, 92, 70
1, 100368, Note_off_c, 0, 90, 67
1, 100371, Note_on_c, 0, 79, 40
1, 100386, Note_off_c, 0, 88, 60
1, 100399, Note_off_c, 0, 79, 37
1, 100430, Control_c, 0, 64, 48
1, 100432, Note_on_c, 0, 90, 98
1, 100439, Note_on_c, 0, 81, 96
1, 100439, Note_on_c, 0, 93, 96
1, 100442, Note_on_c, 0, 77, 92
1, 100445, Control_c, 0, 64, 84
1, 100446, Note_on_c, 0, 92, 82
1, 100448, Note_on_c, 0, 73, 77
1, 100450, Note_on_c, 0, 83, 90
1, 100460, Note_on_c, 0, 89, 83
1, 100460, Control_c, 0, 64, 127
1, 100462, Note_on_c, 0, 74, 90
1, 100463, Note_off_c, 0, 83, 73
1, 100484, Note_off_c, 0, 74, 64
1, 100485, Note_off_c, 0, 77, 64
1, 100494, Note_off_c, 0, 73, 62
1, 100512, Note_off_c, 0, 93, 59
1, 100514, Note_off_c, 0, 92, 57
1, 100520, Note_off_c, 0, 81, 62
1, 100527, Note_off_c, 0, 90, 61
1, 100532, Note_off_c, 0, 89, 59
1, 100779, Poly_aftertouch_c, 0, 54, 127
1, 100800, Control_c, 0, 64, 69
1, 100808, Poly_aftertouch_c, 0, 54, 0
1, 100815, Control_c, 0, 64, 0
1, 100833, Note_on_c, 0, 54, 97
1, 100838, Note_on_c, 0, 82, 106
1, 100842, Note_on_c, 0, 42, 89
1, 100866, Note_off_c, 0, 42, 66
1, 100875, Control_c, 0, 64, 61
1, 100882, Note_on_c, 0, 44, 29
1, 100883, Note_off_c, 0, 44, 127
1, 100890, Control_c, 0, 64, 77
1, 100891, Note_off_c, 0, 54, 64
1, 100904, Control_c, 0, 64, 100
1, 100916, Note_off_c, 0, 82, 41
1, 100919, Control_c, 0, 64, 127
1, 100936, Note_on_c, 0, 85, 80
1, 100939, Poly_aftertouch_c, 0, 44, 0
1, 100956, Note_on_c, 0, 42, 20
1, 100979, Note_off_c, 0, 42, 60
1, 101003, Note_on_c, 0, 94, 80
1, 101009, Note_off_c, 0, 85, 62
1, 101034, Note_on_c, 0, 70, 75
1, 101037, Note_on_c, 0, 61, 54
1, 101043, Note_on_c, 0, 66, 60
1, 101059, Note_off_c, 0, 61, 61
1, 101060, Note_off_c, 0, 70, 63
1, 101068, Note_on_c, 0, 85, 65
1, 101074, Note_off_c, 0, 66, 65
1, 101080, Note_off_c, 0, 94, 64
1, 101122, Note_on_c, 0, 82, 81
1, 101125, Note_off_c, 0, 85, 63
1, 101144, Note_on_c, 0, 61, 69
1, 101144, Note_on_c, 0, 70, 82
1, 101145, Note_off_c, 0, 82, 65
1, 101156, Note_on_c, 0, 66, 66
1, 101177, Note_off_c, 0, 70, 54
1, 101185, Note_on_c, 0, 80, 87
1, 101185, Note_off_c, 0, 66, 62
1, 101198, Note_off_c, 0, 61, 58
1, 101223, Note_off_c, 0, 80, 65
1, 101257, Note_on_c, 0, 61, 75
1, 101257, Note_on_c, 0, 70, 94
1, 101259, Note_on_c, 0, 78, 96
1, 101260, Note_on_c, 0, 66, 85
1, 101296, Note_off_c, 0, 70, 64
1, 101310, Note_off_c, 0, 66, 63
1, 101313, Note_off_c, 0, 78, 60
1, 101315, Note_on_c, 0, 82, 81
1, 101316, Note_off_c, 0, 61, 59
1, 101381, Note_on_c, 0, 61, 68
1, 101385, Note_on_c, 0, 66, 62
1, 101386, Note_on_c, 0, 90, 82
1, 101389, Note_on_c, 0, 70, 64
1, 101398, Note_off_c, 0, 82, 61
1, 101405, Note_off_c, 0, 70, 67
1, 101410, Note_off_c, 0, 66, 65
1, 101431, Note_off_c, 0, 61, 56
1, 101451, Note_off_c, 0, 90, 65
1, 101452, Note_on_c, 0, 82, 70
1, 101483, Note_on_c, 0, 70, 71
1, 101490, Note_on_c, 0, 61, 61
1, 101507, Note_on_c, 0, 78, 87
1, 101507, Note_on_c, 0, 66, 66
1, 101507, Note_off_c, 0, 82, 63
1, 101551, Note_off_c, 0, 61, 59
1, 101554, Note_off_c, 0, 66, 41
1, 101574, Note_on_c, 0, 77, 84
1, 101574, Note_off_c, 0, 70, 55
1, 101575, Note_off_c, 0, 78, 0
1, 101604, Note_off_c, 0, 77, 60
1, 101613, Poly_aftertouch_c, 0, 78, 127
1, 101621, Note_on_c, 0, 71, 100
1, 101628, Note_on_c, 0, 63, 92
1, 101630, Note_on_c, 0, 66, 90
1, 101638, Control_c, 0, 64, 69
1, 101641, Note_on_c, 0, 75, 95
1, 101647, Poly_aftertouch_c, 0, 78, 0
1, 101653, Control_c, 0, 64, 0
1, 101658, Note_off_c, 0, 71, 67
1, 101691, Note_off_c, 0, 66, 61
1, 101697, Note_off_c, 0, 63, 62
1, 101704, Note_on_c, 0, 78, 76
1, 101726, Note_off_c, 0, 75, 58
1, 101784, Note_on_c, 0, 82, 76
1, 101793, Note_on_c, 0, 86, 59
1, 101809, Note_off_c, 0, 78, 60
1, 101831, Note_on_c, 0, 83, 66
1, 101831, Note_off_c, 0, 86, 57
1, 101840, Note_off_c, 0, 82, 52
1, 101855, Note_on_c, 0, 75, 80
1, 101879, Note_off_c, 0, 83, 58
1, 101909, Note_on_c, 0, 78, 84
1, 101927, Note_off_c, 0, 75, 63
1, 101946, Note_off_c, 0, 78, 63
1, 101988, Control_c, 0, 64, 69
1, 101991, Note_on_c, 0, 54, 88
1, 101992, Note_on_c, 0, 63, 93
1, 102000, Note_on_c, 0, 59, 81
1, 102002, Control_c, 0, 64, 95
1, 102003, Note_on_c, 0, 80, 66
1, 102017, Control_c, 0, 64, 127
1, 102026, Note_on_c, 0, 82, 68
1, 102042, Note_on_c, 0, 85, 79
1, 102043, Note_off_c, 0, 63, 61
1, 102049, Note_off_c, 0, 82, 56
1, 102053, Note_off_c, 0, 59, 59
1, 102055, Note_off_c, 0, 80, 59
1, 102063, Note_off_c, 0, 54, 60
1, 102097, Note_on_c, 0, 92, 73
1, 102124, Note_on_c, 0, 54, 67
1, 102124, Note_on_c, 0, 59, 66
1, 102126, Note_on_c, 0, 63, 67
1, 102142, Note_off_c, 0, 63, 70
1, 102147, Note_on_c, 0, 87, 80
1, 102153, Note_off_c, 0, 85, 63
1, 102159, Note_off_c, 0, 59, 60
1, 102167, Note_off_c, 0, 54, 56
1, 102171, Note_off_c, 0, 92, 62
1, 102201, Note_off_c, 0, 87, 62
1, 102204, Note_on_c, 0, 80, 81
1, 102222, Note_on_c, 0, 63, 57
1, 102231, Note_on_c, 0, 54, 79
1, 102248, Note_off_c, 0, 80, 60
1, 102276, Note_off_c, 0, 54, 63
1, 102280, Note_on_c, 0, 78, 89
1, 102285, Note_off_c, 0, 63, 60
1, 102325, Note_off_c, 0, 78, 60
1, 102356, Note_on_c, 0, 75, 85
1, 102358, Control_c, 0, 64, 95
1, 102362, Note_on_c, 0, 68, 102
1, 102366, Note_on_c, 0, 59, 82
1, 102373, Control_c, 0, 64, 63
1, 102388, Control_c, 0, 64, 0
1, 102399, Note_on_c, 0, 80, 81
1, 102409, Note_off_c, 0, 68, 60
1, 102410, Note_on_c, 0, 65, 17
1, 102410, Note_off_c, 0, 75, 51
1, 102444, Note_off_c, 0, 59, 58
1, 102457, Note_off_c, 0, 65, 42
1, 102485, Note_on_c, 0, 87, 82
1, 102500, Note_off_c, 0, 80, 59
1, 102529, Note_on_c, 0, 85, 62
1, 102574, Note_on_c, 0, 82, 83
1, 102586, Note_off_c, 0, 85, 63
1, 102586, Note_off_c, 0, 87, 61
1, 102626, Note_off_c, 0, 82, 63
1, 102633, Note_on_c, 0, 75, 79
1, 102709, Note_on_c, 0, 73, 80
1, 102721, Note_off_c, 0, 75, 36
1, 102768, Note_on_c, 0, 75, 71
1, 102768, Note_off_c, 0, 73, 58
1, 102833, Note_off_c, 0, 75, 61
1, 102835, Note_on_c, 0, 73, 71
1, 102893, Note_off_c, 0, 73, 61
1, 102901, Note_on_c, 0, 72, 77
1, 102930, Note_on_c, 0, 73, 55
1, 102943, Note_off_c, 0, 72, 51
1, 102979, Note_on_c, 0, 80, 85
1, 102994, Note_off_c, 0, 73, 62
1, 103016, Note_off_c, 0, 80, 63
1, 103063, Note_on_c, 0, 82, 96
1, 103069, Note_on_c, 0, 54, 97
1, 103075, Note_on_c, 0, 42, 81
1, 103078, Control_c, 0, 64, 68
1, 103092, Control_c, 0, 64, 91
1, 103097, Note_off_c, 0, 42, 67
1, 103107, Control_c, 0, 64, 127
1, 103116, Note_off_c, 0, 54, 64
1, 103143, Note_off_c, 0, 82, 60
1, 103153, Note_on_c, 0, 94, 87
1, 103244, Note_on_c, 0, 70, 74
1, 103245, Note_on_c, 0, 66, 68
1, 103247, Note_on_c, 0, 85, 72
1, 103250, Note_off_c, 0, 94, 63
1, 103253, Note_on_c, 0, 61, 44
1, 103269, Note_off_c, 0, 70, 63
1, 103272, Note_off_c, 0, 66, 62
1, 103279, Note_off_c, 0, 61, 57
1, 103313, Note_off_c, 0, 85, 61
1, 103322, Note_on_c, 0, 82, 75
1, 103343, Note_off_c, 0, 82, 65
1, 103352, Note_on_c, 0, 61, 75
1, 103352, Note_on_c, 0, 70, 77
1, 103365, Note_on_c, 0, 66, 71
1, 103372, Note_off_c, 0, 70, 64
1, 103379, Note_on_c, 0, 80, 87
1, 103389, Note_off_c, 0, 66, 66
1, 103394, Note_off_c, 0, 61, 53
1, 103420, Note_off_c, 0, 80, 62
1, 103451, Note_on_c, 0, 78, 86
1, 103452, Note_on_c, 0, 70, 88
1, 103462, Note_on_c, 0, 61, 78
1, 103464, Note_on_c, 0, 66, 80
1, 103492, Note_off_c, 0, 66, 57
1, 103495, Note_off_c, 0, 78, 62
1, 103500, Note_off_c, 0, 70, 56
1, 103505, Note_on_c, 0, 82, 77
1, 103509, Note_off_c, 0, 61, 57
1, 103572, Note_on_c, 0, 66, 78
1, 103581, Note_on_c, 0, 90, 82
1, 103582, Note_on_c, 0, 61, 63
1, 103585, Note_on_c, 0, 70, 50
1, 103587, Note_off_c, 0, 82, 60
1, 103605, Note_off_c, 0, 70, 63
1, 103605, Note_off_c, 0, 66, 50
1, 103611, Note_off_c, 0, 61, 60
1, 103633, Poly_aftertouch_c, 0, 82, 0
1, 103640, Note_on_c, 0, 82, 72
1, 103643, Note_off_c, 0, 90, 66
1, 103685, Note_on_c, 0, 70, 73
1, 103696, Note_on_c, 0, 61, 69
1, 103700, Note_on_c, 0, 78, 79
1, 103708, Note_off_c, 0, 82, 62
1, 103711, Note_on_c, 0, 66, 66
1, 103727, Note_off_c, 0, 61, 56
1, 103732, Note_off_c, 0, 78, 60
1, 103738, Note_off_c, 0, 66, 61
1, 103763, Note_off_c, 0, 70, 57
1, 103772, Note_on_c, 0, 77, 77
1, 103791, Note_off_c, 0, 77, 69
1, 103811, Control_c, 0, 64, 87
1, 103814, Note_on_c, 0, 71, 104
1, 103822, Note_on_c, 0, 63, 90
1, 103823, Note_on_c, 0, 66, 87
1, 103826, Control_c, 0, 64, 46
1, 103833, Note_on_c, 0, 75, 85
1, 103841, Control_c, 0, 64, 0
1, 103859, Note_off_c, 0, 71, 65
1, 103879, Note_off_c, 0, 63, 61
1, 103882, Note_off_c, 0, 66, 62
1, 103893, Note_on_c, 0, 78, 78
1, 103911, Note_off_c, 0, 75, 57
1, 103963, Note_on_c, 0, 87, 73
1, 104005, Note_off_c, 0, 78, 60
1, 104005, Note_on_c, 0, 83, 63
1, 104017, Note_off_c, 0, 87, 62
1, 104046, Note_on_c, 0, 75, 79
1, 104068, Note_off_c, 0, 83, 60
1, 104105, Note_on_c, 0, 78, 77
1, 104116, Note_off_c, 0, 75, 62
1, 104127, Note_off_c, 0, 78, 65
1, 104159, Control_c, 0, 64, 30
1, 104173, Control_c, 0, 64, 64
1, 104183, Note_on_c, 0, 54, 80
1, 104187, Note_on_c, 0, 63, 87
1, 104188, Control_c, 0, 64, 77
1, 104194, Note_on_c, 0, 80, 77
1, 104196, Note_on_c, 0, 59, 69
1, 104203, Control_c, 0, 64, 95
1, 104217, Control_c, 0, 64, 127
1, 104231, Note_off_c, 0, 59, 58
1, 104233, Note_off_c, 0, 63, 56
1, 104247, Note_on_c, 0, 85, 71
1, 104249, Note_off_c, 0, 54, 59
1, 104258, Note_off_c, 0, 80, 53
1, 104297, Note_on_c, 0, 92, 78
1, 104309, Note_on_c, 0, 54, 67
1, 104322, Note_on_c, 0, 59, 66
1, 104326, Note_on_c, 0, 63, 51
1, 104345, Note_off_c, 0, 85, 61
1, 104345, Note_off_c, 0, 92, 65
1, 104347, Note_on_c, 0, 87, 75
1, 104347, Note_off_c, 0, 59, 66
1, 104347, Note_off_c, 0, 63, 62
1, 104356, Note_off_c, 0, 54, 55
1, 104396, Note_off_c, 0, 87, 63
1, 104400, Note_on_c, 0, 80, 74
1, 104422, Note_on_c, 0, 63, 83
1, 104423, Note_on_c, 0, 54, 84
1, 104425, Note_off_c, 0, 80, 63
1, 104463, Note_off_c, 0, 54, 65
1, 104470, Note_off_c, 0, 63, 63
1, 104479, Note_on_c, 0, 78, 85
1, 104523, Note_off_c, 0, 78, 62
1, 104555, Note_on_c, 0, 68, 105
1, 104555, Note_on_c, 0, 75, 86
1, 104560, Note_on_c, 0, 59, 79
1, 104583, Note_on_c, 0, 65, 57
1, 104589, Control_c, 0, 64, 112
1, 104603, Control_c, 0, 64, 70
1, 104610, Note_on_c, 0, 80, 80
1, 104611, Note_off_c, 0, 68, 56
1, 104615, Note_off_c, 0, 65, 60
1, 104618, Control_c, 0, 64, 34
1, 104619, Note_off_c, 0, 59, 55
1, 104620, Note_off_c, 0, 75, 59
1, 104633, Control_c, 0, 64, 0
1, 104693, Note_on_c, 0, 87, 84
1, 104709, Note_off_c, 0, 80, 60
1, 104743, Note_on_c, 0, 85, 58
1, 104780, Note_on_c, 0, 82, 78
1, 104780, Note_off_c, 0, 85, 64
1, 104781, Note_off_c, 0, 87, 62
1, 104830, Note_off_c, 0, 82, 62
1, 104831, Note_on_c, 0, 75, 77
1, 104915, Note_off_c, 0, 75, 37
1, 104923, Note_on_c, 0, 74, 62
1, 104944, Note_off_c, 0, 74, 62
1, 104956, Note_on_c, 0, 75, 61
1, 105045, Note_on_c, 0, 73, 77
1, 105060, Note_off_c, 0, 75, 62
1, 105093, Note_on_c, 0, 72, 79
1, 105116, Control_c, 0, 64, 28
1, 105131, Control_c, 0, 64, 34
1, 105137, Note_off_c, 0, 72, 58
1, 105145, Control_c, 0, 64, 23
1, 105157, Note_on_c, 0, 80, 84
1, 105160, Control_c, 0, 64, 0
1, 105172, Note_off_c, 0, 73, 65
1, 105207, Note_off_c, 0, 80, 61
1, 105254, Note_on_c, 0, 82, 97
1, 105264, Control_c, 0, 64, 56
1, 105268, Note_on_c, 0, 54, 91
1, 105279, Control_c, 0, 64, 76
1, 105293, Control_c, 0, 64, 100
1, 105308, Control_c, 0, 64, 127
1, 105311, Note_off_c, 0, 54, 63
1, 105330, Note_off_c, 0, 82, 56
1, 105334, Note_on_c, 0, 94, 85
1, 105380, Note_off_c, 0, 94, 65
1, 105408, Note_on_c, 0, 70, 78
1, 105435, Note_on_c, 0, 85, 66
1, 105454, Note_off_c, 0, 85, 65
1, 105489, Note_off_c, 0, 70, 0
1, 105492, Poly_aftertouch_c, 0, 61, 127
1, 105500, Note_on_c, 0, 70, 25
1, 105504, Note_on_c, 0, 66, 70
1, 105505, Note_on_c, 0, 78, 79
1, 105525, Note_off_c, 0, 66, 69
1, 105530, Note_off_c, 0, 70, 46
1, 105547, Poly_aftertouch_c, 0, 61, 0
1, 105552, Note_on_c, 0, 80, 75
1, 105552, Note_off_c, 0, 78, 58
1, 105567, Control_c, 0, 64, 83
1, 105573, Note_off_c, 0, 80, 68
1, 105582, Control_c, 0, 64, 52
1, 105597, Control_c, 0, 64, 0
1, 105612, Control_c, 0, 64, 36
1, 105626, Control_c, 0, 64, 58
1, 105629, Note_on_c, 0, 53, 99
1, 105641, Control_c, 0, 64, 68
1, 105647, Note_on_c, 0, 82, 35
1, 105653, Note_off_c, 0, 82, 0
1, 105656, Control_c, 0, 64, 79
1, 105671, Note_on_c, 0, 84, 49
1, 105671, Note_off_c, 0, 53, 63
1, 105671, Control_c, 0, 64, 98
1, 105677, Poly_aftertouch_c, 0, 82, 0
1, 105686, Control_c, 0, 64, 127
1, 105690, Note_on_c, 0, 83, 35
1, 105695, Note_off_c, 0, 84, 56
1, 105702, Note_on_c, 0, 94, 66
1, 105723, Note_off_c, 0, 83, 50
1, 105769, Note_off_c, 0, 94, 63
1, 105779, Note_on_c, 0, 70, 70
1, 105781, Note_on_c, 0, 85, 71
1, 105785, Note_on_c, 0, 61, 53
1, 105808, Note_off_c, 0, 61, 61
1, 105833, Note_on_c, 0, 81, 75
1, 105836, Note_off_c, 0, 85, 61
1, 105841, Note_off_c, 0, 70, 37
1, 105865, Note_on_c, 0, 83, 43
1, 105872, Note_on_c, 0, 61, 80
1, 105880, Note_off_c, 0, 81, 61
1, 105884, Note_on_c, 0, 66, 32
1, 105894, Note_off_c, 0, 83, 57
1, 105895, Note_on_c, 0, 82, 84
1, 105899, Note_off_c, 0, 61, 65
1, 105909, Control_c, 0, 64, 96
1, 105917, Note_off_c, 0, 82, 67
1, 105918, Note_off_c, 0, 66, 50
1, 105923, Control_c, 0, 64, 62
1, 105938, Control_c, 0, 64, 20
1, 105953, Control_c, 0, 64, 30
1, 105967, Control_c, 0, 64, 58
1, 105982, Control_c, 0, 64, 69
1, 105997, Note_on_c, 0, 52, 98
1, 105997, Control_c, 0, 64, 79
1, 106012, Control_c, 0, 64, 101
1, 106027, Control_c, 0, 64, 127
1, 106030, Note_on_c, 0, 84, 30
1, 106039, Note_off_c, 0, 52, 62
1, 106056, Note_on_c, 0, 94, 67
1, 106064, Note_off_c, 0, 84, 51
1, 106135, Note_off_c, 0, 94, 63
1, 106137, Note_on_c, 0, 85, 76
1, 106159, Note_on_c, 0, 61, 47
1, 106160, Note_on_c, 0, 70, 60
1, 106162, Note_on_c, 0, 66, 52
1, 106186, Note_off_c, 0, 70, 63
1, 106190, Note_off_c, 0, 61, 59
1, 106192, Note_off_c, 0, 66, 59
1, 106207, Note_on_c, 0, 81, 77
1, 106207, Note_off_c, 0, 85, 61
1, 106258, Note_on_c, 0, 70, 72
1, 106261, Note_off_c, 0, 81, 52
1, 106264, Note_on_c, 0, 61, 68
1, 106268, Note_on_c, 0, 66, 62
1, 106270, Note_on_c, 0, 82, 87
1, 106271, Control_c, 0, 64, 95
1, 106286, Control_c, 0, 64, 62
1, 106291, Note_off_c, 0, 70, 59
1, 106292, Note_off_c, 0, 61, 63
1, 106300, Note_off_c, 0, 66, 63
1, 106301, Control_c, 0, 64, 0
1, 106309, Note_off_c, 0, 82, 64
1, 106316, Control_c, 0, 64, 16
1, 106330, Control_c, 0, 64, 53
1, 106345, Control_c, 0, 64, 67
1, 106359, Note_on_c, 0, 82, 88
1, 106360, Control_c, 0, 64, 80
1, 106363, Note_on_c, 0, 70, 98
1, 106369, Note_on_c, 0, 61, 91
1, 106371, Note_on_c, 0, 67, 82
1, 106374, Control_c, 0, 64, 127
1, 106395, Note_off_c, 0, 67, 64
1, 106408, Note_off_c, 0, 70, 59
1, 106416, Note_on_c, 0, 85, 70
1, 106429, Note_off_c, 0, 82, 56
1, 106434, Note_off_c, 0, 61, 62
1, 106464, Note_on_c, 0, 94, 75
1, 106503, Note_on_c, 0, 90, 62
1, 106508, Control_c, 0, 64, 95
1, 106515, Note_off_c, 0, 85, 62
1, 106520, Note_off_c, 0, 94, 62
1, 106523, Note_off_c, 0, 90, 63
1, 106523, Control_c, 0, 64, 61
1, 106538, Control_c, 0, 64, 0
1, 106541, Note_on_c, 0, 91, 65
1, 106582, Note_on_c, 0, 86, 74
1, 106597, Note_off_c, 0, 91, 62
1, 106603, Note_on_c, 0, 51, 72
1, 106640, Note_off_c, 0, 86, 61
1, 106643, Control_c, 0, 64, 35
1, 106658, Control_c, 0, 64, 68
1, 106659, Note_on_c, 0, 58, 79
1, 106672, Control_c, 0, 64, 86
1, 106681, Note_off_c, 0, 51, 61
1, 106685, Note_on_c, 0, 85, 74
1, 106687, Control_c, 0, 64, 127
1, 106696, Note_on_c, 0, 61, 81
1, 106735, Note_off_c, 0, 58, 57
1, 106737, Note_on_c, 0, 67, 100
1, 106738, Note_on_c, 0, 82, 77
1, 106766, Note_off_c, 0, 61, 63
1, 106768, Note_off_c, 0, 85, 63
1, 106774, Note_on_c, 0, 79, 72
1, 106783, Note_off_c, 0, 67, 61
1, 106806, Note_off_c, 0, 82, 62
1, 106830, Note_on_c, 0, 76, 85
1, 106836, Note_off_c, 0, 79, 54
1, 106861, Note_off_c, 0, 76, 62
1, 106939, Note_on_c, 0, 73, 81
1, 106976, Note_on_c, 0, 70, 69
1, 106996, Note_off_c, 0, 73, 56
1, 107027, Note_on_c, 0, 67, 86
1, 107050, Control_c, 0, 64, 115
1, 107065, Control_c, 0, 64, 70
1, 107068, Note_off_c, 0, 70, 60
1, 107079, Control_c, 0, 64, 29
1, 107087, Note_off_c, 0, 67, 61
1, 107089, Note_on_c, 0, 64, 94
1, 107094, Control_c, 0, 64, 0
1, 107114, Note_on_c, 0, 63, 85
1, 107135, Note_off_c, 0, 64, 61
1, 107153, Note_on_c, 0, 67, 77
1, 107170, Note_off_c, 0, 63, 60
1, 107209, Note_on_c, 0, 70, 73
1, 107211, Note_off_c, 0, 67, 57
1, 107254, Note_on_c, 0, 73, 65
1, 107272, Control_c, 0, 64, 24
1, 107283, Note_off_c, 0, 70, 61
1, 107287, Control_c, 0, 64, 28
1, 107295, Note_on_c, 0, 79, 79
1, 107316, Control_c, 0, 64, 25
1, 107317, Note_off_c, 0, 73, 63
1, 107331, Control_c, 0, 64, 0
1, 107350, Note_off_c, 0, 79, 64
1, 107424, Note_on_c, 0, 55, 89
1, 107429, Note_on_c, 0, 83, 88
1, 107435, Control_c, 0, 64, 57
1, 107451, Control_c, 0, 64, 73
1, 107465, Note_off_c, 0, 55, 59
1, 107465, Control_c, 0, 64, 90
1, 107480, Control_c, 0, 64, 127
1, 107501, Note_on_c, 0, 95, 83
1, 107524, Note_off_c, 0, 83, 55
1, 107562, Note_on_c, 0, 71, 83
1, 107563, Note_off_c, 0, 95, 59
1, 107575, Note_on_c, 0, 86, 62
1, 107612, Note_on_c, 0, 62, 20
1, 107614, Note_off_c, 0, 71, 60
1, 107623, Note_on_c, 0, 67, 46
1, 107623, Note_off_c, 0, 86, 52
1, 107646, Note_on_c, 0, 64, 26
1, 107646, Note_on_c, 0, 79, 79
1, 107647, Note_on_c, 0, 63, 29
1, 107647, Note_off_c, 0, 67, 56
1, 107656, Note_off_c, 0, 62, 49
1, 107690, Note_off_c, 0, 63, 49
1, 107692, Note_off_c, 0, 64, 48
1, 107722, Note_off_c, 0, 79, 54
1, 107725, Control_c, 0, 64, 102
1, 107728, Note_on_c, 0, 83, 73
1, 107731, Note_on_c, 0, 81, 70
1, 107740, Control_c, 0, 64, 67
1, 107745, Note_off_c, 0, 83, 67
1, 107746, Note_off_c, 0, 81, 68
1, 107754, Control_c, 0, 64, 45
1, 107761, Note_on_c, 0, 54, 105
1, 107769, Control_c, 0, 64, 44
1, 107784, Control_c, 0, 64, 58
1, 107799, Control_c, 0, 64, 68
1, 107811, Note_off_c, 0, 54, 62
1, 107814, Control_c, 0, 64, 78
1, 107815, Note_on_c, 0, 83, 69
1, 107816, Note_on_c, 0, 84, 74
1, 107828, Control_c, 0, 64, 96
1, 107843, Control_c, 0, 64, 127
1, 107861, Note_off_c, 0, 84, 51
1, 107865, Note_off_c, 0, 83, 58
1, 107883, Note_on_c, 0, 88, 71
1, 107916, Note_on_c, 0, 96, 34
1, 107927, Note_on_c, 0, 71, 80
1, 107948, Note_off_c, 0, 96, 53
1, 107952, Note_on_c, 0, 62, 52
1, 107960, Note_off_c, 0, 88, 60
1, 107985, Note_on_c, 0, 83, 78
1, 107987, Note_off_c, 0, 71, 58
1, 107988, Note_off_c, 0, 62, 0
1, 107988, Note_on_c, 0, 62, 34
1, 107994, Poly_aftertouch_c, 0, 95, 0
1, 108026, Note_off_c, 0, 62, 61
1, 108032, Note_off_c, 0, 83, 51
1, 108058, Note_on_c, 0, 82, 89
1, 108095, Note_off_c, 0, 82, 65
1, 108095, Control_c, 0, 64, 87
1, 108110, Control_c, 0, 64, 53
1, 108125, Control_c, 0, 64, 0
1, 108139, Note_on_c, 0, 53, 91
1, 108140, Control_c, 0, 64, 30
1, 108143, Note_on_c, 0, 83, 95
1, 108154, Control_c, 0, 64, 56
1, 108169, Control_c, 0, 64, 67
1, 108184, Control_c, 0, 64, 76
1, 108186, Note_off_c, 0, 53, 61
1, 108199, Control_c, 0, 64, 97
1, 108204, Note_off_c, 0, 83, 61
1, 108209, Note_on_c, 0, 86, 82
1, 108214, Control_c, 0, 64, 127
1, 108254, Note_on_c, 0, 95, 85
1, 108274, Note_off_c, 0, 86, 60
1, 108280, Note_on_c, 0, 71, 81
1, 108290, Note_on_c, 0, 67, 71
1, 108300, Note_on_c, 0, 62, 56
1, 108313, Note_off_c, 0, 95, 60
1, 108333, Note_off_c, 0, 71, 60
1, 108336, Note_off_c, 0, 62, 60
1, 108345, Note_off_c, 0, 67, 55
1, 108354, Note_on_c, 0, 83, 86
1, 108398, Note_off_c, 0, 83, 61
1, 108424, Note_on_c, 0, 62, 71
1, 108432, Note_on_c, 0, 82, 89
1, 108440, Note_on_c, 0, 71, 51
1, 108456, Note_off_c, 0, 62, 57
1, 108463, Note_off_c, 0, 82, 68
1, 108464, Note_off_c, 0, 71, 56
1, 108474, Control_c, 0, 64, 77
1, 108489, Control_c, 0, 64, 49
1, 108504, Control_c, 0, 64, 0
1, 108507, Note_on_c, 0, 83, 103
1, 108521, Note_on_c, 0, 71, 86
1, 108522, Note_on_c, 0, 62, 83
1, 108523, Note_on_c, 0, 68, 87
1, 108537, Note_off_c, 0, 71, 70
1, 108565, Note_off_c, 0, 62, 61
1, 108566, Note_off_c, 0, 68, 58
1, 108577, Control_c, 0, 64, 19
1, 108588, Note_off_c, 0, 83, 56
1, 108593, Note_on_c, 0, 86, 81
1, 108652, Control_c, 0, 64, 18
1, 108654, Note_on_c, 0, 95, 85
1, 108667, Control_c, 0, 64, 0
1, 108687, Note_off_c, 0, 86, 61
1, 108700, Note_on_c, 0, 92, 72
1, 108741, Note_on_c, 0, 52, 71
1, 108756, Note_on_c, 0, 89, 77
1, 108770, Note_off_c, 0, 95, 53
1, 108785, Note_on_c, 0, 59, 72
1, 108785, Control_c, 0, 64, 34
1, 108789, Note_on_c, 0, 86, 78
1, 108792, Note_off_c, 0, 92, 63
1, 108798, Note_off_c, 0, 52, 60
1, 108800, Control_c, 0, 64, 65
1, 108815, Control_c, 0, 64, 83
1, 108816, Note_on_c, 0, 62, 86
1, 108826, Note_off_c, 0, 89, 60
1, 108830, Control_c, 0, 64, 127
1, 108840, Note_off_c, 0, 59, 57
1, 108856, Note_on_c, 0, 81, 85
1, 108858, Note_on_c, 0, 83, 77
1, 108860, Note_off_c, 0, 86, 60
1, 108865, Poly_aftertouch_c, 0, 61, 127
1, 108869, Note_on_c, 0, 68, 99
1, 108879, Note_off_c, 0, 83, 65
1, 108883, Note_off_c, 0, 62, 49
1, 108892, Note_off_c, 0, 81, 63
1, 108905, Poly_aftertouch_c, 0, 61, 0
1, 108916, Note_off_c, 0, 68, 64
1, 108950, Note_on_c, 0, 78, 83
1, 109020, Note_on_c, 0, 76, 11
1, 109044, Note_off_c, 0, 78, 53
1, 109047, Note_on_c, 0, 71, 80
1, 109057, Note_on_c, 0, 72, 75
1, 109063, Note_off_c, 0, 76, 52
1, 109072, Note_off_c, 0, 72, 68
1, 109087, Note_off_c, 0, 71, 64
1, 109140, Note_on_c, 0, 68, 72
1, 109141, Note_off_c, 0, 68, 127
1, 109148, Note_on_c, 0, 69, 83
1, 109205, Note_on_c, 0, 65, 95
1, 109215, Note_off_c, 0, 69, 61
1, 109223, Control_c, 0, 64, 98
1, 109226, Note_on_c, 0, 64, 90
1, 109238, Control_c, 0, 64, 67
1, 109253, Control_c, 0, 64, 37
1, 109260, Note_off_c, 0, 65, 62
1, 109264, Note_on_c, 0, 68, 74
1, 109267, Control_c, 0, 64, 0
1, 109273, Note_off_c, 0, 64, 58
1, 109341, Note_on_c, 0, 71, 71
1, 109349, Note_off_c, 0, 68, 58
1, 109378, Note_on_c, 0, 73, 33
1, 109388, Note_on_c, 0, 74, 72
1, 109405, Note_off_c, 0, 71, 54
1, 109415, Control_c, 0, 64, 19
1, 109430, Control_c, 0, 64, 21
1, 109432, Note_on_c, 0, 80, 76
1, 109445, Control_c, 0, 64, 0
1, 109449, Note_off_c, 0, 73, 44
1, 109458, Note_off_c, 0, 74, 62
1, 109495, Note_off_c, 0, 80, 62
1, 109548, Control_c, 0, 64, 48
1, 109563, Control_c, 0, 64, 69
1, 109564, Note_on_c, 0, 84, 93
1, 109566, Note_on_c, 0, 56, 91
1, 109567, Note_on_c, 0, 44, 84
1, 109578, Control_c, 0, 64, 85
1, 109591, Note_off_c, 0, 44, 65
1, 109592, Control_c, 0, 64, 127
1, 109604, Note_off_c, 0, 56, 60
1, 109618, Note_on_c, 0, 54, 7
1, 109657, Note_on_c, 0, 96, 79
1, 109668, Note_off_c, 0, 54, 47
1, 109672, Note_off_c, 0, 84, 52
1, 109685, Note_on_c, 0, 95, 50
1, 109712, Note_off_c, 0, 95, 53
1, 109722, Note_on_c, 0, 87, 80
1, 109731, Note_off_c, 0, 96, 60
1, 109741, Note_on_c, 0, 72, 64
1, 109744, Note_on_c, 0, 68, 59
1, 109759, Note_off_c, 0, 72, 66
1, 109771, Note_off_c, 0, 68, 64
1, 109791, Note_on_c, 0, 84, 87
1, 109805, Note_off_c, 0, 87, 62
1, 109823, Note_on_c, 0, 72, 85
1, 109829, Note_off_c, 0, 84, 63
1, 109831, Note_on_c, 0, 63, 76
1, 109843, Note_on_c, 0, 68, 71
1, 109866, Note_off_c, 0, 68, 64
1, 109873, Note_off_c, 0, 72, 60
1, 109877, Note_on_c, 0, 82, 88
1, 109882, Note_off_c, 0, 63, 57
1, 109922, Note_off_c, 0, 82, 65
1, 109945, Note_on_c, 0, 72, 90
1, 109949, Note_on_c, 0, 63, 78
1, 109949, Note_on_c, 0, 68, 93
1, 109950, Note_on_c, 0, 80, 93
1, 109985, Note_off_c, 0, 72, 65
1, 109996, Note_off_c, 0, 68, 58
1, 110002, Note_off_c, 0, 63, 59
1, 110033, Note_on_c, 0, 84, 68
1, 110036, Note_off_c, 0, 80, 56
1, 110062, Note_on_c, 0, 72, 76
1, 110072, Note_on_c, 0, 91, 73
1, 110085, Note_off_c, 0, 72, 58
1, 110095, Note_on_c, 0, 63, 11
1, 110109, Note_on_c, 0, 62, 20
1, 110116, Note_off_c, 0, 91, 52
1, 110151, Note_off_c, 0, 62, 49
1, 110160, Note_on_c, 0, 80, 74
1, 110160, Note_off_c, 0, 63, 0
1, 110163, Note_on_c, 0, 72, 77
1, 110168, Poly_aftertouch_c, 0, 67, 0
1, 110168, Note_off_c, 0, 84, 60
1, 110173, Note_on_c, 0, 68, 51
1, 110175, Note_on_c, 0, 63, 41
1, 110200, Note_off_c, 0, 63, 57
1, 110209, Note_off_c, 0, 80, 59
1, 110224, Note_off_c, 0, 72, 59
1, 110244, Note_on_c, 0, 80, 40
1, 110253, Note_off_c, 0, 68, 58
1, 110272, Note_on_c, 0, 79, 38
1, 110273, Note_off_c, 0, 80, 55
1, 110293, Note_on_c, 0, 73, 102
1, 110294, Note_on_c, 0, 65, 88
1, 110294, Poly_aftertouch_c, 0, 68, 0
1, 110300, Note_off_c, 0, 79, 59
1, 110301, Note_on_c, 0, 68, 67
1, 110303, Note_on_c, 0, 77, 75
1, 110312, Control_c, 0, 64, 99
1, 110315, Note_on_c, 0, 76, 61
1, 110327, Control_c, 0, 64, 68
1, 110333, Note_off_c, 0, 73, 63
1, 110336, Note_off_c, 0, 76, 59
1, 110341, Control_c, 0, 64, 40
1, 110353, Note_off_c, 0, 65, 64
1, 110354, Note_off_c, 0, 77, 58
1, 110355, Note_on_c, 0, 80, 78
1, 110356, Control_c, 0, 64, 0
1, 110360, Note_off_c, 0, 68, 61
1, 110419, Note_on_c, 0, 89, 69
1, 110445, Control_c, 0, 64, 27
1, 110455, Note_off_c, 0, 80, 61
1, 110456, Note_on_c, 0, 85, 71
1, 110459, Control_c, 0, 64, 31
1, 110471, Note_off_c, 0, 89, 58
1, 110476, Note_on_c, 0, 87, 36
1, 110507, Note_off_c, 0, 87, 54
1, 110513, Note_off_c, 0, 85, 57
1, 110518, Note_on_c, 0, 80, 82
1, 110519, Control_c, 0, 64, 26
1, 110533, Control_c, 0, 64, 0
1, 110568, Note_on_c, 0, 82, 78
1, 110574, Note_off_c, 0, 80, 61
1, 110600, Note_off_c, 0, 82, 53
1, 110648, Note_on_c, 0, 56, 93
1, 110661, Note_on_c, 0, 44, 82
1, 110661, Control_c, 0, 64, 65
1, 110673, Note_on_c, 0, 84, 84
1, 110676, Control_c, 0, 64, 81
1, 110682, Note_off_c, 0, 44, 66
1, 110690, Control_c, 0, 64, 117
1, 110701, Note_off_c, 0, 56, 64
1, 110705, Control_c, 0, 64, 127
1, 110744, Note_on_c, 0, 87, 77
1, 110757, Note_off_c, 0, 84, 37
1, 110789, Note_on_c, 0, 96, 80
1, 110799, Note_on_c, 0, 72, 82
1, 110801, Note_off_c, 0, 87, 60
1, 110809, Note_on_c, 0, 68, 69
1, 110813, Note_on_c, 0, 63, 55
1, 110838, Note_off_c, 0, 63, 58
1, 110838, Note_off_c, 0, 72, 51
1, 110838, Note_off_c, 0, 68, 54
1, 110852, Note_off_c, 0, 96, 61
1, 110866, Note_on_c, 0, 87, 74
1, 110896, Note_on_c, 0, 84, 84
1, 110903, Note_on_c, 0, 72, 76
1, 110910, Note_off_c, 0, 87, 63
1, 110914, Note_on_c, 0, 63, 73
1, 110917, Note_on_c, 0, 68, 75
1, 110941, Note_off_c, 0, 84, 63
1, 110942, Note_off_c, 0, 63, 60
1, 110944, Note_off_c, 0, 68, 62
1, 110958, Note_off_c, 0, 72, 55
1, 110989, Note_on_c, 0, 82, 83
1, 111010, Note_off_c, 0, 82, 67
1, 111019, Note_on_c, 0, 72, 78
1, 111025, Note_on_c, 0, 68, 89
1, 111028, Note_on_c, 0, 63, 83
1, 111045, Note_on_c, 0, 80, 89
1, 111060, Note_off_c, 0, 63, 54
1, 111069, Note_off_c, 0, 68, 60
1, 111069, Note_off_c, 0, 72, 61
1, 111120, Note_on_c, 0, 85, 60
1, 111133, Note_on_c, 0, 84, 83
1, 111135, Note_on_c, 0, 72, 78
1, 111137, Note_on_c, 0, 68, 77
1, 111140, Note_on_c, 0, 63, 76
1, 111140, Note_off_c, 0, 80, 57
1, 111164, Note_off_c, 0, 72, 60
1, 111170, Note_off_c, 0, 63, 61
1, 111176, Note_off_c, 0, 68, 47
1, 111177, Note_on_c, 0, 91, 68
1, 111185, Note_on_c, 0, 90, 21
1, 111205, Note_on_c, 0, 87, 34
1, 111225, Note_off_c, 0, 91, 60
1, 111233, Note_off_c, 0, 85, 23
1, 111239, Note_on_c, 0, 80, 82
1, 111243, Note_on_c, 0, 72, 80
1, 111245, Note_off_c, 0, 84, 60
1, 111248, Note_on_c, 0, 63, 74
1, 111249, Note_on_c, 0, 68, 73
1, 111250, Note_off_c, 0, 87, 47
1, 111278, Note_off_c, 0, 90, 43
1, 111285, Note_off_c, 0, 80, 62
1, 111296, Note_off_c, 0, 63, 53
1, 111308, Note_off_c, 0, 72, 60
1, 111330, Note_off_c, 0, 68, 58
1, 111341, Note_on_c, 0, 79, 57
1, 111364, Note_off_c, 0, 79, 59
1, 111371, Note_on_c, 0, 77, 82
1, 111379, Note_on_c, 0, 73, 96
1, 111382, Note_on_c, 0, 65, 87
1, 111386, Control_c, 0, 64, 74
1, 111392, Note_on_c, 0, 68, 69
1, 111401, Control_c, 0, 64, 46
1, 111417, Note_off_c, 0, 73, 62
1, 111424, Control_c, 0, 64, 0
1, 111437, Note_off_c, 0, 65, 60
1, 111448, Note_on_c, 0, 80, 81
1, 111460, Note_off_c, 0, 68, 58
1, 111464, Note_off_c, 0, 77, 34
1, 111499, Control_c, 0, 64, 30
1, 111510, Note_on_c, 0, 89, 77
1, 111513, Control_c, 0, 64, 45
1, 111528, Control_c, 0, 64, 50
1, 111534, Note_on_c, 0, 85, 77
1, 111543, Note_off_c, 0, 80, 60
1, 111543, Control_c, 0, 64, 49
1, 111558, Control_c, 0, 64, 48
1, 111573, Control_c, 0, 64, 46
1, 111587, Control_c, 0, 64, 42
1, 111594, Note_off_c, 0, 85, 52
1, 111602, Control_c, 0, 64, 26
1, 111603, Note_on_c, 0, 80, 79
1, 111616, Note_off_c, 0, 89, 34
1, 111617, Control_c, 0, 64, 0
1, 111645, Note_on_c, 0, 82, 75
1, 111658, Note_off_c, 0, 80, 61
1, 111698, Note_off_c, 0, 82, 61
1, 111721, Control_c, 0, 64, 55
1, 111732, Note_on_c, 0, 56, 84
1, 111736, Control_c, 0, 64, 72
1, 111749, Note_on_c, 0, 84, 83
1, 111751, Control_c, 0, 64, 89
1, 111766, Control_c, 0, 64, 127
1, 111778, Note_off_c, 0, 56, 63
1, 111803, Note_on_c, 0, 86, 17
1, 111806, Note_off_c, 0, 84, 60
1, 111807, Note_on_c, 0, 87, 77
1, 111840, Note_on_c, 0, 96, 77
1, 111847, Note_off_c, 0, 86, 53
1, 111868, Note_on_c, 0, 72, 84
1, 111887, Note_on_c, 0, 68, 57
1, 111896, Note_off_c, 0, 72, 57
1, 111910, Note_on_c, 0, 92, 66
1, 111915, Note_off_c, 0, 68, 62
1, 111919, Note_off_c, 0, 96, 58
1, 111955, Note_on_c, 0, 63, 54
1, 111955, Note_off_c, 0, 87, 0
1, 111967, Note_on_c, 0, 84, 82
1, 111969, Note_on_c, 0, 68, 61
1, 111973, Note_off_c, 0, 92, 53
1, 111980, Poly_aftertouch_c, 0, 87, 0
1, 111997, Note_off_c, 0, 68, 64
1, 112011, Note_off_c, 0, 63, 62
1, 112024, Note_off_c, 0, 84, 59
1, 112027, Poly_aftertouch_c, 0, 87, 0
1, 112032, Control_c, 0, 64, 87
1, 112035, Note_on_c, 0, 92, 61
1, 112047, Control_c, 0, 64, 62
1, 112062, Control_c, 0, 64, 43
1, 112077, Control_c, 0, 64, 47
1, 112089, Note_on_c, 0, 57, 88
1, 112092, Control_c, 0, 64, 58
1, 112095, Note_on_c, 0, 84, 89
1, 112106, Control_c, 0, 64, 65
1, 112120, Note_off_c, 0, 57, 65
1, 112121, Note_off_c, 0, 92, 48
1, 112121, Control_c, 0, 64, 72
1, 112136, Control_c, 0, 64, 82
1, 112151, Control_c, 0, 64, 99
1, 112173, Control_c, 0, 64, 127
1, 112180, Note_off_c, 0, 84, 57
1, 112181, Note_on_c, 0, 87, 76
1, 112206, Note_on_c, 0, 72, 89
1, 112208, Note_on_c, 0, 96, 75
1, 112213, Note_on_c, 0, 66, 74
1, 112234, Note_on_c, 0, 63, 45
1, 112238, Note_off_c, 0, 66, 64
1, 112262, Note_off_c, 0, 63, 56
1, 112266, Note_off_c, 0, 96, 56
1, 112274, Note_off_c, 0, 72, 0
1, 112303, Note_on_c, 0, 72, 7
1, 112304, Note_on_c, 0, 84, 82
1, 112316, Note_on_c, 0, 66, 77
1, 112325, Note_on_c, 0, 63, 77
1, 112341, Note_on_c, 0, 90, 71
1, 112349, Note_off_c, 0, 72, 40
1, 112352, Note_off_c, 0, 84, 60
1, 112355, Note_off_c, 0, 66, 58
1, 112356, Note_off_c, 0, 63, 59
1, 112356, Note_off_c, 0, 87, 53
1, 112366, Control_c, 0, 64, 89
1, 112381, Control_c, 0, 64, 63
1, 112396, Control_c, 0, 64, 39
1, 112397, Note_off_c, 0, 90, 64
1, 112411, Control_c, 0, 64, 43
1, 112426, Control_c, 0, 64, 56
1, 112431, Note_on_c, 0, 85, 94
1, 112438, Note_on_c, 0, 58, 87
1, 112441, Control_c, 0, 64, 65
1, 112455, Control_c, 0, 64, 74
1, 112464, Note_on_c, 0, 87, 48
1, 112465, Note_off_c, 0, 87, 127
1, 112470, Control_c, 0, 64, 87
1, 112481, Note_off_c, 0, 58, 58
1, 112485, Control_c, 0, 64, 123
1, 112500, Control_c, 0, 64, 127
1, 112517, Note_off_c, 0, 85, 61
1, 112536, Note_on_c, 0, 88, 18
1, 112554, Note_on_c, 0, 73, 77
1, 112570, Note_on_c, 0, 97, 47
1, 112579, Note_off_c, 0, 73, 61
1, 112584, Note_on_c, 0, 94, 36
1, 112593, Note_off_c, 0, 88, 45
1, 112616, Note_on_c, 0, 85, 85
1, 112640, Note_off_c, 0, 97, 54
1, 112646, Note_on_c, 0, 73, 85
1, 112661, Note_on_c, 0, 64, 57
1, 112682, Note_off_c, 0, 73, 61
1, 112686, Note_off_c, 0, 85, 63
1, 112688, Note_off_c, 0, 94, 37
1, 112689, Note_on_c, 0, 67, 17
1, 112694, Note_off_c, 0, 64, 61
1, 112707, Control_c, 0, 64, 104
1, 112722, Control_c, 0, 64, 67
1, 112730, Note_off_c, 0, 67, 39
1, 112736, Control_c, 0, 64, 40
1, 112751, Control_c, 0, 64, 30
1, 112766, Control_c, 0, 64, 46
1, 112768, Note_on_c, 0, 86, 87
1, 112772, Note_on_c, 0, 60, 87
1, 112781, Control_c, 0, 64, 60
1, 112796, Control_c, 0, 64, 69
1, 112810, Control_c, 0, 64, 77
1, 112819, Note_off_c, 0, 86, 64
1, 112825, Control_c, 0, 64, 91
1, 112826, Note_off_c, 0, 60, 60
1, 112827, Note_on_c, 0, 89, 64
1, 112840, Control_c, 0, 64, 113
1, 112855, Control_c, 0, 64, 127
1, 112877, Note_on_c, 0, 98, 72
1, 112886, Note_on_c, 0, 74, 92
1, 112892, Note_on_c, 0, 68, 75
1, 112929, Note_off_c, 0, 74, 55
1, 112932, Note_off_c, 0, 68, 54
1, 112948, Note_off_c, 0, 89, 60
1, 112954, Note_off_c, 0, 98, 63
1, 112976, Note_on_c, 0, 86, 85
1, 112992, Note_on_c, 0, 65, 70
1, 113001, Note_on_c, 0, 74, 58
1, 113003, Note_on_c, 0, 68, 59
1, 113020, Note_on_c, 0, 92, 45
1, 113021, Note_off_c, 0, 74, 62
1, 113037, Note_off_c, 0, 68, 60
1, 113037, Note_off_c, 0, 86, 64
1, 113046, Note_off_c, 0, 65, 61
1, 113056, Control_c, 0, 64, 76
1, 113071, Control_c, 0, 64, 49
1, 113072, Note_off_c, 0, 92, 63
1, 113085, Control_c, 0, 64, 0
1, 113100, Control_c, 0, 64, 35
1, 113115, Control_c, 0, 64, 60
1, 113117, Note_on_c, 0, 60, 89
1, 113117, Note_on_c, 0, 87, 90
1, 113130, Control_c, 0, 64, 67
1, 113145, Control_c, 0, 64, 75
1, 113147, Note_on_c, 0, 90, 70
1, 113159, Control_c, 0, 64, 89
1, 113167, Note_off_c, 0, 60, 59
1, 113174, Control_c, 0, 64, 119
1, 113189, Control_c, 0, 64, 127
1, 113192, Note_off_c, 0, 87, 62
1, 113253, Note_on_c, 0, 99, 40
1, 113257, Note_on_c, 0, 75, 66
1, 113263, Note_off_c, 0, 90, 62
1, 113291, Note_on_c, 0, 87, 87
1, 113296, Note_off_c, 0, 99, 47
1, 113335, Note_on_c, 0, 66, 75
1, 113345, Note_on_c, 0, 69, 44
1, 113347, Note_on_c, 0, 93, 27
1, 113352, Note_off_c, 0, 75, 63
1, 113370, Note_off_c, 0, 69, 59
1, 113373, Note_off_c, 0, 87, 60
1, 113377, Note_on_c, 0, 68, 14
1, 113388, Note_off_c, 0, 66, 59
1, 113393, Note_off_c, 0, 93, 49
1, 113397, Control_c, 0, 64, 91
1, 113411, Control_c, 0, 64, 58
1, 113412, Note_off_c, 0, 68, 29
1, 113426, Control_c, 0, 64, 38
1, 113441, Control_c, 0, 64, 48
1, 113448, Note_on_c, 0, 88, 87
1, 113450, Note_on_c, 0, 61, 85
1, 113456, Control_c, 0, 64, 61
1, 113471, Control_c, 0, 64, 69
1, 113484, Note_off_c, 0, 61, 62
1, 113485, Control_c, 0, 64, 77
1, 113500, Control_c, 0, 64, 92
1, 113515, Note_on_c, 0, 91, 65
1, 113515, Control_c, 0, 64, 127
1, 113518, Note_off_c, 0, 88, 61
1, 113564, Note_on_c, 0, 100, 77
1, 113570, Note_on_c, 0, 76, 76
1, 113589, Note_on_c, 0, 70, 52
1, 113611, Note_off_c, 0, 70, 60
1, 113618, Note_off_c, 0, 100, 62
1, 113647, Note_on_c, 0, 88, 81
1, 113667, Note_on_c, 0, 70, 66
1, 113675, Note_on_c, 0, 67, 71
1, 113684, Note_off_c, 0, 91, 38
1, 113704, Note_off_c, 0, 67, 60
1, 113704, Note_off_c, 0, 70, 57
1, 113704, Note_on_c, 0, 94, 48
1, 113721, Note_off_c, 0, 76, 33
1, 113728, Note_off_c, 0, 88, 61
1, 113730, Control_c, 0, 64, 83
1, 113745, Control_c, 0, 64, 56
1, 113760, Control_c, 0, 64, 0
1, 113761, Note_off_c, 0, 94, 63
1, 113789, Control_c, 0, 64, 40
1, 113803, Note_on_c, 0, 61, 88
1, 113804, Control_c, 0, 64, 58
1, 113808, Note_on_c, 0, 88, 69
1, 113808, Note_on_c, 0, 89, 65
1, 113818, Control_c, 0, 64, 67
1, 113833, Note_off_c, 0, 61, 62
1, 113835, Control_c, 0, 64, 75
1, 113850, Control_c, 0, 64, 88
1, 113851, Note_off_c, 0, 88, 60
1, 113859, Note_off_c, 0, 89, 57
1, 113865, Control_c, 0, 64, 110
1, 113879, Control_c, 0, 64, 127
1, 113880, Note_on_c, 0, 95, 71
1, 113889, Note_on_c, 0, 94, 33
1, 113933, Note_on_c, 0, 101, 79
1, 113955, Note_off_c, 0, 94, 38
1, 113958, Note_on_c, 0, 77, 76
1, 113960, Note_on_c, 0, 68, 66
1, 113963, Note_on_c, 0, 99, 76
1, 113980, Note_off_c, 0, 95, 36
1, 113982, Note_off_c, 0, 77, 60
1, 113994, Note_off_c, 0, 68, 57
1, 114017, Note_off_c, 0, 101, 52
1, 114027, Note_on_c, 0, 97, 74
1, 114053, Note_off_c, 0, 99, 59
1, 114066, Note_on_c, 0, 77, 88
1, 114074, Note_on_c, 0, 68, 68
1, 114080, Note_on_c, 0, 96, 81
1, 114086, Note_on_c, 0, 71, 49
1, 114093, Note_off_c, 0, 97, 63
1, 114107, Note_off_c, 0, 71, 60
1, 114115, Note_off_c, 0, 68, 55
1, 114115, Note_off_c, 0, 77, 59
1, 114159, Note_on_c, 0, 95, 78
1, 114173, Note_on_c, 0, 77, 90
1, 114180, Note_on_c, 0, 71, 78
1, 114183, Note_on_c, 0, 68, 72
1, 114193, Note_off_c, 0, 96, 35
1, 114196, Note_on_c, 0, 94, 73
1, 114217, Note_off_c, 0, 68, 58
1, 114220, Note_off_c, 0, 71, 58
1, 114223, Note_off_c, 0, 77, 62
1, 114226, Note_off_c, 0, 95, 62
1, 114263, Note_on_c, 0, 97, 77
1, 114278, Note_on_c, 0, 77, 94
1, 114282, Note_off_c, 0, 94, 61
1, 114284, Note_on_c, 0, 70, 87
1, 114292, Note_on_c, 0, 68, 82
1, 114316, Note_off_c, 0, 68, 62
1, 114326, Note_off_c, 0, 77, 63
1, 114327, Note_off_c, 0, 70, 62
1, 114335, Note_off_c, 0, 97, 66
1, 114339, Note_on_c, 0, 95, 74
1, 114374, Note_on_c, 0, 91, 83
1, 114385, Note_on_c, 0, 77, 101
1, 114387, Note_off_c, 0, 95, 61
1, 114392, Note_on_c, 0, 70, 84
1, 114393, Note_on_c, 0, 68, 85
1, 114438, Note_off_c, 0, 77, 64
1, 114440, Note_off_c, 0, 68, 56
1, 114444, Note_off_c, 0, 70, 60
1, 114471, Note_off_c, 0, 91, 60
1, 114476, Note_on_c, 0, 92, 79
1, 114505, Note_on_c, 0, 77, 102
1, 114508, Control_c, 0, 64, 108
1, 114509, Note_on_c, 0, 68, 92
1, 114520, Note_on_c, 0, 71, 80
1, 114520, Note_on_c, 0, 94, 82
1, 114522, Control_c, 0, 64, 66
1, 114533, Note_off_c, 0, 77, 67
1, 114537, Control_c, 0, 64, 0
1, 114544, Note_off_c, 0, 71, 65
1, 114545, Note_off_c, 0, 92, 62
1, 114549, Note_on_c, 0, 69, 34
1, 114550, Note_off_c, 0, 69, 127
1, 114564, Note_off_c, 0, 68, 61
1, 114596, Note_on_c, 0, 92, 48
1, 114606, Note_off_c, 0, 94, 61
1, 114623, Note_on_c, 0, 88, 77
1, 114647, Note_off_c, 0, 92, 59
1, 114670, Note_on_c, 0, 89, 65
1, 114709, Note_off_c, 0, 88, 60
1, 114721, Note_on_c, 0, 94, 76
1, 114733, Note_on_c, 0, 92, 75
1, 114739, Note_off_c, 0, 89, 61
1, 114776, Control_c, 0, 64, 51
1, 114781, Note_off_c, 0, 94, 62
1, 114790, Note_off_c, 0, 92, 62
1, 114791, Control_c, 0, 64, 65
1, 114805, Control_c, 0, 64, 72
1, 114820, Control_c, 0, 64, 82
1, 114830, Note_on_c, 0, 90, 76
1, 114835, Control_c, 0, 64, 100
1, 114849, Note_on_c, 0, 61, 68
1, 114850, Control_c, 0, 64, 127
1, 114887, Note_on_c, 0, 94, 71
1, 114890, Note_off_c, 0, 61, 57
1, 114924, Note_on_c, 0, 99, 75
1, 114936, Note_off_c, 0, 90, 59
1, 114945, Note_on_c, 0, 97, 71
1, 114950, Note_on_c, 0, 66, 84
1, 114988, Note_off_c, 0, 99, 63
1, 114989, Note_off_c, 0, 94, 57
1, 115013, Note_off_c, 0, 66, 63
1, 115018, Note_off_c, 0, 97, 65
1, 115040, Note_on_c, 0, 70, 96
1, 115054, Note_on_c, 0, 85, 76
1, 115094, Note_off_c, 0, 70, 62
1, 115165, Note_off_c, 0, 85, 62
1, 115167, Note_on_c, 0, 74, 80
1, 115168, Note_on_c, 0, 73, 50
1, 115186, Note_on_c, 0, 88, 25
1, 115188, Note_off_c, 0, 74, 67
1, 115192, Note_off_c, 0, 73, 60
1, 115222, Note_off_c, 0, 88, 51
1, 115260, Note_on_c, 0, 82, 81
1, 115261, Note_on_c, 0, 78, 96
1, 115332, Note_off_c, 0, 78, 61
1, 115333, Note_off_c, 0, 82, 62
1, 115341, Note_on_c, 0, 87, 58
1, 115354, Note_on_c, 0, 82, 81
1, 115406, Control_c, 0, 64, 81
1, 115408, Note_off_c, 0, 87, 54
1, 115421, Control_c, 0, 64, 59
1, 115421, Note_off_c, 0, 82, 63
1, 115436, Control_c, 0, 64, 31
1, 115451, Control_c, 0, 64, 27
1, 115466, Note_on_c, 0, 84, 83
1, 115466, Control_c, 0, 64, 43
1, 115471, Note_on_c, 0, 81, 99
1, 115481, Control_c, 0, 64, 58
1, 115496, Control_c, 0, 64, 66
1, 115511, Control_c, 0, 64, 73
1, 115526, Control_c, 0, 64, 84
1, 115541, Control_c, 0, 64, 99
1, 115547, Note_off_c, 0, 81, 60
1, 115554, Note_on_c, 0, 87, 75
1, 115556, Control_c, 0, 64, 127
1, 115570, Note_on_c, 0, 78, 76
1, 115591, Note_off_c, 0, 84, 36
1, 115627, Note_off_c, 0, 78, 61
1, 115641, Note_on_c, 0, 92, 67
1, 115645, Note_on_c, 0, 90, 67
1, 115650, Note_off_c, 0, 87, 61
1, 115696, Note_on_c, 0, 72, 73
1, 115703, Control_c, 0, 64, 98
1, 115718, Control_c, 0, 64, 74
1, 115721, Note_on_c, 0, 87, 71
1, 115733, Control_c, 0, 64, 63
1, 115746, Note_off_c, 0, 72, 55
1, 115748, Control_c, 0, 64, 62
1, 115749, Note_off_c, 0, 90, 59
1, 115758, Note_off_c, 0, 92, 57
1, 115762, Control_c, 0, 64, 65
1, 115777, Control_c, 0, 64, 69
1, 115785, Note_on_c, 0, 61, 72
1, 115791, Note_on_c, 0, 89, 72
1, 115792, Control_c, 0, 64, 78
1, 115793, Note_off_c, 0, 87, 62
1, 115806, Control_c, 0, 64, 97
1, 115820, Note_off_c, 0, 61, 62
1, 115821, Control_c, 0, 64, 127
1, 115840, Note_off_c, 0, 89, 57
1, 115869, Note_on_c, 0, 94, 85
1, 115918, Note_on_c, 0, 77, 78
1, 115919, Note_on_c, 0, 68, 72
1, 115923, Note_on_c, 0, 101, 71
1, 115945, Note_off_c, 0, 77, 56
1, 115946, Note_on_c, 0, 71, 51
1, 115964, Note_off_c, 0, 68, 51
1, 115967, Note_off_c, 0, 71, 59
1, 115973, Note_off_c, 0, 94, 45
1, 115974, Note_on_c, 0, 99, 75
1, 116024, Note_on_c, 0, 77, 90
1, 116030, Note_off_c, 0, 101, 51
1, 116031, Note_on_c, 0, 68, 61
1, 116031, Note_on_c, 0, 97, 70
1, 116037, Note_on_c, 0, 71, 72
1, 116063, Note_off_c, 0, 68, 60
1, 116063, Note_off_c, 0, 99, 60
1, 116065, Note_off_c, 0, 71, 63
1, 116071, Note_off_c, 0, 77, 60
1, 116081, Note_on_c, 0, 96, 77
1, 116092, Note_off_c, 0, 97, 63
1, 116133, Note_on_c, 0, 77, 96
1, 116143, Note_on_c, 0, 68, 77
1, 116144, Note_on_c, 0, 71, 77
1, 116156, Note_on_c, 0, 95, 80
1, 116162, Note_off_c, 0, 68, 66
1, 116172, Note_off_c, 0, 96, 41
1, 116177, Note_off_c, 0, 71, 57
1, 116182, Note_off_c, 0, 77, 63
1, 116208, Note_on_c, 0, 94, 78
1, 116214, Note_off_c, 0, 95, 62
1, 116242, Note_on_c, 0, 77, 97
1, 116250, Note_on_c, 0, 68, 86
1, 116257, Note_on_c, 0, 71, 80
1, 116277, Note_on_c, 0, 97, 81
1, 116283, Note_off_c, 0, 71, 62
1, 116286, Note_off_c, 0, 94, 61
1, 116291, Note_off_c, 0, 77, 63
1, 116292, Note_off_c, 0, 68, 56
1, 116343, Poly_aftertouch_c, 0, 69, 0
1, 116350, Note_on_c, 0, 95, 73
1, 116354, Note_off_c, 0, 97, 65
1, 116355, Note_on_c, 0, 77, 96
1, 116360, Note_on_c, 0, 68, 85
1, 116360, Note_on_c, 0, 71, 82
1, 116379, Poly_aftertouch_c, 0, 69, 127
1, 116389, Note_on_c, 0, 69, 3
1, 116396, Note_on_c, 0, 91, 80
1, 116401, Note_off_c, 0, 77, 62
1, 116401, Note_off_c, 0, 95, 62
1, 116405, Note_off_c, 0, 71, 61
1, 116406, Note_off_c, 0, 68, 56
1, 116425, Note_off_c, 0, 69, 38
1, 116467, Control_c, 0, 64, 84
1, 116471, Note_on_c, 0, 77, 105
1, 116477, Note_on_c, 0, 68, 89
1, 116480, Note_on_c, 0, 92, 87
1, 116482, Note_on_c, 0, 71, 77
1, 116482, Control_c, 0, 64, 49
1, 116490, Note_off_c, 0, 91, 62
1, 116497, Control_c, 0, 64, 0
1, 116499, Note_off_c, 0, 77, 64
1, 116515, Note_on_c, 0, 69, 38
1, 116516, Note_off_c, 0, 71, 63
1, 116518, Note_on_c, 0, 94, 77
1, 116521, Note_off_c, 0, 68, 58
1, 116535, Note_off_c, 0, 92, 63
1, 116543, Note_off_c, 0, 69, 53
1, 116590, Note_on_c, 0, 92, 63
1, 116613, Note_off_c, 0, 94, 60
1, 116632, Note_on_c, 0, 88, 74
1, 116661, Note_off_c, 0, 92, 62
1, 116676, Note_on_c, 0, 89, 68
1, 116737, Note_on_c, 0, 94, 74
1, 116743, Note_on_c, 0, 92, 72
1, 116747, Note_off_c, 0, 88, 36
1, 116751, Note_off_c, 0, 89, 61
1, 116785, Control_c, 0, 64, 35
1, 116787, Note_off_c, 0, 94, 63
1, 116791, Note_off_c, 0, 92, 63
1, 116800, Control_c, 0, 64, 61
1, 116815, Control_c, 0, 64, 70
1, 116829, Control_c, 0, 64, 80
1, 116832, Note_on_c, 0, 90, 88
1, 116836, Note_on_c, 0, 61, 76
1, 116844, Control_c, 0, 64, 99
1, 116859, Control_c, 0, 64, 127
1, 116892, Note_on_c, 0, 94, 73
1, 116897, Note_off_c, 0, 61, 60
1, 116942, Note_on_c, 0, 99, 72
1, 116953, Note_on_c, 0, 66, 87
1, 116953, Note_off_c, 0, 90, 50
1, 116957, Note_on_c, 0, 97, 72
1, 116995, Note_off_c, 0, 94, 59
1, 117007, Note_off_c, 0, 99, 62
1, 117020, Note_off_c, 0, 66, 62
1, 117047, Note_off_c, 0, 97, 62
1, 117048, Note_on_c, 0, 70, 95
1, 117061, Note_on_c, 0, 85, 78
1, 117100, Note_off_c, 0, 70, 62
1, 117147, Note_on_c, 0, 73, 85
1, 117157, Note_on_c, 0, 92, 59
1, 117165, Note_off_c, 0, 85, 62
1, 117168, Note_on_c, 0, 90, 54
1, 117182, Note_on_c, 0, 89, 34
1, 117199, Note_off_c, 0, 73, 62
1, 117213, Note_off_c, 0, 89, 52
1, 117214, Note_off_c, 0, 90, 55
1, 117223, Note_off_c, 0, 92, 53
1, 117254, Note_on_c, 0, 82, 79
1, 117258, Note_on_c, 0, 78, 78
1, 117271, Note_on_c, 0, 77, 82
1, 117312, Note_off_c, 0, 78, 59
1, 117320, Note_off_c, 0, 77, 55
1, 117322, Note_off_c, 0, 82, 62
1, 117326, Note_on_c, 0, 87, 63
1, 117350, Note_on_c, 0, 82, 82
1, 117393, Poly_aftertouch_c, 0, 90, 127
1, 117393, Control_c, 0, 64, 84
1, 117413, Note_off_c, 0, 87, 53
1, 117416, Control_c, 0, 64, 60
1, 117420, Note_off_c, 0, 82, 64
1, 117431, Control_c, 0, 64, 22
1, 117445, Control_c, 0, 64, 0
1, 117458, Note_on_c, 0, 84, 86
1, 117464, Note_on_c, 0, 81, 101
1, 117475, Control_c, 0, 64, 40
1, 117490, Control_c, 0, 64, 57
1, 117494, Note_on_c, 0, 83, 49
1, 117495, Note_off_c, 0, 83, 127
1, 117505, Control_c, 0, 64, 67
1, 117520, Control_c, 0, 64, 73
1, 117520, Poly_aftertouch_c, 0, 90, 0
1, 117534, Control_c, 0, 64, 83
1, 117538, Note_on_c, 0, 87, 76
1, 117541, Note_off_c, 0, 84, 59
1, 117549, Control_c, 0, 64, 97
1, 117553, Note_off_c, 0, 81, 60
1, 117560, Note_on_c, 0, 78, 77
1, 117564, Control_c, 0, 64, 116
1, 117579, Control_c, 0, 64, 127
1, 117604, Note_on_c, 0, 92, 70
1, 117612, Note_on_c, 0, 90, 72
1, 117618, Note_off_c, 0, 78, 61
1, 117626, Note_off_c, 0, 87, 61
1, 117684, Note_on_c, 0, 72, 78
1, 117693, Note_on_c, 0, 87, 77
1, 117720, Note_off_c, 0, 90, 59
1, 117727, Control_c, 0, 64, 109
1, 117730, Note_off_c, 0, 92, 57
1, 117732, Note_off_c, 0, 72, 53
1, 117741, Control_c, 0, 64, 78
1, 117756, Control_c, 0, 64, 64
1, 117769, Note_off_c, 0, 87, 62
1, 117771, Control_c, 0, 64, 61
1, 117779, Note_on_c, 0, 61, 76
1, 117785, Control_c, 0, 64, 62
1, 117786, Note_on_c, 0, 89, 54
1, 117791, Note_on_c, 0, 88, 43
1, 117800, Control_c, 0, 64, 65
1, 117815, Control_c, 0, 64, 71
1, 117816, Note_off_c, 0, 88, 57
1, 117820, Note_off_c, 0, 89, 49
1, 117821, Note_off_c, 0, 61, 60
1, 117831, Control_c, 0, 64, 82
1, 117845, Note_on_c, 0, 94, 84
1, 117846, Control_c, 0, 64, 104
1, 117861, Control_c, 0, 64, 127
1, 117904, Note_on_c, 0, 77, 81
1, 117905, Note_on_c, 0, 68, 68
1, 117910, Note_on_c, 0, 101, 72
1, 117925, Note_on_c, 0, 71, 58
1, 117930, Note_off_c, 0, 94, 55
1, 117942, Note_off_c, 0, 68, 53
1, 117947, Note_on_c, 0, 99, 74
1, 117947, Note_off_c, 0, 71, 60
1, 117952, Note_off_c, 0, 77, 55
1, 117995, Note_on_c, 0, 97, 74
1, 118005, Note_off_c, 0, 101, 52
1, 118010, Note_on_c, 0, 77, 74
1, 118017, Note_on_c, 0, 71, 80
1, 118023, Note_on_c, 0, 68, 69
1, 118035, Note_off_c, 0, 99, 60
1, 118051, Note_on_c, 0, 96, 82
1, 118051, Note_off_c, 0, 68, 60
1, 118057, Note_off_c, 0, 77, 60
1, 118068, Note_off_c, 0, 71, 60
1, 118070, Note_off_c, 0, 97, 62
1, 118087, Poly_aftertouch_c, 0, 69, 127
1, 118098, Control_c, 0, 64, 112
1, 118113, Control_c, 0, 64, 72
1, 118114, Poly_aftertouch_c, 0, 69, 0
1, 118121, Note_on_c, 0, 77, 93
1, 118122, Note_on_c, 0, 95, 88
1, 118125, Poly_aftertouch_c, 0, 69, 0
1, 118125, Note_on_c, 0, 68, 92
1, 118125, Note_on_c, 0, 71, 75
1, 118128, Control_c, 0, 64, 48
1, 118138, Note_on_c, 0, 69, 48
1, 118143, Control_c, 0, 64, 0
1, 118164, Note_off_c, 0, 96, 52
1, 118171, Note_off_c, 0, 69, 62
1, 118171, Note_off_c, 0, 77, 63
1, 118177, Note_off_c, 0, 68, 58
1, 118181, Note_on_c, 0, 94, 85
1, 118187, Note_off_c, 0, 71, 59
1, 118193, Note_off_c, 0, 95, 62
1, 118250, Note_on_c, 0, 97, 83
1, 118275, Note_off_c, 0, 94, 60
1, 118303, Note_off_c, 0, 97, 67
1, 118305, Note_on_c, 0, 95, 64
1, 118343, Note_on_c, 0, 94, 76
1, 118353, Note_off_c, 0, 95, 57
1, 118377, Note_on_c, 0, 91, 76
1, 118378, Note_off_c, 0, 94, 64
1, 118445, Control_c, 0, 64, 50
1, 118451, Note_on_c, 0, 95, 95
1, 118459, Note_on_c, 0, 87, 96
1, 118460, Control_c, 0, 64, 68
1, 118475, Control_c, 0, 64, 81
1, 118477, Note_off_c, 0, 91, 64
1, 118489, Control_c, 0, 64, 122
1, 118504, Control_c, 0, 64, 127
1, 118526, Note_on_c, 0, 85, 67
1, 118536, Note_off_c, 0, 87, 61
1, 118548, Note_on_c, 0, 94, 45
1, 118557, Note_on_c, 0, 92, 73
1, 118561, Note_off_c, 0, 95, 59
1, 118578, Note_off_c, 0, 85, 61
1, 118587, Note_off_c, 0, 94, 48
1, 118600, Note_on_c, 0, 90, 58
1, 118620, Note_on_c, 0, 83, 74
1, 118623, Note_off_c, 0, 92, 60
1, 118636, Note_off_c, 0, 90, 63
1, 118647, Note_on_c, 0, 89, 69
1, 118690, Note_on_c, 0, 82, 73
1, 118691, Note_off_c, 0, 83, 58
1, 118712, Note_on_c, 0, 87, 80
1, 118738, Note_off_c, 0, 89, 56
1, 118751, Note_off_c, 0, 82, 60
1, 118754, Note_on_c, 0, 78, 72
1, 118757, Control_c, 0, 64, 91
1, 118772, Control_c, 0, 64, 66
1, 118787, Control_c, 0, 64, 54
1, 118790, Note_on_c, 0, 92, 93
1, 118802, Control_c, 0, 64, 57
1, 118803, Note_on_c, 0, 83, 95
1, 118808, Note_off_c, 0, 87, 37
1, 118817, Control_c, 0, 64, 65
1, 118831, Control_c, 0, 64, 71
1, 118833, Note_off_c, 0, 78, 59
1, 118846, Control_c, 0, 64, 84
1, 118861, Control_c, 0, 64, 109
1, 118876, Control_c, 0, 64, 127
1, 118877, Note_on_c, 0, 90, 73
1, 118883, Note_on_c, 0, 82, 66
1, 118894, Note_off_c, 0, 83, 54
1, 118905, Note_on_c, 0, 89, 63
1, 118907, Note_off_c, 0, 92, 60
1, 118922, Note_on_c, 0, 78, 71
1, 118935, Note_off_c, 0, 90, 61
1, 118936, Note_off_c, 0, 82, 59
1, 118960, Note_off_c, 0, 78, 58
1, 118978, Note_off_c, 0, 89, 56
1, 118997, Note_on_c, 0, 87, 74
1, 119025, Note_on_c, 0, 77, 63
1, 119049, Note_on_c, 0, 75, 74
1, 119050, Note_on_c, 0, 85, 75
1, 119068, Note_off_c, 0, 87, 61
1, 119071, Note_off_c, 0, 77, 55
1, 119076, Note_off_c, 0, 75, 64
1, 119091, Control_c, 0, 64, 88
1, 119105, Control_c, 0, 64, 64
1, 119109, Note_on_c, 0, 89, 79
1, 119120, Control_c, 0, 64, 57
1, 119127, Note_on_c, 0, 80, 89
1, 119132, Note_off_c, 0, 85, 64
1, 119135, Control_c, 0, 64, 64
1, 119149, Control_c, 0, 64, 70
1, 119164, Control_c, 0, 64, 81
1, 119179, Control_c, 0, 64, 102
1, 119187, Note_on_c, 0, 78, 65
1, 119194, Control_c, 0, 64, 127
1, 119195, Note_off_c, 0, 80, 59
1, 119197, Note_on_c, 0, 87, 69
1, 119219, Note_off_c, 0, 78, 62
1, 119223, Note_off_c, 0, 89, 56
1, 119247, Note_on_c, 0, 85, 55
1, 119260, Note_off_c, 0, 87, 61
1, 119266, Note_on_c, 0, 77, 60
1, 119283, Note_off_c, 0, 85, 63
1, 119290, Note_on_c, 0, 83, 74
1, 119322, Note_on_c, 0, 76, 15
1, 119326, Note_off_c, 0, 83, 54
1, 119341, Note_on_c, 0, 75, 71
1, 119343, Note_off_c, 0, 77, 55
1, 119365, Note_off_c, 0, 76, 41
1, 119368, Note_on_c, 0, 82, 74
1, 119404, Note_off_c, 0, 75, 60
1, 119407, Note_on_c, 0, 71, 66
1, 119421, Note_off_c, 0, 82, 58
1, 119432, Control_c, 0, 64, 99
1, 119443, Note_on_c, 0, 83, 87
1, 119446, Control_c, 0, 64, 73
1, 119461, Control_c, 0, 64, 63
1, 119471, Note_on_c, 0, 75, 82
1, 119476, Control_c, 0, 64, 65
1, 119491, Control_c, 0, 64, 69
1, 119492, Note_off_c, 0, 71, 54
1, 119506, Note_on_c, 0, 73, 72
1, 119506, Control_c, 0, 64, 76
1, 119520, Control_c, 0, 64, 90
1, 119535, Control_c, 0, 64, 127
1, 119536, Note_off_c, 0, 75, 61
1, 119543, Note_on_c, 0, 80, 66
1, 119570, Note_off_c, 0, 73, 62
1, 119577, Note_off_c, 0, 83, 36
1, 119580, Note_on_c, 0, 78, 64
1, 119601, Note_on_c, 0, 71, 74
1, 119617, Note_off_c, 0, 78, 58
1, 119637, Note_on_c, 0, 77, 58
1, 119638, Note_off_c, 0, 80, 34
1, 119674, Note_off_c, 0, 71, 59
1, 119675, Note_on_c, 0, 70, 73
1, 119715, Note_on_c, 0, 75, 78
1, 119734, Note_off_c, 0, 70, 58
1, 119734, Note_off_c, 0, 77, 55
1, 119738, Note_on_c, 0, 66, 67
1, 119765, Control_c, 0, 64, 93
1, 119780, Control_c, 0, 64, 65
1, 119789, Note_on_c, 0, 80, 81
1, 119794, Control_c, 0, 64, 38
1, 119798, Note_on_c, 0, 71, 87
1, 119809, Control_c, 0, 64, 22
1, 119811, Note_off_c, 0, 66, 53
1, 119812, Note_off_c, 0, 75, 36
1, 119824, Control_c, 0, 64, 37
1, 119839, Control_c, 0, 64, 60
1, 119854, Control_c, 0, 64, 69
1, 119868, Note_on_c, 0, 70, 64
1, 119869, Control_c, 0, 64, 77
1, 119884, Control_c, 0, 64, 89
1, 119885, Note_on_c, 0, 78, 70
1, 119890, Note_off_c, 0, 71, 52
1, 119892, Note_on_c, 0, 77, 62
1, 119899, Control_c, 0, 64, 103
1, 119910, Note_on_c, 0, 66, 70
1, 119914, Note_off_c, 0, 80, 56
1, 119914, Control_c, 0, 64, 127
1, 119922, Note_off_c, 0, 70, 55
1, 119931, Note_off_c, 0, 78, 60
1, 119947, Note_off_c, 0, 66, 58
1, 119985, Note_off_c, 0, 77, 54
1, 119994, Note_on_c, 0, 75, 76
1, 120009, Note_on_c, 0, 65, 63
1, 120033, Note_on_c, 0, 63, 71
1, 120053, Note_on_c, 0, 73, 75
1, 120063, Note_off_c, 0, 65, 54
1, 120069, Note_off_c, 0, 63, 60
1, 120069, Note_off_c, 0, 75, 60
1, 120105, Control_c, 0, 64, 80
1, 120110, Note_on_c, 0, 77, 81
1, 120119, Note_on_c, 0, 68, 79
1, 120120, Control_c, 0, 64, 62
1, 120134, Control_c, 0, 64, 58
1, 120137, Note_off_c, 0, 73, 63
1, 120149, Control_c, 0, 64, 63
1, 120164, Note_on_c, 0, 66, 71
1, 120164, Control_c, 0, 64, 67
1, 120179, Control_c, 0, 64, 74
1, 120188, Note_off_c, 0, 68, 58
1, 120194, Control_c, 0, 64, 88
1, 120198, Note_on_c, 0, 75, 69
1, 120209, Control_c, 0, 64, 110
1, 120224, Control_c, 0, 64, 127
1, 120226, Note_off_c, 0, 66, 59
1, 120230, Note_off_c, 0, 77, 55
1, 120249, Note_on_c, 0, 73, 61
1, 120256, Note_on_c, 0, 65, 69
1, 120265, Note_off_c, 0, 75, 61
1, 120288, Note_off_c, 0, 73, 61
1, 120295, Note_on_c, 0, 71, 69
1, 120331, Note_on_c, 0, 63, 68
1, 120335, Note_off_c, 0, 71, 52
1, 120337, Note_off_c, 0, 65, 53
1, 120370, Note_on_c, 0, 70, 73
1, 120397, Note_off_c, 0, 63, 54
1, 120398, Note_on_c, 0, 59, 65
1, 120409, Control_c, 0, 64, 103
1, 120423, Note_off_c, 0, 70, 56
1, 120424, Control_c, 0, 64, 75
1, 120439, Control_c, 0, 64, 60
1, 120452, Note_on_c, 0, 71, 87
1, 120454, Control_c, 0, 64, 57
1, 120468, Note_off_c, 0, 59, 51
1, 120469, Note_on_c, 0, 63, 82
1, 120469, Control_c, 0, 64, 61
1, 120483, Control_c, 0, 64, 65
1, 120498, Control_c, 0, 64, 71
1, 120503, Note_on_c, 0, 61, 67
1, 120513, Control_c, 0, 64, 83
1, 120528, Control_c, 0, 64, 104
1, 120540, Note_off_c, 0, 63, 58
1, 120543, Control_c, 0, 64, 127
1, 120548, Note_off_c, 0, 71, 56
1, 120553, Note_on_c, 0, 68, 61
1, 120570, Note_off_c, 0, 61, 56
1, 120584, Note_on_c, 0, 66, 61
1, 120602, Note_on_c, 0, 59, 69
1, 120620, Note_off_c, 0, 66, 58
1, 120623, Note_off_c, 0, 68, 38
1, 120640, Note_on_c, 0, 65, 65
1, 120671, Note_off_c, 0, 59, 58
1, 120673, Note_on_c, 0, 58, 66
1, 120709, Note_on_c, 0, 63, 71
1, 120721, Control_c, 0, 64, 105
1, 120729, Note_off_c, 0, 58, 52
1, 120734, Note_off_c, 0, 65, 54
1, 120736, Control_c, 0, 64, 76
1, 120741, Note_on_c, 0, 54, 68
1, 120749, Note_off_c, 0, 63, 61
1, 120750, Control_c, 0, 64, 58
1, 120765, Control_c, 0, 64, 49
1, 120780, Control_c, 0, 64, 55
1, 120790, Note_on_c, 0, 68, 83
1, 120794, Control_c, 0, 64, 64
1, 120800, Note_on_c, 0, 59, 84
1, 120809, Control_c, 0, 64, 71
1, 120822, Note_off_c, 0, 54, 60
1, 120824, Control_c, 0, 64, 82
1, 120839, Control_c, 0, 64, 103
1, 120854, Control_c, 0, 64, 127
1, 120859, Note_on_c, 0, 58, 74
1, 120868, Note_on_c, 0, 66, 74
1, 120888, Note_off_c, 0, 59, 55
1, 120897, Note_off_c, 0, 68, 55
1, 120927, Note_off_c, 0, 66, 62
1, 120929, Note_on_c, 0, 65, 57
1, 120940, Note_on_c, 0, 56, 60
1, 120942, Note_on_c, 0, 54, 69
1, 120950, Note_off_c, 0, 58, 56
1, 120986, Note_off_c, 0, 56, 58
1, 120999, Note_on_c, 0, 63, 71
1, 121001, Note_on_c, 0, 53, 71
1, 121002, Note_off_c, 0, 65, 58
1, 121053, Note_on_c, 0, 61, 67
1, 121058, Note_on_c, 0, 56, 65
1, 121062, Control_c, 0, 64, 88
1, 121077, Control_c, 0, 64, 63
1, 121091, Note_on_c, 0, 58, 70
1, 121091, Control_c, 0, 64, 35
1, 121094, Note_off_c, 0, 53, 57
1, 121100, Note_off_c, 0, 54, 57
1, 121103, Note_off_c, 0, 63, 60
1, 121106, Note_off_c, 0, 56, 58
1, 121106, Control_c, 0, 64, 17
1, 121120, Note_on_c, 0, 65, 87
1, 121121, Control_c, 0, 64, 28
1, 121136, Control_c, 0, 64, 49
1, 121137, Note_off_c, 0, 61, 61
1, 121153, Note_on_c, 0, 59, 85
1, 121158, Control_c, 0, 64, 61
1, 121173, Note_off_c, 0, 58, 60
1, 121173, Control_c, 0, 64, 70
1, 121188, Control_c, 0, 64, 77
1, 121203, Control_c, 0, 64, 88
1, 121216, Note_on_c, 0, 66, 83
1, 121218, Control_c, 0, 64, 101
1, 121230, Note_on_c, 0, 61, 82
1, 121232, Control_c, 0, 64, 115
1, 121236, Note_off_c, 0, 59, 60
1, 121247, Control_c, 0, 64, 127
1, 121253, Note_off_c, 0, 65, 58
1, 121279, Note_on_c, 0, 68, 78
1, 121303, Note_off_c, 0, 61, 59
1, 121307, Note_on_c, 0, 63, 80
1, 121315, Note_off_c, 0, 66, 59
1, 121350, Note_on_c, 0, 70, 78
1, 121365, Note_on_c, 0, 61, 62
1, 121391, Note_off_c, 0, 63, 57
1, 121395, Control_c, 0, 64, 104
1, 121398, Note_off_c, 0, 68, 57
1, 121410, Control_c, 0, 64, 75
1, 121425, Control_c, 0, 64, 57
1, 121426, Note_off_c, 0, 61, 59
1, 121434, Note_off_c, 0, 70, 58
1, 121440, Control_c, 0, 64, 43
1, 121443, Note_on_c, 0, 71, 81
1, 121449, Note_on_c, 0, 59, 82
1, 121470, Control_c, 0, 64, 51
1, 121485, Control_c, 0, 64, 60
1, 121500, Control_c, 0, 64, 68
1, 121509, Note_on_c, 0, 73, 83
1, 121514, Control_c, 0, 64, 75
1, 121515, Note_off_c, 0, 59, 58
1, 121517, Note_on_c, 0, 58, 76
1, 121518, Note_off_c, 0, 71, 57
1, 121529, Control_c, 0, 64, 85
1, 121544, Control_c, 0, 64, 95
1, 121559, Control_c, 0, 64, 101
1, 121562, Note_on_c, 0, 54, 76
1, 121566, Note_off_c, 0, 58, 55
1, 121571, Note_on_c, 0, 75, 82
1, 121574, Control_c, 0, 64, 106
1, 121579, Note_off_c, 0, 73, 63
1, 121589, Control_c, 0, 64, 112
1, 121604, Control_c, 0, 64, 123
1, 121618, Control_c, 0, 64, 127
1, 121622, Note_off_c, 0, 54, 56
1, 121640, Note_off_c, 0, 75, 62
1, 121642, Note_on_c, 0, 53, 91
1, 121642, Note_on_c, 0, 77, 96
1, 121714, Note_on_c, 0, 78, 91
1, 121725, Note_on_c, 0, 51, 82
1, 121736, Note_off_c, 0, 77, 54
1, 121766, Note_on_c, 0, 49, 74
1, 121769, Note_off_c, 0, 53, 35
1, 121770, Note_off_c, 0, 51, 59
1, 121774, Note_on_c, 0, 80, 82
1, 121798, Note_off_c, 0, 78, 59
1, 121801, Note_off_c, 0, 49, 61
1, 121820, Note_on_c, 0, 82, 76
1, 121840, Note_on_c, 0, 47, 88
1, 121848, Note_off_c, 0, 80, 59
1, 121872, Note_off_c, 0, 82, 64
1, 121902, Note_on_c, 0, 83, 72
1, 121920, Note_off_c, 0, 47, 56
1, 121925, Note_on_c, 0, 46, 81
1, 121949, Note_on_c, 0, 85, 82
1, 121952, Note_off_c, 0, 83, 59
1, 121973, Note_off_c, 0, 85, 65
1, 121982, Note_off_c, 0, 46, 61
1, 121997, Note_on_c, 0, 41, 66
1, 122012, Control_c, 0, 64, 111
1, 122027, Control_c, 0, 64, 80
1, 122042, Control_c, 0, 64, 61
1, 122053, Note_on_c, 0, 53, 89
1, 122056, Control_c, 0, 64, 41
1, 122071, Control_c, 0, 64, 30
1, 122072, Note_on_c, 0, 83, 92
1, 122081, Note_on_c, 0, 95, 74
1, 122084, Note_on_c, 0, 93, 76
1, 122086, Control_c, 0, 64, 23
1, 122096, Note_off_c, 0, 83, 65
1, 122096, Note_off_c, 0, 95, 68
1, 122099, Note_off_c, 0, 41, 63
1, 122099, Note_off_c, 0, 53, 57
1, 122101, Note_off_c, 0, 93, 68
1, 122170, Note_on_c, 0, 51, 88
1, 122171, Note_on_c, 0, 84, 96
1, 122174, Note_on_c, 0, 96, 87
1, 122174, Control_c, 0, 64, 22
1, 122175, Note_on_c, 0, 95, 77
1, 122177, Note_on_c, 0, 39, 84
1, 122189, Control_c, 0, 64, 19
1, 122198, Note_off_c, 0, 96, 63
1, 122201, Note_off_c, 0, 51, 62
1, 122203, Note_off_c, 0, 84, 60
1, 122203, Note_off_c, 0, 95, 62
1, 122204, Control_c, 0, 64, 18
1, 122205, Note_off_c, 0, 39, 66
1, 122219, Control_c, 0, 64, 17
1, 122234, Control_c, 0, 64, 16
1, 122265, Note_on_c, 0, 49, 89
1, 122273, Note_on_c, 0, 37, 86
1, 122278, Note_on_c, 0, 87, 94
1, 122282, Note_on_c, 0, 97, 86
1, 122293, Control_c, 0, 64, 16
1, 122297, Note_on_c, 0, 86, 68
1, 122298, Note_off_c, 0, 86, 127
1, 122298, Note_on_c, 0, 98, 66
1, 122298, Note_off_c, 0, 97, 66
1, 122298, Note_off_c, 0, 87, 63
1, 122301, Note_off_c, 0, 37, 68
1, 122304, Note_off_c, 0, 49, 60
1, 122314, Note_off_c, 0, 98, 69
1, 122379, Note_on_c, 0, 47, 94
1, 122383, Note_on_c, 0, 35, 85
1, 122385, Note_on_c, 0, 88, 83
1, 122389, Note_on_c, 0, 99, 80
1, 122398, Note_on_c, 0, 100, 70
1, 122402, Note_off_c, 0, 88, 73
1, 122404, Note_off_c, 0, 99, 69
1, 122411, Note_off_c, 0, 35, 63
1, 122413, Note_off_c, 0, 47, 62
1, 122415, Note_on_c, 0, 45, 42
1, 122416, Note_off_c, 0, 45, 127
1, 122417, Note_on_c, 0, 89, 38
1, 122418, Note_off_c, 0, 89, 127
1, 122418, Note_off_c, 0, 100, 64
1, 122456, Control_c, 0, 64, 20
1, 122471, Control_c, 0, 64, 34
1, 122479, Note_on_c, 0, 85, 94
1, 122480, Note_on_c, 0, 97, 91
1, 122483, Note_on_c, 0, 46, 91
1, 122486, Control_c, 0, 64, 43
1, 122497, Note_on_c, 0, 34, 81
1, 122500, Control_c, 0, 64, 44
1, 122505, Note_off_c, 0, 85, 66
1, 122515, Control_c, 0, 64, 43
1, 122516, Note_off_c, 0, 97, 67
1, 122522, Note_off_c, 0, 34, 66
1, 122528, Note_off_c, 0, 46, 59
1, 122530, Control_c, 0, 64, 34
1, 122545, Control_c, 0, 64, 0
1, 122588, Note_on_c, 0, 101, 99
1, 122589, Note_on_c, 0, 89, 87
1, 122590, Note_on_c, 0, 44, 92
1, 122596, Note_on_c, 0, 32, 82
1, 122612, Note_on_c, 0, 100, 56
1, 122613, Note_off_c, 0, 100, 127
1, 122617, Note_off_c, 0, 89, 59
1, 122620, Note_off_c, 0, 44, 65
1, 122622, Note_off_c, 0, 32, 65
1, 122623, Note_off_c, 0, 101, 58
1, 122686, Control_c, 0, 64, 59
1, 122701, Note_on_c, 0, 90, 102
1, 122701, Control_c, 0, 64, 127
1, 122704, Note_on_c, 0, 42, 96
1, 122706, Note_on_c, 0, 102, 92
1, 122711, Note_on_c, 0, 30, 88
1, 122714, Note_on_c, 0, 89, 87
1, 122719, Note_on_c, 0, 99, 70
1, 122720, Note_off_c, 0, 99, 127
1, 122722, Note_on_c, 0, 32, 44
1, 122722, Note_off_c, 0, 102, 72
1, 122726, Note_on_c, 0, 101, 67
1, 122727, Note_off_c, 0, 89, 76
1, 122733, Note_on_c, 0, 43, 60
1, 122734, Note_off_c, 0, 90, 64
1, 122735, Note_off_c, 0, 30, 67
1, 122744, Note_off_c, 0, 101, 63
1, 122755, Note_off_c, 0, 42, 59
1, 122756, Note_off_c, 0, 32, 32
1, 122757, Note_off_c, 0, 43, 59
1, 122861, Poly_aftertouch_c, 0, 30, 127
1, 122889, Poly_aftertouch_c, 0, 30, 0
1, 122951, Note_on_c, 0, 42, 3
1, 122987, Note_off_c, 0, 42, 49
1, 123042, Control_c, 0, 64, 113
1, 123057, Control_c, 0, 64, 67
1, 123059, Note_on_c, 0, 42, 73
1, 123071, Control_c, 0, 64, 0
1, 123101, Control_c, 0, 67, 31
1, 123114, Note_off_c, 0, 42, 58
1, 123115, Control_c, 0, 67, 76
1, 123130, Control_c, 0, 67, 124
1, 123145, Control_c, 0, 67, 127
1, 123172, Note_on_c, 0, 42, 62
1, 123214, Note_off_c, 0, 42, 63
1, 123276, Note_on_c, 0, 42, 59
1, 123312, Note_off_c, 0, 42, 63
1, 123395, Note_on_c, 0, 43, 66
1, 123436, Note_off_c, 0, 43, 63
1, 123520, Note_on_c, 0, 43, 54
1, 123546, Note_off_c, 0, 43, 58
1, 123630, Note_on_c, 0, 43, 41
1, 123661, Note_off_c, 0, 43, 47
1, 123726, Note_on_c, 0, 59, 61
1, 123726, Note_on_c, 0, 61, 54
1, 123730, Note_on_c, 0, 40, 54
1, 123753, Note_off_c, 0, 61, 61
1, 123753, Note_off_c, 0, 59, 62
1, 123770, Note_off_c, 0, 40, 60
1, 123826, Note_on_c, 0, 59, 68
1, 123829, Note_on_c, 0, 61, 63
1, 123842, Note_on_c, 0, 40, 55
1, 123855, Note_off_c, 0, 59, 65
1, 123857, Note_off_c, 0, 61, 65
1, 123878, Note_off_c, 0, 40, 63
1, 123926, Note_on_c, 0, 59, 58
1, 123936, Note_on_c, 0, 61, 55
1, 123944, Note_on_c, 0, 40, 56
1, 123947, Note_off_c, 0, 59, 61
1, 123957, Note_off_c, 0, 61, 60
1, 123983, Note_off_c, 0, 40, 60
1, 124026, Note_on_c, 0, 61, 69
1, 124030, Note_on_c, 0, 58, 64
1, 124037, Note_on_c, 0, 42, 65
1, 124048, Note_off_c, 0, 61, 67
1, 124051, Note_off_c, 0, 58, 61
1, 124081, Note_off_c, 0, 42, 59
1, 124159, Note_on_c, 0, 42, 55
1, 124194, Note_off_c, 0, 42, 62
1, 124245, Note_on_c, 0, 42, 53
1, 124278, Note_off_c, 0, 42, 61
1, 124346, Note_on_c, 0, 58, 66
1, 124346, Note_on_c, 0, 66, 72
1, 124363, Note_on_c, 0, 37, 61
1, 124366, Note_off_c, 0, 58, 64
1, 124367, Note_off_c, 0, 66, 69
1, 124410, Note_off_c, 0, 37, 59
1, 124464, Note_on_c, 0, 37, 47
1, 124507, Note_off_c, 0, 37, 61
1, 124557, Note_on_c, 0, 37, 48
1, 124594, Note_off_c, 0, 37, 63
1, 124669, Note_on_c, 0, 38, 60
1, 124713, Note_off_c, 0, 38, 63
1, 124776, Note_on_c, 0, 38, 54
1, 124816, Note_off_c, 0, 38, 61
1, 124868, Note_on_c, 0, 38, 62
1, 124915, Note_off_c, 0, 38, 59
1, 124975, Note_on_c, 0, 68, 62
1, 124980, Note_on_c, 0, 65, 52
1, 124985, Note_on_c, 0, 35, 60
1, 124986, Note_on_c, 0, 62, 47
1, 125000, Note_off_c, 0, 68, 64
1, 125003, Note_off_c, 0, 65, 60
1, 125014, Note_off_c, 0, 62, 55
1, 125020, Note_off_c, 0, 35, 61
1, 125076, Note_on_c, 0, 68, 67
1, 125083, Note_on_c, 0, 65, 48
1, 125083, Note_on_c, 0, 62, 66
1, 125102, Note_off_c, 0, 68, 64
1, 125106, Note_on_c, 0, 35, 51
1, 125109, Note_off_c, 0, 65, 59
1, 125111, Note_off_c, 0, 62, 61
1, 125139, Note_off_c, 0, 35, 47
1, 125171, Note_on_c, 0, 66, 75
1, 125174, Note_on_c, 0, 62, 69
1, 125193, Note_off_c, 0, 62, 63
1, 125193, Note_off_c, 0, 66, 66
1, 125198, Note_on_c, 0, 35, 55
1, 125235, Note_off_c, 0, 35, 57
1, 125288, Note_on_c, 0, 37, 63
1, 125298, Note_on_c, 0, 70, 65
1, 125299, Note_on_c, 0, 66, 59
1, 125300, Note_on_c, 0, 61, 57
1, 125315, Note_off_c, 0, 70, 65
1, 125318, Note_off_c, 0, 66, 62
1, 125321, Note_off_c, 0, 61, 61
1, 125327, Note_off_c, 0, 37, 64
1, 125397, Note_on_c, 0, 37, 64
1, 125438, Note_off_c, 0, 37, 63
1, 125487, Note_on_c, 0, 37, 58
1, 125521, Note_off_c, 0, 37, 62
1, 125583, Note_on_c, 0, 61, 67
1, 125584, Note_on_c, 0, 73, 72
1, 125596, Note_on_c, 0, 42, 66
1, 125606, Note_off_c, 0, 73, 68
1, 125610, Note_off_c, 0, 61, 65
1, 125627, Note_on_c, 0, 70, 10
1, 125628, Note_off_c, 0, 70, 127
1, 125645, Note_off_c, 0, 42, 60
1, 125720, Note_on_c, 0, 42, 60
1, 125760, Note_off_c, 0, 42, 64
1, 125831, Note_on_c, 0, 42, 49
1, 125857, Note_off_c, 0, 42, 58
1, 125925, Note_on_c, 0, 43, 59
1, 125961, Note_off_c, 0, 43, 59
1, 126023, Note_on_c, 0, 43, 58
1, 126062, Note_off_c, 0, 43, 61
1, 126126, Note_on_c, 0, 43, 62
1, 126160, Note_off_c, 0, 43, 61
1, 126212, Note_on_c, 0, 71, 65
1, 126214, Note_on_c, 0, 73, 63
1, 126227, Note_on_c, 0, 40, 56
1, 126228, Note_on_c, 0, 67, 48
1, 126238, Note_off_c, 0, 71, 66
1, 126242, Note_off_c, 0, 73, 65
1, 126253, Note_off_c, 0, 67, 53
1, 126262, Note_off_c, 0, 40, 62
1, 126316, Note_on_c, 0, 73, 63
1, 126326, Note_on_c, 0, 67, 61
1, 126334, Note_off_c, 0, 73, 64
1, 126338, Note_on_c, 0, 40, 59
1, 126343, Note_on_c, 0, 71, 25
1, 126346, Note_off_c, 0, 67, 62
1, 126367, Note_off_c, 0, 40, 60
1, 126379, Note_off_c, 0, 71, 31
1, 126409, Note_on_c, 0, 73, 76
1, 126430, Note_on_c, 0, 67, 57
1, 126440, Note_on_c, 0, 40, 54
1, 126446, Note_off_c, 0, 73, 53
1, 126450, Note_off_c, 0, 67, 60
1, 126472, Note_off_c, 0, 40, 61
1, 126523, Note_on_c, 0, 73, 73
1, 126531, Note_on_c, 0, 42, 66
1, 126531, Note_on_c, 0, 66, 58
1, 126546, Note_off_c, 0, 73, 69
1, 126550, Note_off_c, 0, 66, 63
1, 126556, Note_on_c, 0, 70, 11
1, 126557, Note_off_c, 0, 70, 127
1, 126571, Note_off_c, 0, 42, 62
1, 126645, Note_on_c, 0, 42, 55
1, 126670, Note_off_c, 0, 42, 60
1, 126728, Note_on_c, 0, 42, 58
1, 126766, Note_off_c, 0, 42, 61
1, 126825, Note_on_c, 0, 66, 59
1, 126829, Note_on_c, 0, 78, 66
1, 126834, Note_on_c, 0, 37, 63
1, 126837, Note_on_c, 0, 70, 43
1, 126844, Note_off_c, 0, 66, 63
1, 126845, Note_off_c, 0, 78, 65
1, 126863, Note_off_c, 0, 70, 36
1, 126884, Note_off_c, 0, 37, 59
1, 126937, Note_on_c, 0, 37, 49
1, 126972, Note_off_c, 0, 37, 62
1, 127031, Note_on_c, 0, 37, 57
1, 127068, Note_off_c, 0, 37, 63
1, 127147, Note_on_c, 0, 38, 62
1, 127190, Note_off_c, 0, 38, 61
1, 127257, Note_on_c, 0, 38, 50
1, 127290, Note_off_c, 0, 38, 58
1, 127333, Note_on_c, 0, 38, 56
1, 127379, Note_off_c, 0, 38, 62
1, 127423, Note_on_c, 0, 80, 69
1, 127432, Note_on_c, 0, 77, 53
1, 127433, Note_on_c, 0, 74, 56
1, 127443, Note_on_c, 0, 35, 59
1, 127446, Note_off_c, 0, 80, 65
1, 127453, Note_off_c, 0, 77, 61
1, 127455, Note_off_c, 0, 74, 60
1, 127480, Note_off_c, 0, 35, 61
1, 127528, Note_on_c, 0, 74, 73
1, 127530, Note_on_c, 0, 80, 68
1, 127533, Note_on_c, 0, 77, 50
1, 127553, Note_off_c, 0, 80, 65
1, 127555, Note_on_c, 0, 35, 57
1, 127555, Note_off_c, 0, 77, 58
1, 127558, Note_off_c, 0, 74, 63
1, 127587, Note_off_c, 0, 35, 60
1, 127610, Note_on_c, 0, 80, 81
1, 127614, Note_on_c, 0, 74, 68
1, 127641, Note_on_c, 0, 35, 55
1, 127641, Note_off_c, 0, 74, 66
1, 127643, Note_off_c, 0, 80, 53
1, 127649, Note_on_c, 0, 78, 28
1, 127680, Note_off_c, 0, 35, 61
1, 127683, Note_off_c, 0, 78, 33
1, 127726, Note_on_c, 0, 82, 74
1, 127733, Note_on_c, 0, 73, 57
1, 127733, Note_on_c, 0, 37, 66
1, 127737, Note_on_c, 0, 78, 47
1, 127744, Note_off_c, 0, 82, 64
1, 127753, Note_off_c, 0, 73, 63
1, 127761, Note_off_c, 0, 78, 57
1, 127777, Note_off_c, 0, 37, 62
1, 127840, Note_on_c, 0, 37, 62
1, 127890, Note_off_c, 0, 37, 62
1, 127929, Note_on_c, 0, 37, 52
1, 127960, Note_off_c, 0, 37, 64
1, 128024, Note_on_c, 0, 82, 74
1, 128025, Note_on_c, 0, 85, 70
1, 128027, Note_on_c, 0, 73, 73
1, 128040, Note_on_c, 0, 42, 65
1, 128040, Note_off_c, 0, 73, 70
1, 128045, Note_off_c, 0, 82, 68
1, 128048, Note_off_c, 0, 85, 68
1, 128081, Note_off_c, 0, 42, 63
1, 128141, Note_on_c, 0, 42, 55
1, 128190, Note_off_c, 0, 42, 58
1, 128230, Note_on_c, 0, 42, 56
1, 128269, Note_off_c, 0, 42, 65
1, 128335, Note_on_c, 0, 38, 64
1, 128379, Note_off_c, 0, 38, 61
1, 128442, Note_on_c, 0, 38, 50
1, 128472, Note_off_c, 0, 38, 57
1, 128527, Note_on_c, 0, 38, 52
1, 128564, Note_off_c, 0, 38, 61
1, 128609, Note_on_c, 0, 89, 76
1, 128613, Note_on_c, 0, 80, 62
1, 128624, Note_on_c, 0, 77, 51
1, 128641, Note_on_c, 0, 35, 61
1, 128647, Note_off_c, 0, 80, 62
1, 128653, Note_off_c, 0, 77, 59
1, 128666, Note_off_c, 0, 89, 54
1, 128681, Note_off_c, 0, 35, 61
1, 128751, Note_on_c, 0, 35, 51
1, 128779, Note_off_c, 0, 35, 56
1, 128837, Note_on_c, 0, 35, 58
1, 128871, Note_off_c, 0, 35, 62
1, 128930, Note_on_c, 0, 37, 64
1, 128969, Note_off_c, 0, 37, 64
1, 129043, Note_on_c, 0, 37, 57
1, 129075, Note_off_c, 0, 37, 62
1, 129132, Note_on_c, 0, 37, 53
1, 129166, Note_off_c, 0, 37, 61
1, 129220, Note_on_c, 0, 90, 75
1, 129227, Note_on_c, 0, 82, 58
1, 129229, Note_on_c, 0, 78, 60
1, 129243, Note_on_c, 0, 42, 63
1, 129246, Note_off_c, 0, 82, 63
1, 129252, Note_off_c, 0, 78, 59
1, 129265, Note_off_c, 0, 90, 54
1, 129278, Note_off_c, 0, 42, 64
1, 129345, Note_on_c, 0, 42, 54
1, 129368, Note_off_c, 0, 42, 59
1, 129439, Note_on_c, 0, 42, 51
1, 129476, Note_off_c, 0, 42, 62
1, 129539, Note_on_c, 0, 38, 63
1, 129582, Note_off_c, 0, 38, 62
1, 129649, Note_on_c, 0, 38, 51
1, 129681, Note_off_c, 0, 38, 55
1, 129727, Note_on_c, 0, 38, 64
1, 129770, Note_off_c, 0, 38, 58
1, 129853, Note_on_c, 0, 35, 56
1, 129853, Note_on_c, 0, 80, 67
1, 129856, Note_on_c, 0, 92, 65
1, 129860, Note_on_c, 0, 89, 56
1, 129888, Note_off_c, 0, 35, 62
1, 129893, Note_off_c, 0, 89, 63
1, 129897, Note_off_c, 0, 80, 49
1, 129903, Note_off_c, 0, 92, 52
1, 129971, Note_on_c, 0, 35, 49
1, 130001, Note_off_c, 0, 35, 50
1, 130049, Note_on_c, 0, 35, 55
1, 130084, Note_off_c, 0, 35, 62
1, 130168, Note_on_c, 0, 38, 65
1, 130198, Note_off_c, 0, 38, 63
1, 130273, Note_on_c, 0, 38, 65
1, 130313, Note_off_c, 0, 38, 59
1, 130386, Note_on_c, 0, 38, 68
1, 130429, Note_off_c, 0, 38, 58
1, 130607, Note_on_c, 0, 38, 10
1, 130663, Note_off_c, 0, 38, 59
1, 130684, Note_on_c, 0, 81, 53
1, 130719, Note_on_c, 0, 38, 50
1, 130735, Note_on_c, 0, 86, 62
1, 130752, Note_off_c, 0, 81, 50
1, 130764, Note_on_c, 0, 89, 65
1, 130779, Note_off_c, 0, 38, 54
1, 130817, Note_off_c, 0, 86, 44
1, 130821, Note_on_c, 0, 93, 76
1, 130844, Note_off_c, 0, 89, 60
1, 130852, Note_on_c, 0, 35, 52
1, 130871, Note_off_c, 0, 93, 60
1, 130897, Note_off_c, 0, 35, 62
1, 130994, Note_on_c, 0, 35, 62
1, 131035, Note_off_c, 0, 35, 58
1, 131132, Note_on_c, 0, 35, 45
1, 131167, Note_off_c, 0, 35, 51
1, 131269, Note_on_c, 0, 35, 53
1, 131313, Note_off_c, 0, 35, 62
1, 131414, Note_on_c, 0, 35, 63
1, 131459, Note_off_c, 0, 35, 61
1, 131554, Note_on_c, 0, 86, 42
1, 131563, Note_on_c, 0, 35, 54
1, 131612, Note_off_c, 0, 35, 55
1, 131617, Note_on_c, 0, 90, 68
1, 131637, Note_off_c, 0, 86, 52
1, 131706, Note_off_c, 0, 90, 0
1, 131721, Note_on_c, 0, 98, 72
1, 131722, Note_on_c, 0, 30, 62
1, 131731, Note_on_c, 0, 94, 60
1, 131732, Control_c, 0, 64, 41
1, 131733, Poly_aftertouch_c, 0, 90, 0
1, 131747, Control_c, 0, 64, 60
1, 131760, Note_off_c, 0, 94, 64
1, 131761, Control_c, 0, 64, 68
1, 131763, Note_off_c, 0, 30, 65
1, 131772, Note_off_c, 0, 98, 57
1, 131776, Control_c, 0, 64, 77
1, 131791, Control_c, 0, 64, 92
1, 131805, Control_c, 0, 64, 105
1, 131820, Control_c, 0, 64, 117
1, 131834, Note_on_c, 0, 90, 69
1, 131835, Control_c, 0, 64, 127
1, 131849, Note_on_c, 0, 30, 64
1, 131898, Note_off_c, 0, 30, 59
1, 131921, Note_on_c, 0, 86, 69
1, 131928, Note_off_c, 0, 90, 44
1, 131937, Note_on_c, 0, 30, 47
1, 131952, Note_off_c, 0, 86, 59
1, 131954, Control_c, 0, 64, 112
1, 131968, Control_c, 0, 64, 80
1, 131980, Note_off_c, 0, 30, 64
1, 131983, Control_c, 0, 64, 59
1, 131998, Control_c, 0, 64, 50
1, 132013, Control_c, 0, 64, 53
1, 132028, Control_c, 0, 64, 61
1, 132030, Note_on_c, 0, 82, 73
1, 132031, Note_on_c, 0, 86, 75
1, 132043, Control_c, 0, 64, 66
1, 132058, Control_c, 0, 64, 75
1, 132058, Note_on_c, 0, 30, 60
1, 132073, Control_c, 0, 64, 89
1, 132087, Control_c, 0, 64, 106
1, 132102, Control_c, 0, 64, 113
1, 132104, Note_off_c, 0, 30, 62
1, 132117, Control_c, 0, 64, 117
1, 132132, Note_on_c, 0, 78, 79
1, 132132, Control_c, 0, 64, 127
1, 132153, Note_on_c, 0, 30, 52
1, 132153, Note_off_c, 0, 86, 41
1, 132160, Note_off_c, 0, 82, 24
1, 132194, Note_off_c, 0, 78, 57
1, 132201, Note_off_c, 0, 30, 58
1, 132221, Note_on_c, 0, 74, 77
1, 132239, Note_on_c, 0, 30, 44
1, 132251, Control_c, 0, 64, 97
1, 132266, Control_c, 0, 64, 72
1, 132278, Note_off_c, 0, 30, 64
1, 132281, Control_c, 0, 64, 54
1, 132296, Note_off_c, 0, 74, 58
1, 132296, Control_c, 0, 64, 45
1, 132325, Control_c, 0, 64, 49
1, 132328, Note_on_c, 0, 85, 74
1, 132332, Note_on_c, 0, 82, 80
1, 132340, Control_c, 0, 64, 60
1, 132355, Control_c, 0, 64, 68
1, 132356, Note_on_c, 0, 30, 65
1, 132370, Control_c, 0, 64, 75
1, 132392, Control_c, 0, 64, 87
1, 132406, Note_off_c, 0, 30, 62
1, 132407, Control_c, 0, 64, 96
1, 132422, Control_c, 0, 64, 101
1, 132433, Note_off_c, 0, 82, 55
1, 132433, Note_on_c, 0, 78, 67
1, 132436, Control_c, 0, 64, 106
1, 132451, Control_c, 0, 64, 113
1, 132455, Note_off_c, 0, 85, 33
1, 132463, Note_on_c, 0, 30, 57
1, 132466, Control_c, 0, 64, 127
1, 132502, Note_off_c, 0, 30, 59
1, 132516, Note_off_c, 0, 78, 53
1, 132520, Note_on_c, 0, 73, 69
1, 132556, Note_on_c, 0, 30, 53
1, 132570, Control_c, 0, 64, 94
1, 132580, Note_off_c, 0, 73, 56
1, 132584, Control_c, 0, 64, 70
1, 132585, Note_off_c, 0, 30, 60
1, 132599, Control_c, 0, 64, 48
1, 132614, Control_c, 0, 64, 38
1, 132629, Note_on_c, 0, 82, 72
1, 132629, Control_c, 0, 64, 41
1, 132632, Note_on_c, 0, 78, 71
1, 132643, Control_c, 0, 64, 55
1, 132658, Control_c, 0, 64, 65
1, 132663, Note_on_c, 0, 30, 64
1, 132672, Control_c, 0, 64, 72
1, 132687, Control_c, 0, 64, 80
1, 132701, Note_off_c, 0, 30, 61
1, 132701, Control_c, 0, 64, 91
1, 132716, Control_c, 0, 64, 98
1, 132726, Note_on_c, 0, 73, 65
1, 132731, Control_c, 0, 64, 103
1, 132741, Note_off_c, 0, 82, 36
1, 132746, Control_c, 0, 64, 108
1, 132761, Control_c, 0, 64, 115
1, 132765, Note_off_c, 0, 78, 35
1, 132773, Note_on_c, 0, 30, 58
1, 132775, Control_c, 0, 64, 127
1, 132802, Note_off_c, 0, 30, 61
1, 132821, Note_on_c, 0, 70, 68
1, 132840, Note_off_c, 0, 73, 51
1, 132847, Note_off_c, 0, 70, 65
1, 132849, Control_c, 0, 64, 101
1, 132864, Control_c, 0, 64, 77
1, 132866, Poly_aftertouch_c, 0, 30, 0
1, 132879, Control_c, 0, 64, 60
1, 132894, Control_c, 0, 64, 49
1, 132908, Control_c, 0, 64, 49
1, 132923, Control_c, 0, 64, 56
1, 132928, Note_on_c, 0, 86, 72
1, 132931, Note_on_c, 0, 82, 70
1, 132938, Control_c, 0, 64, 64
1, 132952, Control_c, 0, 64, 71
1, 132955, Note_on_c, 0, 30, 62
1, 132967, Control_c, 0, 64, 80
1, 132982, Control_c, 0, 64, 92
1, 132998, Note_off_c, 0, 30, 63
1, 132998, Control_c, 0, 64, 100
1, 133013, Control_c, 0, 64, 102
1, 133028, Control_c, 0, 64, 105
1, 133031, Note_on_c, 0, 78, 74
1, 133037, Note_off_c, 0, 86, 34
1, 133043, Control_c, 0, 64, 111
1, 133057, Control_c, 0, 64, 127
1, 133060, Note_on_c, 0, 30, 53
1, 133074, Note_off_c, 0, 82, 43
1, 133104, Note_off_c, 0, 30, 0
1, 133113, Note_on_c, 0, 74, 79
1, 133117, Note_off_c, 0, 78, 54
1, 133148, Poly_aftertouch_c, 0, 30, 127
1, 133153, Note_off_c, 0, 74, 60
1, 133169, Control_c, 0, 64, 96
1, 133177, Poly_aftertouch_c, 0, 30, 0
1, 133184, Control_c, 0, 64, 74
1, 133199, Control_c, 0, 64, 59
1, 133213, Control_c, 0, 64, 55
1, 133225, Note_on_c, 0, 70, 80
1, 133228, Note_on_c, 0, 74, 77
1, 133228, Control_c, 0, 64, 56
1, 133243, Control_c, 0, 64, 61
1, 133251, Note_on_c, 0, 30, 61
1, 133257, Control_c, 0, 64, 67
1, 133272, Control_c, 0, 64, 75
1, 133287, Control_c, 0, 64, 86
1, 133301, Note_off_c, 0, 30, 60
1, 133302, Control_c, 0, 64, 98
1, 133317, Control_c, 0, 64, 104
1, 133326, Note_on_c, 0, 66, 76
1, 133331, Note_off_c, 0, 74, 59
1, 133331, Control_c, 0, 64, 107
1, 133346, Control_c, 0, 64, 110
1, 133347, Note_on_c, 0, 30, 56
1, 133361, Note_off_c, 0, 70, 55
1, 133361, Control_c, 0, 64, 117
1, 133376, Control_c, 0, 64, 127
1, 133399, Note_off_c, 0, 30, 57
1, 133410, Note_on_c, 0, 62, 81
1, 133429, Note_on_c, 0, 30, 49
1, 133435, Control_c, 0, 64, 119
1, 133436, Note_off_c, 0, 66, 58
1, 133450, Control_c, 0, 64, 91
1, 133465, Control_c, 0, 64, 69
1, 133471, Note_off_c, 0, 30, 65
1, 133475, Note_off_c, 0, 62, 59
1, 133480, Control_c, 0, 64, 51
1, 133495, Control_c, 0, 64, 33
1, 133510, Control_c, 0, 64, 32
1, 133518, Note_on_c, 0, 73, 78
1, 133519, Note_on_c, 0, 70, 74
1, 133524, Control_c, 0, 64, 41
1, 133539, Control_c, 0, 64, 55
1, 133553, Note_on_c, 0, 30, 63
1, 133554, Control_c, 0, 64, 65
1, 133569, Control_c, 0, 64, 71
1, 133583, Control_c, 0, 64, 79
1, 133589, Note_off_c, 0, 30, 59
1, 133598, Control_c, 0, 64, 87
1, 133610, Note_on_c, 0, 66, 66
1, 133613, Control_c, 0, 64, 93
1, 133615, Note_off_c, 0, 73, 56
1, 133628, Note_off_c, 0, 70, 52
1, 133628, Control_c, 0, 64, 98
1, 133643, Control_c, 0, 64, 100
1, 133657, Control_c, 0, 64, 104
1, 133672, Control_c, 0, 64, 107
1, 133681, Poly_aftertouch_c, 0, 30, 0
1, 133687, Control_c, 0, 64, 110
1, 133699, Note_off_c, 0, 66, 53
1, 133702, Control_c, 0, 64, 111
1, 133703, Note_on_c, 0, 61, 68
1, 133746, Control_c, 0, 64, 106
1, 133760, Note_off_c, 0, 61, 50
1, 133760, Poly_aftertouch_c, 0, 30, 0
1, 133761, Control_c, 0, 64, 88
1, 133775, Control_c, 0, 64, 69
1, 133790, Control_c, 0, 64, 54
1, 133807, Control_c, 0, 64, 49
1, 133814, Note_on_c, 0, 70, 54
1, 133820, Note_on_c, 0, 66, 65
1, 133821, Control_c, 0, 64, 52
1, 133835, Note_on_c, 0, 30, 64
1, 133836, Control_c, 0, 64, 61
1, 133851, Control_c, 0, 64, 69
1, 133866, Control_c, 0, 64, 77
1, 133888, Control_c, 0, 64, 88
1, 133891, Note_off_c, 0, 30, 56
1, 133903, Control_c, 0, 64, 97
1, 133907, Note_on_c, 0, 61, 59
1, 133918, Control_c, 0, 64, 101
1, 133921, Note_off_c, 0, 66, 50
1, 133932, Note_off_c, 0, 70, 33
1, 133933, Control_c, 0, 64, 104
1, 133941, Note_on_c, 0, 30, 48
1, 133948, Control_c, 0, 64, 106
1, 133962, Control_c, 0, 64, 109
1, 133977, Control_c, 0, 64, 111
1, 133992, Control_c, 0, 64, 114
1, 133993, Note_off_c, 0, 30, 58
1, 134006, Control_c, 0, 64, 116
1, 134013, Note_on_c, 0, 58, 63
1, 134021, Control_c, 0, 64, 116
1, 134023, Note_off_c, 0, 61, 52
1, 134032, Note_on_c, 0, 30, 47
1, 134040, Note_off_c, 0, 58, 61
1, 134051, Control_c, 0, 64, 102
1, 134066, Control_c, 0, 64, 82
1, 134073, Note_off_c, 0, 30, 62
1, 134080, Control_c, 0, 64, 66
1, 134095, Control_c, 0, 64, 54
1, 134110, Control_c, 0, 64, 52
1, 134125, Note_on_c, 0, 74, 72
1, 134125, Control_c, 0, 64, 55
1, 134132, Note_on_c, 0, 70, 66
1, 134140, Control_c, 0, 64, 61
1, 134153, Note_on_c, 0, 30, 57
1, 134154, Control_c, 0, 64, 67
1, 134170, Control_c, 0, 64, 74
1, 134185, Control_c, 0, 64, 83
1, 134199, Note_off_c, 0, 30, 61
1, 134200, Control_c, 0, 64, 92
1, 134214, Control_c, 0, 64, 96
1, 134220, Note_on_c, 0, 66, 74
1, 134229, Control_c, 0, 64, 98
1, 134234, Note_on_c, 0, 30, 48
1, 134244, Control_c, 0, 64, 102
1, 134259, Control_c, 0, 64, 107
1, 134260, Note_off_c, 0, 74, 36
1, 134266, Note_off_c, 0, 70, 47
1, 134274, Control_c, 0, 64, 116
1, 134288, Control_c, 0, 64, 127
1, 134298, Note_off_c, 0, 30, 0
1, 134312, Note_on_c, 0, 62, 70
1, 134314, Note_off_c, 0, 66, 58
1, 134316, Note_on_c, 0, 30, 42
1, 134344, Note_off_c, 0, 62, 60
1, 134348, Control_c, 0, 64, 99
1, 134362, Control_c, 0, 64, 78
1, 134368, Note_off_c, 0, 30, 62
1, 134377, Control_c, 0, 64, 63
1, 134392, Control_c, 0, 64, 50
1, 134407, Control_c, 0, 64, 49
1, 134422, Control_c, 0, 64, 50
1, 134424, Note_on_c, 0, 58, 73
1, 134434, Note_on_c, 0, 30, 64
1, 134437, Control_c, 0, 64, 59
1, 134444, Note_on_c, 0, 62, 48
1, 134452, Control_c, 0, 64, 65
1, 134466, Control_c, 0, 64, 72
1, 134481, Control_c, 0, 64, 80
1, 134483, Note_off_c, 0, 30, 60
1, 134496, Control_c, 0, 64, 89
1, 134511, Control_c, 0, 64, 94
1, 134519, Note_on_c, 0, 54, 75
1, 134526, Control_c, 0, 64, 97
1, 134535, Note_on_c, 0, 30, 57
1, 134541, Control_c, 0, 64, 101
1, 134555, Control_c, 0, 64, 105
1, 134568, Note_off_c, 0, 62, 41
1, 134569, Note_off_c, 0, 58, 50
1, 134570, Control_c, 0, 64, 108
1, 134585, Control_c, 0, 64, 109
1, 134587, Note_off_c, 0, 30, 52
1, 134619, Note_on_c, 0, 50, 65
1, 134637, Control_c, 0, 64, 106
1, 134642, Poly_aftertouch_c, 0, 30, 127
1, 134648, Note_off_c, 0, 54, 56
1, 134652, Control_c, 0, 64, 91
1, 134667, Control_c, 0, 64, 73
1, 134673, Poly_aftertouch_c, 0, 30, 0
1, 134676, Note_off_c, 0, 50, 59
1, 134682, Control_c, 0, 64, 58
1, 134697, Control_c, 0, 64, 43
1, 134711, Control_c, 0, 64, 41
1, 134726, Control_c, 0, 64, 42
1, 134731, Note_on_c, 0, 61, 70
1, 134733, Note_on_c, 0, 58, 67
1, 134740, Note_on_c, 0, 30, 61
1, 134741, Control_c, 0, 64, 53
1, 134756, Control_c, 0, 64, 63
1, 134771, Control_c, 0, 64, 70
1, 134785, Control_c, 0, 64, 76
1, 134800, Control_c, 0, 64, 83
1, 134815, Control_c, 0, 64, 88
1, 134818, Note_on_c, 0, 54, 64
1, 134830, Control_c, 0, 64, 91
1, 134845, Control_c, 0, 64, 96
1, 134860, Control_c, 0, 64, 99
1, 134875, Control_c, 0, 64, 102
1, 134881, Note_off_c, 0, 30, 58
1, 134890, Control_c, 0, 64, 105
1, 134904, Control_c, 0, 64, 107
1, 134928, Note_on_c, 0, 49, 65
1, 134949, Note_off_c, 0, 54, 53
1, 134955, Note_off_c, 0, 49, 67
1, 134963, Control_c, 0, 64, 97
1, 134977, Control_c, 0, 64, 79
1, 134986, Note_off_c, 0, 61, 41
1, 134992, Control_c, 0, 64, 62
1, 134999, Note_off_c, 0, 58, 0
1, 135007, Control_c, 0, 64, 43
1, 135015, Note_on_c, 0, 58, 40
1, 135018, Note_on_c, 0, 62, 70
1, 135022, Control_c, 0, 64, 29
1, 135036, Control_c, 0, 64, 30
1, 135037, Note_on_c, 0, 30, 53
1, 135051, Control_c, 0, 64, 44
1, 135066, Control_c, 0, 64, 59
1, 135081, Control_c, 0, 64, 67
1, 135096, Control_c, 0, 64, 73
1, 135100, Note_off_c, 0, 62, 57
1, 135105, Note_on_c, 0, 54, 64
1, 135110, Control_c, 0, 64, 79
1, 135114, Note_on_c, 0, 38, 51
1, 135122, Note_off_c, 0, 30, 57
1, 135125, Control_c, 0, 64, 85
1, 135140, Control_c, 0, 64, 90
1, 135153, Note_off_c, 0, 58, 51
1, 135155, Control_c, 0, 64, 94
1, 135170, Control_c, 0, 64, 97
1, 135185, Control_c, 0, 64, 100
1, 135200, Control_c, 0, 64, 102
1, 135215, Control_c, 0, 64, 102
1, 135219, Note_on_c, 0, 50, 52
1, 135220, Note_off_c, 0, 54, 56
1, 135229, Note_on_c, 0, 42, 49
1, 135244, Control_c, 0, 64, 101
1, 135259, Control_c, 0, 64, 88
1, 135260, Note_off_c, 0, 38, 29
1, 135274, Control_c, 0, 64, 71
1, 135289, Control_c, 0, 64, 55
1, 135297, Note_on_c, 0, 30, 48
1, 135301, Note_on_c, 0, 61, 63
1, 135301, Note_off_c, 0, 42, 55
1, 135303, Control_c, 0, 64, 37
1, 135315, Note_off_c, 0, 50, 36
1, 135318, Control_c, 0, 64, 36
1, 135319, Note_on_c, 0, 58, 57
1, 135333, Control_c, 0, 64, 44
1, 135347, Control_c, 0, 64, 59
1, 135362, Control_c, 0, 64, 67
1, 135385, Control_c, 0, 64, 72
1, 135400, Control_c, 0, 64, 80
1, 135402, Note_on_c, 0, 37, 55
1, 135411, Note_off_c, 0, 30, 54
1, 135415, Control_c, 0, 64, 87
1, 135417, Note_on_c, 0, 54, 53
1, 135430, Control_c, 0, 64, 93
1, 135445, Control_c, 0, 64, 97
1, 135459, Control_c, 0, 64, 100
1, 135474, Control_c, 0, 64, 103
1, 135489, Control_c, 0, 64, 105
1, 135503, Note_on_c, 0, 42, 46
1, 135504, Control_c, 0, 64, 106
1, 135530, Note_off_c, 0, 37, 0
1, 135534, Note_off_c, 0, 54, 47
1, 135537, Note_on_c, 0, 49, 47
1, 135549, Control_c, 0, 64, 101
1, 135563, Control_c, 0, 64, 82
1, 135566, Note_off_c, 0, 49, 55
1, 135578, Control_c, 0, 64, 66
1, 135581, Poly_aftertouch_c, 0, 37, 0
1, 135587, Note_off_c, 0, 61, 34
1, 135589, Note_off_c, 0, 58, 0
1, 135593, Control_c, 0, 64, 51
1, 135594, Note_on_c, 0, 30, 47
1, 135598, Note_off_c, 0, 42, 54
1, 135606, Note_on_c, 0, 58, 33
1, 135608, Control_c, 0, 64, 46
1, 135618, Note_on_c, 0, 62, 60
1, 135623, Control_c, 0, 64, 46
1, 135638, Control_c, 0, 64, 54
1, 135652, Control_c, 0, 64, 63
1, 135667, Control_c, 0, 64, 72
1, 135682, Control_c, 0, 64, 79
1, 135686, Note_on_c, 0, 38, 55
1, 135689, Note_off_c, 0, 30, 53
1, 135697, Control_c, 0, 64, 87
1, 135709, Note_on_c, 0, 54, 59
1, 135710, Note_off_c, 0, 62, 54
1, 135712, Control_c, 0, 64, 91
1, 135726, Control_c, 0, 64, 94
1, 135741, Control_c, 0, 64, 96
1, 135755, Note_off_c, 0, 58, 48
1, 135756, Control_c, 0, 64, 99
1, 135770, Control_c, 0, 64, 101
1, 135773, Note_on_c, 0, 42, 48
1, 135785, Control_c, 0, 64, 102
1, 135813, Note_off_c, 0, 38, 34
1, 135823, Note_off_c, 0, 54, 51
1, 135826, Note_on_c, 0, 50, 42
1, 135830, Control_c, 0, 64, 98
1, 135844, Control_c, 0, 64, 84
1, 135859, Control_c, 0, 64, 65
1, 135861, Note_on_c, 0, 30, 47
1, 135874, Control_c, 0, 64, 49
1, 135878, Note_off_c, 0, 50, 40
1, 135879, Note_off_c, 0, 42, 56
1, 135889, Control_c, 0, 64, 36
1, 135900, Note_on_c, 0, 58, 57
1, 135904, Control_c, 0, 64, 36
1, 135911, Note_on_c, 0, 61, 52
1, 135918, Control_c, 0, 64, 39
1, 135933, Control_c, 0, 64, 51
1, 135948, Control_c, 0, 64, 62
1, 135955, Note_off_c, 0, 30, 59
1, 135959, Note_on_c, 0, 37, 51
1, 135963, Control_c, 0, 64, 69
1, 135978, Control_c, 0, 64, 74
1, 135986, Note_on_c, 0, 54, 56
1, 135993, Control_c, 0, 64, 80
1, 136008, Control_c, 0, 64, 84
1, 136022, Control_c, 0, 64, 88
1, 136037, Control_c, 0, 64, 90
1, 136052, Control_c, 0, 64, 91
1, 136064, Note_on_c, 0, 42, 41
1, 136078, Note_off_c, 0, 58, 33
1, 136097, Control_c, 0, 64, 86
1, 136112, Control_c, 0, 64, 74
1, 136129, Note_off_c, 0, 37, 30
1, 136130, Note_off_c, 0, 61, 57
1, 136133, Control_c, 0, 64, 60
1, 136143, Note_off_c, 0, 54, 37
1, 136148, Control_c, 0, 64, 47
1, 136163, Control_c, 0, 64, 46
1, 136177, Control_c, 0, 64, 47
1, 136186, Note_on_c, 0, 30, 45
1, 136189, Note_off_c, 0, 42, 52
1, 136192, Control_c, 0, 64, 55
1, 136208, Control_c, 0, 64, 63
1, 136209, Note_on_c, 0, 58, 62
1, 136211, Note_on_c, 0, 62, 57
1, 136223, Control_c, 0, 64, 69
1, 136238, Control_c, 0, 64, 76
1, 136253, Control_c, 0, 64, 85
1, 136260, Note_off_c, 0, 30, 54
1, 136263, Note_on_c, 0, 38, 54
1, 136268, Control_c, 0, 64, 92
1, 136282, Control_c, 0, 64, 95
1, 136286, Note_on_c, 0, 54, 51
1, 136297, Control_c, 0, 64, 99
1, 136312, Control_c, 0, 64, 103
1, 136315, Note_off_c, 0, 62, 34
1, 136327, Control_c, 0, 64, 106
1, 136339, Note_off_c, 0, 58, 46
1, 136342, Control_c, 0, 64, 109
1, 136356, Control_c, 0, 64, 109
1, 136376, Note_off_c, 0, 38, 47
1, 136377, Note_on_c, 0, 42, 48
1, 136386, Control_c, 0, 64, 108
1, 136401, Control_c, 0, 64, 92
1, 136404, Note_on_c, 0, 50, 50
1, 136410, Note_off_c, 0, 54, 47
1, 136416, Control_c, 0, 64, 73
1, 136431, Control_c, 0, 64, 56
1, 136446, Control_c, 0, 64, 35
1, 136461, Control_c, 0, 64, 28
1, 136463, Note_off_c, 0, 50, 51
1, 136469, Note_off_c, 0, 42, 55
1, 136475, Control_c, 0, 64, 29
1, 136486, Note_on_c, 0, 30, 49
1, 136490, Control_c, 0, 64, 39
1, 136505, Control_c, 0, 64, 54
1, 136511, Note_on_c, 0, 58, 56
1, 136518, Note_on_c, 0, 61, 43
1, 136520, Control_c, 0, 64, 64
1, 136535, Control_c, 0, 64, 70
1, 136549, Control_c, 0, 64, 76
1, 136564, Control_c, 0, 64, 83
1, 136565, Note_off_c, 0, 30, 57
1, 136571, Note_off_c, 0, 61, 58
1, 136579, Control_c, 0, 64, 88
1, 136586, Note_on_c, 0, 54, 62
1, 136592, Note_off_c, 0, 58, 56
1, 136593, Control_c, 0, 64, 91
1, 136595, Note_on_c, 0, 37, 55
1, 136608, Control_c, 0, 64, 94
1, 136623, Control_c, 0, 64, 97
1, 136638, Control_c, 0, 64, 99
1, 136653, Control_c, 0, 64, 99
1, 136657, Note_off_c, 0, 54, 59
1, 136672, Note_off_c, 0, 37, 51
1, 136694, Note_on_c, 0, 49, 65
1, 136712, Control_c, 0, 64, 99
1, 136722, Note_on_c, 0, 42, 47
1, 136724, Note_off_c, 0, 49, 65
1, 136727, Control_c, 0, 64, 93
1, 136741, Control_c, 0, 64, 80
1, 136750, Note_off_c, 0, 42, 54
1, 136756, Control_c, 0, 64, 65
1, 136771, Control_c, 0, 64, 48
1, 136785, Note_on_c, 0, 54, 73
1, 136786, Control_c, 0, 64, 28
1, 136800, Control_c, 0, 64, 0
1, 136806, Note_on_c, 0, 46, 62
1, 136827, Note_off_c, 0, 54, 58
1, 136853, Note_off_c, 0, 46, 60
1, 136901, Note_on_c, 0, 58, 66
1, 136913, Note_on_c, 0, 49, 53
1, 136953, Note_off_c, 0, 49, 62
1, 136979, Note_off_c, 0, 58, 55
1, 136987, Note_on_c, 0, 61, 66
1, 136999, Note_on_c, 0, 54, 57
1, 137015, Note_off_c, 0, 61, 66
1, 137031, Note_off_c, 0, 54, 64
1, 137096, Note_on_c, 0, 66, 70
1, 137098, Note_on_c, 0, 58, 62
1, 137131, Note_off_c, 0, 66, 56
1, 137152, Note_off_c, 0, 58, 57
1, 137191, Note_on_c, 0, 70, 61
1, 137193, Note_on_c, 0, 61, 45
1, 137241, Note_off_c, 0, 61, 58
1, 137277, Note_off_c, 0, 70, 46
1, 137279, Note_on_c, 0, 66, 58
1, 137279, Note_on_c, 0, 73, 67
1, 137304, Note_off_c, 0, 73, 68
1, 137307, Note_off_c, 0, 66, 64
1, 137381, Note_on_c, 0, 70, 70
1, 137385, Note_on_c, 0, 78, 61
1, 137419, Note_off_c, 0, 78, 59
1, 137432, Note_off_c, 0, 70, 53
1, 137471, Note_on_c, 0, 82, 65
1, 137475, Note_on_c, 0, 73, 58
1, 137506, Note_off_c, 0, 82, 57
1, 137532, Note_off_c, 0, 73, 58
1, 137564, Note_on_c, 0, 70, 54
1, 137586, Note_on_c, 0, 85, 42
1, 137611, Note_off_c, 0, 85, 55
1, 137681, Note_off_c, 0, 70, 57
1, 137685, Note_on_c, 0, 73, 56
1, 137687, Note_on_c, 0, 82, 48
1, 137694, Note_on_c, 0, 89, 44
1, 137710, Note_off_c, 0, 82, 59
1, 137719, Note_off_c, 0, 73, 63
1, 137719, Note_off_c, 0, 89, 56
1, 137990, Note_on_c, 0, 94, 63
1, 137996, Note_on_c, 0, 85, 56
1, 138005, Note_on_c, 0, 78, 55
1, 138019, Note_off_c, 0, 94, 63
1, 138020, Note_off_c, 0, 85, 65
1, 138035, Note_off_c, 0, 78, 63
1, 138357, Note_on_c, 0, 97, 63
1, 138377, Note_on_c, 0, 90, 48
1, 138378, Note_on_c, 0, 82, 47
1, 138385, Note_off_c, 0, 97, 70
1, 138400, Note_off_c, 0, 90, 59
1, 138402, Note_off_c, 0, 82, 59
1, 142139, Control_c, 0, 67, 127
1, 142154, Control_c, 0, 67, 122
1, 142169, Control_c, 0, 67, 117
1, 142184, Control_c, 0, 67, 113
1, 142199, Control_c, 0, 67, 109
1, 142199, End_track
0, 0, End_of_file
