0, 0, Header, 0, 1, 384
1, 0, Start_track
1, 0, Title_t, "Deux Etudes, Morel--Natalie Lo     "
1, 0, Text_t, "2008 e-Piano Junior Competition virtual audition round"
1, 0, Text_t, "recorded January and February 2008"
1, 0, Text_t, "http://www.piano-e-competition.com/"
1, 0, Text_t, "File processed for distribution by software from Zenph Studios, Inc., http://www.zenph.com"
1, 0, Instrument_name_t, "Yamaha Disklavier Pro Mark IV concert grand piano, model DCFIIISM4PRO"
1, 0, Sequencer_specific, 39, 67, 113, 0, 1, 0, 1, 0, 68, 101, 117, 120, 32, 69, 116, 117, 100, 101, 115, 32, 32, 32, 32, 32, 78, 97, 116, 97, 108, 105, 101, 32, 76, 111, 32, 32, 32, 32, 32, 32
1, 0, Sequencer_specific, 6, 67, 113, 0, 0, 0, 69
1, 0, System_exclusive, 21, 67, 113, 126, 21, 0, 2, 2, 0, 0, 8, 1, 4, 7, 9, 14, 3, 9, 14, 5, 1, 247
1, 0, Sequencer_specific, 5, 67, 123, 12, 2, 1
1, 0, Tempo, 512820
1, 0, Time_signature, 4, 2, 24, 8
1, 0, System_exclusive, 5, 126, 127, 9, 1, 247
1, 1, System_exclusive, 8, 67, 16, 76, 0, 0, 126, 0, 247
1, 2, System_exclusive, 8, 67, 16, 76, 8, 9, 7, 1, 247
1, 3, Control_c, 0, 0, 0
1, 3, Control_c, 1, 0, 0
1, 3, Control_c, 2, 0, 0
1, 3, Control_c, 3, 0, 0
1, 3, Control_c, 4, 0, 0
1, 3, Control_c, 5, 0, 0
1, 3, Control_c, 6, 0, 0
1, 3, Control_c, 7, 0, 0
1, 3, Control_c, 8, 0, 0
1, 3, Control_c, 9, 0, 127
1, 3, Control_c, 10, 0, 0
1, 3, Control_c, 11, 0, 0
1, 3, Control_c, 12, 0, 0
1, 3, Control_c, 13, 0, 0
1, 3, Control_c, 14, 0, 0
1, 3, Control_c, 15, 0, 0
1, 4, Control_c, 0, 32, 0
1, 4, Control_c, 1, 32, 0
1, 4, Control_c, 2, 32, 0
1, 4, Control_c, 3, 32, 0
1, 4, Control_c, 4, 32, 0
1, 4, Control_c, 5, 32, 0
1, 4, Control_c, 6, 32, 0
1, 4, Control_c, 7, 32, 0
1, 4, Control_c, 8, 32, 0
1, 4, Control_c, 9, 32, 0
1, 4, Control_c, 10, 32, 0
1, 4, Control_c, 11, 32, 0
1, 4, Control_c, 12, 32, 0
1, 4, Control_c, 13, 32, 0
1, 4, Control_c, 14, 32, 0
1, 4, Control_c, 15, 32, 0
1, 5, Program_c, 0, 0
1, 5, Program_c, 1, 0
1, 5, Program_c, 2, 0
1, 5, Program_c, 3, 0
1, 5, Program_c, 4, 0
1, 5, Program_c, 5, 0
1, 5, Program_c, 6, 0
1, 5, Program_c, 7, 0
1, 5, Program_c, 8, 0
1, 5, Program_c, 9, 0
1, 5, Program_c, 10, 0
1, 5, Program_c, 11, 0
1, 5, Program_c, 12, 0
1, 5, Program_c, 13, 0
1, 5, Program_c, 14, 0
1, 5, Program_c, 15, 0
1, 6, Control_c, 0, 7, 100
1, 117, Control_c, 0, 64, 15
1, 229, Control_c, 0, 64, 31
1, 341, Control_c, 0, 64, 46
1, 452, Control_c, 0, 64, 63
1, 564, Control_c, 0, 64, 77
1, 676, Control_c, 0, 64, 94
1, 787, Control_c, 0, 64, 108
1, 899, Control_c, 0, 64, 127
1, 899, Control_c, 1, 7, 100
1, 899, Control_c, 2, 7, 100
1, 899, Control_c, 3, 7, 100
1, 899, Control_c, 4, 7, 100
1, 899, Control_c, 5, 7, 100
1, 899, Control_c, 6, 7, 100
1, 899, Control_c, 7, 7, 100
1, 899, Control_c, 8, 7, 100
1, 899, Control_c, 9, 7, 100
1, 899, Control_c, 10, 7, 100
1, 899, Control_c, 11, 7, 100
1, 899, Control_c, 12, 7, 100
1, 899, Control_c, 13, 7, 100
1, 899, Control_c, 14, 7, 100
1, 899, Control_c, 15, 7, 100
1, 1128, Note_on_c, 0, 60, 91
1, 1133, Note_on_c, 0, 48, 83
1, 1157, Note_off_c, 0, 48, 67
1, 1177, Note_off_c, 0, 60, 60
1, 1192, Note_on_c, 0, 73, 90
1, 1194, Note_on_c, 0, 62, 88
1, 1216, Note_on_c, 0, 61, 25
1, 1217, Note_off_c, 0, 61, 127
1, 1221, Note_on_c, 0, 63, 46
1, 1222, Note_off_c, 0, 63, 127
1, 1226, Note_off_c, 0, 62, 0
1, 1234, Note_on_c, 0, 62, 80
1, 1236, Note_off_c, 0, 73, 63
1, 1249, Note_on_c, 0, 50, 78
1, 1252, Poly_aftertouch_c, 0, 61, 0
1, 1265, Note_on_c, 0, 52, 68
1, 1276, Note_off_c, 0, 50, 65
1, 1285, Note_off_c, 0, 62, 61
1, 1287, Note_off_c, 0, 52, 60
1, 1291, Note_on_c, 0, 63, 91
1, 1294, Note_on_c, 0, 75, 86
1, 1326, Note_on_c, 0, 62, 82
1, 1332, Note_on_c, 0, 50, 83
1, 1332, Note_off_c, 0, 75, 60
1, 1335, Note_off_c, 0, 63, 59
1, 1359, Note_on_c, 0, 52, 58
1, 1360, Note_off_c, 0, 52, 127
1, 1370, Note_off_c, 0, 50, 56
1, 1372, Note_off_c, 0, 62, 62
1, 1379, Note_on_c, 0, 66, 93
1, 1382, Poly_aftertouch_c, 0, 52, 0
1, 1386, Note_on_c, 0, 78, 90
1, 1435, Note_on_c, 0, 65, 101
1, 1436, Note_off_c, 0, 66, 63
1, 1438, Note_off_c, 0, 78, 62
1, 1440, Note_on_c, 0, 53, 84
1, 1446, Control_c, 0, 64, 106
1, 1449, Note_on_c, 0, 55, 82
1, 1461, Control_c, 0, 64, 73
1, 1475, Note_off_c, 0, 55, 65
1, 1477, Note_off_c, 0, 53, 62
1, 1478, Note_off_c, 0, 65, 66
1, 1490, Control_c, 0, 64, 0
1, 1893, Note_on_c, 0, 61, 85
1, 1895, Note_on_c, 0, 73, 108
1, 1896, Note_on_c, 0, 70, 109
1, 1899, Note_on_c, 0, 82, 89
1, 1901, Note_on_c, 0, 75, 97
1, 1901, Note_on_c, 0, 80, 92
1, 1903, Note_on_c, 0, 68, 90
1, 1905, Note_on_c, 0, 78, 89
1, 1908, Note_on_c, 0, 63, 84
1, 1908, Note_on_c, 0, 66, 82
1, 1914, Control_c, 0, 64, 50
1, 1928, Control_c, 0, 64, 74
1, 1943, Control_c, 0, 64, 95
1, 1958, Control_c, 0, 64, 127
1, 2007, Note_off_c, 0, 61, 56
1, 2015, Note_off_c, 0, 82, 58
1, 2018, Note_off_c, 0, 70, 58
1, 2024, Note_off_c, 0, 73, 59
1, 2027, Note_off_c, 0, 66, 59
1, 2036, Note_off_c, 0, 68, 57
1, 2040, Note_off_c, 0, 78, 58
1, 2040, Note_off_c, 0, 80, 55
1, 2051, Note_off_c, 0, 75, 0
1, 2061, Note_on_c, 0, 75, 66
1, 2066, Note_on_c, 0, 60, 87
1, 2067, Note_on_c, 0, 69, 105
1, 2069, Note_on_c, 0, 74, 110
1, 2070, Note_on_c, 0, 83, 99
1, 2072, Note_on_c, 0, 81, 88
1, 2072, Note_on_c, 0, 67, 92
1, 2077, Note_on_c, 0, 62, 84
1, 2077, Note_on_c, 0, 79, 89
1, 2078, Note_on_c, 0, 72, 67
1, 2079, Note_off_c, 0, 72, 127
1, 2081, Note_on_c, 0, 64, 82
1, 2086, Note_on_c, 0, 76, 93
1, 2092, Control_c, 0, 64, 76
1, 2106, Control_c, 0, 64, 0
1, 2107, Note_off_c, 0, 63, 0
1, 2107, Note_on_c, 0, 63, 3
1, 2146, Note_off_c, 0, 74, 63
1, 2146, Note_off_c, 0, 75, 51
1, 2153, Note_off_c, 0, 69, 62
1, 2158, Note_off_c, 0, 60, 60
1, 2161, Note_off_c, 0, 76, 62
1, 2164, Note_off_c, 0, 83, 57
1, 2168, Note_off_c, 0, 67, 61
1, 2173, Note_off_c, 0, 79, 62
1, 2176, Note_off_c, 0, 62, 57
1, 2177, Note_off_c, 0, 81, 63
1, 2179, Note_off_c, 0, 63, 54
1, 2183, Note_off_c, 0, 64, 55
1, 2462, Note_on_c, 0, 88, 88
1, 2498, Note_on_c, 0, 87, 80
1, 2500, Control_c, 0, 64, 62
1, 2515, Control_c, 0, 64, 76
1, 2529, Control_c, 0, 64, 91
1, 2543, Note_on_c, 0, 82, 93
1, 2544, Control_c, 0, 64, 127
1, 2561, Note_off_c, 0, 87, 62
1, 2563, Note_off_c, 0, 88, 62
1, 2573, Note_on_c, 0, 85, 39
1, 2585, Note_on_c, 0, 81, 97
1, 2600, Note_off_c, 0, 85, 57
1, 2604, Note_on_c, 0, 76, 82
1, 2613, Note_off_c, 0, 82, 65
1, 2633, Note_off_c, 0, 81, 67
1, 2644, Note_on_c, 0, 75, 89
1, 2686, Note_on_c, 0, 70, 79
1, 2697, Note_on_c, 0, 69, 84
1, 2703, Note_off_c, 0, 76, 63
1, 2705, Note_on_c, 0, 73, 70
1, 2724, Note_off_c, 0, 75, 66
1, 2726, Note_off_c, 0, 73, 69
1, 2751, Note_off_c, 0, 70, 61
1, 2757, Note_on_c, 0, 63, 87
1, 2766, Note_on_c, 0, 65, 55
1, 2769, Note_off_c, 0, 69, 65
1, 2778, Note_on_c, 0, 64, 53
1, 2788, Note_off_c, 0, 65, 63
1, 2799, Note_on_c, 0, 58, 94
1, 2805, Note_on_c, 0, 61, 63
1, 2832, Note_off_c, 0, 61, 65
1, 2844, Poly_aftertouch_c, 0, 71, 0
1, 2846, Note_off_c, 0, 63, 53
1, 2853, Note_on_c, 0, 57, 97
1, 2865, Note_off_c, 0, 64, 29
1, 2884, Note_off_c, 0, 58, 57
1, 2888, Note_on_c, 0, 59, 45
1, 2901, Note_off_c, 0, 57, 66
1, 2906, Note_on_c, 0, 53, 93
1, 2912, Note_on_c, 0, 51, 87
1, 2916, Note_off_c, 0, 59, 61
1, 2922, Note_on_c, 0, 52, 70
1, 2948, Note_off_c, 0, 52, 0
1, 2948, Note_on_c, 0, 52, 54
1, 2969, Note_on_c, 0, 45, 87
1, 2969, Note_on_c, 0, 46, 79
1, 2972, Note_off_c, 0, 53, 58
1, 2976, Note_on_c, 0, 49, 65
1, 2986, Note_off_c, 0, 51, 57
1, 2993, Note_off_c, 0, 46, 66
1, 2994, Note_off_c, 0, 52, 60
1, 3004, Note_off_c, 0, 49, 65
1, 3014, Note_on_c, 0, 47, 53
1, 3019, Note_off_c, 0, 45, 58
1, 3031, Note_on_c, 0, 39, 81
1, 3046, Note_off_c, 0, 47, 57
1, 3052, Note_off_c, 0, 39, 64
1, 3052, Note_on_c, 0, 36, 76
1, 3061, Note_on_c, 0, 38, 69
1, 3064, Note_on_c, 0, 40, 55
1, 3067, Note_on_c, 0, 33, 91
1, 3088, Note_on_c, 0, 34, 42
1, 3100, Note_off_c, 0, 40, 58
1, 3118, Note_on_c, 0, 35, 77
1, 3123, Note_off_c, 0, 34, 53
1, 3142, Note_on_c, 0, 31, 34
1, 3143, Note_off_c, 0, 31, 127
1, 3150, Note_off_c, 0, 36, 58
1, 3173, Note_off_c, 0, 35, 0
1, 3187, Note_on_c, 0, 21, 112
1, 3200, Note_off_c, 0, 38, 60
1, 3201, Note_on_c, 0, 35, 22
1, 3219, Control_c, 0, 64, 89
1, 3225, Note_off_c, 0, 33, 62
1, 3228, Poly_aftertouch_c, 0, 39, 127
1, 3230, Note_off_c, 0, 35, 62
1, 3234, Control_c, 0, 64, 58
1, 3249, Control_c, 0, 64, 0
1, 3273, Poly_aftertouch_c, 0, 39, 0
1, 3333, Note_off_c, 0, 21, 64
1, 3450, Note_on_c, 0, 27, 101
1, 3505, Note_off_c, 0, 27, 63
1, 3667, Note_on_c, 0, 21, 109
1, 3721, Note_off_c, 0, 21, 63
1, 3777, Note_on_c, 0, 21, 94
1, 3835, Note_off_c, 0, 21, 62
1, 3911, Note_on_c, 0, 27, 101
1, 3939, Note_off_c, 0, 27, 66
1, 4030, Note_on_c, 0, 21, 114
1, 4237, Note_off_c, 0, 21, 63
1, 4353, Note_on_c, 0, 27, 102
1, 4410, Note_off_c, 0, 27, 63
1, 4570, Note_on_c, 0, 21, 107
1, 4624, Note_off_c, 0, 21, 61
1, 4684, Note_on_c, 0, 21, 94
1, 4719, Note_off_c, 0, 21, 66
1, 4807, Note_on_c, 0, 27, 99
1, 4838, Note_off_c, 0, 27, 67
1, 4932, Note_on_c, 0, 21, 116
1, 5135, Note_off_c, 0, 21, 61
1, 5256, Note_on_c, 0, 27, 97
1, 5310, Note_off_c, 0, 27, 62
1, 5487, Note_on_c, 0, 21, 87
1, 5531, Note_off_c, 0, 21, 66
1, 5598, Note_on_c, 0, 21, 73
1, 5628, Note_off_c, 0, 21, 65
1, 5713, Note_on_c, 0, 27, 84
1, 5747, Note_off_c, 0, 27, 66
1, 5840, Note_on_c, 0, 21, 84
1, 6042, Note_off_c, 0, 21, 60
1, 6191, Note_on_c, 0, 27, 78
1, 6230, Note_off_c, 0, 27, 64
1, 6408, Note_on_c, 0, 21, 87
1, 6458, Note_off_c, 0, 21, 64
1, 6511, Note_on_c, 0, 21, 76
1, 6581, Note_off_c, 0, 21, 63
1, 6629, Note_on_c, 0, 27, 77
1, 6677, Note_off_c, 0, 27, 60
1, 6710, Note_on_c, 0, 21, 84
1, 6781, Note_off_c, 0, 21, 62
1, 6815, Note_on_c, 0, 45, 114
1, 6856, Note_off_c, 0, 45, 66
1, 6860, Note_on_c, 0, 47, 37
1, 6861, Note_off_c, 0, 47, 127
1, 6922, Note_on_c, 0, 45, 101
1, 6966, Note_off_c, 0, 45, 55
1, 7026, Note_on_c, 0, 43, 108
1, 7064, Note_off_c, 0, 43, 59
1, 7132, Note_on_c, 0, 40, 101
1, 7240, Note_on_c, 0, 27, 94
1, 7254, Note_off_c, 0, 40, 61
1, 7340, Note_on_c, 0, 39, 104
1, 7352, Note_off_c, 0, 27, 59
1, 7437, Note_on_c, 0, 28, 89
1, 7478, Note_off_c, 0, 39, 64
1, 7519, Note_off_c, 0, 28, 60
1, 7538, Note_on_c, 0, 37, 105
1, 7647, Note_on_c, 0, 27, 85
1, 7647, Note_off_c, 0, 37, 62
1, 7738, Note_off_c, 0, 27, 61
1, 7751, Note_on_c, 0, 28, 76
1, 7751, Note_on_c, 0, 36, 83
1, 7783, Note_off_c, 0, 36, 65
1, 7838, Note_on_c, 0, 21, 80
1, 7842, Note_off_c, 0, 28, 63
1, 7862, Note_on_c, 0, 33, 87
1, 7870, Note_on_c, 0, 35, 78
1, 7884, Note_off_c, 0, 21, 63
1, 7921, Note_off_c, 0, 35, 47
1, 7932, Note_off_c, 0, 33, 56
1, 7955, Note_on_c, 0, 21, 100
1, 8055, Note_on_c, 0, 31, 110
1, 8087, Note_off_c, 0, 31, 69
1, 8124, Note_off_c, 0, 21, 63
1, 8162, Note_on_c, 0, 33, 97
1, 8209, Note_off_c, 0, 33, 59
1, 8277, Note_on_c, 0, 31, 96
1, 8313, Note_off_c, 0, 31, 65
1, 8377, Note_on_c, 0, 33, 105
1, 8477, Note_on_c, 0, 27, 88
1, 8477, Note_off_c, 0, 33, 63
1, 8487, Note_on_c, 0, 26, 92
1, 8573, Note_on_c, 0, 39, 110
1, 8594, Note_off_c, 0, 26, 60
1, 8596, Note_off_c, 0, 27, 58
1, 8677, Note_on_c, 0, 28, 93
1, 8708, Note_off_c, 0, 39, 64
1, 8770, Note_on_c, 0, 37, 108
1, 8777, Note_off_c, 0, 28, 57
1, 8863, Note_on_c, 0, 27, 90
1, 8871, Note_off_c, 0, 37, 60
1, 8947, Note_off_c, 0, 27, 60
1, 8973, Note_on_c, 0, 28, 80
1, 8977, Note_on_c, 0, 36, 90
1, 9009, Note_off_c, 0, 36, 65
1, 9059, Note_off_c, 0, 28, 62
1, 9062, Note_on_c, 0, 21, 72
1, 9096, Note_on_c, 0, 33, 100
1, 9108, Note_off_c, 0, 21, 65
1, 9157, Note_off_c, 0, 33, 57
1, 9184, Note_on_c, 0, 21, 97
1, 9236, Note_on_c, 0, 26, 19
1, 9282, Note_on_c, 0, 31, 105
1, 9288, Note_off_c, 0, 26, 30
1, 9317, Note_off_c, 0, 31, 68
1, 9366, Note_off_c, 0, 21, 62
1, 9392, Note_on_c, 0, 33, 93
1, 9437, Note_off_c, 0, 33, 58
1, 9499, Note_on_c, 0, 31, 92
1, 9534, Note_off_c, 0, 31, 65
1, 9600, Note_on_c, 0, 33, 105
1, 9679, Note_on_c, 0, 27, 95
1, 9688, Note_off_c, 0, 33, 59
1, 9792, Note_on_c, 0, 39, 109
1, 9806, Note_off_c, 0, 27, 60
1, 9888, Note_on_c, 0, 28, 98
1, 9929, Note_off_c, 0, 39, 63
1, 9988, Note_on_c, 0, 37, 106
1, 9989, Note_off_c, 0, 28, 60
1, 10083, Note_on_c, 0, 27, 90
1, 10098, Note_off_c, 0, 37, 60
1, 10186, Note_on_c, 0, 36, 86
1, 10190, Note_off_c, 0, 27, 59
1, 10217, Note_off_c, 0, 36, 65
1, 10279, Note_on_c, 0, 25, 89
1, 10279, Note_on_c, 0, 33, 104
1, 10306, Note_off_c, 0, 33, 67
1, 10333, Note_on_c, 0, 35, 8
1, 10334, Note_off_c, 0, 35, 127
1, 10357, Note_off_c, 0, 25, 60
1, 10387, Note_on_c, 0, 39, 111
1, 10431, Note_on_c, 0, 40, 35
1, 10462, Note_off_c, 0, 40, 45
1, 10484, Note_on_c, 0, 27, 99
1, 10511, Note_off_c, 0, 39, 63
1, 10590, Note_on_c, 0, 37, 109
1, 10591, Note_off_c, 0, 27, 58
1, 10687, Note_off_c, 0, 37, 60
1, 10689, Note_on_c, 0, 28, 94
1, 10789, Note_off_c, 0, 28, 60
1, 10791, Note_on_c, 0, 36, 98
1, 10835, Note_off_c, 0, 36, 60
1, 10915, Note_on_c, 0, 21, 106
1, 10963, Note_on_c, 0, 24, 22
1, 11010, Note_off_c, 0, 24, 30
1, 11042, Note_on_c, 0, 57, 91
1, 11051, Note_off_c, 0, 21, 63
1, 11092, Note_off_c, 0, 57, 63
1, 11183, Note_on_c, 0, 55, 93
1, 11229, Note_off_c, 0, 55, 62
1, 11332, Note_on_c, 0, 27, 103
1, 11335, Note_on_c, 0, 52, 115
1, 11360, Note_on_c, 0, 26, 60
1, 11364, Note_off_c, 0, 52, 69
1, 11376, Note_on_c, 0, 55, 32
1, 11377, Note_off_c, 0, 55, 127
1, 11381, Note_off_c, 0, 27, 58
1, 11383, Note_on_c, 0, 53, 28
1, 11384, Note_off_c, 0, 53, 127
1, 11391, Note_off_c, 0, 26, 56
1, 11424, Poly_aftertouch_c, 0, 53, 0
1, 11491, Note_on_c, 0, 51, 80
1, 11536, Note_off_c, 0, 51, 52
1, 11593, Note_on_c, 0, 49, 84
1, 11643, Note_off_c, 0, 49, 61
1, 11725, Note_on_c, 0, 48, 104
1, 11727, Note_on_c, 0, 28, 102
1, 11762, Note_off_c, 0, 48, 68
1, 11768, Note_off_c, 0, 28, 65
1, 11879, Note_on_c, 0, 45, 75
1, 11934, Note_off_c, 0, 45, 57
1, 11991, Note_on_c, 0, 43, 89
1, 12037, Note_off_c, 0, 43, 61
1, 12109, Note_on_c, 0, 45, 103
1, 12110, Note_on_c, 0, 27, 94
1, 12149, Note_off_c, 0, 45, 64
1, 12162, Note_off_c, 0, 27, 61
1, 12325, Note_on_c, 0, 21, 112
1, 12541, Note_on_c, 0, 43, 111
1, 12574, Note_off_c, 0, 43, 66
1, 12603, Note_off_c, 0, 21, 62
1, 12651, Note_on_c, 0, 45, 94
1, 12696, Note_off_c, 0, 45, 57
1, 12754, Note_on_c, 0, 43, 98
1, 12793, Note_off_c, 0, 43, 59
1, 12859, Note_on_c, 0, 45, 110
1, 12886, Note_on_c, 0, 47, 54
1, 12916, Note_off_c, 0, 47, 54
1, 12950, Note_off_c, 0, 45, 60
1, 12974, Note_on_c, 0, 27, 96
1, 13059, Note_on_c, 0, 51, 105
1, 13097, Note_off_c, 0, 27, 61
1, 13169, Note_on_c, 0, 28, 95
1, 13184, Note_off_c, 0, 51, 61
1, 13241, Note_on_c, 0, 49, 109
1, 13262, Note_off_c, 0, 28, 55
1, 13342, Note_on_c, 0, 27, 88
1, 13343, Note_off_c, 0, 49, 63
1, 13438, Note_off_c, 0, 27, 62
1, 13438, Note_on_c, 0, 48, 84
1, 13449, Note_on_c, 0, 28, 80
1, 13469, Note_off_c, 0, 48, 62
1, 13519, Note_on_c, 0, 21, 83
1, 13536, Note_off_c, 0, 28, 63
1, 13541, Note_on_c, 0, 45, 105
1, 13587, Note_off_c, 0, 21, 63
1, 13617, Note_off_c, 0, 45, 54
1, 13649, Note_on_c, 0, 21, 100
1, 13740, Note_on_c, 0, 43, 112
1, 13774, Note_off_c, 0, 43, 66
1, 13842, Note_off_c, 0, 21, 63
1, 13849, Note_on_c, 0, 45, 96
1, 13885, Note_on_c, 0, 47, 40
1, 13886, Note_off_c, 0, 47, 127
1, 13897, Note_off_c, 0, 45, 58
1, 13954, Note_on_c, 0, 43, 98
1, 13999, Note_off_c, 0, 43, 60
1, 14054, Note_on_c, 0, 45, 103
1, 14144, Note_off_c, 0, 45, 61
1, 14145, Note_on_c, 0, 27, 96
1, 14241, Note_on_c, 0, 51, 104
1, 14267, Note_off_c, 0, 27, 63
1, 14345, Note_on_c, 0, 28, 93
1, 14380, Note_off_c, 0, 51, 61
1, 14442, Note_on_c, 0, 49, 105
1, 14445, Note_off_c, 0, 28, 61
1, 14532, Note_on_c, 0, 27, 94
1, 14544, Note_off_c, 0, 49, 63
1, 14579, Note_on_c, 0, 26, 39
1, 14624, Note_off_c, 0, 26, 55
1, 14632, Note_on_c, 0, 48, 91
1, 14633, Note_off_c, 0, 27, 61
1, 14662, Note_off_c, 0, 48, 67
1, 14717, Note_on_c, 0, 25, 95
1, 14723, Note_on_c, 0, 45, 103
1, 14744, Note_on_c, 0, 47, 62
1, 14750, Note_off_c, 0, 45, 62
1, 14768, Note_off_c, 0, 47, 37
1, 14790, Note_off_c, 0, 25, 60
1, 14817, Note_on_c, 0, 51, 111
1, 14877, Note_on_c, 0, 52, 8
1, 14917, Note_on_c, 0, 27, 93
1, 14927, Note_off_c, 0, 52, 36
1, 14955, Note_on_c, 0, 26, 45
1, 14955, Note_off_c, 0, 51, 59
1, 14995, Note_off_c, 0, 26, 44
1, 15015, Note_off_c, 0, 27, 58
1, 15024, Note_on_c, 0, 49, 107
1, 15117, Note_on_c, 0, 28, 85
1, 15121, Note_off_c, 0, 49, 59
1, 15205, Note_off_c, 0, 28, 58
1, 15225, Note_on_c, 0, 48, 83
1, 15274, Note_off_c, 0, 48, 61
1, 15319, Note_on_c, 0, 21, 89
1, 15332, Control_c, 0, 64, 56
1, 15347, Control_c, 0, 64, 71
1, 15362, Control_c, 0, 64, 81
1, 15377, Control_c, 0, 64, 94
1, 15391, Control_c, 0, 64, 104
1, 15402, Note_on_c, 0, 45, 82
1, 15403, Note_off_c, 0, 21, 61
1, 15406, Control_c, 0, 64, 127
1, 15501, Note_on_c, 0, 43, 90
1, 15539, Note_off_c, 0, 43, 64
1, 15542, Note_off_c, 0, 45, 54
1, 15599, Note_on_c, 0, 57, 91
1, 15698, Note_on_c, 0, 55, 90
1, 15727, Note_off_c, 0, 57, 63
1, 15783, Note_on_c, 0, 69, 101
1, 15804, Note_off_c, 0, 55, 60
1, 15891, Note_on_c, 0, 67, 98
1, 15937, Note_off_c, 0, 67, 69
1, 15939, Note_off_c, 0, 69, 59
1, 16002, Note_on_c, 0, 81, 97
1, 16101, Note_on_c, 0, 79, 92
1, 16128, Note_off_c, 0, 81, 64
1, 16165, Note_off_c, 0, 79, 66
1, 16188, Note_on_c, 0, 93, 107
1, 16267, Note_off_c, 0, 93, 58
1, 16326, Note_on_c, 0, 91, 94
1, 16380, Note_off_c, 0, 91, 63
1, 16422, Control_c, 0, 64, 97
1, 16437, Control_c, 0, 64, 63
1, 16451, Control_c, 0, 64, 0
1, 16479, Note_on_c, 0, 61, 98
1, 16479, Note_on_c, 0, 81, 99
1, 16480, Note_on_c, 0, 52, 85
1, 16481, Note_on_c, 0, 88, 102
1, 16481, Control_c, 0, 64, 51
1, 16485, Note_on_c, 0, 54, 88
1, 16496, Control_c, 0, 64, 65
1, 16511, Control_c, 0, 64, 75
1, 16523, Note_off_c, 0, 81, 65
1, 16525, Note_off_c, 0, 88, 64
1, 16526, Control_c, 0, 64, 94
1, 16530, Note_off_c, 0, 52, 60
1, 16537, Note_off_c, 0, 61, 60
1, 16540, Control_c, 0, 64, 127
1, 16541, Note_off_c, 0, 54, 63
1, 16631, Note_on_c, 0, 87, 100
1, 16639, Note_on_c, 0, 79, 80
1, 16660, Note_off_c, 0, 79, 68
1, 16675, Note_off_c, 0, 87, 63
1, 16756, Note_on_c, 0, 69, 98
1, 16758, Note_on_c, 0, 85, 97
1, 16761, Note_on_c, 0, 76, 94
1, 16800, Note_off_c, 0, 76, 63
1, 16804, Note_off_c, 0, 69, 64
1, 16805, Note_off_c, 0, 85, 64
1, 16885, Note_on_c, 0, 67, 98
1, 16887, Note_on_c, 0, 75, 96
1, 16889, Note_on_c, 0, 84, 94
1, 16889, Control_c, 0, 64, 105
1, 16904, Control_c, 0, 64, 72
1, 16916, Note_off_c, 0, 84, 63
1, 16919, Control_c, 0, 64, 50
1, 16922, Note_off_c, 0, 67, 64
1, 16926, Note_off_c, 0, 75, 62
1, 16934, Control_c, 0, 64, 0
1, 17000, Note_on_c, 0, 81, 96
1, 17002, Note_on_c, 0, 73, 98
1, 17013, Note_on_c, 0, 64, 77
1, 17016, Note_on_c, 0, 57, 76
1, 17017, Note_on_c, 0, 65, 76
1, 17033, Note_off_c, 0, 65, 70
1, 17033, Note_off_c, 0, 73, 65
1, 17034, Note_off_c, 0, 81, 64
1, 17035, Note_off_c, 0, 64, 67
1, 17041, Note_off_c, 0, 57, 68
1, 17119, Note_on_c, 0, 70, 96
1, 17119, Note_on_c, 0, 79, 88
1, 17125, Note_on_c, 0, 63, 94
1, 17129, Note_on_c, 0, 55, 84
1, 17153, Note_off_c, 0, 55, 63
1, 17155, Note_off_c, 0, 79, 62
1, 17163, Note_off_c, 0, 63, 58
1, 17174, Note_off_c, 0, 70, 58
1, 17238, Note_on_c, 0, 76, 102
1, 17241, Note_on_c, 0, 61, 89
1, 17241, Note_on_c, 0, 69, 98
1, 17243, Note_on_c, 0, 52, 89
1, 17272, Note_off_c, 0, 52, 61
1, 17273, Note_off_c, 0, 69, 67
1, 17275, Note_off_c, 0, 76, 65
1, 17283, Note_off_c, 0, 61, 61
1, 17361, Note_on_c, 0, 60, 85
1, 17362, Note_on_c, 0, 51, 84
1, 17364, Note_on_c, 0, 75, 96
1, 17369, Note_on_c, 0, 67, 86
1, 17387, Note_off_c, 0, 67, 69
1, 17388, Note_off_c, 0, 60, 61
1, 17390, Note_off_c, 0, 75, 66
1, 17402, Note_off_c, 0, 51, 56
1, 17480, Note_on_c, 0, 64, 90
1, 17481, Note_on_c, 0, 73, 92
1, 17490, Note_on_c, 0, 57, 86
1, 17492, Note_on_c, 0, 49, 91
1, 17515, Note_off_c, 0, 49, 69
1, 17515, Note_off_c, 0, 64, 63
1, 17516, Note_off_c, 0, 57, 61
1, 17523, Note_off_c, 0, 73, 59
1, 17597, Note_on_c, 0, 71, 89
1, 17598, Note_on_c, 0, 63, 91
1, 17605, Note_on_c, 0, 46, 79
1, 17620, Note_off_c, 0, 71, 62
1, 17622, Note_off_c, 0, 63, 67
1, 17635, Note_off_c, 0, 46, 59
1, 17721, Note_on_c, 0, 52, 79
1, 17724, Note_on_c, 0, 45, 72
1, 17730, Note_on_c, 0, 69, 61
1, 17733, Note_on_c, 0, 68, 32
1, 17748, Note_on_c, 0, 71, 29
1, 17752, Note_off_c, 0, 52, 63
1, 17757, Note_off_c, 0, 69, 65
1, 17760, Note_off_c, 0, 45, 52
1, 17769, Note_off_c, 0, 68, 52
1, 17772, Control_c, 0, 64, 19
1, 17784, Note_off_c, 0, 71, 33
1, 17787, Control_c, 0, 64, 24
1, 17802, Control_c, 0, 64, 29
1, 17818, Note_on_c, 0, 51, 80
1, 17826, Note_on_c, 0, 59, 25
1, 17826, Note_on_c, 0, 46, 62
1, 17828, Note_on_c, 0, 60, 50
1, 17829, Note_on_c, 0, 69, 65
1, 17831, Control_c, 0, 64, 0
1, 17847, Note_off_c, 0, 69, 65
1, 17850, Note_off_c, 0, 51, 61
1, 17851, Note_off_c, 0, 46, 60
1, 17863, Note_off_c, 0, 59, 58
1, 17867, Note_off_c, 0, 60, 48
1, 17942, Note_on_c, 0, 52, 98
1, 17942, Note_on_c, 0, 69, 84
1, 17948, Note_on_c, 0, 45, 88
1, 17950, Control_c, 0, 64, 63
1, 17953, Note_on_c, 0, 62, 87
1, 17964, Control_c, 0, 64, 100
1, 17965, Note_on_c, 0, 50, 60
1, 17979, Note_off_c, 0, 50, 45
1, 17979, Control_c, 0, 64, 127
1, 18004, Note_off_c, 0, 62, 59
1, 18048, Note_off_c, 0, 69, 58
1, 18073, Note_off_c, 0, 52, 0
1, 18073, Note_on_c, 0, 52, 3
1, 18106, Note_off_c, 0, 52, 54
1, 18136, Note_off_c, 0, 45, 37
1, 18253, Control_c, 0, 64, 86
1, 18268, Control_c, 0, 64, 54
1, 18283, Control_c, 0, 64, 0
1, 18342, Note_on_c, 0, 58, 100
1, 18345, Note_on_c, 0, 67, 95
1, 18347, Note_on_c, 0, 51, 96
1, 18353, Note_on_c, 0, 46, 88
1, 18365, Note_on_c, 0, 66, 55
1, 18377, Note_on_c, 0, 49, 51
1, 18381, Note_off_c, 0, 58, 63
1, 18389, Note_off_c, 0, 66, 38
1, 18395, Note_off_c, 0, 67, 61
1, 18398, Note_off_c, 0, 51, 63
1, 18404, Note_off_c, 0, 49, 58
1, 18409, Note_off_c, 0, 46, 60
1, 18457, Note_on_c, 0, 61, 88
1, 18463, Note_on_c, 0, 69, 76
1, 18467, Note_on_c, 0, 45, 83
1, 18470, Note_on_c, 0, 52, 84
1, 18500, Note_off_c, 0, 69, 65
1, 18501, Note_off_c, 0, 61, 62
1, 18504, Note_off_c, 0, 52, 63
1, 18520, Note_off_c, 0, 45, 59
1, 18552, Note_on_c, 0, 58, 90
1, 18553, Note_on_c, 0, 51, 85
1, 18555, Note_on_c, 0, 67, 68
1, 18580, Note_off_c, 0, 67, 62
1, 18588, Note_off_c, 0, 58, 56
1, 18598, Note_off_c, 0, 51, 57
1, 18654, Note_on_c, 0, 61, 88
1, 18657, Note_on_c, 0, 69, 90
1, 18660, Note_on_c, 0, 52, 103
1, 18669, Note_on_c, 0, 45, 77
1, 18754, Note_off_c, 0, 61, 62
1, 18780, Note_off_c, 0, 52, 54
1, 18780, Note_off_c, 0, 69, 64
1, 18803, Note_off_c, 0, 45, 53
1, 18878, Note_on_c, 0, 67, 95
1, 18884, Note_on_c, 0, 51, 91
1, 18891, Note_on_c, 0, 46, 82
1, 18892, Note_on_c, 0, 74, 87
1, 18979, Note_off_c, 0, 74, 61
1, 19001, Note_off_c, 0, 67, 63
1, 19023, Note_off_c, 0, 46, 58
1, 19034, Note_off_c, 0, 51, 59
1, 19090, Note_on_c, 0, 73, 96
1, 19091, Note_on_c, 0, 64, 91
1, 19094, Note_on_c, 0, 52, 96
1, 19099, Note_on_c, 0, 45, 80
1, 19179, Note_off_c, 0, 52, 52
1, 19187, Note_off_c, 0, 64, 59
1, 19194, Note_off_c, 0, 73, 58
1, 19211, Note_off_c, 0, 45, 53
1, 19294, Note_on_c, 0, 51, 85
1, 19298, Note_on_c, 0, 63, 86
1, 19302, Note_on_c, 0, 72, 76
1, 19308, Note_on_c, 0, 46, 67
1, 19317, Note_off_c, 0, 72, 70
1, 19319, Note_off_c, 0, 63, 66
1, 19337, Note_off_c, 0, 46, 64
1, 19337, Note_off_c, 0, 51, 58
1, 19383, Note_on_c, 0, 61, 102
1, 19385, Note_on_c, 0, 69, 97
1, 19386, Note_on_c, 0, 52, 101
1, 19390, Note_on_c, 0, 45, 86
1, 19479, Note_off_c, 0, 52, 55
1, 19489, Note_off_c, 0, 61, 56
1, 19500, Note_off_c, 0, 45, 56
1, 19504, Note_off_c, 0, 69, 48
1, 19620, Note_on_c, 0, 51, 86
1, 19626, Note_on_c, 0, 58, 87
1, 19629, Note_on_c, 0, 67, 87
1, 19629, Note_on_c, 0, 46, 73
1, 19652, Note_off_c, 0, 58, 67
1, 19655, Note_off_c, 0, 67, 59
1, 19659, Note_off_c, 0, 46, 62
1, 19666, Note_off_c, 0, 51, 57
1, 19716, Note_on_c, 0, 61, 88
1, 19723, Note_on_c, 0, 52, 88
1, 19727, Note_on_c, 0, 45, 81
1, 19733, Note_on_c, 0, 69, 64
1, 19751, Note_off_c, 0, 69, 64
1, 19762, Note_off_c, 0, 61, 61
1, 19767, Note_off_c, 0, 52, 58
1, 19777, Note_off_c, 0, 45, 56
1, 19816, Note_on_c, 0, 58, 88
1, 19817, Note_on_c, 0, 51, 82
1, 19829, Poly_aftertouch_c, 0, 67, 127
1, 19845, Note_off_c, 0, 58, 63
1, 19859, Poly_aftertouch_c, 0, 67, 0
1, 19868, Note_off_c, 0, 51, 58
1, 19914, Note_on_c, 0, 61, 85
1, 19919, Note_on_c, 0, 52, 96
1, 19919, Note_on_c, 0, 69, 84
1, 19927, Note_on_c, 0, 45, 79
1, 19978, Note_off_c, 0, 61, 61
1, 20002, Note_off_c, 0, 69, 65
1, 20022, Note_off_c, 0, 52, 56
1, 20046, Note_off_c, 0, 45, 55
1, 20123, Note_on_c, 0, 67, 95
1, 20127, Note_on_c, 0, 51, 89
1, 20127, Note_on_c, 0, 75, 94
1, 20131, Note_on_c, 0, 46, 81
1, 20234, Note_off_c, 0, 75, 60
1, 20243, Note_off_c, 0, 67, 62
1, 20247, Note_off_c, 0, 46, 56
1, 20261, Note_off_c, 0, 51, 56
1, 20337, Note_on_c, 0, 52, 92
1, 20339, Note_on_c, 0, 64, 90
1, 20339, Note_on_c, 0, 73, 97
1, 20342, Note_on_c, 0, 45, 79
1, 20437, Note_off_c, 0, 52, 52
1, 20439, Note_off_c, 0, 64, 58
1, 20443, Note_off_c, 0, 73, 60
1, 20468, Note_off_c, 0, 45, 54
1, 20527, Note_on_c, 0, 51, 85
1, 20535, Note_on_c, 0, 63, 85
1, 20536, Note_on_c, 0, 71, 81
1, 20537, Note_on_c, 0, 46, 74
1, 20554, Note_off_c, 0, 71, 70
1, 20555, Note_off_c, 0, 63, 68
1, 20577, Note_off_c, 0, 46, 59
1, 20583, Note_off_c, 0, 51, 61
1, 20631, Note_on_c, 0, 52, 90
1, 20635, Note_on_c, 0, 45, 80
1, 20640, Note_on_c, 0, 69, 67
1, 20655, Note_on_c, 0, 68, 52
1, 20661, Note_on_c, 0, 60, 33
1, 20666, Note_off_c, 0, 69, 65
1, 20678, Note_off_c, 0, 52, 59
1, 20678, Note_off_c, 0, 68, 38
1, 20691, Note_off_c, 0, 45, 58
1, 20696, Note_off_c, 0, 60, 35
1, 20740, Note_on_c, 0, 51, 90
1, 20741, Note_on_c, 0, 67, 90
1, 20744, Note_on_c, 0, 46, 81
1, 20745, Note_on_c, 0, 75, 88
1, 20783, Note_on_c, 0, 73, 24
1, 20784, Note_off_c, 0, 73, 127
1, 20868, Note_off_c, 0, 67, 59
1, 20881, Note_off_c, 0, 75, 60
1, 20890, Note_off_c, 0, 46, 54
1, 20901, Note_off_c, 0, 51, 59
1, 20967, Note_on_c, 0, 52, 85
1, 20968, Note_on_c, 0, 45, 74
1, 20970, Note_on_c, 0, 73, 86
1, 20971, Note_on_c, 0, 64, 85
1, 21057, Note_off_c, 0, 52, 56
1, 21059, Note_off_c, 0, 64, 53
1, 21060, Note_off_c, 0, 73, 58
1, 21077, Note_off_c, 0, 45, 53
1, 21158, Note_on_c, 0, 51, 79
1, 21173, Note_on_c, 0, 63, 82
1, 21173, Note_on_c, 0, 72, 77
1, 21176, Note_on_c, 0, 46, 61
1, 21193, Note_off_c, 0, 63, 68
1, 21195, Note_off_c, 0, 72, 68
1, 21219, Note_off_c, 0, 46, 61
1, 21224, Note_off_c, 0, 51, 59
1, 21248, Control_c, 0, 67, 17
1, 21263, Control_c, 0, 67, 59
1, 21268, Note_on_c, 0, 52, 74
1, 21275, Note_on_c, 0, 45, 76
1, 21278, Control_c, 0, 67, 117
1, 21284, Note_on_c, 0, 69, 62
1, 21293, Control_c, 0, 67, 127
1, 21294, Note_off_c, 0, 52, 64
1, 21301, Note_off_c, 0, 69, 64
1, 21312, Note_on_c, 0, 60, 26
1, 21314, Note_off_c, 0, 45, 59
1, 21325, Note_on_c, 0, 59, 4
1, 21326, Note_off_c, 0, 59, 48
1, 21352, Note_off_c, 0, 60, 32
1, 21435, Note_on_c, 0, 34, 60
1, 21437, Note_on_c, 0, 55, 49
1, 21440, Note_on_c, 0, 39, 59
1, 21444, Note_on_c, 0, 63, 59
1, 21530, Note_off_c, 0, 55, 54
1, 21553, Note_off_c, 0, 63, 60
1, 21580, Note_off_c, 0, 39, 55
1, 21598, Note_off_c, 0, 34, 35
1, 21686, Note_on_c, 0, 49, 67
1, 21686, Note_on_c, 0, 57, 63
1, 21692, Note_on_c, 0, 40, 54
1, 21692, Note_on_c, 0, 33, 55
1, 21752, Note_off_c, 0, 49, 60
1, 21806, Note_off_c, 0, 40, 50
1, 21823, Note_off_c, 0, 33, 53
1, 21846, Note_off_c, 0, 57, 48
1, 21915, Note_on_c, 0, 63, 62
1, 21920, Note_on_c, 0, 39, 58
1, 21922, Note_on_c, 0, 55, 50
1, 21924, Note_on_c, 0, 34, 52
1, 21951, Note_off_c, 0, 39, 63
1, 21952, Note_off_c, 0, 34, 59
1, 21957, Note_off_c, 0, 55, 63
1, 21960, Note_off_c, 0, 63, 59
1, 22019, Note_on_c, 0, 40, 68
1, 22020, Note_on_c, 0, 57, 56
1, 22023, Note_on_c, 0, 33, 64
1, 22026, Note_on_c, 0, 49, 60
1, 22050, Note_off_c, 0, 40, 63
1, 22050, Note_off_c, 0, 49, 60
1, 22053, Note_off_c, 0, 57, 65
1, 22057, Note_off_c, 0, 33, 63
1, 22112, Note_on_c, 0, 55, 65
1, 22113, Note_on_c, 0, 39, 61
1, 22118, Note_on_c, 0, 63, 66
1, 22147, Note_off_c, 0, 39, 65
1, 22148, Note_off_c, 0, 55, 60
1, 22160, Note_off_c, 0, 63, 58
1, 22206, Note_on_c, 0, 40, 70
1, 22219, Note_on_c, 0, 33, 64
1, 22237, Note_off_c, 0, 40, 62
1, 22244, Note_on_c, 0, 49, 31
1, 22246, Note_off_c, 0, 33, 58
1, 22282, Note_off_c, 0, 49, 52
1, 22318, Note_on_c, 0, 39, 70
1, 22321, Note_on_c, 0, 55, 55
1, 22321, Note_on_c, 0, 63, 65
1, 22324, Note_on_c, 0, 34, 47
1, 22443, Note_off_c, 0, 63, 56
1, 22470, Note_off_c, 0, 39, 58
1, 22475, Note_off_c, 0, 34, 41
1, 22483, Note_off_c, 0, 55, 57
1, 22559, Note_on_c, 0, 57, 65
1, 22560, Note_on_c, 0, 49, 72
1, 22568, Note_on_c, 0, 33, 64
1, 22578, Note_on_c, 0, 40, 57
1, 22649, Note_off_c, 0, 40, 45
1, 22658, Note_off_c, 0, 33, 56
1, 22658, Note_off_c, 0, 49, 60
1, 22686, Note_off_c, 0, 57, 59
1, 22760, Note_on_c, 0, 63, 64
1, 22762, Note_on_c, 0, 55, 59
1, 22762, Note_on_c, 0, 39, 67
1, 22768, Note_on_c, 0, 34, 56
1, 22801, Note_off_c, 0, 39, 62
1, 22802, Note_off_c, 0, 34, 62
1, 22806, Note_off_c, 0, 55, 60
1, 22818, Note_off_c, 0, 63, 46
1, 22866, Note_on_c, 0, 40, 72
1, 22879, Note_on_c, 0, 33, 63
1, 22889, Note_on_c, 0, 49, 55
1, 22899, Note_on_c, 0, 57, 38
1, 22899, Note_off_c, 0, 40, 62
1, 22909, Note_off_c, 0, 33, 61
1, 22914, Note_off_c, 0, 49, 59
1, 22953, Control_c, 0, 67, 121
1, 22968, Control_c, 0, 67, 93
1, 22980, Note_on_c, 0, 39, 68
1, 22983, Control_c, 0, 67, 65
1, 22994, Note_on_c, 0, 33, 55
1, 22998, Control_c, 0, 67, 29
1, 23013, Control_c, 0, 67, 0
1, 23056, Note_off_c, 0, 33, 0
1, 23056, Note_on_c, 0, 33, 37
1, 23058, Note_on_c, 0, 49, 65
1, 23069, Note_off_c, 0, 39, 63
1, 23072, Note_on_c, 0, 40, 71
1, 23080, Note_off_c, 0, 49, 62
1, 23086, Note_off_c, 0, 33, 63
1, 23098, Note_off_c, 0, 57, 35
1, 23102, Control_c, 0, 64, 37
1, 23105, Note_off_c, 0, 40, 62
1, 23117, Control_c, 0, 64, 58
1, 23132, Control_c, 0, 64, 64
1, 23147, Control_c, 0, 64, 68
1, 23162, Control_c, 0, 64, 73
1, 23176, Control_c, 0, 64, 79
1, 23191, Control_c, 0, 64, 85
1, 23206, Control_c, 0, 64, 92
1, 23221, Control_c, 0, 64, 99
1, 23231, Note_on_c, 0, 68, 44
1, 23236, Control_c, 0, 64, 110
1, 23247, Note_on_c, 0, 52, 52
1, 23251, Control_c, 0, 64, 127
1, 23255, Note_off_c, 0, 68, 54
1, 23272, Note_on_c, 0, 49, 18
1, 23287, Note_off_c, 0, 52, 0
1, 23305, Note_on_c, 0, 61, 95
1, 23305, Note_on_c, 0, 52, 75
1, 23311, Note_on_c, 0, 45, 73
1, 23314, Note_on_c, 0, 47, 61
1, 23323, Note_off_c, 0, 49, 56
1, 23342, Note_off_c, 0, 45, 61
1, 23342, Note_off_c, 0, 61, 61
1, 23346, Note_off_c, 0, 47, 63
1, 23354, Note_off_c, 0, 52, 60
1, 23396, Poly_aftertouch_c, 0, 69, 0
1, 23397, Poly_aftertouch_c, 0, 68, 0
1, 23427, Poly_aftertouch_c, 0, 69, 0
1, 23477, Note_on_c, 0, 82, 36
1, 23484, Note_on_c, 0, 80, 26
1, 23485, Note_on_c, 0, 87, 27
1, 23507, Note_off_c, 0, 82, 54
1, 23519, Note_off_c, 0, 87, 52
1, 23522, Note_off_c, 0, 80, 45
1, 23532, Poly_aftertouch_c, 0, 61, 127
1, 23560, Poly_aftertouch_c, 0, 61, 0
1, 23563, Note_on_c, 0, 63, 90
1, 23574, Note_on_c, 0, 58, 80
1, 23587, Note_on_c, 0, 81, 78
1, 23612, Note_on_c, 0, 73, 95
1, 23618, Note_on_c, 0, 57, 84
1, 23626, Note_on_c, 0, 65, 82
1, 23626, Note_on_c, 0, 79, 31
1, 23628, Note_off_c, 0, 63, 60
1, 23630, Note_on_c, 0, 64, 81
1, 23631, Poly_aftertouch_c, 0, 61, 0
1, 23642, Note_on_c, 0, 72, 55
1, 23647, Note_off_c, 0, 58, 61
1, 23653, Note_off_c, 0, 57, 64
1, 23658, Note_off_c, 0, 73, 66
1, 23658, Note_off_c, 0, 79, 50
1, 23661, Note_off_c, 0, 72, 64
1, 23665, Note_off_c, 0, 65, 63
1, 23667, Note_off_c, 0, 64, 60
1, 23668, Note_off_c, 0, 81, 63
1, 23770, Note_on_c, 0, 92, 58
1, 23785, Note_on_c, 0, 94, 41
1, 23793, Note_off_c, 0, 92, 59
1, 23793, Note_on_c, 0, 70, 44
1, 23801, Note_on_c, 0, 73, 32
1, 23815, Note_off_c, 0, 94, 51
1, 23824, Note_off_c, 0, 70, 53
1, 23827, Note_off_c, 0, 73, 54
1, 23835, Poly_aftertouch_c, 0, 99, 127
1, 23871, Poly_aftertouch_c, 0, 99, 0
1, 23886, Note_on_c, 0, 75, 69
1, 23904, Note_on_c, 0, 93, 79
1, 23904, Note_on_c, 0, 91, 69
1, 23909, Note_on_c, 0, 70, 69
1, 23910, Note_on_c, 0, 73, 59
1, 23930, Note_off_c, 0, 73, 65
1, 23934, Note_off_c, 0, 91, 63
1, 23948, Note_off_c, 0, 93, 0
1, 23957, Note_off_c, 0, 75, 61
1, 23965, Note_on_c, 0, 85, 109
1, 23966, Note_on_c, 0, 93, 46
1, 23967, Note_on_c, 0, 76, 99
1, 23969, Note_on_c, 0, 69, 98
1, 23975, Note_off_c, 0, 70, 0
1, 23989, Note_on_c, 0, 70, 38
1, 23996, Note_off_c, 0, 93, 64
1, 24009, Note_off_c, 0, 76, 66
1, 24010, Note_off_c, 0, 69, 66
1, 24010, Note_off_c, 0, 70, 60
1, 24011, Note_off_c, 0, 85, 64
1, 24071, Poly_aftertouch_c, 0, 91, 0
1, 24219, Note_on_c, 0, 63, 14
1, 24273, Note_off_c, 0, 63, 42
1, 24297, Note_on_c, 0, 57, 69
1, 24336, Note_on_c, 0, 58, 74
1, 24363, Control_c, 0, 64, 86
1, 24378, Control_c, 0, 64, 62
1, 24381, Note_off_c, 0, 57, 61
1, 24390, Note_on_c, 0, 61, 52
1, 24393, Control_c, 0, 64, 48
1, 24395, Note_on_c, 0, 63, 86
1, 24407, Control_c, 0, 64, 47
1, 24422, Control_c, 0, 64, 51
1, 24437, Note_off_c, 0, 61, 57
1, 24437, Control_c, 0, 64, 62
1, 24440, Note_off_c, 0, 58, 59
1, 24451, Control_c, 0, 64, 69
1, 24466, Control_c, 0, 64, 79
1, 24471, Note_on_c, 0, 64, 84
1, 24481, Control_c, 0, 64, 94
1, 24490, Note_on_c, 0, 69, 79
1, 24496, Control_c, 0, 64, 119
1, 24511, Note_off_c, 0, 63, 61
1, 24511, Control_c, 0, 64, 127
1, 24531, Note_on_c, 0, 70, 81
1, 24554, Note_off_c, 0, 64, 60
1, 24569, Note_on_c, 0, 75, 72
1, 24582, Note_on_c, 0, 73, 72
1, 24595, Note_off_c, 0, 69, 39
1, 24596, Note_on_c, 0, 76, 87
1, 24628, Note_off_c, 0, 73, 59
1, 24629, Note_off_c, 0, 70, 60
1, 24654, Note_off_c, 0, 76, 64
1, 24660, Note_off_c, 0, 75, 61
1, 24688, Control_c, 0, 64, 90
1, 24703, Control_c, 0, 64, 64
1, 24719, Control_c, 0, 64, 41
1, 24725, Note_on_c, 0, 81, 110
1, 24734, Control_c, 0, 64, 22
1, 24748, Control_c, 0, 64, 21
1, 24759, Note_off_c, 0, 81, 67
1, 24778, Control_c, 0, 64, 23
1, 24801, Control_c, 0, 64, 25
1, 24830, Control_c, 0, 64, 26
1, 24856, Note_on_c, 0, 81, 92
1, 24905, Note_off_c, 0, 81, 64
1, 24980, Note_on_c, 0, 82, 94
1, 25025, Note_off_c, 0, 82, 66
1, 25103, Note_on_c, 0, 88, 98
1, 25104, Note_on_c, 0, 69, 85
1, 25160, Note_off_c, 0, 69, 63
1, 25210, Note_on_c, 0, 69, 73
1, 25290, Note_off_c, 0, 88, 50
1, 25320, Note_on_c, 0, 86, 88
1, 25322, Note_on_c, 0, 70, 81
1, 25338, Note_off_c, 0, 69, 61
1, 25373, Note_off_c, 0, 86, 64
1, 25389, Note_off_c, 0, 70, 58
1, 25456, Note_on_c, 0, 74, 103
1, 25458, Note_on_c, 0, 89, 105
1, 25627, Note_off_c, 0, 74, 54
1, 25638, Note_off_c, 0, 89, 55
1, 25653, Control_c, 0, 64, 25
1, 25703, Note_on_c, 0, 72, 91
1, 25709, Note_on_c, 0, 88, 92
1, 25809, Note_off_c, 0, 72, 59
1, 25831, Note_off_c, 0, 88, 59
1, 25901, Note_on_c, 0, 71, 67
1, 25910, Note_on_c, 0, 86, 64
1, 25937, Note_off_c, 0, 86, 64
1, 25949, Control_c, 0, 64, 25
1, 25956, Note_off_c, 0, 71, 57
1, 26016, Note_on_c, 0, 93, 68
1, 26018, Note_on_c, 0, 69, 65
1, 26050, Note_off_c, 0, 69, 62
1, 26053, Note_off_c, 0, 93, 52
1, 26158, Note_on_c, 0, 93, 56
1, 26186, Note_off_c, 0, 93, 54
1, 26260, Control_c, 0, 64, 24
1, 26266, Note_on_c, 0, 91, 64
1, 26275, Control_c, 0, 64, 22
1, 26293, Note_off_c, 0, 91, 67
1, 26297, Control_c, 0, 64, 22
1, 26327, Control_c, 0, 64, 28
1, 26342, Control_c, 0, 64, 50
1, 26357, Control_c, 0, 64, 66
1, 26372, Control_c, 0, 64, 74
1, 26387, Control_c, 0, 64, 90
1, 26390, Note_on_c, 0, 52, 63
1, 26390, Note_on_c, 0, 61, 64
1, 26398, Note_on_c, 0, 88, 70
1, 26399, Note_on_c, 0, 54, 60
1, 26402, Control_c, 0, 64, 110
1, 26405, Note_on_c, 0, 81, 61
1, 26417, Control_c, 0, 64, 127
1, 26418, Note_off_c, 0, 88, 65
1, 26423, Note_off_c, 0, 81, 66
1, 26424, Note_off_c, 0, 52, 61
1, 26429, Note_off_c, 0, 61, 57
1, 26435, Note_off_c, 0, 54, 64
1, 26504, Note_on_c, 0, 81, 70
1, 26505, Note_on_c, 0, 88, 69
1, 26548, Note_off_c, 0, 88, 57
1, 26553, Note_off_c, 0, 81, 61
1, 26652, Note_on_c, 0, 79, 49
1, 26676, Note_off_c, 0, 79, 59
1, 26755, Note_on_c, 0, 76, 74
1, 26755, Note_on_c, 0, 85, 76
1, 26757, Control_c, 0, 64, 95
1, 26759, Note_on_c, 0, 69, 73
1, 26772, Control_c, 0, 64, 70
1, 26776, Note_off_c, 0, 85, 70
1, 26779, Note_off_c, 0, 76, 67
1, 26786, Control_c, 0, 64, 49
1, 26791, Note_off_c, 0, 69, 61
1, 26801, Control_c, 0, 64, 36
1, 26816, Control_c, 0, 64, 34
1, 26860, Control_c, 0, 64, 38
1, 26867, Note_on_c, 0, 85, 73
1, 26869, Note_on_c, 0, 76, 73
1, 26873, Note_on_c, 0, 69, 77
1, 26875, Control_c, 0, 64, 42
1, 26889, Note_off_c, 0, 85, 70
1, 26890, Control_c, 0, 64, 44
1, 26894, Note_off_c, 0, 76, 67
1, 26905, Control_c, 0, 64, 44
1, 26911, Note_off_c, 0, 69, 63
1, 26977, Note_on_c, 0, 67, 77
1, 26988, Note_on_c, 0, 75, 71
1, 26989, Note_on_c, 0, 84, 69
1, 26999, Note_off_c, 0, 67, 67
1, 27004, Note_off_c, 0, 84, 66
1, 27007, Note_off_c, 0, 75, 66
1, 27098, Note_on_c, 0, 64, 76
1, 27105, Note_on_c, 0, 57, 72
1, 27108, Note_on_c, 0, 73, 77
1, 27110, Note_on_c, 0, 81, 74
1, 27126, Note_off_c, 0, 81, 70
1, 27127, Note_off_c, 0, 64, 62
1, 27129, Note_off_c, 0, 57, 67
1, 27132, Note_off_c, 0, 73, 68
1, 27208, Note_on_c, 0, 81, 71
1, 27210, Control_c, 0, 64, 44
1, 27217, Note_on_c, 0, 57, 76
1, 27223, Note_on_c, 0, 64, 76
1, 27225, Note_on_c, 0, 73, 64
1, 27239, Control_c, 0, 64, 43
1, 27242, Note_off_c, 0, 73, 65
1, 27247, Note_off_c, 0, 81, 63
1, 27251, Note_off_c, 0, 64, 60
1, 27260, Note_off_c, 0, 57, 60
1, 27268, Control_c, 0, 64, 43
1, 27283, Control_c, 0, 64, 42
1, 27328, Note_on_c, 0, 70, 81
1, 27338, Note_on_c, 0, 63, 82
1, 27342, Note_on_c, 0, 79, 50
1, 27348, Note_on_c, 0, 53, 64
1, 27350, Note_off_c, 0, 70, 63
1, 27351, Note_on_c, 0, 77, 48
1, 27360, Note_off_c, 0, 63, 66
1, 27361, Note_on_c, 0, 55, 47
1, 27365, Note_off_c, 0, 79, 59
1, 27371, Note_off_c, 0, 53, 61
1, 27374, Note_off_c, 0, 77, 57
1, 27387, Control_c, 0, 64, 42
1, 27390, Note_off_c, 0, 55, 54
1, 27402, Control_c, 0, 64, 41
1, 27431, Control_c, 0, 64, 41
1, 27445, Note_on_c, 0, 76, 88
1, 27446, Control_c, 0, 64, 40
1, 27449, Note_on_c, 0, 69, 78
1, 27451, Note_on_c, 0, 61, 80
1, 27457, Note_on_c, 0, 52, 76
1, 27461, Control_c, 0, 64, 40
1, 27468, Note_off_c, 0, 76, 62
1, 27479, Note_off_c, 0, 61, 59
1, 27479, Note_off_c, 0, 69, 60
1, 27480, Note_off_c, 0, 52, 65
1, 27490, Control_c, 0, 64, 39
1, 27505, Control_c, 0, 64, 39
1, 27520, Control_c, 0, 64, 38
1, 27555, Note_on_c, 0, 52, 74
1, 27556, Note_on_c, 0, 76, 79
1, 27559, Note_on_c, 0, 69, 72
1, 27561, Note_on_c, 0, 61, 69
1, 27578, Note_off_c, 0, 76, 68
1, 27587, Note_off_c, 0, 61, 64
1, 27588, Note_off_c, 0, 52, 63
1, 27591, Note_off_c, 0, 69, 63
1, 27671, Note_on_c, 0, 51, 77
1, 27672, Note_on_c, 0, 60, 74
1, 27698, Note_off_c, 0, 60, 66
1, 27698, Note_on_c, 0, 65, 47
1, 27698, Note_off_c, 0, 51, 61
1, 27713, Note_on_c, 0, 74, 22
1, 27724, Note_off_c, 0, 65, 58
1, 27751, Note_off_c, 0, 74, 43
1, 27757, Control_c, 0, 64, 38
1, 27794, Note_on_c, 0, 49, 76
1, 27797, Note_on_c, 0, 57, 72
1, 27805, Note_on_c, 0, 64, 72
1, 27806, Note_on_c, 0, 73, 73
1, 27809, Control_c, 0, 64, 37
1, 27818, Note_off_c, 0, 49, 67
1, 27823, Note_off_c, 0, 57, 66
1, 27830, Note_off_c, 0, 73, 68
1, 27830, Note_off_c, 0, 64, 66
1, 27839, Control_c, 0, 64, 37
1, 27909, Note_on_c, 0, 57, 65
1, 27916, Note_on_c, 0, 73, 76
1, 27918, Note_on_c, 0, 64, 74
1, 27928, Note_on_c, 0, 55, 58
1, 27939, Note_off_c, 0, 73, 69
1, 27944, Note_off_c, 0, 64, 64
1, 27946, Note_off_c, 0, 57, 59
1, 27951, Note_off_c, 0, 55, 58
1, 28002, Note_on_c, 0, 46, 62
1, 28020, Note_on_c, 0, 63, 84
1, 28028, Note_on_c, 0, 72, 73
1, 28032, Control_c, 0, 64, 36
1, 28039, Note_off_c, 0, 63, 70
1, 28041, Note_on_c, 0, 55, 20
1, 28042, Note_off_c, 0, 55, 127
1, 28043, Note_off_c, 0, 72, 68
1, 28044, Note_off_c, 0, 46, 57
1, 28047, Control_c, 0, 64, 36
1, 28062, Control_c, 0, 64, 34
1, 28077, Control_c, 0, 64, 30
1, 28091, Control_c, 0, 64, 22
1, 28106, Control_c, 0, 64, 0
1, 28136, Note_on_c, 0, 61, 69
1, 28138, Note_on_c, 0, 69, 69
1, 28141, Note_on_c, 0, 52, 69
1, 28160, Note_on_c, 0, 45, 50
1, 28333, Note_off_c, 0, 61, 58
1, 28333, Note_off_c, 0, 69, 54
1, 28348, Note_off_c, 0, 52, 54
1, 28351, Note_off_c, 0, 45, 55
1, 28499, Note_on_c, 0, 51, 79
1, 28499, Note_on_c, 0, 58, 89
1, 28503, Note_on_c, 0, 46, 73
1, 28503, Note_on_c, 0, 67, 82
1, 28528, Note_off_c, 0, 58, 63
1, 28543, Note_off_c, 0, 67, 64
1, 28548, Note_off_c, 0, 46, 61
1, 28550, Note_off_c, 0, 51, 58
1, 28615, Note_on_c, 0, 61, 84
1, 28619, Note_on_c, 0, 45, 79
1, 28619, Note_on_c, 0, 52, 79
1, 28652, Note_off_c, 0, 52, 63
1, 28652, Note_off_c, 0, 61, 60
1, 28665, Note_off_c, 0, 45, 57
1, 28713, Note_on_c, 0, 58, 80
1, 28716, Note_on_c, 0, 51, 73
1, 28718, Note_on_c, 0, 67, 64
1, 28738, Note_off_c, 0, 67, 62
1, 28741, Note_off_c, 0, 58, 60
1, 28743, Note_on_c, 0, 46, 29
1, 28754, Note_off_c, 0, 51, 62
1, 28782, Note_off_c, 0, 46, 45
1, 28810, Note_on_c, 0, 61, 77
1, 28814, Note_on_c, 0, 69, 82
1, 28819, Note_on_c, 0, 52, 88
1, 28825, Note_on_c, 0, 45, 70
1, 28908, Note_off_c, 0, 61, 61
1, 28934, Note_off_c, 0, 69, 64
1, 28954, Note_off_c, 0, 52, 56
1, 28965, Note_off_c, 0, 45, 57
1, 29025, Note_on_c, 0, 67, 89
1, 29028, Note_on_c, 0, 75, 88
1, 29033, Note_on_c, 0, 51, 78
1, 29037, Note_on_c, 0, 46, 70
1, 29143, Note_off_c, 0, 67, 62
1, 29145, Note_off_c, 0, 75, 61
1, 29151, Note_off_c, 0, 46, 57
1, 29166, Note_off_c, 0, 51, 58
1, 29226, Note_on_c, 0, 73, 89
1, 29228, Note_on_c, 0, 64, 78
1, 29230, Note_on_c, 0, 52, 83
1, 29232, Note_on_c, 0, 45, 71
1, 29350, Note_off_c, 0, 52, 52
1, 29353, Note_off_c, 0, 73, 57
1, 29353, Note_off_c, 0, 64, 57
1, 29375, Note_off_c, 0, 45, 55
1, 29439, Note_on_c, 0, 51, 83
1, 29445, Note_on_c, 0, 63, 86
1, 29453, Note_on_c, 0, 72, 72
1, 29454, Note_on_c, 0, 46, 62
1, 29465, Note_off_c, 0, 63, 70
1, 29468, Note_off_c, 0, 72, 68
1, 29479, Note_off_c, 0, 51, 59
1, 29482, Note_off_c, 0, 46, 61
1, 29534, Note_on_c, 0, 61, 87
1, 29535, Note_on_c, 0, 69, 85
1, 29535, Note_on_c, 0, 52, 93
1, 29540, Note_on_c, 0, 45, 78
1, 29648, Note_off_c, 0, 52, 50
1, 29660, Note_off_c, 0, 69, 53
1, 29663, Note_off_c, 0, 45, 52
1, 29666, Note_off_c, 0, 61, 56
1, 29752, Note_on_c, 0, 51, 79
1, 29758, Note_on_c, 0, 58, 80
1, 29758, Note_on_c, 0, 67, 80
1, 29759, Note_on_c, 0, 46, 72
1, 29781, Note_off_c, 0, 58, 65
1, 29786, Note_off_c, 0, 67, 59
1, 29788, Note_off_c, 0, 51, 61
1, 29793, Note_off_c, 0, 46, 60
1, 29850, Note_on_c, 0, 61, 83
1, 29860, Note_on_c, 0, 45, 78
1, 29860, Note_on_c, 0, 52, 85
1, 29879, Note_on_c, 0, 69, 44
1, 29891, Note_off_c, 0, 52, 64
1, 29892, Note_off_c, 0, 61, 59
1, 29904, Note_off_c, 0, 45, 57
1, 29904, Note_off_c, 0, 69, 56
1, 29946, Note_on_c, 0, 58, 80
1, 29949, Note_on_c, 0, 67, 72
1, 29950, Note_on_c, 0, 51, 80
1, 29966, Note_off_c, 0, 67, 67
1, 29970, Note_off_c, 0, 58, 66
1, 29986, Note_off_c, 0, 51, 61
1, 30048, Note_on_c, 0, 61, 79
1, 30049, Note_on_c, 0, 69, 77
1, 30054, Note_on_c, 0, 52, 91
1, 30061, Note_on_c, 0, 45, 76
1, 30147, Note_off_c, 0, 61, 61
1, 30166, Note_off_c, 0, 69, 64
1, 30178, Note_off_c, 0, 52, 55
1, 30196, Note_off_c, 0, 45, 57
1, 30251, Note_on_c, 0, 67, 86
1, 30259, Note_on_c, 0, 75, 85
1, 30262, Note_on_c, 0, 51, 80
1, 30265, Note_on_c, 0, 46, 73
1, 30369, Note_off_c, 0, 67, 62
1, 30371, Note_off_c, 0, 46, 56
1, 30371, Note_off_c, 0, 75, 60
1, 30390, Note_off_c, 0, 51, 57
1, 30450, Note_on_c, 0, 64, 76
1, 30452, Note_on_c, 0, 52, 81
1, 30453, Note_on_c, 0, 73, 83
1, 30455, Note_on_c, 0, 45, 70
1, 30515, Note_off_c, 0, 64, 60
1, 30521, Note_off_c, 0, 52, 57
1, 30521, Note_off_c, 0, 73, 61
1, 30542, Note_off_c, 0, 45, 56
1, 30607, Note_on_c, 0, 63, 89
1, 30609, Note_on_c, 0, 51, 76
1, 30613, Note_on_c, 0, 46, 70
1, 30618, Note_on_c, 0, 72, 62
1, 30635, Note_off_c, 0, 63, 65
1, 30637, Note_off_c, 0, 72, 64
1, 30659, Note_off_c, 0, 46, 53
1, 30670, Note_off_c, 0, 51, 59
1, 30721, Note_on_c, 0, 52, 89
1, 30727, Note_on_c, 0, 61, 81
1, 30727, Note_on_c, 0, 45, 75
1, 30728, Note_on_c, 0, 69, 74
1, 30748, Note_off_c, 0, 61, 67
1, 30753, Note_off_c, 0, 69, 64
1, 30778, Note_off_c, 0, 52, 60
1, 30800, Note_off_c, 0, 45, 58
1, 30836, Note_on_c, 0, 67, 72
1, 30842, Note_on_c, 0, 58, 88
1, 30847, Note_on_c, 0, 51, 85
1, 30852, Note_on_c, 0, 46, 72
1, 30887, Note_off_c, 0, 46, 62
1, 30888, Note_off_c, 0, 58, 58
1, 30897, Note_off_c, 0, 67, 60
1, 30903, Note_off_c, 0, 51, 59
1, 30954, Note_on_c, 0, 61, 95
1, 30957, Note_on_c, 0, 52, 105
1, 30959, Note_on_c, 0, 45, 85
1, 30959, Note_on_c, 0, 69, 86
1, 30983, Note_on_c, 0, 67, 44
1, 31007, Note_off_c, 0, 52, 61
1, 31008, Note_off_c, 0, 61, 62
1, 31009, Note_off_c, 0, 67, 56
1, 31013, Note_off_c, 0, 69, 63
1, 31022, Note_off_c, 0, 45, 60
1, 31075, Note_on_c, 0, 58, 86
1, 31082, Note_on_c, 0, 51, 84
1, 31082, Note_on_c, 0, 67, 77
1, 31087, Note_on_c, 0, 46, 68
1, 31123, Note_off_c, 0, 67, 51
1, 31126, Note_off_c, 0, 46, 58
1, 31129, Note_off_c, 0, 58, 60
1, 31137, Note_off_c, 0, 51, 62
1, 31183, Note_on_c, 0, 61, 79
1, 31193, Note_on_c, 0, 69, 78
1, 31201, Note_on_c, 0, 52, 86
1, 31206, Note_on_c, 0, 45, 74
1, 31222, Note_off_c, 0, 61, 61
1, 31234, Note_off_c, 0, 69, 63
1, 31249, Note_off_c, 0, 45, 56
1, 31252, Note_off_c, 0, 52, 60
1, 31309, Note_on_c, 0, 51, 87
1, 31311, Note_on_c, 0, 46, 81
1, 31317, Note_on_c, 0, 67, 90
1, 31317, Note_on_c, 0, 75, 100
1, 31336, Note_off_c, 0, 51, 66
1, 31341, Note_off_c, 0, 46, 64
1, 31346, Note_off_c, 0, 67, 65
1, 31354, Note_off_c, 0, 75, 59
1, 31761, Control_c, 0, 64, 76
1, 31764, Note_on_c, 0, 40, 102
1, 31767, Note_on_c, 0, 28, 90
1, 31775, Control_c, 0, 64, 127
1, 31785, Note_on_c, 0, 38, 57
1, 31786, Note_off_c, 0, 38, 127
1, 31791, Note_on_c, 0, 34, 53
1, 31792, Note_off_c, 0, 34, 127
1, 31795, Note_off_c, 0, 28, 67
1, 31801, Note_on_c, 0, 32, 35
1, 31802, Note_off_c, 0, 32, 127
1, 31813, Note_off_c, 0, 40, 61
1, 31822, Poly_aftertouch_c, 0, 34, 0
1, 31837, Poly_aftertouch_c, 0, 32, 0
1, 31944, Note_on_c, 0, 45, 83
1, 31967, Note_off_c, 0, 45, 66
1, 32031, Poly_aftertouch_c, 0, 47, 127
1, 32046, Note_on_c, 0, 65, 103
1, 32047, Note_on_c, 0, 70, 102
1, 32048, Note_on_c, 0, 52, 91
1, 32048, Note_on_c, 0, 73, 111
1, 32048, Note_on_c, 0, 77, 86
1, 32051, Note_on_c, 0, 60, 112
1, 32056, Note_on_c, 0, 55, 92
1, 32057, Note_on_c, 0, 75, 83
1, 32059, Note_on_c, 0, 56, 80
1, 32062, Poly_aftertouch_c, 0, 47, 0
1, 32071, Note_on_c, 0, 54, 56
1, 32077, Note_off_c, 0, 65, 69
1, 32080, Note_on_c, 0, 76, 49
1, 32081, Note_off_c, 0, 76, 127
1, 32081, Note_off_c, 0, 60, 63
1, 32082, Note_off_c, 0, 52, 58
1, 32083, Note_off_c, 0, 56, 67
1, 32083, Note_off_c, 0, 55, 63
1, 32085, Note_off_c, 0, 75, 58
1, 32086, Note_off_c, 0, 70, 63
1, 32089, Note_off_c, 0, 77, 57
1, 32091, Note_off_c, 0, 73, 67
1, 32099, Note_off_c, 0, 54, 39
1, 32808, Note_on_c, 0, 74, 77
1, 32821, Note_on_c, 0, 86, 73
1, 32852, Note_on_c, 0, 79, 77
1, 32871, Note_on_c, 0, 91, 83
1, 32879, Note_off_c, 0, 86, 63
1, 32884, Note_on_c, 0, 80, 89
1, 32885, Note_off_c, 0, 74, 60
1, 32896, Note_on_c, 0, 92, 92
1, 32914, Note_off_c, 0, 79, 64
1, 32929, Note_on_c, 0, 97, 93
1, 32930, Note_off_c, 0, 80, 67
1, 32931, Note_off_c, 0, 91, 64
1, 32934, Note_on_c, 0, 85, 100
1, 32951, Note_off_c, 0, 92, 65
1, 32972, Note_off_c, 0, 97, 66
1, 32979, Note_off_c, 0, 85, 66
1, 33080, Note_on_c, 0, 97, 82
1, 33123, Note_off_c, 0, 97, 62
1, 33193, Note_on_c, 0, 97, 85
1, 33225, Note_off_c, 0, 97, 65
1, 33294, Note_on_c, 0, 85, 105
1, 33296, Note_on_c, 0, 97, 104
1, 33328, Note_off_c, 0, 97, 69
1, 33336, Note_off_c, 0, 85, 64
1, 33436, Note_on_c, 0, 97, 76
1, 33457, Note_off_c, 0, 97, 62
1, 33538, Note_on_c, 0, 97, 85
1, 33571, Note_off_c, 0, 97, 64
1, 33630, Note_on_c, 0, 85, 105
1, 33637, Note_on_c, 0, 97, 111
1, 33671, Note_off_c, 0, 85, 67
1, 33672, Note_off_c, 0, 97, 67
1, 33768, Note_on_c, 0, 97, 82
1, 33806, Note_off_c, 0, 97, 64
1, 33881, Note_on_c, 0, 97, 117
1, 33887, Note_on_c, 0, 85, 102
1, 33914, Note_off_c, 0, 97, 68
1, 33926, Note_off_c, 0, 85, 67
1, 34011, Note_on_c, 0, 97, 83
1, 34036, Note_off_c, 0, 97, 61
1, 34112, Note_on_c, 0, 97, 78
1, 34145, Note_off_c, 0, 97, 63
1, 34209, Note_on_c, 0, 97, 101
1, 34212, Note_on_c, 0, 85, 101
1, 34245, Note_off_c, 0, 97, 67
1, 34253, Note_off_c, 0, 85, 67
1, 34332, Note_on_c, 0, 97, 81
1, 34369, Note_off_c, 0, 97, 60
1, 34441, Note_on_c, 0, 97, 65
1, 34462, Note_off_c, 0, 97, 68
1, 34521, Note_on_c, 0, 97, 94
1, 34543, Note_on_c, 0, 85, 89
1, 34569, Note_off_c, 0, 97, 64
1, 34624, Note_on_c, 0, 97, 82
1, 34683, Note_off_c, 0, 85, 62
1, 34686, Note_off_c, 0, 97, 61
1, 34717, Note_on_c, 0, 91, 69
1, 34725, Note_on_c, 0, 101, 76
1, 34766, Note_on_c, 0, 100, 62
1, 34767, Note_off_c, 0, 91, 60
1, 34769, Note_on_c, 0, 86, 66
1, 34793, Note_on_c, 0, 98, 85
1, 34798, Note_off_c, 0, 101, 60
1, 34802, Note_on_c, 0, 85, 72
1, 34823, Note_off_c, 0, 86, 61
1, 34826, Note_off_c, 0, 100, 62
1, 34829, Note_on_c, 0, 97, 76
1, 34853, Note_off_c, 0, 98, 64
1, 34860, Note_on_c, 0, 80, 77
1, 34860, Note_off_c, 0, 85, 63
1, 34896, Note_on_c, 0, 92, 80
1, 34902, Note_off_c, 0, 97, 63
1, 34918, Note_on_c, 0, 88, 72
1, 34931, Note_off_c, 0, 80, 59
1, 34958, Note_on_c, 0, 98, 80
1, 34960, Note_off_c, 0, 92, 61
1, 34966, Note_on_c, 0, 83, 78
1, 34970, Note_off_c, 0, 88, 57
1, 34992, Note_on_c, 0, 96, 76
1, 34993, Note_on_c, 0, 82, 77
1, 35021, Note_on_c, 0, 95, 76
1, 35024, Note_off_c, 0, 83, 62
1, 35040, Note_off_c, 0, 98, 57
1, 35045, Poly_aftertouch_c, 0, 86, 0
1, 35050, Note_off_c, 0, 82, 62
1, 35052, Note_on_c, 0, 94, 77
1, 35054, Note_on_c, 0, 77, 75
1, 35055, Note_off_c, 0, 96, 60
1, 35079, Note_off_c, 0, 95, 63
1, 35100, Note_on_c, 0, 85, 72
1, 35102, Note_on_c, 0, 89, 77
1, 35112, Note_off_c, 0, 94, 64
1, 35123, Note_off_c, 0, 77, 59
1, 35132, Note_on_c, 0, 80, 68
1, 35145, Note_off_c, 0, 85, 64
1, 35148, Note_on_c, 0, 97, 79
1, 35171, Note_on_c, 0, 79, 75
1, 35189, Note_on_c, 0, 96, 64
1, 35189, Note_off_c, 0, 89, 54
1, 35207, Note_off_c, 0, 80, 59
1, 35207, Note_off_c, 0, 97, 55
1, 35213, Note_on_c, 0, 92, 86
1, 35217, Note_on_c, 0, 94, 60
1, 35225, Note_on_c, 0, 74, 81
1, 35225, Note_off_c, 0, 79, 62
1, 35239, Note_off_c, 0, 96, 50
1, 35248, Note_off_c, 0, 94, 65
1, 35260, Note_on_c, 0, 91, 70
1, 35272, Note_on_c, 0, 82, 73
1, 35285, Note_off_c, 0, 74, 64
1, 35309, Note_on_c, 0, 86, 78
1, 35309, Note_off_c, 0, 92, 63
1, 35319, Note_on_c, 0, 78, 79
1, 35333, Note_off_c, 0, 82, 62
1, 35344, Note_off_c, 0, 78, 59
1, 35344, Note_off_c, 0, 91, 59
1, 35351, Note_on_c, 0, 77, 71
1, 35353, Note_on_c, 0, 94, 87
1, 35389, Note_off_c, 0, 86, 60
1, 35411, Note_off_c, 0, 77, 59
1, 35414, Note_on_c, 0, 71, 76
1, 35434, Note_on_c, 0, 89, 82
1, 35441, Note_off_c, 0, 94, 63
1, 35449, Note_on_c, 0, 92, 38
1, 35467, Note_on_c, 0, 79, 69
1, 35475, Note_on_c, 0, 88, 76
1, 35480, Note_off_c, 0, 92, 55
1, 35482, Note_off_c, 0, 71, 61
1, 35499, Note_off_c, 0, 89, 60
1, 35510, Note_on_c, 0, 84, 80
1, 35516, Note_on_c, 0, 74, 72
1, 35525, Note_off_c, 0, 88, 63
1, 35528, Note_off_c, 0, 79, 62
1, 35560, Note_on_c, 0, 73, 78
1, 35579, Note_on_c, 0, 89, 82
1, 35585, Note_off_c, 0, 84, 57
1, 35586, Note_off_c, 0, 74, 58
1, 35599, Note_on_c, 0, 88, 76
1, 35631, Note_on_c, 0, 68, 74
1, 35635, Note_on_c, 0, 86, 77
1, 35637, Note_off_c, 0, 73, 63
1, 35669, Note_off_c, 0, 89, 56
1, 35672, Note_on_c, 0, 85, 82
1, 35678, Note_off_c, 0, 88, 61
1, 35693, Note_on_c, 0, 76, 82
1, 35699, Note_off_c, 0, 86, 63
1, 35707, Note_off_c, 0, 68, 57
1, 35726, Note_off_c, 0, 85, 65
1, 35730, Note_on_c, 0, 71, 72
1, 35735, Note_on_c, 0, 79, 61
1, 35744, Note_on_c, 0, 81, 62
1, 35750, Note_off_c, 0, 76, 61
1, 35774, Note_on_c, 0, 70, 75
1, 35786, Note_on_c, 0, 86, 79
1, 35796, Note_off_c, 0, 79, 60
1, 35798, Note_off_c, 0, 81, 61
1, 35804, Note_off_c, 0, 71, 62
1, 35811, Note_on_c, 0, 84, 73
1, 35835, Note_on_c, 0, 65, 73
1, 35835, Note_off_c, 0, 70, 61
1, 35842, Note_on_c, 0, 83, 82
1, 35872, Note_on_c, 0, 73, 79
1, 35875, Note_off_c, 0, 86, 57
1, 35879, Note_on_c, 0, 82, 78
1, 35882, Note_off_c, 0, 84, 59
1, 35897, Note_off_c, 0, 65, 60
1, 35908, Note_on_c, 0, 68, 70
1, 35909, Note_off_c, 0, 83, 62
1, 35931, Note_on_c, 0, 76, 68
1, 35938, Note_on_c, 0, 77, 50
1, 35938, Note_off_c, 0, 82, 64
1, 35944, Note_off_c, 0, 73, 62
1, 35953, Note_on_c, 0, 67, 68
1, 35981, Note_on_c, 0, 84, 87
1, 35990, Note_off_c, 0, 68, 59
1, 35994, Note_off_c, 0, 76, 62
1, 35997, Note_off_c, 0, 77, 62
1, 36000, Note_on_c, 0, 62, 69
1, 36006, Note_off_c, 0, 67, 61
1, 36040, Note_on_c, 0, 64, 39
1, 36048, Note_on_c, 0, 80, 86
1, 36048, Note_on_c, 0, 82, 45
1, 36054, Note_on_c, 0, 63, 26
1, 36055, Note_off_c, 0, 63, 127
1, 36069, Note_off_c, 0, 64, 55
1, 36071, Note_on_c, 0, 70, 76
1, 36071, Note_off_c, 0, 84, 57
1, 36075, Note_off_c, 0, 82, 60
1, 36098, Note_off_c, 0, 62, 58
1, 36101, Note_on_c, 0, 79, 49
1, 36108, Note_on_c, 0, 77, 61
1, 36111, Note_on_c, 0, 66, 50
1, 36118, Note_on_c, 0, 65, 80
1, 36123, Note_off_c, 0, 70, 58
1, 36123, Note_off_c, 0, 80, 63
1, 36132, Note_on_c, 0, 74, 83
1, 36134, Note_off_c, 0, 79, 64
1, 36140, Note_off_c, 0, 77, 63
1, 36154, Note_off_c, 0, 66, 57
1, 36179, Note_on_c, 0, 59, 79
1, 36182, Note_off_c, 0, 65, 60
1, 36190, Note_on_c, 0, 81, 84
1, 36208, Note_off_c, 0, 74, 61
1, 36241, Note_on_c, 0, 67, 77
1, 36251, Note_on_c, 0, 77, 81
1, 36257, Note_off_c, 0, 59, 62
1, 36275, Note_on_c, 0, 79, 28
1, 36275, Poly_aftertouch_c, 0, 82, 0
1, 36284, Note_off_c, 0, 81, 59
1, 36291, Note_on_c, 0, 76, 80
1, 36300, Note_on_c, 0, 62, 70
1, 36311, Note_off_c, 0, 79, 45
1, 36325, Note_off_c, 0, 77, 60
1, 36326, Note_on_c, 0, 72, 81
1, 36331, Note_off_c, 0, 67, 59
1, 36343, Note_on_c, 0, 61, 76
1, 36344, Note_off_c, 0, 76, 63
1, 36388, Note_off_c, 0, 62, 57
1, 36418, Note_on_c, 0, 77, 62
1, 36422, Note_on_c, 0, 76, 76
1, 36424, Note_on_c, 0, 56, 74
1, 36424, Note_off_c, 0, 72, 54
1, 36429, Note_off_c, 0, 61, 60
1, 36438, Note_on_c, 0, 74, 69
1, 36468, Note_on_c, 0, 64, 62
1, 36478, Note_on_c, 0, 73, 81
1, 36482, Note_off_c, 0, 56, 59
1, 36487, Note_off_c, 0, 76, 62
1, 36489, Note_off_c, 0, 77, 57
1, 36507, Note_off_c, 0, 74, 60
1, 36520, Note_on_c, 0, 69, 75
1, 36535, Note_off_c, 0, 73, 63
1, 36553, Note_on_c, 0, 59, 59
1, 36578, Note_on_c, 0, 72, 80
1, 36581, Note_off_c, 0, 64, 54
1, 36584, Note_off_c, 0, 69, 56
1, 36587, Note_on_c, 0, 74, 66
1, 36595, Note_on_c, 0, 71, 67
1, 36602, Note_on_c, 0, 58, 73
1, 36635, Note_on_c, 0, 70, 85
1, 36653, Note_on_c, 0, 53, 95
1, 36655, Note_on_c, 0, 65, 105
1, 36661, Note_on_c, 0, 57, 62
1, 36667, Note_on_c, 0, 67, 78
1, 36677, Note_off_c, 0, 59, 61
1, 36679, Note_off_c, 0, 58, 63
1, 36680, Note_off_c, 0, 74, 59
1, 36681, Note_off_c, 0, 57, 63
1, 36682, Note_off_c, 0, 67, 43
1, 36689, Note_off_c, 0, 53, 65
1, 36692, Note_off_c, 0, 65, 67
1, 36698, Note_off_c, 0, 72, 59
1, 36698, Note_off_c, 0, 71, 60
1, 36704, Note_off_c, 0, 70, 60
1, 36727, Poly_aftertouch_c, 0, 62, 127
1, 36769, Poly_aftertouch_c, 0, 62, 0
1, 37462, Control_c, 0, 64, 86
1, 37477, Control_c, 0, 64, 57
1, 37492, Control_c, 0, 64, 0
1, 38033, Control_c, 0, 67, 22
1, 38048, Control_c, 0, 67, 30
1, 38063, Control_c, 0, 67, 36
1, 38078, Control_c, 0, 67, 40
1, 38093, Control_c, 0, 67, 44
1, 38108, Control_c, 0, 67, 48
1, 38122, Control_c, 0, 67, 53
1, 38137, Control_c, 0, 67, 59
1, 38152, Control_c, 0, 67, 64
1, 38167, Control_c, 0, 67, 68
1, 38182, Control_c, 0, 67, 72
1, 38196, Control_c, 0, 67, 76
1, 38211, Control_c, 0, 67, 81
1, 38226, Control_c, 0, 67, 87
1, 38241, Control_c, 0, 67, 94
1, 38255, Control_c, 0, 67, 101
1, 38278, Control_c, 0, 67, 108
1, 38293, Control_c, 0, 67, 113
1, 38308, Control_c, 0, 67, 117
1, 38323, Control_c, 0, 64, 24
1, 38323, Control_c, 0, 67, 119
1, 38338, Control_c, 0, 64, 31
1, 38338, Control_c, 0, 67, 122
1, 38352, Control_c, 0, 64, 37
1, 38352, Control_c, 0, 67, 125
1, 38367, Control_c, 0, 64, 42
1, 38367, Control_c, 0, 67, 127
1, 38382, Control_c, 0, 64, 46
1, 38397, Control_c, 0, 64, 50
1, 38412, Control_c, 0, 64, 53
1, 38427, Control_c, 0, 64, 55
1, 38442, Control_c, 0, 64, 57
1, 38456, Control_c, 0, 64, 58
1, 38471, Control_c, 0, 64, 60
1, 38486, Control_c, 0, 64, 61
1, 38501, Control_c, 0, 64, 62
1, 38516, Control_c, 0, 64, 63
1, 38531, Control_c, 0, 64, 65
1, 38546, Control_c, 0, 64, 66
1, 38560, Control_c, 0, 64, 67
1, 38575, Control_c, 0, 64, 69
1, 38590, Control_c, 0, 64, 72
1, 38605, Control_c, 0, 64, 74
1, 38620, Control_c, 0, 64, 77
1, 38634, Control_c, 0, 64, 80
1, 38649, Control_c, 0, 64, 82
1, 38664, Control_c, 0, 64, 84
1, 38679, Control_c, 0, 64, 86
1, 38694, Control_c, 0, 64, 89
1, 38708, Control_c, 0, 64, 91
1, 38723, Control_c, 0, 64, 94
1, 38738, Control_c, 0, 64, 98
1, 38752, Control_c, 0, 64, 101
1, 38767, Control_c, 0, 64, 104
1, 38782, Control_c, 0, 64, 107
1, 38797, Control_c, 0, 64, 110
1, 38812, Control_c, 0, 64, 114
1, 38826, Control_c, 0, 64, 118
1, 38841, Control_c, 0, 64, 127
1, 39155, Note_on_c, 0, 40, 41
1, 39158, Note_on_c, 0, 28, 37
1, 39196, Note_off_c, 0, 40, 56
1, 39197, Note_off_c, 0, 28, 49
1, 39494, Note_on_c, 0, 47, 43
1, 39533, Note_off_c, 0, 47, 62
1, 39661, Note_on_c, 0, 73, 51
1, 39667, Note_on_c, 0, 77, 49
1, 39667, Note_on_c, 0, 65, 44
1, 39673, Note_on_c, 0, 70, 43
1, 39676, Note_on_c, 0, 52, 38
1, 39691, Note_on_c, 0, 62, 40
1, 39693, Note_on_c, 0, 56, 42
1, 39729, Note_off_c, 0, 52, 0
1, 39729, Note_on_c, 0, 52, 9
1, 39951, Note_off_c, 0, 65, 50
1, 40042, Note_off_c, 0, 70, 53
1, 40060, Note_off_c, 0, 77, 40
1, 40102, Note_off_c, 0, 52, 39
1, 40126, Note_off_c, 0, 73, 39
1, 40159, Note_off_c, 0, 56, 41
1, 40176, Note_off_c, 0, 62, 35
1, 40742, Note_on_c, 0, 86, 53
1, 40749, Note_on_c, 0, 74, 57
1, 40802, Note_off_c, 0, 86, 55
1, 40803, Note_off_c, 0, 74, 55
1, 40805, Note_on_c, 0, 91, 61
1, 40814, Note_on_c, 0, 79, 60
1, 40853, Note_off_c, 0, 91, 51
1, 40856, Note_on_c, 0, 92, 63
1, 40865, Note_off_c, 0, 79, 55
1, 40880, Note_on_c, 0, 80, 45
1, 40909, Note_on_c, 0, 97, 70
1, 40915, Note_off_c, 0, 80, 63
1, 40916, Note_off_c, 0, 92, 61
1, 40919, Note_on_c, 0, 85, 76
1, 40931, Note_off_c, 0, 97, 65
1, 40957, Note_off_c, 0, 85, 52
1, 41058, Note_on_c, 0, 97, 62
1, 41083, Note_off_c, 0, 97, 65
1, 41169, Note_on_c, 0, 97, 65
1, 41193, Note_off_c, 0, 97, 62
1, 41282, Note_on_c, 0, 97, 85
1, 41294, Note_on_c, 0, 85, 77
1, 41318, Note_off_c, 0, 97, 63
1, 41320, Note_off_c, 0, 85, 62
1, 41417, Note_on_c, 0, 97, 53
1, 41439, Note_off_c, 0, 97, 60
1, 41516, Note_on_c, 0, 97, 65
1, 41547, Note_off_c, 0, 97, 62
1, 41628, Note_on_c, 0, 97, 80
1, 41629, Control_c, 0, 67, 127
1, 41632, Note_on_c, 0, 85, 71
1, 41659, Note_off_c, 0, 85, 63
1, 41661, Note_off_c, 0, 97, 62
1, 41762, Note_on_c, 0, 97, 43
1, 41789, Note_off_c, 0, 97, 58
1, 41858, Note_on_c, 0, 97, 84
1, 41876, Note_on_c, 0, 85, 76
1, 41893, Note_off_c, 0, 97, 63
1, 41905, Note_off_c, 0, 85, 60
1, 41989, Note_on_c, 0, 97, 51
1, 42011, Note_off_c, 0, 97, 62
1, 42096, Note_on_c, 0, 97, 62
1, 42123, Note_off_c, 0, 97, 63
1, 42125, Control_c, 0, 67, 126
1, 42203, Note_on_c, 0, 97, 81
1, 42218, Note_on_c, 0, 85, 75
1, 42242, Note_off_c, 0, 97, 59
1, 42245, Note_off_c, 0, 85, 61
1, 42351, Note_on_c, 0, 97, 36
1, 42382, Note_off_c, 0, 97, 57
1, 42407, Control_c, 0, 67, 126
1, 42456, Note_on_c, 0, 97, 58
1, 42475, Note_off_c, 0, 97, 64
1, 42540, Note_on_c, 0, 97, 74
1, 42567, Note_on_c, 0, 85, 63
1, 42574, Note_off_c, 0, 97, 59
1, 42645, Note_on_c, 0, 97, 71
1, 42660, Control_c, 0, 67, 125
1, 42689, Note_off_c, 0, 97, 51
1, 42689, Control_c, 0, 67, 125
1, 42697, Note_off_c, 0, 85, 60
1, 42719, Control_c, 0, 67, 124
1, 42740, Note_on_c, 0, 91, 53
1, 42749, Note_on_c, 0, 101, 67
1, 42749, Control_c, 0, 67, 124
1, 42770, Note_off_c, 0, 91, 65
1, 42771, Control_c, 0, 67, 123
1, 42786, Control_c, 0, 67, 123
1, 42804, Note_on_c, 0, 86, 57
1, 42804, Note_on_c, 0, 100, 54
1, 42815, Control_c, 0, 67, 122
1, 42817, Note_off_c, 0, 101, 51
1, 42819, Note_on_c, 0, 98, 73
1, 42824, Note_on_c, 0, 85, 68
1, 42830, Control_c, 0, 67, 122
1, 42833, Note_off_c, 0, 86, 64
1, 42835, Note_off_c, 0, 100, 51
1, 42844, Control_c, 0, 67, 121
1, 42859, Control_c, 0, 67, 121
1, 42867, Note_on_c, 0, 97, 66
1, 42868, Note_off_c, 0, 98, 0
1, 42874, Control_c, 0, 67, 120
1, 42877, Note_off_c, 0, 85, 63
1, 42886, Note_on_c, 0, 80, 68
1, 42889, Note_on_c, 0, 98, 23
1, 42907, Note_off_c, 0, 97, 48
1, 42919, Control_c, 0, 67, 120
1, 42929, Note_off_c, 0, 98, 56
1, 42948, Note_off_c, 0, 80, 57
1, 42955, Note_on_c, 0, 88, 61
1, 42961, Note_on_c, 0, 93, 33
1, 42987, Note_off_c, 0, 88, 58
1, 42996, Note_on_c, 0, 98, 68
1, 42996, Note_off_c, 0, 93, 52
1, 43010, Note_on_c, 0, 83, 71
1, 43034, Note_on_c, 0, 82, 72
1, 43037, Note_on_c, 0, 96, 62
1, 43051, Note_off_c, 0, 83, 57
1, 43052, Control_c, 0, 67, 119
1, 43056, Note_on_c, 0, 95, 77
1, 43065, Note_off_c, 0, 98, 58
1, 43077, Note_off_c, 0, 96, 54
1, 43090, Note_off_c, 0, 82, 61
1, 43092, Note_on_c, 0, 94, 73
1, 43102, Note_on_c, 0, 77, 70
1, 43110, Note_off_c, 0, 95, 61
1, 43128, Control_c, 0, 67, 119
1, 43137, Note_on_c, 0, 89, 73
1, 43141, Note_on_c, 0, 85, 67
1, 43144, Note_off_c, 0, 94, 63
1, 43157, Control_c, 0, 67, 118
1, 43158, Note_off_c, 0, 77, 53
1, 43172, Control_c, 0, 67, 118
1, 43178, Note_on_c, 0, 97, 82
1, 43190, Note_on_c, 0, 80, 67
1, 43196, Note_off_c, 0, 85, 64
1, 43202, Control_c, 0, 67, 117
1, 43216, Control_c, 0, 67, 117
1, 43217, Note_on_c, 0, 79, 62
1, 43219, Note_off_c, 0, 89, 51
1, 43244, Note_on_c, 0, 92, 81
1, 43253, Note_off_c, 0, 80, 56
1, 43269, Note_off_c, 0, 79, 55
1, 43269, Note_off_c, 0, 97, 61
1, 43271, Note_on_c, 0, 74, 79
1, 43275, Control_c, 0, 67, 116
1, 43286, Note_on_c, 0, 91, 66
1, 43305, Control_c, 0, 67, 116
1, 43312, Note_on_c, 0, 82, 69
1, 43321, Note_off_c, 0, 92, 63
1, 43324, Note_on_c, 0, 86, 67
1, 43327, Note_off_c, 0, 74, 61
1, 43332, Note_off_c, 0, 91, 57
1, 43335, Control_c, 0, 67, 115
1, 43349, Control_c, 0, 67, 114
1, 43351, Note_on_c, 0, 88, 54
1, 43364, Control_c, 0, 67, 114
1, 43369, Note_on_c, 0, 78, 62
1, 43374, Note_off_c, 0, 82, 61
1, 43379, Control_c, 0, 67, 113
1, 43386, Note_off_c, 0, 78, 65
1, 43393, Note_on_c, 0, 77, 69
1, 43396, Note_on_c, 0, 95, 64
1, 43398, Note_off_c, 0, 86, 55
1, 43402, Note_on_c, 0, 94, 42
1, 43409, Control_c, 0, 67, 113
1, 43412, Note_off_c, 0, 88, 36
1, 43423, Control_c, 0, 67, 112
1, 43431, Note_off_c, 0, 95, 55
1, 43432, Note_on_c, 0, 90, 83
1, 43441, Note_on_c, 0, 92, 50
1, 43447, Note_off_c, 0, 77, 54
1, 43447, Note_off_c, 0, 94, 45
1, 43461, Note_off_c, 0, 92, 60
1, 43462, Note_on_c, 0, 71, 65
1, 43467, Control_c, 0, 67, 112
1, 43482, Note_off_c, 0, 90, 64
1, 43495, Note_on_c, 0, 88, 68
1, 43518, Note_on_c, 0, 79, 63
1, 43535, Note_on_c, 0, 84, 77
1, 43539, Note_off_c, 0, 71, 56
1, 43546, Note_off_c, 0, 88, 60
1, 43571, Note_on_c, 0, 74, 62
1, 43574, Note_off_c, 0, 79, 58
1, 43590, Note_on_c, 0, 89, 72
1, 43594, Control_c, 0, 67, 112
1, 43597, Note_off_c, 0, 84, 60
1, 43607, Note_on_c, 0, 73, 77
1, 43618, Note_on_c, 0, 88, 61
1, 43629, Note_off_c, 0, 74, 54
1, 43638, Control_c, 0, 67, 113
1, 43648, Note_on_c, 0, 86, 77
1, 43682, Note_off_c, 0, 73, 63
1, 43682, Note_off_c, 0, 89, 50
1, 43685, Note_off_c, 0, 88, 59
1, 43686, Note_on_c, 0, 68, 73
1, 43686, Note_on_c, 0, 85, 80
1, 43711, Note_off_c, 0, 86, 58
1, 43742, Note_on_c, 0, 81, 77
1, 43749, Note_on_c, 0, 76, 80
1, 43749, Note_off_c, 0, 85, 63
1, 43754, Note_off_c, 0, 68, 54
1, 43792, Note_on_c, 0, 71, 67
1, 43804, Note_off_c, 0, 76, 59
1, 43807, Note_on_c, 0, 86, 76
1, 43820, Note_on_c, 0, 84, 77
1, 43822, Note_off_c, 0, 81, 59
1, 43838, Note_on_c, 0, 70, 73
1, 43851, Note_on_c, 0, 83, 84
1, 43861, Note_off_c, 0, 71, 59
1, 43886, Note_on_c, 0, 65, 73
1, 43886, Note_off_c, 0, 84, 60
1, 43888, Note_on_c, 0, 82, 84
1, 43888, Note_off_c, 0, 70, 60
1, 43890, Note_off_c, 0, 86, 59
1, 43915, Note_off_c, 0, 83, 62
1, 43935, Control_c, 0, 67, 111
1, 43937, Note_on_c, 0, 73, 77
1, 43942, Note_on_c, 0, 77, 71
1, 43946, Note_off_c, 0, 82, 64
1, 43950, Control_c, 0, 67, 106
1, 43956, Note_off_c, 0, 65, 60
1, 43960, Note_on_c, 0, 68, 57
1, 43965, Control_c, 0, 67, 91
1, 43980, Control_c, 0, 67, 58
1, 43980, Note_on_c, 0, 85, 81
1, 43995, Control_c, 0, 67, 23
1, 43999, Note_off_c, 0, 73, 61
1, 44010, Control_c, 0, 67, 0
1, 44015, Note_off_c, 0, 77, 59
1, 44016, Note_on_c, 0, 67, 68
1, 44045, Note_on_c, 0, 80, 84
1, 44059, Note_on_c, 0, 62, 75
1, 44061, Note_off_c, 0, 67, 62
1, 44062, Note_on_c, 0, 82, 43
1, 44072, Note_off_c, 0, 85, 62
1, 44079, Note_on_c, 0, 79, 71
1, 44081, Note_off_c, 0, 68, 38
1, 44087, Note_off_c, 0, 82, 57
1, 44113, Note_on_c, 0, 70, 72
1, 44122, Note_off_c, 0, 80, 61
1, 44127, Note_on_c, 0, 74, 78
1, 44133, Note_off_c, 0, 62, 61
1, 44146, Note_off_c, 0, 79, 60
1, 44168, Note_on_c, 0, 65, 78
1, 44169, Note_on_c, 0, 82, 78
1, 44177, Note_off_c, 0, 70, 59
1, 44201, Note_off_c, 0, 74, 60
1, 44235, Note_on_c, 0, 59, 73
1, 44235, Note_off_c, 0, 65, 59
1, 44237, Note_on_c, 0, 78, 84
1, 44251, Note_on_c, 0, 80, 36
1, 44280, Note_off_c, 0, 82, 61
1, 44290, Note_off_c, 0, 80, 50
1, 44290, Note_on_c, 0, 76, 71
1, 44303, Note_off_c, 0, 78, 60
1, 44305, Note_on_c, 0, 67, 75
1, 44305, Note_on_c, 0, 77, 51
1, 44317, Note_off_c, 0, 59, 57
1, 44329, Note_off_c, 0, 77, 57
1, 44334, Note_on_c, 0, 72, 80
1, 44341, Note_on_c, 0, 62, 71
1, 44345, Note_off_c, 0, 76, 64
1, 44370, Note_off_c, 0, 67, 59
1, 44391, Note_on_c, 0, 61, 77
1, 44394, Note_on_c, 0, 77, 83
1, 44406, Note_on_c, 0, 76, 78
1, 44409, Note_off_c, 0, 72, 59
1, 44428, Note_off_c, 0, 62, 57
1, 44437, Note_on_c, 0, 74, 81
1, 44453, Note_on_c, 0, 56, 76
1, 44473, Note_off_c, 0, 61, 60
1, 44478, Note_on_c, 0, 73, 86
1, 44484, Note_off_c, 0, 76, 62
1, 44484, Note_off_c, 0, 77, 58
1, 44508, Note_off_c, 0, 74, 62
1, 44520, Note_on_c, 0, 64, 82
1, 44524, Note_on_c, 0, 69, 79
1, 44538, Note_off_c, 0, 56, 60
1, 44542, Note_off_c, 0, 73, 63
1, 44569, Note_on_c, 0, 59, 71
1, 44594, Note_on_c, 0, 74, 79
1, 44595, Note_off_c, 0, 64, 57
1, 44599, Note_on_c, 0, 72, 85
1, 44612, Note_on_c, 0, 58, 75
1, 44612, Note_off_c, 0, 69, 62
1, 44626, Note_on_c, 0, 71, 79
1, 44651, Note_off_c, 0, 59, 59
1, 44657, Note_on_c, 0, 53, 78
1, 44665, Note_on_c, 0, 70, 86
1, 44667, Note_off_c, 0, 72, 62
1, 44671, Note_off_c, 0, 74, 62
1, 44678, Note_off_c, 0, 58, 58
1, 44693, Note_off_c, 0, 71, 62
1, 44712, Note_on_c, 0, 65, 77
1, 44722, Note_on_c, 0, 61, 63
1, 44725, Note_off_c, 0, 70, 62
1, 44733, Note_off_c, 0, 53, 59
1, 44749, Note_on_c, 0, 56, 74
1, 44755, Note_on_c, 0, 73, 87
1, 44788, Note_off_c, 0, 65, 61
1, 44788, Note_on_c, 0, 55, 76
1, 44788, Note_off_c, 0, 61, 59
1, 44801, Poly_aftertouch_c, 0, 63, 127
1, 44812, Note_on_c, 0, 70, 57
1, 44826, Note_off_c, 0, 56, 61
1, 44827, Note_on_c, 0, 68, 86
1, 44831, Poly_aftertouch_c, 0, 63, 0
1, 44832, Note_on_c, 0, 50, 82
1, 44845, Note_off_c, 0, 55, 60
1, 44865, Note_off_c, 0, 73, 62
1, 44870, Note_off_c, 0, 70, 56
1, 44880, Note_on_c, 0, 67, 57
1, 44887, Note_on_c, 0, 58, 79
1, 44895, Note_on_c, 0, 65, 58
1, 44904, Note_off_c, 0, 68, 61
1, 44914, Note_on_c, 0, 62, 84
1, 44916, Note_off_c, 0, 65, 65
1, 44923, Note_off_c, 0, 67, 61
1, 44928, Note_off_c, 0, 50, 42
1, 44946, Note_on_c, 0, 53, 77
1, 44966, Note_on_c, 0, 70, 87
1, 44967, Note_off_c, 0, 58, 58
1, 44980, Note_off_c, 0, 62, 61
1, 45001, Poly_aftertouch_c, 0, 54, 127
1, 45022, Note_on_c, 0, 47, 85
1, 45027, Note_off_c, 0, 53, 61
1, 45035, Note_on_c, 0, 65, 76
1, 45051, Note_on_c, 0, 67, 47
1, 45053, Note_on_c, 0, 49, 32
1, 45056, Poly_aftertouch_c, 0, 54, 0
1, 45071, Note_on_c, 0, 64, 77
1, 45077, Note_off_c, 0, 67, 57
1, 45077, Note_off_c, 0, 70, 61
1, 45089, Note_on_c, 0, 55, 71
1, 45090, Note_off_c, 0, 49, 52
1, 45104, Note_off_c, 0, 47, 57
1, 45106, Note_on_c, 0, 60, 85
1, 45116, Note_off_c, 0, 65, 62
1, 45132, Note_off_c, 0, 64, 59
1, 45140, Note_on_c, 0, 50, 72
1, 45178, Note_off_c, 0, 55, 55
1, 45181, Note_on_c, 0, 49, 76
1, 45183, Poly_aftertouch_c, 0, 57, 0
1, 45189, Note_on_c, 0, 65, 80
1, 45205, Note_on_c, 0, 64, 71
1, 45218, Note_off_c, 0, 60, 54
1, 45221, Note_on_c, 0, 62, 74
1, 45224, Note_off_c, 0, 50, 60
1, 45263, Note_on_c, 0, 61, 80
1, 45264, Note_off_c, 0, 49, 62
1, 45276, Note_on_c, 0, 52, 84
1, 45280, Note_off_c, 0, 64, 49
1, 45290, Note_off_c, 0, 65, 57
1, 45295, Note_off_c, 0, 62, 58
1, 45311, Note_on_c, 0, 57, 74
1, 45327, Note_on_c, 0, 59, 61
1, 45330, Note_off_c, 0, 61, 62
1, 45363, Note_off_c, 0, 59, 45
1, 45363, Note_on_c, 0, 47, 65
1, 45373, Note_on_c, 0, 60, 73
1, 45381, Note_off_c, 0, 57, 64
1, 45387, Note_on_c, 0, 46, 71
1, 45390, Note_off_c, 0, 52, 54
1, 45405, Note_on_c, 0, 59, 57
1, 45422, Note_on_c, 0, 58, 16
1, 45459, Note_off_c, 0, 58, 0
1, 45459, Note_on_c, 0, 58, 28
1, 45462, Note_on_c, 0, 41, 91
1, 45471, Note_on_c, 0, 53, 100
1, 45485, Note_on_c, 0, 45, 34
1, 45488, Note_on_c, 0, 52, 69
1, 45489, Note_off_c, 0, 52, 127
1, 45489, Note_on_c, 0, 57, 60
1, 45492, Note_off_c, 0, 47, 53
1, 45494, Note_off_c, 0, 46, 61
1, 45496, Note_off_c, 0, 59, 43
1, 45500, Note_off_c, 0, 41, 65
1, 45506, Note_off_c, 0, 57, 69
1, 45520, Note_off_c, 0, 53, 63
1, 45521, Note_off_c, 0, 45, 51
1, 45536, Note_off_c, 0, 58, 54
1, 45539, Note_off_c, 0, 60, 55
1, 45987, Control_c, 0, 64, 70
1, 46002, Control_c, 0, 64, 18
1, 46017, Control_c, 0, 64, 0
1, 46811, Control_c, 0, 64, 37
1, 46815, Note_on_c, 0, 51, 81
1, 46821, Note_on_c, 0, 21, 72
1, 46826, Control_c, 0, 64, 59
1, 46827, Note_on_c, 0, 43, 70
1, 46841, Control_c, 0, 64, 67
1, 46856, Control_c, 0, 64, 75
1, 46860, Note_on_c, 0, 48, 42
1, 46871, Control_c, 0, 64, 89
1, 46885, Control_c, 0, 64, 114
1, 46900, Control_c, 0, 64, 127
1, 46904, Note_off_c, 0, 43, 60
1, 46925, Note_off_c, 0, 48, 57
1, 46966, Note_off_c, 0, 51, 59
1, 46976, Note_off_c, 0, 21, 57
1, 47320, Note_on_c, 0, 49, 80
1, 47324, Note_on_c, 0, 57, 79
1, 47331, Note_on_c, 0, 54, 69
1, 47363, Note_off_c, 0, 54, 65
1, 47364, Note_off_c, 0, 49, 61
1, 47403, Note_off_c, 0, 57, 57
1, 47636, Note_on_c, 0, 63, 84
1, 47637, Note_on_c, 0, 55, 73
1, 47647, Note_on_c, 0, 60, 71
1, 47691, Note_off_c, 0, 55, 60
1, 47709, Note_off_c, 0, 60, 55
1, 47712, Note_off_c, 0, 63, 59
1, 47811, Note_on_c, 0, 69, 90
1, 47820, Note_on_c, 0, 61, 74
1, 47822, Note_on_c, 0, 66, 80
1, 47881, Note_off_c, 0, 69, 59
1, 47890, Note_off_c, 0, 61, 56
1, 47899, Note_off_c, 0, 66, 58
1, 47955, Note_on_c, 0, 75, 84
1, 47959, Note_on_c, 0, 72, 86
1, 47963, Note_on_c, 0, 67, 78
1, 47983, Note_on_c, 0, 69, 61
1, 48010, Note_off_c, 0, 67, 59
1, 48013, Note_off_c, 0, 69, 62
1, 48025, Note_off_c, 0, 72, 60
1, 48032, Note_off_c, 0, 75, 60
1, 48100, Note_on_c, 0, 73, 92
1, 48107, Note_on_c, 0, 79, 82
1, 48120, Note_on_c, 0, 77, 67
1, 48155, Note_off_c, 0, 73, 63
1, 48167, Note_off_c, 0, 77, 51
1, 48179, Note_on_c, 0, 72, 14
1, 48212, Note_on_c, 0, 80, 82
1, 48222, Note_off_c, 0, 72, 40
1, 48226, Note_on_c, 0, 87, 83
1, 48235, Note_on_c, 0, 84, 74
1, 48242, Note_off_c, 0, 79, 49
1, 48250, Note_on_c, 0, 88, 55
1, 48261, Note_off_c, 0, 84, 61
1, 48269, Note_off_c, 0, 88, 64
1, 48270, Note_off_c, 0, 87, 52
1, 48287, Note_off_c, 0, 80, 60
1, 48344, Note_on_c, 0, 93, 100
1, 48350, Note_on_c, 0, 85, 64
1, 48356, Note_on_c, 0, 90, 78
1, 48385, Note_off_c, 0, 85, 47
1, 48401, Note_off_c, 0, 93, 64
1, 48419, Note_off_c, 0, 90, 63
1, 48433, Poly_aftertouch_c, 0, 87, 127
1, 48459, Poly_aftertouch_c, 0, 87, 0
1, 48475, Note_on_c, 0, 91, 101
1, 48476, Note_on_c, 0, 96, 99
1, 48476, Note_on_c, 0, 99, 97
1, 48513, Note_off_c, 0, 91, 66
1, 48523, Note_off_c, 0, 96, 64
1, 48534, Note_on_c, 0, 98, 13
1, 48538, Note_off_c, 0, 99, 61
1, 48581, Note_off_c, 0, 98, 54
1, 48622, Note_on_c, 0, 97, 110
1, 48624, Note_on_c, 0, 105, 99
1, 48629, Note_on_c, 0, 102, 84
1, 48631, Note_on_c, 0, 88, 96
1, 48642, Note_off_c, 0, 102, 70
1, 48645, Note_on_c, 0, 103, 68
1, 48648, Note_off_c, 0, 97, 71
1, 48654, Note_off_c, 0, 105, 65
1, 48657, Note_on_c, 0, 104, 36
1, 48658, Note_off_c, 0, 104, 127
1, 48662, Note_off_c, 0, 103, 67
1, 48739, Note_on_c, 0, 87, 80
1, 48782, Note_off_c, 0, 88, 39
1, 48808, Note_on_c, 0, 82, 81
1, 48833, Note_on_c, 0, 81, 80
1, 48854, Note_off_c, 0, 87, 63
1, 48863, Note_on_c, 0, 85, 12
1, 48894, Note_on_c, 0, 76, 74
1, 48894, Note_off_c, 0, 82, 65
1, 48902, Note_on_c, 0, 75, 85
1, 48908, Note_off_c, 0, 85, 52
1, 48911, Note_off_c, 0, 81, 64
1, 48911, Note_off_c, 0, 76, 63
1, 48914, Note_on_c, 0, 79, 43
1, 48939, Note_off_c, 0, 79, 55
1, 48958, Note_on_c, 0, 73, 67
1, 48959, Note_on_c, 0, 70, 79
1, 48971, Poly_aftertouch_c, 0, 77, 0
1, 48983, Note_off_c, 0, 73, 67
1, 48995, Note_on_c, 0, 69, 67
1, 48996, Poly_aftertouch_c, 0, 77, 0
1, 49022, Note_off_c, 0, 75, 60
1, 49037, Note_on_c, 0, 65, 75
1, 49043, Note_off_c, 0, 70, 57
1, 49061, Note_on_c, 0, 64, 68
1, 49064, Note_off_c, 0, 69, 64
1, 49074, Note_on_c, 0, 63, 78
1, 49086, Note_off_c, 0, 64, 0
1, 49086, Note_on_c, 0, 64, 57
1, 49113, Poly_aftertouch_c, 0, 71, 0
1, 49130, Note_on_c, 0, 57, 85
1, 49143, Note_on_c, 0, 59, 71
1, 49158, Note_off_c, 0, 65, 58
1, 49182, Note_on_c, 0, 51, 80
1, 49185, Note_off_c, 0, 64, 54
1, 49206, Note_on_c, 0, 49, 84
1, 49206, Note_off_c, 0, 63, 20
1, 49223, Note_on_c, 0, 46, 88
1, 49232, Note_off_c, 0, 57, 63
1, 49241, Note_off_c, 0, 59, 58
1, 49247, Note_off_c, 0, 51, 56
1, 49253, Note_off_c, 0, 49, 61
1, 49271, Note_on_c, 0, 45, 80
1, 49282, Note_off_c, 0, 46, 62
1, 49283, Note_on_c, 0, 43, 77
1, 49304, Note_off_c, 0, 43, 63
1, 49313, Note_off_c, 0, 45, 61
1, 49389, Note_on_c, 0, 38, 74
1, 49396, Note_on_c, 0, 40, 62
1, 49417, Note_on_c, 0, 36, 48
1, 49419, Note_on_c, 0, 34, 63
1, 49420, Note_on_c, 0, 35, 60
1, 49426, Note_on_c, 0, 33, 82
1, 49444, Note_off_c, 0, 34, 60
1, 49479, Note_off_c, 0, 40, 59
1, 49480, Note_off_c, 0, 38, 60
1, 49489, Control_c, 0, 64, 114
1, 49490, Note_off_c, 0, 36, 54
1, 49510, Control_c, 0, 64, 63
1, 49525, Note_on_c, 0, 25, 104
1, 49525, Control_c, 0, 64, 0
1, 49537, Note_off_c, 0, 33, 61
1, 49548, Poly_aftertouch_c, 0, 39, 0
1, 49557, Note_off_c, 0, 35, 33
1, 49599, Control_c, 0, 64, 61
1, 49614, Control_c, 0, 64, 79
1, 49629, Control_c, 0, 64, 111
1, 49644, Control_c, 0, 64, 127
1, 49784, Note_off_c, 0, 25, 57
1, 51277, Note_on_c, 0, 61, 56
1, 51334, Note_off_c, 0, 61, 55
1, 51377, Note_on_c, 0, 87, 58
1, 51380, Note_on_c, 0, 85, 65
1, 51386, Note_on_c, 0, 97, 60
1, 51403, Note_on_c, 0, 76, 64
1, 51444, Note_off_c, 0, 97, 58
1, 51445, Note_off_c, 0, 85, 58
1, 51447, Note_off_c, 0, 87, 51
1, 51464, Note_off_c, 0, 76, 47
1, 52627, Note_on_c, 0, 56, 58
1, 52682, Note_off_c, 0, 56, 57
1, 52733, Note_on_c, 0, 71, 71
1, 52733, Note_on_c, 0, 82, 65
1, 52738, Note_on_c, 0, 85, 57
1, 52739, Note_on_c, 0, 94, 59
1, 52780, Note_off_c, 0, 71, 56
1, 52789, Note_off_c, 0, 94, 58
1, 52795, Note_off_c, 0, 85, 56
1, 52802, Note_off_c, 0, 82, 57
1, 54166, Note_on_c, 0, 66, 48
1, 54166, Note_on_c, 0, 74, 50
1, 54169, Note_on_c, 0, 78, 61
1, 54172, Note_on_c, 0, 86, 59
1, 54174, Note_on_c, 0, 85, 58
1, 54175, Note_on_c, 0, 69, 48
1, 54175, Note_on_c, 0, 76, 57
1, 54190, Note_on_c, 0, 73, 45
1, 54234, Note_off_c, 0, 76, 49
1, 54237, Note_off_c, 0, 73, 55
1, 54249, Note_off_c, 0, 78, 49
1, 54250, Note_off_c, 0, 74, 50
1, 54251, Note_off_c, 0, 66, 55
1, 54252, Poly_aftertouch_c, 0, 81, 0
1, 54258, Note_off_c, 0, 85, 58
1, 54261, Note_off_c, 0, 86, 49
1, 54264, Note_off_c, 0, 69, 56
1, 54279, Poly_aftertouch_c, 0, 81, 0
1, 55705, Note_on_c, 0, 78, 65
1, 55706, Note_on_c, 0, 75, 66
1, 55707, Note_on_c, 0, 88, 63
1, 55711, Note_on_c, 0, 64, 59
1, 55713, Note_on_c, 0, 80, 59
1, 55713, Note_on_c, 0, 87, 60
1, 55740, Note_on_c, 0, 68, 37
1, 55741, Note_off_c, 0, 75, 60
1, 55752, Note_on_c, 0, 83, 20
1, 55758, Note_off_c, 0, 80, 53
1, 55769, Note_off_c, 0, 68, 54
1, 55771, Note_on_c, 0, 66, 16
1, 55772, Note_off_c, 0, 78, 58
1, 55776, Note_off_c, 0, 87, 57
1, 55784, Note_off_c, 0, 88, 51
1, 55788, Note_off_c, 0, 64, 52
1, 55797, Note_off_c, 0, 83, 52
1, 55814, Note_off_c, 0, 66, 38
1, 55959, Control_c, 0, 64, 94
1, 55974, Control_c, 0, 64, 65
1, 55988, Note_on_c, 0, 64, 85
1, 55989, Control_c, 0, 64, 61
1, 55992, Note_on_c, 0, 56, 87
1, 55998, Note_on_c, 0, 59, 80
1, 56004, Control_c, 0, 64, 66
1, 56019, Control_c, 0, 64, 74
1, 56034, Control_c, 0, 64, 91
1, 56049, Control_c, 0, 64, 127
1, 56063, Note_off_c, 0, 64, 58
1, 56065, Note_off_c, 0, 56, 56
1, 56069, Note_off_c, 0, 59, 59
1, 56211, Control_c, 0, 64, 75
1, 56226, Control_c, 0, 64, 58
1, 56249, Control_c, 0, 64, 56
1, 56256, Note_on_c, 0, 62, 86
1, 56261, Note_on_c, 0, 54, 88
1, 56264, Control_c, 0, 64, 64
1, 56267, Note_on_c, 0, 57, 83
1, 56278, Control_c, 0, 64, 74
1, 56283, Note_on_c, 0, 56, 65
1, 56293, Control_c, 0, 64, 104
1, 56302, Note_off_c, 0, 56, 67
1, 56308, Control_c, 0, 64, 127
1, 56329, Note_off_c, 0, 62, 57
1, 56342, Note_off_c, 0, 57, 59
1, 56348, Note_off_c, 0, 54, 62
1, 56455, Control_c, 0, 64, 113
1, 56470, Control_c, 0, 64, 70
1, 56485, Control_c, 0, 64, 55
1, 56494, Note_on_c, 0, 59, 94
1, 56498, Note_on_c, 0, 52, 85
1, 56499, Note_on_c, 0, 56, 80
1, 56500, Control_c, 0, 64, 57
1, 56515, Control_c, 0, 64, 67
1, 56530, Control_c, 0, 64, 79
1, 56545, Note_off_c, 0, 59, 62
1, 56545, Control_c, 0, 64, 114
1, 56560, Control_c, 0, 64, 127
1, 56560, Note_off_c, 0, 56, 61
1, 56562, Note_off_c, 0, 52, 58
1, 56679, Control_c, 0, 64, 101
1, 56694, Control_c, 0, 64, 54
1, 56709, Control_c, 0, 64, 0
1, 56735, Note_on_c, 0, 58, 92
1, 56737, Note_on_c, 0, 55, 86
1, 56747, Note_on_c, 0, 50, 80
1, 56773, Note_off_c, 0, 50, 66
1, 56780, Note_off_c, 0, 58, 59
1, 56782, Note_off_c, 0, 55, 63
1, 56798, Control_c, 0, 64, 68
1, 56813, Control_c, 0, 64, 90
1, 56827, Control_c, 0, 64, 127
1, 56848, Note_on_c, 0, 56, 93
1, 56851, Note_on_c, 0, 52, 88
1, 56856, Note_on_c, 0, 47, 82
1, 56917, Note_off_c, 0, 56, 57
1, 56929, Note_off_c, 0, 47, 58
1, 56934, Note_off_c, 0, 52, 58
1, 57042, Control_c, 0, 64, 80
1, 57057, Control_c, 0, 64, 42
1, 57071, Control_c, 0, 64, 0
1, 57084, Note_on_c, 0, 55, 91
1, 57086, Control_c, 0, 64, 39
1, 57088, Note_on_c, 0, 46, 87
1, 57090, Note_on_c, 0, 51, 90
1, 57101, Control_c, 0, 64, 65
1, 57116, Control_c, 0, 64, 78
1, 57131, Control_c, 0, 64, 110
1, 57135, Note_off_c, 0, 55, 61
1, 57145, Control_c, 0, 64, 127
1, 57167, Note_off_c, 0, 51, 58
1, 57172, Note_off_c, 0, 46, 58
1, 57323, Control_c, 0, 64, 68
1, 57338, Control_c, 0, 64, 43
1, 57341, Note_on_c, 0, 44, 85
1, 57343, Note_on_c, 0, 52, 89
1, 57347, Note_on_c, 0, 49, 95
1, 57352, Control_c, 0, 64, 47
1, 57367, Control_c, 0, 64, 63
1, 57371, Note_off_c, 0, 52, 63
1, 57382, Control_c, 0, 64, 73
1, 57393, Note_off_c, 0, 49, 64
1, 57397, Control_c, 0, 64, 89
1, 57406, Note_off_c, 0, 44, 62
1, 57412, Control_c, 0, 64, 127
1, 57558, Note_on_c, 0, 25, 100
1, 57578, Note_on_c, 0, 24, 70
1, 57608, Note_off_c, 0, 25, 61
1, 57618, Note_off_c, 0, 24, 59
1, 59299, Note_on_c, 0, 61, 53
1, 59340, Note_off_c, 0, 61, 58
1, 59416, Note_on_c, 0, 76, 67
1, 59424, Note_on_c, 0, 97, 58
1, 59425, Note_on_c, 0, 87, 47
1, 59426, Note_on_c, 0, 85, 54
1, 59483, Note_off_c, 0, 76, 57
1, 59487, Note_off_c, 0, 97, 58
1, 59492, Note_off_c, 0, 87, 51
1, 59496, Note_off_c, 0, 85, 52
1, 60650, Note_on_c, 0, 56, 52
1, 60694, Note_off_c, 0, 56, 60
1, 60758, Note_on_c, 0, 82, 62
1, 60759, Note_on_c, 0, 94, 60
1, 60763, Note_on_c, 0, 71, 63
1, 60769, Note_on_c, 0, 85, 51
1, 60795, Note_off_c, 0, 71, 58
1, 60806, Note_off_c, 0, 85, 60
1, 60812, Note_off_c, 0, 94, 56
1, 60819, Note_off_c, 0, 82, 57
1, 62146, Note_on_c, 0, 78, 53
1, 62151, Note_on_c, 0, 86, 51
1, 62155, Note_on_c, 0, 66, 48
1, 62159, Note_on_c, 0, 76, 53
1, 62161, Note_on_c, 0, 74, 46
1, 62167, Note_on_c, 0, 73, 41
1, 62170, Note_on_c, 0, 85, 46
1, 62180, Note_on_c, 0, 69, 40
1, 62265, Note_off_c, 0, 76, 35
1, 62283, Note_off_c, 0, 74, 35
1, 62289, Note_off_c, 0, 86, 36
1, 62291, Note_off_c, 0, 78, 34
1, 62293, Note_off_c, 0, 66, 35
1, 62299, Note_off_c, 0, 73, 32
1, 62305, Note_off_c, 0, 85, 44
1, 62313, Note_off_c, 0, 69, 31
1, 63829, Note_on_c, 0, 75, 51
1, 63842, Note_on_c, 0, 78, 51
1, 63842, Note_on_c, 0, 64, 45
1, 63845, Note_on_c, 0, 87, 47
1, 63849, Note_on_c, 0, 80, 47
1, 63849, Note_on_c, 0, 88, 46
1, 63860, Note_on_c, 0, 68, 36
1, 63877, Note_on_c, 0, 83, 43
1, 63912, Note_on_c, 0, 66, 13
1, 63923, Note_off_c, 0, 83, 45
1, 63958, Note_off_c, 0, 87, 56
1, 63964, Note_off_c, 0, 75, 35
1, 63966, Note_off_c, 0, 88, 34
1, 63967, Note_off_c, 0, 68, 32
1, 63967, Note_off_c, 0, 66, 44
1, 63980, Note_off_c, 0, 64, 36
1, 63993, Note_off_c, 0, 78, 39
1, 64006, Note_off_c, 0, 80, 37
1, 64471, Note_on_c, 0, 68, 74
1, 64485, Note_on_c, 0, 71, 62
1, 64496, Note_on_c, 0, 76, 60
1, 64536, Note_on_c, 0, 73, 30
1, 64610, Note_off_c, 0, 73, 34
1, 64637, Note_off_c, 0, 71, 59
1, 64655, Note_off_c, 0, 68, 55
1, 64664, Note_off_c, 0, 76, 36
1, 65046, Note_on_c, 0, 73, 46
1, 65060, Note_on_c, 0, 71, 72
1, 65066, Note_on_c, 0, 56, 52
1, 65069, Note_on_c, 0, 80, 62
1, 65070, Note_on_c, 0, 64, 42
1, 65072, Note_on_c, 0, 59, 55
1, 65078, Control_c, 0, 64, 119
1, 65093, Control_c, 0, 64, 83
1, 65102, Note_on_c, 0, 76, 46
1, 65108, Control_c, 0, 64, 68
1, 65123, Control_c, 0, 64, 64
1, 65152, Control_c, 0, 64, 66
1, 65167, Control_c, 0, 64, 74
1, 65182, Control_c, 0, 64, 89
1, 65197, Control_c, 0, 64, 127
1, 65242, Note_off_c, 0, 71, 60
1, 65261, Note_off_c, 0, 73, 60
1, 65269, Note_off_c, 0, 76, 41
1, 65292, Note_off_c, 0, 80, 35
1, 65448, Note_off_c, 0, 64, 38
1, 65488, Note_on_c, 0, 73, 84
1, 65499, Note_on_c, 0, 75, 69
1, 65499, Note_on_c, 0, 82, 69
1, 65538, Note_on_c, 0, 78, 39
1, 65549, Note_off_c, 0, 56, 39
1, 65564, Note_off_c, 0, 59, 37
1, 65580, Note_off_c, 0, 78, 44
1, 65601, Note_off_c, 0, 82, 58
1, 65608, Note_off_c, 0, 75, 59
1, 65654, Note_off_c, 0, 73, 60
1, 65859, Note_on_c, 0, 71, 76
1, 65874, Note_on_c, 0, 54, 59
1, 65875, Note_on_c, 0, 80, 62
1, 65879, Note_on_c, 0, 62, 60
1, 65885, Note_on_c, 0, 73, 50
1, 65887, Note_on_c, 0, 76, 57
1, 65887, Control_c, 0, 64, 92
1, 65889, Note_on_c, 0, 57, 48
1, 65902, Control_c, 0, 64, 73
1, 65917, Control_c, 0, 64, 66
1, 65946, Control_c, 0, 64, 66
1, 65961, Control_c, 0, 64, 70
1, 65983, Control_c, 0, 64, 82
1, 65998, Control_c, 0, 64, 106
1, 66009, Note_off_c, 0, 80, 55
1, 66013, Control_c, 0, 64, 127
1, 66022, Note_off_c, 0, 71, 59
1, 66063, Note_off_c, 0, 73, 42
1, 66070, Note_off_c, 0, 76, 35
1, 66196, Note_on_c, 0, 70, 76
1, 66204, Note_on_c, 0, 73, 59
1, 66208, Note_on_c, 0, 78, 64
1, 66229, Note_on_c, 0, 75, 51
1, 66251, Note_off_c, 0, 62, 36
1, 66296, Note_off_c, 0, 57, 35
1, 66303, Note_off_c, 0, 54, 34
1, 66323, Note_off_c, 0, 73, 58
1, 66324, Note_off_c, 0, 78, 49
1, 66334, Note_off_c, 0, 70, 57
1, 66337, Note_off_c, 0, 75, 35
1, 66502, Control_c, 0, 64, 90
1, 66515, Note_on_c, 0, 68, 71
1, 66517, Control_c, 0, 64, 69
1, 66525, Note_on_c, 0, 52, 49
1, 66526, Note_on_c, 0, 76, 57
1, 66530, Note_on_c, 0, 59, 46
1, 66531, Control_c, 0, 64, 60
1, 66533, Note_on_c, 0, 70, 45
1, 66539, Note_on_c, 0, 56, 44
1, 66546, Note_on_c, 0, 73, 34
1, 66546, Control_c, 0, 64, 60
1, 66575, Control_c, 0, 64, 61
1, 66590, Control_c, 0, 64, 66
1, 66605, Control_c, 0, 64, 72
1, 66620, Control_c, 0, 64, 85
1, 66635, Control_c, 0, 64, 105
1, 66650, Control_c, 0, 64, 127
1, 66680, Note_off_c, 0, 73, 42
1, 66684, Note_off_c, 0, 70, 39
1, 66691, Note_off_c, 0, 76, 33
1, 66738, Note_off_c, 0, 68, 53
1, 66930, Note_on_c, 0, 67, 69
1, 66936, Note_on_c, 0, 70, 32
1, 66968, Note_on_c, 0, 68, 37
1, 66969, Note_on_c, 0, 75, 38
1, 67026, Note_off_c, 0, 75, 43
1, 67079, Note_off_c, 0, 59, 35
1, 67098, Note_off_c, 0, 70, 40
1, 67100, Note_off_c, 0, 67, 59
1, 67134, Note_off_c, 0, 68, 19
1, 67143, Note_off_c, 0, 52, 35
1, 67143, Note_off_c, 0, 56, 34
1, 67548, Note_on_c, 0, 61, 65
1, 67556, Note_on_c, 0, 50, 51
1, 67560, Note_on_c, 0, 68, 59
1, 67564, Note_on_c, 0, 63, 53
1, 67568, Note_on_c, 0, 58, 48
1, 67575, Note_on_c, 0, 64, 49
1, 67584, Control_c, 0, 64, 112
1, 67585, Note_on_c, 0, 55, 43
1, 67599, Control_c, 0, 64, 83
1, 67613, Control_c, 0, 64, 64
1, 67628, Control_c, 0, 64, 52
1, 67643, Control_c, 0, 64, 48
1, 67687, Control_c, 0, 64, 51
1, 67697, Note_off_c, 0, 55, 0
1, 67697, Note_on_c, 0, 55, 4
1, 67702, Control_c, 0, 64, 61
1, 67717, Control_c, 0, 64, 69
1, 67732, Control_c, 0, 64, 78
1, 67747, Control_c, 0, 64, 88
1, 67762, Control_c, 0, 64, 98
1, 67777, Control_c, 0, 64, 105
1, 67792, Control_c, 0, 64, 113
1, 67806, Control_c, 0, 64, 127
1, 67920, Note_off_c, 0, 58, 43
1, 67938, Note_off_c, 0, 50, 34
1, 67958, Note_off_c, 0, 55, 39
1, 68689, Control_c, 0, 64, 98
1, 68704, Control_c, 0, 64, 78
1, 68719, Control_c, 0, 64, 64
1, 68722, Note_on_c, 0, 47, 35
1, 68722, Note_on_c, 0, 56, 26
1, 68733, Note_on_c, 0, 52, 38
1, 68733, Control_c, 0, 64, 57
1, 68763, Control_c, 0, 64, 58
1, 68777, Control_c, 0, 64, 64
1, 68792, Control_c, 0, 64, 70
1, 68807, Control_c, 0, 64, 80
1, 68822, Control_c, 0, 64, 95
1, 68837, Control_c, 0, 64, 112
1, 68851, Control_c, 0, 64, 121
1, 68861, Note_off_c, 0, 64, 53
1, 68866, Control_c, 0, 64, 127
1, 68890, Note_off_c, 0, 63, 53
1, 68918, Note_off_c, 0, 68, 36
1, 68919, Note_off_c, 0, 61, 52
1, 69026, Note_off_c, 0, 56, 49
1, 69101, Note_on_c, 0, 59, 79
1, 69110, Note_on_c, 0, 61, 55
1, 69121, Note_on_c, 0, 66, 55
1, 69127, Note_on_c, 0, 62, 55
1, 69140, Note_off_c, 0, 52, 32
1, 69142, Note_off_c, 0, 47, 54
1, 69227, Note_off_c, 0, 59, 58
1, 69248, Note_off_c, 0, 61, 57
1, 69280, Note_off_c, 0, 62, 29
1, 69281, Note_off_c, 0, 66, 35
1, 69630, Control_c, 0, 64, 97
1, 69645, Control_c, 0, 64, 73
1, 69646, Note_on_c, 0, 61, 81
1, 69649, Note_on_c, 0, 25, 64
1, 69660, Control_c, 0, 64, 63
1, 69667, Note_on_c, 0, 68, 56
1, 69674, Control_c, 0, 64, 61
1, 69677, Note_on_c, 0, 63, 44
1, 69684, Note_on_c, 0, 64, 46
1, 69689, Control_c, 0, 64, 62
1, 69704, Control_c, 0, 64, 65
1, 69726, Control_c, 0, 64, 71
1, 69741, Control_c, 0, 64, 83
1, 69756, Control_c, 0, 64, 120
1, 69771, Control_c, 0, 64, 127
1, 69814, Note_off_c, 0, 61, 58
1, 69818, Note_off_c, 0, 64, 56
1, 69850, Note_off_c, 0, 68, 56
1, 69856, Note_off_c, 0, 63, 35
1, 69944, Note_off_c, 0, 25, 34
1, 70092, Note_on_c, 0, 67, 83
1, 70106, Note_on_c, 0, 70, 67
1, 70111, Note_on_c, 0, 74, 65
1, 70113, Note_on_c, 0, 68, 60
1, 70233, Note_off_c, 0, 74, 51
1, 70272, Note_off_c, 0, 67, 58
1, 70296, Note_off_c, 0, 70, 50
1, 70345, Note_off_c, 0, 68, 35
1, 70621, Note_on_c, 0, 61, 76
1, 70644, Note_on_c, 0, 68, 62
1, 70647, Note_on_c, 0, 63, 50
1, 70654, Note_on_c, 0, 64, 53
1, 71017, Note_on_c, 0, 51, 49
1, 71017, Note_on_c, 0, 55, 45
1, 71022, Note_on_c, 0, 46, 48
1, 71050, Note_off_c, 0, 55, 52
1, 71053, Note_off_c, 0, 51, 63
1, 71065, Note_off_c, 0, 46, 58
1, 71357, Control_c, 0, 64, 100
1, 71372, Control_c, 0, 64, 76
1, 71378, Note_on_c, 0, 44, 44
1, 71381, Note_on_c, 0, 52, 39
1, 71387, Note_on_c, 0, 49, 40
1, 71387, Control_c, 0, 64, 61
1, 71401, Control_c, 0, 64, 59
1, 71416, Control_c, 0, 64, 59
1, 71431, Control_c, 0, 64, 64
1, 71446, Control_c, 0, 64, 70
1, 71461, Control_c, 0, 64, 81
1, 71476, Control_c, 0, 64, 100
1, 71486, Note_off_c, 0, 64, 53
1, 71491, Control_c, 0, 64, 127
1, 71512, Note_off_c, 0, 68, 56
1, 71530, Note_off_c, 0, 61, 56
1, 71533, Note_off_c, 0, 63, 35
1, 71685, Note_off_c, 0, 52, 36
1, 71705, Note_on_c, 0, 59, 75
1, 71714, Note_on_c, 0, 66, 62
1, 71717, Note_on_c, 0, 61, 45
1, 71726, Note_on_c, 0, 62, 51
1, 71777, Note_off_c, 0, 49, 35
1, 71836, Note_off_c, 0, 44, 35
1, 71872, Note_off_c, 0, 59, 59
1, 71872, Note_off_c, 0, 62, 48
1, 71890, Note_off_c, 0, 61, 58
1, 71896, Note_off_c, 0, 66, 59
1, 72225, Control_c, 0, 64, 87
1, 72236, Note_on_c, 0, 61, 63
1, 72240, Control_c, 0, 64, 67
1, 72242, Note_on_c, 0, 68, 57
1, 72251, Note_on_c, 0, 25, 54
1, 72255, Control_c, 0, 64, 56
1, 72268, Note_on_c, 0, 64, 29
1, 72269, Control_c, 0, 64, 55
1, 72273, Note_on_c, 0, 63, 36
1, 72284, Control_c, 0, 64, 56
1, 72299, Control_c, 0, 64, 64
1, 72314, Control_c, 0, 64, 71
1, 72328, Control_c, 0, 64, 84
1, 72343, Control_c, 0, 64, 109
1, 72358, Control_c, 0, 64, 127
1, 72373, Note_off_c, 0, 25, 57
1, 72399, Note_off_c, 0, 61, 58
1, 72423, Note_off_c, 0, 63, 52
1, 72435, Note_off_c, 0, 64, 38
1, 72442, Note_off_c, 0, 68, 57
1, 72743, Note_on_c, 0, 71, 52
1, 72745, Note_on_c, 0, 70, 81
1, 72754, Note_on_c, 0, 62, 55
1, 72761, Note_on_c, 0, 77, 61
1, 72766, Note_on_c, 0, 69, 50
1, 72782, Note_on_c, 0, 65, 42
1, 72874, Poly_aftertouch_c, 0, 73, 127
1, 72900, Note_off_c, 0, 69, 46
1, 72907, Note_off_c, 0, 77, 55
1, 72925, Note_off_c, 0, 65, 38
1, 72960, Note_off_c, 0, 62, 55
1, 73005, Note_off_c, 0, 70, 36
1, 73008, Note_off_c, 0, 71, 36
1, 73069, Poly_aftertouch_c, 0, 73, 0
1, 73072, Note_on_c, 0, 66, 69
1, 73077, Note_on_c, 0, 75, 73
1, 73080, Note_on_c, 0, 68, 88
1, 73083, Note_on_c, 0, 61, 64
1, 73103, Note_on_c, 0, 64, 45
1, 73107, Poly_aftertouch_c, 0, 73, 127
1, 73150, Poly_aftertouch_c, 0, 73, 0
1, 73200, Note_off_c, 0, 66, 56
1, 73259, Note_off_c, 0, 75, 35
1, 73260, Note_off_c, 0, 68, 53
1, 73334, Note_on_c, 0, 65, 68
1, 73335, Note_on_c, 0, 59, 65
1, 73341, Note_on_c, 0, 67, 91
1, 73348, Note_on_c, 0, 74, 74
1, 73372, Note_on_c, 0, 70, 46
1, 73391, Note_on_c, 0, 69, 32
1, 73422, Note_off_c, 0, 64, 37
1, 73429, Note_off_c, 0, 69, 49
1, 73452, Note_off_c, 0, 74, 53
1, 73458, Note_off_c, 0, 65, 56
1, 73476, Note_off_c, 0, 70, 35
1, 73479, Note_off_c, 0, 61, 15
1, 73488, Note_off_c, 0, 67, 60
1, 73509, Note_off_c, 0, 59, 58
1, 73772, Note_on_c, 0, 64, 62
1, 73776, Note_on_c, 0, 66, 49
1, 73781, Control_c, 0, 64, 92
1, 73786, Note_on_c, 0, 71, 58
1, 73787, Note_on_c, 0, 56, 50
1, 73787, Note_on_c, 0, 67, 53
1, 73796, Note_on_c, 0, 61, 40
1, 73796, Control_c, 0, 64, 73
1, 73801, Note_on_c, 0, 59, 29
1, 73811, Control_c, 0, 64, 61
1, 73826, Control_c, 0, 64, 54
1, 73840, Control_c, 0, 64, 54
1, 73870, Control_c, 0, 64, 57
1, 73885, Control_c, 0, 64, 64
1, 73899, Control_c, 0, 64, 71
1, 73914, Control_c, 0, 64, 80
1, 73929, Control_c, 0, 64, 94
1, 73944, Control_c, 0, 64, 111
1, 73959, Control_c, 0, 64, 127
1, 74015, Note_off_c, 0, 64, 56
1, 74041, Note_off_c, 0, 67, 58
1, 74048, Note_off_c, 0, 66, 59
1, 74063, Note_off_c, 0, 71, 34
1, 74341, Note_on_c, 0, 68, 78
1, 74348, Note_on_c, 0, 70, 54
1, 74348, Note_on_c, 0, 71, 62
1, 74350, Note_on_c, 0, 76, 59
1, 74408, Note_on_c, 0, 73, 31
1, 74448, Note_off_c, 0, 76, 51
1, 74463, Note_off_c, 0, 73, 42
1, 74465, Note_off_c, 0, 68, 57
1, 74468, Note_off_c, 0, 71, 55
1, 74473, Note_off_c, 0, 61, 38
1, 74505, Note_off_c, 0, 70, 55
1, 74532, Note_off_c, 0, 59, 40
1, 74540, Note_off_c, 0, 56, 35
1, 74578, Note_on_c, 0, 70, 94
1, 74657, Note_off_c, 0, 70, 57
1, 74730, Note_on_c, 0, 71, 102
1, 74779, Note_off_c, 0, 71, 62
1, 75041, Note_on_c, 0, 73, 90
1, 75041, Note_on_c, 0, 80, 83
1, 75042, Control_c, 0, 64, 95
1, 75046, Note_on_c, 0, 75, 84
1, 75055, Note_on_c, 0, 64, 58
1, 75057, Control_c, 0, 64, 70
1, 75069, Note_on_c, 0, 68, 56
1, 75072, Control_c, 0, 64, 53
1, 75082, Note_on_c, 0, 71, 47
1, 75087, Control_c, 0, 64, 50
1, 75104, Note_on_c, 0, 78, 24
1, 75116, Control_c, 0, 64, 55
1, 75131, Control_c, 0, 64, 64
1, 75145, Control_c, 0, 64, 73
1, 75160, Control_c, 0, 64, 85
1, 75175, Control_c, 0, 64, 103
1, 75188, Note_off_c, 0, 75, 58
1, 75190, Control_c, 0, 64, 118
1, 75205, Control_c, 0, 64, 127
1, 75232, Note_off_c, 0, 71, 39
1, 75265, Note_off_c, 0, 68, 53
1, 75286, Note_off_c, 0, 80, 52
1, 75294, Note_off_c, 0, 64, 56
1, 75330, Note_off_c, 0, 73, 60
1, 75337, Note_off_c, 0, 78, 38
1, 75542, Note_on_c, 0, 56, 77
1, 75591, Note_off_c, 0, 56, 60
1, 75965, Note_on_c, 0, 75, 98
1, 75976, Note_on_c, 0, 82, 75
1, 75977, Note_on_c, 0, 78, 53
1, 76009, Note_on_c, 0, 76, 36
1, 76039, Note_off_c, 0, 76, 55
1, 76046, Note_on_c, 0, 73, 69
1, 76048, Note_on_c, 0, 63, 61
1, 76053, Note_on_c, 0, 70, 66
1, 76063, Note_on_c, 0, 66, 60
1, 76141, Note_off_c, 0, 73, 59
1, 76150, Note_off_c, 0, 82, 52
1, 76162, Note_off_c, 0, 70, 49
1, 76185, Note_off_c, 0, 66, 57
1, 76197, Note_off_c, 0, 75, 56
1, 76207, Note_off_c, 0, 63, 58
1, 76242, Note_off_c, 0, 78, 34
1, 76636, Note_on_c, 0, 56, 66
1, 76689, Note_off_c, 0, 56, 55
1, 77229, Control_c, 0, 64, 87
1, 77241, Note_on_c, 0, 73, 71
1, 77242, Note_on_c, 0, 64, 48
1, 77243, Control_c, 0, 64, 69
1, 77248, Note_on_c, 0, 71, 46
1, 77253, Note_on_c, 0, 68, 45
1, 77256, Note_on_c, 0, 80, 55
1, 77258, Control_c, 0, 64, 63
1, 77277, Note_on_c, 0, 76, 41
1, 77288, Control_c, 0, 64, 64
1, 77293, Note_on_c, 0, 75, 31
1, 77303, Control_c, 0, 64, 68
1, 77317, Control_c, 0, 64, 77
1, 77332, Control_c, 0, 64, 93
1, 77347, Control_c, 0, 64, 127
1, 77396, Note_off_c, 0, 76, 54
1, 77398, Note_off_c, 0, 71, 54
1, 77436, Note_off_c, 0, 75, 41
1, 77442, Note_off_c, 0, 80, 46
1, 77444, Note_off_c, 0, 68, 48
1, 77444, Note_off_c, 0, 64, 56
1, 77455, Note_off_c, 0, 73, 59
1, 77569, Note_on_c, 0, 69, 66
1, 77575, Note_on_c, 0, 71, 89
1, 77579, Note_on_c, 0, 66, 60
1, 77586, Note_on_c, 0, 63, 68
1, 77594, Note_on_c, 0, 73, 48
1, 77602, Note_on_c, 0, 74, 55
1, 77614, Note_on_c, 0, 78, 42
1, 77657, Note_off_c, 0, 78, 44
1, 77666, Note_off_c, 0, 73, 0
1, 77666, Note_on_c, 0, 73, 13
1, 77671, Note_off_c, 0, 69, 59
1, 77690, Note_off_c, 0, 66, 54
1, 77709, Note_off_c, 0, 71, 58
1, 77709, Note_off_c, 0, 63, 53
1, 77788, Note_off_c, 0, 74, 35
1, 77829, Note_on_c, 0, 61, 64
1, 77832, Note_on_c, 0, 70, 96
1, 77840, Note_on_c, 0, 68, 72
1, 77858, Note_on_c, 0, 64, 49
1, 77870, Note_off_c, 0, 73, 0
1, 77903, Note_off_c, 0, 64, 57
1, 77906, Note_off_c, 0, 61, 52
1, 77907, Poly_aftertouch_c, 0, 73, 127
1, 77939, Note_off_c, 0, 68, 34
1, 77965, Note_off_c, 0, 70, 56
1, 78066, Control_c, 0, 64, 84
1, 78067, Note_on_c, 0, 73, 11
1, 78076, Note_on_c, 0, 71, 87
1, 78077, Note_on_c, 0, 67, 73
1, 78077, Note_on_c, 0, 78, 82
1, 78081, Control_c, 0, 64, 62
1, 78085, Note_on_c, 0, 63, 60
1, 78090, Note_on_c, 0, 60, 56
1, 78096, Control_c, 0, 64, 54
1, 78111, Control_c, 0, 64, 55
1, 78126, Control_c, 0, 64, 59
1, 78140, Control_c, 0, 64, 65
1, 78155, Control_c, 0, 64, 71
1, 78170, Note_off_c, 0, 67, 56
1, 78170, Control_c, 0, 64, 83
1, 78175, Poly_aftertouch_c, 0, 75, 127
1, 78184, Control_c, 0, 64, 105
1, 78189, Note_off_c, 0, 63, 56
1, 78199, Control_c, 0, 64, 127
1, 78207, Note_off_c, 0, 60, 56
1, 78272, Note_off_c, 0, 78, 55
1, 78295, Note_off_c, 0, 71, 60
1, 78303, Poly_aftertouch_c, 0, 75, 0
1, 78399, Note_on_c, 0, 56, 68
1, 78451, Note_off_c, 0, 56, 56
1, 78472, Note_on_c, 0, 66, 91
1, 78533, Note_off_c, 0, 66, 60
1, 78538, Note_off_c, 0, 73, 38
1, 78758, Note_on_c, 0, 68, 92
1, 78764, Note_on_c, 0, 66, 68
1, 78767, Note_on_c, 0, 73, 53
1, 78769, Note_on_c, 0, 59, 62
1, 78770, Note_on_c, 0, 76, 75
1, 78771, Control_c, 0, 64, 84
1, 78774, Note_on_c, 0, 61, 64
1, 78777, Note_on_c, 0, 64, 61
1, 78777, Note_on_c, 0, 71, 54
1, 78786, Control_c, 0, 64, 65
1, 78801, Control_c, 0, 64, 52
1, 78815, Control_c, 0, 64, 50
1, 78830, Control_c, 0, 64, 51
1, 78845, Control_c, 0, 64, 58
1, 78860, Control_c, 0, 64, 65
1, 78875, Control_c, 0, 64, 72
1, 78889, Control_c, 0, 64, 83
1, 78904, Control_c, 0, 64, 95
1, 78915, Note_off_c, 0, 66, 56
1, 78919, Control_c, 0, 64, 104
1, 78934, Control_c, 0, 64, 111
1, 78949, Control_c, 0, 64, 127
1, 78968, Note_off_c, 0, 64, 35
1, 78982, Note_off_c, 0, 61, 52
1, 78998, Note_off_c, 0, 59, 59
1, 79318, Note_on_c, 0, 49, 67
1, 79381, Note_off_c, 0, 49, 57
1, 79393, Note_off_c, 0, 76, 41
1, 79504, Note_off_c, 0, 68, 34
1, 79542, Note_off_c, 0, 73, 37
1, 79547, Note_off_c, 0, 71, 33
1, 80040, Control_c, 0, 64, 105
1, 80044, Note_on_c, 0, 64, 48
1, 80051, Note_on_c, 0, 68, 79
1, 80052, Note_on_c, 0, 56, 51
1, 80055, Control_c, 0, 64, 76
1, 80059, Note_on_c, 0, 59, 55
1, 80061, Note_on_c, 0, 76, 63
1, 80064, Note_on_c, 0, 61, 44
1, 80069, Control_c, 0, 64, 68
1, 80084, Control_c, 0, 64, 69
1, 80088, Note_on_c, 0, 71, 31
1, 80099, Control_c, 0, 64, 74
1, 80114, Control_c, 0, 64, 84
1, 80128, Control_c, 0, 64, 107
1, 80143, Control_c, 0, 64, 127
1, 80183, Note_off_c, 0, 76, 59
1, 80193, Note_off_c, 0, 68, 57
1, 80198, Note_off_c, 0, 71, 39
1, 80326, Note_on_c, 0, 73, 22
1, 80387, Note_off_c, 0, 73, 0
1, 80395, Note_on_c, 0, 71, 79
1, 80405, Note_on_c, 0, 73, 33
1, 80410, Note_on_c, 0, 80, 65
1, 80415, Note_on_c, 0, 76, 69
1, 80445, Note_off_c, 0, 80, 56
1, 80458, Note_off_c, 0, 73, 61
1, 80465, Note_off_c, 0, 76, 59
1, 80481, Note_off_c, 0, 71, 62
1, 80514, Note_off_c, 0, 59, 57
1, 80515, Note_off_c, 0, 64, 42
1, 80535, Note_off_c, 0, 61, 40
1, 80558, Note_off_c, 0, 56, 51
1, 80645, Note_on_c, 0, 66, 90
1, 80655, Control_c, 0, 64, 105
1, 80657, Note_on_c, 0, 74, 74
1, 80670, Control_c, 0, 64, 74
1, 80674, Note_on_c, 0, 69, 47
1, 80684, Control_c, 0, 64, 64
1, 80691, Note_on_c, 0, 71, 30
1, 80699, Control_c, 0, 64, 63
1, 80714, Control_c, 0, 64, 64
1, 80729, Control_c, 0, 64, 67
1, 80744, Control_c, 0, 64, 73
1, 80753, Note_on_c, 0, 62, 74
1, 80754, Note_on_c, 0, 54, 69
1, 80758, Control_c, 0, 64, 85
1, 80764, Note_on_c, 0, 59, 69
1, 80770, Note_on_c, 0, 57, 62
1, 80773, Control_c, 0, 64, 113
1, 80776, Note_off_c, 0, 66, 62
1, 80776, Note_off_c, 0, 74, 58
1, 80788, Control_c, 0, 64, 127
1, 80790, Note_off_c, 0, 69, 46
1, 80806, Note_off_c, 0, 71, 40
1, 80883, Note_on_c, 0, 69, 81
1, 80897, Note_on_c, 0, 71, 71
1, 80897, Note_on_c, 0, 75, 73
1, 80901, Note_on_c, 0, 78, 69
1, 80935, Note_on_c, 0, 73, 34
1, 80935, Note_off_c, 0, 71, 50
1, 80966, Note_off_c, 0, 78, 53
1, 80973, Note_off_c, 0, 73, 51
1, 80975, Note_off_c, 0, 69, 61
1, 80990, Note_off_c, 0, 75, 58
1, 81039, Note_off_c, 0, 62, 49
1, 81054, Note_off_c, 0, 54, 36
1, 81063, Note_on_c, 0, 64, 84
1, 81063, Note_off_c, 0, 57, 48
1, 81107, Note_on_c, 0, 71, 43
1, 81108, Note_off_c, 0, 64, 62
1, 81210, Control_c, 0, 64, 107
1, 81221, Note_off_c, 0, 59, 0
1, 81223, Note_off_c, 0, 71, 0
1, 81225, Control_c, 0, 64, 74
1, 81234, Note_on_c, 0, 68, 95
1, 81235, Note_on_c, 0, 59, 55
1, 81238, Note_on_c, 0, 64, 88
1, 81240, Control_c, 0, 64, 57
1, 81241, Note_on_c, 0, 53, 82
1, 81245, Note_on_c, 0, 71, 26
1, 81248, Note_on_c, 0, 75, 81
1, 81255, Control_c, 0, 64, 51
1, 81268, Note_on_c, 0, 70, 42
1, 81270, Control_c, 0, 64, 52
1, 81280, Note_on_c, 0, 72, 42
1, 81284, Control_c, 0, 64, 60
1, 81297, Note_off_c, 0, 64, 62
1, 81299, Control_c, 0, 64, 68
1, 81314, Control_c, 0, 64, 78
1, 81327, Note_off_c, 0, 59, 59
1, 81329, Control_c, 0, 64, 95
1, 81344, Control_c, 0, 64, 127
1, 81355, Note_off_c, 0, 53, 60
1, 81507, Note_off_c, 0, 70, 42
1, 81515, Note_off_c, 0, 75, 56
1, 81515, Note_off_c, 0, 72, 38
1, 81517, Note_off_c, 0, 71, 40
1, 81604, Note_on_c, 0, 43, 89
1, 81606, Note_on_c, 0, 31, 84
1, 81614, Note_off_c, 0, 68, 36
1, 81659, Note_off_c, 0, 31, 63
1, 81666, Note_off_c, 0, 43, 61
1, 81931, Note_on_c, 0, 66, 91
1, 81932, Note_on_c, 0, 73, 80
1, 81945, Note_on_c, 0, 68, 69
1, 81955, Note_on_c, 0, 69, 63
1, 82088, Note_off_c, 0, 66, 56
1, 82091, Note_off_c, 0, 73, 48
1, 82115, Note_off_c, 0, 69, 53
1, 82162, Note_off_c, 0, 68, 52
1, 82183, Note_on_c, 0, 64, 97
1, 82247, Note_off_c, 0, 64, 61
1, 82348, Note_on_c, 0, 63, 100
1, 82383, Note_on_c, 0, 70, 46
1, 82416, Note_off_c, 0, 70, 48
1, 82454, Poly_aftertouch_c, 0, 68, 127
1, 82458, Note_off_c, 0, 63, 59
1, 82486, Control_c, 0, 64, 81
1, 82495, Poly_aftertouch_c, 0, 68, 0
1, 82501, Control_c, 0, 64, 62
1, 82508, Poly_aftertouch_c, 0, 66, 0
1, 82516, Control_c, 0, 64, 58
1, 82523, Note_on_c, 0, 58, 91
1, 82525, Note_on_c, 0, 64, 103
1, 82526, Note_on_c, 0, 52, 83
1, 82530, Control_c, 0, 64, 62
1, 82544, Note_on_c, 0, 71, 70
1, 82545, Control_c, 0, 64, 67
1, 82560, Control_c, 0, 64, 76
1, 82575, Control_c, 0, 64, 94
1, 82584, Note_on_c, 0, 68, 14
1, 82587, Note_off_c, 0, 58, 59
1, 82589, Control_c, 0, 64, 127
1, 82623, Poly_aftertouch_c, 0, 66, 127
1, 82625, Note_off_c, 0, 52, 59
1, 82630, Note_off_c, 0, 68, 46
1, 82656, Note_off_c, 0, 64, 58
1, 82659, Note_off_c, 0, 71, 56
1, 82662, Poly_aftertouch_c, 0, 66, 0
1, 82815, Note_on_c, 0, 36, 72
1, 82820, Note_on_c, 0, 48, 75
1, 82824, Note_on_c, 0, 50, 63
1, 82855, Note_off_c, 0, 50, 63
1, 82887, Note_off_c, 0, 36, 60
1, 82915, Note_on_c, 0, 59, 94
1, 82919, Note_off_c, 0, 48, 57
1, 82931, Note_on_c, 0, 64, 46
1, 82947, Note_on_c, 0, 63, 51
1, 82960, Note_off_c, 0, 59, 62
1, 82970, Note_off_c, 0, 63, 59
1, 82975, Note_off_c, 0, 64, 52
1, 83015, Note_on_c, 0, 61, 105
1, 83032, Note_on_c, 0, 63, 77
1, 83036, Note_on_c, 0, 68, 64
1, 83081, Note_off_c, 0, 61, 59
1, 83099, Note_off_c, 0, 68, 59
1, 83106, Note_off_c, 0, 63, 60
1, 83107, Note_on_c, 0, 52, 28
1, 83137, Note_off_c, 0, 52, 53
1, 83251, Note_on_c, 0, 52, 72
1, 83254, Note_on_c, 0, 63, 90
1, 83260, Note_on_c, 0, 58, 89
1, 83309, Note_off_c, 0, 52, 59
1, 83338, Note_off_c, 0, 58, 56
1, 83343, Note_off_c, 0, 63, 54
1, 83486, Control_c, 0, 64, 87
1, 83501, Control_c, 0, 64, 61
1, 83516, Note_on_c, 0, 62, 94
1, 83516, Control_c, 0, 64, 48
1, 83516, Note_on_c, 0, 51, 89
1, 83520, Note_on_c, 0, 66, 101
1, 83525, Note_on_c, 0, 73, 87
1, 83530, Control_c, 0, 64, 57
1, 83540, Note_on_c, 0, 69, 68
1, 83545, Note_on_c, 0, 68, 58
1, 83545, Control_c, 0, 64, 67
1, 83552, Note_on_c, 0, 54, 45
1, 83560, Control_c, 0, 64, 78
1, 83562, Note_off_c, 0, 62, 64
1, 83565, Note_on_c, 0, 67, 31
1, 83566, Note_off_c, 0, 67, 127
1, 83575, Control_c, 0, 64, 99
1, 83583, Note_off_c, 0, 54, 56
1, 83590, Control_c, 0, 64, 127
1, 83599, Poly_aftertouch_c, 0, 67, 0
1, 83612, Note_off_c, 0, 51, 60
1, 83621, Note_off_c, 0, 66, 58
1, 83639, Note_off_c, 0, 73, 58
1, 83650, Poly_aftertouch_c, 0, 71, 0
1, 83658, Note_off_c, 0, 69, 30
1, 83679, Note_off_c, 0, 68, 40
1, 83706, Note_on_c, 0, 64, 99
1, 83814, Note_off_c, 0, 64, 56
1, 83837, Note_on_c, 0, 41, 98
1, 83838, Note_on_c, 0, 29, 85
1, 83880, Note_on_c, 0, 34, 36
1, 83881, Note_off_c, 0, 29, 63
1, 83894, Note_off_c, 0, 41, 61
1, 83917, Note_off_c, 0, 34, 52
1, 83996, Note_on_c, 0, 63, 98
1, 84109, Note_off_c, 0, 63, 56
1, 84151, Note_on_c, 0, 51, 92
1, 84153, Note_on_c, 0, 57, 96
1, 84269, Poly_aftertouch_c, 0, 66, 127
1, 84272, Note_on_c, 0, 64, 112
1, 84283, Note_on_c, 0, 71, 76
1, 84302, Poly_aftertouch_c, 0, 66, 0
1, 84330, Note_off_c, 0, 64, 59
1, 84345, Note_off_c, 0, 71, 57
1, 84369, Note_off_c, 0, 57, 58
1, 84401, Note_off_c, 0, 51, 57
1, 84419, Note_on_c, 0, 59, 105
1, 84451, Note_on_c, 0, 63, 54
1, 84470, Note_off_c, 0, 59, 63
1, 84530, Control_c, 0, 64, 94
1, 84533, Note_off_c, 0, 63, 53
1, 84544, Control_c, 0, 64, 56
1, 84554, Note_on_c, 0, 61, 107
1, 84556, Note_on_c, 0, 50, 70
1, 84559, Control_c, 0, 64, 35
1, 84560, Note_on_c, 0, 56, 102
1, 84574, Control_c, 0, 64, 45
1, 84583, Note_on_c, 0, 66, 57
1, 84589, Control_c, 0, 64, 63
1, 84591, Note_on_c, 0, 68, 56
1, 84604, Control_c, 0, 64, 74
1, 84612, Note_off_c, 0, 56, 63
1, 84620, Control_c, 0, 64, 90
1, 84635, Control_c, 0, 64, 127
1, 84648, Note_off_c, 0, 50, 62
1, 84678, Note_off_c, 0, 68, 0
1, 84723, Poly_aftertouch_c, 0, 68, 127
1, 84726, Note_off_c, 0, 61, 58
1, 84766, Poly_aftertouch_c, 0, 63, 127
1, 84771, Poly_aftertouch_c, 0, 68, 0
1, 84781, Note_off_c, 0, 66, 38
1, 84804, Poly_aftertouch_c, 0, 63, 0
1, 84873, Note_on_c, 0, 34, 87
1, 84875, Note_on_c, 0, 46, 99
1, 84917, Note_on_c, 0, 37, 50
1, 84922, Note_off_c, 0, 34, 65
1, 84951, Note_off_c, 0, 46, 60
1, 84952, Note_off_c, 0, 37, 60
1, 85173, Note_on_c, 0, 64, 119
1, 85181, Note_on_c, 0, 71, 81
1, 85185, Note_on_c, 0, 68, 86
1, 85190, Note_on_c, 0, 66, 77
1, 85269, Poly_aftertouch_c, 0, 69, 127
1, 85310, Poly_aftertouch_c, 0, 69, 0
1, 85532, Note_on_c, 0, 63, 93
1, 85536, Note_on_c, 0, 52, 78
1, 85537, Note_on_c, 0, 58, 91
1, 85548, Note_off_c, 0, 71, 53
1, 85560, Note_off_c, 0, 64, 55
1, 85597, Note_off_c, 0, 66, 60
1, 85599, Note_off_c, 0, 68, 58
1, 85623, Note_off_c, 0, 63, 65
1, 85663, Note_off_c, 0, 58, 58
1, 85673, Note_off_c, 0, 52, 52
1, 85693, Poly_aftertouch_c, 0, 53, 0
1, 85870, Note_on_c, 0, 63, 116
1, 85875, Note_on_c, 0, 70, 89
1, 85895, Control_c, 0, 64, 114
1, 85903, Note_on_c, 0, 64, 52
1, 85904, Note_off_c, 0, 64, 127
1, 85909, Note_on_c, 0, 68, 55
1, 85910, Control_c, 0, 64, 67
1, 85924, Control_c, 0, 64, 56
1, 85939, Control_c, 0, 64, 60
1, 85952, Note_off_c, 0, 68, 41
1, 85954, Control_c, 0, 64, 69
1, 85969, Control_c, 0, 64, 80
1, 85984, Control_c, 0, 64, 127
1, 85999, Note_off_c, 0, 63, 57
1, 86008, Note_on_c, 0, 39, 98
1, 86008, Note_on_c, 0, 27, 90
1, 86016, Note_off_c, 0, 70, 54
1, 86026, Note_on_c, 0, 34, 67
1, 86118, Poly_aftertouch_c, 0, 28, 127
1, 86142, Poly_aftertouch_c, 0, 29, 127
1, 86214, Note_on_c, 0, 59, 99
1, 86217, Note_on_c, 0, 68, 82
1, 86219, Poly_aftertouch_c, 0, 29, 0
1, 86220, Note_on_c, 0, 61, 82
1, 86229, Note_off_c, 0, 34, 0
1, 86229, Note_on_c, 0, 34, 18
1, 86232, Poly_aftertouch_c, 0, 28, 0
1, 86250, Note_on_c, 0, 64, 42
1, 86254, Note_off_c, 0, 27, 61
1, 86257, Poly_aftertouch_c, 0, 29, 127
1, 86270, Note_off_c, 0, 59, 62
1, 86270, Poly_aftertouch_c, 0, 28, 127
1, 86273, Note_off_c, 0, 61, 60
1, 86276, Note_on_c, 0, 63, 16
1, 86278, Note_off_c, 0, 64, 57
1, 86279, Note_off_c, 0, 68, 59
1, 86282, Note_off_c, 0, 34, 59
1, 86298, Poly_aftertouch_c, 0, 29, 0
1, 86299, Note_off_c, 0, 39, 63
1, 86300, Poly_aftertouch_c, 0, 28, 0
1, 86318, Note_off_c, 0, 63, 50
1, 86629, Control_c, 0, 64, 90
1, 86644, Control_c, 0, 64, 57
1, 86649, Note_on_c, 0, 80, 102
1, 86652, Note_on_c, 0, 56, 106
1, 86657, Note_on_c, 0, 49, 85
1, 86658, Note_on_c, 0, 88, 83
1, 86659, Control_c, 0, 64, 17
1, 86663, Note_on_c, 0, 54, 85
1, 86670, Note_on_c, 0, 85, 69
1, 86674, Control_c, 0, 64, 33
1, 86679, Note_on_c, 0, 83, 59
1, 86689, Control_c, 0, 64, 57
1, 86703, Control_c, 0, 64, 72
1, 86718, Control_c, 0, 64, 87
1, 86733, Control_c, 0, 64, 127
1, 86797, Note_off_c, 0, 56, 57
1, 86822, Note_off_c, 0, 83, 0
1, 86827, Note_off_c, 0, 54, 59
1, 86846, Note_off_c, 0, 49, 61
1, 86859, Poly_aftertouch_c, 0, 83, 127
1, 86878, Note_off_c, 0, 80, 56
1, 86887, Note_off_c, 0, 88, 53
1, 86893, Note_off_c, 0, 85, 60
1, 86899, Poly_aftertouch_c, 0, 83, 0
1, 87088, Note_on_c, 0, 44, 103
1, 87094, Note_on_c, 0, 32, 91
1, 87134, Note_off_c, 0, 32, 62
1, 87151, Note_off_c, 0, 44, 68
1, 87435, Note_on_c, 0, 83, 102
1, 87439, Note_on_c, 0, 92, 89
1, 87443, Note_on_c, 0, 88, 86
1, 87445, Note_on_c, 0, 85, 82
1, 87455, Note_on_c, 0, 87, 66
1, 87474, Note_off_c, 0, 87, 63
1, 87498, Note_off_c, 0, 83, 62
1, 87505, Note_off_c, 0, 92, 59
1, 87518, Note_off_c, 0, 85, 61
1, 87518, Note_off_c, 0, 88, 61
1, 87756, Note_on_c, 0, 64, 112
1, 87758, Note_on_c, 0, 85, 107
1, 87768, Note_on_c, 0, 94, 84
1, 87776, Note_on_c, 0, 90, 75
1, 87787, Note_on_c, 0, 87, 40
1, 87814, Note_off_c, 0, 87, 56
1, 87825, Note_off_c, 0, 90, 56
1, 87840, Note_off_c, 0, 94, 61
1, 87842, Note_off_c, 0, 85, 60
1, 87848, Note_off_c, 0, 64, 53
1, 88148, Note_on_c, 0, 49, 92
1, 88148, Note_on_c, 0, 83, 98
1, 88148, Note_on_c, 0, 56, 102
1, 88152, Note_on_c, 0, 92, 89
1, 88154, Note_on_c, 0, 88, 83
1, 88156, Note_on_c, 0, 54, 95
1, 88159, Note_on_c, 0, 85, 76
1, 88170, Note_on_c, 0, 87, 63
1, 88188, Note_off_c, 0, 87, 62
1, 88202, Note_off_c, 0, 56, 62
1, 88207, Note_off_c, 0, 92, 63
1, 88217, Note_off_c, 0, 54, 66
1, 88218, Note_off_c, 0, 83, 61
1, 88223, Note_off_c, 0, 49, 65
1, 88235, Note_off_c, 0, 85, 57
1, 88238, Note_off_c, 0, 88, 61
1, 88519, Control_c, 0, 64, 78
1, 88534, Control_c, 0, 64, 37
1, 88548, Note_on_c, 0, 82, 99
1, 88549, Note_on_c, 0, 90, 92
1, 88549, Control_c, 0, 64, 0
1, 88552, Note_on_c, 0, 37, 92
1, 88557, Note_on_c, 0, 85, 73
1, 88559, Note_on_c, 0, 25, 95
1, 88560, Note_on_c, 0, 87, 77
1, 88564, Control_c, 0, 64, 43
1, 88579, Note_on_c, 0, 32, 56
1, 88579, Control_c, 0, 64, 64
1, 88594, Control_c, 0, 64, 75
1, 88597, Note_off_c, 0, 25, 63
1, 88604, Note_off_c, 0, 32, 36
1, 88608, Control_c, 0, 64, 97
1, 88624, Control_c, 0, 64, 127
1, 88646, Note_off_c, 0, 37, 61
1, 88775, Note_on_c, 0, 44, 84
1, 88881, Note_off_c, 0, 82, 54
1, 88883, Note_on_c, 0, 49, 91
1, 88898, Note_off_c, 0, 44, 60
1, 88914, Note_off_c, 0, 90, 37
1, 88962, Note_off_c, 0, 49, 57
1, 89061, Note_on_c, 0, 63, 110
1, 89069, Note_off_c, 0, 85, 60
1, 89071, Note_on_c, 0, 56, 82
1, 89072, Note_on_c, 0, 80, 95
1, 89073, Note_on_c, 0, 52, 75
1, 89084, Note_on_c, 0, 54, 65
1, 89087, Note_on_c, 0, 58, 58
1, 89090, Note_on_c, 0, 64, 57
1, 89093, Note_on_c, 0, 53, 68
1, 89111, Note_off_c, 0, 64, 62
1, 89126, Note_on_c, 0, 57, 25
1, 89136, Note_off_c, 0, 80, 61
1, 89144, Note_off_c, 0, 58, 39
1, 89150, Note_off_c, 0, 53, 0
1, 89159, Note_off_c, 0, 87, 49
1, 89195, Poly_aftertouch_c, 0, 53, 127
1, 89545, Note_on_c, 0, 79, 98
1, 89549, Note_on_c, 0, 87, 92
1, 89551, Note_on_c, 0, 80, 58
1, 89552, Note_on_c, 0, 82, 83
1, 89603, Note_off_c, 0, 87, 62
1, 89621, Note_off_c, 0, 82, 61
1, 89630, Note_off_c, 0, 80, 38
1, 89633, Note_off_c, 0, 79, 64
1, 89658, Note_off_c, 0, 54, 30
1, 89741, Note_off_c, 0, 56, 41
1, 89755, Note_off_c, 0, 57, 40
1, 89802, Note_off_c, 0, 63, 59
1, 89806, Note_off_c, 0, 52, 53
1, 89862, Poly_aftertouch_c, 0, 53, 0
1, 90062, Note_on_c, 0, 73, 95
1, 90068, Note_on_c, 0, 80, 69
1, 90069, Note_on_c, 0, 75, 71
1, 90071, Note_on_c, 0, 76, 73
1, 90446, Note_on_c, 0, 56, 62
1, 90478, Note_off_c, 0, 56, 62
1, 90606, Note_off_c, 0, 80, 49
1, 90631, Note_off_c, 0, 76, 35
1, 90667, Note_off_c, 0, 73, 56
1, 90702, Note_off_c, 0, 75, 35
1, 90880, Note_on_c, 0, 68, 63
1, 90956, Note_off_c, 0, 68, 51
1, 91381, Note_on_c, 0, 71, 80
1, 91398, Note_on_c, 0, 62, 50
1, 91398, Note_on_c, 0, 69, 51
1, 91408, Note_on_c, 0, 78, 56
1, 91409, Note_on_c, 0, 66, 51
1, 91412, Note_on_c, 0, 73, 52
1, 91415, Note_on_c, 0, 74, 51
1, 91419, Control_c, 0, 64, 96
1, 91442, Control_c, 0, 64, 75
1, 91457, Control_c, 0, 64, 65
1, 91471, Control_c, 0, 64, 64
1, 91486, Control_c, 0, 64, 64
1, 91501, Control_c, 0, 64, 69
1, 91516, Control_c, 0, 64, 77
1, 91531, Control_c, 0, 64, 94
1, 91545, Control_c, 0, 64, 127
1, 91607, Note_off_c, 0, 71, 61
1, 91623, Note_off_c, 0, 74, 59
1, 91627, Note_off_c, 0, 73, 61
1, 91635, Note_off_c, 0, 66, 58
1, 91648, Note_off_c, 0, 78, 58
1, 91649, Note_off_c, 0, 69, 49
1, 91664, Note_off_c, 0, 62, 35
1, 91812, Note_on_c, 0, 73, 102
1, 91813, Note_on_c, 0, 64, 68
1, 91817, Note_on_c, 0, 71, 71
1, 91820, Note_on_c, 0, 68, 70
1, 91827, Note_on_c, 0, 75, 66
1, 91845, Note_on_c, 0, 80, 51
1, 91849, Note_on_c, 0, 76, 51
1, 91901, Note_off_c, 0, 64, 58
1, 91912, Note_off_c, 0, 73, 62
1, 91913, Note_off_c, 0, 71, 52
1, 91916, Note_off_c, 0, 68, 56
1, 91931, Note_off_c, 0, 75, 60
1, 91935, Note_off_c, 0, 76, 51
1, 91943, Poly_aftertouch_c, 0, 78, 127
1, 91946, Note_off_c, 0, 80, 58
1, 91980, Poly_aftertouch_c, 0, 78, 0
1, 92249, Note_on_c, 0, 79, 104
1, 92255, Note_on_c, 0, 77, 60
1, 92258, Note_on_c, 0, 69, 59
1, 92262, Note_on_c, 0, 86, 72
1, 92268, Note_on_c, 0, 73, 62
1, 92271, Note_on_c, 0, 82, 70
1, 92275, Note_on_c, 0, 75, 48
1, 92279, Note_on_c, 0, 80, 53
1, 92344, Note_off_c, 0, 77, 52
1, 92354, Note_off_c, 0, 75, 36
1, 92384, Note_off_c, 0, 73, 52
1, 92396, Note_off_c, 0, 69, 55
1, 92408, Note_off_c, 0, 86, 36
1, 92444, Note_off_c, 0, 79, 57
1, 92463, Note_off_c, 0, 82, 52
1, 92493, Note_off_c, 0, 80, 51
1, 92855, Poly_aftertouch_c, 0, 71, 127
1, 92857, Note_on_c, 0, 73, 78
1, 92862, Note_on_c, 0, 64, 43
1, 92873, Note_on_c, 0, 75, 55
1, 92878, Note_on_c, 0, 68, 54
1, 92881, Note_on_c, 0, 80, 59
1, 92884, Note_on_c, 0, 76, 56
1, 92951, Poly_aftertouch_c, 0, 71, 0
1, 92983, Note_off_c, 0, 64, 56
1, 93009, Note_off_c, 0, 68, 40
1, 93291, Note_on_c, 0, 56, 56
1, 93338, Note_off_c, 0, 56, 56
1, 93487, Note_off_c, 0, 80, 34
1, 93538, Note_off_c, 0, 76, 35
1, 93582, Note_off_c, 0, 73, 36
1, 93642, Note_on_c, 0, 68, 51
1, 93646, Note_off_c, 0, 75, 41
1, 93739, Note_off_c, 0, 68, 35
1, 94001, Note_on_c, 0, 69, 54
1, 94008, Note_on_c, 0, 62, 54
1, 94013, Control_c, 0, 64, 85
1, 94014, Note_on_c, 0, 71, 71
1, 94026, Note_on_c, 0, 66, 43
1, 94028, Control_c, 0, 64, 67
1, 94043, Control_c, 0, 64, 55
1, 94045, Note_on_c, 0, 78, 49
1, 94057, Control_c, 0, 64, 51
1, 94075, Note_on_c, 0, 73, 15
1, 94081, Note_on_c, 0, 74, 23
1, 94087, Control_c, 0, 64, 53
1, 94102, Control_c, 0, 64, 60
1, 94117, Control_c, 0, 64, 67
1, 94131, Control_c, 0, 64, 75
1, 94146, Control_c, 0, 64, 89
1, 94161, Control_c, 0, 64, 107
1, 94176, Control_c, 0, 64, 127
1, 94196, Note_off_c, 0, 71, 61
1, 94214, Note_off_c, 0, 66, 54
1, 94219, Note_off_c, 0, 74, 42
1, 94221, Note_off_c, 0, 73, 56
1, 94229, Note_off_c, 0, 69, 51
1, 94237, Note_off_c, 0, 78, 58
1, 94256, Note_off_c, 0, 62, 35
1, 94418, Note_on_c, 0, 73, 101
1, 94427, Note_on_c, 0, 64, 64
1, 94435, Note_on_c, 0, 71, 64
1, 94443, Note_on_c, 0, 68, 65
1, 94447, Note_on_c, 0, 75, 64
1, 94453, Note_on_c, 0, 80, 60
1, 94456, Note_on_c, 0, 76, 57
1, 94494, Note_off_c, 0, 64, 58
1, 94512, Note_off_c, 0, 71, 55
1, 94519, Note_off_c, 0, 73, 61
1, 94537, Note_off_c, 0, 76, 57
1, 94544, Note_off_c, 0, 75, 60
1, 94547, Note_off_c, 0, 68, 35
1, 94560, Note_off_c, 0, 80, 59
1, 94917, Note_on_c, 0, 83, 66
1, 94918, Note_on_c, 0, 82, 93
1, 94924, Note_on_c, 0, 74, 71
1, 94937, Note_on_c, 0, 89, 70
1, 94938, Note_on_c, 0, 81, 56
1, 94946, Note_on_c, 0, 77, 53
1, 94979, Note_on_c, 0, 85, 26
1, 95042, Note_off_c, 0, 85, 38
1, 95076, Note_off_c, 0, 81, 45
1, 95086, Note_off_c, 0, 77, 40
1, 95101, Note_off_c, 0, 89, 37
1, 95131, Note_off_c, 0, 74, 59
1, 95176, Note_off_c, 0, 83, 38
1, 95198, Note_off_c, 0, 82, 34
1, 95309, Note_on_c, 0, 80, 90
1, 95311, Note_on_c, 0, 87, 76
1, 95312, Note_on_c, 0, 73, 71
1, 95314, Note_on_c, 0, 78, 67
1, 95340, Note_on_c, 0, 76, 46
1, 95412, Note_off_c, 0, 78, 59
1, 95507, Note_off_c, 0, 76, 35
1, 95507, Note_off_c, 0, 87, 36
1, 95516, Note_off_c, 0, 80, 38
1, 95553, Note_off_c, 0, 73, 27
1, 95612, Note_on_c, 0, 79, 91
1, 95612, Note_on_c, 0, 77, 59
1, 95617, Note_on_c, 0, 71, 62
1, 95619, Note_on_c, 0, 86, 71
1, 95681, Note_off_c, 0, 77, 51
1, 95693, Note_off_c, 0, 86, 51
1, 95698, Note_off_c, 0, 71, 59
1, 95707, Note_off_c, 0, 79, 61
1, 95962, Note_on_c, 0, 73, 59
1, 95964, Control_c, 0, 64, 82
1, 95967, Note_on_c, 0, 76, 69
1, 95969, Note_on_c, 0, 78, 47
1, 95975, Note_on_c, 0, 68, 56
1, 95976, Note_on_c, 0, 83, 57
1, 95979, Control_c, 0, 64, 64
1, 95985, Note_on_c, 0, 79, 49
1, 95991, Note_on_c, 0, 71, 34
1, 95994, Control_c, 0, 64, 57
1, 96023, Control_c, 0, 64, 60
1, 96038, Control_c, 0, 64, 67
1, 96053, Control_c, 0, 64, 77
1, 96067, Control_c, 0, 64, 96
1, 96070, Note_off_c, 0, 73, 60
1, 96082, Control_c, 0, 64, 127
1, 96091, Note_off_c, 0, 71, 52
1, 96117, Note_off_c, 0, 68, 56
1, 96128, Note_off_c, 0, 83, 51
1, 96161, Note_off_c, 0, 76, 51
1, 96166, Note_off_c, 0, 79, 56
1, 96194, Note_off_c, 0, 78, 58
1, 96325, Note_on_c, 0, 56, 44
1, 96353, Note_off_c, 0, 56, 56
1, 96492, Note_on_c, 0, 62, 60
1, 96497, Note_on_c, 0, 71, 56
1, 96500, Note_on_c, 0, 69, 53
1, 96500, Note_on_c, 0, 70, 70
1, 96518, Note_on_c, 0, 77, 56
1, 96560, Note_on_c, 0, 65, 33
1, 96573, Note_on_c, 0, 73, 23
1, 96641, Note_off_c, 0, 73, 0
1, 96674, Note_off_c, 0, 77, 52
1, 96683, Note_off_c, 0, 69, 57
1, 96685, Poly_aftertouch_c, 0, 73, 127
1, 96698, Note_off_c, 0, 65, 39
1, 96780, Note_off_c, 0, 71, 39
1, 96785, Note_off_c, 0, 70, 33
1, 96808, Poly_aftertouch_c, 0, 73, 0
1, 96850, Note_off_c, 0, 62, 28
1, 96902, Note_on_c, 0, 66, 53
1, 96902, Note_on_c, 0, 75, 68
1, 96905, Note_on_c, 0, 68, 72
1, 96909, Note_on_c, 0, 61, 62
1, 96941, Note_on_c, 0, 64, 29
1, 97016, Note_off_c, 0, 66, 57
1, 97093, Note_off_c, 0, 61, 0
1, 97094, Note_off_c, 0, 68, 53
1, 97098, Note_off_c, 0, 75, 35
1, 97130, Poly_aftertouch_c, 0, 61, 127
1, 97225, Note_on_c, 0, 67, 81
1, 97228, Note_on_c, 0, 59, 59
1, 97230, Note_on_c, 0, 74, 69
1, 97234, Note_on_c, 0, 65, 56
1, 97234, Note_off_c, 0, 64, 0
1, 97263, Note_on_c, 0, 70, 40
1, 97271, Poly_aftertouch_c, 0, 64, 127
1, 97313, Note_off_c, 0, 70, 42
1, 97317, Poly_aftertouch_c, 0, 64, 0
1, 97321, Note_off_c, 0, 74, 52
1, 97346, Note_off_c, 0, 67, 58
1, 97347, Note_off_c, 0, 65, 35
1, 97349, Poly_aftertouch_c, 0, 61, 0
1, 97351, Note_off_c, 0, 59, 58
1, 97602, Note_on_c, 0, 64, 56
1, 97609, Note_on_c, 0, 56, 56
1, 97609, Note_on_c, 0, 71, 53
1, 97610, Note_on_c, 0, 68, 56
1, 97612, Note_on_c, 0, 66, 56
1, 97613, Note_on_c, 0, 61, 41
1, 97622, Note_on_c, 0, 59, 34
1, 97624, Control_c, 0, 64, 107
1, 97638, Control_c, 0, 64, 80
1, 97653, Control_c, 0, 64, 65
1, 97668, Control_c, 0, 64, 57
1, 97683, Control_c, 0, 64, 56
1, 97727, Control_c, 0, 64, 59
1, 97742, Control_c, 0, 64, 66
1, 97757, Control_c, 0, 64, 74
1, 97772, Control_c, 0, 64, 88
1, 97786, Control_c, 0, 64, 110
1, 97801, Control_c, 0, 64, 127
1, 97838, Note_off_c, 0, 61, 42
1, 97878, Note_off_c, 0, 59, 40
1, 97917, Note_off_c, 0, 56, 53
1, 98291, Note_on_c, 0, 49, 49
1, 98572, Note_off_c, 0, 71, 38
1, 98632, Note_off_c, 0, 49, 36
1, 98692, Note_off_c, 0, 64, 31
1, 98709, Note_off_c, 0, 66, 38
1, 98714, Note_off_c, 0, 68, 36
1, 99219, Note_on_c, 0, 37, 40
1, 99395, Note_off_c, 0, 37, 34
1, 99770, Note_on_c, 0, 35, 34
1, 99780, Control_c, 0, 67, 21
1, 99795, Control_c, 0, 67, 30
1, 99811, Control_c, 0, 67, 40
1, 99826, Control_c, 0, 67, 55
1, 99840, Control_c, 0, 67, 72
1, 99855, Control_c, 0, 67, 92
1, 99870, Control_c, 0, 67, 113
1, 99885, Control_c, 0, 67, 127
1, 99949, Note_off_c, 0, 35, 38
1, 100520, Note_on_c, 0, 82, 50
1, 100540, Note_on_c, 0, 79, 38
1, 100541, Note_on_c, 0, 22, 43
1, 100573, Control_c, 0, 64, 96
1, 100588, Control_c, 0, 64, 73
1, 100604, Control_c, 0, 64, 62
1, 100619, Control_c, 0, 64, 58
1, 100649, Control_c, 0, 64, 62
1, 100663, Control_c, 0, 64, 68
1, 100678, Control_c, 0, 64, 81
1, 100693, Control_c, 0, 64, 103
1, 100708, Control_c, 0, 64, 127
1, 100815, Note_off_c, 0, 22, 39
1, 101421, Note_on_c, 0, 80, 48
1, 101422, Note_on_c, 0, 77, 40
1, 101422, Note_on_c, 0, 53, 43
1, 101436, Note_on_c, 0, 50, 36
1, 101444, Note_on_c, 0, 64, 29
1, 101454, Note_on_c, 0, 59, 22
1, 101497, Note_off_c, 0, 82, 37
1, 101534, Note_off_c, 0, 79, 37
1, 101689, Note_off_c, 0, 77, 37
1, 102074, Note_on_c, 0, 85, 49
1, 102081, Note_off_c, 0, 80, 49
1, 102099, Note_on_c, 0, 76, 35
1, 102217, Note_off_c, 0, 76, 33
1, 102620, Note_on_c, 0, 82, 52
1, 102629, Note_on_c, 0, 74, 42
1, 102698, Note_off_c, 0, 64, 40
1, 102700, Note_off_c, 0, 85, 35
1, 102726, Note_off_c, 0, 59, 39
1, 102741, Note_off_c, 0, 82, 51
1, 102784, Note_off_c, 0, 50, 56
1, 102792, Note_off_c, 0, 53, 32
1, 103132, Control_c, 0, 64, 112
1, 103136, Note_on_c, 0, 76, 50
1, 103140, Note_on_c, 0, 73, 50
1, 103142, Note_off_c, 0, 74, 35
1, 103146, Note_on_c, 0, 32, 43
1, 103147, Control_c, 0, 64, 81
1, 103162, Control_c, 0, 64, 65
1, 103176, Control_c, 0, 64, 61
1, 103206, Control_c, 0, 64, 64
1, 103221, Control_c, 0, 64, 72
1, 103236, Control_c, 0, 64, 85
1, 103250, Control_c, 0, 64, 112
1, 103265, Control_c, 0, 64, 127
1, 103299, Note_off_c, 0, 32, 46
1, 103682, Note_on_c, 0, 52, 35
1, 103691, Note_off_c, 0, 76, 47
1, 103698, Note_on_c, 0, 61, 36
1, 103705, Note_on_c, 0, 56, 47
1, 103705, Note_on_c, 0, 74, 55
1, 103712, Note_on_c, 0, 71, 34
1, 103766, Note_off_c, 0, 73, 32
1, 103850, Note_off_c, 0, 71, 38
1, 104259, Note_off_c, 0, 74, 37
1, 104307, Note_on_c, 0, 70, 45
1, 104308, Note_on_c, 0, 76, 50
1, 104495, Note_off_c, 0, 76, 36
1, 104508, Note_off_c, 0, 70, 36
1, 105002, Note_on_c, 0, 82, 54
1, 105014, Note_on_c, 0, 68, 37
1, 105083, Control_c, 0, 67, 120
1, 105097, Control_c, 0, 67, 107
1, 105112, Control_c, 0, 67, 90
1, 105127, Control_c, 0, 67, 72
1, 105140, Note_off_c, 0, 82, 45
1, 105142, Control_c, 0, 67, 55
1, 105156, Control_c, 0, 67, 40
1, 105167, Note_off_c, 0, 68, 0
1, 105171, Control_c, 0, 67, 35
1, 105186, Control_c, 0, 67, 22
1, 105215, Control_c, 0, 67, 0
1, 105235, Poly_aftertouch_c, 0, 68, 0
1, 105290, Note_off_c, 0, 56, 34
1, 105292, Note_off_c, 0, 61, 35
1, 105297, Note_off_c, 0, 52, 36
1, 105930, Note_on_c, 0, 54, 45
1, 105934, Note_on_c, 0, 72, 46
1, 105936, Note_on_c, 0, 60, 32
1, 105941, Note_on_c, 0, 57, 38
1, 105944, Note_on_c, 0, 69, 41
1, 105945, Note_on_c, 0, 66, 39
1, 105953, Note_on_c, 0, 64, 30
1, 106009, Control_c, 0, 64, 113
1, 106024, Control_c, 0, 64, 93
1, 106038, Control_c, 0, 64, 81
1, 106053, Control_c, 0, 64, 72
1, 106068, Control_c, 0, 64, 68
1, 106083, Control_c, 0, 64, 67
1, 106112, Control_c, 0, 64, 66
1, 106127, Control_c, 0, 64, 65
1, 106142, Control_c, 0, 64, 63
1, 106157, Control_c, 0, 64, 62
1, 106171, Control_c, 0, 64, 61
1, 106186, Control_c, 0, 64, 60
1, 106216, Control_c, 0, 64, 60
1, 106231, Control_c, 0, 64, 59
1, 106246, Control_c, 0, 64, 59
1, 106275, Control_c, 0, 64, 58
1, 106305, Control_c, 0, 64, 58
1, 106654, Control_c, 0, 64, 57
1, 106668, Control_c, 0, 64, 56
1, 106683, Control_c, 0, 64, 55
1, 106698, Control_c, 0, 64, 55
1, 106713, Control_c, 0, 64, 54
1, 106727, Control_c, 0, 64, 53
1, 106742, Control_c, 0, 64, 52
1, 106757, Control_c, 0, 64, 51
1, 106772, Control_c, 0, 64, 49
1, 106786, Control_c, 0, 64, 47
1, 106801, Control_c, 0, 64, 45
1, 106816, Control_c, 0, 64, 42
1, 106831, Control_c, 0, 64, 40
1, 106846, Control_c, 0, 64, 36
1, 106860, Control_c, 0, 64, 31
1, 106875, Control_c, 0, 64, 23
1, 106905, Control_c, 0, 64, 0
1, 107342, Control_c, 0, 64, 20
1, 107357, Control_c, 0, 64, 29
1, 107372, Control_c, 0, 64, 37
1, 107387, Control_c, 0, 64, 46
1, 107402, Control_c, 0, 64, 53
1, 107417, Control_c, 0, 64, 60
1, 107432, Control_c, 0, 64, 62
1, 107447, Control_c, 0, 64, 65
1, 107461, Control_c, 0, 64, 68
1, 107476, Control_c, 0, 64, 73
1, 107491, Control_c, 0, 64, 80
1, 107506, Control_c, 0, 64, 88
1, 107521, Control_c, 0, 64, 99
1, 107536, Control_c, 0, 64, 108
1, 107550, Control_c, 0, 64, 127
1, 107641, Note_off_c, 0, 72, 40
1, 107679, Note_off_c, 0, 60, 37
1, 107681, Note_off_c, 0, 69, 44
1, 107730, Note_off_c, 0, 57, 33
1, 107733, Note_off_c, 0, 64, 40
1, 107741, Note_off_c, 0, 66, 41
1, 107772, Note_off_c, 0, 54, 49
1, 108460, Note_on_c, 0, 58, 54
1, 108463, Note_on_c, 0, 50, 43
1, 108478, Control_c, 0, 64, 94
1, 108483, Note_on_c, 0, 55, 35
1, 108484, Note_on_c, 0, 25, 41
1, 108492, Control_c, 0, 64, 75
1, 108507, Control_c, 0, 64, 63
1, 108522, Control_c, 0, 64, 53
1, 108537, Control_c, 0, 64, 49
1, 108552, Control_c, 0, 64, 49
1, 108582, Control_c, 0, 64, 49
1, 108597, Control_c, 0, 64, 57
1, 108612, Control_c, 0, 64, 65
1, 108627, Control_c, 0, 64, 72
1, 108642, Control_c, 0, 64, 81
1, 108663, Control_c, 0, 64, 90
1, 108678, Control_c, 0, 64, 97
1, 108693, Control_c, 0, 64, 104
1, 108708, Control_c, 0, 64, 115
1, 108722, Control_c, 0, 64, 127
1, 108791, Note_off_c, 0, 50, 38
1, 108833, Note_off_c, 0, 55, 36
1, 108923, Note_off_c, 0, 58, 35
1, 109158, Note_off_c, 0, 25, 40
1, 109307, Note_on_c, 0, 64, 65
1, 109327, Note_on_c, 0, 56, 55
1, 109380, Note_on_c, 0, 61, 4
1, 109385, Note_off_c, 0, 56, 56
1, 109432, Note_off_c, 0, 64, 52
1, 109446, Note_off_c, 0, 61, 48
1, 110067, Note_on_c, 0, 62, 58
1, 110067, Note_on_c, 0, 70, 61
1, 110073, Note_on_c, 0, 97, 64
1, 110074, Note_on_c, 0, 85, 62
1, 110076, Note_on_c, 0, 87, 60
1, 110085, Note_on_c, 0, 67, 47
1, 110122, Note_off_c, 0, 67, 62
1, 110131, Note_off_c, 0, 62, 57
1, 110153, Note_off_c, 0, 87, 50
1, 110165, Note_off_c, 0, 97, 51
1, 110196, Note_off_c, 0, 85, 36
1, 110198, Note_off_c, 0, 70, 36
1, 110797, Note_on_c, 0, 94, 70
1, 110798, Note_on_c, 0, 76, 55
1, 110803, Note_on_c, 0, 82, 67
1, 110804, Note_on_c, 0, 85, 63
1, 110805, Note_on_c, 0, 68, 56
1, 110812, Note_on_c, 0, 73, 54
1, 110860, Note_off_c, 0, 73, 56
1, 110864, Note_off_c, 0, 76, 61
1, 110864, Note_off_c, 0, 85, 60
1, 110864, Note_off_c, 0, 94, 60
1, 110886, Note_off_c, 0, 68, 48
1, 110925, Note_off_c, 0, 82, 37
1, 111396, Note_on_c, 0, 86, 75
1, 111402, Note_on_c, 0, 69, 60
1, 111402, Note_on_c, 0, 74, 55
1, 111403, Note_on_c, 0, 66, 53
1, 111407, Note_on_c, 0, 78, 64
1, 111413, Note_on_c, 0, 76, 59
1, 111413, Note_on_c, 0, 85, 66
1, 111438, Note_on_c, 0, 73, 31
1, 111447, Note_off_c, 0, 76, 61
1, 111461, Note_off_c, 0, 78, 60
1, 111471, Note_off_c, 0, 73, 53
1, 111482, Note_off_c, 0, 85, 62
1, 111492, Note_off_c, 0, 69, 58
1, 111493, Note_off_c, 0, 86, 60
1, 111498, Note_off_c, 0, 74, 36
1, 111506, Note_off_c, 0, 66, 34
1, 111507, Poly_aftertouch_c, 0, 81, 0
1, 111918, Note_on_c, 0, 78, 83
1, 111925, Note_on_c, 0, 88, 75
1, 111927, Note_on_c, 0, 75, 78
1, 111928, Note_on_c, 0, 80, 74
1, 111929, Note_on_c, 0, 64, 68
1, 111932, Note_on_c, 0, 87, 72
1, 111941, Note_on_c, 0, 83, 73
1, 111944, Note_on_c, 0, 68, 63
1, 111946, Note_on_c, 0, 71, 59
1, 111963, Note_on_c, 0, 66, 52
1, 111967, Note_off_c, 0, 83, 62
1, 111969, Note_off_c, 0, 71, 63
1, 111970, Note_off_c, 0, 75, 59
1, 111970, Note_off_c, 0, 88, 64
1, 111972, Note_off_c, 0, 78, 62
1, 111977, Note_off_c, 0, 80, 59
1, 111982, Note_off_c, 0, 87, 63
1, 111995, Note_off_c, 0, 66, 63
1, 111996, Note_off_c, 0, 64, 56
1, 112010, Note_off_c, 0, 68, 38
1, 112265, Control_c, 0, 64, 81
1, 112267, Note_on_c, 0, 64, 81
1, 112270, Note_on_c, 0, 56, 79
1, 112278, Note_on_c, 0, 59, 74
1, 112280, Control_c, 0, 64, 65
1, 112295, Control_c, 0, 64, 62
1, 112310, Control_c, 0, 64, 63
1, 112324, Control_c, 0, 64, 67
1, 112339, Control_c, 0, 64, 73
1, 112354, Control_c, 0, 64, 87
1, 112362, Note_off_c, 0, 59, 59
1, 112366, Note_off_c, 0, 64, 55
1, 112369, Control_c, 0, 64, 117
1, 112383, Control_c, 0, 64, 127
1, 112390, Note_off_c, 0, 56, 58
1, 112539, Control_c, 0, 64, 80
1, 112554, Control_c, 0, 64, 65
1, 112569, Control_c, 0, 64, 64
1, 112571, Note_on_c, 0, 54, 86
1, 112574, Note_on_c, 0, 62, 89
1, 112585, Control_c, 0, 64, 67
1, 112587, Note_on_c, 0, 57, 75
1, 112600, Control_c, 0, 64, 72
1, 112601, Note_on_c, 0, 56, 61
1, 112615, Control_c, 0, 64, 87
1, 112629, Control_c, 0, 64, 127
1, 112650, Note_off_c, 0, 56, 50
1, 112663, Note_off_c, 0, 62, 52
1, 112672, Note_off_c, 0, 57, 59
1, 112679, Note_off_c, 0, 54, 59
1, 112777, Control_c, 0, 64, 84
1, 112792, Control_c, 0, 64, 63
1, 112807, Control_c, 0, 64, 52
1, 112822, Control_c, 0, 64, 53
1, 112836, Note_on_c, 0, 52, 81
1, 112836, Note_on_c, 0, 59, 90
1, 112836, Control_c, 0, 64, 61
1, 112844, Note_on_c, 0, 56, 83
1, 112851, Control_c, 0, 64, 69
1, 112866, Control_c, 0, 64, 81
1, 112881, Control_c, 0, 64, 103
1, 112893, Note_off_c, 0, 59, 61
1, 112896, Control_c, 0, 64, 127
1, 112904, Note_off_c, 0, 56, 61
1, 112931, Note_off_c, 0, 52, 56
1, 113043, Control_c, 0, 64, 95
1, 113058, Control_c, 0, 64, 63
1, 113072, Control_c, 0, 64, 0
1, 113086, Note_on_c, 0, 58, 87
1, 113090, Note_on_c, 0, 55, 82
1, 113104, Note_on_c, 0, 48, 64
1, 113104, Note_on_c, 0, 50, 60
1, 113137, Note_off_c, 0, 58, 61
1, 113140, Note_off_c, 0, 55, 60
1, 113143, Note_off_c, 0, 50, 63
1, 113144, Note_off_c, 0, 48, 64
1, 113154, Control_c, 0, 64, 59
1, 113169, Control_c, 0, 64, 72
1, 113184, Control_c, 0, 64, 85
1, 113199, Control_c, 0, 64, 116
1, 113213, Control_c, 0, 64, 127
1, 113238, Note_on_c, 0, 47, 64
1, 113244, Note_on_c, 0, 52, 71
1, 113271, Note_on_c, 0, 54, 37
1, 113277, Note_on_c, 0, 55, 30
1, 113285, Note_off_c, 0, 47, 0
1, 113285, Note_on_c, 0, 47, 26
1, 113305, Note_off_c, 0, 54, 54
1, 113305, Note_off_c, 0, 55, 54
1, 113320, Note_off_c, 0, 47, 55
1, 113330, Note_off_c, 0, 52, 57
1, 113451, Control_c, 0, 64, 91
1, 113466, Control_c, 0, 64, 79
1, 113481, Control_c, 0, 64, 80
1, 113496, Control_c, 0, 64, 91
1, 113510, Control_c, 0, 64, 119
1, 113519, Note_on_c, 0, 56, 87
1, 113525, Control_c, 0, 64, 127
1, 113531, Note_on_c, 0, 47, 70
1, 113542, Note_on_c, 0, 52, 77
1, 113599, Note_off_c, 0, 52, 57
1, 113607, Note_off_c, 0, 56, 56
1, 113611, Note_off_c, 0, 47, 55
1, 113733, Control_c, 0, 64, 86
1, 113748, Control_c, 0, 64, 50
1, 113763, Control_c, 0, 64, 0
1, 113790, Note_on_c, 0, 53, 79
1, 113791, Note_on_c, 0, 44, 77
1, 113792, Note_on_c, 0, 68, 75
1, 113792, Control_c, 0, 64, 30
1, 113793, Note_on_c, 0, 65, 85
1, 113793, Note_on_c, 0, 73, 96
1, 113807, Control_c, 0, 64, 57
1, 113808, Note_on_c, 0, 49, 83
1, 113822, Control_c, 0, 64, 71
1, 113836, Control_c, 0, 64, 85
1, 113845, Note_off_c, 0, 53, 62
1, 113851, Control_c, 0, 64, 127
1, 113866, Note_off_c, 0, 49, 62
1, 113870, Note_off_c, 0, 65, 59
1, 113877, Note_off_c, 0, 73, 61
1, 113884, Note_off_c, 0, 44, 61
1, 113884, Note_off_c, 0, 68, 57
1, 114183, Note_on_c, 0, 25, 98
1, 114186, Note_on_c, 0, 62, 100
1, 114190, Note_on_c, 0, 71, 84
1, 114192, Note_on_c, 0, 67, 93
1, 114230, Note_off_c, 0, 25, 64
1, 114231, Note_off_c, 0, 62, 63
1, 114233, Note_on_c, 0, 69, 40
1, 114240, Note_off_c, 0, 67, 65
1, 114250, Note_off_c, 0, 71, 65
1, 114260, Note_off_c, 0, 69, 55
1, 114527, Note_on_c, 0, 80, 52
1, 114533, Note_on_c, 0, 77, 90
1, 114533, Note_on_c, 0, 85, 95
1, 114535, Note_on_c, 0, 68, 88
1, 114535, Note_on_c, 0, 61, 77
1, 114549, Note_on_c, 0, 65, 65
1, 114554, Note_on_c, 0, 64, 70
1, 114592, Note_off_c, 0, 65, 60
1, 114593, Note_off_c, 0, 64, 50
1, 114595, Note_off_c, 0, 80, 60
1, 114599, Note_off_c, 0, 77, 57
1, 114601, Note_off_c, 0, 85, 62
1, 114612, Note_off_c, 0, 61, 58
1, 114613, Note_off_c, 0, 68, 48
1, 114627, Poly_aftertouch_c, 0, 63, 127
1, 114677, Poly_aftertouch_c, 0, 63, 0
1, 114806, Note_on_c, 0, 67, 89
1, 114811, Note_on_c, 0, 62, 86
1, 114812, Note_on_c, 0, 59, 82
1, 114815, Note_on_c, 0, 83, 89
1, 114816, Note_on_c, 0, 74, 93
1, 114816, Note_on_c, 0, 79, 86
1, 114847, Note_off_c, 0, 67, 63
1, 114856, Note_off_c, 0, 59, 63
1, 114857, Note_off_c, 0, 62, 60
1, 114858, Note_off_c, 0, 74, 64
1, 114860, Note_off_c, 0, 83, 61
1, 114868, Note_off_c, 0, 79, 63
1, 114925, Poly_aftertouch_c, 0, 81, 0
1, 115024, Control_c, 0, 64, 93
1, 115039, Control_c, 0, 64, 70
1, 115054, Control_c, 0, 64, 64
1, 115057, Note_on_c, 0, 73, 61
1, 115060, Note_on_c, 0, 56, 86
1, 115060, Note_on_c, 0, 65, 88
1, 115065, Note_on_c, 0, 61, 77
1, 115066, Note_on_c, 0, 80, 81
1, 115067, Note_on_c, 0, 77, 85
1, 115069, Control_c, 0, 64, 66
1, 115083, Control_c, 0, 64, 72
1, 115098, Control_c, 0, 64, 84
1, 115113, Control_c, 0, 64, 113
1, 115128, Control_c, 0, 64, 127
1, 115140, Note_off_c, 0, 56, 59
1, 115143, Note_off_c, 0, 61, 60
1, 115144, Note_off_c, 0, 65, 61
1, 115149, Note_off_c, 0, 77, 57
1, 115162, Note_off_c, 0, 73, 60
1, 115165, Note_off_c, 0, 80, 52
1, 115283, Note_on_c, 0, 67, 83
1, 115287, Note_on_c, 0, 62, 79
1, 115289, Note_on_c, 0, 59, 73
1, 115290, Control_c, 0, 64, 96
1, 115294, Note_on_c, 0, 79, 87
1, 115295, Note_on_c, 0, 71, 86
1, 115295, Note_on_c, 0, 74, 70
1, 115305, Control_c, 0, 64, 64
1, 115320, Control_c, 0, 64, 0
1, 115322, Note_off_c, 0, 74, 66
1, 115323, Note_off_c, 0, 67, 60
1, 115326, Note_off_c, 0, 59, 63
1, 115330, Note_off_c, 0, 62, 61
1, 115338, Note_off_c, 0, 71, 62
1, 115339, Note_off_c, 0, 79, 63
1, 115364, Control_c, 0, 64, 43
1, 115379, Control_c, 0, 64, 65
1, 115401, Control_c, 0, 64, 76
1, 115410, Note_on_c, 0, 68, 95
1, 115411, Note_on_c, 0, 77, 86
1, 115414, Note_on_c, 0, 65, 83
1, 115415, Note_on_c, 0, 73, 85
1, 115416, Control_c, 0, 64, 92
1, 115417, Note_on_c, 0, 61, 78
1, 115420, Note_on_c, 0, 56, 75
1, 115431, Control_c, 0, 64, 127
1, 115438, Note_on_c, 0, 64, 57
1, 115469, Note_off_c, 0, 64, 48
1, 115501, Note_off_c, 0, 77, 54
1, 115504, Note_off_c, 0, 65, 52
1, 115520, Poly_aftertouch_c, 0, 58, 127
1, 115521, Note_off_c, 0, 73, 58
1, 115521, Poly_aftertouch_c, 0, 62, 127
1, 115524, Note_off_c, 0, 56, 46
1, 115528, Poly_aftertouch_c, 0, 75, 0
1, 115530, Note_off_c, 0, 68, 55
1, 115558, Poly_aftertouch_c, 0, 62, 0
1, 115569, Poly_aftertouch_c, 0, 58, 0
1, 115617, Note_off_c, 0, 61, 33
1, 115623, Control_c, 0, 64, 119
1, 115638, Control_c, 0, 64, 84
1, 115650, Note_on_c, 0, 64, 75
1, 115650, Note_on_c, 0, 76, 86
1, 115651, Note_on_c, 0, 55, 79
1, 115652, Note_on_c, 0, 67, 88
1, 115653, Note_on_c, 0, 71, 76
1, 115653, Control_c, 0, 64, 74
1, 115668, Control_c, 0, 64, 74
1, 115683, Control_c, 0, 64, 85
1, 115698, Note_off_c, 0, 71, 60
1, 115698, Control_c, 0, 64, 111
1, 115706, Note_off_c, 0, 64, 58
1, 115710, Note_off_c, 0, 67, 62
1, 115713, Control_c, 0, 64, 127
1, 115716, Note_off_c, 0, 76, 60
1, 115723, Note_off_c, 0, 55, 58
1, 115739, Poly_aftertouch_c, 0, 60, 127
1, 115769, Poly_aftertouch_c, 0, 60, 0
1, 115877, Control_c, 0, 64, 86
1, 115891, Control_c, 0, 64, 65
1, 115906, Control_c, 0, 64, 57
1, 115912, Note_on_c, 0, 53, 77
1, 115914, Note_on_c, 0, 61, 86
1, 115914, Note_on_c, 0, 68, 75
1, 115914, Note_on_c, 0, 73, 89
1, 115916, Note_on_c, 0, 65, 89
1, 115921, Control_c, 0, 64, 60
1, 115923, Note_on_c, 0, 56, 81
1, 115936, Control_c, 0, 64, 66
1, 115944, Note_off_c, 0, 61, 63
1, 115951, Control_c, 0, 64, 75
1, 115966, Control_c, 0, 64, 92
1, 115967, Note_off_c, 0, 53, 62
1, 115967, Note_off_c, 0, 56, 60
1, 115980, Control_c, 0, 64, 127
1, 116210, Control_c, 0, 64, 94
1, 116224, Control_c, 0, 64, 62
1, 116239, Control_c, 0, 64, 0
1, 116257, Note_on_c, 0, 43, 87
1, 116260, Note_on_c, 0, 31, 85
1, 116284, Control_c, 0, 64, 38
1, 116297, Note_off_c, 0, 31, 65
1, 116299, Control_c, 0, 64, 64
1, 116313, Control_c, 0, 64, 77
1, 116315, Note_off_c, 0, 43, 62
1, 116327, Note_off_c, 0, 73, 58
1, 116328, Control_c, 0, 64, 95
1, 116331, Note_off_c, 0, 65, 55
1, 116343, Control_c, 0, 64, 127
1, 116345, Note_off_c, 0, 68, 55
1, 116604, Note_on_c, 0, 50, 62
1, 116604, Note_on_c, 0, 59, 69
1, 116604, Note_on_c, 0, 67, 78
1, 116607, Note_on_c, 0, 62, 76
1, 116613, Note_on_c, 0, 71, 65
1, 116631, Note_off_c, 0, 62, 65
1, 116637, Note_off_c, 0, 50, 63
1, 116640, Note_off_c, 0, 67, 57
1, 116641, Note_off_c, 0, 71, 64
1, 116649, Note_off_c, 0, 59, 57
1, 116720, Note_on_c, 0, 61, 85
1, 116723, Note_on_c, 0, 68, 83
1, 116726, Note_on_c, 0, 65, 72
1, 116729, Note_on_c, 0, 73, 74
1, 116730, Note_on_c, 0, 56, 77
1, 116751, Note_off_c, 0, 65, 66
1, 116752, Note_off_c, 0, 73, 68
1, 116756, Note_off_c, 0, 61, 53
1, 116762, Note_off_c, 0, 56, 60
1, 116766, Note_off_c, 0, 68, 55
1, 116832, Note_on_c, 0, 50, 81
1, 116834, Note_on_c, 0, 67, 84
1, 116839, Note_on_c, 0, 71, 74
1, 116842, Note_on_c, 0, 62, 71
1, 116848, Note_on_c, 0, 64, 66
1, 116854, Note_off_c, 0, 67, 66
1, 116858, Note_off_c, 0, 62, 67
1, 116862, Note_off_c, 0, 71, 67
1, 116866, Note_off_c, 0, 64, 64
1, 116872, Note_off_c, 0, 50, 62
1, 116877, Control_c, 0, 64, 98
1, 116899, Control_c, 0, 64, 71
1, 116914, Control_c, 0, 64, 62
1, 116929, Control_c, 0, 64, 63
1, 116944, Control_c, 0, 64, 68
1, 116951, Note_on_c, 0, 61, 89
1, 116953, Note_on_c, 0, 53, 79
1, 116954, Note_on_c, 0, 65, 84
1, 116956, Note_on_c, 0, 73, 87
1, 116959, Control_c, 0, 64, 75
1, 116961, Note_on_c, 0, 68, 79
1, 116963, Note_on_c, 0, 56, 77
1, 116973, Control_c, 0, 64, 92
1, 116988, Control_c, 0, 64, 127
1, 117029, Note_off_c, 0, 65, 57
1, 117046, Note_off_c, 0, 68, 56
1, 117046, Note_off_c, 0, 73, 61
1, 117057, Note_off_c, 0, 56, 59
1, 117061, Note_off_c, 0, 53, 53
1, 117064, Note_off_c, 0, 61, 58
1, 117151, Control_c, 0, 64, 102
1, 117166, Control_c, 0, 64, 74
1, 117180, Control_c, 0, 64, 60
1, 117187, Note_on_c, 0, 71, 91
1, 117187, Note_on_c, 0, 79, 90
1, 117189, Note_on_c, 0, 74, 90
1, 117191, Note_on_c, 0, 67, 89
1, 117193, Note_on_c, 0, 62, 87
1, 117195, Control_c, 0, 64, 59
1, 117200, Note_on_c, 0, 59, 70
1, 117210, Control_c, 0, 64, 63
1, 117225, Control_c, 0, 64, 71
1, 117240, Control_c, 0, 64, 85
1, 117247, Note_off_c, 0, 67, 59
1, 117254, Control_c, 0, 64, 118
1, 117267, Note_off_c, 0, 59, 57
1, 117269, Control_c, 0, 64, 127
1, 117272, Note_off_c, 0, 74, 34
1, 117274, Note_off_c, 0, 79, 58
1, 117275, Note_off_c, 0, 62, 54
1, 117282, Note_off_c, 0, 71, 55
1, 117404, Control_c, 0, 64, 85
1, 117414, Note_on_c, 0, 63, 73
1, 117417, Note_on_c, 0, 65, 70
1, 117417, Note_on_c, 0, 68, 93
1, 117417, Note_on_c, 0, 73, 82
1, 117419, Control_c, 0, 64, 70
1, 117421, Note_on_c, 0, 77, 78
1, 117423, Note_on_c, 0, 61, 65
1, 117449, Control_c, 0, 64, 78
1, 117450, Note_on_c, 0, 64, 47
1, 117459, Note_on_c, 0, 56, 27
1, 117464, Control_c, 0, 64, 91
1, 117478, Control_c, 0, 64, 116
1, 117483, Note_off_c, 0, 64, 49
1, 117493, Control_c, 0, 64, 127
1, 117501, Note_off_c, 0, 68, 57
1, 117505, Note_off_c, 0, 56, 49
1, 117506, Note_off_c, 0, 77, 52
1, 117510, Note_off_c, 0, 65, 55
1, 117523, Note_off_c, 0, 73, 55
1, 117576, Note_off_c, 0, 63, 43
1, 117606, Note_on_c, 0, 57, 58
1, 117614, Note_on_c, 0, 71, 81
1, 117620, Note_off_c, 0, 61, 33
1, 117620, Note_on_c, 0, 67, 74
1, 117626, Note_on_c, 0, 76, 72
1, 117637, Note_off_c, 0, 57, 64
1, 117641, Control_c, 0, 64, 90
1, 117657, Note_off_c, 0, 76, 67
1, 117658, Note_off_c, 0, 67, 59
1, 117664, Control_c, 0, 64, 58
1, 117665, Note_off_c, 0, 71, 64
1, 117678, Control_c, 0, 64, 0
1, 117738, Control_c, 0, 64, 60
1, 117739, Note_on_c, 0, 49, 88
1, 117740, Note_on_c, 0, 65, 87
1, 117743, Note_on_c, 0, 37, 77
1, 117746, Note_on_c, 0, 73, 84
1, 117748, Note_on_c, 0, 68, 82
1, 117752, Control_c, 0, 64, 76
1, 117767, Note_off_c, 0, 73, 65
1, 117767, Control_c, 0, 64, 101
1, 117772, Note_off_c, 0, 65, 56
1, 117772, Note_off_c, 0, 68, 56
1, 117774, Note_off_c, 0, 37, 62
1, 117781, Note_off_c, 0, 49, 44
1, 117782, Note_on_c, 0, 67, 26
1, 117782, Control_c, 0, 64, 127
1, 117817, Note_off_c, 0, 67, 54
1, 117979, Note_on_c, 0, 62, 83
1, 117979, Note_on_c, 0, 67, 78
1, 117979, Note_on_c, 0, 71, 83
1, 117980, Note_on_c, 0, 50, 79
1, 117983, Note_on_c, 0, 59, 80
1, 117998, Note_off_c, 0, 62, 69
1, 118002, Note_off_c, 0, 67, 67
1, 118008, Note_off_c, 0, 71, 59
1, 118009, Note_on_c, 0, 55, 40
1, 118014, Note_off_c, 0, 59, 59
1, 118023, Note_off_c, 0, 50, 59
1, 118041, Note_off_c, 0, 55, 52
1, 118083, Note_on_c, 0, 68, 88
1, 118085, Note_on_c, 0, 61, 86
1, 118089, Note_on_c, 0, 73, 78
1, 118090, Note_on_c, 0, 56, 84
1, 118091, Note_on_c, 0, 65, 70
1, 118108, Note_off_c, 0, 61, 63
1, 118109, Note_off_c, 0, 73, 71
1, 118111, Note_off_c, 0, 68, 57
1, 118115, Note_off_c, 0, 65, 68
1, 118121, Note_off_c, 0, 56, 58
1, 118187, Note_on_c, 0, 67, 91
1, 118188, Note_on_c, 0, 50, 84
1, 118192, Note_on_c, 0, 64, 82
1, 118192, Note_on_c, 0, 71, 78
1, 118205, Note_off_c, 0, 67, 69
1, 118211, Note_off_c, 0, 64, 70
1, 118213, Note_off_c, 0, 71, 69
1, 118227, Control_c, 0, 64, 98
1, 118231, Note_off_c, 0, 50, 62
1, 118242, Control_c, 0, 64, 65
1, 118257, Control_c, 0, 64, 59
1, 118272, Control_c, 0, 64, 62
1, 118285, Note_on_c, 0, 65, 90
1, 118287, Control_c, 0, 64, 69
1, 118290, Note_on_c, 0, 73, 90
1, 118291, Note_on_c, 0, 53, 81
1, 118291, Note_on_c, 0, 61, 95
1, 118291, Note_on_c, 0, 68, 89
1, 118300, Note_on_c, 0, 56, 78
1, 118301, Control_c, 0, 64, 79
1, 118316, Control_c, 0, 64, 101
1, 118331, Control_c, 0, 64, 127
1, 118369, Note_off_c, 0, 65, 57
1, 118378, Note_off_c, 0, 68, 57
1, 118381, Note_off_c, 0, 73, 59
1, 118410, Note_off_c, 0, 56, 59
1, 118414, Note_off_c, 0, 53, 58
1, 118416, Note_off_c, 0, 61, 57
1, 118487, Control_c, 0, 64, 88
1, 118501, Control_c, 0, 64, 68
1, 118515, Note_on_c, 0, 71, 96
1, 118516, Control_c, 0, 64, 65
1, 118517, Note_on_c, 0, 74, 94
1, 118517, Note_on_c, 0, 79, 92
1, 118521, Note_on_c, 0, 67, 94
1, 118522, Note_on_c, 0, 59, 82
1, 118531, Control_c, 0, 64, 69
1, 118532, Note_on_c, 0, 62, 71
1, 118538, Note_on_c, 0, 64, 71
1, 118546, Control_c, 0, 64, 80
1, 118560, Control_c, 0, 64, 102
1, 118562, Note_off_c, 0, 64, 64
1, 118575, Note_off_c, 0, 67, 60
1, 118575, Control_c, 0, 64, 127
1, 118595, Note_off_c, 0, 62, 46
1, 118602, Note_off_c, 0, 59, 58
1, 118610, Note_off_c, 0, 79, 61
1, 118611, Note_off_c, 0, 71, 59
1, 118616, Note_off_c, 0, 74, 49
1, 118726, Note_on_c, 0, 68, 94
1, 118728, Note_on_c, 0, 77, 86
1, 118729, Note_on_c, 0, 65, 86
1, 118734, Note_on_c, 0, 63, 76
1, 118739, Note_on_c, 0, 61, 68
1, 118742, Note_on_c, 0, 56, 61
1, 118752, Note_on_c, 0, 73, 46
1, 118756, Note_on_c, 0, 74, 55
1, 118777, Note_off_c, 0, 56, 59
1, 118777, Note_off_c, 0, 74, 64
1, 118778, Note_off_c, 0, 73, 57
1, 118800, Note_off_c, 0, 77, 59
1, 118807, Note_off_c, 0, 68, 58
1, 118813, Note_off_c, 0, 65, 58
1, 118840, Poly_aftertouch_c, 0, 69, 0
1, 118887, Note_off_c, 0, 61, 52
1, 118888, Note_on_c, 0, 55, 63
1, 118893, Note_off_c, 0, 63, 36
1, 118894, Note_on_c, 0, 71, 76
1, 118902, Note_on_c, 0, 67, 70
1, 118910, Note_on_c, 0, 74, 53
1, 118916, Note_on_c, 0, 76, 45
1, 118919, Note_off_c, 0, 55, 64
1, 118934, Note_off_c, 0, 74, 63
1, 118941, Note_off_c, 0, 71, 57
1, 118941, Note_off_c, 0, 76, 56
1, 118944, Note_off_c, 0, 67, 48
1, 118960, Control_c, 0, 64, 65
1, 118976, Control_c, 0, 64, 0
1, 119022, Note_on_c, 0, 43, 98
1, 119023, Note_on_c, 0, 65, 89
1, 119025, Note_on_c, 0, 68, 91
1, 119027, Note_on_c, 0, 31, 84
1, 119029, Note_on_c, 0, 73, 87
1, 119036, Control_c, 0, 64, 36
1, 119050, Control_c, 0, 64, 78
1, 119054, Note_on_c, 0, 67, 50
1, 119055, Note_off_c, 0, 67, 127
1, 119058, Note_off_c, 0, 31, 68
1, 119060, Note_on_c, 0, 33, 47
1, 119065, Control_c, 0, 64, 127
1, 119089, Note_off_c, 0, 65, 57
1, 119098, Note_off_c, 0, 33, 53
1, 119098, Note_off_c, 0, 43, 59
1, 119102, Note_off_c, 0, 73, 60
1, 119111, Note_off_c, 0, 68, 59
1, 119206, Control_c, 0, 64, 101
1, 119221, Control_c, 0, 64, 67
1, 119236, Control_c, 0, 64, 42
1, 119250, Control_c, 0, 64, 34
1, 119261, Note_on_c, 0, 79, 73
1, 119264, Note_on_c, 0, 71, 65
1, 119265, Control_c, 0, 64, 50
1, 119266, Note_on_c, 0, 59, 59
1, 119276, Note_on_c, 0, 74, 45
1, 119280, Control_c, 0, 64, 66
1, 119285, Note_on_c, 0, 62, 49
1, 119285, Note_on_c, 0, 67, 60
1, 119295, Control_c, 0, 64, 80
1, 119310, Control_c, 0, 64, 107
1, 119319, Note_off_c, 0, 62, 47
1, 119324, Control_c, 0, 64, 127
1, 119337, Note_off_c, 0, 79, 55
1, 119371, Note_off_c, 0, 74, 30
1, 119373, Note_off_c, 0, 59, 54
1, 119391, Note_off_c, 0, 71, 34
1, 119399, Note_off_c, 0, 67, 0
1, 119436, Poly_aftertouch_c, 0, 67, 127
1, 119465, Note_on_c, 0, 68, 75
1, 119468, Note_on_c, 0, 63, 45
1, 119476, Note_on_c, 0, 73, 61
1, 119507, Note_on_c, 0, 76, 38
1, 119513, Note_off_c, 0, 73, 58
1, 119516, Note_off_c, 0, 68, 41
1, 119525, Poly_aftertouch_c, 0, 67, 0
1, 119536, Note_off_c, 0, 76, 53
1, 119564, Note_off_c, 0, 63, 56
1, 119600, Note_on_c, 0, 59, 61
1, 119624, Note_on_c, 0, 67, 77
1, 119624, Note_off_c, 0, 59, 62
1, 119632, Note_on_c, 0, 71, 65
1, 119639, Note_on_c, 0, 74, 59
1, 119639, Note_on_c, 0, 76, 50
1, 119650, Control_c, 0, 64, 107
1, 119651, Note_off_c, 0, 67, 60
1, 119659, Note_off_c, 0, 71, 63
1, 119660, Note_off_c, 0, 74, 63
1, 119660, Note_off_c, 0, 76, 60
1, 119665, Control_c, 0, 64, 65
1, 119680, Control_c, 0, 64, 34
1, 119694, Control_c, 0, 64, 30
1, 119709, Control_c, 0, 64, 48
1, 119724, Control_c, 0, 64, 64
1, 119726, Note_on_c, 0, 49, 89
1, 119733, Note_on_c, 0, 37, 73
1, 119734, Note_on_c, 0, 65, 78
1, 119734, Note_on_c, 0, 68, 82
1, 119739, Control_c, 0, 64, 73
1, 119740, Note_on_c, 0, 73, 72
1, 119754, Control_c, 0, 64, 87
1, 119756, Note_off_c, 0, 65, 69
1, 119756, Note_off_c, 0, 68, 63
1, 119761, Note_off_c, 0, 37, 64
1, 119761, Note_off_c, 0, 73, 64
1, 119770, Control_c, 0, 64, 127
1, 119784, Note_off_c, 0, 49, 59
1, 119937, Note_on_c, 0, 79, 90
1, 119938, Note_on_c, 0, 71, 90
1, 119941, Note_on_c, 0, 74, 85
1, 119942, Note_on_c, 0, 59, 84
1, 119947, Note_on_c, 0, 67, 88
1, 119949, Note_on_c, 0, 62, 79
1, 119962, Note_off_c, 0, 74, 65
1, 119976, Note_off_c, 0, 71, 62
1, 119977, Note_off_c, 0, 67, 57
1, 119978, Note_off_c, 0, 62, 59
1, 119985, Note_off_c, 0, 79, 60
1, 119994, Note_off_c, 0, 59, 60
1, 120113, Note_on_c, 0, 68, 102
1, 120118, Note_on_c, 0, 65, 94
1, 120119, Note_on_c, 0, 73, 90
1, 120120, Note_on_c, 0, 77, 77
1, 120127, Note_on_c, 0, 63, 76
1, 120131, Note_on_c, 0, 61, 71
1, 120139, Note_on_c, 0, 56, 65
1, 120152, Note_on_c, 0, 76, 48
1, 120178, Note_off_c, 0, 76, 59
1, 120181, Note_off_c, 0, 77, 57
1, 120185, Note_off_c, 0, 65, 57
1, 120186, Note_off_c, 0, 73, 56
1, 120190, Note_off_c, 0, 68, 58
1, 120198, Note_off_c, 0, 56, 0
1, 120221, Poly_aftertouch_c, 0, 75, 0
1, 120227, Note_on_c, 0, 56, 28
1, 120250, Note_off_c, 0, 61, 55
1, 120254, Note_off_c, 0, 63, 46
1, 120261, Note_off_c, 0, 56, 48
1, 120267, Note_on_c, 0, 71, 88
1, 120273, Note_on_c, 0, 55, 32
1, 120279, Note_on_c, 0, 67, 77
1, 120292, Note_on_c, 0, 74, 56
1, 120295, Control_c, 0, 64, 114
1, 120305, Note_off_c, 0, 67, 64
1, 120306, Note_off_c, 0, 55, 52
1, 120310, Control_c, 0, 64, 67
1, 120311, Note_off_c, 0, 71, 61
1, 120314, Note_off_c, 0, 74, 60
1, 120315, Poly_aftertouch_c, 0, 58, 0
1, 120324, Control_c, 0, 64, 0
1, 120354, Control_c, 0, 64, 16
1, 120369, Control_c, 0, 64, 55
1, 120371, Note_on_c, 0, 43, 99
1, 120375, Note_on_c, 0, 65, 93
1, 120378, Note_on_c, 0, 31, 87
1, 120378, Note_on_c, 0, 68, 95
1, 120384, Control_c, 0, 64, 74
1, 120385, Note_on_c, 0, 73, 66
1, 120393, Note_on_c, 0, 74, 69
1, 120399, Control_c, 0, 64, 96
1, 120402, Note_off_c, 0, 31, 66
1, 120405, Note_off_c, 0, 73, 60
1, 120407, Note_off_c, 0, 65, 64
1, 120411, Note_off_c, 0, 74, 65
1, 120413, Note_off_c, 0, 43, 63
1, 120413, Control_c, 0, 64, 127
1, 120428, Note_off_c, 0, 68, 58
1, 120575, Note_on_c, 0, 74, 88
1, 120577, Note_on_c, 0, 79, 94
1, 120577, Note_on_c, 0, 71, 94
1, 120583, Note_on_c, 0, 57, 84
1, 120585, Note_on_c, 0, 67, 86
1, 120595, Note_on_c, 0, 65, 78
1, 120600, Note_on_c, 0, 61, 61
1, 120607, Note_on_c, 0, 60, 51
1, 120610, Note_off_c, 0, 65, 66
1, 120613, Note_off_c, 0, 74, 63
1, 120619, Note_off_c, 0, 71, 62
1, 120622, Note_off_c, 0, 61, 60
1, 120625, Note_off_c, 0, 67, 63
1, 120627, Note_off_c, 0, 79, 62
1, 120631, Note_off_c, 0, 57, 59
1, 120631, Note_off_c, 0, 60, 57
1, 120723, Note_on_c, 0, 65, 69
1, 120732, Note_on_c, 0, 68, 95
1, 120741, Note_on_c, 0, 73, 88
1, 120744, Note_on_c, 0, 63, 84
1, 120744, Note_on_c, 0, 61, 72
1, 120745, Note_on_c, 0, 77, 70
1, 120756, Note_off_c, 0, 65, 59
1, 120762, Note_off_c, 0, 77, 67
1, 120772, Note_off_c, 0, 61, 62
1, 120774, Note_on_c, 0, 56, 64
1, 120780, Note_off_c, 0, 63, 54
1, 120781, Note_on_c, 0, 75, 19
1, 120789, Note_off_c, 0, 73, 63
1, 120802, Note_off_c, 0, 68, 55
1, 120804, Note_off_c, 0, 56, 65
1, 120826, Note_off_c, 0, 75, 43
1, 120839, Poly_aftertouch_c, 0, 64, 0
1, 120864, Note_on_c, 0, 67, 96
1, 120870, Note_on_c, 0, 73, 87
1, 120884, Note_on_c, 0, 76, 63
1, 120890, Note_off_c, 0, 73, 67
1, 120907, Note_off_c, 0, 76, 63
1, 120913, Note_off_c, 0, 67, 64
1, 120955, Control_c, 0, 64, 116
1, 120970, Control_c, 0, 64, 63
1, 120985, Control_c, 0, 64, 0
1, 120988, Poly_aftertouch_c, 0, 37, 0
1, 121000, Control_c, 0, 64, 30
1, 121001, Note_on_c, 0, 37, 33
1, 121005, Note_on_c, 0, 49, 100
1, 121014, Control_c, 0, 64, 58
1, 121028, Note_on_c, 0, 44, 67
1, 121029, Control_c, 0, 64, 75
1, 121039, Note_on_c, 0, 39, 53
1, 121044, Control_c, 0, 64, 113
1, 121052, Note_off_c, 0, 44, 59
1, 121059, Control_c, 0, 64, 127
1, 121060, Note_off_c, 0, 37, 59
1, 121070, Note_off_c, 0, 39, 56
1, 121072, Note_off_c, 0, 49, 65
1, 121207, Note_on_c, 0, 62, 100
1, 121207, Note_on_c, 0, 71, 90
1, 121209, Note_on_c, 0, 64, 97
1, 121213, Note_on_c, 0, 67, 88
1, 121213, Note_on_c, 0, 69, 92
1, 121336, Note_off_c, 0, 71, 60
1, 121345, Note_on_c, 0, 60, 100
1, 121346, Note_on_c, 0, 49, 90
1, 121350, Note_on_c, 0, 58, 94
1, 121350, Note_off_c, 0, 62, 60
1, 121356, Note_off_c, 0, 64, 54
1, 121358, Note_on_c, 0, 51, 80
1, 121362, Note_on_c, 0, 54, 81
1, 121376, Note_off_c, 0, 67, 60
1, 121376, Note_off_c, 0, 69, 57
1, 121452, Note_off_c, 0, 60, 54
1, 121461, Note_off_c, 0, 49, 60
1, 121463, Note_on_c, 0, 61, 95
1, 121474, Note_on_c, 0, 63, 90
1, 121474, Note_on_c, 0, 70, 90
1, 121484, Note_on_c, 0, 68, 77
1, 121488, Note_on_c, 0, 66, 81
1, 121490, Note_off_c, 0, 58, 65
1, 121501, Note_off_c, 0, 51, 58
1, 121516, Note_off_c, 0, 61, 65
1, 121516, Note_off_c, 0, 54, 0
1, 121516, Note_on_c, 0, 50, 73
1, 121523, Note_on_c, 0, 57, 80
1, 121523, Note_on_c, 0, 59, 97
1, 121530, Note_off_c, 0, 66, 55
1, 121540, Note_on_c, 0, 55, 65
1, 121543, Note_off_c, 0, 63, 57
1, 121543, Note_on_c, 0, 52, 72
1, 121543, Note_off_c, 0, 68, 57
1, 121553, Poly_aftertouch_c, 0, 54, 127
1, 121556, Note_off_c, 0, 70, 60
1, 121558, Note_on_c, 0, 67, 10
1, 121596, Note_off_c, 0, 50, 61
1, 121597, Note_off_c, 0, 57, 63
1, 121602, Note_off_c, 0, 55, 59
1, 121603, Note_off_c, 0, 52, 58
1, 121606, Note_off_c, 0, 59, 60
1, 121608, Note_off_c, 0, 67, 38
1, 121615, Poly_aftertouch_c, 0, 54, 0
1, 121619, Note_on_c, 0, 74, 102
1, 121623, Note_on_c, 0, 76, 90
1, 121623, Note_on_c, 0, 83, 96
1, 121624, Note_on_c, 0, 81, 88
1, 121626, Note_on_c, 0, 79, 85
1, 121669, Note_off_c, 0, 83, 61
1, 121679, Note_off_c, 0, 74, 63
1, 121688, Note_off_c, 0, 81, 61
1, 121689, Note_off_c, 0, 79, 63
1, 121695, Note_on_c, 0, 61, 86
1, 121698, Note_on_c, 0, 72, 92
1, 121699, Note_off_c, 0, 76, 60
1, 121705, Note_on_c, 0, 71, 71
1, 121709, Note_on_c, 0, 66, 70
1, 121709, Note_on_c, 0, 68, 56
1, 121710, Note_off_c, 0, 68, 127
1, 121710, Note_on_c, 0, 69, 68
1, 121711, Note_on_c, 0, 63, 65
1, 121729, Note_off_c, 0, 71, 52
1, 121734, Note_off_c, 0, 66, 66
1, 121735, Note_off_c, 0, 63, 67
1, 121738, Note_off_c, 0, 69, 67
1, 121745, Note_off_c, 0, 72, 52
1, 121755, Note_off_c, 0, 61, 61
1, 121766, Note_on_c, 0, 75, 90
1, 121771, Note_on_c, 0, 82, 86
1, 121776, Note_on_c, 0, 83, 82
1, 121786, Note_off_c, 0, 75, 68
1, 121787, Note_on_c, 0, 72, 91
1, 121788, Note_on_c, 0, 74, 74
1, 121790, Poly_aftertouch_c, 0, 60, 127
1, 121791, Note_on_c, 0, 80, 41
1, 121792, Note_off_c, 0, 80, 127
1, 121793, Note_off_c, 0, 82, 66
1, 121795, Note_on_c, 0, 64, 85
1, 121804, Note_on_c, 0, 66, 76
1, 121814, Note_off_c, 0, 83, 59
1, 121828, Poly_aftertouch_c, 0, 60, 0
1, 121834, Note_on_c, 0, 69, 51
1, 121835, Note_off_c, 0, 74, 61
1, 121839, Note_off_c, 0, 64, 62
1, 121843, Note_off_c, 0, 72, 63
1, 121851, Note_off_c, 0, 69, 65
1, 121852, Note_off_c, 0, 66, 60
1, 121872, Note_on_c, 0, 88, 103
1, 121878, Note_on_c, 0, 95, 98
1, 121880, Note_on_c, 0, 96, 90
1, 121881, Note_on_c, 0, 93, 89
1, 121888, Note_on_c, 0, 89, 74
1, 121901, Note_off_c, 0, 96, 62
1, 121919, Note_off_c, 0, 88, 67
1, 121921, Note_off_c, 0, 95, 63
1, 121927, Note_off_c, 0, 93, 61
1, 121931, Note_on_c, 0, 82, 94
1, 121933, Note_on_c, 0, 72, 72
1, 121933, Note_off_c, 0, 89, 43
1, 121943, Note_on_c, 0, 79, 63
1, 121947, Note_off_c, 0, 72, 72
1, 121951, Note_on_c, 0, 83, 50
1, 121952, Note_off_c, 0, 83, 127
1, 121952, Note_on_c, 0, 81, 47
1, 121953, Note_off_c, 0, 81, 127
1, 121956, Note_on_c, 0, 74, 48
1, 121961, Note_off_c, 0, 79, 65
1, 121962, Poly_aftertouch_c, 0, 91, 127
1, 121967, Note_off_c, 0, 82, 64
1, 121983, Note_off_c, 0, 74, 57
1, 121992, Poly_aftertouch_c, 0, 91, 0
1, 122001, Note_on_c, 0, 94, 93
1, 122004, Note_on_c, 0, 86, 83
1, 122008, Note_on_c, 0, 92, 78
1, 122010, Note_on_c, 0, 95, 81
1, 122017, Note_off_c, 0, 86, 73
1, 122019, Note_on_c, 0, 87, 52
1, 122029, Note_off_c, 0, 92, 68
1, 122029, Note_off_c, 0, 95, 66
1, 122038, Note_on_c, 0, 79, 68
1, 122044, Note_on_c, 0, 85, 73
1, 122045, Note_off_c, 0, 94, 61
1, 122055, Note_on_c, 0, 82, 69
1, 122055, Note_off_c, 0, 79, 69
1, 122065, Note_off_c, 0, 85, 70
1, 122068, Note_off_c, 0, 87, 63
1, 122071, Note_off_c, 0, 82, 70
1, 122077, Poly_aftertouch_c, 0, 88, 127
1, 122102, Note_on_c, 0, 98, 97
1, 122107, Note_on_c, 0, 107, 96
1, 122110, Note_on_c, 0, 105, 80
1, 122110, Note_on_c, 0, 102, 77
1, 122114, Poly_aftertouch_c, 0, 88, 0
1, 122119, Note_on_c, 0, 100, 65
1, 122119, Note_on_c, 0, 103, 66
1, 122120, Note_on_c, 0, 104, 55
1, 122124, Note_off_c, 0, 102, 72
1, 122124, Note_off_c, 0, 107, 72
1, 122125, Note_off_c, 0, 105, 67
1, 122145, Note_off_c, 0, 100, 67
1, 122147, Note_off_c, 0, 103, 67
1, 122150, Note_on_c, 0, 89, 83
1, 122151, Note_off_c, 0, 104, 61
1, 122158, Note_on_c, 0, 87, 72
1, 122161, Note_on_c, 0, 81, 55
1, 122161, Note_off_c, 0, 98, 67
1, 122184, Note_off_c, 0, 81, 58
1, 122185, Note_off_c, 0, 87, 64
1, 122188, Note_off_c, 0, 89, 47
1, 122219, Note_on_c, 0, 100, 84
1, 122222, Note_on_c, 0, 98, 91
1, 122245, Note_on_c, 0, 97, 77
1, 122265, Poly_aftertouch_c, 0, 83, 0
1, 122297, Note_on_c, 0, 96, 77
1, 122302, Note_on_c, 0, 92, 95
1, 122312, Note_on_c, 0, 87, 49
1, 122329, Note_off_c, 0, 97, 56
1, 122331, Note_on_c, 0, 95, 41
1, 122332, Note_off_c, 0, 95, 127
1, 122332, Note_off_c, 0, 100, 63
1, 122334, Note_on_c, 0, 82, 39
1, 122336, Note_off_c, 0, 98, 63
1, 122339, Note_off_c, 0, 87, 62
1, 122343, Note_off_c, 0, 96, 59
1, 122355, Note_on_c, 0, 91, 98
1, 122362, Note_off_c, 0, 82, 57
1, 122381, Note_on_c, 0, 88, 92
1, 122385, Note_off_c, 0, 92, 64
1, 122402, Note_off_c, 0, 91, 67
1, 122419, Note_on_c, 0, 87, 73
1, 122466, Note_on_c, 0, 82, 71
1, 122477, Note_on_c, 0, 85, 70
1, 122485, Note_off_c, 0, 88, 52
1, 122491, Note_on_c, 0, 81, 85
1, 122523, Note_off_c, 0, 87, 62
1, 122536, Note_off_c, 0, 85, 62
1, 122551, Note_on_c, 0, 77, 84
1, 122558, Note_off_c, 0, 82, 65
1, 122566, Note_on_c, 0, 76, 81
1, 122569, Note_on_c, 0, 78, 48
1, 122578, Note_off_c, 0, 81, 63
1, 122592, Note_off_c, 0, 78, 57
1, 122604, Note_on_c, 0, 70, 88
1, 122604, Note_on_c, 0, 73, 68
1, 122662, Note_on_c, 0, 69, 92
1, 122674, Note_off_c, 0, 76, 58
1, 122676, Note_off_c, 0, 77, 57
1, 122688, Note_off_c, 0, 73, 60
1, 122693, Note_off_c, 0, 70, 62
1, 122704, Note_on_c, 0, 64, 92
1, 122721, Note_off_c, 0, 69, 66
1, 122724, Note_on_c, 0, 63, 87
1, 122780, Note_on_c, 0, 61, 74
1, 122798, Note_on_c, 0, 57, 81
1, 122800, Note_on_c, 0, 59, 79
1, 122805, Note_off_c, 0, 64, 56
1, 122848, Note_on_c, 0, 54, 86
1, 122856, Note_off_c, 0, 63, 57
1, 122870, Note_off_c, 0, 61, 59
1, 122876, Note_on_c, 0, 53, 57
1, 122881, Note_on_c, 0, 52, 68
1, 122893, Note_on_c, 0, 50, 78
1, 122903, Note_off_c, 0, 57, 62
1, 122906, Note_off_c, 0, 59, 58
1, 122911, Note_on_c, 0, 47, 77
1, 122912, Note_off_c, 0, 54, 58
1, 122917, Note_on_c, 0, 48, 69
1, 122917, Note_off_c, 0, 53, 64
1, 122918, Note_off_c, 0, 52, 64
1, 122943, Note_off_c, 0, 50, 59
1, 122947, Note_on_c, 0, 45, 93
1, 122977, Note_off_c, 0, 48, 58
1, 122988, Note_off_c, 0, 47, 55
1, 122992, Note_off_c, 0, 45, 61
1, 123060, Note_on_c, 0, 39, 82
1, 123085, Note_on_c, 0, 36, 73
1, 123096, Note_on_c, 0, 41, 37
1, 123107, Note_on_c, 0, 33, 86
1, 123118, Note_on_c, 0, 34, 38
1, 123132, Note_on_c, 0, 40, 42
1, 123138, Note_off_c, 0, 41, 55
1, 123139, Note_on_c, 0, 38, 58
1, 123141, Note_on_c, 0, 35, 65
1, 123157, Note_off_c, 0, 34, 51
1, 123159, Note_off_c, 0, 40, 57
1, 123172, Note_off_c, 0, 35, 52
1, 123174, Note_off_c, 0, 38, 62
1, 123177, Note_off_c, 0, 36, 58
1, 123183, Note_on_c, 0, 21, 110
1, 123187, Control_c, 0, 64, 111
1, 123202, Note_off_c, 0, 39, 31
1, 123202, Control_c, 0, 64, 64
1, 123206, Note_off_c, 0, 33, 62
1, 123216, Control_c, 0, 64, 0
1, 123314, Note_off_c, 0, 21, 62
1, 123427, Note_on_c, 0, 27, 109
1, 123456, Note_on_c, 0, 26, 59
1, 123481, Note_off_c, 0, 27, 61
1, 123490, Note_off_c, 0, 26, 52
1, 123662, Note_on_c, 0, 21, 111
1, 123707, Note_off_c, 0, 21, 62
1, 123765, Note_on_c, 0, 21, 98
1, 123809, Note_off_c, 0, 21, 63
1, 123883, Note_on_c, 0, 27, 93
1, 123913, Note_off_c, 0, 27, 67
1, 123994, Note_on_c, 0, 21, 119
1, 124214, Note_off_c, 0, 21, 61
1, 124344, Note_on_c, 0, 27, 102
1, 124405, Note_off_c, 0, 27, 62
1, 124581, Note_on_c, 0, 21, 107
1, 124627, Note_off_c, 0, 21, 63
1, 124692, Note_on_c, 0, 21, 96
1, 124736, Note_off_c, 0, 21, 63
1, 124809, Note_on_c, 0, 27, 94
1, 124837, Note_off_c, 0, 27, 68
1, 124915, Note_on_c, 0, 21, 124
1, 125107, Note_off_c, 0, 21, 64
1, 125252, Note_on_c, 0, 27, 88
1, 125292, Note_off_c, 0, 27, 62
1, 125477, Note_on_c, 0, 21, 83
1, 125511, Note_off_c, 0, 21, 54
1, 125579, Note_on_c, 0, 21, 62
1, 125611, Note_off_c, 0, 21, 64
1, 125684, Note_on_c, 0, 27, 73
1, 125719, Note_off_c, 0, 27, 65
1, 125835, Note_on_c, 0, 21, 86
1, 126038, Note_off_c, 0, 21, 63
1, 126178, Note_on_c, 0, 27, 85
1, 126223, Note_off_c, 0, 27, 59
1, 126402, Note_on_c, 0, 21, 86
1, 126463, Note_off_c, 0, 21, 63
1, 126503, Note_on_c, 0, 21, 56
1, 126598, Note_off_c, 0, 21, 61
1, 126635, Note_on_c, 0, 27, 79
1, 126682, Note_off_c, 0, 27, 61
1, 126719, Note_on_c, 0, 21, 90
1, 126823, Note_on_c, 0, 45, 110
1, 126858, Note_off_c, 0, 21, 61
1, 126859, Note_off_c, 0, 45, 63
1, 126922, Note_on_c, 0, 45, 98
1, 126962, Note_off_c, 0, 45, 57
1, 127031, Note_on_c, 0, 43, 102
1, 127069, Note_off_c, 0, 43, 60
1, 127133, Note_on_c, 0, 40, 103
1, 127236, Note_on_c, 0, 27, 93
1, 127264, Note_off_c, 0, 40, 61
1, 127338, Note_on_c, 0, 39, 105
1, 127360, Note_off_c, 0, 27, 59
1, 127442, Note_on_c, 0, 28, 85
1, 127487, Note_off_c, 0, 39, 64
1, 127539, Note_off_c, 0, 28, 60
1, 127541, Note_on_c, 0, 37, 106
1, 127644, Note_on_c, 0, 27, 85
1, 127655, Note_off_c, 0, 37, 60
1, 127733, Note_off_c, 0, 27, 62
1, 127742, Note_on_c, 0, 36, 86
1, 127749, Note_on_c, 0, 28, 76
1, 127774, Note_off_c, 0, 36, 66
1, 127833, Note_on_c, 0, 21, 83
1, 127842, Note_off_c, 0, 28, 62
1, 127857, Note_on_c, 0, 33, 100
1, 127887, Note_off_c, 0, 21, 64
1, 127937, Note_off_c, 0, 33, 61
1, 127951, Note_on_c, 0, 21, 102
1, 128051, Note_on_c, 0, 31, 115
1, 128084, Note_off_c, 0, 31, 67
1, 128141, Note_off_c, 0, 21, 63
1, 128175, Note_on_c, 0, 33, 86
1, 128211, Note_off_c, 0, 33, 65
1, 128283, Note_on_c, 0, 31, 94
1, 128317, Note_off_c, 0, 31, 68
1, 128373, Note_on_c, 0, 33, 105
1, 128470, Note_on_c, 0, 27, 98
1, 128471, Note_off_c, 0, 33, 64
1, 128572, Note_on_c, 0, 39, 111
1, 128602, Note_off_c, 0, 27, 62
1, 128674, Note_on_c, 0, 28, 93
1, 128707, Note_off_c, 0, 39, 64
1, 128766, Note_on_c, 0, 37, 112
1, 128781, Note_off_c, 0, 28, 59
1, 128858, Note_on_c, 0, 27, 90
1, 128900, Note_off_c, 0, 37, 59
1, 128979, Note_on_c, 0, 28, 77
1, 128979, Note_off_c, 0, 27, 63
1, 128981, Note_on_c, 0, 36, 85
1, 129012, Note_off_c, 0, 36, 65
1, 129056, Note_on_c, 0, 21, 77
1, 129071, Note_off_c, 0, 28, 63
1, 129087, Note_on_c, 0, 33, 99
1, 129115, Note_off_c, 0, 21, 65
1, 129142, Note_on_c, 0, 35, 12
1, 129143, Note_off_c, 0, 35, 127
1, 129155, Note_off_c, 0, 33, 58
1, 129177, Note_on_c, 0, 21, 103
1, 129223, Note_on_c, 0, 26, 34
1, 129224, Note_off_c, 0, 26, 127
1, 129267, Note_on_c, 0, 31, 108
1, 129303, Note_off_c, 0, 31, 67
1, 129374, Note_off_c, 0, 21, 62
1, 129379, Note_on_c, 0, 33, 90
1, 129420, Note_off_c, 0, 33, 59
1, 129487, Note_on_c, 0, 31, 90
1, 129520, Note_off_c, 0, 31, 68
1, 129586, Note_on_c, 0, 33, 100
1, 129684, Note_off_c, 0, 33, 62
1, 129690, Note_on_c, 0, 27, 97
1, 129789, Note_on_c, 0, 39, 110
1, 129821, Note_off_c, 0, 27, 65
1, 129889, Note_on_c, 0, 28, 97
1, 129920, Note_off_c, 0, 39, 64
1, 129979, Note_on_c, 0, 37, 106
1, 129994, Note_off_c, 0, 28, 60
1, 130075, Note_on_c, 0, 27, 95
1, 130091, Note_off_c, 0, 37, 60
1, 130171, Note_on_c, 0, 36, 96
1, 130192, Note_off_c, 0, 27, 62
1, 130202, Note_off_c, 0, 36, 65
1, 130262, Note_on_c, 0, 33, 93
1, 130264, Note_on_c, 0, 25, 93
1, 130269, Note_on_c, 0, 35, 82
1, 130288, Note_off_c, 0, 33, 67
1, 130295, Note_off_c, 0, 35, 64
1, 130353, Note_off_c, 0, 25, 60
1, 130363, Note_on_c, 0, 39, 111
1, 130414, Note_on_c, 0, 40, 37
1, 130449, Note_off_c, 0, 40, 44
1, 130468, Note_on_c, 0, 27, 98
1, 130504, Note_off_c, 0, 39, 63
1, 130575, Note_on_c, 0, 37, 107
1, 130578, Note_off_c, 0, 27, 60
1, 130663, Note_on_c, 0, 28, 96
1, 130670, Note_off_c, 0, 37, 59
1, 130763, Note_on_c, 0, 36, 105
1, 130787, Note_off_c, 0, 28, 61
1, 130811, Note_off_c, 0, 36, 62
1, 130893, Note_on_c, 0, 21, 105
1, 130918, Note_on_c, 0, 24, 52
1, 130961, Note_off_c, 0, 24, 41
1, 131034, Note_on_c, 0, 57, 95
1, 131056, Note_off_c, 0, 21, 64
1, 131081, Note_off_c, 0, 57, 65
1, 131192, Note_on_c, 0, 55, 93
1, 131241, Note_off_c, 0, 55, 62
1, 131325, Note_on_c, 0, 27, 107
1, 131330, Note_on_c, 0, 52, 118
1, 131363, Note_off_c, 0, 52, 67
1, 131366, Note_on_c, 0, 55, 44
1, 131367, Note_off_c, 0, 55, 127
1, 131379, Note_on_c, 0, 53, 29
1, 131380, Note_off_c, 0, 53, 127
1, 131381, Note_off_c, 0, 27, 63
1, 131419, Poly_aftertouch_c, 0, 53, 0
1, 131488, Note_on_c, 0, 51, 85
1, 131545, Note_off_c, 0, 51, 59
1, 131598, Note_on_c, 0, 49, 89
1, 131647, Note_off_c, 0, 49, 62
1, 131729, Note_on_c, 0, 28, 107
1, 131730, Note_on_c, 0, 48, 106
1, 131768, Note_off_c, 0, 48, 69
1, 131771, Note_on_c, 0, 24, 40
1, 131772, Note_off_c, 0, 24, 127
1, 131774, Note_off_c, 0, 28, 65
1, 131814, Poly_aftertouch_c, 0, 24, 0
1, 131893, Note_on_c, 0, 45, 82
1, 131944, Note_off_c, 0, 45, 58
1, 132002, Note_on_c, 0, 43, 92
1, 132048, Note_off_c, 0, 43, 63
1, 132109, Note_on_c, 0, 27, 97
1, 132112, Note_on_c, 0, 45, 101
1, 132162, Note_off_c, 0, 27, 63
1, 132162, Note_off_c, 0, 45, 60
1, 132329, Note_on_c, 0, 21, 111
1, 132372, Note_on_c, 0, 24, 34
1, 132373, Note_off_c, 0, 24, 127
1, 132529, Note_on_c, 0, 43, 106
1, 132564, Note_off_c, 0, 43, 67
1, 132599, Note_off_c, 0, 21, 62
1, 132655, Note_on_c, 0, 45, 91
1, 132689, Note_off_c, 0, 45, 62
1, 132761, Note_on_c, 0, 43, 98
1, 132799, Note_off_c, 0, 43, 60
1, 132863, Note_on_c, 0, 45, 116
1, 132958, Note_on_c, 0, 27, 98
1, 132967, Note_off_c, 0, 45, 59
1, 133052, Note_on_c, 0, 51, 111
1, 133079, Note_off_c, 0, 27, 64
1, 133162, Note_on_c, 0, 28, 91
1, 133183, Note_off_c, 0, 51, 61
1, 133240, Note_on_c, 0, 49, 108
1, 133265, Note_off_c, 0, 28, 58
1, 133347, Note_on_c, 0, 27, 90
1, 133356, Note_off_c, 0, 49, 60
1, 133443, Note_on_c, 0, 48, 85
1, 133458, Note_off_c, 0, 27, 55
1, 133470, Note_on_c, 0, 28, 85
1, 133476, Note_off_c, 0, 48, 66
1, 133539, Note_on_c, 0, 21, 78
1, 133557, Note_on_c, 0, 45, 103
1, 133559, Note_off_c, 0, 28, 63
1, 133598, Note_off_c, 0, 21, 64
1, 133613, Note_off_c, 0, 45, 56
1, 133666, Note_on_c, 0, 21, 99
1, 133753, Note_on_c, 0, 43, 118
1, 133789, Note_off_c, 0, 43, 66
1, 133865, Note_on_c, 0, 45, 98
1, 133868, Note_off_c, 0, 21, 62
1, 133911, Note_off_c, 0, 45, 57
1, 133968, Note_on_c, 0, 43, 92
1, 133996, Note_off_c, 0, 43, 65
1, 134066, Note_on_c, 0, 45, 109
1, 134176, Note_on_c, 0, 27, 96
1, 134178, Note_off_c, 0, 45, 60
1, 134272, Note_on_c, 0, 51, 104
1, 134304, Note_off_c, 0, 27, 61
1, 134375, Note_on_c, 0, 28, 97
1, 134402, Note_off_c, 0, 51, 61
1, 134465, Note_on_c, 0, 49, 113
1, 134479, Note_off_c, 0, 28, 61
1, 134560, Note_on_c, 0, 27, 92
1, 134573, Note_off_c, 0, 49, 62
1, 134656, Note_on_c, 0, 48, 89
1, 134663, Note_off_c, 0, 27, 61
1, 134688, Note_off_c, 0, 48, 66
1, 134748, Note_on_c, 0, 45, 107
1, 134752, Note_on_c, 0, 25, 93
1, 134778, Note_off_c, 0, 45, 64
1, 134824, Note_off_c, 0, 25, 61
1, 134848, Note_on_c, 0, 51, 111
1, 134960, Note_on_c, 0, 27, 95
1, 134990, Note_on_c, 0, 26, 60
1, 135008, Note_off_c, 0, 51, 61
1, 135028, Note_off_c, 0, 26, 49
1, 135060, Note_off_c, 0, 27, 57
1, 135076, Note_on_c, 0, 49, 107
1, 135166, Note_on_c, 0, 28, 89
1, 135182, Note_off_c, 0, 49, 60
1, 135261, Note_on_c, 0, 48, 86
1, 135262, Note_off_c, 0, 28, 60
1, 135313, Note_off_c, 0, 48, 64
1, 135363, Note_on_c, 0, 21, 88
1, 135389, Control_c, 0, 64, 62
1, 135404, Control_c, 0, 64, 76
1, 135419, Control_c, 0, 64, 92
1, 135434, Control_c, 0, 64, 127
1, 135456, Note_on_c, 0, 45, 83
1, 135457, Note_off_c, 0, 21, 60
1, 135556, Note_on_c, 0, 43, 87
1, 135604, Note_off_c, 0, 43, 65
1, 135605, Note_off_c, 0, 45, 54
1, 135664, Note_on_c, 0, 57, 90
1, 135767, Note_on_c, 0, 55, 91
1, 135798, Note_off_c, 0, 57, 63
1, 135854, Note_on_c, 0, 69, 98
1, 135881, Note_off_c, 0, 55, 60
1, 135949, Note_on_c, 0, 67, 100
1, 136000, Note_off_c, 0, 69, 61
1, 136001, Note_off_c, 0, 67, 69
1, 136054, Note_on_c, 0, 81, 100
1, 136154, Note_on_c, 0, 79, 90
1, 136191, Note_off_c, 0, 81, 62
1, 136230, Note_off_c, 0, 79, 65
1, 136258, Note_on_c, 0, 93, 103
1, 136348, Note_off_c, 0, 93, 58
1, 136406, Note_on_c, 0, 91, 94
1, 136466, Note_off_c, 0, 91, 64
1, 136516, Control_c, 0, 64, 79
1, 136530, Control_c, 0, 64, 31
1, 136546, Control_c, 0, 64, 0
1, 136558, Note_on_c, 0, 52, 81
1, 136559, Note_on_c, 0, 61, 94
1, 136561, Note_on_c, 0, 54, 88
1, 136561, Control_c, 0, 64, 29
1, 136561, Note_on_c, 0, 81, 97
1, 136561, Note_on_c, 0, 88, 103
1, 136576, Control_c, 0, 64, 56
1, 136591, Control_c, 0, 64, 68
1, 136603, Note_off_c, 0, 88, 65
1, 136605, Note_off_c, 0, 81, 64
1, 136606, Control_c, 0, 64, 80
1, 136606, Note_on_c, 0, 60, 29
1, 136607, Note_off_c, 0, 60, 127
1, 136612, Note_off_c, 0, 52, 61
1, 136620, Control_c, 0, 64, 127
1, 136632, Note_off_c, 0, 61, 55
1, 136639, Note_off_c, 0, 54, 60
1, 136641, Poly_aftertouch_c, 0, 60, 0
1, 136704, Note_on_c, 0, 87, 98
1, 136710, Note_on_c, 0, 79, 82
1, 136733, Note_off_c, 0, 79, 67
1, 136750, Note_off_c, 0, 87, 62
1, 136826, Note_on_c, 0, 69, 102
1, 136829, Note_on_c, 0, 76, 99
1, 136830, Note_on_c, 0, 85, 97
1, 136870, Note_off_c, 0, 76, 65
1, 136874, Note_off_c, 0, 85, 64
1, 136876, Note_off_c, 0, 69, 64
1, 136961, Note_on_c, 0, 75, 95
1, 136962, Note_on_c, 0, 67, 99
1, 136964, Note_on_c, 0, 84, 93
1, 136991, Note_off_c, 0, 84, 58
1, 136991, Control_c, 0, 64, 85
1, 136999, Note_off_c, 0, 75, 64
1, 137000, Note_off_c, 0, 67, 64
1, 137006, Control_c, 0, 64, 61
1, 137011, Note_on_c, 0, 83, 19
1, 137012, Note_off_c, 0, 83, 127
1, 137020, Control_c, 0, 64, 25
1, 137035, Control_c, 0, 64, 0
1, 137078, Note_on_c, 0, 81, 96
1, 137081, Note_on_c, 0, 73, 96
1, 137087, Note_on_c, 0, 57, 83
1, 137088, Note_on_c, 0, 64, 82
1, 137103, Note_on_c, 0, 65, 54
1, 137104, Note_off_c, 0, 65, 127
1, 137110, Note_off_c, 0, 81, 64
1, 137121, Note_off_c, 0, 73, 64
1, 137124, Note_off_c, 0, 64, 62
1, 137129, Note_off_c, 0, 57, 64
1, 137197, Note_on_c, 0, 79, 88
1, 137200, Note_on_c, 0, 70, 91
1, 137205, Note_on_c, 0, 63, 95
1, 137206, Note_on_c, 0, 55, 80
1, 137231, Note_off_c, 0, 79, 62
1, 137243, Note_off_c, 0, 63, 59
1, 137244, Note_off_c, 0, 55, 57
1, 137258, Note_off_c, 0, 70, 56
1, 137322, Note_on_c, 0, 76, 99
1, 137325, Note_on_c, 0, 52, 88
1, 137325, Note_on_c, 0, 61, 87
1, 137325, Note_on_c, 0, 69, 97
1, 137355, Note_off_c, 0, 69, 67
1, 137357, Note_off_c, 0, 76, 64
1, 137363, Note_off_c, 0, 52, 61
1, 137376, Note_off_c, 0, 61, 60
1, 137437, Note_on_c, 0, 51, 86
1, 137440, Note_on_c, 0, 60, 85
1, 137441, Note_on_c, 0, 75, 93
1, 137444, Note_on_c, 0, 67, 84
1, 137463, Note_off_c, 0, 60, 62
1, 137466, Note_off_c, 0, 67, 68
1, 137470, Note_off_c, 0, 75, 56
1, 137493, Note_off_c, 0, 51, 58
1, 137551, Note_on_c, 0, 64, 91
1, 137554, Note_on_c, 0, 73, 97
1, 137564, Note_on_c, 0, 57, 84
1, 137571, Note_on_c, 0, 49, 76
1, 137586, Note_off_c, 0, 64, 63
1, 137586, Note_off_c, 0, 73, 63
1, 137593, Note_off_c, 0, 57, 61
1, 137596, Note_off_c, 0, 49, 67
1, 137667, Note_on_c, 0, 63, 93
1, 137670, Note_on_c, 0, 72, 84
1, 137679, Note_on_c, 0, 46, 85
1, 137682, Note_on_c, 0, 71, 71
1, 137682, Note_on_c, 0, 53, 72
1, 137691, Note_on_c, 0, 54, 60
1, 137691, Note_off_c, 0, 72, 68
1, 137699, Note_off_c, 0, 63, 63
1, 137699, Note_off_c, 0, 71, 65
1, 137700, Note_off_c, 0, 46, 66
1, 137704, Note_off_c, 0, 53, 64
1, 137715, Note_off_c, 0, 54, 38
1, 137793, Note_on_c, 0, 68, 72
1, 137796, Note_on_c, 0, 61, 63
1, 137799, Note_on_c, 0, 69, 55
1, 137800, Note_on_c, 0, 45, 80
1, 137801, Note_on_c, 0, 52, 79
1, 137817, Note_off_c, 0, 61, 63
1, 137817, Note_off_c, 0, 68, 66
1, 137822, Note_off_c, 0, 69, 60
1, 137831, Note_off_c, 0, 52, 62
1, 137852, Note_off_c, 0, 45, 49
1, 137890, Note_on_c, 0, 58, 92
1, 137898, Note_on_c, 0, 67, 82
1, 137899, Note_on_c, 0, 51, 85
1, 137905, Note_on_c, 0, 46, 73
1, 137940, Note_off_c, 0, 46, 59
1, 137943, Note_off_c, 0, 58, 61
1, 137944, Note_off_c, 0, 51, 58
1, 137968, Note_off_c, 0, 67, 49
1, 138020, Note_on_c, 0, 69, 93
1, 138021, Note_on_c, 0, 61, 96
1, 138022, Note_on_c, 0, 52, 101
1, 138026, Note_on_c, 0, 45, 87
1, 138029, Control_c, 0, 64, 39
1, 138043, Note_on_c, 0, 50, 63
1, 138043, Control_c, 0, 64, 85
1, 138054, Note_off_c, 0, 50, 48
1, 138058, Control_c, 0, 64, 127
1, 138077, Note_on_c, 0, 66, 9
1, 138126, Note_off_c, 0, 66, 36
1, 138157, Note_off_c, 0, 52, 53
1, 138197, Note_off_c, 0, 69, 61
1, 138200, Note_off_c, 0, 61, 56
1, 138204, Note_off_c, 0, 45, 37
1, 138222, Control_c, 0, 64, 72
1, 138237, Control_c, 0, 64, 0
1, 138426, Note_on_c, 0, 51, 93
1, 138431, Note_on_c, 0, 58, 99
1, 138433, Note_on_c, 0, 46, 87
1, 138433, Note_on_c, 0, 67, 92
1, 138474, Note_on_c, 0, 66, 32
1, 138475, Note_off_c, 0, 66, 127
1, 138475, Note_off_c, 0, 58, 63
1, 138478, Note_off_c, 0, 51, 63
1, 138484, Note_off_c, 0, 67, 60
1, 138489, Note_off_c, 0, 46, 60
1, 138543, Note_on_c, 0, 45, 89
1, 138543, Note_on_c, 0, 61, 89
1, 138544, Note_on_c, 0, 52, 89
1, 138553, Note_on_c, 0, 69, 74
1, 138582, Note_off_c, 0, 69, 61
1, 138587, Note_off_c, 0, 52, 59
1, 138591, Note_off_c, 0, 61, 62
1, 138599, Note_off_c, 0, 45, 59
1, 138637, Note_on_c, 0, 67, 61
1, 138639, Note_on_c, 0, 51, 88
1, 138642, Note_on_c, 0, 58, 91
1, 138680, Note_off_c, 0, 67, 61
1, 138680, Note_off_c, 0, 58, 58
1, 138695, Note_off_c, 0, 51, 61
1, 138740, Note_on_c, 0, 52, 111
1, 138740, Note_on_c, 0, 61, 86
1, 138745, Note_on_c, 0, 69, 86
1, 138749, Note_on_c, 0, 45, 83
1, 138790, Note_on_c, 0, 68, 12
1, 138834, Note_off_c, 0, 61, 62
1, 138834, Note_off_c, 0, 68, 29
1, 138868, Note_off_c, 0, 69, 64
1, 138871, Note_off_c, 0, 52, 53
1, 138896, Note_off_c, 0, 45, 50
1, 138958, Note_on_c, 0, 67, 95
1, 138962, Note_on_c, 0, 51, 89
1, 138967, Note_on_c, 0, 46, 83
1, 138967, Note_on_c, 0, 75, 77
1, 138984, Note_off_c, 0, 75, 66
1, 138986, Note_on_c, 0, 74, 75
1, 139066, Note_off_c, 0, 74, 62
1, 139083, Note_off_c, 0, 67, 62
1, 139093, Note_off_c, 0, 46, 58
1, 139106, Note_off_c, 0, 51, 58
1, 139161, Note_on_c, 0, 73, 97
1, 139163, Note_on_c, 0, 52, 94
1, 139163, Note_on_c, 0, 64, 92
1, 139164, Note_on_c, 0, 45, 84
1, 139271, Note_off_c, 0, 64, 60
1, 139273, Note_off_c, 0, 52, 55
1, 139281, Note_off_c, 0, 73, 59
1, 139300, Note_off_c, 0, 45, 56
1, 139372, Note_on_c, 0, 51, 87
1, 139378, Note_on_c, 0, 63, 94
1, 139384, Note_on_c, 0, 72, 79
1, 139385, Note_on_c, 0, 46, 72
1, 139404, Note_off_c, 0, 63, 65
1, 139405, Note_off_c, 0, 72, 70
1, 139417, Note_off_c, 0, 46, 61
1, 139421, Note_off_c, 0, 51, 57
1, 139462, Note_on_c, 0, 61, 98
1, 139463, Note_on_c, 0, 69, 100
1, 139468, Note_on_c, 0, 52, 101
1, 139470, Note_on_c, 0, 45, 83
1, 139572, Note_off_c, 0, 52, 55
1, 139579, Note_off_c, 0, 69, 56
1, 139598, Note_off_c, 0, 45, 53
1, 139607, Note_off_c, 0, 61, 58
1, 139691, Note_on_c, 0, 51, 86
1, 139696, Note_on_c, 0, 46, 78
1, 139696, Note_on_c, 0, 58, 86
1, 139698, Note_on_c, 0, 67, 84
1, 139719, Note_off_c, 0, 58, 65
1, 139730, Note_off_c, 0, 67, 62
1, 139732, Note_off_c, 0, 46, 62
1, 139742, Note_off_c, 0, 51, 58
1, 139787, Note_on_c, 0, 61, 88
1, 139796, Note_on_c, 0, 52, 91
1, 139800, Note_on_c, 0, 45, 81
1, 139803, Note_on_c, 0, 69, 65
1, 139829, Note_off_c, 0, 69, 64
1, 139834, Note_off_c, 0, 61, 62
1, 139836, Note_off_c, 0, 52, 60
1, 139846, Note_off_c, 0, 45, 57
1, 139879, Note_on_c, 0, 67, 74
1, 139880, Note_on_c, 0, 58, 85
1, 139885, Note_on_c, 0, 51, 80
1, 139913, Note_off_c, 0, 67, 64
1, 139917, Note_off_c, 0, 58, 57
1, 139921, Note_on_c, 0, 46, 22
1, 139932, Note_off_c, 0, 51, 58
1, 139964, Note_off_c, 0, 46, 40
1, 139979, Note_on_c, 0, 61, 83
1, 139985, Note_on_c, 0, 52, 96
1, 139985, Note_on_c, 0, 69, 86
1, 139990, Note_on_c, 0, 45, 79
1, 140070, Note_off_c, 0, 61, 60
1, 140087, Note_off_c, 0, 69, 64
1, 140102, Note_off_c, 0, 52, 56
1, 140135, Note_off_c, 0, 45, 56
1, 140192, Note_on_c, 0, 67, 92
1, 140195, Note_on_c, 0, 75, 93
1, 140197, Note_on_c, 0, 51, 85
1, 140204, Note_on_c, 0, 46, 79
1, 140311, Note_off_c, 0, 46, 56
1, 140314, Note_off_c, 0, 75, 60
1, 140315, Note_off_c, 0, 67, 62
1, 140335, Note_off_c, 0, 51, 58
1, 140398, Note_on_c, 0, 73, 98
1, 140400, Note_on_c, 0, 45, 81
1, 140401, Note_on_c, 0, 52, 91
1, 140401, Note_on_c, 0, 64, 91
1, 140511, Note_off_c, 0, 52, 54
1, 140512, Note_off_c, 0, 64, 60
1, 140519, Note_off_c, 0, 73, 60
1, 140533, Note_off_c, 0, 45, 56
1, 140592, Note_on_c, 0, 51, 88
1, 140597, Note_on_c, 0, 63, 87
1, 140599, Note_on_c, 0, 72, 83
1, 140602, Note_on_c, 0, 46, 77
1, 140618, Note_off_c, 0, 72, 72
1, 140627, Note_off_c, 0, 63, 65
1, 140649, Note_off_c, 0, 46, 54
1, 140650, Note_off_c, 0, 51, 61
1, 140694, Note_on_c, 0, 69, 85
1, 140698, Note_on_c, 0, 52, 90
1, 140702, Note_on_c, 0, 60, 71
1, 140704, Note_on_c, 0, 45, 83
1, 140721, Note_off_c, 0, 60, 63
1, 140729, Note_off_c, 0, 69, 65
1, 140749, Note_off_c, 0, 52, 62
1, 140760, Note_off_c, 0, 45, 61
1, 140809, Note_on_c, 0, 51, 94
1, 140813, Note_on_c, 0, 67, 93
1, 140814, Note_on_c, 0, 75, 93
1, 140815, Note_on_c, 0, 46, 85
1, 140842, Note_on_c, 0, 73, 50
1, 140868, Note_on_c, 0, 49, 29
1, 140871, Note_off_c, 0, 73, 39
1, 140904, Note_off_c, 0, 49, 48
1, 140959, Note_off_c, 0, 75, 59
1, 140960, Note_off_c, 0, 67, 60
1, 140969, Note_off_c, 0, 46, 56
1, 140983, Note_off_c, 0, 51, 58
1, 141037, Note_on_c, 0, 52, 87
1, 141038, Note_on_c, 0, 45, 79
1, 141041, Note_on_c, 0, 64, 92
1, 141041, Note_on_c, 0, 73, 93
1, 141125, Note_off_c, 0, 52, 51
1, 141144, Note_off_c, 0, 45, 54
1, 141148, Note_off_c, 0, 73, 60
1, 141149, Note_off_c, 0, 64, 57
1, 141220, Note_on_c, 0, 51, 80
1, 141238, Note_on_c, 0, 46, 61
1, 141238, Note_on_c, 0, 63, 77
1, 141238, Note_on_c, 0, 72, 71
1, 141260, Note_off_c, 0, 63, 69
1, 141260, Note_off_c, 0, 72, 67
1, 141277, Note_off_c, 0, 46, 59
1, 141292, Note_off_c, 0, 51, 59
1, 141335, Control_c, 0, 67, 37
1, 141337, Note_on_c, 0, 45, 85
1, 141339, Note_on_c, 0, 52, 72
1, 141350, Control_c, 0, 67, 74
1, 141352, Note_on_c, 0, 69, 47
1, 141365, Control_c, 0, 67, 121
1, 141366, Note_off_c, 0, 52, 61
1, 141372, Note_on_c, 0, 59, 25
1, 141375, Note_off_c, 0, 45, 60
1, 141377, Note_off_c, 0, 69, 57
1, 141380, Control_c, 0, 67, 127
1, 141381, Note_on_c, 0, 60, 10
1, 141382, Note_off_c, 0, 60, 127
1, 141411, Note_off_c, 0, 59, 32
1, 141476, Note_on_c, 0, 55, 60
1, 141512, Note_on_c, 0, 63, 21
1, 141517, Note_on_c, 0, 38, 36
1, 141536, Note_off_c, 0, 55, 0
1, 141536, Note_on_c, 0, 55, 28
1, 141554, Poly_aftertouch_c, 0, 34, 127
1, 141566, Note_off_c, 0, 38, 42
1, 141620, Note_off_c, 0, 55, 54
1, 141627, Note_off_c, 0, 63, 43
1, 141638, Poly_aftertouch_c, 0, 34, 0
1, 141735, Note_on_c, 0, 57, 64
1, 141748, Note_on_c, 0, 33, 53
1, 141749, Note_on_c, 0, 49, 59
1, 141751, Note_on_c, 0, 40, 50
1, 141830, Note_off_c, 0, 49, 57
1, 141872, Note_off_c, 0, 40, 56
1, 141877, Note_off_c, 0, 33, 50
1, 141895, Note_off_c, 0, 57, 54
1, 141962, Note_on_c, 0, 55, 61
1, 141965, Note_on_c, 0, 39, 61
1, 141965, Note_on_c, 0, 63, 60
1, 141980, Note_on_c, 0, 34, 42
1, 141993, Note_off_c, 0, 55, 64
1, 141997, Note_off_c, 0, 63, 64
1, 142001, Note_off_c, 0, 39, 64
1, 142014, Note_off_c, 0, 34, 46
1, 142061, Note_on_c, 0, 40, 68
1, 142067, Note_on_c, 0, 49, 61
1, 142067, Note_on_c, 0, 57, 55
1, 142069, Note_on_c, 0, 33, 60
1, 142091, Note_off_c, 0, 40, 63
1, 142095, Note_off_c, 0, 49, 62
1, 142099, Note_off_c, 0, 57, 65
1, 142101, Note_off_c, 0, 33, 62
1, 142152, Note_on_c, 0, 39, 60
1, 142154, Note_on_c, 0, 55, 71
1, 142160, Note_on_c, 0, 34, 40
1, 142164, Note_on_c, 0, 63, 64
1, 142185, Note_off_c, 0, 39, 65
1, 142189, Note_off_c, 0, 55, 60
1, 142197, Note_off_c, 0, 63, 63
1, 142199, Note_off_c, 0, 34, 39
1, 142247, Note_on_c, 0, 40, 64
1, 142253, Note_on_c, 0, 33, 65
1, 142263, Note_on_c, 0, 57, 59
1, 142272, Note_on_c, 0, 49, 50
1, 142276, Note_off_c, 0, 40, 63
1, 142286, Note_off_c, 0, 33, 63
1, 142294, Note_off_c, 0, 57, 65
1, 142297, Note_off_c, 0, 49, 59
1, 142359, Note_on_c, 0, 39, 64
1, 142375, Note_on_c, 0, 34, 44
1, 142380, Note_on_c, 0, 63, 66
1, 142386, Note_on_c, 0, 55, 47
1, 142495, Note_off_c, 0, 63, 57
1, 142500, Note_off_c, 0, 34, 56
1, 142519, Note_off_c, 0, 39, 59
1, 142537, Note_off_c, 0, 55, 56
1, 142598, Note_on_c, 0, 49, 66
1, 142606, Note_on_c, 0, 57, 52
1, 142610, Note_on_c, 0, 33, 54
1, 142619, Note_on_c, 0, 40, 44
1, 142720, Note_off_c, 0, 49, 59
1, 142734, Note_off_c, 0, 33, 48
1, 142739, Note_off_c, 0, 40, 46
1, 142743, Note_off_c, 0, 57, 59
1, 142819, Note_on_c, 0, 55, 57
1, 142820, Note_on_c, 0, 63, 63
1, 142828, Note_on_c, 0, 39, 59
1, 142836, Note_on_c, 0, 34, 48
1, 142865, Note_off_c, 0, 39, 64
1, 142866, Note_off_c, 0, 34, 60
1, 142875, Note_off_c, 0, 55, 51
1, 142876, Note_off_c, 0, 63, 50
1, 142921, Note_on_c, 0, 40, 69
1, 142939, Note_on_c, 0, 33, 60
1, 142946, Note_on_c, 0, 49, 54
1, 142956, Note_off_c, 0, 40, 65
1, 142967, Note_off_c, 0, 33, 59
1, 142971, Note_off_c, 0, 49, 60
1, 142982, Note_on_c, 0, 57, 8
1, 143021, Note_on_c, 0, 39, 76
1, 143040, Control_c, 0, 67, 117
1, 143050, Note_off_c, 0, 57, 40
1, 143054, Control_c, 0, 67, 87
1, 143069, Control_c, 0, 67, 55
1, 143106, Control_c, 0, 67, 0
1, 143111, Poly_aftertouch_c, 0, 55, 127
1, 143122, Note_off_c, 0, 39, 59
1, 143125, Note_on_c, 0, 49, 51
1, 143129, Note_on_c, 0, 40, 79
1, 143130, Note_on_c, 0, 33, 70
1, 143136, Control_c, 0, 64, 27
1, 143146, Poly_aftertouch_c, 0, 55, 0
1, 143151, Control_c, 0, 64, 58
1, 143154, Note_off_c, 0, 49, 56
1, 143157, Note_off_c, 0, 33, 64
1, 143161, Note_off_c, 0, 40, 64
1, 143166, Control_c, 0, 64, 67
1, 143180, Control_c, 0, 64, 75
1, 143195, Control_c, 0, 64, 86
1, 143210, Control_c, 0, 64, 97
1, 143225, Control_c, 0, 64, 103
1, 143240, Control_c, 0, 64, 107
1, 143254, Control_c, 0, 64, 113
1, 143269, Control_c, 0, 64, 122
1, 143274, Note_on_c, 0, 51, 76
1, 143284, Control_c, 0, 64, 127
1, 143292, Note_on_c, 0, 46, 50
1, 143296, Note_on_c, 0, 49, 41
1, 143297, Note_on_c, 0, 75, 27
1, 143322, Note_off_c, 0, 46, 54
1, 143333, Note_on_c, 0, 61, 90
1, 143333, Note_off_c, 0, 49, 51
1, 143334, Note_off_c, 0, 75, 49
1, 143339, Note_on_c, 0, 52, 67
1, 143343, Note_on_c, 0, 47, 81
1, 143356, Note_on_c, 0, 67, 5
1, 143364, Note_off_c, 0, 51, 55
1, 143366, Note_off_c, 0, 61, 62
1, 143381, Note_on_c, 0, 45, 41
1, 143384, Note_off_c, 0, 47, 62
1, 143394, Note_off_c, 0, 52, 60
1, 143408, Note_off_c, 0, 67, 34
1, 143413, Note_off_c, 0, 45, 56
1, 143563, Poly_aftertouch_c, 0, 87, 127
1, 143575, Note_on_c, 0, 63, 36
1, 143589, Poly_aftertouch_c, 0, 87, 0
1, 143592, Poly_aftertouch_c, 0, 61, 127
1, 143612, Note_on_c, 0, 81, 74
1, 143623, Note_on_c, 0, 64, 92
1, 143625, Note_on_c, 0, 57, 88
1, 143628, Note_on_c, 0, 73, 96
1, 143635, Poly_aftertouch_c, 0, 61, 0
1, 143659, Note_off_c, 0, 63, 57
1, 143669, Note_off_c, 0, 57, 65
1, 143672, Note_off_c, 0, 73, 65
1, 143677, Note_off_c, 0, 64, 64
1, 143679, Note_off_c, 0, 81, 64
1, 143737, Poly_aftertouch_c, 0, 79, 0
1, 143817, Note_on_c, 0, 91, 41
1, 143847, Note_off_c, 0, 91, 55
1, 143891, Poly_aftertouch_c, 0, 70, 0
1, 143905, Note_on_c, 0, 70, 30
1, 143908, Note_on_c, 0, 75, 92
1, 143915, Note_on_c, 0, 93, 91
1, 143916, Note_on_c, 0, 94, 49
1, 143917, Note_off_c, 0, 94, 127
1, 143931, Note_on_c, 0, 73, 66
1, 143942, Note_on_c, 0, 91, 55
1, 143945, Note_off_c, 0, 73, 68
1, 143954, Note_off_c, 0, 75, 66
1, 143960, Note_off_c, 0, 93, 55
1, 143963, Note_off_c, 0, 91, 63
1, 143970, Note_off_c, 0, 70, 57
1, 143980, Note_on_c, 0, 85, 109
1, 143995, Note_on_c, 0, 76, 108
1, 143997, Note_on_c, 0, 69, 102
1, 144001, Note_on_c, 0, 93, 36
1, 144005, Note_on_c, 0, 94, 62
1, 144012, Note_on_c, 0, 70, 41
1, 144013, Note_off_c, 0, 70, 0
1, 144023, Note_off_c, 0, 85, 65
1, 144024, Note_off_c, 0, 94, 64
1, 144028, Note_off_c, 0, 69, 68
1, 144030, Note_off_c, 0, 76, 66
1, 144032, Note_off_c, 0, 93, 52
1, 144037, Poly_aftertouch_c, 0, 70, 0
1, 144312, Note_on_c, 0, 57, 71
1, 144353, Note_on_c, 0, 58, 76
1, 144374, Control_c, 0, 64, 82
1, 144389, Control_c, 0, 64, 62
1, 144398, Note_on_c, 0, 61, 59
1, 144401, Note_off_c, 0, 57, 60
1, 144404, Control_c, 0, 64, 52
1, 144410, Note_on_c, 0, 63, 89
1, 144419, Control_c, 0, 64, 52
1, 144434, Control_c, 0, 64, 58
1, 144448, Control_c, 0, 64, 65
1, 144451, Note_off_c, 0, 58, 60
1, 144454, Note_off_c, 0, 61, 57
1, 144463, Control_c, 0, 64, 72
1, 144478, Control_c, 0, 64, 89
1, 144487, Note_on_c, 0, 64, 82
1, 144493, Control_c, 0, 64, 114
1, 144508, Control_c, 0, 64, 127
1, 144509, Note_on_c, 0, 69, 77
1, 144529, Note_off_c, 0, 63, 61
1, 144553, Note_on_c, 0, 70, 85
1, 144580, Note_off_c, 0, 64, 59
1, 144592, Note_on_c, 0, 75, 75
1, 144598, Note_off_c, 0, 69, 60
1, 144609, Note_on_c, 0, 73, 70
1, 144627, Note_on_c, 0, 76, 85
1, 144653, Note_off_c, 0, 70, 62
1, 144659, Note_off_c, 0, 73, 63
1, 144681, Note_off_c, 0, 76, 64
1, 144683, Note_off_c, 0, 75, 63
1, 144708, Control_c, 0, 64, 89
1, 144723, Control_c, 0, 64, 62
1, 144738, Control_c, 0, 64, 28
1, 144747, Note_on_c, 0, 81, 113
1, 144753, Control_c, 0, 64, 0
1, 144761, Note_on_c, 0, 79, 70
1, 144779, Note_off_c, 0, 79, 67
1, 144782, Note_off_c, 0, 81, 67
1, 144872, Note_on_c, 0, 81, 87
1, 144928, Note_off_c, 0, 81, 63
1, 144998, Note_on_c, 0, 82, 96
1, 145048, Note_off_c, 0, 82, 66
1, 145122, Note_on_c, 0, 69, 90
1, 145124, Note_on_c, 0, 88, 103
1, 145176, Note_off_c, 0, 69, 65
1, 145233, Note_on_c, 0, 69, 87
1, 145310, Note_off_c, 0, 88, 56
1, 145337, Note_on_c, 0, 70, 87
1, 145360, Note_on_c, 0, 86, 87
1, 145369, Note_off_c, 0, 69, 59
1, 145413, Note_off_c, 0, 86, 64
1, 145420, Note_off_c, 0, 70, 60
1, 145484, Note_on_c, 0, 74, 107
1, 145492, Note_on_c, 0, 89, 102
1, 145647, Note_off_c, 0, 74, 54
1, 145658, Note_off_c, 0, 89, 55
1, 145716, Note_on_c, 0, 72, 92
1, 145721, Note_on_c, 0, 88, 97
1, 145838, Note_off_c, 0, 72, 59
1, 145849, Note_off_c, 0, 88, 60
1, 145915, Note_on_c, 0, 71, 67
1, 145917, Note_on_c, 0, 86, 63
1, 145951, Note_off_c, 0, 86, 59
1, 145972, Note_off_c, 0, 71, 57
1, 146027, Note_on_c, 0, 93, 67
1, 146034, Note_on_c, 0, 69, 67
1, 146065, Note_off_c, 0, 93, 51
1, 146068, Note_off_c, 0, 69, 59
1, 146180, Note_on_c, 0, 93, 62
1, 146218, Note_off_c, 0, 93, 55
1, 146300, Note_on_c, 0, 91, 66
1, 146326, Note_off_c, 0, 91, 57
1, 146368, Control_c, 0, 64, 46
1, 146383, Control_c, 0, 64, 64
1, 146398, Control_c, 0, 64, 72
1, 146413, Control_c, 0, 64, 86
1, 146413, Note_on_c, 0, 52, 62
1, 146416, Note_on_c, 0, 61, 57
1, 146425, Note_on_c, 0, 54, 58
1, 146428, Control_c, 0, 64, 108
1, 146429, Note_on_c, 0, 88, 72
1, 146443, Note_on_c, 0, 81, 53
1, 146443, Control_c, 0, 64, 127
1, 146450, Note_off_c, 0, 52, 59
1, 146450, Note_off_c, 0, 88, 68
1, 146453, Note_off_c, 0, 61, 58
1, 146462, Note_off_c, 0, 54, 63
1, 146462, Note_off_c, 0, 81, 61
1, 146536, Note_on_c, 0, 81, 72
1, 146542, Note_on_c, 0, 88, 74
1, 146570, Note_off_c, 0, 88, 63
1, 146583, Note_off_c, 0, 81, 57
1, 146680, Note_on_c, 0, 87, 64
1, 146698, Note_off_c, 0, 87, 67
1, 146801, Note_on_c, 0, 85, 68
1, 146804, Note_on_c, 0, 76, 64
1, 146813, Control_c, 0, 64, 95
1, 146816, Note_off_c, 0, 85, 68
1, 146817, Note_on_c, 0, 69, 63
1, 146824, Note_off_c, 0, 76, 65
1, 146828, Control_c, 0, 64, 70
1, 146836, Note_off_c, 0, 69, 64
1, 146843, Control_c, 0, 64, 54
1, 146865, Control_c, 0, 64, 46
1, 146914, Note_on_c, 0, 85, 71
1, 146916, Note_on_c, 0, 76, 70
1, 146926, Note_on_c, 0, 69, 66
1, 146941, Control_c, 0, 64, 48
1, 146944, Note_off_c, 0, 76, 65
1, 146947, Note_off_c, 0, 85, 63
1, 146955, Control_c, 0, 64, 49
1, 146970, Control_c, 0, 64, 49
1, 146971, Note_off_c, 0, 69, 63
1, 147040, Note_on_c, 0, 67, 69
1, 147048, Note_on_c, 0, 75, 70
1, 147051, Note_on_c, 0, 84, 62
1, 147065, Note_off_c, 0, 75, 67
1, 147066, Note_off_c, 0, 67, 65
1, 147069, Note_off_c, 0, 84, 63
1, 147158, Note_on_c, 0, 57, 69
1, 147161, Note_on_c, 0, 64, 60
1, 147161, Note_on_c, 0, 73, 73
1, 147163, Note_on_c, 0, 81, 69
1, 147176, Note_off_c, 0, 73, 68
1, 147179, Note_off_c, 0, 81, 68
1, 147182, Note_off_c, 0, 64, 64
1, 147185, Note_off_c, 0, 57, 66
1, 147236, Control_c, 0, 64, 49
1, 147267, Note_on_c, 0, 81, 67
1, 147272, Note_on_c, 0, 73, 70
1, 147273, Note_on_c, 0, 64, 68
1, 147276, Note_on_c, 0, 57, 72
1, 147299, Note_off_c, 0, 73, 64
1, 147301, Note_off_c, 0, 81, 61
1, 147307, Note_off_c, 0, 64, 59
1, 147310, Note_off_c, 0, 57, 56
1, 147383, Note_on_c, 0, 79, 73
1, 147389, Note_on_c, 0, 55, 80
1, 147389, Note_on_c, 0, 70, 74
1, 147391, Note_on_c, 0, 63, 79
1, 147404, Note_off_c, 0, 79, 67
1, 147413, Note_off_c, 0, 55, 63
1, 147414, Note_off_c, 0, 63, 66
1, 147415, Note_off_c, 0, 70, 60
1, 147429, Control_c, 0, 64, 48
1, 147444, Control_c, 0, 64, 48
1, 147459, Control_c, 0, 64, 47
1, 147473, Control_c, 0, 64, 47
1, 147508, Note_on_c, 0, 61, 77
1, 147513, Note_on_c, 0, 53, 74
1, 147513, Note_on_c, 0, 69, 75
1, 147518, Control_c, 0, 64, 46
1, 147519, Note_on_c, 0, 76, 60
1, 147525, Note_on_c, 0, 77, 51
1, 147533, Note_off_c, 0, 61, 65
1, 147533, Control_c, 0, 64, 46
1, 147537, Note_off_c, 0, 69, 68
1, 147539, Note_off_c, 0, 76, 62
1, 147540, Note_off_c, 0, 53, 66
1, 147546, Note_off_c, 0, 77, 60
1, 147548, Control_c, 0, 64, 45
1, 147562, Control_c, 0, 64, 45
1, 147626, Note_on_c, 0, 61, 71
1, 147626, Note_on_c, 0, 76, 79
1, 147626, Note_on_c, 0, 52, 76
1, 147630, Note_on_c, 0, 69, 80
1, 147650, Note_off_c, 0, 61, 67
1, 147656, Note_off_c, 0, 52, 61
1, 147658, Note_off_c, 0, 76, 58
1, 147671, Note_off_c, 0, 69, 60
1, 147753, Note_on_c, 0, 51, 75
1, 147753, Note_on_c, 0, 75, 75
1, 147759, Note_on_c, 0, 67, 65
1, 147762, Note_on_c, 0, 60, 59
1, 147777, Note_off_c, 0, 51, 66
1, 147777, Note_off_c, 0, 67, 63
1, 147777, Note_off_c, 0, 75, 67
1, 147783, Note_off_c, 0, 60, 61
1, 147866, Note_on_c, 0, 57, 74
1, 147871, Note_on_c, 0, 49, 69
1, 147873, Note_on_c, 0, 73, 76
1, 147879, Note_on_c, 0, 64, 63
1, 147889, Note_off_c, 0, 57, 67
1, 147892, Note_off_c, 0, 49, 64
1, 147897, Note_off_c, 0, 73, 67
1, 147907, Note_off_c, 0, 64, 62
1, 147979, Note_on_c, 0, 64, 75
1, 147984, Note_on_c, 0, 73, 79
1, 147986, Note_on_c, 0, 57, 57
1, 147996, Note_on_c, 0, 55, 57
1, 148007, Note_off_c, 0, 64, 62
1, 148007, Note_off_c, 0, 73, 65
1, 148014, Note_off_c, 0, 57, 62
1, 148020, Note_off_c, 0, 55, 59
1, 148076, Note_on_c, 0, 46, 64
1, 148079, Note_on_c, 0, 55, 74
1, 148095, Note_on_c, 0, 63, 81
1, 148098, Note_on_c, 0, 72, 75
1, 148103, Note_off_c, 0, 55, 66
1, 148103, Control_c, 0, 64, 44
1, 148112, Note_off_c, 0, 46, 59
1, 148114, Note_off_c, 0, 72, 69
1, 148117, Note_off_c, 0, 63, 68
1, 148133, Control_c, 0, 64, 44
1, 148148, Control_c, 0, 64, 42
1, 148163, Control_c, 0, 64, 37
1, 148178, Control_c, 0, 64, 27
1, 148192, Control_c, 0, 64, 0
1, 148213, Note_on_c, 0, 52, 71
1, 148213, Note_on_c, 0, 69, 75
1, 148214, Note_on_c, 0, 61, 70
1, 148225, Note_on_c, 0, 45, 52
1, 148296, Note_off_c, 0, 52, 0
1, 148296, Note_on_c, 0, 52, 11
1, 148407, Note_off_c, 0, 61, 59
1, 148419, Note_off_c, 0, 52, 56
1, 148425, Note_off_c, 0, 69, 55
1, 148431, Note_off_c, 0, 45, 52
1, 148598, Note_on_c, 0, 51, 85
1, 148602, Note_on_c, 0, 58, 83
1, 148604, Note_on_c, 0, 67, 84
1, 148608, Note_on_c, 0, 46, 71
1, 148624, Note_off_c, 0, 58, 66
1, 148639, Note_off_c, 0, 67, 51
1, 148642, Note_off_c, 0, 46, 59
1, 148652, Note_off_c, 0, 51, 59
1, 148705, Note_on_c, 0, 61, 78
1, 148709, Note_on_c, 0, 45, 75
1, 148712, Note_on_c, 0, 52, 74
1, 148735, Note_off_c, 0, 61, 64
1, 148739, Note_off_c, 0, 52, 63
1, 148743, Note_off_c, 0, 45, 61
1, 148795, Note_on_c, 0, 58, 82
1, 148800, Note_on_c, 0, 51, 81
1, 148801, Note_on_c, 0, 67, 67
1, 148816, Note_off_c, 0, 58, 68
1, 148819, Note_off_c, 0, 67, 65
1, 148831, Note_off_c, 0, 51, 57
1, 148888, Note_on_c, 0, 61, 88
1, 148888, Note_on_c, 0, 69, 86
1, 148893, Note_on_c, 0, 52, 94
1, 148898, Note_on_c, 0, 45, 79
1, 148936, Note_on_c, 0, 68, 11
1, 148974, Note_off_c, 0, 61, 61
1, 148976, Note_off_c, 0, 68, 42
1, 149014, Note_off_c, 0, 69, 64
1, 149024, Note_off_c, 0, 52, 56
1, 149033, Note_off_c, 0, 45, 56
1, 149108, Note_on_c, 0, 67, 88
1, 149109, Note_on_c, 0, 51, 85
1, 149112, Note_on_c, 0, 75, 89
1, 149116, Note_on_c, 0, 46, 74
1, 149220, Note_off_c, 0, 75, 60
1, 149224, Note_off_c, 0, 46, 57
1, 149225, Note_off_c, 0, 67, 62
1, 149247, Note_off_c, 0, 51, 58
1, 149301, Note_on_c, 0, 73, 89
1, 149302, Note_on_c, 0, 64, 83
1, 149307, Note_on_c, 0, 45, 76
1, 149307, Note_on_c, 0, 52, 83
1, 149410, Note_off_c, 0, 64, 60
1, 149418, Note_off_c, 0, 52, 56
1, 149419, Note_off_c, 0, 73, 61
1, 149440, Note_off_c, 0, 45, 55
1, 149498, Note_on_c, 0, 51, 81
1, 149500, Note_on_c, 0, 63, 91
1, 149508, Note_on_c, 0, 72, 74
1, 149510, Note_on_c, 0, 46, 66
1, 149522, Note_off_c, 0, 63, 65
1, 149523, Note_off_c, 0, 72, 69
1, 149543, Note_off_c, 0, 46, 63
1, 149546, Note_off_c, 0, 51, 57
1, 149585, Note_on_c, 0, 61, 96
1, 149588, Note_on_c, 0, 69, 88
1, 149591, Note_on_c, 0, 52, 93
1, 149597, Note_on_c, 0, 45, 78
1, 149705, Note_off_c, 0, 52, 55
1, 149713, Note_off_c, 0, 61, 56
1, 149715, Note_off_c, 0, 69, 55
1, 149726, Note_off_c, 0, 45, 55
1, 149796, Note_on_c, 0, 51, 85
1, 149798, Note_on_c, 0, 58, 87
1, 149802, Note_on_c, 0, 67, 81
1, 149805, Note_on_c, 0, 46, 72
1, 149849, Note_off_c, 0, 67, 59
1, 149850, Note_off_c, 0, 58, 57
1, 149852, Note_off_c, 0, 46, 59
1, 149860, Note_off_c, 0, 51, 59
1, 149903, Note_on_c, 0, 61, 85
1, 149909, Note_on_c, 0, 45, 79
1, 149909, Note_on_c, 0, 52, 84
1, 149934, Note_on_c, 0, 69, 53
1, 149942, Note_off_c, 0, 52, 64
1, 149951, Note_off_c, 0, 61, 61
1, 149954, Note_off_c, 0, 69, 60
1, 149960, Note_off_c, 0, 45, 56
1, 149996, Note_on_c, 0, 58, 86
1, 149999, Note_on_c, 0, 51, 87
1, 150008, Note_on_c, 0, 67, 67
1, 150025, Note_off_c, 0, 67, 64
1, 150026, Note_off_c, 0, 58, 64
1, 150056, Note_off_c, 0, 51, 60
1, 150097, Note_on_c, 0, 61, 82
1, 150100, Note_on_c, 0, 52, 98
1, 150103, Note_on_c, 0, 69, 75
1, 150107, Note_on_c, 0, 45, 80
1, 150154, Note_off_c, 0, 61, 63
1, 150202, Note_off_c, 0, 69, 64
1, 150219, Note_off_c, 0, 52, 57
1, 150234, Note_off_c, 0, 45, 57
1, 150295, Note_on_c, 0, 67, 79
1, 150299, Note_on_c, 0, 51, 81
1, 150300, Note_on_c, 0, 75, 71
1, 150301, Note_on_c, 0, 68, 68
1, 150307, Note_on_c, 0, 46, 72
1, 150319, Note_on_c, 0, 76, 69
1, 150339, Note_off_c, 0, 76, 61
1, 150389, Note_off_c, 0, 75, 54
1, 150402, Note_off_c, 0, 46, 57
1, 150403, Note_off_c, 0, 68, 57
1, 150405, Note_off_c, 0, 67, 61
1, 150414, Note_off_c, 0, 51, 59
1, 150476, Note_on_c, 0, 52, 82
1, 150478, Note_on_c, 0, 45, 76
1, 150479, Note_on_c, 0, 64, 84
1, 150480, Note_on_c, 0, 73, 89
1, 150535, Note_off_c, 0, 73, 64
1, 150550, Note_off_c, 0, 64, 58
1, 150562, Note_off_c, 0, 52, 58
1, 150571, Note_off_c, 0, 45, 57
1, 150640, Note_on_c, 0, 51, 83
1, 150642, Note_on_c, 0, 63, 88
1, 150652, Note_on_c, 0, 46, 66
1, 150656, Note_on_c, 0, 72, 59
1, 150673, Note_off_c, 0, 63, 64
1, 150676, Note_off_c, 0, 72, 62
1, 150690, Note_off_c, 0, 46, 60
1, 150702, Note_off_c, 0, 51, 60
1, 150755, Note_on_c, 0, 52, 93
1, 150756, Note_on_c, 0, 61, 88
1, 150759, Note_on_c, 0, 45, 80
1, 150759, Note_on_c, 0, 69, 79
1, 150799, Note_off_c, 0, 61, 58
1, 150810, Note_off_c, 0, 69, 59
1, 150815, Note_off_c, 0, 52, 61
1, 150828, Note_off_c, 0, 45, 59
1, 150877, Note_on_c, 0, 51, 84
1, 150878, Note_on_c, 0, 67, 80
1, 150879, Note_on_c, 0, 58, 88
1, 150885, Note_on_c, 0, 46, 69
1, 150919, Note_off_c, 0, 46, 60
1, 150932, Note_off_c, 0, 67, 59
1, 150933, Note_off_c, 0, 58, 60
1, 150935, Note_off_c, 0, 51, 61
1, 150988, Note_on_c, 0, 52, 100
1, 150991, Note_on_c, 0, 45, 85
1, 150992, Note_on_c, 0, 61, 96
1, 150998, Note_on_c, 0, 69, 85
1, 151027, Note_on_c, 0, 67, 40
1, 151042, Note_off_c, 0, 52, 61
1, 151049, Note_off_c, 0, 61, 62
1, 151054, Note_off_c, 0, 67, 49
1, 151054, Note_off_c, 0, 69, 63
1, 151056, Note_off_c, 0, 45, 61
1, 151111, Note_on_c, 0, 58, 89
1, 151117, Note_on_c, 0, 51, 87
1, 151123, Note_on_c, 0, 67, 72
1, 151131, Note_on_c, 0, 46, 59
1, 151145, Note_off_c, 0, 67, 55
1, 151168, Note_off_c, 0, 46, 61
1, 151169, Note_off_c, 0, 58, 60
1, 151178, Note_off_c, 0, 51, 60
1, 151217, Note_on_c, 0, 61, 79
1, 151226, Note_on_c, 0, 52, 89
1, 151229, Note_on_c, 0, 45, 81
1, 151233, Note_on_c, 0, 69, 72
1, 151266, Note_off_c, 0, 61, 61
1, 151273, Note_off_c, 0, 69, 65
1, 151278, Note_off_c, 0, 52, 61
1, 151287, Note_off_c, 0, 45, 58
1, 151338, Note_on_c, 0, 51, 89
1, 151354, Note_on_c, 0, 75, 90
1, 151359, Note_on_c, 0, 46, 68
1, 151378, Note_off_c, 0, 75, 59
1, 151394, Note_off_c, 0, 46, 60
1, 151403, Note_off_c, 0, 51, 60
1, 151551, Control_c, 0, 64, 50
1, 151564, Note_on_c, 0, 61, 85
1, 151565, Note_on_c, 0, 52, 92
1, 151565, Note_on_c, 0, 69, 85
1, 151566, Note_on_c, 0, 45, 85
1, 151566, Control_c, 0, 64, 73
1, 151580, Control_c, 0, 64, 87
1, 151595, Control_c, 0, 64, 127
1, 151602, Note_on_c, 0, 60, 50
1, 151611, Note_off_c, 0, 61, 61
1, 151628, Note_off_c, 0, 60, 55
1, 151629, Note_on_c, 0, 68, 4
1, 151634, Note_off_c, 0, 69, 66
1, 151650, Note_off_c, 0, 52, 58
1, 151655, Note_off_c, 0, 45, 56
1, 151678, Note_off_c, 0, 68, 35
1, 151774, Control_c, 0, 64, 98
1, 151789, Control_c, 0, 64, 63
1, 151803, Control_c, 0, 64, 0
1, 151848, Control_c, 0, 64, 46
1, 151853, Note_on_c, 0, 81, 88
1, 151853, Note_on_c, 0, 93, 89
1, 151853, Note_on_c, 0, 79, 88
1, 151856, Note_on_c, 0, 91, 88
1, 151863, Control_c, 0, 64, 65
1, 151877, Control_c, 0, 64, 76
1, 151892, Control_c, 0, 64, 93
1, 151907, Control_c, 0, 64, 127
1, 151916, Note_off_c, 0, 79, 52
1, 151931, Note_off_c, 0, 93, 58
1, 151931, Note_off_c, 0, 91, 62
1, 151934, Note_off_c, 0, 81, 58
1, 152030, Note_on_c, 0, 89, 91
1, 152035, Note_on_c, 0, 77, 87
1, 152041, Note_on_c, 0, 79, 80
1, 152086, Note_off_c, 0, 79, 54
1, 152098, Note_off_c, 0, 89, 61
1, 152101, Note_off_c, 0, 77, 58
1, 152182, Note_on_c, 0, 76, 94
1, 152182, Note_on_c, 0, 88, 98
1, 152201, Note_on_c, 0, 77, 72
1, 152220, Note_off_c, 0, 77, 64
1, 152226, Control_c, 0, 64, 88
1, 152241, Control_c, 0, 64, 65
1, 152255, Control_c, 0, 64, 55
1, 152270, Control_c, 0, 64, 56
1, 152285, Control_c, 0, 64, 62
1, 152285, Note_off_c, 0, 88, 59
1, 152288, Note_on_c, 0, 73, 94
1, 152288, Note_off_c, 0, 76, 62
1, 152291, Note_on_c, 0, 64, 85
1, 152295, Note_on_c, 0, 69, 85
1, 152300, Control_c, 0, 64, 68
1, 152315, Control_c, 0, 64, 78
1, 152329, Control_c, 0, 64, 103
1, 152344, Control_c, 0, 64, 127
1, 152392, Note_on_c, 0, 87, 92
1, 152394, Note_on_c, 0, 75, 98
1, 152402, Note_off_c, 0, 64, 57
1, 152409, Note_off_c, 0, 69, 60
1, 152411, Note_off_c, 0, 73, 59
1, 152431, Note_on_c, 0, 85, 36
1, 152432, Note_off_c, 0, 85, 127
1, 152497, Note_on_c, 0, 72, 94
1, 152500, Note_off_c, 0, 87, 60
1, 152501, Note_on_c, 0, 68, 84
1, 152506, Note_off_c, 0, 75, 59
1, 152507, Note_on_c, 0, 63, 80
1, 152507, Control_c, 0, 64, 77
1, 152523, Control_c, 0, 64, 49
1, 152538, Control_c, 0, 64, 0
1, 152553, Control_c, 0, 64, 26
1, 152567, Control_c, 0, 64, 53
1, 152570, Note_off_c, 0, 72, 60
1, 152582, Control_c, 0, 64, 66
1, 152589, Note_on_c, 0, 85, 93
1, 152590, Note_off_c, 0, 68, 57
1, 152591, Note_on_c, 0, 73, 96
1, 152595, Control_c, 0, 64, 74
1, 152601, Note_off_c, 0, 63, 59
1, 152610, Control_c, 0, 64, 87
1, 152625, Control_c, 0, 64, 109
1, 152640, Control_c, 0, 64, 127
1, 152661, Note_off_c, 0, 73, 64
1, 152682, Note_off_c, 0, 85, 62
1, 152685, Note_on_c, 0, 69, 85
1, 152691, Note_on_c, 0, 61, 80
1, 152713, Note_on_c, 0, 64, 59
1, 152715, Note_on_c, 0, 65, 59
1, 152729, Note_on_c, 0, 63, 45
1, 152756, Note_off_c, 0, 63, 57
1, 152768, Note_off_c, 0, 65, 52
1, 152777, Note_on_c, 0, 84, 77
1, 152783, Note_on_c, 0, 71, 85
1, 152783, Note_off_c, 0, 69, 56
1, 152785, Note_on_c, 0, 72, 77
1, 152788, Control_c, 0, 64, 89
1, 152791, Note_off_c, 0, 61, 59
1, 152795, Note_on_c, 0, 83, 72
1, 152796, Note_off_c, 0, 64, 36
1, 152801, Note_off_c, 0, 84, 63
1, 152803, Note_off_c, 0, 71, 69
1, 152803, Control_c, 0, 64, 59
1, 152806, Note_off_c, 0, 72, 69
1, 152811, Note_off_c, 0, 83, 66
1, 152817, Control_c, 0, 64, 0
1, 152886, Note_on_c, 0, 69, 98
1, 152887, Note_on_c, 0, 81, 88
1, 152914, Note_on_c, 0, 79, 55
1, 152938, Note_off_c, 0, 79, 42
1, 152944, Note_on_c, 0, 80, 4
1, 152962, Note_off_c, 0, 80, 36
1, 152965, Note_on_c, 0, 58, 75
1, 152965, Note_off_c, 0, 81, 56
1, 152968, Note_on_c, 0, 67, 84
1, 152977, Note_on_c, 0, 63, 79
1, 152998, Note_off_c, 0, 69, 63
1, 153009, Note_off_c, 0, 67, 63
1, 153030, Note_off_c, 0, 58, 59
1, 153035, Note_off_c, 0, 63, 61
1, 153096, Note_on_c, 0, 67, 97
1, 153098, Note_on_c, 0, 79, 93
1, 153103, Note_on_c, 0, 57, 82
1, 153103, Note_on_c, 0, 64, 88
1, 153106, Control_c, 0, 64, 50
1, 153109, Note_on_c, 0, 61, 83
1, 153117, Note_on_c, 0, 65, 59
1, 153118, Note_off_c, 0, 65, 127
1, 153120, Note_on_c, 0, 78, 61
1, 153121, Control_c, 0, 64, 70
1, 153136, Control_c, 0, 64, 82
1, 153139, Note_off_c, 0, 67, 63
1, 153139, Note_off_c, 0, 78, 61
1, 153141, Note_off_c, 0, 79, 62
1, 153150, Control_c, 0, 64, 109
1, 153165, Control_c, 0, 64, 127
1, 153214, Note_on_c, 0, 69, 92
1, 153215, Note_on_c, 0, 81, 92
1, 153233, Note_off_c, 0, 64, 55
1, 153244, Note_on_c, 0, 80, 45
1, 153245, Note_off_c, 0, 61, 57
1, 153248, Note_off_c, 0, 81, 66
1, 153250, Note_off_c, 0, 69, 66
1, 153257, Note_off_c, 0, 57, 57
1, 153266, Note_off_c, 0, 80, 58
1, 153315, Note_on_c, 0, 67, 97
1, 153321, Note_on_c, 0, 79, 87
1, 153357, Note_off_c, 0, 67, 61
1, 153358, Note_off_c, 0, 79, 56
1, 153417, Note_on_c, 0, 69, 89
1, 153423, Note_on_c, 0, 81, 99
1, 153448, Control_c, 0, 64, 103
1, 153463, Control_c, 0, 64, 70
1, 153471, Note_off_c, 0, 69, 63
1, 153478, Control_c, 0, 64, 45
1, 153493, Control_c, 0, 64, 24
1, 153503, Note_off_c, 0, 81, 64
1, 153508, Control_c, 0, 64, 36
1, 153517, Note_on_c, 0, 55, 73
1, 153517, Note_on_c, 0, 63, 98
1, 153522, Control_c, 0, 64, 57
1, 153524, Note_on_c, 0, 58, 82
1, 153537, Control_c, 0, 64, 69
1, 153552, Control_c, 0, 64, 81
1, 153567, Control_c, 0, 64, 106
1, 153582, Control_c, 0, 64, 127
1, 153606, Note_off_c, 0, 63, 58
1, 153613, Note_off_c, 0, 55, 55
1, 153615, Note_off_c, 0, 58, 58
1, 153618, Note_on_c, 0, 75, 104
1, 153620, Note_on_c, 0, 87, 96
1, 153648, Control_c, 0, 64, 103
1, 153663, Note_on_c, 0, 85, 26
1, 153664, Note_off_c, 0, 85, 127
1, 153664, Control_c, 0, 64, 66
1, 153678, Control_c, 0, 64, 58
1, 153693, Control_c, 0, 64, 62
1, 153698, Note_on_c, 0, 61, 85
1, 153702, Note_on_c, 0, 52, 81
1, 153704, Note_on_c, 0, 57, 76
1, 153708, Control_c, 0, 64, 70
1, 153715, Note_off_c, 0, 87, 61
1, 153719, Note_off_c, 0, 75, 61
1, 153722, Control_c, 0, 64, 84
1, 153737, Control_c, 0, 64, 127
1, 153740, Note_on_c, 0, 60, 40
1, 153767, Control_c, 0, 64, 90
1, 153772, Note_off_c, 0, 60, 51
1, 153779, Note_off_c, 0, 52, 59
1, 153782, Control_c, 0, 64, 64
1, 153797, Control_c, 0, 64, 43
1, 153799, Note_on_c, 0, 85, 92
1, 153800, Note_on_c, 0, 73, 97
1, 153810, Note_off_c, 0, 57, 58
1, 153811, Control_c, 0, 64, 48
1, 153815, Note_off_c, 0, 61, 58
1, 153826, Control_c, 0, 64, 65
1, 153832, Poly_aftertouch_c, 0, 62, 0
1, 153841, Control_c, 0, 64, 79
1, 153856, Control_c, 0, 64, 103
1, 153865, Note_off_c, 0, 73, 63
1, 153871, Control_c, 0, 64, 127
1, 153885, Note_off_c, 0, 85, 63
1, 153899, Note_on_c, 0, 63, 97
1, 153904, Note_on_c, 0, 55, 82
1, 153916, Note_on_c, 0, 58, 64
1, 153919, Note_on_c, 0, 59, 77
1, 153984, Note_on_c, 0, 72, 92
1, 153985, Note_on_c, 0, 84, 91
1, 154004, Control_c, 0, 64, 89
1, 154013, Note_off_c, 0, 84, 60
1, 154017, Note_off_c, 0, 72, 66
1, 154019, Note_off_c, 0, 59, 58
1, 154019, Control_c, 0, 64, 62
1, 154034, Control_c, 0, 64, 0
1, 154036, Note_off_c, 0, 58, 45
1, 154044, Note_off_c, 0, 63, 52
1, 154047, Note_off_c, 0, 55, 57
1, 154086, Note_on_c, 0, 69, 98
1, 154087, Note_on_c, 0, 81, 93
1, 154119, Note_on_c, 0, 80, 52
1, 154122, Note_on_c, 0, 71, 45
1, 154123, Note_off_c, 0, 71, 127
1, 154141, Note_off_c, 0, 80, 59
1, 154163, Note_off_c, 0, 81, 62
1, 154175, Note_off_c, 0, 69, 61
1, 154181, Note_on_c, 0, 64, 101
1, 154184, Note_on_c, 0, 57, 78
1, 154187, Note_on_c, 0, 61, 80
1, 154227, Control_c, 0, 64, 52
1, 154242, Control_c, 0, 64, 68
1, 154256, Control_c, 0, 64, 77
1, 154263, Note_on_c, 0, 67, 98
1, 154268, Note_on_c, 0, 79, 88
1, 154271, Control_c, 0, 64, 94
1, 154286, Control_c, 0, 64, 110
1, 154297, Note_on_c, 0, 78, 48
1, 154301, Control_c, 0, 64, 127
1, 154305, Note_off_c, 0, 79, 66
1, 154307, Note_off_c, 0, 67, 63
1, 154321, Note_off_c, 0, 78, 58
1, 154343, Note_off_c, 0, 64, 54
1, 154361, Note_off_c, 0, 57, 59
1, 154375, Note_on_c, 0, 69, 99
1, 154378, Note_on_c, 0, 81, 96
1, 154394, Note_off_c, 0, 61, 57
1, 154407, Note_on_c, 0, 80, 48
1, 154411, Note_off_c, 0, 81, 66
1, 154417, Note_off_c, 0, 69, 64
1, 154431, Note_off_c, 0, 80, 59
1, 154473, Note_on_c, 0, 67, 93
1, 154479, Note_on_c, 0, 79, 84
1, 154514, Note_off_c, 0, 79, 55
1, 154517, Note_off_c, 0, 67, 60
1, 154530, Note_on_c, 0, 69, 15
1, 154531, Note_off_c, 0, 69, 127
1, 154563, Poly_aftertouch_c, 0, 69, 0
1, 154574, Note_on_c, 0, 69, 71
1, 154584, Note_on_c, 0, 81, 95
1, 154620, Control_c, 0, 64, 97
1, 154634, Note_off_c, 0, 69, 63
1, 154635, Control_c, 0, 64, 68
1, 154650, Control_c, 0, 64, 46
1, 154664, Control_c, 0, 64, 39
1, 154665, Note_off_c, 0, 81, 64
1, 154667, Note_on_c, 0, 58, 83
1, 154669, Note_on_c, 0, 67, 89
1, 154674, Note_on_c, 0, 63, 88
1, 154679, Control_c, 0, 64, 51
1, 154694, Control_c, 0, 64, 63
1, 154709, Control_c, 0, 64, 72
1, 154724, Control_c, 0, 64, 85
1, 154739, Control_c, 0, 64, 119
1, 154753, Control_c, 0, 64, 127
1, 154760, Note_off_c, 0, 58, 58
1, 154763, Note_off_c, 0, 63, 61
1, 154765, Note_on_c, 0, 75, 97
1, 154768, Note_on_c, 0, 87, 97
1, 154768, Note_off_c, 0, 67, 56
1, 154790, Note_on_c, 0, 85, 57
1, 154798, Control_c, 0, 64, 101
1, 154810, Note_off_c, 0, 85, 65
1, 154811, Note_on_c, 0, 74, 37
1, 154813, Control_c, 0, 64, 71
1, 154828, Control_c, 0, 64, 62
1, 154842, Note_off_c, 0, 74, 46
1, 154843, Control_c, 0, 64, 63
1, 154846, Note_on_c, 0, 69, 89
1, 154852, Note_on_c, 0, 61, 75
1, 154852, Note_on_c, 0, 64, 77
1, 154858, Control_c, 0, 64, 69
1, 154861, Note_off_c, 0, 75, 60
1, 154861, Note_off_c, 0, 87, 61
1, 154872, Control_c, 0, 64, 77
1, 154876, Note_on_c, 0, 63, 55
1, 154887, Control_c, 0, 64, 105
1, 154902, Control_c, 0, 64, 127
1, 154905, Note_off_c, 0, 63, 52
1, 154926, Note_off_c, 0, 69, 60
1, 154931, Note_off_c, 0, 64, 57
1, 154944, Note_on_c, 0, 73, 98
1, 154944, Note_on_c, 0, 85, 89
1, 154952, Note_off_c, 0, 61, 59
1, 154977, Control_c, 0, 64, 81
1, 154992, Control_c, 0, 64, 60
1, 155007, Control_c, 0, 64, 59
1, 155007, Note_off_c, 0, 73, 63
1, 155021, Control_c, 0, 64, 65
1, 155026, Note_off_c, 0, 85, 61
1, 155033, Note_on_c, 0, 67, 82
1, 155034, Note_on_c, 0, 58, 83
1, 155036, Control_c, 0, 64, 73
1, 155042, Note_on_c, 0, 63, 76
1, 155051, Control_c, 0, 64, 91
1, 155066, Control_c, 0, 64, 127
1, 155114, Note_on_c, 0, 72, 96
1, 155115, Note_on_c, 0, 84, 88
1, 155116, Note_off_c, 0, 67, 58
1, 155149, Note_off_c, 0, 63, 58
1, 155153, Note_off_c, 0, 72, 65
1, 155153, Note_off_c, 0, 58, 54
1, 155154, Note_off_c, 0, 84, 58
1, 155162, Control_c, 0, 64, 87
1, 155177, Control_c, 0, 64, 56
1, 155192, Control_c, 0, 64, 0
1, 155207, Control_c, 0, 64, 21
1, 155221, Control_c, 0, 64, 55
1, 155223, Note_on_c, 0, 64, 91
1, 155224, Note_on_c, 0, 57, 88
1, 155230, Note_on_c, 0, 61, 81
1, 155235, Note_on_c, 0, 69, 103
1, 155236, Note_on_c, 0, 81, 93
1, 155236, Control_c, 0, 64, 69
1, 155251, Control_c, 0, 64, 83
1, 155260, Note_on_c, 0, 80, 65
1, 155266, Control_c, 0, 64, 118
1, 155277, Note_off_c, 0, 80, 63
1, 155281, Control_c, 0, 64, 127
1, 155284, Note_off_c, 0, 64, 59
1, 155287, Note_off_c, 0, 57, 59
1, 155296, Note_off_c, 0, 69, 62
1, 155298, Note_off_c, 0, 81, 62
1, 155311, Note_off_c, 0, 61, 61
1, 155369, Control_c, 0, 64, 96
1, 155384, Control_c, 0, 64, 65
1, 155387, Note_on_c, 0, 67, 106
1, 155392, Note_on_c, 0, 58, 88
1, 155394, Note_on_c, 0, 79, 90
1, 155399, Control_c, 0, 64, 55
1, 155400, Note_on_c, 0, 63, 89
1, 155413, Control_c, 0, 64, 60
1, 155418, Note_on_c, 0, 78, 65
1, 155428, Control_c, 0, 64, 70
1, 155436, Note_off_c, 0, 78, 65
1, 155443, Control_c, 0, 64, 85
1, 155458, Control_c, 0, 64, 127
1, 155469, Note_off_c, 0, 79, 61
1, 155470, Note_off_c, 0, 67, 61
1, 155493, Note_off_c, 0, 63, 58
1, 155495, Note_off_c, 0, 58, 52
1, 155532, Control_c, 0, 64, 97
1, 155546, Control_c, 0, 64, 66
1, 155555, Note_on_c, 0, 64, 92
1, 155558, Note_on_c, 0, 57, 82
1, 155559, Note_on_c, 0, 69, 99
1, 155560, Note_on_c, 0, 61, 83
1, 155560, Note_on_c, 0, 81, 94
1, 155561, Control_c, 0, 64, 59
1, 155576, Control_c, 0, 64, 64
1, 155584, Note_on_c, 0, 80, 64
1, 155591, Control_c, 0, 64, 75
1, 155600, Note_off_c, 0, 80, 65
1, 155606, Control_c, 0, 64, 95
1, 155621, Control_c, 0, 64, 127
1, 155637, Note_off_c, 0, 81, 55
1, 155646, Note_off_c, 0, 64, 58
1, 155658, Note_off_c, 0, 69, 59
1, 155674, Note_off_c, 0, 61, 59
1, 155675, Note_off_c, 0, 57, 46
1, 155755, Control_c, 0, 64, 74
1, 155761, Note_on_c, 0, 63, 99
1, 155765, Note_on_c, 0, 67, 100
1, 155767, Note_on_c, 0, 79, 90
1, 155767, Note_on_c, 0, 55, 80
1, 155770, Control_c, 0, 64, 53
1, 155773, Note_on_c, 0, 58, 84
1, 155785, Control_c, 0, 64, 48
1, 155791, Note_on_c, 0, 78, 59
1, 155800, Control_c, 0, 64, 61
1, 155810, Note_off_c, 0, 78, 62
1, 155815, Control_c, 0, 64, 72
1, 155830, Control_c, 0, 64, 87
1, 155851, Control_c, 0, 64, 127
1, 155881, Note_off_c, 0, 67, 58
1, 155892, Note_off_c, 0, 79, 56
1, 155931, Note_off_c, 0, 63, 55
1, 155937, Note_off_c, 0, 55, 57
1, 155947, Note_off_c, 0, 58, 57
1, 155999, Control_c, 0, 64, 74
1, 156014, Control_c, 0, 64, 41
1, 156019, Note_on_c, 0, 61, 99
1, 156023, Note_on_c, 0, 58, 95
1, 156025, Note_on_c, 0, 69, 105
1, 156028, Note_on_c, 0, 81, 95
1, 156029, Control_c, 0, 64, 28
1, 156031, Note_on_c, 0, 52, 86
1, 156044, Control_c, 0, 64, 46
1, 156047, Note_on_c, 0, 80, 70
1, 156059, Control_c, 0, 64, 63
1, 156065, Note_off_c, 0, 80, 66
1, 156068, Note_on_c, 0, 57, 69
1, 156074, Control_c, 0, 64, 74
1, 156088, Control_c, 0, 64, 88
1, 156103, Control_c, 0, 64, 127
1, 156120, Note_off_c, 0, 69, 62
1, 156158, Note_off_c, 0, 81, 60
1, 156161, Note_off_c, 0, 52, 58
1, 156166, Note_off_c, 0, 58, 56
1, 156183, Note_off_c, 0, 57, 58
1, 156191, Note_off_c, 0, 61, 54
1, 156266, Control_c, 0, 64, 88
1, 156280, Control_c, 0, 64, 55
1, 156295, Control_c, 0, 64, 0
1, 156308, Note_on_c, 0, 63, 111
1, 156310, Control_c, 0, 64, 36
1, 156315, Note_on_c, 0, 55, 84
1, 156315, Note_on_c, 0, 75, 104
1, 156317, Note_on_c, 0, 58, 76
1, 156318, Note_on_c, 0, 87, 99
1, 156325, Control_c, 0, 64, 64
1, 156330, Note_on_c, 0, 56, 69
1, 156334, Note_on_c, 0, 85, 69
1, 156337, Note_on_c, 0, 57, 69
1, 156340, Control_c, 0, 64, 79
1, 156350, Note_off_c, 0, 85, 67
1, 156355, Control_c, 0, 64, 127
1, 156356, Note_off_c, 0, 56, 56
1, 156364, Note_on_c, 0, 88, 22
1, 156406, Note_off_c, 0, 88, 50
1, 156414, Note_off_c, 0, 57, 54
1, 156428, Poly_aftertouch_c, 0, 76, 0
1, 156446, Note_off_c, 0, 87, 61
1, 156482, Note_off_c, 0, 55, 31
1, 156484, Note_off_c, 0, 75, 63
1, 156485, Note_off_c, 0, 63, 57
1, 156524, Note_off_c, 0, 58, 57
1, 156674, Control_c, 0, 64, 81
1, 156689, Control_c, 0, 64, 45
1, 156704, Control_c, 0, 64, 0
1, 157000, Control_c, 0, 64, 50
1, 157015, Control_c, 0, 64, 99
1, 157019, Note_on_c, 0, 40, 101
1, 157023, Note_on_c, 0, 28, 91
1, 157030, Control_c, 0, 64, 127
1, 157055, Note_off_c, 0, 28, 67
1, 157056, Note_on_c, 0, 65, 42
1, 157079, Note_off_c, 0, 40, 60
1, 157092, Note_off_c, 0, 65, 47
1, 157213, Note_on_c, 0, 47, 88
1, 157248, Note_off_c, 0, 47, 60
1, 157302, Note_on_c, 0, 65, 103
1, 157302, Note_on_c, 0, 73, 102
1, 157302, Note_on_c, 0, 77, 90
1, 157303, Note_on_c, 0, 70, 105
1, 157309, Note_on_c, 0, 52, 94
1, 157314, Note_on_c, 0, 56, 104
1, 157316, Note_on_c, 0, 62, 101
1, 157320, Note_on_c, 0, 75, 73
1, 157325, Note_on_c, 0, 67, 63
1, 157326, Note_off_c, 0, 67, 127
1, 157327, Note_on_c, 0, 54, 79
1, 157328, Note_on_c, 0, 60, 64
1, 157338, Note_off_c, 0, 52, 67
1, 157344, Note_off_c, 0, 75, 65
1, 157344, Note_off_c, 0, 65, 67
1, 157350, Note_off_c, 0, 77, 64
1, 157351, Note_off_c, 0, 70, 66
1, 157355, Note_off_c, 0, 62, 66
1, 157356, Note_off_c, 0, 60, 62
1, 157358, Note_off_c, 0, 73, 68
1, 157359, Note_off_c, 0, 54, 67
1, 157366, Note_off_c, 0, 56, 64
1, 158257, Note_on_c, 0, 74, 80
1, 158260, Note_on_c, 0, 86, 76
1, 158305, Note_on_c, 0, 79, 80
1, 158310, Note_on_c, 0, 91, 85
1, 158332, Note_on_c, 0, 76, 39
1, 158340, Note_off_c, 0, 86, 61
1, 158343, Note_on_c, 0, 92, 88
1, 158348, Note_off_c, 0, 74, 46
1, 158349, Note_on_c, 0, 80, 90
1, 158360, Note_off_c, 0, 76, 55
1, 158387, Note_off_c, 0, 79, 58
1, 158387, Note_on_c, 0, 97, 90
1, 158392, Note_off_c, 0, 91, 64
1, 158395, Note_on_c, 0, 85, 100
1, 158405, Note_off_c, 0, 80, 60
1, 158415, Note_off_c, 0, 92, 64
1, 158440, Note_off_c, 0, 97, 65
1, 158447, Note_off_c, 0, 85, 61
1, 158530, Note_on_c, 0, 97, 88
1, 158575, Note_off_c, 0, 97, 62
1, 158652, Note_on_c, 0, 97, 84
1, 158681, Note_off_c, 0, 97, 63
1, 158744, Note_on_c, 0, 85, 110
1, 158750, Note_on_c, 0, 97, 114
1, 158785, Note_off_c, 0, 97, 67
1, 158790, Note_off_c, 0, 85, 65
1, 158891, Note_on_c, 0, 97, 83
1, 158925, Note_off_c, 0, 97, 64
1, 159002, Note_on_c, 0, 97, 87
1, 159034, Note_off_c, 0, 97, 67
1, 159097, Note_on_c, 0, 85, 106
1, 159100, Note_on_c, 0, 97, 111
1, 159135, Note_off_c, 0, 97, 67
1, 159139, Note_off_c, 0, 85, 65
1, 159228, Note_on_c, 0, 97, 85
1, 159258, Note_off_c, 0, 97, 67
1, 159318, Note_on_c, 0, 97, 104
1, 159325, Note_on_c, 0, 85, 110
1, 159356, Note_off_c, 0, 97, 66
1, 159368, Note_off_c, 0, 85, 65
1, 159448, Note_on_c, 0, 97, 84
1, 159487, Note_off_c, 0, 97, 62
1, 159556, Note_on_c, 0, 97, 73
1, 159595, Note_off_c, 0, 97, 63
1, 159657, Note_on_c, 0, 85, 102
1, 159660, Note_on_c, 0, 97, 107
1, 159699, Note_off_c, 0, 97, 68
1, 159702, Note_off_c, 0, 85, 68
1, 159792, Note_on_c, 0, 97, 81
1, 159825, Note_off_c, 0, 97, 62
1, 159894, Note_on_c, 0, 97, 76
1, 159922, Note_off_c, 0, 97, 63
1, 159979, Note_on_c, 0, 97, 90
1, 159989, Note_on_c, 0, 85, 87
1, 160018, Note_off_c, 0, 97, 64
1, 160072, Note_on_c, 0, 97, 78
1, 160131, Note_off_c, 0, 97, 63
1, 160140, Note_off_c, 0, 85, 61
1, 160166, Note_on_c, 0, 91, 73
1, 160168, Note_on_c, 0, 101, 79
1, 160200, Note_on_c, 0, 100, 70
1, 160214, Note_on_c, 0, 86, 69
1, 160214, Note_off_c, 0, 91, 62
1, 160233, Note_on_c, 0, 98, 81
1, 160249, Note_on_c, 0, 85, 75
1, 160250, Note_off_c, 0, 101, 47
1, 160266, Note_on_c, 0, 97, 81
1, 160271, Note_off_c, 0, 86, 60
1, 160274, Note_off_c, 0, 100, 63
1, 160294, Note_off_c, 0, 98, 64
1, 160297, Note_on_c, 0, 80, 77
1, 160312, Note_off_c, 0, 85, 63
1, 160345, Note_on_c, 0, 92, 79
1, 160349, Note_off_c, 0, 97, 63
1, 160378, Note_on_c, 0, 88, 72
1, 160389, Note_off_c, 0, 80, 59
1, 160395, Note_off_c, 0, 92, 63
1, 160405, Note_on_c, 0, 98, 81
1, 160415, Note_on_c, 0, 83, 81
1, 160422, Note_off_c, 0, 88, 51
1, 160432, Note_on_c, 0, 96, 77
1, 160452, Note_on_c, 0, 82, 75
1, 160460, Note_on_c, 0, 95, 78
1, 160480, Note_off_c, 0, 83, 62
1, 160481, Note_off_c, 0, 98, 51
1, 160497, Note_on_c, 0, 94, 82
1, 160501, Note_off_c, 0, 96, 61
1, 160514, Note_on_c, 0, 77, 75
1, 160515, Note_off_c, 0, 82, 62
1, 160525, Note_off_c, 0, 95, 63
1, 160544, Note_on_c, 0, 89, 79
1, 160551, Note_off_c, 0, 94, 65
1, 160557, Note_on_c, 0, 85, 75
1, 160581, Note_off_c, 0, 77, 60
1, 160588, Note_on_c, 0, 97, 85
1, 160590, Note_on_c, 0, 80, 75
1, 160609, Note_off_c, 0, 85, 63
1, 160629, Note_off_c, 0, 89, 50
1, 160629, Note_on_c, 0, 79, 71
1, 160655, Note_on_c, 0, 92, 86
1, 160664, Note_off_c, 0, 80, 59
1, 160667, Note_on_c, 0, 94, 42
1, 160686, Note_off_c, 0, 97, 62
1, 160691, Note_on_c, 0, 74, 80
1, 160691, Note_off_c, 0, 94, 57
1, 160694, Note_off_c, 0, 79, 62
1, 160701, Note_on_c, 0, 91, 78
1, 160737, Note_on_c, 0, 82, 71
1, 160739, Note_off_c, 0, 92, 63
1, 160744, Note_on_c, 0, 86, 77
1, 160757, Note_off_c, 0, 74, 50
1, 160781, Note_off_c, 0, 82, 63
1, 160784, Note_on_c, 0, 94, 74
1, 160790, Note_on_c, 0, 77, 78
1, 160800, Note_off_c, 0, 91, 59
1, 160820, Note_off_c, 0, 86, 62
1, 160861, Note_off_c, 0, 94, 63
1, 160863, Note_on_c, 0, 89, 88
1, 160867, Note_off_c, 0, 77, 60
1, 160869, Note_on_c, 0, 71, 74
1, 160909, Note_on_c, 0, 88, 77
1, 160921, Note_on_c, 0, 79, 72
1, 160932, Note_off_c, 0, 71, 61
1, 160934, Note_off_c, 0, 89, 60
1, 160943, Note_on_c, 0, 84, 79
1, 160959, Note_off_c, 0, 88, 64
1, 160966, Note_on_c, 0, 74, 74
1, 160975, Note_off_c, 0, 79, 62
1, 161006, Note_on_c, 0, 73, 81
1, 161013, Note_off_c, 0, 84, 60
1, 161015, Note_on_c, 0, 89, 71
1, 161026, Note_on_c, 0, 88, 75
1, 161039, Note_off_c, 0, 74, 60
1, 161061, Note_on_c, 0, 86, 76
1, 161076, Note_on_c, 0, 68, 78
1, 161094, Note_off_c, 0, 73, 62
1, 161100, Note_off_c, 0, 89, 58
1, 161106, Note_on_c, 0, 85, 81
1, 161112, Note_off_c, 0, 88, 63
1, 161135, Note_off_c, 0, 86, 63
1, 161148, Note_on_c, 0, 76, 83
1, 161160, Note_off_c, 0, 85, 65
1, 161165, Note_off_c, 0, 68, 59
1, 161168, Note_on_c, 0, 79, 65
1, 161169, Note_on_c, 0, 81, 65
1, 161187, Note_off_c, 0, 79, 64
1, 161190, Note_on_c, 0, 71, 73
1, 161216, Note_off_c, 0, 76, 59
1, 161221, Note_on_c, 0, 86, 72
1, 161229, Note_on_c, 0, 84, 80
1, 161230, Note_off_c, 0, 81, 62
1, 161237, Note_on_c, 0, 70, 73
1, 161261, Note_on_c, 0, 83, 82
1, 161273, Note_off_c, 0, 71, 61
1, 161297, Note_on_c, 0, 82, 81
1, 161298, Note_on_c, 0, 66, 62
1, 161300, Note_off_c, 0, 70, 59
1, 161301, Note_on_c, 0, 65, 67
1, 161302, Note_off_c, 0, 86, 61
1, 161303, Note_off_c, 0, 84, 61
1, 161327, Note_off_c, 0, 83, 63
1, 161341, Note_on_c, 0, 77, 80
1, 161343, Note_on_c, 0, 73, 79
1, 161357, Note_off_c, 0, 82, 64
1, 161359, Note_off_c, 0, 65, 57
1, 161368, Note_on_c, 0, 68, 73
1, 161371, Note_off_c, 0, 66, 51
1, 161395, Note_on_c, 0, 85, 84
1, 161410, Note_off_c, 0, 73, 60
1, 161416, Note_off_c, 0, 77, 58
1, 161425, Note_on_c, 0, 67, 71
1, 161452, Note_on_c, 0, 62, 82
1, 161453, Note_on_c, 0, 80, 84
1, 161456, Note_off_c, 0, 68, 59
1, 161458, Note_off_c, 0, 67, 61
1, 161458, Note_on_c, 0, 82, 46
1, 161486, Note_off_c, 0, 82, 57
1, 161487, Note_on_c, 0, 79, 76
1, 161490, Note_off_c, 0, 85, 65
1, 161514, Note_on_c, 0, 70, 83
1, 161530, Note_on_c, 0, 74, 84
1, 161533, Note_off_c, 0, 80, 64
1, 161535, Note_off_c, 0, 62, 58
1, 161559, Note_on_c, 0, 65, 75
1, 161562, Note_off_c, 0, 79, 60
1, 161579, Note_off_c, 0, 70, 60
1, 161587, Note_on_c, 0, 82, 79
1, 161607, Note_off_c, 0, 74, 62
1, 161630, Note_on_c, 0, 59, 82
1, 161636, Note_off_c, 0, 65, 63
1, 161641, Note_on_c, 0, 80, 63
1, 161655, Note_on_c, 0, 77, 87
1, 161658, Note_off_c, 0, 80, 65
1, 161687, Note_on_c, 0, 76, 81
1, 161689, Note_off_c, 0, 82, 62
1, 161694, Note_on_c, 0, 67, 84
1, 161702, Note_on_c, 0, 79, 18
1, 161715, Note_off_c, 0, 59, 56
1, 161732, Note_off_c, 0, 77, 60
1, 161737, Note_on_c, 0, 72, 79
1, 161747, Note_on_c, 0, 62, 69
1, 161749, Note_off_c, 0, 76, 62
1, 161749, Note_off_c, 0, 79, 38
1, 161750, Note_on_c, 0, 74, 63
1, 161768, Note_off_c, 0, 74, 62
1, 161781, Note_off_c, 0, 67, 59
1, 161792, Note_on_c, 0, 61, 82
1, 161810, Note_on_c, 0, 77, 77
1, 161816, Note_on_c, 0, 76, 79
1, 161833, Note_off_c, 0, 72, 62
1, 161838, Note_off_c, 0, 62, 58
1, 161839, Note_on_c, 0, 74, 82
1, 161885, Note_off_c, 0, 61, 61
1, 161886, Note_on_c, 0, 73, 89
1, 161902, Note_on_c, 0, 64, 84
1, 161908, Note_off_c, 0, 76, 59
1, 161916, Note_off_c, 0, 74, 62
1, 161921, Note_off_c, 0, 77, 56
1, 161938, Note_on_c, 0, 69, 77
1, 161943, Note_on_c, 0, 71, 77
1, 161963, Note_off_c, 0, 73, 63
1, 161984, Note_on_c, 0, 59, 67
1, 162000, Note_off_c, 0, 71, 60
1, 162000, Note_on_c, 0, 72, 78
1, 162000, Note_off_c, 0, 69, 63
1, 162019, Note_off_c, 0, 64, 58
1, 162022, Note_on_c, 0, 58, 65
1, 162053, Note_on_c, 0, 71, 48
1, 162060, Note_on_c, 0, 74, 13
1, 162074, Note_on_c, 0, 70, 51
1, 162085, Note_on_c, 0, 53, 90
1, 162089, Note_on_c, 0, 65, 104
1, 162101, Note_off_c, 0, 74, 59
1, 162109, Note_on_c, 0, 67, 61
1, 162110, Note_off_c, 0, 67, 127
1, 162110, Note_on_c, 0, 57, 37
1, 162111, Note_off_c, 0, 59, 57
1, 162115, Note_off_c, 0, 58, 62
1, 162118, Note_on_c, 0, 69, 51
1, 162121, Note_off_c, 0, 53, 64
1, 162126, Note_on_c, 0, 55, 20
1, 162137, Note_off_c, 0, 69, 63
1, 162138, Note_off_c, 0, 65, 63
1, 162140, Note_off_c, 0, 57, 55
1, 162165, Note_off_c, 0, 71, 32
1, 162166, Note_off_c, 0, 55, 52
1, 162175, Note_off_c, 0, 70, 36
1, 162182, Note_off_c, 0, 72, 35
1, 162947, Control_c, 0, 64, 79
1, 162961, Control_c, 0, 64, 62
1, 162976, Control_c, 0, 64, 46
1, 162991, Control_c, 0, 64, 27
1, 163006, Control_c, 0, 64, 0
1, 163354, Control_c, 0, 64, 16
1, 163369, Control_c, 0, 64, 20
1, 163384, Control_c, 0, 64, 23
1, 163399, Control_c, 0, 64, 26
1, 163413, Control_c, 0, 64, 29
1, 163428, Control_c, 0, 64, 32
1, 163443, Control_c, 0, 64, 34
1, 163458, Control_c, 0, 64, 37
1, 163473, Control_c, 0, 64, 39
1, 163488, Control_c, 0, 64, 42
1, 163502, Control_c, 0, 64, 45
1, 163517, Control_c, 0, 64, 49
1, 163532, Control_c, 0, 64, 51
1, 163547, Control_c, 0, 64, 52
1, 163562, Control_c, 0, 64, 54
1, 163577, Control_c, 0, 64, 56
1, 163592, Control_c, 0, 64, 58
1, 163606, Control_c, 0, 64, 59
1, 163621, Control_c, 0, 64, 60
1, 163636, Control_c, 0, 64, 61
1, 163651, Control_c, 0, 64, 62
1, 163666, Control_c, 0, 64, 64
1, 163666, Control_c, 0, 67, 19
1, 163680, Control_c, 0, 64, 65
1, 163680, Control_c, 0, 67, 25
1, 163696, Control_c, 0, 64, 66
1, 163696, Control_c, 0, 67, 32
1, 163711, Control_c, 0, 64, 68
1, 163711, Control_c, 0, 67, 40
1, 163726, Control_c, 0, 64, 70
1, 163726, Control_c, 0, 67, 48
1, 163741, Control_c, 0, 64, 73
1, 163741, Control_c, 0, 67, 58
1, 163756, Control_c, 0, 64, 76
1, 163756, Control_c, 0, 67, 70
1, 163771, Control_c, 0, 64, 79
1, 163771, Control_c, 0, 67, 82
1, 163785, Control_c, 0, 64, 81
1, 163785, Control_c, 0, 67, 95
1, 163800, Control_c, 0, 64, 84
1, 163800, Control_c, 0, 67, 108
1, 163815, Control_c, 0, 64, 87
1, 163815, Control_c, 0, 67, 119
1, 163829, Control_c, 0, 64, 89
1, 163829, Control_c, 0, 67, 125
1, 163844, Control_c, 0, 64, 92
1, 163844, Control_c, 0, 67, 127
1, 163859, Control_c, 0, 64, 94
1, 163874, Control_c, 0, 64, 97
1, 163889, Control_c, 0, 64, 100
1, 163903, Control_c, 0, 64, 103
1, 163918, Control_c, 0, 64, 105
1, 163933, Control_c, 0, 64, 108
1, 163948, Control_c, 0, 64, 111
1, 163963, Control_c, 0, 64, 115
1, 163977, Control_c, 0, 64, 121
1, 163992, Control_c, 0, 64, 127
1, 164541, Note_on_c, 0, 40, 39
1, 164544, Note_on_c, 0, 28, 38
1, 164582, Note_off_c, 0, 28, 55
1, 164587, Note_off_c, 0, 40, 59
1, 164923, Note_on_c, 0, 47, 56
1, 164960, Note_off_c, 0, 47, 61
1, 165059, Note_on_c, 0, 65, 52
1, 165061, Note_on_c, 0, 73, 50
1, 165061, Note_on_c, 0, 77, 53
1, 165068, Note_on_c, 0, 70, 44
1, 165076, Note_on_c, 0, 62, 60
1, 165090, Note_on_c, 0, 52, 46
1, 165092, Note_on_c, 0, 56, 45
1, 165144, Note_off_c, 0, 70, 0
1, 165144, Note_on_c, 0, 70, 4
1, 165334, Note_off_c, 0, 65, 52
1, 165443, Note_off_c, 0, 70, 51
1, 165473, Note_off_c, 0, 77, 39
1, 165517, Note_off_c, 0, 73, 49
1, 165532, Note_off_c, 0, 52, 35
1, 165597, Note_off_c, 0, 62, 34
1, 165643, Note_off_c, 0, 56, 35
1, 166176, Note_on_c, 0, 86, 53
1, 166187, Note_on_c, 0, 74, 57
1, 166252, Note_on_c, 0, 91, 60
1, 166256, Note_off_c, 0, 86, 51
1, 166267, Note_on_c, 0, 79, 57
1, 166291, Note_off_c, 0, 74, 35
1, 166295, Note_off_c, 0, 91, 55
1, 166304, Note_on_c, 0, 92, 64
1, 166338, Note_on_c, 0, 80, 55
1, 166370, Note_off_c, 0, 79, 36
1, 166388, Note_on_c, 0, 97, 73
1, 166391, Note_off_c, 0, 80, 59
1, 166393, Note_off_c, 0, 92, 63
1, 166399, Note_on_c, 0, 85, 74
1, 166415, Note_off_c, 0, 97, 59
1, 166441, Note_off_c, 0, 85, 48
1, 166522, Note_on_c, 0, 97, 64
1, 166567, Note_off_c, 0, 97, 53
1, 166648, Note_on_c, 0, 97, 54
1, 166669, Note_off_c, 0, 97, 63
1, 166741, Note_on_c, 0, 97, 80
1, 166760, Note_on_c, 0, 85, 78
1, 166779, Note_off_c, 0, 97, 63
1, 166793, Note_off_c, 0, 85, 60
1, 166871, Note_on_c, 0, 97, 58
1, 166898, Note_off_c, 0, 97, 60
1, 166980, Note_on_c, 0, 97, 65
1, 167012, Note_off_c, 0, 97, 63
1, 167092, Note_on_c, 0, 85, 77
1, 167093, Note_on_c, 0, 97, 82
1, 167125, Note_off_c, 0, 85, 58
1, 167130, Note_off_c, 0, 97, 63
1, 167222, Note_on_c, 0, 97, 54
1, 167242, Note_off_c, 0, 97, 63
1, 167330, Note_on_c, 0, 97, 81
1, 167351, Note_on_c, 0, 85, 75
1, 167371, Note_off_c, 0, 97, 62
1, 167384, Note_off_c, 0, 85, 58
1, 167465, Note_on_c, 0, 97, 61
1, 167490, Note_off_c, 0, 97, 60
1, 167565, Note_on_c, 0, 97, 67
1, 167593, Note_off_c, 0, 97, 64
1, 167672, Note_on_c, 0, 85, 81
1, 167673, Note_on_c, 0, 97, 84
1, 167710, Note_off_c, 0, 97, 63
1, 167721, Note_off_c, 0, 85, 60
1, 167798, Note_on_c, 0, 97, 61
1, 167823, Note_off_c, 0, 97, 66
1, 167909, Note_on_c, 0, 97, 67
1, 167940, Note_off_c, 0, 97, 62
1, 168016, Note_on_c, 0, 85, 66
1, 168016, Note_on_c, 0, 97, 73
1, 168041, Note_off_c, 0, 97, 64
1, 168116, Note_on_c, 0, 97, 68
1, 168155, Note_off_c, 0, 97, 54
1, 168169, Note_off_c, 0, 85, 61
1, 168200, Note_on_c, 0, 91, 65
1, 168206, Note_on_c, 0, 101, 72
1, 168236, Note_off_c, 0, 91, 59
1, 168261, Note_on_c, 0, 86, 57
1, 168276, Note_on_c, 0, 98, 75
1, 168292, Note_on_c, 0, 100, 15
1, 168295, Note_on_c, 0, 85, 62
1, 168308, Note_off_c, 0, 101, 37
1, 168311, Note_off_c, 0, 86, 47
1, 168323, Note_on_c, 0, 97, 77
1, 168333, Note_off_c, 0, 98, 62
1, 168334, Note_off_c, 0, 100, 51
1, 168336, Note_on_c, 0, 80, 70
1, 168340, Note_off_c, 0, 85, 61
1, 168389, Note_off_c, 0, 97, 60
1, 168391, Note_on_c, 0, 92, 70
1, 168410, Note_off_c, 0, 80, 57
1, 168413, Note_on_c, 0, 88, 62
1, 168430, Note_off_c, 0, 92, 59
1, 168448, Note_off_c, 0, 88, 58
1, 168451, Note_on_c, 0, 98, 72
1, 168465, Note_on_c, 0, 83, 70
1, 168486, Note_on_c, 0, 82, 75
1, 168498, Note_on_c, 0, 96, 62
1, 168499, Note_off_c, 0, 83, 55
1, 168513, Control_c, 0, 67, 127
1, 168522, Note_off_c, 0, 98, 61
1, 168523, Note_on_c, 0, 95, 71
1, 168527, Note_off_c, 0, 96, 62
1, 168528, Control_c, 0, 67, 126
1, 168537, Note_on_c, 0, 94, 63
1, 168543, Note_off_c, 0, 82, 61
1, 168543, Control_c, 0, 67, 126
1, 168553, Note_on_c, 0, 77, 69
1, 168558, Control_c, 0, 67, 125
1, 168577, Note_off_c, 0, 95, 57
1, 168580, Control_c, 0, 67, 124
1, 168595, Control_c, 0, 67, 124
1, 168598, Note_on_c, 0, 89, 73
1, 168605, Note_on_c, 0, 85, 65
1, 168605, Note_off_c, 0, 94, 63
1, 168624, Note_off_c, 0, 77, 58
1, 168624, Control_c, 0, 67, 123
1, 168639, Control_c, 0, 67, 122
1, 168644, Note_on_c, 0, 97, 79
1, 168646, Note_on_c, 0, 80, 71
1, 168654, Control_c, 0, 67, 122
1, 168660, Note_off_c, 0, 85, 63
1, 168669, Control_c, 0, 67, 121
1, 168675, Note_off_c, 0, 89, 58
1, 168679, Note_on_c, 0, 79, 66
1, 168708, Note_on_c, 0, 92, 84
1, 168710, Note_off_c, 0, 80, 53
1, 168713, Note_off_c, 0, 97, 63
1, 168722, Note_on_c, 0, 94, 41
1, 168741, Note_off_c, 0, 79, 62
1, 168747, Note_on_c, 0, 74, 76
1, 168749, Note_off_c, 0, 94, 56
1, 168759, Note_on_c, 0, 91, 69
1, 168773, Control_c, 0, 67, 121
1, 168789, Note_on_c, 0, 82, 69
1, 168792, Note_off_c, 0, 92, 63
1, 168793, Note_on_c, 0, 86, 76
1, 168802, Control_c, 0, 67, 120
1, 168817, Control_c, 0, 67, 119
1, 168827, Note_off_c, 0, 74, 56
1, 168832, Control_c, 0, 67, 116
1, 168833, Note_off_c, 0, 91, 58
1, 168837, Note_on_c, 0, 94, 76
1, 168837, Note_off_c, 0, 82, 60
1, 168842, Note_on_c, 0, 77, 68
1, 168847, Control_c, 0, 67, 110
1, 168862, Control_c, 0, 67, 95
1, 168877, Control_c, 0, 67, 72
1, 168878, Note_off_c, 0, 86, 59
1, 168891, Control_c, 0, 67, 38
1, 168906, Control_c, 0, 67, 0
1, 168910, Note_off_c, 0, 94, 61
1, 168916, Note_on_c, 0, 89, 84
1, 168919, Note_off_c, 0, 77, 59
1, 168925, Note_on_c, 0, 71, 69
1, 168969, Note_on_c, 0, 88, 68
1, 168985, Note_off_c, 0, 89, 60
1, 168986, Note_on_c, 0, 79, 65
1, 168993, Note_off_c, 0, 71, 59
1, 168999, Note_on_c, 0, 84, 79
1, 169014, Note_off_c, 0, 88, 59
1, 169032, Note_on_c, 0, 74, 65
1, 169043, Note_off_c, 0, 79, 58
1, 169063, Note_on_c, 0, 73, 76
1, 169069, Note_on_c, 0, 89, 72
1, 169071, Note_off_c, 0, 84, 62
1, 169089, Note_on_c, 0, 88, 69
1, 169096, Note_off_c, 0, 74, 55
1, 169118, Note_on_c, 0, 86, 75
1, 169133, Note_on_c, 0, 68, 75
1, 169139, Note_off_c, 0, 73, 62
1, 169160, Note_on_c, 0, 85, 82
1, 169160, Note_off_c, 0, 89, 56
1, 169160, Note_off_c, 0, 88, 56
1, 169183, Note_off_c, 0, 86, 61
1, 169204, Note_on_c, 0, 76, 83
1, 169209, Note_on_c, 0, 81, 77
1, 169212, Note_off_c, 0, 68, 54
1, 169214, Note_off_c, 0, 85, 64
1, 169237, Note_on_c, 0, 71, 66
1, 169262, Note_off_c, 0, 76, 57
1, 169278, Note_on_c, 0, 86, 73
1, 169287, Note_on_c, 0, 84, 77
1, 169288, Note_off_c, 0, 81, 62
1, 169294, Note_on_c, 0, 70, 74
1, 169330, Note_on_c, 0, 83, 83
1, 169332, Note_off_c, 0, 71, 59
1, 169360, Note_on_c, 0, 65, 67
1, 169363, Note_off_c, 0, 70, 59
1, 169365, Note_off_c, 0, 84, 59
1, 169366, Note_on_c, 0, 82, 83
1, 169368, Note_off_c, 0, 86, 60
1, 169391, Note_off_c, 0, 83, 63
1, 169404, Note_on_c, 0, 73, 75
1, 169411, Note_on_c, 0, 77, 77
1, 169425, Note_off_c, 0, 65, 60
1, 169425, Note_off_c, 0, 82, 63
1, 169428, Note_on_c, 0, 68, 66
1, 169461, Note_on_c, 0, 85, 80
1, 169462, Note_on_c, 0, 66, 50
1, 169463, Note_off_c, 0, 73, 60
1, 169487, Note_off_c, 0, 77, 56
1, 169513, Note_off_c, 0, 68, 59
1, 169515, Note_on_c, 0, 82, 61
1, 169519, Note_on_c, 0, 80, 85
1, 169522, Note_on_c, 0, 62, 79
1, 169527, Note_off_c, 0, 85, 66
1, 169539, Note_off_c, 0, 66, 59
1, 169554, Note_off_c, 0, 82, 60
1, 169558, Note_on_c, 0, 79, 65
1, 169585, Note_on_c, 0, 70, 70
1, 169600, Note_on_c, 0, 74, 81
1, 169600, Note_off_c, 0, 80, 62
1, 169601, Note_off_c, 0, 62, 59
1, 169622, Note_on_c, 0, 68, 39
1, 169625, Note_off_c, 0, 79, 60
1, 169643, Note_off_c, 0, 70, 60
1, 169644, Note_off_c, 0, 68, 57
1, 169646, Note_on_c, 0, 65, 61
1, 169653, Note_on_c, 0, 64, 60
1, 169653, Note_on_c, 0, 82, 85
1, 169676, Note_off_c, 0, 74, 60
1, 169699, Note_off_c, 0, 64, 52
1, 169701, Note_off_c, 0, 65, 59
1, 169707, Note_on_c, 0, 59, 77
1, 169722, Note_on_c, 0, 77, 86
1, 169726, Poly_aftertouch_c, 0, 76, 0
1, 169753, Note_off_c, 0, 82, 62
1, 169756, Note_on_c, 0, 76, 66
1, 169760, Note_on_c, 0, 67, 80
1, 169785, Note_off_c, 0, 59, 60
1, 169794, Note_off_c, 0, 77, 61
1, 169800, Note_on_c, 0, 72, 80
1, 169807, Note_on_c, 0, 62, 68
1, 169822, Note_off_c, 0, 76, 62
1, 169840, Note_off_c, 0, 67, 56
1, 169853, Note_on_c, 0, 61, 78
1, 169869, Note_on_c, 0, 77, 76
1, 169882, Note_on_c, 0, 76, 79
1, 169886, Note_off_c, 0, 72, 60
1, 169904, Note_off_c, 0, 62, 49
1, 169914, Note_on_c, 0, 74, 84
1, 169921, Note_on_c, 0, 56, 80
1, 169944, Note_off_c, 0, 61, 60
1, 169952, Note_on_c, 0, 73, 87
1, 169963, Note_off_c, 0, 76, 58
1, 169971, Note_off_c, 0, 77, 58
1, 169982, Note_off_c, 0, 74, 62
1, 170001, Note_on_c, 0, 69, 85
1, 170001, Note_on_c, 0, 64, 80
1, 170015, Note_off_c, 0, 73, 64
1, 170019, Note_off_c, 0, 56, 60
1, 170046, Note_on_c, 0, 59, 76
1, 170078, Note_on_c, 0, 74, 83
1, 170081, Note_on_c, 0, 72, 90
1, 170087, Note_on_c, 0, 58, 83
1, 170094, Note_off_c, 0, 64, 56
1, 170100, Note_off_c, 0, 69, 63
1, 170111, Note_on_c, 0, 71, 83
1, 170134, Note_off_c, 0, 59, 59
1, 170146, Note_on_c, 0, 53, 80
1, 170152, Note_on_c, 0, 70, 87
1, 170156, Note_off_c, 0, 72, 60
1, 170159, Note_off_c, 0, 58, 59
1, 170166, Note_off_c, 0, 74, 60
1, 170170, Note_on_c, 0, 56, 20
1, 170178, Note_off_c, 0, 71, 62
1, 170195, Note_on_c, 0, 65, 82
1, 170204, Note_on_c, 0, 61, 82
1, 170204, Note_off_c, 0, 56, 0
1, 170209, Note_off_c, 0, 70, 63
1, 170224, Note_on_c, 0, 56, 53
1, 170230, Note_off_c, 0, 53, 55
1, 170253, Note_on_c, 0, 73, 87
1, 170275, Note_off_c, 0, 65, 59
1, 170277, Note_on_c, 0, 55, 78
1, 170281, Note_off_c, 0, 61, 60
1, 170284, Note_on_c, 0, 70, 69
1, 170310, Note_on_c, 0, 68, 82
1, 170317, Note_on_c, 0, 50, 83
1, 170319, Note_off_c, 0, 56, 61
1, 170333, Note_off_c, 0, 55, 58
1, 170353, Note_on_c, 0, 67, 69
1, 170357, Note_off_c, 0, 73, 62
1, 170361, Note_off_c, 0, 70, 60
1, 170382, Poly_aftertouch_c, 0, 54, 127
1, 170383, Note_on_c, 0, 58, 79
1, 170394, Note_on_c, 0, 62, 86
1, 170401, Note_off_c, 0, 68, 59
1, 170409, Note_off_c, 0, 50, 59
1, 170409, Poly_aftertouch_c, 0, 54, 0
1, 170409, Note_on_c, 0, 56, 63
1, 170418, Note_off_c, 0, 67, 59
1, 170428, Note_on_c, 0, 53, 72
1, 170432, Note_off_c, 0, 56, 62
1, 170451, Note_off_c, 0, 58, 60
1, 170462, Note_on_c, 0, 69, 83
1, 170477, Note_off_c, 0, 62, 60
1, 170496, Note_on_c, 0, 47, 87
1, 170500, Note_on_c, 0, 67, 65
1, 170502, Note_off_c, 0, 53, 62
1, 170512, Note_on_c, 0, 65, 82
1, 170513, Poly_aftertouch_c, 0, 54, 127
1, 170537, Note_on_c, 0, 49, 25
1, 170537, Note_on_c, 0, 63, 82
1, 170543, Poly_aftertouch_c, 0, 54, 0
1, 170553, Note_off_c, 0, 69, 62
1, 170556, Note_on_c, 0, 55, 78
1, 170573, Note_off_c, 0, 67, 58
1, 170580, Note_off_c, 0, 49, 47
1, 170587, Note_on_c, 0, 60, 84
1, 170593, Note_off_c, 0, 65, 61
1, 170598, Note_off_c, 0, 47, 54
1, 170619, Note_off_c, 0, 63, 60
1, 170621, Note_on_c, 0, 50, 65
1, 170667, Note_off_c, 0, 55, 55
1, 170671, Note_on_c, 0, 49, 78
1, 170674, Note_on_c, 0, 64, 78
1, 170679, Note_on_c, 0, 62, 43
1, 170697, Note_on_c, 0, 61, 77
1, 170708, Note_off_c, 0, 50, 60
1, 170736, Note_off_c, 0, 60, 0
1, 170753, Note_on_c, 0, 60, 55
1, 170755, Note_off_c, 0, 49, 62
1, 170764, Note_on_c, 0, 52, 82
1, 170768, Note_off_c, 0, 62, 56
1, 170768, Note_off_c, 0, 64, 58
1, 170794, Note_on_c, 0, 57, 80
1, 170832, Note_off_c, 0, 60, 53
1, 170853, Note_on_c, 0, 47, 67
1, 170854, Note_off_c, 0, 57, 63
1, 170880, Note_on_c, 0, 60, 50
1, 170885, Note_off_c, 0, 61, 24
1, 170887, Note_off_c, 0, 52, 56
1, 170889, Note_on_c, 0, 46, 75
1, 170910, Note_on_c, 0, 59, 73
1, 170923, Note_on_c, 0, 62, 47
1, 170925, Note_on_c, 0, 58, 65
1, 170937, Note_on_c, 0, 41, 89
1, 170949, Note_on_c, 0, 53, 100
1, 170952, Note_on_c, 0, 55, 92
1, 170957, Note_on_c, 0, 50, 36
1, 170961, Note_off_c, 0, 47, 58
1, 170967, Note_off_c, 0, 46, 62
1, 170975, Note_off_c, 0, 41, 66
1, 170979, Note_off_c, 0, 62, 54
1, 170990, Note_off_c, 0, 50, 53
1, 170991, Note_off_c, 0, 59, 55
1, 170995, Note_off_c, 0, 60, 54
1, 170996, Note_off_c, 0, 55, 60
1, 170999, Note_off_c, 0, 53, 62
1, 171029, Note_off_c, 0, 58, 49
1, 171537, Control_c, 0, 64, 75
1, 171552, Control_c, 0, 64, 38
1, 171575, Control_c, 0, 64, 0
1, 172123, Control_c, 0, 64, 35
1, 172129, Note_on_c, 0, 51, 80
1, 172136, Note_on_c, 0, 21, 73
1, 172138, Control_c, 0, 64, 60
1, 172141, Note_on_c, 0, 43, 70
1, 172153, Control_c, 0, 64, 68
1, 172165, Note_on_c, 0, 48, 47
1, 172168, Control_c, 0, 64, 77
1, 172183, Control_c, 0, 64, 91
1, 172198, Control_c, 0, 64, 120
1, 172213, Control_c, 0, 64, 127
1, 172223, Note_off_c, 0, 43, 54
1, 172236, Note_off_c, 0, 48, 49
1, 172314, Note_off_c, 0, 21, 58
1, 172314, Note_off_c, 0, 51, 58
1, 172585, Note_on_c, 0, 49, 86
1, 172589, Note_on_c, 0, 57, 75
1, 172593, Note_on_c, 0, 54, 73
1, 172626, Note_off_c, 0, 54, 64
1, 172633, Note_off_c, 0, 49, 64
1, 172690, Note_off_c, 0, 57, 51
1, 172880, Note_on_c, 0, 63, 86
1, 172893, Note_on_c, 0, 55, 71
1, 172899, Note_on_c, 0, 60, 70
1, 172910, Note_on_c, 0, 61, 47
1, 172938, Note_off_c, 0, 61, 48
1, 172940, Note_off_c, 0, 55, 57
1, 172950, Note_off_c, 0, 60, 53
1, 172968, Note_off_c, 0, 63, 57
1, 173062, Note_on_c, 0, 69, 88
1, 173068, Note_on_c, 0, 61, 70
1, 173073, Note_on_c, 0, 66, 83
1, 173140, Note_off_c, 0, 69, 58
1, 173159, Note_off_c, 0, 61, 56
1, 173162, Note_off_c, 0, 66, 59
1, 173200, Note_on_c, 0, 75, 87
1, 173205, Note_on_c, 0, 67, 86
1, 173206, Note_on_c, 0, 72, 84
1, 173236, Note_on_c, 0, 69, 50
1, 173237, Note_off_c, 0, 69, 127
1, 173250, Note_off_c, 0, 67, 62
1, 173273, Note_off_c, 0, 72, 60
1, 173275, Note_off_c, 0, 75, 60
1, 173351, Note_on_c, 0, 79, 88
1, 173352, Note_on_c, 0, 73, 87
1, 173363, Note_on_c, 0, 77, 65
1, 173399, Note_on_c, 0, 72, 40
1, 173402, Note_off_c, 0, 73, 54
1, 173408, Note_off_c, 0, 77, 39
1, 173427, Note_off_c, 0, 72, 52
1, 173465, Note_on_c, 0, 80, 87
1, 173480, Note_on_c, 0, 87, 76
1, 173488, Note_on_c, 0, 84, 64
1, 173495, Note_off_c, 0, 80, 66
1, 173506, Note_off_c, 0, 84, 65
1, 173510, Note_on_c, 0, 88, 46
1, 173519, Note_off_c, 0, 87, 45
1, 173534, Note_off_c, 0, 88, 58
1, 173535, Note_off_c, 0, 79, 38
1, 173575, Poly_aftertouch_c, 0, 89, 127
1, 173599, Poly_aftertouch_c, 0, 89, 0
1, 173600, Note_on_c, 0, 93, 98
1, 173605, Note_on_c, 0, 85, 72
1, 173610, Note_on_c, 0, 90, 78
1, 173625, Note_on_c, 0, 87, 55
1, 173646, Note_off_c, 0, 87, 62
1, 173682, Note_off_c, 0, 93, 61
1, 173690, Note_off_c, 0, 90, 60
1, 173693, Note_off_c, 0, 85, 59
1, 173706, Poly_aftertouch_c, 0, 84, 0
1, 173757, Note_on_c, 0, 98, 94
1, 173763, Note_on_c, 0, 96, 76
1, 173765, Note_on_c, 0, 89, 73
1, 173765, Note_on_c, 0, 95, 77
1, 173766, Note_on_c, 0, 91, 78
1, 173772, Note_on_c, 0, 97, 69
1, 173787, Note_off_c, 0, 89, 68
1, 173792, Note_off_c, 0, 91, 65
1, 173795, Note_off_c, 0, 97, 63
1, 173809, Note_off_c, 0, 95, 56
1, 173814, Note_off_c, 0, 96, 55
1, 173826, Note_off_c, 0, 98, 63
1, 173934, Note_on_c, 0, 97, 101
1, 173939, Note_on_c, 0, 102, 97
1, 173939, Note_on_c, 0, 105, 98
1, 173960, Note_off_c, 0, 102, 61
1, 173967, Note_off_c, 0, 97, 67
1, 173982, Note_off_c, 0, 105, 60
1, 174087, Note_on_c, 0, 97, 47
1, 174134, Note_off_c, 0, 97, 42
1, 174249, Note_on_c, 0, 99, 103
1, 174255, Note_on_c, 0, 91, 89
1, 174259, Note_on_c, 0, 75, 82
1, 174263, Note_on_c, 0, 96, 80
1, 174266, Note_on_c, 0, 67, 74
1, 174267, Note_on_c, 0, 72, 74
1, 174654, Note_off_c, 0, 91, 51
1, 174734, Note_off_c, 0, 96, 40
1, 174784, Note_off_c, 0, 67, 34
1, 174807, Note_off_c, 0, 72, 41
1, 174826, Note_off_c, 0, 75, 34
1, 174928, Note_off_c, 0, 99, 43
1, 175286, Note_on_c, 0, 105, 95
1, 175297, Note_on_c, 0, 97, 83
1, 175298, Note_on_c, 0, 102, 84
1, 175308, Note_on_c, 0, 81, 65
1, 175309, Note_on_c, 0, 73, 67
1, 175322, Note_on_c, 0, 78, 60
1, 175393, Note_off_c, 0, 78, 0
1, 175393, Note_on_c, 0, 78, 6
1, 175799, Note_off_c, 0, 105, 46
1, 175805, Note_off_c, 0, 81, 42
1, 175856, Note_off_c, 0, 73, 36
1, 175866, Note_off_c, 0, 97, 38
1, 175886, Note_off_c, 0, 102, 37
1, 175920, Note_off_c, 0, 78, 41
1, 176536, Note_on_c, 0, 99, 86
1, 176550, Note_on_c, 0, 91, 73
1, 176552, Note_on_c, 0, 75, 54
1, 176553, Note_on_c, 0, 72, 59
1, 176555, Note_on_c, 0, 67, 59
1, 176565, Note_on_c, 0, 96, 63
1, 177072, Note_off_c, 0, 91, 37
1, 177122, Note_off_c, 0, 72, 32
1, 177128, Note_off_c, 0, 67, 40
1, 177144, Note_off_c, 0, 96, 40
1, 177171, Note_off_c, 0, 75, 29
1, 177298, Note_off_c, 0, 99, 37
1, 177778, Note_on_c, 0, 105, 85
1, 177781, Note_on_c, 0, 97, 77
1, 177782, Note_on_c, 0, 102, 78
1, 177790, Note_on_c, 0, 78, 54
1, 177791, Note_on_c, 0, 73, 55
1, 177792, Note_on_c, 0, 81, 48
1, 178373, Note_off_c, 0, 81, 40
1, 178530, Note_off_c, 0, 105, 43
1, 178575, Note_off_c, 0, 78, 34
1, 178578, Note_off_c, 0, 102, 50
1, 178654, Note_off_c, 0, 73, 44
1, 178665, Note_off_c, 0, 97, 46
1, 179251, Note_on_c, 0, 75, 35
1, 179252, Note_on_c, 0, 72, 46
1, 179254, Note_on_c, 0, 99, 60
1, 179257, Note_on_c, 0, 67, 45
1, 179259, Note_on_c, 0, 91, 51
1, 179265, Note_on_c, 0, 96, 53
1, 179626, Control_c, 0, 67, 17
1, 179641, Control_c, 0, 67, 24
1, 179656, Control_c, 0, 67, 32
1, 179672, Control_c, 0, 67, 40
1, 179687, Control_c, 0, 67, 48
1, 179701, Control_c, 0, 67, 57
1, 179716, Control_c, 0, 67, 67
1, 179731, Control_c, 0, 67, 77
1, 179746, Control_c, 0, 67, 86
1, 179761, Control_c, 0, 67, 96
1, 179775, Control_c, 0, 67, 106
1, 179790, Control_c, 0, 67, 113
1, 179813, Control_c, 0, 67, 121
1, 179828, Control_c, 0, 67, 127
1, 179902, Note_off_c, 0, 91, 43
1, 180031, Note_off_c, 0, 96, 33
1, 180091, Note_off_c, 0, 72, 40
1, 180119, Note_off_c, 0, 67, 41
1, 180154, Note_off_c, 0, 75, 38
1, 180224, Note_off_c, 0, 99, 47
1, 180802, Note_on_c, 0, 105, 53
1, 180805, Note_on_c, 0, 73, 48
1, 180805, Note_on_c, 0, 81, 40
1, 180811, Note_on_c, 0, 97, 49
1, 180812, Note_on_c, 0, 78, 41
1, 180812, Note_on_c, 0, 102, 52
1, 181614, Note_off_c, 0, 81, 36
1, 181654, Note_off_c, 0, 105, 45
1, 181703, Note_off_c, 0, 102, 45
1, 181741, Note_off_c, 0, 73, 31
1, 181751, Note_off_c, 0, 78, 41
1, 181759, Note_off_c, 0, 97, 42
1, 182759, Note_on_c, 0, 99, 45
1, 182762, Note_on_c, 0, 72, 39
1, 182762, Note_on_c, 0, 96, 43
1, 182769, Note_on_c, 0, 91, 43
1, 182772, Note_on_c, 0, 67, 40
1, 182772, Note_on_c, 0, 75, 38
1, 183634, Note_off_c, 0, 99, 32
1, 183663, Note_off_c, 0, 91, 38
1, 183685, Note_off_c, 0, 96, 38
1, 183735, Note_off_c, 0, 72, 40
1, 183770, Note_off_c, 0, 67, 30
1, 183808, Note_off_c, 0, 75, 26
1, 184304, Control_c, 0, 67, 127
1, 184422, Control_c, 0, 67, 126
1, 184616, Control_c, 0, 67, 126
1, 185379, Control_c, 0, 67, 126
1, 185720, Control_c, 0, 67, 127
1, 186084, Control_c, 0, 67, 127
1, 186529, Control_c, 0, 67, 127
1, 186566, Control_c, 0, 67, 126
1, 186581, Control_c, 0, 67, 126
1, 186595, Control_c, 0, 67, 125
1, 186610, Control_c, 0, 67, 125
1, 186625, Control_c, 0, 67, 124
1, 186640, Control_c, 0, 67, 124
1, 186655, Control_c, 0, 67, 123
1, 186684, Control_c, 0, 67, 123
1, 186699, Control_c, 0, 67, 122
1, 186713, Control_c, 0, 67, 121
1, 186728, Control_c, 0, 67, 120
1, 186743, Control_c, 0, 67, 119
1, 186758, Control_c, 0, 67, 116
1, 186773, Control_c, 0, 67, 112
1, 186787, Control_c, 0, 67, 106
1, 186802, Control_c, 0, 67, 97
1, 186817, Control_c, 0, 64, 112
1, 186817, Control_c, 0, 67, 85
1, 186832, Control_c, 0, 64, 97
1, 186832, Control_c, 0, 67, 72
1, 186847, Control_c, 0, 64, 88
1, 186847, Control_c, 0, 67, 58
1, 186863, Control_c, 0, 64, 81
1, 186863, Control_c, 0, 67, 43
1, 186878, Control_c, 0, 64, 75
1, 186878, Control_c, 0, 67, 27
1, 186892, Control_c, 0, 64, 71
1, 186892, Control_c, 0, 67, 29
1, 186907, Control_c, 0, 64, 69
1, 186922, Control_c, 0, 64, 67
1, 186922, Control_c, 0, 67, 0
1, 186937, Control_c, 0, 64, 65
1, 186952, Control_c, 0, 64, 62
1, 186966, Control_c, 0, 64, 59
1, 186981, Control_c, 0, 64, 56
1, 186996, Control_c, 0, 64, 54
1, 187010, Control_c, 0, 64, 50
1, 187025, Control_c, 0, 64, 43
1, 187040, Control_c, 0, 64, 31
1, 187055, Control_c, 0, 64, 0
1, 187204, Control_c, 0, 64, 20
1, 187218, Control_c, 0, 64, 33
1, 187233, Control_c, 0, 64, 46
1, 187248, Control_c, 0, 64, 52
1, 187263, Control_c, 0, 64, 53
1, 187278, Control_c, 0, 64, 53
1, 187299, Control_c, 0, 64, 54
1, 187314, Control_c, 0, 64, 55
1, 187329, Control_c, 0, 64, 56
1, 187344, Control_c, 0, 64, 58
1, 187359, Control_c, 0, 64, 58
1, 187373, Control_c, 0, 64, 59
1, 187388, Control_c, 0, 64, 59
1, 187403, Control_c, 0, 64, 60
1, 187418, Control_c, 0, 64, 61
1, 187433, Control_c, 0, 64, 62
1, 187448, Control_c, 0, 64, 63
1, 187463, Control_c, 0, 64, 64
1, 187478, Control_c, 0, 64, 65
1, 187492, Control_c, 0, 64, 66
1, 187507, Control_c, 0, 64, 68
1, 187522, Control_c, 0, 64, 70
1, 187536, Control_c, 0, 64, 73
1, 187551, Control_c, 0, 64, 77
1, 187566, Control_c, 0, 64, 79
1, 187581, Control_c, 0, 64, 82
1, 187596, Control_c, 0, 64, 85
1, 187610, Control_c, 0, 64, 88
1, 187625, Control_c, 0, 64, 92
1, 187640, Control_c, 0, 64, 96
1, 187655, Control_c, 0, 64, 99
1, 187671, Control_c, 0, 64, 103
1, 187686, Control_c, 0, 64, 106
1, 187701, Control_c, 0, 64, 111
1, 187715, Control_c, 0, 64, 118
1, 187730, Control_c, 0, 64, 127
1, 188405, Note_on_c, 0, 100, 47
1, 188453, Note_on_c, 0, 99, 62
1, 188477, Note_off_c, 0, 100, 48
1, 188526, Note_on_c, 0, 94, 62
1, 188530, Note_off_c, 0, 99, 60
1, 188577, Note_on_c, 0, 93, 70
1, 188580, Note_off_c, 0, 94, 62
1, 188607, Note_on_c, 0, 88, 53
1, 188620, Note_off_c, 0, 93, 58
1, 188649, Note_on_c, 0, 87, 73
1, 188700, Note_on_c, 0, 82, 71
1, 188712, Note_on_c, 0, 81, 78
1, 188733, Note_off_c, 0, 87, 64
1, 188739, Note_on_c, 0, 85, 53
1, 188759, Note_off_c, 0, 85, 62
1, 188769, Note_on_c, 0, 76, 74
1, 188769, Note_off_c, 0, 88, 36
1, 188771, Note_on_c, 0, 75, 85
1, 188785, Note_off_c, 0, 82, 67
1, 188818, Note_off_c, 0, 81, 62
1, 188841, Note_on_c, 0, 70, 90
1, 188856, Note_on_c, 0, 73, 57
1, 188879, Note_off_c, 0, 73, 60
1, 188888, Note_on_c, 0, 71, 69
1, 188891, Poly_aftertouch_c, 0, 79, 0
1, 188891, Note_off_c, 0, 76, 57
1, 188900, Note_on_c, 0, 69, 101
1, 188905, Note_off_c, 0, 71, 63
1, 188927, Note_off_c, 0, 75, 62
1, 188928, Note_off_c, 0, 70, 54
1, 188942, Note_on_c, 0, 64, 82
1, 188950, Note_off_c, 0, 69, 67
1, 188960, Note_on_c, 0, 63, 92
1, 189016, Note_on_c, 0, 62, 50
1, 189021, Note_on_c, 0, 57, 83
1, 189023, Note_on_c, 0, 58, 81
1, 189024, Note_on_c, 0, 61, 61
1, 189046, Note_off_c, 0, 64, 58
1, 189050, Note_off_c, 0, 63, 61
1, 189052, Note_on_c, 0, 50, 82
1, 189054, Note_off_c, 0, 61, 63
1, 189067, Note_on_c, 0, 48, 80
1, 189072, Note_on_c, 0, 60, 45
1, 189072, Note_off_c, 0, 62, 58
1, 189073, Note_off_c, 0, 58, 58
1, 189082, Note_on_c, 0, 44, 89
1, 189085, Note_on_c, 0, 55, 54
1, 189098, Note_off_c, 0, 57, 61
1, 189099, Note_on_c, 0, 52, 14
1, 189099, Note_off_c, 0, 60, 56
1, 189111, Note_off_c, 0, 55, 61
1, 189118, Note_off_c, 0, 48, 63
1, 189129, Note_on_c, 0, 43, 86
1, 189137, Note_on_c, 0, 45, 78
1, 189146, Note_off_c, 0, 52, 54
1, 189158, Note_off_c, 0, 44, 62
1, 189160, Note_off_c, 0, 45, 61
1, 189178, Note_off_c, 0, 43, 62
1, 189180, Poly_aftertouch_c, 0, 47, 0
1, 189195, Note_off_c, 0, 50, 32
1, 189234, Note_on_c, 0, 38, 76
1, 189241, Note_on_c, 0, 41, 68
1, 189252, Note_on_c, 0, 40, 69
1, 189258, Note_on_c, 0, 35, 74
1, 189272, Note_on_c, 0, 33, 87
1, 189272, Control_c, 0, 64, 93
1, 189276, Note_off_c, 0, 41, 64
1, 189278, Note_on_c, 0, 34, 50
1, 189278, Note_on_c, 0, 36, 46
1, 189286, Note_off_c, 0, 40, 62
1, 189287, Control_c, 0, 64, 50
1, 189302, Control_c, 0, 64, 0
1, 189314, Note_off_c, 0, 36, 42
1, 189317, Note_off_c, 0, 38, 59
1, 189330, Note_off_c, 0, 34, 44
1, 189353, Note_off_c, 0, 35, 60
1, 189353, Note_on_c, 0, 21, 99
1, 189355, Note_off_c, 0, 33, 61
1, 189362, Control_c, 0, 64, 64
1, 189377, Control_c, 0, 64, 121
1, 189392, Control_c, 0, 64, 127
1, 189411, Poly_aftertouch_c, 0, 39, 0
1, 189462, Note_off_c, 0, 21, 59
1, 189672, Note_on_c, 0, 33, 110
1, 189734, Note_off_c, 0, 33, 57
1, 189799, Poly_aftertouch_c, 0, 29, 0
1, 189806, Poly_aftertouch_c, 0, 31, 0
1, 189901, Note_on_c, 0, 40, 98
1, 189929, Note_on_c, 0, 41, 60
1, 189983, Note_off_c, 0, 41, 39
1, 189995, Note_off_c, 0, 40, 53
1, 190074, Note_on_c, 0, 45, 97
1, 190146, Note_off_c, 0, 45, 58
1, 190212, Note_on_c, 0, 49, 100
1, 190285, Note_off_c, 0, 49, 60
1, 190353, Note_on_c, 0, 52, 96
1, 190375, Note_on_c, 0, 50, 51
1, 190376, Note_off_c, 0, 50, 127
1, 190431, Note_off_c, 0, 52, 58
1, 190488, Note_on_c, 0, 55, 94
1, 190569, Note_off_c, 0, 55, 56
1, 190607, Note_on_c, 0, 57, 81
1, 190677, Note_on_c, 0, 59, 82
1, 190726, Note_off_c, 0, 57, 60
1, 190750, Note_on_c, 0, 61, 93
1, 190776, Note_off_c, 0, 59, 57
1, 190812, Note_on_c, 0, 63, 93
1, 190822, Note_off_c, 0, 61, 59
1, 190874, Note_off_c, 0, 63, 62
1, 190875, Note_on_c, 0, 65, 70
1, 190918, Note_on_c, 0, 67, 79
1, 190920, Note_on_c, 0, 64, 7
1, 190951, Note_off_c, 0, 64, 0
1, 190969, Note_off_c, 0, 65, 61
1, 190971, Note_on_c, 0, 69, 81
1, 190974, Poly_aftertouch_c, 0, 64, 0
1, 191010, Note_off_c, 0, 69, 68
1, 191012, Note_off_c, 0, 67, 61
1, 191049, Note_on_c, 0, 67, 69
1, 191097, Note_on_c, 0, 68, 79
1, 191141, Note_off_c, 0, 67, 59
1, 191159, Note_on_c, 0, 70, 90
1, 191202, Note_off_c, 0, 68, 58
1, 191222, Note_on_c, 0, 69, 78
1, 191228, Note_on_c, 0, 71, 85
1, 191255, Note_off_c, 0, 70, 61
1, 191266, Note_on_c, 0, 67, 37
1, 191275, Note_on_c, 0, 72, 85
1, 191285, Note_off_c, 0, 71, 63
1, 191288, Note_off_c, 0, 69, 63
1, 191295, Note_off_c, 0, 67, 57
1, 191328, Note_on_c, 0, 73, 82
1, 191373, Note_on_c, 0, 75, 80
1, 191410, Note_on_c, 0, 76, 79
1, 191416, Note_off_c, 0, 72, 36
1, 191417, Note_off_c, 0, 73, 63
1, 191431, Note_off_c, 0, 75, 65
1, 191464, Note_on_c, 0, 79, 87
1, 191496, Note_on_c, 0, 80, 80
1, 191496, Note_off_c, 0, 76, 62
1, 191526, Poly_aftertouch_c, 0, 74, 0
1, 191538, Note_off_c, 0, 79, 59
1, 191549, Note_on_c, 0, 82, 93
1, 191585, Note_off_c, 0, 80, 62
1, 191591, Note_on_c, 0, 83, 86
1, 191603, Note_on_c, 0, 81, 84
1, 191618, Note_on_c, 0, 84, 80
1, 191623, Note_off_c, 0, 81, 55
1, 191633, Note_off_c, 0, 82, 64
1, 191663, Note_on_c, 0, 85, 93
1, 191685, Note_on_c, 0, 87, 79
1, 191685, Note_off_c, 0, 83, 41
1, 191721, Note_off_c, 0, 84, 52
1, 191731, Note_on_c, 0, 88, 80
1, 191738, Note_off_c, 0, 85, 67
1, 191756, Note_off_c, 0, 87, 62
1, 191766, Note_on_c, 0, 86, 48
1, 191796, Note_off_c, 0, 86, 62
1, 191800, Note_on_c, 0, 89, 70
1, 191806, Note_on_c, 0, 91, 71
1, 191809, Note_on_c, 0, 92, 92
1, 191816, Note_off_c, 0, 88, 60
1, 191840, Note_off_c, 0, 91, 60
1, 191845, Note_off_c, 0, 89, 60
1, 191856, Note_on_c, 0, 94, 92
1, 191885, Note_off_c, 0, 92, 64
1, 191900, Note_on_c, 0, 95, 82
1, 191911, Note_on_c, 0, 96, 88
1, 191921, Poly_aftertouch_c, 0, 90, 127
1, 191940, Poly_aftertouch_c, 0, 90, 0
1, 191949, Note_off_c, 0, 94, 62
1, 191955, Note_on_c, 0, 97, 92
1, 191963, Note_off_c, 0, 95, 61
1, 191970, Note_off_c, 0, 96, 59
1, 191991, Note_on_c, 0, 99, 77
1, 192024, Note_on_c, 0, 100, 86
1, 192044, Note_off_c, 0, 97, 62
1, 192065, Note_off_c, 0, 99, 62
1, 192074, Note_off_c, 0, 100, 66
1, 192128, Note_on_c, 0, 103, 88
1, 192170, Note_on_c, 0, 104, 91
1, 192182, Note_off_c, 0, 103, 63
1, 192206, Note_on_c, 0, 106, 88
1, 192228, Note_on_c, 0, 107, 91
1, 192248, Note_on_c, 0, 108, 100
1, 192264, Note_off_c, 0, 104, 66
1, 192269, Note_off_c, 0, 106, 67
1, 192291, Note_off_c, 0, 107, 65
1, 192292, Note_off_c, 0, 108, 66
1, 194918, Poly_aftertouch_c, 0, 63, 127
1, 195017, Poly_aftertouch_c, 0, 61, 127
1, 195017, Poly_aftertouch_c, 0, 68, 127
1, 195035, Poly_aftertouch_c, 0, 66, 127
1, 195133, Poly_aftertouch_c, 0, 70, 127
1, 196537, Control_c, 0, 64, 87
1, 196552, Control_c, 0, 64, 58
1, 196567, Control_c, 0, 64, 0
1, 200262, Note_on_c, 0, 57, 83
1, 200265, Note_on_c, 0, 45, 80
1, 200303, Note_off_c, 0, 45, 59
1, 200305, Note_off_c, 0, 57, 59
1, 200585, Note_on_c, 0, 55, 95
1, 200589, Note_on_c, 0, 43, 91
1, 200629, Note_off_c, 0, 43, 60
1, 200632, Note_off_c, 0, 55, 62
1, 200889, Note_on_c, 0, 52, 102
1, 200893, Note_on_c, 0, 40, 86
1, 200923, Note_off_c, 0, 40, 66
1, 200931, Note_on_c, 0, 41, 40
1, 200932, Note_off_c, 0, 41, 127
1, 200934, Note_off_c, 0, 52, 64
1, 201184, Note_on_c, 0, 51, 96
1, 201187, Note_on_c, 0, 39, 90
1, 201220, Note_off_c, 0, 39, 65
1, 201225, Note_off_c, 0, 51, 63
1, 202475, Poly_aftertouch_c, 0, 70, 0
1, 202489, Poly_aftertouch_c, 0, 68, 0
1, 202492, Poly_aftertouch_c, 0, 63, 0
1, 202492, Poly_aftertouch_c, 0, 66, 0
1, 202502, Poly_aftertouch_c, 0, 61, 0
1, 202713, Note_on_c, 0, 64, 81
1, 202740, Note_on_c, 0, 63, 79
1, 202764, Control_c, 0, 64, 42
1, 202778, Note_on_c, 0, 61, 78
1, 202779, Control_c, 0, 64, 63
1, 202793, Note_on_c, 0, 58, 84
1, 202794, Control_c, 0, 64, 73
1, 202803, Note_off_c, 0, 63, 61
1, 202809, Control_c, 0, 64, 92
1, 202817, Note_off_c, 0, 64, 57
1, 202821, Note_off_c, 0, 61, 61
1, 202824, Control_c, 0, 64, 127
1, 202829, Note_on_c, 0, 57, 92
1, 202868, Note_off_c, 0, 58, 59
1, 202881, Note_off_c, 0, 57, 66
1, 202891, Note_on_c, 0, 52, 91
1, 202898, Note_on_c, 0, 51, 89
1, 202919, Note_on_c, 0, 43, 80
1, 202940, Note_on_c, 0, 45, 80
1, 202940, Note_off_c, 0, 51, 64
1, 202947, Note_off_c, 0, 52, 63
1, 202970, Note_off_c, 0, 45, 63
1, 202970, Note_off_c, 0, 43, 63
1, 202999, Note_on_c, 0, 35, 104
1, 203005, Note_on_c, 0, 32, 80
1, 203014, Note_on_c, 0, 36, 76
1, 203017, Note_on_c, 0, 47, 3
1, 203018, Note_on_c, 0, 33, 83
1, 203023, Note_on_c, 0, 34, 61
1, 203054, Note_off_c, 0, 47, 43
1, 203064, Note_on_c, 0, 31, 45
1, 203069, Note_off_c, 0, 34, 60
1, 203087, Note_on_c, 0, 38, 45
1, 203098, Note_on_c, 0, 37, 29
1, 203115, Note_on_c, 0, 21, 120
1, 203142, Control_c, 0, 64, 77
1, 203142, Control_c, 0, 67, 23
1, 203157, Control_c, 0, 64, 0
1, 203157, Control_c, 0, 67, 31
1, 203172, Control_c, 0, 67, 24
1, 203181, Note_off_c, 0, 33, 62
1, 203187, Note_off_c, 0, 32, 60
1, 203187, Note_off_c, 0, 31, 40
1, 203187, Control_c, 0, 67, 19
1, 203191, Note_off_c, 0, 35, 61
1, 203191, Note_off_c, 0, 36, 61
1, 203199, Note_off_c, 0, 38, 62
1, 203201, Note_off_c, 0, 37, 48
1, 203217, Control_c, 0, 67, 0
1, 203232, Note_off_c, 0, 21, 64
1, 203232, End_track
0, 0, End_of_file
