0, 0, Header, 0, 1, 384
1, 0, Start_track
1, 0, Title_t, "BachPF_BWV848--Lou              "
1, 0, Text_t, "2011 ePiano Junior Competition"
1, 0, Text_t, "captured in spring and summer 2011"
1, 0, Text_t, "http://www.piano-e-competition.com/"
1, 0, Text_t, "standard-resolution version"
1, 0, Text_t, "File processed for distribution with software designed and coded by Dr. John Q. Walker, founder of Zenph Sound Innovations"
1, 0, Instrument_name_t, "Yamaha Disklavier Pro Mark IV concert grand piano, model DCFIIISM4PRO"
1, 0, Sequencer_specific, 39, 67, 113, 0, 1, 0, 1, 0, 66, 97, 99, 104, 32, 80, 70, 95, 66, 87, 86, 56, 52, 56, 32, 32, 86, 105, 118, 105, 97, 110, 32, 76, 111, 117, 32, 32, 32, 32, 32, 32
1, 0, Sequencer_specific, 6, 67, 113, 0, 0, 0, 69
1, 0, System_exclusive, 21, 67, 113, 126, 21, 0, 2, 2, 2, 5, 12, 8, 4, 14, 1, 0, 15, 3, 12, 11, 1, 247
1, 0, Sequencer_specific, 5, 67, 123, 12, 2, 1
1, 0, Tempo, 512820
1, 0, Time_signature, 4, 2, 24, 8
1, 0, System_exclusive, 5, 126, 127, 9, 1, 247
1, 1, System_exclusive, 8, 67, 16, 76, 0, 0, 126, 0, 247
1, 2, System_exclusive, 8, 67, 16, 76, 8, 9, 7, 1, 247
1, 3, Control_c, 0, 0, 108
1, 3, Control_c, 1, 0, 108
1, 3, Control_c, 2, 0, 0
1, 3, Control_c, 3, 0, 0
1, 3, Control_c, 4, 0, 0
1, 3, Control_c, 5, 0, 0
1, 3, Control_c, 6, 0, 0
1, 3, Control_c, 7, 0, 0
1, 3, Control_c, 8, 0, 0
1, 3, Control_c, 9, 0, 127
1, 3, Control_c, 10, 0, 0
1, 3, Control_c, 11, 0, 0
1, 3, Control_c, 12, 0, 0
1, 3, Control_c, 13, 0, 0
1, 3, Control_c, 14, 0, 0
1, 3, Control_c, 15, 0, 0
1, 4, Control_c, 0, 32, 0
1, 4, Control_c, 1, 32, 0
1, 4, Control_c, 2, 32, 0
1, 4, Control_c, 3, 32, 0
1, 4, Control_c, 4, 32, 0
1, 4, Control_c, 5, 32, 0
1, 4, Control_c, 6, 32, 0
1, 4, Control_c, 7, 32, 0
1, 4, Control_c, 8, 32, 0
1, 4, Control_c, 9, 32, 0
1, 4, Control_c, 10, 32, 0
1, 4, Control_c, 11, 32, 0
1, 4, Control_c, 12, 32, 0
1, 4, Control_c, 13, 32, 0
1, 4, Control_c, 14, 32, 0
1, 4, Control_c, 15, 32, 0
1, 5, Program_c, 0, 0
1, 5, Program_c, 1, 0
1, 5, Program_c, 2, 0
1, 5, Program_c, 3, 0
1, 5, Program_c, 4, 0
1, 5, Program_c, 5, 0
1, 5, Program_c, 6, 0
1, 5, Program_c, 7, 0
1, 5, Program_c, 8, 0
1, 5, Program_c, 9, 0
1, 5, Program_c, 10, 0
1, 5, Program_c, 11, 0
1, 5, Program_c, 12, 0
1, 5, Program_c, 13, 0
1, 5, Program_c, 14, 0
1, 5, Program_c, 15, 0
1, 6, Control_c, 0, 7, 100
1, 6, Control_c, 1, 7, 100
1, 6, Control_c, 2, 7, 100
1, 6, Control_c, 3, 7, 100
1, 6, Control_c, 4, 7, 100
1, 6, Control_c, 5, 7, 100
1, 6, Control_c, 6, 7, 100
1, 6, Control_c, 7, 7, 100
1, 6, Control_c, 8, 7, 100
1, 6, Control_c, 9, 7, 100
1, 6, Control_c, 10, 7, 100
1, 6, Control_c, 11, 7, 100
1, 6, Control_c, 12, 7, 100
1, 6, Control_c, 13, 7, 100
1, 6, Control_c, 14, 7, 100
1, 6, Control_c, 15, 7, 100
1, 42, Control_c, 0, 64, 4
1, 79, Control_c, 0, 64, 8
1, 116, Control_c, 0, 64, 12
1, 153, Control_c, 0, 64, 17
1, 190, Control_c, 0, 64, 20
1, 226, Control_c, 0, 64, 25
1, 263, Control_c, 0, 64, 28
1, 300, Control_c, 0, 64, 34
1, 381, Note_on_c, 0, 77, 62
1, 386, Note_on_c, 0, 49, 40
1, 475, Note_off_c, 0, 77, 58
1, 480, Note_on_c, 0, 73, 57
1, 554, Note_off_c, 0, 73, 63
1, 564, Note_off_c, 0, 49, 61
1, 566, Note_on_c, 0, 68, 55
1, 631, Note_on_c, 0, 73, 51
1, 639, Note_off_c, 0, 68, 58
1, 649, Control_c, 0, 64, 33
1, 664, Control_c, 0, 64, 33
1, 679, Control_c, 0, 64, 31
1, 694, Control_c, 0, 64, 28
1, 715, Control_c, 0, 64, 22
1, 725, Note_off_c, 0, 73, 63
1, 730, Control_c, 0, 64, 0
1, 733, Note_on_c, 0, 77, 66
1, 739, Note_on_c, 0, 61, 61
1, 772, Note_off_c, 0, 61, 64
1, 807, Note_off_c, 0, 77, 62
1, 809, Note_on_c, 0, 73, 55
1, 891, Note_off_c, 0, 73, 62
1, 898, Note_on_c, 0, 51, 59
1, 899, Note_on_c, 0, 78, 59
1, 977, Note_off_c, 0, 78, 63
1, 981, Note_on_c, 0, 73, 51
1, 1037, Note_off_c, 0, 51, 59
1, 1052, Note_off_c, 0, 73, 55
1, 1058, Note_on_c, 0, 78, 64
1, 1126, Note_off_c, 0, 78, 61
1, 1136, Note_on_c, 0, 73, 62
1, 1210, Note_off_c, 0, 73, 57
1, 1218, Note_on_c, 0, 78, 70
1, 1224, Note_on_c, 0, 61, 62
1, 1256, Note_off_c, 0, 61, 65
1, 1274, Note_off_c, 0, 78, 61
1, 1297, Note_on_c, 0, 73, 65
1, 1362, Note_off_c, 0, 73, 57
1, 1372, Note_on_c, 0, 80, 75
1, 1386, Note_on_c, 0, 53, 66
1, 1442, Note_off_c, 0, 80, 62
1, 1466, Note_on_c, 0, 73, 67
1, 1529, Note_off_c, 0, 73, 59
1, 1541, Note_on_c, 0, 80, 76
1, 1552, Note_off_c, 0, 53, 61
1, 1597, Note_off_c, 0, 80, 62
1, 1610, Note_on_c, 0, 73, 72
1, 1684, Note_off_c, 0, 73, 55
1, 1695, Note_on_c, 0, 80, 81
1, 1717, Note_on_c, 0, 61, 69
1, 1747, Note_off_c, 0, 61, 66
1, 1751, Note_off_c, 0, 80, 63
1, 1772, Note_on_c, 0, 73, 75
1, 1838, Note_off_c, 0, 73, 60
1, 1857, Note_on_c, 0, 82, 81
1, 1869, Note_on_c, 0, 54, 66
1, 1922, Note_off_c, 0, 82, 63
1, 1941, Note_on_c, 0, 73, 73
1, 2002, Note_off_c, 0, 73, 60
1, 2021, Note_on_c, 0, 82, 83
1, 2039, Note_off_c, 0, 54, 62
1, 2078, Note_off_c, 0, 82, 65
1, 2103, Note_on_c, 0, 73, 74
1, 2159, Note_off_c, 0, 73, 60
1, 2182, Note_on_c, 0, 82, 81
1, 2211, Note_on_c, 0, 61, 68
1, 2241, Note_off_c, 0, 61, 66
1, 2251, Note_off_c, 0, 82, 61
1, 2268, Note_on_c, 0, 73, 73
1, 2324, Note_off_c, 0, 73, 58
1, 2355, Note_on_c, 0, 80, 71
1, 2359, Note_on_c, 0, 53, 62
1, 2422, Note_off_c, 0, 80, 62
1, 2433, Note_on_c, 0, 73, 67
1, 2502, Note_off_c, 0, 73, 57
1, 2511, Note_off_c, 0, 53, 62
1, 2521, Note_on_c, 0, 80, 70
1, 2587, Note_off_c, 0, 80, 61
1, 2597, Note_on_c, 0, 73, 69
1, 2654, Note_off_c, 0, 73, 59
1, 2686, Note_on_c, 0, 80, 71
1, 2690, Note_on_c, 0, 61, 62
1, 2722, Note_off_c, 0, 61, 64
1, 2745, Note_off_c, 0, 80, 60
1, 2760, Note_on_c, 0, 73, 65
1, 2823, Note_off_c, 0, 73, 58
1, 2840, Note_on_c, 0, 78, 65
1, 2848, Note_on_c, 0, 51, 58
1, 2923, Note_on_c, 0, 77, 62
1, 2932, Note_off_c, 0, 78, 53
1, 2996, Note_off_c, 0, 51, 62
1, 3011, Note_off_c, 0, 77, 63
1, 3012, Note_on_c, 0, 75, 62
1, 3084, Note_on_c, 0, 77, 61
1, 3087, Note_off_c, 0, 75, 61
1, 3171, Note_on_c, 0, 78, 65
1, 3177, Note_off_c, 0, 77, 56
1, 3188, Note_on_c, 0, 60, 53
1, 3216, Note_off_c, 0, 60, 59
1, 3241, Note_off_c, 0, 78, 64
1, 3252, Note_on_c, 0, 75, 58
1, 3308, Note_off_c, 0, 75, 53
1, 3332, Note_on_c, 0, 77, 63
1, 3337, Note_on_c, 0, 49, 54
1, 3410, Note_off_c, 0, 77, 59
1, 3425, Note_on_c, 0, 75, 64
1, 3470, Note_off_c, 0, 49, 61
1, 3495, Note_off_c, 0, 75, 61
1, 3500, Note_on_c, 0, 73, 64
1, 3580, Note_off_c, 0, 73, 63
1, 3580, Note_on_c, 0, 75, 66
1, 3662, Note_off_c, 0, 75, 59
1, 3673, Note_on_c, 0, 77, 66
1, 3678, Note_on_c, 0, 61, 66
1, 3762, Note_off_c, 0, 77, 61
1, 3767, Note_on_c, 0, 73, 63
1, 3851, Note_on_c, 0, 75, 67
1, 3855, Note_off_c, 0, 73, 61
1, 3925, Note_off_c, 0, 75, 61
1, 3927, Note_on_c, 0, 77, 70
1, 4002, Note_off_c, 0, 61, 63
1, 4009, Note_on_c, 0, 75, 61
1, 4015, Note_off_c, 0, 77, 54
1, 4027, Note_on_c, 0, 60, 58
1, 4089, Note_on_c, 0, 73, 65
1, 4097, Note_off_c, 0, 75, 63
1, 4105, Note_off_c, 0, 60, 62
1, 4111, Note_on_c, 0, 58, 59
1, 4143, Note_off_c, 0, 73, 61
1, 4169, Note_on_c, 0, 72, 60
1, 4175, Note_off_c, 0, 58, 63
1, 4185, Note_on_c, 0, 56, 60
1, 4226, Note_off_c, 0, 72, 50
1, 4245, Note_on_c, 0, 70, 65
1, 4254, Note_off_c, 0, 56, 64
1, 4265, Note_on_c, 0, 58, 57
1, 4315, Note_off_c, 0, 58, 60
1, 4328, Note_off_c, 0, 70, 62
1, 4335, Note_on_c, 0, 68, 65
1, 4342, Note_on_c, 0, 60, 59
1, 4411, Note_off_c, 0, 60, 59
1, 4415, Note_on_c, 0, 56, 56
1, 4491, Note_off_c, 0, 56, 63
1, 4507, Note_on_c, 0, 51, 57
1, 4524, Note_off_c, 0, 68, 62
1, 4565, Note_off_c, 0, 51, 59
1, 4575, Note_on_c, 0, 56, 53
1, 4645, Note_off_c, 0, 56, 63
1, 4659, Note_on_c, 0, 80, 70
1, 4667, Note_on_c, 0, 60, 61
1, 4686, Note_off_c, 0, 80, 68
1, 4712, Note_off_c, 0, 60, 62
1, 4738, Note_on_c, 0, 56, 50
1, 4802, Note_off_c, 0, 56, 60
1, 4820, Note_on_c, 0, 70, 73
1, 4828, Note_on_c, 0, 61, 59
1, 4888, Note_off_c, 0, 61, 58
1, 4911, Note_on_c, 0, 56, 60
1, 4973, Note_off_c, 0, 56, 59
1, 4996, Note_on_c, 0, 61, 63
1, 5012, Note_off_c, 0, 70, 61
1, 5047, Note_off_c, 0, 61, 58
1, 5067, Note_on_c, 0, 56, 66
1, 5136, Note_off_c, 0, 56, 62
1, 5153, Note_on_c, 0, 61, 66
1, 5157, Note_on_c, 0, 80, 72
1, 5181, Note_off_c, 0, 80, 69
1, 5205, Note_off_c, 0, 61, 57
1, 5231, Note_on_c, 0, 56, 57
1, 5304, Note_off_c, 0, 56, 62
1, 5323, Note_on_c, 0, 63, 65
1, 5331, Note_on_c, 0, 72, 74
1, 5386, Note_off_c, 0, 63, 57
1, 5407, Note_on_c, 0, 56, 66
1, 5475, Note_off_c, 0, 56, 59
1, 5491, Note_on_c, 0, 63, 67
1, 5491, Note_off_c, 0, 72, 61
1, 5551, Note_off_c, 0, 63, 59
1, 5568, Note_on_c, 0, 56, 69
1, 5640, Note_off_c, 0, 56, 62
1, 5654, Note_on_c, 0, 63, 70
1, 5654, Note_on_c, 0, 80, 75
1, 5689, Note_off_c, 0, 80, 62
1, 5720, Note_off_c, 0, 63, 61
1, 5728, Note_on_c, 0, 56, 67
1, 5813, Note_off_c, 0, 56, 51
1, 5822, Note_on_c, 0, 73, 76
1, 5826, Note_on_c, 0, 65, 68
1, 5911, Note_off_c, 0, 65, 62
1, 5913, Note_on_c, 0, 56, 70
1, 5985, Note_off_c, 0, 56, 62
1, 5999, Note_on_c, 0, 65, 73
1, 6033, Note_off_c, 0, 73, 59
1, 6071, Note_off_c, 0, 65, 59
1, 6075, Note_on_c, 0, 56, 73
1, 6147, Note_off_c, 0, 56, 59
1, 6151, Note_on_c, 0, 65, 74
1, 6170, Note_on_c, 0, 80, 75
1, 6194, Note_off_c, 0, 80, 68
1, 6214, Note_off_c, 0, 65, 58
1, 6228, Note_on_c, 0, 56, 70
1, 6312, Note_off_c, 0, 56, 63
1, 6319, Note_on_c, 0, 63, 69
1, 6329, Note_on_c, 0, 72, 74
1, 6395, Note_on_c, 0, 56, 65
1, 6395, Note_off_c, 0, 63, 64
1, 6474, Note_off_c, 0, 56, 64
1, 6480, Note_off_c, 0, 72, 62
1, 6481, Note_on_c, 0, 63, 65
1, 6552, Note_off_c, 0, 63, 62
1, 6558, Note_on_c, 0, 56, 65
1, 6630, Note_off_c, 0, 56, 63
1, 6642, Note_on_c, 0, 80, 70
1, 6644, Note_on_c, 0, 63, 63
1, 6670, Note_off_c, 0, 80, 65
1, 6707, Note_off_c, 0, 63, 60
1, 6716, Note_on_c, 0, 56, 59
1, 6810, Note_on_c, 0, 61, 64
1, 6820, Note_on_c, 0, 70, 68
1, 6829, Note_off_c, 0, 56, 57
1, 6874, Note_off_c, 0, 61, 59
1, 6898, Note_on_c, 0, 60, 63
1, 6973, Note_off_c, 0, 60, 62
1, 6977, Note_on_c, 0, 58, 62
1, 6993, Note_off_c, 0, 70, 62
1, 7038, Note_off_c, 0, 58, 60
1, 7056, Note_on_c, 0, 60, 58
1, 7115, Note_off_c, 0, 60, 61
1, 7130, Note_on_c, 0, 61, 63
1, 7133, Note_on_c, 0, 79, 70
1, 7158, Note_off_c, 0, 79, 69
1, 7209, Note_off_c, 0, 61, 61
1, 7218, Note_on_c, 0, 58, 63
1, 7265, Note_off_c, 0, 58, 59
1, 7300, Note_on_c, 0, 68, 65
1, 7309, Note_on_c, 0, 60, 61
1, 7376, Note_off_c, 0, 60, 58
1, 7390, Note_on_c, 0, 58, 60
1, 7466, Note_off_c, 0, 58, 64
1, 7476, Note_off_c, 0, 68, 55
1, 7477, Note_on_c, 0, 56, 62
1, 7560, Note_off_c, 0, 56, 60
1, 7568, Note_on_c, 0, 58, 62
1, 7628, Note_off_c, 0, 58, 61
1, 7640, Note_on_c, 0, 80, 76
1, 7644, Note_on_c, 0, 60, 61
1, 7716, Note_off_c, 0, 60, 59
1, 7723, Note_on_c, 0, 56, 53
1, 7808, Note_off_c, 0, 56, 60
1, 7811, Note_on_c, 0, 58, 58
1, 7881, Note_off_c, 0, 58, 60
1, 7902, Note_on_c, 0, 59, 53
1, 7914, Control_c, 0, 67, 15
1, 7929, Control_c, 0, 67, 29
1, 7944, Control_c, 0, 67, 43
1, 7959, Control_c, 0, 67, 53
1, 7962, Note_off_c, 0, 59, 52
1, 7973, Control_c, 0, 67, 62
1, 7986, Note_on_c, 0, 78, 64
1, 7988, Control_c, 0, 67, 69
1, 8003, Control_c, 0, 67, 75
1, 8004, Note_on_c, 0, 58, 51
1, 8010, Note_off_c, 0, 80, 35
1, 8017, Control_c, 0, 67, 83
1, 8032, Control_c, 0, 67, 93
1, 8047, Control_c, 0, 67, 102
1, 8050, Note_off_c, 0, 58, 63
1, 8062, Control_c, 0, 67, 116
1, 8069, Note_on_c, 0, 77, 66
1, 8072, Note_on_c, 0, 56, 52
1, 8077, Control_c, 0, 67, 127
1, 8084, Note_off_c, 0, 78, 56
1, 8140, Note_off_c, 0, 77, 61
1, 8154, Note_on_c, 0, 75, 62
1, 8162, Note_off_c, 0, 56, 60
1, 8162, Note_on_c, 0, 54, 44
1, 8202, Note_off_c, 0, 54, 64
1, 8227, Note_off_c, 0, 75, 62
1, 8233, Note_on_c, 0, 77, 62
1, 8239, Note_on_c, 0, 53, 48
1, 8310, Note_off_c, 0, 77, 60
1, 8317, Note_off_c, 0, 53, 56
1, 8333, Note_on_c, 0, 78, 60
1, 8340, Note_on_c, 0, 51, 52
1, 8403, Note_off_c, 0, 78, 63
1, 8424, Note_on_c, 0, 75, 56
1, 8475, Note_off_c, 0, 75, 59
1, 8485, Note_off_c, 0, 51, 62
1, 8504, Note_on_c, 0, 70, 53
1, 8569, Note_off_c, 0, 70, 56
1, 8596, Note_on_c, 0, 75, 49
1, 8647, Note_off_c, 0, 75, 61
1, 8667, Note_on_c, 0, 78, 53
1, 8671, Note_on_c, 0, 63, 53
1, 8696, Note_off_c, 0, 63, 60
1, 8715, Note_off_c, 0, 78, 60
1, 8748, Note_on_c, 0, 75, 53
1, 8799, Note_off_c, 0, 75, 57
1, 8826, Note_on_c, 0, 80, 58
1, 8835, Note_on_c, 0, 53, 53
1, 8893, Note_off_c, 0, 80, 58
1, 8910, Note_on_c, 0, 75, 60
1, 8973, Note_off_c, 0, 53, 58
1, 8978, Note_off_c, 0, 75, 51
1, 9009, Note_on_c, 0, 80, 64
1, 9058, Note_off_c, 0, 80, 56
1, 9089, Note_on_c, 0, 75, 55
1, 9142, Note_off_c, 0, 75, 55
1, 9160, Note_on_c, 0, 80, 66
1, 9175, Note_on_c, 0, 63, 53
1, 9199, Note_off_c, 0, 63, 59
1, 9202, Note_off_c, 0, 80, 62
1, 9249, Note_on_c, 0, 75, 58
1, 9300, Note_off_c, 0, 75, 55
1, 9328, Note_on_c, 0, 82, 65
1, 9335, Note_on_c, 0, 54, 57
1, 9389, Note_off_c, 0, 82, 60
1, 9414, Note_on_c, 0, 75, 60
1, 9478, Note_off_c, 0, 75, 58
1, 9481, Note_off_c, 0, 54, 62
1, 9497, Note_on_c, 0, 82, 68
1, 9545, Note_off_c, 0, 82, 61
1, 9573, Note_on_c, 0, 75, 62
1, 9626, Note_off_c, 0, 75, 55
1, 9654, Note_on_c, 0, 82, 69
1, 9663, Note_on_c, 0, 63, 59
1, 9699, Note_off_c, 0, 63, 62
1, 9716, Note_off_c, 0, 82, 62
1, 9739, Note_on_c, 0, 75, 64
1, 9798, Note_off_c, 0, 75, 55
1, 9824, Note_on_c, 0, 83, 64
1, 9825, Note_on_c, 0, 56, 58
1, 9877, Note_off_c, 0, 83, 58
1, 9902, Note_on_c, 0, 75, 65
1, 9957, Note_off_c, 0, 75, 55
1, 9985, Note_off_c, 0, 56, 60
1, 9986, Note_on_c, 0, 83, 70
1, 10042, Note_off_c, 0, 83, 52
1, 10061, Note_on_c, 0, 75, 67
1, 10117, Note_off_c, 0, 75, 55
1, 10153, Note_on_c, 0, 83, 65
1, 10165, Note_on_c, 0, 63, 54
1, 10183, Note_off_c, 0, 83, 65
1, 10187, Note_off_c, 0, 63, 62
1, 10222, Note_on_c, 0, 75, 67
1, 10284, Note_off_c, 0, 75, 57
1, 10313, Note_on_c, 0, 82, 64
1, 10328, Note_on_c, 0, 54, 51
1, 10362, Note_off_c, 0, 82, 62
1, 10395, Note_on_c, 0, 75, 62
1, 10450, Note_off_c, 0, 54, 61
1, 10463, Note_off_c, 0, 75, 55
1, 10483, Note_on_c, 0, 82, 64
1, 10537, Note_off_c, 0, 82, 64
1, 10570, Note_on_c, 0, 75, 61
1, 10615, Note_off_c, 0, 75, 57
1, 10647, Note_on_c, 0, 63, 59
1, 10651, Note_on_c, 0, 82, 62
1, 10684, Note_off_c, 0, 63, 61
1, 10715, Note_off_c, 0, 82, 60
1, 10722, Note_on_c, 0, 75, 62
1, 10781, Note_off_c, 0, 75, 57
1, 10803, Note_on_c, 0, 80, 59
1, 10825, Note_on_c, 0, 53, 53
1, 10890, Note_on_c, 0, 78, 59
1, 10910, Note_off_c, 0, 80, 46
1, 10941, Note_off_c, 0, 53, 61
1, 10956, Note_off_c, 0, 78, 60
1, 10964, Note_on_c, 0, 77, 61
1, 11047, Note_off_c, 0, 77, 62
1, 11056, Note_on_c, 0, 78, 59
1, 11119, Note_off_c, 0, 78, 58
1, 11132, Note_on_c, 0, 80, 61
1, 11145, Note_on_c, 0, 62, 54
1, 11177, Note_off_c, 0, 62, 64
1, 11208, Note_off_c, 0, 80, 63
1, 11219, Note_on_c, 0, 77, 67
1, 11303, Note_off_c, 0, 77, 60
1, 11312, Note_on_c, 0, 51, 63
1, 11314, Note_on_c, 0, 78, 58
1, 11396, Note_off_c, 0, 78, 57
1, 11396, Note_on_c, 0, 77, 58
1, 11436, Note_off_c, 0, 51, 63
1, 11451, Note_off_c, 0, 77, 57
1, 11476, Note_on_c, 0, 75, 63
1, 11535, Note_off_c, 0, 75, 59
1, 11554, Note_on_c, 0, 77, 67
1, 11637, Note_off_c, 0, 77, 58
1, 11644, Note_on_c, 0, 78, 58
1, 11652, Note_on_c, 0, 63, 65
1, 11688, Note_off_c, 0, 78, 62
1, 11724, Note_on_c, 0, 75, 59
1, 11796, Note_off_c, 0, 75, 53
1, 11820, Note_on_c, 0, 77, 62
1, 11887, Note_off_c, 0, 77, 62
1, 11894, Note_on_c, 0, 78, 68
1, 11968, Note_off_c, 0, 63, 62
1, 11979, Note_on_c, 0, 61, 57
1, 11985, Note_off_c, 0, 78, 35
1, 11990, Note_on_c, 0, 77, 63
1, 12058, Note_off_c, 0, 61, 58
1, 12066, Note_on_c, 0, 75, 69
1, 12076, Note_on_c, 0, 60, 55
1, 12088, Note_off_c, 0, 77, 53
1, 12125, Note_off_c, 0, 60, 59
1, 12140, Note_on_c, 0, 73, 67
1, 12150, Note_on_c, 0, 58, 59
1, 12153, Note_off_c, 0, 75, 59
1, 12195, Note_off_c, 0, 58, 61
1, 12197, Note_off_c, 0, 73, 62
1, 12224, Note_on_c, 0, 72, 63
1, 12236, Note_on_c, 0, 60, 58
1, 12274, Note_off_c, 0, 60, 64
1, 12284, Note_off_c, 0, 72, 62
1, 12304, Note_on_c, 0, 70, 62
1, 12308, Note_on_c, 0, 61, 54
1, 12361, Note_off_c, 0, 61, 61
1, 12386, Note_on_c, 0, 58, 56
1, 12434, Note_off_c, 0, 58, 62
1, 12469, Note_on_c, 0, 53, 52
1, 12475, Note_off_c, 0, 70, 62
1, 12528, Note_off_c, 0, 53, 60
1, 12558, Note_on_c, 0, 58, 50
1, 12601, Note_off_c, 0, 58, 63
1, 12627, Note_on_c, 0, 61, 54
1, 12629, Note_on_c, 0, 82, 63
1, 12660, Note_off_c, 0, 82, 65
1, 12675, Note_off_c, 0, 61, 58
1, 12702, Note_on_c, 0, 58, 56
1, 12763, Note_off_c, 0, 58, 57
1, 12802, Note_on_c, 0, 72, 58
1, 12803, Note_on_c, 0, 63, 54
1, 12866, Note_off_c, 0, 63, 58
1, 12884, Note_on_c, 0, 58, 53
1, 12943, Note_off_c, 0, 58, 58
1, 12987, Note_off_c, 0, 72, 58
1, 12989, Note_on_c, 0, 63, 50
1, 13033, Note_off_c, 0, 63, 63
1, 13059, Note_on_c, 0, 58, 57
1, 13100, Note_off_c, 0, 58, 63
1, 13125, Note_on_c, 0, 63, 58
1, 13137, Note_on_c, 0, 82, 68
1, 13166, Note_off_c, 0, 82, 66
1, 13184, Note_off_c, 0, 63, 58
1, 13198, Note_on_c, 0, 58, 57
1, 13268, Note_off_c, 0, 58, 57
1, 13294, Note_on_c, 0, 73, 66
1, 13297, Note_on_c, 0, 65, 60
1, 13367, Note_off_c, 0, 65, 58
1, 13381, Note_on_c, 0, 58, 61
1, 13458, Note_off_c, 0, 58, 61
1, 13477, Note_on_c, 0, 65, 64
1, 13492, Note_off_c, 0, 73, 59
1, 13543, Note_off_c, 0, 65, 57
1, 13564, Note_on_c, 0, 58, 63
1, 13621, Note_off_c, 0, 58, 58
1, 13640, Note_on_c, 0, 82, 75
1, 13644, Note_on_c, 0, 65, 63
1, 13664, Note_off_c, 0, 82, 69
1, 13696, Note_off_c, 0, 65, 58
1, 13729, Note_on_c, 0, 58, 63
1, 13798, Note_off_c, 0, 58, 61
1, 13806, Note_on_c, 0, 75, 73
1, 13807, Note_on_c, 0, 66, 64
1, 13889, Note_off_c, 0, 66, 62
1, 13900, Note_on_c, 0, 58, 61
1, 13967, Note_off_c, 0, 58, 61
1, 13968, Note_on_c, 0, 66, 65
1, 14010, Note_off_c, 0, 75, 61
1, 14041, Note_off_c, 0, 66, 62
1, 14049, Note_on_c, 0, 58, 63
1, 14124, Note_off_c, 0, 58, 61
1, 14135, Note_on_c, 0, 66, 65
1, 14140, Note_on_c, 0, 82, 76
1, 14165, Note_off_c, 0, 82, 68
1, 14224, Note_off_c, 0, 66, 57
1, 14225, Note_on_c, 0, 58, 61
1, 14301, Note_off_c, 0, 58, 57
1, 14305, Note_on_c, 0, 73, 78
1, 14308, Note_on_c, 0, 65, 67
1, 14401, Note_off_c, 0, 65, 59
1, 14407, Note_on_c, 0, 58, 62
1, 14469, Note_off_c, 0, 58, 59
1, 14484, Note_on_c, 0, 65, 57
1, 14501, Note_off_c, 0, 73, 62
1, 14550, Note_off_c, 0, 65, 58
1, 14570, Note_on_c, 0, 58, 67
1, 14620, Note_off_c, 0, 58, 60
1, 14648, Note_on_c, 0, 82, 79
1, 14656, Note_on_c, 0, 65, 64
1, 14673, Note_off_c, 0, 82, 65
1, 14720, Note_off_c, 0, 65, 56
1, 14736, Note_on_c, 0, 58, 61
1, 14799, Note_on_c, 0, 63, 61
1, 14811, Note_on_c, 0, 72, 73
1, 14815, Note_off_c, 0, 58, 52
1, 14875, Control_c, 0, 67, 120
1, 14876, Note_on_c, 0, 61, 66
1, 14883, Note_off_c, 0, 63, 62
1, 14890, Control_c, 0, 67, 110
1, 14905, Control_c, 0, 67, 100
1, 14920, Control_c, 0, 67, 88
1, 14943, Control_c, 0, 67, 79
1, 14957, Control_c, 0, 67, 69
1, 14961, Note_off_c, 0, 61, 60
1, 14967, Note_off_c, 0, 72, 60
1, 14968, Note_on_c, 0, 60, 68
1, 14972, Control_c, 0, 67, 56
1, 14987, Control_c, 0, 67, 41
1, 15002, Control_c, 0, 67, 23
1, 15017, Control_c, 0, 67, 0
1, 15054, Note_off_c, 0, 60, 63
1, 15059, Note_on_c, 0, 61, 69
1, 15134, Note_off_c, 0, 61, 60
1, 15138, Note_on_c, 0, 81, 68
1, 15140, Note_on_c, 0, 63, 63
1, 15179, Note_off_c, 0, 81, 64
1, 15208, Note_off_c, 0, 63, 62
1, 15214, Note_on_c, 0, 60, 62
1, 15282, Note_off_c, 0, 60, 61
1, 15309, Note_on_c, 0, 61, 67
1, 15316, Note_on_c, 0, 70, 76
1, 15386, Note_off_c, 0, 61, 61
1, 15396, Note_on_c, 0, 60, 73
1, 15477, Note_on_c, 0, 58, 70
1, 15482, Note_off_c, 0, 60, 64
1, 15493, Note_off_c, 0, 70, 57
1, 15552, Note_on_c, 0, 60, 70
1, 15556, Note_off_c, 0, 58, 64
1, 15641, Note_on_c, 0, 61, 71
1, 15650, Note_off_c, 0, 60, 61
1, 15664, Note_on_c, 0, 82, 86
1, 15749, Note_on_c, 0, 58, 70
1, 15752, Note_off_c, 0, 61, 61
1, 15849, Note_on_c, 0, 64, 73
1, 15853, Note_off_c, 0, 58, 58
1, 15934, Note_off_c, 0, 64, 60
1, 15936, Note_on_c, 0, 62, 71
1, 16012, Note_on_c, 0, 60, 76
1, 16013, Note_off_c, 0, 62, 63
1, 16014, Note_on_c, 0, 80, 81
1, 16049, Note_off_c, 0, 82, 61
1, 16091, Note_off_c, 0, 60, 64
1, 16095, Note_on_c, 0, 62, 76
1, 16163, Note_off_c, 0, 62, 60
1, 16171, Note_on_c, 0, 79, 82
1, 16176, Note_on_c, 0, 64, 73
1, 16201, Note_off_c, 0, 80, 63
1, 16214, Note_off_c, 0, 79, 63
1, 16232, Note_off_c, 0, 64, 51
1, 16252, Note_on_c, 0, 60, 74
1, 16314, Note_off_c, 0, 60, 63
1, 16335, Note_on_c, 0, 80, 85
1, 16338, Note_on_c, 0, 65, 76
1, 16377, Note_off_c, 0, 80, 60
1, 16395, Note_off_c, 0, 65, 56
1, 16413, Note_on_c, 0, 64, 76
1, 16490, Note_off_c, 0, 64, 62
1, 16509, Note_on_c, 0, 65, 75
1, 16514, Note_on_c, 0, 68, 77
1, 16545, Note_off_c, 0, 68, 59
1, 16588, Note_off_c, 0, 65, 63
1, 16597, Note_on_c, 0, 67, 74
1, 16677, Note_on_c, 0, 80, 85
1, 16680, Note_off_c, 0, 67, 63
1, 16686, Note_on_c, 0, 65, 71
1, 16767, Note_on_c, 0, 63, 76
1, 16785, Note_off_c, 0, 65, 59
1, 16833, Note_off_c, 0, 63, 61
1, 16854, Note_on_c, 0, 62, 75
1, 16933, Note_off_c, 0, 62, 60
1, 16943, Note_on_c, 0, 60, 72
1, 17007, Note_on_c, 0, 78, 79
1, 17007, Note_off_c, 0, 60, 64
1, 17012, Note_on_c, 0, 58, 74
1, 17048, Note_off_c, 0, 80, 54
1, 17086, Note_off_c, 0, 58, 64
1, 17092, Note_on_c, 0, 60, 71
1, 17159, Note_off_c, 0, 60, 63
1, 17188, Note_on_c, 0, 62, 68
1, 17198, Note_on_c, 0, 77, 76
1, 17229, Note_off_c, 0, 78, 62
1, 17238, Note_off_c, 0, 77, 62
1, 17260, Note_off_c, 0, 62, 61
1, 17275, Note_on_c, 0, 58, 66
1, 17349, Note_off_c, 0, 58, 62
1, 17374, Note_on_c, 0, 78, 61
1, 17377, Note_on_c, 0, 63, 67
1, 17406, Note_off_c, 0, 63, 65
1, 17449, Note_off_c, 0, 78, 54
1, 17457, Note_on_c, 0, 77, 64
1, 17528, Note_off_c, 0, 77, 58
1, 17533, Note_on_c, 0, 51, 76
1, 17539, Note_on_c, 0, 75, 70
1, 17563, Note_off_c, 0, 51, 66
1, 17611, Note_off_c, 0, 75, 60
1, 17615, Note_on_c, 0, 77, 68
1, 17684, Note_off_c, 0, 77, 61
1, 17700, Note_on_c, 0, 78, 67
1, 17708, Note_on_c, 0, 63, 72
1, 17772, Note_off_c, 0, 78, 62
1, 17786, Note_on_c, 0, 75, 67
1, 17871, Note_off_c, 0, 75, 62
1, 17872, Note_on_c, 0, 81, 64
1, 17951, Note_on_c, 0, 79, 70
1, 17961, Note_off_c, 0, 81, 56
1, 18010, Note_off_c, 0, 79, 62
1, 18036, Note_on_c, 0, 77, 76
1, 18046, Note_on_c, 0, 61, 72
1, 18049, Note_off_c, 0, 63, 62
1, 18109, Note_off_c, 0, 77, 60
1, 18116, Note_on_c, 0, 79, 77
1, 18186, Note_off_c, 0, 79, 58
1, 18197, Note_on_c, 0, 81, 68
1, 18201, Note_off_c, 0, 61, 52
1, 18204, Note_on_c, 0, 60, 72
1, 18231, Note_off_c, 0, 81, 63
1, 18234, Note_off_c, 0, 60, 64
1, 18273, Note_on_c, 0, 77, 75
1, 18343, Note_off_c, 0, 77, 60
1, 18356, Note_on_c, 0, 82, 72
1, 18369, Note_on_c, 0, 61, 77
1, 18395, Note_off_c, 0, 61, 68
1, 18432, Note_on_c, 0, 81, 68
1, 18434, Note_off_c, 0, 82, 63
1, 18520, Note_off_c, 0, 81, 64
1, 18522, Note_on_c, 0, 82, 75
1, 18528, Note_on_c, 0, 49, 67
1, 18562, Note_off_c, 0, 49, 66
1, 18585, Note_off_c, 0, 82, 63
1, 18608, Note_on_c, 0, 84, 71
1, 18696, Note_on_c, 0, 82, 70
1, 18696, Note_off_c, 0, 84, 60
1, 18708, Note_on_c, 0, 61, 66
1, 18771, Note_on_c, 0, 80, 70
1, 18782, Note_off_c, 0, 82, 59
1, 18826, Note_off_c, 0, 80, 61
1, 18851, Note_on_c, 0, 79, 66
1, 18930, Note_on_c, 0, 77, 68
1, 18935, Note_off_c, 0, 79, 57
1, 19002, Note_off_c, 0, 77, 62
1, 19007, Note_off_c, 0, 61, 62
1, 19018, Note_on_c, 0, 75, 63
1, 19037, Note_on_c, 0, 60, 56
1, 19104, Note_on_c, 0, 77, 69
1, 19113, Note_off_c, 0, 75, 55
1, 19147, Note_off_c, 0, 77, 58
1, 19173, Note_off_c, 0, 60, 61
1, 19183, Note_on_c, 0, 79, 66
1, 19188, Note_on_c, 0, 58, 51
1, 19225, Note_off_c, 0, 58, 63
1, 19246, Note_off_c, 0, 79, 64
1, 19254, Note_on_c, 0, 75, 67
1, 19289, Note_off_c, 0, 75, 63
1, 19344, Note_on_c, 0, 80, 71
1, 19352, Note_on_c, 0, 60, 60
1, 19370, Note_off_c, 0, 80, 69
1, 19393, Note_off_c, 0, 60, 63
1, 19449, Note_on_c, 0, 58, 54
1, 19494, Note_off_c, 0, 58, 63
1, 19511, Note_on_c, 0, 68, 70
1, 19519, Note_on_c, 0, 56, 57
1, 19540, Note_off_c, 0, 68, 65
1, 19594, Note_off_c, 0, 56, 61
1, 19610, Note_on_c, 0, 58, 59
1, 19654, Note_off_c, 0, 58, 61
1, 19687, Note_on_c, 0, 60, 61
1, 19688, Note_on_c, 0, 80, 73
1, 19749, Note_off_c, 0, 60, 56
1, 19775, Note_on_c, 0, 56, 61
1, 19834, Note_off_c, 0, 56, 60
1, 19868, Note_on_c, 0, 62, 60
1, 19918, Note_off_c, 0, 62, 54
1, 19941, Note_on_c, 0, 60, 64
1, 20010, Note_off_c, 0, 60, 62
1, 20025, Note_on_c, 0, 58, 61
1, 20035, Note_on_c, 0, 78, 71
1, 20051, Note_off_c, 0, 80, 54
1, 20100, Note_off_c, 0, 58, 59
1, 20114, Note_on_c, 0, 60, 63
1, 20184, Note_off_c, 0, 60, 64
1, 20203, Note_on_c, 0, 77, 78
1, 20210, Note_on_c, 0, 62, 64
1, 20228, Note_off_c, 0, 78, 61
1, 20245, Note_off_c, 0, 77, 61
1, 20282, Note_off_c, 0, 62, 61
1, 20291, Note_on_c, 0, 58, 57
1, 20371, Note_on_c, 0, 63, 59
1, 20373, Note_on_c, 0, 78, 79
1, 20385, Note_off_c, 0, 58, 56
1, 20401, Note_off_c, 0, 78, 64
1, 20434, Note_off_c, 0, 63, 60
1, 20458, Note_on_c, 0, 62, 57
1, 20531, Note_off_c, 0, 62, 60
1, 20538, Note_on_c, 0, 66, 69
1, 20539, Note_on_c, 0, 63, 59
1, 20567, Note_off_c, 0, 66, 64
1, 20592, Note_off_c, 0, 63, 61
1, 20621, Note_on_c, 0, 65, 58
1, 20688, Note_off_c, 0, 65, 59
1, 20709, Note_on_c, 0, 63, 58
1, 20717, Note_on_c, 0, 78, 75
1, 20791, Note_on_c, 0, 61, 60
1, 20792, Note_off_c, 0, 63, 59
1, 20835, Control_c, 0, 67, 9
1, 20849, Control_c, 0, 67, 14
1, 20854, Note_off_c, 0, 61, 60
1, 20864, Control_c, 0, 67, 20
1, 20879, Control_c, 0, 67, 23
1, 20885, Note_on_c, 0, 60, 52
1, 20893, Control_c, 0, 67, 24
1, 20965, Note_off_c, 0, 60, 56
1, 20993, Note_on_c, 0, 58, 54
1, 21020, Control_c, 0, 67, 25
1, 21049, Note_off_c, 0, 58, 60
1, 21060, Note_off_c, 0, 78, 58
1, 21074, Note_on_c, 0, 56, 53
1, 21079, Note_on_c, 0, 77, 60
1, 21145, Note_off_c, 0, 56, 62
1, 21170, Note_on_c, 0, 58, 56
1, 21209, Note_off_c, 0, 58, 65
1, 21243, Note_off_c, 0, 77, 57
1, 21245, Note_on_c, 0, 60, 55
1, 21247, Note_on_c, 0, 75, 62
1, 21286, Note_off_c, 0, 75, 61
1, 21287, Control_c, 0, 67, 26
1, 21301, Note_off_c, 0, 60, 59
1, 21317, Control_c, 0, 67, 26
1, 21332, Note_on_c, 0, 56, 45
1, 21379, Note_off_c, 0, 56, 65
1, 21391, Control_c, 0, 67, 26
1, 21423, Note_on_c, 0, 77, 60
1, 21424, Note_on_c, 0, 61, 55
1, 21451, Note_off_c, 0, 61, 62
1, 21481, Note_off_c, 0, 77, 54
1, 21500, Note_on_c, 0, 75, 55
1, 21554, Control_c, 0, 67, 25
1, 21562, Note_off_c, 0, 75, 57
1, 21579, Note_on_c, 0, 73, 56
1, 21580, Note_on_c, 0, 49, 55
1, 21598, Control_c, 0, 67, 24
1, 21611, Note_off_c, 0, 49, 64
1, 21643, Control_c, 0, 67, 24
1, 21648, Note_off_c, 0, 73, 60
1, 21662, Note_on_c, 0, 75, 58
1, 21715, Note_off_c, 0, 75, 60
1, 21724, Control_c, 0, 67, 24
1, 21739, Control_c, 0, 67, 25
1, 21754, Control_c, 0, 67, 26
1, 21755, Note_on_c, 0, 77, 61
1, 21763, Note_on_c, 0, 61, 64
1, 21769, Control_c, 0, 67, 26
1, 21799, Control_c, 0, 67, 27
1, 21815, Note_off_c, 0, 77, 58
1, 21829, Control_c, 0, 67, 28
1, 21846, Note_on_c, 0, 73, 53
1, 21888, Control_c, 0, 67, 27
1, 21903, Control_c, 0, 67, 26
1, 21915, Note_off_c, 0, 73, 53
1, 21918, Control_c, 0, 67, 26
1, 21932, Control_c, 0, 67, 24
1, 21941, Note_on_c, 0, 79, 52
1, 21947, Control_c, 0, 67, 24
1, 21962, Control_c, 0, 67, 23
1, 21977, Control_c, 0, 67, 22
1, 21991, Control_c, 0, 67, 21
1, 22005, Note_off_c, 0, 79, 54
1, 22009, Note_on_c, 0, 77, 64
1, 22021, Control_c, 0, 67, 21
1, 22080, Note_off_c, 0, 77, 57
1, 22089, Note_off_c, 0, 61, 58
1, 22095, Note_on_c, 0, 59, 61
1, 22096, Note_on_c, 0, 75, 62
1, 22165, Note_off_c, 0, 75, 61
1, 22173, Note_on_c, 0, 77, 60
1, 22185, Control_c, 0, 67, 20
1, 22200, Control_c, 0, 67, 19
1, 22215, Control_c, 0, 67, 19
1, 22225, Note_off_c, 0, 77, 60
1, 22250, Note_on_c, 0, 79, 68
1, 22252, Note_on_c, 0, 58, 70
1, 22252, Note_off_c, 0, 59, 63
1, 22282, Note_off_c, 0, 58, 65
1, 22305, Note_off_c, 0, 79, 62
1, 22336, Note_on_c, 0, 75, 63
1, 22348, Control_c, 0, 67, 19
1, 22407, Control_c, 0, 67, 20
1, 22410, Note_off_c, 0, 75, 62
1, 22411, Note_on_c, 0, 59, 69
1, 22420, Note_on_c, 0, 80, 66
1, 22447, Note_off_c, 0, 59, 64
1, 22472, Note_off_c, 0, 80, 57
1, 22503, Control_c, 0, 67, 21
1, 22511, Note_on_c, 0, 79, 65
1, 22562, Control_c, 0, 67, 21
1, 22583, Note_on_c, 0, 47, 67
1, 22589, Note_on_c, 0, 80, 66
1, 22597, Note_off_c, 0, 79, 60
1, 22610, Note_off_c, 0, 47, 64
1, 22652, Control_c, 0, 67, 22
1, 22659, Note_off_c, 0, 80, 59
1, 22666, Control_c, 0, 67, 23
1, 22674, Note_on_c, 0, 82, 66
1, 22696, Control_c, 0, 67, 23
1, 22711, Control_c, 0, 67, 24
1, 22726, Control_c, 0, 67, 24
1, 22740, Control_c, 0, 67, 25
1, 22770, Control_c, 0, 67, 26
1, 22771, Note_on_c, 0, 59, 59
1, 22775, Note_on_c, 0, 80, 62
1, 22785, Control_c, 0, 67, 27
1, 22805, Note_off_c, 0, 82, 38
1, 22814, Control_c, 0, 67, 28
1, 22829, Control_c, 0, 67, 28
1, 22848, Note_off_c, 0, 80, 60
1, 22849, Note_on_c, 0, 78, 62
1, 22859, Control_c, 0, 67, 29
1, 22889, Control_c, 0, 67, 29
1, 22899, Note_off_c, 0, 78, 61
1, 22927, Note_on_c, 0, 77, 63
1, 22949, Control_c, 0, 67, 29
1, 22978, Control_c, 0, 67, 28
1, 22995, Note_off_c, 0, 77, 57
1, 23008, Control_c, 0, 67, 28
1, 23011, Note_on_c, 0, 75, 61
1, 23082, Control_c, 0, 67, 29
1, 23084, Note_off_c, 0, 75, 61
1, 23096, Note_on_c, 0, 73, 58
1, 23096, Control_c, 0, 67, 29
1, 23097, Note_off_c, 0, 59, 55
1, 23102, Note_on_c, 0, 58, 50
1, 23111, Control_c, 0, 67, 31
1, 23126, Control_c, 0, 67, 32
1, 23141, Control_c, 0, 67, 38
1, 23156, Control_c, 0, 67, 58
1, 23159, Note_off_c, 0, 73, 62
1, 23175, Note_on_c, 0, 75, 57
1, 23178, Control_c, 0, 67, 77
1, 23193, Control_c, 0, 67, 93
1, 23208, Control_c, 0, 67, 100
1, 23223, Control_c, 0, 67, 103
1, 23238, Control_c, 0, 67, 104
1, 23252, Control_c, 0, 67, 105
1, 23261, Note_off_c, 0, 58, 60
1, 23264, Note_on_c, 0, 77, 64
1, 23267, Note_off_c, 0, 75, 50
1, 23272, Note_on_c, 0, 56, 48
1, 23308, Note_off_c, 0, 56, 65
1, 23322, Note_off_c, 0, 77, 59
1, 23334, Note_on_c, 0, 73, 61
1, 23406, Note_off_c, 0, 73, 55
1, 23446, Note_on_c, 0, 66, 56
1, 23452, Note_on_c, 0, 58, 42
1, 23505, Note_off_c, 0, 58, 60
1, 23537, Note_on_c, 0, 54, 44
1, 23578, Note_off_c, 0, 54, 65
1, 23592, Control_c, 0, 67, 104
1, 23598, Note_on_c, 0, 49, 40
1, 23607, Control_c, 0, 67, 103
1, 23622, Control_c, 0, 67, 103
1, 23636, Control_c, 0, 67, 102
1, 23643, Note_off_c, 0, 66, 57
1, 23670, Note_off_c, 0, 49, 54
1, 23680, Note_on_c, 0, 54, 53
1, 23711, Control_c, 0, 67, 102
1, 23726, Control_c, 0, 67, 101
1, 23730, Note_off_c, 0, 54, 61
1, 23758, Note_on_c, 0, 58, 57
1, 23779, Note_on_c, 0, 78, 67
1, 23808, Note_off_c, 0, 78, 67
1, 23838, Note_off_c, 0, 58, 58
1, 23856, Note_on_c, 0, 54, 50
1, 23931, Note_off_c, 0, 54, 58
1, 23948, Note_on_c, 0, 68, 70
1, 23953, Note_on_c, 0, 59, 57
1, 24003, Note_off_c, 0, 59, 52
1, 24051, Note_on_c, 0, 54, 62
1, 24104, Control_c, 0, 67, 102
1, 24106, Note_off_c, 0, 54, 59
1, 24128, Note_on_c, 0, 59, 61
1, 24154, Note_off_c, 0, 68, 60
1, 24201, Note_off_c, 0, 59, 63
1, 24208, Control_c, 0, 67, 101
1, 24218, Note_on_c, 0, 54, 62
1, 24223, Control_c, 0, 67, 100
1, 24238, Control_c, 0, 67, 100
1, 24263, Note_off_c, 0, 54, 61
1, 24289, Note_on_c, 0, 78, 71
1, 24297, Control_c, 0, 67, 99
1, 24297, Note_on_c, 0, 59, 55
1, 24312, Control_c, 0, 67, 98
1, 24315, Note_off_c, 0, 78, 68
1, 24333, Note_off_c, 0, 59, 64
1, 24378, Note_on_c, 0, 54, 56
1, 24428, Note_off_c, 0, 54, 61
1, 24430, Control_c, 0, 67, 99
1, 24448, Note_on_c, 0, 70, 71
1, 24455, Note_on_c, 0, 61, 65
1, 24530, Note_off_c, 0, 61, 59
1, 24545, Note_on_c, 0, 54, 61
1, 24615, Note_on_c, 0, 61, 56
1, 24619, Note_off_c, 0, 54, 62
1, 24677, Note_off_c, 0, 70, 60
1, 24709, Note_on_c, 0, 54, 58
1, 24709, Note_off_c, 0, 61, 60
1, 24781, Note_off_c, 0, 54, 61
1, 24792, Note_on_c, 0, 61, 65
1, 24806, Note_on_c, 0, 78, 74
1, 24831, Note_off_c, 0, 78, 69
1, 24850, Note_off_c, 0, 61, 53
1, 24867, Note_on_c, 0, 54, 61
1, 24912, Control_c, 0, 67, 100
1, 24941, Note_off_c, 0, 54, 62
1, 24962, Note_on_c, 0, 63, 65
1, 24973, Note_on_c, 0, 71, 71
1, 25001, Control_c, 0, 67, 100
1, 25037, Note_off_c, 0, 63, 60
1, 25042, Note_on_c, 0, 54, 63
1, 25075, Control_c, 0, 67, 101
1, 25116, Note_off_c, 0, 54, 64
1, 25139, Note_on_c, 0, 63, 65
1, 25165, Note_off_c, 0, 71, 63
1, 25203, Note_off_c, 0, 63, 55
1, 25211, Note_on_c, 0, 54, 61
1, 25285, Note_off_c, 0, 54, 63
1, 25300, Note_on_c, 0, 78, 74
1, 25305, Note_on_c, 0, 63, 68
1, 25325, Note_off_c, 0, 78, 69
1, 25346, Note_off_c, 0, 63, 59
1, 25357, Control_c, 0, 67, 102
1, 25378, Note_on_c, 0, 54, 57
1, 25402, Control_c, 0, 67, 102
1, 25439, Control_c, 0, 67, 103
1, 25454, Control_c, 0, 67, 103
1, 25465, Note_off_c, 0, 54, 62
1, 25469, Note_on_c, 0, 70, 72
1, 25469, Control_c, 0, 67, 104
1, 25476, Note_on_c, 0, 61, 66
1, 25513, Control_c, 0, 67, 105
1, 25543, Control_c, 0, 67, 105
1, 25552, Note_off_c, 0, 61, 60
1, 25558, Note_on_c, 0, 54, 59
1, 25636, Note_off_c, 0, 54, 59
1, 25645, Note_on_c, 0, 61, 58
1, 25663, Note_off_c, 0, 70, 62
1, 25706, Control_c, 0, 67, 105
1, 25707, Note_off_c, 0, 61, 57
1, 25721, Control_c, 0, 67, 104
1, 25729, Note_on_c, 0, 54, 56
1, 25751, Control_c, 0, 67, 103
1, 25780, Control_c, 0, 67, 103
1, 25783, Note_off_c, 0, 54, 61
1, 25795, Control_c, 0, 67, 102
1, 25802, Note_on_c, 0, 78, 75
1, 25818, Note_on_c, 0, 61, 61
1, 25828, Note_off_c, 0, 78, 69
1, 25864, Note_off_c, 0, 61, 55
1, 25892, Note_on_c, 0, 54, 61
1, 25975, Note_on_c, 0, 68, 64
1, 25983, Note_on_c, 0, 59, 60
1, 25990, Note_off_c, 0, 54, 50
1, 26032, Control_c, 0, 67, 103
1, 26059, Note_off_c, 0, 59, 62
1, 26072, Note_on_c, 0, 58, 61
1, 26077, Control_c, 0, 67, 103
1, 26107, Control_c, 0, 67, 104
1, 26146, Note_off_c, 0, 58, 62
1, 26146, Note_off_c, 0, 68, 61
1, 26165, Note_on_c, 0, 56, 65
1, 26203, Control_c, 0, 67, 103
1, 26218, Control_c, 0, 67, 103
1, 26233, Control_c, 0, 67, 102
1, 26250, Note_off_c, 0, 56, 59
1, 26251, Note_on_c, 0, 58, 59
1, 26276, Control_c, 0, 67, 102
1, 26297, Note_off_c, 0, 58, 62
1, 26306, Note_on_c, 0, 77, 72
1, 26322, Note_on_c, 0, 59, 58
1, 26339, Note_off_c, 0, 77, 64
1, 26385, Note_off_c, 0, 59, 62
1, 26400, Note_on_c, 0, 56, 54
1, 26424, Control_c, 0, 67, 102
1, 26454, Note_off_c, 0, 56, 63
1, 26486, Note_on_c, 0, 58, 56
1, 26489, Note_on_c, 0, 66, 56
1, 26566, Note_off_c, 0, 58, 60
1, 26579, Note_on_c, 0, 56, 63
1, 26649, Note_off_c, 0, 56, 61
1, 26662, Note_on_c, 0, 54, 60
1, 26667, Note_off_c, 0, 66, 50
1, 26691, Control_c, 0, 67, 102
1, 26720, Control_c, 0, 67, 101
1, 26750, Note_off_c, 0, 54, 60
1, 26761, Note_on_c, 0, 56, 55
1, 26809, Control_c, 0, 67, 100
1, 26816, Note_on_c, 0, 78, 80
1, 26825, Note_off_c, 0, 56, 60
1, 26840, Note_on_c, 0, 58, 60
1, 26854, Control_c, 0, 67, 100
1, 26870, Control_c, 0, 67, 99
1, 26884, Control_c, 0, 67, 98
1, 26899, Control_c, 0, 67, 95
1, 26921, Control_c, 0, 67, 91
1, 26927, Note_off_c, 0, 58, 59
1, 26933, Note_on_c, 0, 54, 56
1, 26935, Control_c, 0, 67, 85
1, 26950, Control_c, 0, 67, 78
1, 26965, Control_c, 0, 67, 73
1, 26980, Control_c, 0, 67, 60
1, 26995, Control_c, 0, 67, 45
1, 27010, Control_c, 0, 67, 34
1, 27018, Note_off_c, 0, 54, 59
1, 27020, Note_on_c, 0, 56, 59
1, 27025, Control_c, 0, 67, 25
1, 27040, Control_c, 0, 67, 14
1, 27054, Control_c, 0, 67, 0
1, 27075, Note_off_c, 0, 56, 59
1, 27101, Note_on_c, 0, 58, 62
1, 27183, Note_off_c, 0, 58, 56
1, 27198, Note_on_c, 0, 56, 61
1, 27205, Note_off_c, 0, 78, 63
1, 27207, Note_on_c, 0, 77, 66
1, 27281, Note_on_c, 0, 54, 62
1, 27284, Note_off_c, 0, 56, 58
1, 27295, Note_on_c, 0, 75, 73
1, 27333, Note_off_c, 0, 77, 55
1, 27341, Note_off_c, 0, 54, 62
1, 27373, Note_on_c, 0, 53, 56
1, 27382, Note_on_c, 0, 73, 74
1, 27386, Note_off_c, 0, 75, 61
1, 27454, Note_off_c, 0, 53, 61
1, 27461, Note_off_c, 0, 73, 64
1, 27463, Note_on_c, 0, 75, 71
1, 27465, Note_on_c, 0, 51, 62
1, 27555, Note_off_c, 0, 75, 54
1, 27555, Note_off_c, 0, 51, 62
1, 27566, Note_on_c, 0, 49, 55
1, 27568, Note_on_c, 0, 77, 69
1, 27659, Note_off_c, 0, 77, 61
1, 27665, Note_on_c, 0, 73, 68
1, 27734, Note_off_c, 0, 73, 63
1, 27750, Note_on_c, 0, 68, 69
1, 27750, Note_off_c, 0, 49, 62
1, 27815, Note_on_c, 0, 73, 70
1, 27817, Note_off_c, 0, 68, 62
1, 27894, Note_off_c, 0, 73, 61
1, 27911, Note_on_c, 0, 77, 72
1, 27913, Note_on_c, 0, 61, 67
1, 27943, Note_off_c, 0, 61, 66
1, 27976, Note_off_c, 0, 77, 61
1, 27996, Note_on_c, 0, 73, 63
1, 28053, Note_off_c, 0, 73, 51
1, 28076, Note_on_c, 0, 51, 59
1, 28079, Note_on_c, 0, 78, 63
1, 28133, Note_off_c, 0, 78, 57
1, 28157, Note_on_c, 0, 73, 67
1, 28228, Note_off_c, 0, 73, 48
1, 28240, Note_off_c, 0, 51, 58
1, 28243, Note_on_c, 0, 78, 71
1, 28309, Note_off_c, 0, 78, 60
1, 28320, Note_on_c, 0, 73, 68
1, 28372, Note_off_c, 0, 73, 54
1, 28411, Note_on_c, 0, 61, 72
1, 28415, Note_on_c, 0, 78, 77
1, 28438, Note_off_c, 0, 61, 68
1, 28467, Note_off_c, 0, 78, 62
1, 28497, Note_on_c, 0, 73, 67
1, 28562, Note_off_c, 0, 73, 56
1, 28572, Note_on_c, 0, 53, 70
1, 28572, Note_on_c, 0, 80, 76
1, 28633, Note_off_c, 0, 80, 64
1, 28661, Note_on_c, 0, 73, 69
1, 28727, Note_off_c, 0, 73, 56
1, 28728, Note_off_c, 0, 53, 59
1, 28734, Note_on_c, 0, 80, 81
1, 28795, Note_off_c, 0, 80, 64
1, 28815, Note_on_c, 0, 73, 76
1, 28884, Note_off_c, 0, 73, 55
1, 28894, Note_on_c, 0, 80, 81
1, 28902, Note_on_c, 0, 61, 72
1, 28932, Note_off_c, 0, 61, 63
1, 28950, Note_off_c, 0, 80, 64
1, 28980, Note_on_c, 0, 73, 74
1, 29051, Note_off_c, 0, 73, 58
1, 29063, Note_on_c, 0, 82, 82
1, 29073, Note_on_c, 0, 54, 64
1, 29132, Note_off_c, 0, 82, 65
1, 29162, Note_on_c, 0, 73, 73
1, 29230, Note_off_c, 0, 73, 61
1, 29245, Note_on_c, 0, 82, 83
1, 29265, Note_off_c, 0, 54, 63
1, 29303, Note_off_c, 0, 82, 64
1, 29327, Note_on_c, 0, 73, 73
1, 29378, Note_off_c, 0, 73, 57
1, 29406, Note_on_c, 0, 82, 83
1, 29416, Note_on_c, 0, 61, 72
1, 29442, Note_off_c, 0, 61, 67
1, 29461, Note_off_c, 0, 82, 64
1, 29483, Note_on_c, 0, 73, 72
1, 29550, Note_off_c, 0, 73, 55
1, 29572, Note_on_c, 0, 80, 76
1, 29577, Note_on_c, 0, 53, 67
1, 29634, Note_off_c, 0, 80, 63
1, 29657, Note_on_c, 0, 73, 70
1, 29700, Note_off_c, 0, 53, 62
1, 29713, Note_off_c, 0, 73, 59
1, 29736, Note_on_c, 0, 80, 78
1, 29794, Note_off_c, 0, 80, 64
1, 29813, Note_on_c, 0, 73, 69
1, 29862, Note_off_c, 0, 73, 60
1, 29898, Note_on_c, 0, 80, 74
1, 29910, Note_on_c, 0, 61, 67
1, 29938, Note_off_c, 0, 61, 66
1, 29973, Note_off_c, 0, 80, 56
1, 29976, Note_on_c, 0, 73, 71
1, 30044, Note_off_c, 0, 73, 57
1, 30074, Note_on_c, 0, 78, 66
1, 30076, Note_on_c, 0, 51, 60
1, 30154, Note_on_c, 0, 77, 70
1, 30155, Note_off_c, 0, 78, 58
1, 30232, Note_off_c, 0, 77, 62
1, 30235, Note_off_c, 0, 51, 62
1, 30242, Note_on_c, 0, 75, 67
1, 30312, Note_off_c, 0, 75, 61
1, 30318, Note_on_c, 0, 77, 70
1, 30387, Note_off_c, 0, 77, 58
1, 30403, Note_on_c, 0, 78, 67
1, 30414, Note_on_c, 0, 60, 64
1, 30444, Note_off_c, 0, 60, 67
1, 30480, Note_off_c, 0, 78, 61
1, 30492, Note_on_c, 0, 75, 62
1, 30536, Note_off_c, 0, 75, 59
1, 30575, Note_on_c, 0, 77, 56
1, 30585, Note_on_c, 0, 49, 57
1, 30654, Note_off_c, 0, 77, 57
1, 30661, Note_on_c, 0, 75, 64
1, 30736, Note_off_c, 0, 75, 61
1, 30744, Note_on_c, 0, 73, 62
1, 30761, Note_off_c, 0, 49, 61
1, 30826, Note_off_c, 0, 73, 63
1, 30829, Note_on_c, 0, 75, 63
1, 30898, Note_off_c, 0, 75, 53
1, 30916, Note_on_c, 0, 61, 68
1, 30923, Note_on_c, 0, 77, 63
1, 30948, Note_off_c, 0, 61, 60
1, 30999, Note_off_c, 0, 77, 60
1, 31006, Note_on_c, 0, 73, 64
1, 31087, Note_off_c, 0, 73, 62
1, 31094, Note_on_c, 0, 54, 67
1, 31094, Note_on_c, 0, 75, 63
1, 31127, Note_off_c, 0, 54, 65
1, 31142, Note_off_c, 0, 75, 57
1, 31177, Note_on_c, 0, 77, 65
1, 31250, Note_on_c, 0, 53, 68
1, 31252, Note_off_c, 0, 77, 57
1, 31258, Note_on_c, 0, 75, 66
1, 31279, Note_off_c, 0, 53, 65
1, 31333, Note_on_c, 0, 73, 64
1, 31337, Note_off_c, 0, 75, 59
1, 31378, Note_off_c, 0, 73, 61
1, 31417, Note_on_c, 0, 51, 64
1, 31428, Note_on_c, 0, 72, 61
1, 31448, Note_off_c, 0, 51, 66
1, 31470, Note_off_c, 0, 72, 57
1, 31502, Note_on_c, 0, 70, 53
1, 31542, Note_off_c, 0, 70, 62
1, 31575, Note_on_c, 0, 56, 63
1, 31593, Note_on_c, 0, 72, 54
1, 31609, Note_off_c, 0, 56, 65
1, 31642, Note_off_c, 0, 72, 62
1, 31671, Note_on_c, 0, 68, 53
1, 31708, Note_off_c, 0, 68, 62
1, 31749, Note_on_c, 0, 66, 53
1, 31771, Note_off_c, 0, 66, 59
1, 31821, Note_on_c, 0, 68, 58
1, 31855, Note_off_c, 0, 68, 64
1, 31898, Note_on_c, 0, 63, 51
1, 31931, Note_off_c, 0, 63, 64
1, 31973, Note_on_c, 0, 68, 52
1, 32018, Note_off_c, 0, 68, 60
1, 32042, Note_on_c, 0, 56, 62
1, 32060, Note_on_c, 0, 72, 62
1, 32076, Note_off_c, 0, 56, 64
1, 32109, Note_off_c, 0, 72, 60
1, 32134, Note_on_c, 0, 68, 58
1, 32179, Note_off_c, 0, 68, 63
1, 32216, Note_on_c, 0, 66, 57
1, 32250, Note_off_c, 0, 66, 64
1, 32291, Note_on_c, 0, 68, 52
1, 32325, Note_off_c, 0, 68, 61
1, 32369, Note_on_c, 0, 63, 50
1, 32404, Note_off_c, 0, 63, 64
1, 32452, Note_on_c, 0, 68, 48
1, 32501, Note_off_c, 0, 68, 59
1, 32523, Note_on_c, 0, 56, 49
1, 32539, Note_on_c, 0, 73, 59
1, 32572, Note_off_c, 0, 56, 61
1, 32605, Note_off_c, 0, 73, 54
1, 32623, Note_on_c, 0, 68, 54
1, 32665, Note_off_c, 0, 68, 62
1, 32701, Note_on_c, 0, 65, 49
1, 32736, Note_off_c, 0, 65, 64
1, 32789, Note_on_c, 0, 68, 46
1, 32818, Note_off_c, 0, 68, 59
1, 32847, Note_on_c, 0, 61, 49
1, 32883, Note_off_c, 0, 61, 64
1, 32940, Note_on_c, 0, 68, 51
1, 32988, Note_off_c, 0, 68, 59
1, 33016, Note_on_c, 0, 56, 52
1, 33025, Note_on_c, 0, 73, 66
1, 33053, Note_off_c, 0, 56, 63
1, 33093, Note_off_c, 0, 73, 60
1, 33111, Note_on_c, 0, 68, 64
1, 33144, Note_off_c, 0, 68, 65
1, 33183, Note_on_c, 0, 65, 58
1, 33216, Note_off_c, 0, 65, 65
1, 33262, Note_on_c, 0, 68, 62
1, 33297, Note_off_c, 0, 68, 65
1, 33331, Note_on_c, 0, 61, 58
1, 33365, Note_off_c, 0, 61, 64
1, 33413, Note_on_c, 0, 68, 61
1, 33462, Note_off_c, 0, 68, 56
1, 33496, Note_on_c, 0, 78, 80
1, 33500, Note_on_c, 0, 56, 57
1, 33540, Note_off_c, 0, 56, 65
1, 33568, Note_off_c, 0, 78, 63
1, 33589, Note_on_c, 0, 68, 60
1, 33618, Note_off_c, 0, 68, 63
1, 33679, Note_on_c, 0, 63, 58
1, 33711, Note_off_c, 0, 63, 62
1, 33746, Note_on_c, 0, 68, 54
1, 33776, Note_off_c, 0, 68, 62
1, 33822, Note_on_c, 0, 60, 64
1, 33852, Note_off_c, 0, 60, 65
1, 33902, Note_on_c, 0, 68, 61
1, 33948, Note_off_c, 0, 68, 58
1, 33979, Note_on_c, 0, 56, 62
1, 33989, Note_on_c, 0, 78, 73
1, 34024, Note_off_c, 0, 56, 63
1, 34072, Note_off_c, 0, 78, 59
1, 34075, Note_on_c, 0, 68, 62
1, 34116, Note_off_c, 0, 68, 60
1, 34150, Note_on_c, 0, 63, 60
1, 34188, Note_off_c, 0, 63, 61
1, 34232, Note_on_c, 0, 68, 58
1, 34267, Note_off_c, 0, 68, 64
1, 34308, Note_on_c, 0, 60, 53
1, 34349, Note_off_c, 0, 60, 63
1, 34388, Note_on_c, 0, 68, 51
1, 34449, Note_off_c, 0, 68, 57
1, 34477, Note_on_c, 0, 56, 55
1, 34479, Note_on_c, 0, 77, 67
1, 34519, Note_off_c, 0, 56, 63
1, 34563, Note_off_c, 0, 77, 57
1, 34569, Note_on_c, 0, 68, 56
1, 34615, Note_off_c, 0, 68, 57
1, 34647, Note_on_c, 0, 65, 55
1, 34682, Note_off_c, 0, 65, 65
1, 34740, Note_on_c, 0, 68, 52
1, 34771, Note_off_c, 0, 68, 61
1, 34803, Note_on_c, 0, 61, 61
1, 34841, Note_off_c, 0, 61, 64
1, 34876, Note_on_c, 0, 68, 59
1, 34930, Note_off_c, 0, 68, 57
1, 34960, Note_on_c, 0, 77, 77
1, 34967, Note_on_c, 0, 56, 62
1, 35013, Note_off_c, 0, 56, 59
1, 35049, Note_off_c, 0, 77, 61
1, 35051, Note_on_c, 0, 68, 64
1, 35088, Note_off_c, 0, 68, 61
1, 35130, Note_on_c, 0, 65, 62
1, 35171, Note_off_c, 0, 65, 63
1, 35207, Note_on_c, 0, 68, 66
1, 35242, Note_off_c, 0, 68, 61
1, 35289, Note_on_c, 0, 61, 64
1, 35321, Note_off_c, 0, 61, 63
1, 35358, Note_on_c, 0, 68, 64
1, 35435, Note_off_c, 0, 68, 61
1, 35449, Note_on_c, 0, 56, 56
1, 35453, Note_on_c, 0, 79, 78
1, 35496, Note_off_c, 0, 56, 60
1, 35531, Note_off_c, 0, 79, 64
1, 35547, Note_on_c, 0, 70, 67
1, 35578, Note_off_c, 0, 70, 63
1, 35621, Note_on_c, 0, 64, 66
1, 35653, Note_off_c, 0, 64, 64
1, 35702, Note_on_c, 0, 70, 68
1, 35729, Note_off_c, 0, 70, 68
1, 35780, Note_on_c, 0, 61, 66
1, 35809, Note_off_c, 0, 61, 65
1, 35856, Note_on_c, 0, 70, 64
1, 35917, Note_off_c, 0, 70, 55
1, 35942, Note_on_c, 0, 79, 79
1, 35943, Note_on_c, 0, 56, 65
1, 35981, Note_off_c, 0, 56, 65
1, 36028, Note_off_c, 0, 79, 64
1, 36033, Note_on_c, 0, 70, 62
1, 36075, Note_off_c, 0, 70, 62
1, 36110, Note_on_c, 0, 64, 67
1, 36140, Note_off_c, 0, 64, 66
1, 36200, Note_on_c, 0, 70, 58
1, 36237, Note_off_c, 0, 70, 63
1, 36274, Note_on_c, 0, 61, 58
1, 36307, Note_off_c, 0, 61, 63
1, 36354, Note_on_c, 0, 70, 59
1, 36394, Note_off_c, 0, 70, 60
1, 36426, Note_on_c, 0, 56, 62
1, 36444, Note_on_c, 0, 80, 74
1, 36471, Note_off_c, 0, 56, 62
1, 36522, Note_off_c, 0, 80, 59
1, 36528, Note_on_c, 0, 72, 58
1, 36563, Note_off_c, 0, 72, 65
1, 36597, Note_on_c, 0, 63, 58
1, 36635, Note_off_c, 0, 63, 64
1, 36686, Note_on_c, 0, 72, 53
1, 36710, Note_off_c, 0, 72, 62
1, 36769, Note_on_c, 0, 60, 63
1, 36797, Note_off_c, 0, 60, 66
1, 36849, Note_on_c, 0, 72, 56
1, 36905, Note_off_c, 0, 72, 60
1, 36927, Note_on_c, 0, 54, 67
1, 36933, Note_on_c, 0, 80, 76
1, 36969, Note_off_c, 0, 54, 61
1, 37023, Note_off_c, 0, 80, 61
1, 37026, Note_on_c, 0, 72, 65
1, 37061, Note_off_c, 0, 72, 65
1, 37109, Note_on_c, 0, 63, 67
1, 37141, Note_off_c, 0, 63, 63
1, 37188, Note_on_c, 0, 72, 61
1, 37219, Note_off_c, 0, 72, 66
1, 37271, Note_on_c, 0, 60, 66
1, 37306, Note_off_c, 0, 60, 64
1, 37366, Note_on_c, 0, 72, 61
1, 37410, Note_off_c, 0, 72, 63
1, 37464, Note_on_c, 0, 53, 53
1, 37481, Note_on_c, 0, 80, 67
1, 37552, Note_off_c, 0, 53, 58
1, 37566, Note_on_c, 0, 73, 56
1, 37571, Note_off_c, 0, 80, 59
1, 37616, Note_off_c, 0, 73, 60
1, 37652, Note_on_c, 0, 65, 57
1, 37684, Note_off_c, 0, 65, 64
1, 37727, Note_on_c, 0, 68, 69
1, 37763, Note_off_c, 0, 68, 61
1, 37810, Note_on_c, 0, 61, 66
1, 37842, Note_off_c, 0, 61, 62
1, 37887, Note_on_c, 0, 73, 64
1, 37922, Note_off_c, 0, 73, 63
1, 37958, Note_on_c, 0, 56, 72
1, 38015, Note_off_c, 0, 56, 63
1, 38044, Note_on_c, 0, 77, 74
1, 38078, Note_off_c, 0, 77, 61
1, 38123, Note_on_c, 0, 53, 71
1, 38170, Note_off_c, 0, 53, 60
1, 38200, Note_on_c, 0, 80, 76
1, 38255, Note_off_c, 0, 80, 62
1, 38285, Note_on_c, 0, 51, 73
1, 38356, Note_off_c, 0, 51, 62
1, 38368, Note_on_c, 0, 82, 74
1, 38461, Note_on_c, 0, 50, 59
1, 38471, Note_off_c, 0, 82, 64
1, 38476, Note_on_c, 0, 83, 76
1, 38537, Note_off_c, 0, 50, 62
1, 38568, Note_on_c, 0, 82, 81
1, 38635, Note_off_c, 0, 83, 58
1, 38644, Note_on_c, 0, 53, 62
1, 38652, Note_on_c, 0, 80, 79
1, 38681, Note_off_c, 0, 53, 61
1, 38706, Note_off_c, 0, 82, 63
1, 38725, Note_on_c, 0, 78, 79
1, 38746, Note_off_c, 0, 80, 63
1, 38790, Note_off_c, 0, 78, 64
1, 38795, Note_on_c, 0, 58, 68
1, 38802, Note_on_c, 0, 77, 81
1, 38844, Note_off_c, 0, 58, 55
1, 38874, Note_off_c, 0, 77, 65
1, 38875, Note_on_c, 0, 75, 81
1, 38955, Note_off_c, 0, 75, 58
1, 38966, Note_on_c, 0, 62, 73
1, 38974, Note_on_c, 0, 77, 83
1, 39016, Note_off_c, 0, 62, 54
1, 39052, Note_on_c, 0, 78, 81
1, 39057, Note_off_c, 0, 77, 58
1, 39131, Note_on_c, 0, 65, 69
1, 39136, Note_on_c, 0, 80, 81
1, 39154, Note_off_c, 0, 78, 63
1, 39199, Note_off_c, 0, 65, 56
1, 39219, Note_on_c, 0, 83, 79
1, 39221, Note_off_c, 0, 80, 65
1, 39293, Note_on_c, 0, 68, 78
1, 39297, Note_on_c, 0, 82, 76
1, 39324, Note_off_c, 0, 83, 60
1, 39334, Note_off_c, 0, 68, 61
1, 39371, Note_on_c, 0, 80, 74
1, 39384, Note_off_c, 0, 82, 60
1, 39434, Note_off_c, 0, 80, 63
1, 39462, Note_on_c, 0, 66, 63
1, 39464, Note_on_c, 0, 82, 73
1, 39503, Note_off_c, 0, 66, 60
1, 39548, Note_on_c, 0, 75, 68
1, 39559, Note_off_c, 0, 82, 61
1, 39589, Note_off_c, 0, 75, 61
1, 39622, Note_on_c, 0, 63, 64
1, 39664, Note_off_c, 0, 63, 63
1, 39712, Note_on_c, 0, 66, 60
1, 39750, Note_off_c, 0, 66, 61
1, 39781, Note_on_c, 0, 58, 65
1, 39817, Note_off_c, 0, 58, 65
1, 39849, Note_on_c, 0, 70, 63
1, 39883, Note_off_c, 0, 70, 65
1, 39934, Note_on_c, 0, 54, 62
1, 39970, Note_off_c, 0, 54, 64
1, 40004, Note_on_c, 0, 75, 73
1, 40038, Note_off_c, 0, 75, 63
1, 40093, Note_on_c, 0, 51, 70
1, 40132, Note_off_c, 0, 51, 63
1, 40153, Note_on_c, 0, 78, 72
1, 40204, Note_off_c, 0, 78, 61
1, 40251, Note_on_c, 0, 49, 63
1, 40302, Note_off_c, 0, 49, 58
1, 40338, Note_on_c, 0, 80, 62
1, 40415, Note_off_c, 0, 80, 60
1, 40444, Note_on_c, 0, 48, 48
1, 40454, Note_on_c, 0, 81, 55
1, 40506, Note_off_c, 0, 48, 59
1, 40537, Note_on_c, 0, 80, 65
1, 40582, Note_off_c, 0, 81, 55
1, 40615, Note_on_c, 0, 51, 54
1, 40629, Note_on_c, 0, 78, 65
1, 40645, Note_off_c, 0, 80, 60
1, 40656, Note_off_c, 0, 51, 62
1, 40683, Note_off_c, 0, 78, 63
1, 40700, Note_on_c, 0, 76, 63
1, 40770, Note_on_c, 0, 56, 60
1, 40770, Note_off_c, 0, 76, 62
1, 40776, Note_on_c, 0, 75, 68
1, 40817, Note_off_c, 0, 56, 58
1, 40852, Note_on_c, 0, 73, 68
1, 40856, Note_off_c, 0, 75, 59
1, 40928, Note_on_c, 0, 60, 68
1, 40941, Note_on_c, 0, 75, 65
1, 40954, Note_off_c, 0, 73, 59
1, 40980, Note_off_c, 0, 60, 60
1, 40984, Note_off_c, 0, 75, 60
1, 41017, Note_on_c, 0, 76, 70
1, 41095, Note_on_c, 0, 63, 67
1, 41105, Note_off_c, 0, 76, 56
1, 41108, Note_on_c, 0, 78, 65
1, 41145, Note_off_c, 0, 63, 56
1, 41174, Note_off_c, 0, 78, 60
1, 41201, Note_on_c, 0, 81, 56
1, 41272, Note_on_c, 0, 66, 64
1, 41273, Note_off_c, 0, 81, 58
1, 41282, Note_on_c, 0, 80, 60
1, 41324, Note_off_c, 0, 66, 55
1, 41364, Note_on_c, 0, 78, 60
1, 41365, Note_off_c, 0, 80, 59
1, 41420, Note_off_c, 0, 78, 58
1, 41466, Note_on_c, 0, 80, 62
1, 41470, Note_on_c, 0, 64, 42
1, 41518, Note_off_c, 0, 64, 57
1, 41545, Note_on_c, 0, 73, 61
1, 41548, Note_off_c, 0, 80, 60
1, 41577, Note_off_c, 0, 73, 65
1, 41633, Note_on_c, 0, 61, 56
1, 41671, Note_off_c, 0, 61, 62
1, 41709, Note_on_c, 0, 76, 62
1, 41747, Note_off_c, 0, 76, 61
1, 41789, Note_on_c, 0, 57, 65
1, 41828, Note_off_c, 0, 57, 65
1, 41855, Note_on_c, 0, 73, 65
1, 41898, Note_off_c, 0, 73, 61
1, 41951, Note_on_c, 0, 54, 69
1, 41987, Note_off_c, 0, 54, 66
1, 42025, Note_on_c, 0, 69, 68
1, 42057, Note_off_c, 0, 69, 65
1, 42112, Note_on_c, 0, 63, 70
1, 42144, Note_off_c, 0, 63, 63
1, 42173, Note_on_c, 0, 66, 69
1, 42207, Note_off_c, 0, 66, 61
1, 42263, Note_on_c, 0, 60, 73
1, 42296, Note_off_c, 0, 60, 67
1, 42335, Note_on_c, 0, 75, 69
1, 42368, Note_off_c, 0, 75, 61
1, 42409, Note_on_c, 0, 52, 70
1, 42467, Note_off_c, 0, 52, 61
1, 42498, Note_on_c, 0, 68, 63
1, 42533, Note_off_c, 0, 68, 61
1, 42572, Note_on_c, 0, 61, 73
1, 42602, Note_off_c, 0, 61, 63
1, 42657, Note_on_c, 0, 64, 61
1, 42687, Note_off_c, 0, 64, 65
1, 42728, Note_on_c, 0, 57, 70
1, 42761, Note_off_c, 0, 57, 66
1, 42806, Note_on_c, 0, 73, 63
1, 42847, Note_off_c, 0, 73, 57
1, 42897, Note_on_c, 0, 54, 62
1, 42937, Note_off_c, 0, 54, 64
1, 42958, Note_on_c, 0, 69, 58
1, 42995, Note_off_c, 0, 69, 62
1, 43045, Note_on_c, 0, 51, 67
1, 43083, Note_off_c, 0, 51, 67
1, 43119, Note_on_c, 0, 66, 50
1, 43153, Note_off_c, 0, 66, 62
1, 43209, Note_on_c, 0, 48, 51
1, 43247, Note_off_c, 0, 48, 61
1, 43268, Control_c, 0, 67, 12
1, 43283, Control_c, 0, 67, 16
1, 43284, Note_on_c, 0, 63, 52
1, 43297, Control_c, 0, 67, 19
1, 43312, Control_c, 0, 67, 25
1, 43327, Control_c, 0, 67, 31
1, 43331, Note_off_c, 0, 63, 59
1, 43342, Control_c, 0, 67, 38
1, 43357, Control_c, 0, 67, 43
1, 43372, Control_c, 0, 67, 45
1, 43390, Note_on_c, 0, 44, 50
1, 43393, Control_c, 0, 67, 48
1, 43403, Note_on_c, 0, 60, 54
1, 43408, Control_c, 0, 67, 50
1, 43423, Control_c, 0, 67, 51
1, 43438, Control_c, 0, 67, 52
1, 43438, Note_off_c, 0, 44, 62
1, 43461, Note_off_c, 0, 60, 58
1, 43497, Note_on_c, 0, 56, 51
1, 43512, Control_c, 0, 67, 51
1, 43527, Control_c, 0, 67, 50
1, 43530, Note_off_c, 0, 56, 64
1, 43542, Control_c, 0, 67, 49
1, 43557, Control_c, 0, 67, 48
1, 43560, Note_on_c, 0, 54, 53
1, 43572, Control_c, 0, 67, 48
1, 43586, Control_c, 0, 67, 46
1, 43587, Note_off_c, 0, 54, 64
1, 43601, Control_c, 0, 67, 45
1, 43616, Control_c, 0, 67, 43
1, 43654, Note_on_c, 0, 56, 46
1, 43685, Note_off_c, 0, 56, 62
1, 43709, Note_on_c, 0, 51, 65
1, 43737, Note_off_c, 0, 51, 66
1, 43791, Note_on_c, 0, 56, 45
1, 43836, Note_off_c, 0, 56, 61
1, 43863, Note_on_c, 0, 44, 59
1, 43876, Note_on_c, 0, 60, 59
1, 43896, Note_off_c, 0, 44, 63
1, 43913, Control_c, 0, 67, 43
1, 43928, Note_off_c, 0, 60, 59
1, 43958, Note_on_c, 0, 56, 49
1, 43987, Control_c, 0, 67, 43
1, 43998, Note_off_c, 0, 56, 65
1, 44020, Note_on_c, 0, 54, 61
1, 44052, Note_off_c, 0, 54, 67
1, 44107, Note_on_c, 0, 56, 53
1, 44150, Note_off_c, 0, 56, 65
1, 44175, Note_on_c, 0, 51, 60
1, 44210, Note_off_c, 0, 51, 63
1, 44263, Note_on_c, 0, 56, 48
1, 44305, Control_c, 0, 67, 44
1, 44307, Note_off_c, 0, 56, 61
1, 44335, Note_on_c, 0, 44, 62
1, 44335, Control_c, 0, 67, 45
1, 44345, Note_on_c, 0, 61, 59
1, 44374, Note_off_c, 0, 44, 63
1, 44394, Note_off_c, 0, 61, 55
1, 44429, Note_on_c, 0, 56, 52
1, 44469, Note_off_c, 0, 56, 65
1, 44499, Note_on_c, 0, 53, 63
1, 44542, Note_off_c, 0, 53, 61
1, 44580, Note_on_c, 0, 56, 52
1, 44618, Note_off_c, 0, 56, 65
1, 44647, Control_c, 0, 67, 44
1, 44660, Note_on_c, 0, 49, 58
1, 44694, Note_off_c, 0, 49, 63
1, 44734, Note_on_c, 0, 56, 48
1, 44788, Note_off_c, 0, 56, 58
1, 44812, Note_on_c, 0, 44, 63
1, 44827, Note_on_c, 0, 61, 59
1, 44852, Note_off_c, 0, 44, 62
1, 44913, Note_on_c, 0, 56, 62
1, 44916, Note_off_c, 0, 61, 60
1, 44952, Note_off_c, 0, 56, 65
1, 44985, Note_on_c, 0, 53, 65
1, 45020, Note_off_c, 0, 53, 63
1, 45061, Note_on_c, 0, 56, 60
1, 45093, Note_off_c, 0, 56, 65
1, 45143, Note_on_c, 0, 49, 64
1, 45179, Note_off_c, 0, 49, 66
1, 45218, Note_on_c, 0, 56, 57
1, 45263, Note_off_c, 0, 56, 63
1, 45301, Note_on_c, 0, 66, 75
1, 45302, Note_on_c, 0, 44, 71
1, 45345, Note_off_c, 0, 44, 62
1, 45370, Note_off_c, 0, 66, 60
1, 45386, Note_on_c, 0, 56, 58
1, 45422, Note_off_c, 0, 56, 64
1, 45463, Note_on_c, 0, 51, 72
1, 45497, Note_off_c, 0, 51, 66
1, 45527, Note_on_c, 0, 56, 57
1, 45529, Control_c, 0, 67, 43
1, 45544, Control_c, 0, 67, 43
1, 45567, Note_off_c, 0, 56, 65
1, 45614, Note_on_c, 0, 48, 70
1, 45618, Control_c, 0, 67, 42
1, 45658, Note_off_c, 0, 48, 64
1, 45688, Note_on_c, 0, 56, 60
1, 45736, Note_off_c, 0, 56, 59
1, 45777, Note_on_c, 0, 66, 71
1, 45778, Note_on_c, 0, 44, 71
1, 45817, Note_off_c, 0, 44, 61
1, 45818, Control_c, 0, 67, 43
1, 45857, Note_off_c, 0, 66, 58
1, 45859, Note_on_c, 0, 56, 63
1, 45900, Note_off_c, 0, 56, 63
1, 45929, Note_on_c, 0, 51, 74
1, 45951, Control_c, 0, 67, 43
1, 45962, Note_off_c, 0, 51, 63
1, 45995, Control_c, 0, 67, 44
1, 46012, Note_on_c, 0, 56, 56
1, 46050, Note_off_c, 0, 56, 65
1, 46079, Note_on_c, 0, 48, 64
1, 46115, Control_c, 0, 67, 45
1, 46118, Note_off_c, 0, 48, 63
1, 46160, Note_on_c, 0, 56, 53
1, 46221, Note_off_c, 0, 56, 57
1, 46239, Note_on_c, 0, 44, 63
1, 46253, Note_on_c, 0, 65, 61
1, 46284, Note_off_c, 0, 44, 59
1, 46326, Note_off_c, 0, 65, 59
1, 46337, Control_c, 0, 67, 44
1, 46343, Note_on_c, 0, 56, 55
1, 46352, Control_c, 0, 67, 43
1, 46392, Note_off_c, 0, 56, 59
1, 46404, Control_c, 0, 67, 43
1, 46410, Note_on_c, 0, 53, 63
1, 46418, Control_c, 0, 67, 42
1, 46433, Control_c, 0, 67, 41
1, 46448, Note_off_c, 0, 53, 63
1, 46448, Control_c, 0, 67, 41
1, 46463, Control_c, 0, 67, 40
1, 46478, Control_c, 0, 67, 40
1, 46493, Control_c, 0, 67, 38
1, 46495, Note_on_c, 0, 56, 59
1, 46508, Control_c, 0, 67, 36
1, 46523, Control_c, 0, 67, 33
1, 46533, Note_off_c, 0, 56, 64
1, 46537, Control_c, 0, 67, 29
1, 46552, Control_c, 0, 67, 26
1, 46567, Control_c, 0, 67, 24
1, 46573, Note_on_c, 0, 49, 60
1, 46582, Control_c, 0, 67, 19
1, 46597, Control_c, 0, 67, 11
1, 46611, Note_off_c, 0, 49, 64
1, 46611, Control_c, 0, 67, 0
1, 46634, Note_on_c, 0, 56, 57
1, 46693, Note_off_c, 0, 56, 57
1, 46717, Note_on_c, 0, 65, 73
1, 46723, Note_on_c, 0, 44, 64
1, 46767, Note_off_c, 0, 44, 59
1, 46804, Note_off_c, 0, 65, 61
1, 46806, Note_on_c, 0, 56, 65
1, 46848, Note_off_c, 0, 56, 64
1, 46880, Note_on_c, 0, 53, 69
1, 46915, Note_off_c, 0, 53, 64
1, 46958, Note_on_c, 0, 56, 65
1, 47000, Note_off_c, 0, 56, 63
1, 47026, Note_on_c, 0, 49, 67
1, 47062, Note_off_c, 0, 49, 66
1, 47098, Note_on_c, 0, 56, 73
1, 47169, Note_off_c, 0, 56, 63
1, 47190, Note_on_c, 0, 44, 71
1, 47193, Note_on_c, 0, 67, 81
1, 47241, Note_off_c, 0, 44, 58
1, 47277, Note_on_c, 0, 58, 70
1, 47279, Note_off_c, 0, 67, 61
1, 47319, Note_off_c, 0, 58, 60
1, 47356, Note_on_c, 0, 52, 75
1, 47394, Note_off_c, 0, 52, 62
1, 47423, Note_on_c, 0, 58, 69
1, 47459, Note_off_c, 0, 58, 61
1, 47503, Note_on_c, 0, 49, 76
1, 47541, Note_off_c, 0, 49, 63
1, 47569, Note_on_c, 0, 58, 71
1, 47647, Note_off_c, 0, 58, 59
1, 47659, Note_on_c, 0, 67, 82
1, 47659, Note_on_c, 0, 44, 76
1, 47702, Note_off_c, 0, 44, 61
1, 47753, Note_on_c, 0, 58, 66
1, 47754, Note_off_c, 0, 67, 61
1, 47810, Note_off_c, 0, 58, 57
1, 47834, Note_on_c, 0, 52, 79
1, 47881, Note_off_c, 0, 52, 62
1, 47921, Note_on_c, 0, 58, 72
1, 47974, Note_off_c, 0, 58, 56
1, 48010, Note_on_c, 0, 49, 73
1, 48070, Note_off_c, 0, 49, 63
1, 48094, Note_on_c, 0, 58, 68
1, 48156, Note_off_c, 0, 58, 61
1, 48193, Note_on_c, 0, 44, 69
1, 48309, Note_on_c, 0, 48, 70
1, 48350, Note_off_c, 0, 44, 56
1, 48399, Note_on_c, 0, 51, 74
1, 48411, Note_off_c, 0, 48, 63
1, 48461, Note_off_c, 0, 51, 65
1, 48493, Note_on_c, 0, 54, 73
1, 48569, Note_on_c, 0, 57, 73
1, 48595, Note_off_c, 0, 54, 63
1, 48655, Note_on_c, 0, 60, 75
1, 48671, Note_off_c, 0, 57, 60
1, 48725, Note_on_c, 0, 61, 68
1, 48731, Note_off_c, 0, 60, 63
1, 48810, Note_on_c, 0, 64, 70
1, 48825, Note_off_c, 0, 61, 61
1, 48886, Note_on_c, 0, 67, 72
1, 48890, Note_off_c, 0, 64, 63
1, 48957, Note_on_c, 0, 70, 73
1, 48958, Note_off_c, 0, 67, 62
1, 49044, Note_on_c, 0, 73, 78
1, 49066, Note_off_c, 0, 70, 62
1, 49121, Note_on_c, 0, 76, 79
1, 49131, Note_off_c, 0, 73, 63
1, 49213, Note_on_c, 0, 72, 75
1, 49219, Note_on_c, 0, 44, 58
1, 49248, Note_off_c, 0, 76, 62
1, 49312, Note_on_c, 0, 75, 83
1, 49335, Note_off_c, 0, 72, 62
1, 49394, Note_off_c, 0, 75, 62
1, 49399, Note_on_c, 0, 78, 82
1, 49448, Note_off_c, 0, 44, 63
1, 49472, Note_on_c, 0, 75, 75
1, 49496, Note_off_c, 0, 78, 59
1, 49552, Note_on_c, 0, 72, 73
1, 49582, Note_off_c, 0, 75, 61
1, 49641, Note_on_c, 0, 68, 68
1, 49653, Note_off_c, 0, 72, 57
1, 49708, Note_on_c, 0, 66, 70
1, 49709, Note_off_c, 0, 68, 61
1, 49788, Note_off_c, 0, 66, 61
1, 49791, Note_on_c, 0, 63, 67
1, 49863, Note_off_c, 0, 63, 60
1, 49864, Note_on_c, 0, 60, 68
1, 49935, Note_off_c, 0, 60, 64
1, 49943, Note_on_c, 0, 56, 66
1, 50022, Note_off_c, 0, 56, 64
1, 50024, Note_on_c, 0, 60, 69
1, 50080, Note_off_c, 0, 60, 63
1, 50102, Note_on_c, 0, 63, 61
1, 50207, Note_on_c, 0, 56, 52
1, 50210, Note_on_c, 0, 65, 55
1, 50215, Note_off_c, 0, 63, 59
1, 50280, Note_on_c, 0, 68, 69
1, 50284, Note_off_c, 0, 65, 58
1, 50360, Note_off_c, 0, 68, 62
1, 50368, Note_on_c, 0, 73, 70
1, 50448, Note_on_c, 0, 68, 72
1, 50458, Note_off_c, 0, 73, 59
1, 50508, Note_off_c, 0, 68, 62
1, 50529, Note_off_c, 0, 56, 62
1, 50533, Note_on_c, 0, 65, 68
1, 50590, Note_off_c, 0, 65, 58
1, 50606, Note_on_c, 0, 61, 72
1, 50696, Note_on_c, 0, 58, 68
1, 50701, Note_off_c, 0, 61, 62
1, 50780, Note_off_c, 0, 58, 60
1, 50783, Note_on_c, 0, 55, 69
1, 50866, Note_on_c, 0, 52, 70
1, 50879, Note_off_c, 0, 55, 63
1, 50958, Note_off_c, 0, 52, 65
1, 50958, Note_on_c, 0, 49, 69
1, 51039, Note_off_c, 0, 49, 63
1, 51045, Note_on_c, 0, 52, 69
1, 51140, Note_off_c, 0, 52, 64
1, 51143, Note_on_c, 0, 55, 66
1, 51251, Note_off_c, 0, 55, 60
1, 51252, Note_on_c, 0, 44, 67
1, 51562, Note_on_c, 0, 73, 76
1, 51570, Note_on_c, 0, 49, 46
1, 51570, Note_on_c, 0, 65, 63
1, 51571, Note_on_c, 0, 53, 57
1, 51571, Note_on_c, 0, 56, 54
1, 51575, Note_on_c, 0, 68, 60
1, 51599, Note_off_c, 0, 65, 66
1, 51607, Note_off_c, 0, 56, 64
1, 51611, Note_off_c, 0, 68, 62
1, 51613, Note_off_c, 0, 53, 64
1, 51629, Note_off_c, 0, 73, 62
1, 51638, Note_off_c, 0, 49, 62
1, 51871, Note_on_c, 0, 72, 71
1, 51877, Note_on_c, 0, 63, 65
1, 51884, Note_on_c, 0, 54, 55
1, 51885, Note_on_c, 0, 51, 53
1, 51891, Note_on_c, 0, 56, 48
1, 51893, Note_on_c, 0, 68, 53
1, 51910, Note_off_c, 0, 63, 64
1, 51930, Note_off_c, 0, 68, 64
1, 51933, Note_off_c, 0, 56, 63
1, 51934, Note_off_c, 0, 51, 59
1, 51935, Note_off_c, 0, 72, 64
1, 51938, Note_off_c, 0, 54, 62
1, 52331, Note_on_c, 0, 73, 62
1, 52336, Note_on_c, 0, 56, 44
1, 52340, Note_on_c, 0, 49, 36
1, 52344, Note_on_c, 0, 61, 44
1, 52344, Note_on_c, 0, 68, 40
1, 52348, Note_on_c, 0, 53, 38
1, 52352, Note_off_c, 0, 44, 48
1, 52912, Control_c, 0, 64, 15
1, 52927, Control_c, 0, 64, 21
1, 52942, Control_c, 0, 64, 25
1, 52957, Control_c, 0, 64, 28
1, 52971, Control_c, 0, 64, 31
1, 52986, Control_c, 0, 64, 34
1, 53001, Control_c, 0, 64, 37
1, 53016, Control_c, 0, 64, 40
1, 53031, Control_c, 0, 64, 43
1, 53045, Control_c, 0, 64, 45
1, 53060, Control_c, 0, 64, 47
1, 53075, Control_c, 0, 64, 49
1, 53090, Control_c, 0, 64, 51
1, 53105, Control_c, 0, 64, 53
1, 53127, Control_c, 0, 64, 55
1, 53142, Control_c, 0, 64, 57
1, 53157, Control_c, 0, 64, 60
1, 53171, Control_c, 0, 64, 63
1, 53186, Control_c, 0, 64, 65
1, 53201, Control_c, 0, 64, 67
1, 53217, Control_c, 0, 64, 69
1, 53232, Control_c, 0, 64, 72
1, 53247, Control_c, 0, 64, 75
1, 53262, Control_c, 0, 64, 78
1, 53276, Control_c, 0, 64, 84
1, 53291, Control_c, 0, 64, 92
1, 53306, Control_c, 0, 64, 102
1, 53320, Control_c, 0, 64, 127
1, 53436, Note_off_c, 0, 61, 40
1, 53443, Note_off_c, 0, 73, 38
1, 53465, Note_off_c, 0, 56, 41
1, 53507, Note_off_c, 0, 49, 35
1, 53514, Note_off_c, 0, 53, 39
1, 53546, Note_off_c, 0, 68, 36
1, 53647, Control_c, 0, 64, 119
1, 53662, Control_c, 0, 64, 116
1, 53676, Control_c, 0, 64, 115
1, 53720, Control_c, 0, 64, 114
1, 53735, Control_c, 0, 64, 113
1, 53750, Control_c, 0, 64, 111
1, 53765, Control_c, 0, 64, 109
1, 53780, Control_c, 0, 64, 107
1, 53794, Control_c, 0, 64, 106
1, 53809, Control_c, 0, 64, 104
1, 53824, Control_c, 0, 64, 102
1, 53854, Control_c, 0, 64, 102
1, 53891, Control_c, 0, 64, 101
1, 53935, Control_c, 0, 64, 100
1, 53950, Control_c, 0, 64, 100
1, 53965, Control_c, 0, 64, 99
1, 53980, Control_c, 0, 64, 98
1, 53994, Control_c, 0, 64, 96
1, 54009, Control_c, 0, 64, 95
1, 54025, Control_c, 0, 64, 94
1, 54040, Control_c, 0, 64, 93
1, 54055, Control_c, 0, 64, 91
1, 54070, Control_c, 0, 64, 88
1, 54085, Control_c, 0, 64, 86
1, 54099, Control_c, 0, 64, 85
1, 54114, Control_c, 0, 64, 83
1, 54129, Control_c, 0, 64, 81
1, 54143, Control_c, 0, 64, 78
1, 54158, Control_c, 0, 64, 74
1, 54173, Control_c, 0, 64, 70
1, 54188, Control_c, 0, 64, 67
1, 54203, Control_c, 0, 64, 65
1, 54217, Control_c, 0, 64, 63
1, 54232, Control_c, 0, 64, 62
1, 54247, Control_c, 0, 64, 61
1, 54262, Control_c, 0, 64, 60
1, 54277, Control_c, 0, 64, 59
1, 54291, Control_c, 0, 64, 57
1, 54306, Control_c, 0, 64, 55
1, 54321, Control_c, 0, 64, 53
1, 54336, Control_c, 0, 64, 52
1, 54351, Control_c, 0, 64, 51
1, 54366, Control_c, 0, 64, 50
1, 54380, Control_c, 0, 64, 49
1, 54395, Control_c, 0, 64, 47
1, 54410, Control_c, 0, 64, 46
1, 54425, Control_c, 0, 64, 45
1, 54440, Control_c, 0, 64, 44
1, 54455, Control_c, 0, 64, 43
1, 54470, Control_c, 0, 64, 42
1, 54485, Control_c, 0, 64, 41
1, 54499, Control_c, 0, 64, 40
1, 54514, Control_c, 0, 64, 39
1, 54529, Control_c, 0, 64, 38
1, 54543, Control_c, 0, 64, 38
1, 54588, Control_c, 0, 64, 37
1, 55218, Control_c, 0, 64, 38
1, 55291, Control_c, 0, 64, 38
1, 55336, Control_c, 0, 64, 39
1, 55403, Control_c, 0, 64, 39
1, 55477, Control_c, 0, 64, 40
1, 55775, Control_c, 0, 64, 40
1, 56226, Control_c, 0, 64, 40
1, 56229, Note_on_c, 0, 68, 54
1, 56256, Control_c, 0, 64, 39
1, 56262, Note_off_c, 0, 68, 64
1, 56270, Control_c, 0, 64, 39
1, 56300, Control_c, 0, 64, 38
1, 56315, Control_c, 0, 64, 38
1, 56330, Control_c, 0, 64, 37
1, 56345, Control_c, 0, 64, 36
1, 56360, Control_c, 0, 64, 34
1, 56375, Control_c, 0, 64, 32
1, 56389, Control_c, 0, 64, 29
1, 56404, Control_c, 0, 64, 26
1, 56419, Control_c, 0, 64, 22
1, 56434, Control_c, 0, 64, 17
1, 56449, Control_c, 0, 64, 0
1, 56464, Note_on_c, 0, 70, 61
1, 56560, Note_on_c, 0, 68, 69
1, 56562, Note_off_c, 0, 70, 59
1, 56637, Note_off_c, 0, 68, 57
1, 56652, Note_on_c, 0, 66, 70
1, 56723, Note_off_c, 0, 66, 60
1, 56736, Note_on_c, 0, 68, 81
1, 56844, Note_on_c, 0, 77, 81
1, 56852, Note_off_c, 0, 68, 62
1, 56884, Note_off_c, 0, 77, 64
1, 57086, Note_on_c, 0, 73, 74
1, 57114, Note_off_c, 0, 73, 66
1, 57332, Note_on_c, 0, 68, 72
1, 57589, Note_on_c, 0, 66, 64
1, 57604, Note_off_c, 0, 68, 57
1, 57668, Note_off_c, 0, 66, 62
1, 57672, Note_on_c, 0, 65, 71
1, 57755, Note_off_c, 0, 65, 62
1, 57758, Note_on_c, 0, 66, 73
1, 57786, Note_off_c, 0, 66, 65
1, 57979, Note_on_c, 0, 75, 76
1, 58007, Note_off_c, 0, 75, 65
1, 58217, Note_on_c, 0, 65, 63
1, 58246, Note_off_c, 0, 65, 66
1, 58443, Note_on_c, 0, 73, 67
1, 58471, Note_off_c, 0, 73, 66
1, 58649, Note_on_c, 0, 63, 67
1, 58681, Note_off_c, 0, 63, 65
1, 58876, Note_on_c, 0, 72, 65
1, 58911, Note_off_c, 0, 72, 63
1, 59079, Control_c, 0, 64, 23
1, 59094, Control_c, 0, 64, 47
1, 59117, Control_c, 0, 64, 58
1, 59129, Note_on_c, 0, 61, 58
1, 59132, Control_c, 0, 64, 64
1, 59146, Control_c, 0, 64, 74
1, 59161, Note_off_c, 0, 61, 64
1, 59161, Control_c, 0, 64, 96
1, 59176, Control_c, 0, 64, 127
1, 59369, Control_c, 0, 64, 111
1, 59384, Control_c, 0, 64, 94
1, 59388, Note_on_c, 0, 73, 52
1, 59399, Control_c, 0, 64, 83
1, 59413, Control_c, 0, 64, 73
1, 59428, Control_c, 0, 64, 65
1, 59431, Note_off_c, 0, 73, 62
1, 59443, Control_c, 0, 64, 53
1, 59458, Control_c, 0, 64, 25
1, 59472, Note_on_c, 0, 72, 60
1, 59473, Control_c, 0, 64, 0
1, 59530, Note_off_c, 0, 72, 53
1, 59565, Note_on_c, 0, 73, 53
1, 59652, Note_off_c, 0, 73, 63
1, 59657, Note_on_c, 0, 75, 57
1, 59710, Note_off_c, 0, 75, 56
1, 59759, Note_on_c, 0, 61, 62
1, 59763, Note_on_c, 0, 77, 64
1, 59790, Note_off_c, 0, 61, 64
1, 59838, Note_off_c, 0, 77, 61
1, 59865, Note_on_c, 0, 78, 59
1, 59967, Note_off_c, 0, 78, 63
1, 59983, Note_on_c, 0, 65, 58
1, 59983, Note_on_c, 0, 80, 53
1, 60055, Note_off_c, 0, 65, 63
1, 60069, Note_on_c, 0, 63, 66
1, 60074, Note_on_c, 0, 79, 66
1, 60075, Note_off_c, 0, 80, 58
1, 60144, Note_off_c, 0, 79, 60
1, 60154, Note_off_c, 0, 63, 61
1, 60165, Note_on_c, 0, 61, 72
1, 60170, Note_on_c, 0, 77, 68
1, 60235, Note_off_c, 0, 77, 60
1, 60250, Note_on_c, 0, 79, 69
1, 60251, Note_on_c, 0, 63, 74
1, 60256, Note_off_c, 0, 61, 59
1, 60329, Note_off_c, 0, 63, 62
1, 60343, Note_off_c, 0, 79, 65
1, 60351, Note_on_c, 0, 72, 77
1, 60351, Note_on_c, 0, 80, 66
1, 60380, Note_off_c, 0, 72, 64
1, 60455, Note_on_c, 0, 78, 61
1, 60457, Note_off_c, 0, 80, 59
1, 60540, Note_off_c, 0, 78, 62
1, 60567, Note_on_c, 0, 68, 79
1, 60569, Note_on_c, 0, 77, 68
1, 60596, Note_off_c, 0, 68, 65
1, 60670, Note_off_c, 0, 77, 62
1, 60676, Note_on_c, 0, 75, 68
1, 60808, Note_on_c, 0, 63, 72
1, 60811, Note_on_c, 0, 77, 73
1, 60822, Note_off_c, 0, 75, 59
1, 61073, Note_off_c, 0, 63, 61
1, 61081, Note_on_c, 0, 61, 63
1, 61161, Note_off_c, 0, 61, 61
1, 61168, Note_on_c, 0, 60, 73
1, 61260, Note_off_c, 0, 60, 64
1, 61266, Note_on_c, 0, 61, 74
1, 61300, Note_off_c, 0, 61, 61
1, 61396, Note_on_c, 0, 75, 57
1, 61419, Note_off_c, 0, 77, 39
1, 61492, Note_on_c, 0, 73, 63
1, 61493, Note_on_c, 0, 70, 79
1, 61510, Note_off_c, 0, 75, 51
1, 61516, Note_off_c, 0, 70, 69
1, 61573, Note_off_c, 0, 73, 57
1, 61590, Note_on_c, 0, 77, 67
1, 61692, Note_on_c, 0, 60, 77
1, 61696, Note_on_c, 0, 75, 63
1, 61702, Note_off_c, 0, 77, 55
1, 61725, Note_off_c, 0, 60, 67
1, 61785, Note_on_c, 0, 73, 62
1, 61788, Note_off_c, 0, 75, 57
1, 61863, Note_off_c, 0, 73, 59
1, 61899, Note_on_c, 0, 72, 63
1, 61911, Note_on_c, 0, 68, 74
1, 61937, Note_off_c, 0, 68, 66
1, 61979, Note_off_c, 0, 72, 57
1, 61992, Note_on_c, 0, 75, 65
1, 62099, Note_on_c, 0, 73, 62
1, 62110, Note_on_c, 0, 58, 71
1, 62122, Note_off_c, 0, 75, 48
1, 62146, Note_off_c, 0, 58, 64
1, 62197, Note_on_c, 0, 72, 65
1, 62201, Note_off_c, 0, 73, 59
1, 62297, Note_off_c, 0, 72, 62
1, 62316, Note_on_c, 0, 67, 68
1, 62322, Note_on_c, 0, 73, 53
1, 62345, Note_off_c, 0, 67, 67
1, 62363, Note_off_c, 0, 73, 62
1, 62408, Note_on_c, 0, 70, 62
1, 62441, Note_off_c, 0, 70, 64
1, 62526, Note_on_c, 0, 56, 59
1, 62542, Note_on_c, 0, 70, 57
1, 62568, Note_off_c, 0, 56, 63
1, 62580, Note_off_c, 0, 70, 63
1, 62624, Note_on_c, 0, 72, 67
1, 62661, Note_off_c, 0, 72, 60
1, 62738, Note_on_c, 0, 75, 73
1, 62745, Note_on_c, 0, 68, 54
1, 62772, Note_off_c, 0, 75, 63
1, 62800, Note_off_c, 0, 68, 55
1, 62831, Note_on_c, 0, 67, 59
1, 62906, Control_c, 0, 64, 9
1, 62951, Note_off_c, 0, 67, 61
1, 62973, Note_on_c, 0, 68, 61
1, 62985, Note_on_c, 0, 78, 78
1, 63025, Note_off_c, 0, 68, 58
1, 63106, Note_on_c, 0, 70, 53
1, 63211, Note_on_c, 0, 56, 64
1, 63217, Note_on_c, 0, 72, 58
1, 63231, Note_off_c, 0, 70, 54
1, 63243, Note_off_c, 0, 56, 65
1, 63263, Note_off_c, 0, 72, 61
1, 63317, Note_on_c, 0, 68, 52
1, 63416, Note_on_c, 0, 58, 65
1, 63419, Note_off_c, 0, 68, 52
1, 63422, Note_on_c, 0, 73, 57
1, 63501, Note_off_c, 0, 58, 63
1, 63505, Note_on_c, 0, 56, 68
1, 63511, Note_on_c, 0, 72, 66
1, 63535, Note_off_c, 0, 73, 39
1, 63594, Note_off_c, 0, 72, 59
1, 63604, Note_off_c, 0, 56, 61
1, 63614, Note_on_c, 0, 54, 75
1, 63623, Note_on_c, 0, 70, 65
1, 63692, Note_off_c, 0, 70, 59
1, 63693, Note_off_c, 0, 78, 47
1, 63702, Note_on_c, 0, 56, 83
1, 63705, Note_on_c, 0, 72, 74
1, 63713, Note_off_c, 0, 54, 59
1, 63794, Note_off_c, 0, 56, 62
1, 63800, Note_off_c, 0, 72, 54
1, 63817, Note_on_c, 0, 65, 77
1, 63821, Note_on_c, 0, 73, 65
1, 63822, Note_on_c, 0, 77, 78
1, 63851, Note_off_c, 0, 65, 62
1, 63863, Note_off_c, 0, 73, 62
1, 63931, Note_on_c, 0, 72, 69
1, 63991, Note_off_c, 0, 72, 61
1, 64042, Note_on_c, 0, 61, 79
1, 64045, Note_on_c, 0, 70, 57
1, 64076, Note_off_c, 0, 61, 61
1, 64118, Note_off_c, 0, 70, 63
1, 64149, Note_on_c, 0, 68, 68
1, 64273, Note_off_c, 0, 68, 57
1, 64279, Note_on_c, 0, 56, 77
1, 64289, Note_on_c, 0, 70, 67
1, 64541, Note_off_c, 0, 56, 63
1, 64543, Note_on_c, 0, 54, 70
1, 64632, Note_on_c, 0, 53, 71
1, 64638, Note_off_c, 0, 54, 58
1, 64713, Note_off_c, 0, 77, 62
1, 64728, Note_on_c, 0, 54, 77
1, 64728, Note_off_c, 0, 53, 64
1, 64733, Note_on_c, 0, 75, 75
1, 64753, Note_off_c, 0, 70, 62
1, 64760, Note_off_c, 0, 54, 68
1, 64871, Note_on_c, 0, 68, 53
1, 64951, Note_off_c, 0, 68, 59
1, 64952, Note_on_c, 0, 63, 76
1, 64969, Note_on_c, 0, 66, 57
1, 64977, Note_off_c, 0, 63, 69
1, 65065, Note_on_c, 0, 70, 61
1, 65084, Note_off_c, 0, 66, 52
1, 65165, Note_on_c, 0, 53, 79
1, 65173, Note_on_c, 0, 68, 69
1, 65174, Note_off_c, 0, 75, 59
1, 65201, Note_off_c, 0, 53, 64
1, 65217, Note_off_c, 0, 70, 60
1, 65243, Note_off_c, 0, 68, 52
1, 65270, Note_on_c, 0, 66, 70
1, 65329, Note_off_c, 0, 66, 61
1, 65375, Note_on_c, 0, 61, 75
1, 65377, Note_on_c, 0, 73, 75
1, 65382, Note_on_c, 0, 65, 64
1, 65401, Note_off_c, 0, 61, 67
1, 65415, Note_off_c, 0, 65, 62
1, 65453, Note_off_c, 0, 73, 37
1, 65463, Note_on_c, 0, 68, 70
1, 65505, Note_off_c, 0, 68, 59
1, 65569, Note_on_c, 0, 51, 69
1, 65571, Note_on_c, 0, 72, 71
1, 65580, Note_on_c, 0, 66, 56
1, 65606, Note_off_c, 0, 51, 67
1, 65615, Note_off_c, 0, 66, 63
1, 65628, Note_off_c, 0, 72, 62
1, 65675, Note_on_c, 0, 65, 58
1, 65757, Note_off_c, 0, 65, 61
1, 65794, Note_on_c, 0, 75, 65
1, 65797, Note_on_c, 0, 60, 57
1, 65801, Note_on_c, 0, 66, 53
1, 65828, Note_off_c, 0, 60, 64
1, 65881, Note_off_c, 0, 66, 52
1, 65897, Note_on_c, 0, 63, 59
1, 65968, Note_off_c, 0, 63, 63
1, 66042, Note_on_c, 0, 65, 57
1, 66045, Note_on_c, 0, 49, 57
1, 66085, Note_off_c, 0, 49, 66
1, 66258, Note_on_c, 0, 68, 75
1, 66270, Note_on_c, 0, 61, 59
1, 66272, Note_off_c, 0, 75, 58
1, 66296, Note_off_c, 0, 68, 62
1, 66365, Note_on_c, 0, 60, 71
1, 66367, Note_off_c, 0, 61, 62
1, 66491, Note_on_c, 0, 77, 85
1, 66493, Control_c, 0, 64, 11
1, 66497, Note_on_c, 0, 61, 69
1, 66503, Note_off_c, 0, 65, 56
1, 66508, Control_c, 0, 64, 12
1, 66509, Note_off_c, 0, 60, 57
1, 66582, Control_c, 0, 64, 13
1, 66613, Note_on_c, 0, 63, 71
1, 66629, Note_off_c, 0, 61, 49
1, 66713, Note_on_c, 0, 65, 72
1, 66722, Note_on_c, 0, 68, 72
1, 66723, Note_off_c, 0, 63, 58
1, 66751, Note_off_c, 0, 68, 63
1, 66811, Note_on_c, 0, 61, 67
1, 66826, Note_off_c, 0, 65, 59
1, 66909, Note_on_c, 0, 73, 80
1, 66915, Note_on_c, 0, 58, 71
1, 66919, Note_off_c, 0, 61, 62
1, 66926, Note_off_c, 0, 77, 59
1, 67010, Note_off_c, 0, 58, 63
1, 67017, Note_on_c, 0, 60, 75
1, 67129, Note_off_c, 0, 73, 61
1, 67132, Note_on_c, 0, 61, 65
1, 67132, Note_on_c, 0, 77, 82
1, 67137, Note_off_c, 0, 60, 58
1, 67154, Control_c, 0, 64, 12
1, 67183, Control_c, 0, 64, 11
1, 67225, Note_on_c, 0, 73, 80
1, 67228, Control_c, 0, 64, 9
1, 67233, Note_on_c, 0, 58, 64
1, 67240, Note_off_c, 0, 61, 59
1, 67256, Note_off_c, 0, 77, 60
1, 67317, Note_off_c, 0, 58, 63
1, 67327, Note_on_c, 0, 70, 76
1, 67328, Note_on_c, 0, 55, 62
1, 67338, Note_off_c, 0, 73, 61
1, 67383, Control_c, 0, 64, 0
1, 67429, Note_off_c, 0, 55, 62
1, 67431, Note_on_c, 0, 56, 64
1, 67532, Note_off_c, 0, 56, 62
1, 67532, Note_off_c, 0, 70, 60
1, 67541, Note_on_c, 0, 73, 75
1, 67545, Note_on_c, 0, 58, 58
1, 67634, Note_on_c, 0, 70, 74
1, 67639, Note_off_c, 0, 58, 61
1, 67639, Note_off_c, 0, 73, 59
1, 67645, Note_on_c, 0, 55, 59
1, 67729, Note_off_c, 0, 70, 57
1, 67735, Note_off_c, 0, 55, 54
1, 67754, Note_on_c, 0, 48, 51
1, 67755, Note_on_c, 0, 63, 62
1, 67790, Note_off_c, 0, 48, 64
1, 67974, Note_on_c, 0, 70, 62
1, 67977, Note_on_c, 0, 60, 57
1, 68006, Note_off_c, 0, 70, 66
1, 68034, Note_off_c, 0, 60, 55
1, 68042, Note_off_c, 0, 63, 0
1, 68072, Note_on_c, 0, 58, 56
1, 68080, Poly_aftertouch_c, 0, 63, 127
1, 68199, Poly_aftertouch_c, 0, 63, 0
1, 68200, Note_off_c, 0, 58, 62
1, 68203, Note_on_c, 0, 75, 70
1, 68224, Note_on_c, 0, 60, 53
1, 68295, Control_c, 0, 64, 9
1, 68311, Note_off_c, 0, 60, 62
1, 68326, Note_on_c, 0, 61, 55
1, 68415, Note_on_c, 0, 67, 64
1, 68422, Note_on_c, 0, 63, 63
1, 68438, Note_off_c, 0, 61, 57
1, 68444, Control_c, 0, 64, 11
1, 68458, Note_off_c, 0, 67, 62
1, 68509, Note_off_c, 0, 63, 63
1, 68531, Note_on_c, 0, 60, 60
1, 68628, Note_on_c, 0, 72, 69
1, 68632, Note_off_c, 0, 60, 62
1, 68635, Note_off_c, 0, 75, 58
1, 68638, Note_on_c, 0, 56, 58
1, 68725, Note_on_c, 0, 58, 63
1, 68729, Note_off_c, 0, 56, 61
1, 68813, Note_off_c, 0, 72, 60
1, 68835, Note_on_c, 0, 60, 55
1, 68844, Note_on_c, 0, 75, 65
1, 68844, Note_off_c, 0, 58, 58
1, 68933, Note_off_c, 0, 60, 59
1, 68933, Note_on_c, 0, 72, 68
1, 68933, Note_off_c, 0, 75, 58
1, 68941, Note_on_c, 0, 56, 54
1, 68999, Control_c, 0, 64, 9
1, 69013, Note_off_c, 0, 56, 62
1, 69037, Note_off_c, 0, 72, 60
1, 69041, Note_on_c, 0, 53, 53
1, 69044, Note_on_c, 0, 68, 60
1, 69088, Control_c, 0, 64, 0
1, 69127, Note_off_c, 0, 53, 61
1, 69137, Note_on_c, 0, 55, 52
1, 69222, Note_off_c, 0, 55, 55
1, 69236, Note_on_c, 0, 56, 53
1, 69252, Note_off_c, 0, 68, 57
1, 69257, Note_on_c, 0, 72, 61
1, 69333, Note_off_c, 0, 56, 61
1, 69339, Note_on_c, 0, 53, 52
1, 69345, Note_off_c, 0, 72, 62
1, 69351, Note_on_c, 0, 68, 56
1, 69434, Note_off_c, 0, 53, 60
1, 69452, Note_off_c, 0, 68, 47
1, 69460, Note_on_c, 0, 46, 51
1, 69476, Note_on_c, 0, 61, 54
1, 69510, Note_off_c, 0, 46, 61
1, 69697, Note_on_c, 0, 68, 58
1, 69738, Note_off_c, 0, 68, 61
1, 69796, Note_on_c, 0, 56, 46
1, 69911, Note_on_c, 0, 73, 68
1, 69912, Note_off_c, 0, 56, 57
1, 69912, Note_off_c, 0, 61, 42
1, 69916, Note_on_c, 0, 58, 54
1, 69997, Note_off_c, 0, 58, 62
1, 70019, Note_on_c, 0, 60, 55
1, 70107, Note_off_c, 0, 60, 59
1, 70117, Note_on_c, 0, 61, 55
1, 70117, Note_on_c, 0, 65, 53
1, 70151, Note_off_c, 0, 65, 64
1, 70218, Note_off_c, 0, 61, 58
1, 70227, Note_on_c, 0, 58, 56
1, 70317, Note_off_c, 0, 58, 62
1, 70335, Note_on_c, 0, 55, 53
1, 70350, Note_on_c, 0, 70, 56
1, 70396, Note_off_c, 0, 73, 52
1, 70437, Note_off_c, 0, 55, 63
1, 70440, Note_on_c, 0, 72, 72
1, 70445, Note_on_c, 0, 56, 57
1, 70452, Note_off_c, 0, 70, 60
1, 70532, Note_off_c, 0, 56, 61
1, 70550, Note_off_c, 0, 72, 63
1, 70551, Note_on_c, 0, 58, 52
1, 70553, Note_on_c, 0, 73, 66
1, 70617, Note_off_c, 0, 73, 64
1, 70653, Note_on_c, 0, 70, 65
1, 70653, Note_off_c, 0, 58, 57
1, 70658, Note_on_c, 0, 55, 52
1, 70746, Note_off_c, 0, 55, 63
1, 70781, Note_on_c, 0, 51, 54
1, 70791, Note_on_c, 0, 82, 71
1, 70809, Note_off_c, 0, 70, 57
1, 70902, Note_off_c, 0, 51, 57
1, 70907, Note_on_c, 0, 73, 65
1, 70910, Note_on_c, 0, 53, 58
1, 70997, Note_off_c, 0, 53, 61
1, 71010, Note_on_c, 0, 55, 59
1, 71010, Note_on_c, 0, 75, 68
1, 71014, Note_off_c, 0, 73, 62
1, 71071, Note_off_c, 0, 75, 58
1, 71091, Note_off_c, 0, 55, 60
1, 71100, Note_on_c, 0, 51, 58
1, 71102, Note_on_c, 0, 70, 72
1, 71166, Note_off_c, 0, 70, 64
1, 71207, Note_off_c, 0, 51, 61
1, 71213, Note_on_c, 0, 44, 56
1, 71226, Note_on_c, 0, 72, 71
1, 71265, Note_off_c, 0, 44, 61
1, 71317, Note_on_c, 0, 80, 73
1, 71345, Note_off_c, 0, 82, 35
1, 71398, Note_off_c, 0, 72, 39
1, 71413, Note_on_c, 0, 56, 63
1, 71419, Note_on_c, 0, 79, 77
1, 71431, Note_off_c, 0, 80, 61
1, 71509, Note_off_c, 0, 56, 63
1, 71511, Note_on_c, 0, 82, 81
1, 71516, Note_off_c, 0, 79, 64
1, 71517, Note_on_c, 0, 58, 67
1, 71598, Note_off_c, 0, 58, 65
1, 71613, Note_on_c, 0, 80, 79
1, 71620, Note_on_c, 0, 60, 66
1, 71637, Note_off_c, 0, 82, 61
1, 71652, Note_off_c, 0, 60, 65
1, 71675, Note_off_c, 0, 80, 64
1, 71714, Note_on_c, 0, 75, 78
1, 71809, Note_on_c, 0, 77, 81
1, 71813, Note_off_c, 0, 75, 62
1, 71820, Note_on_c, 0, 56, 70
1, 71828, Note_on_c, 0, 68, 78
1, 71878, Note_off_c, 0, 56, 60
1, 71897, Note_off_c, 0, 77, 56
1, 71918, Note_on_c, 0, 78, 82
1, 72021, Note_on_c, 0, 77, 87
1, 72027, Note_on_c, 0, 61, 68
1, 72068, Note_off_c, 0, 78, 55
1, 72087, Note_off_c, 0, 68, 56
1, 72109, Note_off_c, 0, 77, 61
1, 72116, Note_on_c, 0, 75, 84
1, 72130, Note_on_c, 0, 67, 67
1, 72186, Control_c, 0, 64, 9
1, 72197, Note_off_c, 0, 75, 58
1, 72200, Note_off_c, 0, 67, 60
1, 72209, Note_on_c, 0, 65, 65
1, 72217, Note_on_c, 0, 73, 83
1, 72278, Note_off_c, 0, 61, 59
1, 72290, Control_c, 0, 64, 11
1, 72300, Note_on_c, 0, 75, 86
1, 72308, Note_on_c, 0, 67, 76
1, 72308, Note_off_c, 0, 73, 62
1, 72320, Control_c, 0, 64, 12
1, 72321, Note_off_c, 0, 65, 59
1, 72334, Control_c, 0, 64, 13
1, 72364, Control_c, 0, 64, 15
1, 72401, Note_off_c, 0, 67, 60
1, 72406, Note_on_c, 0, 68, 78
1, 72409, Control_c, 0, 64, 16
1, 72414, Note_on_c, 0, 84, 86
1, 72421, Note_off_c, 0, 75, 62
1, 72426, Note_on_c, 0, 60, 55
1, 72439, Control_c, 0, 64, 17
1, 72450, Note_off_c, 0, 84, 68
1, 72501, Note_off_c, 0, 68, 56
1, 72520, Note_on_c, 0, 66, 68
1, 72528, Control_c, 0, 64, 17
1, 72637, Note_on_c, 0, 80, 86
1, 72638, Note_on_c, 0, 65, 69
1, 72638, Control_c, 0, 64, 18
1, 72662, Note_off_c, 0, 66, 57
1, 72674, Note_off_c, 0, 80, 62
1, 72702, Note_off_c, 0, 60, 60
1, 72731, Note_on_c, 0, 63, 66
1, 72758, Note_off_c, 0, 65, 59
1, 72868, Note_on_c, 0, 58, 61
1, 72868, Note_on_c, 0, 75, 83
1, 72875, Note_on_c, 0, 65, 66
1, 72876, Note_off_c, 0, 63, 62
1, 72935, Note_off_c, 0, 58, 62
1, 72950, Control_c, 0, 64, 19
1, 73130, Note_on_c, 0, 56, 61
1, 73134, Note_on_c, 0, 73, 75
1, 73144, Note_off_c, 0, 75, 59
1, 73169, Note_off_c, 0, 56, 64
1, 73208, Note_off_c, 0, 73, 60
1, 73218, Note_on_c, 0, 72, 80
1, 73309, Note_off_c, 0, 72, 62
1, 73312, Note_on_c, 0, 73, 79
1, 73324, Note_on_c, 0, 55, 62
1, 73330, Note_off_c, 0, 65, 59
1, 73353, Note_off_c, 0, 73, 61
1, 73418, Note_on_c, 0, 63, 70
1, 73461, Control_c, 0, 64, 20
1, 73506, Control_c, 0, 64, 21
1, 73528, Note_on_c, 0, 82, 80
1, 73530, Note_off_c, 0, 63, 62
1, 73532, Note_on_c, 0, 61, 64
1, 73559, Note_off_c, 0, 82, 62
1, 73609, Note_off_c, 0, 55, 57
1, 73620, Note_on_c, 0, 65, 68
1, 73729, Note_off_c, 0, 61, 60
1, 73732, Note_off_c, 0, 65, 60
1, 73735, Note_on_c, 0, 72, 79
1, 73738, Note_on_c, 0, 63, 66
1, 73747, Note_on_c, 0, 56, 55
1, 73768, Note_off_c, 0, 72, 63
1, 73834, Note_off_c, 0, 63, 63
1, 73840, Note_on_c, 0, 61, 72
1, 73936, Note_on_c, 0, 60, 70
1, 73943, Note_on_c, 0, 80, 77
1, 73946, Note_off_c, 0, 61, 59
1, 73989, Note_off_c, 0, 80, 61
1, 74004, Note_off_c, 0, 60, 63
1, 74033, Note_off_c, 0, 56, 64
1, 74039, Note_on_c, 0, 63, 67
1, 74143, Note_off_c, 0, 63, 60
1, 74164, Note_on_c, 0, 70, 71
1, 74171, Note_on_c, 0, 61, 61
1, 74174, Note_on_c, 0, 51, 51
1, 74198, Note_off_c, 0, 70, 65
1, 74257, Note_off_c, 0, 61, 57
1, 74270, Control_c, 0, 64, 18
1, 74281, Note_on_c, 0, 60, 56
1, 74284, Control_c, 0, 64, 16
1, 74299, Control_c, 0, 64, 13
1, 74314, Control_c, 0, 64, 0
1, 74379, Note_off_c, 0, 60, 52
1, 74385, Note_on_c, 0, 79, 68
1, 74397, Note_on_c, 0, 61, 55
1, 74426, Note_off_c, 0, 79, 60
1, 74480, Note_off_c, 0, 61, 57
1, 74506, Note_on_c, 0, 58, 47
1, 74615, Note_off_c, 0, 58, 54
1, 74618, Note_off_c, 0, 51, 33
1, 74637, Note_on_c, 0, 60, 46
1, 74641, Note_on_c, 0, 56, 41
1, 74650, Note_on_c, 0, 68, 49
1, 74682, Note_off_c, 0, 60, 63
1, 74712, Note_off_c, 0, 68, 55
1, 74752, Note_on_c, 0, 70, 51
1, 74835, Note_off_c, 0, 70, 60
1, 74863, Note_on_c, 0, 72, 52
1, 74866, Note_on_c, 0, 63, 48
1, 74898, Note_off_c, 0, 63, 62
1, 74912, Note_off_c, 0, 72, 59
1, 74958, Note_on_c, 0, 73, 55
1, 75044, Note_off_c, 0, 73, 55
1, 75072, Note_on_c, 0, 68, 56
1, 75073, Note_on_c, 0, 72, 53
1, 75123, Control_c, 0, 64, 32
1, 75138, Control_c, 0, 64, 49
1, 75152, Note_off_c, 0, 72, 60
1, 75153, Control_c, 0, 64, 61
1, 75168, Control_c, 0, 64, 65
1, 75170, Note_off_c, 0, 68, 55
1, 75177, Note_on_c, 0, 70, 58
1, 75182, Control_c, 0, 64, 67
1, 75196, Note_off_c, 0, 56, 39
1, 75197, Control_c, 0, 64, 69
1, 75212, Control_c, 0, 64, 70
1, 75227, Note_off_c, 0, 70, 57
1, 75256, Control_c, 0, 64, 70
1, 75271, Control_c, 0, 64, 69
1, 75286, Control_c, 0, 64, 69
1, 75288, Note_on_c, 0, 68, 61
1, 75289, Note_on_c, 0, 63, 49
1, 75301, Control_c, 0, 64, 68
1, 75315, Control_c, 0, 64, 67
1, 75330, Control_c, 0, 64, 65
1, 75345, Control_c, 0, 64, 64
1, 75356, Note_off_c, 0, 68, 55
1, 75360, Control_c, 0, 64, 62
1, 75361, Note_off_c, 0, 63, 58
1, 75369, Note_on_c, 0, 72, 64
1, 75375, Control_c, 0, 64, 59
1, 75387, Note_on_c, 0, 60, 55
1, 75390, Control_c, 0, 64, 54
1, 75405, Control_c, 0, 64, 44
1, 75420, Control_c, 0, 64, 24
1, 75434, Control_c, 0, 64, 0
1, 75465, Note_off_c, 0, 72, 61
1, 75472, Note_off_c, 0, 60, 56
1, 75485, Note_on_c, 0, 56, 49
1, 75491, Note_on_c, 0, 77, 63
1, 75538, Control_c, 0, 64, 28
1, 75553, Control_c, 0, 64, 49
1, 75568, Control_c, 0, 64, 57
1, 75591, Control_c, 0, 64, 64
1, 75596, Note_on_c, 0, 75, 62
1, 75605, Control_c, 0, 64, 70
1, 75620, Control_c, 0, 64, 78
1, 75635, Control_c, 0, 64, 87
1, 75640, Note_off_c, 0, 56, 58
1, 75650, Control_c, 0, 64, 89
1, 75655, Note_off_c, 0, 75, 53
1, 75656, Note_off_c, 0, 77, 35
1, 75665, Control_c, 0, 64, 88
1, 75679, Control_c, 0, 64, 87
1, 75694, Control_c, 0, 64, 84
1, 75701, Note_on_c, 0, 74, 64
1, 75703, Note_on_c, 0, 59, 62
1, 75709, Control_c, 0, 64, 81
1, 75724, Control_c, 0, 64, 76
1, 75738, Control_c, 0, 64, 72
1, 75753, Control_c, 0, 64, 68
1, 75768, Control_c, 0, 64, 65
1, 75783, Control_c, 0, 64, 61
1, 75791, Note_off_c, 0, 74, 61
1, 75794, Note_on_c, 0, 77, 72
1, 75794, Note_off_c, 0, 59, 61
1, 75798, Control_c, 0, 64, 55
1, 75801, Note_on_c, 0, 56, 59
1, 75812, Control_c, 0, 64, 45
1, 75827, Control_c, 0, 64, 33
1, 75842, Control_c, 0, 64, 13
1, 75857, Control_c, 0, 64, 0
1, 75894, Note_off_c, 0, 56, 62
1, 75905, Note_on_c, 0, 53, 63
1, 75910, Note_on_c, 0, 80, 69
1, 75913, Note_off_c, 0, 77, 61
1, 76001, Note_on_c, 0, 78, 73
1, 76005, Control_c, 0, 64, 30
1, 76019, Control_c, 0, 64, 49
1, 76029, Note_off_c, 0, 80, 50
1, 76034, Control_c, 0, 64, 58
1, 76049, Control_c, 0, 64, 63
1, 76057, Note_off_c, 0, 53, 48
1, 76064, Control_c, 0, 64, 69
1, 76064, Note_off_c, 0, 78, 62
1, 76078, Control_c, 0, 64, 77
1, 76092, Note_on_c, 0, 77, 78
1, 76093, Control_c, 0, 64, 86
1, 76099, Note_on_c, 0, 56, 61
1, 76108, Control_c, 0, 64, 89
1, 76138, Control_c, 0, 64, 88
1, 76153, Control_c, 0, 64, 86
1, 76168, Control_c, 0, 64, 84
1, 76169, Note_on_c, 0, 80, 73
1, 76181, Note_off_c, 0, 77, 58
1, 76183, Control_c, 0, 64, 83
1, 76198, Control_c, 0, 64, 81
1, 76201, Note_off_c, 0, 56, 59
1, 76202, Note_off_c, 0, 80, 62
1, 76202, Note_on_c, 0, 53, 57
1, 76212, Control_c, 0, 64, 79
1, 76227, Control_c, 0, 64, 77
1, 76242, Control_c, 0, 64, 73
1, 76256, Control_c, 0, 64, 69
1, 76271, Control_c, 0, 64, 66
1, 76282, Note_on_c, 0, 80, 72
1, 76286, Control_c, 0, 64, 64
1, 76301, Control_c, 0, 64, 62
1, 76316, Control_c, 0, 64, 59
1, 76327, Note_on_c, 0, 82, 78
1, 76338, Control_c, 0, 64, 55
1, 76340, Note_off_c, 0, 53, 59
1, 76343, Note_on_c, 0, 50, 50
1, 76353, Control_c, 0, 64, 50
1, 76368, Control_c, 0, 64, 43
1, 76380, Note_off_c, 0, 80, 62
1, 76383, Control_c, 0, 64, 33
1, 76398, Control_c, 0, 64, 19
1, 76403, Note_on_c, 0, 83, 81
1, 76413, Control_c, 0, 64, 0
1, 76414, Note_off_c, 0, 82, 65
1, 76612, Note_on_c, 0, 82, 69
1, 76614, Note_on_c, 0, 53, 54
1, 76627, Note_off_c, 0, 50, 54
1, 76643, Note_off_c, 0, 83, 43
1, 76702, Note_on_c, 0, 56, 68
1, 76708, Note_on_c, 0, 80, 69
1, 76719, Note_off_c, 0, 53, 56
1, 76764, Note_off_c, 0, 82, 58
1, 76803, Note_on_c, 0, 78, 71
1, 76820, Note_off_c, 0, 56, 62
1, 76824, Note_off_c, 0, 80, 58
1, 76825, Note_on_c, 0, 59, 58
1, 76881, Note_off_c, 0, 78, 62
1, 76899, Note_on_c, 0, 77, 75
1, 77002, Note_off_c, 0, 77, 62
1, 77007, Note_on_c, 0, 75, 72
1, 77019, Note_on_c, 0, 53, 65
1, 77055, Note_off_c, 0, 53, 64
1, 77115, Note_on_c, 0, 74, 70
1, 77123, Note_off_c, 0, 75, 60
1, 77231, Note_off_c, 0, 74, 61
1, 77236, Note_on_c, 0, 75, 72
1, 77238, Note_off_c, 0, 59, 62
1, 77243, Note_on_c, 0, 58, 61
1, 77245, Note_on_c, 0, 54, 54
1, 77329, Note_off_c, 0, 75, 56
1, 77333, Note_on_c, 0, 78, 75
1, 77404, Note_off_c, 0, 54, 64
1, 77414, Note_off_c, 0, 78, 62
1, 77426, Note_off_c, 0, 58, 57
1, 77438, Note_on_c, 0, 77, 75
1, 77449, Note_on_c, 0, 56, 66
1, 77449, Note_on_c, 0, 59, 68
1, 77479, Note_off_c, 0, 59, 65
1, 77485, Note_off_c, 0, 56, 67
1, 77536, Note_on_c, 0, 75, 77
1, 77565, Note_off_c, 0, 77, 52
1, 77642, Note_on_c, 0, 74, 66
1, 77650, Note_on_c, 0, 58, 75
1, 77655, Note_off_c, 0, 75, 33
1, 77677, Note_off_c, 0, 58, 66
1, 77709, Note_off_c, 0, 74, 63
1, 77736, Note_on_c, 0, 77, 68
1, 77848, Note_off_c, 0, 77, 60
1, 77852, Note_on_c, 0, 46, 55
1, 77855, Note_on_c, 0, 50, 45
1, 77883, Note_off_c, 0, 50, 56
1, 77888, Note_off_c, 0, 46, 64
1, 77962, Note_on_c, 0, 68, 60
1, 78067, Note_on_c, 0, 51, 54
1, 78076, Note_on_c, 0, 39, 50
1, 78101, Note_on_c, 0, 66, 59
1, 78103, Control_c, 0, 67, 8
1, 78118, Control_c, 0, 67, 9
1, 78132, Control_c, 0, 67, 9
1, 78144, Note_off_c, 0, 68, 33
1, 78147, Control_c, 0, 67, 10
1, 78162, Control_c, 0, 67, 11
1, 78210, Note_on_c, 0, 65, 58
1, 78252, Control_c, 0, 67, 10
1, 78266, Control_c, 0, 67, 9
1, 78281, Control_c, 0, 67, 8
1, 78293, Note_off_c, 0, 66, 51
1, 78296, Control_c, 0, 67, 8
1, 78318, Note_off_c, 0, 65, 63
1, 78323, Note_on_c, 0, 63, 66
1, 78325, Control_c, 0, 67, 0
1, 78376, Note_off_c, 0, 51, 61
1, 78380, Note_off_c, 0, 39, 62
1, 78396, Note_off_c, 0, 63, 61
1, 78414, Note_on_c, 0, 62, 60
1, 78499, Note_off_c, 0, 62, 60
1, 78525, Note_on_c, 0, 63, 54
1, 78605, Note_off_c, 0, 63, 59
1, 78634, Note_on_c, 0, 65, 57
1, 78725, Note_off_c, 0, 65, 60
1, 78740, Note_on_c, 0, 66, 51
1, 78741, Note_on_c, 0, 51, 64
1, 78771, Note_off_c, 0, 51, 66
1, 78821, Note_off_c, 0, 66, 59
1, 78834, Note_on_c, 0, 68, 58
1, 78919, Note_off_c, 0, 68, 49
1, 78948, Note_on_c, 0, 70, 49
1, 78952, Note_on_c, 0, 54, 63
1, 79025, Note_off_c, 0, 70, 47
1, 79035, Note_off_c, 0, 54, 63
1, 79046, Note_on_c, 0, 68, 58
1, 79052, Note_on_c, 0, 53, 61
1, 79135, Note_off_c, 0, 53, 61
1, 79137, Note_off_c, 0, 68, 55
1, 79144, Note_on_c, 0, 66, 53
1, 79148, Note_on_c, 0, 51, 72
1, 79232, Note_off_c, 0, 66, 61
1, 79236, Note_off_c, 0, 51, 59
1, 79241, Note_on_c, 0, 53, 74
1, 79247, Note_on_c, 0, 68, 55
1, 79301, Note_off_c, 0, 53, 60
1, 79334, Note_off_c, 0, 68, 57
1, 79351, Note_on_c, 0, 61, 72
1, 79360, Note_on_c, 0, 70, 58
1, 79380, Note_off_c, 0, 61, 62
1, 79444, Note_off_c, 0, 70, 53
1, 79462, Note_on_c, 0, 68, 58
1, 79557, Note_off_c, 0, 68, 53
1, 79561, Note_on_c, 0, 58, 69
1, 79564, Note_on_c, 0, 66, 50
1, 79592, Note_off_c, 0, 58, 65
1, 79633, Note_off_c, 0, 66, 56
1, 79670, Note_on_c, 0, 65, 53
1, 79799, Note_off_c, 0, 65, 59
1, 79806, Note_on_c, 0, 66, 60
1, 79810, Note_on_c, 0, 53, 66
1, 80061, Note_off_c, 0, 53, 62
1, 80070, Note_on_c, 0, 51, 58
1, 80151, Note_off_c, 0, 51, 63
1, 80162, Note_on_c, 0, 49, 63
1, 80238, Note_off_c, 0, 49, 57
1, 80255, Note_on_c, 0, 51, 77
1, 80287, Note_off_c, 0, 51, 67
1, 80359, Note_off_c, 0, 66, 52
1, 80371, Note_on_c, 0, 65, 51
1, 80440, Note_off_c, 0, 65, 52
1, 80473, Note_on_c, 0, 60, 62
1, 80473, Note_on_c, 0, 63, 58
1, 80499, Note_off_c, 0, 60, 64
1, 80534, Note_off_c, 0, 63, 57
1, 80570, Note_on_c, 0, 66, 50
1, 80675, Note_on_c, 0, 65, 50
1, 80678, Note_on_c, 0, 49, 68
1, 80693, Note_off_c, 0, 66, 32
1, 80708, Note_off_c, 0, 49, 65
1, 80756, Note_off_c, 0, 65, 59
1, 80773, Note_on_c, 0, 63, 55
1, 80866, Note_off_c, 0, 63, 61
1, 80888, Note_on_c, 0, 61, 52
1, 80893, Note_on_c, 0, 58, 72
1, 80922, Note_off_c, 0, 58, 65
1, 80952, Note_off_c, 0, 61, 55
1, 80977, Note_on_c, 0, 65, 55
1, 81088, Note_on_c, 0, 63, 52
1, 81091, Note_off_c, 0, 65, 49
1, 81096, Note_on_c, 0, 48, 71
1, 81128, Note_off_c, 0, 48, 64
1, 81184, Note_on_c, 0, 61, 59
1, 81190, Note_off_c, 0, 63, 58
1, 81293, Note_off_c, 0, 61, 57
1, 81308, Note_on_c, 0, 57, 67
1, 81316, Note_on_c, 0, 63, 47
1, 81343, Note_off_c, 0, 57, 64
1, 81361, Note_off_c, 0, 63, 62
1, 81405, Note_on_c, 0, 60, 50
1, 81499, Note_off_c, 0, 60, 57
1, 81531, Note_on_c, 0, 61, 52
1, 81533, Note_on_c, 0, 46, 58
1, 81584, Note_off_c, 0, 46, 64
1, 81626, Note_off_c, 0, 61, 60
1, 81673, Note_on_c, 0, 65, 60
1, 81779, Note_off_c, 0, 65, 54
1, 81780, Note_on_c, 0, 66, 66
1, 81782, Note_on_c, 0, 58, 56
1, 81842, Note_off_c, 0, 66, 63
1, 81877, Note_off_c, 0, 58, 61
1, 81880, Note_on_c, 0, 65, 68
1, 81884, Note_on_c, 0, 57, 61
1, 81978, Note_off_c, 0, 57, 62
1, 81978, Note_off_c, 0, 65, 58
1, 81984, Note_on_c, 0, 58, 64
1, 81987, Note_on_c, 0, 73, 79
1, 82064, Note_off_c, 0, 58, 63
1, 82070, Note_on_c, 0, 60, 67
1, 82180, Note_on_c, 0, 61, 70
1, 82189, Note_off_c, 0, 60, 61
1, 82194, Note_on_c, 0, 65, 66
1, 82227, Note_off_c, 0, 65, 63
1, 82282, Note_on_c, 0, 58, 68
1, 82288, Note_off_c, 0, 61, 59
1, 82382, Note_off_c, 0, 58, 62
1, 82392, Note_on_c, 0, 55, 65
1, 82401, Note_on_c, 0, 70, 72
1, 82428, Note_off_c, 0, 73, 54
1, 82492, Note_on_c, 0, 72, 79
1, 82493, Note_on_c, 0, 56, 68
1, 82493, Note_off_c, 0, 55, 61
1, 82507, Note_off_c, 0, 70, 63
1, 82585, Note_off_c, 0, 56, 64
1, 82594, Note_on_c, 0, 58, 63
1, 82595, Note_on_c, 0, 73, 81
1, 82610, Note_off_c, 0, 72, 56
1, 82664, Note_off_c, 0, 73, 62
1, 82689, Note_on_c, 0, 70, 79
1, 82696, Note_off_c, 0, 58, 59
1, 82697, Note_on_c, 0, 55, 61
1, 82791, Note_off_c, 0, 55, 63
1, 82818, Note_on_c, 0, 51, 60
1, 82820, Note_on_c, 0, 82, 86
1, 82879, Note_off_c, 0, 70, 56
1, 82931, Note_on_c, 0, 53, 61
1, 82935, Note_off_c, 0, 51, 55
1, 82937, Note_on_c, 0, 73, 75
1, 83038, Note_off_c, 0, 53, 62
1, 83039, Note_on_c, 0, 55, 65
1, 83039, Note_on_c, 0, 75, 77
1, 83045, Note_off_c, 0, 73, 54
1, 83104, Note_off_c, 0, 82, 63
1, 83134, Note_on_c, 0, 70, 75
1, 83134, Note_off_c, 0, 55, 60
1, 83142, Note_on_c, 0, 51, 63
1, 83180, Note_off_c, 0, 75, 53
1, 83214, Note_off_c, 0, 51, 61
1, 83229, Note_on_c, 0, 44, 57
1, 83229, Note_off_c, 0, 70, 61
1, 83238, Note_on_c, 0, 72, 74
1, 83268, Note_off_c, 0, 44, 64
1, 83286, Note_off_c, 0, 72, 61
1, 83356, Note_on_c, 0, 63, 61
1, 83436, Note_off_c, 0, 63, 59
1, 83441, Note_on_c, 0, 56, 56
1, 83456, Note_on_c, 0, 65, 56
1, 83524, Note_off_c, 0, 56, 64
1, 83532, Note_off_c, 0, 65, 62
1, 83542, Note_on_c, 0, 55, 49
1, 83550, Note_on_c, 0, 63, 61
1, 83645, Note_off_c, 0, 55, 61
1, 83657, Note_on_c, 0, 56, 57
1, 83659, Note_on_c, 0, 72, 73
1, 83664, Note_off_c, 0, 63, 56
1, 83740, Note_off_c, 0, 56, 62
1, 83748, Note_on_c, 0, 58, 64
1, 83869, Note_on_c, 0, 60, 63
1, 83872, Note_off_c, 0, 58, 56
1, 83879, Note_on_c, 0, 63, 64
1, 83921, Note_off_c, 0, 63, 59
1, 83977, Note_on_c, 0, 56, 59
1, 83982, Note_off_c, 0, 60, 55
1, 84067, Note_off_c, 0, 56, 63
1, 84081, Note_on_c, 0, 68, 65
1, 84087, Note_on_c, 0, 53, 56
1, 84108, Note_off_c, 0, 72, 51
1, 84172, Note_on_c, 0, 70, 72
1, 84175, Note_off_c, 0, 53, 63
1, 84183, Note_on_c, 0, 55, 61
1, 84184, Note_off_c, 0, 68, 59
1, 84273, Note_on_c, 0, 72, 70
1, 84285, Note_off_c, 0, 70, 61
1, 84290, Note_on_c, 0, 56, 58
1, 84293, Note_off_c, 0, 55, 56
1, 84335, Note_off_c, 0, 72, 65
1, 84370, Note_on_c, 0, 68, 75
1, 84384, Note_on_c, 0, 53, 55
1, 84384, Note_off_c, 0, 56, 60
1, 84472, Note_off_c, 0, 53, 63
1, 84485, Note_on_c, 0, 80, 77
1, 84495, Note_on_c, 0, 49, 47
1, 84591, Note_on_c, 0, 72, 70
1, 84595, Note_off_c, 0, 68, 54
1, 84608, Note_on_c, 0, 51, 64
1, 84625, Note_off_c, 0, 49, 63
1, 84685, Note_off_c, 0, 72, 61
1, 84696, Note_on_c, 0, 73, 70
1, 84699, Note_off_c, 0, 51, 61
1, 84702, Note_on_c, 0, 53, 59
1, 84746, Note_off_c, 0, 80, 60
1, 84786, Note_on_c, 0, 68, 69
1, 84801, Note_off_c, 0, 53, 60
1, 84805, Note_on_c, 0, 49, 48
1, 84864, Note_off_c, 0, 68, 59
1, 84875, Note_off_c, 0, 49, 61
1, 84890, Note_on_c, 0, 70, 62
1, 84894, Note_on_c, 0, 43, 51
1, 84941, Note_off_c, 0, 73, 41
1, 84950, Note_off_c, 0, 70, 56
1, 84985, Note_off_c, 0, 43, 53
1, 85009, Note_on_c, 0, 61, 61
1, 85084, Note_off_c, 0, 61, 53
1, 85104, Note_on_c, 0, 63, 57
1, 85120, Note_on_c, 0, 55, 50
1, 85187, Note_off_c, 0, 63, 55
1, 85192, Note_off_c, 0, 55, 51
1, 85198, Note_on_c, 0, 61, 64
1, 85229, Note_on_c, 0, 53, 54
1, 85294, Note_off_c, 0, 53, 60
1, 85307, Note_off_c, 0, 61, 50
1, 85325, Note_on_c, 0, 70, 66
1, 85328, Note_on_c, 0, 55, 57
1, 85435, Note_off_c, 0, 55, 60
1, 85445, Note_on_c, 0, 56, 58
1, 85540, Note_on_c, 0, 61, 56
1, 85542, Note_on_c, 0, 58, 60
1, 85551, Note_off_c, 0, 56, 59
1, 85581, Note_off_c, 0, 61, 57
1, 85625, Note_off_c, 0, 58, 63
1, 85643, Note_on_c, 0, 55, 56
1, 85748, Note_off_c, 0, 55, 59
1, 85749, Note_on_c, 0, 67, 54
1, 85751, Note_on_c, 0, 52, 51
1, 85790, Note_off_c, 0, 70, 57
1, 85838, Note_off_c, 0, 52, 60
1, 85844, Note_off_c, 0, 67, 53
1, 85845, Note_on_c, 0, 68, 62
1, 85856, Note_on_c, 0, 53, 54
1, 85939, Note_off_c, 0, 53, 57
1, 85955, Note_on_c, 0, 55, 51
1, 85956, Note_on_c, 0, 70, 59
1, 85977, Note_off_c, 0, 68, 61
1, 86010, Note_off_c, 0, 70, 61
1, 86046, Note_off_c, 0, 55, 52
1, 86052, Note_on_c, 0, 67, 63
1, 86075, Note_on_c, 0, 52, 46
1, 86164, Note_off_c, 0, 52, 59
1, 86191, Note_on_c, 0, 79, 72
1, 86197, Note_on_c, 0, 48, 39
1, 86231, Note_off_c, 0, 67, 34
1, 86298, Note_off_c, 0, 48, 58
1, 86309, Note_on_c, 0, 50, 49
1, 86315, Note_on_c, 0, 70, 56
1, 86407, Note_off_c, 0, 50, 57
1, 86425, Note_on_c, 0, 52, 47
1, 86428, Note_on_c, 0, 72, 57
1, 86443, Note_off_c, 0, 70, 55
1, 86477, Note_off_c, 0, 72, 61
1, 86528, Note_off_c, 0, 52, 59
1, 86536, Note_on_c, 0, 67, 49
1, 86541, Note_on_c, 0, 48, 38
1, 86600, Note_off_c, 0, 48, 58
1, 86644, Note_on_c, 0, 41, 46
1, 86661, Note_on_c, 0, 68, 53
1, 86695, Note_off_c, 0, 79, 44
1, 86768, Note_on_c, 0, 76, 55
1, 86771, Note_off_c, 0, 67, 35
1, 86776, Note_off_c, 0, 41, 56
1, 86778, Note_on_c, 0, 43, 51
1, 86879, Note_on_c, 0, 77, 72
1, 86884, Note_off_c, 0, 68, 53
1, 86891, Note_on_c, 0, 44, 54
1, 86905, Note_off_c, 0, 43, 52
1, 86911, Note_off_c, 0, 76, 54
1, 86972, Note_on_c, 0, 46, 63
1, 86974, Note_on_c, 0, 73, 73
1, 86978, Note_off_c, 0, 44, 63
1, 86996, Note_off_c, 0, 77, 56
1, 87061, Note_off_c, 0, 46, 62
1, 87075, Note_on_c, 0, 48, 63
1, 87078, Note_on_c, 0, 70, 76
1, 87091, Note_off_c, 0, 73, 63
1, 87174, Note_on_c, 0, 50, 65
1, 87177, Note_off_c, 0, 48, 59
1, 87276, Note_off_c, 0, 50, 59
1, 87287, Note_on_c, 0, 52, 68
1, 87287, Note_on_c, 0, 60, 74
1, 87330, Note_off_c, 0, 60, 58
1, 87358, Note_off_c, 0, 52, 64
1, 87379, Note_on_c, 0, 48, 67
1, 87489, Note_off_c, 0, 48, 56
1, 87496, Note_on_c, 0, 53, 62
1, 87504, Note_on_c, 0, 61, 71
1, 87565, Note_off_c, 0, 70, 45
1, 87597, Note_off_c, 0, 61, 62
1, 87598, Note_on_c, 0, 60, 81
1, 87603, Note_on_c, 0, 51, 67
1, 87606, Note_off_c, 0, 53, 61
1, 87685, Note_off_c, 0, 60, 59
1, 87695, Note_on_c, 0, 58, 81
1, 87695, Note_off_c, 0, 51, 64
1, 87698, Note_on_c, 0, 49, 64
1, 87789, Note_on_c, 0, 60, 82
1, 87790, Note_off_c, 0, 58, 43
1, 87808, Note_on_c, 0, 51, 72
1, 87808, Note_off_c, 0, 49, 56
1, 87862, Note_off_c, 0, 60, 62
1, 87899, Note_on_c, 0, 68, 81
1, 87899, Note_off_c, 0, 51, 60
1, 87911, Note_on_c, 0, 53, 67
1, 87955, Note_on_c, 0, 69, 16
1, 87982, Note_off_c, 0, 69, 35
1, 87999, Note_off_c, 0, 53, 60
1, 88011, Note_on_c, 0, 51, 64
1, 88108, Note_off_c, 0, 51, 63
1, 88114, Note_on_c, 0, 49, 62
1, 88121, Note_on_c, 0, 65, 75
1, 88186, Note_off_c, 0, 65, 62
1, 88208, Note_off_c, 0, 49, 63
1, 88215, Note_on_c, 0, 48, 66
1, 88372, Note_on_c, 0, 49, 62
1, 88376, Note_on_c, 0, 60, 79
1, 88380, Note_off_c, 0, 48, 58
1, 88574, Note_off_c, 0, 60, 61
1, 88613, Note_on_c, 0, 58, 70
1, 88638, Note_off_c, 0, 68, 54
1, 88682, Note_off_c, 0, 58, 62
1, 88701, Note_on_c, 0, 56, 78
1, 88787, Note_off_c, 0, 56, 62
1, 88793, Note_on_c, 0, 67, 66
1, 88794, Note_on_c, 0, 58, 75
1, 88843, Note_off_c, 0, 67, 56
1, 88849, Poly_aftertouch_c, 0, 64, 127
1, 88877, Poly_aftertouch_c, 0, 64, 0
1, 88891, Note_off_c, 0, 49, 62
1, 88904, Note_on_c, 0, 48, 63
1, 88983, Note_off_c, 0, 48, 61
1, 89000, Note_on_c, 0, 46, 57
1, 89019, Note_on_c, 0, 67, 78
1, 89042, Note_off_c, 0, 58, 62
1, 89121, Note_on_c, 0, 49, 62
1, 89135, Note_off_c, 0, 46, 58
1, 89222, Note_off_c, 0, 49, 63
1, 89233, Note_on_c, 0, 48, 62
1, 89239, Note_on_c, 0, 56, 79
1, 89276, Note_off_c, 0, 56, 62
1, 89326, Note_off_c, 0, 48, 60
1, 89339, Note_on_c, 0, 46, 59
1, 89418, Note_off_c, 0, 67, 52
1, 89447, Note_on_c, 0, 44, 57
1, 89450, Note_on_c, 0, 65, 74
1, 89451, Note_off_c, 0, 46, 59
1, 89504, Note_off_c, 0, 65, 62
1, 89527, Note_on_c, 0, 48, 62
1, 89531, Note_off_c, 0, 44, 54
1, 89633, Note_off_c, 0, 48, 59
1, 89653, Note_on_c, 0, 46, 58
1, 89656, Note_on_c, 0, 64, 67
1, 89656, Note_on_c, 0, 55, 62
1, 89692, Note_off_c, 0, 55, 62
1, 89700, Note_off_c, 0, 64, 61
1, 89742, Note_off_c, 0, 46, 62
1, 89752, Note_on_c, 0, 44, 57
1, 89859, Note_off_c, 0, 44, 57
1, 89880, Note_on_c, 0, 46, 56
1, 89880, Note_on_c, 0, 67, 67
1, 89883, Note_on_c, 0, 64, 53
1, 89913, Note_off_c, 0, 64, 63
1, 89922, Note_off_c, 0, 67, 62
1, 89953, Note_off_c, 0, 46, 58
1, 89983, Note_on_c, 0, 43, 50
1, 90094, Note_off_c, 0, 43, 59
1, 90115, Note_on_c, 0, 44, 47
1, 90121, Note_on_c, 0, 53, 56
1, 90128, Note_on_c, 0, 72, 56
1, 90157, Note_off_c, 0, 44, 63
1, 90196, Note_off_c, 0, 72, 55
1, 90214, Note_on_c, 0, 70, 54
1, 90321, Note_off_c, 0, 70, 55
1, 90324, Note_on_c, 0, 68, 51
1, 90330, Note_on_c, 0, 49, 54
1, 90360, Note_off_c, 0, 49, 65
1, 90405, Note_off_c, 0, 68, 59
1, 90418, Note_on_c, 0, 72, 58
1, 90516, Note_off_c, 0, 72, 59
1, 90528, Note_on_c, 0, 43, 57
1, 90530, Note_on_c, 0, 70, 56
1, 90548, Note_off_c, 0, 53, 56
1, 90577, Note_off_c, 0, 43, 62
1, 90637, Note_on_c, 0, 68, 55
1, 90679, Note_off_c, 0, 70, 33
1, 90730, Note_on_c, 0, 67, 58
1, 90739, Note_off_c, 0, 68, 47
1, 90740, Note_on_c, 0, 48, 61
1, 90744, Note_on_c, 0, 52, 59
1, 90787, Note_off_c, 0, 48, 63
1, 90819, Note_off_c, 0, 52, 59
1, 90830, Note_off_c, 0, 67, 61
1, 90833, Note_on_c, 0, 70, 59
1, 90946, Note_on_c, 0, 68, 65
1, 90950, Note_on_c, 0, 53, 68
1, 90953, Note_on_c, 0, 41, 63
1, 90959, Note_off_c, 0, 70, 50
1, 90999, Note_off_c, 0, 41, 65
1, 91014, Note_off_c, 0, 53, 61
1, 91014, Note_off_c, 0, 68, 61
1, 91045, Note_on_c, 0, 65, 66
1, 91146, Note_on_c, 0, 52, 74
1, 91146, Note_off_c, 0, 65, 55
1, 91153, Note_on_c, 0, 73, 74
1, 91156, Note_on_c, 0, 46, 63
1, 91205, Note_off_c, 0, 52, 61
1, 91217, Note_off_c, 0, 46, 57
1, 91251, Note_off_c, 0, 73, 60
1, 91253, Note_on_c, 0, 70, 76
1, 91366, Note_on_c, 0, 53, 80
1, 91367, Note_on_c, 0, 44, 76
1, 91370, Note_off_c, 0, 70, 64
1, 91371, Note_on_c, 0, 72, 76
1, 91432, Note_off_c, 0, 44, 62
1, 91438, Note_off_c, 0, 72, 64
1, 91439, Note_off_c, 0, 53, 59
1, 91475, Note_on_c, 0, 68, 79
1, 91575, Note_off_c, 0, 68, 58
1, 91581, Note_on_c, 0, 49, 74
1, 91585, Note_on_c, 0, 58, 86
1, 91589, Note_on_c, 0, 78, 82
1, 91650, Note_off_c, 0, 58, 61
1, 91654, Note_off_c, 0, 49, 62
1, 91695, Note_off_c, 0, 78, 60
1, 91699, Note_on_c, 0, 76, 79
1, 91763, Note_off_c, 0, 76, 64
1, 91815, Note_on_c, 0, 56, 80
1, 91821, Note_on_c, 0, 48, 64
1, 91838, Note_on_c, 0, 76, 74
1, 91939, Note_on_c, 0, 77, 86
1, 91946, Note_off_c, 0, 76, 63
1, 92038, Note_off_c, 0, 56, 62
1, 92041, Note_on_c, 0, 55, 68
1, 92059, Note_on_c, 0, 83, 83
1, 92067, Note_off_c, 0, 77, 61
1, 92123, Note_off_c, 0, 55, 64
1, 92125, Note_on_c, 0, 53, 64
1, 92134, Note_off_c, 0, 83, 63
1, 92144, Note_on_c, 0, 84, 79
1, 92238, Note_on_c, 0, 77, 72
1, 92240, Note_off_c, 0, 84, 58
1, 92246, Note_on_c, 0, 55, 70
1, 92263, Note_off_c, 0, 53, 50
1, 92272, Note_off_c, 0, 77, 63
1, 92278, Note_on_c, 0, 76, 74
1, 92300, Note_off_c, 0, 55, 62
1, 92324, Note_off_c, 0, 76, 64
1, 92333, Note_on_c, 0, 77, 74
1, 92381, Note_on_c, 0, 76, 76
1, 92382, Note_off_c, 0, 77, 62
1, 92506, Note_off_c, 0, 48, 63
1, 92509, Note_on_c, 0, 58, 65
1, 92548, Note_off_c, 0, 58, 60
1, 92612, Note_on_c, 0, 77, 73
1, 92635, Note_off_c, 0, 76, 61
1, 92660, Note_off_c, 0, 77, 61
1, 92739, Note_on_c, 0, 53, 41
1, 92751, Note_on_c, 0, 77, 69
1, 92760, Note_on_c, 0, 56, 51
1, 92872, Note_on_c, 0, 58, 58
1, 92907, Note_off_c, 0, 56, 51
1, 92974, Note_on_c, 0, 60, 60
1, 92981, Note_off_c, 0, 58, 57
1, 93007, Note_off_c, 0, 53, 46
1, 93072, Note_on_c, 0, 56, 58
1, 93082, Note_off_c, 0, 60, 61
1, 93156, Note_off_c, 0, 56, 63
1, 93176, Note_on_c, 0, 53, 65
1, 93186, Note_off_c, 0, 77, 62
1, 93261, Note_off_c, 0, 53, 63
1, 93266, Note_on_c, 0, 54, 67
1, 93357, Note_off_c, 0, 54, 63
1, 93361, Note_on_c, 0, 56, 64
1, 93375, Note_on_c, 0, 77, 79
1, 93412, Note_off_c, 0, 77, 63
1, 93463, Note_on_c, 0, 53, 64
1, 93471, Note_off_c, 0, 56, 61
1, 93584, Note_off_c, 0, 53, 62
1, 93593, Note_on_c, 0, 50, 56
1, 93608, Note_on_c, 0, 71, 73
1, 93693, Note_off_c, 0, 71, 62
1, 93702, Note_on_c, 0, 70, 77
1, 93709, Note_on_c, 0, 51, 65
1, 93726, Note_off_c, 0, 50, 50
1, 93785, Note_off_c, 0, 70, 59
1, 93797, Note_off_c, 0, 51, 59
1, 93799, Note_on_c, 0, 68, 80
1, 93803, Note_on_c, 0, 53, 67
1, 93880, Note_on_c, 0, 70, 81
1, 93880, Note_off_c, 0, 68, 61
1, 93888, Note_on_c, 0, 50, 54
1, 93892, Note_off_c, 0, 53, 60
1, 93975, Note_off_c, 0, 50, 63
1, 93982, Note_on_c, 0, 77, 85
1, 93984, Note_off_c, 0, 70, 62
1, 93990, Note_on_c, 0, 46, 57
1, 94012, Note_off_c, 0, 77, 63
1, 94094, Note_off_c, 0, 46, 58
1, 94098, Note_on_c, 0, 50, 56
1, 94190, Note_on_c, 0, 74, 78
1, 94197, Note_on_c, 0, 53, 64
1, 94202, Note_off_c, 0, 50, 56
1, 94223, Note_off_c, 0, 74, 65
1, 94286, Note_off_c, 0, 53, 63
1, 94302, Note_on_c, 0, 58, 59
1, 94404, Note_on_c, 0, 68, 77
1, 94410, Note_off_c, 0, 58, 60
1, 94416, Note_on_c, 0, 51, 59
1, 94527, Note_on_c, 0, 54, 62
1, 94530, Note_off_c, 0, 51, 56
1, 94641, Note_on_c, 0, 58, 64
1, 94652, Note_off_c, 0, 54, 58
1, 94652, Note_off_c, 0, 68, 55
1, 94653, Note_on_c, 0, 66, 75
1, 94710, Note_off_c, 0, 58, 62
1, 94723, Note_off_c, 0, 66, 59
1, 94735, Note_on_c, 0, 65, 77
1, 94740, Note_on_c, 0, 62, 64
1, 94820, Note_off_c, 0, 65, 60
1, 94826, Note_on_c, 0, 66, 78
1, 94826, Note_off_c, 0, 62, 51
1, 94845, Note_on_c, 0, 63, 57
1, 94856, Note_off_c, 0, 66, 63
1, 94927, Note_off_c, 0, 63, 62
1, 94944, Note_on_c, 0, 65, 65
1, 95051, Note_on_c, 0, 75, 71
1, 95052, Note_on_c, 0, 66, 58
1, 95055, Note_off_c, 0, 65, 56
1, 95082, Note_off_c, 0, 75, 63
1, 95159, Note_on_c, 0, 63, 51
1, 95159, Note_off_c, 0, 66, 52
1, 95246, Note_off_c, 0, 63, 61
1, 95272, Note_on_c, 0, 69, 62
1, 95277, Note_on_c, 0, 60, 47
1, 95344, Note_off_c, 0, 60, 62
1, 95347, Note_off_c, 0, 69, 59
1, 95367, Note_on_c, 0, 68, 69
1, 95368, Note_on_c, 0, 61, 54
1, 95430, Note_off_c, 0, 61, 58
1, 95431, Note_off_c, 0, 68, 61
1, 95459, Note_on_c, 0, 63, 52
1, 95469, Note_on_c, 0, 66, 68
1, 95541, Note_off_c, 0, 66, 59
1, 95544, Note_off_c, 0, 63, 62
1, 95553, Note_on_c, 0, 68, 73
1, 95557, Note_on_c, 0, 60, 58
1, 95594, Note_off_c, 0, 60, 64
1, 95606, Note_off_c, 0, 68, 53
1, 95656, Note_on_c, 0, 75, 75
1, 95671, Note_on_c, 0, 56, 59
1, 95686, Note_off_c, 0, 75, 63
1, 95780, Note_on_c, 0, 44, 46
1, 95875, Note_on_c, 0, 72, 69
1, 95886, Note_on_c, 0, 46, 53
1, 95895, Note_off_c, 0, 44, 57
1, 95904, Note_off_c, 0, 72, 65
1, 95987, Note_on_c, 0, 48, 54
1, 95991, Note_off_c, 0, 46, 55
1, 96035, Note_off_c, 0, 56, 40
1, 96104, Note_on_c, 0, 49, 48
1, 96108, Note_off_c, 0, 48, 56
1, 96113, Note_on_c, 0, 66, 62
1, 96223, Note_on_c, 0, 56, 54
1, 96278, Note_off_c, 0, 56, 61
1, 96325, Note_on_c, 0, 65, 57
1, 96340, Note_on_c, 0, 58, 52
1, 96344, Note_off_c, 0, 66, 36
1, 96413, Note_off_c, 0, 58, 58
1, 96423, Note_on_c, 0, 63, 64
1, 96435, Note_off_c, 0, 65, 49
1, 96446, Note_on_c, 0, 60, 46
1, 96509, Note_off_c, 0, 60, 56
1, 96533, Note_on_c, 0, 61, 58
1, 96536, Note_off_c, 0, 63, 37
1, 96553, Note_on_c, 0, 65, 58
1, 96570, Control_c, 0, 64, 43
1, 96573, Note_off_c, 0, 61, 64
1, 96584, Control_c, 0, 64, 59
1, 96590, Note_off_c, 0, 65, 64
1, 96599, Control_c, 0, 64, 65
1, 96614, Control_c, 0, 64, 72
1, 96629, Control_c, 0, 64, 85
1, 96643, Control_c, 0, 64, 107
1, 96658, Control_c, 0, 64, 127
1, 96682, Note_on_c, 0, 68, 65
1, 96684, Note_on_c, 0, 51, 63
1, 96702, Control_c, 0, 64, 118
1, 96717, Control_c, 0, 64, 95
1, 96726, Note_off_c, 0, 49, 56
1, 96732, Control_c, 0, 64, 81
1, 96747, Control_c, 0, 64, 70
1, 96756, Note_off_c, 0, 51, 63
1, 96762, Control_c, 0, 64, 62
1, 96774, Note_on_c, 0, 73, 76
1, 96775, Note_on_c, 0, 53, 58
1, 96776, Control_c, 0, 64, 52
1, 96781, Note_off_c, 0, 68, 57
1, 96791, Control_c, 0, 64, 42
1, 96806, Control_c, 0, 64, 36
1, 96820, Control_c, 0, 64, 32
1, 96835, Control_c, 0, 64, 31
1, 96850, Control_c, 0, 64, 30
1, 96864, Note_off_c, 0, 53, 60
1, 96867, Note_on_c, 0, 55, 65
1, 96867, Note_on_c, 0, 75, 81
1, 96888, Note_off_c, 0, 73, 62
1, 96924, Control_c, 0, 64, 31
1, 96939, Control_c, 0, 64, 31
1, 96954, Control_c, 0, 64, 32
1, 96957, Note_off_c, 0, 75, 57
1, 96962, Note_off_c, 0, 55, 62
1, 96965, Note_on_c, 0, 77, 84
1, 96969, Note_on_c, 0, 56, 67
1, 96969, Control_c, 0, 64, 32
1, 97018, Note_on_c, 0, 57, 36
1, 97051, Note_off_c, 0, 56, 60
1, 97052, Note_off_c, 0, 57, 51
1, 97052, Note_on_c, 0, 75, 86
1, 97058, Control_c, 0, 64, 33
1, 97067, Note_on_c, 0, 55, 65
1, 97084, Note_off_c, 0, 77, 61
1, 97149, Note_on_c, 0, 73, 81
1, 97150, Note_off_c, 0, 55, 63
1, 97156, Note_off_c, 0, 75, 61
1, 97161, Note_on_c, 0, 53, 66
1, 97162, Control_c, 0, 64, 33
1, 97237, Note_on_c, 0, 75, 83
1, 97252, Note_off_c, 0, 73, 62
1, 97253, Note_on_c, 0, 55, 67
1, 97255, Note_off_c, 0, 53, 59
1, 97286, Note_off_c, 0, 75, 63
1, 97332, Control_c, 0, 64, 34
1, 97337, Note_off_c, 0, 55, 58
1, 97340, Note_on_c, 0, 56, 71
1, 97350, Note_on_c, 0, 84, 86
1, 97368, Note_on_c, 0, 72, 70
1, 97393, Note_off_c, 0, 84, 63
1, 97407, Control_c, 0, 64, 34
1, 97436, Note_off_c, 0, 56, 64
1, 97452, Note_on_c, 0, 55, 65
1, 97562, Note_off_c, 0, 55, 63
1, 97568, Note_on_c, 0, 80, 81
1, 97571, Note_on_c, 0, 53, 64
1, 97602, Note_off_c, 0, 80, 61
1, 97612, Note_off_c, 0, 72, 55
1, 97668, Note_off_c, 0, 53, 61
1, 97671, Note_on_c, 0, 51, 68
1, 97693, Note_on_c, 0, 72, 30
1, 97778, Note_off_c, 0, 51, 63
1, 97784, Note_on_c, 0, 53, 69
1, 97788, Note_on_c, 0, 75, 81
1, 98018, Note_off_c, 0, 72, 47
1, 98055, Note_on_c, 0, 73, 76
1, 98095, Note_off_c, 0, 75, 58
1, 98142, Control_c, 0, 64, 35
1, 98143, Note_on_c, 0, 72, 77
1, 98152, Note_off_c, 0, 73, 61
1, 98239, Note_on_c, 0, 73, 84
1, 98241, Note_off_c, 0, 72, 64
1, 98247, Note_on_c, 0, 70, 69
1, 98278, Note_off_c, 0, 73, 63
1, 98299, Note_off_c, 0, 70, 0
1, 98337, Poly_aftertouch_c, 0, 70, 127
1, 98341, Note_off_c, 0, 53, 61
1, 98343, Note_on_c, 0, 51, 65
1, 98441, Note_off_c, 0, 51, 62
1, 98448, Note_on_c, 0, 49, 58
1, 98449, Note_on_c, 0, 82, 81
1, 98492, Note_off_c, 0, 82, 61
1, 98534, Note_off_c, 0, 49, 56
1, 98535, Note_on_c, 0, 53, 67
1, 98632, Note_off_c, 0, 53, 59
1, 98641, Note_on_c, 0, 51, 65
1, 98652, Note_on_c, 0, 72, 81
1, 98652, Poly_aftertouch_c, 0, 70, 0
1, 98691, Note_off_c, 0, 72, 64
1, 98725, Note_off_c, 0, 51, 64
1, 98738, Note_on_c, 0, 49, 59
1, 98841, Note_off_c, 0, 49, 60
1, 98859, Note_on_c, 0, 48, 59
1, 98860, Note_on_c, 0, 80, 78
1, 98871, Note_on_c, 0, 68, 64
1, 98903, Note_off_c, 0, 68, 63
1, 98916, Note_off_c, 0, 80, 62
1, 98933, Note_off_c, 0, 48, 60
1, 98954, Note_on_c, 0, 51, 65
1, 98994, Control_c, 0, 64, 35
1, 99073, Note_off_c, 0, 51, 59
1, 99079, Note_on_c, 0, 70, 72
1, 99084, Note_on_c, 0, 49, 56
1, 99085, Note_on_c, 0, 67, 61
1, 99112, Note_off_c, 0, 70, 62
1, 99115, Note_off_c, 0, 67, 66
1, 99166, Note_off_c, 0, 49, 61
1, 99182, Note_on_c, 0, 48, 52
1, 99274, Note_off_c, 0, 48, 55
1, 99293, Note_on_c, 0, 46, 47
1, 99301, Note_on_c, 0, 79, 73
1, 99313, Note_on_c, 0, 70, 56
1, 99348, Note_off_c, 0, 70, 65
1, 99355, Note_off_c, 0, 79, 62
1, 99376, Note_off_c, 0, 46, 53
1, 99404, Note_on_c, 0, 49, 45
1, 99535, Note_off_c, 0, 49, 51
1, 99553, Note_on_c, 0, 48, 54
1, 99554, Note_on_c, 0, 68, 64
1, 99565, Note_on_c, 0, 63, 47
1, 99584, Note_off_c, 0, 48, 65
1, 99591, Note_off_c, 0, 63, 57
1, 99647, Note_off_c, 0, 68, 51
1, 99669, Note_on_c, 0, 63, 57
1, 99711, Note_off_c, 0, 63, 60
1, 99771, Note_on_c, 0, 65, 48
1, 99774, Note_on_c, 0, 51, 62
1, 99798, Note_off_c, 0, 51, 62
1, 99850, Note_off_c, 0, 65, 42
1, 99861, Note_on_c, 0, 67, 49
1, 99947, Note_off_c, 0, 67, 57
1, 99977, Note_on_c, 0, 54, 56
1, 99985, Note_on_c, 0, 68, 49
1, 100054, Note_off_c, 0, 68, 52
1, 100087, Note_on_c, 0, 70, 46
1, 100178, Note_off_c, 0, 70, 58
1, 100202, Note_on_c, 0, 56, 63
1, 100215, Note_on_c, 0, 72, 50
1, 100239, Note_off_c, 0, 56, 65
1, 100269, Note_off_c, 0, 72, 57
1, 100318, Note_on_c, 0, 68, 49
1, 100409, Note_off_c, 0, 68, 58
1, 100421, Note_on_c, 0, 58, 65
1, 100435, Note_on_c, 0, 73, 50
1, 100501, Note_off_c, 0, 73, 53
1, 100506, Note_off_c, 0, 58, 63
1, 100512, Note_off_c, 0, 54, 46
1, 100515, Note_on_c, 0, 56, 66
1, 100525, Note_on_c, 0, 72, 54
1, 100610, Note_off_c, 0, 56, 64
1, 100610, Note_off_c, 0, 72, 59
1, 100614, Note_on_c, 0, 54, 68
1, 100627, Note_on_c, 0, 70, 53
1, 100701, Note_on_c, 0, 56, 71
1, 100701, Note_off_c, 0, 70, 64
1, 100703, Note_off_c, 0, 54, 63
1, 100731, Note_on_c, 0, 72, 49
1, 100786, Note_off_c, 0, 56, 63
1, 100798, Note_off_c, 0, 72, 62
1, 100814, Note_on_c, 0, 65, 73
1, 100823, Note_on_c, 0, 53, 60
1, 100832, Note_on_c, 0, 73, 49
1, 100841, Note_off_c, 0, 65, 65
1, 100920, Note_off_c, 0, 73, 58
1, 100945, Note_on_c, 0, 72, 48
1, 101035, Note_off_c, 0, 72, 57
1, 101045, Note_on_c, 0, 61, 72
1, 101061, Note_on_c, 0, 70, 52
1, 101072, Note_off_c, 0, 61, 66
1, 101116, Note_off_c, 0, 70, 61
1, 101160, Note_on_c, 0, 68, 59
1, 101283, Note_on_c, 0, 56, 68
1, 101290, Note_off_c, 0, 68, 50
1, 101292, Note_on_c, 0, 70, 62
1, 101372, Note_off_c, 0, 53, 49
1, 101547, Note_off_c, 0, 56, 64
1, 101553, Note_on_c, 0, 54, 67
1, 101627, Note_off_c, 0, 54, 64
1, 101637, Note_on_c, 0, 53, 70
1, 101700, Control_c, 0, 64, 35
1, 101715, Control_c, 0, 64, 35
1, 101740, Note_on_c, 0, 54, 74
1, 101741, Note_off_c, 0, 53, 63
1, 101745, Note_on_c, 0, 51, 58
1, 101745, Control_c, 0, 64, 35
1, 101774, Control_c, 0, 64, 35
1, 101792, Note_off_c, 0, 54, 62
1, 101868, Note_on_c, 0, 68, 53
1, 101905, Note_off_c, 0, 70, 38
1, 101956, Note_on_c, 0, 66, 60
1, 101969, Note_on_c, 0, 63, 74
1, 101976, Note_off_c, 0, 68, 48
1, 101995, Note_off_c, 0, 63, 66
1, 102052, Note_off_c, 0, 66, 55
1, 102065, Note_on_c, 0, 70, 59
1, 102158, Note_off_c, 0, 70, 50
1, 102172, Note_on_c, 0, 53, 76
1, 102172, Note_on_c, 0, 68, 57
1, 102197, Note_off_c, 0, 51, 44
1, 102209, Note_off_c, 0, 53, 64
1, 102264, Note_on_c, 0, 66, 59
1, 102264, Note_off_c, 0, 68, 56
1, 102343, Note_off_c, 0, 66, 61
1, 102383, Note_on_c, 0, 61, 71
1, 102383, Note_on_c, 0, 65, 60
1, 102388, Note_on_c, 0, 49, 60
1, 102409, Note_off_c, 0, 61, 66
1, 102426, Note_off_c, 0, 49, 64
1, 102446, Note_off_c, 0, 65, 49
1, 102472, Note_on_c, 0, 68, 66
1, 102583, Note_on_c, 0, 66, 65
1, 102597, Note_off_c, 0, 68, 34
1, 102599, Note_on_c, 0, 51, 62
1, 102635, Note_off_c, 0, 51, 65
1, 102671, Note_off_c, 0, 66, 56
1, 102676, Note_on_c, 0, 65, 62
1, 102746, Note_off_c, 0, 65, 59
1, 102782, Note_on_c, 0, 63, 56
1, 102795, Note_on_c, 0, 44, 53
1, 102796, Note_on_c, 0, 60, 53
1, 102827, Control_c, 0, 64, 35
1, 102832, Note_off_c, 0, 44, 63
1, 102839, Note_off_c, 0, 60, 63
1, 102839, Note_off_c, 0, 63, 53
1, 102857, Control_c, 0, 64, 34
1, 102881, Note_on_c, 0, 66, 52
1, 102957, Note_off_c, 0, 66, 60
1, 102993, Note_on_c, 0, 49, 46
1, 102997, Note_on_c, 0, 65, 54
1, 103004, Note_on_c, 0, 61, 46
1, 103047, Note_off_c, 0, 65, 60
1, 103088, Note_off_c, 0, 49, 57
1, 103100, Note_on_c, 0, 51, 59
1, 103190, Note_off_c, 0, 61, 52
1, 103194, Note_off_c, 0, 51, 63
1, 103200, Note_on_c, 0, 68, 61
1, 103220, Note_on_c, 0, 53, 56
1, 103235, Note_off_c, 0, 68, 64
1, 103313, Note_off_c, 0, 53, 62
1, 103326, Note_on_c, 0, 54, 55
1, 103426, Note_off_c, 0, 54, 62
1, 103444, Note_on_c, 0, 53, 56
1, 103450, Note_on_c, 0, 73, 59
1, 103563, Note_off_c, 0, 53, 60
1, 103572, Note_on_c, 0, 51, 52
1, 103667, Note_on_c, 0, 49, 46
1, 103667, Note_off_c, 0, 51, 38
1, 103675, Note_on_c, 0, 80, 63
1, 103702, Note_off_c, 0, 73, 38
1, 103770, Note_on_c, 0, 53, 58
1, 103774, Note_off_c, 0, 49, 63
1, 103775, Note_on_c, 0, 77, 72
1, 103796, Note_off_c, 0, 80, 59
1, 103860, Note_off_c, 0, 53, 63
1, 103875, Note_on_c, 0, 58, 69
1, 103877, Note_on_c, 0, 73, 67
1, 103878, Note_off_c, 0, 77, 61
1, 103979, Note_on_c, 0, 56, 72
1, 103983, Note_off_c, 0, 58, 56
1, 104070, Note_off_c, 0, 73, 56
1, 104082, Note_on_c, 0, 55, 67
1, 104091, Note_off_c, 0, 56, 63
1, 104096, Note_on_c, 0, 76, 70
1, 104187, Note_on_c, 0, 58, 79
1, 104189, Note_on_c, 0, 73, 70
1, 104192, Note_off_c, 0, 55, 64
1, 104208, Note_off_c, 0, 76, 59
1, 104277, Note_off_c, 0, 58, 64
1, 104289, Note_on_c, 0, 61, 78
1, 104299, Note_on_c, 0, 70, 70
1, 104299, Note_off_c, 0, 73, 62
1, 104384, Note_on_c, 0, 59, 78
1, 104394, Note_off_c, 0, 61, 59
1, 104497, Note_on_c, 0, 58, 76
1, 104504, Note_off_c, 0, 59, 59
1, 104510, Note_on_c, 0, 73, 74
1, 104510, Note_off_c, 0, 70, 63
1, 104592, Note_on_c, 0, 61, 74
1, 104606, Note_off_c, 0, 58, 62
1, 104618, Note_on_c, 0, 70, 70
1, 104633, Note_off_c, 0, 73, 53
1, 104634, Note_off_c, 0, 61, 59
1, 104687, Note_on_c, 0, 61, 69
1, 104715, Note_off_c, 0, 70, 59
1, 104722, Note_on_c, 0, 63, 78
1, 104736, Note_on_c, 0, 67, 75
1, 104751, Note_off_c, 0, 61, 63
1, 104764, Note_on_c, 0, 64, 72
1, 104792, Note_off_c, 0, 63, 62
1, 104970, Note_on_c, 0, 63, 68
1, 104977, Note_off_c, 0, 64, 60
1, 104981, Note_on_c, 0, 70, 64
1, 104983, Note_off_c, 0, 67, 55
1, 105061, Note_on_c, 0, 61, 71
1, 105070, Note_on_c, 0, 73, 71
1, 105079, Note_off_c, 0, 63, 59
1, 105080, Note_off_c, 0, 70, 61
1, 105144, Note_off_c, 0, 61, 61
1, 105165, Note_on_c, 0, 59, 69
1, 105171, Note_off_c, 0, 73, 62
1, 105178, Note_on_c, 0, 76, 69
1, 105260, Note_off_c, 0, 59, 60
1, 105264, Note_on_c, 0, 58, 64
1, 105357, Note_off_c, 0, 58, 62
1, 105369, Note_on_c, 0, 56, 60
1, 105384, Note_on_c, 0, 73, 66
1, 105414, Note_off_c, 0, 73, 65
1, 105470, Note_off_c, 0, 56, 62
1, 105479, Note_on_c, 0, 55, 58
1, 105596, Note_off_c, 0, 55, 59
1, 105602, Note_on_c, 0, 71, 55
1, 105602, Note_on_c, 0, 75, 63
1, 105605, Note_on_c, 0, 56, 54
1, 105615, Note_off_c, 0, 76, 55
1, 105648, Note_off_c, 0, 75, 59
1, 105661, Note_off_c, 0, 56, 59
1, 105686, Note_on_c, 0, 59, 58
1, 105792, Note_off_c, 0, 59, 59
1, 105804, Note_on_c, 0, 58, 60
1, 105818, Note_on_c, 0, 80, 77
1, 105875, Note_off_c, 0, 80, 59
1, 105896, Control_c, 0, 64, 35
1, 105901, Note_on_c, 0, 56, 69
1, 105911, Note_off_c, 0, 58, 61
1, 106000, Note_off_c, 0, 56, 64
1, 106007, Note_on_c, 0, 55, 71
1, 106007, Note_on_c, 0, 73, 76
1, 106010, Note_on_c, 0, 70, 72
1, 106021, Note_off_c, 0, 71, 58
1, 106067, Note_off_c, 0, 73, 63
1, 106108, Note_off_c, 0, 55, 64
1, 106109, Note_on_c, 0, 53, 74
1, 106134, Control_c, 0, 64, 35
1, 106206, Note_on_c, 0, 51, 75
1, 106215, Note_off_c, 0, 53, 62
1, 106216, Note_on_c, 0, 79, 77
1, 106272, Note_off_c, 0, 79, 63
1, 106309, Note_on_c, 0, 49, 69
1, 106323, Note_off_c, 0, 51, 64
1, 106349, Control_c, 0, 64, 36
1, 106408, Control_c, 0, 64, 36
1, 106412, Note_off_c, 0, 70, 54
1, 106419, Note_on_c, 0, 47, 73
1, 106420, Note_off_c, 0, 49, 64
1, 106423, Note_on_c, 0, 68, 82
1, 106470, Note_off_c, 0, 68, 60
1, 106520, Note_off_c, 0, 47, 62
1, 106526, Note_on_c, 0, 49, 75
1, 106630, Note_on_c, 0, 51, 72
1, 106641, Note_on_c, 0, 80, 83
1, 106642, Note_off_c, 0, 49, 57
1, 106745, Note_on_c, 0, 47, 66
1, 106746, Note_on_c, 0, 79, 80
1, 106755, Note_off_c, 0, 80, 62
1, 106760, Note_off_c, 0, 51, 61
1, 106856, Note_on_c, 0, 44, 60
1, 106865, Note_on_c, 0, 80, 83
1, 106871, Note_off_c, 0, 47, 60
1, 106881, Note_off_c, 0, 79, 61
1, 106883, Control_c, 0, 64, 37
1, 106949, Note_off_c, 0, 44, 63
1, 106977, Note_on_c, 0, 82, 84
1, 107005, Note_off_c, 0, 80, 61
1, 107088, Note_on_c, 0, 83, 80
1, 107089, Note_on_c, 0, 56, 72
1, 107125, Note_off_c, 0, 82, 32
1, 107179, Note_on_c, 0, 80, 81
1, 107182, Note_on_c, 0, 53, 75
1, 107185, Note_off_c, 0, 56, 63
1, 107199, Note_off_c, 0, 83, 57
1, 107200, Control_c, 0, 64, 36
1, 107274, Note_off_c, 0, 53, 64
1, 107277, Note_on_c, 0, 49, 74
1, 107278, Note_on_c, 0, 77, 81
1, 107283, Note_off_c, 0, 80, 59
1, 107327, Note_off_c, 0, 49, 59
1, 107333, Control_c, 0, 64, 36
1, 107363, Control_c, 0, 64, 35
1, 107378, Note_on_c, 0, 78, 84
1, 107389, Note_off_c, 0, 77, 59
1, 107408, Control_c, 0, 64, 35
1, 107423, Control_c, 0, 64, 34
1, 107477, Note_on_c, 0, 59, 75
1, 107482, Note_on_c, 0, 80, 80
1, 107498, Note_off_c, 0, 78, 56
1, 107566, Note_on_c, 0, 56, 75
1, 107569, Note_on_c, 0, 77, 80
1, 107585, Note_off_c, 0, 59, 62
1, 107598, Note_off_c, 0, 80, 60
1, 107648, Note_off_c, 0, 77, 63
1, 107673, Note_on_c, 0, 73, 77
1, 107676, Note_on_c, 0, 53, 73
1, 107682, Note_off_c, 0, 56, 64
1, 107732, Note_off_c, 0, 53, 64
1, 107757, Note_on_c, 0, 75, 79
1, 107764, Note_off_c, 0, 73, 59
1, 107870, Note_on_c, 0, 77, 78
1, 107879, Note_on_c, 0, 49, 61
1, 107892, Note_off_c, 0, 75, 54
1, 107960, Note_on_c, 0, 46, 65
1, 107963, Note_on_c, 0, 73, 75
1, 107965, Note_off_c, 0, 49, 62
1, 107968, Note_off_c, 0, 77, 60
1, 108051, Note_off_c, 0, 73, 61
1, 108064, Note_on_c, 0, 42, 67
1, 108064, Note_off_c, 0, 46, 60
1, 108068, Note_on_c, 0, 70, 72
1, 108129, Note_off_c, 0, 42, 62
1, 108144, Note_off_c, 0, 70, 61
1, 108161, Note_on_c, 0, 72, 73
1, 108269, Note_off_c, 0, 72, 61
1, 108270, Note_on_c, 0, 58, 60
1, 108275, Note_on_c, 0, 73, 66
1, 108326, Note_off_c, 0, 73, 62
1, 108359, Note_on_c, 0, 54, 57
1, 108363, Note_off_c, 0, 58, 59
1, 108368, Note_on_c, 0, 70, 64
1, 108439, Control_c, 0, 64, 35
1, 108467, Note_on_c, 0, 51, 51
1, 108469, Note_off_c, 0, 54, 61
1, 108471, Note_off_c, 0, 70, 57
1, 108486, Note_on_c, 0, 78, 65
1, 108499, Control_c, 0, 64, 35
1, 108567, Note_off_c, 0, 51, 63
1, 108588, Note_on_c, 0, 80, 72
1, 108614, Note_off_c, 0, 78, 59
1, 108625, Control_c, 0, 64, 36
1, 108684, Control_c, 0, 64, 36
1, 108687, Note_on_c, 0, 82, 74
1, 108696, Note_off_c, 0, 80, 58
1, 108698, Note_on_c, 0, 54, 58
1, 108728, Control_c, 0, 64, 37
1, 108758, Control_c, 0, 64, 37
1, 108774, Note_on_c, 0, 78, 76
1, 108782, Note_on_c, 0, 51, 66
1, 108789, Note_off_c, 0, 54, 63
1, 108797, Note_off_c, 0, 82, 60
1, 108860, Note_off_c, 0, 78, 62
1, 108876, Control_c, 0, 64, 38
1, 108881, Note_on_c, 0, 75, 72
1, 108883, Note_on_c, 0, 48, 66
1, 108883, Note_off_c, 0, 51, 61
1, 108929, Note_off_c, 0, 48, 61
1, 108974, Note_on_c, 0, 77, 76
1, 108982, Note_off_c, 0, 75, 58
1, 109080, Note_on_c, 0, 78, 75
1, 109080, Note_off_c, 0, 77, 59
1, 109087, Note_on_c, 0, 58, 62
1, 109098, Control_c, 0, 64, 37
1, 109172, Note_on_c, 0, 75, 73
1, 109180, Note_off_c, 0, 78, 59
1, 109181, Note_on_c, 0, 54, 68
1, 109193, Note_off_c, 0, 58, 57
1, 109272, Note_on_c, 0, 72, 74
1, 109284, Note_on_c, 0, 51, 73
1, 109290, Note_off_c, 0, 75, 60
1, 109295, Note_off_c, 0, 54, 63
1, 109345, Note_off_c, 0, 51, 64
1, 109374, Note_on_c, 0, 73, 74
1, 109374, Control_c, 0, 64, 37
1, 109381, Note_off_c, 0, 72, 60
1, 109433, Control_c, 0, 64, 36
1, 109465, Note_off_c, 0, 73, 58
1, 109479, Note_on_c, 0, 75, 70
1, 109488, Note_on_c, 0, 48, 46
1, 109521, Control_c, 0, 64, 36
1, 109536, Control_c, 0, 64, 35
1, 109556, Note_off_c, 0, 48, 58
1, 109576, Note_on_c, 0, 72, 66
1, 109577, Note_on_c, 0, 44, 51
1, 109579, Note_off_c, 0, 75, 57
1, 109611, Control_c, 0, 64, 35
1, 109640, Control_c, 0, 64, 34
1, 109653, Note_off_c, 0, 72, 63
1, 109665, Note_off_c, 0, 44, 59
1, 109667, Note_on_c, 0, 41, 51
1, 109692, Note_on_c, 0, 68, 59
1, 109714, Control_c, 0, 64, 34
1, 109744, Control_c, 0, 64, 33
1, 109750, Note_off_c, 0, 41, 63
1, 109772, Note_off_c, 0, 68, 50
1, 109784, Note_on_c, 0, 70, 59
1, 109803, Control_c, 0, 64, 33
1, 109885, Note_off_c, 0, 70, 60
1, 109888, Note_on_c, 0, 72, 61
1, 109890, Note_on_c, 0, 56, 47
1, 109936, Note_off_c, 0, 72, 64
1, 109980, Note_off_c, 0, 56, 58
1, 109985, Note_on_c, 0, 53, 56
1, 109993, Note_on_c, 0, 68, 58
1, 110087, Note_off_c, 0, 68, 57
1, 110089, Note_on_c, 0, 50, 50
1, 110094, Note_off_c, 0, 53, 61
1, 110099, Note_on_c, 0, 77, 71
1, 110161, Note_off_c, 0, 50, 63
1, 110197, Note_on_c, 0, 78, 69
1, 110210, Note_off_c, 0, 77, 55
1, 110293, Note_on_c, 0, 80, 74
1, 110300, Note_off_c, 0, 78, 58
1, 110301, Note_on_c, 0, 53, 62
1, 110359, Control_c, 0, 64, 33
1, 110383, Note_on_c, 0, 77, 74
1, 110383, Note_off_c, 0, 53, 59
1, 110386, Note_on_c, 0, 50, 56
1, 110392, Note_off_c, 0, 80, 61
1, 110448, Control_c, 0, 64, 34
1, 110482, Note_off_c, 0, 77, 58
1, 110484, Note_off_c, 0, 50, 63
1, 110488, Note_on_c, 0, 74, 67
1, 110495, Note_on_c, 0, 46, 52
1, 110544, Note_off_c, 0, 46, 63
1, 110579, Note_on_c, 0, 75, 72
1, 110582, Control_c, 0, 64, 34
1, 110582, Note_off_c, 0, 74, 60
1, 110680, Note_off_c, 0, 75, 54
1, 110684, Note_on_c, 0, 77, 68
1, 110697, Note_on_c, 0, 56, 63
1, 110731, Control_c, 0, 64, 35
1, 110773, Note_off_c, 0, 77, 62
1, 110788, Note_on_c, 0, 74, 64
1, 110797, Note_off_c, 0, 56, 60
1, 110804, Note_on_c, 0, 53, 53
1, 110812, Control_c, 0, 64, 35
1, 110832, Note_off_c, 0, 74, 63
1, 110888, Note_on_c, 0, 70, 56
1, 110903, Note_off_c, 0, 53, 60
1, 110913, Note_on_c, 0, 50, 50
1, 110958, Note_off_c, 0, 50, 62
1, 110961, Note_off_c, 0, 70, 59
1, 110979, Note_on_c, 0, 72, 60
1, 111080, Note_off_c, 0, 72, 59
1, 111090, Note_on_c, 0, 74, 58
1, 111107, Note_on_c, 0, 46, 53
1, 111177, Note_off_c, 0, 74, 63
1, 111186, Note_off_c, 0, 46, 61
1, 111188, Note_on_c, 0, 70, 55
1, 111196, Note_on_c, 0, 42, 53
1, 111212, Control_c, 0, 64, 35
1, 111262, Note_off_c, 0, 70, 58
1, 111280, Note_off_c, 0, 42, 61
1, 111292, Note_on_c, 0, 66, 59
1, 111295, Note_on_c, 0, 39, 54
1, 111316, Control_c, 0, 64, 34
1, 111345, Note_off_c, 0, 39, 62
1, 111374, Note_off_c, 0, 66, 57
1, 111386, Note_on_c, 0, 68, 59
1, 111491, Note_off_c, 0, 68, 60
1, 111493, Control_c, 0, 64, 34
1, 111496, Note_on_c, 0, 70, 56
1, 111498, Note_on_c, 0, 54, 49
1, 111552, Note_off_c, 0, 70, 63
1, 111590, Control_c, 0, 64, 33
1, 111591, Note_off_c, 0, 54, 55
1, 111595, Note_on_c, 0, 51, 51
1, 111605, Note_on_c, 0, 66, 50
1, 111697, Note_off_c, 0, 51, 57
1, 111703, Note_on_c, 0, 48, 46
1, 111707, Note_off_c, 0, 66, 55
1, 111718, Note_on_c, 0, 75, 58
1, 111777, Note_off_c, 0, 48, 60
1, 111820, Note_on_c, 0, 77, 63
1, 111833, Note_off_c, 0, 75, 55
1, 111907, Note_off_c, 0, 77, 58
1, 111924, Note_on_c, 0, 78, 63
1, 111928, Note_on_c, 0, 51, 53
1, 112008, Note_off_c, 0, 78, 58
1, 112010, Note_off_c, 0, 51, 54
1, 112014, Note_on_c, 0, 75, 62
1, 112022, Note_on_c, 0, 48, 44
1, 112100, Note_off_c, 0, 48, 60
1, 112114, Note_off_c, 0, 75, 57
1, 112122, Note_on_c, 0, 72, 58
1, 112124, Note_on_c, 0, 44, 49
1, 112176, Note_off_c, 0, 44, 62
1, 112223, Note_off_c, 0, 72, 58
1, 112225, Note_on_c, 0, 73, 59
1, 112314, Note_off_c, 0, 73, 59
1, 112339, Note_on_c, 0, 75, 54
1, 112345, Note_on_c, 0, 54, 51
1, 112403, Note_off_c, 0, 54, 59
1, 112423, Note_off_c, 0, 75, 57
1, 112430, Note_on_c, 0, 51, 51
1, 112431, Note_on_c, 0, 72, 57
1, 112481, Note_off_c, 0, 72, 58
1, 112526, Note_off_c, 0, 51, 59
1, 112534, Note_on_c, 0, 48, 42
1, 112544, Note_on_c, 0, 68, 49
1, 112576, Note_off_c, 0, 48, 64
1, 112597, Note_off_c, 0, 68, 57
1, 112649, Note_on_c, 0, 70, 45
1, 112747, Note_off_c, 0, 70, 38
1, 112752, Note_on_c, 0, 44, 40
1, 112763, Note_on_c, 0, 72, 47
1, 112840, Note_off_c, 0, 72, 56
1, 112842, Control_c, 0, 67, 8
1, 112854, Note_on_c, 0, 41, 44
1, 112857, Control_c, 0, 67, 8
1, 112862, Note_on_c, 0, 68, 49
1, 112866, Note_off_c, 0, 44, 46
1, 112887, Control_c, 0, 67, 9
1, 112916, Control_c, 0, 67, 9
1, 112946, Control_c, 0, 67, 10
1, 112949, Note_off_c, 0, 68, 49
1, 112979, Note_off_c, 0, 41, 50
1, 112986, Note_on_c, 0, 65, 44
1, 112994, Note_on_c, 0, 37, 40
1, 113057, Control_c, 0, 67, 9
1, 113072, Control_c, 0, 67, 9
1, 113083, Note_off_c, 0, 65, 58
1, 113086, Control_c, 0, 67, 8
1, 113101, Control_c, 0, 67, 8
1, 113107, Note_on_c, 0, 66, 45
1, 113116, Control_c, 0, 67, 0
1, 113209, Note_off_c, 0, 66, 53
1, 113212, Note_on_c, 0, 68, 54
1, 113244, Note_off_c, 0, 37, 49
1, 113274, Note_off_c, 0, 68, 58
1, 113300, Note_on_c, 0, 65, 58
1, 113381, Note_off_c, 0, 65, 62
1, 113400, Note_on_c, 0, 61, 54
1, 113489, Note_off_c, 0, 61, 56
1, 113507, Note_on_c, 0, 65, 57
1, 113587, Note_off_c, 0, 65, 61
1, 113593, Note_on_c, 0, 68, 67
1, 113683, Note_on_c, 0, 70, 66
1, 113698, Note_off_c, 0, 68, 57
1, 113784, Note_off_c, 0, 70, 53
1, 113794, Note_on_c, 0, 71, 71
1, 113879, Note_off_c, 0, 71, 61
1, 113889, Note_on_c, 0, 70, 73
1, 113969, Note_off_c, 0, 70, 63
1, 113992, Note_on_c, 0, 68, 78
1, 114001, Note_on_c, 0, 59, 65
1, 114083, Note_on_c, 0, 70, 78
1, 114085, Note_off_c, 0, 59, 61
1, 114090, Note_off_c, 0, 68, 56
1, 114091, Note_on_c, 0, 49, 65
1, 114132, Control_c, 0, 64, 34
1, 114174, Note_off_c, 0, 49, 58
1, 114182, Note_on_c, 0, 78, 86
1, 114184, Note_off_c, 0, 70, 62
1, 114187, Note_on_c, 0, 58, 72
1, 114204, Note_off_c, 0, 78, 66
1, 114236, Control_c, 0, 64, 34
1, 114258, Note_off_c, 0, 58, 61
1, 114285, Note_on_c, 0, 49, 56
1, 114389, Note_off_c, 0, 49, 55
1, 114389, Note_on_c, 0, 73, 79
1, 114391, Note_on_c, 0, 56, 69
1, 114416, Note_off_c, 0, 73, 65
1, 114443, Control_c, 0, 64, 34
1, 114464, Note_off_c, 0, 56, 63
1, 114490, Note_on_c, 0, 49, 54
1, 114608, Note_off_c, 0, 49, 61
1, 114611, Note_on_c, 0, 54, 60
1, 114614, Note_on_c, 0, 70, 79
1, 114736, Note_on_c, 0, 49, 53
1, 114741, Note_off_c, 0, 54, 52
1, 114856, Note_on_c, 0, 53, 62
1, 114859, Note_on_c, 0, 68, 70
1, 114881, Control_c, 0, 64, 33
1, 114887, Note_off_c, 0, 49, 58
1, 114899, Note_off_c, 0, 70, 53
1, 114942, Note_on_c, 0, 66, 73
1, 114945, Note_on_c, 0, 51, 72
1, 114951, Note_off_c, 0, 53, 63
1, 114951, Note_off_c, 0, 68, 60
1, 114985, Control_c, 0, 64, 33
1, 115011, Note_off_c, 0, 51, 64
1, 115044, Note_on_c, 0, 53, 67
1, 115048, Note_off_c, 0, 66, 59
1, 115054, Note_on_c, 0, 68, 67
1, 115059, Control_c, 0, 64, 32
1, 115076, Note_off_c, 0, 53, 64
1, 115102, Note_off_c, 0, 68, 53
1, 115142, Note_on_c, 0, 61, 63
1, 115227, Note_off_c, 0, 61, 56
1, 115237, Note_on_c, 0, 44, 62
1, 115242, Note_on_c, 0, 65, 56
1, 115278, Note_off_c, 0, 44, 64
1, 115313, Note_off_c, 0, 65, 58
1, 115318, Control_c, 0, 64, 32
1, 115334, Note_on_c, 0, 68, 63
1, 115437, Note_off_c, 0, 68, 48
1, 115444, Note_on_c, 0, 70, 61
1, 115525, Note_off_c, 0, 70, 57
1, 115540, Note_on_c, 0, 68, 69
1, 115606, Note_off_c, 0, 68, 62
1, 115648, Note_on_c, 0, 66, 66
1, 115653, Note_on_c, 0, 58, 73
1, 115714, Note_off_c, 0, 58, 61
1, 115722, Note_off_c, 0, 66, 60
1, 115729, Note_on_c, 0, 49, 60
1, 115739, Note_on_c, 0, 68, 74
1, 115778, Control_c, 0, 64, 32
1, 115822, Control_c, 0, 64, 33
1, 115837, Note_on_c, 0, 56, 71
1, 115840, Note_on_c, 0, 77, 74
1, 115844, Note_off_c, 0, 49, 53
1, 115846, Note_off_c, 0, 68, 62
1, 115870, Note_off_c, 0, 77, 64
1, 115945, Note_off_c, 0, 56, 54
1, 115946, Note_on_c, 0, 49, 50
1, 116051, Note_off_c, 0, 49, 59
1, 116055, Note_on_c, 0, 54, 63
1, 116058, Note_on_c, 0, 73, 69
1, 116082, Control_c, 0, 64, 33
1, 116087, Note_off_c, 0, 73, 66
1, 116168, Note_on_c, 0, 49, 46
1, 116170, Note_off_c, 0, 54, 59
1, 116252, Note_off_c, 0, 49, 62
1, 116271, Note_on_c, 0, 68, 65
1, 116272, Note_on_c, 0, 53, 52
1, 116335, Control_c, 0, 64, 33
1, 116364, Note_off_c, 0, 53, 60
1, 116381, Note_on_c, 0, 49, 49
1, 116476, Note_off_c, 0, 49, 60
1, 116488, Note_on_c, 0, 66, 58
1, 116491, Note_on_c, 0, 51, 58
1, 116554, Note_off_c, 0, 68, 39
1, 116562, Note_off_c, 0, 51, 63
1, 116574, Note_off_c, 0, 66, 58
1, 116574, Note_on_c, 0, 65, 64
1, 116584, Note_on_c, 0, 49, 49
1, 116655, Note_off_c, 0, 49, 56
1, 116677, Note_off_c, 0, 65, 61
1, 116690, Note_on_c, 0, 66, 60
1, 116694, Note_on_c, 0, 51, 54
1, 116725, Note_off_c, 0, 51, 64
1, 116733, Note_off_c, 0, 66, 57
1, 116798, Note_on_c, 0, 60, 52
1, 116875, Control_c, 0, 64, 32
1, 116888, Note_off_c, 0, 60, 56
1, 116905, Note_on_c, 0, 63, 52
1, 116920, Note_on_c, 0, 44, 45
1, 116935, Control_c, 0, 67, 8
1, 116950, Control_c, 0, 67, 9
1, 116950, Note_off_c, 0, 44, 58
1, 116965, Control_c, 0, 67, 10
1, 116982, Note_off_c, 0, 63, 55
1, 116994, Control_c, 0, 67, 11
1, 117008, Note_on_c, 0, 66, 48
1, 117009, Control_c, 0, 67, 11
1, 117024, Control_c, 0, 67, 12
1, 117053, Control_c, 0, 67, 13
1, 117083, Control_c, 0, 67, 14
1, 117097, Control_c, 0, 67, 14
1, 117103, Note_off_c, 0, 66, 56
1, 117110, Note_on_c, 0, 68, 53
1, 117114, Control_c, 0, 67, 18
1, 117128, Control_c, 0, 67, 37
1, 117143, Control_c, 0, 67, 51
1, 117158, Control_c, 0, 67, 57
1, 117173, Control_c, 0, 67, 58
1, 117206, Note_off_c, 0, 68, 55
1, 117217, Note_on_c, 0, 66, 48
1, 117273, Note_off_c, 0, 66, 58
1, 117291, Control_c, 0, 67, 57
1, 117317, Note_on_c, 0, 65, 57
1, 117321, Control_c, 0, 67, 56
1, 117322, Note_on_c, 0, 56, 47
1, 117336, Control_c, 0, 67, 56
1, 117391, Note_off_c, 0, 56, 61
1, 117394, Note_off_c, 0, 65, 59
1, 117403, Note_on_c, 0, 44, 49
1, 117409, Note_on_c, 0, 66, 57
1, 117494, Note_off_c, 0, 44, 61
1, 117517, Note_off_c, 0, 66, 61
1, 117519, Note_on_c, 0, 75, 68
1, 117534, Note_on_c, 0, 54, 49
1, 117554, Note_off_c, 0, 75, 62
1, 117565, Control_c, 0, 67, 55
1, 117594, Control_c, 0, 67, 55
1, 117609, Control_c, 0, 67, 54
1, 117610, Note_off_c, 0, 54, 61
1, 117616, Note_on_c, 0, 44, 50
1, 117653, Control_c, 0, 67, 53
1, 117668, Control_c, 0, 67, 53
1, 117683, Control_c, 0, 67, 52
1, 117713, Control_c, 0, 67, 51
1, 117729, Note_off_c, 0, 44, 58
1, 117732, Note_on_c, 0, 53, 54
1, 117743, Note_on_c, 0, 72, 64
1, 117772, Control_c, 0, 67, 51
1, 117772, Note_off_c, 0, 72, 67
1, 117824, Note_off_c, 0, 53, 58
1, 117831, Control_c, 0, 67, 50
1, 117847, Note_on_c, 0, 44, 50
1, 117861, Control_c, 0, 67, 50
1, 117890, Control_c, 0, 67, 49
1, 117921, Control_c, 0, 67, 48
1, 117936, Control_c, 0, 67, 48
1, 117972, Note_on_c, 0, 51, 57
1, 117973, Note_off_c, 0, 44, 58
1, 117978, Note_on_c, 0, 66, 56
1, 117980, Control_c, 0, 67, 46
1, 117995, Control_c, 0, 67, 45
1, 118010, Control_c, 0, 67, 45
1, 118024, Control_c, 0, 67, 44
1, 118039, Control_c, 0, 67, 42
1, 118054, Control_c, 0, 67, 40
1, 118069, Control_c, 0, 67, 38
1, 118073, Note_off_c, 0, 51, 61
1, 118083, Control_c, 0, 67, 35
1, 118098, Control_c, 0, 67, 32
1, 118107, Note_on_c, 0, 44, 44
1, 118113, Control_c, 0, 67, 30
1, 118128, Control_c, 0, 67, 29
1, 118142, Control_c, 0, 67, 27
1, 118157, Control_c, 0, 67, 24
1, 118172, Control_c, 0, 67, 20
1, 118187, Control_c, 0, 67, 16
1, 118202, Control_c, 0, 67, 11
1, 118208, Note_off_c, 0, 66, 61
1, 118216, Control_c, 0, 67, 0
1, 118221, Note_on_c, 0, 65, 55
1, 118223, Note_on_c, 0, 49, 47
1, 118224, Note_off_c, 0, 44, 55
1, 118313, Note_off_c, 0, 65, 63
1, 118318, Note_off_c, 0, 49, 60
1, 118331, Note_on_c, 0, 63, 55
1, 118343, Note_on_c, 0, 48, 43
1, 118419, Note_off_c, 0, 63, 62
1, 118442, Note_off_c, 0, 48, 53
1, 118449, Note_on_c, 0, 65, 58
1, 118450, Note_on_c, 0, 49, 45
1, 118548, Note_off_c, 0, 65, 58
1, 118559, Note_on_c, 0, 68, 63
1, 118570, Note_off_c, 0, 49, 51
1, 118576, Note_on_c, 0, 44, 44
1, 118658, Note_on_c, 0, 70, 66
1, 118671, Note_on_c, 0, 53, 50
1, 118673, Note_off_c, 0, 68, 58
1, 118676, Note_off_c, 0, 44, 56
1, 118724, Note_off_c, 0, 70, 63
1, 118753, Note_on_c, 0, 72, 74
1, 118759, Control_c, 0, 64, 32
1, 118759, Note_off_c, 0, 53, 61
1, 118765, Note_on_c, 0, 51, 62
1, 118774, Control_c, 0, 64, 30
1, 118788, Control_c, 0, 64, 28
1, 118803, Control_c, 0, 64, 21
1, 118818, Control_c, 0, 64, 0
1, 118848, Note_on_c, 0, 73, 76
1, 118850, Note_off_c, 0, 72, 59
1, 118870, Note_on_c, 0, 53, 60
1, 118875, Note_off_c, 0, 51, 59
1, 118939, Note_on_c, 0, 75, 80
1, 118944, Note_off_c, 0, 53, 63
1, 118958, Note_off_c, 0, 73, 57
1, 118959, Note_on_c, 0, 44, 58
1, 119047, Note_on_c, 0, 77, 82
1, 119058, Note_off_c, 0, 75, 60
1, 119065, Note_on_c, 0, 56, 67
1, 119093, Note_off_c, 0, 44, 51
1, 119140, Note_off_c, 0, 56, 62
1, 119141, Note_on_c, 0, 75, 79
1, 119147, Note_on_c, 0, 54, 69
1, 119151, Note_off_c, 0, 77, 54
1, 119230, Note_off_c, 0, 75, 58
1, 119238, Note_on_c, 0, 78, 80
1, 119242, Note_on_c, 0, 56, 75
1, 119242, Note_off_c, 0, 54, 64
1, 119327, Note_off_c, 0, 56, 62
1, 119331, Note_off_c, 0, 78, 53
1, 119334, Note_on_c, 0, 77, 82
1, 119352, Note_on_c, 0, 44, 66
1, 119415, Note_off_c, 0, 44, 63
1, 119435, Note_on_c, 0, 75, 84
1, 119436, Note_off_c, 0, 77, 59
1, 119446, Note_on_c, 0, 58, 75
1, 119462, Control_c, 0, 64, 13
1, 119477, Control_c, 0, 64, 30
1, 119492, Control_c, 0, 64, 38
1, 119507, Control_c, 0, 64, 41
1, 119508, Note_off_c, 0, 75, 62
1, 119513, Note_off_c, 0, 58, 63
1, 119522, Control_c, 0, 64, 42
1, 119543, Note_on_c, 0, 73, 81
1, 119544, Note_on_c, 0, 44, 69
1, 119567, Control_c, 0, 64, 44
1, 119582, Control_c, 0, 64, 49
1, 119588, Note_off_c, 0, 44, 63
1, 119596, Control_c, 0, 64, 53
1, 119611, Control_c, 0, 64, 56
1, 119626, Control_c, 0, 64, 58
1, 119641, Control_c, 0, 64, 59
1, 119655, Note_on_c, 0, 60, 73
1, 119658, Note_off_c, 0, 73, 61
1, 119669, Note_on_c, 0, 82, 78
1, 119670, Control_c, 0, 64, 58
1, 119685, Control_c, 0, 64, 55
1, 119700, Control_c, 0, 64, 51
1, 119715, Control_c, 0, 64, 46
1, 119730, Control_c, 0, 64, 42
1, 119744, Control_c, 0, 64, 40
1, 119767, Control_c, 0, 64, 42
1, 119775, Note_on_c, 0, 80, 79
1, 119775, Note_off_c, 0, 82, 62
1, 119781, Control_c, 0, 64, 48
1, 119796, Control_c, 0, 64, 53
1, 119811, Control_c, 0, 64, 56
1, 119826, Control_c, 0, 64, 58
1, 119830, Note_off_c, 0, 80, 64
1, 119831, Note_on_c, 0, 61, 68
1, 119832, Note_off_c, 0, 60, 61
1, 119841, Control_c, 0, 64, 58
1, 119841, Note_on_c, 0, 79, 79
1, 119886, Control_c, 0, 64, 57
1, 119901, Control_c, 0, 64, 56
1, 119904, Note_off_c, 0, 79, 66
1, 119905, Note_on_c, 0, 80, 80
1, 119916, Control_c, 0, 64, 54
1, 119931, Control_c, 0, 64, 52
1, 119945, Control_c, 0, 64, 51
1, 119960, Note_off_c, 0, 80, 64
1, 119960, Control_c, 0, 64, 50
1, 119967, Note_on_c, 0, 63, 72
1, 119974, Note_on_c, 0, 82, 76
1, 119975, Control_c, 0, 64, 48
1, 119977, Note_off_c, 0, 61, 60
1, 119989, Control_c, 0, 64, 46
1, 120004, Control_c, 0, 64, 45
1, 120027, Note_on_c, 0, 80, 77
1, 120029, Note_off_c, 0, 82, 64
1, 120077, Note_off_c, 0, 80, 62
1, 120085, Note_on_c, 0, 82, 69
1, 120086, Note_off_c, 0, 63, 62
1, 120091, Note_on_c, 0, 60, 72
1, 120093, Control_c, 0, 64, 46
1, 120123, Control_c, 0, 64, 46
1, 120128, Note_off_c, 0, 82, 65
1, 120139, Note_on_c, 0, 80, 66
1, 120152, Control_c, 0, 64, 47
1, 120174, Note_off_c, 0, 80, 64
1, 120186, Note_on_c, 0, 82, 68
1, 120203, Note_on_c, 0, 56, 71
1, 120203, Note_off_c, 0, 60, 61
1, 120226, Note_off_c, 0, 82, 65
1, 120240, Note_on_c, 0, 80, 68
1, 120273, Note_off_c, 0, 80, 61
1, 120283, Note_on_c, 0, 82, 64
1, 120300, Control_c, 0, 64, 47
1, 120315, Note_on_c, 0, 60, 74
1, 120318, Note_off_c, 0, 82, 66
1, 120332, Note_on_c, 0, 80, 69
1, 120336, Note_off_c, 0, 56, 60
1, 120366, Note_off_c, 0, 80, 64
1, 120376, Note_on_c, 0, 82, 73
1, 120413, Note_on_c, 0, 63, 69
1, 120417, Note_off_c, 0, 82, 63
1, 120431, Note_on_c, 0, 80, 70
1, 120449, Control_c, 0, 64, 48
1, 120463, Note_off_c, 0, 80, 62
1, 120464, Control_c, 0, 64, 48
1, 120470, Note_off_c, 0, 60, 62
1, 120473, Note_on_c, 0, 82, 67
1, 120479, Control_c, 0, 64, 50
1, 120494, Control_c, 0, 64, 54
1, 120516, Control_c, 0, 64, 58
1, 120517, Note_off_c, 0, 82, 64
1, 120521, Note_on_c, 0, 65, 75
1, 120527, Note_off_c, 0, 63, 62
1, 120531, Control_c, 0, 64, 61
1, 120533, Note_on_c, 0, 80, 64
1, 120546, Control_c, 0, 64, 63
1, 120561, Control_c, 0, 64, 65
1, 120565, Note_off_c, 0, 80, 66
1, 120575, Control_c, 0, 64, 67
1, 120576, Note_on_c, 0, 82, 70
1, 120590, Control_c, 0, 64, 69
1, 120605, Control_c, 0, 64, 70
1, 120615, Note_off_c, 0, 82, 61
1, 120625, Note_on_c, 0, 80, 67
1, 120625, Note_on_c, 0, 66, 81
1, 120634, Control_c, 0, 64, 69
1, 120637, Note_off_c, 0, 65, 61
1, 120649, Control_c, 0, 64, 67
1, 120652, Note_off_c, 0, 80, 68
1, 120664, Control_c, 0, 64, 66
1, 120679, Control_c, 0, 64, 63
1, 120694, Control_c, 0, 64, 61
1, 120709, Control_c, 0, 64, 57
1, 120723, Control_c, 0, 64, 51
1, 120729, Note_off_c, 0, 66, 60
1, 120735, Note_on_c, 0, 80, 75
1, 120738, Control_c, 0, 64, 42
1, 120742, Note_on_c, 0, 65, 82
1, 120753, Control_c, 0, 64, 31
1, 120768, Control_c, 0, 64, 22
1, 120783, Control_c, 0, 64, 17
1, 120798, Control_c, 0, 64, 15
1, 120840, Note_off_c, 0, 65, 56
1, 120842, Note_on_c, 0, 63, 78
1, 120842, Note_on_c, 0, 78, 80
1, 120854, Note_off_c, 0, 80, 60
1, 120916, Control_c, 0, 64, 16
1, 120919, Note_off_c, 0, 63, 63
1, 120931, Control_c, 0, 64, 17
1, 120932, Note_on_c, 0, 65, 84
1, 120938, Note_on_c, 0, 80, 84
1, 120945, Control_c, 0, 64, 19
1, 120960, Control_c, 0, 64, 20
1, 120964, Note_off_c, 0, 78, 58
1, 120975, Control_c, 0, 64, 21
1, 120990, Control_c, 0, 64, 21
1, 121012, Note_off_c, 0, 65, 51
1, 121019, Control_c, 0, 64, 22
1, 121049, Control_c, 0, 64, 23
1, 121050, Note_on_c, 0, 77, 73
1, 121054, Note_on_c, 0, 73, 83
1, 121054, Note_off_c, 0, 80, 62
1, 121084, Note_off_c, 0, 73, 65
1, 121109, Note_off_c, 0, 77, 60
1, 121124, Control_c, 0, 64, 23
1, 121153, Note_on_c, 0, 80, 67
1, 121266, Note_off_c, 0, 80, 62
1, 121269, Note_on_c, 0, 75, 71
1, 121272, Note_on_c, 0, 68, 83
1, 121305, Note_off_c, 0, 68, 64
1, 121364, Note_off_c, 0, 75, 61
1, 121376, Note_on_c, 0, 80, 70
1, 121457, Control_c, 0, 64, 24
1, 121472, Control_c, 0, 64, 32
1, 121487, Note_on_c, 0, 73, 66
1, 121487, Control_c, 0, 64, 47
1, 121491, Note_on_c, 0, 65, 81
1, 121491, Note_off_c, 0, 80, 61
1, 121502, Control_c, 0, 64, 58
1, 121516, Control_c, 0, 64, 63
1, 121531, Control_c, 0, 64, 70
1, 121545, Note_off_c, 0, 65, 62
1, 121546, Control_c, 0, 64, 81
1, 121561, Control_c, 0, 64, 100
1, 121576, Control_c, 0, 64, 127
1, 121612, Note_on_c, 0, 80, 63
1, 121621, Control_c, 0, 64, 119
1, 121626, Note_off_c, 0, 73, 57
1, 121635, Control_c, 0, 64, 110
1, 121650, Control_c, 0, 64, 109
1, 121680, Control_c, 0, 64, 107
1, 121695, Control_c, 0, 64, 103
1, 121700, Note_off_c, 0, 80, 55
1, 121709, Control_c, 0, 64, 95
1, 121724, Control_c, 0, 64, 85
1, 121731, Note_on_c, 0, 63, 69
1, 121731, Note_on_c, 0, 72, 68
1, 121739, Control_c, 0, 64, 77
1, 121754, Control_c, 0, 64, 70
1, 121768, Control_c, 0, 64, 64
1, 121783, Control_c, 0, 64, 59
1, 121798, Control_c, 0, 64, 51
1, 121813, Control_c, 0, 64, 43
1, 121820, Note_off_c, 0, 72, 64
1, 121826, Note_off_c, 0, 63, 62
1, 121828, Note_on_c, 0, 61, 68
1, 121828, Control_c, 0, 64, 40
1, 121829, Note_on_c, 0, 70, 67
1, 121843, Control_c, 0, 64, 37
1, 121858, Control_c, 0, 64, 35
1, 121873, Control_c, 0, 64, 34
1, 121888, Control_c, 0, 64, 33
1, 121904, Control_c, 0, 64, 32
1, 121914, Note_off_c, 0, 70, 62
1, 121942, Note_on_c, 0, 63, 66
1, 121942, Note_on_c, 0, 72, 69
1, 121943, Note_off_c, 0, 61, 56
1, 122039, Note_on_c, 0, 56, 67
1, 122044, Note_off_c, 0, 72, 58
1, 122044, Control_c, 0, 64, 33
1, 122048, Note_off_c, 0, 63, 58
1, 122053, Note_on_c, 0, 75, 73
1, 122089, Control_c, 0, 64, 33
1, 122140, Note_on_c, 0, 60, 70
1, 122143, Note_off_c, 0, 56, 57
1, 122151, Note_on_c, 0, 77, 76
1, 122166, Note_off_c, 0, 75, 59
1, 122241, Note_on_c, 0, 63, 73
1, 122241, Note_on_c, 0, 78, 78
1, 122244, Note_off_c, 0, 77, 58
1, 122246, Note_off_c, 0, 60, 62
1, 122280, Control_c, 0, 64, 34
1, 122330, Note_off_c, 0, 78, 61
1, 122338, Note_off_c, 0, 63, 60
1, 122348, Note_on_c, 0, 80, 68
1, 122350, Note_on_c, 0, 65, 70
1, 122369, Control_c, 0, 64, 34
1, 122443, Note_on_c, 0, 78, 71
1, 122449, Note_on_c, 0, 63, 72
1, 122452, Note_off_c, 0, 65, 60
1, 122458, Control_c, 0, 64, 35
1, 122473, Note_off_c, 0, 80, 52
1, 122533, Note_off_c, 0, 78, 60
1, 122539, Note_on_c, 0, 77, 68
1, 122547, Note_off_c, 0, 63, 61
1, 122559, Note_on_c, 0, 61, 68
1, 122610, Note_off_c, 0, 77, 61
1, 122636, Note_on_c, 0, 80, 59
1, 122646, Note_off_c, 0, 61, 61
1, 122655, Note_on_c, 0, 63, 65
1, 122725, Note_off_c, 0, 80, 61
1, 122730, Note_off_c, 0, 63, 62
1, 122753, Note_on_c, 0, 72, 71
1, 122762, Note_on_c, 0, 75, 51
1, 122791, Note_off_c, 0, 72, 64
1, 122797, Note_off_c, 0, 75, 47
1, 122858, Note_on_c, 0, 80, 57
1, 122966, Note_off_c, 0, 80, 61
1, 122978, Note_on_c, 0, 68, 75
1, 122986, Note_on_c, 0, 73, 55
1, 123005, Note_off_c, 0, 68, 67
1, 123067, Note_off_c, 0, 73, 59
1, 123087, Note_on_c, 0, 80, 59
1, 123190, Note_off_c, 0, 80, 58
1, 123199, Note_on_c, 0, 63, 66
1, 123202, Note_on_c, 0, 72, 56
1, 123206, Control_c, 0, 64, 41
1, 123221, Control_c, 0, 64, 53
1, 123236, Control_c, 0, 64, 60
1, 123248, Note_off_c, 0, 63, 59
1, 123251, Control_c, 0, 64, 64
1, 123266, Control_c, 0, 64, 68
1, 123280, Control_c, 0, 64, 74
1, 123290, Note_off_c, 0, 72, 60
1, 123295, Control_c, 0, 64, 81
1, 123307, Note_on_c, 0, 80, 62
1, 123310, Control_c, 0, 64, 87
1, 123325, Control_c, 0, 64, 89
1, 123369, Control_c, 0, 64, 89
1, 123384, Control_c, 0, 64, 87
1, 123399, Control_c, 0, 64, 85
1, 123413, Control_c, 0, 64, 80
1, 123428, Control_c, 0, 64, 74
1, 123434, Note_on_c, 0, 61, 60
1, 123440, Note_on_c, 0, 70, 60
1, 123443, Control_c, 0, 64, 68
1, 123458, Note_off_c, 0, 80, 35
1, 123458, Control_c, 0, 64, 63
1, 123473, Control_c, 0, 64, 58
1, 123487, Control_c, 0, 64, 52
1, 123511, Control_c, 0, 64, 48
1, 123519, Note_off_c, 0, 61, 61
1, 123525, Control_c, 0, 64, 46
1, 123526, Note_off_c, 0, 70, 62
1, 123540, Note_on_c, 0, 68, 62
1, 123540, Control_c, 0, 64, 45
1, 123545, Note_on_c, 0, 60, 62
1, 123629, Note_off_c, 0, 60, 54
1, 123636, Note_off_c, 0, 68, 56
1, 123645, Note_on_c, 0, 70, 63
1, 123647, Note_on_c, 0, 61, 56
1, 123713, Note_off_c, 0, 61, 56
1, 123734, Control_c, 0, 64, 45
1, 123743, Note_on_c, 0, 56, 51
1, 123743, Note_on_c, 0, 73, 65
1, 123746, Note_off_c, 0, 70, 53
1, 123837, Control_c, 0, 64, 44
1, 123845, Note_on_c, 0, 75, 67
1, 123850, Note_off_c, 0, 56, 56
1, 123851, Note_on_c, 0, 60, 58
1, 123870, Note_off_c, 0, 73, 33
1, 123918, Note_off_c, 0, 75, 61
1, 123930, Note_off_c, 0, 60, 52
1, 123946, Note_on_c, 0, 77, 67
1, 123970, Note_on_c, 0, 61, 48
1, 123971, Control_c, 0, 64, 44
1, 124038, Note_off_c, 0, 77, 55
1, 124043, Note_off_c, 0, 61, 60
1, 124050, Note_on_c, 0, 78, 66
1, 124058, Note_on_c, 0, 63, 53
1, 124118, Note_off_c, 0, 78, 54
1, 124135, Note_off_c, 0, 63, 59
1, 124156, Note_on_c, 0, 77, 63
1, 124160, Note_on_c, 0, 61, 61
1, 124235, Note_off_c, 0, 61, 58
1, 124237, Note_off_c, 0, 77, 59
1, 124265, Note_on_c, 0, 75, 63
1, 124267, Note_on_c, 0, 60, 62
1, 124329, Note_off_c, 0, 75, 53
1, 124359, Note_off_c, 0, 60, 62
1, 124367, Note_on_c, 0, 77, 64
1, 124375, Note_on_c, 0, 61, 59
1, 124423, Note_off_c, 0, 61, 58
1, 124459, Note_off_c, 0, 77, 55
1, 124482, Note_on_c, 0, 73, 51
1, 124488, Note_on_c, 0, 70, 66
1, 124518, Note_off_c, 0, 70, 67
1, 124575, Note_off_c, 0, 73, 58
1, 124580, Note_on_c, 0, 75, 55
1, 124664, Note_off_c, 0, 75, 60
1, 124703, Note_on_c, 0, 67, 66
1, 124706, Note_on_c, 0, 72, 56
1, 124730, Note_off_c, 0, 67, 67
1, 124733, Control_c, 0, 64, 43
1, 124786, Note_off_c, 0, 72, 51
1, 124807, Note_on_c, 0, 75, 56
1, 124852, Control_c, 0, 64, 43
1, 124882, Control_c, 0, 64, 42
1, 124912, Control_c, 0, 64, 43
1, 124920, Note_off_c, 0, 75, 58
1, 124924, Note_on_c, 0, 61, 52
1, 124926, Control_c, 0, 64, 49
1, 124941, Control_c, 0, 64, 58
1, 124943, Note_on_c, 0, 70, 52
1, 124956, Control_c, 0, 64, 63
1, 124971, Control_c, 0, 64, 67
1, 124985, Control_c, 0, 64, 75
1, 125005, Note_off_c, 0, 61, 60
1, 125007, Control_c, 0, 64, 87
1, 125022, Control_c, 0, 64, 102
1, 125037, Control_c, 0, 64, 110
1, 125045, Note_off_c, 0, 70, 38
1, 125052, Control_c, 0, 64, 110
1, 125053, Note_on_c, 0, 75, 62
1, 125067, Control_c, 0, 64, 107
1, 125082, Control_c, 0, 64, 102
1, 125096, Control_c, 0, 64, 98
1, 125111, Control_c, 0, 64, 94
1, 125127, Control_c, 0, 64, 88
1, 125142, Control_c, 0, 64, 79
1, 125156, Control_c, 0, 64, 68
1, 125171, Note_on_c, 0, 68, 56
1, 125171, Control_c, 0, 64, 58
1, 125186, Note_on_c, 0, 60, 54
1, 125186, Control_c, 0, 64, 46
1, 125189, Note_off_c, 0, 75, 36
1, 125201, Control_c, 0, 64, 38
1, 125231, Control_c, 0, 64, 41
1, 125231, Note_off_c, 0, 60, 57
1, 125239, Note_off_c, 0, 68, 57
1, 125245, Control_c, 0, 64, 48
1, 125260, Control_c, 0, 64, 55
1, 125266, Note_on_c, 0, 67, 64
1, 125275, Control_c, 0, 64, 58
1, 125284, Note_on_c, 0, 58, 54
1, 125290, Control_c, 0, 64, 61
1, 125305, Control_c, 0, 64, 64
1, 125320, Control_c, 0, 64, 65
1, 125334, Note_off_c, 0, 58, 63
1, 125335, Control_c, 0, 64, 66
1, 125344, Note_off_c, 0, 67, 56
1, 125366, Note_on_c, 0, 68, 65
1, 125379, Control_c, 0, 64, 66
1, 125387, Note_on_c, 0, 60, 55
1, 125394, Control_c, 0, 64, 65
1, 125408, Control_c, 0, 64, 64
1, 125423, Control_c, 0, 64, 63
1, 125438, Control_c, 0, 64, 62
1, 125443, Note_off_c, 0, 60, 52
1, 125443, Note_off_c, 0, 68, 62
1, 125453, Control_c, 0, 64, 60
1, 125468, Control_c, 0, 64, 58
1, 125478, Note_on_c, 0, 72, 73
1, 125482, Control_c, 0, 64, 56
1, 125484, Note_on_c, 0, 56, 53
1, 125497, Control_c, 0, 64, 54
1, 125512, Control_c, 0, 64, 50
1, 125527, Control_c, 0, 64, 46
1, 125542, Control_c, 0, 64, 42
1, 125556, Control_c, 0, 64, 39
1, 125571, Control_c, 0, 64, 38
1, 125578, Note_off_c, 0, 72, 63
1, 125581, Note_on_c, 0, 73, 72
1, 125586, Control_c, 0, 64, 37
1, 125594, Note_on_c, 0, 58, 62
1, 125600, Control_c, 0, 64, 36
1, 125614, Note_off_c, 0, 56, 56
1, 125662, Note_off_c, 0, 58, 62
1, 125673, Note_on_c, 0, 75, 75
1, 125690, Note_on_c, 0, 60, 60
1, 125693, Note_off_c, 0, 73, 60
1, 125758, Note_off_c, 0, 75, 61
1, 125772, Note_off_c, 0, 60, 61
1, 125788, Note_on_c, 0, 61, 57
1, 125788, Note_on_c, 0, 77, 76
1, 125873, Note_off_c, 0, 61, 55
1, 125883, Note_off_c, 0, 77, 60
1, 125888, Note_on_c, 0, 78, 79
1, 125891, Note_on_c, 0, 63, 58
1, 125976, Note_off_c, 0, 63, 62
1, 125985, Note_on_c, 0, 80, 79
1, 125990, Note_on_c, 0, 65, 65
1, 125991, Note_off_c, 0, 78, 63
1, 126072, Note_off_c, 0, 65, 61
1, 126086, Note_on_c, 0, 82, 79
1, 126093, Note_on_c, 0, 63, 56
1, 126114, Note_off_c, 0, 80, 61
1, 126163, Note_off_c, 0, 82, 63
1, 126176, Note_off_c, 0, 63, 59
1, 126184, Note_on_c, 0, 72, 76
1, 126203, Note_on_c, 0, 66, 57
1, 126208, Note_off_c, 0, 72, 71
1, 126271, Note_off_c, 0, 66, 51
1, 126289, Note_on_c, 0, 65, 59
1, 126368, Note_off_c, 0, 65, 62
1, 126384, Note_on_c, 0, 63, 58
1, 126400, Note_on_c, 0, 68, 75
1, 126430, Note_off_c, 0, 68, 62
1, 126474, Note_off_c, 0, 63, 62
1, 126489, Note_on_c, 0, 61, 56
1, 126584, Note_off_c, 0, 61, 49
1, 126589, Note_on_c, 0, 66, 56
1, 126620, Note_on_c, 0, 70, 73
1, 126659, Note_off_c, 0, 66, 59
1, 126718, Note_off_c, 0, 70, 63
1, 126719, Note_on_c, 0, 68, 80
1, 126804, Note_off_c, 0, 68, 61
1, 126827, Note_on_c, 0, 66, 74
1, 126830, Note_on_c, 0, 58, 61
1, 126909, Note_off_c, 0, 66, 59
1, 126913, Note_on_c, 0, 68, 82
1, 126914, Note_off_c, 0, 58, 60
1, 126917, Note_on_c, 0, 60, 71
1, 127006, Note_off_c, 0, 60, 61
1, 127016, Note_on_c, 0, 77, 83
1, 127017, Note_on_c, 0, 61, 69
1, 127022, Note_off_c, 0, 68, 62
1, 127046, Note_off_c, 0, 77, 65
1, 127101, Note_off_c, 0, 61, 59
1, 127118, Note_on_c, 0, 60, 66
1, 127143, Control_c, 0, 64, 37
1, 127207, Note_off_c, 0, 60, 63
1, 127218, Note_on_c, 0, 58, 64
1, 127223, Note_on_c, 0, 73, 82
1, 127260, Note_off_c, 0, 73, 61
1, 127326, Note_off_c, 0, 58, 62
1, 127332, Note_on_c, 0, 56, 60
1, 127343, Control_c, 0, 64, 37
1, 127433, Note_off_c, 0, 56, 64
1, 127450, Note_on_c, 0, 58, 66
1, 127453, Note_on_c, 0, 68, 79
1, 127492, Control_c, 0, 64, 38
1, 127582, Control_c, 0, 64, 38
1, 127714, Note_on_c, 0, 66, 70
1, 127717, Note_off_c, 0, 68, 60
1, 127791, Note_off_c, 0, 66, 59
1, 127801, Note_on_c, 0, 65, 76
1, 127893, Note_off_c, 0, 65, 61
1, 127898, Note_on_c, 0, 66, 74
1, 127925, Note_off_c, 0, 66, 65
1, 127937, Control_c, 0, 64, 38
1, 128011, Note_off_c, 0, 58, 61
1, 128018, Note_on_c, 0, 56, 60
1, 128100, Note_off_c, 0, 56, 64
1, 128109, Note_on_c, 0, 54, 61
1, 128118, Note_on_c, 0, 75, 80
1, 128147, Note_off_c, 0, 75, 63
1, 128190, Note_off_c, 0, 54, 60
1, 128208, Note_on_c, 0, 58, 63
1, 128295, Note_off_c, 0, 58, 57
1, 128305, Note_on_c, 0, 56, 62
1, 128321, Note_on_c, 0, 65, 77
1, 128351, Note_off_c, 0, 65, 64
1, 128402, Note_off_c, 0, 56, 63
1, 128418, Note_on_c, 0, 54, 56
1, 128513, Note_off_c, 0, 54, 61
1, 128529, Note_on_c, 0, 73, 75
1, 128533, Note_on_c, 0, 53, 55
1, 128569, Note_off_c, 0, 73, 64
1, 128590, Note_off_c, 0, 53, 59
1, 128629, Note_on_c, 0, 56, 56
1, 128734, Note_off_c, 0, 56, 56
1, 128751, Note_on_c, 0, 63, 68
1, 128755, Note_on_c, 0, 54, 55
1, 128787, Note_off_c, 0, 63, 63
1, 128831, Note_off_c, 0, 54, 63
1, 128852, Note_on_c, 0, 53, 52
1, 128946, Note_off_c, 0, 53, 59
1, 128966, Note_on_c, 0, 72, 66
1, 128967, Note_on_c, 0, 54, 53
1, 129010, Note_off_c, 0, 72, 63
1, 129058, Note_off_c, 0, 54, 59
1, 129076, Note_on_c, 0, 51, 53
1, 129180, Note_off_c, 0, 51, 54
1, 129227, Control_c, 0, 64, 42
1, 129228, Note_on_c, 0, 53, 43
1, 129233, Note_on_c, 0, 61, 55
1, 129241, Control_c, 0, 64, 49
1, 129256, Control_c, 0, 64, 57
1, 129271, Control_c, 0, 64, 63
1, 129278, Note_off_c, 0, 61, 60
1, 129286, Control_c, 0, 64, 67
1, 129301, Control_c, 0, 64, 72
1, 129315, Control_c, 0, 64, 83
1, 129330, Control_c, 0, 64, 95
1, 129345, Control_c, 0, 64, 101
1, 129360, Control_c, 0, 64, 100
1, 129375, Control_c, 0, 64, 97
1, 129390, Control_c, 0, 64, 93
1, 129404, Control_c, 0, 64, 91
1, 129419, Control_c, 0, 64, 91
1, 129449, Control_c, 0, 64, 88
1, 129463, Control_c, 0, 64, 84
1, 129478, Control_c, 0, 64, 79
1, 129485, Note_on_c, 0, 73, 59
1, 129501, Control_c, 0, 64, 75
1, 129516, Control_c, 0, 64, 71
1, 129530, Control_c, 0, 64, 67
1, 129535, Note_off_c, 0, 73, 58
1, 129545, Control_c, 0, 64, 64
1, 129560, Control_c, 0, 64, 62
1, 129564, Note_off_c, 0, 53, 58
1, 129575, Control_c, 0, 64, 59
1, 129580, Note_on_c, 0, 72, 62
1, 129590, Control_c, 0, 64, 56
1, 129596, Note_on_c, 0, 56, 51
1, 129604, Control_c, 0, 64, 52
1, 129619, Control_c, 0, 64, 47
1, 129634, Control_c, 0, 64, 43
1, 129648, Control_c, 0, 64, 39
1, 129663, Control_c, 0, 64, 38
1, 129669, Note_off_c, 0, 72, 61
1, 129678, Control_c, 0, 64, 38
1, 129688, Note_on_c, 0, 73, 56
1, 129693, Note_off_c, 0, 56, 58
1, 129693, Control_c, 0, 64, 37
1, 129696, Note_on_c, 0, 58, 56
1, 129767, Note_off_c, 0, 58, 63
1, 129785, Note_on_c, 0, 75, 60
1, 129785, Note_off_c, 0, 73, 62
1, 129792, Note_on_c, 0, 60, 61
1, 129837, Note_off_c, 0, 75, 57
1, 129871, Control_c, 0, 64, 37
1, 129874, Note_off_c, 0, 60, 58
1, 129888, Note_on_c, 0, 61, 60
1, 129891, Note_on_c, 0, 77, 64
1, 129917, Control_c, 0, 64, 38
1, 129964, Note_off_c, 0, 77, 58
1, 129986, Note_on_c, 0, 63, 65
1, 129988, Note_on_c, 0, 78, 63
1, 129991, Control_c, 0, 64, 38
1, 130050, Control_c, 0, 64, 39
1, 130084, Note_off_c, 0, 78, 63
1, 130087, Note_on_c, 0, 65, 71
1, 130089, Note_off_c, 0, 63, 57
1, 130091, Note_off_c, 0, 61, 56
1, 130094, Note_on_c, 0, 80, 61
1, 130167, Note_off_c, 0, 80, 53
1, 130178, Note_off_c, 0, 65, 61
1, 130189, Note_on_c, 0, 63, 72
1, 130189, Note_on_c, 0, 78, 69
1, 130274, Note_off_c, 0, 78, 61
1, 130279, Note_off_c, 0, 63, 61
1, 130289, Note_on_c, 0, 61, 75
1, 130293, Note_on_c, 0, 77, 65
1, 130364, Note_off_c, 0, 77, 59
1, 130376, Note_off_c, 0, 61, 61
1, 130380, Note_on_c, 0, 63, 74
1, 130382, Note_on_c, 0, 78, 69
1, 130427, Control_c, 0, 64, 39
1, 130462, Note_off_c, 0, 63, 61
1, 130474, Note_off_c, 0, 78, 60
1, 130483, Note_on_c, 0, 72, 80
1, 130484, Note_on_c, 0, 80, 63
1, 130494, Note_on_c, 0, 60, 62
1, 130513, Note_off_c, 0, 72, 62
1, 130546, Control_c, 0, 64, 39
1, 130560, Control_c, 0, 64, 38
1, 130575, Control_c, 0, 64, 36
1, 130579, Note_off_c, 0, 80, 60
1, 130590, Control_c, 0, 64, 32
1, 130595, Note_on_c, 0, 78, 64
1, 130605, Control_c, 0, 64, 26
1, 130620, Control_c, 0, 64, 13
1, 130635, Control_c, 0, 64, 0
1, 130675, Note_off_c, 0, 78, 62
1, 130705, Note_on_c, 0, 68, 76
1, 130706, Note_on_c, 0, 77, 65
1, 130739, Note_off_c, 0, 68, 64
1, 130796, Note_off_c, 0, 77, 59
1, 130808, Note_on_c, 0, 75, 63
1, 130931, Note_on_c, 0, 77, 72
1, 130936, Note_off_c, 0, 75, 61
1, 130937, Note_on_c, 0, 63, 72
1, 131056, Note_off_c, 0, 60, 41
1, 131207, Note_off_c, 0, 63, 61
1, 131214, Note_on_c, 0, 61, 65
1, 131291, Note_off_c, 0, 61, 61
1, 131300, Note_on_c, 0, 60, 70
1, 131399, Note_on_c, 0, 58, 55
1, 131400, Note_on_c, 0, 61, 74
1, 131402, Note_off_c, 0, 60, 62
1, 131452, Note_off_c, 0, 61, 59
1, 131518, Note_on_c, 0, 75, 57
1, 131518, Note_off_c, 0, 77, 52
1, 131612, Note_on_c, 0, 70, 74
1, 131613, Note_on_c, 0, 73, 63
1, 131634, Note_off_c, 0, 75, 45
1, 131637, Note_off_c, 0, 70, 69
1, 131694, Note_off_c, 0, 73, 55
1, 131713, Note_on_c, 0, 77, 63
1, 131809, Note_off_c, 0, 58, 51
1, 131830, Note_off_c, 0, 77, 55
1, 131832, Note_on_c, 0, 60, 71
1, 131837, Note_on_c, 0, 75, 61
1, 131869, Note_off_c, 0, 60, 65
1, 131921, Note_on_c, 0, 73, 64
1, 131923, Note_off_c, 0, 75, 57
1, 132005, Note_off_c, 0, 73, 61
1, 132036, Note_on_c, 0, 72, 63
1, 132037, Note_on_c, 0, 68, 77
1, 132044, Note_on_c, 0, 56, 62
1, 132064, Note_off_c, 0, 68, 64
1, 132087, Note_off_c, 0, 56, 65
1, 132120, Note_off_c, 0, 72, 51
1, 132136, Note_on_c, 0, 75, 67
1, 132230, Note_off_c, 0, 75, 51
1, 132239, Note_on_c, 0, 73, 67
1, 132252, Note_on_c, 0, 58, 66
1, 132286, Note_off_c, 0, 58, 66
1, 132333, Note_on_c, 0, 72, 71
1, 132344, Note_off_c, 0, 73, 43
1, 132400, Note_off_c, 0, 72, 63
1, 132445, Note_on_c, 0, 67, 58
1, 132448, Note_on_c, 0, 73, 65
1, 132456, Note_on_c, 0, 51, 63
1, 132492, Note_off_c, 0, 67, 61
1, 132499, Note_off_c, 0, 51, 64
1, 132536, Note_off_c, 0, 73, 65
1, 132548, Note_on_c, 0, 70, 62
1, 132659, Note_off_c, 0, 70, 61
1, 132670, Note_on_c, 0, 72, 65
1, 132683, Note_on_c, 0, 56, 49
1, 132699, Note_off_c, 0, 72, 67
1, 132891, Note_on_c, 0, 68, 44
1, 132893, Note_on_c, 0, 75, 69
1, 132927, Note_off_c, 0, 75, 62
1, 132948, Note_off_c, 0, 68, 57
1, 132977, Note_on_c, 0, 66, 55
1, 133011, Poly_aftertouch_c, 0, 58, 127
1, 133084, Note_off_c, 0, 66, 56
1, 133107, Note_on_c, 0, 78, 72
1, 133109, Note_on_c, 0, 68, 55
1, 133116, Poly_aftertouch_c, 0, 58, 0
1, 133144, Note_off_c, 0, 68, 64
1, 133163, Note_off_c, 0, 56, 53
1, 133210, Note_on_c, 0, 70, 48
1, 133324, Note_on_c, 0, 56, 67
1, 133324, Note_off_c, 0, 70, 60
1, 133327, Note_on_c, 0, 72, 60
1, 133352, Note_off_c, 0, 56, 66
1, 133380, Note_off_c, 0, 72, 62
1, 133426, Note_on_c, 0, 68, 57
1, 133530, Note_off_c, 0, 68, 56
1, 133534, Note_on_c, 0, 58, 67
1, 133538, Note_on_c, 0, 73, 58
1, 133619, Note_off_c, 0, 58, 63
1, 133622, Note_on_c, 0, 56, 71
1, 133623, Note_on_c, 0, 72, 66
1, 133628, Note_off_c, 0, 73, 52
1, 133709, Note_off_c, 0, 72, 60
1, 133717, Note_off_c, 0, 56, 62
1, 133721, Note_on_c, 0, 54, 77
1, 133734, Note_on_c, 0, 70, 61
1, 133789, Note_off_c, 0, 70, 58
1, 133800, Note_off_c, 0, 78, 55
1, 133810, Note_on_c, 0, 72, 74
1, 133812, Note_on_c, 0, 56, 78
1, 133816, Note_off_c, 0, 54, 64
1, 133875, Note_off_c, 0, 56, 62
1, 133892, Note_off_c, 0, 72, 60
1, 133926, Note_on_c, 0, 65, 73
1, 133929, Note_on_c, 0, 73, 62
1, 133929, Note_on_c, 0, 77, 74
1, 133956, Note_off_c, 0, 65, 65
1, 133975, Note_off_c, 0, 73, 59
1, 134031, Note_on_c, 0, 72, 64
1, 134102, Note_off_c, 0, 72, 62
1, 134140, Note_on_c, 0, 61, 79
1, 134158, Note_on_c, 0, 70, 63
1, 134169, Note_off_c, 0, 61, 65
1, 134236, Note_off_c, 0, 70, 60
1, 134254, Note_on_c, 0, 68, 66
1, 134376, Note_off_c, 0, 68, 58
1, 134378, Note_on_c, 0, 56, 75
1, 134383, Note_on_c, 0, 70, 67
1, 134634, Note_off_c, 0, 56, 64
1, 134638, Note_on_c, 0, 54, 67
1, 134725, Note_off_c, 0, 54, 63
1, 134728, Note_on_c, 0, 53, 75
1, 134816, Note_off_c, 0, 77, 57
1, 134832, Note_off_c, 0, 53, 62
1, 134832, Note_on_c, 0, 54, 78
1, 134842, Note_on_c, 0, 75, 71
1, 134862, Note_off_c, 0, 54, 69
1, 134862, Note_off_c, 0, 70, 63
1, 134957, Note_on_c, 0, 68, 55
1, 135039, Note_on_c, 0, 63, 75
1, 135041, Note_off_c, 0, 68, 58
1, 135048, Note_on_c, 0, 66, 64
1, 135064, Note_off_c, 0, 63, 68
1, 135143, Note_on_c, 0, 70, 61
1, 135154, Note_off_c, 0, 66, 53
1, 135247, Note_on_c, 0, 53, 76
1, 135255, Note_on_c, 0, 68, 66
1, 135267, Note_off_c, 0, 75, 57
1, 135280, Note_off_c, 0, 53, 66
1, 135315, Note_off_c, 0, 70, 49
1, 135336, Note_off_c, 0, 68, 47
1, 135352, Note_on_c, 0, 66, 62
1, 135412, Note_off_c, 0, 66, 56
1, 135447, Note_on_c, 0, 61, 76
1, 135450, Note_on_c, 0, 73, 77
1, 135456, Note_on_c, 0, 65, 62
1, 135472, Note_off_c, 0, 61, 68
1, 135497, Note_off_c, 0, 65, 63
1, 135521, Note_off_c, 0, 73, 42
1, 135551, Note_on_c, 0, 68, 65
1, 135593, Note_off_c, 0, 68, 60
1, 135655, Note_on_c, 0, 51, 61
1, 135661, Note_on_c, 0, 72, 68
1, 135670, Note_on_c, 0, 66, 51
1, 135694, Note_off_c, 0, 51, 59
1, 135707, Note_off_c, 0, 66, 59
1, 135726, Note_off_c, 0, 72, 61
1, 135753, Note_on_c, 0, 65, 57
1, 135839, Note_off_c, 0, 65, 61
1, 135868, Note_on_c, 0, 60, 52
1, 135871, Note_on_c, 0, 75, 70
1, 135888, Note_on_c, 0, 66, 49
1, 135902, Note_off_c, 0, 60, 62
1, 135969, Note_off_c, 0, 66, 60
1, 135981, Note_on_c, 0, 63, 54
1, 136036, Note_off_c, 0, 63, 57
1, 136131, Note_on_c, 0, 65, 56
1, 136144, Note_on_c, 0, 49, 42
1, 136254, Note_off_c, 0, 49, 60
1, 136261, Note_on_c, 0, 44, 51
1, 136376, Note_on_c, 0, 68, 72
1, 136387, Note_off_c, 0, 75, 58
1, 136388, Note_on_c, 0, 49, 54
1, 136390, Note_off_c, 0, 44, 59
1, 136444, Note_off_c, 0, 68, 62
1, 136492, Note_on_c, 0, 51, 70
1, 136524, Note_off_c, 0, 49, 57
1, 136596, Note_off_c, 0, 51, 63
1, 136604, Note_on_c, 0, 73, 78
1, 136615, Note_on_c, 0, 53, 63
1, 136728, Note_off_c, 0, 53, 61
1, 136728, Note_on_c, 0, 54, 65
1, 136809, Note_on_c, 0, 71, 77
1, 136827, Note_off_c, 0, 73, 64
1, 136839, Note_on_c, 0, 56, 63
1, 136847, Note_off_c, 0, 54, 60
1, 136864, Note_off_c, 0, 71, 66
1, 136910, Note_off_c, 0, 56, 62
1, 136919, Note_on_c, 0, 53, 64
1, 136996, Note_off_c, 0, 53, 62
1, 137026, Note_on_c, 0, 70, 75
1, 137028, Note_off_c, 0, 65, 62
1, 137043, Note_on_c, 0, 54, 57
1, 137136, Note_off_c, 0, 54, 59
1, 137145, Note_on_c, 0, 42, 58
1, 137203, Note_off_c, 0, 42, 60
1, 137252, Note_on_c, 0, 61, 62
1, 137260, Note_on_c, 0, 54, 53
1, 137294, Note_off_c, 0, 61, 58
1, 137358, Note_off_c, 0, 54, 49
1, 137361, Note_on_c, 0, 53, 54
1, 137437, Note_off_c, 0, 53, 59
1, 137467, Note_on_c, 0, 66, 64
1, 137479, Note_on_c, 0, 54, 59
1, 137565, Note_off_c, 0, 54, 61
1, 137577, Note_on_c, 0, 56, 57
1, 137679, Note_off_c, 0, 56, 59
1, 137680, Note_on_c, 0, 58, 64
1, 137680, Note_on_c, 0, 65, 66
1, 137700, Note_off_c, 0, 66, 60
1, 137755, Note_off_c, 0, 65, 55
1, 137792, Note_off_c, 0, 58, 62
1, 137794, Note_on_c, 0, 54, 62
1, 137902, Note_off_c, 0, 54, 64
1, 137903, Note_on_c, 0, 51, 55
1, 137920, Note_on_c, 0, 66, 71
1, 137958, Note_off_c, 0, 70, 57
1, 138032, Note_on_c, 0, 53, 67
1, 138052, Note_off_c, 0, 51, 64
1, 138144, Note_on_c, 0, 70, 76
1, 138146, Note_on_c, 0, 54, 63
1, 138149, Note_off_c, 0, 66, 63
1, 138150, Note_off_c, 0, 53, 61
1, 138234, Note_on_c, 0, 66, 75
1, 138251, Note_on_c, 0, 51, 67
1, 138258, Note_off_c, 0, 54, 62
1, 138282, Note_off_c, 0, 70, 58
1, 138335, Note_off_c, 0, 51, 64
1, 138340, Note_on_c, 0, 63, 76
1, 138350, Note_on_c, 0, 48, 61
1, 138355, Note_off_c, 0, 66, 62
1, 138439, Note_on_c, 0, 49, 67
1, 138444, Note_off_c, 0, 48, 60
1, 138549, Note_on_c, 0, 51, 69
1, 138551, Note_off_c, 0, 63, 59
1, 138555, Note_off_c, 0, 49, 60
1, 138556, Note_on_c, 0, 66, 76
1, 138641, Note_on_c, 0, 63, 81
1, 138652, Note_on_c, 0, 48, 63
1, 138657, Note_off_c, 0, 51, 63
1, 138673, Note_off_c, 0, 66, 57
1, 138733, Note_off_c, 0, 48, 63
1, 138746, Note_on_c, 0, 41, 65
1, 138746, Note_off_c, 0, 63, 58
1, 138756, Note_on_c, 0, 56, 77
1, 138792, Note_off_c, 0, 41, 64
1, 138978, Note_on_c, 0, 63, 71
1, 138981, Note_on_c, 0, 53, 61
1, 139013, Note_off_c, 0, 63, 65
1, 139038, Note_off_c, 0, 53, 51
1, 139065, Note_on_c, 0, 51, 70
1, 139172, Note_off_c, 0, 56, 62
1, 139181, Note_off_c, 0, 51, 65
1, 139192, Note_on_c, 0, 68, 78
1, 139213, Note_on_c, 0, 53, 53
1, 139287, Note_off_c, 0, 53, 57
1, 139305, Note_on_c, 0, 54, 58
1, 139420, Note_on_c, 0, 60, 67
1, 139422, Note_on_c, 0, 56, 57
1, 139423, Note_off_c, 0, 54, 60
1, 139457, Note_off_c, 0, 60, 62
1, 139494, Note_off_c, 0, 56, 63
1, 139519, Note_on_c, 0, 53, 51
1, 139644, Note_on_c, 0, 50, 48
1, 139647, Note_off_c, 0, 53, 58
1, 139662, Note_on_c, 0, 65, 61
1, 139680, Note_off_c, 0, 68, 55
1, 139748, Note_on_c, 0, 51, 57
1, 139761, Note_off_c, 0, 50, 48
1, 139852, Note_off_c, 0, 51, 60
1, 139860, Note_off_c, 0, 65, 61
1, 139876, Note_on_c, 0, 53, 51
1, 139876, Note_on_c, 0, 68, 63
1, 139956, Note_on_c, 0, 65, 69
1, 139959, Note_off_c, 0, 68, 61
1, 139965, Note_off_c, 0, 53, 61
1, 139996, Note_on_c, 0, 50, 41
1, 140053, Note_off_c, 0, 50, 62
1, 140069, Note_on_c, 0, 62, 65
1, 140069, Note_off_c, 0, 65, 60
1, 140076, Note_on_c, 0, 46, 57
1, 140163, Note_off_c, 0, 46, 58
1, 140174, Note_on_c, 0, 48, 52
1, 140239, Note_off_c, 0, 62, 51
1, 140256, Note_off_c, 0, 48, 59
1, 140269, Note_on_c, 0, 50, 55
1, 140279, Note_on_c, 0, 65, 63
1, 140350, Note_off_c, 0, 50, 58
1, 140363, Note_on_c, 0, 62, 66
1, 140365, Note_on_c, 0, 46, 49
1, 140365, Note_off_c, 0, 65, 61
1, 140451, Note_off_c, 0, 46, 63
1, 140457, Note_off_c, 0, 62, 60
1, 140481, Note_on_c, 0, 39, 49
1, 140483, Note_on_c, 0, 54, 65
1, 140517, Note_off_c, 0, 39, 64
1, 140698, Note_on_c, 0, 58, 60
1, 140701, Note_on_c, 0, 51, 55
1, 140745, Note_off_c, 0, 58, 65
1, 140795, Note_off_c, 0, 51, 63
1, 140805, Note_on_c, 0, 50, 60
1, 140910, Note_off_c, 0, 50, 60
1, 140916, Note_off_c, 0, 54, 57
1, 140920, Note_on_c, 0, 51, 61
1, 140928, Note_on_c, 0, 66, 65
1, 141008, Note_off_c, 0, 51, 62
1, 141014, Note_on_c, 0, 53, 66
1, 141124, Note_on_c, 0, 54, 67
1, 141128, Note_off_c, 0, 53, 60
1, 141138, Note_on_c, 0, 58, 63
1, 141186, Note_off_c, 0, 58, 56
1, 141226, Note_on_c, 0, 51, 67
1, 141244, Note_off_c, 0, 54, 61
1, 141325, Note_off_c, 0, 51, 63
1, 141328, Note_on_c, 0, 63, 68
1, 141330, Note_on_c, 0, 48, 62
1, 141369, Note_off_c, 0, 66, 52
1, 141427, Note_on_c, 0, 65, 76
1, 141435, Note_on_c, 0, 49, 66
1, 141438, Note_off_c, 0, 48, 62
1, 141444, Note_off_c, 0, 63, 61
1, 141536, Note_off_c, 0, 49, 61
1, 141539, Note_on_c, 0, 51, 68
1, 141543, Note_on_c, 0, 66, 76
1, 141552, Note_off_c, 0, 65, 61
1, 141613, Note_off_c, 0, 66, 61
1, 141639, Note_on_c, 0, 63, 75
1, 141651, Note_on_c, 0, 48, 61
1, 141653, Note_off_c, 0, 51, 62
1, 141763, Note_off_c, 0, 48, 62
1, 141766, Note_on_c, 0, 75, 86
1, 141771, Note_on_c, 0, 44, 61
1, 141808, Note_off_c, 0, 63, 47
1, 141887, Note_on_c, 0, 66, 74
1, 141892, Note_on_c, 0, 46, 64
1, 141904, Note_off_c, 0, 44, 57
1, 141992, Note_on_c, 0, 48, 62
1, 141995, Note_on_c, 0, 68, 76
1, 141995, Note_off_c, 0, 66, 59
1, 141997, Note_off_c, 0, 46, 61
1, 142077, Note_off_c, 0, 68, 62
1, 142078, Note_on_c, 0, 44, 65
1, 142083, Note_off_c, 0, 48, 60
1, 142091, Note_on_c, 0, 63, 76
1, 142173, Note_off_c, 0, 63, 62
1, 142216, Note_off_c, 0, 44, 57
1, 142219, Note_on_c, 0, 37, 59
1, 142241, Note_on_c, 0, 65, 76
1, 142308, Note_off_c, 0, 37, 61
1, 142338, Note_on_c, 0, 73, 77
1, 142366, Note_off_c, 0, 75, 38
1, 142438, Note_on_c, 0, 72, 80
1, 142455, Note_on_c, 0, 49, 67
1, 142460, Note_off_c, 0, 73, 62
1, 142522, Note_off_c, 0, 65, 41
1, 142537, Note_on_c, 0, 75, 89
1, 142551, Note_off_c, 0, 72, 61
1, 142552, Note_on_c, 0, 51, 71
1, 142563, Note_off_c, 0, 49, 52
1, 142634, Note_off_c, 0, 51, 65
1, 142642, Note_on_c, 0, 73, 79
1, 142645, Note_on_c, 0, 53, 73
1, 142663, Note_off_c, 0, 75, 56
1, 142678, Note_off_c, 0, 53, 66
1, 142716, Note_off_c, 0, 73, 63
1, 142740, Note_on_c, 0, 68, 80
1, 142845, Note_on_c, 0, 70, 78
1, 142848, Note_on_c, 0, 49, 59
1, 142849, Note_on_c, 0, 61, 76
1, 142854, Note_off_c, 0, 68, 60
1, 142889, Note_off_c, 0, 49, 63
1, 142919, Note_off_c, 0, 70, 58
1, 142945, Note_on_c, 0, 71, 81
1, 143051, Note_on_c, 0, 70, 80
1, 143060, Note_on_c, 0, 54, 59
1, 143086, Note_off_c, 0, 71, 55
1, 143097, Note_off_c, 0, 61, 56
1, 143155, Note_on_c, 0, 68, 80
1, 143158, Note_on_c, 0, 60, 62
1, 143162, Note_off_c, 0, 70, 57
1, 143236, Note_on_c, 0, 58, 71
1, 143238, Note_off_c, 0, 60, 63
1, 143244, Note_off_c, 0, 68, 57
1, 143253, Note_on_c, 0, 66, 78
1, 143313, Note_off_c, 0, 58, 62
1, 143327, Note_on_c, 0, 60, 71
1, 143341, Note_on_c, 0, 68, 88
1, 143342, Note_off_c, 0, 66, 60
1, 143431, Note_on_c, 0, 61, 70
1, 143436, Note_off_c, 0, 60, 57
1, 143442, Note_on_c, 0, 77, 87
1, 143446, Note_off_c, 0, 54, 52
1, 143454, Note_on_c, 0, 53, 58
1, 143456, Note_off_c, 0, 68, 63
1, 143487, Note_off_c, 0, 77, 64
1, 143503, Note_off_c, 0, 61, 62
1, 143542, Note_on_c, 0, 60, 74
1, 143645, Note_off_c, 0, 60, 61
1, 143652, Note_on_c, 0, 73, 86
1, 143653, Note_on_c, 0, 58, 64
1, 143699, Note_off_c, 0, 73, 62
1, 143712, Note_off_c, 0, 53, 60
1, 143769, Note_on_c, 0, 56, 72
1, 143779, Note_off_c, 0, 58, 60
1, 143876, Note_off_c, 0, 56, 64
1, 143886, Note_on_c, 0, 68, 87
1, 143890, Note_on_c, 0, 58, 73
1, 143898, Note_on_c, 0, 51, 69
1, 143945, Note_off_c, 0, 51, 62
1, 144138, Note_on_c, 0, 66, 76
1, 144138, Note_on_c, 0, 49, 60
1, 144150, Note_off_c, 0, 68, 58
1, 144185, Note_off_c, 0, 49, 61
1, 144226, Note_off_c, 0, 66, 60
1, 144228, Note_on_c, 0, 65, 77
1, 144329, Note_off_c, 0, 65, 61
1, 144331, Note_on_c, 0, 66, 74
1, 144344, Note_on_c, 0, 48, 61
1, 144356, Note_off_c, 0, 66, 68
1, 144427, Note_off_c, 0, 58, 35
1, 144439, Note_on_c, 0, 56, 62
1, 144547, Note_on_c, 0, 75, 77
1, 144553, Note_off_c, 0, 56, 62
1, 144558, Note_on_c, 0, 54, 62
1, 144583, Note_off_c, 0, 75, 60
1, 144609, Note_off_c, 0, 48, 55
1, 144670, Note_on_c, 0, 56, 59
1, 144758, Note_on_c, 0, 49, 61
1, 144761, Note_off_c, 0, 54, 64
1, 144765, Note_on_c, 0, 65, 76
1, 144776, Note_off_c, 0, 56, 61
1, 144791, Note_on_c, 0, 55, 47
1, 144800, Note_off_c, 0, 65, 62
1, 144840, Note_off_c, 0, 55, 58
1, 144916, Note_on_c, 0, 53, 53
1, 144979, Control_c, 0, 64, 9
1, 144993, Note_on_c, 0, 73, 81
1, 144994, Control_c, 0, 64, 33
1, 145009, Control_c, 0, 64, 41
1, 145024, Control_c, 0, 64, 46
1, 145030, Note_off_c, 0, 53, 63
1, 145039, Control_c, 0, 64, 50
1, 145041, Note_off_c, 0, 73, 63
1, 145046, Note_off_c, 0, 49, 63
1, 145054, Control_c, 0, 64, 54
1, 145069, Control_c, 0, 64, 57
1, 145084, Control_c, 0, 64, 59
1, 145098, Control_c, 0, 64, 60
1, 145113, Control_c, 0, 64, 62
1, 145128, Control_c, 0, 64, 63
1, 145173, Control_c, 0, 64, 61
1, 145188, Control_c, 0, 64, 58
1, 145203, Control_c, 0, 64, 53
1, 145205, Note_on_c, 0, 63, 74
1, 145206, Note_on_c, 0, 44, 43
1, 145209, Note_on_c, 0, 54, 47
1, 145224, Control_c, 0, 64, 48
1, 145239, Control_c, 0, 64, 42
1, 145247, Note_off_c, 0, 63, 63
1, 145254, Control_c, 0, 64, 35
1, 145269, Control_c, 0, 64, 29
1, 145271, Note_off_c, 0, 54, 54
1, 145284, Control_c, 0, 64, 28
1, 145313, Note_on_c, 0, 54, 44
1, 145328, Control_c, 0, 64, 27
1, 145343, Control_c, 0, 64, 25
1, 145357, Control_c, 0, 64, 24
1, 145387, Control_c, 0, 64, 30
1, 145399, Note_off_c, 0, 54, 64
1, 145402, Control_c, 0, 64, 42
1, 145408, Note_on_c, 0, 53, 60
1, 145417, Control_c, 0, 64, 51
1, 145431, Control_c, 0, 64, 55
1, 145435, Note_on_c, 0, 72, 77
1, 145446, Control_c, 0, 64, 59
1, 145461, Control_c, 0, 64, 61
1, 145469, Note_off_c, 0, 72, 62
1, 145476, Control_c, 0, 64, 63
1, 145491, Control_c, 0, 64, 63
1, 145505, Control_c, 0, 64, 64
1, 145510, Note_on_c, 0, 51, 61
1, 145518, Note_off_c, 0, 53, 54
1, 145520, Control_c, 0, 64, 65
1, 145525, Note_off_c, 0, 44, 58
1, 145549, Control_c, 0, 64, 65
1, 145594, Control_c, 0, 64, 65
1, 145609, Control_c, 0, 64, 64
1, 145623, Control_c, 0, 64, 62
1, 145638, Control_c, 0, 64, 58
1, 145647, Note_off_c, 0, 51, 58
1, 145653, Control_c, 0, 64, 51
1, 145668, Control_c, 0, 64, 42
1, 145669, Note_on_c, 0, 53, 66
1, 145669, Note_on_c, 0, 61, 72
1, 145671, Note_on_c, 0, 46, 63
1, 145683, Control_c, 0, 64, 31
1, 145697, Control_c, 0, 64, 30
1, 145712, Control_c, 0, 64, 41
1, 145727, Control_c, 0, 64, 54
1, 145742, Control_c, 0, 64, 60
1, 145747, Note_off_c, 0, 46, 62
1, 145757, Control_c, 0, 64, 63
1, 145772, Control_c, 0, 64, 65
1, 145786, Note_off_c, 0, 61, 62
1, 145787, Control_c, 0, 64, 67
1, 145801, Note_off_c, 0, 53, 52
1, 145802, Control_c, 0, 64, 68
1, 145816, Control_c, 0, 64, 68
1, 145831, Control_c, 0, 64, 68
1, 145841, Note_on_c, 0, 65, 70
1, 145845, Note_on_c, 0, 56, 65
1, 145846, Control_c, 0, 64, 67
1, 145861, Control_c, 0, 64, 66
1, 145876, Control_c, 0, 64, 65
1, 145891, Control_c, 0, 64, 65
1, 145906, Control_c, 0, 64, 64
1, 145921, Control_c, 0, 64, 62
1, 145936, Control_c, 0, 64, 61
1, 145948, Note_on_c, 0, 58, 72
1, 145950, Note_on_c, 0, 66, 73
1, 145951, Control_c, 0, 64, 59
1, 145956, Note_off_c, 0, 65, 57
1, 145972, Control_c, 0, 64, 58
1, 145987, Note_off_c, 0, 56, 57
1, 145987, Control_c, 0, 64, 58
1, 146017, Control_c, 0, 64, 57
1, 146032, Control_c, 0, 64, 56
1, 146046, Control_c, 0, 64, 56
1, 146054, Note_on_c, 0, 68, 82
1, 146054, Note_off_c, 0, 58, 62
1, 146061, Note_on_c, 0, 60, 73
1, 146061, Control_c, 0, 64, 55
1, 146077, Control_c, 0, 64, 54
1, 146079, Note_off_c, 0, 66, 60
1, 146092, Control_c, 0, 64, 53
1, 146107, Control_c, 0, 64, 52
1, 146121, Control_c, 0, 64, 51
1, 146136, Control_c, 0, 64, 51
1, 146161, Note_on_c, 0, 70, 74
1, 146164, Note_on_c, 0, 61, 71
1, 146173, Note_off_c, 0, 60, 59
1, 146197, Note_off_c, 0, 68, 60
1, 146210, Control_c, 0, 64, 50
1, 146226, Note_off_c, 0, 70, 65
1, 146256, Note_on_c, 0, 72, 79
1, 146257, Note_off_c, 0, 61, 61
1, 146270, Note_on_c, 0, 60, 72
1, 146359, Note_on_c, 0, 73, 79
1, 146360, Note_on_c, 0, 58, 74
1, 146364, Note_off_c, 0, 60, 62
1, 146388, Note_off_c, 0, 72, 41
1, 146447, Control_c, 0, 64, 51
1, 146461, Note_on_c, 0, 75, 81
1, 146467, Note_on_c, 0, 56, 70
1, 146470, Note_off_c, 0, 58, 63
1, 146476, Note_off_c, 0, 73, 62
1, 146492, Control_c, 0, 64, 50
1, 146521, Control_c, 0, 64, 50
1, 146536, Control_c, 0, 64, 48
1, 146551, Control_c, 0, 64, 46
1, 146565, Control_c, 0, 64, 43
1, 146566, Note_off_c, 0, 75, 56
1, 146575, Note_on_c, 0, 76, 77
1, 146580, Control_c, 0, 64, 38
1, 146591, Note_on_c, 0, 55, 70
1, 146595, Control_c, 0, 64, 30
1, 146599, Note_off_c, 0, 56, 64
1, 146610, Control_c, 0, 64, 19
1, 146625, Control_c, 0, 64, 9
1, 146639, Control_c, 0, 64, 0
1, 146683, Note_on_c, 0, 75, 78
1, 146700, Control_c, 0, 64, 12
1, 146709, Note_off_c, 0, 55, 60
1, 146712, Note_on_c, 0, 56, 69
1, 146723, Control_c, 0, 64, 24
1, 146734, Note_off_c, 0, 76, 60
1, 146738, Control_c, 0, 64, 37
1, 146752, Control_c, 0, 64, 49
1, 146767, Control_c, 0, 64, 57
1, 146782, Control_c, 0, 64, 63
1, 146796, Note_on_c, 0, 73, 82
1, 146796, Control_c, 0, 64, 67
1, 146806, Note_off_c, 0, 56, 61
1, 146809, Note_off_c, 0, 75, 61
1, 146811, Control_c, 0, 64, 73
1, 146812, Note_on_c, 0, 58, 69
1, 146826, Control_c, 0, 64, 78
1, 146841, Control_c, 0, 64, 79
1, 146856, Control_c, 0, 64, 78
1, 146870, Control_c, 0, 64, 77
1, 146885, Control_c, 0, 64, 76
1, 146887, Note_on_c, 0, 55, 73
1, 146887, Note_off_c, 0, 58, 63
1, 146895, Note_on_c, 0, 75, 89
1, 146900, Control_c, 0, 64, 76
1, 146914, Note_off_c, 0, 73, 63
1, 146921, Note_off_c, 0, 55, 66
1, 146930, Control_c, 0, 64, 75
1, 146944, Control_c, 0, 64, 74
1, 146959, Control_c, 0, 64, 72
1, 146967, Note_off_c, 0, 75, 61
1, 146974, Control_c, 0, 64, 70
1, 146989, Control_c, 0, 64, 67
1, 147000, Note_on_c, 0, 76, 81
1, 147003, Control_c, 0, 64, 64
1, 147006, Note_on_c, 0, 51, 70
1, 147018, Control_c, 0, 64, 62
1, 147033, Control_c, 0, 64, 59
1, 147048, Control_c, 0, 64, 52
1, 147063, Control_c, 0, 64, 44
1, 147078, Control_c, 0, 64, 35
1, 147093, Control_c, 0, 64, 29
1, 147101, Note_on_c, 0, 79, 84
1, 147107, Control_c, 0, 64, 27
1, 147109, Note_on_c, 0, 49, 63
1, 147122, Control_c, 0, 64, 26
1, 147182, Control_c, 0, 64, 27
1, 147196, Control_c, 0, 64, 27
1, 147207, Note_on_c, 0, 80, 85
1, 147211, Control_c, 0, 64, 28
1, 147215, Note_on_c, 0, 48, 70
1, 147227, Note_off_c, 0, 79, 63
1, 147264, Note_off_c, 0, 76, 60
1, 147305, Note_off_c, 0, 49, 37
1, 147309, Note_on_c, 0, 82, 84
1, 147326, Note_on_c, 0, 46, 69
1, 147326, Note_off_c, 0, 80, 63
1, 147336, Note_off_c, 0, 48, 63
1, 147449, Note_off_c, 0, 51, 57
1, 147452, Note_on_c, 0, 73, 79
1, 147469, Note_on_c, 0, 44, 66
1, 147478, Note_off_c, 0, 46, 61
1, 147488, Note_off_c, 0, 82, 62
1, 147590, Note_on_c, 0, 72, 80
1, 147592, Note_on_c, 0, 51, 68
1, 147594, Note_off_c, 0, 73, 61
1, 147619, Control_c, 0, 64, 28
1, 147675, Note_off_c, 0, 44, 61
1, 147695, Note_on_c, 0, 53, 71
1, 147695, Note_off_c, 0, 51, 63
1, 147708, Note_on_c, 0, 70, 84
1, 147708, Control_c, 0, 64, 29
1, 147727, Note_off_c, 0, 72, 62
1, 147796, Note_on_c, 0, 54, 80
1, 147797, Note_on_c, 0, 68, 85
1, 147803, Note_off_c, 0, 53, 63
1, 147835, Note_off_c, 0, 70, 59
1, 147899, Note_on_c, 0, 56, 75
1, 147900, Note_off_c, 0, 54, 61
1, 147903, Note_on_c, 0, 75, 88
1, 147907, Note_off_c, 0, 68, 62
1, 147949, Note_off_c, 0, 75, 64
1, 148003, Note_on_c, 0, 58, 76
1, 148023, Note_off_c, 0, 56, 60
1, 148111, Note_on_c, 0, 60, 72
1, 148124, Note_off_c, 0, 58, 62
1, 148131, Note_on_c, 0, 66, 83
1, 148185, Note_off_c, 0, 66, 62
1, 148224, Note_on_c, 0, 56, 72
1, 148231, Note_off_c, 0, 60, 64
1, 148279, Control_c, 0, 64, 29
1, 148324, Control_c, 0, 64, 30
1, 148368, Control_c, 0, 64, 30
1, 148371, Note_on_c, 0, 65, 85
1, 148383, Note_on_c, 0, 61, 73
1, 148397, Note_off_c, 0, 56, 64
1, 148514, Note_off_c, 0, 61, 58
1, 148654, Note_on_c, 0, 73, 87
1, 148656, Note_on_c, 0, 41, 74
1, 148659, Note_on_c, 0, 61, 72
1, 148660, Note_on_c, 0, 68, 77
1, 148676, Note_off_c, 0, 65, 62
1, 148695, Note_off_c, 0, 61, 61
1, 148705, Note_off_c, 0, 68, 59
1, 148714, Note_off_c, 0, 41, 62
1, 148727, Note_off_c, 0, 73, 64
1, 148753, Control_c, 0, 64, 28
1, 148768, Control_c, 0, 64, 25
1, 148783, Control_c, 0, 64, 21
1, 148798, Control_c, 0, 64, 13
1, 148812, Control_c, 0, 64, 0
1, 148951, Note_on_c, 0, 42, 76
1, 148954, Note_on_c, 0, 70, 89
1, 148958, Note_on_c, 0, 63, 72
1, 148961, Note_on_c, 0, 66, 72
1, 149015, Note_off_c, 0, 66, 57
1, 149041, Note_off_c, 0, 42, 63
1, 149049, Note_off_c, 0, 70, 61
1, 149117, Control_c, 0, 64, 9
1, 149131, Control_c, 0, 64, 11
1, 149146, Control_c, 0, 64, 12
1, 149176, Control_c, 0, 64, 13
1, 149205, Control_c, 0, 64, 15
1, 149220, Control_c, 0, 64, 16
1, 149235, Control_c, 0, 64, 17
1, 149264, Control_c, 0, 64, 17
1, 149304, Note_off_c, 0, 63, 0
1, 149304, Note_on_c, 0, 63, 41
1, 149307, Note_on_c, 0, 72, 90
1, 149316, Note_on_c, 0, 66, 72
1, 149319, Note_on_c, 0, 44, 78
1, 149320, Note_on_c, 0, 68, 74
1, 149324, Control_c, 0, 64, 18
1, 149397, Poly_aftertouch_c, 0, 42, 127
1, 149410, Note_off_c, 0, 66, 49
1, 149412, Note_off_c, 0, 44, 63
1, 149412, Note_off_c, 0, 72, 60
1, 149419, Note_off_c, 0, 68, 58
1, 149433, Poly_aftertouch_c, 0, 42, 0
1, 149516, Control_c, 0, 64, 19
1, 149561, Control_c, 0, 64, 20
1, 149576, Control_c, 0, 64, 21
1, 149590, Control_c, 0, 64, 21
1, 149605, Control_c, 0, 64, 22
1, 149650, Control_c, 0, 64, 23
1, 149662, Note_off_c, 0, 63, 50
1, 149746, Control_c, 0, 64, 23
1, 149760, Control_c, 0, 64, 24
1, 149775, Control_c, 0, 64, 25
1, 149797, Note_on_c, 0, 73, 89
1, 149801, Note_on_c, 0, 37, 73
1, 149803, Note_on_c, 0, 61, 82
1, 149805, Control_c, 0, 64, 25
1, 149812, Note_on_c, 0, 65, 72
1, 149813, Note_on_c, 0, 68, 73
1, 149820, Control_c, 0, 64, 26
1, 149850, Control_c, 0, 64, 26
1, 149866, Control_c, 0, 64, 27
1, 149895, Control_c, 0, 64, 27
1, 150088, Control_c, 0, 64, 28
1, 150103, Control_c, 0, 64, 28
1, 150118, Control_c, 0, 64, 29
1, 150133, Control_c, 0, 64, 29
1, 150163, Control_c, 0, 64, 30
1, 150192, Control_c, 0, 64, 30
1, 150236, Control_c, 0, 64, 31
1, 150266, Control_c, 0, 64, 31
1, 150369, Control_c, 0, 64, 32
1, 150689, Control_c, 0, 64, 32
1, 150718, Control_c, 0, 64, 33
1, 150733, Control_c, 0, 64, 33
1, 150763, Control_c, 0, 64, 34
1, 150778, Control_c, 0, 64, 34
1, 150807, Control_c, 0, 64, 35
1, 150822, Control_c, 0, 64, 35
1, 150837, Control_c, 0, 64, 36
1, 150851, Control_c, 0, 64, 36
1, 150881, Control_c, 0, 64, 37
1, 150896, Control_c, 0, 64, 38
1, 150911, Control_c, 0, 64, 40
1, 150926, Control_c, 0, 64, 41
1, 150941, Control_c, 0, 64, 43
1, 150956, Control_c, 0, 64, 44
1, 150971, Control_c, 0, 64, 46
1, 150986, Control_c, 0, 64, 49
1, 151000, Control_c, 0, 64, 51
1, 151015, Control_c, 0, 64, 54
1, 151030, Control_c, 0, 64, 56
1, 151044, Control_c, 0, 64, 59
1, 151059, Control_c, 0, 64, 62
1, 151074, Control_c, 0, 64, 65
1, 151089, Control_c, 0, 64, 69
1, 151104, Control_c, 0, 64, 76
1, 151118, Control_c, 0, 64, 88
1, 151133, Control_c, 0, 64, 107
1, 151148, Control_c, 0, 64, 127
1, 151221, Note_off_c, 0, 61, 58
1, 151259, Note_off_c, 0, 73, 57
1, 151261, Note_off_c, 0, 65, 59
1, 151284, Note_off_c, 0, 68, 48
1, 151301, Note_off_c, 0, 37, 43
1, 151600, Control_c, 0, 64, 119
1, 151615, Control_c, 0, 64, 116
1, 151630, Control_c, 0, 64, 113
1, 151645, Control_c, 0, 64, 113
1, 151659, Control_c, 0, 64, 111
1, 151674, Control_c, 0, 64, 110
1, 151689, Control_c, 0, 64, 108
1, 151704, Control_c, 0, 64, 106
1, 151719, Control_c, 0, 64, 104
1, 151734, Control_c, 0, 64, 103
1, 151749, Control_c, 0, 64, 101
1, 151764, Control_c, 0, 64, 100
1, 151778, Control_c, 0, 64, 99
1, 151808, Control_c, 0, 64, 98
1, 151823, Control_c, 0, 64, 97
1, 151838, Control_c, 0, 64, 96
1, 151853, Control_c, 0, 64, 94
1, 151867, Control_c, 0, 64, 92
1, 151882, Control_c, 0, 64, 91
1, 151897, Control_c, 0, 64, 90
1, 151912, Control_c, 0, 64, 88
1, 151927, Control_c, 0, 64, 86
1, 151941, Control_c, 0, 64, 82
1, 151956, Control_c, 0, 64, 77
1, 151978, Control_c, 0, 64, 72
1, 151993, Control_c, 0, 64, 67
1, 152008, Control_c, 0, 64, 64
1, 152023, Control_c, 0, 64, 60
1, 152038, Control_c, 0, 64, 58
1, 152053, Control_c, 0, 64, 57
1, 152067, Control_c, 0, 64, 54
1, 152082, Control_c, 0, 64, 51
1, 152097, Control_c, 0, 64, 47
1, 152112, Control_c, 0, 64, 43
1, 152127, Control_c, 0, 64, 39
1, 152141, Control_c, 0, 64, 36
1, 152156, Control_c, 0, 64, 35
1, 152185, Control_c, 0, 64, 35
1, 152350, Control_c, 0, 64, 35
1, 152394, Control_c, 0, 64, 36
1, 152408, Control_c, 0, 64, 36
1, 152453, Control_c, 0, 64, 37
1, 152512, Control_c, 0, 64, 37
1, 152571, Control_c, 0, 64, 38
1, 152950, Control_c, 0, 64, 38
1, 153038, Control_c, 0, 64, 39
1, 153217, Control_c, 0, 64, 39
1, 154759, Control_c, 0, 64, 39
1, 154774, Control_c, 0, 64, 38
1, 154789, Control_c, 0, 64, 38
1, 154803, Control_c, 0, 64, 37
1, 154818, Control_c, 0, 64, 36
1, 154833, Control_c, 0, 64, 34
1, 154848, Control_c, 0, 64, 31
1, 154863, Control_c, 0, 64, 26
1, 154877, Control_c, 0, 64, 19
1, 154892, Control_c, 0, 64, 0
1, 154967, End_track
0, 0, End_of_file
