0, 0, Header, 0, 1, 384
1, 0, Start_track
1, 0, Title_t, "SchubertOp142No4--Lu            "
1, 0, Text_t, "2011 ePiano Junior Competition"
1, 0, Text_t, "captured in spring and summer 2011"
1, 0, Text_t, "http://www.piano-e-competition.com/"
1, 0, Text_t, "standard-resolution version"
1, 0, Text_t, "File processed for distribution with software designed and coded by Dr. John Q. Walker, founder of Zenph Sound Innovations"
1, 0, Instrument_name_t, "Yamaha Disklavier Pro Mark IV concert grand piano, model DCFIIISM4PRO"
1, 0, Sequencer_specific, 39, 67, 113, 0, 1, 0, 1, 0, 83, 99, 104, 117, 98, 101, 114, 116, 79, 112, 49, 52, 50, 78, 111, 52, 88, 105, 110, 103, 89, 117, 76, 117, 32, 32, 32, 32, 32, 32, 32, 32
1, 0, Sequencer_specific, 6, 67, 113, 0, 0, 0, 69
1, 0, System_exclusive, 21, 67, 113, 126, 21, 0, 2, 2, 2, 5, 12, 8, 4, 14, 1, 3, 4, 1, 14, 7, 3, 247
1, 0, Sequencer_specific, 5, 67, 123, 12, 2, 1
1, 0, Tempo, 512820
1, 0, Time_signature, 4, 2, 24, 8
1, 0, System_exclusive, 5, 126, 127, 9, 1, 247
1, 1, System_exclusive, 8, 67, 16, 76, 0, 0, 126, 0, 247
1, 2, System_exclusive, 8, 67, 16, 76, 8, 9, 7, 1, 247
1, 3, Control_c, 0, 0, 108
1, 3, Control_c, 1, 0, 108
1, 3, Control_c, 2, 0, 0
1, 3, Control_c, 3, 0, 0
1, 3, Control_c, 4, 0, 0
1, 3, Control_c, 5, 0, 0
1, 3, Control_c, 6, 0, 0
1, 3, Control_c, 7, 0, 0
1, 3, Control_c, 8, 0, 0
1, 3, Control_c, 9, 0, 127
1, 3, Control_c, 10, 0, 0
1, 3, Control_c, 11, 0, 0
1, 3, Control_c, 12, 0, 0
1, 3, Control_c, 13, 0, 0
1, 3, Control_c, 14, 0, 0
1, 3, Control_c, 15, 0, 0
1, 4, Control_c, 0, 32, 0
1, 4, Control_c, 1, 32, 0
1, 4, Control_c, 2, 32, 0
1, 4, Control_c, 3, 32, 0
1, 4, Control_c, 4, 32, 0
1, 4, Control_c, 5, 32, 0
1, 4, Control_c, 6, 32, 0
1, 4, Control_c, 7, 32, 0
1, 4, Control_c, 8, 32, 0
1, 4, Control_c, 9, 32, 0
1, 4, Control_c, 10, 32, 0
1, 4, Control_c, 11, 32, 0
1, 4, Control_c, 12, 32, 0
1, 4, Control_c, 13, 32, 0
1, 4, Control_c, 14, 32, 0
1, 4, Control_c, 15, 32, 0
1, 5, Program_c, 0, 0
1, 5, Program_c, 1, 0
1, 5, Program_c, 2, 0
1, 5, Program_c, 3, 0
1, 5, Program_c, 4, 0
1, 5, Program_c, 5, 0
1, 5, Program_c, 6, 0
1, 5, Program_c, 7, 0
1, 5, Program_c, 8, 0
1, 5, Program_c, 9, 0
1, 5, Program_c, 10, 0
1, 5, Program_c, 11, 0
1, 5, Program_c, 12, 0
1, 5, Program_c, 13, 0
1, 5, Program_c, 14, 0
1, 5, Program_c, 15, 0
1, 6, Control_c, 0, 7, 100
1, 6, Control_c, 1, 7, 100
1, 6, Control_c, 2, 7, 100
1, 6, Control_c, 3, 7, 100
1, 6, Control_c, 4, 7, 100
1, 6, Control_c, 5, 7, 100
1, 6, Control_c, 6, 7, 100
1, 6, Control_c, 7, 7, 100
1, 6, Control_c, 8, 7, 100
1, 6, Control_c, 9, 7, 100
1, 6, Control_c, 10, 7, 100
1, 6, Control_c, 11, 7, 100
1, 6, Control_c, 12, 7, 100
1, 6, Control_c, 13, 7, 100
1, 6, Control_c, 14, 7, 100
1, 6, Control_c, 15, 7, 100
1, 382, Note_on_c, 0, 73, 56
1, 407, Note_on_c, 0, 53, 54
1, 411, Note_off_c, 0, 73, 66
1, 419, Note_on_c, 0, 72, 65
1, 445, Note_off_c, 0, 53, 63
1, 447, Note_off_c, 0, 72, 67
1, 618, Note_on_c, 0, 65, 54
1, 620, Note_on_c, 0, 72, 62
1, 629, Note_on_c, 0, 56, 44
1, 654, Note_off_c, 0, 65, 64
1, 657, Note_off_c, 0, 72, 60
1, 667, Note_off_c, 0, 56, 59
1, 686, Poly_aftertouch_c, 0, 60, 0
1, 690, Note_on_c, 0, 73, 61
1, 729, Note_off_c, 0, 73, 64
1, 750, Note_on_c, 0, 72, 68
1, 768, Note_on_c, 0, 53, 47
1, 780, Note_off_c, 0, 72, 65
1, 802, Note_off_c, 0, 53, 62
1, 911, Note_on_c, 0, 73, 64
1, 925, Note_on_c, 0, 65, 58
1, 929, Note_off_c, 0, 73, 65
1, 936, Note_on_c, 0, 56, 46
1, 937, Note_on_c, 0, 72, 77
1, 951, Note_on_c, 0, 60, 29
1, 958, Note_off_c, 0, 65, 65
1, 968, Note_off_c, 0, 72, 62
1, 982, Note_off_c, 0, 56, 62
1, 982, Note_off_c, 0, 60, 53
1, 1098, Note_on_c, 0, 53, 48
1, 1101, Note_on_c, 0, 72, 68
1, 1142, Note_off_c, 0, 72, 61
1, 1147, Note_off_c, 0, 53, 59
1, 1185, Note_on_c, 0, 73, 62
1, 1232, Note_off_c, 0, 73, 62
1, 1249, Note_on_c, 0, 56, 48
1, 1252, Note_on_c, 0, 65, 43
1, 1252, Note_on_c, 0, 72, 59
1, 1277, Note_off_c, 0, 65, 56
1, 1278, Note_off_c, 0, 72, 65
1, 1295, Note_off_c, 0, 56, 62
1, 1422, Note_on_c, 0, 72, 60
1, 1429, Note_on_c, 0, 53, 35
1, 1475, Note_off_c, 0, 53, 47
1, 1482, Note_off_c, 0, 72, 59
1, 1496, Note_on_c, 0, 71, 64
1, 1525, Note_off_c, 0, 71, 67
1, 1585, Note_on_c, 0, 62, 30
1, 1592, Note_on_c, 0, 71, 63
1, 1611, Note_on_c, 0, 56, 3
1, 1617, Note_off_c, 0, 62, 47
1, 1619, Poly_aftertouch_c, 0, 59, 127
1, 1623, Note_off_c, 0, 71, 67
1, 1654, Poly_aftertouch_c, 0, 59, 0
1, 1655, Note_off_c, 0, 56, 35
1, 1656, Note_on_c, 0, 74, 57
1, 1720, Note_off_c, 0, 74, 56
1, 1722, Note_on_c, 0, 53, 40
1, 1727, Note_on_c, 0, 72, 59
1, 1751, Note_off_c, 0, 53, 54
1, 1782, Note_off_c, 0, 72, 59
1, 1807, Note_on_c, 0, 71, 54
1, 1847, Note_off_c, 0, 71, 64
1, 1877, Note_on_c, 0, 48, 43
1, 1880, Note_on_c, 0, 72, 55
1, 1904, Note_off_c, 0, 72, 64
1, 1906, Note_off_c, 0, 48, 57
1, 2046, Note_on_c, 0, 60, 53
1, 2069, Note_on_c, 0, 52, 39
1, 2073, Note_on_c, 0, 55, 27
1, 2073, Note_on_c, 0, 67, 67
1, 2085, Note_off_c, 0, 60, 63
1, 2101, Note_off_c, 0, 52, 57
1, 2109, Note_off_c, 0, 55, 52
1, 2219, Note_on_c, 0, 48, 49
1, 2260, Note_off_c, 0, 48, 63
1, 2368, Note_on_c, 0, 72, 75
1, 2371, Note_on_c, 0, 55, 48
1, 2372, Note_on_c, 0, 60, 56
1, 2378, Note_on_c, 0, 52, 51
1, 2386, Note_off_c, 0, 67, 63
1, 2404, Note_off_c, 0, 72, 65
1, 2404, Note_off_c, 0, 60, 66
1, 2409, Note_off_c, 0, 52, 63
1, 2409, Note_off_c, 0, 55, 65
1, 2520, Note_on_c, 0, 48, 58
1, 2524, Note_on_c, 0, 67, 86
1, 2567, Note_off_c, 0, 48, 60
1, 2568, Note_off_c, 0, 67, 63
1, 2671, Note_on_c, 0, 60, 62
1, 2674, Note_on_c, 0, 72, 83
1, 2678, Note_on_c, 0, 55, 56
1, 2682, Note_on_c, 0, 52, 45
1, 2699, Note_off_c, 0, 60, 67
1, 2711, Note_off_c, 0, 52, 56
1, 2716, Note_off_c, 0, 55, 62
1, 2717, Note_off_c, 0, 72, 62
1, 2846, Note_on_c, 0, 70, 79
1, 2851, Note_on_c, 0, 49, 50
1, 2905, Note_off_c, 0, 49, 61
1, 3015, Note_on_c, 0, 68, 62
1, 3022, Note_on_c, 0, 53, 45
1, 3023, Note_on_c, 0, 61, 43
1, 3039, Note_off_c, 0, 70, 56
1, 3050, Note_off_c, 0, 61, 57
1, 3067, Note_off_c, 0, 53, 59
1, 3071, Note_off_c, 0, 68, 59
1, 3080, Note_on_c, 0, 67, 63
1, 3112, Note_off_c, 0, 67, 65
1, 3155, Note_on_c, 0, 65, 60
1, 3158, Note_on_c, 0, 49, 44
1, 3188, Note_off_c, 0, 65, 66
1, 3197, Note_off_c, 0, 49, 64
1, 3324, Note_on_c, 0, 46, 48
1, 3324, Note_on_c, 0, 67, 57
1, 3364, Note_off_c, 0, 67, 62
1, 3385, Note_on_c, 0, 70, 62
1, 3444, Note_off_c, 0, 70, 60
1, 3451, Note_off_c, 0, 46, 57
1, 3462, Note_on_c, 0, 58, 59
1, 3465, Note_on_c, 0, 55, 51
1, 3474, Note_on_c, 0, 67, 61
1, 3497, Note_off_c, 0, 58, 65
1, 3501, Note_off_c, 0, 55, 65
1, 3507, Note_off_c, 0, 67, 65
1, 3537, Note_on_c, 0, 70, 59
1, 3587, Note_off_c, 0, 70, 59
1, 3614, Note_on_c, 0, 58, 60
1, 3620, Note_on_c, 0, 48, 59
1, 3634, Note_on_c, 0, 64, 58
1, 3655, Note_off_c, 0, 58, 63
1, 3661, Note_off_c, 0, 48, 60
1, 3670, Note_off_c, 0, 64, 64
1, 3700, Note_on_c, 0, 67, 61
1, 3722, Control_c, 0, 64, 16
1, 3737, Control_c, 0, 64, 27
1, 3739, Note_off_c, 0, 67, 62
1, 3752, Control_c, 0, 64, 35
1, 3767, Control_c, 0, 64, 41
1, 3776, Note_on_c, 0, 56, 54
1, 3778, Note_on_c, 0, 53, 51
1, 3782, Control_c, 0, 64, 48
1, 3787, Note_on_c, 0, 65, 65
1, 3796, Control_c, 0, 64, 54
1, 3811, Control_c, 0, 64, 59
1, 3826, Control_c, 0, 64, 63
1, 3841, Control_c, 0, 64, 66
1, 3848, Note_off_c, 0, 65, 54
1, 3856, Control_c, 0, 64, 72
1, 3862, Note_on_c, 0, 68, 71
1, 3862, Note_off_c, 0, 56, 59
1, 3864, Note_off_c, 0, 53, 61
1, 3871, Control_c, 0, 64, 80
1, 3886, Control_c, 0, 64, 90
1, 3901, Control_c, 0, 64, 104
1, 3903, Note_off_c, 0, 68, 62
1, 3915, Control_c, 0, 64, 127
1, 3936, Note_on_c, 0, 72, 73
1, 3960, Note_off_c, 0, 72, 70
1, 4020, Note_on_c, 0, 77, 83
1, 4088, Note_off_c, 0, 77, 59
1, 4089, Note_on_c, 0, 80, 79
1, 4109, Control_c, 0, 64, 117
1, 4124, Control_c, 0, 64, 99
1, 4138, Control_c, 0, 64, 86
1, 4153, Control_c, 0, 64, 75
1, 4161, Note_off_c, 0, 80, 63
1, 4164, Note_on_c, 0, 82, 72
1, 4168, Control_c, 0, 64, 66
1, 4183, Control_c, 0, 64, 56
1, 4198, Control_c, 0, 64, 43
1, 4203, Note_off_c, 0, 82, 65
1, 4212, Control_c, 0, 64, 32
1, 4224, Note_on_c, 0, 53, 57
1, 4227, Control_c, 0, 64, 0
1, 4239, Note_on_c, 0, 84, 73
1, 4261, Note_off_c, 0, 53, 63
1, 4265, Note_off_c, 0, 84, 67
1, 4410, Note_on_c, 0, 65, 51
1, 4412, Note_on_c, 0, 84, 69
1, 4413, Note_on_c, 0, 56, 47
1, 4441, Note_off_c, 0, 65, 63
1, 4455, Note_off_c, 0, 56, 63
1, 4459, Note_off_c, 0, 84, 61
1, 4478, Note_on_c, 0, 85, 70
1, 4484, Poly_aftertouch_c, 0, 60, 0
1, 4523, Note_off_c, 0, 85, 63
1, 4542, Note_on_c, 0, 84, 83
1, 4551, Note_on_c, 0, 53, 59
1, 4581, Note_off_c, 0, 84, 65
1, 4589, Note_off_c, 0, 53, 63
1, 4693, Note_on_c, 0, 85, 75
1, 4708, Note_on_c, 0, 65, 62
1, 4711, Note_on_c, 0, 84, 91
1, 4712, Note_on_c, 0, 56, 57
1, 4716, Note_off_c, 0, 85, 70
1, 4730, Note_on_c, 0, 60, 37
1, 4741, Note_off_c, 0, 65, 65
1, 4747, Note_off_c, 0, 84, 67
1, 4757, Note_off_c, 0, 56, 63
1, 4757, Note_off_c, 0, 60, 60
1, 4866, Note_on_c, 0, 84, 80
1, 4868, Note_on_c, 0, 53, 49
1, 4917, Note_off_c, 0, 53, 59
1, 4920, Note_off_c, 0, 84, 62
1, 4935, Note_on_c, 0, 85, 72
1, 4988, Note_off_c, 0, 85, 62
1, 5017, Note_on_c, 0, 84, 67
1, 5021, Note_on_c, 0, 56, 46
1, 5024, Note_on_c, 0, 65, 41
1, 5042, Note_off_c, 0, 84, 68
1, 5058, Note_off_c, 0, 65, 56
1, 5074, Note_off_c, 0, 56, 61
1, 5090, Poly_aftertouch_c, 0, 60, 0
1, 5198, Note_on_c, 0, 84, 65
1, 5209, Note_on_c, 0, 53, 53
1, 5244, Note_off_c, 0, 84, 58
1, 5268, Note_off_c, 0, 53, 59
1, 5289, Note_on_c, 0, 83, 65
1, 5323, Note_off_c, 0, 83, 62
1, 5360, Note_on_c, 0, 89, 68
1, 5377, Note_on_c, 0, 56, 35
1, 5380, Note_on_c, 0, 62, 32
1, 5415, Note_off_c, 0, 62, 51
1, 5415, Note_off_c, 0, 56, 53
1, 5424, Note_off_c, 0, 89, 62
1, 5443, Note_on_c, 0, 83, 62
1, 5451, Poly_aftertouch_c, 0, 59, 0
1, 5480, Note_off_c, 0, 83, 60
1, 5512, Note_on_c, 0, 89, 66
1, 5529, Note_on_c, 0, 53, 40
1, 5561, Note_off_c, 0, 53, 58
1, 5588, Note_off_c, 0, 89, 54
1, 5594, Note_on_c, 0, 83, 58
1, 5632, Note_off_c, 0, 83, 61
1, 5676, Note_on_c, 0, 84, 52
1, 5693, Note_on_c, 0, 48, 37
1, 5695, Note_off_c, 0, 84, 62
1, 5726, Note_off_c, 0, 48, 50
1, 5862, Note_on_c, 0, 79, 75
1, 5870, Note_on_c, 0, 60, 41
1, 5873, Note_on_c, 0, 55, 37
1, 5895, Note_on_c, 0, 52, 25
1, 5896, Note_off_c, 0, 60, 57
1, 5904, Note_off_c, 0, 55, 57
1, 5931, Note_off_c, 0, 52, 48
1, 6023, Note_on_c, 0, 48, 53
1, 6059, Note_off_c, 0, 48, 62
1, 6164, Note_off_c, 0, 79, 50
1, 6166, Note_on_c, 0, 84, 74
1, 6176, Note_on_c, 0, 60, 56
1, 6178, Note_on_c, 0, 55, 52
1, 6182, Note_on_c, 0, 52, 49
1, 6201, Note_off_c, 0, 84, 65
1, 6205, Note_off_c, 0, 60, 65
1, 6213, Note_off_c, 0, 55, 65
1, 6214, Note_off_c, 0, 52, 64
1, 6321, Note_on_c, 0, 48, 61
1, 6321, Note_on_c, 0, 79, 78
1, 6363, Note_off_c, 0, 79, 66
1, 6370, Note_off_c, 0, 48, 59
1, 6472, Note_on_c, 0, 60, 59
1, 6476, Note_on_c, 0, 52, 54
1, 6479, Note_on_c, 0, 84, 84
1, 6482, Note_on_c, 0, 55, 49
1, 6505, Note_off_c, 0, 60, 66
1, 6514, Note_off_c, 0, 52, 65
1, 6520, Note_off_c, 0, 55, 65
1, 6536, Note_off_c, 0, 84, 63
1, 6638, Note_on_c, 0, 82, 83
1, 6647, Note_on_c, 0, 49, 54
1, 6696, Note_off_c, 0, 49, 60
1, 6807, Note_on_c, 0, 80, 68
1, 6807, Note_off_c, 0, 82, 61
1, 6809, Note_on_c, 0, 53, 49
1, 6850, Note_off_c, 0, 53, 62
1, 6870, Note_off_c, 0, 80, 61
1, 6881, Poly_aftertouch_c, 0, 61, 0
1, 6884, Note_on_c, 0, 79, 67
1, 6920, Note_off_c, 0, 79, 56
1, 6956, Note_on_c, 0, 49, 51
1, 6956, Note_on_c, 0, 77, 66
1, 6989, Note_off_c, 0, 77, 64
1, 6999, Note_off_c, 0, 49, 64
1, 7122, Note_on_c, 0, 79, 65
1, 7130, Note_on_c, 0, 46, 48
1, 7183, Note_off_c, 0, 79, 58
1, 7205, Note_on_c, 0, 82, 64
1, 7262, Note_off_c, 0, 82, 61
1, 7273, Note_off_c, 0, 46, 54
1, 7276, Note_on_c, 0, 55, 56
1, 7278, Note_on_c, 0, 58, 58
1, 7290, Note_on_c, 0, 79, 71
1, 7319, Note_off_c, 0, 58, 65
1, 7320, Note_off_c, 0, 55, 65
1, 7335, Note_off_c, 0, 79, 62
1, 7379, Note_on_c, 0, 82, 60
1, 7420, Note_off_c, 0, 82, 62
1, 7433, Note_on_c, 0, 58, 57
1, 7441, Note_on_c, 0, 48, 59
1, 7456, Note_on_c, 0, 76, 60
1, 7476, Note_off_c, 0, 58, 62
1, 7479, Note_off_c, 0, 48, 61
1, 7481, Control_c, 0, 64, 27
1, 7496, Note_off_c, 0, 76, 63
1, 7496, Control_c, 0, 64, 46
1, 7510, Control_c, 0, 64, 55
1, 7525, Control_c, 0, 64, 60
1, 7526, Note_on_c, 0, 79, 65
1, 7540, Control_c, 0, 64, 63
1, 7555, Control_c, 0, 64, 66
1, 7563, Note_off_c, 0, 79, 64
1, 7570, Control_c, 0, 64, 73
1, 7585, Control_c, 0, 64, 84
1, 7597, Note_on_c, 0, 53, 61
1, 7598, Note_on_c, 0, 56, 58
1, 7600, Control_c, 0, 64, 98
1, 7612, Note_on_c, 0, 77, 78
1, 7615, Control_c, 0, 64, 111
1, 7629, Control_c, 0, 64, 127
1, 7632, Note_off_c, 0, 53, 64
1, 7632, Note_off_c, 0, 56, 66
1, 7635, Note_off_c, 0, 77, 69
1, 7644, Control_c, 0, 64, 123
1, 7659, Control_c, 0, 64, 110
1, 7674, Control_c, 0, 64, 102
1, 7689, Control_c, 0, 64, 95
1, 7703, Control_c, 0, 64, 92
1, 7718, Control_c, 0, 64, 89
1, 7733, Control_c, 0, 64, 85
1, 7748, Control_c, 0, 64, 81
1, 7762, Control_c, 0, 64, 75
1, 7777, Control_c, 0, 64, 70
1, 7779, Note_on_c, 0, 65, 99
1, 7792, Control_c, 0, 64, 65
1, 7807, Control_c, 0, 64, 60
1, 7822, Control_c, 0, 64, 54
1, 7836, Control_c, 0, 64, 47
1, 7851, Control_c, 0, 64, 33
1, 7856, Note_on_c, 0, 67, 92
1, 7866, Control_c, 0, 64, 0
1, 7880, Note_off_c, 0, 65, 63
1, 7931, Note_on_c, 0, 68, 85
1, 7963, Note_off_c, 0, 67, 64
1, 8002, Note_on_c, 0, 70, 88
1, 8009, Note_off_c, 0, 68, 65
1, 8101, Note_on_c, 0, 72, 100
1, 8104, Note_on_c, 0, 36, 85
1, 8110, Note_off_c, 0, 70, 61
1, 8143, Note_off_c, 0, 72, 69
1, 8157, Note_off_c, 0, 36, 63
1, 8270, Note_on_c, 0, 60, 85
1, 8273, Note_on_c, 0, 48, 76
1, 8308, Note_off_c, 0, 48, 64
1, 8309, Note_off_c, 0, 60, 65
1, 8420, Note_on_c, 0, 36, 86
1, 8421, Note_on_c, 0, 72, 97
1, 8460, Note_off_c, 0, 72, 65
1, 8473, Note_off_c, 0, 36, 61
1, 8587, Note_on_c, 0, 48, 82
1, 8590, Note_on_c, 0, 60, 80
1, 8625, Note_off_c, 0, 60, 65
1, 8631, Note_off_c, 0, 48, 61
1, 8738, Note_on_c, 0, 72, 95
1, 8740, Note_on_c, 0, 36, 85
1, 8783, Note_off_c, 0, 72, 66
1, 8803, Note_off_c, 0, 36, 62
1, 8917, Note_on_c, 0, 48, 62
1, 8920, Note_on_c, 0, 60, 56
1, 8949, Note_off_c, 0, 48, 64
1, 8951, Note_off_c, 0, 60, 65
1, 9081, Note_on_c, 0, 70, 55
1, 9088, Note_on_c, 0, 36, 47
1, 9097, Note_on_c, 0, 67, 27
1, 9119, Note_off_c, 0, 70, 65
1, 9126, Note_off_c, 0, 36, 62
1, 9128, Note_off_c, 0, 67, 42
1, 9255, Note_on_c, 0, 48, 55
1, 9263, Note_on_c, 0, 68, 54
1, 9266, Note_on_c, 0, 65, 54
1, 9293, Note_off_c, 0, 48, 63
1, 9308, Note_off_c, 0, 68, 59
1, 9323, Note_off_c, 0, 65, 56
1, 9353, Note_on_c, 0, 67, 50
1, 9362, Note_on_c, 0, 64, 52
1, 9399, Note_off_c, 0, 64, 61
1, 9407, Note_off_c, 0, 67, 63
1, 9409, Note_on_c, 0, 36, 43
1, 9427, Note_on_c, 0, 68, 53
1, 9442, Note_on_c, 0, 65, 45
1, 9460, Note_off_c, 0, 36, 59
1, 9480, Note_off_c, 0, 65, 62
1, 9505, Note_off_c, 0, 68, 57
1, 9507, Note_on_c, 0, 70, 61
1, 9511, Note_on_c, 0, 67, 24
1, 9566, Note_off_c, 0, 67, 0
1, 9566, Note_on_c, 0, 67, 30
1, 9569, Note_on_c, 0, 48, 60
1, 9579, Note_off_c, 0, 70, 63
1, 9582, Note_on_c, 0, 64, 63
1, 9610, Note_off_c, 0, 48, 63
1, 9643, Note_off_c, 0, 64, 0
1, 9681, Poly_aftertouch_c, 0, 64, 127
1, 9749, Note_on_c, 0, 36, 45
1, 9782, Note_off_c, 0, 36, 58
1, 9894, Note_on_c, 0, 48, 73
1, 9918, Poly_aftertouch_c, 0, 64, 0
1, 9922, Note_off_c, 0, 48, 65
1, 9934, Note_off_c, 0, 67, 64
1, 10041, Note_on_c, 0, 36, 87
1, 10042, Note_on_c, 0, 72, 98
1, 10092, Note_off_c, 0, 72, 67
1, 10093, Note_off_c, 0, 36, 62
1, 10202, Note_on_c, 0, 48, 89
1, 10206, Note_on_c, 0, 60, 88
1, 10244, Note_off_c, 0, 48, 63
1, 10249, Note_off_c, 0, 60, 64
1, 10360, Note_on_c, 0, 36, 90
1, 10362, Note_on_c, 0, 72, 98
1, 10531, Note_on_c, 0, 37, 73
1, 10536, Note_on_c, 0, 73, 89
1, 10536, Note_off_c, 0, 36, 64
1, 10542, Note_off_c, 0, 72, 64
1, 10568, Note_off_c, 0, 37, 65
1, 10574, Note_off_c, 0, 73, 68
1, 10696, Note_on_c, 0, 49, 64
1, 10706, Note_on_c, 0, 61, 65
1, 10725, Note_off_c, 0, 49, 66
1, 10741, Note_off_c, 0, 61, 64
1, 10851, Note_on_c, 0, 73, 68
1, 10862, Note_on_c, 0, 37, 42
1, 10896, Note_off_c, 0, 73, 62
1, 10916, Note_off_c, 0, 37, 55
1, 11041, Note_on_c, 0, 68, 60
1, 11052, Note_on_c, 0, 36, 37
1, 11064, Note_on_c, 0, 72, 52
1, 11102, Note_off_c, 0, 68, 57
1, 11119, Note_off_c, 0, 36, 51
1, 11130, Note_off_c, 0, 72, 63
1, 11139, Note_on_c, 0, 67, 57
1, 11153, Note_on_c, 0, 70, 44
1, 11180, Note_off_c, 0, 67, 62
1, 11196, Note_off_c, 0, 70, 65
1, 11210, Note_on_c, 0, 68, 60
1, 11213, Note_on_c, 0, 48, 53
1, 11221, Note_on_c, 0, 65, 54
1, 11245, Note_off_c, 0, 68, 63
1, 11251, Note_off_c, 0, 48, 63
1, 11254, Note_off_c, 0, 65, 61
1, 11292, Note_on_c, 0, 70, 55
1, 11300, Note_on_c, 0, 67, 44
1, 11332, Note_off_c, 0, 70, 64
1, 11332, Note_off_c, 0, 67, 57
1, 11342, Note_on_c, 0, 68, 50
1, 11357, Note_on_c, 0, 36, 40
1, 11365, Note_off_c, 0, 68, 60
1, 11383, Note_on_c, 0, 65, 54
1, 11404, Note_off_c, 0, 36, 55
1, 11422, Note_off_c, 0, 65, 60
1, 11440, Note_on_c, 0, 67, 51
1, 11465, Note_on_c, 0, 64, 50
1, 11482, Note_off_c, 0, 67, 63
1, 11502, Note_off_c, 0, 64, 64
1, 11507, Note_on_c, 0, 41, 48
1, 11523, Note_on_c, 0, 65, 65
1, 11537, Control_c, 0, 64, 11
1, 11550, Note_off_c, 0, 41, 60
1, 11551, Control_c, 0, 64, 41
1, 11552, Note_off_c, 0, 65, 65
1, 11566, Control_c, 0, 64, 51
1, 11581, Control_c, 0, 64, 56
1, 11596, Control_c, 0, 64, 60
1, 11610, Control_c, 0, 64, 63
1, 11625, Control_c, 0, 64, 67
1, 11640, Control_c, 0, 64, 73
1, 11655, Control_c, 0, 64, 81
1, 11670, Control_c, 0, 64, 93
1, 11684, Control_c, 0, 64, 116
1, 11697, Note_on_c, 0, 77, 95
1, 11699, Control_c, 0, 64, 127
1, 11769, Note_on_c, 0, 79, 90
1, 11788, Control_c, 0, 64, 115
1, 11800, Note_off_c, 0, 77, 58
1, 11810, Control_c, 0, 64, 99
1, 11825, Control_c, 0, 64, 87
1, 11840, Control_c, 0, 64, 77
1, 11850, Note_on_c, 0, 80, 89
1, 11855, Control_c, 0, 64, 66
1, 11870, Control_c, 0, 64, 60
1, 11873, Note_off_c, 0, 79, 64
1, 11884, Control_c, 0, 64, 51
1, 11899, Control_c, 0, 64, 44
1, 11914, Control_c, 0, 64, 32
1, 11921, Note_on_c, 0, 82, 87
1, 11926, Note_off_c, 0, 80, 68
1, 11928, Control_c, 0, 64, 0
1, 11994, Note_on_c, 0, 84, 96
1, 11997, Note_on_c, 0, 48, 83
1, 12004, Note_off_c, 0, 82, 61
1, 12032, Note_off_c, 0, 84, 69
1, 12044, Note_off_c, 0, 48, 62
1, 12159, Note_on_c, 0, 60, 78
1, 12165, Note_on_c, 0, 72, 86
1, 12192, Note_off_c, 0, 60, 66
1, 12206, Note_off_c, 0, 72, 65
1, 12307, Note_on_c, 0, 84, 101
1, 12311, Note_on_c, 0, 48, 88
1, 12353, Note_off_c, 0, 84, 68
1, 12357, Note_off_c, 0, 48, 65
1, 12471, Note_on_c, 0, 60, 80
1, 12475, Note_on_c, 0, 72, 82
1, 12505, Note_off_c, 0, 60, 64
1, 12518, Note_off_c, 0, 72, 64
1, 12626, Note_on_c, 0, 84, 104
1, 12632, Note_on_c, 0, 48, 90
1, 12669, Note_off_c, 0, 84, 68
1, 12678, Note_off_c, 0, 48, 64
1, 12800, Note_on_c, 0, 72, 61
1, 12802, Note_on_c, 0, 60, 61
1, 12826, Note_off_c, 0, 60, 64
1, 12831, Note_off_c, 0, 72, 66
1, 12962, Note_on_c, 0, 79, 55
1, 12963, Note_on_c, 0, 82, 63
1, 12965, Note_on_c, 0, 47, 47
1, 12995, Note_off_c, 0, 79, 66
1, 13013, Note_off_c, 0, 82, 62
1, 13013, Note_off_c, 0, 47, 58
1, 13138, Note_on_c, 0, 80, 61
1, 13141, Note_on_c, 0, 59, 57
1, 13150, Note_on_c, 0, 77, 63
1, 13180, Note_off_c, 0, 59, 64
1, 13193, Note_off_c, 0, 80, 59
1, 13198, Note_off_c, 0, 77, 58
1, 13222, Note_on_c, 0, 79, 66
1, 13249, Note_on_c, 0, 76, 45
1, 13267, Note_off_c, 0, 79, 63
1, 13276, Note_off_c, 0, 76, 56
1, 13304, Note_on_c, 0, 80, 63
1, 13316, Note_on_c, 0, 77, 56
1, 13320, Note_on_c, 0, 47, 37
1, 13349, Note_off_c, 0, 47, 56
1, 13351, Note_off_c, 0, 77, 60
1, 13362, Note_on_c, 0, 79, 68
1, 13386, Note_off_c, 0, 80, 61
1, 13390, Note_off_c, 0, 79, 69
1, 13391, Note_on_c, 0, 82, 61
1, 13441, Note_off_c, 0, 82, 61
1, 13448, Note_on_c, 0, 79, 72
1, 13457, Note_on_c, 0, 76, 59
1, 13467, Note_on_c, 0, 60, 66
1, 13501, Note_off_c, 0, 60, 64
1, 13623, Note_on_c, 0, 48, 61
1, 13657, Note_off_c, 0, 48, 63
1, 13766, Note_on_c, 0, 60, 83
1, 13779, Note_off_c, 0, 76, 63
1, 13802, Note_off_c, 0, 60, 65
1, 13804, Note_off_c, 0, 79, 65
1, 13916, Note_on_c, 0, 84, 100
1, 13917, Note_on_c, 0, 48, 93
1, 13958, Note_off_c, 0, 48, 67
1, 13959, Note_off_c, 0, 84, 67
1, 14083, Note_on_c, 0, 72, 88
1, 14086, Note_on_c, 0, 60, 90
1, 14101, Control_c, 0, 64, 12
1, 14116, Control_c, 0, 64, 17
1, 14128, Note_off_c, 0, 72, 64
1, 14130, Note_off_c, 0, 60, 64
1, 14131, Control_c, 0, 64, 18
1, 14161, Control_c, 0, 64, 19
1, 14240, Note_on_c, 0, 48, 82
1, 14240, Note_on_c, 0, 84, 96
1, 14410, Note_off_c, 0, 48, 64
1, 14411, Note_on_c, 0, 49, 68
1, 14414, Note_on_c, 0, 85, 87
1, 14421, Note_off_c, 0, 84, 64
1, 14444, Note_off_c, 0, 49, 66
1, 14455, Note_off_c, 0, 85, 68
1, 14590, Note_on_c, 0, 73, 60
1, 14591, Note_on_c, 0, 61, 50
1, 14617, Note_off_c, 0, 61, 61
1, 14624, Note_off_c, 0, 73, 63
1, 14757, Note_on_c, 0, 49, 45
1, 14760, Note_on_c, 0, 85, 66
1, 14785, Note_off_c, 0, 85, 68
1, 14825, Note_off_c, 0, 49, 59
1, 14939, Control_c, 0, 64, 20
1, 14963, Note_on_c, 0, 49, 37
1, 14987, Note_on_c, 0, 70, 55
1, 14990, Note_on_c, 0, 73, 51
1, 15055, Note_off_c, 0, 70, 62
1, 15080, Note_off_c, 0, 73, 60
1, 15084, Note_on_c, 0, 68, 63
1, 15094, Note_on_c, 0, 71, 39
1, 15124, Note_off_c, 0, 68, 63
1, 15157, Note_off_c, 0, 71, 65
1, 15160, Note_on_c, 0, 70, 63
1, 15168, Note_off_c, 0, 49, 60
1, 15171, Note_on_c, 0, 61, 48
1, 15172, Note_on_c, 0, 66, 61
1, 15189, Note_off_c, 0, 70, 67
1, 15216, Note_off_c, 0, 66, 61
1, 15222, Note_on_c, 0, 68, 68
1, 15238, Note_off_c, 0, 61, 50
1, 15256, Note_on_c, 0, 71, 52
1, 15269, Note_off_c, 0, 68, 58
1, 15284, Note_off_c, 0, 71, 63
1, 15289, Note_on_c, 0, 70, 61
1, 15302, Note_on_c, 0, 49, 53
1, 15314, Note_on_c, 0, 66, 64
1, 15318, Note_off_c, 0, 70, 67
1, 15345, Note_off_c, 0, 66, 66
1, 15383, Note_on_c, 0, 68, 70
1, 15400, Note_on_c, 0, 65, 60
1, 15440, Note_off_c, 0, 65, 55
1, 15450, Note_off_c, 0, 49, 52
1, 15463, Note_on_c, 0, 66, 75
1, 15465, Note_on_c, 0, 70, 78
1, 15473, Note_on_c, 0, 61, 73
1, 15477, Note_off_c, 0, 68, 31
1, 15491, Note_off_c, 0, 66, 66
1, 15502, Note_off_c, 0, 70, 62
1, 15509, Note_off_c, 0, 61, 59
1, 15629, Note_on_c, 0, 49, 58
1, 15636, Note_on_c, 0, 70, 79
1, 15636, Note_on_c, 0, 66, 79
1, 15665, Note_off_c, 0, 66, 63
1, 15681, Note_off_c, 0, 70, 62
1, 15692, Note_off_c, 0, 49, 54
1, 15716, Control_c, 0, 64, 19
1, 15731, Control_c, 0, 64, 17
1, 15746, Control_c, 0, 64, 17
1, 15791, Note_on_c, 0, 61, 74
1, 15792, Note_on_c, 0, 66, 84
1, 15792, Note_on_c, 0, 70, 87
1, 15826, Note_off_c, 0, 66, 64
1, 15839, Note_off_c, 0, 61, 58
1, 15842, Note_off_c, 0, 70, 64
1, 15909, Control_c, 0, 64, 16
1, 15923, Control_c, 0, 64, 15
1, 15946, Note_on_c, 0, 49, 62
1, 15950, Note_on_c, 0, 71, 89
1, 15952, Note_on_c, 0, 65, 87
1, 15952, Note_on_c, 0, 68, 85
1, 15975, Note_off_c, 0, 65, 66
1, 15989, Note_off_c, 0, 49, 60
1, 15991, Note_off_c, 0, 71, 65
1, 15994, Note_off_c, 0, 68, 61
1, 16107, Note_on_c, 0, 71, 90
1, 16109, Note_on_c, 0, 68, 87
1, 16110, Note_on_c, 0, 65, 87
1, 16113, Note_on_c, 0, 61, 71
1, 16142, Note_off_c, 0, 65, 63
1, 16157, Note_off_c, 0, 68, 62
1, 16161, Note_off_c, 0, 71, 63
1, 16181, Note_off_c, 0, 61, 55
1, 16260, Note_on_c, 0, 71, 93
1, 16262, Note_on_c, 0, 65, 85
1, 16263, Note_on_c, 0, 68, 86
1, 16272, Note_on_c, 0, 49, 61
1, 16280, Control_c, 0, 64, 16
1, 16283, Note_off_c, 0, 65, 69
1, 16302, Control_c, 0, 64, 17
1, 16305, Note_off_c, 0, 68, 65
1, 16312, Note_off_c, 0, 71, 66
1, 16332, Control_c, 0, 64, 17
1, 16346, Control_c, 0, 64, 18
1, 16390, Note_off_c, 0, 49, 59
1, 16435, Note_on_c, 0, 80, 90
1, 16436, Note_on_c, 0, 83, 96
1, 16438, Note_on_c, 0, 77, 93
1, 16445, Note_on_c, 0, 61, 79
1, 16465, Control_c, 0, 64, 19
1, 16467, Note_off_c, 0, 77, 65
1, 16475, Note_off_c, 0, 83, 65
1, 16481, Note_off_c, 0, 80, 64
1, 16531, Note_off_c, 0, 61, 58
1, 16569, Control_c, 0, 64, 20
1, 16584, Control_c, 0, 64, 22
1, 16597, Note_on_c, 0, 80, 91
1, 16598, Note_on_c, 0, 83, 95
1, 16598, Control_c, 0, 64, 26
1, 16599, Note_on_c, 0, 49, 68
1, 16599, Note_on_c, 0, 77, 90
1, 16613, Control_c, 0, 64, 29
1, 16628, Control_c, 0, 64, 32
1, 16631, Note_off_c, 0, 77, 64
1, 16643, Control_c, 0, 64, 35
1, 16646, Note_off_c, 0, 83, 65
1, 16650, Note_off_c, 0, 80, 63
1, 16658, Control_c, 0, 64, 39
1, 16672, Control_c, 0, 64, 45
1, 16677, Note_off_c, 0, 49, 62
1, 16687, Control_c, 0, 64, 51
1, 16702, Control_c, 0, 64, 57
1, 16717, Control_c, 0, 64, 61
1, 16732, Control_c, 0, 64, 65
1, 16746, Control_c, 0, 64, 71
1, 16751, Note_on_c, 0, 80, 89
1, 16754, Note_on_c, 0, 83, 93
1, 16757, Note_on_c, 0, 77, 84
1, 16761, Control_c, 0, 64, 82
1, 16766, Note_on_c, 0, 61, 89
1, 16776, Control_c, 0, 64, 111
1, 16778, Note_off_c, 0, 77, 70
1, 16792, Control_c, 0, 64, 127
1, 16794, Note_off_c, 0, 80, 66
1, 16799, Poly_aftertouch_c, 0, 53, 127
1, 16803, Note_off_c, 0, 83, 66
1, 16817, Note_off_c, 0, 61, 62
1, 16840, Poly_aftertouch_c, 0, 53, 0
1, 16895, Control_c, 0, 64, 87
1, 16910, Control_c, 0, 64, 65
1, 16925, Control_c, 0, 64, 46
1, 16940, Control_c, 0, 64, 47
1, 16951, Note_on_c, 0, 92, 91
1, 16955, Control_c, 0, 64, 55
1, 16956, Note_on_c, 0, 96, 77
1, 16957, Note_on_c, 0, 48, 71
1, 16969, Control_c, 0, 64, 63
1, 16984, Control_c, 0, 64, 70
1, 16999, Control_c, 0, 64, 85
1, 17013, Note_on_c, 0, 94, 79
1, 17014, Control_c, 0, 64, 127
1, 17019, Note_off_c, 0, 92, 65
1, 17051, Note_on_c, 0, 91, 71
1, 17058, Note_off_c, 0, 96, 64
1, 17083, Note_off_c, 0, 48, 54
1, 17103, Note_off_c, 0, 91, 63
1, 17105, Note_on_c, 0, 89, 79
1, 17105, Note_on_c, 0, 92, 82
1, 17109, Note_off_c, 0, 94, 63
1, 17121, Note_on_c, 0, 60, 76
1, 17134, Note_off_c, 0, 92, 64
1, 17158, Note_off_c, 0, 89, 61
1, 17169, Note_on_c, 0, 91, 78
1, 17175, Note_on_c, 0, 94, 82
1, 17177, Note_off_c, 0, 60, 63
1, 17221, Note_on_c, 0, 92, 73
1, 17225, Note_off_c, 0, 91, 64
1, 17230, Note_off_c, 0, 94, 64
1, 17239, Note_on_c, 0, 48, 65
1, 17246, Note_on_c, 0, 89, 89
1, 17249, Note_off_c, 0, 92, 68
1, 17288, Control_c, 0, 64, 85
1, 17302, Note_off_c, 0, 89, 53
1, 17303, Control_c, 0, 64, 69
1, 17316, Note_on_c, 0, 88, 83
1, 17317, Note_on_c, 0, 91, 85
1, 17318, Control_c, 0, 64, 65
1, 17332, Control_c, 0, 64, 67
1, 17347, Control_c, 0, 64, 74
1, 17350, Note_off_c, 0, 48, 55
1, 17362, Control_c, 0, 64, 98
1, 17368, Note_off_c, 0, 91, 65
1, 17377, Control_c, 0, 64, 127
1, 17387, Note_off_c, 0, 88, 61
1, 17391, Note_on_c, 0, 53, 89
1, 17398, Note_on_c, 0, 89, 106
1, 17427, Note_off_c, 0, 53, 64
1, 17446, Note_off_c, 0, 89, 66
1, 17525, Control_c, 0, 64, 80
1, 17539, Control_c, 0, 64, 55
1, 17554, Control_c, 0, 64, 39
1, 17569, Control_c, 0, 64, 49
1, 17579, Note_on_c, 0, 91, 95
1, 17585, Note_on_c, 0, 64, 101
1, 17585, Control_c, 0, 64, 59
1, 17589, Note_on_c, 0, 53, 98
1, 17589, Note_on_c, 0, 61, 90
1, 17595, Note_on_c, 0, 58, 84
1, 17600, Control_c, 0, 64, 68
1, 17615, Control_c, 0, 64, 85
1, 17630, Control_c, 0, 64, 127
1, 17634, Note_off_c, 0, 91, 64
1, 17644, Note_on_c, 0, 92, 80
1, 17692, Note_on_c, 0, 91, 83
1, 17692, Note_off_c, 0, 92, 64
1, 17744, Note_off_c, 0, 91, 64
1, 17758, Note_on_c, 0, 92, 75
1, 17802, Note_off_c, 0, 92, 63
1, 17809, Note_on_c, 0, 91, 81
1, 17860, Note_off_c, 0, 91, 63
1, 17875, Note_on_c, 0, 92, 79
1, 17904, Note_off_c, 0, 92, 65
1, 17913, Note_on_c, 0, 91, 79
1, 17964, Note_off_c, 0, 91, 63
1, 17977, Note_on_c, 0, 92, 87
1, 18020, Note_off_c, 0, 92, 64
1, 18022, Note_on_c, 0, 91, 81
1, 18072, Note_off_c, 0, 91, 63
1, 18085, Note_on_c, 0, 90, 77
1, 18109, Note_off_c, 0, 53, 62
1, 18113, Note_off_c, 0, 64, 57
1, 18125, Note_off_c, 0, 90, 66
1, 18131, Note_off_c, 0, 58, 59
1, 18134, Note_off_c, 0, 61, 53
1, 18137, Note_on_c, 0, 91, 88
1, 18185, Note_off_c, 0, 91, 64
1, 18206, Note_on_c, 0, 92, 84
1, 18259, Control_c, 0, 64, 116
1, 18266, Note_on_c, 0, 91, 87
1, 18274, Control_c, 0, 64, 71
1, 18274, Note_off_c, 0, 92, 66
1, 18289, Control_c, 0, 64, 47
1, 18304, Control_c, 0, 64, 53
1, 18317, Note_off_c, 0, 91, 66
1, 18318, Control_c, 0, 64, 65
1, 18326, Note_on_c, 0, 65, 91
1, 18328, Note_on_c, 0, 89, 99
1, 18331, Note_on_c, 0, 53, 77
1, 18333, Control_c, 0, 64, 82
1, 18334, Note_on_c, 0, 60, 64
1, 18337, Note_on_c, 0, 56, 80
1, 18348, Control_c, 0, 64, 127
1, 18381, Note_off_c, 0, 89, 67
1, 18390, Note_off_c, 0, 65, 61
1, 18394, Control_c, 0, 64, 86
1, 18395, Note_off_c, 0, 53, 62
1, 18404, Note_off_c, 0, 60, 63
1, 18408, Control_c, 0, 64, 64
1, 18423, Control_c, 0, 64, 19
1, 18438, Control_c, 0, 64, 0
1, 18481, Note_off_c, 0, 56, 58
1, 18552, Note_on_c, 0, 64, 97
1, 18555, Note_on_c, 0, 61, 92
1, 18558, Note_on_c, 0, 53, 86
1, 18558, Note_on_c, 0, 58, 83
1, 18561, Note_on_c, 0, 79, 96
1, 18593, Note_on_c, 0, 81, 37
1, 18594, Note_off_c, 0, 81, 127
1, 18615, Note_off_c, 0, 79, 65
1, 18623, Control_c, 0, 64, 17
1, 18626, Note_on_c, 0, 80, 76
1, 18638, Control_c, 0, 64, 39
1, 18653, Control_c, 0, 64, 49
1, 18668, Control_c, 0, 64, 56
1, 18681, Note_off_c, 0, 80, 63
1, 18683, Control_c, 0, 64, 62
1, 18689, Note_on_c, 0, 79, 82
1, 18698, Control_c, 0, 64, 66
1, 18713, Control_c, 0, 64, 71
1, 18728, Control_c, 0, 64, 79
1, 18742, Control_c, 0, 64, 92
1, 18743, Note_off_c, 0, 79, 64
1, 18745, Note_on_c, 0, 80, 75
1, 18757, Control_c, 0, 64, 127
1, 18797, Note_off_c, 0, 80, 62
1, 18799, Note_on_c, 0, 79, 75
1, 18850, Note_off_c, 0, 79, 65
1, 18854, Note_on_c, 0, 80, 73
1, 18901, Note_off_c, 0, 80, 63
1, 18909, Note_on_c, 0, 79, 79
1, 18954, Note_off_c, 0, 79, 64
1, 18969, Note_on_c, 0, 78, 78
1, 19002, Note_off_c, 0, 78, 66
1, 19013, Note_off_c, 0, 53, 60
1, 19020, Note_off_c, 0, 64, 58
1, 19026, Note_on_c, 0, 79, 89
1, 19037, Note_off_c, 0, 58, 59
1, 19038, Note_off_c, 0, 61, 53
1, 19074, Note_off_c, 0, 79, 63
1, 19100, Note_on_c, 0, 80, 78
1, 19163, Note_off_c, 0, 80, 66
1, 19167, Note_on_c, 0, 79, 86
1, 19187, Control_c, 0, 64, 117
1, 19202, Control_c, 0, 64, 94
1, 19217, Control_c, 0, 64, 77
1, 19218, Note_off_c, 0, 79, 68
1, 19231, Control_c, 0, 64, 67
1, 19236, Note_on_c, 0, 60, 53
1, 19238, Note_on_c, 0, 77, 94
1, 19239, Note_on_c, 0, 65, 88
1, 19244, Note_on_c, 0, 53, 74
1, 19246, Control_c, 0, 64, 62
1, 19252, Note_on_c, 0, 56, 71
1, 19261, Control_c, 0, 64, 60
1, 19276, Control_c, 0, 64, 59
1, 19298, Control_c, 0, 64, 57
1, 19302, Note_off_c, 0, 77, 65
1, 19308, Note_off_c, 0, 65, 61
1, 19313, Control_c, 0, 64, 50
1, 19316, Note_off_c, 0, 53, 62
1, 19322, Note_off_c, 0, 60, 64
1, 19328, Control_c, 0, 64, 43
1, 19343, Control_c, 0, 64, 36
1, 19358, Control_c, 0, 64, 30
1, 19372, Control_c, 0, 64, 15
1, 19383, Note_off_c, 0, 56, 60
1, 19387, Control_c, 0, 64, 0
1, 19464, Note_on_c, 0, 64, 102
1, 19466, Note_on_c, 0, 61, 93
1, 19467, Note_on_c, 0, 91, 90
1, 19470, Note_on_c, 0, 58, 82
1, 19471, Note_on_c, 0, 53, 87
1, 19476, Control_c, 0, 64, 45
1, 19490, Control_c, 0, 64, 61
1, 19503, Note_on_c, 0, 92, 83
1, 19505, Control_c, 0, 64, 64
1, 19506, Note_off_c, 0, 91, 65
1, 19520, Control_c, 0, 64, 65
1, 19535, Control_c, 0, 64, 68
1, 19535, Note_on_c, 0, 94, 33
1, 19547, Note_off_c, 0, 92, 62
1, 19550, Control_c, 0, 64, 73
1, 19564, Control_c, 0, 64, 81
1, 19569, Note_off_c, 0, 94, 32
1, 19571, Note_on_c, 0, 91, 76
1, 19579, Control_c, 0, 64, 93
1, 19594, Control_c, 0, 64, 127
1, 19600, Note_off_c, 0, 91, 64
1, 19620, Note_on_c, 0, 92, 77
1, 19661, Note_off_c, 0, 92, 59
1, 19668, Note_on_c, 0, 91, 79
1, 19706, Note_off_c, 0, 91, 64
1, 19714, Note_on_c, 0, 90, 82
1, 19743, Note_off_c, 0, 90, 57
1, 19761, Note_on_c, 0, 91, 66
1, 19772, Note_on_c, 0, 92, 79
1, 19798, Note_off_c, 0, 91, 64
1, 19817, Note_on_c, 0, 94, 85
1, 19825, Note_off_c, 0, 92, 64
1, 19836, Note_off_c, 0, 94, 73
1, 19860, Control_c, 0, 64, 109
1, 19869, Note_on_c, 0, 96, 89
1, 19875, Control_c, 0, 64, 97
1, 19890, Control_c, 0, 64, 88
1, 19905, Control_c, 0, 64, 81
1, 19909, Note_on_c, 0, 97, 81
1, 19917, Note_off_c, 0, 96, 66
1, 19920, Control_c, 0, 64, 73
1, 19935, Control_c, 0, 64, 67
1, 19946, Note_on_c, 0, 100, 80
1, 19950, Control_c, 0, 64, 63
1, 19962, Note_off_c, 0, 97, 64
1, 19964, Control_c, 0, 64, 60
1, 19977, Note_on_c, 0, 101, 83
1, 19980, Control_c, 0, 64, 57
1, 19994, Note_off_c, 0, 100, 64
1, 19994, Control_c, 0, 64, 54
1, 20009, Control_c, 0, 64, 51
1, 20024, Control_c, 0, 64, 47
1, 20036, Note_on_c, 0, 100, 70
1, 20046, Control_c, 0, 64, 42
1, 20061, Control_c, 0, 64, 40
1, 20069, Note_off_c, 0, 101, 65
1, 20070, Note_on_c, 0, 97, 84
1, 20090, Note_off_c, 0, 100, 67
1, 20091, Control_c, 0, 64, 39
1, 20117, Note_on_c, 0, 96, 81
1, 20118, Note_off_c, 0, 97, 65
1, 20135, Control_c, 0, 64, 39
1, 20152, Note_off_c, 0, 96, 64
1, 20165, Control_c, 0, 64, 39
1, 20169, Note_off_c, 0, 64, 57
1, 20170, Note_off_c, 0, 61, 56
1, 20173, Note_on_c, 0, 94, 89
1, 20180, Control_c, 0, 64, 40
1, 20194, Control_c, 0, 64, 40
1, 20205, Note_off_c, 0, 53, 54
1, 20209, Control_c, 0, 64, 41
1, 20213, Note_on_c, 0, 92, 85
1, 20224, Control_c, 0, 64, 41
1, 20253, Note_on_c, 0, 91, 84
1, 20269, Control_c, 0, 64, 42
1, 20270, Note_off_c, 0, 94, 63
1, 20285, Note_off_c, 0, 92, 66
1, 20304, Note_on_c, 0, 65, 86
1, 20310, Note_on_c, 0, 89, 95
1, 20310, Note_on_c, 0, 53, 79
1, 20310, Note_on_c, 0, 60, 36
1, 20311, Note_off_c, 0, 91, 66
1, 20315, Note_on_c, 0, 56, 69
1, 20326, Note_off_c, 0, 58, 56
1, 20358, Control_c, 0, 64, 41
1, 20364, Note_off_c, 0, 89, 66
1, 20368, Note_off_c, 0, 60, 64
1, 20370, Note_off_c, 0, 65, 57
1, 20375, Note_off_c, 0, 53, 62
1, 20459, Note_off_c, 0, 56, 63
1, 20532, Note_on_c, 0, 64, 100
1, 20532, Note_on_c, 0, 79, 85
1, 20535, Note_on_c, 0, 61, 87
1, 20537, Note_on_c, 0, 53, 83
1, 20537, Note_on_c, 0, 58, 79
1, 20565, Control_c, 0, 64, 40
1, 20579, Note_off_c, 0, 79, 65
1, 20579, Control_c, 0, 64, 39
1, 20582, Note_on_c, 0, 80, 74
1, 20594, Control_c, 0, 64, 39
1, 20617, Note_off_c, 0, 80, 64
1, 20624, Control_c, 0, 64, 38
1, 20635, Note_on_c, 0, 79, 61
1, 20653, Control_c, 0, 64, 38
1, 20666, Note_off_c, 0, 79, 68
1, 20668, Control_c, 0, 64, 37
1, 20684, Note_on_c, 0, 80, 77
1, 20732, Note_on_c, 0, 79, 79
1, 20737, Note_off_c, 0, 80, 49
1, 20770, Note_off_c, 0, 79, 66
1, 20772, Control_c, 0, 64, 37
1, 20792, Note_on_c, 0, 78, 78
1, 20818, Note_off_c, 0, 78, 63
1, 20825, Control_c, 0, 64, 38
1, 20837, Note_on_c, 0, 79, 59
1, 20856, Note_on_c, 0, 80, 78
1, 20877, Note_off_c, 0, 79, 66
1, 20884, Control_c, 0, 64, 39
1, 20899, Control_c, 0, 64, 40
1, 20905, Note_on_c, 0, 82, 81
1, 20912, Note_off_c, 0, 80, 66
1, 20914, Control_c, 0, 64, 40
1, 20925, Note_off_c, 0, 82, 71
1, 20929, Control_c, 0, 64, 41
1, 20956, Note_on_c, 0, 84, 87
1, 20958, Control_c, 0, 64, 41
1, 21000, Note_on_c, 0, 85, 76
1, 21005, Note_off_c, 0, 84, 65
1, 21043, Note_on_c, 0, 88, 74
1, 21056, Note_off_c, 0, 85, 66
1, 21067, Note_on_c, 0, 89, 73
1, 21074, Note_off_c, 0, 88, 66
1, 21110, Note_off_c, 0, 89, 65
1, 21114, Note_on_c, 0, 91, 80
1, 21162, Note_on_c, 0, 89, 74
1, 21189, Note_off_c, 0, 91, 64
1, 21202, Note_on_c, 0, 88, 63
1, 21225, Control_c, 0, 64, 42
1, 21238, Note_on_c, 0, 85, 79
1, 21239, Note_off_c, 0, 88, 65
1, 21241, Note_off_c, 0, 89, 64
1, 21254, Control_c, 0, 64, 42
1, 21269, Control_c, 0, 64, 43
1, 21283, Note_off_c, 0, 85, 66
1, 21285, Note_on_c, 0, 84, 73
1, 21315, Note_off_c, 0, 84, 63
1, 21342, Note_on_c, 0, 82, 81
1, 21385, Note_on_c, 0, 80, 76
1, 21434, Note_on_c, 0, 79, 78
1, 21434, Note_off_c, 0, 82, 63
1, 21454, Note_off_c, 0, 80, 64
1, 21484, Note_on_c, 0, 77, 79
1, 21485, Note_off_c, 0, 79, 65
1, 21521, Note_off_c, 0, 77, 64
1, 21543, Control_c, 0, 64, 42
1, 21548, Note_on_c, 0, 76, 80
1, 21558, Control_c, 0, 64, 42
1, 21601, Note_on_c, 0, 73, 83
1, 21604, Control_c, 0, 64, 41
1, 21610, Note_off_c, 0, 76, 63
1, 21619, Control_c, 0, 64, 41
1, 21634, Control_c, 0, 64, 40
1, 21648, Control_c, 0, 64, 40
1, 21653, Note_off_c, 0, 73, 67
1, 21662, Note_on_c, 0, 72, 75
1, 21663, Control_c, 0, 64, 39
1, 21678, Control_c, 0, 64, 37
1, 21692, Control_c, 0, 64, 35
1, 21694, Note_off_c, 0, 72, 64
1, 21707, Control_c, 0, 64, 32
1, 21722, Control_c, 0, 64, 30
1, 21723, Note_on_c, 0, 70, 72
1, 21737, Control_c, 0, 64, 26
1, 21752, Control_c, 0, 64, 22
1, 21766, Control_c, 0, 64, 12
1, 21771, Note_on_c, 0, 68, 73
1, 21781, Control_c, 0, 64, 0
1, 21805, Note_off_c, 0, 70, 61
1, 21825, Note_off_c, 0, 68, 60
1, 21836, Note_on_c, 0, 67, 76
1, 21881, Note_off_c, 0, 67, 62
1, 21900, Note_on_c, 0, 66, 60
1, 21945, Note_off_c, 0, 66, 63
1, 21973, Note_on_c, 0, 67, 66
1, 22011, Note_off_c, 0, 67, 62
1, 22046, Note_on_c, 0, 68, 64
1, 22093, Note_off_c, 0, 68, 60
1, 22126, Note_on_c, 0, 69, 61
1, 22172, Note_off_c, 0, 69, 56
1, 22203, Note_on_c, 0, 70, 60
1, 22257, Note_off_c, 0, 64, 50
1, 22257, Note_off_c, 0, 53, 44
1, 22257, Note_off_c, 0, 70, 58
1, 22307, Note_on_c, 0, 71, 63
1, 22331, Note_off_c, 0, 61, 54
1, 22364, Note_off_c, 0, 58, 58
1, 22377, Note_off_c, 0, 71, 51
1, 22409, Note_on_c, 0, 72, 54
1, 22486, Note_off_c, 0, 72, 59
1, 22497, Note_on_c, 0, 73, 52
1, 22615, Note_off_c, 0, 73, 57
1, 22636, Note_on_c, 0, 53, 47
1, 22642, Note_on_c, 0, 72, 59
1, 22683, Note_off_c, 0, 72, 63
1, 22686, Note_off_c, 0, 53, 60
1, 22862, Note_on_c, 0, 72, 56
1, 22874, Note_on_c, 0, 56, 43
1, 22883, Note_on_c, 0, 65, 36
1, 22909, Note_off_c, 0, 72, 61
1, 22915, Note_off_c, 0, 65, 53
1, 22918, Note_off_c, 0, 56, 62
1, 22934, Note_on_c, 0, 73, 64
1, 22977, Note_off_c, 0, 73, 62
1, 23011, Note_on_c, 0, 53, 52
1, 23012, Note_on_c, 0, 72, 65
1, 23047, Note_off_c, 0, 72, 67
1, 23056, Note_off_c, 0, 53, 64
1, 23166, Note_on_c, 0, 73, 70
1, 23188, Note_off_c, 0, 73, 68
1, 23193, Note_on_c, 0, 65, 55
1, 23201, Note_on_c, 0, 56, 48
1, 23208, Note_on_c, 0, 72, 70
1, 23223, Note_on_c, 0, 60, 13
1, 23229, Note_off_c, 0, 65, 64
1, 23235, Note_off_c, 0, 72, 68
1, 23241, Note_off_c, 0, 56, 64
1, 23246, Note_off_c, 0, 60, 48
1, 23362, Note_on_c, 0, 72, 57
1, 23364, Note_on_c, 0, 53, 45
1, 23404, Note_off_c, 0, 53, 56
1, 23411, Note_off_c, 0, 72, 62
1, 23441, Note_on_c, 0, 73, 62
1, 23478, Note_off_c, 0, 73, 60
1, 23520, Note_on_c, 0, 56, 43
1, 23521, Note_on_c, 0, 65, 39
1, 23523, Note_on_c, 0, 72, 63
1, 23551, Note_off_c, 0, 65, 54
1, 23553, Note_off_c, 0, 72, 66
1, 23566, Note_off_c, 0, 56, 58
1, 23686, Note_on_c, 0, 72, 61
1, 23706, Note_on_c, 0, 53, 47
1, 23750, Note_off_c, 0, 53, 61
1, 23751, Note_off_c, 0, 72, 60
1, 23761, Note_on_c, 0, 71, 69
1, 23796, Note_off_c, 0, 71, 66
1, 23840, Note_on_c, 0, 56, 53
1, 23852, Note_on_c, 0, 62, 39
1, 23858, Note_on_c, 0, 59, 32
1, 23864, Note_on_c, 0, 71, 63
1, 23882, Note_off_c, 0, 62, 58
1, 23886, Note_off_c, 0, 56, 60
1, 23893, Note_off_c, 0, 59, 49
1, 23899, Note_off_c, 0, 71, 61
1, 23922, Note_on_c, 0, 74, 61
1, 24001, Note_on_c, 0, 72, 65
1, 24001, Note_off_c, 0, 74, 56
1, 24012, Note_on_c, 0, 53, 34
1, 24044, Note_off_c, 0, 53, 51
1, 24063, Note_off_c, 0, 72, 60
1, 24081, Note_on_c, 0, 71, 57
1, 24121, Note_off_c, 0, 71, 61
1, 24165, Note_on_c, 0, 48, 43
1, 24165, Note_on_c, 0, 72, 55
1, 24189, Note_off_c, 0, 72, 62
1, 24200, Note_off_c, 0, 48, 58
1, 24357, Note_on_c, 0, 60, 38
1, 24361, Note_on_c, 0, 55, 35
1, 24366, Note_on_c, 0, 52, 38
1, 24366, Note_on_c, 0, 67, 63
1, 24385, Note_off_c, 0, 60, 55
1, 24399, Note_off_c, 0, 52, 55
1, 24399, Note_off_c, 0, 55, 53
1, 24523, Note_on_c, 0, 48, 50
1, 24582, Note_off_c, 0, 48, 60
1, 24686, Note_on_c, 0, 60, 62
1, 24686, Note_on_c, 0, 55, 55
1, 24689, Note_on_c, 0, 72, 70
1, 24695, Note_on_c, 0, 52, 52
1, 24704, Note_off_c, 0, 67, 64
1, 24716, Note_off_c, 0, 72, 69
1, 24720, Note_off_c, 0, 60, 64
1, 24727, Note_off_c, 0, 55, 64
1, 24732, Note_off_c, 0, 52, 65
1, 24838, Note_on_c, 0, 48, 56
1, 24841, Note_on_c, 0, 67, 80
1, 24885, Note_off_c, 0, 67, 62
1, 24886, Note_off_c, 0, 48, 60
1, 24995, Note_on_c, 0, 60, 60
1, 24998, Note_on_c, 0, 72, 81
1, 24999, Note_on_c, 0, 52, 54
1, 25001, Note_on_c, 0, 55, 51
1, 25029, Note_off_c, 0, 60, 65
1, 25035, Note_off_c, 0, 52, 67
1, 25046, Note_off_c, 0, 72, 62
1, 25047, Note_off_c, 0, 55, 61
1, 25167, Note_on_c, 0, 70, 77
1, 25168, Note_on_c, 0, 49, 58
1, 25225, Note_off_c, 0, 49, 55
1, 25340, Note_on_c, 0, 68, 62
1, 25341, Note_on_c, 0, 53, 47
1, 25354, Note_off_c, 0, 70, 52
1, 25358, Note_on_c, 0, 61, 31
1, 25378, Note_off_c, 0, 53, 60
1, 25390, Note_off_c, 0, 61, 48
1, 25400, Note_off_c, 0, 68, 60
1, 25407, Note_on_c, 0, 67, 64
1, 25439, Note_off_c, 0, 67, 64
1, 25485, Note_on_c, 0, 65, 58
1, 25486, Note_on_c, 0, 49, 49
1, 25518, Note_off_c, 0, 65, 65
1, 25530, Note_off_c, 0, 49, 62
1, 25650, Note_on_c, 0, 46, 48
1, 25655, Note_on_c, 0, 67, 58
1, 25702, Note_off_c, 0, 67, 59
1, 25733, Note_on_c, 0, 70, 64
1, 25771, Note_off_c, 0, 70, 64
1, 25813, Note_on_c, 0, 67, 64
1, 25816, Note_on_c, 0, 55, 51
1, 25816, Note_on_c, 0, 58, 54
1, 25825, Note_off_c, 0, 46, 27
1, 25843, Note_off_c, 0, 55, 62
1, 25844, Note_off_c, 0, 58, 63
1, 25847, Note_off_c, 0, 67, 61
1, 25879, Note_on_c, 0, 70, 62
1, 25922, Note_off_c, 0, 70, 62
1, 25956, Note_on_c, 0, 58, 51
1, 25959, Note_on_c, 0, 64, 62
1, 25977, Note_on_c, 0, 48, 32
1, 25995, Note_off_c, 0, 58, 63
1, 25999, Note_off_c, 0, 64, 58
1, 26014, Note_off_c, 0, 48, 45
1, 26031, Note_on_c, 0, 67, 65
1, 26051, Control_c, 0, 64, 9
1, 26066, Control_c, 0, 64, 30
1, 26073, Note_off_c, 0, 67, 64
1, 26081, Control_c, 0, 64, 39
1, 26096, Control_c, 0, 64, 47
1, 26111, Control_c, 0, 64, 55
1, 26126, Control_c, 0, 64, 60
1, 26126, Note_on_c, 0, 65, 63
1, 26129, Note_on_c, 0, 53, 50
1, 26133, Note_on_c, 0, 56, 54
1, 26139, Control_c, 0, 64, 63
1, 26154, Control_c, 0, 64, 66
1, 26169, Control_c, 0, 64, 70
1, 26180, Note_off_c, 0, 56, 61
1, 26184, Control_c, 0, 64, 76
1, 26188, Note_off_c, 0, 53, 61
1, 26189, Note_off_c, 0, 65, 58
1, 26192, Note_on_c, 0, 68, 71
1, 26198, Control_c, 0, 64, 83
1, 26213, Control_c, 0, 64, 90
1, 26219, Note_off_c, 0, 68, 68
1, 26228, Control_c, 0, 64, 98
1, 26243, Control_c, 0, 64, 110
1, 26257, Control_c, 0, 64, 127
1, 26264, Note_on_c, 0, 72, 72
1, 26288, Note_off_c, 0, 72, 68
1, 26347, Note_on_c, 0, 77, 82
1, 26392, Control_c, 0, 64, 111
1, 26407, Control_c, 0, 64, 99
1, 26411, Note_off_c, 0, 77, 58
1, 26421, Note_on_c, 0, 80, 72
1, 26422, Control_c, 0, 64, 91
1, 26436, Control_c, 0, 64, 84
1, 26451, Control_c, 0, 64, 78
1, 26466, Control_c, 0, 64, 73
1, 26481, Note_off_c, 0, 80, 63
1, 26481, Control_c, 0, 64, 66
1, 26496, Control_c, 0, 64, 60
1, 26498, Note_on_c, 0, 82, 70
1, 26511, Control_c, 0, 64, 53
1, 26526, Control_c, 0, 64, 48
1, 26537, Note_off_c, 0, 82, 62
1, 26541, Control_c, 0, 64, 44
1, 26555, Control_c, 0, 64, 40
1, 26570, Note_on_c, 0, 84, 67
1, 26570, Control_c, 0, 64, 33
1, 26570, Note_on_c, 0, 53, 56
1, 26585, Control_c, 0, 64, 17
1, 26596, Note_off_c, 0, 84, 68
1, 26600, Control_c, 0, 64, 0
1, 26603, Note_off_c, 0, 53, 64
1, 26744, Note_on_c, 0, 65, 59
1, 26749, Note_on_c, 0, 56, 52
1, 26755, Note_on_c, 0, 84, 61
1, 26789, Note_off_c, 0, 65, 63
1, 26796, Note_off_c, 0, 84, 62
1, 26801, Note_off_c, 0, 56, 62
1, 26824, Note_on_c, 0, 85, 63
1, 26838, Poly_aftertouch_c, 0, 60, 0
1, 26866, Note_off_c, 0, 85, 63
1, 26886, Note_on_c, 0, 84, 77
1, 26897, Note_on_c, 0, 53, 60
1, 26919, Note_off_c, 0, 84, 61
1, 26935, Note_off_c, 0, 53, 64
1, 27035, Note_on_c, 0, 85, 79
1, 27053, Note_off_c, 0, 85, 73
1, 27062, Note_on_c, 0, 84, 76
1, 27065, Note_on_c, 0, 65, 56
1, 27074, Note_on_c, 0, 56, 48
1, 27079, Note_on_c, 0, 83, 65
1, 27093, Note_off_c, 0, 84, 62
1, 27095, Note_off_c, 0, 65, 64
1, 27095, Note_off_c, 0, 83, 65
1, 27110, Note_off_c, 0, 56, 63
1, 27214, Note_on_c, 0, 53, 60
1, 27216, Note_on_c, 0, 84, 75
1, 27260, Note_off_c, 0, 53, 59
1, 27271, Note_off_c, 0, 84, 63
1, 27280, Note_on_c, 0, 85, 66
1, 27325, Note_off_c, 0, 85, 62
1, 27363, Note_on_c, 0, 84, 66
1, 27366, Note_on_c, 0, 65, 56
1, 27371, Note_on_c, 0, 56, 48
1, 27389, Note_off_c, 0, 84, 68
1, 27405, Note_off_c, 0, 65, 63
1, 27417, Note_off_c, 0, 56, 62
1, 27546, Note_on_c, 0, 84, 62
1, 27557, Note_on_c, 0, 53, 49
1, 27591, Note_off_c, 0, 84, 59
1, 27625, Note_off_c, 0, 53, 57
1, 27634, Note_on_c, 0, 83, 62
1, 27678, Note_off_c, 0, 83, 61
1, 27708, Note_on_c, 0, 89, 71
1, 27709, Note_on_c, 0, 56, 41
1, 27709, Note_on_c, 0, 62, 43
1, 27750, Note_off_c, 0, 62, 59
1, 27760, Poly_aftertouch_c, 0, 59, 127
1, 27761, Note_off_c, 0, 56, 58
1, 27765, Note_off_c, 0, 89, 61
1, 27793, Note_on_c, 0, 83, 66
1, 27819, Poly_aftertouch_c, 0, 59, 0
1, 27837, Note_off_c, 0, 83, 57
1, 27854, Note_on_c, 0, 53, 45
1, 27870, Note_on_c, 0, 89, 60
1, 27882, Note_off_c, 0, 53, 58
1, 27914, Note_off_c, 0, 89, 61
1, 27948, Note_on_c, 0, 83, 58
1, 27983, Note_off_c, 0, 83, 64
1, 27998, Note_on_c, 0, 48, 51
1, 28019, Note_on_c, 0, 84, 65
1, 28048, Note_off_c, 0, 84, 65
1, 28058, Note_off_c, 0, 48, 48
1, 28184, Note_on_c, 0, 60, 52
1, 28195, Note_on_c, 0, 52, 38
1, 28195, Note_on_c, 0, 55, 39
1, 28198, Note_on_c, 0, 79, 76
1, 28225, Note_off_c, 0, 60, 63
1, 28229, Note_off_c, 0, 52, 57
1, 28232, Note_off_c, 0, 55, 61
1, 28364, Note_on_c, 0, 48, 46
1, 28406, Note_off_c, 0, 48, 62
1, 28469, Note_off_c, 0, 79, 61
1, 28508, Note_on_c, 0, 84, 80
1, 28510, Note_on_c, 0, 55, 53
1, 28511, Note_on_c, 0, 60, 57
1, 28523, Note_on_c, 0, 52, 46
1, 28535, Note_off_c, 0, 84, 64
1, 28538, Note_off_c, 0, 60, 64
1, 28544, Note_off_c, 0, 55, 65
1, 28550, Note_off_c, 0, 52, 58
1, 28655, Note_on_c, 0, 48, 59
1, 28657, Note_on_c, 0, 79, 82
1, 28690, Note_off_c, 0, 48, 63
1, 28695, Note_off_c, 0, 79, 66
1, 28803, Note_on_c, 0, 52, 55
1, 28803, Note_on_c, 0, 60, 64
1, 28804, Note_on_c, 0, 84, 87
1, 28810, Note_on_c, 0, 55, 59
1, 28834, Note_off_c, 0, 60, 66
1, 28846, Note_off_c, 0, 52, 65
1, 28851, Note_off_c, 0, 55, 65
1, 28856, Note_off_c, 0, 84, 66
1, 28959, Note_on_c, 0, 49, 58
1, 28963, Note_on_c, 0, 82, 89
1, 28964, Control_c, 0, 64, 12
1, 28979, Control_c, 0, 64, 15
1, 28994, Control_c, 0, 64, 17
1, 29015, Note_off_c, 0, 49, 59
1, 29031, Control_c, 0, 64, 17
1, 29046, Control_c, 0, 64, 19
1, 29061, Control_c, 0, 64, 20
1, 29075, Control_c, 0, 64, 21
1, 29139, Note_on_c, 0, 61, 58
1, 29141, Note_on_c, 0, 80, 73
1, 29143, Note_on_c, 0, 53, 49
1, 29146, Note_off_c, 0, 82, 61
1, 29176, Note_off_c, 0, 61, 63
1, 29179, Control_c, 0, 64, 20
1, 29188, Note_off_c, 0, 53, 55
1, 29194, Control_c, 0, 64, 17
1, 29206, Note_off_c, 0, 80, 64
1, 29209, Control_c, 0, 64, 16
1, 29220, Note_on_c, 0, 79, 63
1, 29223, Control_c, 0, 64, 15
1, 29238, Control_c, 0, 64, 13
1, 29253, Control_c, 0, 64, 11
1, 29268, Control_c, 0, 64, 0
1, 29275, Note_off_c, 0, 79, 49
1, 29289, Note_on_c, 0, 49, 55
1, 29292, Note_on_c, 0, 77, 65
1, 29322, Note_off_c, 0, 77, 67
1, 29331, Note_off_c, 0, 49, 64
1, 29459, Note_on_c, 0, 82, 73
1, 29465, Note_on_c, 0, 50, 49
1, 29492, Note_off_c, 0, 50, 61
1, 29503, Note_off_c, 0, 82, 63
1, 29619, Note_on_c, 0, 77, 73
1, 29620, Note_on_c, 0, 62, 55
1, 29621, Note_on_c, 0, 58, 55
1, 29653, Note_off_c, 0, 62, 65
1, 29653, Note_off_c, 0, 58, 64
1, 29656, Note_off_c, 0, 77, 64
1, 29775, Note_on_c, 0, 82, 78
1, 29783, Note_on_c, 0, 50, 56
1, 29811, Note_off_c, 0, 50, 63
1, 29820, Note_off_c, 0, 82, 62
1, 29942, Note_on_c, 0, 80, 73
1, 29948, Note_on_c, 0, 51, 53
1, 29980, Note_off_c, 0, 51, 63
1, 30109, Note_on_c, 0, 58, 43
1, 30109, Note_on_c, 0, 79, 65
1, 30111, Note_on_c, 0, 63, 44
1, 30136, Note_off_c, 0, 58, 58
1, 30137, Note_off_c, 0, 63, 57
1, 30143, Note_off_c, 0, 80, 56
1, 30163, Note_off_c, 0, 79, 59
1, 30186, Note_on_c, 0, 77, 62
1, 30227, Note_off_c, 0, 77, 61
1, 30246, Note_on_c, 0, 51, 55
1, 30255, Note_on_c, 0, 75, 69
1, 30282, Note_off_c, 0, 75, 66
1, 30284, Note_off_c, 0, 51, 64
1, 30415, Note_on_c, 0, 80, 81
1, 30469, Note_off_c, 0, 80, 64
1, 30574, Note_on_c, 0, 60, 68
1, 30574, Note_on_c, 0, 75, 86
1, 30603, Note_off_c, 0, 60, 66
1, 30620, Note_off_c, 0, 75, 61
1, 30723, Note_on_c, 0, 80, 90
1, 30729, Note_on_c, 0, 48, 74
1, 30756, Note_off_c, 0, 48, 66
1, 30773, Note_off_c, 0, 80, 67
1, 30877, Note_on_c, 0, 47, 88
1, 30877, Note_on_c, 0, 81, 99
1, 30922, Note_off_c, 0, 47, 64
1, 30926, Note_off_c, 0, 81, 67
1, 31031, Note_on_c, 0, 75, 98
1, 31033, Note_on_c, 0, 59, 81
1, 31067, Note_off_c, 0, 59, 64
1, 31079, Note_off_c, 0, 75, 65
1, 31182, Note_on_c, 0, 47, 82
1, 31185, Note_on_c, 0, 81, 97
1, 31212, Note_off_c, 0, 47, 67
1, 31236, Note_off_c, 0, 81, 67
1, 31346, Note_on_c, 0, 46, 89
1, 31350, Note_on_c, 0, 82, 99
1, 31367, Control_c, 0, 64, 55
1, 31381, Control_c, 0, 64, 97
1, 31396, Control_c, 0, 64, 127
1, 31398, Note_off_c, 0, 46, 64
1, 31497, Note_on_c, 0, 62, 74
1, 31499, Note_on_c, 0, 58, 79
1, 31499, Note_on_c, 0, 77, 90
1, 31505, Note_on_c, 0, 74, 79
1, 31510, Note_on_c, 0, 53, 70
1, 31522, Note_off_c, 0, 62, 69
1, 31530, Note_off_c, 0, 58, 66
1, 31534, Note_off_c, 0, 74, 63
1, 31547, Note_off_c, 0, 77, 64
1, 31553, Note_off_c, 0, 53, 63
1, 31564, Note_off_c, 0, 82, 62
1, 31604, Control_c, 0, 64, 102
1, 31618, Control_c, 0, 64, 68
1, 31633, Control_c, 0, 64, 45
1, 31648, Control_c, 0, 64, 36
1, 31653, Note_on_c, 0, 46, 84
1, 31655, Note_on_c, 0, 86, 99
1, 31662, Control_c, 0, 64, 51
1, 31677, Control_c, 0, 64, 64
1, 31692, Control_c, 0, 64, 84
1, 31699, Note_off_c, 0, 46, 64
1, 31707, Control_c, 0, 64, 127
1, 31796, Note_on_c, 0, 82, 91
1, 31797, Note_on_c, 0, 58, 74
1, 31797, Note_on_c, 0, 62, 71
1, 31802, Note_on_c, 0, 53, 70
1, 31804, Note_on_c, 0, 77, 81
1, 31809, Note_off_c, 0, 86, 57
1, 31823, Note_off_c, 0, 62, 66
1, 31827, Note_off_c, 0, 58, 66
1, 31830, Note_off_c, 0, 77, 66
1, 31856, Note_off_c, 0, 53, 63
1, 31857, Note_off_c, 0, 82, 64
1, 31900, Control_c, 0, 64, 73
1, 31915, Control_c, 0, 64, 49
1, 31930, Control_c, 0, 64, 12
1, 31944, Control_c, 0, 64, 34
1, 31954, Note_on_c, 0, 46, 84
1, 31959, Note_on_c, 0, 89, 101
1, 31959, Control_c, 0, 64, 54
1, 31975, Control_c, 0, 64, 68
1, 31990, Control_c, 0, 64, 90
1, 31996, Note_off_c, 0, 46, 62
1, 32005, Control_c, 0, 64, 127
1, 32109, Note_on_c, 0, 58, 75
1, 32109, Note_on_c, 0, 62, 74
1, 32110, Poly_aftertouch_c, 0, 48, 0
1, 32112, Note_on_c, 0, 82, 92
1, 32115, Note_on_c, 0, 86, 84
1, 32118, Note_on_c, 0, 53, 68
1, 32124, Note_off_c, 0, 89, 60
1, 32135, Note_off_c, 0, 62, 69
1, 32137, Note_off_c, 0, 58, 68
1, 32148, Note_off_c, 0, 82, 64
1, 32159, Note_off_c, 0, 86, 65
1, 32162, Note_off_c, 0, 53, 63
1, 32249, Control_c, 0, 64, 85
1, 32264, Control_c, 0, 64, 69
1, 32267, Note_on_c, 0, 46, 78
1, 32279, Control_c, 0, 64, 63
1, 32282, Note_on_c, 0, 92, 95
1, 32294, Control_c, 0, 64, 60
1, 32309, Control_c, 0, 64, 57
1, 32312, Note_off_c, 0, 46, 61
1, 32323, Control_c, 0, 64, 53
1, 32338, Control_c, 0, 64, 48
1, 32353, Control_c, 0, 64, 41
1, 32356, Note_on_c, 0, 90, 81
1, 32367, Control_c, 0, 64, 37
1, 32382, Control_c, 0, 64, 33
1, 32391, Note_off_c, 0, 92, 65
1, 32397, Control_c, 0, 64, 31
1, 32412, Control_c, 0, 64, 26
1, 32413, Note_on_c, 0, 63, 62
1, 32414, Note_on_c, 0, 54, 63
1, 32420, Note_on_c, 0, 89, 86
1, 32422, Note_off_c, 0, 90, 65
1, 32427, Control_c, 0, 64, 19
1, 32428, Note_on_c, 0, 57, 46
1, 32435, Note_off_c, 0, 63, 64
1, 32441, Control_c, 0, 64, 0
1, 32455, Note_off_c, 0, 57, 56
1, 32468, Note_off_c, 0, 54, 61
1, 32489, Note_on_c, 0, 90, 88
1, 32489, Note_off_c, 0, 89, 62
1, 32536, Note_off_c, 0, 90, 64
1, 32550, Note_on_c, 0, 87, 91
1, 32551, Note_on_c, 0, 46, 77
1, 32577, Note_off_c, 0, 87, 67
1, 32583, Note_off_c, 0, 46, 67
1, 32710, Note_on_c, 0, 54, 63
1, 32710, Note_on_c, 0, 84, 95
1, 32711, Note_on_c, 0, 63, 60
1, 32731, Note_off_c, 0, 63, 62
1, 32748, Note_off_c, 0, 54, 65
1, 32769, Note_off_c, 0, 84, 66
1, 32860, Note_on_c, 0, 46, 70
1, 32861, Note_on_c, 0, 81, 94
1, 32885, Note_off_c, 0, 46, 66
1, 32911, Note_off_c, 0, 81, 66
1, 33003, Note_on_c, 0, 54, 70
1, 33005, Note_on_c, 0, 63, 68
1, 33006, Note_on_c, 0, 78, 95
1, 33012, Note_on_c, 0, 57, 50
1, 33035, Note_off_c, 0, 63, 63
1, 33036, Note_off_c, 0, 57, 60
1, 33036, Note_off_c, 0, 54, 68
1, 33061, Note_off_c, 0, 78, 63
1, 33159, Note_on_c, 0, 46, 90
1, 33161, Note_on_c, 0, 82, 101
1, 33176, Control_c, 0, 64, 70
1, 33190, Control_c, 0, 64, 127
1, 33206, Note_off_c, 0, 46, 65
1, 33318, Note_on_c, 0, 58, 65
1, 33319, Note_on_c, 0, 62, 60
1, 33322, Note_on_c, 0, 77, 82
1, 33328, Note_on_c, 0, 74, 75
1, 33337, Note_on_c, 0, 53, 63
1, 33349, Note_off_c, 0, 58, 64
1, 33349, Note_off_c, 0, 62, 64
1, 33357, Note_off_c, 0, 74, 63
1, 33372, Note_off_c, 0, 77, 63
1, 33375, Note_off_c, 0, 53, 65
1, 33397, Note_off_c, 0, 82, 62
1, 33427, Control_c, 0, 64, 75
1, 33442, Control_c, 0, 64, 49
1, 33456, Control_c, 0, 64, 0
1, 33471, Control_c, 0, 64, 30
1, 33474, Note_on_c, 0, 46, 81
1, 33476, Note_on_c, 0, 86, 106
1, 33486, Control_c, 0, 64, 61
1, 33501, Control_c, 0, 64, 79
1, 33514, Note_off_c, 0, 46, 66
1, 33523, Control_c, 0, 64, 127
1, 33619, Note_off_c, 0, 86, 58
1, 33630, Note_on_c, 0, 82, 91
1, 33635, Note_on_c, 0, 58, 71
1, 33635, Note_on_c, 0, 77, 85
1, 33641, Note_on_c, 0, 62, 55
1, 33647, Note_on_c, 0, 53, 64
1, 33662, Note_off_c, 0, 62, 62
1, 33667, Note_off_c, 0, 58, 66
1, 33673, Note_off_c, 0, 77, 60
1, 33691, Note_off_c, 0, 53, 63
1, 33695, Note_off_c, 0, 82, 64
1, 33732, Control_c, 0, 64, 97
1, 33746, Control_c, 0, 64, 63
1, 33761, Control_c, 0, 64, 21
1, 33776, Control_c, 0, 64, 30
1, 33791, Control_c, 0, 64, 54
1, 33795, Note_on_c, 0, 46, 80
1, 33796, Note_on_c, 0, 89, 101
1, 33806, Control_c, 0, 64, 67
1, 33820, Control_c, 0, 64, 95
1, 33827, Note_off_c, 0, 46, 66
1, 33835, Control_c, 0, 64, 127
1, 33934, Note_on_c, 0, 82, 91
1, 33936, Note_on_c, 0, 86, 86
1, 33938, Note_on_c, 0, 62, 70
1, 33939, Note_on_c, 0, 58, 75
1, 33948, Note_on_c, 0, 53, 68
1, 33950, Note_off_c, 0, 89, 61
1, 33966, Note_off_c, 0, 58, 66
1, 33967, Note_off_c, 0, 62, 67
1, 33973, Note_off_c, 0, 82, 63
1, 33978, Note_off_c, 0, 86, 67
1, 33986, Note_off_c, 0, 53, 65
1, 34058, Control_c, 0, 64, 118
1, 34073, Control_c, 0, 64, 87
1, 34087, Control_c, 0, 64, 73
1, 34099, Note_on_c, 0, 46, 72
1, 34102, Control_c, 0, 64, 65
1, 34103, Note_on_c, 0, 92, 98
1, 34117, Control_c, 0, 64, 60
1, 34124, Note_off_c, 0, 46, 66
1, 34132, Control_c, 0, 64, 54
1, 34146, Control_c, 0, 64, 47
1, 34161, Control_c, 0, 64, 35
1, 34171, Note_on_c, 0, 90, 82
1, 34176, Control_c, 0, 64, 0
1, 34206, Note_off_c, 0, 92, 64
1, 34234, Note_on_c, 0, 54, 62
1, 34236, Note_off_c, 0, 90, 64
1, 34237, Note_on_c, 0, 63, 59
1, 34244, Note_on_c, 0, 89, 83
1, 34264, Note_off_c, 0, 63, 61
1, 34270, Note_on_c, 0, 57, 19
1, 34285, Note_off_c, 0, 54, 62
1, 34301, Note_off_c, 0, 89, 61
1, 34314, Note_off_c, 0, 57, 29
1, 34320, Note_on_c, 0, 90, 77
1, 34345, Note_off_c, 0, 90, 65
1, 34377, Note_on_c, 0, 87, 86
1, 34379, Note_on_c, 0, 46, 73
1, 34415, Note_off_c, 0, 46, 66
1, 34416, Note_off_c, 0, 87, 64
1, 34537, Note_on_c, 0, 84, 84
1, 34546, Note_on_c, 0, 63, 45
1, 34571, Note_off_c, 0, 63, 48
1, 34587, Note_off_c, 0, 84, 63
1, 34683, Note_on_c, 0, 46, 57
1, 34685, Note_on_c, 0, 81, 71
1, 34711, Note_off_c, 0, 81, 69
1, 34717, Note_off_c, 0, 46, 64
1, 34824, Note_on_c, 0, 78, 61
1, 34827, Note_on_c, 0, 63, 57
1, 34830, Note_on_c, 0, 54, 53
1, 34848, Note_off_c, 0, 63, 60
1, 34860, Note_off_c, 0, 78, 64
1, 34863, Note_off_c, 0, 54, 66
1, 34979, Note_on_c, 0, 82, 69
1, 34980, Note_on_c, 0, 46, 64
1, 34984, Control_c, 0, 64, 58
1, 34999, Control_c, 0, 64, 70
1, 35021, Control_c, 0, 64, 105
1, 35031, Note_off_c, 0, 46, 64
1, 35036, Control_c, 0, 64, 127
1, 35134, Note_on_c, 0, 62, 58
1, 35135, Note_off_c, 0, 82, 50
1, 35138, Note_on_c, 0, 58, 61
1, 35146, Note_on_c, 0, 77, 61
1, 35149, Note_on_c, 0, 74, 55
1, 35159, Note_off_c, 0, 62, 65
1, 35164, Note_on_c, 0, 53, 41
1, 35170, Note_off_c, 0, 58, 65
1, 35179, Note_off_c, 0, 74, 63
1, 35181, Note_off_c, 0, 77, 64
1, 35192, Note_off_c, 0, 53, 55
1, 35259, Control_c, 0, 64, 78
1, 35274, Control_c, 0, 64, 58
1, 35289, Control_c, 0, 64, 27
1, 35298, Note_on_c, 0, 44, 70
1, 35303, Note_on_c, 0, 83, 83
1, 35304, Control_c, 0, 64, 33
1, 35319, Control_c, 0, 64, 46
1, 35333, Control_c, 0, 64, 62
1, 35348, Control_c, 0, 64, 75
1, 35363, Control_c, 0, 64, 127
1, 35439, Note_on_c, 0, 56, 79
1, 35448, Note_on_c, 0, 74, 68
1, 35448, Note_on_c, 0, 77, 74
1, 35473, Note_off_c, 0, 56, 64
1, 35476, Note_off_c, 0, 74, 66
1, 35482, Note_off_c, 0, 77, 61
1, 35489, Note_off_c, 0, 44, 30
1, 35491, Note_off_c, 0, 83, 60
1, 35570, Control_c, 0, 64, 86
1, 35585, Control_c, 0, 64, 64
1, 35599, Control_c, 0, 64, 43
1, 35604, Note_on_c, 0, 43, 86
1, 35607, Note_on_c, 0, 86, 92
1, 35629, Control_c, 0, 64, 49
1, 35644, Control_c, 0, 64, 61
1, 35659, Control_c, 0, 64, 73
1, 35674, Control_c, 0, 64, 127
1, 35740, Note_on_c, 0, 83, 85
1, 35745, Note_on_c, 0, 55, 84
1, 35750, Note_on_c, 0, 77, 80
1, 35767, Note_off_c, 0, 86, 56
1, 35778, Note_off_c, 0, 43, 62
1, 35785, Note_off_c, 0, 55, 64
1, 35789, Note_off_c, 0, 77, 63
1, 35804, Note_off_c, 0, 83, 64
1, 35874, Control_c, 0, 64, 84
1, 35889, Control_c, 0, 64, 57
1, 35904, Control_c, 0, 64, 25
1, 35905, Note_on_c, 0, 84, 102
1, 35910, Note_on_c, 0, 48, 98
1, 35918, Control_c, 0, 64, 34
1, 35933, Control_c, 0, 64, 52
1, 35948, Control_c, 0, 64, 66
1, 35963, Control_c, 0, 64, 92
1, 35978, Control_c, 0, 64, 127
1, 36046, Note_on_c, 0, 79, 83
1, 36050, Note_on_c, 0, 60, 80
1, 36051, Note_on_c, 0, 76, 81
1, 36070, Note_off_c, 0, 48, 63
1, 36080, Note_off_c, 0, 84, 56
1, 36082, Note_off_c, 0, 60, 63
1, 36084, Note_off_c, 0, 76, 63
1, 36096, Note_off_c, 0, 79, 65
1, 36171, Control_c, 0, 64, 111
1, 36186, Control_c, 0, 64, 70
1, 36201, Note_on_c, 0, 46, 92
1, 36201, Control_c, 0, 64, 48
1, 36202, Note_on_c, 0, 88, 105
1, 36215, Control_c, 0, 64, 36
1, 36230, Control_c, 0, 64, 51
1, 36245, Control_c, 0, 64, 65
1, 36260, Control_c, 0, 64, 94
1, 36275, Control_c, 0, 64, 127
1, 36345, Note_on_c, 0, 58, 87
1, 36345, Note_on_c, 0, 85, 91
1, 36348, Note_on_c, 0, 79, 84
1, 36369, Note_off_c, 0, 88, 62
1, 36391, Note_off_c, 0, 58, 63
1, 36391, Note_off_c, 0, 79, 65
1, 36394, Note_off_c, 0, 46, 63
1, 36413, Note_off_c, 0, 85, 65
1, 36437, Control_c, 0, 64, 90
1, 36452, Control_c, 0, 64, 62
1, 36467, Control_c, 0, 64, 0
1, 36516, Note_on_c, 0, 91, 108
1, 36517, Note_on_c, 0, 43, 95
1, 36519, Control_c, 0, 64, 52
1, 36534, Control_c, 0, 64, 70
1, 36548, Control_c, 0, 64, 103
1, 36563, Control_c, 0, 64, 127
1, 36647, Note_off_c, 0, 91, 65
1, 36649, Note_on_c, 0, 55, 85
1, 36649, Note_on_c, 0, 85, 83
1, 36651, Note_on_c, 0, 82, 88
1, 36652, Note_on_c, 0, 88, 75
1, 36682, Note_off_c, 0, 43, 57
1, 36687, Note_off_c, 0, 55, 62
1, 36695, Note_off_c, 0, 82, 64
1, 36702, Note_off_c, 0, 85, 65
1, 36702, Note_off_c, 0, 88, 64
1, 36739, Control_c, 0, 64, 78
1, 36754, Control_c, 0, 64, 53
1, 36770, Control_c, 0, 64, 0
1, 36785, Control_c, 0, 64, 27
1, 36800, Control_c, 0, 64, 55
1, 36803, Note_on_c, 0, 89, 107
1, 36810, Note_on_c, 0, 44, 95
1, 36815, Control_c, 0, 64, 71
1, 36830, Control_c, 0, 64, 127
1, 36940, Note_on_c, 0, 84, 85
1, 36942, Note_on_c, 0, 77, 87
1, 36948, Note_on_c, 0, 56, 89
1, 36968, Note_off_c, 0, 89, 60
1, 36977, Note_off_c, 0, 56, 66
1, 36980, Note_off_c, 0, 77, 64
1, 36994, Note_off_c, 0, 84, 63
1, 37006, Note_off_c, 0, 44, 63
1, 37036, Control_c, 0, 64, 97
1, 37051, Control_c, 0, 64, 64
1, 37066, Control_c, 0, 64, 0
1, 37096, Control_c, 0, 64, 38
1, 37105, Note_on_c, 0, 94, 107
1, 37111, Control_c, 0, 64, 62
1, 37114, Note_on_c, 0, 34, 91
1, 37126, Control_c, 0, 64, 79
1, 37141, Control_c, 0, 64, 127
1, 37244, Note_on_c, 0, 82, 95
1, 37251, Note_on_c, 0, 46, 94
1, 37303, Note_off_c, 0, 46, 64
1, 37304, Note_off_c, 0, 34, 60
1, 37305, Note_off_c, 0, 82, 65
1, 37327, Note_off_c, 0, 94, 62
1, 37340, Control_c, 0, 64, 104
1, 37355, Control_c, 0, 64, 65
1, 37370, Control_c, 0, 64, 23
1, 37385, Control_c, 0, 64, 37
1, 37400, Control_c, 0, 64, 62
1, 37414, Note_on_c, 0, 36, 95
1, 37414, Note_on_c, 0, 96, 110
1, 37415, Control_c, 0, 64, 77
1, 37430, Control_c, 0, 64, 127
1, 37519, Note_off_c, 0, 96, 41
1, 37547, Note_on_c, 0, 48, 95
1, 37550, Note_on_c, 0, 84, 93
1, 37573, Note_off_c, 0, 36, 0
1, 37573, Note_on_c, 0, 36, 3
1, 37579, Note_off_c, 0, 48, 65
1, 37588, Note_off_c, 0, 84, 68
1, 37598, Note_off_c, 0, 36, 64
1, 37683, Control_c, 0, 64, 84
1, 37698, Control_c, 0, 64, 58
1, 37707, Note_on_c, 0, 97, 55
1, 37713, Control_c, 0, 64, 29
1, 37728, Control_c, 0, 64, 54
1, 37731, Note_off_c, 0, 97, 58
1, 37742, Control_c, 0, 64, 69
1, 37746, Note_on_c, 0, 41, 100
1, 37752, Note_on_c, 0, 29, 92
1, 37757, Note_on_c, 0, 101, 104
1, 37757, Control_c, 0, 64, 99
1, 37758, Note_on_c, 0, 89, 100
1, 37772, Control_c, 0, 64, 127
1, 37788, Note_off_c, 0, 29, 63
1, 37800, Poly_aftertouch_c, 0, 99, 0
1, 37805, Note_off_c, 0, 41, 65
1, 37812, Note_off_c, 0, 101, 65
1, 37825, Note_off_c, 0, 89, 56
1, 37832, Poly_aftertouch_c, 0, 30, 127
1, 37880, Poly_aftertouch_c, 0, 30, 0
1, 38075, Control_c, 0, 64, 75
1, 38090, Control_c, 0, 64, 39
1, 38105, Control_c, 0, 64, 0
1, 38112, Note_on_c, 0, 91, 103
1, 38112, Note_on_c, 0, 53, 98
1, 38112, Note_on_c, 0, 64, 104
1, 38115, Note_on_c, 0, 61, 92
1, 38119, Note_on_c, 0, 58, 80
1, 38134, Control_c, 0, 64, 9
1, 38149, Control_c, 0, 64, 52
1, 38164, Control_c, 0, 64, 61
1, 38178, Control_c, 0, 64, 66
1, 38184, Note_off_c, 0, 91, 64
1, 38188, Note_on_c, 0, 92, 82
1, 38193, Control_c, 0, 64, 68
1, 38223, Control_c, 0, 64, 67
1, 38245, Note_off_c, 0, 92, 64
1, 38252, Control_c, 0, 64, 68
1, 38261, Note_on_c, 0, 91, 75
1, 38295, Note_off_c, 0, 91, 64
1, 38312, Note_on_c, 0, 92, 71
1, 38349, Note_off_c, 0, 92, 64
1, 38360, Note_on_c, 0, 91, 72
1, 38396, Note_off_c, 0, 91, 65
1, 38402, Control_c, 0, 64, 69
1, 38416, Control_c, 0, 64, 70
1, 38424, Note_on_c, 0, 92, 74
1, 38431, Control_c, 0, 64, 73
1, 38446, Control_c, 0, 64, 77
1, 38451, Note_off_c, 0, 92, 68
1, 38461, Control_c, 0, 64, 84
1, 38469, Note_on_c, 0, 91, 73
1, 38476, Control_c, 0, 64, 94
1, 38491, Control_c, 0, 64, 116
1, 38496, Note_off_c, 0, 91, 67
1, 38506, Control_c, 0, 64, 127
1, 38519, Note_on_c, 0, 92, 80
1, 38545, Note_off_c, 0, 92, 67
1, 38565, Note_on_c, 0, 91, 76
1, 38589, Note_off_c, 0, 64, 54
1, 38590, Note_off_c, 0, 91, 70
1, 38598, Note_off_c, 0, 53, 59
1, 38600, Note_on_c, 0, 92, 82
1, 38636, Note_off_c, 0, 92, 61
1, 38637, Note_on_c, 0, 91, 83
1, 38640, Note_off_c, 0, 61, 50
1, 38669, Note_off_c, 0, 58, 58
1, 38685, Note_off_c, 0, 91, 66
1, 38689, Note_on_c, 0, 90, 80
1, 38714, Note_off_c, 0, 90, 63
1, 38739, Note_on_c, 0, 89, 49
1, 38745, Note_on_c, 0, 91, 76
1, 38765, Control_c, 0, 64, 110
1, 38770, Note_off_c, 0, 89, 55
1, 38780, Control_c, 0, 64, 68
1, 38795, Control_c, 0, 64, 57
1, 38804, Note_off_c, 0, 91, 64
1, 38805, Note_on_c, 0, 92, 91
1, 38809, Control_c, 0, 64, 62
1, 38824, Control_c, 0, 64, 67
1, 38834, Note_on_c, 0, 94, 45
1, 38839, Control_c, 0, 64, 76
1, 38854, Control_c, 0, 64, 105
1, 38860, Note_off_c, 0, 94, 49
1, 38862, Note_on_c, 0, 91, 83
1, 38867, Note_off_c, 0, 92, 66
1, 38869, Control_c, 0, 64, 127
1, 38874, Note_on_c, 0, 65, 90
1, 38878, Note_on_c, 0, 53, 79
1, 38882, Note_on_c, 0, 56, 80
1, 38888, Note_on_c, 0, 60, 65
1, 38904, Note_on_c, 0, 89, 92
1, 38906, Note_off_c, 0, 91, 65
1, 38928, Control_c, 0, 64, 80
1, 38934, Note_off_c, 0, 65, 58
1, 38937, Note_off_c, 0, 89, 66
1, 38942, Control_c, 0, 64, 64
1, 38944, Note_off_c, 0, 60, 61
1, 38947, Note_off_c, 0, 53, 59
1, 38957, Control_c, 0, 64, 46
1, 38972, Control_c, 0, 64, 38
1, 38987, Control_c, 0, 64, 26
1, 39001, Control_c, 0, 64, 0
1, 39068, Note_off_c, 0, 56, 61
1, 39096, Note_on_c, 0, 64, 96
1, 39097, Note_on_c, 0, 61, 88
1, 39100, Note_on_c, 0, 58, 81
1, 39104, Note_on_c, 0, 53, 83
1, 39106, Note_on_c, 0, 79, 93
1, 39160, Note_off_c, 0, 79, 67
1, 39172, Note_on_c, 0, 80, 66
1, 39202, Note_off_c, 0, 80, 65
1, 39210, Control_c, 0, 64, 11
1, 39225, Control_c, 0, 64, 39
1, 39235, Note_on_c, 0, 79, 78
1, 39239, Control_c, 0, 64, 52
1, 39254, Control_c, 0, 64, 56
1, 39266, Note_off_c, 0, 79, 64
1, 39269, Control_c, 0, 64, 60
1, 39284, Control_c, 0, 64, 63
1, 39287, Note_on_c, 0, 80, 71
1, 39299, Control_c, 0, 64, 67
1, 39314, Control_c, 0, 64, 73
1, 39318, Note_off_c, 0, 80, 65
1, 39329, Control_c, 0, 64, 80
1, 39340, Note_on_c, 0, 79, 79
1, 39343, Control_c, 0, 64, 86
1, 39358, Control_c, 0, 64, 95
1, 39370, Note_off_c, 0, 79, 62
1, 39373, Control_c, 0, 64, 118
1, 39388, Control_c, 0, 64, 127
1, 39389, Note_on_c, 0, 80, 75
1, 39415, Note_off_c, 0, 80, 68
1, 39435, Note_on_c, 0, 79, 77
1, 39460, Note_off_c, 0, 79, 68
1, 39480, Note_on_c, 0, 80, 79
1, 39515, Note_off_c, 0, 80, 67
1, 39528, Note_off_c, 0, 64, 56
1, 39529, Note_on_c, 0, 79, 86
1, 39545, Note_off_c, 0, 53, 52
1, 39558, Note_off_c, 0, 61, 59
1, 39578, Note_off_c, 0, 79, 65
1, 39588, Note_on_c, 0, 78, 84
1, 39591, Note_off_c, 0, 58, 61
1, 39631, Note_off_c, 0, 78, 0
1, 39647, Control_c, 0, 64, 105
1, 39651, Note_on_c, 0, 79, 75
1, 39662, Control_c, 0, 64, 93
1, 39677, Poly_aftertouch_c, 0, 78, 0
1, 39677, Control_c, 0, 64, 83
1, 39692, Control_c, 0, 64, 76
1, 39705, Note_off_c, 0, 79, 64
1, 39706, Control_c, 0, 64, 71
1, 39707, Note_on_c, 0, 80, 85
1, 39721, Control_c, 0, 64, 68
1, 39732, Note_on_c, 0, 82, 54
1, 39736, Control_c, 0, 64, 65
1, 39751, Control_c, 0, 64, 61
1, 39752, Note_off_c, 0, 82, 60
1, 39765, Control_c, 0, 64, 56
1, 39770, Note_on_c, 0, 79, 78
1, 39778, Note_off_c, 0, 80, 64
1, 39780, Control_c, 0, 64, 49
1, 39795, Control_c, 0, 64, 36
1, 39810, Note_on_c, 0, 65, 86
1, 39810, Control_c, 0, 64, 21
1, 39816, Note_on_c, 0, 53, 72
1, 39817, Note_on_c, 0, 60, 63
1, 39821, Note_on_c, 0, 56, 70
1, 39824, Note_off_c, 0, 79, 65
1, 39824, Note_on_c, 0, 77, 88
1, 39824, Control_c, 0, 64, 0
1, 39861, Note_off_c, 0, 65, 61
1, 39870, Note_off_c, 0, 77, 63
1, 39872, Note_off_c, 0, 53, 57
1, 39873, Note_off_c, 0, 60, 61
1, 39984, Note_off_c, 0, 56, 62
1, 40018, Control_c, 0, 64, 25
1, 40033, Control_c, 0, 64, 56
1, 40034, Note_on_c, 0, 64, 97
1, 40034, Note_on_c, 0, 91, 89
1, 40036, Note_on_c, 0, 61, 88
1, 40042, Note_on_c, 0, 53, 87
1, 40042, Note_on_c, 0, 58, 84
1, 40047, Control_c, 0, 64, 64
1, 40062, Control_c, 0, 64, 68
1, 40074, Note_on_c, 0, 92, 84
1, 40077, Note_off_c, 0, 91, 64
1, 40077, Control_c, 0, 64, 74
1, 40092, Control_c, 0, 64, 84
1, 40107, Control_c, 0, 64, 108
1, 40119, Note_off_c, 0, 92, 62
1, 40122, Control_c, 0, 64, 127
1, 40131, Note_on_c, 0, 91, 73
1, 40163, Note_off_c, 0, 91, 65
1, 40181, Note_on_c, 0, 92, 79
1, 40227, Note_on_c, 0, 91, 84
1, 40227, Note_off_c, 0, 92, 62
1, 40263, Note_off_c, 0, 91, 65
1, 40276, Note_on_c, 0, 90, 75
1, 40298, Note_off_c, 0, 90, 70
1, 40325, Note_on_c, 0, 89, 35
1, 40331, Note_on_c, 0, 91, 69
1, 40334, Note_on_c, 0, 92, 87
1, 40354, Note_off_c, 0, 89, 49
1, 40360, Note_off_c, 0, 91, 66
1, 40381, Note_on_c, 0, 94, 84
1, 40390, Note_off_c, 0, 92, 65
1, 40402, Note_off_c, 0, 94, 71
1, 40430, Note_on_c, 0, 96, 83
1, 40473, Note_on_c, 0, 97, 79
1, 40481, Note_off_c, 0, 96, 66
1, 40509, Note_on_c, 0, 100, 75
1, 40526, Note_off_c, 0, 97, 64
1, 40535, Note_on_c, 0, 101, 84
1, 40536, Note_off_c, 0, 100, 65
1, 40602, Control_c, 0, 64, 121
1, 40613, Poly_aftertouch_c, 0, 100, 127
1, 40616, Note_on_c, 0, 97, 83
1, 40617, Control_c, 0, 64, 109
1, 40622, Note_off_c, 0, 101, 66
1, 40631, Poly_aftertouch_c, 0, 100, 0
1, 40632, Control_c, 0, 64, 102
1, 40647, Control_c, 0, 64, 99
1, 40651, Note_off_c, 0, 61, 60
1, 40658, Note_off_c, 0, 97, 65
1, 40661, Control_c, 0, 64, 96
1, 40664, Note_on_c, 0, 96, 77
1, 40674, Note_off_c, 0, 64, 57
1, 40676, Control_c, 0, 64, 93
1, 40691, Control_c, 0, 64, 88
1, 40694, Note_off_c, 0, 96, 66
1, 40706, Control_c, 0, 64, 83
1, 40708, Note_off_c, 0, 53, 49
1, 40721, Control_c, 0, 64, 79
1, 40722, Note_on_c, 0, 94, 88
1, 40736, Control_c, 0, 64, 76
1, 40751, Control_c, 0, 64, 75
1, 40755, Note_on_c, 0, 92, 83
1, 40766, Control_c, 0, 64, 73
1, 40781, Control_c, 0, 64, 72
1, 40795, Note_on_c, 0, 91, 87
1, 40795, Control_c, 0, 64, 69
1, 40807, Note_off_c, 0, 94, 64
1, 40810, Control_c, 0, 64, 66
1, 40816, Note_on_c, 0, 60, 29
1, 40825, Control_c, 0, 64, 63
1, 40828, Note_off_c, 0, 92, 66
1, 40840, Control_c, 0, 64, 61
1, 40846, Note_on_c, 0, 65, 91
1, 40850, Note_off_c, 0, 58, 62
1, 40851, Note_on_c, 0, 53, 77
1, 40852, Note_on_c, 0, 89, 94
1, 40855, Control_c, 0, 64, 59
1, 40857, Note_off_c, 0, 91, 67
1, 40860, Note_on_c, 0, 56, 72
1, 40870, Control_c, 0, 64, 57
1, 40885, Control_c, 0, 64, 56
1, 40900, Control_c, 0, 64, 55
1, 40914, Control_c, 0, 64, 52
1, 40915, Note_off_c, 0, 89, 66
1, 40928, Note_off_c, 0, 60, 61
1, 40929, Control_c, 0, 64, 49
1, 40932, Note_off_c, 0, 53, 64
1, 40940, Note_off_c, 0, 65, 58
1, 40944, Control_c, 0, 64, 46
1, 40959, Control_c, 0, 64, 43
1, 40974, Control_c, 0, 64, 40
1, 40989, Control_c, 0, 64, 34
1, 41010, Note_off_c, 0, 56, 62
1, 41010, Control_c, 0, 64, 22
1, 41025, Control_c, 0, 64, 0
1, 41090, Note_on_c, 0, 64, 96
1, 41094, Note_on_c, 0, 53, 86
1, 41095, Note_on_c, 0, 61, 84
1, 41096, Note_on_c, 0, 79, 82
1, 41099, Note_on_c, 0, 58, 79
1, 41149, Note_on_c, 0, 80, 67
1, 41177, Note_off_c, 0, 80, 68
1, 41223, Note_off_c, 0, 79, 66
1, 41236, Note_on_c, 0, 80, 75
1, 41273, Note_off_c, 0, 80, 62
1, 41281, Note_on_c, 0, 79, 78
1, 41331, Note_off_c, 0, 79, 64
1, 41345, Note_on_c, 0, 78, 77
1, 41382, Note_off_c, 0, 78, 60
1, 41390, Note_on_c, 0, 79, 66
1, 41420, Note_on_c, 0, 80, 68
1, 41441, Note_off_c, 0, 79, 65
1, 41472, Note_on_c, 0, 82, 83
1, 41485, Note_off_c, 0, 80, 65
1, 41485, Control_c, 0, 64, 15
1, 41493, Note_off_c, 0, 82, 70
1, 41500, Control_c, 0, 64, 18
1, 41515, Control_c, 0, 64, 21
1, 41529, Control_c, 0, 64, 22
1, 41532, Note_on_c, 0, 84, 89
1, 41546, Control_c, 0, 64, 23
1, 41581, Note_on_c, 0, 85, 80
1, 41583, Note_off_c, 0, 84, 64
1, 41627, Note_on_c, 0, 88, 75
1, 41634, Control_c, 0, 64, 23
1, 41637, Note_off_c, 0, 85, 65
1, 41656, Note_on_c, 0, 89, 71
1, 41667, Note_off_c, 0, 88, 64
1, 41679, Control_c, 0, 64, 24
1, 41693, Control_c, 0, 64, 24
1, 41701, Note_off_c, 0, 89, 65
1, 41704, Note_on_c, 0, 91, 85
1, 41723, Control_c, 0, 64, 25
1, 41738, Control_c, 0, 64, 25
1, 41761, Control_c, 0, 64, 27
1, 41774, Note_on_c, 0, 89, 81
1, 41775, Control_c, 0, 64, 28
1, 41790, Control_c, 0, 64, 30
1, 41796, Note_off_c, 0, 91, 64
1, 41805, Control_c, 0, 64, 32
1, 41807, Note_on_c, 0, 88, 64
1, 41820, Control_c, 0, 64, 34
1, 41834, Control_c, 0, 64, 36
1, 41841, Note_on_c, 0, 85, 82
1, 41845, Note_off_c, 0, 89, 63
1, 41846, Note_off_c, 0, 88, 65
1, 41849, Control_c, 0, 64, 37
1, 41893, Note_off_c, 0, 85, 66
1, 41897, Note_on_c, 0, 84, 75
1, 41924, Note_off_c, 0, 84, 65
1, 41952, Note_on_c, 0, 82, 81
1, 41996, Note_on_c, 0, 80, 77
1, 42046, Note_off_c, 0, 82, 63
1, 42048, Note_on_c, 0, 79, 78
1, 42077, Note_off_c, 0, 80, 63
1, 42104, Note_on_c, 0, 77, 81
1, 42104, Note_off_c, 0, 79, 66
1, 42154, Note_on_c, 0, 76, 74
1, 42205, Control_c, 0, 64, 36
1, 42214, Note_off_c, 0, 77, 64
1, 42218, Note_on_c, 0, 74, 79
1, 42222, Note_off_c, 0, 76, 63
1, 42262, Note_off_c, 0, 74, 64
1, 42265, Note_on_c, 0, 72, 78
1, 42317, Note_off_c, 0, 72, 63
1, 42323, Control_c, 0, 64, 35
1, 42330, Note_off_c, 0, 64, 52
1, 42337, Note_on_c, 0, 70, 81
1, 42338, Control_c, 0, 64, 35
1, 42346, Note_off_c, 0, 53, 56
1, 42366, Note_off_c, 0, 61, 52
1, 42384, Control_c, 0, 64, 34
1, 42396, Note_on_c, 0, 68, 78
1, 42413, Control_c, 0, 64, 33
1, 42428, Control_c, 0, 64, 32
1, 42443, Control_c, 0, 64, 32
1, 42446, Note_off_c, 0, 58, 39
1, 42452, Note_on_c, 0, 67, 88
1, 42486, Note_off_c, 0, 70, 62
1, 42487, Control_c, 0, 64, 35
1, 42491, Note_off_c, 0, 68, 62
1, 42509, Control_c, 0, 64, 54
1, 42522, Note_on_c, 0, 60, 92
1, 42522, Note_on_c, 0, 65, 99
1, 42524, Control_c, 0, 64, 67
1, 42526, Note_on_c, 0, 53, 81
1, 42530, Note_on_c, 0, 56, 84
1, 42539, Control_c, 0, 64, 87
1, 42540, Note_off_c, 0, 67, 58
1, 42554, Control_c, 0, 64, 127
1, 42599, Note_off_c, 0, 65, 63
1, 42618, Note_off_c, 0, 53, 61
1, 42619, Note_off_c, 0, 60, 62
1, 42643, Control_c, 0, 64, 100
1, 42644, Note_off_c, 0, 56, 63
1, 42657, Control_c, 0, 64, 87
1, 42672, Control_c, 0, 64, 79
1, 42687, Control_c, 0, 64, 71
1, 42702, Control_c, 0, 64, 65
1, 42717, Control_c, 0, 64, 58
1, 42731, Control_c, 0, 64, 47
1, 42746, Control_c, 0, 64, 38
1, 42761, Control_c, 0, 64, 24
1, 42775, Control_c, 0, 64, 0
1, 43117, Control_c, 0, 64, 20
1, 43131, Control_c, 0, 64, 41
1, 43146, Control_c, 0, 64, 54
1, 43162, Control_c, 0, 64, 60
1, 43177, Control_c, 0, 64, 63
1, 43192, Control_c, 0, 64, 67
1, 43195, Note_on_c, 0, 58, 82
1, 43195, Note_on_c, 0, 61, 77
1, 43195, Note_on_c, 0, 67, 90
1, 43195, Note_on_c, 0, 70, 85
1, 43197, Note_on_c, 0, 79, 91
1, 43198, Note_on_c, 0, 73, 80
1, 43198, Note_on_c, 0, 75, 66
1, 43198, Note_on_c, 0, 51, 83
1, 43202, Note_on_c, 0, 63, 88
1, 43206, Control_c, 0, 64, 76
1, 43221, Control_c, 0, 64, 99
1, 43236, Control_c, 0, 64, 127
1, 43289, Note_off_c, 0, 79, 63
1, 43290, Note_off_c, 0, 67, 60
1, 43295, Note_off_c, 0, 51, 65
1, 43297, Note_off_c, 0, 61, 56
1, 43302, Note_off_c, 0, 73, 61
1, 43307, Note_off_c, 0, 63, 61
1, 43307, Note_off_c, 0, 75, 60
1, 43319, Note_off_c, 0, 70, 59
1, 43325, Poly_aftertouch_c, 0, 62, 0
1, 43344, Note_off_c, 0, 58, 60
1, 43584, Control_c, 0, 64, 123
1, 43598, Control_c, 0, 64, 101
1, 43613, Control_c, 0, 64, 90
1, 43628, Control_c, 0, 64, 84
1, 43643, Control_c, 0, 64, 79
1, 43658, Control_c, 0, 64, 76
1, 43672, Control_c, 0, 64, 73
1, 43687, Control_c, 0, 64, 70
1, 43702, Control_c, 0, 64, 67
1, 43717, Control_c, 0, 64, 64
1, 43732, Control_c, 0, 64, 62
1, 43746, Control_c, 0, 64, 60
1, 43761, Control_c, 0, 64, 60
1, 43776, Control_c, 0, 64, 59
1, 43791, Control_c, 0, 64, 58
1, 43806, Control_c, 0, 64, 56
1, 43821, Control_c, 0, 64, 55
1, 43836, Control_c, 0, 64, 54
1, 43851, Control_c, 0, 64, 53
1, 43866, Control_c, 0, 64, 51
1, 43880, Control_c, 0, 64, 50
1, 43895, Control_c, 0, 64, 47
1, 43910, Control_c, 0, 64, 43
1, 43925, Control_c, 0, 64, 40
1, 43940, Control_c, 0, 64, 37
1, 43955, Control_c, 0, 64, 33
1, 43970, Control_c, 0, 64, 27
1, 43985, Control_c, 0, 64, 16
1, 44007, Control_c, 0, 64, 0
1, 44658, Note_on_c, 0, 56, 39
1, 44658, Note_on_c, 0, 63, 36
1, 44669, Note_on_c, 0, 80, 46
1, 44674, Note_on_c, 0, 60, 35
1, 44707, Note_off_c, 0, 60, 59
1, 44710, Note_off_c, 0, 63, 48
1, 44714, Note_off_c, 0, 56, 61
1, 44715, Note_off_c, 0, 80, 64
1, 44733, Note_on_c, 0, 82, 54
1, 44770, Note_off_c, 0, 82, 66
1, 44822, Note_on_c, 0, 84, 61
1, 44825, Note_on_c, 0, 63, 56
1, 44837, Note_on_c, 0, 60, 38
1, 44847, Note_on_c, 0, 56, 44
1, 44864, Note_off_c, 0, 84, 55
1, 44867, Note_off_c, 0, 63, 61
1, 44875, Note_off_c, 0, 60, 63
1, 44884, Note_off_c, 0, 56, 57
1, 44890, Note_on_c, 0, 85, 60
1, 44937, Note_off_c, 0, 85, 62
1, 44967, Note_on_c, 0, 87, 63
1, 44977, Note_on_c, 0, 63, 48
1, 44989, Note_on_c, 0, 60, 54
1, 44990, Note_on_c, 0, 56, 43
1, 45046, Note_on_c, 0, 85, 65
1, 45050, Note_off_c, 0, 87, 55
1, 45088, Note_off_c, 0, 85, 60
1, 45117, Note_on_c, 0, 84, 63
1, 45149, Note_off_c, 0, 84, 62
1, 45260, Poly_aftertouch_c, 0, 83, 127
1, 45271, Note_on_c, 0, 80, 64
1, 45294, Poly_aftertouch_c, 0, 83, 0
1, 45344, Note_on_c, 0, 79, 68
1, 45348, Note_off_c, 0, 80, 61
1, 45389, Note_off_c, 0, 79, 65
1, 45398, Note_off_c, 0, 63, 63
1, 45430, Note_on_c, 0, 77, 62
1, 45464, Note_off_c, 0, 77, 63
1, 45507, Note_on_c, 0, 75, 60
1, 45556, Note_on_c, 0, 61, 46
1, 45557, Note_on_c, 0, 65, 47
1, 45580, Note_on_c, 0, 73, 65
1, 45583, Note_off_c, 0, 75, 61
1, 45627, Note_off_c, 0, 73, 62
1, 45656, Note_on_c, 0, 72, 59
1, 45666, Note_off_c, 0, 60, 55
1, 45690, Note_off_c, 0, 72, 62
1, 45729, Note_on_c, 0, 70, 56
1, 45805, Note_off_c, 0, 70, 60
1, 45806, Note_on_c, 0, 68, 55
1, 45851, Note_off_c, 0, 68, 60
1, 45877, Note_on_c, 0, 67, 58
1, 45922, Note_off_c, 0, 67, 58
1, 45954, Note_on_c, 0, 68, 57
1, 46007, Note_off_c, 0, 68, 58
1, 46023, Note_on_c, 0, 70, 61
1, 46051, Note_off_c, 0, 70, 67
1, 46095, Note_on_c, 0, 72, 63
1, 46153, Note_off_c, 0, 72, 55
1, 46173, Note_on_c, 0, 73, 63
1, 46235, Note_off_c, 0, 73, 63
1, 46252, Note_on_c, 0, 75, 62
1, 46292, Note_off_c, 0, 75, 64
1, 46304, Note_off_c, 0, 65, 50
1, 46325, Note_on_c, 0, 77, 64
1, 46352, Note_off_c, 0, 56, 54
1, 46393, Note_off_c, 0, 77, 49
1, 46402, Note_on_c, 0, 79, 70
1, 46469, Note_on_c, 0, 80, 67
1, 46469, Note_off_c, 0, 79, 64
1, 46476, Note_on_c, 0, 63, 65
1, 46477, Note_on_c, 0, 56, 58
1, 46484, Note_on_c, 0, 60, 52
1, 46496, Note_off_c, 0, 61, 37
1, 46508, Note_off_c, 0, 63, 64
1, 46516, Note_off_c, 0, 56, 64
1, 46519, Note_off_c, 0, 60, 65
1, 46538, Note_off_c, 0, 80, 64
1, 46545, Note_on_c, 0, 82, 68
1, 46570, Note_off_c, 0, 82, 70
1, 46617, Note_on_c, 0, 63, 64
1, 46622, Note_on_c, 0, 84, 74
1, 46623, Note_on_c, 0, 60, 54
1, 46629, Note_on_c, 0, 56, 46
1, 46650, Note_off_c, 0, 63, 65
1, 46659, Note_off_c, 0, 60, 66
1, 46662, Note_off_c, 0, 56, 63
1, 46684, Note_off_c, 0, 84, 49
1, 46699, Note_on_c, 0, 85, 63
1, 46769, Note_on_c, 0, 63, 47
1, 46774, Note_on_c, 0, 56, 43
1, 46774, Note_off_c, 0, 85, 61
1, 46777, Note_on_c, 0, 60, 46
1, 46794, Note_on_c, 0, 89, 61
1, 46876, Note_on_c, 0, 87, 68
1, 46890, Note_off_c, 0, 89, 57
1, 46946, Note_on_c, 0, 85, 71
1, 46958, Note_off_c, 0, 87, 62
1, 47011, Note_off_c, 0, 85, 65
1, 47027, Note_on_c, 0, 84, 62
1, 47055, Note_off_c, 0, 84, 68
1, 47087, Note_on_c, 0, 82, 70
1, 47149, Note_on_c, 0, 80, 66
1, 47181, Note_off_c, 0, 82, 60
1, 47217, Note_on_c, 0, 79, 65
1, 47220, Note_off_c, 0, 80, 61
1, 47258, Note_off_c, 0, 79, 63
1, 47293, Note_on_c, 0, 77, 65
1, 47330, Note_off_c, 0, 77, 59
1, 47374, Note_on_c, 0, 75, 61
1, 47388, Note_on_c, 0, 61, 49
1, 47419, Note_off_c, 0, 75, 59
1, 47434, Note_off_c, 0, 60, 60
1, 47458, Note_on_c, 0, 77, 52
1, 47531, Note_on_c, 0, 73, 64
1, 47535, Note_off_c, 0, 77, 59
1, 47555, Note_on_c, 0, 58, 57
1, 47591, Note_off_c, 0, 61, 43
1, 47609, Note_on_c, 0, 75, 64
1, 47609, Note_off_c, 0, 73, 62
1, 47658, Note_off_c, 0, 75, 58
1, 47690, Note_on_c, 0, 72, 64
1, 47694, Note_on_c, 0, 60, 58
1, 47748, Note_off_c, 0, 72, 58
1, 47772, Note_on_c, 0, 75, 67
1, 47794, Note_off_c, 0, 58, 37
1, 47839, Note_off_c, 0, 75, 59
1, 47855, Note_on_c, 0, 70, 61
1, 47879, Note_on_c, 0, 61, 53
1, 47894, Note_off_c, 0, 60, 61
1, 47897, Note_off_c, 0, 70, 60
1, 47948, Note_on_c, 0, 75, 55
1, 47995, Note_off_c, 0, 75, 60
1, 48033, Note_on_c, 0, 68, 50
1, 48041, Note_on_c, 0, 60, 41
1, 48104, Note_off_c, 0, 68, 53
1, 48120, Note_on_c, 0, 75, 55
1, 48137, Note_off_c, 0, 56, 36
1, 48191, Note_off_c, 0, 75, 57
1, 48211, Note_off_c, 0, 63, 36
1, 48220, Note_off_c, 0, 60, 44
1, 48221, Note_on_c, 0, 67, 48
1, 48225, Note_on_c, 0, 58, 34
1, 48257, Note_off_c, 0, 67, 57
1, 48311, Note_on_c, 0, 75, 48
1, 48332, Note_off_c, 0, 75, 57
1, 48337, Note_off_c, 0, 61, 39
1, 48364, Note_off_c, 0, 58, 60
1, 48420, Note_on_c, 0, 80, 62
1, 48449, Note_on_c, 0, 63, 49
1, 48452, Note_on_c, 0, 56, 45
1, 48463, Note_on_c, 0, 59, 39
1, 48494, Note_off_c, 0, 63, 63
1, 48499, Note_off_c, 0, 56, 63
1, 48504, Note_off_c, 0, 59, 57
1, 48509, Note_off_c, 0, 80, 63
1, 48510, Note_on_c, 0, 82, 58
1, 48543, Note_off_c, 0, 82, 67
1, 48593, Note_on_c, 0, 83, 69
1, 48607, Note_on_c, 0, 59, 45
1, 48609, Note_on_c, 0, 56, 48
1, 48609, Note_on_c, 0, 63, 51
1, 48644, Note_off_c, 0, 63, 62
1, 48646, Note_off_c, 0, 83, 55
1, 48649, Note_off_c, 0, 59, 63
1, 48650, Note_off_c, 0, 56, 61
1, 48676, Note_on_c, 0, 85, 63
1, 48730, Note_off_c, 0, 85, 59
1, 48754, Note_on_c, 0, 87, 65
1, 48767, Note_on_c, 0, 63, 41
1, 48772, Note_on_c, 0, 59, 48
1, 48774, Note_on_c, 0, 56, 47
1, 48838, Note_on_c, 0, 85, 69
1, 48839, Note_off_c, 0, 87, 59
1, 48881, Note_off_c, 0, 85, 61
1, 48912, Note_on_c, 0, 83, 63
1, 48956, Note_off_c, 0, 83, 62
1, 48987, Note_on_c, 0, 82, 69
1, 49061, Note_on_c, 0, 80, 73
1, 49108, Note_off_c, 0, 82, 58
1, 49142, Note_on_c, 0, 78, 75
1, 49163, Note_off_c, 0, 80, 61
1, 49211, Note_off_c, 0, 78, 63
1, 49222, Note_on_c, 0, 76, 67
1, 49277, Note_off_c, 0, 76, 61
1, 49298, Note_off_c, 0, 63, 62
1, 49305, Note_on_c, 0, 75, 66
1, 49383, Note_on_c, 0, 73, 69
1, 49390, Note_off_c, 0, 75, 61
1, 49413, Note_on_c, 0, 64, 56
1, 49416, Note_on_c, 0, 61, 55
1, 49444, Note_off_c, 0, 73, 63
1, 49464, Note_on_c, 0, 71, 64
1, 49505, Note_off_c, 0, 71, 58
1, 49526, Note_off_c, 0, 59, 56
1, 49547, Note_on_c, 0, 70, 59
1, 49628, Note_on_c, 0, 68, 59
1, 49632, Note_off_c, 0, 70, 58
1, 49676, Note_off_c, 0, 68, 59
1, 49702, Note_on_c, 0, 67, 58
1, 49747, Note_off_c, 0, 67, 58
1, 49780, Note_on_c, 0, 68, 58
1, 49830, Note_off_c, 0, 68, 60
1, 49845, Note_on_c, 0, 70, 61
1, 49872, Note_off_c, 0, 70, 67
1, 49924, Note_on_c, 0, 71, 62
1, 49972, Note_off_c, 0, 71, 51
1, 50006, Note_on_c, 0, 73, 62
1, 50070, Note_off_c, 0, 73, 64
1, 50073, Note_on_c, 0, 75, 65
1, 50103, Note_off_c, 0, 64, 57
1, 50103, Note_off_c, 0, 75, 66
1, 50140, Note_off_c, 0, 56, 57
1, 50149, Note_on_c, 0, 76, 67
1, 50216, Note_off_c, 0, 76, 55
1, 50222, Note_on_c, 0, 79, 70
1, 50284, Note_on_c, 0, 56, 52
1, 50284, Note_on_c, 0, 63, 58
1, 50290, Note_on_c, 0, 80, 65
1, 50292, Note_on_c, 0, 59, 45
1, 50295, Note_off_c, 0, 79, 63
1, 50301, Note_off_c, 0, 61, 59
1, 50319, Note_off_c, 0, 63, 64
1, 50325, Note_off_c, 0, 56, 63
1, 50327, Note_off_c, 0, 59, 61
1, 50349, Note_off_c, 0, 80, 65
1, 50364, Note_on_c, 0, 82, 68
1, 50391, Note_off_c, 0, 82, 69
1, 50435, Note_on_c, 0, 83, 72
1, 50438, Note_on_c, 0, 56, 48
1, 50440, Note_on_c, 0, 63, 49
1, 50453, Note_on_c, 0, 59, 29
1, 50467, Note_off_c, 0, 63, 57
1, 50474, Note_off_c, 0, 56, 62
1, 50485, Note_off_c, 0, 59, 47
1, 50492, Note_off_c, 0, 83, 56
1, 50506, Note_on_c, 0, 85, 64
1, 50584, Note_off_c, 0, 85, 61
1, 50586, Note_on_c, 0, 88, 64
1, 50591, Note_on_c, 0, 63, 44
1, 50593, Note_on_c, 0, 56, 44
1, 50594, Note_on_c, 0, 59, 40
1, 50670, Note_on_c, 0, 87, 71
1, 50685, Note_off_c, 0, 88, 58
1, 50758, Note_on_c, 0, 85, 72
1, 50771, Note_off_c, 0, 87, 61
1, 50816, Note_off_c, 0, 85, 64
1, 50834, Note_on_c, 0, 83, 69
1, 50873, Note_off_c, 0, 83, 60
1, 50902, Note_on_c, 0, 82, 68
1, 50984, Note_on_c, 0, 80, 66
1, 51034, Note_off_c, 0, 82, 57
1, 51061, Note_on_c, 0, 78, 69
1, 51072, Note_off_c, 0, 80, 58
1, 51138, Note_off_c, 0, 78, 64
1, 51151, Note_on_c, 0, 76, 61
1, 51196, Note_off_c, 0, 76, 56
1, 51216, Note_on_c, 0, 75, 68
1, 51225, Note_on_c, 0, 61, 50
1, 51261, Note_off_c, 0, 75, 56
1, 51276, Note_off_c, 0, 59, 61
1, 51384, Note_on_c, 0, 73, 63
1, 51400, Note_on_c, 0, 58, 51
1, 51413, Note_off_c, 0, 61, 50
1, 51445, Note_off_c, 0, 73, 62
1, 51456, Note_on_c, 0, 75, 66
1, 51529, Note_off_c, 0, 75, 60
1, 51551, Note_on_c, 0, 71, 62
1, 51572, Note_on_c, 0, 59, 48
1, 51608, Note_off_c, 0, 71, 56
1, 51630, Note_on_c, 0, 75, 56
1, 51646, Note_off_c, 0, 58, 30
1, 51686, Note_off_c, 0, 75, 57
1, 51725, Note_on_c, 0, 70, 48
1, 51741, Note_on_c, 0, 61, 42
1, 51746, Note_off_c, 0, 59, 52
1, 51771, Note_off_c, 0, 70, 59
1, 51806, Note_on_c, 0, 75, 58
1, 51851, Note_off_c, 0, 75, 58
1, 51896, Note_on_c, 0, 59, 33
1, 51897, Note_on_c, 0, 68, 48
1, 51921, Note_off_c, 0, 56, 37
1, 51951, Note_off_c, 0, 63, 29
1, 51981, Note_on_c, 0, 75, 52
1, 51982, Note_off_c, 0, 68, 59
1, 52066, Note_off_c, 0, 59, 45
1, 52075, Note_on_c, 0, 67, 51
1, 52078, Note_on_c, 0, 58, 30
1, 52086, Note_off_c, 0, 75, 51
1, 52102, Note_off_c, 0, 61, 29
1, 52111, Note_off_c, 0, 67, 64
1, 52145, Note_off_c, 0, 58, 55
1, 52258, Note_on_c, 0, 80, 59
1, 52286, Note_on_c, 0, 63, 55
1, 52288, Note_on_c, 0, 60, 53
1, 52301, Note_on_c, 0, 56, 36
1, 52322, Note_off_c, 0, 63, 63
1, 52326, Note_off_c, 0, 60, 66
1, 52331, Note_off_c, 0, 56, 57
1, 52336, Note_off_c, 0, 80, 63
1, 52343, Note_on_c, 0, 82, 61
1, 52373, Note_off_c, 0, 82, 67
1, 52423, Note_on_c, 0, 63, 60
1, 52425, Note_on_c, 0, 84, 74
1, 52426, Note_on_c, 0, 60, 52
1, 52427, Note_on_c, 0, 56, 47
1, 52456, Note_off_c, 0, 63, 63
1, 52462, Note_off_c, 0, 60, 65
1, 52465, Note_off_c, 0, 56, 65
1, 52474, Note_off_c, 0, 84, 59
1, 52503, Note_on_c, 0, 85, 68
1, 52564, Note_off_c, 0, 85, 63
1, 52573, Note_on_c, 0, 60, 49
1, 52573, Note_on_c, 0, 56, 50
1, 52573, Note_on_c, 0, 63, 51
1, 52582, Note_on_c, 0, 87, 71
1, 52659, Note_on_c, 0, 85, 72
1, 52671, Note_off_c, 0, 87, 61
1, 52710, Note_off_c, 0, 85, 60
1, 52724, Note_on_c, 0, 84, 73
1, 52763, Note_off_c, 0, 84, 59
1, 52796, Note_on_c, 0, 82, 73
1, 52867, Note_on_c, 0, 80, 71
1, 52912, Note_off_c, 0, 82, 60
1, 52937, Note_on_c, 0, 79, 75
1, 52960, Note_off_c, 0, 80, 61
1, 53003, Note_off_c, 0, 79, 63
1, 53019, Note_on_c, 0, 77, 77
1, 53057, Note_off_c, 0, 63, 63
1, 53065, Note_off_c, 0, 77, 59
1, 53092, Note_on_c, 0, 75, 70
1, 53167, Note_on_c, 0, 65, 64
1, 53169, Note_on_c, 0, 61, 64
1, 53169, Note_on_c, 0, 73, 76
1, 53182, Note_off_c, 0, 75, 61
1, 53229, Note_off_c, 0, 73, 64
1, 53239, Note_off_c, 0, 60, 60
1, 53246, Note_on_c, 0, 72, 69
1, 53275, Note_off_c, 0, 72, 64
1, 53317, Note_on_c, 0, 70, 69
1, 53388, Note_on_c, 0, 68, 73
1, 53417, Note_off_c, 0, 70, 54
1, 53461, Note_off_c, 0, 68, 62
1, 53462, Note_on_c, 0, 67, 77
1, 53540, Note_on_c, 0, 68, 76
1, 53552, Note_off_c, 0, 67, 62
1, 53616, Note_on_c, 0, 70, 77
1, 53622, Note_off_c, 0, 68, 62
1, 53660, Note_off_c, 0, 70, 67
1, 53698, Note_on_c, 0, 72, 79
1, 53767, Note_off_c, 0, 72, 63
1, 53768, Note_on_c, 0, 73, 81
1, 53840, Note_on_c, 0, 75, 80
1, 53849, Note_off_c, 0, 73, 64
1, 53889, Note_off_c, 0, 75, 63
1, 53895, Note_off_c, 0, 65, 57
1, 53911, Note_on_c, 0, 77, 82
1, 53937, Note_off_c, 0, 56, 60
1, 53981, Note_off_c, 0, 77, 58
1, 53986, Note_on_c, 0, 79, 81
1, 54037, Note_on_c, 0, 63, 75
1, 54042, Note_on_c, 0, 56, 71
1, 54045, Note_on_c, 0, 60, 62
1, 54045, Note_on_c, 0, 80, 82
1, 54057, Note_off_c, 0, 79, 63
1, 54066, Note_off_c, 0, 63, 64
1, 54069, Note_off_c, 0, 61, 40
1, 54079, Note_off_c, 0, 56, 66
1, 54081, Note_off_c, 0, 60, 65
1, 54121, Note_on_c, 0, 82, 82
1, 54130, Note_off_c, 0, 80, 64
1, 54154, Note_off_c, 0, 82, 69
1, 54182, Note_on_c, 0, 63, 77
1, 54185, Note_on_c, 0, 60, 70
1, 54191, Note_on_c, 0, 56, 67
1, 54197, Note_on_c, 0, 84, 87
1, 54212, Note_off_c, 0, 63, 61
1, 54224, Note_off_c, 0, 60, 64
1, 54227, Note_off_c, 0, 56, 66
1, 54267, Note_off_c, 0, 84, 62
1, 54269, Note_on_c, 0, 85, 81
1, 54328, Note_on_c, 0, 63, 85
1, 54334, Note_on_c, 0, 60, 77
1, 54335, Note_on_c, 0, 56, 76
1, 54338, Note_on_c, 0, 87, 84
1, 54344, Note_off_c, 0, 85, 66
1, 54379, Control_c, 0, 64, 19
1, 54391, Note_off_c, 0, 87, 65
1, 54394, Control_c, 0, 64, 28
1, 54409, Control_c, 0, 64, 37
1, 54416, Note_on_c, 0, 89, 84
1, 54424, Control_c, 0, 64, 45
1, 54439, Control_c, 0, 64, 50
1, 54453, Control_c, 0, 64, 52
1, 54468, Control_c, 0, 64, 52
1, 54490, Control_c, 0, 64, 54
1, 54491, Note_on_c, 0, 91, 85
1, 54505, Control_c, 0, 64, 56
1, 54519, Control_c, 0, 64, 60
1, 54534, Control_c, 0, 64, 64
1, 54549, Control_c, 0, 64, 67
1, 54551, Note_off_c, 0, 89, 55
1, 54558, Note_on_c, 0, 92, 85
1, 54564, Control_c, 0, 64, 71
1, 54570, Note_off_c, 0, 91, 59
1, 54579, Control_c, 0, 64, 76
1, 54593, Control_c, 0, 64, 82
1, 54608, Control_c, 0, 64, 91
1, 54623, Note_on_c, 0, 94, 86
1, 54623, Control_c, 0, 64, 100
1, 54636, Note_off_c, 0, 92, 66
1, 54638, Control_c, 0, 64, 111
1, 54653, Control_c, 0, 64, 115
1, 54665, Note_off_c, 0, 94, 64
1, 54682, Control_c, 0, 64, 113
1, 54697, Control_c, 0, 64, 113
1, 54702, Note_on_c, 0, 96, 89
1, 54727, Note_off_c, 0, 56, 60
1, 54728, Note_off_c, 0, 60, 61
1, 54756, Control_c, 0, 64, 112
1, 54761, Note_on_c, 0, 97, 81
1, 54767, Note_off_c, 0, 96, 66
1, 54771, Control_c, 0, 64, 108
1, 54785, Control_c, 0, 64, 106
1, 54800, Control_c, 0, 64, 104
1, 54827, Note_on_c, 0, 99, 87
1, 54829, Control_c, 0, 64, 105
1, 54843, Note_off_c, 0, 97, 64
1, 54844, Control_c, 0, 64, 105
1, 54859, Control_c, 0, 64, 105
1, 54874, Control_c, 0, 64, 98
1, 54889, Control_c, 0, 64, 78
1, 54904, Control_c, 0, 64, 64
1, 54904, Note_on_c, 0, 101, 86
1, 54904, Note_off_c, 0, 99, 65
1, 54916, Note_on_c, 0, 61, 77
1, 54919, Note_on_c, 0, 55, 75
1, 54919, Control_c, 0, 64, 44
1, 54928, Note_on_c, 0, 58, 68
1, 54934, Control_c, 0, 64, 37
1, 54949, Control_c, 0, 64, 38
1, 54963, Control_c, 0, 64, 40
1, 54978, Control_c, 0, 64, 45
1, 54979, Note_on_c, 0, 99, 86
1, 54993, Control_c, 0, 64, 51
1, 55008, Control_c, 0, 64, 56
1, 55019, Note_off_c, 0, 101, 65
1, 55023, Control_c, 0, 64, 58
1, 55037, Control_c, 0, 64, 59
1, 55052, Note_on_c, 0, 97, 78
1, 55052, Control_c, 0, 64, 60
1, 55067, Control_c, 0, 64, 62
1, 55079, Note_off_c, 0, 99, 64
1, 55082, Control_c, 0, 64, 64
1, 55097, Control_c, 0, 64, 67
1, 55111, Control_c, 0, 64, 73
1, 55124, Note_on_c, 0, 96, 78
1, 55124, Note_off_c, 0, 97, 63
1, 55127, Control_c, 0, 64, 79
1, 55142, Control_c, 0, 64, 86
1, 55157, Control_c, 0, 64, 91
1, 55160, Note_off_c, 0, 96, 63
1, 55172, Control_c, 0, 64, 95
1, 55187, Control_c, 0, 64, 100
1, 55198, Note_on_c, 0, 94, 83
1, 55201, Control_c, 0, 64, 108
1, 55216, Control_c, 0, 64, 127
1, 55270, Note_on_c, 0, 92, 80
1, 55324, Note_off_c, 0, 94, 59
1, 55339, Note_on_c, 0, 91, 82
1, 55363, Note_off_c, 0, 92, 63
1, 55406, Note_off_c, 0, 91, 63
1, 55419, Note_on_c, 0, 89, 75
1, 55434, Note_off_c, 0, 63, 54
1, 55452, Note_off_c, 0, 55, 36
1, 55464, Note_off_c, 0, 89, 60
1, 55484, Note_on_c, 0, 87, 78
1, 55493, Note_off_c, 0, 58, 60
1, 55549, Control_c, 0, 64, 119
1, 55557, Note_on_c, 0, 85, 76
1, 55564, Control_c, 0, 64, 113
1, 55569, Note_off_c, 0, 87, 63
1, 55579, Control_c, 0, 64, 107
1, 55594, Control_c, 0, 64, 97
1, 55608, Control_c, 0, 64, 85
1, 55613, Note_off_c, 0, 85, 64
1, 55619, Note_on_c, 0, 84, 75
1, 55623, Control_c, 0, 64, 71
1, 55638, Control_c, 0, 64, 61
1, 55652, Control_c, 0, 64, 48
1, 55658, Note_off_c, 0, 84, 64
1, 55667, Control_c, 0, 64, 42
1, 55692, Note_on_c, 0, 82, 79
1, 55697, Control_c, 0, 64, 41
1, 55712, Control_c, 0, 64, 38
1, 55726, Note_on_c, 0, 63, 79
1, 55727, Control_c, 0, 64, 32
1, 55735, Note_on_c, 0, 56, 67
1, 55736, Note_on_c, 0, 59, 69
1, 55741, Control_c, 0, 64, 25
1, 55751, Note_off_c, 0, 61, 63
1, 55751, Note_off_c, 0, 63, 67
1, 55752, Note_on_c, 0, 80, 86
1, 55756, Control_c, 0, 64, 13
1, 55761, Note_off_c, 0, 82, 64
1, 55767, Note_off_c, 0, 59, 66
1, 55768, Note_off_c, 0, 56, 66
1, 55771, Control_c, 0, 64, 0
1, 55838, Note_on_c, 0, 82, 85
1, 55843, Note_off_c, 0, 80, 65
1, 55881, Note_off_c, 0, 82, 66
1, 55888, Note_on_c, 0, 63, 78
1, 55890, Note_on_c, 0, 59, 63
1, 55890, Control_c, 0, 64, 9
1, 55893, Note_on_c, 0, 56, 62
1, 55905, Control_c, 0, 64, 11
1, 55905, Note_on_c, 0, 83, 91
1, 55914, Note_off_c, 0, 63, 67
1, 55929, Note_off_c, 0, 59, 62
1, 55932, Note_off_c, 0, 56, 64
1, 55987, Note_on_c, 0, 85, 85
1, 55995, Note_off_c, 0, 83, 61
1, 56046, Control_c, 0, 64, 12
1, 56057, Note_on_c, 0, 87, 89
1, 56060, Note_off_c, 0, 85, 64
1, 56060, Note_on_c, 0, 63, 91
1, 56061, Control_c, 0, 64, 17
1, 56063, Note_on_c, 0, 59, 74
1, 56066, Note_on_c, 0, 56, 76
1, 56076, Control_c, 0, 64, 18
1, 56091, Control_c, 0, 64, 19
1, 56136, Control_c, 0, 64, 20
1, 56137, Note_on_c, 0, 85, 84
1, 56162, Note_off_c, 0, 87, 62
1, 56195, Control_c, 0, 64, 21
1, 56206, Note_off_c, 0, 85, 64
1, 56209, Note_on_c, 0, 83, 82
1, 56225, Control_c, 0, 64, 21
1, 56239, Control_c, 0, 64, 22
1, 56254, Control_c, 0, 64, 23
1, 56260, Note_off_c, 0, 83, 63
1, 56269, Control_c, 0, 64, 23
1, 56284, Control_c, 0, 64, 24
1, 56285, Note_on_c, 0, 82, 83
1, 56299, Control_c, 0, 64, 24
1, 56355, Note_on_c, 0, 80, 83
1, 56373, Control_c, 0, 64, 25
1, 56409, Note_off_c, 0, 82, 56
1, 56418, Control_c, 0, 64, 25
1, 56435, Note_on_c, 0, 78, 83
1, 56460, Note_off_c, 0, 80, 63
1, 56509, Note_off_c, 0, 78, 63
1, 56511, Note_on_c, 0, 76, 77
1, 56571, Note_off_c, 0, 76, 61
1, 56583, Note_off_c, 0, 63, 61
1, 56585, Note_on_c, 0, 75, 81
1, 56642, Note_on_c, 0, 64, 79
1, 56644, Note_on_c, 0, 61, 72
1, 56654, Control_c, 0, 64, 26
1, 56660, Note_on_c, 0, 73, 83
1, 56683, Note_off_c, 0, 75, 61
1, 56737, Note_off_c, 0, 73, 63
1, 56744, Note_on_c, 0, 71, 78
1, 56749, Note_off_c, 0, 59, 54
1, 56791, Note_off_c, 0, 71, 57
1, 56817, Note_on_c, 0, 70, 79
1, 56885, Control_c, 0, 64, 26
1, 56891, Note_on_c, 0, 68, 72
1, 56918, Note_off_c, 0, 70, 54
1, 56952, Note_off_c, 0, 68, 63
1, 56955, Note_on_c, 0, 67, 78
1, 57024, Note_on_c, 0, 68, 75
1, 57035, Note_off_c, 0, 67, 60
1, 57098, Note_on_c, 0, 70, 81
1, 57107, Note_off_c, 0, 68, 62
1, 57147, Note_off_c, 0, 70, 67
1, 57184, Note_on_c, 0, 71, 76
1, 57253, Note_on_c, 0, 73, 78
1, 57256, Note_off_c, 0, 71, 61
1, 57270, Control_c, 0, 64, 27
1, 57324, Note_on_c, 0, 75, 76
1, 57328, Note_off_c, 0, 73, 64
1, 57329, Control_c, 0, 64, 27
1, 57344, Control_c, 0, 64, 28
1, 57347, Note_off_c, 0, 64, 50
1, 57356, Note_off_c, 0, 75, 65
1, 57359, Control_c, 0, 64, 29
1, 57373, Control_c, 0, 64, 30
1, 57388, Note_on_c, 0, 76, 82
1, 57388, Control_c, 0, 64, 30
1, 57403, Control_c, 0, 64, 32
1, 57413, Note_off_c, 0, 56, 55
1, 57418, Control_c, 0, 64, 33
1, 57432, Control_c, 0, 64, 34
1, 57458, Note_off_c, 0, 76, 56
1, 57462, Control_c, 0, 64, 34
1, 57466, Note_on_c, 0, 79, 84
1, 57514, Control_c, 0, 64, 35
1, 57530, Control_c, 0, 64, 35
1, 57533, Note_on_c, 0, 63, 83
1, 57537, Note_on_c, 0, 56, 70
1, 57538, Note_on_c, 0, 80, 79
1, 57539, Note_on_c, 0, 59, 72
1, 57545, Control_c, 0, 64, 36
1, 57551, Note_off_c, 0, 79, 62
1, 57552, Note_off_c, 0, 61, 61
1, 57561, Note_off_c, 0, 63, 63
1, 57570, Note_off_c, 0, 56, 66
1, 57574, Note_off_c, 0, 59, 66
1, 57610, Note_on_c, 0, 82, 85
1, 57620, Note_off_c, 0, 80, 65
1, 57654, Note_off_c, 0, 82, 67
1, 57679, Control_c, 0, 64, 37
1, 57680, Note_on_c, 0, 63, 91
1, 57686, Note_on_c, 0, 59, 70
1, 57690, Note_on_c, 0, 83, 84
1, 57693, Note_on_c, 0, 56, 66
1, 57694, Control_c, 0, 64, 39
1, 57709, Control_c, 0, 64, 39
1, 57727, Note_off_c, 0, 56, 67
1, 57730, Note_off_c, 0, 63, 62
1, 57742, Note_off_c, 0, 59, 61
1, 57753, Control_c, 0, 64, 40
1, 57763, Note_on_c, 0, 85, 81
1, 57765, Note_off_c, 0, 83, 63
1, 57768, Control_c, 0, 64, 40
1, 57783, Control_c, 0, 64, 41
1, 57798, Control_c, 0, 64, 43
1, 57812, Control_c, 0, 64, 45
1, 57827, Control_c, 0, 64, 49
1, 57829, Note_on_c, 0, 87, 83
1, 57831, Note_on_c, 0, 63, 88
1, 57835, Note_off_c, 0, 85, 67
1, 57840, Note_on_c, 0, 56, 79
1, 57842, Control_c, 0, 64, 55
1, 57843, Note_on_c, 0, 59, 70
1, 57857, Control_c, 0, 64, 59
1, 57872, Control_c, 0, 64, 62
1, 57874, Note_off_c, 0, 87, 66
1, 57882, Note_on_c, 0, 60, 26
1, 57886, Control_c, 0, 64, 65
1, 57900, Note_on_c, 0, 89, 91
1, 57901, Control_c, 0, 64, 70
1, 57916, Control_c, 0, 64, 80
1, 57919, Note_off_c, 0, 60, 33
1, 57930, Control_c, 0, 64, 104
1, 57945, Control_c, 0, 64, 127
1, 57974, Note_on_c, 0, 91, 92
1, 57985, Note_off_c, 0, 89, 63
1, 57987, Note_off_c, 0, 63, 59
1, 58015, Note_off_c, 0, 56, 63
1, 58022, Note_off_c, 0, 59, 62
1, 58039, Note_on_c, 0, 92, 86
1, 58062, Note_off_c, 0, 91, 59
1, 58104, Note_on_c, 0, 94, 86
1, 58114, Note_off_c, 0, 92, 66
1, 58151, Note_off_c, 0, 94, 64
1, 58176, Note_on_c, 0, 95, 81
1, 58254, Note_on_c, 0, 97, 84
1, 58262, Note_off_c, 0, 95, 63
1, 58330, Note_on_c, 0, 99, 83
1, 58350, Note_off_c, 0, 97, 61
1, 58382, Control_c, 0, 64, 94
1, 58397, Control_c, 0, 64, 70
1, 58399, Note_on_c, 0, 100, 80
1, 58401, Note_off_c, 0, 99, 65
1, 58411, Note_on_c, 0, 64, 75
1, 58412, Control_c, 0, 64, 58
1, 58418, Note_on_c, 0, 61, 69
1, 58418, Note_on_c, 0, 55, 64
1, 58424, Note_on_c, 0, 58, 64
1, 58426, Control_c, 0, 64, 51
1, 58456, Control_c, 0, 64, 54
1, 58471, Control_c, 0, 64, 58
1, 58475, Note_on_c, 0, 99, 86
1, 58486, Control_c, 0, 64, 63
1, 58500, Control_c, 0, 64, 68
1, 58515, Control_c, 0, 64, 75
1, 58517, Note_off_c, 0, 100, 63
1, 58530, Control_c, 0, 64, 82
1, 58545, Control_c, 0, 64, 91
1, 58549, Note_on_c, 0, 97, 85
1, 58559, Control_c, 0, 64, 106
1, 58574, Control_c, 0, 64, 127
1, 58586, Note_off_c, 0, 99, 65
1, 58621, Note_on_c, 0, 95, 87
1, 58626, Note_off_c, 0, 97, 64
1, 58667, Note_off_c, 0, 95, 65
1, 58668, Note_off_c, 0, 64, 58
1, 58695, Note_on_c, 0, 94, 85
1, 58722, Control_c, 0, 64, 81
1, 58737, Control_c, 0, 64, 67
1, 58752, Control_c, 0, 64, 61
1, 58763, Note_on_c, 0, 92, 84
1, 58767, Control_c, 0, 64, 63
1, 58782, Control_c, 0, 64, 65
1, 58797, Control_c, 0, 64, 71
1, 58812, Control_c, 0, 64, 83
1, 58812, Note_off_c, 0, 94, 62
1, 58814, Note_on_c, 0, 63, 70
1, 58826, Control_c, 0, 64, 105
1, 58836, Note_on_c, 0, 91, 80
1, 58841, Control_c, 0, 64, 127
1, 58857, Note_off_c, 0, 92, 65
1, 58892, Note_off_c, 0, 91, 63
1, 58906, Note_on_c, 0, 88, 79
1, 58962, Note_off_c, 0, 88, 62
1, 58979, Note_off_c, 0, 63, 57
1, 58982, Note_on_c, 0, 87, 79
1, 58997, Note_off_c, 0, 55, 55
1, 59030, Note_off_c, 0, 58, 60
1, 59037, Note_off_c, 0, 61, 59
1, 59050, Note_on_c, 0, 85, 78
1, 59057, Note_off_c, 0, 87, 63
1, 59102, Note_off_c, 0, 85, 62
1, 59119, Note_on_c, 0, 83, 76
1, 59180, Note_off_c, 0, 83, 61
1, 59191, Note_on_c, 0, 82, 71
1, 59235, Control_c, 0, 64, 84
1, 59249, Control_c, 0, 64, 65
1, 59257, Note_off_c, 0, 82, 61
1, 59264, Control_c, 0, 64, 49
1, 59268, Note_on_c, 0, 87, 64
1, 59279, Control_c, 0, 64, 47
1, 59294, Control_c, 0, 64, 49
1, 59298, Note_on_c, 0, 59, 29
1, 59308, Note_on_c, 0, 56, 51
1, 59308, Note_on_c, 0, 63, 53
1, 59308, Control_c, 0, 64, 56
1, 59323, Control_c, 0, 64, 63
1, 59338, Control_c, 0, 64, 69
1, 59347, Note_on_c, 0, 85, 70
1, 59353, Control_c, 0, 64, 80
1, 59355, Note_off_c, 0, 87, 61
1, 59368, Control_c, 0, 64, 95
1, 59382, Control_c, 0, 64, 111
1, 59384, Note_off_c, 0, 63, 61
1, 59391, Note_off_c, 0, 85, 59
1, 59396, Note_off_c, 0, 59, 56
1, 59397, Control_c, 0, 64, 127
1, 59418, Note_on_c, 0, 83, 66
1, 59429, Note_off_c, 0, 56, 63
1, 59452, Note_off_c, 0, 83, 61
1, 59486, Control_c, 0, 64, 121
1, 59490, Note_on_c, 0, 82, 65
1, 59500, Control_c, 0, 64, 115
1, 59515, Control_c, 0, 64, 109
1, 59530, Control_c, 0, 64, 102
1, 59545, Control_c, 0, 64, 96
1, 59554, Note_on_c, 0, 80, 68
1, 59560, Control_c, 0, 64, 90
1, 59575, Control_c, 0, 64, 85
1, 59582, Note_off_c, 0, 82, 57
1, 59590, Control_c, 0, 64, 78
1, 59605, Control_c, 0, 64, 73
1, 59620, Control_c, 0, 64, 68
1, 59634, Control_c, 0, 64, 63
1, 59636, Note_off_c, 0, 80, 62
1, 59637, Note_on_c, 0, 78, 65
1, 59649, Control_c, 0, 64, 59
1, 59664, Control_c, 0, 64, 57
1, 59676, Note_on_c, 0, 56, 49
1, 59679, Control_c, 0, 64, 53
1, 59688, Note_off_c, 0, 78, 61
1, 59688, Note_on_c, 0, 47, 42
1, 59693, Note_on_c, 0, 51, 45
1, 59694, Control_c, 0, 64, 49
1, 59703, Note_on_c, 0, 76, 59
1, 59708, Control_c, 0, 64, 45
1, 59730, Control_c, 0, 64, 37
1, 59745, Control_c, 0, 64, 26
1, 59748, Note_off_c, 0, 76, 63
1, 59760, Control_c, 0, 64, 9
1, 59775, Control_c, 0, 64, 0
1, 59784, Note_off_c, 0, 56, 61
1, 59784, Note_on_c, 0, 75, 61
1, 59792, Note_off_c, 0, 47, 60
1, 59838, Note_off_c, 0, 51, 63
1, 59847, Note_off_c, 0, 75, 58
1, 59856, Note_on_c, 0, 73, 63
1, 59892, Note_off_c, 0, 73, 63
1, 59926, Note_on_c, 0, 71, 53
1, 59959, Note_off_c, 0, 71, 65
1, 59996, Note_on_c, 0, 70, 51
1, 60067, Note_off_c, 0, 70, 56
1, 60082, Note_on_c, 0, 68, 44
1, 60111, Note_off_c, 0, 68, 57
1, 60165, Note_on_c, 0, 69, 60
1, 60192, Note_on_c, 0, 49, 37
1, 60204, Note_off_c, 0, 69, 61
1, 60254, Note_on_c, 0, 73, 50
1, 60284, Note_off_c, 0, 73, 63
1, 60321, Note_on_c, 0, 69, 57
1, 60366, Note_off_c, 0, 69, 59
1, 60380, Note_on_c, 0, 73, 55
1, 60390, Note_off_c, 0, 49, 49
1, 60423, Note_off_c, 0, 73, 61
1, 60448, Note_on_c, 0, 61, 49
1, 60452, Note_on_c, 0, 76, 60
1, 60454, Note_on_c, 0, 57, 44
1, 60495, Note_off_c, 0, 61, 63
1, 60497, Note_off_c, 0, 57, 63
1, 60499, Note_off_c, 0, 76, 61
1, 60645, Note_on_c, 0, 67, 59
1, 60646, Note_on_c, 0, 51, 50
1, 60672, Control_c, 0, 64, 23
1, 60687, Control_c, 0, 64, 33
1, 60692, Note_off_c, 0, 67, 52
1, 60702, Control_c, 0, 64, 38
1, 60717, Control_c, 0, 64, 41
1, 60731, Note_on_c, 0, 70, 57
1, 60733, Control_c, 0, 64, 44
1, 60747, Control_c, 0, 64, 49
1, 60762, Control_c, 0, 64, 53
1, 60774, Note_off_c, 0, 70, 63
1, 60777, Control_c, 0, 64, 57
1, 60792, Control_c, 0, 64, 59
1, 60807, Control_c, 0, 64, 59
1, 60813, Note_on_c, 0, 67, 53
1, 60821, Control_c, 0, 64, 60
1, 60836, Control_c, 0, 64, 60
1, 60848, Note_off_c, 0, 67, 57
1, 60851, Control_c, 0, 64, 61
1, 60866, Control_c, 0, 64, 63
1, 60881, Control_c, 0, 64, 66
1, 60895, Note_on_c, 0, 70, 50
1, 60895, Control_c, 0, 64, 69
1, 60910, Control_c, 0, 64, 73
1, 60925, Control_c, 0, 64, 77
1, 60928, Note_off_c, 0, 70, 66
1, 60937, Note_on_c, 0, 61, 46
1, 60938, Note_on_c, 0, 58, 52
1, 60940, Note_on_c, 0, 75, 61
1, 60940, Control_c, 0, 64, 80
1, 60955, Control_c, 0, 64, 84
1, 60964, Note_off_c, 0, 61, 58
1, 60970, Control_c, 0, 64, 86
1, 60970, Note_off_c, 0, 75, 66
1, 60976, Note_off_c, 0, 58, 64
1, 61006, Note_off_c, 0, 51, 59
1, 61029, Control_c, 0, 64, 87
1, 61044, Control_c, 0, 64, 88
1, 61059, Control_c, 0, 64, 90
1, 61074, Control_c, 0, 64, 91
1, 61118, Control_c, 0, 64, 90
1, 61147, Control_c, 0, 64, 90
1, 61162, Control_c, 0, 64, 88
1, 61174, Note_on_c, 0, 47, 77
1, 61177, Control_c, 0, 64, 86
1, 61186, Note_on_c, 0, 99, 90
1, 61192, Control_c, 0, 64, 81
1, 61207, Control_c, 0, 64, 76
1, 61229, Control_c, 0, 64, 69
1, 61244, Control_c, 0, 64, 66
1, 61259, Control_c, 0, 64, 64
1, 61268, Note_on_c, 0, 97, 86
1, 61288, Control_c, 0, 64, 63
1, 61303, Control_c, 0, 64, 62
1, 61316, Note_off_c, 0, 99, 65
1, 61318, Control_c, 0, 64, 60
1, 61332, Control_c, 0, 64, 58
1, 61335, Note_on_c, 0, 95, 92
1, 61346, Note_off_c, 0, 97, 64
1, 61346, Control_c, 0, 64, 57
1, 61361, Control_c, 0, 64, 56
1, 61376, Control_c, 0, 64, 55
1, 61391, Control_c, 0, 64, 52
1, 61392, Note_off_c, 0, 95, 65
1, 61406, Control_c, 0, 64, 49
1, 61409, Note_on_c, 0, 94, 93
1, 61420, Control_c, 0, 64, 46
1, 61435, Control_c, 0, 64, 44
1, 61450, Control_c, 0, 64, 42
1, 61465, Control_c, 0, 64, 40
1, 61474, Note_on_c, 0, 56, 81
1, 61474, Note_on_c, 0, 59, 77
1, 61479, Note_on_c, 0, 51, 76
1, 61480, Control_c, 0, 64, 39
1, 61480, Note_on_c, 0, 92, 87
1, 61495, Control_c, 0, 64, 37
1, 61509, Control_c, 0, 64, 34
1, 61525, Control_c, 0, 64, 33
1, 61540, Control_c, 0, 64, 33
1, 61551, Note_on_c, 0, 90, 85
1, 61555, Control_c, 0, 64, 32
1, 61565, Note_off_c, 0, 94, 63
1, 61584, Control_c, 0, 64, 32
1, 61590, Note_off_c, 0, 92, 65
1, 61599, Control_c, 0, 64, 30
1, 61614, Control_c, 0, 64, 27
1, 61623, Note_on_c, 0, 88, 83
1, 61629, Control_c, 0, 64, 26
1, 61631, Note_off_c, 0, 90, 64
1, 61644, Control_c, 0, 64, 25
1, 61659, Control_c, 0, 64, 25
1, 61673, Control_c, 0, 64, 24
1, 61689, Note_off_c, 0, 88, 56
1, 61691, Note_on_c, 0, 87, 89
1, 61703, Control_c, 0, 64, 24
1, 61766, Note_on_c, 0, 85, 83
1, 61796, Note_off_c, 0, 47, 61
1, 61797, Note_off_c, 0, 87, 63
1, 61836, Note_off_c, 0, 59, 56
1, 61841, Note_on_c, 0, 83, 75
1, 61841, Note_off_c, 0, 85, 65
1, 61897, Note_off_c, 0, 83, 60
1, 61927, Note_on_c, 0, 82, 70
1, 62005, Note_off_c, 0, 82, 59
1, 62009, Note_on_c, 0, 80, 60
1, 62049, Note_off_c, 0, 80, 61
1, 62096, Note_on_c, 0, 81, 65
1, 62118, Note_off_c, 0, 56, 36
1, 62124, Note_on_c, 0, 49, 32
1, 62131, Note_off_c, 0, 51, 41
1, 62153, Note_off_c, 0, 81, 59
1, 62274, Note_on_c, 0, 81, 54
1, 62313, Note_off_c, 0, 81, 63
1, 62347, Note_on_c, 0, 85, 49
1, 62382, Note_off_c, 0, 49, 42
1, 62392, Note_off_c, 0, 85, 60
1, 62403, Note_on_c, 0, 61, 37
1, 62416, Note_on_c, 0, 57, 25
1, 62423, Note_on_c, 0, 88, 46
1, 62443, Note_off_c, 0, 61, 56
1, 62451, Note_off_c, 0, 57, 54
1, 62457, Note_off_c, 0, 88, 60
1, 62592, Note_on_c, 0, 51, 48
1, 62603, Note_on_c, 0, 79, 54
1, 62651, Note_off_c, 0, 79, 61
1, 62687, Note_on_c, 0, 82, 51
1, 62731, Note_off_c, 0, 82, 65
1, 62766, Note_on_c, 0, 79, 52
1, 62798, Note_off_c, 0, 79, 57
1, 62823, Note_on_c, 0, 82, 63
1, 62874, Control_c, 0, 64, 24
1, 62889, Control_c, 0, 64, 25
1, 62891, Note_off_c, 0, 82, 62
1, 62898, Note_on_c, 0, 58, 43
1, 62900, Note_on_c, 0, 61, 35
1, 62904, Control_c, 0, 64, 26
1, 62905, Note_on_c, 0, 87, 62
1, 62918, Control_c, 0, 64, 26
1, 62926, Note_off_c, 0, 58, 60
1, 62930, Note_off_c, 0, 61, 50
1, 62933, Control_c, 0, 64, 27
1, 62937, Note_off_c, 0, 87, 66
1, 62948, Control_c, 0, 64, 27
1, 62962, Note_off_c, 0, 51, 60
1, 62978, Control_c, 0, 64, 28
1, 62992, Control_c, 0, 64, 30
1, 63007, Control_c, 0, 64, 32
1, 63022, Control_c, 0, 64, 34
1, 63037, Control_c, 0, 64, 38
1, 63052, Control_c, 0, 64, 42
1, 63066, Control_c, 0, 64, 47
1, 63081, Control_c, 0, 64, 52
1, 63096, Control_c, 0, 64, 55
1, 63111, Control_c, 0, 64, 58
1, 63127, Control_c, 0, 64, 60
1, 63132, Note_on_c, 0, 47, 55
1, 63133, Note_on_c, 0, 92, 70
1, 63141, Control_c, 0, 64, 62
1, 63156, Control_c, 0, 64, 64
1, 63171, Control_c, 0, 64, 67
1, 63186, Control_c, 0, 64, 71
1, 63201, Control_c, 0, 64, 76
1, 63216, Note_on_c, 0, 87, 72
1, 63216, Control_c, 0, 64, 83
1, 63231, Control_c, 0, 64, 91
1, 63246, Control_c, 0, 64, 104
1, 63261, Control_c, 0, 64, 127
1, 63270, Note_off_c, 0, 92, 58
1, 63288, Note_on_c, 0, 85, 82
1, 63318, Note_off_c, 0, 87, 63
1, 63352, Note_off_c, 0, 85, 65
1, 63359, Note_on_c, 0, 83, 80
1, 63404, Note_off_c, 0, 83, 63
1, 63426, Note_on_c, 0, 82, 84
1, 63436, Note_on_c, 0, 51, 68
1, 63438, Note_on_c, 0, 56, 71
1, 63438, Note_on_c, 0, 59, 66
1, 63498, Note_on_c, 0, 80, 83
1, 63559, Note_off_c, 0, 82, 63
1, 63566, Note_on_c, 0, 78, 86
1, 63585, Note_off_c, 0, 80, 64
1, 63610, Control_c, 0, 64, 114
1, 63624, Control_c, 0, 64, 106
1, 63638, Note_on_c, 0, 76, 81
1, 63638, Note_off_c, 0, 78, 64
1, 63639, Control_c, 0, 64, 99
1, 63654, Control_c, 0, 64, 94
1, 63669, Control_c, 0, 64, 90
1, 63684, Control_c, 0, 64, 86
1, 63698, Control_c, 0, 64, 82
1, 63703, Note_off_c, 0, 76, 58
1, 63705, Note_on_c, 0, 75, 89
1, 63713, Control_c, 0, 64, 80
1, 63728, Control_c, 0, 64, 78
1, 63742, Control_c, 0, 64, 76
1, 63757, Control_c, 0, 64, 75
1, 63772, Control_c, 0, 64, 73
1, 63783, Note_on_c, 0, 73, 85
1, 63787, Control_c, 0, 64, 71
1, 63795, Note_off_c, 0, 47, 54
1, 63802, Control_c, 0, 64, 69
1, 63810, Note_off_c, 0, 75, 60
1, 63817, Control_c, 0, 64, 67
1, 63832, Control_c, 0, 64, 65
1, 63847, Control_c, 0, 64, 64
1, 63850, Note_on_c, 0, 71, 79
1, 63858, Note_off_c, 0, 73, 64
1, 63861, Control_c, 0, 64, 64
1, 63876, Control_c, 0, 64, 63
1, 63891, Control_c, 0, 64, 61
1, 63903, Note_off_c, 0, 59, 56
1, 63906, Control_c, 0, 64, 59
1, 63921, Control_c, 0, 64, 56
1, 63930, Note_on_c, 0, 70, 87
1, 63930, Note_off_c, 0, 71, 43
1, 63936, Control_c, 0, 64, 54
1, 63951, Control_c, 0, 64, 51
1, 63966, Control_c, 0, 64, 48
1, 63981, Control_c, 0, 64, 45
1, 63996, Control_c, 0, 64, 41
1, 64010, Control_c, 0, 64, 38
1, 64012, Note_on_c, 0, 68, 79
1, 64025, Control_c, 0, 64, 32
1, 64040, Control_c, 0, 64, 22
1, 64055, Control_c, 0, 64, 0
1, 64057, Note_off_c, 0, 70, 59
1, 64094, Note_off_c, 0, 68, 62
1, 64106, Note_on_c, 0, 69, 83
1, 64115, Note_on_c, 0, 49, 59
1, 64166, Note_off_c, 0, 51, 57
1, 64195, Note_on_c, 0, 73, 77
1, 64197, Note_off_c, 0, 56, 57
1, 64198, Note_off_c, 0, 69, 62
1, 64293, Note_on_c, 0, 69, 83
1, 64296, Note_off_c, 0, 73, 64
1, 64381, Note_on_c, 0, 73, 78
1, 64410, Note_off_c, 0, 69, 59
1, 64517, Note_on_c, 0, 57, 49
1, 64517, Note_on_c, 0, 61, 45
1, 64517, Note_on_c, 0, 76, 79
1, 64547, Note_off_c, 0, 73, 62
1, 64607, Note_off_c, 0, 49, 60
1, 64785, Note_on_c, 0, 51, 61
1, 64863, Note_off_c, 0, 57, 61
1, 64896, Note_off_c, 0, 61, 30
1, 65137, Note_on_c, 0, 75, 62
1, 65216, Note_off_c, 0, 76, 59
1, 65561, Note_on_c, 0, 58, 18
1, 65572, Note_on_c, 0, 67, 39
1, 65573, Note_on_c, 0, 61, 26
1, 65871, Control_c, 0, 64, 11
1, 65885, Control_c, 0, 64, 31
1, 65900, Control_c, 0, 64, 40
1, 65915, Control_c, 0, 64, 45
1, 65930, Control_c, 0, 64, 49
1, 65944, Control_c, 0, 64, 53
1, 65959, Control_c, 0, 64, 57
1, 65974, Control_c, 0, 64, 60
1, 65989, Control_c, 0, 64, 62
1, 66004, Control_c, 0, 64, 63
1, 66018, Control_c, 0, 64, 64
1, 66078, Control_c, 0, 64, 65
1, 66092, Control_c, 0, 64, 65
1, 66107, Control_c, 0, 64, 66
1, 66225, Control_c, 0, 64, 66
1, 66246, Note_off_c, 0, 61, 35
1, 66266, Note_off_c, 0, 51, 34
1, 66282, Note_off_c, 0, 75, 61
1, 66285, Control_c, 0, 64, 65
1, 66290, Note_off_c, 0, 67, 55
1, 66295, Note_off_c, 0, 58, 58
1, 66300, Control_c, 0, 64, 65
1, 66315, Control_c, 0, 64, 64
1, 66330, Control_c, 0, 64, 63
1, 66345, Control_c, 0, 64, 61
1, 66359, Control_c, 0, 64, 59
1, 66374, Control_c, 0, 64, 58
1, 66389, Control_c, 0, 64, 56
1, 66404, Control_c, 0, 64, 53
1, 66419, Control_c, 0, 64, 51
1, 66434, Control_c, 0, 64, 47
1, 66449, Control_c, 0, 64, 42
1, 66471, Control_c, 0, 64, 38
1, 66486, Control_c, 0, 64, 36
1, 66501, Control_c, 0, 64, 36
1, 66515, Control_c, 0, 64, 35
1, 66530, Control_c, 0, 64, 33
1, 66533, Note_on_c, 0, 68, 25
1, 66540, Note_on_c, 0, 44, 37
1, 66545, Control_c, 0, 64, 30
1, 66560, Control_c, 0, 64, 29
1, 66564, Note_off_c, 0, 68, 47
1, 66586, Note_on_c, 0, 71, 53
1, 66597, Note_off_c, 0, 44, 59
1, 66629, Note_off_c, 0, 71, 62
1, 66658, Note_on_c, 0, 68, 53
1, 66705, Note_off_c, 0, 68, 59
1, 66708, Control_c, 0, 64, 28
1, 66723, Control_c, 0, 64, 27
1, 66735, Note_on_c, 0, 71, 52
1, 66738, Control_c, 0, 64, 25
1, 66753, Control_c, 0, 64, 24
1, 66764, Note_off_c, 0, 71, 56
1, 66800, Note_on_c, 0, 56, 51
1, 66805, Note_on_c, 0, 80, 53
1, 66812, Control_c, 0, 64, 24
1, 66827, Control_c, 0, 64, 23
1, 66833, Note_off_c, 0, 56, 64
1, 66836, Note_off_c, 0, 80, 60
1, 66841, Control_c, 0, 64, 23
1, 66915, Control_c, 0, 64, 22
1, 66930, Control_c, 0, 64, 21
1, 66945, Control_c, 0, 64, 20
1, 66987, Note_on_c, 0, 44, 43
1, 66997, Note_on_c, 0, 70, 47
1, 67023, Note_off_c, 0, 44, 58
1, 67035, Note_off_c, 0, 70, 62
1, 67069, Note_on_c, 0, 73, 58
1, 67106, Note_off_c, 0, 73, 63
1, 67138, Note_on_c, 0, 70, 57
1, 67182, Note_off_c, 0, 70, 61
1, 67203, Note_on_c, 0, 73, 54
1, 67242, Note_off_c, 0, 73, 66
1, 67255, Note_on_c, 0, 61, 46
1, 67261, Note_on_c, 0, 58, 44
1, 67280, Note_on_c, 0, 82, 57
1, 67280, Note_off_c, 0, 61, 56
1, 67287, Note_off_c, 0, 58, 56
1, 67317, Note_off_c, 0, 82, 61
1, 67437, Note_on_c, 0, 44, 61
1, 67443, Control_c, 0, 64, 21
1, 67451, Note_on_c, 0, 71, 62
1, 67472, Control_c, 0, 64, 21
1, 67487, Note_off_c, 0, 44, 62
1, 67490, Note_off_c, 0, 71, 60
1, 67531, Note_on_c, 0, 75, 56
1, 67564, Note_off_c, 0, 75, 64
1, 67596, Note_on_c, 0, 71, 60
1, 67631, Note_off_c, 0, 71, 65
1, 67640, Note_on_c, 0, 75, 71
1, 67685, Note_off_c, 0, 75, 54
1, 67699, Note_on_c, 0, 83, 66
1, 67703, Note_on_c, 0, 63, 53
1, 67711, Note_on_c, 0, 59, 30
1, 67728, Note_off_c, 0, 83, 64
1, 67731, Note_off_c, 0, 63, 60
1, 67744, Note_off_c, 0, 59, 46
1, 67769, Control_c, 0, 64, 21
1, 67783, Control_c, 0, 64, 18
1, 67798, Control_c, 0, 64, 17
1, 67813, Control_c, 0, 64, 13
1, 67828, Control_c, 0, 64, 11
1, 67857, Control_c, 0, 64, 9
1, 67858, Note_on_c, 0, 63, 48
1, 67868, Note_on_c, 0, 82, 67
1, 67868, Note_on_c, 0, 58, 51
1, 67871, Note_on_c, 0, 70, 62
1, 67872, Note_on_c, 0, 73, 58
1, 67887, Control_c, 0, 64, 0
1, 67894, Note_on_c, 0, 61, 17
1, 67897, Note_off_c, 0, 63, 61
1, 67901, Note_off_c, 0, 70, 67
1, 67905, Note_off_c, 0, 82, 55
1, 67907, Note_off_c, 0, 58, 64
1, 67912, Note_off_c, 0, 73, 62
1, 67933, Note_off_c, 0, 61, 39
1, 68021, Note_on_c, 0, 58, 46
1, 68023, Note_on_c, 0, 63, 47
1, 68031, Note_on_c, 0, 61, 50
1, 68038, Note_on_c, 0, 82, 60
1, 68042, Note_on_c, 0, 70, 57
1, 68042, Note_on_c, 0, 73, 53
1, 68051, Note_off_c, 0, 63, 57
1, 68056, Note_off_c, 0, 82, 65
1, 68058, Note_off_c, 0, 58, 62
1, 68058, Note_off_c, 0, 61, 60
1, 68066, Note_off_c, 0, 70, 64
1, 68068, Note_off_c, 0, 73, 65
1, 68171, Note_on_c, 0, 63, 43
1, 68193, Note_on_c, 0, 68, 63
1, 68194, Note_on_c, 0, 56, 47
1, 68195, Note_on_c, 0, 80, 48
1, 68211, Note_off_c, 0, 63, 63
1, 68215, Note_on_c, 0, 71, 43
1, 68229, Note_off_c, 0, 68, 61
1, 68229, Note_off_c, 0, 80, 49
1, 68235, Note_off_c, 0, 56, 64
1, 68244, Note_off_c, 0, 71, 61
1, 68371, Note_on_c, 0, 67, 56
1, 68383, Note_on_c, 0, 51, 33
1, 68411, Note_off_c, 0, 67, 60
1, 68451, Note_on_c, 0, 70, 62
1, 68484, Note_off_c, 0, 70, 66
1, 68516, Note_on_c, 0, 67, 55
1, 68556, Note_off_c, 0, 67, 63
1, 68570, Note_on_c, 0, 70, 66
1, 68602, Note_off_c, 0, 70, 64
1, 68631, Note_on_c, 0, 58, 46
1, 68649, Note_on_c, 0, 79, 55
1, 68653, Note_on_c, 0, 55, 11
1, 68667, Note_off_c, 0, 51, 34
1, 68675, Note_off_c, 0, 79, 64
1, 68681, Note_off_c, 0, 58, 59
1, 68696, Note_off_c, 0, 55, 48
1, 68802, Note_on_c, 0, 51, 41
1, 68845, Note_on_c, 0, 68, 53
1, 68898, Note_off_c, 0, 68, 59
1, 68929, Note_on_c, 0, 71, 58
1, 68975, Note_off_c, 0, 71, 61
1, 69007, Note_on_c, 0, 68, 54
1, 69047, Note_off_c, 0, 68, 64
1, 69065, Note_on_c, 0, 71, 51
1, 69096, Note_off_c, 0, 71, 55
1, 69105, Note_on_c, 0, 59, 44
1, 69105, Note_on_c, 0, 56, 40
1, 69121, Note_on_c, 0, 80, 67
1, 69137, Note_off_c, 0, 51, 35
1, 69161, Note_off_c, 0, 59, 59
1, 69164, Note_off_c, 0, 80, 56
1, 69186, Note_off_c, 0, 56, 50
1, 69270, Note_on_c, 0, 51, 50
1, 69289, Note_on_c, 0, 70, 62
1, 69328, Note_off_c, 0, 70, 61
1, 69355, Note_on_c, 0, 73, 62
1, 69390, Note_off_c, 0, 73, 64
1, 69433, Note_on_c, 0, 70, 51
1, 69480, Note_off_c, 0, 70, 64
1, 69490, Note_on_c, 0, 73, 65
1, 69521, Note_off_c, 0, 73, 68
1, 69558, Note_on_c, 0, 82, 66
1, 69563, Note_on_c, 0, 61, 36
1, 69564, Note_on_c, 0, 58, 46
1, 69579, Note_off_c, 0, 51, 57
1, 69586, Note_off_c, 0, 82, 68
1, 69591, Note_off_c, 0, 61, 53
1, 69601, Note_off_c, 0, 58, 64
1, 69722, Note_on_c, 0, 68, 61
1, 69723, Note_on_c, 0, 80, 59
1, 69730, Note_on_c, 0, 51, 40
1, 69734, Note_on_c, 0, 56, 46
1, 69740, Note_on_c, 0, 71, 44
1, 69746, Note_on_c, 0, 59, 31
1, 69753, Note_off_c, 0, 68, 64
1, 69761, Note_off_c, 0, 80, 61
1, 69767, Note_off_c, 0, 51, 54
1, 69770, Note_off_c, 0, 56, 64
1, 69778, Note_off_c, 0, 59, 44
1, 69778, Note_off_c, 0, 71, 64
1, 69867, Note_on_c, 0, 56, 58
1, 69874, Note_on_c, 0, 59, 42
1, 69874, Note_on_c, 0, 80, 62
1, 69877, Note_on_c, 0, 71, 51
1, 69878, Note_on_c, 0, 51, 43
1, 69883, Note_on_c, 0, 68, 59
1, 69901, Note_off_c, 0, 59, 57
1, 69908, Note_off_c, 0, 56, 64
1, 69910, Note_off_c, 0, 71, 61
1, 69913, Note_off_c, 0, 51, 58
1, 69916, Note_off_c, 0, 68, 64
1, 69916, Note_off_c, 0, 80, 64
1, 70014, Note_on_c, 0, 51, 57
1, 70018, Note_on_c, 0, 67, 68
1, 70019, Note_on_c, 0, 79, 70
1, 70029, Note_on_c, 0, 58, 55
1, 70047, Note_on_c, 0, 55, 21
1, 70047, Note_off_c, 0, 67, 68
1, 70050, Note_off_c, 0, 79, 64
1, 70053, Note_off_c, 0, 58, 57
1, 70058, Note_off_c, 0, 51, 65
1, 70065, Note_on_c, 0, 70, 18
1, 70091, Note_off_c, 0, 55, 29
1, 70091, Note_off_c, 0, 70, 44
1, 70118, Control_c, 0, 64, 17
1, 70132, Control_c, 0, 64, 27
1, 70147, Control_c, 0, 64, 35
1, 70162, Control_c, 0, 64, 44
1, 70176, Control_c, 0, 64, 52
1, 70191, Control_c, 0, 64, 59
1, 70192, Note_on_c, 0, 68, 65
1, 70211, Note_on_c, 0, 44, 56
1, 70214, Control_c, 0, 64, 64
1, 70229, Control_c, 0, 64, 68
1, 70244, Control_c, 0, 64, 75
1, 70251, Note_off_c, 0, 68, 57
1, 70252, Note_off_c, 0, 44, 61
1, 70258, Control_c, 0, 64, 90
1, 70273, Control_c, 0, 64, 127
1, 70275, Note_on_c, 0, 71, 67
1, 70319, Note_off_c, 0, 71, 58
1, 70354, Note_on_c, 0, 68, 64
1, 70394, Note_off_c, 0, 68, 59
1, 70415, Note_on_c, 0, 71, 68
1, 70452, Note_off_c, 0, 71, 54
1, 70477, Note_on_c, 0, 80, 77
1, 70481, Note_on_c, 0, 56, 59
1, 70494, Note_on_c, 0, 59, 36
1, 70512, Note_off_c, 0, 56, 65
1, 70527, Note_off_c, 0, 59, 51
1, 70531, Note_off_c, 0, 80, 62
1, 70555, Control_c, 0, 64, 110
1, 70570, Control_c, 0, 64, 79
1, 70585, Control_c, 0, 64, 61
1, 70600, Control_c, 0, 64, 32
1, 70614, Control_c, 0, 64, 25
1, 70629, Control_c, 0, 64, 30
1, 70644, Control_c, 0, 64, 40
1, 70647, Note_on_c, 0, 70, 76
1, 70648, Note_on_c, 0, 44, 64
1, 70659, Control_c, 0, 64, 51
1, 70674, Control_c, 0, 64, 60
1, 70688, Control_c, 0, 64, 65
1, 70700, Note_off_c, 0, 44, 61
1, 70703, Control_c, 0, 64, 71
1, 70706, Note_off_c, 0, 70, 64
1, 70710, Note_on_c, 0, 73, 80
1, 70718, Control_c, 0, 64, 80
1, 70732, Control_c, 0, 64, 90
1, 70747, Control_c, 0, 64, 111
1, 70762, Control_c, 0, 64, 127
1, 70765, Note_off_c, 0, 73, 63
1, 70783, Note_on_c, 0, 70, 81
1, 70852, Note_on_c, 0, 73, 85
1, 70859, Note_off_c, 0, 70, 63
1, 70906, Note_off_c, 0, 73, 63
1, 70913, Note_on_c, 0, 82, 85
1, 70914, Note_on_c, 0, 61, 70
1, 70917, Note_on_c, 0, 58, 73
1, 70941, Note_off_c, 0, 61, 67
1, 70947, Note_off_c, 0, 58, 66
1, 70979, Note_off_c, 0, 82, 65
1, 71067, Control_c, 0, 64, 91
1, 71081, Control_c, 0, 64, 66
1, 71096, Control_c, 0, 64, 43
1, 71099, Note_on_c, 0, 44, 75
1, 71100, Note_on_c, 0, 71, 85
1, 71112, Control_c, 0, 64, 44
1, 71127, Control_c, 0, 64, 54
1, 71142, Control_c, 0, 64, 63
1, 71157, Control_c, 0, 64, 71
1, 71161, Note_on_c, 0, 46, 14
1, 71172, Control_c, 0, 64, 93
1, 71174, Note_on_c, 0, 75, 87
1, 71176, Note_off_c, 0, 71, 63
1, 71186, Control_c, 0, 64, 127
1, 71191, Note_off_c, 0, 44, 63
1, 71213, Note_off_c, 0, 46, 50
1, 71231, Note_off_c, 0, 75, 61
1, 71243, Note_on_c, 0, 71, 80
1, 71300, Note_on_c, 0, 75, 87
1, 71311, Note_off_c, 0, 71, 62
1, 71358, Note_off_c, 0, 75, 62
1, 71361, Note_on_c, 0, 83, 86
1, 71371, Note_on_c, 0, 63, 78
1, 71375, Note_on_c, 0, 59, 72
1, 71410, Note_off_c, 0, 59, 61
1, 71417, Note_off_c, 0, 83, 63
1, 71438, Control_c, 0, 64, 107
1, 71440, Note_off_c, 0, 63, 60
1, 71453, Control_c, 0, 64, 92
1, 71468, Control_c, 0, 64, 78
1, 71483, Control_c, 0, 64, 67
1, 71498, Control_c, 0, 64, 55
1, 71512, Control_c, 0, 64, 23
1, 71526, Note_on_c, 0, 76, 81
1, 71526, Note_on_c, 0, 85, 90
1, 71527, Note_on_c, 0, 73, 85
1, 71527, Control_c, 0, 64, 0
1, 71531, Note_on_c, 0, 61, 78
1, 71532, Note_on_c, 0, 54, 74
1, 71532, Note_on_c, 0, 64, 77
1, 71561, Note_off_c, 0, 73, 64
1, 71566, Note_off_c, 0, 64, 63
1, 71573, Note_off_c, 0, 54, 60
1, 71584, Note_off_c, 0, 85, 67
1, 71589, Note_off_c, 0, 61, 61
1, 71596, Note_off_c, 0, 76, 59
1, 71691, Note_on_c, 0, 54, 72
1, 71693, Note_on_c, 0, 85, 87
1, 71694, Note_on_c, 0, 61, 74
1, 71696, Note_on_c, 0, 64, 64
1, 71698, Note_on_c, 0, 73, 76
1, 71698, Note_on_c, 0, 76, 76
1, 71732, Note_off_c, 0, 64, 67
1, 71733, Note_off_c, 0, 73, 65
1, 71736, Note_off_c, 0, 61, 59
1, 71737, Note_off_c, 0, 54, 60
1, 71747, Note_off_c, 0, 76, 65
1, 71775, Note_off_c, 0, 85, 65
1, 71857, Note_on_c, 0, 66, 76
1, 71859, Note_on_c, 0, 54, 73
1, 71861, Note_on_c, 0, 87, 93
1, 71862, Note_on_c, 0, 58, 60
1, 71865, Note_on_c, 0, 78, 74
1, 71868, Note_on_c, 0, 75, 75
1, 71882, Note_off_c, 0, 66, 69
1, 71896, Note_off_c, 0, 58, 64
1, 71901, Note_off_c, 0, 78, 60
1, 71904, Note_off_c, 0, 75, 63
1, 71910, Note_off_c, 0, 87, 66
1, 71917, Note_off_c, 0, 54, 63
1, 72020, Note_on_c, 0, 54, 75
1, 72023, Control_c, 0, 64, 33
1, 72026, Note_on_c, 0, 71, 78
1, 72038, Control_c, 0, 64, 43
1, 72053, Control_c, 0, 64, 49
1, 72068, Control_c, 0, 64, 54
1, 72083, Control_c, 0, 64, 59
1, 72087, Note_on_c, 0, 75, 84
1, 72089, Note_off_c, 0, 71, 63
1, 72098, Control_c, 0, 64, 63
1, 72113, Control_c, 0, 64, 67
1, 72127, Control_c, 0, 64, 74
1, 72142, Control_c, 0, 64, 84
1, 72149, Note_off_c, 0, 75, 61
1, 72157, Control_c, 0, 64, 98
1, 72158, Note_on_c, 0, 71, 81
1, 72172, Control_c, 0, 64, 117
1, 72186, Control_c, 0, 64, 127
1, 72212, Note_on_c, 0, 75, 85
1, 72232, Note_off_c, 0, 71, 61
1, 72253, Note_on_c, 0, 63, 78
1, 72268, Note_on_c, 0, 59, 64
1, 72277, Note_on_c, 0, 83, 85
1, 72290, Note_off_c, 0, 75, 59
1, 72300, Note_off_c, 0, 59, 64
1, 72312, Note_off_c, 0, 54, 61
1, 72315, Note_off_c, 0, 63, 59
1, 72330, Note_off_c, 0, 83, 64
1, 72393, Control_c, 0, 64, 114
1, 72408, Control_c, 0, 64, 89
1, 72423, Control_c, 0, 64, 70
1, 72438, Control_c, 0, 64, 57
1, 72443, Note_on_c, 0, 54, 61
1, 72454, Note_on_c, 0, 85, 89
1, 72455, Note_on_c, 0, 73, 81
1, 72456, Note_on_c, 0, 76, 76
1, 72457, Note_on_c, 0, 64, 64
1, 72460, Control_c, 0, 64, 39
1, 72461, Note_on_c, 0, 61, 65
1, 72475, Control_c, 0, 64, 35
1, 72490, Note_off_c, 0, 73, 64
1, 72490, Control_c, 0, 64, 27
1, 72491, Note_off_c, 0, 64, 63
1, 72505, Control_c, 0, 64, 0
1, 72509, Note_off_c, 0, 61, 58
1, 72514, Note_off_c, 0, 54, 62
1, 72518, Note_off_c, 0, 85, 65
1, 72520, Note_off_c, 0, 76, 63
1, 72622, Note_on_c, 0, 85, 79
1, 72623, Note_on_c, 0, 73, 69
1, 72624, Note_on_c, 0, 61, 66
1, 72624, Note_on_c, 0, 76, 72
1, 72629, Note_on_c, 0, 54, 61
1, 72632, Note_on_c, 0, 64, 51
1, 72650, Note_off_c, 0, 73, 68
1, 72654, Note_off_c, 0, 76, 64
1, 72655, Note_off_c, 0, 64, 59
1, 72662, Note_off_c, 0, 54, 64
1, 72664, Note_off_c, 0, 61, 57
1, 72682, Note_off_c, 0, 85, 64
1, 72797, Note_on_c, 0, 58, 56
1, 72800, Note_on_c, 0, 87, 61
1, 72801, Note_on_c, 0, 66, 55
1, 72808, Note_on_c, 0, 75, 50
1, 72813, Note_on_c, 0, 78, 46
1, 72819, Note_on_c, 0, 54, 24
1, 72828, Note_off_c, 0, 87, 64
1, 72832, Note_off_c, 0, 75, 56
1, 72833, Note_off_c, 0, 66, 64
1, 72839, Note_off_c, 0, 58, 63
1, 72840, Note_off_c, 0, 78, 57
1, 72858, Note_off_c, 0, 54, 47
1, 72965, Control_c, 0, 64, 21
1, 72980, Control_c, 0, 64, 35
1, 72995, Control_c, 0, 64, 43
1, 72997, Note_on_c, 0, 55, 43
1, 73009, Control_c, 0, 64, 47
1, 73024, Control_c, 0, 64, 50
1, 73028, Note_on_c, 0, 70, 41
1, 73039, Control_c, 0, 64, 53
1, 73054, Control_c, 0, 64, 56
1, 73056, Note_off_c, 0, 70, 57
1, 73069, Control_c, 0, 64, 59
1, 73083, Control_c, 0, 64, 61
1, 73093, Note_on_c, 0, 75, 55
1, 73098, Control_c, 0, 64, 63
1, 73113, Control_c, 0, 64, 64
1, 73128, Control_c, 0, 64, 65
1, 73131, Note_off_c, 0, 75, 64
1, 73143, Control_c, 0, 64, 67
1, 73156, Note_on_c, 0, 70, 51
1, 73157, Control_c, 0, 64, 67
1, 73172, Control_c, 0, 64, 68
1, 73187, Control_c, 0, 64, 69
1, 73207, Note_off_c, 0, 70, 62
1, 73209, Control_c, 0, 64, 68
1, 73224, Control_c, 0, 64, 67
1, 73230, Note_on_c, 0, 75, 51
1, 73239, Control_c, 0, 64, 66
1, 73254, Control_c, 0, 64, 64
1, 73259, Note_off_c, 0, 75, 60
1, 73269, Control_c, 0, 64, 61
1, 73275, Note_on_c, 0, 63, 50
1, 73276, Note_on_c, 0, 82, 59
1, 73283, Control_c, 0, 64, 58
1, 73284, Note_on_c, 0, 58, 42
1, 73298, Control_c, 0, 64, 55
1, 73306, Note_off_c, 0, 55, 58
1, 73313, Control_c, 0, 64, 52
1, 73314, Note_off_c, 0, 82, 63
1, 73315, Note_off_c, 0, 63, 62
1, 73321, Note_off_c, 0, 58, 63
1, 73328, Control_c, 0, 64, 48
1, 73343, Control_c, 0, 64, 46
1, 73357, Control_c, 0, 64, 45
1, 73372, Control_c, 0, 64, 43
1, 73387, Control_c, 0, 64, 40
1, 73401, Control_c, 0, 64, 37
1, 73416, Control_c, 0, 64, 36
1, 73463, Note_on_c, 0, 56, 48
1, 73469, Note_on_c, 0, 71, 55
1, 73507, Note_off_c, 0, 71, 55
1, 73543, Note_on_c, 0, 75, 59
1, 73576, Note_off_c, 0, 75, 65
1, 73607, Note_on_c, 0, 71, 57
1, 73625, Control_c, 0, 64, 37
1, 73652, Note_off_c, 0, 71, 60
1, 73664, Note_on_c, 0, 75, 71
1, 73711, Note_off_c, 0, 75, 56
1, 73723, Note_on_c, 0, 63, 49
1, 73737, Note_on_c, 0, 83, 65
1, 73744, Note_on_c, 0, 59, 33
1, 73763, Note_off_c, 0, 63, 63
1, 73773, Note_off_c, 0, 59, 51
1, 73776, Note_off_c, 0, 83, 62
1, 73802, Note_off_c, 0, 56, 63
1, 73847, Control_c, 0, 64, 37
1, 73862, Control_c, 0, 64, 38
1, 73877, Control_c, 0, 64, 38
1, 73892, Control_c, 0, 64, 39
1, 73909, Note_on_c, 0, 73, 64
1, 73927, Note_on_c, 0, 49, 45
1, 73957, Note_off_c, 0, 73, 61
1, 73958, Control_c, 0, 64, 39
1, 73989, Note_on_c, 0, 76, 57
1, 74028, Note_off_c, 0, 76, 63
1, 74055, Note_off_c, 0, 49, 63
1, 74059, Note_on_c, 0, 73, 63
1, 74101, Note_off_c, 0, 73, 60
1, 74107, Note_on_c, 0, 76, 66
1, 74151, Note_off_c, 0, 76, 56
1, 74180, Note_on_c, 0, 61, 61
1, 74180, Control_c, 0, 64, 39
1, 74181, Note_on_c, 0, 64, 50
1, 74181, Note_on_c, 0, 85, 66
1, 74195, Control_c, 0, 64, 38
1, 74205, Note_off_c, 0, 64, 62
1, 74208, Note_off_c, 0, 85, 68
1, 74210, Control_c, 0, 64, 36
1, 74217, Note_off_c, 0, 61, 62
1, 74224, Control_c, 0, 64, 30
1, 74239, Control_c, 0, 64, 21
1, 74254, Control_c, 0, 64, 0
1, 74338, Note_on_c, 0, 83, 69
1, 74344, Note_on_c, 0, 71, 59
1, 74346, Note_on_c, 0, 63, 64
1, 74353, Note_on_c, 0, 75, 51
1, 74357, Note_on_c, 0, 51, 49
1, 74361, Note_on_c, 0, 59, 43
1, 74364, Note_off_c, 0, 71, 61
1, 74366, Note_on_c, 0, 80, 39
1, 74381, Note_off_c, 0, 63, 63
1, 74388, Note_off_c, 0, 51, 58
1, 74390, Note_off_c, 0, 83, 56
1, 74391, Note_off_c, 0, 75, 61
1, 74393, Note_off_c, 0, 80, 54
1, 74398, Note_off_c, 0, 59, 62
1, 74506, Note_on_c, 0, 83, 65
1, 74508, Note_on_c, 0, 59, 44
1, 74508, Note_on_c, 0, 80, 48
1, 74510, Note_on_c, 0, 51, 52
1, 74510, Note_on_c, 0, 71, 54
1, 74521, Note_on_c, 0, 63, 47
1, 74524, Note_off_c, 0, 83, 64
1, 74525, Note_on_c, 0, 75, 42
1, 74530, Note_off_c, 0, 71, 61
1, 74537, Note_off_c, 0, 59, 60
1, 74545, Note_off_c, 0, 63, 59
1, 74549, Note_off_c, 0, 80, 51
1, 74554, Note_off_c, 0, 75, 57
1, 74557, Note_off_c, 0, 51, 57
1, 74666, Note_on_c, 0, 63, 53
1, 74670, Note_on_c, 0, 51, 36
1, 74674, Note_on_c, 0, 70, 63
1, 74674, Note_on_c, 0, 75, 38
1, 74681, Note_on_c, 0, 82, 52
1, 74682, Note_on_c, 0, 58, 49
1, 74685, Note_on_c, 0, 79, 41
1, 74713, Note_off_c, 0, 70, 65
1, 74715, Note_off_c, 0, 51, 52
1, 74715, Note_off_c, 0, 82, 56
1, 74717, Note_off_c, 0, 63, 64
1, 74719, Note_off_c, 0, 75, 58
1, 74719, Note_off_c, 0, 79, 59
1, 74725, Note_off_c, 0, 58, 63
1, 74864, Note_on_c, 0, 55, 46
1, 74874, Note_on_c, 0, 70, 50
1, 74909, Note_off_c, 0, 70, 60
1, 74935, Note_on_c, 0, 75, 58
1, 74944, Control_c, 0, 64, 35
1, 74959, Control_c, 0, 64, 47
1, 74974, Control_c, 0, 64, 51
1, 74977, Note_off_c, 0, 75, 60
1, 74989, Control_c, 0, 64, 54
1, 75000, Note_on_c, 0, 70, 62
1, 75004, Control_c, 0, 64, 58
1, 75019, Control_c, 0, 64, 61
1, 75034, Control_c, 0, 64, 65
1, 75048, Control_c, 0, 64, 69
1, 75063, Control_c, 0, 64, 74
1, 75065, Note_off_c, 0, 70, 54
1, 75076, Note_on_c, 0, 75, 63
1, 75078, Control_c, 0, 64, 81
1, 75093, Control_c, 0, 64, 88
1, 75108, Control_c, 0, 64, 94
1, 75114, Note_off_c, 0, 75, 62
1, 75123, Note_off_c, 0, 55, 60
1, 75123, Control_c, 0, 64, 97
1, 75132, Note_on_c, 0, 58, 61
1, 75132, Note_on_c, 0, 82, 64
1, 75133, Note_on_c, 0, 63, 53
1, 75153, Control_c, 0, 64, 96
1, 75162, Note_off_c, 0, 63, 61
1, 75168, Control_c, 0, 64, 94
1, 75171, Note_off_c, 0, 58, 63
1, 75174, Note_off_c, 0, 82, 60
1, 75183, Control_c, 0, 64, 91
1, 75198, Control_c, 0, 64, 88
1, 75213, Control_c, 0, 64, 83
1, 75227, Control_c, 0, 64, 73
1, 75242, Control_c, 0, 64, 63
1, 75257, Control_c, 0, 64, 47
1, 75271, Control_c, 0, 64, 40
1, 75295, Note_on_c, 0, 56, 62
1, 75301, Note_on_c, 0, 71, 74
1, 75301, Control_c, 0, 64, 42
1, 75316, Control_c, 0, 64, 46
1, 75331, Control_c, 0, 64, 50
1, 75345, Control_c, 0, 64, 54
1, 75354, Note_off_c, 0, 71, 59
1, 75360, Control_c, 0, 64, 56
1, 75368, Note_on_c, 0, 75, 72
1, 75375, Control_c, 0, 64, 60
1, 75390, Control_c, 0, 64, 63
1, 75404, Control_c, 0, 64, 66
1, 75406, Note_off_c, 0, 75, 59
1, 75419, Control_c, 0, 64, 71
1, 75433, Note_on_c, 0, 71, 67
1, 75434, Control_c, 0, 64, 79
1, 75457, Control_c, 0, 64, 90
1, 75472, Control_c, 0, 64, 104
1, 75486, Control_c, 0, 64, 127
1, 75498, Note_off_c, 0, 71, 59
1, 75499, Note_on_c, 0, 75, 81
1, 75558, Note_off_c, 0, 75, 59
1, 75569, Note_on_c, 0, 63, 61
1, 75570, Note_on_c, 0, 59, 64
1, 75570, Note_on_c, 0, 83, 83
1, 75600, Note_off_c, 0, 63, 65
1, 75603, Note_off_c, 0, 59, 64
1, 75622, Note_off_c, 0, 83, 60
1, 75642, Note_off_c, 0, 56, 63
1, 75693, Control_c, 0, 64, 84
1, 75708, Control_c, 0, 64, 64
1, 75722, Control_c, 0, 64, 47
1, 75737, Control_c, 0, 64, 49
1, 75738, Note_on_c, 0, 73, 79
1, 75744, Note_on_c, 0, 49, 67
1, 75752, Control_c, 0, 64, 56
1, 75767, Control_c, 0, 64, 63
1, 75782, Control_c, 0, 64, 70
1, 75795, Note_off_c, 0, 73, 64
1, 75796, Note_on_c, 0, 76, 77
1, 75796, Control_c, 0, 64, 87
1, 75811, Control_c, 0, 64, 127
1, 75833, Note_off_c, 0, 49, 63
1, 75854, Note_off_c, 0, 76, 63
1, 75871, Note_on_c, 0, 73, 74
1, 75920, Note_on_c, 0, 76, 75
1, 75936, Note_off_c, 0, 73, 63
1, 75996, Note_off_c, 0, 76, 51
1, 75998, Note_on_c, 0, 61, 72
1, 75998, Note_on_c, 0, 85, 81
1, 76004, Note_on_c, 0, 64, 63
1, 76019, Control_c, 0, 64, 105
1, 76029, Note_off_c, 0, 64, 63
1, 76032, Note_off_c, 0, 61, 60
1, 76034, Control_c, 0, 64, 75
1, 76035, Note_off_c, 0, 85, 65
1, 76049, Control_c, 0, 64, 60
1, 76064, Control_c, 0, 64, 34
1, 76079, Control_c, 0, 64, 11
1, 76093, Control_c, 0, 64, 0
1, 76158, Note_on_c, 0, 83, 81
1, 76161, Note_on_c, 0, 71, 76
1, 76163, Note_on_c, 0, 75, 68
1, 76167, Note_on_c, 0, 63, 68
1, 76167, Note_on_c, 0, 51, 59
1, 76168, Note_on_c, 0, 59, 56
1, 76169, Note_on_c, 0, 80, 62
1, 76186, Note_off_c, 0, 71, 67
1, 76206, Note_off_c, 0, 63, 63
1, 76210, Note_off_c, 0, 75, 58
1, 76211, Note_off_c, 0, 80, 65
1, 76214, Note_off_c, 0, 59, 64
1, 76217, Note_off_c, 0, 51, 62
1, 76221, Note_off_c, 0, 83, 61
1, 76328, Note_on_c, 0, 83, 68
1, 76330, Note_on_c, 0, 71, 66
1, 76331, Note_on_c, 0, 80, 54
1, 76336, Note_on_c, 0, 75, 50
1, 76337, Note_on_c, 0, 59, 52
1, 76344, Note_on_c, 0, 63, 56
1, 76345, Note_off_c, 0, 83, 64
1, 76352, Note_on_c, 0, 51, 41
1, 76357, Note_off_c, 0, 71, 65
1, 76368, Note_off_c, 0, 63, 63
1, 76369, Note_off_c, 0, 80, 58
1, 76372, Note_off_c, 0, 75, 64
1, 76373, Note_off_c, 0, 59, 65
1, 76383, Note_off_c, 0, 51, 55
1, 76477, Note_on_c, 0, 51, 58
1, 76480, Note_on_c, 0, 82, 65
1, 76483, Note_on_c, 0, 63, 51
1, 76483, Note_on_c, 0, 70, 64
1, 76485, Note_on_c, 0, 58, 61
1, 76490, Note_on_c, 0, 75, 40
1, 76502, Note_on_c, 0, 79, 34
1, 76512, Note_off_c, 0, 70, 67
1, 76514, Note_off_c, 0, 63, 64
1, 76516, Note_off_c, 0, 51, 64
1, 76518, Note_off_c, 0, 58, 64
1, 76521, Note_off_c, 0, 75, 56
1, 76532, Note_off_c, 0, 79, 55
1, 76538, Note_off_c, 0, 82, 62
1, 76655, Note_on_c, 0, 73, 65
1, 76657, Note_on_c, 0, 51, 57
1, 76664, Control_c, 0, 64, 37
1, 76679, Control_c, 0, 64, 56
1, 76694, Control_c, 0, 64, 63
1, 76709, Control_c, 0, 64, 69
1, 76710, Note_off_c, 0, 73, 61
1, 76724, Control_c, 0, 64, 79
1, 76725, Note_on_c, 0, 82, 68
1, 76739, Control_c, 0, 64, 96
1, 76754, Control_c, 0, 64, 127
1, 76780, Note_off_c, 0, 82, 61
1, 76793, Note_on_c, 0, 73, 66
1, 76846, Note_on_c, 0, 82, 69
1, 76866, Note_off_c, 0, 73, 64
1, 76917, Note_on_c, 0, 61, 76
1, 76918, Note_on_c, 0, 58, 74
1, 76920, Note_on_c, 0, 85, 79
1, 76925, Note_off_c, 0, 82, 64
1, 76962, Note_off_c, 0, 61, 57
1, 76964, Note_off_c, 0, 51, 58
1, 76968, Control_c, 0, 64, 105
1, 76978, Note_off_c, 0, 58, 59
1, 76983, Control_c, 0, 64, 80
1, 76997, Note_off_c, 0, 85, 61
1, 76998, Control_c, 0, 64, 64
1, 77013, Control_c, 0, 64, 41
1, 77028, Control_c, 0, 64, 28
1, 77057, Control_c, 0, 64, 32
1, 77072, Control_c, 0, 64, 40
1, 77084, Note_on_c, 0, 51, 70
1, 77087, Control_c, 0, 64, 52
1, 77097, Note_on_c, 0, 75, 79
1, 77102, Control_c, 0, 64, 60
1, 77117, Control_c, 0, 64, 64
1, 77131, Control_c, 0, 64, 67
1, 77146, Control_c, 0, 64, 72
1, 77156, Note_off_c, 0, 75, 63
1, 77159, Note_on_c, 0, 83, 81
1, 77161, Control_c, 0, 64, 81
1, 77176, Control_c, 0, 64, 97
1, 77191, Control_c, 0, 64, 127
1, 77218, Note_off_c, 0, 83, 62
1, 77234, Note_on_c, 0, 75, 83
1, 77285, Note_on_c, 0, 83, 74
1, 77300, Note_off_c, 0, 75, 62
1, 77350, Note_on_c, 0, 59, 72
1, 77351, Note_on_c, 0, 87, 92
1, 77352, Note_on_c, 0, 63, 77
1, 77363, Note_off_c, 0, 83, 66
1, 77378, Note_off_c, 0, 63, 68
1, 77395, Note_off_c, 0, 59, 60
1, 77400, Note_off_c, 0, 87, 66
1, 77401, Note_off_c, 0, 51, 27
1, 77428, Control_c, 0, 64, 74
1, 77442, Control_c, 0, 64, 54
1, 77457, Control_c, 0, 64, 29
1, 77472, Control_c, 0, 64, 31
1, 77487, Control_c, 0, 64, 38
1, 77502, Note_on_c, 0, 51, 73
1, 77502, Control_c, 0, 64, 51
1, 77508, Note_on_c, 0, 76, 94
1, 77517, Control_c, 0, 64, 64
1, 77532, Control_c, 0, 64, 76
1, 77547, Control_c, 0, 64, 107
1, 77562, Control_c, 0, 64, 127
1, 77575, Note_on_c, 0, 85, 84
1, 77580, Note_off_c, 0, 76, 63
1, 77645, Note_off_c, 0, 85, 65
1, 77650, Note_on_c, 0, 76, 85
1, 77716, Note_on_c, 0, 85, 77
1, 77737, Note_off_c, 0, 76, 63
1, 77771, Note_on_c, 0, 61, 75
1, 77773, Note_on_c, 0, 64, 65
1, 77779, Note_on_c, 0, 88, 88
1, 77796, Note_off_c, 0, 51, 59
1, 77800, Note_off_c, 0, 64, 64
1, 77805, Note_off_c, 0, 85, 65
1, 77810, Note_off_c, 0, 61, 59
1, 77821, Control_c, 0, 64, 100
1, 77824, Note_off_c, 0, 88, 66
1, 77836, Control_c, 0, 64, 86
1, 77851, Control_c, 0, 64, 73
1, 77866, Control_c, 0, 64, 62
1, 77880, Control_c, 0, 64, 43
1, 77895, Control_c, 0, 64, 0
1, 77950, Note_on_c, 0, 85, 76
1, 77951, Note_on_c, 0, 73, 83
1, 77955, Note_on_c, 0, 61, 69
1, 77958, Note_on_c, 0, 82, 65
1, 77968, Note_on_c, 0, 51, 48
1, 77972, Note_on_c, 0, 58, 51
1, 77979, Note_off_c, 0, 73, 61
1, 77984, Note_off_c, 0, 61, 65
1, 77988, Note_off_c, 0, 82, 66
1, 77996, Note_off_c, 0, 51, 58
1, 78000, Note_off_c, 0, 85, 63
1, 78004, Note_off_c, 0, 58, 64
1, 78115, Note_on_c, 0, 73, 76
1, 78116, Note_on_c, 0, 85, 71
1, 78117, Note_on_c, 0, 61, 65
1, 78120, Note_on_c, 0, 51, 44
1, 78122, Note_on_c, 0, 82, 54
1, 78133, Note_off_c, 0, 85, 66
1, 78138, Note_off_c, 0, 73, 70
1, 78141, Note_off_c, 0, 82, 62
1, 78148, Note_off_c, 0, 61, 65
1, 78151, Note_off_c, 0, 51, 52
1, 78272, Note_on_c, 0, 51, 45
1, 78277, Note_on_c, 0, 70, 58
1, 78281, Note_on_c, 0, 82, 59
1, 78295, Note_on_c, 0, 58, 44
1, 78299, Note_off_c, 0, 70, 63
1, 78316, Note_off_c, 0, 51, 64
1, 78327, Note_off_c, 0, 58, 45
1, 78333, Note_off_c, 0, 82, 60
1, 78414, Control_c, 0, 64, 39
1, 78429, Control_c, 0, 64, 57
1, 78441, Note_on_c, 0, 51, 59
1, 78447, Note_on_c, 0, 76, 67
1, 78451, Control_c, 0, 64, 67
1, 78466, Control_c, 0, 64, 79
1, 78481, Control_c, 0, 64, 127
1, 78500, Note_off_c, 0, 76, 61
1, 78522, Note_on_c, 0, 85, 70
1, 78558, Note_off_c, 0, 85, 61
1, 78587, Note_on_c, 0, 76, 71
1, 78650, Note_on_c, 0, 85, 70
1, 78655, Note_off_c, 0, 76, 62
1, 78703, Note_on_c, 0, 88, 74
1, 78703, Control_c, 0, 64, 108
1, 78706, Note_on_c, 0, 64, 62
1, 78709, Note_on_c, 0, 61, 68
1, 78718, Control_c, 0, 64, 79
1, 78733, Control_c, 0, 64, 59
1, 78735, Note_off_c, 0, 64, 64
1, 78735, Note_off_c, 0, 85, 64
1, 78738, Note_off_c, 0, 88, 63
1, 78745, Note_off_c, 0, 61, 63
1, 78748, Note_off_c, 0, 51, 48
1, 78748, Control_c, 0, 64, 0
1, 78867, Note_on_c, 0, 61, 67
1, 78873, Note_on_c, 0, 73, 72
1, 78875, Note_on_c, 0, 51, 55
1, 78876, Note_on_c, 0, 85, 67
1, 78885, Note_on_c, 0, 82, 50
1, 78897, Note_off_c, 0, 61, 64
1, 78897, Note_off_c, 0, 73, 69
1, 78900, Note_on_c, 0, 58, 24
1, 78906, Note_off_c, 0, 85, 67
1, 78907, Note_off_c, 0, 82, 59
1, 78909, Note_off_c, 0, 51, 63
1, 78929, Note_off_c, 0, 58, 44
1, 79022, Note_on_c, 0, 61, 62
1, 79025, Note_on_c, 0, 51, 57
1, 79025, Note_on_c, 0, 82, 58
1, 79030, Note_on_c, 0, 73, 74
1, 79033, Note_on_c, 0, 85, 61
1, 79051, Note_off_c, 0, 85, 65
1, 79052, Note_off_c, 0, 61, 65
1, 79054, Note_off_c, 0, 73, 69
1, 79057, Note_off_c, 0, 51, 64
1, 79058, Note_off_c, 0, 82, 65
1, 79064, Note_on_c, 0, 58, 3
1, 79083, Note_off_c, 0, 58, 40
1, 79173, Note_on_c, 0, 70, 78
1, 79174, Note_on_c, 0, 82, 78
1, 79175, Note_on_c, 0, 58, 71
1, 79179, Note_on_c, 0, 51, 61
1, 79188, Note_on_c, 0, 79, 59
1, 79202, Note_off_c, 0, 70, 70
1, 79205, Note_on_c, 0, 55, 33
1, 79207, Note_off_c, 0, 58, 67
1, 79222, Note_off_c, 0, 79, 66
1, 79224, Note_off_c, 0, 51, 65
1, 79228, Note_off_c, 0, 82, 63
1, 79239, Note_off_c, 0, 55, 51
1, 79339, Note_on_c, 0, 51, 82
1, 79349, Control_c, 0, 64, 67
1, 79353, Note_on_c, 0, 74, 79
1, 79353, Note_on_c, 0, 76, 85
1, 79364, Control_c, 0, 64, 101
1, 79379, Control_c, 0, 64, 127
1, 79411, Note_off_c, 0, 74, 60
1, 79413, Note_on_c, 0, 85, 87
1, 79416, Note_off_c, 0, 76, 61
1, 79434, Note_off_c, 0, 51, 64
1, 79481, Note_off_c, 0, 85, 65
1, 79487, Note_on_c, 0, 76, 87
1, 79540, Note_on_c, 0, 85, 75
1, 79562, Note_off_c, 0, 76, 61
1, 79605, Note_on_c, 0, 88, 95
1, 79610, Note_off_c, 0, 85, 67
1, 79615, Note_on_c, 0, 64, 82
1, 79615, Note_on_c, 0, 61, 88
1, 79637, Note_off_c, 0, 64, 71
1, 79648, Note_off_c, 0, 88, 66
1, 79657, Note_off_c, 0, 61, 60
1, 79705, Control_c, 0, 64, 118
1, 79719, Control_c, 0, 64, 69
1, 79734, Control_c, 0, 64, 17
1, 79749, Control_c, 0, 64, 0
1, 79770, Note_on_c, 0, 79, 96
1, 79773, Note_on_c, 0, 51, 88
1, 79793, Control_c, 0, 64, 49
1, 79808, Control_c, 0, 64, 67
1, 79823, Control_c, 0, 64, 91
1, 79833, Note_off_c, 0, 79, 65
1, 79836, Note_on_c, 0, 88, 87
1, 79837, Control_c, 0, 64, 127
1, 79842, Note_off_c, 0, 51, 65
1, 79897, Note_off_c, 0, 88, 64
1, 79911, Note_on_c, 0, 79, 87
1, 79970, Note_on_c, 0, 88, 85
1, 79983, Note_off_c, 0, 79, 64
1, 80036, Note_on_c, 0, 91, 94
1, 80041, Note_off_c, 0, 88, 64
1, 80051, Note_on_c, 0, 61, 87
1, 80051, Note_on_c, 0, 64, 80
1, 80072, Note_off_c, 0, 64, 71
1, 80086, Note_off_c, 0, 91, 63
1, 80094, Note_off_c, 0, 61, 63
1, 80156, Control_c, 0, 64, 78
1, 80171, Control_c, 0, 64, 54
1, 80186, Control_c, 0, 64, 0
1, 80206, Note_on_c, 0, 82, 96
1, 80208, Note_on_c, 0, 51, 91
1, 80215, Control_c, 0, 64, 48
1, 80230, Control_c, 0, 64, 65
1, 80245, Control_c, 0, 64, 82
1, 80260, Control_c, 0, 64, 127
1, 80266, Note_off_c, 0, 82, 64
1, 80270, Note_on_c, 0, 91, 83
1, 80275, Note_off_c, 0, 51, 65
1, 80332, Note_off_c, 0, 91, 62
1, 80341, Note_on_c, 0, 82, 91
1, 80399, Note_on_c, 0, 91, 88
1, 80421, Note_off_c, 0, 82, 62
1, 80468, Note_on_c, 0, 94, 95
1, 80482, Note_on_c, 0, 61, 87
1, 80482, Note_on_c, 0, 64, 88
1, 80494, Note_off_c, 0, 91, 63
1, 80503, Note_off_c, 0, 64, 72
1, 80525, Note_off_c, 0, 94, 65
1, 80527, Note_off_c, 0, 61, 63
1, 80585, Control_c, 0, 64, 68
1, 80588, Poly_aftertouch_c, 0, 58, 0
1, 80600, Control_c, 0, 64, 0
1, 80641, Note_on_c, 0, 85, 97
1, 80645, Control_c, 0, 64, 33
1, 80646, Note_on_c, 0, 51, 93
1, 80659, Control_c, 0, 64, 60
1, 80674, Control_c, 0, 64, 71
1, 80698, Control_c, 0, 64, 99
1, 80712, Control_c, 0, 64, 127
1, 80718, Note_on_c, 0, 94, 95
1, 80726, Note_off_c, 0, 85, 63
1, 80748, Note_off_c, 0, 51, 63
1, 80790, Note_on_c, 0, 85, 87
1, 80796, Note_off_c, 0, 94, 63
1, 80857, Note_on_c, 0, 94, 93
1, 80890, Note_off_c, 0, 85, 65
1, 80936, Note_on_c, 0, 97, 90
1, 80945, Note_on_c, 0, 61, 88
1, 80946, Note_on_c, 0, 64, 81
1, 80948, Note_off_c, 0, 94, 65
1, 80966, Note_off_c, 0, 64, 71
1, 80989, Note_off_c, 0, 61, 62
1, 81083, Control_c, 0, 64, 83
1, 81097, Control_c, 0, 64, 56
1, 81112, Control_c, 0, 64, 0
1, 81116, Note_off_c, 0, 97, 49
1, 81141, Note_on_c, 0, 88, 97
1, 81142, Note_on_c, 0, 51, 87
1, 81157, Control_c, 0, 64, 48
1, 81172, Control_c, 0, 64, 62
1, 81186, Control_c, 0, 64, 71
1, 81201, Control_c, 0, 64, 86
1, 81216, Control_c, 0, 64, 113
1, 81227, Note_on_c, 0, 97, 87
1, 81231, Control_c, 0, 64, 127
1, 81248, Note_off_c, 0, 88, 62
1, 81330, Note_on_c, 0, 88, 92
1, 81330, Note_off_c, 0, 97, 64
1, 81337, Note_off_c, 0, 51, 62
1, 81411, Note_on_c, 0, 97, 92
1, 81472, Note_off_c, 0, 88, 56
1, 81560, Note_on_c, 0, 64, 92
1, 81561, Note_on_c, 0, 61, 91
1, 81566, Note_on_c, 0, 100, 98
1, 81586, Note_off_c, 0, 97, 65
1, 81613, Note_off_c, 0, 64, 62
1, 81629, Note_off_c, 0, 100, 67
1, 81646, Note_off_c, 0, 61, 58
1, 82054, Control_c, 0, 64, 121
1, 82069, Control_c, 0, 64, 116
1, 82084, Control_c, 0, 64, 115
1, 82128, Control_c, 0, 64, 113
1, 82143, Control_c, 0, 64, 108
1, 82158, Control_c, 0, 64, 102
1, 82173, Control_c, 0, 64, 95
1, 82188, Control_c, 0, 64, 90
1, 82209, Control_c, 0, 64, 86
1, 82224, Control_c, 0, 64, 82
1, 82239, Control_c, 0, 64, 77
1, 82254, Control_c, 0, 64, 72
1, 82268, Control_c, 0, 64, 68
1, 82283, Control_c, 0, 64, 65
1, 82299, Control_c, 0, 64, 63
1, 82314, Control_c, 0, 64, 62
1, 82329, Control_c, 0, 64, 62
1, 82343, Control_c, 0, 64, 61
1, 82358, Control_c, 0, 64, 59
1, 82373, Control_c, 0, 64, 57
1, 82388, Control_c, 0, 64, 54
1, 82403, Control_c, 0, 64, 53
1, 82418, Control_c, 0, 64, 51
1, 82432, Control_c, 0, 64, 49
1, 82447, Control_c, 0, 64, 47
1, 82462, Control_c, 0, 64, 43
1, 82477, Control_c, 0, 64, 38
1, 82492, Control_c, 0, 64, 31
1, 82507, Control_c, 0, 64, 25
1, 82522, Control_c, 0, 64, 22
1, 82536, Control_c, 0, 64, 21
1, 82551, Control_c, 0, 64, 19
1, 82566, Control_c, 0, 64, 17
1, 82581, Control_c, 0, 64, 0
1, 83137, Control_c, 0, 64, 13
1, 83152, Control_c, 0, 64, 18
1, 83166, Control_c, 0, 64, 22
1, 83181, Control_c, 0, 64, 26
1, 83196, Control_c, 0, 64, 31
1, 83211, Control_c, 0, 64, 38
1, 83226, Control_c, 0, 64, 42
1, 83240, Control_c, 0, 64, 46
1, 83255, Control_c, 0, 64, 49
1, 83270, Control_c, 0, 64, 52
1, 83285, Control_c, 0, 64, 55
1, 83300, Control_c, 0, 64, 57
1, 83315, Note_on_c, 0, 76, 16
1, 83315, Control_c, 0, 64, 59
1, 83330, Control_c, 0, 64, 61
1, 83340, Poly_aftertouch_c, 0, 52, 127
1, 83345, Control_c, 0, 64, 62
1, 83358, Note_off_c, 0, 76, 48
1, 83359, Control_c, 0, 64, 63
1, 83374, Control_c, 0, 64, 65
1, 83389, Control_c, 0, 64, 67
1, 83390, Note_on_c, 0, 85, 41
1, 83404, Control_c, 0, 64, 70
1, 83419, Control_c, 0, 64, 74
1, 83425, Note_off_c, 0, 85, 58
1, 83433, Control_c, 0, 64, 78
1, 83448, Control_c, 0, 64, 82
1, 83463, Control_c, 0, 64, 88
1, 83464, Note_on_c, 0, 76, 46
1, 83478, Control_c, 0, 64, 96
1, 83492, Control_c, 0, 64, 102
1, 83496, Note_off_c, 0, 76, 51
1, 83507, Control_c, 0, 64, 108
1, 83522, Control_c, 0, 64, 111
1, 83533, Note_on_c, 0, 85, 50
1, 83552, Control_c, 0, 64, 110
1, 83561, Poly_aftertouch_c, 0, 52, 0
1, 83566, Control_c, 0, 64, 109
1, 83581, Control_c, 0, 64, 107
1, 83593, Note_on_c, 0, 88, 54
1, 83595, Note_off_c, 0, 85, 54
1, 83596, Control_c, 0, 64, 107
1, 83617, Note_on_c, 0, 61, 30
1, 83635, Note_on_c, 0, 64, 17
1, 83640, Control_c, 0, 64, 106
1, 83649, Note_off_c, 0, 88, 54
1, 83655, Control_c, 0, 64, 106
1, 83676, Note_off_c, 0, 61, 39
1, 83722, Control_c, 0, 64, 105
1, 83737, Control_c, 0, 64, 103
1, 83741, Note_off_c, 0, 64, 35
1, 83752, Control_c, 0, 64, 96
1, 83766, Control_c, 0, 64, 81
1, 83781, Control_c, 0, 64, 69
1, 83796, Control_c, 0, 64, 61
1, 83798, Note_on_c, 0, 52, 37
1, 83811, Control_c, 0, 64, 59
1, 83819, Note_on_c, 0, 76, 41
1, 83826, Control_c, 0, 64, 60
1, 83840, Control_c, 0, 64, 62
1, 83854, Note_off_c, 0, 76, 52
1, 83855, Control_c, 0, 64, 63
1, 83870, Control_c, 0, 64, 65
1, 83886, Control_c, 0, 64, 68
1, 83894, Note_on_c, 0, 85, 43
1, 83901, Control_c, 0, 64, 72
1, 83915, Control_c, 0, 64, 76
1, 83925, Note_off_c, 0, 85, 59
1, 83930, Control_c, 0, 64, 79
1, 83945, Control_c, 0, 64, 81
1, 83960, Control_c, 0, 64, 82
1, 83962, Note_on_c, 0, 76, 48
1, 83975, Control_c, 0, 64, 84
1, 83981, Note_off_c, 0, 52, 37
1, 83989, Control_c, 0, 64, 86
1, 83995, Note_off_c, 0, 76, 51
1, 84004, Control_c, 0, 64, 89
1, 84019, Control_c, 0, 64, 92
1, 84024, Note_on_c, 0, 85, 54
1, 84034, Control_c, 0, 64, 94
1, 84074, Note_on_c, 0, 64, 37
1, 84078, Note_off_c, 0, 85, 54
1, 84087, Note_on_c, 0, 88, 54
1, 84093, Control_c, 0, 64, 94
1, 84096, Note_on_c, 0, 61, 36
1, 84108, Control_c, 0, 64, 95
1, 84123, Control_c, 0, 64, 96
1, 84132, Note_off_c, 0, 88, 61
1, 84138, Control_c, 0, 64, 96
1, 84152, Control_c, 0, 64, 97
1, 84161, Note_off_c, 0, 61, 39
1, 84167, Control_c, 0, 64, 99
1, 84182, Control_c, 0, 64, 100
1, 84197, Control_c, 0, 64, 100
1, 84198, Note_off_c, 0, 64, 37
1, 84212, Control_c, 0, 64, 94
1, 84227, Control_c, 0, 64, 84
1, 84242, Control_c, 0, 64, 74
1, 84256, Control_c, 0, 64, 68
1, 84271, Control_c, 0, 64, 67
1, 84272, Note_on_c, 0, 52, 34
1, 84286, Control_c, 0, 64, 68
1, 84290, Note_on_c, 0, 76, 51
1, 84301, Control_c, 0, 64, 69
1, 84315, Control_c, 0, 64, 72
1, 84327, Note_off_c, 0, 76, 59
1, 84330, Control_c, 0, 64, 75
1, 84345, Control_c, 0, 64, 80
1, 84353, Note_on_c, 0, 85, 59
1, 84360, Control_c, 0, 64, 84
1, 84375, Control_c, 0, 64, 90
1, 84389, Note_off_c, 0, 85, 64
1, 84389, Control_c, 0, 64, 97
1, 84404, Control_c, 0, 64, 110
1, 84419, Control_c, 0, 64, 127
1, 84422, Note_on_c, 0, 76, 57
1, 84474, Note_off_c, 0, 76, 58
1, 84492, Note_on_c, 0, 85, 63
1, 84537, Note_on_c, 0, 64, 31
1, 84539, Note_on_c, 0, 61, 46
1, 84549, Note_off_c, 0, 52, 43
1, 84550, Note_on_c, 0, 88, 65
1, 84558, Note_off_c, 0, 85, 62
1, 84576, Note_off_c, 0, 64, 56
1, 84586, Note_off_c, 0, 61, 59
1, 84588, Note_off_c, 0, 88, 60
1, 84663, Control_c, 0, 64, 94
1, 84678, Control_c, 0, 64, 75
1, 84694, Control_c, 0, 64, 60
1, 84709, Control_c, 0, 64, 42
1, 84721, Note_on_c, 0, 74, 65
1, 84724, Control_c, 0, 64, 33
1, 84725, Note_on_c, 0, 86, 59
1, 84732, Note_on_c, 0, 52, 37
1, 84734, Note_on_c, 0, 59, 43
1, 84738, Control_c, 0, 64, 25
1, 84745, Note_on_c, 0, 62, 23
1, 84748, Note_on_c, 0, 83, 29
1, 84752, Note_off_c, 0, 74, 63
1, 84753, Control_c, 0, 64, 0
1, 84763, Note_off_c, 0, 59, 60
1, 84766, Note_off_c, 0, 86, 60
1, 84767, Note_off_c, 0, 52, 55
1, 84775, Note_off_c, 0, 62, 47
1, 84775, Note_off_c, 0, 83, 47
1, 84874, Note_on_c, 0, 83, 58
1, 84874, Note_on_c, 0, 74, 63
1, 84875, Note_on_c, 0, 52, 45
1, 84878, Note_on_c, 0, 59, 40
1, 84883, Note_on_c, 0, 86, 56
1, 84884, Note_on_c, 0, 62, 41
1, 84904, Note_off_c, 0, 74, 67
1, 84906, Note_off_c, 0, 86, 58
1, 84907, Note_off_c, 0, 83, 64
1, 84914, Note_off_c, 0, 62, 59
1, 84916, Note_off_c, 0, 59, 65
1, 84921, Note_off_c, 0, 52, 60
1, 85037, Note_on_c, 0, 52, 35
1, 85042, Note_on_c, 0, 85, 58
1, 85045, Note_on_c, 0, 73, 57
1, 85047, Note_on_c, 0, 61, 45
1, 85054, Note_on_c, 0, 57, 31
1, 85071, Note_off_c, 0, 61, 57
1, 85074, Note_off_c, 0, 52, 52
1, 85079, Note_off_c, 0, 73, 65
1, 85085, Note_off_c, 0, 57, 49
1, 85094, Note_off_c, 0, 85, 62
1, 85190, Control_c, 0, 64, 23
1, 85205, Control_c, 0, 64, 35
1, 85211, Note_on_c, 0, 74, 53
1, 85211, Note_on_c, 0, 52, 30
1, 85220, Control_c, 0, 64, 43
1, 85234, Control_c, 0, 64, 49
1, 85249, Control_c, 0, 64, 53
1, 85253, Note_off_c, 0, 74, 61
1, 85264, Control_c, 0, 64, 56
1, 85279, Note_on_c, 0, 83, 49
1, 85279, Control_c, 0, 64, 58
1, 85294, Control_c, 0, 64, 60
1, 85309, Control_c, 0, 64, 62
1, 85312, Note_off_c, 0, 83, 64
1, 85324, Control_c, 0, 64, 64
1, 85338, Control_c, 0, 64, 67
1, 85353, Control_c, 0, 64, 70
1, 85357, Note_on_c, 0, 74, 46
1, 85368, Control_c, 0, 64, 74
1, 85383, Control_c, 0, 64, 79
1, 85398, Control_c, 0, 64, 83
1, 85401, Note_off_c, 0, 74, 56
1, 85404, Note_on_c, 0, 83, 58
1, 85412, Control_c, 0, 64, 87
1, 85427, Control_c, 0, 64, 91
1, 85442, Control_c, 0, 64, 96
1, 85456, Control_c, 0, 64, 99
1, 85468, Note_on_c, 0, 62, 41
1, 85471, Control_c, 0, 64, 101
1, 85472, Note_on_c, 0, 59, 41
1, 85476, Note_on_c, 0, 86, 57
1, 85479, Note_off_c, 0, 83, 50
1, 85488, Control_c, 0, 64, 102
1, 85491, Note_off_c, 0, 52, 40
1, 85521, Note_off_c, 0, 86, 59
1, 85524, Note_off_c, 0, 59, 57
1, 85524, Note_off_c, 0, 62, 57
1, 85532, Control_c, 0, 64, 103
1, 85547, Control_c, 0, 64, 104
1, 85606, Control_c, 0, 64, 103
1, 85621, Control_c, 0, 64, 98
1, 85635, Control_c, 0, 64, 89
1, 85650, Control_c, 0, 64, 75
1, 85653, Note_on_c, 0, 52, 35
1, 85665, Control_c, 0, 64, 65
1, 85667, Note_on_c, 0, 74, 52
1, 85680, Control_c, 0, 64, 59
1, 85694, Control_c, 0, 64, 60
1, 85706, Note_off_c, 0, 74, 63
1, 85709, Control_c, 0, 64, 61
1, 85724, Control_c, 0, 64, 62
1, 85736, Note_on_c, 0, 83, 56
1, 85739, Control_c, 0, 64, 64
1, 85754, Control_c, 0, 64, 67
1, 85768, Control_c, 0, 64, 70
1, 85773, Note_off_c, 0, 83, 63
1, 85783, Control_c, 0, 64, 75
1, 85798, Control_c, 0, 64, 79
1, 85808, Note_on_c, 0, 74, 48
1, 85813, Control_c, 0, 64, 83
1, 85828, Control_c, 0, 64, 87
1, 85843, Control_c, 0, 64, 91
1, 85849, Note_off_c, 0, 74, 58
1, 85858, Control_c, 0, 64, 96
1, 85861, Note_on_c, 0, 83, 59
1, 85872, Control_c, 0, 64, 100
1, 85887, Control_c, 0, 64, 104
1, 85902, Control_c, 0, 64, 112
1, 85912, Note_on_c, 0, 59, 41
1, 85917, Note_off_c, 0, 52, 42
1, 85917, Control_c, 0, 64, 127
1, 85917, Note_off_c, 0, 83, 56
1, 85919, Note_on_c, 0, 62, 33
1, 85923, Note_on_c, 0, 86, 56
1, 85970, Note_off_c, 0, 86, 62
1, 85980, Note_off_c, 0, 59, 53
1, 86002, Note_off_c, 0, 62, 48
1, 86105, Note_on_c, 0, 74, 57
1, 86110, Note_on_c, 0, 52, 38
1, 86117, Control_c, 0, 64, 94
1, 86132, Control_c, 0, 64, 80
1, 86146, Note_off_c, 0, 74, 62
1, 86147, Control_c, 0, 64, 71
1, 86161, Control_c, 0, 64, 68
1, 86176, Control_c, 0, 64, 69
1, 86179, Note_on_c, 0, 83, 51
1, 86191, Control_c, 0, 64, 72
1, 86206, Control_c, 0, 64, 77
1, 86208, Note_off_c, 0, 83, 61
1, 86221, Control_c, 0, 64, 84
1, 86235, Control_c, 0, 64, 92
1, 86250, Control_c, 0, 64, 99
1, 86251, Note_on_c, 0, 74, 57
1, 86265, Control_c, 0, 64, 102
1, 86281, Control_c, 0, 64, 104
1, 86293, Note_off_c, 0, 74, 63
1, 86296, Note_on_c, 0, 83, 63
1, 86296, Control_c, 0, 64, 104
1, 86310, Control_c, 0, 64, 106
1, 86325, Control_c, 0, 64, 107
1, 86340, Control_c, 0, 64, 109
1, 86371, Note_on_c, 0, 62, 42
1, 86374, Note_on_c, 0, 86, 60
1, 86376, Note_off_c, 0, 83, 62
1, 86388, Note_on_c, 0, 59, 34
1, 86406, Note_off_c, 0, 62, 56
1, 86408, Note_off_c, 0, 86, 64
1, 86412, Note_off_c, 0, 52, 44
1, 86420, Note_off_c, 0, 59, 52
1, 86429, Control_c, 0, 64, 108
1, 86444, Control_c, 0, 64, 107
1, 86458, Control_c, 0, 64, 101
1, 86473, Control_c, 0, 64, 93
1, 86488, Control_c, 0, 64, 82
1, 86503, Control_c, 0, 64, 71
1, 86517, Control_c, 0, 64, 62
1, 86532, Control_c, 0, 64, 45
1, 86540, Note_on_c, 0, 73, 63
1, 86547, Control_c, 0, 64, 0
1, 86548, Note_on_c, 0, 85, 58
1, 86556, Note_on_c, 0, 61, 48
1, 86561, Note_on_c, 0, 81, 26
1, 86570, Note_off_c, 0, 73, 67
1, 86573, Poly_aftertouch_c, 0, 52, 127
1, 86575, Note_off_c, 0, 85, 58
1, 86581, Note_on_c, 0, 57, 21
1, 86584, Note_off_c, 0, 61, 61
1, 86593, Note_off_c, 0, 81, 46
1, 86601, Poly_aftertouch_c, 0, 52, 0
1, 86620, Note_off_c, 0, 57, 48
1, 86695, Note_on_c, 0, 85, 63
1, 86701, Note_on_c, 0, 73, 62
1, 86702, Note_on_c, 0, 61, 51
1, 86709, Note_on_c, 0, 52, 51
1, 86710, Note_on_c, 0, 81, 20
1, 86731, Note_off_c, 0, 73, 67
1, 86733, Note_off_c, 0, 85, 64
1, 86737, Note_off_c, 0, 61, 64
1, 86741, Note_off_c, 0, 81, 49
1, 86749, Note_off_c, 0, 52, 63
1, 86854, Note_on_c, 0, 52, 48
1, 86861, Note_on_c, 0, 71, 59
1, 86862, Note_on_c, 0, 56, 42
1, 86868, Note_on_c, 0, 83, 59
1, 86880, Note_on_c, 0, 59, 13
1, 86880, Note_off_c, 0, 71, 63
1, 86892, Note_off_c, 0, 56, 59
1, 86893, Note_off_c, 0, 52, 62
1, 86914, Note_off_c, 0, 83, 60
1, 86922, Note_off_c, 0, 59, 28
1, 87014, Control_c, 0, 64, 24
1, 87026, Note_on_c, 0, 52, 39
1, 87028, Control_c, 0, 64, 43
1, 87038, Note_on_c, 0, 76, 45
1, 87043, Control_c, 0, 64, 51
1, 87058, Control_c, 0, 64, 55
1, 87072, Note_off_c, 0, 76, 58
1, 87073, Control_c, 0, 64, 57
1, 87089, Control_c, 0, 64, 59
1, 87099, Note_on_c, 0, 85, 52
1, 87104, Control_c, 0, 64, 61
1, 87118, Control_c, 0, 64, 63
1, 87133, Control_c, 0, 64, 65
1, 87139, Note_off_c, 0, 85, 65
1, 87148, Control_c, 0, 64, 67
1, 87161, Note_on_c, 0, 76, 63
1, 87163, Control_c, 0, 64, 70
1, 87178, Control_c, 0, 64, 74
1, 87193, Control_c, 0, 64, 79
1, 87207, Control_c, 0, 64, 87
1, 87210, Note_off_c, 0, 76, 56
1, 87222, Control_c, 0, 64, 95
1, 87225, Note_on_c, 0, 85, 63
1, 87237, Control_c, 0, 64, 107
1, 87252, Control_c, 0, 64, 127
1, 87270, Note_off_c, 0, 52, 41
1, 87280, Note_on_c, 0, 88, 67
1, 87284, Note_on_c, 0, 64, 50
1, 87285, Note_on_c, 0, 61, 51
1, 87304, Note_off_c, 0, 85, 60
1, 87327, Note_off_c, 0, 88, 58
1, 87341, Note_off_c, 0, 61, 52
1, 87355, Note_off_c, 0, 64, 49
1, 87470, Note_on_c, 0, 52, 48
1, 87473, Note_on_c, 0, 76, 68
1, 87511, Control_c, 0, 64, 97
1, 87524, Note_off_c, 0, 76, 60
1, 87526, Control_c, 0, 64, 72
1, 87540, Control_c, 0, 64, 60
1, 87542, Note_on_c, 0, 85, 62
1, 87555, Control_c, 0, 64, 55
1, 87570, Control_c, 0, 64, 58
1, 87585, Control_c, 0, 64, 62
1, 87590, Note_off_c, 0, 85, 59
1, 87600, Control_c, 0, 64, 65
1, 87610, Note_on_c, 0, 76, 62
1, 87614, Control_c, 0, 64, 71
1, 87629, Control_c, 0, 64, 82
1, 87644, Control_c, 0, 64, 109
1, 87658, Control_c, 0, 64, 127
1, 87665, Note_off_c, 0, 76, 58
1, 87669, Note_on_c, 0, 85, 73
1, 87711, Note_on_c, 0, 64, 55
1, 87718, Note_on_c, 0, 61, 55
1, 87728, Note_on_c, 0, 88, 75
1, 87746, Note_off_c, 0, 52, 36
1, 87753, Note_off_c, 0, 85, 65
1, 87783, Note_off_c, 0, 88, 64
1, 87814, Note_off_c, 0, 64, 55
1, 87891, Note_on_c, 0, 52, 61
1, 87901, Note_on_c, 0, 76, 79
1, 87905, Note_off_c, 0, 61, 34
1, 87926, Control_c, 0, 64, 117
1, 87941, Control_c, 0, 64, 84
1, 87956, Control_c, 0, 64, 69
1, 87963, Note_off_c, 0, 76, 62
1, 87965, Note_on_c, 0, 85, 73
1, 87971, Control_c, 0, 64, 64
1, 87986, Control_c, 0, 64, 63
1, 88001, Control_c, 0, 64, 64
1, 88016, Control_c, 0, 64, 67
1, 88022, Note_off_c, 0, 85, 64
1, 88028, Note_on_c, 0, 76, 74
1, 88030, Control_c, 0, 64, 74
1, 88045, Control_c, 0, 64, 95
1, 88060, Control_c, 0, 64, 127
1, 88070, Poly_aftertouch_c, 0, 55, 127
1, 88088, Note_on_c, 0, 85, 74
1, 88105, Note_off_c, 0, 76, 63
1, 88157, Note_on_c, 0, 88, 86
1, 88162, Note_on_c, 0, 61, 64
1, 88167, Note_on_c, 0, 64, 53
1, 88185, Note_off_c, 0, 85, 66
1, 88208, Note_off_c, 0, 88, 65
1, 88211, Note_off_c, 0, 64, 63
1, 88227, Note_off_c, 0, 52, 37
1, 88227, Note_off_c, 0, 61, 57
1, 88245, Poly_aftertouch_c, 0, 55, 0
1, 88245, Control_c, 0, 64, 98
1, 88260, Control_c, 0, 64, 78
1, 88275, Control_c, 0, 64, 64
1, 88289, Control_c, 0, 64, 53
1, 88304, Control_c, 0, 64, 47
1, 88319, Control_c, 0, 64, 39
1, 88334, Control_c, 0, 64, 20
1, 88341, Note_on_c, 0, 52, 56
1, 88341, Note_on_c, 0, 80, 80
1, 88341, Note_on_c, 0, 92, 86
1, 88348, Note_on_c, 0, 62, 58
1, 88349, Control_c, 0, 64, 0
1, 88360, Note_on_c, 0, 59, 45
1, 88360, Note_on_c, 0, 88, 48
1, 88372, Note_off_c, 0, 80, 64
1, 88379, Note_off_c, 0, 62, 64
1, 88381, Note_off_c, 0, 52, 63
1, 88383, Note_off_c, 0, 88, 59
1, 88387, Note_off_c, 0, 59, 57
1, 88393, Note_off_c, 0, 92, 64
1, 88505, Note_on_c, 0, 80, 73
1, 88508, Note_on_c, 0, 92, 71
1, 88513, Note_on_c, 0, 62, 40
1, 88516, Note_on_c, 0, 59, 20
1, 88523, Note_on_c, 0, 52, 45
1, 88528, Note_on_c, 0, 88, 27
1, 88534, Note_off_c, 0, 80, 64
1, 88542, Note_off_c, 0, 62, 57
1, 88549, Note_off_c, 0, 92, 58
1, 88550, Note_off_c, 0, 59, 46
1, 88550, Note_off_c, 0, 88, 50
1, 88556, Note_off_c, 0, 52, 55
1, 88683, Note_on_c, 0, 52, 32
1, 88689, Note_on_c, 0, 93, 71
1, 88692, Note_on_c, 0, 81, 57
1, 88704, Note_on_c, 0, 57, 28
1, 88706, Note_on_c, 0, 61, 29
1, 88712, Note_off_c, 0, 81, 59
1, 88714, Note_off_c, 0, 93, 67
1, 88731, Note_off_c, 0, 52, 57
1, 88737, Note_off_c, 0, 57, 48
1, 88738, Note_off_c, 0, 61, 46
1, 88779, Control_c, 0, 64, 18
1, 88794, Control_c, 0, 64, 38
1, 88809, Control_c, 0, 64, 49
1, 88824, Control_c, 0, 64, 54
1, 88839, Control_c, 0, 64, 56
1, 88850, Note_on_c, 0, 52, 43
1, 88853, Control_c, 0, 64, 57
1, 88868, Control_c, 0, 64, 59
1, 88878, Note_on_c, 0, 74, 64
1, 88883, Control_c, 0, 64, 60
1, 88898, Control_c, 0, 64, 63
1, 88913, Control_c, 0, 64, 65
1, 88928, Note_off_c, 0, 74, 58
1, 88935, Control_c, 0, 64, 68
1, 88950, Control_c, 0, 64, 71
1, 88963, Note_on_c, 0, 83, 60
1, 88965, Control_c, 0, 64, 76
1, 88979, Control_c, 0, 64, 81
1, 88994, Control_c, 0, 64, 87
1, 89000, Note_off_c, 0, 83, 61
1, 89009, Control_c, 0, 64, 95
1, 89024, Note_on_c, 0, 74, 65
1, 89024, Control_c, 0, 64, 108
1, 89039, Control_c, 0, 64, 127
1, 89074, Note_off_c, 0, 74, 56
1, 89081, Note_on_c, 0, 83, 66
1, 89114, Note_on_c, 0, 62, 50
1, 89116, Note_on_c, 0, 59, 57
1, 89127, Note_on_c, 0, 86, 72
1, 89131, Note_off_c, 0, 52, 51
1, 89138, Note_off_c, 0, 83, 63
1, 89155, Note_off_c, 0, 62, 62
1, 89157, Note_off_c, 0, 59, 61
1, 89172, Note_off_c, 0, 86, 58
1, 89261, Control_c, 0, 64, 106
1, 89274, Note_on_c, 0, 52, 57
1, 89276, Control_c, 0, 64, 76
1, 89291, Control_c, 0, 64, 62
1, 89292, Note_on_c, 0, 74, 71
1, 89305, Control_c, 0, 64, 50
1, 89320, Control_c, 0, 64, 52
1, 89335, Control_c, 0, 64, 56
1, 89346, Note_off_c, 0, 74, 62
1, 89350, Control_c, 0, 64, 61
1, 89365, Control_c, 0, 64, 65
1, 89366, Note_on_c, 0, 83, 69
1, 89379, Control_c, 0, 64, 70
1, 89394, Control_c, 0, 64, 78
1, 89409, Control_c, 0, 64, 88
1, 89414, Note_off_c, 0, 83, 60
1, 89424, Control_c, 0, 64, 97
1, 89427, Note_on_c, 0, 74, 63
1, 89439, Control_c, 0, 64, 107
1, 89453, Control_c, 0, 64, 127
1, 89487, Note_on_c, 0, 83, 66
1, 89496, Note_off_c, 0, 74, 61
1, 89538, Note_on_c, 0, 62, 58
1, 89543, Note_on_c, 0, 59, 62
1, 89547, Note_on_c, 0, 86, 80
1, 89562, Note_off_c, 0, 83, 64
1, 89578, Note_off_c, 0, 52, 58
1, 89578, Note_off_c, 0, 62, 63
1, 89581, Note_off_c, 0, 59, 64
1, 89599, Note_off_c, 0, 86, 63
1, 89684, Control_c, 0, 64, 110
1, 89699, Control_c, 0, 64, 76
1, 89714, Control_c, 0, 64, 62
1, 89728, Note_on_c, 0, 74, 68
1, 89728, Control_c, 0, 64, 56
1, 89729, Note_on_c, 0, 52, 56
1, 89743, Control_c, 0, 64, 59
1, 89758, Control_c, 0, 64, 63
1, 89773, Control_c, 0, 64, 67
1, 89785, Note_off_c, 0, 74, 62
1, 89789, Control_c, 0, 64, 75
1, 89803, Control_c, 0, 64, 91
1, 89811, Note_on_c, 0, 83, 64
1, 89818, Control_c, 0, 64, 127
1, 89840, Note_off_c, 0, 83, 67
1, 89872, Note_on_c, 0, 74, 67
1, 89921, Note_off_c, 0, 74, 55
1, 89923, Note_on_c, 0, 83, 68
1, 89996, Note_on_c, 0, 62, 57
1, 90001, Note_on_c, 0, 59, 55
1, 90002, Note_on_c, 0, 86, 70
1, 90003, Note_off_c, 0, 83, 63
1, 90010, Control_c, 0, 64, 116
1, 90022, Note_off_c, 0, 52, 61
1, 90025, Control_c, 0, 64, 92
1, 90029, Note_off_c, 0, 62, 65
1, 90031, Note_off_c, 0, 59, 64
1, 90037, Note_off_c, 0, 86, 62
1, 90040, Control_c, 0, 64, 74
1, 90055, Control_c, 0, 64, 61
1, 90070, Control_c, 0, 64, 48
1, 90084, Control_c, 0, 64, 44
1, 90099, Control_c, 0, 64, 43
1, 90144, Control_c, 0, 64, 42
1, 90159, Control_c, 0, 64, 41
1, 90167, Note_on_c, 0, 52, 46
1, 90169, Note_on_c, 0, 81, 65
1, 90171, Note_on_c, 0, 93, 73
1, 90174, Control_c, 0, 64, 39
1, 90177, Note_on_c, 0, 85, 61
1, 90189, Note_on_c, 0, 61, 39
1, 90189, Control_c, 0, 64, 37
1, 90190, Note_on_c, 0, 57, 34
1, 90198, Note_off_c, 0, 81, 66
1, 90203, Note_off_c, 0, 52, 59
1, 90207, Note_off_c, 0, 85, 67
1, 90215, Note_off_c, 0, 61, 54
1, 90218, Control_c, 0, 64, 36
1, 90222, Note_off_c, 0, 57, 54
1, 90228, Note_off_c, 0, 93, 63
1, 90233, Control_c, 0, 64, 36
1, 90248, Control_c, 0, 64, 35
1, 90263, Control_c, 0, 64, 34
1, 90336, Note_on_c, 0, 93, 71
1, 90344, Note_on_c, 0, 85, 47
1, 90346, Note_on_c, 0, 81, 43
1, 90347, Note_on_c, 0, 61, 36
1, 90350, Note_on_c, 0, 52, 39
1, 90367, Note_off_c, 0, 85, 58
1, 90370, Note_off_c, 0, 81, 56
1, 90371, Note_off_c, 0, 93, 60
1, 90375, Note_off_c, 0, 61, 54
1, 90383, Note_off_c, 0, 52, 57
1, 90493, Control_c, 0, 64, 35
1, 90508, Control_c, 0, 64, 37
1, 90512, Note_on_c, 0, 52, 46
1, 90523, Note_on_c, 0, 83, 54
1, 90523, Note_on_c, 0, 95, 51
1, 90523, Control_c, 0, 64, 39
1, 90536, Control_c, 0, 64, 43
1, 90542, Note_on_c, 0, 56, 41
1, 90543, Note_off_c, 0, 95, 58
1, 90543, Note_off_c, 0, 83, 64
1, 90545, Note_on_c, 0, 59, 31
1, 90550, Control_c, 0, 64, 47
1, 90565, Control_c, 0, 64, 49
1, 90570, Note_off_c, 0, 52, 62
1, 90570, Note_off_c, 0, 56, 58
1, 90573, Note_off_c, 0, 59, 48
1, 90610, Control_c, 0, 64, 50
1, 90625, Control_c, 0, 64, 51
1, 90639, Control_c, 0, 64, 54
1, 90654, Control_c, 0, 64, 57
1, 90669, Control_c, 0, 64, 58
1, 90684, Control_c, 0, 64, 58
1, 90698, Control_c, 0, 64, 60
1, 90707, Note_on_c, 0, 52, 54
1, 90708, Note_on_c, 0, 73, 70
1, 90713, Control_c, 0, 64, 62
1, 90728, Control_c, 0, 64, 64
1, 90743, Control_c, 0, 64, 66
1, 90755, Note_off_c, 0, 73, 62
1, 90758, Control_c, 0, 64, 69
1, 90773, Control_c, 0, 64, 72
1, 90782, Note_on_c, 0, 81, 55
1, 90788, Control_c, 0, 64, 76
1, 90803, Control_c, 0, 64, 81
1, 90818, Control_c, 0, 64, 88
1, 90820, Note_off_c, 0, 81, 64
1, 90832, Control_c, 0, 64, 96
1, 90847, Control_c, 0, 64, 113
1, 90851, Note_on_c, 0, 73, 69
1, 90862, Control_c, 0, 64, 127
1, 90906, Note_on_c, 0, 81, 65
1, 90919, Note_off_c, 0, 73, 59
1, 90958, Note_on_c, 0, 61, 61
1, 90961, Note_on_c, 0, 57, 49
1, 90964, Note_on_c, 0, 85, 73
1, 90976, Note_off_c, 0, 52, 58
1, 90984, Note_off_c, 0, 81, 63
1, 90991, Note_off_c, 0, 61, 64
1, 91003, Note_off_c, 0, 85, 63
1, 91005, Note_off_c, 0, 57, 61
1, 91115, Control_c, 0, 64, 110
1, 91129, Control_c, 0, 64, 84
1, 91137, Note_on_c, 0, 71, 72
1, 91140, Note_on_c, 0, 52, 63
1, 91144, Control_c, 0, 64, 68
1, 91159, Control_c, 0, 64, 58
1, 91181, Control_c, 0, 64, 53
1, 91196, Control_c, 0, 64, 55
1, 91203, Note_off_c, 0, 71, 63
1, 91207, Note_on_c, 0, 80, 69
1, 91211, Control_c, 0, 64, 58
1, 91226, Control_c, 0, 64, 62
1, 91241, Control_c, 0, 64, 66
1, 91255, Control_c, 0, 64, 71
1, 91265, Note_off_c, 0, 80, 64
1, 91270, Control_c, 0, 64, 79
1, 91281, Note_on_c, 0, 71, 70
1, 91285, Control_c, 0, 64, 87
1, 91300, Control_c, 0, 64, 96
1, 91314, Control_c, 0, 64, 108
1, 91329, Control_c, 0, 64, 127
1, 91331, Note_on_c, 0, 80, 70
1, 91335, Note_off_c, 0, 71, 58
1, 91378, Note_on_c, 0, 56, 70
1, 91387, Note_on_c, 0, 59, 65
1, 91393, Note_on_c, 0, 83, 78
1, 91409, Note_off_c, 0, 80, 64
1, 91412, Note_off_c, 0, 52, 57
1, 91421, Note_off_c, 0, 59, 65
1, 91447, Note_off_c, 0, 56, 63
1, 91447, Note_off_c, 0, 83, 63
1, 91521, Control_c, 0, 64, 99
1, 91536, Control_c, 0, 64, 74
1, 91551, Control_c, 0, 64, 61
1, 91563, Note_on_c, 0, 52, 74
1, 91566, Control_c, 0, 64, 53
1, 91571, Note_on_c, 0, 73, 82
1, 91581, Control_c, 0, 64, 55
1, 91596, Control_c, 0, 64, 58
1, 91611, Control_c, 0, 64, 62
1, 91626, Control_c, 0, 64, 65
1, 91629, Note_off_c, 0, 73, 64
1, 91632, Note_on_c, 0, 81, 68
1, 91640, Control_c, 0, 64, 70
1, 91655, Control_c, 0, 64, 76
1, 91670, Control_c, 0, 64, 82
1, 91685, Control_c, 0, 64, 89
1, 91690, Note_off_c, 0, 81, 65
1, 91699, Control_c, 0, 64, 95
1, 91707, Note_on_c, 0, 73, 82
1, 91714, Control_c, 0, 64, 108
1, 91729, Control_c, 0, 64, 127
1, 91770, Note_on_c, 0, 81, 70
1, 91778, Note_off_c, 0, 73, 63
1, 91837, Note_on_c, 0, 85, 90
1, 91849, Note_on_c, 0, 57, 67
1, 91852, Note_on_c, 0, 61, 74
1, 91853, Note_off_c, 0, 81, 64
1, 91857, Note_off_c, 0, 52, 61
1, 91891, Note_off_c, 0, 85, 67
1, 91892, Note_off_c, 0, 61, 59
1, 91909, Note_off_c, 0, 57, 64
1, 91959, Control_c, 0, 64, 89
1, 91974, Control_c, 0, 64, 67
1, 91989, Control_c, 0, 64, 54
1, 92004, Control_c, 0, 64, 53
1, 92017, Note_on_c, 0, 52, 84
1, 92019, Control_c, 0, 64, 58
1, 92021, Note_on_c, 0, 74, 87
1, 92034, Control_c, 0, 64, 62
1, 92049, Control_c, 0, 64, 68
1, 92064, Control_c, 0, 64, 78
1, 92078, Control_c, 0, 64, 97
1, 92089, Note_off_c, 0, 74, 61
1, 92093, Note_on_c, 0, 83, 84
1, 92093, Control_c, 0, 64, 127
1, 92153, Note_off_c, 0, 83, 62
1, 92170, Note_on_c, 0, 74, 83
1, 92229, Note_on_c, 0, 83, 80
1, 92241, Note_off_c, 0, 74, 63
1, 92281, Note_on_c, 0, 62, 76
1, 92286, Note_on_c, 0, 86, 91
1, 92287, Note_on_c, 0, 59, 76
1, 92295, Note_off_c, 0, 83, 66
1, 92311, Note_off_c, 0, 62, 66
1, 92311, Note_off_c, 0, 52, 64
1, 92316, Note_off_c, 0, 59, 67
1, 92327, Note_off_c, 0, 86, 66
1, 92344, Control_c, 0, 64, 103
1, 92359, Control_c, 0, 64, 81
1, 92374, Control_c, 0, 64, 66
1, 92389, Control_c, 0, 64, 53
1, 92404, Control_c, 0, 64, 45
1, 92418, Control_c, 0, 64, 46
1, 92433, Control_c, 0, 64, 47
1, 92442, Note_on_c, 0, 63, 90
1, 92445, Note_on_c, 0, 84, 87
1, 92447, Note_on_c, 0, 60, 77
1, 92448, Control_c, 0, 64, 48
1, 92457, Note_on_c, 0, 56, 66
1, 92460, Note_on_c, 0, 51, 63
1, 92463, Control_c, 0, 64, 48
1, 92471, Note_off_c, 0, 63, 64
1, 92475, Note_off_c, 0, 60, 67
1, 92478, Control_c, 0, 64, 47
1, 92481, Note_off_c, 0, 51, 62
1, 92486, Note_off_c, 0, 56, 66
1, 92493, Control_c, 0, 64, 45
1, 92508, Control_c, 0, 64, 43
1, 92510, Note_off_c, 0, 84, 62
1, 92517, Note_on_c, 0, 87, 79
1, 92552, Control_c, 0, 64, 43
1, 92562, Note_off_c, 0, 87, 61
1, 92582, Note_on_c, 0, 63, 74
1, 92586, Note_on_c, 0, 56, 59
1, 92591, Note_on_c, 0, 60, 67
1, 92591, Note_on_c, 0, 84, 72
1, 92595, Note_on_c, 0, 51, 44
1, 92596, Control_c, 0, 64, 42
1, 92609, Note_off_c, 0, 63, 65
1, 92611, Control_c, 0, 64, 42
1, 92622, Note_off_c, 0, 60, 66
1, 92624, Note_off_c, 0, 51, 60
1, 92627, Note_off_c, 0, 56, 66
1, 92639, Note_off_c, 0, 84, 60
1, 92659, Note_on_c, 0, 87, 66
1, 92700, Note_off_c, 0, 87, 65
1, 92708, Control_c, 0, 64, 41
1, 92720, Note_on_c, 0, 92, 70
1, 92723, Control_c, 0, 64, 41
1, 92731, Note_on_c, 0, 63, 64
1, 92734, Note_on_c, 0, 56, 55
1, 92737, Note_on_c, 0, 60, 45
1, 92739, Note_on_c, 0, 51, 53
1, 92801, Note_on_c, 0, 91, 67
1, 92830, Note_off_c, 0, 92, 64
1, 92836, Note_off_c, 0, 91, 64
1, 92866, Note_on_c, 0, 89, 74
1, 92886, Control_c, 0, 64, 40
1, 92913, Note_off_c, 0, 89, 62
1, 92937, Note_on_c, 0, 87, 72
1, 93013, Note_on_c, 0, 85, 66
1, 93020, Note_off_c, 0, 87, 64
1, 93033, Note_off_c, 0, 60, 57
1, 93059, Note_off_c, 0, 85, 64
1, 93080, Note_on_c, 0, 84, 69
1, 93089, Note_off_c, 0, 56, 52
1, 93113, Note_off_c, 0, 84, 62
1, 93146, Note_on_c, 0, 82, 63
1, 93208, Note_on_c, 0, 80, 69
1, 93250, Note_off_c, 0, 82, 60
1, 93277, Note_on_c, 0, 58, 46
1, 93280, Note_on_c, 0, 79, 65
1, 93286, Note_on_c, 0, 61, 46
1, 93287, Note_off_c, 0, 80, 60
1, 93322, Note_off_c, 0, 79, 63
1, 93352, Note_on_c, 0, 77, 67
1, 93374, Control_c, 0, 64, 41
1, 93389, Note_off_c, 0, 77, 62
1, 93425, Note_on_c, 0, 75, 62
1, 93498, Note_on_c, 0, 73, 66
1, 93502, Note_off_c, 0, 75, 61
1, 93531, Control_c, 0, 64, 41
1, 93543, Note_off_c, 0, 73, 64
1, 93576, Note_off_c, 0, 63, 51
1, 93585, Note_on_c, 0, 72, 60
1, 93614, Note_off_c, 0, 72, 67
1, 93651, Note_off_c, 0, 61, 49
1, 93653, Note_on_c, 0, 70, 38
1, 93656, Note_off_c, 0, 51, 55
1, 93699, Note_off_c, 0, 58, 60
1, 93723, Note_off_c, 0, 70, 35
1, 93738, Poly_aftertouch_c, 0, 71, 0
1, 93751, Note_on_c, 0, 69, 10
1, 93775, Note_on_c, 0, 67, 74
1, 93781, Note_off_c, 0, 69, 42
1, 93820, Note_off_c, 0, 67, 60
1, 93852, Note_on_c, 0, 65, 63
1, 93901, Note_off_c, 0, 65, 59
1, 93902, Control_c, 0, 64, 42
1, 93917, Control_c, 0, 64, 44
1, 93924, Note_on_c, 0, 64, 67
1, 93931, Control_c, 0, 64, 46
1, 93946, Control_c, 0, 64, 50
1, 93961, Control_c, 0, 64, 54
1, 93966, Note_off_c, 0, 64, 64
1, 93975, Control_c, 0, 64, 58
1, 93986, Note_on_c, 0, 63, 79
1, 93990, Control_c, 0, 64, 62
1, 94005, Control_c, 0, 64, 66
1, 94013, Note_off_c, 0, 63, 68
1, 94020, Control_c, 0, 64, 70
1, 94035, Control_c, 0, 64, 77
1, 94049, Control_c, 0, 64, 85
1, 94064, Control_c, 0, 64, 95
1, 94079, Control_c, 0, 64, 104
1, 94094, Control_c, 0, 64, 108
1, 94109, Control_c, 0, 64, 107
1, 94124, Control_c, 0, 64, 101
1, 94138, Control_c, 0, 64, 93
1, 94153, Control_c, 0, 64, 85
1, 94162, Note_on_c, 0, 63, 89
1, 94162, Note_on_c, 0, 87, 99
1, 94174, Note_on_c, 0, 60, 83
1, 94175, Control_c, 0, 64, 78
1, 94179, Note_on_c, 0, 56, 71
1, 94180, Note_on_c, 0, 51, 75
1, 94190, Control_c, 0, 64, 71
1, 94205, Control_c, 0, 64, 67
1, 94216, Note_off_c, 0, 51, 63
1, 94220, Control_c, 0, 64, 63
1, 94223, Note_off_c, 0, 63, 62
1, 94231, Note_off_c, 0, 60, 63
1, 94235, Note_off_c, 0, 56, 61
1, 94235, Control_c, 0, 64, 61
1, 94237, Note_off_c, 0, 87, 64
1, 94240, Note_on_c, 0, 92, 86
1, 94249, Control_c, 0, 64, 57
1, 94264, Control_c, 0, 64, 54
1, 94280, Control_c, 0, 64, 51
1, 94295, Control_c, 0, 64, 47
1, 94296, Note_off_c, 0, 92, 66
1, 94310, Control_c, 0, 64, 44
1, 94313, Note_on_c, 0, 87, 81
1, 94318, Note_on_c, 0, 63, 83
1, 94325, Control_c, 0, 64, 43
1, 94329, Note_on_c, 0, 51, 68
1, 94334, Note_on_c, 0, 60, 62
1, 94340, Control_c, 0, 64, 43
1, 94353, Note_on_c, 0, 56, 53
1, 94354, Control_c, 0, 64, 42
1, 94367, Note_off_c, 0, 51, 64
1, 94369, Control_c, 0, 64, 40
1, 94375, Note_off_c, 0, 63, 61
1, 94377, Note_off_c, 0, 87, 63
1, 94378, Note_off_c, 0, 60, 63
1, 94383, Note_on_c, 0, 92, 83
1, 94384, Control_c, 0, 64, 38
1, 94389, Note_off_c, 0, 56, 65
1, 94398, Control_c, 0, 64, 36
1, 94413, Control_c, 0, 64, 35
1, 94428, Control_c, 0, 64, 35
1, 94440, Note_off_c, 0, 92, 64
1, 94443, Control_c, 0, 64, 34
1, 94451, Note_on_c, 0, 96, 84
1, 94458, Control_c, 0, 64, 32
1, 94469, Note_on_c, 0, 63, 84
1, 94470, Note_on_c, 0, 56, 66
1, 94472, Control_c, 0, 64, 31
1, 94477, Note_on_c, 0, 51, 65
1, 94480, Note_on_c, 0, 60, 73
1, 94487, Control_c, 0, 64, 30
1, 94527, Note_on_c, 0, 94, 83
1, 94572, Note_off_c, 0, 96, 56
1, 94600, Note_on_c, 0, 92, 83
1, 94646, Note_off_c, 0, 94, 63
1, 94672, Note_on_c, 0, 91, 78
1, 94702, Note_off_c, 0, 92, 64
1, 94732, Note_off_c, 0, 91, 63
1, 94743, Note_on_c, 0, 89, 79
1, 94791, Note_off_c, 0, 89, 62
1, 94799, Note_off_c, 0, 60, 59
1, 94811, Note_on_c, 0, 87, 78
1, 94828, Control_c, 0, 64, 31
1, 94843, Control_c, 0, 64, 31
1, 94872, Control_c, 0, 64, 32
1, 94889, Note_on_c, 0, 85, 78
1, 94902, Control_c, 0, 64, 32
1, 94921, Note_off_c, 0, 87, 62
1, 94958, Note_off_c, 0, 85, 65
1, 94971, Note_on_c, 0, 84, 74
1, 94998, Note_off_c, 0, 84, 60
1, 95024, Note_on_c, 0, 61, 71
1, 95034, Note_on_c, 0, 55, 61
1, 95034, Note_on_c, 0, 82, 77
1, 95058, Control_c, 0, 64, 33
1, 95095, Note_on_c, 0, 80, 78
1, 95139, Note_off_c, 0, 82, 62
1, 95146, Note_off_c, 0, 56, 25
1, 95163, Note_on_c, 0, 79, 78
1, 95182, Note_off_c, 0, 80, 62
1, 95218, Note_off_c, 0, 79, 63
1, 95227, Note_on_c, 0, 77, 81
1, 95283, Note_off_c, 0, 77, 63
1, 95293, Note_on_c, 0, 75, 82
1, 95340, Control_c, 0, 64, 33
1, 95355, Control_c, 0, 64, 34
1, 95359, Note_off_c, 0, 51, 62
1, 95366, Note_off_c, 0, 63, 54
1, 95369, Note_on_c, 0, 73, 83
1, 95370, Control_c, 0, 64, 35
1, 95384, Control_c, 0, 64, 36
1, 95399, Control_c, 0, 64, 37
1, 95402, Note_off_c, 0, 75, 61
1, 95414, Control_c, 0, 64, 38
1, 95429, Control_c, 0, 64, 39
1, 95432, Note_off_c, 0, 73, 63
1, 95439, Note_off_c, 0, 55, 62
1, 95441, Note_on_c, 0, 72, 83
1, 95444, Control_c, 0, 64, 41
1, 95459, Control_c, 0, 64, 46
1, 95462, Note_off_c, 0, 61, 61
1, 95474, Control_c, 0, 64, 52
1, 95488, Control_c, 0, 64, 57
1, 95495, Note_off_c, 0, 72, 61
1, 95503, Control_c, 0, 64, 60
1, 95510, Note_on_c, 0, 70, 87
1, 95518, Control_c, 0, 64, 62
1, 95533, Control_c, 0, 64, 65
1, 95547, Control_c, 0, 64, 69
1, 95562, Control_c, 0, 64, 78
1, 95577, Control_c, 0, 64, 93
1, 95582, Note_on_c, 0, 68, 88
1, 95592, Control_c, 0, 64, 127
1, 95656, Note_on_c, 0, 67, 89
1, 95683, Note_off_c, 0, 70, 61
1, 95700, Note_off_c, 0, 68, 60
1, 95723, Note_off_c, 0, 67, 64
1, 95737, Note_on_c, 0, 65, 86
1, 95779, Note_off_c, 0, 65, 64
1, 95814, Note_on_c, 0, 63, 94
1, 95853, Note_off_c, 0, 63, 65
1, 95921, Note_on_c, 0, 92, 90
1, 95926, Control_c, 0, 64, 103
1, 95935, Note_on_c, 0, 63, 101
1, 95941, Control_c, 0, 64, 76
1, 95948, Note_on_c, 0, 60, 77
1, 95950, Note_on_c, 0, 56, 72
1, 95954, Note_on_c, 0, 51, 68
1, 95956, Control_c, 0, 64, 62
1, 95970, Control_c, 0, 64, 50
1, 95981, Note_off_c, 0, 63, 62
1, 95984, Note_off_c, 0, 92, 64
1, 95985, Note_off_c, 0, 51, 66
1, 95986, Note_on_c, 0, 96, 78
1, 95993, Note_off_c, 0, 60, 62
1, 95996, Note_off_c, 0, 56, 61
1, 96000, Control_c, 0, 64, 49
1, 96015, Control_c, 0, 64, 47
1, 96030, Control_c, 0, 64, 46
1, 96050, Note_off_c, 0, 96, 65
1, 96059, Control_c, 0, 64, 46
1, 96070, Note_on_c, 0, 92, 80
1, 96079, Note_on_c, 0, 63, 93
1, 96086, Note_on_c, 0, 51, 71
1, 96095, Note_on_c, 0, 56, 71
1, 96096, Note_on_c, 0, 60, 72
1, 96131, Note_off_c, 0, 92, 62
1, 96133, Note_on_c, 0, 96, 86
1, 96133, Note_off_c, 0, 63, 62
1, 96144, Note_off_c, 0, 51, 63
1, 96151, Note_off_c, 0, 60, 64
1, 96158, Note_off_c, 0, 56, 63
1, 96207, Control_c, 0, 64, 45
1, 96210, Note_off_c, 0, 96, 63
1, 96220, Note_on_c, 0, 99, 83
1, 96236, Note_on_c, 0, 63, 96
1, 96241, Note_on_c, 0, 60, 87
1, 96246, Note_on_c, 0, 56, 76
1, 96247, Note_on_c, 0, 51, 86
1, 96252, Control_c, 0, 64, 45
1, 96301, Note_on_c, 0, 97, 88
1, 96332, Note_off_c, 0, 99, 62
1, 96372, Note_off_c, 0, 97, 64
1, 96379, Note_on_c, 0, 96, 78
1, 96410, Note_off_c, 0, 96, 64
1, 96452, Note_on_c, 0, 94, 90
1, 96481, Control_c, 0, 64, 44
1, 96496, Control_c, 0, 64, 43
1, 96511, Control_c, 0, 64, 43
1, 96521, Note_on_c, 0, 92, 79
1, 96555, Control_c, 0, 64, 44
1, 96559, Note_off_c, 0, 94, 63
1, 96569, Control_c, 0, 64, 44
1, 96579, Note_on_c, 0, 91, 79
1, 96584, Control_c, 0, 64, 45
1, 96597, Note_off_c, 0, 92, 65
1, 96599, Control_c, 0, 64, 45
1, 96629, Control_c, 0, 64, 46
1, 96637, Note_off_c, 0, 91, 63
1, 96647, Note_on_c, 0, 89, 77
1, 96661, Note_off_c, 0, 60, 54
1, 96684, Note_off_c, 0, 89, 61
1, 96714, Note_on_c, 0, 87, 78
1, 96734, Control_c, 0, 64, 46
1, 96748, Control_c, 0, 64, 47
1, 96763, Control_c, 0, 64, 48
1, 96765, Note_off_c, 0, 56, 62
1, 96778, Control_c, 0, 64, 51
1, 96781, Note_on_c, 0, 85, 79
1, 96788, Note_off_c, 0, 87, 65
1, 96792, Control_c, 0, 64, 54
1, 96807, Control_c, 0, 64, 58
1, 96809, Note_on_c, 0, 61, 77
1, 96813, Note_on_c, 0, 55, 68
1, 96822, Control_c, 0, 64, 61
1, 96834, Note_off_c, 0, 85, 65
1, 96837, Control_c, 0, 64, 63
1, 96849, Note_on_c, 0, 84, 74
1, 96852, Control_c, 0, 64, 66
1, 96866, Control_c, 0, 64, 69
1, 96879, Note_off_c, 0, 84, 63
1, 96881, Control_c, 0, 64, 74
1, 96896, Control_c, 0, 64, 81
1, 96906, Note_on_c, 0, 82, 79
1, 96911, Control_c, 0, 64, 90
1, 96926, Control_c, 0, 64, 104
1, 96941, Control_c, 0, 64, 127
1, 96961, Note_on_c, 0, 80, 79
1, 96997, Note_off_c, 0, 82, 63
1, 97015, Note_on_c, 0, 79, 75
1, 97027, Note_off_c, 0, 80, 62
1, 97056, Note_off_c, 0, 79, 64
1, 97065, Note_on_c, 0, 77, 83
1, 97116, Note_off_c, 0, 77, 63
1, 97127, Note_on_c, 0, 75, 80
1, 97156, Note_off_c, 0, 63, 45
1, 97185, Note_on_c, 0, 73, 82
1, 97191, Note_off_c, 0, 75, 63
1, 97215, Note_off_c, 0, 55, 58
1, 97230, Note_off_c, 0, 73, 67
1, 97233, Note_off_c, 0, 61, 59
1, 97247, Note_on_c, 0, 72, 76
1, 97278, Note_off_c, 0, 72, 62
1, 97289, Note_off_c, 0, 51, 63
1, 97295, Note_on_c, 0, 70, 80
1, 97349, Note_on_c, 0, 68, 81
1, 97394, Note_on_c, 0, 67, 82
1, 97395, Note_off_c, 0, 70, 61
1, 97414, Note_off_c, 0, 68, 60
1, 97443, Note_off_c, 0, 67, 64
1, 97446, Note_on_c, 0, 65, 78
1, 97496, Note_off_c, 0, 65, 61
1, 97500, Note_on_c, 0, 63, 82
1, 97551, Note_on_c, 0, 61, 82
1, 97562, Note_off_c, 0, 63, 62
1, 97595, Note_off_c, 0, 61, 64
1, 97603, Note_on_c, 0, 60, 78
1, 97651, Note_off_c, 0, 60, 64
1, 97653, Note_on_c, 0, 58, 88
1, 97661, Control_c, 0, 64, 95
1, 97676, Control_c, 0, 64, 68
1, 97690, Control_c, 0, 64, 47
1, 97705, Control_c, 0, 64, 47
1, 97720, Control_c, 0, 64, 59
1, 97724, Note_on_c, 0, 56, 93
1, 97724, Note_off_c, 0, 58, 64
1, 97735, Control_c, 0, 64, 70
1, 97739, Note_on_c, 0, 44, 94
1, 97750, Control_c, 0, 64, 100
1, 97764, Control_c, 0, 64, 127
1, 97784, Note_off_c, 0, 44, 65
1, 97787, Note_off_c, 0, 56, 65
1, 97944, Note_on_c, 0, 44, 80
1, 97944, Note_on_c, 0, 56, 83
1, 97980, Note_off_c, 0, 56, 64
1, 97994, Control_c, 0, 64, 98
1, 98009, Control_c, 0, 64, 72
1, 98017, Note_on_c, 0, 48, 69
1, 98017, Note_on_c, 0, 60, 77
1, 98019, Note_off_c, 0, 44, 59
1, 98023, Control_c, 0, 64, 61
1, 98038, Control_c, 0, 64, 48
1, 98053, Control_c, 0, 64, 44
1, 98068, Control_c, 0, 64, 38
1, 98074, Note_off_c, 0, 60, 66
1, 98077, Note_on_c, 0, 63, 82
1, 98081, Note_off_c, 0, 48, 64
1, 98083, Control_c, 0, 64, 25
1, 98094, Note_on_c, 0, 51, 85
1, 98097, Control_c, 0, 64, 0
1, 98149, Note_on_c, 0, 61, 86
1, 98157, Note_off_c, 0, 51, 61
1, 98172, Note_on_c, 0, 49, 73
1, 98187, Note_off_c, 0, 63, 61
1, 98209, Note_off_c, 0, 49, 64
1, 98216, Note_off_c, 0, 61, 63
1, 98222, Note_on_c, 0, 60, 82
1, 98240, Note_on_c, 0, 48, 74
1, 98277, Note_off_c, 0, 60, 62
1, 98296, Note_on_c, 0, 58, 86
1, 98300, Note_off_c, 0, 48, 61
1, 98317, Note_on_c, 0, 46, 75
1, 98368, Note_on_c, 0, 56, 82
1, 98380, Note_on_c, 0, 44, 73
1, 98388, Note_off_c, 0, 46, 62
1, 98403, Note_off_c, 0, 58, 61
1, 98433, Note_on_c, 0, 55, 85
1, 98438, Note_off_c, 0, 44, 62
1, 98446, Note_off_c, 0, 56, 60
1, 98455, Note_on_c, 0, 43, 80
1, 98503, Note_off_c, 0, 55, 62
1, 98511, Note_on_c, 0, 53, 82
1, 98518, Note_off_c, 0, 43, 62
1, 98528, Note_on_c, 0, 41, 78
1, 98564, Note_off_c, 0, 53, 64
1, 98582, Note_on_c, 0, 51, 86
1, 98586, Note_on_c, 0, 39, 72
1, 98590, Note_off_c, 0, 41, 64
1, 98665, Note_on_c, 0, 49, 83
1, 98670, Note_on_c, 0, 37, 73
1, 98682, Note_off_c, 0, 39, 63
1, 98684, Note_off_c, 0, 51, 60
1, 98716, Note_off_c, 0, 37, 62
1, 98730, Note_off_c, 0, 49, 63
1, 98735, Note_on_c, 0, 48, 80
1, 98752, Note_on_c, 0, 36, 75
1, 98789, Note_off_c, 0, 48, 60
1, 98807, Note_on_c, 0, 46, 80
1, 98815, Note_off_c, 0, 36, 59
1, 98817, Note_on_c, 0, 34, 75
1, 98879, Note_on_c, 0, 44, 76
1, 98887, Note_on_c, 0, 32, 72
1, 98894, Note_off_c, 0, 34, 62
1, 98916, Note_off_c, 0, 46, 61
1, 98946, Note_off_c, 0, 44, 64
1, 98947, Note_on_c, 0, 43, 81
1, 98956, Note_off_c, 0, 32, 62
1, 98957, Note_on_c, 0, 31, 74
1, 99020, Note_on_c, 0, 44, 78
1, 99024, Note_on_c, 0, 32, 71
1, 99031, Note_off_c, 0, 43, 64
1, 99036, Note_off_c, 0, 31, 63
1, 99093, Note_on_c, 0, 34, 72
1, 99094, Note_on_c, 0, 46, 79
1, 99104, Note_off_c, 0, 44, 63
1, 99106, Note_off_c, 0, 32, 62
1, 99138, Note_off_c, 0, 46, 65
1, 99161, Note_on_c, 0, 36, 75
1, 99168, Note_off_c, 0, 34, 62
1, 99176, Note_on_c, 0, 48, 80
1, 99209, Note_off_c, 0, 36, 61
1, 99240, Note_on_c, 0, 37, 76
1, 99240, Note_off_c, 0, 48, 58
1, 99246, Note_on_c, 0, 49, 78
1, 99306, Note_on_c, 0, 39, 78
1, 99311, Note_on_c, 0, 51, 85
1, 99318, Note_off_c, 0, 49, 64
1, 99319, Note_off_c, 0, 37, 62
1, 99362, Note_off_c, 0, 51, 65
1, 99380, Note_on_c, 0, 41, 75
1, 99382, Note_off_c, 0, 39, 64
1, 99385, Note_on_c, 0, 53, 87
1, 99457, Note_on_c, 0, 43, 79
1, 99459, Note_off_c, 0, 41, 64
1, 99470, Note_on_c, 0, 55, 85
1, 99479, Note_off_c, 0, 53, 62
1, 99513, Note_off_c, 0, 43, 64
1, 99537, Note_on_c, 0, 56, 81
1, 99539, Note_on_c, 0, 44, 77
1, 99549, Note_off_c, 0, 55, 62
1, 99609, Note_on_c, 0, 46, 77
1, 99612, Note_on_c, 0, 58, 82
1, 99614, Note_off_c, 0, 44, 65
1, 99614, Note_off_c, 0, 56, 67
1, 99662, Note_off_c, 0, 58, 67
1, 99679, Note_on_c, 0, 48, 83
1, 99684, Note_off_c, 0, 46, 62
1, 99693, Note_on_c, 0, 60, 86
1, 99738, Note_off_c, 0, 48, 62
1, 99757, Note_on_c, 0, 61, 83
1, 99758, Note_off_c, 0, 60, 65
1, 99759, Note_on_c, 0, 49, 76
1, 99822, Note_on_c, 0, 51, 82
1, 99827, Note_on_c, 0, 63, 81
1, 99836, Note_off_c, 0, 61, 63
1, 99849, Note_off_c, 0, 49, 63
1, 99879, Note_off_c, 0, 63, 65
1, 99888, Note_on_c, 0, 53, 74
1, 99895, Note_off_c, 0, 51, 66
1, 99900, Note_on_c, 0, 65, 89
1, 99957, Note_on_c, 0, 55, 81
1, 99964, Note_off_c, 0, 53, 64
1, 99975, Note_on_c, 0, 67, 88
1, 99986, Note_off_c, 0, 65, 54
1, 100012, Note_off_c, 0, 55, 62
1, 100031, Note_on_c, 0, 56, 78
1, 100038, Note_on_c, 0, 68, 80
1, 100056, Note_off_c, 0, 67, 59
1, 100102, Note_on_c, 0, 58, 83
1, 100107, Note_on_c, 0, 70, 80
1, 100114, Note_off_c, 0, 56, 66
1, 100116, Note_off_c, 0, 68, 64
1, 100150, Note_off_c, 0, 70, 68
1, 100180, Note_on_c, 0, 60, 84
1, 100184, Note_off_c, 0, 58, 64
1, 100193, Note_on_c, 0, 72, 87
1, 100237, Note_off_c, 0, 60, 61
1, 100249, Note_on_c, 0, 73, 85
1, 100253, Note_off_c, 0, 72, 66
1, 100258, Note_on_c, 0, 61, 77
1, 100313, Note_on_c, 0, 75, 82
1, 100321, Note_on_c, 0, 63, 79
1, 100322, Note_off_c, 0, 73, 66
1, 100330, Note_off_c, 0, 61, 61
1, 100378, Note_on_c, 0, 77, 90
1, 100382, Note_off_c, 0, 75, 64
1, 100383, Note_on_c, 0, 65, 80
1, 100383, Note_off_c, 0, 63, 64
1, 100460, Note_on_c, 0, 75, 90
1, 100463, Note_on_c, 0, 63, 79
1, 100467, Note_off_c, 0, 65, 62
1, 100503, Note_off_c, 0, 77, 62
1, 100529, Note_on_c, 0, 73, 88
1, 100538, Note_on_c, 0, 61, 77
1, 100549, Note_off_c, 0, 63, 62
1, 100549, Note_off_c, 0, 75, 60
1, 100589, Note_off_c, 0, 61, 60
1, 100595, Note_off_c, 0, 73, 63
1, 100600, Note_on_c, 0, 72, 81
1, 100617, Note_on_c, 0, 60, 80
1, 100646, Note_off_c, 0, 72, 64
1, 100672, Note_on_c, 0, 70, 88
1, 100680, Note_off_c, 0, 60, 63
1, 100682, Note_on_c, 0, 58, 81
1, 100745, Note_on_c, 0, 68, 85
1, 100753, Note_on_c, 0, 56, 79
1, 100760, Note_off_c, 0, 58, 64
1, 100799, Note_off_c, 0, 70, 54
1, 100816, Note_on_c, 0, 67, 84
1, 100818, Note_off_c, 0, 56, 64
1, 100836, Note_on_c, 0, 55, 81
1, 100841, Note_off_c, 0, 68, 59
1, 100874, Note_off_c, 0, 67, 63
1, 100893, Note_on_c, 0, 65, 80
1, 100904, Note_on_c, 0, 53, 84
1, 100914, Note_off_c, 0, 55, 62
1, 100965, Note_off_c, 0, 65, 52
1, 100974, Note_on_c, 0, 63, 88
1, 100974, Note_on_c, 0, 51, 83
1, 100983, Note_off_c, 0, 53, 62
1, 101046, Note_on_c, 0, 49, 72
1, 101054, Note_on_c, 0, 61, 86
1, 101062, Note_off_c, 0, 51, 64
1, 101068, Note_off_c, 0, 63, 62
1, 101077, Note_off_c, 0, 49, 69
1, 101118, Note_on_c, 0, 48, 85
1, 101118, Note_off_c, 0, 61, 62
1, 101127, Note_on_c, 0, 60, 80
1, 101179, Note_off_c, 0, 48, 60
1, 101179, Note_off_c, 0, 60, 65
1, 101183, Note_on_c, 0, 46, 77
1, 101191, Note_on_c, 0, 58, 84
1, 101218, Note_on_c, 0, 45, 53
1, 101226, Control_c, 0, 64, 34
1, 101240, Control_c, 0, 64, 59
1, 101254, Note_on_c, 0, 44, 89
1, 101255, Control_c, 0, 64, 69
1, 101260, Note_off_c, 0, 46, 63
1, 101263, Note_on_c, 0, 56, 97
1, 101266, Note_off_c, 0, 45, 65
1, 101266, Note_off_c, 0, 58, 66
1, 101270, Control_c, 0, 64, 95
1, 101285, Control_c, 0, 64, 127
1, 101296, Note_off_c, 0, 44, 65
1, 101305, Note_off_c, 0, 56, 67
1, 101433, Control_c, 0, 64, 107
1, 101448, Note_on_c, 0, 56, 58
1, 101448, Control_c, 0, 64, 86
1, 101463, Control_c, 0, 64, 74
1, 101466, Note_on_c, 0, 68, 68
1, 101478, Control_c, 0, 64, 65
1, 101492, Note_off_c, 0, 68, 68
1, 101492, Note_off_c, 0, 56, 61
1, 101493, Control_c, 0, 64, 57
1, 101508, Control_c, 0, 64, 51
1, 101523, Control_c, 0, 64, 49
1, 101529, Note_on_c, 0, 60, 58
1, 101537, Control_c, 0, 64, 46
1, 101548, Note_on_c, 0, 72, 60
1, 101552, Control_c, 0, 64, 43
1, 101567, Control_c, 0, 64, 39
1, 101578, Note_off_c, 0, 60, 63
1, 101582, Control_c, 0, 64, 34
1, 101591, Note_off_c, 0, 72, 62
1, 101597, Control_c, 0, 64, 30
1, 101599, Note_on_c, 0, 63, 64
1, 101612, Control_c, 0, 64, 26
1, 101614, Note_on_c, 0, 75, 68
1, 101626, Control_c, 0, 64, 24
1, 101641, Control_c, 0, 64, 24
1, 101644, Note_off_c, 0, 63, 58
1, 101663, Control_c, 0, 64, 23
1, 101693, Control_c, 0, 64, 22
1, 101698, Note_on_c, 0, 73, 70
1, 101704, Note_on_c, 0, 61, 48
1, 101708, Control_c, 0, 64, 21
1, 101711, Note_off_c, 0, 75, 57
1, 101723, Control_c, 0, 64, 20
1, 101742, Note_off_c, 0, 73, 63
1, 101745, Note_off_c, 0, 61, 63
1, 101770, Note_on_c, 0, 72, 64
1, 101773, Note_on_c, 0, 60, 60
1, 101781, Control_c, 0, 64, 19
1, 101802, Note_off_c, 0, 72, 62
1, 101829, Note_off_c, 0, 60, 56
1, 101844, Note_on_c, 0, 70, 69
1, 101852, Note_on_c, 0, 58, 62
1, 101917, Note_on_c, 0, 68, 68
1, 101923, Note_on_c, 0, 56, 61
1, 101923, Note_off_c, 0, 58, 62
1, 101944, Note_off_c, 0, 70, 54
1, 101969, Note_off_c, 0, 56, 63
1, 101975, Control_c, 0, 64, 20
1, 101981, Note_on_c, 0, 67, 66
1, 101989, Note_off_c, 0, 68, 61
1, 102011, Note_on_c, 0, 55, 61
1, 102032, Note_off_c, 0, 67, 61
1, 102056, Note_off_c, 0, 55, 61
1, 102066, Note_on_c, 0, 65, 57
1, 102078, Control_c, 0, 64, 21
1, 102085, Note_on_c, 0, 53, 59
1, 102108, Control_c, 0, 64, 21
1, 102115, Note_off_c, 0, 65, 59
1, 102123, Control_c, 0, 64, 23
1, 102137, Control_c, 0, 64, 23
1, 102140, Note_on_c, 0, 63, 64
1, 102142, Note_off_c, 0, 53, 61
1, 102147, Note_on_c, 0, 51, 61
1, 102211, Control_c, 0, 64, 24
1, 102218, Note_on_c, 0, 61, 66
1, 102220, Note_on_c, 0, 49, 58
1, 102220, Note_off_c, 0, 51, 64
1, 102220, Note_off_c, 0, 63, 62
1, 102253, Note_off_c, 0, 49, 65
1, 102270, Note_off_c, 0, 61, 60
1, 102295, Note_on_c, 0, 48, 65
1, 102297, Note_on_c, 0, 60, 61
1, 102329, Note_off_c, 0, 60, 65
1, 102341, Note_off_c, 0, 48, 56
1, 102366, Note_on_c, 0, 58, 68
1, 102372, Note_on_c, 0, 46, 60
1, 102446, Note_on_c, 0, 44, 56
1, 102449, Note_off_c, 0, 46, 61
1, 102456, Note_on_c, 0, 56, 62
1, 102457, Control_c, 0, 64, 24
1, 102464, Note_off_c, 0, 58, 58
1, 102486, Control_c, 0, 64, 25
1, 102507, Note_off_c, 0, 56, 62
1, 102512, Note_off_c, 0, 44, 62
1, 102524, Note_on_c, 0, 43, 59
1, 102535, Note_on_c, 0, 55, 45
1, 102546, Control_c, 0, 64, 25
1, 102575, Control_c, 0, 64, 26
1, 102583, Note_on_c, 0, 53, 3
1, 102584, Note_off_c, 0, 53, 127
1, 102590, Control_c, 0, 64, 26
1, 102591, Note_off_c, 0, 55, 62
1, 102600, Note_on_c, 0, 56, 68
1, 102603, Note_off_c, 0, 43, 61
1, 102605, Control_c, 0, 64, 27
1, 102606, Note_on_c, 0, 44, 56
1, 102619, Control_c, 0, 64, 27
1, 102649, Control_c, 0, 64, 28
1, 102661, Note_on_c, 0, 46, 67
1, 102664, Control_c, 0, 64, 28
1, 102666, Note_off_c, 0, 44, 62
1, 102668, Note_off_c, 0, 56, 64
1, 102671, Note_on_c, 0, 58, 62
1, 102679, Control_c, 0, 64, 29
1, 102694, Control_c, 0, 64, 30
1, 102699, Note_off_c, 0, 58, 66
1, 102709, Control_c, 0, 64, 31
1, 102723, Control_c, 0, 64, 32
1, 102726, Note_off_c, 0, 46, 61
1, 102728, Note_on_c, 0, 48, 64
1, 102741, Note_on_c, 0, 60, 76
1, 102768, Control_c, 0, 64, 32
1, 102771, Note_off_c, 0, 48, 57
1, 102798, Control_c, 0, 64, 33
1, 102801, Note_on_c, 0, 49, 68
1, 102809, Note_off_c, 0, 60, 63
1, 102812, Control_c, 0, 64, 33
1, 102814, Note_on_c, 0, 61, 75
1, 102842, Control_c, 0, 64, 34
1, 102857, Control_c, 0, 64, 34
1, 102866, Note_on_c, 0, 51, 73
1, 102872, Control_c, 0, 64, 35
1, 102875, Note_off_c, 0, 49, 63
1, 102883, Note_on_c, 0, 63, 73
1, 102884, Note_off_c, 0, 61, 63
1, 102886, Control_c, 0, 64, 36
1, 102916, Control_c, 0, 64, 36
1, 102929, Note_off_c, 0, 51, 65
1, 102933, Note_on_c, 0, 53, 74
1, 102941, Note_off_c, 0, 63, 63
1, 102946, Control_c, 0, 64, 37
1, 102952, Note_on_c, 0, 65, 79
1, 102975, Control_c, 0, 64, 38
1, 103000, Note_on_c, 0, 55, 77
1, 103000, Note_off_c, 0, 53, 63
1, 103004, Control_c, 0, 64, 38
1, 103028, Note_on_c, 0, 67, 84
1, 103039, Note_off_c, 0, 65, 57
1, 103062, Note_off_c, 0, 55, 61
1, 103080, Control_c, 0, 64, 39
1, 103083, Note_on_c, 0, 56, 75
1, 103093, Note_on_c, 0, 68, 78
1, 103107, Note_off_c, 0, 67, 61
1, 103109, Control_c, 0, 64, 39
1, 103162, Note_on_c, 0, 58, 80
1, 103162, Control_c, 0, 64, 40
1, 103166, Note_off_c, 0, 56, 67
1, 103168, Note_on_c, 0, 70, 82
1, 103177, Control_c, 0, 64, 41
1, 103179, Note_off_c, 0, 68, 64
1, 103191, Control_c, 0, 64, 41
1, 103206, Control_c, 0, 64, 42
1, 103210, Note_off_c, 0, 70, 68
1, 103233, Note_on_c, 0, 60, 77
1, 103234, Note_off_c, 0, 58, 64
1, 103235, Control_c, 0, 64, 42
1, 103244, Note_on_c, 0, 72, 88
1, 103250, Control_c, 0, 64, 43
1, 103264, Control_c, 0, 64, 43
1, 103279, Control_c, 0, 64, 44
1, 103287, Note_off_c, 0, 60, 60
1, 103294, Control_c, 0, 64, 44
1, 103304, Note_on_c, 0, 73, 86
1, 103307, Note_off_c, 0, 72, 65
1, 103309, Note_on_c, 0, 61, 81
1, 103368, Control_c, 0, 64, 45
1, 103374, Note_on_c, 0, 63, 82
1, 103375, Note_on_c, 0, 75, 85
1, 103379, Note_off_c, 0, 73, 68
1, 103389, Note_off_c, 0, 61, 62
1, 103425, Note_off_c, 0, 75, 66
1, 103427, Control_c, 0, 64, 45
1, 103442, Note_on_c, 0, 65, 77
1, 103445, Note_on_c, 0, 77, 91
1, 103445, Note_off_c, 0, 63, 65
1, 103457, Control_c, 0, 64, 46
1, 103487, Control_c, 0, 64, 46
1, 103513, Note_on_c, 0, 67, 75
1, 103513, Note_off_c, 0, 65, 63
1, 103517, Note_on_c, 0, 79, 90
1, 103530, Note_off_c, 0, 77, 59
1, 103569, Note_off_c, 0, 67, 63
1, 103580, Note_on_c, 0, 80, 83
1, 103585, Note_on_c, 0, 68, 81
1, 103603, Note_off_c, 0, 79, 63
1, 103649, Control_c, 0, 64, 47
1, 103652, Note_on_c, 0, 70, 83
1, 103652, Note_on_c, 0, 82, 86
1, 103659, Note_off_c, 0, 80, 65
1, 103662, Note_off_c, 0, 68, 63
1, 103698, Note_off_c, 0, 82, 68
1, 103710, Note_off_c, 0, 70, 67
1, 103719, Note_on_c, 0, 72, 77
1, 103736, Note_on_c, 0, 84, 93
1, 103779, Note_off_c, 0, 72, 57
1, 103788, Note_on_c, 0, 73, 81
1, 103795, Note_on_c, 0, 85, 87
1, 103801, Note_off_c, 0, 84, 65
1, 103856, Note_on_c, 0, 75, 84
1, 103862, Note_on_c, 0, 87, 84
1, 103870, Note_off_c, 0, 73, 62
1, 103882, Note_off_c, 0, 85, 65
1, 103931, Note_off_c, 0, 75, 64
1, 103932, Note_on_c, 0, 77, 83
1, 103937, Note_on_c, 0, 89, 88
1, 103946, Note_off_c, 0, 87, 65
1, 103999, Control_c, 0, 64, 46
1, 104011, Note_on_c, 0, 87, 88
1, 104012, Note_on_c, 0, 75, 78
1, 104013, Control_c, 0, 64, 46
1, 104017, Note_off_c, 0, 77, 61
1, 104054, Note_off_c, 0, 89, 63
1, 104083, Note_on_c, 0, 73, 76
1, 104087, Note_on_c, 0, 85, 84
1, 104095, Note_off_c, 0, 75, 62
1, 104111, Note_off_c, 0, 87, 63
1, 104124, Note_off_c, 0, 73, 64
1, 104150, Note_on_c, 0, 84, 79
1, 104154, Note_off_c, 0, 85, 66
1, 104161, Note_on_c, 0, 72, 78
1, 104196, Note_off_c, 0, 84, 65
1, 104222, Note_on_c, 0, 70, 80
1, 104223, Note_off_c, 0, 72, 63
1, 104225, Note_on_c, 0, 82, 86
1, 104293, Note_on_c, 0, 68, 78
1, 104294, Note_on_c, 0, 80, 84
1, 104298, Note_off_c, 0, 70, 65
1, 104354, Note_off_c, 0, 68, 63
1, 104360, Note_off_c, 0, 82, 56
1, 104369, Note_on_c, 0, 79, 86
1, 104375, Note_on_c, 0, 67, 76
1, 104404, Note_off_c, 0, 80, 63
1, 104437, Note_off_c, 0, 79, 64
1, 104441, Note_on_c, 0, 77, 83
1, 104446, Note_on_c, 0, 65, 80
1, 104450, Note_off_c, 0, 67, 62
1, 104457, Control_c, 0, 64, 45
1, 104472, Control_c, 0, 64, 45
1, 104502, Control_c, 0, 64, 44
1, 104509, Note_off_c, 0, 77, 59
1, 104513, Note_on_c, 0, 63, 78
1, 104516, Note_off_c, 0, 65, 63
1, 104518, Note_on_c, 0, 75, 84
1, 104589, Note_on_c, 0, 61, 72
1, 104592, Note_on_c, 0, 73, 87
1, 104597, Note_off_c, 0, 63, 63
1, 104605, Control_c, 0, 64, 44
1, 104615, Note_off_c, 0, 75, 59
1, 104623, Note_off_c, 0, 61, 64
1, 104667, Note_off_c, 0, 73, 64
1, 104670, Note_on_c, 0, 60, 85
1, 104675, Note_on_c, 0, 72, 78
1, 104730, Note_off_c, 0, 72, 63
1, 104733, Note_off_c, 0, 60, 62
1, 104736, Note_on_c, 0, 58, 80
1, 104738, Note_on_c, 0, 70, 83
1, 104747, Control_c, 0, 64, 45
1, 104762, Control_c, 0, 64, 48
1, 104777, Control_c, 0, 64, 53
1, 104792, Control_c, 0, 64, 60
1, 104802, Note_on_c, 0, 56, 93
1, 104806, Note_on_c, 0, 68, 90
1, 104807, Control_c, 0, 64, 65
1, 104813, Note_off_c, 0, 70, 64
1, 104818, Note_off_c, 0, 58, 64
1, 104822, Control_c, 0, 64, 70
1, 104837, Control_c, 0, 64, 76
1, 104843, Note_off_c, 0, 56, 64
1, 104848, Note_off_c, 0, 68, 65
1, 104852, Control_c, 0, 64, 85
1, 104867, Control_c, 0, 64, 93
1, 104881, Control_c, 0, 64, 103
1, 104896, Control_c, 0, 64, 118
1, 104911, Control_c, 0, 64, 127
1, 104941, Control_c, 0, 64, 114
1, 104955, Control_c, 0, 64, 102
1, 104970, Control_c, 0, 64, 93
1, 104982, Note_on_c, 0, 56, 91
1, 104985, Control_c, 0, 64, 86
1, 104989, Note_on_c, 0, 68, 94
1, 105000, Control_c, 0, 64, 80
1, 105014, Control_c, 0, 64, 78
1, 105029, Control_c, 0, 64, 77
1, 105044, Control_c, 0, 64, 76
1, 105054, Note_off_c, 0, 68, 62
1, 105059, Control_c, 0, 64, 74
1, 105066, Note_on_c, 0, 71, 84
1, 105067, Note_on_c, 0, 59, 74
1, 105074, Note_off_c, 0, 56, 63
1, 105074, Control_c, 0, 64, 72
1, 105084, Note_on_c, 0, 60, 57
1, 105088, Control_c, 0, 64, 70
1, 105103, Control_c, 0, 64, 68
1, 105109, Note_off_c, 0, 60, 55
1, 105118, Control_c, 0, 64, 65
1, 105133, Control_c, 0, 64, 63
1, 105138, Note_on_c, 0, 75, 85
1, 105141, Note_on_c, 0, 63, 84
1, 105142, Note_off_c, 0, 59, 65
1, 105143, Note_off_c, 0, 71, 66
1, 105148, Control_c, 0, 64, 62
1, 105162, Control_c, 0, 64, 60
1, 105177, Control_c, 0, 64, 58
1, 105192, Control_c, 0, 64, 55
1, 105207, Control_c, 0, 64, 53
1, 105210, Note_off_c, 0, 63, 59
1, 105217, Note_on_c, 0, 73, 90
1, 105218, Note_on_c, 0, 61, 83
1, 105221, Control_c, 0, 64, 51
1, 105236, Control_c, 0, 64, 49
1, 105244, Note_off_c, 0, 61, 67
1, 105251, Control_c, 0, 64, 46
1, 105265, Note_off_c, 0, 75, 59
1, 105266, Control_c, 0, 64, 43
1, 105277, Note_on_c, 0, 60, 39
1, 105281, Control_c, 0, 64, 42
1, 105292, Note_on_c, 0, 71, 88
1, 105292, Note_off_c, 0, 73, 65
1, 105298, Note_on_c, 0, 59, 86
1, 105306, Note_off_c, 0, 60, 51
1, 105326, Control_c, 0, 64, 40
1, 105341, Control_c, 0, 64, 37
1, 105346, Note_off_c, 0, 71, 62
1, 105355, Control_c, 0, 64, 35
1, 105367, Note_on_c, 0, 70, 89
1, 105370, Control_c, 0, 64, 34
1, 105373, Note_on_c, 0, 58, 89
1, 105376, Note_off_c, 0, 59, 60
1, 105446, Note_on_c, 0, 56, 76
1, 105452, Note_on_c, 0, 68, 84
1, 105459, Note_off_c, 0, 58, 64
1, 105521, Note_off_c, 0, 70, 51
1, 105526, Note_on_c, 0, 66, 86
1, 105528, Note_on_c, 0, 54, 77
1, 105538, Note_off_c, 0, 56, 65
1, 105556, Note_off_c, 0, 54, 70
1, 105558, Note_off_c, 0, 68, 61
1, 105585, Control_c, 0, 64, 35
1, 105598, Note_on_c, 0, 64, 83
1, 105600, Note_on_c, 0, 52, 82
1, 105603, Note_off_c, 0, 66, 63
1, 105630, Control_c, 0, 64, 35
1, 105654, Note_off_c, 0, 64, 60
1, 105674, Note_on_c, 0, 51, 85
1, 105677, Note_on_c, 0, 63, 90
1, 105677, Note_off_c, 0, 52, 63
1, 105743, Note_on_c, 0, 49, 79
1, 105749, Note_off_c, 0, 51, 64
1, 105758, Note_on_c, 0, 61, 85
1, 105780, Note_off_c, 0, 63, 62
1, 105809, Note_off_c, 0, 49, 64
1, 105824, Note_on_c, 0, 47, 79
1, 105830, Note_off_c, 0, 61, 62
1, 105832, Note_on_c, 0, 59, 84
1, 105883, Note_off_c, 0, 59, 63
1, 105894, Note_on_c, 0, 46, 80
1, 105898, Note_off_c, 0, 47, 63
1, 105908, Note_on_c, 0, 58, 87
1, 105960, Note_on_c, 0, 44, 79
1, 105977, Note_off_c, 0, 46, 62
1, 105985, Note_on_c, 0, 56, 79
1, 106018, Note_off_c, 0, 58, 61
1, 106043, Note_on_c, 0, 43, 75
1, 106046, Note_off_c, 0, 44, 63
1, 106053, Note_on_c, 0, 55, 79
1, 106058, Note_off_c, 0, 56, 65
1, 106059, Control_c, 0, 64, 36
1, 106125, Note_on_c, 0, 56, 81
1, 106127, Note_on_c, 0, 44, 76
1, 106155, Note_off_c, 0, 43, 60
1, 106156, Control_c, 0, 64, 36
1, 106157, Note_off_c, 0, 55, 63
1, 106171, Control_c, 0, 64, 37
1, 106200, Control_c, 0, 64, 37
1, 106202, Note_on_c, 0, 46, 77
1, 106208, Note_on_c, 0, 58, 84
1, 106215, Control_c, 0, 64, 38
1, 106220, Note_off_c, 0, 44, 63
1, 106222, Note_off_c, 0, 56, 64
1, 106244, Control_c, 0, 64, 38
1, 106260, Note_off_c, 0, 58, 67
1, 106268, Note_on_c, 0, 47, 79
1, 106279, Note_off_c, 0, 46, 63
1, 106292, Note_on_c, 0, 59, 84
1, 106305, Control_c, 0, 64, 39
1, 106318, Note_off_c, 0, 47, 61
1, 106342, Note_on_c, 0, 49, 78
1, 106360, Note_on_c, 0, 61, 83
1, 106363, Note_off_c, 0, 59, 62
1, 106413, Note_on_c, 0, 51, 87
1, 106430, Note_on_c, 0, 63, 81
1, 106441, Note_off_c, 0, 49, 63
1, 106442, Note_off_c, 0, 61, 62
1, 106467, Control_c, 0, 64, 39
1, 106488, Note_on_c, 0, 53, 77
1, 106489, Note_off_c, 0, 51, 66
1, 106496, Note_off_c, 0, 63, 63
1, 106501, Note_on_c, 0, 65, 90
1, 106512, Control_c, 0, 64, 40
1, 106542, Control_c, 0, 64, 40
1, 106557, Note_on_c, 0, 55, 80
1, 106562, Note_off_c, 0, 53, 63
1, 106576, Note_on_c, 0, 67, 90
1, 106587, Control_c, 0, 64, 41
1, 106590, Note_off_c, 0, 65, 57
1, 106626, Note_off_c, 0, 55, 62
1, 106640, Note_on_c, 0, 56, 81
1, 106646, Note_on_c, 0, 68, 85
1, 106664, Note_off_c, 0, 67, 62
1, 106714, Note_off_c, 0, 56, 66
1, 106715, Note_on_c, 0, 58, 83
1, 106719, Note_on_c, 0, 70, 85
1, 106727, Note_off_c, 0, 68, 65
1, 106749, Control_c, 0, 64, 41
1, 106766, Note_off_c, 0, 70, 67
1, 106792, Note_on_c, 0, 60, 79
1, 106792, Note_on_c, 0, 71, 76
1, 106792, Note_off_c, 0, 58, 64
1, 106793, Control_c, 0, 64, 42
1, 106801, Note_on_c, 0, 59, 69
1, 106828, Note_off_c, 0, 59, 54
1, 106843, Note_off_c, 0, 60, 64
1, 106852, Control_c, 0, 64, 42
1, 106866, Note_on_c, 0, 61, 80
1, 106870, Note_off_c, 0, 71, 62
1, 106873, Note_on_c, 0, 73, 87
1, 106940, Note_on_c, 0, 63, 83
1, 106946, Note_on_c, 0, 75, 87
1, 106955, Note_off_c, 0, 73, 66
1, 106965, Note_off_c, 0, 61, 61
1, 106978, Control_c, 0, 64, 43
1, 106994, Note_off_c, 0, 75, 66
1, 107004, Note_on_c, 0, 65, 79
1, 107007, Note_off_c, 0, 63, 66
1, 107021, Note_on_c, 0, 77, 93
1, 107022, Control_c, 0, 64, 44
1, 107037, Control_c, 0, 64, 45
1, 107053, Control_c, 0, 64, 45
1, 107079, Note_off_c, 0, 65, 64
1, 107081, Note_on_c, 0, 67, 83
1, 107093, Note_on_c, 0, 79, 92
1, 107105, Note_off_c, 0, 77, 59
1, 107142, Note_off_c, 0, 67, 62
1, 107157, Note_on_c, 0, 68, 84
1, 107162, Note_on_c, 0, 80, 83
1, 107188, Note_off_c, 0, 79, 64
1, 107232, Note_on_c, 0, 82, 86
1, 107233, Note_on_c, 0, 70, 89
1, 107234, Note_off_c, 0, 68, 66
1, 107248, Note_off_c, 0, 80, 66
1, 107288, Note_off_c, 0, 82, 68
1, 107304, Note_off_c, 0, 70, 65
1, 107305, Note_on_c, 0, 71, 86
1, 107315, Note_on_c, 0, 83, 92
1, 107320, Control_c, 0, 64, 46
1, 107355, Note_off_c, 0, 71, 63
1, 107382, Note_on_c, 0, 85, 87
1, 107383, Note_on_c, 0, 73, 91
1, 107386, Note_off_c, 0, 83, 65
1, 107393, Control_c, 0, 64, 46
1, 107408, Control_c, 0, 64, 47
1, 107438, Control_c, 0, 64, 47
1, 107451, Note_on_c, 0, 87, 91
1, 107453, Control_c, 0, 64, 48
1, 107459, Note_on_c, 0, 75, 89
1, 107463, Note_off_c, 0, 73, 65
1, 107467, Control_c, 0, 64, 48
1, 107468, Note_off_c, 0, 85, 65
1, 107482, Control_c, 0, 64, 49
1, 107497, Control_c, 0, 64, 50
1, 107512, Note_off_c, 0, 87, 65
1, 107512, Control_c, 0, 64, 51
1, 107542, Control_c, 0, 64, 51
1, 107543, Note_on_c, 0, 88, 99
1, 107544, Note_on_c, 0, 76, 100
1, 107558, Note_off_c, 0, 75, 59
1, 107630, Control_c, 0, 64, 51
1, 107631, Note_off_c, 0, 76, 45
1, 107638, Note_on_c, 0, 74, 82
1, 107675, Note_on_c, 0, 86, 89
1, 107682, Control_c, 0, 64, 50
1, 107741, Note_on_c, 0, 73, 83
1, 107742, Note_off_c, 0, 74, 63
1, 107749, Note_on_c, 0, 85, 88
1, 107779, Note_off_c, 0, 88, 58
1, 107800, Note_off_c, 0, 86, 57
1, 107800, Note_off_c, 0, 73, 65
1, 107801, Control_c, 0, 64, 50
1, 107814, Note_on_c, 0, 83, 84
1, 107815, Control_c, 0, 64, 49
1, 107820, Note_on_c, 0, 71, 80
1, 107830, Control_c, 0, 64, 48
1, 107861, Note_off_c, 0, 85, 65
1, 107888, Note_on_c, 0, 69, 82
1, 107891, Control_c, 0, 64, 49
1, 107893, Note_on_c, 0, 81, 84
1, 107895, Note_off_c, 0, 71, 63
1, 107898, Note_off_c, 0, 83, 65
1, 107905, Control_c, 0, 64, 49
1, 107920, Control_c, 0, 64, 50
1, 107944, Note_off_c, 0, 81, 66
1, 107965, Note_on_c, 0, 68, 81
1, 107968, Note_on_c, 0, 80, 88
1, 107979, Note_off_c, 0, 69, 62
1, 108040, Note_on_c, 0, 78, 88
1, 108047, Note_on_c, 0, 66, 74
1, 108066, Note_off_c, 0, 80, 65
1, 108068, Note_off_c, 0, 68, 61
1, 108093, Note_off_c, 0, 66, 65
1, 108113, Note_on_c, 0, 76, 86
1, 108114, Note_off_c, 0, 78, 65
1, 108132, Note_on_c, 0, 64, 78
1, 108158, Note_off_c, 0, 76, 65
1, 108172, Control_c, 0, 64, 49
1, 108191, Note_on_c, 0, 74, 87
1, 108196, Note_on_c, 0, 62, 81
1, 108196, Note_off_c, 0, 64, 62
1, 108202, Control_c, 0, 64, 49
1, 108267, Note_on_c, 0, 73, 87
1, 108271, Note_on_c, 0, 61, 83
1, 108275, Note_off_c, 0, 62, 64
1, 108296, Note_off_c, 0, 74, 62
1, 108334, Note_off_c, 0, 61, 62
1, 108337, Note_on_c, 0, 71, 85
1, 108354, Note_on_c, 0, 59, 85
1, 108378, Note_off_c, 0, 73, 63
1, 108402, Control_c, 0, 64, 49
1, 108423, Note_on_c, 0, 69, 86
1, 108423, Note_off_c, 0, 71, 63
1, 108434, Note_on_c, 0, 57, 82
1, 108436, Note_off_c, 0, 59, 0
1, 108474, Poly_aftertouch_c, 0, 59, 127
1, 108475, Note_off_c, 0, 69, 65
1, 108496, Note_on_c, 0, 56, 80
1, 108500, Poly_aftertouch_c, 0, 59, 0
1, 108503, Note_on_c, 0, 68, 90
1, 108513, Note_off_c, 0, 57, 61
1, 108576, Note_on_c, 0, 54, 77
1, 108581, Note_on_c, 0, 66, 84
1, 108594, Note_off_c, 0, 56, 65
1, 108595, Control_c, 0, 64, 50
1, 108608, Note_off_c, 0, 68, 62
1, 108622, Note_off_c, 0, 54, 65
1, 108658, Note_on_c, 0, 52, 83
1, 108658, Note_on_c, 0, 64, 83
1, 108664, Note_off_c, 0, 66, 62
1, 108703, Note_off_c, 0, 64, 66
1, 108721, Note_on_c, 0, 50, 84
1, 108726, Note_off_c, 0, 52, 65
1, 108736, Note_on_c, 0, 62, 90
1, 108796, Note_on_c, 0, 49, 79
1, 108805, Note_off_c, 0, 50, 63
1, 108811, Note_on_c, 0, 61, 87
1, 108843, Note_off_c, 0, 62, 64
1, 108847, Control_c, 0, 64, 49
1, 108858, Note_off_c, 0, 49, 63
1, 108862, Control_c, 0, 64, 49
1, 108877, Control_c, 0, 64, 48
1, 108878, Note_on_c, 0, 59, 88
1, 108886, Note_on_c, 0, 47, 80
1, 108892, Control_c, 0, 64, 48
1, 108907, Control_c, 0, 64, 47
1, 108909, Note_on_c, 0, 45, 45
1, 108913, Note_off_c, 0, 61, 63
1, 108921, Control_c, 0, 64, 47
1, 108953, Note_off_c, 0, 45, 0
1, 108953, Note_on_c, 0, 45, 64
1, 108955, Note_off_c, 0, 47, 58
1, 108959, Note_on_c, 0, 57, 86
1, 108962, Note_off_c, 0, 59, 64
1, 108981, Control_c, 0, 64, 46
1, 108995, Control_c, 0, 64, 45
1, 109010, Control_c, 0, 64, 43
1, 109011, Note_off_c, 0, 57, 66
1, 109025, Control_c, 0, 64, 42
1, 109032, Note_on_c, 0, 44, 79
1, 109037, Note_on_c, 0, 56, 91
1, 109040, Note_off_c, 0, 45, 63
1, 109040, Control_c, 0, 64, 41
1, 109055, Control_c, 0, 64, 37
1, 109070, Control_c, 0, 64, 31
1, 109085, Control_c, 0, 64, 19
1, 109100, Control_c, 0, 64, 0
1, 109100, Note_on_c, 0, 42, 81
1, 109103, Note_off_c, 0, 44, 65
1, 109108, Note_on_c, 0, 54, 92
1, 109130, Note_off_c, 0, 56, 66
1, 109148, Note_off_c, 0, 42, 64
1, 109188, Note_on_c, 0, 52, 86
1, 109196, Note_on_c, 0, 40, 85
1, 109197, Note_off_c, 0, 54, 64
1, 109234, Note_off_c, 0, 52, 67
1, 109261, Note_off_c, 0, 40, 61
1, 109261, Note_on_c, 0, 38, 81
1, 109268, Note_on_c, 0, 50, 90
1, 109327, Note_on_c, 0, 37, 79
1, 109342, Note_off_c, 0, 38, 61
1, 109345, Note_on_c, 0, 49, 81
1, 109371, Note_off_c, 0, 50, 60
1, 109391, Note_on_c, 0, 35, 74
1, 109392, Note_off_c, 0, 37, 63
1, 109403, Note_on_c, 0, 47, 84
1, 109421, Note_off_c, 0, 49, 64
1, 109467, Note_on_c, 0, 33, 91
1, 109475, Note_on_c, 0, 45, 85
1, 109477, Note_off_c, 0, 47, 63
1, 109496, Note_off_c, 0, 35, 61
1, 109535, Note_off_c, 0, 45, 64
1, 109549, Note_on_c, 0, 49, 78
1, 109567, Control_c, 0, 64, 44
1, 109582, Control_c, 0, 64, 54
1, 109597, Control_c, 0, 64, 58
1, 109612, Control_c, 0, 64, 63
1, 109614, Note_off_c, 0, 49, 63
1, 109626, Control_c, 0, 64, 68
1, 109628, Note_on_c, 0, 45, 80
1, 109641, Control_c, 0, 64, 76
1, 109656, Control_c, 0, 64, 101
1, 109659, Note_off_c, 0, 33, 62
1, 109670, Control_c, 0, 64, 127
1, 109694, Note_on_c, 0, 49, 80
1, 109698, Note_off_c, 0, 45, 62
1, 109770, Note_on_c, 0, 52, 88
1, 109771, Note_off_c, 0, 49, 65
1, 109827, Note_off_c, 0, 52, 69
1, 109966, Note_on_c, 0, 45, 93
1, 109967, Note_on_c, 0, 33, 87
1, 109976, Note_on_c, 0, 49, 83
1, 109989, Control_c, 0, 64, 91
1, 110004, Control_c, 0, 64, 67
1, 110019, Control_c, 0, 64, 46
1, 110033, Control_c, 0, 64, 28
1, 110048, Control_c, 0, 64, 29
1, 110054, Note_on_c, 0, 52, 79
1, 110056, Note_off_c, 0, 49, 63
1, 110063, Control_c, 0, 64, 39
1, 110077, Control_c, 0, 64, 52
1, 110092, Control_c, 0, 64, 61
1, 110107, Control_c, 0, 64, 67
1, 110112, Note_off_c, 0, 52, 64
1, 110122, Control_c, 0, 64, 80
1, 110128, Note_on_c, 0, 49, 82
1, 110137, Control_c, 0, 64, 113
1, 110152, Control_c, 0, 64, 127
1, 110194, Note_off_c, 0, 49, 62
1, 110206, Note_on_c, 0, 52, 71
1, 110212, Note_on_c, 0, 53, 73
1, 110222, Note_on_c, 0, 50, 3
1, 110263, Note_off_c, 0, 50, 51
1, 110280, Note_on_c, 0, 57, 86
1, 110284, Note_off_c, 0, 52, 64
1, 110290, Note_off_c, 0, 53, 57
1, 110336, Note_off_c, 0, 57, 64
1, 110360, Note_off_c, 0, 33, 60
1, 110364, Note_off_c, 0, 45, 61
1, 110438, Note_on_c, 0, 45, 93
1, 110445, Note_on_c, 0, 33, 87
1, 110463, Note_on_c, 0, 52, 90
1, 110464, Control_c, 0, 64, 81
1, 110479, Control_c, 0, 64, 64
1, 110493, Control_c, 0, 64, 44
1, 110508, Control_c, 0, 64, 40
1, 110537, Note_off_c, 0, 52, 61
1, 110538, Control_c, 0, 64, 46
1, 110543, Note_on_c, 0, 57, 82
1, 110553, Control_c, 0, 64, 56
1, 110567, Control_c, 0, 64, 63
1, 110582, Control_c, 0, 64, 72
1, 110597, Control_c, 0, 64, 85
1, 110607, Note_off_c, 0, 57, 64
1, 110612, Control_c, 0, 64, 113
1, 110617, Note_on_c, 0, 52, 80
1, 110627, Control_c, 0, 64, 127
1, 110668, Note_off_c, 0, 45, 59
1, 110674, Note_off_c, 0, 33, 61
1, 110695, Note_on_c, 0, 57, 86
1, 110703, Note_off_c, 0, 52, 63
1, 110772, Note_on_c, 0, 61, 89
1, 110781, Note_off_c, 0, 57, 61
1, 110840, Note_off_c, 0, 61, 63
1, 110950, Note_on_c, 0, 45, 83
1, 110953, Note_on_c, 0, 33, 79
1, 110960, Note_on_c, 0, 57, 91
1, 110990, Control_c, 0, 64, 87
1, 111004, Control_c, 0, 64, 63
1, 111019, Control_c, 0, 64, 28
1, 111031, Note_on_c, 0, 61, 82
1, 111031, Note_off_c, 0, 57, 64
1, 111034, Control_c, 0, 64, 9
1, 111049, Control_c, 0, 64, 12
1, 111064, Control_c, 0, 64, 31
1, 111079, Control_c, 0, 64, 49
1, 111094, Control_c, 0, 64, 60
1, 111106, Note_off_c, 0, 61, 61
1, 111109, Control_c, 0, 64, 67
1, 111112, Note_on_c, 0, 57, 85
1, 111124, Control_c, 0, 64, 76
1, 111139, Control_c, 0, 64, 94
1, 111153, Control_c, 0, 64, 127
1, 111181, Note_on_c, 0, 61, 83
1, 111192, Note_off_c, 0, 57, 63
1, 111258, Note_on_c, 0, 64, 83
1, 111261, Note_off_c, 0, 61, 66
1, 111311, Note_off_c, 0, 64, 62
1, 111344, Note_off_c, 0, 33, 59
1, 111352, Note_off_c, 0, 45, 61
1, 111437, Note_on_c, 0, 45, 87
1, 111446, Note_on_c, 0, 33, 75
1, 111446, Note_on_c, 0, 61, 85
1, 111472, Control_c, 0, 64, 78
1, 111487, Control_c, 0, 64, 61
1, 111501, Control_c, 0, 64, 41
1, 111516, Control_c, 0, 64, 40
1, 111530, Control_c, 0, 64, 45
1, 111536, Note_on_c, 0, 64, 78
1, 111539, Note_off_c, 0, 61, 61
1, 111545, Control_c, 0, 64, 55
1, 111560, Control_c, 0, 64, 63
1, 111575, Control_c, 0, 64, 70
1, 111590, Control_c, 0, 64, 84
1, 111597, Note_off_c, 0, 64, 63
1, 111604, Note_on_c, 0, 61, 79
1, 111604, Control_c, 0, 64, 127
1, 111624, Note_off_c, 0, 33, 62
1, 111655, Note_off_c, 0, 45, 59
1, 111676, Note_on_c, 0, 64, 82
1, 111684, Note_off_c, 0, 61, 63
1, 111753, Note_on_c, 0, 69, 87
1, 111762, Note_off_c, 0, 64, 64
1, 111832, Note_off_c, 0, 69, 58
1, 111951, Note_on_c, 0, 45, 77
1, 111954, Note_on_c, 0, 52, 83
1, 111959, Note_on_c, 0, 49, 72
1, 111972, Note_on_c, 0, 64, 83
1, 112006, Control_c, 0, 64, 89
1, 112020, Control_c, 0, 64, 67
1, 112035, Control_c, 0, 64, 52
1, 112050, Control_c, 0, 64, 41
1, 112062, Note_on_c, 0, 69, 80
1, 112063, Note_off_c, 0, 64, 62
1, 112079, Control_c, 0, 64, 44
1, 112094, Control_c, 0, 64, 48
1, 112109, Control_c, 0, 64, 53
1, 112124, Control_c, 0, 64, 59
1, 112146, Note_off_c, 0, 69, 63
1, 112146, Control_c, 0, 64, 63
1, 112148, Note_on_c, 0, 64, 73
1, 112161, Control_c, 0, 64, 66
1, 112176, Control_c, 0, 64, 72
1, 112191, Control_c, 0, 64, 80
1, 112206, Control_c, 0, 64, 91
1, 112221, Control_c, 0, 64, 109
1, 112228, Note_on_c, 0, 69, 85
1, 112235, Control_c, 0, 64, 127
1, 112244, Note_off_c, 0, 64, 59
1, 112315, Note_on_c, 0, 73, 85
1, 112338, Note_off_c, 0, 69, 62
1, 112417, Note_off_c, 0, 73, 61
1, 112417, Note_off_c, 0, 45, 35
1, 112421, Note_off_c, 0, 49, 59
1, 112452, Note_off_c, 0, 52, 61
1, 112523, Note_on_c, 0, 57, 79
1, 112527, Note_on_c, 0, 52, 72
1, 112530, Note_on_c, 0, 45, 71
1, 112534, Note_on_c, 0, 49, 67
1, 112551, Note_on_c, 0, 69, 87
1, 112575, Control_c, 0, 64, 99
1, 112590, Control_c, 0, 64, 78
1, 112605, Control_c, 0, 64, 65
1, 112619, Control_c, 0, 64, 51
1, 112634, Control_c, 0, 64, 39
1, 112650, Control_c, 0, 64, 36
1, 112652, Note_on_c, 0, 73, 78
1, 112662, Note_off_c, 0, 69, 60
1, 112665, Control_c, 0, 64, 35
1, 112680, Control_c, 0, 64, 35
1, 112694, Control_c, 0, 64, 39
1, 112709, Control_c, 0, 64, 45
1, 112724, Control_c, 0, 64, 51
1, 112739, Control_c, 0, 64, 56
1, 112754, Control_c, 0, 64, 59
1, 112764, Note_on_c, 0, 69, 81
1, 112766, Note_off_c, 0, 73, 63
1, 112768, Control_c, 0, 64, 62
1, 112783, Control_c, 0, 64, 64
1, 112798, Control_c, 0, 64, 66
1, 112813, Control_c, 0, 64, 70
1, 112828, Control_c, 0, 64, 74
1, 112842, Control_c, 0, 64, 79
1, 112857, Control_c, 0, 64, 86
1, 112862, Note_on_c, 0, 73, 78
1, 112872, Control_c, 0, 64, 95
1, 112892, Note_off_c, 0, 69, 58
1, 112894, Control_c, 0, 64, 112
1, 112909, Control_c, 0, 64, 127
1, 112909, Note_off_c, 0, 45, 61
1, 112920, Note_off_c, 0, 57, 56
1, 112965, Note_off_c, 0, 49, 60
1, 112968, Note_off_c, 0, 52, 63
1, 113013, Note_on_c, 0, 76, 73
1, 113058, Note_off_c, 0, 73, 63
1, 113106, Note_off_c, 0, 76, 64
1, 113296, Note_on_c, 0, 59, 57
1, 113297, Note_on_c, 0, 56, 59
1, 113297, Note_on_c, 0, 52, 58
1, 113309, Control_c, 0, 64, 110
1, 113324, Control_c, 0, 64, 93
1, 113327, Note_on_c, 0, 71, 66
1, 113339, Control_c, 0, 64, 84
1, 113354, Control_c, 0, 64, 78
1, 113368, Control_c, 0, 64, 72
1, 113383, Control_c, 0, 64, 65
1, 113398, Control_c, 0, 64, 60
1, 113413, Control_c, 0, 64, 56
1, 113428, Control_c, 0, 64, 51
1, 113444, Control_c, 0, 64, 44
1, 113458, Note_off_c, 0, 71, 61
1, 113459, Control_c, 0, 64, 34
1, 113461, Note_on_c, 0, 74, 62
1, 113473, Control_c, 0, 64, 11
1, 113488, Control_c, 0, 64, 0
1, 113550, Note_off_c, 0, 74, 61
1, 113570, Note_on_c, 0, 71, 57
1, 113659, Control_c, 0, 64, 24
1, 113673, Control_c, 0, 64, 36
1, 113687, Note_off_c, 0, 71, 57
1, 113688, Control_c, 0, 64, 44
1, 113701, Note_on_c, 0, 74, 53
1, 113703, Control_c, 0, 64, 48
1, 113717, Control_c, 0, 64, 49
1, 113732, Control_c, 0, 64, 51
1, 113747, Control_c, 0, 64, 52
1, 113762, Control_c, 0, 64, 54
1, 113777, Control_c, 0, 64, 54
1, 113806, Control_c, 0, 64, 55
1, 113823, Note_off_c, 0, 74, 58
1, 113854, Note_on_c, 0, 83, 55
1, 113880, Control_c, 0, 64, 54
1, 113910, Control_c, 0, 64, 54
1, 113939, Control_c, 0, 64, 53
1, 113969, Control_c, 0, 64, 53
1, 114120, Note_on_c, 0, 51, 45
1, 114150, Note_off_c, 0, 52, 48
1, 114165, Note_on_c, 0, 72, 47
1, 114220, Note_off_c, 0, 72, 61
1, 114236, Note_off_c, 0, 83, 57
1, 114257, Note_on_c, 0, 75, 49
1, 114268, Note_off_c, 0, 59, 43
1, 114281, Note_off_c, 0, 56, 50
1, 114295, Note_off_c, 0, 75, 63
1, 114295, Control_c, 0, 64, 52
1, 114310, Control_c, 0, 64, 52
1, 114328, Note_on_c, 0, 72, 50
1, 114340, Control_c, 0, 64, 51
1, 114358, Note_off_c, 0, 72, 60
1, 114370, Control_c, 0, 64, 51
1, 114392, Note_on_c, 0, 75, 58
1, 114392, Control_c, 0, 64, 50
1, 114407, Control_c, 0, 64, 49
1, 114421, Control_c, 0, 64, 49
1, 114428, Note_off_c, 0, 75, 64
1, 114436, Control_c, 0, 64, 48
1, 114451, Control_c, 0, 64, 48
1, 114459, Note_on_c, 0, 60, 39
1, 114461, Note_on_c, 0, 56, 31
1, 114465, Control_c, 0, 64, 47
1, 114471, Note_on_c, 0, 84, 55
1, 114480, Control_c, 0, 64, 45
1, 114495, Control_c, 0, 64, 42
1, 114510, Control_c, 0, 64, 40
1, 114513, Note_off_c, 0, 84, 60
1, 114522, Note_off_c, 0, 51, 36
1, 114525, Control_c, 0, 64, 39
1, 114540, Control_c, 0, 64, 39
1, 114568, Note_off_c, 0, 60, 34
1, 114570, Control_c, 0, 64, 38
1, 114584, Control_c, 0, 64, 36
1, 114599, Control_c, 0, 64, 35
1, 114643, Note_on_c, 0, 75, 59
1, 114651, Note_on_c, 0, 51, 43
1, 114673, Control_c, 0, 64, 35
1, 114680, Note_off_c, 0, 75, 62
1, 114699, Note_off_c, 0, 56, 46
1, 114707, Note_on_c, 0, 84, 56
1, 114742, Note_off_c, 0, 84, 62
1, 114796, Note_on_c, 0, 75, 44
1, 114842, Note_off_c, 0, 75, 49
1, 114854, Note_on_c, 0, 84, 56
1, 114919, Note_off_c, 0, 84, 55
1, 114921, Note_on_c, 0, 87, 56
1, 114937, Note_on_c, 0, 60, 37
1, 114941, Note_on_c, 0, 63, 39
1, 114943, Note_off_c, 0, 87, 64
1, 114947, Note_off_c, 0, 51, 36
1, 115032, Note_off_c, 0, 63, 45
1, 115078, Note_off_c, 0, 60, 51
1, 115098, Note_on_c, 0, 73, 57
1, 115103, Control_c, 0, 64, 35
1, 115104, Note_on_c, 0, 51, 41
1, 115141, Control_c, 0, 64, 36
1, 115147, Note_off_c, 0, 73, 61
1, 115170, Control_c, 0, 64, 37
1, 115178, Note_on_c, 0, 82, 57
1, 115219, Note_off_c, 0, 82, 62
1, 115251, Note_on_c, 0, 73, 58
1, 115297, Note_off_c, 0, 73, 57
1, 115308, Note_on_c, 0, 82, 59
1, 115383, Note_on_c, 0, 85, 63
1, 115383, Note_off_c, 0, 51, 57
1, 115388, Note_on_c, 0, 61, 34
1, 115389, Note_off_c, 0, 82, 61
1, 115405, Note_on_c, 0, 58, 35
1, 115413, Note_off_c, 0, 85, 68
1, 115467, Control_c, 0, 64, 37
1, 115496, Control_c, 0, 64, 38
1, 115559, Note_on_c, 0, 70, 65
1, 115559, Note_off_c, 0, 61, 21
1, 115572, Note_on_c, 0, 51, 40
1, 115578, Note_off_c, 0, 58, 36
1, 115598, Note_off_c, 0, 70, 59
1, 115634, Note_on_c, 0, 79, 60
1, 115680, Note_off_c, 0, 79, 63
1, 115702, Note_on_c, 0, 70, 65
1, 115763, Note_on_c, 0, 79, 56
1, 115775, Note_off_c, 0, 70, 58
1, 115809, Note_on_c, 0, 58, 56
1, 115810, Note_off_c, 0, 51, 56
1, 115827, Note_on_c, 0, 82, 72
1, 115834, Note_off_c, 0, 79, 65
1, 115863, Note_off_c, 0, 82, 62
1, 115902, Poly_aftertouch_c, 0, 55, 127
1, 115934, Control_c, 0, 64, 38
1, 115949, Control_c, 0, 64, 39
1, 115964, Control_c, 0, 64, 40
1, 115979, Control_c, 0, 64, 43
1, 115990, Note_on_c, 0, 51, 51
1, 115993, Control_c, 0, 64, 47
1, 116008, Control_c, 0, 64, 51
1, 116013, Note_on_c, 0, 72, 71
1, 116013, Note_off_c, 0, 58, 50
1, 116023, Control_c, 0, 64, 55
1, 116038, Control_c, 0, 64, 58
1, 116053, Control_c, 0, 64, 60
1, 116065, Poly_aftertouch_c, 0, 55, 0
1, 116067, Control_c, 0, 64, 63
1, 116078, Note_off_c, 0, 72, 63
1, 116082, Control_c, 0, 64, 65
1, 116086, Note_on_c, 0, 75, 71
1, 116097, Control_c, 0, 64, 67
1, 116111, Control_c, 0, 64, 72
1, 116126, Control_c, 0, 64, 79
1, 116134, Note_off_c, 0, 75, 59
1, 116141, Control_c, 0, 64, 89
1, 116156, Control_c, 0, 64, 103
1, 116158, Note_on_c, 0, 72, 68
1, 116171, Control_c, 0, 64, 127
1, 116218, Note_off_c, 0, 72, 62
1, 116221, Note_on_c, 0, 75, 72
1, 116262, Note_off_c, 0, 75, 60
1, 116280, Note_on_c, 0, 84, 69
1, 116286, Note_on_c, 0, 56, 51
1, 116287, Note_on_c, 0, 60, 52
1, 116296, Note_off_c, 0, 51, 57
1, 116311, Note_off_c, 0, 84, 64
1, 116347, Note_off_c, 0, 60, 53
1, 116423, Control_c, 0, 64, 98
1, 116438, Control_c, 0, 64, 70
1, 116453, Control_c, 0, 64, 51
1, 116467, Note_on_c, 0, 51, 49
1, 116467, Control_c, 0, 64, 45
1, 116470, Note_on_c, 0, 80, 71
1, 116482, Control_c, 0, 64, 49
1, 116488, Note_off_c, 0, 56, 37
1, 116497, Control_c, 0, 64, 54
1, 116511, Control_c, 0, 64, 60
1, 116526, Control_c, 0, 64, 65
1, 116536, Note_off_c, 0, 80, 62
1, 116541, Control_c, 0, 64, 71
1, 116552, Note_on_c, 0, 87, 66
1, 116556, Control_c, 0, 64, 80
1, 116571, Control_c, 0, 64, 92
1, 116585, Control_c, 0, 64, 108
1, 116589, Note_off_c, 0, 87, 63
1, 116600, Control_c, 0, 64, 127
1, 116616, Note_on_c, 0, 80, 68
1, 116692, Note_off_c, 0, 80, 62
1, 116698, Note_on_c, 0, 87, 64
1, 116733, Note_off_c, 0, 87, 63
1, 116740, Note_off_c, 0, 51, 37
1, 116749, Note_on_c, 0, 60, 44
1, 116750, Note_on_c, 0, 92, 72
1, 116764, Note_on_c, 0, 63, 39
1, 116796, Note_off_c, 0, 92, 59
1, 116832, Note_off_c, 0, 63, 41
1, 116832, Control_c, 0, 64, 118
1, 116847, Control_c, 0, 64, 96
1, 116862, Control_c, 0, 64, 77
1, 116877, Control_c, 0, 64, 64
1, 116891, Control_c, 0, 64, 53
1, 116906, Control_c, 0, 64, 51
1, 116921, Control_c, 0, 64, 52
1, 116924, Note_off_c, 0, 60, 43
1, 116933, Note_on_c, 0, 79, 65
1, 116934, Note_on_c, 0, 51, 48
1, 116935, Control_c, 0, 64, 54
1, 116950, Control_c, 0, 64, 57
1, 116965, Control_c, 0, 64, 61
1, 116980, Control_c, 0, 64, 64
1, 116995, Note_off_c, 0, 79, 61
1, 116995, Control_c, 0, 64, 66
1, 117005, Note_on_c, 0, 85, 63
1, 117009, Control_c, 0, 64, 71
1, 117024, Control_c, 0, 64, 77
1, 117039, Control_c, 0, 64, 84
1, 117042, Note_off_c, 0, 85, 63
1, 117054, Control_c, 0, 64, 93
1, 117069, Note_on_c, 0, 79, 59
1, 117069, Control_c, 0, 64, 105
1, 117083, Control_c, 0, 64, 121
1, 117098, Control_c, 0, 64, 127
1, 117124, Note_off_c, 0, 79, 59
1, 117137, Note_on_c, 0, 85, 66
1, 117167, Note_off_c, 0, 51, 58
1, 117175, Note_off_c, 0, 85, 59
1, 117185, Note_on_c, 0, 91, 68
1, 117197, Note_on_c, 0, 61, 46
1, 117200, Note_on_c, 0, 58, 52
1, 117223, Note_off_c, 0, 91, 63
1, 117255, Note_off_c, 0, 61, 51
1, 117306, Control_c, 0, 64, 121
1, 117321, Control_c, 0, 64, 91
1, 117335, Control_c, 0, 64, 73
1, 117350, Control_c, 0, 64, 63
1, 117359, Note_off_c, 0, 58, 37
1, 117363, Note_on_c, 0, 51, 58
1, 117365, Control_c, 0, 64, 58
1, 117387, Note_on_c, 0, 73, 78
1, 117387, Control_c, 0, 64, 59
1, 117402, Control_c, 0, 64, 61
1, 117416, Control_c, 0, 64, 65
1, 117431, Control_c, 0, 64, 70
1, 117447, Control_c, 0, 64, 81
1, 117451, Note_off_c, 0, 73, 62
1, 117462, Control_c, 0, 64, 104
1, 117464, Note_on_c, 0, 79, 75
1, 117477, Control_c, 0, 64, 127
1, 117508, Note_off_c, 0, 79, 61
1, 117512, Note_on_c, 0, 73, 73
1, 117576, Note_on_c, 0, 79, 73
1, 117589, Note_off_c, 0, 73, 61
1, 117630, Note_off_c, 0, 51, 58
1, 117633, Note_off_c, 0, 79, 64
1, 117635, Note_on_c, 0, 58, 69
1, 117642, Note_on_c, 0, 55, 54
1, 117646, Note_on_c, 0, 85, 84
1, 117691, Note_off_c, 0, 85, 65
1, 117772, Control_c, 0, 64, 89
1, 117787, Control_c, 0, 64, 67
1, 117802, Control_c, 0, 64, 52
1, 117816, Note_on_c, 0, 72, 81
1, 117817, Control_c, 0, 64, 51
1, 117831, Control_c, 0, 64, 56
1, 117834, Note_on_c, 0, 51, 68
1, 117837, Note_off_c, 0, 58, 57
1, 117846, Control_c, 0, 64, 63
1, 117861, Control_c, 0, 64, 69
1, 117875, Note_on_c, 0, 80, 80
1, 117876, Control_c, 0, 64, 83
1, 117880, Note_off_c, 0, 72, 64
1, 117887, Note_off_c, 0, 55, 36
1, 117890, Control_c, 0, 64, 127
1, 117944, Note_off_c, 0, 80, 64
1, 117945, Note_on_c, 0, 72, 77
1, 117998, Note_on_c, 0, 80, 75
1, 118015, Note_off_c, 0, 72, 63
1, 118065, Note_on_c, 0, 84, 92
1, 118075, Note_off_c, 0, 80, 65
1, 118092, Note_on_c, 0, 56, 82
1, 118102, Note_on_c, 0, 60, 80
1, 118105, Note_off_c, 0, 84, 65
1, 118156, Note_off_c, 0, 51, 63
1, 118206, Note_off_c, 0, 60, 59
1, 118236, Note_off_c, 0, 56, 61
1, 118278, Note_on_c, 0, 48, 81
1, 118305, Note_on_c, 0, 87, 88
1, 118314, Control_c, 0, 64, 78
1, 118328, Control_c, 0, 64, 62
1, 118343, Control_c, 0, 64, 48
1, 118358, Control_c, 0, 64, 50
1, 118373, Control_c, 0, 64, 53
1, 118380, Note_on_c, 0, 96, 82
1, 118388, Control_c, 0, 64, 59
1, 118392, Note_off_c, 0, 87, 65
1, 118403, Control_c, 0, 64, 65
1, 118418, Control_c, 0, 64, 74
1, 118433, Control_c, 0, 64, 92
1, 118448, Control_c, 0, 64, 127
1, 118456, Note_on_c, 0, 87, 83
1, 118459, Note_off_c, 0, 96, 65
1, 118522, Note_on_c, 0, 96, 78
1, 118555, Note_off_c, 0, 87, 62
1, 118582, Note_on_c, 0, 99, 91
1, 118584, Note_on_c, 0, 51, 60
1, 118584, Note_on_c, 0, 60, 78
1, 118586, Note_off_c, 0, 48, 54
1, 118590, Note_on_c, 0, 57, 68
1, 118599, Note_on_c, 0, 54, 71
1, 118601, Note_off_c, 0, 96, 66
1, 118634, Note_off_c, 0, 99, 65
1, 118659, Note_off_c, 0, 60, 56
1, 118661, Note_off_c, 0, 51, 61
1, 118778, Note_on_c, 0, 49, 63
1, 118782, Note_off_c, 0, 57, 33
1, 118788, Note_on_c, 0, 85, 83
1, 118788, Control_c, 0, 64, 85
1, 118802, Control_c, 0, 64, 66
1, 118816, Note_off_c, 0, 54, 63
1, 118817, Control_c, 0, 64, 51
1, 118832, Control_c, 0, 64, 47
1, 118847, Control_c, 0, 64, 48
1, 118854, Note_on_c, 0, 94, 86
1, 118862, Note_off_c, 0, 85, 65
1, 118862, Control_c, 0, 64, 52
1, 118884, Control_c, 0, 64, 58
1, 118899, Control_c, 0, 64, 63
1, 118913, Control_c, 0, 64, 67
1, 118928, Control_c, 0, 64, 72
1, 118933, Note_off_c, 0, 94, 64
1, 118941, Note_on_c, 0, 85, 76
1, 118943, Control_c, 0, 64, 80
1, 118958, Control_c, 0, 64, 91
1, 118973, Control_c, 0, 64, 119
1, 118987, Control_c, 0, 64, 127
1, 119009, Note_on_c, 0, 94, 81
1, 119028, Note_off_c, 0, 85, 63
1, 119080, Note_on_c, 0, 58, 57
1, 119084, Note_on_c, 0, 97, 81
1, 119085, Note_on_c, 0, 53, 40
1, 119087, Note_on_c, 0, 61, 58
1, 119087, Note_off_c, 0, 49, 59
1, 119100, Note_off_c, 0, 94, 63
1, 119137, Note_off_c, 0, 97, 63
1, 119204, Note_off_c, 0, 61, 35
1, 119288, Note_off_c, 0, 58, 29
1, 119300, Control_c, 0, 64, 107
1, 119300, Note_on_c, 0, 51, 52
1, 119315, Control_c, 0, 64, 78
1, 119321, Note_on_c, 0, 82, 65
1, 119329, Control_c, 0, 64, 61
1, 119344, Control_c, 0, 64, 51
1, 119354, Note_off_c, 0, 53, 37
1, 119359, Control_c, 0, 64, 52
1, 119374, Control_c, 0, 64, 54
1, 119379, Note_off_c, 0, 82, 60
1, 119389, Control_c, 0, 64, 58
1, 119402, Note_on_c, 0, 91, 54
1, 119403, Control_c, 0, 64, 62
1, 119418, Control_c, 0, 64, 65
1, 119433, Control_c, 0, 64, 71
1, 119439, Note_off_c, 0, 91, 59
1, 119448, Control_c, 0, 64, 78
1, 119463, Control_c, 0, 64, 85
1, 119477, Control_c, 0, 64, 92
1, 119479, Note_on_c, 0, 82, 52
1, 119492, Control_c, 0, 64, 97
1, 119507, Control_c, 0, 64, 100
1, 119536, Control_c, 0, 64, 100
1, 119538, Note_off_c, 0, 82, 40
1, 119548, Note_on_c, 0, 91, 56
1, 119551, Control_c, 0, 64, 103
1, 119566, Control_c, 0, 64, 110
1, 119581, Control_c, 0, 64, 123
1, 119596, Control_c, 0, 64, 127
1, 119648, Note_on_c, 0, 58, 45
1, 119648, Control_c, 0, 64, 119
1, 119658, Note_on_c, 0, 94, 55
1, 119658, Note_off_c, 0, 91, 62
1, 119666, Note_off_c, 0, 51, 0
1, 119682, Note_off_c, 0, 58, 62
1, 119683, Poly_aftertouch_c, 0, 55, 127
1, 119691, Note_off_c, 0, 94, 65
1, 119703, Poly_aftertouch_c, 0, 51, 127
1, 119727, Poly_aftertouch_c, 0, 55, 0
1, 119737, Poly_aftertouch_c, 0, 51, 0
1, 119751, Control_c, 0, 64, 121
1, 119766, Control_c, 0, 64, 127
1, 119841, Control_c, 0, 64, 95
1, 119856, Control_c, 0, 64, 75
1, 119871, Control_c, 0, 64, 63
1, 119886, Control_c, 0, 64, 55
1, 119901, Control_c, 0, 64, 56
1, 119915, Control_c, 0, 64, 60
1, 119930, Control_c, 0, 64, 64
1, 119932, Note_on_c, 0, 72, 39
1, 119945, Control_c, 0, 64, 68
1, 119958, Note_on_c, 0, 40, 35
1, 119959, Control_c, 0, 64, 76
1, 119965, Poly_aftertouch_c, 0, 41, 127
1, 119974, Control_c, 0, 64, 88
1, 119986, Note_off_c, 0, 72, 44
1, 119989, Control_c, 0, 64, 110
1, 120004, Control_c, 0, 64, 127
1, 120008, Note_on_c, 0, 79, 55
1, 120028, Note_off_c, 0, 40, 59
1, 120045, Note_off_c, 0, 79, 66
1, 120048, Poly_aftertouch_c, 0, 41, 0
1, 120093, Note_on_c, 0, 72, 53
1, 120119, Note_off_c, 0, 72, 59
1, 120141, Note_on_c, 0, 79, 60
1, 120176, Note_off_c, 0, 79, 63
1, 120181, Note_on_c, 0, 55, 52
1, 120182, Note_on_c, 0, 60, 61
1, 120198, Note_on_c, 0, 84, 64
1, 120203, Note_on_c, 0, 52, 56
1, 120209, Note_off_c, 0, 55, 62
1, 120212, Note_off_c, 0, 60, 65
1, 120233, Note_off_c, 0, 52, 66
1, 120242, Note_off_c, 0, 84, 55
1, 120315, Control_c, 0, 64, 82
1, 120330, Control_c, 0, 64, 65
1, 120345, Control_c, 0, 64, 55
1, 120359, Control_c, 0, 64, 58
1, 120363, Note_on_c, 0, 72, 75
1, 120369, Note_on_c, 0, 40, 67
1, 120382, Control_c, 0, 64, 63
1, 120394, Note_on_c, 0, 38, 41
1, 120397, Control_c, 0, 64, 70
1, 120412, Control_c, 0, 64, 89
1, 120415, Note_off_c, 0, 40, 66
1, 120421, Note_off_c, 0, 72, 62
1, 120427, Control_c, 0, 64, 127
1, 120432, Note_off_c, 0, 38, 57
1, 120437, Note_on_c, 0, 79, 47
1, 120464, Note_off_c, 0, 79, 64
1, 120483, Note_on_c, 0, 72, 70
1, 120543, Note_on_c, 0, 79, 77
1, 120548, Note_off_c, 0, 72, 61
1, 120598, Note_on_c, 0, 59, 65
1, 120599, Note_on_c, 0, 52, 74
1, 120607, Note_off_c, 0, 79, 65
1, 120611, Note_on_c, 0, 84, 80
1, 120629, Note_off_c, 0, 59, 65
1, 120636, Note_off_c, 0, 84, 67
1, 120642, Note_off_c, 0, 52, 63
1, 120725, Control_c, 0, 64, 78
1, 120739, Control_c, 0, 64, 55
1, 120754, Control_c, 0, 64, 43
1, 120764, Note_on_c, 0, 40, 82
1, 120769, Control_c, 0, 64, 52
1, 120773, Note_on_c, 0, 79, 92
1, 120783, Control_c, 0, 64, 60
1, 120798, Control_c, 0, 64, 68
1, 120813, Control_c, 0, 64, 87
1, 120820, Note_off_c, 0, 40, 62
1, 120828, Control_c, 0, 64, 127
1, 120840, Note_off_c, 0, 79, 66
1, 120844, Note_on_c, 0, 84, 73
1, 120862, Note_on_c, 0, 83, 60
1, 120880, Note_off_c, 0, 83, 62
1, 120893, Note_off_c, 0, 84, 63
1, 120904, Note_on_c, 0, 79, 80
1, 120964, Note_on_c, 0, 84, 86
1, 120976, Note_off_c, 0, 79, 63
1, 121015, Note_on_c, 0, 52, 76
1, 121017, Note_on_c, 0, 60, 66
1, 121018, Note_off_c, 0, 84, 63
1, 121024, Note_on_c, 0, 91, 95
1, 121044, Note_off_c, 0, 60, 65
1, 121050, Note_off_c, 0, 52, 66
1, 121058, Poly_aftertouch_c, 0, 55, 127
1, 121068, Note_off_c, 0, 91, 67
1, 121089, Poly_aftertouch_c, 0, 55, 0
1, 121146, Control_c, 0, 64, 100
1, 121161, Control_c, 0, 64, 68
1, 121176, Control_c, 0, 64, 47
1, 121190, Control_c, 0, 64, 43
1, 121193, Note_on_c, 0, 40, 83
1, 121193, Note_on_c, 0, 84, 96
1, 121205, Control_c, 0, 64, 55
1, 121220, Control_c, 0, 64, 64
1, 121235, Control_c, 0, 64, 75
1, 121236, Note_off_c, 0, 40, 62
1, 121250, Control_c, 0, 64, 127
1, 121265, Note_on_c, 0, 91, 88
1, 121265, Note_off_c, 0, 84, 63
1, 121326, Note_off_c, 0, 91, 63
1, 121340, Note_on_c, 0, 84, 79
1, 121403, Note_off_c, 0, 84, 61
1, 121411, Note_on_c, 0, 91, 72
1, 121444, Note_off_c, 0, 91, 62
1, 121454, Note_on_c, 0, 60, 59
1, 121455, Note_on_c, 0, 52, 69
1, 121464, Note_on_c, 0, 96, 80
1, 121476, Note_off_c, 0, 60, 59
1, 121483, Note_off_c, 0, 52, 67
1, 121524, Poly_aftertouch_c, 0, 55, 0
1, 121562, Control_c, 0, 64, 77
1, 121569, Note_off_c, 0, 96, 49
1, 121577, Control_c, 0, 64, 56
1, 121592, Control_c, 0, 64, 42
1, 121606, Control_c, 0, 64, 47
1, 121621, Control_c, 0, 64, 57
1, 121636, Control_c, 0, 64, 65
1, 121640, Note_on_c, 0, 84, 71
1, 121651, Control_c, 0, 64, 73
1, 121654, Note_on_c, 0, 39, 55
1, 121666, Control_c, 0, 64, 91
1, 121680, Control_c, 0, 64, 102
1, 121686, Note_off_c, 0, 39, 63
1, 121695, Control_c, 0, 64, 94
1, 121696, Note_off_c, 0, 84, 59
1, 121710, Control_c, 0, 64, 81
1, 121719, Note_on_c, 0, 87, 67
1, 121724, Control_c, 0, 64, 69
1, 121739, Control_c, 0, 64, 62
1, 121754, Control_c, 0, 64, 54
1, 121757, Note_off_c, 0, 87, 61
1, 121769, Control_c, 0, 64, 51
1, 121784, Control_c, 0, 64, 48
1, 121798, Note_on_c, 0, 84, 57
1, 121798, Control_c, 0, 64, 42
1, 121813, Control_c, 0, 64, 36
1, 121828, Control_c, 0, 64, 32
1, 121835, Note_off_c, 0, 84, 64
1, 121843, Control_c, 0, 64, 29
1, 121858, Control_c, 0, 64, 26
1, 121862, Note_on_c, 0, 87, 53
1, 121880, Control_c, 0, 64, 26
1, 121891, Note_off_c, 0, 87, 62
1, 121900, Note_on_c, 0, 51, 45
1, 121910, Control_c, 0, 64, 24
1, 121912, Note_on_c, 0, 56, 53
1, 121913, Note_on_c, 0, 92, 60
1, 121915, Note_on_c, 0, 60, 45
1, 121925, Control_c, 0, 64, 23
1, 121939, Control_c, 0, 64, 23
1, 121954, Control_c, 0, 64, 22
1, 121964, Note_off_c, 0, 92, 50
1, 121983, Control_c, 0, 64, 21
1, 121986, Note_on_c, 0, 91, 56
1, 121998, Control_c, 0, 64, 19
1, 122010, Note_off_c, 0, 91, 58
1, 122013, Control_c, 0, 64, 16
1, 122057, Note_on_c, 0, 89, 65
1, 122087, Control_c, 0, 64, 15
1, 122087, Note_off_c, 0, 89, 66
1, 122124, Note_on_c, 0, 87, 68
1, 122192, Note_on_c, 0, 85, 63
1, 122192, Note_off_c, 0, 87, 62
1, 122233, Note_off_c, 0, 60, 62
1, 122233, Note_off_c, 0, 85, 64
1, 122258, Note_on_c, 0, 84, 59
1, 122287, Note_off_c, 0, 84, 68
1, 122323, Note_on_c, 0, 82, 64
1, 122393, Note_on_c, 0, 80, 66
1, 122421, Note_off_c, 0, 82, 59
1, 122455, Note_on_c, 0, 61, 51
1, 122460, Note_on_c, 0, 79, 62
1, 122463, Note_on_c, 0, 58, 50
1, 122464, Note_off_c, 0, 80, 62
1, 122501, Note_off_c, 0, 79, 64
1, 122530, Note_on_c, 0, 77, 62
1, 122566, Note_off_c, 0, 77, 63
1, 122583, Note_off_c, 0, 56, 57
1, 122593, Note_on_c, 0, 75, 62
1, 122672, Note_off_c, 0, 75, 61
1, 122673, Note_on_c, 0, 73, 60
1, 122713, Note_off_c, 0, 73, 64
1, 122745, Note_on_c, 0, 72, 56
1, 122775, Note_off_c, 0, 72, 66
1, 122809, Note_on_c, 0, 70, 59
1, 122878, Note_on_c, 0, 68, 57
1, 122886, Note_off_c, 0, 61, 55
1, 122894, Note_off_c, 0, 70, 54
1, 122929, Note_off_c, 0, 58, 61
1, 122946, Note_off_c, 0, 68, 55
1, 122955, Note_on_c, 0, 67, 53
1, 122970, Note_off_c, 0, 51, 61
1, 122990, Note_off_c, 0, 67, 64
1, 123023, Note_on_c, 0, 65, 51
1, 123058, Note_off_c, 0, 65, 59
1, 123087, Note_on_c, 0, 64, 60
1, 123088, Control_c, 0, 64, 16
1, 123103, Control_c, 0, 64, 17
1, 123118, Control_c, 0, 64, 18
1, 123128, Note_off_c, 0, 64, 61
1, 123132, Control_c, 0, 64, 19
1, 123147, Control_c, 0, 64, 20
1, 123162, Control_c, 0, 64, 23
1, 123173, Note_on_c, 0, 63, 49
1, 123176, Control_c, 0, 64, 25
1, 123191, Control_c, 0, 64, 27
1, 123206, Control_c, 0, 64, 29
1, 123211, Note_off_c, 0, 63, 65
1, 123221, Control_c, 0, 64, 31
1, 123236, Control_c, 0, 64, 33
1, 123250, Control_c, 0, 64, 37
1, 123265, Control_c, 0, 64, 40
1, 123280, Control_c, 0, 64, 44
1, 123295, Control_c, 0, 64, 48
1, 123310, Control_c, 0, 64, 50
1, 123324, Control_c, 0, 64, 52
1, 123339, Control_c, 0, 64, 56
1, 123354, Control_c, 0, 64, 58
1, 123376, Control_c, 0, 64, 61
1, 123386, Note_on_c, 0, 40, 46
1, 123391, Control_c, 0, 64, 63
1, 123398, Note_on_c, 0, 72, 54
1, 123406, Control_c, 0, 64, 65
1, 123421, Control_c, 0, 64, 70
1, 123432, Note_off_c, 0, 40, 60
1, 123436, Control_c, 0, 64, 79
1, 123443, Note_off_c, 0, 72, 60
1, 123450, Control_c, 0, 64, 91
1, 123465, Control_c, 0, 64, 111
1, 123475, Note_on_c, 0, 79, 56
1, 123480, Control_c, 0, 64, 127
1, 123512, Note_off_c, 0, 79, 65
1, 123551, Note_on_c, 0, 72, 64
1, 123592, Note_off_c, 0, 72, 60
1, 123598, Note_on_c, 0, 79, 60
1, 123640, Note_off_c, 0, 79, 60
1, 123648, Note_on_c, 0, 55, 41
1, 123648, Note_on_c, 0, 60, 56
1, 123652, Note_on_c, 0, 52, 61
1, 123661, Note_on_c, 0, 84, 68
1, 123670, Note_off_c, 0, 60, 62
1, 123678, Note_off_c, 0, 55, 53
1, 123697, Note_off_c, 0, 52, 63
1, 123776, Control_c, 0, 64, 103
1, 123781, Note_off_c, 0, 84, 48
1, 123791, Control_c, 0, 64, 71
1, 123806, Control_c, 0, 64, 47
1, 123815, Note_on_c, 0, 72, 78
1, 123820, Note_on_c, 0, 40, 82
1, 123822, Control_c, 0, 64, 43
1, 123837, Control_c, 0, 64, 55
1, 123852, Control_c, 0, 64, 65
1, 123867, Control_c, 0, 64, 77
1, 123871, Note_on_c, 0, 79, 77
1, 123875, Note_off_c, 0, 40, 62
1, 123875, Note_off_c, 0, 72, 64
1, 123881, Control_c, 0, 64, 127
1, 123924, Note_off_c, 0, 79, 64
1, 123940, Note_on_c, 0, 72, 80
1, 123999, Note_on_c, 0, 79, 83
1, 124007, Note_off_c, 0, 72, 62
1, 124032, Note_on_c, 0, 55, 38
1, 124053, Note_on_c, 0, 60, 79
1, 124058, Note_off_c, 0, 79, 65
1, 124060, Note_on_c, 0, 52, 76
1, 124060, Note_on_c, 0, 84, 90
1, 124076, Note_off_c, 0, 60, 70
1, 124079, Note_off_c, 0, 55, 63
1, 124099, Note_off_c, 0, 84, 65
1, 124108, Note_off_c, 0, 52, 66
1, 124185, Control_c, 0, 64, 94
1, 124199, Control_c, 0, 64, 66
1, 124214, Control_c, 0, 64, 44
1, 124223, Note_on_c, 0, 40, 91
1, 124226, Note_on_c, 0, 79, 90
1, 124229, Control_c, 0, 64, 42
1, 124244, Control_c, 0, 64, 53
1, 124253, Note_on_c, 0, 81, 46
1, 124254, Note_off_c, 0, 81, 127
1, 124259, Control_c, 0, 64, 63
1, 124273, Control_c, 0, 64, 78
1, 124282, Note_off_c, 0, 40, 63
1, 124288, Control_c, 0, 64, 127
1, 124297, Note_on_c, 0, 84, 92
1, 124300, Note_off_c, 0, 79, 66
1, 124356, Note_off_c, 0, 84, 64
1, 124365, Note_on_c, 0, 79, 83
1, 124432, Note_on_c, 0, 84, 92
1, 124438, Note_off_c, 0, 79, 65
1, 124481, Note_on_c, 0, 60, 78
1, 124484, Note_on_c, 0, 52, 81
1, 124488, Note_on_c, 0, 91, 100
1, 124492, Note_off_c, 0, 84, 65
1, 124502, Note_off_c, 0, 60, 71
1, 124528, Poly_aftertouch_c, 0, 55, 127
1, 124529, Note_off_c, 0, 52, 66
1, 124535, Note_off_c, 0, 91, 67
1, 124564, Poly_aftertouch_c, 0, 55, 0
1, 124599, Control_c, 0, 64, 94
1, 124614, Control_c, 0, 64, 62
1, 124630, Control_c, 0, 64, 0
1, 124647, Note_on_c, 0, 84, 92
1, 124648, Note_on_c, 0, 40, 87
1, 124660, Control_c, 0, 64, 33
1, 124675, Control_c, 0, 64, 60
1, 124690, Control_c, 0, 64, 72
1, 124691, Note_on_c, 0, 86, 27
1, 124704, Control_c, 0, 64, 107
1, 124705, Note_off_c, 0, 40, 62
1, 124709, Note_off_c, 0, 86, 46
1, 124714, Note_on_c, 0, 91, 87
1, 124719, Control_c, 0, 64, 127
1, 124723, Note_off_c, 0, 84, 65
1, 124776, Note_off_c, 0, 91, 63
1, 124800, Note_on_c, 0, 84, 77
1, 124856, Note_off_c, 0, 84, 59
1, 124880, Note_on_c, 0, 91, 77
1, 124909, Note_off_c, 0, 91, 64
1, 124922, Note_on_c, 0, 60, 63
1, 124927, Note_on_c, 0, 52, 65
1, 124937, Note_on_c, 0, 96, 77
1, 124946, Note_off_c, 0, 60, 64
1, 124959, Note_off_c, 0, 52, 66
1, 125022, Control_c, 0, 64, 117
1, 125037, Control_c, 0, 64, 75
1, 125052, Control_c, 0, 64, 53
1, 125067, Control_c, 0, 64, 0
1, 125096, Control_c, 0, 64, 35
1, 125111, Control_c, 0, 64, 57
1, 125126, Control_c, 0, 64, 65
1, 125129, Note_on_c, 0, 87, 65
1, 125130, Note_on_c, 0, 39, 59
1, 125140, Note_off_c, 0, 96, 63
1, 125140, Control_c, 0, 64, 72
1, 125155, Control_c, 0, 64, 81
1, 125163, Note_off_c, 0, 39, 67
1, 125167, Note_off_c, 0, 87, 60
1, 125170, Control_c, 0, 64, 88
1, 125200, Control_c, 0, 64, 86
1, 125208, Note_on_c, 0, 92, 74
1, 125214, Control_c, 0, 64, 85
1, 125229, Control_c, 0, 64, 84
1, 125244, Note_off_c, 0, 92, 61
1, 125244, Control_c, 0, 64, 83
1, 125259, Control_c, 0, 64, 79
1, 125274, Control_c, 0, 64, 74
1, 125280, Note_on_c, 0, 87, 63
1, 125289, Control_c, 0, 64, 68
1, 125304, Control_c, 0, 64, 63
1, 125319, Control_c, 0, 64, 59
1, 125319, Note_off_c, 0, 87, 58
1, 125334, Control_c, 0, 64, 57
1, 125348, Note_on_c, 0, 92, 68
1, 125348, Control_c, 0, 64, 55
1, 125363, Control_c, 0, 64, 52
1, 125378, Control_c, 0, 64, 48
1, 125385, Note_off_c, 0, 92, 61
1, 125393, Control_c, 0, 64, 41
1, 125399, Note_on_c, 0, 51, 52
1, 125408, Control_c, 0, 64, 34
1, 125408, Note_on_c, 0, 60, 53
1, 125410, Note_on_c, 0, 56, 54
1, 125416, Note_on_c, 0, 96, 68
1, 125423, Control_c, 0, 64, 25
1, 125438, Control_c, 0, 64, 15
1, 125453, Control_c, 0, 64, 0
1, 125485, Note_on_c, 0, 94, 69
1, 125501, Note_off_c, 0, 96, 59
1, 125556, Note_on_c, 0, 92, 75
1, 125574, Note_off_c, 0, 94, 58
1, 125633, Note_off_c, 0, 92, 65
1, 125634, Note_on_c, 0, 91, 57
1, 125673, Note_off_c, 0, 91, 64
1, 125688, Note_on_c, 0, 89, 72
1, 125730, Note_off_c, 0, 89, 64
1, 125760, Note_off_c, 0, 60, 61
1, 125761, Note_on_c, 0, 87, 70
1, 125833, Note_on_c, 0, 85, 67
1, 125835, Note_off_c, 0, 87, 64
1, 125873, Note_off_c, 0, 85, 64
1, 125903, Note_on_c, 0, 84, 60
1, 125932, Note_off_c, 0, 84, 66
1, 125965, Note_on_c, 0, 61, 48
1, 125966, Note_on_c, 0, 82, 63
1, 125970, Note_on_c, 0, 55, 42
1, 126034, Note_on_c, 0, 80, 68
1, 126060, Note_off_c, 0, 82, 58
1, 126100, Note_off_c, 0, 56, 35
1, 126111, Note_off_c, 0, 80, 62
1, 126112, Note_on_c, 0, 79, 66
1, 126149, Note_off_c, 0, 79, 63
1, 126180, Note_on_c, 0, 77, 65
1, 126218, Note_off_c, 0, 77, 61
1, 126249, Note_on_c, 0, 75, 66
1, 126308, Note_off_c, 0, 75, 62
1, 126321, Note_on_c, 0, 73, 67
1, 126362, Note_off_c, 0, 73, 65
1, 126402, Note_on_c, 0, 72, 63
1, 126433, Note_off_c, 0, 72, 64
1, 126475, Note_on_c, 0, 70, 62
1, 126538, Note_off_c, 0, 61, 59
1, 126545, Note_on_c, 0, 68, 55
1, 126545, Note_off_c, 0, 70, 61
1, 126558, Note_off_c, 0, 55, 62
1, 126586, Note_off_c, 0, 68, 64
1, 126595, Note_on_c, 0, 67, 65
1, 126601, Note_off_c, 0, 51, 63
1, 126628, Note_off_c, 0, 67, 64
1, 126666, Note_on_c, 0, 65, 60
1, 126683, Control_c, 0, 64, 24
1, 126698, Control_c, 0, 64, 38
1, 126711, Note_off_c, 0, 65, 63
1, 126713, Control_c, 0, 64, 45
1, 126728, Control_c, 0, 64, 50
1, 126729, Note_on_c, 0, 63, 58
1, 126742, Control_c, 0, 64, 54
1, 126757, Control_c, 0, 64, 58
1, 126761, Note_off_c, 0, 63, 65
1, 126772, Control_c, 0, 64, 61
1, 126787, Control_c, 0, 64, 65
1, 126801, Control_c, 0, 64, 69
1, 126816, Control_c, 0, 64, 75
1, 126831, Control_c, 0, 64, 85
1, 126846, Control_c, 0, 64, 101
1, 126861, Control_c, 0, 64, 127
1, 126905, Control_c, 0, 64, 114
1, 126919, Control_c, 0, 64, 86
1, 126934, Control_c, 0, 64, 70
1, 126949, Note_on_c, 0, 40, 43
1, 126949, Control_c, 0, 64, 64
1, 126954, Note_on_c, 0, 72, 55
1, 126964, Control_c, 0, 64, 65
1, 126979, Control_c, 0, 64, 71
1, 126994, Control_c, 0, 64, 80
1, 126995, Note_off_c, 0, 72, 62
1, 126999, Note_off_c, 0, 40, 56
1, 127009, Control_c, 0, 64, 95
1, 127024, Control_c, 0, 64, 127
1, 127033, Note_on_c, 0, 79, 60
1, 127073, Note_off_c, 0, 79, 63
1, 127104, Note_on_c, 0, 72, 63
1, 127167, Note_off_c, 0, 72, 60
1, 127174, Note_on_c, 0, 79, 67
1, 127211, Note_on_c, 0, 60, 57
1, 127212, Note_off_c, 0, 79, 61
1, 127218, Note_on_c, 0, 52, 56
1, 127221, Note_on_c, 0, 55, 29
1, 127232, Note_on_c, 0, 84, 71
1, 127238, Note_off_c, 0, 60, 65
1, 127257, Note_off_c, 0, 55, 53
1, 127262, Note_off_c, 0, 52, 63
1, 127355, Note_off_c, 0, 84, 56
1, 127358, Control_c, 0, 64, 81
1, 127373, Control_c, 0, 64, 64
1, 127385, Note_on_c, 0, 72, 80
1, 127387, Control_c, 0, 64, 53
1, 127390, Note_on_c, 0, 40, 80
1, 127402, Control_c, 0, 64, 59
1, 127417, Control_c, 0, 64, 66
1, 127432, Control_c, 0, 64, 80
1, 127439, Note_off_c, 0, 40, 60
1, 127447, Note_on_c, 0, 79, 75
1, 127447, Note_off_c, 0, 72, 63
1, 127447, Control_c, 0, 64, 127
1, 127499, Note_off_c, 0, 79, 63
1, 127511, Note_on_c, 0, 72, 78
1, 127571, Note_on_c, 0, 79, 81
1, 127581, Note_off_c, 0, 72, 62
1, 127602, Note_on_c, 0, 55, 36
1, 127626, Note_on_c, 0, 60, 80
1, 127630, Note_on_c, 0, 52, 78
1, 127631, Note_on_c, 0, 84, 89
1, 127631, Note_off_c, 0, 79, 65
1, 127649, Note_off_c, 0, 60, 70
1, 127652, Note_off_c, 0, 55, 63
1, 127669, Note_off_c, 0, 84, 66
1, 127680, Note_off_c, 0, 52, 67
1, 127728, Control_c, 0, 64, 91
1, 127742, Control_c, 0, 64, 67
1, 127757, Control_c, 0, 64, 54
1, 127781, Note_on_c, 0, 40, 91
1, 127783, Note_on_c, 0, 79, 90
1, 127787, Control_c, 0, 64, 61
1, 127797, Note_on_c, 0, 81, 68
1, 127802, Control_c, 0, 64, 70
1, 127815, Note_off_c, 0, 81, 62
1, 127818, Control_c, 0, 64, 127
1, 127835, Note_off_c, 0, 40, 63
1, 127854, Note_on_c, 0, 84, 88
1, 127856, Note_off_c, 0, 79, 65
1, 127919, Note_off_c, 0, 84, 62
1, 127930, Note_on_c, 0, 79, 85
1, 127988, Note_on_c, 0, 84, 84
1, 128002, Note_off_c, 0, 79, 62
1, 128020, Note_on_c, 0, 55, 45
1, 128041, Note_on_c, 0, 60, 79
1, 128045, Note_on_c, 0, 52, 80
1, 128048, Note_on_c, 0, 91, 94
1, 128053, Note_off_c, 0, 84, 64
1, 128062, Note_off_c, 0, 55, 63
1, 128064, Note_off_c, 0, 60, 69
1, 128085, Note_off_c, 0, 52, 64
1, 128098, Note_off_c, 0, 91, 66
1, 128151, Control_c, 0, 64, 106
1, 128165, Control_c, 0, 64, 68
1, 128180, Control_c, 0, 64, 32
1, 128195, Control_c, 0, 64, 29
1, 128210, Note_on_c, 0, 84, 93
1, 128210, Control_c, 0, 64, 48
1, 128217, Note_on_c, 0, 38, 83
1, 128223, Note_on_c, 0, 40, 81
1, 128225, Control_c, 0, 64, 63
1, 128240, Control_c, 0, 64, 79
1, 128255, Control_c, 0, 64, 127
1, 128263, Note_off_c, 0, 38, 62
1, 128273, Note_off_c, 0, 40, 62
1, 128288, Note_on_c, 0, 91, 85
1, 128292, Note_off_c, 0, 84, 62
1, 128344, Note_off_c, 0, 91, 64
1, 128356, Note_on_c, 0, 84, 72
1, 128428, Note_off_c, 0, 84, 61
1, 128434, Note_on_c, 0, 91, 81
1, 128491, Note_on_c, 0, 60, 59
1, 128492, Note_off_c, 0, 91, 64
1, 128495, Note_on_c, 0, 52, 68
1, 128497, Note_on_c, 0, 55, 42
1, 128505, Note_on_c, 0, 96, 75
1, 128511, Note_off_c, 0, 60, 63
1, 128525, Note_off_c, 0, 52, 66
1, 128528, Note_off_c, 0, 55, 53
1, 128565, Control_c, 0, 64, 92
1, 128580, Control_c, 0, 64, 71
1, 128595, Control_c, 0, 64, 61
1, 128619, Control_c, 0, 64, 59
1, 128633, Control_c, 0, 64, 60
1, 128636, Note_off_c, 0, 96, 61
1, 128648, Control_c, 0, 64, 62
1, 128663, Control_c, 0, 64, 65
1, 128678, Control_c, 0, 64, 66
1, 128693, Control_c, 0, 64, 64
1, 128698, Note_on_c, 0, 91, 65
1, 128708, Note_on_c, 0, 43, 49
1, 128708, Control_c, 0, 64, 62
1, 128723, Control_c, 0, 64, 59
1, 128738, Control_c, 0, 64, 56
1, 128750, Note_off_c, 0, 91, 60
1, 128751, Note_off_c, 0, 43, 63
1, 128752, Control_c, 0, 64, 51
1, 128767, Control_c, 0, 64, 47
1, 128769, Note_on_c, 0, 96, 65
1, 128782, Control_c, 0, 64, 44
1, 128796, Control_c, 0, 64, 43
1, 128805, Note_off_c, 0, 96, 62
1, 128811, Control_c, 0, 64, 42
1, 128826, Control_c, 0, 64, 38
1, 128841, Control_c, 0, 64, 33
1, 128846, Note_on_c, 0, 91, 57
1, 128856, Control_c, 0, 64, 30
1, 128870, Control_c, 0, 64, 28
1, 128885, Control_c, 0, 64, 25
1, 128895, Note_off_c, 0, 91, 58
1, 128900, Control_c, 0, 64, 25
1, 128907, Note_on_c, 0, 96, 62
1, 128915, Control_c, 0, 64, 24
1, 128945, Note_off_c, 0, 96, 64
1, 128970, Note_on_c, 0, 52, 50
1, 128970, Note_on_c, 0, 60, 57
1, 128975, Note_on_c, 0, 55, 42
1, 128975, Note_on_c, 0, 100, 63
1, 128988, Control_c, 0, 64, 24
1, 129048, Note_on_c, 0, 98, 62
1, 129055, Note_off_c, 0, 100, 60
1, 129119, Note_on_c, 0, 96, 64
1, 129126, Note_off_c, 0, 98, 61
1, 129186, Note_on_c, 0, 95, 66
1, 129186, Note_off_c, 0, 96, 64
1, 129224, Note_off_c, 0, 95, 64
1, 129246, Note_on_c, 0, 93, 70
1, 129280, Note_off_c, 0, 93, 64
1, 129305, Note_off_c, 0, 60, 59
1, 129313, Note_on_c, 0, 91, 68
1, 129388, Note_off_c, 0, 91, 63
1, 129393, Note_on_c, 0, 89, 64
1, 129426, Control_c, 0, 64, 24
1, 129429, Note_off_c, 0, 89, 62
1, 129453, Note_on_c, 0, 88, 62
1, 129456, Control_c, 0, 64, 25
1, 129481, Note_off_c, 0, 88, 68
1, 129501, Control_c, 0, 64, 25
1, 129510, Note_on_c, 0, 59, 44
1, 129513, Note_on_c, 0, 86, 72
1, 129515, Note_on_c, 0, 53, 41
1, 129516, Control_c, 0, 64, 26
1, 129531, Control_c, 0, 64, 26
1, 129546, Control_c, 0, 64, 27
1, 129584, Note_off_c, 0, 52, 52
1, 129587, Note_on_c, 0, 84, 59
1, 129590, Note_off_c, 0, 86, 55
1, 129590, Control_c, 0, 64, 27
1, 129632, Note_off_c, 0, 84, 62
1, 129648, Note_on_c, 0, 83, 53
1, 129680, Note_off_c, 0, 83, 66
1, 129697, Note_on_c, 0, 81, 61
1, 129708, Control_c, 0, 64, 28
1, 129725, Note_off_c, 0, 81, 67
1, 129738, Control_c, 0, 64, 28
1, 129754, Note_on_c, 0, 79, 68
1, 129767, Control_c, 0, 64, 29
1, 129805, Note_off_c, 0, 79, 63
1, 129817, Note_on_c, 0, 77, 69
1, 129826, Control_c, 0, 64, 29
1, 129853, Note_off_c, 0, 77, 63
1, 129858, Note_off_c, 0, 59, 37
1, 129880, Note_on_c, 0, 76, 64
1, 129909, Note_off_c, 0, 76, 67
1, 129936, Note_on_c, 0, 74, 60
1, 129947, Note_off_c, 0, 55, 62
1, 129968, Note_off_c, 0, 53, 54
1, 129990, Note_on_c, 0, 72, 65
1, 130004, Note_off_c, 0, 74, 59
1, 130019, Control_c, 0, 64, 30
1, 130035, Note_off_c, 0, 72, 64
1, 130048, Note_on_c, 0, 71, 69
1, 130049, Control_c, 0, 64, 30
1, 130064, Control_c, 0, 64, 33
1, 130079, Control_c, 0, 64, 37
1, 130090, Note_off_c, 0, 71, 63
1, 130093, Control_c, 0, 64, 40
1, 130108, Control_c, 0, 64, 43
1, 130123, Note_on_c, 0, 69, 68
1, 130130, Control_c, 0, 64, 44
1, 130145, Control_c, 0, 64, 48
1, 130160, Control_c, 0, 64, 54
1, 130175, Control_c, 0, 64, 59
1, 130188, Note_off_c, 0, 69, 60
1, 130189, Note_on_c, 0, 67, 74
1, 130190, Control_c, 0, 64, 64
1, 130204, Control_c, 0, 64, 69
1, 130216, Note_off_c, 0, 67, 69
1, 130220, Control_c, 0, 64, 80
1, 130235, Control_c, 0, 64, 127
1, 130377, Note_on_c, 0, 39, 99
1, 130380, Note_on_c, 0, 92, 99
1, 130427, Note_off_c, 0, 39, 64
1, 130431, Note_on_c, 0, 37, 26
1, 130454, Note_off_c, 0, 92, 65
1, 130455, Note_on_c, 0, 95, 82
1, 130478, Note_off_c, 0, 37, 49
1, 130512, Note_off_c, 0, 95, 64
1, 130524, Note_on_c, 0, 92, 87
1, 130591, Note_on_c, 0, 96, 84
1, 130604, Note_off_c, 0, 92, 64
1, 130652, Note_on_c, 0, 56, 104
1, 130654, Note_on_c, 0, 51, 82
1, 130654, Note_on_c, 0, 60, 98
1, 130659, Note_on_c, 0, 99, 92
1, 130672, Note_off_c, 0, 96, 63
1, 130694, Control_c, 0, 64, 116
1, 130708, Control_c, 0, 64, 89
1, 130723, Control_c, 0, 64, 77
1, 130737, Note_on_c, 0, 97, 87
1, 130738, Control_c, 0, 64, 72
1, 130753, Control_c, 0, 64, 71
1, 130774, Note_off_c, 0, 99, 64
1, 130798, Control_c, 0, 64, 70
1, 130807, Note_on_c, 0, 96, 80
1, 130807, Note_off_c, 0, 97, 64
1, 130813, Control_c, 0, 64, 67
1, 130827, Control_c, 0, 64, 65
1, 130842, Control_c, 0, 64, 64
1, 130864, Control_c, 0, 64, 63
1, 130866, Note_off_c, 0, 96, 66
1, 130879, Control_c, 0, 64, 63
1, 130884, Note_on_c, 0, 94, 88
1, 130894, Control_c, 0, 64, 62
1, 130909, Control_c, 0, 64, 62
1, 130923, Control_c, 0, 64, 61
1, 130938, Control_c, 0, 64, 61
1, 130949, Note_on_c, 0, 92, 85
1, 131006, Note_off_c, 0, 94, 60
1, 131012, Control_c, 0, 64, 60
1, 131018, Note_on_c, 0, 91, 80
1, 131043, Control_c, 0, 64, 60
1, 131052, Note_off_c, 0, 92, 65
1, 131058, Control_c, 0, 64, 59
1, 131080, Note_off_c, 0, 91, 66
1, 131081, Note_off_c, 0, 60, 61
1, 131082, Note_on_c, 0, 89, 77
1, 131087, Control_c, 0, 64, 59
1, 131102, Control_c, 0, 64, 58
1, 131117, Control_c, 0, 64, 57
1, 131132, Control_c, 0, 64, 56
1, 131134, Note_off_c, 0, 89, 62
1, 131146, Note_off_c, 0, 56, 62
1, 131146, Control_c, 0, 64, 54
1, 131149, Note_on_c, 0, 87, 84
1, 131161, Control_c, 0, 64, 51
1, 131176, Control_c, 0, 64, 49
1, 131191, Control_c, 0, 64, 48
1, 131203, Note_on_c, 0, 61, 99
1, 131204, Note_on_c, 0, 55, 80
1, 131206, Control_c, 0, 64, 47
1, 131209, Note_on_c, 0, 58, 88
1, 131212, Note_on_c, 0, 85, 83
1, 131221, Control_c, 0, 64, 46
1, 131236, Control_c, 0, 64, 44
1, 131237, Note_off_c, 0, 87, 63
1, 131251, Control_c, 0, 64, 43
1, 131281, Note_off_c, 0, 85, 66
1, 131287, Note_on_c, 0, 84, 74
1, 131310, Control_c, 0, 64, 43
1, 131318, Note_off_c, 0, 84, 63
1, 131339, Control_c, 0, 64, 42
1, 131348, Note_on_c, 0, 82, 83
1, 131354, Control_c, 0, 64, 42
1, 131403, Note_on_c, 0, 80, 75
1, 131444, Note_off_c, 0, 82, 64
1, 131453, Note_on_c, 0, 79, 81
1, 131474, Note_off_c, 0, 80, 64
1, 131502, Control_c, 0, 64, 43
1, 131506, Note_off_c, 0, 79, 65
1, 131508, Note_on_c, 0, 77, 80
1, 131517, Control_c, 0, 64, 45
1, 131531, Control_c, 0, 64, 47
1, 131541, Note_off_c, 0, 77, 64
1, 131546, Control_c, 0, 64, 48
1, 131561, Note_on_c, 0, 75, 81
1, 131561, Control_c, 0, 64, 49
1, 131576, Control_c, 0, 64, 52
1, 131591, Control_c, 0, 64, 55
1, 131613, Control_c, 0, 64, 58
1, 131624, Note_on_c, 0, 73, 84
1, 131628, Control_c, 0, 64, 61
1, 131643, Control_c, 0, 64, 63
1, 131645, Note_off_c, 0, 75, 63
1, 131658, Control_c, 0, 64, 64
1, 131672, Control_c, 0, 64, 67
1, 131679, Note_off_c, 0, 73, 66
1, 131684, Note_on_c, 0, 72, 79
1, 131687, Control_c, 0, 64, 72
1, 131702, Control_c, 0, 64, 81
1, 131718, Control_c, 0, 64, 94
1, 131720, Note_off_c, 0, 72, 63
1, 131733, Note_on_c, 0, 70, 85
1, 131733, Control_c, 0, 64, 127
1, 131750, Note_off_c, 0, 61, 58
1, 131785, Note_on_c, 0, 68, 83
1, 131810, Note_off_c, 0, 58, 60
1, 131826, Note_off_c, 0, 55, 59
1, 131834, Note_on_c, 0, 67, 82
1, 131835, Note_off_c, 0, 70, 61
1, 131861, Note_off_c, 0, 68, 61
1, 131874, Note_off_c, 0, 51, 62
1, 131883, Note_off_c, 0, 67, 64
1, 131884, Note_on_c, 0, 65, 82
1, 131936, Note_off_c, 0, 65, 60
1, 131939, Note_on_c, 0, 63, 83
1, 131985, Note_on_c, 0, 61, 85
1, 132002, Note_off_c, 0, 63, 63
1, 132032, Note_off_c, 0, 61, 64
1, 132035, Note_on_c, 0, 60, 79
1, 132059, Control_c, 0, 64, 107
1, 132074, Control_c, 0, 64, 71
1, 132085, Note_on_c, 0, 58, 89
1, 132088, Control_c, 0, 64, 46
1, 132089, Note_off_c, 0, 60, 59
1, 132103, Control_c, 0, 64, 11
1, 132118, Control_c, 0, 64, 38
1, 132133, Control_c, 0, 64, 58
1, 132134, Note_on_c, 0, 44, 102
1, 132142, Note_on_c, 0, 57, 98
1, 132145, Note_off_c, 0, 58, 61
1, 132148, Control_c, 0, 64, 69
1, 132163, Control_c, 0, 64, 92
1, 132175, Note_on_c, 0, 59, 10
1, 132178, Control_c, 0, 64, 127
1, 132178, Note_off_c, 0, 57, 67
1, 132182, Note_off_c, 0, 44, 64
1, 132209, Note_off_c, 0, 59, 45
1, 132328, Note_on_c, 0, 68, 93
1, 132330, Note_on_c, 0, 56, 85
1, 132341, Control_c, 0, 64, 113
1, 132348, Note_off_c, 0, 68, 69
1, 132363, Control_c, 0, 64, 90
1, 132377, Note_on_c, 0, 67, 50
1, 132377, Control_c, 0, 64, 76
1, 132379, Note_on_c, 0, 69, 60
1, 132392, Control_c, 0, 64, 68
1, 132404, Note_off_c, 0, 67, 58
1, 132407, Control_c, 0, 64, 62
1, 132408, Note_on_c, 0, 72, 70
1, 132409, Note_off_c, 0, 69, 54
1, 132422, Control_c, 0, 64, 51
1, 132423, Note_on_c, 0, 60, 68
1, 132423, Note_off_c, 0, 56, 64
1, 132434, Note_on_c, 0, 71, 32
1, 132437, Control_c, 0, 64, 39
1, 132452, Control_c, 0, 64, 24
1, 132460, Note_off_c, 0, 71, 34
1, 132466, Control_c, 0, 64, 0
1, 132477, Note_on_c, 0, 75, 85
1, 132484, Note_off_c, 0, 72, 65
1, 132486, Note_off_c, 0, 60, 64
1, 132494, Note_on_c, 0, 63, 82
1, 132550, Note_on_c, 0, 73, 86
1, 132554, Note_off_c, 0, 63, 61
1, 132580, Note_on_c, 0, 61, 74
1, 132589, Note_off_c, 0, 75, 61
1, 132616, Note_on_c, 0, 72, 84
1, 132618, Note_off_c, 0, 61, 60
1, 132619, Note_off_c, 0, 73, 65
1, 132646, Note_on_c, 0, 60, 72
1, 132693, Note_on_c, 0, 70, 87
1, 132696, Note_off_c, 0, 72, 40
1, 132702, Note_off_c, 0, 60, 60
1, 132719, Note_on_c, 0, 58, 78
1, 132765, Note_on_c, 0, 68, 86
1, 132788, Note_on_c, 0, 56, 77
1, 132794, Note_off_c, 0, 58, 64
1, 132824, Note_off_c, 0, 70, 52
1, 132836, Note_on_c, 0, 67, 83
1, 132838, Note_off_c, 0, 56, 61
1, 132857, Note_on_c, 0, 55, 79
1, 132870, Note_off_c, 0, 68, 60
1, 132902, Note_off_c, 0, 67, 63
1, 132911, Note_on_c, 0, 65, 82
1, 132919, Note_off_c, 0, 55, 62
1, 132923, Note_on_c, 0, 53, 77
1, 132972, Note_off_c, 0, 65, 58
1, 132983, Note_on_c, 0, 51, 78
1, 132989, Note_on_c, 0, 63, 86
1, 132997, Note_off_c, 0, 53, 63
1, 133062, Note_on_c, 0, 49, 71
1, 133068, Note_on_c, 0, 61, 85
1, 133078, Note_off_c, 0, 51, 63
1, 133094, Note_off_c, 0, 63, 61
1, 133120, Note_off_c, 0, 49, 62
1, 133146, Note_on_c, 0, 60, 81
1, 133147, Note_on_c, 0, 48, 81
1, 133156, Note_off_c, 0, 61, 60
1, 133198, Note_off_c, 0, 60, 62
1, 133212, Note_off_c, 0, 48, 59
1, 133216, Note_on_c, 0, 46, 80
1, 133221, Note_on_c, 0, 58, 90
1, 133295, Note_on_c, 0, 44, 77
1, 133295, Note_on_c, 0, 56, 85
1, 133300, Note_off_c, 0, 46, 64
1, 133331, Note_off_c, 0, 58, 59
1, 133355, Note_off_c, 0, 44, 64
1, 133358, Note_on_c, 0, 55, 85
1, 133374, Note_on_c, 0, 43, 79
1, 133382, Note_off_c, 0, 56, 63
1, 133420, Note_off_c, 0, 55, 64
1, 133426, Note_on_c, 0, 53, 81
1, 133440, Note_off_c, 0, 43, 61
1, 133447, Note_on_c, 0, 41, 80
1, 133477, Note_off_c, 0, 53, 65
1, 133499, Note_on_c, 0, 51, 90
1, 133522, Note_on_c, 0, 39, 77
1, 133525, Note_off_c, 0, 41, 64
1, 133572, Note_off_c, 0, 51, 65
1, 133574, Note_on_c, 0, 53, 84
1, 133582, Note_off_c, 0, 39, 64
1, 133587, Note_on_c, 0, 41, 77
1, 133653, Note_on_c, 0, 51, 88
1, 133653, Note_off_c, 0, 41, 63
1, 133662, Note_on_c, 0, 39, 79
1, 133692, Note_off_c, 0, 53, 63
1, 133725, Note_on_c, 0, 49, 85
1, 133731, Note_on_c, 0, 37, 78
1, 133734, Note_off_c, 0, 39, 63
1, 133743, Note_off_c, 0, 51, 63
1, 133773, Note_off_c, 0, 37, 61
1, 133796, Note_on_c, 0, 48, 81
1, 133796, Note_off_c, 0, 49, 62
1, 133806, Note_on_c, 0, 36, 83
1, 133847, Note_off_c, 0, 48, 65
1, 133871, Note_on_c, 0, 46, 86
1, 133889, Note_on_c, 0, 34, 81
1, 133895, Note_off_c, 0, 36, 61
1, 133949, Note_on_c, 0, 44, 85
1, 133951, Note_off_c, 0, 46, 63
1, 133964, Note_on_c, 0, 32, 80
1, 133968, Note_off_c, 0, 34, 62
1, 133974, Note_on_c, 0, 45, 70
1, 134019, Note_off_c, 0, 32, 62
1, 134022, Note_on_c, 0, 48, 81
1, 134023, Note_off_c, 0, 44, 63
1, 134023, Note_off_c, 0, 45, 62
1, 134035, Note_on_c, 0, 36, 56
1, 134049, Note_on_c, 0, 35, 45
1, 134071, Note_off_c, 0, 36, 63
1, 134081, Note_on_c, 0, 32, 68
1, 134083, Note_off_c, 0, 35, 50
1, 134086, Note_off_c, 0, 48, 64
1, 134100, Note_on_c, 0, 44, 80
1, 134145, Note_off_c, 0, 32, 61
1, 134148, Note_on_c, 0, 36, 70
1, 134162, Note_on_c, 0, 48, 78
1, 134172, Note_off_c, 0, 44, 63
1, 134238, Note_on_c, 0, 39, 89
1, 134238, Note_on_c, 0, 51, 92
1, 134246, Note_off_c, 0, 36, 60
1, 134248, Note_off_c, 0, 48, 62
1, 134273, Note_off_c, 0, 39, 64
1, 134286, Note_off_c, 0, 51, 67
1, 134397, Note_on_c, 0, 32, 75
1, 134400, Note_on_c, 0, 44, 83
1, 134467, Note_off_c, 0, 32, 63
1, 134470, Note_on_c, 0, 36, 71
1, 134477, Note_off_c, 0, 44, 63
1, 134479, Note_on_c, 0, 48, 76
1, 134529, Note_off_c, 0, 36, 60
1, 134533, Note_off_c, 0, 48, 63
1, 134543, Note_on_c, 0, 32, 66
1, 134549, Note_on_c, 0, 44, 79
1, 134610, Note_on_c, 0, 36, 70
1, 134613, Note_off_c, 0, 32, 61
1, 134628, Note_on_c, 0, 48, 73
1, 134632, Note_off_c, 0, 44, 64
1, 134696, Note_on_c, 0, 51, 95
1, 134697, Note_off_c, 0, 36, 62
1, 134697, Note_on_c, 0, 39, 88
1, 134709, Note_off_c, 0, 48, 64
1, 134741, Note_off_c, 0, 39, 62
1, 134754, Note_off_c, 0, 51, 65
1, 134857, Note_on_c, 0, 32, 74
1, 134865, Note_on_c, 0, 44, 83
1, 134925, Note_off_c, 0, 32, 62
1, 134930, Note_on_c, 0, 36, 68
1, 134938, Note_off_c, 0, 44, 63
1, 134939, Note_on_c, 0, 48, 72
1, 134983, Note_off_c, 0, 36, 60
1, 134998, Note_off_c, 0, 48, 64
1, 135000, Note_on_c, 0, 32, 66
1, 135008, Note_on_c, 0, 44, 76
1, 135058, Note_on_c, 0, 36, 73
1, 135067, Note_off_c, 0, 32, 61
1, 135081, Note_on_c, 0, 48, 71
1, 135090, Note_off_c, 0, 44, 63
1, 135141, Note_off_c, 0, 36, 61
1, 135145, Note_on_c, 0, 39, 89
1, 135147, Note_on_c, 0, 51, 90
1, 135168, Note_off_c, 0, 48, 64
1, 135185, Note_off_c, 0, 39, 60
1, 135202, Note_off_c, 0, 51, 66
1, 135306, Note_on_c, 0, 32, 74
1, 135308, Note_on_c, 0, 44, 81
1, 135387, Note_on_c, 0, 48, 76
1, 135387, Note_off_c, 0, 32, 63
1, 135394, Note_off_c, 0, 44, 64
1, 135398, Note_on_c, 0, 36, 65
1, 135448, Note_off_c, 0, 48, 63
1, 135452, Note_off_c, 0, 36, 58
1, 135459, Note_on_c, 0, 44, 76
1, 135468, Note_on_c, 0, 32, 65
1, 135505, Note_on_c, 0, 36, 53
1, 135522, Note_off_c, 0, 32, 59
1, 135531, Note_on_c, 0, 48, 74
1, 135544, Note_off_c, 0, 44, 63
1, 135594, Note_on_c, 0, 51, 88
1, 135600, Note_off_c, 0, 36, 62
1, 135605, Note_on_c, 0, 39, 84
1, 135611, Note_off_c, 0, 48, 62
1, 135664, Note_off_c, 0, 39, 59
1, 135692, Note_off_c, 0, 51, 57
1, 135779, Note_on_c, 0, 32, 95
1, 135781, Note_on_c, 0, 44, 82
1, 135820, Note_on_c, 0, 30, 39
1, 135854, Note_on_c, 0, 48, 75
1, 135862, Note_off_c, 0, 44, 63
1, 135863, Note_off_c, 0, 30, 45
1, 135918, Note_off_c, 0, 48, 63
1, 135928, Note_on_c, 0, 44, 72
1, 136003, Note_on_c, 0, 48, 73
1, 136013, Note_off_c, 0, 44, 63
1, 136071, Note_on_c, 0, 51, 89
1, 136083, Note_off_c, 0, 48, 64
1, 136133, Note_off_c, 0, 51, 65
1, 136263, Note_on_c, 0, 48, 82
1, 136340, Note_on_c, 0, 51, 80
1, 136345, Note_off_c, 0, 48, 64
1, 136402, Note_off_c, 0, 51, 63
1, 136414, Note_on_c, 0, 48, 73
1, 136485, Note_on_c, 0, 51, 83
1, 136497, Note_off_c, 0, 48, 63
1, 136550, Note_on_c, 0, 56, 83
1, 136558, Note_off_c, 0, 51, 64
1, 136610, Note_off_c, 0, 56, 66
1, 136626, Note_off_c, 0, 32, 63
1, 136716, Note_on_c, 0, 51, 78
1, 136780, Note_off_c, 0, 51, 63
1, 136783, Note_on_c, 0, 56, 77
1, 136855, Note_off_c, 0, 56, 64
1, 136870, Note_on_c, 0, 51, 79
1, 136930, Note_on_c, 0, 56, 74
1, 136938, Note_off_c, 0, 51, 64
1, 137004, Note_off_c, 0, 56, 65
1, 137006, Note_on_c, 0, 60, 68
1, 137040, Note_on_c, 0, 59, 28
1, 137042, Note_off_c, 0, 59, 45
1, 137052, Note_off_c, 0, 60, 65
1, 137182, Note_on_c, 0, 56, 63
1, 137224, Note_off_c, 0, 56, 62
1, 137268, Note_on_c, 0, 60, 49
1, 137299, Note_off_c, 0, 60, 63
1, 137338, Note_on_c, 0, 56, 61
1, 137386, Note_off_c, 0, 56, 58
1, 137391, Note_on_c, 0, 60, 57
1, 137457, Note_off_c, 0, 60, 62
1, 137465, Note_on_c, 0, 63, 53
1, 137513, Note_off_c, 0, 63, 57
1, 137633, Note_on_c, 0, 56, 55
1, 137678, Note_off_c, 0, 56, 64
1, 137704, Note_on_c, 0, 60, 59
1, 137746, Note_off_c, 0, 60, 63
1, 137783, Note_on_c, 0, 56, 61
1, 137824, Note_off_c, 0, 56, 66
1, 137869, Note_on_c, 0, 60, 48
1, 137893, Note_off_c, 0, 60, 62
1, 137930, Note_on_c, 0, 63, 56
1, 137993, Note_on_c, 0, 61, 61
1, 138002, Note_off_c, 0, 63, 58
1, 138032, Note_off_c, 0, 61, 63
1, 138067, Note_on_c, 0, 60, 58
1, 138101, Note_off_c, 0, 60, 62
1, 138127, Note_on_c, 0, 58, 67
1, 138202, Note_on_c, 0, 56, 65
1, 138221, Note_off_c, 0, 58, 59
1, 138270, Note_on_c, 0, 55, 57
1, 138271, Note_off_c, 0, 56, 63
1, 138312, Note_off_c, 0, 55, 65
1, 138337, Note_on_c, 0, 53, 64
1, 138383, Note_off_c, 0, 53, 66
1, 138408, Note_on_c, 0, 51, 68
1, 138477, Note_on_c, 0, 49, 62
1, 138478, Note_off_c, 0, 51, 64
1, 138527, Note_off_c, 0, 49, 62
1, 138536, Note_on_c, 0, 48, 64
1, 138576, Note_off_c, 0, 48, 63
1, 138605, Note_on_c, 0, 46, 62
1, 138669, Note_on_c, 0, 44, 63
1, 138703, Note_off_c, 0, 46, 58
1, 138725, Note_off_c, 0, 44, 61
1, 138742, Note_on_c, 0, 43, 64
1, 138807, Note_off_c, 0, 43, 60
1, 138816, Note_on_c, 0, 44, 60
1, 138877, Note_on_c, 0, 46, 62
1, 138881, Note_off_c, 0, 44, 62
1, 138905, Note_off_c, 0, 46, 66
1, 138948, Note_on_c, 0, 48, 62
1, 139008, Note_off_c, 0, 48, 61
1, 139016, Note_on_c, 0, 49, 62
1, 139072, Note_off_c, 0, 49, 63
1, 139080, Note_on_c, 0, 51, 70
1, 139122, Note_off_c, 0, 51, 68
1, 139157, Note_on_c, 0, 53, 73
1, 139223, Note_off_c, 0, 53, 58
1, 139231, Note_on_c, 0, 55, 72
1, 139297, Note_on_c, 0, 56, 71
1, 139299, Note_off_c, 0, 55, 64
1, 139353, Note_off_c, 0, 56, 65
1, 139370, Note_on_c, 0, 58, 68
1, 139397, Note_off_c, 0, 58, 66
1, 139427, Control_c, 0, 64, 15
1, 139441, Note_on_c, 0, 60, 70
1, 139442, Control_c, 0, 64, 27
1, 139457, Control_c, 0, 64, 39
1, 139471, Control_c, 0, 64, 47
1, 139486, Control_c, 0, 64, 52
1, 139499, Note_off_c, 0, 60, 58
1, 139501, Control_c, 0, 64, 55
1, 139503, Note_on_c, 0, 61, 71
1, 139516, Control_c, 0, 64, 58
1, 139531, Control_c, 0, 64, 60
1, 139545, Control_c, 0, 64, 62
1, 139560, Control_c, 0, 64, 63
1, 139572, Note_on_c, 0, 63, 65
1, 139575, Control_c, 0, 64, 64
1, 139587, Note_off_c, 0, 61, 60
1, 139590, Control_c, 0, 64, 64
1, 139605, Control_c, 0, 64, 65
1, 139632, Note_on_c, 0, 64, 69
1, 139642, Note_off_c, 0, 63, 62
1, 139664, Control_c, 0, 64, 64
1, 139693, Control_c, 0, 64, 64
1, 139723, Control_c, 0, 64, 63
1, 139731, Note_off_c, 0, 64, 0
1, 139738, Control_c, 0, 64, 63
1, 139742, Note_on_c, 0, 61, 55
1, 139752, Note_on_c, 0, 58, 58
1, 139752, Control_c, 0, 64, 62
1, 139767, Control_c, 0, 64, 62
1, 139768, Poly_aftertouch_c, 0, 64, 127
1, 139782, Control_c, 0, 64, 60
1, 139797, Note_on_c, 0, 64, 2
1, 139798, Control_c, 0, 64, 56
1, 139813, Control_c, 0, 64, 53
1, 139828, Control_c, 0, 64, 50
1, 139850, Control_c, 0, 64, 49
1, 139865, Control_c, 0, 64, 48
1, 139880, Control_c, 0, 64, 47
1, 139895, Control_c, 0, 64, 45
1, 139909, Control_c, 0, 64, 43
1, 139924, Control_c, 0, 64, 41
1, 139939, Control_c, 0, 64, 39
1, 139954, Control_c, 0, 64, 38
1, 139969, Control_c, 0, 64, 37
1, 140013, Control_c, 0, 64, 36
1, 140028, Control_c, 0, 64, 34
1, 140043, Control_c, 0, 64, 34
1, 140057, Control_c, 0, 64, 32
1, 140072, Control_c, 0, 64, 30
1, 140161, Control_c, 0, 64, 30
1, 140190, Control_c, 0, 64, 29
1, 140205, Control_c, 0, 64, 29
1, 140220, Control_c, 0, 64, 28
1, 140242, Note_on_c, 0, 43, 44
1, 140250, Control_c, 0, 64, 28
1, 140265, Control_c, 0, 64, 27
1, 140283, Note_off_c, 0, 43, 63
1, 140295, Control_c, 0, 64, 27
1, 140309, Control_c, 0, 64, 26
1, 140321, Note_on_c, 0, 46, 49
1, 140324, Control_c, 0, 64, 26
1, 140361, Note_off_c, 0, 46, 64
1, 140383, Control_c, 0, 64, 25
1, 140387, Note_on_c, 0, 43, 41
1, 140438, Note_off_c, 0, 43, 55
1, 140467, Note_on_c, 0, 46, 38
1, 140500, Note_off_c, 0, 46, 56
1, 140521, Note_on_c, 0, 49, 48
1, 140564, Note_off_c, 0, 49, 62
1, 140707, Note_on_c, 0, 43, 36
1, 140752, Note_off_c, 0, 43, 62
1, 140777, Note_on_c, 0, 46, 55
1, 140819, Note_off_c, 0, 46, 63
1, 140883, Note_on_c, 0, 43, 16
1, 140910, Control_c, 0, 64, 26
1, 140927, Note_on_c, 0, 46, 42
1, 140932, Note_off_c, 0, 43, 49
1, 140967, Note_off_c, 0, 46, 59
1, 140984, Control_c, 0, 64, 26
1, 140993, Note_on_c, 0, 49, 40
1, 141032, Note_off_c, 0, 49, 60
1, 141162, Note_on_c, 0, 43, 38
1, 141191, Control_c, 0, 64, 27
1, 141203, Note_off_c, 0, 43, 62
1, 141206, Control_c, 0, 64, 28
1, 141237, Note_on_c, 0, 46, 50
1, 141276, Note_off_c, 0, 46, 64
1, 141319, Note_on_c, 0, 43, 30
1, 141339, Control_c, 0, 64, 28
1, 141364, Note_off_c, 0, 43, 49
1, 141389, Note_on_c, 0, 46, 47
1, 141407, Control_c, 0, 64, 29
1, 141422, Control_c, 0, 64, 29
1, 141463, Note_off_c, 0, 46, 55
1, 141501, Note_on_c, 0, 49, 34
1, 141651, Note_off_c, 0, 49, 29
1, 141708, Note_off_c, 0, 64, 43
1, 141717, Note_off_c, 0, 58, 38
1, 141717, Note_off_c, 0, 61, 36
1, 141881, Control_c, 0, 64, 29
1, 141910, Control_c, 0, 64, 28
1, 141970, Control_c, 0, 64, 28
1, 142110, Control_c, 0, 64, 27
1, 142276, Note_on_c, 0, 68, 22
1, 142308, Note_off_c, 0, 68, 44
1, 142331, Note_on_c, 0, 72, 48
1, 142368, Note_off_c, 0, 72, 65
1, 142408, Note_on_c, 0, 68, 48
1, 142443, Note_off_c, 0, 68, 59
1, 142464, Note_on_c, 0, 72, 51
1, 142498, Note_off_c, 0, 72, 65
1, 142521, Note_on_c, 0, 75, 51
1, 142593, Note_off_c, 0, 75, 54
1, 142593, Note_on_c, 0, 73, 58
1, 142628, Note_off_c, 0, 73, 66
1, 142664, Note_on_c, 0, 72, 60
1, 142693, Note_off_c, 0, 72, 66
1, 142731, Note_on_c, 0, 70, 64
1, 142799, Note_on_c, 0, 68, 57
1, 142811, Note_off_c, 0, 70, 60
1, 142854, Note_off_c, 0, 68, 60
1, 142861, Note_on_c, 0, 67, 60
1, 142896, Note_off_c, 0, 67, 64
1, 142939, Note_on_c, 0, 65, 59
1, 142978, Note_off_c, 0, 65, 64
1, 143007, Note_on_c, 0, 63, 60
1, 143076, Note_off_c, 0, 63, 61
1, 143080, Note_on_c, 0, 61, 57
1, 143118, Note_off_c, 0, 61, 65
1, 143143, Note_on_c, 0, 60, 62
1, 143184, Note_off_c, 0, 60, 60
1, 143207, Note_on_c, 0, 58, 61
1, 143216, Control_c, 0, 64, 27
1, 143246, Control_c, 0, 64, 26
1, 143261, Control_c, 0, 64, 25
1, 143275, Control_c, 0, 64, 23
1, 143284, Note_on_c, 0, 56, 58
1, 143285, Note_off_c, 0, 58, 61
1, 143290, Control_c, 0, 64, 17
1, 143305, Control_c, 0, 64, 9
1, 143319, Control_c, 0, 64, 0
1, 143323, Note_off_c, 0, 56, 66
1, 143342, Note_on_c, 0, 55, 62
1, 143389, Note_off_c, 0, 55, 61
1, 143404, Note_on_c, 0, 56, 64
1, 143450, Note_off_c, 0, 56, 63
1, 143469, Note_on_c, 0, 58, 62
1, 143496, Note_off_c, 0, 58, 63
1, 143532, Note_on_c, 0, 60, 63
1, 143577, Note_off_c, 0, 60, 61
1, 143598, Note_on_c, 0, 61, 65
1, 143650, Note_off_c, 0, 61, 61
1, 143667, Note_on_c, 0, 63, 65
1, 143696, Note_off_c, 0, 63, 66
1, 143732, Note_on_c, 0, 65, 67
1, 143782, Note_off_c, 0, 65, 52
1, 143806, Note_on_c, 0, 67, 66
1, 143863, Note_off_c, 0, 67, 61
1, 143869, Note_on_c, 0, 68, 67
1, 143917, Note_off_c, 0, 68, 62
1, 143934, Note_on_c, 0, 70, 65
1, 143961, Note_off_c, 0, 70, 67
1, 143998, Note_on_c, 0, 72, 69
1, 144051, Note_off_c, 0, 72, 49
1, 144069, Note_on_c, 0, 73, 68
1, 144138, Note_on_c, 0, 75, 61
1, 144138, Note_off_c, 0, 73, 64
1, 144172, Note_off_c, 0, 75, 65
1, 144172, Control_c, 0, 64, 16
1, 144187, Control_c, 0, 64, 21
1, 144194, Note_on_c, 0, 76, 56
1, 144202, Control_c, 0, 64, 23
1, 144216, Control_c, 0, 64, 24
1, 144226, Note_off_c, 0, 76, 63
1, 144231, Control_c, 0, 64, 25
1, 144246, Control_c, 0, 64, 27
1, 144260, Control_c, 0, 64, 29
1, 144275, Control_c, 0, 64, 31
1, 144290, Control_c, 0, 64, 33
1, 144304, Note_on_c, 0, 70, 51
1, 144305, Control_c, 0, 64, 34
1, 144308, Note_on_c, 0, 73, 59
1, 144313, Note_on_c, 0, 76, 58
1, 144320, Control_c, 0, 64, 36
1, 144342, Control_c, 0, 64, 38
1, 144357, Control_c, 0, 64, 39
1, 144372, Control_c, 0, 64, 40
1, 144387, Control_c, 0, 64, 42
1, 144402, Control_c, 0, 64, 45
1, 144416, Control_c, 0, 64, 47
1, 144431, Control_c, 0, 64, 48
1, 144445, Control_c, 0, 64, 50
1, 144460, Control_c, 0, 64, 51
1, 144474, Control_c, 0, 64, 53
1, 144489, Control_c, 0, 64, 56
1, 144504, Control_c, 0, 64, 57
1, 144519, Control_c, 0, 64, 58
1, 144534, Control_c, 0, 64, 59
1, 144563, Control_c, 0, 64, 59
1, 144578, Control_c, 0, 64, 60
1, 144594, Control_c, 0, 64, 61
1, 144698, Control_c, 0, 64, 60
1, 144712, Control_c, 0, 64, 60
1, 144742, Control_c, 0, 64, 59
1, 144757, Control_c, 0, 64, 58
1, 144772, Control_c, 0, 64, 56
1, 144787, Control_c, 0, 64, 53
1, 144790, Note_on_c, 0, 55, 39
1, 144802, Control_c, 0, 64, 51
1, 144817, Control_c, 0, 64, 48
1, 144823, Note_off_c, 0, 55, 62
1, 144832, Control_c, 0, 64, 45
1, 144846, Control_c, 0, 64, 43
1, 144861, Control_c, 0, 64, 40
1, 144868, Note_on_c, 0, 58, 46
1, 144876, Control_c, 0, 64, 37
1, 144890, Control_c, 0, 64, 34
1, 144898, Note_off_c, 0, 58, 63
1, 144905, Control_c, 0, 64, 31
1, 144920, Note_on_c, 0, 55, 43
1, 144920, Control_c, 0, 64, 29
1, 144935, Control_c, 0, 64, 27
1, 144950, Control_c, 0, 64, 24
1, 144964, Control_c, 0, 64, 22
1, 144972, Note_off_c, 0, 55, 56
1, 144979, Control_c, 0, 64, 19
1, 144993, Note_on_c, 0, 58, 50
1, 144994, Control_c, 0, 64, 17
1, 145009, Control_c, 0, 64, 16
1, 145024, Control_c, 0, 64, 13
1, 145038, Note_off_c, 0, 58, 60
1, 145038, Control_c, 0, 64, 11
1, 145053, Control_c, 0, 64, 0
1, 145070, Note_on_c, 0, 61, 47
1, 145124, Note_off_c, 0, 61, 60
1, 145267, Note_on_c, 0, 55, 14
1, 145306, Note_off_c, 0, 55, 41
1, 145310, Note_on_c, 0, 58, 51
1, 145349, Note_off_c, 0, 58, 64
1, 145404, Note_on_c, 0, 55, 36
1, 145455, Note_on_c, 0, 58, 42
1, 145455, Note_off_c, 0, 55, 54
1, 145502, Note_off_c, 0, 58, 62
1, 145528, Note_on_c, 0, 61, 44
1, 145572, Note_off_c, 0, 61, 57
1, 145724, Note_on_c, 0, 55, 20
1, 145770, Note_off_c, 0, 55, 52
1, 145789, Note_on_c, 0, 58, 45
1, 145842, Note_off_c, 0, 58, 62
1, 145879, Note_on_c, 0, 55, 46
1, 145944, Note_off_c, 0, 55, 55
1, 145965, Note_on_c, 0, 58, 34
1, 146047, Note_off_c, 0, 58, 50
1, 146103, Note_on_c, 0, 61, 17
1, 146297, Note_off_c, 0, 76, 51
1, 146313, Control_c, 0, 64, 9
1, 146319, Note_off_c, 0, 61, 36
1, 146328, Control_c, 0, 64, 12
1, 146329, Note_off_c, 0, 70, 37
1, 146343, Control_c, 0, 64, 20
1, 146358, Control_c, 0, 64, 29
1, 146373, Control_c, 0, 64, 33
1, 146386, Note_off_c, 0, 73, 50
1, 146388, Control_c, 0, 64, 34
1, 146403, Control_c, 0, 64, 35
1, 146417, Control_c, 0, 64, 38
1, 146432, Control_c, 0, 64, 40
1, 146447, Control_c, 0, 64, 40
1, 146491, Control_c, 0, 67, 28
1, 146506, Control_c, 0, 67, 60
1, 146521, Control_c, 0, 67, 95
1, 146535, Control_c, 0, 64, 41
1, 146535, Control_c, 0, 67, 127
1, 146795, Note_on_c, 0, 79, 48
1, 146841, Note_off_c, 0, 79, 59
1, 146873, Note_on_c, 0, 82, 48
1, 146910, Note_off_c, 0, 82, 64
1, 146942, Note_on_c, 0, 85, 44
1, 146943, Control_c, 0, 64, 40
1, 146966, Note_off_c, 0, 85, 57
1, 147000, Note_on_c, 0, 84, 56
1, 147004, Control_c, 0, 64, 40
1, 147023, Note_off_c, 0, 84, 63
1, 147082, Note_on_c, 0, 82, 57
1, 147145, Note_on_c, 0, 80, 54
1, 147168, Note_off_c, 0, 82, 58
1, 147199, Note_off_c, 0, 80, 59
1, 147209, Note_on_c, 0, 79, 54
1, 147226, Control_c, 0, 64, 39
1, 147244, Note_off_c, 0, 79, 62
1, 147270, Control_c, 0, 64, 39
1, 147273, Note_on_c, 0, 77, 61
1, 147285, Control_c, 0, 64, 38
1, 147300, Control_c, 0, 64, 37
1, 147305, Note_off_c, 0, 77, 64
1, 147315, Control_c, 0, 64, 36
1, 147337, Control_c, 0, 64, 36
1, 147351, Note_on_c, 0, 76, 62
1, 147352, Control_c, 0, 64, 35
1, 147366, Control_c, 0, 64, 34
1, 147381, Control_c, 0, 64, 33
1, 147396, Control_c, 0, 64, 32
1, 147410, Note_off_c, 0, 76, 56
1, 147411, Control_c, 0, 64, 31
1, 147422, Note_on_c, 0, 73, 64
1, 147426, Control_c, 0, 64, 29
1, 147440, Control_c, 0, 64, 26
1, 147455, Note_off_c, 0, 73, 63
1, 147455, Control_c, 0, 64, 24
1, 147470, Control_c, 0, 64, 21
1, 147485, Control_c, 0, 64, 19
1, 147488, Note_on_c, 0, 72, 66
1, 147500, Control_c, 0, 64, 17
1, 147515, Control_c, 0, 64, 16
1, 147529, Control_c, 0, 64, 12
1, 147533, Note_off_c, 0, 72, 60
1, 147544, Control_c, 0, 64, 9
1, 147559, Control_c, 0, 64, 0
1, 147559, Note_on_c, 0, 73, 67
1, 147601, Note_off_c, 0, 73, 65
1, 147624, Note_on_c, 0, 76, 69
1, 147652, Note_off_c, 0, 76, 67
1, 147688, Note_on_c, 0, 77, 76
1, 147739, Note_off_c, 0, 77, 48
1, 147756, Note_on_c, 0, 79, 71
1, 147822, Note_off_c, 0, 79, 64
1, 147827, Note_on_c, 0, 80, 56
1, 147864, Note_off_c, 0, 80, 65
1, 147869, Note_on_c, 0, 82, 70
1, 147871, Control_c, 0, 64, 11
1, 147886, Control_c, 0, 64, 13
1, 147901, Control_c, 0, 64, 15
1, 147915, Control_c, 0, 64, 16
1, 147930, Control_c, 0, 64, 18
1, 147938, Note_off_c, 0, 82, 63
1, 147945, Control_c, 0, 64, 20
1, 147953, Note_on_c, 0, 84, 58
1, 147960, Control_c, 0, 64, 21
1, 147975, Control_c, 0, 64, 22
1, 147989, Control_c, 0, 64, 23
1, 148004, Control_c, 0, 64, 23
1, 148019, Control_c, 0, 64, 24
1, 148033, Note_off_c, 0, 84, 60
1, 148034, Control_c, 0, 64, 25
1, 148037, Note_on_c, 0, 79, 54
1, 148039, Note_on_c, 0, 85, 58
1, 148049, Control_c, 0, 64, 27
1, 148058, Note_on_c, 0, 82, 50
1, 148063, Control_c, 0, 64, 28
1, 148086, Control_c, 0, 64, 29
1, 148101, Control_c, 0, 64, 30
1, 148115, Control_c, 0, 64, 31
1, 148130, Control_c, 0, 64, 33
1, 148145, Control_c, 0, 64, 37
1, 148160, Control_c, 0, 64, 41
1, 148175, Control_c, 0, 64, 45
1, 148189, Control_c, 0, 64, 48
1, 148204, Control_c, 0, 64, 51
1, 148219, Control_c, 0, 64, 55
1, 148234, Control_c, 0, 64, 58
1, 148249, Control_c, 0, 64, 61
1, 148263, Control_c, 0, 64, 63
1, 148278, Control_c, 0, 64, 64
1, 148293, Control_c, 0, 64, 65
1, 148307, Control_c, 0, 64, 67
1, 148322, Control_c, 0, 64, 69
1, 148337, Control_c, 0, 64, 71
1, 148352, Control_c, 0, 64, 75
1, 148367, Control_c, 0, 64, 77
1, 148382, Control_c, 0, 64, 80
1, 148397, Control_c, 0, 64, 81
1, 148471, Note_on_c, 0, 64, 39
1, 148501, Note_off_c, 0, 64, 57
1, 148530, Control_c, 0, 64, 80
1, 148544, Note_on_c, 0, 67, 45
1, 148583, Note_off_c, 0, 67, 61
1, 148613, Note_on_c, 0, 64, 37
1, 148664, Note_off_c, 0, 64, 46
1, 148677, Note_on_c, 0, 67, 54
1, 148694, Control_c, 0, 64, 80
1, 148724, Note_off_c, 0, 67, 61
1, 148738, Control_c, 0, 64, 79
1, 148767, Note_on_c, 0, 70, 48
1, 148768, Control_c, 0, 64, 79
1, 148812, Note_off_c, 0, 70, 58
1, 148850, Control_c, 0, 64, 78
1, 148964, Note_on_c, 0, 64, 44
1, 149001, Note_off_c, 0, 64, 54
1, 149035, Note_on_c, 0, 67, 41
1, 149066, Note_off_c, 0, 67, 53
1, 149166, Poly_aftertouch_c, 0, 64, 127
1, 149184, Note_on_c, 0, 67, 37
1, 149193, Poly_aftertouch_c, 0, 64, 0
1, 149235, Note_off_c, 0, 67, 45
1, 149271, Note_on_c, 0, 70, 36
1, 149345, Note_off_c, 0, 79, 35
1, 149406, Note_off_c, 0, 70, 32
1, 149452, Note_off_c, 0, 85, 57
1, 149457, Note_off_c, 0, 82, 36
1, 149575, Control_c, 0, 64, 78
1, 149613, Control_c, 0, 64, 77
1, 149628, Control_c, 0, 64, 75
1, 149642, Control_c, 0, 64, 73
1, 149657, Control_c, 0, 64, 71
1, 149672, Control_c, 0, 64, 69
1, 149687, Control_c, 0, 64, 68
1, 149702, Control_c, 0, 64, 67
1, 149716, Control_c, 0, 64, 66
1, 149731, Control_c, 0, 64, 64
1, 149746, Control_c, 0, 64, 63
1, 149761, Control_c, 0, 64, 62
1, 149775, Control_c, 0, 64, 60
1, 149790, Control_c, 0, 64, 58
1, 149805, Control_c, 0, 64, 56
1, 149820, Control_c, 0, 64, 56
1, 149834, Control_c, 0, 64, 54
1, 149849, Control_c, 0, 64, 52
1, 149864, Control_c, 0, 64, 49
1, 149879, Control_c, 0, 64, 46
1, 149893, Control_c, 0, 64, 43
1, 149908, Control_c, 0, 64, 39
1, 149923, Control_c, 0, 64, 36
1, 149938, Control_c, 0, 64, 34
1, 149953, Control_c, 0, 64, 31
1, 149968, Control_c, 0, 64, 25
1, 149983, Control_c, 0, 64, 15
1, 149998, Control_c, 0, 64, 0
1, 150083, Note_on_c, 0, 88, 36
1, 150118, Note_off_c, 0, 88, 52
1, 150145, Note_on_c, 0, 91, 52
1, 150178, Note_off_c, 0, 91, 62
1, 150218, Note_on_c, 0, 94, 66
1, 150290, Note_on_c, 0, 92, 69
1, 150297, Note_off_c, 0, 94, 62
1, 150323, Note_off_c, 0, 92, 67
1, 150360, Note_on_c, 0, 91, 69
1, 150388, Note_off_c, 0, 91, 66
1, 150421, Note_on_c, 0, 89, 66
1, 150491, Note_on_c, 0, 88, 69
1, 150525, Note_off_c, 0, 89, 61
1, 150555, Note_on_c, 0, 85, 71
1, 150555, Note_off_c, 0, 88, 64
1, 150615, Note_off_c, 0, 85, 65
1, 150623, Note_on_c, 0, 84, 63
1, 150670, Note_off_c, 0, 84, 64
1, 150677, Note_on_c, 0, 82, 72
1, 150737, Note_off_c, 0, 82, 64
1, 150752, Note_on_c, 0, 81, 69
1, 150800, Note_off_c, 0, 81, 60
1, 150820, Note_on_c, 0, 82, 66
1, 150849, Note_off_c, 0, 82, 68
1, 150887, Note_on_c, 0, 84, 75
1, 150939, Note_off_c, 0, 84, 57
1, 150960, Note_on_c, 0, 85, 74
1, 151007, Note_off_c, 0, 85, 64
1, 151029, Note_on_c, 0, 88, 69
1, 151056, Note_off_c, 0, 88, 66
1, 151100, Note_on_c, 0, 89, 78
1, 151162, Note_off_c, 0, 89, 56
1, 151175, Note_on_c, 0, 91, 72
1, 151238, Note_on_c, 0, 92, 72
1, 151241, Note_off_c, 0, 91, 63
1, 151323, Note_off_c, 0, 92, 64
1, 151338, Note_on_c, 0, 94, 66
1, 151345, Note_on_c, 0, 91, 59
1, 151354, Note_on_c, 0, 88, 50
1, 151378, Control_c, 0, 64, 21
1, 151393, Control_c, 0, 64, 34
1, 151407, Control_c, 0, 64, 40
1, 151422, Control_c, 0, 64, 44
1, 151437, Control_c, 0, 64, 47
1, 151452, Control_c, 0, 64, 52
1, 151467, Control_c, 0, 64, 57
1, 151481, Control_c, 0, 64, 60
1, 151496, Control_c, 0, 64, 62
1, 151511, Control_c, 0, 64, 63
1, 151526, Control_c, 0, 64, 64
1, 151540, Control_c, 0, 64, 65
1, 151555, Control_c, 0, 64, 66
1, 151570, Control_c, 0, 64, 68
1, 151585, Control_c, 0, 64, 70
1, 151600, Control_c, 0, 64, 71
1, 151614, Control_c, 0, 64, 72
1, 151674, Control_c, 0, 64, 73
1, 151688, Control_c, 0, 64, 73
1, 151703, Control_c, 0, 64, 74
1, 151718, Control_c, 0, 64, 75
1, 151735, Note_on_c, 0, 72, 42
1, 151780, Note_off_c, 0, 72, 60
1, 151816, Note_on_c, 0, 79, 56
1, 151864, Note_off_c, 0, 79, 63
1, 151909, Note_on_c, 0, 72, 37
1, 151980, Note_on_c, 0, 79, 48
1, 152025, Note_off_c, 0, 72, 0
1, 152027, Note_off_c, 0, 79, 65
1, 152052, Note_on_c, 0, 82, 52
1, 152099, Poly_aftertouch_c, 0, 72, 0
1, 152107, Note_off_c, 0, 82, 52
1, 152254, Note_on_c, 0, 72, 52
1, 152302, Note_off_c, 0, 72, 55
1, 152354, Note_on_c, 0, 79, 46
1, 152396, Note_off_c, 0, 79, 63
1, 152446, Note_on_c, 0, 72, 27
1, 152499, Note_off_c, 0, 72, 42
1, 152512, Note_on_c, 0, 79, 44
1, 152642, Note_on_c, 0, 82, 45
1, 152651, Note_off_c, 0, 88, 36
1, 152671, Note_off_c, 0, 94, 56
1, 152701, Note_off_c, 0, 82, 57
1, 152705, Note_off_c, 0, 79, 38
1, 152707, Note_off_c, 0, 91, 58
1, 152993, Control_c, 0, 64, 75
1, 153112, Control_c, 0, 64, 74
1, 153142, Control_c, 0, 64, 74
1, 153157, Control_c, 0, 64, 73
1, 153171, Control_c, 0, 64, 73
1, 153186, Control_c, 0, 64, 72
1, 153201, Control_c, 0, 64, 72
1, 153216, Control_c, 0, 64, 71
1, 153231, Control_c, 0, 64, 71
1, 153246, Control_c, 0, 64, 70
1, 153260, Control_c, 0, 64, 69
1, 153275, Control_c, 0, 64, 69
1, 153290, Control_c, 0, 64, 68
1, 153304, Control_c, 0, 64, 68
1, 153319, Control_c, 0, 64, 67
1, 153342, Control_c, 0, 64, 65
1, 153357, Control_c, 0, 64, 64
1, 153372, Control_c, 0, 64, 64
1, 153387, Control_c, 0, 64, 63
1, 153402, Control_c, 0, 64, 62
1, 153417, Control_c, 0, 64, 60
1, 153431, Control_c, 0, 64, 58
1, 153446, Control_c, 0, 64, 56
1, 153461, Control_c, 0, 64, 53
1, 153475, Control_c, 0, 64, 51
1, 153490, Control_c, 0, 64, 48
1, 153505, Control_c, 0, 64, 39
1, 153515, Note_on_c, 0, 77, 41
1, 153517, Note_on_c, 0, 83, 52
1, 153520, Control_c, 0, 64, 19
1, 153521, Note_on_c, 0, 80, 51
1, 153535, Control_c, 0, 64, 0
1, 153638, Control_c, 0, 64, 21
1, 153653, Control_c, 0, 64, 35
1, 153668, Control_c, 0, 64, 46
1, 153682, Control_c, 0, 64, 52
1, 153697, Control_c, 0, 64, 56
1, 153712, Control_c, 0, 64, 58
1, 153727, Control_c, 0, 64, 59
1, 153742, Control_c, 0, 64, 60
1, 153757, Control_c, 0, 64, 60
1, 153771, Control_c, 0, 64, 61
1, 153786, Control_c, 0, 64, 62
1, 153801, Control_c, 0, 64, 63
1, 153816, Control_c, 0, 64, 64
1, 153831, Control_c, 0, 64, 65
1, 153846, Control_c, 0, 64, 65
1, 153856, Note_on_c, 0, 60, 33
1, 153861, Control_c, 0, 64, 66
1, 153875, Control_c, 0, 64, 68
1, 153890, Control_c, 0, 64, 69
1, 153905, Control_c, 0, 64, 70
1, 153919, Control_c, 0, 64, 71
1, 153932, Note_off_c, 0, 60, 61
1, 153934, Control_c, 0, 64, 71
1, 153949, Control_c, 0, 64, 72
1, 153960, Note_on_c, 0, 68, 45
1, 153979, Control_c, 0, 64, 72
1, 153993, Control_c, 0, 64, 73
1, 154008, Control_c, 0, 64, 74
1, 154013, Note_off_c, 0, 68, 52
1, 154023, Control_c, 0, 64, 75
1, 154038, Control_c, 0, 64, 75
1, 154086, Note_on_c, 0, 68, 27
1, 154090, Control_c, 0, 64, 76
1, 154093, Poly_aftertouch_c, 0, 60, 127
1, 154127, Poly_aftertouch_c, 0, 60, 0
1, 154144, Note_off_c, 0, 68, 57
1, 154154, Note_on_c, 0, 71, 54
1, 154208, Note_off_c, 0, 71, 54
1, 154210, Control_c, 0, 64, 76
1, 154344, Note_on_c, 0, 60, 41
1, 154377, Note_off_c, 0, 60, 58
1, 154428, Note_on_c, 0, 68, 42
1, 154467, Note_off_c, 0, 68, 58
1, 154498, Note_on_c, 0, 60, 28
1, 154549, Note_off_c, 0, 60, 43
1, 154579, Note_on_c, 0, 68, 45
1, 154669, Control_c, 0, 64, 77
1, 154707, Note_on_c, 0, 71, 46
1, 154713, Control_c, 0, 64, 77
1, 154758, Control_c, 0, 64, 78
1, 154788, Control_c, 0, 64, 78
1, 154803, Note_off_c, 0, 68, 24
1, 154824, Control_c, 0, 64, 79
1, 154839, Control_c, 0, 64, 79
1, 154854, Control_c, 0, 64, 80
1, 154869, Control_c, 0, 64, 80
1, 154882, Note_off_c, 0, 77, 32
1, 154898, Note_off_c, 0, 71, 30
1, 154928, Control_c, 0, 64, 81
1, 154935, Note_off_c, 0, 83, 58
1, 154936, Note_off_c, 0, 80, 36
1, 155166, Control_c, 0, 64, 80
1, 155269, Control_c, 0, 64, 80
1, 155343, Control_c, 0, 64, 79
1, 155402, Control_c, 0, 64, 79
1, 155432, Control_c, 0, 64, 78
1, 155462, Control_c, 0, 64, 78
1, 155506, Control_c, 0, 64, 77
1, 155536, Control_c, 0, 64, 77
1, 155617, Control_c, 0, 64, 76
1, 155646, Control_c, 0, 64, 76
1, 155661, Control_c, 0, 64, 75
1, 155676, Control_c, 0, 64, 75
1, 155691, Control_c, 0, 64, 74
1, 155706, Control_c, 0, 64, 72
1, 155720, Control_c, 0, 64, 70
1, 155735, Control_c, 0, 64, 67
1, 155738, Note_on_c, 0, 67, 39
1, 155747, Note_on_c, 0, 64, 41
1, 155750, Control_c, 0, 64, 65
1, 155751, Note_on_c, 0, 72, 37
1, 155765, Control_c, 0, 64, 62
1, 155781, Control_c, 0, 64, 56
1, 155795, Control_c, 0, 64, 47
1, 155810, Control_c, 0, 64, 40
1, 155825, Control_c, 0, 64, 38
1, 155855, Control_c, 0, 64, 42
1, 155869, Control_c, 0, 64, 47
1, 155884, Control_c, 0, 64, 51
1, 155899, Control_c, 0, 64, 55
1, 155914, Control_c, 0, 64, 58
1, 155929, Control_c, 0, 64, 60
1, 155944, Control_c, 0, 64, 62
1, 155958, Control_c, 0, 64, 63
1, 155973, Control_c, 0, 64, 64
1, 155988, Control_c, 0, 64, 65
1, 156002, Control_c, 0, 64, 67
1, 156017, Control_c, 0, 64, 68
1, 156032, Control_c, 0, 64, 70
1, 156047, Control_c, 0, 64, 71
1, 156062, Control_c, 0, 64, 72
1, 156076, Control_c, 0, 64, 73
1, 156091, Control_c, 0, 64, 74
1, 156106, Control_c, 0, 64, 74
1, 156121, Control_c, 0, 64, 75
1, 156136, Control_c, 0, 64, 75
1, 156165, Control_c, 0, 64, 76
1, 156169, Note_on_c, 0, 48, 34
1, 156195, Control_c, 0, 64, 77
1, 156206, Note_off_c, 0, 48, 50
1, 156225, Control_c, 0, 64, 77
1, 156267, Note_on_c, 0, 55, 37
1, 156306, Note_off_c, 0, 55, 50
1, 156314, Control_c, 0, 64, 78
1, 156329, Note_on_c, 0, 48, 37
1, 156429, Note_on_c, 0, 55, 35
1, 156514, Note_off_c, 0, 48, 26
1, 156556, Note_on_c, 0, 60, 42
1, 156630, Note_off_c, 0, 55, 39
1, 156737, Note_off_c, 0, 60, 28
1, 156787, Note_on_c, 0, 48, 39
1, 156830, Note_off_c, 0, 48, 49
1, 156898, Note_on_c, 0, 55, 36
1, 156967, Note_off_c, 0, 55, 51
1, 157025, Note_on_c, 0, 48, 38
1, 157125, Note_on_c, 0, 55, 27
1, 157378, Note_on_c, 0, 60, 34
1, 157722, Control_c, 0, 64, 78
1, 157766, Control_c, 0, 64, 79
1, 157781, Control_c, 0, 64, 79
1, 157796, Control_c, 0, 64, 80
1, 157819, Control_c, 0, 64, 81
1, 157834, Control_c, 0, 64, 81
1, 157848, Control_c, 0, 64, 82
1, 157878, Control_c, 0, 64, 83
1, 157893, Control_c, 0, 64, 83
1, 157908, Control_c, 0, 64, 84
1, 157923, Control_c, 0, 64, 85
1, 157938, Control_c, 0, 64, 86
1, 157953, Control_c, 0, 64, 87
1, 157968, Control_c, 0, 64, 87
1, 157982, Control_c, 0, 64, 88
1, 157993, Note_off_c, 0, 72, 35
1, 157997, Control_c, 0, 64, 89
1, 157998, Note_off_c, 0, 64, 32
1, 158012, Control_c, 0, 64, 90
1, 158027, Control_c, 0, 64, 91
1, 158031, Note_off_c, 0, 67, 39
1, 158042, Control_c, 0, 64, 92
1, 158071, Control_c, 0, 64, 92
1, 158086, Control_c, 0, 64, 93
1, 158101, Control_c, 0, 64, 93
1, 158116, Control_c, 0, 64, 94
1, 158130, Control_c, 0, 64, 95
1, 158145, Control_c, 0, 64, 96
1, 158160, Control_c, 0, 64, 97
1, 158176, Control_c, 0, 64, 98
1, 158190, Control_c, 0, 64, 99
1, 158205, Control_c, 0, 64, 100
1, 158220, Control_c, 0, 64, 101
1, 158235, Control_c, 0, 64, 101
1, 158250, Control_c, 0, 64, 102
1, 158264, Control_c, 0, 64, 102
1, 158309, Control_c, 0, 64, 103
1, 158368, Control_c, 0, 64, 103
1, 158397, Note_off_c, 0, 48, 34
1, 158439, Note_off_c, 0, 60, 35
1, 158546, Control_c, 0, 64, 103
1, 158568, Control_c, 0, 64, 102
1, 158583, Control_c, 0, 64, 101
1, 158598, Control_c, 0, 64, 101
1, 158612, Control_c, 0, 64, 97
1, 158627, Control_c, 0, 64, 82
1, 158627, Control_c, 0, 67, 125
1, 158642, Control_c, 0, 64, 63
1, 158642, Control_c, 0, 67, 92
1, 158646, Note_off_c, 0, 55, 34
1, 158657, Control_c, 0, 64, 33
1, 158657, Control_c, 0, 67, 38
1, 158663, Note_on_c, 0, 72, 59
1, 158672, Control_c, 0, 64, 0
1, 158672, Control_c, 0, 67, 0
1, 158695, Note_off_c, 0, 72, 65
1, 158827, Note_on_c, 0, 60, 41
1, 158854, Note_off_c, 0, 60, 56
1, 158969, Note_on_c, 0, 72, 53
1, 158993, Note_off_c, 0, 72, 59
1, 159128, Note_on_c, 0, 60, 49
1, 159153, Note_off_c, 0, 60, 60
1, 159277, Note_on_c, 0, 72, 56
1, 159315, Note_off_c, 0, 72, 65
1, 159432, Note_on_c, 0, 60, 51
1, 159458, Note_off_c, 0, 60, 59
1, 159556, Note_on_c, 0, 48, 47
1, 159597, Note_off_c, 0, 48, 62
1, 159706, Note_on_c, 0, 60, 53
1, 159746, Note_off_c, 0, 60, 64
1, 159855, Note_on_c, 0, 48, 52
1, 159893, Note_off_c, 0, 48, 63
1, 160016, Note_on_c, 0, 60, 55
1, 160043, Note_off_c, 0, 60, 64
1, 160124, Control_c, 0, 64, 11
1, 160139, Control_c, 0, 64, 12
1, 160154, Control_c, 0, 64, 13
1, 160168, Control_c, 0, 64, 15
1, 160171, Note_on_c, 0, 48, 43
1, 160183, Control_c, 0, 64, 17
1, 160200, Note_off_c, 0, 48, 57
1, 160273, Control_c, 0, 64, 17
1, 160303, Control_c, 0, 64, 18
1, 160332, Note_on_c, 0, 60, 39
1, 160347, Control_c, 0, 64, 19
1, 160360, Note_off_c, 0, 60, 52
1, 160391, Control_c, 0, 64, 20
1, 160439, Note_on_c, 0, 73, 62
1, 160458, Note_off_c, 0, 73, 65
1, 160465, Control_c, 0, 64, 21
1, 160470, Note_on_c, 0, 72, 74
1, 160478, Note_on_c, 0, 52, 33
1, 160498, Note_off_c, 0, 72, 65
1, 160509, Note_off_c, 0, 52, 48
1, 160524, Control_c, 0, 64, 21
1, 160539, Control_c, 0, 64, 22
1, 160543, Poly_aftertouch_c, 0, 48, 0
1, 160554, Control_c, 0, 64, 23
1, 160570, Control_c, 0, 64, 23
1, 160600, Control_c, 0, 64, 24
1, 160619, Note_on_c, 0, 72, 55
1, 160629, Control_c, 0, 64, 24
1, 160630, Note_on_c, 0, 60, 50
1, 160644, Control_c, 0, 64, 25
1, 160659, Control_c, 0, 64, 26
1, 160663, Note_off_c, 0, 72, 60
1, 160666, Note_off_c, 0, 60, 62
1, 160673, Control_c, 0, 64, 26
1, 160688, Control_c, 0, 64, 27
1, 160702, Note_on_c, 0, 73, 42
1, 160726, Note_off_c, 0, 73, 57
1, 160747, Note_on_c, 0, 52, 48
1, 160747, Control_c, 0, 64, 27
1, 160764, Note_on_c, 0, 72, 64
1, 160792, Note_off_c, 0, 72, 67
1, 160797, Note_off_c, 0, 52, 61
1, 160844, Control_c, 0, 64, 28
1, 160888, Control_c, 0, 64, 28
1, 160918, Control_c, 0, 64, 29
1, 160920, Note_on_c, 0, 60, 52
1, 160920, Note_on_c, 0, 72, 65
1, 160933, Control_c, 0, 64, 30
1, 160947, Control_c, 0, 64, 30
1, 160951, Note_off_c, 0, 72, 65
1, 160959, Note_off_c, 0, 60, 63
1, 160962, Control_c, 0, 64, 31
1, 160977, Control_c, 0, 64, 31
1, 160991, Control_c, 0, 64, 32
1, 161056, Note_on_c, 0, 72, 70
1, 161063, Note_on_c, 0, 52, 53
1, 161078, Note_on_c, 0, 48, 24
1, 161093, Note_off_c, 0, 72, 66
1, 161096, Control_c, 0, 64, 32
1, 161101, Note_off_c, 0, 52, 66
1, 161113, Note_off_c, 0, 48, 46
1, 161191, Note_on_c, 0, 72, 73
1, 161200, Note_on_c, 0, 60, 61
1, 161221, Note_off_c, 0, 72, 63
1, 161239, Note_off_c, 0, 60, 63
1, 161319, Note_on_c, 0, 73, 76
1, 161331, Note_on_c, 0, 53, 58
1, 161333, Control_c, 0, 64, 33
1, 161340, Note_off_c, 0, 73, 68
1, 161342, Note_on_c, 0, 49, 56
1, 161344, Note_on_c, 0, 72, 86
1, 161347, Control_c, 0, 64, 34
1, 161363, Control_c, 0, 64, 35
1, 161378, Control_c, 0, 64, 38
1, 161380, Note_off_c, 0, 53, 61
1, 161385, Note_off_c, 0, 72, 65
1, 161386, Note_off_c, 0, 49, 62
1, 161393, Control_c, 0, 64, 39
1, 161407, Control_c, 0, 64, 39
1, 161422, Control_c, 0, 64, 40
1, 161492, Note_on_c, 0, 72, 64
1, 161497, Note_on_c, 0, 60, 56
1, 161533, Note_off_c, 0, 72, 59
1, 161536, Note_off_c, 0, 60, 63
1, 161567, Note_on_c, 0, 73, 55
1, 161598, Note_off_c, 0, 73, 67
1, 161635, Note_on_c, 0, 72, 70
1, 161638, Note_on_c, 0, 53, 38
1, 161641, Note_on_c, 0, 49, 37
1, 161662, Note_off_c, 0, 72, 68
1, 161676, Note_off_c, 0, 49, 59
1, 161676, Note_off_c, 0, 53, 58
1, 161757, Control_c, 0, 64, 40
1, 161776, Note_on_c, 0, 72, 73
1, 161784, Note_on_c, 0, 60, 60
1, 161814, Note_off_c, 0, 72, 66
1, 161823, Note_off_c, 0, 60, 62
1, 161830, Control_c, 0, 64, 41
1, 161912, Note_on_c, 0, 72, 82
1, 161915, Note_on_c, 0, 53, 54
1, 161923, Note_on_c, 0, 49, 49
1, 161957, Note_off_c, 0, 72, 63
1, 161966, Note_off_c, 0, 49, 62
1, 161969, Note_off_c, 0, 53, 61
1, 161978, Control_c, 0, 64, 41
1, 162038, Note_on_c, 0, 72, 81
1, 162051, Note_on_c, 0, 60, 62
1, 162085, Note_off_c, 0, 72, 63
1, 162096, Note_off_c, 0, 60, 62
1, 162157, Control_c, 0, 64, 42
1, 162160, Note_on_c, 0, 73, 86
1, 162172, Control_c, 0, 64, 42
1, 162178, Note_on_c, 0, 55, 77
1, 162187, Control_c, 0, 64, 44
1, 162188, Note_on_c, 0, 52, 70
1, 162189, Note_off_c, 0, 73, 69
1, 162192, Note_on_c, 0, 72, 92
1, 162201, Control_c, 0, 64, 45
1, 162216, Control_c, 0, 64, 45
1, 162231, Control_c, 0, 64, 46
1, 162232, Note_off_c, 0, 52, 62
1, 162232, Note_off_c, 0, 55, 62
1, 162233, Note_off_c, 0, 72, 65
1, 162327, Note_on_c, 0, 60, 71
1, 162327, Note_on_c, 0, 72, 79
1, 162378, Note_off_c, 0, 60, 60
1, 162378, Note_off_c, 0, 72, 57
1, 162390, Note_on_c, 0, 73, 81
1, 162434, Note_off_c, 0, 73, 66
1, 162446, Control_c, 0, 64, 46
1, 162449, Note_on_c, 0, 72, 90
1, 162455, Note_on_c, 0, 52, 72
1, 162461, Note_on_c, 0, 55, 73
1, 162461, Control_c, 0, 64, 48
1, 162476, Control_c, 0, 64, 49
1, 162491, Note_off_c, 0, 55, 66
1, 162491, Control_c, 0, 64, 50
1, 162497, Note_off_c, 0, 72, 64
1, 162507, Note_off_c, 0, 52, 63
1, 162586, Note_on_c, 0, 73, 90
1, 162604, Note_on_c, 0, 56, 90
1, 162606, Note_on_c, 0, 53, 86
1, 162613, Note_off_c, 0, 73, 68
1, 162616, Note_on_c, 0, 72, 97
1, 162652, Note_off_c, 0, 56, 63
1, 162655, Note_off_c, 0, 53, 64
1, 162660, Note_off_c, 0, 72, 66
1, 162741, Note_on_c, 0, 72, 87
1, 162753, Note_on_c, 0, 60, 68
1, 162754, Note_on_c, 0, 53, 71
1, 162785, Note_off_c, 0, 60, 63
1, 162792, Note_off_c, 0, 72, 63
1, 162803, Note_off_c, 0, 53, 55
1, 162814, Note_on_c, 0, 73, 77
1, 162849, Note_off_c, 0, 73, 67
1, 162869, Note_on_c, 0, 72, 79
1, 162890, Note_on_c, 0, 56, 63
1, 162905, Note_off_c, 0, 72, 66
1, 162914, Note_off_c, 0, 56, 37
1, 163036, Note_on_c, 0, 72, 93
1, 163039, Note_on_c, 0, 58, 83
1, 163047, Note_on_c, 0, 55, 72
1, 163085, Note_off_c, 0, 55, 67
1, 163089, Note_off_c, 0, 58, 60
1, 163090, Note_off_c, 0, 72, 65
1, 163091, Control_c, 0, 64, 49
1, 163106, Control_c, 0, 64, 49
1, 163121, Control_c, 0, 64, 48
1, 163135, Control_c, 0, 64, 48
1, 163150, Control_c, 0, 64, 47
1, 163180, Control_c, 0, 64, 46
1, 163195, Control_c, 0, 64, 44
1, 163206, Note_on_c, 0, 55, 82
1, 163210, Control_c, 0, 64, 43
1, 163211, Note_on_c, 0, 72, 89
1, 163218, Note_on_c, 0, 60, 73
1, 163224, Control_c, 0, 64, 41
1, 163239, Control_c, 0, 64, 39
1, 163245, Note_off_c, 0, 60, 68
1, 163254, Control_c, 0, 64, 35
1, 163258, Note_off_c, 0, 72, 64
1, 163267, Note_off_c, 0, 55, 62
1, 163269, Control_c, 0, 64, 30
1, 163283, Control_c, 0, 64, 25
1, 163298, Control_c, 0, 64, 17
1, 163313, Control_c, 0, 64, 0
1, 163378, Note_on_c, 0, 55, 67
1, 163384, Note_on_c, 0, 58, 72
1, 163385, Note_on_c, 0, 61, 71
1, 163390, Note_on_c, 0, 72, 78
1, 163414, Note_off_c, 0, 61, 63
1, 163423, Note_off_c, 0, 55, 60
1, 163427, Note_off_c, 0, 58, 59
1, 163430, Note_off_c, 0, 72, 64
1, 163566, Note_on_c, 0, 55, 43
1, 163566, Note_on_c, 0, 62, 55
1, 163582, Note_on_c, 0, 72, 63
1, 163599, Note_off_c, 0, 62, 65
1, 163606, Note_on_c, 0, 58, 10
1, 163616, Note_off_c, 0, 72, 61
1, 163625, Note_off_c, 0, 55, 57
1, 163629, Note_off_c, 0, 58, 46
1, 163737, Note_on_c, 0, 55, 52
1, 163746, Note_on_c, 0, 58, 55
1, 163754, Note_on_c, 0, 72, 58
1, 163777, Note_on_c, 0, 63, 40
1, 163789, Note_off_c, 0, 72, 65
1, 163793, Note_off_c, 0, 58, 60
1, 163794, Note_off_c, 0, 55, 55
1, 163811, Note_off_c, 0, 63, 51
1, 163951, Note_on_c, 0, 72, 54
1, 163954, Note_on_c, 0, 64, 51
1, 163982, Note_off_c, 0, 72, 64
1, 163983, Note_off_c, 0, 64, 62
1, 164007, Poly_aftertouch_c, 0, 58, 0
1, 164030, Poly_aftertouch_c, 0, 55, 0
1, 164118, Note_on_c, 0, 73, 48
1, 164142, Note_on_c, 0, 53, 49
1, 164142, Note_off_c, 0, 73, 53
1, 164154, Note_on_c, 0, 72, 60
1, 164178, Note_off_c, 0, 53, 62
1, 164181, Note_off_c, 0, 72, 66
1, 164340, Note_on_c, 0, 65, 40
1, 164342, Note_on_c, 0, 56, 39
1, 164345, Note_on_c, 0, 72, 58
1, 164369, Note_off_c, 0, 65, 54
1, 164375, Note_off_c, 0, 56, 56
1, 164379, Note_off_c, 0, 72, 63
1, 164405, Note_on_c, 0, 73, 61
1, 164436, Note_off_c, 0, 73, 67
1, 164466, Note_on_c, 0, 72, 71
1, 164480, Note_on_c, 0, 53, 49
1, 164499, Note_off_c, 0, 72, 62
1, 164518, Note_off_c, 0, 53, 63
1, 164550, Control_c, 0, 64, 9
1, 164574, Control_c, 0, 64, 11
1, 164588, Control_c, 0, 64, 12
1, 164603, Control_c, 0, 64, 16
1, 164618, Control_c, 0, 64, 18
1, 164623, Note_on_c, 0, 73, 66
1, 164632, Control_c, 0, 64, 20
1, 164639, Note_on_c, 0, 65, 55
1, 164639, Note_off_c, 0, 73, 66
1, 164649, Note_on_c, 0, 56, 47
1, 164651, Note_on_c, 0, 72, 77
1, 164652, Note_on_c, 0, 60, 41
1, 164670, Note_off_c, 0, 65, 64
1, 164677, Control_c, 0, 64, 21
1, 164679, Note_off_c, 0, 72, 65
1, 164682, Note_off_c, 0, 60, 61
1, 164688, Note_off_c, 0, 56, 64
1, 164787, Note_on_c, 0, 72, 76
1, 164794, Note_on_c, 0, 53, 51
1, 164810, Control_c, 0, 64, 21
1, 164825, Control_c, 0, 64, 23
1, 164831, Note_off_c, 0, 53, 64
1, 164835, Note_off_c, 0, 72, 62
1, 164840, Control_c, 0, 64, 24
1, 164854, Control_c, 0, 64, 25
1, 164860, Note_on_c, 0, 73, 68
1, 164869, Control_c, 0, 64, 27
1, 164884, Control_c, 0, 64, 29
1, 164894, Note_off_c, 0, 73, 64
1, 164926, Note_on_c, 0, 56, 52
1, 164929, Control_c, 0, 64, 29
1, 164935, Note_on_c, 0, 65, 44
1, 164935, Note_on_c, 0, 72, 65
1, 164960, Note_off_c, 0, 65, 57
1, 164963, Note_off_c, 0, 72, 67
1, 164974, Note_off_c, 0, 56, 61
1, 165090, Note_on_c, 0, 72, 56
1, 165108, Note_on_c, 0, 53, 39
1, 165140, Note_off_c, 0, 72, 54
1, 165161, Note_on_c, 0, 71, 64
1, 165161, Note_off_c, 0, 53, 60
1, 165188, Note_off_c, 0, 71, 68
1, 165239, Note_on_c, 0, 56, 44
1, 165247, Note_on_c, 0, 62, 37
1, 165254, Control_c, 0, 64, 28
1, 165261, Note_on_c, 0, 71, 63
1, 165269, Control_c, 0, 64, 28
1, 165276, Note_off_c, 0, 62, 54
1, 165277, Note_off_c, 0, 56, 60
1, 165293, Note_off_c, 0, 71, 65
1, 165321, Control_c, 0, 64, 27
1, 165325, Note_on_c, 0, 74, 63
1, 165328, Poly_aftertouch_c, 0, 59, 0
1, 165367, Control_c, 0, 64, 27
1, 165390, Note_off_c, 0, 74, 56
1, 165395, Note_on_c, 0, 72, 67
1, 165401, Note_on_c, 0, 53, 35
1, 165433, Note_off_c, 0, 53, 50
1, 165459, Note_off_c, 0, 72, 61
1, 165472, Note_on_c, 0, 71, 65
1, 165516, Note_off_c, 0, 71, 60
1, 165540, Note_on_c, 0, 48, 47
1, 165553, Note_on_c, 0, 72, 56
1, 165573, Note_off_c, 0, 72, 65
1, 165576, Note_off_c, 0, 48, 63
1, 165722, Note_on_c, 0, 55, 47
1, 165728, Note_on_c, 0, 60, 48
1, 165729, Note_on_c, 0, 52, 47
1, 165734, Note_on_c, 0, 67, 72
1, 165755, Note_off_c, 0, 60, 63
1, 165764, Note_off_c, 0, 55, 63
1, 165764, Note_off_c, 0, 52, 63
1, 165767, Control_c, 0, 64, 26
1, 165782, Control_c, 0, 64, 26
1, 165797, Control_c, 0, 64, 25
1, 165877, Note_on_c, 0, 48, 57
1, 165924, Note_off_c, 0, 48, 62
1, 166023, Note_on_c, 0, 72, 76
1, 166029, Note_on_c, 0, 60, 62
1, 166033, Note_on_c, 0, 55, 54
1, 166034, Note_off_c, 0, 67, 63
1, 166035, Note_on_c, 0, 52, 53
1, 166064, Note_off_c, 0, 72, 67
1, 166069, Note_off_c, 0, 60, 66
1, 166074, Note_off_c, 0, 52, 65
1, 166076, Note_off_c, 0, 55, 64
1, 166180, Note_on_c, 0, 48, 53
1, 166189, Note_on_c, 0, 67, 85
1, 166224, Note_off_c, 0, 48, 61
1, 166229, Note_off_c, 0, 67, 63
1, 166309, Control_c, 0, 64, 25
1, 166333, Note_on_c, 0, 72, 85
1, 166333, Note_on_c, 0, 60, 64
1, 166343, Note_on_c, 0, 55, 49
1, 166345, Note_on_c, 0, 52, 48
1, 166363, Note_off_c, 0, 60, 66
1, 166368, Control_c, 0, 64, 24
1, 166372, Note_off_c, 0, 52, 56
1, 166379, Note_off_c, 0, 55, 64
1, 166381, Note_off_c, 0, 72, 65
1, 166486, Note_on_c, 0, 70, 86
1, 166500, Note_on_c, 0, 49, 59
1, 166547, Note_off_c, 0, 49, 61
1, 166634, Control_c, 0, 64, 24
1, 166649, Control_c, 0, 64, 23
1, 166655, Note_on_c, 0, 68, 65
1, 166664, Note_on_c, 0, 53, 45
1, 166664, Note_on_c, 0, 61, 51
1, 166664, Control_c, 0, 64, 23
1, 166674, Note_off_c, 0, 70, 57
1, 166679, Control_c, 0, 64, 22
1, 166694, Note_off_c, 0, 61, 61
1, 166694, Control_c, 0, 64, 18
1, 166706, Note_off_c, 0, 53, 62
1, 166709, Control_c, 0, 64, 9
1, 166711, Note_off_c, 0, 68, 59
1, 166716, Note_on_c, 0, 67, 67
1, 166723, Control_c, 0, 64, 0
1, 166750, Note_off_c, 0, 67, 64
1, 166791, Note_on_c, 0, 65, 58
1, 166806, Note_on_c, 0, 49, 57
1, 166828, Note_off_c, 0, 65, 64
1, 166848, Note_off_c, 0, 49, 65
1, 166951, Note_on_c, 0, 67, 67
1, 166960, Note_on_c, 0, 46, 55
1, 167004, Note_off_c, 0, 67, 59
1, 167029, Note_on_c, 0, 70, 63
1, 167064, Note_off_c, 0, 70, 62
1, 167091, Note_off_c, 0, 46, 58
1, 167102, Note_on_c, 0, 67, 62
1, 167108, Note_on_c, 0, 55, 61
1, 167110, Note_on_c, 0, 58, 63
1, 167134, Note_off_c, 0, 67, 66
1, 167142, Note_off_c, 0, 55, 64
1, 167142, Note_off_c, 0, 58, 65
1, 167160, Note_on_c, 0, 70, 64
1, 167200, Note_off_c, 0, 70, 60
1, 167234, Note_on_c, 0, 64, 63
1, 167254, Note_on_c, 0, 48, 61
1, 167254, Note_on_c, 0, 58, 56
1, 167276, Note_off_c, 0, 64, 62
1, 167290, Note_off_c, 0, 58, 64
1, 167297, Note_off_c, 0, 48, 61
1, 167307, Note_on_c, 0, 67, 64
1, 167339, Control_c, 0, 64, 32
1, 167343, Note_off_c, 0, 67, 64
1, 167354, Control_c, 0, 64, 46
1, 167369, Control_c, 0, 64, 56
1, 167383, Control_c, 0, 64, 62
1, 167388, Note_on_c, 0, 65, 71
1, 167391, Note_on_c, 0, 56, 66
1, 167396, Note_on_c, 0, 53, 59
1, 167398, Control_c, 0, 64, 69
1, 167413, Control_c, 0, 64, 82
1, 167427, Control_c, 0, 64, 127
1, 167450, Note_off_c, 0, 65, 58
1, 167455, Note_off_c, 0, 53, 60
1, 167457, Note_off_c, 0, 56, 59
1, 167465, Note_on_c, 0, 68, 75
1, 167505, Note_off_c, 0, 68, 62
1, 167534, Note_on_c, 0, 72, 75
1, 167566, Note_off_c, 0, 72, 70
1, 167620, Note_on_c, 0, 77, 88
1, 167683, Note_off_c, 0, 77, 54
1, 167689, Note_on_c, 0, 80, 74
1, 167735, Note_on_c, 0, 81, 44
1, 167737, Note_off_c, 0, 80, 58
1, 167759, Note_off_c, 0, 81, 60
1, 167763, Note_on_c, 0, 82, 74
1, 167791, Note_off_c, 0, 82, 67
1, 167792, Control_c, 0, 64, 86
1, 167806, Control_c, 0, 64, 67
1, 167821, Control_c, 0, 64, 52
1, 167825, Note_on_c, 0, 84, 83
1, 167834, Note_on_c, 0, 53, 62
1, 167836, Control_c, 0, 64, 38
1, 167850, Control_c, 0, 64, 29
1, 167865, Control_c, 0, 64, 9
1, 167866, Note_off_c, 0, 84, 66
1, 167868, Note_off_c, 0, 53, 64
1, 167880, Control_c, 0, 64, 0
1, 167999, Note_on_c, 0, 65, 59
1, 167999, Note_on_c, 0, 84, 77
1, 168004, Note_on_c, 0, 56, 53
1, 168031, Note_off_c, 0, 65, 65
1, 168037, Note_off_c, 0, 84, 60
1, 168049, Note_off_c, 0, 56, 61
1, 168050, Note_on_c, 0, 60, 3
1, 168059, Note_on_c, 0, 85, 74
1, 168089, Note_off_c, 0, 60, 36
1, 168107, Note_off_c, 0, 85, 63
1, 168118, Control_c, 0, 64, 9
1, 168121, Note_on_c, 0, 84, 86
1, 168128, Note_on_c, 0, 53, 64
1, 168132, Control_c, 0, 64, 11
1, 168147, Control_c, 0, 64, 12
1, 168159, Note_off_c, 0, 84, 66
1, 168169, Note_off_c, 0, 53, 65
1, 168177, Control_c, 0, 64, 13
1, 168206, Control_c, 0, 64, 15
1, 168221, Control_c, 0, 64, 16
1, 168259, Note_on_c, 0, 85, 81
1, 168282, Note_on_c, 0, 56, 61
1, 168283, Note_on_c, 0, 65, 53
1, 168285, Note_on_c, 0, 84, 89
1, 168290, Note_on_c, 0, 60, 53
1, 168295, Note_off_c, 0, 85, 66
1, 168295, Control_c, 0, 64, 17
1, 168321, Note_off_c, 0, 65, 63
1, 168330, Note_off_c, 0, 84, 66
1, 168332, Control_c, 0, 64, 17
1, 168335, Note_off_c, 0, 60, 65
1, 168336, Note_off_c, 0, 56, 60
1, 168347, Control_c, 0, 64, 18
1, 168424, Note_on_c, 0, 53, 69
1, 168434, Note_on_c, 0, 84, 86
1, 168475, Note_off_c, 0, 53, 59
1, 168487, Note_off_c, 0, 84, 64
1, 168494, Note_on_c, 0, 85, 76
1, 168551, Note_off_c, 0, 85, 65
1, 168572, Note_on_c, 0, 84, 78
1, 168579, Note_on_c, 0, 65, 60
1, 168590, Note_on_c, 0, 56, 48
1, 168604, Note_off_c, 0, 84, 61
1, 168616, Note_off_c, 0, 65, 63
1, 168631, Note_off_c, 0, 56, 63
1, 168644, Control_c, 0, 64, 19
1, 168746, Note_on_c, 0, 84, 64
1, 168755, Note_on_c, 0, 53, 48
1, 168786, Note_off_c, 0, 84, 58
1, 168816, Note_off_c, 0, 53, 51
1, 168829, Note_on_c, 0, 83, 67
1, 168852, Control_c, 0, 64, 20
1, 168867, Control_c, 0, 64, 21
1, 168870, Note_off_c, 0, 83, 60
1, 168881, Control_c, 0, 64, 21
1, 168896, Control_c, 0, 64, 22
1, 168902, Note_on_c, 0, 56, 46
1, 168908, Note_on_c, 0, 62, 37
1, 168908, Note_on_c, 0, 89, 74
1, 168911, Control_c, 0, 64, 23
1, 168926, Control_c, 0, 64, 24
1, 168939, Note_off_c, 0, 62, 55
1, 168941, Control_c, 0, 64, 24
1, 168950, Note_off_c, 0, 56, 61
1, 168959, Poly_aftertouch_c, 0, 59, 127
1, 168963, Note_off_c, 0, 89, 58
1, 168985, Control_c, 0, 64, 25
1, 168989, Note_on_c, 0, 83, 64
1, 169000, Poly_aftertouch_c, 0, 59, 0
1, 169023, Note_off_c, 0, 83, 61
1, 169029, Control_c, 0, 64, 25
1, 169058, Note_on_c, 0, 53, 53
1, 169062, Note_on_c, 0, 89, 60
1, 169096, Control_c, 0, 64, 26
1, 169097, Note_off_c, 0, 53, 64
1, 169114, Note_off_c, 0, 89, 58
1, 169139, Note_on_c, 0, 83, 57
1, 169176, Note_off_c, 0, 83, 62
1, 169209, Note_on_c, 0, 84, 60
1, 169219, Note_on_c, 0, 48, 52
1, 169237, Note_off_c, 0, 84, 65
1, 169254, Note_off_c, 0, 48, 64
1, 169388, Note_on_c, 0, 60, 49
1, 169393, Note_on_c, 0, 79, 78
1, 169396, Note_on_c, 0, 52, 45
1, 169396, Note_on_c, 0, 55, 43
1, 169427, Note_off_c, 0, 60, 62
1, 169436, Note_off_c, 0, 52, 62
1, 169440, Note_off_c, 0, 55, 62
1, 169542, Note_on_c, 0, 48, 55
1, 169591, Note_off_c, 0, 48, 58
1, 169674, Note_off_c, 0, 79, 57
1, 169680, Note_on_c, 0, 84, 83
1, 169686, Note_on_c, 0, 55, 55
1, 169692, Note_on_c, 0, 60, 55
1, 169695, Note_on_c, 0, 52, 53
1, 169712, Note_off_c, 0, 84, 67
1, 169722, Note_off_c, 0, 60, 64
1, 169726, Note_off_c, 0, 55, 64
1, 169731, Note_off_c, 0, 52, 66
1, 169830, Note_on_c, 0, 48, 64
1, 169838, Note_on_c, 0, 79, 87
1, 169876, Note_off_c, 0, 48, 61
1, 169880, Note_off_c, 0, 79, 65
1, 169970, Note_on_c, 0, 84, 92
1, 169973, Note_on_c, 0, 60, 64
1, 169978, Note_on_c, 0, 55, 59
1, 169985, Note_on_c, 0, 52, 47
1, 170002, Note_off_c, 0, 60, 67
1, 170011, Note_off_c, 0, 52, 59
1, 170018, Note_off_c, 0, 55, 65
1, 170020, Note_off_c, 0, 84, 66
1, 170023, Control_c, 0, 64, 26
1, 170037, Control_c, 0, 64, 27
1, 170052, Control_c, 0, 64, 28
1, 170067, Control_c, 0, 64, 29
1, 170082, Control_c, 0, 64, 30
1, 170097, Control_c, 0, 64, 30
1, 170122, Note_on_c, 0, 82, 87
1, 170126, Control_c, 0, 64, 31
1, 170136, Note_on_c, 0, 49, 64
1, 170172, Control_c, 0, 64, 31
1, 170184, Note_off_c, 0, 49, 60
1, 170187, Control_c, 0, 64, 32
1, 170281, Note_on_c, 0, 80, 67
1, 170289, Note_on_c, 0, 61, 57
1, 170294, Note_off_c, 0, 82, 55
1, 170295, Note_on_c, 0, 53, 49
1, 170324, Note_off_c, 0, 61, 64
1, 170334, Note_off_c, 0, 53, 62
1, 170339, Note_off_c, 0, 80, 60
1, 170348, Note_on_c, 0, 79, 67
1, 170349, Control_c, 0, 64, 30
1, 170364, Control_c, 0, 64, 27
1, 170379, Control_c, 0, 64, 22
1, 170394, Control_c, 0, 64, 12
1, 170396, Note_off_c, 0, 79, 57
1, 170408, Control_c, 0, 64, 0
1, 170429, Note_on_c, 0, 49, 56
1, 170432, Note_on_c, 0, 77, 63
1, 170464, Note_off_c, 0, 77, 66
1, 170466, Note_off_c, 0, 49, 63
1, 170584, Note_on_c, 0, 46, 57
1, 170592, Note_on_c, 0, 79, 69
1, 170648, Note_off_c, 0, 79, 61
1, 170667, Note_on_c, 0, 82, 66
1, 170714, Note_off_c, 0, 82, 59
1, 170733, Note_on_c, 0, 55, 59
1, 170738, Note_on_c, 0, 58, 66
1, 170747, Note_on_c, 0, 79, 71
1, 170752, Note_off_c, 0, 46, 62
1, 170774, Note_off_c, 0, 58, 64
1, 170776, Note_off_c, 0, 55, 65
1, 170781, Note_off_c, 0, 79, 62
1, 170819, Note_on_c, 0, 82, 68
1, 170861, Note_off_c, 0, 82, 62
1, 170890, Note_on_c, 0, 76, 70
1, 170891, Note_on_c, 0, 48, 60
1, 170892, Note_on_c, 0, 58, 65
1, 170922, Note_off_c, 0, 58, 65
1, 170931, Note_off_c, 0, 48, 60
1, 170939, Note_off_c, 0, 76, 61
1, 170966, Note_on_c, 0, 79, 73
1, 170980, Control_c, 0, 64, 52
1, 170995, Control_c, 0, 64, 71
1, 171010, Control_c, 0, 64, 101
1, 171010, Note_off_c, 0, 79, 65
1, 171024, Control_c, 0, 64, 127
1, 171033, Note_on_c, 0, 56, 74
1, 171040, Note_on_c, 0, 53, 70
1, 171049, Note_on_c, 0, 77, 89
1, 171062, Note_off_c, 0, 56, 68
1, 171070, Note_off_c, 0, 53, 65
1, 171071, Note_off_c, 0, 77, 69
1, 171209, Note_on_c, 0, 65, 107
1, 171281, Note_on_c, 0, 67, 97
1, 171328, Control_c, 0, 64, 100
1, 171343, Control_c, 0, 64, 82
1, 171357, Control_c, 0, 64, 70
1, 171361, Note_on_c, 0, 68, 85
1, 171369, Note_off_c, 0, 65, 57
1, 171372, Control_c, 0, 64, 61
1, 171387, Control_c, 0, 64, 50
1, 171388, Note_off_c, 0, 67, 65
1, 171402, Control_c, 0, 64, 36
1, 171417, Control_c, 0, 64, 0
1, 171426, Note_on_c, 0, 70, 91
1, 171434, Note_off_c, 0, 68, 66
1, 171503, Note_on_c, 0, 36, 97
1, 171507, Note_on_c, 0, 72, 101
1, 171524, Note_off_c, 0, 70, 58
1, 171548, Note_off_c, 0, 72, 70
1, 171558, Note_off_c, 0, 36, 63
1, 171667, Note_on_c, 0, 48, 84
1, 171669, Note_on_c, 0, 60, 85
1, 171708, Note_off_c, 0, 48, 61
1, 171713, Note_off_c, 0, 60, 63
1, 171818, Note_on_c, 0, 72, 99
1, 171823, Note_on_c, 0, 36, 85
1, 171842, Note_on_c, 0, 38, 54
1, 171851, Note_off_c, 0, 38, 47
1, 171858, Note_off_c, 0, 72, 67
1, 171873, Note_off_c, 0, 36, 61
1, 171976, Note_on_c, 0, 60, 89
1, 171981, Note_on_c, 0, 48, 80
1, 172012, Note_off_c, 0, 48, 68
1, 172015, Note_off_c, 0, 60, 66
1, 172135, Note_on_c, 0, 72, 103
1, 172136, Note_on_c, 0, 36, 93
1, 172171, Note_off_c, 0, 72, 68
1, 172189, Note_off_c, 0, 36, 62
1, 172301, Note_on_c, 0, 60, 63
1, 172315, Note_on_c, 0, 48, 55
1, 172333, Note_off_c, 0, 60, 67
1, 172345, Note_off_c, 0, 48, 63
1, 172464, Note_on_c, 0, 70, 63
1, 172467, Note_on_c, 0, 67, 43
1, 172476, Note_on_c, 0, 36, 49
1, 172492, Note_off_c, 0, 67, 54
1, 172501, Note_off_c, 0, 70, 60
1, 172512, Note_off_c, 0, 36, 63
1, 172646, Note_on_c, 0, 65, 51
1, 172648, Note_on_c, 0, 68, 46
1, 172655, Note_on_c, 0, 48, 46
1, 172689, Note_off_c, 0, 65, 63
1, 172690, Note_off_c, 0, 48, 60
1, 172694, Note_off_c, 0, 68, 60
1, 172718, Note_on_c, 0, 67, 56
1, 172721, Note_on_c, 0, 64, 59
1, 172756, Note_off_c, 0, 64, 61
1, 172784, Note_off_c, 0, 67, 63
1, 172804, Note_on_c, 0, 65, 54
1, 172809, Note_on_c, 0, 68, 50
1, 172810, Note_on_c, 0, 36, 46
1, 172844, Note_off_c, 0, 65, 62
1, 172853, Note_off_c, 0, 36, 61
1, 172862, Note_on_c, 0, 67, 60
1, 172879, Note_on_c, 0, 70, 67
1, 172890, Note_off_c, 0, 68, 60
1, 172894, Note_off_c, 0, 67, 64
1, 172941, Note_off_c, 0, 70, 62
1, 172950, Note_on_c, 0, 48, 61
1, 172952, Note_on_c, 0, 67, 70
1, 172954, Note_on_c, 0, 64, 62
1, 172987, Note_off_c, 0, 48, 63
1, 173111, Note_on_c, 0, 36, 72
1, 173149, Note_off_c, 0, 36, 65
1, 173252, Note_on_c, 0, 48, 89
1, 173264, Note_off_c, 0, 64, 63
1, 173284, Note_off_c, 0, 67, 65
1, 173286, Note_off_c, 0, 48, 66
1, 173407, Note_on_c, 0, 72, 110
1, 173410, Note_on_c, 0, 36, 90
1, 173445, Note_off_c, 0, 72, 66
1, 173453, Note_off_c, 0, 36, 61
1, 173565, Note_on_c, 0, 60, 91
1, 173566, Note_on_c, 0, 48, 90
1, 173609, Note_off_c, 0, 60, 66
1, 173613, Note_off_c, 0, 48, 64
1, 173710, Note_on_c, 0, 72, 107
1, 173713, Note_on_c, 0, 36, 92
1, 173868, Note_off_c, 0, 36, 61
1, 173870, Note_off_c, 0, 72, 62
1, 173871, Note_on_c, 0, 73, 88
1, 173872, Note_on_c, 0, 37, 67
1, 173903, Note_off_c, 0, 37, 63
1, 173910, Note_off_c, 0, 73, 67
1, 174038, Note_on_c, 0, 49, 53
1, 174039, Note_on_c, 0, 61, 66
1, 174071, Note_off_c, 0, 49, 65
1, 174078, Note_off_c, 0, 61, 60
1, 174185, Note_on_c, 0, 73, 67
1, 174188, Note_on_c, 0, 37, 48
1, 174223, Note_off_c, 0, 73, 61
1, 174226, Note_off_c, 0, 37, 60
1, 174369, Note_on_c, 0, 36, 45
1, 174379, Note_on_c, 0, 72, 38
1, 174387, Note_on_c, 0, 68, 55
1, 174430, Note_off_c, 0, 68, 63
1, 174452, Note_off_c, 0, 72, 56
1, 174455, Note_on_c, 0, 70, 58
1, 174468, Note_on_c, 0, 67, 43
1, 174468, Note_off_c, 0, 36, 37
1, 174505, Note_off_c, 0, 67, 59
1, 174513, Note_off_c, 0, 70, 60
1, 174524, Note_on_c, 0, 48, 61
1, 174539, Note_on_c, 0, 68, 58
1, 174540, Note_on_c, 0, 65, 55
1, 174562, Note_off_c, 0, 48, 62
1, 174570, Note_off_c, 0, 68, 64
1, 174574, Note_off_c, 0, 65, 65
1, 174596, Note_on_c, 0, 67, 63
1, 174606, Note_on_c, 0, 70, 57
1, 174642, Note_off_c, 0, 67, 60
1, 174646, Note_off_c, 0, 70, 63
1, 174659, Note_on_c, 0, 68, 46
1, 174665, Note_on_c, 0, 36, 53
1, 174681, Note_on_c, 0, 65, 63
1, 174682, Note_off_c, 0, 68, 58
1, 174715, Note_off_c, 0, 65, 62
1, 174750, Note_off_c, 0, 36, 52
1, 174753, Note_on_c, 0, 67, 66
1, 174764, Note_on_c, 0, 64, 61
1, 174782, Note_off_c, 0, 67, 66
1, 174796, Note_off_c, 0, 64, 66
1, 174797, Control_c, 0, 64, 41
1, 174810, Note_on_c, 0, 41, 69
1, 174810, Note_on_c, 0, 65, 80
1, 174812, Control_c, 0, 64, 66
1, 174827, Control_c, 0, 64, 79
1, 174841, Control_c, 0, 64, 127
1, 174842, Note_off_c, 0, 41, 64
1, 174845, Note_off_c, 0, 65, 62
1, 174978, Note_on_c, 0, 77, 102
1, 175038, Note_on_c, 0, 79, 38
1, 175061, Note_off_c, 0, 77, 63
1, 175127, Note_on_c, 0, 80, 90
1, 175151, Note_off_c, 0, 79, 66
1, 175189, Note_on_c, 0, 82, 91
1, 175195, Note_off_c, 0, 80, 67
1, 175205, Control_c, 0, 64, 86
1, 175220, Control_c, 0, 64, 62
1, 175235, Control_c, 0, 64, 32
1, 175250, Control_c, 0, 64, 0
1, 175257, Note_on_c, 0, 48, 85
1, 175262, Note_on_c, 0, 84, 97
1, 175284, Note_off_c, 0, 82, 64
1, 175296, Note_off_c, 0, 84, 66
1, 175302, Note_off_c, 0, 48, 61
1, 175428, Note_on_c, 0, 72, 84
1, 175429, Note_on_c, 0, 60, 75
1, 175459, Note_off_c, 0, 60, 65
1, 175466, Note_off_c, 0, 72, 65
1, 175571, Note_on_c, 0, 48, 86
1, 175572, Note_on_c, 0, 84, 102
1, 175614, Note_off_c, 0, 84, 68
1, 175617, Note_off_c, 0, 48, 64
1, 175731, Note_on_c, 0, 60, 76
1, 175731, Note_on_c, 0, 72, 85
1, 175762, Note_off_c, 0, 60, 65
1, 175774, Note_off_c, 0, 72, 65
1, 175890, Note_on_c, 0, 48, 83
1, 175892, Note_on_c, 0, 84, 104
1, 175930, Note_off_c, 0, 84, 68
1, 175937, Note_off_c, 0, 48, 62
1, 176048, Note_on_c, 0, 60, 65
1, 176057, Note_on_c, 0, 72, 63
1, 176077, Note_off_c, 0, 60, 66
1, 176091, Note_off_c, 0, 72, 63
1, 176202, Note_on_c, 0, 79, 57
1, 176202, Note_on_c, 0, 82, 64
1, 176206, Note_on_c, 0, 47, 60
1, 176229, Note_off_c, 0, 79, 66
1, 176238, Note_off_c, 0, 82, 65
1, 176244, Note_off_c, 0, 47, 64
1, 176367, Note_on_c, 0, 77, 62
1, 176369, Note_on_c, 0, 80, 60
1, 176382, Note_on_c, 0, 59, 54
1, 176410, Note_off_c, 0, 80, 61
1, 176415, Note_off_c, 0, 59, 64
1, 176420, Note_off_c, 0, 77, 56
1, 176449, Note_on_c, 0, 79, 63
1, 176456, Note_on_c, 0, 76, 54
1, 176491, Note_off_c, 0, 76, 60
1, 176497, Note_off_c, 0, 79, 64
1, 176519, Note_on_c, 0, 80, 57
1, 176519, Note_on_c, 0, 47, 50
1, 176525, Note_on_c, 0, 77, 62
1, 176564, Note_off_c, 0, 47, 62
1, 176573, Note_off_c, 0, 77, 60
1, 176587, Note_on_c, 0, 79, 67
1, 176611, Note_on_c, 0, 82, 65
1, 176615, Note_off_c, 0, 80, 60
1, 176617, Note_off_c, 0, 79, 67
1, 176674, Note_on_c, 0, 76, 67
1, 176680, Note_on_c, 0, 60, 59
1, 176680, Note_off_c, 0, 82, 61
1, 176681, Note_on_c, 0, 79, 66
1, 176715, Note_off_c, 0, 60, 63
1, 176841, Note_on_c, 0, 48, 68
1, 176878, Note_off_c, 0, 48, 65
1, 176956, Note_off_c, 0, 76, 57
1, 176993, Note_off_c, 0, 79, 59
1, 176996, Note_on_c, 0, 60, 88
1, 177034, Note_off_c, 0, 60, 67
1, 177143, Note_on_c, 0, 84, 109
1, 177146, Note_on_c, 0, 48, 94
1, 177182, Note_off_c, 0, 84, 68
1, 177184, Note_off_c, 0, 48, 66
1, 177186, Note_on_c, 0, 47, 35
1, 177187, Note_off_c, 0, 47, 127
1, 177305, Note_on_c, 0, 60, 93
1, 177306, Note_on_c, 0, 72, 94
1, 177351, Note_off_c, 0, 60, 65
1, 177351, Note_off_c, 0, 72, 66
1, 177454, Note_on_c, 0, 48, 90
1, 177454, Note_on_c, 0, 84, 108
1, 177612, Note_off_c, 0, 48, 65
1, 177616, Note_on_c, 0, 85, 92
1, 177617, Note_on_c, 0, 49, 71
1, 177619, Note_off_c, 0, 84, 63
1, 177655, Note_off_c, 0, 49, 64
1, 177655, Note_off_c, 0, 85, 69
1, 177786, Note_on_c, 0, 61, 66
1, 177788, Note_on_c, 0, 73, 62
1, 177817, Note_off_c, 0, 61, 64
1, 177821, Note_off_c, 0, 73, 64
1, 177960, Note_on_c, 0, 49, 49
1, 177960, Note_on_c, 0, 85, 64
1, 177989, Note_off_c, 0, 85, 68
1, 178044, Note_off_c, 0, 49, 59
1, 178051, Control_c, 0, 64, 9
1, 178081, Control_c, 0, 64, 11
1, 178096, Control_c, 0, 64, 12
1, 178110, Control_c, 0, 64, 16
1, 178125, Control_c, 0, 64, 17
1, 178140, Control_c, 0, 64, 17
1, 178155, Control_c, 0, 64, 18
1, 178173, Note_on_c, 0, 49, 48
1, 178178, Note_on_c, 0, 70, 59
1, 178183, Note_on_c, 0, 73, 53
1, 178215, Control_c, 0, 64, 19
1, 178242, Note_off_c, 0, 70, 62
1, 178245, Control_c, 0, 64, 20
1, 178257, Note_off_c, 0, 73, 63
1, 178263, Note_on_c, 0, 68, 63
1, 178274, Note_on_c, 0, 71, 57
1, 178305, Note_off_c, 0, 68, 63
1, 178310, Note_off_c, 0, 49, 58
1, 178337, Note_on_c, 0, 70, 67
1, 178341, Note_off_c, 0, 71, 65
1, 178346, Note_on_c, 0, 61, 50
1, 178351, Note_on_c, 0, 66, 64
1, 178367, Note_off_c, 0, 70, 64
1, 178394, Note_off_c, 0, 66, 61
1, 178402, Note_on_c, 0, 68, 71
1, 178420, Note_off_c, 0, 61, 50
1, 178432, Note_on_c, 0, 71, 46
1, 178450, Note_off_c, 0, 68, 57
1, 178462, Note_off_c, 0, 71, 63
1, 178471, Note_on_c, 0, 70, 69
1, 178483, Note_on_c, 0, 49, 49
1, 178485, Note_on_c, 0, 66, 72
1, 178497, Note_off_c, 0, 70, 67
1, 178509, Note_off_c, 0, 66, 67
1, 178564, Note_on_c, 0, 68, 67
1, 178573, Note_on_c, 0, 65, 68
1, 178604, Note_off_c, 0, 49, 52
1, 178620, Note_on_c, 0, 70, 79
1, 178622, Note_on_c, 0, 61, 71
1, 178624, Note_on_c, 0, 66, 67
1, 178632, Note_off_c, 0, 65, 56
1, 178646, Note_off_c, 0, 68, 61
1, 178653, Note_off_c, 0, 66, 68
1, 178656, Note_off_c, 0, 61, 63
1, 178659, Control_c, 0, 64, 18
1, 178660, Note_off_c, 0, 70, 65
1, 178674, Control_c, 0, 64, 16
1, 178689, Control_c, 0, 64, 15
1, 178733, Control_c, 0, 64, 13
1, 178766, Note_on_c, 0, 49, 57
1, 178775, Note_on_c, 0, 70, 88
1, 178787, Note_on_c, 0, 66, 81
1, 178822, Note_off_c, 0, 66, 61
1, 178835, Note_off_c, 0, 70, 64
1, 178853, Note_off_c, 0, 49, 58
1, 178874, Control_c, 0, 64, 12
1, 178889, Control_c, 0, 64, 9
1, 178903, Control_c, 0, 64, 0
1, 178924, Note_on_c, 0, 66, 90
1, 178926, Note_on_c, 0, 70, 94
1, 178933, Note_on_c, 0, 61, 78
1, 178968, Note_off_c, 0, 66, 63
1, 178976, Note_off_c, 0, 70, 65
1, 178989, Note_off_c, 0, 61, 61
1, 179079, Note_on_c, 0, 49, 69
1, 179079, Note_on_c, 0, 71, 94
1, 179081, Note_on_c, 0, 65, 90
1, 179081, Note_on_c, 0, 68, 91
1, 179112, Note_off_c, 0, 65, 64
1, 179123, Note_off_c, 0, 71, 63
1, 179127, Note_off_c, 0, 68, 62
1, 179154, Note_off_c, 0, 49, 57
1, 179228, Note_on_c, 0, 71, 91
1, 179230, Note_on_c, 0, 65, 91
1, 179232, Note_on_c, 0, 68, 88
1, 179238, Note_on_c, 0, 61, 79
1, 179263, Note_off_c, 0, 65, 62
1, 179277, Note_off_c, 0, 71, 63
1, 179282, Note_off_c, 0, 68, 62
1, 179306, Note_off_c, 0, 61, 58
1, 179374, Note_on_c, 0, 71, 100
1, 179378, Note_on_c, 0, 65, 87
1, 179383, Note_on_c, 0, 68, 85
1, 179386, Note_on_c, 0, 49, 75
1, 179400, Note_off_c, 0, 65, 70
1, 179412, Note_off_c, 0, 68, 65
1, 179421, Note_off_c, 0, 71, 65
1, 179526, Control_c, 0, 64, 12
1, 179549, Control_c, 0, 64, 29
1, 179552, Note_on_c, 0, 77, 96
1, 179552, Note_on_c, 0, 80, 93
1, 179553, Note_on_c, 0, 83, 94
1, 179554, Note_on_c, 0, 61, 83
1, 179563, Control_c, 0, 64, 47
1, 179578, Control_c, 0, 64, 59
1, 179588, Note_off_c, 0, 77, 63
1, 179593, Control_c, 0, 64, 66
1, 179595, Note_off_c, 0, 83, 66
1, 179601, Note_off_c, 0, 80, 64
1, 179602, Note_off_c, 0, 49, 36
1, 179608, Control_c, 0, 64, 80
1, 179623, Control_c, 0, 64, 127
1, 179657, Note_off_c, 0, 61, 57
1, 179703, Note_on_c, 0, 49, 72
1, 179704, Note_on_c, 0, 77, 93
1, 179705, Note_on_c, 0, 80, 90
1, 179707, Note_on_c, 0, 83, 96
1, 179711, Control_c, 0, 64, 110
1, 179726, Control_c, 0, 64, 77
1, 179742, Control_c, 0, 64, 64
1, 179745, Note_off_c, 0, 77, 63
1, 179757, Note_off_c, 0, 83, 64
1, 179757, Control_c, 0, 64, 62
1, 179760, Note_off_c, 0, 80, 64
1, 179764, Poly_aftertouch_c, 0, 55, 127
1, 179772, Control_c, 0, 64, 67
1, 179786, Control_c, 0, 64, 81
1, 179801, Control_c, 0, 64, 117
1, 179816, Control_c, 0, 64, 127
1, 179845, Note_off_c, 0, 49, 58
1, 179859, Poly_aftertouch_c, 0, 53, 127
1, 179860, Note_on_c, 0, 80, 87
1, 179860, Note_on_c, 0, 83, 95
1, 179861, Note_on_c, 0, 77, 88
1, 179869, Note_on_c, 0, 61, 90
1, 179885, Note_off_c, 0, 77, 68
1, 179904, Note_off_c, 0, 80, 63
1, 179905, Note_off_c, 0, 83, 68
1, 179926, Note_off_c, 0, 61, 61
1, 179934, Poly_aftertouch_c, 0, 55, 0
1, 179950, Poly_aftertouch_c, 0, 53, 0
1, 180024, Control_c, 0, 64, 123
1, 180039, Control_c, 0, 64, 74
1, 180054, Control_c, 0, 64, 64
1, 180065, Note_on_c, 0, 48, 76
1, 180068, Control_c, 0, 64, 69
1, 180069, Note_on_c, 0, 96, 85
1, 180069, Note_on_c, 0, 92, 93
1, 180083, Control_c, 0, 64, 84
1, 180098, Control_c, 0, 64, 127
1, 180132, Note_on_c, 0, 94, 88
1, 180141, Note_off_c, 0, 92, 65
1, 180160, Note_on_c, 0, 91, 72
1, 180165, Note_off_c, 0, 96, 64
1, 180193, Note_off_c, 0, 48, 57
1, 180212, Note_on_c, 0, 89, 82
1, 180215, Note_off_c, 0, 91, 64
1, 180215, Note_on_c, 0, 92, 81
1, 180220, Note_off_c, 0, 94, 64
1, 180223, Note_on_c, 0, 60, 78
1, 180244, Note_off_c, 0, 92, 64
1, 180266, Note_off_c, 0, 89, 58
1, 180287, Note_on_c, 0, 91, 80
1, 180290, Note_on_c, 0, 94, 86
1, 180292, Note_off_c, 0, 60, 61
1, 180334, Note_on_c, 0, 92, 78
1, 180335, Note_on_c, 0, 48, 70
1, 180338, Note_off_c, 0, 91, 64
1, 180349, Note_off_c, 0, 94, 64
1, 180361, Note_on_c, 0, 89, 89
1, 180363, Note_off_c, 0, 92, 67
1, 180412, Note_off_c, 0, 89, 57
1, 180423, Note_on_c, 0, 88, 82
1, 180426, Note_on_c, 0, 91, 87
1, 180442, Note_off_c, 0, 48, 60
1, 180459, Note_on_c, 0, 89, 18
1, 180469, Note_on_c, 0, 53, 89
1, 180476, Note_off_c, 0, 91, 63
1, 180478, Note_off_c, 0, 88, 64
1, 180483, Note_off_c, 0, 89, 0
1, 180483, Note_on_c, 0, 89, 36
1, 180496, Note_off_c, 0, 53, 67
1, 180541, Note_off_c, 0, 89, 65
1, 180595, Control_c, 0, 64, 98
1, 180609, Control_c, 0, 64, 63
1, 180624, Control_c, 0, 64, 0
1, 180653, Note_on_c, 0, 64, 103
1, 180653, Note_on_c, 0, 91, 100
1, 180654, Control_c, 0, 64, 29
1, 180656, Note_on_c, 0, 53, 96
1, 180658, Note_on_c, 0, 61, 91
1, 180663, Note_on_c, 0, 58, 87
1, 180669, Control_c, 0, 64, 61
1, 180683, Control_c, 0, 64, 73
1, 180698, Control_c, 0, 64, 127
1, 180705, Note_off_c, 0, 91, 66
1, 180713, Note_on_c, 0, 92, 82
1, 180764, Note_off_c, 0, 92, 65
1, 180772, Note_on_c, 0, 91, 87
1, 180824, Note_off_c, 0, 91, 63
1, 180835, Note_on_c, 0, 92, 80
1, 180875, Note_off_c, 0, 92, 62
1, 180881, Note_on_c, 0, 91, 77
1, 180935, Note_off_c, 0, 91, 64
1, 180946, Note_on_c, 0, 92, 81
1, 180990, Note_on_c, 0, 91, 80
1, 180991, Note_off_c, 0, 92, 64
1, 181039, Note_off_c, 0, 64, 57
1, 181042, Note_off_c, 0, 53, 55
1, 181048, Note_off_c, 0, 91, 64
1, 181065, Note_on_c, 0, 90, 75
1, 181077, Note_off_c, 0, 61, 59
1, 181088, Note_off_c, 0, 90, 70
1, 181092, Note_off_c, 0, 58, 55
1, 181112, Note_on_c, 0, 91, 90
1, 181165, Note_off_c, 0, 91, 64
1, 181184, Note_on_c, 0, 92, 87
1, 181232, Poly_aftertouch_c, 0, 58, 127
1, 181234, Note_off_c, 0, 92, 66
1, 181239, Control_c, 0, 64, 82
1, 181241, Note_on_c, 0, 91, 94
1, 181254, Control_c, 0, 64, 64
1, 181267, Note_on_c, 0, 65, 92
1, 181269, Control_c, 0, 64, 44
1, 181270, Poly_aftertouch_c, 0, 58, 0
1, 181271, Note_on_c, 0, 53, 83
1, 181275, Note_on_c, 0, 56, 76
1, 181276, Note_on_c, 0, 60, 63
1, 181284, Control_c, 0, 64, 0
1, 181287, Note_off_c, 0, 91, 63
1, 181291, Note_on_c, 0, 89, 97
1, 181317, Note_off_c, 0, 65, 63
1, 181318, Note_off_c, 0, 60, 64
1, 181328, Note_off_c, 0, 53, 62
1, 181335, Note_off_c, 0, 89, 66
1, 181443, Note_off_c, 0, 56, 64
1, 181462, Control_c, 0, 64, 15
1, 181473, Note_on_c, 0, 64, 103
1, 181476, Note_on_c, 0, 61, 98
1, 181477, Control_c, 0, 64, 60
1, 181478, Note_on_c, 0, 58, 88
1, 181479, Note_on_c, 0, 53, 89
1, 181480, Note_on_c, 0, 79, 102
1, 181492, Control_c, 0, 64, 72
1, 181506, Control_c, 0, 64, 105
1, 181521, Control_c, 0, 64, 127
1, 181525, Note_off_c, 0, 79, 67
1, 181552, Note_on_c, 0, 80, 74
1, 181605, Note_off_c, 0, 80, 63
1, 181609, Note_on_c, 0, 79, 83
1, 181662, Note_off_c, 0, 79, 63
1, 181673, Note_on_c, 0, 80, 78
1, 181716, Note_off_c, 0, 80, 59
1, 181733, Note_on_c, 0, 79, 78
1, 181791, Note_off_c, 0, 79, 63
1, 181798, Note_on_c, 0, 80, 78
1, 181831, Note_off_c, 0, 80, 61
1, 181839, Note_off_c, 0, 64, 52
1, 181846, Note_on_c, 0, 79, 74
1, 181849, Note_off_c, 0, 53, 54
1, 181896, Note_off_c, 0, 79, 64
1, 181900, Note_off_c, 0, 61, 52
1, 181908, Note_on_c, 0, 78, 71
1, 181953, Note_off_c, 0, 78, 63
1, 181959, Note_on_c, 0, 79, 81
1, 182006, Note_off_c, 0, 79, 65
1, 182024, Note_on_c, 0, 80, 79
1, 182079, Note_on_c, 0, 79, 83
1, 182082, Note_off_c, 0, 80, 66
1, 182091, Control_c, 0, 64, 94
1, 182106, Control_c, 0, 64, 78
1, 182117, Note_on_c, 0, 65, 91
1, 182121, Control_c, 0, 64, 67
1, 182123, Note_off_c, 0, 79, 64
1, 182123, Note_on_c, 0, 56, 72
1, 182124, Note_on_c, 0, 53, 76
1, 182128, Note_on_c, 0, 77, 92
1, 182129, Note_off_c, 0, 58, 39
1, 182137, Control_c, 0, 64, 61
1, 182151, Note_on_c, 0, 60, 27
1, 182152, Control_c, 0, 64, 56
1, 182167, Control_c, 0, 64, 50
1, 182172, Note_off_c, 0, 77, 66
1, 182174, Note_off_c, 0, 60, 52
1, 182181, Control_c, 0, 64, 45
1, 182196, Control_c, 0, 64, 36
1, 182209, Note_off_c, 0, 65, 54
1, 182211, Control_c, 0, 64, 0
1, 182220, Note_off_c, 0, 53, 58
1, 182275, Note_off_c, 0, 56, 64
1, 182310, Note_on_c, 0, 64, 105
1, 182313, Note_on_c, 0, 61, 97
1, 182314, Note_on_c, 0, 91, 104
1, 182315, Control_c, 0, 64, 41
1, 182319, Note_on_c, 0, 58, 88
1, 182321, Note_on_c, 0, 53, 89
1, 182329, Control_c, 0, 64, 52
1, 182344, Control_c, 0, 64, 54
1, 182359, Control_c, 0, 64, 55
1, 182364, Note_off_c, 0, 91, 67
1, 182370, Note_on_c, 0, 92, 77
1, 182374, Control_c, 0, 64, 57
1, 182388, Control_c, 0, 64, 61
1, 182400, Note_off_c, 0, 92, 61
1, 182403, Control_c, 0, 64, 65
1, 182418, Control_c, 0, 64, 70
1, 182426, Note_on_c, 0, 91, 76
1, 182433, Control_c, 0, 64, 76
1, 182448, Control_c, 0, 64, 81
1, 182455, Note_off_c, 0, 91, 67
1, 182463, Control_c, 0, 64, 82
1, 182469, Note_on_c, 0, 92, 83
1, 182478, Control_c, 0, 64, 79
1, 182492, Control_c, 0, 64, 75
1, 182507, Control_c, 0, 64, 71
1, 182508, Note_off_c, 0, 92, 64
1, 182509, Note_on_c, 0, 91, 79
1, 182522, Control_c, 0, 64, 67
1, 182544, Control_c, 0, 64, 65
1, 182556, Note_off_c, 0, 91, 66
1, 182559, Control_c, 0, 64, 64
1, 182562, Note_on_c, 0, 90, 74
1, 182574, Control_c, 0, 64, 63
1, 182588, Control_c, 0, 64, 62
1, 182603, Control_c, 0, 64, 61
1, 182605, Note_off_c, 0, 90, 59
1, 182618, Note_on_c, 0, 91, 69
1, 182618, Control_c, 0, 64, 60
1, 182626, Note_on_c, 0, 92, 81
1, 182633, Control_c, 0, 64, 58
1, 182648, Control_c, 0, 64, 57
1, 182649, Note_off_c, 0, 91, 66
1, 182662, Control_c, 0, 64, 54
1, 182673, Note_on_c, 0, 94, 84
1, 182677, Control_c, 0, 64, 50
1, 182683, Note_off_c, 0, 92, 66
1, 182692, Note_off_c, 0, 94, 71
1, 182692, Control_c, 0, 64, 49
1, 182722, Note_on_c, 0, 96, 91
1, 182764, Note_on_c, 0, 97, 83
1, 182773, Note_off_c, 0, 96, 66
1, 182796, Note_on_c, 0, 100, 77
1, 182811, Control_c, 0, 64, 50
1, 182819, Note_off_c, 0, 97, 64
1, 182822, Note_on_c, 0, 101, 87
1, 182826, Note_off_c, 0, 100, 66
1, 182826, Control_c, 0, 64, 50
1, 182865, Note_on_c, 0, 103, 42
1, 182870, Control_c, 0, 64, 51
1, 182877, Note_on_c, 0, 100, 80
1, 182885, Control_c, 0, 64, 52
1, 182894, Note_off_c, 0, 103, 50
1, 182900, Control_c, 0, 64, 52
1, 182902, Note_on_c, 0, 97, 84
1, 182907, Note_off_c, 0, 101, 66
1, 182920, Note_off_c, 0, 100, 66
1, 182939, Note_on_c, 0, 96, 85
1, 182940, Note_off_c, 0, 97, 65
1, 182942, Note_off_c, 0, 61, 58
1, 182948, Note_off_c, 0, 64, 56
1, 182960, Control_c, 0, 64, 53
1, 182975, Control_c, 0, 64, 53
1, 182981, Note_off_c, 0, 96, 66
1, 182995, Note_off_c, 0, 53, 47
1, 182996, Note_on_c, 0, 94, 92
1, 183004, Control_c, 0, 64, 54
1, 183034, Control_c, 0, 64, 53
1, 183051, Note_on_c, 0, 93, 67
1, 183063, Note_on_c, 0, 91, 85
1, 183078, Note_off_c, 0, 94, 63
1, 183080, Note_off_c, 0, 93, 65
1, 183092, Poly_aftertouch_c, 0, 60, 127
1, 183093, Control_c, 0, 64, 54
1, 183103, Note_on_c, 0, 65, 100
1, 183103, Note_on_c, 0, 89, 94
1, 183107, Note_on_c, 0, 53, 84
1, 183108, Control_c, 0, 64, 53
1, 183110, Note_on_c, 0, 56, 83
1, 183111, Note_off_c, 0, 91, 65
1, 183118, Note_off_c, 0, 58, 62
1, 183123, Control_c, 0, 64, 53
1, 183132, Poly_aftertouch_c, 0, 60, 0
1, 183138, Control_c, 0, 64, 52
1, 183148, Note_off_c, 0, 89, 66
1, 183156, Note_off_c, 0, 65, 59
1, 183166, Note_off_c, 0, 53, 62
1, 183182, Control_c, 0, 64, 53
1, 183226, Control_c, 0, 64, 52
1, 183247, Note_off_c, 0, 56, 63
1, 183292, Note_on_c, 0, 64, 105
1, 183292, Note_on_c, 0, 79, 87
1, 183294, Note_on_c, 0, 61, 91
1, 183298, Note_on_c, 0, 53, 84
1, 183298, Note_on_c, 0, 58, 87
1, 183338, Control_c, 0, 64, 52
1, 183343, Note_off_c, 0, 79, 65
1, 183352, Note_on_c, 0, 80, 74
1, 183382, Note_off_c, 0, 80, 62
1, 183410, Note_on_c, 0, 79, 73
1, 183411, Control_c, 0, 64, 51
1, 183436, Note_off_c, 0, 79, 70
1, 183449, Note_on_c, 0, 80, 79
1, 183485, Control_c, 0, 64, 52
1, 183494, Note_off_c, 0, 80, 61
1, 183501, Note_on_c, 0, 79, 77
1, 183515, Control_c, 0, 64, 52
1, 183530, Note_off_c, 0, 79, 66
1, 183541, Note_on_c, 0, 78, 78
1, 183578, Note_off_c, 0, 78, 63
1, 183597, Note_on_c, 0, 79, 65
1, 183604, Control_c, 0, 64, 53
1, 183611, Note_on_c, 0, 80, 73
1, 183619, Control_c, 0, 64, 53
1, 183632, Note_off_c, 0, 79, 65
1, 183634, Control_c, 0, 64, 54
1, 183649, Control_c, 0, 64, 54
1, 183660, Note_on_c, 0, 82, 83
1, 183664, Control_c, 0, 64, 55
1, 183668, Note_off_c, 0, 80, 66
1, 183678, Control_c, 0, 64, 55
1, 183679, Note_off_c, 0, 82, 71
1, 183719, Note_on_c, 0, 84, 85
1, 183723, Control_c, 0, 64, 56
1, 183765, Note_off_c, 0, 84, 63
1, 183766, Note_on_c, 0, 85, 75
1, 183807, Note_on_c, 0, 88, 71
1, 183819, Note_off_c, 0, 85, 65
1, 183828, Note_on_c, 0, 89, 73
1, 183842, Note_off_c, 0, 88, 68
1, 183871, Note_off_c, 0, 89, 65
1, 183883, Note_on_c, 0, 91, 76
1, 183926, Note_on_c, 0, 89, 74
1, 183932, Control_c, 0, 64, 55
1, 183957, Note_off_c, 0, 91, 64
1, 183958, Note_on_c, 0, 88, 69
1, 183962, Control_c, 0, 64, 55
1, 183999, Note_on_c, 0, 85, 83
1, 184001, Note_off_c, 0, 89, 62
1, 184002, Note_off_c, 0, 88, 64
1, 184006, Control_c, 0, 64, 54
1, 184021, Control_c, 0, 64, 54
1, 184045, Note_off_c, 0, 85, 66
1, 184048, Note_on_c, 0, 84, 78
1, 184057, Control_c, 0, 64, 53
1, 184086, Note_off_c, 0, 84, 65
1, 184087, Control_c, 0, 64, 53
1, 184103, Note_on_c, 0, 82, 84
1, 184147, Note_on_c, 0, 80, 78
1, 184177, Control_c, 0, 64, 52
1, 184193, Note_on_c, 0, 79, 84
1, 184193, Note_off_c, 0, 82, 63
1, 184213, Note_off_c, 0, 80, 63
1, 184238, Note_off_c, 0, 79, 65
1, 184241, Note_on_c, 0, 77, 76
1, 184278, Note_off_c, 0, 77, 62
1, 184293, Note_on_c, 0, 76, 84
1, 184310, Control_c, 0, 64, 52
1, 184346, Note_on_c, 0, 73, 83
1, 184353, Note_off_c, 0, 76, 65
1, 184354, Control_c, 0, 64, 51
1, 184388, Note_off_c, 0, 73, 66
1, 184399, Note_on_c, 0, 72, 73
1, 184399, Control_c, 0, 64, 51
1, 184414, Control_c, 0, 64, 49
1, 184425, Note_off_c, 0, 72, 69
1, 184428, Control_c, 0, 64, 48
1, 184443, Control_c, 0, 64, 45
1, 184454, Note_on_c, 0, 70, 75
1, 184458, Control_c, 0, 64, 43
1, 184473, Control_c, 0, 64, 39
1, 184488, Control_c, 0, 64, 33
1, 184502, Control_c, 0, 64, 26
1, 184512, Note_on_c, 0, 68, 72
1, 184517, Control_c, 0, 64, 17
1, 184529, Note_off_c, 0, 70, 63
1, 184533, Control_c, 0, 64, 0
1, 184555, Note_off_c, 0, 68, 62
1, 184569, Note_on_c, 0, 67, 73
1, 184606, Note_off_c, 0, 67, 65
1, 184629, Note_on_c, 0, 66, 59
1, 184665, Note_off_c, 0, 66, 65
1, 184689, Note_on_c, 0, 67, 69
1, 184729, Note_off_c, 0, 67, 63
1, 184779, Note_on_c, 0, 68, 59
1, 184815, Note_off_c, 0, 68, 64
1, 184847, Note_on_c, 0, 69, 63
1, 184888, Note_off_c, 0, 69, 61
1, 184926, Note_on_c, 0, 70, 58
1, 184973, Note_off_c, 0, 64, 20
1, 184973, Note_off_c, 0, 70, 62
1, 185011, Note_on_c, 0, 71, 63
1, 185013, Note_off_c, 0, 53, 43
1, 185023, Note_off_c, 0, 61, 56
1, 185035, Note_off_c, 0, 58, 59
1, 185062, Note_off_c, 0, 71, 54
1, 185099, Note_on_c, 0, 72, 56
1, 185177, Note_off_c, 0, 72, 61
1, 185186, Note_on_c, 0, 73, 57
1, 185238, Note_off_c, 0, 73, 57
1, 185259, Note_on_c, 0, 53, 52
1, 185294, Note_off_c, 0, 53, 64
1, 185296, Note_on_c, 0, 72, 40
1, 185324, Note_off_c, 0, 72, 54
1, 185468, Note_on_c, 0, 65, 43
1, 185469, Note_on_c, 0, 56, 41
1, 185474, Note_on_c, 0, 72, 50
1, 185497, Note_off_c, 0, 65, 57
1, 185509, Note_off_c, 0, 72, 65
1, 185510, Note_off_c, 0, 56, 61
1, 185548, Note_on_c, 0, 73, 60
1, 185580, Note_off_c, 0, 73, 66
1, 185599, Note_on_c, 0, 72, 72
1, 185607, Note_on_c, 0, 53, 54
1, 185614, Control_c, 0, 64, 9
1, 185638, Note_off_c, 0, 72, 64
1, 185644, Note_off_c, 0, 53, 63
1, 185644, Control_c, 0, 64, 11
1, 185659, Control_c, 0, 64, 15
1, 185674, Control_c, 0, 64, 17
1, 185688, Control_c, 0, 64, 18
1, 185733, Control_c, 0, 64, 19
1, 185749, Note_on_c, 0, 73, 68
1, 185769, Note_off_c, 0, 73, 65
1, 185771, Note_on_c, 0, 65, 63
1, 185777, Note_on_c, 0, 56, 55
1, 185780, Note_on_c, 0, 72, 79
1, 185804, Note_off_c, 0, 65, 63
1, 185815, Note_off_c, 0, 72, 64
1, 185821, Note_off_c, 0, 56, 63
1, 185846, Poly_aftertouch_c, 0, 60, 0
1, 185917, Note_on_c, 0, 72, 76
1, 185926, Note_on_c, 0, 53, 52
1, 185971, Note_off_c, 0, 72, 62
1, 185983, Note_off_c, 0, 53, 59
1, 185998, Note_on_c, 0, 73, 66
1, 186038, Note_off_c, 0, 73, 64
1, 186066, Note_on_c, 0, 56, 53
1, 186069, Note_on_c, 0, 72, 67
1, 186077, Note_on_c, 0, 65, 43
1, 186096, Note_off_c, 0, 72, 66
1, 186104, Note_off_c, 0, 65, 56
1, 186117, Note_off_c, 0, 56, 60
1, 186236, Note_on_c, 0, 72, 59
1, 186237, Note_on_c, 0, 53, 54
1, 186296, Note_off_c, 0, 72, 53
1, 186304, Note_off_c, 0, 53, 58
1, 186315, Note_on_c, 0, 71, 64
1, 186344, Note_off_c, 0, 71, 67
1, 186383, Note_on_c, 0, 56, 47
1, 186407, Note_on_c, 0, 62, 28
1, 186412, Note_on_c, 0, 71, 66
1, 186420, Note_off_c, 0, 56, 63
1, 186436, Note_on_c, 0, 59, 2
1, 186437, Note_off_c, 0, 62, 48
1, 186442, Note_off_c, 0, 71, 65
1, 186443, Note_off_c, 0, 59, 44
1, 186469, Note_on_c, 0, 74, 61
1, 186541, Note_on_c, 0, 72, 63
1, 186542, Note_off_c, 0, 74, 56
1, 186543, Note_on_c, 0, 53, 47
1, 186575, Note_off_c, 0, 53, 63
1, 186585, Control_c, 0, 64, 18
1, 186604, Note_off_c, 0, 72, 61
1, 186617, Note_on_c, 0, 71, 60
1, 186660, Control_c, 0, 64, 17
1, 186668, Note_off_c, 0, 71, 57
1, 186696, Note_on_c, 0, 72, 58
1, 186699, Note_on_c, 0, 48, 48
1, 186727, Note_off_c, 0, 72, 66
1, 186739, Note_off_c, 0, 48, 63
1, 186877, Note_on_c, 0, 60, 53
1, 186881, Note_on_c, 0, 67, 66
1, 186882, Note_on_c, 0, 55, 36
1, 186884, Note_on_c, 0, 52, 42
1, 186908, Note_off_c, 0, 60, 64
1, 186913, Note_off_c, 0, 55, 59
1, 186915, Note_off_c, 0, 52, 60
1, 187036, Note_on_c, 0, 48, 57
1, 187071, Note_off_c, 0, 48, 63
1, 187155, Control_c, 0, 64, 17
1, 187184, Note_on_c, 0, 72, 75
1, 187191, Note_on_c, 0, 60, 54
1, 187194, Note_off_c, 0, 67, 62
1, 187195, Note_on_c, 0, 55, 47
1, 187199, Note_on_c, 0, 52, 45
1, 187214, Note_off_c, 0, 60, 62
1, 187222, Note_off_c, 0, 72, 66
1, 187225, Note_off_c, 0, 55, 62
1, 187226, Note_off_c, 0, 52, 59
1, 187274, Control_c, 0, 64, 16
1, 187304, Control_c, 0, 64, 15
1, 187319, Control_c, 0, 64, 13
1, 187330, Note_on_c, 0, 67, 82
1, 187333, Note_on_c, 0, 48, 57
1, 187366, Note_off_c, 0, 67, 65
1, 187372, Note_off_c, 0, 48, 62
1, 187466, Control_c, 0, 64, 12
1, 187483, Note_on_c, 0, 72, 85
1, 187484, Note_on_c, 0, 60, 62
1, 187486, Note_on_c, 0, 55, 60
1, 187491, Note_on_c, 0, 52, 51
1, 187514, Note_off_c, 0, 60, 67
1, 187519, Note_off_c, 0, 52, 62
1, 187526, Note_off_c, 0, 55, 64
1, 187530, Note_off_c, 0, 72, 63
1, 187599, Control_c, 0, 64, 13
1, 187614, Control_c, 0, 64, 17
1, 187629, Control_c, 0, 64, 18
1, 187634, Note_on_c, 0, 49, 67
1, 187635, Note_on_c, 0, 70, 79
1, 187643, Control_c, 0, 64, 20
1, 187658, Control_c, 0, 64, 21
1, 187688, Control_c, 0, 64, 21
1, 187690, Note_off_c, 0, 49, 59
1, 187719, Control_c, 0, 64, 22
1, 187734, Control_c, 0, 64, 23
1, 187763, Control_c, 0, 64, 23
1, 187786, Control_c, 0, 64, 24
1, 187795, Note_on_c, 0, 68, 63
1, 187804, Note_on_c, 0, 53, 55
1, 187817, Note_off_c, 0, 70, 53
1, 187856, Note_off_c, 0, 53, 59
1, 187860, Note_off_c, 0, 68, 58
1, 187864, Note_on_c, 0, 67, 61
1, 187890, Control_c, 0, 64, 21
1, 187897, Note_off_c, 0, 67, 65
1, 187899, Poly_aftertouch_c, 0, 61, 0
1, 187905, Control_c, 0, 64, 17
1, 187920, Control_c, 0, 64, 12
1, 187935, Control_c, 0, 64, 0
1, 187946, Note_on_c, 0, 65, 57
1, 187947, Note_on_c, 0, 49, 49
1, 187975, Note_off_c, 0, 65, 63
1, 187992, Note_off_c, 0, 49, 63
1, 188102, Note_on_c, 0, 46, 47
1, 188109, Note_on_c, 0, 67, 51
1, 188145, Note_off_c, 0, 67, 64
1, 188157, Note_on_c, 0, 70, 66
1, 188214, Note_off_c, 0, 70, 62
1, 188234, Note_on_c, 0, 67, 59
1, 188245, Note_off_c, 0, 46, 52
1, 188249, Note_on_c, 0, 55, 64
1, 188255, Note_on_c, 0, 58, 55
1, 188278, Note_off_c, 0, 67, 60
1, 188284, Note_off_c, 0, 55, 64
1, 188284, Note_off_c, 0, 58, 63
1, 188305, Note_on_c, 0, 70, 62
1, 188346, Note_off_c, 0, 70, 62
1, 188386, Note_on_c, 0, 64, 59
1, 188396, Note_on_c, 0, 58, 64
1, 188404, Note_on_c, 0, 48, 59
1, 188424, Note_off_c, 0, 64, 62
1, 188435, Note_off_c, 0, 58, 65
1, 188443, Note_off_c, 0, 48, 62
1, 188459, Note_on_c, 0, 67, 63
1, 188490, Note_off_c, 0, 67, 65
1, 188512, Control_c, 0, 64, 27
1, 188535, Control_c, 0, 64, 40
1, 188547, Note_on_c, 0, 65, 67
1, 188550, Control_c, 0, 64, 51
1, 188561, Note_on_c, 0, 56, 60
1, 188565, Control_c, 0, 64, 57
1, 188574, Note_on_c, 0, 53, 51
1, 188579, Control_c, 0, 64, 62
1, 188594, Control_c, 0, 64, 65
1, 188609, Control_c, 0, 64, 70
1, 188616, Note_off_c, 0, 56, 58
1, 188618, Note_off_c, 0, 65, 58
1, 188624, Note_on_c, 0, 68, 71
1, 188624, Control_c, 0, 64, 76
1, 188626, Note_off_c, 0, 53, 60
1, 188639, Control_c, 0, 64, 89
1, 188654, Control_c, 0, 64, 111
1, 188669, Control_c, 0, 64, 127
1, 188672, Note_off_c, 0, 68, 62
1, 188693, Note_on_c, 0, 72, 76
1, 188719, Note_off_c, 0, 72, 69
1, 188776, Note_on_c, 0, 77, 83
1, 188836, Note_off_c, 0, 77, 58
1, 188842, Note_on_c, 0, 80, 74
1, 188904, Note_off_c, 0, 80, 64
1, 188905, Control_c, 0, 64, 107
1, 188908, Note_on_c, 0, 82, 69
1, 188920, Control_c, 0, 64, 79
1, 188935, Control_c, 0, 64, 64
1, 188949, Note_off_c, 0, 82, 65
1, 188950, Control_c, 0, 64, 52
1, 188965, Control_c, 0, 64, 44
1, 188979, Control_c, 0, 64, 37
1, 188984, Note_on_c, 0, 84, 81
1, 188991, Note_on_c, 0, 53, 55
1, 188994, Control_c, 0, 64, 16
1, 189009, Control_c, 0, 64, 0
1, 189023, Note_off_c, 0, 84, 63
1, 189034, Note_off_c, 0, 53, 60
1, 189154, Note_on_c, 0, 84, 70
1, 189155, Note_on_c, 0, 65, 54
1, 189163, Note_on_c, 0, 56, 43
1, 189187, Note_off_c, 0, 65, 63
1, 189196, Note_off_c, 0, 84, 60
1, 189207, Note_off_c, 0, 56, 63
1, 189220, Poly_aftertouch_c, 0, 60, 0
1, 189224, Note_on_c, 0, 85, 66
1, 189274, Note_off_c, 0, 85, 63
1, 189298, Note_on_c, 0, 84, 77
1, 189302, Note_on_c, 0, 53, 62
1, 189329, Note_off_c, 0, 84, 62
1, 189346, Note_off_c, 0, 53, 63
1, 189444, Note_on_c, 0, 85, 76
1, 189462, Note_on_c, 0, 65, 61
1, 189465, Note_off_c, 0, 85, 70
1, 189468, Note_on_c, 0, 56, 58
1, 189468, Note_on_c, 0, 84, 90
1, 189495, Note_off_c, 0, 65, 65
1, 189507, Note_off_c, 0, 84, 66
1, 189510, Note_off_c, 0, 56, 65
1, 189547, Poly_aftertouch_c, 0, 60, 0
1, 189600, Note_on_c, 0, 53, 65
1, 189608, Note_on_c, 0, 84, 83
1, 189649, Note_off_c, 0, 53, 61
1, 189656, Note_off_c, 0, 84, 64
1, 189679, Note_on_c, 0, 85, 73
1, 189728, Note_off_c, 0, 85, 64
1, 189751, Note_on_c, 0, 56, 55
1, 189755, Note_on_c, 0, 65, 55
1, 189755, Note_on_c, 0, 84, 74
1, 189775, Note_on_c, 0, 60, 20
1, 189784, Note_off_c, 0, 65, 63
1, 189787, Note_off_c, 0, 84, 61
1, 189796, Note_off_c, 0, 56, 62
1, 189800, Note_off_c, 0, 60, 50
1, 189928, Note_on_c, 0, 53, 55
1, 189931, Note_on_c, 0, 84, 55
1, 189966, Note_off_c, 0, 84, 61
1, 189976, Note_off_c, 0, 53, 57
1, 190025, Note_on_c, 0, 83, 55
1, 190058, Note_off_c, 0, 83, 65
1, 190088, Note_on_c, 0, 62, 44
1, 190091, Note_on_c, 0, 56, 42
1, 190094, Note_on_c, 0, 89, 65
1, 190115, Note_on_c, 0, 59, 8
1, 190125, Note_off_c, 0, 62, 61
1, 190132, Note_off_c, 0, 56, 59
1, 190142, Note_off_c, 0, 89, 63
1, 190146, Note_off_c, 0, 59, 45
1, 190171, Note_on_c, 0, 83, 59
1, 190204, Note_off_c, 0, 83, 65
1, 190238, Note_on_c, 0, 89, 66
1, 190247, Note_on_c, 0, 53, 43
1, 190276, Note_off_c, 0, 53, 57
1, 190293, Note_off_c, 0, 89, 54
1, 190311, Note_on_c, 0, 83, 50
1, 190348, Note_off_c, 0, 83, 61
1, 190383, Note_on_c, 0, 84, 62
1, 190398, Note_on_c, 0, 48, 48
1, 190411, Note_off_c, 0, 84, 68
1, 190426, Note_off_c, 0, 48, 59
1, 190553, Note_on_c, 0, 79, 75
1, 190558, Note_on_c, 0, 60, 55
1, 190570, Note_on_c, 0, 52, 48
1, 190574, Note_on_c, 0, 55, 39
1, 190594, Note_off_c, 0, 60, 64
1, 190605, Note_off_c, 0, 55, 59
1, 190612, Note_off_c, 0, 52, 63
1, 190711, Note_on_c, 0, 48, 58
1, 190758, Note_off_c, 0, 48, 61
1, 190867, Note_off_c, 0, 79, 57
1, 190871, Note_on_c, 0, 60, 60
1, 190875, Note_on_c, 0, 52, 56
1, 190878, Note_on_c, 0, 84, 86
1, 190884, Note_on_c, 0, 55, 41
1, 190902, Note_off_c, 0, 60, 66
1, 190909, Note_off_c, 0, 52, 65
1, 190913, Note_off_c, 0, 55, 58
1, 190914, Note_off_c, 0, 84, 67
1, 191018, Note_on_c, 0, 48, 59
1, 191023, Note_on_c, 0, 79, 91
1, 191062, Note_off_c, 0, 79, 66
1, 191065, Note_off_c, 0, 48, 56
1, 191166, Note_on_c, 0, 84, 90
1, 191169, Note_on_c, 0, 60, 55
1, 191172, Note_on_c, 0, 55, 51
1, 191178, Note_on_c, 0, 52, 43
1, 191196, Note_off_c, 0, 60, 64
1, 191209, Note_off_c, 0, 52, 56
1, 191209, Note_off_c, 0, 55, 65
1, 191213, Note_off_c, 0, 84, 66
1, 191317, Note_on_c, 0, 82, 87
1, 191320, Note_on_c, 0, 49, 64
1, 191364, Note_off_c, 0, 49, 60
1, 191478, Note_on_c, 0, 53, 57
1, 191479, Note_on_c, 0, 80, 68
1, 191480, Note_off_c, 0, 82, 56
1, 191485, Note_on_c, 0, 61, 49
1, 191525, Note_off_c, 0, 61, 61
1, 191542, Note_off_c, 0, 53, 57
1, 191545, Note_off_c, 0, 80, 62
1, 191560, Note_on_c, 0, 79, 65
1, 191593, Note_off_c, 0, 79, 63
1, 191631, Note_on_c, 0, 49, 56
1, 191641, Note_on_c, 0, 77, 65
1, 191670, Note_off_c, 0, 77, 66
1, 191673, Note_off_c, 0, 49, 63
1, 191796, Note_on_c, 0, 82, 67
1, 191802, Note_on_c, 0, 50, 46
1, 191836, Note_off_c, 0, 82, 60
1, 191841, Note_off_c, 0, 50, 63
1, 191951, Note_on_c, 0, 77, 64
1, 191955, Note_on_c, 0, 62, 52
1, 191966, Note_on_c, 0, 58, 42
1, 191990, Note_off_c, 0, 62, 65
1, 191993, Note_off_c, 0, 77, 62
1, 191995, Note_off_c, 0, 58, 59
1, 192094, Note_on_c, 0, 50, 52
1, 192097, Note_on_c, 0, 82, 70
1, 192123, Note_off_c, 0, 50, 63
1, 192144, Note_off_c, 0, 82, 60
1, 192240, Note_on_c, 0, 51, 62
1, 192254, Note_on_c, 0, 80, 65
1, 192306, Note_off_c, 0, 51, 59
1, 192409, Note_on_c, 0, 58, 50
1, 192409, Note_on_c, 0, 79, 66
1, 192419, Note_on_c, 0, 63, 41
1, 192449, Note_off_c, 0, 63, 55
1, 192451, Note_off_c, 0, 58, 61
1, 192470, Note_off_c, 0, 80, 53
1, 192481, Note_off_c, 0, 79, 64
1, 192483, Note_on_c, 0, 77, 72
1, 192542, Note_off_c, 0, 77, 61
1, 192544, Note_on_c, 0, 51, 70
1, 192548, Note_on_c, 0, 75, 77
1, 192582, Note_off_c, 0, 75, 63
1, 192583, Note_off_c, 0, 51, 64
1, 192702, Note_on_c, 0, 48, 72
1, 192705, Note_on_c, 0, 80, 86
1, 192741, Note_off_c, 0, 48, 63
1, 192760, Note_off_c, 0, 80, 65
1, 192854, Note_on_c, 0, 75, 88
1, 192854, Note_on_c, 0, 60, 76
1, 192886, Note_off_c, 0, 60, 66
1, 192899, Note_off_c, 0, 75, 64
1, 192996, Note_on_c, 0, 80, 90
1, 193002, Note_on_c, 0, 48, 80
1, 193038, Note_off_c, 0, 48, 69
1, 193059, Note_off_c, 0, 80, 66
1, 193158, Note_on_c, 0, 47, 87
1, 193158, Note_on_c, 0, 81, 97
1, 193204, Note_off_c, 0, 47, 64
1, 193209, Note_off_c, 0, 81, 65
1, 193304, Note_on_c, 0, 75, 97
1, 193307, Note_on_c, 0, 59, 76
1, 193339, Note_off_c, 0, 59, 66
1, 193353, Note_off_c, 0, 75, 66
1, 193449, Note_on_c, 0, 47, 88
1, 193452, Note_on_c, 0, 81, 98
1, 193477, Note_off_c, 0, 47, 68
1, 193504, Note_off_c, 0, 81, 67
1, 193599, Note_on_c, 0, 46, 92
1, 193602, Note_on_c, 0, 82, 100
1, 193621, Control_c, 0, 64, 57
1, 193636, Control_c, 0, 64, 127
1, 193650, Note_off_c, 0, 46, 64
1, 193742, Note_on_c, 0, 62, 79
1, 193742, Note_on_c, 0, 77, 94
1, 193746, Note_on_c, 0, 58, 73
1, 193748, Note_on_c, 0, 74, 80
1, 193762, Note_on_c, 0, 53, 70
1, 193775, Note_off_c, 0, 62, 69
1, 193790, Note_off_c, 0, 58, 63
1, 193795, Note_off_c, 0, 74, 61
1, 193807, Note_off_c, 0, 77, 63
1, 193818, Note_off_c, 0, 53, 63
1, 193821, Note_off_c, 0, 82, 62
1, 193881, Control_c, 0, 64, 85
1, 193895, Control_c, 0, 64, 59
1, 193898, Note_on_c, 0, 46, 84
1, 193901, Note_on_c, 0, 86, 99
1, 193910, Control_c, 0, 64, 0
1, 193940, Control_c, 0, 64, 23
1, 193954, Note_off_c, 0, 46, 65
1, 193955, Control_c, 0, 64, 61
1, 193969, Control_c, 0, 64, 80
1, 193984, Control_c, 0, 64, 127
1, 194037, Note_on_c, 0, 82, 93
1, 194040, Note_on_c, 0, 77, 86
1, 194041, Note_on_c, 0, 62, 74
1, 194043, Note_off_c, 0, 86, 62
1, 194045, Note_on_c, 0, 58, 72
1, 194054, Note_on_c, 0, 53, 64
1, 194067, Note_off_c, 0, 62, 68
1, 194077, Note_off_c, 0, 58, 65
1, 194082, Note_off_c, 0, 77, 65
1, 194103, Note_off_c, 0, 82, 65
1, 194109, Note_off_c, 0, 53, 63
1, 194163, Control_c, 0, 64, 97
1, 194178, Control_c, 0, 64, 65
1, 194192, Control_c, 0, 64, 39
1, 194200, Note_on_c, 0, 46, 80
1, 194200, Note_on_c, 0, 89, 101
1, 194207, Control_c, 0, 64, 45
1, 194222, Control_c, 0, 64, 61
1, 194237, Control_c, 0, 64, 72
1, 194252, Control_c, 0, 64, 127
1, 194264, Note_off_c, 0, 46, 64
1, 194344, Note_on_c, 0, 86, 83
1, 194348, Note_on_c, 0, 58, 78
1, 194348, Note_on_c, 0, 62, 72
1, 194355, Note_on_c, 0, 53, 68
1, 194360, Note_on_c, 0, 83, 71
1, 194361, Note_on_c, 0, 88, 58
1, 194367, Note_off_c, 0, 89, 62
1, 194374, Note_off_c, 0, 62, 68
1, 194380, Note_on_c, 0, 82, 31
1, 194383, Note_off_c, 0, 88, 39
1, 194383, Note_off_c, 0, 83, 69
1, 194391, Note_off_c, 0, 58, 61
1, 194399, Note_off_c, 0, 86, 66
1, 194410, Note_off_c, 0, 82, 45
1, 194419, Note_off_c, 0, 53, 64
1, 194474, Control_c, 0, 64, 83
1, 194489, Control_c, 0, 64, 53
1, 194497, Note_on_c, 0, 46, 79
1, 194497, Note_on_c, 0, 92, 101
1, 194504, Control_c, 0, 64, 0
1, 194547, Note_off_c, 0, 46, 62
1, 194568, Note_on_c, 0, 90, 85
1, 194604, Note_off_c, 0, 92, 64
1, 194633, Note_off_c, 0, 90, 65
1, 194634, Note_on_c, 0, 63, 63
1, 194635, Note_on_c, 0, 54, 65
1, 194637, Note_on_c, 0, 89, 89
1, 194653, Note_off_c, 0, 63, 64
1, 194684, Note_off_c, 0, 54, 61
1, 194699, Note_off_c, 0, 89, 63
1, 194701, Note_on_c, 0, 90, 82
1, 194735, Note_off_c, 0, 90, 67
1, 194765, Note_on_c, 0, 87, 93
1, 194773, Note_on_c, 0, 46, 73
1, 194807, Note_off_c, 0, 87, 65
1, 194808, Note_off_c, 0, 46, 66
1, 194914, Note_on_c, 0, 84, 92
1, 194918, Note_on_c, 0, 63, 61
1, 194919, Note_on_c, 0, 54, 63
1, 194940, Note_off_c, 0, 63, 63
1, 194955, Note_off_c, 0, 54, 66
1, 194962, Note_off_c, 0, 84, 66
1, 195062, Note_on_c, 0, 81, 90
1, 195063, Note_on_c, 0, 46, 71
1, 195093, Note_off_c, 0, 46, 65
1, 195113, Note_off_c, 0, 81, 65
1, 195198, Note_on_c, 0, 63, 74
1, 195203, Note_on_c, 0, 54, 71
1, 195208, Note_on_c, 0, 78, 89
1, 195223, Note_off_c, 0, 63, 68
1, 195234, Note_off_c, 0, 54, 68
1, 195266, Note_off_c, 0, 78, 64
1, 195349, Control_c, 0, 64, 52
1, 195355, Note_on_c, 0, 46, 96
1, 195359, Note_on_c, 0, 82, 99
1, 195364, Control_c, 0, 64, 90
1, 195379, Control_c, 0, 64, 127
1, 195408, Note_off_c, 0, 46, 65
1, 195501, Note_on_c, 0, 62, 71
1, 195503, Note_on_c, 0, 77, 89
1, 195506, Note_on_c, 0, 74, 80
1, 195530, Note_off_c, 0, 62, 68
1, 195537, Note_on_c, 0, 53, 37
1, 195541, Note_on_c, 0, 52, 45
1, 195552, Note_off_c, 0, 74, 62
1, 195558, Note_off_c, 0, 77, 64
1, 195568, Note_off_c, 0, 52, 60
1, 195569, Note_off_c, 0, 53, 56
1, 195572, Note_off_c, 0, 82, 60
1, 195582, Note_on_c, 0, 57, 9
1, 195594, Poly_aftertouch_c, 0, 58, 0
1, 195614, Note_off_c, 0, 57, 46
1, 195615, Control_c, 0, 64, 94
1, 195630, Control_c, 0, 64, 50
1, 195645, Control_c, 0, 64, 0
1, 195655, Note_on_c, 0, 86, 104
1, 195656, Note_on_c, 0, 46, 89
1, 195689, Control_c, 0, 64, 51
1, 195705, Control_c, 0, 64, 73
1, 195712, Note_off_c, 0, 46, 65
1, 195720, Control_c, 0, 64, 127
1, 195798, Note_on_c, 0, 82, 94
1, 195801, Note_on_c, 0, 77, 89
1, 195803, Note_on_c, 0, 58, 79
1, 195803, Note_on_c, 0, 62, 73
1, 195813, Note_off_c, 0, 86, 49
1, 195814, Note_on_c, 0, 53, 63
1, 195831, Note_off_c, 0, 62, 69
1, 195837, Note_off_c, 0, 58, 64
1, 195844, Note_off_c, 0, 77, 63
1, 195856, Note_off_c, 0, 53, 64
1, 195865, Poly_aftertouch_c, 0, 54, 127
1, 195866, Note_off_c, 0, 82, 63
1, 195904, Poly_aftertouch_c, 0, 54, 0
1, 195912, Control_c, 0, 64, 85
1, 195927, Control_c, 0, 64, 56
1, 195942, Control_c, 0, 64, 0
1, 195950, Note_on_c, 0, 89, 101
1, 195954, Note_on_c, 0, 46, 87
1, 195972, Control_c, 0, 64, 41
1, 195987, Control_c, 0, 64, 69
1, 196002, Control_c, 0, 64, 109
1, 196003, Note_off_c, 0, 46, 65
1, 196025, Control_c, 0, 64, 127
1, 196098, Note_on_c, 0, 82, 90
1, 196099, Note_on_c, 0, 86, 89
1, 196100, Note_on_c, 0, 54, 73
1, 196103, Note_on_c, 0, 58, 76
1, 196106, Note_on_c, 0, 62, 67
1, 196129, Note_off_c, 0, 89, 60
1, 196130, Note_off_c, 0, 58, 68
1, 196136, Note_off_c, 0, 62, 66
1, 196139, Note_off_c, 0, 82, 66
1, 196148, Note_off_c, 0, 86, 66
1, 196157, Note_off_c, 0, 54, 63
1, 196217, Control_c, 0, 64, 114
1, 196231, Control_c, 0, 64, 66
1, 196246, Control_c, 0, 64, 0
1, 196260, Note_on_c, 0, 46, 80
1, 196262, Note_on_c, 0, 92, 94
1, 196291, Note_off_c, 0, 46, 68
1, 196325, Note_on_c, 0, 90, 80
1, 196357, Note_off_c, 0, 92, 63
1, 196396, Note_on_c, 0, 54, 64
1, 196401, Note_on_c, 0, 89, 80
1, 196407, Note_on_c, 0, 63, 52
1, 196431, Note_off_c, 0, 63, 57
1, 196435, Note_off_c, 0, 90, 58
1, 196445, Note_off_c, 0, 54, 63
1, 196446, Note_off_c, 0, 89, 64
1, 196461, Note_on_c, 0, 90, 56
1, 196494, Note_off_c, 0, 90, 67
1, 196533, Note_on_c, 0, 87, 82
1, 196539, Note_on_c, 0, 46, 78
1, 196559, Note_off_c, 0, 87, 68
1, 196580, Note_off_c, 0, 46, 63
1, 196672, Note_on_c, 0, 84, 82
1, 196686, Note_on_c, 0, 63, 61
1, 196693, Note_on_c, 0, 58, 46
1, 196695, Note_on_c, 0, 54, 53
1, 196706, Note_off_c, 0, 63, 63
1, 196717, Note_off_c, 0, 58, 58
1, 196726, Note_off_c, 0, 84, 64
1, 196727, Note_off_c, 0, 54, 65
1, 196831, Note_on_c, 0, 81, 78
1, 196833, Note_on_c, 0, 46, 68
1, 196866, Note_off_c, 0, 46, 64
1, 196866, Note_off_c, 0, 81, 66
1, 196962, Note_on_c, 0, 78, 67
1, 196973, Note_on_c, 0, 58, 53
1, 196978, Note_on_c, 0, 63, 47
1, 196979, Note_on_c, 0, 54, 50
1, 196997, Note_off_c, 0, 58, 59
1, 196997, Note_off_c, 0, 78, 63
1, 197003, Note_off_c, 0, 63, 50
1, 197004, Note_off_c, 0, 54, 59
1, 197099, Control_c, 0, 64, 59
1, 197114, Control_c, 0, 64, 71
1, 197114, Note_on_c, 0, 46, 60
1, 197115, Note_on_c, 0, 82, 69
1, 197129, Control_c, 0, 64, 94
1, 197144, Control_c, 0, 64, 127
1, 197144, Note_off_c, 0, 46, 64
1, 197263, Note_on_c, 0, 62, 58
1, 197269, Note_on_c, 0, 74, 63
1, 197272, Note_on_c, 0, 58, 56
1, 197274, Note_on_c, 0, 77, 63
1, 197291, Note_on_c, 0, 53, 47
1, 197294, Note_off_c, 0, 62, 64
1, 197297, Note_off_c, 0, 82, 51
1, 197302, Note_off_c, 0, 74, 64
1, 197304, Note_off_c, 0, 58, 65
1, 197311, Note_off_c, 0, 77, 63
1, 197325, Note_off_c, 0, 53, 64
1, 197367, Control_c, 0, 64, 92
1, 197382, Control_c, 0, 64, 61
1, 197397, Control_c, 0, 64, 19
1, 197411, Control_c, 0, 64, 29
1, 197414, Note_on_c, 0, 44, 84
1, 197418, Note_on_c, 0, 83, 91
1, 197426, Control_c, 0, 64, 50
1, 197441, Control_c, 0, 64, 64
1, 197456, Control_c, 0, 64, 80
1, 197471, Control_c, 0, 64, 127
1, 197552, Note_on_c, 0, 77, 81
1, 197555, Note_on_c, 0, 56, 85
1, 197562, Note_on_c, 0, 74, 68
1, 197590, Note_off_c, 0, 74, 67
1, 197590, Note_off_c, 0, 83, 56
1, 197595, Note_off_c, 0, 56, 61
1, 197603, Note_off_c, 0, 77, 64
1, 197611, Note_off_c, 0, 44, 63
1, 197654, Control_c, 0, 64, 89
1, 197668, Control_c, 0, 64, 61
1, 197683, Control_c, 0, 64, 34
1, 197698, Control_c, 0, 64, 39
1, 197701, Note_on_c, 0, 86, 105
1, 197708, Note_on_c, 0, 43, 90
1, 197713, Control_c, 0, 64, 56
1, 197728, Control_c, 0, 64, 68
1, 197743, Control_c, 0, 64, 98
1, 197758, Control_c, 0, 64, 127
1, 197837, Note_on_c, 0, 83, 89
1, 197838, Note_on_c, 0, 55, 87
1, 197843, Note_on_c, 0, 77, 82
1, 197858, Note_off_c, 0, 86, 60
1, 197869, Note_off_c, 0, 43, 55
1, 197874, Note_off_c, 0, 77, 62
1, 197882, Note_off_c, 0, 55, 63
1, 197891, Note_off_c, 0, 83, 64
1, 197950, Control_c, 0, 64, 68
1, 197965, Control_c, 0, 64, 30
1, 197980, Control_c, 0, 64, 0
1, 197990, Note_on_c, 0, 84, 108
1, 197990, Note_on_c, 0, 48, 97
1, 198009, Control_c, 0, 64, 43
1, 198024, Control_c, 0, 64, 65
1, 198039, Control_c, 0, 64, 99
1, 198053, Control_c, 0, 64, 127
1, 198121, Note_on_c, 0, 79, 85
1, 198127, Note_on_c, 0, 60, 84
1, 198132, Note_on_c, 0, 76, 74
1, 198147, Note_off_c, 0, 84, 59
1, 198152, Note_off_c, 0, 48, 63
1, 198158, Note_off_c, 0, 76, 68
1, 198163, Note_off_c, 0, 60, 63
1, 198168, Note_off_c, 0, 79, 65
1, 198223, Poly_aftertouch_c, 0, 51, 127
1, 198232, Control_c, 0, 64, 81
1, 198246, Poly_aftertouch_c, 0, 51, 0
1, 198247, Control_c, 0, 64, 54
1, 198270, Control_c, 0, 64, 0
1, 198285, Note_on_c, 0, 46, 94
1, 198286, Note_on_c, 0, 88, 107
1, 198299, Control_c, 0, 64, 32
1, 198314, Control_c, 0, 64, 64
1, 198329, Control_c, 0, 64, 101
1, 198344, Control_c, 0, 64, 127
1, 198416, Note_on_c, 0, 85, 93
1, 198419, Note_on_c, 0, 79, 83
1, 198425, Note_on_c, 0, 58, 95
1, 198431, Note_off_c, 0, 88, 63
1, 198461, Note_off_c, 0, 79, 65
1, 198467, Note_off_c, 0, 58, 65
1, 198483, Note_off_c, 0, 46, 62
1, 198486, Note_off_c, 0, 85, 66
1, 198506, Control_c, 0, 64, 84
1, 198521, Control_c, 0, 64, 50
1, 198536, Control_c, 0, 64, 0
1, 198573, Note_on_c, 0, 91, 107
1, 198574, Note_on_c, 0, 43, 96
1, 198595, Control_c, 0, 64, 24
1, 198610, Control_c, 0, 64, 70
1, 198625, Control_c, 0, 64, 127
1, 198649, Note_off_c, 0, 43, 51
1, 198691, Note_on_c, 0, 55, 90
1, 198691, Note_on_c, 0, 88, 85
1, 198695, Note_on_c, 0, 82, 88
1, 198697, Note_on_c, 0, 85, 86
1, 198703, Note_off_c, 0, 91, 64
1, 198728, Note_on_c, 0, 46, 51
1, 198734, Note_off_c, 0, 55, 65
1, 198742, Note_off_c, 0, 82, 65
1, 198745, Note_off_c, 0, 88, 64
1, 198746, Poly_aftertouch_c, 0, 43, 127
1, 198751, Note_off_c, 0, 85, 65
1, 198756, Note_off_c, 0, 46, 55
1, 198773, Poly_aftertouch_c, 0, 43, 0
1, 198788, Control_c, 0, 64, 64
1, 198802, Control_c, 0, 64, 0
1, 198848, Note_on_c, 0, 89, 107
1, 198852, Note_on_c, 0, 44, 97
1, 198877, Control_c, 0, 64, 61
1, 198891, Control_c, 0, 64, 95
1, 198907, Control_c, 0, 64, 127
1, 198974, Note_on_c, 0, 56, 93
1, 198977, Note_on_c, 0, 77, 81
1, 198977, Note_on_c, 0, 84, 86
1, 199010, Note_off_c, 0, 89, 60
1, 199014, Note_off_c, 0, 77, 63
1, 199024, Note_off_c, 0, 56, 61
1, 199032, Note_off_c, 0, 84, 64
1, 199045, Note_off_c, 0, 44, 63
1, 199078, Control_c, 0, 64, 121
1, 199093, Control_c, 0, 64, 65
1, 199107, Control_c, 0, 64, 0
1, 199139, Note_on_c, 0, 94, 107
1, 199143, Note_on_c, 0, 34, 91
1, 199168, Control_c, 0, 64, 64
1, 199182, Control_c, 0, 64, 94
1, 199197, Control_c, 0, 64, 127
1, 199225, Poly_aftertouch_c, 0, 32, 127
1, 199260, Poly_aftertouch_c, 0, 32, 0
1, 199272, Note_on_c, 0, 82, 100
1, 199274, Note_on_c, 0, 46, 95
1, 199320, Note_off_c, 0, 46, 64
1, 199321, Note_off_c, 0, 34, 60
1, 199323, Note_off_c, 0, 82, 65
1, 199338, Note_off_c, 0, 94, 64
1, 199360, Control_c, 0, 64, 74
1, 199375, Control_c, 0, 64, 41
1, 199389, Control_c, 0, 64, 0
1, 199404, Control_c, 0, 64, 45
1, 199419, Control_c, 0, 64, 65
1, 199430, Note_on_c, 0, 96, 109
1, 199433, Control_c, 0, 64, 95
1, 199434, Note_on_c, 0, 36, 100
1, 199448, Control_c, 0, 64, 127
1, 199554, Note_off_c, 0, 96, 65
1, 199564, Note_on_c, 0, 84, 96
1, 199569, Note_on_c, 0, 48, 93
1, 199588, Note_on_c, 0, 92, 63
1, 199605, Note_off_c, 0, 36, 0
1, 199605, Note_on_c, 0, 36, 3
1, 199605, Note_off_c, 0, 84, 67
1, 199607, Note_off_c, 0, 48, 67
1, 199618, Note_off_c, 0, 92, 66
1, 199629, Note_off_c, 0, 36, 63
1, 199656, Control_c, 0, 64, 89
1, 199671, Control_c, 0, 64, 60
1, 199686, Control_c, 0, 64, 0
1, 199701, Control_c, 0, 64, 15
1, 199716, Control_c, 0, 64, 60
1, 199731, Control_c, 0, 64, 79
1, 199741, Note_on_c, 0, 41, 100
1, 199746, Control_c, 0, 64, 127
1, 199747, Note_on_c, 0, 29, 95
1, 199758, Note_on_c, 0, 101, 100
1, 199760, Note_on_c, 0, 89, 103
1, 199800, Note_off_c, 0, 29, 62
1, 199811, Note_on_c, 0, 30, 12
1, 199815, Note_off_c, 0, 41, 65
1, 199841, Note_off_c, 0, 101, 63
1, 199872, Note_off_c, 0, 30, 48
1, 199883, Note_off_c, 0, 89, 56
1, 200035, Control_c, 0, 64, 76
1, 200050, Control_c, 0, 64, 46
1, 200064, Control_c, 0, 64, 0
1, 200079, Control_c, 0, 64, 9
1, 200084, Note_on_c, 0, 91, 104
1, 200087, Note_on_c, 0, 64, 104
1, 200089, Note_on_c, 0, 53, 97
1, 200091, Note_on_c, 0, 61, 94
1, 200094, Note_on_c, 0, 58, 85
1, 200094, Control_c, 0, 64, 56
1, 200109, Control_c, 0, 64, 70
1, 200124, Control_c, 0, 64, 100
1, 200138, Control_c, 0, 64, 127
1, 200157, Note_off_c, 0, 91, 65
1, 200163, Note_on_c, 0, 92, 76
1, 200208, Note_on_c, 0, 94, 9
1, 200220, Note_off_c, 0, 92, 64
1, 200240, Note_on_c, 0, 91, 81
1, 200264, Note_off_c, 0, 94, 26
1, 200274, Note_off_c, 0, 91, 63
1, 200298, Note_on_c, 0, 92, 66
1, 200327, Note_off_c, 0, 92, 68
1, 200339, Note_on_c, 0, 91, 77
1, 200374, Note_off_c, 0, 91, 63
1, 200398, Note_on_c, 0, 92, 79
1, 200430, Note_off_c, 0, 92, 61
1, 200449, Note_on_c, 0, 91, 82
1, 200476, Note_off_c, 0, 91, 67
1, 200512, Note_on_c, 0, 92, 73
1, 200540, Note_off_c, 0, 92, 66
1, 200546, Note_on_c, 0, 91, 83
1, 200579, Note_off_c, 0, 91, 62
1, 200585, Note_on_c, 0, 92, 85
1, 200617, Note_off_c, 0, 64, 55
1, 200622, Note_on_c, 0, 91, 85
1, 200629, Note_off_c, 0, 92, 62
1, 200656, Note_off_c, 0, 61, 54
1, 200661, Note_off_c, 0, 53, 36
1, 200668, Note_on_c, 0, 90, 81
1, 200668, Note_off_c, 0, 91, 66
1, 200673, Note_off_c, 0, 58, 59
1, 200705, Note_off_c, 0, 90, 64
1, 200724, Note_on_c, 0, 91, 84
1, 200747, Note_on_c, 0, 89, 12
1, 200779, Note_off_c, 0, 91, 64
1, 200781, Note_on_c, 0, 92, 88
1, 200789, Note_off_c, 0, 89, 31
1, 200819, Note_on_c, 0, 94, 34
1, 200831, Note_on_c, 0, 91, 89
1, 200844, Note_off_c, 0, 92, 66
1, 200852, Note_off_c, 0, 94, 32
1, 200874, Note_on_c, 0, 65, 97
1, 200879, Note_on_c, 0, 53, 84
1, 200881, Note_on_c, 0, 60, 66
1, 200882, Note_on_c, 0, 56, 86
1, 200883, Note_on_c, 0, 89, 99
1, 200887, Control_c, 0, 64, 87
1, 200888, Note_off_c, 0, 91, 63
1, 200902, Control_c, 0, 64, 71
1, 200917, Control_c, 0, 64, 64
1, 200932, Control_c, 0, 64, 60
1, 200933, Note_off_c, 0, 89, 66
1, 200942, Note_off_c, 0, 60, 64
1, 200947, Control_c, 0, 64, 56
1, 200948, Note_off_c, 0, 65, 56
1, 200955, Note_off_c, 0, 53, 61
1, 200961, Control_c, 0, 64, 49
1, 200976, Control_c, 0, 64, 38
1, 200991, Control_c, 0, 64, 27
1, 201006, Control_c, 0, 64, 22
1, 201021, Control_c, 0, 64, 19
1, 201039, Note_off_c, 0, 56, 63
1, 201065, Control_c, 0, 64, 24
1, 201079, Control_c, 0, 64, 32
1, 201084, Note_on_c, 0, 64, 98
1, 201087, Note_on_c, 0, 61, 98
1, 201089, Note_on_c, 0, 58, 91
1, 201091, Note_on_c, 0, 53, 84
1, 201094, Control_c, 0, 64, 38
1, 201099, Note_on_c, 0, 79, 84
1, 201103, Note_on_c, 0, 77, 87
1, 201109, Control_c, 0, 64, 40
1, 201138, Note_off_c, 0, 77, 61
1, 201139, Control_c, 0, 64, 41
1, 201146, Note_off_c, 0, 79, 63
1, 201153, Control_c, 0, 64, 43
1, 201158, Note_on_c, 0, 80, 70
1, 201168, Control_c, 0, 64, 47
1, 201183, Control_c, 0, 64, 48
1, 201191, Note_off_c, 0, 80, 64
1, 201213, Control_c, 0, 64, 49
1, 201224, Note_on_c, 0, 79, 71
1, 201227, Control_c, 0, 64, 53
1, 201242, Control_c, 0, 64, 58
1, 201263, Note_off_c, 0, 79, 66
1, 201265, Control_c, 0, 64, 63
1, 201279, Note_on_c, 0, 80, 77
1, 201280, Control_c, 0, 64, 69
1, 201294, Control_c, 0, 64, 79
1, 201310, Control_c, 0, 64, 127
1, 201311, Note_off_c, 0, 80, 63
1, 201334, Note_on_c, 0, 79, 76
1, 201363, Note_off_c, 0, 79, 64
1, 201380, Note_on_c, 0, 80, 80
1, 201410, Note_off_c, 0, 80, 63
1, 201437, Note_on_c, 0, 79, 73
1, 201460, Note_off_c, 0, 79, 71
1, 201469, Note_on_c, 0, 80, 80
1, 201524, Note_on_c, 0, 79, 84
1, 201540, Note_off_c, 0, 64, 57
1, 201543, Note_off_c, 0, 53, 61
1, 201573, Note_off_c, 0, 79, 65
1, 201575, Note_off_c, 0, 80, 60
1, 201578, Note_on_c, 0, 78, 84
1, 201579, Note_off_c, 0, 58, 60
1, 201580, Note_off_c, 0, 61, 58
1, 201611, Note_off_c, 0, 78, 63
1, 201642, Note_on_c, 0, 79, 77
1, 201697, Note_off_c, 0, 79, 65
1, 201704, Note_on_c, 0, 80, 83
1, 201731, Note_on_c, 0, 82, 54
1, 201739, Control_c, 0, 64, 92
1, 201754, Control_c, 0, 64, 74
1, 201755, Note_off_c, 0, 82, 61
1, 201758, Note_on_c, 0, 79, 81
1, 201769, Control_c, 0, 64, 62
1, 201773, Note_off_c, 0, 80, 65
1, 201783, Control_c, 0, 64, 52
1, 201798, Control_c, 0, 64, 45
1, 201805, Note_on_c, 0, 65, 93
1, 201812, Note_on_c, 0, 77, 94
1, 201812, Note_on_c, 0, 53, 80
1, 201812, Note_off_c, 0, 79, 64
1, 201813, Control_c, 0, 64, 37
1, 201815, Note_on_c, 0, 56, 78
1, 201818, Note_on_c, 0, 60, 65
1, 201828, Control_c, 0, 64, 29
1, 201843, Control_c, 0, 64, 22
1, 201855, Note_off_c, 0, 77, 65
1, 201857, Note_off_c, 0, 60, 63
1, 201857, Control_c, 0, 64, 13
1, 201872, Control_c, 0, 64, 11
1, 201877, Note_off_c, 0, 65, 53
1, 201881, Note_off_c, 0, 53, 60
1, 201901, Control_c, 0, 64, 0
1, 201959, Note_off_c, 0, 56, 64
1, 201991, Control_c, 0, 64, 51
1, 202008, Note_on_c, 0, 64, 106
1, 202012, Note_on_c, 0, 61, 92
1, 202013, Control_c, 0, 64, 64
1, 202015, Note_on_c, 0, 58, 88
1, 202016, Note_on_c, 0, 91, 91
1, 202017, Note_on_c, 0, 53, 86
1, 202028, Control_c, 0, 64, 69
1, 202043, Control_c, 0, 64, 74
1, 202057, Control_c, 0, 64, 82
1, 202061, Note_off_c, 0, 91, 66
1, 202064, Note_on_c, 0, 92, 81
1, 202072, Control_c, 0, 64, 94
1, 202087, Control_c, 0, 64, 127
1, 202089, Note_off_c, 0, 92, 67
1, 202124, Note_on_c, 0, 91, 76
1, 202151, Note_off_c, 0, 91, 67
1, 202162, Note_on_c, 0, 92, 84
1, 202213, Note_on_c, 0, 91, 79
1, 202243, Note_off_c, 0, 92, 64
1, 202244, Note_off_c, 0, 91, 65
1, 202250, Note_on_c, 0, 90, 76
1, 202279, Note_off_c, 0, 90, 61
1, 202308, Note_on_c, 0, 91, 67
1, 202310, Note_on_c, 0, 92, 81
1, 202336, Note_off_c, 0, 91, 66
1, 202356, Note_on_c, 0, 94, 79
1, 202361, Note_off_c, 0, 92, 66
1, 202369, Control_c, 0, 64, 115
1, 202382, Note_off_c, 0, 94, 67
1, 202384, Control_c, 0, 64, 107
1, 202399, Control_c, 0, 64, 100
1, 202405, Note_on_c, 0, 96, 86
1, 202414, Control_c, 0, 64, 93
1, 202429, Control_c, 0, 64, 85
1, 202444, Control_c, 0, 64, 78
1, 202446, Note_on_c, 0, 97, 85
1, 202456, Note_off_c, 0, 96, 66
1, 202459, Control_c, 0, 64, 72
1, 202473, Control_c, 0, 64, 69
1, 202479, Note_on_c, 0, 100, 75
1, 202488, Control_c, 0, 64, 68
1, 202500, Note_off_c, 0, 97, 64
1, 202503, Control_c, 0, 64, 68
1, 202509, Note_off_c, 0, 100, 67
1, 202512, Note_on_c, 0, 101, 87
1, 202518, Control_c, 0, 64, 66
1, 202532, Control_c, 0, 64, 63
1, 202547, Control_c, 0, 64, 61
1, 202562, Control_c, 0, 64, 58
1, 202566, Note_on_c, 0, 100, 84
1, 202577, Control_c, 0, 64, 56
1, 202592, Control_c, 0, 64, 55
1, 202596, Note_on_c, 0, 97, 85
1, 202596, Note_off_c, 0, 101, 65
1, 202606, Control_c, 0, 64, 53
1, 202614, Note_off_c, 0, 100, 66
1, 202636, Control_c, 0, 64, 55
1, 202637, Note_on_c, 0, 96, 84
1, 202640, Note_off_c, 0, 97, 65
1, 202650, Control_c, 0, 64, 58
1, 202665, Control_c, 0, 64, 62
1, 202678, Note_off_c, 0, 96, 65
1, 202679, Note_off_c, 0, 64, 60
1, 202680, Control_c, 0, 64, 65
1, 202682, Note_off_c, 0, 61, 60
1, 202694, Note_on_c, 0, 94, 92
1, 202695, Control_c, 0, 64, 71
1, 202699, Note_off_c, 0, 53, 56
1, 202710, Control_c, 0, 64, 79
1, 202724, Control_c, 0, 64, 93
1, 202732, Note_on_c, 0, 92, 87
1, 202739, Control_c, 0, 64, 127
1, 202778, Note_on_c, 0, 91, 85
1, 202790, Note_on_c, 0, 60, 4
1, 202791, Note_off_c, 0, 94, 63
1, 202794, Note_off_c, 0, 92, 66
1, 202810, Note_on_c, 0, 65, 99
1, 202813, Note_on_c, 0, 53, 88
1, 202815, Note_on_c, 0, 89, 97
1, 202816, Note_on_c, 0, 56, 86
1, 202831, Note_off_c, 0, 91, 63
1, 202842, Note_off_c, 0, 58, 62
1, 202845, Note_off_c, 0, 60, 62
1, 202852, Note_off_c, 0, 65, 60
1, 202858, Note_off_c, 0, 89, 67
1, 202864, Note_off_c, 0, 53, 64
1, 202912, Control_c, 0, 64, 123
1, 202927, Control_c, 0, 64, 87
1, 202941, Control_c, 0, 64, 70
1, 202956, Control_c, 0, 64, 61
1, 202971, Control_c, 0, 64, 56
1, 202978, Note_off_c, 0, 56, 60
1, 202986, Control_c, 0, 64, 55
1, 203001, Control_c, 0, 64, 55
1, 203015, Note_on_c, 0, 64, 102
1, 203016, Control_c, 0, 64, 53
1, 203017, Note_on_c, 0, 79, 90
1, 203019, Note_on_c, 0, 61, 91
1, 203021, Note_on_c, 0, 58, 80
1, 203024, Note_on_c, 0, 53, 85
1, 203030, Control_c, 0, 64, 49
1, 203045, Control_c, 0, 64, 46
1, 203060, Control_c, 0, 64, 44
1, 203066, Note_off_c, 0, 79, 67
1, 203075, Control_c, 0, 64, 42
1, 203076, Note_on_c, 0, 80, 66
1, 203082, Note_on_c, 0, 55, 7
1, 203083, Note_off_c, 0, 55, 127
1, 203090, Control_c, 0, 64, 42
1, 203105, Note_off_c, 0, 80, 68
1, 203119, Control_c, 0, 64, 42
1, 203124, Note_on_c, 0, 79, 72
1, 203134, Control_c, 0, 64, 43
1, 203152, Note_off_c, 0, 79, 67
1, 203168, Note_on_c, 0, 80, 80
1, 203208, Control_c, 0, 64, 43
1, 203216, Note_off_c, 0, 80, 59
1, 203223, Control_c, 0, 64, 44
1, 203224, Note_on_c, 0, 79, 81
1, 203237, Control_c, 0, 64, 45
1, 203252, Control_c, 0, 64, 45
1, 203260, Note_off_c, 0, 79, 66
1, 203267, Control_c, 0, 64, 46
1, 203269, Note_on_c, 0, 78, 79
1, 203281, Control_c, 0, 64, 46
1, 203296, Control_c, 0, 64, 47
1, 203308, Note_off_c, 0, 78, 61
1, 203318, Note_on_c, 0, 79, 66
1, 203354, Note_on_c, 0, 80, 68
1, 203374, Note_off_c, 0, 79, 64
1, 203400, Note_on_c, 0, 82, 82
1, 203412, Note_off_c, 0, 80, 66
1, 203419, Note_off_c, 0, 82, 71
1, 203462, Note_on_c, 0, 84, 87
1, 203511, Note_on_c, 0, 85, 77
1, 203512, Note_off_c, 0, 84, 63
1, 203526, Control_c, 0, 64, 47
1, 203552, Note_on_c, 0, 88, 77
1, 203556, Control_c, 0, 64, 48
1, 203567, Note_off_c, 0, 85, 66
1, 203585, Control_c, 0, 64, 49
1, 203590, Note_on_c, 0, 89, 64
1, 203597, Note_off_c, 0, 88, 66
1, 203600, Control_c, 0, 64, 50
1, 203621, Note_off_c, 0, 89, 66
1, 203627, Note_on_c, 0, 91, 78
1, 203630, Control_c, 0, 64, 50
1, 203645, Control_c, 0, 64, 51
1, 203667, Note_on_c, 0, 89, 78
1, 203674, Control_c, 0, 64, 51
1, 203707, Note_off_c, 0, 91, 64
1, 203708, Note_on_c, 0, 88, 70
1, 203740, Note_on_c, 0, 85, 83
1, 203748, Note_off_c, 0, 89, 63
1, 203752, Note_off_c, 0, 88, 65
1, 203788, Note_off_c, 0, 85, 67
1, 203794, Note_on_c, 0, 84, 76
1, 203826, Note_off_c, 0, 84, 63
1, 203839, Control_c, 0, 64, 51
1, 203848, Note_on_c, 0, 82, 79
1, 203886, Note_on_c, 0, 80, 83
1, 203937, Note_off_c, 0, 82, 64
1, 203942, Note_on_c, 0, 79, 74
1, 203942, Control_c, 0, 64, 51
1, 203957, Control_c, 0, 64, 52
1, 203962, Note_off_c, 0, 80, 64
1, 203982, Note_on_c, 0, 77, 81
1, 203982, Note_off_c, 0, 79, 67
1, 203986, Control_c, 0, 64, 52
1, 204001, Control_c, 0, 64, 54
1, 204016, Control_c, 0, 64, 56
1, 204023, Note_off_c, 0, 77, 64
1, 204031, Control_c, 0, 64, 57
1, 204035, Note_on_c, 0, 76, 83
1, 204045, Control_c, 0, 64, 59
1, 204060, Control_c, 0, 64, 59
1, 204087, Note_on_c, 0, 73, 85
1, 204101, Note_off_c, 0, 76, 64
1, 204104, Control_c, 0, 64, 60
1, 204119, Control_c, 0, 64, 61
1, 204134, Control_c, 0, 64, 62
1, 204137, Note_off_c, 0, 73, 67
1, 204138, Note_on_c, 0, 72, 75
1, 204164, Control_c, 0, 64, 61
1, 204175, Note_off_c, 0, 72, 63
1, 204179, Control_c, 0, 64, 61
1, 204196, Note_on_c, 0, 70, 83
1, 204214, Note_off_c, 0, 53, 61
1, 204220, Note_off_c, 0, 61, 61
1, 204223, Control_c, 0, 64, 60
1, 204238, Note_on_c, 0, 68, 84
1, 204238, Control_c, 0, 64, 59
1, 204253, Note_off_c, 0, 64, 58
1, 204260, Control_c, 0, 64, 58
1, 204275, Control_c, 0, 64, 57
1, 204289, Note_on_c, 0, 67, 78
1, 204290, Control_c, 0, 64, 56
1, 204292, Note_off_c, 0, 58, 63
1, 204298, Note_off_c, 0, 70, 63
1, 204315, Note_off_c, 0, 68, 62
1, 204323, Note_on_c, 0, 60, 102
1, 204325, Note_on_c, 0, 53, 89
1, 204327, Note_on_c, 0, 65, 94
1, 204328, Note_on_c, 0, 56, 85
1, 204334, Control_c, 0, 64, 55
1, 204348, Note_off_c, 0, 67, 62
1, 204349, Control_c, 0, 64, 50
1, 204364, Control_c, 0, 64, 42
1, 204375, Note_off_c, 0, 65, 66
1, 204378, Note_off_c, 0, 60, 65
1, 204378, Control_c, 0, 64, 33
1, 204393, Control_c, 0, 64, 32
1, 204395, Note_off_c, 0, 56, 67
1, 204401, Note_off_c, 0, 53, 62
1, 204408, Control_c, 0, 64, 30
1, 204423, Control_c, 0, 64, 24
1, 204438, Control_c, 0, 64, 16
1, 204453, Control_c, 0, 64, 0
1, 204512, Note_on_c, 0, 60, 48
1, 204537, Note_off_c, 0, 60, 56
1, 204544, Note_on_c, 0, 62, 20
1, 204584, Note_off_c, 0, 62, 30
1, 204653, Note_on_c, 0, 65, 63
1, 204683, Note_off_c, 0, 65, 67
1, 204810, Note_on_c, 0, 60, 50
1, 204846, Note_off_c, 0, 60, 63
1, 204955, Note_on_c, 0, 65, 48
1, 204983, Note_off_c, 0, 65, 62
1, 205129, Note_on_c, 0, 60, 28
1, 205156, Note_off_c, 0, 60, 50
1, 205275, Note_on_c, 0, 65, 46
1, 205312, Note_off_c, 0, 65, 61
1, 205433, Note_on_c, 0, 60, 43
1, 205464, Note_off_c, 0, 60, 57
1, 205590, Note_on_c, 0, 65, 48
1, 205624, Note_off_c, 0, 65, 63
1, 205739, Note_on_c, 0, 60, 45
1, 205782, Note_off_c, 0, 60, 60
1, 205895, Note_on_c, 0, 65, 49
1, 205925, Note_off_c, 0, 65, 62
1, 206053, Note_on_c, 0, 60, 44
1, 206085, Note_off_c, 0, 60, 60
1, 206221, Note_on_c, 0, 65, 49
1, 206235, Note_on_c, 0, 68, 36
1, 206265, Note_off_c, 0, 65, 61
1, 206270, Note_off_c, 0, 68, 55
1, 206378, Note_on_c, 0, 65, 46
1, 206390, Note_on_c, 0, 60, 33
1, 206423, Note_off_c, 0, 60, 51
1, 206424, Note_off_c, 0, 65, 60
1, 206542, Note_on_c, 0, 65, 50
1, 206545, Note_on_c, 0, 68, 53
1, 206585, Note_off_c, 0, 65, 62
1, 206587, Note_off_c, 0, 68, 62
1, 206695, Note_on_c, 0, 65, 48
1, 206703, Note_on_c, 0, 60, 38
1, 206735, Note_off_c, 0, 60, 55
1, 206742, Note_off_c, 0, 65, 60
1, 206851, Note_on_c, 0, 65, 46
1, 206855, Note_on_c, 0, 68, 45
1, 206891, Note_off_c, 0, 65, 61
1, 206896, Note_off_c, 0, 68, 60
1, 207004, Note_on_c, 0, 65, 46
1, 207011, Note_on_c, 0, 60, 40
1, 207043, Note_off_c, 0, 60, 54
1, 207052, Note_off_c, 0, 65, 60
1, 207175, Note_on_c, 0, 65, 33
1, 207178, Note_on_c, 0, 68, 34
1, 207210, Note_off_c, 0, 65, 52
1, 207211, Note_off_c, 0, 68, 52
1, 207324, Note_on_c, 0, 65, 40
1, 207333, Note_on_c, 0, 60, 36
1, 207344, Control_c, 0, 67, 17
1, 207359, Control_c, 0, 67, 27
1, 207365, Note_off_c, 0, 60, 54
1, 207374, Control_c, 0, 67, 33
1, 207377, Note_off_c, 0, 65, 60
1, 207389, Control_c, 0, 67, 37
1, 207404, Control_c, 0, 67, 41
1, 207419, Control_c, 0, 67, 50
1, 207434, Control_c, 0, 67, 58
1, 207449, Control_c, 0, 67, 64
1, 207463, Control_c, 0, 67, 70
1, 207478, Control_c, 0, 67, 76
1, 207493, Control_c, 0, 67, 82
1, 207500, Note_on_c, 0, 65, 39
1, 207508, Control_c, 0, 67, 88
1, 207511, Note_on_c, 0, 68, 31
1, 207522, Control_c, 0, 67, 97
1, 207530, Note_off_c, 0, 65, 56
1, 207537, Control_c, 0, 67, 105
1, 207543, Note_off_c, 0, 68, 52
1, 207552, Control_c, 0, 67, 113
1, 207567, Control_c, 0, 67, 119
1, 207582, Control_c, 0, 67, 124
1, 207596, Control_c, 0, 67, 127
1, 207639, Note_on_c, 0, 65, 43
1, 207659, Note_on_c, 0, 60, 37
1, 207688, Note_off_c, 0, 60, 55
1, 207691, Note_off_c, 0, 65, 59
1, 207813, Note_on_c, 0, 65, 40
1, 207824, Note_on_c, 0, 68, 23
1, 207849, Note_off_c, 0, 65, 58
1, 207860, Note_off_c, 0, 68, 47
1, 207962, Note_on_c, 0, 65, 41
1, 207995, Note_on_c, 0, 60, 23
1, 208021, Note_off_c, 0, 60, 48
1, 208030, Note_off_c, 0, 65, 58
1, 208160, Note_on_c, 0, 49, 20
1, 208161, Note_on_c, 0, 44, 32
1, 208164, Note_on_c, 0, 37, 23
1, 208166, Note_on_c, 0, 65, 29
1, 208173, Note_on_c, 0, 68, 27
1, 208208, Note_off_c, 0, 65, 47
1, 208213, Note_off_c, 0, 68, 50
1, 208333, Note_on_c, 0, 65, 47
1, 208334, Note_on_c, 0, 61, 34
1, 208372, Note_off_c, 0, 61, 50
1, 208388, Note_off_c, 0, 65, 57
1, 208492, Note_on_c, 0, 65, 38
1, 208498, Note_on_c, 0, 68, 47
1, 208535, Note_off_c, 0, 65, 58
1, 208540, Note_off_c, 0, 68, 62
1, 208641, Note_on_c, 0, 65, 54
1, 208657, Note_on_c, 0, 61, 23
1, 208687, Note_off_c, 0, 65, 59
1, 208692, Note_off_c, 0, 61, 49
1, 208802, Note_on_c, 0, 68, 46
1, 208808, Note_on_c, 0, 65, 51
1, 208846, Note_off_c, 0, 68, 62
1, 208847, Note_off_c, 0, 65, 63
1, 208948, Note_on_c, 0, 65, 50
1, 208964, Note_on_c, 0, 61, 36
1, 208995, Note_off_c, 0, 61, 54
1, 209005, Note_off_c, 0, 65, 57
1, 209110, Note_on_c, 0, 68, 48
1, 209117, Note_on_c, 0, 65, 44
1, 209152, Note_off_c, 0, 65, 62
1, 209154, Note_off_c, 0, 68, 61
1, 209249, Note_on_c, 0, 65, 54
1, 209273, Note_on_c, 0, 61, 40
1, 209304, Note_off_c, 0, 61, 54
1, 209312, Note_off_c, 0, 65, 57
1, 209375, Control_c, 0, 64, 9
1, 209389, Control_c, 0, 64, 11
1, 209419, Note_on_c, 0, 68, 46
1, 209419, Control_c, 0, 64, 12
1, 209420, Note_on_c, 0, 65, 43
1, 209449, Control_c, 0, 64, 13
1, 209452, Note_off_c, 0, 65, 57
1, 209456, Note_off_c, 0, 68, 61
1, 209479, Control_c, 0, 64, 15
1, 209516, Control_c, 0, 64, 16
1, 209531, Control_c, 0, 64, 17
1, 209553, Note_on_c, 0, 65, 53
1, 209560, Control_c, 0, 64, 17
1, 209575, Control_c, 0, 64, 18
1, 209577, Note_on_c, 0, 61, 43
1, 209603, Note_off_c, 0, 61, 57
1, 209604, Control_c, 0, 64, 19
1, 209610, Note_off_c, 0, 65, 57
1, 209716, Note_on_c, 0, 68, 51
1, 209724, Note_on_c, 0, 65, 43
1, 209754, Note_off_c, 0, 65, 60
1, 209758, Note_off_c, 0, 68, 63
1, 209800, Note_off_c, 0, 49, 51
1, 209804, Note_off_c, 0, 44, 49
1, 209812, Note_off_c, 0, 37, 43
1, 209848, Note_on_c, 0, 65, 54
1, 209896, Note_on_c, 0, 61, 7
1, 209908, Note_off_c, 0, 65, 58
1, 209935, Note_off_c, 0, 61, 38
1, 210010, Note_on_c, 0, 48, 46
1, 210013, Note_on_c, 0, 36, 46
1, 210021, Note_on_c, 0, 44, 43
1, 210030, Note_on_c, 0, 66, 49
1, 210035, Note_on_c, 0, 68, 42
1, 210069, Note_off_c, 0, 66, 64
1, 210075, Note_off_c, 0, 68, 61
1, 210165, Note_on_c, 0, 66, 56
1, 210184, Note_on_c, 0, 63, 24
1, 210209, Note_off_c, 0, 66, 61
1, 210213, Note_off_c, 0, 63, 48
1, 210330, Note_on_c, 0, 66, 51
1, 210330, Note_on_c, 0, 68, 51
1, 210363, Note_off_c, 0, 66, 64
1, 210368, Note_off_c, 0, 68, 63
1, 210462, Note_on_c, 0, 66, 54
1, 210477, Note_on_c, 0, 63, 46
1, 210503, Note_off_c, 0, 63, 58
1, 210505, Note_off_c, 0, 66, 63
1, 210615, Note_on_c, 0, 68, 53
1, 210637, Note_on_c, 0, 66, 31
1, 210658, Note_off_c, 0, 68, 61
1, 210670, Note_off_c, 0, 66, 48
1, 210751, Note_on_c, 0, 66, 63
1, 210790, Note_off_c, 0, 66, 64
1, 210920, Note_on_c, 0, 68, 63
1, 210923, Note_on_c, 0, 66, 43
1, 210951, Note_off_c, 0, 66, 59
1, 210957, Note_off_c, 0, 68, 60
1, 211076, Note_on_c, 0, 75, 51
1, 211079, Note_on_c, 0, 68, 47
1, 211106, Note_off_c, 0, 68, 57
1, 211113, Note_off_c, 0, 75, 63
1, 211204, Note_on_c, 0, 75, 57
1, 211216, Note_on_c, 0, 78, 61
1, 211243, Note_off_c, 0, 75, 63
1, 211252, Note_off_c, 0, 78, 65
1, 211357, Note_on_c, 0, 80, 66
1, 211361, Note_on_c, 0, 78, 41
1, 211388, Note_off_c, 0, 78, 57
1, 211391, Note_off_c, 0, 80, 64
1, 211414, Control_c, 0, 64, 21
1, 211429, Control_c, 0, 64, 24
1, 211443, Control_c, 0, 64, 28
1, 211458, Control_c, 0, 64, 34
1, 211473, Control_c, 0, 64, 41
1, 211488, Control_c, 0, 64, 49
1, 211496, Note_on_c, 0, 80, 58
1, 211501, Note_on_c, 0, 87, 63
1, 211503, Control_c, 0, 64, 55
1, 211517, Control_c, 0, 64, 60
1, 211529, Note_off_c, 0, 36, 56
1, 211531, Note_off_c, 0, 80, 65
1, 211532, Control_c, 0, 64, 64
1, 211536, Note_off_c, 0, 87, 62
1, 211537, Note_off_c, 0, 48, 60
1, 211547, Control_c, 0, 64, 67
1, 211562, Control_c, 0, 64, 69
1, 211577, Control_c, 0, 64, 71
1, 211581, Note_off_c, 0, 44, 61
1, 211592, Control_c, 0, 64, 71
1, 211607, Control_c, 0, 64, 70
1, 211622, Control_c, 0, 64, 69
1, 211636, Control_c, 0, 64, 68
1, 211640, Note_on_c, 0, 87, 53
1, 211651, Note_on_c, 0, 90, 55
1, 211651, Control_c, 0, 64, 66
1, 211666, Control_c, 0, 64, 65
1, 211679, Note_off_c, 0, 87, 62
1, 211681, Control_c, 0, 64, 63
1, 211696, Control_c, 0, 64, 62
1, 211704, Note_off_c, 0, 90, 53
1, 211711, Control_c, 0, 64, 61
1, 211726, Control_c, 0, 64, 60
1, 211748, Control_c, 0, 64, 59
1, 211763, Control_c, 0, 64, 58
1, 211778, Control_c, 0, 64, 57
1, 211792, Control_c, 0, 64, 55
1, 211807, Control_c, 0, 64, 54
1, 211811, Note_on_c, 0, 49, 42
1, 211815, Note_on_c, 0, 37, 41
1, 211818, Note_on_c, 0, 44, 43
1, 211822, Control_c, 0, 64, 52
1, 211837, Control_c, 0, 64, 51
1, 211840, Note_on_c, 0, 89, 44
1, 211849, Note_on_c, 0, 85, 44
1, 211851, Control_c, 0, 64, 50
1, 211866, Control_c, 0, 64, 49
1, 211878, Note_off_c, 0, 89, 45
1, 211879, Note_off_c, 0, 85, 54
1, 211881, Control_c, 0, 64, 47
1, 211896, Control_c, 0, 64, 46
1, 211911, Control_c, 0, 64, 45
1, 211926, Control_c, 0, 64, 45
1, 211940, Control_c, 0, 64, 44
1, 211972, Note_on_c, 0, 77, 53
1, 211981, Note_on_c, 0, 80, 48
1, 211984, Control_c, 0, 64, 45
1, 211999, Control_c, 0, 64, 46
1, 212008, Note_off_c, 0, 77, 56
1, 212014, Control_c, 0, 64, 47
1, 212029, Note_off_c, 0, 80, 59
1, 212029, Control_c, 0, 64, 47
1, 212044, Control_c, 0, 64, 48
1, 212073, Control_c, 0, 64, 48
1, 212111, Note_on_c, 0, 89, 64
1, 212117, Note_on_c, 0, 85, 55
1, 212158, Note_off_c, 0, 85, 63
1, 212160, Note_off_c, 0, 89, 53
1, 212245, Note_on_c, 0, 80, 61
1, 212248, Note_on_c, 0, 77, 56
1, 212266, Control_c, 0, 64, 48
1, 212281, Note_off_c, 0, 77, 63
1, 212299, Note_off_c, 0, 80, 57
1, 212378, Note_on_c, 0, 89, 70
1, 212387, Note_on_c, 0, 85, 62
1, 212414, Control_c, 0, 64, 48
1, 212426, Note_off_c, 0, 85, 59
1, 212429, Control_c, 0, 64, 49
1, 212431, Note_off_c, 0, 89, 59
1, 212444, Control_c, 0, 64, 50
1, 212458, Control_c, 0, 64, 50
1, 212473, Control_c, 0, 64, 51
1, 212496, Control_c, 0, 64, 52
1, 212526, Control_c, 0, 64, 52
1, 212536, Note_on_c, 0, 80, 60
1, 212541, Note_on_c, 0, 77, 50
1, 212556, Control_c, 0, 64, 53
1, 212564, Note_off_c, 0, 77, 57
1, 212570, Control_c, 0, 64, 53
1, 212571, Note_off_c, 0, 80, 62
1, 212600, Control_c, 0, 64, 54
1, 212659, Control_c, 0, 64, 54
1, 212676, Note_on_c, 0, 89, 66
1, 212689, Control_c, 0, 64, 55
1, 212692, Note_on_c, 0, 85, 61
1, 212724, Note_off_c, 0, 85, 66
1, 212725, Note_off_c, 0, 89, 59
1, 212823, Note_on_c, 0, 80, 61
1, 212827, Note_on_c, 0, 85, 56
1, 212837, Control_c, 0, 64, 55
1, 212861, Note_off_c, 0, 80, 62
1, 212868, Note_off_c, 0, 85, 60
1, 212896, Control_c, 0, 64, 56
1, 212966, Note_on_c, 0, 80, 49
1, 212966, Note_on_c, 0, 77, 54
1, 212987, Note_off_c, 0, 80, 62
1, 213002, Note_off_c, 0, 77, 65
1, 213118, Control_c, 0, 64, 56
1, 213121, Note_on_c, 0, 77, 56
1, 213132, Note_on_c, 0, 73, 54
1, 213133, Control_c, 0, 64, 57
1, 213148, Control_c, 0, 64, 58
1, 213163, Control_c, 0, 64, 59
1, 213163, Note_off_c, 0, 73, 64
1, 213178, Control_c, 0, 64, 60
1, 213188, Note_off_c, 0, 77, 56
1, 213193, Control_c, 0, 64, 61
1, 213207, Control_c, 0, 64, 63
1, 213222, Control_c, 0, 64, 64
1, 213244, Control_c, 0, 64, 66
1, 213259, Control_c, 0, 64, 68
1, 213262, Note_on_c, 0, 73, 54
1, 213274, Control_c, 0, 64, 70
1, 213281, Note_on_c, 0, 68, 58
1, 213290, Control_c, 0, 64, 72
1, 213305, Control_c, 0, 64, 74
1, 213307, Note_off_c, 0, 73, 59
1, 213318, Note_off_c, 0, 68, 63
1, 213319, Control_c, 0, 64, 76
1, 213334, Control_c, 0, 64, 77
1, 213336, Note_off_c, 0, 44, 56
1, 213349, Control_c, 0, 64, 78
1, 213363, Control_c, 0, 64, 79
1, 213381, Note_off_c, 0, 49, 35
1, 213392, Note_off_c, 0, 37, 33
1, 213393, Control_c, 0, 64, 78
1, 213431, Note_on_c, 0, 68, 44
1, 213437, Control_c, 0, 64, 78
1, 213443, Note_on_c, 0, 65, 45
1, 213476, Note_off_c, 0, 68, 60
1, 213479, Note_off_c, 0, 65, 62
1, 213482, Control_c, 0, 64, 77
1, 213497, Control_c, 0, 64, 77
1, 213512, Control_c, 0, 64, 76
1, 213556, Control_c, 0, 64, 76
1, 213571, Control_c, 0, 64, 75
1, 213586, Control_c, 0, 64, 73
1, 213601, Control_c, 0, 64, 67
1, 213605, Note_on_c, 0, 48, 44
1, 213616, Control_c, 0, 64, 61
1, 213623, Note_on_c, 0, 44, 43
1, 213624, Note_on_c, 0, 36, 39
1, 213631, Control_c, 0, 64, 53
1, 213641, Note_on_c, 0, 68, 23
1, 213645, Control_c, 0, 64, 52
1, 213652, Note_on_c, 0, 66, 28
1, 213675, Control_c, 0, 64, 53
1, 213681, Note_off_c, 0, 68, 50
1, 213684, Note_off_c, 0, 66, 54
1, 213690, Control_c, 0, 64, 55
1, 213704, Control_c, 0, 64, 57
1, 213719, Control_c, 0, 64, 59
1, 213734, Control_c, 0, 64, 61
1, 213749, Control_c, 0, 64, 63
1, 213763, Control_c, 0, 64, 65
1, 213774, Note_on_c, 0, 66, 58
1, 213778, Control_c, 0, 64, 68
1, 213780, Note_on_c, 0, 63, 53
1, 213793, Control_c, 0, 64, 73
1, 213808, Control_c, 0, 64, 79
1, 213819, Note_off_c, 0, 63, 62
1, 213823, Control_c, 0, 64, 87
1, 213832, Note_off_c, 0, 66, 59
1, 213837, Control_c, 0, 64, 100
1, 213852, Control_c, 0, 64, 127
1, 213912, Note_on_c, 0, 68, 61
1, 213917, Note_on_c, 0, 66, 57
1, 213966, Note_off_c, 0, 66, 56
1, 213995, Note_off_c, 0, 68, 58
1, 213998, Note_off_c, 0, 44, 58
1, 214025, Poly_aftertouch_c, 0, 38, 127
1, 214083, Note_on_c, 0, 45, 70
1, 214083, Control_c, 0, 64, 96
1, 214098, Control_c, 0, 64, 73
1, 214102, Note_on_c, 0, 66, 57
1, 214109, Note_on_c, 0, 69, 61
1, 214113, Control_c, 0, 64, 60
1, 214128, Control_c, 0, 64, 44
1, 214142, Control_c, 0, 64, 40
1, 214145, Note_off_c, 0, 66, 59
1, 214172, Control_c, 0, 64, 43
1, 214173, Note_off_c, 0, 69, 62
1, 214186, Control_c, 0, 64, 47
1, 214201, Control_c, 0, 64, 52
1, 214216, Control_c, 0, 64, 57
1, 214231, Control_c, 0, 64, 60
1, 214246, Control_c, 0, 64, 62
1, 214254, Note_on_c, 0, 66, 68
1, 214260, Control_c, 0, 64, 64
1, 214263, Note_on_c, 0, 63, 57
1, 214275, Control_c, 0, 64, 67
1, 214290, Control_c, 0, 64, 71
1, 214303, Note_off_c, 0, 63, 61
1, 214305, Control_c, 0, 64, 77
1, 214320, Control_c, 0, 64, 84
1, 214326, Note_off_c, 0, 66, 58
1, 214334, Control_c, 0, 64, 92
1, 214349, Control_c, 0, 64, 98
1, 214364, Control_c, 0, 64, 97
1, 214379, Control_c, 0, 64, 95
1, 214387, Note_off_c, 0, 45, 62
1, 214394, Control_c, 0, 64, 93
1, 214395, Note_on_c, 0, 69, 65
1, 214409, Control_c, 0, 64, 92
1, 214424, Control_c, 0, 64, 91
1, 214434, Poly_aftertouch_c, 0, 66, 127
1, 214439, Control_c, 0, 64, 88
1, 214441, Note_off_c, 0, 69, 61
1, 214454, Control_c, 0, 64, 84
1, 214468, Control_c, 0, 64, 78
1, 214474, Poly_aftertouch_c, 0, 66, 0
1, 214483, Control_c, 0, 64, 72
1, 214498, Control_c, 0, 64, 67
1, 214513, Control_c, 0, 64, 64
1, 214528, Control_c, 0, 64, 59
1, 214539, Note_on_c, 0, 44, 56
1, 214542, Control_c, 0, 64, 56
1, 214557, Control_c, 0, 64, 53
1, 214564, Note_on_c, 0, 68, 61
1, 214572, Control_c, 0, 64, 52
1, 214575, Note_on_c, 0, 66, 49
1, 214586, Control_c, 0, 64, 50
1, 214601, Note_off_c, 0, 68, 62
1, 214601, Control_c, 0, 64, 49
1, 214604, Note_off_c, 0, 66, 63
1, 214616, Control_c, 0, 64, 46
1, 214631, Control_c, 0, 64, 43
1, 214646, Control_c, 0, 64, 40
1, 214660, Control_c, 0, 64, 38
1, 214675, Control_c, 0, 64, 37
1, 214690, Control_c, 0, 64, 36
1, 214695, Note_on_c, 0, 75, 63
1, 214718, Note_on_c, 0, 68, 35
1, 214751, Note_off_c, 0, 75, 54
1, 214755, Note_off_c, 0, 68, 50
1, 214772, Control_c, 0, 64, 36
1, 214816, Control_c, 0, 64, 35
1, 214842, Note_on_c, 0, 78, 63
1, 214844, Note_on_c, 0, 75, 37
1, 214868, Note_off_c, 0, 75, 55
1, 214877, Note_off_c, 0, 78, 65
1, 214981, Control_c, 0, 64, 36
1, 214987, Note_on_c, 0, 78, 53
1, 214987, Note_on_c, 0, 80, 64
1, 214996, Control_c, 0, 64, 36
1, 215010, Control_c, 0, 64, 37
1, 215023, Note_off_c, 0, 78, 65
1, 215023, Note_off_c, 0, 80, 64
1, 215025, Control_c, 0, 64, 39
1, 215040, Control_c, 0, 64, 41
1, 215055, Control_c, 0, 64, 44
1, 215070, Control_c, 0, 64, 49
1, 215084, Control_c, 0, 64, 56
1, 215099, Control_c, 0, 64, 60
1, 215114, Control_c, 0, 64, 63
1, 215124, Note_on_c, 0, 87, 62
1, 215129, Control_c, 0, 64, 64
1, 215135, Poly_aftertouch_c, 0, 38, 0
1, 215139, Note_on_c, 0, 80, 40
1, 215144, Control_c, 0, 64, 66
1, 215158, Control_c, 0, 64, 68
1, 215163, Note_off_c, 0, 87, 60
1, 215165, Note_off_c, 0, 80, 56
1, 215173, Control_c, 0, 64, 71
1, 215174, Note_off_c, 0, 36, 58
1, 215182, Note_off_c, 0, 48, 60
1, 215188, Control_c, 0, 64, 72
1, 215202, Control_c, 0, 64, 73
1, 215220, Note_off_c, 0, 44, 61
1, 215262, Control_c, 0, 64, 73
1, 215273, Note_on_c, 0, 90, 61
1, 215288, Note_on_c, 0, 87, 27
1, 215291, Control_c, 0, 64, 72
1, 215306, Control_c, 0, 64, 72
1, 215321, Control_c, 0, 64, 71
1, 215325, Note_off_c, 0, 87, 42
1, 215336, Control_c, 0, 64, 70
1, 215339, Note_off_c, 0, 90, 57
1, 215351, Control_c, 0, 64, 69
1, 215366, Control_c, 0, 64, 67
1, 215381, Control_c, 0, 64, 65
1, 215396, Control_c, 0, 64, 63
1, 215410, Control_c, 0, 64, 61
1, 215425, Control_c, 0, 64, 60
1, 215436, Note_on_c, 0, 49, 39
1, 215440, Control_c, 0, 64, 58
1, 215441, Note_on_c, 0, 44, 43
1, 215451, Note_on_c, 0, 37, 42
1, 215455, Control_c, 0, 64, 55
1, 215461, Note_on_c, 0, 85, 44
1, 215470, Control_c, 0, 64, 53
1, 215473, Note_on_c, 0, 89, 42
1, 215491, Control_c, 0, 64, 52
1, 215497, Note_off_c, 0, 85, 55
1, 215506, Control_c, 0, 64, 51
1, 215507, Note_off_c, 0, 89, 54
1, 215521, Control_c, 0, 64, 49
1, 215536, Control_c, 0, 64, 47
1, 215551, Control_c, 0, 64, 45
1, 215566, Control_c, 0, 64, 43
1, 215580, Control_c, 0, 64, 41
1, 215589, Note_on_c, 0, 77, 61
1, 215595, Control_c, 0, 64, 38
1, 215600, Note_on_c, 0, 80, 59
1, 215610, Control_c, 0, 64, 37
1, 215625, Control_c, 0, 64, 36
1, 215631, Note_off_c, 0, 77, 59
1, 215640, Control_c, 0, 64, 36
1, 215655, Control_c, 0, 64, 35
1, 215668, Note_off_c, 0, 80, 55
1, 215685, Control_c, 0, 64, 35
1, 215700, Control_c, 0, 64, 34
1, 215737, Note_on_c, 0, 85, 61
1, 215741, Note_on_c, 0, 89, 66
1, 215783, Note_off_c, 0, 44, 62
1, 215808, Note_off_c, 0, 85, 60
1, 215811, Note_off_c, 0, 89, 55
1, 215899, Note_on_c, 0, 46, 71
1, 215922, Control_c, 0, 64, 35
1, 215924, Note_on_c, 0, 82, 63
1, 215926, Note_on_c, 0, 77, 52
1, 215937, Control_c, 0, 64, 35
1, 215961, Note_off_c, 0, 77, 56
1, 216009, Note_off_c, 0, 82, 60
1, 216069, Note_on_c, 0, 85, 68
1, 216075, Note_on_c, 0, 89, 63
1, 216114, Control_c, 0, 64, 36
1, 216138, Note_off_c, 0, 89, 51
1, 216144, Note_off_c, 0, 85, 58
1, 216144, Control_c, 0, 64, 36
1, 216174, Control_c, 0, 64, 37
1, 216189, Control_c, 0, 64, 37
1, 216203, Control_c, 0, 64, 38
1, 216212, Note_on_c, 0, 82, 62
1, 216215, Note_on_c, 0, 77, 61
1, 216255, Control_c, 0, 64, 38
1, 216259, Note_off_c, 0, 77, 62
1, 216272, Note_off_c, 0, 46, 63
1, 216285, Control_c, 0, 64, 39
1, 216286, Note_off_c, 0, 82, 63
1, 216300, Control_c, 0, 64, 39
1, 216344, Control_c, 0, 64, 40
1, 216379, Note_on_c, 0, 89, 61
1, 216382, Note_on_c, 0, 85, 61
1, 216388, Control_c, 0, 64, 40
1, 216388, Note_on_c, 0, 44, 55
1, 216418, Note_off_c, 0, 89, 61
1, 216419, Note_off_c, 0, 85, 63
1, 216493, Control_c, 0, 64, 41
1, 216516, Note_on_c, 0, 85, 65
1, 216528, Note_on_c, 0, 80, 54
1, 216555, Note_off_c, 0, 85, 58
1, 216565, Note_off_c, 0, 80, 62
1, 216567, Control_c, 0, 64, 41
1, 216582, Control_c, 0, 64, 42
1, 216597, Control_c, 0, 64, 42
1, 216611, Control_c, 0, 64, 43
1, 216626, Control_c, 0, 64, 44
1, 216641, Control_c, 0, 64, 45
1, 216650, Note_on_c, 0, 80, 58
1, 216652, Note_on_c, 0, 77, 61
1, 216655, Control_c, 0, 64, 46
1, 216670, Control_c, 0, 64, 48
1, 216683, Note_off_c, 0, 80, 67
1, 216685, Control_c, 0, 64, 50
1, 216688, Note_off_c, 0, 77, 64
1, 216700, Control_c, 0, 64, 51
1, 216715, Control_c, 0, 64, 52
1, 216729, Control_c, 0, 64, 54
1, 216744, Control_c, 0, 64, 56
1, 216759, Control_c, 0, 64, 58
1, 216773, Control_c, 0, 64, 59
1, 216788, Control_c, 0, 64, 61
1, 216803, Control_c, 0, 64, 62
1, 216811, Note_on_c, 0, 73, 68
1, 216817, Note_on_c, 0, 77, 43
1, 216818, Control_c, 0, 64, 63
1, 216833, Control_c, 0, 64, 65
1, 216841, Note_on_c, 0, 76, 39
1, 216847, Control_c, 0, 64, 67
1, 216851, Note_off_c, 0, 77, 51
1, 216853, Note_off_c, 0, 73, 60
1, 216862, Control_c, 0, 64, 69
1, 216869, Note_off_c, 0, 76, 35
1, 216877, Control_c, 0, 64, 72
1, 216892, Control_c, 0, 64, 76
1, 216907, Control_c, 0, 64, 82
1, 216922, Control_c, 0, 64, 90
1, 216937, Control_c, 0, 64, 99
1, 216952, Control_c, 0, 64, 108
1, 216952, Note_on_c, 0, 68, 71
1, 216967, Control_c, 0, 64, 113
1, 216968, Note_on_c, 0, 73, 40
1, 216988, Control_c, 0, 64, 114
1, 216999, Note_off_c, 0, 73, 57
1, 217003, Note_off_c, 0, 68, 56
1, 217009, Note_off_c, 0, 49, 52
1, 217036, Note_off_c, 0, 44, 56
1, 217043, Note_off_c, 0, 37, 36
1, 217047, Poly_aftertouch_c, 0, 76, 0
1, 217052, Poly_aftertouch_c, 0, 77, 0
1, 217117, Note_on_c, 0, 65, 46
1, 217122, Note_on_c, 0, 68, 56
1, 217144, Note_off_c, 0, 65, 57
1, 217150, Note_off_c, 0, 68, 62
1, 217151, Control_c, 0, 64, 113
1, 217241, Control_c, 0, 64, 111
1, 217255, Control_c, 0, 64, 107
1, 217270, Control_c, 0, 64, 98
1, 217271, Note_on_c, 0, 77, 66
1, 217272, Note_on_c, 0, 48, 57
1, 217277, Note_on_c, 0, 36, 57
1, 217280, Note_on_c, 0, 41, 58
1, 217284, Note_on_c, 0, 75, 53
1, 217286, Control_c, 0, 64, 83
1, 217300, Control_c, 0, 64, 70
1, 217315, Control_c, 0, 64, 60
1, 217318, Note_off_c, 0, 77, 55
1, 217318, Note_off_c, 0, 75, 60
1, 217330, Control_c, 0, 64, 51
1, 217360, Control_c, 0, 64, 52
1, 217375, Control_c, 0, 64, 55
1, 217390, Control_c, 0, 64, 59
1, 217404, Control_c, 0, 64, 64
1, 217418, Note_on_c, 0, 65, 59
1, 217419, Control_c, 0, 64, 69
1, 217429, Note_on_c, 0, 69, 62
1, 217434, Control_c, 0, 64, 78
1, 217449, Control_c, 0, 64, 92
1, 217464, Note_off_c, 0, 65, 59
1, 217464, Control_c, 0, 64, 116
1, 217478, Control_c, 0, 64, 127
1, 217485, Note_off_c, 0, 69, 58
1, 217567, Note_on_c, 0, 77, 71
1, 217582, Note_on_c, 0, 75, 56
1, 217625, Note_off_c, 0, 77, 61
1, 217626, Note_off_c, 0, 75, 55
1, 217700, Control_c, 0, 64, 99
1, 217715, Control_c, 0, 64, 83
1, 217738, Control_c, 0, 64, 72
1, 217742, Note_on_c, 0, 42, 75
1, 217752, Control_c, 0, 64, 64
1, 217767, Control_c, 0, 64, 59
1, 217769, Note_on_c, 0, 66, 61
1, 217778, Note_on_c, 0, 69, 63
1, 217782, Control_c, 0, 64, 57
1, 217797, Control_c, 0, 64, 56
1, 217811, Control_c, 0, 64, 55
1, 217826, Control_c, 0, 64, 54
1, 217833, Note_off_c, 0, 66, 48
1, 217856, Control_c, 0, 64, 53
1, 217871, Control_c, 0, 64, 53
1, 217885, Control_c, 0, 64, 52
1, 217900, Control_c, 0, 64, 51
1, 217912, Note_off_c, 0, 41, 58
1, 217915, Control_c, 0, 64, 50
1, 217922, Note_on_c, 0, 78, 75
1, 217930, Control_c, 0, 64, 49
1, 217937, Note_on_c, 0, 75, 64
1, 217945, Control_c, 0, 64, 48
1, 217958, Note_off_c, 0, 69, 25
1, 217959, Control_c, 0, 64, 47
1, 217974, Control_c, 0, 64, 46
1, 217989, Control_c, 0, 64, 44
1, 217995, Note_off_c, 0, 78, 63
1, 217995, Note_off_c, 0, 75, 50
1, 218004, Control_c, 0, 64, 42
1, 218019, Control_c, 0, 64, 40
1, 218034, Control_c, 0, 64, 39
1, 218049, Control_c, 0, 64, 37
1, 218064, Control_c, 0, 64, 33
1, 218073, Note_on_c, 0, 69, 69
1, 218075, Note_on_c, 0, 66, 67
1, 218078, Control_c, 0, 64, 29
1, 218094, Control_c, 0, 64, 23
1, 218108, Control_c, 0, 64, 9
1, 218120, Note_off_c, 0, 66, 58
1, 218123, Control_c, 0, 64, 0
1, 218150, Note_off_c, 0, 69, 61
1, 218212, Note_on_c, 0, 41, 66
1, 218219, Note_on_c, 0, 77, 75
1, 218225, Note_on_c, 0, 75, 67
1, 218268, Note_off_c, 0, 77, 56
1, 218272, Note_off_c, 0, 75, 53
1, 218348, Note_off_c, 0, 42, 62
1, 218356, Note_on_c, 0, 65, 69
1, 218368, Note_on_c, 0, 69, 64
1, 218391, Note_off_c, 0, 65, 60
1, 218403, Note_off_c, 0, 69, 61
1, 218511, Note_on_c, 0, 75, 57
1, 218514, Note_on_c, 0, 77, 58
1, 218545, Note_off_c, 0, 75, 65
1, 218549, Note_off_c, 0, 77, 65
1, 218606, Control_c, 0, 64, 25
1, 218621, Control_c, 0, 64, 35
1, 218635, Control_c, 0, 64, 45
1, 218650, Control_c, 0, 64, 50
1, 218665, Control_c, 0, 64, 54
1, 218670, Note_on_c, 0, 77, 48
1, 218674, Note_on_c, 0, 81, 51
1, 218680, Control_c, 0, 64, 56
1, 218695, Control_c, 0, 64, 59
1, 218698, Note_off_c, 0, 81, 60
1, 218707, Note_off_c, 0, 77, 64
1, 218709, Control_c, 0, 64, 62
1, 218724, Control_c, 0, 64, 64
1, 218739, Control_c, 0, 64, 68
1, 218753, Control_c, 0, 64, 73
1, 218768, Control_c, 0, 64, 80
1, 218777, Note_on_c, 0, 81, 64
1, 218783, Control_c, 0, 64, 91
1, 218794, Note_off_c, 0, 48, 58
1, 218798, Control_c, 0, 64, 107
1, 218801, Note_on_c, 0, 87, 61
1, 218805, Note_off_c, 0, 36, 53
1, 218813, Control_c, 0, 64, 127
1, 218836, Note_off_c, 0, 81, 63
1, 218839, Note_off_c, 0, 87, 62
1, 218852, Note_off_c, 0, 41, 62
1, 218935, Note_on_c, 0, 89, 63
1, 218943, Note_on_c, 0, 87, 51
1, 218972, Note_off_c, 0, 87, 59
1, 218977, Control_c, 0, 64, 115
1, 218986, Note_off_c, 0, 89, 58
1, 218992, Control_c, 0, 64, 104
1, 219006, Control_c, 0, 64, 97
1, 219021, Control_c, 0, 64, 92
1, 219036, Control_c, 0, 64, 87
1, 219050, Control_c, 0, 64, 79
1, 219065, Control_c, 0, 64, 69
1, 219080, Control_c, 0, 64, 61
1, 219095, Control_c, 0, 64, 52
1, 219105, Note_on_c, 0, 46, 45
1, 219106, Note_on_c, 0, 89, 57
1, 219107, Note_on_c, 0, 34, 39
1, 219110, Note_on_c, 0, 85, 59
1, 219110, Control_c, 0, 64, 53
1, 219112, Note_on_c, 0, 41, 32
1, 219125, Control_c, 0, 64, 53
1, 219140, Control_c, 0, 64, 55
1, 219150, Note_off_c, 0, 85, 62
1, 219151, Note_off_c, 0, 89, 54
1, 219155, Control_c, 0, 64, 57
1, 219169, Control_c, 0, 64, 60
1, 219184, Control_c, 0, 64, 63
1, 219199, Control_c, 0, 64, 65
1, 219214, Control_c, 0, 64, 68
1, 219236, Control_c, 0, 64, 74
1, 219248, Note_on_c, 0, 82, 65
1, 219250, Control_c, 0, 64, 84
1, 219251, Note_on_c, 0, 77, 61
1, 219265, Control_c, 0, 64, 104
1, 219280, Control_c, 0, 64, 127
1, 219288, Note_off_c, 0, 77, 63
1, 219321, Note_off_c, 0, 82, 61
1, 219381, Note_on_c, 0, 85, 73
1, 219389, Note_on_c, 0, 89, 69
1, 219428, Note_off_c, 0, 41, 51
1, 219433, Note_off_c, 0, 89, 54
1, 219451, Note_off_c, 0, 85, 63
1, 219515, Note_on_c, 0, 42, 84
1, 219530, Control_c, 0, 64, 87
1, 219542, Note_on_c, 0, 82, 79
1, 219545, Control_c, 0, 64, 67
1, 219554, Note_on_c, 0, 78, 64
1, 219560, Control_c, 0, 64, 55
1, 219575, Control_c, 0, 64, 54
1, 219590, Control_c, 0, 64, 54
1, 219592, Note_off_c, 0, 78, 61
1, 219605, Control_c, 0, 64, 56
1, 219613, Note_off_c, 0, 82, 61
1, 219620, Control_c, 0, 64, 59
1, 219634, Control_c, 0, 64, 63
1, 219649, Control_c, 0, 64, 68
1, 219664, Control_c, 0, 64, 75
1, 219679, Note_on_c, 0, 90, 74
1, 219679, Control_c, 0, 64, 87
1, 219682, Note_on_c, 0, 85, 79
1, 219694, Control_c, 0, 64, 104
1, 219709, Control_c, 0, 64, 127
1, 219742, Note_off_c, 0, 90, 56
1, 219745, Note_off_c, 0, 85, 64
1, 219822, Note_on_c, 0, 78, 65
1, 219826, Note_on_c, 0, 82, 73
1, 219865, Note_off_c, 0, 78, 62
1, 219882, Note_off_c, 0, 82, 63
1, 219885, Note_off_c, 0, 42, 62
1, 219902, Control_c, 0, 64, 107
1, 219917, Control_c, 0, 64, 94
1, 219932, Control_c, 0, 64, 83
1, 219946, Control_c, 0, 64, 76
1, 219961, Control_c, 0, 64, 69
1, 219981, Note_on_c, 0, 85, 75
1, 219982, Note_on_c, 0, 89, 70
1, 219983, Control_c, 0, 64, 65
1, 219987, Note_on_c, 0, 41, 60
1, 219998, Control_c, 0, 64, 63
1, 220013, Control_c, 0, 64, 62
1, 220028, Note_off_c, 0, 85, 62
1, 220028, Control_c, 0, 64, 61
1, 220033, Note_off_c, 0, 89, 60
1, 220043, Control_c, 0, 64, 60
1, 220058, Control_c, 0, 64, 58
1, 220073, Control_c, 0, 64, 56
1, 220087, Control_c, 0, 64, 55
1, 220102, Control_c, 0, 64, 54
1, 220117, Control_c, 0, 64, 53
1, 220125, Note_on_c, 0, 85, 61
1, 220128, Note_on_c, 0, 82, 70
1, 220132, Control_c, 0, 64, 52
1, 220147, Control_c, 0, 64, 51
1, 220161, Control_c, 0, 64, 50
1, 220164, Note_off_c, 0, 82, 63
1, 220164, Note_off_c, 0, 85, 65
1, 220191, Control_c, 0, 64, 50
1, 220205, Control_c, 0, 64, 48
1, 220220, Control_c, 0, 64, 47
1, 220235, Control_c, 0, 64, 46
1, 220250, Control_c, 0, 64, 45
1, 220255, Note_on_c, 0, 77, 71
1, 220265, Control_c, 0, 64, 44
1, 220267, Note_on_c, 0, 82, 52
1, 220279, Control_c, 0, 64, 44
1, 220286, Note_off_c, 0, 82, 62
1, 220298, Note_off_c, 0, 77, 60
1, 220324, Control_c, 0, 64, 44
1, 220339, Control_c, 0, 64, 45
1, 220353, Control_c, 0, 64, 46
1, 220368, Control_c, 0, 64, 48
1, 220383, Control_c, 0, 64, 50
1, 220398, Control_c, 0, 64, 51
1, 220407, Note_on_c, 0, 77, 64
1, 220413, Control_c, 0, 64, 54
1, 220421, Note_on_c, 0, 73, 56
1, 220427, Control_c, 0, 64, 56
1, 220442, Control_c, 0, 64, 58
1, 220453, Note_off_c, 0, 73, 66
1, 220457, Control_c, 0, 64, 60
1, 220459, Note_off_c, 0, 77, 58
1, 220473, Control_c, 0, 64, 61
1, 220488, Control_c, 0, 64, 63
1, 220502, Control_c, 0, 64, 65
1, 220517, Control_c, 0, 64, 68
1, 220532, Control_c, 0, 64, 72
1, 220539, Note_on_c, 0, 73, 60
1, 220547, Control_c, 0, 64, 78
1, 220562, Note_on_c, 0, 70, 50
1, 220562, Control_c, 0, 64, 85
1, 220576, Note_off_c, 0, 46, 45
1, 220576, Control_c, 0, 64, 98
1, 220579, Note_off_c, 0, 41, 62
1, 220586, Note_off_c, 0, 34, 40
1, 220588, Note_off_c, 0, 70, 60
1, 220591, Control_c, 0, 64, 127
1, 220592, Note_off_c, 0, 73, 56
1, 220687, Note_on_c, 0, 70, 55
1, 220712, Note_on_c, 0, 65, 48
1, 220737, Note_off_c, 0, 70, 64
1, 220746, Note_off_c, 0, 65, 61
1, 220851, Control_c, 0, 64, 116
1, 220866, Control_c, 0, 64, 87
1, 220872, Note_on_c, 0, 73, 61
1, 220876, Note_on_c, 0, 46, 49
1, 220876, Note_on_c, 0, 58, 51
1, 220881, Note_on_c, 0, 65, 51
1, 220881, Control_c, 0, 64, 71
1, 220895, Control_c, 0, 64, 60
1, 220910, Control_c, 0, 64, 51
1, 220919, Note_off_c, 0, 73, 56
1, 220925, Control_c, 0, 64, 52
1, 220925, Note_off_c, 0, 65, 61
1, 220940, Control_c, 0, 64, 53
1, 220955, Control_c, 0, 64, 56
1, 220970, Control_c, 0, 64, 59
1, 220984, Control_c, 0, 64, 62
1, 220999, Control_c, 0, 64, 64
1, 221014, Control_c, 0, 64, 67
1, 221023, Note_on_c, 0, 61, 46
1, 221028, Control_c, 0, 64, 70
1, 221030, Note_on_c, 0, 65, 58
1, 221043, Control_c, 0, 64, 77
1, 221057, Note_off_c, 0, 61, 61
1, 221058, Control_c, 0, 64, 83
1, 221071, Note_off_c, 0, 65, 62
1, 221073, Control_c, 0, 64, 86
1, 221088, Control_c, 0, 64, 81
1, 221102, Control_c, 0, 64, 70
1, 221117, Control_c, 0, 64, 58
1, 221132, Control_c, 0, 64, 43
1, 221162, Note_on_c, 0, 73, 66
1, 221162, Control_c, 0, 64, 45
1, 221176, Control_c, 0, 64, 50
1, 221183, Note_on_c, 0, 65, 54
1, 221191, Control_c, 0, 64, 54
1, 221206, Control_c, 0, 64, 56
1, 221211, Note_off_c, 0, 73, 55
1, 221216, Note_off_c, 0, 65, 63
1, 221266, Control_c, 0, 64, 55
1, 221281, Control_c, 0, 64, 54
1, 221296, Control_c, 0, 64, 54
1, 221301, Note_on_c, 0, 65, 54
1, 221311, Note_on_c, 0, 61, 58
1, 221343, Note_off_c, 0, 61, 64
1, 221358, Note_off_c, 0, 65, 60
1, 221370, Control_c, 0, 64, 54
1, 221385, Control_c, 0, 64, 55
1, 221399, Control_c, 0, 64, 56
1, 221414, Control_c, 0, 64, 58
1, 221429, Control_c, 0, 64, 59
1, 221430, Note_on_c, 0, 73, 71
1, 221440, Note_on_c, 0, 65, 61
1, 221444, Control_c, 0, 64, 61
1, 221459, Control_c, 0, 64, 62
1, 221481, Control_c, 0, 64, 64
1, 221485, Note_off_c, 0, 65, 63
1, 221489, Note_off_c, 0, 73, 60
1, 221496, Control_c, 0, 64, 66
1, 221511, Control_c, 0, 64, 70
1, 221525, Control_c, 0, 64, 75
1, 221540, Control_c, 0, 64, 81
1, 221555, Control_c, 0, 64, 88
1, 221570, Control_c, 0, 64, 95
1, 221578, Note_on_c, 0, 61, 68
1, 221580, Note_on_c, 0, 65, 69
1, 221585, Control_c, 0, 64, 105
1, 221599, Control_c, 0, 64, 117
1, 221614, Control_c, 0, 64, 127
1, 221615, Note_off_c, 0, 58, 63
1, 221621, Note_off_c, 0, 61, 59
1, 221626, Note_off_c, 0, 46, 58
1, 221643, Note_off_c, 0, 65, 60
1, 221703, Control_c, 0, 64, 119
1, 221718, Control_c, 0, 64, 113
1, 221719, Note_on_c, 0, 72, 77
1, 221721, Note_on_c, 0, 65, 68
1, 221724, Note_on_c, 0, 44, 76
1, 221725, Note_on_c, 0, 56, 78
1, 221733, Control_c, 0, 64, 98
1, 221748, Control_c, 0, 64, 77
1, 221763, Control_c, 0, 64, 62
1, 221775, Note_off_c, 0, 72, 63
1, 221778, Control_c, 0, 64, 39
1, 221778, Note_off_c, 0, 65, 61
1, 221793, Control_c, 0, 64, 35
1, 221807, Control_c, 0, 64, 38
1, 221822, Control_c, 0, 64, 46
1, 221837, Control_c, 0, 64, 54
1, 221851, Control_c, 0, 64, 61
1, 221856, Note_on_c, 0, 65, 74
1, 221858, Note_on_c, 0, 60, 73
1, 221866, Control_c, 0, 64, 65
1, 221881, Control_c, 0, 64, 71
1, 221896, Control_c, 0, 64, 77
1, 221909, Note_off_c, 0, 60, 62
1, 221911, Control_c, 0, 64, 84
1, 221925, Control_c, 0, 64, 91
1, 221929, Note_off_c, 0, 65, 62
1, 221940, Control_c, 0, 64, 98
1, 221955, Control_c, 0, 64, 110
1, 221970, Control_c, 0, 64, 127
1, 221998, Note_on_c, 0, 72, 78
1, 222001, Note_on_c, 0, 65, 77
1, 222046, Note_off_c, 0, 56, 60
1, 222058, Note_off_c, 0, 65, 63
1, 222068, Note_off_c, 0, 72, 59
1, 222071, Note_off_c, 0, 44, 61
1, 222132, Note_on_c, 0, 65, 87
1, 222138, Note_on_c, 0, 60, 78
1, 222186, Note_off_c, 0, 60, 63
1, 222201, Note_off_c, 0, 65, 62
1, 222278, Note_on_c, 0, 65, 84
1, 222278, Note_on_c, 0, 72, 86
1, 222332, Note_off_c, 0, 65, 61
1, 222340, Note_off_c, 0, 72, 61
1, 222420, Note_on_c, 0, 65, 87
1, 222422, Note_on_c, 0, 60, 84
1, 222483, Note_off_c, 0, 60, 60
1, 222554, Note_off_c, 0, 65, 57
1, 222586, Control_c, 0, 64, 98
1, 222600, Control_c, 0, 64, 79
1, 222611, Note_on_c, 0, 50, 102
1, 222612, Note_on_c, 0, 38, 90
1, 222615, Control_c, 0, 64, 68
1, 222626, Note_on_c, 0, 71, 84
1, 222627, Note_on_c, 0, 68, 86
1, 222630, Control_c, 0, 64, 60
1, 222645, Control_c, 0, 64, 58
1, 222660, Control_c, 0, 64, 57
1, 222674, Control_c, 0, 64, 56
1, 222689, Control_c, 0, 64, 55
1, 222704, Control_c, 0, 64, 54
1, 222705, Note_off_c, 0, 71, 60
1, 222719, Control_c, 0, 64, 53
1, 222734, Control_c, 0, 64, 51
1, 222741, Note_off_c, 0, 68, 58
1, 222748, Control_c, 0, 64, 49
1, 222763, Control_c, 0, 64, 47
1, 222778, Control_c, 0, 64, 47
1, 222792, Control_c, 0, 64, 46
1, 222807, Control_c, 0, 64, 45
1, 222812, Note_on_c, 0, 65, 63
1, 222822, Control_c, 0, 64, 42
1, 222823, Note_on_c, 0, 68, 63
1, 222837, Control_c, 0, 64, 37
1, 222847, Note_off_c, 0, 65, 63
1, 222852, Control_c, 0, 64, 30
1, 222868, Control_c, 0, 64, 23
1, 222872, Note_off_c, 0, 68, 59
1, 222883, Control_c, 0, 64, 20
1, 222982, Note_on_c, 0, 68, 74
1, 222987, Note_on_c, 0, 71, 61
1, 223022, Note_off_c, 0, 71, 63
1, 223027, Note_off_c, 0, 68, 59
1, 223112, Control_c, 0, 64, 21
1, 223125, Note_on_c, 0, 68, 74
1, 223127, Control_c, 0, 64, 23
1, 223133, Note_on_c, 0, 65, 53
1, 223142, Control_c, 0, 64, 23
1, 223165, Note_off_c, 0, 65, 65
1, 223171, Control_c, 0, 64, 24
1, 223173, Note_off_c, 0, 68, 59
1, 223230, Control_c, 0, 64, 24
1, 223252, Note_on_c, 0, 68, 64
1, 223262, Note_on_c, 0, 71, 68
1, 223298, Note_off_c, 0, 71, 60
1, 223302, Note_off_c, 0, 68, 59
1, 223304, Control_c, 0, 64, 25
1, 223396, Note_on_c, 0, 71, 62
1, 223399, Note_on_c, 0, 77, 72
1, 223414, Note_off_c, 0, 71, 64
1, 223423, Control_c, 0, 64, 25
1, 223438, Control_c, 0, 64, 26
1, 223450, Note_off_c, 0, 77, 62
1, 223468, Control_c, 0, 64, 26
1, 223497, Control_c, 0, 64, 27
1, 223512, Control_c, 0, 64, 28
1, 223527, Control_c, 0, 64, 29
1, 223540, Note_on_c, 0, 80, 68
1, 223542, Control_c, 0, 64, 30
1, 223557, Control_c, 0, 64, 31
1, 223557, Note_on_c, 0, 77, 54
1, 223571, Control_c, 0, 64, 32
1, 223586, Control_c, 0, 64, 33
1, 223590, Note_off_c, 0, 77, 65
1, 223596, Note_off_c, 0, 80, 61
1, 223601, Control_c, 0, 64, 34
1, 223615, Control_c, 0, 64, 35
1, 223630, Control_c, 0, 64, 35
1, 223645, Control_c, 0, 64, 36
1, 223660, Control_c, 0, 64, 36
1, 223668, Note_on_c, 0, 80, 59
1, 223674, Note_on_c, 0, 83, 47
1, 223691, Control_c, 0, 64, 37
1, 223705, Note_off_c, 0, 80, 66
1, 223706, Control_c, 0, 64, 37
1, 223727, Note_off_c, 0, 83, 50
1, 223727, Control_c, 0, 64, 38
1, 223757, Control_c, 0, 64, 38
1, 223772, Control_c, 0, 64, 39
1, 223800, Note_on_c, 0, 80, 73
1, 223834, Note_off_c, 0, 80, 65
1, 223841, Note_on_c, 0, 77, 24
1, 223847, Control_c, 0, 64, 39
1, 223864, Note_off_c, 0, 77, 35
1, 223949, Note_on_c, 0, 77, 75
1, 223975, Note_on_c, 0, 71, 65
1, 223994, Control_c, 0, 64, 39
1, 224002, Note_off_c, 0, 71, 68
1, 224011, Note_off_c, 0, 77, 60
1, 224081, Note_on_c, 0, 71, 69
1, 224100, Note_on_c, 0, 68, 58
1, 224136, Note_off_c, 0, 68, 64
1, 224140, Note_off_c, 0, 71, 62
1, 224157, Control_c, 0, 64, 41
1, 224172, Control_c, 0, 64, 44
1, 224186, Control_c, 0, 64, 46
1, 224201, Note_off_c, 0, 50, 52
1, 224201, Control_c, 0, 64, 48
1, 224204, Note_off_c, 0, 38, 58
1, 224216, Control_c, 0, 64, 50
1, 224231, Control_c, 0, 64, 51
1, 224234, Note_on_c, 0, 68, 61
1, 224242, Note_on_c, 0, 65, 46
1, 224246, Control_c, 0, 64, 51
1, 224273, Note_off_c, 0, 65, 63
1, 224291, Note_off_c, 0, 68, 60
1, 224380, Control_c, 0, 64, 51
1, 224380, Note_on_c, 0, 52, 45
1, 224385, Note_on_c, 0, 40, 44
1, 224390, Note_on_c, 0, 70, 55
1, 224394, Control_c, 0, 64, 48
1, 224401, Note_on_c, 0, 67, 55
1, 224409, Control_c, 0, 64, 46
1, 224424, Control_c, 0, 64, 43
1, 224432, Note_off_c, 0, 70, 62
1, 224438, Control_c, 0, 64, 41
1, 224442, Note_off_c, 0, 67, 63
1, 224453, Control_c, 0, 64, 40
1, 224521, Control_c, 0, 64, 41
1, 224536, Control_c, 0, 64, 42
1, 224550, Control_c, 0, 64, 43
1, 224553, Note_on_c, 0, 61, 53
1, 224559, Note_on_c, 0, 67, 62
1, 224565, Control_c, 0, 64, 44
1, 224580, Control_c, 0, 64, 46
1, 224590, Note_off_c, 0, 61, 64
1, 224595, Control_c, 0, 64, 47
1, 224601, Note_off_c, 0, 67, 63
1, 224610, Control_c, 0, 64, 48
1, 224625, Control_c, 0, 64, 48
1, 224639, Control_c, 0, 64, 49
1, 224690, Note_on_c, 0, 70, 59
1, 224711, Note_on_c, 0, 67, 52
1, 224730, Note_off_c, 0, 70, 60
1, 224739, Note_off_c, 0, 67, 63
1, 224824, Note_on_c, 0, 67, 63
1, 224842, Note_on_c, 0, 61, 48
1, 224862, Control_c, 0, 64, 49
1, 224866, Note_off_c, 0, 61, 59
1, 224884, Note_off_c, 0, 67, 61
1, 224921, Control_c, 0, 64, 50
1, 224960, Note_on_c, 0, 70, 72
1, 224968, Note_on_c, 0, 67, 56
1, 225005, Note_off_c, 0, 67, 64
1, 225011, Note_off_c, 0, 70, 58
1, 225051, Note_off_c, 0, 40, 59
1, 225067, Note_off_c, 0, 52, 55
1, 225069, Control_c, 0, 64, 50
1, 225084, Control_c, 0, 64, 51
1, 225098, Control_c, 0, 64, 51
1, 225104, Note_on_c, 0, 67, 58
1, 225113, Note_on_c, 0, 61, 56
1, 225113, Control_c, 0, 64, 52
1, 225128, Control_c, 0, 64, 52
1, 225137, Note_off_c, 0, 67, 65
1, 225142, Note_off_c, 0, 61, 64
1, 225143, Control_c, 0, 64, 53
1, 225158, Control_c, 0, 64, 53
1, 225173, Control_c, 0, 64, 54
1, 225224, Control_c, 0, 64, 52
1, 225239, Control_c, 0, 64, 48
1, 225254, Note_on_c, 0, 53, 65
1, 225254, Note_on_c, 0, 65, 67
1, 225254, Control_c, 0, 64, 44
1, 225256, Note_on_c, 0, 41, 64
1, 225256, Note_on_c, 0, 69, 63
1, 225270, Control_c, 0, 64, 41
1, 225285, Control_c, 0, 64, 40
1, 225299, Control_c, 0, 64, 40
1, 225310, Note_off_c, 0, 65, 60
1, 225311, Note_off_c, 0, 69, 58
1, 225314, Control_c, 0, 64, 40
1, 225329, Control_c, 0, 64, 41
1, 225344, Control_c, 0, 64, 44
1, 225359, Control_c, 0, 64, 46
1, 225373, Control_c, 0, 64, 48
1, 225384, Note_on_c, 0, 65, 68
1, 225388, Note_on_c, 0, 60, 66
1, 225388, Control_c, 0, 64, 50
1, 225403, Control_c, 0, 64, 52
1, 225418, Control_c, 0, 64, 54
1, 225424, Note_off_c, 0, 60, 67
1, 225433, Control_c, 0, 64, 57
1, 225447, Control_c, 0, 64, 60
1, 225453, Note_off_c, 0, 65, 62
1, 225462, Control_c, 0, 64, 62
1, 225477, Control_c, 0, 64, 64
1, 225492, Control_c, 0, 64, 66
1, 225507, Control_c, 0, 64, 70
1, 225520, Note_on_c, 0, 65, 73
1, 225522, Control_c, 0, 64, 76
1, 225526, Note_on_c, 0, 69, 79
1, 225537, Control_c, 0, 64, 82
1, 225552, Control_c, 0, 64, 92
1, 225566, Control_c, 0, 64, 113
1, 225581, Note_off_c, 0, 65, 63
1, 225581, Control_c, 0, 64, 127
1, 225584, Note_off_c, 0, 53, 54
1, 225587, Note_off_c, 0, 69, 62
1, 225618, Note_off_c, 0, 41, 61
1, 225658, Note_on_c, 0, 65, 80
1, 225661, Note_on_c, 0, 60, 75
1, 225699, Control_c, 0, 67, 118
1, 225710, Note_off_c, 0, 60, 63
1, 225714, Control_c, 0, 67, 90
1, 225724, Note_off_c, 0, 65, 61
1, 225729, Control_c, 0, 67, 58
1, 225744, Control_c, 0, 67, 23
1, 225759, Control_c, 0, 67, 0
1, 225784, Note_on_c, 0, 65, 80
1, 225789, Note_on_c, 0, 69, 83
1, 225850, Note_off_c, 0, 65, 62
1, 225854, Note_off_c, 0, 69, 62
1, 225933, Note_on_c, 0, 65, 87
1, 225936, Note_on_c, 0, 60, 78
1, 226005, Note_off_c, 0, 60, 61
1, 226032, Control_c, 0, 64, 119
1, 226037, Note_off_c, 0, 65, 62
1, 226047, Control_c, 0, 64, 69
1, 226063, Control_c, 0, 64, 38
1, 226079, Control_c, 0, 64, 40
1, 226093, Note_on_c, 0, 47, 99
1, 226094, Control_c, 0, 64, 57
1, 226095, Note_on_c, 0, 35, 89
1, 226103, Note_on_c, 0, 65, 85
1, 226103, Note_on_c, 0, 68, 88
1, 226109, Control_c, 0, 64, 66
1, 226123, Control_c, 0, 64, 78
1, 226138, Control_c, 0, 64, 115
1, 226153, Control_c, 0, 64, 127
1, 226172, Note_off_c, 0, 65, 60
1, 226180, Note_off_c, 0, 68, 61
1, 226197, Control_c, 0, 64, 101
1, 226212, Control_c, 0, 64, 84
1, 226227, Control_c, 0, 64, 77
1, 226242, Control_c, 0, 64, 75
1, 226257, Control_c, 0, 64, 73
1, 226271, Control_c, 0, 64, 69
1, 226281, Note_on_c, 0, 65, 67
1, 226286, Control_c, 0, 64, 64
1, 226294, Note_on_c, 0, 62, 33
1, 226301, Control_c, 0, 64, 60
1, 226313, Note_off_c, 0, 65, 64
1, 226315, Control_c, 0, 64, 56
1, 226324, Note_off_c, 0, 62, 48
1, 226330, Control_c, 0, 64, 52
1, 226345, Control_c, 0, 64, 49
1, 226360, Control_c, 0, 64, 44
1, 226375, Control_c, 0, 64, 39
1, 226389, Control_c, 0, 64, 34
1, 226404, Control_c, 0, 64, 32
1, 226415, Note_on_c, 0, 65, 61
1, 226419, Note_on_c, 0, 68, 55
1, 226419, Control_c, 0, 64, 30
1, 226434, Control_c, 0, 64, 26
1, 226449, Control_c, 0, 64, 15
1, 226450, Note_off_c, 0, 65, 63
1, 226457, Note_off_c, 0, 68, 64
1, 226464, Control_c, 0, 64, 0
1, 226551, Note_on_c, 0, 62, 54
1, 226559, Note_on_c, 0, 65, 38
1, 226589, Note_off_c, 0, 65, 51
1, 226589, Note_off_c, 0, 62, 63
1, 226612, Control_c, 0, 67, 12
1, 226627, Control_c, 0, 67, 23
1, 226641, Control_c, 0, 67, 35
1, 226656, Control_c, 0, 67, 46
1, 226663, Note_on_c, 0, 65, 65
1, 226671, Control_c, 0, 67, 62
1, 226675, Note_on_c, 0, 68, 57
1, 226686, Control_c, 0, 67, 85
1, 226701, Control_c, 0, 67, 106
1, 226703, Note_off_c, 0, 65, 59
1, 226720, Note_off_c, 0, 68, 62
1, 226723, Control_c, 0, 67, 127
1, 226821, Note_on_c, 0, 65, 55
1, 226844, Note_on_c, 0, 62, 42
1, 226856, Note_off_c, 0, 65, 64
1, 226872, Note_off_c, 0, 62, 58
1, 226961, Note_on_c, 0, 62, 65
1, 226986, Note_on_c, 0, 67, 39
1, 227011, Note_off_c, 0, 62, 61
1, 227014, Note_off_c, 0, 67, 55
1, 227117, Note_on_c, 0, 55, 58
1, 227146, Note_off_c, 0, 55, 64
1, 227208, Poly_aftertouch_c, 0, 62, 0
1, 227260, Note_on_c, 0, 67, 56
1, 227278, Note_on_c, 0, 62, 30
1, 227295, Note_off_c, 0, 67, 65
1, 227309, Note_off_c, 0, 62, 57
1, 227391, Note_on_c, 0, 62, 58
1, 227393, Note_on_c, 0, 65, 56
1, 227428, Note_off_c, 0, 62, 62
1, 227434, Note_off_c, 0, 65, 62
1, 227539, Note_on_c, 0, 56, 62
1, 227541, Note_on_c, 0, 62, 53
1, 227575, Note_off_c, 0, 56, 65
1, 227582, Note_off_c, 0, 62, 62
1, 227634, Note_off_c, 0, 47, 55
1, 227641, Note_off_c, 0, 35, 58
1, 227683, Note_on_c, 0, 62, 43
1, 227694, Note_on_c, 0, 65, 46
1, 227713, Note_off_c, 0, 62, 60
1, 227722, Note_off_c, 0, 65, 60
1, 227819, Note_on_c, 0, 48, 46
1, 227820, Note_on_c, 0, 36, 42
1, 227823, Note_on_c, 0, 65, 40
1, 227844, Note_on_c, 0, 60, 56
1, 227884, Note_off_c, 0, 60, 65
1, 227886, Note_off_c, 0, 65, 57
1, 227986, Note_on_c, 0, 56, 43
1, 227994, Note_on_c, 0, 60, 41
1, 228017, Note_off_c, 0, 56, 61
1, 228029, Note_off_c, 0, 60, 63
1, 228118, Note_on_c, 0, 60, 60
1, 228127, Note_on_c, 0, 65, 56
1, 228159, Note_off_c, 0, 60, 62
1, 228165, Note_off_c, 0, 65, 63
1, 228276, Note_on_c, 0, 56, 43
1, 228277, Note_on_c, 0, 60, 53
1, 228306, Note_off_c, 0, 56, 62
1, 228319, Note_off_c, 0, 60, 64
1, 228414, Note_on_c, 0, 60, 58
1, 228425, Note_on_c, 0, 65, 51
1, 228453, Note_off_c, 0, 60, 63
1, 228458, Note_off_c, 0, 65, 60
1, 228555, Note_on_c, 0, 56, 53
1, 228556, Note_on_c, 0, 60, 55
1, 228595, Note_off_c, 0, 56, 65
1, 228607, Note_off_c, 0, 60, 56
1, 228703, Note_on_c, 0, 60, 58
1, 228706, Note_on_c, 0, 65, 55
1, 228744, Note_off_c, 0, 60, 64
1, 228754, Note_off_c, 0, 65, 57
1, 228842, Note_on_c, 0, 60, 65
1, 228845, Note_on_c, 0, 55, 56
1, 228879, Note_off_c, 0, 55, 65
1, 228887, Note_off_c, 0, 60, 63
1, 228989, Note_on_c, 0, 65, 72
1, 228995, Note_on_c, 0, 60, 64
1, 229028, Note_off_c, 0, 60, 63
1, 229041, Note_off_c, 0, 65, 60
1, 229116, Note_on_c, 0, 60, 78
1, 229117, Note_on_c, 0, 55, 70
1, 229152, Note_off_c, 0, 55, 65
1, 229176, Note_off_c, 0, 60, 65
1, 229206, Control_c, 0, 64, 21
1, 229221, Control_c, 0, 64, 27
1, 229235, Control_c, 0, 64, 34
1, 229250, Note_on_c, 0, 64, 88
1, 229250, Control_c, 0, 64, 42
1, 229266, Control_c, 0, 64, 50
1, 229281, Control_c, 0, 64, 57
1, 229287, Note_off_c, 0, 48, 60
1, 229296, Control_c, 0, 64, 63
1, 229296, Note_on_c, 0, 60, 40
1, 229311, Control_c, 0, 64, 66
1, 229315, Note_off_c, 0, 36, 60
1, 229323, Note_off_c, 0, 64, 64
1, 229325, Control_c, 0, 64, 70
1, 229329, Note_off_c, 0, 60, 34
1, 229340, Control_c, 0, 64, 75
1, 229355, Control_c, 0, 64, 82
1, 229370, Control_c, 0, 64, 89
1, 229385, Control_c, 0, 64, 95
1, 229395, Note_on_c, 0, 64, 82
1, 229399, Note_on_c, 0, 68, 81
1, 229400, Control_c, 0, 64, 97
1, 229414, Control_c, 0, 64, 97
1, 229414, Control_c, 0, 67, 119
1, 229429, Control_c, 0, 64, 96
1, 229429, Control_c, 0, 67, 99
1, 229444, Control_c, 0, 64, 94
1, 229444, Control_c, 0, 67, 78
1, 229451, Note_off_c, 0, 68, 64
1, 229456, Note_off_c, 0, 64, 64
1, 229459, Control_c, 0, 64, 92
1, 229459, Control_c, 0, 67, 57
1, 229474, Control_c, 0, 64, 88
1, 229474, Control_c, 0, 67, 38
1, 229488, Control_c, 0, 64, 82
1, 229488, Control_c, 0, 67, 19
1, 229503, Control_c, 0, 64, 75
1, 229503, Control_c, 0, 67, 0
1, 229518, Control_c, 0, 64, 69
1, 229532, Control_c, 0, 64, 65
1, 229539, Note_on_c, 0, 46, 96
1, 229543, Note_on_c, 0, 34, 86
1, 229547, Control_c, 0, 64, 62
1, 229548, Note_on_c, 0, 65, 82
1, 229550, Note_on_c, 0, 68, 83
1, 229562, Control_c, 0, 64, 59
1, 229577, Control_c, 0, 64, 56
1, 229592, Control_c, 0, 64, 54
1, 229606, Control_c, 0, 64, 49
1, 229613, Note_off_c, 0, 65, 63
1, 229621, Control_c, 0, 64, 43
1, 229629, Note_off_c, 0, 68, 61
1, 229636, Control_c, 0, 64, 36
1, 229651, Control_c, 0, 64, 28
1, 229665, Control_c, 0, 64, 18
1, 229680, Control_c, 0, 64, 0
1, 229698, Note_on_c, 0, 61, 77
1, 229718, Note_on_c, 0, 65, 58
1, 229732, Note_on_c, 0, 64, 60
1, 229753, Note_off_c, 0, 61, 60
1, 229755, Note_off_c, 0, 64, 57
1, 229767, Note_off_c, 0, 65, 63
1, 229858, Note_on_c, 0, 65, 64
1, 229859, Note_on_c, 0, 68, 69
1, 229909, Note_off_c, 0, 65, 61
1, 229929, Note_off_c, 0, 68, 61
1, 230009, Note_on_c, 0, 61, 72
1, 230023, Note_on_c, 0, 65, 59
1, 230055, Note_off_c, 0, 61, 55
1, 230062, Note_off_c, 0, 65, 63
1, 230158, Note_on_c, 0, 65, 61
1, 230161, Note_on_c, 0, 68, 65
1, 230193, Note_off_c, 0, 65, 65
1, 230215, Note_off_c, 0, 68, 56
1, 230300, Note_on_c, 0, 65, 52
1, 230303, Note_on_c, 0, 61, 62
1, 230322, Note_on_c, 0, 68, 18
1, 230336, Note_off_c, 0, 61, 63
1, 230346, Note_off_c, 0, 65, 63
1, 230355, Note_off_c, 0, 68, 47
1, 230461, Note_on_c, 0, 67, 67
1, 230464, Note_on_c, 0, 65, 60
1, 230494, Note_off_c, 0, 65, 66
1, 230503, Note_off_c, 0, 67, 62
1, 230596, Note_on_c, 0, 65, 47
1, 230607, Note_on_c, 0, 61, 66
1, 230618, Note_on_c, 0, 67, 42
1, 230637, Note_off_c, 0, 61, 64
1, 230643, Note_off_c, 0, 67, 58
1, 230643, Control_c, 0, 64, 23
1, 230654, Note_off_c, 0, 65, 59
1, 230658, Control_c, 0, 64, 33
1, 230673, Control_c, 0, 64, 42
1, 230688, Control_c, 0, 64, 47
1, 230703, Control_c, 0, 64, 51
1, 230717, Control_c, 0, 64, 54
1, 230724, Note_on_c, 0, 67, 61
1, 230732, Control_c, 0, 64, 57
1, 230733, Note_on_c, 0, 61, 52
1, 230747, Control_c, 0, 64, 59
1, 230762, Control_c, 0, 64, 61
1, 230777, Note_off_c, 0, 61, 59
1, 230777, Control_c, 0, 64, 62
1, 230778, Note_off_c, 0, 34, 57
1, 230783, Note_off_c, 0, 67, 60
1, 230792, Note_off_c, 0, 46, 59
1, 230792, Control_c, 0, 64, 63
1, 230807, Control_c, 0, 64, 64
1, 230822, Control_c, 0, 64, 65
1, 230836, Control_c, 0, 64, 66
1, 230852, Control_c, 0, 64, 66
1, 230881, Control_c, 0, 64, 66
1, 230896, Control_c, 0, 64, 64
1, 230905, Note_on_c, 0, 65, 63
1, 230911, Control_c, 0, 64, 58
1, 230912, Note_on_c, 0, 47, 66
1, 230916, Note_on_c, 0, 35, 63
1, 230917, Note_on_c, 0, 62, 56
1, 230926, Control_c, 0, 64, 44
1, 230941, Control_c, 0, 64, 33
1, 230950, Note_off_c, 0, 65, 57
1, 230952, Note_off_c, 0, 62, 64
1, 230956, Control_c, 0, 64, 32
1, 230971, Control_c, 0, 64, 33
1, 230985, Control_c, 0, 64, 38
1, 231000, Control_c, 0, 64, 44
1, 231015, Control_c, 0, 64, 52
1, 231030, Control_c, 0, 64, 58
1, 231045, Control_c, 0, 64, 63
1, 231054, Note_on_c, 0, 55, 66
1, 231055, Note_on_c, 0, 62, 47
1, 231059, Control_c, 0, 64, 66
1, 231073, Note_on_c, 0, 65, 37
1, 231074, Control_c, 0, 64, 70
1, 231089, Control_c, 0, 64, 76
1, 231095, Note_off_c, 0, 55, 60
1, 231103, Control_c, 0, 64, 85
1, 231105, Note_off_c, 0, 62, 63
1, 231106, Note_off_c, 0, 65, 53
1, 231118, Control_c, 0, 64, 95
1, 231133, Control_c, 0, 64, 117
1, 231148, Control_c, 0, 64, 127
1, 231177, Note_off_c, 0, 47, 61
1, 231177, Note_off_c, 0, 35, 60
1, 231197, Note_on_c, 0, 65, 62
1, 231200, Note_on_c, 0, 62, 66
1, 231246, Note_off_c, 0, 62, 59
1, 231252, Note_off_c, 0, 65, 60
1, 231289, Control_c, 0, 64, 114
1, 231304, Control_c, 0, 64, 104
1, 231318, Control_c, 0, 64, 96
1, 231333, Control_c, 0, 64, 88
1, 231348, Control_c, 0, 64, 79
1, 231363, Control_c, 0, 64, 70
1, 231378, Control_c, 0, 64, 63
1, 231391, Note_on_c, 0, 65, 57
1, 231392, Control_c, 0, 64, 57
1, 231396, Note_on_c, 0, 48, 64
1, 231402, Note_on_c, 0, 36, 59
1, 231407, Control_c, 0, 64, 55
1, 231408, Note_on_c, 0, 60, 58
1, 231422, Control_c, 0, 64, 50
1, 231437, Control_c, 0, 64, 40
1, 231452, Control_c, 0, 64, 23
1, 231459, Note_off_c, 0, 60, 58
1, 231462, Note_off_c, 0, 65, 61
1, 231466, Control_c, 0, 64, 0
1, 231525, Control_c, 0, 67, 12
1, 231540, Control_c, 0, 67, 18
1, 231555, Control_c, 0, 67, 22
1, 231570, Note_on_c, 0, 56, 50
1, 231570, Control_c, 0, 67, 27
1, 231577, Note_on_c, 0, 60, 49
1, 231585, Control_c, 0, 67, 33
1, 231600, Control_c, 0, 67, 40
1, 231606, Note_off_c, 0, 56, 65
1, 231615, Control_c, 0, 67, 44
1, 231618, Note_off_c, 0, 60, 63
1, 231629, Control_c, 0, 67, 46
1, 231644, Control_c, 0, 67, 46
1, 231660, Control_c, 0, 67, 48
1, 231674, Control_c, 0, 67, 48
1, 231689, Control_c, 0, 67, 49
1, 231704, Control_c, 0, 67, 51
1, 231709, Note_on_c, 0, 65, 58
1, 231713, Note_on_c, 0, 60, 55
1, 231719, Control_c, 0, 67, 56
1, 231734, Control_c, 0, 67, 63
1, 231748, Note_off_c, 0, 65, 62
1, 231749, Note_off_c, 0, 60, 65
1, 231749, Control_c, 0, 67, 71
1, 231764, Control_c, 0, 67, 78
1, 231779, Control_c, 0, 67, 83
1, 231794, Control_c, 0, 67, 86
1, 231808, Control_c, 0, 67, 88
1, 231823, Control_c, 0, 67, 89
1, 231838, Control_c, 0, 67, 90
1, 231839, Note_on_c, 0, 60, 55
1, 231843, Note_on_c, 0, 56, 58
1, 231880, Note_off_c, 0, 56, 63
1, 231888, Note_off_c, 0, 60, 60
1, 232002, Note_on_c, 0, 65, 51
1, 232011, Note_on_c, 0, 60, 52
1, 232023, Control_c, 0, 67, 91
1, 232038, Control_c, 0, 67, 93
1, 232043, Note_off_c, 0, 60, 65
1, 232043, Note_off_c, 0, 65, 56
1, 232053, Control_c, 0, 67, 94
1, 232068, Control_c, 0, 67, 99
1, 232082, Control_c, 0, 67, 111
1, 232097, Control_c, 0, 67, 122
1, 232112, Control_c, 0, 67, 127
1, 232127, Note_on_c, 0, 60, 55
1, 232145, Note_on_c, 0, 56, 43
1, 232178, Note_off_c, 0, 56, 61
1, 232193, Note_off_c, 0, 60, 60
1, 232273, Note_on_c, 0, 65, 46
1, 232297, Note_on_c, 0, 60, 50
1, 232327, Note_off_c, 0, 60, 63
1, 232329, Note_off_c, 0, 65, 53
1, 232422, Note_on_c, 0, 60, 51
1, 232426, Note_on_c, 0, 56, 50
1, 232460, Note_off_c, 0, 56, 64
1, 232476, Note_off_c, 0, 60, 61
1, 232579, Note_on_c, 0, 65, 46
1, 232580, Note_on_c, 0, 60, 50
1, 232614, Note_off_c, 0, 60, 64
1, 232616, Note_off_c, 0, 65, 60
1, 232716, Note_on_c, 0, 60, 57
1, 232733, Note_on_c, 0, 56, 41
1, 232763, Note_off_c, 0, 56, 56
1, 232777, Note_off_c, 0, 60, 60
1, 232802, Poly_aftertouch_c, 0, 65, 0
1, 232881, Note_on_c, 0, 60, 48
1, 232883, Note_on_c, 0, 65, 43
1, 232915, Note_off_c, 0, 60, 65
1, 232915, Note_off_c, 0, 65, 56
1, 233010, Note_on_c, 0, 60, 52
1, 233025, Note_on_c, 0, 65, 31
1, 233026, Note_on_c, 0, 56, 42
1, 233032, Note_off_c, 0, 48, 57
1, 233040, Note_off_c, 0, 36, 55
1, 233056, Note_off_c, 0, 56, 59
1, 233065, Note_off_c, 0, 65, 50
1, 233066, Note_off_c, 0, 60, 60
1, 233165, Note_on_c, 0, 65, 49
1, 233176, Note_on_c, 0, 48, 45
1, 233183, Note_on_c, 0, 60, 42
1, 233189, Note_on_c, 0, 36, 43
1, 233209, Note_off_c, 0, 60, 60
1, 233221, Note_off_c, 0, 65, 56
1, 233299, Note_on_c, 0, 60, 54
1, 233323, Note_on_c, 0, 55, 32
1, 233348, Note_off_c, 0, 60, 59
1, 233357, Note_off_c, 0, 55, 49
1, 233467, Note_on_c, 0, 60, 51
1, 233474, Note_on_c, 0, 65, 45
1, 233503, Note_off_c, 0, 60, 64
1, 233511, Note_off_c, 0, 65, 59
1, 233601, Note_on_c, 0, 60, 50
1, 233621, Note_on_c, 0, 55, 32
1, 233654, Note_off_c, 0, 55, 50
1, 233658, Note_off_c, 0, 60, 57
1, 233773, Note_on_c, 0, 65, 46
1, 233790, Note_on_c, 0, 60, 30
1, 233811, Note_off_c, 0, 65, 60
1, 233818, Note_off_c, 0, 60, 49
1, 233907, Note_on_c, 0, 60, 55
1, 233933, Note_on_c, 0, 55, 29
1, 233968, Note_off_c, 0, 55, 51
1, 233971, Note_off_c, 0, 60, 58
1, 234071, Note_on_c, 0, 64, 50
1, 234102, Note_on_c, 0, 60, 25
1, 234117, Note_off_c, 0, 64, 60
1, 234128, Note_off_c, 0, 60, 49
1, 234238, Note_on_c, 0, 60, 50
1, 234250, Note_on_c, 0, 55, 45
1, 234289, Note_off_c, 0, 55, 61
1, 234296, Note_off_c, 0, 60, 58
1, 234423, Note_on_c, 0, 64, 44
1, 234445, Note_on_c, 0, 60, 28
1, 234460, Note_off_c, 0, 64, 60
1, 234474, Note_off_c, 0, 60, 50
1, 234587, Note_on_c, 0, 60, 37
1, 234621, Note_on_c, 0, 55, 28
1, 234658, Note_off_c, 0, 55, 53
1, 234669, Note_off_c, 0, 60, 58
1, 234783, Note_on_c, 0, 64, 38
1, 234849, Note_off_c, 0, 64, 45
1, 234883, Poly_aftertouch_c, 0, 60, 0
1, 234995, Note_on_c, 0, 60, 38
1, 234999, Note_on_c, 0, 55, 26
1, 235069, Note_off_c, 0, 55, 39
1, 235099, Note_off_c, 0, 60, 54
1, 235111, Note_off_c, 0, 48, 37
1, 235112, Note_off_c, 0, 36, 41
1, 235137, Control_c, 0, 67, 109
1, 235151, Control_c, 0, 67, 87
1, 235166, Control_c, 0, 67, 65
1, 235181, Control_c, 0, 67, 42
1, 235196, Control_c, 0, 67, 18
1, 235211, Control_c, 0, 67, 0
1, 236192, Note_on_c, 0, 41, 93
1, 236193, Note_on_c, 0, 77, 102
1, 236196, Control_c, 0, 64, 61
1, 236211, Control_c, 0, 64, 127
1, 236268, Note_off_c, 0, 41, 64
1, 236274, Note_on_c, 0, 65, 89
1, 236275, Note_off_c, 0, 77, 58
1, 236296, Note_on_c, 0, 53, 82
1, 236344, Note_off_c, 0, 65, 60
1, 236354, Note_off_c, 0, 53, 62
1, 236368, Note_on_c, 0, 77, 90
1, 236385, Note_on_c, 0, 41, 77
1, 236386, Note_off_c, 0, 77, 71
1, 236404, Control_c, 0, 64, 71
1, 236419, Control_c, 0, 64, 0
1, 236457, Control_c, 0, 64, 44
1, 236458, Note_on_c, 0, 80, 94
1, 236472, Control_c, 0, 64, 66
1, 236478, Note_off_c, 0, 41, 63
1, 236479, Note_on_c, 0, 44, 80
1, 236487, Control_c, 0, 64, 104
1, 236502, Control_c, 0, 64, 127
1, 236508, Note_off_c, 0, 80, 70
1, 236534, Note_on_c, 0, 79, 54
1, 236541, Note_on_c, 0, 68, 93
1, 236541, Note_off_c, 0, 44, 63
1, 236554, Note_off_c, 0, 79, 63
1, 236560, Note_on_c, 0, 56, 82
1, 236611, Note_off_c, 0, 68, 62
1, 236617, Note_off_c, 0, 56, 64
1, 236626, Note_on_c, 0, 80, 90
1, 236635, Note_on_c, 0, 44, 79
1, 236660, Note_off_c, 0, 44, 66
1, 236661, Note_off_c, 0, 80, 69
1, 236665, Control_c, 0, 64, 70
1, 236679, Control_c, 0, 64, 0
1, 236724, Control_c, 0, 64, 47
1, 236726, Note_on_c, 0, 84, 99
1, 236731, Note_on_c, 0, 48, 91
1, 236739, Control_c, 0, 64, 72
1, 236754, Control_c, 0, 64, 127
1, 236781, Note_off_c, 0, 48, 57
1, 236805, Note_on_c, 0, 60, 79
1, 236805, Note_on_c, 0, 72, 83
1, 236807, Note_off_c, 0, 84, 60
1, 236864, Note_off_c, 0, 72, 64
1, 236866, Note_off_c, 0, 60, 64
1, 236884, Note_on_c, 0, 48, 85
1, 236886, Note_on_c, 0, 84, 95
1, 236916, Note_off_c, 0, 48, 66
1, 236919, Note_off_c, 0, 84, 69
1, 236931, Control_c, 0, 64, 73
1, 236946, Control_c, 0, 64, 19
1, 236961, Control_c, 0, 64, 0
1, 236985, Note_on_c, 0, 79, 101
1, 236986, Note_on_c, 0, 43, 93
1, 236991, Control_c, 0, 64, 28
1, 237005, Control_c, 0, 64, 65
1, 237020, Control_c, 0, 64, 90
1, 237033, Note_off_c, 0, 43, 61
1, 237035, Control_c, 0, 64, 127
1, 237062, Note_on_c, 0, 67, 83
1, 237067, Note_off_c, 0, 79, 64
1, 237072, Note_on_c, 0, 55, 80
1, 237097, Poly_aftertouch_c, 0, 45, 127
1, 237130, Poly_aftertouch_c, 0, 45, 0
1, 237134, Note_off_c, 0, 67, 62
1, 237136, Note_off_c, 0, 55, 63
1, 237150, Note_on_c, 0, 79, 88
1, 237153, Note_on_c, 0, 43, 78
1, 237182, Note_off_c, 0, 79, 62
1, 237183, Control_c, 0, 64, 86
1, 237205, Control_c, 0, 64, 55
1, 237209, Note_off_c, 0, 43, 63
1, 237220, Control_c, 0, 64, 0
1, 237250, Note_on_c, 0, 46, 85
1, 237252, Note_on_c, 0, 82, 94
1, 237266, Control_c, 0, 64, 59
1, 237275, Note_on_c, 0, 83, 66
1, 237281, Control_c, 0, 64, 80
1, 237290, Note_off_c, 0, 83, 67
1, 237296, Control_c, 0, 64, 127
1, 237302, Note_off_c, 0, 46, 65
1, 237327, Note_on_c, 0, 70, 88
1, 237334, Note_off_c, 0, 82, 63
1, 237338, Note_on_c, 0, 58, 86
1, 237389, Note_off_c, 0, 58, 64
1, 237397, Note_off_c, 0, 70, 62
1, 237413, Note_on_c, 0, 82, 86
1, 237421, Note_on_c, 0, 46, 77
1, 237448, Note_off_c, 0, 82, 67
1, 237463, Note_off_c, 0, 46, 62
1, 237473, Control_c, 0, 64, 78
1, 237488, Control_c, 0, 64, 49
1, 237502, Control_c, 0, 64, 0
1, 237514, Note_on_c, 0, 41, 91
1, 237518, Note_on_c, 0, 77, 98
1, 237532, Control_c, 0, 64, 48
1, 237547, Control_c, 0, 64, 69
1, 237562, Control_c, 0, 64, 115
1, 237574, Note_off_c, 0, 41, 65
1, 237577, Control_c, 0, 64, 127
1, 237591, Note_on_c, 0, 65, 87
1, 237594, Note_off_c, 0, 77, 63
1, 237600, Note_on_c, 0, 53, 82
1, 237660, Note_off_c, 0, 53, 62
1, 237661, Note_off_c, 0, 65, 62
1, 237673, Note_on_c, 0, 41, 87
1, 237680, Note_on_c, 0, 77, 94
1, 237714, Note_off_c, 0, 41, 65
1, 237717, Note_off_c, 0, 77, 65
1, 237740, Control_c, 0, 64, 88
1, 237754, Control_c, 0, 64, 59
1, 237769, Control_c, 0, 64, 0
1, 237779, Note_on_c, 0, 80, 93
1, 237782, Note_on_c, 0, 77, 94
1, 237784, Note_on_c, 0, 36, 89
1, 237799, Control_c, 0, 64, 27
1, 237814, Control_c, 0, 64, 64
1, 237828, Control_c, 0, 64, 81
1, 237843, Control_c, 0, 64, 127
1, 237845, Note_off_c, 0, 36, 62
1, 237858, Note_on_c, 0, 68, 86
1, 237869, Note_on_c, 0, 48, 81
1, 237869, Note_off_c, 0, 80, 61
1, 237881, Note_off_c, 0, 77, 60
1, 237928, Note_off_c, 0, 48, 63
1, 237933, Note_off_c, 0, 68, 62
1, 237946, Note_on_c, 0, 80, 87
1, 237951, Note_on_c, 0, 77, 72
1, 237955, Note_on_c, 0, 36, 81
1, 237975, Note_off_c, 0, 77, 70
1, 237984, Control_c, 0, 64, 84
1, 237988, Note_off_c, 0, 80, 66
1, 237991, Note_off_c, 0, 36, 64
1, 237999, Control_c, 0, 64, 54
1, 238014, Control_c, 0, 64, 0
1, 238028, Control_c, 0, 64, 19
1, 238044, Control_c, 0, 64, 48
1, 238046, Note_on_c, 0, 36, 79
1, 238047, Note_on_c, 0, 79, 98
1, 238049, Note_on_c, 0, 76, 78
1, 238059, Control_c, 0, 64, 66
1, 238074, Control_c, 0, 64, 87
1, 238089, Control_c, 0, 64, 127
1, 238116, Note_off_c, 0, 36, 61
1, 238123, Note_on_c, 0, 48, 78
1, 238125, Note_off_c, 0, 79, 61
1, 238127, Note_on_c, 0, 67, 91
1, 238150, Note_off_c, 0, 76, 64
1, 238183, Note_off_c, 0, 48, 63
1, 238189, Note_off_c, 0, 67, 63
1, 238210, Note_on_c, 0, 79, 101
1, 238211, Note_on_c, 0, 76, 79
1, 238214, Note_on_c, 0, 36, 86
1, 238234, Note_off_c, 0, 76, 70
1, 238242, Note_off_c, 0, 36, 63
1, 238248, Note_off_c, 0, 79, 68
1, 238251, Control_c, 0, 64, 75
1, 238266, Control_c, 0, 64, 0
1, 238311, Note_on_c, 0, 77, 102
1, 238316, Note_on_c, 0, 41, 92
1, 238325, Control_c, 0, 64, 11
1, 238340, Control_c, 0, 64, 68
1, 238355, Control_c, 0, 64, 111
1, 238369, Control_c, 0, 64, 127
1, 238378, Note_off_c, 0, 77, 58
1, 238384, Note_on_c, 0, 53, 76
1, 238387, Note_on_c, 0, 65, 90
1, 238389, Note_off_c, 0, 41, 61
1, 238448, Note_off_c, 0, 53, 62
1, 238456, Note_off_c, 0, 65, 62
1, 238471, Note_on_c, 0, 41, 84
1, 238472, Note_on_c, 0, 77, 98
1, 238505, Note_off_c, 0, 41, 67
1, 238507, Note_off_c, 0, 77, 67
1, 238533, Control_c, 0, 64, 88
1, 238548, Control_c, 0, 64, 33
1, 238563, Control_c, 0, 64, 0
1, 238575, Note_on_c, 0, 77, 94
1, 238575, Note_on_c, 0, 80, 92
1, 238584, Note_on_c, 0, 39, 74
1, 238587, Note_on_c, 0, 38, 82
1, 238607, Control_c, 0, 64, 61
1, 238611, Note_on_c, 0, 37, 41
1, 238622, Control_c, 0, 64, 77
1, 238637, Control_c, 0, 64, 127
1, 238644, Note_off_c, 0, 38, 54
1, 238649, Note_on_c, 0, 68, 90
1, 238650, Note_off_c, 0, 37, 31
1, 238656, Note_off_c, 0, 80, 63
1, 238657, Note_on_c, 0, 49, 80
1, 238668, Note_off_c, 0, 39, 57
1, 238705, Note_off_c, 0, 77, 51
1, 238730, Note_off_c, 0, 49, 63
1, 238736, Note_on_c, 0, 37, 84
1, 238738, Note_on_c, 0, 80, 93
1, 238747, Note_off_c, 0, 68, 58
1, 238747, Poly_aftertouch_c, 0, 77, 0
1, 238783, Note_off_c, 0, 80, 67
1, 238784, Note_off_c, 0, 37, 63
1, 238807, Control_c, 0, 64, 67
1, 238822, Control_c, 0, 64, 0
1, 238839, Note_on_c, 0, 75, 101
1, 238840, Note_on_c, 0, 32, 90
1, 238844, Note_on_c, 0, 84, 99
1, 238852, Control_c, 0, 64, 9
1, 238867, Control_c, 0, 64, 59
1, 238882, Control_c, 0, 64, 73
1, 238894, Note_on_c, 0, 30, 16
1, 238897, Control_c, 0, 64, 127
1, 238921, Note_on_c, 0, 72, 88
1, 238926, Note_off_c, 0, 75, 60
1, 238930, Note_on_c, 0, 44, 87
1, 238933, Note_off_c, 0, 32, 54
1, 238940, Note_off_c, 0, 84, 59
1, 238952, Note_off_c, 0, 30, 45
1, 238995, Note_off_c, 0, 44, 62
1, 239001, Note_off_c, 0, 72, 62
1, 239001, Note_on_c, 0, 32, 82
1, 239002, Note_on_c, 0, 75, 88
1, 239039, Note_off_c, 0, 75, 67
1, 239043, Note_off_c, 0, 32, 63
1, 239045, Control_c, 0, 64, 93
1, 239060, Control_c, 0, 64, 61
1, 239074, Control_c, 0, 64, 0
1, 239100, Note_on_c, 0, 79, 95
1, 239104, Control_c, 0, 64, 13
1, 239107, Note_on_c, 0, 39, 93
1, 239111, Note_on_c, 0, 75, 93
1, 239118, Control_c, 0, 64, 63
1, 239133, Control_c, 0, 64, 80
1, 239148, Control_c, 0, 64, 127
1, 239176, Note_off_c, 0, 75, 64
1, 239181, Note_on_c, 0, 51, 84
1, 239186, Note_on_c, 0, 70, 91
1, 239192, Note_off_c, 0, 39, 58
1, 239198, Note_off_c, 0, 79, 66
1, 239244, Note_off_c, 0, 51, 63
1, 239253, Note_off_c, 0, 70, 65
1, 239259, Note_on_c, 0, 39, 84
1, 239261, Note_on_c, 0, 75, 94
1, 239275, Note_on_c, 0, 79, 78
1, 239303, Note_off_c, 0, 79, 69
1, 239305, Note_off_c, 0, 75, 64
1, 239311, Note_off_c, 0, 39, 62
1, 239326, Control_c, 0, 64, 68
1, 239341, Control_c, 0, 64, 0
1, 239364, Note_on_c, 0, 34, 92
1, 239371, Control_c, 0, 64, 37
1, 239372, Note_on_c, 0, 82, 92
1, 239374, Note_on_c, 0, 77, 85
1, 239377, Note_on_c, 0, 73, 92
1, 239386, Control_c, 0, 64, 63
1, 239399, Note_on_c, 0, 32, 42
1, 239400, Control_c, 0, 64, 84
1, 239415, Control_c, 0, 64, 127
1, 239446, Note_off_c, 0, 32, 49
1, 239447, Note_off_c, 0, 73, 63
1, 239457, Note_on_c, 0, 46, 81
1, 239460, Note_on_c, 0, 70, 87
1, 239472, Note_off_c, 0, 34, 60
1, 239478, Note_off_c, 0, 82, 64
1, 239502, Note_off_c, 0, 77, 60
1, 239524, Note_off_c, 0, 70, 56
1, 239532, Note_off_c, 0, 46, 62
1, 239541, Note_on_c, 0, 73, 90
1, 239547, Note_on_c, 0, 34, 91
1, 239547, Note_on_c, 0, 82, 91
1, 239581, Note_off_c, 0, 82, 68
1, 239582, Note_off_c, 0, 73, 66
1, 239591, Note_off_c, 0, 34, 64
1, 239600, Control_c, 0, 64, 72
1, 239615, Control_c, 0, 64, 36
1, 239630, Control_c, 0, 64, 0
1, 239645, Control_c, 0, 64, 26
1, 239654, Note_on_c, 0, 37, 92
1, 239654, Note_on_c, 0, 77, 100
1, 239660, Control_c, 0, 64, 60
1, 239663, Note_on_c, 0, 68, 97
1, 239675, Control_c, 0, 64, 78
1, 239687, Note_on_c, 0, 39, 47
1, 239690, Control_c, 0, 64, 127
1, 239718, Note_off_c, 0, 77, 61
1, 239722, Note_off_c, 0, 39, 53
1, 239735, Note_off_c, 0, 37, 57
1, 239736, Note_on_c, 0, 49, 83
1, 239738, Note_on_c, 0, 65, 86
1, 239741, Note_off_c, 0, 68, 60
1, 239800, Note_off_c, 0, 49, 63
1, 239812, Note_on_c, 0, 37, 87
1, 239815, Note_off_c, 0, 65, 60
1, 239820, Note_on_c, 0, 68, 91
1, 239829, Note_on_c, 0, 77, 81
1, 239851, Note_off_c, 0, 77, 69
1, 239853, Control_c, 0, 64, 101
1, 239857, Note_off_c, 0, 37, 64
1, 239859, Note_off_c, 0, 68, 63
1, 239864, Note_on_c, 0, 76, 35
1, 239865, Note_off_c, 0, 76, 127
1, 239868, Control_c, 0, 64, 61
1, 239883, Control_c, 0, 64, 0
1, 239912, Control_c, 0, 64, 51
1, 239920, Note_on_c, 0, 36, 91
1, 239926, Note_on_c, 0, 77, 93
1, 239927, Control_c, 0, 64, 66
1, 239931, Note_on_c, 0, 80, 86
1, 239941, Control_c, 0, 64, 82
1, 239956, Control_c, 0, 64, 127
1, 239969, Note_on_c, 0, 78, 27
1, 239981, Note_off_c, 0, 36, 62
1, 240005, Note_off_c, 0, 78, 36
1, 240008, Note_on_c, 0, 48, 87
1, 240009, Note_off_c, 0, 80, 60
1, 240010, Note_on_c, 0, 68, 89
1, 240015, Note_off_c, 0, 77, 58
1, 240072, Note_off_c, 0, 68, 62
1, 240075, Note_off_c, 0, 48, 63
1, 240081, Note_on_c, 0, 80, 85
1, 240083, Note_on_c, 0, 77, 80
1, 240093, Note_on_c, 0, 36, 81
1, 240107, Note_off_c, 0, 77, 67
1, 240125, Note_off_c, 0, 80, 64
1, 240125, Note_off_c, 0, 36, 65
1, 240134, Control_c, 0, 64, 66
1, 240149, Control_c, 0, 64, 0
1, 240164, Control_c, 0, 64, 20
1, 240176, Note_on_c, 0, 36, 77
1, 240177, Note_on_c, 0, 79, 90
1, 240179, Note_on_c, 0, 76, 89
1, 240179, Control_c, 0, 64, 55
1, 240182, Note_on_c, 0, 38, 71
1, 240201, Control_c, 0, 64, 69
1, 240216, Control_c, 0, 64, 95
1, 240217, Note_on_c, 0, 77, 46
1, 240218, Note_off_c, 0, 77, 127
1, 240230, Control_c, 0, 64, 127
1, 240239, Note_off_c, 0, 38, 58
1, 240247, Note_off_c, 0, 36, 62
1, 240259, Note_on_c, 0, 67, 94
1, 240260, Note_off_c, 0, 79, 59
1, 240265, Note_on_c, 0, 48, 79
1, 240282, Note_off_c, 0, 76, 42
1, 240313, Note_off_c, 0, 67, 66
1, 240320, Note_off_c, 0, 48, 64
1, 240334, Note_on_c, 0, 76, 84
1, 240338, Note_on_c, 0, 36, 87
1, 240338, Note_on_c, 0, 79, 99
1, 240361, Note_off_c, 0, 76, 66
1, 240362, Control_c, 0, 64, 93
1, 240371, Note_off_c, 0, 36, 64
1, 240374, Note_off_c, 0, 79, 66
1, 240377, Control_c, 0, 64, 52
1, 240392, Control_c, 0, 64, 0
1, 240452, Control_c, 0, 64, 63
1, 240458, Note_on_c, 0, 53, 103
1, 240460, Note_on_c, 0, 89, 116
1, 240467, Control_c, 0, 64, 99
1, 240482, Control_c, 0, 64, 127
1, 240506, Note_on_c, 0, 88, 28
1, 240507, Note_off_c, 0, 88, 127
1, 240514, Note_on_c, 0, 55, 12
1, 240515, Note_off_c, 0, 55, 127
1, 240521, Note_off_c, 0, 89, 61
1, 240528, Note_off_c, 0, 53, 62
1, 240552, Note_on_c, 0, 65, 70
1, 240552, Note_on_c, 0, 77, 84
1, 240557, Note_on_c, 0, 64, 70
1, 240584, Note_off_c, 0, 64, 64
1, 240587, Note_off_c, 0, 65, 63
1, 240592, Note_off_c, 0, 77, 65
1, 240603, Note_on_c, 0, 53, 72
1, 240611, Note_on_c, 0, 89, 93
1, 240633, Note_on_c, 0, 65, 82
1, 240635, Note_on_c, 0, 88, 51
1, 240640, Note_on_c, 0, 52, 28
1, 240641, Note_off_c, 0, 52, 127
1, 240647, Note_on_c, 0, 77, 87
1, 240660, Note_off_c, 0, 88, 39
1, 240663, Note_off_c, 0, 53, 65
1, 240663, Note_off_c, 0, 89, 65
1, 240668, Note_off_c, 0, 65, 62
1, 240674, Poly_aftertouch_c, 0, 52, 0
1, 240674, Control_c, 0, 64, 75
1, 240684, Note_off_c, 0, 77, 63
1, 240689, Control_c, 0, 64, 0
1, 240733, Note_on_c, 0, 49, 96
1, 240735, Note_on_c, 0, 89, 96
1, 240739, Note_on_c, 0, 92, 96
1, 240763, Control_c, 0, 64, 67
1, 240766, Note_on_c, 0, 48, 50
1, 240767, Note_on_c, 0, 88, 26
1, 240778, Control_c, 0, 64, 127
1, 240796, Note_off_c, 0, 48, 59
1, 240806, Note_off_c, 0, 49, 56
1, 240807, Note_off_c, 0, 88, 32
1, 240809, Note_on_c, 0, 61, 84
1, 240817, Note_on_c, 0, 80, 79
1, 240820, Note_off_c, 0, 92, 64
1, 240831, Note_off_c, 0, 89, 60
1, 240854, Note_off_c, 0, 61, 63
1, 240863, Note_off_c, 0, 80, 63
1, 240878, Note_on_c, 0, 49, 80
1, 240888, Note_on_c, 0, 92, 81
1, 240919, Note_on_c, 0, 80, 78
1, 240926, Note_on_c, 0, 61, 89
1, 240966, Note_off_c, 0, 80, 66
1, 240967, Note_off_c, 0, 92, 66
1, 240969, Note_off_c, 0, 61, 60
1, 240972, Note_off_c, 0, 49, 62
1, 240978, Control_c, 0, 64, 75
1, 240992, Poly_aftertouch_c, 0, 51, 0
1, 240993, Control_c, 0, 64, 0
1, 241024, Note_on_c, 0, 87, 97
1, 241028, Note_on_c, 0, 44, 96
1, 241031, Note_on_c, 0, 96, 105
1, 241037, Control_c, 0, 64, 51
1, 241052, Control_c, 0, 64, 74
1, 241067, Control_c, 0, 64, 127
1, 241092, Note_off_c, 0, 87, 64
1, 241097, Note_on_c, 0, 84, 88
1, 241100, Note_off_c, 0, 44, 61
1, 241100, Note_off_c, 0, 96, 58
1, 241106, Note_on_c, 0, 56, 89
1, 241151, Note_off_c, 0, 56, 66
1, 241154, Note_off_c, 0, 84, 63
1, 241174, Note_on_c, 0, 44, 88
1, 241174, Note_on_c, 0, 96, 86
1, 241175, Note_on_c, 0, 87, 79
1, 241218, Note_off_c, 0, 96, 64
1, 241222, Note_on_c, 0, 56, 90
1, 241222, Note_on_c, 0, 84, 90
1, 241234, Note_off_c, 0, 87, 64
1, 241238, Note_off_c, 0, 44, 64
1, 241255, Note_off_c, 0, 56, 60
1, 241260, Note_off_c, 0, 84, 67
1, 241261, Control_c, 0, 64, 94
1, 241276, Control_c, 0, 64, 61
1, 241291, Control_c, 0, 64, 0
1, 241307, Note_on_c, 0, 91, 102
1, 241313, Note_on_c, 0, 51, 96
1, 241317, Note_on_c, 0, 87, 97
1, 241321, Control_c, 0, 64, 49
1, 241335, Control_c, 0, 64, 67
1, 241350, Control_c, 0, 64, 106
1, 241365, Control_c, 0, 64, 127
1, 241368, Note_off_c, 0, 87, 63
1, 241381, Note_off_c, 0, 51, 60
1, 241385, Note_on_c, 0, 82, 88
1, 241389, Note_on_c, 0, 63, 80
1, 241398, Note_off_c, 0, 91, 65
1, 241437, Note_off_c, 0, 63, 61
1, 241439, Note_off_c, 0, 82, 64
1, 241449, Note_on_c, 0, 51, 86
1, 241453, Note_on_c, 0, 91, 74
1, 241455, Note_on_c, 0, 87, 82
1, 241499, Note_off_c, 0, 87, 64
1, 241502, Note_on_c, 0, 63, 81
1, 241509, Note_off_c, 0, 91, 63
1, 241512, Note_on_c, 0, 82, 90
1, 241532, Note_off_c, 0, 63, 61
1, 241532, Note_off_c, 0, 51, 63
1, 241542, Control_c, 0, 64, 93
1, 241552, Note_off_c, 0, 82, 67
1, 241557, Control_c, 0, 64, 61
1, 241572, Control_c, 0, 64, 0
1, 241596, Note_on_c, 0, 89, 84
1, 241598, Note_on_c, 0, 94, 95
1, 241600, Note_on_c, 0, 46, 98
1, 241601, Note_on_c, 0, 85, 88
1, 241601, Control_c, 0, 64, 41
1, 241614, Note_on_c, 0, 92, 63
1, 241616, Control_c, 0, 64, 68
1, 241631, Control_c, 0, 64, 102
1, 241646, Note_off_c, 0, 92, 63
1, 241646, Control_c, 0, 64, 127
1, 241653, Note_off_c, 0, 85, 66
1, 241675, Note_on_c, 0, 82, 64
1, 241675, Note_off_c, 0, 46, 57
1, 241675, Note_on_c, 0, 58, 87
1, 241691, Note_off_c, 0, 94, 63
1, 241696, Note_off_c, 0, 89, 62
1, 241708, Note_off_c, 0, 82, 53
1, 241727, Note_off_c, 0, 58, 62
1, 241747, Note_on_c, 0, 94, 85
1, 241750, Note_on_c, 0, 85, 70
1, 241752, Note_on_c, 0, 46, 77
1, 241797, Note_on_c, 0, 82, 82
1, 241799, Note_off_c, 0, 85, 56
1, 241800, Note_on_c, 0, 58, 92
1, 241811, Note_off_c, 0, 46, 59
1, 241814, Note_off_c, 0, 94, 64
1, 241831, Control_c, 0, 64, 94
1, 241835, Note_off_c, 0, 82, 64
1, 241842, Note_off_c, 0, 58, 65
1, 241846, Control_c, 0, 64, 61
1, 241861, Control_c, 0, 64, 0
1, 241884, Note_on_c, 0, 49, 90
1, 241885, Note_on_c, 0, 89, 98
1, 241889, Note_on_c, 0, 80, 98
1, 241890, Control_c, 0, 64, 55
1, 241905, Control_c, 0, 64, 72
1, 241920, Control_c, 0, 64, 127
1, 241949, Note_off_c, 0, 49, 58
1, 241950, Note_off_c, 0, 89, 57
1, 241952, Note_on_c, 0, 61, 81
1, 241955, Note_off_c, 0, 80, 62
1, 241961, Note_on_c, 0, 77, 86
1, 241994, Note_off_c, 0, 61, 62
1, 242010, Note_off_c, 0, 77, 63
1, 242012, Note_on_c, 0, 49, 77
1, 242025, Note_on_c, 0, 80, 77
1, 242030, Note_on_c, 0, 89, 88
1, 242070, Note_off_c, 0, 80, 66
1, 242073, Note_on_c, 0, 61, 85
1, 242079, Note_on_c, 0, 77, 91
1, 242093, Note_off_c, 0, 49, 62
1, 242093, Note_off_c, 0, 89, 59
1, 242118, Note_off_c, 0, 61, 64
1, 242118, Note_off_c, 0, 77, 63
1, 242128, Control_c, 0, 64, 68
1, 242143, Control_c, 0, 64, 0
1, 242165, Note_on_c, 0, 89, 94
1, 242168, Note_on_c, 0, 47, 84
1, 242172, Note_on_c, 0, 92, 94
1, 242173, Note_on_c, 0, 48, 81
1, 242188, Control_c, 0, 64, 62
1, 242203, Control_c, 0, 64, 83
1, 242209, Note_off_c, 0, 47, 62
1, 242217, Control_c, 0, 64, 127
1, 242228, Note_off_c, 0, 48, 64
1, 242243, Note_on_c, 0, 80, 83
1, 242245, Note_on_c, 0, 60, 81
1, 242251, Note_off_c, 0, 89, 61
1, 242257, Note_off_c, 0, 92, 65
1, 242290, Note_off_c, 0, 60, 66
1, 242301, Note_off_c, 0, 80, 64
1, 242316, Note_on_c, 0, 48, 87
1, 242316, Note_on_c, 0, 92, 86
1, 242323, Note_on_c, 0, 89, 74
1, 242362, Note_off_c, 0, 48, 63
1, 242364, Note_on_c, 0, 80, 83
1, 242379, Note_on_c, 0, 60, 81
1, 242379, Note_off_c, 0, 89, 62
1, 242385, Note_off_c, 0, 92, 66
1, 242395, Control_c, 0, 64, 99
1, 242405, Note_off_c, 0, 80, 66
1, 242409, Control_c, 0, 64, 62
1, 242412, Note_off_c, 0, 60, 60
1, 242424, Control_c, 0, 64, 19
1, 242447, Control_c, 0, 64, 55
1, 242449, Note_on_c, 0, 88, 95
1, 242451, Note_on_c, 0, 91, 95
1, 242456, Note_on_c, 0, 48, 91
1, 242462, Control_c, 0, 64, 70
1, 242477, Control_c, 0, 64, 127
1, 242506, Note_on_c, 0, 49, 7
1, 242513, Note_off_c, 0, 88, 63
1, 242519, Note_off_c, 0, 48, 58
1, 242531, Note_on_c, 0, 79, 83
1, 242533, Note_off_c, 0, 91, 62
1, 242534, Note_on_c, 0, 60, 83
1, 242549, Note_off_c, 0, 49, 40
1, 242576, Note_off_c, 0, 60, 65
1, 242578, Note_off_c, 0, 79, 67
1, 242592, Note_on_c, 0, 48, 85
1, 242595, Note_on_c, 0, 88, 85
1, 242601, Note_on_c, 0, 91, 87
1, 242646, Note_off_c, 0, 48, 61
1, 242652, Note_off_c, 0, 88, 62
1, 242654, Note_on_c, 0, 79, 83
1, 242659, Note_on_c, 0, 60, 82
1, 242662, Note_off_c, 0, 91, 62
1, 242669, Control_c, 0, 64, 92
1, 242684, Control_c, 0, 64, 59
1, 242689, Note_off_c, 0, 79, 67
1, 242689, Note_off_c, 0, 60, 63
1, 242698, Control_c, 0, 64, 0
1, 242725, Note_on_c, 0, 89, 88
1, 242728, Control_c, 0, 64, 46
1, 242729, Note_on_c, 0, 48, 96
1, 242731, Note_on_c, 0, 92, 98
1, 242742, Control_c, 0, 64, 70
1, 242744, Note_on_c, 0, 90, 68
1, 242757, Control_c, 0, 64, 118
1, 242760, Note_off_c, 0, 90, 44
1, 242763, Note_on_c, 0, 93, 59
1, 242772, Control_c, 0, 64, 127
1, 242784, Note_off_c, 0, 93, 41
1, 242798, Note_off_c, 0, 48, 58
1, 242799, Note_on_c, 0, 80, 81
1, 242811, Note_on_c, 0, 60, 79
1, 242811, Note_off_c, 0, 92, 66
1, 242826, Note_off_c, 0, 89, 59
1, 242860, Note_off_c, 0, 80, 64
1, 242861, Note_off_c, 0, 60, 65
1, 242874, Note_on_c, 0, 89, 57
1, 242880, Note_on_c, 0, 48, 83
1, 242881, Note_on_c, 0, 92, 84
1, 242914, Note_on_c, 0, 80, 82
1, 242917, Note_off_c, 0, 89, 57
1, 242933, Note_off_c, 0, 48, 61
1, 242936, Note_on_c, 0, 60, 85
1, 242948, Note_off_c, 0, 92, 65
1, 242953, Note_off_c, 0, 80, 66
1, 242966, Note_off_c, 0, 60, 60
1, 242966, Control_c, 0, 64, 67
1, 242981, Control_c, 0, 64, 0
1, 243011, Control_c, 0, 64, 45
1, 243014, Note_on_c, 0, 48, 98
1, 243020, Note_on_c, 0, 88, 96
1, 243025, Note_on_c, 0, 91, 92
1, 243026, Control_c, 0, 64, 66
1, 243029, Note_on_c, 0, 90, 55
1, 243030, Note_off_c, 0, 90, 127
1, 243030, Note_on_c, 0, 96, 88
1, 243032, Note_on_c, 0, 87, 47
1, 243033, Note_off_c, 0, 87, 127
1, 243040, Control_c, 0, 64, 86
1, 243043, Note_on_c, 0, 94, 57
1, 243055, Control_c, 0, 64, 127
1, 243066, Note_off_c, 0, 94, 54
1, 243093, Note_off_c, 0, 48, 57
1, 243094, Note_off_c, 0, 91, 61
1, 243105, Note_on_c, 0, 60, 83
1, 243109, Note_on_c, 0, 84, 84
1, 243111, Note_off_c, 0, 96, 64
1, 243112, Note_off_c, 0, 88, 64
1, 243122, Note_on_c, 0, 55, 21
1, 243158, Note_off_c, 0, 60, 64
1, 243168, Note_on_c, 0, 88, 72
1, 243172, Note_off_c, 0, 84, 62
1, 243176, Note_on_c, 0, 48, 87
1, 243176, Note_on_c, 0, 96, 67
1, 243182, Note_on_c, 0, 91, 75
1, 243213, Note_on_c, 0, 95, 47
1, 243231, Note_off_c, 0, 91, 54
1, 243237, Note_off_c, 0, 55, 0
1, 243240, Note_on_c, 0, 84, 89
1, 243249, Note_on_c, 0, 60, 89
1, 243253, Note_off_c, 0, 88, 63
1, 243254, Note_off_c, 0, 48, 61
1, 243259, Note_off_c, 0, 96, 63
1, 243268, Note_off_c, 0, 95, 37
1, 243274, Poly_aftertouch_c, 0, 55, 127
1, 243285, Note_off_c, 0, 84, 66
1, 243292, Note_off_c, 0, 60, 61
1, 243299, Control_c, 0, 64, 72
1, 243313, Control_c, 0, 64, 0
1, 243316, Poly_aftertouch_c, 0, 55, 0
1, 243331, Note_on_c, 0, 48, 102
1, 243335, Note_on_c, 0, 96, 100
1, 243338, Note_on_c, 0, 89, 95
1, 243339, Note_on_c, 0, 92, 94
1, 243343, Control_c, 0, 64, 50
1, 243358, Control_c, 0, 64, 66
1, 243370, Note_on_c, 0, 49, 31
1, 243372, Control_c, 0, 64, 85
1, 243387, Control_c, 0, 64, 127
1, 243409, Note_off_c, 0, 49, 44
1, 243419, Note_off_c, 0, 48, 57
1, 243423, Note_off_c, 0, 92, 64
1, 243430, Note_on_c, 0, 60, 79
1, 243437, Note_off_c, 0, 89, 58
1, 243437, Note_on_c, 0, 84, 82
1, 243438, Note_off_c, 0, 96, 60
1, 243487, Note_off_c, 0, 60, 65
1, 243488, Note_off_c, 0, 84, 63
1, 243501, Note_on_c, 0, 96, 74
1, 243504, Note_on_c, 0, 92, 78
1, 243510, Note_on_c, 0, 48, 87
1, 243530, Note_on_c, 0, 89, 48
1, 243544, Note_on_c, 0, 88, 60
1, 243558, Note_on_c, 0, 84, 87
1, 243569, Note_off_c, 0, 48, 57
1, 243573, Note_on_c, 0, 60, 88
1, 243579, Note_off_c, 0, 92, 64
1, 243579, Note_off_c, 0, 96, 65
1, 243582, Note_off_c, 0, 88, 61
1, 243589, Note_off_c, 0, 89, 64
1, 243595, Control_c, 0, 64, 98
1, 243600, Note_off_c, 0, 84, 66
1, 243610, Control_c, 0, 64, 61
1, 243625, Control_c, 0, 64, 0
1, 243626, Note_off_c, 0, 60, 65
1, 243655, Control_c, 0, 64, 45
1, 243659, Note_on_c, 0, 48, 91
1, 243670, Note_on_c, 0, 100, 99
1, 243670, Control_c, 0, 64, 69
1, 243673, Note_on_c, 0, 91, 101
1, 243674, Note_on_c, 0, 96, 91
1, 243684, Control_c, 0, 64, 103
1, 243699, Control_c, 0, 64, 127
1, 243712, Note_on_c, 0, 49, 6
1, 243732, Note_off_c, 0, 96, 64
1, 243748, Note_on_c, 0, 88, 87
1, 243749, Note_on_c, 0, 60, 74
1, 243754, Note_off_c, 0, 49, 41
1, 243756, Note_off_c, 0, 100, 53
1, 243786, Note_off_c, 0, 60, 67
1, 243792, Note_off_c, 0, 88, 66
1, 243816, Note_on_c, 0, 55, 35
1, 243824, Note_on_c, 0, 100, 51
1, 243829, Note_off_c, 0, 91, 57
1, 243833, Note_on_c, 0, 60, 85
1, 243859, Note_on_c, 0, 88, 81
1, 243863, Note_off_c, 0, 100, 46
1, 243869, Note_off_c, 0, 60, 65
1, 243869, Note_off_c, 0, 48, 63
1, 243869, Note_off_c, 0, 55, 63
1, 243874, Note_on_c, 0, 96, 24
1, 243881, Note_on_c, 0, 89, 47
1, 243890, Note_on_c, 0, 97, 2
1, 243892, Note_off_c, 0, 89, 44
1, 243908, Note_off_c, 0, 88, 64
1, 243926, Note_off_c, 0, 96, 49
1, 243939, Note_off_c, 0, 97, 51
1, 243953, Note_on_c, 0, 89, 74
1, 243957, Note_on_c, 0, 88, 72
1, 243959, Control_c, 0, 64, 66
1, 243974, Control_c, 0, 64, 0
1, 243983, Note_on_c, 0, 92, 72
1, 243989, Note_off_c, 0, 88, 65
1, 243995, Note_off_c, 0, 89, 65
1, 244019, Note_on_c, 0, 96, 81
1, 244033, Note_off_c, 0, 92, 65
1, 244033, Control_c, 0, 64, 50
1, 244045, Note_on_c, 0, 101, 82
1, 244048, Control_c, 0, 64, 70
1, 244050, Note_off_c, 0, 96, 62
1, 244054, Note_on_c, 0, 65, 101
1, 244058, Note_on_c, 0, 53, 87
1, 244062, Note_on_c, 0, 56, 83
1, 244062, Control_c, 0, 64, 102
1, 244071, Note_on_c, 0, 60, 75
1, 244072, Note_on_c, 0, 59, 67
1, 244077, Control_c, 0, 64, 127
1, 244092, Note_off_c, 0, 56, 64
1, 244096, Note_off_c, 0, 65, 63
1, 244099, Note_off_c, 0, 60, 65
1, 244102, Note_off_c, 0, 59, 66
1, 244106, Note_on_c, 0, 99, 89
1, 244111, Note_off_c, 0, 53, 62
1, 244138, Note_on_c, 0, 97, 88
1, 244156, Note_off_c, 0, 101, 64
1, 244161, Note_on_c, 0, 65, 95
1, 244161, Note_on_c, 0, 60, 86
1, 244168, Note_on_c, 0, 53, 74
1, 244178, Note_on_c, 0, 56, 76
1, 244182, Note_off_c, 0, 99, 64
1, 244188, Note_on_c, 0, 96, 86
1, 244194, Note_off_c, 0, 97, 65
1, 244195, Note_off_c, 0, 53, 68
1, 244197, Note_off_c, 0, 65, 63
1, 244204, Note_off_c, 0, 56, 67
1, 244209, Note_off_c, 0, 60, 65
1, 244230, Note_off_c, 0, 96, 65
1, 244248, Note_on_c, 0, 60, 89
1, 244250, Note_on_c, 0, 94, 94
1, 244251, Note_on_c, 0, 65, 102
1, 244256, Note_on_c, 0, 53, 101
1, 244256, Note_on_c, 0, 56, 86
1, 244299, Note_on_c, 0, 92, 85
1, 244340, Note_on_c, 0, 91, 85
1, 244343, Note_off_c, 0, 94, 63
1, 244359, Note_off_c, 0, 92, 66
1, 244388, Note_off_c, 0, 91, 64
1, 244388, Note_on_c, 0, 89, 83
1, 244434, Note_off_c, 0, 89, 64
1, 244446, Note_on_c, 0, 87, 88
1, 244495, Note_on_c, 0, 85, 83
1, 244502, Note_off_c, 0, 87, 65
1, 244531, Note_off_c, 0, 85, 67
1, 244539, Note_on_c, 0, 84, 86
1, 244579, Note_off_c, 0, 84, 64
1, 244594, Note_on_c, 0, 82, 84
1, 244637, Note_on_c, 0, 80, 81
1, 244659, Note_off_c, 0, 65, 55
1, 244674, Note_off_c, 0, 82, 64
1, 244686, Note_on_c, 0, 79, 83
1, 244698, Note_off_c, 0, 80, 65
1, 244720, Note_off_c, 0, 60, 55
1, 244725, Note_off_c, 0, 56, 62
1, 244728, Note_off_c, 0, 79, 67
1, 244733, Note_on_c, 0, 77, 84
1, 244757, Note_off_c, 0, 53, 53
1, 244775, Note_off_c, 0, 77, 62
1, 244793, Note_on_c, 0, 75, 86
1, 244831, Note_on_c, 0, 73, 85
1, 244844, Note_off_c, 0, 75, 63
1, 244876, Note_off_c, 0, 73, 68
1, 244880, Note_on_c, 0, 72, 82
1, 244919, Note_off_c, 0, 72, 62
1, 244931, Note_on_c, 0, 70, 86
1, 244980, Note_on_c, 0, 68, 81
1, 245016, Note_on_c, 0, 67, 84
1, 245024, Note_off_c, 0, 70, 61
1, 245038, Note_off_c, 0, 68, 61
1, 245065, Note_on_c, 0, 65, 81
1, 245067, Note_off_c, 0, 67, 64
1, 245106, Note_off_c, 0, 65, 61
1, 245121, Note_on_c, 0, 63, 87
1, 245171, Note_on_c, 0, 61, 82
1, 245184, Note_off_c, 0, 63, 63
1, 245214, Note_on_c, 0, 60, 78
1, 245214, Note_off_c, 0, 61, 65
1, 245258, Note_off_c, 0, 60, 65
1, 245270, Note_on_c, 0, 58, 89
1, 245314, Note_on_c, 0, 56, 81
1, 245356, Note_on_c, 0, 55, 83
1, 245359, Note_off_c, 0, 58, 62
1, 245376, Note_off_c, 0, 56, 63
1, 245404, Note_on_c, 0, 53, 83
1, 245407, Note_off_c, 0, 55, 66
1, 245457, Note_off_c, 0, 53, 62
1, 245464, Note_on_c, 0, 51, 89
1, 245515, Note_on_c, 0, 49, 82
1, 245528, Note_off_c, 0, 51, 65
1, 245560, Note_on_c, 0, 48, 78
1, 245560, Note_off_c, 0, 49, 65
1, 245615, Note_off_c, 0, 48, 63
1, 245616, Note_on_c, 0, 46, 87
1, 245662, Note_on_c, 0, 44, 79
1, 245704, Note_on_c, 0, 43, 82
1, 245705, Note_off_c, 0, 46, 60
1, 245744, Note_off_c, 0, 44, 60
1, 245754, Note_on_c, 0, 41, 83
1, 245754, Note_off_c, 0, 43, 63
1, 245807, Note_on_c, 0, 39, 86
1, 245813, Note_off_c, 0, 41, 63
1, 245856, Note_on_c, 0, 37, 80
1, 245869, Note_off_c, 0, 39, 61
1, 245896, Note_on_c, 0, 36, 78
1, 245902, Note_on_c, 0, 38, 37
1, 245911, Note_off_c, 0, 37, 58
1, 245944, Note_off_c, 0, 38, 48
1, 245950, Note_on_c, 0, 34, 81
1, 245969, Note_off_c, 0, 36, 58
1, 245982, Note_on_c, 0, 35, 63
1, 245988, Note_on_c, 0, 32, 76
1, 246005, Control_c, 0, 64, 75
1, 246010, Note_on_c, 0, 33, 75
1, 246020, Control_c, 0, 64, 0
1, 246025, Note_off_c, 0, 35, 55
1, 246030, Note_off_c, 0, 32, 64
1, 246033, Note_on_c, 0, 31, 81
1, 246039, Note_off_c, 0, 34, 36
1, 246042, Note_off_c, 0, 33, 63
1, 246051, Control_c, 0, 64, 41
1, 246060, Note_on_c, 0, 29, 115
1, 246065, Control_c, 0, 64, 64
1, 246080, Control_c, 0, 64, 87
1, 246083, Note_off_c, 0, 31, 63
1, 246095, Control_c, 0, 64, 127
1, 246134, Note_off_c, 0, 29, 65
1, 246191, Control_c, 0, 64, 102
1, 246206, Control_c, 0, 64, 82
1, 246221, Control_c, 0, 64, 74
1, 246236, Control_c, 0, 64, 70
1, 246251, Control_c, 0, 64, 70
1, 246265, Control_c, 0, 64, 69
1, 246280, Control_c, 0, 64, 68
1, 246295, Control_c, 0, 64, 66
1, 246310, Control_c, 0, 64, 63
1, 246325, Control_c, 0, 64, 59
1, 246339, Control_c, 0, 64, 49
1, 246354, Control_c, 0, 64, 39
1, 246369, Control_c, 0, 64, 36
1, 246383, Control_c, 0, 64, 35
1, 246398, Control_c, 0, 64, 25
1, 246413, Control_c, 0, 64, 0
1, 246488, End_track
0, 0, End_of_file
