0, 0, Header, 0, 1, 384
1, 0, Start_track
1, 0, Title_t, "ChopinNocturneOp32No2--Lu       "
1, 0, Text_t, "2011 ePiano Junior Competition"
1, 0, Text_t, "captured in spring and summer 2011"
1, 0, Text_t, "http://www.piano-e-competition.com/"
1, 0, Text_t, "standard-resolution version"
1, 0, Text_t, "File processed for distribution with software designed and coded by Dr. John Q. Walker, founder of Zenph Sound Innovations"
1, 0, Instrument_name_t, "Yamaha Disklavier Pro Mark IV concert grand piano, model DCFIIISM4PRO"
1, 0, Sequencer_specific, 39, 67, 113, 0, 1, 0, 1, 0, 67, 104, 111, 112, 105, 110, 32, 79, 112, 51, 50, 32, 78, 111, 50, 32, 88, 105, 110, 103, 89, 117, 76, 117, 32, 32, 32, 32, 32, 32, 32, 32
1, 0, Sequencer_specific, 6, 67, 113, 0, 0, 0, 69
1, 0, System_exclusive, 21, 67, 113, 126, 21, 0, 2, 2, 2, 5, 12, 8, 4, 14, 1, 3, 4, 1, 14, 7, 3, 247
1, 0, Sequencer_specific, 5, 67, 123, 12, 2, 1
1, 0, Tempo, 512820
1, 0, Time_signature, 4, 2, 24, 8
1, 0, System_exclusive, 5, 126, 127, 9, 1, 247
1, 1, System_exclusive, 8, 67, 16, 76, 0, 0, 126, 0, 247
1, 2, System_exclusive, 8, 67, 16, 76, 8, 9, 7, 1, 247
1, 3, Control_c, 0, 0, 108
1, 3, Control_c, 1, 0, 108
1, 3, Control_c, 2, 0, 0
1, 3, Control_c, 3, 0, 0
1, 3, Control_c, 4, 0, 0
1, 3, Control_c, 5, 0, 0
1, 3, Control_c, 6, 0, 0
1, 3, Control_c, 7, 0, 0
1, 3, Control_c, 8, 0, 0
1, 3, Control_c, 9, 0, 127
1, 3, Control_c, 10, 0, 0
1, 3, Control_c, 11, 0, 0
1, 3, Control_c, 12, 0, 0
1, 3, Control_c, 13, 0, 0
1, 3, Control_c, 14, 0, 0
1, 3, Control_c, 15, 0, 0
1, 4, Control_c, 0, 32, 0
1, 4, Control_c, 1, 32, 0
1, 4, Control_c, 2, 32, 0
1, 4, Control_c, 3, 32, 0
1, 4, Control_c, 4, 32, 0
1, 4, Control_c, 5, 32, 0
1, 4, Control_c, 6, 32, 0
1, 4, Control_c, 7, 32, 0
1, 4, Control_c, 8, 32, 0
1, 4, Control_c, 9, 32, 0
1, 4, Control_c, 10, 32, 0
1, 4, Control_c, 11, 32, 0
1, 4, Control_c, 12, 32, 0
1, 4, Control_c, 13, 32, 0
1, 4, Control_c, 14, 32, 0
1, 4, Control_c, 15, 32, 0
1, 5, Program_c, 0, 0
1, 5, Program_c, 1, 0
1, 5, Program_c, 2, 0
1, 5, Program_c, 3, 0
1, 5, Program_c, 4, 0
1, 5, Program_c, 5, 0
1, 5, Program_c, 6, 0
1, 5, Program_c, 7, 0
1, 5, Program_c, 8, 0
1, 5, Program_c, 9, 0
1, 5, Program_c, 10, 0
1, 5, Program_c, 11, 0
1, 5, Program_c, 12, 0
1, 5, Program_c, 13, 0
1, 5, Program_c, 14, 0
1, 5, Program_c, 15, 0
1, 6, Control_c, 0, 7, 100
1, 6, Control_c, 1, 7, 100
1, 6, Control_c, 2, 7, 100
1, 6, Control_c, 3, 7, 100
1, 6, Control_c, 4, 7, 100
1, 6, Control_c, 5, 7, 100
1, 6, Control_c, 6, 7, 100
1, 6, Control_c, 7, 7, 100
1, 6, Control_c, 8, 7, 100
1, 6, Control_c, 9, 7, 100
1, 6, Control_c, 10, 7, 100
1, 6, Control_c, 11, 7, 100
1, 6, Control_c, 12, 7, 100
1, 6, Control_c, 13, 7, 100
1, 6, Control_c, 14, 7, 100
1, 6, Control_c, 15, 7, 100
1, 411, Poly_aftertouch_c, 0, 44, 127
1, 603, Poly_aftertouch_c, 0, 44, 0
1, 766, Control_c, 0, 64, 93
1, 773, Note_on_c, 0, 44, 30
1, 781, Control_c, 0, 64, 94
1, 796, Control_c, 0, 64, 95
1, 854, Control_c, 0, 64, 96
1, 869, Control_c, 0, 64, 97
1, 884, Control_c, 0, 64, 99
1, 899, Control_c, 0, 64, 99
1, 914, Control_c, 0, 64, 100
1, 943, Control_c, 0, 64, 100
1, 988, Control_c, 0, 64, 101
1, 1003, Control_c, 0, 64, 103
1, 1009, Note_on_c, 0, 51, 41
1, 1018, Control_c, 0, 64, 104
1, 1032, Control_c, 0, 64, 105
1, 1062, Control_c, 0, 64, 105
1, 1084, Control_c, 0, 64, 107
1, 1099, Control_c, 0, 64, 111
1, 1114, Control_c, 0, 64, 116
1, 1129, Control_c, 0, 64, 118
1, 1143, Control_c, 0, 64, 119
1, 1153, Note_on_c, 0, 56, 39
1, 1173, Control_c, 0, 64, 127
1, 1240, Note_on_c, 0, 63, 39
1, 1344, Note_on_c, 0, 68, 54
1, 1451, Note_on_c, 0, 72, 57
1, 2580, Note_off_c, 0, 56, 39
1, 2603, Note_off_c, 0, 72, 59
1, 2618, Note_off_c, 0, 44, 37
1, 2707, Note_off_c, 0, 68, 39
1, 2729, Note_off_c, 0, 63, 34
1, 3383, Note_on_c, 0, 61, 45
1, 3389, Note_on_c, 0, 68, 51
1, 3395, Note_on_c, 0, 56, 35
1, 3397, Note_on_c, 0, 65, 49
1, 3405, Control_c, 0, 64, 100
1, 3420, Note_on_c, 0, 49, 37
1, 3420, Control_c, 0, 64, 89
1, 3435, Control_c, 0, 64, 81
1, 3449, Control_c, 0, 64, 75
1, 3464, Control_c, 0, 64, 70
1, 3474, Note_off_c, 0, 51, 28
1, 3479, Control_c, 0, 64, 67
1, 3494, Control_c, 0, 64, 65
1, 3509, Control_c, 0, 64, 62
1, 3523, Control_c, 0, 64, 60
1, 3538, Control_c, 0, 64, 57
1, 3553, Control_c, 0, 64, 51
1, 3568, Control_c, 0, 64, 47
1, 3583, Control_c, 0, 64, 41
1, 3597, Control_c, 0, 64, 31
1, 3612, Control_c, 0, 64, 16
1, 3628, Control_c, 0, 64, 0
1, 3761, Control_c, 0, 64, 16
1, 3776, Control_c, 0, 64, 29
1, 3791, Control_c, 0, 64, 39
1, 3806, Control_c, 0, 64, 47
1, 3821, Control_c, 0, 64, 53
1, 3835, Control_c, 0, 64, 58
1, 3850, Control_c, 0, 64, 61
1, 3865, Control_c, 0, 64, 63
1, 3879, Control_c, 0, 64, 65
1, 3894, Control_c, 0, 64, 67
1, 3909, Control_c, 0, 64, 70
1, 3924, Control_c, 0, 64, 74
1, 3939, Control_c, 0, 64, 79
1, 3954, Control_c, 0, 64, 83
1, 3969, Control_c, 0, 64, 88
1, 3984, Control_c, 0, 64, 92
1, 3998, Control_c, 0, 64, 94
1, 4013, Control_c, 0, 64, 95
1, 4028, Control_c, 0, 64, 96
1, 4043, Control_c, 0, 64, 97
1, 4058, Control_c, 0, 64, 98
1, 4079, Control_c, 0, 64, 101
1, 4094, Control_c, 0, 64, 105
1, 4109, Control_c, 0, 64, 110
1, 4124, Control_c, 0, 64, 112
1, 4189, Note_off_c, 0, 65, 52
1, 4287, Control_c, 0, 64, 111
1, 4302, Control_c, 0, 64, 110
1, 4317, Control_c, 0, 64, 109
1, 4332, Control_c, 0, 64, 108
1, 4346, Control_c, 0, 64, 107
1, 4361, Control_c, 0, 64, 105
1, 4376, Control_c, 0, 64, 103
1, 4391, Control_c, 0, 64, 101
1, 4405, Control_c, 0, 64, 100
1, 4422, Control_c, 0, 64, 99
1, 4437, Control_c, 0, 64, 98
1, 4451, Control_c, 0, 64, 97
1, 4466, Control_c, 0, 64, 94
1, 4481, Control_c, 0, 64, 93
1, 4495, Control_c, 0, 64, 92
1, 4510, Control_c, 0, 64, 91
1, 4525, Control_c, 0, 64, 90
1, 4540, Control_c, 0, 64, 89
1, 4555, Control_c, 0, 64, 88
1, 4570, Control_c, 0, 64, 86
1, 4584, Control_c, 0, 64, 84
1, 4594, Note_on_c, 0, 64, 40
1, 4599, Control_c, 0, 64, 82
1, 4614, Control_c, 0, 64, 82
1, 4629, Control_c, 0, 64, 81
1, 4643, Control_c, 0, 64, 81
1, 4658, Control_c, 0, 64, 80
1, 4673, Control_c, 0, 64, 79
1, 4688, Control_c, 0, 64, 78
1, 4702, Control_c, 0, 64, 76
1, 4717, Control_c, 0, 64, 74
1, 4732, Control_c, 0, 64, 72
1, 4747, Control_c, 0, 64, 70
1, 4762, Control_c, 0, 64, 68
1, 4776, Control_c, 0, 64, 66
1, 4791, Control_c, 0, 64, 65
1, 4806, Control_c, 0, 64, 65
1, 4828, Control_c, 0, 64, 64
1, 4843, Control_c, 0, 64, 63
1, 4858, Control_c, 0, 64, 62
1, 4873, Control_c, 0, 64, 62
1, 4888, Control_c, 0, 64, 61
1, 4900, Note_off_c, 0, 68, 55
1, 4902, Control_c, 0, 64, 61
1, 4917, Control_c, 0, 64, 60
1, 4933, Control_c, 0, 64, 59
1, 4948, Control_c, 0, 64, 59
1, 4963, Control_c, 0, 64, 58
1, 4977, Control_c, 0, 64, 57
1, 4992, Control_c, 0, 64, 56
1, 5007, Control_c, 0, 64, 55
1, 5021, Control_c, 0, 64, 54
1, 5036, Control_c, 0, 64, 53
1, 5051, Control_c, 0, 64, 51
1, 5066, Control_c, 0, 64, 51
1, 5081, Control_c, 0, 64, 50
1, 5096, Control_c, 0, 64, 49
1, 5110, Control_c, 0, 64, 48
1, 5125, Control_c, 0, 64, 46
1, 5140, Control_c, 0, 64, 44
1, 5155, Control_c, 0, 64, 44
1, 5185, Control_c, 0, 64, 43
1, 5200, Control_c, 0, 64, 42
1, 5215, Control_c, 0, 64, 41
1, 5230, Control_c, 0, 64, 40
1, 5245, Control_c, 0, 64, 40
1, 5321, Note_on_c, 0, 70, 49
1, 5349, Control_c, 0, 64, 40
1, 5364, Control_c, 0, 64, 41
1, 5393, Control_c, 0, 64, 41
1, 5423, Control_c, 0, 64, 42
1, 5438, Control_c, 0, 64, 43
1, 5453, Control_c, 0, 64, 43
1, 5467, Control_c, 0, 64, 44
1, 5482, Control_c, 0, 64, 45
1, 5497, Control_c, 0, 64, 46
1, 5512, Control_c, 0, 64, 48
1, 5526, Control_c, 0, 64, 51
1, 5541, Control_c, 0, 64, 53
1, 5556, Control_c, 0, 64, 55
1, 5578, Control_c, 0, 64, 57
1, 5593, Control_c, 0, 64, 59
1, 5608, Control_c, 0, 64, 60
1, 5623, Control_c, 0, 64, 62
1, 5638, Control_c, 0, 64, 63
1, 5652, Control_c, 0, 64, 64
1, 5667, Control_c, 0, 64, 65
1, 5681, Control_c, 0, 64, 66
1, 5696, Control_c, 0, 64, 67
1, 5711, Control_c, 0, 64, 69
1, 5725, Control_c, 0, 64, 71
1, 5740, Control_c, 0, 64, 74
1, 5755, Control_c, 0, 64, 77
1, 5770, Control_c, 0, 64, 81
1, 5785, Control_c, 0, 64, 85
1, 5799, Control_c, 0, 64, 92
1, 5814, Control_c, 0, 64, 96
1, 5829, Control_c, 0, 64, 98
1, 5844, Control_c, 0, 64, 99
1, 5859, Control_c, 0, 64, 100
1, 5873, Control_c, 0, 64, 101
1, 5888, Control_c, 0, 64, 105
1, 5903, Control_c, 0, 64, 111
1, 5918, Control_c, 0, 64, 121
1, 5933, Control_c, 0, 64, 127
1, 6179, Note_off_c, 0, 56, 31
1, 6600, Note_on_c, 0, 44, 5
1, 6771, Note_off_c, 0, 64, 33
1, 6905, Note_on_c, 0, 51, 34
1, 7024, Control_c, 0, 64, 123
1, 7038, Control_c, 0, 64, 121
1, 7053, Control_c, 0, 64, 118
1, 7072, Note_on_c, 0, 56, 36
1, 7075, Control_c, 0, 64, 115
1, 7090, Control_c, 0, 64, 112
1, 7094, Note_off_c, 0, 61, 39
1, 7105, Control_c, 0, 64, 110
1, 7119, Control_c, 0, 64, 107
1, 7134, Control_c, 0, 64, 106
1, 7149, Control_c, 0, 64, 103
1, 7164, Control_c, 0, 64, 101
1, 7179, Control_c, 0, 64, 100
1, 7194, Control_c, 0, 64, 99
1, 7202, Note_on_c, 0, 60, 36
1, 7209, Control_c, 0, 64, 97
1, 7224, Control_c, 0, 64, 97
1, 7238, Note_off_c, 0, 49, 10
1, 7239, Control_c, 0, 64, 95
1, 7251, Note_off_c, 0, 70, 28
1, 7253, Control_c, 0, 64, 94
1, 7268, Control_c, 0, 64, 92
1, 7283, Control_c, 0, 64, 90
1, 7297, Control_c, 0, 64, 89
1, 7312, Control_c, 0, 64, 88
1, 7327, Control_c, 0, 64, 87
1, 7342, Control_c, 0, 64, 86
1, 7349, Note_on_c, 0, 63, 43
1, 7357, Control_c, 0, 64, 84
1, 7371, Control_c, 0, 64, 83
1, 7386, Control_c, 0, 64, 82
1, 7401, Control_c, 0, 64, 81
1, 7416, Control_c, 0, 64, 79
1, 7431, Control_c, 0, 64, 79
1, 7445, Control_c, 0, 64, 78
1, 7460, Control_c, 0, 64, 77
1, 7475, Control_c, 0, 64, 76
1, 7490, Control_c, 0, 64, 74
1, 7492, Note_on_c, 0, 68, 42
1, 7504, Control_c, 0, 64, 73
1, 7519, Control_c, 0, 64, 72
1, 7534, Control_c, 0, 64, 71
1, 7549, Control_c, 0, 64, 71
1, 7564, Control_c, 0, 64, 70
1, 7578, Control_c, 0, 64, 69
1, 7593, Control_c, 0, 64, 68
1, 7608, Control_c, 0, 64, 66
1, 7624, Control_c, 0, 64, 65
1, 7639, Control_c, 0, 64, 64
1, 7654, Control_c, 0, 64, 63
1, 7668, Control_c, 0, 64, 63
1, 7683, Control_c, 0, 64, 62
1, 7698, Control_c, 0, 64, 61
1, 7713, Control_c, 0, 64, 60
1, 7716, Note_on_c, 0, 72, 49
1, 7728, Control_c, 0, 64, 58
1, 7742, Control_c, 0, 64, 57
1, 7757, Control_c, 0, 64, 56
1, 7772, Control_c, 0, 64, 55
1, 7787, Control_c, 0, 64, 54
1, 7802, Control_c, 0, 64, 53
1, 7824, Control_c, 0, 64, 51
1, 7839, Control_c, 0, 64, 49
1, 7854, Control_c, 0, 64, 46
1, 7868, Control_c, 0, 64, 44
1, 7883, Control_c, 0, 64, 41
1, 7898, Control_c, 0, 64, 38
1, 7913, Control_c, 0, 64, 34
1, 7927, Control_c, 0, 64, 30
1, 7942, Control_c, 0, 64, 24
1, 7957, Control_c, 0, 64, 17
1, 7972, Control_c, 0, 64, 0
1, 8550, Control_c, 0, 64, 20
1, 8573, Control_c, 0, 64, 26
1, 8588, Control_c, 0, 64, 32
1, 8603, Control_c, 0, 64, 36
1, 8617, Control_c, 0, 64, 39
1, 8632, Control_c, 0, 64, 43
1, 8647, Control_c, 0, 64, 46
1, 8662, Control_c, 0, 64, 48
1, 8678, Control_c, 0, 64, 49
1, 8693, Control_c, 0, 64, 51
1, 8707, Control_c, 0, 64, 52
1, 8722, Control_c, 0, 64, 53
1, 8737, Control_c, 0, 64, 54
1, 8751, Control_c, 0, 64, 55
1, 8766, Control_c, 0, 64, 56
1, 8781, Control_c, 0, 64, 57
1, 8796, Control_c, 0, 64, 58
1, 8811, Control_c, 0, 64, 58
1, 8825, Control_c, 0, 64, 59
1, 8840, Control_c, 0, 64, 60
1, 8855, Control_c, 0, 64, 61
1, 8869, Control_c, 0, 64, 62
1, 8884, Control_c, 0, 64, 62
1, 8899, Control_c, 0, 64, 63
1, 8914, Control_c, 0, 64, 64
1, 8929, Control_c, 0, 64, 65
1, 8944, Control_c, 0, 64, 65
1, 8959, Control_c, 0, 64, 66
1, 8974, Control_c, 0, 64, 67
1, 8988, Control_c, 0, 64, 68
1, 9003, Control_c, 0, 64, 69
1, 9018, Control_c, 0, 64, 70
1, 9033, Control_c, 0, 64, 71
1, 9048, Control_c, 0, 64, 73
1, 9062, Control_c, 0, 64, 74
1, 9077, Control_c, 0, 64, 75
1, 9092, Control_c, 0, 64, 76
1, 9107, Control_c, 0, 64, 77
1, 9122, Control_c, 0, 64, 79
1, 9132, Note_off_c, 0, 60, 32
1, 9136, Control_c, 0, 64, 81
1, 9151, Control_c, 0, 64, 84
1, 9166, Control_c, 0, 64, 87
1, 9181, Control_c, 0, 64, 90
1, 9196, Control_c, 0, 64, 91
1, 9212, Control_c, 0, 64, 92
1, 9227, Control_c, 0, 64, 93
1, 9241, Control_c, 0, 64, 95
1, 9256, Control_c, 0, 64, 99
1, 9271, Control_c, 0, 64, 103
1, 9282, Note_off_c, 0, 72, 41
1, 9286, Control_c, 0, 64, 105
1, 9300, Control_c, 0, 64, 106
1, 9322, Control_c, 0, 64, 106
1, 9337, Control_c, 0, 64, 107
1, 9352, Control_c, 0, 64, 109
1, 9355, Note_off_c, 0, 63, 36
1, 9367, Control_c, 0, 64, 111
1, 9382, Control_c, 0, 64, 111
1, 9404, Note_off_c, 0, 68, 35
1, 9455, Control_c, 0, 64, 112
1, 9460, Note_off_c, 0, 44, 37
1, 9486, Note_off_c, 0, 56, 32
1, 9546, Note_off_c, 0, 51, 38
1, 9707, Control_c, 0, 64, 111
1, 9722, Control_c, 0, 64, 111
1, 9737, Control_c, 0, 64, 110
1, 9752, Control_c, 0, 64, 109
1, 9766, Control_c, 0, 64, 108
1, 9781, Control_c, 0, 64, 107
1, 9796, Control_c, 0, 64, 107
1, 9811, Control_c, 0, 64, 106
1, 9826, Control_c, 0, 64, 105
1, 9840, Control_c, 0, 64, 104
1, 9855, Control_c, 0, 64, 103
1, 9870, Control_c, 0, 64, 102
1, 9884, Control_c, 0, 64, 102
1, 9899, Control_c, 0, 64, 101
1, 10034, Control_c, 0, 64, 100
1, 10049, Control_c, 0, 64, 95
1, 10071, Control_c, 0, 64, 83
1, 10085, Control_c, 0, 64, 70
1, 10094, Note_on_c, 0, 44, 32
1, 10100, Control_c, 0, 64, 63
1, 10115, Control_c, 0, 64, 60
1, 10130, Control_c, 0, 64, 61
1, 10139, Note_on_c, 0, 72, 44
1, 10145, Control_c, 0, 64, 62
1, 10160, Control_c, 0, 64, 63
1, 10174, Control_c, 0, 64, 67
1, 10188, Control_c, 0, 64, 71
1, 10203, Control_c, 0, 64, 76
1, 10218, Control_c, 0, 64, 82
1, 10233, Control_c, 0, 64, 89
1, 10248, Control_c, 0, 64, 97
1, 10263, Control_c, 0, 64, 117
1, 10266, Note_off_c, 0, 44, 41
1, 10277, Control_c, 0, 64, 127
1, 10407, Note_on_c, 0, 60, 51
1, 10434, Note_on_c, 0, 56, 24
1, 10475, Note_off_c, 0, 60, 49
1, 10603, Note_on_c, 0, 51, 39
1, 10615, Note_off_c, 0, 56, 40
1, 10736, Note_off_c, 0, 51, 34
1, 10736, Control_c, 0, 64, 94
1, 10751, Control_c, 0, 64, 71
1, 10766, Control_c, 0, 64, 60
1, 10778, Note_on_c, 0, 71, 58
1, 10780, Note_on_c, 0, 44, 42
1, 10780, Control_c, 0, 64, 56
1, 10795, Control_c, 0, 64, 58
1, 10819, Control_c, 0, 64, 60
1, 10834, Control_c, 0, 64, 65
1, 10841, Note_off_c, 0, 72, 60
1, 10844, Note_off_c, 0, 44, 56
1, 10849, Control_c, 0, 64, 71
1, 10863, Control_c, 0, 64, 80
1, 10878, Control_c, 0, 64, 91
1, 10893, Control_c, 0, 64, 102
1, 10908, Control_c, 0, 64, 123
1, 10923, Control_c, 0, 64, 127
1, 10980, Note_on_c, 0, 59, 40
1, 10983, Note_on_c, 0, 56, 40
1, 11057, Note_off_c, 0, 59, 47
1, 11120, Note_on_c, 0, 50, 52
1, 11150, Note_off_c, 0, 56, 41
1, 11174, Note_off_c, 0, 50, 63
1, 11278, Control_c, 0, 64, 91
1, 11280, Note_on_c, 0, 44, 58
1, 11293, Control_c, 0, 64, 68
1, 11299, Note_on_c, 0, 72, 74
1, 11308, Control_c, 0, 64, 57
1, 11323, Control_c, 0, 64, 54
1, 11337, Control_c, 0, 64, 56
1, 11337, Note_off_c, 0, 71, 57
1, 11352, Control_c, 0, 64, 58
1, 11367, Control_c, 0, 64, 62
1, 11376, Note_off_c, 0, 44, 63
1, 11382, Control_c, 0, 64, 66
1, 11397, Control_c, 0, 64, 70
1, 11411, Control_c, 0, 64, 74
1, 11426, Control_c, 0, 64, 79
1, 11441, Control_c, 0, 64, 87
1, 11456, Control_c, 0, 64, 102
1, 11469, Note_on_c, 0, 60, 56
1, 11470, Control_c, 0, 64, 127
1, 11477, Note_on_c, 0, 56, 48
1, 11567, Note_off_c, 0, 60, 56
1, 11633, Note_off_c, 0, 56, 62
1, 11654, Note_on_c, 0, 51, 56
1, 11789, Control_c, 0, 64, 108
1, 11804, Control_c, 0, 64, 92
1, 11819, Control_c, 0, 64, 75
1, 11833, Control_c, 0, 64, 63
1, 11842, Note_on_c, 0, 44, 47
1, 11848, Control_c, 0, 64, 52
1, 11863, Control_c, 0, 64, 51
1, 11878, Control_c, 0, 64, 52
1, 11892, Note_on_c, 0, 75, 68
1, 11892, Control_c, 0, 64, 54
1, 11907, Control_c, 0, 64, 56
1, 11922, Control_c, 0, 64, 59
1, 11926, Note_off_c, 0, 51, 23
1, 11936, Note_off_c, 0, 44, 62
1, 11937, Control_c, 0, 64, 62
1, 11952, Control_c, 0, 64, 64
1, 11966, Control_c, 0, 64, 66
1, 11981, Control_c, 0, 64, 70
1, 11996, Control_c, 0, 64, 75
1, 12011, Control_c, 0, 64, 82
1, 12026, Control_c, 0, 64, 89
1, 12028, Note_off_c, 0, 72, 63
1, 12041, Control_c, 0, 64, 96
1, 12056, Control_c, 0, 64, 104
1, 12071, Control_c, 0, 64, 115
1, 12085, Control_c, 0, 64, 127
1, 12103, Note_on_c, 0, 55, 39
1, 12104, Note_on_c, 0, 61, 43
1, 12171, Note_off_c, 0, 61, 43
1, 12269, Note_off_c, 0, 55, 51
1, 12288, Note_on_c, 0, 51, 47
1, 12446, Note_off_c, 0, 51, 35
1, 12464, Control_c, 0, 64, 110
1, 12479, Control_c, 0, 64, 82
1, 12494, Control_c, 0, 64, 67
1, 12509, Control_c, 0, 64, 58
1, 12523, Note_on_c, 0, 44, 35
1, 12531, Note_on_c, 0, 72, 60
1, 12538, Note_off_c, 0, 75, 59
1, 12539, Control_c, 0, 64, 59
1, 12554, Control_c, 0, 64, 61
1, 12569, Control_c, 0, 64, 64
1, 12583, Control_c, 0, 64, 67
1, 12598, Control_c, 0, 64, 72
1, 12602, Note_off_c, 0, 44, 53
1, 12613, Control_c, 0, 64, 77
1, 12628, Control_c, 0, 64, 82
1, 12643, Control_c, 0, 64, 87
1, 12657, Control_c, 0, 64, 94
1, 12672, Control_c, 0, 64, 103
1, 12687, Control_c, 0, 64, 127
1, 12724, Note_on_c, 0, 60, 52
1, 12761, Note_on_c, 0, 56, 33
1, 12776, Note_off_c, 0, 60, 57
1, 12844, Note_off_c, 0, 72, 60
1, 12928, Note_on_c, 0, 51, 41
1, 12947, Note_off_c, 0, 56, 41
1, 12986, Note_off_c, 0, 51, 59
1, 13183, Control_c, 0, 64, 97
1, 13198, Control_c, 0, 64, 76
1, 13202, Note_on_c, 0, 39, 44
1, 13213, Control_c, 0, 64, 65
1, 13228, Control_c, 0, 64, 60
1, 13230, Note_on_c, 0, 72, 57
1, 13243, Control_c, 0, 64, 61
1, 13258, Control_c, 0, 64, 63
1, 13273, Control_c, 0, 64, 66
1, 13287, Control_c, 0, 64, 71
1, 13302, Control_c, 0, 64, 80
1, 13315, Note_off_c, 0, 39, 51
1, 13317, Control_c, 0, 64, 93
1, 13332, Control_c, 0, 64, 107
1, 13347, Control_c, 0, 64, 127
1, 13517, Note_on_c, 0, 61, 36
1, 13544, Note_on_c, 0, 55, 21
1, 13577, Note_off_c, 0, 61, 39
1, 13697, Note_off_c, 0, 55, 35
1, 13726, Note_on_c, 0, 51, 43
1, 13818, Note_on_c, 0, 70, 53
1, 13865, Note_off_c, 0, 51, 0
1, 13902, Control_c, 0, 64, 92
1, 13917, Control_c, 0, 64, 74
1, 13931, Note_off_c, 0, 72, 38
1, 13932, Control_c, 0, 64, 64
1, 13937, Poly_aftertouch_c, 0, 51, 0
1, 13946, Note_on_c, 0, 44, 37
1, 13946, Control_c, 0, 64, 59
1, 13956, Note_on_c, 0, 68, 53
1, 13961, Control_c, 0, 64, 60
1, 13976, Control_c, 0, 64, 61
1, 13991, Control_c, 0, 64, 64
1, 14006, Control_c, 0, 64, 67
1, 14022, Control_c, 0, 64, 71
1, 14031, Note_off_c, 0, 44, 59
1, 14036, Control_c, 0, 64, 76
1, 14045, Note_off_c, 0, 70, 64
1, 14051, Control_c, 0, 64, 82
1, 14066, Control_c, 0, 64, 88
1, 14081, Control_c, 0, 64, 93
1, 14096, Control_c, 0, 64, 97
1, 14110, Control_c, 0, 64, 101
1, 14125, Control_c, 0, 64, 106
1, 14140, Control_c, 0, 64, 110
1, 14153, Note_on_c, 0, 60, 38
1, 14155, Control_c, 0, 64, 115
1, 14161, Note_on_c, 0, 56, 35
1, 14169, Control_c, 0, 64, 127
1, 14205, Note_off_c, 0, 60, 49
1, 14333, Note_on_c, 0, 51, 37
1, 14344, Note_off_c, 0, 56, 42
1, 14381, Note_off_c, 0, 51, 58
1, 14540, Control_c, 0, 64, 119
1, 14548, Note_on_c, 0, 63, 50
1, 14562, Control_c, 0, 64, 103
1, 14563, Note_on_c, 0, 44, 34
1, 14577, Control_c, 0, 64, 85
1, 14592, Control_c, 0, 64, 72
1, 14607, Control_c, 0, 64, 64
1, 14622, Control_c, 0, 64, 62
1, 14636, Control_c, 0, 64, 62
1, 14651, Control_c, 0, 64, 63
1, 14666, Control_c, 0, 64, 64
1, 14680, Control_c, 0, 64, 65
1, 14695, Control_c, 0, 64, 67
1, 14710, Control_c, 0, 64, 70
1, 14725, Control_c, 0, 64, 73
1, 14740, Control_c, 0, 64, 77
1, 14754, Control_c, 0, 64, 80
1, 14769, Control_c, 0, 64, 85
1, 14771, Note_off_c, 0, 68, 51
1, 14784, Control_c, 0, 64, 92
1, 14790, Note_on_c, 0, 58, 37
1, 14799, Control_c, 0, 64, 100
1, 14815, Control_c, 0, 64, 112
1, 14830, Control_c, 0, 64, 127
1, 14993, Note_off_c, 0, 44, 39
1, 14994, Note_on_c, 0, 51, 42
1, 15034, Note_off_c, 0, 58, 36
1, 15223, Note_on_c, 0, 44, 35
1, 15227, Note_on_c, 0, 60, 51
1, 15230, Control_c, 0, 64, 110
1, 15243, Note_off_c, 0, 51, 37
1, 15245, Control_c, 0, 64, 87
1, 15259, Control_c, 0, 64, 73
1, 15274, Control_c, 0, 64, 65
1, 15289, Control_c, 0, 64, 62
1, 15311, Control_c, 0, 64, 63
1, 15323, Note_off_c, 0, 63, 33
1, 15326, Control_c, 0, 64, 64
1, 15341, Control_c, 0, 64, 66
1, 15356, Control_c, 0, 64, 69
1, 15371, Control_c, 0, 64, 74
1, 15385, Control_c, 0, 64, 81
1, 15400, Control_c, 0, 64, 87
1, 15415, Control_c, 0, 64, 92
1, 15430, Control_c, 0, 64, 96
1, 15445, Control_c, 0, 64, 100
1, 15449, Note_on_c, 0, 56, 47
1, 15459, Control_c, 0, 64, 105
1, 15474, Control_c, 0, 64, 111
1, 15489, Control_c, 0, 64, 121
1, 15503, Control_c, 0, 64, 127
1, 15511, Note_on_c, 0, 63, 62
1, 15595, Note_off_c, 0, 60, 30
1, 15630, Note_on_c, 0, 51, 53
1, 15657, Note_off_c, 0, 44, 39
1, 15657, Note_off_c, 0, 56, 30
1, 15756, Control_c, 0, 64, 83
1, 15771, Control_c, 0, 64, 67
1, 15786, Control_c, 0, 64, 59
1, 15794, Note_on_c, 0, 68, 72
1, 15801, Control_c, 0, 64, 59
1, 15806, Note_on_c, 0, 44, 53
1, 15815, Control_c, 0, 64, 61
1, 15830, Control_c, 0, 64, 63
1, 15843, Note_off_c, 0, 51, 62
1, 15845, Control_c, 0, 64, 67
1, 15860, Control_c, 0, 64, 74
1, 15868, Note_off_c, 0, 63, 63
1, 15875, Control_c, 0, 64, 83
1, 15885, Note_off_c, 0, 44, 63
1, 15889, Control_c, 0, 64, 93
1, 15904, Control_c, 0, 64, 99
1, 15919, Control_c, 0, 64, 99
1, 15934, Control_c, 0, 64, 100
1, 15949, Control_c, 0, 64, 101
1, 15960, Note_on_c, 0, 56, 55
1, 15964, Control_c, 0, 64, 105
1, 15964, Note_on_c, 0, 60, 52
1, 15979, Control_c, 0, 64, 118
1, 15994, Control_c, 0, 64, 127
1, 16036, Note_on_c, 0, 70, 78
1, 16044, Note_off_c, 0, 60, 58
1, 16089, Note_off_c, 0, 68, 63
1, 16131, Note_on_c, 0, 51, 64
1, 16143, Note_off_c, 0, 56, 63
1, 16282, Control_c, 0, 64, 101
1, 16297, Control_c, 0, 64, 73
1, 16312, Control_c, 0, 64, 60
1, 16324, Note_on_c, 0, 44, 45
1, 16326, Control_c, 0, 64, 51
1, 16333, Note_on_c, 0, 72, 73
1, 16341, Control_c, 0, 64, 54
1, 16356, Control_c, 0, 64, 58
1, 16371, Control_c, 0, 64, 63
1, 16379, Note_off_c, 0, 70, 64
1, 16386, Control_c, 0, 64, 68
1, 16402, Control_c, 0, 64, 78
1, 16417, Control_c, 0, 64, 107
1, 16431, Control_c, 0, 64, 127
1, 16438, Note_off_c, 0, 44, 62
1, 16473, Note_off_c, 0, 51, 38
1, 16484, Note_off_c, 0, 72, 63
1, 16505, Control_c, 0, 64, 107
1, 16515, Note_on_c, 0, 60, 54
1, 16520, Control_c, 0, 64, 77
1, 16521, Note_on_c, 0, 56, 43
1, 16533, Note_on_c, 0, 68, 65
1, 16535, Control_c, 0, 64, 66
1, 16545, Note_off_c, 0, 60, 56
1, 16549, Control_c, 0, 64, 65
1, 16564, Control_c, 0, 64, 69
1, 16579, Control_c, 0, 64, 77
1, 16580, Note_off_c, 0, 68, 60
1, 16594, Note_on_c, 0, 70, 71
1, 16594, Control_c, 0, 64, 98
1, 16609, Control_c, 0, 64, 127
1, 16644, Note_on_c, 0, 68, 72
1, 16653, Note_off_c, 0, 70, 63
1, 16696, Note_off_c, 0, 68, 63
1, 16699, Note_on_c, 0, 51, 50
1, 16705, Note_on_c, 0, 67, 74
1, 16713, Note_off_c, 0, 56, 44
1, 16758, Note_on_c, 0, 68, 76
1, 16773, Note_off_c, 0, 67, 57
1, 16891, Note_on_c, 0, 48, 50
1, 16906, Note_off_c, 0, 68, 62
1, 16912, Control_c, 0, 64, 91
1, 16927, Control_c, 0, 64, 72
1, 16939, Note_on_c, 0, 79, 77
1, 16942, Control_c, 0, 64, 60
1, 16956, Control_c, 0, 64, 47
1, 16966, Note_off_c, 0, 51, 36
1, 16971, Control_c, 0, 64, 43
1, 16986, Control_c, 0, 64, 40
1, 17016, Control_c, 0, 64, 43
1, 17031, Control_c, 0, 64, 50
1, 17046, Control_c, 0, 64, 57
1, 17061, Control_c, 0, 64, 62
1, 17076, Control_c, 0, 64, 65
1, 17091, Control_c, 0, 64, 68
1, 17105, Control_c, 0, 64, 74
1, 17111, Note_off_c, 0, 48, 58
1, 17120, Control_c, 0, 64, 82
1, 17135, Control_c, 0, 64, 93
1, 17149, Control_c, 0, 64, 111
1, 17164, Control_c, 0, 64, 127
1, 17205, Note_on_c, 0, 77, 88
1, 17217, Note_on_c, 0, 63, 60
1, 17278, Note_off_c, 0, 79, 65
1, 17285, Note_off_c, 0, 63, 61
1, 17411, Note_on_c, 0, 75, 87
1, 17413, Note_on_c, 0, 51, 57
1, 17476, Note_off_c, 0, 51, 61
1, 17477, Note_off_c, 0, 77, 59
1, 17691, Note_on_c, 0, 39, 55
1, 17705, Control_c, 0, 64, 96
1, 17720, Control_c, 0, 64, 70
1, 17735, Control_c, 0, 64, 57
1, 17750, Control_c, 0, 64, 48
1, 17761, Note_on_c, 0, 70, 75
1, 17779, Control_c, 0, 64, 48
1, 17794, Control_c, 0, 64, 52
1, 17809, Control_c, 0, 64, 57
1, 17824, Note_off_c, 0, 75, 61
1, 17824, Control_c, 0, 64, 62
1, 17839, Control_c, 0, 64, 65
1, 17854, Control_c, 0, 64, 67
1, 17869, Control_c, 0, 64, 71
1, 17883, Control_c, 0, 64, 76
1, 17891, Note_off_c, 0, 39, 63
1, 17898, Control_c, 0, 64, 83
1, 17913, Control_c, 0, 64, 90
1, 17928, Control_c, 0, 64, 99
1, 17943, Control_c, 0, 64, 110
1, 17958, Control_c, 0, 64, 127
1, 18123, Note_on_c, 0, 63, 39
1, 18341, Note_on_c, 0, 55, 40
1, 18371, Note_off_c, 0, 63, 35
1, 18484, Control_c, 0, 64, 116
1, 18499, Control_c, 0, 64, 110
1, 18514, Control_c, 0, 64, 105
1, 18528, Control_c, 0, 64, 101
1, 18543, Control_c, 0, 64, 97
1, 18558, Control_c, 0, 64, 92
1, 18573, Control_c, 0, 64, 88
1, 18588, Control_c, 0, 64, 82
1, 18602, Control_c, 0, 64, 75
1, 18608, Note_off_c, 0, 70, 58
1, 18617, Control_c, 0, 64, 68
1, 18632, Control_c, 0, 64, 63
1, 18644, Note_on_c, 0, 69, 43
1, 18645, Note_on_c, 0, 49, 35
1, 18647, Control_c, 0, 64, 60
1, 18662, Control_c, 0, 64, 58
1, 18676, Control_c, 0, 64, 58
1, 18706, Control_c, 0, 64, 58
1, 18721, Control_c, 0, 64, 59
1, 18736, Control_c, 0, 64, 60
1, 18751, Control_c, 0, 64, 62
1, 18766, Control_c, 0, 64, 64
1, 18781, Control_c, 0, 64, 67
1, 18796, Control_c, 0, 64, 72
1, 18811, Control_c, 0, 64, 78
1, 18820, Note_off_c, 0, 49, 59
1, 18825, Note_on_c, 0, 70, 47
1, 18825, Control_c, 0, 64, 86
1, 18834, Note_off_c, 0, 69, 37
1, 18840, Control_c, 0, 64, 95
1, 18855, Control_c, 0, 64, 105
1, 18870, Control_c, 0, 64, 117
1, 18885, Control_c, 0, 64, 118
1, 18893, Note_off_c, 0, 70, 58
1, 18900, Control_c, 0, 64, 106
1, 18912, Note_on_c, 0, 71, 54
1, 18913, Note_off_c, 0, 55, 12
1, 18915, Control_c, 0, 64, 90
1, 18927, Note_on_c, 0, 64, 43
1, 18930, Control_c, 0, 64, 74
1, 18945, Control_c, 0, 64, 65
1, 18959, Control_c, 0, 64, 61
1, 18963, Note_off_c, 0, 71, 57
1, 18974, Control_c, 0, 64, 62
1, 18989, Control_c, 0, 64, 64
1, 19004, Control_c, 0, 64, 69
1, 19015, Note_on_c, 0, 70, 54
1, 19018, Control_c, 0, 64, 78
1, 19033, Control_c, 0, 64, 89
1, 19055, Control_c, 0, 64, 95
1, 19070, Control_c, 0, 64, 89
1, 19085, Control_c, 0, 64, 78
1, 19088, Note_off_c, 0, 70, 46
1, 19100, Control_c, 0, 64, 68
1, 19109, Note_on_c, 0, 73, 56
1, 19115, Control_c, 0, 64, 62
1, 19130, Control_c, 0, 64, 62
1, 19144, Control_c, 0, 64, 63
1, 19147, Note_on_c, 0, 56, 41
1, 19159, Control_c, 0, 64, 64
1, 19168, Note_off_c, 0, 64, 36
1, 19174, Control_c, 0, 64, 66
1, 19189, Control_c, 0, 64, 70
1, 19204, Control_c, 0, 64, 77
1, 19210, Note_on_c, 0, 71, 55
1, 19219, Control_c, 0, 64, 85
1, 19233, Control_c, 0, 64, 91
1, 19248, Control_c, 0, 64, 95
1, 19263, Control_c, 0, 64, 96
1, 19267, Note_off_c, 0, 71, 59
1, 19283, Note_off_c, 0, 73, 31
1, 19292, Note_on_c, 0, 70, 62
1, 19324, Note_off_c, 0, 70, 64
1, 19337, Control_c, 0, 64, 95
1, 19351, Control_c, 0, 64, 94
1, 19366, Control_c, 0, 64, 93
1, 19381, Control_c, 0, 64, 91
1, 19395, Note_on_c, 0, 52, 44
1, 19396, Control_c, 0, 64, 87
1, 19411, Control_c, 0, 64, 81
1, 19413, Note_on_c, 0, 70, 57
1, 19425, Control_c, 0, 64, 74
1, 19440, Control_c, 0, 64, 67
1, 19448, Note_off_c, 0, 56, 30
1, 19455, Control_c, 0, 64, 62
1, 19470, Control_c, 0, 64, 58
1, 19485, Control_c, 0, 64, 56
1, 19499, Control_c, 0, 64, 56
1, 19529, Control_c, 0, 64, 57
1, 19544, Control_c, 0, 64, 58
1, 19559, Control_c, 0, 64, 60
1, 19574, Control_c, 0, 64, 63
1, 19589, Control_c, 0, 64, 65
1, 19604, Control_c, 0, 64, 69
1, 19605, Note_on_c, 0, 61, 55
1, 19619, Control_c, 0, 64, 74
1, 19634, Control_c, 0, 64, 82
1, 19648, Control_c, 0, 64, 91
1, 19663, Control_c, 0, 64, 104
1, 19678, Control_c, 0, 64, 123
1, 19693, Control_c, 0, 64, 127
1, 19805, Note_on_c, 0, 56, 61
1, 19845, Note_off_c, 0, 61, 54
1, 19908, Control_c, 0, 64, 123
1, 19923, Control_c, 0, 64, 108
1, 19937, Control_c, 0, 64, 99
1, 19952, Control_c, 0, 64, 90
1, 19967, Control_c, 0, 64, 83
1, 19982, Control_c, 0, 64, 77
1, 19997, Control_c, 0, 64, 71
1, 20012, Control_c, 0, 64, 66
1, 20014, Note_on_c, 0, 51, 58
1, 20027, Note_on_c, 0, 71, 67
1, 20027, Control_c, 0, 64, 62
1, 20042, Control_c, 0, 64, 59
1, 20051, Note_off_c, 0, 56, 56
1, 20056, Control_c, 0, 64, 56
1, 20071, Control_c, 0, 64, 53
1, 20086, Control_c, 0, 64, 50
1, 20090, Note_off_c, 0, 70, 55
1, 20101, Control_c, 0, 64, 48
1, 20116, Control_c, 0, 64, 47
1, 20150, Note_off_c, 0, 52, 39
1, 20160, Control_c, 0, 64, 48
1, 20174, Control_c, 0, 64, 49
1, 20189, Control_c, 0, 64, 50
1, 20204, Control_c, 0, 64, 52
1, 20219, Control_c, 0, 64, 54
1, 20234, Control_c, 0, 64, 57
1, 20248, Control_c, 0, 64, 59
1, 20263, Control_c, 0, 64, 61
1, 20277, Note_on_c, 0, 61, 13
1, 20278, Control_c, 0, 64, 63
1, 20293, Control_c, 0, 64, 65
1, 20308, Control_c, 0, 64, 66
1, 20322, Control_c, 0, 64, 69
1, 20337, Control_c, 0, 64, 72
1, 20352, Control_c, 0, 64, 75
1, 20367, Control_c, 0, 64, 78
1, 20381, Control_c, 0, 64, 81
1, 20397, Control_c, 0, 64, 84
1, 20412, Control_c, 0, 64, 86
1, 20427, Control_c, 0, 64, 86
1, 20457, Control_c, 0, 64, 87
1, 20471, Control_c, 0, 64, 87
1, 20486, Control_c, 0, 64, 88
1, 20501, Control_c, 0, 64, 88
1, 20530, Note_on_c, 0, 55, 30
1, 20551, Note_off_c, 0, 61, 36
1, 20605, Note_off_c, 0, 55, 50
1, 20670, Note_off_c, 0, 51, 55
1, 20700, Control_c, 0, 64, 89
1, 20715, Control_c, 0, 64, 89
1, 20730, Control_c, 0, 64, 91
1, 20745, Control_c, 0, 64, 94
1, 20760, Control_c, 0, 64, 95
1, 20790, Control_c, 0, 64, 92
1, 20803, Note_off_c, 0, 71, 54
1, 20804, Control_c, 0, 64, 84
1, 20819, Control_c, 0, 64, 73
1, 20834, Control_c, 0, 64, 64
1, 20837, Note_on_c, 0, 72, 44
1, 20846, Note_on_c, 0, 44, 27
1, 20849, Control_c, 0, 64, 59
1, 20878, Control_c, 0, 64, 61
1, 20893, Control_c, 0, 64, 63
1, 20908, Control_c, 0, 64, 65
1, 20923, Control_c, 0, 64, 68
1, 20938, Control_c, 0, 64, 72
1, 20952, Control_c, 0, 64, 77
1, 20959, Note_off_c, 0, 44, 59
1, 20967, Control_c, 0, 64, 81
1, 20982, Control_c, 0, 64, 85
1, 20996, Control_c, 0, 64, 91
1, 21011, Control_c, 0, 64, 98
1, 21026, Control_c, 0, 64, 107
1, 21041, Control_c, 0, 64, 127
1, 21069, Note_on_c, 0, 60, 33
1, 21080, Note_on_c, 0, 56, 28
1, 21154, Note_off_c, 0, 60, 51
1, 21247, Note_on_c, 0, 51, 49
1, 21264, Note_off_c, 0, 56, 40
1, 21330, Note_off_c, 0, 51, 57
1, 21419, Note_on_c, 0, 71, 68
1, 21420, Control_c, 0, 64, 97
1, 21429, Note_on_c, 0, 44, 41
1, 21434, Control_c, 0, 64, 76
1, 21449, Control_c, 0, 64, 66
1, 21464, Control_c, 0, 64, 65
1, 21479, Control_c, 0, 64, 66
1, 21485, Note_off_c, 0, 44, 54
1, 21494, Control_c, 0, 64, 69
1, 21503, Note_off_c, 0, 72, 39
1, 21508, Control_c, 0, 64, 75
1, 21523, Control_c, 0, 64, 84
1, 21538, Control_c, 0, 64, 100
1, 21553, Control_c, 0, 64, 127
1, 21584, Note_on_c, 0, 59, 50
1, 21597, Note_on_c, 0, 56, 47
1, 21735, Note_off_c, 0, 59, 37
1, 21737, Note_on_c, 0, 50, 63
1, 21747, Note_off_c, 0, 56, 62
1, 21795, Note_off_c, 0, 50, 63
1, 21899, Note_on_c, 0, 44, 62
1, 21904, Note_on_c, 0, 72, 77
1, 21923, Control_c, 0, 64, 90
1, 21938, Control_c, 0, 64, 68
1, 21943, Note_off_c, 0, 71, 57
1, 21952, Control_c, 0, 64, 55
1, 21967, Control_c, 0, 64, 48
1, 21982, Control_c, 0, 64, 51
1, 21995, Note_off_c, 0, 44, 64
1, 21998, Control_c, 0, 64, 56
1, 22013, Control_c, 0, 64, 62
1, 22028, Control_c, 0, 64, 66
1, 22050, Control_c, 0, 64, 71
1, 22065, Control_c, 0, 64, 79
1, 22080, Control_c, 0, 64, 86
1, 22082, Note_on_c, 0, 60, 65
1, 22095, Control_c, 0, 64, 92
1, 22096, Note_on_c, 0, 56, 58
1, 22110, Control_c, 0, 64, 97
1, 22124, Control_c, 0, 64, 103
1, 22139, Control_c, 0, 64, 127
1, 22201, Note_off_c, 0, 60, 36
1, 22267, Note_on_c, 0, 51, 59
1, 22270, Note_off_c, 0, 56, 63
1, 22383, Note_off_c, 0, 51, 58
1, 22405, Control_c, 0, 64, 117
1, 22420, Control_c, 0, 64, 83
1, 22435, Control_c, 0, 64, 67
1, 22449, Control_c, 0, 64, 57
1, 22453, Note_on_c, 0, 75, 71
1, 22453, Note_on_c, 0, 44, 53
1, 22464, Control_c, 0, 64, 53
1, 22479, Control_c, 0, 64, 54
1, 22494, Control_c, 0, 64, 57
1, 22509, Control_c, 0, 64, 61
1, 22522, Note_off_c, 0, 44, 61
1, 22523, Control_c, 0, 64, 65
1, 22538, Control_c, 0, 64, 68
1, 22549, Note_off_c, 0, 72, 62
1, 22553, Control_c, 0, 64, 73
1, 22567, Control_c, 0, 64, 77
1, 22582, Control_c, 0, 64, 83
1, 22597, Control_c, 0, 64, 92
1, 22612, Control_c, 0, 64, 106
1, 22627, Control_c, 0, 64, 127
1, 22641, Note_on_c, 0, 55, 51
1, 22657, Note_on_c, 0, 61, 55
1, 22741, Note_off_c, 0, 61, 43
1, 22824, Note_off_c, 0, 55, 60
1, 22837, Note_on_c, 0, 51, 59
1, 22958, Note_off_c, 0, 51, 40
1, 22990, Control_c, 0, 64, 95
1, 23005, Control_c, 0, 64, 72
1, 23020, Control_c, 0, 64, 58
1, 23022, Note_on_c, 0, 44, 52
1, 23028, Note_on_c, 0, 72, 66
1, 23035, Control_c, 0, 64, 51
1, 23036, Note_off_c, 0, 75, 60
1, 23050, Control_c, 0, 64, 52
1, 23064, Control_c, 0, 64, 54
1, 23079, Control_c, 0, 64, 58
1, 23094, Control_c, 0, 64, 63
1, 23109, Control_c, 0, 64, 67
1, 23122, Note_off_c, 0, 44, 62
1, 23124, Control_c, 0, 64, 75
1, 23139, Control_c, 0, 64, 86
1, 23154, Control_c, 0, 64, 101
1, 23169, Control_c, 0, 64, 127
1, 23215, Note_on_c, 0, 60, 62
1, 23219, Note_on_c, 0, 56, 52
1, 23295, Note_off_c, 0, 72, 63
1, 23370, Note_off_c, 0, 60, 38
1, 23411, Note_on_c, 0, 51, 69
1, 23450, Note_off_c, 0, 56, 63
1, 23633, Note_on_c, 0, 48, 73
1, 23652, Control_c, 0, 64, 123
1, 23666, Control_c, 0, 64, 92
1, 23681, Control_c, 0, 64, 72
1, 23696, Control_c, 0, 64, 62
1, 23703, Note_off_c, 0, 51, 61
1, 23711, Control_c, 0, 64, 52
1, 23726, Control_c, 0, 64, 49
1, 23729, Note_on_c, 0, 72, 82
1, 23756, Control_c, 0, 64, 50
1, 23770, Control_c, 0, 64, 51
1, 23785, Control_c, 0, 64, 54
1, 23800, Control_c, 0, 64, 58
1, 23814, Control_c, 0, 64, 61
1, 23829, Control_c, 0, 64, 63
1, 23844, Control_c, 0, 64, 66
1, 23859, Control_c, 0, 64, 71
1, 23874, Control_c, 0, 64, 79
1, 23888, Control_c, 0, 64, 89
1, 23903, Control_c, 0, 64, 104
1, 23905, Note_off_c, 0, 48, 63
1, 23918, Control_c, 0, 64, 127
1, 24076, Note_on_c, 0, 64, 53
1, 24078, Note_on_c, 0, 55, 55
1, 24200, Control_c, 0, 64, 119
1, 24214, Control_c, 0, 64, 112
1, 24229, Control_c, 0, 64, 106
1, 24244, Control_c, 0, 64, 102
1, 24259, Control_c, 0, 64, 100
1, 24274, Control_c, 0, 64, 99
1, 24295, Control_c, 0, 64, 99
1, 24310, Control_c, 0, 64, 98
1, 24325, Control_c, 0, 64, 96
1, 24340, Note_on_c, 0, 60, 40
1, 24340, Control_c, 0, 64, 94
1, 24355, Control_c, 0, 64, 91
1, 24370, Control_c, 0, 64, 89
1, 24382, Note_off_c, 0, 55, 57
1, 24385, Control_c, 0, 64, 88
1, 24400, Control_c, 0, 64, 86
1, 24415, Control_c, 0, 64, 85
1, 24430, Control_c, 0, 64, 85
1, 24448, Note_off_c, 0, 64, 37
1, 24456, Note_on_c, 0, 70, 53
1, 24459, Control_c, 0, 64, 84
1, 24474, Control_c, 0, 64, 83
1, 24487, Note_off_c, 0, 72, 48
1, 24489, Control_c, 0, 64, 81
1, 24504, Control_c, 0, 64, 80
1, 24519, Control_c, 0, 64, 78
1, 24534, Control_c, 0, 64, 77
1, 24549, Control_c, 0, 64, 76
1, 24564, Control_c, 0, 64, 75
1, 24579, Control_c, 0, 64, 73
1, 24593, Control_c, 0, 64, 70
1, 24608, Control_c, 0, 64, 67
1, 24623, Control_c, 0, 64, 63
1, 24638, Control_c, 0, 64, 61
1, 24652, Control_c, 0, 64, 58
1, 24667, Control_c, 0, 64, 56
1, 24671, Note_on_c, 0, 68, 50
1, 24672, Note_on_c, 0, 53, 37
1, 24682, Control_c, 0, 64, 55
1, 24697, Control_c, 0, 64, 54
1, 24716, Note_off_c, 0, 70, 60
1, 24726, Control_c, 0, 64, 54
1, 24728, Note_off_c, 0, 60, 32
1, 24770, Control_c, 0, 64, 54
1, 24785, Control_c, 0, 64, 55
1, 24800, Control_c, 0, 64, 56
1, 24815, Control_c, 0, 64, 57
1, 24830, Control_c, 0, 64, 58
1, 24844, Control_c, 0, 64, 59
1, 24859, Control_c, 0, 64, 61
1, 24874, Control_c, 0, 64, 62
1, 24889, Control_c, 0, 64, 64
1, 24904, Control_c, 0, 64, 67
1, 24911, Note_on_c, 0, 65, 35
1, 24917, Note_on_c, 0, 60, 12
1, 24918, Control_c, 0, 64, 70
1, 24933, Control_c, 0, 64, 75
1, 24948, Control_c, 0, 64, 81
1, 24963, Control_c, 0, 64, 87
1, 24978, Control_c, 0, 64, 95
1, 24993, Control_c, 0, 64, 103
1, 25008, Control_c, 0, 64, 119
1, 25023, Control_c, 0, 64, 127
1, 25023, Note_off_c, 0, 65, 35
1, 25038, Note_off_c, 0, 68, 60
1, 25079, Note_off_c, 0, 53, 42
1, 25118, Note_on_c, 0, 56, 39
1, 25169, Note_off_c, 0, 60, 40
1, 25327, Control_c, 0, 64, 94
1, 25333, Note_on_c, 0, 68, 46
1, 25339, Note_on_c, 0, 49, 39
1, 25342, Control_c, 0, 64, 76
1, 25357, Control_c, 0, 64, 65
1, 25372, Control_c, 0, 64, 63
1, 25386, Control_c, 0, 64, 64
1, 25389, Note_off_c, 0, 68, 48
1, 25392, Note_off_c, 0, 56, 26
1, 25401, Control_c, 0, 64, 67
1, 25416, Control_c, 0, 64, 73
1, 25425, Note_off_c, 0, 49, 59
1, 25431, Control_c, 0, 64, 83
1, 25442, Note_on_c, 0, 70, 46
1, 25446, Control_c, 0, 64, 102
1, 25461, Control_c, 0, 64, 127
1, 25476, Note_off_c, 0, 70, 61
1, 25515, Note_on_c, 0, 72, 50
1, 25550, Note_off_c, 0, 72, 64
1, 25583, Note_on_c, 0, 70, 51
1, 25589, Note_on_c, 0, 58, 40
1, 25610, Note_off_c, 0, 70, 63
1, 25667, Note_on_c, 0, 70, 57
1, 25691, Poly_aftertouch_c, 0, 72, 127
1, 25699, Note_off_c, 0, 70, 65
1, 25739, Note_off_c, 0, 58, 63
1, 25757, Note_on_c, 0, 70, 67
1, 25771, Poly_aftertouch_c, 0, 72, 0
1, 25780, Note_on_c, 0, 55, 45
1, 25814, Note_off_c, 0, 70, 61
1, 25829, Note_on_c, 0, 68, 69
1, 25897, Note_off_c, 0, 68, 58
1, 25910, Note_on_c, 0, 70, 66
1, 25912, Control_c, 0, 64, 103
1, 25927, Control_c, 0, 64, 77
1, 25941, Control_c, 0, 64, 65
1, 25951, Note_on_c, 0, 48, 47
1, 25956, Control_c, 0, 64, 59
1, 25971, Control_c, 0, 64, 59
1, 25987, Control_c, 0, 64, 61
1, 25998, Note_on_c, 0, 72, 65
1, 25998, Note_off_c, 0, 70, 61
1, 26000, Note_off_c, 0, 55, 51
1, 26002, Control_c, 0, 64, 64
1, 26015, Note_off_c, 0, 48, 60
1, 26016, Control_c, 0, 64, 68
1, 26031, Control_c, 0, 64, 75
1, 26046, Control_c, 0, 64, 92
1, 26061, Control_c, 0, 64, 127
1, 26095, Note_on_c, 0, 73, 76
1, 26097, Note_off_c, 0, 72, 64
1, 26135, Control_c, 0, 64, 92
1, 26150, Control_c, 0, 64, 70
1, 26159, Note_on_c, 0, 64, 45
1, 26164, Control_c, 0, 64, 59
1, 26176, Note_on_c, 0, 58, 30
1, 26179, Control_c, 0, 64, 55
1, 26189, Note_on_c, 0, 72, 67
1, 26194, Control_c, 0, 64, 56
1, 26209, Control_c, 0, 64, 58
1, 26224, Control_c, 0, 64, 62
1, 26227, Note_off_c, 0, 64, 47
1, 26239, Control_c, 0, 64, 65
1, 26254, Control_c, 0, 64, 68
1, 26257, Note_off_c, 0, 72, 63
1, 26264, Note_off_c, 0, 73, 38
1, 26267, Note_on_c, 0, 71, 72
1, 26269, Control_c, 0, 64, 73
1, 26284, Control_c, 0, 64, 79
1, 26298, Control_c, 0, 64, 86
1, 26313, Control_c, 0, 64, 97
1, 26319, Note_off_c, 0, 71, 61
1, 26323, Note_on_c, 0, 60, 43
1, 26328, Control_c, 0, 64, 118
1, 26337, Note_on_c, 0, 72, 73
1, 26343, Control_c, 0, 64, 127
1, 26367, Note_off_c, 0, 72, 65
1, 26442, Note_on_c, 0, 72, 68
1, 26528, Note_off_c, 0, 58, 32
1, 26555, Note_on_c, 0, 53, 44
1, 26602, Control_c, 0, 64, 114
1, 26616, Control_c, 0, 64, 101
1, 26629, Note_off_c, 0, 72, 39
1, 26629, Note_on_c, 0, 80, 69
1, 26631, Control_c, 0, 64, 89
1, 26644, Note_off_c, 0, 60, 39
1, 26645, Control_c, 0, 64, 76
1, 26660, Control_c, 0, 64, 64
1, 26675, Control_c, 0, 64, 55
1, 26689, Control_c, 0, 64, 51
1, 26704, Control_c, 0, 64, 50
1, 26719, Control_c, 0, 64, 51
1, 26734, Control_c, 0, 64, 52
1, 26749, Control_c, 0, 64, 54
1, 26764, Control_c, 0, 64, 57
1, 26778, Control_c, 0, 64, 59
1, 26794, Control_c, 0, 64, 61
1, 26809, Control_c, 0, 64, 64
1, 26824, Control_c, 0, 64, 68
1, 26838, Control_c, 0, 64, 76
1, 26843, Note_off_c, 0, 80, 64
1, 26853, Control_c, 0, 64, 89
1, 26868, Control_c, 0, 64, 116
1, 26883, Control_c, 0, 64, 127
1, 26934, Note_on_c, 0, 65, 37
1, 26939, Note_on_c, 0, 56, 39
1, 26942, Control_c, 0, 64, 95
1, 26950, Note_on_c, 0, 79, 68
1, 26957, Control_c, 0, 64, 72
1, 26972, Control_c, 0, 64, 61
1, 26987, Control_c, 0, 64, 57
1, 27002, Control_c, 0, 64, 59
1, 27017, Control_c, 0, 64, 61
1, 27032, Control_c, 0, 64, 65
1, 27046, Control_c, 0, 64, 70
1, 27061, Control_c, 0, 64, 78
1, 27072, Note_off_c, 0, 53, 57
1, 27076, Control_c, 0, 64, 87
1, 27091, Control_c, 0, 64, 97
1, 27096, Note_off_c, 0, 65, 32
1, 27106, Control_c, 0, 64, 104
1, 27120, Control_c, 0, 64, 114
1, 27135, Control_c, 0, 64, 127
1, 27136, Note_on_c, 0, 60, 47
1, 27148, Note_off_c, 0, 79, 63
1, 27181, Note_off_c, 0, 60, 62
1, 27223, Note_off_c, 0, 56, 60
1, 27229, Note_on_c, 0, 77, 63
1, 27259, Note_off_c, 0, 77, 66
1, 27335, Control_c, 0, 64, 101
1, 27344, Note_on_c, 0, 77, 68
1, 27350, Control_c, 0, 64, 77
1, 27356, Note_on_c, 0, 49, 45
1, 27364, Control_c, 0, 64, 64
1, 27379, Control_c, 0, 64, 56
1, 27395, Control_c, 0, 64, 57
1, 27410, Control_c, 0, 64, 60
1, 27425, Control_c, 0, 64, 64
1, 27439, Control_c, 0, 64, 70
1, 27449, Note_off_c, 0, 49, 64
1, 27454, Control_c, 0, 64, 81
1, 27469, Control_c, 0, 64, 110
1, 27484, Control_c, 0, 64, 127
1, 27558, Control_c, 0, 64, 87
1, 27572, Control_c, 0, 64, 71
1, 27578, Note_on_c, 0, 65, 43
1, 27583, Note_on_c, 0, 75, 62
1, 27586, Note_on_c, 0, 56, 44
1, 27589, Control_c, 0, 64, 65
1, 27604, Control_c, 0, 64, 67
1, 27618, Control_c, 0, 64, 71
1, 27633, Control_c, 0, 64, 79
1, 27648, Control_c, 0, 64, 93
1, 27662, Control_c, 0, 64, 127
1, 27674, Note_off_c, 0, 77, 58
1, 27737, Note_off_c, 0, 65, 37
1, 27765, Note_on_c, 0, 58, 51
1, 27809, Note_off_c, 0, 75, 57
1, 27876, Note_on_c, 0, 73, 60
1, 27884, Control_c, 0, 64, 116
1, 27899, Control_c, 0, 64, 104
1, 27914, Control_c, 0, 64, 96
1, 27926, Note_off_c, 0, 73, 57
1, 27929, Note_off_c, 0, 56, 40
1, 27929, Control_c, 0, 64, 90
1, 27944, Control_c, 0, 64, 85
1, 27959, Control_c, 0, 64, 80
1, 27974, Control_c, 0, 64, 76
1, 27988, Control_c, 0, 64, 73
1, 27995, Note_on_c, 0, 51, 40
1, 28003, Control_c, 0, 64, 70
1, 28015, Note_off_c, 0, 58, 49
1, 28017, Note_on_c, 0, 73, 61
1, 28018, Control_c, 0, 64, 67
1, 28040, Control_c, 0, 64, 65
1, 28055, Control_c, 0, 64, 62
1, 28069, Control_c, 0, 64, 59
1, 28084, Control_c, 0, 64, 55
1, 28099, Control_c, 0, 64, 52
1, 28114, Control_c, 0, 64, 48
1, 28115, Note_off_c, 0, 73, 62
1, 28118, Note_on_c, 0, 75, 62
1, 28129, Control_c, 0, 64, 45
1, 28144, Control_c, 0, 64, 43
1, 28159, Control_c, 0, 64, 42
1, 28174, Control_c, 0, 64, 40
1, 28188, Control_c, 0, 64, 39
1, 28203, Control_c, 0, 64, 38
1, 28205, Note_on_c, 0, 73, 55
1, 28218, Control_c, 0, 64, 37
1, 28231, Note_off_c, 0, 75, 56
1, 28233, Control_c, 0, 64, 36
1, 28264, Note_on_c, 0, 63, 40
1, 28269, Note_on_c, 0, 55, 32
1, 28292, Control_c, 0, 64, 37
1, 28301, Note_off_c, 0, 73, 60
1, 28307, Control_c, 0, 64, 38
1, 28309, Note_on_c, 0, 72, 56
1, 28322, Control_c, 0, 64, 41
1, 28336, Control_c, 0, 64, 45
1, 28351, Control_c, 0, 64, 49
1, 28366, Control_c, 0, 64, 52
1, 28382, Control_c, 0, 64, 56
1, 28397, Control_c, 0, 64, 58
1, 28407, Note_off_c, 0, 51, 52
1, 28411, Control_c, 0, 64, 60
1, 28426, Control_c, 0, 64, 62
1, 28441, Control_c, 0, 64, 64
1, 28456, Control_c, 0, 64, 66
1, 28471, Control_c, 0, 64, 68
1, 28485, Control_c, 0, 64, 73
1, 28500, Control_c, 0, 64, 78
1, 28507, Note_off_c, 0, 72, 58
1, 28515, Control_c, 0, 64, 85
1, 28530, Control_c, 0, 64, 91
1, 28545, Control_c, 0, 64, 97
1, 28559, Control_c, 0, 64, 104
1, 28574, Control_c, 0, 64, 108
1, 28580, Note_on_c, 0, 61, 43
1, 28589, Control_c, 0, 64, 109
1, 28627, Note_off_c, 0, 61, 61
1, 28632, Note_off_c, 0, 63, 36
1, 28677, Control_c, 0, 64, 108
1, 28680, Note_off_c, 0, 55, 44
1, 28692, Control_c, 0, 64, 108
1, 28722, Note_on_c, 0, 70, 47
1, 28752, Control_c, 0, 64, 108
1, 28767, Control_c, 0, 64, 109
1, 28804, Control_c, 0, 64, 107
1, 28818, Control_c, 0, 64, 100
1, 28833, Control_c, 0, 64, 86
1, 28847, Note_on_c, 0, 44, 44
1, 28848, Control_c, 0, 64, 72
1, 28863, Control_c, 0, 64, 63
1, 28868, Note_on_c, 0, 68, 49
1, 28878, Control_c, 0, 64, 60
1, 28892, Control_c, 0, 64, 61
1, 28907, Control_c, 0, 64, 63
1, 28911, Note_off_c, 0, 70, 36
1, 28922, Control_c, 0, 64, 65
1, 28937, Control_c, 0, 64, 69
1, 28952, Control_c, 0, 64, 76
1, 28956, Note_off_c, 0, 44, 63
1, 28966, Control_c, 0, 64, 85
1, 28981, Control_c, 0, 64, 98
1, 28996, Control_c, 0, 64, 106
1, 29011, Control_c, 0, 64, 111
1, 29026, Control_c, 0, 64, 113
1, 29041, Control_c, 0, 64, 113
1, 29056, Control_c, 0, 64, 118
1, 29061, Note_on_c, 0, 60, 47
1, 29071, Control_c, 0, 64, 127
1, 29076, Note_on_c, 0, 56, 31
1, 29128, Note_off_c, 0, 60, 56
1, 29239, Note_off_c, 0, 56, 42
1, 29244, Note_on_c, 0, 51, 46
1, 29326, Note_off_c, 0, 51, 57
1, 29412, Control_c, 0, 64, 100
1, 29426, Control_c, 0, 64, 79
1, 29432, Note_on_c, 0, 44, 42
1, 29441, Control_c, 0, 64, 66
1, 29447, Note_on_c, 0, 65, 46
1, 29456, Control_c, 0, 64, 62
1, 29471, Control_c, 0, 64, 63
1, 29486, Control_c, 0, 64, 65
1, 29494, Note_off_c, 0, 44, 47
1, 29500, Control_c, 0, 64, 68
1, 29515, Control_c, 0, 64, 74
1, 29538, Control_c, 0, 64, 83
1, 29553, Control_c, 0, 64, 99
1, 29568, Control_c, 0, 64, 117
1, 29570, Note_off_c, 0, 68, 31
1, 29582, Control_c, 0, 64, 127
1, 29625, Note_on_c, 0, 59, 43
1, 29648, Note_on_c, 0, 56, 38
1, 29694, Note_off_c, 0, 59, 50
1, 29805, Note_on_c, 0, 50, 36
1, 29816, Note_off_c, 0, 56, 35
1, 29845, Note_off_c, 0, 50, 59
1, 29953, Control_c, 0, 64, 117
1, 29968, Control_c, 0, 64, 91
1, 29983, Control_c, 0, 64, 74
1, 29998, Control_c, 0, 64, 65
1, 30004, Note_on_c, 0, 44, 36
1, 30013, Control_c, 0, 64, 63
1, 30016, Note_on_c, 0, 68, 42
1, 30028, Control_c, 0, 64, 64
1, 30043, Control_c, 0, 64, 66
1, 30044, Note_off_c, 0, 65, 34
1, 30057, Control_c, 0, 64, 69
1, 30072, Control_c, 0, 64, 74
1, 30085, Note_off_c, 0, 44, 60
1, 30087, Control_c, 0, 64, 81
1, 30102, Control_c, 0, 64, 89
1, 30117, Control_c, 0, 64, 94
1, 30131, Control_c, 0, 64, 97
1, 30146, Control_c, 0, 64, 98
1, 30161, Control_c, 0, 64, 100
1, 30176, Control_c, 0, 64, 103
1, 30191, Control_c, 0, 64, 111
1, 30193, Note_on_c, 0, 60, 44
1, 30205, Control_c, 0, 64, 127
1, 30207, Note_on_c, 0, 56, 30
1, 30311, Note_off_c, 0, 60, 50
1, 30391, Note_on_c, 0, 51, 47
1, 30417, Note_off_c, 0, 56, 42
1, 30449, Control_c, 0, 64, 118
1, 30463, Control_c, 0, 64, 113
1, 30478, Control_c, 0, 64, 107
1, 30493, Control_c, 0, 64, 104
1, 30508, Control_c, 0, 64, 100
1, 30523, Control_c, 0, 64, 96
1, 30537, Control_c, 0, 64, 89
1, 30552, Control_c, 0, 64, 78
1, 30567, Control_c, 0, 64, 66
1, 30582, Control_c, 0, 64, 59
1, 30594, Note_on_c, 0, 67, 54
1, 30597, Control_c, 0, 64, 56
1, 30603, Note_off_c, 0, 68, 53
1, 30624, Note_off_c, 0, 51, 49
1, 30627, Control_c, 0, 64, 57
1, 30631, Note_on_c, 0, 48, 41
1, 30642, Control_c, 0, 64, 59
1, 30656, Control_c, 0, 64, 61
1, 30671, Control_c, 0, 64, 64
1, 30686, Control_c, 0, 64, 66
1, 30701, Control_c, 0, 64, 69
1, 30716, Control_c, 0, 64, 75
1, 30730, Control_c, 0, 64, 83
1, 30745, Control_c, 0, 64, 98
1, 30760, Control_c, 0, 64, 118
1, 30775, Control_c, 0, 64, 127
1, 30857, Note_on_c, 0, 63, 31
1, 30872, Note_off_c, 0, 48, 20
1, 31045, Note_on_c, 0, 56, 43
1, 31055, Note_off_c, 0, 63, 37
1, 31075, Note_on_c, 0, 68, 55
1, 31123, Note_off_c, 0, 67, 34
1, 31212, Control_c, 0, 64, 112
1, 31227, Control_c, 0, 64, 101
1, 31242, Control_c, 0, 64, 91
1, 31257, Control_c, 0, 64, 81
1, 31266, Note_on_c, 0, 70, 60
1, 31272, Control_c, 0, 64, 71
1, 31286, Control_c, 0, 64, 64
1, 31293, Note_on_c, 0, 55, 47
1, 31298, Note_off_c, 0, 56, 59
1, 31301, Control_c, 0, 64, 58
1, 31316, Control_c, 0, 64, 56
1, 31331, Control_c, 0, 64, 55
1, 31354, Note_off_c, 0, 68, 37
1, 31360, Control_c, 0, 64, 56
1, 31375, Control_c, 0, 64, 56
1, 31390, Control_c, 0, 64, 57
1, 31405, Control_c, 0, 64, 59
1, 31420, Control_c, 0, 64, 61
1, 31435, Control_c, 0, 64, 63
1, 31450, Control_c, 0, 64, 65
1, 31464, Control_c, 0, 64, 68
1, 31466, Note_on_c, 0, 63, 45
1, 31479, Control_c, 0, 64, 71
1, 31494, Control_c, 0, 64, 76
1, 31509, Control_c, 0, 64, 83
1, 31524, Control_c, 0, 64, 92
1, 31539, Control_c, 0, 64, 111
1, 31553, Control_c, 0, 64, 127
1, 31646, Note_on_c, 0, 58, 64
1, 31752, Note_off_c, 0, 63, 36
1, 31798, Control_c, 0, 64, 95
1, 31807, Note_on_c, 0, 54, 60
1, 31813, Control_c, 0, 64, 73
1, 31827, Note_on_c, 0, 72, 73
1, 31828, Control_c, 0, 64, 62
1, 31843, Control_c, 0, 64, 56
1, 31858, Control_c, 0, 64, 57
1, 31873, Control_c, 0, 64, 59
1, 31888, Control_c, 0, 64, 61
1, 31903, Control_c, 0, 64, 64
1, 31903, Note_off_c, 0, 58, 56
1, 31915, Note_off_c, 0, 70, 58
1, 31917, Control_c, 0, 64, 66
1, 31932, Control_c, 0, 64, 69
1, 31947, Control_c, 0, 64, 74
1, 31962, Control_c, 0, 64, 82
1, 31977, Control_c, 0, 64, 93
1, 31991, Control_c, 0, 64, 119
1, 31998, Note_on_c, 0, 63, 66
1, 32006, Control_c, 0, 64, 127
1, 32043, Note_off_c, 0, 55, 28
1, 32061, Note_off_c, 0, 72, 64
1, 32136, Note_on_c, 0, 58, 75
1, 32189, Note_off_c, 0, 63, 52
1, 32302, Control_c, 0, 64, 99
1, 32317, Control_c, 0, 64, 73
1, 32319, Note_on_c, 0, 72, 78
1, 32326, Note_on_c, 0, 53, 69
1, 32332, Control_c, 0, 64, 57
1, 32347, Control_c, 0, 64, 47
1, 32374, Note_off_c, 0, 54, 60
1, 32377, Control_c, 0, 64, 48
1, 32392, Control_c, 0, 64, 50
1, 32406, Control_c, 0, 64, 54
1, 32408, Note_off_c, 0, 58, 61
1, 32421, Control_c, 0, 64, 58
1, 32436, Control_c, 0, 64, 61
1, 32451, Control_c, 0, 64, 63
1, 32466, Control_c, 0, 64, 65
1, 32481, Control_c, 0, 64, 69
1, 32496, Control_c, 0, 64, 76
1, 32496, Note_on_c, 0, 63, 57
1, 32511, Control_c, 0, 64, 88
1, 32532, Control_c, 0, 64, 115
1, 32547, Control_c, 0, 64, 127
1, 32573, Poly_aftertouch_c, 0, 54, 127
1, 32580, Note_off_c, 0, 63, 60
1, 32657, Note_on_c, 0, 57, 65
1, 32692, Note_off_c, 0, 57, 66
1, 32711, Note_off_c, 0, 53, 63
1, 32739, Poly_aftertouch_c, 0, 54, 0
1, 32743, Note_off_c, 0, 72, 55
1, 32813, Control_c, 0, 64, 113
1, 32828, Control_c, 0, 64, 81
1, 32830, Note_on_c, 0, 46, 58
1, 32843, Control_c, 0, 64, 65
1, 32857, Control_c, 0, 64, 52
1, 32862, Note_on_c, 0, 73, 75
1, 32872, Control_c, 0, 64, 49
1, 32887, Control_c, 0, 64, 49
1, 32902, Control_c, 0, 64, 53
1, 32917, Control_c, 0, 64, 57
1, 32931, Control_c, 0, 64, 61
1, 32946, Control_c, 0, 64, 64
1, 32961, Control_c, 0, 64, 67
1, 32976, Control_c, 0, 64, 71
1, 32991, Control_c, 0, 64, 78
1, 33000, Note_off_c, 0, 46, 63
1, 33006, Control_c, 0, 64, 85
1, 33021, Control_c, 0, 64, 92
1, 33035, Control_c, 0, 64, 102
1, 33050, Control_c, 0, 64, 121
1, 33053, Note_on_c, 0, 61, 62
1, 33065, Control_c, 0, 64, 127
1, 33152, Note_off_c, 0, 73, 64
1, 33215, Note_on_c, 0, 53, 70
1, 33229, Note_off_c, 0, 61, 55
1, 33414, Control_c, 0, 64, 101
1, 33429, Control_c, 0, 64, 79
1, 33444, Control_c, 0, 64, 65
1, 33459, Control_c, 0, 64, 51
1, 33467, Note_on_c, 0, 51, 69
1, 33474, Control_c, 0, 64, 50
1, 33483, Note_on_c, 0, 73, 70
1, 33488, Control_c, 0, 64, 51
1, 33497, Note_off_c, 0, 53, 62
1, 33503, Control_c, 0, 64, 54
1, 33518, Control_c, 0, 64, 57
1, 33533, Control_c, 0, 64, 61
1, 33548, Control_c, 0, 64, 65
1, 33562, Control_c, 0, 64, 68
1, 33577, Control_c, 0, 64, 72
1, 33592, Control_c, 0, 64, 79
1, 33607, Control_c, 0, 64, 90
1, 33622, Control_c, 0, 64, 105
1, 33636, Control_c, 0, 64, 127
1, 33650, Note_off_c, 0, 51, 64
1, 33676, Note_off_c, 0, 73, 65
1, 33694, Note_on_c, 0, 66, 67
1, 33772, Note_on_c, 0, 73, 78
1, 33876, Note_on_c, 0, 75, 76
1, 33877, Note_off_c, 0, 73, 64
1, 33878, Note_on_c, 0, 58, 65
1, 33903, Control_c, 0, 64, 123
1, 33912, Note_off_c, 0, 66, 37
1, 33918, Control_c, 0, 64, 111
1, 33933, Control_c, 0, 64, 106
1, 33947, Control_c, 0, 64, 101
1, 33962, Control_c, 0, 64, 97
1, 33977, Control_c, 0, 64, 91
1, 33979, Note_on_c, 0, 73, 79
1, 33992, Control_c, 0, 64, 85
1, 34007, Control_c, 0, 64, 79
1, 34030, Control_c, 0, 64, 75
1, 34045, Control_c, 0, 64, 71
1, 34059, Control_c, 0, 64, 68
1, 34074, Control_c, 0, 64, 65
1, 34085, Note_off_c, 0, 75, 50
1, 34089, Control_c, 0, 64, 63
1, 34103, Control_c, 0, 64, 61
1, 34118, Control_c, 0, 64, 60
1, 34124, Note_on_c, 0, 54, 57
1, 34133, Control_c, 0, 64, 59
1, 34138, Note_on_c, 0, 72, 74
1, 34148, Control_c, 0, 64, 58
1, 34163, Control_c, 0, 64, 57
1, 34177, Control_c, 0, 64, 56
1, 34192, Note_off_c, 0, 73, 56
1, 34192, Control_c, 0, 64, 55
1, 34204, Note_off_c, 0, 58, 59
1, 34207, Control_c, 0, 64, 53
1, 34222, Control_c, 0, 64, 52
1, 34237, Control_c, 0, 64, 50
1, 34252, Control_c, 0, 64, 47
1, 34267, Control_c, 0, 64, 44
1, 34281, Control_c, 0, 64, 40
1, 34296, Control_c, 0, 64, 32
1, 34311, Control_c, 0, 64, 24
1, 34326, Control_c, 0, 64, 15
1, 34335, Note_on_c, 0, 63, 51
1, 34341, Control_c, 0, 64, 0
1, 34512, Note_on_c, 0, 58, 54
1, 34560, Note_on_c, 0, 70, 60
1, 34576, Note_off_c, 0, 72, 59
1, 34588, Note_off_c, 0, 63, 34
1, 34720, Note_on_c, 0, 53, 42
1, 34736, Note_on_c, 0, 69, 59
1, 34740, Control_c, 0, 64, 17
1, 34743, Note_off_c, 0, 54, 58
1, 34755, Control_c, 0, 64, 24
1, 34758, Note_off_c, 0, 70, 53
1, 34779, Control_c, 0, 64, 27
1, 34794, Control_c, 0, 64, 32
1, 34808, Control_c, 0, 64, 38
1, 34814, Note_off_c, 0, 58, 57
1, 34823, Control_c, 0, 64, 44
1, 34838, Control_c, 0, 64, 47
1, 34853, Control_c, 0, 64, 49
1, 34868, Control_c, 0, 64, 51
1, 34883, Control_c, 0, 64, 53
1, 34898, Control_c, 0, 64, 56
1, 34913, Control_c, 0, 64, 59
1, 34927, Control_c, 0, 64, 61
1, 34942, Control_c, 0, 64, 63
1, 34957, Control_c, 0, 64, 65
1, 34961, Note_on_c, 0, 63, 16
1, 34972, Control_c, 0, 64, 67
1, 34987, Control_c, 0, 64, 71
1, 35001, Control_c, 0, 64, 77
1, 35016, Control_c, 0, 64, 86
1, 35031, Control_c, 0, 64, 100
1, 35045, Control_c, 0, 64, 127
1, 35122, Note_on_c, 0, 60, 42
1, 35122, Note_off_c, 0, 63, 39
1, 35149, Note_off_c, 0, 60, 58
1, 35196, Note_off_c, 0, 53, 40
1, 35280, Note_off_c, 0, 69, 42
1, 35298, Control_c, 0, 64, 96
1, 35313, Control_c, 0, 64, 73
1, 35324, Note_on_c, 0, 70, 49
1, 35325, Note_on_c, 0, 46, 41
1, 35327, Control_c, 0, 64, 63
1, 35342, Control_c, 0, 64, 60
1, 35357, Control_c, 0, 64, 62
1, 35372, Control_c, 0, 64, 64
1, 35387, Control_c, 0, 64, 67
1, 35401, Control_c, 0, 64, 72
1, 35416, Control_c, 0, 64, 81
1, 35431, Control_c, 0, 64, 91
1, 35437, Note_off_c, 0, 46, 62
1, 35445, Control_c, 0, 64, 100
1, 35460, Control_c, 0, 64, 111
1, 35475, Control_c, 0, 64, 127
1, 35497, Note_on_c, 0, 61, 56
1, 35647, Note_off_c, 0, 70, 61
1, 35693, Note_on_c, 0, 58, 69
1, 35747, Note_off_c, 0, 61, 36
1, 35919, Note_on_c, 0, 52, 61
1, 35928, Control_c, 0, 64, 102
1, 35940, Note_on_c, 0, 70, 75
1, 35942, Control_c, 0, 64, 85
1, 35957, Control_c, 0, 64, 72
1, 35972, Control_c, 0, 64, 62
1, 35987, Control_c, 0, 64, 56
1, 36002, Control_c, 0, 64, 53
1, 36028, Note_off_c, 0, 58, 62
1, 36031, Control_c, 0, 64, 54
1, 36046, Control_c, 0, 64, 56
1, 36061, Control_c, 0, 64, 60
1, 36076, Control_c, 0, 64, 63
1, 36091, Control_c, 0, 64, 65
1, 36106, Control_c, 0, 64, 68
1, 36121, Control_c, 0, 64, 73
1, 36136, Control_c, 0, 64, 81
1, 36146, Note_on_c, 0, 61, 61
1, 36150, Control_c, 0, 64, 93
1, 36165, Control_c, 0, 64, 110
1, 36180, Control_c, 0, 64, 127
1, 36311, Note_on_c, 0, 56, 73
1, 36350, Control_c, 0, 64, 111
1, 36364, Note_off_c, 0, 61, 51
1, 36365, Control_c, 0, 64, 100
1, 36380, Control_c, 0, 64, 94
1, 36395, Control_c, 0, 64, 90
1, 36410, Control_c, 0, 64, 86
1, 36425, Control_c, 0, 64, 84
1, 36440, Control_c, 0, 64, 80
1, 36455, Control_c, 0, 64, 77
1, 36469, Control_c, 0, 64, 75
1, 36484, Note_on_c, 0, 51, 76
1, 36484, Control_c, 0, 64, 72
1, 36499, Control_c, 0, 64, 70
1, 36501, Note_on_c, 0, 72, 81
1, 36514, Control_c, 0, 64, 68
1, 36529, Control_c, 0, 64, 64
1, 36538, Note_off_c, 0, 52, 64
1, 36544, Control_c, 0, 64, 61
1, 36559, Control_c, 0, 64, 58
1, 36573, Control_c, 0, 64, 56
1, 36588, Control_c, 0, 64, 53
1, 36592, Note_off_c, 0, 70, 62
1, 36594, Note_off_c, 0, 56, 62
1, 36603, Control_c, 0, 64, 50
1, 36618, Control_c, 0, 64, 45
1, 36633, Control_c, 0, 64, 38
1, 36647, Control_c, 0, 64, 26
1, 36662, Control_c, 0, 64, 0
1, 36690, Note_on_c, 0, 61, 66
1, 36880, Note_on_c, 0, 55, 60
1, 36899, Note_on_c, 0, 70, 81
1, 36969, Note_off_c, 0, 72, 61
1, 37046, Note_off_c, 0, 51, 57
1, 37088, Note_off_c, 0, 61, 42
1, 37135, Note_on_c, 0, 49, 61
1, 37243, Note_on_c, 0, 77, 79
1, 37318, Note_off_c, 0, 55, 60
1, 37341, Note_off_c, 0, 70, 57
1, 37425, Control_c, 0, 64, 17
1, 37440, Control_c, 0, 64, 36
1, 37441, Note_on_c, 0, 51, 30
1, 37455, Control_c, 0, 64, 47
1, 37469, Control_c, 0, 64, 52
1, 37484, Control_c, 0, 64, 55
1, 37499, Control_c, 0, 64, 58
1, 37514, Control_c, 0, 64, 61
1, 37528, Control_c, 0, 64, 64
1, 37543, Control_c, 0, 64, 68
1, 37558, Control_c, 0, 64, 74
1, 37560, Note_on_c, 0, 63, 52
1, 37573, Control_c, 0, 64, 82
1, 37588, Control_c, 0, 64, 92
1, 37602, Control_c, 0, 64, 104
1, 37617, Control_c, 0, 64, 127
1, 37717, Note_off_c, 0, 63, 34
1, 37730, Note_on_c, 0, 55, 53
1, 37780, Note_off_c, 0, 49, 56
1, 37861, Control_c, 0, 64, 91
1, 37876, Control_c, 0, 64, 73
1, 37891, Control_c, 0, 64, 63
1, 37906, Control_c, 0, 64, 58
1, 37921, Control_c, 0, 64, 59
1, 37936, Control_c, 0, 64, 60
1, 37944, Note_on_c, 0, 48, 46
1, 37951, Control_c, 0, 64, 62
1, 37960, Note_on_c, 0, 75, 58
1, 37961, Note_off_c, 0, 51, 30
1, 37966, Control_c, 0, 64, 64
1, 37981, Control_c, 0, 64, 67
1, 37996, Control_c, 0, 64, 71
1, 38011, Control_c, 0, 64, 77
1, 38025, Control_c, 0, 64, 86
1, 38040, Control_c, 0, 64, 98
1, 38048, Note_off_c, 0, 55, 43
1, 38055, Control_c, 0, 64, 127
1, 38070, Note_off_c, 0, 77, 59
1, 38115, Control_c, 0, 64, 110
1, 38130, Control_c, 0, 64, 85
1, 38144, Control_c, 0, 64, 72
1, 38159, Control_c, 0, 64, 67
1, 38174, Control_c, 0, 64, 67
1, 38177, Note_on_c, 0, 63, 34
1, 38189, Control_c, 0, 64, 70
1, 38204, Control_c, 0, 64, 76
1, 38218, Control_c, 0, 64, 85
1, 38233, Control_c, 0, 64, 99
1, 38248, Control_c, 0, 64, 127
1, 38279, Note_off_c, 0, 63, 28
1, 38327, Note_off_c, 0, 48, 41
1, 38351, Note_on_c, 0, 56, 41
1, 38405, Note_off_c, 0, 56, 59
1, 38499, Control_c, 0, 64, 93
1, 38522, Control_c, 0, 64, 74
1, 38537, Control_c, 0, 64, 65
1, 38545, Note_on_c, 0, 46, 45
1, 38551, Control_c, 0, 64, 64
1, 38552, Note_on_c, 0, 73, 54
1, 38566, Control_c, 0, 64, 65
1, 38581, Control_c, 0, 64, 68
1, 38596, Control_c, 0, 64, 73
1, 38611, Control_c, 0, 64, 81
1, 38619, Note_off_c, 0, 46, 61
1, 38625, Control_c, 0, 64, 92
1, 38640, Control_c, 0, 64, 103
1, 38651, Note_off_c, 0, 75, 56
1, 38655, Control_c, 0, 64, 108
1, 38669, Control_c, 0, 64, 111
1, 38684, Control_c, 0, 64, 113
1, 38699, Control_c, 0, 64, 127
1, 38754, Note_on_c, 0, 63, 45
1, 38855, Note_off_c, 0, 63, 37
1, 38941, Note_on_c, 0, 55, 40
1, 38988, Note_off_c, 0, 55, 61
1, 39060, Note_on_c, 0, 72, 48
1, 39087, Note_off_c, 0, 73, 32
1, 39104, Note_off_c, 0, 72, 62
1, 39115, Control_c, 0, 64, 90
1, 39130, Control_c, 0, 64, 70
1, 39145, Control_c, 0, 64, 62
1, 39160, Control_c, 0, 64, 60
1, 39174, Control_c, 0, 64, 62
1, 39189, Control_c, 0, 64, 65
1, 39194, Note_on_c, 0, 44, 34
1, 39204, Control_c, 0, 64, 69
1, 39208, Note_on_c, 0, 72, 50
1, 39219, Control_c, 0, 64, 75
1, 39234, Control_c, 0, 64, 87
1, 39248, Control_c, 0, 64, 98
1, 39252, Note_off_c, 0, 72, 60
1, 39271, Control_c, 0, 64, 107
1, 39286, Control_c, 0, 64, 118
1, 39300, Control_c, 0, 64, 127
1, 39336, Note_off_c, 0, 44, 48
1, 39390, Note_on_c, 0, 72, 44
1, 39438, Note_off_c, 0, 72, 64
1, 39468, Note_on_c, 0, 73, 47
1, 39519, Note_off_c, 0, 73, 56
1, 39539, Note_on_c, 0, 72, 47
1, 39567, Note_off_c, 0, 72, 58
1, 39578, Note_on_c, 0, 63, 31
1, 39602, Note_on_c, 0, 71, 47
1, 39629, Note_off_c, 0, 71, 59
1, 39668, Note_on_c, 0, 72, 56
1, 39716, Note_off_c, 0, 72, 54
1, 39769, Note_off_c, 0, 63, 39
1, 39781, Note_on_c, 0, 82, 52
1, 39889, Note_off_c, 0, 82, 56
1, 39897, Note_on_c, 0, 80, 51
1, 39901, Note_on_c, 0, 56, 27
1, 39982, Note_on_c, 0, 75, 54
1, 39984, Note_off_c, 0, 80, 62
1, 40044, Note_off_c, 0, 56, 52
1, 40079, Note_off_c, 0, 75, 61
1, 40103, Note_on_c, 0, 72, 48
1, 40236, Note_off_c, 0, 72, 47
1, 40242, Control_c, 0, 64, 99
1, 40257, Control_c, 0, 64, 72
1, 40272, Control_c, 0, 64, 61
1, 40273, Note_on_c, 0, 69, 56
1, 40287, Control_c, 0, 64, 52
1, 40302, Control_c, 0, 64, 52
1, 40303, Note_on_c, 0, 39, 33
1, 40316, Control_c, 0, 64, 56
1, 40331, Control_c, 0, 64, 63
1, 40346, Control_c, 0, 64, 71
1, 40361, Control_c, 0, 64, 87
1, 40377, Control_c, 0, 64, 127
1, 40412, Note_off_c, 0, 39, 51
1, 40658, Note_on_c, 0, 63, 47
1, 40902, Note_on_c, 0, 54, 38
1, 40955, Note_off_c, 0, 63, 28
1, 40976, Control_c, 0, 64, 121
1, 40991, Control_c, 0, 64, 111
1, 41006, Control_c, 0, 64, 106
1, 41020, Control_c, 0, 64, 103
1, 41035, Control_c, 0, 64, 101
1, 41050, Control_c, 0, 64, 99
1, 41064, Control_c, 0, 64, 97
1, 41079, Control_c, 0, 64, 95
1, 41094, Control_c, 0, 64, 92
1, 41109, Control_c, 0, 64, 90
1, 41124, Control_c, 0, 64, 87
1, 41138, Control_c, 0, 64, 83
1, 41153, Control_c, 0, 64, 78
1, 41169, Control_c, 0, 64, 73
1, 41174, Note_on_c, 0, 70, 36
1, 41184, Control_c, 0, 64, 68
1, 41187, Note_on_c, 0, 55, 31
1, 41197, Note_off_c, 0, 69, 27
1, 41199, Control_c, 0, 64, 64
1, 41214, Control_c, 0, 64, 61
1, 41229, Control_c, 0, 64, 59
1, 41243, Control_c, 0, 64, 57
1, 41258, Note_off_c, 0, 54, 41
1, 41258, Control_c, 0, 64, 55
1, 41273, Control_c, 0, 64, 55
1, 41288, Control_c, 0, 64, 54
1, 41317, Control_c, 0, 64, 54
1, 41332, Control_c, 0, 64, 53
1, 41347, Control_c, 0, 64, 52
1, 41376, Control_c, 0, 64, 53
1, 41391, Control_c, 0, 64, 53
1, 41406, Control_c, 0, 64, 54
1, 41421, Control_c, 0, 64, 55
1, 41436, Control_c, 0, 64, 56
1, 41451, Control_c, 0, 64, 57
1, 41465, Control_c, 0, 64, 58
1, 41468, Note_on_c, 0, 61, 25
1, 41480, Control_c, 0, 64, 59
1, 41495, Control_c, 0, 64, 61
1, 41517, Control_c, 0, 64, 62
1, 41532, Control_c, 0, 64, 64
1, 41547, Control_c, 0, 64, 65
1, 41561, Control_c, 0, 64, 67
1, 41576, Control_c, 0, 64, 68
1, 41591, Control_c, 0, 64, 70
1, 41606, Control_c, 0, 64, 72
1, 41614, Note_off_c, 0, 55, 42
1, 41621, Control_c, 0, 64, 74
1, 41635, Control_c, 0, 64, 77
1, 41650, Control_c, 0, 64, 81
1, 41665, Control_c, 0, 64, 84
1, 41680, Control_c, 0, 64, 87
1, 41695, Control_c, 0, 64, 89
1, 41698, Note_off_c, 0, 70, 37
1, 41710, Control_c, 0, 64, 91
1, 41725, Control_c, 0, 64, 92
1, 41740, Control_c, 0, 64, 94
1, 41755, Control_c, 0, 64, 97
1, 41769, Control_c, 0, 64, 99
1, 41784, Control_c, 0, 64, 101
1, 41799, Control_c, 0, 64, 102
1, 41839, Note_on_c, 0, 51, 44
1, 41843, Control_c, 0, 64, 103
1, 41857, Note_off_c, 0, 61, 37
1, 41858, Control_c, 0, 64, 104
1, 41873, Control_c, 0, 64, 104
1, 41887, Control_c, 0, 64, 105
1, 41917, Control_c, 0, 64, 105
1, 41932, Control_c, 0, 64, 106
1, 41947, Control_c, 0, 64, 106
1, 41963, Control_c, 0, 64, 107
1, 41978, Control_c, 0, 64, 107
1, 41992, Control_c, 0, 64, 108
1, 42045, Note_off_c, 0, 51, 36
1, 42048, Note_on_c, 0, 71, 42
1, 42052, Control_c, 0, 64, 108
1, 42199, Control_c, 0, 64, 108
1, 42214, Control_c, 0, 64, 107
1, 42244, Control_c, 0, 64, 107
1, 42281, Control_c, 0, 64, 106
1, 42296, Control_c, 0, 64, 106
1, 42311, Control_c, 0, 64, 105
1, 42355, Control_c, 0, 64, 105
1, 42369, Control_c, 0, 64, 104
1, 42384, Control_c, 0, 64, 102
1, 42398, Control_c, 0, 64, 94
1, 42410, Note_on_c, 0, 72, 45
1, 42413, Control_c, 0, 64, 80
1, 42419, Note_on_c, 0, 44, 36
1, 42428, Note_off_c, 0, 71, 34
1, 42428, Control_c, 0, 64, 68
1, 42443, Control_c, 0, 64, 62
1, 42458, Control_c, 0, 64, 60
1, 42473, Control_c, 0, 64, 61
1, 42488, Control_c, 0, 64, 63
1, 42503, Control_c, 0, 64, 65
1, 42517, Control_c, 0, 64, 69
1, 42532, Control_c, 0, 64, 75
1, 42543, Note_off_c, 0, 44, 58
1, 42547, Control_c, 0, 64, 82
1, 42562, Control_c, 0, 64, 88
1, 42577, Control_c, 0, 64, 94
1, 42591, Control_c, 0, 64, 98
1, 42606, Control_c, 0, 64, 105
1, 42621, Control_c, 0, 64, 119
1, 42636, Control_c, 0, 64, 127
1, 42657, Note_on_c, 0, 56, 39
1, 42666, Note_on_c, 0, 60, 45
1, 42722, Note_off_c, 0, 60, 55
1, 42844, Note_on_c, 0, 51, 47
1, 42848, Note_off_c, 0, 56, 42
1, 42959, Note_off_c, 0, 51, 39
1, 43014, Control_c, 0, 64, 94
1, 43019, Note_on_c, 0, 44, 45
1, 43020, Note_on_c, 0, 71, 56
1, 43029, Control_c, 0, 64, 80
1, 43044, Control_c, 0, 64, 75
1, 43059, Control_c, 0, 64, 77
1, 43074, Control_c, 0, 64, 80
1, 43076, Note_off_c, 0, 44, 57
1, 43087, Note_off_c, 0, 72, 34
1, 43088, Control_c, 0, 64, 87
1, 43103, Control_c, 0, 64, 97
1, 43118, Control_c, 0, 64, 113
1, 43133, Control_c, 0, 64, 127
1, 43198, Note_on_c, 0, 59, 40
1, 43212, Note_on_c, 0, 56, 44
1, 43246, Note_off_c, 0, 59, 56
1, 43323, Note_off_c, 0, 56, 62
1, 43343, Note_on_c, 0, 50, 52
1, 43399, Note_off_c, 0, 50, 61
1, 43488, Control_c, 0, 64, 94
1, 43503, Control_c, 0, 64, 73
1, 43515, Note_on_c, 0, 44, 52
1, 43518, Control_c, 0, 64, 61
1, 43524, Note_on_c, 0, 72, 60
1, 43532, Control_c, 0, 64, 58
1, 43547, Control_c, 0, 64, 59
1, 43558, Note_off_c, 0, 71, 45
1, 43563, Control_c, 0, 64, 61
1, 43578, Control_c, 0, 64, 64
1, 43585, Note_off_c, 0, 44, 62
1, 43593, Control_c, 0, 64, 68
1, 43608, Control_c, 0, 64, 75
1, 43623, Control_c, 0, 64, 82
1, 43637, Control_c, 0, 64, 90
1, 43652, Control_c, 0, 64, 95
1, 43667, Control_c, 0, 64, 98
1, 43682, Control_c, 0, 64, 102
1, 43686, Note_on_c, 0, 56, 47
1, 43689, Note_on_c, 0, 60, 43
1, 43697, Control_c, 0, 64, 110
1, 43711, Control_c, 0, 64, 127
1, 43742, Note_off_c, 0, 60, 47
1, 43848, Note_off_c, 0, 56, 46
1, 43866, Note_on_c, 0, 51, 54
1, 43969, Note_off_c, 0, 51, 47
1, 44000, Control_c, 0, 64, 92
1, 44015, Control_c, 0, 64, 74
1, 44030, Control_c, 0, 64, 64
1, 44044, Control_c, 0, 64, 59
1, 44050, Note_on_c, 0, 44, 47
1, 44058, Note_on_c, 0, 75, 62
1, 44059, Control_c, 0, 64, 58
1, 44074, Control_c, 0, 64, 59
1, 44089, Control_c, 0, 64, 61
1, 44098, Note_off_c, 0, 44, 60
1, 44104, Control_c, 0, 64, 64
1, 44118, Control_c, 0, 64, 67
1, 44133, Control_c, 0, 64, 72
1, 44148, Control_c, 0, 64, 79
1, 44155, Note_off_c, 0, 72, 61
1, 44163, Control_c, 0, 64, 88
1, 44178, Control_c, 0, 64, 97
1, 44193, Control_c, 0, 64, 113
1, 44208, Control_c, 0, 64, 127
1, 44240, Note_on_c, 0, 61, 47
1, 44253, Note_on_c, 0, 55, 36
1, 44292, Note_off_c, 0, 61, 48
1, 44384, Note_off_c, 0, 55, 51
1, 44405, Note_on_c, 0, 51, 57
1, 44514, Note_off_c, 0, 51, 55
1, 44572, Control_c, 0, 64, 103
1, 44586, Control_c, 0, 64, 76
1, 44599, Note_on_c, 0, 44, 45
1, 44601, Control_c, 0, 64, 64
1, 44616, Note_on_c, 0, 72, 62
1, 44616, Control_c, 0, 64, 58
1, 44619, Note_off_c, 0, 75, 60
1, 44631, Control_c, 0, 64, 59
1, 44646, Control_c, 0, 64, 62
1, 44660, Control_c, 0, 64, 65
1, 44675, Control_c, 0, 64, 71
1, 44688, Note_off_c, 0, 44, 60
1, 44690, Control_c, 0, 64, 80
1, 44705, Control_c, 0, 64, 92
1, 44719, Control_c, 0, 64, 107
1, 44734, Control_c, 0, 64, 121
1, 44749, Control_c, 0, 64, 127
1, 44795, Note_on_c, 0, 60, 51
1, 44813, Note_on_c, 0, 56, 35
1, 44852, Note_off_c, 0, 72, 64
1, 44930, Note_off_c, 0, 60, 34
1, 44980, Note_on_c, 0, 51, 54
1, 45016, Note_off_c, 0, 56, 40
1, 45149, Control_c, 0, 64, 89
1, 45165, Control_c, 0, 64, 71
1, 45180, Control_c, 0, 64, 60
1, 45180, Note_on_c, 0, 48, 50
1, 45195, Control_c, 0, 64, 57
1, 45209, Control_c, 0, 64, 58
1, 45214, Note_on_c, 0, 72, 64
1, 45221, Note_off_c, 0, 51, 52
1, 45224, Control_c, 0, 64, 60
1, 45239, Control_c, 0, 64, 63
1, 45261, Control_c, 0, 64, 66
1, 45276, Control_c, 0, 64, 70
1, 45280, Note_off_c, 0, 48, 62
1, 45290, Control_c, 0, 64, 77
1, 45305, Control_c, 0, 64, 83
1, 45320, Control_c, 0, 64, 88
1, 45335, Control_c, 0, 64, 92
1, 45350, Control_c, 0, 64, 97
1, 45364, Control_c, 0, 64, 99
1, 45379, Control_c, 0, 64, 100
1, 45394, Control_c, 0, 64, 102
1, 45409, Control_c, 0, 64, 106
1, 45424, Control_c, 0, 64, 111
1, 45429, Note_on_c, 0, 55, 51
1, 45431, Note_on_c, 0, 64, 52
1, 45439, Control_c, 0, 64, 116
1, 45454, Control_c, 0, 64, 118
1, 45602, Control_c, 0, 64, 117
1, 45604, Note_off_c, 0, 55, 55
1, 45616, Control_c, 0, 64, 115
1, 45618, Note_on_c, 0, 60, 44
1, 45631, Control_c, 0, 64, 113
1, 45637, Note_off_c, 0, 64, 38
1, 45646, Control_c, 0, 64, 113
1, 45676, Control_c, 0, 64, 112
1, 45690, Control_c, 0, 64, 110
1, 45701, Note_on_c, 0, 70, 52
1, 45701, Note_off_c, 0, 72, 55
1, 45705, Control_c, 0, 64, 108
1, 45720, Control_c, 0, 64, 106
1, 45734, Control_c, 0, 64, 105
1, 45749, Control_c, 0, 64, 104
1, 45779, Control_c, 0, 64, 104
1, 45794, Control_c, 0, 64, 103
1, 45809, Control_c, 0, 64, 101
1, 45823, Control_c, 0, 64, 99
1, 45838, Control_c, 0, 64, 95
1, 45853, Control_c, 0, 64, 90
1, 45868, Note_on_c, 0, 53, 42
1, 45868, Control_c, 0, 64, 81
1, 45883, Control_c, 0, 64, 72
1, 45885, Note_on_c, 0, 68, 47
1, 45891, Note_off_c, 0, 70, 52
1, 45898, Control_c, 0, 64, 65
1, 45913, Control_c, 0, 64, 62
1, 45913, Note_off_c, 0, 60, 43
1, 45927, Control_c, 0, 64, 61
1, 45942, Control_c, 0, 64, 61
1, 45958, Control_c, 0, 64, 62
1, 45973, Control_c, 0, 64, 63
1, 45987, Control_c, 0, 64, 64
1, 46010, Control_c, 0, 64, 66
1, 46025, Control_c, 0, 64, 68
1, 46039, Control_c, 0, 64, 72
1, 46054, Control_c, 0, 64, 77
1, 46069, Control_c, 0, 64, 83
1, 46075, Note_on_c, 0, 60, 30
1, 46084, Note_on_c, 0, 65, 34
1, 46084, Control_c, 0, 64, 91
1, 46099, Control_c, 0, 64, 103
1, 46113, Control_c, 0, 64, 127
1, 46145, Note_off_c, 0, 68, 61
1, 46196, Note_off_c, 0, 65, 32
1, 46220, Note_off_c, 0, 53, 41
1, 46274, Note_on_c, 0, 56, 39
1, 46300, Note_off_c, 0, 60, 42
1, 46454, Control_c, 0, 64, 91
1, 46463, Note_on_c, 0, 49, 43
1, 46469, Control_c, 0, 64, 73
1, 46473, Note_on_c, 0, 68, 38
1, 46484, Control_c, 0, 64, 65
1, 46502, Note_off_c, 0, 56, 35
1, 46513, Control_c, 0, 64, 66
1, 46519, Note_off_c, 0, 68, 43
1, 46528, Control_c, 0, 64, 70
1, 46543, Control_c, 0, 64, 76
1, 46557, Control_c, 0, 64, 88
1, 46563, Note_off_c, 0, 49, 62
1, 46566, Note_on_c, 0, 70, 41
1, 46572, Control_c, 0, 64, 105
1, 46587, Control_c, 0, 64, 127
1, 46594, Note_off_c, 0, 70, 57
1, 46625, Note_on_c, 0, 72, 52
1, 46659, Note_off_c, 0, 72, 66
1, 46674, Note_on_c, 0, 70, 64
1, 46694, Note_on_c, 0, 58, 46
1, 46707, Note_off_c, 0, 70, 65
1, 46740, Note_on_c, 0, 72, 61
1, 46789, Note_off_c, 0, 72, 61
1, 46797, Note_on_c, 0, 70, 69
1, 46837, Note_off_c, 0, 58, 62
1, 46854, Note_off_c, 0, 70, 63
1, 46865, Note_on_c, 0, 68, 62
1, 46879, Note_on_c, 0, 55, 44
1, 46929, Note_off_c, 0, 68, 53
1, 46935, Note_on_c, 0, 70, 61
1, 46967, Control_c, 0, 64, 93
1, 46981, Control_c, 0, 64, 73
1, 46996, Control_c, 0, 64, 63
1, 47004, Note_off_c, 0, 70, 58
1, 47011, Control_c, 0, 64, 59
1, 47014, Note_on_c, 0, 72, 64
1, 47025, Note_on_c, 0, 48, 48
1, 47026, Control_c, 0, 64, 60
1, 47041, Control_c, 0, 64, 62
1, 47055, Control_c, 0, 64, 65
1, 47068, Note_off_c, 0, 55, 38
1, 47070, Control_c, 0, 64, 69
1, 47085, Control_c, 0, 64, 77
1, 47089, Note_off_c, 0, 48, 62
1, 47096, Note_off_c, 0, 72, 64
1, 47100, Note_on_c, 0, 73, 77
1, 47100, Control_c, 0, 64, 88
1, 47115, Control_c, 0, 64, 108
1, 47129, Control_c, 0, 64, 127
1, 47188, Note_on_c, 0, 72, 67
1, 47204, Control_c, 0, 64, 102
1, 47213, Note_on_c, 0, 64, 51
1, 47219, Control_c, 0, 64, 77
1, 47221, Note_on_c, 0, 58, 48
1, 47233, Control_c, 0, 64, 64
1, 47236, Note_off_c, 0, 73, 54
1, 47248, Control_c, 0, 64, 61
1, 47255, Note_off_c, 0, 72, 61
1, 47260, Note_on_c, 0, 71, 73
1, 47263, Control_c, 0, 64, 63
1, 47278, Control_c, 0, 64, 64
1, 47293, Control_c, 0, 64, 67
1, 47308, Control_c, 0, 64, 73
1, 47319, Note_off_c, 0, 71, 63
1, 47323, Control_c, 0, 64, 83
1, 47334, Note_on_c, 0, 72, 76
1, 47337, Control_c, 0, 64, 99
1, 47346, Note_on_c, 0, 60, 53
1, 47350, Note_off_c, 0, 64, 37
1, 47352, Control_c, 0, 64, 112
1, 47367, Control_c, 0, 64, 116
1, 47369, Note_off_c, 0, 72, 61
1, 47424, Note_on_c, 0, 72, 72
1, 47441, Control_c, 0, 64, 117
1, 47470, Control_c, 0, 64, 114
1, 47485, Control_c, 0, 64, 109
1, 47507, Control_c, 0, 64, 103
1, 47522, Control_c, 0, 64, 92
1, 47537, Control_c, 0, 64, 79
1, 47552, Control_c, 0, 64, 66
1, 47564, Note_on_c, 0, 53, 43
1, 47567, Control_c, 0, 64, 57
1, 47572, Note_off_c, 0, 58, 36
1, 47576, Note_off_c, 0, 72, 59
1, 47578, Note_on_c, 0, 80, 71
1, 47582, Control_c, 0, 64, 53
1, 47617, Note_off_c, 0, 60, 30
1, 47626, Control_c, 0, 64, 54
1, 47641, Control_c, 0, 64, 55
1, 47656, Control_c, 0, 64, 56
1, 47671, Control_c, 0, 64, 59
1, 47685, Control_c, 0, 64, 62
1, 47700, Control_c, 0, 64, 65
1, 47715, Control_c, 0, 64, 71
1, 47730, Control_c, 0, 64, 81
1, 47745, Control_c, 0, 64, 101
1, 47756, Note_off_c, 0, 80, 64
1, 47759, Control_c, 0, 64, 127
1, 47833, Control_c, 0, 64, 108
1, 47839, Note_on_c, 0, 56, 42
1, 47845, Note_on_c, 0, 65, 44
1, 47848, Note_on_c, 0, 79, 71
1, 47848, Control_c, 0, 64, 79
1, 47863, Control_c, 0, 64, 65
1, 47877, Control_c, 0, 64, 59
1, 47892, Control_c, 0, 64, 60
1, 47907, Control_c, 0, 64, 62
1, 47922, Control_c, 0, 64, 64
1, 47930, Note_off_c, 0, 65, 51
1, 47937, Control_c, 0, 64, 67
1, 47952, Control_c, 0, 64, 73
1, 47961, Note_off_c, 0, 53, 49
1, 47967, Control_c, 0, 64, 80
1, 47982, Control_c, 0, 64, 89
1, 47997, Control_c, 0, 64, 95
1, 48011, Control_c, 0, 64, 103
1, 48026, Control_c, 0, 64, 114
1, 48026, Note_on_c, 0, 60, 49
1, 48041, Control_c, 0, 64, 127
1, 48058, Note_off_c, 0, 79, 63
1, 48070, Note_off_c, 0, 60, 63
1, 48106, Note_off_c, 0, 56, 63
1, 48118, Note_on_c, 0, 77, 62
1, 48150, Note_off_c, 0, 77, 65
1, 48203, Control_c, 0, 64, 99
1, 48218, Control_c, 0, 64, 76
1, 48219, Note_on_c, 0, 49, 52
1, 48231, Note_on_c, 0, 77, 69
1, 48233, Control_c, 0, 64, 64
1, 48256, Control_c, 0, 64, 61
1, 48271, Control_c, 0, 64, 63
1, 48285, Control_c, 0, 64, 64
1, 48300, Control_c, 0, 64, 68
1, 48315, Control_c, 0, 64, 76
1, 48329, Control_c, 0, 64, 91
1, 48336, Note_off_c, 0, 49, 63
1, 48344, Control_c, 0, 64, 127
1, 48420, Control_c, 0, 64, 104
1, 48434, Control_c, 0, 64, 79
1, 48448, Note_on_c, 0, 75, 67
1, 48449, Control_c, 0, 64, 66
1, 48451, Note_on_c, 0, 56, 46
1, 48454, Note_on_c, 0, 65, 43
1, 48464, Control_c, 0, 64, 64
1, 48479, Control_c, 0, 64, 66
1, 48494, Control_c, 0, 64, 69
1, 48508, Control_c, 0, 64, 75
1, 48523, Control_c, 0, 64, 85
1, 48538, Control_c, 0, 64, 99
1, 48553, Control_c, 0, 64, 110
1, 48554, Note_off_c, 0, 77, 51
1, 48568, Control_c, 0, 64, 112
1, 48582, Control_c, 0, 64, 111
1, 48597, Control_c, 0, 64, 111
1, 48620, Note_off_c, 0, 65, 31
1, 48626, Control_c, 0, 64, 111
1, 48630, Note_on_c, 0, 73, 66
1, 48640, Note_on_c, 0, 58, 53
1, 48670, Note_off_c, 0, 75, 51
1, 48671, Control_c, 0, 64, 110
1, 48686, Control_c, 0, 64, 110
1, 48711, Note_off_c, 0, 73, 63
1, 48730, Control_c, 0, 64, 108
1, 48745, Control_c, 0, 64, 107
1, 48760, Control_c, 0, 64, 104
1, 48775, Control_c, 0, 64, 102
1, 48789, Control_c, 0, 64, 99
1, 48804, Control_c, 0, 64, 96
1, 48819, Control_c, 0, 64, 92
1, 48825, Note_on_c, 0, 73, 56
1, 48834, Control_c, 0, 64, 87
1, 48849, Control_c, 0, 64, 82
1, 48854, Note_off_c, 0, 56, 42
1, 48857, Note_on_c, 0, 51, 47
1, 48864, Control_c, 0, 64, 77
1, 48870, Note_off_c, 0, 58, 46
1, 48879, Control_c, 0, 64, 72
1, 48894, Control_c, 0, 64, 68
1, 48908, Control_c, 0, 64, 62
1, 48922, Note_off_c, 0, 73, 63
1, 48923, Control_c, 0, 64, 58
1, 48927, Note_on_c, 0, 75, 66
1, 48938, Control_c, 0, 64, 54
1, 48952, Control_c, 0, 64, 52
1, 48967, Control_c, 0, 64, 51
1, 48990, Note_on_c, 0, 73, 54
1, 49004, Control_c, 0, 64, 51
1, 49005, Note_off_c, 0, 75, 56
1, 49019, Control_c, 0, 64, 49
1, 49034, Control_c, 0, 64, 47
1, 49049, Control_c, 0, 64, 46
1, 49064, Control_c, 0, 64, 45
1, 49109, Note_off_c, 0, 73, 58
1, 49113, Note_on_c, 0, 63, 34
1, 49114, Note_on_c, 0, 55, 33
1, 49118, Note_on_c, 0, 72, 57
1, 49138, Control_c, 0, 64, 46
1, 49153, Control_c, 0, 64, 47
1, 49168, Control_c, 0, 64, 49
1, 49183, Control_c, 0, 64, 53
1, 49196, Note_off_c, 0, 51, 58
1, 49198, Control_c, 0, 64, 56
1, 49213, Control_c, 0, 64, 59
1, 49228, Control_c, 0, 64, 60
1, 49243, Control_c, 0, 64, 62
1, 49257, Control_c, 0, 64, 63
1, 49272, Control_c, 0, 64, 65
1, 49287, Control_c, 0, 64, 68
1, 49302, Control_c, 0, 64, 71
1, 49317, Control_c, 0, 64, 76
1, 49325, Note_off_c, 0, 72, 64
1, 49331, Control_c, 0, 64, 81
1, 49346, Control_c, 0, 64, 86
1, 49361, Control_c, 0, 64, 91
1, 49371, Note_on_c, 0, 61, 44
1, 49375, Control_c, 0, 64, 96
1, 49382, Note_off_c, 0, 63, 58
1, 49390, Control_c, 0, 64, 98
1, 49401, Note_off_c, 0, 61, 60
1, 49448, Note_off_c, 0, 55, 42
1, 49449, Control_c, 0, 64, 98
1, 49464, Control_c, 0, 64, 99
1, 49480, Note_on_c, 0, 70, 49
1, 49494, Control_c, 0, 64, 99
1, 49509, Control_c, 0, 64, 100
1, 49538, Control_c, 0, 64, 97
1, 49553, Control_c, 0, 64, 87
1, 49568, Control_c, 0, 64, 73
1, 49582, Control_c, 0, 64, 64
1, 49587, Note_on_c, 0, 68, 51
1, 49593, Note_on_c, 0, 44, 47
1, 49597, Control_c, 0, 64, 60
1, 49612, Control_c, 0, 64, 61
1, 49627, Control_c, 0, 64, 62
1, 49642, Control_c, 0, 64, 64
1, 49657, Control_c, 0, 64, 68
1, 49669, Note_off_c, 0, 44, 64
1, 49672, Control_c, 0, 64, 73
1, 49683, Note_off_c, 0, 70, 31
1, 49687, Control_c, 0, 64, 79
1, 49702, Control_c, 0, 64, 85
1, 49717, Control_c, 0, 64, 89
1, 49731, Control_c, 0, 64, 92
1, 49753, Control_c, 0, 64, 95
1, 49768, Control_c, 0, 64, 99
1, 49782, Control_c, 0, 64, 104
1, 49788, Note_on_c, 0, 60, 46
1, 49797, Control_c, 0, 64, 113
1, 49802, Note_on_c, 0, 56, 33
1, 49812, Control_c, 0, 64, 127
1, 49855, Note_off_c, 0, 60, 48
1, 49964, Note_off_c, 0, 56, 41
1, 49966, Note_on_c, 0, 51, 48
1, 50048, Note_off_c, 0, 51, 58
1, 50125, Control_c, 0, 64, 86
1, 50137, Note_on_c, 0, 44, 42
1, 50140, Control_c, 0, 64, 70
1, 50143, Note_on_c, 0, 65, 52
1, 50154, Control_c, 0, 64, 62
1, 50169, Control_c, 0, 64, 61
1, 50184, Control_c, 0, 64, 63
1, 50198, Control_c, 0, 64, 65
1, 50208, Note_off_c, 0, 44, 61
1, 50213, Control_c, 0, 64, 69
1, 50228, Control_c, 0, 64, 76
1, 50243, Control_c, 0, 64, 84
1, 50258, Control_c, 0, 64, 92
1, 50260, Note_off_c, 0, 68, 35
1, 50272, Control_c, 0, 64, 98
1, 50287, Control_c, 0, 64, 100
1, 50302, Control_c, 0, 64, 101
1, 50317, Control_c, 0, 64, 102
1, 50322, Note_on_c, 0, 59, 41
1, 50331, Control_c, 0, 64, 107
1, 50341, Note_on_c, 0, 56, 26
1, 50346, Control_c, 0, 64, 117
1, 50361, Control_c, 0, 64, 127
1, 50378, Note_off_c, 0, 59, 54
1, 50481, Note_on_c, 0, 50, 39
1, 50486, Note_off_c, 0, 56, 42
1, 50534, Note_off_c, 0, 50, 60
1, 50621, Control_c, 0, 64, 111
1, 50636, Control_c, 0, 64, 94
1, 50651, Control_c, 0, 64, 78
1, 50666, Control_c, 0, 64, 68
1, 50678, Note_on_c, 0, 44, 38
1, 50680, Control_c, 0, 64, 63
1, 50692, Note_on_c, 0, 68, 47
1, 50695, Control_c, 0, 64, 62
1, 50710, Control_c, 0, 64, 63
1, 50723, Note_off_c, 0, 65, 36
1, 50724, Control_c, 0, 64, 64
1, 50739, Control_c, 0, 64, 66
1, 50756, Control_c, 0, 64, 69
1, 50767, Note_off_c, 0, 44, 63
1, 50771, Control_c, 0, 64, 73
1, 50785, Control_c, 0, 64, 78
1, 50800, Control_c, 0, 64, 82
1, 50815, Control_c, 0, 64, 85
1, 50829, Control_c, 0, 64, 89
1, 50844, Control_c, 0, 64, 92
1, 50859, Control_c, 0, 64, 98
1, 50874, Control_c, 0, 64, 108
1, 50876, Note_on_c, 0, 60, 42
1, 50882, Note_on_c, 0, 56, 38
1, 50889, Control_c, 0, 64, 127
1, 50983, Note_off_c, 0, 60, 35
1, 51048, Note_on_c, 0, 51, 54
1, 51057, Note_off_c, 0, 56, 50
1, 51252, Control_c, 0, 64, 96
1, 51267, Control_c, 0, 64, 76
1, 51282, Control_c, 0, 64, 64
1, 51288, Note_on_c, 0, 67, 64
1, 51295, Note_on_c, 0, 48, 44
1, 51296, Note_off_c, 0, 68, 56
1, 51296, Control_c, 0, 64, 59
1, 51313, Note_off_c, 0, 51, 36
1, 51326, Control_c, 0, 64, 59
1, 51341, Control_c, 0, 64, 61
1, 51354, Control_c, 0, 64, 62
1, 51369, Control_c, 0, 64, 64
1, 51384, Control_c, 0, 64, 67
1, 51399, Control_c, 0, 64, 70
1, 51414, Control_c, 0, 64, 76
1, 51428, Control_c, 0, 64, 86
1, 51443, Control_c, 0, 64, 98
1, 51458, Control_c, 0, 64, 121
1, 51462, Note_off_c, 0, 48, 35
1, 51473, Control_c, 0, 64, 127
1, 51490, Note_on_c, 0, 63, 57
1, 51622, Note_off_c, 0, 63, 53
1, 51674, Note_on_c, 0, 56, 53
1, 51717, Note_on_c, 0, 68, 60
1, 51753, Note_off_c, 0, 67, 39
1, 51785, Control_c, 0, 64, 109
1, 51800, Control_c, 0, 64, 99
1, 51815, Control_c, 0, 64, 92
1, 51830, Control_c, 0, 64, 87
1, 51844, Control_c, 0, 64, 84
1, 51859, Control_c, 0, 64, 80
1, 51874, Control_c, 0, 64, 77
1, 51889, Control_c, 0, 64, 72
1, 51904, Control_c, 0, 64, 68
1, 51908, Note_on_c, 0, 55, 49
1, 51919, Control_c, 0, 64, 64
1, 51922, Note_on_c, 0, 70, 59
1, 51922, Note_off_c, 0, 56, 57
1, 51933, Control_c, 0, 64, 60
1, 51948, Control_c, 0, 64, 56
1, 51953, Note_off_c, 0, 68, 56
1, 51963, Control_c, 0, 64, 51
1, 51977, Control_c, 0, 64, 42
1, 52000, Control_c, 0, 64, 15
1, 52015, Control_c, 0, 64, 0
1, 52118, Note_on_c, 0, 63, 40
1, 52177, Control_c, 0, 64, 33
1, 52192, Control_c, 0, 64, 51
1, 52207, Control_c, 0, 64, 59
1, 52222, Control_c, 0, 64, 63
1, 52237, Control_c, 0, 64, 67
1, 52251, Control_c, 0, 64, 73
1, 52266, Control_c, 0, 64, 86
1, 52281, Control_c, 0, 64, 105
1, 52296, Control_c, 0, 64, 127
1, 52298, Note_on_c, 0, 58, 61
1, 52390, Poly_aftertouch_c, 0, 56, 127
1, 52443, Note_off_c, 0, 63, 36
1, 52463, Note_on_c, 0, 72, 70
1, 52474, Note_on_c, 0, 54, 59
1, 52489, Control_c, 0, 64, 85
1, 52504, Control_c, 0, 64, 67
1, 52519, Control_c, 0, 64, 56
1, 52534, Control_c, 0, 64, 52
1, 52542, Note_off_c, 0, 70, 58
1, 52548, Control_c, 0, 64, 54
1, 52563, Control_c, 0, 64, 57
1, 52578, Control_c, 0, 64, 60
1, 52593, Control_c, 0, 64, 64
1, 52602, Poly_aftertouch_c, 0, 56, 0
1, 52608, Control_c, 0, 64, 66
1, 52620, Note_off_c, 0, 58, 36
1, 52623, Control_c, 0, 64, 70
1, 52638, Control_c, 0, 64, 79
1, 52641, Note_on_c, 0, 63, 55
1, 52653, Control_c, 0, 64, 94
1, 52667, Control_c, 0, 64, 127
1, 52678, Note_off_c, 0, 55, 36
1, 52757, Note_off_c, 0, 72, 64
1, 52805, Note_on_c, 0, 58, 70
1, 52854, Note_off_c, 0, 63, 55
1, 52970, Control_c, 0, 64, 99
1, 52975, Note_on_c, 0, 53, 66
1, 52984, Note_on_c, 0, 72, 80
1, 52985, Control_c, 0, 64, 74
1, 52999, Control_c, 0, 64, 62
1, 53014, Control_c, 0, 64, 52
1, 53022, Note_off_c, 0, 54, 61
1, 53044, Control_c, 0, 64, 52
1, 53059, Control_c, 0, 64, 54
1, 53061, Note_off_c, 0, 58, 60
1, 53073, Control_c, 0, 64, 57
1, 53088, Control_c, 0, 64, 60
1, 53103, Control_c, 0, 64, 63
1, 53118, Control_c, 0, 64, 66
1, 53133, Control_c, 0, 64, 71
1, 53149, Control_c, 0, 64, 81
1, 53157, Note_on_c, 0, 63, 56
1, 53164, Control_c, 0, 64, 106
1, 53178, Control_c, 0, 64, 127
1, 53223, Note_off_c, 0, 63, 60
1, 53303, Note_on_c, 0, 57, 69
1, 53347, Note_off_c, 0, 57, 62
1, 53355, Note_off_c, 0, 53, 61
1, 53398, Note_off_c, 0, 72, 58
1, 53494, Note_on_c, 0, 46, 55
1, 53496, Control_c, 0, 64, 84
1, 53511, Control_c, 0, 64, 66
1, 53526, Control_c, 0, 64, 52
1, 53528, Note_on_c, 0, 73, 77
1, 53541, Control_c, 0, 64, 48
1, 53556, Control_c, 0, 64, 48
1, 53571, Control_c, 0, 64, 53
1, 53586, Control_c, 0, 64, 59
1, 53600, Control_c, 0, 64, 64
1, 53615, Control_c, 0, 64, 69
1, 53629, Control_c, 0, 64, 75
1, 53643, Note_off_c, 0, 46, 63
1, 53644, Control_c, 0, 64, 83
1, 53659, Control_c, 0, 64, 94
1, 53674, Control_c, 0, 64, 116
1, 53689, Control_c, 0, 64, 127
1, 53702, Note_on_c, 0, 61, 58
1, 53798, Note_off_c, 0, 73, 64
1, 53857, Note_on_c, 0, 53, 63
1, 53869, Note_off_c, 0, 61, 53
1, 54015, Control_c, 0, 64, 109
1, 54030, Control_c, 0, 64, 78
1, 54045, Control_c, 0, 64, 65
1, 54060, Control_c, 0, 64, 59
1, 54075, Note_on_c, 0, 51, 55
1, 54075, Control_c, 0, 64, 58
1, 54090, Control_c, 0, 64, 58
1, 54098, Note_off_c, 0, 53, 60
1, 54103, Note_on_c, 0, 73, 64
1, 54104, Control_c, 0, 64, 60
1, 54119, Control_c, 0, 64, 62
1, 54134, Control_c, 0, 64, 64
1, 54149, Control_c, 0, 64, 67
1, 54164, Control_c, 0, 64, 71
1, 54179, Control_c, 0, 64, 77
1, 54193, Control_c, 0, 64, 87
1, 54208, Control_c, 0, 64, 103
1, 54223, Control_c, 0, 64, 127
1, 54256, Note_off_c, 0, 51, 63
1, 54299, Note_off_c, 0, 73, 65
1, 54307, Note_on_c, 0, 66, 63
1, 54377, Note_on_c, 0, 73, 81
1, 54476, Note_on_c, 0, 75, 79
1, 54485, Note_off_c, 0, 73, 62
1, 54489, Note_on_c, 0, 58, 64
1, 54513, Control_c, 0, 64, 118
1, 54527, Control_c, 0, 64, 112
1, 54542, Control_c, 0, 64, 106
1, 54548, Note_off_c, 0, 66, 37
1, 54557, Control_c, 0, 64, 99
1, 54571, Control_c, 0, 64, 93
1, 54575, Note_on_c, 0, 73, 80
1, 54586, Control_c, 0, 64, 88
1, 54601, Control_c, 0, 64, 84
1, 54616, Control_c, 0, 64, 80
1, 54631, Control_c, 0, 64, 78
1, 54645, Control_c, 0, 64, 75
1, 54660, Control_c, 0, 64, 71
1, 54675, Control_c, 0, 64, 67
1, 54677, Note_off_c, 0, 75, 50
1, 54690, Control_c, 0, 64, 64
1, 54705, Control_c, 0, 64, 62
1, 54713, Note_on_c, 0, 54, 52
1, 54719, Control_c, 0, 64, 60
1, 54726, Note_on_c, 0, 72, 78
1, 54734, Control_c, 0, 64, 58
1, 54750, Control_c, 0, 64, 56
1, 54765, Control_c, 0, 64, 55
1, 54780, Control_c, 0, 64, 53
1, 54795, Control_c, 0, 64, 51
1, 54810, Control_c, 0, 64, 49
1, 54818, Note_off_c, 0, 73, 41
1, 54820, Note_off_c, 0, 58, 59
1, 54824, Control_c, 0, 64, 47
1, 54839, Control_c, 0, 64, 45
1, 54854, Control_c, 0, 64, 44
1, 54868, Control_c, 0, 64, 43
1, 54898, Control_c, 0, 64, 42
1, 54913, Control_c, 0, 64, 41
1, 54922, Note_on_c, 0, 63, 47
1, 54928, Control_c, 0, 64, 40
1, 55009, Control_c, 0, 64, 39
1, 55024, Control_c, 0, 64, 39
1, 55039, Control_c, 0, 64, 38
1, 55054, Control_c, 0, 64, 36
1, 55068, Control_c, 0, 64, 35
1, 55098, Control_c, 0, 64, 35
1, 55106, Note_on_c, 0, 58, 54
1, 55113, Control_c, 0, 64, 34
1, 55128, Control_c, 0, 64, 32
1, 55130, Note_off_c, 0, 63, 51
1, 55139, Note_on_c, 0, 70, 58
1, 55142, Control_c, 0, 64, 32
1, 55157, Control_c, 0, 64, 31
1, 55166, Note_off_c, 0, 72, 60
1, 55187, Control_c, 0, 64, 31
1, 55276, Control_c, 0, 64, 31
1, 55291, Control_c, 0, 64, 33
1, 55306, Control_c, 0, 64, 37
1, 55321, Control_c, 0, 64, 40
1, 55321, Note_on_c, 0, 69, 63
1, 55336, Control_c, 0, 64, 44
1, 55341, Note_on_c, 0, 53, 48
1, 55350, Control_c, 0, 64, 47
1, 55353, Note_off_c, 0, 58, 59
1, 55357, Note_off_c, 0, 70, 55
1, 55365, Control_c, 0, 64, 49
1, 55380, Control_c, 0, 64, 51
1, 55386, Note_off_c, 0, 54, 55
1, 55394, Control_c, 0, 64, 52
1, 55409, Control_c, 0, 64, 54
1, 55424, Control_c, 0, 64, 55
1, 55439, Control_c, 0, 64, 57
1, 55454, Control_c, 0, 64, 58
1, 55468, Control_c, 0, 64, 59
1, 55483, Control_c, 0, 64, 60
1, 55498, Control_c, 0, 64, 62
1, 55513, Control_c, 0, 64, 63
1, 55528, Control_c, 0, 64, 65
1, 55538, Note_on_c, 0, 63, 40
1, 55544, Control_c, 0, 64, 68
1, 55559, Control_c, 0, 64, 74
1, 55573, Control_c, 0, 64, 82
1, 55588, Control_c, 0, 64, 95
1, 55603, Control_c, 0, 64, 127
1, 55636, Note_off_c, 0, 63, 54
1, 55694, Note_on_c, 0, 60, 47
1, 55727, Note_off_c, 0, 60, 65
1, 55772, Note_off_c, 0, 53, 37
1, 55847, Control_c, 0, 64, 95
1, 55853, Note_off_c, 0, 69, 34
1, 55862, Control_c, 0, 64, 73
1, 55875, Note_on_c, 0, 46, 54
1, 55877, Control_c, 0, 64, 62
1, 55889, Note_on_c, 0, 70, 55
1, 55891, Control_c, 0, 64, 58
1, 55906, Control_c, 0, 64, 60
1, 55921, Control_c, 0, 64, 63
1, 55936, Control_c, 0, 64, 66
1, 55951, Control_c, 0, 64, 72
1, 55965, Control_c, 0, 64, 82
1, 55980, Control_c, 0, 64, 95
1, 55995, Control_c, 0, 64, 110
1, 56006, Note_off_c, 0, 46, 63
1, 56010, Control_c, 0, 64, 115
1, 56024, Control_c, 0, 64, 119
1, 56039, Control_c, 0, 64, 127
1, 56065, Note_on_c, 0, 61, 55
1, 56182, Note_off_c, 0, 70, 59
1, 56247, Note_on_c, 0, 58, 72
1, 56277, Note_off_c, 0, 61, 37
1, 56450, Note_on_c, 0, 52, 68
1, 56455, Control_c, 0, 64, 90
1, 56467, Note_on_c, 0, 70, 76
1, 56470, Control_c, 0, 64, 73
1, 56492, Control_c, 0, 64, 63
1, 56507, Control_c, 0, 64, 52
1, 56522, Control_c, 0, 64, 47
1, 56537, Control_c, 0, 64, 46
1, 56552, Control_c, 0, 64, 46
1, 56557, Note_off_c, 0, 58, 64
1, 56567, Control_c, 0, 64, 48
1, 56582, Control_c, 0, 64, 51
1, 56596, Control_c, 0, 64, 53
1, 56611, Control_c, 0, 64, 56
1, 56626, Control_c, 0, 64, 59
1, 56640, Control_c, 0, 64, 63
1, 56655, Control_c, 0, 64, 66
1, 56670, Control_c, 0, 64, 71
1, 56671, Note_on_c, 0, 61, 72
1, 56685, Control_c, 0, 64, 80
1, 56700, Control_c, 0, 64, 93
1, 56714, Control_c, 0, 64, 127
1, 56726, Poly_aftertouch_c, 0, 55, 127
1, 56829, Note_on_c, 0, 56, 78
1, 56897, Note_off_c, 0, 61, 54
1, 56907, Control_c, 0, 64, 115
1, 56921, Control_c, 0, 64, 77
1, 56936, Control_c, 0, 64, 61
1, 56951, Control_c, 0, 64, 45
1, 56966, Control_c, 0, 64, 44
1, 56981, Control_c, 0, 64, 47
1, 56996, Control_c, 0, 64, 53
1, 56999, Note_on_c, 0, 72, 83
1, 57004, Note_on_c, 0, 51, 77
1, 57011, Control_c, 0, 64, 60
1, 57012, Poly_aftertouch_c, 0, 55, 0
1, 57026, Control_c, 0, 64, 64
1, 57040, Control_c, 0, 64, 67
1, 57041, Note_off_c, 0, 52, 65
1, 57055, Control_c, 0, 64, 71
1, 57056, Note_off_c, 0, 70, 59
1, 57070, Control_c, 0, 64, 75
1, 57085, Control_c, 0, 64, 79
1, 57100, Control_c, 0, 64, 85
1, 57115, Control_c, 0, 64, 96
1, 57118, Note_off_c, 0, 56, 60
1, 57129, Control_c, 0, 64, 115
1, 57145, Control_c, 0, 64, 127
1, 57193, Note_on_c, 0, 61, 71
1, 57377, Note_on_c, 0, 70, 77
1, 57380, Note_on_c, 0, 55, 66
1, 57416, Note_off_c, 0, 72, 62
1, 57463, Control_c, 0, 64, 110
1, 57478, Control_c, 0, 64, 101
1, 57493, Control_c, 0, 64, 93
1, 57496, Note_off_c, 0, 61, 37
1, 57504, Note_off_c, 0, 51, 58
1, 57508, Control_c, 0, 64, 88
1, 57523, Control_c, 0, 64, 85
1, 57538, Control_c, 0, 64, 83
1, 57552, Control_c, 0, 64, 82
1, 57567, Control_c, 0, 64, 80
1, 57582, Control_c, 0, 64, 76
1, 57596, Control_c, 0, 64, 73
1, 57599, Note_on_c, 0, 49, 60
1, 57611, Control_c, 0, 64, 69
1, 57626, Control_c, 0, 64, 66
1, 57641, Control_c, 0, 64, 63
1, 57656, Control_c, 0, 64, 59
1, 57670, Control_c, 0, 64, 54
1, 57685, Control_c, 0, 64, 50
1, 57700, Control_c, 0, 64, 47
1, 57715, Control_c, 0, 64, 44
1, 57730, Control_c, 0, 64, 44
1, 57732, Note_on_c, 0, 77, 76
1, 57766, Note_off_c, 0, 55, 60
1, 57804, Control_c, 0, 64, 44
1, 57817, Note_off_c, 0, 70, 55
1, 57819, Control_c, 0, 64, 46
1, 57834, Control_c, 0, 64, 49
1, 57848, Control_c, 0, 64, 52
1, 57863, Control_c, 0, 64, 56
1, 57878, Control_c, 0, 64, 59
1, 57893, Control_c, 0, 64, 61
1, 57908, Control_c, 0, 64, 63
1, 57923, Control_c, 0, 64, 65
1, 57938, Control_c, 0, 64, 68
1, 57953, Control_c, 0, 64, 73
1, 57968, Control_c, 0, 64, 80
1, 57990, Control_c, 0, 64, 87
1, 58000, Note_on_c, 0, 63, 53
1, 58005, Control_c, 0, 64, 96
1, 58020, Control_c, 0, 64, 106
1, 58035, Control_c, 0, 64, 127
1, 58140, Note_off_c, 0, 63, 33
1, 58164, Note_on_c, 0, 55, 52
1, 58224, Poly_aftertouch_c, 0, 51, 127
1, 58227, Note_off_c, 0, 49, 33
1, 58316, Control_c, 0, 64, 94
1, 58331, Control_c, 0, 64, 75
1, 58346, Control_c, 0, 64, 64
1, 58356, Note_off_c, 0, 55, 46
1, 58360, Note_on_c, 0, 75, 63
1, 58360, Control_c, 0, 64, 57
1, 58361, Note_on_c, 0, 48, 44
1, 58372, Poly_aftertouch_c, 0, 51, 0
1, 58375, Control_c, 0, 64, 56
1, 58390, Control_c, 0, 64, 57
1, 58405, Control_c, 0, 64, 59
1, 58419, Control_c, 0, 64, 62
1, 58434, Control_c, 0, 64, 64
1, 58448, Note_off_c, 0, 77, 55
1, 58449, Control_c, 0, 64, 66
1, 58464, Control_c, 0, 64, 70
1, 58479, Control_c, 0, 64, 75
1, 58493, Control_c, 0, 64, 81
1, 58508, Control_c, 0, 64, 92
1, 58523, Control_c, 0, 64, 103
1, 58538, Control_c, 0, 64, 127
1, 58548, Note_on_c, 0, 63, 56
1, 58626, Note_off_c, 0, 63, 45
1, 58666, Poly_aftertouch_c, 0, 51, 127
1, 58725, Note_off_c, 0, 48, 36
1, 58736, Note_on_c, 0, 56, 45
1, 58749, Poly_aftertouch_c, 0, 51, 0
1, 58829, Note_off_c, 0, 56, 43
1, 58842, Control_c, 0, 64, 103
1, 58857, Control_c, 0, 64, 81
1, 58872, Control_c, 0, 64, 69
1, 58887, Control_c, 0, 64, 63
1, 58902, Control_c, 0, 64, 62
1, 58922, Note_on_c, 0, 46, 48
1, 58931, Control_c, 0, 64, 63
1, 58939, Note_on_c, 0, 73, 56
1, 58946, Control_c, 0, 64, 64
1, 58961, Control_c, 0, 64, 64
1, 58976, Control_c, 0, 64, 66
1, 58990, Control_c, 0, 64, 68
1, 59003, Note_off_c, 0, 46, 63
1, 59005, Control_c, 0, 64, 70
1, 59020, Control_c, 0, 64, 72
1, 59035, Control_c, 0, 64, 77
1, 59050, Control_c, 0, 64, 82
1, 59053, Note_off_c, 0, 75, 36
1, 59065, Control_c, 0, 64, 88
1, 59080, Control_c, 0, 64, 94
1, 59094, Control_c, 0, 64, 100
1, 59109, Control_c, 0, 64, 110
1, 59124, Control_c, 0, 64, 127
1, 59124, Note_on_c, 0, 63, 51
1, 59197, Note_off_c, 0, 63, 49
1, 59308, Note_on_c, 0, 55, 33
1, 59343, Note_off_c, 0, 55, 51
1, 59404, Note_off_c, 0, 73, 39
1, 59413, Note_on_c, 0, 72, 51
1, 59455, Note_off_c, 0, 72, 64
1, 59464, Control_c, 0, 64, 101
1, 59479, Control_c, 0, 64, 77
1, 59502, Control_c, 0, 64, 65
1, 59516, Control_c, 0, 64, 60
1, 59531, Control_c, 0, 64, 62
1, 59534, Note_on_c, 0, 44, 46
1, 59547, Control_c, 0, 64, 65
1, 59562, Note_on_c, 0, 72, 49
1, 59562, Control_c, 0, 64, 68
1, 59577, Control_c, 0, 64, 75
1, 59592, Control_c, 0, 64, 85
1, 59601, Note_off_c, 0, 72, 63
1, 59607, Control_c, 0, 64, 95
1, 59621, Control_c, 0, 64, 104
1, 59636, Control_c, 0, 64, 107
1, 59651, Control_c, 0, 64, 110
1, 59665, Control_c, 0, 64, 121
1, 59668, Note_off_c, 0, 44, 62
1, 59680, Control_c, 0, 64, 127
1, 59701, Note_on_c, 0, 72, 49
1, 59744, Note_off_c, 0, 72, 64
1, 59777, Note_on_c, 0, 73, 53
1, 59839, Note_on_c, 0, 72, 49
1, 59839, Note_off_c, 0, 73, 52
1, 59867, Note_off_c, 0, 72, 61
1, 59877, Note_on_c, 0, 63, 39
1, 59893, Note_on_c, 0, 71, 56
1, 59924, Note_off_c, 0, 71, 65
1, 59960, Note_on_c, 0, 72, 66
1, 60002, Note_off_c, 0, 72, 55
1, 60049, Note_on_c, 0, 82, 56
1, 60090, Note_off_c, 0, 63, 38
1, 60140, Note_on_c, 0, 80, 55
1, 60246, Note_off_c, 0, 82, 37
1, 60257, Note_on_c, 0, 56, 29
1, 60257, Note_off_c, 0, 80, 55
1, 60257, Note_on_c, 0, 84, 56
1, 60379, Note_on_c, 0, 80, 57
1, 60383, Note_off_c, 0, 84, 48
1, 60408, Note_off_c, 0, 56, 56
1, 60475, Note_off_c, 0, 80, 56
1, 60477, Note_on_c, 0, 75, 58
1, 60553, Note_off_c, 0, 75, 57
1, 60588, Note_on_c, 0, 72, 50
1, 60710, Control_c, 0, 64, 117
1, 60719, Note_off_c, 0, 72, 37
1, 60725, Control_c, 0, 64, 83
1, 60740, Note_on_c, 0, 39, 41
1, 60740, Control_c, 0, 64, 65
1, 60743, Note_on_c, 0, 69, 62
1, 60755, Control_c, 0, 64, 56
1, 60785, Control_c, 0, 64, 59
1, 60800, Control_c, 0, 64, 63
1, 60814, Control_c, 0, 64, 69
1, 60829, Control_c, 0, 64, 81
1, 60844, Control_c, 0, 64, 104
1, 60852, Note_off_c, 0, 39, 57
1, 60859, Control_c, 0, 64, 127
1, 61105, Note_on_c, 0, 63, 43
1, 61318, Note_off_c, 0, 63, 25
1, 61319, Note_on_c, 0, 54, 37
1, 61356, Control_c, 0, 64, 123
1, 61371, Control_c, 0, 64, 110
1, 61385, Control_c, 0, 64, 103
1, 61400, Control_c, 0, 64, 99
1, 61415, Control_c, 0, 64, 96
1, 61429, Control_c, 0, 64, 94
1, 61444, Control_c, 0, 64, 92
1, 61459, Control_c, 0, 64, 90
1, 61474, Control_c, 0, 64, 86
1, 61489, Control_c, 0, 64, 83
1, 61503, Control_c, 0, 64, 80
1, 61518, Control_c, 0, 64, 77
1, 61533, Control_c, 0, 64, 73
1, 61548, Control_c, 0, 64, 68
1, 61563, Control_c, 0, 64, 63
1, 61570, Note_off_c, 0, 69, 45
1, 61578, Control_c, 0, 64, 59
1, 61578, Note_off_c, 0, 54, 44
1, 61582, Note_on_c, 0, 55, 28
1, 61589, Note_on_c, 0, 70, 36
1, 61592, Control_c, 0, 64, 57
1, 61607, Control_c, 0, 64, 55
1, 61622, Control_c, 0, 64, 53
1, 61637, Control_c, 0, 64, 52
1, 61652, Control_c, 0, 64, 51
1, 61682, Control_c, 0, 64, 52
1, 61697, Control_c, 0, 64, 53
1, 61711, Control_c, 0, 64, 54
1, 61733, Control_c, 0, 64, 56
1, 61748, Control_c, 0, 64, 58
1, 61763, Control_c, 0, 64, 60
1, 61778, Control_c, 0, 64, 61
1, 61792, Control_c, 0, 64, 63
1, 61807, Control_c, 0, 64, 64
1, 61822, Control_c, 0, 64, 67
1, 61837, Control_c, 0, 64, 69
1, 61844, Note_on_c, 0, 61, 29
1, 61852, Control_c, 0, 64, 73
1, 61867, Control_c, 0, 64, 78
1, 61882, Control_c, 0, 64, 82
1, 61897, Control_c, 0, 64, 87
1, 61911, Control_c, 0, 64, 91
1, 61926, Control_c, 0, 64, 95
1, 61936, Note_off_c, 0, 70, 56
1, 61941, Control_c, 0, 64, 99
1, 61956, Note_off_c, 0, 55, 42
1, 61956, Control_c, 0, 64, 103
1, 61971, Control_c, 0, 64, 106
1, 61986, Control_c, 0, 64, 107
1, 62016, Control_c, 0, 64, 108
1, 62031, Control_c, 0, 64, 109
1, 62046, Control_c, 0, 64, 110
1, 62060, Control_c, 0, 64, 111
1, 62095, Note_off_c, 0, 61, 36
1, 62104, Note_on_c, 0, 51, 41
1, 62208, Control_c, 0, 64, 110
1, 62250, Note_on_c, 0, 71, 43
1, 62252, Control_c, 0, 64, 110
1, 62267, Control_c, 0, 64, 109
1, 62281, Note_off_c, 0, 51, 44
1, 62282, Control_c, 0, 64, 108
1, 62312, Control_c, 0, 64, 108
1, 62326, Control_c, 0, 64, 107
1, 62386, Control_c, 0, 64, 108
1, 62400, Control_c, 0, 64, 108
1, 62415, Control_c, 0, 64, 109
1, 62445, Control_c, 0, 64, 108
1, 62460, Control_c, 0, 64, 102
1, 62482, Control_c, 0, 64, 90
1, 62493, Note_on_c, 0, 72, 48
1, 62494, Note_on_c, 0, 44, 37
1, 62497, Control_c, 0, 64, 76
1, 62504, Note_off_c, 0, 71, 38
1, 62512, Control_c, 0, 64, 66
1, 62527, Control_c, 0, 64, 62
1, 62541, Control_c, 0, 64, 63
1, 62556, Control_c, 0, 64, 63
1, 62571, Control_c, 0, 64, 65
1, 62585, Control_c, 0, 64, 68
1, 62598, Note_off_c, 0, 44, 60
1, 62600, Control_c, 0, 64, 73
1, 62615, Control_c, 0, 64, 81
1, 62630, Control_c, 0, 64, 90
1, 62645, Control_c, 0, 64, 102
1, 62660, Control_c, 0, 64, 127
1, 62707, Note_on_c, 0, 60, 46
1, 62718, Note_on_c, 0, 56, 34
1, 62761, Note_off_c, 0, 60, 56
1, 62883, Note_on_c, 0, 51, 52
1, 62908, Note_off_c, 0, 56, 41
1, 62964, Note_off_c, 0, 51, 55
1, 63031, Control_c, 0, 64, 95
1, 63037, Note_on_c, 0, 71, 61
1, 63046, Control_c, 0, 64, 73
1, 63055, Note_on_c, 0, 44, 51
1, 63061, Control_c, 0, 64, 63
1, 63075, Control_c, 0, 64, 61
1, 63090, Control_c, 0, 64, 62
1, 63105, Control_c, 0, 64, 65
1, 63106, Note_off_c, 0, 72, 51
1, 63120, Control_c, 0, 64, 68
1, 63128, Note_off_c, 0, 44, 60
1, 63135, Control_c, 0, 64, 75
1, 63150, Control_c, 0, 64, 84
1, 63164, Control_c, 0, 64, 96
1, 63179, Control_c, 0, 64, 102
1, 63194, Control_c, 0, 64, 104
1, 63209, Control_c, 0, 64, 105
1, 63226, Note_on_c, 0, 59, 50
1, 63231, Control_c, 0, 64, 108
1, 63243, Note_on_c, 0, 56, 35
1, 63246, Control_c, 0, 64, 127
1, 63282, Note_off_c, 0, 59, 54
1, 63360, Note_off_c, 0, 56, 26
1, 63375, Note_on_c, 0, 50, 54
1, 63435, Note_off_c, 0, 50, 61
1, 63542, Control_c, 0, 64, 85
1, 63550, Note_on_c, 0, 44, 56
1, 63557, Control_c, 0, 64, 71
1, 63559, Note_on_c, 0, 72, 69
1, 63572, Control_c, 0, 64, 64
1, 63587, Control_c, 0, 64, 62
1, 63590, Note_off_c, 0, 71, 46
1, 63602, Control_c, 0, 64, 62
1, 63617, Control_c, 0, 64, 63
1, 63631, Control_c, 0, 64, 65
1, 63636, Note_off_c, 0, 44, 63
1, 63646, Control_c, 0, 64, 68
1, 63661, Control_c, 0, 64, 72
1, 63676, Control_c, 0, 64, 77
1, 63691, Control_c, 0, 64, 82
1, 63705, Control_c, 0, 64, 88
1, 63720, Control_c, 0, 64, 96
1, 63725, Note_on_c, 0, 60, 52
1, 63730, Note_on_c, 0, 56, 50
1, 63735, Control_c, 0, 64, 104
1, 63750, Control_c, 0, 64, 114
1, 63765, Control_c, 0, 64, 127
1, 63773, Note_off_c, 0, 60, 56
1, 63869, Note_off_c, 0, 56, 60
1, 63897, Note_on_c, 0, 51, 55
1, 64024, Control_c, 0, 64, 95
1, 64038, Control_c, 0, 64, 75
1, 64053, Control_c, 0, 64, 64
1, 64068, Control_c, 0, 64, 59
1, 64076, Note_on_c, 0, 44, 53
1, 64077, Note_on_c, 0, 75, 69
1, 64083, Control_c, 0, 64, 59
1, 64096, Note_off_c, 0, 51, 26
1, 64097, Control_c, 0, 64, 59
1, 64111, Control_c, 0, 64, 61
1, 64121, Note_off_c, 0, 44, 60
1, 64126, Control_c, 0, 64, 63
1, 64141, Control_c, 0, 64, 65
1, 64156, Control_c, 0, 64, 69
1, 64165, Note_off_c, 0, 72, 62
1, 64171, Control_c, 0, 64, 73
1, 64186, Control_c, 0, 64, 80
1, 64201, Control_c, 0, 64, 87
1, 64216, Control_c, 0, 64, 96
1, 64230, Control_c, 0, 64, 106
1, 64245, Control_c, 0, 64, 118
1, 64257, Note_on_c, 0, 61, 55
1, 64260, Control_c, 0, 64, 127
1, 64276, Note_on_c, 0, 55, 28
1, 64307, Note_off_c, 0, 61, 54
1, 64418, Note_off_c, 0, 55, 46
1, 64443, Note_on_c, 0, 51, 50
1, 64557, Control_c, 0, 64, 107
1, 64561, Note_off_c, 0, 51, 38
1, 64572, Control_c, 0, 64, 80
1, 64587, Control_c, 0, 64, 66
1, 64601, Control_c, 0, 64, 58
1, 64616, Control_c, 0, 64, 57
1, 64630, Note_on_c, 0, 44, 46
1, 64631, Control_c, 0, 64, 58
1, 64632, Note_on_c, 0, 72, 54
1, 64645, Control_c, 0, 64, 61
1, 64656, Note_off_c, 0, 75, 57
1, 64660, Control_c, 0, 64, 64
1, 64675, Control_c, 0, 64, 67
1, 64690, Control_c, 0, 64, 71
1, 64693, Note_off_c, 0, 44, 60
1, 64705, Control_c, 0, 64, 75
1, 64727, Control_c, 0, 64, 79
1, 64742, Control_c, 0, 64, 84
1, 64757, Control_c, 0, 64, 91
1, 64772, Control_c, 0, 64, 101
1, 64787, Control_c, 0, 64, 121
1, 64801, Control_c, 0, 64, 127
1, 64834, Note_on_c, 0, 60, 45
1, 64855, Note_on_c, 0, 56, 35
1, 64871, Note_off_c, 0, 72, 63
1, 64985, Note_off_c, 0, 60, 33
1, 65021, Note_on_c, 0, 51, 56
1, 65069, Note_off_c, 0, 56, 41
1, 65187, Control_c, 0, 64, 102
1, 65202, Control_c, 0, 64, 77
1, 65217, Control_c, 0, 64, 63
1, 65232, Note_on_c, 0, 48, 47
1, 65232, Control_c, 0, 64, 58
1, 65247, Control_c, 0, 64, 59
1, 65253, Note_on_c, 0, 72, 64
1, 65262, Control_c, 0, 64, 61
1, 65276, Control_c, 0, 64, 64
1, 65283, Note_off_c, 0, 51, 29
1, 65291, Control_c, 0, 64, 68
1, 65306, Control_c, 0, 64, 75
1, 65321, Control_c, 0, 64, 84
1, 65328, Note_off_c, 0, 48, 63
1, 65336, Control_c, 0, 64, 93
1, 65350, Control_c, 0, 64, 100
1, 65365, Control_c, 0, 64, 108
1, 65380, Control_c, 0, 64, 127
1, 65505, Note_on_c, 0, 55, 47
1, 65512, Note_on_c, 0, 64, 43
1, 65697, Note_off_c, 0, 55, 55
1, 65699, Control_c, 0, 64, 118
1, 65714, Control_c, 0, 64, 111
1, 65720, Note_on_c, 0, 60, 38
1, 65729, Control_c, 0, 64, 107
1, 65740, Note_off_c, 0, 64, 33
1, 65744, Control_c, 0, 64, 103
1, 65758, Control_c, 0, 64, 100
1, 65768, Note_off_c, 0, 72, 52
1, 65773, Note_on_c, 0, 70, 52
1, 65773, Control_c, 0, 64, 96
1, 65788, Control_c, 0, 64, 93
1, 65803, Control_c, 0, 64, 91
1, 65818, Control_c, 0, 64, 90
1, 65832, Control_c, 0, 64, 89
1, 65847, Control_c, 0, 64, 89
1, 65862, Control_c, 0, 64, 87
1, 65876, Control_c, 0, 64, 86
1, 65891, Control_c, 0, 64, 84
1, 65906, Control_c, 0, 64, 81
1, 65922, Control_c, 0, 64, 76
1, 65937, Control_c, 0, 64, 69
1, 65952, Note_on_c, 0, 53, 35
1, 65952, Control_c, 0, 64, 64
1, 65967, Control_c, 0, 64, 62
1, 65980, Note_on_c, 0, 68, 52
1, 65981, Control_c, 0, 64, 61
1, 65986, Note_off_c, 0, 70, 53
1, 65989, Note_off_c, 0, 60, 37
1, 66055, Control_c, 0, 64, 61
1, 66070, Control_c, 0, 64, 62
1, 66085, Control_c, 0, 64, 63
1, 66100, Control_c, 0, 64, 65
1, 66115, Control_c, 0, 64, 67
1, 66129, Control_c, 0, 64, 70
1, 66144, Control_c, 0, 64, 74
1, 66159, Control_c, 0, 64, 79
1, 66174, Control_c, 0, 64, 84
1, 66179, Note_on_c, 0, 65, 40
1, 66189, Control_c, 0, 64, 91
1, 66193, Note_on_c, 0, 60, 37
1, 66204, Control_c, 0, 64, 99
1, 66226, Control_c, 0, 64, 110
1, 66241, Control_c, 0, 64, 127
1, 66243, Note_off_c, 0, 68, 61
1, 66257, Note_off_c, 0, 65, 43
1, 66305, Note_off_c, 0, 53, 40
1, 66387, Note_on_c, 0, 56, 39
1, 66415, Note_off_c, 0, 60, 40
1, 66571, Note_off_c, 0, 56, 35
1, 66604, Note_on_c, 0, 68, 45
1, 66610, Note_on_c, 0, 49, 38
1, 66611, Control_c, 0, 64, 83
1, 66626, Control_c, 0, 64, 69
1, 66641, Control_c, 0, 64, 63
1, 66655, Control_c, 0, 64, 64
1, 66670, Note_off_c, 0, 68, 42
1, 66670, Control_c, 0, 64, 66
1, 66685, Control_c, 0, 64, 70
1, 66699, Control_c, 0, 64, 81
1, 66714, Control_c, 0, 64, 99
1, 66719, Note_off_c, 0, 49, 54
1, 66720, Note_on_c, 0, 70, 45
1, 66730, Control_c, 0, 64, 127
1, 66754, Note_off_c, 0, 70, 62
1, 66791, Note_on_c, 0, 72, 48
1, 66830, Note_off_c, 0, 72, 63
1, 66857, Note_on_c, 0, 70, 52
1, 66872, Note_on_c, 0, 58, 47
1, 66952, Note_off_c, 0, 70, 59
1, 66972, Note_on_c, 0, 72, 57
1, 67011, Note_off_c, 0, 72, 61
1, 67024, Note_on_c, 0, 70, 71
1, 67040, Note_off_c, 0, 58, 63
1, 67074, Note_on_c, 0, 55, 45
1, 67084, Note_off_c, 0, 70, 62
1, 67099, Note_on_c, 0, 68, 65
1, 67168, Note_off_c, 0, 68, 56
1, 67177, Note_on_c, 0, 70, 64
1, 67182, Control_c, 0, 64, 85
1, 67197, Control_c, 0, 64, 69
1, 67211, Control_c, 0, 64, 62
1, 67226, Control_c, 0, 64, 61
1, 67241, Control_c, 0, 64, 63
1, 67253, Note_on_c, 0, 48, 42
1, 67256, Note_off_c, 0, 70, 63
1, 67256, Control_c, 0, 64, 65
1, 67258, Note_on_c, 0, 72, 64
1, 67271, Control_c, 0, 64, 68
1, 67286, Control_c, 0, 64, 72
1, 67301, Control_c, 0, 64, 79
1, 67302, Note_off_c, 0, 55, 41
1, 67312, Note_off_c, 0, 48, 58
1, 67316, Control_c, 0, 64, 88
1, 67330, Control_c, 0, 64, 104
1, 67345, Control_c, 0, 64, 127
1, 67355, Note_off_c, 0, 72, 63
1, 67355, Note_on_c, 0, 73, 74
1, 67419, Control_c, 0, 64, 95
1, 67434, Control_c, 0, 64, 73
1, 67444, Note_on_c, 0, 72, 70
1, 67448, Control_c, 0, 64, 62
1, 67452, Note_on_c, 0, 64, 46
1, 67463, Control_c, 0, 64, 58
1, 67467, Note_on_c, 0, 58, 37
1, 67478, Control_c, 0, 64, 59
1, 67493, Control_c, 0, 64, 61
1, 67508, Control_c, 0, 64, 64
1, 67524, Control_c, 0, 64, 67
1, 67524, Note_off_c, 0, 72, 62
1, 67530, Note_off_c, 0, 73, 34
1, 67532, Note_on_c, 0, 71, 68
1, 67538, Control_c, 0, 64, 73
1, 67553, Control_c, 0, 64, 80
1, 67568, Control_c, 0, 64, 86
1, 67583, Control_c, 0, 64, 90
1, 67590, Note_off_c, 0, 71, 62
1, 67598, Control_c, 0, 64, 94
1, 67602, Note_off_c, 0, 64, 35
1, 67604, Note_on_c, 0, 60, 47
1, 67608, Note_on_c, 0, 72, 72
1, 67613, Control_c, 0, 64, 99
1, 67627, Control_c, 0, 64, 107
1, 67638, Note_off_c, 0, 72, 61
1, 67642, Control_c, 0, 64, 113
1, 67657, Control_c, 0, 64, 114
1, 67706, Note_on_c, 0, 72, 62
1, 67716, Control_c, 0, 64, 112
1, 67739, Control_c, 0, 64, 108
1, 67753, Control_c, 0, 64, 104
1, 67768, Control_c, 0, 64, 100
1, 67783, Control_c, 0, 64, 95
1, 67798, Control_c, 0, 64, 89
1, 67813, Control_c, 0, 64, 80
1, 67827, Control_c, 0, 64, 68
1, 67842, Control_c, 0, 64, 61
1, 67848, Note_on_c, 0, 53, 42
1, 67852, Note_off_c, 0, 58, 23
1, 67856, Note_on_c, 0, 80, 66
1, 67857, Control_c, 0, 64, 55
1, 67864, Note_off_c, 0, 72, 51
1, 67871, Control_c, 0, 64, 53
1, 67885, Note_off_c, 0, 60, 31
1, 67886, Control_c, 0, 64, 52
1, 67901, Control_c, 0, 64, 53
1, 67916, Control_c, 0, 64, 55
1, 67931, Control_c, 0, 64, 58
1, 67945, Control_c, 0, 64, 61
1, 67960, Control_c, 0, 64, 64
1, 67975, Control_c, 0, 64, 67
1, 67990, Control_c, 0, 64, 71
1, 68005, Control_c, 0, 64, 80
1, 68019, Control_c, 0, 64, 91
1, 68034, Control_c, 0, 64, 107
1, 68049, Control_c, 0, 64, 127
1, 68064, Note_off_c, 0, 80, 62
1, 68124, Control_c, 0, 64, 101
1, 68139, Control_c, 0, 64, 77
1, 68142, Note_on_c, 0, 56, 36
1, 68142, Note_on_c, 0, 65, 39
1, 68147, Note_on_c, 0, 79, 59
1, 68153, Control_c, 0, 64, 65
1, 68168, Control_c, 0, 64, 61
1, 68183, Control_c, 0, 64, 63
1, 68198, Control_c, 0, 64, 65
1, 68213, Control_c, 0, 64, 69
1, 68227, Control_c, 0, 64, 77
1, 68242, Control_c, 0, 64, 86
1, 68257, Control_c, 0, 64, 95
1, 68271, Control_c, 0, 64, 99
1, 68286, Control_c, 0, 64, 101
1, 68301, Control_c, 0, 64, 104
1, 68302, Note_off_c, 0, 53, 43
1, 68317, Control_c, 0, 64, 107
1, 68317, Note_off_c, 0, 65, 39
1, 68332, Control_c, 0, 64, 112
1, 68347, Control_c, 0, 64, 116
1, 68352, Note_on_c, 0, 60, 41
1, 68362, Control_c, 0, 64, 121
1, 68376, Control_c, 0, 64, 123
1, 68399, Note_off_c, 0, 60, 60
1, 68450, Control_c, 0, 64, 127
1, 68453, Note_off_c, 0, 79, 58
1, 68464, Note_off_c, 0, 56, 41
1, 68473, Note_on_c, 0, 77, 61
1, 68513, Note_off_c, 0, 77, 61
1, 68590, Control_c, 0, 64, 103
1, 68605, Control_c, 0, 64, 80
1, 68615, Note_on_c, 0, 49, 31
1, 68620, Control_c, 0, 64, 67
1, 68623, Note_on_c, 0, 77, 58
1, 68635, Control_c, 0, 64, 60
1, 68664, Control_c, 0, 64, 63
1, 68679, Control_c, 0, 64, 65
1, 68694, Control_c, 0, 64, 71
1, 68708, Control_c, 0, 64, 80
1, 68723, Control_c, 0, 64, 99
1, 68725, Note_off_c, 0, 49, 60
1, 68738, Control_c, 0, 64, 127
1, 68812, Control_c, 0, 64, 117
1, 68827, Control_c, 0, 64, 83
1, 68842, Control_c, 0, 64, 69
1, 68844, Note_on_c, 0, 65, 43
1, 68848, Note_on_c, 0, 56, 41
1, 68857, Control_c, 0, 64, 67
1, 68864, Note_on_c, 0, 75, 53
1, 68872, Control_c, 0, 64, 71
1, 68887, Control_c, 0, 64, 77
1, 68900, Note_off_c, 0, 65, 0
1, 68901, Control_c, 0, 64, 88
1, 68916, Control_c, 0, 64, 107
1, 68931, Control_c, 0, 64, 127
1, 68937, Poly_aftertouch_c, 0, 65, 127
1, 68973, Note_off_c, 0, 77, 58
1, 68988, Poly_aftertouch_c, 0, 65, 0
1, 69042, Note_on_c, 0, 58, 46
1, 69044, Note_on_c, 0, 73, 56
1, 69055, Note_off_c, 0, 75, 56
1, 69089, Note_off_c, 0, 73, 60
1, 69139, Control_c, 0, 64, 113
1, 69154, Control_c, 0, 64, 99
1, 69169, Control_c, 0, 64, 88
1, 69184, Control_c, 0, 64, 78
1, 69185, Note_off_c, 0, 56, 35
1, 69192, Note_on_c, 0, 73, 45
1, 69198, Control_c, 0, 64, 70
1, 69221, Control_c, 0, 64, 64
1, 69223, Note_off_c, 0, 73, 56
1, 69236, Control_c, 0, 64, 61
1, 69241, Note_on_c, 0, 75, 43
1, 69250, Control_c, 0, 64, 59
1, 69254, Note_off_c, 0, 58, 58
1, 69265, Control_c, 0, 64, 57
1, 69272, Note_on_c, 0, 51, 40
1, 69277, Note_off_c, 0, 75, 57
1, 69280, Control_c, 0, 64, 56
1, 69286, Note_on_c, 0, 73, 56
1, 69295, Control_c, 0, 64, 54
1, 69310, Control_c, 0, 64, 49
1, 69325, Control_c, 0, 64, 43
1, 69340, Control_c, 0, 64, 37
1, 69355, Control_c, 0, 64, 32
1, 69370, Control_c, 0, 64, 31
1, 69385, Control_c, 0, 64, 30
1, 69503, Control_c, 0, 64, 31
1, 69518, Control_c, 0, 64, 32
1, 69532, Control_c, 0, 64, 34
1, 69540, Note_on_c, 0, 55, 33
1, 69543, Note_on_c, 0, 72, 48
1, 69544, Note_off_c, 0, 73, 54
1, 69547, Control_c, 0, 64, 36
1, 69552, Note_on_c, 0, 63, 27
1, 69562, Control_c, 0, 64, 39
1, 69577, Control_c, 0, 64, 42
1, 69591, Control_c, 0, 64, 44
1, 69606, Control_c, 0, 64, 46
1, 69621, Control_c, 0, 64, 48
1, 69636, Control_c, 0, 64, 52
1, 69651, Control_c, 0, 64, 55
1, 69665, Note_off_c, 0, 51, 35
1, 69666, Control_c, 0, 64, 57
1, 69680, Control_c, 0, 64, 59
1, 69695, Control_c, 0, 64, 60
1, 69710, Control_c, 0, 64, 61
1, 69724, Control_c, 0, 64, 62
1, 69739, Control_c, 0, 64, 64
1, 69754, Control_c, 0, 64, 66
1, 69769, Control_c, 0, 64, 68
1, 69784, Control_c, 0, 64, 73
1, 69799, Control_c, 0, 64, 77
1, 69814, Control_c, 0, 64, 80
1, 69829, Control_c, 0, 64, 84
1, 69844, Control_c, 0, 64, 87
1, 69859, Control_c, 0, 64, 89
1, 69866, Note_on_c, 0, 61, 40
1, 69873, Control_c, 0, 64, 89
1, 69909, Note_off_c, 0, 63, 41
1, 69913, Note_off_c, 0, 61, 55
1, 69970, Control_c, 0, 64, 90
1, 69975, Note_off_c, 0, 55, 44
1, 69992, Note_off_c, 0, 72, 43
1, 70000, Control_c, 0, 64, 91
1, 70008, Note_on_c, 0, 70, 42
1, 70015, Control_c, 0, 64, 93
1, 70029, Control_c, 0, 64, 97
1, 70044, Control_c, 0, 64, 104
1, 70059, Control_c, 0, 64, 114
1, 70074, Control_c, 0, 64, 119
1, 70089, Control_c, 0, 64, 117
1, 70103, Control_c, 0, 64, 105
1, 70118, Control_c, 0, 64, 88
1, 70133, Control_c, 0, 64, 73
1, 70148, Control_c, 0, 64, 64
1, 70163, Control_c, 0, 64, 62
1, 70169, Note_on_c, 0, 44, 38
1, 70177, Control_c, 0, 64, 64
1, 70179, Note_on_c, 0, 68, 49
1, 70192, Control_c, 0, 64, 66
1, 70207, Control_c, 0, 64, 69
1, 70222, Control_c, 0, 64, 74
1, 70237, Control_c, 0, 64, 81
1, 70252, Control_c, 0, 64, 85
1, 70256, Note_off_c, 0, 44, 59
1, 70267, Control_c, 0, 64, 87
1, 70282, Control_c, 0, 64, 88
1, 70311, Control_c, 0, 64, 88
1, 70326, Control_c, 0, 64, 89
1, 70340, Control_c, 0, 64, 90
1, 70341, Note_off_c, 0, 70, 19
1, 70355, Control_c, 0, 64, 92
1, 70386, Note_on_c, 0, 60, 38
1, 70395, Note_on_c, 0, 56, 25
1, 70416, Note_off_c, 0, 60, 53
1, 70436, Note_off_c, 0, 56, 46
1, 70479, Note_off_c, 0, 68, 35
1, 70503, Control_c, 0, 64, 92
1, 70533, Control_c, 0, 64, 93
1, 70577, Control_c, 0, 64, 92
1, 70580, Note_on_c, 0, 50, 41
1, 70592, Control_c, 0, 64, 92
1, 70607, Control_c, 0, 64, 91
1, 70637, Control_c, 0, 64, 91
1, 70651, Control_c, 0, 64, 90
1, 70666, Control_c, 0, 64, 89
1, 70681, Control_c, 0, 64, 87
1, 70696, Control_c, 0, 64, 85
1, 70719, Control_c, 0, 64, 80
1, 70734, Control_c, 0, 64, 74
1, 70749, Control_c, 0, 64, 67
1, 70764, Control_c, 0, 64, 61
1, 70778, Control_c, 0, 64, 58
1, 70780, Note_on_c, 0, 53, 47
1, 70808, Control_c, 0, 64, 58
1, 70823, Control_c, 0, 64, 60
1, 70838, Control_c, 0, 64, 61
1, 70852, Control_c, 0, 64, 63
1, 70867, Control_c, 0, 64, 65
1, 70882, Control_c, 0, 64, 68
1, 70897, Control_c, 0, 64, 73
1, 70912, Control_c, 0, 64, 78
1, 70926, Control_c, 0, 64, 83
1, 70941, Control_c, 0, 64, 89
1, 70950, Note_off_c, 0, 50, 34
1, 70956, Control_c, 0, 64, 95
1, 70961, Note_on_c, 0, 56, 41
1, 70961, Note_on_c, 0, 60, 39
1, 70970, Control_c, 0, 64, 101
1, 70985, Control_c, 0, 64, 110
1, 71000, Control_c, 0, 64, 118
1, 71012, Note_off_c, 0, 60, 54
1, 71015, Control_c, 0, 64, 127
1, 71126, Note_off_c, 0, 56, 35
1, 71133, Note_on_c, 0, 51, 60
1, 71154, Note_off_c, 0, 53, 30
1, 71237, Control_c, 0, 64, 111
1, 71252, Control_c, 0, 64, 83
1, 71267, Control_c, 0, 64, 67
1, 71282, Control_c, 0, 64, 62
1, 71296, Control_c, 0, 64, 63
1, 71311, Control_c, 0, 64, 65
1, 71312, Note_on_c, 0, 44, 54
1, 71326, Control_c, 0, 64, 68
1, 71341, Control_c, 0, 64, 74
1, 71356, Control_c, 0, 64, 85
1, 71370, Control_c, 0, 64, 95
1, 71385, Control_c, 0, 64, 102
1, 71400, Control_c, 0, 64, 106
1, 71403, Note_off_c, 0, 44, 62
1, 71413, Note_off_c, 0, 51, 44
1, 71415, Control_c, 0, 64, 109
1, 71430, Control_c, 0, 64, 118
1, 71444, Control_c, 0, 64, 127
1, 71540, Note_on_c, 0, 60, 50
1, 71546, Note_on_c, 0, 56, 47
1, 71701, Note_off_c, 0, 60, 41
1, 71754, Note_on_c, 0, 51, 58
1, 71785, Note_off_c, 0, 56, 55
1, 71830, Note_off_c, 0, 51, 63
1, 72067, Note_on_c, 0, 43, 53
1, 72090, Control_c, 0, 64, 96
1, 72105, Control_c, 0, 64, 70
1, 72110, Note_on_c, 0, 72, 66
1, 72119, Control_c, 0, 64, 59
1, 72134, Control_c, 0, 64, 52
1, 72164, Control_c, 0, 64, 54
1, 72179, Control_c, 0, 64, 56
1, 72193, Control_c, 0, 64, 60
1, 72216, Control_c, 0, 64, 64
1, 72231, Control_c, 0, 64, 68
1, 72246, Control_c, 0, 64, 73
1, 72253, Note_off_c, 0, 43, 63
1, 72261, Control_c, 0, 64, 81
1, 72275, Control_c, 0, 64, 91
1, 72290, Control_c, 0, 64, 113
1, 72305, Control_c, 0, 64, 127
1, 72529, Note_on_c, 0, 58, 42
1, 72547, Note_on_c, 0, 52, 44
1, 72807, Note_off_c, 0, 72, 61
1, 72823, Note_off_c, 0, 58, 31
1, 72920, Note_on_c, 0, 48, 26
1, 72967, Note_off_c, 0, 52, 28
1, 73039, Note_off_c, 0, 48, 36
1, 73183, Note_on_c, 0, 72, 31
1, 73218, Control_c, 0, 64, 82
1, 73229, Note_off_c, 0, 72, 42
1, 73230, Note_on_c, 0, 73, 38
1, 73233, Control_c, 0, 64, 66
1, 73247, Control_c, 0, 64, 56
1, 73261, Note_off_c, 0, 73, 52
1, 73262, Control_c, 0, 64, 55
1, 73277, Control_c, 0, 64, 57
1, 73286, Note_on_c, 0, 72, 26
1, 73291, Note_on_c, 0, 41, 39
1, 73292, Control_c, 0, 64, 61
1, 73307, Control_c, 0, 64, 64
1, 73321, Control_c, 0, 64, 68
1, 73336, Control_c, 0, 64, 74
1, 73344, Note_off_c, 0, 41, 59
1, 73351, Control_c, 0, 64, 82
1, 73365, Control_c, 0, 64, 90
1, 73380, Control_c, 0, 64, 97
1, 73395, Control_c, 0, 64, 107
1, 73410, Control_c, 0, 64, 127
1, 73486, Note_off_c, 0, 72, 45
1, 73520, Note_on_c, 0, 71, 41
1, 73535, Note_on_c, 0, 56, 36
1, 73535, Note_on_c, 0, 60, 38
1, 73538, Note_on_c, 0, 65, 29
1, 73579, Note_off_c, 0, 60, 59
1, 73580, Note_off_c, 0, 56, 63
1, 73582, Note_off_c, 0, 65, 47
1, 73669, Note_on_c, 0, 72, 49
1, 73675, Note_off_c, 0, 71, 58
1, 73719, Note_on_c, 0, 56, 33
1, 73722, Note_on_c, 0, 65, 29
1, 73753, Note_off_c, 0, 56, 55
1, 73765, Note_off_c, 0, 65, 47
1, 73787, Poly_aftertouch_c, 0, 60, 0
1, 73831, Note_off_c, 0, 72, 58
1, 73848, Note_on_c, 0, 77, 60
1, 73858, Note_on_c, 0, 56, 41
1, 73895, Note_off_c, 0, 77, 55
1, 73924, Note_off_c, 0, 56, 59
1, 73942, Poly_aftertouch_c, 0, 65, 0
1, 74035, Note_on_c, 0, 76, 61
1, 74048, Note_on_c, 0, 65, 51
1, 74056, Control_c, 0, 64, 88
1, 74070, Control_c, 0, 64, 68
1, 74071, Note_on_c, 0, 56, 39
1, 74085, Control_c, 0, 64, 60
1, 74100, Note_off_c, 0, 65, 54
1, 74100, Control_c, 0, 64, 60
1, 74111, Note_off_c, 0, 56, 59
1, 74115, Control_c, 0, 64, 62
1, 74127, Poly_aftertouch_c, 0, 60, 0
1, 74130, Control_c, 0, 64, 66
1, 74144, Control_c, 0, 64, 72
1, 74159, Control_c, 0, 64, 90
1, 74174, Control_c, 0, 64, 127
1, 74199, Note_on_c, 0, 75, 72
1, 74211, Note_on_c, 0, 56, 54
1, 74243, Note_off_c, 0, 76, 61
1, 74279, Poly_aftertouch_c, 0, 65, 0
1, 74292, Note_off_c, 0, 56, 59
1, 74300, Poly_aftertouch_c, 0, 65, 0
1, 74372, Note_on_c, 0, 46, 49
1, 74381, Control_c, 0, 64, 83
1, 74388, Note_on_c, 0, 74, 61
1, 74395, Control_c, 0, 64, 65
1, 74410, Control_c, 0, 64, 54
1, 74415, Note_off_c, 0, 75, 62
1, 74416, Note_on_c, 0, 65, 35
1, 74425, Control_c, 0, 64, 53
1, 74440, Control_c, 0, 64, 56
1, 74446, Note_off_c, 0, 46, 63
1, 74462, Control_c, 0, 64, 61
1, 74470, Note_off_c, 0, 65, 54
1, 74477, Control_c, 0, 64, 66
1, 74492, Control_c, 0, 64, 72
1, 74507, Control_c, 0, 64, 81
1, 74521, Control_c, 0, 64, 94
1, 74533, Note_on_c, 0, 55, 51
1, 74536, Control_c, 0, 64, 117
1, 74539, Note_on_c, 0, 73, 68
1, 74551, Control_c, 0, 64, 127
1, 74556, Note_on_c, 0, 61, 50
1, 74577, Note_off_c, 0, 74, 61
1, 74599, Note_off_c, 0, 61, 60
1, 74602, Note_on_c, 0, 65, 17
1, 74614, Note_off_c, 0, 55, 62
1, 74646, Note_off_c, 0, 65, 41
1, 74668, Control_c, 0, 64, 85
1, 74683, Control_c, 0, 64, 71
1, 74698, Note_on_c, 0, 61, 54
1, 74698, Note_on_c, 0, 65, 46
1, 74698, Note_on_c, 0, 72, 65
1, 74698, Control_c, 0, 64, 71
1, 74706, Note_on_c, 0, 55, 45
1, 74714, Control_c, 0, 64, 89
1, 74729, Control_c, 0, 64, 127
1, 74741, Note_off_c, 0, 61, 61
1, 74752, Note_off_c, 0, 55, 61
1, 74754, Note_off_c, 0, 65, 58
1, 74758, Note_off_c, 0, 73, 58
1, 74788, Control_c, 0, 64, 111
1, 74803, Control_c, 0, 64, 72
1, 74817, Control_c, 0, 64, 64
1, 74832, Control_c, 0, 64, 69
1, 74844, Note_on_c, 0, 61, 54
1, 74847, Control_c, 0, 64, 82
1, 74852, Note_on_c, 0, 70, 67
1, 74857, Note_on_c, 0, 55, 55
1, 74859, Note_on_c, 0, 65, 64
1, 74862, Control_c, 0, 64, 127
1, 74884, Note_off_c, 0, 72, 39
1, 74884, Note_off_c, 0, 61, 60
1, 74893, Note_off_c, 0, 65, 60
1, 74900, Note_off_c, 0, 55, 61
1, 74976, Note_off_c, 0, 70, 62
1, 74996, Note_on_c, 0, 72, 66
1, 74998, Note_on_c, 0, 55, 55
1, 75003, Note_on_c, 0, 61, 51
1, 75010, Note_on_c, 0, 65, 51
1, 75033, Note_off_c, 0, 61, 62
1, 75035, Note_off_c, 0, 55, 63
1, 75044, Note_off_c, 0, 65, 61
1, 75075, Note_off_c, 0, 72, 54
1, 75122, Note_on_c, 0, 73, 65
1, 75123, Note_on_c, 0, 55, 54
1, 75150, Note_on_c, 0, 65, 40
1, 75168, Poly_aftertouch_c, 0, 61, 127
1, 75178, Note_off_c, 0, 65, 55
1, 75188, Note_off_c, 0, 55, 50
1, 75201, Note_off_c, 0, 73, 60
1, 75204, Poly_aftertouch_c, 0, 61, 0
1, 75224, Control_c, 0, 64, 82
1, 75239, Control_c, 0, 64, 64
1, 75240, Note_on_c, 0, 67, 51
1, 75254, Control_c, 0, 64, 46
1, 75265, Note_off_c, 0, 67, 60
1, 75269, Control_c, 0, 64, 40
1, 75283, Note_on_c, 0, 48, 49
1, 75284, Note_on_c, 0, 68, 53
1, 75299, Control_c, 0, 64, 45
1, 75314, Control_c, 0, 64, 53
1, 75323, Note_off_c, 0, 68, 62
1, 75325, Note_on_c, 0, 67, 63
1, 75328, Control_c, 0, 64, 61
1, 75340, Note_on_c, 0, 65, 19
1, 75343, Control_c, 0, 64, 65
1, 75358, Control_c, 0, 64, 72
1, 75360, Note_off_c, 0, 67, 63
1, 75373, Control_c, 0, 64, 79
1, 75382, Note_off_c, 0, 65, 39
1, 75388, Control_c, 0, 64, 90
1, 75403, Control_c, 0, 64, 110
1, 75417, Control_c, 0, 64, 127
1, 75447, Control_c, 0, 64, 107
1, 75462, Control_c, 0, 64, 74
1, 75477, Control_c, 0, 64, 61
1, 75478, Note_on_c, 0, 58, 42
1, 75481, Note_on_c, 0, 60, 39
1, 75483, Note_on_c, 0, 66, 58
1, 75491, Control_c, 0, 64, 54
1, 75507, Control_c, 0, 64, 58
1, 75517, Note_off_c, 0, 60, 56
1, 75522, Control_c, 0, 64, 63
1, 75522, Note_off_c, 0, 58, 63
1, 75537, Control_c, 0, 64, 67
1, 75552, Control_c, 0, 64, 74
1, 75566, Control_c, 0, 64, 82
1, 75581, Control_c, 0, 64, 89
1, 75596, Control_c, 0, 64, 90
1, 75606, Note_off_c, 0, 66, 58
1, 75611, Control_c, 0, 64, 89
1, 75626, Control_c, 0, 64, 88
1, 75640, Control_c, 0, 64, 87
1, 75647, Note_on_c, 0, 67, 50
1, 75648, Note_on_c, 0, 60, 32
1, 75655, Control_c, 0, 64, 85
1, 75665, Note_on_c, 0, 58, 19
1, 75670, Control_c, 0, 64, 81
1, 75674, Note_on_c, 0, 65, 11
1, 75678, Note_on_c, 0, 55, 34
1, 75685, Control_c, 0, 64, 77
1, 75692, Note_off_c, 0, 60, 47
1, 75694, Note_off_c, 0, 67, 63
1, 75700, Control_c, 0, 64, 72
1, 75703, Note_off_c, 0, 58, 43
1, 75713, Note_off_c, 0, 55, 53
1, 75714, Control_c, 0, 64, 68
1, 75719, Note_off_c, 0, 65, 37
1, 75729, Control_c, 0, 64, 65
1, 75744, Control_c, 0, 64, 64
1, 75758, Control_c, 0, 64, 65
1, 75773, Control_c, 0, 64, 66
1, 75788, Control_c, 0, 64, 67
1, 75803, Control_c, 0, 64, 69
1, 75811, Note_on_c, 0, 55, 43
1, 75818, Control_c, 0, 64, 71
1, 75822, Note_on_c, 0, 60, 31
1, 75823, Note_on_c, 0, 73, 56
1, 75832, Control_c, 0, 64, 74
1, 75845, Note_on_c, 0, 64, 35
1, 75847, Control_c, 0, 64, 76
1, 75862, Control_c, 0, 64, 77
1, 75871, Note_off_c, 0, 60, 49
1, 75877, Control_c, 0, 64, 78
1, 75882, Note_off_c, 0, 64, 52
1, 75892, Control_c, 0, 64, 79
1, 75895, Note_off_c, 0, 55, 57
1, 75903, Poly_aftertouch_c, 0, 58, 0
1, 75905, Note_off_c, 0, 73, 64
1, 75907, Control_c, 0, 64, 81
1, 75922, Control_c, 0, 64, 86
1, 75937, Control_c, 0, 64, 93
1, 75958, Control_c, 0, 64, 99
1, 75973, Control_c, 0, 64, 106
1, 75985, Note_on_c, 0, 64, 49
1, 75988, Control_c, 0, 64, 109
1, 75994, Note_on_c, 0, 72, 51
1, 76004, Note_on_c, 0, 55, 29
1, 76018, Note_on_c, 0, 58, 35
1, 76020, Note_on_c, 0, 60, 12
1, 76032, Note_off_c, 0, 64, 58
1, 76033, Control_c, 0, 64, 110
1, 76047, Control_c, 0, 64, 110
1, 76048, Note_off_c, 0, 55, 49
1, 76051, Note_off_c, 0, 58, 47
1, 76064, Note_off_c, 0, 60, 38
1, 76145, Note_off_c, 0, 48, 40
1, 76148, Note_on_c, 0, 58, 51
1, 76157, Note_off_c, 0, 72, 33
1, 76158, Note_on_c, 0, 55, 31
1, 76164, Note_on_c, 0, 67, 51
1, 76166, Control_c, 0, 64, 109
1, 76170, Note_on_c, 0, 64, 38
1, 76181, Control_c, 0, 64, 108
1, 76182, Note_on_c, 0, 60, 43
1, 76196, Control_c, 0, 64, 108
1, 76211, Control_c, 0, 64, 107
1, 76221, Note_off_c, 0, 64, 52
1, 76240, Control_c, 0, 64, 107
1, 76255, Control_c, 0, 64, 106
1, 76266, Note_off_c, 0, 60, 46
1, 76270, Control_c, 0, 64, 104
1, 76284, Control_c, 0, 64, 101
1, 76299, Control_c, 0, 64, 99
1, 76315, Control_c, 0, 64, 98
1, 76330, Control_c, 0, 64, 97
1, 76345, Control_c, 0, 64, 95
1, 76360, Control_c, 0, 64, 90
1, 76366, Note_on_c, 0, 53, 66
1, 76375, Control_c, 0, 64, 79
1, 76389, Control_c, 0, 64, 66
1, 76392, Note_off_c, 0, 67, 51
1, 76397, Note_on_c, 0, 70, 54
1, 76399, Note_off_c, 0, 58, 55
1, 76404, Control_c, 0, 64, 57
1, 76413, Note_off_c, 0, 55, 43
1, 76419, Control_c, 0, 64, 51
1, 76449, Control_c, 0, 64, 51
1, 76463, Control_c, 0, 64, 52
1, 76478, Control_c, 0, 64, 55
1, 76493, Control_c, 0, 64, 58
1, 76508, Control_c, 0, 64, 61
1, 76523, Control_c, 0, 64, 62
1, 76537, Control_c, 0, 64, 64
1, 76552, Control_c, 0, 64, 65
1, 76567, Control_c, 0, 64, 67
1, 76581, Control_c, 0, 64, 70
1, 76596, Control_c, 0, 64, 75
1, 76598, Note_off_c, 0, 70, 54
1, 76611, Control_c, 0, 64, 80
1, 76618, Note_on_c, 0, 56, 40
1, 76618, Note_on_c, 0, 68, 47
1, 76626, Control_c, 0, 64, 86
1, 76641, Control_c, 0, 64, 92
1, 76655, Control_c, 0, 64, 94
1, 76664, Poly_aftertouch_c, 0, 60, 127
1, 76669, Note_off_c, 0, 56, 60
1, 76673, Poly_aftertouch_c, 0, 65, 127
1, 76696, Poly_aftertouch_c, 0, 60, 0
1, 76697, Poly_aftertouch_c, 0, 65, 0
1, 76767, Control_c, 0, 64, 93
1, 76789, Note_on_c, 0, 56, 53
1, 76807, Note_on_c, 0, 60, 36
1, 76807, Note_on_c, 0, 67, 43
1, 76811, Control_c, 0, 64, 93
1, 76827, Note_off_c, 0, 68, 28
1, 76827, Control_c, 0, 64, 92
1, 76842, Control_c, 0, 64, 92
1, 76847, Note_off_c, 0, 60, 51
1, 76849, Note_off_c, 0, 56, 59
1, 76915, Control_c, 0, 64, 91
1, 76930, Control_c, 0, 64, 91
1, 76939, Note_off_c, 0, 67, 56
1, 76945, Control_c, 0, 64, 90
1, 76947, Note_off_c, 0, 53, 61
1, 76956, Note_on_c, 0, 60, 48
1, 76958, Note_on_c, 0, 68, 54
1, 76960, Note_on_c, 0, 56, 57
1, 76960, Control_c, 0, 64, 89
1, 76975, Control_c, 0, 64, 88
1, 76989, Control_c, 0, 64, 88
1, 76992, Note_on_c, 0, 65, 21
1, 77004, Control_c, 0, 64, 87
1, 77019, Control_c, 0, 64, 86
1, 77031, Note_off_c, 0, 65, 42
1, 77034, Control_c, 0, 64, 85
1, 77049, Control_c, 0, 64, 83
1, 77063, Control_c, 0, 64, 80
1, 77078, Control_c, 0, 64, 76
1, 77093, Control_c, 0, 64, 72
1, 77109, Control_c, 0, 64, 69
1, 77114, Note_off_c, 0, 60, 33
1, 77120, Note_on_c, 0, 70, 66
1, 77122, Note_on_c, 0, 51, 67
1, 77124, Control_c, 0, 64, 67
1, 77139, Control_c, 0, 64, 64
1, 77144, Note_off_c, 0, 68, 56
1, 77154, Control_c, 0, 64, 62
1, 77158, Note_on_c, 0, 65, 12
1, 77168, Control_c, 0, 64, 60
1, 77183, Control_c, 0, 64, 58
1, 77193, Note_off_c, 0, 56, 63
1, 77198, Control_c, 0, 64, 54
1, 77200, Note_off_c, 0, 65, 41
1, 77212, Control_c, 0, 64, 50
1, 77227, Control_c, 0, 64, 41
1, 77242, Control_c, 0, 64, 25
1, 77257, Control_c, 0, 64, 0
1, 77300, Note_on_c, 0, 49, 59
1, 77308, Note_on_c, 0, 71, 62
1, 77317, Note_on_c, 0, 65, 29
1, 77322, Note_off_c, 0, 70, 56
1, 77340, Note_off_c, 0, 51, 62
1, 77348, Note_off_c, 0, 65, 52
1, 77501, Note_off_c, 0, 49, 58
1, 77513, Note_on_c, 0, 48, 50
1, 77516, Note_off_c, 0, 71, 55
1, 77516, Control_c, 0, 64, 13
1, 77520, Note_on_c, 0, 72, 50
1, 77531, Control_c, 0, 64, 28
1, 77540, Note_on_c, 0, 64, 26
1, 77546, Control_c, 0, 64, 36
1, 77561, Control_c, 0, 64, 41
1, 77576, Control_c, 0, 64, 45
1, 77585, Note_off_c, 0, 64, 50
1, 77591, Control_c, 0, 64, 48
1, 77605, Control_c, 0, 64, 51
1, 77620, Control_c, 0, 64, 55
1, 77627, Note_off_c, 0, 72, 62
1, 77635, Control_c, 0, 64, 58
1, 77650, Control_c, 0, 64, 61
1, 77665, Control_c, 0, 64, 63
1, 77679, Control_c, 0, 64, 65
1, 77683, Note_on_c, 0, 73, 60
1, 77690, Note_on_c, 0, 60, 45
1, 77693, Note_on_c, 0, 58, 51
1, 77694, Note_on_c, 0, 55, 41
1, 77694, Control_c, 0, 64, 69
1, 77701, Note_on_c, 0, 64, 33
1, 77709, Control_c, 0, 64, 73
1, 77724, Control_c, 0, 64, 79
1, 77729, Note_off_c, 0, 60, 64
1, 77731, Note_off_c, 0, 58, 64
1, 77735, Note_off_c, 0, 64, 53
1, 77737, Note_off_c, 0, 73, 61
1, 77738, Control_c, 0, 64, 83
1, 77749, Note_off_c, 0, 55, 58
1, 77753, Control_c, 0, 64, 85
1, 77768, Control_c, 0, 64, 87
1, 77783, Control_c, 0, 64, 87
1, 77798, Control_c, 0, 64, 88
1, 77827, Control_c, 0, 64, 88
1, 77829, Note_on_c, 0, 64, 52
1, 77835, Note_on_c, 0, 60, 49
1, 77835, Note_on_c, 0, 72, 50
1, 77835, Note_on_c, 0, 58, 58
1, 77840, Note_off_c, 0, 48, 38
1, 77842, Control_c, 0, 64, 89
1, 77857, Control_c, 0, 64, 90
1, 77872, Control_c, 0, 64, 89
1, 77882, Note_on_c, 0, 55, 30
1, 77886, Control_c, 0, 64, 84
1, 77892, Note_off_c, 0, 72, 60
1, 77902, Control_c, 0, 64, 75
1, 77916, Note_on_c, 0, 70, 62
1, 77917, Control_c, 0, 64, 65
1, 77925, Note_off_c, 0, 64, 52
1, 77932, Control_c, 0, 64, 58
1, 77947, Control_c, 0, 64, 56
1, 77949, Note_off_c, 0, 70, 62
1, 77961, Control_c, 0, 64, 57
1, 77976, Note_on_c, 0, 72, 66
1, 77976, Control_c, 0, 64, 59
1, 77989, Note_off_c, 0, 60, 32
1, 77991, Control_c, 0, 64, 61
1, 78006, Control_c, 0, 64, 63
1, 78008, Note_on_c, 0, 53, 57
1, 78013, Note_on_c, 0, 70, 65
1, 78021, Control_c, 0, 64, 66
1, 78035, Control_c, 0, 64, 69
1, 78040, Note_off_c, 0, 58, 60
1, 78050, Control_c, 0, 64, 72
1, 78063, Note_off_c, 0, 72, 60
1, 78065, Control_c, 0, 64, 76
1, 78080, Control_c, 0, 64, 79
1, 78095, Control_c, 0, 64, 82
1, 78097, Note_off_c, 0, 70, 61
1, 78110, Control_c, 0, 64, 85
1, 78125, Control_c, 0, 64, 88
1, 78139, Control_c, 0, 64, 94
1, 78154, Control_c, 0, 64, 101
1, 78169, Control_c, 0, 64, 107
1, 78169, Note_on_c, 0, 68, 70
1, 78173, Note_on_c, 0, 56, 54
1, 78176, Note_on_c, 0, 60, 33
1, 78184, Control_c, 0, 64, 109
1, 78206, Control_c, 0, 64, 110
1, 78223, Note_off_c, 0, 60, 49
1, 78229, Note_on_c, 0, 65, 12
1, 78250, Control_c, 0, 64, 110
1, 78265, Control_c, 0, 64, 112
1, 78273, Note_off_c, 0, 65, 39
1, 78280, Control_c, 0, 64, 116
1, 78295, Control_c, 0, 64, 123
1, 78309, Control_c, 0, 64, 127
1, 78310, Note_off_c, 0, 68, 56
1, 78318, Note_on_c, 0, 70, 71
1, 78330, Note_on_c, 0, 49, 58
1, 78339, Control_c, 0, 64, 123
1, 78342, Note_on_c, 0, 65, 43
1, 78343, Note_off_c, 0, 55, 9
1, 78354, Control_c, 0, 64, 101
1, 78368, Note_off_c, 0, 65, 55
1, 78369, Control_c, 0, 64, 82
1, 78384, Control_c, 0, 64, 68
1, 78399, Control_c, 0, 64, 59
1, 78408, Note_off_c, 0, 53, 43
1, 78409, Note_off_c, 0, 56, 51
1, 78412, Note_off_c, 0, 49, 61
1, 78414, Control_c, 0, 64, 55
1, 78428, Control_c, 0, 64, 56
1, 78443, Control_c, 0, 64, 59
1, 78458, Control_c, 0, 64, 63
1, 78473, Control_c, 0, 64, 66
1, 78478, Note_on_c, 0, 72, 63
1, 78483, Note_on_c, 0, 64, 56
1, 78485, Note_on_c, 0, 48, 60
1, 78488, Control_c, 0, 64, 71
1, 78492, Note_off_c, 0, 70, 60
1, 78502, Control_c, 0, 64, 79
1, 78517, Note_off_c, 0, 64, 65
1, 78517, Control_c, 0, 64, 96
1, 78532, Control_c, 0, 64, 127
1, 78554, Note_off_c, 0, 72, 62
1, 78606, Control_c, 0, 64, 101
1, 78621, Control_c, 0, 64, 76
1, 78624, Note_on_c, 0, 73, 76
1, 78633, Note_on_c, 0, 58, 62
1, 78634, Note_on_c, 0, 55, 57
1, 78635, Control_c, 0, 64, 67
1, 78640, Note_on_c, 0, 64, 45
1, 78645, Note_on_c, 0, 60, 44
1, 78650, Control_c, 0, 64, 65
1, 78665, Control_c, 0, 64, 66
1, 78666, Note_off_c, 0, 64, 57
1, 78670, Note_off_c, 0, 58, 65
1, 78672, Note_off_c, 0, 60, 59
1, 78680, Control_c, 0, 64, 69
1, 78681, Note_off_c, 0, 73, 64
1, 78691, Note_off_c, 0, 55, 55
1, 78695, Control_c, 0, 64, 75
1, 78711, Control_c, 0, 64, 86
1, 78725, Control_c, 0, 64, 111
1, 78740, Control_c, 0, 64, 127
1, 78759, Note_on_c, 0, 64, 57
1, 78761, Note_on_c, 0, 72, 68
1, 78768, Note_on_c, 0, 60, 53
1, 78772, Note_on_c, 0, 58, 60
1, 78804, Note_on_c, 0, 55, 10
1, 78818, Note_off_c, 0, 48, 38
1, 78847, Note_off_c, 0, 72, 61
1, 78849, Note_off_c, 0, 64, 47
1, 78860, Note_on_c, 0, 70, 67
1, 78873, Control_c, 0, 64, 97
1, 78878, Note_off_c, 0, 60, 54
1, 78888, Control_c, 0, 64, 70
1, 78894, Note_off_c, 0, 70, 64
1, 78903, Control_c, 0, 64, 54
1, 78909, Note_on_c, 0, 72, 65
1, 78918, Control_c, 0, 64, 52
1, 78932, Control_c, 0, 64, 56
1, 78936, Note_on_c, 0, 53, 64
1, 78947, Control_c, 0, 64, 62
1, 78957, Note_on_c, 0, 70, 71
1, 78970, Control_c, 0, 64, 68
1, 78983, Note_off_c, 0, 58, 59
1, 78984, Control_c, 0, 64, 78
1, 78994, Note_off_c, 0, 55, 42
1, 78999, Control_c, 0, 64, 114
1, 79002, Note_off_c, 0, 72, 54
1, 79014, Control_c, 0, 64, 127
1, 79046, Note_off_c, 0, 70, 61
1, 79089, Note_on_c, 0, 65, 67
1, 79096, Note_on_c, 0, 68, 69
1, 79103, Note_on_c, 0, 56, 66
1, 79111, Note_on_c, 0, 60, 46
1, 79122, Note_off_c, 0, 65, 64
1, 79137, Note_off_c, 0, 60, 61
1, 79141, Note_off_c, 0, 68, 58
1, 79151, Note_off_c, 0, 56, 59
1, 79236, Note_on_c, 0, 70, 74
1, 79245, Note_on_c, 0, 68, 70
1, 79252, Note_on_c, 0, 52, 60
1, 79254, Note_on_c, 0, 56, 57
1, 79254, Note_on_c, 0, 62, 50
1, 79265, Note_off_c, 0, 53, 60
1, 79279, Note_off_c, 0, 68, 61
1, 79293, Note_off_c, 0, 62, 60
1, 79302, Note_off_c, 0, 56, 56
1, 79303, Note_off_c, 0, 70, 60
1, 79321, Note_off_c, 0, 52, 63
1, 79383, Control_c, 0, 64, 102
1, 79397, Note_on_c, 0, 72, 74
1, 79398, Control_c, 0, 64, 74
1, 79409, Note_on_c, 0, 68, 64
1, 79412, Note_on_c, 0, 56, 64
1, 79413, Control_c, 0, 64, 61
1, 79418, Note_on_c, 0, 51, 58
1, 79423, Note_on_c, 0, 63, 54
1, 79428, Control_c, 0, 64, 55
1, 79443, Control_c, 0, 64, 58
1, 79457, Note_off_c, 0, 63, 63
1, 79457, Control_c, 0, 64, 62
1, 79466, Note_off_c, 0, 72, 63
1, 79472, Control_c, 0, 64, 68
1, 79483, Note_off_c, 0, 56, 64
1, 79487, Control_c, 0, 64, 78
1, 79488, Note_off_c, 0, 51, 63
1, 79503, Control_c, 0, 64, 100
1, 79518, Control_c, 0, 64, 127
1, 79552, Note_on_c, 0, 73, 83
1, 79561, Note_on_c, 0, 65, 60
1, 79567, Note_on_c, 0, 56, 63
1, 79567, Note_on_c, 0, 51, 56
1, 79586, Note_off_c, 0, 65, 63
1, 79605, Note_off_c, 0, 73, 65
1, 79608, Note_off_c, 0, 51, 63
1, 79621, Note_off_c, 0, 68, 60
1, 79627, Note_off_c, 0, 56, 63
1, 79684, Note_on_c, 0, 72, 77
1, 79693, Note_on_c, 0, 63, 62
1, 79707, Note_on_c, 0, 51, 74
1, 79708, Note_on_c, 0, 56, 66
1, 79737, Note_off_c, 0, 63, 59
1, 79757, Note_off_c, 0, 51, 61
1, 79770, Note_off_c, 0, 72, 62
1, 79777, Note_on_c, 0, 70, 75
1, 79784, Note_off_c, 0, 56, 61
1, 79806, Control_c, 0, 64, 77
1, 79814, Note_off_c, 0, 70, 59
1, 79821, Control_c, 0, 64, 60
1, 79835, Note_on_c, 0, 72, 68
1, 79836, Control_c, 0, 64, 50
1, 79851, Control_c, 0, 64, 56
1, 79863, Note_on_c, 0, 70, 74
1, 79864, Note_on_c, 0, 62, 74
1, 79866, Control_c, 0, 64, 63
1, 79868, Note_on_c, 0, 51, 68
1, 79868, Note_on_c, 0, 56, 69
1, 79880, Control_c, 0, 64, 71
1, 79895, Control_c, 0, 64, 94
1, 79902, Note_off_c, 0, 62, 62
1, 79903, Note_off_c, 0, 72, 61
1, 79910, Control_c, 0, 64, 127
1, 79929, Note_off_c, 0, 56, 64
1, 79931, Note_off_c, 0, 51, 55
1, 79940, Note_off_c, 0, 70, 62
1, 80007, Note_on_c, 0, 68, 78
1, 80009, Note_on_c, 0, 64, 72
1, 80010, Note_on_c, 0, 56, 67
1, 80014, Note_on_c, 0, 61, 69
1, 80041, Note_off_c, 0, 64, 65
1, 80074, Note_off_c, 0, 61, 57
1, 80104, Note_off_c, 0, 68, 56
1, 80117, Note_off_c, 0, 56, 61
1, 80153, Note_on_c, 0, 70, 83
1, 80158, Note_on_c, 0, 63, 78
1, 80159, Note_on_c, 0, 51, 71
1, 80165, Note_on_c, 0, 55, 39
1, 80198, Note_off_c, 0, 55, 52
1, 80204, Note_off_c, 0, 51, 62
1, 80280, Control_c, 0, 64, 95
1, 80296, Control_c, 0, 64, 67
1, 80311, Control_c, 0, 64, 53
1, 80326, Control_c, 0, 64, 49
1, 80331, Note_on_c, 0, 44, 75
1, 80333, Note_on_c, 0, 72, 79
1, 80341, Control_c, 0, 64, 52
1, 80356, Control_c, 0, 64, 59
1, 80370, Control_c, 0, 64, 67
1, 80372, Note_off_c, 0, 70, 64
1, 80385, Control_c, 0, 64, 81
1, 80393, Note_off_c, 0, 63, 60
1, 80400, Control_c, 0, 64, 127
1, 80408, Note_off_c, 0, 44, 64
1, 80491, Note_on_c, 0, 60, 76
1, 80493, Note_on_c, 0, 73, 84
1, 80494, Note_on_c, 0, 56, 76
1, 80506, Note_on_c, 0, 63, 72
1, 80525, Note_off_c, 0, 72, 61
1, 80537, Note_off_c, 0, 60, 60
1, 80539, Note_off_c, 0, 63, 58
1, 80557, Note_off_c, 0, 56, 64
1, 80578, Note_off_c, 0, 73, 61
1, 80623, Note_on_c, 0, 56, 82
1, 80629, Note_on_c, 0, 63, 72
1, 80634, Note_on_c, 0, 72, 72
1, 80637, Note_on_c, 0, 60, 59
1, 80656, Note_off_c, 0, 60, 63
1, 80676, Note_off_c, 0, 56, 66
1, 80682, Note_off_c, 0, 72, 59
1, 80697, Note_off_c, 0, 63, 60
1, 80700, Note_on_c, 0, 70, 74
1, 80749, Control_c, 0, 64, 89
1, 80751, Note_on_c, 0, 72, 66
1, 80756, Note_off_c, 0, 70, 64
1, 80764, Control_c, 0, 64, 65
1, 80778, Control_c, 0, 64, 43
1, 80788, Note_on_c, 0, 43, 89
1, 80793, Control_c, 0, 64, 47
1, 80794, Note_on_c, 0, 70, 75
1, 80799, Note_on_c, 0, 45, 73
1, 80808, Control_c, 0, 64, 56
1, 80823, Control_c, 0, 64, 65
1, 80837, Control_c, 0, 64, 77
1, 80840, Note_off_c, 0, 45, 55
1, 80852, Control_c, 0, 64, 127
1, 80861, Note_off_c, 0, 43, 62
1, 80882, Note_off_c, 0, 72, 58
1, 80928, Note_off_c, 0, 70, 60
1, 80944, Note_on_c, 0, 68, 80
1, 80949, Note_on_c, 0, 64, 76
1, 80954, Note_on_c, 0, 60, 74
1, 80959, Note_on_c, 0, 58, 70
1, 80968, Note_on_c, 0, 55, 61
1, 80995, Note_on_c, 0, 50, 39
1, 81003, Note_off_c, 0, 64, 63
1, 81013, Note_off_c, 0, 60, 63
1, 81026, Note_off_c, 0, 58, 62
1, 81030, Note_off_c, 0, 55, 61
1, 81062, Note_off_c, 0, 50, 57
1, 81062, Note_off_c, 0, 68, 61
1, 81105, Note_on_c, 0, 58, 73
1, 81111, Note_on_c, 0, 55, 66
1, 81114, Note_on_c, 0, 70, 89
1, 81115, Note_on_c, 0, 64, 78
1, 81119, Note_on_c, 0, 60, 46
1, 81140, Note_off_c, 0, 58, 61
1, 81154, Note_off_c, 0, 55, 62
1, 81154, Note_off_c, 0, 60, 49
1, 81210, Note_off_c, 0, 64, 57
1, 81320, Control_c, 0, 64, 81
1, 81335, Control_c, 0, 64, 54
1, 81343, Note_on_c, 0, 41, 92
1, 81350, Control_c, 0, 64, 0
1, 81371, Note_on_c, 0, 72, 92
1, 81379, Control_c, 0, 64, 30
1, 81385, Note_off_c, 0, 70, 63
1, 81394, Control_c, 0, 64, 53
1, 81409, Control_c, 0, 64, 63
1, 81424, Control_c, 0, 64, 75
1, 81439, Control_c, 0, 64, 102
1, 81453, Control_c, 0, 64, 127
1, 81460, Note_off_c, 0, 41, 55
1, 81603, Note_on_c, 0, 53, 68
1, 81605, Note_on_c, 0, 71, 85
1, 81610, Note_on_c, 0, 68, 76
1, 81628, Note_on_c, 0, 65, 65
1, 81635, Note_on_c, 0, 60, 53
1, 81653, Note_off_c, 0, 72, 59
1, 81686, Note_off_c, 0, 65, 58
1, 81693, Note_off_c, 0, 53, 62
1, 81699, Note_off_c, 0, 68, 60
1, 81728, Note_off_c, 0, 60, 56
1, 81785, Note_on_c, 0, 60, 30
1, 81799, Note_on_c, 0, 72, 86
1, 81804, Note_on_c, 0, 65, 61
1, 81809, Note_off_c, 0, 71, 56
1, 81812, Note_on_c, 0, 53, 60
1, 81825, Note_on_c, 0, 68, 26
1, 81854, Note_off_c, 0, 68, 52
1, 81854, Note_off_c, 0, 72, 65
1, 81863, Note_off_c, 0, 65, 49
1, 81890, Note_off_c, 0, 53, 60
1, 82059, Note_on_c, 0, 65, 56
1, 82065, Note_on_c, 0, 53, 52
1, 82068, Note_on_c, 0, 80, 85
1, 82091, Note_on_c, 0, 68, 56
1, 82213, Note_off_c, 0, 53, 48
1, 82236, Note_off_c, 0, 65, 43
1, 82264, Note_off_c, 0, 80, 63
1, 82265, Note_off_c, 0, 68, 55
1, 82325, Note_on_c, 0, 79, 85
1, 82331, Note_on_c, 0, 65, 66
1, 82343, Note_on_c, 0, 68, 59
1, 82345, Note_on_c, 0, 53, 63
1, 82386, Note_off_c, 0, 53, 56
1, 82396, Note_off_c, 0, 65, 60
1, 82396, Note_off_c, 0, 68, 58
1, 82441, Note_off_c, 0, 79, 59
1, 82501, Note_on_c, 0, 53, 63
1, 82506, Note_on_c, 0, 78, 81
1, 82515, Note_on_c, 0, 68, 69
1, 82545, Note_off_c, 0, 60, 56
1, 82567, Note_off_c, 0, 53, 63
1, 82602, Note_off_c, 0, 68, 57
1, 82661, Control_c, 0, 64, 94
1, 82676, Control_c, 0, 64, 70
1, 82691, Control_c, 0, 64, 57
1, 82703, Note_on_c, 0, 46, 69
1, 82714, Control_c, 0, 64, 49
1, 82718, Note_on_c, 0, 77, 77
1, 82722, Note_off_c, 0, 78, 63
1, 82729, Control_c, 0, 64, 52
1, 82734, Note_on_c, 0, 67, 60
1, 82744, Control_c, 0, 64, 58
1, 82759, Control_c, 0, 64, 64
1, 82773, Control_c, 0, 64, 70
1, 82780, Note_off_c, 0, 46, 62
1, 82788, Control_c, 0, 64, 81
1, 82791, Note_off_c, 0, 67, 57
1, 82803, Control_c, 0, 64, 108
1, 82817, Control_c, 0, 64, 127
1, 82885, Note_on_c, 0, 76, 80
1, 82891, Control_c, 0, 64, 119
1, 82895, Note_on_c, 0, 55, 57
1, 82900, Note_on_c, 0, 65, 54
1, 82900, Note_on_c, 0, 67, 64
1, 82903, Note_on_c, 0, 61, 54
1, 82906, Control_c, 0, 64, 127
1, 82920, Note_on_c, 0, 58, 47
1, 82930, Note_off_c, 0, 77, 63
1, 82948, Note_off_c, 0, 65, 57
1, 82962, Note_off_c, 0, 58, 62
1, 82970, Note_off_c, 0, 67, 51
1, 82971, Note_off_c, 0, 55, 61
1, 82972, Note_off_c, 0, 61, 60
1, 82995, Control_c, 0, 64, 87
1, 83010, Control_c, 0, 64, 73
1, 83024, Control_c, 0, 64, 75
1, 83039, Control_c, 0, 64, 86
1, 83048, Note_on_c, 0, 75, 86
1, 83054, Control_c, 0, 64, 105
1, 83059, Note_on_c, 0, 58, 54
1, 83067, Note_on_c, 0, 67, 65
1, 83069, Control_c, 0, 64, 127
1, 83070, Note_on_c, 0, 55, 55
1, 83072, Note_on_c, 0, 65, 56
1, 83078, Note_on_c, 0, 61, 55
1, 83103, Note_off_c, 0, 76, 58
1, 83109, Note_off_c, 0, 65, 63
1, 83113, Note_off_c, 0, 61, 63
1, 83115, Note_off_c, 0, 58, 57
1, 83116, Note_off_c, 0, 67, 60
1, 83127, Note_off_c, 0, 55, 55
1, 83188, Note_off_c, 0, 75, 63
1, 83192, Note_on_c, 0, 74, 83
1, 83208, Note_on_c, 0, 61, 64
1, 83213, Note_on_c, 0, 55, 51
1, 83216, Note_on_c, 0, 65, 58
1, 83216, Note_on_c, 0, 67, 69
1, 83224, Note_on_c, 0, 58, 59
1, 83250, Note_off_c, 0, 67, 57
1, 83252, Note_off_c, 0, 65, 63
1, 83264, Note_off_c, 0, 58, 62
1, 83268, Note_off_c, 0, 61, 61
1, 83280, Note_off_c, 0, 55, 59
1, 83340, Note_on_c, 0, 73, 84
1, 83350, Note_on_c, 0, 65, 60
1, 83353, Note_off_c, 0, 74, 59
1, 83353, Note_on_c, 0, 55, 55
1, 83356, Note_on_c, 0, 67, 65
1, 83388, Note_off_c, 0, 67, 59
1, 83416, Note_off_c, 0, 65, 57
1, 83419, Note_off_c, 0, 73, 64
1, 83478, Note_on_c, 0, 61, 57
1, 83481, Note_on_c, 0, 58, 51
1, 83486, Note_on_c, 0, 72, 64
1, 83494, Note_on_c, 0, 67, 53
1, 83505, Note_off_c, 0, 55, 55
1, 83508, Note_off_c, 0, 61, 61
1, 83511, Note_off_c, 0, 58, 64
1, 83524, Note_off_c, 0, 67, 51
1, 83552, Note_off_c, 0, 72, 63
1, 83559, Note_on_c, 0, 70, 69
1, 83581, Control_c, 0, 64, 75
1, 83589, Note_off_c, 0, 70, 67
1, 83596, Control_c, 0, 64, 55
1, 83610, Note_on_c, 0, 72, 56
1, 83610, Control_c, 0, 64, 23
1, 83625, Control_c, 0, 64, 24
1, 83630, Note_on_c, 0, 48, 57
1, 83640, Control_c, 0, 64, 34
1, 83648, Note_on_c, 0, 70, 80
1, 83654, Control_c, 0, 64, 54
1, 83669, Note_off_c, 0, 48, 66
1, 83669, Control_c, 0, 64, 64
1, 83684, Note_off_c, 0, 72, 65
1, 83684, Control_c, 0, 64, 74
1, 83699, Control_c, 0, 64, 101
1, 83714, Control_c, 0, 64, 127
1, 83744, Control_c, 0, 64, 111
1, 83758, Control_c, 0, 64, 78
1, 83773, Control_c, 0, 64, 62
1, 83788, Control_c, 0, 64, 57
1, 83803, Control_c, 0, 64, 63
1, 83805, Note_on_c, 0, 55, 51
1, 83805, Note_on_c, 0, 69, 68
1, 83809, Note_off_c, 0, 70, 54
1, 83810, Note_on_c, 0, 65, 47
1, 83818, Control_c, 0, 64, 69
1, 83820, Note_on_c, 0, 58, 41
1, 83825, Note_on_c, 0, 67, 42
1, 83833, Control_c, 0, 64, 80
1, 83840, Note_off_c, 0, 65, 54
1, 83847, Control_c, 0, 64, 110
1, 83852, Note_off_c, 0, 67, 57
1, 83859, Note_off_c, 0, 58, 58
1, 83862, Control_c, 0, 64, 127
1, 83866, Note_off_c, 0, 55, 57
1, 83892, Control_c, 0, 64, 121
1, 83907, Control_c, 0, 64, 95
1, 83921, Control_c, 0, 64, 87
1, 83926, Note_off_c, 0, 69, 61
1, 83936, Control_c, 0, 64, 87
1, 83951, Control_c, 0, 64, 90
1, 83952, Note_on_c, 0, 67, 44
1, 83955, Note_on_c, 0, 70, 68
1, 83958, Note_on_c, 0, 58, 58
1, 83961, Note_on_c, 0, 55, 52
1, 83965, Control_c, 0, 64, 94
1, 83980, Control_c, 0, 64, 97
1, 83982, Note_off_c, 0, 67, 56
1, 83995, Control_c, 0, 64, 98
1, 84001, Note_off_c, 0, 58, 57
1, 84006, Note_off_c, 0, 55, 59
1, 84010, Control_c, 0, 64, 101
1, 84025, Control_c, 0, 64, 127
1, 84042, Note_off_c, 0, 70, 55
1, 84099, Control_c, 0, 64, 95
1, 84113, Control_c, 0, 64, 67
1, 84115, Note_on_c, 0, 55, 49
1, 84128, Note_on_c, 0, 58, 40
1, 84128, Note_on_c, 0, 73, 58
1, 84128, Control_c, 0, 64, 54
1, 84145, Note_on_c, 0, 64, 46
1, 84158, Control_c, 0, 64, 58
1, 84172, Note_off_c, 0, 58, 61
1, 84173, Control_c, 0, 64, 63
1, 84186, Note_off_c, 0, 64, 63
1, 84195, Control_c, 0, 64, 67
1, 84203, Note_off_c, 0, 55, 60
1, 84210, Control_c, 0, 64, 77
1, 84215, Note_off_c, 0, 73, 65
1, 84225, Control_c, 0, 64, 90
1, 84240, Control_c, 0, 64, 105
1, 84254, Control_c, 0, 64, 119
1, 84269, Control_c, 0, 64, 127
1, 84292, Note_on_c, 0, 72, 58
1, 84294, Note_on_c, 0, 58, 41
1, 84295, Note_on_c, 0, 55, 48
1, 84295, Note_on_c, 0, 64, 49
1, 84334, Note_off_c, 0, 58, 59
1, 84340, Note_off_c, 0, 64, 61
1, 84353, Note_off_c, 0, 55, 59
1, 84406, Note_off_c, 0, 72, 57
1, 84453, Note_on_c, 0, 58, 31
1, 84458, Note_on_c, 0, 55, 56
1, 84459, Note_on_c, 0, 64, 41
1, 84459, Note_on_c, 0, 67, 51
1, 84494, Note_off_c, 0, 58, 50
1, 84504, Note_off_c, 0, 55, 61
1, 84504, Note_off_c, 0, 64, 57
1, 84538, Control_c, 0, 64, 121
1, 84552, Control_c, 0, 64, 117
1, 84567, Control_c, 0, 64, 113
1, 84582, Control_c, 0, 64, 108
1, 84596, Control_c, 0, 64, 105
1, 84611, Control_c, 0, 64, 101
1, 84626, Control_c, 0, 64, 92
1, 84638, Note_off_c, 0, 67, 47
1, 84641, Note_on_c, 0, 53, 66
1, 84641, Control_c, 0, 64, 78
1, 84656, Control_c, 0, 64, 67
1, 84664, Note_on_c, 0, 70, 53
1, 84671, Control_c, 0, 64, 60
1, 84686, Control_c, 0, 64, 57
1, 84699, Note_on_c, 0, 65, 19
1, 84700, Control_c, 0, 64, 56
1, 84715, Control_c, 0, 64, 55
1, 84729, Note_off_c, 0, 65, 45
1, 84730, Control_c, 0, 64, 56
1, 84745, Control_c, 0, 64, 58
1, 84760, Control_c, 0, 64, 60
1, 84775, Control_c, 0, 64, 62
1, 84790, Control_c, 0, 64, 64
1, 84804, Control_c, 0, 64, 66
1, 84819, Control_c, 0, 64, 69
1, 84834, Control_c, 0, 64, 73
1, 84849, Control_c, 0, 64, 78
1, 84864, Control_c, 0, 64, 85
1, 84866, Note_on_c, 0, 68, 47
1, 84868, Note_on_c, 0, 60, 41
1, 84873, Note_on_c, 0, 56, 39
1, 84878, Control_c, 0, 64, 92
1, 84893, Control_c, 0, 64, 99
1, 84895, Poly_aftertouch_c, 0, 65, 127
1, 84908, Control_c, 0, 64, 107
1, 84920, Note_off_c, 0, 56, 53
1, 84923, Control_c, 0, 64, 113
1, 84928, Note_off_c, 0, 60, 55
1, 84930, Poly_aftertouch_c, 0, 65, 0
1, 84945, Control_c, 0, 64, 114
1, 84953, Note_off_c, 0, 70, 24
1, 85004, Control_c, 0, 64, 115
1, 85050, Note_on_c, 0, 56, 42
1, 85062, Note_on_c, 0, 67, 38
1, 85067, Note_on_c, 0, 60, 36
1, 85068, Note_off_c, 0, 68, 29
1, 85088, Note_off_c, 0, 56, 59
1, 85092, Control_c, 0, 64, 114
1, 85097, Note_off_c, 0, 60, 52
1, 85107, Control_c, 0, 64, 113
1, 85122, Control_c, 0, 64, 111
1, 85137, Control_c, 0, 64, 110
1, 85152, Control_c, 0, 64, 110
1, 85168, Note_off_c, 0, 67, 50
1, 85181, Control_c, 0, 64, 108
1, 85196, Control_c, 0, 64, 106
1, 85211, Note_on_c, 0, 56, 43
1, 85211, Control_c, 0, 64, 102
1, 85213, Note_on_c, 0, 68, 44
1, 85225, Control_c, 0, 64, 98
1, 85240, Control_c, 0, 64, 94
1, 85243, Note_off_c, 0, 56, 57
1, 85255, Control_c, 0, 64, 92
1, 85270, Control_c, 0, 64, 90
1, 85279, Poly_aftertouch_c, 0, 60, 0
1, 85285, Control_c, 0, 64, 89
1, 85300, Control_c, 0, 64, 87
1, 85315, Control_c, 0, 64, 85
1, 85329, Control_c, 0, 64, 80
1, 85344, Control_c, 0, 64, 77
1, 85359, Control_c, 0, 64, 75
1, 85374, Note_off_c, 0, 53, 60
1, 85374, Control_c, 0, 64, 73
1, 85377, Note_on_c, 0, 70, 59
1, 85377, Note_off_c, 0, 68, 53
1, 85382, Note_on_c, 0, 51, 65
1, 85389, Control_c, 0, 64, 71
1, 85404, Control_c, 0, 64, 69
1, 85418, Control_c, 0, 64, 67
1, 85433, Control_c, 0, 64, 66
1, 85448, Control_c, 0, 64, 64
1, 85463, Control_c, 0, 64, 63
1, 85478, Control_c, 0, 64, 62
1, 85492, Control_c, 0, 64, 59
1, 85507, Control_c, 0, 64, 56
1, 85522, Control_c, 0, 64, 48
1, 85537, Control_c, 0, 64, 30
1, 85544, Note_on_c, 0, 49, 58
1, 85552, Control_c, 0, 64, 0
1, 85555, Note_off_c, 0, 70, 56
1, 85556, Note_off_c, 0, 51, 62
1, 85559, Note_on_c, 0, 71, 52
1, 85709, Note_off_c, 0, 49, 60
1, 85737, Note_on_c, 0, 48, 50
1, 85737, Control_c, 0, 64, 23
1, 85738, Note_off_c, 0, 71, 57
1, 85751, Note_on_c, 0, 72, 47
1, 85752, Control_c, 0, 64, 40
1, 85765, Note_on_c, 0, 64, 31
1, 85766, Control_c, 0, 64, 51
1, 85781, Control_c, 0, 64, 57
1, 85796, Control_c, 0, 64, 61
1, 85811, Note_off_c, 0, 64, 50
1, 85811, Control_c, 0, 64, 64
1, 85825, Control_c, 0, 64, 67
1, 85840, Control_c, 0, 64, 72
1, 85843, Note_off_c, 0, 72, 62
1, 85855, Control_c, 0, 64, 79
1, 85870, Control_c, 0, 64, 91
1, 85885, Control_c, 0, 64, 113
1, 85901, Control_c, 0, 64, 127
1, 85905, Note_on_c, 0, 58, 54
1, 85908, Note_on_c, 0, 60, 43
1, 85908, Note_on_c, 0, 73, 64
1, 85914, Note_on_c, 0, 55, 42
1, 85917, Note_on_c, 0, 64, 49
1, 85940, Note_off_c, 0, 60, 62
1, 85944, Note_off_c, 0, 58, 63
1, 85954, Note_off_c, 0, 64, 62
1, 85961, Note_off_c, 0, 55, 61
1, 85972, Note_off_c, 0, 73, 63
1, 86022, Note_off_c, 0, 48, 37
1, 86034, Control_c, 0, 64, 113
1, 86042, Note_on_c, 0, 64, 52
1, 86045, Note_on_c, 0, 58, 58
1, 86046, Note_on_c, 0, 72, 55
1, 86048, Note_on_c, 0, 60, 46
1, 86048, Control_c, 0, 64, 84
1, 86063, Control_c, 0, 64, 68
1, 86078, Control_c, 0, 64, 57
1, 86093, Note_off_c, 0, 72, 57
1, 86093, Control_c, 0, 64, 56
1, 86095, Note_on_c, 0, 55, 15
1, 86107, Note_off_c, 0, 64, 47
1, 86108, Control_c, 0, 64, 58
1, 86120, Note_on_c, 0, 70, 63
1, 86122, Control_c, 0, 64, 60
1, 86137, Control_c, 0, 64, 62
1, 86152, Note_off_c, 0, 70, 66
1, 86152, Control_c, 0, 64, 64
1, 86164, Note_off_c, 0, 60, 35
1, 86167, Control_c, 0, 64, 66
1, 86180, Note_on_c, 0, 72, 71
1, 86182, Control_c, 0, 64, 68
1, 86197, Control_c, 0, 64, 71
1, 86203, Note_on_c, 0, 53, 56
1, 86212, Control_c, 0, 64, 74
1, 86215, Note_on_c, 0, 70, 72
1, 86223, Note_off_c, 0, 58, 59
1, 86227, Control_c, 0, 64, 79
1, 86241, Control_c, 0, 64, 85
1, 86256, Control_c, 0, 64, 94
1, 86259, Note_off_c, 0, 72, 52
1, 86271, Control_c, 0, 64, 105
1, 86286, Control_c, 0, 64, 127
1, 86292, Note_off_c, 0, 70, 58
1, 86362, Note_on_c, 0, 56, 55
1, 86370, Note_on_c, 0, 68, 67
1, 86379, Note_on_c, 0, 60, 26
1, 86388, Note_on_c, 0, 65, 48
1, 86409, Note_off_c, 0, 60, 53
1, 86417, Note_off_c, 0, 65, 62
1, 86483, Note_off_c, 0, 55, 11
1, 86498, Note_off_c, 0, 68, 50
1, 86515, Note_on_c, 0, 49, 59
1, 86517, Note_on_c, 0, 65, 53
1, 86517, Note_on_c, 0, 70, 65
1, 86546, Note_off_c, 0, 56, 52
1, 86547, Note_off_c, 0, 53, 22
1, 86554, Note_off_c, 0, 65, 62
1, 86575, Control_c, 0, 64, 95
1, 86581, Note_off_c, 0, 49, 56
1, 86590, Control_c, 0, 64, 74
1, 86604, Control_c, 0, 64, 62
1, 86619, Control_c, 0, 64, 55
1, 86648, Control_c, 0, 64, 56
1, 86660, Note_off_c, 0, 70, 47
1, 86663, Control_c, 0, 64, 59
1, 86668, Note_on_c, 0, 48, 53
1, 86669, Note_on_c, 0, 64, 56
1, 86669, Note_on_c, 0, 72, 61
1, 86678, Control_c, 0, 64, 63
1, 86694, Control_c, 0, 64, 66
1, 86708, Note_off_c, 0, 64, 64
1, 86709, Control_c, 0, 64, 71
1, 86724, Control_c, 0, 64, 78
1, 86738, Note_off_c, 0, 72, 61
1, 86738, Control_c, 0, 64, 88
1, 86753, Control_c, 0, 64, 104
1, 86768, Control_c, 0, 64, 127
1, 86816, Note_on_c, 0, 73, 76
1, 86820, Note_on_c, 0, 60, 52
1, 86821, Note_on_c, 0, 64, 59
1, 86823, Note_on_c, 0, 55, 49
1, 86823, Note_on_c, 0, 58, 55
1, 86853, Note_off_c, 0, 64, 65
1, 86856, Note_off_c, 0, 60, 64
1, 86858, Note_off_c, 0, 58, 65
1, 86876, Note_off_c, 0, 55, 59
1, 86878, Note_off_c, 0, 73, 63
1, 86948, Note_on_c, 0, 64, 64
1, 86949, Note_on_c, 0, 72, 67
1, 86953, Note_on_c, 0, 60, 53
1, 86954, Note_on_c, 0, 58, 57
1, 86999, Note_off_c, 0, 48, 38
1, 87005, Control_c, 0, 64, 81
1, 87020, Note_off_c, 0, 72, 62
1, 87020, Control_c, 0, 64, 63
1, 87032, Note_off_c, 0, 64, 49
1, 87034, Control_c, 0, 64, 48
1, 87035, Poly_aftertouch_c, 0, 55, 127
1, 87040, Note_on_c, 0, 70, 66
1, 87043, Note_off_c, 0, 60, 49
1, 87064, Control_c, 0, 64, 51
1, 87073, Note_off_c, 0, 70, 63
1, 87079, Control_c, 0, 64, 57
1, 87085, Note_on_c, 0, 72, 74
1, 87094, Control_c, 0, 64, 64
1, 87101, Note_on_c, 0, 53, 64
1, 87109, Control_c, 0, 64, 71
1, 87122, Note_on_c, 0, 70, 71
1, 87124, Control_c, 0, 64, 82
1, 87138, Control_c, 0, 64, 101
1, 87139, Note_off_c, 0, 58, 59
1, 87153, Control_c, 0, 64, 127
1, 87160, Note_off_c, 0, 72, 58
1, 87176, Poly_aftertouch_c, 0, 55, 0
1, 87206, Note_off_c, 0, 70, 59
1, 87260, Note_on_c, 0, 65, 68
1, 87260, Note_on_c, 0, 68, 74
1, 87262, Note_on_c, 0, 56, 66
1, 87270, Note_on_c, 0, 60, 59
1, 87292, Note_off_c, 0, 65, 63
1, 87301, Note_off_c, 0, 60, 65
1, 87321, Note_off_c, 0, 56, 61
1, 87321, Note_off_c, 0, 68, 61
1, 87396, Note_on_c, 0, 70, 73
1, 87399, Note_on_c, 0, 56, 57
1, 87403, Note_on_c, 0, 68, 62
1, 87404, Note_on_c, 0, 52, 63
1, 87412, Note_on_c, 0, 62, 53
1, 87425, Note_off_c, 0, 53, 60
1, 87435, Note_off_c, 0, 68, 61
1, 87449, Note_off_c, 0, 62, 63
1, 87454, Note_off_c, 0, 70, 62
1, 87469, Note_off_c, 0, 52, 63
1, 87476, Note_off_c, 0, 56, 63
1, 87532, Control_c, 0, 64, 84
1, 87547, Control_c, 0, 64, 66
1, 87547, Note_on_c, 0, 72, 74
1, 87558, Note_on_c, 0, 63, 61
1, 87558, Note_on_c, 0, 68, 61
1, 87560, Note_on_c, 0, 51, 64
1, 87561, Control_c, 0, 64, 57
1, 87563, Note_on_c, 0, 56, 58
1, 87576, Control_c, 0, 64, 59
1, 87591, Control_c, 0, 64, 63
1, 87592, Note_off_c, 0, 63, 64
1, 87606, Control_c, 0, 64, 68
1, 87615, Note_off_c, 0, 72, 62
1, 87621, Control_c, 0, 64, 80
1, 87624, Note_off_c, 0, 56, 62
1, 87632, Note_off_c, 0, 51, 64
1, 87635, Control_c, 0, 64, 127
1, 87670, Note_off_c, 0, 68, 0
1, 87690, Note_on_c, 0, 68, 24
1, 87693, Note_on_c, 0, 65, 65
1, 87693, Note_on_c, 0, 73, 79
1, 87702, Note_on_c, 0, 56, 67
1, 87704, Note_on_c, 0, 51, 63
1, 87722, Note_off_c, 0, 65, 65
1, 87743, Note_off_c, 0, 73, 65
1, 87745, Note_off_c, 0, 68, 59
1, 87760, Note_off_c, 0, 51, 61
1, 87771, Note_off_c, 0, 56, 63
1, 87826, Note_on_c, 0, 72, 65
1, 87830, Note_on_c, 0, 63, 58
1, 87837, Note_on_c, 0, 56, 68
1, 87842, Note_on_c, 0, 51, 66
1, 87901, Note_off_c, 0, 72, 63
1, 87913, Note_on_c, 0, 70, 72
1, 87914, Note_off_c, 0, 56, 63
1, 87915, Note_off_c, 0, 51, 60
1, 87924, Note_off_c, 0, 63, 52
1, 87939, Control_c, 0, 64, 85
1, 87954, Control_c, 0, 64, 64
1, 87955, Note_off_c, 0, 70, 62
1, 87967, Note_on_c, 0, 72, 65
1, 87968, Control_c, 0, 64, 51
1, 87983, Control_c, 0, 64, 56
1, 87991, Note_on_c, 0, 56, 68
1, 87994, Note_on_c, 0, 62, 67
1, 87997, Note_on_c, 0, 51, 44
1, 87998, Control_c, 0, 64, 63
1, 88007, Note_on_c, 0, 70, 70
1, 88012, Control_c, 0, 64, 71
1, 88023, Note_off_c, 0, 62, 69
1, 88027, Control_c, 0, 64, 94
1, 88040, Note_off_c, 0, 72, 64
1, 88042, Control_c, 0, 64, 127
1, 88054, Note_off_c, 0, 56, 64
1, 88063, Note_off_c, 0, 51, 57
1, 88067, Note_off_c, 0, 70, 63
1, 88121, Note_on_c, 0, 56, 71
1, 88128, Note_on_c, 0, 64, 74
1, 88128, Note_on_c, 0, 68, 82
1, 88132, Note_on_c, 0, 61, 70
1, 88158, Note_off_c, 0, 64, 65
1, 88197, Note_off_c, 0, 61, 60
1, 88225, Note_off_c, 0, 68, 52
1, 88266, Note_off_c, 0, 56, 55
1, 88268, Note_on_c, 0, 70, 87
1, 88271, Note_on_c, 0, 63, 83
1, 88273, Note_on_c, 0, 51, 76
1, 88288, Note_on_c, 0, 55, 29
1, 88324, Note_off_c, 0, 51, 62
1, 88324, Note_off_c, 0, 55, 52
1, 88370, Control_c, 0, 64, 93
1, 88385, Control_c, 0, 64, 67
1, 88400, Control_c, 0, 64, 52
1, 88412, Note_off_c, 0, 63, 55
1, 88415, Control_c, 0, 64, 55
1, 88430, Note_on_c, 0, 44, 82
1, 88430, Note_on_c, 0, 72, 84
1, 88430, Control_c, 0, 64, 60
1, 88444, Control_c, 0, 64, 66
1, 88446, Note_off_c, 0, 70, 65
1, 88459, Control_c, 0, 64, 75
1, 88474, Control_c, 0, 64, 100
1, 88489, Control_c, 0, 64, 127
1, 88501, Note_off_c, 0, 44, 63
1, 88581, Note_on_c, 0, 73, 84
1, 88583, Note_on_c, 0, 66, 71
1, 88587, Note_on_c, 0, 56, 74
1, 88588, Note_on_c, 0, 63, 77
1, 88595, Note_off_c, 0, 72, 60
1, 88620, Note_off_c, 0, 63, 60
1, 88620, Note_off_c, 0, 66, 61
1, 88644, Note_off_c, 0, 73, 64
1, 88652, Note_off_c, 0, 56, 63
1, 88703, Poly_aftertouch_c, 0, 56, 0
1, 88710, Note_on_c, 0, 56, 65
1, 88713, Note_on_c, 0, 72, 74
1, 88716, Note_on_c, 0, 66, 72
1, 88718, Note_on_c, 0, 63, 60
1, 88736, Note_off_c, 0, 63, 65
1, 88759, Note_off_c, 0, 66, 49
1, 88765, Note_off_c, 0, 56, 64
1, 88772, Note_off_c, 0, 72, 62
1, 88781, Note_on_c, 0, 70, 81
1, 88784, Poly_aftertouch_c, 0, 54, 127
1, 88792, Control_c, 0, 64, 97
1, 88807, Control_c, 0, 64, 69
1, 88815, Poly_aftertouch_c, 0, 54, 0
1, 88821, Note_off_c, 0, 70, 58
1, 88822, Control_c, 0, 64, 52
1, 88834, Note_on_c, 0, 72, 47
1, 88837, Control_c, 0, 64, 45
1, 88851, Control_c, 0, 64, 50
1, 88853, Note_on_c, 0, 44, 84
1, 88864, Note_on_c, 0, 70, 82
1, 88866, Control_c, 0, 64, 58
1, 88881, Control_c, 0, 64, 65
1, 88896, Control_c, 0, 64, 74
1, 88907, Note_off_c, 0, 44, 63
1, 88908, Note_off_c, 0, 72, 64
1, 88911, Control_c, 0, 64, 89
1, 88925, Control_c, 0, 64, 114
1, 88940, Control_c, 0, 64, 127
1, 88946, Note_off_c, 0, 70, 63
1, 88996, Note_on_c, 0, 68, 83
1, 88997, Note_on_c, 0, 61, 69
1, 88998, Note_on_c, 0, 66, 76
1, 89002, Note_on_c, 0, 56, 70
1, 89041, Note_off_c, 0, 61, 57
1, 89053, Note_off_c, 0, 66, 62
1, 89067, Note_off_c, 0, 56, 63
1, 89108, Note_off_c, 0, 68, 57
1, 89133, Note_on_c, 0, 70, 88
1, 89135, Note_on_c, 0, 56, 66
1, 89139, Note_on_c, 0, 61, 59
1, 89141, Note_on_c, 0, 66, 80
1, 89166, Note_off_c, 0, 61, 63
1, 89181, Note_off_c, 0, 56, 64
1, 89258, Note_off_c, 0, 66, 45
1, 89267, Control_c, 0, 64, 90
1, 89282, Control_c, 0, 64, 65
1, 89291, Note_on_c, 0, 72, 82
1, 89297, Control_c, 0, 64, 48
1, 89301, Note_on_c, 0, 44, 83
1, 89312, Control_c, 0, 64, 48
1, 89322, Note_off_c, 0, 70, 60
1, 89327, Control_c, 0, 64, 55
1, 89341, Control_c, 0, 64, 62
1, 89356, Control_c, 0, 64, 70
1, 89371, Control_c, 0, 64, 85
1, 89376, Note_off_c, 0, 44, 62
1, 89386, Control_c, 0, 64, 127
1, 89448, Note_on_c, 0, 73, 89
1, 89455, Note_on_c, 0, 66, 79
1, 89464, Note_on_c, 0, 56, 72
1, 89466, Note_on_c, 0, 60, 75
1, 89471, Note_off_c, 0, 72, 62
1, 89485, Note_off_c, 0, 66, 60
1, 89497, Note_off_c, 0, 60, 64
1, 89515, Note_off_c, 0, 73, 62
1, 89529, Note_off_c, 0, 56, 63
1, 89583, Note_on_c, 0, 56, 69
1, 89583, Note_on_c, 0, 66, 79
1, 89583, Note_on_c, 0, 75, 88
1, 89595, Note_on_c, 0, 60, 65
1, 89622, Note_off_c, 0, 60, 65
1, 89637, Note_off_c, 0, 66, 62
1, 89658, Control_c, 0, 64, 85
1, 89673, Control_c, 0, 64, 63
1, 89676, Note_off_c, 0, 75, 59
1, 89688, Control_c, 0, 64, 47
1, 89693, Note_off_c, 0, 56, 59
1, 89703, Control_c, 0, 64, 48
1, 89712, Note_on_c, 0, 49, 73
1, 89718, Control_c, 0, 64, 54
1, 89723, Note_on_c, 0, 77, 90
1, 89725, Note_on_c, 0, 65, 84
1, 89732, Control_c, 0, 64, 63
1, 89747, Control_c, 0, 64, 73
1, 89762, Control_c, 0, 64, 105
1, 89777, Note_off_c, 0, 65, 63
1, 89777, Control_c, 0, 64, 127
1, 89836, Note_off_c, 0, 77, 57
1, 89852, Note_on_c, 0, 56, 71
1, 89854, Note_on_c, 0, 61, 72
1, 89854, Note_on_c, 0, 72, 87
1, 89857, Note_on_c, 0, 65, 84
1, 89902, Note_off_c, 0, 65, 62
1, 89918, Note_off_c, 0, 56, 63
1, 89923, Note_off_c, 0, 61, 61
1, 89936, Note_off_c, 0, 72, 61
1, 89995, Note_on_c, 0, 73, 91
1, 89997, Note_on_c, 0, 65, 85
1, 90007, Note_on_c, 0, 56, 81
1, 90011, Note_off_c, 0, 49, 57
1, 90021, Note_off_c, 0, 65, 64
1, 90048, Note_off_c, 0, 73, 65
1, 90178, Control_c, 0, 64, 72
1, 90192, Note_on_c, 0, 48, 66
1, 90200, Control_c, 0, 64, 52
1, 90215, Control_c, 0, 64, 40
1, 90223, Note_on_c, 0, 69, 93
1, 90223, Note_on_c, 0, 81, 95
1, 90230, Control_c, 0, 64, 45
1, 90245, Control_c, 0, 64, 54
1, 90256, Note_off_c, 0, 56, 60
1, 90260, Control_c, 0, 64, 63
1, 90275, Control_c, 0, 64, 74
1, 90276, Note_off_c, 0, 48, 64
1, 90289, Control_c, 0, 64, 97
1, 90304, Control_c, 0, 64, 127
1, 90406, Note_on_c, 0, 75, 78
1, 90407, Note_on_c, 0, 66, 65
1, 90409, Note_on_c, 0, 63, 63
1, 90421, Note_off_c, 0, 81, 65
1, 90429, Note_off_c, 0, 69, 63
1, 90443, Note_off_c, 0, 66, 61
1, 90550, Note_off_c, 0, 75, 62
1, 90585, Note_on_c, 0, 80, 84
1, 90585, Note_on_c, 0, 68, 90
1, 90600, Note_on_c, 0, 56, 71
1, 90603, Note_off_c, 0, 63, 61
1, 90643, Note_off_c, 0, 56, 61
1, 90688, Note_off_c, 0, 68, 57
1, 90728, Note_off_c, 0, 80, 57
1, 90811, Note_on_c, 0, 49, 58
1, 90823, Note_on_c, 0, 82, 86
1, 90823, Control_c, 0, 64, 116
1, 90828, Note_on_c, 0, 70, 82
1, 90838, Control_c, 0, 64, 75
1, 90853, Control_c, 0, 64, 58
1, 90868, Control_c, 0, 64, 44
1, 90883, Control_c, 0, 64, 45
1, 90898, Control_c, 0, 64, 50
1, 90912, Control_c, 0, 64, 60
1, 90927, Control_c, 0, 64, 67
1, 90949, Control_c, 0, 64, 79
1, 90964, Control_c, 0, 64, 107
1, 90965, Note_off_c, 0, 49, 63
1, 90979, Control_c, 0, 64, 127
1, 91033, Note_on_c, 0, 73, 62
1, 91050, Note_off_c, 0, 82, 63
1, 91051, Note_on_c, 0, 65, 61
1, 91054, Note_on_c, 0, 61, 56
1, 91056, Note_off_c, 0, 70, 57
1, 91090, Note_off_c, 0, 65, 60
1, 91130, Note_off_c, 0, 73, 51
1, 91238, Note_on_c, 0, 56, 50
1, 91239, Note_on_c, 0, 80, 63
1, 91243, Note_off_c, 0, 61, 26
1, 91251, Note_on_c, 0, 68, 49
1, 91312, Note_off_c, 0, 56, 61
1, 91315, Note_off_c, 0, 68, 52
1, 91393, Control_c, 0, 64, 113
1, 91408, Control_c, 0, 64, 74
1, 91423, Note_on_c, 0, 46, 64
1, 91423, Control_c, 0, 64, 56
1, 91427, Note_on_c, 0, 74, 63
1, 91437, Control_c, 0, 64, 43
1, 91445, Note_on_c, 0, 68, 58
1, 91452, Control_c, 0, 64, 50
1, 91466, Note_off_c, 0, 46, 64
1, 91467, Control_c, 0, 64, 60
1, 91481, Note_off_c, 0, 68, 64
1, 91483, Control_c, 0, 64, 68
1, 91498, Control_c, 0, 64, 80
1, 91510, Note_off_c, 0, 80, 61
1, 91513, Control_c, 0, 64, 127
1, 91572, Note_on_c, 0, 65, 64
1, 91573, Note_on_c, 0, 58, 66
1, 91574, Note_on_c, 0, 75, 77
1, 91579, Note_on_c, 0, 68, 71
1, 91608, Note_off_c, 0, 65, 61
1, 91612, Note_off_c, 0, 74, 59
1, 91615, Note_off_c, 0, 68, 60
1, 91634, Note_off_c, 0, 58, 62
1, 91667, Note_off_c, 0, 75, 60
1, 91702, Note_on_c, 0, 58, 66
1, 91705, Note_on_c, 0, 77, 84
1, 91709, Note_on_c, 0, 68, 82
1, 91720, Note_on_c, 0, 65, 22
1, 91753, Note_off_c, 0, 65, 51
1, 91762, Note_off_c, 0, 68, 60
1, 91773, Note_off_c, 0, 58, 63
1, 91786, Note_off_c, 0, 77, 62
1, 91803, Control_c, 0, 64, 83
1, 91817, Control_c, 0, 64, 62
1, 91832, Control_c, 0, 64, 44
1, 91840, Note_on_c, 0, 51, 75
1, 91847, Control_c, 0, 64, 49
1, 91848, Note_on_c, 0, 78, 92
1, 91849, Note_on_c, 0, 66, 81
1, 91861, Control_c, 0, 64, 60
1, 91876, Control_c, 0, 64, 67
1, 91891, Control_c, 0, 64, 81
1, 91905, Note_off_c, 0, 66, 62
1, 91906, Control_c, 0, 64, 127
1, 91953, Note_off_c, 0, 78, 60
1, 91966, Note_on_c, 0, 74, 84
1, 91971, Note_on_c, 0, 58, 71
1, 91971, Note_on_c, 0, 63, 66
1, 91972, Note_on_c, 0, 66, 79
1, 92016, Note_off_c, 0, 66, 59
1, 92025, Note_off_c, 0, 63, 60
1, 92030, Note_off_c, 0, 58, 62
1, 92054, Note_off_c, 0, 74, 55
1, 92103, Note_off_c, 0, 51, 60
1, 92108, Note_on_c, 0, 75, 88
1, 92110, Note_on_c, 0, 58, 71
1, 92117, Note_on_c, 0, 66, 81
1, 92156, Note_off_c, 0, 66, 59
1, 92184, Note_off_c, 0, 75, 62
1, 92252, Note_on_c, 0, 50, 68
1, 92261, Control_c, 0, 64, 82
1, 92277, Control_c, 0, 64, 61
1, 92292, Control_c, 0, 64, 43
1, 92296, Note_on_c, 0, 71, 86
1, 92298, Note_on_c, 0, 83, 84
1, 92304, Note_off_c, 0, 58, 62
1, 92307, Control_c, 0, 64, 51
1, 92316, Note_off_c, 0, 50, 62
1, 92322, Control_c, 0, 64, 61
1, 92337, Control_c, 0, 64, 68
1, 92351, Control_c, 0, 64, 80
1, 92366, Control_c, 0, 64, 107
1, 92381, Control_c, 0, 64, 127
1, 92446, Note_on_c, 0, 68, 71
1, 92448, Note_on_c, 0, 77, 74
1, 92449, Note_off_c, 0, 71, 62
1, 92478, Note_off_c, 0, 83, 64
1, 92479, Note_on_c, 0, 82, 45
1, 92488, Note_on_c, 0, 64, 33
1, 92488, Note_on_c, 0, 65, 22
1, 92498, Note_on_c, 0, 78, 49
1, 92510, Note_off_c, 0, 82, 62
1, 92538, Note_off_c, 0, 68, 59
1, 92590, Note_on_c, 0, 58, 76
1, 92594, Note_on_c, 0, 70, 90
1, 92596, Note_on_c, 0, 82, 89
1, 92600, Note_off_c, 0, 78, 61
1, 92606, Note_off_c, 0, 65, 35
1, 92612, Note_off_c, 0, 64, 27
1, 92635, Note_off_c, 0, 77, 55
1, 92640, Note_off_c, 0, 58, 60
1, 92684, Note_off_c, 0, 70, 61
1, 92701, Note_off_c, 0, 82, 63
1, 92788, Control_c, 0, 64, 82
1, 92794, Note_on_c, 0, 51, 65
1, 92803, Control_c, 0, 64, 63
1, 92808, Note_on_c, 0, 71, 86
1, 92810, Note_on_c, 0, 83, 86
1, 92818, Control_c, 0, 64, 47
1, 92832, Control_c, 0, 64, 52
1, 92847, Control_c, 0, 64, 60
1, 92862, Control_c, 0, 64, 65
1, 92877, Control_c, 0, 64, 74
1, 92892, Control_c, 0, 64, 91
1, 92897, Note_off_c, 0, 51, 62
1, 92907, Control_c, 0, 64, 127
1, 92994, Note_on_c, 0, 66, 64
1, 93001, Note_on_c, 0, 63, 58
1, 93003, Note_on_c, 0, 75, 74
1, 93015, Note_off_c, 0, 71, 61
1, 93018, Note_off_c, 0, 83, 62
1, 93031, Note_off_c, 0, 66, 60
1, 93087, Note_off_c, 0, 75, 57
1, 93095, Poly_aftertouch_c, 0, 78, 127
1, 93132, Poly_aftertouch_c, 0, 78, 0
1, 93144, Note_on_c, 0, 58, 60
1, 93150, Note_on_c, 0, 70, 86
1, 93151, Note_on_c, 0, 82, 84
1, 93167, Note_off_c, 0, 63, 38
1, 93177, Note_off_c, 0, 58, 65
1, 93237, Note_off_c, 0, 70, 62
1, 93246, Note_off_c, 0, 82, 64
1, 93300, Control_c, 0, 64, 96
1, 93314, Control_c, 0, 64, 70
1, 93321, Note_on_c, 0, 48, 63
1, 93329, Control_c, 0, 64, 57
1, 93344, Control_c, 0, 64, 56
1, 93345, Note_on_c, 0, 69, 83
1, 93345, Note_on_c, 0, 81, 80
1, 93359, Control_c, 0, 64, 61
1, 93362, Note_off_c, 0, 48, 64
1, 93374, Control_c, 0, 64, 66
1, 93388, Control_c, 0, 64, 76
1, 93403, Control_c, 0, 64, 103
1, 93418, Control_c, 0, 64, 127
1, 93488, Note_on_c, 0, 66, 63
1, 93491, Note_on_c, 0, 75, 72
1, 93495, Note_on_c, 0, 63, 57
1, 93495, Note_off_c, 0, 69, 64
1, 93500, Note_off_c, 0, 81, 64
1, 93520, Note_off_c, 0, 66, 64
1, 93549, Note_off_c, 0, 63, 52
1, 93584, Note_off_c, 0, 75, 59
1, 93611, Note_on_c, 0, 56, 73
1, 93621, Note_on_c, 0, 68, 86
1, 93622, Note_on_c, 0, 80, 82
1, 93649, Note_off_c, 0, 56, 64
1, 93684, Note_off_c, 0, 68, 61
1, 93691, Note_off_c, 0, 80, 65
1, 93714, Control_c, 0, 64, 71
1, 93729, Control_c, 0, 64, 54
1, 93742, Note_on_c, 0, 49, 72
1, 93744, Control_c, 0, 64, 52
1, 93759, Control_c, 0, 64, 61
1, 93760, Note_on_c, 0, 67, 90
1, 93761, Note_on_c, 0, 79, 84
1, 93774, Control_c, 0, 64, 67
1, 93788, Control_c, 0, 64, 82
1, 93799, Note_off_c, 0, 49, 64
1, 93803, Control_c, 0, 64, 127
1, 93866, Note_on_c, 0, 65, 74
1, 93871, Note_off_c, 0, 67, 53
1, 93874, Note_on_c, 0, 61, 69
1, 93885, Note_on_c, 0, 73, 82
1, 93891, Note_off_c, 0, 79, 66
1, 93919, Note_off_c, 0, 65, 56
1, 93960, Note_off_c, 0, 73, 62
1, 94001, Note_on_c, 0, 56, 72
1, 94013, Note_off_c, 0, 61, 60
1, 94028, Note_on_c, 0, 80, 85
1, 94029, Note_on_c, 0, 68, 86
1, 94061, Note_off_c, 0, 56, 63
1, 94082, Note_off_c, 0, 68, 62
1, 94095, Note_off_c, 0, 80, 65
1, 94123, Control_c, 0, 64, 94
1, 94137, Control_c, 0, 64, 66
1, 94152, Note_on_c, 0, 46, 77
1, 94152, Control_c, 0, 64, 50
1, 94160, Note_on_c, 0, 67, 92
1, 94162, Note_on_c, 0, 79, 88
1, 94167, Control_c, 0, 64, 51
1, 94182, Control_c, 0, 64, 60
1, 94197, Control_c, 0, 64, 68
1, 94206, Note_off_c, 0, 46, 64
1, 94211, Control_c, 0, 64, 83
1, 94226, Control_c, 0, 64, 127
1, 94283, Note_off_c, 0, 67, 53
1, 94287, Note_on_c, 0, 73, 82
1, 94287, Note_on_c, 0, 64, 73
1, 94289, Note_off_c, 0, 79, 65
1, 94299, Note_on_c, 0, 61, 57
1, 94317, Note_off_c, 0, 64, 61
1, 94340, Note_off_c, 0, 61, 44
1, 94384, Note_off_c, 0, 73, 60
1, 94403, Note_on_c, 0, 54, 72
1, 94424, Note_on_c, 0, 78, 85
1, 94425, Note_on_c, 0, 66, 88
1, 94455, Note_off_c, 0, 54, 63
1, 94485, Note_off_c, 0, 66, 62
1, 94502, Note_off_c, 0, 78, 64
1, 94508, Control_c, 0, 64, 81
1, 94522, Control_c, 0, 64, 61
1, 94537, Control_c, 0, 64, 46
1, 94549, Note_on_c, 0, 47, 69
1, 94552, Control_c, 0, 64, 54
1, 94560, Note_on_c, 0, 65, 84
1, 94562, Note_on_c, 0, 77, 84
1, 94567, Control_c, 0, 64, 62
1, 94582, Control_c, 0, 64, 70
1, 94587, Note_off_c, 0, 47, 64
1, 94597, Control_c, 0, 64, 87
1, 94611, Control_c, 0, 64, 127
1, 94649, Poly_aftertouch_c, 0, 48, 0
1, 94681, Note_on_c, 0, 71, 76
1, 94683, Note_off_c, 0, 65, 61
1, 94683, Note_off_c, 0, 77, 64
1, 94687, Note_on_c, 0, 63, 78
1, 94728, Note_on_c, 0, 59, 19
1, 94734, Note_on_c, 0, 60, 38
1, 94745, Note_on_c, 0, 73, 14
1, 94762, Note_off_c, 0, 63, 59
1, 94768, Note_off_c, 0, 60, 52
1, 94788, Note_off_c, 0, 73, 51
1, 94792, Note_off_c, 0, 59, 48
1, 94795, Note_off_c, 0, 71, 49
1, 94812, Note_on_c, 0, 54, 77
1, 94817, Note_on_c, 0, 78, 87
1, 94822, Note_on_c, 0, 66, 82
1, 94844, Note_off_c, 0, 54, 66
1, 94880, Note_off_c, 0, 66, 63
1, 94897, Note_off_c, 0, 78, 65
1, 94916, Control_c, 0, 64, 78
1, 94931, Control_c, 0, 64, 55
1, 94946, Control_c, 0, 64, 45
1, 94949, Note_on_c, 0, 44, 76
1, 94955, Note_on_c, 0, 65, 84
1, 94960, Control_c, 0, 64, 52
1, 94961, Note_on_c, 0, 77, 83
1, 94975, Control_c, 0, 64, 60
1, 94990, Control_c, 0, 64, 67
1, 95005, Control_c, 0, 64, 83
1, 95006, Note_off_c, 0, 44, 63
1, 95020, Control_c, 0, 64, 127
1, 95083, Note_on_c, 0, 62, 82
1, 95089, Note_on_c, 0, 71, 83
1, 95106, Note_on_c, 0, 60, 59
1, 95106, Note_off_c, 0, 65, 61
1, 95106, Note_off_c, 0, 77, 61
1, 95121, Note_on_c, 0, 59, 33
1, 95147, Note_off_c, 0, 71, 63
1, 95149, Note_off_c, 0, 62, 58
1, 95159, Note_off_c, 0, 60, 57
1, 95204, Note_on_c, 0, 52, 75
1, 95216, Note_on_c, 0, 64, 92
1, 95217, Note_on_c, 0, 76, 93
1, 95224, Note_on_c, 0, 54, 16
1, 95238, Note_off_c, 0, 59, 38
1, 95244, Note_on_c, 0, 53, 8
1, 95254, Note_off_c, 0, 52, 63
1, 95264, Note_off_c, 0, 64, 64
1, 95266, Note_off_c, 0, 54, 54
1, 95275, Note_off_c, 0, 76, 63
1, 95296, Note_off_c, 0, 53, 49
1, 95301, Control_c, 0, 64, 94
1, 95315, Control_c, 0, 64, 66
1, 95330, Control_c, 0, 64, 47
1, 95342, Note_on_c, 0, 43, 87
1, 95345, Control_c, 0, 64, 49
1, 95347, Note_on_c, 0, 64, 93
1, 95349, Note_on_c, 0, 76, 94
1, 95360, Control_c, 0, 64, 56
1, 95371, Note_off_c, 0, 43, 70
1, 95375, Control_c, 0, 64, 64
1, 95390, Control_c, 0, 64, 76
1, 95405, Control_c, 0, 64, 119
1, 95426, Control_c, 0, 64, 127
1, 95488, Note_on_c, 0, 70, 82
1, 95492, Note_on_c, 0, 58, 73
1, 95494, Note_on_c, 0, 61, 78
1, 95497, Note_off_c, 0, 76, 63
1, 95499, Note_off_c, 0, 64, 63
1, 95584, Note_off_c, 0, 61, 60
1, 95596, Note_off_c, 0, 70, 61
1, 95602, Note_on_c, 0, 52, 80
1, 95611, Note_off_c, 0, 58, 62
1, 95617, Note_on_c, 0, 63, 94
1, 95617, Note_on_c, 0, 75, 94
1, 95647, Note_off_c, 0, 52, 65
1, 95677, Note_off_c, 0, 63, 61
1, 95698, Note_off_c, 0, 75, 60
1, 95723, Control_c, 0, 64, 81
1, 95738, Control_c, 0, 64, 60
1, 95748, Note_on_c, 0, 44, 86
1, 95753, Control_c, 0, 64, 44
1, 95758, Note_on_c, 0, 63, 93
1, 95761, Note_on_c, 0, 75, 89
1, 95768, Control_c, 0, 64, 53
1, 95782, Control_c, 0, 64, 62
1, 95797, Control_c, 0, 64, 74
1, 95812, Control_c, 0, 64, 127
1, 95824, Note_off_c, 0, 44, 63
1, 95888, Note_off_c, 0, 63, 61
1, 95893, Note_on_c, 0, 60, 79
1, 95897, Note_on_c, 0, 69, 87
1, 95900, Note_on_c, 0, 57, 70
1, 95918, Note_off_c, 0, 75, 61
1, 95941, Note_off_c, 0, 60, 64
1, 95997, Note_off_c, 0, 69, 57
1, 96031, Note_on_c, 0, 50, 69
1, 96036, Note_on_c, 0, 52, 65
1, 96036, Note_off_c, 0, 57, 63
1, 96039, Note_on_c, 0, 62, 93
1, 96040, Note_on_c, 0, 74, 91
1, 96063, Note_off_c, 0, 52, 65
1, 96066, Note_off_c, 0, 50, 66
1, 96091, Note_off_c, 0, 62, 63
1, 96102, Note_off_c, 0, 74, 61
1, 96153, Control_c, 0, 64, 74
1, 96174, Control_c, 0, 64, 56
1, 96189, Control_c, 0, 64, 45
1, 96204, Note_on_c, 0, 41, 87
1, 96204, Control_c, 0, 64, 54
1, 96211, Note_on_c, 0, 74, 97
1, 96212, Note_on_c, 0, 62, 97
1, 96219, Control_c, 0, 64, 62
1, 96234, Control_c, 0, 64, 70
1, 96248, Note_on_c, 0, 40, 29
1, 96248, Control_c, 0, 64, 85
1, 96263, Control_c, 0, 64, 127
1, 96269, Note_off_c, 0, 41, 65
1, 96293, Note_off_c, 0, 40, 49
1, 96399, Note_on_c, 0, 56, 79
1, 96403, Note_on_c, 0, 59, 70
1, 96403, Note_on_c, 0, 68, 94
1, 96421, Note_off_c, 0, 74, 64
1, 96427, Note_off_c, 0, 62, 63
1, 96478, Note_off_c, 0, 59, 62
1, 96564, Note_off_c, 0, 56, 59
1, 96586, Note_on_c, 0, 54, 38
1, 96618, Note_on_c, 0, 59, 73
1, 96622, Note_on_c, 0, 49, 77
1, 96625, Note_off_c, 0, 68, 62
1, 96630, Note_on_c, 0, 73, 93
1, 96633, Note_on_c, 0, 61, 93
1, 96639, Note_off_c, 0, 54, 56
1, 96648, Note_off_c, 0, 59, 65
1, 96677, Note_off_c, 0, 49, 62
1, 96683, Note_off_c, 0, 61, 63
1, 96707, Note_off_c, 0, 73, 61
1, 96837, Note_on_c, 0, 73, 75
1, 96890, Note_off_c, 0, 73, 65
1, 96898, Note_on_c, 0, 74, 74
1, 96901, Control_c, 0, 64, 75
1, 96916, Control_c, 0, 64, 34
1, 96938, Control_c, 0, 64, 0
1, 96946, Note_on_c, 0, 73, 91
1, 96955, Note_on_c, 0, 42, 96
1, 96958, Note_on_c, 0, 30, 89
1, 96983, Control_c, 0, 64, 55
1, 96986, Note_off_c, 0, 74, 64
1, 96997, Control_c, 0, 64, 65
1, 97012, Control_c, 0, 64, 75
1, 97021, Note_off_c, 0, 30, 64
1, 97027, Control_c, 0, 64, 93
1, 97042, Control_c, 0, 64, 127
1, 97065, Note_off_c, 0, 42, 61
1, 97223, Note_off_c, 0, 73, 61
1, 97243, Note_on_c, 0, 72, 87
1, 97256, Note_on_c, 0, 54, 62
1, 97258, Note_on_c, 0, 61, 62
1, 97258, Note_on_c, 0, 66, 72
1, 97309, Poly_aftertouch_c, 0, 57, 127
1, 97344, Note_off_c, 0, 54, 60
1, 97345, Note_off_c, 0, 66, 57
1, 97359, Note_off_c, 0, 61, 59
1, 97452, Note_on_c, 0, 73, 90
1, 97459, Note_on_c, 0, 66, 65
1, 97460, Note_on_c, 0, 54, 66
1, 97461, Note_on_c, 0, 61, 64
1, 97461, Note_off_c, 0, 72, 61
1, 97483, Note_off_c, 0, 66, 68
1, 97523, Note_off_c, 0, 73, 63
1, 97565, Note_off_c, 0, 54, 59
1, 97578, Note_off_c, 0, 61, 58
1, 97688, Note_on_c, 0, 78, 91
1, 97700, Note_on_c, 0, 61, 69
1, 97703, Note_on_c, 0, 54, 59
1, 97704, Note_on_c, 0, 66, 66
1, 97873, Note_off_c, 0, 61, 60
1, 97879, Note_off_c, 0, 66, 61
1, 97891, Note_on_c, 0, 75, 5
1, 97894, Note_off_c, 0, 78, 62
1, 97906, Note_off_c, 0, 54, 40
1, 97935, Note_off_c, 0, 75, 35
1, 97957, Note_on_c, 0, 77, 92
1, 97969, Note_on_c, 0, 66, 70
1, 97980, Note_on_c, 0, 61, 72
1, 97988, Note_on_c, 0, 54, 65
1, 98042, Note_off_c, 0, 66, 59
1, 98055, Note_off_c, 0, 54, 61
1, 98055, Note_off_c, 0, 61, 61
1, 98079, Note_off_c, 0, 77, 63
1, 98094, Poly_aftertouch_c, 0, 58, 127
1, 98149, Note_on_c, 0, 76, 94
1, 98159, Note_on_c, 0, 61, 57
1, 98159, Poly_aftertouch_c, 0, 58, 0
1, 98162, Note_on_c, 0, 66, 71
1, 98175, Note_on_c, 0, 55, 55
1, 98186, Note_off_c, 0, 61, 62
1, 98190, Poly_aftertouch_c, 0, 57, 0
1, 98208, Note_off_c, 0, 55, 64
1, 98291, Note_off_c, 0, 66, 35
1, 98326, Control_c, 0, 64, 98
1, 98341, Control_c, 0, 64, 69
1, 98356, Control_c, 0, 64, 45
1, 98359, Note_off_c, 0, 76, 60
1, 98365, Note_on_c, 0, 75, 78
1, 98369, Note_on_c, 0, 47, 53
1, 98370, Control_c, 0, 64, 23
1, 98385, Control_c, 0, 64, 32
1, 98392, Note_on_c, 0, 66, 65
1, 98400, Control_c, 0, 64, 47
1, 98415, Control_c, 0, 64, 57
1, 98437, Control_c, 0, 64, 64
1, 98451, Control_c, 0, 64, 70
1, 98466, Control_c, 0, 64, 82
1, 98472, Note_off_c, 0, 47, 63
1, 98481, Note_off_c, 0, 66, 60
1, 98481, Control_c, 0, 64, 99
1, 98496, Control_c, 0, 64, 127
1, 98543, Note_off_c, 0, 75, 62
1, 98572, Note_on_c, 0, 54, 61
1, 98574, Note_on_c, 0, 62, 60
1, 98577, Note_on_c, 0, 74, 76
1, 98582, Note_on_c, 0, 56, 45
1, 98600, Note_on_c, 0, 66, 58
1, 98623, Note_off_c, 0, 62, 56
1, 98636, Note_off_c, 0, 56, 61
1, 98648, Note_off_c, 0, 54, 63
1, 98648, Note_off_c, 0, 66, 54
1, 98708, Note_off_c, 0, 74, 60
1, 98730, Note_on_c, 0, 73, 78
1, 98733, Note_on_c, 0, 54, 60
1, 98749, Note_on_c, 0, 56, 62
1, 98751, Note_on_c, 0, 66, 69
1, 98753, Note_on_c, 0, 62, 48
1, 98793, Note_off_c, 0, 56, 60
1, 98794, Note_off_c, 0, 62, 60
1, 98803, Note_off_c, 0, 54, 63
1, 98823, Control_c, 0, 64, 81
1, 98824, Note_off_c, 0, 66, 60
1, 98838, Control_c, 0, 64, 63
1, 98853, Control_c, 0, 64, 60
1, 98867, Control_c, 0, 64, 66
1, 98882, Control_c, 0, 64, 74
1, 98889, Note_on_c, 0, 54, 54
1, 98893, Note_on_c, 0, 71, 80
1, 98897, Control_c, 0, 64, 94
1, 98899, Note_on_c, 0, 56, 63
1, 98904, Note_on_c, 0, 62, 50
1, 98906, Note_on_c, 0, 66, 68
1, 98912, Control_c, 0, 64, 127
1, 98931, Note_off_c, 0, 73, 62
1, 98951, Note_off_c, 0, 62, 59
1, 98951, Note_off_c, 0, 54, 64
1, 98961, Note_off_c, 0, 56, 63
1, 98970, Note_off_c, 0, 66, 62
1, 99033, Note_on_c, 0, 73, 91
1, 99036, Note_on_c, 0, 56, 58
1, 99041, Note_on_c, 0, 66, 65
1, 99046, Note_on_c, 0, 54, 56
1, 99057, Note_on_c, 0, 62, 27
1, 99072, Note_off_c, 0, 71, 59
1, 99081, Note_on_c, 0, 59, 33
1, 99086, Note_off_c, 0, 62, 50
1, 99097, Note_off_c, 0, 66, 60
1, 99113, Note_off_c, 0, 56, 63
1, 99115, Note_off_c, 0, 59, 49
1, 99179, Note_on_c, 0, 62, 58
1, 99179, Note_off_c, 0, 54, 0
1, 99188, Note_on_c, 0, 74, 81
1, 99195, Note_on_c, 0, 56, 55
1, 99200, Note_off_c, 0, 73, 58
1, 99200, Note_on_c, 0, 66, 69
1, 99216, Poly_aftertouch_c, 0, 54, 127
1, 99229, Note_off_c, 0, 62, 59
1, 99243, Note_on_c, 0, 59, 6
1, 99261, Note_off_c, 0, 66, 59
1, 99264, Poly_aftertouch_c, 0, 54, 0
1, 99292, Note_off_c, 0, 74, 56
1, 99294, Note_off_c, 0, 59, 46
1, 99364, Control_c, 0, 64, 75
1, 99379, Control_c, 0, 64, 57
1, 99382, Note_on_c, 0, 49, 57
1, 99387, Note_on_c, 0, 68, 67
1, 99392, Note_on_c, 0, 66, 63
1, 99394, Control_c, 0, 64, 36
1, 99397, Note_off_c, 0, 56, 51
1, 99408, Control_c, 0, 64, 38
1, 99423, Control_c, 0, 64, 46
1, 99438, Control_c, 0, 64, 56
1, 99453, Control_c, 0, 64, 63
1, 99468, Control_c, 0, 64, 68
1, 99483, Note_off_c, 0, 68, 62
1, 99484, Control_c, 0, 64, 75
1, 99487, Note_off_c, 0, 66, 62
1, 99498, Control_c, 0, 64, 90
1, 99513, Control_c, 0, 64, 127
1, 99551, Note_on_c, 0, 59, 59
1, 99566, Note_on_c, 0, 67, 70
1, 99579, Note_on_c, 0, 66, 60
1, 99580, Note_on_c, 0, 61, 52
1, 99587, Control_c, 0, 64, 85
1, 99602, Control_c, 0, 64, 75
1, 99607, Note_off_c, 0, 61, 60
1, 99617, Control_c, 0, 64, 83
1, 99622, Note_off_c, 0, 66, 57
1, 99626, Note_off_c, 0, 59, 63
1, 99632, Control_c, 0, 64, 127
1, 99655, Note_off_c, 0, 67, 60
1, 99706, Control_c, 0, 64, 105
1, 99708, Note_on_c, 0, 61, 54
1, 99713, Note_on_c, 0, 68, 74
1, 99721, Note_on_c, 0, 66, 59
1, 99721, Control_c, 0, 64, 81
1, 99723, Note_on_c, 0, 59, 57
1, 99736, Control_c, 0, 64, 66
1, 99736, Poly_aftertouch_c, 0, 51, 127
1, 99745, Note_off_c, 0, 66, 62
1, 99750, Control_c, 0, 64, 59
1, 99754, Note_off_c, 0, 61, 60
1, 99765, Control_c, 0, 64, 64
1, 99768, Note_off_c, 0, 68, 63
1, 99780, Control_c, 0, 64, 73
1, 99781, Note_off_c, 0, 59, 57
1, 99795, Control_c, 0, 64, 85
1, 99810, Control_c, 0, 64, 83
1, 99824, Control_c, 0, 64, 70
1, 99839, Control_c, 0, 64, 59
1, 99854, Control_c, 0, 64, 55
1, 99864, Note_on_c, 0, 74, 73
1, 99868, Control_c, 0, 64, 60
1, 99871, Note_on_c, 0, 56, 57
1, 99874, Note_on_c, 0, 61, 56
1, 99879, Note_on_c, 0, 59, 37
1, 99882, Note_on_c, 0, 65, 34
1, 99883, Control_c, 0, 64, 63
1, 99898, Control_c, 0, 64, 64
1, 99920, Note_off_c, 0, 61, 63
1, 99921, Note_off_c, 0, 65, 55
1, 99935, Note_off_c, 0, 59, 57
1, 99936, Control_c, 0, 64, 65
1, 99938, Note_off_c, 0, 56, 61
1, 99950, Control_c, 0, 64, 70
1, 99954, Note_off_c, 0, 74, 60
1, 99965, Control_c, 0, 64, 77
1, 99980, Control_c, 0, 64, 76
1, 99989, Poly_aftertouch_c, 0, 51, 0
1, 99995, Control_c, 0, 64, 71
1, 100010, Control_c, 0, 64, 68
1, 100013, Note_on_c, 0, 61, 59
1, 100020, Note_on_c, 0, 56, 45
1, 100020, Note_on_c, 0, 59, 41
1, 100023, Note_on_c, 0, 73, 72
1, 100024, Control_c, 0, 64, 71
1, 100025, Poly_aftertouch_c, 0, 51, 127
1, 100037, Note_on_c, 0, 65, 41
1, 100038, Control_c, 0, 64, 83
1, 100053, Control_c, 0, 64, 127
1, 100068, Note_off_c, 0, 61, 56
1, 100070, Note_off_c, 0, 65, 53
1, 100094, Note_off_c, 0, 56, 55
1, 100136, Note_off_c, 0, 73, 60
1, 100172, Poly_aftertouch_c, 0, 51, 0
1, 100177, Note_off_c, 0, 49, 58
1, 100182, Note_on_c, 0, 56, 49
1, 100201, Note_on_c, 0, 61, 55
1, 100204, Note_on_c, 0, 68, 57
1, 100213, Note_on_c, 0, 65, 43
1, 100261, Note_off_c, 0, 59, 15
1, 100266, Note_off_c, 0, 65, 55
1, 100292, Note_off_c, 0, 68, 52
1, 100320, Control_c, 0, 64, 113
1, 100335, Control_c, 0, 64, 101
1, 100350, Control_c, 0, 64, 95
1, 100365, Control_c, 0, 64, 92
1, 100380, Control_c, 0, 64, 90
1, 100392, Note_off_c, 0, 61, 35
1, 100395, Control_c, 0, 64, 86
1, 100408, Note_on_c, 0, 54, 74
1, 100410, Control_c, 0, 64, 80
1, 100425, Control_c, 0, 64, 72
1, 100431, Note_on_c, 0, 71, 65
1, 100440, Control_c, 0, 64, 65
1, 100451, Note_off_c, 0, 56, 63
1, 100454, Control_c, 0, 64, 59
1, 100469, Control_c, 0, 64, 48
1, 100484, Control_c, 0, 64, 33
1, 100499, Control_c, 0, 64, 0
1, 100587, Control_c, 0, 64, 28
1, 100602, Control_c, 0, 64, 41
1, 100617, Control_c, 0, 64, 46
1, 100632, Control_c, 0, 64, 50
1, 100645, Note_on_c, 0, 69, 47
1, 100646, Control_c, 0, 64, 55
1, 100648, Note_on_c, 0, 61, 41
1, 100654, Note_off_c, 0, 71, 50
1, 100661, Control_c, 0, 64, 59
1, 100676, Note_on_c, 0, 57, 39
1, 100684, Control_c, 0, 64, 61
1, 100699, Control_c, 0, 64, 64
1, 100708, Note_off_c, 0, 61, 59
1, 100714, Control_c, 0, 64, 65
1, 100723, Note_off_c, 0, 57, 59
1, 100728, Control_c, 0, 64, 66
1, 100743, Control_c, 0, 64, 68
1, 100758, Control_c, 0, 64, 69
1, 100772, Control_c, 0, 64, 71
1, 100787, Control_c, 0, 64, 72
1, 100802, Control_c, 0, 64, 74
1, 100817, Control_c, 0, 64, 74
1, 100826, Note_off_c, 0, 69, 53
1, 100830, Note_on_c, 0, 61, 44
1, 100837, Note_on_c, 0, 57, 41
1, 100846, Note_on_c, 0, 68, 48
1, 100866, Note_off_c, 0, 61, 58
1, 100899, Note_off_c, 0, 57, 56
1, 100935, Control_c, 0, 64, 74
1, 100950, Control_c, 0, 64, 73
1, 100964, Control_c, 0, 64, 72
1, 100979, Control_c, 0, 64, 71
1, 100981, Note_on_c, 0, 61, 38
1, 100982, Note_off_c, 0, 68, 57
1, 100994, Control_c, 0, 64, 69
1, 101009, Note_on_c, 0, 69, 44
1, 101009, Control_c, 0, 64, 67
1, 101024, Note_on_c, 0, 57, 48
1, 101024, Control_c, 0, 64, 65
1, 101039, Control_c, 0, 64, 63
1, 101048, Note_off_c, 0, 61, 57
1, 101054, Control_c, 0, 64, 61
1, 101069, Control_c, 0, 64, 59
1, 101084, Control_c, 0, 64, 56
1, 101095, Poly_aftertouch_c, 0, 66, 0
1, 101099, Control_c, 0, 64, 52
1, 101114, Control_c, 0, 64, 46
1, 101129, Control_c, 0, 64, 32
1, 101143, Control_c, 0, 64, 0
1, 101177, Note_off_c, 0, 69, 57
1, 101189, Note_on_c, 0, 52, 55
1, 101194, Note_on_c, 0, 71, 52
1, 101194, Note_off_c, 0, 54, 61
1, 101202, Note_off_c, 0, 57, 57
1, 101226, Note_on_c, 0, 66, 9
1, 101259, Note_off_c, 0, 66, 42
1, 101299, Note_off_c, 0, 71, 59
1, 101357, Note_on_c, 0, 50, 53
1, 101358, Note_off_c, 0, 52, 61
1, 101372, Note_on_c, 0, 72, 53
1, 101410, Control_c, 0, 64, 15
1, 101432, Control_c, 0, 64, 26
1, 101447, Control_c, 0, 64, 33
1, 101462, Control_c, 0, 64, 37
1, 101477, Control_c, 0, 64, 41
1, 101492, Control_c, 0, 64, 45
1, 101507, Control_c, 0, 64, 50
1, 101521, Note_off_c, 0, 50, 60
1, 101521, Control_c, 0, 64, 54
1, 101536, Control_c, 0, 64, 58
1, 101551, Control_c, 0, 64, 61
1, 101557, Note_on_c, 0, 49, 44
1, 101560, Note_on_c, 0, 73, 58
1, 101562, Note_off_c, 0, 72, 56
1, 101566, Control_c, 0, 64, 63
1, 101581, Control_c, 0, 64, 65
1, 101595, Control_c, 0, 64, 68
1, 101610, Control_c, 0, 64, 75
1, 101625, Control_c, 0, 64, 88
1, 101627, Note_off_c, 0, 73, 64
1, 101640, Control_c, 0, 64, 106
1, 101641, Note_off_c, 0, 49, 61
1, 101655, Control_c, 0, 64, 127
1, 101725, Note_on_c, 0, 56, 51
1, 101732, Note_on_c, 0, 61, 45
1, 101733, Note_on_c, 0, 74, 53
1, 101737, Note_on_c, 0, 65, 48
1, 101763, Note_off_c, 0, 65, 60
1, 101767, Note_off_c, 0, 61, 60
1, 101771, Note_off_c, 0, 74, 64
1, 101772, Note_off_c, 0, 56, 61
1, 101817, Control_c, 0, 64, 91
1, 101832, Control_c, 0, 64, 70
1, 101833, Poly_aftertouch_c, 0, 59, 127
1, 101841, Note_on_c, 0, 73, 60
1, 101847, Control_c, 0, 64, 59
1, 101863, Control_c, 0, 64, 56
1, 101876, Note_on_c, 0, 56, 54
1, 101878, Control_c, 0, 64, 59
1, 101885, Note_off_c, 0, 73, 55
1, 101892, Control_c, 0, 64, 62
1, 101894, Note_on_c, 0, 61, 10
1, 101907, Control_c, 0, 64, 65
1, 101921, Note_on_c, 0, 71, 60
1, 101922, Control_c, 0, 64, 69
1, 101928, Poly_aftertouch_c, 0, 65, 0
1, 101936, Note_off_c, 0, 61, 46
1, 101936, Control_c, 0, 64, 75
1, 101951, Control_c, 0, 64, 83
1, 101958, Poly_aftertouch_c, 0, 59, 0
1, 101963, Note_off_c, 0, 71, 65
1, 101966, Control_c, 0, 64, 92
1, 101975, Note_on_c, 0, 73, 56
1, 101981, Control_c, 0, 64, 101
1, 101996, Control_c, 0, 64, 127
1, 102011, Note_on_c, 0, 54, 56
1, 102011, Note_on_c, 0, 71, 72
1, 102014, Note_off_c, 0, 56, 59
1, 102058, Note_off_c, 0, 73, 59
1, 102076, Note_off_c, 0, 71, 63
1, 102154, Note_on_c, 0, 61, 48
1, 102156, Note_on_c, 0, 69, 63
1, 102158, Note_on_c, 0, 57, 49
1, 102172, Note_on_c, 0, 66, 55
1, 102197, Note_off_c, 0, 54, 47
1, 102198, Note_off_c, 0, 61, 60
1, 102213, Note_off_c, 0, 66, 62
1, 102238, Note_off_c, 0, 69, 61
1, 102241, Note_off_c, 0, 57, 55
1, 102298, Note_on_c, 0, 66, 62
1, 102307, Note_on_c, 0, 50, 59
1, 102309, Note_on_c, 0, 71, 63
1, 102338, Note_off_c, 0, 66, 63
1, 102344, Control_c, 0, 64, 90
1, 102359, Control_c, 0, 64, 72
1, 102359, Note_off_c, 0, 50, 61
1, 102374, Control_c, 0, 64, 63
1, 102388, Note_off_c, 0, 71, 61
1, 102389, Control_c, 0, 64, 62
1, 102404, Control_c, 0, 64, 63
1, 102418, Control_c, 0, 64, 65
1, 102433, Control_c, 0, 64, 69
1, 102448, Control_c, 0, 64, 76
1, 102451, Note_on_c, 0, 73, 70
1, 102454, Note_on_c, 0, 49, 61
1, 102463, Control_c, 0, 64, 88
1, 102464, Note_on_c, 0, 65, 58
1, 102477, Control_c, 0, 64, 127
1, 102496, Note_off_c, 0, 65, 64
1, 102519, Note_off_c, 0, 73, 63
1, 102594, Note_on_c, 0, 65, 54
1, 102597, Note_on_c, 0, 56, 60
1, 102598, Note_on_c, 0, 74, 64
1, 102606, Note_on_c, 0, 61, 54
1, 102625, Note_off_c, 0, 65, 65
1, 102637, Note_off_c, 0, 61, 63
1, 102641, Note_off_c, 0, 56, 62
1, 102650, Note_off_c, 0, 74, 55
1, 102683, Poly_aftertouch_c, 0, 59, 0
1, 102724, Note_on_c, 0, 61, 56
1, 102728, Note_on_c, 0, 73, 48
1, 102729, Note_on_c, 0, 65, 49
1, 102738, Note_on_c, 0, 56, 55
1, 102752, Note_off_c, 0, 49, 39
1, 102758, Note_off_c, 0, 73, 51
1, 102759, Note_off_c, 0, 65, 56
1, 102760, Control_c, 0, 64, 104
1, 102774, Control_c, 0, 64, 74
1, 102789, Control_c, 0, 64, 60
1, 102795, Note_on_c, 0, 71, 57
1, 102804, Control_c, 0, 64, 54
1, 102811, Poly_aftertouch_c, 0, 59, 0
1, 102819, Control_c, 0, 64, 56
1, 102823, Note_off_c, 0, 61, 56
1, 102827, Note_off_c, 0, 71, 66
1, 102833, Control_c, 0, 64, 60
1, 102840, Note_on_c, 0, 73, 66
1, 102848, Control_c, 0, 64, 64
1, 102863, Control_c, 0, 64, 70
1, 102875, Note_on_c, 0, 71, 82
1, 102878, Note_on_c, 0, 54, 67
1, 102878, Control_c, 0, 64, 83
1, 102893, Note_off_c, 0, 56, 56
1, 102893, Control_c, 0, 64, 121
1, 102908, Control_c, 0, 64, 127
1, 102935, Note_off_c, 0, 73, 61
1, 102936, Note_off_c, 0, 71, 62
1, 103033, Note_on_c, 0, 69, 81
1, 103038, Note_on_c, 0, 61, 64
1, 103039, Note_on_c, 0, 66, 72
1, 103042, Note_on_c, 0, 57, 55
1, 103075, Note_off_c, 0, 61, 61
1, 103082, Note_off_c, 0, 66, 56
1, 103099, Note_off_c, 0, 69, 61
1, 103100, Note_off_c, 0, 54, 52
1, 103166, Note_on_c, 0, 53, 66
1, 103179, Note_on_c, 0, 63, 59
1, 103179, Note_on_c, 0, 71, 75
1, 103192, Note_on_c, 0, 69, 69
1, 103194, Note_off_c, 0, 57, 57
1, 103215, Note_off_c, 0, 63, 64
1, 103235, Note_off_c, 0, 53, 61
1, 103245, Note_off_c, 0, 69, 58
1, 103265, Note_off_c, 0, 71, 61
1, 103286, Control_c, 0, 64, 80
1, 103301, Control_c, 0, 64, 61
1, 103313, Note_on_c, 0, 73, 79
1, 103316, Control_c, 0, 64, 54
1, 103320, Note_on_c, 0, 64, 69
1, 103322, Note_on_c, 0, 52, 59
1, 103325, Note_on_c, 0, 57, 57
1, 103331, Control_c, 0, 64, 59
1, 103346, Control_c, 0, 64, 63
1, 103350, Note_off_c, 0, 64, 67
1, 103361, Control_c, 0, 64, 70
1, 103375, Control_c, 0, 64, 84
1, 103388, Note_off_c, 0, 52, 56
1, 103389, Note_off_c, 0, 57, 64
1, 103390, Control_c, 0, 64, 127
1, 103397, Note_off_c, 0, 73, 54
1, 103449, Note_on_c, 0, 74, 73
1, 103450, Note_on_c, 0, 66, 70
1, 103459, Note_on_c, 0, 57, 64
1, 103463, Note_on_c, 0, 52, 50
1, 103479, Note_off_c, 0, 66, 66
1, 103517, Poly_aftertouch_c, 0, 69, 127
1, 103522, Note_off_c, 0, 57, 63
1, 103524, Note_off_c, 0, 74, 57
1, 103543, Poly_aftertouch_c, 0, 69, 0
1, 103571, Note_on_c, 0, 73, 77
1, 103585, Note_on_c, 0, 57, 67
1, 103587, Note_on_c, 0, 64, 71
1, 103623, Note_off_c, 0, 64, 60
1, 103641, Note_off_c, 0, 73, 64
1, 103654, Note_on_c, 0, 71, 72
1, 103659, Note_on_c, 0, 69, 20
1, 103672, Note_off_c, 0, 57, 58
1, 103680, Control_c, 0, 64, 87
1, 103680, Note_off_c, 0, 52, 47
1, 103695, Control_c, 0, 64, 65
1, 103707, Note_off_c, 0, 69, 46
1, 103710, Control_c, 0, 64, 56
1, 103711, Note_on_c, 0, 73, 66
1, 103713, Note_off_c, 0, 71, 62
1, 103725, Control_c, 0, 64, 62
1, 103728, Note_on_c, 0, 57, 48
1, 103731, Note_on_c, 0, 63, 77
1, 103739, Control_c, 0, 64, 67
1, 103740, Note_on_c, 0, 66, 83
1, 103752, Note_on_c, 0, 52, 36
1, 103754, Control_c, 0, 64, 79
1, 103760, Note_on_c, 0, 71, 65
1, 103769, Control_c, 0, 64, 127
1, 103775, Note_off_c, 0, 57, 63
1, 103785, Note_off_c, 0, 63, 63
1, 103787, Note_off_c, 0, 52, 55
1, 103791, Note_off_c, 0, 66, 59
1, 103817, Note_off_c, 0, 71, 64
1, 103819, Note_off_c, 0, 73, 57
1, 103862, Note_on_c, 0, 56, 71
1, 103865, Note_on_c, 0, 69, 85
1, 103868, Note_on_c, 0, 62, 73
1, 103871, Note_on_c, 0, 65, 78
1, 103877, Note_on_c, 0, 52, 52
1, 103910, Note_off_c, 0, 62, 55
1, 103913, Note_off_c, 0, 65, 60
1, 103917, Note_off_c, 0, 52, 60
1, 103922, Note_off_c, 0, 56, 63
1, 103974, Note_off_c, 0, 69, 61
1, 103999, Note_on_c, 0, 52, 71
1, 104008, Note_on_c, 0, 71, 84
1, 104010, Note_on_c, 0, 56, 65
1, 104013, Note_on_c, 0, 64, 80
1, 104038, Note_off_c, 0, 56, 67
1, 104042, Note_off_c, 0, 52, 64
1, 104123, Control_c, 0, 64, 100
1, 104138, Control_c, 0, 64, 70
1, 104153, Control_c, 0, 64, 53
1, 104175, Note_on_c, 0, 45, 80
1, 104181, Note_on_c, 0, 73, 84
1, 104183, Control_c, 0, 64, 59
1, 104187, Note_off_c, 0, 71, 59
1, 104197, Control_c, 0, 64, 65
1, 104212, Control_c, 0, 64, 76
1, 104227, Control_c, 0, 64, 127
1, 104229, Note_off_c, 0, 45, 64
1, 104240, Note_off_c, 0, 64, 63
1, 104273, Note_off_c, 0, 73, 64
1, 104327, Note_on_c, 0, 74, 79
1, 104329, Note_on_c, 0, 56, 79
1, 104344, Note_on_c, 0, 64, 64
1, 104354, Note_on_c, 0, 60, 51
1, 104374, Note_off_c, 0, 64, 66
1, 104377, Note_off_c, 0, 60, 59
1, 104383, Note_off_c, 0, 56, 65
1, 104401, Note_off_c, 0, 74, 61
1, 104449, Note_on_c, 0, 64, 62
1, 104454, Note_on_c, 0, 57, 83
1, 104458, Note_on_c, 0, 73, 69
1, 104470, Note_on_c, 0, 60, 54
1, 104491, Note_off_c, 0, 60, 59
1, 104502, Control_c, 0, 64, 80
1, 104505, Note_off_c, 0, 57, 65
1, 104517, Note_on_c, 0, 71, 75
1, 104517, Control_c, 0, 64, 59
1, 104523, Note_off_c, 0, 64, 61
1, 104530, Note_off_c, 0, 73, 57
1, 104532, Control_c, 0, 64, 51
1, 104546, Control_c, 0, 64, 55
1, 104555, Note_off_c, 0, 71, 60
1, 104561, Control_c, 0, 64, 61
1, 104576, Control_c, 0, 64, 68
1, 104580, Note_on_c, 0, 73, 57
1, 104591, Control_c, 0, 64, 85
1, 104599, Note_on_c, 0, 44, 92
1, 104604, Note_on_c, 0, 71, 81
1, 104606, Control_c, 0, 64, 127
1, 104655, Note_off_c, 0, 44, 64
1, 104678, Note_off_c, 0, 71, 62
1, 104704, Note_off_c, 0, 73, 62
1, 104754, Note_on_c, 0, 61, 81
1, 104754, Note_on_c, 0, 69, 86
1, 104761, Note_on_c, 0, 56, 70
1, 104765, Note_on_c, 0, 65, 75
1, 104770, Note_on_c, 0, 59, 59
1, 104810, Note_off_c, 0, 61, 61
1, 104817, Note_off_c, 0, 65, 60
1, 104822, Note_off_c, 0, 59, 56
1, 104839, Note_off_c, 0, 56, 62
1, 104860, Note_off_c, 0, 69, 61
1, 104905, Note_on_c, 0, 61, 76
1, 104909, Note_on_c, 0, 71, 92
1, 104914, Note_on_c, 0, 65, 81
1, 104918, Note_on_c, 0, 56, 73
1, 104927, Note_off_c, 0, 61, 67
1, 104934, Note_on_c, 0, 59, 53
1, 104941, Note_on_c, 0, 54, 27
1, 104961, Note_off_c, 0, 59, 55
1, 104974, Note_off_c, 0, 56, 63
1, 104975, Note_off_c, 0, 54, 56
1, 104981, Note_off_c, 0, 65, 52
1, 105096, Control_c, 0, 64, 118
1, 105110, Control_c, 0, 64, 70
1, 105125, Control_c, 0, 64, 43
1, 105131, Note_on_c, 0, 42, 90
1, 105140, Control_c, 0, 64, 16
1, 105146, Note_on_c, 0, 73, 91
1, 105155, Control_c, 0, 64, 30
1, 105176, Control_c, 0, 64, 54
1, 105178, Note_off_c, 0, 71, 62
1, 105191, Control_c, 0, 64, 66
1, 105206, Control_c, 0, 64, 83
1, 105221, Control_c, 0, 64, 127
1, 105256, Note_off_c, 0, 42, 61
1, 105257, Poly_aftertouch_c, 0, 41, 0
1, 105345, Note_off_c, 0, 73, 64
1, 105382, Note_on_c, 0, 72, 94
1, 105388, Note_on_c, 0, 54, 69
1, 105391, Note_on_c, 0, 66, 69
1, 105393, Note_on_c, 0, 61, 64
1, 105394, Note_on_c, 0, 69, 76
1, 105452, Note_off_c, 0, 69, 59
1, 105470, Note_off_c, 0, 54, 61
1, 105473, Note_off_c, 0, 66, 59
1, 105498, Note_off_c, 0, 61, 61
1, 105568, Note_on_c, 0, 73, 97
1, 105573, Note_on_c, 0, 61, 67
1, 105573, Note_on_c, 0, 69, 70
1, 105573, Note_off_c, 0, 72, 60
1, 105580, Note_on_c, 0, 66, 73
1, 105581, Note_on_c, 0, 54, 73
1, 105597, Note_off_c, 0, 69, 70
1, 105631, Note_off_c, 0, 73, 65
1, 105680, Note_off_c, 0, 66, 59
1, 105682, Note_off_c, 0, 54, 63
1, 105859, Note_on_c, 0, 81, 93
1, 105866, Note_on_c, 0, 66, 68
1, 105869, Note_on_c, 0, 54, 70
1, 105869, Note_on_c, 0, 69, 80
1, 105891, Note_on_c, 0, 71, 67
1, 105908, Note_off_c, 0, 71, 64
1, 106032, Note_off_c, 0, 66, 52
1, 106037, Note_off_c, 0, 54, 58
1, 106068, Note_off_c, 0, 69, 63
1, 106101, Note_off_c, 0, 81, 64
1, 106172, Note_on_c, 0, 80, 93
1, 106186, Note_on_c, 0, 54, 62
1, 106190, Note_on_c, 0, 66, 58
1, 106197, Note_on_c, 0, 69, 74
1, 106256, Note_off_c, 0, 69, 59
1, 106259, Note_off_c, 0, 66, 59
1, 106265, Note_off_c, 0, 54, 62
1, 106315, Note_off_c, 0, 80, 62
1, 106395, Note_on_c, 0, 79, 88
1, 106404, Note_on_c, 0, 66, 52
1, 106409, Note_on_c, 0, 54, 56
1, 106413, Note_on_c, 0, 69, 63
1, 106428, Note_off_c, 0, 66, 61
1, 106448, Note_off_c, 0, 61, 60
1, 106452, Note_off_c, 0, 69, 62
1, 106474, Note_off_c, 0, 54, 63
1, 106607, Control_c, 0, 64, 76
1, 106622, Control_c, 0, 64, 57
1, 106623, Note_on_c, 0, 78, 82
1, 106631, Note_on_c, 0, 47, 53
1, 106637, Control_c, 0, 64, 35
1, 106648, Note_off_c, 0, 79, 61
1, 106652, Note_on_c, 0, 68, 50
1, 106652, Control_c, 0, 64, 44
1, 106675, Control_c, 0, 64, 57
1, 106689, Control_c, 0, 64, 66
1, 106704, Control_c, 0, 64, 83
1, 106719, Control_c, 0, 64, 127
1, 106720, Note_off_c, 0, 47, 63
1, 106733, Note_off_c, 0, 68, 45
1, 106861, Note_on_c, 0, 77, 78
1, 106869, Note_on_c, 0, 66, 62
1, 106875, Note_on_c, 0, 68, 59
1, 106883, Note_on_c, 0, 56, 54
1, 106890, Note_on_c, 0, 59, 21
1, 106918, Note_off_c, 0, 78, 63
1, 106926, Note_on_c, 0, 62, 7
1, 106934, Note_off_c, 0, 56, 59
1, 106942, Note_off_c, 0, 66, 61
1, 106944, Note_off_c, 0, 59, 43
1, 106947, Note_off_c, 0, 68, 53
1, 106968, Note_off_c, 0, 62, 51
1, 107043, Note_on_c, 0, 76, 78
1, 107054, Note_on_c, 0, 56, 51
1, 107065, Note_on_c, 0, 62, 56
1, 107069, Note_on_c, 0, 66, 53
1, 107070, Note_on_c, 0, 68, 57
1, 107078, Note_off_c, 0, 77, 57
1, 107088, Note_on_c, 0, 59, 12
1, 107099, Note_off_c, 0, 56, 61
1, 107103, Note_off_c, 0, 66, 65
1, 107106, Note_off_c, 0, 68, 61
1, 107108, Note_off_c, 0, 62, 58
1, 107132, Note_off_c, 0, 59, 48
1, 107204, Note_off_c, 0, 76, 52
1, 107206, Note_on_c, 0, 75, 78
1, 107216, Note_on_c, 0, 68, 65
1, 107219, Note_on_c, 0, 66, 57
1, 107226, Note_on_c, 0, 62, 61
1, 107231, Note_on_c, 0, 59, 45
1, 107241, Note_on_c, 0, 56, 27
1, 107248, Note_off_c, 0, 68, 63
1, 107254, Note_off_c, 0, 66, 64
1, 107263, Note_off_c, 0, 59, 53
1, 107263, Note_off_c, 0, 62, 62
1, 107277, Note_off_c, 0, 56, 48
1, 107278, Note_off_c, 0, 75, 61
1, 107343, Note_on_c, 0, 66, 67
1, 107352, Note_on_c, 0, 74, 76
1, 107358, Note_on_c, 0, 68, 68
1, 107364, Note_on_c, 0, 59, 26
1, 107379, Note_on_c, 0, 56, 36
1, 107393, Note_off_c, 0, 68, 63
1, 107394, Note_off_c, 0, 66, 49
1, 107397, Note_off_c, 0, 59, 46
1, 107415, Note_off_c, 0, 56, 55
1, 107421, Note_off_c, 0, 74, 60
1, 107439, Poly_aftertouch_c, 0, 62, 0
1, 107475, Note_on_c, 0, 73, 70
1, 107477, Note_on_c, 0, 62, 9
1, 107491, Note_on_c, 0, 56, 70
1, 107494, Note_on_c, 0, 68, 43
1, 107520, Note_off_c, 0, 68, 52
1, 107521, Note_off_c, 0, 56, 66
1, 107523, Note_off_c, 0, 73, 52
1, 107525, Note_off_c, 0, 62, 36
1, 107550, Note_on_c, 0, 71, 64
1, 107571, Control_c, 0, 64, 76
1, 107580, Note_off_c, 0, 71, 65
1, 107582, Note_on_c, 0, 73, 62
1, 107585, Control_c, 0, 64, 57
1, 107600, Control_c, 0, 64, 41
1, 107615, Control_c, 0, 64, 46
1, 107630, Control_c, 0, 64, 54
1, 107641, Note_on_c, 0, 37, 52
1, 107644, Poly_aftertouch_c, 0, 71, 127
1, 107644, Control_c, 0, 64, 62
1, 107659, Control_c, 0, 64, 69
1, 107667, Note_off_c, 0, 73, 59
1, 107674, Note_off_c, 0, 37, 60
1, 107674, Control_c, 0, 64, 86
1, 107689, Control_c, 0, 64, 127
1, 107716, Poly_aftertouch_c, 0, 39, 127
1, 107722, Poly_aftertouch_c, 0, 71, 0
1, 107740, Poly_aftertouch_c, 0, 39, 0
1, 107791, Note_on_c, 0, 62, 57
1, 107791, Note_on_c, 0, 70, 72
1, 107793, Note_on_c, 0, 56, 59
1, 107810, Note_on_c, 0, 68, 52
1, 107811, Note_on_c, 0, 59, 38
1, 107826, Note_off_c, 0, 62, 65
1, 107841, Note_off_c, 0, 68, 59
1, 107845, Note_off_c, 0, 59, 51
1, 107849, Note_off_c, 0, 56, 58
1, 107922, Note_on_c, 0, 62, 39
1, 107923, Note_off_c, 0, 70, 60
1, 107941, Note_on_c, 0, 71, 69
1, 107943, Note_on_c, 0, 59, 53
1, 107948, Note_on_c, 0, 68, 51
1, 107956, Note_off_c, 0, 62, 61
1, 107971, Note_on_c, 0, 56, 55
1, 107983, Note_off_c, 0, 68, 65
1, 108073, Note_off_c, 0, 59, 36
1, 108090, Note_off_c, 0, 71, 55
1, 108104, Control_c, 0, 64, 84
1, 108118, Control_c, 0, 64, 65
1, 108122, Note_on_c, 0, 49, 47
1, 108127, Note_on_c, 0, 74, 60
1, 108133, Control_c, 0, 64, 49
1, 108136, Note_on_c, 0, 65, 48
1, 108148, Control_c, 0, 64, 44
1, 108170, Control_c, 0, 64, 48
1, 108183, Note_off_c, 0, 56, 56
1, 108185, Control_c, 0, 64, 55
1, 108200, Control_c, 0, 64, 61
1, 108202, Note_off_c, 0, 65, 55
1, 108215, Control_c, 0, 64, 66
1, 108230, Control_c, 0, 64, 73
1, 108244, Control_c, 0, 64, 85
1, 108260, Control_c, 0, 64, 95
1, 108275, Control_c, 0, 64, 102
1, 108290, Control_c, 0, 64, 103
1, 108295, Note_on_c, 0, 61, 57
1, 108300, Note_on_c, 0, 56, 58
1, 108303, Note_off_c, 0, 74, 57
1, 108303, Note_on_c, 0, 59, 28
1, 108306, Note_on_c, 0, 73, 67
1, 108320, Control_c, 0, 64, 105
1, 108334, Control_c, 0, 64, 111
1, 108335, Note_on_c, 0, 65, 41
1, 108339, Note_off_c, 0, 61, 59
1, 108349, Control_c, 0, 64, 127
1, 108353, Note_off_c, 0, 56, 62
1, 108365, Note_off_c, 0, 65, 54
1, 108462, Note_off_c, 0, 49, 37
1, 108472, Note_on_c, 0, 61, 50
1, 108472, Note_off_c, 0, 73, 61
1, 108473, Note_on_c, 0, 56, 57
1, 108482, Note_on_c, 0, 65, 41
1, 108490, Note_on_c, 0, 68, 55
1, 108505, Note_off_c, 0, 59, 40
1, 108546, Note_off_c, 0, 65, 55
1, 108563, Note_off_c, 0, 68, 57
1, 108652, Note_off_c, 0, 61, 33
1, 108660, Control_c, 0, 64, 118
1, 108675, Control_c, 0, 64, 113
1, 108690, Control_c, 0, 64, 108
1, 108703, Note_on_c, 0, 54, 61
1, 108705, Control_c, 0, 64, 102
1, 108720, Note_on_c, 0, 71, 61
1, 108720, Control_c, 0, 64, 98
1, 108734, Control_c, 0, 64, 90
1, 108747, Note_off_c, 0, 56, 60
1, 108749, Control_c, 0, 64, 76
1, 108764, Control_c, 0, 64, 65
1, 108778, Control_c, 0, 64, 57
1, 108793, Control_c, 0, 64, 54
1, 108808, Control_c, 0, 64, 54
1, 108823, Control_c, 0, 64, 55
1, 108838, Control_c, 0, 64, 57
1, 108852, Control_c, 0, 64, 59
1, 108867, Control_c, 0, 64, 61
1, 108882, Control_c, 0, 64, 63
1, 108897, Control_c, 0, 64, 65
1, 108920, Control_c, 0, 64, 67
1, 108934, Control_c, 0, 64, 70
1, 108946, Note_on_c, 0, 57, 43
1, 108949, Control_c, 0, 64, 73
1, 108953, Note_on_c, 0, 61, 35
1, 108960, Note_on_c, 0, 69, 45
1, 108964, Control_c, 0, 64, 77
1, 108979, Control_c, 0, 64, 81
1, 108993, Control_c, 0, 64, 86
1, 108994, Note_off_c, 0, 71, 40
1, 109008, Control_c, 0, 64, 90
1, 109018, Note_off_c, 0, 57, 60
1, 109023, Note_off_c, 0, 61, 53
1, 109023, Control_c, 0, 64, 93
1, 109038, Control_c, 0, 64, 96
1, 109053, Control_c, 0, 64, 98
1, 109069, Control_c, 0, 64, 101
1, 109083, Control_c, 0, 64, 104
1, 109098, Control_c, 0, 64, 106
1, 109126, Note_off_c, 0, 69, 58
1, 109138, Note_on_c, 0, 68, 54
1, 109152, Note_on_c, 0, 61, 28
1, 109153, Note_on_c, 0, 57, 49
1, 109186, Note_off_c, 0, 61, 51
1, 109187, Control_c, 0, 64, 106
1, 109195, Note_off_c, 0, 57, 63
1, 109201, Control_c, 0, 64, 106
1, 109216, Control_c, 0, 64, 105
1, 109231, Control_c, 0, 64, 104
1, 109261, Control_c, 0, 64, 103
1, 109275, Control_c, 0, 64, 102
1, 109286, Note_on_c, 0, 61, 44
1, 109290, Control_c, 0, 64, 101
1, 109302, Note_off_c, 0, 68, 50
1, 109305, Control_c, 0, 64, 99
1, 109308, Note_on_c, 0, 57, 47
1, 109317, Note_on_c, 0, 69, 52
1, 109320, Control_c, 0, 64, 98
1, 109335, Control_c, 0, 64, 96
1, 109343, Note_off_c, 0, 61, 54
1, 109350, Control_c, 0, 64, 96
1, 109364, Control_c, 0, 64, 95
1, 109394, Control_c, 0, 64, 95
1, 109409, Control_c, 0, 64, 94
1, 109424, Control_c, 0, 64, 94
1, 109439, Control_c, 0, 64, 93
1, 109454, Control_c, 0, 64, 92
1, 109469, Control_c, 0, 64, 91
1, 109477, Note_off_c, 0, 69, 55
1, 109481, Note_off_c, 0, 57, 47
1, 109481, Note_off_c, 0, 54, 48
1, 109483, Control_c, 0, 64, 91
1, 109487, Note_on_c, 0, 71, 59
1, 109487, Note_on_c, 0, 52, 46
1, 109498, Control_c, 0, 64, 90
1, 109528, Control_c, 0, 64, 89
1, 109563, Poly_aftertouch_c, 0, 66, 127
1, 109609, Note_off_c, 0, 71, 58
1, 109633, Note_off_c, 0, 52, 63
1, 109646, Poly_aftertouch_c, 0, 66, 0
1, 109660, Note_on_c, 0, 50, 46
1, 109666, Note_on_c, 0, 72, 55
1, 109668, Control_c, 0, 64, 89
1, 109683, Control_c, 0, 64, 84
1, 109690, Poly_aftertouch_c, 0, 66, 127
1, 109698, Control_c, 0, 64, 74
1, 109713, Control_c, 0, 64, 65
1, 109728, Control_c, 0, 64, 59
1, 109733, Poly_aftertouch_c, 0, 66, 0
1, 109742, Control_c, 0, 64, 57
1, 109757, Control_c, 0, 64, 58
1, 109772, Control_c, 0, 64, 59
1, 109787, Control_c, 0, 64, 61
1, 109802, Control_c, 0, 64, 63
1, 109805, Note_off_c, 0, 50, 59
1, 109816, Control_c, 0, 64, 66
1, 109831, Control_c, 0, 64, 70
1, 109834, Note_off_c, 0, 72, 50
1, 109844, Note_on_c, 0, 49, 46
1, 109846, Control_c, 0, 64, 77
1, 109853, Note_on_c, 0, 73, 61
1, 109862, Control_c, 0, 64, 86
1, 109868, Note_on_c, 0, 65, 34
1, 109877, Control_c, 0, 64, 97
1, 109892, Control_c, 0, 64, 112
1, 109903, Note_off_c, 0, 65, 51
1, 109906, Control_c, 0, 64, 127
1, 109917, Note_off_c, 0, 73, 64
1, 109937, Note_off_c, 0, 49, 60
1, 110008, Note_on_c, 0, 56, 54
1, 110017, Note_on_c, 0, 65, 38
1, 110020, Note_on_c, 0, 61, 47
1, 110020, Note_on_c, 0, 74, 56
1, 110045, Note_off_c, 0, 65, 55
1, 110048, Note_off_c, 0, 61, 59
1, 110050, Note_off_c, 0, 56, 62
1, 110060, Note_off_c, 0, 74, 59
1, 110134, Note_on_c, 0, 73, 58
1, 110137, Note_on_c, 0, 61, 54
1, 110149, Note_on_c, 0, 56, 54
1, 110150, Note_on_c, 0, 65, 35
1, 110169, Note_off_c, 0, 73, 61
1, 110192, Note_off_c, 0, 65, 47
1, 110202, Control_c, 0, 64, 95
1, 110209, Note_off_c, 0, 61, 45
1, 110217, Control_c, 0, 64, 74
1, 110229, Note_on_c, 0, 71, 34
1, 110232, Control_c, 0, 64, 63
1, 110245, Note_on_c, 0, 72, 22
1, 110247, Control_c, 0, 64, 58
1, 110259, Note_on_c, 0, 73, 61
1, 110260, Note_off_c, 0, 71, 44
1, 110262, Control_c, 0, 64, 59
1, 110277, Control_c, 0, 64, 61
1, 110289, Note_off_c, 0, 72, 28
1, 110291, Control_c, 0, 64, 65
1, 110293, Note_on_c, 0, 54, 56
1, 110299, Note_off_c, 0, 56, 57
1, 110302, Note_on_c, 0, 71, 72
1, 110306, Control_c, 0, 64, 69
1, 110321, Control_c, 0, 64, 76
1, 110336, Control_c, 0, 64, 87
1, 110346, Note_off_c, 0, 73, 57
1, 110350, Control_c, 0, 64, 99
1, 110360, Note_off_c, 0, 71, 62
1, 110365, Control_c, 0, 64, 118
1, 110380, Control_c, 0, 64, 127
1, 110445, Note_on_c, 0, 61, 45
1, 110448, Note_on_c, 0, 57, 49
1, 110454, Note_on_c, 0, 69, 64
1, 110463, Note_on_c, 0, 66, 51
1, 110480, Note_off_c, 0, 61, 58
1, 110494, Note_off_c, 0, 66, 62
1, 110508, Note_off_c, 0, 54, 33
1, 110524, Note_off_c, 0, 57, 58
1, 110527, Note_off_c, 0, 69, 61
1, 110589, Note_on_c, 0, 50, 58
1, 110596, Note_on_c, 0, 66, 50
1, 110601, Note_on_c, 0, 71, 66
1, 110630, Note_off_c, 0, 50, 63
1, 110643, Note_off_c, 0, 66, 59
1, 110670, Control_c, 0, 64, 90
1, 110683, Note_off_c, 0, 71, 61
1, 110685, Control_c, 0, 64, 69
1, 110700, Control_c, 0, 64, 59
1, 110715, Control_c, 0, 64, 56
1, 110729, Control_c, 0, 64, 59
1, 110737, Note_on_c, 0, 49, 53
1, 110739, Note_on_c, 0, 73, 67
1, 110744, Control_c, 0, 64, 62
1, 110754, Note_on_c, 0, 65, 54
1, 110759, Control_c, 0, 64, 66
1, 110774, Control_c, 0, 64, 72
1, 110784, Note_off_c, 0, 65, 63
1, 110788, Control_c, 0, 64, 82
1, 110803, Control_c, 0, 64, 96
1, 110805, Note_off_c, 0, 73, 63
1, 110818, Control_c, 0, 64, 127
1, 110879, Note_on_c, 0, 56, 55
1, 110882, Note_on_c, 0, 65, 53
1, 110888, Note_on_c, 0, 61, 58
1, 110889, Note_on_c, 0, 74, 62
1, 110916, Note_off_c, 0, 65, 65
1, 110924, Note_off_c, 0, 61, 63
1, 110928, Note_off_c, 0, 56, 62
1, 110929, Note_off_c, 0, 74, 58
1, 110931, Note_on_c, 0, 59, 3
1, 110980, Note_off_c, 0, 59, 34
1, 111007, Note_on_c, 0, 61, 58
1, 111008, Note_on_c, 0, 73, 64
1, 111016, Note_off_c, 0, 49, 39
1, 111025, Note_on_c, 0, 65, 37
1, 111027, Note_on_c, 0, 56, 57
1, 111043, Note_off_c, 0, 73, 59
1, 111055, Control_c, 0, 64, 103
1, 111056, Note_off_c, 0, 65, 51
1, 111070, Control_c, 0, 64, 74
1, 111075, Note_on_c, 0, 71, 69
1, 111084, Control_c, 0, 64, 62
1, 111099, Control_c, 0, 64, 57
1, 111111, Note_off_c, 0, 71, 62
1, 111114, Control_c, 0, 64, 59
1, 111127, Note_on_c, 0, 73, 69
1, 111129, Control_c, 0, 64, 62
1, 111151, Control_c, 0, 64, 66
1, 111166, Control_c, 0, 64, 72
1, 111167, Note_off_c, 0, 61, 34
1, 111174, Note_on_c, 0, 71, 78
1, 111176, Note_on_c, 0, 54, 65
1, 111180, Control_c, 0, 64, 82
1, 111193, Note_off_c, 0, 56, 58
1, 111195, Control_c, 0, 64, 97
1, 111210, Control_c, 0, 64, 127
1, 111216, Note_off_c, 0, 73, 62
1, 111229, Note_off_c, 0, 71, 63
1, 111316, Note_on_c, 0, 61, 55
1, 111317, Note_on_c, 0, 69, 78
1, 111326, Note_on_c, 0, 57, 50
1, 111326, Note_on_c, 0, 66, 66
1, 111352, Note_off_c, 0, 61, 61
1, 111365, Note_off_c, 0, 66, 60
1, 111371, Note_off_c, 0, 54, 52
1, 111383, Note_off_c, 0, 69, 60
1, 111460, Note_on_c, 0, 53, 55
1, 111460, Note_on_c, 0, 63, 58
1, 111460, Note_on_c, 0, 71, 75
1, 111469, Note_on_c, 0, 69, 65
1, 111481, Note_off_c, 0, 57, 54
1, 111500, Note_off_c, 0, 63, 61
1, 111505, Note_off_c, 0, 53, 59
1, 111523, Control_c, 0, 64, 113
1, 111524, Note_off_c, 0, 69, 57
1, 111538, Control_c, 0, 64, 75
1, 111547, Note_off_c, 0, 71, 56
1, 111552, Control_c, 0, 64, 60
1, 111567, Control_c, 0, 64, 52
1, 111582, Control_c, 0, 64, 55
1, 111587, Note_on_c, 0, 73, 76
1, 111594, Note_on_c, 0, 64, 69
1, 111597, Control_c, 0, 64, 61
1, 111603, Note_on_c, 0, 52, 57
1, 111606, Note_on_c, 0, 57, 57
1, 111611, Control_c, 0, 64, 66
1, 111624, Note_off_c, 0, 64, 67
1, 111626, Control_c, 0, 64, 74
1, 111641, Control_c, 0, 64, 90
1, 111649, Note_off_c, 0, 52, 60
1, 111656, Control_c, 0, 64, 127
1, 111657, Note_off_c, 0, 57, 61
1, 111663, Note_off_c, 0, 73, 59
1, 111720, Note_on_c, 0, 74, 77
1, 111730, Note_on_c, 0, 66, 65
1, 111736, Note_on_c, 0, 57, 65
1, 111746, Note_on_c, 0, 52, 54
1, 111758, Note_off_c, 0, 66, 65
1, 111787, Note_off_c, 0, 74, 58
1, 111788, Note_off_c, 0, 57, 62
1, 111842, Note_on_c, 0, 73, 79
1, 111857, Note_on_c, 0, 64, 66
1, 111858, Note_on_c, 0, 57, 63
1, 111886, Note_off_c, 0, 64, 67
1, 111919, Note_off_c, 0, 73, 62
1, 111928, Note_off_c, 0, 57, 63
1, 111932, Note_on_c, 0, 69, 37
1, 111935, Note_on_c, 0, 71, 74
1, 111945, Control_c, 0, 64, 78
1, 111959, Control_c, 0, 64, 62
1, 111961, Note_off_c, 0, 69, 52
1, 111974, Control_c, 0, 64, 56
1, 111976, Note_on_c, 0, 73, 66
1, 111979, Note_off_c, 0, 71, 61
1, 111989, Control_c, 0, 64, 61
1, 112000, Note_on_c, 0, 63, 75
1, 112003, Note_on_c, 0, 57, 48
1, 112003, Control_c, 0, 64, 66
1, 112008, Note_on_c, 0, 66, 80
1, 112018, Control_c, 0, 64, 76
1, 112026, Note_on_c, 0, 71, 68
1, 112033, Control_c, 0, 64, 109
1, 112038, Note_off_c, 0, 52, 0
1, 112048, Control_c, 0, 64, 127
1, 112053, Note_off_c, 0, 57, 64
1, 112059, Note_off_c, 0, 63, 61
1, 112062, Note_off_c, 0, 66, 60
1, 112080, Poly_aftertouch_c, 0, 52, 0
1, 112087, Note_off_c, 0, 73, 58
1, 112093, Note_off_c, 0, 71, 62
1, 112101, Poly_aftertouch_c, 0, 55, 0
1, 112131, Note_on_c, 0, 56, 70
1, 112134, Note_on_c, 0, 69, 89
1, 112141, Note_on_c, 0, 62, 70
1, 112141, Note_on_c, 0, 65, 72
1, 112165, Note_on_c, 0, 52, 46
1, 112178, Note_off_c, 0, 65, 60
1, 112180, Note_off_c, 0, 62, 58
1, 112187, Note_off_c, 0, 56, 60
1, 112201, Note_off_c, 0, 52, 62
1, 112239, Note_off_c, 0, 69, 56
1, 112269, Note_on_c, 0, 71, 83
1, 112275, Note_on_c, 0, 64, 80
1, 112280, Note_on_c, 0, 56, 66
1, 112288, Note_on_c, 0, 52, 66
1, 112309, Note_off_c, 0, 56, 65
1, 112317, Note_off_c, 0, 52, 64
1, 112375, Control_c, 0, 64, 78
1, 112378, Note_off_c, 0, 64, 59
1, 112390, Control_c, 0, 64, 60
1, 112405, Control_c, 0, 64, 50
1, 112420, Control_c, 0, 64, 55
1, 112423, Note_on_c, 0, 45, 67
1, 112428, Note_on_c, 0, 73, 83
1, 112434, Control_c, 0, 64, 61
1, 112435, Note_off_c, 0, 71, 57
1, 112449, Control_c, 0, 64, 67
1, 112462, Note_off_c, 0, 45, 65
1, 112464, Control_c, 0, 64, 78
1, 112479, Control_c, 0, 64, 111
1, 112494, Control_c, 0, 64, 127
1, 112511, Note_off_c, 0, 73, 63
1, 112567, Note_on_c, 0, 74, 79
1, 112574, Note_on_c, 0, 64, 76
1, 112576, Note_on_c, 0, 57, 70
1, 112579, Note_on_c, 0, 67, 62
1, 112609, Note_off_c, 0, 67, 67
1, 112611, Note_off_c, 0, 64, 58
1, 112615, Note_off_c, 0, 57, 64
1, 112620, Note_off_c, 0, 74, 63
1, 112687, Note_on_c, 0, 73, 75
1, 112688, Note_on_c, 0, 57, 85
1, 112688, Note_on_c, 0, 67, 68
1, 112735, Note_off_c, 0, 57, 64
1, 112749, Note_on_c, 0, 71, 80
1, 112755, Note_off_c, 0, 73, 58
1, 112762, Note_off_c, 0, 67, 57
1, 112768, Control_c, 0, 64, 80
1, 112782, Control_c, 0, 64, 62
1, 112788, Note_off_c, 0, 71, 57
1, 112797, Control_c, 0, 64, 46
1, 112804, Note_on_c, 0, 73, 43
1, 112812, Control_c, 0, 64, 49
1, 112826, Control_c, 0, 64, 58
1, 112834, Note_on_c, 0, 71, 82
1, 112837, Note_on_c, 0, 45, 76
1, 112841, Control_c, 0, 64, 66
1, 112842, Note_on_c, 0, 43, 66
1, 112856, Control_c, 0, 64, 78
1, 112871, Control_c, 0, 64, 127
1, 112873, Note_off_c, 0, 43, 64
1, 112884, Note_off_c, 0, 45, 61
1, 112900, Note_off_c, 0, 71, 64
1, 112907, Note_off_c, 0, 73, 63
1, 112972, Note_on_c, 0, 57, 72
1, 112974, Note_on_c, 0, 69, 87
1, 112976, Note_on_c, 0, 62, 71
1, 112988, Note_on_c, 0, 67, 71
1, 113017, Note_off_c, 0, 62, 60
1, 113023, Note_off_c, 0, 67, 61
1, 113031, Note_off_c, 0, 57, 63
1, 113058, Note_off_c, 0, 69, 61
1, 113098, Note_on_c, 0, 57, 78
1, 113109, Note_on_c, 0, 71, 91
1, 113116, Note_on_c, 0, 67, 80
1, 113144, Note_off_c, 0, 57, 63
1, 113213, Control_c, 0, 64, 87
1, 113228, Control_c, 0, 64, 62
1, 113236, Note_off_c, 0, 67, 58
1, 113243, Control_c, 0, 64, 28
1, 113255, Note_on_c, 0, 45, 82
1, 113257, Control_c, 0, 64, 36
1, 113268, Note_on_c, 0, 73, 88
1, 113272, Control_c, 0, 64, 53
1, 113287, Control_c, 0, 64, 63
1, 113292, Note_off_c, 0, 71, 57
1, 113302, Control_c, 0, 64, 71
1, 113306, Note_off_c, 0, 45, 64
1, 113317, Control_c, 0, 64, 87
1, 113331, Control_c, 0, 64, 127
1, 113354, Note_off_c, 0, 73, 67
1, 113418, Note_on_c, 0, 61, 81
1, 113426, Note_on_c, 0, 74, 94
1, 113434, Note_on_c, 0, 57, 69
1, 113436, Note_on_c, 0, 67, 82
1, 113466, Note_off_c, 0, 67, 60
1, 113469, Note_off_c, 0, 61, 60
1, 113470, Note_off_c, 0, 57, 65
1, 113482, Note_off_c, 0, 74, 63
1, 113547, Note_on_c, 0, 76, 95
1, 113548, Note_on_c, 0, 61, 73
1, 113553, Note_on_c, 0, 57, 76
1, 113556, Note_on_c, 0, 67, 79
1, 113576, Note_off_c, 0, 61, 62
1, 113587, Note_off_c, 0, 67, 65
1, 113600, Note_off_c, 0, 76, 64
1, 113635, Control_c, 0, 64, 88
1, 113642, Note_off_c, 0, 57, 58
1, 113649, Control_c, 0, 64, 60
1, 113664, Control_c, 0, 64, 35
1, 113675, Note_on_c, 0, 50, 75
1, 113679, Control_c, 0, 64, 45
1, 113680, Note_on_c, 0, 78, 91
1, 113693, Note_on_c, 0, 66, 84
1, 113694, Control_c, 0, 64, 55
1, 113709, Control_c, 0, 64, 64
1, 113723, Control_c, 0, 64, 74
1, 113738, Control_c, 0, 64, 114
1, 113743, Note_off_c, 0, 66, 63
1, 113745, Note_off_c, 0, 78, 66
1, 113753, Control_c, 0, 64, 127
1, 113806, Note_on_c, 0, 73, 94
1, 113813, Note_on_c, 0, 62, 70
1, 113813, Note_on_c, 0, 66, 77
1, 113823, Note_on_c, 0, 57, 70
1, 113859, Note_off_c, 0, 66, 62
1, 113875, Note_off_c, 0, 62, 61
1, 113901, Note_off_c, 0, 57, 63
1, 113911, Note_off_c, 0, 73, 62
1, 113937, Note_off_c, 0, 50, 61
1, 113945, Note_on_c, 0, 74, 91
1, 113947, Note_on_c, 0, 66, 79
1, 113952, Note_on_c, 0, 57, 72
1, 113967, Note_off_c, 0, 66, 72
1, 113988, Note_off_c, 0, 74, 64
1, 114125, Control_c, 0, 64, 89
1, 114135, Note_on_c, 0, 49, 75
1, 114140, Control_c, 0, 64, 64
1, 114155, Note_on_c, 0, 82, 93
1, 114158, Note_on_c, 0, 70, 93
1, 114161, Control_c, 0, 64, 42
1, 114176, Control_c, 0, 64, 39
1, 114191, Control_c, 0, 64, 47
1, 114202, Note_off_c, 0, 57, 64
1, 114205, Control_c, 0, 64, 60
1, 114220, Control_c, 0, 64, 69
1, 114226, Note_off_c, 0, 49, 64
1, 114235, Control_c, 0, 64, 88
1, 114250, Control_c, 0, 64, 127
1, 114328, Note_on_c, 0, 76, 74
1, 114329, Note_on_c, 0, 67, 71
1, 114330, Note_off_c, 0, 70, 63
1, 114332, Note_on_c, 0, 64, 68
1, 114344, Note_off_c, 0, 82, 65
1, 114418, Note_off_c, 0, 67, 59
1, 114473, Note_on_c, 0, 57, 83
1, 114477, Note_on_c, 0, 69, 92
1, 114477, Note_on_c, 0, 81, 90
1, 114483, Note_off_c, 0, 76, 59
1, 114483, Note_off_c, 0, 64, 62
1, 114509, Note_off_c, 0, 57, 62
1, 114527, Note_off_c, 0, 69, 62
1, 114562, Note_off_c, 0, 81, 63
1, 114651, Control_c, 0, 64, 117
1, 114666, Control_c, 0, 64, 71
1, 114667, Note_on_c, 0, 50, 66
1, 114681, Control_c, 0, 64, 53
1, 114694, Note_on_c, 0, 83, 96
1, 114695, Note_on_c, 0, 71, 93
1, 114695, Control_c, 0, 64, 40
1, 114710, Control_c, 0, 64, 44
1, 114725, Control_c, 0, 64, 51
1, 114740, Control_c, 0, 64, 59
1, 114755, Control_c, 0, 64, 65
1, 114762, Note_off_c, 0, 50, 63
1, 114769, Control_c, 0, 64, 72
1, 114784, Control_c, 0, 64, 82
1, 114799, Control_c, 0, 64, 94
1, 114814, Control_c, 0, 64, 103
1, 114828, Control_c, 0, 64, 107
1, 114843, Control_c, 0, 64, 110
1, 114858, Control_c, 0, 64, 127
1, 114888, Note_on_c, 0, 74, 68
1, 114909, Note_on_c, 0, 62, 54
1, 114912, Note_on_c, 0, 66, 62
1, 114929, Note_off_c, 0, 83, 62
1, 114933, Note_off_c, 0, 71, 61
1, 114978, Note_off_c, 0, 74, 58
1, 114988, Note_off_c, 0, 66, 52
1, 115019, Poly_aftertouch_c, 0, 80, 0
1, 115079, Note_off_c, 0, 62, 35
1, 115088, Note_on_c, 0, 57, 59
1, 115091, Note_on_c, 0, 81, 75
1, 115098, Note_on_c, 0, 69, 76
1, 115120, Note_off_c, 0, 57, 65
1, 115179, Note_off_c, 0, 69, 59
1, 115207, Control_c, 0, 64, 101
1, 115221, Control_c, 0, 64, 67
1, 115236, Control_c, 0, 64, 56
1, 115246, Note_on_c, 0, 75, 75
1, 115251, Control_c, 0, 64, 58
1, 115253, Note_on_c, 0, 47, 67
1, 115264, Note_on_c, 0, 69, 71
1, 115266, Control_c, 0, 64, 63
1, 115281, Control_c, 0, 64, 67
1, 115288, Note_off_c, 0, 47, 65
1, 115295, Control_c, 0, 64, 78
1, 115297, Note_off_c, 0, 81, 54
1, 115310, Control_c, 0, 64, 104
1, 115325, Control_c, 0, 64, 127
1, 115331, Note_off_c, 0, 69, 61
1, 115395, Note_on_c, 0, 76, 83
1, 115406, Note_on_c, 0, 69, 71
1, 115407, Note_on_c, 0, 66, 73
1, 115417, Note_off_c, 0, 75, 42
1, 115426, Note_on_c, 0, 59, 49
1, 115445, Note_off_c, 0, 66, 59
1, 115451, Note_off_c, 0, 69, 61
1, 115453, Note_off_c, 0, 59, 58
1, 115484, Note_off_c, 0, 76, 61
1, 115515, Note_on_c, 0, 66, 56
1, 115517, Note_on_c, 0, 78, 90
1, 115523, Note_on_c, 0, 59, 77
1, 115523, Note_on_c, 0, 69, 84
1, 115540, Note_off_c, 0, 66, 63
1, 115546, Poly_aftertouch_c, 0, 60, 0
1, 115551, Note_off_c, 0, 59, 63
1, 115571, Note_off_c, 0, 69, 64
1, 115599, Note_off_c, 0, 78, 63
1, 115634, Note_on_c, 0, 52, 82
1, 115637, Control_c, 0, 64, 71
1, 115658, Note_on_c, 0, 67, 87
1, 115658, Note_on_c, 0, 79, 92
1, 115659, Control_c, 0, 64, 0
1, 115716, Note_off_c, 0, 67, 63
1, 115733, Control_c, 0, 64, 57
1, 115747, Note_off_c, 0, 79, 61
1, 115748, Control_c, 0, 64, 73
1, 115763, Control_c, 0, 64, 127
1, 115772, Note_on_c, 0, 75, 88
1, 115776, Note_on_c, 0, 64, 74
1, 115778, Note_on_c, 0, 67, 83
1, 115779, Note_on_c, 0, 59, 80
1, 115824, Note_off_c, 0, 67, 64
1, 115828, Note_off_c, 0, 64, 61
1, 115841, Note_off_c, 0, 59, 63
1, 115853, Note_off_c, 0, 52, 62
1, 115860, Note_off_c, 0, 75, 63
1, 115902, Note_on_c, 0, 76, 95
1, 115908, Note_on_c, 0, 67, 84
1, 115909, Note_on_c, 0, 59, 75
1, 115933, Note_off_c, 0, 67, 68
1, 115958, Note_off_c, 0, 76, 68
1, 116045, Control_c, 0, 64, 111
1, 116050, Note_on_c, 0, 51, 79
1, 116059, Control_c, 0, 64, 73
1, 116068, Note_on_c, 0, 84, 93
1, 116069, Note_on_c, 0, 72, 94
1, 116074, Control_c, 0, 64, 59
1, 116089, Control_c, 0, 64, 61
1, 116096, Note_off_c, 0, 59, 63
1, 116104, Control_c, 0, 64, 67
1, 116118, Control_c, 0, 64, 80
1, 116124, Note_off_c, 0, 51, 65
1, 116133, Control_c, 0, 64, 127
1, 116211, Note_on_c, 0, 78, 90
1, 116216, Note_on_c, 0, 66, 79
1, 116221, Note_on_c, 0, 69, 79
1, 116238, Note_off_c, 0, 84, 64
1, 116245, Note_off_c, 0, 72, 63
1, 116256, Note_on_c, 0, 82, 37
1, 116280, Note_off_c, 0, 69, 61
1, 116284, Note_off_c, 0, 82, 53
1, 116307, Note_off_c, 0, 78, 56
1, 116330, Note_on_c, 0, 59, 85
1, 116338, Note_on_c, 0, 71, 99
1, 116340, Note_on_c, 0, 83, 94
1, 116340, Note_off_c, 0, 66, 62
1, 116375, Note_off_c, 0, 59, 65
1, 116404, Note_off_c, 0, 71, 61
1, 116435, Note_off_c, 0, 83, 60
1, 116508, Note_on_c, 0, 52, 84
1, 116512, Control_c, 0, 64, 99
1, 116520, Note_on_c, 0, 84, 94
1, 116522, Note_on_c, 0, 72, 95
1, 116527, Control_c, 0, 64, 68
1, 116542, Control_c, 0, 64, 41
1, 116556, Control_c, 0, 64, 41
1, 116571, Control_c, 0, 64, 52
1, 116586, Control_c, 0, 64, 63
1, 116600, Control_c, 0, 64, 76
1, 116601, Note_off_c, 0, 52, 63
1, 116615, Control_c, 0, 64, 127
1, 116699, Note_on_c, 0, 67, 75
1, 116705, Note_on_c, 0, 64, 62
1, 116715, Note_on_c, 0, 76, 69
1, 116738, Note_off_c, 0, 84, 62
1, 116746, Note_off_c, 0, 72, 61
1, 116758, Note_off_c, 0, 67, 61
1, 116830, Note_off_c, 0, 76, 64
1, 116871, Note_on_c, 0, 83, 89
1, 116873, Note_on_c, 0, 59, 74
1, 116873, Note_on_c, 0, 71, 82
1, 116896, Note_off_c, 0, 64, 61
1, 116929, Note_off_c, 0, 59, 64
1, 116933, Note_off_c, 0, 71, 60
1, 116933, Note_off_c, 0, 83, 60
1, 116959, Poly_aftertouch_c, 0, 72, 127
1, 116984, Poly_aftertouch_c, 0, 72, 0
1, 117061, Control_c, 0, 64, 103
1, 117068, Note_on_c, 0, 49, 78
1, 117072, Note_on_c, 0, 70, 89
1, 117076, Note_on_c, 0, 82, 85
1, 117076, Control_c, 0, 64, 71
1, 117090, Control_c, 0, 64, 54
1, 117105, Control_c, 0, 64, 56
1, 117120, Control_c, 0, 64, 63
1, 117135, Control_c, 0, 64, 71
1, 117157, Control_c, 0, 64, 99
1, 117160, Note_off_c, 0, 49, 65
1, 117171, Control_c, 0, 64, 127
1, 117182, Poly_aftertouch_c, 0, 78, 127
1, 117224, Note_on_c, 0, 76, 70
1, 117244, Note_off_c, 0, 70, 63
1, 117244, Note_off_c, 0, 82, 65
1, 117245, Note_on_c, 0, 64, 67
1, 117252, Note_on_c, 0, 67, 55
1, 117258, Note_on_c, 0, 65, 49
1, 117267, Poly_aftertouch_c, 0, 78, 0
1, 117282, Note_off_c, 0, 65, 58
1, 117285, Note_off_c, 0, 67, 65
1, 117296, Note_off_c, 0, 76, 58
1, 117339, Note_on_c, 0, 69, 90
1, 117345, Note_on_c, 0, 81, 81
1, 117349, Note_on_c, 0, 57, 81
1, 117362, Note_off_c, 0, 64, 62
1, 117377, Note_off_c, 0, 81, 61
1, 117385, Note_off_c, 0, 69, 65
1, 117386, Note_on_c, 0, 80, 30
1, 117401, Note_off_c, 0, 57, 64
1, 117418, Note_off_c, 0, 80, 33
1, 117452, Control_c, 0, 64, 88
1, 117467, Control_c, 0, 64, 63
1, 117476, Note_on_c, 0, 68, 91
1, 117477, Note_on_c, 0, 80, 96
1, 117481, Control_c, 0, 64, 54
1, 117483, Note_on_c, 0, 50, 87
1, 117496, Control_c, 0, 64, 61
1, 117511, Control_c, 0, 64, 68
1, 117523, Note_off_c, 0, 50, 65
1, 117526, Control_c, 0, 64, 87
1, 117541, Control_c, 0, 64, 127
1, 117583, Note_off_c, 0, 68, 60
1, 117598, Note_on_c, 0, 74, 74
1, 117615, Note_on_c, 0, 66, 74
1, 117628, Note_on_c, 0, 62, 51
1, 117651, Note_on_c, 0, 63, 39
1, 117660, Note_off_c, 0, 80, 62
1, 117684, Note_off_c, 0, 63, 54
1, 117690, Note_off_c, 0, 66, 61
1, 117695, Note_off_c, 0, 74, 61
1, 117729, Note_on_c, 0, 57, 78
1, 117729, Note_on_c, 0, 69, 94
1, 117729, Note_on_c, 0, 81, 89
1, 117734, Note_off_c, 0, 62, 62
1, 117759, Note_off_c, 0, 57, 67
1, 117780, Note_off_c, 0, 69, 64
1, 117784, Note_off_c, 0, 81, 65
1, 117853, Control_c, 0, 64, 94
1, 117865, Note_on_c, 0, 48, 87
1, 117867, Control_c, 0, 64, 68
1, 117880, Note_on_c, 0, 69, 94
1, 117880, Note_on_c, 0, 81, 94
1, 117882, Control_c, 0, 64, 59
1, 117905, Control_c, 0, 64, 61
1, 117919, Control_c, 0, 64, 64
1, 117923, Note_off_c, 0, 48, 64
1, 117934, Control_c, 0, 64, 72
1, 117949, Control_c, 0, 64, 94
1, 117964, Control_c, 0, 64, 127
1, 118026, Note_on_c, 0, 75, 87
1, 118027, Note_on_c, 0, 63, 75
1, 118030, Note_on_c, 0, 66, 78
1, 118033, Note_off_c, 0, 81, 67
1, 118039, Note_off_c, 0, 69, 65
1, 118063, Note_on_c, 0, 78, 34
1, 118097, Note_off_c, 0, 78, 32
1, 118103, Note_off_c, 0, 75, 60
1, 118104, Note_off_c, 0, 66, 60
1, 118144, Note_on_c, 0, 56, 84
1, 118144, Note_off_c, 0, 63, 61
1, 118153, Note_on_c, 0, 68, 95
1, 118153, Note_on_c, 0, 80, 87
1, 118191, Note_off_c, 0, 56, 64
1, 118215, Note_off_c, 0, 68, 63
1, 118225, Note_off_c, 0, 80, 66
1, 118260, Control_c, 0, 64, 80
1, 118271, Note_on_c, 0, 49, 83
1, 118275, Control_c, 0, 64, 64
1, 118283, Note_on_c, 0, 67, 93
1, 118286, Note_on_c, 0, 79, 91
1, 118290, Control_c, 0, 64, 59
1, 118305, Control_c, 0, 64, 64
1, 118319, Control_c, 0, 64, 69
1, 118334, Control_c, 0, 64, 85
1, 118346, Note_off_c, 0, 49, 62
1, 118349, Control_c, 0, 64, 127
1, 118358, Poly_aftertouch_c, 0, 78, 0
1, 118403, Note_on_c, 0, 73, 87
1, 118407, Note_on_c, 0, 61, 76
1, 118407, Note_off_c, 0, 67, 66
1, 118408, Note_on_c, 0, 65, 79
1, 118409, Note_off_c, 0, 79, 66
1, 118453, Note_off_c, 0, 65, 54
1, 118469, Note_off_c, 0, 73, 62
1, 118525, Note_on_c, 0, 56, 84
1, 118528, Note_on_c, 0, 68, 97
1, 118531, Note_on_c, 0, 80, 93
1, 118534, Note_off_c, 0, 61, 61
1, 118576, Note_off_c, 0, 68, 63
1, 118580, Note_off_c, 0, 56, 65
1, 118583, Note_off_c, 0, 80, 67
1, 118631, Control_c, 0, 64, 86
1, 118654, Control_c, 0, 64, 63
1, 118658, Note_on_c, 0, 46, 85
1, 118663, Note_on_c, 0, 67, 95
1, 118667, Note_on_c, 0, 79, 90
1, 118668, Control_c, 0, 64, 54
1, 118683, Control_c, 0, 64, 63
1, 118698, Control_c, 0, 64, 71
1, 118704, Note_on_c, 0, 77, 42
1, 118713, Control_c, 0, 64, 98
1, 118718, Note_off_c, 0, 46, 64
1, 118728, Control_c, 0, 64, 127
1, 118730, Note_off_c, 0, 77, 55
1, 118778, Note_on_c, 0, 73, 86
1, 118786, Note_on_c, 0, 64, 79
1, 118786, Note_off_c, 0, 79, 66
1, 118790, Note_off_c, 0, 67, 64
1, 118795, Note_on_c, 0, 61, 77
1, 118839, Note_off_c, 0, 64, 57
1, 118879, Note_off_c, 0, 73, 62
1, 118897, Note_on_c, 0, 54, 79
1, 118903, Note_off_c, 0, 61, 61
1, 118905, Note_on_c, 0, 66, 94
1, 118905, Note_on_c, 0, 78, 92
1, 118945, Note_off_c, 0, 54, 65
1, 118957, Note_off_c, 0, 66, 62
1, 118981, Note_off_c, 0, 78, 63
1, 119024, Control_c, 0, 64, 88
1, 119035, Note_on_c, 0, 45, 81
1, 119039, Control_c, 0, 64, 62
1, 119041, Note_on_c, 0, 66, 99
1, 119045, Note_on_c, 0, 78, 92
1, 119054, Control_c, 0, 64, 42
1, 119067, Note_on_c, 0, 47, 45
1, 119068, Control_c, 0, 64, 51
1, 119083, Control_c, 0, 64, 62
1, 119088, Note_off_c, 0, 45, 63
1, 119098, Control_c, 0, 64, 72
1, 119100, Note_off_c, 0, 47, 63
1, 119113, Control_c, 0, 64, 127
1, 119178, Note_on_c, 0, 72, 82
1, 119181, Note_on_c, 0, 63, 85
1, 119185, Note_off_c, 0, 66, 62
1, 119194, Note_on_c, 0, 60, 60
1, 119196, Note_on_c, 0, 59, 58
1, 119209, Note_off_c, 0, 78, 63
1, 119235, Note_off_c, 0, 63, 64
1, 119291, Note_on_c, 0, 53, 80
1, 119297, Note_off_c, 0, 59, 62
1, 119297, Note_off_c, 0, 60, 63
1, 119303, Note_on_c, 0, 65, 92
1, 119304, Note_on_c, 0, 77, 96
1, 119333, Note_off_c, 0, 53, 64
1, 119335, Note_off_c, 0, 72, 63
1, 119356, Note_off_c, 0, 65, 63
1, 119372, Note_off_c, 0, 77, 61
1, 119451, Note_on_c, 0, 44, 88
1, 119462, Control_c, 0, 64, 72
1, 119468, Note_on_c, 0, 65, 94
1, 119470, Note_on_c, 0, 77, 97
1, 119477, Control_c, 0, 64, 54
1, 119491, Control_c, 0, 64, 51
1, 119506, Control_c, 0, 64, 60
1, 119521, Control_c, 0, 64, 72
1, 119534, Note_off_c, 0, 44, 64
1, 119536, Control_c, 0, 64, 111
1, 119551, Control_c, 0, 64, 127
1, 119607, Note_on_c, 0, 76, 42
1, 119615, Note_on_c, 0, 71, 84
1, 119624, Note_on_c, 0, 62, 82
1, 119629, Note_on_c, 0, 59, 72
1, 119635, Note_off_c, 0, 76, 55
1, 119652, Note_off_c, 0, 65, 57
1, 119653, Note_off_c, 0, 77, 59
1, 119694, Note_off_c, 0, 62, 63
1, 119709, Note_off_c, 0, 71, 62
1, 119751, Note_on_c, 0, 52, 81
1, 119756, Note_off_c, 0, 59, 61
1, 119759, Note_on_c, 0, 64, 95
1, 119760, Note_on_c, 0, 76, 96
1, 119795, Note_off_c, 0, 52, 66
1, 119812, Note_off_c, 0, 64, 65
1, 119826, Note_off_c, 0, 76, 62
1, 119947, Note_on_c, 0, 64, 96
1, 119950, Note_on_c, 0, 76, 97
1, 119955, Note_on_c, 0, 43, 80
1, 119955, Note_on_c, 0, 45, 80
1, 119965, Control_c, 0, 64, 86
1, 119980, Control_c, 0, 64, 60
1, 119995, Control_c, 0, 64, 48
1, 120003, Note_off_c, 0, 43, 62
1, 120009, Control_c, 0, 64, 55
1, 120015, Note_on_c, 0, 65, 4
1, 120024, Control_c, 0, 64, 62
1, 120039, Control_c, 0, 64, 69
1, 120054, Control_c, 0, 64, 85
1, 120058, Note_off_c, 0, 65, 26
1, 120069, Control_c, 0, 64, 127
1, 120082, Note_off_c, 0, 45, 63
1, 120197, Note_on_c, 0, 70, 89
1, 120202, Note_on_c, 0, 58, 80
1, 120206, Note_on_c, 0, 61, 78
1, 120248, Note_off_c, 0, 76, 61
1, 120279, Note_off_c, 0, 64, 59
1, 120324, Note_off_c, 0, 61, 60
1, 120478, Note_off_c, 0, 70, 65
1, 120486, Note_on_c, 0, 63, 95
1, 120486, Note_on_c, 0, 75, 96
1, 120489, Note_on_c, 0, 61, 80
1, 120493, Note_on_c, 0, 51, 82
1, 120502, Note_off_c, 0, 58, 62
1, 120537, Note_off_c, 0, 61, 61
1, 120550, Note_off_c, 0, 51, 64
1, 120615, Note_off_c, 0, 63, 63
1, 120672, Note_off_c, 0, 75, 59
1, 120796, Note_on_c, 0, 44, 88
1, 120832, Control_c, 0, 64, 91
1, 120847, Control_c, 0, 64, 64
1, 120862, Control_c, 0, 64, 0
1, 120874, Note_on_c, 0, 72, 98
1, 120929, Control_c, 0, 64, 19
1, 120944, Control_c, 0, 64, 52
1, 120959, Control_c, 0, 64, 61
1, 120974, Control_c, 0, 64, 65
1, 120988, Control_c, 0, 64, 69
1, 121002, Control_c, 0, 64, 77
1, 121017, Control_c, 0, 64, 88
1, 121032, Control_c, 0, 64, 110
1, 121043, Note_off_c, 0, 44, 64
1, 121048, Control_c, 0, 64, 127
1, 121187, Note_on_c, 0, 60, 74
1, 121196, Note_on_c, 0, 56, 63
1, 121339, Note_off_c, 0, 60, 54
1, 121389, Note_on_c, 0, 51, 80
1, 121428, Note_off_c, 0, 56, 64
1, 121551, Control_c, 0, 64, 105
1, 121563, Note_on_c, 0, 71, 90
1, 121566, Control_c, 0, 64, 69
1, 121570, Note_on_c, 0, 44, 73
1, 121581, Control_c, 0, 64, 55
1, 121587, Note_off_c, 0, 72, 63
1, 121596, Control_c, 0, 64, 53
1, 121610, Control_c, 0, 64, 59
1, 121625, Control_c, 0, 64, 63
1, 121648, Control_c, 0, 64, 69
1, 121661, Note_off_c, 0, 44, 63
1, 121662, Control_c, 0, 64, 85
1, 121675, Note_off_c, 0, 51, 34
1, 121677, Control_c, 0, 64, 127
1, 121733, Note_on_c, 0, 59, 73
1, 121739, Note_on_c, 0, 56, 68
1, 121842, Note_off_c, 0, 59, 56
1, 121890, Note_on_c, 0, 50, 78
1, 121913, Note_off_c, 0, 56, 63
1, 121959, Note_off_c, 0, 50, 64
1, 122006, Note_off_c, 0, 71, 60
1, 122036, Note_on_c, 0, 72, 97
1, 122038, Note_on_c, 0, 44, 81
1, 122049, Control_c, 0, 64, 71
1, 122064, Control_c, 0, 64, 52
1, 122079, Control_c, 0, 64, 47
1, 122093, Control_c, 0, 64, 55
1, 122108, Control_c, 0, 64, 63
1, 122119, Note_off_c, 0, 44, 63
1, 122123, Control_c, 0, 64, 70
1, 122138, Control_c, 0, 64, 84
1, 122153, Control_c, 0, 64, 107
1, 122167, Control_c, 0, 64, 127
1, 122200, Note_on_c, 0, 60, 75
1, 122203, Note_on_c, 0, 56, 72
1, 122313, Note_off_c, 0, 60, 60
1, 122385, Note_on_c, 0, 51, 82
1, 122399, Note_off_c, 0, 56, 65
1, 122546, Control_c, 0, 64, 81
1, 122555, Note_on_c, 0, 44, 71
1, 122560, Control_c, 0, 64, 63
1, 122575, Control_c, 0, 64, 46
1, 122585, Note_on_c, 0, 75, 95
1, 122590, Control_c, 0, 64, 48
1, 122605, Control_c, 0, 64, 53
1, 122619, Control_c, 0, 64, 60
1, 122626, Note_off_c, 0, 51, 40
1, 122633, Note_off_c, 0, 44, 63
1, 122635, Control_c, 0, 64, 64
1, 122645, Note_off_c, 0, 72, 61
1, 122650, Control_c, 0, 64, 70
1, 122665, Control_c, 0, 64, 79
1, 122680, Control_c, 0, 64, 100
1, 122695, Control_c, 0, 64, 127
1, 122776, Note_on_c, 0, 61, 72
1, 122800, Note_on_c, 0, 55, 63
1, 122899, Note_off_c, 0, 61, 58
1, 122972, Note_on_c, 0, 51, 76
1, 122993, Note_off_c, 0, 55, 62
1, 123176, Note_on_c, 0, 44, 67
1, 123178, Note_off_c, 0, 75, 60
1, 123199, Note_on_c, 0, 72, 92
1, 123205, Control_c, 0, 64, 96
1, 123220, Control_c, 0, 64, 67
1, 123235, Control_c, 0, 64, 50
1, 123242, Note_off_c, 0, 51, 22
1, 123249, Control_c, 0, 64, 50
1, 123264, Control_c, 0, 64, 57
1, 123278, Note_off_c, 0, 44, 63
1, 123279, Control_c, 0, 64, 62
1, 123294, Control_c, 0, 64, 68
1, 123309, Control_c, 0, 64, 79
1, 123324, Control_c, 0, 64, 107
1, 123339, Control_c, 0, 64, 127
1, 123375, Note_on_c, 0, 60, 64
1, 123378, Note_on_c, 0, 56, 62
1, 123469, Note_off_c, 0, 60, 59
1, 123502, Note_off_c, 0, 72, 63
1, 123562, Note_on_c, 0, 51, 77
1, 123582, Note_off_c, 0, 56, 61
1, 123627, Note_off_c, 0, 51, 64
1, 123771, Note_on_c, 0, 39, 87
1, 123828, Control_c, 0, 64, 73
1, 123831, Note_on_c, 0, 72, 95
1, 123843, Control_c, 0, 64, 54
1, 123858, Control_c, 0, 64, 42
1, 123872, Control_c, 0, 64, 47
1, 123895, Control_c, 0, 64, 56
1, 123910, Control_c, 0, 64, 63
1, 123925, Control_c, 0, 64, 70
1, 123939, Control_c, 0, 64, 84
1, 123943, Note_off_c, 0, 39, 64
1, 123954, Control_c, 0, 64, 127
1, 124106, Note_on_c, 0, 61, 65
1, 124117, Note_on_c, 0, 55, 53
1, 124249, Note_off_c, 0, 61, 57
1, 124308, Note_on_c, 0, 51, 75
1, 124343, Note_off_c, 0, 55, 60
1, 124371, Note_on_c, 0, 70, 89
1, 124436, Note_off_c, 0, 72, 58
1, 124523, Note_on_c, 0, 44, 64
1, 124562, Control_c, 0, 64, 81
1, 124574, Note_on_c, 0, 68, 83
1, 124577, Control_c, 0, 64, 62
1, 124592, Control_c, 0, 64, 38
1, 124607, Control_c, 0, 64, 35
1, 124622, Control_c, 0, 64, 37
1, 124644, Control_c, 0, 64, 46
1, 124651, Note_off_c, 0, 70, 62
1, 124659, Control_c, 0, 64, 56
1, 124672, Note_off_c, 0, 51, 34
1, 124674, Control_c, 0, 64, 63
1, 124681, Note_off_c, 0, 44, 63
1, 124688, Control_c, 0, 64, 70
1, 124703, Control_c, 0, 64, 81
1, 124718, Control_c, 0, 64, 103
1, 124733, Control_c, 0, 64, 127
1, 124764, Note_on_c, 0, 60, 66
1, 124773, Note_on_c, 0, 56, 61
1, 124856, Note_off_c, 0, 60, 57
1, 124938, Note_on_c, 0, 51, 77
1, 124963, Note_off_c, 0, 56, 63
1, 125001, Poly_aftertouch_c, 0, 52, 127
1, 125017, Note_off_c, 0, 51, 63
1, 125035, Poly_aftertouch_c, 0, 52, 0
1, 125098, Note_on_c, 0, 44, 71
1, 125111, Note_on_c, 0, 63, 91
1, 125163, Control_c, 0, 64, 104
1, 125177, Control_c, 0, 64, 71
1, 125192, Note_off_c, 0, 68, 58
1, 125192, Control_c, 0, 64, 50
1, 125207, Control_c, 0, 64, 45
1, 125222, Control_c, 0, 64, 50
1, 125237, Control_c, 0, 64, 55
1, 125251, Control_c, 0, 64, 61
1, 125266, Control_c, 0, 64, 65
1, 125281, Control_c, 0, 64, 72
1, 125296, Control_c, 0, 64, 83
1, 125310, Control_c, 0, 64, 100
1, 125325, Control_c, 0, 64, 127
1, 125335, Note_on_c, 0, 58, 68
1, 125529, Poly_aftertouch_c, 0, 46, 127
1, 125530, Note_on_c, 0, 51, 73
1, 125561, Note_off_c, 0, 44, 56
1, 125612, Note_off_c, 0, 58, 57
1, 125730, Note_on_c, 0, 60, 85
1, 125735, Note_on_c, 0, 44, 70
1, 125759, Note_off_c, 0, 63, 60
1, 125763, Control_c, 0, 64, 81
1, 125777, Control_c, 0, 64, 64
1, 125792, Control_c, 0, 64, 55
1, 125807, Control_c, 0, 64, 56
1, 125822, Control_c, 0, 64, 60
1, 125825, Note_off_c, 0, 51, 59
1, 125838, Control_c, 0, 64, 64
1, 125853, Control_c, 0, 64, 69
1, 125868, Control_c, 0, 64, 77
1, 125882, Control_c, 0, 64, 88
1, 125897, Control_c, 0, 64, 102
1, 125912, Control_c, 0, 64, 118
1, 125926, Control_c, 0, 64, 127
1, 125936, Note_on_c, 0, 56, 72
1, 126016, Note_on_c, 0, 63, 91
1, 126068, Note_off_c, 0, 60, 59
1, 126120, Note_on_c, 0, 51, 77
1, 126168, Note_off_c, 0, 44, 57
1, 126206, Note_off_c, 0, 56, 59
1, 126215, Control_c, 0, 64, 98
1, 126230, Control_c, 0, 64, 70
1, 126245, Control_c, 0, 64, 62
1, 126260, Control_c, 0, 64, 61
1, 126275, Control_c, 0, 64, 63
1, 126290, Control_c, 0, 64, 67
1, 126300, Note_on_c, 0, 44, 67
1, 126305, Control_c, 0, 64, 76
1, 126311, Note_on_c, 0, 68, 89
1, 126320, Control_c, 0, 64, 110
1, 126334, Control_c, 0, 64, 127
1, 126352, Note_off_c, 0, 63, 65
1, 126368, Note_off_c, 0, 51, 63
1, 126388, Note_off_c, 0, 44, 63
1, 126395, Poly_aftertouch_c, 0, 46, 0
1, 126463, Note_on_c, 0, 60, 63
1, 126470, Note_on_c, 0, 56, 69
1, 126537, Note_on_c, 0, 70, 92
1, 126543, Note_off_c, 0, 60, 60
1, 126562, Note_off_c, 0, 68, 61
1, 126630, Note_on_c, 0, 51, 72
1, 126643, Note_off_c, 0, 56, 63
1, 126749, Control_c, 0, 64, 80
1, 126764, Control_c, 0, 64, 62
1, 126779, Control_c, 0, 64, 51
1, 126794, Note_on_c, 0, 44, 69
1, 126794, Control_c, 0, 64, 57
1, 126797, Note_on_c, 0, 72, 85
1, 126809, Control_c, 0, 64, 62
1, 126824, Control_c, 0, 64, 68
1, 126825, Note_on_c, 0, 49, 11
1, 126826, Note_off_c, 0, 70, 67
1, 126838, Control_c, 0, 64, 80
1, 126853, Control_c, 0, 64, 127
1, 126868, Note_off_c, 0, 44, 63
1, 126878, Note_off_c, 0, 49, 52
1, 126880, Note_off_c, 0, 51, 58
1, 126940, Note_off_c, 0, 72, 61
1, 126950, Control_c, 0, 64, 79
1, 126958, Note_on_c, 0, 60, 58
1, 126964, Control_c, 0, 64, 61
1, 126968, Note_on_c, 0, 56, 45
1, 126988, Note_on_c, 0, 68, 72
1, 126994, Control_c, 0, 64, 67
1, 127009, Control_c, 0, 64, 77
1, 127024, Control_c, 0, 64, 106
1, 127025, Note_off_c, 0, 68, 61
1, 127035, Note_on_c, 0, 70, 76
1, 127038, Control_c, 0, 64, 127
1, 127051, Note_off_c, 0, 60, 48
1, 127083, Note_on_c, 0, 68, 80
1, 127086, Note_off_c, 0, 70, 65
1, 127136, Note_on_c, 0, 67, 78
1, 127136, Note_off_c, 0, 68, 63
1, 127151, Note_on_c, 0, 51, 59
1, 127157, Note_off_c, 0, 56, 55
1, 127187, Note_on_c, 0, 68, 83
1, 127217, Note_off_c, 0, 67, 60
1, 127327, Note_on_c, 0, 48, 65
1, 127345, Note_off_c, 0, 68, 62
1, 127359, Note_on_c, 0, 79, 87
1, 127364, Control_c, 0, 64, 101
1, 127379, Control_c, 0, 64, 70
1, 127390, Note_off_c, 0, 51, 54
1, 127394, Control_c, 0, 64, 51
1, 127409, Control_c, 0, 64, 39
1, 127420, Poly_aftertouch_c, 0, 69, 0
1, 127425, Control_c, 0, 64, 43
1, 127440, Control_c, 0, 64, 54
1, 127454, Control_c, 0, 64, 63
1, 127469, Control_c, 0, 64, 70
1, 127484, Control_c, 0, 64, 86
1, 127499, Control_c, 0, 64, 127
1, 127518, Note_off_c, 0, 48, 61
1, 127561, Note_on_c, 0, 55, 25
1, 127600, Note_on_c, 0, 77, 95
1, 127606, Note_on_c, 0, 63, 73
1, 127658, Note_off_c, 0, 63, 58
1, 127659, Note_off_c, 0, 79, 57
1, 127713, Note_off_c, 0, 55, 40
1, 127777, Note_on_c, 0, 51, 74
1, 127786, Note_on_c, 0, 75, 94
1, 127833, Note_off_c, 0, 51, 63
1, 127836, Note_off_c, 0, 77, 60
1, 127983, Note_on_c, 0, 39, 79
1, 127993, Control_c, 0, 64, 94
1, 128008, Control_c, 0, 64, 67
1, 128023, Control_c, 0, 64, 48
1, 128038, Control_c, 0, 64, 42
1, 128043, Note_on_c, 0, 70, 94
1, 128052, Control_c, 0, 64, 50
1, 128067, Control_c, 0, 64, 59
1, 128079, Note_off_c, 0, 75, 62
1, 128082, Control_c, 0, 64, 66
1, 128097, Control_c, 0, 64, 76
1, 128111, Control_c, 0, 64, 94
1, 128126, Control_c, 0, 64, 127
1, 128144, Note_off_c, 0, 39, 62
1, 128294, Note_on_c, 0, 63, 68
1, 128459, Note_off_c, 0, 63, 57
1, 128462, Note_on_c, 0, 55, 72
1, 128651, Note_on_c, 0, 49, 63
1, 128667, Note_on_c, 0, 69, 77
1, 128669, Control_c, 0, 64, 103
1, 128680, Note_off_c, 0, 70, 60
1, 128683, Control_c, 0, 64, 74
1, 128698, Control_c, 0, 64, 61
1, 128713, Control_c, 0, 64, 53
1, 128727, Control_c, 0, 64, 53
1, 128742, Control_c, 0, 64, 54
1, 128757, Control_c, 0, 64, 57
1, 128772, Control_c, 0, 64, 62
1, 128787, Control_c, 0, 64, 69
1, 128801, Control_c, 0, 64, 85
1, 128814, Note_on_c, 0, 70, 76
1, 128816, Control_c, 0, 64, 127
1, 128845, Note_off_c, 0, 49, 63
1, 128862, Note_off_c, 0, 69, 60
1, 128890, Control_c, 0, 64, 83
1, 128895, Note_on_c, 0, 71, 84
1, 128905, Note_off_c, 0, 70, 64
1, 128905, Control_c, 0, 64, 70
1, 128914, Note_on_c, 0, 64, 63
1, 128920, Control_c, 0, 64, 76
1, 128934, Control_c, 0, 64, 127
1, 128963, Note_off_c, 0, 55, 34
1, 128970, Note_off_c, 0, 71, 65
1, 128971, Note_on_c, 0, 70, 83
1, 129009, Control_c, 0, 64, 74
1, 129024, Control_c, 0, 64, 60
1, 129039, Control_c, 0, 64, 52
1, 129047, Note_on_c, 0, 73, 81
1, 129054, Control_c, 0, 64, 58
1, 129062, Note_off_c, 0, 70, 62
1, 129069, Control_c, 0, 64, 64
1, 129084, Control_c, 0, 64, 71
1, 129088, Note_on_c, 0, 56, 59
1, 129098, Control_c, 0, 64, 90
1, 129113, Control_c, 0, 64, 127
1, 129134, Note_on_c, 0, 71, 81
1, 129159, Note_off_c, 0, 64, 49
1, 129201, Note_on_c, 0, 70, 80
1, 129201, Note_off_c, 0, 73, 60
1, 129219, Note_off_c, 0, 71, 62
1, 129250, Note_off_c, 0, 70, 65
1, 129298, Note_on_c, 0, 52, 64
1, 129302, Note_on_c, 0, 70, 83
1, 129314, Control_c, 0, 64, 93
1, 129329, Control_c, 0, 64, 67
1, 129344, Control_c, 0, 64, 44
1, 129349, Note_off_c, 0, 56, 61
1, 129359, Control_c, 0, 64, 29
1, 129374, Control_c, 0, 64, 35
1, 129389, Control_c, 0, 64, 50
1, 129404, Control_c, 0, 64, 60
1, 129419, Control_c, 0, 64, 65
1, 129433, Control_c, 0, 64, 72
1, 129448, Control_c, 0, 64, 83
1, 129463, Control_c, 0, 64, 100
1, 129477, Note_on_c, 0, 61, 79
1, 129478, Control_c, 0, 64, 127
1, 129651, Note_on_c, 0, 56, 80
1, 129690, Note_off_c, 0, 61, 60
1, 129819, Control_c, 0, 64, 110
1, 129834, Control_c, 0, 64, 97
1, 129846, Note_on_c, 0, 51, 74
1, 129849, Control_c, 0, 64, 85
1, 129864, Control_c, 0, 64, 75
1, 129876, Note_on_c, 0, 71, 87
1, 129886, Control_c, 0, 64, 66
1, 129901, Control_c, 0, 64, 57
1, 129916, Note_off_c, 0, 56, 63
1, 129916, Control_c, 0, 64, 38
1, 129924, Note_off_c, 0, 70, 51
1, 129930, Control_c, 0, 64, 0
1, 130012, Note_off_c, 0, 52, 61
1, 130064, Control_c, 0, 64, 36
1, 130079, Control_c, 0, 64, 55
1, 130087, Note_on_c, 0, 61, 59
1, 130094, Control_c, 0, 64, 62
1, 130109, Control_c, 0, 64, 65
1, 130123, Control_c, 0, 64, 68
1, 130138, Control_c, 0, 64, 75
1, 130153, Control_c, 0, 64, 85
1, 130168, Control_c, 0, 64, 104
1, 130182, Control_c, 0, 64, 127
1, 130294, Note_on_c, 0, 55, 62
1, 130304, Note_off_c, 0, 61, 56
1, 130368, Note_off_c, 0, 55, 60
1, 130535, Note_off_c, 0, 51, 39
1, 130547, Note_on_c, 0, 44, 52
1, 130568, Note_on_c, 0, 72, 84
1, 130571, Note_off_c, 0, 71, 62
1, 130582, Control_c, 0, 64, 103
1, 130597, Control_c, 0, 64, 72
1, 130612, Control_c, 0, 64, 58
1, 130635, Control_c, 0, 64, 50
1, 130650, Control_c, 0, 64, 52
1, 130665, Control_c, 0, 64, 55
1, 130679, Control_c, 0, 64, 59
1, 130682, Note_off_c, 0, 44, 63
1, 130694, Control_c, 0, 64, 64
1, 130709, Control_c, 0, 64, 68
1, 130724, Control_c, 0, 64, 78
1, 130738, Control_c, 0, 64, 99
1, 130753, Control_c, 0, 64, 127
1, 130776, Note_on_c, 0, 56, 59
1, 130779, Note_on_c, 0, 60, 60
1, 130870, Note_off_c, 0, 60, 60
1, 130955, Note_on_c, 0, 51, 68
1, 130961, Note_off_c, 0, 56, 64
1, 131079, Control_c, 0, 64, 103
1, 131094, Control_c, 0, 64, 73
1, 131109, Control_c, 0, 64, 59
1, 131114, Note_on_c, 0, 71, 81
1, 131116, Note_on_c, 0, 44, 64
1, 131123, Control_c, 0, 64, 54
1, 131138, Control_c, 0, 64, 57
1, 131153, Control_c, 0, 64, 62
1, 131158, Note_off_c, 0, 72, 63
1, 131168, Control_c, 0, 64, 66
1, 131176, Note_off_c, 0, 51, 26
1, 131183, Control_c, 0, 64, 72
1, 131185, Note_off_c, 0, 44, 63
1, 131197, Control_c, 0, 64, 83
1, 131212, Control_c, 0, 64, 103
1, 131227, Control_c, 0, 64, 127
1, 131272, Note_on_c, 0, 59, 67
1, 131277, Note_on_c, 0, 56, 62
1, 131376, Note_off_c, 0, 59, 56
1, 131425, Note_on_c, 0, 50, 73
1, 131449, Note_off_c, 0, 56, 64
1, 131489, Note_off_c, 0, 50, 64
1, 131581, Note_on_c, 0, 44, 65
1, 131584, Note_on_c, 0, 72, 88
1, 131590, Control_c, 0, 64, 80
1, 131605, Control_c, 0, 64, 64
1, 131620, Control_c, 0, 64, 55
1, 131632, Note_off_c, 0, 71, 55
1, 131635, Control_c, 0, 64, 57
1, 131650, Control_c, 0, 64, 59
1, 131650, Note_off_c, 0, 44, 63
1, 131665, Control_c, 0, 64, 63
1, 131679, Control_c, 0, 64, 67
1, 131694, Control_c, 0, 64, 76
1, 131709, Control_c, 0, 64, 96
1, 131724, Control_c, 0, 64, 127
1, 131733, Note_on_c, 0, 60, 69
1, 131738, Note_on_c, 0, 56, 63
1, 131836, Note_off_c, 0, 60, 60
1, 131909, Note_on_c, 0, 51, 70
1, 131916, Note_off_c, 0, 56, 63
1, 132034, Control_c, 0, 64, 101
1, 132049, Control_c, 0, 64, 72
1, 132064, Control_c, 0, 64, 58
1, 132069, Note_on_c, 0, 44, 66
1, 132079, Control_c, 0, 64, 52
1, 132088, Note_on_c, 0, 75, 84
1, 132094, Control_c, 0, 64, 55
1, 132107, Note_off_c, 0, 51, 58
1, 132109, Control_c, 0, 64, 60
1, 132131, Control_c, 0, 64, 65
1, 132141, Note_off_c, 0, 44, 62
1, 132145, Control_c, 0, 64, 74
1, 132160, Control_c, 0, 64, 94
1, 132175, Control_c, 0, 64, 127
1, 132192, Note_off_c, 0, 72, 63
1, 132264, Note_on_c, 0, 61, 70
1, 132282, Note_on_c, 0, 55, 55
1, 132386, Note_off_c, 0, 61, 57
1, 132455, Note_on_c, 0, 51, 70
1, 132460, Note_off_c, 0, 55, 62
1, 132634, Note_on_c, 0, 44, 65
1, 132635, Note_on_c, 0, 72, 85
1, 132636, Note_off_c, 0, 75, 59
1, 132636, Control_c, 0, 64, 101
1, 132650, Control_c, 0, 64, 70
1, 132665, Control_c, 0, 64, 53
1, 132680, Control_c, 0, 64, 47
1, 132695, Control_c, 0, 64, 52
1, 132710, Control_c, 0, 64, 60
1, 132722, Note_off_c, 0, 51, 40
1, 132724, Control_c, 0, 64, 69
1, 132726, Note_off_c, 0, 44, 63
1, 132739, Control_c, 0, 64, 97
1, 132754, Control_c, 0, 64, 127
1, 132809, Note_on_c, 0, 60, 67
1, 132818, Note_on_c, 0, 56, 60
1, 132908, Note_off_c, 0, 72, 64
1, 132965, Note_off_c, 0, 60, 55
1, 133011, Note_on_c, 0, 51, 80
1, 133078, Note_off_c, 0, 56, 61
1, 133210, Note_on_c, 0, 48, 79
1, 133265, Control_c, 0, 64, 101
1, 133280, Control_c, 0, 64, 71
1, 133292, Note_off_c, 0, 51, 58
1, 133295, Control_c, 0, 64, 52
1, 133307, Note_on_c, 0, 72, 92
1, 133310, Control_c, 0, 64, 44
1, 133325, Control_c, 0, 64, 47
1, 133340, Control_c, 0, 64, 53
1, 133355, Control_c, 0, 64, 60
1, 133370, Control_c, 0, 64, 65
1, 133385, Control_c, 0, 64, 73
1, 133399, Control_c, 0, 64, 90
1, 133414, Control_c, 0, 64, 127
1, 133451, Note_off_c, 0, 48, 63
1, 133600, Note_on_c, 0, 55, 64
1, 133605, Note_on_c, 0, 64, 59
1, 133840, Note_on_c, 0, 60, 56
1, 133895, Note_off_c, 0, 55, 60
1, 133900, Note_on_c, 0, 70, 80
1, 133910, Note_off_c, 0, 64, 49
1, 133969, Note_off_c, 0, 72, 61
1, 134045, Control_c, 0, 64, 113
1, 134060, Control_c, 0, 64, 103
1, 134075, Control_c, 0, 64, 97
1, 134089, Control_c, 0, 64, 94
1, 134104, Control_c, 0, 64, 91
1, 134115, Note_on_c, 0, 53, 50
1, 134119, Control_c, 0, 64, 89
1, 134134, Control_c, 0, 64, 87
1, 134148, Control_c, 0, 64, 85
1, 134163, Control_c, 0, 64, 80
1, 134178, Control_c, 0, 64, 73
1, 134180, Note_on_c, 0, 68, 70
1, 134193, Control_c, 0, 64, 63
1, 134204, Note_off_c, 0, 70, 64
1, 134208, Control_c, 0, 64, 51
1, 134213, Note_off_c, 0, 60, 58
1, 134222, Control_c, 0, 64, 44
1, 134237, Control_c, 0, 64, 42
1, 134252, Control_c, 0, 64, 40
1, 134267, Control_c, 0, 64, 40
1, 134297, Control_c, 0, 64, 42
1, 134312, Control_c, 0, 64, 47
1, 134327, Control_c, 0, 64, 53
1, 134341, Control_c, 0, 64, 57
1, 134356, Control_c, 0, 64, 60
1, 134378, Control_c, 0, 64, 63
1, 134393, Control_c, 0, 64, 65
1, 134404, Note_on_c, 0, 65, 52
1, 134405, Note_on_c, 0, 60, 46
1, 134408, Control_c, 0, 64, 69
1, 134422, Control_c, 0, 64, 77
1, 134437, Control_c, 0, 64, 91
1, 134452, Control_c, 0, 64, 127
1, 134482, Note_off_c, 0, 68, 63
1, 134484, Note_off_c, 0, 65, 52
1, 134490, Note_off_c, 0, 53, 62
1, 134607, Note_on_c, 0, 56, 56
1, 134640, Note_off_c, 0, 60, 59
1, 134797, Note_on_c, 0, 68, 53
1, 134800, Note_on_c, 0, 49, 48
1, 134809, Control_c, 0, 64, 96
1, 134824, Control_c, 0, 64, 74
1, 134838, Control_c, 0, 64, 64
1, 134853, Control_c, 0, 64, 60
1, 134868, Control_c, 0, 64, 62
1, 134883, Control_c, 0, 64, 67
1, 134891, Note_off_c, 0, 68, 57
1, 134898, Control_c, 0, 64, 74
1, 134911, Note_on_c, 0, 70, 56
1, 134912, Control_c, 0, 64, 92
1, 134924, Note_off_c, 0, 49, 63
1, 134927, Control_c, 0, 64, 127
1, 134951, Note_off_c, 0, 70, 63
1, 134982, Note_on_c, 0, 72, 58
1, 135020, Note_off_c, 0, 72, 63
1, 135048, Note_on_c, 0, 58, 57
1, 135048, Note_on_c, 0, 70, 66
1, 135078, Note_off_c, 0, 70, 66
1, 135079, Note_off_c, 0, 56, 41
1, 135093, Note_on_c, 0, 72, 64
1, 135143, Poly_aftertouch_c, 0, 65, 0
1, 135144, Note_on_c, 0, 70, 67
1, 135160, Note_off_c, 0, 70, 69
1, 135208, Note_off_c, 0, 72, 56
1, 135212, Note_on_c, 0, 70, 83
1, 135224, Note_off_c, 0, 58, 63
1, 135243, Note_on_c, 0, 55, 53
1, 135268, Note_off_c, 0, 70, 62
1, 135274, Note_on_c, 0, 68, 76
1, 135334, Control_c, 0, 64, 116
1, 135349, Control_c, 0, 64, 74
1, 135349, Note_on_c, 0, 70, 79
1, 135352, Note_off_c, 0, 68, 61
1, 135363, Control_c, 0, 64, 60
1, 135378, Control_c, 0, 64, 51
1, 135393, Control_c, 0, 64, 52
1, 135401, Note_on_c, 0, 48, 49
1, 135408, Control_c, 0, 64, 55
1, 135423, Control_c, 0, 64, 60
1, 135426, Note_on_c, 0, 72, 77
1, 135438, Control_c, 0, 64, 67
1, 135444, Note_off_c, 0, 70, 62
1, 135453, Control_c, 0, 64, 78
1, 135468, Control_c, 0, 64, 127
1, 135477, Note_off_c, 0, 48, 61
1, 135490, Note_off_c, 0, 55, 39
1, 135518, Note_on_c, 0, 73, 83
1, 135523, Note_off_c, 0, 72, 65
1, 135572, Control_c, 0, 64, 93
1, 135582, Note_on_c, 0, 64, 54
1, 135586, Control_c, 0, 64, 68
1, 135588, Note_on_c, 0, 58, 59
1, 135597, Note_on_c, 0, 72, 80
1, 135601, Control_c, 0, 64, 50
1, 135616, Control_c, 0, 64, 41
1, 135631, Control_c, 0, 64, 46
1, 135646, Control_c, 0, 64, 56
1, 135660, Control_c, 0, 64, 64
1, 135670, Note_off_c, 0, 73, 54
1, 135675, Note_on_c, 0, 71, 82
1, 135675, Control_c, 0, 64, 72
1, 135680, Note_off_c, 0, 72, 65
1, 135690, Control_c, 0, 64, 86
1, 135705, Control_c, 0, 64, 127
1, 135725, Note_on_c, 0, 60, 61
1, 135736, Note_off_c, 0, 71, 64
1, 135742, Note_on_c, 0, 72, 83
1, 135744, Note_off_c, 0, 64, 35
1, 135776, Note_off_c, 0, 72, 63
1, 135832, Note_on_c, 0, 72, 80
1, 135853, Control_c, 0, 64, 116
1, 135875, Control_c, 0, 64, 106
1, 135890, Control_c, 0, 64, 97
1, 135905, Control_c, 0, 64, 85
1, 135920, Control_c, 0, 64, 74
1, 135935, Control_c, 0, 64, 65
1, 135949, Control_c, 0, 64, 51
1, 135964, Control_c, 0, 64, 21
1, 135965, Note_off_c, 0, 58, 21
1, 135979, Control_c, 0, 64, 0
1, 135982, Note_on_c, 0, 53, 49
1, 135996, Note_on_c, 0, 80, 83
1, 136009, Note_off_c, 0, 72, 58
1, 136039, Note_off_c, 0, 60, 34
1, 136067, Control_c, 0, 64, 30
1, 136082, Control_c, 0, 64, 45
1, 136097, Control_c, 0, 64, 57
1, 136112, Control_c, 0, 64, 63
1, 136127, Control_c, 0, 64, 69
1, 136142, Control_c, 0, 64, 80
1, 136157, Control_c, 0, 64, 107
1, 136172, Control_c, 0, 64, 127
1, 136210, Note_off_c, 0, 80, 63
1, 136280, Note_on_c, 0, 65, 45
1, 136291, Note_on_c, 0, 56, 47
1, 136297, Note_on_c, 0, 79, 84
1, 136321, Control_c, 0, 64, 104
1, 136336, Control_c, 0, 64, 73
1, 136350, Control_c, 0, 64, 59
1, 136365, Control_c, 0, 64, 52
1, 136380, Control_c, 0, 64, 57
1, 136386, Note_off_c, 0, 65, 54
1, 136395, Control_c, 0, 64, 62
1, 136395, Note_off_c, 0, 53, 62
1, 136409, Control_c, 0, 64, 66
1, 136424, Control_c, 0, 64, 74
1, 136439, Control_c, 0, 64, 89
1, 136454, Control_c, 0, 64, 127
1, 136470, Note_on_c, 0, 60, 56
1, 136514, Note_off_c, 0, 79, 63
1, 136521, Note_off_c, 0, 60, 61
1, 136562, Note_off_c, 0, 56, 64
1, 136572, Note_on_c, 0, 77, 72
1, 136630, Note_off_c, 0, 77, 62
1, 136654, Control_c, 0, 64, 96
1, 136669, Control_c, 0, 64, 69
1, 136678, Note_on_c, 0, 49, 52
1, 136684, Control_c, 0, 64, 54
1, 136688, Note_on_c, 0, 77, 77
1, 136698, Control_c, 0, 64, 49
1, 136713, Control_c, 0, 64, 53
1, 136728, Control_c, 0, 64, 58
1, 136742, Control_c, 0, 64, 64
1, 136757, Control_c, 0, 64, 69
1, 136772, Control_c, 0, 64, 79
1, 136776, Note_off_c, 0, 49, 64
1, 136787, Control_c, 0, 64, 97
1, 136802, Control_c, 0, 64, 127
1, 136886, Note_on_c, 0, 56, 56
1, 136887, Note_on_c, 0, 65, 51
1, 136925, Note_on_c, 0, 75, 78
1, 136935, Control_c, 0, 64, 83
1, 136950, Control_c, 0, 64, 69
1, 136965, Control_c, 0, 64, 64
1, 136980, Control_c, 0, 64, 65
1, 136994, Control_c, 0, 64, 70
1, 136998, Note_off_c, 0, 77, 59
1, 137010, Control_c, 0, 64, 80
1, 137025, Control_c, 0, 64, 106
1, 137039, Control_c, 0, 64, 127
1, 137056, Note_on_c, 0, 58, 64
1, 137073, Note_off_c, 0, 65, 36
1, 137140, Note_off_c, 0, 75, 58
1, 137140, Note_on_c, 0, 73, 80
1, 137198, Note_off_c, 0, 73, 64
1, 137260, Note_on_c, 0, 73, 76
1, 137272, Note_off_c, 0, 56, 37
1, 137279, Note_on_c, 0, 51, 58
1, 137292, Control_c, 0, 64, 100
1, 137307, Control_c, 0, 64, 75
1, 137321, Control_c, 0, 64, 63
1, 137334, Note_off_c, 0, 58, 60
1, 137336, Control_c, 0, 64, 52
1, 137349, Note_on_c, 0, 75, 76
1, 137351, Control_c, 0, 64, 47
1, 137373, Control_c, 0, 64, 42
1, 137379, Note_off_c, 0, 73, 64
1, 137388, Control_c, 0, 64, 32
1, 137403, Control_c, 0, 64, 17
1, 137418, Control_c, 0, 64, 13
1, 137440, Note_on_c, 0, 73, 65
1, 137477, Control_c, 0, 64, 16
1, 137492, Control_c, 0, 64, 21
1, 137495, Note_off_c, 0, 75, 60
1, 137507, Control_c, 0, 64, 25
1, 137522, Control_c, 0, 64, 31
1, 137537, Note_on_c, 0, 55, 42
1, 137537, Control_c, 0, 64, 34
1, 137541, Note_on_c, 0, 72, 69
1, 137543, Note_on_c, 0, 63, 53
1, 137552, Control_c, 0, 64, 37
1, 137560, Note_off_c, 0, 73, 59
1, 137566, Control_c, 0, 64, 40
1, 137581, Control_c, 0, 64, 45
1, 137596, Control_c, 0, 64, 48
1, 137611, Control_c, 0, 64, 51
1, 137615, Note_off_c, 0, 51, 58
1, 137626, Control_c, 0, 64, 52
1, 137640, Control_c, 0, 64, 55
1, 137655, Control_c, 0, 64, 58
1, 137670, Control_c, 0, 64, 62
1, 137685, Control_c, 0, 64, 64
1, 137700, Control_c, 0, 64, 66
1, 137714, Control_c, 0, 64, 69
1, 137729, Control_c, 0, 64, 74
1, 137732, Note_off_c, 0, 72, 63
1, 137744, Control_c, 0, 64, 83
1, 137758, Control_c, 0, 64, 98
1, 137773, Control_c, 0, 64, 127
1, 137811, Note_on_c, 0, 61, 48
1, 137836, Note_off_c, 0, 63, 58
1, 137855, Note_off_c, 0, 61, 62
1, 137890, Note_off_c, 0, 55, 62
1, 137912, Note_on_c, 0, 70, 63
1, 137996, Control_c, 0, 64, 102
1, 138011, Control_c, 0, 64, 75
1, 138026, Control_c, 0, 64, 62
1, 138038, Note_on_c, 0, 44, 48
1, 138041, Note_on_c, 0, 68, 66
1, 138041, Control_c, 0, 64, 55
1, 138056, Control_c, 0, 64, 57
1, 138071, Control_c, 0, 64, 59
1, 138085, Control_c, 0, 64, 62
1, 138100, Control_c, 0, 64, 65
1, 138123, Control_c, 0, 64, 70
1, 138134, Note_off_c, 0, 70, 53
1, 138136, Note_off_c, 0, 44, 63
1, 138138, Control_c, 0, 64, 76
1, 138152, Control_c, 0, 64, 86
1, 138167, Control_c, 0, 64, 95
1, 138182, Control_c, 0, 64, 104
1, 138196, Control_c, 0, 64, 112
1, 138211, Control_c, 0, 64, 121
1, 138226, Control_c, 0, 64, 127
1, 138237, Note_on_c, 0, 60, 52
1, 138240, Note_on_c, 0, 56, 50
1, 138307, Note_off_c, 0, 60, 44
1, 138407, Note_on_c, 0, 51, 57
1, 138413, Note_off_c, 0, 56, 61
1, 138567, Control_c, 0, 64, 97
1, 138568, Note_on_c, 0, 65, 71
1, 138571, Note_on_c, 0, 44, 53
1, 138581, Control_c, 0, 64, 76
1, 138596, Control_c, 0, 64, 65
1, 138612, Control_c, 0, 64, 61
1, 138627, Control_c, 0, 64, 63
1, 138635, Note_off_c, 0, 68, 58
1, 138642, Control_c, 0, 64, 65
1, 138646, Note_off_c, 0, 51, 18
1, 138648, Note_off_c, 0, 44, 61
1, 138657, Control_c, 0, 64, 69
1, 138672, Control_c, 0, 64, 76
1, 138686, Control_c, 0, 64, 89
1, 138701, Control_c, 0, 64, 121
1, 138716, Control_c, 0, 64, 127
1, 138732, Note_on_c, 0, 59, 54
1, 138744, Note_on_c, 0, 56, 50
1, 138813, Note_off_c, 0, 59, 38
1, 138881, Note_off_c, 0, 56, 64
1, 138889, Note_on_c, 0, 50, 64
1, 138948, Note_off_c, 0, 50, 62
1, 139066, Note_on_c, 0, 44, 52
1, 139092, Control_c, 0, 64, 92
1, 139099, Note_on_c, 0, 68, 72
1, 139107, Control_c, 0, 64, 71
1, 139122, Control_c, 0, 64, 60
1, 139137, Control_c, 0, 64, 55
1, 139152, Control_c, 0, 64, 56
1, 139166, Control_c, 0, 64, 58
1, 139167, Note_off_c, 0, 65, 58
1, 139181, Control_c, 0, 64, 60
1, 139191, Note_off_c, 0, 44, 63
1, 139196, Control_c, 0, 64, 63
1, 139210, Control_c, 0, 64, 66
1, 139225, Control_c, 0, 64, 71
1, 139240, Control_c, 0, 64, 79
1, 139255, Control_c, 0, 64, 93
1, 139270, Control_c, 0, 64, 111
1, 139283, Note_on_c, 0, 60, 54
1, 139284, Control_c, 0, 64, 127
1, 139289, Note_on_c, 0, 56, 46
1, 139440, Note_off_c, 0, 60, 52
1, 139472, Note_on_c, 0, 51, 55
1, 139528, Note_off_c, 0, 56, 49
1, 139693, Control_c, 0, 64, 111
1, 139707, Control_c, 0, 64, 100
1, 139722, Control_c, 0, 64, 82
1, 139725, Note_on_c, 0, 48, 46
1, 139729, Note_on_c, 0, 67, 69
1, 139737, Control_c, 0, 64, 67
1, 139752, Control_c, 0, 64, 56
1, 139756, Note_off_c, 0, 68, 59
1, 139767, Control_c, 0, 64, 50
1, 139782, Control_c, 0, 64, 50
1, 139785, Note_off_c, 0, 51, 64
1, 139796, Control_c, 0, 64, 51
1, 139811, Control_c, 0, 64, 53
1, 139826, Control_c, 0, 64, 55
1, 139841, Control_c, 0, 64, 57
1, 139856, Control_c, 0, 64, 60
1, 139871, Control_c, 0, 64, 63
1, 139886, Control_c, 0, 64, 67
1, 139901, Control_c, 0, 64, 74
1, 139915, Control_c, 0, 64, 89
1, 139930, Control_c, 0, 64, 123
1, 139945, Control_c, 0, 64, 127
1, 139971, Note_on_c, 0, 63, 44
1, 139986, Note_off_c, 0, 48, 26
1, 140148, Note_on_c, 0, 56, 55
1, 140169, Note_off_c, 0, 63, 34
1, 140214, Note_on_c, 0, 68, 52
1, 140255, Note_off_c, 0, 67, 52
1, 140368, Control_c, 0, 64, 121
1, 140382, Control_c, 0, 64, 103
1, 140397, Control_c, 0, 64, 93
1, 140412, Control_c, 0, 64, 85
1, 140423, Note_on_c, 0, 55, 49
1, 140427, Control_c, 0, 64, 78
1, 140433, Note_on_c, 0, 70, 62
1, 140442, Control_c, 0, 64, 71
1, 140452, Note_off_c, 0, 56, 57
1, 140456, Control_c, 0, 64, 66
1, 140471, Control_c, 0, 64, 59
1, 140486, Control_c, 0, 64, 49
1, 140501, Control_c, 0, 64, 32
1, 140516, Control_c, 0, 64, 0
1, 140527, Note_off_c, 0, 68, 37
1, 140646, Note_on_c, 0, 63, 40
1, 140664, Control_c, 0, 64, 22
1, 140679, Control_c, 0, 64, 49
1, 140694, Control_c, 0, 64, 59
1, 140709, Control_c, 0, 64, 63
1, 140724, Control_c, 0, 64, 65
1, 140738, Control_c, 0, 64, 68
1, 140753, Control_c, 0, 64, 77
1, 140768, Control_c, 0, 64, 94
1, 140782, Control_c, 0, 64, 127
1, 140815, Note_on_c, 0, 58, 55
1, 140975, Control_c, 0, 64, 99
1, 140983, Note_on_c, 0, 72, 69
1, 140989, Note_on_c, 0, 54, 57
1, 140989, Control_c, 0, 64, 72
1, 141005, Control_c, 0, 64, 56
1, 141010, Note_off_c, 0, 63, 42
1, 141020, Control_c, 0, 64, 45
1, 141035, Control_c, 0, 64, 49
1, 141044, Note_off_c, 0, 70, 64
1, 141050, Control_c, 0, 64, 54
1, 141065, Control_c, 0, 64, 58
1, 141076, Note_off_c, 0, 58, 54
1, 141079, Control_c, 0, 64, 62
1, 141094, Control_c, 0, 64, 64
1, 141117, Control_c, 0, 64, 68
1, 141132, Control_c, 0, 64, 73
1, 141147, Control_c, 0, 64, 84
1, 141161, Control_c, 0, 64, 106
1, 141171, Note_on_c, 0, 63, 57
1, 141176, Control_c, 0, 64, 127
1, 141268, Note_off_c, 0, 72, 64
1, 141310, Note_on_c, 0, 58, 72
1, 141358, Note_off_c, 0, 55, 54
1, 141366, Note_off_c, 0, 63, 53
1, 141443, Control_c, 0, 64, 86
1, 141458, Control_c, 0, 64, 66
1, 141473, Control_c, 0, 64, 50
1, 141478, Note_on_c, 0, 53, 66
1, 141479, Note_on_c, 0, 72, 82
1, 141488, Control_c, 0, 64, 48
1, 141503, Control_c, 0, 64, 50
1, 141517, Note_off_c, 0, 54, 62
1, 141518, Control_c, 0, 64, 53
1, 141533, Control_c, 0, 64, 56
1, 141548, Control_c, 0, 64, 60
1, 141549, Note_off_c, 0, 58, 62
1, 141562, Control_c, 0, 64, 62
1, 141577, Control_c, 0, 64, 64
1, 141592, Control_c, 0, 64, 67
1, 141606, Control_c, 0, 64, 73
1, 141621, Control_c, 0, 64, 86
1, 141636, Control_c, 0, 64, 127
1, 141647, Note_on_c, 0, 63, 60
1, 141712, Note_off_c, 0, 63, 63
1, 141791, Note_on_c, 0, 57, 66
1, 141823, Note_off_c, 0, 57, 65
1, 141837, Note_off_c, 0, 53, 61
1, 141882, Note_off_c, 0, 72, 60
1, 141956, Control_c, 0, 64, 94
1, 141970, Control_c, 0, 64, 68
1, 141972, Note_on_c, 0, 46, 59
1, 141984, Control_c, 0, 64, 57
1, 141990, Note_on_c, 0, 73, 75
1, 141999, Control_c, 0, 64, 54
1, 142014, Control_c, 0, 64, 56
1, 142029, Control_c, 0, 64, 59
1, 142044, Control_c, 0, 64, 63
1, 142059, Control_c, 0, 64, 68
1, 142074, Control_c, 0, 64, 76
1, 142089, Control_c, 0, 64, 90
1, 142097, Note_off_c, 0, 46, 63
1, 142103, Control_c, 0, 64, 108
1, 142118, Control_c, 0, 64, 127
1, 142147, Note_on_c, 0, 61, 72
1, 142254, Note_off_c, 0, 73, 64
1, 142316, Note_on_c, 0, 53, 70
1, 142333, Note_off_c, 0, 61, 49
1, 142473, Control_c, 0, 64, 86
1, 142488, Control_c, 0, 64, 67
1, 142503, Control_c, 0, 64, 56
1, 142518, Control_c, 0, 64, 55
1, 142529, Note_on_c, 0, 51, 53
1, 142533, Control_c, 0, 64, 57
1, 142542, Note_on_c, 0, 73, 71
1, 142547, Control_c, 0, 64, 59
1, 142562, Control_c, 0, 64, 62
1, 142567, Note_off_c, 0, 53, 61
1, 142577, Control_c, 0, 64, 65
1, 142592, Control_c, 0, 64, 70
1, 142615, Control_c, 0, 64, 82
1, 142630, Control_c, 0, 64, 104
1, 142645, Control_c, 0, 64, 127
1, 142706, Note_off_c, 0, 51, 63
1, 142729, Note_off_c, 0, 73, 66
1, 142745, Note_on_c, 0, 66, 65
1, 142819, Note_on_c, 0, 73, 79
1, 142920, Note_on_c, 0, 75, 76
1, 142927, Note_off_c, 0, 73, 63
1, 142938, Note_on_c, 0, 58, 62
1, 142956, Control_c, 0, 64, 121
1, 142971, Control_c, 0, 64, 107
1, 142986, Control_c, 0, 64, 99
1, 143000, Note_off_c, 0, 66, 36
1, 143000, Control_c, 0, 64, 95
1, 143015, Control_c, 0, 64, 92
1, 143025, Note_on_c, 0, 73, 73
1, 143030, Control_c, 0, 64, 89
1, 143045, Control_c, 0, 64, 85
1, 143059, Control_c, 0, 64, 80
1, 143074, Control_c, 0, 64, 74
1, 143089, Control_c, 0, 64, 69
1, 143104, Control_c, 0, 64, 65
1, 143119, Control_c, 0, 64, 62
1, 143133, Control_c, 0, 64, 61
1, 143138, Note_off_c, 0, 75, 52
1, 143148, Control_c, 0, 64, 58
1, 143153, Note_on_c, 0, 54, 56
1, 143163, Note_on_c, 0, 72, 74
1, 143163, Control_c, 0, 64, 54
1, 143177, Control_c, 0, 64, 50
1, 143192, Control_c, 0, 64, 47
1, 143200, Note_off_c, 0, 73, 60
1, 143207, Control_c, 0, 64, 45
1, 143222, Control_c, 0, 64, 45
1, 143234, Note_off_c, 0, 58, 57
1, 143237, Control_c, 0, 64, 44
1, 143326, Control_c, 0, 64, 45
1, 143341, Control_c, 0, 64, 48
1, 143359, Note_on_c, 0, 63, 49
1, 143363, Control_c, 0, 64, 52
1, 143377, Control_c, 0, 64, 56
1, 143392, Control_c, 0, 64, 60
1, 143409, Control_c, 0, 64, 64
1, 143424, Control_c, 0, 64, 69
1, 143438, Control_c, 0, 64, 79
1, 143453, Control_c, 0, 64, 119
1, 143468, Control_c, 0, 64, 127
1, 143525, Note_on_c, 0, 58, 58
1, 143558, Note_on_c, 0, 70, 65
1, 143571, Note_off_c, 0, 63, 34
1, 143586, Note_off_c, 0, 72, 56
1, 143728, Note_on_c, 0, 69, 69
1, 143732, Note_on_c, 0, 53, 57
1, 143734, Control_c, 0, 64, 79
1, 143749, Control_c, 0, 64, 63
1, 143754, Note_off_c, 0, 70, 59
1, 143764, Control_c, 0, 64, 48
1, 143779, Control_c, 0, 64, 49
1, 143779, Note_off_c, 0, 54, 36
1, 143782, Note_off_c, 0, 58, 57
1, 143794, Control_c, 0, 64, 50
1, 143808, Control_c, 0, 64, 53
1, 143823, Control_c, 0, 64, 56
1, 143838, Control_c, 0, 64, 60
1, 143853, Control_c, 0, 64, 62
1, 143868, Control_c, 0, 64, 64
1, 143882, Control_c, 0, 64, 66
1, 143897, Control_c, 0, 64, 71
1, 143906, Note_on_c, 0, 63, 52
1, 143912, Control_c, 0, 64, 83
1, 143927, Control_c, 0, 64, 111
1, 143942, Control_c, 0, 64, 127
1, 143990, Note_off_c, 0, 63, 60
1, 144019, Poly_aftertouch_c, 0, 54, 127
1, 144056, Note_on_c, 0, 60, 63
1, 144089, Note_off_c, 0, 60, 66
1, 144154, Note_off_c, 0, 53, 34
1, 144155, Poly_aftertouch_c, 0, 54, 0
1, 144243, Note_on_c, 0, 46, 61
1, 144243, Note_on_c, 0, 70, 75
1, 144247, Control_c, 0, 64, 82
1, 144248, Note_off_c, 0, 69, 56
1, 144261, Control_c, 0, 64, 63
1, 144276, Control_c, 0, 64, 47
1, 144291, Control_c, 0, 64, 50
1, 144305, Control_c, 0, 64, 54
1, 144320, Control_c, 0, 64, 60
1, 144335, Control_c, 0, 64, 65
1, 144350, Control_c, 0, 64, 72
1, 144365, Control_c, 0, 64, 85
1, 144367, Note_off_c, 0, 46, 63
1, 144379, Control_c, 0, 64, 127
1, 144407, Note_on_c, 0, 61, 70
1, 144544, Note_off_c, 0, 70, 59
1, 144587, Note_on_c, 0, 58, 79
1, 144634, Note_off_c, 0, 61, 54
1, 144784, Note_on_c, 0, 52, 68
1, 144794, Control_c, 0, 64, 114
1, 144798, Note_on_c, 0, 70, 85
1, 144809, Control_c, 0, 64, 81
1, 144823, Control_c, 0, 64, 65
1, 144838, Control_c, 0, 64, 52
1, 144861, Control_c, 0, 64, 51
1, 144869, Note_off_c, 0, 58, 63
1, 144891, Control_c, 0, 64, 51
1, 144905, Control_c, 0, 64, 52
1, 144920, Control_c, 0, 64, 54
1, 144935, Control_c, 0, 64, 58
1, 144949, Control_c, 0, 64, 64
1, 144965, Control_c, 0, 64, 69
1, 144980, Control_c, 0, 64, 80
1, 144992, Note_on_c, 0, 61, 73
1, 144995, Control_c, 0, 64, 102
1, 145010, Control_c, 0, 64, 127
1, 145159, Note_on_c, 0, 56, 76
1, 145246, Note_off_c, 0, 61, 52
1, 145292, Control_c, 0, 64, 96
1, 145307, Control_c, 0, 64, 70
1, 145321, Control_c, 0, 64, 50
1, 145332, Note_on_c, 0, 51, 72
1, 145336, Control_c, 0, 64, 41
1, 145337, Note_on_c, 0, 72, 78
1, 145351, Control_c, 0, 64, 43
1, 145365, Note_off_c, 0, 52, 65
1, 145366, Control_c, 0, 64, 48
1, 145381, Control_c, 0, 64, 55
1, 145387, Note_off_c, 0, 70, 63
1, 145395, Control_c, 0, 64, 62
1, 145410, Control_c, 0, 64, 66
1, 145425, Control_c, 0, 64, 71
1, 145440, Control_c, 0, 64, 79
1, 145445, Note_off_c, 0, 56, 61
1, 145454, Control_c, 0, 64, 92
1, 145469, Control_c, 0, 64, 127
1, 145526, Note_on_c, 0, 61, 70
1, 145714, Note_on_c, 0, 70, 84
1, 145723, Note_on_c, 0, 55, 64
1, 145754, Note_off_c, 0, 72, 60
1, 145839, Note_off_c, 0, 51, 60
1, 145848, Control_c, 0, 64, 116
1, 145857, Note_off_c, 0, 61, 33
1, 145863, Control_c, 0, 64, 107
1, 145877, Control_c, 0, 64, 105
1, 145892, Control_c, 0, 64, 103
1, 145907, Control_c, 0, 64, 99
1, 145922, Control_c, 0, 64, 94
1, 145937, Control_c, 0, 64, 88
1, 145951, Note_on_c, 0, 49, 60
1, 145951, Control_c, 0, 64, 84
1, 145966, Control_c, 0, 64, 81
1, 145981, Control_c, 0, 64, 80
1, 145996, Control_c, 0, 64, 78
1, 146011, Control_c, 0, 64, 74
1, 146025, Control_c, 0, 64, 66
1, 146034, Note_on_c, 0, 77, 83
1, 146040, Control_c, 0, 64, 54
1, 146055, Control_c, 0, 64, 41
1, 146069, Control_c, 0, 64, 41
1, 146086, Note_off_c, 0, 55, 59
1, 146104, Note_off_c, 0, 70, 56
1, 146114, Control_c, 0, 64, 42
1, 146129, Control_c, 0, 64, 44
1, 146143, Control_c, 0, 64, 46
1, 146158, Control_c, 0, 64, 50
1, 146173, Control_c, 0, 64, 53
1, 146188, Control_c, 0, 64, 57
1, 146203, Control_c, 0, 64, 61
1, 146217, Control_c, 0, 64, 64
1, 146232, Control_c, 0, 64, 68
1, 146247, Control_c, 0, 64, 75
1, 146262, Control_c, 0, 64, 87
1, 146277, Control_c, 0, 64, 110
1, 146289, Note_on_c, 0, 63, 56
1, 146292, Control_c, 0, 64, 127
1, 146388, Poly_aftertouch_c, 0, 51, 127
1, 146412, Note_off_c, 0, 63, 52
1, 146459, Note_on_c, 0, 55, 56
1, 146490, Note_off_c, 0, 49, 36
1, 146626, Control_c, 0, 64, 112
1, 146641, Control_c, 0, 64, 80
1, 146643, Note_on_c, 0, 48, 53
1, 146650, Note_on_c, 0, 75, 70
1, 146656, Control_c, 0, 64, 65
1, 146670, Control_c, 0, 64, 55
1, 146680, Poly_aftertouch_c, 0, 51, 0
1, 146685, Control_c, 0, 64, 55
1, 146700, Control_c, 0, 64, 56
1, 146715, Control_c, 0, 64, 59
1, 146720, Note_off_c, 0, 77, 60
1, 146721, Note_off_c, 0, 55, 29
1, 146730, Control_c, 0, 64, 61
1, 146745, Control_c, 0, 64, 64
1, 146760, Control_c, 0, 64, 69
1, 146774, Control_c, 0, 64, 78
1, 146789, Control_c, 0, 64, 95
1, 146804, Control_c, 0, 64, 127
1, 146848, Note_on_c, 0, 63, 51
1, 146899, Poly_aftertouch_c, 0, 51, 127
1, 146924, Note_off_c, 0, 63, 56
1, 146953, Note_off_c, 0, 48, 30
1, 147000, Note_on_c, 0, 56, 52
1, 147016, Poly_aftertouch_c, 0, 51, 0
1, 147122, Control_c, 0, 64, 82
1, 147137, Control_c, 0, 64, 66
1, 147152, Control_c, 0, 64, 56
1, 147161, Note_off_c, 0, 56, 35
1, 147167, Control_c, 0, 64, 55
1, 147181, Control_c, 0, 64, 58
1, 147188, Note_on_c, 0, 46, 51
1, 147196, Note_on_c, 0, 73, 61
1, 147196, Control_c, 0, 64, 62
1, 147211, Control_c, 0, 64, 65
1, 147225, Control_c, 0, 64, 69
1, 147240, Control_c, 0, 64, 75
1, 147255, Control_c, 0, 64, 84
1, 147270, Control_c, 0, 64, 97
1, 147273, Note_off_c, 0, 46, 62
1, 147285, Control_c, 0, 64, 109
1, 147299, Control_c, 0, 64, 127
1, 147318, Note_off_c, 0, 75, 52
1, 147398, Note_on_c, 0, 63, 49
1, 147456, Note_off_c, 0, 63, 49
1, 147567, Note_on_c, 0, 55, 42
1, 147609, Note_off_c, 0, 55, 62
1, 147662, Note_on_c, 0, 72, 49
1, 147705, Note_off_c, 0, 73, 31
1, 147711, Note_off_c, 0, 72, 62
1, 147745, Control_c, 0, 64, 99
1, 147760, Control_c, 0, 64, 73
1, 147775, Control_c, 0, 64, 59
1, 147790, Control_c, 0, 64, 50
1, 147801, Note_on_c, 0, 44, 45
1, 147804, Control_c, 0, 64, 54
1, 147818, Note_on_c, 0, 72, 49
1, 147819, Control_c, 0, 64, 60
1, 147834, Control_c, 0, 64, 66
1, 147856, Control_c, 0, 64, 73
1, 147871, Control_c, 0, 64, 89
1, 147886, Control_c, 0, 64, 127
1, 147890, Note_off_c, 0, 72, 54
1, 147953, Note_off_c, 0, 44, 60
1, 147971, Note_on_c, 0, 72, 49
1, 148011, Note_off_c, 0, 72, 65
1, 148036, Note_on_c, 0, 73, 59
1, 148105, Note_on_c, 0, 72, 51
1, 148127, Note_on_c, 0, 63, 41
1, 148143, Note_off_c, 0, 72, 65
1, 148151, Note_off_c, 0, 73, 36
1, 148159, Note_on_c, 0, 71, 61
1, 148198, Note_off_c, 0, 71, 61
1, 148234, Note_on_c, 0, 72, 68
1, 148290, Note_off_c, 0, 63, 54
1, 148290, Note_off_c, 0, 72, 50
1, 148324, Note_on_c, 0, 82, 64
1, 148369, Note_on_c, 0, 56, 39
1, 148413, Note_on_c, 0, 80, 53
1, 148435, Note_off_c, 0, 82, 54
1, 148482, Note_off_c, 0, 56, 61
1, 148490, Note_on_c, 0, 75, 60
1, 148491, Note_off_c, 0, 80, 63
1, 148572, Note_off_c, 0, 75, 60
1, 148582, Note_on_c, 0, 72, 61
1, 148679, Control_c, 0, 64, 97
1, 148691, Note_on_c, 0, 39, 51
1, 148694, Control_c, 0, 64, 70
1, 148694, Note_off_c, 0, 72, 58
1, 148707, Note_on_c, 0, 69, 62
1, 148709, Control_c, 0, 64, 56
1, 148724, Control_c, 0, 64, 47
1, 148739, Control_c, 0, 64, 49
1, 148754, Control_c, 0, 64, 55
1, 148769, Control_c, 0, 64, 65
1, 148784, Control_c, 0, 64, 76
1, 148798, Control_c, 0, 64, 127
1, 148810, Note_off_c, 0, 39, 60
1, 149013, Note_on_c, 0, 63, 43
1, 149207, Note_off_c, 0, 63, 36
1, 149236, Note_on_c, 0, 54, 37
1, 149332, Control_c, 0, 64, 113
1, 149355, Control_c, 0, 64, 98
1, 149370, Control_c, 0, 64, 89
1, 149384, Control_c, 0, 64, 80
1, 149399, Control_c, 0, 64, 72
1, 149414, Control_c, 0, 64, 64
1, 149428, Control_c, 0, 64, 59
1, 149437, Note_off_c, 0, 69, 35
1, 149443, Control_c, 0, 64, 57
1, 149457, Note_on_c, 0, 55, 33
1, 149457, Note_on_c, 0, 70, 40
1, 149457, Control_c, 0, 64, 57
1, 149472, Control_c, 0, 64, 56
1, 149494, Note_off_c, 0, 54, 40
1, 149501, Control_c, 0, 64, 57
1, 149516, Control_c, 0, 64, 58
1, 149531, Control_c, 0, 64, 60
1, 149546, Control_c, 0, 64, 62
1, 149561, Control_c, 0, 64, 63
1, 149575, Control_c, 0, 64, 65
1, 149590, Control_c, 0, 64, 69
1, 149605, Control_c, 0, 64, 75
1, 149619, Control_c, 0, 64, 82
1, 149634, Control_c, 0, 64, 90
1, 149649, Control_c, 0, 64, 99
1, 149664, Control_c, 0, 64, 108
1, 149665, Note_off_c, 0, 70, 62
1, 149666, Note_on_c, 0, 61, 41
1, 149679, Control_c, 0, 64, 127
1, 149833, Note_off_c, 0, 55, 39
1, 149836, Note_off_c, 0, 61, 28
1, 149839, Note_on_c, 0, 51, 51
1, 149909, Note_off_c, 0, 51, 57
1, 149961, Note_on_c, 0, 71, 50
1, 150115, Note_off_c, 0, 71, 57
1, 150116, Note_on_c, 0, 44, 39
1, 150117, Control_c, 0, 64, 92
1, 150131, Control_c, 0, 64, 73
1, 150136, Note_on_c, 0, 72, 51
1, 150146, Control_c, 0, 64, 64
1, 150161, Control_c, 0, 64, 62
1, 150176, Control_c, 0, 64, 64
1, 150191, Control_c, 0, 64, 66
1, 150206, Control_c, 0, 64, 70
1, 150221, Control_c, 0, 64, 77
1, 150236, Control_c, 0, 64, 89
1, 150248, Note_off_c, 0, 44, 57
1, 150250, Control_c, 0, 64, 110
1, 150265, Control_c, 0, 64, 127
1, 150349, Note_on_c, 0, 60, 39
1, 150354, Note_on_c, 0, 56, 35
1, 150408, Note_off_c, 0, 60, 58
1, 150516, Note_on_c, 0, 51, 49
1, 150523, Note_off_c, 0, 56, 45
1, 150611, Note_off_c, 0, 51, 53
1, 150680, Control_c, 0, 64, 104
1, 150689, Note_on_c, 0, 71, 63
1, 150692, Note_on_c, 0, 44, 51
1, 150695, Control_c, 0, 64, 78
1, 150710, Control_c, 0, 64, 64
1, 150725, Control_c, 0, 64, 62
1, 150739, Control_c, 0, 64, 64
1, 150754, Note_off_c, 0, 44, 61
1, 150754, Control_c, 0, 64, 67
1, 150769, Control_c, 0, 64, 71
1, 150772, Note_off_c, 0, 72, 39
1, 150784, Control_c, 0, 64, 78
1, 150799, Control_c, 0, 64, 89
1, 150814, Control_c, 0, 64, 102
1, 150829, Control_c, 0, 64, 108
1, 150851, Control_c, 0, 64, 109
1, 150857, Note_on_c, 0, 59, 50
1, 150858, Note_on_c, 0, 56, 49
1, 150865, Control_c, 0, 64, 110
1, 150880, Control_c, 0, 64, 115
1, 150895, Control_c, 0, 64, 127
1, 150947, Note_off_c, 0, 59, 45
1, 151005, Note_off_c, 0, 56, 63
1, 151008, Note_on_c, 0, 50, 54
1, 151070, Note_off_c, 0, 50, 61
1, 151177, Control_c, 0, 64, 85
1, 151183, Note_on_c, 0, 72, 72
1, 151186, Note_on_c, 0, 44, 58
1, 151192, Control_c, 0, 64, 69
1, 151207, Control_c, 0, 64, 61
1, 151221, Control_c, 0, 64, 60
1, 151234, Note_off_c, 0, 71, 56
1, 151236, Control_c, 0, 64, 61
1, 151251, Control_c, 0, 64, 63
1, 151256, Note_off_c, 0, 44, 63
1, 151265, Control_c, 0, 64, 66
1, 151280, Control_c, 0, 64, 72
1, 151295, Control_c, 0, 64, 83
1, 151310, Control_c, 0, 64, 101
1, 151325, Control_c, 0, 64, 127
1, 151353, Note_on_c, 0, 60, 50
1, 151356, Note_on_c, 0, 56, 50
1, 151440, Note_off_c, 0, 60, 58
1, 151508, Note_off_c, 0, 56, 62
1, 151527, Note_on_c, 0, 51, 59
1, 151644, Control_c, 0, 64, 91
1, 151659, Control_c, 0, 64, 70
1, 151674, Control_c, 0, 64, 59
1, 151688, Control_c, 0, 64, 56
1, 151692, Note_on_c, 0, 75, 66
1, 151695, Note_on_c, 0, 44, 56
1, 151703, Control_c, 0, 64, 58
1, 151711, Note_off_c, 0, 51, 29
1, 151718, Control_c, 0, 64, 61
1, 151733, Control_c, 0, 64, 65
1, 151748, Control_c, 0, 64, 71
1, 151749, Note_off_c, 0, 44, 61
1, 151762, Control_c, 0, 64, 81
1, 151777, Note_off_c, 0, 72, 62
1, 151777, Control_c, 0, 64, 97
1, 151792, Control_c, 0, 64, 127
1, 151868, Note_on_c, 0, 61, 61
1, 151893, Note_on_c, 0, 55, 44
1, 151914, Note_off_c, 0, 61, 52
1, 152035, Note_off_c, 0, 55, 60
1, 152062, Note_on_c, 0, 51, 55
1, 152119, Note_off_c, 0, 51, 56
1, 152177, Control_c, 0, 64, 94
1, 152193, Control_c, 0, 64, 71
1, 152208, Control_c, 0, 64, 58
1, 152214, Note_off_c, 0, 75, 60
1, 152223, Control_c, 0, 64, 56
1, 152230, Note_on_c, 0, 72, 66
1, 152238, Control_c, 0, 64, 58
1, 152242, Note_on_c, 0, 44, 48
1, 152253, Control_c, 0, 64, 60
1, 152267, Control_c, 0, 64, 64
1, 152282, Control_c, 0, 64, 68
1, 152297, Control_c, 0, 64, 77
1, 152311, Control_c, 0, 64, 95
1, 152325, Note_off_c, 0, 44, 62
1, 152326, Control_c, 0, 64, 127
1, 152428, Note_on_c, 0, 60, 57
1, 152446, Note_on_c, 0, 56, 43
1, 152459, Note_off_c, 0, 72, 64
1, 152565, Note_off_c, 0, 60, 33
1, 152617, Note_on_c, 0, 51, 54
1, 152627, Note_off_c, 0, 56, 57
1, 152808, Control_c, 0, 64, 87
1, 152823, Control_c, 0, 64, 69
1, 152827, Note_on_c, 0, 48, 48
1, 152837, Control_c, 0, 64, 61
1, 152852, Note_on_c, 0, 72, 67
1, 152852, Control_c, 0, 64, 59
1, 152867, Control_c, 0, 64, 61
1, 152882, Control_c, 0, 64, 63
1, 152892, Note_off_c, 0, 51, 56
1, 152897, Control_c, 0, 64, 66
1, 152911, Control_c, 0, 64, 73
1, 152924, Note_off_c, 0, 48, 63
1, 152926, Control_c, 0, 64, 88
1, 152941, Control_c, 0, 64, 127
1, 153104, Note_on_c, 0, 55, 48
1, 153111, Note_on_c, 0, 64, 49
1, 153317, Note_off_c, 0, 55, 55
1, 153320, Note_on_c, 0, 60, 44
1, 153377, Note_off_c, 0, 64, 39
1, 153388, Note_on_c, 0, 70, 54
1, 153390, Note_off_c, 0, 72, 56
1, 153394, Control_c, 0, 64, 115
1, 153409, Control_c, 0, 64, 111
1, 153423, Control_c, 0, 64, 108
1, 153438, Control_c, 0, 64, 107
1, 153453, Control_c, 0, 64, 104
1, 153467, Control_c, 0, 64, 99
1, 153482, Control_c, 0, 64, 94
1, 153497, Control_c, 0, 64, 87
1, 153512, Control_c, 0, 64, 75
1, 153527, Control_c, 0, 64, 66
1, 153541, Control_c, 0, 64, 60
1, 153556, Control_c, 0, 64, 59
1, 153571, Note_on_c, 0, 53, 34
1, 153583, Note_on_c, 0, 68, 49
1, 153586, Note_off_c, 0, 60, 35
1, 153586, Control_c, 0, 64, 59
1, 153590, Note_off_c, 0, 70, 52
1, 153601, Control_c, 0, 64, 60
1, 153616, Control_c, 0, 64, 62
1, 153631, Control_c, 0, 64, 64
1, 153646, Control_c, 0, 64, 65
1, 153660, Control_c, 0, 64, 67
1, 153675, Control_c, 0, 64, 70
1, 153690, Control_c, 0, 64, 75
1, 153705, Control_c, 0, 64, 81
1, 153720, Control_c, 0, 64, 87
1, 153734, Control_c, 0, 64, 95
1, 153749, Control_c, 0, 64, 106
1, 153764, Control_c, 0, 64, 127
1, 153786, Note_on_c, 0, 60, 37
1, 153786, Note_on_c, 0, 65, 45
1, 153840, Note_off_c, 0, 68, 58
1, 153857, Note_off_c, 0, 65, 52
1, 153930, Note_off_c, 0, 53, 40
1, 153994, Note_on_c, 0, 56, 40
1, 154009, Note_off_c, 0, 60, 50
1, 154187, Note_on_c, 0, 68, 51
1, 154195, Note_on_c, 0, 49, 42
1, 154197, Note_off_c, 0, 56, 23
1, 154202, Control_c, 0, 64, 89
1, 154217, Control_c, 0, 64, 72
1, 154231, Control_c, 0, 64, 65
1, 154261, Control_c, 0, 64, 68
1, 154272, Note_off_c, 0, 68, 36
1, 154276, Control_c, 0, 64, 73
1, 154289, Note_on_c, 0, 70, 52
1, 154290, Control_c, 0, 64, 83
1, 154302, Note_off_c, 0, 49, 62
1, 154305, Control_c, 0, 64, 100
1, 154320, Control_c, 0, 64, 127
1, 154326, Note_off_c, 0, 70, 65
1, 154359, Note_on_c, 0, 72, 53
1, 154393, Note_off_c, 0, 72, 66
1, 154412, Note_on_c, 0, 70, 64
1, 154437, Note_on_c, 0, 58, 49
1, 154445, Note_off_c, 0, 70, 66
1, 154473, Note_on_c, 0, 72, 61
1, 154551, Note_on_c, 0, 70, 61
1, 154570, Note_off_c, 0, 72, 63
1, 154577, Note_off_c, 0, 58, 63
1, 154620, Note_off_c, 0, 70, 63
1, 154623, Note_on_c, 0, 55, 46
1, 154636, Note_on_c, 0, 68, 64
1, 154704, Note_on_c, 0, 70, 66
1, 154704, Note_off_c, 0, 68, 56
1, 154728, Control_c, 0, 64, 92
1, 154743, Control_c, 0, 64, 72
1, 154758, Control_c, 0, 64, 63
1, 154768, Note_on_c, 0, 48, 51
1, 154773, Control_c, 0, 64, 62
1, 154780, Note_off_c, 0, 70, 64
1, 154785, Note_on_c, 0, 72, 63
1, 154787, Control_c, 0, 64, 63
1, 154802, Control_c, 0, 64, 65
1, 154817, Control_c, 0, 64, 70
1, 154832, Control_c, 0, 64, 78
1, 154838, Note_off_c, 0, 48, 62
1, 154842, Note_off_c, 0, 55, 38
1, 154847, Control_c, 0, 64, 91
1, 154859, Note_off_c, 0, 72, 64
1, 154862, Control_c, 0, 64, 115
1, 154862, Note_on_c, 0, 73, 75
1, 154877, Control_c, 0, 64, 127
1, 154955, Note_on_c, 0, 72, 71
1, 154963, Note_on_c, 0, 58, 56
1, 154966, Note_on_c, 0, 64, 46
1, 154981, Control_c, 0, 64, 112
1, 154995, Control_c, 0, 64, 75
1, 155010, Control_c, 0, 64, 63
1, 155025, Control_c, 0, 64, 58
1, 155027, Note_off_c, 0, 73, 53
1, 155032, Note_off_c, 0, 72, 62
1, 155035, Note_on_c, 0, 71, 74
1, 155040, Control_c, 0, 64, 60
1, 155055, Control_c, 0, 64, 62
1, 155062, Note_off_c, 0, 64, 36
1, 155069, Control_c, 0, 64, 65
1, 155084, Control_c, 0, 64, 71
1, 155097, Note_off_c, 0, 71, 63
1, 155099, Control_c, 0, 64, 80
1, 155100, Note_on_c, 0, 60, 49
1, 155106, Note_on_c, 0, 72, 76
1, 155113, Control_c, 0, 64, 95
1, 155128, Control_c, 0, 64, 119
1, 155141, Note_off_c, 0, 72, 63
1, 155143, Control_c, 0, 64, 127
1, 155202, Note_on_c, 0, 72, 66
1, 155306, Control_c, 0, 64, 99
1, 155321, Control_c, 0, 64, 77
1, 155343, Note_on_c, 0, 53, 43
1, 155343, Control_c, 0, 64, 63
1, 155348, Note_off_c, 0, 72, 57
1, 155350, Note_on_c, 0, 80, 70
1, 155358, Control_c, 0, 64, 51
1, 155369, Note_off_c, 0, 58, 19
1, 155373, Control_c, 0, 64, 50
1, 155377, Note_off_c, 0, 60, 34
1, 155389, Control_c, 0, 64, 50
1, 155404, Control_c, 0, 64, 52
1, 155418, Control_c, 0, 64, 55
1, 155433, Control_c, 0, 64, 58
1, 155448, Control_c, 0, 64, 61
1, 155463, Control_c, 0, 64, 65
1, 155478, Control_c, 0, 64, 71
1, 155492, Control_c, 0, 64, 85
1, 155500, Note_off_c, 0, 80, 62
1, 155507, Control_c, 0, 64, 127
1, 155596, Control_c, 0, 64, 93
1, 155604, Note_on_c, 0, 79, 68
1, 155607, Note_on_c, 0, 56, 44
1, 155610, Control_c, 0, 64, 70
1, 155617, Note_on_c, 0, 65, 38
1, 155625, Control_c, 0, 64, 61
1, 155640, Control_c, 0, 64, 59
1, 155655, Control_c, 0, 64, 60
1, 155670, Control_c, 0, 64, 62
1, 155685, Control_c, 0, 64, 66
1, 155697, Note_off_c, 0, 65, 54
1, 155700, Control_c, 0, 64, 73
1, 155715, Control_c, 0, 64, 87
1, 155717, Note_off_c, 0, 53, 51
1, 155729, Control_c, 0, 64, 127
1, 155801, Note_on_c, 0, 60, 39
1, 155837, Note_off_c, 0, 60, 63
1, 155864, Note_off_c, 0, 79, 57
1, 155868, Note_on_c, 0, 77, 62
1, 155880, Note_off_c, 0, 56, 59
1, 155902, Note_off_c, 0, 77, 65
1, 155951, Control_c, 0, 64, 91
1, 155966, Control_c, 0, 64, 69
1, 155981, Control_c, 0, 64, 59
1, 155984, Note_on_c, 0, 77, 67
1, 155991, Note_on_c, 0, 49, 46
1, 156010, Control_c, 0, 64, 62
1, 156025, Control_c, 0, 64, 65
1, 156040, Control_c, 0, 64, 70
1, 156054, Control_c, 0, 64, 79
1, 156069, Control_c, 0, 64, 94
1, 156092, Control_c, 0, 64, 127
1, 156112, Note_off_c, 0, 49, 63
1, 156197, Note_on_c, 0, 75, 66
1, 156212, Control_c, 0, 64, 82
1, 156213, Note_on_c, 0, 56, 50
1, 156215, Note_on_c, 0, 65, 45
1, 156227, Control_c, 0, 64, 69
1, 156241, Control_c, 0, 64, 68
1, 156256, Control_c, 0, 64, 73
1, 156260, Note_off_c, 0, 77, 55
1, 156271, Control_c, 0, 64, 84
1, 156285, Control_c, 0, 64, 110
1, 156300, Control_c, 0, 64, 127
1, 156336, Note_off_c, 0, 65, 32
1, 156383, Note_on_c, 0, 73, 63
1, 156397, Note_on_c, 0, 58, 51
1, 156414, Note_off_c, 0, 75, 58
1, 156458, Note_off_c, 0, 73, 63
1, 156567, Control_c, 0, 64, 111
1, 156567, Note_off_c, 0, 56, 43
1, 156573, Note_off_c, 0, 58, 57
1, 156580, Note_on_c, 0, 73, 58
1, 156582, Control_c, 0, 64, 97
1, 156594, Note_on_c, 0, 51, 47
1, 156597, Control_c, 0, 64, 83
1, 156612, Control_c, 0, 64, 69
1, 156627, Control_c, 0, 64, 59
1, 156641, Control_c, 0, 64, 51
1, 156648, Note_off_c, 0, 73, 57
1, 156656, Control_c, 0, 64, 50
1, 156662, Note_on_c, 0, 75, 57
1, 156671, Control_c, 0, 64, 51
1, 156685, Control_c, 0, 64, 51
1, 156700, Control_c, 0, 64, 53
1, 156715, Control_c, 0, 64, 55
1, 156728, Note_on_c, 0, 73, 56
1, 156730, Control_c, 0, 64, 56
1, 156745, Control_c, 0, 64, 58
1, 156756, Note_off_c, 0, 75, 54
1, 156759, Control_c, 0, 64, 60
1, 156774, Control_c, 0, 64, 61
1, 156789, Control_c, 0, 64, 62
1, 156804, Control_c, 0, 64, 63
1, 156818, Note_on_c, 0, 63, 37
1, 156819, Control_c, 0, 64, 65
1, 156835, Note_on_c, 0, 55, 16
1, 156840, Note_off_c, 0, 73, 58
1, 156841, Control_c, 0, 64, 67
1, 156844, Note_on_c, 0, 72, 51
1, 156856, Control_c, 0, 64, 70
1, 156871, Control_c, 0, 64, 74
1, 156885, Control_c, 0, 64, 80
1, 156900, Control_c, 0, 64, 86
1, 156902, Note_off_c, 0, 51, 36
1, 156915, Control_c, 0, 64, 93
1, 156930, Control_c, 0, 64, 102
1, 156945, Control_c, 0, 64, 116
1, 156959, Control_c, 0, 64, 127
1, 157033, Note_off_c, 0, 72, 57
1, 157041, Note_on_c, 0, 61, 44
1, 157047, Note_off_c, 0, 63, 57
1, 157071, Note_off_c, 0, 61, 61
1, 157105, Note_off_c, 0, 55, 40
1, 157154, Note_on_c, 0, 70, 51
1, 157197, Control_c, 0, 64, 96
1, 157212, Control_c, 0, 64, 76
1, 157227, Control_c, 0, 64, 66
1, 157239, Note_on_c, 0, 44, 52
1, 157242, Control_c, 0, 64, 64
1, 157256, Note_on_c, 0, 68, 54
1, 157256, Control_c, 0, 64, 65
1, 157271, Control_c, 0, 64, 68
1, 157286, Control_c, 0, 64, 72
1, 157300, Control_c, 0, 64, 81
1, 157315, Control_c, 0, 64, 97
1, 157330, Control_c, 0, 64, 127
1, 157339, Note_off_c, 0, 44, 63
1, 157349, Note_off_c, 0, 70, 33
1, 157452, Note_on_c, 0, 60, 47
1, 157464, Note_on_c, 0, 56, 41
1, 157510, Note_off_c, 0, 60, 55
1, 157628, Note_on_c, 0, 51, 46
1, 157649, Note_off_c, 0, 56, 46
1, 157780, Note_off_c, 0, 51, 28
1, 157783, Control_c, 0, 64, 104
1, 157798, Control_c, 0, 64, 75
1, 157800, Note_on_c, 0, 44, 46
1, 157801, Note_on_c, 0, 65, 57
1, 157813, Control_c, 0, 64, 64
1, 157828, Control_c, 0, 64, 60
1, 157843, Control_c, 0, 64, 61
1, 157858, Control_c, 0, 64, 63
1, 157870, Note_off_c, 0, 44, 60
1, 157871, Note_off_c, 0, 68, 54
1, 157873, Control_c, 0, 64, 66
1, 157887, Control_c, 0, 64, 72
1, 157902, Control_c, 0, 64, 81
1, 157917, Control_c, 0, 64, 93
1, 157931, Control_c, 0, 64, 106
1, 157946, Control_c, 0, 64, 113
1, 157974, Note_on_c, 0, 59, 49
1, 157991, Control_c, 0, 64, 116
1, 157994, Note_on_c, 0, 56, 36
1, 158005, Control_c, 0, 64, 127
1, 158040, Note_off_c, 0, 59, 50
1, 158131, Note_on_c, 0, 50, 50
1, 158148, Note_off_c, 0, 56, 34
1, 158172, Note_off_c, 0, 50, 63
1, 158287, Control_c, 0, 64, 113
1, 158299, Note_on_c, 0, 44, 53
1, 158300, Note_off_c, 0, 65, 57
1, 158302, Control_c, 0, 64, 82
1, 158305, Note_on_c, 0, 68, 55
1, 158317, Control_c, 0, 64, 68
1, 158338, Control_c, 0, 64, 64
1, 158353, Control_c, 0, 64, 66
1, 158368, Control_c, 0, 64, 68
1, 158382, Note_off_c, 0, 44, 64
1, 158383, Control_c, 0, 64, 73
1, 158398, Control_c, 0, 64, 80
1, 158412, Control_c, 0, 64, 94
1, 158427, Control_c, 0, 64, 127
1, 158490, Note_on_c, 0, 60, 52
1, 158500, Note_on_c, 0, 56, 40
1, 158625, Note_off_c, 0, 60, 36
1, 158664, Note_on_c, 0, 51, 58
1, 158727, Note_off_c, 0, 56, 43
1, 158740, Control_c, 0, 64, 92
1, 158754, Control_c, 0, 64, 69
1, 158769, Control_c, 0, 64, 48
1, 158784, Control_c, 0, 64, 0
1, 158861, Note_on_c, 0, 67, 67
1, 158889, Note_on_c, 0, 48, 52
1, 158902, Note_off_c, 0, 68, 60
1, 158922, Note_off_c, 0, 51, 59
1, 158961, Control_c, 0, 64, 18
1, 158976, Control_c, 0, 64, 43
1, 158991, Control_c, 0, 64, 53
1, 159006, Control_c, 0, 64, 58
1, 159021, Control_c, 0, 64, 61
1, 159035, Control_c, 0, 64, 63
1, 159050, Control_c, 0, 64, 66
1, 159053, Note_off_c, 0, 48, 51
1, 159065, Control_c, 0, 64, 70
1, 159088, Control_c, 0, 64, 77
1, 159102, Control_c, 0, 64, 88
1, 159103, Note_on_c, 0, 63, 56
1, 159117, Control_c, 0, 64, 99
1, 159119, Poly_aftertouch_c, 0, 51, 127
1, 159132, Control_c, 0, 64, 113
1, 159147, Control_c, 0, 64, 127
1, 159277, Note_on_c, 0, 56, 55
1, 159278, Note_off_c, 0, 63, 49
1, 159322, Poly_aftertouch_c, 0, 51, 0
1, 159337, Note_on_c, 0, 68, 63
1, 159369, Control_c, 0, 64, 119
1, 159372, Note_off_c, 0, 67, 56
1, 159384, Control_c, 0, 64, 114
1, 159399, Control_c, 0, 64, 111
1, 159414, Control_c, 0, 64, 108
1, 159429, Control_c, 0, 64, 105
1, 159444, Control_c, 0, 64, 101
1, 159459, Control_c, 0, 64, 96
1, 159473, Control_c, 0, 64, 90
1, 159488, Control_c, 0, 64, 85
1, 159503, Control_c, 0, 64, 81
1, 159518, Control_c, 0, 64, 76
1, 159533, Control_c, 0, 64, 71
1, 159544, Note_on_c, 0, 55, 52
1, 159548, Control_c, 0, 64, 67
1, 159549, Note_on_c, 0, 70, 67
1, 159563, Control_c, 0, 64, 61
1, 159577, Control_c, 0, 64, 54
1, 159587, Note_off_c, 0, 56, 58
1, 159592, Control_c, 0, 64, 43
1, 159598, Note_off_c, 0, 68, 54
1, 159607, Control_c, 0, 64, 11
1, 159622, Control_c, 0, 64, 0
1, 159760, Note_on_c, 0, 63, 44
1, 159784, Control_c, 0, 64, 35
1, 159799, Control_c, 0, 64, 52
1, 159814, Control_c, 0, 64, 60
1, 159837, Control_c, 0, 64, 63
1, 159851, Control_c, 0, 64, 67
1, 159866, Control_c, 0, 64, 73
1, 159881, Control_c, 0, 64, 81
1, 159896, Control_c, 0, 64, 92
1, 159910, Control_c, 0, 64, 113
1, 159925, Control_c, 0, 64, 127
1, 159939, Note_on_c, 0, 58, 58
1, 160087, Control_c, 0, 64, 87
1, 160090, Note_off_c, 0, 63, 30
1, 160091, Note_on_c, 0, 54, 68
1, 160093, Note_on_c, 0, 72, 73
1, 160102, Control_c, 0, 64, 69
1, 160117, Control_c, 0, 64, 58
1, 160132, Control_c, 0, 64, 56
1, 160147, Control_c, 0, 64, 58
1, 160162, Control_c, 0, 64, 61
1, 160162, Note_off_c, 0, 70, 61
1, 160177, Control_c, 0, 64, 63
1, 160192, Control_c, 0, 64, 66
1, 160207, Control_c, 0, 64, 70
1, 160222, Control_c, 0, 64, 77
1, 160237, Control_c, 0, 64, 87
1, 160251, Control_c, 0, 64, 104
1, 160260, Note_off_c, 0, 58, 38
1, 160266, Control_c, 0, 64, 127
1, 160271, Note_on_c, 0, 63, 69
1, 160287, Note_off_c, 0, 55, 51
1, 160340, Note_off_c, 0, 72, 64
1, 160427, Note_on_c, 0, 58, 76
1, 160483, Note_off_c, 0, 63, 55
1, 160589, Note_on_c, 0, 72, 81
1, 160608, Note_on_c, 0, 53, 70
1, 160614, Control_c, 0, 64, 85
1, 160629, Control_c, 0, 64, 65
1, 160644, Control_c, 0, 64, 45
1, 160645, Note_off_c, 0, 54, 64
1, 160659, Control_c, 0, 64, 38
1, 160674, Control_c, 0, 64, 39
1, 160688, Control_c, 0, 64, 48
1, 160697, Note_off_c, 0, 58, 61
1, 160703, Control_c, 0, 64, 57
1, 160718, Control_c, 0, 64, 63
1, 160732, Control_c, 0, 64, 68
1, 160747, Control_c, 0, 64, 74
1, 160762, Control_c, 0, 64, 82
1, 160771, Note_on_c, 0, 63, 68
1, 160777, Control_c, 0, 64, 92
1, 160792, Control_c, 0, 64, 105
1, 160806, Control_c, 0, 64, 127
1, 160857, Note_off_c, 0, 63, 61
1, 160918, Note_on_c, 0, 57, 75
1, 160923, Poly_aftertouch_c, 0, 54, 127
1, 160967, Note_off_c, 0, 53, 62
1, 160971, Note_off_c, 0, 57, 61
1, 161011, Poly_aftertouch_c, 0, 54, 0
1, 161011, Note_off_c, 0, 72, 58
1, 161089, Control_c, 0, 64, 89
1, 161104, Note_on_c, 0, 46, 55
1, 161104, Control_c, 0, 64, 68
1, 161118, Note_on_c, 0, 73, 82
1, 161119, Control_c, 0, 64, 55
1, 161134, Control_c, 0, 64, 51
1, 161148, Control_c, 0, 64, 52
1, 161163, Control_c, 0, 64, 56
1, 161178, Control_c, 0, 64, 62
1, 161193, Control_c, 0, 64, 66
1, 161208, Control_c, 0, 64, 72
1, 161222, Control_c, 0, 64, 80
1, 161232, Note_off_c, 0, 46, 63
1, 161237, Control_c, 0, 64, 89
1, 161252, Control_c, 0, 64, 97
1, 161267, Control_c, 0, 64, 113
1, 161282, Control_c, 0, 64, 127
1, 161283, Note_on_c, 0, 61, 71
1, 161375, Note_off_c, 0, 73, 64
1, 161459, Note_on_c, 0, 53, 71
1, 161496, Note_off_c, 0, 61, 59
1, 161659, Control_c, 0, 64, 105
1, 161673, Control_c, 0, 64, 74
1, 161688, Note_on_c, 0, 51, 64
1, 161688, Control_c, 0, 64, 60
1, 161703, Control_c, 0, 64, 51
1, 161707, Note_on_c, 0, 73, 81
1, 161733, Control_c, 0, 64, 52
1, 161736, Note_off_c, 0, 53, 58
1, 161748, Control_c, 0, 64, 56
1, 161763, Control_c, 0, 64, 62
1, 161778, Control_c, 0, 64, 66
1, 161793, Control_c, 0, 64, 73
1, 161808, Control_c, 0, 64, 84
1, 161823, Control_c, 0, 64, 100
1, 161838, Control_c, 0, 64, 127
1, 161873, Note_off_c, 0, 51, 64
1, 161918, Note_off_c, 0, 73, 65
1, 161930, Note_on_c, 0, 66, 75
1, 162015, Note_on_c, 0, 73, 85
1, 162122, Note_on_c, 0, 75, 79
1, 162126, Note_on_c, 0, 58, 69
1, 162126, Note_off_c, 0, 73, 63
1, 162135, Note_off_c, 0, 66, 57
1, 162186, Control_c, 0, 64, 115
1, 162201, Control_c, 0, 64, 107
1, 162216, Control_c, 0, 64, 99
1, 162222, Note_on_c, 0, 73, 82
1, 162231, Control_c, 0, 64, 91
1, 162246, Control_c, 0, 64, 82
1, 162260, Control_c, 0, 64, 74
1, 162275, Control_c, 0, 64, 69
1, 162290, Control_c, 0, 64, 65
1, 162304, Control_c, 0, 64, 61
1, 162319, Control_c, 0, 64, 56
1, 162332, Note_off_c, 0, 75, 54
1, 162334, Control_c, 0, 64, 51
1, 162349, Control_c, 0, 64, 43
1, 162353, Note_on_c, 0, 54, 66
1, 162362, Note_on_c, 0, 72, 86
1, 162364, Control_c, 0, 64, 28
1, 162378, Control_c, 0, 64, 0
1, 162389, Note_off_c, 0, 73, 64
1, 162430, Note_off_c, 0, 58, 59
1, 162556, Note_on_c, 0, 63, 59
1, 162743, Note_on_c, 0, 58, 62
1, 162755, Note_on_c, 0, 70, 66
1, 162793, Note_off_c, 0, 63, 54
1, 162804, Note_off_c, 0, 72, 55
1, 162939, Note_on_c, 0, 69, 72
1, 162945, Note_on_c, 0, 53, 63
1, 162958, Note_off_c, 0, 54, 40
1, 162988, Note_off_c, 0, 70, 57
1, 163024, Note_off_c, 0, 58, 63
1, 163082, Control_c, 0, 64, 13
1, 163097, Control_c, 0, 64, 39
1, 163112, Control_c, 0, 64, 53
1, 163126, Control_c, 0, 64, 59
1, 163141, Control_c, 0, 64, 63
1, 163143, Note_on_c, 0, 63, 52
1, 163156, Control_c, 0, 64, 67
1, 163171, Control_c, 0, 64, 74
1, 163186, Control_c, 0, 64, 88
1, 163200, Control_c, 0, 64, 127
1, 163217, Note_off_c, 0, 63, 59
1, 163285, Note_on_c, 0, 60, 59
1, 163313, Note_off_c, 0, 60, 66
1, 163339, Note_off_c, 0, 69, 53
1, 163352, Note_off_c, 0, 53, 48
1, 163438, Control_c, 0, 64, 107
1, 163452, Note_on_c, 0, 46, 60
1, 163453, Control_c, 0, 64, 74
1, 163460, Note_on_c, 0, 70, 74
1, 163468, Control_c, 0, 64, 57
1, 163483, Control_c, 0, 64, 49
1, 163498, Control_c, 0, 64, 51
1, 163513, Control_c, 0, 64, 56
1, 163527, Control_c, 0, 64, 62
1, 163542, Control_c, 0, 64, 67
1, 163557, Control_c, 0, 64, 78
1, 163579, Control_c, 0, 64, 93
1, 163594, Note_off_c, 0, 46, 62
1, 163594, Control_c, 0, 64, 123
1, 163609, Control_c, 0, 64, 127
1, 163638, Note_on_c, 0, 61, 72
1, 163747, Note_off_c, 0, 70, 59
1, 163810, Note_on_c, 0, 58, 81
1, 163848, Note_off_c, 0, 61, 55
1, 164019, Note_on_c, 0, 52, 69
1, 164022, Note_on_c, 0, 70, 85
1, 164039, Control_c, 0, 64, 88
1, 164054, Control_c, 0, 64, 68
1, 164069, Control_c, 0, 64, 56
1, 164084, Control_c, 0, 64, 50
1, 164098, Control_c, 0, 64, 51
1, 164103, Note_off_c, 0, 58, 63
1, 164113, Control_c, 0, 64, 53
1, 164128, Control_c, 0, 64, 57
1, 164142, Control_c, 0, 64, 61
1, 164157, Control_c, 0, 64, 64
1, 164173, Control_c, 0, 64, 67
1, 164188, Control_c, 0, 64, 72
1, 164203, Control_c, 0, 64, 80
1, 164218, Control_c, 0, 64, 94
1, 164233, Control_c, 0, 64, 127
1, 164245, Note_on_c, 0, 61, 68
1, 164423, Note_on_c, 0, 56, 69
1, 164492, Control_c, 0, 64, 117
1, 164493, Note_off_c, 0, 61, 52
1, 164507, Control_c, 0, 64, 95
1, 164521, Control_c, 0, 64, 79
1, 164536, Control_c, 0, 64, 67
1, 164551, Control_c, 0, 64, 60
1, 164566, Control_c, 0, 64, 56
1, 164580, Control_c, 0, 64, 55
1, 164595, Control_c, 0, 64, 54
1, 164625, Control_c, 0, 64, 54
1, 164630, Note_on_c, 0, 51, 66
1, 164630, Note_on_c, 0, 72, 80
1, 164654, Control_c, 0, 64, 54
1, 164667, Note_off_c, 0, 52, 63
1, 164669, Control_c, 0, 64, 53
1, 164684, Control_c, 0, 64, 53
1, 164699, Control_c, 0, 64, 52
1, 164702, Note_off_c, 0, 70, 59
1, 164735, Note_off_c, 0, 56, 61
1, 164744, Control_c, 0, 64, 52
1, 164759, Control_c, 0, 64, 51
1, 164773, Control_c, 0, 64, 50
1, 164788, Control_c, 0, 64, 49
1, 164852, Note_on_c, 0, 61, 60
1, 164936, Control_c, 0, 64, 48
1, 165031, Note_on_c, 0, 55, 58
1, 165036, Note_on_c, 0, 70, 76
1, 165089, Note_off_c, 0, 72, 60
1, 165133, Note_off_c, 0, 51, 58
1, 165191, Note_off_c, 0, 61, 32
1, 165286, Note_on_c, 0, 49, 50
1, 165343, Note_on_c, 0, 77, 76
1, 165418, Control_c, 0, 64, 49
1, 165432, Note_off_c, 0, 55, 58
1, 165433, Control_c, 0, 64, 49
1, 165435, Note_off_c, 0, 70, 59
1, 165463, Control_c, 0, 64, 50
1, 165477, Control_c, 0, 64, 50
1, 165492, Control_c, 0, 64, 51
1, 165507, Control_c, 0, 64, 52
1, 165522, Control_c, 0, 64, 54
1, 165537, Control_c, 0, 64, 55
1, 165551, Control_c, 0, 64, 57
1, 165566, Control_c, 0, 64, 58
1, 165567, Poly_aftertouch_c, 0, 51, 127
1, 165581, Control_c, 0, 64, 60
1, 165596, Control_c, 0, 64, 61
1, 165599, Note_on_c, 0, 63, 52
1, 165611, Control_c, 0, 64, 63
1, 165626, Control_c, 0, 64, 65
1, 165641, Control_c, 0, 64, 68
1, 165656, Control_c, 0, 64, 73
1, 165670, Control_c, 0, 64, 78
1, 165685, Control_c, 0, 64, 85
1, 165700, Control_c, 0, 64, 94
1, 165714, Control_c, 0, 64, 110
1, 165729, Control_c, 0, 64, 127
1, 165759, Note_off_c, 0, 63, 35
1, 165778, Note_on_c, 0, 55, 52
1, 165864, Note_off_c, 0, 49, 36
1, 165975, Control_c, 0, 64, 97
1, 165990, Control_c, 0, 64, 75
1, 166004, Note_on_c, 0, 75, 69
1, 166005, Control_c, 0, 64, 65
1, 166017, Note_on_c, 0, 48, 44
1, 166019, Control_c, 0, 64, 61
1, 166025, Poly_aftertouch_c, 0, 51, 0
1, 166034, Control_c, 0, 64, 61
1, 166043, Note_off_c, 0, 55, 32
1, 166049, Control_c, 0, 64, 61
1, 166050, Note_off_c, 0, 77, 60
1, 166064, Control_c, 0, 64, 62
1, 166079, Control_c, 0, 64, 63
1, 166093, Control_c, 0, 64, 67
1, 166108, Control_c, 0, 64, 72
1, 166123, Control_c, 0, 64, 81
1, 166138, Control_c, 0, 64, 97
1, 166153, Control_c, 0, 64, 127
1, 166218, Note_on_c, 0, 63, 56
1, 166256, Control_c, 0, 64, 105
1, 166271, Control_c, 0, 64, 82
1, 166286, Control_c, 0, 64, 75
1, 166300, Control_c, 0, 64, 78
1, 166315, Control_c, 0, 64, 87
1, 166330, Control_c, 0, 64, 127
1, 166338, Note_off_c, 0, 63, 31
1, 166378, Note_off_c, 0, 48, 36
1, 166404, Note_on_c, 0, 56, 45
1, 166424, Poly_aftertouch_c, 0, 51, 0
1, 166505, Note_off_c, 0, 56, 49
1, 166605, Control_c, 0, 64, 107
1, 166620, Control_c, 0, 64, 80
1, 166629, Note_on_c, 0, 46, 45
1, 166631, Note_on_c, 0, 73, 52
1, 166635, Control_c, 0, 64, 67
1, 166649, Control_c, 0, 64, 61
1, 166678, Control_c, 0, 64, 62
1, 166691, Note_off_c, 0, 75, 54
1, 166693, Control_c, 0, 64, 64
1, 166708, Control_c, 0, 64, 67
1, 166714, Note_off_c, 0, 46, 61
1, 166723, Control_c, 0, 64, 71
1, 166738, Control_c, 0, 64, 78
1, 166753, Control_c, 0, 64, 85
1, 166767, Control_c, 0, 64, 92
1, 166782, Control_c, 0, 64, 98
1, 166797, Control_c, 0, 64, 103
1, 166812, Control_c, 0, 64, 107
1, 166827, Control_c, 0, 64, 109
1, 166841, Control_c, 0, 64, 110
1, 166856, Control_c, 0, 64, 112
1, 166857, Note_on_c, 0, 63, 43
1, 166871, Control_c, 0, 64, 117
1, 166886, Control_c, 0, 64, 127
1, 166976, Note_off_c, 0, 63, 33
1, 167052, Note_on_c, 0, 55, 36
1, 167104, Note_off_c, 0, 55, 59
1, 167115, Note_off_c, 0, 73, 42
1, 167183, Note_on_c, 0, 72, 43
1, 167227, Note_off_c, 0, 72, 62
1, 167286, Control_c, 0, 64, 117
1, 167301, Control_c, 0, 64, 81
1, 167322, Control_c, 0, 64, 65
1, 167337, Control_c, 0, 64, 53
1, 167343, Note_on_c, 0, 44, 30
1, 167347, Note_on_c, 0, 72, 43
1, 167352, Control_c, 0, 64, 53
1, 167368, Control_c, 0, 64, 57
1, 167383, Control_c, 0, 64, 63
1, 167397, Control_c, 0, 64, 69
1, 167412, Control_c, 0, 64, 78
1, 167424, Note_off_c, 0, 72, 60
1, 167428, Control_c, 0, 64, 93
1, 167443, Control_c, 0, 64, 117
1, 167458, Control_c, 0, 64, 127
1, 167495, Note_off_c, 0, 44, 55
1, 167588, Poly_aftertouch_c, 0, 72, 127
1, 167600, Note_on_c, 0, 73, 52
1, 167635, Poly_aftertouch_c, 0, 72, 0
1, 167656, Note_on_c, 0, 72, 34
1, 167715, Note_off_c, 0, 72, 61
1, 167716, Note_off_c, 0, 73, 35
1, 167725, Note_on_c, 0, 63, 28
1, 167739, Note_on_c, 0, 71, 52
1, 167772, Note_off_c, 0, 71, 64
1, 167809, Note_on_c, 0, 72, 63
1, 167862, Note_off_c, 0, 72, 44
1, 167906, Note_on_c, 0, 82, 56
1, 167972, Note_off_c, 0, 63, 39
1, 168004, Note_on_c, 0, 80, 59
1, 168115, Note_off_c, 0, 82, 43
1, 168117, Note_on_c, 0, 56, 28
1, 168123, Note_on_c, 0, 84, 58
1, 168125, Note_off_c, 0, 80, 58
1, 168251, Note_on_c, 0, 80, 59
1, 168255, Note_off_c, 0, 84, 44
1, 168327, Note_off_c, 0, 56, 40
1, 168363, Note_on_c, 0, 75, 55
1, 168368, Note_off_c, 0, 80, 54
1, 168460, Note_off_c, 0, 75, 57
1, 168499, Note_on_c, 0, 72, 47
1, 168686, Note_off_c, 0, 72, 50
1, 168695, Control_c, 0, 64, 104
1, 168702, Note_on_c, 0, 39, 45
1, 168705, Note_on_c, 0, 69, 55
1, 168710, Control_c, 0, 64, 76
1, 168725, Control_c, 0, 64, 63
1, 168740, Control_c, 0, 64, 55
1, 168755, Control_c, 0, 64, 57
1, 168769, Control_c, 0, 64, 61
1, 168784, Control_c, 0, 64, 67
1, 168799, Control_c, 0, 64, 76
1, 168821, Control_c, 0, 64, 95
1, 168836, Control_c, 0, 64, 127
1, 168860, Note_off_c, 0, 39, 61
1, 169135, Note_on_c, 0, 63, 39
1, 169400, Note_on_c, 0, 54, 33
1, 169648, Note_off_c, 0, 63, 14
1, 169659, Control_c, 0, 64, 121
1, 169674, Control_c, 0, 64, 107
1, 169689, Control_c, 0, 64, 99
1, 169691, Note_on_c, 0, 55, 36
1, 169704, Control_c, 0, 64, 91
1, 169718, Note_off_c, 0, 69, 42
1, 169718, Control_c, 0, 64, 82
1, 169722, Note_on_c, 0, 70, 39
1, 169733, Control_c, 0, 64, 76
1, 169736, Note_off_c, 0, 54, 39
1, 169748, Control_c, 0, 64, 72
1, 169764, Control_c, 0, 64, 69
1, 169778, Control_c, 0, 64, 66
1, 169793, Control_c, 0, 64, 64
1, 169808, Control_c, 0, 64, 61
1, 169823, Control_c, 0, 64, 58
1, 169838, Control_c, 0, 64, 55
1, 169853, Control_c, 0, 64, 52
1, 169867, Control_c, 0, 64, 50
1, 169882, Control_c, 0, 64, 47
1, 169897, Control_c, 0, 64, 44
1, 169912, Control_c, 0, 64, 41
1, 169927, Control_c, 0, 64, 39
1, 169941, Control_c, 0, 64, 38
1, 170000, Control_c, 0, 64, 39
1, 170015, Control_c, 0, 64, 41
1, 170030, Control_c, 0, 64, 43
1, 170032, Note_on_c, 0, 61, 27
1, 170045, Control_c, 0, 64, 47
1, 170059, Control_c, 0, 64, 49
1, 170074, Control_c, 0, 64, 51
1, 170089, Control_c, 0, 64, 54
1, 170104, Control_c, 0, 64, 56
1, 170119, Control_c, 0, 64, 59
1, 170133, Control_c, 0, 64, 60
1, 170148, Control_c, 0, 64, 61
1, 170163, Control_c, 0, 64, 62
1, 170178, Control_c, 0, 64, 63
1, 170193, Control_c, 0, 64, 64
1, 170208, Control_c, 0, 64, 65
1, 170223, Control_c, 0, 64, 67
1, 170237, Control_c, 0, 64, 70
1, 170249, Note_off_c, 0, 55, 36
1, 170252, Control_c, 0, 64, 72
1, 170267, Control_c, 0, 64, 75
1, 170282, Control_c, 0, 64, 76
1, 170297, Control_c, 0, 64, 78
1, 170319, Control_c, 0, 64, 80
1, 170333, Control_c, 0, 64, 83
1, 170348, Control_c, 0, 64, 86
1, 170363, Control_c, 0, 64, 90
1, 170378, Control_c, 0, 64, 94
1, 170392, Control_c, 0, 64, 96
1, 170406, Note_off_c, 0, 70, 53
1, 170407, Control_c, 0, 64, 99
1, 170422, Control_c, 0, 64, 102
1, 170437, Control_c, 0, 64, 106
1, 170452, Control_c, 0, 64, 109
1, 170459, Note_on_c, 0, 51, 35
1, 170467, Control_c, 0, 64, 113
1, 170482, Control_c, 0, 64, 119
1, 170497, Control_c, 0, 64, 127
1, 170582, Note_off_c, 0, 61, 38
1, 170740, Note_off_c, 0, 51, 41
1, 170797, Note_on_c, 0, 71, 38
1, 171001, Control_c, 0, 64, 121
1, 171015, Control_c, 0, 64, 116
1, 171030, Control_c, 0, 64, 114
1, 171045, Control_c, 0, 64, 112
1, 171068, Control_c, 0, 64, 110
1, 171083, Control_c, 0, 64, 107
1, 171097, Control_c, 0, 64, 104
1, 171112, Control_c, 0, 64, 101
1, 171127, Control_c, 0, 64, 100
1, 171142, Control_c, 0, 64, 99
1, 171157, Control_c, 0, 64, 98
1, 171170, Control_c, 0, 64, 98
1, 171185, Control_c, 0, 64, 97
1, 171200, Control_c, 0, 64, 96
1, 171215, Control_c, 0, 64, 95
1, 171230, Control_c, 0, 64, 95
1, 171260, Control_c, 0, 64, 94
1, 171275, Control_c, 0, 64, 92
1, 171280, Note_on_c, 0, 44, 32
1, 171289, Control_c, 0, 64, 84
1, 171304, Control_c, 0, 64, 73
1, 171314, Note_on_c, 0, 72, 32
1, 171319, Control_c, 0, 64, 67
1, 171333, Control_c, 0, 64, 64
1, 171343, Note_off_c, 0, 71, 27
1, 171348, Control_c, 0, 64, 63
1, 171364, Control_c, 0, 64, 64
1, 171379, Control_c, 0, 64, 65
1, 171394, Control_c, 0, 64, 66
1, 171409, Control_c, 0, 64, 68
1, 171424, Control_c, 0, 64, 71
1, 171438, Control_c, 0, 64, 75
1, 171453, Control_c, 0, 64, 79
1, 171468, Control_c, 0, 64, 82
1, 171483, Control_c, 0, 64, 84
1, 171489, Note_off_c, 0, 44, 56
1, 171498, Control_c, 0, 64, 85
1, 171512, Control_c, 0, 64, 86
1, 171527, Control_c, 0, 64, 89
1, 171542, Control_c, 0, 64, 93
1, 171550, Note_on_c, 0, 73, 41
1, 171557, Control_c, 0, 64, 97
1, 171562, Note_off_c, 0, 72, 39
1, 171572, Control_c, 0, 64, 101
1, 171586, Control_c, 0, 64, 102
1, 171616, Control_c, 0, 64, 104
1, 171630, Control_c, 0, 64, 107
1, 171645, Control_c, 0, 64, 115
1, 171653, Note_off_c, 0, 73, 55
1, 171659, Note_on_c, 0, 60, 33
1, 171660, Control_c, 0, 64, 127
1, 171674, Note_on_c, 0, 56, 29
1, 171700, Note_on_c, 0, 71, 37
1, 171722, Note_off_c, 0, 60, 49
1, 171767, Note_off_c, 0, 71, 41
1, 171797, Note_on_c, 0, 73, 41
1, 171883, Note_off_c, 0, 56, 41
1, 171886, Note_on_c, 0, 51, 43
1, 171928, Note_on_c, 0, 72, 42
1, 171968, Note_off_c, 0, 73, 32
1, 171970, Note_off_c, 0, 51, 58
1, 172008, Note_off_c, 0, 72, 59
1, 172043, Note_on_c, 0, 71, 49
1, 172057, Note_on_c, 0, 44, 44
1, 172104, Note_off_c, 0, 44, 53
1, 172135, Note_off_c, 0, 71, 51
1, 172166, Note_on_c, 0, 72, 42
1, 172241, Note_on_c, 0, 59, 38
1, 172246, Note_on_c, 0, 56, 36
1, 172251, Note_off_c, 0, 72, 58
1, 172291, Note_on_c, 0, 70, 47
1, 172302, Note_off_c, 0, 59, 52
1, 172366, Note_off_c, 0, 70, 52
1, 172377, Note_off_c, 0, 56, 51
1, 172384, Note_on_c, 0, 72, 51
1, 172393, Note_on_c, 0, 50, 44
1, 172424, Control_c, 0, 64, 113
1, 172439, Control_c, 0, 64, 87
1, 172453, Control_c, 0, 64, 73
1, 172461, Note_off_c, 0, 72, 55
1, 172467, Note_off_c, 0, 50, 63
1, 172468, Control_c, 0, 64, 66
1, 172483, Control_c, 0, 64, 64
1, 172491, Note_on_c, 0, 71, 49
1, 172498, Control_c, 0, 64, 64
1, 172513, Control_c, 0, 64, 66
1, 172527, Control_c, 0, 64, 68
1, 172542, Control_c, 0, 64, 72
1, 172565, Control_c, 0, 64, 78
1, 172580, Control_c, 0, 64, 86
1, 172586, Note_on_c, 0, 44, 50
1, 172586, Note_off_c, 0, 71, 59
1, 172595, Control_c, 0, 64, 93
1, 172598, Note_on_c, 0, 72, 55
1, 172609, Control_c, 0, 64, 101
1, 172624, Control_c, 0, 64, 107
1, 172625, Note_off_c, 0, 44, 61
1, 172639, Control_c, 0, 64, 113
1, 172654, Control_c, 0, 64, 118
1, 172668, Control_c, 0, 64, 127
1, 172712, Note_off_c, 0, 72, 58
1, 172727, Note_on_c, 0, 73, 55
1, 172764, Note_on_c, 0, 60, 36
1, 172765, Note_on_c, 0, 56, 41
1, 172774, Note_off_c, 0, 73, 63
1, 172823, Note_off_c, 0, 60, 53
1, 172832, Note_on_c, 0, 71, 50
1, 172917, Note_off_c, 0, 71, 57
1, 172919, Note_on_c, 0, 73, 58
1, 172947, Note_off_c, 0, 56, 45
1, 172956, Note_on_c, 0, 51, 47
1, 173025, Control_c, 0, 64, 94
1, 173034, Note_off_c, 0, 73, 54
1, 173040, Control_c, 0, 64, 77
1, 173047, Note_on_c, 0, 72, 48
1, 173054, Control_c, 0, 64, 68
1, 173069, Control_c, 0, 64, 65
1, 173084, Control_c, 0, 64, 65
1, 173099, Control_c, 0, 64, 66
1, 173114, Control_c, 0, 64, 68
1, 173115, Note_on_c, 0, 44, 47
1, 173129, Control_c, 0, 64, 71
1, 173144, Control_c, 0, 64, 75
1, 173146, Note_off_c, 0, 51, 22
1, 173157, Note_on_c, 0, 75, 53
1, 173158, Control_c, 0, 64, 78
1, 173162, Note_off_c, 0, 72, 56
1, 173168, Note_off_c, 0, 44, 59
1, 173173, Control_c, 0, 64, 80
1, 173202, Control_c, 0, 64, 80
1, 173217, Control_c, 0, 64, 82
1, 173232, Control_c, 0, 64, 87
1, 173247, Control_c, 0, 64, 95
1, 173262, Control_c, 0, 64, 102
1, 173276, Note_off_c, 0, 75, 55
1, 173276, Control_c, 0, 64, 105
1, 173284, Note_on_c, 0, 77, 54
1, 173291, Control_c, 0, 64, 106
1, 173314, Control_c, 0, 64, 107
1, 173329, Control_c, 0, 64, 111
1, 173344, Control_c, 0, 64, 127
1, 173376, Note_on_c, 0, 55, 37
1, 173377, Note_off_c, 0, 77, 59
1, 173379, Note_on_c, 0, 61, 32
1, 173421, Note_on_c, 0, 74, 37
1, 173442, Note_off_c, 0, 61, 42
1, 173476, Note_off_c, 0, 74, 40
1, 173535, Note_on_c, 0, 77, 43
1, 173562, Note_on_c, 0, 51, 49
1, 173567, Note_off_c, 0, 55, 42
1, 173636, Note_off_c, 0, 51, 52
1, 173645, Note_on_c, 0, 75, 55
1, 173654, Control_c, 0, 64, 123
1, 173668, Control_c, 0, 64, 89
1, 173675, Note_off_c, 0, 77, 38
1, 173683, Control_c, 0, 64, 73
1, 173698, Control_c, 0, 64, 65
1, 173713, Control_c, 0, 64, 63
1, 173728, Control_c, 0, 64, 64
1, 173741, Note_on_c, 0, 44, 45
1, 173743, Control_c, 0, 64, 66
1, 173758, Control_c, 0, 64, 69
1, 173773, Control_c, 0, 64, 75
1, 173777, Note_on_c, 0, 72, 49
1, 173788, Control_c, 0, 64, 84
1, 173803, Control_c, 0, 64, 95
1, 173816, Note_off_c, 0, 44, 61
1, 173818, Control_c, 0, 64, 113
1, 173832, Control_c, 0, 64, 127
1, 173856, Note_off_c, 0, 72, 56
1, 173877, Note_on_c, 0, 73, 55
1, 173929, Note_off_c, 0, 75, 29
1, 173940, Note_on_c, 0, 60, 50
1, 173976, Note_on_c, 0, 56, 35
1, 173982, Note_off_c, 0, 73, 57
1, 173987, Note_on_c, 0, 71, 55
1, 174074, Note_off_c, 0, 60, 35
1, 174077, Note_off_c, 0, 71, 55
1, 174112, Note_on_c, 0, 73, 58
1, 174136, Control_c, 0, 64, 114
1, 174143, Note_on_c, 0, 51, 50
1, 174151, Control_c, 0, 64, 81
1, 174164, Note_off_c, 0, 56, 40
1, 174166, Control_c, 0, 64, 67
1, 174180, Control_c, 0, 64, 61
1, 174210, Control_c, 0, 64, 62
1, 174212, Note_off_c, 0, 73, 59
1, 174225, Control_c, 0, 64, 65
1, 174232, Note_on_c, 0, 72, 49
1, 174239, Control_c, 0, 64, 69
1, 174254, Control_c, 0, 64, 76
1, 174269, Control_c, 0, 64, 85
1, 174284, Control_c, 0, 64, 100
1, 174299, Control_c, 0, 64, 118
1, 174312, Note_off_c, 0, 72, 60
1, 174313, Control_c, 0, 64, 127
1, 174317, Note_on_c, 0, 48, 48
1, 174338, Note_on_c, 0, 70, 54
1, 174369, Note_off_c, 0, 70, 65
1, 174372, Note_off_c, 0, 48, 58
1, 174381, Note_off_c, 0, 51, 34
1, 174476, Note_on_c, 0, 72, 48
1, 174543, Note_off_c, 0, 72, 58
1, 174584, Note_on_c, 0, 69, 52
1, 174588, Note_on_c, 0, 64, 39
1, 174628, Note_on_c, 0, 55, 28
1, 174655, Control_c, 0, 64, 116
1, 174670, Control_c, 0, 64, 112
1, 174685, Control_c, 0, 64, 109
1, 174700, Control_c, 0, 64, 107
1, 174715, Note_on_c, 0, 72, 45
1, 174715, Control_c, 0, 64, 104
1, 174725, Note_off_c, 0, 69, 36
1, 174729, Control_c, 0, 64, 101
1, 174744, Control_c, 0, 64, 97
1, 174759, Control_c, 0, 64, 95
1, 174774, Control_c, 0, 64, 92
1, 174789, Control_c, 0, 64, 89
1, 174803, Note_on_c, 0, 60, 38
1, 174810, Control_c, 0, 64, 83
1, 174816, Note_off_c, 0, 55, 44
1, 174825, Note_off_c, 0, 72, 59
1, 174825, Control_c, 0, 64, 76
1, 174840, Control_c, 0, 64, 69
1, 174855, Control_c, 0, 64, 66
1, 174870, Control_c, 0, 64, 64
1, 174873, Note_on_c, 0, 70, 39
1, 174874, Note_off_c, 0, 64, 36
1, 174885, Control_c, 0, 64, 64
1, 174915, Control_c, 0, 64, 64
1, 174929, Control_c, 0, 64, 65
1, 174937, Note_off_c, 0, 70, 55
1, 174944, Control_c, 0, 64, 66
1, 174959, Control_c, 0, 64, 69
1, 174974, Control_c, 0, 64, 72
1, 174989, Control_c, 0, 64, 76
1, 174992, Note_on_c, 0, 67, 37
1, 175004, Control_c, 0, 64, 81
1, 175006, Note_on_c, 0, 53, 38
1, 175019, Control_c, 0, 64, 87
1, 175034, Control_c, 0, 64, 93
1, 175040, Note_off_c, 0, 67, 55
1, 175048, Control_c, 0, 64, 97
1, 175063, Control_c, 0, 64, 102
1, 175078, Control_c, 0, 64, 108
1, 175079, Note_on_c, 0, 68, 32
1, 175081, Note_off_c, 0, 60, 40
1, 175093, Control_c, 0, 64, 119
1, 175108, Control_c, 0, 64, 127
1, 175114, Note_off_c, 0, 68, 50
1, 175129, Note_on_c, 0, 70, 54
1, 175163, Note_off_c, 0, 70, 65
1, 175198, Note_on_c, 0, 68, 52
1, 175201, Note_on_c, 0, 60, 48
1, 175221, Note_off_c, 0, 68, 60
1, 175248, Note_on_c, 0, 70, 52
1, 175248, Note_off_c, 0, 53, 42
1, 175274, Note_off_c, 0, 70, 59
1, 175293, Note_on_c, 0, 68, 64
1, 175326, Note_off_c, 0, 68, 64
1, 175341, Note_off_c, 0, 60, 58
1, 175350, Note_on_c, 0, 67, 67
1, 175359, Note_on_c, 0, 56, 50
1, 175380, Note_off_c, 0, 67, 67
1, 175413, Note_on_c, 0, 68, 59
1, 175445, Note_off_c, 0, 68, 64
1, 175478, Note_on_c, 0, 69, 63
1, 175478, Control_c, 0, 64, 91
1, 175493, Control_c, 0, 64, 75
1, 175508, Note_off_c, 0, 56, 36
1, 175508, Control_c, 0, 64, 68
1, 175512, Note_off_c, 0, 69, 64
1, 175514, Note_on_c, 0, 49, 39
1, 175523, Control_c, 0, 64, 67
1, 175538, Control_c, 0, 64, 69
1, 175543, Note_on_c, 0, 70, 61
1, 175560, Control_c, 0, 64, 74
1, 175571, Note_off_c, 0, 49, 49
1, 175575, Control_c, 0, 64, 84
1, 175586, Note_off_c, 0, 70, 65
1, 175590, Control_c, 0, 64, 108
1, 175605, Control_c, 0, 64, 127
1, 175608, Note_on_c, 0, 72, 61
1, 175641, Note_off_c, 0, 72, 65
1, 175668, Note_on_c, 0, 70, 60
1, 175693, Note_off_c, 0, 70, 68
1, 175702, Note_on_c, 0, 58, 53
1, 175714, Note_on_c, 0, 72, 57
1, 175738, Note_off_c, 0, 72, 59
1, 175755, Note_on_c, 0, 70, 59
1, 175777, Note_off_c, 0, 70, 63
1, 175806, Note_on_c, 0, 72, 47
1, 175830, Note_off_c, 0, 72, 58
1, 175841, Note_off_c, 0, 58, 62
1, 175842, Note_on_c, 0, 70, 75
1, 175872, Note_on_c, 0, 55, 52
1, 175874, Note_off_c, 0, 70, 63
1, 175899, Note_on_c, 0, 69, 73
1, 175958, Note_off_c, 0, 69, 61
1, 175976, Note_on_c, 0, 70, 70
1, 176019, Control_c, 0, 64, 91
1, 176034, Control_c, 0, 64, 71
1, 176038, Note_off_c, 0, 70, 62
1, 176044, Note_on_c, 0, 71, 75
1, 176049, Control_c, 0, 64, 60
1, 176050, Note_on_c, 0, 48, 44
1, 176064, Control_c, 0, 64, 56
1, 176093, Control_c, 0, 64, 58
1, 176108, Control_c, 0, 64, 62
1, 176117, Note_off_c, 0, 71, 60
1, 176123, Control_c, 0, 64, 65
1, 176124, Note_on_c, 0, 72, 70
1, 176138, Control_c, 0, 64, 71
1, 176149, Note_off_c, 0, 55, 42
1, 176154, Control_c, 0, 64, 81
1, 176158, Note_off_c, 0, 48, 60
1, 176169, Control_c, 0, 64, 99
1, 176183, Control_c, 0, 64, 127
1, 176196, Note_off_c, 0, 72, 62
1, 176197, Note_on_c, 0, 73, 68
1, 176257, Note_off_c, 0, 73, 63
1, 176258, Note_on_c, 0, 72, 65
1, 176272, Control_c, 0, 64, 80
1, 176283, Note_off_c, 0, 72, 69
1, 176287, Control_c, 0, 64, 64
1, 176289, Note_on_c, 0, 71, 62
1, 176309, Control_c, 0, 64, 60
1, 176324, Control_c, 0, 64, 66
1, 176327, Note_on_c, 0, 64, 50
1, 176339, Control_c, 0, 64, 85
1, 176345, Note_on_c, 0, 58, 44
1, 176354, Control_c, 0, 64, 127
1, 176366, Note_off_c, 0, 71, 52
1, 176369, Note_on_c, 0, 72, 76
1, 176413, Control_c, 0, 64, 113
1, 176427, Control_c, 0, 64, 76
1, 176442, Control_c, 0, 64, 65
1, 176456, Note_on_c, 0, 75, 68
1, 176457, Control_c, 0, 64, 63
1, 176460, Note_off_c, 0, 72, 63
1, 176468, Note_off_c, 0, 64, 56
1, 176472, Control_c, 0, 64, 66
1, 176487, Control_c, 0, 64, 72
1, 176501, Control_c, 0, 64, 82
1, 176503, Note_on_c, 0, 60, 52
1, 176516, Control_c, 0, 64, 109
1, 176531, Control_c, 0, 64, 127
1, 176541, Note_on_c, 0, 73, 77
1, 176584, Note_off_c, 0, 75, 60
1, 176612, Note_off_c, 0, 73, 64
1, 176616, Note_on_c, 0, 72, 78
1, 176655, Note_off_c, 0, 72, 63
1, 176682, Note_off_c, 0, 58, 31
1, 176713, Note_on_c, 0, 72, 77
1, 176842, Control_c, 0, 64, 104
1, 176857, Control_c, 0, 64, 92
1, 176872, Control_c, 0, 64, 82
1, 176887, Control_c, 0, 64, 73
1, 176901, Control_c, 0, 64, 66
1, 176906, Note_on_c, 0, 80, 75
1, 176915, Note_on_c, 0, 53, 42
1, 176916, Control_c, 0, 64, 59
1, 176918, Note_off_c, 0, 72, 61
1, 176931, Control_c, 0, 64, 46
1, 176947, Control_c, 0, 64, 28
1, 176962, Control_c, 0, 64, 0
1, 176980, Note_off_c, 0, 60, 33
1, 177021, Control_c, 0, 64, 11
1, 177036, Control_c, 0, 64, 26
1, 177058, Control_c, 0, 64, 40
1, 177073, Control_c, 0, 64, 55
1, 177088, Control_c, 0, 64, 62
1, 177102, Control_c, 0, 64, 67
1, 177117, Control_c, 0, 64, 73
1, 177132, Control_c, 0, 64, 85
1, 177147, Control_c, 0, 64, 107
1, 177161, Control_c, 0, 64, 127
1, 177168, Note_off_c, 0, 80, 63
1, 177249, Control_c, 0, 64, 101
1, 177252, Note_on_c, 0, 56, 43
1, 177255, Note_on_c, 0, 65, 39
1, 177255, Note_on_c, 0, 79, 78
1, 177264, Control_c, 0, 64, 72
1, 177279, Control_c, 0, 64, 62
1, 177294, Control_c, 0, 64, 59
1, 177309, Control_c, 0, 64, 61
1, 177323, Control_c, 0, 64, 63
1, 177338, Control_c, 0, 64, 66
1, 177346, Note_off_c, 0, 53, 55
1, 177353, Control_c, 0, 64, 73
1, 177368, Note_off_c, 0, 65, 37
1, 177368, Control_c, 0, 64, 82
1, 177383, Control_c, 0, 64, 97
1, 177398, Control_c, 0, 64, 127
1, 177454, Note_on_c, 0, 60, 47
1, 177487, Note_off_c, 0, 79, 64
1, 177511, Note_off_c, 0, 60, 60
1, 177548, Note_off_c, 0, 56, 63
1, 177553, Note_on_c, 0, 77, 64
1, 177592, Note_off_c, 0, 77, 63
1, 177664, Control_c, 0, 64, 87
1, 177679, Control_c, 0, 64, 68
1, 177682, Note_on_c, 0, 49, 42
1, 177682, Note_on_c, 0, 77, 67
1, 177694, Control_c, 0, 64, 60
1, 177709, Control_c, 0, 64, 59
1, 177723, Control_c, 0, 64, 60
1, 177739, Control_c, 0, 64, 63
1, 177754, Control_c, 0, 64, 67
1, 177769, Control_c, 0, 64, 75
1, 177784, Control_c, 0, 64, 94
1, 177788, Note_off_c, 0, 49, 63
1, 177806, Control_c, 0, 64, 127
1, 177895, Control_c, 0, 64, 90
1, 177901, Note_on_c, 0, 75, 73
1, 177903, Note_on_c, 0, 65, 55
1, 177907, Note_on_c, 0, 56, 50
1, 177910, Control_c, 0, 64, 69
1, 177925, Control_c, 0, 64, 63
1, 177940, Control_c, 0, 64, 64
1, 177954, Control_c, 0, 64, 68
1, 177969, Control_c, 0, 64, 77
1, 177984, Control_c, 0, 64, 95
1, 177997, Note_off_c, 0, 77, 56
1, 177999, Control_c, 0, 64, 127
1, 178071, Note_off_c, 0, 65, 34
1, 178086, Note_on_c, 0, 58, 55
1, 178086, Note_on_c, 0, 73, 68
1, 178090, Note_off_c, 0, 75, 61
1, 178128, Note_off_c, 0, 73, 63
1, 178212, Note_on_c, 0, 73, 64
1, 178220, Control_c, 0, 64, 104
1, 178235, Control_c, 0, 64, 84
1, 178240, Note_off_c, 0, 73, 66
1, 178250, Control_c, 0, 64, 72
1, 178252, Note_off_c, 0, 56, 27
1, 178255, Note_on_c, 0, 75, 61
1, 178265, Control_c, 0, 64, 63
1, 178280, Note_on_c, 0, 51, 47
1, 178280, Control_c, 0, 64, 54
1, 178289, Note_off_c, 0, 75, 64
1, 178295, Control_c, 0, 64, 47
1, 178296, Note_on_c, 0, 73, 76
1, 178310, Note_off_c, 0, 58, 53
1, 178310, Control_c, 0, 64, 39
1, 178325, Control_c, 0, 64, 30
1, 178340, Control_c, 0, 64, 16
1, 178354, Control_c, 0, 64, 0
1, 178533, Note_on_c, 0, 63, 55
1, 178549, Note_on_c, 0, 72, 72
1, 178551, Note_off_c, 0, 73, 62
1, 178554, Note_on_c, 0, 55, 36
1, 178629, Control_c, 0, 64, 16
1, 178644, Control_c, 0, 64, 32
1, 178659, Control_c, 0, 64, 47
1, 178674, Control_c, 0, 64, 53
1, 178676, Note_off_c, 0, 51, 58
1, 178689, Control_c, 0, 64, 55
1, 178703, Control_c, 0, 64, 57
1, 178718, Control_c, 0, 64, 59
1, 178733, Control_c, 0, 64, 62
1, 178748, Control_c, 0, 64, 64
1, 178763, Control_c, 0, 64, 66
1, 178778, Control_c, 0, 64, 69
1, 178793, Control_c, 0, 64, 72
1, 178808, Control_c, 0, 64, 76
1, 178822, Control_c, 0, 64, 80
1, 178837, Control_c, 0, 64, 86
1, 178852, Control_c, 0, 64, 95
1, 178855, Note_off_c, 0, 72, 57
1, 178858, Note_on_c, 0, 61, 70
1, 178867, Control_c, 0, 64, 107
1, 178882, Control_c, 0, 64, 127
1, 178924, Poly_aftertouch_c, 0, 57, 127
1, 178999, Note_on_c, 0, 70, 84
1, 178999, Poly_aftertouch_c, 0, 57, 0
1, 179012, Note_off_c, 0, 55, 54
1, 179057, Note_off_c, 0, 63, 36
1, 179211, Note_off_c, 0, 61, 59
1, 179212, Note_on_c, 0, 52, 77
1, 179237, Control_c, 0, 64, 92
1, 179252, Note_on_c, 0, 72, 84
1, 179252, Control_c, 0, 64, 69
1, 179267, Control_c, 0, 64, 51
1, 179282, Control_c, 0, 64, 23
1, 179300, Note_off_c, 0, 70, 64
1, 179303, Control_c, 0, 64, 17
1, 179318, Control_c, 0, 64, 0
1, 179349, Control_c, 0, 64, 26
1, 179364, Control_c, 0, 64, 48
1, 179379, Control_c, 0, 64, 60
1, 179394, Control_c, 0, 64, 65
1, 179408, Control_c, 0, 64, 72
1, 179423, Control_c, 0, 64, 81
1, 179438, Control_c, 0, 64, 95
1, 179453, Control_c, 0, 64, 127
1, 179454, Note_off_c, 0, 52, 65
1, 179653, Note_on_c, 0, 58, 77
1, 179656, Note_on_c, 0, 67, 76
1, 180024, Note_on_c, 0, 60, 74
1, 180172, Note_off_c, 0, 58, 58
1, 180400, Note_off_c, 0, 67, 46
1, 180483, Control_c, 0, 64, 113
1, 180498, Control_c, 0, 64, 98
1, 180513, Control_c, 0, 64, 85
1, 180528, Control_c, 0, 64, 71
1, 180532, Note_on_c, 0, 53, 57
1, 180542, Control_c, 0, 64, 63
1, 180557, Control_c, 0, 64, 57
1, 180563, Note_on_c, 0, 80, 74
1, 180572, Control_c, 0, 64, 55
1, 180587, Control_c, 0, 64, 54
1, 180602, Control_c, 0, 64, 55
1, 180616, Control_c, 0, 64, 55
1, 180631, Control_c, 0, 64, 56
1, 180646, Note_off_c, 0, 72, 61
1, 180646, Control_c, 0, 64, 56
1, 180660, Control_c, 0, 64, 57
1, 180675, Control_c, 0, 64, 59
1, 180690, Control_c, 0, 64, 61
1, 180705, Control_c, 0, 64, 63
1, 180720, Control_c, 0, 64, 65
1, 180722, Note_off_c, 0, 60, 61
1, 180735, Control_c, 0, 64, 66
1, 180749, Control_c, 0, 64, 67
1, 180764, Control_c, 0, 64, 70
1, 180779, Control_c, 0, 64, 74
1, 180802, Control_c, 0, 64, 81
1, 180817, Control_c, 0, 64, 89
1, 180831, Control_c, 0, 64, 97
1, 180846, Control_c, 0, 64, 103
1, 180861, Control_c, 0, 64, 105
1, 180875, Control_c, 0, 64, 104
1, 180890, Control_c, 0, 64, 103
1, 180905, Control_c, 0, 64, 101
1, 180920, Control_c, 0, 64, 97
1, 180935, Control_c, 0, 64, 88
1, 180951, Control_c, 0, 64, 75
1, 180966, Control_c, 0, 64, 65
1, 180980, Control_c, 0, 64, 59
1, 180995, Control_c, 0, 64, 57
1, 181023, Note_on_c, 0, 79, 78
1, 181024, Note_on_c, 0, 56, 51
1, 181026, Note_on_c, 0, 65, 35
1, 181040, Control_c, 0, 64, 58
1, 181054, Control_c, 0, 64, 59
1, 181069, Control_c, 0, 64, 59
1, 181084, Control_c, 0, 64, 60
1, 181092, Note_off_c, 0, 80, 57
1, 181098, Control_c, 0, 64, 60
1, 181113, Control_c, 0, 64, 61
1, 181128, Control_c, 0, 64, 61
1, 181143, Control_c, 0, 64, 62
1, 181187, Control_c, 0, 64, 62
1, 181207, Note_off_c, 0, 53, 63
1, 181217, Control_c, 0, 64, 63
1, 181232, Control_c, 0, 64, 63
1, 181246, Control_c, 0, 64, 64
1, 181261, Control_c, 0, 64, 65
1, 181276, Control_c, 0, 64, 66
1, 181291, Control_c, 0, 64, 67
1, 181306, Control_c, 0, 64, 70
1, 181320, Control_c, 0, 64, 72
1, 181331, Note_on_c, 0, 77, 79
1, 181334, Note_off_c, 0, 65, 34
1, 181335, Control_c, 0, 64, 76
1, 181347, Note_on_c, 0, 60, 47
1, 181350, Control_c, 0, 64, 79
1, 181365, Control_c, 0, 64, 84
1, 181378, Note_off_c, 0, 79, 65
1, 181380, Control_c, 0, 64, 88
1, 181395, Control_c, 0, 64, 94
1, 181410, Control_c, 0, 64, 105
1, 181425, Control_c, 0, 64, 127
1, 181437, Note_off_c, 0, 60, 61
1, 181490, Note_off_c, 0, 56, 61
1, 181533, Note_off_c, 0, 77, 63
1, 181639, Control_c, 0, 64, 109
1, 181642, Note_on_c, 0, 49, 47
1, 181651, Note_on_c, 0, 77, 73
1, 181652, Control_c, 0, 64, 80
1, 181667, Control_c, 0, 64, 66
1, 181682, Control_c, 0, 64, 60
1, 181711, Control_c, 0, 64, 61
1, 181726, Control_c, 0, 64, 65
1, 181742, Control_c, 0, 64, 69
1, 181757, Control_c, 0, 64, 77
1, 181772, Control_c, 0, 64, 87
1, 181787, Control_c, 0, 64, 100
1, 181801, Control_c, 0, 64, 113
1, 181816, Control_c, 0, 64, 127
1, 181834, Note_off_c, 0, 49, 64
1, 181935, Control_c, 0, 64, 107
1, 181949, Control_c, 0, 64, 83
1, 181964, Control_c, 0, 64, 70
1, 181975, Note_on_c, 0, 56, 47
1, 181979, Control_c, 0, 64, 64
1, 181980, Note_on_c, 0, 75, 60
1, 181982, Note_on_c, 0, 65, 47
1, 181994, Control_c, 0, 64, 64
1, 182009, Control_c, 0, 64, 65
1, 182024, Control_c, 0, 64, 67
1, 182039, Control_c, 0, 64, 70
1, 182054, Control_c, 0, 64, 76
1, 182068, Control_c, 0, 64, 81
1, 182072, Note_off_c, 0, 77, 59
1, 182083, Control_c, 0, 64, 86
1, 182098, Control_c, 0, 64, 90
1, 182112, Control_c, 0, 64, 93
1, 182127, Control_c, 0, 64, 95
1, 182142, Control_c, 0, 64, 98
1, 182157, Control_c, 0, 64, 100
1, 182172, Control_c, 0, 64, 101
1, 182186, Control_c, 0, 64, 102
1, 182246, Control_c, 0, 64, 101
1, 182271, Note_on_c, 0, 73, 58
1, 182291, Note_off_c, 0, 75, 55
1, 182292, Note_on_c, 0, 58, 36
1, 182298, Control_c, 0, 64, 101
1, 182313, Control_c, 0, 64, 100
1, 182327, Control_c, 0, 64, 100
1, 182342, Control_c, 0, 64, 99
1, 182357, Control_c, 0, 64, 98
1, 182372, Control_c, 0, 64, 97
1, 182387, Note_off_c, 0, 65, 36
1, 182387, Control_c, 0, 64, 96
1, 182402, Control_c, 0, 64, 95
1, 182417, Control_c, 0, 64, 95
1, 182461, Control_c, 0, 64, 94
1, 182488, Note_off_c, 0, 73, 53
1, 182491, Control_c, 0, 64, 93
1, 182506, Control_c, 0, 64, 92
1, 182520, Control_c, 0, 64, 91
1, 182535, Control_c, 0, 64, 91
1, 182564, Note_off_c, 0, 56, 38
1, 182566, Control_c, 0, 64, 90
1, 182581, Control_c, 0, 64, 89
1, 182596, Control_c, 0, 64, 88
1, 182611, Control_c, 0, 64, 86
1, 182625, Control_c, 0, 64, 83
1, 182640, Control_c, 0, 64, 80
1, 182645, Note_on_c, 0, 51, 35
1, 182655, Control_c, 0, 64, 76
1, 182670, Control_c, 0, 64, 72
1, 182681, Note_on_c, 0, 73, 50
1, 182685, Control_c, 0, 64, 69
1, 182699, Control_c, 0, 64, 67
1, 182714, Control_c, 0, 64, 66
1, 182729, Note_off_c, 0, 58, 35
1, 182729, Control_c, 0, 64, 66
1, 182743, Control_c, 0, 64, 65
1, 182758, Control_c, 0, 64, 63
1, 182773, Control_c, 0, 64, 62
1, 182788, Control_c, 0, 64, 61
1, 182800, Note_off_c, 0, 73, 61
1, 182803, Control_c, 0, 64, 60
1, 182805, Note_on_c, 0, 75, 54
1, 182817, Control_c, 0, 64, 59
1, 182832, Control_c, 0, 64, 58
1, 182847, Control_c, 0, 64, 57
1, 182862, Control_c, 0, 64, 55
1, 182876, Control_c, 0, 64, 54
1, 182891, Control_c, 0, 64, 51
1, 182906, Control_c, 0, 64, 48
1, 182921, Control_c, 0, 64, 45
1, 182926, Note_off_c, 0, 75, 54
1, 182928, Note_on_c, 0, 73, 56
1, 182936, Control_c, 0, 64, 39
1, 182951, Control_c, 0, 64, 35
1, 182966, Control_c, 0, 64, 32
1, 182981, Control_c, 0, 64, 27
1, 182996, Control_c, 0, 64, 22
1, 183010, Control_c, 0, 64, 17
1, 183025, Control_c, 0, 64, 0
1, 183087, Note_on_c, 0, 63, 28
1, 183092, Note_on_c, 0, 55, 28
1, 183099, Note_on_c, 0, 72, 45
1, 183118, Note_off_c, 0, 73, 54
1, 183258, Note_off_c, 0, 51, 50
1, 183668, Note_on_c, 0, 70, 33
1, 183674, Note_on_c, 0, 61, 29
1, 183792, Note_off_c, 0, 72, 38
1, 183862, Note_off_c, 0, 63, 41
1, 184363, Note_off_c, 0, 55, 42
1, 184375, Note_off_c, 0, 61, 39
1, 184406, Note_off_c, 0, 70, 42
1, 185723, Control_c, 0, 64, 9
1, 185753, Control_c, 0, 64, 11
1, 185783, Control_c, 0, 64, 12
1, 185813, Control_c, 0, 64, 13
1, 185828, Control_c, 0, 64, 15
1, 185842, Control_c, 0, 64, 16
1, 185857, Control_c, 0, 64, 17
1, 185872, Control_c, 0, 64, 17
1, 185887, Control_c, 0, 64, 18
1, 185902, Control_c, 0, 64, 19
1, 185916, Control_c, 0, 64, 20
1, 185931, Control_c, 0, 64, 21
1, 185946, Control_c, 0, 64, 21
1, 185975, Control_c, 0, 64, 22
1, 185990, Control_c, 0, 64, 23
1, 186005, Control_c, 0, 64, 23
1, 186020, Control_c, 0, 64, 24
1, 186042, Control_c, 0, 64, 25
1, 186057, Control_c, 0, 64, 26
1, 186072, Control_c, 0, 64, 26
1, 186086, Control_c, 0, 64, 27
1, 186101, Control_c, 0, 64, 27
1, 186105, Note_on_c, 0, 60, 38
1, 186109, Note_on_c, 0, 72, 46
1, 186116, Control_c, 0, 64, 28
1, 186117, Note_on_c, 0, 63, 35
1, 186120, Note_on_c, 0, 68, 35
1, 186128, Note_on_c, 0, 51, 35
1, 186132, Note_on_c, 0, 56, 28
1, 186135, Note_on_c, 0, 44, 17
1, 186235, Control_c, 0, 64, 28
1, 186457, Control_c, 0, 64, 29
1, 186472, Control_c, 0, 64, 30
1, 186486, Control_c, 0, 64, 31
1, 186501, Control_c, 0, 64, 33
1, 186516, Control_c, 0, 64, 36
1, 186532, Control_c, 0, 64, 39
1, 186547, Control_c, 0, 64, 42
1, 186562, Control_c, 0, 64, 44
1, 186577, Control_c, 0, 64, 46
1, 186591, Control_c, 0, 64, 47
1, 186606, Control_c, 0, 64, 49
1, 186621, Control_c, 0, 64, 51
1, 186636, Control_c, 0, 64, 52
1, 186651, Control_c, 0, 64, 54
1, 186665, Control_c, 0, 64, 55
1, 186680, Control_c, 0, 64, 56
1, 186695, Control_c, 0, 64, 58
1, 186710, Control_c, 0, 64, 59
1, 186725, Control_c, 0, 64, 61
1, 186740, Control_c, 0, 64, 62
1, 186755, Control_c, 0, 64, 63
1, 186770, Control_c, 0, 64, 64
1, 186791, Control_c, 0, 64, 65
1, 186806, Control_c, 0, 64, 67
1, 186821, Control_c, 0, 64, 70
1, 186836, Control_c, 0, 64, 74
1, 186851, Control_c, 0, 64, 79
1, 186865, Control_c, 0, 64, 83
1, 186880, Control_c, 0, 64, 88
1, 186895, Control_c, 0, 64, 94
1, 186910, Control_c, 0, 64, 99
1, 186925, Control_c, 0, 64, 103
1, 186939, Control_c, 0, 64, 109
1, 186954, Control_c, 0, 64, 127
1, 187249, Note_off_c, 0, 60, 34
1, 187307, Note_off_c, 0, 72, 42
1, 187495, Note_off_c, 0, 63, 37
1, 187607, Note_off_c, 0, 56, 33
1, 187672, Note_off_c, 0, 68, 36
1, 187796, Note_off_c, 0, 44, 39
1, 188403, Note_on_c, 0, 61, 35
1, 188409, Note_on_c, 0, 68, 43
1, 188413, Note_on_c, 0, 65, 40
1, 188416, Note_on_c, 0, 56, 27
1, 188436, Control_c, 0, 64, 116
1, 188451, Control_c, 0, 64, 100
1, 188454, Note_on_c, 0, 49, 31
1, 188466, Control_c, 0, 64, 90
1, 188481, Control_c, 0, 64, 83
1, 188496, Control_c, 0, 64, 78
1, 188510, Control_c, 0, 64, 74
1, 188525, Control_c, 0, 64, 69
1, 188540, Control_c, 0, 64, 66
1, 188555, Control_c, 0, 64, 64
1, 188570, Control_c, 0, 64, 63
1, 188585, Control_c, 0, 64, 61
1, 188600, Control_c, 0, 64, 60
1, 188615, Control_c, 0, 64, 59
1, 188629, Control_c, 0, 64, 58
1, 188644, Control_c, 0, 64, 56
1, 188659, Control_c, 0, 64, 54
1, 188674, Control_c, 0, 64, 52
1, 188688, Control_c, 0, 64, 50
1, 188692, Note_off_c, 0, 51, 39
1, 188703, Control_c, 0, 64, 47
1, 188718, Control_c, 0, 64, 43
1, 188733, Control_c, 0, 64, 40
1, 188748, Control_c, 0, 64, 36
1, 188762, Control_c, 0, 64, 30
1, 188777, Control_c, 0, 64, 23
1, 188792, Control_c, 0, 64, 15
1, 188807, Control_c, 0, 64, 0
1, 189557, Note_on_c, 0, 64, 31
1, 189767, Note_off_c, 0, 65, 49
1, 190142, Control_c, 0, 64, 9
1, 190157, Control_c, 0, 64, 11
1, 190172, Control_c, 0, 64, 13
1, 190187, Control_c, 0, 64, 15
1, 190201, Control_c, 0, 64, 16
1, 190216, Control_c, 0, 64, 17
1, 190231, Control_c, 0, 64, 18
1, 190246, Control_c, 0, 64, 20
1, 190261, Control_c, 0, 64, 21
1, 190275, Control_c, 0, 64, 21
1, 190290, Control_c, 0, 64, 22
1, 190305, Control_c, 0, 64, 23
1, 190320, Control_c, 0, 64, 23
1, 190322, Note_on_c, 0, 70, 48
1, 190350, Control_c, 0, 64, 24
1, 190365, Control_c, 0, 64, 25
1, 190379, Control_c, 0, 64, 26
1, 190394, Control_c, 0, 64, 27
1, 190409, Control_c, 0, 64, 28
1, 190424, Control_c, 0, 64, 30
1, 190427, Note_off_c, 0, 68, 53
1, 190439, Control_c, 0, 64, 31
1, 190454, Control_c, 0, 64, 32
1, 190469, Control_c, 0, 64, 32
1, 190483, Control_c, 0, 64, 34
1, 190498, Control_c, 0, 64, 37
1, 190513, Control_c, 0, 64, 41
1, 190536, Control_c, 0, 64, 45
1, 190551, Control_c, 0, 64, 49
1, 190565, Control_c, 0, 64, 51
1, 190580, Control_c, 0, 64, 54
1, 190595, Control_c, 0, 64, 55
1, 190610, Control_c, 0, 64, 57
1, 190625, Control_c, 0, 64, 59
1, 190639, Control_c, 0, 64, 61
1, 190654, Control_c, 0, 64, 62
1, 190669, Control_c, 0, 64, 63
1, 190684, Control_c, 0, 64, 64
1, 190699, Control_c, 0, 64, 65
1, 190713, Control_c, 0, 64, 66
1, 190728, Control_c, 0, 64, 67
1, 190743, Control_c, 0, 64, 69
1, 190758, Control_c, 0, 64, 70
1, 190773, Control_c, 0, 64, 72
1, 190788, Control_c, 0, 64, 75
1, 190803, Control_c, 0, 64, 77
1, 190818, Control_c, 0, 64, 81
1, 190832, Control_c, 0, 64, 86
1, 190847, Control_c, 0, 64, 92
1, 190862, Control_c, 0, 64, 99
1, 190877, Control_c, 0, 64, 107
1, 190892, Control_c, 0, 64, 119
1, 190906, Control_c, 0, 64, 127
1, 191532, Note_on_c, 0, 44, 34
1, 191710, Note_off_c, 0, 56, 19
1, 191879, Note_on_c, 0, 51, 37
1, 191930, Note_off_c, 0, 64, 41
1, 192066, Note_on_c, 0, 56, 32
1, 192189, Note_off_c, 0, 61, 39
1, 192243, Note_on_c, 0, 60, 35
1, 192263, Note_off_c, 0, 49, 37
1, 192299, Control_c, 0, 64, 121
1, 192314, Control_c, 0, 64, 115
1, 192329, Control_c, 0, 64, 112
1, 192344, Control_c, 0, 64, 110
1, 192358, Control_c, 0, 64, 108
1, 192373, Control_c, 0, 64, 106
1, 192387, Note_off_c, 0, 70, 31
1, 192388, Control_c, 0, 64, 103
1, 192402, Control_c, 0, 64, 100
1, 192417, Control_c, 0, 64, 99
1, 192430, Note_on_c, 0, 63, 37
1, 192432, Control_c, 0, 64, 97
1, 192447, Control_c, 0, 64, 96
1, 192462, Control_c, 0, 64, 94
1, 192476, Control_c, 0, 64, 93
1, 192491, Control_c, 0, 64, 92
1, 192506, Control_c, 0, 64, 90
1, 192521, Control_c, 0, 64, 89
1, 192536, Control_c, 0, 64, 87
1, 192550, Control_c, 0, 64, 87
1, 192565, Control_c, 0, 64, 86
1, 192601, Note_on_c, 0, 68, 41
1, 192624, Control_c, 0, 64, 86
1, 192639, Control_c, 0, 64, 85
1, 192654, Control_c, 0, 64, 85
1, 192699, Control_c, 0, 64, 84
1, 192780, Control_c, 0, 64, 84
1, 192809, Control_c, 0, 64, 83
1, 193018, Note_on_c, 0, 72, 55
1, 193092, Control_c, 0, 64, 83
1, 193122, Control_c, 0, 64, 82
1, 193137, Control_c, 0, 64, 82
1, 193152, Control_c, 0, 64, 81
1, 193167, Control_c, 0, 64, 81
1, 193181, Control_c, 0, 64, 80
1, 193196, Control_c, 0, 64, 80
1, 193343, Control_c, 0, 64, 79
1, 193477, Control_c, 0, 64, 80
1, 193544, Control_c, 0, 64, 80
1, 193558, Control_c, 0, 64, 81
1, 193588, Control_c, 0, 64, 81
1, 193603, Control_c, 0, 64, 82
1, 193618, Control_c, 0, 64, 84
1, 193633, Control_c, 0, 64, 86
1, 193648, Control_c, 0, 64, 88
1, 193663, Control_c, 0, 64, 92
1, 193678, Control_c, 0, 64, 99
1, 193693, Control_c, 0, 64, 109
1, 193707, Control_c, 0, 64, 127
1, 195741, Note_off_c, 0, 60, 18
1, 195916, Note_off_c, 0, 72, 26
1, 196088, Note_off_c, 0, 63, 21
1, 196189, Note_off_c, 0, 56, 33
1, 196243, Note_off_c, 0, 44, 36
1, 196288, Note_off_c, 0, 68, 8
1, 196650, Note_off_c, 0, 51, 31
1, 200038, Control_c, 0, 64, 123
1, 200053, Control_c, 0, 64, 121
1, 200067, Control_c, 0, 64, 118
1, 200082, Control_c, 0, 64, 115
1, 200097, Control_c, 0, 64, 112
1, 200113, Control_c, 0, 64, 108
1, 200128, Control_c, 0, 64, 104
1, 200143, Control_c, 0, 64, 101
1, 200157, Control_c, 0, 64, 98
1, 200172, Control_c, 0, 64, 95
1, 200187, Control_c, 0, 64, 93
1, 200202, Control_c, 0, 64, 90
1, 200216, Control_c, 0, 64, 88
1, 200231, Control_c, 0, 64, 86
1, 200246, Control_c, 0, 64, 85
1, 200269, Control_c, 0, 64, 83
1, 200284, Control_c, 0, 64, 83
1, 200298, Control_c, 0, 64, 82
1, 200313, Control_c, 0, 64, 80
1, 200328, Control_c, 0, 64, 79
1, 200343, Control_c, 0, 64, 78
1, 200358, Control_c, 0, 64, 77
1, 200372, Control_c, 0, 64, 76
1, 200387, Control_c, 0, 64, 74
1, 200402, Control_c, 0, 64, 73
1, 200416, Control_c, 0, 64, 72
1, 200431, Control_c, 0, 64, 71
1, 200446, Control_c, 0, 64, 70
1, 200461, Control_c, 0, 64, 70
1, 200476, Control_c, 0, 64, 69
1, 200491, Control_c, 0, 64, 68
1, 200506, Control_c, 0, 64, 67
1, 200520, Control_c, 0, 64, 66
1, 200535, Control_c, 0, 64, 65
1, 200550, Control_c, 0, 64, 65
1, 200580, Control_c, 0, 64, 64
1, 200609, Control_c, 0, 64, 64
1, 200624, Control_c, 0, 64, 63
1, 200639, Control_c, 0, 64, 62
1, 200654, Control_c, 0, 64, 62
1, 200669, Control_c, 0, 64, 61
1, 200683, Control_c, 0, 64, 61
1, 200698, Control_c, 0, 64, 60
1, 200713, Control_c, 0, 64, 60
1, 200728, Control_c, 0, 64, 59
1, 200743, Control_c, 0, 64, 58
1, 200757, Control_c, 0, 64, 57
1, 200772, Control_c, 0, 64, 56
1, 200787, Control_c, 0, 64, 55
1, 200802, Control_c, 0, 64, 53
1, 200816, Control_c, 0, 64, 51
1, 200831, Control_c, 0, 64, 50
1, 200846, Control_c, 0, 64, 50
1, 200861, Control_c, 0, 64, 48
1, 200876, Control_c, 0, 64, 46
1, 200890, Control_c, 0, 64, 42
1, 200906, Control_c, 0, 64, 37
1, 200921, Control_c, 0, 64, 30
1, 200936, Control_c, 0, 64, 25
1, 200951, Control_c, 0, 64, 20
1, 200966, Control_c, 0, 64, 11
1, 200980, Control_c, 0, 64, 0
1, 201055, End_track
0, 0, End_of_file
