0, 0, Header, 0, 1, 384
1, 0, Start_track
1, 0, Title_t, "Sonata Op. 27/2--Scott Meek     "
1, 0, Text_t, "2009 Piano-e-Competition audition round"
1, 0, Text_t, "captured January 2009"
1, 0, Text_t, "http://www.piano-e-competition.com/"
1, 0, Text_t, "File processed for distribution by software from Zenph Studios, Inc., http://www.zenph.com"
1, 0, Instrument_name_t, "Yamaha Disklavier Pro Mark IV concert grand piano, model DCFIIISM4PRO"
1, 0, Sequencer_specific, 39, 67, 113, 0, 1, 0, 1, 0, 83, 111, 110, 97, 116, 97, 32, 79, 112, 46, 32, 50, 55, 47, 50, 32, 83, 99, 111, 116, 116, 32, 77, 101, 101, 107, 32, 32, 32, 32, 32, 32
1, 0, Sequencer_specific, 6, 67, 113, 0, 0, 0, 69
1, 0, System_exclusive, 21, 67, 113, 126, 21, 0, 2, 2, 0, 3, 14, 1, 4, 1, 13, 13, 10, 11, 9, 2, 7, 247
1, 0, Sequencer_specific, 5, 67, 123, 12, 2, 1
1, 0, Tempo, 512820
1, 0, Time_signature, 4, 2, 24, 8
1, 0, System_exclusive, 5, 126, 127, 9, 1, 247
1, 1, System_exclusive, 8, 67, 16, 76, 0, 0, 126, 0, 247
1, 2, System_exclusive, 8, 67, 16, 76, 8, 9, 7, 1, 247
1, 3, Control_c, 0, 0, 0
1, 3, Control_c, 1, 0, 0
1, 3, Control_c, 2, 0, 0
1, 3, Control_c, 3, 0, 0
1, 3, Control_c, 4, 0, 0
1, 3, Control_c, 5, 0, 0
1, 3, Control_c, 6, 0, 0
1, 3, Control_c, 7, 0, 0
1, 3, Control_c, 8, 0, 0
1, 3, Control_c, 9, 0, 127
1, 3, Control_c, 10, 0, 0
1, 3, Control_c, 11, 0, 0
1, 3, Control_c, 12, 0, 0
1, 3, Control_c, 13, 0, 0
1, 3, Control_c, 14, 0, 0
1, 3, Control_c, 15, 0, 0
1, 4, Control_c, 0, 32, 0
1, 4, Control_c, 1, 32, 0
1, 4, Control_c, 2, 32, 0
1, 4, Control_c, 3, 32, 0
1, 4, Control_c, 4, 32, 0
1, 4, Control_c, 5, 32, 0
1, 4, Control_c, 6, 32, 0
1, 4, Control_c, 7, 32, 0
1, 4, Control_c, 8, 32, 0
1, 4, Control_c, 9, 32, 0
1, 4, Control_c, 10, 32, 0
1, 4, Control_c, 11, 32, 0
1, 4, Control_c, 12, 32, 0
1, 4, Control_c, 13, 32, 0
1, 4, Control_c, 14, 32, 0
1, 4, Control_c, 15, 32, 0
1, 5, Program_c, 0, 0
1, 5, Program_c, 1, 0
1, 5, Program_c, 2, 0
1, 5, Program_c, 3, 0
1, 5, Program_c, 4, 0
1, 5, Program_c, 5, 0
1, 5, Program_c, 6, 0
1, 5, Program_c, 7, 0
1, 5, Program_c, 8, 0
1, 5, Program_c, 9, 0
1, 5, Program_c, 10, 0
1, 5, Program_c, 11, 0
1, 5, Program_c, 12, 0
1, 5, Program_c, 13, 0
1, 5, Program_c, 14, 0
1, 5, Program_c, 15, 0
1, 6, Control_c, 0, 7, 100
1, 6, Control_c, 1, 7, 100
1, 6, Control_c, 2, 7, 100
1, 6, Control_c, 3, 7, 100
1, 6, Control_c, 4, 7, 100
1, 6, Control_c, 5, 7, 100
1, 6, Control_c, 6, 7, 100
1, 6, Control_c, 7, 7, 100
1, 6, Control_c, 8, 7, 100
1, 6, Control_c, 9, 7, 100
1, 6, Control_c, 10, 7, 100
1, 6, Control_c, 11, 7, 100
1, 6, Control_c, 12, 7, 100
1, 6, Control_c, 13, 7, 100
1, 6, Control_c, 14, 7, 100
1, 6, Control_c, 15, 7, 100
1, 117, Control_c, 0, 67, 11
1, 229, Control_c, 0, 67, 22
1, 341, Control_c, 0, 67, 33
1, 452, Control_c, 0, 67, 44
1, 564, Control_c, 0, 67, 55
1, 676, Control_c, 0, 67, 66
1, 787, Control_c, 0, 67, 77
1, 899, Control_c, 0, 67, 89
1, 1130, Note_on_c, 0, 37, 73
1, 1164, Control_c, 0, 67, 89
1, 1169, Note_off_c, 0, 37, 63
1, 1193, Control_c, 0, 67, 88
1, 1208, Control_c, 0, 67, 88
1, 1212, Note_on_c, 0, 44, 56
1, 1238, Control_c, 0, 67, 87
1, 1277, Note_on_c, 0, 49, 52
1, 1298, Note_off_c, 0, 44, 61
1, 1333, Note_on_c, 0, 52, 52
1, 1353, Note_off_c, 0, 49, 51
1, 1388, Control_c, 0, 67, 88
1, 1390, Note_off_c, 0, 52, 61
1, 1398, Note_on_c, 0, 56, 57
1, 1432, Note_on_c, 0, 37, 33
1, 1459, Note_off_c, 0, 56, 62
1, 1468, Note_off_c, 0, 37, 48
1, 1473, Note_on_c, 0, 49, 42
1, 1491, Control_c, 0, 67, 88
1, 1518, Note_off_c, 0, 49, 60
1, 1520, Note_on_c, 0, 44, 66
1, 1525, Note_on_c, 0, 52, 61
1, 1551, Note_off_c, 0, 44, 63
1, 1582, Note_off_c, 0, 52, 60
1, 1593, Note_on_c, 0, 56, 59
1, 1646, Note_on_c, 0, 61, 57
1, 1652, Note_off_c, 0, 56, 61
1, 1654, Note_on_c, 0, 37, 57
1, 1679, Note_off_c, 0, 37, 59
1, 1698, Note_off_c, 0, 61, 59
1, 1708, Note_on_c, 0, 52, 62
1, 1763, Note_off_c, 0, 52, 57
1, 1768, Note_on_c, 0, 44, 64
1, 1774, Note_on_c, 0, 56, 59
1, 1797, Note_off_c, 0, 44, 61
1, 1831, Note_on_c, 0, 61, 64
1, 1849, Note_off_c, 0, 56, 63
1, 1882, Note_on_c, 0, 64, 46
1, 1894, Note_off_c, 0, 61, 60
1, 1895, Note_on_c, 0, 37, 67
1, 1933, Note_off_c, 0, 64, 54
1, 1933, Note_off_c, 0, 37, 64
1, 1954, Note_on_c, 0, 56, 58
1, 2013, Note_on_c, 0, 61, 64
1, 2014, Note_off_c, 0, 56, 57
1, 2019, Note_on_c, 0, 44, 69
1, 2049, Note_off_c, 0, 44, 63
1, 2062, Control_c, 0, 67, 88
1, 2089, Note_on_c, 0, 64, 58
1, 2104, Note_off_c, 0, 61, 61
1, 2124, Note_off_c, 0, 64, 65
1, 2133, Note_on_c, 0, 68, 65
1, 2150, Note_on_c, 0, 37, 67
1, 2181, Control_c, 0, 67, 87
1, 2182, Note_off_c, 0, 37, 64
1, 2198, Note_off_c, 0, 68, 65
1, 2217, Note_on_c, 0, 61, 47
1, 2250, Note_off_c, 0, 61, 58
1, 2252, Note_on_c, 0, 64, 57
1, 2269, Note_on_c, 0, 44, 68
1, 2297, Note_off_c, 0, 44, 61
1, 2299, Control_c, 0, 67, 87
1, 2311, Note_off_c, 0, 64, 55
1, 2314, Note_on_c, 0, 68, 68
1, 2366, Note_on_c, 0, 73, 69
1, 2374, Control_c, 0, 67, 86
1, 2379, Note_off_c, 0, 68, 63
1, 2389, Control_c, 0, 67, 86
1, 2389, Note_on_c, 0, 37, 67
1, 2404, Control_c, 0, 67, 85
1, 2420, Note_off_c, 0, 37, 64
1, 2433, Control_c, 0, 67, 85
1, 2434, Note_off_c, 0, 73, 59
1, 2449, Note_on_c, 0, 64, 51
1, 2492, Control_c, 0, 67, 84
1, 2502, Note_off_c, 0, 64, 61
1, 2504, Note_on_c, 0, 44, 74
1, 2511, Note_on_c, 0, 68, 55
1, 2522, Control_c, 0, 67, 84
1, 2532, Note_off_c, 0, 44, 63
1, 2566, Control_c, 0, 67, 83
1, 2567, Note_on_c, 0, 73, 60
1, 2581, Control_c, 0, 67, 82
1, 2591, Note_off_c, 0, 68, 65
1, 2596, Control_c, 0, 67, 81
1, 2603, Note_on_c, 0, 76, 70
1, 2610, Control_c, 0, 67, 81
1, 2625, Control_c, 0, 67, 78
1, 2632, Note_on_c, 0, 37, 68
1, 2633, Note_off_c, 0, 73, 61
1, 2640, Control_c, 0, 67, 74
1, 2655, Control_c, 0, 67, 70
1, 2675, Note_off_c, 0, 37, 63
1, 2676, Note_off_c, 0, 76, 62
1, 2677, Control_c, 0, 67, 65
1, 2688, Note_on_c, 0, 68, 59
1, 2692, Control_c, 0, 67, 58
1, 2707, Control_c, 0, 67, 50
1, 2722, Control_c, 0, 67, 45
1, 2734, Note_on_c, 0, 44, 78
1, 2737, Control_c, 0, 67, 41
1, 2751, Control_c, 0, 67, 40
1, 2752, Note_on_c, 0, 73, 76
1, 2764, Note_off_c, 0, 44, 65
1, 2766, Control_c, 0, 67, 39
1, 2781, Control_c, 0, 67, 38
1, 2795, Note_off_c, 0, 68, 64
1, 2796, Control_c, 0, 67, 27
1, 2802, Note_on_c, 0, 76, 67
1, 2811, Control_c, 0, 67, 0
1, 2814, Note_off_c, 0, 73, 64
1, 2825, Note_off_c, 0, 76, 66
1, 2854, Poly_aftertouch_c, 0, 73, 0
1, 2857, Note_on_c, 0, 49, 96
1, 2857, Note_on_c, 0, 80, 100
1, 2858, Note_on_c, 0, 68, 91
1, 2860, Note_on_c, 0, 37, 90
1, 2860, Note_on_c, 0, 73, 78
1, 2866, Note_on_c, 0, 76, 82
1, 2869, Control_c, 0, 64, 56
1, 2884, Note_off_c, 0, 49, 65
1, 2884, Control_c, 0, 64, 64
1, 2895, Note_off_c, 0, 37, 61
1, 2898, Note_off_c, 0, 76, 55
1, 2899, Control_c, 0, 64, 66
1, 2910, Note_off_c, 0, 68, 63
1, 2914, Control_c, 0, 64, 65
1, 2919, Note_off_c, 0, 73, 60
1, 2929, Note_off_c, 0, 80, 58
1, 2929, Control_c, 0, 64, 66
1, 2945, Control_c, 0, 67, 8
1, 2959, Control_c, 0, 64, 65
1, 2959, Control_c, 0, 67, 10
1, 2974, Control_c, 0, 64, 64
1, 2974, Control_c, 0, 67, 15
1, 2989, Control_c, 0, 64, 61
1, 2989, Control_c, 0, 67, 28
1, 2990, Note_on_c, 0, 80, 64
1, 2994, Note_on_c, 0, 44, 75
1, 3004, Control_c, 0, 64, 49
1, 3004, Control_c, 0, 67, 46
1, 3005, Note_on_c, 0, 76, 52
1, 3012, Note_on_c, 0, 68, 63
1, 3018, Note_off_c, 0, 80, 67
1, 3019, Control_c, 0, 64, 0
1, 3019, Control_c, 0, 67, 68
1, 3020, Note_off_c, 0, 44, 64
1, 3027, Note_off_c, 0, 76, 61
1, 3033, Control_c, 0, 67, 88
1, 3041, Note_off_c, 0, 68, 68
1, 3048, Control_c, 0, 67, 104
1, 3063, Control_c, 0, 67, 115
1, 3078, Control_c, 0, 67, 124
1, 3093, Control_c, 0, 67, 127
1, 3167, Note_on_c, 0, 36, 62
1, 3200, Note_off_c, 0, 36, 61
1, 3205, Note_on_c, 0, 44, 63
1, 3292, Note_on_c, 0, 48, 55
1, 3318, Note_off_c, 0, 44, 63
1, 3354, Note_off_c, 0, 48, 62
1, 3374, Note_on_c, 0, 51, 56
1, 3404, Note_on_c, 0, 56, 68
1, 3422, Note_off_c, 0, 51, 61
1, 3441, Note_on_c, 0, 36, 54
1, 3462, Note_off_c, 0, 56, 60
1, 3469, Note_off_c, 0, 36, 56
1, 3487, Note_on_c, 0, 48, 57
1, 3545, Note_off_c, 0, 48, 59
1, 3547, Note_on_c, 0, 51, 56
1, 3551, Note_on_c, 0, 44, 73
1, 3578, Note_off_c, 0, 44, 63
1, 3611, Note_on_c, 0, 56, 54
1, 3613, Note_off_c, 0, 51, 62
1, 3657, Note_off_c, 0, 56, 61
1, 3665, Note_on_c, 0, 60, 59
1, 3679, Note_on_c, 0, 36, 62
1, 3712, Note_off_c, 0, 36, 60
1, 3726, Note_off_c, 0, 60, 60
1, 3735, Note_on_c, 0, 51, 61
1, 3795, Note_on_c, 0, 56, 56
1, 3808, Note_on_c, 0, 44, 69
1, 3811, Note_off_c, 0, 51, 57
1, 3836, Note_off_c, 0, 44, 63
1, 3870, Note_on_c, 0, 60, 47
1, 3878, Note_off_c, 0, 56, 63
1, 3909, Note_off_c, 0, 60, 65
1, 3918, Note_on_c, 0, 63, 70
1, 3939, Note_on_c, 0, 36, 59
1, 3972, Note_off_c, 0, 36, 61
1, 3980, Note_off_c, 0, 63, 63
1, 3987, Note_on_c, 0, 56, 54
1, 4031, Note_on_c, 0, 60, 56
1, 4046, Note_off_c, 0, 56, 56
1, 4059, Note_on_c, 0, 44, 71
1, 4088, Note_off_c, 0, 44, 63
1, 4108, Note_on_c, 0, 63, 65
1, 4120, Note_off_c, 0, 60, 59
1, 4161, Note_on_c, 0, 68, 65
1, 4183, Note_off_c, 0, 63, 62
1, 4198, Note_on_c, 0, 36, 60
1, 4219, Note_off_c, 0, 68, 63
1, 4230, Note_off_c, 0, 36, 61
1, 4248, Note_on_c, 0, 60, 58
1, 4303, Note_off_c, 0, 60, 60
1, 4309, Note_on_c, 0, 63, 57
1, 4317, Note_on_c, 0, 44, 68
1, 4345, Note_off_c, 0, 44, 63
1, 4374, Note_on_c, 0, 68, 52
1, 4374, Note_off_c, 0, 63, 64
1, 4414, Note_off_c, 0, 68, 64
1, 4429, Note_on_c, 0, 72, 59
1, 4434, Note_on_c, 0, 36, 69
1, 4469, Note_off_c, 0, 36, 61
1, 4486, Note_off_c, 0, 72, 61
1, 4493, Note_on_c, 0, 63, 61
1, 4553, Note_on_c, 0, 68, 63
1, 4558, Note_on_c, 0, 44, 76
1, 4566, Note_off_c, 0, 63, 56
1, 4583, Note_off_c, 0, 44, 64
1, 4612, Note_on_c, 0, 72, 59
1, 4639, Note_off_c, 0, 68, 65
1, 4651, Control_c, 0, 67, 127
1, 4660, Note_off_c, 0, 72, 66
1, 4666, Control_c, 0, 67, 126
1, 4669, Note_on_c, 0, 75, 74
1, 4680, Control_c, 0, 67, 125
1, 4681, Note_on_c, 0, 36, 72
1, 4695, Control_c, 0, 67, 124
1, 4710, Control_c, 0, 67, 122
1, 4723, Note_off_c, 0, 36, 61
1, 4725, Control_c, 0, 67, 121
1, 4726, Note_off_c, 0, 75, 62
1, 4739, Control_c, 0, 67, 119
1, 4748, Note_on_c, 0, 68, 65
1, 4754, Control_c, 0, 67, 118
1, 4769, Control_c, 0, 67, 117
1, 4786, Note_on_c, 0, 44, 81
1, 4797, Note_on_c, 0, 72, 72
1, 4812, Note_off_c, 0, 44, 66
1, 4827, Note_off_c, 0, 68, 62
1, 4828, Control_c, 0, 67, 112
1, 4841, Note_on_c, 0, 75, 66
1, 4843, Control_c, 0, 67, 86
1, 4853, Note_off_c, 0, 72, 61
1, 4857, Control_c, 0, 67, 27
1, 4866, Note_off_c, 0, 75, 66
1, 4872, Control_c, 0, 67, 0
1, 4900, Note_on_c, 0, 80, 101
1, 4901, Note_on_c, 0, 72, 89
1, 4902, Note_on_c, 0, 68, 99
1, 4913, Note_on_c, 0, 75, 90
1, 4914, Note_on_c, 0, 36, 91
1, 4915, Note_on_c, 0, 48, 96
1, 4925, Control_c, 0, 64, 33
1, 4939, Control_c, 0, 64, 0
1, 4940, Note_off_c, 0, 48, 68
1, 4956, Note_off_c, 0, 36, 59
1, 4963, Note_off_c, 0, 68, 62
1, 4966, Note_off_c, 0, 72, 61
1, 4967, Note_off_c, 0, 75, 61
1, 4972, Note_off_c, 0, 80, 62
1, 4984, Control_c, 0, 67, 10
1, 4999, Control_c, 0, 67, 14
1, 5013, Control_c, 0, 67, 20
1, 5028, Control_c, 0, 67, 30
1, 5043, Control_c, 0, 67, 44
1, 5051, Note_on_c, 0, 44, 84
1, 5054, Note_on_c, 0, 80, 61
1, 5058, Control_c, 0, 67, 60
1, 5059, Note_on_c, 0, 68, 69
1, 5061, Note_on_c, 0, 72, 62
1, 5069, Note_on_c, 0, 75, 47
1, 5071, Note_off_c, 0, 80, 64
1, 5072, Control_c, 0, 67, 74
1, 5079, Note_off_c, 0, 44, 65
1, 5087, Control_c, 0, 67, 85
1, 5088, Note_off_c, 0, 68, 67
1, 5090, Note_off_c, 0, 72, 66
1, 5096, Note_off_c, 0, 75, 57
1, 5102, Control_c, 0, 67, 95
1, 5116, Control_c, 0, 67, 100
1, 5131, Control_c, 0, 67, 105
1, 5146, Control_c, 0, 67, 109
1, 5161, Control_c, 0, 67, 114
1, 5176, Control_c, 0, 67, 118
1, 5191, Control_c, 0, 67, 122
1, 5206, Control_c, 0, 67, 122
1, 5209, Note_on_c, 0, 35, 70
1, 5240, Note_off_c, 0, 35, 64
1, 5280, Note_on_c, 0, 49, 60
1, 5329, Note_on_c, 0, 44, 76
1, 5348, Note_on_c, 0, 53, 62
1, 5353, Note_off_c, 0, 49, 62
1, 5355, Control_c, 0, 67, 122
1, 5361, Note_off_c, 0, 44, 63
1, 5369, Control_c, 0, 67, 121
1, 5384, Control_c, 0, 67, 121
1, 5399, Control_c, 0, 67, 120
1, 5407, Note_on_c, 0, 56, 61
1, 5423, Note_off_c, 0, 53, 63
1, 5443, Control_c, 0, 67, 120
1, 5454, Note_on_c, 0, 61, 66
1, 5458, Control_c, 0, 67, 119
1, 5459, Note_on_c, 0, 35, 71
1, 5471, Note_off_c, 0, 56, 63
1, 5473, Control_c, 0, 67, 119
1, 5487, Control_c, 0, 67, 118
1, 5495, Note_off_c, 0, 35, 68
1, 5502, Control_c, 0, 67, 117
1, 5506, Note_off_c, 0, 61, 61
1, 5517, Control_c, 0, 67, 117
1, 5537, Note_on_c, 0, 53, 57
1, 5547, Control_c, 0, 67, 116
1, 5576, Control_c, 0, 67, 116
1, 5581, Note_off_c, 0, 53, 63
1, 5584, Note_on_c, 0, 44, 78
1, 5590, Note_on_c, 0, 56, 65
1, 5606, Control_c, 0, 67, 115
1, 5612, Note_off_c, 0, 44, 64
1, 5635, Control_c, 0, 67, 114
1, 5649, Note_off_c, 0, 56, 64
1, 5651, Note_on_c, 0, 61, 64
1, 5708, Note_off_c, 0, 61, 60
1, 5709, Note_on_c, 0, 65, 66
1, 5721, Note_on_c, 0, 35, 75
1, 5756, Note_off_c, 0, 35, 68
1, 5760, Note_off_c, 0, 65, 59
1, 5774, Note_on_c, 0, 56, 70
1, 5776, Control_c, 0, 67, 114
1, 5834, Note_on_c, 0, 61, 67
1, 5835, Control_c, 0, 67, 113
1, 5847, Note_on_c, 0, 44, 76
1, 5850, Note_off_c, 0, 56, 59
1, 5850, Control_c, 0, 67, 113
1, 5865, Control_c, 0, 67, 112
1, 5878, Note_off_c, 0, 44, 64
1, 5880, Control_c, 0, 67, 111
1, 5888, Note_on_c, 0, 65, 64
1, 5894, Control_c, 0, 67, 109
1, 5909, Control_c, 0, 67, 107
1, 5917, Note_off_c, 0, 61, 63
1, 5924, Control_c, 0, 67, 105
1, 5939, Control_c, 0, 67, 103
1, 5942, Note_off_c, 0, 65, 62
1, 5951, Note_on_c, 0, 68, 74
1, 5954, Control_c, 0, 67, 99
1, 5969, Control_c, 0, 67, 96
1, 5972, Note_on_c, 0, 35, 74
1, 5984, Control_c, 0, 67, 92
1, 5999, Control_c, 0, 67, 90
1, 6007, Note_off_c, 0, 35, 68
1, 6013, Control_c, 0, 67, 88
1, 6015, Note_on_c, 0, 61, 57
1, 6015, Note_off_c, 0, 68, 64
1, 6028, Control_c, 0, 67, 84
1, 6043, Control_c, 0, 67, 81
1, 6058, Control_c, 0, 67, 80
1, 6067, Note_on_c, 0, 65, 69
1, 6073, Control_c, 0, 67, 79
1, 6086, Note_off_c, 0, 61, 59
1, 6099, Note_on_c, 0, 44, 80
1, 6102, Control_c, 0, 67, 80
1, 6129, Note_off_c, 0, 44, 65
1, 6133, Control_c, 0, 67, 79
1, 6135, Note_on_c, 0, 68, 69
1, 6148, Control_c, 0, 67, 78
1, 6157, Note_off_c, 0, 65, 61
1, 6163, Control_c, 0, 67, 75
1, 6177, Control_c, 0, 67, 72
1, 6188, Note_on_c, 0, 73, 72
1, 6192, Control_c, 0, 67, 67
1, 6207, Control_c, 0, 67, 63
1, 6207, Note_off_c, 0, 68, 64
1, 6221, Note_on_c, 0, 35, 78
1, 6222, Control_c, 0, 67, 58
1, 6237, Control_c, 0, 67, 54
1, 6246, Note_off_c, 0, 73, 61
1, 6252, Control_c, 0, 67, 51
1, 6254, Note_off_c, 0, 35, 69
1, 6266, Control_c, 0, 67, 48
1, 6278, Note_on_c, 0, 65, 63
1, 6281, Control_c, 0, 67, 47
1, 6296, Control_c, 0, 67, 46
1, 6310, Control_c, 0, 67, 46
1, 6325, Control_c, 0, 67, 45
1, 6333, Note_on_c, 0, 68, 60
1, 6335, Note_off_c, 0, 65, 56
1, 6341, Note_on_c, 0, 44, 76
1, 6355, Control_c, 0, 67, 44
1, 6373, Note_off_c, 0, 44, 62
1, 6398, Note_on_c, 0, 73, 63
1, 6415, Note_off_c, 0, 68, 64
1, 6452, Control_c, 0, 67, 44
1, 6462, Note_on_c, 0, 77, 69
1, 6462, Note_off_c, 0, 73, 62
1, 6466, Control_c, 0, 67, 43
1, 6470, Note_on_c, 0, 35, 80
1, 6481, Control_c, 0, 67, 41
1, 6496, Control_c, 0, 67, 38
1, 6505, Note_off_c, 0, 35, 66
1, 6511, Control_c, 0, 67, 36
1, 6525, Control_c, 0, 67, 35
1, 6537, Note_on_c, 0, 68, 63
1, 6538, Note_off_c, 0, 77, 58
1, 6582, Note_on_c, 0, 73, 63
1, 6589, Note_on_c, 0, 44, 81
1, 6610, Note_off_c, 0, 68, 56
1, 6614, Control_c, 0, 67, 34
1, 6623, Note_off_c, 0, 44, 62
1, 6629, Control_c, 0, 67, 34
1, 6644, Control_c, 0, 67, 31
1, 6654, Note_on_c, 0, 77, 69
1, 6658, Control_c, 0, 67, 20
1, 6673, Control_c, 0, 67, 0
1, 6691, Note_off_c, 0, 73, 62
1, 6696, Note_on_c, 0, 80, 80
1, 6700, Note_off_c, 0, 77, 65
1, 6713, Note_on_c, 0, 35, 79
1, 6753, Note_off_c, 0, 35, 62
1, 6762, Note_off_c, 0, 80, 63
1, 6784, Note_on_c, 0, 73, 71
1, 6813, Note_on_c, 0, 44, 84
1, 6836, Note_on_c, 0, 77, 71
1, 6853, Note_off_c, 0, 44, 62
1, 6874, Note_on_c, 0, 80, 74
1, 6875, Note_off_c, 0, 73, 61
1, 6902, Note_off_c, 0, 77, 64
1, 6909, Note_off_c, 0, 80, 63
1, 6941, Note_on_c, 0, 77, 91
1, 6942, Note_on_c, 0, 80, 80
1, 6942, Note_on_c, 0, 85, 104
1, 6946, Note_on_c, 0, 73, 94
1, 6947, Note_on_c, 0, 35, 90
1, 6949, Note_on_c, 0, 47, 95
1, 6970, Control_c, 0, 64, 69
1, 6975, Note_off_c, 0, 47, 70
1, 6979, Note_off_c, 0, 35, 67
1, 6985, Control_c, 0, 64, 76
1, 6996, Note_off_c, 0, 73, 57
1, 7000, Control_c, 0, 64, 78
1, 7002, Note_off_c, 0, 85, 64
1, 7004, Note_off_c, 0, 80, 62
1, 7008, Note_off_c, 0, 77, 61
1, 7030, Control_c, 0, 64, 79
1, 7045, Control_c, 0, 64, 80
1, 7071, Note_on_c, 0, 44, 91
1, 7091, Note_on_c, 0, 73, 75
1, 7096, Note_on_c, 0, 85, 44
1, 7096, Note_off_c, 0, 44, 66
1, 7099, Note_on_c, 0, 77, 52
1, 7110, Note_on_c, 0, 80, 23
1, 7116, Note_off_c, 0, 85, 62
1, 7119, Note_off_c, 0, 73, 68
1, 7122, Note_off_c, 0, 77, 62
1, 7146, Note_off_c, 0, 80, 52
1, 7170, Control_c, 0, 64, 78
1, 7185, Control_c, 0, 64, 75
1, 7200, Control_c, 0, 64, 70
1, 7215, Control_c, 0, 64, 62
1, 7230, Control_c, 0, 64, 14
1, 7245, Control_c, 0, 64, 0
1, 7268, Note_on_c, 0, 33, 76
1, 7283, Note_on_c, 0, 56, 51
1, 7304, Note_off_c, 0, 33, 65
1, 7325, Note_off_c, 0, 56, 56
1, 7344, Note_on_c, 0, 49, 70
1, 7405, Note_on_c, 0, 45, 74
1, 7407, Note_on_c, 0, 54, 67
1, 7432, Note_off_c, 0, 45, 66
1, 7453, Note_off_c, 0, 49, 62
1, 7457, Note_on_c, 0, 57, 66
1, 7510, Note_off_c, 0, 54, 64
1, 7519, Note_on_c, 0, 61, 70
1, 7519, Note_off_c, 0, 57, 65
1, 7537, Note_on_c, 0, 33, 76
1, 7544, Note_off_c, 0, 61, 66
1, 7573, Note_off_c, 0, 33, 65
1, 7605, Note_on_c, 0, 61, 68
1, 7656, Note_on_c, 0, 45, 78
1, 7675, Note_on_c, 0, 66, 72
1, 7686, Note_off_c, 0, 45, 66
1, 7695, Note_off_c, 0, 61, 56
1, 7732, Note_on_c, 0, 69, 66
1, 7773, Note_off_c, 0, 66, 64
1, 7776, Note_on_c, 0, 73, 79
1, 7779, Note_off_c, 0, 69, 67
1, 7785, Note_on_c, 0, 33, 81
1, 7799, Note_off_c, 0, 73, 70
1, 7831, Note_off_c, 0, 33, 58
1, 7870, Note_on_c, 0, 73, 74
1, 7913, Note_on_c, 0, 45, 81
1, 7921, Note_on_c, 0, 78, 77
1, 7943, Note_off_c, 0, 45, 67
1, 7971, Note_off_c, 0, 73, 60
1, 7977, Note_on_c, 0, 81, 73
1, 7986, Note_off_c, 0, 78, 65
1, 8011, Note_off_c, 0, 81, 64
1, 8037, Note_on_c, 0, 33, 94
1, 8037, Note_on_c, 0, 78, 92
1, 8038, Note_on_c, 0, 85, 97
1, 8039, Note_on_c, 0, 73, 93
1, 8053, Control_c, 0, 64, 69
1, 8068, Control_c, 0, 64, 81
1, 8071, Note_on_c, 0, 81, 9
1, 8082, Control_c, 0, 64, 90
1, 8084, Note_off_c, 0, 33, 61
1, 8091, Note_off_c, 0, 73, 61
1, 8097, Control_c, 0, 64, 91
1, 8102, Note_off_c, 0, 78, 62
1, 8115, Note_off_c, 0, 85, 62
1, 8121, Note_off_c, 0, 81, 32
1, 8178, Note_on_c, 0, 85, 69
1, 8180, Note_on_c, 0, 73, 86
1, 8181, Note_on_c, 0, 45, 77
1, 8183, Note_on_c, 0, 78, 71
1, 8194, Note_off_c, 0, 85, 68
1, 8200, Note_off_c, 0, 78, 68
1, 8204, Note_off_c, 0, 73, 67
1, 8208, Note_off_c, 0, 45, 65
1, 8318, Control_c, 0, 64, 90
1, 8332, Note_on_c, 0, 33, 95
1, 8333, Control_c, 0, 64, 79
1, 8348, Control_c, 0, 64, 63
1, 8362, Control_c, 0, 64, 0
1, 8387, Note_off_c, 0, 33, 61
1, 8407, Note_on_c, 0, 49, 90
1, 8462, Note_on_c, 0, 45, 88
1, 8482, Note_on_c, 0, 52, 74
1, 8501, Note_off_c, 0, 45, 65
1, 8541, Note_off_c, 0, 49, 61
1, 8552, Note_on_c, 0, 55, 69
1, 8582, Note_off_c, 0, 52, 65
1, 8591, Note_on_c, 0, 61, 82
1, 8597, Note_off_c, 0, 55, 65
1, 8603, Note_on_c, 0, 33, 93
1, 8614, Note_off_c, 0, 61, 69
1, 8666, Note_off_c, 0, 33, 62
1, 8693, Note_on_c, 0, 61, 83
1, 8747, Note_on_c, 0, 45, 88
1, 8753, Note_on_c, 0, 64, 72
1, 8790, Note_off_c, 0, 61, 59
1, 8800, Note_off_c, 0, 45, 62
1, 8809, Note_on_c, 0, 67, 73
1, 8853, Note_off_c, 0, 64, 65
1, 8866, Note_on_c, 0, 73, 84
1, 8869, Note_off_c, 0, 67, 65
1, 8879, Note_on_c, 0, 33, 88
1, 8887, Note_off_c, 0, 73, 69
1, 8944, Note_off_c, 0, 33, 60
1, 8968, Note_on_c, 0, 73, 88
1, 9008, Control_c, 0, 64, 27
1, 9010, Note_on_c, 0, 76, 74
1, 9018, Note_on_c, 0, 45, 86
1, 9023, Control_c, 0, 64, 34
1, 9037, Control_c, 0, 64, 34
1, 9052, Control_c, 0, 64, 0
1, 9060, Note_off_c, 0, 73, 56
1, 9066, Note_on_c, 0, 79, 74
1, 9075, Note_off_c, 0, 45, 62
1, 9084, Note_off_c, 0, 76, 64
1, 9104, Note_off_c, 0, 79, 64
1, 9155, Note_on_c, 0, 33, 88
1, 9161, Note_on_c, 0, 73, 96
1, 9163, Note_on_c, 0, 85, 97
1, 9164, Note_on_c, 0, 79, 88
1, 9171, Control_c, 0, 64, 63
1, 9185, Control_c, 0, 64, 69
1, 9200, Control_c, 0, 64, 74
1, 9206, Note_off_c, 0, 33, 60
1, 9215, Control_c, 0, 64, 74
1, 9218, Note_off_c, 0, 73, 59
1, 9230, Control_c, 0, 64, 75
1, 9245, Control_c, 0, 64, 77
1, 9249, Note_off_c, 0, 79, 60
1, 9254, Note_off_c, 0, 85, 62
1, 9260, Control_c, 0, 64, 79
1, 9275, Control_c, 0, 64, 82
1, 9289, Control_c, 0, 64, 85
1, 9304, Control_c, 0, 64, 89
1, 9304, Note_on_c, 0, 45, 86
1, 9311, Note_on_c, 0, 85, 94
1, 9312, Note_on_c, 0, 73, 95
1, 9315, Note_on_c, 0, 79, 86
1, 9319, Control_c, 0, 64, 95
1, 9334, Control_c, 0, 64, 105
1, 9337, Note_off_c, 0, 45, 66
1, 9349, Control_c, 0, 64, 127
1, 9430, Note_off_c, 0, 73, 61
1, 9431, Control_c, 0, 64, 108
1, 9441, Note_off_c, 0, 79, 57
1, 9441, Note_off_c, 0, 85, 62
1, 9446, Control_c, 0, 64, 75
1, 9461, Control_c, 0, 64, 10
1, 9475, Control_c, 0, 64, 0
1, 9497, Note_on_c, 0, 44, 109
1, 9498, Note_on_c, 0, 84, 93
1, 9500, Note_on_c, 0, 32, 95
1, 9502, Note_on_c, 0, 80, 98
1, 9503, Note_on_c, 0, 72, 103
1, 9505, Control_c, 0, 64, 51
1, 9520, Control_c, 0, 64, 71
1, 9522, Note_off_c, 0, 44, 67
1, 9524, Note_off_c, 0, 32, 69
1, 9534, Control_c, 0, 64, 86
1, 9539, Note_off_c, 0, 72, 62
1, 9540, Note_off_c, 0, 84, 67
1, 9542, Note_off_c, 0, 80, 64
1, 9549, Control_c, 0, 64, 100
1, 9564, Control_c, 0, 64, 104
1, 9583, Poly_aftertouch_c, 0, 78, 127
1, 9591, Poly_aftertouch_c, 0, 82, 127
1, 9610, Poly_aftertouch_c, 0, 82, 0
1, 9611, Poly_aftertouch_c, 0, 78, 0
1, 9638, Control_c, 0, 64, 104
1, 9653, Control_c, 0, 64, 106
1, 9668, Control_c, 0, 64, 108
1, 9683, Control_c, 0, 64, 109
1, 9698, Control_c, 0, 64, 109
1, 9713, Control_c, 0, 64, 110
1, 9768, Note_on_c, 0, 68, 80
1, 9771, Note_on_c, 0, 56, 59
1, 9772, Note_on_c, 0, 60, 67
1, 9822, Note_off_c, 0, 60, 62
1, 9826, Note_off_c, 0, 68, 64
1, 9834, Note_on_c, 0, 80, 76
1, 9875, Control_c, 0, 64, 109
1, 9884, Note_off_c, 0, 80, 64
1, 9904, Note_on_c, 0, 68, 87
1, 9915, Note_on_c, 0, 60, 80
1, 9951, Note_off_c, 0, 68, 65
1, 9978, Note_on_c, 0, 80, 80
1, 10008, Note_off_c, 0, 60, 36
1, 10008, Control_c, 0, 64, 110
1, 10029, Note_off_c, 0, 80, 58
1, 10037, Note_on_c, 0, 70, 81
1, 10045, Note_on_c, 0, 61, 72
1, 10053, Control_c, 0, 64, 112
1, 10067, Control_c, 0, 64, 121
1, 10082, Control_c, 0, 64, 127
1, 10083, Note_off_c, 0, 70, 61
1, 10106, Note_on_c, 0, 80, 74
1, 10143, Note_off_c, 0, 80, 56
1, 10143, Control_c, 0, 64, 97
1, 10165, Control_c, 0, 64, 74
1, 10179, Note_on_c, 0, 72, 83
1, 10180, Control_c, 0, 64, 42
1, 10184, Note_on_c, 0, 63, 77
1, 10195, Control_c, 0, 64, 0
1, 10218, Note_off_c, 0, 61, 54
1, 10225, Control_c, 0, 64, 31
1, 10236, Note_on_c, 0, 80, 81
1, 10239, Control_c, 0, 64, 59
1, 10240, Note_off_c, 0, 72, 64
1, 10254, Control_c, 0, 64, 68
1, 10269, Control_c, 0, 64, 77
1, 10283, Control_c, 0, 64, 82
1, 10297, Note_off_c, 0, 80, 64
1, 10298, Note_off_c, 0, 63, 60
1, 10298, Control_c, 0, 64, 85
1, 10304, Note_on_c, 0, 73, 81
1, 10310, Note_on_c, 0, 64, 69
1, 10313, Control_c, 0, 64, 86
1, 10328, Control_c, 0, 64, 88
1, 10343, Control_c, 0, 64, 92
1, 10357, Control_c, 0, 64, 99
1, 10366, Note_off_c, 0, 64, 59
1, 10371, Note_on_c, 0, 80, 82
1, 10372, Control_c, 0, 64, 111
1, 10378, Note_off_c, 0, 73, 62
1, 10387, Control_c, 0, 64, 127
1, 10427, Note_off_c, 0, 80, 59
1, 10431, Control_c, 0, 64, 99
1, 10446, Control_c, 0, 64, 80
1, 10447, Note_on_c, 0, 66, 77
1, 10453, Note_on_c, 0, 75, 81
1, 10461, Control_c, 0, 64, 62
1, 10476, Control_c, 0, 64, 41
1, 10491, Control_c, 0, 64, 41
1, 10506, Control_c, 0, 64, 57
1, 10508, Note_on_c, 0, 80, 80
1, 10515, Note_off_c, 0, 75, 62
1, 10521, Control_c, 0, 64, 66
1, 10536, Control_c, 0, 64, 73
1, 10550, Control_c, 0, 64, 82
1, 10556, Note_off_c, 0, 66, 59
1, 10557, Note_off_c, 0, 80, 63
1, 10565, Control_c, 0, 64, 87
1, 10580, Note_on_c, 0, 63, 70
1, 10580, Control_c, 0, 64, 91
1, 10586, Note_on_c, 0, 72, 80
1, 10595, Control_c, 0, 64, 94
1, 10610, Control_c, 0, 64, 99
1, 10624, Control_c, 0, 64, 107
1, 10629, Note_off_c, 0, 72, 61
1, 10639, Control_c, 0, 64, 123
1, 10652, Note_on_c, 0, 80, 83
1, 10654, Control_c, 0, 64, 127
1, 10683, Control_c, 0, 64, 102
1, 10698, Control_c, 0, 64, 84
1, 10705, Note_off_c, 0, 80, 62
1, 10711, Note_on_c, 0, 66, 69
1, 10713, Control_c, 0, 64, 69
1, 10717, Note_on_c, 0, 75, 74
1, 10719, Note_off_c, 0, 63, 57
1, 10728, Control_c, 0, 64, 57
1, 10743, Control_c, 0, 64, 55
1, 10757, Control_c, 0, 64, 63
1, 10772, Control_c, 0, 64, 70
1, 10777, Note_on_c, 0, 80, 83
1, 10779, Note_off_c, 0, 75, 64
1, 10787, Control_c, 0, 64, 78
1, 10802, Control_c, 0, 64, 86
1, 10817, Control_c, 0, 64, 92
1, 10819, Note_off_c, 0, 66, 60
1, 10831, Control_c, 0, 64, 95
1, 10834, Note_off_c, 0, 80, 63
1, 10839, Note_on_c, 0, 64, 65
1, 10846, Control_c, 0, 64, 97
1, 10854, Note_on_c, 0, 73, 77
1, 10861, Control_c, 0, 64, 101
1, 10875, Control_c, 0, 64, 115
1, 10890, Control_c, 0, 64, 127
1, 10909, Note_off_c, 0, 73, 56
1, 10917, Note_on_c, 0, 80, 78
1, 10959, Control_c, 0, 64, 115
1, 10974, Note_off_c, 0, 80, 61
1, 10974, Control_c, 0, 64, 95
1, 10983, Note_on_c, 0, 69, 64
1, 10988, Control_c, 0, 64, 83
1, 10992, Note_on_c, 0, 78, 75
1, 11003, Control_c, 0, 64, 77
1, 11015, Note_off_c, 0, 69, 67
1, 11018, Note_off_c, 0, 64, 28
1, 11033, Control_c, 0, 64, 82
1, 11048, Note_on_c, 0, 80, 84
1, 11048, Control_c, 0, 64, 90
1, 11061, Note_off_c, 0, 78, 56
1, 11062, Control_c, 0, 64, 101
1, 11077, Control_c, 0, 64, 122
1, 11092, Control_c, 0, 64, 127
1, 11098, Note_off_c, 0, 80, 63
1, 11114, Note_on_c, 0, 68, 79
1, 11125, Note_on_c, 0, 76, 81
1, 11136, Control_c, 0, 64, 116
1, 11151, Control_c, 0, 64, 100
1, 11164, Note_off_c, 0, 76, 61
1, 11166, Control_c, 0, 64, 95
1, 11180, Control_c, 0, 64, 95
1, 11181, Note_off_c, 0, 68, 61
1, 11182, Note_on_c, 0, 80, 88
1, 11195, Control_c, 0, 64, 103
1, 11210, Control_c, 0, 64, 127
1, 11237, Note_off_c, 0, 80, 59
1, 11244, Note_on_c, 0, 66, 85
1, 11251, Note_on_c, 0, 75, 85
1, 11254, Control_c, 0, 64, 125
1, 11269, Control_c, 0, 64, 95
1, 11284, Control_c, 0, 64, 78
1, 11299, Control_c, 0, 64, 69
1, 11310, Note_on_c, 0, 80, 83
1, 11314, Control_c, 0, 64, 67
1, 11315, Note_off_c, 0, 75, 64
1, 11328, Control_c, 0, 64, 71
1, 11340, Note_off_c, 0, 66, 60
1, 11343, Control_c, 0, 64, 79
1, 11358, Control_c, 0, 64, 89
1, 11364, Note_off_c, 0, 80, 62
1, 11373, Note_on_c, 0, 64, 78
1, 11373, Control_c, 0, 64, 95
1, 11377, Note_on_c, 0, 73, 84
1, 11388, Control_c, 0, 64, 97
1, 11427, Note_off_c, 0, 73, 62
1, 11451, Note_on_c, 0, 80, 58
1, 11452, Note_off_c, 0, 80, 127
1, 11470, Note_on_c, 0, 79, 57
1, 11491, Note_off_c, 0, 79, 61
1, 11502, Note_on_c, 0, 63, 76
1, 11503, Note_off_c, 0, 64, 62
1, 11505, Note_on_c, 0, 72, 89
1, 11557, Note_off_c, 0, 72, 57
1, 11565, Note_on_c, 0, 80, 84
1, 11626, Note_off_c, 0, 80, 62
1, 11635, Note_on_c, 0, 61, 78
1, 11639, Control_c, 0, 64, 97
1, 11651, Note_off_c, 0, 63, 59
1, 11653, Note_on_c, 0, 69, 81
1, 11662, Control_c, 0, 64, 98
1, 11677, Control_c, 0, 64, 100
1, 11692, Control_c, 0, 64, 102
1, 11700, Note_off_c, 0, 69, 66
1, 11706, Control_c, 0, 64, 106
1, 11707, Note_off_c, 0, 56, 61
1, 11721, Control_c, 0, 64, 116
1, 11724, Note_on_c, 0, 79, 79
1, 11730, Note_off_c, 0, 61, 60
1, 11737, Control_c, 0, 64, 127
1, 11764, Note_off_c, 0, 79, 57
1, 11782, Control_c, 0, 64, 118
1, 11793, Note_on_c, 0, 68, 89
1, 11796, Control_c, 0, 64, 87
1, 11798, Note_on_c, 0, 56, 82
1, 11799, Note_on_c, 0, 60, 76
1, 11811, Control_c, 0, 64, 69
1, 11826, Control_c, 0, 64, 50
1, 11841, Control_c, 0, 64, 30
1, 11852, Note_off_c, 0, 60, 65
1, 11856, Control_c, 0, 64, 45
1, 11862, Note_off_c, 0, 68, 63
1, 11871, Control_c, 0, 64, 62
1, 11885, Control_c, 0, 64, 73
1, 11887, Note_on_c, 0, 80, 70
1, 11900, Control_c, 0, 64, 84
1, 11915, Control_c, 0, 64, 85
1, 11923, Note_off_c, 0, 80, 58
1, 11929, Control_c, 0, 64, 76
1, 11944, Control_c, 0, 64, 65
1, 11945, Note_on_c, 0, 60, 79
1, 11945, Note_on_c, 0, 68, 81
1, 11959, Control_c, 0, 64, 54
1, 11974, Control_c, 0, 64, 56
1, 11989, Control_c, 0, 64, 63
1, 11991, Note_off_c, 0, 68, 62
1, 11993, Note_off_c, 0, 60, 63
1, 12003, Control_c, 0, 64, 68
1, 12013, Note_on_c, 0, 80, 80
1, 12018, Control_c, 0, 64, 72
1, 12033, Control_c, 0, 64, 73
1, 12064, Note_off_c, 0, 80, 63
1, 12077, Note_on_c, 0, 68, 84
1, 12081, Note_on_c, 0, 60, 77
1, 12092, Control_c, 0, 64, 74
1, 12107, Control_c, 0, 64, 75
1, 12121, Control_c, 0, 64, 76
1, 12123, Note_off_c, 0, 68, 64
1, 12136, Control_c, 0, 64, 77
1, 12144, Note_on_c, 0, 80, 82
1, 12151, Control_c, 0, 64, 79
1, 12166, Control_c, 0, 64, 83
1, 12181, Control_c, 0, 64, 90
1, 12196, Control_c, 0, 64, 98
1, 12201, Note_on_c, 0, 70, 88
1, 12204, Note_off_c, 0, 60, 53
1, 12205, Note_off_c, 0, 80, 61
1, 12208, Note_on_c, 0, 61, 72
1, 12211, Control_c, 0, 64, 106
1, 12226, Control_c, 0, 64, 113
1, 12241, Control_c, 0, 64, 114
1, 12250, Note_off_c, 0, 70, 63
1, 12255, Control_c, 0, 64, 112
1, 12270, Note_on_c, 0, 80, 78
1, 12270, Control_c, 0, 64, 95
1, 12285, Control_c, 0, 64, 78
1, 12300, Control_c, 0, 64, 64
1, 12315, Control_c, 0, 64, 46
1, 12329, Control_c, 0, 64, 43
1, 12330, Note_off_c, 0, 80, 59
1, 12332, Note_on_c, 0, 63, 75
1, 12339, Note_on_c, 0, 72, 87
1, 12344, Control_c, 0, 64, 55
1, 12357, Note_off_c, 0, 61, 58
1, 12359, Control_c, 0, 64, 65
1, 12374, Control_c, 0, 64, 72
1, 12396, Control_c, 0, 64, 80
1, 12399, Note_off_c, 0, 72, 60
1, 12405, Note_on_c, 0, 80, 81
1, 12410, Control_c, 0, 64, 87
1, 12425, Control_c, 0, 64, 90
1, 12440, Control_c, 0, 64, 93
1, 12449, Note_off_c, 0, 63, 62
1, 12455, Control_c, 0, 64, 96
1, 12461, Note_on_c, 0, 64, 78
1, 12463, Note_on_c, 0, 73, 86
1, 12464, Note_off_c, 0, 80, 63
1, 12470, Control_c, 0, 64, 103
1, 12485, Control_c, 0, 64, 115
1, 12500, Control_c, 0, 64, 127
1, 12519, Note_off_c, 0, 64, 63
1, 12532, Note_on_c, 0, 80, 84
1, 12539, Note_off_c, 0, 73, 63
1, 12574, Control_c, 0, 64, 106
1, 12589, Control_c, 0, 64, 85
1, 12593, Note_on_c, 0, 66, 81
1, 12598, Note_off_c, 0, 80, 60
1, 12604, Control_c, 0, 64, 69
1, 12611, Note_on_c, 0, 75, 81
1, 12619, Control_c, 0, 64, 54
1, 12634, Control_c, 0, 64, 43
1, 12649, Control_c, 0, 64, 57
1, 12658, Note_on_c, 0, 80, 77
1, 12664, Control_c, 0, 64, 67
1, 12678, Control_c, 0, 64, 77
1, 12679, Note_off_c, 0, 75, 63
1, 12693, Control_c, 0, 64, 91
1, 12708, Control_c, 0, 64, 105
1, 12712, Note_off_c, 0, 66, 61
1, 12713, Note_off_c, 0, 80, 63
1, 12723, Control_c, 0, 64, 115
1, 12725, Note_on_c, 0, 63, 75
1, 12733, Note_on_c, 0, 72, 85
1, 12738, Control_c, 0, 64, 127
1, 12777, Note_off_c, 0, 72, 63
1, 12798, Note_on_c, 0, 80, 84
1, 12819, Note_off_c, 0, 63, 56
1, 12841, Control_c, 0, 64, 110
1, 12852, Note_off_c, 0, 80, 61
1, 12856, Control_c, 0, 64, 90
1, 12857, Note_on_c, 0, 66, 81
1, 12859, Note_on_c, 0, 75, 76
1, 12870, Control_c, 0, 64, 75
1, 12885, Control_c, 0, 64, 66
1, 12886, Note_off_c, 0, 75, 0
1, 12900, Control_c, 0, 64, 62
1, 12915, Poly_aftertouch_c, 0, 75, 0
1, 12915, Control_c, 0, 64, 65
1, 12920, Note_on_c, 0, 80, 84
1, 12930, Control_c, 0, 64, 74
1, 12944, Control_c, 0, 64, 86
1, 12959, Control_c, 0, 64, 102
1, 12974, Control_c, 0, 64, 127
1, 12987, Note_off_c, 0, 80, 61
1, 12992, Note_off_c, 0, 66, 62
1, 12995, Note_on_c, 0, 73, 83
1, 13006, Note_on_c, 0, 64, 66
1, 13063, Note_on_c, 0, 80, 81
1, 13063, Control_c, 0, 64, 103
1, 13066, Note_off_c, 0, 73, 61
1, 13078, Control_c, 0, 64, 82
1, 13093, Control_c, 0, 64, 65
1, 13102, Note_off_c, 0, 64, 56
1, 13108, Control_c, 0, 64, 48
1, 13123, Control_c, 0, 64, 52
1, 13129, Note_off_c, 0, 80, 60
1, 13138, Control_c, 0, 64, 63
1, 13143, Note_on_c, 0, 78, 78
1, 13154, Note_on_c, 0, 69, 70
1, 13159, Control_c, 0, 64, 72
1, 13174, Control_c, 0, 64, 84
1, 13183, Note_off_c, 0, 69, 68
1, 13189, Control_c, 0, 64, 100
1, 13203, Control_c, 0, 64, 118
1, 13218, Control_c, 0, 64, 127
1, 13221, Note_on_c, 0, 80, 84
1, 13239, Note_off_c, 0, 78, 57
1, 13248, Control_c, 0, 64, 110
1, 13263, Control_c, 0, 64, 91
1, 13269, Note_off_c, 0, 80, 64
1, 13278, Control_c, 0, 64, 75
1, 13293, Control_c, 0, 64, 66
1, 13299, Note_on_c, 0, 68, 74
1, 13305, Note_on_c, 0, 76, 77
1, 13308, Control_c, 0, 64, 66
1, 13323, Control_c, 0, 64, 72
1, 13338, Control_c, 0, 64, 82
1, 13352, Note_off_c, 0, 76, 62
1, 13353, Control_c, 0, 64, 99
1, 13358, Note_on_c, 0, 80, 87
1, 13358, Note_off_c, 0, 68, 64
1, 13367, Control_c, 0, 64, 127
1, 13397, Control_c, 0, 64, 107
1, 13412, Control_c, 0, 64, 83
1, 13425, Note_off_c, 0, 80, 61
1, 13427, Control_c, 0, 64, 68
1, 13430, Note_on_c, 0, 75, 82
1, 13432, Note_on_c, 0, 66, 78
1, 13442, Control_c, 0, 64, 62
1, 13457, Control_c, 0, 64, 65
1, 13472, Control_c, 0, 64, 73
1, 13487, Note_on_c, 0, 80, 81
1, 13487, Control_c, 0, 64, 87
1, 13495, Note_off_c, 0, 75, 63
1, 13501, Control_c, 0, 64, 123
1, 13507, Note_off_c, 0, 66, 59
1, 13516, Control_c, 0, 64, 127
1, 13542, Note_off_c, 0, 80, 61
1, 13552, Note_on_c, 0, 73, 82
1, 13561, Control_c, 0, 64, 108
1, 13569, Note_on_c, 0, 64, 71
1, 13575, Control_c, 0, 64, 91
1, 13590, Control_c, 0, 64, 81
1, 13595, Note_off_c, 0, 73, 62
1, 13605, Control_c, 0, 64, 77
1, 13617, Note_on_c, 0, 80, 88
1, 13619, Control_c, 0, 64, 79
1, 13634, Control_c, 0, 64, 87
1, 13649, Control_c, 0, 64, 98
1, 13664, Control_c, 0, 64, 113
1, 13665, Note_off_c, 0, 80, 60
1, 13671, Note_off_c, 0, 64, 58
1, 13677, Note_on_c, 0, 63, 68
1, 13679, Control_c, 0, 64, 127
1, 13693, Note_on_c, 0, 72, 83
1, 13737, Note_off_c, 0, 72, 63
1, 13741, Note_on_c, 0, 80, 85
1, 13782, Note_off_c, 0, 56, 59
1, 13789, Note_off_c, 0, 80, 63
1, 13791, Note_on_c, 0, 61, 70
1, 13817, Note_on_c, 0, 69, 76
1, 13847, Note_off_c, 0, 63, 61
1, 13853, Note_off_c, 0, 69, 66
1, 13876, Note_on_c, 0, 79, 82
1, 13879, Note_off_c, 0, 61, 62
1, 13920, Note_off_c, 0, 79, 58
1, 13948, Note_on_c, 0, 56, 64
1, 13952, Note_on_c, 0, 68, 84
1, 13962, Note_on_c, 0, 60, 68
1, 13968, Control_c, 0, 64, 104
1, 13982, Control_c, 0, 64, 83
1, 13991, Note_off_c, 0, 60, 66
1, 13997, Control_c, 0, 64, 69
1, 13999, Note_off_c, 0, 56, 61
1, 14002, Note_off_c, 0, 68, 65
1, 14012, Control_c, 0, 64, 57
1, 14026, Control_c, 0, 64, 37
1, 14028, Note_on_c, 0, 80, 78
1, 14041, Control_c, 0, 64, 31
1, 14056, Control_c, 0, 64, 36
1, 14071, Note_off_c, 0, 80, 63
1, 14071, Control_c, 0, 64, 39
1, 14081, Note_on_c, 0, 61, 78
1, 14086, Control_c, 0, 64, 37
1, 14095, Note_on_c, 0, 56, 73
1, 14098, Note_on_c, 0, 69, 83
1, 14101, Control_c, 0, 64, 33
1, 14117, Control_c, 0, 64, 31
1, 14125, Note_off_c, 0, 61, 60
1, 14131, Note_off_c, 0, 56, 62
1, 14145, Note_off_c, 0, 69, 67
1, 14162, Control_c, 0, 64, 29
1, 14163, Note_on_c, 0, 79, 78
1, 14177, Control_c, 0, 64, 22
1, 14191, Control_c, 0, 64, 9
1, 14197, Note_off_c, 0, 79, 64
1, 14206, Control_c, 0, 64, 0
1, 14230, Note_on_c, 0, 60, 83
1, 14232, Note_on_c, 0, 56, 82
1, 14232, Note_on_c, 0, 68, 84
1, 14262, Note_off_c, 0, 60, 67
1, 14279, Note_off_c, 0, 56, 61
1, 14285, Note_off_c, 0, 68, 65
1, 14297, Note_on_c, 0, 80, 82
1, 14338, Note_off_c, 0, 80, 64
1, 14350, Note_on_c, 0, 61, 82
1, 14359, Note_on_c, 0, 56, 77
1, 14365, Note_on_c, 0, 69, 88
1, 14396, Note_off_c, 0, 61, 61
1, 14397, Note_off_c, 0, 56, 65
1, 14411, Note_off_c, 0, 69, 65
1, 14423, Note_on_c, 0, 79, 81
1, 14457, Note_off_c, 0, 79, 66
1, 14492, Note_on_c, 0, 60, 92
1, 14493, Note_on_c, 0, 56, 90
1, 14494, Note_on_c, 0, 68, 90
1, 14530, Note_off_c, 0, 60, 66
1, 14545, Note_off_c, 0, 68, 66
1, 14546, Note_off_c, 0, 56, 61
1, 14562, Note_on_c, 0, 80, 82
1, 14609, Note_off_c, 0, 80, 64
1, 14622, Note_on_c, 0, 61, 83
1, 14630, Note_on_c, 0, 69, 88
1, 14633, Note_on_c, 0, 56, 74
1, 14682, Note_off_c, 0, 56, 61
1, 14685, Note_off_c, 0, 61, 62
1, 14688, Note_off_c, 0, 69, 65
1, 14700, Note_on_c, 0, 79, 86
1, 14745, Note_off_c, 0, 79, 64
1, 14774, Note_on_c, 0, 68, 90
1, 14778, Note_on_c, 0, 56, 89
1, 14780, Note_on_c, 0, 60, 86
1, 14819, Note_off_c, 0, 60, 65
1, 14832, Note_off_c, 0, 56, 63
1, 14832, Note_off_c, 0, 68, 65
1, 14841, Note_on_c, 0, 80, 88
1, 14894, Note_off_c, 0, 80, 65
1, 14911, Note_on_c, 0, 61, 85
1, 14918, Note_on_c, 0, 56, 81
1, 14919, Note_on_c, 0, 69, 90
1, 14955, Note_off_c, 0, 61, 62
1, 14956, Note_on_c, 0, 79, 79
1, 14956, Note_off_c, 0, 56, 63
1, 14963, Note_off_c, 0, 69, 66
1, 14992, Note_off_c, 0, 79, 66
1, 15048, Note_on_c, 0, 56, 95
1, 15048, Note_on_c, 0, 80, 104
1, 15050, Note_on_c, 0, 68, 101
1, 15052, Note_on_c, 0, 60, 92
1, 15069, Note_off_c, 0, 60, 73
1, 15071, Note_off_c, 0, 68, 68
1, 15082, Note_off_c, 0, 80, 69
1, 15087, Note_off_c, 0, 56, 64
1, 15417, Note_on_c, 0, 32, 96
1, 15417, Note_on_c, 0, 44, 95
1, 15427, Note_on_c, 0, 56, 104
1, 16140, Control_c, 0, 64, 17
1, 16155, Control_c, 0, 64, 39
1, 16169, Control_c, 0, 64, 47
1, 16184, Control_c, 0, 64, 48
1, 16214, Control_c, 0, 64, 49
1, 16229, Control_c, 0, 64, 53
1, 16244, Control_c, 0, 64, 57
1, 16259, Control_c, 0, 64, 59
1, 16289, Control_c, 0, 64, 60
1, 16303, Control_c, 0, 64, 61
1, 16318, Control_c, 0, 64, 63
1, 16333, Control_c, 0, 64, 65
1, 16348, Control_c, 0, 64, 67
1, 16363, Control_c, 0, 64, 69
1, 16377, Control_c, 0, 64, 70
1, 16392, Control_c, 0, 64, 71
1, 16407, Control_c, 0, 64, 72
1, 16421, Control_c, 0, 64, 74
1, 16436, Control_c, 0, 64, 76
1, 16451, Control_c, 0, 64, 79
1, 16466, Control_c, 0, 64, 80
1, 16481, Control_c, 0, 64, 82
1, 16495, Control_c, 0, 64, 84
1, 16510, Control_c, 0, 64, 86
1, 16510, Control_c, 0, 67, 8
1, 16526, Control_c, 0, 64, 88
1, 16526, Control_c, 0, 67, 9
1, 16541, Control_c, 0, 64, 90
1, 16541, Control_c, 0, 67, 10
1, 16556, Control_c, 0, 64, 93
1, 16556, Control_c, 0, 67, 12
1, 16571, Control_c, 0, 64, 96
1, 16571, Control_c, 0, 67, 15
1, 16586, Control_c, 0, 64, 100
1, 16586, Control_c, 0, 67, 18
1, 16600, Control_c, 0, 64, 104
1, 16600, Control_c, 0, 67, 23
1, 16615, Control_c, 0, 64, 108
1, 16615, Control_c, 0, 67, 27
1, 16630, Control_c, 0, 64, 112
1, 16630, Control_c, 0, 67, 32
1, 16644, Control_c, 0, 64, 118
1, 16644, Control_c, 0, 67, 37
1, 16659, Control_c, 0, 64, 127
1, 16659, Control_c, 0, 67, 43
1, 16674, Control_c, 0, 67, 47
1, 16689, Control_c, 0, 67, 51
1, 16704, Note_off_c, 0, 56, 57
1, 16704, Control_c, 0, 67, 57
1, 16718, Control_c, 0, 67, 65
1, 16727, Note_off_c, 0, 44, 59
1, 16733, Note_off_c, 0, 32, 59
1, 16733, Control_c, 0, 67, 74
1, 16748, Control_c, 0, 67, 86
1, 16763, Control_c, 0, 67, 102
1, 16778, Control_c, 0, 67, 115
1, 16792, Control_c, 0, 67, 127
1, 16807, Control_c, 0, 67, 127
1, 17171, Control_c, 0, 64, 120
1, 17186, Control_c, 0, 64, 97
1, 17201, Control_c, 0, 64, 78
1, 17210, Note_on_c, 0, 37, 60
1, 17216, Control_c, 0, 64, 58
1, 17231, Control_c, 0, 64, 0
1, 17244, Note_off_c, 0, 37, 63
1, 17275, Note_on_c, 0, 44, 49
1, 17341, Note_on_c, 0, 49, 60
1, 17362, Note_off_c, 0, 44, 61
1, 17398, Note_off_c, 0, 49, 54
1, 17402, Note_on_c, 0, 52, 48
1, 17458, Note_off_c, 0, 52, 63
1, 17463, Note_on_c, 0, 56, 63
1, 17475, Note_on_c, 0, 37, 60
1, 17503, Note_off_c, 0, 37, 60
1, 17515, Note_off_c, 0, 56, 59
1, 17526, Note_on_c, 0, 49, 50
1, 17573, Note_off_c, 0, 49, 59
1, 17584, Note_on_c, 0, 52, 59
1, 17591, Note_on_c, 0, 44, 62
1, 17615, Note_off_c, 0, 44, 59
1, 17654, Note_off_c, 0, 52, 59
1, 17663, Note_on_c, 0, 56, 64
1, 17709, Note_on_c, 0, 61, 66
1, 17711, Note_off_c, 0, 56, 60
1, 17722, Note_on_c, 0, 37, 68
1, 17756, Note_off_c, 0, 37, 63
1, 17762, Note_off_c, 0, 61, 58
1, 17788, Note_on_c, 0, 52, 49
1, 17826, Note_off_c, 0, 52, 63
1, 17842, Note_on_c, 0, 56, 50
1, 17846, Note_on_c, 0, 44, 65
1, 17875, Note_off_c, 0, 44, 63
1, 17903, Note_on_c, 0, 61, 61
1, 17931, Note_off_c, 0, 56, 63
1, 17963, Note_on_c, 0, 64, 58
1, 17979, Note_on_c, 0, 37, 67
1, 17981, Note_off_c, 0, 61, 61
1, 18011, Note_off_c, 0, 37, 63
1, 18013, Note_off_c, 0, 64, 63
1, 18047, Note_on_c, 0, 56, 57
1, 18104, Note_off_c, 0, 56, 56
1, 18105, Note_on_c, 0, 44, 68
1, 18107, Note_on_c, 0, 61, 64
1, 18137, Note_off_c, 0, 44, 63
1, 18176, Note_on_c, 0, 64, 61
1, 18197, Note_off_c, 0, 61, 59
1, 18221, Note_off_c, 0, 64, 65
1, 18230, Note_on_c, 0, 37, 74
1, 18234, Note_on_c, 0, 68, 63
1, 18263, Note_off_c, 0, 37, 63
1, 18284, Note_off_c, 0, 68, 59
1, 18300, Note_on_c, 0, 61, 54
1, 18339, Note_off_c, 0, 61, 63
1, 18347, Note_on_c, 0, 64, 64
1, 18357, Note_on_c, 0, 44, 69
1, 18396, Note_off_c, 0, 44, 63
1, 18417, Note_on_c, 0, 68, 67
1, 18427, Note_off_c, 0, 64, 60
1, 18470, Note_on_c, 0, 73, 67
1, 18483, Note_off_c, 0, 68, 64
1, 18495, Note_on_c, 0, 37, 68
1, 18523, Note_off_c, 0, 73, 61
1, 18526, Note_off_c, 0, 37, 64
1, 18554, Note_on_c, 0, 64, 58
1, 18599, Note_off_c, 0, 64, 58
1, 18605, Note_on_c, 0, 68, 64
1, 18612, Note_on_c, 0, 44, 71
1, 18638, Note_off_c, 0, 44, 64
1, 18654, Control_c, 0, 67, 117
1, 18662, Note_on_c, 0, 73, 63
1, 18669, Control_c, 0, 67, 94
1, 18684, Control_c, 0, 67, 57
1, 18698, Control_c, 0, 67, 22
1, 18700, Note_off_c, 0, 68, 64
1, 18712, Note_on_c, 0, 76, 71
1, 18713, Control_c, 0, 67, 0
1, 18727, Note_off_c, 0, 73, 63
1, 18735, Note_on_c, 0, 37, 75
1, 18739, Note_off_c, 0, 76, 65
1, 18778, Note_off_c, 0, 37, 60
1, 18794, Note_on_c, 0, 74, 57
1, 18808, Note_on_c, 0, 76, 54
1, 18834, Note_on_c, 0, 44, 82
1, 18849, Note_off_c, 0, 74, 55
1, 18858, Note_on_c, 0, 80, 76
1, 18874, Note_off_c, 0, 44, 64
1, 18888, Note_off_c, 0, 76, 34
1, 18906, Control_c, 0, 67, 8
1, 18909, Note_on_c, 0, 84, 67
1, 18911, Note_off_c, 0, 80, 64
1, 18921, Control_c, 0, 67, 0
1, 18926, Note_off_c, 0, 84, 68
1, 18961, Note_on_c, 0, 49, 98
1, 18965, Note_on_c, 0, 37, 93
1, 18965, Note_on_c, 0, 88, 102
1, 18966, Control_c, 0, 64, 10
1, 18968, Note_on_c, 0, 76, 94
1, 18981, Control_c, 0, 64, 74
1, 18992, Note_off_c, 0, 49, 63
1, 18992, Note_off_c, 0, 37, 67
1, 18995, Control_c, 0, 64, 90
1, 18998, Note_off_c, 0, 76, 67
1, 19007, Note_off_c, 0, 88, 66
1, 19010, Control_c, 0, 64, 101
1, 19040, Control_c, 0, 64, 102
1, 19055, Control_c, 0, 64, 107
1, 19070, Control_c, 0, 64, 111
1, 19084, Note_on_c, 0, 76, 77
1, 19085, Control_c, 0, 64, 115
1, 19085, Control_c, 0, 67, 8
1, 19086, Note_on_c, 0, 44, 81
1, 19089, Note_on_c, 0, 88, 72
1, 19100, Control_c, 0, 64, 117
1, 19100, Control_c, 0, 67, 11
1, 19101, Note_on_c, 0, 89, 48
1, 19106, Note_off_c, 0, 88, 69
1, 19111, Note_off_c, 0, 76, 66
1, 19114, Control_c, 0, 64, 117
1, 19114, Control_c, 0, 67, 17
1, 19118, Note_off_c, 0, 44, 63
1, 19126, Note_off_c, 0, 89, 59
1, 19129, Control_c, 0, 64, 118
1, 19129, Control_c, 0, 67, 23
1, 19151, Control_c, 0, 67, 32
1, 19166, Control_c, 0, 67, 41
1, 19181, Control_c, 0, 64, 117
1, 19181, Control_c, 0, 67, 49
1, 19195, Control_c, 0, 67, 57
1, 19210, Control_c, 0, 64, 111
1, 19210, Control_c, 0, 67, 63
1, 19225, Control_c, 0, 64, 96
1, 19225, Control_c, 0, 67, 67
1, 19240, Control_c, 0, 64, 80
1, 19240, Control_c, 0, 67, 72
1, 19251, Note_on_c, 0, 34, 69
1, 19255, Control_c, 0, 64, 65
1, 19255, Control_c, 0, 67, 77
1, 19270, Control_c, 0, 64, 35
1, 19270, Control_c, 0, 67, 81
1, 19283, Note_off_c, 0, 34, 64
1, 19284, Control_c, 0, 64, 0
1, 19284, Control_c, 0, 67, 84
1, 19308, Note_on_c, 0, 52, 62
1, 19374, Note_off_c, 0, 52, 60
1, 19375, Note_on_c, 0, 55, 56
1, 19380, Note_on_c, 0, 49, 75
1, 19407, Note_off_c, 0, 49, 64
1, 19439, Note_off_c, 0, 55, 61
1, 19446, Control_c, 0, 67, 83
1, 19451, Note_on_c, 0, 61, 64
1, 19499, Note_off_c, 0, 61, 61
1, 19514, Note_on_c, 0, 64, 62
1, 19514, Note_on_c, 0, 46, 70
1, 19520, Control_c, 0, 67, 83
1, 19546, Note_off_c, 0, 46, 64
1, 19560, Note_off_c, 0, 64, 62
1, 19565, Note_on_c, 0, 55, 66
1, 19594, Control_c, 0, 67, 82
1, 19627, Note_off_c, 0, 55, 53
1, 19646, Note_on_c, 0, 61, 59
1, 19648, Note_on_c, 0, 49, 62
1, 19654, Control_c, 0, 67, 82
1, 19679, Note_off_c, 0, 49, 65
1, 19698, Note_on_c, 0, 64, 55
1, 19699, Control_c, 0, 67, 81
1, 19726, Note_off_c, 0, 61, 62
1, 19742, Note_off_c, 0, 64, 65
1, 19757, Note_on_c, 0, 67, 59
1, 19774, Note_on_c, 0, 46, 68
1, 19790, Note_off_c, 0, 67, 64
1, 19808, Note_off_c, 0, 46, 65
1, 19818, Note_on_c, 0, 61, 60
1, 19848, Control_c, 0, 67, 81
1, 19862, Control_c, 0, 67, 80
1, 19885, Note_on_c, 0, 64, 59
1, 19888, Note_off_c, 0, 61, 52
1, 19917, Note_on_c, 0, 49, 68
1, 19945, Note_off_c, 0, 49, 65
1, 19966, Note_on_c, 0, 67, 54
1, 19973, Control_c, 0, 67, 80
1, 19976, Note_off_c, 0, 64, 58
1, 19988, Control_c, 0, 67, 79
1, 20015, Note_on_c, 0, 73, 68
1, 20024, Note_off_c, 0, 67, 62
1, 20047, Note_on_c, 0, 46, 70
1, 20048, Control_c, 0, 67, 79
1, 20069, Note_off_c, 0, 73, 61
1, 20077, Control_c, 0, 67, 78
1, 20077, Note_off_c, 0, 46, 64
1, 20092, Control_c, 0, 67, 77
1, 20097, Note_on_c, 0, 64, 56
1, 20143, Note_off_c, 0, 64, 56
1, 20151, Note_on_c, 0, 67, 62
1, 20185, Note_on_c, 0, 49, 63
1, 20213, Note_on_c, 0, 73, 66
1, 20215, Note_off_c, 0, 49, 64
1, 20220, Note_off_c, 0, 67, 62
1, 20270, Control_c, 0, 67, 77
1, 20285, Control_c, 0, 67, 76
1, 20286, Note_on_c, 0, 76, 78
1, 20289, Note_off_c, 0, 73, 63
1, 20300, Control_c, 0, 67, 76
1, 20302, Note_on_c, 0, 46, 75
1, 20315, Control_c, 0, 67, 75
1, 20328, Note_off_c, 0, 46, 67
1, 20330, Control_c, 0, 67, 75
1, 20346, Note_off_c, 0, 76, 60
1, 20352, Note_on_c, 0, 67, 63
1, 20413, Note_off_c, 0, 67, 58
1, 20422, Note_on_c, 0, 73, 66
1, 20423, Note_on_c, 0, 49, 73
1, 20433, Control_c, 0, 67, 75
1, 20452, Note_off_c, 0, 49, 65
1, 20462, Control_c, 0, 67, 76
1, 20471, Note_on_c, 0, 76, 63
1, 20489, Note_off_c, 0, 73, 64
1, 20492, Control_c, 0, 67, 74
1, 20508, Control_c, 0, 67, 72
1, 20523, Control_c, 0, 67, 65
1, 20526, Note_off_c, 0, 76, 61
1, 20532, Note_on_c, 0, 79, 72
1, 20538, Control_c, 0, 67, 56
1, 20548, Note_on_c, 0, 46, 82
1, 20553, Control_c, 0, 67, 50
1, 20567, Control_c, 0, 67, 47
1, 20570, Note_off_c, 0, 79, 61
1, 20577, Note_off_c, 0, 46, 66
1, 20582, Control_c, 0, 67, 46
1, 20597, Control_c, 0, 67, 45
1, 20605, Note_on_c, 0, 73, 55
1, 20649, Control_c, 0, 67, 46
1, 20664, Control_c, 0, 67, 47
1, 20665, Note_on_c, 0, 76, 72
1, 20678, Note_on_c, 0, 49, 77
1, 20679, Control_c, 0, 67, 48
1, 20691, Note_off_c, 0, 73, 56
1, 20693, Control_c, 0, 67, 48
1, 20708, Control_c, 0, 67, 48
1, 20714, Note_off_c, 0, 49, 63
1, 20723, Control_c, 0, 67, 45
1, 20733, Note_on_c, 0, 79, 61
1, 20738, Control_c, 0, 67, 38
1, 20753, Control_c, 0, 67, 15
1, 20763, Note_off_c, 0, 76, 61
1, 20767, Control_c, 0, 67, 0
1, 20785, Note_on_c, 0, 85, 78
1, 20789, Note_on_c, 0, 46, 79
1, 20798, Note_off_c, 0, 79, 61
1, 20828, Note_off_c, 0, 46, 62
1, 20850, Note_off_c, 0, 85, 64
1, 20858, Note_on_c, 0, 76, 63
1, 20899, Note_on_c, 0, 49, 74
1, 20913, Note_on_c, 0, 79, 72
1, 20930, Note_off_c, 0, 49, 65
1, 20936, Note_off_c, 0, 76, 59
1, 20954, Note_off_c, 0, 79, 60
1, 20957, Note_on_c, 0, 85, 78
1, 20978, Note_off_c, 0, 85, 69
1, 21025, Note_on_c, 0, 88, 101
1, 21029, Note_on_c, 0, 46, 95
1, 21029, Note_on_c, 0, 76, 99
1, 21033, Note_on_c, 0, 34, 90
1, 21033, Control_c, 0, 64, 47
1, 21048, Control_c, 0, 64, 82
1, 21049, Note_off_c, 0, 46, 73
1, 21057, Note_off_c, 0, 34, 66
1, 21060, Note_off_c, 0, 76, 62
1, 21063, Control_c, 0, 64, 122
1, 21066, Note_off_c, 0, 88, 69
1, 21078, Control_c, 0, 64, 127
1, 21148, Note_on_c, 0, 88, 83
1, 21155, Note_on_c, 0, 76, 79
1, 21164, Note_on_c, 0, 49, 77
1, 21165, Note_off_c, 0, 88, 74
1, 21176, Note_off_c, 0, 76, 69
1, 21178, Poly_aftertouch_c, 0, 34, 127
1, 21189, Note_off_c, 0, 49, 66
1, 21212, Poly_aftertouch_c, 0, 34, 0
1, 21270, Control_c, 0, 64, 99
1, 21285, Control_c, 0, 64, 70
1, 21300, Control_c, 0, 64, 0
1, 21332, Note_on_c, 0, 31, 75
1, 21360, Note_off_c, 0, 31, 64
1, 21360, Control_c, 0, 64, 37
1, 21360, Control_c, 0, 67, 8
1, 21375, Control_c, 0, 64, 41
1, 21397, Control_c, 0, 64, 40
1, 21412, Control_c, 0, 64, 41
1, 21419, Note_on_c, 0, 51, 65
1, 21427, Control_c, 0, 64, 44
1, 21427, Control_c, 0, 67, 0
1, 21441, Control_c, 0, 64, 48
1, 21456, Control_c, 0, 64, 50
1, 21490, Note_on_c, 0, 58, 56
1, 21501, Control_c, 0, 64, 52
1, 21515, Control_c, 0, 64, 55
1, 21518, Note_off_c, 0, 51, 64
1, 21530, Control_c, 0, 64, 56
1, 21545, Control_c, 0, 64, 50
1, 21557, Note_off_c, 0, 58, 62
1, 21558, Note_on_c, 0, 61, 63
1, 21560, Control_c, 0, 64, 31
1, 21575, Control_c, 0, 64, 0
1, 21592, Note_off_c, 0, 61, 64
1, 21594, Note_on_c, 0, 63, 62
1, 21618, Note_on_c, 0, 43, 68
1, 21619, Control_c, 0, 64, 24
1, 21633, Control_c, 0, 64, 46
1, 21648, Control_c, 0, 64, 55
1, 21649, Note_off_c, 0, 63, 59
1, 21657, Note_off_c, 0, 43, 62
1, 21663, Control_c, 0, 64, 57
1, 21674, Note_on_c, 0, 58, 52
1, 21678, Control_c, 0, 64, 48
1, 21693, Control_c, 0, 64, 0
1, 21701, Note_off_c, 0, 58, 57
1, 21726, Note_on_c, 0, 61, 64
1, 21730, Note_on_c, 0, 51, 71
1, 21767, Control_c, 0, 64, 40
1, 21774, Note_off_c, 0, 51, 63
1, 21774, Note_off_c, 0, 61, 58
1, 21777, Note_on_c, 0, 63, 62
1, 21781, Control_c, 0, 64, 49
1, 21796, Control_c, 0, 64, 53
1, 21811, Control_c, 0, 64, 56
1, 21826, Control_c, 0, 64, 58
1, 21840, Control_c, 0, 64, 56
1, 21846, Note_off_c, 0, 63, 63
1, 21854, Note_on_c, 0, 70, 74
1, 21855, Control_c, 0, 64, 49
1, 21860, Note_on_c, 0, 43, 73
1, 21870, Control_c, 0, 64, 33
1, 21885, Control_c, 0, 64, 33
1, 21900, Control_c, 0, 64, 44
1, 21906, Note_off_c, 0, 43, 63
1, 21914, Control_c, 0, 64, 53
1, 21928, Note_off_c, 0, 70, 62
1, 21929, Note_on_c, 0, 61, 64
1, 21929, Control_c, 0, 64, 59
1, 21944, Control_c, 0, 64, 61
1, 21973, Control_c, 0, 64, 62
1, 21985, Note_on_c, 0, 63, 68
1, 21987, Note_off_c, 0, 61, 60
1, 21988, Control_c, 0, 64, 63
1, 21996, Note_on_c, 0, 51, 71
1, 22003, Control_c, 0, 64, 67
1, 22018, Control_c, 0, 64, 72
1, 22033, Control_c, 0, 64, 77
1, 22033, Note_off_c, 0, 51, 61
1, 22048, Control_c, 0, 64, 79
1, 22055, Note_off_c, 0, 63, 63
1, 22060, Note_on_c, 0, 70, 72
1, 22063, Control_c, 0, 64, 74
1, 22078, Control_c, 0, 64, 66
1, 22092, Control_c, 0, 64, 54
1, 22108, Control_c, 0, 64, 37
1, 22110, Note_on_c, 0, 73, 75
1, 22117, Note_off_c, 0, 70, 62
1, 22120, Note_on_c, 0, 43, 74
1, 22123, Control_c, 0, 64, 42
1, 22145, Control_c, 0, 64, 55
1, 22160, Control_c, 0, 64, 63
1, 22175, Control_c, 0, 64, 66
1, 22178, Note_on_c, 0, 63, 68
1, 22182, Note_off_c, 0, 43, 60
1, 22187, Note_off_c, 0, 73, 62
1, 22190, Control_c, 0, 64, 69
1, 22205, Control_c, 0, 64, 71
1, 22219, Control_c, 0, 64, 73
1, 22234, Control_c, 0, 64, 77
1, 22244, Note_on_c, 0, 70, 66
1, 22246, Note_off_c, 0, 63, 61
1, 22249, Control_c, 0, 64, 83
1, 22257, Note_on_c, 0, 51, 75
1, 22263, Control_c, 0, 64, 89
1, 22278, Control_c, 0, 64, 95
1, 22293, Control_c, 0, 64, 98
1, 22303, Note_off_c, 0, 51, 59
1, 22308, Control_c, 0, 64, 97
1, 22316, Note_on_c, 0, 73, 73
1, 22323, Control_c, 0, 64, 85
1, 22334, Note_off_c, 0, 70, 63
1, 22337, Control_c, 0, 64, 69
1, 22352, Control_c, 0, 64, 31
1, 22367, Control_c, 0, 64, 0
1, 22368, Note_on_c, 0, 75, 78
1, 22370, Note_off_c, 0, 73, 62
1, 22379, Note_on_c, 0, 43, 84
1, 22397, Control_c, 0, 64, 53
1, 22411, Control_c, 0, 64, 65
1, 22426, Control_c, 0, 64, 73
1, 22440, Note_off_c, 0, 43, 62
1, 22441, Control_c, 0, 64, 81
1, 22446, Note_on_c, 0, 70, 68
1, 22447, Note_off_c, 0, 75, 61
1, 22456, Control_c, 0, 64, 85
1, 22471, Control_c, 0, 64, 88
1, 22486, Control_c, 0, 64, 91
1, 22500, Note_on_c, 0, 73, 74
1, 22501, Control_c, 0, 64, 96
1, 22504, Note_off_c, 0, 70, 63
1, 22510, Note_on_c, 0, 51, 79
1, 22516, Control_c, 0, 64, 107
1, 22530, Control_c, 0, 64, 127
1, 22551, Note_on_c, 0, 75, 79
1, 22559, Note_off_c, 0, 51, 60
1, 22571, Note_off_c, 0, 73, 57
1, 22589, Control_c, 0, 64, 99
1, 22604, Control_c, 0, 64, 80
1, 22614, Note_off_c, 0, 75, 59
1, 22618, Note_on_c, 0, 82, 85
1, 22619, Control_c, 0, 64, 66
1, 22631, Note_on_c, 0, 43, 83
1, 22634, Control_c, 0, 64, 57
1, 22649, Control_c, 0, 64, 60
1, 22663, Control_c, 0, 64, 66
1, 22678, Control_c, 0, 64, 75
1, 22689, Note_on_c, 0, 73, 71
1, 22692, Note_off_c, 0, 43, 63
1, 22693, Control_c, 0, 64, 87
1, 22703, Note_off_c, 0, 82, 64
1, 22708, Control_c, 0, 64, 101
1, 22723, Control_c, 0, 64, 122
1, 22737, Control_c, 0, 64, 127
1, 22750, Note_on_c, 0, 75, 70
1, 22752, Note_on_c, 0, 51, 78
1, 22772, Note_off_c, 0, 73, 54
1, 22812, Note_off_c, 0, 51, 60
1, 22814, Note_on_c, 0, 82, 80
1, 22840, Note_off_c, 0, 75, 63
1, 22856, Control_c, 0, 64, 96
1, 22870, Control_c, 0, 64, 78
1, 22885, Note_off_c, 0, 82, 59
1, 22893, Control_c, 0, 64, 66
1, 22895, Note_on_c, 0, 43, 89
1, 22897, Note_on_c, 0, 85, 88
1, 22909, Control_c, 0, 64, 62
1, 22924, Control_c, 0, 64, 67
1, 22939, Control_c, 0, 64, 76
1, 22954, Control_c, 0, 64, 91
1, 22960, Note_on_c, 0, 82, 77
1, 22968, Control_c, 0, 64, 118
1, 22983, Control_c, 0, 64, 127
1, 23017, Note_off_c, 0, 43, 55
1, 23024, Note_on_c, 0, 51, 81
1, 23025, Note_on_c, 0, 75, 78
1, 23027, Note_off_c, 0, 85, 63
1, 23049, Note_off_c, 0, 82, 64
1, 23083, Note_on_c, 0, 73, 78
1, 23088, Note_off_c, 0, 51, 62
1, 23095, Note_off_c, 0, 75, 55
1, 23131, Control_c, 0, 64, 91
1, 23133, Note_off_c, 0, 73, 60
1, 23146, Control_c, 0, 64, 72
1, 23157, Note_on_c, 0, 43, 84
1, 23160, Control_c, 0, 64, 58
1, 23163, Note_on_c, 0, 82, 82
1, 23175, Control_c, 0, 64, 54
1, 23190, Control_c, 0, 64, 63
1, 23204, Control_c, 0, 64, 79
1, 23219, Control_c, 0, 64, 107
1, 23227, Note_off_c, 0, 43, 61
1, 23228, Note_on_c, 0, 75, 80
1, 23234, Control_c, 0, 64, 127
1, 23248, Poly_aftertouch_c, 0, 80, 127
1, 23259, Note_on_c, 0, 51, 77
1, 23270, Note_off_c, 0, 82, 64
1, 23271, Poly_aftertouch_c, 0, 80, 0
1, 23288, Note_off_c, 0, 51, 60
1, 23296, Note_off_c, 0, 75, 64
1, 23301, Note_on_c, 0, 73, 74
1, 23339, Note_off_c, 0, 73, 56
1, 23353, Note_on_c, 0, 70, 70
1, 23368, Control_c, 0, 67, 10
1, 23381, Note_off_c, 0, 70, 63
1, 23383, Control_c, 0, 67, 15
1, 23398, Control_c, 0, 67, 20
1, 23412, Control_c, 0, 67, 27
1, 23427, Control_c, 0, 67, 35
1, 23442, Control_c, 0, 64, 95
1, 23442, Control_c, 0, 67, 42
1, 23457, Control_c, 0, 64, 72
1, 23457, Control_c, 0, 67, 50
1, 23472, Control_c, 0, 64, 15
1, 23472, Control_c, 0, 67, 60
1, 23486, Control_c, 0, 64, 0
1, 23486, Control_c, 0, 67, 71
1, 23501, Control_c, 0, 67, 81
1, 23516, Control_c, 0, 67, 90
1, 23523, Note_on_c, 0, 71, 64
1, 23526, Note_on_c, 0, 44, 48
1, 23531, Control_c, 0, 67, 100
1, 23546, Control_c, 0, 67, 105
1, 23560, Control_c, 0, 67, 107
1, 23619, Control_c, 0, 67, 107
1, 23642, Control_c, 0, 67, 106
1, 23657, Control_c, 0, 64, 46
1, 23657, Control_c, 0, 67, 104
1, 23658, Note_off_c, 0, 71, 65
1, 23665, Note_off_c, 0, 44, 52
1, 23672, Control_c, 0, 64, 63
1, 23672, Control_c, 0, 67, 102
1, 23675, Note_on_c, 0, 51, 35
1, 23686, Control_c, 0, 64, 70
1, 23686, Control_c, 0, 67, 99
1, 23701, Control_c, 0, 64, 74
1, 23701, Control_c, 0, 67, 97
1, 23711, Note_off_c, 0, 51, 55
1, 23717, Control_c, 0, 64, 77
1, 23717, Control_c, 0, 67, 93
1, 23732, Control_c, 0, 64, 81
1, 23732, Control_c, 0, 67, 90
1, 23739, Note_on_c, 0, 47, 48
1, 23747, Control_c, 0, 64, 85
1, 23747, Control_c, 0, 67, 89
1, 23762, Control_c, 0, 64, 89
1, 23762, Control_c, 0, 67, 90
1, 23777, Control_c, 0, 64, 90
1, 23777, Control_c, 0, 67, 92
1, 23791, Control_c, 0, 67, 94
1, 23821, Control_c, 0, 67, 95
1, 23824, Note_on_c, 0, 51, 38
1, 23836, Control_c, 0, 64, 89
1, 23851, Control_c, 0, 64, 87
1, 23851, Control_c, 0, 67, 95
1, 23866, Control_c, 0, 64, 82
1, 23866, Control_c, 0, 67, 96
1, 23867, Note_off_c, 0, 47, 33
1, 23881, Control_c, 0, 64, 76
1, 23881, Control_c, 0, 67, 96
1, 23896, Control_c, 0, 64, 67
1, 23908, Note_on_c, 0, 44, 42
1, 23910, Control_c, 0, 64, 46
1, 23912, Note_off_c, 0, 51, 40
1, 23914, Note_on_c, 0, 75, 64
1, 23925, Control_c, 0, 64, 0
1, 24014, Control_c, 0, 64, 32
1, 24025, Note_on_c, 0, 51, 38
1, 24028, Control_c, 0, 64, 48
1, 24040, Note_off_c, 0, 44, 52
1, 24043, Control_c, 0, 64, 59
1, 24043, Control_c, 0, 67, 96
1, 24058, Control_c, 0, 64, 65
1, 24058, Control_c, 0, 67, 95
1, 24069, Note_off_c, 0, 51, 59
1, 24073, Control_c, 0, 64, 69
1, 24088, Control_c, 0, 64, 71
1, 24102, Control_c, 0, 64, 73
1, 24105, Note_on_c, 0, 47, 42
1, 24117, Control_c, 0, 64, 75
1, 24117, Control_c, 0, 67, 95
1, 24132, Control_c, 0, 64, 78
1, 24147, Control_c, 0, 64, 81
1, 24158, Note_off_c, 0, 47, 57
1, 24162, Control_c, 0, 64, 80
1, 24176, Control_c, 0, 64, 76
1, 24180, Note_on_c, 0, 51, 38
1, 24191, Control_c, 0, 64, 71
1, 24191, Control_c, 0, 67, 94
1, 24206, Control_c, 0, 64, 68
1, 24206, Control_c, 0, 67, 94
1, 24212, Note_off_c, 0, 51, 54
1, 24218, Note_on_c, 0, 44, 50
1, 24221, Control_c, 0, 67, 93
1, 24236, Control_c, 0, 64, 71
1, 24236, Control_c, 0, 67, 92
1, 24251, Control_c, 0, 64, 74
1, 24251, Control_c, 0, 67, 91
1, 24266, Control_c, 0, 64, 76
1, 24289, Note_on_c, 0, 51, 55
1, 24325, Control_c, 0, 67, 91
1, 24325, Note_off_c, 0, 44, 37
1, 24329, Note_off_c, 0, 51, 62
1, 24340, Control_c, 0, 64, 74
1, 24340, Control_c, 0, 67, 90
1, 24354, Control_c, 0, 64, 70
1, 24361, Note_on_c, 0, 47, 45
1, 24369, Control_c, 0, 64, 64
1, 24391, Control_c, 0, 64, 55
1, 24391, Control_c, 0, 67, 89
1, 24406, Control_c, 0, 64, 52
1, 24406, Control_c, 0, 67, 86
1, 24421, Note_off_c, 0, 47, 61
1, 24421, Control_c, 0, 64, 58
1, 24421, Control_c, 0, 67, 79
1, 24435, Control_c, 0, 64, 63
1, 24435, Control_c, 0, 67, 66
1, 24441, Note_on_c, 0, 51, 44
1, 24450, Control_c, 0, 64, 67
1, 24450, Control_c, 0, 67, 55
1, 24465, Control_c, 0, 64, 70
1, 24465, Control_c, 0, 67, 46
1, 24471, Note_on_c, 0, 44, 47
1, 24473, Note_off_c, 0, 51, 55
1, 24480, Control_c, 0, 64, 72
1, 24480, Control_c, 0, 67, 38
1, 24481, Note_on_c, 0, 71, 68
1, 24495, Control_c, 0, 64, 73
1, 24495, Control_c, 0, 67, 30
1, 24511, Control_c, 0, 64, 75
1, 24511, Control_c, 0, 67, 24
1, 24518, Note_off_c, 0, 75, 61
1, 24525, Control_c, 0, 64, 77
1, 24525, Control_c, 0, 67, 22
1, 24540, Control_c, 0, 64, 81
1, 24540, Control_c, 0, 67, 22
1, 24555, Control_c, 0, 64, 83
1, 24555, Control_c, 0, 67, 25
1, 24570, Control_c, 0, 64, 84
1, 24570, Control_c, 0, 67, 27
1, 24585, Control_c, 0, 67, 28
1, 24590, Note_on_c, 0, 51, 38
1, 24600, Control_c, 0, 67, 28
1, 24605, Note_off_c, 0, 44, 57
1, 24629, Control_c, 0, 67, 29
1, 24644, Control_c, 0, 67, 31
1, 24648, Note_off_c, 0, 51, 57
1, 24652, Note_on_c, 0, 47, 50
1, 24659, Control_c, 0, 67, 34
1, 24662, Note_off_c, 0, 71, 63
1, 24674, Control_c, 0, 67, 36
1, 24676, Note_on_c, 0, 68, 66
1, 24689, Control_c, 0, 67, 38
1, 24704, Control_c, 0, 67, 39
1, 24719, Control_c, 0, 67, 39
1, 24724, Note_off_c, 0, 47, 61
1, 24725, Note_off_c, 0, 68, 60
1, 24757, Note_on_c, 0, 51, 51
1, 24763, Note_on_c, 0, 67, 67
1, 24786, Note_off_c, 0, 51, 55
1, 24792, Control_c, 0, 67, 40
1, 24805, Note_off_c, 0, 67, 57
1, 24807, Control_c, 0, 64, 79
1, 24807, Control_c, 0, 67, 40
1, 24820, Note_on_c, 0, 46, 54
1, 24821, Note_on_c, 0, 68, 71
1, 24822, Control_c, 0, 64, 64
1, 24822, Control_c, 0, 67, 42
1, 24837, Control_c, 0, 64, 17
1, 24837, Control_c, 0, 67, 43
1, 24844, Note_off_c, 0, 68, 69
1, 24851, Control_c, 0, 64, 0
1, 24851, Control_c, 0, 67, 44
1, 24868, Note_on_c, 0, 51, 52
1, 24868, Note_off_c, 0, 46, 61
1, 24878, Note_on_c, 0, 70, 72
1, 24881, Control_c, 0, 67, 43
1, 24896, Control_c, 0, 64, 35
1, 24911, Control_c, 0, 64, 45
1, 24911, Control_c, 0, 67, 44
1, 24923, Note_on_c, 0, 68, 61
1, 24926, Note_off_c, 0, 51, 56
1, 24942, Note_off_c, 0, 70, 61
1, 24955, Control_c, 0, 64, 47
1, 24955, Control_c, 0, 67, 43
1, 24962, Note_on_c, 0, 49, 53
1, 24970, Control_c, 0, 64, 52
1, 24970, Control_c, 0, 67, 43
1, 24984, Control_c, 0, 64, 55
1, 24999, Control_c, 0, 64, 56
1, 25033, Note_off_c, 0, 49, 58
1, 25044, Control_c, 0, 64, 55
1, 25048, Note_on_c, 0, 51, 51
1, 25058, Control_c, 0, 64, 49
1, 25073, Control_c, 0, 64, 0
1, 25091, Note_off_c, 0, 51, 60
1, 25103, Control_c, 0, 67, 42
1, 25118, Control_c, 0, 67, 41
1, 25140, Control_c, 0, 67, 41
1, 25143, Note_on_c, 0, 46, 45
1, 25143, Note_on_c, 0, 67, 57
1, 25155, Control_c, 0, 64, 10
1, 25157, Note_off_c, 0, 68, 62
1, 25170, Control_c, 0, 64, 45
1, 25184, Control_c, 0, 64, 53
1, 25199, Control_c, 0, 64, 56
1, 25200, Note_off_c, 0, 46, 60
1, 25204, Note_on_c, 0, 51, 50
1, 25214, Control_c, 0, 64, 59
1, 25214, Control_c, 0, 67, 40
1, 25229, Control_c, 0, 64, 63
1, 25244, Control_c, 0, 64, 65
1, 25244, Control_c, 0, 67, 40
1, 25250, Note_off_c, 0, 51, 62
1, 25258, Control_c, 0, 64, 67
1, 25273, Control_c, 0, 64, 69
1, 25279, Note_on_c, 0, 49, 50
1, 25288, Control_c, 0, 64, 71
1, 25304, Control_c, 0, 64, 73
1, 25319, Control_c, 0, 64, 74
1, 25342, Note_off_c, 0, 49, 59
1, 25348, Control_c, 0, 64, 74
1, 25359, Note_on_c, 0, 51, 53
1, 25363, Control_c, 0, 67, 39
1, 25378, Control_c, 0, 67, 38
1, 25392, Note_off_c, 0, 51, 63
1, 25393, Control_c, 0, 67, 37
1, 25407, Control_c, 0, 64, 75
1, 25407, Control_c, 0, 67, 36
1, 25416, Note_on_c, 0, 46, 54
1, 25422, Control_c, 0, 64, 76
1, 25422, Control_c, 0, 67, 36
1, 25437, Control_c, 0, 64, 76
1, 25437, Control_c, 0, 67, 35
1, 25452, Control_c, 0, 64, 76
1, 25452, Control_c, 0, 67, 35
1, 25458, Note_off_c, 0, 67, 63
1, 25467, Control_c, 0, 64, 73
1, 25476, Note_on_c, 0, 51, 57
1, 25478, Note_off_c, 0, 46, 57
1, 25482, Control_c, 0, 64, 69
1, 25497, Control_c, 0, 64, 66
1, 25512, Control_c, 0, 64, 65
1, 25526, Control_c, 0, 64, 66
1, 25529, Note_off_c, 0, 51, 57
1, 25541, Control_c, 0, 64, 68
1, 25553, Note_on_c, 0, 49, 60
1, 25556, Control_c, 0, 64, 69
1, 25571, Control_c, 0, 64, 71
1, 25572, Note_on_c, 0, 67, 77
1, 25586, Control_c, 0, 64, 74
1, 25600, Control_c, 0, 64, 77
1, 25614, Note_off_c, 0, 49, 61
1, 25615, Control_c, 0, 64, 82
1, 25630, Control_c, 0, 64, 85
1, 25631, Note_on_c, 0, 51, 66
1, 25645, Control_c, 0, 64, 87
1, 25645, Control_c, 0, 67, 35
1, 25660, Control_c, 0, 64, 86
1, 25660, Control_c, 0, 67, 36
1, 25674, Control_c, 0, 64, 77
1, 25674, Control_c, 0, 67, 36
1, 25679, Note_off_c, 0, 51, 55
1, 25689, Control_c, 0, 64, 67
1, 25704, Control_c, 0, 64, 57
1, 25704, Control_c, 0, 67, 36
1, 25710, Note_on_c, 0, 46, 53
1, 25719, Control_c, 0, 64, 52
1, 25719, Control_c, 0, 67, 35
1, 25730, Note_on_c, 0, 75, 82
1, 25734, Control_c, 0, 64, 58
1, 25734, Control_c, 0, 67, 34
1, 25745, Note_off_c, 0, 67, 62
1, 25748, Control_c, 0, 64, 64
1, 25763, Control_c, 0, 64, 71
1, 25763, Control_c, 0, 67, 35
1, 25778, Control_c, 0, 64, 75
1, 25778, Control_c, 0, 67, 35
1, 25779, Note_on_c, 0, 51, 57
1, 25793, Control_c, 0, 64, 77
1, 25822, Note_off_c, 0, 51, 62
1, 25822, Control_c, 0, 67, 36
1, 25837, Control_c, 0, 67, 35
1, 25852, Note_on_c, 0, 49, 57
1, 25867, Control_c, 0, 67, 35
1, 25870, Note_off_c, 0, 46, 37
1, 25934, Control_c, 0, 64, 76
1, 25934, Control_c, 0, 67, 36
1, 25941, Note_on_c, 0, 51, 53
1, 25949, Control_c, 0, 64, 72
1, 25949, Control_c, 0, 67, 36
1, 25959, Note_on_c, 0, 67, 69
1, 25959, Note_off_c, 0, 49, 37
1, 25963, Control_c, 0, 64, 56
1, 25978, Control_c, 0, 64, 0
1, 25978, Control_c, 0, 67, 37
1, 25985, Poly_aftertouch_c, 0, 44, 127
1, 26003, Note_off_c, 0, 51, 56
1, 26022, Control_c, 0, 67, 38
1, 26024, Note_on_c, 0, 47, 51
1, 26024, Note_off_c, 0, 67, 58
1, 26024, Note_off_c, 0, 75, 61
1, 26030, Note_on_c, 0, 70, 73
1, 26067, Control_c, 0, 67, 38
1, 26093, Note_off_c, 0, 47, 62
1, 26111, Control_c, 0, 67, 38
1, 26123, Note_on_c, 0, 51, 47
1, 26126, Control_c, 0, 64, 30
1, 26141, Control_c, 0, 64, 43
1, 26156, Control_c, 0, 64, 49
1, 26158, Note_off_c, 0, 51, 58
1, 26171, Control_c, 0, 64, 53
1, 26185, Control_c, 0, 64, 54
1, 26185, Control_c, 0, 67, 38
1, 26193, Note_on_c, 0, 47, 40
1, 26200, Control_c, 0, 64, 53
1, 26227, Poly_aftertouch_c, 0, 44, 0
1, 26244, Note_off_c, 0, 47, 59
1, 26245, Control_c, 0, 64, 54
1, 26260, Note_on_c, 0, 51, 44
1, 26260, Control_c, 0, 64, 55
1, 26275, Control_c, 0, 64, 55
1, 26304, Note_off_c, 0, 51, 59
1, 26334, Control_c, 0, 64, 53
1, 26349, Control_c, 0, 64, 48
1, 26353, Note_on_c, 0, 47, 40
1, 26358, Note_on_c, 0, 68, 47
1, 26364, Control_c, 0, 64, 45
1, 26378, Control_c, 0, 64, 46
1, 26391, Note_off_c, 0, 70, 56
1, 26393, Control_c, 0, 64, 49
1, 26404, Note_off_c, 0, 47, 55
1, 26408, Control_c, 0, 64, 54
1, 26414, Note_on_c, 0, 51, 43
1, 26422, Control_c, 0, 64, 58
1, 26437, Control_c, 0, 64, 61
1, 26452, Control_c, 0, 64, 62
1, 26460, Note_off_c, 0, 51, 59
1, 26467, Control_c, 0, 64, 59
1, 26482, Control_c, 0, 64, 50
1, 26496, Control_c, 0, 64, 33
1, 26496, Control_c, 0, 67, 38
1, 26499, Note_on_c, 0, 47, 40
1, 26511, Control_c, 0, 64, 31
1, 26511, Control_c, 0, 67, 37
1, 26526, Control_c, 0, 64, 48
1, 26526, Control_c, 0, 67, 37
1, 26541, Control_c, 0, 64, 59
1, 26543, Note_off_c, 0, 47, 60
1, 26555, Control_c, 0, 64, 66
1, 26564, Note_on_c, 0, 51, 50
1, 26570, Control_c, 0, 64, 69
1, 26585, Control_c, 0, 64, 70
1, 26600, Control_c, 0, 64, 67
1, 26604, Note_off_c, 0, 51, 60
1, 26615, Control_c, 0, 64, 64
1, 26615, Control_c, 0, 67, 36
1, 26638, Note_on_c, 0, 47, 53
1, 26652, Control_c, 0, 64, 66
1, 26667, Control_c, 0, 64, 68
1, 26678, Note_off_c, 0, 68, 62
1, 26682, Control_c, 0, 64, 68
1, 26685, Note_off_c, 0, 47, 63
1, 26697, Control_c, 0, 64, 66
1, 26700, Note_on_c, 0, 51, 61
1, 26711, Control_c, 0, 64, 63
1, 26711, Control_c, 0, 67, 37
1, 26726, Control_c, 0, 64, 60
1, 26745, Note_off_c, 0, 51, 62
1, 26755, Control_c, 0, 64, 62
1, 26755, Control_c, 0, 67, 36
1, 26760, Note_on_c, 0, 68, 61
1, 26770, Control_c, 0, 64, 63
1, 26772, Note_on_c, 0, 47, 60
1, 26785, Control_c, 0, 64, 62
1, 26800, Control_c, 0, 64, 57
1, 26800, Control_c, 0, 67, 37
1, 26815, Control_c, 0, 64, 46
1, 26815, Control_c, 0, 67, 37
1, 26818, Note_off_c, 0, 47, 63
1, 26830, Control_c, 0, 64, 42
1, 26842, Note_on_c, 0, 51, 60
1, 26845, Control_c, 0, 64, 49
1, 26860, Control_c, 0, 64, 58
1, 26875, Control_c, 0, 64, 64
1, 26875, Control_c, 0, 67, 37
1, 26889, Note_off_c, 0, 51, 58
1, 26890, Control_c, 0, 64, 65
1, 26906, Control_c, 0, 64, 62
1, 26908, Note_on_c, 0, 47, 59
1, 26910, Note_on_c, 0, 75, 76
1, 26921, Control_c, 0, 64, 55
1, 26921, Control_c, 0, 67, 38
1, 26933, Note_off_c, 0, 68, 63
1, 26935, Control_c, 0, 64, 48
1, 26950, Control_c, 0, 64, 49
1, 26957, Note_off_c, 0, 47, 60
1, 26965, Control_c, 0, 64, 56
1, 26979, Control_c, 0, 64, 62
1, 26987, Note_on_c, 0, 51, 57
1, 26994, Control_c, 0, 64, 64
1, 26994, Control_c, 0, 67, 37
1, 27009, Control_c, 0, 64, 63
1, 27024, Control_c, 0, 64, 60
1, 27024, Control_c, 0, 67, 38
1, 27039, Control_c, 0, 64, 59
1, 27041, Note_off_c, 0, 51, 54
1, 27053, Control_c, 0, 64, 60
1, 27068, Control_c, 0, 64, 61
1, 27073, Note_on_c, 0, 47, 52
1, 27083, Control_c, 0, 64, 59
1, 27098, Control_c, 0, 64, 31
1, 27113, Control_c, 0, 64, 0
1, 27115, Note_off_c, 0, 47, 62
1, 27138, Note_on_c, 0, 68, 61
1, 27149, Note_on_c, 0, 51, 58
1, 27172, Control_c, 0, 64, 50
1, 27187, Control_c, 0, 64, 55
1, 27193, Note_off_c, 0, 51, 56
1, 27199, Note_off_c, 0, 75, 56
1, 27202, Control_c, 0, 64, 44
1, 27208, Note_on_c, 0, 71, 68
1, 27216, Note_off_c, 0, 68, 57
1, 27217, Control_c, 0, 64, 24
1, 27218, Note_on_c, 0, 43, 59
1, 27232, Control_c, 0, 64, 20
1, 27246, Control_c, 0, 64, 35
1, 27246, Control_c, 0, 67, 37
1, 27261, Control_c, 0, 64, 48
1, 27261, Control_c, 0, 67, 37
1, 27270, Note_off_c, 0, 43, 60
1, 27276, Control_c, 0, 64, 53
1, 27285, Note_on_c, 0, 51, 56
1, 27291, Control_c, 0, 64, 46
1, 27291, Control_c, 0, 67, 37
1, 27306, Control_c, 0, 64, 27
1, 27306, Control_c, 0, 67, 38
1, 27320, Control_c, 0, 64, 0
1, 27335, Control_c, 0, 64, 20
1, 27335, Control_c, 0, 67, 37
1, 27348, Note_off_c, 0, 51, 55
1, 27350, Control_c, 0, 64, 42
1, 27365, Control_c, 0, 64, 56
1, 27365, Control_c, 0, 67, 37
1, 27374, Note_on_c, 0, 43, 54
1, 27387, Control_c, 0, 64, 61
1, 27401, Control_c, 0, 64, 57
1, 27401, Control_c, 0, 67, 37
1, 27416, Control_c, 0, 64, 47
1, 27419, Note_off_c, 0, 43, 59
1, 27431, Control_c, 0, 64, 37
1, 27440, Note_on_c, 0, 51, 42
1, 27446, Control_c, 0, 64, 39
1, 27461, Control_c, 0, 64, 47
1, 27476, Control_c, 0, 64, 56
1, 27491, Note_off_c, 0, 51, 57
1, 27491, Control_c, 0, 64, 57
1, 27491, Control_c, 0, 67, 37
1, 27506, Control_c, 0, 64, 51
1, 27510, Note_on_c, 0, 43, 52
1, 27518, Note_on_c, 0, 70, 59
1, 27521, Control_c, 0, 64, 33
1, 27521, Control_c, 0, 67, 37
1, 27533, Note_off_c, 0, 71, 55
1, 27535, Control_c, 0, 64, 0
1, 27555, Note_off_c, 0, 43, 59
1, 27565, Control_c, 0, 64, 34
1, 27579, Control_c, 0, 64, 54
1, 27590, Note_on_c, 0, 51, 44
1, 27594, Control_c, 0, 64, 60
1, 27609, Control_c, 0, 64, 55
1, 27624, Control_c, 0, 64, 31
1, 27631, Note_off_c, 0, 51, 59
1, 27639, Control_c, 0, 64, 0
1, 27639, Control_c, 0, 67, 38
1, 27655, Note_on_c, 0, 43, 57
1, 27683, Control_c, 0, 64, 45
1, 27699, Note_off_c, 0, 43, 60
1, 27699, Control_c, 0, 64, 58
1, 27714, Control_c, 0, 64, 56
1, 27714, Control_c, 0, 67, 37
1, 27725, Note_on_c, 0, 51, 55
1, 27729, Control_c, 0, 64, 35
1, 27744, Control_c, 0, 64, 0
1, 27744, Control_c, 0, 67, 38
1, 27758, Control_c, 0, 67, 37
1, 27764, Note_off_c, 0, 51, 60
1, 27788, Control_c, 0, 64, 44
1, 27793, Note_on_c, 0, 43, 54
1, 27802, Control_c, 0, 64, 60
1, 27817, Control_c, 0, 64, 62
1, 27828, Note_off_c, 0, 43, 60
1, 27832, Control_c, 0, 64, 53
1, 27833, Note_off_c, 0, 70, 60
1, 27844, Note_on_c, 0, 51, 64
1, 27847, Control_c, 0, 64, 0
1, 27847, Control_c, 0, 67, 38
1, 27892, Note_off_c, 0, 51, 55
1, 27906, Control_c, 0, 64, 47
1, 27921, Control_c, 0, 64, 58
1, 27926, Note_on_c, 0, 43, 49
1, 27936, Control_c, 0, 64, 52
1, 27950, Control_c, 0, 64, 0
1, 27950, Control_c, 0, 67, 38
1, 27953, Note_on_c, 0, 70, 62
1, 27962, Note_off_c, 0, 43, 58
1, 27978, Note_on_c, 0, 51, 51
1, 27995, Control_c, 0, 67, 38
1, 28010, Control_c, 0, 64, 46
1, 28022, Note_off_c, 0, 51, 59
1, 28024, Control_c, 0, 64, 57
1, 28039, Control_c, 0, 64, 53
1, 28048, Note_on_c, 0, 43, 62
1, 28054, Control_c, 0, 64, 22
1, 28054, Control_c, 0, 67, 38
1, 28069, Control_c, 0, 64, 0
1, 28075, Note_on_c, 0, 75, 67
1, 28081, Note_off_c, 0, 70, 60
1, 28084, Note_off_c, 0, 43, 61
1, 28084, Control_c, 0, 67, 38
1, 28099, Control_c, 0, 64, 12
1, 28099, Control_c, 0, 67, 37
1, 28106, Note_on_c, 0, 51, 60
1, 28121, Control_c, 0, 64, 41
1, 28121, Control_c, 0, 67, 37
1, 28136, Control_c, 0, 64, 48
1, 28150, Control_c, 0, 64, 41
1, 28153, Note_off_c, 0, 51, 60
1, 28165, Control_c, 0, 64, 34
1, 28165, Control_c, 0, 67, 37
1, 28178, Note_on_c, 0, 43, 60
1, 28180, Control_c, 0, 64, 36
1, 28195, Control_c, 0, 64, 42
1, 28209, Control_c, 0, 64, 47
1, 28209, Control_c, 0, 67, 38
1, 28219, Note_off_c, 0, 43, 61
1, 28224, Control_c, 0, 64, 47
1, 28224, Control_c, 0, 67, 38
1, 28232, Note_on_c, 0, 51, 64
1, 28239, Control_c, 0, 64, 12
1, 28254, Control_c, 0, 64, 0
1, 28254, Control_c, 0, 67, 35
1, 28269, Control_c, 0, 67, 31
1, 28284, Note_off_c, 0, 51, 59
1, 28284, Control_c, 0, 67, 20
1, 28287, Note_on_c, 0, 70, 57
1, 28288, Note_off_c, 0, 75, 58
1, 28299, Control_c, 0, 67, 0
1, 28304, Note_on_c, 0, 44, 57
1, 28329, Note_off_c, 0, 70, 63
1, 28337, Note_on_c, 0, 71, 65
1, 28365, Note_off_c, 0, 71, 66
1, 28367, Note_on_c, 0, 51, 62
1, 28379, Note_off_c, 0, 44, 51
1, 28435, Note_off_c, 0, 51, 61
1, 28453, Note_on_c, 0, 47, 54
1, 28493, Note_on_c, 0, 87, 62
1, 28507, Note_off_c, 0, 47, 62
1, 28525, Note_on_c, 0, 75, 47
1, 28536, Note_on_c, 0, 51, 49
1, 28573, Note_off_c, 0, 51, 55
1, 28598, Note_on_c, 0, 44, 47
1, 28654, Note_off_c, 0, 75, 62
1, 28659, Note_on_c, 0, 51, 59
1, 28665, Note_off_c, 0, 87, 61
1, 28704, Note_off_c, 0, 44, 53
1, 28726, Note_off_c, 0, 51, 62
1, 28746, Note_on_c, 0, 47, 48
1, 28770, Note_on_c, 0, 87, 62
1, 28771, Note_on_c, 0, 75, 57
1, 28817, Note_off_c, 0, 47, 60
1, 28843, Note_on_c, 0, 51, 46
1, 28883, Note_off_c, 0, 51, 55
1, 28897, Note_on_c, 0, 44, 62
1, 28940, Note_off_c, 0, 75, 61
1, 28947, Note_off_c, 0, 87, 61
1, 28961, Note_on_c, 0, 51, 62
1, 28997, Note_off_c, 0, 44, 55
1, 29020, Note_off_c, 0, 51, 60
1, 29035, Note_on_c, 0, 47, 57
1, 29051, Note_on_c, 0, 75, 70
1, 29052, Note_on_c, 0, 87, 74
1, 29075, Note_off_c, 0, 75, 68
1, 29078, Note_off_c, 0, 87, 67
1, 29090, Note_off_c, 0, 47, 61
1, 29118, Note_on_c, 0, 51, 50
1, 29158, Note_off_c, 0, 51, 61
1, 29167, Note_on_c, 0, 44, 58
1, 29192, Note_on_c, 0, 83, 77
1, 29198, Note_on_c, 0, 71, 68
1, 29214, Note_off_c, 0, 83, 70
1, 29215, Note_off_c, 0, 71, 67
1, 29247, Note_on_c, 0, 51, 49
1, 29291, Note_off_c, 0, 51, 63
1, 29297, Note_off_c, 0, 44, 56
1, 29303, Note_on_c, 0, 47, 60
1, 29322, Note_on_c, 0, 80, 79
1, 29324, Note_on_c, 0, 68, 76
1, 29348, Note_off_c, 0, 68, 70
1, 29360, Note_off_c, 0, 80, 50
1, 29363, Note_off_c, 0, 47, 62
1, 29385, Note_on_c, 0, 51, 59
1, 29422, Note_off_c, 0, 51, 59
1, 29452, Note_on_c, 0, 68, 81
1, 29454, Note_on_c, 0, 46, 66
1, 29458, Note_on_c, 0, 80, 79
1, 29477, Note_off_c, 0, 68, 69
1, 29488, Note_off_c, 0, 80, 57
1, 29536, Note_off_c, 0, 46, 62
1, 29543, Note_on_c, 0, 51, 53
1, 29584, Note_off_c, 0, 51, 64
1, 29602, Note_on_c, 0, 49, 58
1, 29609, Note_on_c, 0, 79, 69
1, 29634, Note_on_c, 0, 67, 49
1, 29694, Note_off_c, 0, 49, 59
1, 29697, Note_on_c, 0, 51, 53
1, 29722, Control_c, 0, 64, 35
1, 29737, Control_c, 0, 64, 42
1, 29739, Note_off_c, 0, 51, 60
1, 29752, Control_c, 0, 64, 34
1, 29756, Note_on_c, 0, 46, 60
1, 29767, Control_c, 0, 64, 0
1, 29811, Note_off_c, 0, 67, 62
1, 29811, Control_c, 0, 64, 29
1, 29814, Note_off_c, 0, 79, 59
1, 29826, Control_c, 0, 64, 49
1, 29832, Note_off_c, 0, 46, 61
1, 29833, Note_on_c, 0, 51, 56
1, 29841, Control_c, 0, 64, 58
1, 29855, Control_c, 0, 64, 60
1, 29882, Note_off_c, 0, 51, 60
1, 29899, Note_on_c, 0, 49, 63
1, 29900, Control_c, 0, 64, 60
1, 29903, Note_on_c, 0, 79, 73
1, 29915, Note_on_c, 0, 67, 64
1, 29915, Control_c, 0, 64, 58
1, 29929, Control_c, 0, 64, 51
1, 29944, Control_c, 0, 64, 0
1, 29967, Note_off_c, 0, 49, 60
1, 29980, Note_on_c, 0, 51, 53
1, 30016, Note_off_c, 0, 51, 61
1, 30019, Control_c, 0, 64, 27
1, 30034, Control_c, 0, 64, 52
1, 30035, Note_on_c, 0, 46, 65
1, 30048, Control_c, 0, 64, 59
1, 30063, Control_c, 0, 64, 59
1, 30077, Note_off_c, 0, 79, 57
1, 30078, Note_off_c, 0, 67, 61
1, 30107, Note_on_c, 0, 51, 61
1, 30107, Note_off_c, 0, 46, 63
1, 30159, Note_off_c, 0, 51, 57
1, 30177, Note_on_c, 0, 49, 70
1, 30181, Note_on_c, 0, 79, 78
1, 30183, Control_c, 0, 64, 56
1, 30197, Control_c, 0, 64, 41
1, 30201, Note_on_c, 0, 67, 48
1, 30206, Note_off_c, 0, 79, 64
1, 30212, Control_c, 0, 64, 0
1, 30227, Note_off_c, 0, 67, 59
1, 30238, Note_off_c, 0, 49, 56
1, 30259, Note_on_c, 0, 51, 63
1, 30307, Note_off_c, 0, 51, 55
1, 30317, Note_on_c, 0, 46, 64
1, 30318, Note_on_c, 0, 87, 74
1, 30320, Note_on_c, 0, 75, 72
1, 30333, Note_off_c, 0, 87, 67
1, 30344, Note_off_c, 0, 75, 66
1, 30401, Note_on_c, 0, 51, 54
1, 30443, Note_off_c, 0, 51, 62
1, 30451, Note_off_c, 0, 46, 34
1, 30458, Note_on_c, 0, 49, 66
1, 30465, Note_on_c, 0, 79, 76
1, 30467, Note_on_c, 0, 67, 71
1, 30485, Note_off_c, 0, 79, 69
1, 30492, Note_off_c, 0, 67, 64
1, 30511, Note_off_c, 0, 49, 57
1, 30537, Note_on_c, 0, 51, 61
1, 30593, Note_off_c, 0, 51, 61
1, 30606, Note_on_c, 0, 82, 84
1, 30607, Note_on_c, 0, 47, 61
1, 30607, Note_on_c, 0, 70, 79
1, 30627, Note_off_c, 0, 82, 69
1, 30629, Note_off_c, 0, 70, 70
1, 30671, Note_off_c, 0, 47, 61
1, 30695, Note_on_c, 0, 51, 57
1, 30737, Note_off_c, 0, 51, 62
1, 30746, Note_on_c, 0, 80, 71
1, 30750, Note_on_c, 0, 68, 62
1, 30752, Control_c, 0, 64, 24
1, 30762, Note_on_c, 0, 47, 52
1, 30767, Control_c, 0, 64, 41
1, 30782, Control_c, 0, 64, 42
1, 30797, Control_c, 0, 64, 37
1, 30812, Control_c, 0, 64, 35
1, 30820, Note_off_c, 0, 47, 63
1, 30827, Control_c, 0, 64, 37
1, 30829, Note_on_c, 0, 51, 61
1, 30841, Control_c, 0, 64, 43
1, 30856, Control_c, 0, 64, 50
1, 30871, Control_c, 0, 64, 56
1, 30877, Note_off_c, 0, 51, 60
1, 30886, Control_c, 0, 64, 60
1, 30893, Note_on_c, 0, 47, 52
1, 30901, Control_c, 0, 64, 61
1, 30916, Control_c, 0, 64, 62
1, 30922, Note_off_c, 0, 80, 62
1, 30924, Note_off_c, 0, 68, 64
1, 30946, Control_c, 0, 64, 61
1, 30961, Note_off_c, 0, 47, 63
1, 30961, Control_c, 0, 64, 58
1, 30967, Note_on_c, 0, 51, 64
1, 30976, Control_c, 0, 64, 55
1, 30990, Control_c, 0, 64, 56
1, 31005, Control_c, 0, 64, 59
1, 31020, Control_c, 0, 64, 61
1, 31024, Note_off_c, 0, 51, 58
1, 31025, Note_on_c, 0, 80, 76
1, 31029, Note_on_c, 0, 47, 53
1, 31033, Note_on_c, 0, 68, 68
1, 31035, Control_c, 0, 64, 62
1, 31050, Control_c, 0, 64, 63
1, 31065, Control_c, 0, 64, 64
1, 31102, Note_off_c, 0, 47, 64
1, 31116, Note_on_c, 0, 51, 62
1, 31116, Control_c, 0, 64, 63
1, 31131, Control_c, 0, 64, 60
1, 31145, Control_c, 0, 64, 55
1, 31160, Control_c, 0, 64, 46
1, 31170, Note_off_c, 0, 51, 58
1, 31175, Control_c, 0, 64, 32
1, 31178, Note_on_c, 0, 47, 57
1, 31190, Control_c, 0, 64, 14
1, 31205, Control_c, 0, 64, 17
1, 31220, Control_c, 0, 64, 30
1, 31220, Note_off_c, 0, 68, 62
1, 31226, Note_off_c, 0, 80, 61
1, 31235, Control_c, 0, 64, 42
1, 31250, Note_off_c, 0, 47, 63
1, 31250, Control_c, 0, 64, 51
1, 31262, Note_on_c, 0, 51, 65
1, 31265, Control_c, 0, 64, 55
1, 31280, Control_c, 0, 64, 52
1, 31295, Control_c, 0, 64, 44
1, 31309, Control_c, 0, 64, 28
1, 31315, Note_on_c, 0, 80, 73
1, 31317, Note_on_c, 0, 68, 63
1, 31318, Note_on_c, 0, 47, 58
1, 31321, Note_off_c, 0, 51, 61
1, 31324, Control_c, 0, 64, 0
1, 31335, Note_off_c, 0, 68, 66
1, 31337, Note_off_c, 0, 80, 71
1, 31384, Note_off_c, 0, 47, 62
1, 31390, Note_on_c, 0, 51, 65
1, 31398, Control_c, 0, 64, 10
1, 31413, Control_c, 0, 64, 14
1, 31427, Control_c, 0, 64, 17
1, 31441, Note_on_c, 0, 87, 86
1, 31442, Control_c, 0, 64, 18
1, 31444, Note_on_c, 0, 75, 76
1, 31452, Note_on_c, 0, 47, 64
1, 31453, Note_off_c, 0, 51, 61
1, 31459, Note_off_c, 0, 87, 72
1, 31464, Note_off_c, 0, 75, 69
1, 31472, Control_c, 0, 64, 17
1, 31487, Control_c, 0, 64, 14
1, 31494, Note_off_c, 0, 47, 64
1, 31501, Control_c, 0, 64, 13
1, 31516, Note_on_c, 0, 51, 64
1, 31516, Control_c, 0, 64, 14
1, 31531, Control_c, 0, 64, 17
1, 31545, Control_c, 0, 64, 24
1, 31560, Control_c, 0, 64, 33
1, 31570, Note_off_c, 0, 51, 59
1, 31571, Note_on_c, 0, 80, 88
1, 31575, Note_on_c, 0, 68, 80
1, 31575, Control_c, 0, 64, 36
1, 31579, Note_on_c, 0, 47, 67
1, 31590, Control_c, 0, 64, 24
1, 31597, Note_off_c, 0, 68, 71
1, 31605, Control_c, 0, 64, 0
1, 31619, Note_off_c, 0, 47, 66
1, 31619, Note_off_c, 0, 80, 63
1, 31637, Note_on_c, 0, 51, 67
1, 31697, Note_off_c, 0, 51, 56
1, 31709, Note_on_c, 0, 42, 60
1, 31710, Note_on_c, 0, 83, 95
1, 31713, Note_on_c, 0, 71, 92
1, 31724, Note_on_c, 0, 43, 75
1, 31730, Note_off_c, 0, 71, 75
1, 31739, Note_off_c, 0, 83, 64
1, 31783, Control_c, 0, 64, 16
1, 31793, Note_on_c, 0, 51, 75
1, 31795, Note_off_c, 0, 43, 61
1, 31798, Control_c, 0, 64, 29
1, 31801, Note_off_c, 0, 42, 47
1, 31813, Control_c, 0, 64, 26
1, 31828, Control_c, 0, 64, 25
1, 31843, Control_c, 0, 64, 33
1, 31865, Control_c, 0, 64, 44
1, 31866, Note_on_c, 0, 43, 61
1, 31880, Control_c, 0, 64, 48
1, 31882, Note_on_c, 0, 82, 87
1, 31886, Note_on_c, 0, 70, 78
1, 31895, Control_c, 0, 64, 35
1, 31910, Control_c, 0, 64, 0
1, 31918, Note_off_c, 0, 51, 0
1, 31932, Note_on_c, 0, 51, 49
1, 31940, Note_off_c, 0, 43, 62
1, 31968, Control_c, 0, 64, 24
1, 31983, Control_c, 0, 64, 54
1, 31998, Control_c, 0, 64, 62
1, 32013, Note_on_c, 0, 43, 67
1, 32013, Control_c, 0, 64, 64
1, 32021, Note_off_c, 0, 51, 55
1, 32028, Control_c, 0, 64, 63
1, 32043, Control_c, 0, 64, 60
1, 32052, Note_off_c, 0, 70, 62
1, 32056, Note_off_c, 0, 82, 63
1, 32058, Control_c, 0, 64, 47
1, 32073, Control_c, 0, 64, 0
1, 32077, Note_on_c, 0, 51, 56
1, 32087, Note_off_c, 0, 43, 62
1, 32102, Control_c, 0, 64, 39
1, 32117, Control_c, 0, 64, 55
1, 32132, Control_c, 0, 64, 63
1, 32139, Note_on_c, 0, 82, 91
1, 32146, Note_on_c, 0, 70, 83
1, 32147, Control_c, 0, 64, 65
1, 32151, Note_on_c, 0, 43, 69
1, 32162, Control_c, 0, 64, 66
1, 32165, Note_off_c, 0, 51, 60
1, 32176, Control_c, 0, 64, 64
1, 32191, Control_c, 0, 64, 55
1, 32206, Control_c, 0, 64, 29
1, 32216, Note_on_c, 0, 51, 56
1, 32221, Control_c, 0, 64, 0
1, 32232, Note_off_c, 0, 43, 62
1, 32236, Control_c, 0, 64, 41
1, 32250, Control_c, 0, 64, 57
1, 32265, Control_c, 0, 64, 64
1, 32280, Control_c, 0, 64, 69
1, 32290, Note_on_c, 0, 43, 67
1, 32295, Control_c, 0, 64, 71
1, 32297, Note_off_c, 0, 51, 58
1, 32310, Control_c, 0, 64, 68
1, 32324, Note_off_c, 0, 70, 62
1, 32324, Control_c, 0, 64, 60
1, 32335, Note_off_c, 0, 82, 62
1, 32339, Control_c, 0, 64, 44
1, 32354, Control_c, 0, 64, 37
1, 32361, Note_on_c, 0, 51, 62
1, 32362, Note_off_c, 0, 43, 62
1, 32368, Control_c, 0, 64, 49
1, 32383, Control_c, 0, 64, 59
1, 32398, Control_c, 0, 64, 64
1, 32413, Control_c, 0, 64, 67
1, 32419, Note_on_c, 0, 82, 83
1, 32424, Note_on_c, 0, 43, 65
1, 32424, Note_on_c, 0, 70, 70
1, 32428, Note_off_c, 0, 51, 60
1, 32428, Control_c, 0, 64, 68
1, 32439, Note_off_c, 0, 70, 67
1, 32442, Control_c, 0, 64, 64
1, 32445, Note_off_c, 0, 82, 63
1, 32457, Control_c, 0, 64, 52
1, 32472, Control_c, 0, 64, 0
1, 32484, Note_off_c, 0, 43, 61
1, 32490, Note_on_c, 0, 51, 64
1, 32503, Control_c, 0, 64, 19
1, 32518, Control_c, 0, 64, 53
1, 32533, Control_c, 0, 64, 62
1, 32544, Note_off_c, 0, 51, 60
1, 32545, Note_on_c, 0, 87, 91
1, 32546, Note_on_c, 0, 43, 66
1, 32547, Control_c, 0, 64, 65
1, 32548, Note_on_c, 0, 75, 82
1, 32562, Control_c, 0, 64, 66
1, 32566, Note_off_c, 0, 75, 71
1, 32566, Note_off_c, 0, 87, 61
1, 32577, Control_c, 0, 64, 66
1, 32603, Note_off_c, 0, 43, 58
1, 32606, Control_c, 0, 64, 66
1, 32634, Note_on_c, 0, 51, 63
1, 32644, Control_c, 0, 64, 67
1, 32659, Control_c, 0, 64, 69
1, 32664, Note_on_c, 0, 43, 60
1, 32673, Control_c, 0, 64, 71
1, 32675, Note_off_c, 0, 51, 57
1, 32678, Note_on_c, 0, 82, 99
1, 32680, Note_on_c, 0, 70, 89
1, 32688, Control_c, 0, 64, 73
1, 32703, Control_c, 0, 64, 77
1, 32705, Note_off_c, 0, 70, 65
1, 32718, Control_c, 0, 64, 82
1, 32730, Note_off_c, 0, 82, 64
1, 32733, Control_c, 0, 64, 85
1, 32738, Note_off_c, 0, 43, 62
1, 32747, Control_c, 0, 64, 86
1, 32750, Note_on_c, 0, 51, 60
1, 32762, Control_c, 0, 64, 85
1, 32777, Control_c, 0, 64, 73
1, 32792, Control_c, 0, 64, 46
1, 32806, Control_c, 0, 64, 0
1, 32827, Note_off_c, 0, 51, 55
1, 32831, Note_on_c, 0, 84, 103
1, 32836, Note_on_c, 0, 72, 92
1, 32840, Note_on_c, 0, 42, 81
1, 32851, Control_c, 0, 64, 39
1, 32865, Control_c, 0, 64, 61
1, 32880, Control_c, 0, 64, 68
1, 32895, Control_c, 0, 64, 74
1, 32910, Control_c, 0, 64, 75
1, 32929, Note_off_c, 0, 42, 61
1, 32934, Note_on_c, 0, 51, 69
1, 32940, Control_c, 0, 64, 75
1, 32955, Control_c, 0, 64, 76
1, 32970, Control_c, 0, 64, 76
1, 32985, Control_c, 0, 64, 78
1, 32994, Note_on_c, 0, 44, 72
1, 32994, Note_off_c, 0, 51, 63
1, 32999, Control_c, 0, 64, 81
1, 33014, Control_c, 0, 64, 83
1, 33029, Control_c, 0, 64, 85
1, 33044, Control_c, 0, 64, 86
1, 33062, Note_off_c, 0, 44, 59
1, 33063, Note_on_c, 0, 51, 70
1, 33073, Control_c, 0, 64, 87
1, 33088, Control_c, 0, 64, 88
1, 33089, Note_off_c, 0, 84, 58
1, 33097, Note_off_c, 0, 72, 61
1, 33103, Control_c, 0, 64, 89
1, 33117, Control_c, 0, 64, 91
1, 33125, Note_off_c, 0, 51, 59
1, 33128, Note_on_c, 0, 42, 78
1, 33132, Control_c, 0, 64, 92
1, 33147, Control_c, 0, 64, 94
1, 33162, Control_c, 0, 64, 96
1, 33177, Control_c, 0, 64, 100
1, 33191, Control_c, 0, 64, 106
1, 33203, Note_on_c, 0, 51, 62
1, 33205, Note_off_c, 0, 42, 58
1, 33206, Control_c, 0, 64, 116
1, 33221, Control_c, 0, 64, 127
1, 33239, Note_off_c, 0, 51, 62
1, 33246, Note_on_c, 0, 44, 71
1, 33309, Note_off_c, 0, 44, 53
1, 33319, Note_on_c, 0, 51, 76
1, 33378, Note_off_c, 0, 51, 58
1, 33393, Control_c, 0, 64, 99
1, 33401, Note_on_c, 0, 85, 96
1, 33407, Note_on_c, 0, 73, 91
1, 33408, Note_on_c, 0, 40, 84
1, 33408, Control_c, 0, 64, 73
1, 33422, Control_c, 0, 64, 32
1, 33437, Control_c, 0, 64, 0
1, 33467, Control_c, 0, 64, 51
1, 33482, Control_c, 0, 64, 68
1, 33488, Note_on_c, 0, 49, 77
1, 33496, Control_c, 0, 64, 82
1, 33497, Note_off_c, 0, 40, 59
1, 33511, Control_c, 0, 64, 100
1, 33526, Control_c, 0, 64, 119
1, 33541, Control_c, 0, 64, 127
1, 33552, Note_off_c, 0, 49, 62
1, 33556, Note_on_c, 0, 44, 74
1, 33619, Note_off_c, 0, 44, 58
1, 33626, Note_on_c, 0, 49, 75
1, 33684, Note_off_c, 0, 49, 59
1, 33687, Note_on_c, 0, 40, 78
1, 33730, Note_off_c, 0, 85, 61
1, 33732, Note_off_c, 0, 73, 62
1, 33757, Note_on_c, 0, 49, 65
1, 33769, Note_off_c, 0, 40, 57
1, 33808, Note_off_c, 0, 49, 62
1, 33813, Note_on_c, 0, 44, 68
1, 33849, Note_off_c, 0, 44, 61
1, 33881, Note_on_c, 0, 49, 72
1, 33881, Control_c, 0, 64, 95
1, 33895, Control_c, 0, 64, 76
1, 33904, Note_on_c, 0, 82, 84
1, 33905, Note_on_c, 0, 70, 78
1, 33910, Control_c, 0, 64, 62
1, 33925, Control_c, 0, 64, 54
1, 33927, Note_off_c, 0, 70, 68
1, 33936, Note_on_c, 0, 40, 68
1, 33939, Control_c, 0, 64, 62
1, 33940, Note_off_c, 0, 49, 61
1, 33954, Control_c, 0, 64, 72
1, 33959, Note_off_c, 0, 82, 63
1, 33969, Control_c, 0, 64, 87
1, 33984, Note_on_c, 0, 83, 74
1, 33984, Control_c, 0, 64, 114
1, 33999, Note_on_c, 0, 49, 58
1, 33999, Control_c, 0, 64, 127
1, 34013, Note_off_c, 0, 40, 59
1, 34038, Note_on_c, 0, 82, 67
1, 34061, Note_on_c, 0, 42, 68
1, 34062, Note_off_c, 0, 49, 62
1, 34070, Note_off_c, 0, 83, 61
1, 34076, Note_off_c, 0, 82, 60
1, 34098, Note_on_c, 0, 80, 79
1, 34144, Note_on_c, 0, 49, 64
1, 34148, Note_off_c, 0, 42, 57
1, 34156, Note_off_c, 0, 80, 65
1, 34165, Note_on_c, 0, 82, 72
1, 34185, Control_c, 0, 64, 109
1, 34200, Control_c, 0, 64, 74
1, 34204, Note_on_c, 0, 83, 92
1, 34207, Note_off_c, 0, 49, 62
1, 34209, Note_on_c, 0, 39, 80
1, 34213, Note_on_c, 0, 71, 92
1, 34215, Control_c, 0, 64, 0
1, 34247, Note_off_c, 0, 82, 64
1, 34259, Control_c, 0, 64, 26
1, 34274, Control_c, 0, 64, 62
1, 34289, Control_c, 0, 64, 70
1, 34304, Control_c, 0, 64, 77
1, 34318, Control_c, 0, 64, 83
1, 34319, Note_on_c, 0, 47, 69
1, 34323, Note_off_c, 0, 39, 57
1, 34333, Control_c, 0, 64, 85
1, 34348, Control_c, 0, 64, 88
1, 34362, Control_c, 0, 64, 92
1, 34365, Note_off_c, 0, 47, 62
1, 34377, Control_c, 0, 64, 98
1, 34378, Note_on_c, 0, 42, 72
1, 34392, Control_c, 0, 64, 104
1, 34407, Control_c, 0, 64, 111
1, 34422, Control_c, 0, 64, 113
1, 34444, Note_on_c, 0, 47, 71
1, 34447, Note_off_c, 0, 42, 58
1, 34502, Note_off_c, 0, 47, 63
1, 34509, Note_on_c, 0, 39, 76
1, 34575, Note_on_c, 0, 47, 69
1, 34575, Note_off_c, 0, 39, 57
1, 34600, Control_c, 0, 64, 114
1, 34615, Control_c, 0, 64, 118
1, 34624, Note_off_c, 0, 47, 64
1, 34630, Control_c, 0, 64, 127
1, 34631, Note_on_c, 0, 42, 74
1, 34643, Note_off_c, 0, 83, 56
1, 34678, Note_off_c, 0, 71, 59
1, 34691, Note_on_c, 0, 47, 71
1, 34693, Note_off_c, 0, 42, 50
1, 34752, Note_off_c, 0, 47, 62
1, 34757, Note_on_c, 0, 39, 76
1, 34831, Note_on_c, 0, 47, 65
1, 34837, Note_off_c, 0, 39, 58
1, 34866, Note_on_c, 0, 42, 77
1, 34872, Note_off_c, 0, 47, 62
1, 34963, Note_on_c, 0, 47, 76
1, 34992, Note_off_c, 0, 42, 58
1, 35027, Note_off_c, 0, 47, 61
1, 35053, Control_c, 0, 64, 94
1, 35056, Note_on_c, 0, 38, 89
1, 35063, Note_on_c, 0, 80, 102
1, 35068, Control_c, 0, 64, 61
1, 35068, Note_on_c, 0, 68, 93
1, 35082, Control_c, 0, 64, 0
1, 35120, Note_on_c, 0, 81, 16
1, 35123, Note_off_c, 0, 81, 43
1, 35141, Control_c, 0, 64, 60
1, 35149, Note_on_c, 0, 47, 76
1, 35155, Note_off_c, 0, 38, 60
1, 35156, Control_c, 0, 64, 68
1, 35171, Control_c, 0, 64, 75
1, 35185, Control_c, 0, 64, 80
1, 35200, Control_c, 0, 64, 83
1, 35215, Control_c, 0, 64, 87
1, 35226, Note_off_c, 0, 47, 63
1, 35230, Note_on_c, 0, 40, 78
1, 35230, Control_c, 0, 64, 93
1, 35245, Control_c, 0, 64, 101
1, 35259, Control_c, 0, 64, 109
1, 35274, Control_c, 0, 64, 118
1, 35276, Note_off_c, 0, 40, 60
1, 35289, Control_c, 0, 64, 127
1, 35298, Note_on_c, 0, 47, 77
1, 35352, Note_off_c, 0, 47, 63
1, 35356, Note_on_c, 0, 38, 78
1, 35416, Note_off_c, 0, 38, 59
1, 35419, Note_off_c, 0, 68, 63
1, 35422, Note_on_c, 0, 47, 75
1, 35422, Note_off_c, 0, 80, 60
1, 35470, Note_off_c, 0, 47, 65
1, 35473, Note_on_c, 0, 40, 75
1, 35534, Note_on_c, 0, 47, 78
1, 35534, Note_off_c, 0, 40, 57
1, 35603, Note_off_c, 0, 47, 63
1, 35640, Note_on_c, 0, 37, 86
1, 35653, Control_c, 0, 64, 80
1, 35659, Note_on_c, 0, 81, 104
1, 35667, Note_on_c, 0, 69, 89
1, 35667, Control_c, 0, 64, 47
1, 35682, Control_c, 0, 64, 0
1, 35712, Control_c, 0, 64, 14
1, 35727, Control_c, 0, 64, 65
1, 35728, Note_on_c, 0, 45, 62
1, 35742, Control_c, 0, 64, 82
1, 35757, Control_c, 0, 64, 127
1, 35766, Note_off_c, 0, 37, 54
1, 35800, Note_on_c, 0, 40, 69
1, 35802, Note_off_c, 0, 45, 63
1, 35868, Note_on_c, 0, 45, 72
1, 35870, Note_off_c, 0, 40, 59
1, 35918, Note_off_c, 0, 45, 64
1, 35941, Note_on_c, 0, 37, 77
1, 35978, Note_off_c, 0, 81, 58
1, 36001, Note_on_c, 0, 45, 74
1, 36001, Note_off_c, 0, 69, 32
1, 36023, Note_off_c, 0, 37, 59
1, 36048, Note_off_c, 0, 45, 60
1, 36061, Note_on_c, 0, 40, 69
1, 36127, Note_on_c, 0, 45, 67
1, 36130, Note_off_c, 0, 40, 56
1, 36141, Note_on_c, 0, 67, 71
1, 36141, Control_c, 0, 64, 97
1, 36153, Note_off_c, 0, 45, 67
1, 36156, Control_c, 0, 64, 74
1, 36171, Control_c, 0, 64, 56
1, 36173, Note_off_c, 0, 67, 65
1, 36184, Note_on_c, 0, 79, 64
1, 36186, Control_c, 0, 64, 37
1, 36187, Note_on_c, 0, 37, 74
1, 36201, Control_c, 0, 64, 54
1, 36216, Control_c, 0, 64, 71
1, 36219, Note_off_c, 0, 79, 61
1, 36231, Control_c, 0, 64, 93
1, 36246, Control_c, 0, 64, 127
1, 36250, Note_on_c, 0, 80, 74
1, 36267, Note_on_c, 0, 46, 76
1, 36279, Note_off_c, 0, 37, 52
1, 36316, Note_off_c, 0, 46, 57
1, 36317, Note_on_c, 0, 79, 69
1, 36333, Note_on_c, 0, 39, 71
1, 36347, Note_off_c, 0, 79, 61
1, 36351, Note_on_c, 0, 77, 86
1, 36351, Note_off_c, 0, 80, 63
1, 36410, Note_on_c, 0, 46, 75
1, 36416, Note_on_c, 0, 79, 73
1, 36418, Note_off_c, 0, 77, 67
1, 36420, Note_off_c, 0, 39, 57
1, 36442, Note_off_c, 0, 79, 67
1, 36455, Note_off_c, 0, 46, 61
1, 36484, Note_on_c, 0, 35, 86
1, 36487, Note_on_c, 0, 80, 96
1, 36491, Control_c, 0, 64, 85
1, 36492, Note_on_c, 0, 68, 97
1, 36506, Control_c, 0, 64, 49
1, 36520, Control_c, 0, 64, 0
1, 36550, Control_c, 0, 64, 37
1, 36565, Control_c, 0, 64, 65
1, 36573, Note_on_c, 0, 44, 80
1, 36577, Note_off_c, 0, 35, 60
1, 36580, Control_c, 0, 64, 77
1, 36595, Control_c, 0, 64, 95
1, 36609, Control_c, 0, 64, 127
1, 36639, Note_off_c, 0, 44, 54
1, 36644, Note_on_c, 0, 39, 69
1, 36707, Note_on_c, 0, 44, 71
1, 36711, Note_off_c, 0, 39, 58
1, 36764, Note_off_c, 0, 44, 57
1, 36776, Note_on_c, 0, 35, 82
1, 36787, Control_c, 0, 64, 87
1, 36802, Control_c, 0, 64, 65
1, 36817, Control_c, 0, 64, 52
1, 36831, Control_c, 0, 64, 63
1, 36842, Note_on_c, 0, 44, 82
1, 36846, Control_c, 0, 64, 82
1, 36851, Note_off_c, 0, 35, 63
1, 36861, Control_c, 0, 64, 127
1, 36911, Note_on_c, 0, 39, 80
1, 36911, Note_off_c, 0, 44, 60
1, 36965, Note_on_c, 0, 44, 68
1, 36967, Note_off_c, 0, 39, 59
1, 37033, Note_off_c, 0, 44, 59
1, 37033, Note_on_c, 0, 35, 81
1, 37039, Control_c, 0, 64, 97
1, 37054, Control_c, 0, 64, 66
1, 37069, Control_c, 0, 64, 0
1, 37098, Control_c, 0, 64, 14
1, 37111, Note_on_c, 0, 44, 77
1, 37120, Control_c, 0, 64, 66
1, 37122, Note_off_c, 0, 35, 63
1, 37135, Control_c, 0, 64, 88
1, 37150, Control_c, 0, 64, 127
1, 37161, Note_on_c, 0, 39, 82
1, 37167, Note_off_c, 0, 44, 62
1, 37211, Note_off_c, 0, 68, 63
1, 37214, Note_on_c, 0, 44, 70
1, 37215, Note_off_c, 0, 39, 62
1, 37221, Note_off_c, 0, 80, 58
1, 37250, Note_off_c, 0, 44, 62
1, 37437, Note_on_c, 0, 81, 96
1, 37444, Note_on_c, 0, 69, 100
1, 37445, Note_on_c, 0, 45, 87
1, 37447, Note_on_c, 0, 73, 98
1, 37448, Note_on_c, 0, 37, 87
1, 37448, Note_on_c, 0, 76, 96
1, 37449, Note_on_c, 0, 49, 98
1, 37451, Note_on_c, 0, 40, 81
1, 37476, Note_on_c, 0, 78, 56
1, 37477, Control_c, 0, 64, 115
1, 37492, Control_c, 0, 64, 74
1, 37507, Control_c, 0, 64, 0
1, 37590, Note_off_c, 0, 78, 26
1, 37654, Control_c, 0, 64, 19
1, 37669, Control_c, 0, 64, 30
1, 37684, Control_c, 0, 64, 47
1, 37699, Control_c, 0, 64, 61
1, 37713, Control_c, 0, 64, 71
1, 37728, Control_c, 0, 64, 86
1, 37743, Control_c, 0, 64, 127
1, 37870, Note_off_c, 0, 69, 62
1, 37888, Note_off_c, 0, 76, 61
1, 37891, Note_off_c, 0, 73, 62
1, 37899, Control_c, 0, 67, 9
1, 37904, Note_off_c, 0, 81, 64
1, 37913, Control_c, 0, 67, 14
1, 37928, Control_c, 0, 67, 24
1, 37943, Control_c, 0, 67, 37
1, 37958, Control_c, 0, 67, 51
1, 37960, Note_off_c, 0, 37, 59
1, 37972, Note_off_c, 0, 40, 58
1, 37973, Note_off_c, 0, 45, 61
1, 37973, Control_c, 0, 67, 68
1, 37987, Control_c, 0, 67, 88
1, 37991, Note_off_c, 0, 49, 53
1, 38002, Control_c, 0, 67, 110
1, 38017, Control_c, 0, 67, 125
1, 38032, Control_c, 0, 67, 127
1, 38047, Control_c, 0, 64, 116
1, 38061, Control_c, 0, 64, 87
1, 38076, Control_c, 0, 64, 66
1, 38092, Control_c, 0, 64, 0
1, 38133, Note_on_c, 0, 76, 56
1, 38180, Note_off_c, 0, 76, 55
1, 38195, Note_on_c, 0, 78, 69
1, 38238, Note_off_c, 0, 78, 65
1, 38247, Note_on_c, 0, 80, 63
1, 38267, Note_off_c, 0, 80, 68
1, 38317, Note_on_c, 0, 81, 61
1, 38371, Note_off_c, 0, 81, 64
1, 38378, Note_on_c, 0, 83, 60
1, 38406, Note_off_c, 0, 83, 66
1, 38441, Note_on_c, 0, 85, 65
1, 38503, Note_on_c, 0, 83, 53
1, 38509, Note_off_c, 0, 85, 62
1, 38541, Note_off_c, 0, 83, 63
1, 38578, Note_on_c, 0, 81, 57
1, 38584, Note_on_c, 0, 69, 37
1, 38588, Note_on_c, 0, 61, 45
1, 38605, Note_on_c, 0, 64, 36
1, 38616, Note_off_c, 0, 81, 62
1, 38668, Note_on_c, 0, 76, 70
1, 38729, Note_off_c, 0, 76, 62
1, 38732, Note_on_c, 0, 78, 65
1, 38750, Note_off_c, 0, 61, 63
1, 38754, Note_off_c, 0, 69, 64
1, 38756, Note_off_c, 0, 64, 60
1, 38783, Note_off_c, 0, 78, 64
1, 38789, Note_on_c, 0, 80, 65
1, 38815, Note_off_c, 0, 80, 67
1, 38850, Note_on_c, 0, 81, 68
1, 38910, Note_on_c, 0, 83, 67
1, 38912, Note_off_c, 0, 81, 64
1, 38954, Note_off_c, 0, 83, 61
1, 38988, Note_on_c, 0, 85, 71
1, 39054, Note_off_c, 0, 85, 63
1, 39055, Note_on_c, 0, 83, 67
1, 39082, Note_off_c, 0, 83, 66
1, 39124, Note_on_c, 0, 81, 60
1, 39132, Note_on_c, 0, 61, 47
1, 39140, Note_on_c, 0, 69, 47
1, 39142, Note_on_c, 0, 64, 46
1, 39175, Note_off_c, 0, 81, 57
1, 39194, Note_on_c, 0, 76, 72
1, 39264, Note_off_c, 0, 76, 62
1, 39265, Note_on_c, 0, 78, 70
1, 39313, Note_off_c, 0, 78, 63
1, 39321, Note_on_c, 0, 80, 65
1, 39322, Note_off_c, 0, 61, 61
1, 39328, Note_off_c, 0, 64, 63
1, 39329, Note_off_c, 0, 69, 63
1, 39350, Note_off_c, 0, 80, 66
1, 39397, Note_on_c, 0, 81, 63
1, 39457, Note_off_c, 0, 81, 61
1, 39459, Note_on_c, 0, 83, 64
1, 39491, Note_off_c, 0, 83, 64
1, 39537, Note_on_c, 0, 85, 63
1, 39590, Note_on_c, 0, 83, 65
1, 39599, Note_off_c, 0, 85, 60
1, 39623, Note_off_c, 0, 83, 63
1, 39656, Note_on_c, 0, 61, 47
1, 39665, Note_on_c, 0, 69, 36
1, 39665, Note_on_c, 0, 81, 55
1, 39670, Note_on_c, 0, 64, 39
1, 39704, Note_off_c, 0, 81, 58
1, 39735, Note_off_c, 0, 61, 61
1, 39741, Note_off_c, 0, 64, 61
1, 39742, Note_on_c, 0, 76, 72
1, 39748, Note_off_c, 0, 69, 56
1, 39803, Note_off_c, 0, 76, 62
1, 39815, Note_on_c, 0, 78, 66
1, 39858, Note_off_c, 0, 78, 65
1, 39860, Note_on_c, 0, 80, 69
1, 39891, Note_off_c, 0, 80, 62
1, 39930, Note_on_c, 0, 81, 74
1, 39931, Note_on_c, 0, 61, 53
1, 39935, Note_on_c, 0, 64, 53
1, 39935, Note_on_c, 0, 69, 56
1, 39989, Note_off_c, 0, 81, 64
1, 39990, Note_off_c, 0, 61, 57
1, 39990, Note_on_c, 0, 83, 73
1, 39990, Note_off_c, 0, 64, 58
1, 39996, Note_off_c, 0, 69, 56
1, 40035, Note_off_c, 0, 83, 65
1, 40053, Note_on_c, 0, 85, 76
1, 40073, Note_off_c, 0, 85, 71
1, 40127, Note_on_c, 0, 86, 83
1, 40161, Control_c, 0, 67, 127
1, 40190, Control_c, 0, 67, 126
1, 40192, Note_on_c, 0, 88, 85
1, 40200, Note_off_c, 0, 86, 64
1, 40201, Note_on_c, 0, 61, 62
1, 40204, Note_on_c, 0, 69, 67
1, 40205, Note_on_c, 0, 64, 62
1, 40205, Control_c, 0, 67, 125
1, 40220, Control_c, 0, 67, 124
1, 40235, Control_c, 0, 67, 122
1, 40249, Note_off_c, 0, 88, 66
1, 40250, Control_c, 0, 67, 120
1, 40257, Note_on_c, 0, 87, 88
1, 40264, Control_c, 0, 67, 119
1, 40279, Control_c, 0, 67, 118
1, 40280, Note_off_c, 0, 61, 57
1, 40290, Note_off_c, 0, 64, 58
1, 40294, Note_off_c, 0, 69, 54
1, 40294, Control_c, 0, 67, 114
1, 40308, Control_c, 0, 67, 108
1, 40315, Note_off_c, 0, 87, 63
1, 40323, Control_c, 0, 67, 100
1, 40329, Note_on_c, 0, 88, 83
1, 40338, Control_c, 0, 67, 92
1, 40353, Control_c, 0, 67, 85
1, 40368, Control_c, 0, 67, 79
1, 40382, Control_c, 0, 67, 69
1, 40385, Note_on_c, 0, 87, 91
1, 40386, Note_off_c, 0, 88, 66
1, 40397, Control_c, 0, 67, 59
1, 40412, Control_c, 0, 67, 49
1, 40427, Control_c, 0, 67, 42
1, 40437, Note_off_c, 0, 87, 64
1, 40442, Control_c, 0, 67, 41
1, 40460, Note_on_c, 0, 69, 68
1, 40463, Note_on_c, 0, 61, 64
1, 40463, Note_on_c, 0, 64, 66
1, 40467, Note_on_c, 0, 88, 87
1, 40497, Note_off_c, 0, 64, 66
1, 40500, Note_off_c, 0, 61, 64
1, 40502, Control_c, 0, 67, 41
1, 40513, Note_off_c, 0, 69, 64
1, 40517, Control_c, 0, 67, 42
1, 40532, Note_on_c, 0, 85, 84
1, 40580, Note_off_c, 0, 88, 63
1, 40593, Note_on_c, 0, 83, 80
1, 40608, Note_off_c, 0, 85, 64
1, 40635, Control_c, 0, 67, 42
1, 40640, Note_off_c, 0, 83, 62
1, 40650, Control_c, 0, 67, 44
1, 40662, Note_on_c, 0, 81, 68
1, 40665, Control_c, 0, 67, 45
1, 40679, Control_c, 0, 67, 47
1, 40694, Control_c, 0, 67, 48
1, 40709, Control_c, 0, 67, 49
1, 40723, Control_c, 0, 67, 52
1, 40738, Control_c, 0, 67, 55
1, 40744, Note_off_c, 0, 81, 56
1, 40753, Control_c, 0, 67, 60
1, 40768, Control_c, 0, 67, 65
1, 40783, Control_c, 0, 67, 73
1, 40791, Note_on_c, 0, 80, 56
1, 40794, Note_on_c, 0, 63, 43
1, 40798, Control_c, 0, 67, 81
1, 40813, Control_c, 0, 67, 89
1, 40827, Control_c, 0, 67, 96
1, 40842, Control_c, 0, 67, 103
1, 40865, Control_c, 0, 67, 109
1, 40875, Note_off_c, 0, 63, 58
1, 40879, Control_c, 0, 64, 42
1, 40879, Control_c, 0, 67, 114
1, 40887, Note_on_c, 0, 71, 38
1, 40894, Control_c, 0, 64, 52
1, 40894, Control_c, 0, 67, 118
1, 40909, Control_c, 0, 64, 55
1, 40909, Control_c, 0, 67, 119
1, 40924, Control_c, 0, 64, 56
1, 40932, Note_off_c, 0, 71, 52
1, 40938, Control_c, 0, 64, 59
1, 40948, Note_on_c, 0, 68, 54
1, 40953, Control_c, 0, 64, 63
1, 40968, Control_c, 0, 64, 67
1, 40983, Control_c, 0, 64, 71
1, 40986, Note_off_c, 0, 68, 66
1, 40998, Control_c, 0, 64, 71
1, 41012, Control_c, 0, 64, 70
1, 41019, Note_on_c, 0, 71, 65
1, 41027, Control_c, 0, 64, 69
1, 41042, Control_c, 0, 64, 68
1, 41050, Note_off_c, 0, 71, 67
1, 41057, Control_c, 0, 64, 69
1, 41072, Control_c, 0, 64, 70
1, 41072, Control_c, 0, 67, 119
1, 41087, Note_on_c, 0, 63, 68
1, 41087, Control_c, 0, 64, 70
1, 41131, Control_c, 0, 64, 71
1, 41131, Control_c, 0, 67, 118
1, 41145, Note_on_c, 0, 71, 56
1, 41146, Control_c, 0, 64, 71
1, 41161, Control_c, 0, 64, 72
1, 41161, Control_c, 0, 67, 118
1, 41176, Control_c, 0, 64, 73
1, 41176, Note_off_c, 0, 71, 61
1, 41201, Note_on_c, 0, 68, 58
1, 41202, Note_off_c, 0, 63, 43
1, 41205, Control_c, 0, 64, 73
1, 41215, Note_off_c, 0, 80, 59
1, 41220, Control_c, 0, 64, 74
1, 41235, Control_c, 0, 64, 75
1, 41239, Note_off_c, 0, 68, 57
1, 41249, Control_c, 0, 64, 76
1, 41251, Note_on_c, 0, 71, 58
1, 41264, Control_c, 0, 64, 76
1, 41281, Control_c, 0, 64, 73
1, 41289, Note_off_c, 0, 71, 64
1, 41295, Control_c, 0, 64, 69
1, 41310, Control_c, 0, 64, 63
1, 41325, Control_c, 0, 64, 56
1, 41338, Note_on_c, 0, 63, 64
1, 41340, Control_c, 0, 64, 54
1, 41340, Control_c, 0, 67, 117
1, 41343, Note_on_c, 0, 82, 67
1, 41354, Control_c, 0, 64, 60
1, 41354, Control_c, 0, 67, 116
1, 41369, Control_c, 0, 64, 64
1, 41369, Control_c, 0, 67, 115
1, 41379, Note_off_c, 0, 82, 61
1, 41384, Control_c, 0, 64, 67
1, 41399, Control_c, 0, 64, 69
1, 41405, Note_on_c, 0, 83, 65
1, 41414, Control_c, 0, 64, 67
1, 41427, Note_on_c, 0, 73, 60
1, 41428, Control_c, 0, 64, 63
1, 41443, Control_c, 0, 64, 58
1, 41445, Note_off_c, 0, 83, 60
1, 41451, Note_off_c, 0, 63, 55
1, 41458, Control_c, 0, 64, 57
1, 41465, Note_off_c, 0, 73, 59
1, 41473, Control_c, 0, 64, 61
1, 41487, Note_on_c, 0, 82, 53
1, 41488, Control_c, 0, 64, 63
1, 41502, Control_c, 0, 64, 65
1, 41507, Note_off_c, 0, 82, 62
1, 41508, Note_on_c, 0, 83, 64
1, 41517, Control_c, 0, 64, 65
1, 41539, Note_off_c, 0, 83, 66
1, 41547, Control_c, 0, 64, 66
1, 41552, Note_on_c, 0, 73, 54
1, 41561, Control_c, 0, 64, 67
1, 41561, Control_c, 0, 67, 115
1, 41566, Note_on_c, 0, 82, 53
1, 41576, Control_c, 0, 64, 68
1, 41585, Note_off_c, 0, 73, 57
1, 41586, Note_off_c, 0, 82, 62
1, 41590, Note_on_c, 0, 83, 77
1, 41591, Control_c, 0, 64, 70
1, 41591, Control_c, 0, 67, 114
1, 41614, Control_c, 0, 64, 70
1, 41616, Note_on_c, 0, 63, 49
1, 41623, Note_off_c, 0, 83, 66
1, 41628, Control_c, 0, 64, 71
1, 41650, Note_off_c, 0, 63, 62
1, 41652, Note_on_c, 0, 67, 47
1, 41657, Note_on_c, 0, 82, 69
1, 41658, Control_c, 0, 64, 71
1, 41679, Note_off_c, 0, 82, 67
1, 41688, Control_c, 0, 64, 72
1, 41692, Note_on_c, 0, 83, 58
1, 41695, Note_off_c, 0, 67, 62
1, 41695, Note_on_c, 0, 73, 48
1, 41710, Note_off_c, 0, 83, 63
1, 41749, Note_off_c, 0, 73, 62
1, 41751, Note_on_c, 0, 80, 65
1, 41768, Note_on_c, 0, 82, 30
1, 41812, Note_off_c, 0, 82, 0
1, 41812, Note_on_c, 0, 82, 38
1, 41817, Note_off_c, 0, 80, 64
1, 41821, Control_c, 0, 67, 114
1, 41835, Control_c, 0, 67, 106
1, 41850, Control_c, 0, 64, 71
1, 41850, Control_c, 0, 67, 82
1, 41865, Control_c, 0, 64, 69
1, 41865, Control_c, 0, 67, 33
1, 41880, Control_c, 0, 64, 66
1, 41880, Control_c, 0, 67, 0
1, 41886, Note_off_c, 0, 82, 65
1, 41891, Note_on_c, 0, 80, 66
1, 41894, Note_on_c, 0, 68, 63
1, 41895, Control_c, 0, 64, 61
1, 41906, Note_on_c, 0, 64, 53
1, 41906, Note_on_c, 0, 71, 50
1, 41910, Control_c, 0, 64, 53
1, 41915, Note_off_c, 0, 80, 68
1, 41921, Note_off_c, 0, 68, 67
1, 41924, Control_c, 0, 64, 43
1, 41929, Note_off_c, 0, 64, 60
1, 41929, Note_off_c, 0, 71, 61
1, 41939, Control_c, 0, 64, 39
1, 41954, Control_c, 0, 64, 35
1, 41969, Control_c, 0, 64, 30
1, 41984, Control_c, 0, 64, 16
1, 41999, Control_c, 0, 64, 0
1, 42224, Note_on_c, 0, 69, 92
1, 42231, Note_on_c, 0, 57, 104
1, 42231, Note_on_c, 0, 61, 100
1, 42234, Note_on_c, 0, 64, 95
1, 42236, Note_on_c, 0, 45, 76
1, 42236, Note_on_c, 0, 49, 91
1, 42240, Note_on_c, 0, 37, 89
1, 42243, Note_on_c, 0, 40, 81
1, 42251, Control_c, 0, 64, 10
1, 42262, Note_on_c, 0, 66, 59
1, 42266, Control_c, 0, 64, 75
1, 42281, Control_c, 0, 64, 102
1, 42295, Control_c, 0, 64, 127
1, 42309, Note_off_c, 0, 66, 48
1, 42481, Control_c, 0, 67, 8
1, 42488, Note_off_c, 0, 57, 62
1, 42496, Control_c, 0, 67, 14
1, 42499, Note_off_c, 0, 64, 64
1, 42503, Note_off_c, 0, 61, 62
1, 42510, Control_c, 0, 67, 21
1, 42517, Note_off_c, 0, 69, 67
1, 42525, Control_c, 0, 67, 29
1, 42540, Control_c, 0, 67, 39
1, 42556, Control_c, 0, 67, 50
1, 42571, Control_c, 0, 67, 64
1, 42585, Control_c, 0, 67, 81
1, 42600, Control_c, 0, 67, 96
1, 42615, Control_c, 0, 67, 112
1, 42630, Control_c, 0, 67, 125
1, 42645, Control_c, 0, 67, 127
1, 42719, Note_on_c, 0, 64, 67
1, 42777, Control_c, 0, 64, 105
1, 42780, Note_off_c, 0, 64, 62
1, 42786, Note_on_c, 0, 66, 74
1, 42792, Control_c, 0, 64, 82
1, 42807, Control_c, 0, 64, 65
1, 42822, Control_c, 0, 64, 30
1, 42837, Control_c, 0, 64, 0
1, 42839, Note_off_c, 0, 66, 65
1, 42840, Note_off_c, 0, 37, 62
1, 42846, Note_on_c, 0, 68, 71
1, 42852, Note_off_c, 0, 49, 60
1, 42857, Note_off_c, 0, 40, 60
1, 42858, Note_off_c, 0, 45, 62
1, 42870, Note_off_c, 0, 68, 69
1, 42912, Note_on_c, 0, 69, 66
1, 42968, Note_off_c, 0, 69, 63
1, 42969, Note_on_c, 0, 71, 67
1, 43009, Note_off_c, 0, 71, 62
1, 43027, Note_on_c, 0, 73, 83
1, 43090, Note_off_c, 0, 73, 63
1, 43122, Note_on_c, 0, 71, 50
1, 43144, Note_off_c, 0, 71, 59
1, 43161, Note_on_c, 0, 69, 61
1, 43215, Note_off_c, 0, 69, 48
1, 43239, Note_on_c, 0, 64, 68
1, 43284, Note_off_c, 0, 64, 62
1, 43302, Note_on_c, 0, 66, 59
1, 43345, Note_off_c, 0, 66, 63
1, 43356, Note_on_c, 0, 68, 61
1, 43379, Control_c, 0, 67, 117
1, 43389, Note_off_c, 0, 68, 66
1, 43394, Control_c, 0, 67, 109
1, 43408, Control_c, 0, 67, 102
1, 43422, Note_on_c, 0, 69, 62
1, 43423, Control_c, 0, 67, 97
1, 43430, Note_on_c, 0, 57, 41
1, 43435, Note_on_c, 0, 49, 45
1, 43438, Control_c, 0, 67, 95
1, 43441, Note_on_c, 0, 52, 39
1, 43452, Control_c, 0, 67, 91
1, 43467, Control_c, 0, 67, 85
1, 43482, Control_c, 0, 67, 79
1, 43483, Note_off_c, 0, 69, 62
1, 43483, Note_on_c, 0, 71, 68
1, 43497, Control_c, 0, 67, 77
1, 43525, Note_off_c, 0, 71, 63
1, 43526, Control_c, 0, 67, 77
1, 43555, Note_on_c, 0, 73, 74
1, 43586, Control_c, 0, 67, 78
1, 43600, Control_c, 0, 67, 79
1, 43624, Note_off_c, 0, 73, 62
1, 43632, Note_on_c, 0, 71, 57
1, 43635, Note_off_c, 0, 57, 63
1, 43637, Note_off_c, 0, 49, 61
1, 43644, Note_off_c, 0, 52, 56
1, 43644, Control_c, 0, 67, 79
1, 43651, Note_off_c, 0, 71, 63
1, 43676, Control_c, 0, 67, 80
1, 43689, Note_on_c, 0, 69, 56
1, 43691, Control_c, 0, 67, 80
1, 43723, Note_off_c, 0, 69, 57
1, 43764, Note_on_c, 0, 64, 61
1, 43779, Control_c, 0, 67, 81
1, 43794, Control_c, 0, 67, 81
1, 43811, Note_off_c, 0, 64, 60
1, 43823, Control_c, 0, 67, 82
1, 43829, Note_on_c, 0, 66, 59
1, 43876, Control_c, 0, 67, 82
1, 43880, Note_off_c, 0, 66, 63
1, 43898, Note_on_c, 0, 68, 56
1, 43920, Control_c, 0, 67, 83
1, 43931, Note_off_c, 0, 68, 67
1, 43964, Control_c, 0, 67, 83
1, 43965, Note_on_c, 0, 69, 62
1, 43978, Note_on_c, 0, 49, 46
1, 43985, Note_on_c, 0, 57, 46
1, 43986, Note_on_c, 0, 52, 43
1, 44023, Control_c, 0, 67, 84
1, 44024, Note_off_c, 0, 69, 63
1, 44029, Note_on_c, 0, 71, 58
1, 44070, Note_off_c, 0, 71, 64
1, 44103, Note_on_c, 0, 73, 71
1, 44112, Control_c, 0, 67, 83
1, 44125, Note_off_c, 0, 49, 62
1, 44127, Control_c, 0, 67, 83
1, 44129, Note_off_c, 0, 52, 63
1, 44132, Note_off_c, 0, 57, 63
1, 44166, Note_off_c, 0, 73, 61
1, 44172, Control_c, 0, 67, 82
1, 44176, Note_on_c, 0, 71, 53
1, 44197, Note_off_c, 0, 71, 62
1, 44217, Control_c, 0, 67, 82
1, 44237, Note_on_c, 0, 69, 54
1, 44276, Note_off_c, 0, 69, 58
1, 44309, Note_on_c, 0, 64, 64
1, 44372, Note_off_c, 0, 64, 63
1, 44379, Note_on_c, 0, 66, 61
1, 44391, Note_on_c, 0, 49, 59
1, 44393, Note_on_c, 0, 57, 63
1, 44398, Note_on_c, 0, 52, 51
1, 44414, Note_off_c, 0, 57, 63
1, 44419, Note_off_c, 0, 49, 63
1, 44424, Note_off_c, 0, 52, 58
1, 44427, Note_off_c, 0, 66, 63
1, 44438, Note_on_c, 0, 68, 62
1, 44438, Control_c, 0, 67, 82
1, 44469, Control_c, 0, 67, 82
1, 44470, Note_off_c, 0, 68, 67
1, 44499, Control_c, 0, 67, 81
1, 44505, Note_on_c, 0, 69, 71
1, 44528, Control_c, 0, 67, 81
1, 44543, Control_c, 0, 67, 80
1, 44558, Control_c, 0, 67, 80
1, 44570, Note_on_c, 0, 71, 71
1, 44572, Control_c, 0, 67, 79
1, 44576, Note_off_c, 0, 69, 62
1, 44587, Control_c, 0, 67, 79
1, 44610, Control_c, 0, 67, 78
1, 44625, Control_c, 0, 67, 77
1, 44625, Note_off_c, 0, 71, 67
1, 44651, Note_on_c, 0, 73, 75
1, 44664, Note_on_c, 0, 52, 69
1, 44666, Note_on_c, 0, 49, 65
1, 44666, Note_on_c, 0, 57, 75
1, 44692, Note_off_c, 0, 52, 66
1, 44694, Note_off_c, 0, 57, 66
1, 44695, Note_off_c, 0, 49, 65
1, 44717, Note_on_c, 0, 71, 75
1, 44728, Control_c, 0, 67, 78
1, 44729, Note_off_c, 0, 73, 61
1, 44756, Note_off_c, 0, 71, 61
1, 44798, Note_on_c, 0, 69, 64
1, 44857, Note_off_c, 0, 69, 61
1, 44868, Note_on_c, 0, 64, 71
1, 44890, Control_c, 0, 67, 78
1, 44933, Note_on_c, 0, 66, 73
1, 44942, Note_on_c, 0, 57, 79
1, 44944, Note_on_c, 0, 49, 73
1, 44945, Note_on_c, 0, 52, 71
1, 44947, Note_off_c, 0, 64, 61
1, 44966, Note_off_c, 0, 57, 67
1, 44968, Note_off_c, 0, 49, 66
1, 44974, Note_off_c, 0, 52, 66
1, 45002, Note_on_c, 0, 68, 69
1, 45002, Note_off_c, 0, 66, 63
1, 45039, Note_off_c, 0, 68, 61
1, 45070, Note_on_c, 0, 69, 74
1, 45140, Note_off_c, 0, 69, 64
1, 45141, Note_on_c, 0, 71, 71
1, 45157, Control_c, 0, 67, 78
1, 45171, Control_c, 0, 67, 77
1, 45183, Note_off_c, 0, 71, 62
1, 45186, Control_c, 0, 67, 76
1, 45201, Control_c, 0, 67, 75
1, 45209, Note_on_c, 0, 73, 80
1, 45216, Control_c, 0, 67, 73
1, 45217, Note_on_c, 0, 57, 77
1, 45221, Note_on_c, 0, 49, 72
1, 45223, Note_on_c, 0, 52, 68
1, 45230, Control_c, 0, 67, 68
1, 45245, Control_c, 0, 67, 64
1, 45246, Note_off_c, 0, 57, 67
1, 45250, Note_off_c, 0, 52, 66
1, 45251, Note_off_c, 0, 49, 63
1, 45260, Control_c, 0, 67, 62
1, 45276, Control_c, 0, 67, 60
1, 45286, Note_on_c, 0, 71, 70
1, 45291, Control_c, 0, 67, 59
1, 45296, Note_off_c, 0, 73, 59
1, 45306, Control_c, 0, 67, 58
1, 45320, Control_c, 0, 67, 57
1, 45330, Note_off_c, 0, 71, 60
1, 45335, Control_c, 0, 67, 56
1, 45358, Control_c, 0, 67, 55
1, 45366, Note_on_c, 0, 49, 65
1, 45368, Note_on_c, 0, 57, 77
1, 45369, Note_on_c, 0, 69, 67
1, 45370, Note_on_c, 0, 52, 60
1, 45442, Note_off_c, 0, 69, 58
1, 45448, Note_on_c, 0, 64, 80
1, 45517, Note_on_c, 0, 66, 74
1, 45520, Note_off_c, 0, 64, 64
1, 45535, Control_c, 0, 67, 56
1, 45575, Note_on_c, 0, 68, 71
1, 45575, Note_off_c, 0, 66, 64
1, 45594, Control_c, 0, 67, 55
1, 45608, Note_off_c, 0, 68, 60
1, 45609, Control_c, 0, 67, 54
1, 45624, Control_c, 0, 67, 54
1, 45639, Control_c, 0, 67, 53
1, 45647, Note_on_c, 0, 69, 62
1, 45654, Control_c, 0, 67, 50
1, 45668, Control_c, 0, 67, 46
1, 45683, Control_c, 0, 67, 41
1, 45698, Control_c, 0, 67, 37
1, 45701, Note_on_c, 0, 71, 73
1, 45701, Note_off_c, 0, 69, 65
1, 45713, Control_c, 0, 67, 35
1, 45727, Control_c, 0, 67, 34
1, 45770, Note_off_c, 0, 49, 62
1, 45773, Note_off_c, 0, 52, 63
1, 45777, Note_on_c, 0, 73, 79
1, 45781, Note_off_c, 0, 57, 62
1, 45789, Note_off_c, 0, 71, 63
1, 45839, Note_on_c, 0, 74, 71
1, 45847, Note_off_c, 0, 73, 64
1, 45864, Note_off_c, 0, 74, 70
1, 45905, Note_on_c, 0, 76, 81
1, 45934, Control_c, 0, 67, 33
1, 45949, Control_c, 0, 67, 28
1, 45964, Control_c, 0, 67, 16
1, 45971, Note_on_c, 0, 78, 78
1, 45979, Control_c, 0, 67, 0
1, 45996, Note_off_c, 0, 76, 60
1, 46023, Note_on_c, 0, 80, 78
1, 46062, Note_off_c, 0, 78, 65
1, 46092, Note_on_c, 0, 81, 78
1, 46106, Note_off_c, 0, 80, 65
1, 46120, Note_off_c, 0, 81, 66
1, 46150, Control_c, 0, 64, 24
1, 46154, Note_on_c, 0, 83, 85
1, 46165, Control_c, 0, 64, 34
1, 46180, Control_c, 0, 64, 41
1, 46195, Control_c, 0, 64, 46
1, 46210, Control_c, 0, 64, 50
1, 46223, Note_on_c, 0, 85, 83
1, 46224, Control_c, 0, 64, 51
1, 46239, Control_c, 0, 64, 51
1, 46250, Note_off_c, 0, 83, 61
1, 46254, Control_c, 0, 64, 52
1, 46269, Control_c, 0, 64, 53
1, 46284, Control_c, 0, 64, 55
1, 46292, Note_on_c, 0, 86, 79
1, 46299, Control_c, 0, 64, 58
1, 46314, Control_c, 0, 64, 61
1, 46329, Control_c, 0, 64, 64
1, 46330, Note_off_c, 0, 85, 59
1, 46343, Control_c, 0, 64, 67
1, 46353, Note_on_c, 0, 87, 81
1, 46358, Control_c, 0, 64, 69
1, 46373, Control_c, 0, 64, 67
1, 46378, Note_off_c, 0, 86, 64
1, 46388, Control_c, 0, 64, 53
1, 46403, Control_c, 0, 64, 0
1, 46405, Note_off_c, 0, 87, 64
1, 46440, Note_on_c, 0, 88, 101
1, 46447, Control_c, 0, 64, 15
1, 46448, Note_on_c, 0, 49, 74
1, 46449, Note_on_c, 0, 76, 92
1, 46462, Control_c, 0, 64, 55
1, 46476, Control_c, 0, 64, 66
1, 46491, Control_c, 0, 64, 75
1, 46506, Control_c, 0, 64, 83
1, 46514, Note_off_c, 0, 49, 61
1, 46521, Control_c, 0, 64, 89
1, 46536, Control_c, 0, 64, 95
1, 46539, Note_on_c, 0, 57, 67
1, 46551, Control_c, 0, 64, 99
1, 46566, Control_c, 0, 64, 103
1, 46581, Control_c, 0, 64, 107
1, 46595, Control_c, 0, 64, 110
1, 46602, Note_off_c, 0, 57, 46
1, 46610, Control_c, 0, 64, 113
1, 46616, Note_on_c, 0, 52, 75
1, 46625, Control_c, 0, 64, 115
1, 46640, Control_c, 0, 64, 120
1, 46649, Note_off_c, 0, 52, 65
1, 46655, Control_c, 0, 64, 127
1, 46685, Note_on_c, 0, 57, 69
1, 46734, Note_off_c, 0, 57, 60
1, 46765, Note_on_c, 0, 49, 72
1, 46784, Note_off_c, 0, 88, 61
1, 46804, Note_off_c, 0, 49, 57
1, 46809, Note_on_c, 0, 57, 64
1, 46823, Note_off_c, 0, 76, 57
1, 46861, Note_off_c, 0, 57, 60
1, 46889, Note_on_c, 0, 52, 64
1, 46957, Note_on_c, 0, 57, 74
1, 46957, Note_off_c, 0, 52, 57
1, 46991, Note_off_c, 0, 57, 61
1, 47019, Control_c, 0, 64, 113
1, 47034, Control_c, 0, 64, 87
1, 47042, Note_on_c, 0, 80, 97
1, 47046, Note_on_c, 0, 68, 88
1, 47048, Note_on_c, 0, 50, 82
1, 47048, Control_c, 0, 64, 69
1, 47062, Control_c, 0, 64, 45
1, 47077, Control_c, 0, 64, 37
1, 47091, Control_c, 0, 64, 54
1, 47106, Control_c, 0, 64, 67
1, 47121, Control_c, 0, 64, 78
1, 47122, Note_off_c, 0, 50, 60
1, 47136, Note_on_c, 0, 59, 76
1, 47136, Control_c, 0, 64, 92
1, 47151, Control_c, 0, 64, 108
1, 47165, Control_c, 0, 64, 115
1, 47180, Control_c, 0, 64, 115
1, 47186, Note_off_c, 0, 59, 52
1, 47195, Control_c, 0, 64, 116
1, 47210, Control_c, 0, 64, 117
1, 47225, Control_c, 0, 64, 125
1, 47227, Note_on_c, 0, 53, 68
1, 47239, Control_c, 0, 64, 127
1, 47256, Note_off_c, 0, 53, 66
1, 47287, Note_on_c, 0, 59, 72
1, 47335, Note_off_c, 0, 59, 60
1, 47350, Note_on_c, 0, 50, 71
1, 47415, Note_off_c, 0, 68, 63
1, 47424, Note_on_c, 0, 59, 77
1, 47427, Note_off_c, 0, 50, 63
1, 47437, Note_off_c, 0, 80, 62
1, 47457, Note_off_c, 0, 59, 61
1, 47463, Note_on_c, 0, 53, 64
1, 47514, Note_off_c, 0, 53, 67
1, 47547, Note_on_c, 0, 59, 76
1, 47605, Note_off_c, 0, 59, 59
1, 47647, Control_c, 0, 64, 103
1, 47649, Note_on_c, 0, 51, 78
1, 47651, Note_on_c, 0, 83, 105
1, 47661, Note_on_c, 0, 71, 89
1, 47662, Control_c, 0, 64, 77
1, 47678, Control_c, 0, 64, 56
1, 47692, Control_c, 0, 64, 0
1, 47722, Control_c, 0, 64, 40
1, 47731, Note_off_c, 0, 51, 61
1, 47737, Control_c, 0, 64, 68
1, 47743, Note_on_c, 0, 59, 73
1, 47752, Control_c, 0, 64, 84
1, 47767, Control_c, 0, 64, 119
1, 47782, Control_c, 0, 64, 127
1, 47797, Note_off_c, 0, 59, 55
1, 47812, Note_on_c, 0, 56, 82
1, 47856, Note_off_c, 0, 56, 59
1, 47881, Note_on_c, 0, 80, 12
1, 47892, Note_on_c, 0, 59, 73
1, 47919, Note_off_c, 0, 59, 61
1, 47943, Note_off_c, 0, 83, 60
1, 47953, Note_on_c, 0, 51, 81
1, 47975, Note_off_c, 0, 71, 65
1, 47981, Note_off_c, 0, 80, 43
1, 48010, Note_off_c, 0, 51, 59
1, 48028, Note_on_c, 0, 59, 70
1, 48055, Note_off_c, 0, 59, 67
1, 48056, Note_on_c, 0, 56, 83
1, 48106, Note_off_c, 0, 56, 62
1, 48134, Note_on_c, 0, 59, 75
1, 48160, Note_off_c, 0, 59, 64
1, 48255, Control_c, 0, 64, 89
1, 48261, Note_on_c, 0, 67, 93
1, 48267, Note_on_c, 0, 61, 94
1, 48270, Control_c, 0, 64, 69
1, 48272, Note_on_c, 0, 55, 94
1, 48275, Note_on_c, 0, 39, 89
1, 48285, Control_c, 0, 64, 52
1, 48300, Control_c, 0, 64, 53
1, 48301, Note_on_c, 0, 63, 59
1, 48314, Control_c, 0, 64, 65
1, 48329, Control_c, 0, 64, 80
1, 48351, Control_c, 0, 64, 113
1, 48366, Control_c, 0, 64, 127
1, 48371, Note_off_c, 0, 39, 57
1, 48384, Note_on_c, 0, 51, 72
1, 48426, Control_c, 0, 64, 110
1, 48440, Control_c, 0, 64, 104
1, 48455, Control_c, 0, 64, 97
1, 48469, Note_on_c, 0, 50, 79
1, 48471, Control_c, 0, 64, 86
1, 48474, Note_off_c, 0, 51, 62
1, 48486, Control_c, 0, 64, 71
1, 48500, Control_c, 0, 64, 64
1, 48515, Control_c, 0, 64, 64
1, 48530, Control_c, 0, 64, 71
1, 48539, Note_off_c, 0, 50, 66
1, 48545, Control_c, 0, 64, 82
1, 48545, Note_on_c, 0, 51, 74
1, 48560, Control_c, 0, 64, 99
1, 48575, Control_c, 0, 64, 125
1, 48577, Note_off_c, 0, 63, 0
1, 48590, Control_c, 0, 64, 127
1, 48608, Note_off_c, 0, 51, 63
1, 48611, Note_on_c, 0, 50, 82
1, 48614, Poly_aftertouch_c, 0, 63, 127
1, 48646, Note_off_c, 0, 50, 63
1, 48673, Note_on_c, 0, 51, 73
1, 48678, Note_off_c, 0, 55, 60
1, 48687, Poly_aftertouch_c, 0, 63, 0
1, 48687, Note_off_c, 0, 67, 56
1, 48705, Note_off_c, 0, 61, 60
1, 48710, Note_off_c, 0, 51, 59
1, 48736, Note_on_c, 0, 50, 64
1, 48763, Note_off_c, 0, 50, 67
1, 48789, Note_on_c, 0, 51, 73
1, 48822, Note_off_c, 0, 51, 62
1, 48870, Control_c, 0, 67, 10
1, 48885, Control_c, 0, 64, 123
1, 48885, Control_c, 0, 67, 16
1, 48898, Note_on_c, 0, 68, 79
1, 48900, Control_c, 0, 64, 89
1, 48900, Control_c, 0, 67, 22
1, 48906, Note_on_c, 0, 44, 80
1, 48909, Note_on_c, 0, 56, 61
1, 48915, Control_c, 0, 64, 68
1, 48915, Control_c, 0, 67, 31
1, 48930, Control_c, 0, 64, 28
1, 48930, Control_c, 0, 67, 43
1, 48932, Note_off_c, 0, 56, 60
1, 48938, Note_off_c, 0, 68, 60
1, 48941, Note_off_c, 0, 44, 62
1, 48944, Control_c, 0, 64, 0
1, 48944, Control_c, 0, 67, 55
1, 48959, Control_c, 0, 67, 68
1, 48974, Control_c, 0, 67, 77
1, 48989, Control_c, 0, 67, 83
1, 49004, Control_c, 0, 67, 87
1, 49019, Control_c, 0, 67, 89
1, 49034, Control_c, 0, 67, 93
1, 49049, Control_c, 0, 67, 101
1, 49056, Note_on_c, 0, 56, 62
1, 49063, Note_on_c, 0, 71, 57
1, 49063, Control_c, 0, 67, 113
1, 49069, Note_on_c, 0, 63, 53
1, 49078, Control_c, 0, 67, 121
1, 49091, Note_off_c, 0, 71, 61
1, 49094, Note_off_c, 0, 56, 65
1, 49100, Note_off_c, 0, 63, 61
1, 49100, Control_c, 0, 67, 127
1, 49190, Note_on_c, 0, 71, 55
1, 49191, Note_on_c, 0, 63, 60
1, 49210, Note_on_c, 0, 56, 55
1, 49228, Note_off_c, 0, 63, 63
1, 49238, Note_off_c, 0, 71, 62
1, 49242, Note_off_c, 0, 56, 64
1, 49326, Note_on_c, 0, 63, 60
1, 49328, Note_on_c, 0, 71, 61
1, 49334, Note_on_c, 0, 56, 49
1, 49359, Note_off_c, 0, 63, 65
1, 49360, Note_off_c, 0, 56, 58
1, 49362, Note_off_c, 0, 71, 63
1, 49455, Note_on_c, 0, 56, 56
1, 49457, Note_on_c, 0, 71, 67
1, 49466, Note_on_c, 0, 63, 63
1, 49487, Note_off_c, 0, 71, 64
1, 49490, Note_off_c, 0, 56, 64
1, 49496, Note_off_c, 0, 63, 65
1, 49587, Note_on_c, 0, 71, 73
1, 49599, Note_on_c, 0, 63, 65
1, 49601, Note_on_c, 0, 56, 53
1, 49626, Note_off_c, 0, 56, 60
1, 49628, Note_off_c, 0, 63, 66
1, 49632, Note_off_c, 0, 71, 61
1, 49719, Note_on_c, 0, 58, 71
1, 49722, Note_on_c, 0, 63, 72
1, 49727, Note_on_c, 0, 70, 73
1, 49748, Note_off_c, 0, 58, 65
1, 49752, Note_off_c, 0, 63, 66
1, 49767, Note_off_c, 0, 70, 60
1, 49860, Note_on_c, 0, 68, 70
1, 49866, Note_on_c, 0, 59, 65
1, 49866, Note_on_c, 0, 63, 67
1, 49889, Note_off_c, 0, 63, 65
1, 49889, Note_off_c, 0, 68, 66
1, 49894, Note_off_c, 0, 59, 65
1, 49968, Control_c, 0, 64, 42
1, 49983, Control_c, 0, 64, 53
1, 49993, Note_on_c, 0, 51, 70
1, 49995, Note_on_c, 0, 63, 65
1, 49997, Note_on_c, 0, 61, 72
1, 49998, Control_c, 0, 64, 59
1, 50006, Note_on_c, 0, 67, 71
1, 50012, Control_c, 0, 64, 62
1, 50012, Control_c, 0, 67, 127
1, 50024, Note_off_c, 0, 63, 65
1, 50024, Note_off_c, 0, 51, 65
1, 50024, Note_off_c, 0, 61, 65
1, 50027, Control_c, 0, 64, 65
1, 50027, Control_c, 0, 67, 126
1, 50033, Note_off_c, 0, 67, 67
1, 50042, Control_c, 0, 64, 67
1, 50042, Control_c, 0, 67, 126
1, 50057, Control_c, 0, 64, 69
1, 50073, Control_c, 0, 64, 70
1, 50088, Control_c, 0, 64, 70
1, 50103, Control_c, 0, 64, 69
1, 50117, Control_c, 0, 64, 66
1, 50131, Note_on_c, 0, 61, 53
1, 50132, Control_c, 0, 64, 61
1, 50134, Note_on_c, 0, 63, 54
1, 50147, Control_c, 0, 64, 51
1, 50149, Note_on_c, 0, 67, 61
1, 50155, Note_on_c, 0, 75, 62
1, 50162, Control_c, 0, 64, 29
1, 50162, Control_c, 0, 67, 126
1, 50169, Note_off_c, 0, 63, 65
1, 50173, Note_off_c, 0, 67, 64
1, 50176, Note_off_c, 0, 61, 62
1, 50177, Control_c, 0, 64, 0
1, 50178, Note_off_c, 0, 75, 60
1, 50273, Note_on_c, 0, 75, 62
1, 50279, Note_on_c, 0, 67, 60
1, 50283, Note_on_c, 0, 61, 59
1, 50283, Note_on_c, 0, 63, 60
1, 50307, Note_off_c, 0, 67, 66
1, 50315, Note_off_c, 0, 75, 59
1, 50316, Note_off_c, 0, 61, 64
1, 50316, Note_off_c, 0, 63, 65
1, 50410, Note_on_c, 0, 67, 62
1, 50412, Note_on_c, 0, 63, 55
1, 50414, Note_on_c, 0, 75, 69
1, 50420, Note_on_c, 0, 61, 51
1, 50438, Note_off_c, 0, 67, 65
1, 50441, Note_off_c, 0, 75, 64
1, 50447, Note_off_c, 0, 63, 64
1, 50450, Note_off_c, 0, 61, 64
1, 50538, Note_on_c, 0, 67, 69
1, 50539, Note_on_c, 0, 75, 69
1, 50549, Note_on_c, 0, 63, 55
1, 50553, Note_on_c, 0, 61, 55
1, 50562, Control_c, 0, 67, 126
1, 50563, Note_off_c, 0, 67, 66
1, 50569, Note_off_c, 0, 75, 62
1, 50577, Control_c, 0, 67, 125
1, 50590, Note_off_c, 0, 63, 65
1, 50592, Note_off_c, 0, 61, 64
1, 50629, Control_c, 0, 67, 125
1, 50643, Control_c, 0, 67, 124
1, 50658, Control_c, 0, 67, 124
1, 50667, Note_on_c, 0, 67, 66
1, 50674, Note_on_c, 0, 75, 64
1, 50677, Note_on_c, 0, 61, 63
1, 50680, Note_on_c, 0, 63, 59
1, 50697, Note_off_c, 0, 67, 66
1, 50702, Note_off_c, 0, 75, 66
1, 50711, Note_off_c, 0, 63, 65
1, 50717, Control_c, 0, 67, 123
1, 50718, Note_off_c, 0, 61, 61
1, 50796, Note_on_c, 0, 63, 67
1, 50797, Note_on_c, 0, 68, 79
1, 50808, Note_on_c, 0, 75, 50
1, 50810, Note_on_c, 0, 59, 58
1, 50826, Note_off_c, 0, 68, 61
1, 50830, Note_off_c, 0, 63, 62
1, 50834, Note_off_c, 0, 75, 63
1, 50840, Note_off_c, 0, 59, 64
1, 50918, Note_on_c, 0, 75, 74
1, 50925, Note_on_c, 0, 63, 65
1, 50925, Control_c, 0, 67, 124
1, 50933, Note_on_c, 0, 58, 62
1, 50939, Control_c, 0, 67, 124
1, 50945, Note_on_c, 0, 70, 50
1, 50956, Note_off_c, 0, 63, 65
1, 50960, Note_off_c, 0, 58, 66
1, 50962, Note_off_c, 0, 75, 62
1, 50968, Note_off_c, 0, 70, 58
1, 51028, Control_c, 0, 64, 32
1, 51043, Control_c, 0, 64, 57
1, 51058, Control_c, 0, 64, 60
1, 51064, Note_on_c, 0, 71, 74
1, 51068, Note_on_c, 0, 56, 70
1, 51069, Note_on_c, 0, 75, 71
1, 51073, Control_c, 0, 64, 59
1, 51073, Note_on_c, 0, 44, 66
1, 51090, Note_off_c, 0, 71, 66
1, 51094, Note_off_c, 0, 75, 68
1, 51096, Note_off_c, 0, 56, 66
1, 51106, Note_off_c, 0, 44, 62
1, 51118, Control_c, 0, 64, 58
1, 51132, Control_c, 0, 64, 56
1, 51147, Control_c, 0, 64, 52
1, 51162, Control_c, 0, 64, 43
1, 51177, Control_c, 0, 64, 25
1, 51192, Control_c, 0, 64, 0
1, 51201, Note_on_c, 0, 71, 60
1, 51210, Note_on_c, 0, 56, 53
1, 51213, Note_on_c, 0, 63, 69
1, 51242, Note_off_c, 0, 56, 63
1, 51242, Note_off_c, 0, 63, 67
1, 51252, Note_off_c, 0, 71, 64
1, 51341, Note_on_c, 0, 56, 62
1, 51356, Note_on_c, 0, 71, 67
1, 51360, Note_on_c, 0, 63, 57
1, 51376, Note_off_c, 0, 56, 64
1, 51383, Note_off_c, 0, 63, 62
1, 51386, Note_off_c, 0, 71, 65
1, 51472, Note_on_c, 0, 71, 76
1, 51476, Note_on_c, 0, 63, 65
1, 51481, Note_on_c, 0, 56, 40
1, 51495, Control_c, 0, 67, 123
1, 51508, Note_off_c, 0, 63, 65
1, 51509, Note_off_c, 0, 56, 55
1, 51510, Control_c, 0, 67, 123
1, 51520, Note_off_c, 0, 71, 65
1, 51525, Control_c, 0, 67, 122
1, 51539, Control_c, 0, 67, 119
1, 51554, Control_c, 0, 67, 112
1, 51569, Control_c, 0, 67, 104
1, 51584, Control_c, 0, 67, 93
1, 51596, Note_on_c, 0, 56, 58
1, 51599, Control_c, 0, 67, 81
1, 51613, Control_c, 0, 67, 73
1, 51615, Note_on_c, 0, 63, 70
1, 51617, Note_on_c, 0, 71, 70
1, 51628, Control_c, 0, 67, 71
1, 51633, Note_off_c, 0, 56, 63
1, 51643, Note_off_c, 0, 63, 67
1, 51643, Note_off_c, 0, 71, 68
1, 51643, Control_c, 0, 67, 72
1, 51659, Control_c, 0, 67, 72
1, 51688, Control_c, 0, 67, 73
1, 51703, Control_c, 0, 67, 73
1, 51718, Control_c, 0, 67, 74
1, 51738, Note_on_c, 0, 56, 59
1, 51741, Note_on_c, 0, 71, 67
1, 51748, Control_c, 0, 67, 74
1, 51749, Note_on_c, 0, 63, 71
1, 51767, Note_off_c, 0, 56, 66
1, 51776, Note_off_c, 0, 71, 63
1, 51777, Note_off_c, 0, 63, 67
1, 51792, Control_c, 0, 67, 75
1, 51858, Note_on_c, 0, 58, 67
1, 51866, Control_c, 0, 67, 75
1, 51871, Note_on_c, 0, 63, 68
1, 51873, Note_on_c, 0, 70, 70
1, 51896, Control_c, 0, 67, 76
1, 51897, Note_off_c, 0, 58, 63
1, 51899, Note_off_c, 0, 63, 67
1, 51909, Note_off_c, 0, 70, 60
1, 51992, Note_on_c, 0, 63, 73
1, 51997, Note_on_c, 0, 68, 68
1, 51998, Note_on_c, 0, 59, 59
1, 52000, Control_c, 0, 67, 76
1, 52021, Note_off_c, 0, 63, 65
1, 52025, Note_off_c, 0, 68, 67
1, 52027, Note_off_c, 0, 59, 65
1, 52044, Control_c, 0, 67, 76
1, 52074, Control_c, 0, 67, 75
1, 52095, Control_c, 0, 64, 36
1, 52110, Control_c, 0, 64, 55
1, 52125, Control_c, 0, 64, 61
1, 52130, Note_on_c, 0, 63, 70
1, 52131, Note_on_c, 0, 61, 65
1, 52140, Control_c, 0, 64, 65
1, 52142, Note_on_c, 0, 51, 50
1, 52148, Note_on_c, 0, 67, 64
1, 52155, Control_c, 0, 64, 69
1, 52161, Note_off_c, 0, 63, 65
1, 52161, Note_off_c, 0, 61, 62
1, 52169, Note_off_c, 0, 51, 56
1, 52170, Control_c, 0, 64, 73
1, 52170, Control_c, 0, 67, 75
1, 52176, Note_off_c, 0, 67, 66
1, 52185, Control_c, 0, 64, 75
1, 52200, Control_c, 0, 64, 76
1, 52200, Control_c, 0, 67, 75
1, 52244, Control_c, 0, 64, 75
1, 52244, Control_c, 0, 67, 76
1, 52259, Control_c, 0, 64, 71
1, 52271, Note_on_c, 0, 63, 56
1, 52274, Note_on_c, 0, 61, 51
1, 52274, Control_c, 0, 64, 65
1, 52274, Control_c, 0, 67, 76
1, 52274, Note_on_c, 0, 67, 68
1, 52281, Note_on_c, 0, 75, 70
1, 52289, Control_c, 0, 64, 48
1, 52301, Note_off_c, 0, 63, 66
1, 52304, Control_c, 0, 64, 0
1, 52304, Control_c, 0, 67, 76
1, 52307, Note_off_c, 0, 67, 65
1, 52310, Note_off_c, 0, 75, 64
1, 52315, Note_off_c, 0, 61, 63
1, 52409, Note_on_c, 0, 67, 71
1, 52413, Note_on_c, 0, 75, 68
1, 52418, Note_on_c, 0, 61, 58
1, 52420, Note_on_c, 0, 63, 53
1, 52437, Note_off_c, 0, 67, 67
1, 52441, Note_off_c, 0, 75, 63
1, 52450, Note_off_c, 0, 63, 64
1, 52453, Note_off_c, 0, 61, 63
1, 52542, Note_on_c, 0, 75, 70
1, 52542, Note_on_c, 0, 67, 67
1, 52543, Note_on_c, 0, 63, 58
1, 52551, Note_on_c, 0, 61, 53
1, 52568, Note_off_c, 0, 67, 66
1, 52573, Note_off_c, 0, 75, 59
1, 52581, Note_off_c, 0, 63, 63
1, 52583, Note_off_c, 0, 61, 65
1, 52601, Control_c, 0, 67, 75
1, 52668, Note_on_c, 0, 67, 68
1, 52672, Note_on_c, 0, 75, 71
1, 52680, Note_on_c, 0, 63, 61
1, 52682, Note_on_c, 0, 61, 61
1, 52697, Note_off_c, 0, 67, 67
1, 52698, Note_off_c, 0, 75, 63
1, 52715, Note_off_c, 0, 63, 64
1, 52721, Note_off_c, 0, 61, 62
1, 52734, Control_c, 0, 67, 75
1, 52779, Control_c, 0, 67, 74
1, 52799, Note_on_c, 0, 67, 72
1, 52802, Note_on_c, 0, 61, 71
1, 52804, Note_on_c, 0, 75, 65
1, 52806, Note_on_c, 0, 63, 62
1, 52808, Control_c, 0, 67, 74
1, 52823, Control_c, 0, 67, 73
1, 52824, Note_off_c, 0, 67, 66
1, 52838, Note_off_c, 0, 75, 66
1, 52844, Note_off_c, 0, 63, 65
1, 52849, Note_off_c, 0, 61, 60
1, 52875, Control_c, 0, 67, 73
1, 52890, Control_c, 0, 67, 72
1, 52936, Note_on_c, 0, 75, 56
1, 52936, Note_on_c, 0, 68, 74
1, 52937, Note_on_c, 0, 63, 57
1, 52961, Note_on_c, 0, 59, 38
1, 52964, Note_off_c, 0, 75, 64
1, 52965, Note_off_c, 0, 68, 64
1, 52970, Note_off_c, 0, 63, 65
1, 52990, Note_off_c, 0, 59, 52
1, 52993, Control_c, 0, 67, 73
1, 53008, Control_c, 0, 67, 73
1, 53023, Control_c, 0, 67, 74
1, 53037, Control_c, 0, 67, 74
1, 53050, Note_on_c, 0, 63, 55
1, 53052, Control_c, 0, 67, 75
1, 53054, Note_on_c, 0, 75, 67
1, 53064, Note_on_c, 0, 58, 52
1, 53067, Control_c, 0, 67, 75
1, 53073, Note_on_c, 0, 70, 55
1, 53073, Note_off_c, 0, 63, 60
1, 53082, Note_off_c, 0, 75, 65
1, 53088, Note_off_c, 0, 58, 59
1, 53094, Note_off_c, 0, 70, 60
1, 53186, Note_on_c, 0, 56, 74
1, 53192, Note_on_c, 0, 71, 74
1, 53192, Note_on_c, 0, 75, 72
1, 53194, Note_on_c, 0, 44, 62
1, 53210, Note_off_c, 0, 56, 67
1, 53214, Note_off_c, 0, 71, 71
1, 53218, Note_off_c, 0, 44, 58
1, 53222, Note_off_c, 0, 75, 60
1, 53291, Control_c, 0, 67, 75
1, 53320, Control_c, 0, 67, 75
1, 53324, Note_on_c, 0, 75, 70
1, 53328, Note_on_c, 0, 56, 44
1, 53331, Note_on_c, 0, 71, 65
1, 53336, Note_on_c, 0, 59, 61
1, 53350, Control_c, 0, 67, 76
1, 53357, Note_off_c, 0, 71, 65
1, 53361, Note_off_c, 0, 59, 64
1, 53362, Note_off_c, 0, 75, 58
1, 53365, Note_off_c, 0, 56, 64
1, 53395, Control_c, 0, 67, 75
1, 53424, Control_c, 0, 67, 75
1, 53448, Note_on_c, 0, 56, 68
1, 53451, Note_on_c, 0, 59, 58
1, 53451, Note_on_c, 0, 71, 66
1, 53452, Note_on_c, 0, 75, 77
1, 53468, Control_c, 0, 67, 75
1, 53489, Note_off_c, 0, 59, 62
1, 53489, Note_off_c, 0, 71, 64
1, 53498, Control_c, 0, 67, 76
1, 53520, Note_off_c, 0, 56, 54
1, 53550, Note_off_c, 0, 75, 54
1, 53574, Note_on_c, 0, 56, 27
1, 53588, Note_on_c, 0, 63, 46
1, 53592, Note_on_c, 0, 71, 72
1, 53605, Note_on_c, 0, 68, 51
1, 53610, Control_c, 0, 67, 76
1, 53615, Note_off_c, 0, 56, 52
1, 53616, Note_off_c, 0, 63, 55
1, 53616, Note_off_c, 0, 71, 68
1, 53626, Note_off_c, 0, 68, 60
1, 53683, Control_c, 0, 67, 76
1, 53698, Control_c, 0, 67, 75
1, 53707, Note_on_c, 0, 49, 61
1, 53737, Note_off_c, 0, 49, 64
1, 53787, Control_c, 0, 67, 75
1, 53848, Note_on_c, 0, 61, 64
1, 53857, Note_on_c, 0, 56, 56
1, 53859, Note_on_c, 0, 76, 70
1, 53872, Note_on_c, 0, 73, 47
1, 53875, Note_off_c, 0, 61, 65
1, 53885, Note_off_c, 0, 76, 65
1, 53887, Note_off_c, 0, 56, 65
1, 53899, Note_off_c, 0, 73, 57
1, 53920, Control_c, 0, 67, 74
1, 53964, Note_on_c, 0, 56, 65
1, 53965, Note_on_c, 0, 76, 75
1, 53976, Note_on_c, 0, 61, 58
1, 53980, Note_on_c, 0, 73, 63
1, 53994, Control_c, 0, 67, 75
1, 54012, Note_off_c, 0, 73, 65
1, 54018, Note_off_c, 0, 61, 63
1, 54066, Note_off_c, 0, 76, 52
1, 54075, Note_off_c, 0, 56, 0
1, 54091, Note_on_c, 0, 56, 37
1, 54104, Note_on_c, 0, 73, 66
1, 54107, Note_on_c, 0, 64, 45
1, 54115, Note_on_c, 0, 68, 58
1, 54128, Note_off_c, 0, 56, 64
1, 54128, Control_c, 0, 67, 75
1, 54134, Note_off_c, 0, 68, 65
1, 54135, Note_off_c, 0, 64, 57
1, 54138, Note_off_c, 0, 73, 62
1, 54242, Note_on_c, 0, 51, 52
1, 54270, Note_off_c, 0, 51, 56
1, 54291, Control_c, 0, 67, 75
1, 54376, Note_on_c, 0, 59, 61
1, 54379, Note_on_c, 0, 56, 60
1, 54382, Note_on_c, 0, 71, 63
1, 54382, Note_on_c, 0, 75, 61
1, 54408, Note_off_c, 0, 71, 65
1, 54408, Note_off_c, 0, 59, 63
1, 54415, Note_off_c, 0, 56, 62
1, 54420, Note_off_c, 0, 75, 59
1, 54462, Control_c, 0, 67, 74
1, 54491, Control_c, 0, 67, 75
1, 54503, Note_on_c, 0, 56, 58
1, 54504, Note_on_c, 0, 71, 56
1, 54508, Note_on_c, 0, 59, 56
1, 54509, Note_on_c, 0, 75, 70
1, 54536, Control_c, 0, 67, 75
1, 54538, Note_off_c, 0, 71, 65
1, 54553, Note_off_c, 0, 59, 58
1, 54594, Note_off_c, 0, 56, 0
1, 54617, Note_on_c, 0, 56, 33
1, 54627, Note_on_c, 0, 71, 60
1, 54629, Note_off_c, 0, 75, 34
1, 54633, Note_on_c, 0, 63, 55
1, 54634, Note_on_c, 0, 59, 41
1, 54643, Note_on_c, 0, 68, 51
1, 54654, Control_c, 0, 67, 76
1, 54657, Note_off_c, 0, 63, 62
1, 54658, Note_off_c, 0, 71, 66
1, 54662, Note_off_c, 0, 59, 56
1, 54664, Note_off_c, 0, 56, 61
1, 54666, Note_off_c, 0, 68, 60
1, 54683, Control_c, 0, 67, 75
1, 54768, Note_on_c, 0, 51, 61
1, 54787, Control_c, 0, 67, 75
1, 54801, Note_off_c, 0, 51, 63
1, 54899, Note_on_c, 0, 58, 60
1, 54904, Note_on_c, 0, 70, 65
1, 54909, Note_on_c, 0, 75, 57
1, 54910, Note_on_c, 0, 55, 54
1, 54933, Note_off_c, 0, 75, 63
1, 54936, Note_off_c, 0, 70, 63
1, 54940, Note_off_c, 0, 58, 63
1, 54948, Note_off_c, 0, 55, 62
1, 54966, Control_c, 0, 67, 74
1, 54981, Control_c, 0, 67, 73
1, 54996, Control_c, 0, 67, 72
1, 55011, Control_c, 0, 67, 70
1, 55020, Note_on_c, 0, 75, 62
1, 55025, Note_on_c, 0, 70, 62
1, 55025, Control_c, 0, 67, 69
1, 55031, Note_on_c, 0, 55, 58
1, 55040, Control_c, 0, 67, 65
1, 55049, Note_on_c, 0, 58, 43
1, 55055, Control_c, 0, 67, 60
1, 55058, Note_off_c, 0, 70, 63
1, 55070, Control_c, 0, 67, 52
1, 55085, Note_off_c, 0, 58, 56
1, 55092, Control_c, 0, 67, 44
1, 55095, Note_off_c, 0, 75, 56
1, 55106, Control_c, 0, 67, 39
1, 55121, Control_c, 0, 67, 39
1, 55143, Note_on_c, 0, 63, 60
1, 55147, Note_on_c, 0, 70, 73
1, 55151, Control_c, 0, 67, 39
1, 55157, Note_on_c, 0, 58, 41
1, 55166, Note_off_c, 0, 63, 61
1, 55174, Note_off_c, 0, 55, 56
1, 55180, Control_c, 0, 67, 40
1, 55183, Note_off_c, 0, 70, 54
1, 55188, Note_off_c, 0, 58, 53
1, 55195, Control_c, 0, 67, 40
1, 55210, Control_c, 0, 67, 41
1, 55225, Control_c, 0, 67, 42
1, 55240, Control_c, 0, 67, 43
1, 55270, Control_c, 0, 67, 43
1, 55284, Control_c, 0, 67, 44
1, 55299, Control_c, 0, 67, 44
1, 55307, Note_on_c, 0, 71, 72
1, 55313, Control_c, 0, 67, 45
1, 55315, Note_on_c, 0, 32, 68
1, 55321, Note_on_c, 0, 68, 54
1, 55324, Note_on_c, 0, 44, 53
1, 55328, Control_c, 0, 67, 46
1, 55336, Note_off_c, 0, 71, 67
1, 55343, Note_off_c, 0, 32, 58
1, 55351, Note_off_c, 0, 68, 67
1, 55353, Note_off_c, 0, 44, 54
1, 55387, Control_c, 0, 67, 45
1, 55417, Control_c, 0, 67, 44
1, 55446, Control_c, 0, 67, 44
1, 55461, Control_c, 0, 67, 43
1, 55466, Note_on_c, 0, 83, 59
1, 55467, Note_on_c, 0, 75, 66
1, 55476, Control_c, 0, 67, 43
1, 55480, Note_on_c, 0, 44, 51
1, 55485, Note_on_c, 0, 51, 49
1, 55487, Note_off_c, 0, 83, 60
1, 55490, Note_off_c, 0, 75, 65
1, 55492, Note_on_c, 0, 81, 34
1, 55505, Control_c, 0, 67, 42
1, 55511, Note_off_c, 0, 44, 59
1, 55512, Note_off_c, 0, 51, 57
1, 55523, Note_off_c, 0, 81, 33
1, 55535, Control_c, 0, 67, 41
1, 55550, Control_c, 0, 67, 41
1, 55565, Control_c, 0, 67, 40
1, 55583, Note_on_c, 0, 83, 72
1, 55586, Note_on_c, 0, 75, 65
1, 55589, Note_on_c, 0, 51, 61
1, 55595, Control_c, 0, 67, 39
1, 55595, Note_on_c, 0, 44, 65
1, 55600, Note_on_c, 0, 71, 64
1, 55623, Note_off_c, 0, 71, 65
1, 55625, Note_off_c, 0, 83, 62
1, 55625, Control_c, 0, 67, 38
1, 55628, Note_off_c, 0, 51, 62
1, 55631, Note_off_c, 0, 75, 62
1, 55632, Note_off_c, 0, 44, 61
1, 55639, Control_c, 0, 67, 35
1, 55654, Control_c, 0, 67, 31
1, 55669, Control_c, 0, 67, 28
1, 55714, Control_c, 0, 67, 28
1, 55717, Note_on_c, 0, 71, 64
1, 55717, Note_on_c, 0, 83, 85
1, 55719, Note_on_c, 0, 44, 60
1, 55720, Note_on_c, 0, 51, 65
1, 55720, Note_on_c, 0, 75, 77
1, 55744, Control_c, 0, 67, 27
1, 55747, Note_off_c, 0, 71, 67
1, 55754, Note_off_c, 0, 51, 63
1, 55760, Note_off_c, 0, 44, 59
1, 55762, Note_off_c, 0, 83, 62
1, 55772, Note_off_c, 0, 75, 52
1, 55803, Control_c, 0, 67, 26
1, 55840, Control_c, 0, 67, 26
1, 55849, Note_on_c, 0, 75, 79
1, 55850, Note_on_c, 0, 71, 70
1, 55851, Note_on_c, 0, 83, 84
1, 55852, Note_on_c, 0, 51, 71
1, 55854, Note_on_c, 0, 44, 67
1, 55854, Control_c, 0, 67, 25
1, 55869, Control_c, 0, 67, 17
1, 55877, Note_off_c, 0, 71, 66
1, 55884, Control_c, 0, 67, 0
1, 55890, Note_off_c, 0, 51, 63
1, 55890, Note_off_c, 0, 44, 60
1, 55893, Note_off_c, 0, 83, 64
1, 55910, Note_off_c, 0, 75, 60
1, 55982, Note_on_c, 0, 83, 87
1, 55985, Note_on_c, 0, 44, 72
1, 55987, Note_on_c, 0, 71, 70
1, 55987, Note_on_c, 0, 75, 73
1, 55989, Note_on_c, 0, 51, 74
1, 56010, Note_off_c, 0, 83, 59
1, 56011, Note_off_c, 0, 71, 68
1, 56020, Note_off_c, 0, 51, 63
1, 56021, Note_off_c, 0, 75, 62
1, 56035, Note_off_c, 0, 44, 57
1, 56107, Note_on_c, 0, 51, 63
1, 56113, Note_on_c, 0, 46, 67
1, 56115, Note_on_c, 0, 73, 71
1, 56117, Note_on_c, 0, 82, 68
1, 56120, Note_on_c, 0, 70, 70
1, 56130, Note_off_c, 0, 73, 68
1, 56133, Note_off_c, 0, 82, 67
1, 56146, Note_off_c, 0, 70, 65
1, 56150, Note_off_c, 0, 51, 63
1, 56155, Note_on_c, 0, 80, 35
1, 56168, Note_off_c, 0, 46, 61
1, 56185, Note_off_c, 0, 80, 52
1, 56229, Note_on_c, 0, 47, 70
1, 56232, Note_on_c, 0, 51, 72
1, 56235, Note_on_c, 0, 80, 86
1, 56237, Note_on_c, 0, 68, 80
1, 56240, Note_on_c, 0, 71, 79
1, 56261, Note_on_c, 0, 49, 51
1, 56261, Note_off_c, 0, 68, 68
1, 56263, Note_off_c, 0, 47, 66
1, 56271, Note_on_c, 0, 78, 42
1, 56272, Note_off_c, 0, 78, 127
1, 56272, Note_off_c, 0, 51, 55
1, 56277, Note_off_c, 0, 71, 61
1, 56283, Note_off_c, 0, 80, 63
1, 56290, Note_off_c, 0, 49, 56
1, 56359, Control_c, 0, 64, 34
1, 56364, Note_on_c, 0, 51, 82
1, 56367, Note_on_c, 0, 39, 81
1, 56373, Note_on_c, 0, 49, 67
1, 56374, Control_c, 0, 64, 67
1, 56376, Note_on_c, 0, 79, 99
1, 56379, Note_on_c, 0, 70, 89
1, 56379, Note_on_c, 0, 67, 82
1, 56388, Control_c, 0, 64, 76
1, 56389, Note_off_c, 0, 39, 65
1, 56397, Note_off_c, 0, 70, 73
1, 56399, Note_off_c, 0, 51, 60
1, 56400, Note_off_c, 0, 49, 65
1, 56402, Note_off_c, 0, 67, 69
1, 56403, Control_c, 0, 64, 85
1, 56418, Control_c, 0, 64, 91
1, 56425, Note_off_c, 0, 79, 64
1, 56433, Control_c, 0, 64, 97
1, 56449, Control_c, 0, 64, 102
1, 56464, Control_c, 0, 64, 110
1, 56478, Control_c, 0, 64, 127
1, 56540, Note_on_c, 0, 51, 91
1, 56540, Note_on_c, 0, 88, 105
1, 56540, Note_on_c, 0, 61, 99
1, 56544, Note_on_c, 0, 76, 102
1, 56547, Note_on_c, 0, 79, 93
1, 56564, Note_off_c, 0, 61, 63
1, 56579, Note_off_c, 0, 79, 60
1, 56580, Note_off_c, 0, 76, 63
1, 56591, Note_off_c, 0, 88, 65
1, 56592, Note_off_c, 0, 51, 64
1, 56680, Note_on_c, 0, 51, 90
1, 56680, Note_on_c, 0, 61, 96
1, 56685, Note_on_c, 0, 88, 108
1, 56689, Note_on_c, 0, 76, 102
1, 56690, Note_on_c, 0, 79, 99
1, 56722, Note_off_c, 0, 76, 64
1, 56722, Note_off_c, 0, 79, 68
1, 56725, Note_off_c, 0, 61, 64
1, 56730, Note_off_c, 0, 51, 63
1, 56735, Note_off_c, 0, 88, 61
1, 56810, Note_on_c, 0, 61, 92
1, 56812, Note_on_c, 0, 88, 101
1, 56813, Note_on_c, 0, 51, 79
1, 56814, Note_on_c, 0, 79, 91
1, 56816, Note_on_c, 0, 76, 96
1, 56851, Note_off_c, 0, 76, 62
1, 56852, Note_off_c, 0, 61, 65
1, 56862, Note_off_c, 0, 79, 60
1, 56865, Note_off_c, 0, 88, 61
1, 56867, Note_off_c, 0, 51, 60
1, 56933, Note_on_c, 0, 51, 75
1, 56935, Note_on_c, 0, 61, 89
1, 56935, Note_on_c, 0, 88, 102
1, 56939, Note_on_c, 0, 76, 94
1, 56940, Note_on_c, 0, 79, 90
1, 56975, Note_off_c, 0, 76, 59
1, 56981, Note_off_c, 0, 61, 64
1, 56996, Note_off_c, 0, 88, 65
1, 56997, Note_off_c, 0, 79, 58
1, 57002, Note_off_c, 0, 51, 60
1, 57063, Note_on_c, 0, 61, 88
1, 57063, Note_on_c, 0, 88, 101
1, 57067, Note_on_c, 0, 51, 66
1, 57067, Note_on_c, 0, 79, 92
1, 57070, Note_on_c, 0, 76, 88
1, 57091, Note_off_c, 0, 76, 66
1, 57112, Note_off_c, 0, 61, 62
1, 57113, Note_off_c, 0, 88, 66
1, 57125, Note_off_c, 0, 51, 61
1, 57127, Note_off_c, 0, 79, 65
1, 57195, Note_on_c, 0, 59, 89
1, 57197, Note_on_c, 0, 87, 100
1, 57200, Note_on_c, 0, 51, 78
1, 57200, Note_on_c, 0, 79, 88
1, 57202, Note_on_c, 0, 75, 87
1, 57223, Note_off_c, 0, 75, 69
1, 57231, Note_off_c, 0, 51, 62
1, 57233, Note_off_c, 0, 59, 59
1, 57244, Note_off_c, 0, 87, 62
1, 57246, Note_off_c, 0, 79, 53
1, 57257, Control_c, 0, 64, 110
1, 57272, Control_c, 0, 64, 95
1, 57287, Control_c, 0, 64, 83
1, 57301, Control_c, 0, 64, 72
1, 57316, Control_c, 0, 64, 59
1, 57319, Note_on_c, 0, 51, 81
1, 57331, Note_on_c, 0, 79, 88
1, 57333, Note_on_c, 0, 58, 69
1, 57334, Note_on_c, 0, 73, 82
1, 57339, Control_c, 0, 64, 0
1, 57339, Note_on_c, 0, 85, 80
1, 57351, Note_off_c, 0, 51, 65
1, 57351, Note_off_c, 0, 58, 65
1, 57368, Note_off_c, 0, 73, 59
1, 57376, Note_off_c, 0, 79, 60
1, 57380, Note_off_c, 0, 85, 63
1, 57457, Control_c, 0, 64, 63
1, 57472, Control_c, 0, 64, 78
1, 57483, Note_on_c, 0, 83, 93
1, 57485, Note_on_c, 0, 71, 94
1, 57487, Note_on_c, 0, 44, 86
1, 57487, Note_on_c, 0, 80, 92
1, 57487, Control_c, 0, 64, 94
1, 57493, Note_on_c, 0, 32, 68
1, 57501, Control_c, 0, 64, 106
1, 57504, Note_off_c, 0, 71, 69
1, 57509, Note_off_c, 0, 80, 62
1, 57512, Note_off_c, 0, 44, 65
1, 57516, Control_c, 0, 64, 109
1, 57518, Note_off_c, 0, 32, 57
1, 57519, Note_off_c, 0, 83, 60
1, 57531, Control_c, 0, 64, 111
1, 57546, Control_c, 0, 64, 117
1, 57561, Control_c, 0, 64, 127
1, 57637, Note_on_c, 0, 44, 58
1, 57640, Note_on_c, 0, 83, 79
1, 57645, Note_on_c, 0, 51, 73
1, 57649, Note_on_c, 0, 75, 64
1, 57654, Note_on_c, 0, 71, 64
1, 57664, Control_c, 0, 64, 117
1, 57673, Note_off_c, 0, 51, 64
1, 57674, Note_off_c, 0, 71, 62
1, 57679, Control_c, 0, 64, 98
1, 57680, Note_off_c, 0, 75, 61
1, 57684, Note_off_c, 0, 83, 47
1, 57686, Note_off_c, 0, 44, 59
1, 57694, Control_c, 0, 64, 83
1, 57708, Control_c, 0, 64, 68
1, 57723, Control_c, 0, 64, 51
1, 57738, Control_c, 0, 64, 0
1, 57788, Note_on_c, 0, 51, 52
1, 57788, Note_on_c, 0, 83, 74
1, 57789, Note_on_c, 0, 44, 64
1, 57792, Note_on_c, 0, 71, 46
1, 57793, Note_on_c, 0, 75, 61
1, 57820, Note_off_c, 0, 83, 58
1, 57822, Note_off_c, 0, 71, 56
1, 57823, Note_off_c, 0, 44, 61
1, 57824, Note_off_c, 0, 51, 62
1, 57825, Note_off_c, 0, 75, 60
1, 57915, Note_on_c, 0, 75, 75
1, 57916, Note_on_c, 0, 44, 59
1, 57916, Note_on_c, 0, 83, 80
1, 57917, Note_on_c, 0, 71, 64
1, 57919, Note_on_c, 0, 51, 61
1, 57947, Note_off_c, 0, 71, 66
1, 57953, Note_off_c, 0, 51, 63
1, 57958, Note_off_c, 0, 44, 59
1, 57960, Note_off_c, 0, 83, 63
1, 57967, Note_off_c, 0, 75, 58
1, 58040, Note_on_c, 0, 51, 73
1, 58047, Note_on_c, 0, 44, 69
1, 58048, Note_on_c, 0, 75, 78
1, 58048, Note_on_c, 0, 83, 89
1, 58048, Note_on_c, 0, 71, 78
1, 58083, Note_off_c, 0, 71, 67
1, 58089, Note_off_c, 0, 51, 61
1, 58093, Note_off_c, 0, 44, 60
1, 58099, Note_off_c, 0, 83, 63
1, 58105, Note_off_c, 0, 75, 62
1, 58177, Note_on_c, 0, 44, 77
1, 58181, Note_on_c, 0, 83, 89
1, 58183, Note_on_c, 0, 51, 78
1, 58185, Note_on_c, 0, 71, 74
1, 58187, Note_on_c, 0, 75, 81
1, 58209, Note_off_c, 0, 71, 71
1, 58211, Note_off_c, 0, 51, 63
1, 58219, Note_off_c, 0, 83, 64
1, 58223, Note_off_c, 0, 75, 64
1, 58228, Note_off_c, 0, 44, 57
1, 58293, Note_on_c, 0, 51, 70
1, 58302, Note_on_c, 0, 46, 75
1, 58306, Note_on_c, 0, 82, 89
1, 58307, Note_on_c, 0, 73, 86
1, 58310, Note_on_c, 0, 70, 80
1, 58331, Note_off_c, 0, 70, 70
1, 58346, Note_off_c, 0, 73, 64
1, 58347, Note_off_c, 0, 51, 60
1, 58349, Note_off_c, 0, 82, 62
1, 58370, Note_off_c, 0, 46, 62
1, 58421, Note_on_c, 0, 80, 87
1, 58424, Note_on_c, 0, 51, 76
1, 58429, Note_on_c, 0, 68, 77
1, 58430, Note_on_c, 0, 47, 66
1, 58436, Note_on_c, 0, 71, 78
1, 58454, Note_off_c, 0, 68, 66
1, 58457, Note_on_c, 0, 49, 53
1, 58464, Note_on_c, 0, 72, 34
1, 58465, Note_off_c, 0, 72, 127
1, 58467, Note_off_c, 0, 47, 64
1, 58478, Note_off_c, 0, 71, 64
1, 58479, Note_off_c, 0, 51, 60
1, 58480, Note_off_c, 0, 80, 65
1, 58483, Note_off_c, 0, 49, 57
1, 58559, Note_on_c, 0, 51, 86
1, 58560, Control_c, 0, 64, 34
1, 58564, Note_on_c, 0, 49, 72
1, 58567, Note_on_c, 0, 79, 97
1, 58568, Note_on_c, 0, 39, 69
1, 58568, Note_on_c, 0, 70, 96
1, 58570, Note_on_c, 0, 67, 89
1, 58574, Control_c, 0, 64, 68
1, 58588, Note_off_c, 0, 67, 71
1, 58589, Note_off_c, 0, 49, 65
1, 58589, Control_c, 0, 64, 78
1, 58592, Note_off_c, 0, 39, 58
1, 58593, Note_off_c, 0, 51, 64
1, 58596, Note_off_c, 0, 70, 66
1, 58604, Control_c, 0, 64, 89
1, 58617, Note_off_c, 0, 79, 64
1, 58619, Control_c, 0, 64, 96
1, 58634, Control_c, 0, 64, 104
1, 58648, Control_c, 0, 64, 120
1, 58663, Control_c, 0, 64, 127
1, 58731, Note_on_c, 0, 88, 104
1, 58734, Note_on_c, 0, 61, 95
1, 58734, Note_on_c, 0, 76, 101
1, 58735, Note_on_c, 0, 51, 88
1, 58738, Note_on_c, 0, 79, 91
1, 58757, Note_off_c, 0, 61, 68
1, 58761, Note_off_c, 0, 76, 63
1, 58763, Note_off_c, 0, 79, 63
1, 58772, Note_off_c, 0, 88, 66
1, 58782, Note_off_c, 0, 51, 62
1, 58871, Note_on_c, 0, 61, 95
1, 58873, Note_on_c, 0, 51, 81
1, 58873, Note_on_c, 0, 88, 100
1, 58878, Note_on_c, 0, 76, 97
1, 58880, Note_on_c, 0, 79, 95
1, 58910, Note_off_c, 0, 61, 65
1, 58914, Note_off_c, 0, 76, 66
1, 58917, Note_off_c, 0, 79, 63
1, 58918, Note_off_c, 0, 51, 61
1, 58919, Note_off_c, 0, 88, 67
1, 58998, Note_on_c, 0, 61, 93
1, 59003, Note_on_c, 0, 88, 101
1, 59005, Note_on_c, 0, 51, 83
1, 59008, Note_on_c, 0, 79, 94
1, 59009, Note_on_c, 0, 76, 94
1, 59041, Note_off_c, 0, 61, 64
1, 59047, Note_off_c, 0, 76, 58
1, 59059, Note_off_c, 0, 51, 61
1, 59059, Note_off_c, 0, 88, 63
1, 59063, Note_off_c, 0, 79, 56
1, 59127, Note_on_c, 0, 51, 71
1, 59127, Note_on_c, 0, 61, 86
1, 59127, Note_on_c, 0, 88, 101
1, 59132, Note_on_c, 0, 79, 89
1, 59133, Note_on_c, 0, 76, 93
1, 59157, Note_off_c, 0, 76, 62
1, 59177, Note_off_c, 0, 61, 64
1, 59181, Note_off_c, 0, 79, 54
1, 59186, Note_off_c, 0, 51, 57
1, 59186, Note_off_c, 0, 88, 63
1, 59249, Note_on_c, 0, 61, 81
1, 59254, Note_on_c, 0, 51, 67
1, 59255, Note_on_c, 0, 88, 94
1, 59261, Note_on_c, 0, 76, 84
1, 59266, Note_on_c, 0, 79, 78
1, 59289, Note_off_c, 0, 76, 66
1, 59297, Note_on_c, 0, 80, 29
1, 59303, Note_off_c, 0, 88, 65
1, 59307, Note_off_c, 0, 61, 61
1, 59318, Note_off_c, 0, 51, 61
1, 59324, Note_off_c, 0, 79, 59
1, 59330, Note_off_c, 0, 80, 58
1, 59384, Note_on_c, 0, 59, 84
1, 59387, Note_on_c, 0, 51, 70
1, 59389, Note_on_c, 0, 87, 93
1, 59393, Note_on_c, 0, 75, 77
1, 59401, Note_on_c, 0, 79, 76
1, 59421, Note_off_c, 0, 75, 61
1, 59424, Note_off_c, 0, 59, 56
1, 59428, Note_off_c, 0, 51, 61
1, 59428, Note_off_c, 0, 79, 60
1, 59437, Note_off_c, 0, 87, 58
1, 59472, Control_c, 0, 64, 108
1, 59487, Control_c, 0, 64, 96
1, 59502, Control_c, 0, 64, 87
1, 59505, Note_on_c, 0, 80, 70
1, 59509, Note_on_c, 0, 51, 72
1, 59517, Control_c, 0, 64, 73
1, 59522, Note_on_c, 0, 85, 72
1, 59524, Note_on_c, 0, 73, 71
1, 59525, Note_on_c, 0, 58, 41
1, 59532, Note_off_c, 0, 51, 68
1, 59532, Control_c, 0, 64, 52
1, 59546, Control_c, 0, 64, 0
1, 59549, Note_off_c, 0, 73, 64
1, 59554, Note_off_c, 0, 85, 60
1, 59557, Note_off_c, 0, 80, 67
1, 59558, Note_off_c, 0, 58, 53
1, 59641, Note_on_c, 0, 83, 87
1, 59643, Control_c, 0, 64, 20
1, 59646, Note_on_c, 0, 56, 92
1, 59649, Note_on_c, 0, 71, 76
1, 59654, Note_on_c, 0, 80, 75
1, 59658, Note_on_c, 0, 44, 60
1, 59659, Note_off_c, 0, 44, 127
1, 59659, Control_c, 0, 64, 0
1, 59664, Note_off_c, 0, 83, 67
1, 59665, Note_off_c, 0, 71, 70
1, 59666, Note_on_c, 0, 46, 60
1, 59667, Note_off_c, 0, 46, 127
1, 59668, Note_off_c, 0, 56, 70
1, 59674, Control_c, 0, 67, 8
1, 59675, Note_off_c, 0, 80, 72
1, 59689, Control_c, 0, 67, 10
1, 59704, Control_c, 0, 67, 12
1, 59718, Control_c, 0, 67, 16
1, 59733, Control_c, 0, 67, 19
1, 59748, Control_c, 0, 67, 25
1, 59763, Control_c, 0, 67, 34
1, 59778, Control_c, 0, 67, 44
1, 59793, Control_c, 0, 67, 54
1, 59796, Note_on_c, 0, 63, 63
1, 59801, Note_on_c, 0, 83, 72
1, 59807, Note_on_c, 0, 59, 45
1, 59808, Control_c, 0, 67, 64
1, 59808, Note_on_c, 0, 80, 54
1, 59817, Note_off_c, 0, 63, 63
1, 59823, Control_c, 0, 67, 72
1, 59826, Note_off_c, 0, 83, 66
1, 59828, Note_off_c, 0, 80, 62
1, 59837, Control_c, 0, 67, 79
1, 59838, Note_off_c, 0, 59, 57
1, 59852, Control_c, 0, 67, 81
1, 59867, Control_c, 0, 67, 84
1, 59882, Control_c, 0, 67, 88
1, 59896, Control_c, 0, 67, 92
1, 59911, Control_c, 0, 67, 95
1, 59913, Note_on_c, 0, 63, 58
1, 59921, Note_on_c, 0, 59, 56
1, 59922, Note_on_c, 0, 83, 65
1, 59924, Note_on_c, 0, 80, 54
1, 59926, Control_c, 0, 67, 96
1, 59956, Control_c, 0, 67, 97
1, 59961, Note_off_c, 0, 63, 58
1, 59966, Note_off_c, 0, 59, 58
1, 59970, Control_c, 0, 67, 100
1, 59972, Note_off_c, 0, 80, 53
1, 59975, Note_off_c, 0, 83, 57
1, 59985, Control_c, 0, 67, 105
1, 60000, Control_c, 0, 67, 109
1, 60015, Control_c, 0, 67, 112
1, 60029, Control_c, 0, 67, 112
1, 60048, Note_on_c, 0, 56, 64
1, 60053, Note_on_c, 0, 83, 55
1, 60058, Note_on_c, 0, 87, 62
1, 60073, Note_off_c, 0, 83, 61
1, 60079, Note_off_c, 0, 56, 65
1, 60090, Note_off_c, 0, 87, 63
1, 60175, Note_on_c, 0, 49, 51
1, 60201, Note_off_c, 0, 49, 57
1, 60237, Control_c, 0, 67, 112
1, 60282, Control_c, 0, 67, 111
1, 60306, Note_on_c, 0, 80, 64
1, 60313, Note_on_c, 0, 85, 59
1, 60315, Note_on_c, 0, 61, 57
1, 60325, Note_on_c, 0, 64, 52
1, 60341, Note_off_c, 0, 80, 63
1, 60343, Note_off_c, 0, 85, 64
1, 60350, Note_off_c, 0, 64, 59
1, 60353, Note_off_c, 0, 61, 62
1, 60377, Control_c, 0, 67, 111
1, 60392, Control_c, 0, 67, 110
1, 60431, Note_on_c, 0, 64, 58
1, 60442, Note_on_c, 0, 85, 61
1, 60446, Note_on_c, 0, 61, 55
1, 60449, Note_on_c, 0, 80, 57
1, 60467, Control_c, 0, 67, 110
1, 60497, Control_c, 0, 67, 109
1, 60501, Note_off_c, 0, 80, 53
1, 60508, Note_off_c, 0, 85, 58
1, 60562, Note_on_c, 0, 88, 71
1, 60562, Note_off_c, 0, 64, 38
1, 60573, Note_on_c, 0, 56, 74
1, 60575, Note_on_c, 0, 85, 45
1, 60577, Note_off_c, 0, 61, 27
1, 60597, Note_off_c, 0, 85, 59
1, 60601, Note_off_c, 0, 56, 66
1, 60607, Note_off_c, 0, 88, 65
1, 60705, Control_c, 0, 67, 109
1, 60717, Note_on_c, 0, 51, 68
1, 60719, Control_c, 0, 67, 108
1, 60747, Note_off_c, 0, 51, 65
1, 60842, Note_on_c, 0, 63, 62
1, 60845, Note_on_c, 0, 83, 59
1, 60846, Note_on_c, 0, 80, 53
1, 60852, Note_on_c, 0, 59, 55
1, 60867, Control_c, 0, 67, 108
1, 60872, Note_off_c, 0, 80, 56
1, 60876, Note_off_c, 0, 63, 63
1, 60885, Note_off_c, 0, 83, 60
1, 60887, Note_off_c, 0, 59, 64
1, 60926, Control_c, 0, 67, 107
1, 60956, Control_c, 0, 67, 107
1, 60964, Note_on_c, 0, 63, 66
1, 60973, Note_on_c, 0, 59, 60
1, 60973, Note_on_c, 0, 80, 49
1, 60997, Note_on_c, 0, 83, 46
1, 60999, Note_on_c, 0, 84, 44
1, 61024, Note_off_c, 0, 83, 56
1, 61024, Note_off_c, 0, 84, 57
1, 61032, Note_off_c, 0, 80, 56
1, 61042, Note_off_c, 0, 63, 55
1, 61102, Note_on_c, 0, 83, 69
1, 61103, Note_on_c, 0, 56, 68
1, 61113, Note_on_c, 0, 87, 67
1, 61114, Note_off_c, 0, 59, 52
1, 61121, Note_off_c, 0, 83, 67
1, 61133, Note_off_c, 0, 56, 65
1, 61143, Note_off_c, 0, 87, 65
1, 61215, Control_c, 0, 67, 106
1, 61236, Note_on_c, 0, 49, 74
1, 61246, Control_c, 0, 67, 106
1, 61268, Note_off_c, 0, 49, 64
1, 61319, Control_c, 0, 67, 105
1, 61334, Control_c, 0, 67, 105
1, 61349, Control_c, 0, 67, 104
1, 61361, Note_on_c, 0, 82, 71
1, 61364, Control_c, 0, 67, 104
1, 61371, Note_on_c, 0, 63, 67
1, 61372, Note_on_c, 0, 58, 70
1, 61372, Note_on_c, 0, 79, 64
1, 61393, Control_c, 0, 67, 103
1, 61402, Note_off_c, 0, 63, 65
1, 61403, Note_off_c, 0, 79, 61
1, 61408, Control_c, 0, 67, 101
1, 61410, Note_off_c, 0, 58, 63
1, 61414, Note_off_c, 0, 82, 63
1, 61423, Control_c, 0, 67, 97
1, 61438, Control_c, 0, 67, 92
1, 61453, Control_c, 0, 67, 86
1, 61467, Control_c, 0, 67, 80
1, 61482, Control_c, 0, 67, 77
1, 61486, Note_on_c, 0, 79, 73
1, 61488, Note_on_c, 0, 82, 78
1, 61492, Note_on_c, 0, 63, 74
1, 61495, Note_on_c, 0, 58, 77
1, 61497, Control_c, 0, 67, 75
1, 61512, Control_c, 0, 67, 75
1, 61527, Control_c, 0, 67, 74
1, 61537, Note_off_c, 0, 82, 62
1, 61542, Note_off_c, 0, 79, 54
1, 61556, Control_c, 0, 67, 75
1, 61611, Note_on_c, 0, 82, 77
1, 61614, Note_on_c, 0, 55, 67
1, 61623, Note_on_c, 0, 87, 73
1, 61623, Note_off_c, 0, 63, 62
1, 61637, Note_off_c, 0, 82, 66
1, 61642, Note_off_c, 0, 58, 62
1, 61645, Note_off_c, 0, 55, 63
1, 61661, Note_off_c, 0, 87, 54
1, 61719, Control_c, 0, 67, 74
1, 61734, Control_c, 0, 67, 74
1, 61754, Note_on_c, 0, 47, 65
1, 61779, Note_off_c, 0, 47, 64
1, 61808, Control_c, 0, 67, 74
1, 61891, Note_on_c, 0, 83, 84
1, 61893, Note_on_c, 0, 75, 75
1, 61900, Note_on_c, 0, 68, 74
1, 61906, Note_on_c, 0, 63, 68
1, 61929, Note_off_c, 0, 75, 57
1, 61930, Note_off_c, 0, 68, 62
1, 61934, Control_c, 0, 67, 74
1, 61945, Note_off_c, 0, 63, 64
1, 61948, Control_c, 0, 67, 73
1, 61955, Note_off_c, 0, 83, 61
1, 61963, Control_c, 0, 67, 72
1, 61978, Control_c, 0, 67, 69
1, 61993, Control_c, 0, 67, 65
1, 62008, Control_c, 0, 67, 60
1, 62017, Note_on_c, 0, 68, 78
1, 62019, Note_on_c, 0, 83, 92
1, 62020, Note_on_c, 0, 75, 93
1, 62023, Control_c, 0, 67, 54
1, 62026, Note_on_c, 0, 63, 73
1, 62038, Control_c, 0, 67, 51
1, 62054, Control_c, 0, 67, 50
1, 62082, Note_off_c, 0, 75, 60
1, 62128, Control_c, 0, 67, 50
1, 62136, Note_on_c, 0, 59, 72
1, 62142, Note_on_c, 0, 80, 83
1, 62149, Note_on_c, 0, 87, 82
1, 62152, Note_off_c, 0, 68, 62
1, 62154, Note_off_c, 0, 83, 61
1, 62167, Note_off_c, 0, 63, 63
1, 62169, Note_off_c, 0, 80, 63
1, 62176, Note_off_c, 0, 59, 64
1, 62187, Note_off_c, 0, 87, 63
1, 62231, Control_c, 0, 67, 49
1, 62261, Control_c, 0, 67, 49
1, 62276, Control_c, 0, 67, 47
1, 62284, Note_on_c, 0, 49, 68
1, 62291, Control_c, 0, 67, 44
1, 62306, Control_c, 0, 67, 42
1, 62309, Note_off_c, 0, 49, 63
1, 62321, Control_c, 0, 67, 41
1, 62351, Control_c, 0, 67, 40
1, 62365, Control_c, 0, 67, 39
1, 62380, Control_c, 0, 67, 35
1, 62395, Control_c, 0, 67, 27
1, 62395, Note_on_c, 0, 73, 91
1, 62396, Note_on_c, 0, 81, 83
1, 62410, Control_c, 0, 67, 19
1, 62412, Note_on_c, 0, 69, 73
1, 62413, Note_on_c, 0, 64, 74
1, 62424, Control_c, 0, 67, 0
1, 62441, Note_off_c, 0, 73, 62
1, 62449, Note_off_c, 0, 69, 62
1, 62459, Note_off_c, 0, 64, 59
1, 62466, Note_off_c, 0, 81, 62
1, 62521, Note_on_c, 0, 81, 83
1, 62524, Note_on_c, 0, 73, 90
1, 62536, Note_on_c, 0, 69, 81
1, 62542, Note_on_c, 0, 64, 73
1, 62659, Note_off_c, 0, 69, 59
1, 62662, Note_on_c, 0, 61, 76
1, 62662, Note_on_c, 0, 85, 75
1, 62662, Note_off_c, 0, 64, 65
1, 62663, Note_on_c, 0, 76, 74
1, 62664, Note_off_c, 0, 81, 63
1, 62665, Note_off_c, 0, 73, 44
1, 62684, Control_c, 0, 67, 8
1, 62687, Note_off_c, 0, 76, 66
1, 62689, Note_off_c, 0, 61, 67
1, 62698, Control_c, 0, 67, 9
1, 62701, Note_off_c, 0, 85, 63
1, 62713, Control_c, 0, 67, 9
1, 62728, Control_c, 0, 67, 10
1, 62742, Control_c, 0, 67, 11
1, 62757, Control_c, 0, 67, 11
1, 62772, Control_c, 0, 67, 12
1, 62797, Note_on_c, 0, 51, 70
1, 62825, Note_off_c, 0, 51, 65
1, 62847, Control_c, 0, 67, 12
1, 62862, Control_c, 0, 67, 13
1, 62877, Control_c, 0, 67, 14
1, 62892, Control_c, 0, 67, 16
1, 62907, Control_c, 0, 67, 19
1, 62921, Control_c, 0, 67, 21
1, 62932, Note_on_c, 0, 71, 68
1, 62932, Note_on_c, 0, 80, 68
1, 62936, Note_on_c, 0, 68, 72
1, 62936, Control_c, 0, 67, 22
1, 62944, Note_on_c, 0, 63, 60
1, 62951, Control_c, 0, 67, 24
1, 62960, Note_off_c, 0, 71, 67
1, 62961, Note_off_c, 0, 68, 70
1, 62966, Control_c, 0, 67, 25
1, 62976, Note_off_c, 0, 63, 65
1, 62981, Control_c, 0, 67, 27
1, 62982, Note_off_c, 0, 80, 60
1, 62995, Control_c, 0, 67, 28
1, 63010, Control_c, 0, 67, 29
1, 63025, Control_c, 0, 67, 31
1, 63039, Control_c, 0, 67, 32
1, 63069, Note_on_c, 0, 68, 59
1, 63069, Control_c, 0, 67, 32
1, 63071, Note_on_c, 0, 63, 60
1, 63073, Note_on_c, 0, 71, 60
1, 63074, Note_on_c, 0, 80, 68
1, 63084, Control_c, 0, 67, 33
1, 63099, Control_c, 0, 67, 34
1, 63114, Control_c, 0, 67, 35
1, 63129, Control_c, 0, 67, 36
1, 63137, Note_off_c, 0, 71, 52
1, 63143, Control_c, 0, 67, 38
1, 63158, Control_c, 0, 67, 39
1, 63173, Control_c, 0, 67, 42
1, 63188, Control_c, 0, 67, 44
1, 63188, Note_on_c, 0, 59, 59
1, 63188, Note_off_c, 0, 68, 62
1, 63190, Note_off_c, 0, 80, 58
1, 63198, Note_on_c, 0, 83, 47
1, 63203, Control_c, 0, 67, 49
1, 63203, Note_on_c, 0, 75, 55
1, 63203, Note_off_c, 0, 63, 63
1, 63215, Note_off_c, 0, 59, 65
1, 63218, Control_c, 0, 67, 55
1, 63221, Note_off_c, 0, 83, 58
1, 63224, Note_off_c, 0, 75, 61
1, 63233, Control_c, 0, 67, 62
1, 63247, Control_c, 0, 67, 69
1, 63262, Control_c, 0, 67, 77
1, 63277, Control_c, 0, 67, 84
1, 63292, Control_c, 0, 67, 90
1, 63307, Control_c, 0, 67, 97
1, 63328, Control_c, 0, 67, 102
1, 63340, Note_on_c, 0, 51, 59
1, 63343, Control_c, 0, 67, 107
1, 63358, Control_c, 0, 67, 112
1, 63373, Control_c, 0, 67, 117
1, 63373, Note_off_c, 0, 51, 63
1, 63388, Control_c, 0, 67, 122
1, 63403, Control_c, 0, 67, 126
1, 63418, Control_c, 0, 67, 127
1, 63486, Note_on_c, 0, 70, 61
1, 63489, Note_on_c, 0, 79, 62
1, 63497, Note_on_c, 0, 67, 46
1, 63523, Note_off_c, 0, 70, 60
1, 63523, Note_off_c, 0, 67, 57
1, 63534, Note_off_c, 0, 79, 59
1, 63587, Poly_aftertouch_c, 0, 61, 0
1, 63636, Note_on_c, 0, 67, 43
1, 63642, Note_on_c, 0, 70, 56
1, 63662, Note_on_c, 0, 79, 51
1, 63667, Note_on_c, 0, 61, 39
1, 63670, Control_c, 0, 64, 33
1, 63685, Control_c, 0, 64, 48
1, 63700, Control_c, 0, 64, 58
1, 63715, Control_c, 0, 64, 63
1, 63730, Control_c, 0, 64, 66
1, 63744, Control_c, 0, 64, 71
1, 63756, Note_off_c, 0, 67, 60
1, 63759, Control_c, 0, 64, 75
1, 63774, Control_c, 0, 64, 78
1, 63783, Note_on_c, 0, 82, 64
1, 63784, Note_off_c, 0, 79, 54
1, 63789, Control_c, 0, 64, 81
1, 63803, Note_off_c, 0, 61, 54
1, 63803, Control_c, 0, 64, 83
1, 63811, Note_on_c, 0, 58, 39
1, 63814, Note_off_c, 0, 70, 46
1, 63818, Control_c, 0, 64, 85
1, 63822, Note_on_c, 0, 73, 19
1, 63833, Control_c, 0, 64, 87
1, 63842, Note_off_c, 0, 58, 56
1, 63842, Note_off_c, 0, 82, 58
1, 63848, Control_c, 0, 64, 89
1, 63862, Control_c, 0, 64, 90
1, 63867, Note_off_c, 0, 73, 51
1, 63996, Control_c, 0, 64, 88
1, 64011, Control_c, 0, 64, 82
1, 64011, Note_on_c, 0, 44, 49
1, 64020, Note_on_c, 0, 80, 54
1, 64026, Control_c, 0, 64, 72
1, 64041, Control_c, 0, 64, 61
1, 64042, Note_on_c, 0, 71, 34
1, 64056, Control_c, 0, 64, 32
1, 64077, Control_c, 0, 64, 0
1, 64092, Control_c, 0, 64, 28
1, 64107, Control_c, 0, 64, 51
1, 64122, Control_c, 0, 64, 61
1, 64137, Control_c, 0, 64, 65
1, 64151, Control_c, 0, 64, 68
1, 64166, Control_c, 0, 64, 71
1, 64169, Note_off_c, 0, 44, 51
1, 64178, Note_on_c, 0, 56, 40
1, 64181, Control_c, 0, 64, 74
1, 64196, Control_c, 0, 64, 78
1, 64211, Control_c, 0, 64, 81
1, 64220, Note_off_c, 0, 56, 55
1, 64226, Control_c, 0, 64, 84
1, 64240, Control_c, 0, 64, 84
1, 64261, Note_on_c, 0, 51, 47
1, 64294, Note_off_c, 0, 51, 55
1, 64309, Note_on_c, 0, 56, 57
1, 64330, Control_c, 0, 64, 83
1, 64344, Control_c, 0, 64, 80
1, 64346, Note_off_c, 0, 56, 63
1, 64359, Control_c, 0, 64, 75
1, 64374, Control_c, 0, 64, 69
1, 64378, Note_on_c, 0, 44, 49
1, 64388, Control_c, 0, 64, 67
1, 64418, Control_c, 0, 64, 68
1, 64422, Note_off_c, 0, 44, 57
1, 64433, Control_c, 0, 64, 70
1, 64443, Note_off_c, 0, 71, 64
1, 64449, Control_c, 0, 64, 71
1, 64452, Note_off_c, 0, 80, 64
1, 64454, Note_on_c, 0, 56, 45
1, 64479, Control_c, 0, 64, 72
1, 64480, Note_off_c, 0, 56, 59
1, 64493, Control_c, 0, 64, 73
1, 64501, Note_on_c, 0, 51, 53
1, 64508, Control_c, 0, 64, 75
1, 64523, Control_c, 0, 64, 75
1, 64538, Note_off_c, 0, 51, 61
1, 64556, Note_on_c, 0, 56, 53
1, 64596, Note_off_c, 0, 56, 62
1, 64627, Note_on_c, 0, 44, 51
1, 64677, Note_off_c, 0, 44, 55
1, 64691, Note_on_c, 0, 56, 51
1, 64733, Note_off_c, 0, 56, 62
1, 64760, Control_c, 0, 64, 75
1, 64762, Note_on_c, 0, 51, 44
1, 64774, Control_c, 0, 64, 73
1, 64789, Control_c, 0, 64, 68
1, 64795, Note_off_c, 0, 51, 53
1, 64804, Control_c, 0, 64, 61
1, 64826, Control_c, 0, 64, 41
1, 64839, Note_on_c, 0, 56, 47
1, 64841, Control_c, 0, 64, 0
1, 64871, Control_c, 0, 64, 28
1, 64878, Note_off_c, 0, 56, 62
1, 64886, Control_c, 0, 64, 45
1, 64900, Control_c, 0, 64, 55
1, 64905, Note_on_c, 0, 71, 66
1, 64915, Control_c, 0, 64, 61
1, 64918, Note_on_c, 0, 44, 49
1, 64930, Control_c, 0, 64, 65
1, 64945, Control_c, 0, 64, 69
1, 64960, Control_c, 0, 64, 73
1, 64965, Note_off_c, 0, 44, 56
1, 64974, Control_c, 0, 64, 76
1, 64974, Control_c, 0, 67, 127
1, 64979, Note_on_c, 0, 56, 44
1, 64989, Control_c, 0, 64, 77
1, 64989, Control_c, 0, 67, 126
1, 65004, Control_c, 0, 64, 78
1, 65004, Control_c, 0, 67, 126
1, 65013, Note_off_c, 0, 56, 58
1, 65018, Control_c, 0, 64, 79
1, 65018, Control_c, 0, 67, 125
1, 65033, Control_c, 0, 64, 81
1, 65033, Control_c, 0, 67, 124
1, 65048, Control_c, 0, 64, 83
1, 65048, Control_c, 0, 67, 123
1, 65063, Control_c, 0, 64, 85
1, 65063, Control_c, 0, 67, 120
1, 65071, Note_on_c, 0, 51, 21
1, 65078, Control_c, 0, 64, 87
1, 65078, Control_c, 0, 67, 118
1, 65093, Control_c, 0, 67, 117
1, 65104, Note_on_c, 0, 56, 52
1, 65108, Control_c, 0, 64, 85
1, 65108, Control_c, 0, 67, 115
1, 65114, Note_off_c, 0, 51, 53
1, 65120, Note_on_c, 0, 68, 62
1, 65123, Control_c, 0, 64, 75
1, 65123, Control_c, 0, 67, 113
1, 65123, Note_off_c, 0, 71, 62
1, 65137, Control_c, 0, 64, 64
1, 65137, Control_c, 0, 67, 112
1, 65152, Control_c, 0, 64, 47
1, 65152, Control_c, 0, 67, 111
1, 65155, Note_off_c, 0, 56, 59
1, 65166, Note_off_c, 0, 68, 62
1, 65167, Control_c, 0, 64, 32
1, 65167, Control_c, 0, 67, 109
1, 65182, Control_c, 0, 64, 41
1, 65182, Control_c, 0, 67, 109
1, 65192, Note_on_c, 0, 67, 60
1, 65197, Control_c, 0, 64, 54
1, 65206, Note_on_c, 0, 44, 44
1, 65211, Control_c, 0, 64, 61
1, 65226, Control_c, 0, 64, 64
1, 65226, Control_c, 0, 67, 108
1, 65242, Control_c, 0, 64, 66
1, 65243, Note_off_c, 0, 44, 50
1, 65257, Control_c, 0, 64, 66
1, 65257, Control_c, 0, 67, 108
1, 65272, Control_c, 0, 64, 67
1, 65286, Note_on_c, 0, 58, 46
1, 65287, Control_c, 0, 64, 69
1, 65302, Control_c, 0, 64, 72
1, 65302, Control_c, 0, 67, 107
1, 65316, Control_c, 0, 64, 75
1, 65316, Control_c, 0, 67, 103
1, 65326, Note_off_c, 0, 58, 51
1, 65331, Control_c, 0, 64, 77
1, 65331, Control_c, 0, 67, 97
1, 65346, Control_c, 0, 64, 77
1, 65346, Control_c, 0, 67, 91
1, 65358, Note_off_c, 0, 67, 61
1, 65361, Control_c, 0, 67, 90
1, 65367, Note_on_c, 0, 51, 40
1, 65390, Control_c, 0, 64, 78
1, 65405, Control_c, 0, 64, 79
1, 65405, Control_c, 0, 67, 89
1, 65407, Note_off_c, 0, 51, 48
1, 65420, Control_c, 0, 64, 80
1, 65420, Control_c, 0, 67, 89
1, 65434, Control_c, 0, 64, 81
1, 65440, Note_on_c, 0, 58, 35
1, 65449, Control_c, 0, 64, 82
1, 65449, Control_c, 0, 67, 89
1, 65464, Control_c, 0, 67, 90
1, 65479, Note_off_c, 0, 58, 49
1, 65494, Control_c, 0, 64, 80
1, 65509, Control_c, 0, 64, 76
1, 65513, Note_on_c, 0, 44, 47
1, 65523, Control_c, 0, 64, 70
1, 65523, Control_c, 0, 67, 90
1, 65534, Note_on_c, 0, 75, 49
1, 65538, Control_c, 0, 64, 64
1, 65546, Note_on_c, 0, 61, 48
1, 65553, Control_c, 0, 64, 60
1, 65563, Note_on_c, 0, 67, 36
1, 65575, Control_c, 0, 64, 61
1, 65575, Control_c, 0, 67, 90
1, 65586, Note_off_c, 0, 44, 52
1, 65590, Control_c, 0, 64, 64
1, 65595, Note_on_c, 0, 58, 38
1, 65605, Control_c, 0, 64, 66
1, 65620, Control_c, 0, 64, 69
1, 65620, Control_c, 0, 67, 89
1, 65635, Control_c, 0, 64, 71
1, 65649, Control_c, 0, 64, 73
1, 65649, Control_c, 0, 67, 89
1, 65654, Note_off_c, 0, 58, 44
1, 65664, Control_c, 0, 64, 75
1, 65664, Control_c, 0, 67, 88
1, 65679, Control_c, 0, 64, 79
1, 65679, Control_c, 0, 67, 88
1, 65683, Note_on_c, 0, 51, 47
1, 65686, Note_off_c, 0, 67, 49
1, 65694, Control_c, 0, 64, 83
1, 65694, Control_c, 0, 67, 87
1, 65702, Note_off_c, 0, 61, 54
1, 65709, Control_c, 0, 64, 86
1, 65709, Control_c, 0, 67, 86
1, 65722, Note_off_c, 0, 75, 57
1, 65722, Note_off_c, 0, 51, 59
1, 65723, Control_c, 0, 64, 88
1, 65738, Control_c, 0, 64, 89
1, 65759, Note_on_c, 0, 58, 51
1, 65782, Control_c, 0, 64, 88
1, 65782, Control_c, 0, 67, 86
1, 65797, Control_c, 0, 64, 82
1, 65797, Control_c, 0, 67, 85
1, 65800, Note_off_c, 0, 58, 48
1, 65812, Control_c, 0, 64, 75
1, 65812, Control_c, 0, 67, 85
1, 65822, Note_on_c, 0, 44, 59
1, 65827, Control_c, 0, 64, 67
1, 65827, Control_c, 0, 67, 84
1, 65832, Note_on_c, 0, 75, 72
1, 65842, Control_c, 0, 64, 63
1, 65842, Control_c, 0, 67, 83
1, 65843, Note_on_c, 0, 67, 43
1, 65854, Note_on_c, 0, 61, 52
1, 65871, Control_c, 0, 64, 66
1, 65871, Control_c, 0, 67, 82
1, 65879, Note_off_c, 0, 44, 53
1, 65886, Control_c, 0, 64, 71
1, 65886, Control_c, 0, 67, 81
1, 65896, Note_on_c, 0, 58, 52
1, 65901, Control_c, 0, 64, 75
1, 65901, Control_c, 0, 67, 80
1, 65916, Control_c, 0, 64, 79
1, 65916, Control_c, 0, 67, 77
1, 65931, Control_c, 0, 64, 82
1, 65931, Control_c, 0, 67, 75
1, 65939, Note_off_c, 0, 58, 62
1, 65946, Control_c, 0, 64, 86
1, 65946, Control_c, 0, 67, 72
1, 65953, Note_on_c, 0, 51, 63
1, 65960, Control_c, 0, 64, 90
1, 65960, Control_c, 0, 67, 69
1, 65964, Note_off_c, 0, 67, 58
1, 65975, Control_c, 0, 64, 97
1, 65975, Control_c, 0, 67, 67
1, 65984, Note_off_c, 0, 61, 50
1, 65990, Control_c, 0, 64, 103
1, 65990, Control_c, 0, 67, 66
1, 65999, Note_off_c, 0, 51, 55
1, 66005, Control_c, 0, 64, 112
1, 66006, Note_off_c, 0, 75, 53
1, 66020, Control_c, 0, 64, 121
1, 66020, Control_c, 0, 67, 67
1, 66030, Note_on_c, 0, 58, 65
1, 66035, Control_c, 0, 64, 123
1, 66035, Control_c, 0, 67, 67
1, 66050, Control_c, 0, 64, 114
1, 66050, Control_c, 0, 67, 68
1, 66065, Control_c, 0, 64, 98
1, 66075, Note_off_c, 0, 58, 61
1, 66080, Control_c, 0, 64, 81
1, 66080, Control_c, 0, 67, 68
1, 66095, Control_c, 0, 64, 70
1, 66095, Control_c, 0, 67, 69
1, 66109, Control_c, 0, 64, 62
1, 66110, Note_on_c, 0, 44, 62
1, 66118, Note_on_c, 0, 75, 69
1, 66124, Control_c, 0, 64, 60
1, 66124, Control_c, 0, 67, 69
1, 66126, Note_on_c, 0, 67, 51
1, 66130, Note_on_c, 0, 61, 57
1, 66139, Control_c, 0, 64, 64
1, 66139, Control_c, 0, 67, 70
1, 66154, Control_c, 0, 64, 69
1, 66169, Control_c, 0, 64, 76
1, 66169, Control_c, 0, 67, 70
1, 66170, Note_off_c, 0, 75, 59
1, 66171, Note_off_c, 0, 61, 61
1, 66181, Note_off_c, 0, 44, 49
1, 66183, Note_on_c, 0, 58, 50
1, 66183, Control_c, 0, 64, 82
1, 66193, Note_off_c, 0, 67, 57
1, 66198, Control_c, 0, 64, 86
1, 66213, Control_c, 0, 64, 88
1, 66213, Control_c, 0, 67, 71
1, 66223, Note_off_c, 0, 58, 63
1, 66228, Control_c, 0, 64, 90
1, 66229, Note_on_c, 0, 51, 61
1, 66243, Control_c, 0, 64, 92
1, 66257, Control_c, 0, 64, 94
1, 66266, Note_off_c, 0, 51, 61
1, 66272, Control_c, 0, 64, 97
1, 66272, Control_c, 0, 67, 71
1, 66287, Control_c, 0, 64, 101
1, 66302, Control_c, 0, 64, 106
1, 66302, Control_c, 0, 67, 72
1, 66324, Control_c, 0, 64, 109
1, 66324, Control_c, 0, 67, 72
1, 66329, Note_on_c, 0, 58, 54
1, 66345, Note_on_c, 0, 59, 34
1, 66354, Control_c, 0, 64, 108
1, 66354, Control_c, 0, 67, 73
1, 66367, Note_off_c, 0, 58, 60
1, 66369, Control_c, 0, 64, 90
1, 66379, Note_off_c, 0, 59, 52
1, 66384, Control_c, 0, 64, 71
1, 66384, Control_c, 0, 67, 73
1, 66384, Note_on_c, 0, 68, 66
1, 66398, Control_c, 0, 64, 43
1, 66398, Control_c, 0, 67, 74
1, 66413, Control_c, 0, 64, 0
1, 66429, Note_on_c, 0, 44, 55
1, 66458, Control_c, 0, 64, 33
1, 66458, Control_c, 0, 67, 74
1, 66472, Control_c, 0, 64, 54
1, 66487, Control_c, 0, 64, 61
1, 66502, Control_c, 0, 64, 63
1, 66502, Control_c, 0, 67, 74
1, 66505, Note_on_c, 0, 75, 72
1, 66514, Note_off_c, 0, 44, 46
1, 66517, Control_c, 0, 64, 66
1, 66518, Note_on_c, 0, 56, 53
1, 66532, Control_c, 0, 64, 70
1, 66546, Control_c, 0, 64, 76
1, 66560, Note_off_c, 0, 56, 62
1, 66561, Control_c, 0, 64, 82
1, 66576, Control_c, 0, 64, 87
1, 66587, Note_on_c, 0, 51, 48
1, 66590, Control_c, 0, 64, 90
1, 66605, Control_c, 0, 64, 91
1, 66620, Control_c, 0, 64, 93
1, 66626, Note_off_c, 0, 51, 60
1, 66635, Control_c, 0, 64, 96
1, 66635, Control_c, 0, 67, 74
1, 66650, Control_c, 0, 64, 102
1, 66654, Note_on_c, 0, 56, 55
1, 66664, Control_c, 0, 64, 107
1, 66664, Control_c, 0, 67, 75
1, 66679, Control_c, 0, 64, 108
1, 66679, Control_c, 0, 67, 75
1, 66694, Control_c, 0, 64, 103
1, 66695, Note_off_c, 0, 56, 61
1, 66709, Control_c, 0, 64, 92
1, 66724, Control_c, 0, 64, 80
1, 66735, Note_on_c, 0, 44, 49
1, 66738, Control_c, 0, 64, 70
1, 66753, Control_c, 0, 64, 67
1, 66768, Control_c, 0, 64, 68
1, 66783, Control_c, 0, 64, 71
1, 66786, Note_off_c, 0, 44, 54
1, 66798, Control_c, 0, 64, 75
1, 66804, Note_on_c, 0, 56, 44
1, 66813, Control_c, 0, 64, 78
1, 66828, Control_c, 0, 64, 82
1, 66836, Note_off_c, 0, 56, 57
1, 66843, Control_c, 0, 64, 84
1, 66843, Control_c, 0, 67, 76
1, 66849, Note_on_c, 0, 51, 47
1, 66858, Control_c, 0, 64, 87
1, 66858, Control_c, 0, 67, 76
1, 66873, Control_c, 0, 64, 89
1, 66873, Control_c, 0, 67, 77
1, 66888, Control_c, 0, 64, 91
1, 66888, Control_c, 0, 67, 79
1, 66893, Note_off_c, 0, 51, 58
1, 66902, Control_c, 0, 64, 91
1, 66902, Control_c, 0, 67, 82
1, 66905, Note_off_c, 0, 68, 66
1, 66917, Note_on_c, 0, 56, 57
1, 66917, Control_c, 0, 67, 84
1, 66923, Note_off_c, 0, 75, 63
1, 66932, Control_c, 0, 64, 88
1, 66932, Control_c, 0, 67, 87
1, 66947, Control_c, 0, 64, 79
1, 66947, Control_c, 0, 67, 89
1, 66954, Note_off_c, 0, 56, 63
1, 66962, Control_c, 0, 64, 68
1, 66962, Control_c, 0, 67, 89
1, 66977, Control_c, 0, 64, 58
1, 66977, Control_c, 0, 67, 90
1, 66990, Note_on_c, 0, 44, 57
1, 66992, Control_c, 0, 64, 51
1, 67006, Control_c, 0, 64, 55
1, 67021, Control_c, 0, 64, 63
1, 67035, Note_off_c, 0, 44, 58
1, 67036, Control_c, 0, 64, 67
1, 67051, Control_c, 0, 64, 71
1, 67057, Note_on_c, 0, 56, 44
1, 67073, Control_c, 0, 64, 74
1, 67087, Control_c, 0, 64, 77
1, 67094, Note_off_c, 0, 56, 61
1, 67102, Control_c, 0, 64, 79
1, 67102, Control_c, 0, 67, 89
1, 67108, Note_on_c, 0, 51, 55
1, 67117, Control_c, 0, 67, 89
1, 67145, Note_off_c, 0, 51, 59
1, 67147, Control_c, 0, 67, 88
1, 67175, Note_on_c, 0, 56, 58
1, 67219, Note_off_c, 0, 56, 60
1, 67236, Control_c, 0, 64, 77
1, 67251, Control_c, 0, 64, 73
1, 67266, Note_on_c, 0, 44, 52
1, 67266, Control_c, 0, 64, 64
1, 67281, Control_c, 0, 64, 42
1, 67292, Note_on_c, 0, 83, 58
1, 67295, Control_c, 0, 64, 0
1, 67295, Control_c, 0, 67, 88
1, 67310, Control_c, 0, 67, 87
1, 67338, Note_off_c, 0, 44, 53
1, 67353, Note_on_c, 0, 56, 42
1, 67354, Control_c, 0, 64, 47
1, 67354, Control_c, 0, 67, 87
1, 67369, Control_c, 0, 64, 60
1, 67384, Control_c, 0, 64, 66
1, 67384, Control_c, 0, 67, 86
1, 67394, Note_off_c, 0, 56, 62
1, 67399, Control_c, 0, 64, 72
1, 67399, Control_c, 0, 67, 86
1, 67409, Note_on_c, 0, 51, 46
1, 67413, Control_c, 0, 64, 77
1, 67413, Control_c, 0, 67, 85
1, 67428, Control_c, 0, 64, 81
1, 67443, Control_c, 0, 64, 84
1, 67450, Note_off_c, 0, 51, 57
1, 67458, Control_c, 0, 64, 87
1, 67458, Control_c, 0, 67, 86
1, 67473, Control_c, 0, 64, 90
1, 67482, Note_on_c, 0, 56, 59
1, 67487, Control_c, 0, 64, 94
1, 67487, Control_c, 0, 67, 86
1, 67502, Control_c, 0, 64, 97
1, 67502, Control_c, 0, 67, 86
1, 67513, Note_off_c, 0, 83, 61
1, 67514, Note_on_c, 0, 80, 58
1, 67517, Control_c, 0, 64, 96
1, 67528, Note_off_c, 0, 56, 60
1, 67532, Control_c, 0, 64, 87
1, 67546, Note_off_c, 0, 80, 66
1, 67546, Control_c, 0, 64, 73
1, 67561, Control_c, 0, 64, 58
1, 67567, Note_on_c, 0, 44, 57
1, 67572, Note_on_c, 0, 79, 58
1, 67576, Control_c, 0, 64, 0
1, 67576, Control_c, 0, 67, 85
1, 67591, Control_c, 0, 67, 85
1, 67606, Control_c, 0, 64, 38
1, 67616, Note_off_c, 0, 44, 57
1, 67621, Control_c, 0, 64, 59
1, 67636, Control_c, 0, 64, 67
1, 67651, Control_c, 0, 64, 73
1, 67666, Control_c, 0, 64, 79
1, 67672, Note_on_c, 0, 58, 38
1, 67681, Control_c, 0, 64, 82
1, 67681, Control_c, 0, 67, 84
1, 67696, Control_c, 0, 64, 83
1, 67696, Control_c, 0, 67, 84
1, 67710, Control_c, 0, 64, 84
1, 67710, Control_c, 0, 67, 83
1, 67711, Note_off_c, 0, 58, 50
1, 67724, Note_off_c, 0, 79, 60
1, 67725, Control_c, 0, 64, 86
1, 67734, Note_on_c, 0, 51, 50
1, 67740, Control_c, 0, 64, 88
1, 67740, Control_c, 0, 67, 84
1, 67755, Control_c, 0, 64, 91
1, 67770, Control_c, 0, 64, 94
1, 67773, Note_off_c, 0, 51, 60
1, 67785, Control_c, 0, 64, 96
1, 67800, Control_c, 0, 67, 84
1, 67822, Note_on_c, 0, 58, 44
1, 67836, Control_c, 0, 64, 93
1, 67851, Control_c, 0, 64, 84
1, 67866, Control_c, 0, 64, 73
1, 67869, Note_off_c, 0, 58, 50
1, 67881, Control_c, 0, 64, 60
1, 67882, Note_on_c, 0, 87, 55
1, 67895, Note_on_c, 0, 44, 48
1, 67896, Control_c, 0, 64, 45
1, 67896, Control_c, 0, 67, 83
1, 67910, Control_c, 0, 64, 44
1, 67919, Note_on_c, 0, 79, 36
1, 67923, Note_on_c, 0, 73, 43
1, 67925, Control_c, 0, 64, 55
1, 67940, Control_c, 0, 64, 63
1, 67940, Control_c, 0, 67, 83
1, 67946, Note_off_c, 0, 44, 54
1, 67955, Control_c, 0, 64, 68
1, 67970, Note_on_c, 0, 58, 49
1, 67970, Control_c, 0, 64, 75
1, 67970, Control_c, 0, 67, 82
1, 67984, Control_c, 0, 64, 81
1, 67984, Control_c, 0, 67, 82
1, 67999, Control_c, 0, 64, 85
1, 67999, Control_c, 0, 67, 81
1, 68011, Note_off_c, 0, 58, 61
1, 68014, Control_c, 0, 64, 89
1, 68029, Control_c, 0, 64, 92
1, 68035, Note_off_c, 0, 79, 53
1, 68044, Control_c, 0, 64, 96
1, 68047, Note_off_c, 0, 73, 49
1, 68050, Note_on_c, 0, 51, 47
1, 68054, Note_off_c, 0, 87, 55
1, 68059, Control_c, 0, 64, 100
1, 68059, Control_c, 0, 67, 82
1, 68074, Control_c, 0, 64, 104
1, 68089, Control_c, 0, 64, 104
1, 68091, Note_off_c, 0, 51, 56
1, 68115, Note_on_c, 0, 58, 53
1, 68118, Control_c, 0, 64, 102
1, 68133, Control_c, 0, 64, 92
1, 68133, Control_c, 0, 67, 81
1, 68148, Control_c, 0, 64, 79
1, 68156, Note_off_c, 0, 58, 61
1, 68162, Control_c, 0, 64, 65
1, 68177, Control_c, 0, 64, 53
1, 68177, Control_c, 0, 67, 81
1, 68192, Control_c, 0, 64, 49
1, 68200, Note_on_c, 0, 44, 56
1, 68202, Note_on_c, 0, 87, 67
1, 68207, Control_c, 0, 64, 57
1, 68207, Control_c, 0, 67, 80
1, 68222, Control_c, 0, 64, 64
1, 68222, Control_c, 0, 67, 80
1, 68223, Note_on_c, 0, 79, 50
1, 68225, Note_on_c, 0, 73, 49
1, 68236, Control_c, 0, 64, 70
1, 68236, Control_c, 0, 67, 78
1, 68247, Note_off_c, 0, 44, 57
1, 68251, Control_c, 0, 64, 77
1, 68251, Control_c, 0, 67, 76
1, 68262, Note_on_c, 0, 58, 51
1, 68266, Control_c, 0, 64, 86
1, 68266, Control_c, 0, 67, 74
1, 68281, Control_c, 0, 64, 92
1, 68281, Control_c, 0, 67, 72
1, 68296, Control_c, 0, 64, 96
1, 68296, Control_c, 0, 67, 72
1, 68310, Control_c, 0, 64, 99
1, 68310, Control_c, 0, 67, 71
1, 68311, Note_off_c, 0, 58, 60
1, 68322, Note_off_c, 0, 79, 53
1, 68325, Control_c, 0, 64, 103
1, 68336, Note_on_c, 0, 51, 51
1, 68340, Control_c, 0, 64, 109
1, 68340, Control_c, 0, 67, 72
1, 68354, Control_c, 0, 64, 125
1, 68368, Note_off_c, 0, 87, 56
1, 68369, Control_c, 0, 64, 127
1, 68369, Control_c, 0, 67, 72
1, 68376, Note_off_c, 0, 73, 38
1, 68378, Note_off_c, 0, 51, 57
1, 68384, Control_c, 0, 67, 73
1, 68414, Control_c, 0, 67, 73
1, 68423, Note_on_c, 0, 58, 53
1, 68429, Control_c, 0, 64, 98
1, 68445, Control_c, 0, 64, 80
1, 68450, Note_off_c, 0, 58, 63
1, 68459, Control_c, 0, 64, 64
1, 68472, Note_on_c, 0, 87, 74
1, 68474, Control_c, 0, 64, 51
1, 68477, Note_on_c, 0, 73, 62
1, 68485, Note_on_c, 0, 79, 56
1, 68489, Control_c, 0, 64, 51
1, 68491, Note_on_c, 0, 44, 56
1, 68504, Control_c, 0, 64, 59
1, 68504, Control_c, 0, 67, 73
1, 68519, Control_c, 0, 64, 66
1, 68523, Note_off_c, 0, 87, 60
1, 68528, Note_off_c, 0, 44, 59
1, 68530, Note_off_c, 0, 79, 55
1, 68533, Note_off_c, 0, 73, 60
1, 68533, Control_c, 0, 64, 73
1, 68548, Control_c, 0, 64, 81
1, 68548, Control_c, 0, 67, 72
1, 68549, Note_on_c, 0, 58, 44
1, 68571, Control_c, 0, 64, 87
1, 68585, Control_c, 0, 64, 90
1, 68600, Note_off_c, 0, 58, 60
1, 68600, Control_c, 0, 64, 93
1, 68600, Control_c, 0, 67, 72
1, 68615, Control_c, 0, 64, 95
1, 68615, Control_c, 0, 67, 71
1, 68630, Control_c, 0, 64, 101
1, 68645, Control_c, 0, 64, 113
1, 68646, Note_on_c, 0, 51, 39
1, 68659, Control_c, 0, 64, 127
1, 68659, Control_c, 0, 67, 72
1, 68674, Control_c, 0, 67, 72
1, 68678, Note_off_c, 0, 51, 54
1, 68689, Control_c, 0, 67, 73
1, 68692, Note_on_c, 0, 71, 67
1, 68704, Control_c, 0, 64, 94
1, 68704, Control_c, 0, 67, 73
1, 68718, Note_off_c, 0, 71, 66
1, 68719, Control_c, 0, 64, 69
1, 68719, Control_c, 0, 67, 74
1, 68731, Note_on_c, 0, 80, 66
1, 68733, Control_c, 0, 64, 0
1, 68758, Note_on_c, 0, 44, 61
1, 68793, Control_c, 0, 64, 46
1, 68808, Control_c, 0, 64, 59
1, 68817, Note_off_c, 0, 44, 54
1, 68819, Note_on_c, 0, 87, 75
1, 68823, Control_c, 0, 64, 63
1, 68838, Control_c, 0, 64, 67
1, 68845, Note_on_c, 0, 56, 52
1, 68853, Control_c, 0, 64, 71
1, 68867, Control_c, 0, 64, 77
1, 68867, Control_c, 0, 67, 73
1, 68878, Note_off_c, 0, 56, 63
1, 68882, Control_c, 0, 64, 83
1, 68897, Control_c, 0, 64, 88
1, 68904, Note_on_c, 0, 51, 53
1, 68912, Control_c, 0, 64, 90
1, 68927, Control_c, 0, 64, 92
1, 68939, Note_off_c, 0, 51, 61
1, 68941, Control_c, 0, 64, 93
1, 68956, Control_c, 0, 64, 96
1, 68971, Control_c, 0, 64, 102
1, 68971, Control_c, 0, 67, 74
1, 68975, Note_on_c, 0, 56, 55
1, 68986, Control_c, 0, 64, 109
1, 68986, Control_c, 0, 67, 74
1, 69001, Control_c, 0, 64, 118
1, 69001, Control_c, 0, 67, 75
1, 69016, Control_c, 0, 64, 121
1, 69016, Control_c, 0, 67, 76
1, 69018, Note_off_c, 0, 56, 60
1, 69031, Control_c, 0, 64, 117
1, 69046, Control_c, 0, 64, 102
1, 69046, Control_c, 0, 67, 76
1, 69049, Note_on_c, 0, 44, 55
1, 69060, Control_c, 0, 64, 86
1, 69075, Control_c, 0, 64, 73
1, 69090, Control_c, 0, 64, 65
1, 69100, Note_off_c, 0, 44, 55
1, 69105, Control_c, 0, 64, 63
1, 69116, Note_off_c, 0, 80, 61
1, 69118, Note_on_c, 0, 56, 47
1, 69120, Control_c, 0, 64, 67
1, 69134, Control_c, 0, 64, 72
1, 69149, Control_c, 0, 64, 80
1, 69153, Note_off_c, 0, 56, 63
1, 69164, Control_c, 0, 64, 86
1, 69177, Note_on_c, 0, 51, 45
1, 69179, Control_c, 0, 64, 90
1, 69186, Note_off_c, 0, 87, 37
1, 69193, Control_c, 0, 64, 91
1, 69208, Control_c, 0, 64, 92
1, 69208, Control_c, 0, 67, 76
1, 69210, Note_off_c, 0, 51, 52
1, 69223, Control_c, 0, 64, 93
1, 69239, Note_on_c, 0, 56, 60
1, 69239, Control_c, 0, 64, 95
1, 69239, Control_c, 0, 67, 75
1, 69254, Control_c, 0, 64, 99
1, 69269, Control_c, 0, 64, 104
1, 69269, Control_c, 0, 67, 75
1, 69281, Note_off_c, 0, 56, 55
1, 69283, Control_c, 0, 64, 108
1, 69298, Control_c, 0, 67, 75
1, 69320, Note_on_c, 0, 73, 56
1, 69320, Control_c, 0, 64, 104
1, 69320, Control_c, 0, 67, 76
1, 69335, Control_c, 0, 64, 86
1, 69335, Control_c, 0, 67, 76
1, 69342, Note_on_c, 0, 79, 59
1, 69346, Note_on_c, 0, 44, 52
1, 69350, Control_c, 0, 64, 67
1, 69365, Control_c, 0, 64, 0
1, 69390, Note_on_c, 0, 87, 69
1, 69406, Note_off_c, 0, 44, 43
1, 69424, Control_c, 0, 64, 42
1, 69439, Control_c, 0, 64, 56
1, 69448, Note_on_c, 0, 58, 33
1, 69454, Control_c, 0, 64, 60
1, 69469, Control_c, 0, 64, 63
1, 69469, Control_c, 0, 67, 76
1, 69481, Note_off_c, 0, 58, 55
1, 69483, Control_c, 0, 64, 65
1, 69483, Control_c, 0, 67, 75
1, 69498, Control_c, 0, 64, 71
1, 69498, Control_c, 0, 67, 75
1, 69513, Control_c, 0, 64, 77
1, 69514, Note_on_c, 0, 51, 41
1, 69527, Control_c, 0, 64, 85
1, 69542, Control_c, 0, 64, 92
1, 69551, Note_off_c, 0, 51, 55
1, 69556, Control_c, 0, 64, 97
1, 69556, Control_c, 0, 67, 75
1, 69567, Note_off_c, 0, 87, 60
1, 69570, Note_on_c, 0, 58, 52
1, 69571, Control_c, 0, 64, 101
1, 69571, Control_c, 0, 67, 76
1, 69586, Control_c, 0, 64, 102
1, 69601, Control_c, 0, 67, 75
1, 69610, Note_off_c, 0, 58, 61
1, 69615, Control_c, 0, 64, 101
1, 69615, Control_c, 0, 67, 75
1, 69630, Control_c, 0, 64, 100
1, 69630, Control_c, 0, 67, 74
1, 69642, Note_off_c, 0, 73, 58
1, 69645, Note_on_c, 0, 44, 58
1, 69654, Note_off_c, 0, 79, 37
1, 69690, Control_c, 0, 64, 101
1, 69690, Note_off_c, 0, 44, 57
1, 69704, Note_on_c, 0, 58, 51
1, 69719, Control_c, 0, 64, 101
1, 69733, Note_off_c, 0, 58, 60
1, 69734, Control_c, 0, 64, 102
1, 69734, Control_c, 0, 67, 74
1, 69749, Control_c, 0, 64, 103
1, 69764, Control_c, 0, 64, 106
1, 69779, Control_c, 0, 64, 111
1, 69779, Control_c, 0, 67, 74
1, 69791, Note_on_c, 0, 51, 23
1, 69794, Control_c, 0, 64, 121
1, 69808, Control_c, 0, 64, 127
1, 69823, Control_c, 0, 67, 75
1, 69825, Note_on_c, 0, 58, 60
1, 69834, Note_on_c, 0, 71, 63
1, 69835, Note_off_c, 0, 51, 52
1, 69838, Control_c, 0, 67, 76
1, 69853, Control_c, 0, 67, 77
1, 69857, Note_off_c, 0, 71, 64
1, 69868, Control_c, 0, 64, 104
1, 69868, Control_c, 0, 67, 78
1, 69868, Note_off_c, 0, 58, 60
1, 69871, Note_on_c, 0, 80, 64
1, 69882, Control_c, 0, 64, 77
1, 69882, Control_c, 0, 67, 79
1, 69897, Control_c, 0, 64, 57
1, 69897, Control_c, 0, 67, 80
1, 69912, Control_c, 0, 64, 0
1, 69912, Control_c, 0, 67, 81
1, 69926, Control_c, 0, 67, 82
1, 69931, Note_on_c, 0, 44, 55
1, 69941, Control_c, 0, 64, 19
1, 69952, Note_on_c, 0, 87, 71
1, 69956, Control_c, 0, 64, 55
1, 69956, Control_c, 0, 67, 82
1, 69971, Control_c, 0, 64, 66
1, 69986, Control_c, 0, 64, 73
1, 69997, Note_off_c, 0, 44, 52
1, 70000, Control_c, 0, 64, 79
1, 70015, Control_c, 0, 64, 83
1, 70031, Control_c, 0, 64, 86
1, 70031, Control_c, 0, 67, 82
1, 70038, Note_on_c, 0, 56, 14
1, 70046, Control_c, 0, 64, 88
1, 70046, Control_c, 0, 67, 81
1, 70068, Control_c, 0, 64, 90
1, 70083, Control_c, 0, 64, 92
1, 70083, Control_c, 0, 67, 81
1, 70089, Note_on_c, 0, 51, 46
1, 70091, Note_off_c, 0, 56, 54
1, 70098, Control_c, 0, 64, 94
1, 70113, Control_c, 0, 64, 96
1, 70128, Control_c, 0, 64, 99
1, 70131, Note_off_c, 0, 51, 47
1, 70143, Control_c, 0, 64, 101
1, 70158, Control_c, 0, 64, 104
1, 70158, Control_c, 0, 67, 81
1, 70172, Control_c, 0, 64, 106
1, 70187, Control_c, 0, 64, 107
1, 70187, Control_c, 0, 67, 82
1, 70191, Note_on_c, 0, 56, 23
1, 70201, Note_off_c, 0, 87, 32
1, 70202, Control_c, 0, 64, 108
1, 70217, Control_c, 0, 64, 109
1, 70217, Control_c, 0, 67, 82
1, 70232, Note_off_c, 0, 56, 53
1, 70232, Control_c, 0, 64, 110
1, 70237, Note_on_c, 0, 44, 48
1, 70246, Control_c, 0, 64, 113
1, 70261, Control_c, 0, 64, 115
1, 70274, Note_off_c, 0, 44, 50
1, 70276, Control_c, 0, 64, 116
1, 70291, Control_c, 0, 64, 117
1, 70291, Control_c, 0, 67, 82
1, 70306, Control_c, 0, 67, 82
1, 70320, Control_c, 0, 64, 117
1, 70335, Control_c, 0, 67, 83
1, 70350, Control_c, 0, 64, 118
1, 70350, Control_c, 0, 67, 83
1, 70394, Control_c, 0, 67, 85
1, 70397, Note_off_c, 0, 80, 17
1, 70409, Control_c, 0, 64, 117
1, 70409, Control_c, 0, 67, 87
1, 70421, Poly_aftertouch_c, 0, 51, 127
1, 70424, Control_c, 0, 64, 104
1, 70424, Control_c, 0, 67, 88
1, 70426, Note_on_c, 0, 51, 3
1, 70427, Note_on_c, 0, 73, 52
1, 70428, Poly_aftertouch_c, 0, 56, 0
1, 70438, Control_c, 0, 64, 85
1, 70438, Control_c, 0, 67, 89
1, 70453, Control_c, 0, 64, 64
1, 70453, Control_c, 0, 67, 89
1, 70459, Note_on_c, 0, 79, 45
1, 70465, Note_off_c, 0, 51, 51
1, 70465, Poly_aftertouch_c, 0, 56, 127
1, 70468, Control_c, 0, 64, 0
1, 70468, Control_c, 0, 67, 90
1, 70483, Control_c, 0, 67, 91
1, 70507, Poly_aftertouch_c, 0, 56, 0
1, 70512, Note_on_c, 0, 44, 57
1, 70512, Note_on_c, 0, 87, 61
1, 70512, Control_c, 0, 64, 31
1, 70527, Control_c, 0, 64, 56
1, 70527, Control_c, 0, 67, 90
1, 70542, Control_c, 0, 64, 66
1, 70557, Control_c, 0, 64, 73
1, 70566, Note_off_c, 0, 44, 57
1, 70572, Control_c, 0, 64, 79
1, 70572, Control_c, 0, 67, 90
1, 70587, Control_c, 0, 64, 82
1, 70592, Note_on_c, 0, 58, 48
1, 70602, Control_c, 0, 64, 84
1, 70617, Note_off_c, 0, 87, 62
1, 70617, Control_c, 0, 64, 85
1, 70630, Note_off_c, 0, 58, 50
1, 70631, Control_c, 0, 64, 86
1, 70640, Note_off_c, 0, 79, 60
1, 70646, Control_c, 0, 64, 87
1, 70661, Control_c, 0, 64, 89
1, 70670, Note_off_c, 0, 73, 62
1, 70676, Control_c, 0, 64, 90
1, 70677, Note_on_c, 0, 51, 38
1, 70691, Control_c, 0, 64, 91
1, 70705, Control_c, 0, 64, 91
1, 70705, Control_c, 0, 67, 89
1, 70710, Note_off_c, 0, 51, 53
1, 70719, Note_on_c, 0, 58, 54
1, 70720, Control_c, 0, 64, 92
1, 70735, Control_c, 0, 64, 93
1, 70735, Control_c, 0, 67, 89
1, 70749, Control_c, 0, 64, 93
1, 70751, Note_off_c, 0, 58, 54
1, 70764, Control_c, 0, 64, 94
1, 70779, Control_c, 0, 64, 95
1, 70787, Note_on_c, 0, 44, 57
1, 70794, Control_c, 0, 64, 95
1, 70816, Control_c, 0, 64, 97
1, 70816, Control_c, 0, 67, 88
1, 70832, Control_c, 0, 64, 100
1, 70832, Control_c, 0, 67, 88
1, 70841, Note_off_c, 0, 44, 58
1, 70847, Control_c, 0, 64, 103
1, 70852, Note_on_c, 0, 58, 51
1, 70861, Control_c, 0, 64, 106
1, 70876, Control_c, 0, 64, 109
1, 70885, Note_off_c, 0, 58, 61
1, 70891, Control_c, 0, 64, 111
1, 70906, Control_c, 0, 64, 113
1, 70906, Control_c, 0, 67, 88
1, 70921, Control_c, 0, 64, 114
1, 70928, Note_on_c, 0, 51, 43
1, 70936, Control_c, 0, 64, 115
1, 70962, Note_off_c, 0, 51, 52
1, 70980, Control_c, 0, 64, 114
1, 70985, Note_on_c, 0, 58, 53
1, 70995, Control_c, 0, 64, 112
1, 71010, Control_c, 0, 64, 99
1, 71024, Control_c, 0, 64, 80
1, 71025, Note_off_c, 0, 58, 61
1, 71039, Control_c, 0, 64, 65
1, 71053, Control_c, 0, 64, 45
1, 71068, Control_c, 0, 64, 32
1, 71068, Control_c, 0, 67, 88
1, 71083, Control_c, 0, 64, 45
1, 71086, Note_on_c, 0, 59, 36
1, 71091, Note_on_c, 0, 44, 47
1, 71098, Control_c, 0, 64, 57
1, 71113, Control_c, 0, 64, 64
1, 71128, Control_c, 0, 64, 68
1, 71128, Control_c, 0, 67, 87
1, 71136, Note_off_c, 0, 59, 44
1, 71142, Control_c, 0, 64, 73
1, 71149, Note_off_c, 0, 44, 51
1, 71157, Control_c, 0, 64, 76
1, 71163, Note_on_c, 0, 68, 46
1, 71172, Control_c, 0, 64, 77
1, 71172, Control_c, 0, 67, 87
1, 71186, Control_c, 0, 64, 78
1, 71196, Note_on_c, 0, 56, 23
1, 71201, Control_c, 0, 64, 80
1, 71205, Note_off_c, 0, 68, 63
1, 71216, Control_c, 0, 64, 82
1, 71231, Control_c, 0, 64, 84
1, 71231, Control_c, 0, 67, 86
1, 71240, Note_off_c, 0, 56, 42
1, 71246, Control_c, 0, 64, 84
1, 71249, Note_on_c, 0, 51, 44
1, 71258, Note_on_c, 0, 63, 41
1, 71260, Control_c, 0, 64, 85
1, 71275, Control_c, 0, 64, 85
1, 71289, Note_off_c, 0, 51, 48
1, 71290, Control_c, 0, 64, 86
1, 71304, Note_off_c, 0, 63, 59
1, 71305, Control_c, 0, 64, 87
1, 71306, Note_on_c, 0, 68, 54
1, 71317, Note_on_c, 0, 56, 56
1, 71320, Control_c, 0, 64, 86
1, 71320, Control_c, 0, 67, 86
1, 71335, Control_c, 0, 64, 84
1, 71335, Control_c, 0, 67, 85
1, 71344, Note_off_c, 0, 68, 65
1, 71350, Control_c, 0, 64, 81
1, 71359, Note_off_c, 0, 56, 63
1, 71365, Control_c, 0, 64, 78
1, 71365, Control_c, 0, 67, 84
1, 71379, Control_c, 0, 64, 76
1, 71380, Note_on_c, 0, 44, 52
1, 71380, Note_on_c, 0, 59, 49
1, 71394, Control_c, 0, 64, 77
1, 71394, Control_c, 0, 67, 84
1, 71409, Control_c, 0, 64, 79
1, 71421, Note_off_c, 0, 44, 58
1, 71424, Control_c, 0, 64, 82
1, 71424, Control_c, 0, 67, 83
1, 71437, Note_off_c, 0, 59, 49
1, 71439, Control_c, 0, 64, 84
1, 71439, Control_c, 0, 67, 83
1, 71442, Note_on_c, 0, 68, 58
1, 71445, Note_on_c, 0, 56, 61
1, 71453, Control_c, 0, 64, 86
1, 71453, Control_c, 0, 67, 82
1, 71468, Control_c, 0, 64, 87
1, 71483, Control_c, 0, 64, 88
1, 71485, Note_off_c, 0, 56, 64
1, 71487, Note_off_c, 0, 68, 59
1, 71498, Control_c, 0, 64, 89
1, 71508, Note_on_c, 0, 51, 53
1, 71513, Control_c, 0, 64, 91
1, 71527, Control_c, 0, 64, 94
1, 71540, Note_on_c, 0, 63, 49
1, 71542, Control_c, 0, 64, 96
1, 71545, Note_off_c, 0, 51, 61
1, 71565, Control_c, 0, 64, 96
1, 71579, Control_c, 0, 64, 96
1, 71579, Control_c, 0, 67, 82
1, 71582, Note_on_c, 0, 56, 60
1, 71591, Note_off_c, 0, 63, 60
1, 71594, Control_c, 0, 64, 91
1, 71594, Control_c, 0, 67, 81
1, 71597, Note_on_c, 0, 68, 68
1, 71609, Control_c, 0, 64, 84
1, 71609, Control_c, 0, 67, 80
1, 71620, Note_off_c, 0, 56, 60
1, 71624, Control_c, 0, 64, 77
1, 71624, Control_c, 0, 67, 79
1, 71635, Note_off_c, 0, 68, 63
1, 71639, Control_c, 0, 64, 73
1, 71639, Control_c, 0, 67, 77
1, 71654, Control_c, 0, 64, 72
1, 71654, Control_c, 0, 67, 75
1, 71655, Note_on_c, 0, 59, 68
1, 71657, Note_on_c, 0, 44, 63
1, 71669, Control_c, 0, 64, 74
1, 71669, Control_c, 0, 67, 73
1, 71684, Control_c, 0, 64, 76
1, 71684, Control_c, 0, 67, 71
1, 71699, Control_c, 0, 64, 78
1, 71699, Control_c, 0, 67, 68
1, 71706, Note_off_c, 0, 44, 55
1, 71714, Control_c, 0, 64, 79
1, 71714, Control_c, 0, 67, 66
1, 71716, Note_off_c, 0, 59, 58
1, 71720, Note_on_c, 0, 56, 64
1, 71726, Note_on_c, 0, 68, 75
1, 71728, Control_c, 0, 64, 80
1, 71728, Control_c, 0, 67, 65
1, 71743, Control_c, 0, 64, 83
1, 71743, Control_c, 0, 67, 63
1, 71758, Control_c, 0, 64, 88
1, 71758, Control_c, 0, 67, 62
1, 71763, Note_off_c, 0, 56, 62
1, 71773, Control_c, 0, 64, 93
1, 71778, Note_off_c, 0, 68, 58
1, 71785, Note_on_c, 0, 51, 61
1, 71788, Control_c, 0, 64, 97
1, 71802, Control_c, 0, 64, 97
1, 71808, Note_on_c, 0, 63, 59
1, 71817, Control_c, 0, 64, 97
1, 71821, Note_off_c, 0, 51, 60
1, 71832, Control_c, 0, 64, 90
1, 71847, Control_c, 0, 64, 80
1, 71847, Control_c, 0, 67, 62
1, 71851, Note_off_c, 0, 63, 61
1, 71858, Note_on_c, 0, 68, 72
1, 71862, Control_c, 0, 64, 68
1, 71863, Note_on_c, 0, 56, 59
1, 71876, Control_c, 0, 64, 59
1, 71876, Control_c, 0, 67, 60
1, 71891, Control_c, 0, 64, 58
1, 71891, Control_c, 0, 67, 57
1, 71893, Note_off_c, 0, 68, 62
1, 71895, Note_off_c, 0, 56, 63
1, 71906, Control_c, 0, 64, 63
1, 71906, Control_c, 0, 67, 54
1, 71913, Note_on_c, 0, 44, 70
1, 71919, Note_on_c, 0, 59, 75
1, 71921, Control_c, 0, 64, 68
1, 71921, Control_c, 0, 67, 49
1, 71935, Control_c, 0, 64, 74
1, 71935, Control_c, 0, 67, 46
1, 71950, Control_c, 0, 64, 80
1, 71950, Control_c, 0, 67, 42
1, 71965, Control_c, 0, 64, 85
1, 71965, Control_c, 0, 67, 39
1, 71973, Note_on_c, 0, 56, 70
1, 71976, Note_off_c, 0, 59, 60
1, 71980, Control_c, 0, 64, 87
1, 71980, Control_c, 0, 67, 35
1, 71984, Note_on_c, 0, 68, 78
1, 71988, Note_off_c, 0, 44, 52
1, 71995, Control_c, 0, 64, 87
1, 71995, Control_c, 0, 67, 33
1, 72009, Control_c, 0, 64, 89
1, 72009, Control_c, 0, 67, 31
1, 72019, Note_off_c, 0, 56, 62
1, 72024, Note_off_c, 0, 68, 51
1, 72024, Control_c, 0, 64, 91
1, 72024, Control_c, 0, 67, 28
1, 72032, Note_on_c, 0, 51, 62
1, 72039, Control_c, 0, 64, 95
1, 72039, Control_c, 0, 67, 26
1, 72054, Control_c, 0, 64, 102
1, 72054, Control_c, 0, 67, 23
1, 72056, Note_on_c, 0, 63, 68
1, 72069, Control_c, 0, 64, 113
1, 72069, Control_c, 0, 67, 20
1, 72075, Note_off_c, 0, 51, 55
1, 72083, Control_c, 0, 64, 127
1, 72083, Control_c, 0, 67, 18
1, 72098, Note_on_c, 0, 56, 71
1, 72110, Note_off_c, 0, 63, 60
1, 72115, Note_on_c, 0, 68, 72
1, 72143, Note_off_c, 0, 68, 62
1, 72143, Control_c, 0, 64, 110
1, 72143, Note_off_c, 0, 56, 63
1, 72158, Control_c, 0, 64, 82
1, 72173, Control_c, 0, 64, 61
1, 72188, Control_c, 0, 64, 0
1, 72188, Note_on_c, 0, 44, 68
1, 72194, Note_on_c, 0, 60, 71
1, 72232, Control_c, 0, 64, 39
1, 72247, Control_c, 0, 64, 60
1, 72253, Note_off_c, 0, 44, 57
1, 72256, Note_on_c, 0, 54, 70
1, 72256, Note_on_c, 0, 66, 66
1, 72258, Note_off_c, 0, 60, 64
1, 72262, Control_c, 0, 64, 66
1, 72262, Control_c, 0, 67, 18
1, 72276, Control_c, 0, 64, 70
1, 72276, Control_c, 0, 67, 16
1, 72291, Control_c, 0, 64, 73
1, 72291, Control_c, 0, 67, 11
1, 72313, Control_c, 0, 64, 75
1, 72313, Control_c, 0, 67, 0
1, 72314, Note_off_c, 0, 66, 61
1, 72315, Note_off_c, 0, 54, 61
1, 72324, Note_on_c, 0, 51, 69
1, 72326, Note_on_c, 0, 63, 65
1, 72328, Control_c, 0, 64, 77
1, 72343, Control_c, 0, 64, 80
1, 72357, Control_c, 0, 64, 85
1, 72372, Control_c, 0, 64, 90
1, 72387, Control_c, 0, 64, 97
1, 72388, Note_off_c, 0, 51, 57
1, 72399, Note_on_c, 0, 54, 73
1, 72400, Note_on_c, 0, 66, 76
1, 72401, Note_off_c, 0, 63, 63
1, 72402, Control_c, 0, 64, 108
1, 72417, Control_c, 0, 64, 123
1, 72432, Control_c, 0, 64, 127
1, 72438, Note_off_c, 0, 54, 62
1, 72444, Note_off_c, 0, 66, 56
1, 72447, Control_c, 0, 64, 113
1, 72462, Note_on_c, 0, 44, 82
1, 72462, Control_c, 0, 64, 94
1, 72470, Note_on_c, 0, 60, 83
1, 72477, Control_c, 0, 64, 77
1, 72492, Control_c, 0, 64, 65
1, 72507, Control_c, 0, 64, 59
1, 72521, Control_c, 0, 64, 63
1, 72530, Note_on_c, 0, 54, 81
1, 72533, Note_on_c, 0, 66, 81
1, 72536, Control_c, 0, 64, 68
1, 72537, Note_off_c, 0, 60, 64
1, 72542, Note_off_c, 0, 44, 59
1, 72551, Control_c, 0, 64, 79
1, 72566, Control_c, 0, 64, 90
1, 72581, Control_c, 0, 64, 99
1, 72590, Note_off_c, 0, 54, 64
1, 72593, Note_off_c, 0, 66, 63
1, 72596, Control_c, 0, 64, 104
1, 72596, Note_on_c, 0, 51, 77
1, 72602, Note_on_c, 0, 63, 74
1, 72611, Control_c, 0, 64, 114
1, 72625, Control_c, 0, 64, 127
1, 72660, Note_off_c, 0, 51, 62
1, 72673, Note_on_c, 0, 54, 74
1, 72675, Note_on_c, 0, 66, 83
1, 72675, Note_off_c, 0, 63, 63
1, 72685, Control_c, 0, 64, 125
1, 72699, Control_c, 0, 64, 97
1, 72712, Note_off_c, 0, 54, 58
1, 72714, Control_c, 0, 64, 81
1, 72727, Note_on_c, 0, 44, 83
1, 72728, Note_off_c, 0, 66, 62
1, 72729, Control_c, 0, 64, 69
1, 72737, Note_on_c, 0, 60, 85
1, 72744, Control_c, 0, 64, 68
1, 72758, Control_c, 0, 64, 74
1, 72773, Control_c, 0, 64, 85
1, 72788, Control_c, 0, 64, 105
1, 72799, Note_on_c, 0, 66, 82
1, 72801, Note_on_c, 0, 54, 82
1, 72803, Control_c, 0, 64, 127
1, 72805, Note_off_c, 0, 44, 59
1, 72805, Note_off_c, 0, 60, 63
1, 72854, Note_off_c, 0, 66, 63
1, 72855, Note_off_c, 0, 54, 64
1, 72861, Note_on_c, 0, 51, 75
1, 72871, Note_on_c, 0, 63, 75
1, 72913, Note_off_c, 0, 51, 60
1, 72930, Note_off_c, 0, 63, 63
1, 72931, Note_on_c, 0, 54, 79
1, 72936, Control_c, 0, 64, 117
1, 72937, Note_on_c, 0, 66, 81
1, 72951, Control_c, 0, 64, 89
1, 72966, Control_c, 0, 64, 72
1, 72971, Note_off_c, 0, 54, 58
1, 72974, Note_off_c, 0, 66, 59
1, 72980, Control_c, 0, 64, 62
1, 72992, Note_on_c, 0, 60, 78
1, 72995, Note_on_c, 0, 44, 81
1, 72995, Control_c, 0, 64, 62
1, 72995, Control_c, 0, 67, 8
1, 73010, Control_c, 0, 64, 71
1, 73010, Control_c, 0, 67, 0
1, 73025, Control_c, 0, 64, 90
1, 73040, Control_c, 0, 64, 127
1, 73045, Note_off_c, 0, 60, 63
1, 73061, Note_off_c, 0, 44, 51
1, 73068, Note_on_c, 0, 66, 75
1, 73080, Note_on_c, 0, 54, 65
1, 73089, Note_on_c, 0, 51, 76
1, 73099, Note_off_c, 0, 54, 67
1, 73102, Note_off_c, 0, 66, 64
1, 73123, Note_off_c, 0, 51, 64
1, 73126, Note_on_c, 0, 63, 72
1, 73156, Note_on_c, 0, 54, 68
1, 73166, Note_on_c, 0, 66, 58
1, 73185, Note_off_c, 0, 54, 67
1, 73190, Note_off_c, 0, 63, 61
1, 73192, Note_off_c, 0, 66, 68
1, 73241, Control_c, 0, 64, 109
1, 73255, Control_c, 0, 64, 82
1, 73270, Control_c, 0, 64, 65
1, 73285, Control_c, 0, 64, 60
1, 73300, Control_c, 0, 64, 70
1, 73315, Control_c, 0, 64, 91
1, 73323, Note_on_c, 0, 53, 103
1, 73323, Note_on_c, 0, 65, 92
1, 73323, Note_on_c, 0, 56, 91
1, 73329, Control_c, 0, 64, 127
1, 73330, Note_on_c, 0, 61, 79
1, 73333, Note_on_c, 0, 37, 90
1, 73341, Note_off_c, 0, 53, 73
1, 73342, Note_off_c, 0, 65, 70
1, 73351, Note_off_c, 0, 56, 61
1, 73354, Note_off_c, 0, 61, 68
1, 73366, Note_off_c, 0, 37, 63
1, 73404, Control_c, 0, 67, 8
1, 73419, Control_c, 0, 67, 9
1, 73434, Control_c, 0, 67, 12
1, 73448, Control_c, 0, 67, 17
1, 73463, Control_c, 0, 67, 19
1, 73471, Note_on_c, 0, 49, 75
1, 73478, Control_c, 0, 67, 22
1, 73493, Control_c, 0, 67, 25
1, 73508, Control_c, 0, 64, 123
1, 73508, Control_c, 0, 67, 30
1, 73508, Note_on_c, 0, 44, 78
1, 73522, Control_c, 0, 64, 95
1, 73522, Control_c, 0, 67, 35
1, 73533, Note_off_c, 0, 44, 67
1, 73537, Control_c, 0, 64, 75
1, 73537, Control_c, 0, 67, 41
1, 73550, Note_on_c, 0, 53, 56
1, 73552, Control_c, 0, 64, 56
1, 73552, Control_c, 0, 67, 46
1, 73559, Note_off_c, 0, 49, 61
1, 73567, Control_c, 0, 64, 0
1, 73567, Control_c, 0, 67, 52
1, 73581, Control_c, 0, 67, 58
1, 73596, Control_c, 0, 67, 63
1, 73609, Note_off_c, 0, 53, 62
1, 73610, Note_on_c, 0, 56, 60
1, 73611, Control_c, 0, 67, 65
1, 73626, Control_c, 0, 67, 67
1, 73641, Control_c, 0, 67, 70
1, 73651, Note_on_c, 0, 61, 65
1, 73655, Note_on_c, 0, 37, 58
1, 73655, Control_c, 0, 67, 72
1, 73656, Note_off_c, 0, 56, 62
1, 73670, Control_c, 0, 67, 74
1, 73681, Note_off_c, 0, 37, 60
1, 73685, Control_c, 0, 67, 77
1, 73690, Note_off_c, 0, 61, 61
1, 73700, Control_c, 0, 67, 83
1, 73715, Control_c, 0, 67, 89
1, 73729, Control_c, 0, 67, 96
1, 73744, Note_on_c, 0, 53, 37
1, 73744, Control_c, 0, 67, 102
1, 73759, Control_c, 0, 67, 109
1, 73761, Note_on_c, 0, 44, 68
1, 73773, Control_c, 0, 67, 116
1, 73774, Note_off_c, 0, 53, 57
1, 73776, Note_on_c, 0, 56, 63
1, 73788, Control_c, 0, 67, 121
1, 73791, Note_off_c, 0, 44, 63
1, 73811, Control_c, 0, 67, 123
1, 73826, Control_c, 0, 67, 124
1, 73841, Control_c, 0, 67, 125
1, 73845, Note_off_c, 0, 56, 64
1, 73845, Note_on_c, 0, 61, 60
1, 73855, Control_c, 0, 67, 126
1, 73885, Control_c, 0, 67, 126
1, 73887, Note_off_c, 0, 61, 65
1, 73896, Note_on_c, 0, 65, 62
1, 73900, Control_c, 0, 67, 127
1, 73901, Note_on_c, 0, 37, 67
1, 73933, Note_off_c, 0, 37, 64
1, 73948, Note_off_c, 0, 65, 56
1, 73959, Control_c, 0, 67, 127
1, 73964, Note_on_c, 0, 56, 62
1, 74027, Note_on_c, 0, 44, 58
1, 74033, Note_off_c, 0, 56, 60
1, 74036, Note_on_c, 0, 61, 52
1, 74057, Note_off_c, 0, 44, 61
1, 74083, Note_on_c, 0, 65, 53
1, 74086, Note_off_c, 0, 61, 62
1, 74130, Note_off_c, 0, 65, 62
1, 74146, Note_on_c, 0, 68, 63
1, 74149, Note_on_c, 0, 37, 66
1, 74179, Note_off_c, 0, 37, 63
1, 74197, Note_off_c, 0, 68, 61
1, 74206, Note_on_c, 0, 61, 54
1, 74260, Note_on_c, 0, 65, 58
1, 74265, Note_on_c, 0, 44, 68
1, 74270, Note_off_c, 0, 61, 56
1, 74286, Control_c, 0, 67, 127
1, 74291, Note_off_c, 0, 44, 63
1, 74331, Control_c, 0, 67, 126
1, 74334, Note_on_c, 0, 68, 59
1, 74340, Note_off_c, 0, 65, 58
1, 74346, Control_c, 0, 67, 125
1, 74360, Control_c, 0, 67, 125
1, 74375, Control_c, 0, 67, 124
1, 74385, Note_on_c, 0, 73, 65
1, 74390, Control_c, 0, 67, 124
1, 74394, Note_on_c, 0, 37, 65
1, 74405, Note_off_c, 0, 68, 64
1, 74419, Control_c, 0, 67, 123
1, 74426, Note_off_c, 0, 73, 60
1, 74426, Note_off_c, 0, 37, 64
1, 74449, Control_c, 0, 67, 123
1, 74466, Note_on_c, 0, 65, 59
1, 74510, Note_on_c, 0, 44, 72
1, 74515, Note_on_c, 0, 68, 67
1, 74516, Note_off_c, 0, 65, 58
1, 74537, Note_off_c, 0, 44, 64
1, 74591, Note_off_c, 0, 68, 64
1, 74593, Note_on_c, 0, 73, 64
1, 74631, Note_off_c, 0, 73, 61
1, 74641, Note_on_c, 0, 77, 64
1, 74645, Note_on_c, 0, 37, 72
1, 74649, Control_c, 0, 67, 122
1, 74679, Note_off_c, 0, 37, 63
1, 74704, Note_on_c, 0, 68, 63
1, 74711, Note_off_c, 0, 77, 62
1, 74769, Note_on_c, 0, 73, 67
1, 74771, Note_on_c, 0, 44, 67
1, 74794, Note_off_c, 0, 68, 64
1, 74799, Note_off_c, 0, 44, 63
1, 74822, Note_on_c, 0, 77, 66
1, 74828, Control_c, 0, 67, 122
1, 74843, Control_c, 0, 67, 121
1, 74854, Note_off_c, 0, 73, 63
1, 74858, Control_c, 0, 67, 120
1, 74873, Control_c, 0, 67, 119
1, 74881, Note_off_c, 0, 77, 62
1, 74885, Note_on_c, 0, 80, 75
1, 74888, Control_c, 0, 67, 118
1, 74897, Note_on_c, 0, 37, 72
1, 74902, Control_c, 0, 67, 117
1, 74917, Control_c, 0, 67, 115
1, 74932, Control_c, 0, 67, 112
1, 74937, Note_off_c, 0, 37, 61
1, 74947, Control_c, 0, 67, 108
1, 74949, Note_on_c, 0, 73, 64
1, 74949, Note_off_c, 0, 80, 63
1, 74961, Control_c, 0, 67, 105
1, 74976, Control_c, 0, 67, 101
1, 74991, Control_c, 0, 67, 100
1, 74996, Note_on_c, 0, 44, 81
1, 75006, Note_on_c, 0, 77, 66
1, 75006, Control_c, 0, 67, 101
1, 75021, Control_c, 0, 67, 103
1, 75035, Control_c, 0, 67, 103
1, 75037, Note_off_c, 0, 44, 62
1, 75047, Note_off_c, 0, 73, 59
1, 75048, Note_on_c, 0, 80, 78
1, 75065, Control_c, 0, 67, 100
1, 75080, Note_off_c, 0, 77, 63
1, 75080, Control_c, 0, 67, 82
1, 75091, Note_off_c, 0, 80, 65
1, 75094, Control_c, 0, 67, 28
1, 75109, Control_c, 0, 67, 0
1, 75118, Note_on_c, 0, 77, 88
1, 75119, Note_on_c, 0, 85, 99
1, 75120, Note_on_c, 0, 80, 84
1, 75122, Note_on_c, 0, 73, 97
1, 75124, Note_on_c, 0, 49, 99
1, 75124, Control_c, 0, 64, 49
1, 75130, Note_on_c, 0, 37, 86
1, 75139, Control_c, 0, 64, 80
1, 75154, Control_c, 0, 64, 110
1, 75159, Note_off_c, 0, 37, 67
1, 75159, Note_off_c, 0, 49, 61
1, 75168, Control_c, 0, 64, 127
1, 75176, Note_on_c, 0, 39, 16
1, 75177, Note_off_c, 0, 73, 62
1, 75178, Note_off_c, 0, 85, 64
1, 75184, Note_off_c, 0, 80, 62
1, 75192, Note_off_c, 0, 77, 61
1, 75221, Note_off_c, 0, 39, 44
1, 75249, Note_on_c, 0, 44, 80
1, 75258, Control_c, 0, 67, 8
1, 75258, Note_on_c, 0, 85, 63
1, 75261, Note_on_c, 0, 73, 81
1, 75270, Note_on_c, 0, 77, 58
1, 75273, Control_c, 0, 67, 11
1, 75273, Note_off_c, 0, 85, 69
1, 75275, Note_on_c, 0, 78, 15
1, 75279, Note_off_c, 0, 44, 65
1, 75288, Control_c, 0, 67, 19
1, 75303, Note_off_c, 0, 77, 59
1, 75305, Note_off_c, 0, 73, 64
1, 75309, Control_c, 0, 67, 32
1, 75324, Control_c, 0, 67, 49
1, 75325, Note_off_c, 0, 78, 52
1, 75339, Control_c, 0, 67, 65
1, 75353, Control_c, 0, 64, 125
1, 75353, Control_c, 0, 67, 79
1, 75368, Control_c, 0, 64, 103
1, 75368, Control_c, 0, 67, 91
1, 75383, Control_c, 0, 64, 87
1, 75383, Control_c, 0, 67, 104
1, 75398, Control_c, 0, 64, 71
1, 75398, Control_c, 0, 67, 113
1, 75413, Control_c, 0, 64, 55
1, 75413, Control_c, 0, 67, 123
1, 75425, Note_on_c, 0, 35, 62
1, 75428, Control_c, 0, 64, 0
1, 75428, Control_c, 0, 67, 127
1, 75456, Note_off_c, 0, 35, 64
1, 75468, Note_on_c, 0, 49, 63
1, 75539, Note_on_c, 0, 53, 65
1, 75541, Note_off_c, 0, 49, 62
1, 75547, Note_on_c, 0, 44, 65
1, 75576, Note_off_c, 0, 44, 63
1, 75608, Note_off_c, 0, 53, 65
1, 75612, Note_on_c, 0, 56, 61
1, 75668, Note_on_c, 0, 61, 62
1, 75679, Note_off_c, 0, 56, 62
1, 75686, Note_on_c, 0, 35, 62
1, 75707, Note_off_c, 0, 61, 64
1, 75715, Note_off_c, 0, 35, 65
1, 75750, Note_on_c, 0, 53, 49
1, 75787, Note_off_c, 0, 53, 63
1, 75806, Note_on_c, 0, 56, 58
1, 75823, Note_on_c, 0, 44, 53
1, 75850, Note_off_c, 0, 44, 55
1, 75864, Note_on_c, 0, 61, 62
1, 75878, Note_off_c, 0, 56, 63
1, 75920, Note_off_c, 0, 61, 60
1, 75938, Note_on_c, 0, 65, 62
1, 75938, Note_on_c, 0, 35, 66
1, 75973, Note_off_c, 0, 35, 64
1, 75994, Note_off_c, 0, 65, 58
1, 75995, Note_on_c, 0, 56, 60
1, 76075, Note_on_c, 0, 61, 60
1, 76083, Note_off_c, 0, 56, 58
1, 76089, Note_on_c, 0, 44, 46
1, 76121, Note_off_c, 0, 44, 52
1, 76131, Note_on_c, 0, 65, 50
1, 76143, Note_off_c, 0, 61, 62
1, 76183, Note_off_c, 0, 65, 62
1, 76196, Note_on_c, 0, 35, 66
1, 76196, Note_on_c, 0, 68, 65
1, 76227, Note_off_c, 0, 35, 64
1, 76248, Note_off_c, 0, 68, 63
1, 76255, Note_on_c, 0, 61, 52
1, 76305, Note_on_c, 0, 65, 65
1, 76313, Note_off_c, 0, 61, 58
1, 76321, Note_on_c, 0, 44, 65
1, 76353, Note_off_c, 0, 44, 63
1, 76374, Note_on_c, 0, 68, 63
1, 76397, Note_off_c, 0, 65, 56
1, 76435, Note_on_c, 0, 73, 71
1, 76446, Note_off_c, 0, 68, 64
1, 76448, Note_on_c, 0, 35, 69
1, 76480, Note_off_c, 0, 35, 64
1, 76486, Note_off_c, 0, 73, 62
1, 76525, Note_on_c, 0, 65, 53
1, 76568, Note_on_c, 0, 68, 64
1, 76575, Note_on_c, 0, 44, 61
1, 76575, Note_off_c, 0, 65, 58
1, 76603, Note_off_c, 0, 44, 61
1, 76639, Note_on_c, 0, 73, 58
1, 76640, Note_off_c, 0, 68, 64
1, 76686, Note_on_c, 0, 35, 75
1, 76688, Note_off_c, 0, 73, 64
1, 76689, Note_on_c, 0, 77, 68
1, 76710, Control_c, 0, 67, 127
1, 76727, Note_off_c, 0, 35, 64
1, 76755, Note_on_c, 0, 68, 60
1, 76757, Note_off_c, 0, 77, 63
1, 76818, Note_on_c, 0, 73, 65
1, 76824, Note_on_c, 0, 44, 66
1, 76837, Note_off_c, 0, 68, 58
1, 76849, Note_off_c, 0, 44, 61
1, 76880, Note_on_c, 0, 77, 69
1, 76880, Control_c, 0, 67, 126
1, 76895, Control_c, 0, 67, 124
1, 76897, Note_off_c, 0, 73, 61
1, 76910, Control_c, 0, 67, 121
1, 76924, Control_c, 0, 67, 118
1, 76934, Note_off_c, 0, 77, 63
1, 76939, Control_c, 0, 67, 115
1, 76944, Note_on_c, 0, 80, 71
1, 76948, Note_on_c, 0, 35, 76
1, 76954, Control_c, 0, 67, 112
1, 76969, Control_c, 0, 67, 107
1, 76984, Control_c, 0, 67, 101
1, 76990, Note_off_c, 0, 35, 62
1, 76999, Control_c, 0, 67, 93
1, 77003, Note_off_c, 0, 80, 64
1, 77008, Note_on_c, 0, 73, 62
1, 77014, Control_c, 0, 67, 84
1, 77029, Control_c, 0, 67, 75
1, 77043, Control_c, 0, 67, 71
1, 77060, Note_on_c, 0, 44, 78
1, 77067, Note_on_c, 0, 77, 71
1, 77073, Control_c, 0, 67, 73
1, 77088, Control_c, 0, 67, 74
1, 77091, Note_off_c, 0, 44, 63
1, 77103, Control_c, 0, 67, 75
1, 77109, Note_off_c, 0, 73, 62
1, 77109, Note_on_c, 0, 80, 73
1, 77117, Control_c, 0, 67, 74
1, 77131, Note_off_c, 0, 77, 61
1, 77132, Control_c, 0, 67, 71
1, 77145, Note_off_c, 0, 80, 65
1, 77147, Control_c, 0, 67, 60
1, 77162, Control_c, 0, 67, 30
1, 77177, Control_c, 0, 67, 0
1, 77184, Note_on_c, 0, 85, 99
1, 77187, Note_on_c, 0, 80, 81
1, 77189, Note_on_c, 0, 77, 79
1, 77190, Note_on_c, 0, 73, 91
1, 77191, Control_c, 0, 64, 67
1, 77193, Note_on_c, 0, 47, 93
1, 77195, Note_on_c, 0, 35, 94
1, 77206, Control_c, 0, 64, 85
1, 77222, Control_c, 0, 64, 127
1, 77222, Note_off_c, 0, 35, 69
1, 77222, Note_off_c, 0, 47, 66
1, 77248, Note_off_c, 0, 73, 60
1, 77255, Note_off_c, 0, 85, 61
1, 77257, Note_off_c, 0, 77, 53
1, 77265, Note_off_c, 0, 80, 60
1, 77321, Note_on_c, 0, 44, 90
1, 77324, Note_on_c, 0, 80, 44
1, 77327, Note_on_c, 0, 73, 74
1, 77339, Note_on_c, 0, 77, 38
1, 77346, Note_off_c, 0, 44, 67
1, 77348, Note_off_c, 0, 80, 57
1, 77358, Note_off_c, 0, 73, 67
1, 77363, Note_off_c, 0, 77, 59
1, 77444, Control_c, 0, 64, 116
1, 77459, Control_c, 0, 64, 96
1, 77474, Control_c, 0, 64, 78
1, 77488, Control_c, 0, 64, 59
1, 77498, Note_on_c, 0, 33, 77
1, 77503, Control_c, 0, 64, 0
1, 77534, Note_off_c, 0, 33, 64
1, 77573, Note_on_c, 0, 49, 80
1, 77629, Control_c, 0, 67, 8
1, 77644, Control_c, 0, 67, 8
1, 77652, Note_on_c, 0, 45, 63
1, 77656, Note_on_c, 0, 54, 70
1, 77659, Control_c, 0, 67, 9
1, 77670, Note_off_c, 0, 49, 61
1, 77681, Note_off_c, 0, 45, 64
1, 77696, Note_on_c, 0, 57, 66
1, 77735, Note_off_c, 0, 54, 63
1, 77745, Note_off_c, 0, 57, 65
1, 77747, Control_c, 0, 67, 8
1, 77750, Note_on_c, 0, 61, 67
1, 77762, Control_c, 0, 67, 0
1, 77777, Note_on_c, 0, 33, 77
1, 77779, Note_off_c, 0, 61, 65
1, 77815, Note_off_c, 0, 33, 64
1, 77842, Note_on_c, 0, 61, 64
1, 77907, Note_on_c, 0, 45, 73
1, 77910, Note_on_c, 0, 66, 69
1, 77921, Note_off_c, 0, 61, 58
1, 77939, Note_off_c, 0, 45, 64
1, 77958, Note_on_c, 0, 69, 67
1, 78003, Note_off_c, 0, 66, 63
1, 78018, Note_off_c, 0, 69, 65
1, 78024, Note_on_c, 0, 73, 67
1, 78035, Note_on_c, 0, 33, 77
1, 78041, Note_off_c, 0, 73, 65
1, 78090, Note_off_c, 0, 33, 58
1, 78108, Note_on_c, 0, 73, 68
1, 78152, Note_on_c, 0, 45, 78
1, 78162, Note_on_c, 0, 78, 74
1, 78189, Note_off_c, 0, 45, 64
1, 78205, Note_on_c, 0, 81, 70
1, 78206, Note_off_c, 0, 73, 61
1, 78227, Note_off_c, 0, 78, 64
1, 78245, Note_off_c, 0, 81, 68
1, 78276, Note_on_c, 0, 81, 79
1, 78277, Note_on_c, 0, 85, 98
1, 78280, Note_on_c, 0, 78, 87
1, 78281, Note_on_c, 0, 73, 96
1, 78281, Note_on_c, 0, 33, 92
1, 78304, Control_c, 0, 64, 70
1, 78319, Control_c, 0, 64, 90
1, 78334, Control_c, 0, 64, 127
1, 78340, Note_off_c, 0, 33, 62
1, 78352, Note_off_c, 0, 73, 57
1, 78364, Note_off_c, 0, 78, 63
1, 78364, Note_off_c, 0, 81, 61
1, 78368, Note_off_c, 0, 85, 62
1, 78432, Note_on_c, 0, 45, 76
1, 78436, Note_on_c, 0, 78, 77
1, 78438, Note_on_c, 0, 73, 79
1, 78441, Note_on_c, 0, 81, 63
1, 78456, Note_off_c, 0, 81, 69
1, 78462, Note_off_c, 0, 45, 65
1, 78466, Note_off_c, 0, 78, 62
1, 78471, Note_on_c, 0, 85, 7
1, 78479, Note_off_c, 0, 73, 60
1, 78513, Note_off_c, 0, 85, 46
1, 78616, Control_c, 0, 64, 92
1, 78625, Note_on_c, 0, 29, 94
1, 78631, Control_c, 0, 64, 66
1, 78645, Control_c, 0, 64, 0
1, 78675, Note_off_c, 0, 29, 64
1, 78710, Note_on_c, 0, 49, 77
1, 78764, Control_c, 0, 67, 8
1, 78766, Note_on_c, 0, 41, 73
1, 78771, Note_on_c, 0, 56, 70
1, 78784, Note_off_c, 0, 49, 61
1, 78806, Note_off_c, 0, 41, 64
1, 78839, Control_c, 0, 67, 8
1, 78842, Note_on_c, 0, 59, 67
1, 78854, Control_c, 0, 67, 0
1, 78874, Note_off_c, 0, 56, 64
1, 78886, Note_off_c, 0, 59, 64
1, 78890, Note_on_c, 0, 61, 54
1, 78896, Note_on_c, 0, 29, 93
1, 78915, Note_off_c, 0, 61, 57
1, 78955, Note_off_c, 0, 29, 63
1, 78981, Note_on_c, 0, 61, 66
1, 79032, Note_on_c, 0, 41, 76
1, 79045, Note_on_c, 0, 68, 72
1, 79060, Note_off_c, 0, 61, 60
1, 79085, Note_off_c, 0, 41, 61
1, 79117, Note_on_c, 0, 71, 63
1, 79132, Note_on_c, 0, 72, 56
1, 79147, Note_off_c, 0, 68, 65
1, 79153, Note_off_c, 0, 72, 61
1, 79157, Note_on_c, 0, 73, 65
1, 79163, Note_off_c, 0, 71, 66
1, 79175, Note_on_c, 0, 29, 88
1, 79175, Note_off_c, 0, 73, 66
1, 79236, Note_off_c, 0, 29, 63
1, 79238, Note_on_c, 0, 73, 80
1, 79312, Note_on_c, 0, 41, 77
1, 79312, Note_on_c, 0, 80, 73
1, 79342, Note_on_c, 0, 82, 46
1, 79348, Note_on_c, 0, 83, 77
1, 79351, Note_off_c, 0, 73, 58
1, 79369, Note_off_c, 0, 41, 60
1, 79377, Note_off_c, 0, 82, 48
1, 79395, Note_off_c, 0, 80, 61
1, 79409, Note_off_c, 0, 83, 62
1, 79442, Note_on_c, 0, 85, 103
1, 79444, Note_on_c, 0, 73, 102
1, 79445, Poly_aftertouch_c, 0, 83, 0
1, 79447, Note_on_c, 0, 29, 94
1, 79449, Note_on_c, 0, 80, 89
1, 79451, Note_on_c, 0, 83, 79
1, 79454, Control_c, 0, 64, 62
1, 79468, Control_c, 0, 64, 81
1, 79483, Control_c, 0, 64, 101
1, 79498, Control_c, 0, 64, 108
1, 79505, Note_off_c, 0, 29, 63
1, 79527, Control_c, 0, 64, 109
1, 79534, Note_off_c, 0, 73, 58
1, 79542, Control_c, 0, 64, 111
1, 79551, Note_off_c, 0, 80, 61
1, 79551, Note_off_c, 0, 83, 60
1, 79552, Note_off_c, 0, 85, 60
1, 79557, Control_c, 0, 64, 113
1, 79609, Note_on_c, 0, 85, 83
1, 79610, Note_on_c, 0, 73, 93
1, 79610, Note_on_c, 0, 83, 76
1, 79612, Note_on_c, 0, 80, 73
1, 79615, Note_on_c, 0, 41, 80
1, 79653, Note_off_c, 0, 41, 62
1, 79662, Control_c, 0, 64, 112
1, 79666, Note_off_c, 0, 80, 62
1, 79673, Note_off_c, 0, 83, 62
1, 79677, Control_c, 0, 64, 112
1, 79691, Control_c, 0, 64, 109
1, 79699, Note_off_c, 0, 85, 63
1, 79699, Note_off_c, 0, 73, 56
1, 79706, Control_c, 0, 64, 98
1, 79721, Control_c, 0, 64, 76
1, 79735, Control_c, 0, 64, 0
1, 79829, Note_on_c, 0, 85, 90
1, 79831, Note_on_c, 0, 73, 90
1, 79834, Note_on_c, 0, 81, 81
1, 79837, Note_on_c, 0, 78, 85
1, 79840, Note_on_c, 0, 42, 95
1, 79844, Note_on_c, 0, 30, 84
1, 79847, Control_c, 0, 64, 44
1, 79862, Control_c, 0, 64, 73
1, 79865, Note_off_c, 0, 42, 67
1, 79866, Note_off_c, 0, 81, 65
1, 79877, Note_off_c, 0, 30, 63
1, 79877, Note_off_c, 0, 85, 65
1, 79877, Control_c, 0, 64, 85
1, 79878, Note_off_c, 0, 73, 63
1, 79882, Note_off_c, 0, 78, 62
1, 79891, Control_c, 0, 64, 99
1, 79906, Control_c, 0, 64, 114
1, 79921, Control_c, 0, 64, 127
1, 79936, Control_c, 0, 67, 8
1, 79950, Control_c, 0, 67, 13
1, 79965, Control_c, 0, 67, 20
1, 79980, Control_c, 0, 67, 25
1, 79995, Control_c, 0, 67, 29
1, 80009, Control_c, 0, 67, 32
1, 80024, Control_c, 0, 67, 34
1, 80039, Control_c, 0, 67, 38
1, 80054, Control_c, 0, 67, 43
1, 80069, Control_c, 0, 67, 50
1, 80084, Control_c, 0, 67, 54
1, 80098, Control_c, 0, 64, 119
1, 80098, Control_c, 0, 67, 56
1, 80113, Control_c, 0, 64, 103
1, 80113, Control_c, 0, 67, 58
1, 80127, Note_on_c, 0, 61, 58
1, 80128, Control_c, 0, 64, 85
1, 80128, Control_c, 0, 67, 61
1, 80142, Control_c, 0, 64, 61
1, 80142, Control_c, 0, 67, 65
1, 80157, Control_c, 0, 64, 0
1, 80157, Control_c, 0, 67, 71
1, 80172, Control_c, 0, 67, 77
1, 80175, Note_off_c, 0, 61, 56
1, 80187, Control_c, 0, 67, 80
1, 80202, Control_c, 0, 67, 82
1, 80216, Control_c, 0, 67, 83
1, 80224, Note_on_c, 0, 57, 45
1, 80231, Control_c, 0, 67, 85
1, 80246, Control_c, 0, 67, 87
1, 80261, Control_c, 0, 67, 89
1, 80283, Note_off_c, 0, 57, 59
1, 80315, Note_on_c, 0, 61, 37
1, 80360, Note_off_c, 0, 61, 51
1, 80364, Control_c, 0, 67, 88
1, 80377, Note_on_c, 0, 73, 75
1, 80379, Control_c, 0, 67, 87
1, 80394, Control_c, 0, 67, 86
1, 80402, Note_on_c, 0, 54, 47
1, 80410, Control_c, 0, 64, 19
1, 80410, Control_c, 0, 67, 86
1, 80425, Control_c, 0, 64, 51
1, 80425, Control_c, 0, 67, 85
1, 80439, Control_c, 0, 64, 59
1, 80454, Control_c, 0, 64, 62
1, 80454, Control_c, 0, 67, 85
1, 80469, Control_c, 0, 64, 62
1, 80481, Note_on_c, 0, 61, 38
1, 80484, Control_c, 0, 64, 63
1, 80499, Control_c, 0, 64, 64
1, 80513, Control_c, 0, 64, 67
1, 80518, Note_off_c, 0, 54, 47
1, 80528, Control_c, 0, 64, 72
1, 80528, Control_c, 0, 67, 84
1, 80549, Note_off_c, 0, 61, 53
1, 80551, Control_c, 0, 64, 76
1, 80551, Control_c, 0, 67, 84
1, 80566, Control_c, 0, 64, 79
1, 80580, Control_c, 0, 64, 80
1, 80580, Control_c, 0, 67, 83
1, 80587, Note_on_c, 0, 57, 42
1, 80610, Control_c, 0, 67, 83
1, 80625, Control_c, 0, 64, 81
1, 80625, Control_c, 0, 67, 82
1, 80639, Control_c, 0, 64, 82
1, 80649, Note_off_c, 0, 57, 57
1, 80654, Control_c, 0, 64, 82
1, 80654, Control_c, 0, 67, 82
1, 80684, Control_c, 0, 67, 81
1, 80698, Control_c, 0, 67, 81
1, 80713, Control_c, 0, 67, 80
1, 80715, Note_on_c, 0, 54, 52
1, 80728, Control_c, 0, 67, 79
1, 80743, Control_c, 0, 67, 77
1, 80757, Poly_aftertouch_c, 0, 61, 0
1, 80758, Control_c, 0, 67, 76
1, 80775, Note_on_c, 0, 61, 34
1, 80787, Control_c, 0, 67, 76
1, 80802, Control_c, 0, 67, 74
1, 80805, Note_off_c, 0, 54, 48
1, 80817, Control_c, 0, 67, 70
1, 80832, Control_c, 0, 67, 65
1, 80835, Note_off_c, 0, 61, 55
1, 80847, Control_c, 0, 64, 83
1, 80847, Control_c, 0, 67, 62
1, 80860, Note_on_c, 0, 57, 51
1, 80862, Control_c, 0, 64, 83
1, 80862, Control_c, 0, 67, 60
1, 80877, Control_c, 0, 64, 84
1, 80877, Control_c, 0, 67, 59
1, 80891, Control_c, 0, 64, 85
1, 80891, Control_c, 0, 67, 56
1, 80906, Control_c, 0, 64, 86
1, 80906, Control_c, 0, 67, 52
1, 80910, Note_off_c, 0, 57, 60
1, 80921, Control_c, 0, 64, 87
1, 80921, Control_c, 0, 67, 50
1, 80936, Control_c, 0, 64, 87
1, 80936, Control_c, 0, 67, 50
1, 80938, Note_on_c, 0, 61, 39
1, 80951, Control_c, 0, 64, 88
1, 80962, Note_on_c, 0, 69, 65
1, 80965, Control_c, 0, 64, 88
1, 80974, Note_off_c, 0, 61, 51
1, 80984, Note_on_c, 0, 54, 53
1, 80996, Note_off_c, 0, 73, 54
1, 81010, Control_c, 0, 64, 89
1, 81010, Control_c, 0, 67, 51
1, 81025, Control_c, 0, 64, 89
1, 81025, Control_c, 0, 67, 52
1, 81039, Control_c, 0, 67, 52
1, 81054, Control_c, 0, 67, 53
1, 81062, Note_on_c, 0, 61, 57
1, 81069, Control_c, 0, 64, 90
1, 81098, Control_c, 0, 67, 54
1, 81103, Note_off_c, 0, 61, 59
1, 81107, Note_off_c, 0, 54, 58
1, 81113, Control_c, 0, 67, 54
1, 81128, Control_c, 0, 67, 55
1, 81129, Note_on_c, 0, 57, 58
1, 81171, Note_off_c, 0, 57, 62
1, 81174, Note_off_c, 0, 69, 62
1, 81193, Note_on_c, 0, 66, 66
1, 81214, Note_on_c, 0, 61, 48
1, 81224, Note_off_c, 0, 66, 64
1, 81245, Note_off_c, 0, 61, 51
1, 81248, Control_c, 0, 64, 89
1, 81267, Note_on_c, 0, 65, 69
1, 81277, Control_c, 0, 64, 89
1, 81288, Note_on_c, 0, 56, 55
1, 81300, Control_c, 0, 64, 87
1, 81314, Control_c, 0, 64, 84
1, 81316, Note_off_c, 0, 65, 57
1, 81322, Note_on_c, 0, 66, 74
1, 81329, Control_c, 0, 64, 80
1, 81344, Control_c, 0, 64, 75
1, 81356, Note_on_c, 0, 61, 55
1, 81357, Note_off_c, 0, 66, 60
1, 81359, Control_c, 0, 64, 70
1, 81374, Control_c, 0, 64, 64
1, 81379, Note_off_c, 0, 56, 38
1, 81385, Note_on_c, 0, 68, 68
1, 81389, Control_c, 0, 64, 53
1, 81403, Control_c, 0, 64, 41
1, 81418, Control_c, 0, 64, 32
1, 81424, Note_off_c, 0, 61, 62
1, 81433, Control_c, 0, 64, 27
1, 81440, Note_on_c, 0, 66, 64
1, 81440, Note_off_c, 0, 68, 62
1, 81444, Note_on_c, 0, 59, 58
1, 81448, Control_c, 0, 64, 12
1, 81448, Control_c, 0, 67, 55
1, 81463, Control_c, 0, 64, 0
1, 81530, Note_off_c, 0, 59, 59
1, 81551, Note_on_c, 0, 61, 47
1, 81584, Note_off_c, 0, 61, 56
1, 81596, Control_c, 0, 67, 54
1, 81611, Control_c, 0, 67, 54
1, 81616, Note_on_c, 0, 56, 50
1, 81638, Note_on_c, 0, 65, 56
1, 81641, Control_c, 0, 67, 53
1, 81652, Note_off_c, 0, 66, 52
1, 81656, Control_c, 0, 67, 52
1, 81670, Control_c, 0, 67, 52
1, 81673, Note_off_c, 0, 56, 55
1, 81679, Note_on_c, 0, 61, 50
1, 81685, Control_c, 0, 67, 51
1, 81715, Control_c, 0, 67, 51
1, 81729, Control_c, 0, 64, 27
1, 81733, Note_off_c, 0, 61, 61
1, 81744, Control_c, 0, 64, 51
1, 81759, Control_c, 0, 64, 61
1, 81759, Control_c, 0, 67, 50
1, 81774, Control_c, 0, 64, 63
1, 81777, Note_on_c, 0, 59, 37
1, 81789, Control_c, 0, 64, 65
1, 81804, Control_c, 0, 64, 67
1, 81819, Control_c, 0, 64, 69
1, 81831, Note_off_c, 0, 59, 47
1, 81834, Control_c, 0, 64, 72
1, 81841, Note_on_c, 0, 61, 50
1, 81849, Control_c, 0, 64, 76
1, 81849, Control_c, 0, 67, 50
1, 81863, Control_c, 0, 64, 79
1, 81871, Note_off_c, 0, 61, 60
1, 81878, Control_c, 0, 64, 81
1, 81893, Control_c, 0, 64, 82
1, 81907, Control_c, 0, 64, 83
1, 81908, Note_on_c, 0, 56, 50
1, 81915, Note_off_c, 0, 65, 61
1, 81922, Control_c, 0, 64, 85
1, 81937, Control_c, 0, 64, 86
1, 81952, Control_c, 0, 64, 88
1, 81954, Note_off_c, 0, 56, 59
1, 81957, Note_on_c, 0, 61, 60
1, 81967, Control_c, 0, 64, 89
1, 82012, Control_c, 0, 64, 87
1, 82017, Note_off_c, 0, 61, 59
1, 82027, Control_c, 0, 64, 81
1, 82049, Note_on_c, 0, 59, 60
1, 82049, Control_c, 0, 64, 71
1, 82051, Note_on_c, 0, 65, 70
1, 82054, Poly_aftertouch_c, 0, 73, 0
1, 82064, Control_c, 0, 64, 63
1, 82079, Control_c, 0, 64, 54
1, 82079, Control_c, 0, 67, 49
1, 82093, Control_c, 0, 64, 53
1, 82093, Control_c, 0, 67, 48
1, 82108, Control_c, 0, 64, 58
1, 82108, Control_c, 0, 67, 46
1, 82123, Note_off_c, 0, 59, 60
1, 82123, Control_c, 0, 64, 63
1, 82123, Control_c, 0, 67, 42
1, 82138, Control_c, 0, 64, 66
1, 82138, Control_c, 0, 67, 39
1, 82140, Note_on_c, 0, 61, 54
1, 82153, Control_c, 0, 64, 71
1, 82153, Control_c, 0, 67, 36
1, 82168, Control_c, 0, 64, 75
1, 82168, Control_c, 0, 67, 33
1, 82177, Note_off_c, 0, 61, 62
1, 82183, Control_c, 0, 64, 79
1, 82183, Control_c, 0, 67, 30
1, 82197, Control_c, 0, 64, 83
1, 82197, Control_c, 0, 67, 28
1, 82206, Note_on_c, 0, 73, 77
1, 82209, Note_on_c, 0, 56, 55
1, 82212, Control_c, 0, 64, 85
1, 82212, Control_c, 0, 67, 29
1, 82227, Control_c, 0, 64, 87
1, 82227, Control_c, 0, 67, 30
1, 82232, Note_off_c, 0, 65, 60
1, 82242, Control_c, 0, 67, 33
1, 82257, Control_c, 0, 64, 84
1, 82257, Control_c, 0, 67, 34
1, 82270, Note_on_c, 0, 61, 57
1, 82272, Control_c, 0, 64, 76
1, 82272, Control_c, 0, 67, 34
1, 82287, Control_c, 0, 64, 66
1, 82301, Control_c, 0, 64, 52
1, 82301, Control_c, 0, 67, 34
1, 82316, Control_c, 0, 64, 40
1, 82320, Note_off_c, 0, 56, 29
1, 82328, Note_off_c, 0, 61, 60
1, 82331, Control_c, 0, 64, 50
1, 82345, Control_c, 0, 64, 59
1, 82360, Control_c, 0, 64, 64
1, 82360, Control_c, 0, 67, 34
1, 82364, Note_on_c, 0, 59, 50
1, 82375, Control_c, 0, 64, 66
1, 82390, Control_c, 0, 64, 67
1, 82444, Note_off_c, 0, 59, 51
1, 82449, Control_c, 0, 64, 68
1, 82462, Note_on_c, 0, 61, 46
1, 82472, Note_on_c, 0, 65, 62
1, 82493, Control_c, 0, 67, 35
1, 82504, Note_off_c, 0, 61, 61
1, 82508, Control_c, 0, 64, 64
1, 82508, Control_c, 0, 67, 35
1, 82523, Control_c, 0, 64, 48
1, 82536, Note_off_c, 0, 73, 60
1, 82537, Control_c, 0, 64, 0
1, 82538, Note_on_c, 0, 57, 52
1, 82550, Note_on_c, 0, 68, 67
1, 82560, Note_off_c, 0, 65, 58
1, 82582, Control_c, 0, 67, 36
1, 82601, Note_off_c, 0, 57, 60
1, 82612, Control_c, 0, 67, 36
1, 82624, Note_on_c, 0, 61, 43
1, 82627, Control_c, 0, 67, 37
1, 82642, Control_c, 0, 64, 33
1, 82642, Control_c, 0, 67, 38
1, 82656, Control_c, 0, 64, 51
1, 82656, Control_c, 0, 67, 39
1, 82671, Note_off_c, 0, 61, 60
1, 82671, Control_c, 0, 64, 59
1, 82686, Control_c, 0, 64, 62
1, 82701, Control_c, 0, 64, 64
1, 82716, Control_c, 0, 64, 65
1, 82719, Note_on_c, 0, 57, 41
1, 82730, Control_c, 0, 64, 66
1, 82730, Control_c, 0, 67, 39
1, 82745, Control_c, 0, 64, 68
1, 82756, Note_off_c, 0, 57, 57
1, 82760, Control_c, 0, 64, 70
1, 82760, Control_c, 0, 67, 40
1, 82775, Control_c, 0, 64, 73
1, 82775, Control_c, 0, 67, 40
1, 82797, Control_c, 0, 64, 74
1, 82797, Control_c, 0, 67, 41
1, 82798, Note_on_c, 0, 61, 44
1, 82831, Note_off_c, 0, 61, 57
1, 82842, Control_c, 0, 64, 72
1, 82857, Control_c, 0, 64, 69
1, 82867, Note_on_c, 0, 57, 52
1, 82872, Control_c, 0, 64, 65
1, 82879, Note_on_c, 0, 66, 55
1, 82879, Note_off_c, 0, 68, 60
1, 82887, Control_c, 0, 64, 62
1, 82902, Control_c, 0, 64, 61
1, 82909, Note_off_c, 0, 57, 62
1, 82916, Control_c, 0, 64, 62
1, 82927, Note_on_c, 0, 61, 50
1, 82931, Control_c, 0, 64, 63
1, 82946, Control_c, 0, 64, 64
1, 82973, Note_off_c, 0, 61, 59
1, 82990, Control_c, 0, 64, 64
1, 83004, Note_on_c, 0, 57, 57
1, 83005, Control_c, 0, 64, 63
1, 83020, Control_c, 0, 64, 62
1, 83035, Control_c, 0, 64, 61
1, 83035, Control_c, 0, 67, 40
1, 83050, Note_off_c, 0, 57, 61
1, 83065, Control_c, 0, 64, 62
1, 83065, Control_c, 0, 67, 40
1, 83080, Note_on_c, 0, 61, 53
1, 83080, Control_c, 0, 64, 63
1, 83094, Control_c, 0, 64, 64
1, 83109, Control_c, 0, 64, 64
1, 83109, Control_c, 0, 67, 39
1, 83120, Note_off_c, 0, 61, 61
1, 83124, Control_c, 0, 64, 63
1, 83139, Control_c, 0, 64, 61
1, 83154, Control_c, 0, 64, 58
1, 83161, Note_on_c, 0, 57, 54
1, 83168, Control_c, 0, 64, 56
1, 83183, Control_c, 0, 64, 56
1, 83192, Note_off_c, 0, 66, 59
1, 83202, Note_off_c, 0, 57, 63
1, 83217, Note_on_c, 0, 61, 54
1, 83242, Control_c, 0, 64, 57
1, 83257, Control_c, 0, 64, 57
1, 83257, Control_c, 0, 67, 40
1, 83272, Control_c, 0, 64, 56
1, 83274, Note_off_c, 0, 61, 58
1, 83277, Note_on_c, 0, 66, 62
1, 83286, Control_c, 0, 64, 50
1, 83295, Note_on_c, 0, 57, 60
1, 83301, Control_c, 0, 64, 42
1, 83301, Control_c, 0, 67, 40
1, 83316, Control_c, 0, 64, 39
1, 83331, Control_c, 0, 64, 46
1, 83346, Note_off_c, 0, 57, 60
1, 83346, Control_c, 0, 64, 55
1, 83360, Control_c, 0, 64, 61
1, 83360, Control_c, 0, 67, 41
1, 83374, Note_on_c, 0, 61, 55
1, 83375, Control_c, 0, 64, 63
1, 83375, Control_c, 0, 67, 41
1, 83390, Control_c, 0, 64, 63
1, 83390, Control_c, 0, 67, 42
1, 83405, Control_c, 0, 64, 61
1, 83405, Control_c, 0, 67, 42
1, 83420, Control_c, 0, 64, 60
1, 83420, Control_c, 0, 67, 43
1, 83421, Note_off_c, 0, 61, 58
1, 83434, Control_c, 0, 64, 60
1, 83434, Control_c, 0, 67, 44
1, 83437, Note_on_c, 0, 73, 74
1, 83449, Control_c, 0, 64, 62
1, 83449, Control_c, 0, 67, 45
1, 83461, Note_on_c, 0, 57, 50
1, 83461, Note_off_c, 0, 66, 59
1, 83464, Control_c, 0, 64, 63
1, 83464, Control_c, 0, 67, 46
1, 83479, Control_c, 0, 64, 62
1, 83479, Control_c, 0, 67, 47
1, 83488, Note_off_c, 0, 57, 58
1, 83494, Control_c, 0, 64, 61
1, 83494, Control_c, 0, 67, 50
1, 83509, Control_c, 0, 64, 61
1, 83509, Control_c, 0, 67, 53
1, 83519, Note_on_c, 0, 61, 54
1, 83524, Control_c, 0, 67, 55
1, 83546, Control_c, 0, 64, 61
1, 83546, Control_c, 0, 67, 56
1, 83561, Control_c, 0, 67, 57
1, 83572, Note_off_c, 0, 61, 58
1, 83575, Control_c, 0, 64, 61
1, 83575, Control_c, 0, 67, 58
1, 83590, Control_c, 0, 64, 60
1, 83590, Control_c, 0, 67, 58
1, 83595, Note_on_c, 0, 57, 45
1, 83605, Control_c, 0, 64, 60
1, 83605, Control_c, 0, 67, 60
1, 83621, Control_c, 0, 64, 58
1, 83621, Control_c, 0, 67, 62
1, 83636, Control_c, 0, 64, 53
1, 83636, Control_c, 0, 67, 64
1, 83651, Control_c, 0, 64, 36
1, 83651, Control_c, 0, 67, 65
1, 83655, Note_off_c, 0, 57, 58
1, 83665, Control_c, 0, 64, 0
1, 83665, Control_c, 0, 67, 67
1, 83673, Note_on_c, 0, 66, 61
1, 83680, Control_c, 0, 67, 67
1, 83690, Note_on_c, 0, 61, 32
1, 83731, Note_off_c, 0, 61, 49
1, 83738, Note_off_c, 0, 73, 56
1, 83739, Note_on_c, 0, 69, 69
1, 83741, Note_on_c, 0, 53, 55
1, 83753, Control_c, 0, 67, 68
1, 83760, Note_off_c, 0, 66, 49
1, 83768, Control_c, 0, 67, 68
1, 83782, Control_c, 0, 67, 69
1, 83828, Note_off_c, 0, 53, 62
1, 83842, Note_on_c, 0, 61, 35
1, 83842, Control_c, 0, 67, 69
1, 83857, Control_c, 0, 67, 70
1, 83886, Control_c, 0, 64, 25
1, 83899, Note_off_c, 0, 61, 45
1, 83901, Control_c, 0, 64, 42
1, 83901, Control_c, 0, 67, 70
1, 83911, Note_on_c, 0, 53, 38
1, 83915, Control_c, 0, 64, 48
1, 83915, Control_c, 0, 67, 71
1, 83945, Control_c, 0, 64, 47
1, 83945, Control_c, 0, 67, 72
1, 83955, Note_off_c, 0, 53, 62
1, 83960, Control_c, 0, 64, 46
1, 83989, Control_c, 0, 64, 48
1, 83989, Control_c, 0, 67, 72
1, 84004, Control_c, 0, 64, 50
1, 84004, Control_c, 0, 67, 73
1, 84005, Note_on_c, 0, 61, 30
1, 84019, Control_c, 0, 64, 51
1, 84019, Control_c, 0, 67, 75
1, 84034, Control_c, 0, 67, 76
1, 84043, Note_off_c, 0, 61, 52
1, 84049, Control_c, 0, 67, 77
1, 84053, Note_on_c, 0, 68, 57
1, 84057, Note_on_c, 0, 53, 45
1, 84063, Control_c, 0, 64, 51
1, 84063, Control_c, 0, 67, 77
1, 84065, Note_off_c, 0, 69, 56
1, 84078, Control_c, 0, 64, 51
1, 84093, Control_c, 0, 64, 49
1, 84099, Note_off_c, 0, 53, 63
1, 84108, Control_c, 0, 64, 47
1, 84108, Control_c, 0, 67, 78
1, 84123, Control_c, 0, 64, 46
1, 84129, Note_on_c, 0, 61, 45
1, 84138, Control_c, 0, 64, 46
1, 84153, Control_c, 0, 64, 48
1, 84168, Control_c, 0, 64, 51
1, 84170, Note_off_c, 0, 61, 50
1, 84182, Control_c, 0, 64, 53
1, 84196, Note_on_c, 0, 53, 49
1, 84197, Control_c, 0, 64, 54
1, 84212, Control_c, 0, 64, 53
1, 84227, Control_c, 0, 64, 52
1, 84240, Note_off_c, 0, 53, 62
1, 84242, Control_c, 0, 64, 52
1, 84256, Control_c, 0, 64, 53
1, 84266, Note_on_c, 0, 61, 48
1, 84271, Control_c, 0, 64, 52
1, 84293, Control_c, 0, 64, 50
1, 84308, Control_c, 0, 64, 49
1, 84322, Note_off_c, 0, 61, 59
1, 84323, Control_c, 0, 64, 49
1, 84338, Control_c, 0, 64, 53
1, 84344, Note_off_c, 0, 68, 62
1, 84346, Note_on_c, 0, 53, 53
1, 84353, Control_c, 0, 64, 56
1, 84368, Control_c, 0, 64, 59
1, 84382, Control_c, 0, 64, 61
1, 84397, Control_c, 0, 64, 62
1, 84407, Note_off_c, 0, 53, 61
1, 84412, Control_c, 0, 64, 63
1, 84427, Control_c, 0, 64, 64
1, 84427, Control_c, 0, 67, 77
1, 84435, Note_on_c, 0, 61, 43
1, 84442, Control_c, 0, 64, 65
1, 84457, Control_c, 0, 64, 66
1, 84465, Note_on_c, 0, 68, 60
1, 84472, Control_c, 0, 64, 65
1, 84481, Note_off_c, 0, 61, 49
1, 84487, Control_c, 0, 64, 64
1, 84487, Control_c, 0, 67, 77
1, 84508, Note_on_c, 0, 53, 46
1, 84531, Control_c, 0, 64, 65
1, 84546, Note_off_c, 0, 53, 63
1, 84546, Control_c, 0, 64, 66
1, 84561, Control_c, 0, 64, 67
1, 84561, Control_c, 0, 67, 76
1, 84575, Note_on_c, 0, 61, 48
1, 84576, Control_c, 0, 64, 68
1, 84591, Control_c, 0, 64, 69
1, 84606, Note_on_c, 0, 73, 63
1, 84606, Note_off_c, 0, 68, 57
1, 84606, Control_c, 0, 64, 69
1, 84611, Note_off_c, 0, 61, 54
1, 84636, Control_c, 0, 67, 76
1, 84637, Note_on_c, 0, 53, 57
1, 84666, Control_c, 0, 64, 70
1, 84666, Control_c, 0, 67, 75
1, 84673, Note_off_c, 0, 53, 63
1, 84680, Control_c, 0, 64, 70
1, 84704, Note_on_c, 0, 61, 52
1, 84710, Control_c, 0, 64, 71
1, 84731, Note_off_c, 0, 61, 56
1, 84739, Control_c, 0, 67, 75
1, 84748, Note_on_c, 0, 53, 63
1, 84754, Control_c, 0, 67, 74
1, 84784, Control_c, 0, 67, 74
1, 84816, Note_on_c, 0, 61, 51
1, 84824, Note_off_c, 0, 73, 58
1, 84828, Control_c, 0, 67, 73
1, 84830, Note_on_c, 0, 68, 49
1, 84843, Control_c, 0, 67, 73
1, 84858, Control_c, 0, 64, 70
1, 84858, Control_c, 0, 67, 72
1, 84872, Note_off_c, 0, 53, 37
1, 84873, Control_c, 0, 64, 69
1, 84887, Control_c, 0, 64, 66
1, 84891, Note_off_c, 0, 68, 61
1, 84902, Control_c, 0, 64, 58
1, 84903, Note_on_c, 0, 54, 65
1, 84910, Note_on_c, 0, 69, 58
1, 84917, Control_c, 0, 64, 38
1, 84925, Note_off_c, 0, 61, 37
1, 84931, Control_c, 0, 64, 0
1, 84946, Control_c, 0, 67, 72
1, 84974, Note_off_c, 0, 69, 62
1, 84976, Note_on_c, 0, 73, 53
1, 84991, Note_off_c, 0, 54, 63
1, 84991, Control_c, 0, 67, 70
1, 85005, Control_c, 0, 67, 67
1, 85020, Control_c, 0, 67, 64
1, 85043, Control_c, 0, 67, 62
1, 85057, Control_c, 0, 67, 62
1, 85058, Note_off_c, 0, 73, 61
1, 85072, Control_c, 0, 67, 64
1, 85087, Control_c, 0, 67, 65
1, 85089, Note_on_c, 0, 69, 41
1, 85131, Control_c, 0, 67, 65
1, 85146, Control_c, 0, 67, 66
1, 85161, Control_c, 0, 67, 66
1, 85164, Note_on_c, 0, 73, 52
1, 85176, Control_c, 0, 67, 67
1, 85184, Note_off_c, 0, 69, 38
1, 85206, Control_c, 0, 67, 67
1, 85216, Note_off_c, 0, 73, 58
1, 85259, Note_on_c, 0, 61, 62
1, 85266, Control_c, 0, 67, 68
1, 85268, Note_on_c, 0, 66, 52
1, 85281, Control_c, 0, 64, 21
1, 85296, Control_c, 0, 64, 38
1, 85310, Control_c, 0, 64, 46
1, 85325, Control_c, 0, 64, 51
1, 85328, Note_off_c, 0, 66, 52
1, 85340, Control_c, 0, 64, 55
1, 85343, Note_on_c, 0, 73, 53
1, 85354, Control_c, 0, 64, 58
1, 85354, Control_c, 0, 67, 67
1, 85369, Control_c, 0, 64, 61
1, 85384, Control_c, 0, 64, 63
1, 85384, Control_c, 0, 67, 67
1, 85394, Note_off_c, 0, 73, 60
1, 85399, Control_c, 0, 64, 65
1, 85399, Control_c, 0, 67, 66
1, 85414, Control_c, 0, 64, 67
1, 85414, Control_c, 0, 67, 65
1, 85429, Control_c, 0, 64, 70
1, 85429, Control_c, 0, 67, 64
1, 85438, Note_on_c, 0, 69, 18
1, 85444, Control_c, 0, 64, 73
1, 85444, Control_c, 0, 67, 63
1, 85459, Control_c, 0, 64, 75
1, 85459, Control_c, 0, 67, 63
1, 85473, Control_c, 0, 64, 78
1, 85473, Control_c, 0, 67, 62
1, 85488, Control_c, 0, 64, 79
1, 85488, Control_c, 0, 67, 62
1, 85490, Note_off_c, 0, 69, 47
1, 85503, Control_c, 0, 64, 80
1, 85503, Control_c, 0, 67, 61
1, 85505, Note_on_c, 0, 73, 50
1, 85518, Control_c, 0, 64, 80
1, 85530, Note_off_c, 0, 73, 59
1, 85533, Control_c, 0, 64, 81
1, 85548, Control_c, 0, 64, 81
1, 85554, Note_on_c, 0, 66, 51
1, 85562, Control_c, 0, 64, 82
1, 85577, Control_c, 0, 67, 61
1, 85592, Control_c, 0, 64, 82
1, 85592, Control_c, 0, 67, 62
1, 85605, Note_off_c, 0, 66, 56
1, 85607, Control_c, 0, 67, 62
1, 85613, Note_on_c, 0, 73, 59
1, 85622, Control_c, 0, 64, 83
1, 85622, Control_c, 0, 67, 63
1, 85661, Note_off_c, 0, 73, 59
1, 85688, Note_on_c, 0, 69, 49
1, 85695, Control_c, 0, 67, 63
1, 85710, Control_c, 0, 64, 83
1, 85725, Control_c, 0, 64, 84
1, 85740, Control_c, 0, 64, 84
1, 85754, Control_c, 0, 64, 85
1, 85754, Control_c, 0, 67, 64
1, 85756, Note_off_c, 0, 69, 61
1, 85769, Control_c, 0, 64, 85
1, 85775, Note_on_c, 0, 73, 59
1, 85792, Control_c, 0, 64, 86
1, 85807, Control_c, 0, 64, 86
1, 85821, Note_off_c, 0, 73, 62
1, 85836, Control_c, 0, 64, 85
1, 85836, Control_c, 0, 67, 64
1, 85845, Note_on_c, 0, 57, 74
1, 85848, Note_on_c, 0, 66, 55
1, 85851, Control_c, 0, 64, 77
1, 85866, Control_c, 0, 64, 67
1, 85866, Control_c, 0, 67, 64
1, 85880, Control_c, 0, 64, 53
1, 85880, Control_c, 0, 67, 63
1, 85895, Control_c, 0, 64, 10
1, 85895, Control_c, 0, 67, 62
1, 85910, Control_c, 0, 64, 0
1, 85910, Control_c, 0, 67, 61
1, 85925, Control_c, 0, 64, 36
1, 85925, Control_c, 0, 67, 60
1, 85932, Note_on_c, 0, 73, 56
1, 85932, Note_off_c, 0, 66, 55
1, 85940, Control_c, 0, 64, 53
1, 85940, Control_c, 0, 67, 56
1, 85954, Control_c, 0, 64, 62
1, 85954, Control_c, 0, 67, 48
1, 85969, Control_c, 0, 64, 64
1, 85969, Control_c, 0, 67, 39
1, 85978, Note_off_c, 0, 61, 36
1, 85984, Control_c, 0, 64, 66
1, 85984, Control_c, 0, 67, 31
1, 85989, Note_off_c, 0, 73, 57
1, 85999, Control_c, 0, 64, 68
1, 85999, Control_c, 0, 67, 26
1, 86015, Control_c, 0, 64, 70
1, 86015, Control_c, 0, 67, 23
1, 86019, Note_on_c, 0, 69, 51
1, 86030, Control_c, 0, 64, 72
1, 86030, Control_c, 0, 67, 21
1, 86045, Control_c, 0, 64, 75
1, 86045, Control_c, 0, 67, 19
1, 86059, Control_c, 0, 64, 77
1, 86059, Control_c, 0, 67, 18
1, 86069, Note_on_c, 0, 54, 66
1, 86070, Note_off_c, 0, 57, 63
1, 86074, Control_c, 0, 64, 80
1, 86074, Control_c, 0, 67, 18
1, 86088, Note_off_c, 0, 69, 64
1, 86089, Control_c, 0, 64, 81
1, 86104, Control_c, 0, 64, 82
1, 86104, Control_c, 0, 67, 19
1, 86105, Note_off_c, 0, 54, 63
1, 86106, Note_on_c, 0, 73, 58
1, 86118, Control_c, 0, 67, 19
1, 86133, Control_c, 0, 67, 20
1, 86144, Note_off_c, 0, 73, 61
1, 86148, Control_c, 0, 67, 20
1, 86163, Control_c, 0, 67, 21
1, 86178, Control_c, 0, 67, 22
1, 86180, Note_on_c, 0, 68, 57
1, 86181, Note_on_c, 0, 54, 65
1, 86192, Control_c, 0, 64, 80
1, 86192, Control_c, 0, 67, 23
1, 86207, Control_c, 0, 64, 74
1, 86222, Control_c, 0, 64, 66
1, 86222, Control_c, 0, 67, 23
1, 86237, Control_c, 0, 64, 41
1, 86252, Control_c, 0, 64, 0
1, 86262, Note_on_c, 0, 73, 46
1, 86302, Note_off_c, 0, 68, 39
1, 86311, Control_c, 0, 64, 35
1, 86326, Control_c, 0, 64, 50
1, 86341, Control_c, 0, 64, 55
1, 86344, Note_off_c, 0, 73, 61
1, 86356, Control_c, 0, 64, 58
1, 86371, Control_c, 0, 64, 61
1, 86371, Control_c, 0, 67, 23
1, 86376, Note_on_c, 0, 71, 46
1, 86385, Control_c, 0, 64, 63
1, 86400, Control_c, 0, 64, 65
1, 86415, Control_c, 0, 64, 67
1, 86430, Control_c, 0, 64, 67
1, 86451, Note_off_c, 0, 71, 59
1, 86472, Note_on_c, 0, 73, 53
1, 86503, Control_c, 0, 64, 67
1, 86509, Note_off_c, 0, 73, 63
1, 86518, Control_c, 0, 64, 66
1, 86521, Note_off_c, 0, 54, 55
1, 86541, Control_c, 0, 64, 64
1, 86541, Note_on_c, 0, 53, 56
1, 86556, Note_on_c, 0, 68, 47
1, 86556, Control_c, 0, 64, 57
1, 86570, Control_c, 0, 64, 24
1, 86585, Control_c, 0, 64, 0
1, 86600, Control_c, 0, 67, 22
1, 86615, Note_on_c, 0, 73, 54
1, 86621, Note_off_c, 0, 68, 53
1, 86645, Control_c, 0, 67, 22
1, 86668, Note_off_c, 0, 73, 59
1, 86674, Control_c, 0, 67, 21
1, 86689, Control_c, 0, 67, 20
1, 86702, Note_on_c, 0, 71, 47
1, 86718, Control_c, 0, 64, 40
1, 86718, Control_c, 0, 67, 20
1, 86733, Control_c, 0, 64, 52
1, 86747, Control_c, 0, 64, 56
1, 86747, Control_c, 0, 67, 19
1, 86762, Control_c, 0, 64, 58
1, 86762, Control_c, 0, 67, 19
1, 86771, Note_off_c, 0, 71, 58
1, 86776, Control_c, 0, 64, 59
1, 86776, Control_c, 0, 67, 18
1, 86788, Note_on_c, 0, 73, 45
1, 86791, Control_c, 0, 64, 60
1, 86791, Control_c, 0, 67, 18
1, 86807, Control_c, 0, 64, 63
1, 86807, Control_c, 0, 67, 17
1, 86816, Note_off_c, 0, 73, 56
1, 86820, Note_off_c, 0, 53, 62
1, 86822, Control_c, 0, 64, 65
1, 86830, Note_on_c, 0, 68, 53
1, 86837, Control_c, 0, 64, 68
1, 86852, Control_c, 0, 64, 71
1, 86867, Control_c, 0, 64, 73
1, 86877, Note_off_c, 0, 68, 56
1, 86881, Control_c, 0, 64, 75
1, 86890, Note_on_c, 0, 73, 60
1, 86896, Control_c, 0, 64, 76
1, 86911, Control_c, 0, 64, 77
1, 86926, Control_c, 0, 64, 77
1, 86940, Note_off_c, 0, 73, 61
1, 86940, Control_c, 0, 64, 78
1, 86952, Note_on_c, 0, 53, 69
1, 86977, Note_on_c, 0, 71, 55
1, 87000, Control_c, 0, 64, 76
1, 87015, Control_c, 0, 64, 69
1, 87029, Control_c, 0, 64, 59
1, 87043, Note_off_c, 0, 71, 63
1, 87044, Control_c, 0, 64, 35
1, 87044, Control_c, 0, 67, 16
1, 87053, Note_on_c, 0, 73, 62
1, 87059, Control_c, 0, 64, 0
1, 87059, Control_c, 0, 67, 14
1, 87074, Control_c, 0, 64, 30
1, 87074, Control_c, 0, 67, 10
1, 87085, Note_off_c, 0, 73, 65
1, 87089, Control_c, 0, 64, 48
1, 87089, Control_c, 0, 67, 9
1, 87104, Control_c, 0, 64, 58
1, 87106, Note_on_c, 0, 61, 74
1, 87107, Note_on_c, 0, 68, 61
1, 87111, Note_off_c, 0, 53, 65
1, 87119, Control_c, 0, 64, 62
1, 87133, Control_c, 0, 64, 63
1, 87133, Control_c, 0, 67, 8
1, 87148, Control_c, 0, 64, 62
1, 87175, Note_on_c, 0, 73, 61
1, 87193, Control_c, 0, 64, 63
1, 87207, Note_off_c, 0, 68, 50
1, 87222, Control_c, 0, 67, 9
1, 87238, Note_off_c, 0, 73, 61
1, 87251, Control_c, 0, 67, 9
1, 87259, Note_on_c, 0, 71, 56
1, 87266, Control_c, 0, 64, 62
1, 87266, Control_c, 0, 67, 10
1, 87319, Control_c, 0, 64, 62
1, 87333, Control_c, 0, 64, 61
1, 87337, Note_off_c, 0, 71, 64
1, 87341, Note_on_c, 0, 53, 65
1, 87348, Control_c, 0, 64, 59
1, 87348, Control_c, 0, 67, 11
1, 87358, Note_on_c, 0, 73, 64
1, 87363, Control_c, 0, 64, 57
1, 87363, Control_c, 0, 67, 12
1, 87378, Control_c, 0, 64, 47
1, 87378, Control_c, 0, 67, 12
1, 87393, Note_off_c, 0, 61, 53
1, 87393, Control_c, 0, 64, 0
1, 87393, Note_off_c, 0, 73, 62
1, 87428, Note_on_c, 0, 56, 79
1, 87430, Note_on_c, 0, 66, 53
1, 87445, Note_off_c, 0, 53, 64
1, 87451, Control_c, 0, 67, 13
1, 87466, Control_c, 0, 67, 13
1, 87497, Control_c, 0, 67, 14
1, 87512, Note_on_c, 0, 73, 53
1, 87514, Note_off_c, 0, 66, 49
1, 87581, Note_off_c, 0, 73, 58
1, 87596, Note_on_c, 0, 69, 45
1, 87664, Note_off_c, 0, 69, 60
1, 87683, Note_on_c, 0, 73, 51
1, 87725, Note_off_c, 0, 73, 62
1, 87759, Note_on_c, 0, 54, 58
1, 87763, Note_on_c, 0, 66, 44
1, 87785, Note_off_c, 0, 56, 57
1, 87816, Note_off_c, 0, 66, 57
1, 87825, Note_on_c, 0, 73, 54
1, 87838, Control_c, 0, 67, 13
1, 87868, Control_c, 0, 67, 12
1, 87881, Note_off_c, 0, 73, 59
1, 87897, Control_c, 0, 67, 12
1, 87906, Note_on_c, 0, 69, 46
1, 87927, Control_c, 0, 64, 27
1, 87942, Control_c, 0, 64, 47
1, 87942, Control_c, 0, 67, 11
1, 87957, Control_c, 0, 64, 57
1, 87971, Control_c, 0, 64, 61
1, 87974, Note_off_c, 0, 69, 61
1, 87986, Control_c, 0, 64, 61
1, 87986, Control_c, 0, 67, 11
1, 87991, Note_on_c, 0, 73, 54
1, 88016, Control_c, 0, 64, 62
1, 88016, Control_c, 0, 67, 10
1, 88031, Note_off_c, 0, 73, 64
1, 88038, Control_c, 0, 64, 64
1, 88052, Note_on_c, 0, 66, 50
1, 88053, Control_c, 0, 64, 66
1, 88053, Control_c, 0, 67, 10
1, 88055, Note_off_c, 0, 54, 63
1, 88068, Control_c, 0, 64, 70
1, 88082, Control_c, 0, 64, 74
1, 88097, Control_c, 0, 64, 77
1, 88099, Note_off_c, 0, 66, 56
1, 88117, Note_on_c, 0, 73, 61
1, 88127, Control_c, 0, 64, 76
1, 88127, Control_c, 0, 67, 10
1, 88142, Control_c, 0, 64, 71
1, 88156, Control_c, 0, 64, 63
1, 88165, Note_off_c, 0, 73, 60
1, 88171, Control_c, 0, 64, 48
1, 88180, Note_on_c, 0, 54, 71
1, 88186, Control_c, 0, 64, 25
1, 88201, Control_c, 0, 64, 27
1, 88204, Note_on_c, 0, 69, 45
1, 88216, Control_c, 0, 64, 41
1, 88231, Control_c, 0, 64, 50
1, 88246, Control_c, 0, 64, 53
1, 88266, Note_off_c, 0, 69, 62
1, 88286, Note_on_c, 0, 73, 60
1, 88305, Control_c, 0, 64, 53
1, 88320, Control_c, 0, 64, 54
1, 88320, Control_c, 0, 67, 9
1, 88322, Note_off_c, 0, 73, 63
1, 88335, Control_c, 0, 67, 8
1, 88342, Note_off_c, 0, 54, 63
1, 88347, Note_on_c, 0, 61, 72
1, 88349, Control_c, 0, 67, 8
1, 88357, Note_on_c, 0, 66, 58
1, 88379, Control_c, 0, 64, 54
1, 88379, Control_c, 0, 67, 0
1, 88409, Note_off_c, 0, 66, 54
1, 88416, Note_on_c, 0, 73, 53
1, 88469, Control_c, 0, 64, 55
1, 88484, Control_c, 0, 64, 55
1, 88498, Control_c, 0, 64, 56
1, 88513, Control_c, 0, 64, 58
1, 88516, Note_off_c, 0, 61, 62
1, 88526, Note_off_c, 0, 73, 56
1, 88528, Control_c, 0, 64, 59
1, 88543, Control_c, 0, 64, 60
1, 88551, Note_on_c, 0, 54, 78
1, 88558, Control_c, 0, 64, 59
1, 88571, Note_on_c, 0, 69, 54
1, 88572, Control_c, 0, 64, 56
1, 88578, Note_off_c, 0, 54, 67
1, 88587, Control_c, 0, 64, 47
1, 88602, Control_c, 0, 64, 15
1, 88611, Note_on_c, 0, 74, 41
1, 88617, Control_c, 0, 64, 0
1, 88624, Note_off_c, 0, 69, 47
1, 88632, Control_c, 0, 64, 12
1, 88637, Note_on_c, 0, 54, 74
1, 88642, Note_off_c, 0, 74, 55
1, 88647, Control_c, 0, 64, 36
1, 88661, Control_c, 0, 64, 46
1, 88669, Note_on_c, 0, 66, 58
1, 88676, Control_c, 0, 64, 47
1, 88677, Note_off_c, 0, 54, 62
1, 88691, Control_c, 0, 64, 46
1, 88705, Control_c, 0, 64, 47
1, 88709, Note_off_c, 0, 66, 58
1, 88720, Control_c, 0, 64, 48
1, 88726, Note_on_c, 0, 74, 65
1, 88750, Control_c, 0, 64, 45
1, 88765, Control_c, 0, 64, 42
1, 88787, Control_c, 0, 64, 41
1, 88796, Note_on_c, 0, 54, 75
1, 88798, Note_off_c, 0, 74, 63
1, 88802, Control_c, 0, 64, 45
1, 88817, Control_c, 0, 64, 51
1, 88825, Note_on_c, 0, 69, 59
1, 88832, Control_c, 0, 64, 57
1, 88847, Control_c, 0, 64, 60
1, 88861, Control_c, 0, 64, 61
1, 88876, Control_c, 0, 64, 62
1, 88879, Note_on_c, 0, 74, 65
1, 88886, Note_off_c, 0, 69, 61
1, 88891, Control_c, 0, 64, 63
1, 88919, Note_off_c, 0, 54, 62
1, 88920, Control_c, 0, 64, 62
1, 88931, Note_off_c, 0, 74, 61
1, 88934, Note_on_c, 0, 62, 83
1, 88935, Control_c, 0, 64, 62
1, 88950, Note_on_c, 0, 66, 72
1, 88950, Control_c, 0, 64, 61
1, 88979, Control_c, 0, 64, 62
1, 88994, Control_c, 0, 64, 62
1, 89012, Note_on_c, 0, 74, 67
1, 89016, Note_off_c, 0, 66, 62
1, 89024, Control_c, 0, 64, 63
1, 89061, Note_off_c, 0, 74, 62
1, 89068, Control_c, 0, 64, 64
1, 89083, Control_c, 0, 64, 65
1, 89098, Control_c, 0, 64, 67
1, 89098, Note_on_c, 0, 69, 49
1, 89109, Note_off_c, 0, 62, 62
1, 89113, Control_c, 0, 64, 71
1, 89128, Control_c, 0, 64, 75
1, 89137, Note_off_c, 0, 69, 64
1, 89143, Control_c, 0, 64, 76
1, 89147, Note_on_c, 0, 74, 64
1, 89149, Note_on_c, 0, 54, 80
1, 89158, Control_c, 0, 64, 73
1, 89173, Control_c, 0, 64, 65
1, 89180, Note_off_c, 0, 54, 66
1, 89187, Control_c, 0, 64, 49
1, 89188, Note_off_c, 0, 74, 59
1, 89203, Control_c, 0, 64, 0
1, 89218, Note_on_c, 0, 69, 72
1, 89226, Note_on_c, 0, 54, 77
1, 89232, Control_c, 0, 64, 26
1, 89247, Control_c, 0, 64, 41
1, 89262, Control_c, 0, 64, 44
1, 89277, Control_c, 0, 64, 43
1, 89278, Note_off_c, 0, 54, 61
1, 89292, Control_c, 0, 64, 41
1, 89296, Note_on_c, 0, 74, 73
1, 89301, Note_off_c, 0, 69, 60
1, 89307, Control_c, 0, 64, 38
1, 89321, Control_c, 0, 64, 29
1, 89336, Control_c, 0, 64, 0
1, 89355, Note_off_c, 0, 74, 63
1, 89369, Note_on_c, 0, 72, 70
1, 89423, Note_on_c, 0, 62, 72
1, 89444, Note_off_c, 0, 72, 65
1, 89449, Note_on_c, 0, 74, 77
1, 89484, Control_c, 0, 64, 10
1, 89498, Note_off_c, 0, 74, 62
1, 89499, Control_c, 0, 64, 35
1, 89514, Control_c, 0, 64, 42
1, 89519, Note_on_c, 0, 69, 76
1, 89536, Control_c, 0, 64, 42
1, 89551, Control_c, 0, 64, 43
1, 89566, Control_c, 0, 64, 47
1, 89581, Control_c, 0, 64, 53
1, 89596, Control_c, 0, 64, 58
1, 89605, Note_on_c, 0, 74, 71
1, 89610, Control_c, 0, 64, 60
1, 89625, Control_c, 0, 64, 60
1, 89627, Note_off_c, 0, 69, 57
1, 89650, Note_off_c, 0, 74, 66
1, 89654, Control_c, 0, 64, 61
1, 89663, Note_on_c, 0, 72, 70
1, 89669, Control_c, 0, 64, 62
1, 89684, Control_c, 0, 64, 64
1, 89699, Control_c, 0, 64, 66
1, 89714, Control_c, 0, 64, 68
1, 89728, Control_c, 0, 64, 70
1, 89739, Note_off_c, 0, 72, 63
1, 89743, Control_c, 0, 64, 72
1, 89752, Note_on_c, 0, 74, 69
1, 89758, Control_c, 0, 64, 75
1, 89768, Note_on_c, 0, 54, 76
1, 89773, Control_c, 0, 64, 77
1, 89784, Note_off_c, 0, 74, 64
1, 89788, Control_c, 0, 64, 79
1, 89802, Control_c, 0, 64, 78
1, 89812, Note_off_c, 0, 62, 62
1, 89817, Control_c, 0, 64, 75
1, 89820, Note_on_c, 0, 67, 71
1, 89827, Note_off_c, 0, 54, 66
1, 89832, Control_c, 0, 64, 67
1, 89832, Control_c, 0, 67, 11
1, 89846, Note_on_c, 0, 55, 70
1, 89847, Control_c, 0, 64, 50
1, 89847, Control_c, 0, 67, 14
1, 89861, Control_c, 0, 64, 0
1, 89861, Control_c, 0, 67, 15
1, 89876, Control_c, 0, 67, 17
1, 89878, Note_off_c, 0, 55, 65
1, 89891, Note_on_c, 0, 74, 65
1, 89891, Control_c, 0, 67, 19
1, 89894, Note_off_c, 0, 67, 60
1, 89906, Control_c, 0, 67, 25
1, 89921, Control_c, 0, 67, 32
1, 89936, Control_c, 0, 67, 38
1, 89951, Note_off_c, 0, 74, 62
1, 89951, Control_c, 0, 67, 41
1, 89974, Note_on_c, 0, 71, 61
1, 90011, Control_c, 0, 67, 42
1, 90025, Note_off_c, 0, 71, 56
1, 90025, Control_c, 0, 67, 43
1, 90040, Control_c, 0, 67, 46
1, 90055, Control_c, 0, 67, 48
1, 90058, Note_on_c, 0, 74, 56
1, 90070, Control_c, 0, 67, 51
1, 90085, Control_c, 0, 67, 56
1, 90099, Note_off_c, 0, 74, 63
1, 90100, Control_c, 0, 67, 61
1, 90115, Control_c, 0, 67, 67
1, 90130, Control_c, 0, 67, 75
1, 90144, Control_c, 0, 67, 84
1, 90159, Control_c, 0, 67, 95
1, 90159, Note_on_c, 0, 67, 42
1, 90174, Control_c, 0, 67, 105
1, 90182, Note_on_c, 0, 50, 48
1, 90189, Control_c, 0, 67, 116
1, 90204, Control_c, 0, 64, 25
1, 90204, Control_c, 0, 67, 124
1, 90218, Note_off_c, 0, 67, 53
1, 90218, Control_c, 0, 64, 42
1, 90218, Control_c, 0, 67, 127
1, 90225, Note_on_c, 0, 74, 53
1, 90233, Control_c, 0, 64, 50
1, 90248, Control_c, 0, 64, 56
1, 90263, Control_c, 0, 64, 60
1, 90278, Note_off_c, 0, 74, 60
1, 90285, Control_c, 0, 64, 62
1, 90300, Control_c, 0, 64, 64
1, 90314, Control_c, 0, 64, 65
1, 90329, Control_c, 0, 64, 67
1, 90333, Note_on_c, 0, 71, 38
1, 90344, Control_c, 0, 64, 70
1, 90359, Control_c, 0, 64, 72
1, 90366, Note_off_c, 0, 71, 54
1, 90374, Control_c, 0, 64, 74
1, 90389, Control_c, 0, 64, 75
1, 90404, Control_c, 0, 64, 75
1, 90408, Note_on_c, 0, 74, 36
1, 90433, Control_c, 0, 64, 76
1, 90439, Note_off_c, 0, 74, 54
1, 90451, Note_on_c, 0, 67, 43
1, 90463, Control_c, 0, 64, 76
1, 90491, Control_c, 0, 64, 77
1, 90493, Note_off_c, 0, 67, 59
1, 90522, Note_on_c, 0, 74, 54
1, 90536, Control_c, 0, 64, 77
1, 90558, Note_off_c, 0, 74, 63
1, 90600, Note_on_c, 0, 71, 47
1, 90645, Note_off_c, 0, 71, 60
1, 90663, Note_on_c, 0, 74, 49
1, 90669, Control_c, 0, 64, 78
1, 90684, Control_c, 0, 64, 78
1, 90713, Note_off_c, 0, 74, 63
1, 90714, Control_c, 0, 64, 77
1, 90729, Control_c, 0, 64, 73
1, 90744, Control_c, 0, 64, 67
1, 90754, Note_on_c, 0, 67, 46
1, 90755, Note_on_c, 0, 47, 46
1, 90758, Control_c, 0, 64, 59
1, 90773, Control_c, 0, 64, 46
1, 90788, Control_c, 0, 64, 47
1, 90803, Control_c, 0, 64, 55
1, 90817, Note_off_c, 0, 67, 55
1, 90818, Control_c, 0, 64, 61
1, 90833, Control_c, 0, 64, 64
1, 90841, Note_on_c, 0, 74, 47
1, 90848, Control_c, 0, 64, 66
1, 90863, Control_c, 0, 64, 67
1, 90878, Control_c, 0, 64, 69
1, 90879, Note_off_c, 0, 50, 35
1, 90886, Note_off_c, 0, 74, 60
1, 90893, Control_c, 0, 64, 71
1, 90907, Control_c, 0, 64, 73
1, 90922, Control_c, 0, 64, 74
1, 90934, Note_on_c, 0, 71, 48
1, 90937, Control_c, 0, 64, 76
1, 90952, Control_c, 0, 64, 77
1, 90961, Note_off_c, 0, 47, 63
1, 90964, Note_on_c, 0, 43, 59
1, 90966, Control_c, 0, 64, 78
1, 90981, Control_c, 0, 64, 78
1, 90982, Note_off_c, 0, 71, 62
1, 90990, Note_off_c, 0, 43, 59
1, 90996, Control_c, 0, 64, 79
1, 91001, Note_on_c, 0, 74, 48
1, 91048, Note_off_c, 0, 74, 62
1, 91048, Control_c, 0, 64, 78
1, 91063, Control_c, 0, 64, 76
1, 91078, Control_c, 0, 64, 68
1, 91092, Note_on_c, 0, 43, 56
1, 91092, Control_c, 0, 64, 55
1, 91096, Note_on_c, 0, 69, 48
1, 91107, Control_c, 0, 64, 0
1, 91167, Control_c, 0, 64, 36
1, 91181, Control_c, 0, 64, 52
1, 91181, Control_c, 0, 67, 126
1, 91195, Note_on_c, 0, 74, 16
1, 91196, Control_c, 0, 64, 57
1, 91196, Control_c, 0, 67, 125
1, 91204, Note_off_c, 0, 69, 36
1, 91211, Control_c, 0, 64, 59
1, 91211, Control_c, 0, 67, 123
1, 91226, Control_c, 0, 64, 61
1, 91226, Control_c, 0, 67, 118
1, 91241, Control_c, 0, 64, 63
1, 91241, Control_c, 0, 67, 114
1, 91242, Note_off_c, 0, 74, 51
1, 91256, Control_c, 0, 64, 66
1, 91256, Control_c, 0, 67, 109
1, 91271, Control_c, 0, 64, 69
1, 91271, Control_c, 0, 67, 103
1, 91286, Control_c, 0, 64, 72
1, 91286, Control_c, 0, 67, 94
1, 91286, Note_on_c, 0, 72, 41
1, 91300, Control_c, 0, 64, 75
1, 91300, Control_c, 0, 67, 85
1, 91315, Control_c, 0, 64, 76
1, 91315, Control_c, 0, 67, 78
1, 91330, Control_c, 0, 67, 76
1, 91344, Note_off_c, 0, 72, 43
1, 91345, Control_c, 0, 67, 76
1, 91349, Note_on_c, 0, 74, 44
1, 91360, Control_c, 0, 67, 77
1, 91374, Control_c, 0, 67, 77
1, 91389, Control_c, 0, 64, 76
1, 91404, Control_c, 0, 67, 78
1, 91409, Note_off_c, 0, 74, 62
1, 91418, Control_c, 0, 67, 79
1, 91433, Control_c, 0, 64, 74
1, 91433, Control_c, 0, 67, 79
1, 91443, Note_on_c, 0, 69, 47
1, 91446, Note_off_c, 0, 43, 52
1, 91447, Note_on_c, 0, 42, 54
1, 91448, Control_c, 0, 64, 69
1, 91448, Control_c, 0, 67, 80
1, 91463, Control_c, 0, 64, 59
1, 91463, Control_c, 0, 67, 81
1, 91478, Control_c, 0, 64, 38
1, 91492, Control_c, 0, 64, 10
1, 91507, Control_c, 0, 64, 24
1, 91514, Note_off_c, 0, 69, 53
1, 91522, Control_c, 0, 64, 41
1, 91537, Control_c, 0, 64, 52
1, 91543, Note_on_c, 0, 74, 19
1, 91552, Control_c, 0, 64, 59
1, 91566, Control_c, 0, 64, 62
1, 91566, Control_c, 0, 67, 80
1, 91581, Note_off_c, 0, 74, 46
1, 91581, Control_c, 0, 64, 64
1, 91593, Note_on_c, 0, 72, 48
1, 91597, Control_c, 0, 64, 65
1, 91597, Control_c, 0, 67, 80
1, 91612, Control_c, 0, 64, 67
1, 91627, Control_c, 0, 64, 69
1, 91627, Control_c, 0, 67, 79
1, 91642, Control_c, 0, 64, 71
1, 91644, Note_off_c, 0, 72, 60
1, 91657, Control_c, 0, 64, 73
1, 91671, Note_off_c, 0, 42, 61
1, 91671, Control_c, 0, 64, 74
1, 91686, Control_c, 0, 64, 74
1, 91686, Control_c, 0, 67, 79
1, 91716, Note_on_c, 0, 69, 50
1, 91716, Control_c, 0, 64, 75
1, 91730, Control_c, 0, 64, 75
1, 91745, Control_c, 0, 64, 76
1, 91745, Control_c, 0, 67, 78
1, 91760, Control_c, 0, 64, 77
1, 91760, Control_c, 0, 67, 78
1, 91783, Control_c, 0, 64, 77
1, 91783, Control_c, 0, 67, 77
1, 91788, Poly_aftertouch_c, 0, 74, 127
1, 91797, Note_on_c, 0, 74, 18
1, 91798, Control_c, 0, 64, 78
1, 91802, Note_off_c, 0, 69, 51
1, 91812, Control_c, 0, 64, 78
1, 91827, Control_c, 0, 64, 79
1, 91842, Control_c, 0, 64, 81
1, 91848, Note_off_c, 0, 74, 56
1, 91857, Control_c, 0, 64, 82
1, 91870, Note_on_c, 0, 72, 46
1, 91872, Control_c, 0, 64, 83
1, 91872, Control_c, 0, 67, 77
1, 91894, Note_on_c, 0, 42, 72
1, 91901, Control_c, 0, 67, 77
1, 91916, Control_c, 0, 64, 81
1, 91930, Control_c, 0, 64, 73
1, 91930, Control_c, 0, 67, 78
1, 91944, Note_off_c, 0, 72, 62
1, 91945, Control_c, 0, 64, 61
1, 91947, Note_on_c, 0, 74, 57
1, 91960, Control_c, 0, 64, 40
1, 91975, Control_c, 0, 64, 27
1, 91975, Control_c, 0, 67, 77
1, 91990, Control_c, 0, 64, 42
1, 91992, Note_off_c, 0, 74, 63
1, 92005, Control_c, 0, 64, 55
1, 92020, Control_c, 0, 64, 62
1, 92021, Note_on_c, 0, 69, 56
1, 92024, Note_off_c, 0, 42, 61
1, 92034, Note_on_c, 0, 50, 77
1, 92034, Control_c, 0, 64, 65
1, 92049, Control_c, 0, 64, 66
1, 92064, Control_c, 0, 64, 66
1, 92079, Control_c, 0, 64, 67
1, 92079, Control_c, 0, 67, 78
1, 92094, Control_c, 0, 64, 68
1, 92094, Control_c, 0, 67, 78
1, 92101, Note_on_c, 0, 74, 57
1, 92108, Note_off_c, 0, 69, 54
1, 92109, Control_c, 0, 64, 70
1, 92123, Control_c, 0, 64, 71
1, 92123, Control_c, 0, 67, 79
1, 92133, Note_off_c, 0, 74, 65
1, 92162, Note_on_c, 0, 72, 53
1, 92233, Note_off_c, 0, 72, 62
1, 92236, Note_on_c, 0, 74, 56
1, 92254, Note_on_c, 0, 42, 68
1, 92271, Control_c, 0, 67, 79
1, 92283, Note_off_c, 0, 74, 64
1, 92286, Control_c, 0, 64, 69
1, 92286, Control_c, 0, 67, 80
1, 92301, Control_c, 0, 64, 66
1, 92315, Control_c, 0, 64, 48
1, 92324, Note_off_c, 0, 42, 61
1, 92325, Note_on_c, 0, 67, 63
1, 92330, Control_c, 0, 64, 0
1, 92332, Note_on_c, 0, 45, 70
1, 92338, Note_off_c, 0, 50, 34
1, 92345, Control_c, 0, 67, 79
1, 92405, Note_off_c, 0, 67, 56
1, 92410, Note_on_c, 0, 74, 55
1, 92449, Note_off_c, 0, 74, 63
1, 92464, Control_c, 0, 67, 79
1, 92481, Note_on_c, 0, 71, 52
1, 92494, Control_c, 0, 64, 26
1, 92509, Control_c, 0, 64, 40
1, 92532, Control_c, 0, 64, 49
1, 92536, Note_off_c, 0, 71, 60
1, 92547, Control_c, 0, 64, 54
1, 92547, Control_c, 0, 67, 78
1, 92561, Control_c, 0, 64, 57
1, 92575, Note_on_c, 0, 74, 53
1, 92576, Control_c, 0, 64, 60
1, 92591, Control_c, 0, 64, 62
1, 92606, Control_c, 0, 64, 64
1, 92608, Note_off_c, 0, 74, 64
1, 92621, Control_c, 0, 64, 66
1, 92635, Control_c, 0, 64, 70
1, 92635, Control_c, 0, 67, 79
1, 92640, Note_on_c, 0, 67, 49
1, 92650, Control_c, 0, 64, 73
1, 92658, Note_on_c, 0, 43, 60
1, 92660, Note_off_c, 0, 45, 57
1, 92679, Control_c, 0, 64, 69
1, 92693, Note_on_c, 0, 74, 56
1, 92694, Note_off_c, 0, 67, 57
1, 92694, Control_c, 0, 64, 62
1, 92709, Control_c, 0, 64, 50
1, 92724, Control_c, 0, 64, 38
1, 92724, Control_c, 0, 67, 78
1, 92739, Control_c, 0, 64, 43
1, 92741, Note_off_c, 0, 74, 59
1, 92753, Control_c, 0, 64, 54
1, 92768, Control_c, 0, 64, 61
1, 92780, Note_on_c, 0, 71, 52
1, 92783, Control_c, 0, 64, 64
1, 92798, Control_c, 0, 64, 65
1, 92813, Control_c, 0, 64, 65
1, 92827, Control_c, 0, 64, 67
1, 92827, Control_c, 0, 67, 77
1, 92829, Note_off_c, 0, 71, 60
1, 92842, Control_c, 0, 64, 69
1, 92857, Control_c, 0, 64, 71
1, 92857, Control_c, 0, 67, 77
1, 92863, Note_on_c, 0, 74, 48
1, 92872, Control_c, 0, 64, 74
1, 92886, Note_off_c, 0, 74, 61
1, 92887, Control_c, 0, 64, 77
1, 92895, Note_on_c, 0, 67, 56
1, 92902, Control_c, 0, 64, 78
1, 92902, Control_c, 0, 67, 77
1, 92917, Control_c, 0, 64, 79
1, 92919, Note_off_c, 0, 43, 52
1, 92932, Control_c, 0, 64, 80
1, 92932, Control_c, 0, 67, 78
1, 92957, Note_off_c, 0, 67, 55
1, 92968, Note_on_c, 0, 74, 54
1, 92976, Control_c, 0, 64, 80
1, 92991, Control_c, 0, 64, 79
1, 92991, Control_c, 0, 67, 77
1, 93006, Control_c, 0, 64, 78
1, 93020, Control_c, 0, 67, 77
1, 93027, Note_off_c, 0, 74, 59
1, 93035, Control_c, 0, 67, 76
1, 93039, Note_on_c, 0, 43, 69
1, 93042, Note_on_c, 0, 71, 62
1, 93050, Control_c, 0, 67, 75
1, 93064, Control_c, 0, 64, 78
1, 93064, Control_c, 0, 67, 74
1, 93079, Control_c, 0, 67, 70
1, 93094, Control_c, 0, 64, 79
1, 93094, Control_c, 0, 67, 60
1, 93105, Note_off_c, 0, 71, 64
1, 93109, Control_c, 0, 64, 79
1, 93109, Control_c, 0, 67, 49
1, 93116, Note_on_c, 0, 74, 59
1, 93124, Control_c, 0, 64, 80
1, 93124, Control_c, 0, 67, 37
1, 93138, Control_c, 0, 64, 81
1, 93138, Control_c, 0, 67, 33
1, 93153, Control_c, 0, 67, 32
1, 93160, Note_off_c, 0, 74, 62
1, 93161, Note_off_c, 0, 43, 62
1, 93168, Control_c, 0, 64, 80
1, 93176, Note_on_c, 0, 66, 72
1, 93176, Note_on_c, 0, 50, 78
1, 93183, Control_c, 0, 64, 73
1, 93183, Control_c, 0, 67, 33
1, 93199, Control_c, 0, 64, 64
1, 93199, Control_c, 0, 67, 33
1, 93214, Control_c, 0, 64, 45
1, 93229, Control_c, 0, 64, 0
1, 93243, Control_c, 0, 67, 34
1, 93257, Note_off_c, 0, 66, 56
1, 93258, Control_c, 0, 64, 27
1, 93258, Control_c, 0, 67, 34
1, 93262, Note_on_c, 0, 74, 61
1, 93280, Control_c, 0, 64, 43
1, 93280, Control_c, 0, 67, 35
1, 93295, Control_c, 0, 64, 48
1, 93295, Control_c, 0, 67, 35
1, 93310, Control_c, 0, 64, 47
1, 93310, Control_c, 0, 67, 36
1, 93325, Control_c, 0, 64, 47
1, 93337, Note_off_c, 0, 74, 62
1, 93340, Control_c, 0, 64, 48
1, 93355, Control_c, 0, 64, 52
1, 93359, Note_on_c, 0, 71, 56
1, 93369, Control_c, 0, 64, 58
1, 93384, Control_c, 0, 64, 61
1, 93389, Note_off_c, 0, 50, 61
1, 93399, Note_on_c, 0, 42, 74
1, 93414, Control_c, 0, 64, 56
1, 93414, Control_c, 0, 67, 37
1, 93424, Note_off_c, 0, 71, 64
1, 93429, Control_c, 0, 64, 34
1, 93429, Control_c, 0, 67, 38
1, 93429, Note_on_c, 0, 74, 57
1, 93435, Note_off_c, 0, 42, 64
1, 93443, Control_c, 0, 64, 0
1, 93462, Poly_aftertouch_c, 0, 42, 0
1, 93468, Note_on_c, 0, 42, 71
1, 93478, Note_off_c, 0, 74, 63
1, 93493, Note_on_c, 0, 68, 65
1, 93532, Control_c, 0, 67, 38
1, 93571, Note_on_c, 0, 74, 62
1, 93574, Note_off_c, 0, 68, 60
1, 93624, Note_off_c, 0, 74, 62
1, 93635, Control_c, 0, 67, 39
1, 93650, Control_c, 0, 67, 39
1, 93654, Note_on_c, 0, 71, 52
1, 93665, Control_c, 0, 64, 35
1, 93680, Control_c, 0, 64, 42
1, 93695, Control_c, 0, 64, 46
1, 93695, Control_c, 0, 67, 40
1, 93710, Control_c, 0, 64, 49
1, 93715, Note_off_c, 0, 71, 57
1, 93725, Control_c, 0, 64, 52
1, 93725, Control_c, 0, 67, 40
1, 93725, Note_on_c, 0, 74, 47
1, 93739, Control_c, 0, 64, 49
1, 93739, Control_c, 0, 67, 41
1, 93754, Control_c, 0, 64, 35
1, 93754, Control_c, 0, 67, 43
1, 93769, Control_c, 0, 64, 0
1, 93769, Control_c, 0, 67, 44
1, 93780, Note_off_c, 0, 74, 57
1, 93789, Note_on_c, 0, 68, 56
1, 93790, Note_on_c, 0, 41, 54
1, 93794, Note_off_c, 0, 42, 57
1, 93828, Control_c, 0, 67, 43
1, 93844, Note_off_c, 0, 68, 55
1, 93855, Note_on_c, 0, 73, 53
1, 93858, Control_c, 0, 67, 43
1, 93899, Note_off_c, 0, 73, 62
1, 93917, Control_c, 0, 64, 26
1, 93917, Control_c, 0, 67, 42
1, 93924, Note_on_c, 0, 71, 57
1, 93932, Control_c, 0, 64, 36
1, 93947, Control_c, 0, 64, 37
1, 93976, Control_c, 0, 64, 37
1, 94002, Note_off_c, 0, 71, 60
1, 94006, Note_on_c, 0, 73, 64
1, 94007, Control_c, 0, 67, 42
1, 94029, Control_c, 0, 64, 36
1, 94044, Control_c, 0, 64, 34
1, 94049, Note_off_c, 0, 73, 62
1, 94059, Control_c, 0, 64, 29
1, 94073, Control_c, 0, 64, 0
1, 94078, Note_on_c, 0, 68, 60
1, 94091, Note_off_c, 0, 41, 51
1, 94148, Note_on_c, 0, 73, 68
1, 94148, Note_off_c, 0, 68, 57
1, 94163, Control_c, 0, 67, 41
1, 94178, Control_c, 0, 67, 40
1, 94192, Control_c, 0, 67, 40
1, 94202, Note_off_c, 0, 73, 62
1, 94207, Control_c, 0, 67, 39
1, 94222, Control_c, 0, 67, 39
1, 94223, Note_on_c, 0, 71, 60
1, 94227, Note_on_c, 0, 41, 57
1, 94237, Control_c, 0, 64, 27
1, 94252, Control_c, 0, 64, 43
1, 94267, Control_c, 0, 64, 47
1, 94282, Control_c, 0, 64, 45
1, 94297, Control_c, 0, 64, 40
1, 94300, Note_off_c, 0, 71, 63
1, 94312, Control_c, 0, 64, 34
1, 94312, Control_c, 0, 67, 38
1, 94316, Note_on_c, 0, 73, 61
1, 94326, Control_c, 0, 64, 32
1, 94326, Control_c, 0, 67, 32
1, 94341, Control_c, 0, 64, 31
1, 94341, Control_c, 0, 67, 22
1, 94348, Note_off_c, 0, 73, 64
1, 94356, Control_c, 0, 67, 10
1, 94357, Note_off_c, 0, 41, 59
1, 94360, Note_on_c, 0, 68, 66
1, 94361, Note_on_c, 0, 49, 74
1, 94371, Control_c, 0, 64, 31
1, 94371, Control_c, 0, 67, 0
1, 94400, Control_c, 0, 64, 32
1, 94415, Control_c, 0, 64, 35
1, 94427, Note_on_c, 0, 73, 64
1, 94429, Note_off_c, 0, 68, 54
1, 94430, Control_c, 0, 64, 36
1, 94474, Control_c, 0, 64, 36
1, 94482, Note_off_c, 0, 73, 62
1, 94489, Control_c, 0, 64, 38
1, 94504, Control_c, 0, 64, 40
1, 94512, Note_on_c, 0, 71, 48
1, 94518, Control_c, 0, 64, 40
1, 94533, Control_c, 0, 64, 41
1, 94533, Control_c, 0, 67, 8
1, 94548, Control_c, 0, 67, 8
1, 94549, Note_on_c, 0, 41, 53
1, 94563, Control_c, 0, 64, 40
1, 94568, Note_off_c, 0, 71, 64
1, 94578, Control_c, 0, 64, 38
1, 94583, Note_on_c, 0, 73, 65
1, 94592, Control_c, 0, 64, 32
1, 94592, Control_c, 0, 67, 0
1, 94607, Control_c, 0, 64, 28
1, 94612, Note_off_c, 0, 73, 65
1, 94616, Note_off_c, 0, 49, 56
1, 94622, Control_c, 0, 64, 26
1, 94623, Note_on_c, 0, 42, 76
1, 94633, Note_off_c, 0, 41, 61
1, 94635, Note_on_c, 0, 66, 70
1, 94675, Note_off_c, 0, 42, 52
1, 94696, Control_c, 0, 64, 25
1, 94704, Note_on_c, 0, 73, 54
1, 94704, Note_off_c, 0, 66, 60
1, 94711, Control_c, 0, 64, 23
1, 94726, Control_c, 0, 64, 19
1, 94741, Control_c, 0, 64, 14
1, 94756, Control_c, 0, 64, 0
1, 94777, Note_off_c, 0, 73, 61
1, 94784, Note_on_c, 0, 42, 67
1, 94792, Note_on_c, 0, 69, 59
1, 94823, Control_c, 0, 67, 8
1, 94838, Control_c, 0, 67, 8
1, 94862, Note_off_c, 0, 69, 61
1, 94874, Note_on_c, 0, 73, 58
1, 94911, Note_off_c, 0, 73, 63
1, 94927, Control_c, 0, 67, 0
1, 94932, Note_off_c, 0, 42, 61
1, 94935, Note_on_c, 0, 45, 71
1, 94941, Note_on_c, 0, 66, 61
1, 94992, Note_off_c, 0, 66, 57
1, 94993, Note_on_c, 0, 73, 66
1, 95030, Control_c, 0, 64, 18
1, 95039, Note_off_c, 0, 73, 62
1, 95045, Control_c, 0, 64, 24
1, 95060, Control_c, 0, 64, 27
1, 95067, Note_on_c, 0, 69, 57
1, 95074, Note_on_c, 0, 42, 68
1, 95074, Control_c, 0, 64, 36
1, 95089, Control_c, 0, 64, 45
1, 95104, Control_c, 0, 64, 53
1, 95119, Control_c, 0, 64, 58
1, 95126, Note_off_c, 0, 69, 61
1, 95128, Note_on_c, 0, 73, 67
1, 95134, Control_c, 0, 64, 60
1, 95139, Note_off_c, 0, 45, 60
1, 95148, Control_c, 0, 64, 58
1, 95163, Control_c, 0, 64, 46
1, 95178, Control_c, 0, 64, 0
1, 95181, Note_off_c, 0, 42, 61
1, 95194, Note_off_c, 0, 73, 61
1, 95200, Note_on_c, 0, 38, 88
1, 95201, Note_on_c, 0, 66, 76
1, 95237, Control_c, 0, 64, 38
1, 95239, Note_off_c, 0, 38, 62
1, 95252, Control_c, 0, 64, 53
1, 95258, Note_off_c, 0, 66, 63
1, 95266, Control_c, 0, 64, 55
1, 95281, Control_c, 0, 64, 53
1, 95283, Note_on_c, 0, 78, 78
1, 95296, Control_c, 0, 64, 54
1, 95311, Control_c, 0, 64, 55
1, 95340, Control_c, 0, 64, 51
1, 95343, Note_on_c, 0, 38, 78
1, 95352, Note_off_c, 0, 78, 62
1, 95355, Control_c, 0, 64, 33
1, 95356, Note_on_c, 0, 69, 68
1, 95370, Control_c, 0, 64, 0
1, 95417, Note_off_c, 0, 69, 61
1, 95418, Note_on_c, 0, 78, 72
1, 95482, Note_on_c, 0, 66, 78
1, 95483, Note_on_c, 0, 42, 83
1, 95486, Note_off_c, 0, 78, 62
1, 95522, Note_off_c, 0, 38, 59
1, 95550, Note_off_c, 0, 66, 64
1, 95568, Note_on_c, 0, 78, 74
1, 95611, Note_on_c, 0, 38, 77
1, 95624, Note_on_c, 0, 69, 76
1, 95626, Note_off_c, 0, 78, 60
1, 95632, Note_off_c, 0, 42, 61
1, 95687, Note_off_c, 0, 69, 62
1, 95700, Note_on_c, 0, 78, 75
1, 95769, Note_off_c, 0, 78, 63
1, 95783, Note_on_c, 0, 36, 85
1, 95799, Note_on_c, 0, 66, 80
1, 95800, Note_off_c, 0, 38, 59
1, 95852, Note_off_c, 0, 66, 63
1, 95874, Note_on_c, 0, 78, 77
1, 95934, Note_off_c, 0, 78, 63
1, 95942, Control_c, 0, 64, 27
1, 95952, Note_on_c, 0, 68, 63
1, 95955, Note_on_c, 0, 75, 59
1, 95957, Control_c, 0, 64, 39
1, 95971, Control_c, 0, 64, 42
1, 95986, Control_c, 0, 64, 43
1, 95987, Note_off_c, 0, 68, 65
1, 96001, Control_c, 0, 64, 46
1, 96016, Control_c, 0, 64, 53
1, 96031, Control_c, 0, 64, 59
1, 96032, Note_on_c, 0, 78, 56
1, 96032, Note_off_c, 0, 75, 53
1, 96045, Control_c, 0, 64, 61
1, 96053, Note_off_c, 0, 78, 63
1, 96060, Control_c, 0, 64, 62
1, 96075, Control_c, 0, 64, 63
1, 96079, Note_on_c, 0, 66, 69
1, 96104, Control_c, 0, 64, 63
1, 96115, Note_off_c, 0, 66, 62
1, 96119, Control_c, 0, 64, 64
1, 96134, Control_c, 0, 64, 65
1, 96142, Note_on_c, 0, 78, 69
1, 96149, Control_c, 0, 64, 66
1, 96163, Control_c, 0, 64, 67
1, 96178, Control_c, 0, 64, 67
1, 96188, Note_off_c, 0, 78, 60
1, 96220, Note_on_c, 0, 68, 64
1, 96237, Note_on_c, 0, 75, 48
1, 96237, Control_c, 0, 64, 68
1, 96252, Control_c, 0, 64, 69
1, 96255, Note_off_c, 0, 68, 65
1, 96275, Control_c, 0, 64, 69
1, 96285, Note_off_c, 0, 75, 60
1, 96295, Note_on_c, 0, 78, 72
1, 96304, Control_c, 0, 64, 70
1, 96309, Note_off_c, 0, 36, 60
1, 96333, Note_off_c, 0, 78, 63
1, 96349, Control_c, 0, 64, 70
1, 96361, Note_on_c, 0, 66, 73
1, 96364, Control_c, 0, 64, 71
1, 96378, Control_c, 0, 64, 71
1, 96394, Control_c, 0, 64, 72
1, 96397, Note_off_c, 0, 66, 64
1, 96409, Control_c, 0, 64, 74
1, 96424, Control_c, 0, 64, 74
1, 96434, Note_on_c, 0, 78, 73
1, 96439, Control_c, 0, 64, 74
1, 96453, Control_c, 0, 64, 73
1, 96459, Note_off_c, 0, 78, 64
1, 96468, Control_c, 0, 64, 70
1, 96482, Control_c, 0, 64, 67
1, 96492, Note_on_c, 0, 36, 77
1, 96497, Control_c, 0, 64, 64
1, 96500, Note_on_c, 0, 68, 70
1, 96515, Note_on_c, 0, 75, 54
1, 96527, Control_c, 0, 64, 65
1, 96536, Note_off_c, 0, 68, 66
1, 96542, Control_c, 0, 64, 67
1, 96556, Note_off_c, 0, 75, 60
1, 96556, Control_c, 0, 64, 68
1, 96559, Note_on_c, 0, 78, 76
1, 96571, Control_c, 0, 64, 69
1, 96601, Control_c, 0, 64, 68
1, 96615, Note_off_c, 0, 78, 63
1, 96616, Control_c, 0, 64, 66
1, 96631, Note_on_c, 0, 66, 76
1, 96631, Control_c, 0, 64, 62
1, 96635, Note_on_c, 0, 39, 84
1, 96643, Note_off_c, 0, 36, 60
1, 96645, Control_c, 0, 64, 56
1, 96660, Control_c, 0, 64, 54
1, 96669, Note_off_c, 0, 66, 62
1, 96675, Control_c, 0, 64, 57
1, 96690, Control_c, 0, 64, 61
1, 96697, Note_on_c, 0, 78, 81
1, 96705, Control_c, 0, 64, 64
1, 96719, Control_c, 0, 64, 65
1, 96734, Control_c, 0, 64, 65
1, 96737, Note_off_c, 0, 78, 59
1, 96749, Control_c, 0, 64, 66
1, 96764, Control_c, 0, 64, 67
1, 96770, Note_on_c, 0, 75, 65
1, 96775, Note_on_c, 0, 36, 73
1, 96779, Control_c, 0, 64, 69
1, 96783, Note_on_c, 0, 66, 54
1, 96793, Control_c, 0, 64, 73
1, 96808, Note_off_c, 0, 66, 58
1, 96808, Control_c, 0, 64, 78
1, 96815, Note_off_c, 0, 39, 60
1, 96823, Control_c, 0, 64, 82
1, 96828, Note_off_c, 0, 75, 61
1, 96829, Note_on_c, 0, 78, 74
1, 96837, Control_c, 0, 64, 84
1, 96851, Note_off_c, 0, 78, 71
1, 96858, Note_off_c, 0, 36, 59
1, 96867, Control_c, 0, 64, 80
1, 96882, Control_c, 0, 64, 70
1, 96897, Control_c, 0, 64, 55
1, 96899, Note_on_c, 0, 37, 86
1, 96901, Note_on_c, 0, 64, 83
1, 96911, Control_c, 0, 64, 0
1, 96949, Note_off_c, 0, 64, 63
1, 96952, Note_off_c, 0, 37, 62
1, 96968, Note_on_c, 0, 76, 80
1, 97007, Note_off_c, 0, 76, 56
1, 97054, Note_on_c, 0, 73, 61
1, 97061, Note_on_c, 0, 37, 71
1, 97109, Note_on_c, 0, 76, 74
1, 97112, Note_off_c, 0, 73, 58
1, 97144, Note_off_c, 0, 76, 58
1, 97182, Note_off_c, 0, 37, 57
1, 97187, Note_on_c, 0, 64, 71
1, 97200, Note_on_c, 0, 40, 80
1, 97254, Note_on_c, 0, 76, 77
1, 97254, Note_off_c, 0, 64, 57
1, 97306, Note_off_c, 0, 76, 63
1, 97323, Note_on_c, 0, 73, 65
1, 97340, Note_on_c, 0, 37, 75
1, 97379, Control_c, 0, 64, 16
1, 97382, Note_off_c, 0, 40, 59
1, 97394, Control_c, 0, 64, 13
1, 97404, Note_on_c, 0, 76, 78
1, 97409, Control_c, 0, 64, 0
1, 97415, Note_off_c, 0, 73, 50
1, 97432, Note_off_c, 0, 37, 63
1, 97451, Note_off_c, 0, 76, 64
1, 97463, Note_on_c, 0, 33, 88
1, 97472, Note_on_c, 0, 64, 87
1, 97498, Control_c, 0, 64, 12
1, 97513, Control_c, 0, 64, 21
1, 97515, Note_off_c, 0, 33, 60
1, 97528, Control_c, 0, 64, 19
1, 97529, Note_off_c, 0, 64, 62
1, 97557, Note_on_c, 0, 76, 82
1, 97557, Control_c, 0, 64, 22
1, 97572, Control_c, 0, 64, 28
1, 97587, Control_c, 0, 64, 27
1, 97600, Note_off_c, 0, 76, 57
1, 97602, Control_c, 0, 64, 21
1, 97609, Note_on_c, 0, 33, 77
1, 97616, Control_c, 0, 64, 18
1, 97624, Note_on_c, 0, 73, 65
1, 97631, Control_c, 0, 64, 17
1, 97646, Control_c, 0, 64, 18
1, 97660, Control_c, 0, 64, 17
1, 97675, Control_c, 0, 64, 13
1, 97682, Note_off_c, 0, 73, 60
1, 97685, Note_on_c, 0, 76, 76
1, 97690, Control_c, 0, 64, 0
1, 97728, Note_off_c, 0, 76, 58
1, 97743, Note_on_c, 0, 37, 79
1, 97754, Note_on_c, 0, 64, 69
1, 97778, Note_off_c, 0, 33, 57
1, 97796, Note_off_c, 0, 64, 59
1, 97823, Note_on_c, 0, 76, 81
1, 97880, Note_off_c, 0, 76, 60
1, 97890, Note_on_c, 0, 33, 76
1, 97897, Note_on_c, 0, 73, 69
1, 97905, Control_c, 0, 64, 19
1, 97920, Control_c, 0, 64, 33
1, 97930, Note_off_c, 0, 37, 62
1, 97944, Note_off_c, 0, 73, 63
1, 97949, Control_c, 0, 64, 13
1, 97954, Note_on_c, 0, 76, 70
1, 97964, Control_c, 0, 64, 0
1, 97993, Note_off_c, 0, 76, 63
1, 98015, Note_on_c, 0, 63, 90
1, 98020, Note_on_c, 0, 30, 86
1, 98037, Note_off_c, 0, 33, 61
1, 98076, Note_off_c, 0, 30, 62
1, 98098, Note_on_c, 0, 75, 77
1, 98106, Note_off_c, 0, 63, 60
1, 98151, Note_off_c, 0, 75, 61
1, 98163, Note_on_c, 0, 30, 78
1, 98167, Note_on_c, 0, 73, 58
1, 98235, Note_on_c, 0, 75, 77
1, 98246, Note_off_c, 0, 73, 54
1, 98281, Note_off_c, 0, 75, 63
1, 98293, Note_on_c, 0, 33, 79
1, 98297, Note_off_c, 0, 30, 55
1, 98298, Note_on_c, 0, 63, 79
1, 98368, Note_on_c, 0, 75, 79
1, 98372, Note_off_c, 0, 63, 61
1, 98412, Note_on_c, 0, 30, 73
1, 98415, Note_off_c, 0, 75, 63
1, 98432, Note_on_c, 0, 73, 73
1, 98442, Note_off_c, 0, 33, 60
1, 98510, Note_on_c, 0, 75, 80
1, 98511, Note_off_c, 0, 30, 62
1, 98515, Note_off_c, 0, 73, 61
1, 98555, Note_off_c, 0, 75, 63
1, 98565, Note_on_c, 0, 31, 97
1, 98572, Note_on_c, 0, 63, 88
1, 98630, Note_off_c, 0, 31, 61
1, 98644, Note_off_c, 0, 63, 60
1, 98648, Note_on_c, 0, 75, 80
1, 98690, Note_off_c, 0, 75, 63
1, 98718, Note_on_c, 0, 73, 64
1, 98724, Note_on_c, 0, 31, 87
1, 98771, Note_on_c, 0, 75, 79
1, 98772, Note_off_c, 0, 73, 64
1, 98821, Note_off_c, 0, 75, 61
1, 98835, Note_on_c, 0, 63, 80
1, 98848, Note_on_c, 0, 34, 85
1, 98855, Note_off_c, 0, 31, 63
1, 98907, Note_on_c, 0, 75, 83
1, 98911, Note_off_c, 0, 63, 59
1, 98962, Note_off_c, 0, 75, 61
1, 98965, Note_on_c, 0, 73, 78
1, 98971, Note_on_c, 0, 31, 85
1, 98977, Note_off_c, 0, 34, 63
1, 99043, Note_on_c, 0, 75, 77
1, 99048, Note_off_c, 0, 73, 62
1, 99070, Note_off_c, 0, 31, 60
1, 99096, Note_off_c, 0, 75, 61
1, 99139, Note_on_c, 0, 75, 82
1, 99141, Note_on_c, 0, 63, 104
1, 99144, Control_c, 0, 64, 21
1, 99149, Note_on_c, 0, 72, 83
1, 99154, Note_on_c, 0, 32, 86
1, 99159, Control_c, 0, 64, 64
1, 99174, Control_c, 0, 64, 67
1, 99188, Control_c, 0, 64, 68
1, 99203, Control_c, 0, 64, 68
1, 99206, Note_off_c, 0, 63, 65
1, 99207, Note_off_c, 0, 75, 63
1, 99215, Note_off_c, 0, 72, 64
1, 99218, Control_c, 0, 64, 70
1, 99218, Control_c, 0, 67, 11
1, 99232, Control_c, 0, 64, 73
1, 99232, Control_c, 0, 67, 14
1, 99247, Control_c, 0, 64, 79
1, 99247, Control_c, 0, 67, 16
1, 99261, Note_off_c, 0, 32, 58
1, 99269, Control_c, 0, 64, 82
1, 99269, Control_c, 0, 67, 18
1, 99284, Control_c, 0, 64, 82
1, 99284, Control_c, 0, 67, 24
1, 99292, Note_on_c, 0, 44, 65
1, 99299, Control_c, 0, 67, 34
1, 99314, Control_c, 0, 67, 48
1, 99329, Control_c, 0, 64, 82
1, 99329, Control_c, 0, 67, 56
1, 99344, Control_c, 0, 64, 81
1, 99344, Control_c, 0, 67, 63
1, 99356, Note_off_c, 0, 44, 51
1, 99358, Control_c, 0, 64, 81
1, 99358, Control_c, 0, 67, 68
1, 99373, Control_c, 0, 64, 79
1, 99373, Control_c, 0, 67, 73
1, 99388, Control_c, 0, 64, 76
1, 99388, Control_c, 0, 67, 79
1, 99391, Note_on_c, 0, 32, 49
1, 99403, Control_c, 0, 64, 73
1, 99403, Control_c, 0, 67, 88
1, 99418, Control_c, 0, 64, 70
1, 99418, Control_c, 0, 67, 97
1, 99432, Note_off_c, 0, 32, 60
1, 99433, Control_c, 0, 64, 67
1, 99433, Control_c, 0, 67, 101
1, 99447, Control_c, 0, 64, 62
1, 99447, Control_c, 0, 67, 103
1, 99462, Control_c, 0, 64, 54
1, 99462, Control_c, 0, 67, 105
1, 99477, Control_c, 0, 64, 42
1, 99477, Control_c, 0, 67, 106
1, 99486, Note_on_c, 0, 44, 37
1, 99492, Control_c, 0, 64, 0
1, 99492, Control_c, 0, 67, 109
1, 99507, Control_c, 0, 67, 112
1, 99516, Note_off_c, 0, 44, 54
1, 99521, Control_c, 0, 67, 114
1, 99557, Note_on_c, 0, 68, 67
1, 99580, Note_on_c, 0, 32, 7
1, 99597, Control_c, 0, 67, 114
1, 99615, Note_off_c, 0, 32, 43
1, 99620, Note_on_c, 0, 44, 42
1, 99668, Note_off_c, 0, 44, 57
1, 99695, Note_on_c, 0, 32, 53
1, 99715, Control_c, 0, 64, 24
1, 99729, Control_c, 0, 64, 33
1, 99744, Control_c, 0, 64, 31
1, 99759, Control_c, 0, 64, 0
1, 99776, Note_off_c, 0, 32, 50
1, 99804, Note_on_c, 0, 44, 40
1, 99818, Control_c, 0, 64, 16
1, 99833, Control_c, 0, 64, 41
1, 99848, Control_c, 0, 64, 44
1, 99848, Control_c, 0, 67, 115
1, 99862, Control_c, 0, 64, 43
1, 99862, Control_c, 0, 67, 115
1, 99864, Note_off_c, 0, 44, 41
1, 99877, Control_c, 0, 64, 43
1, 99879, Note_on_c, 0, 32, 55
1, 99892, Control_c, 0, 64, 46
1, 99907, Control_c, 0, 64, 52
1, 99922, Control_c, 0, 64, 57
1, 99934, Note_off_c, 0, 32, 57
1, 99937, Control_c, 0, 64, 57
1, 99937, Control_c, 0, 67, 116
1, 99952, Control_c, 0, 67, 117
1, 99964, Note_on_c, 0, 44, 55
1, 99967, Control_c, 0, 64, 58
1, 99967, Control_c, 0, 67, 120
1, 99981, Control_c, 0, 64, 59
1, 99981, Control_c, 0, 67, 122
1, 99996, Control_c, 0, 64, 61
1, 99996, Control_c, 0, 67, 123
1, 100018, Control_c, 0, 64, 64
1, 100018, Control_c, 0, 67, 124
1, 100020, Note_off_c, 0, 44, 57
1, 100033, Control_c, 0, 64, 66
1, 100033, Control_c, 0, 67, 124
1, 100048, Control_c, 0, 64, 67
1, 100048, Control_c, 0, 67, 125
1, 100058, Note_on_c, 0, 32, 34
1, 100062, Control_c, 0, 64, 68
1, 100062, Control_c, 0, 67, 126
1, 100077, Control_c, 0, 67, 127
1, 100095, Note_off_c, 0, 32, 46
1, 100110, Note_on_c, 0, 44, 54
1, 100122, Control_c, 0, 64, 69
1, 100137, Control_c, 0, 64, 70
1, 100147, Note_on_c, 0, 69, 60
1, 100147, Note_off_c, 0, 44, 60
1, 100151, Control_c, 0, 64, 70
1, 100166, Control_c, 0, 64, 71
1, 100176, Note_off_c, 0, 68, 58
1, 100185, Note_on_c, 0, 32, 43
1, 100196, Control_c, 0, 64, 71
1, 100211, Control_c, 0, 64, 72
1, 100221, Note_off_c, 0, 32, 48
1, 100226, Control_c, 0, 64, 72
1, 100230, Note_on_c, 0, 44, 56
1, 100241, Control_c, 0, 64, 74
1, 100256, Control_c, 0, 64, 74
1, 100271, Note_off_c, 0, 44, 59
1, 100290, Note_on_c, 0, 68, 66
1, 100304, Note_off_c, 0, 69, 61
1, 100312, Note_on_c, 0, 32, 47
1, 100327, Note_off_c, 0, 68, 66
1, 100330, Control_c, 0, 64, 75
1, 100340, Note_off_c, 0, 32, 57
1, 100344, Control_c, 0, 67, 127
1, 100359, Control_c, 0, 64, 75
1, 100374, Control_c, 0, 64, 75
1, 100389, Note_on_c, 0, 44, 31
1, 100390, Control_c, 0, 64, 72
1, 100405, Control_c, 0, 64, 65
1, 100420, Control_c, 0, 64, 46
1, 100422, Note_off_c, 0, 44, 53
1, 100434, Control_c, 0, 64, 0
1, 100451, Note_on_c, 0, 66, 68
1, 100460, Note_on_c, 0, 32, 49
1, 100466, Note_on_c, 0, 57, 55
1, 100470, Note_on_c, 0, 61, 57
1, 100478, Control_c, 0, 64, 17
1, 100493, Control_c, 0, 64, 50
1, 100508, Control_c, 0, 64, 59
1, 100508, Control_c, 0, 67, 126
1, 100523, Control_c, 0, 64, 62
1, 100523, Control_c, 0, 67, 125
1, 100538, Control_c, 0, 64, 63
1, 100538, Control_c, 0, 67, 125
1, 100552, Control_c, 0, 64, 64
1, 100552, Control_c, 0, 67, 124
1, 100557, Note_off_c, 0, 32, 55
1, 100563, Note_on_c, 0, 44, 21
1, 100567, Control_c, 0, 64, 65
1, 100567, Control_c, 0, 67, 124
1, 100582, Control_c, 0, 64, 66
1, 100597, Control_c, 0, 64, 68
1, 100611, Control_c, 0, 64, 70
1, 100611, Control_c, 0, 67, 123
1, 100615, Note_on_c, 0, 32, 34
1, 100618, Note_off_c, 0, 44, 46
1, 100626, Control_c, 0, 64, 71
1, 100626, Control_c, 0, 67, 123
1, 100641, Control_c, 0, 64, 73
1, 100641, Control_c, 0, 67, 122
1, 100656, Control_c, 0, 64, 73
1, 100656, Control_c, 0, 67, 121
1, 100664, Note_off_c, 0, 32, 58
1, 100671, Control_c, 0, 64, 74
1, 100671, Control_c, 0, 67, 120
1, 100685, Control_c, 0, 67, 118
1, 100700, Control_c, 0, 67, 116
1, 100705, Note_on_c, 0, 44, 54
1, 100715, Control_c, 0, 64, 74
1, 100715, Control_c, 0, 67, 113
1, 100730, Control_c, 0, 64, 75
1, 100730, Control_c, 0, 67, 111
1, 100739, Note_on_c, 0, 68, 65
1, 100739, Note_off_c, 0, 66, 61
1, 100744, Note_off_c, 0, 44, 60
1, 100745, Control_c, 0, 64, 75
1, 100745, Control_c, 0, 67, 108
1, 100767, Control_c, 0, 67, 105
1, 100774, Note_on_c, 0, 32, 50
1, 100782, Control_c, 0, 67, 100
1, 100797, Control_c, 0, 67, 95
1, 100811, Control_c, 0, 67, 92
1, 100812, Note_off_c, 0, 32, 61
1, 100830, Note_off_c, 0, 61, 52
1, 100839, Note_on_c, 0, 44, 51
1, 100855, Note_off_c, 0, 57, 36
1, 100856, Control_c, 0, 67, 92
1, 100874, Note_on_c, 0, 66, 67
1, 100879, Note_off_c, 0, 44, 59
1, 100892, Note_off_c, 0, 68, 61
1, 100900, Control_c, 0, 67, 93
1, 100910, Note_on_c, 0, 32, 49
1, 100913, Note_off_c, 0, 66, 59
1, 100915, Control_c, 0, 67, 93
1, 100930, Control_c, 0, 67, 94
1, 100945, Control_c, 0, 67, 95
1, 100953, Note_off_c, 0, 32, 59
1, 100959, Control_c, 0, 67, 96
1, 100974, Control_c, 0, 67, 97
1, 100989, Note_on_c, 0, 44, 42
1, 100989, Control_c, 0, 64, 75
1, 100989, Control_c, 0, 67, 97
1, 101004, Control_c, 0, 64, 71
1, 101004, Control_c, 0, 67, 98
1, 101019, Control_c, 0, 64, 63
1, 101019, Control_c, 0, 67, 99
1, 101034, Control_c, 0, 64, 29
1, 101037, Note_off_c, 0, 44, 53
1, 101049, Control_c, 0, 64, 0
1, 101049, Control_c, 0, 67, 99
1, 101057, Note_on_c, 0, 64, 66
1, 101061, Note_on_c, 0, 32, 57
1, 101074, Note_on_c, 0, 59, 54
1, 101078, Control_c, 0, 67, 99
1, 101079, Note_on_c, 0, 56, 48
1, 101093, Control_c, 0, 67, 98
1, 101108, Control_c, 0, 67, 98
1, 101123, Control_c, 0, 67, 97
1, 101129, Note_off_c, 0, 32, 58
1, 101138, Control_c, 0, 64, 34
1, 101138, Control_c, 0, 67, 96
1, 101145, Note_on_c, 0, 44, 44
1, 101153, Control_c, 0, 64, 48
1, 101153, Control_c, 0, 67, 95
1, 101167, Control_c, 0, 64, 56
1, 101167, Control_c, 0, 67, 94
1, 101183, Control_c, 0, 64, 60
1, 101183, Control_c, 0, 67, 93
1, 101198, Control_c, 0, 64, 62
1, 101200, Note_off_c, 0, 44, 56
1, 101213, Control_c, 0, 64, 64
1, 101213, Control_c, 0, 67, 92
1, 101227, Control_c, 0, 64, 65
1, 101227, Control_c, 0, 67, 92
1, 101233, Note_on_c, 0, 32, 41
1, 101242, Control_c, 0, 64, 67
1, 101242, Control_c, 0, 67, 91
1, 101257, Control_c, 0, 64, 70
1, 101270, Note_off_c, 0, 32, 57
1, 101272, Control_c, 0, 64, 72
1, 101287, Control_c, 0, 64, 74
1, 101302, Control_c, 0, 64, 75
1, 101302, Control_c, 0, 67, 90
1, 101304, Note_on_c, 0, 44, 48
1, 101316, Control_c, 0, 64, 76
1, 101316, Control_c, 0, 67, 87
1, 101331, Control_c, 0, 67, 83
1, 101344, Note_off_c, 0, 44, 50
1, 101346, Control_c, 0, 64, 76
1, 101346, Control_c, 0, 67, 79
1, 101361, Control_c, 0, 64, 77
1, 101361, Control_c, 0, 67, 78
1, 101362, Note_on_c, 0, 66, 66
1, 101365, Note_off_c, 0, 64, 59
1, 101365, Note_on_c, 0, 32, 52
1, 101375, Control_c, 0, 64, 77
1, 101390, Control_c, 0, 64, 78
1, 101390, Control_c, 0, 67, 78
1, 101403, Note_off_c, 0, 32, 63
1, 101405, Control_c, 0, 64, 78
1, 101434, Note_on_c, 0, 44, 50
1, 101444, Note_off_c, 0, 59, 56
1, 101464, Control_c, 0, 67, 79
1, 101476, Note_off_c, 0, 44, 59
1, 101479, Control_c, 0, 64, 79
1, 101491, Note_on_c, 0, 64, 62
1, 101494, Control_c, 0, 67, 79
1, 101513, Note_on_c, 0, 32, 50
1, 101514, Note_off_c, 0, 66, 58
1, 101516, Control_c, 0, 64, 79
1, 101516, Control_c, 0, 67, 80
1, 101531, Control_c, 0, 67, 80
1, 101532, Note_off_c, 0, 64, 64
1, 101546, Control_c, 0, 67, 81
1, 101546, Note_off_c, 0, 56, 21
1, 101555, Note_off_c, 0, 32, 59
1, 101576, Control_c, 0, 67, 81
1, 101585, Note_on_c, 0, 44, 49
1, 101590, Control_c, 0, 67, 82
1, 101605, Control_c, 0, 67, 83
1, 101620, Control_c, 0, 67, 83
1, 101630, Note_off_c, 0, 44, 58
1, 101634, Control_c, 0, 67, 84
1, 101649, Control_c, 0, 64, 77
1, 101664, Control_c, 0, 64, 71
1, 101664, Control_c, 0, 67, 85
1, 101672, Note_on_c, 0, 32, 52
1, 101674, Note_on_c, 0, 63, 69
1, 101679, Control_c, 0, 64, 59
1, 101689, Note_on_c, 0, 54, 54
1, 101690, Note_on_c, 0, 57, 59
1, 101694, Control_c, 0, 64, 0
1, 101708, Control_c, 0, 67, 84
1, 101738, Control_c, 0, 67, 85
1, 101744, Note_off_c, 0, 32, 56
1, 101765, Note_on_c, 0, 44, 39
1, 101821, Note_off_c, 0, 44, 52
1, 101827, Control_c, 0, 64, 45
1, 101842, Control_c, 0, 64, 56
1, 101850, Note_on_c, 0, 32, 44
1, 101856, Control_c, 0, 64, 60
1, 101856, Control_c, 0, 67, 84
1, 101871, Control_c, 0, 64, 62
1, 101886, Note_off_c, 0, 32, 61
1, 101886, Control_c, 0, 64, 62
1, 101886, Control_c, 0, 67, 83
1, 101901, Control_c, 0, 64, 63
1, 101901, Control_c, 0, 67, 82
1, 101916, Control_c, 0, 64, 64
1, 101916, Control_c, 0, 67, 79
1, 101923, Note_on_c, 0, 44, 46
1, 101931, Control_c, 0, 64, 67
1, 101931, Control_c, 0, 67, 77
1, 101946, Control_c, 0, 64, 69
1, 101946, Control_c, 0, 67, 75
1, 101960, Control_c, 0, 64, 72
1, 101960, Control_c, 0, 67, 74
1, 101967, Note_off_c, 0, 44, 47
1, 101975, Control_c, 0, 64, 73
1, 101975, Control_c, 0, 67, 75
1, 101986, Note_on_c, 0, 32, 49
1, 101991, Note_on_c, 0, 64, 60
1, 101991, Control_c, 0, 64, 74
1, 101991, Control_c, 0, 67, 77
1, 101994, Note_off_c, 0, 63, 55
1, 102006, Control_c, 0, 64, 75
1, 102006, Control_c, 0, 67, 79
1, 102020, Control_c, 0, 67, 80
1, 102028, Note_off_c, 0, 32, 59
1, 102035, Control_c, 0, 64, 75
1, 102035, Control_c, 0, 67, 81
1, 102050, Control_c, 0, 67, 81
1, 102056, Note_on_c, 0, 44, 51
1, 102065, Control_c, 0, 64, 76
1, 102065, Control_c, 0, 67, 82
1, 102066, Note_off_c, 0, 57, 52
1, 102080, Control_c, 0, 67, 82
1, 102095, Control_c, 0, 67, 83
1, 102098, Note_off_c, 0, 44, 57
1, 102110, Control_c, 0, 67, 85
1, 102120, Note_on_c, 0, 63, 65
1, 102125, Control_c, 0, 67, 88
1, 102128, Note_on_c, 0, 32, 51
1, 102134, Note_off_c, 0, 64, 60
1, 102139, Control_c, 0, 67, 89
1, 102154, Control_c, 0, 67, 91
1, 102160, Note_off_c, 0, 63, 59
1, 102169, Note_off_c, 0, 32, 59
1, 102169, Note_off_c, 0, 54, 40
1, 102184, Control_c, 0, 67, 91
1, 102198, Control_c, 0, 67, 92
1, 102213, Note_on_c, 0, 44, 36
1, 102213, Control_c, 0, 67, 92
1, 102228, Control_c, 0, 67, 93
1, 102243, Control_c, 0, 64, 75
1, 102243, Control_c, 0, 67, 94
1, 102261, Note_off_c, 0, 44, 47
1, 102265, Control_c, 0, 64, 75
1, 102265, Control_c, 0, 67, 95
1, 102280, Control_c, 0, 64, 73
1, 102280, Control_c, 0, 67, 95
1, 102295, Control_c, 0, 64, 69
1, 102295, Control_c, 0, 67, 96
1, 102297, Note_on_c, 0, 32, 48
1, 102310, Control_c, 0, 64, 59
1, 102314, Note_on_c, 0, 61, 64
1, 102324, Control_c, 0, 64, 0
1, 102330, Note_on_c, 0, 52, 51
1, 102330, Note_on_c, 0, 56, 55
1, 102378, Note_off_c, 0, 32, 52
1, 102389, Note_on_c, 0, 44, 37
1, 102399, Control_c, 0, 64, 26
1, 102413, Control_c, 0, 64, 49
1, 102428, Control_c, 0, 64, 57
1, 102428, Control_c, 0, 67, 96
1, 102443, Control_c, 0, 64, 60
1, 102443, Control_c, 0, 67, 97
1, 102444, Note_off_c, 0, 44, 54
1, 102457, Control_c, 0, 64, 62
1, 102457, Control_c, 0, 67, 98
1, 102472, Control_c, 0, 64, 64
1, 102472, Control_c, 0, 67, 100
1, 102485, Note_on_c, 0, 32, 27
1, 102487, Control_c, 0, 64, 65
1, 102487, Control_c, 0, 67, 102
1, 102502, Control_c, 0, 64, 67
1, 102502, Control_c, 0, 67, 103
1, 102517, Control_c, 0, 64, 69
1, 102517, Control_c, 0, 67, 105
1, 102526, Note_off_c, 0, 32, 45
1, 102531, Control_c, 0, 64, 71
1, 102531, Control_c, 0, 67, 107
1, 102546, Note_on_c, 0, 44, 49
1, 102546, Control_c, 0, 64, 72
1, 102546, Control_c, 0, 67, 109
1, 102561, Control_c, 0, 64, 73
1, 102561, Control_c, 0, 67, 112
1, 102575, Control_c, 0, 64, 74
1, 102575, Control_c, 0, 67, 114
1, 102590, Control_c, 0, 64, 74
1, 102590, Control_c, 0, 67, 114
1, 102592, Note_off_c, 0, 44, 55
1, 102605, Control_c, 0, 64, 75
1, 102614, Note_off_c, 0, 61, 56
1, 102618, Note_on_c, 0, 32, 45
1, 102634, Note_on_c, 0, 63, 55
1, 102635, Control_c, 0, 64, 75
1, 102662, Note_off_c, 0, 32, 61
1, 102664, Control_c, 0, 64, 76
1, 102679, Note_off_c, 0, 52, 31
1, 102694, Note_on_c, 0, 44, 47
1, 102735, Note_off_c, 0, 44, 58
1, 102758, Note_on_c, 0, 61, 57
1, 102765, Note_off_c, 0, 63, 60
1, 102769, Note_on_c, 0, 32, 43
1, 102775, Note_off_c, 0, 56, 37
1, 102784, Control_c, 0, 67, 114
1, 102797, Note_off_c, 0, 61, 64
1, 102799, Control_c, 0, 67, 113
1, 102815, Note_off_c, 0, 32, 58
1, 102843, Control_c, 0, 64, 75
1, 102858, Control_c, 0, 64, 74
1, 102873, Control_c, 0, 64, 74
1, 102876, Note_on_c, 0, 44, 11
1, 102888, Control_c, 0, 64, 73
1, 102903, Control_c, 0, 64, 71
1, 102918, Control_c, 0, 64, 68
1, 102920, Note_off_c, 0, 44, 48
1, 102933, Control_c, 0, 64, 60
1, 102947, Control_c, 0, 64, 25
1, 102949, Note_on_c, 0, 60, 57
1, 102949, Note_on_c, 0, 32, 45
1, 102962, Control_c, 0, 64, 0
1, 102977, Note_on_c, 0, 51, 45
1, 102979, Note_on_c, 0, 54, 47
1, 103013, Control_c, 0, 67, 114
1, 103048, Note_off_c, 0, 32, 52
1, 103058, Control_c, 0, 64, 39
1, 103064, Note_on_c, 0, 44, 32
1, 103073, Control_c, 0, 64, 53
1, 103088, Control_c, 0, 64, 59
1, 103088, Control_c, 0, 67, 115
1, 103103, Control_c, 0, 64, 62
1, 103103, Control_c, 0, 67, 115
1, 103117, Control_c, 0, 64, 64
1, 103117, Control_c, 0, 67, 116
1, 103118, Note_off_c, 0, 44, 50
1, 103132, Control_c, 0, 64, 64
1, 103132, Control_c, 0, 67, 117
1, 103144, Note_on_c, 0, 32, 29
1, 103147, Control_c, 0, 64, 65
1, 103147, Control_c, 0, 67, 119
1, 103162, Control_c, 0, 64, 67
1, 103177, Control_c, 0, 64, 69
1, 103180, Note_off_c, 0, 32, 54
1, 103192, Control_c, 0, 64, 71
1, 103206, Control_c, 0, 64, 72
1, 103221, Control_c, 0, 64, 73
1, 103230, Note_off_c, 0, 60, 56
1, 103236, Control_c, 0, 64, 73
1, 103240, Note_on_c, 0, 44, 28
1, 103242, Note_off_c, 0, 51, 56
1, 103254, Note_off_c, 0, 54, 61
1, 103272, Note_on_c, 0, 32, 50
1, 103273, Note_off_c, 0, 44, 51
1, 103295, Control_c, 0, 64, 74
1, 103310, Control_c, 0, 64, 74
1, 103311, Note_off_c, 0, 32, 61
1, 103361, Note_on_c, 0, 44, 41
1, 103392, Note_off_c, 0, 44, 53
1, 103413, Note_on_c, 0, 32, 47
1, 103443, Control_c, 0, 67, 118
1, 103456, Note_off_c, 0, 32, 57
1, 103476, Note_on_c, 0, 44, 49
1, 103487, Control_c, 0, 64, 74
1, 103517, Control_c, 0, 64, 73
1, 103532, Note_off_c, 0, 44, 52
1, 103532, Control_c, 0, 64, 73
1, 103547, Control_c, 0, 64, 70
1, 103562, Control_c, 0, 64, 65
1, 103572, Note_on_c, 0, 32, 44
1, 103577, Control_c, 0, 64, 48
1, 103588, Note_on_c, 0, 61, 55
1, 103592, Control_c, 0, 64, 0
1, 103596, Note_on_c, 0, 52, 44
1, 103611, Note_on_c, 0, 49, 49
1, 103666, Control_c, 0, 64, 29
1, 103681, Note_off_c, 0, 32, 47
1, 103681, Control_c, 0, 64, 47
1, 103681, Control_c, 0, 67, 118
1, 103696, Control_c, 0, 64, 56
1, 103696, Control_c, 0, 67, 117
1, 103711, Control_c, 0, 64, 61
1, 103711, Control_c, 0, 67, 115
1, 103714, Note_on_c, 0, 44, 16
1, 103716, Note_off_c, 0, 52, 62
1, 103726, Control_c, 0, 64, 63
1, 103726, Control_c, 0, 67, 114
1, 103740, Control_c, 0, 64, 65
1, 103740, Control_c, 0, 67, 113
1, 103763, Control_c, 0, 64, 67
1, 103763, Control_c, 0, 67, 111
1, 103767, Note_off_c, 0, 44, 50
1, 103778, Control_c, 0, 64, 69
1, 103778, Control_c, 0, 67, 109
1, 103792, Control_c, 0, 64, 71
1, 103792, Control_c, 0, 67, 107
1, 103795, Note_on_c, 0, 32, 23
1, 103807, Control_c, 0, 64, 72
1, 103807, Control_c, 0, 67, 101
1, 103818, Note_off_c, 0, 61, 54
1, 103822, Control_c, 0, 64, 74
1, 103822, Control_c, 0, 67, 95
1, 103834, Note_off_c, 0, 49, 59
1, 103835, Note_off_c, 0, 32, 43
1, 103836, Control_c, 0, 64, 75
1, 103836, Control_c, 0, 67, 92
1, 103850, Note_on_c, 0, 44, 51
1, 103851, Control_c, 0, 67, 93
1, 103866, Control_c, 0, 64, 75
1, 103866, Control_c, 0, 67, 95
1, 103881, Control_c, 0, 67, 96
1, 103894, Note_off_c, 0, 44, 56
1, 103896, Control_c, 0, 64, 76
1, 103896, Control_c, 0, 67, 97
1, 103910, Control_c, 0, 64, 76
1, 103910, Control_c, 0, 67, 97
1, 103925, Control_c, 0, 64, 77
1, 103925, Control_c, 0, 67, 98
1, 103937, Note_on_c, 0, 32, 41
1, 103940, Control_c, 0, 64, 78
1, 103955, Control_c, 0, 64, 78
1, 103955, Control_c, 0, 67, 98
1, 103971, Control_c, 0, 67, 99
1, 103985, Note_on_c, 0, 44, 53
1, 103985, Note_off_c, 0, 32, 41
1, 103985, Control_c, 0, 64, 79
1, 103985, Control_c, 0, 67, 99
1, 104000, Control_c, 0, 64, 80
1, 104000, Control_c, 0, 67, 100
1, 104015, Control_c, 0, 64, 82
1, 104026, Note_off_c, 0, 44, 58
1, 104027, Note_on_c, 0, 48, 57
1, 104030, Control_c, 0, 64, 83
1, 104030, Control_c, 0, 67, 101
1, 104044, Control_c, 0, 64, 83
1, 104044, Control_c, 0, 67, 101
1, 104059, Control_c, 0, 67, 102
1, 104086, Note_off_c, 0, 48, 62
1, 104089, Control_c, 0, 64, 82
1, 104104, Control_c, 0, 64, 75
1, 104106, Note_on_c, 0, 56, 58
1, 104119, Control_c, 0, 64, 65
1, 104134, Control_c, 0, 64, 40
1, 104134, Control_c, 0, 67, 103
1, 104135, Note_on_c, 0, 44, 44
1, 104149, Control_c, 0, 64, 0
1, 104178, Control_c, 0, 64, 39
1, 104179, Note_off_c, 0, 44, 59
1, 104193, Control_c, 0, 64, 59
1, 104193, Control_c, 0, 67, 103
1, 104201, Note_off_c, 0, 56, 63
1, 104208, Control_c, 0, 64, 65
1, 104208, Note_on_c, 0, 63, 67
1, 104223, Control_c, 0, 64, 70
1, 104234, Note_off_c, 0, 63, 65
1, 104236, Note_on_c, 0, 32, 41
1, 104237, Control_c, 0, 64, 73
1, 104252, Control_c, 0, 64, 75
1, 104267, Control_c, 0, 64, 76
1, 104276, Note_off_c, 0, 32, 60
1, 104289, Note_on_c, 0, 44, 46
1, 104296, Control_c, 0, 64, 76
1, 104296, Control_c, 0, 67, 103
1, 104341, Control_c, 0, 67, 102
1, 104342, Note_off_c, 0, 44, 56
1, 104365, Note_on_c, 0, 32, 52
1, 104406, Note_off_c, 0, 32, 59
1, 104438, Note_on_c, 0, 44, 56
1, 104445, Control_c, 0, 64, 76
1, 104460, Control_c, 0, 64, 74
1, 104475, Note_off_c, 0, 44, 61
1, 104475, Control_c, 0, 64, 71
1, 104490, Control_c, 0, 64, 67
1, 104506, Note_on_c, 0, 32, 54
1, 104511, Note_on_c, 0, 80, 56
1, 104512, Control_c, 0, 64, 63
1, 104527, Control_c, 0, 64, 57
1, 104541, Note_off_c, 0, 32, 63
1, 104542, Control_c, 0, 64, 53
1, 104564, Note_on_c, 0, 44, 51
1, 104572, Control_c, 0, 64, 54
1, 104601, Note_off_c, 0, 44, 62
1, 104629, Note_on_c, 0, 32, 53
1, 104631, Control_c, 0, 64, 55
1, 104646, Control_c, 0, 64, 55
1, 104660, Control_c, 0, 64, 56
1, 104667, Note_off_c, 0, 32, 62
1, 104685, Note_on_c, 0, 44, 59
1, 104705, Control_c, 0, 64, 56
1, 104720, Control_c, 0, 64, 56
1, 104734, Control_c, 0, 64, 54
1, 104738, Note_off_c, 0, 44, 58
1, 104749, Control_c, 0, 64, 50
1, 104764, Control_c, 0, 64, 42
1, 104776, Note_on_c, 0, 32, 62
1, 104778, Control_c, 0, 64, 27
1, 104793, Control_c, 0, 64, 0
1, 104805, Note_off_c, 0, 80, 60
1, 104840, Note_off_c, 0, 32, 60
1, 104855, Note_on_c, 0, 44, 52
1, 104905, Note_off_c, 0, 44, 55
1, 104935, Note_on_c, 0, 80, 58
1, 104944, Note_on_c, 0, 32, 49
1, 104971, Note_off_c, 0, 80, 62
1, 104985, Note_off_c, 0, 32, 62
1, 105007, Note_on_c, 0, 44, 53
1, 105057, Note_off_c, 0, 44, 56
1, 105079, Note_on_c, 0, 81, 61
1, 105086, Note_on_c, 0, 32, 50
1, 105114, Note_off_c, 0, 81, 62
1, 105126, Note_off_c, 0, 32, 62
1, 105154, Note_on_c, 0, 44, 49
1, 105194, Note_off_c, 0, 44, 57
1, 105216, Note_on_c, 0, 80, 58
1, 105224, Note_on_c, 0, 32, 53
1, 105256, Note_off_c, 0, 80, 64
1, 105276, Note_off_c, 0, 32, 61
1, 105308, Note_on_c, 0, 44, 47
1, 105353, Note_off_c, 0, 44, 57
1, 105364, Note_on_c, 0, 78, 61
1, 105381, Note_on_c, 0, 32, 56
1, 105388, Note_off_c, 0, 78, 63
1, 105443, Note_off_c, 0, 32, 57
1, 105469, Note_on_c, 0, 44, 49
1, 105509, Note_on_c, 0, 73, 67
1, 105513, Note_on_c, 0, 78, 56
1, 105520, Note_off_c, 0, 44, 57
1, 105526, Note_on_c, 0, 69, 37
1, 105527, Control_c, 0, 67, 102
1, 105542, Note_off_c, 0, 73, 61
1, 105542, Control_c, 0, 67, 101
1, 105552, Note_on_c, 0, 32, 43
1, 105556, Note_off_c, 0, 78, 63
1, 105558, Note_off_c, 0, 69, 56
1, 105571, Control_c, 0, 67, 101
1, 105586, Note_off_c, 0, 32, 54
1, 105600, Control_c, 0, 67, 100
1, 105613, Note_on_c, 0, 44, 58
1, 105615, Control_c, 0, 67, 100
1, 105630, Control_c, 0, 67, 99
1, 105654, Note_off_c, 0, 44, 59
1, 105657, Note_on_c, 0, 80, 72
1, 105670, Note_on_c, 0, 32, 56
1, 105670, Note_on_c, 0, 71, 54
1, 105675, Control_c, 0, 67, 99
1, 105691, Note_off_c, 0, 71, 62
1, 105691, Note_off_c, 0, 80, 52
1, 105705, Control_c, 0, 67, 98
1, 105707, Note_off_c, 0, 32, 61
1, 105735, Control_c, 0, 67, 98
1, 105735, Note_on_c, 0, 44, 56
1, 105749, Control_c, 0, 67, 97
1, 105773, Note_off_c, 0, 44, 60
1, 105779, Control_c, 0, 67, 97
1, 105799, Note_on_c, 0, 32, 55
1, 105800, Note_on_c, 0, 78, 72
1, 105808, Control_c, 0, 67, 96
1, 105810, Note_on_c, 0, 69, 45
1, 105815, Note_on_c, 0, 73, 46
1, 105827, Note_off_c, 0, 78, 67
1, 105838, Note_off_c, 0, 69, 58
1, 105838, Control_c, 0, 67, 95
1, 105839, Note_off_c, 0, 32, 60
1, 105843, Note_off_c, 0, 73, 35
1, 105853, Control_c, 0, 67, 93
1, 105862, Note_on_c, 0, 44, 56
1, 105868, Control_c, 0, 67, 90
1, 105882, Control_c, 0, 67, 84
1, 105897, Control_c, 0, 67, 79
1, 105911, Note_off_c, 0, 44, 58
1, 105912, Control_c, 0, 67, 76
1, 105927, Control_c, 0, 67, 74
1, 105942, Control_c, 0, 67, 70
1, 105944, Note_on_c, 0, 32, 57
1, 105948, Note_on_c, 0, 71, 59
1, 105956, Note_on_c, 0, 76, 56
1, 105956, Control_c, 0, 67, 66
1, 105963, Note_on_c, 0, 68, 40
1, 105972, Control_c, 0, 67, 63
1, 105987, Control_c, 0, 67, 63
1, 105991, Note_off_c, 0, 71, 60
1, 105991, Note_off_c, 0, 68, 57
1, 106005, Note_off_c, 0, 76, 57
1, 106009, Control_c, 0, 67, 63
1, 106012, Note_off_c, 0, 32, 58
1, 106022, Note_on_c, 0, 44, 59
1, 106039, Control_c, 0, 67, 64
1, 106068, Control_c, 0, 67, 64
1, 106083, Control_c, 0, 67, 65
1, 106086, Note_off_c, 0, 44, 52
1, 106093, Note_on_c, 0, 68, 60
1, 106096, Note_on_c, 0, 76, 72
1, 106098, Note_on_c, 0, 71, 71
1, 106098, Control_c, 0, 67, 65
1, 106106, Note_on_c, 0, 32, 59
1, 106125, Note_off_c, 0, 71, 65
1, 106130, Note_off_c, 0, 68, 62
1, 106147, Note_off_c, 0, 32, 62
1, 106155, Note_off_c, 0, 76, 59
1, 106171, Note_on_c, 0, 44, 61
1, 106202, Control_c, 0, 67, 65
1, 106210, Note_off_c, 0, 44, 61
1, 106231, Note_on_c, 0, 78, 78
1, 106232, Note_on_c, 0, 32, 68
1, 106240, Note_on_c, 0, 73, 69
1, 106243, Note_on_c, 0, 69, 59
1, 106246, Control_c, 0, 67, 64
1, 106264, Note_off_c, 0, 69, 64
1, 106268, Note_off_c, 0, 32, 64
1, 106274, Note_off_c, 0, 73, 58
1, 106286, Note_on_c, 0, 44, 64
1, 106291, Control_c, 0, 67, 64
1, 106295, Note_off_c, 0, 78, 62
1, 106305, Control_c, 0, 67, 63
1, 106329, Note_off_c, 0, 44, 61
1, 106361, Note_on_c, 0, 32, 62
1, 106378, Note_on_c, 0, 71, 61
1, 106381, Note_on_c, 0, 76, 70
1, 106381, Note_on_c, 0, 68, 72
1, 106401, Note_off_c, 0, 32, 58
1, 106402, Note_off_c, 0, 71, 65
1, 106411, Note_off_c, 0, 68, 63
1, 106414, Note_on_c, 0, 44, 64
1, 106414, Note_off_c, 0, 76, 62
1, 106460, Note_off_c, 0, 44, 62
1, 106492, Note_on_c, 0, 32, 67
1, 106510, Note_on_c, 0, 75, 76
1, 106512, Note_on_c, 0, 66, 75
1, 106519, Note_on_c, 0, 69, 71
1, 106542, Control_c, 0, 67, 63
1, 106551, Note_off_c, 0, 66, 59
1, 106552, Note_off_c, 0, 69, 59
1, 106560, Note_on_c, 0, 44, 63
1, 106561, Note_off_c, 0, 32, 60
1, 106567, Note_off_c, 0, 75, 59
1, 106587, Control_c, 0, 67, 62
1, 106602, Control_c, 0, 67, 62
1, 106617, Note_off_c, 0, 44, 58
1, 106637, Note_on_c, 0, 32, 68
1, 106647, Note_on_c, 0, 66, 80
1, 106650, Note_on_c, 0, 69, 75
1, 106651, Note_on_c, 0, 75, 77
1, 106689, Note_off_c, 0, 32, 56
1, 106693, Note_off_c, 0, 66, 58
1, 106700, Note_on_c, 0, 44, 71
1, 106716, Note_off_c, 0, 69, 58
1, 106720, Control_c, 0, 67, 61
1, 106729, Note_off_c, 0, 75, 60
1, 106735, Control_c, 0, 67, 61
1, 106757, Control_c, 0, 67, 60
1, 106761, Note_off_c, 0, 44, 60
1, 106772, Control_c, 0, 67, 58
1, 106788, Control_c, 0, 67, 57
1, 106789, Note_on_c, 0, 32, 73
1, 106795, Note_on_c, 0, 76, 89
1, 106800, Note_on_c, 0, 68, 77
1, 106802, Control_c, 0, 67, 57
1, 106803, Note_on_c, 0, 71, 74
1, 106829, Note_on_c, 0, 44, 63
1, 106832, Note_off_c, 0, 32, 60
1, 106836, Note_off_c, 0, 68, 60
1, 106847, Control_c, 0, 67, 56
1, 106859, Note_off_c, 0, 71, 59
1, 106859, Note_off_c, 0, 76, 62
1, 106861, Control_c, 0, 67, 54
1, 106876, Control_c, 0, 67, 51
1, 106888, Note_off_c, 0, 44, 60
1, 106891, Control_c, 0, 67, 46
1, 106906, Control_c, 0, 67, 43
1, 106908, Note_on_c, 0, 32, 75
1, 106921, Control_c, 0, 67, 40
1, 106936, Control_c, 0, 67, 37
1, 106939, Note_on_c, 0, 75, 79
1, 106945, Note_on_c, 0, 69, 69
1, 106951, Control_c, 0, 67, 31
1, 106955, Note_on_c, 0, 68, 59
1, 106960, Note_off_c, 0, 32, 56
1, 106961, Note_on_c, 0, 44, 67
1, 106964, Note_on_c, 0, 66, 29
1, 106965, Note_off_c, 0, 66, 127
1, 106966, Control_c, 0, 67, 21
1, 106974, Note_off_c, 0, 68, 64
1, 106975, Note_off_c, 0, 69, 67
1, 106981, Control_c, 0, 67, 0
1, 106992, Note_off_c, 0, 75, 61
1, 107026, Note_off_c, 0, 44, 60
1, 107052, Note_on_c, 0, 32, 80
1, 107074, Note_on_c, 0, 73, 94
1, 107077, Note_on_c, 0, 64, 90
1, 107077, Note_on_c, 0, 68, 72
1, 107104, Note_off_c, 0, 64, 65
1, 107118, Note_off_c, 0, 68, 59
1, 107121, Note_on_c, 0, 44, 70
1, 107121, Note_off_c, 0, 32, 61
1, 107127, Note_off_c, 0, 73, 62
1, 107182, Note_off_c, 0, 44, 60
1, 107204, Note_on_c, 0, 32, 78
1, 107213, Note_on_c, 0, 68, 87
1, 107214, Note_on_c, 0, 64, 87
1, 107214, Note_on_c, 0, 73, 95
1, 107241, Note_off_c, 0, 64, 65
1, 107255, Note_off_c, 0, 32, 57
1, 107265, Note_on_c, 0, 44, 72
1, 107270, Note_off_c, 0, 68, 61
1, 107271, Note_off_c, 0, 73, 63
1, 107314, Note_off_c, 0, 44, 60
1, 107347, Note_on_c, 0, 32, 72
1, 107348, Note_on_c, 0, 75, 88
1, 107349, Note_on_c, 0, 69, 85
1, 107353, Note_on_c, 0, 66, 85
1, 107385, Note_off_c, 0, 32, 59
1, 107386, Note_on_c, 0, 44, 63
1, 107388, Note_off_c, 0, 66, 63
1, 107413, Note_off_c, 0, 69, 58
1, 107417, Note_off_c, 0, 75, 61
1, 107431, Note_off_c, 0, 44, 64
1, 107468, Note_on_c, 0, 32, 66
1, 107470, Control_c, 0, 67, 9
1, 107484, Control_c, 0, 67, 11
1, 107507, Control_c, 0, 67, 13
1, 107511, Note_off_c, 0, 32, 62
1, 107514, Note_on_c, 0, 73, 73
1, 107517, Note_on_c, 0, 68, 70
1, 107519, Note_on_c, 0, 64, 73
1, 107522, Control_c, 0, 67, 16
1, 107536, Control_c, 0, 67, 20
1, 107544, Note_on_c, 0, 44, 50
1, 107544, Note_off_c, 0, 64, 67
1, 107546, Note_off_c, 0, 68, 66
1, 107551, Note_off_c, 0, 73, 60
1, 107551, Control_c, 0, 67, 27
1, 107566, Control_c, 0, 67, 34
1, 107572, Note_off_c, 0, 44, 55
1, 107582, Control_c, 0, 67, 43
1, 107597, Control_c, 0, 67, 50
1, 107611, Control_c, 0, 67, 58
1, 107626, Control_c, 0, 67, 68
1, 107641, Control_c, 0, 67, 78
1, 107656, Control_c, 0, 67, 90
1, 107671, Control_c, 0, 67, 101
1, 107685, Control_c, 0, 67, 112
1, 107700, Control_c, 0, 67, 121
1, 107711, Note_on_c, 0, 72, 64
1, 107715, Control_c, 0, 67, 127
1, 107730, Note_on_c, 0, 32, 51
1, 107744, Note_on_c, 0, 66, 47
1, 107747, Note_on_c, 0, 63, 50
1, 107803, Control_c, 0, 64, 21
1, 107805, Note_off_c, 0, 32, 55
1, 107818, Control_c, 0, 64, 51
1, 107819, Note_on_c, 0, 44, 45
1, 107833, Control_c, 0, 64, 62
1, 107848, Control_c, 0, 64, 65
1, 107863, Control_c, 0, 64, 67
1, 107866, Note_off_c, 0, 44, 58
1, 107878, Control_c, 0, 64, 68
1, 107893, Control_c, 0, 64, 69
1, 107894, Note_on_c, 0, 32, 37
1, 107908, Control_c, 0, 64, 72
1, 107923, Control_c, 0, 64, 75
1, 107927, Note_off_c, 0, 32, 54
1, 107934, Note_off_c, 0, 72, 60
1, 107938, Control_c, 0, 64, 79
1, 107939, Note_off_c, 0, 63, 63
1, 107950, Note_off_c, 0, 66, 63
1, 107952, Control_c, 0, 64, 82
1, 107955, Note_on_c, 0, 44, 59
1, 107967, Control_c, 0, 64, 84
1, 107967, Control_c, 0, 67, 124
1, 107982, Control_c, 0, 64, 85
1, 107982, Control_c, 0, 67, 117
1, 107992, Note_off_c, 0, 44, 60
1, 107996, Control_c, 0, 64, 86
1, 107996, Control_c, 0, 67, 108
1, 108011, Control_c, 0, 67, 97
1, 108014, Note_on_c, 0, 32, 55
1, 108026, Control_c, 0, 64, 87
1, 108026, Control_c, 0, 67, 88
1, 108041, Control_c, 0, 67, 86
1, 108051, Note_off_c, 0, 32, 62
1, 108056, Control_c, 0, 67, 88
1, 108072, Note_on_c, 0, 44, 57
1, 108100, Control_c, 0, 67, 88
1, 108108, Note_off_c, 0, 44, 62
1, 108115, Control_c, 0, 67, 89
1, 108130, Control_c, 0, 67, 91
1, 108135, Note_on_c, 0, 32, 57
1, 108144, Control_c, 0, 67, 91
1, 108171, Note_off_c, 0, 32, 62
1, 108188, Control_c, 0, 67, 92
1, 108200, Note_on_c, 0, 44, 50
1, 108203, Control_c, 0, 67, 92
1, 108254, Note_off_c, 0, 44, 56
1, 108256, Control_c, 0, 64, 85
1, 108256, Control_c, 0, 67, 93
1, 108270, Control_c, 0, 64, 80
1, 108285, Control_c, 0, 64, 69
1, 108285, Control_c, 0, 67, 93
1, 108297, Note_on_c, 0, 32, 49
1, 108300, Control_c, 0, 64, 53
1, 108309, Note_on_c, 0, 73, 67
1, 108315, Control_c, 0, 64, 0
1, 108328, Note_on_c, 0, 64, 50
1, 108330, Control_c, 0, 67, 93
1, 108333, Note_on_c, 0, 61, 54
1, 108345, Control_c, 0, 67, 92
1, 108359, Control_c, 0, 64, 15
1, 108359, Control_c, 0, 67, 92
1, 108375, Control_c, 0, 64, 50
1, 108377, Note_off_c, 0, 32, 54
1, 108381, Note_on_c, 0, 44, 49
1, 108390, Control_c, 0, 64, 62
1, 108390, Control_c, 0, 67, 91
1, 108405, Control_c, 0, 64, 65
1, 108405, Control_c, 0, 67, 91
1, 108420, Control_c, 0, 64, 68
1, 108420, Control_c, 0, 67, 90
1, 108424, Note_off_c, 0, 64, 64
1, 108434, Control_c, 0, 64, 69
1, 108434, Control_c, 0, 67, 89
1, 108449, Control_c, 0, 64, 71
1, 108449, Control_c, 0, 67, 88
1, 108451, Note_off_c, 0, 44, 55
1, 108462, Control_c, 0, 64, 74
1, 108462, Control_c, 0, 67, 88
1, 108468, Note_on_c, 0, 32, 34
1, 108477, Control_c, 0, 64, 76
1, 108477, Control_c, 0, 67, 87
1, 108492, Control_c, 0, 64, 79
1, 108492, Control_c, 0, 67, 85
1, 108502, Note_off_c, 0, 32, 55
1, 108507, Control_c, 0, 64, 81
1, 108507, Control_c, 0, 67, 83
1, 108521, Note_off_c, 0, 73, 50
1, 108522, Control_c, 0, 64, 82
1, 108522, Control_c, 0, 67, 77
1, 108537, Note_on_c, 0, 44, 49
1, 108537, Control_c, 0, 64, 82
1, 108537, Control_c, 0, 67, 66
1, 108552, Control_c, 0, 64, 83
1, 108552, Control_c, 0, 67, 52
1, 108555, Note_off_c, 0, 61, 57
1, 108566, Control_c, 0, 64, 84
1, 108566, Control_c, 0, 67, 41
1, 108578, Note_off_c, 0, 44, 56
1, 108581, Control_c, 0, 64, 86
1, 108581, Control_c, 0, 67, 40
1, 108592, Note_on_c, 0, 32, 56
1, 108596, Control_c, 0, 64, 87
1, 108596, Control_c, 0, 67, 42
1, 108611, Control_c, 0, 64, 88
1, 108611, Control_c, 0, 67, 44
1, 108625, Control_c, 0, 64, 88
1, 108629, Note_off_c, 0, 32, 62
1, 108640, Control_c, 0, 64, 89
1, 108655, Control_c, 0, 64, 89
1, 108655, Control_c, 0, 67, 44
1, 108670, Control_c, 0, 64, 90
1, 108673, Note_on_c, 0, 44, 49
1, 108685, Control_c, 0, 64, 90
1, 108685, Control_c, 0, 67, 45
1, 108699, Control_c, 0, 64, 91
1, 108699, Control_c, 0, 67, 45
1, 108707, Note_off_c, 0, 44, 50
1, 108714, Control_c, 0, 64, 91
1, 108720, Note_on_c, 0, 32, 56
1, 108727, Note_on_c, 0, 60, 57
1, 108744, Control_c, 0, 64, 92
1, 108757, Note_off_c, 0, 32, 60
1, 108759, Control_c, 0, 64, 92
1, 108764, Note_off_c, 0, 60, 63
1, 108773, Control_c, 0, 64, 93
1, 108778, Note_on_c, 0, 66, 69
1, 108780, Note_on_c, 0, 44, 63
1, 108788, Control_c, 0, 64, 93
1, 108788, Control_c, 0, 67, 46
1, 108803, Control_c, 0, 67, 47
1, 108817, Control_c, 0, 67, 48
1, 108829, Note_off_c, 0, 44, 56
1, 108832, Control_c, 0, 64, 87
1, 108832, Control_c, 0, 67, 49
1, 108847, Control_c, 0, 64, 74
1, 108847, Control_c, 0, 67, 51
1, 108862, Control_c, 0, 64, 44
1, 108862, Control_c, 0, 67, 52
1, 108873, Note_on_c, 0, 69, 23
1, 108873, Note_on_c, 0, 75, 77
1, 108877, Note_on_c, 0, 32, 49
1, 108877, Control_c, 0, 64, 0
1, 108877, Control_c, 0, 67, 53
1, 108906, Control_c, 0, 67, 53
1, 108936, Control_c, 0, 64, 41
1, 108936, Control_c, 0, 67, 54
1, 108942, Note_off_c, 0, 32, 56
1, 108951, Control_c, 0, 64, 55
1, 108966, Control_c, 0, 64, 58
1, 108978, Note_on_c, 0, 44, 41
1, 108981, Control_c, 0, 64, 59
1, 108981, Control_c, 0, 67, 54
1, 109003, Control_c, 0, 64, 61
1, 109017, Control_c, 0, 64, 63
1, 109031, Note_off_c, 0, 44, 57
1, 109032, Control_c, 0, 64, 65
1, 109047, Control_c, 0, 64, 69
1, 109051, Note_off_c, 0, 69, 23
1, 109058, Note_on_c, 0, 32, 46
1, 109062, Control_c, 0, 64, 72
1, 109077, Control_c, 0, 64, 74
1, 109091, Note_off_c, 0, 32, 58
1, 109091, Control_c, 0, 64, 75
1, 109127, Note_on_c, 0, 44, 56
1, 109136, Control_c, 0, 64, 75
1, 109160, Note_off_c, 0, 44, 52
1, 109181, Note_on_c, 0, 32, 54
1, 109196, Control_c, 0, 64, 76
1, 109215, Note_off_c, 0, 32, 62
1, 109240, Note_on_c, 0, 44, 58
1, 109276, Note_off_c, 0, 44, 60
1, 109285, Control_c, 0, 67, 55
1, 109312, Note_on_c, 0, 32, 57
1, 109345, Control_c, 0, 64, 76
1, 109345, Control_c, 0, 67, 55
1, 109347, Note_off_c, 0, 32, 62
1, 109359, Control_c, 0, 64, 77
1, 109359, Control_c, 0, 67, 56
1, 109374, Control_c, 0, 64, 76
1, 109374, Control_c, 0, 67, 59
1, 109385, Note_on_c, 0, 44, 53
1, 109389, Control_c, 0, 64, 72
1, 109389, Control_c, 0, 67, 60
1, 109404, Control_c, 0, 64, 64
1, 109419, Control_c, 0, 64, 39
1, 109422, Note_off_c, 0, 44, 62
1, 109434, Control_c, 0, 64, 0
1, 109463, Note_on_c, 0, 32, 59
1, 109463, Control_c, 0, 64, 12
1, 109478, Control_c, 0, 64, 51
1, 109493, Control_c, 0, 64, 62
1, 109496, Note_off_c, 0, 75, 61
1, 109501, Note_off_c, 0, 66, 64
1, 109508, Control_c, 0, 64, 67
1, 109514, Note_off_c, 0, 32, 57
1, 109522, Control_c, 0, 64, 71
1, 109522, Control_c, 0, 67, 60
1, 109536, Note_on_c, 0, 44, 51
1, 109537, Control_c, 0, 64, 73
1, 109552, Control_c, 0, 64, 75
1, 109566, Control_c, 0, 64, 76
1, 109581, Control_c, 0, 64, 77
1, 109595, Note_off_c, 0, 44, 55
1, 109596, Control_c, 0, 64, 78
1, 109611, Control_c, 0, 64, 79
1, 109611, Control_c, 0, 67, 60
1, 109626, Control_c, 0, 64, 80
1, 109630, Note_on_c, 0, 32, 53
1, 109640, Control_c, 0, 64, 81
1, 109669, Note_off_c, 0, 32, 61
1, 109685, Control_c, 0, 64, 80
1, 109693, Note_on_c, 0, 44, 57
1, 109700, Control_c, 0, 64, 75
1, 109714, Control_c, 0, 64, 65
1, 109714, Control_c, 0, 67, 60
1, 109729, Control_c, 0, 64, 49
1, 109752, Control_c, 0, 64, 0
1, 109752, Control_c, 0, 67, 59
1, 109756, Note_off_c, 0, 44, 52
1, 109768, Note_on_c, 0, 73, 59
1, 109774, Note_on_c, 0, 64, 51
1, 109781, Control_c, 0, 64, 40
1, 109784, Note_on_c, 0, 32, 50
1, 109790, Note_on_c, 0, 61, 40
1, 109796, Control_c, 0, 64, 57
1, 109807, Note_off_c, 0, 64, 65
1, 109811, Control_c, 0, 64, 65
1, 109824, Note_off_c, 0, 61, 55
1, 109826, Control_c, 0, 64, 69
1, 109827, Note_off_c, 0, 32, 60
1, 109839, Note_off_c, 0, 73, 47
1, 109841, Control_c, 0, 64, 72
1, 109851, Note_on_c, 0, 44, 55
1, 109855, Control_c, 0, 64, 74
1, 109870, Control_c, 0, 64, 76
1, 109885, Control_c, 0, 64, 77
1, 109890, Note_off_c, 0, 44, 61
1, 109900, Control_c, 0, 64, 78
1, 109929, Note_on_c, 0, 32, 46
1, 109944, Control_c, 0, 64, 78
1, 109959, Note_off_c, 0, 32, 57
1, 109976, Control_c, 0, 64, 79
1, 109988, Note_on_c, 0, 44, 49
1, 110005, Control_c, 0, 64, 78
1, 110020, Control_c, 0, 64, 74
1, 110035, Control_c, 0, 64, 65
1, 110036, Note_off_c, 0, 44, 56
1, 110050, Control_c, 0, 64, 48
1, 110065, Control_c, 0, 64, 0
1, 110065, Control_c, 0, 67, 59
1, 110070, Note_on_c, 0, 32, 43
1, 110079, Control_c, 0, 67, 58
1, 110081, Note_on_c, 0, 72, 52
1, 110092, Note_on_c, 0, 66, 42
1, 110093, Note_on_c, 0, 63, 41
1, 110109, Control_c, 0, 64, 37
1, 110109, Control_c, 0, 67, 58
1, 110124, Control_c, 0, 64, 55
1, 110139, Control_c, 0, 64, 63
1, 110139, Control_c, 0, 67, 57
1, 110145, Note_off_c, 0, 32, 55
1, 110153, Control_c, 0, 64, 67
1, 110153, Control_c, 0, 67, 56
1, 110163, Note_on_c, 0, 44, 44
1, 110168, Control_c, 0, 64, 71
1, 110168, Control_c, 0, 67, 55
1, 110183, Control_c, 0, 64, 75
1, 110183, Control_c, 0, 67, 53
1, 110197, Control_c, 0, 64, 78
1, 110197, Control_c, 0, 67, 52
1, 110212, Control_c, 0, 64, 81
1, 110216, Note_off_c, 0, 44, 56
1, 110227, Control_c, 0, 64, 82
1, 110242, Control_c, 0, 64, 83
1, 110244, Note_on_c, 0, 32, 40
1, 110246, Note_off_c, 0, 63, 56
1, 110248, Note_off_c, 0, 72, 56
1, 110257, Control_c, 0, 64, 81
1, 110258, Note_off_c, 0, 66, 38
1, 110272, Control_c, 0, 64, 77
1, 110286, Note_off_c, 0, 32, 58
1, 110286, Control_c, 0, 64, 70
1, 110301, Control_c, 0, 64, 66
1, 110301, Control_c, 0, 67, 52
1, 110313, Note_on_c, 0, 44, 51
1, 110316, Control_c, 0, 64, 64
1, 110316, Control_c, 0, 67, 51
1, 110331, Control_c, 0, 64, 65
1, 110331, Control_c, 0, 67, 50
1, 110346, Control_c, 0, 64, 68
1, 110346, Control_c, 0, 67, 48
1, 110358, Note_off_c, 0, 44, 57
1, 110361, Control_c, 0, 64, 70
1, 110361, Control_c, 0, 67, 46
1, 110376, Control_c, 0, 64, 72
1, 110376, Control_c, 0, 67, 45
1, 110385, Note_on_c, 0, 32, 51
1, 110386, Note_on_c, 0, 72, 59
1, 110387, Note_on_c, 0, 66, 43
1, 110388, Note_on_c, 0, 63, 58
1, 110390, Control_c, 0, 64, 74
1, 110405, Control_c, 0, 64, 75
1, 110420, Control_c, 0, 64, 76
1, 110424, Note_off_c, 0, 66, 64
1, 110425, Note_off_c, 0, 32, 58
1, 110435, Control_c, 0, 64, 76
1, 110436, Note_off_c, 0, 72, 60
1, 110441, Note_off_c, 0, 63, 57
1, 110448, Note_on_c, 0, 44, 58
1, 110450, Control_c, 0, 64, 77
1, 110464, Control_c, 0, 67, 46
1, 110479, Control_c, 0, 64, 77
1, 110479, Control_c, 0, 67, 46
1, 110494, Note_off_c, 0, 44, 59
1, 110501, Control_c, 0, 67, 47
1, 110516, Control_c, 0, 64, 79
1, 110516, Control_c, 0, 67, 47
1, 110525, Note_on_c, 0, 32, 57
1, 110531, Control_c, 0, 64, 80
1, 110546, Control_c, 0, 64, 82
1, 110561, Control_c, 0, 64, 84
1, 110561, Control_c, 0, 67, 48
1, 110561, Note_off_c, 0, 32, 61
1, 110576, Control_c, 0, 64, 85
1, 110576, Control_c, 0, 67, 48
1, 110579, Note_on_c, 0, 44, 60
1, 110590, Control_c, 0, 64, 85
1, 110590, Control_c, 0, 67, 49
1, 110605, Control_c, 0, 64, 78
1, 110620, Control_c, 0, 64, 67
1, 110626, Note_off_c, 0, 44, 57
1, 110635, Control_c, 0, 64, 46
1, 110650, Control_c, 0, 64, 0
1, 110650, Control_c, 0, 67, 48
1, 110660, Note_on_c, 0, 32, 61
1, 110665, Note_on_c, 0, 73, 74
1, 110665, Control_c, 0, 67, 47
1, 110674, Note_on_c, 0, 64, 56
1, 110679, Note_on_c, 0, 61, 62
1, 110679, Control_c, 0, 64, 25
1, 110694, Control_c, 0, 64, 54
1, 110694, Control_c, 0, 67, 46
1, 110709, Control_c, 0, 64, 64
1, 110709, Control_c, 0, 67, 46
1, 110723, Control_c, 0, 64, 69
1, 110723, Control_c, 0, 67, 45
1, 110733, Note_off_c, 0, 32, 58
1, 110735, Note_on_c, 0, 44, 57
1, 110738, Control_c, 0, 64, 74
1, 110738, Control_c, 0, 67, 45
1, 110753, Control_c, 0, 64, 78
1, 110769, Control_c, 0, 64, 82
1, 110769, Control_c, 0, 67, 44
1, 110784, Control_c, 0, 64, 87
1, 110799, Control_c, 0, 64, 92
1, 110799, Control_c, 0, 67, 43
1, 110805, Note_off_c, 0, 44, 54
1, 110808, Note_on_c, 0, 32, 49
1, 110813, Control_c, 0, 64, 95
1, 110813, Control_c, 0, 67, 43
1, 110816, Note_off_c, 0, 64, 60
1, 110828, Control_c, 0, 67, 42
1, 110837, Note_off_c, 0, 61, 58
1, 110839, Note_off_c, 0, 73, 57
1, 110843, Control_c, 0, 64, 92
1, 110858, Control_c, 0, 64, 86
1, 110858, Control_c, 0, 67, 42
1, 110861, Note_off_c, 0, 32, 59
1, 110873, Control_c, 0, 64, 81
1, 110873, Control_c, 0, 67, 40
1, 110878, Note_on_c, 0, 44, 59
1, 110887, Control_c, 0, 64, 77
1, 110887, Control_c, 0, 67, 35
1, 110902, Control_c, 0, 64, 77
1, 110902, Control_c, 0, 67, 27
1, 110917, Control_c, 0, 64, 77
1, 110917, Control_c, 0, 67, 17
1, 110928, Note_off_c, 0, 44, 54
1, 110932, Control_c, 0, 64, 78
1, 110932, Control_c, 0, 67, 0
1, 110943, Note_on_c, 0, 73, 78
1, 110945, Note_on_c, 0, 61, 75
1, 110947, Control_c, 0, 64, 81
1, 110949, Note_on_c, 0, 64, 64
1, 110952, Note_on_c, 0, 32, 65
1, 110961, Control_c, 0, 64, 83
1, 110976, Control_c, 0, 64, 85
1, 110977, Note_off_c, 0, 64, 66
1, 110984, Note_off_c, 0, 32, 64
1, 110991, Control_c, 0, 64, 86
1, 111006, Control_c, 0, 64, 87
1, 111008, Note_off_c, 0, 61, 61
1, 111012, Note_on_c, 0, 44, 63
1, 111020, Control_c, 0, 64, 88
1, 111035, Control_c, 0, 64, 89
1, 111047, Note_off_c, 0, 44, 61
1, 111050, Control_c, 0, 64, 92
1, 111054, Note_off_c, 0, 73, 35
1, 111065, Control_c, 0, 64, 95
1, 111079, Note_on_c, 0, 32, 55
1, 111080, Control_c, 0, 64, 98
1, 111094, Control_c, 0, 64, 101
1, 111109, Control_c, 0, 64, 105
1, 111115, Note_off_c, 0, 32, 58
1, 111119, Note_on_c, 0, 60, 64
1, 111124, Control_c, 0, 64, 109
1, 111136, Note_on_c, 0, 44, 68
1, 111139, Control_c, 0, 64, 113
1, 111154, Control_c, 0, 64, 114
1, 111166, Note_on_c, 0, 66, 76
1, 111169, Control_c, 0, 64, 113
1, 111175, Note_off_c, 0, 60, 63
1, 111184, Control_c, 0, 64, 104
1, 111199, Control_c, 0, 64, 86
1, 111213, Control_c, 0, 64, 68
1, 111214, Note_on_c, 0, 69, 34
1, 111217, Note_off_c, 0, 44, 53
1, 111228, Control_c, 0, 64, 0
1, 111258, Note_on_c, 0, 32, 61
1, 111288, Note_on_c, 0, 75, 88
1, 111294, Control_c, 0, 64, 31
1, 111309, Control_c, 0, 64, 50
1, 111312, Note_off_c, 0, 69, 38
1, 111324, Control_c, 0, 64, 58
1, 111334, Note_off_c, 0, 32, 57
1, 111339, Control_c, 0, 64, 63
1, 111348, Note_on_c, 0, 44, 59
1, 111354, Control_c, 0, 64, 66
1, 111369, Control_c, 0, 64, 71
1, 111383, Control_c, 0, 64, 75
1, 111398, Control_c, 0, 64, 79
1, 111413, Control_c, 0, 64, 81
1, 111425, Note_off_c, 0, 44, 52
1, 111428, Control_c, 0, 64, 83
1, 111442, Note_on_c, 0, 32, 56
1, 111443, Control_c, 0, 64, 84
1, 111457, Control_c, 0, 64, 83
1, 111457, Control_c, 0, 67, 8
1, 111472, Control_c, 0, 64, 79
1, 111472, Control_c, 0, 67, 10
1, 111477, Note_off_c, 0, 32, 62
1, 111487, Control_c, 0, 64, 72
1, 111487, Control_c, 0, 67, 10
1, 111500, Note_on_c, 0, 44, 54
1, 111501, Control_c, 0, 64, 65
1, 111501, Control_c, 0, 67, 11
1, 111516, Control_c, 0, 64, 63
1, 111516, Control_c, 0, 67, 11
1, 111531, Control_c, 0, 64, 66
1, 111541, Note_off_c, 0, 44, 61
1, 111545, Control_c, 0, 64, 70
1, 111545, Control_c, 0, 67, 12
1, 111560, Control_c, 0, 64, 75
1, 111560, Control_c, 0, 67, 13
1, 111567, Note_on_c, 0, 32, 55
1, 111577, Control_c, 0, 64, 79
1, 111577, Control_c, 0, 67, 14
1, 111591, Control_c, 0, 64, 80
1, 111591, Control_c, 0, 67, 16
1, 111601, Note_off_c, 0, 32, 62
1, 111606, Control_c, 0, 67, 17
1, 111621, Control_c, 0, 67, 18
1, 111629, Note_on_c, 0, 44, 59
1, 111635, Control_c, 0, 67, 20
1, 111650, Control_c, 0, 67, 22
1, 111664, Note_off_c, 0, 44, 61
1, 111665, Control_c, 0, 67, 25
1, 111680, Control_c, 0, 67, 29
1, 111688, Note_on_c, 0, 32, 54
1, 111695, Control_c, 0, 64, 78
1, 111695, Control_c, 0, 67, 34
1, 111709, Control_c, 0, 64, 71
1, 111709, Control_c, 0, 67, 39
1, 111722, Note_off_c, 0, 32, 61
1, 111724, Control_c, 0, 64, 61
1, 111724, Control_c, 0, 67, 42
1, 111739, Control_c, 0, 64, 43
1, 111739, Control_c, 0, 67, 44
1, 111749, Note_on_c, 0, 44, 59
1, 111754, Control_c, 0, 64, 33
1, 111754, Control_c, 0, 67, 45
1, 111768, Control_c, 0, 64, 46
1, 111783, Control_c, 0, 64, 60
1, 111783, Control_c, 0, 67, 45
1, 111792, Note_off_c, 0, 44, 61
1, 111798, Control_c, 0, 64, 68
1, 111798, Control_c, 0, 67, 46
1, 111813, Control_c, 0, 64, 75
1, 111813, Control_c, 0, 67, 49
1, 111824, Note_on_c, 0, 32, 66
1, 111828, Control_c, 0, 64, 78
1, 111828, Control_c, 0, 67, 53
1, 111843, Control_c, 0, 64, 74
1, 111843, Control_c, 0, 67, 57
1, 111857, Control_c, 0, 64, 66
1, 111857, Control_c, 0, 67, 62
1, 111872, Control_c, 0, 64, 57
1, 111872, Control_c, 0, 67, 65
1, 111880, Note_off_c, 0, 75, 62
1, 111881, Note_off_c, 0, 32, 60
1, 111887, Control_c, 0, 64, 54
1, 111887, Control_c, 0, 67, 66
1, 111890, Note_off_c, 0, 66, 60
1, 111896, Note_on_c, 0, 44, 59
1, 111902, Control_c, 0, 64, 60
1, 111917, Control_c, 0, 64, 65
1, 111932, Control_c, 0, 64, 71
1, 111947, Control_c, 0, 64, 74
1, 111947, Control_c, 0, 67, 66
1, 111950, Note_off_c, 0, 44, 54
1, 111961, Control_c, 0, 64, 76
1, 111961, Control_c, 0, 67, 67
1, 111976, Control_c, 0, 67, 67
1, 111993, Note_on_c, 0, 32, 55
1, 112013, Control_c, 0, 64, 73
1, 112028, Control_c, 0, 64, 66
1, 112030, Note_off_c, 0, 32, 61
1, 112042, Control_c, 0, 64, 52
1, 112057, Control_c, 0, 64, 18
1, 112072, Note_on_c, 0, 44, 49
1, 112072, Control_c, 0, 64, 0
1, 112087, Control_c, 0, 64, 32
1, 112102, Note_off_c, 0, 44, 54
1, 112102, Control_c, 0, 64, 54
1, 112115, Note_on_c, 0, 64, 61
1, 112117, Control_c, 0, 64, 64
1, 112120, Note_on_c, 0, 61, 58
1, 112132, Note_on_c, 0, 32, 56
1, 112132, Control_c, 0, 64, 68
1, 112147, Control_c, 0, 64, 72
1, 112161, Control_c, 0, 64, 72
1, 112169, Note_off_c, 0, 32, 61
1, 112176, Control_c, 0, 64, 73
1, 112189, Note_on_c, 0, 44, 52
1, 112206, Control_c, 0, 64, 73
1, 112221, Control_c, 0, 64, 74
1, 112221, Note_off_c, 0, 61, 57
1, 112232, Note_off_c, 0, 44, 60
1, 112236, Control_c, 0, 64, 74
1, 112255, Note_on_c, 0, 73, 65
1, 112264, Note_on_c, 0, 32, 54
1, 112265, Control_c, 0, 67, 68
1, 112269, Note_off_c, 0, 64, 64
1, 112280, Control_c, 0, 64, 75
1, 112295, Control_c, 0, 67, 68
1, 112302, Note_off_c, 0, 73, 60
1, 112302, Note_off_c, 0, 32, 62
1, 112310, Control_c, 0, 64, 74
1, 112324, Control_c, 0, 64, 69
1, 112324, Control_c, 0, 67, 69
1, 112330, Note_on_c, 0, 44, 51
1, 112339, Control_c, 0, 64, 57
1, 112339, Control_c, 0, 67, 70
1, 112354, Control_c, 0, 64, 0
1, 112354, Control_c, 0, 67, 72
1, 112370, Control_c, 0, 67, 72
1, 112373, Note_off_c, 0, 44, 59
1, 112408, Note_on_c, 0, 32, 54
1, 112412, Note_on_c, 0, 66, 59
1, 112414, Control_c, 0, 64, 35
1, 112417, Note_on_c, 0, 63, 53
1, 112429, Control_c, 0, 64, 52
1, 112444, Control_c, 0, 64, 59
1, 112459, Control_c, 0, 64, 62
1, 112466, Note_off_c, 0, 32, 58
1, 112473, Control_c, 0, 64, 65
1, 112486, Note_on_c, 0, 44, 50
1, 112488, Control_c, 0, 64, 67
1, 112503, Control_c, 0, 64, 69
1, 112518, Control_c, 0, 64, 71
1, 112533, Control_c, 0, 64, 72
1, 112544, Note_off_c, 0, 44, 55
1, 112547, Control_c, 0, 64, 73
1, 112547, Control_c, 0, 67, 73
1, 112568, Note_on_c, 0, 72, 55
1, 112577, Note_on_c, 0, 32, 54
1, 112577, Control_c, 0, 64, 70
1, 112588, Note_off_c, 0, 66, 60
1, 112591, Control_c, 0, 64, 63
1, 112591, Control_c, 0, 67, 73
1, 112593, Note_off_c, 0, 63, 48
1, 112606, Note_off_c, 0, 72, 61
1, 112606, Control_c, 0, 64, 48
1, 112621, Note_off_c, 0, 32, 59
1, 112621, Control_c, 0, 64, 31
1, 112621, Control_c, 0, 67, 73
1, 112636, Control_c, 0, 64, 40
1, 112651, Note_on_c, 0, 44, 48
1, 112651, Control_c, 0, 64, 57
1, 112665, Control_c, 0, 64, 64
1, 112680, Control_c, 0, 64, 69
1, 112680, Control_c, 0, 67, 73
1, 112692, Note_off_c, 0, 44, 58
1, 112695, Control_c, 0, 64, 71
1, 112710, Control_c, 0, 64, 68
1, 112713, Note_on_c, 0, 63, 57
1, 112716, Note_on_c, 0, 66, 55
1, 112719, Note_on_c, 0, 32, 55
1, 112725, Control_c, 0, 64, 64
1, 112747, Control_c, 0, 64, 61
1, 112762, Control_c, 0, 64, 63
1, 112768, Note_off_c, 0, 32, 60
1, 112777, Control_c, 0, 64, 67
1, 112777, Control_c, 0, 67, 73
1, 112791, Control_c, 0, 64, 71
1, 112793, Note_on_c, 0, 44, 53
1, 112806, Control_c, 0, 64, 73
1, 112821, Control_c, 0, 64, 72
1, 112836, Control_c, 0, 64, 72
1, 112839, Note_off_c, 0, 44, 56
1, 112853, Note_on_c, 0, 72, 66
1, 112856, Note_off_c, 0, 66, 62
1, 112865, Note_on_c, 0, 32, 58
1, 112865, Control_c, 0, 64, 72
1, 112880, Note_off_c, 0, 63, 60
1, 112880, Control_c, 0, 64, 73
1, 112880, Control_c, 0, 67, 72
1, 112889, Note_off_c, 0, 72, 59
1, 112895, Control_c, 0, 64, 73
1, 112895, Control_c, 0, 67, 72
1, 112907, Note_off_c, 0, 32, 59
1, 112910, Control_c, 0, 64, 69
1, 112925, Control_c, 0, 64, 62
1, 112925, Control_c, 0, 67, 71
1, 112930, Note_on_c, 0, 44, 54
1, 112939, Control_c, 0, 64, 44
1, 112939, Control_c, 0, 67, 69
1, 112954, Control_c, 0, 64, 34
1, 112954, Control_c, 0, 67, 68
1, 112969, Control_c, 0, 64, 46
1, 112969, Control_c, 0, 67, 67
1, 112978, Note_off_c, 0, 44, 57
1, 112984, Control_c, 0, 64, 59
1, 112984, Control_c, 0, 67, 66
1, 112999, Control_c, 0, 64, 66
1, 113004, Note_on_c, 0, 32, 62
1, 113007, Note_on_c, 0, 61, 66
1, 113008, Note_on_c, 0, 64, 70
1, 113014, Control_c, 0, 64, 71
1, 113014, Control_c, 0, 67, 66
1, 113029, Control_c, 0, 64, 76
1, 113044, Control_c, 0, 64, 79
1, 113044, Control_c, 0, 67, 66
1, 113059, Control_c, 0, 64, 81
1, 113059, Control_c, 0, 67, 67
1, 113068, Note_off_c, 0, 32, 58
1, 113070, Note_on_c, 0, 44, 62
1, 113073, Control_c, 0, 67, 68
1, 113088, Control_c, 0, 64, 80
1, 113088, Control_c, 0, 67, 68
1, 113103, Control_c, 0, 64, 77
1, 113117, Control_c, 0, 64, 72
1, 113117, Control_c, 0, 67, 67
1, 113130, Note_off_c, 0, 44, 55
1, 113132, Control_c, 0, 64, 64
1, 113132, Control_c, 0, 67, 65
1, 113141, Note_on_c, 0, 73, 77
1, 113147, Control_c, 0, 64, 59
1, 113147, Control_c, 0, 67, 63
1, 113160, Note_on_c, 0, 32, 61
1, 113163, Note_off_c, 0, 61, 52
1, 113163, Control_c, 0, 64, 60
1, 113163, Control_c, 0, 67, 58
1, 113173, Note_off_c, 0, 64, 61
1, 113178, Control_c, 0, 64, 64
1, 113178, Control_c, 0, 67, 55
1, 113193, Control_c, 0, 64, 70
1, 113193, Control_c, 0, 67, 54
1, 113203, Note_off_c, 0, 32, 59
1, 113208, Control_c, 0, 64, 77
1, 113222, Control_c, 0, 64, 83
1, 113224, Note_on_c, 0, 44, 67
1, 113232, Note_off_c, 0, 73, 60
1, 113237, Control_c, 0, 64, 83
1, 113252, Control_c, 0, 64, 78
1, 113252, Control_c, 0, 67, 53
1, 113264, Note_off_c, 0, 44, 61
1, 113267, Control_c, 0, 64, 69
1, 113267, Control_c, 0, 67, 53
1, 113281, Control_c, 0, 64, 60
1, 113288, Note_on_c, 0, 64, 73
1, 113292, Note_on_c, 0, 61, 71
1, 113294, Note_on_c, 0, 32, 68
1, 113296, Control_c, 0, 64, 53
1, 113296, Control_c, 0, 67, 52
1, 113311, Control_c, 0, 64, 57
1, 113311, Control_c, 0, 67, 52
1, 113326, Control_c, 0, 64, 64
1, 113333, Note_off_c, 0, 32, 61
1, 113341, Control_c, 0, 64, 69
1, 113356, Control_c, 0, 64, 73
1, 113357, Note_on_c, 0, 44, 61
1, 113370, Control_c, 0, 64, 77
1, 113370, Control_c, 0, 67, 51
1, 113385, Control_c, 0, 64, 79
1, 113385, Control_c, 0, 67, 49
1, 113394, Note_off_c, 0, 44, 61
1, 113400, Control_c, 0, 64, 80
1, 113400, Control_c, 0, 67, 46
1, 113414, Control_c, 0, 64, 83
1, 113414, Control_c, 0, 67, 44
1, 113419, Note_on_c, 0, 32, 68
1, 113422, Note_off_c, 0, 61, 55
1, 113425, Note_on_c, 0, 73, 79
1, 113429, Control_c, 0, 64, 83
1, 113429, Control_c, 0, 67, 43
1, 113437, Note_off_c, 0, 64, 64
1, 113444, Control_c, 0, 64, 81
1, 113444, Control_c, 0, 67, 39
1, 113458, Note_off_c, 0, 32, 59
1, 113459, Control_c, 0, 64, 73
1, 113459, Control_c, 0, 67, 32
1, 113474, Note_on_c, 0, 44, 61
1, 113474, Control_c, 0, 64, 63
1, 113474, Control_c, 0, 67, 25
1, 113496, Control_c, 0, 64, 47
1, 113496, Control_c, 0, 67, 17
1, 113498, Note_off_c, 0, 73, 60
1, 113511, Control_c, 0, 64, 41
1, 113511, Control_c, 0, 67, 13
1, 113526, Control_c, 0, 64, 57
1, 113526, Control_c, 0, 67, 12
1, 113539, Note_off_c, 0, 44, 59
1, 113540, Control_c, 0, 64, 67
1, 113540, Control_c, 0, 67, 14
1, 113555, Control_c, 0, 64, 77
1, 113555, Control_c, 0, 67, 15
1, 113570, Note_on_c, 0, 32, 74
1, 113570, Control_c, 0, 64, 89
1, 113570, Control_c, 0, 67, 16
1, 113577, Note_on_c, 0, 66, 80
1, 113583, Note_on_c, 0, 60, 72
1, 113585, Control_c, 0, 64, 93
1, 113585, Control_c, 0, 67, 17
1, 113600, Control_c, 0, 64, 87
1, 113600, Control_c, 0, 67, 18
1, 113614, Control_c, 0, 64, 73
1, 113614, Control_c, 0, 67, 19
1, 113624, Note_off_c, 0, 60, 60
1, 113629, Control_c, 0, 64, 60
1, 113629, Control_c, 0, 67, 20
1, 113640, Note_off_c, 0, 32, 59
1, 113640, Note_on_c, 0, 44, 66
1, 113644, Control_c, 0, 64, 52
1, 113659, Control_c, 0, 64, 58
1, 113674, Control_c, 0, 64, 66
1, 113674, Control_c, 0, 67, 20
1, 113688, Control_c, 0, 64, 76
1, 113696, Note_off_c, 0, 44, 59
1, 113704, Control_c, 0, 64, 89
1, 113704, Control_c, 0, 67, 21
1, 113719, Control_c, 0, 64, 92
1, 113719, Control_c, 0, 67, 22
1, 113729, Note_on_c, 0, 32, 66
1, 113730, Note_on_c, 0, 75, 78
1, 113734, Control_c, 0, 64, 83
1, 113747, Note_off_c, 0, 66, 62
1, 113748, Control_c, 0, 64, 69
1, 113763, Control_c, 0, 64, 42
1, 113763, Control_c, 0, 67, 20
1, 113764, Note_off_c, 0, 32, 63
1, 113778, Control_c, 0, 64, 0
1, 113778, Control_c, 0, 67, 16
1, 113782, Note_on_c, 0, 44, 66
1, 113793, Control_c, 0, 67, 8
1, 113800, Note_off_c, 0, 75, 60
1, 113807, Control_c, 0, 64, 32
1, 113807, Control_c, 0, 67, 0
1, 113820, Note_off_c, 0, 44, 60
1, 113822, Control_c, 0, 64, 57
1, 113837, Control_c, 0, 64, 65
1, 113852, Note_on_c, 0, 32, 65
1, 113852, Control_c, 0, 64, 70
1, 113867, Control_c, 0, 64, 74
1, 113871, Note_on_c, 0, 66, 80
1, 113881, Note_on_c, 0, 60, 73
1, 113882, Control_c, 0, 64, 75
1, 113884, Note_off_c, 0, 32, 62
1, 113900, Note_on_c, 0, 44, 63
1, 113920, Note_off_c, 0, 60, 55
1, 113939, Note_off_c, 0, 44, 62
1, 113941, Control_c, 0, 64, 75
1, 113956, Control_c, 0, 64, 76
1, 113965, Note_on_c, 0, 32, 61
1, 113971, Control_c, 0, 64, 76
1, 114004, Note_on_c, 0, 75, 72
1, 114021, Note_on_c, 0, 44, 69
1, 114021, Note_off_c, 0, 66, 64
1, 114031, Note_off_c, 0, 75, 66
1, 114049, Note_off_c, 0, 32, 53
1, 114060, Control_c, 0, 64, 77
1, 114105, Control_c, 0, 64, 72
1, 114113, Note_off_c, 0, 44, 52
1, 114120, Control_c, 0, 64, 60
1, 114135, Control_c, 0, 64, 0
1, 114163, Note_on_c, 0, 64, 71
1, 114167, Note_on_c, 0, 33, 64
1, 114176, Note_on_c, 0, 61, 67
1, 114194, Control_c, 0, 64, 29
1, 114209, Control_c, 0, 64, 53
1, 114209, Control_c, 0, 67, 11
1, 114224, Control_c, 0, 64, 57
1, 114224, Control_c, 0, 67, 17
1, 114245, Control_c, 0, 64, 52
1, 114245, Control_c, 0, 67, 23
1, 114258, Note_off_c, 0, 33, 57
1, 114260, Control_c, 0, 64, 37
1, 114260, Control_c, 0, 67, 28
1, 114272, Note_on_c, 0, 45, 62
1, 114275, Control_c, 0, 64, 0
1, 114275, Control_c, 0, 67, 32
1, 114290, Control_c, 0, 67, 37
1, 114305, Control_c, 0, 67, 42
1, 114320, Control_c, 0, 67, 48
1, 114324, Note_off_c, 0, 45, 60
1, 114335, Control_c, 0, 67, 52
1, 114349, Control_c, 0, 67, 56
1, 114364, Control_c, 0, 64, 47
1, 114364, Control_c, 0, 67, 58
1, 114369, Note_on_c, 0, 73, 61
1, 114372, Note_off_c, 0, 61, 58
1, 114375, Note_on_c, 0, 33, 54
1, 114379, Control_c, 0, 64, 58
1, 114380, Note_off_c, 0, 64, 60
1, 114394, Control_c, 0, 64, 55
1, 114409, Control_c, 0, 64, 0
1, 114410, Note_off_c, 0, 33, 61
1, 114436, Note_on_c, 0, 45, 60
1, 114439, Note_off_c, 0, 73, 55
1, 114453, Control_c, 0, 67, 56
1, 114468, Control_c, 0, 67, 50
1, 114472, Note_off_c, 0, 45, 63
1, 114483, Control_c, 0, 67, 33
1, 114498, Control_c, 0, 67, 0
1, 114508, Note_on_c, 0, 33, 54
1, 114511, Note_on_c, 0, 64, 63
1, 114516, Note_on_c, 0, 61, 58
1, 114542, Control_c, 0, 64, 49
1, 114546, Note_off_c, 0, 33, 59
1, 114556, Control_c, 0, 64, 65
1, 114571, Control_c, 0, 64, 72
1, 114576, Note_on_c, 0, 45, 43
1, 114586, Control_c, 0, 64, 78
1, 114601, Control_c, 0, 64, 80
1, 114607, Note_off_c, 0, 45, 57
1, 114611, Note_off_c, 0, 61, 56
1, 114616, Control_c, 0, 64, 81
1, 114630, Control_c, 0, 67, 11
1, 114638, Note_on_c, 0, 33, 58
1, 114643, Note_off_c, 0, 64, 65
1, 114645, Note_on_c, 0, 73, 64
1, 114645, Control_c, 0, 67, 15
1, 114660, Control_c, 0, 67, 20
1, 114674, Note_off_c, 0, 73, 65
1, 114675, Control_c, 0, 67, 24
1, 114690, Control_c, 0, 67, 27
1, 114695, Note_on_c, 0, 45, 59
1, 114704, Control_c, 0, 67, 28
1, 114719, Control_c, 0, 67, 32
1, 114725, Note_off_c, 0, 33, 58
1, 114728, Note_off_c, 0, 45, 65
1, 114734, Control_c, 0, 67, 36
1, 114749, Control_c, 0, 67, 42
1, 114765, Control_c, 0, 67, 46
1, 114779, Control_c, 0, 64, 80
1, 114779, Control_c, 0, 67, 48
1, 114794, Control_c, 0, 64, 79
1, 114794, Control_c, 0, 67, 48
1, 114809, Control_c, 0, 64, 78
1, 114809, Control_c, 0, 67, 49
1, 114824, Control_c, 0, 64, 76
1, 114824, Control_c, 0, 67, 50
1, 114839, Control_c, 0, 64, 75
1, 114839, Control_c, 0, 67, 52
1, 114854, Control_c, 0, 64, 72
1, 114854, Control_c, 0, 67, 54
1, 114868, Control_c, 0, 64, 67
1, 114868, Control_c, 0, 67, 55
1, 114883, Control_c, 0, 64, 56
1, 114886, Note_on_c, 0, 69, 57
1, 114898, Control_c, 0, 64, 0
1, 114909, Note_on_c, 0, 42, 45
1, 114912, Note_on_c, 0, 30, 41
1, 114914, Note_on_c, 0, 63, 45
1, 114919, Note_on_c, 0, 61, 41
1, 114923, Note_on_c, 0, 57, 43
1, 114943, Control_c, 0, 67, 56
1, 114958, Control_c, 0, 67, 56
1, 114972, Control_c, 0, 67, 57
1, 114994, Control_c, 0, 67, 58
1, 115009, Control_c, 0, 67, 58
1, 115024, Control_c, 0, 67, 59
1, 115217, Control_c, 0, 67, 59
1, 115232, Control_c, 0, 64, 30
1, 115232, Control_c, 0, 67, 57
1, 115247, Control_c, 0, 64, 40
1, 115247, Control_c, 0, 67, 55
1, 115261, Control_c, 0, 64, 45
1, 115261, Control_c, 0, 67, 51
1, 115276, Control_c, 0, 64, 50
1, 115276, Control_c, 0, 67, 43
1, 115291, Control_c, 0, 64, 54
1, 115291, Control_c, 0, 67, 25
1, 115306, Control_c, 0, 64, 57
1, 115306, Control_c, 0, 67, 0
1, 115320, Control_c, 0, 64, 60
1, 115335, Control_c, 0, 64, 63
1, 115350, Control_c, 0, 64, 64
1, 115365, Control_c, 0, 64, 67
1, 115380, Control_c, 0, 64, 69
1, 115394, Control_c, 0, 64, 71
1, 115409, Control_c, 0, 64, 73
1, 115424, Control_c, 0, 64, 75
1, 115439, Control_c, 0, 64, 77
1, 115454, Control_c, 0, 64, 79
1, 115468, Control_c, 0, 64, 80
1, 115483, Control_c, 0, 64, 81
1, 115483, Control_c, 0, 67, 9
1, 115498, Control_c, 0, 64, 83
1, 115498, Control_c, 0, 67, 11
1, 115512, Control_c, 0, 64, 84
1, 115512, Control_c, 0, 67, 14
1, 115527, Control_c, 0, 64, 86
1, 115527, Control_c, 0, 67, 17
1, 115542, Control_c, 0, 64, 87
1, 115542, Control_c, 0, 67, 21
1, 115558, Control_c, 0, 64, 88
1, 115558, Control_c, 0, 67, 27
1, 115563, Note_off_c, 0, 57, 50
1, 115572, Note_off_c, 0, 69, 35
1, 115573, Control_c, 0, 64, 90
1, 115573, Control_c, 0, 67, 35
1, 115588, Control_c, 0, 64, 91
1, 115588, Control_c, 0, 67, 43
1, 115602, Control_c, 0, 64, 92
1, 115602, Control_c, 0, 67, 52
1, 115617, Control_c, 0, 64, 94
1, 115617, Control_c, 0, 67, 61
1, 115632, Control_c, 0, 64, 96
1, 115632, Control_c, 0, 67, 71
1, 115647, Control_c, 0, 64, 98
1, 115647, Control_c, 0, 67, 82
1, 115662, Control_c, 0, 64, 99
1, 115662, Control_c, 0, 67, 98
1, 115665, Note_off_c, 0, 63, 61
1, 115669, Note_off_c, 0, 61, 40
1, 115676, Control_c, 0, 64, 101
1, 115676, Control_c, 0, 67, 112
1, 115691, Control_c, 0, 64, 102
1, 115691, Control_c, 0, 67, 125
1, 115706, Control_c, 0, 64, 104
1, 115706, Control_c, 0, 67, 127
1, 115721, Control_c, 0, 64, 106
1, 115744, Control_c, 0, 64, 108
1, 115759, Control_c, 0, 64, 110
1, 115773, Control_c, 0, 64, 111
1, 115785, Note_off_c, 0, 30, 39
1, 115788, Control_c, 0, 64, 113
1, 115803, Control_c, 0, 64, 115
1, 115807, Note_off_c, 0, 42, 42
1, 115817, Control_c, 0, 64, 117
1, 115832, Control_c, 0, 64, 119
1, 115847, Control_c, 0, 64, 121
1, 115862, Control_c, 0, 64, 122
1, 115891, Control_c, 0, 64, 123
1, 116521, Control_c, 0, 64, 121
1, 116536, Control_c, 0, 64, 116
1, 116551, Control_c, 0, 64, 111
1, 116565, Control_c, 0, 64, 104
1, 116580, Control_c, 0, 64, 100
1, 116595, Control_c, 0, 64, 95
1, 116610, Control_c, 0, 64, 90
1, 116614, Note_on_c, 0, 68, 42
1, 116625, Control_c, 0, 64, 83
1, 116630, Note_on_c, 0, 44, 35
1, 116639, Control_c, 0, 64, 75
1, 116647, Note_on_c, 0, 60, 29
1, 116650, Note_on_c, 0, 56, 20
1, 116651, Note_on_c, 0, 32, 24
1, 116654, Control_c, 0, 64, 66
1, 116657, Note_on_c, 0, 63, 22
1, 116669, Control_c, 0, 64, 58
1, 116684, Control_c, 0, 64, 45
1, 116700, Control_c, 0, 64, 37
1, 116714, Control_c, 0, 64, 32
1, 116729, Control_c, 0, 64, 17
1, 116744, Control_c, 0, 64, 0
1, 117114, Control_c, 0, 64, 31
1, 117129, Control_c, 0, 64, 49
1, 117144, Control_c, 0, 64, 54
1, 117189, Control_c, 0, 64, 56
1, 117204, Control_c, 0, 64, 59
1, 117219, Control_c, 0, 64, 63
1, 117241, Control_c, 0, 64, 66
1, 117256, Control_c, 0, 64, 67
1, 117271, Control_c, 0, 64, 68
1, 117286, Control_c, 0, 64, 69
1, 117301, Control_c, 0, 64, 71
1, 117315, Control_c, 0, 64, 74
1, 117330, Control_c, 0, 64, 77
1, 117345, Control_c, 0, 64, 80
1, 117360, Control_c, 0, 64, 81
1, 117375, Control_c, 0, 64, 82
1, 117389, Control_c, 0, 64, 83
1, 117404, Control_c, 0, 64, 85
1, 117419, Control_c, 0, 64, 88
1, 117434, Control_c, 0, 64, 90
1, 117449, Control_c, 0, 64, 92
1, 117463, Control_c, 0, 64, 94
1, 117478, Control_c, 0, 64, 96
1, 117493, Control_c, 0, 64, 99
1, 117508, Control_c, 0, 64, 102
1, 117523, Control_c, 0, 64, 105
1, 117537, Control_c, 0, 64, 109
1, 117552, Control_c, 0, 64, 114
1, 117567, Control_c, 0, 64, 121
1, 117581, Control_c, 0, 64, 127
1, 117647, Note_off_c, 0, 68, 38
1, 117659, Note_off_c, 0, 56, 42
1, 117731, Note_off_c, 0, 60, 42
1, 117745, Note_off_c, 0, 63, 43
1, 117807, Note_off_c, 0, 32, 40
1, 117811, Note_off_c, 0, 44, 39
1, 118108, Control_c, 0, 67, 117
1, 118123, Control_c, 0, 67, 85
1, 118138, Control_c, 0, 67, 41
1, 118153, Control_c, 0, 67, 0
1, 118183, Control_c, 0, 64, 88
1, 118185, Note_on_c, 0, 37, 77
1, 118198, Control_c, 0, 64, 64
1, 118209, Note_off_c, 0, 37, 63
1, 118212, Control_c, 0, 64, 0
1, 118276, Note_on_c, 0, 44, 58
1, 118286, Control_c, 0, 67, 8
1, 118316, Control_c, 0, 67, 9
1, 118331, Control_c, 0, 67, 9
1, 118343, Note_on_c, 0, 49, 59
1, 118345, Control_c, 0, 67, 10
1, 118352, Note_off_c, 0, 44, 61
1, 118360, Control_c, 0, 67, 11
1, 118375, Control_c, 0, 67, 12
1, 118389, Note_off_c, 0, 49, 60
1, 118390, Control_c, 0, 67, 13
1, 118395, Note_on_c, 0, 52, 52
1, 118405, Control_c, 0, 67, 15
1, 118419, Control_c, 0, 67, 17
1, 118434, Control_c, 0, 67, 21
1, 118444, Note_off_c, 0, 52, 64
1, 118449, Control_c, 0, 67, 25
1, 118451, Note_on_c, 0, 56, 60
1, 118464, Control_c, 0, 67, 28
1, 118472, Note_on_c, 0, 37, 47
1, 118478, Control_c, 0, 67, 32
1, 118493, Control_c, 0, 67, 37
1, 118499, Note_off_c, 0, 37, 54
1, 118507, Note_off_c, 0, 56, 61
1, 118508, Note_on_c, 0, 49, 47
1, 118508, Control_c, 0, 67, 42
1, 118523, Control_c, 0, 67, 48
1, 118538, Control_c, 0, 67, 56
1, 118553, Control_c, 0, 67, 66
1, 118567, Note_off_c, 0, 49, 58
1, 118567, Control_c, 0, 67, 74
1, 118570, Note_on_c, 0, 44, 60
1, 118576, Note_on_c, 0, 52, 56
1, 118582, Control_c, 0, 67, 81
1, 118597, Control_c, 0, 67, 84
1, 118603, Note_off_c, 0, 44, 62
1, 118625, Note_off_c, 0, 52, 61
1, 118638, Note_on_c, 0, 56, 60
1, 118672, Control_c, 0, 67, 85
1, 118690, Note_on_c, 0, 61, 61
1, 118691, Note_off_c, 0, 56, 58
1, 118707, Note_on_c, 0, 37, 60
1, 118716, Control_c, 0, 67, 85
1, 118740, Note_off_c, 0, 61, 63
1, 118746, Note_off_c, 0, 37, 63
1, 118752, Control_c, 0, 67, 86
1, 118767, Note_on_c, 0, 52, 49
1, 118768, Control_c, 0, 67, 88
1, 118783, Control_c, 0, 67, 91
1, 118798, Control_c, 0, 67, 96
1, 118812, Note_off_c, 0, 52, 59
1, 118813, Control_c, 0, 67, 100
1, 118824, Note_on_c, 0, 44, 66
1, 118826, Note_on_c, 0, 56, 56
1, 118828, Control_c, 0, 67, 101
1, 118842, Control_c, 0, 67, 102
1, 118851, Note_off_c, 0, 44, 63
1, 118875, Note_on_c, 0, 61, 55
1, 118895, Note_off_c, 0, 56, 62
1, 118932, Note_on_c, 0, 64, 51
1, 118939, Note_off_c, 0, 61, 61
1, 118954, Note_on_c, 0, 37, 62
1, 118976, Note_off_c, 0, 64, 63
1, 118981, Note_off_c, 0, 37, 60
1, 119015, Note_on_c, 0, 56, 54
1, 119060, Note_off_c, 0, 56, 58
1, 119068, Note_on_c, 0, 61, 60
1, 119074, Note_on_c, 0, 44, 57
1, 119101, Note_off_c, 0, 44, 57
1, 119143, Note_on_c, 0, 64, 57
1, 119143, Note_off_c, 0, 61, 59
1, 119181, Note_off_c, 0, 64, 65
1, 119193, Note_on_c, 0, 37, 65
1, 119195, Note_on_c, 0, 68, 62
1, 119225, Note_off_c, 0, 37, 64
1, 119237, Note_off_c, 0, 68, 61
1, 119260, Note_on_c, 0, 61, 55
1, 119298, Note_off_c, 0, 61, 62
1, 119301, Note_on_c, 0, 44, 69
1, 119301, Note_on_c, 0, 64, 59
1, 119329, Note_off_c, 0, 44, 64
1, 119331, Control_c, 0, 67, 101
1, 119369, Note_on_c, 0, 68, 64
1, 119370, Note_off_c, 0, 64, 57
1, 119390, Control_c, 0, 67, 101
1, 119419, Note_on_c, 0, 73, 66
1, 119429, Note_on_c, 0, 37, 70
1, 119435, Control_c, 0, 67, 100
1, 119437, Note_off_c, 0, 68, 64
1, 119459, Note_off_c, 0, 37, 63
1, 119481, Note_off_c, 0, 73, 59
1, 119509, Note_on_c, 0, 64, 54
1, 119554, Note_on_c, 0, 44, 72
1, 119558, Note_off_c, 0, 64, 59
1, 119578, Note_on_c, 0, 68, 55
1, 119583, Note_off_c, 0, 44, 62
1, 119606, Control_c, 0, 67, 100
1, 119627, Note_on_c, 0, 73, 63
1, 119636, Control_c, 0, 67, 99
1, 119643, Note_off_c, 0, 68, 65
1, 119651, Control_c, 0, 67, 98
1, 119665, Control_c, 0, 67, 98
1, 119673, Note_on_c, 0, 76, 63
1, 119680, Control_c, 0, 67, 97
1, 119685, Note_on_c, 0, 37, 73
1, 119688, Note_off_c, 0, 73, 58
1, 119695, Control_c, 0, 67, 97
1, 119710, Control_c, 0, 67, 96
1, 119725, Control_c, 0, 67, 95
1, 119727, Note_off_c, 0, 37, 59
1, 119728, Note_off_c, 0, 76, 60
1, 119739, Control_c, 0, 67, 94
1, 119748, Note_on_c, 0, 68, 55
1, 119754, Control_c, 0, 67, 93
1, 119790, Note_on_c, 0, 44, 78
1, 119805, Note_on_c, 0, 73, 74
1, 119813, Control_c, 0, 67, 94
1, 119828, Control_c, 0, 67, 95
1, 119832, Note_off_c, 0, 44, 61
1, 119843, Control_c, 0, 67, 95
1, 119848, Note_off_c, 0, 68, 64
1, 119853, Note_on_c, 0, 76, 72
1, 119858, Control_c, 0, 67, 96
1, 119869, Note_off_c, 0, 73, 64
1, 119882, Note_off_c, 0, 76, 65
1, 119888, Control_c, 0, 67, 93
1, 119903, Control_c, 0, 67, 79
1, 119918, Control_c, 0, 64, 22
1, 119918, Control_c, 0, 67, 33
1, 119918, Note_on_c, 0, 68, 95
1, 119918, Note_on_c, 0, 80, 94
1, 119920, Note_on_c, 0, 73, 84
1, 119923, Note_on_c, 0, 49, 93
1, 119924, Note_on_c, 0, 76, 92
1, 119924, Note_on_c, 0, 37, 91
1, 119932, Control_c, 0, 64, 67
1, 119932, Control_c, 0, 67, 0
1, 119947, Control_c, 0, 64, 79
1, 119949, Note_off_c, 0, 49, 66
1, 119962, Control_c, 0, 64, 94
1, 119968, Note_off_c, 0, 37, 57
1, 119975, Note_off_c, 0, 68, 60
1, 119976, Control_c, 0, 64, 109
1, 119988, Note_off_c, 0, 76, 55
1, 119990, Note_off_c, 0, 80, 59
1, 119991, Control_c, 0, 64, 127
1, 119992, Note_off_c, 0, 73, 61
1, 120054, Note_on_c, 0, 80, 66
1, 120055, Note_on_c, 0, 73, 76
1, 120056, Note_on_c, 0, 44, 77
1, 120062, Note_on_c, 0, 68, 74
1, 120071, Note_off_c, 0, 80, 69
1, 120084, Note_off_c, 0, 44, 63
1, 120089, Note_off_c, 0, 73, 63
1, 120094, Control_c, 0, 64, 118
1, 120094, Control_c, 0, 67, 9
1, 120097, Note_off_c, 0, 68, 66
1, 120109, Control_c, 0, 64, 97
1, 120109, Control_c, 0, 67, 13
1, 120124, Control_c, 0, 64, 80
1, 120124, Control_c, 0, 67, 21
1, 120139, Control_c, 0, 64, 64
1, 120139, Control_c, 0, 67, 31
1, 120154, Control_c, 0, 64, 24
1, 120154, Control_c, 0, 67, 38
1, 120168, Control_c, 0, 64, 0
1, 120168, Control_c, 0, 67, 43
1, 120183, Control_c, 0, 67, 49
1, 120198, Control_c, 0, 67, 57
1, 120213, Control_c, 0, 67, 67
1, 120218, Note_on_c, 0, 36, 76
1, 120236, Control_c, 0, 67, 80
1, 120250, Control_c, 0, 67, 94
1, 120259, Note_off_c, 0, 36, 63
1, 120265, Control_c, 0, 67, 104
1, 120275, Note_on_c, 0, 44, 67
1, 120280, Control_c, 0, 67, 112
1, 120295, Control_c, 0, 67, 117
1, 120309, Control_c, 0, 67, 121
1, 120324, Control_c, 0, 67, 123
1, 120339, Control_c, 0, 67, 124
1, 120353, Note_on_c, 0, 48, 55
1, 120355, Control_c, 0, 67, 126
1, 120370, Control_c, 0, 67, 127
1, 120381, Note_off_c, 0, 44, 62
1, 120416, Note_off_c, 0, 48, 62
1, 120427, Note_on_c, 0, 51, 61
1, 120481, Note_on_c, 0, 56, 59
1, 120484, Note_off_c, 0, 51, 60
1, 120498, Note_on_c, 0, 36, 59
1, 120517, Note_off_c, 0, 56, 64
1, 120532, Note_off_c, 0, 36, 61
1, 120551, Note_on_c, 0, 48, 57
1, 120597, Note_off_c, 0, 48, 60
1, 120610, Note_on_c, 0, 51, 58
1, 120614, Note_on_c, 0, 44, 63
1, 120646, Note_off_c, 0, 44, 62
1, 120670, Note_on_c, 0, 56, 60
1, 120677, Note_off_c, 0, 51, 61
1, 120721, Note_off_c, 0, 56, 58
1, 120727, Note_on_c, 0, 60, 60
1, 120734, Note_on_c, 0, 36, 64
1, 120770, Note_off_c, 0, 36, 60
1, 120776, Note_off_c, 0, 60, 57
1, 120799, Note_on_c, 0, 51, 57
1, 120851, Note_on_c, 0, 56, 54
1, 120861, Note_on_c, 0, 44, 63
1, 120864, Note_off_c, 0, 51, 56
1, 120892, Note_off_c, 0, 44, 63
1, 120907, Note_on_c, 0, 60, 54
1, 120931, Note_off_c, 0, 56, 62
1, 120975, Note_off_c, 0, 60, 63
1, 120991, Note_on_c, 0, 63, 61
1, 120998, Note_on_c, 0, 36, 59
1, 121039, Note_off_c, 0, 36, 59
1, 121042, Note_off_c, 0, 63, 60
1, 121047, Note_on_c, 0, 56, 48
1, 121094, Note_on_c, 0, 60, 66
1, 121098, Note_off_c, 0, 56, 58
1, 121122, Note_on_c, 0, 44, 72
1, 121155, Note_off_c, 0, 44, 62
1, 121170, Note_on_c, 0, 63, 61
1, 121181, Note_off_c, 0, 60, 61
1, 121221, Note_on_c, 0, 68, 61
1, 121230, Note_off_c, 0, 63, 62
1, 121254, Note_on_c, 0, 36, 64
1, 121260, Note_off_c, 0, 68, 62
1, 121289, Note_off_c, 0, 36, 59
1, 121303, Note_on_c, 0, 60, 54
1, 121349, Note_off_c, 0, 60, 62
1, 121355, Note_on_c, 0, 63, 65
1, 121375, Note_on_c, 0, 44, 69
1, 121405, Note_off_c, 0, 44, 63
1, 121426, Note_off_c, 0, 63, 62
1, 121487, Note_on_c, 0, 72, 56
1, 121491, Note_on_c, 0, 36, 69
1, 121531, Note_off_c, 0, 36, 63
1, 121555, Note_on_c, 0, 63, 52
1, 121556, Note_off_c, 0, 72, 63
1, 121614, Note_on_c, 0, 44, 68
1, 121615, Note_on_c, 0, 68, 60
1, 121633, Note_off_c, 0, 63, 45
1, 121646, Note_off_c, 0, 44, 61
1, 121675, Note_on_c, 0, 72, 63
1, 121700, Note_off_c, 0, 68, 63
1, 121734, Note_off_c, 0, 72, 64
1, 121748, Note_on_c, 0, 36, 70
1, 121753, Note_on_c, 0, 75, 64
1, 121777, Control_c, 0, 67, 126
1, 121792, Control_c, 0, 67, 124
1, 121793, Note_on_c, 0, 68, 61
1, 121799, Note_off_c, 0, 75, 62
1, 121807, Control_c, 0, 67, 122
1, 121810, Note_off_c, 0, 36, 57
1, 121822, Control_c, 0, 67, 120
1, 121836, Control_c, 0, 67, 118
1, 121851, Control_c, 0, 67, 118
1, 121855, Note_on_c, 0, 44, 80
1, 121867, Note_on_c, 0, 72, 69
1, 121888, Note_off_c, 0, 44, 60
1, 121895, Control_c, 0, 67, 119
1, 121910, Control_c, 0, 67, 120
1, 121912, Note_on_c, 0, 75, 74
1, 121912, Note_off_c, 0, 68, 59
1, 121925, Control_c, 0, 67, 120
1, 121939, Note_off_c, 0, 72, 63
1, 121939, Control_c, 0, 67, 112
1, 121954, Note_off_c, 0, 75, 64
1, 121955, Control_c, 0, 67, 81
1, 121969, Control_c, 0, 67, 17
1, 121984, Note_on_c, 0, 80, 96
1, 121984, Control_c, 0, 67, 0
1, 121986, Note_on_c, 0, 72, 85
1, 121986, Note_on_c, 0, 75, 78
1, 121987, Note_on_c, 0, 48, 99
1, 121988, Note_on_c, 0, 36, 90
1, 121988, Note_on_c, 0, 68, 94
1, 121999, Control_c, 0, 64, 67
1, 122014, Control_c, 0, 64, 78
1, 122015, Note_off_c, 0, 48, 66
1, 122019, Note_on_c, 0, 78, 48
1, 122023, Note_off_c, 0, 36, 62
1, 122029, Control_c, 0, 64, 88
1, 122043, Note_off_c, 0, 80, 63
1, 122043, Control_c, 0, 64, 92
1, 122046, Note_off_c, 0, 78, 62
1, 122046, Note_off_c, 0, 68, 61
1, 122054, Note_off_c, 0, 75, 60
1, 122058, Control_c, 0, 64, 93
1, 122060, Note_off_c, 0, 72, 59
1, 122073, Control_c, 0, 64, 95
1, 122088, Control_c, 0, 64, 97
1, 122103, Control_c, 0, 64, 99
1, 122119, Note_on_c, 0, 44, 79
1, 122130, Note_on_c, 0, 68, 74
1, 122132, Note_on_c, 0, 72, 63
1, 122133, Control_c, 0, 67, 8
1, 122147, Control_c, 0, 67, 10
1, 122148, Note_on_c, 0, 80, 36
1, 122154, Note_off_c, 0, 44, 61
1, 122157, Note_off_c, 0, 72, 69
1, 122162, Control_c, 0, 67, 13
1, 122168, Note_off_c, 0, 68, 65
1, 122177, Control_c, 0, 64, 93
1, 122177, Control_c, 0, 67, 17
1, 122180, Note_off_c, 0, 80, 54
1, 122192, Control_c, 0, 64, 83
1, 122192, Control_c, 0, 67, 21
1, 122207, Control_c, 0, 64, 70
1, 122207, Control_c, 0, 67, 25
1, 122222, Control_c, 0, 64, 56
1, 122222, Control_c, 0, 67, 27
1, 122237, Control_c, 0, 64, 0
1, 122237, Control_c, 0, 67, 27
1, 122266, Control_c, 0, 67, 28
1, 122281, Control_c, 0, 67, 28
1, 122283, Note_on_c, 0, 35, 66
1, 122295, Control_c, 0, 67, 29
1, 122310, Note_off_c, 0, 35, 65
1, 122310, Control_c, 0, 67, 31
1, 122325, Control_c, 0, 67, 31
1, 122326, Note_on_c, 0, 49, 67
1, 122340, Control_c, 0, 67, 32
1, 122402, Note_on_c, 0, 53, 61
1, 122403, Note_on_c, 0, 44, 67
1, 122412, Note_off_c, 0, 49, 61
1, 122414, Control_c, 0, 67, 33
1, 122429, Control_c, 0, 67, 33
1, 122433, Note_off_c, 0, 44, 63
1, 122443, Control_c, 0, 67, 34
1, 122458, Control_c, 0, 67, 34
1, 122484, Note_on_c, 0, 56, 65
1, 122484, Note_off_c, 0, 53, 64
1, 122521, Note_on_c, 0, 61, 66
1, 122538, Note_on_c, 0, 35, 70
1, 122546, Note_off_c, 0, 56, 62
1, 122568, Note_off_c, 0, 61, 60
1, 122573, Note_off_c, 0, 35, 64
1, 122609, Note_on_c, 0, 53, 58
1, 122614, Control_c, 0, 67, 34
1, 122644, Control_c, 0, 67, 33
1, 122655, Note_off_c, 0, 53, 61
1, 122660, Note_on_c, 0, 44, 71
1, 122663, Note_on_c, 0, 56, 66
1, 122696, Note_off_c, 0, 44, 61
1, 122733, Note_on_c, 0, 61, 61
1, 122735, Note_off_c, 0, 56, 63
1, 122771, Note_off_c, 0, 61, 63
1, 122784, Note_on_c, 0, 65, 65
1, 122790, Note_on_c, 0, 35, 68
1, 122827, Note_off_c, 0, 35, 66
1, 122837, Note_off_c, 0, 65, 54
1, 122857, Note_on_c, 0, 56, 58
1, 122925, Note_on_c, 0, 61, 54
1, 122928, Note_off_c, 0, 56, 56
1, 122933, Note_on_c, 0, 44, 52
1, 122961, Note_off_c, 0, 44, 55
1, 122972, Note_on_c, 0, 65, 53
1, 122994, Note_off_c, 0, 61, 63
1, 123028, Note_off_c, 0, 65, 61
1, 123046, Note_on_c, 0, 68, 62
1, 123051, Note_on_c, 0, 35, 61
1, 123084, Note_off_c, 0, 35, 64
1, 123099, Note_off_c, 0, 68, 62
1, 123113, Note_on_c, 0, 61, 43
1, 123133, Control_c, 0, 67, 33
1, 123153, Note_on_c, 0, 44, 67
1, 123154, Note_on_c, 0, 65, 67
1, 123156, Note_off_c, 0, 61, 60
1, 123190, Note_off_c, 0, 44, 61
1, 123207, Control_c, 0, 67, 32
1, 123230, Control_c, 0, 67, 32
1, 123232, Note_on_c, 0, 68, 65
1, 123241, Note_off_c, 0, 65, 60
1, 123244, Control_c, 0, 67, 31
1, 123277, Note_on_c, 0, 73, 68
1, 123288, Note_on_c, 0, 35, 67
1, 123289, Control_c, 0, 67, 31
1, 123296, Note_off_c, 0, 68, 64
1, 123319, Note_off_c, 0, 35, 64
1, 123328, Note_off_c, 0, 73, 63
1, 123365, Note_on_c, 0, 65, 60
1, 123408, Note_on_c, 0, 44, 65
1, 123414, Note_on_c, 0, 68, 64
1, 123414, Note_off_c, 0, 65, 56
1, 123441, Note_off_c, 0, 44, 63
1, 123474, Note_off_c, 0, 68, 64
1, 123480, Note_on_c, 0, 73, 60
1, 123482, Control_c, 0, 67, 30
1, 123512, Control_c, 0, 67, 30
1, 123524, Note_off_c, 0, 73, 63
1, 123525, Note_on_c, 0, 35, 75
1, 123531, Note_on_c, 0, 77, 71
1, 123562, Note_off_c, 0, 35, 67
1, 123595, Note_off_c, 0, 77, 57
1, 123598, Note_on_c, 0, 68, 64
1, 123646, Control_c, 0, 67, 30
1, 123654, Note_on_c, 0, 44, 69
1, 123661, Control_c, 0, 67, 31
1, 123663, Note_on_c, 0, 73, 63
1, 123673, Note_off_c, 0, 68, 58
1, 123683, Note_off_c, 0, 44, 63
1, 123713, Note_on_c, 0, 77, 60
1, 123735, Control_c, 0, 67, 30
1, 123749, Control_c, 0, 67, 28
1, 123756, Note_off_c, 0, 73, 61
1, 123764, Control_c, 0, 67, 25
1, 123769, Note_off_c, 0, 77, 63
1, 123775, Note_on_c, 0, 35, 79
1, 123776, Note_on_c, 0, 80, 70
1, 123779, Control_c, 0, 67, 19
1, 123794, Control_c, 0, 67, 10
1, 123809, Control_c, 0, 67, 0
1, 123817, Note_off_c, 0, 35, 63
1, 123844, Note_off_c, 0, 80, 63
1, 123849, Note_on_c, 0, 73, 47
1, 123888, Note_on_c, 0, 44, 77
1, 123915, Note_on_c, 0, 77, 72
1, 123936, Note_off_c, 0, 44, 62
1, 123952, Note_off_c, 0, 73, 55
1, 123957, Note_on_c, 0, 80, 69
1, 123976, Note_off_c, 0, 77, 63
1, 123992, Note_off_c, 0, 80, 67
1, 124022, Poly_aftertouch_c, 0, 80, 0
1, 124027, Note_on_c, 0, 80, 86
1, 124027, Note_on_c, 0, 85, 101
1, 124028, Note_on_c, 0, 77, 87
1, 124029, Note_on_c, 0, 73, 99
1, 124033, Note_on_c, 0, 47, 96
1, 124035, Note_on_c, 0, 35, 94
1, 124038, Control_c, 0, 64, 34
1, 124053, Control_c, 0, 64, 73
1, 124067, Note_off_c, 0, 35, 67
1, 124067, Control_c, 0, 64, 92
1, 124069, Note_off_c, 0, 47, 64
1, 124082, Control_c, 0, 64, 114
1, 124086, Note_off_c, 0, 73, 61
1, 124092, Note_off_c, 0, 85, 62
1, 124097, Note_off_c, 0, 80, 61
1, 124097, Note_off_c, 0, 77, 59
1, 124097, Control_c, 0, 64, 127
1, 124165, Note_on_c, 0, 44, 84
1, 124170, Note_on_c, 0, 77, 72
1, 124170, Note_on_c, 0, 80, 64
1, 124172, Note_on_c, 0, 73, 79
1, 124187, Note_off_c, 0, 80, 67
1, 124192, Note_off_c, 0, 44, 66
1, 124192, Note_off_c, 0, 77, 71
1, 124210, Note_off_c, 0, 73, 64
1, 124275, Control_c, 0, 64, 110
1, 124290, Control_c, 0, 64, 91
1, 124305, Control_c, 0, 64, 74
1, 124320, Control_c, 0, 64, 58
1, 124335, Control_c, 0, 64, 0
1, 124336, Note_on_c, 0, 33, 77
1, 124373, Note_off_c, 0, 33, 65
1, 124414, Note_on_c, 0, 49, 68
1, 124476, Note_on_c, 0, 45, 71
1, 124481, Note_on_c, 0, 54, 68
1, 124503, Note_off_c, 0, 45, 64
1, 124511, Note_off_c, 0, 49, 62
1, 124525, Note_on_c, 0, 57, 68
1, 124564, Note_off_c, 0, 54, 64
1, 124574, Note_off_c, 0, 57, 65
1, 124577, Note_on_c, 0, 61, 68
1, 124604, Note_off_c, 0, 61, 66
1, 124606, Note_on_c, 0, 33, 75
1, 124643, Note_off_c, 0, 33, 64
1, 124669, Note_on_c, 0, 61, 65
1, 124735, Note_on_c, 0, 45, 73
1, 124738, Note_on_c, 0, 66, 68
1, 124754, Note_off_c, 0, 61, 55
1, 124767, Note_off_c, 0, 45, 64
1, 124790, Note_on_c, 0, 69, 66
1, 124833, Note_off_c, 0, 66, 63
1, 124839, Note_on_c, 0, 73, 76
1, 124842, Note_off_c, 0, 69, 66
1, 124860, Note_on_c, 0, 33, 78
1, 124861, Note_off_c, 0, 73, 70
1, 124917, Note_off_c, 0, 33, 58
1, 124942, Note_on_c, 0, 73, 74
1, 124980, Note_on_c, 0, 45, 81
1, 124994, Note_on_c, 0, 78, 75
1, 125019, Note_off_c, 0, 45, 66
1, 125033, Note_off_c, 0, 73, 61
1, 125042, Note_on_c, 0, 81, 78
1, 125047, Note_on_c, 0, 80, 30
1, 125051, Note_off_c, 0, 78, 65
1, 125072, Note_off_c, 0, 80, 38
1, 125094, Note_on_c, 0, 85, 100
1, 125095, Note_on_c, 0, 78, 86
1, 125096, Note_on_c, 0, 73, 93
1, 125100, Note_on_c, 0, 33, 92
1, 125113, Control_c, 0, 64, 80
1, 125120, Note_off_c, 0, 81, 63
1, 125128, Control_c, 0, 64, 115
1, 125143, Control_c, 0, 64, 127
1, 125147, Note_off_c, 0, 33, 62
1, 125152, Note_off_c, 0, 73, 61
1, 125167, Note_off_c, 0, 78, 63
1, 125182, Note_off_c, 0, 85, 63
1, 125246, Note_on_c, 0, 45, 78
1, 125251, Note_on_c, 0, 73, 87
1, 125256, Note_on_c, 0, 85, 79
1, 125257, Note_on_c, 0, 78, 76
1, 125276, Note_off_c, 0, 85, 71
1, 125277, Note_off_c, 0, 45, 66
1, 125278, Note_off_c, 0, 78, 71
1, 125289, Note_off_c, 0, 73, 61
1, 125403, Note_on_c, 0, 33, 95
1, 125425, Control_c, 0, 64, 105
1, 125440, Control_c, 0, 64, 78
1, 125453, Note_off_c, 0, 33, 61
1, 125455, Control_c, 0, 64, 55
1, 125477, Control_c, 0, 64, 0
1, 125491, Note_on_c, 0, 49, 79
1, 125551, Note_on_c, 0, 45, 73
1, 125560, Note_on_c, 0, 52, 78
1, 125587, Note_off_c, 0, 45, 65
1, 125611, Note_off_c, 0, 49, 63
1, 125626, Note_on_c, 0, 55, 71
1, 125655, Note_off_c, 0, 52, 64
1, 125668, Note_on_c, 0, 61, 78
1, 125673, Note_off_c, 0, 55, 65
1, 125677, Note_on_c, 0, 33, 91
1, 125693, Note_off_c, 0, 61, 69
1, 125737, Note_off_c, 0, 33, 62
1, 125765, Note_on_c, 0, 61, 84
1, 125809, Note_on_c, 0, 45, 86
1, 125829, Note_on_c, 0, 64, 82
1, 125862, Note_off_c, 0, 45, 62
1, 125871, Note_off_c, 0, 61, 60
1, 125881, Note_on_c, 0, 67, 76
1, 125925, Note_off_c, 0, 64, 65
1, 125936, Note_on_c, 0, 33, 90
1, 125945, Note_off_c, 0, 67, 64
1, 125949, Note_on_c, 0, 73, 77
1, 125971, Note_off_c, 0, 73, 70
1, 126002, Note_off_c, 0, 33, 61
1, 126041, Note_on_c, 0, 73, 80
1, 126082, Note_on_c, 0, 76, 76
1, 126083, Note_on_c, 0, 45, 82
1, 126132, Note_off_c, 0, 73, 54
1, 126133, Note_on_c, 0, 79, 74
1, 126145, Note_off_c, 0, 45, 63
1, 126160, Note_off_c, 0, 76, 63
1, 126178, Note_off_c, 0, 79, 62
1, 126235, Note_on_c, 0, 33, 88
1, 126237, Note_on_c, 0, 73, 100
1, 126240, Note_on_c, 0, 85, 101
1, 126240, Control_c, 0, 64, 34
1, 126246, Note_on_c, 0, 79, 87
1, 126255, Control_c, 0, 64, 70
1, 126270, Control_c, 0, 64, 78
1, 126285, Control_c, 0, 64, 81
1, 126291, Note_off_c, 0, 33, 62
1, 126300, Control_c, 0, 64, 82
1, 126313, Note_off_c, 0, 73, 62
1, 126315, Control_c, 0, 64, 84
1, 126330, Control_c, 0, 64, 86
1, 126333, Note_off_c, 0, 79, 60
1, 126338, Poly_aftertouch_c, 0, 82, 0
1, 126342, Note_off_c, 0, 85, 62
1, 126344, Control_c, 0, 64, 88
1, 126359, Control_c, 0, 64, 90
1, 126374, Control_c, 0, 64, 92
1, 126389, Control_c, 0, 64, 94
1, 126397, Note_on_c, 0, 45, 85
1, 126402, Note_on_c, 0, 79, 88
1, 126403, Note_on_c, 0, 73, 98
1, 126403, Note_on_c, 0, 85, 92
1, 126404, Control_c, 0, 64, 100
1, 126418, Control_c, 0, 64, 112
1, 126431, Note_off_c, 0, 45, 64
1, 126433, Control_c, 0, 64, 127
1, 126525, Note_off_c, 0, 73, 59
1, 126528, Note_off_c, 0, 79, 50
1, 126541, Note_off_c, 0, 85, 61
1, 126551, Control_c, 0, 64, 89
1, 126566, Control_c, 0, 64, 54
1, 126581, Control_c, 0, 64, 0
1, 126599, Note_on_c, 0, 44, 102
1, 126600, Note_on_c, 0, 84, 90
1, 126604, Note_on_c, 0, 72, 103
1, 126604, Note_on_c, 0, 32, 91
1, 126609, Note_on_c, 0, 80, 93
1, 126625, Control_c, 0, 64, 34
1, 126628, Note_off_c, 0, 44, 62
1, 126629, Note_off_c, 0, 32, 64
1, 126640, Control_c, 0, 64, 66
1, 126645, Note_off_c, 0, 72, 61
1, 126647, Note_off_c, 0, 84, 62
1, 126652, Note_off_c, 0, 80, 62
1, 126655, Control_c, 0, 64, 74
1, 126670, Control_c, 0, 64, 77
1, 126684, Control_c, 0, 64, 79
1, 126699, Control_c, 0, 64, 82
1, 126714, Control_c, 0, 64, 87
1, 126729, Control_c, 0, 64, 93
1, 126745, Control_c, 0, 64, 100
1, 126759, Control_c, 0, 64, 104
1, 126774, Control_c, 0, 64, 106
1, 126789, Control_c, 0, 64, 108
1, 126804, Control_c, 0, 64, 109
1, 126819, Control_c, 0, 64, 111
1, 126833, Control_c, 0, 64, 111
1, 126848, Control_c, 0, 64, 112
1, 126878, Control_c, 0, 64, 112
1, 126890, Note_on_c, 0, 68, 82
1, 126902, Note_on_c, 0, 56, 76
1, 126908, Control_c, 0, 64, 113
1, 126909, Note_on_c, 0, 60, 78
1, 126923, Control_c, 0, 64, 113
1, 126923, Poly_aftertouch_c, 0, 61, 127
1, 126953, Note_off_c, 0, 68, 64
1, 126953, Control_c, 0, 64, 114
1, 126969, Note_on_c, 0, 80, 73
1, 126971, Note_off_c, 0, 60, 63
1, 126976, Poly_aftertouch_c, 0, 61, 0
1, 127004, Control_c, 0, 64, 113
1, 127024, Note_off_c, 0, 80, 63
1, 127043, Note_on_c, 0, 68, 88
1, 127054, Note_on_c, 0, 60, 80
1, 127091, Note_off_c, 0, 68, 65
1, 127119, Note_on_c, 0, 80, 76
1, 127152, Note_off_c, 0, 80, 55
1, 127167, Note_off_c, 0, 60, 56
1, 127174, Note_on_c, 0, 70, 81
1, 127185, Note_on_c, 0, 61, 70
1, 127197, Control_c, 0, 64, 114
1, 127197, Poly_aftertouch_c, 0, 76, 0
1, 127212, Control_c, 0, 64, 114
1, 127216, Note_off_c, 0, 70, 60
1, 127227, Control_c, 0, 64, 116
1, 127241, Control_c, 0, 64, 117
1, 127247, Note_on_c, 0, 80, 74
1, 127256, Control_c, 0, 64, 115
1, 127271, Control_c, 0, 64, 98
1, 127278, Note_off_c, 0, 80, 58
1, 127286, Control_c, 0, 64, 80
1, 127300, Control_c, 0, 64, 61
1, 127301, Note_on_c, 0, 72, 87
1, 127302, Note_on_c, 0, 63, 79
1, 127315, Control_c, 0, 64, 12
1, 127330, Control_c, 0, 64, 0
1, 127336, Note_off_c, 0, 61, 58
1, 127345, Control_c, 0, 64, 38
1, 127358, Note_off_c, 0, 72, 64
1, 127360, Control_c, 0, 64, 60
1, 127370, Note_on_c, 0, 80, 76
1, 127374, Control_c, 0, 64, 68
1, 127389, Control_c, 0, 64, 77
1, 127404, Control_c, 0, 64, 83
1, 127415, Note_off_c, 0, 80, 59
1, 127419, Control_c, 0, 64, 85
1, 127420, Note_off_c, 0, 63, 64
1, 127427, Note_on_c, 0, 73, 79
1, 127434, Control_c, 0, 64, 85
1, 127440, Note_on_c, 0, 64, 72
1, 127448, Control_c, 0, 64, 87
1, 127463, Control_c, 0, 64, 90
1, 127478, Control_c, 0, 64, 96
1, 127486, Note_off_c, 0, 64, 58
1, 127492, Control_c, 0, 64, 109
1, 127495, Note_off_c, 0, 73, 63
1, 127498, Note_on_c, 0, 80, 81
1, 127507, Control_c, 0, 64, 127
1, 127543, Note_off_c, 0, 80, 56
1, 127553, Control_c, 0, 64, 105
1, 127564, Note_on_c, 0, 66, 81
1, 127566, Note_on_c, 0, 75, 87
1, 127568, Control_c, 0, 64, 90
1, 127582, Control_c, 0, 64, 76
1, 127597, Control_c, 0, 64, 71
1, 127612, Control_c, 0, 64, 71
1, 127627, Note_on_c, 0, 80, 81
1, 127627, Control_c, 0, 64, 76
1, 127629, Note_off_c, 0, 75, 61
1, 127642, Control_c, 0, 64, 82
1, 127656, Control_c, 0, 64, 88
1, 127658, Note_off_c, 0, 66, 59
1, 127671, Control_c, 0, 64, 92
1, 127681, Note_off_c, 0, 80, 64
1, 127686, Control_c, 0, 64, 95
1, 127698, Note_on_c, 0, 72, 79
1, 127700, Note_on_c, 0, 63, 69
1, 127701, Control_c, 0, 64, 98
1, 127723, Control_c, 0, 64, 104
1, 127738, Control_c, 0, 64, 123
1, 127749, Note_off_c, 0, 72, 62
1, 127753, Control_c, 0, 64, 127
1, 127774, Note_on_c, 0, 80, 80
1, 127776, Note_off_c, 0, 63, 51
1, 127820, Note_off_c, 0, 80, 61
1, 127827, Control_c, 0, 64, 110
1, 127829, Note_on_c, 0, 75, 83
1, 127829, Note_on_c, 0, 66, 74
1, 127842, Control_c, 0, 64, 91
1, 127857, Control_c, 0, 64, 79
1, 127871, Control_c, 0, 64, 71
1, 127886, Control_c, 0, 64, 71
1, 127890, Note_off_c, 0, 75, 63
1, 127892, Note_on_c, 0, 80, 76
1, 127901, Control_c, 0, 64, 75
1, 127916, Control_c, 0, 64, 81
1, 127930, Control_c, 0, 64, 87
1, 127942, Note_off_c, 0, 66, 60
1, 127945, Control_c, 0, 64, 90
1, 127950, Note_off_c, 0, 80, 62
1, 127954, Note_on_c, 0, 64, 65
1, 127960, Control_c, 0, 64, 94
1, 127966, Note_on_c, 0, 73, 79
1, 127975, Control_c, 0, 64, 99
1, 127990, Control_c, 0, 64, 108
1, 128005, Control_c, 0, 64, 127
1, 128024, Note_off_c, 0, 73, 60
1, 128047, Note_on_c, 0, 80, 77
1, 128051, Note_off_c, 0, 64, 61
1, 128064, Control_c, 0, 64, 114
1, 128079, Control_c, 0, 64, 90
1, 128094, Control_c, 0, 64, 73
1, 128100, Note_off_c, 0, 80, 62
1, 128109, Note_on_c, 0, 69, 63
1, 128109, Control_c, 0, 64, 62
1, 128115, Note_on_c, 0, 78, 73
1, 128123, Control_c, 0, 64, 56
1, 128138, Control_c, 0, 64, 60
1, 128145, Note_off_c, 0, 69, 63
1, 128153, Control_c, 0, 64, 68
1, 128168, Control_c, 0, 64, 77
1, 128183, Control_c, 0, 64, 89
1, 128194, Note_on_c, 0, 80, 71
1, 128197, Control_c, 0, 64, 103
1, 128212, Control_c, 0, 64, 123
1, 128214, Note_off_c, 0, 78, 40
1, 128227, Control_c, 0, 64, 127
1, 128235, Note_off_c, 0, 80, 57
1, 128250, Note_on_c, 0, 68, 71
1, 128256, Control_c, 0, 64, 116
1, 128261, Note_on_c, 0, 76, 76
1, 128271, Control_c, 0, 64, 110
1, 128301, Control_c, 0, 64, 111
1, 128302, Note_off_c, 0, 76, 60
1, 128315, Control_c, 0, 64, 113
1, 128321, Note_off_c, 0, 68, 62
1, 128329, Note_on_c, 0, 80, 78
1, 128331, Control_c, 0, 64, 127
1, 128384, Note_on_c, 0, 66, 84
1, 128390, Note_off_c, 0, 80, 64
1, 128391, Control_c, 0, 64, 109
1, 128392, Note_on_c, 0, 75, 83
1, 128406, Control_c, 0, 64, 97
1, 128420, Control_c, 0, 64, 94
1, 128435, Control_c, 0, 64, 95
1, 128450, Control_c, 0, 64, 98
1, 128466, Note_off_c, 0, 75, 63
1, 128468, Note_on_c, 0, 80, 67
1, 128468, Note_off_c, 0, 66, 60
1, 128473, Control_c, 0, 64, 103
1, 128487, Control_c, 0, 64, 106
1, 128501, Note_off_c, 0, 80, 59
1, 128502, Control_c, 0, 64, 106
1, 128506, Note_on_c, 0, 73, 82
1, 128517, Control_c, 0, 64, 108
1, 128521, Note_on_c, 0, 64, 77
1, 128532, Control_c, 0, 64, 111
1, 128546, Control_c, 0, 64, 125
1, 128556, Note_off_c, 0, 73, 61
1, 128561, Control_c, 0, 64, 127
1, 128574, Note_on_c, 0, 80, 84
1, 128621, Note_off_c, 0, 80, 63
1, 128639, Note_off_c, 0, 64, 59
1, 128642, Note_on_c, 0, 63, 67
1, 128648, Note_on_c, 0, 72, 86
1, 128691, Note_off_c, 0, 72, 64
1, 128704, Note_on_c, 0, 80, 80
1, 128756, Note_off_c, 0, 80, 63
1, 128771, Note_on_c, 0, 69, 83
1, 128774, Note_on_c, 0, 61, 74
1, 128795, Note_off_c, 0, 56, 57
1, 128828, Note_off_c, 0, 69, 68
1, 128842, Note_off_c, 0, 63, 55
1, 128850, Note_on_c, 0, 79, 79
1, 128850, Note_off_c, 0, 61, 58
1, 128886, Note_off_c, 0, 79, 60
1, 128902, Control_c, 0, 64, 106
1, 128911, Note_on_c, 0, 68, 98
1, 128915, Note_on_c, 0, 56, 79
1, 128917, Control_c, 0, 64, 82
1, 128923, Note_on_c, 0, 60, 75
1, 128932, Control_c, 0, 64, 67
1, 128935, Note_on_c, 0, 61, 57
1, 128946, Control_c, 0, 64, 55
1, 128957, Note_off_c, 0, 61, 59
1, 128961, Control_c, 0, 64, 53
1, 128975, Note_off_c, 0, 68, 62
1, 128976, Control_c, 0, 64, 61
1, 128978, Note_off_c, 0, 60, 64
1, 128991, Control_c, 0, 64, 68
1, 129002, Note_on_c, 0, 80, 72
1, 129006, Control_c, 0, 64, 77
1, 129020, Control_c, 0, 64, 80
1, 129035, Control_c, 0, 64, 78
1, 129045, Note_off_c, 0, 80, 57
1, 129050, Control_c, 0, 64, 74
1, 129063, Note_on_c, 0, 68, 90
1, 129064, Control_c, 0, 64, 71
1, 129076, Note_on_c, 0, 60, 75
1, 129079, Control_c, 0, 64, 71
1, 129094, Control_c, 0, 64, 74
1, 129109, Control_c, 0, 64, 78
1, 129120, Note_off_c, 0, 68, 66
1, 129120, Note_off_c, 0, 60, 62
1, 129124, Control_c, 0, 64, 80
1, 129140, Control_c, 0, 64, 80
1, 129144, Note_on_c, 0, 80, 79
1, 129155, Control_c, 0, 64, 81
1, 129169, Control_c, 0, 64, 82
1, 129184, Control_c, 0, 64, 84
1, 129198, Note_off_c, 0, 80, 60
1, 129199, Note_on_c, 0, 68, 86
1, 129199, Control_c, 0, 64, 88
1, 129218, Poly_aftertouch_c, 0, 76, 0
1, 129221, Control_c, 0, 64, 92
1, 129224, Note_on_c, 0, 60, 80
1, 129236, Control_c, 0, 64, 95
1, 129251, Control_c, 0, 64, 95
1, 129256, Note_off_c, 0, 68, 65
1, 129266, Control_c, 0, 64, 96
1, 129276, Note_on_c, 0, 80, 80
1, 129281, Control_c, 0, 64, 97
1, 129295, Control_c, 0, 64, 99
1, 129310, Control_c, 0, 64, 102
1, 129317, Note_off_c, 0, 60, 0
1, 129325, Control_c, 0, 64, 104
1, 129337, Note_on_c, 0, 70, 83
1, 129339, Note_on_c, 0, 61, 72
1, 129339, Note_off_c, 0, 80, 61
1, 129340, Control_c, 0, 64, 106
1, 129355, Control_c, 0, 64, 109
1, 129369, Control_c, 0, 64, 110
1, 129371, Poly_aftertouch_c, 0, 60, 0
1, 129384, Control_c, 0, 64, 111
1, 129385, Note_off_c, 0, 70, 62
1, 129389, Note_on_c, 0, 75, 37
1, 129399, Control_c, 0, 64, 111
1, 129402, Note_on_c, 0, 80, 77
1, 129414, Control_c, 0, 64, 100
1, 129422, Note_off_c, 0, 75, 54
1, 129430, Control_c, 0, 64, 82
1, 129444, Control_c, 0, 64, 63
1, 129459, Control_c, 0, 64, 0
1, 129461, Note_on_c, 0, 63, 80
1, 129461, Note_off_c, 0, 80, 59
1, 129467, Note_on_c, 0, 72, 85
1, 129483, Note_off_c, 0, 61, 60
1, 129503, Control_c, 0, 64, 52
1, 129517, Note_off_c, 0, 72, 61
1, 129518, Control_c, 0, 64, 65
1, 129525, Note_on_c, 0, 80, 75
1, 129533, Control_c, 0, 64, 73
1, 129548, Control_c, 0, 64, 82
1, 129562, Control_c, 0, 64, 89
1, 129574, Note_off_c, 0, 63, 63
1, 129577, Control_c, 0, 64, 94
1, 129582, Note_on_c, 0, 73, 79
1, 129582, Note_off_c, 0, 80, 62
1, 129592, Control_c, 0, 64, 97
1, 129593, Note_on_c, 0, 64, 79
1, 129607, Control_c, 0, 64, 102
1, 129622, Control_c, 0, 64, 111
1, 129636, Control_c, 0, 64, 127
1, 129653, Note_on_c, 0, 80, 82
1, 129654, Note_off_c, 0, 73, 64
1, 129654, Note_off_c, 0, 64, 62
1, 129724, Note_on_c, 0, 66, 85
1, 129724, Note_off_c, 0, 80, 61
1, 129725, Note_on_c, 0, 75, 89
1, 129725, Control_c, 0, 64, 114
1, 129740, Control_c, 0, 64, 96
1, 129755, Control_c, 0, 64, 83
1, 129770, Control_c, 0, 64, 76
1, 129785, Control_c, 0, 64, 78
1, 129787, Note_off_c, 0, 75, 60
1, 129788, Note_on_c, 0, 80, 76
1, 129799, Control_c, 0, 64, 85
1, 129814, Control_c, 0, 64, 96
1, 129829, Control_c, 0, 64, 111
1, 129841, Note_off_c, 0, 66, 58
1, 129843, Note_off_c, 0, 80, 62
1, 129844, Control_c, 0, 64, 127
1, 129861, Note_on_c, 0, 72, 82
1, 129862, Note_on_c, 0, 63, 77
1, 129904, Note_off_c, 0, 72, 64
1, 129930, Note_on_c, 0, 80, 78
1, 129971, Control_c, 0, 64, 111
1, 129986, Control_c, 0, 64, 91
1, 129990, Note_off_c, 0, 80, 63
1, 129991, Note_on_c, 0, 75, 86
1, 129992, Note_on_c, 0, 66, 90
1, 129993, Note_off_c, 0, 63, 37
1, 130000, Control_c, 0, 64, 76
1, 130015, Control_c, 0, 64, 66
1, 130030, Control_c, 0, 64, 63
1, 130045, Control_c, 0, 64, 66
1, 130060, Control_c, 0, 64, 76
1, 130061, Note_on_c, 0, 80, 80
1, 130062, Note_off_c, 0, 75, 62
1, 130074, Control_c, 0, 64, 87
1, 130089, Control_c, 0, 64, 98
1, 130104, Control_c, 0, 64, 106
1, 130118, Control_c, 0, 64, 112
1, 130124, Note_on_c, 0, 64, 72
1, 130130, Note_off_c, 0, 80, 61
1, 130131, Note_on_c, 0, 73, 83
1, 130133, Note_off_c, 0, 66, 62
1, 130133, Control_c, 0, 64, 127
1, 130195, Note_off_c, 0, 73, 61
1, 130202, Note_on_c, 0, 80, 79
1, 130217, Note_off_c, 0, 64, 63
1, 130237, Control_c, 0, 64, 106
1, 130252, Control_c, 0, 64, 90
1, 130264, Note_on_c, 0, 78, 85
1, 130266, Control_c, 0, 64, 83
1, 130270, Note_on_c, 0, 69, 83
1, 130270, Note_off_c, 0, 80, 64
1, 130281, Control_c, 0, 64, 84
1, 130296, Control_c, 0, 64, 89
1, 130310, Control_c, 0, 64, 97
1, 130312, Note_off_c, 0, 69, 63
1, 130325, Control_c, 0, 64, 108
1, 130340, Control_c, 0, 64, 127
1, 130348, Note_on_c, 0, 80, 79
1, 130371, Note_off_c, 0, 78, 60
1, 130405, Note_off_c, 0, 80, 63
1, 130422, Note_on_c, 0, 68, 78
1, 130429, Note_on_c, 0, 76, 83
1, 130482, Note_off_c, 0, 76, 61
1, 130493, Note_off_c, 0, 68, 60
1, 130500, Note_on_c, 0, 80, 83
1, 130533, Control_c, 0, 64, 106
1, 130548, Control_c, 0, 64, 87
1, 130563, Control_c, 0, 64, 74
1, 130569, Note_on_c, 0, 66, 84
1, 130571, Note_on_c, 0, 75, 87
1, 130571, Note_off_c, 0, 80, 62
1, 130577, Control_c, 0, 64, 69
1, 130592, Control_c, 0, 64, 72
1, 130607, Control_c, 0, 64, 81
1, 130622, Control_c, 0, 64, 103
1, 130634, Note_on_c, 0, 80, 82
1, 130636, Control_c, 0, 64, 127
1, 130638, Note_off_c, 0, 75, 64
1, 130660, Note_off_c, 0, 66, 62
1, 130681, Control_c, 0, 64, 119
1, 130696, Control_c, 0, 64, 95
1, 130698, Note_off_c, 0, 80, 61
1, 130715, Note_on_c, 0, 73, 80
1, 130718, Control_c, 0, 64, 82
1, 130718, Note_on_c, 0, 64, 78
1, 130732, Control_c, 0, 64, 76
1, 130748, Control_c, 0, 64, 78
1, 130750, Note_off_c, 0, 73, 63
1, 130763, Control_c, 0, 64, 85
1, 130775, Note_on_c, 0, 80, 82
1, 130778, Control_c, 0, 64, 97
1, 130793, Control_c, 0, 64, 111
1, 130808, Control_c, 0, 64, 115
1, 130823, Note_off_c, 0, 80, 63
1, 130828, Note_off_c, 0, 64, 43
1, 130845, Note_on_c, 0, 63, 72
1, 130852, Note_on_c, 0, 72, 88
1, 130852, Control_c, 0, 64, 115
1, 130867, Control_c, 0, 64, 120
1, 130882, Control_c, 0, 64, 127
1, 130894, Note_off_c, 0, 72, 65
1, 130914, Note_on_c, 0, 80, 84
1, 130951, Note_off_c, 0, 56, 52
1, 130960, Note_off_c, 0, 80, 65
1, 130980, Note_on_c, 0, 61, 70
1, 130984, Note_on_c, 0, 69, 80
1, 131029, Note_off_c, 0, 63, 59
1, 131033, Note_off_c, 0, 69, 66
1, 131051, Note_on_c, 0, 79, 74
1, 131060, Note_off_c, 0, 61, 61
1, 131090, Note_off_c, 0, 79, 60
1, 131123, Note_on_c, 0, 68, 80
1, 131138, Note_on_c, 0, 56, 73
1, 131148, Control_c, 0, 64, 109
1, 131150, Note_on_c, 0, 60, 64
1, 131163, Control_c, 0, 64, 90
1, 131178, Control_c, 0, 64, 75
1, 131189, Note_off_c, 0, 60, 63
1, 131189, Note_off_c, 0, 68, 60
1, 131193, Control_c, 0, 64, 63
1, 131195, Note_off_c, 0, 56, 61
1, 131204, Note_on_c, 0, 80, 71
1, 131207, Control_c, 0, 64, 48
1, 131222, Control_c, 0, 64, 39
1, 131237, Control_c, 0, 64, 42
1, 131248, Note_off_c, 0, 80, 62
1, 131252, Control_c, 0, 64, 43
1, 131281, Control_c, 0, 64, 41
1, 131287, Note_on_c, 0, 61, 70
1, 131294, Note_on_c, 0, 69, 73
1, 131296, Control_c, 0, 64, 40
1, 131302, Note_on_c, 0, 56, 68
1, 131337, Note_off_c, 0, 56, 64
1, 131337, Note_off_c, 0, 69, 67
1, 131342, Note_off_c, 0, 61, 57
1, 131356, Control_c, 0, 64, 38
1, 131362, Note_on_c, 0, 79, 74
1, 131370, Control_c, 0, 64, 32
1, 131385, Control_c, 0, 64, 24
1, 131400, Control_c, 0, 64, 21
1, 131403, Note_off_c, 0, 79, 63
1, 131415, Control_c, 0, 64, 19
1, 131429, Note_on_c, 0, 68, 83
1, 131430, Control_c, 0, 64, 19
1, 131434, Note_on_c, 0, 56, 79
1, 131441, Note_on_c, 0, 60, 70
1, 131445, Control_c, 0, 64, 17
1, 131466, Control_c, 0, 64, 12
1, 131480, Note_off_c, 0, 60, 65
1, 131481, Control_c, 0, 64, 9
1, 131498, Note_off_c, 0, 56, 61
1, 131498, Note_off_c, 0, 68, 65
1, 131511, Note_on_c, 0, 80, 81
1, 131511, Control_c, 0, 64, 0
1, 131562, Note_off_c, 0, 80, 65
1, 131570, Note_on_c, 0, 61, 77
1, 131579, Note_on_c, 0, 56, 70
1, 131586, Note_on_c, 0, 69, 85
1, 131617, Note_off_c, 0, 56, 65
1, 131629, Note_off_c, 0, 61, 62
1, 131640, Note_off_c, 0, 69, 66
1, 131653, Note_on_c, 0, 79, 78
1, 131667, Note_on_c, 0, 77, 49
1, 131687, Note_off_c, 0, 79, 62
1, 131692, Note_off_c, 0, 77, 58
1, 131711, Note_on_c, 0, 56, 87
1, 131716, Note_on_c, 0, 60, 79
1, 131717, Note_on_c, 0, 68, 91
1, 131754, Note_off_c, 0, 60, 63
1, 131771, Note_off_c, 0, 56, 62
1, 131772, Note_off_c, 0, 68, 66
1, 131782, Note_on_c, 0, 80, 81
1, 131832, Note_off_c, 0, 80, 65
1, 131849, Note_on_c, 0, 61, 81
1, 131866, Note_on_c, 0, 69, 80
1, 131893, Note_on_c, 0, 57, 29
1, 131904, Note_off_c, 0, 69, 69
1, 131911, Note_off_c, 0, 61, 61
1, 131916, Note_on_c, 0, 79, 80
1, 131930, Note_off_c, 0, 57, 52
1, 131961, Note_off_c, 0, 79, 63
1, 131989, Note_on_c, 0, 68, 92
1, 131999, Note_on_c, 0, 56, 81
1, 132000, Note_on_c, 0, 60, 82
1, 132047, Note_off_c, 0, 60, 63
1, 132049, Note_off_c, 0, 68, 64
1, 132056, Note_off_c, 0, 56, 63
1, 132056, Note_on_c, 0, 80, 83
1, 132106, Note_off_c, 0, 80, 64
1, 132134, Note_on_c, 0, 61, 79
1, 132135, Note_on_c, 0, 69, 85
1, 132186, Note_on_c, 0, 79, 77
1, 132187, Note_on_c, 0, 57, 28
1, 132193, Note_off_c, 0, 69, 67
1, 132213, Note_off_c, 0, 61, 61
1, 132223, Poly_aftertouch_c, 0, 56, 0
1, 132231, Note_off_c, 0, 57, 50
1, 132235, Note_off_c, 0, 79, 63
1, 132245, Control_c, 0, 64, 9
1, 132260, Control_c, 0, 64, 0
1, 132296, Note_on_c, 0, 56, 95
1, 132297, Note_on_c, 0, 80, 99
1, 132297, Note_on_c, 0, 68, 98
1, 132305, Note_on_c, 0, 60, 83
1, 132325, Note_off_c, 0, 60, 71
1, 132336, Note_off_c, 0, 68, 65
1, 132340, Note_off_c, 0, 56, 62
1, 132345, Note_off_c, 0, 80, 66
1, 132735, Note_on_c, 0, 44, 92
1, 132737, Note_on_c, 0, 32, 91
1, 132739, Note_on_c, 0, 56, 108
1, 133277, Control_c, 0, 64, 9
1, 133292, Control_c, 0, 64, 10
1, 133307, Control_c, 0, 64, 22
1, 133322, Control_c, 0, 64, 37
1, 133336, Control_c, 0, 64, 45
1, 133351, Control_c, 0, 64, 48
1, 133381, Control_c, 0, 64, 48
1, 133396, Control_c, 0, 64, 51
1, 133410, Control_c, 0, 64, 55
1, 133425, Control_c, 0, 64, 58
1, 133440, Control_c, 0, 64, 59
1, 133484, Control_c, 0, 64, 61
1, 133499, Control_c, 0, 64, 63
1, 133514, Control_c, 0, 64, 66
1, 133529, Control_c, 0, 64, 68
1, 133543, Control_c, 0, 64, 70
1, 133558, Control_c, 0, 64, 72
1, 133573, Control_c, 0, 64, 74
1, 133588, Control_c, 0, 64, 76
1, 133603, Control_c, 0, 64, 78
1, 133618, Control_c, 0, 64, 79
1, 133633, Control_c, 0, 64, 80
1, 133648, Control_c, 0, 64, 82
1, 133662, Control_c, 0, 64, 84
1, 133677, Control_c, 0, 64, 86
1, 133692, Control_c, 0, 64, 89
1, 133714, Control_c, 0, 64, 93
1, 133729, Control_c, 0, 64, 96
1, 133743, Control_c, 0, 64, 99
1, 133758, Control_c, 0, 64, 103
1, 133773, Control_c, 0, 64, 109
1, 133788, Control_c, 0, 64, 117
1, 133803, Control_c, 0, 64, 127
1, 134187, Control_c, 0, 67, 8
1, 134202, Control_c, 0, 67, 9
1, 134217, Control_c, 0, 67, 11
1, 134232, Control_c, 0, 67, 12
1, 134247, Control_c, 0, 67, 14
1, 134262, Control_c, 0, 67, 15
1, 134276, Control_c, 0, 67, 16
1, 134291, Control_c, 0, 67, 16
1, 134321, Control_c, 0, 67, 17
1, 134350, Control_c, 0, 67, 17
1, 134365, Control_c, 0, 67, 18
1, 134380, Control_c, 0, 67, 18
1, 134384, Note_off_c, 0, 56, 66
1, 134391, Note_off_c, 0, 32, 56
1, 134417, Note_off_c, 0, 44, 57
1, 134462, Control_c, 0, 64, 115
1, 134477, Control_c, 0, 64, 93
1, 134477, Control_c, 0, 67, 19
1, 134491, Control_c, 0, 64, 76
1, 134506, Control_c, 0, 64, 61
1, 134506, Control_c, 0, 67, 19
1, 134521, Control_c, 0, 64, 0
1, 134521, Control_c, 0, 67, 20
1, 134536, Control_c, 0, 67, 22
1, 134551, Control_c, 0, 67, 23
1, 134565, Control_c, 0, 67, 23
1, 134595, Control_c, 0, 67, 24
1, 134609, Control_c, 0, 67, 24
1, 134624, Control_c, 0, 67, 26
1, 134639, Control_c, 0, 67, 28
1, 134654, Control_c, 0, 67, 30
1, 134669, Control_c, 0, 67, 32
1, 134683, Control_c, 0, 67, 35
1, 134698, Control_c, 0, 67, 40
1, 134713, Control_c, 0, 67, 43
1, 134729, Control_c, 0, 67, 47
1, 134744, Control_c, 0, 67, 50
1, 134759, Control_c, 0, 67, 53
1, 134774, Control_c, 0, 67, 55
1, 134788, Control_c, 0, 67, 58
1, 134803, Control_c, 0, 67, 62
1, 134818, Control_c, 0, 67, 66
1, 134833, Control_c, 0, 67, 70
1, 134848, Control_c, 0, 67, 73
1, 134862, Control_c, 0, 67, 75
1, 134877, Control_c, 0, 67, 77
1, 134892, Control_c, 0, 67, 79
1, 134906, Control_c, 0, 67, 82
1, 134921, Control_c, 0, 67, 86
1, 134936, Control_c, 0, 67, 89
1, 134951, Control_c, 0, 67, 92
1, 134966, Control_c, 0, 67, 95
1, 134980, Control_c, 0, 67, 98
1, 134995, Control_c, 0, 67, 101
1, 135010, Control_c, 0, 67, 105
1, 135025, Control_c, 0, 67, 107
1, 135040, Control_c, 0, 67, 109
1, 135055, Control_c, 0, 67, 111
1, 135070, Control_c, 0, 67, 113
1, 135085, Control_c, 0, 67, 115
1, 135100, Control_c, 0, 67, 117
1, 135114, Control_c, 0, 67, 119
1, 135129, Control_c, 0, 67, 121
1, 135144, Control_c, 0, 67, 123
1, 135159, Control_c, 0, 67, 125
1, 135173, Control_c, 0, 67, 127
1, 135299, Control_c, 0, 64, 16
1, 135314, Control_c, 0, 64, 39
1, 135329, Control_c, 0, 64, 51
1, 135344, Control_c, 0, 64, 56
1, 135359, Control_c, 0, 64, 58
1, 135374, Control_c, 0, 64, 59
1, 135387, Note_on_c, 0, 49, 33
1, 135388, Control_c, 0, 64, 60
1, 135403, Control_c, 0, 64, 62
1, 135418, Control_c, 0, 64, 65
1, 135432, Control_c, 0, 64, 69
1, 135447, Control_c, 0, 64, 73
1, 135462, Control_c, 0, 64, 76
1, 135477, Control_c, 0, 64, 78
1, 135492, Control_c, 0, 64, 79
1, 135506, Control_c, 0, 64, 80
1, 135521, Control_c, 0, 64, 82
1, 135537, Control_c, 0, 64, 84
1, 135552, Control_c, 0, 64, 86
1, 135567, Control_c, 0, 64, 88
1, 135582, Control_c, 0, 64, 89
1, 135597, Control_c, 0, 64, 90
1, 135600, Note_on_c, 0, 56, 32
1, 135626, Control_c, 0, 64, 90
1, 135648, Note_off_c, 0, 56, 47
1, 135675, Note_off_c, 0, 49, 43
1, 135711, Note_on_c, 0, 52, 30
1, 135754, Note_on_c, 0, 56, 39
1, 135805, Note_off_c, 0, 56, 46
1, 135821, Note_off_c, 0, 52, 29
1, 135848, Control_c, 0, 64, 90
1, 135854, Note_on_c, 0, 68, 66
1, 135863, Control_c, 0, 64, 88
1, 135866, Note_on_c, 0, 49, 40
1, 135878, Control_c, 0, 64, 84
1, 135892, Control_c, 0, 64, 78
1, 135907, Control_c, 0, 64, 72
1, 135922, Control_c, 0, 64, 66
1, 135934, Note_on_c, 0, 56, 35
1, 135937, Control_c, 0, 64, 62
1, 135959, Control_c, 0, 64, 60
1, 135974, Control_c, 0, 64, 61
1, 135989, Control_c, 0, 64, 63
1, 136003, Note_off_c, 0, 56, 59
1, 136003, Control_c, 0, 64, 64
1, 136003, Control_c, 0, 67, 127
1, 136018, Control_c, 0, 64, 65
1, 136018, Control_c, 0, 67, 125
1, 136022, Note_off_c, 0, 49, 45
1, 136033, Control_c, 0, 64, 66
1, 136033, Control_c, 0, 67, 124
1, 136047, Control_c, 0, 64, 67
1, 136047, Control_c, 0, 67, 122
1, 136049, Note_on_c, 0, 52, 40
1, 136062, Control_c, 0, 64, 68
1, 136062, Control_c, 0, 67, 120
1, 136077, Control_c, 0, 64, 69
1, 136077, Control_c, 0, 67, 119
1, 136092, Control_c, 0, 64, 70
1, 136101, Note_off_c, 0, 52, 57
1, 136107, Control_c, 0, 64, 71
1, 136107, Control_c, 0, 67, 119
1, 136122, Control_c, 0, 64, 71
1, 136137, Control_c, 0, 64, 72
1, 136152, Control_c, 0, 64, 73
1, 136167, Control_c, 0, 64, 73
1, 136167, Control_c, 0, 67, 118
1, 136178, Note_on_c, 0, 49, 44
1, 136182, Control_c, 0, 67, 118
1, 136211, Control_c, 0, 64, 74
1, 136235, Poly_aftertouch_c, 0, 56, 0
1, 136256, Control_c, 0, 64, 74
1, 136258, Note_on_c, 0, 56, 20
1, 136271, Control_c, 0, 67, 117
1, 136301, Control_c, 0, 67, 117
1, 136308, Note_off_c, 0, 56, 51
1, 136310, Note_off_c, 0, 49, 37
1, 136316, Control_c, 0, 64, 75
1, 136316, Control_c, 0, 67, 116
1, 136331, Control_c, 0, 67, 114
1, 136339, Note_on_c, 0, 52, 45
1, 136346, Control_c, 0, 67, 113
1, 136360, Control_c, 0, 67, 111
1, 136375, Control_c, 0, 67, 110
1, 136390, Control_c, 0, 67, 108
1, 136392, Note_off_c, 0, 52, 58
1, 136405, Control_c, 0, 67, 106
1, 136408, Note_on_c, 0, 56, 46
1, 136420, Control_c, 0, 67, 103
1, 136435, Control_c, 0, 67, 99
1, 136446, Note_on_c, 0, 64, 60
1, 136450, Control_c, 0, 67, 95
1, 136465, Control_c, 0, 67, 92
1, 136468, Note_off_c, 0, 56, 58
1, 136476, Note_off_c, 0, 68, 59
1, 136479, Control_c, 0, 67, 90
1, 136489, Note_on_c, 0, 49, 44
1, 136494, Control_c, 0, 67, 88
1, 136509, Control_c, 0, 67, 85
1, 136524, Control_c, 0, 67, 80
1, 136539, Control_c, 0, 67, 75
1, 136553, Control_c, 0, 67, 73
1, 136583, Control_c, 0, 64, 75
1, 136592, Note_on_c, 0, 56, 45
1, 136598, Control_c, 0, 67, 73
1, 136600, Note_off_c, 0, 49, 48
1, 136627, Control_c, 0, 67, 73
1, 136630, Note_off_c, 0, 56, 63
1, 136642, Control_c, 0, 67, 74
1, 136653, Note_on_c, 0, 52, 49
1, 136667, Note_off_c, 0, 64, 63
1, 136680, Note_on_c, 0, 61, 63
1, 136709, Control_c, 0, 67, 74
1, 136724, Control_c, 0, 67, 75
1, 136724, Note_off_c, 0, 52, 58
1, 136739, Control_c, 0, 67, 75
1, 136743, Note_off_c, 0, 61, 59
1, 136754, Note_on_c, 0, 56, 45
1, 136778, Note_on_c, 0, 60, 67
1, 136783, Control_c, 0, 67, 76
1, 136798, Control_c, 0, 64, 74
1, 136798, Control_c, 0, 67, 77
1, 136813, Control_c, 0, 64, 69
1, 136813, Control_c, 0, 67, 77
1, 136827, Control_c, 0, 64, 59
1, 136827, Control_c, 0, 67, 78
1, 136832, Note_off_c, 0, 56, 61
1, 136836, Note_off_c, 0, 60, 58
1, 136842, Control_c, 0, 64, 0
1, 136846, Note_on_c, 0, 61, 71
1, 136853, Note_on_c, 0, 51, 50
1, 136876, Note_off_c, 0, 61, 63
1, 136886, Control_c, 0, 67, 78
1, 136900, Note_on_c, 0, 63, 66
1, 136915, Control_c, 0, 67, 79
1, 136930, Note_off_c, 0, 51, 54
1, 136948, Note_on_c, 0, 61, 67
1, 136954, Note_on_c, 0, 56, 46
1, 136966, Note_off_c, 0, 63, 60
1, 136989, Note_off_c, 0, 56, 63
1, 137012, Note_on_c, 0, 54, 52
1, 137098, Note_off_c, 0, 54, 52
1, 137108, Control_c, 0, 67, 78
1, 137109, Note_on_c, 0, 56, 47
1, 137124, Control_c, 0, 67, 77
1, 137149, Note_off_c, 0, 56, 62
1, 137153, Control_c, 0, 67, 77
1, 137180, Note_on_c, 0, 60, 60
1, 137183, Control_c, 0, 67, 76
1, 137183, Note_on_c, 0, 51, 45
1, 137198, Control_c, 0, 64, 24
1, 137198, Control_c, 0, 67, 76
1, 137210, Note_off_c, 0, 61, 56
1, 137213, Control_c, 0, 64, 33
1, 137228, Control_c, 0, 64, 41
1, 137243, Control_c, 0, 64, 49
1, 137243, Control_c, 0, 67, 75
1, 137257, Control_c, 0, 64, 54
1, 137267, Note_on_c, 0, 56, 41
1, 137272, Control_c, 0, 64, 56
1, 137287, Note_off_c, 0, 51, 52
1, 137301, Control_c, 0, 64, 56
1, 137316, Control_c, 0, 64, 58
1, 137317, Note_off_c, 0, 56, 60
1, 137331, Control_c, 0, 64, 60
1, 137346, Control_c, 0, 64, 62
1, 137346, Control_c, 0, 67, 76
1, 137348, Note_on_c, 0, 54, 50
1, 137361, Control_c, 0, 64, 62
1, 137375, Control_c, 0, 64, 61
1, 137390, Control_c, 0, 64, 60
1, 137414, Note_off_c, 0, 54, 58
1, 137419, Control_c, 0, 64, 61
1, 137428, Note_on_c, 0, 56, 54
1, 137434, Control_c, 0, 64, 62
1, 137457, Control_c, 0, 64, 62
1, 137472, Control_c, 0, 67, 75
1, 137472, Note_off_c, 0, 56, 64
1, 137501, Note_on_c, 0, 51, 52
1, 137501, Note_off_c, 0, 60, 63
1, 137501, Control_c, 0, 67, 75
1, 137546, Control_c, 0, 67, 74
1, 137562, Note_on_c, 0, 56, 55
1, 137573, Note_off_c, 0, 51, 55
1, 137575, Control_c, 0, 67, 74
1, 137590, Control_c, 0, 67, 73
1, 137605, Control_c, 0, 67, 73
1, 137619, Note_off_c, 0, 56, 58
1, 137629, Note_on_c, 0, 60, 69
1, 137634, Control_c, 0, 64, 63
1, 137634, Control_c, 0, 67, 72
1, 137641, Note_on_c, 0, 54, 62
1, 137649, Control_c, 0, 67, 70
1, 137664, Control_c, 0, 67, 65
1, 137679, Control_c, 0, 67, 61
1, 137694, Control_c, 0, 67, 61
1, 137703, Note_off_c, 0, 54, 54
1, 137708, Control_c, 0, 67, 62
1, 137723, Control_c, 0, 67, 63
1, 137729, Note_on_c, 0, 56, 61
1, 137738, Control_c, 0, 67, 64
1, 137753, Control_c, 0, 67, 64
1, 137768, Control_c, 0, 64, 62
1, 137774, Note_off_c, 0, 56, 60
1, 137782, Control_c, 0, 64, 62
1, 137782, Control_c, 0, 67, 65
1, 137790, Note_on_c, 0, 68, 75
1, 137797, Control_c, 0, 64, 61
1, 137797, Control_c, 0, 67, 66
1, 137802, Note_on_c, 0, 51, 54
1, 137812, Control_c, 0, 64, 60
1, 137812, Control_c, 0, 67, 66
1, 137827, Control_c, 0, 64, 59
1, 137827, Control_c, 0, 67, 67
1, 137827, Note_off_c, 0, 60, 63
1, 137842, Control_c, 0, 64, 57
1, 137857, Control_c, 0, 64, 54
1, 137872, Control_c, 0, 64, 53
1, 137880, Note_on_c, 0, 56, 54
1, 137887, Control_c, 0, 64, 52
1, 137916, Control_c, 0, 64, 52
1, 137925, Note_off_c, 0, 56, 61
1, 137931, Control_c, 0, 64, 50
1, 137946, Control_c, 0, 64, 48
1, 137959, Note_off_c, 0, 51, 50
1, 137961, Control_c, 0, 64, 47
1, 137967, Note_on_c, 0, 54, 47
1, 138006, Control_c, 0, 64, 46
1, 138021, Control_c, 0, 64, 44
1, 138021, Note_off_c, 0, 54, 56
1, 138029, Note_on_c, 0, 60, 68
1, 138036, Control_c, 0, 64, 39
1, 138048, Note_on_c, 0, 56, 47
1, 138050, Control_c, 0, 64, 29
1, 138065, Control_c, 0, 64, 0
1, 138065, Control_c, 0, 67, 67
1, 138098, Note_off_c, 0, 56, 61
1, 138110, Control_c, 0, 67, 68
1, 138120, Note_on_c, 0, 52, 51
1, 138124, Note_on_c, 0, 63, 71
1, 138141, Note_off_c, 0, 60, 57
1, 138146, Note_off_c, 0, 68, 56
1, 138154, Control_c, 0, 67, 68
1, 138184, Control_c, 0, 67, 69
1, 138217, Note_off_c, 0, 52, 62
1, 138237, Note_on_c, 0, 56, 43
1, 138250, Control_c, 0, 64, 22
1, 138265, Control_c, 0, 64, 33
1, 138280, Control_c, 0, 64, 38
1, 138285, Note_off_c, 0, 56, 61
1, 138295, Control_c, 0, 64, 41
1, 138310, Control_c, 0, 64, 45
1, 138324, Control_c, 0, 64, 48
1, 138324, Control_c, 0, 67, 69
1, 138338, Note_on_c, 0, 52, 44
1, 138339, Control_c, 0, 64, 50
1, 138354, Control_c, 0, 64, 52
1, 138369, Control_c, 0, 64, 53
1, 138381, Note_off_c, 0, 52, 61
1, 138384, Control_c, 0, 64, 54
1, 138398, Control_c, 0, 64, 55
1, 138403, Note_on_c, 0, 56, 42
1, 138428, Control_c, 0, 64, 54
1, 138443, Control_c, 0, 64, 53
1, 138447, Note_off_c, 0, 56, 60
1, 138468, Note_on_c, 0, 61, 46
1, 138472, Control_c, 0, 64, 54
1, 138487, Note_on_c, 0, 52, 48
1, 138487, Control_c, 0, 64, 56
1, 138502, Control_c, 0, 64, 57
1, 138504, Note_off_c, 0, 63, 57
1, 138517, Control_c, 0, 64, 59
1, 138531, Note_off_c, 0, 52, 61
1, 138546, Control_c, 0, 64, 58
1, 138548, Note_on_c, 0, 56, 54
1, 138561, Control_c, 0, 64, 57
1, 138576, Control_c, 0, 64, 54
1, 138591, Control_c, 0, 64, 52
1, 138595, Note_off_c, 0, 56, 59
1, 138605, Control_c, 0, 64, 53
1, 138605, Control_c, 0, 67, 69
1, 138620, Control_c, 0, 64, 55
1, 138629, Note_on_c, 0, 52, 52
1, 138635, Control_c, 0, 64, 57
1, 138635, Control_c, 0, 67, 68
1, 138650, Control_c, 0, 64, 57
1, 138665, Control_c, 0, 64, 57
1, 138676, Note_off_c, 0, 52, 61
1, 138680, Control_c, 0, 64, 56
1, 138680, Control_c, 0, 67, 68
1, 138694, Control_c, 0, 64, 56
1, 138704, Note_on_c, 0, 56, 46
1, 138709, Control_c, 0, 64, 56
1, 138725, Control_c, 0, 64, 57
1, 138739, Control_c, 0, 64, 57
1, 138743, Note_off_c, 0, 56, 62
1, 138754, Control_c, 0, 67, 67
1, 138770, Note_on_c, 0, 52, 57
1, 138799, Control_c, 0, 67, 67
1, 138802, Note_off_c, 0, 61, 59
1, 138814, Control_c, 0, 64, 58
1, 138814, Control_c, 0, 67, 66
1, 138822, Note_off_c, 0, 52, 62
1, 138829, Control_c, 0, 64, 59
1, 138829, Control_c, 0, 67, 66
1, 138844, Note_on_c, 0, 56, 54
1, 138844, Control_c, 0, 64, 58
1, 138844, Control_c, 0, 67, 65
1, 138858, Control_c, 0, 64, 57
1, 138858, Control_c, 0, 67, 64
1, 138873, Control_c, 0, 64, 56
1, 138873, Control_c, 0, 67, 63
1, 138888, Control_c, 0, 64, 57
1, 138888, Control_c, 0, 67, 62
1, 138896, Note_off_c, 0, 56, 58
1, 138901, Note_on_c, 0, 61, 73
1, 138903, Control_c, 0, 67, 62
1, 138918, Control_c, 0, 64, 57
1, 138918, Control_c, 0, 67, 61
1, 138930, Note_on_c, 0, 52, 56
1, 138933, Control_c, 0, 64, 57
1, 138954, Control_c, 0, 64, 56
1, 138978, Note_off_c, 0, 52, 64
1, 138999, Control_c, 0, 64, 56
1, 139010, Note_on_c, 0, 56, 55
1, 139014, Control_c, 0, 64, 55
1, 139014, Control_c, 0, 67, 62
1, 139028, Control_c, 0, 67, 63
1, 139052, Note_off_c, 0, 56, 61
1, 139058, Control_c, 0, 64, 56
1, 139063, Note_on_c, 0, 68, 75
1, 139065, Note_on_c, 0, 52, 56
1, 139073, Control_c, 0, 64, 56
1, 139079, Note_off_c, 0, 61, 59
1, 139088, Control_c, 0, 67, 62
1, 139112, Note_off_c, 0, 52, 61
1, 139118, Control_c, 0, 67, 62
1, 139133, Control_c, 0, 67, 61
1, 139142, Note_on_c, 0, 56, 54
1, 139147, Control_c, 0, 64, 57
1, 139177, Control_c, 0, 67, 62
1, 139187, Note_off_c, 0, 56, 61
1, 139192, Control_c, 0, 67, 63
1, 139207, Control_c, 0, 67, 63
1, 139211, Note_on_c, 0, 52, 60
1, 139237, Control_c, 0, 64, 56
1, 139252, Control_c, 0, 64, 52
1, 139252, Control_c, 0, 67, 64
1, 139257, Note_off_c, 0, 52, 62
1, 139267, Control_c, 0, 64, 37
1, 139267, Control_c, 0, 67, 64
1, 139281, Control_c, 0, 64, 0
1, 139294, Note_on_c, 0, 56, 50
1, 139294, Note_on_c, 0, 61, 63
1, 139341, Note_off_c, 0, 56, 58
1, 139354, Note_on_c, 0, 64, 71
1, 139354, Note_off_c, 0, 68, 60
1, 139362, Note_on_c, 0, 48, 56
1, 139371, Note_off_c, 0, 61, 57
1, 139429, Control_c, 0, 64, 23
1, 139444, Control_c, 0, 64, 27
1, 139459, Control_c, 0, 64, 29
1, 139470, Note_on_c, 0, 56, 38
1, 139473, Control_c, 0, 64, 31
1, 139488, Control_c, 0, 64, 36
1, 139499, Note_off_c, 0, 48, 0
1, 139503, Control_c, 0, 64, 38
1, 139519, Control_c, 0, 64, 37
1, 139520, Note_off_c, 0, 56, 56
1, 139523, Note_on_c, 0, 48, 25
1, 139534, Control_c, 0, 64, 35
1, 139549, Control_c, 0, 64, 34
1, 139564, Control_c, 0, 64, 35
1, 139578, Control_c, 0, 64, 37
1, 139593, Control_c, 0, 64, 38
1, 139606, Note_off_c, 0, 48, 55
1, 139608, Control_c, 0, 64, 37
1, 139623, Control_c, 0, 64, 35
1, 139633, Note_on_c, 0, 56, 39
1, 139638, Control_c, 0, 64, 35
1, 139652, Control_c, 0, 64, 35
1, 139667, Control_c, 0, 64, 37
1, 139671, Note_on_c, 0, 63, 48
1, 139671, Note_off_c, 0, 56, 52
1, 139682, Control_c, 0, 64, 42
1, 139698, Note_off_c, 0, 64, 60
1, 139699, Note_on_c, 0, 48, 37
1, 139704, Control_c, 0, 64, 43
1, 139719, Control_c, 0, 64, 41
1, 139734, Control_c, 0, 64, 36
1, 139749, Control_c, 0, 64, 35
1, 139754, Note_off_c, 0, 48, 57
1, 139764, Control_c, 0, 64, 36
1, 139771, Note_on_c, 0, 56, 42
1, 139778, Control_c, 0, 64, 39
1, 139793, Control_c, 0, 64, 45
1, 139808, Control_c, 0, 64, 49
1, 139819, Note_off_c, 0, 56, 59
1, 139822, Control_c, 0, 64, 47
1, 139837, Control_c, 0, 64, 43
1, 139846, Note_on_c, 0, 48, 39
1, 139852, Control_c, 0, 64, 42
1, 139867, Control_c, 0, 64, 43
1, 139882, Control_c, 0, 64, 45
1, 139895, Note_off_c, 0, 48, 55
1, 139897, Control_c, 0, 64, 47
1, 139911, Control_c, 0, 64, 44
1, 139919, Note_on_c, 0, 56, 49
1, 139926, Control_c, 0, 64, 37
1, 139941, Control_c, 0, 64, 33
1, 139956, Control_c, 0, 64, 35
1, 139968, Note_off_c, 0, 56, 59
1, 139970, Control_c, 0, 64, 41
1, 139985, Control_c, 0, 64, 48
1, 139998, Note_on_c, 0, 48, 55
1, 140000, Control_c, 0, 64, 53
1, 140006, Note_off_c, 0, 63, 61
1, 140030, Control_c, 0, 64, 51
1, 140041, Note_off_c, 0, 48, 61
1, 140060, Control_c, 0, 64, 52
1, 140064, Note_on_c, 0, 56, 52
1, 140075, Control_c, 0, 64, 53
1, 140104, Control_c, 0, 64, 50
1, 140114, Note_off_c, 0, 56, 58
1, 140119, Control_c, 0, 64, 47
1, 140127, Note_on_c, 0, 63, 62
1, 140134, Control_c, 0, 64, 45
1, 140137, Note_on_c, 0, 48, 51
1, 140149, Control_c, 0, 64, 46
1, 140164, Control_c, 0, 64, 49
1, 140178, Control_c, 0, 64, 52
1, 140181, Note_off_c, 0, 48, 60
1, 140208, Control_c, 0, 64, 50
1, 140212, Note_on_c, 0, 56, 52
1, 140222, Control_c, 0, 64, 48
1, 140252, Control_c, 0, 64, 49
1, 140253, Note_off_c, 0, 56, 62
1, 140268, Note_on_c, 0, 48, 58
1, 140268, Note_on_c, 0, 68, 65
1, 140272, Note_off_c, 0, 63, 59
1, 140282, Control_c, 0, 64, 48
1, 140296, Control_c, 0, 64, 47
1, 140311, Control_c, 0, 64, 46
1, 140314, Note_off_c, 0, 48, 58
1, 140340, Note_on_c, 0, 56, 55
1, 140372, Control_c, 0, 64, 46
1, 140385, Note_off_c, 0, 56, 60
1, 140387, Control_c, 0, 64, 45
1, 140416, Note_on_c, 0, 48, 43
1, 140431, Control_c, 0, 64, 45
1, 140453, Control_c, 0, 64, 44
1, 140465, Note_off_c, 0, 48, 59
1, 140468, Control_c, 0, 64, 40
1, 140468, Control_c, 0, 67, 64
1, 140483, Control_c, 0, 64, 34
1, 140483, Note_on_c, 0, 63, 57
1, 140494, Note_on_c, 0, 56, 57
1, 140495, Note_off_c, 0, 68, 59
1, 140498, Control_c, 0, 64, 29
1, 140513, Control_c, 0, 64, 29
1, 140513, Control_c, 0, 67, 63
1, 140527, Control_c, 0, 64, 27
1, 140542, Control_c, 0, 64, 21
1, 140552, Note_off_c, 0, 63, 62
1, 140555, Note_on_c, 0, 64, 65
1, 140557, Control_c, 0, 64, 13
1, 140561, Note_off_c, 0, 56, 63
1, 140572, Note_on_c, 0, 49, 59
1, 140572, Control_c, 0, 64, 0
1, 140577, Note_off_c, 0, 64, 66
1, 140654, Note_on_c, 0, 56, 49
1, 140663, Note_off_c, 0, 49, 57
1, 140695, Note_off_c, 0, 56, 64
1, 140715, Note_on_c, 0, 52, 53
1, 140723, Note_on_c, 0, 80, 55
1, 140739, Note_on_c, 0, 68, 34
1, 140760, Note_off_c, 0, 52, 60
1, 140771, Note_off_c, 0, 80, 0
1, 140771, Note_on_c, 0, 80, 23
1, 140784, Note_on_c, 0, 56, 57
1, 140830, Note_off_c, 0, 56, 61
1, 140844, Note_on_c, 0, 49, 60
1, 140862, Note_off_c, 0, 68, 63
1, 140864, Note_off_c, 0, 80, 59
1, 140925, Note_on_c, 0, 56, 57
1, 140948, Note_off_c, 0, 49, 50
1, 140971, Control_c, 0, 67, 63
1, 140973, Note_off_c, 0, 56, 61
1, 140986, Control_c, 0, 67, 62
1, 140992, Note_on_c, 0, 80, 65
1, 140999, Note_on_c, 0, 52, 54
1, 141004, Note_on_c, 0, 68, 53
1, 141015, Control_c, 0, 67, 62
1, 141059, Control_c, 0, 67, 61
1, 141061, Note_off_c, 0, 52, 59
1, 141074, Control_c, 0, 67, 61
1, 141089, Control_c, 0, 67, 60
1, 141094, Note_on_c, 0, 56, 40
1, 141125, Note_off_c, 0, 56, 53
1, 141133, Note_on_c, 0, 49, 59
1, 141135, Control_c, 0, 67, 60
1, 141162, Note_off_c, 0, 68, 62
1, 141164, Control_c, 0, 67, 59
1, 141171, Note_off_c, 0, 80, 60
1, 141179, Control_c, 0, 67, 57
1, 141201, Control_c, 0, 67, 54
1, 141205, Note_on_c, 0, 56, 57
1, 141216, Control_c, 0, 67, 53
1, 141234, Note_off_c, 0, 49, 55
1, 141263, Note_off_c, 0, 56, 58
1, 141283, Note_on_c, 0, 68, 72
1, 141284, Note_on_c, 0, 52, 54
1, 141284, Note_on_c, 0, 80, 74
1, 141290, Control_c, 0, 67, 54
1, 141307, Note_off_c, 0, 80, 68
1, 141309, Note_off_c, 0, 68, 70
1, 141335, Control_c, 0, 67, 53
1, 141341, Note_off_c, 0, 52, 60
1, 141349, Control_c, 0, 67, 53
1, 141364, Control_c, 0, 67, 52
1, 141365, Note_on_c, 0, 56, 52
1, 141379, Control_c, 0, 67, 52
1, 141394, Control_c, 0, 67, 50
1, 141407, Note_off_c, 0, 56, 61
1, 141409, Control_c, 0, 67, 48
1, 141410, Note_on_c, 0, 49, 62
1, 141423, Control_c, 0, 67, 47
1, 141432, Note_on_c, 0, 76, 67
1, 141434, Note_on_c, 0, 64, 67
1, 141438, Control_c, 0, 67, 45
1, 141451, Note_off_c, 0, 76, 65
1, 141453, Note_off_c, 0, 64, 66
1, 141453, Control_c, 0, 67, 44
1, 141467, Control_c, 0, 67, 43
1, 141482, Control_c, 0, 67, 42
1, 141497, Control_c, 0, 67, 40
1, 141506, Note_on_c, 0, 56, 56
1, 141512, Control_c, 0, 67, 37
1, 141526, Note_off_c, 0, 49, 60
1, 141527, Control_c, 0, 67, 36
1, 141541, Control_c, 0, 67, 35
1, 141544, Note_off_c, 0, 56, 63
1, 141550, Note_on_c, 0, 52, 53
1, 141567, Note_on_c, 0, 73, 77
1, 141569, Note_on_c, 0, 61, 73
1, 141594, Note_off_c, 0, 61, 66
1, 141595, Note_off_c, 0, 73, 59
1, 141616, Note_off_c, 0, 52, 62
1, 141646, Note_on_c, 0, 56, 54
1, 141646, Control_c, 0, 67, 35
1, 141692, Note_off_c, 0, 56, 60
1, 141696, Note_on_c, 0, 61, 73
1, 141702, Note_on_c, 0, 73, 76
1, 141705, Note_on_c, 0, 51, 62
1, 141734, Note_off_c, 0, 61, 63
1, 141747, Note_off_c, 0, 73, 62
1, 141749, Control_c, 0, 67, 34
1, 141764, Control_c, 0, 67, 34
1, 141779, Control_c, 0, 67, 31
1, 141784, Note_off_c, 0, 51, 60
1, 141789, Note_on_c, 0, 56, 61
1, 141793, Control_c, 0, 67, 28
1, 141808, Control_c, 0, 67, 25
1, 141823, Control_c, 0, 67, 24
1, 141831, Note_off_c, 0, 56, 62
1, 141838, Control_c, 0, 67, 23
1, 141848, Note_on_c, 0, 72, 68
1, 141850, Note_on_c, 0, 54, 54
1, 141861, Note_on_c, 0, 60, 55
1, 141867, Control_c, 0, 67, 23
1, 141882, Control_c, 0, 67, 22
1, 141897, Control_c, 0, 67, 22
1, 141913, Control_c, 0, 67, 20
1, 141917, Note_off_c, 0, 54, 60
1, 141928, Control_c, 0, 67, 19
1, 141946, Note_on_c, 0, 56, 55
1, 141950, Control_c, 0, 67, 17
1, 141965, Control_c, 0, 67, 15
1, 141973, Note_off_c, 0, 56, 58
1, 141979, Control_c, 0, 67, 14
1, 141988, Note_on_c, 0, 51, 59
1, 141994, Control_c, 0, 64, 17
1, 141994, Control_c, 0, 67, 13
1, 142009, Control_c, 0, 64, 21
1, 142009, Control_c, 0, 67, 12
1, 142024, Control_c, 0, 64, 25
1, 142039, Control_c, 0, 64, 34
1, 142039, Control_c, 0, 67, 11
1, 142045, Note_on_c, 0, 56, 64
1, 142048, Note_off_c, 0, 60, 61
1, 142050, Note_off_c, 0, 51, 59
1, 142053, Note_off_c, 0, 72, 58
1, 142054, Control_c, 0, 64, 43
1, 142069, Control_c, 0, 64, 51
1, 142084, Control_c, 0, 64, 56
1, 142098, Control_c, 0, 64, 58
1, 142111, Note_off_c, 0, 56, 62
1, 142113, Control_c, 0, 64, 59
1, 142125, Note_on_c, 0, 54, 64
1, 142128, Control_c, 0, 64, 58
1, 142143, Control_c, 0, 64, 58
1, 142155, Note_on_c, 0, 72, 73
1, 142158, Control_c, 0, 64, 56
1, 142164, Note_on_c, 0, 60, 62
1, 142173, Control_c, 0, 64, 52
1, 142188, Control_c, 0, 64, 46
1, 142200, Note_off_c, 0, 54, 61
1, 142203, Control_c, 0, 64, 37
1, 142213, Note_on_c, 0, 56, 63
1, 142217, Control_c, 0, 64, 26
1, 142232, Control_c, 0, 64, 17
1, 142247, Control_c, 0, 64, 20
1, 142251, Note_off_c, 0, 56, 61
1, 142262, Control_c, 0, 64, 30
1, 142272, Note_on_c, 0, 51, 63
1, 142277, Control_c, 0, 64, 39
1, 142277, Control_c, 0, 67, 11
1, 142291, Control_c, 0, 64, 46
1, 142306, Control_c, 0, 64, 50
1, 142306, Control_c, 0, 67, 10
1, 142318, Note_off_c, 0, 72, 58
1, 142321, Control_c, 0, 64, 53
1, 142321, Control_c, 0, 67, 10
1, 142322, Note_off_c, 0, 60, 61
1, 142336, Note_off_c, 0, 51, 60
1, 142336, Control_c, 0, 67, 9
1, 142337, Note_on_c, 0, 56, 62
1, 142351, Control_c, 0, 67, 9
1, 142365, Control_c, 0, 67, 8
1, 142395, Control_c, 0, 64, 53
1, 142398, Note_off_c, 0, 56, 59
1, 142410, Control_c, 0, 64, 54
1, 142415, Note_on_c, 0, 54, 63
1, 142424, Note_on_c, 0, 72, 74
1, 142439, Control_c, 0, 64, 53
1, 142442, Note_on_c, 0, 60, 37
1, 142448, Note_off_c, 0, 72, 65
1, 142454, Control_c, 0, 64, 52
1, 142469, Control_c, 0, 67, 0
1, 142474, Note_off_c, 0, 60, 34
1, 142479, Note_off_c, 0, 54, 59
1, 142483, Control_c, 0, 64, 52
1, 142498, Control_c, 0, 64, 51
1, 142501, Note_on_c, 0, 56, 65
1, 142513, Control_c, 0, 64, 50
1, 142528, Control_c, 0, 64, 49
1, 142543, Note_off_c, 0, 56, 60
1, 142543, Control_c, 0, 64, 50
1, 142551, Note_on_c, 0, 68, 82
1, 142552, Note_on_c, 0, 80, 84
1, 142558, Control_c, 0, 64, 50
1, 142559, Note_on_c, 0, 51, 61
1, 142570, Note_off_c, 0, 80, 73
1, 142571, Note_off_c, 0, 68, 72
1, 142617, Control_c, 0, 64, 50
1, 142641, Note_on_c, 0, 56, 58
1, 142643, Note_off_c, 0, 51, 56
1, 142647, Control_c, 0, 64, 50
1, 142683, Note_off_c, 0, 56, 62
1, 142698, Control_c, 0, 64, 51
1, 142701, Note_on_c, 0, 72, 79
1, 142705, Note_on_c, 0, 60, 73
1, 142707, Note_on_c, 0, 54, 61
1, 142714, Control_c, 0, 64, 51
1, 142724, Note_off_c, 0, 72, 71
1, 142729, Control_c, 0, 64, 49
1, 142734, Note_off_c, 0, 60, 67
1, 142744, Control_c, 0, 64, 37
1, 142759, Control_c, 0, 64, 0
1, 142793, Note_off_c, 0, 54, 61
1, 142810, Note_on_c, 0, 56, 44
1, 142829, Note_on_c, 0, 52, 54
1, 142847, Note_on_c, 0, 75, 75
1, 142848, Note_on_c, 0, 63, 75
1, 142849, Note_off_c, 0, 56, 52
1, 142869, Note_off_c, 0, 75, 69
1, 142874, Note_off_c, 0, 63, 68
1, 142892, Control_c, 0, 64, 33
1, 142907, Control_c, 0, 64, 43
1, 142918, Note_off_c, 0, 52, 62
1, 142921, Control_c, 0, 64, 45
1, 142940, Note_on_c, 0, 56, 57
1, 142951, Control_c, 0, 64, 46
1, 142966, Control_c, 0, 64, 49
1, 142981, Control_c, 0, 64, 54
1, 142990, Note_on_c, 0, 73, 69
1, 142993, Note_off_c, 0, 56, 56
1, 142994, Note_on_c, 0, 61, 58
1, 142996, Control_c, 0, 64, 58
1, 143007, Note_on_c, 0, 52, 50
1, 143026, Control_c, 0, 64, 56
1, 143040, Control_c, 0, 64, 55
1, 143055, Control_c, 0, 64, 56
1, 143070, Control_c, 0, 64, 57
1, 143072, Note_off_c, 0, 52, 61
1, 143085, Control_c, 0, 64, 59
1, 143100, Control_c, 0, 64, 61
1, 143106, Note_on_c, 0, 56, 51
1, 143114, Control_c, 0, 64, 62
1, 143129, Control_c, 0, 64, 63
1, 143138, Note_off_c, 0, 56, 61
1, 143144, Control_c, 0, 64, 63
1, 143148, Note_on_c, 0, 52, 52
1, 143174, Control_c, 0, 64, 64
1, 143181, Note_off_c, 0, 61, 63
1, 143184, Note_off_c, 0, 73, 63
1, 143203, Control_c, 0, 64, 63
1, 143218, Control_c, 0, 64, 62
1, 143222, Note_off_c, 0, 52, 63
1, 143233, Note_on_c, 0, 56, 56
1, 143233, Control_c, 0, 64, 61
1, 143262, Control_c, 0, 64, 62
1, 143277, Note_on_c, 0, 73, 76
1, 143277, Control_c, 0, 64, 64
1, 143286, Note_on_c, 0, 61, 64
1, 143286, Note_off_c, 0, 56, 59
1, 143292, Control_c, 0, 64, 65
1, 143295, Note_on_c, 0, 52, 55
1, 143307, Control_c, 0, 64, 65
1, 143321, Control_c, 0, 64, 66
1, 143336, Control_c, 0, 64, 66
1, 143366, Control_c, 0, 64, 65
1, 143368, Note_off_c, 0, 52, 63
1, 143380, Control_c, 0, 64, 63
1, 143382, Note_on_c, 0, 56, 65
1, 143395, Control_c, 0, 64, 59
1, 143410, Control_c, 0, 64, 57
1, 143425, Control_c, 0, 64, 57
1, 143429, Note_off_c, 0, 56, 59
1, 143442, Note_on_c, 0, 52, 60
1, 143447, Control_c, 0, 64, 59
1, 143462, Control_c, 0, 64, 61
1, 143477, Control_c, 0, 64, 62
1, 143479, Note_off_c, 0, 61, 60
1, 143485, Note_off_c, 0, 73, 60
1, 143492, Control_c, 0, 64, 63
1, 143516, Note_off_c, 0, 52, 63
1, 143531, Note_on_c, 0, 56, 67
1, 143575, Note_on_c, 0, 61, 65
1, 143577, Note_on_c, 0, 73, 76
1, 143585, Note_off_c, 0, 56, 60
1, 143591, Note_on_c, 0, 52, 64
1, 143595, Note_off_c, 0, 61, 65
1, 143597, Control_c, 0, 64, 62
1, 143604, Note_off_c, 0, 73, 66
1, 143650, Note_off_c, 0, 52, 61
1, 143664, Note_on_c, 0, 56, 68
1, 143711, Note_on_c, 0, 80, 77
1, 143714, Note_off_c, 0, 56, 57
1, 143715, Note_on_c, 0, 68, 73
1, 143728, Note_on_c, 0, 52, 61
1, 143733, Note_off_c, 0, 80, 71
1, 143739, Note_off_c, 0, 68, 70
1, 143744, Control_c, 0, 64, 62
1, 143763, Note_off_c, 0, 52, 62
1, 143774, Control_c, 0, 64, 61
1, 143790, Note_on_c, 0, 56, 68
1, 143819, Control_c, 0, 64, 62
1, 143829, Note_off_c, 0, 56, 53
1, 143841, Note_on_c, 0, 52, 67
1, 143847, Note_on_c, 0, 73, 90
1, 143848, Note_on_c, 0, 61, 82
1, 143848, Control_c, 0, 64, 63
1, 143875, Note_off_c, 0, 61, 66
1, 143893, Control_c, 0, 64, 59
1, 143897, Note_off_c, 0, 73, 61
1, 143908, Control_c, 0, 64, 30
1, 143909, Note_on_c, 0, 56, 69
1, 143911, Note_off_c, 0, 52, 61
1, 143923, Control_c, 0, 64, 0
1, 143953, Note_off_c, 0, 56, 60
1, 143988, Note_on_c, 0, 48, 76
1, 143988, Note_on_c, 0, 76, 87
1, 143992, Note_on_c, 0, 64, 82
1, 144008, Note_off_c, 0, 76, 72
1, 144014, Note_off_c, 0, 64, 70
1, 144064, Note_on_c, 0, 56, 66
1, 144069, Note_off_c, 0, 48, 62
1, 144141, Note_off_c, 0, 56, 59
1, 144145, Note_on_c, 0, 48, 63
1, 144150, Note_on_c, 0, 75, 78
1, 144154, Note_on_c, 0, 63, 74
1, 144222, Note_on_c, 0, 56, 54
1, 144222, Note_off_c, 0, 48, 62
1, 144241, Control_c, 0, 64, 25
1, 144256, Control_c, 0, 64, 52
1, 144270, Control_c, 0, 64, 60
1, 144283, Note_off_c, 0, 56, 58
1, 144284, Note_on_c, 0, 48, 65
1, 144285, Control_c, 0, 64, 62
1, 144300, Control_c, 0, 64, 62
1, 144316, Control_c, 0, 64, 63
1, 144331, Control_c, 0, 64, 63
1, 144346, Control_c, 0, 64, 64
1, 144355, Note_on_c, 0, 56, 61
1, 144360, Note_off_c, 0, 48, 63
1, 144361, Control_c, 0, 64, 66
1, 144366, Note_off_c, 0, 63, 62
1, 144370, Note_off_c, 0, 75, 60
1, 144375, Control_c, 0, 64, 66
1, 144390, Control_c, 0, 64, 65
1, 144405, Control_c, 0, 64, 63
1, 144419, Control_c, 0, 64, 62
1, 144421, Note_on_c, 0, 48, 65
1, 144423, Note_off_c, 0, 56, 62
1, 144434, Control_c, 0, 64, 62
1, 144441, Note_on_c, 0, 75, 86
1, 144448, Note_on_c, 0, 63, 83
1, 144449, Control_c, 0, 64, 64
1, 144464, Control_c, 0, 64, 65
1, 144479, Control_c, 0, 64, 66
1, 144493, Control_c, 0, 64, 67
1, 144495, Note_on_c, 0, 56, 62
1, 144501, Note_off_c, 0, 48, 62
1, 144508, Control_c, 0, 64, 68
1, 144523, Control_c, 0, 64, 68
1, 144553, Control_c, 0, 64, 69
1, 144556, Note_off_c, 0, 56, 60
1, 144561, Note_on_c, 0, 48, 61
1, 144567, Control_c, 0, 64, 69
1, 144582, Control_c, 0, 64, 70
1, 144597, Control_c, 0, 64, 70
1, 144612, Control_c, 0, 64, 71
1, 144626, Note_on_c, 0, 56, 66
1, 144626, Note_off_c, 0, 48, 62
1, 144634, Note_off_c, 0, 63, 61
1, 144638, Note_off_c, 0, 75, 58
1, 144696, Note_off_c, 0, 56, 58
1, 144706, Note_on_c, 0, 48, 65
1, 144726, Note_on_c, 0, 63, 76
1, 144728, Note_on_c, 0, 75, 79
1, 144731, Control_c, 0, 64, 70
1, 144749, Note_off_c, 0, 63, 69
1, 144762, Note_on_c, 0, 56, 64
1, 144765, Note_off_c, 0, 48, 60
1, 144774, Note_off_c, 0, 75, 58
1, 144775, Control_c, 0, 64, 70
1, 144790, Control_c, 0, 64, 69
1, 144805, Control_c, 0, 64, 69
1, 144827, Note_off_c, 0, 56, 61
1, 144837, Note_on_c, 0, 48, 67
1, 144865, Note_on_c, 0, 80, 88
1, 144868, Note_on_c, 0, 68, 83
1, 144889, Note_off_c, 0, 68, 71
1, 144893, Note_off_c, 0, 80, 64
1, 144895, Note_off_c, 0, 48, 60
1, 144899, Note_on_c, 0, 56, 60
1, 144955, Note_off_c, 0, 56, 56
1, 144970, Note_on_c, 0, 48, 61
1, 145004, Note_on_c, 0, 75, 90
1, 145005, Note_on_c, 0, 63, 86
1, 145019, Control_c, 0, 64, 67
1, 145032, Note_off_c, 0, 63, 65
1, 145034, Control_c, 0, 64, 58
1, 145047, Note_on_c, 0, 56, 72
1, 145049, Control_c, 0, 64, 0
1, 145052, Note_off_c, 0, 48, 62
1, 145056, Note_off_c, 0, 75, 63
1, 145123, Note_off_c, 0, 56, 57
1, 145151, Note_on_c, 0, 47, 77
1, 145152, Note_on_c, 0, 77, 96
1, 145154, Control_c, 0, 64, 62
1, 145157, Note_on_c, 0, 65, 94
1, 145169, Control_c, 0, 64, 67
1, 145184, Control_c, 0, 64, 68
1, 145213, Control_c, 0, 64, 69
1, 145228, Control_c, 0, 64, 71
1, 145238, Note_on_c, 0, 56, 64
1, 145242, Control_c, 0, 64, 73
1, 145255, Note_off_c, 0, 47, 61
1, 145257, Control_c, 0, 64, 76
1, 145272, Control_c, 0, 64, 79
1, 145287, Control_c, 0, 64, 80
1, 145302, Control_c, 0, 64, 82
1, 145316, Note_off_c, 0, 56, 63
1, 145316, Control_c, 0, 64, 83
1, 145318, Note_on_c, 0, 49, 69
1, 145331, Control_c, 0, 64, 84
1, 145346, Control_c, 0, 64, 86
1, 145361, Control_c, 0, 64, 88
1, 145376, Control_c, 0, 64, 90
1, 145386, Note_off_c, 0, 49, 59
1, 145389, Note_on_c, 0, 56, 68
1, 145390, Control_c, 0, 64, 91
1, 145405, Control_c, 0, 64, 92
1, 145423, Note_off_c, 0, 77, 58
1, 145433, Note_off_c, 0, 65, 57
1, 145434, Control_c, 0, 64, 93
1, 145449, Note_off_c, 0, 56, 60
1, 145449, Control_c, 0, 64, 93
1, 145458, Note_on_c, 0, 47, 70
1, 145464, Control_c, 0, 64, 94
1, 145479, Control_c, 0, 64, 96
1, 145494, Control_c, 0, 64, 97
1, 145509, Control_c, 0, 64, 100
1, 145524, Control_c, 0, 64, 103
1, 145529, Note_on_c, 0, 56, 64
1, 145539, Control_c, 0, 64, 109
1, 145550, Note_off_c, 0, 47, 53
1, 145554, Control_c, 0, 64, 127
1, 145583, Note_off_c, 0, 56, 56
1, 145595, Note_on_c, 0, 49, 71
1, 145645, Note_off_c, 0, 49, 53
1, 145662, Note_on_c, 0, 56, 70
1, 145725, Note_off_c, 0, 56, 58
1, 145738, Control_c, 0, 64, 89
1, 145740, Note_on_c, 0, 78, 93
1, 145745, Note_on_c, 0, 66, 89
1, 145748, Note_on_c, 0, 45, 78
1, 145753, Control_c, 0, 64, 70
1, 145768, Control_c, 0, 64, 51
1, 145783, Control_c, 0, 64, 27
1, 145798, Control_c, 0, 64, 47
1, 145813, Control_c, 0, 64, 64
1, 145828, Control_c, 0, 64, 77
1, 145831, Note_on_c, 0, 54, 67
1, 145840, Note_off_c, 0, 45, 61
1, 145842, Control_c, 0, 64, 101
1, 145857, Control_c, 0, 64, 127
1, 145892, Note_off_c, 0, 54, 61
1, 145896, Note_on_c, 0, 49, 70
1, 145965, Note_on_c, 0, 54, 72
1, 145969, Note_off_c, 0, 49, 55
1, 146024, Note_off_c, 0, 54, 60
1, 146033, Note_on_c, 0, 45, 71
1, 146097, Note_on_c, 0, 54, 61
1, 146098, Note_off_c, 0, 66, 61
1, 146099, Note_off_c, 0, 78, 59
1, 146114, Note_off_c, 0, 45, 61
1, 146156, Note_off_c, 0, 54, 61
1, 146162, Note_on_c, 0, 49, 67
1, 146203, Note_off_c, 0, 49, 62
1, 146227, Control_c, 0, 64, 116
1, 146235, Note_on_c, 0, 54, 69
1, 146242, Control_c, 0, 64, 91
1, 146257, Control_c, 0, 64, 76
1, 146268, Note_on_c, 0, 63, 72
1, 146272, Control_c, 0, 64, 69
1, 146276, Note_on_c, 0, 75, 75
1, 146287, Control_c, 0, 64, 70
1, 146291, Note_off_c, 0, 54, 61
1, 146296, Note_on_c, 0, 45, 65
1, 146296, Note_off_c, 0, 63, 67
1, 146302, Control_c, 0, 64, 77
1, 146317, Control_c, 0, 64, 94
1, 146331, Control_c, 0, 64, 127
1, 146342, Note_off_c, 0, 75, 59
1, 146353, Note_on_c, 0, 76, 75
1, 146375, Note_on_c, 0, 54, 66
1, 146381, Note_off_c, 0, 45, 63
1, 146413, Note_on_c, 0, 75, 56
1, 146446, Note_on_c, 0, 47, 65
1, 146448, Note_off_c, 0, 54, 62
1, 146451, Note_off_c, 0, 76, 58
1, 146451, Note_off_c, 0, 75, 64
1, 146478, Note_on_c, 0, 73, 73
1, 146519, Note_on_c, 0, 75, 79
1, 146528, Note_off_c, 0, 73, 63
1, 146534, Note_off_c, 0, 47, 61
1, 146536, Note_on_c, 0, 54, 67
1, 146561, Control_c, 0, 64, 117
1, 146572, Note_off_c, 0, 75, 0
1, 146576, Control_c, 0, 64, 83
1, 146576, Note_on_c, 0, 76, 93
1, 146582, Note_on_c, 0, 44, 77
1, 146585, Note_on_c, 0, 64, 92
1, 146589, Note_off_c, 0, 54, 64
1, 146590, Control_c, 0, 64, 59
1, 146600, Poly_aftertouch_c, 0, 75, 0
1, 146605, Control_c, 0, 64, 0
1, 146650, Control_c, 0, 64, 59
1, 146664, Control_c, 0, 64, 69
1, 146670, Note_off_c, 0, 44, 61
1, 146679, Control_c, 0, 64, 80
1, 146685, Note_on_c, 0, 52, 69
1, 146694, Control_c, 0, 64, 89
1, 146710, Control_c, 0, 64, 92
1, 146725, Control_c, 0, 64, 93
1, 146734, Note_off_c, 0, 52, 59
1, 146740, Control_c, 0, 64, 94
1, 146743, Note_on_c, 0, 47, 52
1, 146755, Control_c, 0, 64, 97
1, 146769, Control_c, 0, 64, 103
1, 146784, Control_c, 0, 64, 127
1, 146812, Note_off_c, 0, 47, 62
1, 146821, Note_on_c, 0, 52, 70
1, 146858, Control_c, 0, 64, 109
1, 146860, Note_off_c, 0, 52, 60
1, 146872, Note_on_c, 0, 44, 76
1, 146873, Control_c, 0, 64, 92
1, 146887, Control_c, 0, 64, 82
1, 146902, Control_c, 0, 64, 81
1, 146917, Control_c, 0, 64, 83
1, 146919, Poly_aftertouch_c, 0, 73, 127
1, 146932, Control_c, 0, 64, 89
1, 146947, Note_on_c, 0, 52, 67
1, 146947, Control_c, 0, 64, 96
1, 146951, Note_off_c, 0, 44, 57
1, 146961, Control_c, 0, 64, 102
1, 146976, Control_c, 0, 64, 106
1, 146991, Control_c, 0, 64, 109
1, 146995, Note_off_c, 0, 52, 64
1, 147005, Control_c, 0, 64, 111
1, 147007, Note_on_c, 0, 47, 58
1, 147020, Control_c, 0, 64, 116
1, 147035, Control_c, 0, 64, 127
1, 147051, Note_on_c, 0, 48, 8
1, 147053, Note_off_c, 0, 47, 65
1, 147064, Note_on_c, 0, 52, 68
1, 147099, Note_off_c, 0, 48, 48
1, 147100, Note_off_c, 0, 76, 60
1, 147118, Note_off_c, 0, 52, 61
1, 147125, Note_off_c, 0, 64, 60
1, 147130, Note_on_c, 0, 44, 79
1, 147165, Poly_aftertouch_c, 0, 73, 0
1, 147202, Note_on_c, 0, 52, 62
1, 147205, Note_off_c, 0, 44, 58
1, 147253, Note_on_c, 0, 47, 70
1, 147254, Note_off_c, 0, 52, 64
1, 147333, Note_on_c, 0, 52, 75
1, 147369, Note_off_c, 0, 47, 62
1, 147390, Note_off_c, 0, 52, 63
1, 147457, Control_c, 0, 64, 82
1, 147464, Note_on_c, 0, 43, 93
1, 147468, Note_on_c, 0, 73, 97
1, 147472, Control_c, 0, 64, 60
1, 147474, Note_on_c, 0, 61, 100
1, 147486, Control_c, 0, 64, 0
1, 147532, Control_c, 0, 64, 54
1, 147547, Control_c, 0, 64, 69
1, 147551, Note_off_c, 0, 43, 61
1, 147562, Control_c, 0, 64, 80
1, 147565, Note_on_c, 0, 52, 74
1, 147577, Control_c, 0, 64, 92
1, 147591, Control_c, 0, 64, 100
1, 147606, Control_c, 0, 64, 103
1, 147621, Control_c, 0, 64, 105
1, 147635, Control_c, 0, 64, 108
1, 147646, Note_off_c, 0, 52, 61
1, 147648, Note_on_c, 0, 45, 75
1, 147650, Control_c, 0, 64, 114
1, 147665, Control_c, 0, 64, 127
1, 147685, Note_off_c, 0, 45, 64
1, 147716, Note_on_c, 0, 52, 69
1, 147776, Note_off_c, 0, 52, 62
1, 147779, Note_on_c, 0, 43, 74
1, 147817, Note_off_c, 0, 61, 61
1, 147842, Note_off_c, 0, 43, 61
1, 147857, Note_on_c, 0, 52, 71
1, 147873, Note_off_c, 0, 73, 51
1, 147882, Note_on_c, 0, 45, 69
1, 147895, Note_off_c, 0, 52, 64
1, 147947, Note_off_c, 0, 45, 64
1, 147982, Note_on_c, 0, 52, 66
1, 148042, Note_off_c, 0, 52, 60
1, 148043, Control_c, 0, 64, 94
1, 148055, Note_on_c, 0, 42, 82
1, 148058, Control_c, 0, 64, 71
1, 148061, Note_on_c, 0, 74, 92
1, 148070, Note_on_c, 0, 62, 91
1, 148072, Control_c, 0, 64, 46
1, 148087, Control_c, 0, 64, 0
1, 148102, Control_c, 0, 64, 34
1, 148117, Control_c, 0, 64, 66
1, 148132, Control_c, 0, 64, 82
1, 148139, Note_on_c, 0, 50, 82
1, 148147, Control_c, 0, 64, 114
1, 148160, Note_off_c, 0, 42, 60
1, 148161, Control_c, 0, 64, 127
1, 148203, Note_off_c, 0, 50, 66
1, 148209, Note_on_c, 0, 45, 68
1, 148272, Note_off_c, 0, 45, 63
1, 148281, Note_on_c, 0, 50, 71
1, 148321, Note_off_c, 0, 50, 65
1, 148323, Note_off_c, 0, 74, 57
1, 148343, Note_on_c, 0, 42, 79
1, 148356, Note_off_c, 0, 62, 55
1, 148406, Note_on_c, 0, 50, 76
1, 148442, Note_off_c, 0, 42, 57
1, 148465, Note_off_c, 0, 50, 65
1, 148469, Note_on_c, 0, 45, 64
1, 148476, Note_on_c, 0, 60, 68
1, 148513, Note_off_c, 0, 60, 60
1, 148532, Control_c, 0, 64, 105
1, 148541, Note_off_c, 0, 45, 61
1, 148544, Note_on_c, 0, 72, 57
1, 148547, Control_c, 0, 64, 89
1, 148559, Note_on_c, 0, 51, 44
1, 148562, Control_c, 0, 64, 83
1, 148565, Note_on_c, 0, 71, 46
1, 148576, Control_c, 0, 64, 83
1, 148579, Note_off_c, 0, 72, 65
1, 148590, Note_on_c, 0, 73, 68
1, 148590, Note_off_c, 0, 71, 59
1, 148591, Note_off_c, 0, 51, 54
1, 148591, Control_c, 0, 64, 92
1, 148606, Control_c, 0, 64, 108
1, 148615, Note_on_c, 0, 42, 82
1, 148621, Control_c, 0, 64, 127
1, 148655, Note_on_c, 0, 72, 73
1, 148660, Poly_aftertouch_c, 0, 50, 0
1, 148692, Note_off_c, 0, 72, 67
1, 148698, Note_off_c, 0, 73, 62
1, 148704, Note_on_c, 0, 51, 64
1, 148719, Note_on_c, 0, 70, 80
1, 148722, Note_off_c, 0, 42, 57
1, 148743, Note_off_c, 0, 51, 63
1, 148755, Note_on_c, 0, 45, 66
1, 148770, Note_on_c, 0, 72, 73
1, 148779, Note_off_c, 0, 70, 62
1, 148816, Note_off_c, 0, 45, 61
1, 148818, Note_on_c, 0, 51, 77
1, 148822, Note_off_c, 0, 72, 65
1, 148851, Control_c, 0, 64, 125
1, 148854, Note_on_c, 0, 73, 93
1, 148858, Note_on_c, 0, 61, 92
1, 148865, Control_c, 0, 64, 82
1, 148877, Note_off_c, 0, 51, 63
1, 148880, Control_c, 0, 64, 43
1, 148896, Control_c, 0, 64, 0
1, 148910, Note_on_c, 0, 40, 58
1, 148923, Note_on_c, 0, 41, 52
1, 148926, Control_c, 0, 64, 38
1, 148940, Control_c, 0, 64, 65
1, 148952, Note_off_c, 0, 41, 54
1, 148955, Control_c, 0, 64, 80
1, 148970, Control_c, 0, 64, 116
1, 148979, Note_on_c, 0, 49, 76
1, 148983, Note_off_c, 0, 40, 58
1, 148985, Control_c, 0, 64, 127
1, 149048, Note_off_c, 0, 49, 61
1, 149057, Note_on_c, 0, 44, 67
1, 149106, Note_on_c, 0, 49, 61
1, 149116, Note_off_c, 0, 44, 55
1, 149134, Control_c, 0, 64, 120
1, 149149, Control_c, 0, 64, 112
1, 149159, Note_off_c, 0, 49, 59
1, 149163, Note_on_c, 0, 40, 76
1, 149163, Control_c, 0, 64, 113
1, 149178, Control_c, 0, 64, 127
1, 149223, Note_on_c, 0, 49, 74
1, 149242, Note_off_c, 0, 40, 58
1, 149292, Note_off_c, 0, 49, 63
1, 149294, Note_on_c, 0, 44, 72
1, 149344, Note_off_c, 0, 44, 57
1, 149345, Note_on_c, 0, 49, 67
1, 149400, Note_off_c, 0, 49, 60
1, 149405, Note_on_c, 0, 40, 77
1, 149483, Note_on_c, 0, 49, 71
1, 149502, Note_on_c, 0, 44, 76
1, 149503, Note_off_c, 0, 40, 58
1, 149509, Note_off_c, 0, 49, 67
1, 149534, Note_off_c, 0, 61, 62
1, 149558, Note_on_c, 0, 49, 79
1, 149566, Note_off_c, 0, 44, 59
1, 149603, Note_off_c, 0, 73, 49
1, 149610, Note_off_c, 0, 49, 62
1, 149748, Note_on_c, 0, 74, 94
1, 149757, Note_on_c, 0, 62, 99
1, 149758, Note_on_c, 0, 69, 91
1, 149760, Note_on_c, 0, 54, 98
1, 149762, Note_on_c, 0, 66, 95
1, 149763, Note_on_c, 0, 42, 89
1, 149764, Note_on_c, 0, 50, 87
1, 149765, Note_on_c, 0, 45, 81
1, 149793, Control_c, 0, 64, 102
1, 149807, Control_c, 0, 64, 72
1, 149822, Control_c, 0, 64, 0
1, 149912, Control_c, 0, 64, 44
1, 149927, Control_c, 0, 64, 59
1, 149942, Control_c, 0, 64, 67
1, 149957, Control_c, 0, 64, 78
1, 149971, Control_c, 0, 64, 96
1, 149986, Control_c, 0, 64, 127
1, 150114, Note_off_c, 0, 62, 60
1, 150135, Note_off_c, 0, 66, 62
1, 150136, Note_off_c, 0, 69, 65
1, 150152, Note_off_c, 0, 74, 64
1, 150164, Control_c, 0, 67, 8
1, 150186, Control_c, 0, 67, 12
1, 150201, Control_c, 0, 67, 20
1, 150216, Control_c, 0, 67, 31
1, 150231, Control_c, 0, 67, 44
1, 150245, Control_c, 0, 67, 58
1, 150260, Control_c, 0, 67, 72
1, 150275, Control_c, 0, 67, 84
1, 150290, Note_off_c, 0, 42, 60
1, 150290, Control_c, 0, 67, 97
1, 150295, Note_off_c, 0, 54, 58
1, 150299, Note_off_c, 0, 45, 62
1, 150305, Note_off_c, 0, 50, 65
1, 150305, Control_c, 0, 67, 109
1, 150320, Control_c, 0, 67, 119
1, 150335, Control_c, 0, 67, 126
1, 150350, Control_c, 0, 67, 127
1, 150364, Control_c, 0, 64, 115
1, 150379, Control_c, 0, 64, 87
1, 150394, Control_c, 0, 64, 68
1, 150408, Note_on_c, 0, 69, 57
1, 150409, Control_c, 0, 64, 29
1, 150424, Control_c, 0, 64, 0
1, 150471, Note_off_c, 0, 69, 64
1, 150477, Note_on_c, 0, 71, 61
1, 150523, Note_off_c, 0, 71, 63
1, 150546, Note_on_c, 0, 73, 72
1, 150570, Note_off_c, 0, 73, 68
1, 150614, Note_on_c, 0, 74, 64
1, 150630, Control_c, 0, 67, 127
1, 150645, Control_c, 0, 67, 126
1, 150660, Control_c, 0, 67, 125
1, 150666, Note_off_c, 0, 74, 59
1, 150690, Control_c, 0, 67, 124
1, 150694, Note_on_c, 0, 76, 57
1, 150716, Note_off_c, 0, 76, 64
1, 150721, Control_c, 0, 67, 124
1, 150735, Control_c, 0, 67, 123
1, 150750, Control_c, 0, 67, 122
1, 150752, Note_on_c, 0, 78, 64
1, 150779, Control_c, 0, 67, 122
1, 150797, Note_on_c, 0, 76, 65
1, 150809, Control_c, 0, 67, 121
1, 150815, Note_off_c, 0, 78, 63
1, 150824, Control_c, 0, 67, 118
1, 150839, Control_c, 0, 67, 114
1, 150844, Note_off_c, 0, 76, 61
1, 150854, Control_c, 0, 67, 111
1, 150868, Control_c, 0, 67, 109
1, 150879, Note_on_c, 0, 74, 55
1, 150883, Control_c, 0, 67, 107
1, 150898, Note_on_c, 0, 62, 44
1, 150898, Control_c, 0, 67, 102
1, 150907, Note_on_c, 0, 54, 49
1, 150913, Control_c, 0, 67, 96
1, 150914, Note_on_c, 0, 57, 42
1, 150928, Note_off_c, 0, 74, 55
1, 150935, Control_c, 0, 67, 87
1, 150950, Control_c, 0, 67, 77
1, 150965, Control_c, 0, 67, 72
1, 150967, Note_on_c, 0, 69, 66
1, 150979, Control_c, 0, 67, 73
1, 150994, Control_c, 0, 67, 75
1, 151009, Control_c, 0, 67, 75
1, 151035, Note_off_c, 0, 69, 64
1, 151039, Control_c, 0, 67, 76
1, 151045, Note_on_c, 0, 71, 61
1, 151068, Control_c, 0, 67, 77
1, 151076, Note_off_c, 0, 71, 66
1, 151083, Control_c, 0, 67, 77
1, 151089, Note_on_c, 0, 73, 68
1, 151098, Control_c, 0, 67, 78
1, 151105, Note_off_c, 0, 62, 63
1, 151107, Note_off_c, 0, 57, 63
1, 151110, Note_off_c, 0, 54, 63
1, 151120, Note_off_c, 0, 73, 65
1, 151157, Control_c, 0, 67, 77
1, 151168, Note_on_c, 0, 74, 54
1, 151216, Note_off_c, 0, 74, 60
1, 151231, Note_on_c, 0, 76, 63
1, 151265, Note_off_c, 0, 76, 65
1, 151296, Note_on_c, 0, 78, 69
1, 151361, Note_on_c, 0, 76, 66
1, 151364, Note_off_c, 0, 78, 62
1, 151398, Note_off_c, 0, 76, 62
1, 151432, Note_on_c, 0, 74, 59
1, 151444, Note_on_c, 0, 57, 45
1, 151446, Note_on_c, 0, 54, 49
1, 151450, Note_on_c, 0, 62, 42
1, 151481, Note_off_c, 0, 74, 53
1, 151511, Note_on_c, 0, 69, 70
1, 151580, Note_off_c, 0, 69, 64
1, 151583, Note_on_c, 0, 71, 69
1, 151623, Note_off_c, 0, 54, 62
1, 151625, Note_off_c, 0, 57, 63
1, 151626, Note_off_c, 0, 62, 56
1, 151628, Note_off_c, 0, 71, 63
1, 151641, Note_on_c, 0, 73, 73
1, 151685, Note_off_c, 0, 73, 60
1, 151727, Note_on_c, 0, 74, 63
1, 151728, Control_c, 0, 67, 77
1, 151779, Note_off_c, 0, 74, 63
1, 151786, Note_on_c, 0, 76, 65
1, 151819, Note_off_c, 0, 76, 64
1, 151857, Note_on_c, 0, 78, 67
1, 151915, Note_on_c, 0, 76, 66
1, 151927, Note_off_c, 0, 78, 62
1, 151948, Note_off_c, 0, 76, 63
1, 151977, Note_on_c, 0, 74, 60
1, 151980, Control_c, 0, 67, 76
1, 151989, Note_on_c, 0, 54, 56
1, 151992, Note_on_c, 0, 62, 58
1, 151998, Note_on_c, 0, 57, 56
1, 152030, Note_off_c, 0, 54, 65
1, 152033, Note_off_c, 0, 57, 63
1, 152034, Note_off_c, 0, 62, 62
1, 152035, Note_off_c, 0, 74, 49
1, 152054, Note_on_c, 0, 69, 68
1, 152114, Control_c, 0, 67, 77
1, 152123, Note_off_c, 0, 69, 65
1, 152127, Note_on_c, 0, 71, 68
1, 152165, Note_off_c, 0, 71, 63
1, 152186, Note_on_c, 0, 73, 65
1, 152219, Note_off_c, 0, 73, 64
1, 152253, Note_on_c, 0, 74, 67
1, 152258, Note_on_c, 0, 54, 62
1, 152262, Note_on_c, 0, 57, 58
1, 152262, Note_on_c, 0, 62, 58
1, 152294, Note_off_c, 0, 62, 63
1, 152295, Note_off_c, 0, 54, 61
1, 152296, Note_off_c, 0, 57, 63
1, 152310, Note_off_c, 0, 74, 64
1, 152314, Note_on_c, 0, 76, 68
1, 152358, Note_off_c, 0, 76, 64
1, 152375, Note_on_c, 0, 78, 73
1, 152398, Note_off_c, 0, 78, 71
1, 152411, Control_c, 0, 67, 77
1, 152455, Note_on_c, 0, 79, 73
1, 152463, Control_c, 0, 67, 77
1, 152493, Control_c, 0, 67, 76
1, 152518, Note_on_c, 0, 81, 80
1, 152523, Note_off_c, 0, 79, 60
1, 152537, Note_on_c, 0, 54, 63
1, 152537, Note_on_c, 0, 57, 64
1, 152537, Note_on_c, 0, 62, 60
1, 152537, Control_c, 0, 67, 76
1, 152552, Control_c, 0, 67, 75
1, 152567, Control_c, 0, 67, 75
1, 152577, Note_off_c, 0, 81, 65
1, 152578, Note_off_c, 0, 62, 62
1, 152579, Note_off_c, 0, 57, 63
1, 152580, Note_off_c, 0, 54, 63
1, 152588, Note_on_c, 0, 80, 80
1, 152611, Control_c, 0, 67, 73
1, 152625, Control_c, 0, 67, 71
1, 152640, Control_c, 0, 67, 64
1, 152646, Note_off_c, 0, 80, 67
1, 152655, Control_c, 0, 67, 42
1, 152656, Note_on_c, 0, 83, 85
1, 152670, Control_c, 0, 67, 22
1, 152685, Control_c, 0, 67, 10
1, 152699, Control_c, 0, 67, 0
1, 152737, Note_on_c, 0, 81, 76
1, 152784, Note_off_c, 0, 83, 62
1, 152798, Note_on_c, 0, 57, 69
1, 152799, Note_on_c, 0, 54, 63
1, 152800, Note_on_c, 0, 79, 78
1, 152807, Note_on_c, 0, 62, 62
1, 152821, Note_off_c, 0, 81, 60
1, 152825, Note_off_c, 0, 57, 66
1, 152827, Note_off_c, 0, 54, 65
1, 152842, Note_off_c, 0, 62, 63
1, 152854, Note_on_c, 0, 78, 82
1, 152855, Note_off_c, 0, 79, 63
1, 152901, Note_off_c, 0, 78, 60
1, 152920, Note_on_c, 0, 76, 62
1, 152977, Note_off_c, 0, 76, 53
1, 152981, Control_c, 0, 67, 10
1, 152991, Note_on_c, 0, 74, 63
1, 152996, Control_c, 0, 67, 15
1, 153011, Control_c, 0, 67, 21
1, 153025, Control_c, 0, 67, 29
1, 153040, Control_c, 0, 67, 39
1, 153050, Note_off_c, 0, 74, 59
1, 153055, Control_c, 0, 67, 54
1, 153070, Control_c, 0, 67, 63
1, 153085, Control_c, 0, 67, 70
1, 153093, Note_on_c, 0, 73, 57
1, 153101, Control_c, 0, 67, 77
1, 153116, Control_c, 0, 67, 83
1, 153120, Note_on_c, 0, 56, 39
1, 153130, Control_c, 0, 67, 90
1, 153145, Control_c, 0, 67, 97
1, 153160, Control_c, 0, 67, 103
1, 153178, Note_off_c, 0, 56, 58
1, 153182, Control_c, 0, 64, 34
1, 153182, Control_c, 0, 67, 106
1, 153197, Control_c, 0, 64, 49
1, 153197, Control_c, 0, 67, 109
1, 153201, Note_on_c, 0, 64, 44
1, 153211, Control_c, 0, 64, 58
1, 153211, Control_c, 0, 67, 111
1, 153226, Control_c, 0, 64, 62
1, 153226, Control_c, 0, 67, 112
1, 153235, Note_off_c, 0, 64, 53
1, 153241, Control_c, 0, 64, 64
1, 153256, Control_c, 0, 64, 66
1, 153271, Note_on_c, 0, 61, 56
1, 153271, Control_c, 0, 64, 69
1, 153271, Control_c, 0, 67, 113
1, 153286, Control_c, 0, 64, 74
1, 153301, Note_off_c, 0, 61, 65
1, 153301, Control_c, 0, 64, 80
1, 153316, Control_c, 0, 64, 82
1, 153337, Note_on_c, 0, 64, 57
1, 153345, Control_c, 0, 64, 82
1, 153372, Note_off_c, 0, 64, 65
1, 153404, Control_c, 0, 64, 82
1, 153404, Control_c, 0, 67, 112
1, 153414, Note_on_c, 0, 56, 61
1, 153419, Control_c, 0, 64, 83
1, 153434, Control_c, 0, 64, 83
1, 153434, Control_c, 0, 67, 112
1, 153463, Control_c, 0, 64, 84
1, 153465, Note_on_c, 0, 64, 53
1, 153474, Note_off_c, 0, 56, 47
1, 153478, Control_c, 0, 64, 85
1, 153492, Note_off_c, 0, 64, 56
1, 153493, Control_c, 0, 64, 85
1, 153508, Control_c, 0, 64, 86
1, 153525, Note_on_c, 0, 61, 61
1, 153558, Note_off_c, 0, 61, 64
1, 153579, Note_off_c, 0, 73, 53
1, 153584, Note_on_c, 0, 64, 54
1, 153611, Note_off_c, 0, 64, 61
1, 153611, Control_c, 0, 64, 82
1, 153611, Control_c, 0, 67, 111
1, 153626, Control_c, 0, 64, 76
1, 153626, Control_c, 0, 67, 111
1, 153641, Control_c, 0, 64, 67
1, 153641, Control_c, 0, 67, 110
1, 153656, Control_c, 0, 64, 61
1, 153656, Control_c, 0, 67, 109
1, 153661, Note_on_c, 0, 56, 67
1, 153671, Control_c, 0, 64, 60
1, 153671, Control_c, 0, 67, 108
1, 153685, Control_c, 0, 64, 63
1, 153695, Note_on_c, 0, 75, 61
1, 153700, Control_c, 0, 64, 66
1, 153700, Control_c, 0, 67, 108
1, 153715, Control_c, 0, 64, 68
1, 153729, Note_off_c, 0, 75, 62
1, 153730, Control_c, 0, 64, 65
1, 153745, Control_c, 0, 64, 61
1, 153748, Note_on_c, 0, 66, 62
1, 153760, Control_c, 0, 64, 54
1, 153769, Note_on_c, 0, 76, 56
1, 153773, Note_off_c, 0, 56, 51
1, 153774, Control_c, 0, 64, 55
1, 153788, Note_off_c, 0, 66, 58
1, 153789, Control_c, 0, 64, 61
1, 153789, Control_c, 0, 67, 107
1, 153802, Note_off_c, 0, 76, 56
1, 153804, Control_c, 0, 64, 66
1, 153804, Control_c, 0, 67, 107
1, 153819, Control_c, 0, 64, 72
1, 153823, Note_on_c, 0, 75, 60
1, 153823, Note_on_c, 0, 60, 57
1, 153834, Control_c, 0, 64, 75
1, 153848, Control_c, 0, 64, 76
1, 153849, Note_off_c, 0, 75, 66
1, 153862, Note_on_c, 0, 76, 59
1, 153863, Note_off_c, 0, 60, 66
1, 153878, Control_c, 0, 64, 77
1, 153878, Control_c, 0, 67, 106
1, 153882, Note_off_c, 0, 76, 63
1, 153900, Note_on_c, 0, 66, 49
1, 153909, Control_c, 0, 64, 78
1, 153909, Control_c, 0, 67, 106
1, 153915, Note_on_c, 0, 75, 60
1, 153930, Note_off_c, 0, 66, 59
1, 153931, Control_c, 0, 64, 79
1, 153943, Note_off_c, 0, 75, 63
1, 153946, Control_c, 0, 64, 80
1, 153951, Note_on_c, 0, 76, 76
1, 153956, Note_on_c, 0, 56, 41
1, 153960, Control_c, 0, 64, 81
1, 153975, Note_off_c, 0, 76, 65
1, 153975, Control_c, 0, 64, 81
1, 153977, Note_on_c, 0, 60, 48
1, 153990, Control_c, 0, 64, 82
1, 154000, Note_on_c, 0, 75, 56
1, 154002, Note_off_c, 0, 56, 58
1, 154004, Control_c, 0, 64, 82
1, 154010, Note_off_c, 0, 60, 66
1, 154011, Note_on_c, 0, 66, 54
1, 154019, Control_c, 0, 64, 83
1, 154023, Note_off_c, 0, 75, 61
1, 154034, Control_c, 0, 64, 84
1, 154037, Note_on_c, 0, 76, 56
1, 154049, Control_c, 0, 64, 85
1, 154055, Note_on_c, 0, 73, 65
1, 154061, Note_off_c, 0, 66, 58
1, 154064, Note_off_c, 0, 76, 58
1, 154064, Control_c, 0, 64, 85
1, 154094, Control_c, 0, 64, 86
1, 154106, Note_on_c, 0, 75, 63
1, 154109, Control_c, 0, 64, 87
1, 154118, Note_off_c, 0, 73, 59
1, 154124, Control_c, 0, 64, 88
1, 154139, Control_c, 0, 64, 90
1, 154139, Control_c, 0, 67, 105
1, 154153, Control_c, 0, 64, 92
1, 154153, Control_c, 0, 67, 93
1, 154168, Control_c, 0, 67, 51
1, 154183, Control_c, 0, 64, 89
1, 154183, Control_c, 0, 67, 0
1, 154197, Control_c, 0, 64, 80
1, 154198, Note_on_c, 0, 73, 77
1, 154206, Note_off_c, 0, 75, 56
1, 154212, Control_c, 0, 64, 70
1, 154216, Note_on_c, 0, 61, 70
1, 154227, Control_c, 0, 64, 60
1, 154229, Note_off_c, 0, 73, 64
1, 154230, Note_on_c, 0, 64, 44
1, 154231, Note_on_c, 0, 57, 44
1, 154241, Note_off_c, 0, 61, 66
1, 154242, Control_c, 0, 64, 44
1, 154257, Control_c, 0, 64, 38
1, 154258, Note_off_c, 0, 64, 35
1, 154261, Note_off_c, 0, 57, 56
1, 154271, Control_c, 0, 64, 39
1, 154286, Control_c, 0, 64, 39
1, 154316, Control_c, 0, 64, 38
1, 154330, Control_c, 0, 64, 37
1, 154360, Control_c, 0, 64, 37
1, 154375, Control_c, 0, 64, 38
1, 154390, Control_c, 0, 64, 39
1, 154404, Control_c, 0, 64, 40
1, 154419, Control_c, 0, 64, 42
1, 154434, Control_c, 0, 64, 46
1, 154449, Control_c, 0, 64, 47
1, 154464, Control_c, 0, 64, 37
1, 154478, Control_c, 0, 64, 0
1, 154493, Control_c, 0, 67, 8
1, 154508, Control_c, 0, 67, 9
1, 154523, Control_c, 0, 67, 10
1, 154533, Note_on_c, 0, 62, 89
1, 154539, Note_on_c, 0, 50, 107
1, 154540, Note_on_c, 0, 54, 97
1, 154541, Note_on_c, 0, 57, 96
1, 154549, Note_on_c, 0, 38, 77
1, 154551, Note_on_c, 0, 42, 91
1, 154552, Note_on_c, 0, 30, 88
1, 154553, Control_c, 0, 67, 11
1, 154555, Note_on_c, 0, 33, 74
1, 154568, Control_c, 0, 64, 53
1, 154568, Control_c, 0, 67, 12
1, 154583, Control_c, 0, 64, 76
1, 154583, Control_c, 0, 67, 12
1, 154597, Control_c, 0, 64, 94
1, 154612, Control_c, 0, 64, 117
1, 154612, Control_c, 0, 67, 11
1, 154627, Control_c, 0, 64, 127
1, 154627, Control_c, 0, 67, 0
1, 154637, Note_on_c, 0, 59, 3
1, 154681, Note_off_c, 0, 59, 52
1, 154749, Note_off_c, 0, 50, 64
1, 154765, Note_off_c, 0, 57, 64
1, 154766, Note_off_c, 0, 54, 63
1, 154786, Note_off_c, 0, 62, 62
1, 154842, Control_c, 0, 67, 9
1, 154857, Control_c, 0, 67, 12
1, 154872, Control_c, 0, 67, 19
1, 154888, Control_c, 0, 67, 28
1, 154902, Control_c, 0, 67, 38
1, 154917, Control_c, 0, 67, 48
1, 154932, Control_c, 0, 67, 58
1, 154946, Control_c, 0, 67, 70
1, 154961, Control_c, 0, 67, 82
1, 154976, Control_c, 0, 67, 94
1, 154979, Note_on_c, 0, 57, 70
1, 154991, Control_c, 0, 67, 107
1, 155006, Control_c, 0, 67, 117
1, 155021, Control_c, 0, 64, 95
1, 155021, Control_c, 0, 67, 125
1, 155036, Control_c, 0, 64, 76
1, 155036, Control_c, 0, 67, 127
1, 155045, Note_off_c, 0, 57, 61
1, 155048, Note_on_c, 0, 59, 68
1, 155051, Control_c, 0, 64, 61
1, 155066, Control_c, 0, 64, 0
1, 155099, Note_off_c, 0, 59, 62
1, 155111, Note_on_c, 0, 61, 72
1, 155140, Note_off_c, 0, 61, 66
1, 155144, Note_off_c, 0, 30, 61
1, 155157, Note_off_c, 0, 42, 60
1, 155161, Note_off_c, 0, 33, 60
1, 155164, Note_off_c, 0, 38, 61
1, 155175, Note_on_c, 0, 62, 73
1, 155243, Note_off_c, 0, 62, 61
1, 155250, Note_on_c, 0, 64, 65
1, 155289, Note_off_c, 0, 64, 64
1, 155308, Note_on_c, 0, 66, 74
1, 155346, Control_c, 0, 67, 123
1, 155361, Control_c, 0, 67, 116
1, 155369, Note_off_c, 0, 66, 63
1, 155375, Note_on_c, 0, 64, 58
1, 155376, Control_c, 0, 67, 106
1, 155391, Control_c, 0, 67, 94
1, 155402, Note_off_c, 0, 64, 65
1, 155406, Control_c, 0, 67, 81
1, 155428, Control_c, 0, 67, 70
1, 155435, Note_on_c, 0, 62, 61
1, 155443, Control_c, 0, 67, 65
1, 155458, Control_c, 0, 67, 65
1, 155473, Control_c, 0, 67, 66
1, 155475, Note_off_c, 0, 62, 54
1, 155488, Control_c, 0, 67, 67
1, 155504, Control_c, 0, 67, 67
1, 155518, Control_c, 0, 67, 68
1, 155519, Note_on_c, 0, 57, 69
1, 155533, Control_c, 0, 67, 69
1, 155548, Control_c, 0, 67, 71
1, 155563, Control_c, 0, 67, 71
1, 155575, Note_off_c, 0, 57, 62
1, 155577, Control_c, 0, 67, 72
1, 155580, Note_on_c, 0, 59, 63
1, 155607, Control_c, 0, 67, 73
1, 155621, Note_off_c, 0, 59, 64
1, 155636, Control_c, 0, 67, 73
1, 155645, Note_on_c, 0, 61, 61
1, 155650, Control_c, 0, 67, 74
1, 155665, Control_c, 0, 67, 75
1, 155678, Note_off_c, 0, 61, 64
1, 155680, Control_c, 0, 67, 76
1, 155704, Note_on_c, 0, 62, 65
1, 155715, Note_on_c, 0, 42, 51
1, 155721, Note_on_c, 0, 50, 50
1, 155734, Note_on_c, 0, 45, 46
1, 155739, Control_c, 0, 67, 77
1, 155770, Note_off_c, 0, 62, 62
1, 155772, Note_on_c, 0, 64, 64
1, 155817, Note_off_c, 0, 64, 65
1, 155843, Control_c, 0, 67, 76
1, 155844, Note_on_c, 0, 66, 70
1, 155876, Note_off_c, 0, 45, 63
1, 155878, Note_off_c, 0, 50, 66
1, 155881, Note_off_c, 0, 42, 61
1, 155888, Control_c, 0, 67, 76
1, 155913, Note_off_c, 0, 66, 61
1, 155915, Note_on_c, 0, 64, 61
1, 155918, Control_c, 0, 67, 75
1, 155947, Note_off_c, 0, 64, 65
1, 155962, Control_c, 0, 67, 75
1, 155978, Note_on_c, 0, 62, 56
1, 156022, Note_off_c, 0, 62, 50
1, 156051, Note_on_c, 0, 57, 70
1, 156095, Control_c, 0, 67, 75
1, 156117, Note_off_c, 0, 57, 62
1, 156124, Note_on_c, 0, 59, 69
1, 156174, Note_off_c, 0, 59, 63
1, 156194, Note_on_c, 0, 61, 60
1, 156221, Control_c, 0, 67, 76
1, 156225, Note_off_c, 0, 61, 65
1, 156242, Note_on_c, 0, 50, 56
1, 156247, Note_on_c, 0, 42, 57
1, 156250, Note_on_c, 0, 45, 50
1, 156253, Note_on_c, 0, 62, 65
1, 156291, Note_off_c, 0, 50, 66
1, 156291, Note_off_c, 0, 45, 65
1, 156296, Note_off_c, 0, 42, 63
1, 156321, Note_off_c, 0, 62, 62
1, 156327, Note_on_c, 0, 64, 65
1, 156365, Note_off_c, 0, 64, 65
1, 156392, Note_on_c, 0, 66, 71
1, 156414, Control_c, 0, 67, 75
1, 156444, Control_c, 0, 67, 75
1, 156457, Note_off_c, 0, 66, 62
1, 156471, Note_on_c, 0, 64, 56
1, 156488, Control_c, 0, 67, 74
1, 156493, Note_off_c, 0, 64, 61
1, 156523, Note_on_c, 0, 62, 61
1, 156533, Control_c, 0, 67, 74
1, 156571, Note_off_c, 0, 62, 52
1, 156603, Note_on_c, 0, 57, 69
1, 156669, Note_off_c, 0, 57, 64
1, 156671, Note_on_c, 0, 59, 66
1, 156678, Note_on_c, 0, 42, 68
1, 156680, Note_on_c, 0, 50, 68
1, 156681, Control_c, 0, 67, 74
1, 156683, Note_on_c, 0, 45, 58
1, 156705, Note_off_c, 0, 50, 65
1, 156708, Note_off_c, 0, 45, 58
1, 156710, Note_off_c, 0, 42, 63
1, 156714, Note_off_c, 0, 59, 64
1, 156732, Note_on_c, 0, 61, 62
1, 156763, Note_off_c, 0, 61, 64
1, 156804, Note_on_c, 0, 62, 70
1, 156829, Control_c, 0, 67, 74
1, 156869, Note_on_c, 0, 64, 68
1, 156869, Note_off_c, 0, 62, 61
1, 156873, Control_c, 0, 67, 73
1, 156888, Control_c, 0, 67, 73
1, 156903, Control_c, 0, 67, 72
1, 156925, Control_c, 0, 67, 72
1, 156940, Control_c, 0, 67, 71
1, 156953, Note_on_c, 0, 66, 74
1, 156955, Control_c, 0, 67, 70
1, 156965, Note_off_c, 0, 64, 64
1, 156970, Note_on_c, 0, 50, 78
1, 156973, Note_on_c, 0, 42, 72
1, 156973, Note_on_c, 0, 45, 71
1, 156985, Control_c, 0, 67, 70
1, 156994, Note_off_c, 0, 50, 70
1, 156998, Note_off_c, 0, 42, 64
1, 157000, Note_off_c, 0, 45, 66
1, 157014, Control_c, 0, 67, 70
1, 157018, Note_on_c, 0, 67, 78
1, 157026, Note_off_c, 0, 66, 64
1, 157051, Note_off_c, 0, 67, 62
1, 157097, Note_on_c, 0, 69, 80
1, 157162, Note_on_c, 0, 71, 74
1, 157173, Note_off_c, 0, 69, 60
1, 157193, Control_c, 0, 67, 70
1, 157208, Control_c, 0, 67, 67
1, 157222, Control_c, 0, 67, 57
1, 157233, Note_on_c, 0, 73, 82
1, 157237, Control_c, 0, 67, 34
1, 157242, Note_on_c, 0, 50, 83
1, 157243, Note_on_c, 0, 45, 76
1, 157244, Note_on_c, 0, 42, 79
1, 157245, Note_off_c, 0, 71, 65
1, 157252, Control_c, 0, 67, 14
1, 157266, Note_off_c, 0, 45, 67
1, 157267, Control_c, 0, 67, 0
1, 157268, Note_off_c, 0, 50, 70
1, 157268, Note_off_c, 0, 42, 65
1, 157283, Note_on_c, 0, 74, 74
1, 157292, Note_off_c, 0, 73, 64
1, 157306, Note_off_c, 0, 74, 71
1, 157357, Note_on_c, 0, 76, 84
1, 157417, Note_on_c, 0, 78, 81
1, 157430, Note_off_c, 0, 76, 58
1, 157491, Note_on_c, 0, 79, 79
1, 157497, Note_on_c, 0, 50, 82
1, 157498, Note_on_c, 0, 45, 68
1, 157506, Note_on_c, 0, 42, 64
1, 157531, Note_off_c, 0, 50, 66
1, 157535, Note_off_c, 0, 42, 63
1, 157535, Note_off_c, 0, 45, 65
1, 157553, Note_on_c, 0, 80, 74
1, 157574, Note_off_c, 0, 78, 57
1, 157574, Note_off_c, 0, 79, 60
1, 157595, Note_off_c, 0, 80, 65
1, 157637, Note_on_c, 0, 81, 98
1, 157644, Note_on_c, 0, 42, 78
1, 157644, Note_on_c, 0, 69, 89
1, 157652, Control_c, 0, 64, 34
1, 157674, Control_c, 0, 64, 54
1, 157689, Control_c, 0, 64, 61
1, 157704, Control_c, 0, 64, 65
1, 157716, Note_off_c, 0, 42, 61
1, 157719, Control_c, 0, 64, 70
1, 157734, Control_c, 0, 64, 75
1, 157748, Control_c, 0, 64, 82
1, 157758, Note_on_c, 0, 50, 66
1, 157763, Control_c, 0, 64, 87
1, 157778, Control_c, 0, 64, 92
1, 157793, Control_c, 0, 64, 95
1, 157808, Control_c, 0, 64, 97
1, 157808, Note_off_c, 0, 50, 55
1, 157822, Control_c, 0, 64, 100
1, 157832, Note_on_c, 0, 45, 75
1, 157837, Control_c, 0, 64, 103
1, 157852, Control_c, 0, 64, 106
1, 157867, Control_c, 0, 64, 109
1, 157880, Note_off_c, 0, 45, 57
1, 157882, Control_c, 0, 64, 112
1, 157897, Control_c, 0, 64, 114
1, 157901, Note_on_c, 0, 50, 73
1, 157912, Control_c, 0, 64, 114
1, 157927, Control_c, 0, 64, 115
1, 157942, Control_c, 0, 64, 116
1, 157956, Note_off_c, 0, 50, 64
1, 157957, Control_c, 0, 64, 118
1, 157965, Note_off_c, 0, 81, 60
1, 157971, Control_c, 0, 64, 127
1, 157977, Note_on_c, 0, 42, 77
1, 158000, Note_off_c, 0, 69, 62
1, 158018, Note_off_c, 0, 42, 57
1, 158035, Note_on_c, 0, 50, 66
1, 158067, Note_off_c, 0, 50, 65
1, 158091, Note_on_c, 0, 45, 67
1, 158126, Note_off_c, 0, 45, 59
1, 158151, Note_on_c, 0, 50, 78
1, 158187, Note_off_c, 0, 50, 67
1, 158252, Control_c, 0, 64, 94
1, 158253, Note_on_c, 0, 43, 87
1, 158255, Note_on_c, 0, 73, 98
1, 158261, Note_on_c, 0, 61, 94
1, 158267, Control_c, 0, 64, 74
1, 158282, Control_c, 0, 64, 57
1, 158297, Control_c, 0, 64, 25
1, 158312, Control_c, 0, 64, 45
1, 158327, Control_c, 0, 64, 63
1, 158342, Control_c, 0, 64, 75
1, 158343, Note_off_c, 0, 43, 61
1, 158357, Control_c, 0, 64, 92
1, 158364, Note_on_c, 0, 52, 68
1, 158371, Control_c, 0, 64, 125
1, 158386, Control_c, 0, 64, 127
1, 158402, Note_off_c, 0, 52, 62
1, 158430, Note_on_c, 0, 46, 70
1, 158465, Note_off_c, 0, 46, 66
1, 158494, Note_on_c, 0, 52, 73
1, 158545, Note_off_c, 0, 52, 62
1, 158549, Note_on_c, 0, 43, 75
1, 158567, Note_off_c, 0, 61, 62
1, 158594, Note_off_c, 0, 73, 59
1, 158614, Note_off_c, 0, 43, 61
1, 158623, Note_on_c, 0, 52, 73
1, 158664, Note_off_c, 0, 52, 60
1, 158674, Note_on_c, 0, 46, 76
1, 158718, Note_off_c, 0, 46, 63
1, 158750, Note_on_c, 0, 52, 75
1, 158788, Note_off_c, 0, 52, 65
1, 158849, Note_on_c, 0, 76, 100
1, 158852, Note_on_c, 0, 44, 84
1, 158853, Control_c, 0, 64, 110
1, 158855, Note_on_c, 0, 64, 96
1, 158867, Control_c, 0, 64, 81
1, 158882, Control_c, 0, 64, 62
1, 158897, Control_c, 0, 64, 10
1, 158912, Control_c, 0, 64, 14
1, 158926, Note_off_c, 0, 44, 59
1, 158927, Control_c, 0, 64, 54
1, 158941, Control_c, 0, 64, 71
1, 158950, Note_on_c, 0, 52, 71
1, 158956, Control_c, 0, 64, 97
1, 158971, Control_c, 0, 64, 127
1, 158995, Note_off_c, 0, 52, 52
1, 159012, Note_on_c, 0, 49, 78
1, 159047, Note_off_c, 0, 49, 62
1, 159076, Note_off_c, 0, 76, 57
1, 159082, Note_on_c, 0, 52, 73
1, 159108, Note_off_c, 0, 64, 64
1, 159117, Note_off_c, 0, 52, 63
1, 159145, Note_on_c, 0, 44, 76
1, 159195, Note_off_c, 0, 44, 54
1, 159222, Note_on_c, 0, 52, 66
1, 159248, Note_on_c, 0, 49, 77
1, 159250, Note_off_c, 0, 52, 66
1, 159283, Note_off_c, 0, 49, 64
1, 159328, Note_on_c, 0, 52, 62
1, 159355, Note_off_c, 0, 52, 67
1, 159453, Note_on_c, 0, 60, 89
1, 159453, Control_c, 0, 64, 92
1, 159460, Note_on_c, 0, 54, 92
1, 159462, Note_on_c, 0, 48, 96
1, 159467, Control_c, 0, 64, 66
1, 159468, Note_on_c, 0, 32, 90
1, 159482, Control_c, 0, 64, 0
1, 159483, Note_on_c, 0, 56, 67
1, 159528, Control_c, 0, 64, 57
1, 159542, Control_c, 0, 64, 69
1, 159557, Control_c, 0, 64, 78
1, 159559, Note_off_c, 0, 32, 56
1, 159572, Control_c, 0, 64, 84
1, 159587, Control_c, 0, 64, 85
1, 159588, Note_on_c, 0, 44, 71
1, 159616, Control_c, 0, 64, 86
1, 159631, Control_c, 0, 64, 88
1, 159646, Control_c, 0, 64, 92
1, 159661, Control_c, 0, 64, 98
1, 159669, Note_on_c, 0, 43, 75
1, 159674, Note_off_c, 0, 44, 60
1, 159676, Control_c, 0, 64, 105
1, 159690, Control_c, 0, 64, 113
1, 159705, Control_c, 0, 64, 127
1, 159735, Note_off_c, 0, 43, 62
1, 159747, Note_on_c, 0, 44, 69
1, 159811, Note_off_c, 0, 44, 61
1, 159815, Note_on_c, 0, 43, 72
1, 159836, Note_off_c, 0, 48, 58
1, 159837, Note_off_c, 0, 60, 58
1, 159845, Note_off_c, 0, 43, 63
1, 159869, Note_off_c, 0, 56, 8
1, 159870, Note_on_c, 0, 44, 68
1, 159882, Note_off_c, 0, 54, 59
1, 159952, Note_on_c, 0, 43, 34
1, 159952, Note_off_c, 0, 44, 59
1, 159979, Control_c, 0, 67, 8
1, 159988, Note_off_c, 0, 43, 51
1, 159990, Poly_aftertouch_c, 0, 44, 0
1, 159994, Control_c, 0, 67, 14
1, 159997, Note_on_c, 0, 44, 56
1, 160009, Control_c, 0, 67, 20
1, 160023, Control_c, 0, 67, 29
1, 160038, Note_off_c, 0, 44, 60
1, 160038, Control_c, 0, 67, 36
1, 160053, Control_c, 0, 67, 43
1, 160068, Control_c, 0, 67, 51
1, 160083, Control_c, 0, 67, 62
1, 160097, Control_c, 0, 64, 89
1, 160097, Control_c, 0, 67, 75
1, 160111, Note_on_c, 0, 61, 77
1, 160112, Control_c, 0, 64, 68
1, 160112, Control_c, 0, 67, 93
1, 160121, Note_on_c, 0, 49, 58
1, 160127, Note_on_c, 0, 52, 52
1, 160127, Control_c, 0, 64, 13
1, 160127, Control_c, 0, 67, 111
1, 160137, Note_on_c, 0, 37, 58
1, 160142, Control_c, 0, 64, 0
1, 160142, Control_c, 0, 67, 125
1, 160145, Note_off_c, 0, 49, 60
1, 160154, Note_off_c, 0, 52, 59
1, 160157, Control_c, 0, 67, 127
1, 160169, Note_off_c, 0, 61, 60
1, 160175, Note_off_c, 0, 37, 64
1, 160269, Note_on_c, 0, 49, 59
1, 160269, Note_on_c, 0, 64, 70
1, 160300, Note_off_c, 0, 49, 64
1, 160311, Note_off_c, 0, 64, 62
1, 160398, Note_on_c, 0, 49, 59
1, 160398, Note_on_c, 0, 64, 64
1, 160403, Note_on_c, 0, 56, 60
1, 160432, Note_off_c, 0, 49, 63
1, 160432, Note_off_c, 0, 56, 65
1, 160435, Note_off_c, 0, 64, 63
1, 160526, Note_on_c, 0, 49, 51
1, 160529, Note_on_c, 0, 56, 58
1, 160533, Note_on_c, 0, 64, 61
1, 160554, Note_off_c, 0, 49, 60
1, 160559, Note_off_c, 0, 56, 64
1, 160566, Note_off_c, 0, 64, 63
1, 160646, Note_on_c, 0, 49, 62
1, 160646, Note_on_c, 0, 64, 65
1, 160652, Note_on_c, 0, 56, 65
1, 160688, Note_off_c, 0, 49, 63
1, 160692, Note_off_c, 0, 56, 65
1, 160694, Note_off_c, 0, 64, 63
1, 160787, Note_on_c, 0, 49, 59
1, 160795, Note_on_c, 0, 56, 69
1, 160797, Note_on_c, 0, 64, 68
1, 160817, Note_off_c, 0, 49, 65
1, 160824, Note_off_c, 0, 56, 67
1, 160826, Note_off_c, 0, 64, 66
1, 160911, Note_on_c, 0, 51, 72
1, 160923, Note_on_c, 0, 56, 72
1, 160925, Note_on_c, 0, 63, 73
1, 160944, Note_off_c, 0, 51, 64
1, 160952, Note_off_c, 0, 56, 67
1, 160964, Note_off_c, 0, 63, 64
1, 161042, Note_on_c, 0, 61, 72
1, 161042, Note_on_c, 0, 52, 62
1, 161048, Note_on_c, 0, 56, 58
1, 161074, Note_off_c, 0, 52, 65
1, 161075, Note_off_c, 0, 61, 63
1, 161076, Note_off_c, 0, 56, 66
1, 161159, Control_c, 0, 64, 29
1, 161171, Note_on_c, 0, 44, 68
1, 161173, Note_on_c, 0, 56, 67
1, 161174, Control_c, 0, 64, 48
1, 161188, Note_on_c, 0, 60, 59
1, 161188, Control_c, 0, 64, 58
1, 161197, Note_on_c, 0, 54, 26
1, 161198, Note_off_c, 0, 54, 127
1, 161203, Control_c, 0, 64, 63
1, 161204, Note_off_c, 0, 56, 65
1, 161207, Note_off_c, 0, 44, 62
1, 161218, Note_off_c, 0, 60, 66
1, 161218, Control_c, 0, 64, 68
1, 161233, Control_c, 0, 64, 73
1, 161248, Control_c, 0, 64, 77
1, 161263, Control_c, 0, 64, 79
1, 161308, Control_c, 0, 64, 77
1, 161312, Note_on_c, 0, 56, 61
1, 161317, Note_on_c, 0, 60, 59
1, 161322, Control_c, 0, 64, 70
1, 161329, Note_on_c, 0, 68, 67
1, 161337, Control_c, 0, 64, 60
1, 161342, Note_on_c, 0, 54, 44
1, 161343, Note_off_c, 0, 56, 66
1, 161348, Note_off_c, 0, 60, 66
1, 161352, Control_c, 0, 64, 18
1, 161358, Note_off_c, 0, 68, 66
1, 161367, Control_c, 0, 64, 0
1, 161373, Note_off_c, 0, 54, 56
1, 161458, Note_on_c, 0, 68, 68
1, 161459, Note_on_c, 0, 60, 64
1, 161461, Note_on_c, 0, 54, 59
1, 161469, Note_on_c, 0, 56, 49
1, 161487, Note_off_c, 0, 60, 66
1, 161489, Note_off_c, 0, 68, 63
1, 161494, Note_off_c, 0, 54, 63
1, 161499, Note_off_c, 0, 56, 64
1, 161585, Note_on_c, 0, 56, 62
1, 161591, Note_on_c, 0, 68, 65
1, 161592, Note_on_c, 0, 60, 52
1, 161596, Note_on_c, 0, 54, 46
1, 161621, Note_off_c, 0, 60, 66
1, 161621, Note_off_c, 0, 68, 66
1, 161622, Note_off_c, 0, 56, 62
1, 161627, Note_off_c, 0, 54, 63
1, 161710, Note_on_c, 0, 60, 65
1, 161715, Note_on_c, 0, 68, 68
1, 161719, Note_on_c, 0, 56, 58
1, 161722, Note_on_c, 0, 54, 57
1, 161739, Note_off_c, 0, 60, 66
1, 161747, Note_off_c, 0, 68, 64
1, 161752, Note_off_c, 0, 56, 64
1, 161757, Note_off_c, 0, 54, 63
1, 161834, Note_on_c, 0, 60, 67
1, 161841, Note_on_c, 0, 56, 63
1, 161842, Note_on_c, 0, 54, 63
1, 161844, Note_on_c, 0, 68, 66
1, 161867, Note_off_c, 0, 60, 65
1, 161871, Note_off_c, 0, 68, 69
1, 161875, Note_off_c, 0, 56, 64
1, 161880, Note_off_c, 0, 54, 62
1, 161962, Note_on_c, 0, 56, 62
1, 161966, Note_on_c, 0, 54, 56
1, 161966, Note_on_c, 0, 61, 75
1, 161968, Note_on_c, 0, 68, 63
1, 161996, Note_off_c, 0, 56, 64
1, 161999, Note_off_c, 0, 54, 63
1, 161999, Note_off_c, 0, 61, 60
1, 161999, Note_off_c, 0, 68, 67
1, 162005, Note_on_c, 0, 52, 22
1, 162045, Note_off_c, 0, 52, 48
1, 162083, Note_on_c, 0, 68, 73
1, 162086, Note_on_c, 0, 56, 63
1, 162102, Note_on_c, 0, 51, 59
1, 162111, Note_on_c, 0, 63, 50
1, 162112, Note_off_c, 0, 56, 66
1, 162121, Note_off_c, 0, 68, 60
1, 162131, Note_off_c, 0, 51, 64
1, 162135, Note_off_c, 0, 63, 59
1, 162197, Control_c, 0, 64, 35
1, 162211, Control_c, 0, 64, 58
1, 162226, Control_c, 0, 64, 63
1, 162239, Note_on_c, 0, 64, 70
1, 162241, Control_c, 0, 64, 64
1, 162242, Note_on_c, 0, 68, 63
1, 162244, Note_on_c, 0, 49, 68
1, 162249, Note_on_c, 0, 37, 62
1, 162256, Control_c, 0, 64, 66
1, 162259, Note_off_c, 0, 64, 67
1, 162267, Note_off_c, 0, 68, 66
1, 162271, Control_c, 0, 64, 68
1, 162273, Note_off_c, 0, 49, 65
1, 162282, Note_off_c, 0, 37, 64
1, 162286, Control_c, 0, 64, 70
1, 162300, Control_c, 0, 64, 72
1, 162315, Control_c, 0, 64, 73
1, 162330, Control_c, 0, 64, 74
1, 162345, Control_c, 0, 64, 73
1, 162360, Control_c, 0, 64, 71
1, 162372, Note_on_c, 0, 64, 57
1, 162375, Control_c, 0, 64, 67
1, 162385, Note_on_c, 0, 49, 48
1, 162390, Control_c, 0, 64, 60
1, 162400, Note_on_c, 0, 56, 51
1, 162405, Control_c, 0, 64, 44
1, 162419, Control_c, 0, 64, 0
1, 162422, Note_off_c, 0, 49, 64
1, 162424, Note_off_c, 0, 56, 59
1, 162426, Note_off_c, 0, 64, 62
1, 162512, Note_on_c, 0, 49, 61
1, 162513, Note_on_c, 0, 56, 58
1, 162517, Note_on_c, 0, 64, 63
1, 162545, Note_off_c, 0, 56, 64
1, 162548, Note_off_c, 0, 49, 63
1, 162551, Note_off_c, 0, 64, 65
1, 162644, Note_on_c, 0, 49, 51
1, 162646, Note_on_c, 0, 56, 68
1, 162647, Note_on_c, 0, 64, 69
1, 162677, Note_off_c, 0, 49, 64
1, 162679, Note_off_c, 0, 56, 63
1, 162679, Note_off_c, 0, 64, 65
1, 162760, Note_on_c, 0, 49, 62
1, 162780, Note_on_c, 0, 56, 69
1, 162781, Note_on_c, 0, 64, 69
1, 162798, Note_off_c, 0, 49, 63
1, 162810, Note_off_c, 0, 56, 66
1, 162811, Note_off_c, 0, 64, 66
1, 162896, Note_on_c, 0, 49, 63
1, 162913, Note_on_c, 0, 64, 68
1, 162918, Note_on_c, 0, 56, 72
1, 162933, Note_off_c, 0, 49, 63
1, 162944, Note_off_c, 0, 64, 64
1, 162946, Note_off_c, 0, 56, 66
1, 163033, Note_on_c, 0, 56, 70
1, 163037, Note_on_c, 0, 63, 72
1, 163040, Note_on_c, 0, 51, 56
1, 163062, Note_off_c, 0, 56, 66
1, 163063, Note_off_c, 0, 51, 61
1, 163072, Note_off_c, 0, 63, 65
1, 163157, Note_on_c, 0, 52, 60
1, 163159, Note_on_c, 0, 56, 75
1, 163163, Note_on_c, 0, 61, 67
1, 163187, Note_off_c, 0, 52, 65
1, 163189, Note_off_c, 0, 56, 64
1, 163196, Note_off_c, 0, 61, 66
1, 163242, Control_c, 0, 64, 12
1, 163257, Control_c, 0, 64, 49
1, 163272, Control_c, 0, 64, 56
1, 163286, Control_c, 0, 64, 61
1, 163291, Note_on_c, 0, 56, 70
1, 163298, Note_on_c, 0, 54, 68
1, 163300, Note_on_c, 0, 44, 55
1, 163300, Note_on_c, 0, 60, 63
1, 163301, Control_c, 0, 64, 65
1, 163316, Control_c, 0, 64, 70
1, 163320, Note_off_c, 0, 56, 66
1, 163326, Note_off_c, 0, 44, 57
1, 163328, Note_off_c, 0, 54, 65
1, 163329, Note_off_c, 0, 60, 67
1, 163331, Control_c, 0, 64, 75
1, 163346, Control_c, 0, 64, 79
1, 163360, Control_c, 0, 64, 79
1, 163420, Control_c, 0, 64, 77
1, 163428, Note_on_c, 0, 56, 50
1, 163430, Note_on_c, 0, 60, 62
1, 163432, Note_on_c, 0, 54, 54
1, 163435, Control_c, 0, 64, 72
1, 163439, Note_on_c, 0, 68, 68
1, 163450, Control_c, 0, 64, 64
1, 163456, Note_off_c, 0, 60, 69
1, 163464, Note_off_c, 0, 56, 64
1, 163465, Note_off_c, 0, 68, 69
1, 163465, Control_c, 0, 64, 48
1, 163469, Note_off_c, 0, 54, 63
1, 163481, Control_c, 0, 64, 0
1, 163560, Note_on_c, 0, 60, 67
1, 163560, Note_on_c, 0, 68, 69
1, 163569, Note_on_c, 0, 54, 60
1, 163571, Note_on_c, 0, 56, 56
1, 163588, Note_off_c, 0, 60, 66
1, 163594, Note_off_c, 0, 68, 62
1, 163600, Note_off_c, 0, 56, 65
1, 163603, Note_off_c, 0, 54, 63
1, 163696, Note_on_c, 0, 60, 61
1, 163698, Note_on_c, 0, 56, 62
1, 163701, Note_on_c, 0, 68, 69
1, 163701, Note_on_c, 0, 54, 56
1, 163722, Note_off_c, 0, 60, 66
1, 163727, Note_off_c, 0, 68, 68
1, 163731, Note_off_c, 0, 56, 63
1, 163734, Note_off_c, 0, 54, 64
1, 163824, Note_on_c, 0, 60, 65
1, 163829, Note_on_c, 0, 56, 62
1, 163832, Note_on_c, 0, 68, 61
1, 163836, Note_on_c, 0, 54, 51
1, 163854, Note_off_c, 0, 60, 66
1, 163860, Note_off_c, 0, 68, 67
1, 163862, Note_off_c, 0, 56, 64
1, 163869, Note_off_c, 0, 54, 64
1, 163946, Note_on_c, 0, 54, 67
1, 163949, Note_on_c, 0, 60, 66
1, 163950, Note_on_c, 0, 56, 60
1, 163953, Note_on_c, 0, 68, 64
1, 163979, Note_off_c, 0, 60, 67
1, 163981, Note_off_c, 0, 56, 65
1, 163984, Note_off_c, 0, 68, 66
1, 163992, Note_off_c, 0, 54, 62
1, 164021, Control_c, 0, 67, 125
1, 164036, Control_c, 0, 67, 124
1, 164051, Control_c, 0, 67, 124
1, 164065, Control_c, 0, 67, 123
1, 164077, Note_on_c, 0, 56, 55
1, 164080, Note_on_c, 0, 61, 77
1, 164080, Control_c, 0, 67, 122
1, 164095, Control_c, 0, 67, 121
1, 164099, Note_on_c, 0, 52, 39
1, 164100, Note_on_c, 0, 68, 35
1, 164110, Control_c, 0, 67, 120
1, 164112, Note_off_c, 0, 56, 63
1, 164116, Note_off_c, 0, 61, 55
1, 164125, Control_c, 0, 67, 118
1, 164132, Note_off_c, 0, 68, 54
1, 164134, Note_off_c, 0, 52, 53
1, 164139, Control_c, 0, 67, 118
1, 164154, Control_c, 0, 67, 117
1, 164184, Control_c, 0, 67, 117
1, 164190, Note_on_c, 0, 56, 56
1, 164196, Note_on_c, 0, 68, 73
1, 164206, Note_on_c, 0, 51, 51
1, 164214, Control_c, 0, 67, 116
1, 164214, Note_off_c, 0, 56, 61
1, 164220, Note_on_c, 0, 63, 56
1, 164226, Note_off_c, 0, 68, 62
1, 164229, Control_c, 0, 67, 116
1, 164235, Note_off_c, 0, 51, 56
1, 164243, Note_off_c, 0, 63, 60
1, 164244, Control_c, 0, 67, 115
1, 164258, Control_c, 0, 67, 115
1, 164289, Control_c, 0, 67, 113
1, 164303, Control_c, 0, 67, 109
1, 164318, Control_c, 0, 67, 109
1, 164328, Note_on_c, 0, 49, 82
1, 164333, Control_c, 0, 67, 110
1, 164340, Note_on_c, 0, 68, 69
1, 164341, Note_on_c, 0, 64, 72
1, 164343, Note_on_c, 0, 37, 55
1, 164348, Control_c, 0, 67, 112
1, 164354, Note_off_c, 0, 49, 68
1, 164360, Note_off_c, 0, 64, 67
1, 164363, Control_c, 0, 67, 113
1, 164370, Note_off_c, 0, 68, 66
1, 164372, Note_off_c, 0, 37, 56
1, 164414, Control_c, 0, 67, 114
1, 164444, Control_c, 0, 67, 114
1, 164480, Note_on_c, 0, 68, 60
1, 164484, Note_on_c, 0, 64, 53
1, 164488, Control_c, 0, 67, 115
1, 164490, Note_on_c, 0, 52, 56
1, 164497, Note_on_c, 0, 49, 47
1, 164518, Control_c, 0, 67, 115
1, 164521, Note_off_c, 0, 52, 64
1, 164522, Note_off_c, 0, 64, 63
1, 164526, Note_off_c, 0, 49, 57
1, 164531, Note_off_c, 0, 68, 58
1, 164533, Control_c, 0, 67, 116
1, 164593, Control_c, 0, 67, 116
1, 164605, Note_on_c, 0, 49, 61
1, 164614, Note_on_c, 0, 52, 48
1, 164620, Note_on_c, 0, 68, 63
1, 164622, Control_c, 0, 67, 117
1, 164628, Note_on_c, 0, 64, 52
1, 164637, Control_c, 0, 67, 117
1, 164652, Control_c, 0, 67, 119
1, 164656, Note_off_c, 0, 64, 65
1, 164664, Note_off_c, 0, 52, 58
1, 164667, Control_c, 0, 67, 120
1, 164682, Control_c, 0, 67, 121
1, 164697, Control_c, 0, 67, 122
1, 164712, Control_c, 0, 67, 123
1, 164713, Note_off_c, 0, 68, 57
1, 164727, Control_c, 0, 67, 123
1, 164736, Note_on_c, 0, 56, 54
1, 164736, Note_on_c, 0, 64, 65
1, 164741, Control_c, 0, 67, 124
1, 164756, Control_c, 0, 67, 126
1, 164760, Note_off_c, 0, 56, 60
1, 164763, Note_off_c, 0, 64, 67
1, 164771, Control_c, 0, 67, 127
1, 164771, Note_off_c, 0, 49, 55
1, 164856, Note_on_c, 0, 42, 64
1, 164892, Note_off_c, 0, 42, 63
1, 164993, Note_on_c, 0, 69, 59
1, 164997, Note_on_c, 0, 54, 63
1, 164998, Note_on_c, 0, 49, 59
1, 165010, Note_on_c, 0, 66, 46
1, 165025, Note_off_c, 0, 69, 65
1, 165028, Note_off_c, 0, 54, 64
1, 165032, Note_off_c, 0, 49, 63
1, 165036, Note_off_c, 0, 66, 57
1, 165083, Control_c, 0, 67, 127
1, 165109, Note_on_c, 0, 69, 66
1, 165110, Note_on_c, 0, 49, 60
1, 165112, Control_c, 0, 67, 126
1, 165125, Note_on_c, 0, 66, 51
1, 165127, Control_c, 0, 67, 126
1, 165137, Note_on_c, 0, 54, 35
1, 165162, Note_off_c, 0, 66, 65
1, 165208, Note_off_c, 0, 69, 56
1, 165209, Control_c, 0, 67, 125
1, 165227, Note_off_c, 0, 54, 0
1, 165245, Note_on_c, 0, 54, 22
1, 165254, Note_on_c, 0, 57, 28
1, 165256, Note_on_c, 0, 66, 55
1, 165263, Note_on_c, 0, 61, 52
1, 165272, Note_off_c, 0, 49, 62
1, 165278, Note_off_c, 0, 54, 49
1, 165287, Note_off_c, 0, 61, 58
1, 165292, Note_off_c, 0, 57, 51
1, 165296, Note_off_c, 0, 66, 62
1, 165370, Note_on_c, 0, 44, 63
1, 165406, Note_off_c, 0, 44, 62
1, 165511, Note_on_c, 0, 52, 58
1, 165513, Note_on_c, 0, 68, 61
1, 165514, Note_on_c, 0, 49, 56
1, 165517, Note_on_c, 0, 64, 53
1, 165535, Control_c, 0, 67, 125
1, 165541, Note_off_c, 0, 64, 62
1, 165545, Note_off_c, 0, 52, 64
1, 165552, Note_off_c, 0, 49, 63
1, 165553, Note_off_c, 0, 68, 61
1, 165637, Note_on_c, 0, 49, 57
1, 165642, Note_on_c, 0, 64, 50
1, 165643, Note_on_c, 0, 68, 66
1, 165645, Note_on_c, 0, 52, 46
1, 165676, Note_off_c, 0, 64, 64
1, 165701, Note_off_c, 0, 52, 54
1, 165722, Note_off_c, 0, 68, 59
1, 165756, Note_on_c, 0, 56, 59
1, 165758, Note_on_c, 0, 64, 63
1, 165771, Note_on_c, 0, 61, 53
1, 165784, Note_off_c, 0, 56, 65
1, 165791, Note_off_c, 0, 64, 62
1, 165797, Note_off_c, 0, 61, 58
1, 165798, Note_off_c, 0, 49, 56
1, 165876, Control_c, 0, 67, 124
1, 165892, Note_on_c, 0, 44, 63
1, 165935, Note_off_c, 0, 44, 61
1, 165943, Control_c, 0, 67, 124
1, 166023, Note_on_c, 0, 49, 66
1, 166032, Note_on_c, 0, 68, 66
1, 166034, Note_on_c, 0, 51, 60
1, 166041, Note_on_c, 0, 63, 63
1, 166063, Note_off_c, 0, 68, 64
1, 166066, Note_off_c, 0, 51, 63
1, 166075, Note_off_c, 0, 63, 63
1, 166076, Control_c, 0, 67, 123
1, 166080, Note_off_c, 0, 49, 61
1, 166091, Control_c, 0, 67, 123
1, 166105, Control_c, 0, 67, 122
1, 166119, Control_c, 0, 67, 121
1, 166134, Control_c, 0, 67, 120
1, 166149, Control_c, 0, 67, 119
1, 166155, Note_on_c, 0, 68, 68
1, 166156, Note_on_c, 0, 63, 67
1, 166164, Control_c, 0, 67, 118
1, 166178, Control_c, 0, 67, 116
1, 166184, Note_on_c, 0, 48, 43
1, 166184, Note_on_c, 0, 51, 27
1, 166188, Note_off_c, 0, 63, 64
1, 166193, Control_c, 0, 67, 113
1, 166208, Control_c, 0, 67, 108
1, 166223, Control_c, 0, 67, 104
1, 166238, Control_c, 0, 67, 100
1, 166240, Note_off_c, 0, 51, 0
1, 166251, Note_on_c, 0, 56, 60
1, 166253, Control_c, 0, 67, 97
1, 166265, Note_off_c, 0, 68, 0
1, 166266, Note_on_c, 0, 51, 19
1, 166268, Control_c, 0, 67, 95
1, 166271, Note_on_c, 0, 63, 73
1, 166282, Note_off_c, 0, 56, 65
1, 166283, Control_c, 0, 67, 93
1, 166293, Note_on_c, 0, 60, 44
1, 166298, Note_off_c, 0, 48, 57
1, 166298, Control_c, 0, 67, 90
1, 166301, Note_off_c, 0, 51, 51
1, 166302, Poly_aftertouch_c, 0, 68, 127
1, 166312, Control_c, 0, 67, 85
1, 166319, Note_off_c, 0, 60, 57
1, 166322, Note_off_c, 0, 63, 47
1, 166327, Control_c, 0, 67, 80
1, 166341, Poly_aftertouch_c, 0, 68, 0
1, 166342, Control_c, 0, 67, 77
1, 166357, Control_c, 0, 67, 77
1, 166372, Control_c, 0, 64, 35
1, 166386, Control_c, 0, 64, 51
1, 166401, Control_c, 0, 64, 58
1, 166416, Control_c, 0, 64, 63
1, 166416, Control_c, 0, 67, 77
1, 166424, Note_on_c, 0, 64, 71
1, 166429, Note_on_c, 0, 49, 60
1, 166431, Control_c, 0, 64, 66
1, 166431, Control_c, 0, 67, 78
1, 166434, Note_on_c, 0, 61, 55
1, 166435, Note_on_c, 0, 37, 42
1, 166446, Control_c, 0, 64, 71
1, 166446, Control_c, 0, 67, 78
1, 166453, Note_off_c, 0, 64, 67
1, 166458, Note_off_c, 0, 49, 64
1, 166460, Control_c, 0, 64, 76
1, 166462, Note_off_c, 0, 61, 65
1, 166464, Note_off_c, 0, 37, 53
1, 166475, Control_c, 0, 64, 79
1, 166490, Control_c, 0, 64, 81
1, 166504, Control_c, 0, 67, 79
1, 166519, Control_c, 0, 67, 80
1, 166549, Control_c, 0, 67, 80
1, 166564, Control_c, 0, 64, 80
1, 166578, Note_on_c, 0, 49, 60
1, 166578, Control_c, 0, 64, 77
1, 166582, Note_on_c, 0, 56, 62
1, 166584, Note_on_c, 0, 76, 72
1, 166590, Note_on_c, 0, 68, 67
1, 166590, Note_on_c, 0, 64, 64
1, 166593, Control_c, 0, 64, 75
1, 166608, Control_c, 0, 64, 74
1, 166608, Control_c, 0, 67, 80
1, 166609, Note_off_c, 0, 76, 63
1, 166611, Note_off_c, 0, 64, 64
1, 166612, Note_off_c, 0, 56, 66
1, 166619, Note_off_c, 0, 49, 63
1, 166619, Note_off_c, 0, 68, 68
1, 166623, Control_c, 0, 64, 73
1, 166638, Control_c, 0, 67, 79
1, 166660, Control_c, 0, 64, 73
1, 166675, Control_c, 0, 64, 72
1, 166675, Control_c, 0, 67, 79
1, 166691, Control_c, 0, 64, 71
1, 166691, Control_c, 0, 67, 78
1, 166706, Control_c, 0, 64, 70
1, 166706, Control_c, 0, 67, 78
1, 166710, Note_on_c, 0, 76, 76
1, 166712, Note_on_c, 0, 56, 60
1, 166715, Note_on_c, 0, 49, 72
1, 166715, Note_on_c, 0, 64, 68
1, 166718, Note_on_c, 0, 68, 76
1, 166721, Control_c, 0, 64, 70
1, 166721, Control_c, 0, 67, 77
1, 166735, Control_c, 0, 67, 75
1, 166742, Note_off_c, 0, 64, 67
1, 166747, Note_off_c, 0, 49, 65
1, 166750, Control_c, 0, 67, 73
1, 166751, Note_off_c, 0, 56, 65
1, 166751, Note_off_c, 0, 68, 60
1, 166760, Note_off_c, 0, 76, 62
1, 166765, Control_c, 0, 64, 69
1, 166765, Control_c, 0, 67, 70
1, 166780, Control_c, 0, 67, 66
1, 166795, Control_c, 0, 64, 68
1, 166795, Control_c, 0, 67, 62
1, 166809, Control_c, 0, 67, 56
1, 166824, Control_c, 0, 67, 52
1, 166834, Note_on_c, 0, 56, 69
1, 166839, Control_c, 0, 67, 48
1, 166840, Note_on_c, 0, 64, 78
1, 166840, Note_on_c, 0, 68, 81
1, 166840, Note_on_c, 0, 76, 81
1, 166842, Note_on_c, 0, 49, 68
1, 166854, Control_c, 0, 67, 46
1, 166866, Note_off_c, 0, 64, 68
1, 166869, Control_c, 0, 67, 45
1, 166873, Note_off_c, 0, 56, 61
1, 166876, Note_off_c, 0, 49, 61
1, 166882, Note_off_c, 0, 76, 62
1, 166883, Control_c, 0, 67, 45
1, 166887, Note_off_c, 0, 68, 55
1, 166913, Control_c, 0, 67, 44
1, 166927, Control_c, 0, 67, 43
1, 166942, Control_c, 0, 67, 42
1, 166957, Control_c, 0, 67, 39
1, 166961, Note_on_c, 0, 49, 65
1, 166963, Note_on_c, 0, 76, 86
1, 166966, Note_on_c, 0, 64, 78
1, 166967, Note_on_c, 0, 56, 72
1, 166971, Note_on_c, 0, 68, 76
1, 166972, Control_c, 0, 67, 31
1, 166987, Control_c, 0, 64, 69
1, 166987, Control_c, 0, 67, 15
1, 166995, Note_off_c, 0, 64, 66
1, 166998, Note_off_c, 0, 56, 65
1, 167001, Control_c, 0, 67, 0
1, 167005, Note_off_c, 0, 49, 60
1, 167005, Note_off_c, 0, 76, 64
1, 167020, Note_off_c, 0, 68, 59
1, 167090, Note_on_c, 0, 76, 88
1, 167091, Note_on_c, 0, 56, 70
1, 167094, Note_on_c, 0, 64, 75
1, 167095, Note_on_c, 0, 49, 77
1, 167097, Note_on_c, 0, 68, 77
1, 167119, Note_off_c, 0, 56, 65
1, 167119, Note_off_c, 0, 64, 67
1, 167119, Note_off_c, 0, 76, 60
1, 167123, Note_off_c, 0, 68, 67
1, 167135, Note_off_c, 0, 49, 62
1, 167180, Control_c, 0, 64, 68
1, 167205, Note_on_c, 0, 56, 72
1, 167209, Control_c, 0, 64, 68
1, 167211, Note_on_c, 0, 66, 83
1, 167212, Note_on_c, 0, 75, 81
1, 167216, Note_on_c, 0, 51, 68
1, 167220, Note_on_c, 0, 63, 74
1, 167224, Control_c, 0, 64, 67
1, 167239, Control_c, 0, 64, 66
1, 167240, Note_off_c, 0, 56, 66
1, 167249, Note_off_c, 0, 63, 68
1, 167249, Note_off_c, 0, 75, 56
1, 167254, Control_c, 0, 64, 64
1, 167255, Note_off_c, 0, 66, 62
1, 167256, Note_off_c, 0, 51, 62
1, 167269, Control_c, 0, 64, 62
1, 167283, Control_c, 0, 64, 58
1, 167298, Control_c, 0, 64, 50
1, 167313, Control_c, 0, 64, 36
1, 167326, Note_on_c, 0, 52, 70
1, 167327, Control_c, 0, 64, 0
1, 167329, Note_on_c, 0, 73, 89
1, 167331, Note_on_c, 0, 56, 81
1, 167335, Note_on_c, 0, 61, 76
1, 167338, Note_on_c, 0, 64, 77
1, 167362, Note_off_c, 0, 61, 69
1, 167366, Note_off_c, 0, 64, 65
1, 167369, Note_off_c, 0, 52, 63
1, 167373, Note_off_c, 0, 56, 59
1, 167386, Note_off_c, 0, 73, 64
1, 167479, Note_on_c, 0, 56, 85
1, 167481, Note_on_c, 0, 72, 99
1, 167484, Note_on_c, 0, 54, 85
1, 167485, Note_on_c, 0, 60, 87
1, 167486, Note_on_c, 0, 63, 91
1, 167487, Note_on_c, 0, 44, 75
1, 167499, Control_c, 0, 64, 66
1, 167505, Note_off_c, 0, 60, 70
1, 167506, Note_off_c, 0, 54, 70
1, 167509, Note_off_c, 0, 63, 71
1, 167511, Note_off_c, 0, 56, 63
1, 167514, Control_c, 0, 64, 76
1, 167514, Note_off_c, 0, 44, 63
1, 167529, Control_c, 0, 64, 84
1, 167533, Note_off_c, 0, 72, 66
1, 167544, Control_c, 0, 64, 88
1, 167558, Control_c, 0, 64, 95
1, 167573, Control_c, 0, 64, 106
1, 167588, Control_c, 0, 64, 127
1, 167664, Note_on_c, 0, 56, 90
1, 167665, Note_on_c, 0, 66, 96
1, 167665, Note_on_c, 0, 84, 96
1, 167669, Note_on_c, 0, 72, 91
1, 167669, Note_on_c, 0, 75, 96
1, 167687, Note_off_c, 0, 72, 71
1, 167688, Note_off_c, 0, 66, 64
1, 167689, Note_off_c, 0, 75, 66
1, 167702, Note_off_c, 0, 84, 64
1, 167711, Note_off_c, 0, 56, 62
1, 167792, Note_on_c, 0, 66, 93
1, 167793, Note_on_c, 0, 56, 89
1, 167799, Note_on_c, 0, 84, 98
1, 167801, Note_on_c, 0, 72, 96
1, 167802, Note_on_c, 0, 75, 97
1, 167831, Note_off_c, 0, 66, 60
1, 167831, Note_off_c, 0, 72, 62
1, 167837, Note_off_c, 0, 56, 64
1, 167839, Note_off_c, 0, 75, 63
1, 167854, Note_off_c, 0, 84, 62
1, 167919, Note_on_c, 0, 84, 92
1, 167921, Note_on_c, 0, 66, 91
1, 167923, Note_on_c, 0, 75, 89
1, 167925, Note_on_c, 0, 72, 83
1, 167928, Note_on_c, 0, 56, 74
1, 167955, Note_off_c, 0, 72, 58
1, 167960, Note_off_c, 0, 66, 66
1, 167967, Note_off_c, 0, 56, 61
1, 167970, Note_off_c, 0, 84, 62
1, 167972, Note_off_c, 0, 75, 58
1, 168047, Note_on_c, 0, 66, 83
1, 168050, Note_on_c, 0, 84, 84
1, 168050, Note_on_c, 0, 72, 82
1, 168052, Note_on_c, 0, 75, 85
1, 168053, Note_on_c, 0, 56, 73
1, 168075, Note_off_c, 0, 72, 63
1, 168092, Note_off_c, 0, 84, 63
1, 168093, Note_off_c, 0, 66, 62
1, 168101, Note_off_c, 0, 75, 62
1, 168103, Note_off_c, 0, 56, 61
1, 168119, Note_on_c, 0, 83, 3
1, 168166, Note_off_c, 0, 83, 46
1, 168170, Note_on_c, 0, 66, 74
1, 168173, Note_on_c, 0, 56, 63
1, 168179, Note_on_c, 0, 72, 77
1, 168183, Note_on_c, 0, 84, 72
1, 168188, Note_on_c, 0, 76, 79
1, 168202, Note_off_c, 0, 72, 69
1, 168209, Note_on_c, 0, 86, 45
1, 168212, Note_off_c, 0, 56, 52
1, 168216, Note_off_c, 0, 66, 61
1, 168220, Note_off_c, 0, 84, 50
1, 168229, Note_off_c, 0, 76, 59
1, 168235, Note_off_c, 0, 86, 36
1, 168286, Note_on_c, 0, 64, 82
1, 168298, Note_on_c, 0, 56, 73
1, 168306, Note_on_c, 0, 85, 82
1, 168307, Note_on_c, 0, 73, 73
1, 168325, Note_off_c, 0, 56, 66
1, 168326, Note_off_c, 0, 85, 71
1, 168327, Note_off_c, 0, 64, 60
1, 168331, Note_off_c, 0, 73, 69
1, 168343, Note_on_c, 0, 76, 34
1, 168375, Note_off_c, 0, 76, 55
1, 168402, Note_on_c, 0, 56, 68
1, 168411, Note_on_c, 0, 63, 73
1, 168420, Note_on_c, 0, 87, 101
1, 168426, Note_on_c, 0, 75, 88
1, 168431, Note_off_c, 0, 56, 67
1, 168438, Note_off_c, 0, 63, 71
1, 168441, Control_c, 0, 64, 88
1, 168446, Note_on_c, 0, 79, 59
1, 168447, Note_off_c, 0, 75, 68
1, 168456, Control_c, 0, 64, 59
1, 168465, Note_off_c, 0, 79, 61
1, 168470, Note_off_c, 0, 87, 64
1, 168471, Control_c, 0, 64, 0
1, 168545, Control_c, 0, 64, 63
1, 168560, Control_c, 0, 64, 76
1, 168565, Note_on_c, 0, 37, 84
1, 168566, Note_on_c, 0, 49, 91
1, 168566, Note_on_c, 0, 88, 91
1, 168570, Note_on_c, 0, 76, 87
1, 168574, Control_c, 0, 64, 93
1, 168575, Note_on_c, 0, 86, 72
1, 168581, Note_on_c, 0, 79, 47
1, 168584, Note_off_c, 0, 88, 71
1, 168587, Note_off_c, 0, 37, 65
1, 168587, Note_off_c, 0, 49, 68
1, 168589, Control_c, 0, 64, 117
1, 168590, Note_off_c, 0, 86, 68
1, 168591, Note_off_c, 0, 76, 71
1, 168593, Note_on_c, 0, 74, 37
1, 168594, Note_off_c, 0, 74, 127
1, 168604, Control_c, 0, 64, 127
1, 168608, Note_off_c, 0, 79, 57
1, 168634, Control_c, 0, 67, 9
1, 168648, Control_c, 0, 67, 10
1, 168663, Control_c, 0, 67, 12
1, 168665, Note_on_c, 0, 49, 12
1, 168678, Control_c, 0, 67, 13
1, 168687, Note_off_c, 0, 49, 60
1, 168692, Control_c, 0, 67, 13
1, 168707, Control_c, 0, 67, 14
1, 168722, Control_c, 0, 67, 15
1, 168737, Control_c, 0, 67, 15
1, 168742, Note_on_c, 0, 49, 74
1, 168744, Note_on_c, 0, 56, 66
1, 168747, Note_on_c, 0, 76, 78
1, 168749, Note_on_c, 0, 64, 72
1, 168751, Poly_aftertouch_c, 0, 37, 0
1, 168767, Note_on_c, 0, 68, 51
1, 168770, Note_off_c, 0, 56, 66
1, 168772, Note_off_c, 0, 49, 63
1, 168772, Note_off_c, 0, 76, 62
1, 168773, Note_off_c, 0, 64, 67
1, 168789, Note_off_c, 0, 68, 63
1, 168796, Control_c, 0, 67, 15
1, 168861, Note_on_c, 0, 56, 62
1, 168863, Note_on_c, 0, 49, 60
1, 168869, Note_on_c, 0, 64, 64
1, 168873, Note_on_c, 0, 76, 77
1, 168875, Note_on_c, 0, 68, 63
1, 168902, Note_off_c, 0, 49, 62
1, 168910, Note_off_c, 0, 56, 60
1, 168912, Note_off_c, 0, 64, 64
1, 168914, Note_off_c, 0, 76, 56
1, 168918, Note_off_c, 0, 68, 65
1, 168922, Control_c, 0, 67, 14
1, 168937, Control_c, 0, 67, 14
1, 168952, Control_c, 0, 67, 13
1, 168967, Control_c, 0, 67, 13
1, 168981, Control_c, 0, 67, 12
1, 168996, Control_c, 0, 67, 11
1, 169008, Note_on_c, 0, 56, 70
1, 169008, Note_on_c, 0, 76, 86
1, 169010, Note_on_c, 0, 64, 79
1, 169010, Note_on_c, 0, 68, 78
1, 169010, Note_on_c, 0, 49, 63
1, 169011, Control_c, 0, 67, 8
1, 169026, Control_c, 0, 67, 0
1, 169037, Note_off_c, 0, 64, 67
1, 169038, Note_off_c, 0, 56, 65
1, 169042, Note_off_c, 0, 49, 62
1, 169055, Note_off_c, 0, 76, 58
1, 169057, Note_off_c, 0, 68, 59
1, 169124, Note_on_c, 0, 56, 67
1, 169124, Note_on_c, 0, 49, 68
1, 169128, Note_on_c, 0, 76, 86
1, 169129, Note_on_c, 0, 64, 82
1, 169132, Note_on_c, 0, 68, 81
1, 169163, Note_off_c, 0, 64, 62
1, 169170, Note_off_c, 0, 56, 64
1, 169171, Note_off_c, 0, 76, 62
1, 169173, Note_off_c, 0, 49, 62
1, 169185, Note_off_c, 0, 68, 63
1, 169219, Control_c, 0, 64, 93
1, 169234, Control_c, 0, 64, 72
1, 169249, Control_c, 0, 64, 44
1, 169255, Note_on_c, 0, 49, 77
1, 169255, Note_on_c, 0, 56, 71
1, 169258, Note_on_c, 0, 76, 84
1, 169259, Note_on_c, 0, 64, 81
1, 169262, Note_on_c, 0, 68, 78
1, 169264, Control_c, 0, 64, 0
1, 169282, Note_off_c, 0, 76, 66
1, 169285, Note_off_c, 0, 64, 67
1, 169286, Note_off_c, 0, 56, 64
1, 169288, Note_off_c, 0, 68, 65
1, 169290, Note_off_c, 0, 49, 61
1, 169323, Control_c, 0, 64, 14
1, 169338, Control_c, 0, 64, 12
1, 169353, Control_c, 0, 64, 0
1, 169362, Note_on_c, 0, 56, 72
1, 169371, Note_on_c, 0, 75, 80
1, 169373, Note_on_c, 0, 66, 83
1, 169375, Note_on_c, 0, 51, 65
1, 169376, Note_on_c, 0, 63, 76
1, 169383, Control_c, 0, 64, 9
1, 169395, Note_off_c, 0, 66, 69
1, 169399, Note_off_c, 0, 63, 69
1, 169407, Note_off_c, 0, 56, 60
1, 169410, Note_off_c, 0, 75, 61
1, 169410, Note_off_c, 0, 51, 63
1, 169457, Control_c, 0, 64, 0
1, 169480, Note_on_c, 0, 52, 74
1, 169487, Note_on_c, 0, 56, 77
1, 169490, Note_on_c, 0, 73, 87
1, 169501, Note_on_c, 0, 64, 77
1, 169502, Note_on_c, 0, 61, 66
1, 169522, Note_off_c, 0, 52, 64
1, 169529, Note_off_c, 0, 61, 66
1, 169530, Note_off_c, 0, 56, 59
1, 169536, Note_off_c, 0, 64, 63
1, 169547, Note_off_c, 0, 73, 63
1, 169621, Note_on_c, 0, 56, 86
1, 169628, Note_on_c, 0, 54, 80
1, 169630, Note_on_c, 0, 60, 90
1, 169631, Note_on_c, 0, 72, 84
1, 169633, Note_on_c, 0, 44, 71
1, 169634, Control_c, 0, 64, 63
1, 169637, Note_on_c, 0, 63, 75
1, 169649, Note_on_c, 0, 71, 79
1, 169656, Control_c, 0, 64, 76
1, 169657, Note_off_c, 0, 60, 72
1, 169658, Note_off_c, 0, 54, 68
1, 169667, Note_off_c, 0, 71, 61
1, 169669, Note_off_c, 0, 44, 63
1, 169669, Note_off_c, 0, 56, 60
1, 169671, Control_c, 0, 64, 91
1, 169675, Note_off_c, 0, 63, 66
1, 169686, Control_c, 0, 64, 103
1, 169690, Note_off_c, 0, 72, 65
1, 169701, Control_c, 0, 64, 116
1, 169716, Control_c, 0, 64, 127
1, 169735, Poly_aftertouch_c, 0, 62, 127
1, 169768, Poly_aftertouch_c, 0, 62, 0
1, 169821, Note_on_c, 0, 66, 97
1, 169824, Note_on_c, 0, 84, 101
1, 169824, Note_on_c, 0, 56, 87
1, 169827, Note_on_c, 0, 72, 95
1, 169828, Note_on_c, 0, 75, 95
1, 169845, Note_off_c, 0, 72, 71
1, 169846, Note_off_c, 0, 75, 70
1, 169852, Note_off_c, 0, 66, 59
1, 169867, Note_off_c, 0, 84, 63
1, 169869, Note_off_c, 0, 56, 62
1, 169951, Note_on_c, 0, 56, 86
1, 169951, Note_on_c, 0, 66, 93
1, 169954, Note_on_c, 0, 84, 97
1, 169956, Note_on_c, 0, 72, 86
1, 169956, Note_on_c, 0, 75, 93
1, 169985, Note_off_c, 0, 72, 60
1, 169993, Note_off_c, 0, 66, 65
1, 169994, Note_off_c, 0, 75, 65
1, 169995, Note_off_c, 0, 56, 64
1, 169997, Note_off_c, 0, 84, 65
1, 170076, Note_on_c, 0, 84, 95
1, 170077, Note_on_c, 0, 72, 89
1, 170077, Note_on_c, 0, 75, 95
1, 170079, Note_on_c, 0, 66, 91
1, 170080, Note_on_c, 0, 56, 79
1, 170113, Note_off_c, 0, 72, 59
1, 170121, Note_off_c, 0, 75, 57
1, 170122, Note_off_c, 0, 66, 62
1, 170123, Note_off_c, 0, 84, 61
1, 170128, Note_off_c, 0, 56, 60
1, 170202, Note_on_c, 0, 56, 71
1, 170203, Note_on_c, 0, 66, 80
1, 170209, Note_on_c, 0, 84, 87
1, 170210, Note_on_c, 0, 72, 83
1, 170210, Note_on_c, 0, 75, 85
1, 170232, Note_off_c, 0, 72, 67
1, 170243, Note_off_c, 0, 84, 55
1, 170248, Note_off_c, 0, 66, 61
1, 170255, Note_off_c, 0, 75, 63
1, 170256, Note_off_c, 0, 56, 60
1, 170321, Note_on_c, 0, 56, 67
1, 170322, Note_on_c, 0, 66, 78
1, 170337, Note_on_c, 0, 72, 68
1, 170340, Note_on_c, 0, 76, 79
1, 170343, Note_on_c, 0, 84, 61
1, 170355, Note_off_c, 0, 66, 50
1, 170361, Note_off_c, 0, 84, 66
1, 170361, Note_off_c, 0, 72, 65
1, 170366, Note_off_c, 0, 76, 64
1, 170376, Note_off_c, 0, 56, 61
1, 170441, Note_on_c, 0, 64, 81
1, 170447, Note_on_c, 0, 56, 69
1, 170459, Note_on_c, 0, 73, 89
1, 170459, Note_on_c, 0, 85, 72
1, 170463, Note_on_c, 0, 76, 69
1, 170469, Note_off_c, 0, 64, 65
1, 170480, Note_off_c, 0, 56, 65
1, 170480, Note_off_c, 0, 73, 66
1, 170486, Note_off_c, 0, 76, 66
1, 170486, Note_off_c, 0, 85, 64
1, 170552, Control_c, 0, 64, 121
1, 170567, Note_on_c, 0, 63, 72
1, 170567, Control_c, 0, 64, 98
1, 170571, Note_on_c, 0, 56, 68
1, 170574, Note_on_c, 0, 78, 87
1, 170578, Note_on_c, 0, 87, 80
1, 170582, Control_c, 0, 64, 75
1, 170587, Note_on_c, 0, 75, 66
1, 170591, Note_on_c, 0, 85, 63
1, 170593, Note_off_c, 0, 63, 69
1, 170594, Note_off_c, 0, 87, 67
1, 170596, Note_off_c, 0, 56, 60
1, 170596, Note_off_c, 0, 78, 66
1, 170597, Control_c, 0, 64, 0
1, 170605, Note_off_c, 0, 75, 64
1, 170609, Note_off_c, 0, 85, 40
1, 170687, Control_c, 0, 64, 62
1, 170701, Control_c, 0, 64, 68
1, 170712, Note_on_c, 0, 61, 93
1, 170713, Note_on_c, 0, 49, 85
1, 170714, Note_on_c, 0, 88, 103
1, 170716, Control_c, 0, 64, 74
1, 170716, Control_c, 0, 67, 10
1, 170719, Note_on_c, 0, 76, 91
1, 170726, Note_on_c, 0, 80, 77
1, 170731, Control_c, 0, 64, 78
1, 170731, Control_c, 0, 67, 12
1, 170732, Note_off_c, 0, 61, 71
1, 170737, Note_off_c, 0, 49, 67
1, 170740, Note_off_c, 0, 76, 65
1, 170745, Note_off_c, 0, 80, 73
1, 170746, Control_c, 0, 64, 82
1, 170746, Control_c, 0, 67, 15
1, 170754, Note_off_c, 0, 88, 67
1, 170761, Control_c, 0, 64, 85
1, 170761, Control_c, 0, 67, 20
1, 170775, Control_c, 0, 64, 85
1, 170775, Control_c, 0, 67, 27
1, 170790, Control_c, 0, 64, 85
1, 170790, Control_c, 0, 67, 36
1, 170805, Control_c, 0, 64, 81
1, 170805, Control_c, 0, 67, 42
1, 170820, Control_c, 0, 64, 74
1, 170820, Control_c, 0, 67, 48
1, 170835, Control_c, 0, 64, 65
1, 170835, Control_c, 0, 67, 54
1, 170849, Control_c, 0, 64, 43
1, 170849, Control_c, 0, 67, 61
1, 170864, Note_on_c, 0, 85, 69
1, 170864, Control_c, 0, 64, 0
1, 170864, Control_c, 0, 67, 69
1, 170873, Note_on_c, 0, 64, 55
1, 170877, Note_on_c, 0, 80, 54
1, 170879, Control_c, 0, 67, 79
1, 170883, Note_on_c, 0, 61, 46
1, 170892, Note_off_c, 0, 85, 64
1, 170894, Control_c, 0, 67, 91
1, 170897, Note_off_c, 0, 80, 62
1, 170906, Note_off_c, 0, 61, 65
1, 170909, Note_off_c, 0, 64, 65
1, 170909, Control_c, 0, 67, 99
1, 170924, Control_c, 0, 67, 106
1, 170939, Control_c, 0, 67, 111
1, 170954, Control_c, 0, 67, 113
1, 170968, Control_c, 0, 67, 114
1, 170974, Note_on_c, 0, 85, 75
1, 170980, Note_on_c, 0, 61, 62
1, 170983, Note_on_c, 0, 80, 61
1, 170988, Note_on_c, 0, 64, 61
1, 171016, Note_off_c, 0, 80, 63
1, 171028, Note_off_c, 0, 64, 60
1, 171068, Note_off_c, 0, 85, 62
1, 171091, Note_off_c, 0, 61, 0
1, 171091, Note_on_c, 0, 61, 33
1, 171111, Note_on_c, 0, 80, 76
1, 171113, Note_on_c, 0, 68, 53
1, 171131, Control_c, 0, 67, 113
1, 171135, Note_off_c, 0, 68, 61
1, 171136, Note_on_c, 0, 76, 35
1, 171136, Note_off_c, 0, 80, 67
1, 171148, Note_off_c, 0, 61, 63
1, 171168, Control_c, 0, 67, 113
1, 171177, Note_off_c, 0, 76, 54
1, 171183, Control_c, 0, 67, 112
1, 171198, Control_c, 0, 67, 112
1, 171213, Control_c, 0, 67, 111
1, 171228, Control_c, 0, 67, 111
1, 171252, Note_on_c, 0, 54, 49
1, 171280, Note_off_c, 0, 54, 59
1, 171383, Note_on_c, 0, 66, 64
1, 171386, Note_on_c, 0, 81, 59
1, 171389, Note_on_c, 0, 61, 56
1, 171391, Note_on_c, 0, 85, 58
1, 171414, Note_off_c, 0, 66, 66
1, 171416, Note_off_c, 0, 81, 63
1, 171423, Note_off_c, 0, 61, 63
1, 171425, Note_off_c, 0, 85, 65
1, 171449, Control_c, 0, 67, 110
1, 171464, Control_c, 0, 67, 109
1, 171510, Note_on_c, 0, 61, 58
1, 171514, Note_on_c, 0, 85, 70
1, 171517, Note_on_c, 0, 66, 51
1, 171525, Note_on_c, 0, 81, 36
1, 171552, Note_off_c, 0, 81, 56
1, 171555, Note_off_c, 0, 66, 64
1, 171591, Note_off_c, 0, 85, 57
1, 171613, Control_c, 0, 67, 109
1, 171620, Note_on_c, 0, 81, 62
1, 171632, Note_on_c, 0, 69, 43
1, 171637, Note_on_c, 0, 78, 54
1, 171640, Note_off_c, 0, 81, 68
1, 171657, Note_off_c, 0, 78, 64
1, 171660, Note_off_c, 0, 61, 62
1, 171661, Note_off_c, 0, 69, 57
1, 171762, Control_c, 0, 67, 108
1, 171772, Note_on_c, 0, 56, 54
1, 171796, Note_off_c, 0, 56, 59
1, 171880, Control_c, 0, 67, 108
1, 171900, Note_on_c, 0, 80, 65
1, 171910, Note_on_c, 0, 64, 60
1, 171910, Note_on_c, 0, 76, 55
1, 171917, Control_c, 0, 67, 107
1, 171920, Note_on_c, 0, 61, 51
1, 171933, Note_off_c, 0, 76, 61
1, 171941, Note_off_c, 0, 80, 54
1, 171947, Note_off_c, 0, 64, 64
1, 171951, Note_off_c, 0, 61, 64
1, 172006, Control_c, 0, 67, 107
1, 172027, Note_on_c, 0, 80, 70
1, 172030, Note_on_c, 0, 76, 62
1, 172036, Note_on_c, 0, 61, 68
1, 172040, Note_on_c, 0, 64, 58
1, 172068, Note_off_c, 0, 76, 63
1, 172087, Note_off_c, 0, 64, 58
1, 172108, Note_off_c, 0, 80, 53
1, 172143, Note_on_c, 0, 68, 63
1, 172155, Note_on_c, 0, 76, 68
1, 172158, Note_on_c, 0, 73, 60
1, 172172, Note_off_c, 0, 68, 67
1, 172176, Note_off_c, 0, 61, 62
1, 172179, Note_off_c, 0, 73, 65
1, 172182, Note_off_c, 0, 76, 63
1, 172286, Note_on_c, 0, 54, 57
1, 172310, Note_off_c, 0, 54, 61
1, 172317, Control_c, 0, 67, 106
1, 172346, Control_c, 0, 67, 106
1, 172361, Control_c, 0, 67, 105
1, 172376, Control_c, 0, 67, 105
1, 172391, Control_c, 0, 67, 104
1, 172403, Note_on_c, 0, 75, 73
1, 172404, Note_on_c, 0, 80, 71
1, 172406, Note_on_c, 0, 63, 65
1, 172406, Control_c, 0, 67, 103
1, 172409, Note_on_c, 0, 60, 62
1, 172420, Control_c, 0, 67, 101
1, 172435, Control_c, 0, 67, 99
1, 172438, Note_off_c, 0, 75, 56
1, 172442, Note_off_c, 0, 80, 55
1, 172447, Note_off_c, 0, 63, 62
1, 172450, Control_c, 0, 67, 98
1, 172452, Note_off_c, 0, 60, 65
1, 172465, Control_c, 0, 67, 95
1, 172480, Control_c, 0, 67, 92
1, 172495, Control_c, 0, 67, 89
1, 172510, Control_c, 0, 67, 86
1, 172525, Note_on_c, 0, 80, 74
1, 172525, Control_c, 0, 67, 84
1, 172539, Note_on_c, 0, 75, 65
1, 172540, Control_c, 0, 67, 82
1, 172554, Control_c, 0, 67, 81
1, 172561, Note_on_c, 0, 63, 63
1, 172565, Note_off_c, 0, 75, 65
1, 172566, Note_on_c, 0, 60, 55
1, 172569, Control_c, 0, 67, 80
1, 172581, Note_on_c, 0, 68, 54
1, 172584, Control_c, 0, 67, 80
1, 172595, Note_off_c, 0, 80, 58
1, 172630, Note_off_c, 0, 68, 63
1, 172646, Note_on_c, 0, 75, 72
1, 172657, Note_off_c, 0, 60, 63
1, 172664, Note_on_c, 0, 72, 65
1, 172667, Note_off_c, 0, 63, 62
1, 172688, Note_off_c, 0, 75, 63
1, 172692, Note_off_c, 0, 72, 67
1, 172799, Control_c, 0, 67, 80
1, 172802, Note_on_c, 0, 52, 57
1, 172807, Note_on_c, 0, 50, 53
1, 172831, Note_off_c, 0, 52, 64
1, 172835, Note_off_c, 0, 50, 58
1, 172858, Control_c, 0, 67, 80
1, 172906, Note_on_c, 0, 80, 75
1, 172912, Note_on_c, 0, 73, 73
1, 172919, Note_on_c, 0, 61, 75
1, 172936, Note_on_c, 0, 56, 50
1, 172938, Note_off_c, 0, 73, 66
1, 172943, Note_off_c, 0, 61, 67
1, 172951, Note_off_c, 0, 80, 61
1, 172961, Note_off_c, 0, 56, 57
1, 172991, Control_c, 0, 67, 79
1, 173006, Control_c, 0, 67, 78
1, 173020, Note_on_c, 0, 80, 84
1, 173020, Control_c, 0, 67, 71
1, 173024, Note_on_c, 0, 56, 75
1, 173025, Note_on_c, 0, 61, 71
1, 173027, Note_on_c, 0, 73, 83
1, 173035, Control_c, 0, 67, 51
1, 173050, Control_c, 0, 67, 24
1, 173066, Control_c, 0, 67, 0
1, 173105, Note_off_c, 0, 73, 62
1, 173125, Note_off_c, 0, 61, 0
1, 173142, Note_on_c, 0, 61, 42
1, 173150, Note_on_c, 0, 64, 70
1, 173154, Note_on_c, 0, 76, 76
1, 173158, Note_on_c, 0, 68, 75
1, 173170, Note_off_c, 0, 80, 62
1, 173172, Note_off_c, 0, 61, 64
1, 173175, Note_off_c, 0, 64, 66
1, 173180, Note_off_c, 0, 76, 66
1, 173182, Note_off_c, 0, 68, 68
1, 173184, Note_off_c, 0, 56, 63
1, 173290, Note_on_c, 0, 42, 73
1, 173320, Note_off_c, 0, 42, 64
1, 173420, Note_on_c, 0, 78, 85
1, 173428, Note_on_c, 0, 69, 76
1, 173430, Note_on_c, 0, 57, 77
1, 173434, Note_on_c, 0, 54, 70
1, 173470, Note_off_c, 0, 57, 54
1, 173470, Note_off_c, 0, 69, 65
1, 173475, Note_off_c, 0, 54, 61
1, 173485, Note_off_c, 0, 78, 63
1, 173535, Note_on_c, 0, 78, 92
1, 173539, Note_on_c, 0, 57, 77
1, 173545, Note_on_c, 0, 69, 85
1, 173552, Note_on_c, 0, 54, 69
1, 173661, Note_on_c, 0, 62, 63
1, 173669, Note_on_c, 0, 66, 80
1, 173670, Note_off_c, 0, 57, 62
1, 173675, Note_off_c, 0, 69, 62
1, 173676, Note_on_c, 0, 74, 62
1, 173681, Note_off_c, 0, 62, 63
1, 173684, Note_off_c, 0, 78, 62
1, 173693, Note_off_c, 0, 54, 64
1, 173704, Note_off_c, 0, 74, 65
1, 173707, Note_off_c, 0, 66, 60
1, 173799, Note_on_c, 0, 44, 75
1, 173830, Note_off_c, 0, 44, 63
1, 173925, Note_on_c, 0, 68, 69
1, 173927, Note_on_c, 0, 76, 68
1, 173938, Note_on_c, 0, 56, 61
1, 173956, Note_off_c, 0, 68, 63
1, 173961, Note_on_c, 0, 52, 38
1, 173966, Note_off_c, 0, 56, 64
1, 173968, Note_off_c, 0, 76, 58
1, 173995, Note_off_c, 0, 52, 51
1, 174040, Note_on_c, 0, 56, 68
1, 174050, Note_on_c, 0, 68, 67
1, 174052, Note_on_c, 0, 76, 74
1, 174052, Control_c, 0, 67, 8
1, 174058, Note_on_c, 0, 52, 56
1, 174066, Control_c, 0, 67, 9
1, 174081, Control_c, 0, 67, 12
1, 174096, Control_c, 0, 67, 15
1, 174098, Note_off_c, 0, 56, 59
1, 174111, Control_c, 0, 67, 20
1, 174121, Note_off_c, 0, 68, 61
1, 174126, Control_c, 0, 67, 27
1, 174146, Note_off_c, 0, 76, 53
1, 174148, Control_c, 0, 67, 33
1, 174163, Control_c, 0, 67, 40
1, 174166, Note_on_c, 0, 56, 44
1, 174168, Note_on_c, 0, 61, 60
1, 174178, Control_c, 0, 67, 46
1, 174184, Note_on_c, 0, 64, 64
1, 174186, Note_on_c, 0, 73, 62
1, 174191, Note_off_c, 0, 61, 64
1, 174192, Control_c, 0, 67, 53
1, 174193, Note_off_c, 0, 56, 61
1, 174194, Note_off_c, 0, 52, 63
1, 174205, Note_off_c, 0, 73, 64
1, 174207, Control_c, 0, 67, 61
1, 174212, Note_off_c, 0, 64, 66
1, 174222, Control_c, 0, 67, 70
1, 174237, Control_c, 0, 67, 78
1, 174251, Control_c, 0, 67, 86
1, 174266, Control_c, 0, 67, 94
1, 174281, Control_c, 0, 67, 101
1, 174296, Control_c, 0, 67, 105
1, 174311, Control_c, 0, 67, 109
1, 174325, Control_c, 0, 67, 114
1, 174331, Note_on_c, 0, 44, 35
1, 174340, Control_c, 0, 67, 118
1, 174356, Control_c, 0, 67, 121
1, 174368, Note_off_c, 0, 44, 48
1, 174371, Control_c, 0, 67, 124
1, 174386, Control_c, 0, 67, 127
1, 174439, Note_on_c, 0, 75, 65
1, 174445, Note_on_c, 0, 66, 63
1, 174457, Note_on_c, 0, 51, 56
1, 174468, Note_on_c, 0, 54, 47
1, 174480, Note_off_c, 0, 66, 60
1, 174481, Note_off_c, 0, 75, 52
1, 174490, Note_off_c, 0, 51, 63
1, 174498, Note_off_c, 0, 54, 61
1, 174591, Note_on_c, 0, 75, 65
1, 174592, Note_on_c, 0, 54, 50
1, 174603, Note_on_c, 0, 66, 48
1, 174608, Note_on_c, 0, 51, 31
1, 174652, Control_c, 0, 64, 38
1, 174668, Control_c, 0, 64, 54
1, 174683, Control_c, 0, 64, 61
1, 174698, Control_c, 0, 64, 64
1, 174710, Note_on_c, 0, 60, 45
1, 174713, Control_c, 0, 64, 68
1, 174728, Control_c, 0, 64, 71
1, 174731, Note_on_c, 0, 72, 59
1, 174737, Note_off_c, 0, 60, 57
1, 174740, Note_on_c, 0, 63, 41
1, 174742, Control_c, 0, 64, 75
1, 174743, Note_off_c, 0, 75, 55
1, 174746, Note_off_c, 0, 66, 58
1, 174757, Note_off_c, 0, 54, 50
1, 174757, Control_c, 0, 64, 78
1, 174766, Note_off_c, 0, 51, 56
1, 174772, Control_c, 0, 64, 79
1, 174774, Note_off_c, 0, 72, 60
1, 174775, Note_off_c, 0, 63, 55
1, 174831, Control_c, 0, 64, 79
1, 174860, Control_c, 0, 64, 80
1, 174898, Control_c, 0, 64, 79
1, 174912, Control_c, 0, 64, 73
1, 174927, Control_c, 0, 64, 62
1, 174942, Control_c, 0, 64, 25
1, 174944, Note_on_c, 0, 37, 44
1, 174945, Note_on_c, 0, 73, 64
1, 174957, Control_c, 0, 64, 0
1, 174976, Note_on_c, 0, 64, 44
1, 174987, Control_c, 0, 64, 20
1, 175002, Control_c, 0, 64, 51
1, 175016, Control_c, 0, 64, 61
1, 175031, Control_c, 0, 64, 65
1, 175046, Control_c, 0, 64, 67
1, 175061, Control_c, 0, 64, 68
1, 175066, Note_on_c, 0, 49, 41
1, 175075, Control_c, 0, 64, 71
1, 175090, Control_c, 0, 64, 74
1, 175103, Note_off_c, 0, 49, 59
1, 175105, Note_off_c, 0, 37, 38
1, 175105, Control_c, 0, 64, 77
1, 175120, Control_c, 0, 64, 80
1, 175149, Control_c, 0, 64, 79
1, 175150, Note_on_c, 0, 44, 49
1, 175164, Control_c, 0, 64, 76
1, 175179, Control_c, 0, 64, 72
1, 175180, Note_off_c, 0, 44, 55
1, 175194, Control_c, 0, 64, 71
1, 175200, Note_on_c, 0, 49, 50
1, 175223, Control_c, 0, 64, 73
1, 175238, Control_c, 0, 64, 75
1, 175239, Note_off_c, 0, 49, 61
1, 175267, Control_c, 0, 64, 73
1, 175273, Note_on_c, 0, 37, 54
1, 175282, Control_c, 0, 64, 70
1, 175297, Control_c, 0, 64, 67
1, 175312, Control_c, 0, 64, 65
1, 175327, Control_c, 0, 64, 67
1, 175336, Note_off_c, 0, 37, 57
1, 175337, Note_on_c, 0, 49, 45
1, 175342, Control_c, 0, 64, 69
1, 175355, Note_off_c, 0, 64, 64
1, 175357, Control_c, 0, 64, 71
1, 175359, Note_off_c, 0, 73, 62
1, 175372, Control_c, 0, 64, 72
1, 175372, Note_off_c, 0, 49, 62
1, 175395, Note_on_c, 0, 44, 51
1, 175416, Control_c, 0, 64, 72
1, 175431, Control_c, 0, 64, 73
1, 175431, Note_off_c, 0, 44, 62
1, 175446, Control_c, 0, 64, 75
1, 175461, Note_on_c, 0, 49, 52
1, 175461, Control_c, 0, 64, 77
1, 175476, Control_c, 0, 64, 78
1, 175502, Note_off_c, 0, 49, 61
1, 175506, Control_c, 0, 64, 75
1, 175521, Control_c, 0, 64, 70
1, 175535, Control_c, 0, 64, 63
1, 175541, Note_on_c, 0, 37, 51
1, 175550, Control_c, 0, 64, 53
1, 175565, Control_c, 0, 64, 48
1, 175580, Control_c, 0, 64, 53
1, 175580, Control_c, 0, 67, 126
1, 175582, Note_off_c, 0, 37, 58
1, 175595, Control_c, 0, 64, 60
1, 175595, Control_c, 0, 67, 125
1, 175601, Note_on_c, 0, 49, 43
1, 175610, Control_c, 0, 64, 64
1, 175625, Control_c, 0, 64, 67
1, 175646, Control_c, 0, 64, 69
1, 175647, Note_off_c, 0, 49, 54
1, 175661, Control_c, 0, 64, 71
1, 175676, Control_c, 0, 64, 73
1, 175676, Control_c, 0, 67, 125
1, 175681, Note_on_c, 0, 44, 47
1, 175690, Control_c, 0, 64, 75
1, 175705, Control_c, 0, 64, 78
1, 175714, Note_off_c, 0, 44, 58
1, 175720, Control_c, 0, 64, 80
1, 175735, Control_c, 0, 64, 82
1, 175741, Note_on_c, 0, 49, 56
1, 175750, Control_c, 0, 64, 82
1, 175765, Control_c, 0, 64, 82
1, 175780, Control_c, 0, 64, 78
1, 175783, Note_off_c, 0, 49, 60
1, 175795, Control_c, 0, 64, 69
1, 175800, Note_on_c, 0, 64, 60
1, 175810, Control_c, 0, 64, 59
1, 175825, Note_on_c, 0, 37, 50
1, 175825, Control_c, 0, 64, 41
1, 175839, Control_c, 0, 64, 39
1, 175839, Control_c, 0, 67, 124
1, 175854, Control_c, 0, 64, 51
1, 175869, Control_c, 0, 64, 60
1, 175872, Note_off_c, 0, 37, 58
1, 175884, Control_c, 0, 64, 64
1, 175898, Control_c, 0, 64, 67
1, 175904, Note_on_c, 0, 49, 27
1, 175913, Control_c, 0, 64, 70
1, 175928, Control_c, 0, 64, 73
1, 175942, Note_off_c, 0, 49, 47
1, 175943, Control_c, 0, 64, 76
1, 175958, Control_c, 0, 64, 79
1, 175972, Control_c, 0, 64, 84
1, 175987, Control_c, 0, 64, 88
1, 176002, Control_c, 0, 64, 91
1, 176002, Control_c, 0, 67, 125
1, 176003, Poly_aftertouch_c, 0, 44, 127
1, 176014, Note_off_c, 0, 64, 62
1, 176027, Note_on_c, 0, 61, 53
1, 176031, Control_c, 0, 64, 88
1, 176031, Control_c, 0, 67, 125
1, 176035, Note_on_c, 0, 49, 39
1, 176044, Poly_aftertouch_c, 0, 44, 0
1, 176046, Control_c, 0, 64, 78
1, 176061, Control_c, 0, 64, 66
1, 176063, Note_off_c, 0, 61, 64
1, 176065, Note_off_c, 0, 49, 54
1, 176076, Control_c, 0, 64, 37
1, 176081, Note_on_c, 0, 60, 58
1, 176090, Control_c, 0, 64, 0
1, 176094, Note_on_c, 0, 37, 53
1, 176105, Control_c, 0, 64, 10
1, 176105, Control_c, 0, 67, 125
1, 176120, Control_c, 0, 64, 49
1, 176120, Control_c, 0, 67, 124
1, 176129, Note_off_c, 0, 37, 59
1, 176135, Control_c, 0, 64, 62
1, 176135, Control_c, 0, 67, 124
1, 176150, Control_c, 0, 64, 67
1, 176150, Control_c, 0, 67, 123
1, 176164, Control_c, 0, 64, 73
1, 176164, Control_c, 0, 67, 119
1, 176176, Note_on_c, 0, 51, 44
1, 176179, Control_c, 0, 64, 76
1, 176179, Control_c, 0, 67, 114
1, 176194, Control_c, 0, 64, 78
1, 176194, Control_c, 0, 67, 109
1, 176209, Control_c, 0, 64, 79
1, 176209, Control_c, 0, 67, 103
1, 176212, Note_off_c, 0, 51, 60
1, 176218, Note_off_c, 0, 60, 61
1, 176224, Control_c, 0, 64, 81
1, 176224, Control_c, 0, 67, 98
1, 176239, Control_c, 0, 64, 82
1, 176239, Control_c, 0, 67, 93
1, 176253, Note_on_c, 0, 44, 46
1, 176254, Control_c, 0, 64, 85
1, 176254, Control_c, 0, 67, 90
1, 176269, Control_c, 0, 64, 89
1, 176269, Control_c, 0, 67, 88
1, 176284, Control_c, 0, 64, 92
1, 176284, Control_c, 0, 67, 88
1, 176291, Note_off_c, 0, 44, 48
1, 176299, Control_c, 0, 64, 95
1, 176313, Control_c, 0, 64, 96
1, 176318, Note_on_c, 0, 51, 46
1, 176343, Control_c, 0, 67, 88
1, 176358, Control_c, 0, 64, 93
1, 176363, Note_off_c, 0, 51, 56
1, 176373, Control_c, 0, 64, 86
1, 176373, Control_c, 0, 67, 89
1, 176395, Control_c, 0, 64, 77
1, 176410, Control_c, 0, 64, 70
1, 176410, Control_c, 0, 67, 89
1, 176412, Note_on_c, 0, 68, 55
1, 176415, Note_on_c, 0, 37, 49
1, 176423, Note_on_c, 0, 54, 46
1, 176425, Control_c, 0, 64, 67
1, 176425, Control_c, 0, 67, 89
1, 176433, Note_on_c, 0, 60, 35
1, 176439, Control_c, 0, 64, 67
1, 176439, Control_c, 0, 67, 88
1, 176454, Control_c, 0, 64, 71
1, 176461, Note_off_c, 0, 37, 56
1, 176469, Control_c, 0, 64, 74
1, 176469, Control_c, 0, 67, 88
1, 176484, Control_c, 0, 64, 78
1, 176499, Control_c, 0, 64, 81
1, 176504, Note_on_c, 0, 51, 30
1, 176513, Control_c, 0, 64, 85
1, 176513, Control_c, 0, 67, 87
1, 176528, Control_c, 0, 64, 89
1, 176543, Control_c, 0, 64, 93
1, 176552, Note_off_c, 0, 51, 46
1, 176558, Control_c, 0, 64, 98
1, 176558, Control_c, 0, 67, 87
1, 176564, Note_on_c, 0, 44, 50
1, 176573, Control_c, 0, 64, 102
1, 176579, Note_off_c, 0, 60, 48
1, 176584, Note_off_c, 0, 54, 45
1, 176585, Note_off_c, 0, 68, 52
1, 176588, Control_c, 0, 64, 106
1, 176602, Control_c, 0, 64, 107
1, 176602, Control_c, 0, 67, 86
1, 176606, Note_off_c, 0, 44, 58
1, 176617, Control_c, 0, 64, 107
1, 176617, Control_c, 0, 67, 85
1, 176632, Control_c, 0, 64, 101
1, 176632, Note_on_c, 0, 51, 60
1, 176646, Control_c, 0, 64, 87
1, 176646, Control_c, 0, 67, 85
1, 176661, Control_c, 0, 64, 75
1, 176661, Control_c, 0, 67, 84
1, 176676, Control_c, 0, 64, 65
1, 176676, Control_c, 0, 67, 80
1, 176682, Note_off_c, 0, 51, 58
1, 176691, Control_c, 0, 64, 60
1, 176691, Control_c, 0, 67, 76
1, 176698, Note_on_c, 0, 68, 75
1, 176704, Note_on_c, 0, 60, 45
1, 176706, Control_c, 0, 64, 62
1, 176706, Control_c, 0, 67, 73
1, 176709, Note_on_c, 0, 37, 61
1, 176713, Note_on_c, 0, 54, 51
1, 176720, Control_c, 0, 64, 67
1, 176720, Control_c, 0, 67, 70
1, 176735, Control_c, 0, 64, 74
1, 176735, Control_c, 0, 67, 69
1, 176750, Control_c, 0, 64, 81
1, 176750, Control_c, 0, 67, 66
1, 176765, Control_c, 0, 64, 87
1, 176765, Control_c, 0, 67, 64
1, 176770, Note_off_c, 0, 37, 53
1, 176780, Control_c, 0, 64, 91
1, 176780, Control_c, 0, 67, 60
1, 176783, Note_on_c, 0, 51, 59
1, 176794, Control_c, 0, 64, 94
1, 176794, Control_c, 0, 67, 57
1, 176809, Control_c, 0, 64, 97
1, 176809, Control_c, 0, 67, 55
1, 176824, Control_c, 0, 64, 103
1, 176824, Control_c, 0, 67, 52
1, 176828, Note_off_c, 0, 60, 47
1, 176829, Note_off_c, 0, 51, 60
1, 176838, Control_c, 0, 64, 111
1, 176838, Control_c, 0, 67, 50
1, 176843, Note_on_c, 0, 44, 56
1, 176847, Note_off_c, 0, 54, 51
1, 176853, Control_c, 0, 64, 127
1, 176860, Note_off_c, 0, 68, 54
1, 176883, Control_c, 0, 67, 51
1, 176886, Note_off_c, 0, 44, 59
1, 176898, Control_c, 0, 67, 52
1, 176913, Control_c, 0, 67, 53
1, 176926, Note_on_c, 0, 51, 51
1, 176928, Control_c, 0, 64, 99
1, 176942, Control_c, 0, 64, 82
1, 176942, Control_c, 0, 67, 53
1, 176957, Control_c, 0, 64, 68
1, 176957, Control_c, 0, 67, 54
1, 176963, Note_on_c, 0, 54, 66
1, 176966, Note_on_c, 0, 60, 55
1, 176966, Note_off_c, 0, 51, 60
1, 176971, Note_on_c, 0, 68, 64
1, 176972, Control_c, 0, 64, 58
1, 176987, Control_c, 0, 64, 55
1, 176990, Note_on_c, 0, 37, 65
1, 177002, Control_c, 0, 64, 62
1, 177006, Note_off_c, 0, 68, 62
1, 177017, Control_c, 0, 64, 70
1, 177028, Note_off_c, 0, 54, 61
1, 177031, Control_c, 0, 64, 78
1, 177046, Note_off_c, 0, 60, 54
1, 177046, Control_c, 0, 64, 85
1, 177053, Note_off_c, 0, 37, 53
1, 177062, Control_c, 0, 64, 89
1, 177069, Note_on_c, 0, 51, 54
1, 177077, Control_c, 0, 64, 91
1, 177092, Control_c, 0, 64, 93
1, 177105, Note_off_c, 0, 51, 60
1, 177106, Control_c, 0, 64, 95
1, 177106, Control_c, 0, 67, 53
1, 177115, Note_on_c, 0, 44, 54
1, 177121, Control_c, 0, 64, 99
1, 177143, Control_c, 0, 64, 106
1, 177158, Control_c, 0, 64, 117
1, 177158, Control_c, 0, 67, 54
1, 177161, Note_off_c, 0, 44, 59
1, 177173, Control_c, 0, 64, 127
1, 177182, Note_on_c, 0, 52, 57
1, 177188, Control_c, 0, 67, 55
1, 177198, Note_on_c, 0, 51, 60
1, 177203, Control_c, 0, 67, 55
1, 177209, Note_off_c, 0, 52, 60
1, 177217, Control_c, 0, 64, 107
1, 177232, Control_c, 0, 64, 85
1, 177240, Note_off_c, 0, 51, 60
1, 177243, Note_on_c, 0, 61, 74
1, 177247, Control_c, 0, 64, 65
1, 177247, Control_c, 0, 67, 56
1, 177261, Control_c, 0, 64, 0
1, 177294, Note_on_c, 0, 37, 63
1, 177336, Control_c, 0, 64, 17
1, 177351, Control_c, 0, 64, 43
1, 177360, Note_on_c, 0, 68, 70
1, 177364, Note_off_c, 0, 37, 56
1, 177366, Control_c, 0, 64, 55
1, 177381, Control_c, 0, 64, 63
1, 177387, Note_on_c, 0, 49, 51
1, 177396, Control_c, 0, 64, 67
1, 177410, Control_c, 0, 64, 73
1, 177423, Note_off_c, 0, 49, 64
1, 177425, Control_c, 0, 64, 78
1, 177440, Control_c, 0, 64, 80
1, 177441, Note_on_c, 0, 44, 50
1, 177455, Control_c, 0, 64, 83
1, 177470, Control_c, 0, 64, 86
1, 177484, Note_off_c, 0, 44, 59
1, 177485, Control_c, 0, 64, 93
1, 177485, Control_c, 0, 67, 56
1, 177500, Control_c, 0, 64, 104
1, 177500, Control_c, 0, 67, 57
1, 177512, Note_on_c, 0, 49, 56
1, 177515, Control_c, 0, 64, 118
1, 177515, Control_c, 0, 67, 58
1, 177530, Control_c, 0, 64, 127
1, 177530, Control_c, 0, 67, 59
1, 177544, Control_c, 0, 67, 61
1, 177553, Note_off_c, 0, 49, 61
1, 177559, Control_c, 0, 64, 117
1, 177559, Control_c, 0, 67, 63
1, 177574, Control_c, 0, 64, 97
1, 177574, Control_c, 0, 67, 64
1, 177589, Control_c, 0, 64, 80
1, 177589, Control_c, 0, 67, 65
1, 177589, Note_on_c, 0, 37, 58
1, 177604, Control_c, 0, 64, 70
1, 177618, Control_c, 0, 64, 65
1, 177631, Note_off_c, 0, 37, 60
1, 177633, Control_c, 0, 64, 66
1, 177648, Control_c, 0, 64, 71
1, 177649, Note_on_c, 0, 49, 50
1, 177662, Control_c, 0, 64, 77
1, 177677, Control_c, 0, 64, 83
1, 177688, Note_off_c, 0, 49, 63
1, 177692, Control_c, 0, 64, 87
1, 177696, Note_on_c, 0, 44, 56
1, 177707, Control_c, 0, 64, 89
1, 177722, Control_c, 0, 64, 91
1, 177735, Note_off_c, 0, 44, 61
1, 177737, Control_c, 0, 64, 96
1, 177739, Note_off_c, 0, 61, 63
1, 177751, Control_c, 0, 64, 105
1, 177751, Control_c, 0, 67, 65
1, 177766, Control_c, 0, 64, 120
1, 177766, Control_c, 0, 67, 66
1, 177770, Note_off_c, 0, 68, 65
1, 177771, Note_on_c, 0, 49, 60
1, 177780, Control_c, 0, 64, 127
1, 177780, Control_c, 0, 67, 68
1, 177795, Control_c, 0, 64, 114
1, 177795, Control_c, 0, 67, 70
1, 177810, Note_off_c, 0, 49, 56
1, 177810, Control_c, 0, 64, 97
1, 177825, Control_c, 0, 64, 81
1, 177840, Control_c, 0, 64, 69
1, 177850, Note_on_c, 0, 37, 53
1, 177855, Control_c, 0, 64, 59
1, 177871, Control_c, 0, 64, 55
1, 177893, Control_c, 0, 64, 62
1, 177904, Note_off_c, 0, 37, 59
1, 177908, Control_c, 0, 64, 68
1, 177923, Control_c, 0, 64, 76
1, 177934, Note_on_c, 0, 49, 49
1, 177938, Control_c, 0, 64, 83
1, 177953, Control_c, 0, 64, 88
1, 177967, Note_off_c, 0, 49, 59
1, 177967, Control_c, 0, 64, 90
1, 177976, Note_on_c, 0, 44, 49
1, 177982, Control_c, 0, 64, 92
1, 177982, Control_c, 0, 67, 70
1, 177997, Control_c, 0, 64, 94
1, 178012, Control_c, 0, 64, 97
1, 178016, Note_off_c, 0, 44, 58
1, 178027, Control_c, 0, 64, 101
1, 178027, Control_c, 0, 67, 71
1, 178041, Control_c, 0, 64, 104
1, 178051, Note_on_c, 0, 49, 54
1, 178056, Control_c, 0, 64, 106
1, 178056, Control_c, 0, 67, 71
1, 178071, Control_c, 0, 67, 72
1, 178085, Control_c, 0, 64, 104
1, 178085, Control_c, 0, 67, 73
1, 178092, Note_off_c, 0, 49, 57
1, 178100, Control_c, 0, 64, 93
1, 178100, Control_c, 0, 67, 74
1, 178115, Control_c, 0, 64, 79
1, 178130, Control_c, 0, 64, 65
1, 178130, Control_c, 0, 67, 73
1, 178136, Note_on_c, 0, 37, 48
1, 178145, Control_c, 0, 64, 51
1, 178147, Note_on_c, 0, 76, 61
1, 178160, Control_c, 0, 64, 47
1, 178174, Control_c, 0, 64, 57
1, 178183, Note_off_c, 0, 37, 58
1, 178189, Control_c, 0, 64, 64
1, 178189, Control_c, 0, 67, 73
1, 178204, Note_on_c, 0, 49, 55
1, 178204, Control_c, 0, 64, 71
1, 178219, Control_c, 0, 64, 78
1, 178219, Control_c, 0, 67, 72
1, 178234, Control_c, 0, 64, 84
1, 178234, Control_c, 0, 67, 72
1, 178246, Note_off_c, 0, 49, 60
1, 178248, Control_c, 0, 64, 89
1, 178263, Control_c, 0, 64, 93
1, 178263, Control_c, 0, 67, 71
1, 178278, Control_c, 0, 64, 97
1, 178285, Note_on_c, 0, 44, 34
1, 178293, Control_c, 0, 64, 104
1, 178308, Control_c, 0, 64, 120
1, 178308, Control_c, 0, 67, 72
1, 178323, Control_c, 0, 64, 127
1, 178323, Control_c, 0, 67, 72
1, 178330, Note_off_c, 0, 44, 47
1, 178337, Note_on_c, 0, 49, 56
1, 178338, Control_c, 0, 67, 73
1, 178359, Note_on_c, 0, 73, 65
1, 178367, Note_off_c, 0, 76, 61
1, 178367, Control_c, 0, 64, 99
1, 178367, Control_c, 0, 67, 72
1, 178379, Note_off_c, 0, 49, 58
1, 178382, Control_c, 0, 64, 77
1, 178382, Control_c, 0, 67, 72
1, 178397, Control_c, 0, 64, 57
1, 178397, Control_c, 0, 67, 71
1, 178399, Note_off_c, 0, 73, 62
1, 178411, Control_c, 0, 64, 0
1, 178419, Note_on_c, 0, 37, 56
1, 178421, Note_on_c, 0, 72, 59
1, 178441, Control_c, 0, 64, 41
1, 178456, Control_c, 0, 64, 62
1, 178460, Note_off_c, 0, 37, 63
1, 178471, Control_c, 0, 64, 70
1, 178471, Control_c, 0, 67, 71
1, 178486, Control_c, 0, 64, 78
1, 178486, Control_c, 0, 67, 70
1, 178500, Control_c, 0, 64, 86
1, 178500, Control_c, 0, 67, 70
1, 178504, Note_on_c, 0, 51, 44
1, 178515, Control_c, 0, 64, 91
1, 178530, Control_c, 0, 64, 94
1, 178530, Control_c, 0, 67, 69
1, 178542, Note_off_c, 0, 51, 50
1, 178545, Control_c, 0, 64, 97
1, 178559, Control_c, 0, 64, 101
1, 178574, Control_c, 0, 64, 108
1, 178582, Note_on_c, 0, 44, 48
1, 178583, Note_off_c, 0, 72, 60
1, 178589, Control_c, 0, 64, 127
1, 178589, Control_c, 0, 67, 70
1, 178620, Note_off_c, 0, 44, 53
1, 178638, Note_on_c, 0, 51, 55
1, 178671, Control_c, 0, 67, 69
1, 178686, Control_c, 0, 64, 107
1, 178697, Note_off_c, 0, 51, 54
1, 178701, Control_c, 0, 64, 90
1, 178701, Control_c, 0, 67, 69
1, 178716, Control_c, 0, 64, 77
1, 178716, Control_c, 0, 67, 68
1, 178731, Control_c, 0, 64, 66
1, 178736, Note_on_c, 0, 80, 57
1, 178737, Note_on_c, 0, 37, 52
1, 178738, Note_on_c, 0, 72, 42
1, 178746, Control_c, 0, 64, 62
1, 178746, Control_c, 0, 67, 68
1, 178758, Note_on_c, 0, 66, 46
1, 178761, Control_c, 0, 64, 63
1, 178761, Control_c, 0, 67, 67
1, 178776, Control_c, 0, 64, 68
1, 178776, Control_c, 0, 67, 67
1, 178776, Note_off_c, 0, 37, 61
1, 178790, Control_c, 0, 64, 75
1, 178790, Control_c, 0, 67, 66
1, 178805, Control_c, 0, 64, 84
1, 178805, Control_c, 0, 67, 66
1, 178820, Control_c, 0, 64, 93
1, 178820, Control_c, 0, 67, 65
1, 178828, Note_on_c, 0, 51, 41
1, 178834, Control_c, 0, 64, 101
1, 178834, Control_c, 0, 67, 65
1, 178849, Control_c, 0, 64, 104
1, 178849, Control_c, 0, 67, 64
1, 178862, Note_off_c, 0, 51, 53
1, 178864, Control_c, 0, 64, 108
1, 178864, Control_c, 0, 67, 64
1, 178868, Note_off_c, 0, 72, 55
1, 178879, Control_c, 0, 64, 115
1, 178879, Control_c, 0, 67, 63
1, 178889, Note_on_c, 0, 44, 54
1, 178894, Control_c, 0, 64, 127
1, 178895, Note_off_c, 0, 80, 55
1, 178901, Note_off_c, 0, 66, 49
1, 178908, Control_c, 0, 67, 64
1, 178928, Note_off_c, 0, 44, 60
1, 178952, Note_on_c, 0, 51, 58
1, 178968, Control_c, 0, 64, 98
1, 178982, Control_c, 0, 64, 82
1, 178997, Control_c, 0, 64, 69
1, 178997, Control_c, 0, 67, 63
1, 179002, Note_off_c, 0, 51, 61
1, 179012, Control_c, 0, 64, 61
1, 179012, Control_c, 0, 67, 63
1, 179020, Note_on_c, 0, 80, 65
1, 179027, Control_c, 0, 64, 62
1, 179027, Control_c, 0, 67, 61
1, 179032, Note_on_c, 0, 72, 49
1, 179034, Note_on_c, 0, 66, 52
1, 179041, Control_c, 0, 64, 66
1, 179041, Control_c, 0, 67, 58
1, 179044, Note_on_c, 0, 37, 57
1, 179056, Control_c, 0, 64, 73
1, 179056, Control_c, 0, 67, 56
1, 179071, Control_c, 0, 64, 83
1, 179071, Control_c, 0, 67, 54
1, 179086, Control_c, 0, 64, 94
1, 179086, Control_c, 0, 67, 54
1, 179092, Note_off_c, 0, 37, 58
1, 179101, Control_c, 0, 64, 104
1, 179101, Control_c, 0, 67, 52
1, 179110, Note_on_c, 0, 51, 56
1, 179116, Control_c, 0, 64, 115
1, 179116, Control_c, 0, 67, 49
1, 179130, Control_c, 0, 64, 127
1, 179130, Control_c, 0, 67, 46
1, 179145, Control_c, 0, 67, 43
1, 179149, Note_off_c, 0, 51, 62
1, 179153, Note_off_c, 0, 72, 57
1, 179160, Control_c, 0, 67, 41
1, 179169, Note_on_c, 0, 44, 57
1, 179175, Control_c, 0, 67, 41
1, 179186, Note_off_c, 0, 80, 54
1, 179190, Control_c, 0, 67, 40
1, 179203, Note_off_c, 0, 66, 37
1, 179212, Note_off_c, 0, 44, 56
1, 179235, Note_on_c, 0, 51, 67
1, 179249, Control_c, 0, 67, 41
1, 179264, Control_c, 0, 64, 118
1, 179264, Control_c, 0, 67, 42
1, 179279, Control_c, 0, 64, 95
1, 179279, Control_c, 0, 67, 43
1, 179290, Note_off_c, 0, 51, 56
1, 179294, Control_c, 0, 64, 78
1, 179297, Note_on_c, 0, 80, 71
1, 179302, Note_on_c, 0, 66, 64
1, 179305, Note_on_c, 0, 72, 61
1, 179308, Control_c, 0, 64, 68
1, 179323, Note_on_c, 0, 37, 58
1, 179323, Control_c, 0, 64, 64
1, 179338, Control_c, 0, 64, 67
1, 179338, Control_c, 0, 67, 42
1, 179345, Note_off_c, 0, 66, 57
1, 179353, Control_c, 0, 64, 73
1, 179355, Note_off_c, 0, 80, 60
1, 179368, Control_c, 0, 64, 83
1, 179368, Control_c, 0, 67, 42
1, 179371, Note_off_c, 0, 37, 53
1, 179390, Control_c, 0, 64, 94
1, 179390, Control_c, 0, 67, 41
1, 179405, Control_c, 0, 64, 105
1, 179405, Control_c, 0, 67, 41
1, 179406, Note_off_c, 0, 72, 51
1, 179414, Note_on_c, 0, 51, 44
1, 179420, Control_c, 0, 64, 112
1, 179420, Control_c, 0, 67, 40
1, 179434, Control_c, 0, 64, 120
1, 179434, Control_c, 0, 67, 40
1, 179449, Note_off_c, 0, 51, 59
1, 179449, Control_c, 0, 64, 127
1, 179464, Control_c, 0, 67, 39
1, 179473, Note_on_c, 0, 44, 41
1, 179509, Control_c, 0, 67, 40
1, 179515, Note_off_c, 0, 44, 46
1, 179516, Note_on_c, 0, 64, 59
1, 179524, Control_c, 0, 67, 41
1, 179539, Control_c, 0, 64, 101
1, 179539, Control_c, 0, 67, 42
1, 179542, Note_off_c, 0, 64, 65
1, 179550, Note_on_c, 0, 73, 71
1, 179554, Control_c, 0, 64, 76
1, 179554, Control_c, 0, 67, 42
1, 179569, Control_c, 0, 64, 52
1, 179569, Control_c, 0, 67, 43
1, 179584, Control_c, 0, 64, 0
1, 179600, Note_on_c, 0, 37, 64
1, 179613, Control_c, 0, 67, 43
1, 179628, Control_c, 0, 64, 49
1, 179643, Control_c, 0, 64, 63
1, 179643, Note_on_c, 0, 80, 72
1, 179646, Note_off_c, 0, 37, 58
1, 179657, Control_c, 0, 64, 68
1, 179672, Control_c, 0, 64, 73
1, 179687, Control_c, 0, 64, 77
1, 179690, Note_on_c, 0, 49, 50
1, 179702, Control_c, 0, 64, 81
1, 179717, Control_c, 0, 64, 84
1, 179724, Note_off_c, 0, 49, 54
1, 179731, Control_c, 0, 64, 88
1, 179742, Note_on_c, 0, 44, 54
1, 179746, Control_c, 0, 64, 94
1, 179761, Control_c, 0, 64, 100
1, 179776, Control_c, 0, 64, 112
1, 179776, Control_c, 0, 67, 44
1, 179786, Note_off_c, 0, 44, 59
1, 179791, Control_c, 0, 64, 127
1, 179791, Control_c, 0, 67, 45
1, 179805, Control_c, 0, 67, 46
1, 179806, Note_on_c, 0, 49, 61
1, 179835, Control_c, 0, 64, 103
1, 179835, Control_c, 0, 67, 46
1, 179846, Note_off_c, 0, 49, 57
1, 179850, Control_c, 0, 64, 86
1, 179850, Control_c, 0, 67, 47
1, 179864, Control_c, 0, 64, 74
1, 179864, Control_c, 0, 67, 47
1, 179879, Control_c, 0, 64, 67
1, 179882, Note_on_c, 0, 37, 55
1, 179894, Control_c, 0, 64, 68
1, 179909, Control_c, 0, 64, 73
1, 179924, Control_c, 0, 64, 81
1, 179925, Note_off_c, 0, 37, 57
1, 179938, Control_c, 0, 64, 88
1, 179944, Note_off_c, 0, 73, 63
1, 179947, Note_on_c, 0, 49, 55
1, 179953, Control_c, 0, 64, 93
1, 179962, Note_off_c, 0, 80, 53
1, 179968, Control_c, 0, 64, 94
1, 179985, Note_off_c, 0, 49, 62
1, 180013, Control_c, 0, 64, 96
1, 180013, Control_c, 0, 67, 47
1, 180018, Note_on_c, 0, 44, 35
1, 180028, Control_c, 0, 64, 98
1, 180043, Control_c, 0, 64, 101
1, 180052, Note_off_c, 0, 44, 51
1, 180057, Control_c, 0, 64, 104
1, 180070, Note_on_c, 0, 49, 59
1, 180102, Control_c, 0, 64, 102
1, 180117, Control_c, 0, 64, 88
1, 180118, Note_on_c, 0, 66, 58
1, 180118, Note_off_c, 0, 49, 58
1, 180138, Control_c, 0, 64, 69
1, 180153, Control_c, 0, 64, 9
1, 180157, Note_on_c, 0, 72, 57
1, 180168, Control_c, 0, 64, 0
1, 180172, Note_on_c, 0, 37, 59
1, 180198, Control_c, 0, 67, 47
1, 180209, Note_on_c, 0, 80, 62
1, 180210, Note_off_c, 0, 37, 58
1, 180213, Control_c, 0, 64, 46
1, 180227, Control_c, 0, 64, 59
1, 180242, Control_c, 0, 64, 63
1, 180258, Control_c, 0, 64, 65
1, 180263, Note_on_c, 0, 51, 44
1, 180273, Control_c, 0, 64, 67
1, 180273, Control_c, 0, 67, 46
1, 180287, Control_c, 0, 64, 70
1, 180287, Control_c, 0, 67, 46
1, 180296, Note_off_c, 0, 51, 55
1, 180302, Control_c, 0, 64, 74
1, 180317, Control_c, 0, 64, 78
1, 180329, Note_on_c, 0, 44, 53
1, 180332, Control_c, 0, 64, 81
1, 180347, Control_c, 0, 64, 83
1, 180357, Note_off_c, 0, 44, 55
1, 180361, Control_c, 0, 64, 84
1, 180368, Note_off_c, 0, 80, 63
1, 180376, Control_c, 0, 64, 85
1, 180389, Note_on_c, 0, 51, 51
1, 180391, Control_c, 0, 64, 86
1, 180406, Control_c, 0, 64, 87
1, 180421, Control_c, 0, 64, 88
1, 180427, Note_off_c, 0, 51, 62
1, 180432, Note_off_c, 0, 72, 52
1, 180435, Control_c, 0, 64, 90
1, 180443, Note_off_c, 0, 66, 57
1, 180450, Control_c, 0, 64, 91
1, 180450, Control_c, 0, 67, 46
1, 180465, Control_c, 0, 64, 91
1, 180465, Control_c, 0, 67, 47
1, 180471, Note_on_c, 0, 37, 57
1, 180479, Control_c, 0, 64, 92
1, 180479, Control_c, 0, 67, 47
1, 180494, Control_c, 0, 64, 93
1, 180494, Control_c, 0, 67, 48
1, 180508, Note_off_c, 0, 37, 52
1, 180509, Control_c, 0, 64, 95
1, 180524, Control_c, 0, 64, 96
1, 180528, Note_on_c, 0, 51, 52
1, 180539, Control_c, 0, 64, 99
1, 180553, Control_c, 0, 64, 101
1, 180561, Note_off_c, 0, 51, 61
1, 180568, Control_c, 0, 64, 103
1, 180583, Control_c, 0, 64, 106
1, 180583, Control_c, 0, 67, 47
1, 180598, Control_c, 0, 64, 113
1, 180598, Control_c, 0, 67, 47
1, 180612, Control_c, 0, 64, 127
1, 180612, Control_c, 0, 67, 46
1, 180613, Note_on_c, 0, 44, 30
1, 180642, Control_c, 0, 67, 47
1, 180649, Note_on_c, 0, 64, 66
1, 180653, Note_on_c, 0, 51, 59
1, 180657, Control_c, 0, 67, 48
1, 180661, Note_off_c, 0, 44, 48
1, 180670, Note_off_c, 0, 64, 66
1, 180672, Control_c, 0, 64, 95
1, 180672, Control_c, 0, 67, 48
1, 180682, Note_on_c, 0, 73, 63
1, 180686, Control_c, 0, 64, 74
1, 180694, Note_off_c, 0, 51, 61
1, 180701, Control_c, 0, 64, 53
1, 180716, Control_c, 0, 64, 0
1, 180716, Control_c, 0, 67, 49
1, 180731, Control_c, 0, 67, 49
1, 180746, Note_on_c, 0, 37, 60
1, 180746, Control_c, 0, 64, 21
1, 180746, Control_c, 0, 67, 50
1, 180761, Control_c, 0, 64, 57
1, 180761, Control_c, 0, 67, 53
1, 180766, Note_on_c, 0, 80, 64
1, 180776, Control_c, 0, 64, 67
1, 180776, Control_c, 0, 67, 54
1, 180791, Control_c, 0, 64, 74
1, 180799, Note_off_c, 0, 37, 57
1, 180805, Control_c, 0, 64, 81
1, 180820, Control_c, 0, 64, 83
1, 180820, Control_c, 0, 67, 54
1, 180830, Note_on_c, 0, 49, 49
1, 180850, Control_c, 0, 64, 83
1, 180860, Note_off_c, 0, 49, 53
1, 180865, Control_c, 0, 64, 84
1, 180886, Control_c, 0, 64, 85
1, 180895, Note_on_c, 0, 44, 52
1, 180901, Control_c, 0, 64, 88
1, 180916, Control_c, 0, 64, 91
1, 180916, Control_c, 0, 67, 54
1, 180931, Control_c, 0, 64, 93
1, 180935, Note_off_c, 0, 44, 58
1, 180946, Control_c, 0, 64, 94
1, 180946, Control_c, 0, 67, 55
1, 180950, Note_on_c, 0, 49, 62
1, 180961, Control_c, 0, 64, 94
1, 180976, Control_c, 0, 64, 95
1, 180991, Control_c, 0, 64, 97
1, 180991, Control_c, 0, 67, 55
1, 180994, Note_off_c, 0, 49, 61
1, 181005, Control_c, 0, 64, 100
1, 181020, Control_c, 0, 64, 105
1, 181020, Control_c, 0, 67, 56
1, 181035, Control_c, 0, 64, 108
1, 181035, Note_off_c, 0, 73, 60
1, 181040, Note_on_c, 0, 37, 55
1, 181050, Control_c, 0, 64, 110
1, 181065, Control_c, 0, 64, 113
1, 181069, Note_off_c, 0, 80, 36
1, 181077, Note_off_c, 0, 37, 60
1, 181080, Control_c, 0, 64, 117
1, 181080, Control_c, 0, 67, 55
1, 181096, Control_c, 0, 64, 127
1, 181096, Control_c, 0, 67, 55
1, 181097, Note_on_c, 0, 49, 53
1, 181110, Control_c, 0, 67, 54
1, 181131, Note_off_c, 0, 49, 63
1, 181170, Control_c, 0, 67, 55
1, 181182, Note_on_c, 0, 44, 35
1, 181184, Control_c, 0, 67, 55
1, 181199, Control_c, 0, 67, 56
1, 181214, Control_c, 0, 67, 56
1, 181220, Note_off_c, 0, 44, 50
1, 181227, Note_on_c, 0, 49, 54
1, 181229, Control_c, 0, 67, 57
1, 181238, Note_on_c, 0, 66, 56
1, 181244, Control_c, 0, 64, 95
1, 181259, Control_c, 0, 64, 72
1, 181259, Control_c, 0, 67, 57
1, 181260, Note_on_c, 0, 72, 57
1, 181274, Control_c, 0, 64, 38
1, 181274, Control_c, 0, 67, 59
1, 181275, Note_off_c, 0, 49, 55
1, 181289, Control_c, 0, 64, 0
1, 181289, Control_c, 0, 67, 62
1, 181303, Control_c, 0, 67, 64
1, 181318, Control_c, 0, 67, 66
1, 181331, Note_on_c, 0, 37, 52
1, 181333, Control_c, 0, 67, 66
1, 181333, Note_on_c, 0, 80, 54
1, 181348, Control_c, 0, 64, 39
1, 181348, Control_c, 0, 67, 67
1, 181363, Control_c, 0, 64, 53
1, 181368, Note_off_c, 0, 37, 61
1, 181377, Control_c, 0, 64, 60
1, 181392, Control_c, 0, 64, 65
1, 181407, Control_c, 0, 64, 69
1, 181414, Note_off_c, 0, 80, 63
1, 181421, Note_on_c, 0, 51, 41
1, 181422, Control_c, 0, 64, 75
1, 181436, Control_c, 0, 64, 81
1, 181443, Note_off_c, 0, 72, 62
1, 181451, Control_c, 0, 64, 85
1, 181455, Note_off_c, 0, 51, 53
1, 181466, Control_c, 0, 64, 88
1, 181466, Control_c, 0, 67, 67
1, 181468, Note_off_c, 0, 66, 63
1, 181481, Control_c, 0, 64, 89
1, 181483, Note_on_c, 0, 44, 50
1, 181496, Control_c, 0, 64, 91
1, 181510, Control_c, 0, 64, 92
1, 181514, Note_off_c, 0, 44, 53
1, 181525, Control_c, 0, 64, 95
1, 181540, Control_c, 0, 64, 97
1, 181545, Note_on_c, 0, 51, 55
1, 181555, Control_c, 0, 64, 99
1, 181570, Control_c, 0, 64, 99
1, 181583, Note_off_c, 0, 51, 61
1, 181584, Control_c, 0, 64, 100
1, 181599, Control_c, 0, 64, 100
1, 181614, Control_c, 0, 64, 101
1, 181614, Control_c, 0, 67, 67
1, 181636, Control_c, 0, 64, 102
1, 181637, Note_on_c, 0, 37, 50
1, 181651, Control_c, 0, 64, 103
1, 181651, Control_c, 0, 67, 66
1, 181666, Control_c, 0, 64, 103
1, 181670, Note_off_c, 0, 37, 50
1, 181681, Control_c, 0, 64, 104
1, 181693, Note_on_c, 0, 51, 49
1, 181696, Control_c, 0, 64, 104
1, 181725, Control_c, 0, 64, 105
1, 181725, Control_c, 0, 67, 66
1, 181727, Note_off_c, 0, 51, 63
1, 181740, Control_c, 0, 64, 106
1, 181752, Note_on_c, 0, 44, 50
1, 181755, Control_c, 0, 64, 106
1, 181770, Control_c, 0, 64, 107
1, 181781, Note_off_c, 0, 44, 54
1, 181784, Control_c, 0, 64, 107
1, 181799, Control_c, 0, 67, 65
1, 181822, Note_on_c, 0, 51, 49
1, 181843, Control_c, 0, 64, 107
1, 181843, Control_c, 0, 67, 65
1, 181859, Control_c, 0, 64, 100
1, 181860, Note_off_c, 0, 51, 63
1, 181874, Control_c, 0, 64, 85
1, 181889, Control_c, 0, 64, 69
1, 181904, Control_c, 0, 64, 49
1, 181916, Note_on_c, 0, 52, 47
1, 181919, Control_c, 0, 64, 0
1, 181919, Control_c, 0, 67, 64
1, 181923, Note_on_c, 0, 37, 47
1, 181963, Control_c, 0, 64, 46
1, 181978, Control_c, 0, 64, 60
1, 181979, Note_off_c, 0, 37, 54
1, 181993, Note_off_c, 0, 52, 55
1, 181993, Control_c, 0, 64, 65
1, 182006, Note_on_c, 0, 61, 44
1, 182007, Control_c, 0, 64, 68
1, 182022, Control_c, 0, 64, 71
1, 182022, Control_c, 0, 67, 64
1, 182034, Note_on_c, 0, 49, 10
1, 182037, Control_c, 0, 64, 73
1, 182051, Note_off_c, 0, 61, 59
1, 182052, Control_c, 0, 64, 76
1, 182067, Control_c, 0, 64, 78
1, 182079, Note_off_c, 0, 49, 40
1, 182082, Control_c, 0, 64, 81
1, 182091, Note_on_c, 0, 44, 37
1, 182093, Note_on_c, 0, 56, 47
1, 182096, Control_c, 0, 64, 83
1, 182111, Control_c, 0, 64, 85
1, 182126, Control_c, 0, 64, 88
1, 182126, Control_c, 0, 67, 64
1, 182134, Note_off_c, 0, 44, 46
1, 182141, Control_c, 0, 64, 90
1, 182143, Note_off_c, 0, 56, 56
1, 182156, Control_c, 0, 64, 91
1, 182156, Note_on_c, 0, 61, 57
1, 182171, Control_c, 0, 64, 91
1, 182179, Note_on_c, 0, 49, 34
1, 182186, Control_c, 0, 64, 86
1, 182186, Control_c, 0, 67, 64
1, 182198, Note_off_c, 0, 61, 62
1, 182200, Control_c, 0, 64, 80
1, 182200, Control_c, 0, 67, 63
1, 182215, Control_c, 0, 64, 73
1, 182215, Control_c, 0, 67, 62
1, 182216, Note_off_c, 0, 49, 51
1, 182225, Note_on_c, 0, 37, 52
1, 182230, Note_on_c, 0, 52, 54
1, 182230, Control_c, 0, 64, 69
1, 182230, Control_c, 0, 67, 61
1, 182245, Control_c, 0, 64, 70
1, 182245, Control_c, 0, 67, 60
1, 182259, Control_c, 0, 64, 72
1, 182259, Control_c, 0, 67, 59
1, 182272, Note_off_c, 0, 52, 59
1, 182274, Control_c, 0, 64, 75
1, 182274, Control_c, 0, 67, 59
1, 182275, Note_off_c, 0, 37, 55
1, 182289, Control_c, 0, 64, 76
1, 182292, Note_on_c, 0, 61, 68
1, 182302, Note_on_c, 0, 49, 52
1, 182304, Control_c, 0, 64, 77
1, 182319, Control_c, 0, 64, 78
1, 182332, Note_off_c, 0, 49, 60
1, 182333, Control_c, 0, 64, 80
1, 182341, Note_off_c, 0, 61, 54
1, 182346, Note_on_c, 0, 44, 57
1, 182348, Control_c, 0, 64, 84
1, 182348, Control_c, 0, 67, 60
1, 182363, Control_c, 0, 64, 88
1, 182363, Control_c, 0, 67, 60
1, 182386, Control_c, 0, 64, 91
1, 182386, Control_c, 0, 67, 61
1, 182394, Note_on_c, 0, 56, 51
1, 182397, Note_off_c, 0, 44, 58
1, 182415, Control_c, 0, 64, 87
1, 182418, Note_on_c, 0, 49, 63
1, 182430, Control_c, 0, 64, 79
1, 182430, Control_c, 0, 67, 60
1, 182431, Note_off_c, 0, 56, 64
1, 182441, Note_on_c, 0, 61, 66
1, 182445, Control_c, 0, 64, 70
1, 182445, Control_c, 0, 67, 59
1, 182457, Note_off_c, 0, 49, 64
1, 182459, Control_c, 0, 64, 64
1, 182459, Control_c, 0, 67, 57
1, 182470, Note_off_c, 0, 61, 64
1, 182474, Control_c, 0, 64, 62
1, 182474, Control_c, 0, 67, 55
1, 182488, Note_on_c, 0, 37, 71
1, 182489, Control_c, 0, 64, 64
1, 182489, Control_c, 0, 67, 50
1, 182492, Note_on_c, 0, 52, 76
1, 182504, Control_c, 0, 64, 68
1, 182504, Control_c, 0, 67, 47
1, 182519, Control_c, 0, 64, 72
1, 182519, Control_c, 0, 67, 46
1, 182533, Control_c, 0, 64, 75
1, 182533, Control_c, 0, 67, 45
1, 182545, Note_off_c, 0, 37, 60
1, 182548, Control_c, 0, 64, 77
1, 182548, Control_c, 0, 67, 43
1, 182550, Note_off_c, 0, 52, 60
1, 182553, Note_on_c, 0, 49, 66
1, 182557, Note_on_c, 0, 61, 66
1, 182563, Control_c, 0, 64, 78
1, 182563, Control_c, 0, 67, 41
1, 182577, Control_c, 0, 64, 80
1, 182577, Control_c, 0, 67, 40
1, 182592, Control_c, 0, 64, 82
1, 182592, Control_c, 0, 67, 39
1, 182602, Note_off_c, 0, 49, 62
1, 182605, Note_off_c, 0, 61, 56
1, 182607, Control_c, 0, 64, 86
1, 182621, Note_on_c, 0, 44, 64
1, 182622, Control_c, 0, 64, 93
1, 182636, Note_on_c, 0, 56, 64
1, 182637, Control_c, 0, 64, 98
1, 182637, Control_c, 0, 67, 41
1, 182653, Control_c, 0, 64, 100
1, 182653, Control_c, 0, 67, 42
1, 182660, Note_off_c, 0, 44, 59
1, 182668, Control_c, 0, 64, 99
1, 182668, Control_c, 0, 67, 42
1, 182675, Note_off_c, 0, 56, 61
1, 182682, Control_c, 0, 64, 89
1, 182683, Note_on_c, 0, 61, 72
1, 182689, Note_on_c, 0, 49, 66
1, 182697, Control_c, 0, 64, 76
1, 182697, Control_c, 0, 67, 38
1, 182712, Control_c, 0, 64, 64
1, 182712, Control_c, 0, 67, 26
1, 182714, Note_off_c, 0, 61, 64
1, 182722, Note_off_c, 0, 49, 64
1, 182727, Control_c, 0, 64, 51
1, 182727, Control_c, 0, 67, 0
1, 182742, Control_c, 0, 64, 54
1, 182746, Note_on_c, 0, 37, 74
1, 182749, Note_on_c, 0, 52, 75
1, 182756, Control_c, 0, 64, 62
1, 182771, Control_c, 0, 64, 68
1, 182786, Control_c, 0, 64, 76
1, 182795, Note_off_c, 0, 52, 60
1, 182800, Note_on_c, 0, 61, 78
1, 182801, Control_c, 0, 64, 83
1, 182805, Note_off_c, 0, 37, 58
1, 182808, Note_on_c, 0, 49, 65
1, 182816, Control_c, 0, 64, 88
1, 182830, Control_c, 0, 64, 89
1, 182842, Note_off_c, 0, 49, 64
1, 182845, Note_on_c, 0, 44, 71
1, 182845, Control_c, 0, 64, 90
1, 182858, Note_off_c, 0, 61, 60
1, 182860, Control_c, 0, 64, 91
1, 182875, Control_c, 0, 64, 94
1, 182883, Note_on_c, 0, 56, 64
1, 182889, Note_off_c, 0, 44, 57
1, 182889, Control_c, 0, 64, 100
1, 182904, Control_c, 0, 64, 111
1, 182919, Control_c, 0, 64, 127
1, 182924, Note_on_c, 0, 49, 76
1, 182937, Note_off_c, 0, 56, 59
1, 182939, Note_on_c, 0, 61, 69
1, 182949, Control_c, 0, 64, 98
1, 182952, Note_off_c, 0, 49, 67
1, 182964, Control_c, 0, 64, 69
1, 182979, Control_c, 0, 64, 0
1, 182992, Note_off_c, 0, 61, 62
1, 183015, Note_on_c, 0, 53, 78
1, 183017, Note_on_c, 0, 35, 79
1, 183019, Note_on_c, 0, 49, 80
1, 183063, Note_off_c, 0, 49, 59
1, 183068, Control_c, 0, 64, 61
1, 183082, Note_off_c, 0, 35, 62
1, 183082, Control_c, 0, 64, 63
1, 183088, Note_off_c, 0, 53, 62
1, 183092, Note_on_c, 0, 61, 78
1, 183097, Control_c, 0, 64, 62
1, 183111, Note_on_c, 0, 47, 65
1, 183134, Control_c, 0, 64, 63
1, 183149, Control_c, 0, 64, 65
1, 183151, Note_off_c, 0, 61, 58
1, 183159, Note_off_c, 0, 47, 65
1, 183164, Control_c, 0, 64, 68
1, 183167, Note_on_c, 0, 56, 59
1, 183172, Note_on_c, 0, 37, 66
1, 183179, Control_c, 0, 64, 71
1, 183193, Control_c, 0, 64, 74
1, 183208, Control_c, 0, 64, 78
1, 183220, Note_off_c, 0, 37, 61
1, 183223, Control_c, 0, 64, 83
1, 183234, Note_on_c, 0, 61, 69
1, 183238, Control_c, 0, 64, 89
1, 183247, Note_off_c, 0, 56, 60
1, 183252, Note_on_c, 0, 47, 70
1, 183253, Control_c, 0, 64, 97
1, 183268, Control_c, 0, 64, 102
1, 183282, Note_off_c, 0, 47, 65
1, 183282, Control_c, 0, 64, 99
1, 183285, Note_off_c, 0, 61, 62
1, 183297, Control_c, 0, 64, 81
1, 183301, Note_on_c, 0, 53, 88
1, 183303, Note_on_c, 0, 35, 87
1, 183305, Note_on_c, 0, 49, 91
1, 183312, Control_c, 0, 64, 63
1, 183327, Control_c, 0, 64, 0
1, 183370, Note_off_c, 0, 49, 59
1, 183370, Note_off_c, 0, 53, 63
1, 183371, Control_c, 0, 64, 56
1, 183373, Note_on_c, 0, 61, 81
1, 183378, Note_on_c, 0, 47, 66
1, 183381, Note_off_c, 0, 35, 62
1, 183386, Control_c, 0, 64, 69
1, 183400, Control_c, 0, 64, 77
1, 183415, Control_c, 0, 64, 82
1, 183430, Control_c, 0, 64, 84
1, 183438, Note_off_c, 0, 47, 62
1, 183441, Note_off_c, 0, 61, 61
1, 183445, Control_c, 0, 64, 86
1, 183451, Note_on_c, 0, 56, 71
1, 183453, Note_on_c, 0, 37, 78
1, 183461, Control_c, 0, 64, 91
1, 183476, Control_c, 0, 64, 103
1, 183491, Control_c, 0, 64, 127
1, 183501, Note_off_c, 0, 37, 60
1, 183510, Note_on_c, 0, 61, 73
1, 183523, Note_off_c, 0, 56, 62
1, 183535, Control_c, 0, 64, 113
1, 183546, Note_on_c, 0, 47, 45
1, 183550, Control_c, 0, 64, 87
1, 183565, Control_c, 0, 64, 68
1, 183567, Note_off_c, 0, 61, 64
1, 183575, Note_on_c, 0, 53, 88
1, 183575, Note_off_c, 0, 47, 55
1, 183577, Note_on_c, 0, 35, 89
1, 183579, Control_c, 0, 64, 45
1, 183584, Note_on_c, 0, 49, 88
1, 183594, Control_c, 0, 64, 46
1, 183609, Control_c, 0, 64, 61
1, 183623, Control_c, 0, 64, 71
1, 183632, Note_off_c, 0, 49, 61
1, 183638, Control_c, 0, 64, 84
1, 183643, Note_on_c, 0, 61, 84
1, 183647, Note_off_c, 0, 53, 64
1, 183650, Note_on_c, 0, 47, 73
1, 183653, Control_c, 0, 64, 98
1, 183667, Note_off_c, 0, 35, 56
1, 183668, Control_c, 0, 64, 107
1, 183683, Control_c, 0, 64, 110
1, 183697, Control_c, 0, 64, 116
1, 183706, Note_off_c, 0, 47, 64
1, 183712, Control_c, 0, 64, 127
1, 183718, Note_off_c, 0, 61, 62
1, 183722, Note_on_c, 0, 37, 78
1, 183724, Note_on_c, 0, 56, 79
1, 183757, Note_off_c, 0, 37, 64
1, 183781, Note_on_c, 0, 61, 75
1, 183790, Note_off_c, 0, 56, 63
1, 183801, Note_on_c, 0, 47, 69
1, 183802, Control_c, 0, 64, 104
1, 183816, Control_c, 0, 64, 81
1, 183828, Note_off_c, 0, 47, 66
1, 183829, Note_off_c, 0, 61, 63
1, 183831, Control_c, 0, 64, 64
1, 183843, Note_on_c, 0, 53, 77
1, 183846, Control_c, 0, 64, 52
1, 183851, Note_on_c, 0, 49, 78
1, 183857, Note_on_c, 0, 35, 67
1, 183861, Control_c, 0, 64, 59
1, 183883, Control_c, 0, 64, 70
1, 183897, Note_off_c, 0, 49, 60
1, 183898, Control_c, 0, 64, 86
1, 183912, Control_c, 0, 64, 113
1, 183921, Note_on_c, 0, 47, 62
1, 183921, Note_off_c, 0, 53, 59
1, 183923, Note_on_c, 0, 61, 83
1, 183927, Control_c, 0, 64, 127
1, 183951, Note_on_c, 0, 56, 57
1, 183976, Note_on_c, 0, 37, 66
1, 183980, Note_off_c, 0, 61, 61
1, 184022, Note_off_c, 0, 35, 20
1, 184023, Note_off_c, 0, 47, 63
1, 184031, Note_off_c, 0, 37, 61
1, 184038, Note_on_c, 0, 61, 70
1, 184075, Note_off_c, 0, 56, 63
1, 184094, Note_off_c, 0, 61, 63
1, 184104, Control_c, 0, 64, 99
1, 184119, Control_c, 0, 64, 69
1, 184134, Control_c, 0, 64, 0
1, 184137, Note_on_c, 0, 45, 105
1, 184138, Note_on_c, 0, 61, 82
1, 184140, Note_on_c, 0, 33, 92
1, 184140, Note_on_c, 0, 49, 99
1, 184149, Note_on_c, 0, 57, 81
1, 184154, Note_on_c, 0, 51, 72
1, 184155, Note_on_c, 0, 55, 71
1, 184162, Note_on_c, 0, 58, 47
1, 184171, Note_off_c, 0, 45, 68
1, 184174, Note_off_c, 0, 51, 62
1, 184183, Note_off_c, 0, 33, 59
1, 184192, Note_off_c, 0, 55, 55
1, 184192, Note_off_c, 0, 58, 52
1, 184193, Note_off_c, 0, 49, 59
1, 184193, Control_c, 0, 64, 45
1, 184208, Control_c, 0, 64, 42
1, 184222, Control_c, 0, 64, 24
1, 184232, Note_off_c, 0, 57, 60
1, 184237, Control_c, 0, 64, 0
1, 184277, Note_on_c, 0, 49, 77
1, 184329, Note_on_c, 0, 42, 64
1, 184335, Note_on_c, 0, 54, 62
1, 184341, Note_off_c, 0, 61, 38
1, 184349, Note_off_c, 0, 49, 60
1, 184364, Note_off_c, 0, 42, 62
1, 184387, Note_on_c, 0, 57, 66
1, 184414, Note_off_c, 0, 54, 63
1, 184428, Note_off_c, 0, 57, 65
1, 184431, Note_on_c, 0, 61, 67
1, 184456, Note_on_c, 0, 33, 59
1, 184487, Note_off_c, 0, 61, 59
1, 184492, Note_off_c, 0, 33, 59
1, 184496, Note_on_c, 0, 54, 55
1, 184541, Note_off_c, 0, 54, 61
1, 184562, Note_on_c, 0, 57, 63
1, 184571, Note_on_c, 0, 42, 64
1, 184600, Note_off_c, 0, 42, 63
1, 184609, Note_off_c, 0, 57, 61
1, 184615, Note_on_c, 0, 61, 66
1, 184673, Note_on_c, 0, 66, 63
1, 184682, Note_off_c, 0, 61, 63
1, 184692, Note_on_c, 0, 33, 70
1, 184715, Note_off_c, 0, 66, 59
1, 184732, Note_off_c, 0, 33, 63
1, 184746, Note_on_c, 0, 57, 60
1, 184787, Note_off_c, 0, 57, 62
1, 184806, Note_on_c, 0, 61, 61
1, 184812, Note_on_c, 0, 42, 75
1, 184847, Note_off_c, 0, 42, 62
1, 184849, Note_on_c, 0, 66, 53
1, 184878, Note_off_c, 0, 61, 62
1, 184916, Note_off_c, 0, 66, 63
1, 184925, Note_on_c, 0, 69, 60
1, 184931, Note_on_c, 0, 33, 72
1, 184971, Note_off_c, 0, 33, 62
1, 184971, Note_off_c, 0, 69, 64
1, 184992, Note_on_c, 0, 61, 64
1, 185046, Note_on_c, 0, 66, 59
1, 185062, Note_off_c, 0, 61, 55
1, 185063, Note_on_c, 0, 42, 65
1, 185093, Note_off_c, 0, 42, 63
1, 185101, Note_on_c, 0, 69, 65
1, 185119, Note_off_c, 0, 66, 58
1, 185164, Note_off_c, 0, 69, 63
1, 185181, Note_on_c, 0, 73, 70
1, 185182, Note_on_c, 0, 33, 70
1, 185219, Note_off_c, 0, 33, 63
1, 185238, Note_off_c, 0, 73, 62
1, 185247, Note_on_c, 0, 66, 44
1, 185290, Note_on_c, 0, 69, 63
1, 185295, Note_off_c, 0, 66, 59
1, 185304, Note_on_c, 0, 42, 70
1, 185334, Note_off_c, 0, 42, 64
1, 185358, Note_on_c, 0, 73, 70
1, 185382, Note_off_c, 0, 69, 64
1, 185423, Note_on_c, 0, 78, 74
1, 185430, Note_on_c, 0, 33, 76
1, 185437, Note_off_c, 0, 73, 63
1, 185474, Note_off_c, 0, 33, 58
1, 185491, Note_off_c, 0, 78, 59
1, 185513, Note_on_c, 0, 69, 59
1, 185550, Note_on_c, 0, 42, 78
1, 185563, Note_on_c, 0, 73, 60
1, 185569, Note_off_c, 0, 69, 55
1, 185587, Note_off_c, 0, 42, 62
1, 185622, Note_on_c, 0, 78, 60
1, 185644, Note_off_c, 0, 73, 63
1, 185669, Note_on_c, 0, 33, 76
1, 185679, Note_on_c, 0, 81, 66
1, 185689, Note_off_c, 0, 78, 63
1, 185727, Note_off_c, 0, 33, 58
1, 185732, Note_off_c, 0, 81, 64
1, 185739, Note_on_c, 0, 73, 62
1, 185777, Note_on_c, 0, 42, 81
1, 185808, Note_on_c, 0, 78, 71
1, 185834, Note_off_c, 0, 42, 59
1, 185854, Note_on_c, 0, 81, 71
1, 185854, Note_off_c, 0, 73, 62
1, 185869, Note_off_c, 0, 78, 65
1, 185882, Note_off_c, 0, 81, 69
1, 185909, Note_on_c, 0, 85, 92
1, 185912, Note_on_c, 0, 73, 98
1, 185914, Note_on_c, 0, 45, 100
1, 185914, Note_on_c, 0, 78, 88
1, 185915, Note_on_c, 0, 33, 93
1, 185915, Note_on_c, 0, 81, 78
1, 185929, Control_c, 0, 64, 71
1, 185934, Note_on_c, 0, 82, 62
1, 185944, Control_c, 0, 64, 107
1, 185954, Note_off_c, 0, 45, 62
1, 185955, Note_off_c, 0, 82, 64
1, 185957, Note_off_c, 0, 33, 59
1, 185959, Control_c, 0, 64, 127
1, 185972, Note_off_c, 0, 73, 60
1, 185981, Note_off_c, 0, 85, 61
1, 185984, Note_off_c, 0, 78, 64
1, 185984, Note_off_c, 0, 81, 63
1, 186044, Note_on_c, 0, 42, 86
1, 186055, Note_on_c, 0, 73, 84
1, 186061, Note_on_c, 0, 78, 77
1, 186061, Note_on_c, 0, 85, 65
1, 186074, Note_off_c, 0, 42, 65
1, 186077, Note_off_c, 0, 85, 66
1, 186088, Note_off_c, 0, 78, 64
1, 186100, Note_off_c, 0, 73, 65
1, 186127, Poly_aftertouch_c, 0, 81, 127
1, 186155, Poly_aftertouch_c, 0, 81, 0
1, 186203, Control_c, 0, 64, 107
1, 186218, Control_c, 0, 64, 88
1, 186218, Control_c, 0, 67, 9
1, 186232, Control_c, 0, 64, 71
1, 186232, Control_c, 0, 67, 11
1, 186247, Note_on_c, 0, 32, 55
1, 186247, Control_c, 0, 64, 46
1, 186247, Control_c, 0, 67, 14
1, 186262, Control_c, 0, 64, 0
1, 186262, Control_c, 0, 67, 14
1, 186276, Note_on_c, 0, 49, 71
1, 186282, Note_off_c, 0, 32, 59
1, 186292, Control_c, 0, 67, 14
1, 186306, Control_c, 0, 67, 12
1, 186336, Control_c, 0, 67, 13
1, 186348, Note_on_c, 0, 52, 57
1, 186351, Control_c, 0, 67, 13
1, 186356, Note_off_c, 0, 49, 60
1, 186357, Note_on_c, 0, 40, 70
1, 186392, Note_off_c, 0, 40, 62
1, 186418, Note_off_c, 0, 52, 63
1, 186422, Note_on_c, 0, 56, 64
1, 186455, Control_c, 0, 67, 13
1, 186469, Control_c, 0, 67, 12
1, 186471, Note_on_c, 0, 61, 65
1, 186480, Note_on_c, 0, 32, 69
1, 186484, Control_c, 0, 67, 11
1, 186493, Note_off_c, 0, 56, 63
1, 186499, Control_c, 0, 67, 10
1, 186514, Control_c, 0, 67, 9
1, 186520, Note_off_c, 0, 32, 63
1, 186529, Control_c, 0, 67, 8
1, 186534, Note_off_c, 0, 61, 56
1, 186544, Control_c, 0, 67, 0
1, 186552, Note_on_c, 0, 52, 54
1, 186592, Note_off_c, 0, 52, 60
1, 186595, Note_on_c, 0, 40, 66
1, 186613, Note_on_c, 0, 56, 64
1, 186620, Note_off_c, 0, 40, 59
1, 186661, Note_on_c, 0, 61, 60
1, 186696, Note_off_c, 0, 56, 63
1, 186721, Note_on_c, 0, 32, 70
1, 186734, Note_on_c, 0, 64, 59
1, 186737, Note_off_c, 0, 61, 62
1, 186750, Note_off_c, 0, 32, 63
1, 186776, Note_off_c, 0, 64, 65
1, 186806, Note_on_c, 0, 56, 61
1, 186837, Note_on_c, 0, 40, 71
1, 186856, Note_on_c, 0, 61, 71
1, 186874, Note_off_c, 0, 56, 58
1, 186878, Note_off_c, 0, 40, 61
1, 186928, Note_on_c, 0, 64, 66
1, 186934, Note_off_c, 0, 61, 57
1, 186973, Note_on_c, 0, 32, 73
1, 186981, Note_off_c, 0, 64, 64
1, 186988, Note_on_c, 0, 68, 67
1, 187009, Note_off_c, 0, 32, 61
1, 187041, Note_off_c, 0, 68, 63
1, 187048, Note_on_c, 0, 61, 60
1, 187084, Note_on_c, 0, 40, 81
1, 187091, Note_off_c, 0, 61, 62
1, 187097, Note_on_c, 0, 64, 69
1, 187112, Note_off_c, 0, 40, 63
1, 187160, Note_on_c, 0, 68, 68
1, 187164, Note_off_c, 0, 64, 58
1, 187216, Note_on_c, 0, 73, 75
1, 187219, Note_on_c, 0, 32, 82
1, 187237, Note_off_c, 0, 68, 64
1, 187256, Note_off_c, 0, 32, 60
1, 187301, Note_on_c, 0, 64, 57
1, 187302, Note_off_c, 0, 73, 60
1, 187340, Note_on_c, 0, 40, 81
1, 187352, Note_off_c, 0, 64, 60
1, 187362, Note_on_c, 0, 68, 58
1, 187372, Note_off_c, 0, 40, 64
1, 187416, Note_on_c, 0, 73, 77
1, 187432, Note_off_c, 0, 68, 63
1, 187464, Note_on_c, 0, 76, 72
1, 187472, Note_on_c, 0, 32, 83
1, 187475, Note_off_c, 0, 73, 62
1, 187506, Note_off_c, 0, 32, 63
1, 187534, Note_off_c, 0, 76, 61
1, 187539, Note_on_c, 0, 68, 67
1, 187587, Note_on_c, 0, 73, 73
1, 187598, Note_on_c, 0, 40, 80
1, 187630, Note_off_c, 0, 68, 61
1, 187641, Note_off_c, 0, 40, 63
1, 187656, Note_on_c, 0, 76, 78
1, 187694, Note_off_c, 0, 73, 60
1, 187713, Note_on_c, 0, 80, 80
1, 187721, Note_off_c, 0, 76, 64
1, 187750, Note_on_c, 0, 32, 29
1, 187753, Note_on_c, 0, 31, 50
1, 187781, Note_off_c, 0, 80, 62
1, 187789, Note_off_c, 0, 31, 51
1, 187790, Note_on_c, 0, 73, 70
1, 187797, Note_off_c, 0, 32, 30
1, 187832, Note_on_c, 0, 40, 77
1, 187841, Note_on_c, 0, 76, 79
1, 187862, Note_off_c, 0, 40, 62
1, 187863, Note_off_c, 0, 73, 55
1, 187896, Note_on_c, 0, 80, 71
1, 187920, Note_off_c, 0, 76, 62
1, 187930, Note_off_c, 0, 80, 63
1, 187959, Note_on_c, 0, 44, 94
1, 187960, Note_on_c, 0, 76, 93
1, 187961, Note_on_c, 0, 80, 84
1, 187962, Note_on_c, 0, 85, 101
1, 187963, Note_on_c, 0, 73, 97
1, 187966, Note_on_c, 0, 32, 84
1, 187967, Control_c, 0, 64, 12
1, 187982, Control_c, 0, 64, 79
1, 187984, Note_off_c, 0, 44, 68
1, 187993, Note_off_c, 0, 32, 66
1, 187996, Control_c, 0, 64, 127
1, 188031, Note_off_c, 0, 76, 63
1, 188040, Note_off_c, 0, 73, 63
1, 188047, Note_off_c, 0, 85, 61
1, 188051, Note_off_c, 0, 80, 61
1, 188089, Note_on_c, 0, 40, 87
1, 188103, Note_on_c, 0, 80, 67
1, 188107, Note_on_c, 0, 85, 67
1, 188112, Note_on_c, 0, 73, 76
1, 188115, Note_off_c, 0, 40, 64
1, 188118, Note_on_c, 0, 76, 74
1, 188130, Note_on_c, 0, 75, 9
1, 188133, Note_off_c, 0, 85, 68
1, 188141, Note_off_c, 0, 80, 63
1, 188142, Note_off_c, 0, 76, 67
1, 188154, Note_off_c, 0, 75, 51
1, 188157, Note_off_c, 0, 73, 64
1, 188343, Note_on_c, 0, 31, 102
1, 188353, Control_c, 0, 64, 102
1, 188375, Control_c, 0, 64, 71
1, 188390, Control_c, 0, 64, 0
1, 188449, Control_c, 0, 64, 38
1, 188464, Control_c, 0, 64, 45
1, 188479, Control_c, 0, 64, 40
1, 188481, Note_on_c, 0, 49, 83
1, 188494, Control_c, 0, 64, 34
1, 188508, Control_c, 0, 64, 36
1, 188523, Control_c, 0, 64, 38
1, 188538, Control_c, 0, 64, 0
1, 188541, Note_on_c, 0, 52, 75
1, 188580, Note_on_c, 0, 55, 75
1, 188621, Note_on_c, 0, 58, 77
1, 188663, Note_on_c, 0, 61, 86
1, 188669, Note_off_c, 0, 31, 61
1, 188716, Control_c, 0, 64, 57
1, 188731, Control_c, 0, 64, 84
1, 188746, Control_c, 0, 64, 107
1, 188761, Control_c, 0, 64, 115
1, 188795, Note_on_c, 0, 31, 74
1, 188829, Note_off_c, 0, 49, 62
1, 188834, Control_c, 0, 64, 116
1, 188837, Note_off_c, 0, 52, 63
1, 188843, Note_off_c, 0, 55, 62
1, 188849, Control_c, 0, 64, 125
1, 188860, Note_off_c, 0, 58, 63
1, 188864, Control_c, 0, 64, 127
1, 188876, Note_off_c, 0, 61, 63
1, 188887, Note_on_c, 0, 33, 65
1, 188920, Note_on_c, 0, 37, 74
1, 188923, Note_on_c, 0, 34, 16
1, 188953, Control_c, 0, 64, 100
1, 188961, Note_on_c, 0, 40, 63
1, 188967, Control_c, 0, 64, 76
1, 188974, Note_off_c, 0, 34, 27
1, 188982, Control_c, 0, 64, 56
1, 188997, Control_c, 0, 64, 0
1, 189009, Note_on_c, 0, 43, 98
1, 189027, Control_c, 0, 64, 61
1, 189033, Note_off_c, 0, 33, 53
1, 189035, Note_off_c, 0, 31, 62
1, 189042, Control_c, 0, 64, 84
1, 189046, Note_off_c, 0, 40, 61
1, 189050, Note_off_c, 0, 37, 63
1, 189057, Control_c, 0, 64, 127
1, 189059, Note_on_c, 0, 67, 30
1, 189067, Note_off_c, 0, 43, 65
1, 189104, Note_on_c, 0, 61, 85
1, 189132, Note_off_c, 0, 67, 47
1, 189164, Note_on_c, 0, 64, 84
1, 189198, Note_on_c, 0, 67, 73
1, 189236, Note_on_c, 0, 70, 89
1, 189271, Note_on_c, 0, 73, 91
1, 189280, Note_off_c, 0, 61, 61
1, 189303, Note_off_c, 0, 64, 64
1, 189317, Note_off_c, 0, 67, 63
1, 189340, Note_off_c, 0, 70, 65
1, 189362, Note_off_c, 0, 73, 66
1, 189384, Note_on_c, 0, 43, 76
1, 189450, Note_on_c, 0, 46, 77
1, 189498, Note_on_c, 0, 49, 81
1, 189539, Note_on_c, 0, 52, 84
1, 189555, Note_off_c, 0, 43, 62
1, 189563, Note_on_c, 0, 55, 102
1, 189576, Note_off_c, 0, 46, 63
1, 189593, Note_off_c, 0, 52, 64
1, 189594, Note_off_c, 0, 49, 64
1, 189599, Note_off_c, 0, 55, 66
1, 189602, Note_on_c, 0, 79, 37
1, 189627, Poly_aftertouch_c, 0, 51, 0
1, 189653, Note_on_c, 0, 73, 86
1, 189657, Note_off_c, 0, 79, 40
1, 189673, Poly_aftertouch_c, 0, 82, 127
1, 189719, Poly_aftertouch_c, 0, 82, 0
1, 189728, Note_on_c, 0, 76, 82
1, 189764, Note_on_c, 0, 79, 79
1, 189803, Note_on_c, 0, 82, 71
1, 189898, Note_on_c, 0, 85, 100
1, 189901, Note_on_c, 0, 55, 90
1, 189909, Note_on_c, 0, 64, 93
1, 189915, Note_on_c, 0, 61, 90
1, 189916, Note_on_c, 0, 58, 90
1, 190965, Note_off_c, 0, 73, 65
1, 190968, Note_off_c, 0, 85, 70
1, 190975, Note_off_c, 0, 58, 64
1, 190980, Note_off_c, 0, 55, 62
1, 190983, Note_off_c, 0, 64, 69
1, 190985, Note_off_c, 0, 61, 64
1, 190985, Note_off_c, 0, 76, 66
1, 190986, Note_off_c, 0, 79, 63
1, 190992, Control_c, 0, 64, 99
1, 190993, Note_off_c, 0, 82, 65
1, 191007, Control_c, 0, 64, 64
1, 191021, Control_c, 0, 64, 0
1, 191600, Note_on_c, 0, 30, 80
1, 191606, Note_on_c, 0, 32, 75
1, 191625, Note_on_c, 0, 31, 73
1, 191637, Control_c, 0, 64, 65
1, 191652, Control_c, 0, 64, 67
1, 191682, Control_c, 0, 64, 66
1, 191683, Note_off_c, 0, 32, 47
1, 191697, Control_c, 0, 64, 67
1, 191711, Control_c, 0, 64, 67
1, 191726, Control_c, 0, 64, 68
1, 191741, Control_c, 0, 64, 69
1, 191748, Note_on_c, 0, 45, 78
1, 191750, Poly_aftertouch_c, 0, 54, 127
1, 191756, Control_c, 0, 64, 70
1, 191784, Poly_aftertouch_c, 0, 54, 0
1, 191785, Control_c, 0, 64, 70
1, 191800, Control_c, 0, 64, 71
1, 191815, Control_c, 0, 64, 71
1, 191819, Note_on_c, 0, 48, 74
1, 191847, Note_off_c, 0, 45, 65
1, 191856, Note_off_c, 0, 30, 51
1, 191856, Note_off_c, 0, 31, 62
1, 191859, Control_c, 0, 64, 72
1, 191860, Note_on_c, 0, 51, 80
1, 191888, Note_on_c, 0, 54, 74
1, 191889, Control_c, 0, 64, 72
1, 191904, Control_c, 0, 64, 73
1, 191919, Control_c, 0, 64, 73
1, 191928, Note_on_c, 0, 57, 89
1, 191933, Control_c, 0, 64, 74
1, 191948, Control_c, 0, 64, 77
1, 191963, Control_c, 0, 64, 80
1, 191978, Control_c, 0, 64, 83
1, 191993, Control_c, 0, 64, 88
1, 192008, Control_c, 0, 64, 95
1, 192023, Control_c, 0, 64, 104
1, 192037, Control_c, 0, 64, 122
1, 192047, Note_on_c, 0, 30, 79
1, 192052, Control_c, 0, 64, 127
1, 192067, Control_c, 0, 64, 110
1, 192082, Control_c, 0, 64, 82
1, 192091, Note_on_c, 0, 33, 67
1, 192097, Control_c, 0, 64, 58
1, 192118, Control_c, 0, 64, 0
1, 192154, Note_on_c, 0, 36, 80
1, 192163, Control_c, 0, 64, 60
1, 192178, Control_c, 0, 64, 76
1, 192180, Note_on_c, 0, 39, 81
1, 192183, Note_off_c, 0, 48, 64
1, 192193, Control_c, 0, 64, 107
1, 192193, Note_off_c, 0, 51, 63
1, 192208, Control_c, 0, 64, 127
1, 192208, Note_off_c, 0, 30, 56
1, 192211, Note_off_c, 0, 54, 63
1, 192214, Note_off_c, 0, 57, 64
1, 192220, Note_off_c, 0, 33, 59
1, 192229, Note_on_c, 0, 42, 100
1, 192244, Note_off_c, 0, 36, 59
1, 192262, Note_off_c, 0, 39, 62
1, 192270, Note_off_c, 0, 42, 65
1, 192392, Note_on_c, 0, 57, 84
1, 192396, Poly_aftertouch_c, 0, 63, 127
1, 192433, Poly_aftertouch_c, 0, 63, 0
1, 192441, Note_on_c, 0, 60, 75
1, 192505, Note_on_c, 0, 63, 92
1, 192550, Note_on_c, 0, 66, 80
1, 192607, Note_on_c, 0, 69, 90
1, 192624, Note_off_c, 0, 57, 55
1, 192655, Note_off_c, 0, 63, 58
1, 192668, Note_on_c, 0, 42, 78
1, 192684, Note_off_c, 0, 60, 62
1, 192705, Note_on_c, 0, 45, 69
1, 192730, Note_off_c, 0, 66, 62
1, 192754, Note_on_c, 0, 48, 82
1, 192792, Note_off_c, 0, 69, 60
1, 192800, Note_on_c, 0, 51, 88
1, 192818, Note_off_c, 0, 45, 63
1, 192840, Note_off_c, 0, 42, 52
1, 192867, Note_off_c, 0, 48, 63
1, 192883, Note_on_c, 0, 54, 98
1, 192908, Note_off_c, 0, 51, 65
1, 192931, Note_off_c, 0, 54, 66
1, 193075, Note_on_c, 0, 69, 95
1, 193187, Note_on_c, 0, 72, 93
1, 193287, Note_on_c, 0, 75, 94
1, 193414, Note_on_c, 0, 81, 100
1, 193416, Note_on_c, 0, 54, 86
1, 193418, Note_on_c, 0, 63, 91
1, 193421, Note_on_c, 0, 57, 82
1, 193426, Note_on_c, 0, 60, 78
1, 194865, Note_off_c, 0, 69, 65
1, 194879, Note_off_c, 0, 72, 67
1, 194885, Control_c, 0, 64, 122
1, 194893, Note_off_c, 0, 57, 63
1, 194893, Note_off_c, 0, 75, 68
1, 194898, Note_off_c, 0, 60, 65
1, 194898, Note_off_c, 0, 81, 69
1, 194900, Control_c, 0, 64, 69
1, 194905, Note_off_c, 0, 54, 60
1, 194905, Note_off_c, 0, 63, 63
1, 194915, Control_c, 0, 64, 0
1, 195737, Control_c, 0, 67, 8
1, 195752, Control_c, 0, 67, 9
1, 195767, Control_c, 0, 67, 9
1, 195782, Control_c, 0, 67, 10
1, 195797, Control_c, 0, 67, 11
1, 195811, Control_c, 0, 67, 13
1, 195826, Control_c, 0, 67, 16
1, 195841, Control_c, 0, 67, 19
1, 195863, Control_c, 0, 67, 22
1, 195878, Control_c, 0, 67, 25
1, 195892, Control_c, 0, 67, 27
1, 195907, Control_c, 0, 67, 31
1, 195922, Control_c, 0, 67, 36
1, 195937, Control_c, 0, 67, 41
1, 195952, Control_c, 0, 67, 47
1, 195967, Control_c, 0, 67, 52
1, 195981, Control_c, 0, 67, 57
1, 195996, Control_c, 0, 67, 63
1, 196011, Control_c, 0, 67, 69
1, 196026, Control_c, 0, 67, 76
1, 196041, Control_c, 0, 67, 83
1, 196056, Control_c, 0, 67, 88
1, 196071, Control_c, 0, 67, 93
1, 196085, Control_c, 0, 67, 98
1, 196100, Control_c, 0, 67, 102
1, 196115, Control_c, 0, 67, 104
1, 196129, Control_c, 0, 67, 106
1, 196144, Control_c, 0, 67, 107
1, 196189, Control_c, 0, 67, 107
1, 196352, Control_c, 0, 64, 29
1, 196352, Control_c, 0, 67, 107
1, 196367, Control_c, 0, 64, 40
1, 196382, Control_c, 0, 64, 48
1, 196397, Control_c, 0, 64, 54
1, 196412, Control_c, 0, 64, 56
1, 196426, Control_c, 0, 64, 58
1, 196441, Control_c, 0, 64, 60
1, 196441, Control_c, 0, 67, 106
1, 196456, Control_c, 0, 64, 62
1, 196456, Control_c, 0, 67, 105
1, 196471, Control_c, 0, 64, 64
1, 196471, Control_c, 0, 67, 105
1, 196486, Control_c, 0, 64, 67
1, 196500, Control_c, 0, 64, 70
1, 196500, Control_c, 0, 67, 104
1, 196515, Control_c, 0, 64, 72
1, 196515, Control_c, 0, 67, 104
1, 196530, Control_c, 0, 64, 74
1, 196545, Control_c, 0, 64, 76
1, 196545, Control_c, 0, 67, 103
1, 196560, Control_c, 0, 64, 77
1, 196575, Control_c, 0, 64, 79
1, 196590, Control_c, 0, 64, 81
1, 196612, Control_c, 0, 64, 83
1, 196627, Control_c, 0, 64, 84
1, 196656, Control_c, 0, 64, 84
1, 196671, Control_c, 0, 64, 85
1, 196686, Control_c, 0, 64, 85
1, 196701, Control_c, 0, 64, 86
1, 196701, Control_c, 0, 67, 103
1, 196730, Control_c, 0, 64, 86
1, 196770, Note_on_c, 0, 49, 44
1, 196804, Control_c, 0, 64, 86
1, 196819, Control_c, 0, 64, 82
1, 196834, Control_c, 0, 64, 76
1, 196849, Control_c, 0, 64, 68
1, 196864, Control_c, 0, 64, 60
1, 196864, Control_c, 0, 67, 102
1, 196879, Control_c, 0, 64, 51
1, 196879, Control_c, 0, 67, 100
1, 196894, Control_c, 0, 64, 56
1, 196894, Control_c, 0, 67, 98
1, 196908, Control_c, 0, 64, 63
1, 196908, Control_c, 0, 67, 97
1, 196923, Control_c, 0, 64, 69
1, 196938, Control_c, 0, 64, 77
1, 196953, Control_c, 0, 64, 85
1, 196953, Control_c, 0, 67, 98
1, 196967, Control_c, 0, 64, 91
1, 196967, Control_c, 0, 67, 99
1, 196980, Note_on_c, 0, 68, 42
1, 196982, Control_c, 0, 64, 95
1, 196983, Note_off_c, 0, 49, 62
1, 196997, Control_c, 0, 64, 97
1, 197012, Control_c, 0, 64, 99
1, 197012, Control_c, 0, 67, 99
1, 197019, Note_off_c, 0, 68, 54
1, 197028, Control_c, 0, 64, 100
1, 197028, Control_c, 0, 67, 100
1, 197043, Control_c, 0, 67, 100
1, 197057, Control_c, 0, 67, 101
1, 197072, Control_c, 0, 67, 101
1, 197080, Note_on_c, 0, 64, 30
1, 197102, Control_c, 0, 67, 102
1, 197126, Note_on_c, 0, 68, 53
1, 197129, Note_off_c, 0, 64, 45
1, 197131, Control_c, 0, 67, 102
1, 197146, Control_c, 0, 67, 103
1, 197168, Note_off_c, 0, 68, 62
1, 197175, Control_c, 0, 64, 99
1, 197175, Control_c, 0, 67, 103
1, 197190, Control_c, 0, 64, 97
1, 197205, Control_c, 0, 64, 95
1, 197210, Note_on_c, 0, 56, 63
1, 197219, Note_on_c, 0, 61, 46
1, 197220, Control_c, 0, 64, 92
1, 197235, Control_c, 0, 64, 85
1, 197249, Control_c, 0, 64, 74
1, 197264, Control_c, 0, 64, 59
1, 197279, Control_c, 0, 64, 0
1, 197314, Note_on_c, 0, 68, 28
1, 197323, Control_c, 0, 64, 19
1, 197338, Control_c, 0, 64, 49
1, 197361, Note_off_c, 0, 68, 56
1, 197361, Control_c, 0, 64, 60
1, 197368, Note_off_c, 0, 61, 27
1, 197376, Control_c, 0, 64, 62
1, 197390, Control_c, 0, 64, 63
1, 197400, Note_on_c, 0, 64, 43
1, 197405, Control_c, 0, 64, 63
1, 197420, Control_c, 0, 64, 65
1, 197420, Control_c, 0, 67, 103
1, 197435, Control_c, 0, 64, 68
1, 197450, Control_c, 0, 64, 71
1, 197456, Note_off_c, 0, 64, 57
1, 197464, Note_on_c, 0, 68, 47
1, 197464, Control_c, 0, 64, 76
1, 197464, Control_c, 0, 67, 102
1, 197479, Control_c, 0, 64, 78
1, 197494, Control_c, 0, 64, 79
1, 197494, Control_c, 0, 67, 102
1, 197509, Control_c, 0, 64, 79
1, 197509, Control_c, 0, 67, 101
1, 197511, Note_off_c, 0, 68, 62
1, 197524, Control_c, 0, 67, 101
1, 197538, Control_c, 0, 64, 81
1, 197538, Control_c, 0, 67, 100
1, 197545, Note_on_c, 0, 61, 38
1, 197553, Control_c, 0, 64, 84
1, 197553, Control_c, 0, 67, 100
1, 197567, Control_c, 0, 64, 86
1, 197567, Control_c, 0, 67, 99
1, 197582, Control_c, 0, 64, 89
1, 197582, Control_c, 0, 67, 98
1, 197597, Control_c, 0, 64, 90
1, 197597, Control_c, 0, 67, 98
1, 197604, Note_off_c, 0, 61, 42
1, 197612, Note_on_c, 0, 68, 54
1, 197612, Control_c, 0, 64, 91
1, 197612, Control_c, 0, 67, 97
1, 197627, Control_c, 0, 64, 91
1, 197642, Control_c, 0, 64, 92
1, 197651, Note_off_c, 0, 68, 64
1, 197656, Control_c, 0, 64, 94
1, 197671, Control_c, 0, 64, 96
1, 197686, Control_c, 0, 64, 97
1, 197693, Note_on_c, 0, 64, 43
1, 197700, Control_c, 0, 64, 99
1, 197715, Control_c, 0, 64, 99
1, 197715, Control_c, 0, 67, 98
1, 197730, Control_c, 0, 64, 101
1, 197730, Control_c, 0, 67, 98
1, 197737, Note_off_c, 0, 64, 47
1, 197745, Control_c, 0, 64, 103
1, 197749, Note_on_c, 0, 68, 53
1, 197760, Control_c, 0, 64, 108
1, 197760, Control_c, 0, 67, 99
1, 197775, Control_c, 0, 64, 114
1, 197789, Control_c, 0, 64, 120
1, 197789, Control_c, 0, 67, 99
1, 197804, Control_c, 0, 64, 120
1, 197804, Control_c, 0, 67, 100
1, 197805, Note_off_c, 0, 68, 60
1, 197819, Note_on_c, 0, 52, 63
1, 197819, Control_c, 0, 64, 118
1, 197819, Control_c, 0, 67, 100
1, 197835, Control_c, 0, 64, 102
1, 197836, Note_on_c, 0, 61, 51
1, 197850, Control_c, 0, 64, 90
1, 197850, Control_c, 0, 67, 101
1, 197865, Control_c, 0, 64, 79
1, 197879, Control_c, 0, 64, 72
1, 197894, Control_c, 0, 64, 67
1, 197909, Control_c, 0, 64, 67
1, 197919, Note_off_c, 0, 61, 49
1, 197924, Note_on_c, 0, 68, 49
1, 197924, Control_c, 0, 64, 69
1, 197939, Control_c, 0, 64, 72
1, 197953, Control_c, 0, 64, 74
1, 197968, Control_c, 0, 64, 75
1, 197982, Note_off_c, 0, 68, 58
1, 197983, Control_c, 0, 64, 76
1, 197997, Control_c, 0, 64, 77
1, 198012, Control_c, 0, 64, 78
1, 198027, Control_c, 0, 64, 80
1, 198036, Note_on_c, 0, 64, 41
1, 198042, Control_c, 0, 64, 82
1, 198057, Control_c, 0, 64, 84
1, 198062, Note_on_c, 0, 49, 66
1, 198067, Note_off_c, 0, 52, 62
1, 198071, Control_c, 0, 64, 85
1, 198077, Note_off_c, 0, 64, 62
1, 198080, Note_off_c, 0, 56, 19
1, 198086, Control_c, 0, 64, 87
1, 198107, Note_off_c, 0, 49, 62
1, 198109, Control_c, 0, 64, 88
1, 198116, Note_on_c, 0, 68, 53
1, 198138, Control_c, 0, 64, 86
1, 198153, Control_c, 0, 64, 77
1, 198153, Control_c, 0, 67, 101
1, 198155, Note_off_c, 0, 68, 62
1, 198168, Control_c, 0, 64, 65
1, 198175, Note_on_c, 0, 49, 64
1, 198183, Control_c, 0, 64, 37
1, 198190, Note_on_c, 0, 63, 50
1, 198198, Control_c, 0, 64, 0
1, 198227, Control_c, 0, 67, 102
1, 198277, Note_on_c, 0, 68, 44
1, 198298, Note_off_c, 0, 63, 37
1, 198301, Control_c, 0, 64, 34
1, 198316, Control_c, 0, 64, 50
1, 198330, Note_off_c, 0, 68, 64
1, 198330, Control_c, 0, 64, 59
1, 198345, Control_c, 0, 64, 62
1, 198360, Control_c, 0, 64, 63
1, 198375, Control_c, 0, 64, 65
1, 198381, Note_on_c, 0, 66, 41
1, 198390, Control_c, 0, 64, 67
1, 198390, Control_c, 0, 67, 102
1, 198405, Control_c, 0, 64, 70
1, 198420, Control_c, 0, 64, 73
1, 198435, Control_c, 0, 64, 75
1, 198437, Note_off_c, 0, 66, 58
1, 198450, Control_c, 0, 64, 76
1, 198463, Note_on_c, 0, 68, 46
1, 198509, Note_off_c, 0, 68, 62
1, 198551, Note_on_c, 0, 48, 48
1, 198557, Note_off_c, 0, 49, 41
1, 198563, Note_on_c, 0, 63, 38
1, 198568, Control_c, 0, 64, 75
1, 198583, Control_c, 0, 64, 72
1, 198597, Control_c, 0, 64, 62
1, 198612, Control_c, 0, 64, 26
1, 198628, Control_c, 0, 64, 0
1, 198640, Note_on_c, 0, 68, 43
1, 198640, Note_off_c, 0, 63, 54
1, 198643, Control_c, 0, 67, 102
1, 198658, Control_c, 0, 67, 101
1, 198677, Note_off_c, 0, 68, 66
1, 198688, Control_c, 0, 64, 43
1, 198688, Control_c, 0, 67, 101
1, 198702, Control_c, 0, 64, 54
1, 198710, Note_on_c, 0, 66, 49
1, 198717, Control_c, 0, 64, 58
1, 198717, Control_c, 0, 67, 100
1, 198732, Control_c, 0, 64, 60
1, 198732, Control_c, 0, 67, 100
1, 198747, Control_c, 0, 64, 62
1, 198747, Control_c, 0, 67, 99
1, 198761, Control_c, 0, 64, 64
1, 198771, Note_off_c, 0, 66, 58
1, 198776, Control_c, 0, 64, 67
1, 198776, Control_c, 0, 67, 98
1, 198785, Note_on_c, 0, 68, 43
1, 198791, Control_c, 0, 64, 71
1, 198806, Control_c, 0, 64, 74
1, 198811, Note_off_c, 0, 68, 59
1, 198819, Note_off_c, 0, 48, 60
1, 198820, Control_c, 0, 64, 76
1, 198820, Control_c, 0, 67, 98
1, 198825, Note_on_c, 0, 63, 50
1, 198835, Control_c, 0, 64, 77
1, 198858, Control_c, 0, 64, 77
1, 198858, Control_c, 0, 67, 97
1, 198873, Control_c, 0, 64, 78
1, 198888, Control_c, 0, 64, 79
1, 198891, Note_off_c, 0, 63, 54
1, 198899, Note_on_c, 0, 68, 58
1, 198902, Control_c, 0, 64, 81
1, 198917, Control_c, 0, 64, 83
1, 198932, Control_c, 0, 64, 85
1, 198943, Note_off_c, 0, 68, 61
1, 198947, Control_c, 0, 64, 87
1, 198961, Control_c, 0, 64, 89
1, 198976, Control_c, 0, 64, 89
1, 198986, Note_on_c, 0, 66, 55
1, 198991, Control_c, 0, 64, 88
1, 198993, Note_on_c, 0, 48, 65
1, 199006, Control_c, 0, 64, 82
1, 199006, Control_c, 0, 67, 97
1, 199021, Control_c, 0, 64, 75
1, 199021, Control_c, 0, 67, 95
1, 199035, Control_c, 0, 64, 68
1, 199035, Control_c, 0, 67, 91
1, 199046, Note_off_c, 0, 66, 60
1, 199050, Control_c, 0, 64, 63
1, 199050, Control_c, 0, 67, 84
1, 199061, Note_on_c, 0, 68, 56
1, 199065, Control_c, 0, 64, 63
1, 199065, Control_c, 0, 67, 77
1, 199080, Control_c, 0, 64, 66
1, 199080, Control_c, 0, 67, 70
1, 199093, Note_off_c, 0, 68, 66
1, 199095, Control_c, 0, 64, 69
1, 199095, Control_c, 0, 67, 63
1, 199109, Control_c, 0, 64, 73
1, 199109, Control_c, 0, 67, 55
1, 199117, Note_on_c, 0, 63, 57
1, 199124, Control_c, 0, 64, 76
1, 199124, Control_c, 0, 67, 50
1, 199134, Note_on_c, 0, 56, 73
1, 199136, Note_off_c, 0, 48, 61
1, 199139, Control_c, 0, 64, 77
1, 199139, Control_c, 0, 67, 49
1, 199153, Control_c, 0, 67, 49
1, 199168, Control_c, 0, 67, 50
1, 199180, Note_on_c, 0, 68, 58
1, 199201, Note_off_c, 0, 63, 50
1, 199213, Control_c, 0, 67, 50
1, 199228, Control_c, 0, 67, 51
1, 199237, Note_off_c, 0, 68, 63
1, 199243, Control_c, 0, 67, 51
1, 199261, Note_on_c, 0, 66, 55
1, 199302, Control_c, 0, 67, 51
1, 199334, Note_off_c, 0, 66, 62
1, 199346, Control_c, 0, 67, 51
1, 199351, Note_on_c, 0, 68, 61
1, 199352, Note_on_c, 0, 48, 60
1, 199361, Control_c, 0, 67, 52
1, 199376, Control_c, 0, 64, 76
1, 199376, Control_c, 0, 67, 52
1, 199384, Note_off_c, 0, 68, 65
1, 199391, Control_c, 0, 64, 71
1, 199406, Control_c, 0, 64, 63
1, 199421, Note_on_c, 0, 61, 53
1, 199421, Control_c, 0, 64, 26
1, 199427, Note_off_c, 0, 56, 38
1, 199432, Note_on_c, 0, 51, 70
1, 199436, Note_off_c, 0, 48, 63
1, 199436, Control_c, 0, 64, 0
1, 199436, Control_c, 0, 67, 53
1, 199466, Control_c, 0, 67, 53
1, 199496, Control_c, 0, 67, 54
1, 199501, Note_off_c, 0, 61, 54
1, 199502, Note_on_c, 0, 68, 46
1, 199547, Note_off_c, 0, 68, 65
1, 199581, Note_on_c, 0, 64, 51
1, 199656, Note_off_c, 0, 64, 57
1, 199666, Control_c, 0, 67, 53
1, 199667, Note_on_c, 0, 68, 55
1, 199696, Control_c, 0, 67, 53
1, 199723, Note_off_c, 0, 68, 57
1, 199764, Note_on_c, 0, 49, 59
1, 199765, Note_on_c, 0, 61, 45
1, 199770, Control_c, 0, 67, 53
1, 199784, Control_c, 0, 67, 53
1, 199797, Note_off_c, 0, 51, 55
1, 199815, Control_c, 0, 67, 52
1, 199827, Note_off_c, 0, 61, 53
1, 199848, Note_on_c, 0, 68, 51
1, 199874, Control_c, 0, 67, 52
1, 199886, Note_off_c, 0, 68, 66
1, 199904, Control_c, 0, 67, 51
1, 199919, Control_c, 0, 64, 35
1, 199919, Control_c, 0, 67, 51
1, 199922, Note_on_c, 0, 64, 39
1, 199933, Control_c, 0, 64, 54
1, 199933, Control_c, 0, 67, 50
1, 199948, Control_c, 0, 64, 59
1, 199948, Control_c, 0, 67, 50
1, 199963, Control_c, 0, 64, 60
1, 199976, Note_on_c, 0, 68, 58
1, 199977, Control_c, 0, 64, 61
1, 199982, Note_off_c, 0, 64, 43
1, 199992, Control_c, 0, 64, 63
1, 199992, Control_c, 0, 67, 49
1, 200002, Note_off_c, 0, 49, 62
1, 200007, Control_c, 0, 64, 66
1, 200007, Control_c, 0, 67, 49
1, 200017, Note_off_c, 0, 68, 64
1, 200022, Control_c, 0, 64, 70
1, 200036, Note_on_c, 0, 61, 51
1, 200037, Control_c, 0, 64, 74
1, 200037, Control_c, 0, 67, 48
1, 200051, Control_c, 0, 64, 76
1, 200051, Control_c, 0, 67, 48
1, 200066, Control_c, 0, 64, 77
1, 200081, Control_c, 0, 64, 78
1, 200095, Control_c, 0, 64, 78
1, 200096, Note_off_c, 0, 61, 57
1, 200110, Note_on_c, 0, 68, 56
1, 200110, Control_c, 0, 64, 80
1, 200125, Control_c, 0, 64, 83
1, 200125, Control_c, 0, 67, 47
1, 200140, Control_c, 0, 64, 87
1, 200140, Control_c, 0, 67, 46
1, 200150, Note_off_c, 0, 68, 65
1, 200155, Control_c, 0, 64, 91
1, 200155, Control_c, 0, 67, 45
1, 200170, Control_c, 0, 64, 94
1, 200176, Note_on_c, 0, 64, 56
1, 200185, Control_c, 0, 64, 95
1, 200189, Note_on_c, 0, 49, 76
1, 200199, Control_c, 0, 64, 95
1, 200214, Control_c, 0, 64, 88
1, 200214, Control_c, 0, 67, 46
1, 200230, Control_c, 0, 64, 77
1, 200242, Note_off_c, 0, 64, 62
1, 200244, Note_on_c, 0, 68, 61
1, 200245, Control_c, 0, 64, 66
1, 200245, Control_c, 0, 67, 45
1, 200260, Control_c, 0, 64, 52
1, 200260, Control_c, 0, 67, 44
1, 200274, Control_c, 0, 64, 42
1, 200274, Control_c, 0, 67, 41
1, 200289, Control_c, 0, 64, 50
1, 200289, Control_c, 0, 67, 32
1, 200295, Note_off_c, 0, 68, 62
1, 200304, Control_c, 0, 64, 59
1, 200304, Control_c, 0, 67, 20
1, 200319, Control_c, 0, 64, 64
1, 200319, Control_c, 0, 67, 12
1, 200321, Note_on_c, 0, 61, 60
1, 200334, Note_on_c, 0, 56, 73
1, 200334, Control_c, 0, 64, 65
1, 200334, Control_c, 0, 67, 0
1, 200337, Note_off_c, 0, 49, 62
1, 200386, Control_c, 0, 64, 66
1, 200400, Control_c, 0, 64, 66
1, 200400, Control_c, 0, 67, 8
1, 200403, Note_on_c, 0, 68, 59
1, 200415, Control_c, 0, 64, 67
1, 200415, Control_c, 0, 67, 9
1, 200430, Control_c, 0, 64, 68
1, 200430, Control_c, 0, 67, 10
1, 200445, Control_c, 0, 64, 69
1, 200445, Control_c, 0, 67, 11
1, 200447, Note_off_c, 0, 68, 66
1, 200459, Note_off_c, 0, 61, 33
1, 200460, Control_c, 0, 67, 12
1, 200472, Note_on_c, 0, 64, 60
1, 200475, Control_c, 0, 67, 13
1, 200489, Control_c, 0, 67, 14
1, 200504, Control_c, 0, 64, 69
1, 200504, Control_c, 0, 67, 14
1, 200551, Note_off_c, 0, 64, 61
1, 200563, Note_on_c, 0, 68, 63
1, 200575, Note_on_c, 0, 49, 63
1, 200578, Control_c, 0, 67, 15
1, 200593, Control_c, 0, 67, 15
1, 200608, Control_c, 0, 64, 68
1, 200608, Control_c, 0, 67, 16
1, 200618, Note_off_c, 0, 68, 62
1, 200623, Control_c, 0, 64, 66
1, 200623, Control_c, 0, 67, 17
1, 200632, Note_on_c, 0, 52, 71
1, 200638, Control_c, 0, 64, 59
1, 200638, Control_c, 0, 67, 19
1, 200644, Note_off_c, 0, 56, 53
1, 200653, Note_on_c, 0, 60, 61
1, 200653, Note_off_c, 0, 49, 62
1, 200653, Control_c, 0, 64, 19
1, 200653, Control_c, 0, 67, 23
1, 200667, Control_c, 0, 64, 0
1, 200667, Control_c, 0, 67, 26
1, 200682, Control_c, 0, 67, 28
1, 200697, Control_c, 0, 67, 29
1, 200712, Control_c, 0, 67, 31
1, 200726, Control_c, 0, 67, 33
1, 200737, Note_on_c, 0, 68, 60
1, 200737, Note_off_c, 0, 60, 60
1, 200741, Control_c, 0, 67, 34
1, 200756, Control_c, 0, 67, 36
1, 200771, Control_c, 0, 67, 38
1, 200786, Control_c, 0, 67, 40
1, 200789, Note_off_c, 0, 68, 59
1, 200800, Control_c, 0, 67, 41
1, 200815, Control_c, 0, 67, 43
1, 200830, Control_c, 0, 67, 44
1, 200835, Note_on_c, 0, 66, 42
1, 200845, Control_c, 0, 67, 46
1, 200860, Control_c, 0, 67, 47
1, 200874, Control_c, 0, 67, 47
1, 200884, Note_off_c, 0, 66, 46
1, 200904, Note_on_c, 0, 68, 57
1, 200939, Note_off_c, 0, 68, 65
1, 200957, Note_on_c, 0, 51, 58
1, 200963, Control_c, 0, 67, 48
1, 200969, Note_off_c, 0, 52, 59
1, 200978, Control_c, 0, 67, 49
1, 200982, Note_on_c, 0, 60, 57
1, 200992, Control_c, 0, 67, 51
1, 201007, Control_c, 0, 67, 52
1, 201038, Note_off_c, 0, 60, 58
1, 201043, Note_on_c, 0, 68, 56
1, 201105, Control_c, 0, 64, 34
1, 201105, Control_c, 0, 67, 53
1, 201107, Note_off_c, 0, 68, 62
1, 201120, Control_c, 0, 64, 52
1, 201120, Control_c, 0, 67, 54
1, 201134, Note_on_c, 0, 66, 52
1, 201135, Control_c, 0, 64, 59
1, 201135, Control_c, 0, 67, 56
1, 201149, Control_c, 0, 64, 59
1, 201149, Control_c, 0, 67, 58
1, 201164, Control_c, 0, 67, 59
1, 201165, Note_off_c, 0, 66, 53
1, 201179, Control_c, 0, 64, 60
1, 201179, Control_c, 0, 67, 61
1, 201183, Note_off_c, 0, 51, 62
1, 201194, Control_c, 0, 64, 62
1, 201194, Control_c, 0, 67, 62
1, 201204, Note_on_c, 0, 68, 55
1, 201209, Control_c, 0, 64, 64
1, 201209, Control_c, 0, 67, 63
1, 201223, Control_c, 0, 64, 67
1, 201223, Control_c, 0, 67, 64
1, 201237, Note_off_c, 0, 68, 66
1, 201238, Control_c, 0, 64, 70
1, 201253, Control_c, 0, 64, 73
1, 201264, Note_on_c, 0, 60, 60
1, 201268, Control_c, 0, 64, 74
1, 201283, Control_c, 0, 64, 75
1, 201297, Control_c, 0, 67, 64
1, 201311, Control_c, 0, 64, 74
1, 201317, Note_off_c, 0, 60, 55
1, 201323, Note_on_c, 0, 68, 57
1, 201326, Control_c, 0, 64, 72
1, 201341, Control_c, 0, 64, 67
1, 201356, Control_c, 0, 64, 61
1, 201371, Control_c, 0, 64, 56
1, 201386, Control_c, 0, 64, 57
1, 201386, Control_c, 0, 67, 64
1, 201397, Note_on_c, 0, 51, 66
1, 201401, Control_c, 0, 64, 60
1, 201407, Note_off_c, 0, 68, 57
1, 201416, Control_c, 0, 64, 62
1, 201430, Control_c, 0, 64, 62
1, 201445, Control_c, 0, 64, 63
1, 201445, Control_c, 0, 67, 64
1, 201475, Control_c, 0, 64, 63
1, 201475, Note_on_c, 0, 68, 51
1, 201490, Control_c, 0, 64, 64
1, 201504, Control_c, 0, 64, 63
1, 201504, Control_c, 0, 67, 65
1, 201519, Control_c, 0, 64, 59
1, 201524, Note_off_c, 0, 68, 64
1, 201534, Note_off_c, 0, 51, 62
1, 201534, Control_c, 0, 64, 55
1, 201534, Control_c, 0, 67, 65
1, 201545, Note_on_c, 0, 56, 72
1, 201548, Control_c, 0, 64, 54
1, 201561, Note_on_c, 0, 60, 62
1, 201563, Control_c, 0, 64, 56
1, 201563, Control_c, 0, 67, 67
1, 201578, Control_c, 0, 64, 59
1, 201578, Control_c, 0, 67, 68
1, 201593, Control_c, 0, 64, 60
1, 201593, Control_c, 0, 67, 70
1, 201602, Note_off_c, 0, 60, 59
1, 201608, Control_c, 0, 67, 71
1, 201622, Control_c, 0, 67, 72
1, 201624, Note_on_c, 0, 68, 54
1, 201637, Control_c, 0, 67, 73
1, 201666, Note_off_c, 0, 68, 66
1, 201667, Control_c, 0, 67, 73
1, 201682, Control_c, 0, 67, 74
1, 201696, Note_on_c, 0, 66, 49
1, 201696, Control_c, 0, 67, 75
1, 201711, Control_c, 0, 67, 76
1, 201726, Control_c, 0, 64, 60
1, 201726, Control_c, 0, 67, 76
1, 201770, Note_off_c, 0, 66, 54
1, 201782, Note_on_c, 0, 68, 64
1, 201791, Note_on_c, 0, 51, 54
1, 201798, Note_off_c, 0, 56, 53
1, 201800, Control_c, 0, 64, 60
1, 201816, Control_c, 0, 64, 59
1, 201816, Control_c, 0, 67, 77
1, 201827, Note_off_c, 0, 68, 62
1, 201831, Control_c, 0, 64, 57
1, 201853, Control_c, 0, 64, 50
1, 201868, Control_c, 0, 64, 23
1, 201883, Control_c, 0, 64, 0
1, 201898, Control_c, 0, 67, 77
1, 201908, Note_off_c, 0, 51, 55
1, 201934, Note_on_c, 0, 52, 48
1, 201952, Note_on_c, 0, 68, 59
1, 201980, Note_on_c, 0, 61, 45
1, 201986, Control_c, 0, 67, 77
1, 202001, Control_c, 0, 64, 25
1, 202001, Control_c, 0, 67, 76
1, 202011, Note_on_c, 0, 64, 40
1, 202016, Control_c, 0, 64, 35
1, 202016, Control_c, 0, 67, 75
1, 202031, Control_c, 0, 64, 50
1, 202031, Control_c, 0, 67, 74
1, 202045, Control_c, 0, 64, 59
1, 202045, Control_c, 0, 67, 74
1, 202053, Note_off_c, 0, 52, 60
1, 202060, Control_c, 0, 64, 64
1, 202060, Control_c, 0, 67, 73
1, 202075, Control_c, 0, 64, 69
1, 202075, Control_c, 0, 67, 71
1, 202084, Note_off_c, 0, 61, 62
1, 202090, Control_c, 0, 64, 73
1, 202090, Control_c, 0, 67, 71
1, 202094, Note_on_c, 0, 56, 31
1, 202094, Note_off_c, 0, 64, 63
1, 202105, Control_c, 0, 64, 77
1, 202119, Control_c, 0, 64, 79
1, 202123, Note_off_c, 0, 68, 65
1, 202134, Control_c, 0, 64, 80
1, 202134, Control_c, 0, 67, 71
1, 202146, Note_off_c, 0, 56, 45
1, 202149, Control_c, 0, 64, 81
1, 202164, Control_c, 0, 64, 82
1, 202179, Control_c, 0, 64, 82
1, 202179, Control_c, 0, 67, 72
1, 202185, Note_on_c, 0, 52, 48
1, 202194, Control_c, 0, 64, 83
1, 202194, Control_c, 0, 67, 72
1, 202209, Control_c, 0, 64, 84
1, 202224, Control_c, 0, 64, 84
1, 202224, Control_c, 0, 67, 73
1, 202229, Note_off_c, 0, 52, 59
1, 202253, Control_c, 0, 67, 72
1, 202259, Note_on_c, 0, 56, 43
1, 202268, Control_c, 0, 64, 85
1, 202297, Control_c, 0, 67, 73
1, 202306, Note_off_c, 0, 56, 59
1, 202312, Control_c, 0, 64, 84
1, 202327, Control_c, 0, 64, 81
1, 202327, Control_c, 0, 67, 73
1, 202332, Note_on_c, 0, 52, 49
1, 202332, Note_on_c, 0, 80, 73
1, 202342, Control_c, 0, 64, 75
1, 202357, Control_c, 0, 64, 68
1, 202357, Control_c, 0, 67, 73
1, 202360, Note_on_c, 0, 68, 56
1, 202371, Control_c, 0, 64, 61
1, 202371, Control_c, 0, 67, 72
1, 202386, Control_c, 0, 64, 56
1, 202387, Note_off_c, 0, 52, 59
1, 202401, Control_c, 0, 64, 59
1, 202401, Control_c, 0, 67, 72
1, 202416, Note_on_c, 0, 56, 44
1, 202416, Control_c, 0, 64, 64
1, 202431, Control_c, 0, 64, 67
1, 202445, Control_c, 0, 64, 72
1, 202460, Control_c, 0, 64, 76
1, 202460, Control_c, 0, 67, 71
1, 202462, Note_off_c, 0, 56, 60
1, 202473, Note_off_c, 0, 80, 63
1, 202475, Control_c, 0, 64, 78
1, 202490, Control_c, 0, 64, 79
1, 202490, Control_c, 0, 67, 71
1, 202504, Control_c, 0, 64, 80
1, 202504, Control_c, 0, 67, 70
1, 202516, Note_on_c, 0, 52, 47
1, 202519, Control_c, 0, 64, 80
1, 202534, Control_c, 0, 64, 82
1, 202534, Control_c, 0, 67, 70
1, 202549, Control_c, 0, 64, 83
1, 202550, Note_off_c, 0, 52, 59
1, 202564, Control_c, 0, 64, 85
1, 202572, Note_on_c, 0, 56, 46
1, 202578, Control_c, 0, 64, 86
1, 202601, Control_c, 0, 64, 87
1, 202616, Control_c, 0, 64, 87
1, 202616, Control_c, 0, 67, 69
1, 202624, Note_off_c, 0, 56, 54
1, 202632, Control_c, 0, 64, 88
1, 202645, Note_on_c, 0, 52, 57
1, 202647, Control_c, 0, 64, 88
1, 202662, Control_c, 0, 64, 89
1, 202676, Control_c, 0, 64, 90
1, 202691, Control_c, 0, 64, 91
1, 202699, Note_off_c, 0, 52, 56
1, 202706, Control_c, 0, 64, 92
1, 202721, Control_c, 0, 64, 92
1, 202724, Note_on_c, 0, 56, 51
1, 202736, Control_c, 0, 64, 93
1, 202750, Control_c, 0, 64, 94
1, 202750, Control_c, 0, 67, 69
1, 202765, Control_c, 0, 64, 95
1, 202766, Note_off_c, 0, 56, 59
1, 202780, Control_c, 0, 64, 96
1, 202780, Control_c, 0, 67, 68
1, 202794, Control_c, 0, 64, 96
1, 202809, Control_c, 0, 64, 97
1, 202809, Control_c, 0, 67, 68
1, 202814, Note_on_c, 0, 52, 42
1, 202824, Control_c, 0, 64, 97
1, 202824, Control_c, 0, 67, 67
1, 202839, Control_c, 0, 64, 98
1, 202839, Control_c, 0, 67, 66
1, 202840, Note_off_c, 0, 52, 61
1, 202854, Control_c, 0, 64, 98
1, 202854, Control_c, 0, 67, 64
1, 202860, Note_on_c, 0, 56, 59
1, 202868, Control_c, 0, 64, 99
1, 202868, Control_c, 0, 67, 62
1, 202883, Control_c, 0, 64, 99
1, 202883, Control_c, 0, 67, 59
1, 202898, Control_c, 0, 64, 100
1, 202898, Control_c, 0, 67, 53
1, 202903, Note_off_c, 0, 68, 63
1, 202904, Note_off_c, 0, 56, 58
1, 202913, Control_c, 0, 64, 100
1, 202913, Control_c, 0, 67, 46
1, 202921, Note_on_c, 0, 52, 53
1, 202927, Control_c, 0, 64, 101
1, 202927, Control_c, 0, 67, 39
1, 202937, Note_on_c, 0, 76, 77
1, 202942, Control_c, 0, 64, 101
1, 202942, Control_c, 0, 67, 36
1, 202954, Note_on_c, 0, 64, 60
1, 202957, Control_c, 0, 64, 102
1, 202957, Control_c, 0, 67, 36
1, 202972, Note_off_c, 0, 52, 63
1, 202972, Control_c, 0, 64, 102
1, 202982, Note_off_c, 0, 64, 62
1, 202987, Control_c, 0, 64, 103
1, 202987, Control_c, 0, 67, 36
1, 202998, Note_off_c, 0, 76, 60
1, 203001, Note_on_c, 0, 56, 57
1, 203013, Poly_aftertouch_c, 0, 49, 127
1, 203016, Control_c, 0, 64, 103
1, 203016, Control_c, 0, 67, 37
1, 203031, Control_c, 0, 67, 38
1, 203046, Control_c, 0, 67, 39
1, 203047, Note_off_c, 0, 56, 50
1, 203061, Control_c, 0, 67, 40
1, 203076, Control_c, 0, 67, 40
1, 203090, Note_on_c, 0, 52, 49
1, 203106, Control_c, 0, 67, 41
1, 203120, Control_c, 0, 67, 41
1, 203150, Control_c, 0, 67, 42
1, 203174, Note_off_c, 0, 52, 57
1, 203180, Control_c, 0, 67, 42
1, 203186, Note_on_c, 0, 73, 73
1, 203192, Note_on_c, 0, 56, 42
1, 203194, Control_c, 0, 67, 43
1, 203198, Note_on_c, 0, 61, 56
1, 203209, Control_c, 0, 67, 43
1, 203213, Note_off_c, 0, 73, 64
1, 203221, Note_off_c, 0, 61, 59
1, 203239, Control_c, 0, 64, 101
1, 203254, Control_c, 0, 64, 97
1, 203268, Control_c, 0, 64, 89
1, 203268, Control_c, 0, 67, 44
1, 203283, Control_c, 0, 64, 75
1, 203294, Note_off_c, 0, 56, 47
1, 203295, Note_on_c, 0, 73, 68
1, 203298, Control_c, 0, 64, 55
1, 203308, Note_on_c, 0, 61, 49
1, 203313, Control_c, 0, 64, 0
1, 203313, Control_c, 0, 67, 43
1, 203315, Note_on_c, 0, 54, 49
1, 203349, Poly_aftertouch_c, 0, 49, 0
1, 203380, Control_c, 0, 64, 44
1, 203380, Control_c, 0, 67, 43
1, 203395, Control_c, 0, 64, 59
1, 203409, Control_c, 0, 64, 63
1, 203410, Note_off_c, 0, 54, 60
1, 203422, Note_on_c, 0, 56, 46
1, 203425, Control_c, 0, 64, 64
1, 203440, Control_c, 0, 64, 64
1, 203440, Control_c, 0, 67, 42
1, 203455, Control_c, 0, 64, 67
1, 203468, Note_off_c, 0, 56, 60
1, 203470, Control_c, 0, 64, 71
1, 203484, Control_c, 0, 64, 75
1, 203499, Control_c, 0, 64, 79
1, 203514, Control_c, 0, 64, 81
1, 203514, Control_c, 0, 67, 41
1, 203514, Note_on_c, 0, 54, 45
1, 203528, Note_off_c, 0, 61, 61
1, 203529, Control_c, 0, 64, 82
1, 203543, Control_c, 0, 64, 82
1, 203543, Control_c, 0, 67, 41
1, 203562, Note_off_c, 0, 54, 56
1, 203574, Control_c, 0, 64, 83
1, 203583, Note_on_c, 0, 56, 44
1, 203589, Control_c, 0, 64, 84
1, 203601, Note_off_c, 0, 73, 39
1, 203604, Control_c, 0, 64, 86
1, 203618, Control_c, 0, 64, 86
1, 203618, Control_c, 0, 67, 41
1, 203632, Note_off_c, 0, 56, 57
1, 203648, Control_c, 0, 64, 86
1, 203654, Note_on_c, 0, 72, 58
1, 203662, Note_on_c, 0, 54, 50
1, 203663, Control_c, 0, 64, 79
1, 203678, Control_c, 0, 64, 69
1, 203679, Note_on_c, 0, 60, 35
1, 203692, Control_c, 0, 64, 55
1, 203707, Control_c, 0, 64, 0
1, 203720, Note_off_c, 0, 54, 58
1, 203722, Control_c, 0, 67, 41
1, 203737, Control_c, 0, 64, 28
1, 203747, Note_on_c, 0, 56, 39
1, 203751, Control_c, 0, 64, 55
1, 203766, Control_c, 0, 64, 64
1, 203781, Control_c, 0, 64, 70
1, 203788, Note_off_c, 0, 56, 55
1, 203796, Control_c, 0, 64, 76
1, 203796, Control_c, 0, 67, 40
1, 203811, Control_c, 0, 64, 80
1, 203825, Control_c, 0, 64, 82
1, 203825, Control_c, 0, 67, 40
1, 203840, Control_c, 0, 64, 83
1, 203840, Control_c, 0, 67, 39
1, 203847, Note_on_c, 0, 54, 34
1, 203855, Control_c, 0, 64, 84
1, 203860, Note_off_c, 0, 72, 40
1, 203870, Control_c, 0, 64, 85
1, 203870, Control_c, 0, 67, 39
1, 203883, Note_on_c, 0, 56, 54
1, 203884, Note_off_c, 0, 54, 54
1, 203885, Control_c, 0, 64, 87
1, 203899, Control_c, 0, 64, 90
1, 203899, Control_c, 0, 67, 38
1, 203914, Control_c, 0, 64, 91
1, 203914, Control_c, 0, 67, 38
1, 203918, Note_off_c, 0, 60, 38
1, 203923, Note_off_c, 0, 56, 61
1, 203929, Control_c, 0, 64, 92
1, 203929, Control_c, 0, 67, 37
1, 203943, Control_c, 0, 64, 92
1, 203958, Control_c, 0, 67, 37
1, 203961, Note_on_c, 0, 54, 55
1, 203973, Control_c, 0, 64, 93
1, 203973, Control_c, 0, 67, 36
1, 203988, Control_c, 0, 64, 94
1, 203989, Note_off_c, 0, 54, 63
1, 204003, Control_c, 0, 64, 95
1, 204003, Control_c, 0, 67, 36
1, 204018, Control_c, 0, 64, 96
1, 204018, Note_on_c, 0, 56, 53
1, 204033, Control_c, 0, 64, 96
1, 204048, Control_c, 0, 64, 97
1, 204053, Note_off_c, 0, 56, 64
1, 204063, Control_c, 0, 64, 97
1, 204072, Note_on_c, 0, 54, 58
1, 204078, Control_c, 0, 64, 98
1, 204078, Control_c, 0, 67, 35
1, 204099, Control_c, 0, 64, 99
1, 204112, Note_on_c, 0, 72, 71
1, 204114, Note_off_c, 0, 54, 63
1, 204114, Control_c, 0, 64, 101
1, 204116, Note_on_c, 0, 60, 57
1, 204129, Control_c, 0, 64, 103
1, 204138, Note_off_c, 0, 60, 61
1, 204143, Note_on_c, 0, 56, 60
1, 204144, Control_c, 0, 64, 105
1, 204144, Control_c, 0, 67, 36
1, 204155, Note_off_c, 0, 72, 61
1, 204158, Control_c, 0, 64, 108
1, 204173, Control_c, 0, 64, 115
1, 204173, Control_c, 0, 67, 36
1, 204188, Control_c, 0, 64, 127
1, 204191, Note_off_c, 0, 56, 58
1, 204218, Control_c, 0, 67, 37
1, 204224, Note_on_c, 0, 54, 57
1, 204251, Note_off_c, 0, 54, 66
1, 204280, Note_on_c, 0, 80, 72
1, 204280, Note_on_c, 0, 68, 71
1, 204283, Note_on_c, 0, 56, 55
1, 204303, Note_off_c, 0, 80, 71
1, 204306, Note_off_c, 0, 68, 70
1, 204308, Control_c, 0, 67, 36
1, 204317, Note_off_c, 0, 56, 62
1, 204322, Control_c, 0, 67, 36
1, 204331, Note_on_c, 0, 54, 55
1, 204337, Control_c, 0, 67, 35
1, 204369, Note_off_c, 0, 54, 64
1, 204406, Note_on_c, 0, 56, 54
1, 204456, Control_c, 0, 67, 35
1, 204471, Control_c, 0, 67, 34
1, 204492, Note_on_c, 0, 72, 76
1, 204500, Control_c, 0, 67, 35
1, 204503, Note_on_c, 0, 60, 58
1, 204508, Note_on_c, 0, 54, 27
1, 204515, Control_c, 0, 67, 37
1, 204516, Note_off_c, 0, 72, 67
1, 204516, Poly_aftertouch_c, 0, 49, 127
1, 204525, Note_off_c, 0, 60, 62
1, 204530, Control_c, 0, 67, 38
1, 204545, Control_c, 0, 67, 39
1, 204560, Control_c, 0, 64, 122
1, 204560, Control_c, 0, 67, 40
1, 204568, Note_off_c, 0, 54, 53
1, 204574, Control_c, 0, 64, 91
1, 204574, Control_c, 0, 67, 41
1, 204577, Note_off_c, 0, 56, 30
1, 204584, Note_on_c, 0, 52, 57
1, 204589, Control_c, 0, 64, 68
1, 204589, Control_c, 0, 67, 41
1, 204599, Note_on_c, 0, 75, 75
1, 204604, Control_c, 0, 64, 37
1, 204604, Control_c, 0, 67, 42
1, 204609, Note_on_c, 0, 63, 58
1, 204619, Control_c, 0, 64, 0
1, 204631, Poly_aftertouch_c, 0, 49, 0
1, 204648, Control_c, 0, 64, 38
1, 204663, Control_c, 0, 64, 61
1, 204663, Control_c, 0, 67, 41
1, 204666, Note_off_c, 0, 52, 62
1, 204678, Control_c, 0, 64, 69
1, 204678, Control_c, 0, 67, 41
1, 204683, Note_on_c, 0, 56, 54
1, 204692, Control_c, 0, 64, 75
1, 204692, Control_c, 0, 67, 40
1, 204707, Control_c, 0, 64, 77
1, 204722, Control_c, 0, 64, 78
1, 204722, Control_c, 0, 67, 40
1, 204727, Note_off_c, 0, 56, 60
1, 204737, Control_c, 0, 64, 80
1, 204737, Control_c, 0, 67, 39
1, 204752, Control_c, 0, 64, 83
1, 204752, Control_c, 0, 67, 39
1, 204757, Note_on_c, 0, 52, 47
1, 204763, Note_off_c, 0, 63, 59
1, 204766, Control_c, 0, 64, 87
1, 204781, Control_c, 0, 64, 91
1, 204796, Control_c, 0, 64, 93
1, 204802, Note_off_c, 0, 52, 61
1, 204841, Note_on_c, 0, 56, 54
1, 204848, Control_c, 0, 64, 93
1, 204863, Control_c, 0, 64, 94
1, 204878, Control_c, 0, 64, 95
1, 204880, Note_off_c, 0, 56, 61
1, 204892, Control_c, 0, 67, 39
1, 204898, Note_on_c, 0, 52, 57
1, 204907, Control_c, 0, 64, 94
1, 204922, Control_c, 0, 64, 86
1, 204923, Note_on_c, 0, 73, 61
1, 204933, Note_on_c, 0, 61, 47
1, 204937, Control_c, 0, 64, 73
1, 204937, Control_c, 0, 67, 39
1, 204952, Control_c, 0, 64, 59
1, 204966, Note_off_c, 0, 52, 59
1, 204967, Control_c, 0, 64, 26
1, 204967, Control_c, 0, 67, 38
1, 204975, Note_on_c, 0, 56, 49
1, 204981, Control_c, 0, 64, 35
1, 204981, Control_c, 0, 67, 38
1, 204987, Note_off_c, 0, 75, 55
1, 204996, Control_c, 0, 64, 55
1, 204996, Control_c, 0, 67, 37
1, 205011, Control_c, 0, 64, 65
1, 205026, Note_off_c, 0, 56, 59
1, 205027, Control_c, 0, 64, 73
1, 205027, Control_c, 0, 67, 38
1, 205042, Control_c, 0, 64, 80
1, 205057, Control_c, 0, 64, 83
1, 205063, Note_on_c, 0, 52, 54
1, 205110, Note_off_c, 0, 52, 60
1, 205116, Control_c, 0, 64, 82
1, 205116, Control_c, 0, 67, 37
1, 205124, Note_on_c, 0, 56, 57
1, 205131, Control_c, 0, 64, 78
1, 205145, Control_c, 0, 64, 71
1, 205145, Control_c, 0, 67, 37
1, 205160, Control_c, 0, 64, 65
1, 205160, Control_c, 0, 67, 36
1, 205168, Note_off_c, 0, 56, 61
1, 205175, Control_c, 0, 64, 63
1, 205190, Control_c, 0, 64, 65
1, 205190, Control_c, 0, 67, 36
1, 205193, Note_off_c, 0, 73, 55
1, 205201, Note_on_c, 0, 52, 59
1, 205204, Control_c, 0, 64, 68
1, 205204, Control_c, 0, 67, 35
1, 205219, Control_c, 0, 64, 70
1, 205234, Control_c, 0, 64, 72
1, 205241, Note_off_c, 0, 61, 36
1, 205247, Note_off_c, 0, 52, 59
1, 205249, Control_c, 0, 64, 73
1, 205264, Control_c, 0, 64, 74
1, 205277, Note_on_c, 0, 56, 58
1, 205309, Control_c, 0, 64, 74
1, 205318, Note_off_c, 0, 56, 63
1, 205323, Control_c, 0, 64, 75
1, 205336, Note_on_c, 0, 73, 73
1, 205337, Note_on_c, 0, 61, 61
1, 205338, Control_c, 0, 64, 78
1, 205352, Note_on_c, 0, 52, 62
1, 205353, Control_c, 0, 64, 83
1, 205361, Note_off_c, 0, 61, 65
1, 205368, Control_c, 0, 64, 87
1, 205368, Control_c, 0, 67, 34
1, 205383, Note_off_c, 0, 52, 65
1, 205383, Control_c, 0, 64, 91
1, 205383, Control_c, 0, 67, 34
1, 205386, Note_off_c, 0, 73, 60
1, 205397, Control_c, 0, 64, 93
1, 205397, Control_c, 0, 67, 30
1, 205404, Note_on_c, 0, 56, 61
1, 205412, Control_c, 0, 64, 94
1, 205412, Control_c, 0, 67, 24
1, 205427, Control_c, 0, 64, 94
1, 205427, Control_c, 0, 67, 18
1, 205442, Control_c, 0, 64, 96
1, 205442, Control_c, 0, 67, 15
1, 205451, Note_off_c, 0, 56, 56
1, 205457, Control_c, 0, 64, 98
1, 205457, Control_c, 0, 67, 14
1, 205471, Control_c, 0, 64, 101
1, 205471, Control_c, 0, 67, 14
1, 205475, Note_on_c, 0, 52, 65
1, 205486, Control_c, 0, 64, 104
1, 205496, Note_on_c, 0, 68, 81
1, 205496, Note_on_c, 0, 80, 80
1, 205501, Control_c, 0, 64, 106
1, 205506, Note_off_c, 0, 52, 64
1, 205515, Note_off_c, 0, 80, 73
1, 205515, Control_c, 0, 64, 107
1, 205517, Note_off_c, 0, 68, 70
1, 205530, Control_c, 0, 64, 108
1, 205545, Control_c, 0, 64, 112
1, 205548, Note_on_c, 0, 56, 62
1, 205560, Control_c, 0, 64, 119
1, 205575, Control_c, 0, 64, 127
1, 205577, Note_off_c, 0, 56, 60
1, 205611, Note_on_c, 0, 52, 53
1, 205663, Note_off_c, 0, 52, 45
1, 205673, Note_on_c, 0, 56, 53
1, 205715, Control_c, 0, 67, 15
1, 205722, Note_on_c, 0, 73, 75
1, 205729, Note_on_c, 0, 61, 65
1, 205730, Control_c, 0, 67, 16
1, 205744, Note_off_c, 0, 73, 69
1, 205745, Control_c, 0, 67, 16
1, 205748, Note_off_c, 0, 61, 65
1, 205775, Control_c, 0, 64, 100
1, 205775, Control_c, 0, 67, 17
1, 205786, Note_off_c, 0, 56, 49
1, 205789, Control_c, 0, 64, 76
1, 205789, Control_c, 0, 67, 18
1, 205804, Control_c, 0, 64, 53
1, 205813, Note_on_c, 0, 48, 61
1, 205819, Control_c, 0, 64, 0
1, 205819, Control_c, 0, 67, 19
1, 205827, Note_on_c, 0, 76, 76
1, 205845, Note_on_c, 0, 64, 65
1, 205864, Control_c, 0, 64, 56
1, 205879, Control_c, 0, 64, 66
1, 205893, Control_c, 0, 64, 72
1, 205908, Control_c, 0, 64, 75
1, 205912, Note_on_c, 0, 56, 52
1, 205923, Note_off_c, 0, 48, 58
1, 205923, Control_c, 0, 64, 76
1, 205953, Control_c, 0, 64, 77
1, 205968, Control_c, 0, 64, 79
1, 205982, Control_c, 0, 64, 81
1, 205984, Note_off_c, 0, 64, 64
1, 205994, Note_off_c, 0, 56, 49
1, 205997, Control_c, 0, 64, 81
1, 205997, Control_c, 0, 67, 20
1, 205998, Note_on_c, 0, 48, 40
1, 206012, Control_c, 0, 67, 20
1, 206042, Control_c, 0, 64, 80
1, 206057, Control_c, 0, 64, 79
1, 206085, Note_on_c, 0, 56, 46
1, 206096, Note_off_c, 0, 48, 0
1, 206116, Control_c, 0, 64, 78
1, 206129, Note_off_c, 0, 56, 56
1, 206131, Control_c, 0, 64, 76
1, 206131, Control_c, 0, 67, 21
1, 206133, Poly_aftertouch_c, 0, 48, 127
1, 206137, Note_on_c, 0, 48, 25
1, 206145, Note_on_c, 0, 75, 62
1, 206145, Control_c, 0, 64, 72
1, 206145, Control_c, 0, 67, 21
1, 206160, Control_c, 0, 64, 70
1, 206164, Note_on_c, 0, 63, 45
1, 206175, Control_c, 0, 64, 70
1, 206189, Note_off_c, 0, 76, 60
1, 206190, Control_c, 0, 64, 72
1, 206205, Control_c, 0, 64, 74
1, 206220, Note_off_c, 0, 48, 58
1, 206232, Note_on_c, 0, 56, 57
1, 206234, Control_c, 0, 64, 73
1, 206264, Control_c, 0, 64, 74
1, 206272, Note_off_c, 0, 56, 60
1, 206279, Control_c, 0, 64, 76
1, 206285, Note_on_c, 0, 48, 43
1, 206293, Control_c, 0, 64, 80
1, 206308, Control_c, 0, 64, 81
1, 206323, Control_c, 0, 64, 79
1, 206345, Control_c, 0, 64, 75
1, 206359, Note_off_c, 0, 48, 61
1, 206360, Control_c, 0, 64, 69
1, 206360, Control_c, 0, 67, 20
1, 206373, Note_on_c, 0, 56, 62
1, 206375, Control_c, 0, 64, 64
1, 206375, Control_c, 0, 67, 20
1, 206390, Control_c, 0, 64, 62
1, 206390, Control_c, 0, 67, 19
1, 206405, Control_c, 0, 64, 65
1, 206405, Control_c, 0, 67, 19
1, 206415, Note_off_c, 0, 56, 57
1, 206419, Control_c, 0, 64, 70
1, 206430, Note_on_c, 0, 48, 62
1, 206434, Control_c, 0, 64, 75
1, 206449, Control_c, 0, 64, 78
1, 206456, Note_off_c, 0, 63, 58
1, 206463, Control_c, 0, 64, 78
1, 206471, Note_off_c, 0, 75, 48
1, 206500, Note_off_c, 0, 48, 62
1, 206505, Note_on_c, 0, 56, 65
1, 206537, Control_c, 0, 64, 76
1, 206537, Control_c, 0, 67, 19
1, 206552, Note_off_c, 0, 56, 58
1, 206553, Control_c, 0, 64, 74
1, 206553, Control_c, 0, 67, 20
1, 206564, Note_on_c, 0, 63, 64
1, 206568, Control_c, 0, 64, 73
1, 206568, Control_c, 0, 67, 20
1, 206570, Note_on_c, 0, 48, 56
1, 206576, Note_on_c, 0, 75, 64
1, 206583, Control_c, 0, 64, 74
1, 206588, Note_off_c, 0, 63, 64
1, 206598, Control_c, 0, 64, 76
1, 206598, Control_c, 0, 67, 20
1, 206607, Note_off_c, 0, 75, 63
1, 206614, Control_c, 0, 64, 78
1, 206614, Control_c, 0, 67, 19
1, 206629, Control_c, 0, 64, 79
1, 206629, Control_c, 0, 67, 19
1, 206637, Note_off_c, 0, 48, 60
1, 206643, Control_c, 0, 67, 18
1, 206647, Note_on_c, 0, 56, 64
1, 206658, Control_c, 0, 67, 18
1, 206686, Note_off_c, 0, 56, 58
1, 206688, Control_c, 0, 64, 80
1, 206702, Note_on_c, 0, 48, 49
1, 206703, Control_c, 0, 64, 82
1, 206703, Control_c, 0, 67, 17
1, 206717, Note_on_c, 0, 68, 67
1, 206717, Control_c, 0, 64, 85
1, 206725, Note_on_c, 0, 80, 54
1, 206732, Control_c, 0, 64, 87
1, 206738, Note_off_c, 0, 68, 63
1, 206745, Note_off_c, 0, 80, 61
1, 206747, Note_off_c, 0, 48, 59
1, 206747, Control_c, 0, 64, 87
1, 206761, Control_c, 0, 64, 88
1, 206769, Note_on_c, 0, 56, 63
1, 206776, Control_c, 0, 64, 89
1, 206791, Control_c, 0, 64, 90
1, 206806, Control_c, 0, 64, 93
1, 206821, Note_off_c, 0, 56, 52
1, 206821, Control_c, 0, 64, 97
1, 206835, Control_c, 0, 64, 102
1, 206835, Control_c, 0, 67, 17
1, 206844, Note_on_c, 0, 48, 57
1, 206850, Control_c, 0, 64, 111
1, 206850, Control_c, 0, 67, 16
1, 206865, Control_c, 0, 64, 127
1, 206865, Control_c, 0, 67, 15
1, 206916, Note_on_c, 0, 56, 67
1, 206920, Note_off_c, 0, 48, 61
1, 206926, Note_on_c, 0, 75, 69
1, 206939, Control_c, 0, 64, 100
1, 206946, Note_on_c, 0, 63, 30
1, 206952, Note_off_c, 0, 75, 66
1, 206954, Control_c, 0, 64, 80
1, 206969, Control_c, 0, 64, 64
1, 206969, Control_c, 0, 67, 16
1, 206978, Note_off_c, 0, 63, 53
1, 206982, Note_off_c, 0, 56, 59
1, 206984, Control_c, 0, 64, 58
1, 206984, Control_c, 0, 67, 17
1, 206999, Control_c, 0, 64, 62
1, 206999, Control_c, 0, 67, 17
1, 207011, Note_on_c, 0, 78, 81
1, 207013, Note_on_c, 0, 66, 71
1, 207014, Control_c, 0, 64, 69
1, 207014, Control_c, 0, 67, 18
1, 207019, Note_on_c, 0, 49, 56
1, 207029, Control_c, 0, 64, 79
1, 207029, Control_c, 0, 67, 18
1, 207038, Note_off_c, 0, 66, 68
1, 207042, Note_off_c, 0, 78, 56
1, 207043, Control_c, 0, 64, 87
1, 207058, Control_c, 0, 64, 84
1, 207073, Control_c, 0, 64, 76
1, 207094, Control_c, 0, 64, 67
1, 207097, Note_off_c, 0, 49, 62
1, 207101, Note_on_c, 0, 56, 65
1, 207109, Control_c, 0, 64, 57
1, 207109, Control_c, 0, 67, 18
1, 207124, Control_c, 0, 64, 48
1, 207124, Control_c, 0, 67, 16
1, 207139, Control_c, 0, 64, 51
1, 207139, Control_c, 0, 67, 13
1, 207154, Control_c, 0, 64, 57
1, 207154, Control_c, 0, 67, 8
1, 207169, Control_c, 0, 64, 59
1, 207169, Control_c, 0, 67, 0
1, 207179, Note_off_c, 0, 56, 60
1, 207193, Note_on_c, 0, 76, 42
1, 207195, Note_on_c, 0, 49, 71
1, 207199, Control_c, 0, 64, 58
1, 207214, Control_c, 0, 64, 58
1, 207226, Note_off_c, 0, 76, 55
1, 207228, Note_off_c, 0, 49, 64
1, 207228, Control_c, 0, 64, 58
1, 207243, Control_c, 0, 64, 59
1, 207258, Control_c, 0, 64, 60
1, 207262, Note_on_c, 0, 56, 66
1, 207273, Control_c, 0, 64, 61
1, 207288, Control_c, 0, 64, 61
1, 207302, Control_c, 0, 64, 62
1, 207308, Note_off_c, 0, 56, 60
1, 207317, Note_on_c, 0, 49, 66
1, 207327, Note_on_c, 0, 73, 45
1, 207332, Control_c, 0, 64, 62
1, 207345, Note_off_c, 0, 49, 64
1, 207347, Control_c, 0, 64, 63
1, 207357, Note_off_c, 0, 73, 36
1, 207362, Control_c, 0, 64, 64
1, 207386, Note_on_c, 0, 56, 69
1, 207391, Control_c, 0, 64, 64
1, 207422, Control_c, 0, 64, 65
1, 207425, Note_off_c, 0, 56, 67
1, 207426, Note_on_c, 0, 49, 58
1, 207437, Control_c, 0, 64, 67
1, 207452, Control_c, 0, 64, 68
1, 207466, Control_c, 0, 64, 67
1, 207467, Note_on_c, 0, 76, 56
1, 207481, Control_c, 0, 64, 58
1, 207489, Note_off_c, 0, 76, 61
1, 207493, Note_on_c, 0, 64, 10
1, 207496, Control_c, 0, 64, 0
1, 207507, Note_on_c, 0, 56, 40
1, 207528, Note_off_c, 0, 56, 62
1, 207542, Note_off_c, 0, 64, 27
1, 207555, Control_c, 0, 64, 40
1, 207557, Note_off_c, 0, 49, 59
1, 207565, Note_on_c, 0, 47, 70
1, 207570, Control_c, 0, 64, 62
1, 207584, Control_c, 0, 64, 70
1, 207592, Note_on_c, 0, 66, 85
1, 207592, Note_on_c, 0, 78, 85
1, 207599, Control_c, 0, 64, 79
1, 207614, Control_c, 0, 64, 88
1, 207629, Control_c, 0, 64, 94
1, 207631, Note_off_c, 0, 47, 63
1, 207644, Control_c, 0, 64, 96
1, 207660, Note_on_c, 0, 49, 74
1, 207667, Note_off_c, 0, 66, 61
1, 207682, Note_off_c, 0, 78, 62
1, 207688, Control_c, 0, 64, 95
1, 207739, Note_off_c, 0, 49, 60
1, 207743, Note_on_c, 0, 65, 71
1, 207743, Note_on_c, 0, 77, 78
1, 207747, Note_on_c, 0, 47, 67
1, 207747, Control_c, 0, 64, 94
1, 207762, Note_off_c, 0, 65, 64
1, 207762, Control_c, 0, 64, 90
1, 207771, Note_off_c, 0, 77, 65
1, 207777, Control_c, 0, 64, 79
1, 207792, Control_c, 0, 64, 64
1, 207807, Control_c, 0, 64, 20
1, 207820, Note_off_c, 0, 47, 63
1, 207822, Control_c, 0, 64, 0
1, 207841, Note_on_c, 0, 49, 62
1, 207873, Control_c, 0, 64, 27
1, 207881, Note_on_c, 0, 73, 89
1, 207883, Note_on_c, 0, 85, 82
1, 207888, Control_c, 0, 64, 31
1, 207894, Note_off_c, 0, 49, 60
1, 207900, Note_off_c, 0, 73, 70
1, 207902, Note_off_c, 0, 85, 72
1, 207910, Note_on_c, 0, 47, 57
1, 207917, Control_c, 0, 64, 32
1, 207932, Control_c, 0, 64, 36
1, 207941, Note_off_c, 0, 47, 62
1, 207947, Control_c, 0, 64, 42
1, 207962, Control_c, 0, 64, 45
1, 207967, Note_on_c, 0, 49, 69
1, 208017, Note_on_c, 0, 77, 85
1, 208019, Note_on_c, 0, 65, 84
1, 208024, Note_on_c, 0, 47, 66
1, 208024, Note_off_c, 0, 49, 62
1, 208036, Control_c, 0, 64, 44
1, 208042, Note_off_c, 0, 65, 69
1, 208042, Note_off_c, 0, 77, 66
1, 208051, Control_c, 0, 64, 26
1, 208066, Control_c, 0, 64, 0
1, 208111, Note_on_c, 0, 49, 67
1, 208112, Note_off_c, 0, 47, 63
1, 208156, Note_on_c, 0, 80, 90
1, 208165, Note_on_c, 0, 68, 77
1, 208170, Control_c, 0, 64, 62
1, 208171, Note_on_c, 0, 45, 21
1, 208185, Control_c, 0, 64, 69
1, 208199, Control_c, 0, 64, 75
1, 208215, Control_c, 0, 64, 78
1, 208217, Note_off_c, 0, 45, 51
1, 208221, Note_off_c, 0, 68, 64
1, 208230, Control_c, 0, 64, 79
1, 208245, Control_c, 0, 64, 79
1, 208267, Note_off_c, 0, 49, 62
1, 208267, Note_off_c, 0, 80, 63
1, 208269, Note_on_c, 0, 45, 60
1, 208275, Control_c, 0, 64, 80
1, 208289, Control_c, 0, 64, 81
1, 208304, Control_c, 0, 64, 84
1, 208305, Note_on_c, 0, 66, 83
1, 208310, Note_on_c, 0, 78, 82
1, 208319, Control_c, 0, 64, 86
1, 208328, Note_off_c, 0, 66, 68
1, 208333, Control_c, 0, 64, 86
1, 208335, Note_on_c, 0, 49, 68
1, 208340, Note_off_c, 0, 45, 64
1, 208359, Note_off_c, 0, 78, 61
1, 208378, Control_c, 0, 64, 85
1, 208393, Control_c, 0, 64, 81
1, 208405, Note_off_c, 0, 49, 61
1, 208407, Control_c, 0, 64, 77
1, 208418, Note_on_c, 0, 45, 67
1, 208422, Control_c, 0, 64, 75
1, 208437, Control_c, 0, 64, 74
1, 208444, Note_on_c, 0, 73, 91
1, 208448, Note_on_c, 0, 85, 86
1, 208456, Note_off_c, 0, 45, 63
1, 208463, Note_off_c, 0, 73, 70
1, 208465, Note_on_c, 0, 49, 73
1, 208466, Note_off_c, 0, 85, 73
1, 208467, Control_c, 0, 64, 74
1, 208481, Control_c, 0, 64, 73
1, 208496, Control_c, 0, 64, 73
1, 208522, Note_off_c, 0, 49, 63
1, 208527, Note_on_c, 0, 45, 74
1, 208570, Note_on_c, 0, 66, 83
1, 208574, Note_on_c, 0, 78, 86
1, 208593, Control_c, 0, 64, 73
1, 208595, Note_on_c, 0, 49, 79
1, 208606, Note_off_c, 0, 66, 66
1, 208608, Control_c, 0, 64, 74
1, 208619, Note_off_c, 0, 45, 55
1, 208622, Control_c, 0, 64, 72
1, 208635, Note_off_c, 0, 78, 64
1, 208637, Control_c, 0, 64, 61
1, 208652, Control_c, 0, 64, 0
1, 208661, Note_off_c, 0, 49, 63
1, 208700, Note_on_c, 0, 41, 78
1, 208715, Note_on_c, 0, 81, 94
1, 208722, Note_on_c, 0, 69, 91
1, 208726, Control_c, 0, 64, 52
1, 208740, Control_c, 0, 64, 65
1, 208755, Control_c, 0, 64, 70
1, 208770, Note_off_c, 0, 69, 66
1, 208770, Control_c, 0, 64, 74
1, 208779, Note_on_c, 0, 49, 70
1, 208785, Control_c, 0, 64, 75
1, 208796, Note_off_c, 0, 41, 62
1, 208813, Control_c, 0, 64, 76
1, 208828, Control_c, 0, 64, 78
1, 208841, Note_off_c, 0, 81, 62
1, 208843, Control_c, 0, 64, 79
1, 208856, Note_off_c, 0, 49, 57
1, 208858, Control_c, 0, 64, 81
1, 208868, Note_on_c, 0, 68, 82
1, 208870, Note_on_c, 0, 41, 68
1, 208872, Control_c, 0, 64, 83
1, 208875, Note_on_c, 0, 80, 84
1, 208887, Control_c, 0, 64, 85
1, 208897, Note_off_c, 0, 68, 65
1, 208902, Control_c, 0, 64, 87
1, 208917, Control_c, 0, 64, 89
1, 208925, Note_off_c, 0, 80, 65
1, 208932, Control_c, 0, 64, 88
1, 208941, Note_off_c, 0, 41, 62
1, 208946, Note_on_c, 0, 49, 76
1, 208946, Control_c, 0, 64, 80
1, 208961, Control_c, 0, 64, 63
1, 208976, Control_c, 0, 64, 0
1, 209006, Note_off_c, 0, 49, 58
1, 209014, Note_on_c, 0, 41, 71
1, 209020, Note_on_c, 0, 85, 86
1, 209021, Note_on_c, 0, 73, 92
1, 209050, Note_off_c, 0, 73, 63
1, 209051, Control_c, 0, 64, 42
1, 209052, Note_off_c, 0, 85, 62
1, 209066, Control_c, 0, 64, 62
1, 209077, Note_off_c, 0, 41, 61
1, 209081, Control_c, 0, 64, 69
1, 209096, Control_c, 0, 64, 78
1, 209097, Note_on_c, 0, 49, 60
1, 209110, Control_c, 0, 64, 88
1, 209125, Control_c, 0, 64, 95
1, 209127, Note_off_c, 0, 49, 55
1, 209129, Note_on_c, 0, 41, 60
1, 209140, Control_c, 0, 64, 97
1, 209154, Control_c, 0, 64, 98
1, 209158, Note_on_c, 0, 68, 93
1, 209161, Note_on_c, 0, 80, 83
1, 209169, Control_c, 0, 64, 99
1, 209182, Note_off_c, 0, 68, 66
1, 209184, Control_c, 0, 64, 101
1, 209190, Note_on_c, 0, 49, 77
1, 209199, Control_c, 0, 64, 104
1, 209206, Note_off_c, 0, 80, 62
1, 209213, Note_off_c, 0, 41, 62
1, 209214, Control_c, 0, 64, 112
1, 209215, Note_off_c, 0, 49, 66
1, 209229, Control_c, 0, 64, 127
1, 209364, Poly_aftertouch_c, 0, 49, 0
1, 209394, Note_on_c, 0, 81, 91
1, 209399, Note_on_c, 0, 30, 77
1, 209399, Control_c, 0, 64, 104
1, 209402, Note_on_c, 0, 42, 71
1, 209414, Control_c, 0, 64, 74
1, 209415, Note_on_c, 0, 37, 57
1, 209429, Control_c, 0, 64, 0
1, 209488, Control_c, 0, 64, 54
1, 209503, Control_c, 0, 64, 65
1, 209518, Control_c, 0, 64, 70
1, 209533, Control_c, 0, 64, 74
1, 209533, Note_on_c, 0, 78, 74
1, 209548, Control_c, 0, 64, 76
1, 209549, Note_off_c, 0, 81, 55
1, 209562, Control_c, 0, 64, 78
1, 209577, Control_c, 0, 64, 82
1, 209592, Control_c, 0, 64, 86
1, 209607, Control_c, 0, 64, 91
1, 209622, Control_c, 0, 64, 94
1, 209637, Control_c, 0, 64, 96
1, 209638, Note_on_c, 0, 73, 74
1, 209652, Control_c, 0, 64, 97
1, 209660, Note_off_c, 0, 78, 62
1, 209667, Control_c, 0, 64, 99
1, 209681, Control_c, 0, 64, 103
1, 209696, Control_c, 0, 64, 109
1, 209700, Note_off_c, 0, 73, 61
1, 209704, Note_on_c, 0, 69, 71
1, 209711, Control_c, 0, 64, 120
1, 209726, Control_c, 0, 64, 127
1, 209730, Note_off_c, 0, 69, 68
1, 209790, Note_on_c, 0, 66, 73
1, 209864, Note_off_c, 0, 66, 61
1, 209868, Note_on_c, 0, 61, 75
1, 209931, Note_off_c, 0, 61, 63
1, 209934, Control_c, 0, 64, 113
1, 209949, Control_c, 0, 64, 88
1, 209956, Note_on_c, 0, 69, 78
1, 209964, Control_c, 0, 64, 70
1, 209979, Control_c, 0, 64, 50
1, 209993, Control_c, 0, 64, 0
1, 210008, Control_c, 0, 64, 39
1, 210023, Control_c, 0, 64, 62
1, 210038, Control_c, 0, 64, 73
1, 210046, Note_on_c, 0, 66, 70
1, 210050, Note_off_c, 0, 69, 57
1, 210052, Control_c, 0, 64, 87
1, 210067, Control_c, 0, 64, 100
1, 210090, Control_c, 0, 64, 104
1, 210132, Note_on_c, 0, 61, 73
1, 210134, Control_c, 0, 64, 105
1, 210148, Note_off_c, 0, 66, 60
1, 210149, Control_c, 0, 64, 106
1, 210164, Control_c, 0, 64, 108
1, 210179, Control_c, 0, 64, 110
1, 210191, Note_on_c, 0, 57, 76
1, 210192, Note_off_c, 0, 61, 61
1, 210193, Control_c, 0, 64, 111
1, 210208, Control_c, 0, 64, 113
1, 210220, Note_off_c, 0, 57, 67
1, 210223, Control_c, 0, 64, 115
1, 210238, Control_c, 0, 64, 120
1, 210253, Control_c, 0, 64, 127
1, 210279, Note_on_c, 0, 54, 73
1, 210352, Note_off_c, 0, 54, 59
1, 210355, Note_on_c, 0, 49, 75
1, 210435, Note_off_c, 0, 49, 57
1, 210460, Note_on_c, 0, 57, 70
1, 210460, Control_c, 0, 64, 108
1, 210475, Control_c, 0, 64, 80
1, 210490, Control_c, 0, 64, 62
1, 210504, Control_c, 0, 64, 0
1, 210534, Control_c, 0, 64, 12
1, 210537, Note_on_c, 0, 54, 72
1, 210549, Control_c, 0, 64, 59
1, 210554, Note_off_c, 0, 57, 51
1, 210564, Control_c, 0, 64, 72
1, 210578, Control_c, 0, 64, 91
1, 210593, Control_c, 0, 64, 111
1, 210609, Control_c, 0, 64, 127
1, 210609, Note_on_c, 0, 49, 66
1, 210628, Note_off_c, 0, 54, 55
1, 210650, Note_off_c, 0, 49, 63
1, 210655, Note_on_c, 0, 45, 72
1, 210716, Note_off_c, 0, 45, 63
1, 210747, Note_on_c, 0, 49, 57
1, 210769, Note_off_c, 0, 49, 63
1, 210777, Note_on_c, 0, 54, 68
1, 210802, Note_off_c, 0, 54, 67
1, 210863, Note_on_c, 0, 57, 75
1, 210924, Note_off_c, 0, 57, 59
1, 210943, Note_on_c, 0, 61, 72
1, 210987, Note_on_c, 0, 66, 80
1, 210991, Note_off_c, 0, 61, 63
1, 211009, Note_off_c, 0, 66, 70
1, 211072, Note_on_c, 0, 69, 69
1, 211133, Note_on_c, 0, 71, 15
1, 211133, Note_on_c, 0, 73, 67
1, 211135, Note_off_c, 0, 30, 56
1, 211138, Note_off_c, 0, 37, 60
1, 211154, Note_on_c, 0, 74, 66
1, 211165, Note_off_c, 0, 69, 59
1, 211173, Note_off_c, 0, 42, 50
1, 211178, Note_off_c, 0, 71, 52
1, 211184, Note_off_c, 0, 74, 62
1, 211192, Note_on_c, 0, 78, 70
1, 211197, Note_off_c, 0, 73, 63
1, 211238, Note_on_c, 0, 81, 84
1, 211242, Note_off_c, 0, 78, 64
1, 211322, Note_on_c, 0, 78, 86
1, 211383, Note_on_c, 0, 73, 83
1, 211402, Note_off_c, 0, 81, 59
1, 211402, Note_on_c, 0, 30, 62
1, 211429, Note_off_c, 0, 78, 59
1, 211435, Note_on_c, 0, 69, 84
1, 211469, Note_on_c, 0, 38, 73
1, 211475, Note_off_c, 0, 73, 63
1, 211492, Note_off_c, 0, 69, 64
1, 211559, Note_on_c, 0, 42, 78
1, 211565, Control_c, 0, 64, 120
1, 211587, Control_c, 0, 64, 86
1, 211602, Control_c, 0, 64, 64
1, 211610, Note_on_c, 0, 81, 94
1, 211617, Control_c, 0, 64, 0
1, 211661, Control_c, 0, 64, 27
1, 211676, Control_c, 0, 64, 54
1, 211691, Control_c, 0, 64, 62
1, 211706, Control_c, 0, 64, 66
1, 211721, Control_c, 0, 64, 68
1, 211731, Note_on_c, 0, 78, 70
1, 211736, Control_c, 0, 64, 70
1, 211737, Note_off_c, 0, 81, 60
1, 211750, Control_c, 0, 64, 73
1, 211765, Control_c, 0, 64, 77
1, 211780, Control_c, 0, 64, 83
1, 211794, Control_c, 0, 64, 87
1, 211809, Control_c, 0, 64, 91
1, 211823, Note_on_c, 0, 74, 65
1, 211824, Control_c, 0, 64, 92
1, 211825, Note_off_c, 0, 78, 62
1, 211838, Control_c, 0, 64, 92
1, 211853, Control_c, 0, 64, 94
1, 211868, Control_c, 0, 64, 96
1, 211882, Note_off_c, 0, 74, 48
1, 211882, Control_c, 0, 64, 99
1, 211889, Note_on_c, 0, 69, 76
1, 211897, Control_c, 0, 64, 102
1, 211912, Control_c, 0, 64, 107
1, 211927, Control_c, 0, 64, 110
1, 211941, Note_off_c, 0, 69, 66
1, 211942, Control_c, 0, 64, 113
1, 211956, Control_c, 0, 64, 118
1, 211971, Control_c, 0, 64, 127
1, 211988, Note_on_c, 0, 66, 78
1, 212056, Note_on_c, 0, 62, 74
1, 212071, Note_off_c, 0, 66, 58
1, 212149, Note_on_c, 0, 69, 84
1, 212149, Control_c, 0, 64, 112
1, 212151, Note_off_c, 0, 62, 61
1, 212164, Control_c, 0, 64, 85
1, 212179, Control_c, 0, 64, 64
1, 212194, Control_c, 0, 64, 0
1, 212224, Control_c, 0, 64, 9
1, 212239, Control_c, 0, 64, 56
1, 212242, Note_on_c, 0, 66, 70
1, 212242, Note_off_c, 0, 69, 58
1, 212254, Control_c, 0, 64, 67
1, 212269, Control_c, 0, 64, 75
1, 212284, Control_c, 0, 64, 83
1, 212298, Control_c, 0, 64, 86
1, 212313, Control_c, 0, 64, 88
1, 212317, Note_on_c, 0, 62, 70
1, 212330, Note_off_c, 0, 66, 60
1, 212335, Control_c, 0, 64, 89
1, 212350, Control_c, 0, 64, 91
1, 212356, Note_off_c, 0, 62, 66
1, 212365, Control_c, 0, 64, 95
1, 212379, Control_c, 0, 64, 98
1, 212394, Control_c, 0, 64, 101
1, 212397, Note_on_c, 0, 57, 72
1, 212409, Control_c, 0, 64, 102
1, 212424, Control_c, 0, 64, 103
1, 212439, Control_c, 0, 64, 104
1, 212454, Control_c, 0, 64, 106
1, 212468, Note_off_c, 0, 57, 46
1, 212469, Control_c, 0, 64, 110
1, 212484, Control_c, 0, 64, 116
1, 212490, Note_on_c, 0, 54, 70
1, 212499, Control_c, 0, 64, 125
1, 212513, Control_c, 0, 64, 127
1, 212562, Note_on_c, 0, 50, 75
1, 212562, Note_off_c, 0, 54, 62
1, 212633, Note_off_c, 0, 50, 64
1, 212651, Note_on_c, 0, 57, 84
1, 212677, Control_c, 0, 64, 91
1, 212692, Control_c, 0, 64, 68
1, 212706, Control_c, 0, 64, 0
1, 212728, Note_on_c, 0, 54, 71
1, 212746, Note_off_c, 0, 57, 51
1, 212751, Control_c, 0, 64, 53
1, 212766, Control_c, 0, 64, 71
1, 212780, Note_on_c, 0, 50, 78
1, 212780, Control_c, 0, 64, 87
1, 212795, Control_c, 0, 64, 112
1, 212805, Note_off_c, 0, 54, 60
1, 212810, Control_c, 0, 64, 127
1, 212831, Note_off_c, 0, 50, 66
1, 212853, Note_on_c, 0, 45, 80
1, 212897, Note_off_c, 0, 45, 63
1, 212923, Note_on_c, 0, 50, 82
1, 212973, Note_off_c, 0, 50, 66
1, 212989, Note_on_c, 0, 54, 68
1, 213016, Note_off_c, 0, 54, 66
1, 213056, Note_on_c, 0, 57, 80
1, 213131, Note_off_c, 0, 57, 62
1, 213145, Note_on_c, 0, 62, 73
1, 213191, Note_off_c, 0, 62, 61
1, 213274, Poly_aftertouch_c, 0, 66, 127
1, 213275, Note_on_c, 0, 69, 78
1, 213282, Poly_aftertouch_c, 0, 67, 127
1, 213302, Poly_aftertouch_c, 0, 66, 0
1, 213320, Poly_aftertouch_c, 0, 67, 0
1, 213341, Note_on_c, 0, 74, 83
1, 213360, Note_off_c, 0, 38, 60
1, 213363, Note_off_c, 0, 69, 55
1, 213379, Note_off_c, 0, 30, 51
1, 213405, Note_on_c, 0, 78, 81
1, 213410, Note_off_c, 0, 74, 63
1, 213415, Note_off_c, 0, 42, 54
1, 213459, Note_on_c, 0, 81, 86
1, 213459, Note_off_c, 0, 78, 64
1, 213542, Note_on_c, 0, 78, 87
1, 213598, Note_on_c, 0, 74, 74
1, 213602, Note_off_c, 0, 81, 61
1, 213639, Note_off_c, 0, 78, 62
1, 213652, Note_on_c, 0, 31, 76
1, 213653, Note_on_c, 0, 69, 86
1, 213672, Note_off_c, 0, 74, 67
1, 213701, Note_off_c, 0, 69, 64
1, 213724, Note_on_c, 0, 37, 78
1, 213853, Note_on_c, 0, 43, 89
1, 213864, Control_c, 0, 64, 93
1, 213873, Note_on_c, 0, 85, 94
1, 213878, Control_c, 0, 64, 63
1, 213893, Control_c, 0, 64, 0
1, 213938, Control_c, 0, 64, 42
1, 213952, Control_c, 0, 64, 63
1, 213967, Control_c, 0, 64, 71
1, 213982, Control_c, 0, 64, 78
1, 213997, Control_c, 0, 64, 82
1, 213998, Note_on_c, 0, 82, 68
1, 214012, Control_c, 0, 64, 86
1, 214015, Note_off_c, 0, 85, 51
1, 214026, Control_c, 0, 64, 89
1, 214041, Control_c, 0, 64, 94
1, 214056, Control_c, 0, 64, 99
1, 214065, Note_on_c, 0, 79, 78
1, 214071, Control_c, 0, 64, 104
1, 214076, Note_off_c, 0, 82, 61
1, 214085, Control_c, 0, 64, 108
1, 214100, Control_c, 0, 64, 110
1, 214115, Control_c, 0, 64, 112
1, 214119, Note_off_c, 0, 79, 57
1, 214130, Control_c, 0, 64, 115
1, 214141, Note_on_c, 0, 76, 69
1, 214145, Control_c, 0, 64, 127
1, 214181, Note_off_c, 0, 76, 60
1, 214224, Note_on_c, 0, 73, 78
1, 214310, Note_on_c, 0, 70, 78
1, 214329, Note_off_c, 0, 73, 60
1, 214394, Note_on_c, 0, 76, 86
1, 214397, Control_c, 0, 64, 102
1, 214399, Note_off_c, 0, 70, 60
1, 214412, Control_c, 0, 64, 83
1, 214426, Control_c, 0, 64, 68
1, 214441, Control_c, 0, 64, 54
1, 214456, Control_c, 0, 64, 50
1, 214470, Control_c, 0, 64, 62
1, 214484, Note_on_c, 0, 73, 72
1, 214485, Control_c, 0, 64, 71
1, 214500, Control_c, 0, 64, 83
1, 214509, Note_off_c, 0, 76, 50
1, 214515, Control_c, 0, 64, 95
1, 214530, Control_c, 0, 64, 101
1, 214545, Control_c, 0, 64, 101
1, 214547, Note_on_c, 0, 70, 72
1, 214582, Control_c, 0, 64, 103
1, 214597, Control_c, 0, 64, 106
1, 214604, Note_off_c, 0, 73, 59
1, 214612, Control_c, 0, 64, 113
1, 214615, Note_off_c, 0, 70, 63
1, 214621, Note_on_c, 0, 67, 64
1, 214627, Control_c, 0, 64, 127
1, 214649, Note_off_c, 0, 67, 66
1, 214676, Note_on_c, 0, 64, 62
1, 214697, Note_off_c, 0, 64, 66
1, 214743, Note_on_c, 0, 61, 74
1, 214803, Note_off_c, 0, 61, 56
1, 214818, Note_on_c, 0, 58, 72
1, 214878, Note_on_c, 0, 64, 85
1, 214879, Control_c, 0, 64, 115
1, 214880, Note_off_c, 0, 58, 62
1, 214894, Control_c, 0, 64, 89
1, 214908, Control_c, 0, 64, 72
1, 214923, Control_c, 0, 64, 63
1, 214952, Note_on_c, 0, 61, 72
1, 214953, Control_c, 0, 64, 71
1, 214968, Control_c, 0, 64, 84
1, 214981, Note_off_c, 0, 64, 61
1, 214982, Control_c, 0, 64, 107
1, 214997, Control_c, 0, 64, 127
1, 215004, Note_on_c, 0, 58, 64
1, 215053, Note_on_c, 0, 55, 72
1, 215054, Note_off_c, 0, 61, 62
1, 215057, Note_off_c, 0, 58, 62
1, 215083, Note_off_c, 0, 55, 65
1, 215105, Note_on_c, 0, 52, 72
1, 215185, Note_off_c, 0, 52, 62
1, 215193, Note_on_c, 0, 49, 51
1, 215223, Note_off_c, 0, 49, 55
1, 215244, Note_on_c, 0, 52, 67
1, 215310, Note_off_c, 0, 52, 62
1, 215312, Note_on_c, 0, 55, 88
1, 215384, Note_off_c, 0, 55, 62
1, 215387, Note_on_c, 0, 58, 75
1, 215429, Note_on_c, 0, 61, 80
1, 215438, Note_off_c, 0, 58, 64
1, 215454, Note_off_c, 0, 61, 69
1, 215500, Note_on_c, 0, 64, 82
1, 215562, Note_off_c, 0, 64, 63
1, 215563, Note_on_c, 0, 67, 81
1, 215623, Note_off_c, 0, 67, 64
1, 215625, Note_on_c, 0, 70, 72
1, 215654, Note_off_c, 0, 70, 66
1, 215658, Note_on_c, 0, 73, 80
1, 215681, Note_off_c, 0, 73, 70
1, 215726, Note_on_c, 0, 76, 81
1, 215770, Note_off_c, 0, 31, 61
1, 215774, Note_off_c, 0, 43, 63
1, 215781, Note_on_c, 0, 79, 77
1, 215796, Note_off_c, 0, 37, 61
1, 215801, Note_off_c, 0, 76, 57
1, 215831, Note_on_c, 0, 82, 84
1, 215840, Note_off_c, 0, 79, 61
1, 215876, Note_off_c, 0, 82, 65
1, 215887, Note_on_c, 0, 85, 86
1, 215950, Note_on_c, 0, 82, 95
1, 215998, Note_off_c, 0, 85, 60
1, 216021, Note_on_c, 0, 76, 95
1, 216044, Note_on_c, 0, 32, 78
1, 216049, Note_off_c, 0, 82, 63
1, 216088, Note_off_c, 0, 76, 65
1, 216135, Note_on_c, 0, 37, 73
1, 216210, Note_on_c, 0, 44, 92
1, 216228, Control_c, 0, 64, 94
1, 216239, Note_on_c, 0, 88, 105
1, 216243, Control_c, 0, 64, 62
1, 216258, Control_c, 0, 64, 0
1, 216302, Control_c, 0, 64, 45
1, 216317, Control_c, 0, 64, 64
1, 216332, Control_c, 0, 64, 70
1, 216347, Control_c, 0, 64, 72
1, 216362, Control_c, 0, 64, 73
1, 216377, Control_c, 0, 64, 75
1, 216392, Control_c, 0, 64, 80
1, 216392, Note_on_c, 0, 85, 70
1, 216406, Note_off_c, 0, 88, 56
1, 216407, Control_c, 0, 64, 87
1, 216422, Control_c, 0, 64, 95
1, 216436, Control_c, 0, 64, 100
1, 216451, Control_c, 0, 64, 101
1, 216466, Control_c, 0, 64, 102
1, 216480, Control_c, 0, 64, 105
1, 216490, Note_on_c, 0, 80, 76
1, 216495, Control_c, 0, 64, 112
1, 216510, Control_c, 0, 64, 127
1, 216519, Note_off_c, 0, 85, 61
1, 216554, Note_on_c, 0, 76, 79
1, 216556, Note_off_c, 0, 80, 61
1, 216579, Note_off_c, 0, 76, 67
1, 216654, Note_on_c, 0, 73, 72
1, 216730, Note_off_c, 0, 73, 61
1, 216733, Note_on_c, 0, 68, 73
1, 216761, Control_c, 0, 64, 119
1, 216776, Control_c, 0, 64, 97
1, 216790, Note_on_c, 0, 76, 88
1, 216791, Note_off_c, 0, 68, 63
1, 216791, Control_c, 0, 64, 86
1, 216806, Control_c, 0, 64, 84
1, 216828, Control_c, 0, 64, 85
1, 216843, Control_c, 0, 64, 89
1, 216858, Control_c, 0, 64, 96
1, 216872, Control_c, 0, 64, 101
1, 216887, Control_c, 0, 64, 104
1, 216895, Note_on_c, 0, 73, 75
1, 216902, Control_c, 0, 64, 107
1, 216904, Note_off_c, 0, 76, 57
1, 216917, Control_c, 0, 64, 113
1, 216932, Control_c, 0, 64, 127
1, 216972, Note_on_c, 0, 68, 72
1, 216995, Note_off_c, 0, 73, 63
1, 217042, Note_on_c, 0, 64, 79
1, 217053, Note_off_c, 0, 68, 65
1, 217066, Control_c, 0, 64, 120
1, 217081, Control_c, 0, 64, 92
1, 217095, Control_c, 0, 64, 73
1, 217110, Control_c, 0, 64, 61
1, 217125, Control_c, 0, 64, 57
1, 217129, Note_on_c, 0, 73, 80
1, 217140, Control_c, 0, 64, 64
1, 217148, Note_off_c, 0, 64, 62
1, 217155, Control_c, 0, 64, 72
1, 217170, Control_c, 0, 64, 84
1, 217185, Control_c, 0, 64, 97
1, 217200, Control_c, 0, 64, 104
1, 217214, Note_on_c, 0, 68, 68
1, 217214, Control_c, 0, 64, 105
1, 217229, Control_c, 0, 64, 108
1, 217238, Note_off_c, 0, 73, 60
1, 217244, Control_c, 0, 64, 120
1, 217259, Control_c, 0, 64, 127
1, 217280, Note_on_c, 0, 64, 74
1, 217312, Note_off_c, 0, 68, 64
1, 217333, Control_c, 0, 64, 97
1, 217343, Note_on_c, 0, 61, 83
1, 217348, Control_c, 0, 64, 82
1, 217349, Note_off_c, 0, 64, 61
1, 217363, Control_c, 0, 64, 74
1, 217377, Control_c, 0, 64, 72
1, 217392, Control_c, 0, 64, 76
1, 217407, Control_c, 0, 64, 83
1, 217419, Note_on_c, 0, 68, 77
1, 217422, Control_c, 0, 64, 92
1, 217426, Note_off_c, 0, 61, 44
1, 217437, Control_c, 0, 64, 97
1, 217451, Control_c, 0, 64, 99
1, 217466, Control_c, 0, 64, 104
1, 217481, Control_c, 0, 64, 127
1, 217499, Note_on_c, 0, 64, 64
1, 217507, Note_off_c, 0, 68, 60
1, 217525, Control_c, 0, 64, 112
1, 217540, Control_c, 0, 64, 90
1, 217543, Note_on_c, 0, 61, 75
1, 217548, Note_off_c, 0, 64, 63
1, 217555, Control_c, 0, 64, 76
1, 217577, Control_c, 0, 64, 70
1, 217592, Control_c, 0, 64, 72
1, 217606, Note_on_c, 0, 56, 75
1, 217607, Control_c, 0, 64, 82
1, 217615, Note_off_c, 0, 61, 63
1, 217622, Control_c, 0, 64, 102
1, 217634, Note_off_c, 0, 56, 62
1, 217636, Control_c, 0, 64, 105
1, 217651, Control_c, 0, 64, 91
1, 217666, Control_c, 0, 64, 75
1, 217679, Note_on_c, 0, 64, 69
1, 217681, Control_c, 0, 64, 63
1, 217696, Control_c, 0, 64, 60
1, 217710, Control_c, 0, 64, 68
1, 217725, Control_c, 0, 64, 81
1, 217736, Note_on_c, 0, 61, 75
1, 217740, Control_c, 0, 64, 98
1, 217755, Note_off_c, 0, 64, 57
1, 217755, Control_c, 0, 64, 105
1, 217769, Control_c, 0, 64, 105
1, 217800, Note_on_c, 0, 56, 70
1, 217815, Control_c, 0, 64, 101
1, 217816, Note_off_c, 0, 61, 62
1, 217830, Control_c, 0, 64, 90
1, 217845, Control_c, 0, 64, 78
1, 217846, Note_on_c, 0, 52, 74
1, 217860, Control_c, 0, 64, 70
1, 217864, Note_off_c, 0, 56, 61
1, 217874, Control_c, 0, 64, 69
1, 217889, Control_c, 0, 64, 75
1, 217904, Control_c, 0, 64, 86
1, 217918, Control_c, 0, 64, 87
1, 217924, Note_on_c, 0, 61, 84
1, 217928, Note_off_c, 0, 52, 52
1, 217933, Control_c, 0, 64, 75
1, 217948, Control_c, 0, 64, 59
1, 217963, Control_c, 0, 64, 26
1, 217978, Control_c, 0, 64, 47
1, 217985, Note_on_c, 0, 56, 75
1, 217992, Control_c, 0, 64, 69
1, 218007, Control_c, 0, 64, 88
1, 218019, Note_off_c, 0, 61, 61
1, 218022, Control_c, 0, 64, 102
1, 218037, Control_c, 0, 64, 88
1, 218052, Control_c, 0, 64, 65
1, 218055, Note_on_c, 0, 52, 74
1, 218066, Note_off_c, 0, 56, 62
1, 218067, Control_c, 0, 64, 0
1, 218082, Control_c, 0, 64, 20
1, 218097, Control_c, 0, 64, 66
1, 218112, Control_c, 0, 64, 86
1, 218115, Note_on_c, 0, 49, 87
1, 218124, Note_off_c, 0, 52, 64
1, 218126, Control_c, 0, 64, 99
1, 218141, Control_c, 0, 64, 94
1, 218156, Control_c, 0, 64, 80
1, 218171, Control_c, 0, 64, 71
1, 218186, Control_c, 0, 64, 68
1, 218196, Note_on_c, 0, 56, 77
1, 218200, Control_c, 0, 64, 72
1, 218210, Note_off_c, 0, 49, 37
1, 218215, Control_c, 0, 64, 81
1, 218230, Note_off_c, 0, 32, 60
1, 218230, Note_off_c, 0, 44, 62
1, 218230, Control_c, 0, 64, 92
1, 218240, Note_off_c, 0, 37, 61
1, 218244, Control_c, 0, 64, 95
1, 218256, Note_on_c, 0, 52, 74
1, 218289, Control_c, 0, 64, 96
1, 218294, Note_off_c, 0, 56, 56
1, 218304, Control_c, 0, 64, 100
1, 218326, Control_c, 0, 64, 107
1, 218336, Note_on_c, 0, 49, 82
1, 218341, Control_c, 0, 64, 127
1, 218351, Note_off_c, 0, 52, 58
1, 218398, Note_off_c, 0, 49, 63
1, 218415, Control_c, 0, 64, 125
1, 218430, Control_c, 0, 64, 90
1, 218444, Control_c, 0, 64, 67
1, 218459, Control_c, 0, 64, 0
1, 218463, Note_on_c, 0, 44, 97
1, 218504, Control_c, 0, 64, 54
1, 218511, Note_off_c, 0, 44, 61
1, 218519, Control_c, 0, 64, 67
1, 218533, Control_c, 0, 64, 76
1, 218548, Control_c, 0, 64, 82
1, 218563, Control_c, 0, 64, 84
1, 218579, Note_on_c, 0, 45, 84
1, 218594, Control_c, 0, 64, 84
1, 218609, Control_c, 0, 64, 85
1, 218623, Control_c, 0, 64, 86
1, 218638, Control_c, 0, 64, 88
1, 218653, Control_c, 0, 64, 88
1, 218654, Note_off_c, 0, 45, 61
1, 218667, Control_c, 0, 64, 89
1, 218675, Note_on_c, 0, 46, 80
1, 218682, Control_c, 0, 64, 89
1, 218697, Control_c, 0, 64, 91
1, 218712, Control_c, 0, 64, 94
1, 218717, Note_off_c, 0, 46, 61
1, 218727, Control_c, 0, 64, 96
1, 218741, Control_c, 0, 64, 98
1, 218750, Note_on_c, 0, 47, 78
1, 218771, Control_c, 0, 64, 96
1, 218786, Control_c, 0, 64, 91
1, 218801, Control_c, 0, 64, 85
1, 218815, Control_c, 0, 64, 80
1, 218820, Note_off_c, 0, 47, 60
1, 218825, Note_on_c, 0, 48, 80
1, 218830, Control_c, 0, 64, 77
1, 218875, Control_c, 0, 64, 76
1, 218882, Note_off_c, 0, 48, 64
1, 218887, Note_on_c, 0, 49, 82
1, 218890, Control_c, 0, 64, 74
1, 218905, Control_c, 0, 64, 71
1, 218920, Control_c, 0, 64, 70
1, 218934, Control_c, 0, 64, 71
1, 218936, Note_off_c, 0, 49, 60
1, 218949, Control_c, 0, 64, 75
1, 218955, Note_on_c, 0, 50, 82
1, 218964, Control_c, 0, 64, 77
1, 218979, Control_c, 0, 64, 75
1, 218994, Control_c, 0, 64, 72
1, 219009, Control_c, 0, 64, 67
1, 219016, Note_off_c, 0, 50, 62
1, 219023, Control_c, 0, 64, 66
1, 219027, Note_on_c, 0, 51, 79
1, 219038, Control_c, 0, 64, 69
1, 219053, Control_c, 0, 64, 72
1, 219056, Note_off_c, 0, 51, 67
1, 219075, Control_c, 0, 64, 70
1, 219089, Control_c, 0, 64, 63
1, 219093, Note_on_c, 0, 52, 80
1, 219104, Control_c, 0, 64, 47
1, 219119, Control_c, 0, 64, 32
1, 219134, Control_c, 0, 64, 49
1, 219149, Control_c, 0, 64, 63
1, 219159, Note_on_c, 0, 53, 75
1, 219164, Note_off_c, 0, 52, 63
1, 219164, Control_c, 0, 64, 71
1, 219179, Control_c, 0, 64, 74
1, 219194, Control_c, 0, 64, 68
1, 219208, Control_c, 0, 64, 57
1, 219210, Note_off_c, 0, 53, 65
1, 219211, Note_on_c, 0, 54, 82
1, 219223, Control_c, 0, 64, 37
1, 219238, Control_c, 0, 64, 48
1, 219247, Note_off_c, 0, 54, 65
1, 219253, Control_c, 0, 64, 62
1, 219268, Control_c, 0, 64, 72
1, 219275, Note_on_c, 0, 55, 80
1, 219283, Control_c, 0, 64, 79
1, 219298, Control_c, 0, 64, 77
1, 219313, Control_c, 0, 64, 68
1, 219328, Control_c, 0, 64, 57
1, 219343, Control_c, 0, 64, 55
1, 219345, Note_on_c, 0, 56, 77
1, 219350, Note_off_c, 0, 55, 61
1, 219357, Control_c, 0, 64, 63
1, 219372, Control_c, 0, 64, 72
1, 219387, Control_c, 0, 64, 83
1, 219402, Control_c, 0, 64, 86
1, 219403, Note_on_c, 0, 57, 77
1, 219417, Control_c, 0, 64, 79
1, 219419, Note_off_c, 0, 56, 63
1, 219432, Control_c, 0, 64, 71
1, 219447, Control_c, 0, 64, 68
1, 219460, Note_on_c, 0, 58, 79
1, 219462, Control_c, 0, 64, 72
1, 219467, Note_off_c, 0, 57, 63
1, 219477, Control_c, 0, 64, 82
1, 219491, Control_c, 0, 64, 91
1, 219506, Control_c, 0, 64, 90
1, 219518, Note_off_c, 0, 58, 65
1, 219521, Control_c, 0, 64, 80
1, 219522, Note_on_c, 0, 59, 75
1, 219536, Control_c, 0, 64, 72
1, 219551, Control_c, 0, 64, 69
1, 219565, Control_c, 0, 64, 71
1, 219580, Control_c, 0, 64, 77
1, 219587, Note_on_c, 0, 60, 75
1, 219593, Note_off_c, 0, 59, 63
1, 219595, Control_c, 0, 64, 82
1, 219610, Control_c, 0, 64, 83
1, 219644, Note_off_c, 0, 60, 65
1, 219650, Note_on_c, 0, 61, 79
1, 219654, Control_c, 0, 64, 84
1, 219669, Control_c, 0, 64, 86
1, 219684, Control_c, 0, 64, 90
1, 219689, Note_off_c, 0, 61, 61
1, 219698, Control_c, 0, 64, 93
1, 219707, Note_on_c, 0, 62, 79
1, 219713, Control_c, 0, 64, 93
1, 219743, Control_c, 0, 64, 94
1, 219758, Note_off_c, 0, 62, 63
1, 219774, Note_on_c, 0, 63, 85
1, 219808, Note_off_c, 0, 63, 56
1, 219838, Note_on_c, 0, 64, 92
1, 219839, Control_c, 0, 64, 94
1, 219854, Control_c, 0, 64, 96
1, 219869, Control_c, 0, 64, 99
1, 219884, Control_c, 0, 64, 102
1, 219898, Control_c, 0, 64, 105
1, 219907, Note_off_c, 0, 64, 63
1, 219913, Note_on_c, 0, 65, 81
1, 219913, Control_c, 0, 64, 106
1, 219943, Control_c, 0, 64, 107
1, 219951, Note_off_c, 0, 65, 61
1, 219953, Note_on_c, 0, 66, 85
1, 219958, Control_c, 0, 64, 113
1, 219972, Control_c, 0, 64, 127
1, 219993, Note_off_c, 0, 66, 60
1, 220017, Note_on_c, 0, 67, 89
1, 220079, Note_on_c, 0, 68, 85
1, 220085, Note_off_c, 0, 67, 61
1, 220135, Note_on_c, 0, 69, 74
1, 220151, Note_off_c, 0, 68, 65
1, 220178, Note_on_c, 0, 70, 82
1, 220187, Note_off_c, 0, 69, 64
1, 220228, Note_off_c, 0, 70, 66
1, 220239, Note_on_c, 0, 71, 77
1, 220299, Note_on_c, 0, 72, 78
1, 220305, Note_off_c, 0, 71, 66
1, 220346, Note_off_c, 0, 72, 63
1, 220348, Note_on_c, 0, 73, 86
1, 220390, Note_off_c, 0, 73, 59
1, 220412, Note_on_c, 0, 74, 82
1, 220500, Note_on_c, 0, 75, 84
1, 220506, Note_off_c, 0, 74, 65
1, 220529, Note_off_c, 0, 75, 56
1, 220593, Note_on_c, 0, 77, 91
1, 220657, Note_on_c, 0, 78, 83
1, 220663, Note_off_c, 0, 77, 61
1, 220699, Note_on_c, 0, 79, 80
1, 220711, Note_on_c, 0, 77, 31
1, 220724, Note_on_c, 0, 80, 84
1, 220724, Note_off_c, 0, 78, 54
1, 220742, Note_off_c, 0, 77, 58
1, 220744, Note_off_c, 0, 79, 63
1, 220774, Note_on_c, 0, 66, 96
1, 220780, Note_on_c, 0, 56, 88
1, 220783, Note_on_c, 0, 60, 84
1, 220784, Note_on_c, 0, 81, 107
1, 220798, Note_off_c, 0, 80, 63
1, 220803, Note_on_c, 0, 84, 72
1, 220809, Control_c, 0, 64, 114
1, 220818, Note_off_c, 0, 84, 70
1, 220824, Control_c, 0, 64, 73
1, 220839, Control_c, 0, 64, 0
1, 220899, Control_c, 0, 64, 55
1, 220913, Control_c, 0, 64, 59
1, 220928, Control_c, 0, 64, 57
1, 220943, Control_c, 0, 64, 53
1, 220973, Control_c, 0, 64, 56
1, 220988, Control_c, 0, 64, 59
1, 220991, Note_on_c, 0, 83, 87
1, 220994, Note_off_c, 0, 81, 63
1, 221003, Control_c, 0, 64, 59
1, 221018, Control_c, 0, 64, 58
1, 221048, Control_c, 0, 64, 60
1, 221049, Note_off_c, 0, 83, 64
1, 221063, Control_c, 0, 64, 62
1, 221077, Control_c, 0, 64, 65
1, 221081, Note_on_c, 0, 81, 85
1, 221092, Control_c, 0, 64, 68
1, 221107, Control_c, 0, 64, 71
1, 221122, Control_c, 0, 64, 73
1, 221137, Control_c, 0, 64, 75
1, 221142, Note_off_c, 0, 81, 63
1, 221151, Control_c, 0, 64, 78
1, 221154, Note_on_c, 0, 83, 78
1, 221166, Control_c, 0, 64, 81
1, 221180, Note_off_c, 0, 83, 66
1, 221181, Control_c, 0, 64, 86
1, 221196, Control_c, 0, 64, 90
1, 221205, Note_on_c, 0, 81, 67
1, 221211, Control_c, 0, 64, 93
1, 221225, Control_c, 0, 64, 94
1, 221232, Note_off_c, 0, 81, 64
1, 221240, Control_c, 0, 64, 95
1, 221255, Control_c, 0, 64, 96
1, 221257, Note_on_c, 0, 83, 78
1, 221269, Control_c, 0, 64, 98
1, 221278, Note_off_c, 0, 83, 70
1, 221284, Control_c, 0, 64, 102
1, 221299, Control_c, 0, 64, 104
1, 221318, Note_on_c, 0, 81, 72
1, 221322, Control_c, 0, 64, 107
1, 221337, Control_c, 0, 64, 109
1, 221342, Note_off_c, 0, 81, 65
1, 221351, Control_c, 0, 64, 111
1, 221361, Note_on_c, 0, 83, 77
1, 221366, Control_c, 0, 64, 114
1, 221381, Control_c, 0, 64, 118
1, 221385, Note_off_c, 0, 83, 67
1, 221396, Control_c, 0, 64, 127
1, 221409, Note_on_c, 0, 81, 69
1, 221444, Note_off_c, 0, 81, 60
1, 221459, Note_on_c, 0, 83, 79
1, 221483, Note_off_c, 0, 83, 64
1, 221518, Note_on_c, 0, 81, 79
1, 221549, Note_off_c, 0, 81, 61
1, 221561, Note_on_c, 0, 83, 88
1, 221597, Note_off_c, 0, 83, 59
1, 221617, Note_on_c, 0, 81, 76
1, 221655, Note_off_c, 0, 81, 57
1, 221665, Note_on_c, 0, 83, 79
1, 221691, Note_off_c, 0, 83, 65
1, 221708, Note_on_c, 0, 81, 70
1, 221754, Note_off_c, 0, 81, 64
1, 221765, Note_on_c, 0, 83, 84
1, 221795, Note_off_c, 0, 83, 61
1, 221818, Note_on_c, 0, 81, 75
1, 221862, Note_off_c, 0, 81, 63
1, 221871, Note_on_c, 0, 83, 85
1, 221900, Note_off_c, 0, 83, 62
1, 221922, Note_on_c, 0, 81, 72
1, 221968, Note_off_c, 0, 81, 64
1, 221975, Note_on_c, 0, 83, 88
1, 222016, Note_off_c, 0, 83, 61
1, 222035, Note_on_c, 0, 81, 76
1, 222082, Note_off_c, 0, 81, 61
1, 222088, Note_on_c, 0, 83, 83
1, 222131, Note_off_c, 0, 83, 63
1, 222149, Note_on_c, 0, 81, 75
1, 222193, Note_off_c, 0, 81, 62
1, 222202, Note_on_c, 0, 83, 83
1, 222239, Note_off_c, 0, 83, 60
1, 222256, Note_on_c, 0, 81, 72
1, 222303, Note_off_c, 0, 81, 63
1, 222309, Note_on_c, 0, 83, 83
1, 222351, Note_off_c, 0, 83, 62
1, 222369, Note_on_c, 0, 81, 70
1, 222413, Note_off_c, 0, 81, 62
1, 222425, Note_on_c, 0, 83, 76
1, 222456, Note_off_c, 0, 83, 63
1, 222488, Note_on_c, 0, 81, 64
1, 222523, Note_off_c, 0, 81, 61
1, 222544, Note_on_c, 0, 83, 77
1, 222568, Note_off_c, 0, 83, 65
1, 222602, Note_on_c, 0, 81, 67
1, 222644, Note_off_c, 0, 81, 57
1, 222657, Note_on_c, 0, 83, 69
1, 222687, Note_off_c, 0, 83, 64
1, 222728, Note_on_c, 0, 81, 59
1, 222764, Note_off_c, 0, 81, 60
1, 222786, Note_on_c, 0, 83, 62
1, 222825, Note_off_c, 0, 83, 64
1, 222863, Note_on_c, 0, 81, 53
1, 222907, Note_off_c, 0, 81, 60
1, 222927, Note_on_c, 0, 83, 57
1, 222972, Note_off_c, 0, 83, 62
1, 223010, Note_on_c, 0, 81, 59
1, 223049, Note_off_c, 0, 81, 60
1, 223091, Note_on_c, 0, 83, 55
1, 223125, Note_off_c, 0, 83, 65
1, 223160, Note_on_c, 0, 81, 52
1, 223212, Note_off_c, 0, 81, 57
1, 223232, Note_on_c, 0, 83, 48
1, 223290, Note_off_c, 0, 83, 62
1, 223323, Note_on_c, 0, 81, 55
1, 223396, Note_off_c, 0, 81, 48
1, 223419, Note_on_c, 0, 83, 54
1, 223458, Note_off_c, 0, 83, 63
1, 223505, Note_on_c, 0, 81, 54
1, 223550, Note_off_c, 0, 81, 59
1, 223588, Note_on_c, 0, 83, 52
1, 223675, Note_off_c, 0, 83, 63
1, 223713, Note_on_c, 0, 81, 47
1, 223871, Note_on_c, 0, 80, 56
1, 223879, Note_off_c, 0, 81, 58
1, 224011, Control_c, 0, 64, 123
1, 224021, Note_off_c, 0, 80, 62
1, 224025, Note_on_c, 0, 78, 69
1, 224026, Control_c, 0, 64, 119
1, 224041, Control_c, 0, 64, 117
1, 224056, Control_c, 0, 64, 115
1, 224071, Control_c, 0, 64, 115
1, 224085, Control_c, 0, 64, 114
1, 224117, Note_off_c, 0, 78, 62
1, 224150, Note_on_c, 0, 76, 62
1, 224173, Note_off_c, 0, 56, 58
1, 224175, Control_c, 0, 67, 8
1, 224178, Note_off_c, 0, 66, 57
1, 224178, Note_off_c, 0, 60, 60
1, 224220, Control_c, 0, 67, 8
1, 224234, Control_c, 0, 67, 9
1, 224262, Note_on_c, 0, 75, 68
1, 224267, Note_off_c, 0, 76, 59
1, 224279, Control_c, 0, 67, 9
1, 224316, Control_c, 0, 67, 10
1, 224331, Control_c, 0, 67, 10
1, 224346, Control_c, 0, 67, 11
1, 224360, Control_c, 0, 64, 114
1, 224360, Control_c, 0, 67, 12
1, 224390, Control_c, 0, 64, 113
1, 224392, Note_off_c, 0, 75, 58
1, 224395, Note_on_c, 0, 78, 67
1, 224405, Control_c, 0, 64, 112
1, 224419, Control_c, 0, 64, 110
1, 224419, Control_c, 0, 67, 12
1, 224434, Control_c, 0, 64, 108
1, 224449, Control_c, 0, 64, 106
1, 224464, Control_c, 0, 64, 104
1, 224479, Control_c, 0, 64, 103
1, 224494, Control_c, 0, 64, 101
1, 224509, Control_c, 0, 64, 99
1, 224509, Control_c, 0, 67, 13
1, 224520, Note_on_c, 0, 73, 68
1, 224524, Control_c, 0, 64, 96
1, 224524, Control_c, 0, 67, 13
1, 224539, Control_c, 0, 64, 94
1, 224553, Control_c, 0, 64, 93
1, 224553, Control_c, 0, 67, 14
1, 224568, Control_c, 0, 64, 91
1, 224568, Control_c, 0, 67, 15
1, 224583, Control_c, 0, 64, 88
1, 224598, Control_c, 0, 64, 85
1, 224598, Control_c, 0, 67, 15
1, 224606, Note_off_c, 0, 78, 37
1, 224612, Control_c, 0, 64, 81
1, 224627, Control_c, 0, 64, 78
1, 224642, Control_c, 0, 64, 75
1, 224657, Control_c, 0, 64, 73
1, 224664, Note_on_c, 0, 72, 67
1, 224669, Note_off_c, 0, 73, 48
1, 224672, Control_c, 0, 64, 72
1, 224686, Control_c, 0, 64, 71
1, 224686, Control_c, 0, 67, 16
1, 224701, Control_c, 0, 64, 69
1, 224716, Control_c, 0, 64, 69
1, 224746, Control_c, 0, 64, 70
1, 224746, Control_c, 0, 67, 16
1, 224760, Control_c, 0, 64, 71
1, 224775, Control_c, 0, 64, 72
1, 224805, Control_c, 0, 67, 17
1, 224816, Note_off_c, 0, 72, 58
1, 224819, Control_c, 0, 64, 71
1, 224819, Control_c, 0, 67, 17
1, 224822, Note_on_c, 0, 75, 68
1, 224834, Control_c, 0, 64, 69
1, 224834, Control_c, 0, 67, 18
1, 224849, Control_c, 0, 64, 68
1, 224864, Control_c, 0, 64, 66
1, 224864, Control_c, 0, 67, 19
1, 224879, Control_c, 0, 64, 66
1, 224908, Control_c, 0, 67, 19
1, 224938, Control_c, 0, 64, 65
1, 224938, Control_c, 0, 67, 20
1, 224940, Note_off_c, 0, 75, 59
1, 224952, Note_on_c, 0, 69, 67
1, 224953, Control_c, 0, 64, 63
1, 224953, Control_c, 0, 67, 22
1, 224968, Control_c, 0, 64, 60
1, 224968, Control_c, 0, 67, 23
1, 224983, Control_c, 0, 64, 60
1, 224983, Control_c, 0, 67, 23
1, 224998, Control_c, 0, 64, 60
1, 225013, Control_c, 0, 64, 61
1, 225028, Control_c, 0, 64, 60
1, 225042, Control_c, 0, 67, 24
1, 225078, Note_on_c, 0, 68, 69
1, 225087, Note_off_c, 0, 69, 62
1, 225095, Control_c, 0, 64, 61
1, 225109, Control_c, 0, 64, 61
1, 225124, Control_c, 0, 67, 24
1, 225139, Control_c, 0, 64, 60
1, 225139, Control_c, 0, 67, 25
1, 225169, Control_c, 0, 67, 26
1, 225183, Control_c, 0, 64, 61
1, 225189, Note_off_c, 0, 68, 62
1, 225197, Note_on_c, 0, 66, 70
1, 225198, Control_c, 0, 64, 62
1, 225198, Control_c, 0, 67, 26
1, 225213, Control_c, 0, 64, 62
1, 225228, Control_c, 0, 64, 60
1, 225228, Control_c, 0, 67, 27
1, 225242, Control_c, 0, 64, 59
1, 225242, Control_c, 0, 67, 27
1, 225257, Control_c, 0, 67, 28
1, 225272, Control_c, 0, 64, 60
1, 225287, Control_c, 0, 64, 61
1, 225302, Control_c, 0, 64, 63
1, 225302, Control_c, 0, 67, 28
1, 225313, Note_on_c, 0, 69, 67
1, 225317, Control_c, 0, 67, 29
1, 225317, Note_off_c, 0, 66, 58
1, 225331, Control_c, 0, 64, 62
1, 225331, Control_c, 0, 67, 30
1, 225346, Control_c, 0, 64, 61
1, 225346, Control_c, 0, 67, 31
1, 225361, Control_c, 0, 64, 60
1, 225361, Control_c, 0, 67, 31
1, 225376, Control_c, 0, 64, 61
1, 225391, Control_c, 0, 64, 62
1, 225406, Control_c, 0, 64, 64
1, 225406, Control_c, 0, 67, 32
1, 225421, Control_c, 0, 64, 63
1, 225421, Control_c, 0, 67, 32
1, 225435, Control_c, 0, 64, 62
1, 225435, Control_c, 0, 67, 34
1, 225443, Note_off_c, 0, 69, 59
1, 225450, Control_c, 0, 64, 61
1, 225450, Control_c, 0, 67, 34
1, 225454, Note_on_c, 0, 64, 61
1, 225480, Control_c, 0, 64, 62
1, 225480, Control_c, 0, 67, 35
1, 225495, Control_c, 0, 64, 62
1, 225509, Control_c, 0, 64, 61
1, 225524, Control_c, 0, 64, 60
1, 225569, Control_c, 0, 64, 61
1, 225598, Control_c, 0, 64, 60
1, 225600, Note_on_c, 0, 63, 63
1, 225609, Note_off_c, 0, 64, 59
1, 225613, Control_c, 0, 64, 59
1, 225628, Control_c, 0, 64, 58
1, 225642, Control_c, 0, 64, 57
1, 225657, Control_c, 0, 64, 56
1, 225672, Control_c, 0, 64, 53
1, 225687, Control_c, 0, 64, 47
1, 225702, Control_c, 0, 64, 38
1, 225716, Control_c, 0, 64, 31
1, 225731, Control_c, 0, 64, 27
1, 225746, Control_c, 0, 64, 23
1, 225761, Control_c, 0, 64, 13
1, 225776, Note_off_c, 0, 63, 60
1, 225776, Control_c, 0, 64, 0
1, 225781, Note_on_c, 0, 66, 60
1, 225829, Control_c, 0, 64, 24
1, 225844, Control_c, 0, 64, 35
1, 225859, Control_c, 0, 64, 40
1, 225873, Control_c, 0, 64, 43
1, 225888, Control_c, 0, 64, 46
1, 225903, Control_c, 0, 64, 50
1, 225918, Control_c, 0, 64, 54
1, 225932, Control_c, 0, 64, 55
1, 225940, Note_on_c, 0, 61, 62
1, 225947, Control_c, 0, 64, 54
1, 225962, Control_c, 0, 64, 51
1, 225962, Control_c, 0, 67, 35
1, 225977, Control_c, 0, 64, 49
1, 225992, Control_c, 0, 64, 49
1, 226007, Control_c, 0, 64, 51
1, 226022, Control_c, 0, 64, 54
1, 226023, Note_off_c, 0, 66, 34
1, 226037, Control_c, 0, 64, 54
1, 226052, Control_c, 0, 64, 52
1, 226063, Note_off_c, 0, 61, 56
1, 226066, Control_c, 0, 64, 50
1, 226066, Control_c, 0, 67, 36
1, 226074, Note_on_c, 0, 60, 60
1, 226081, Control_c, 0, 64, 49
1, 226111, Control_c, 0, 64, 50
1, 226126, Control_c, 0, 64, 50
1, 226126, Control_c, 0, 67, 36
1, 226140, Control_c, 0, 64, 47
1, 226155, Control_c, 0, 64, 40
1, 226155, Control_c, 0, 67, 37
1, 226170, Control_c, 0, 64, 34
1, 226170, Control_c, 0, 67, 37
1, 226184, Control_c, 0, 64, 33
1, 226184, Control_c, 0, 67, 38
1, 226199, Control_c, 0, 64, 35
1, 226199, Control_c, 0, 67, 38
1, 226220, Note_off_c, 0, 60, 62
1, 226229, Control_c, 0, 64, 32
1, 226229, Control_c, 0, 67, 39
1, 226230, Note_on_c, 0, 63, 62
1, 226244, Control_c, 0, 64, 28
1, 226259, Control_c, 0, 64, 26
1, 226288, Control_c, 0, 64, 29
1, 226303, Control_c, 0, 67, 39
1, 226333, Control_c, 0, 64, 29
1, 226363, Control_c, 0, 64, 31
1, 226370, Note_off_c, 0, 63, 62
1, 226377, Control_c, 0, 64, 35
1, 226392, Control_c, 0, 64, 36
1, 226418, Note_on_c, 0, 55, 19
1, 226425, Note_on_c, 0, 57, 28
1, 226451, Control_c, 0, 64, 33
1, 226466, Control_c, 0, 64, 28
1, 226481, Control_c, 0, 64, 26
1, 226511, Control_c, 0, 64, 27
1, 226526, Control_c, 0, 64, 29
1, 226531, Note_on_c, 0, 56, 51
1, 226540, Control_c, 0, 64, 31
1, 226544, Note_off_c, 0, 55, 38
1, 226549, Note_off_c, 0, 57, 44
1, 226593, Control_c, 0, 64, 31
1, 226623, Control_c, 0, 64, 33
1, 226637, Control_c, 0, 64, 33
1, 226700, Note_on_c, 0, 54, 50
1, 226703, Note_off_c, 0, 56, 54
1, 226712, Control_c, 0, 64, 34
1, 226785, Control_c, 0, 67, 40
1, 226800, Control_c, 0, 64, 33
1, 226814, Control_c, 0, 64, 32
1, 226829, Control_c, 0, 64, 30
1, 226844, Control_c, 0, 64, 23
1, 226859, Control_c, 0, 64, 0
1, 226874, Control_c, 0, 67, 40
1, 226880, Note_off_c, 0, 54, 55
1, 226885, Note_on_c, 0, 57, 54
1, 226903, Control_c, 0, 67, 41
1, 226918, Control_c, 0, 67, 45
1, 226933, Control_c, 0, 67, 49
1, 226948, Control_c, 0, 67, 51
1, 226962, Control_c, 0, 67, 52
1, 226977, Control_c, 0, 67, 54
1, 226992, Control_c, 0, 67, 55
1, 227007, Control_c, 0, 64, 12
1, 227007, Control_c, 0, 67, 55
1, 227022, Control_c, 0, 64, 18
1, 227022, Control_c, 0, 67, 56
1, 227037, Control_c, 0, 64, 21
1, 227051, Control_c, 0, 64, 22
1, 227066, Control_c, 0, 64, 24
1, 227078, Note_off_c, 0, 57, 62
1, 227081, Control_c, 0, 64, 25
1, 227089, Note_on_c, 0, 52, 46
1, 227096, Control_c, 0, 64, 25
1, 227170, Control_c, 0, 64, 25
1, 227170, Control_c, 0, 67, 56
1, 227185, Control_c, 0, 64, 20
1, 227199, Control_c, 0, 64, 10
1, 227214, Control_c, 0, 64, 0
1, 227273, Control_c, 0, 67, 57
1, 227326, Note_on_c, 0, 51, 52
1, 227336, Note_off_c, 0, 52, 54
1, 227460, Control_c, 0, 67, 57
1, 227541, Note_off_c, 0, 51, 59
1, 227549, Control_c, 0, 67, 58
1, 227556, Note_on_c, 0, 54, 50
1, 227564, Control_c, 0, 67, 59
1, 227579, Control_c, 0, 67, 62
1, 227593, Control_c, 0, 67, 63
1, 227608, Control_c, 0, 67, 64
1, 227652, Control_c, 0, 67, 64
1, 227682, Control_c, 0, 67, 65
1, 227697, Control_c, 0, 67, 65
1, 227756, Control_c, 0, 67, 66
1, 227821, Note_on_c, 0, 49, 47
1, 227840, Note_off_c, 0, 54, 36
1, 228052, Note_off_c, 0, 49, 53
1, 228082, Note_on_c, 0, 48, 40
1, 228372, Control_c, 0, 67, 66
1, 228383, Note_on_c, 0, 51, 46
1, 228429, Note_off_c, 0, 48, 43
1, 228823, Control_c, 0, 67, 67
1, 228842, Note_off_c, 0, 51, 55
1, 228850, Note_on_c, 0, 45, 43
1, 228987, Control_c, 0, 67, 67
1, 229047, Control_c, 0, 67, 69
1, 229062, Control_c, 0, 67, 72
1, 229076, Control_c, 0, 67, 73
1, 229091, Control_c, 0, 67, 75
1, 229106, Control_c, 0, 67, 76
1, 229121, Control_c, 0, 67, 77
1, 229136, Control_c, 0, 67, 77
1, 229150, Control_c, 0, 67, 78
1, 229165, Control_c, 0, 67, 79
1, 229180, Control_c, 0, 67, 80
1, 229195, Control_c, 0, 67, 81
1, 229210, Control_c, 0, 67, 82
1, 229225, Control_c, 0, 67, 83
1, 229239, Control_c, 0, 67, 83
1, 229254, Control_c, 0, 67, 84
1, 229269, Control_c, 0, 67, 85
1, 229284, Control_c, 0, 67, 85
1, 229299, Control_c, 0, 67, 86
1, 229314, Control_c, 0, 67, 87
1, 229329, Control_c, 0, 67, 87
1, 229358, Control_c, 0, 67, 88
1, 229373, Control_c, 0, 67, 88
1, 229388, Control_c, 0, 67, 89
1, 229402, Control_c, 0, 67, 90
1, 229417, Control_c, 0, 67, 91
1, 229432, Control_c, 0, 67, 92
1, 229447, Control_c, 0, 67, 92
1, 229462, Control_c, 0, 67, 93
1, 229476, Control_c, 0, 67, 94
1, 229491, Control_c, 0, 67, 95
1, 229506, Control_c, 0, 67, 96
1, 229521, Control_c, 0, 67, 97
1, 229536, Control_c, 0, 67, 98
1, 229538, Note_on_c, 0, 44, 36
1, 229558, Control_c, 0, 67, 99
1, 229573, Control_c, 0, 67, 100
1, 229588, Control_c, 0, 67, 101
1, 229603, Control_c, 0, 67, 103
1, 229617, Control_c, 0, 67, 104
1, 229630, Note_off_c, 0, 45, 43
1, 229632, Control_c, 0, 67, 106
1, 229647, Control_c, 0, 67, 108
1, 229662, Control_c, 0, 67, 111
1, 229677, Control_c, 0, 67, 113
1, 229691, Control_c, 0, 64, 12
1, 229691, Control_c, 0, 67, 115
1, 229706, Control_c, 0, 64, 21
1, 229706, Control_c, 0, 67, 116
1, 229721, Control_c, 0, 64, 28
1, 229721, Control_c, 0, 67, 118
1, 229736, Control_c, 0, 64, 36
1, 229736, Control_c, 0, 67, 119
1, 229751, Control_c, 0, 64, 42
1, 229751, Control_c, 0, 67, 121
1, 229765, Control_c, 0, 64, 46
1, 229765, Control_c, 0, 67, 122
1, 229781, Control_c, 0, 64, 49
1, 229781, Control_c, 0, 67, 123
1, 229796, Control_c, 0, 64, 51
1, 229796, Control_c, 0, 67, 124
1, 229811, Control_c, 0, 64, 52
1, 229811, Control_c, 0, 67, 124
1, 229825, Control_c, 0, 64, 53
1, 229840, Control_c, 0, 64, 55
1, 229840, Control_c, 0, 67, 125
1, 229855, Control_c, 0, 64, 56
1, 229870, Control_c, 0, 64, 57
1, 229885, Control_c, 0, 64, 59
1, 229885, Control_c, 0, 67, 125
1, 229899, Control_c, 0, 64, 60
1, 229914, Control_c, 0, 64, 61
1, 229914, Control_c, 0, 67, 126
1, 229929, Control_c, 0, 64, 62
1, 229929, Control_c, 0, 67, 127
1, 229944, Control_c, 0, 64, 64
1, 229959, Control_c, 0, 64, 65
1, 229973, Control_c, 0, 64, 67
1, 229988, Control_c, 0, 64, 70
1, 230003, Control_c, 0, 64, 71
1, 230018, Control_c, 0, 64, 73
1, 230032, Control_c, 0, 64, 74
1, 230047, Control_c, 0, 64, 75
1, 230062, Control_c, 0, 64, 76
1, 230077, Control_c, 0, 64, 78
1, 230092, Control_c, 0, 64, 80
1, 230107, Control_c, 0, 64, 82
1, 230122, Control_c, 0, 64, 83
1, 230137, Control_c, 0, 64, 85
1, 230152, Control_c, 0, 64, 86
1, 230166, Control_c, 0, 64, 87
1, 230181, Control_c, 0, 64, 88
1, 230196, Control_c, 0, 64, 89
1, 230211, Control_c, 0, 64, 90
1, 230225, Control_c, 0, 64, 90
1, 230240, Control_c, 0, 64, 91
1, 230255, Control_c, 0, 64, 92
1, 230270, Control_c, 0, 64, 92
1, 230285, Control_c, 0, 64, 93
1, 230322, Control_c, 0, 64, 93
1, 230336, Control_c, 0, 64, 94
1, 230557, Control_c, 0, 64, 93
1, 230562, Note_on_c, 0, 43, 43
1, 230574, Control_c, 0, 64, 91
1, 230579, Note_on_c, 0, 31, 40
1, 230586, Note_off_c, 0, 44, 35
1, 230589, Control_c, 0, 64, 90
1, 230603, Control_c, 0, 64, 88
1, 230618, Control_c, 0, 64, 85
1, 230633, Control_c, 0, 64, 82
1, 230648, Control_c, 0, 64, 78
1, 230662, Control_c, 0, 64, 74
1, 230677, Control_c, 0, 64, 68
1, 230692, Control_c, 0, 64, 61
1, 230707, Control_c, 0, 64, 48
1, 230721, Control_c, 0, 64, 20
1, 230736, Control_c, 0, 64, 0
1, 230915, Control_c, 0, 64, 24
1, 230929, Control_c, 0, 64, 36
1, 230944, Control_c, 0, 64, 43
1, 230959, Control_c, 0, 64, 49
1, 230973, Control_c, 0, 64, 52
1, 230988, Control_c, 0, 64, 53
1, 231003, Control_c, 0, 64, 54
1, 231018, Control_c, 0, 64, 55
1, 231033, Control_c, 0, 64, 57
1, 231055, Control_c, 0, 64, 59
1, 231070, Control_c, 0, 64, 61
1, 231085, Control_c, 0, 64, 63
1, 231100, Control_c, 0, 64, 63
1, 231114, Control_c, 0, 64, 64
1, 231129, Control_c, 0, 64, 64
1, 231144, Control_c, 0, 64, 65
1, 231159, Control_c, 0, 64, 67
1, 231174, Control_c, 0, 64, 69
1, 231188, Control_c, 0, 64, 70
1, 231203, Control_c, 0, 64, 71
1, 231218, Control_c, 0, 64, 72
1, 231233, Control_c, 0, 64, 73
1, 231248, Control_c, 0, 64, 74
1, 231262, Control_c, 0, 64, 75
1, 231277, Control_c, 0, 64, 76
1, 231292, Control_c, 0, 64, 77
1, 231307, Control_c, 0, 64, 78
1, 231322, Control_c, 0, 64, 79
1, 231336, Control_c, 0, 64, 80
1, 231351, Control_c, 0, 64, 81
1, 231366, Control_c, 0, 64, 82
1, 231382, Control_c, 0, 64, 83
1, 231396, Control_c, 0, 64, 84
1, 231411, Control_c, 0, 64, 85
1, 231426, Control_c, 0, 64, 87
1, 231441, Control_c, 0, 64, 88
1, 231456, Control_c, 0, 64, 89
1, 231471, Control_c, 0, 64, 90
1, 231485, Control_c, 0, 64, 91
1, 231500, Control_c, 0, 64, 93
1, 231515, Control_c, 0, 64, 94
1, 231530, Control_c, 0, 64, 95
1, 231545, Control_c, 0, 64, 96
1, 231559, Control_c, 0, 64, 97
1, 231574, Control_c, 0, 64, 98
1, 231589, Control_c, 0, 64, 99
1, 231603, Control_c, 0, 64, 99
1, 231618, Control_c, 0, 64, 100
1, 231633, Control_c, 0, 64, 101
1, 231648, Control_c, 0, 64, 102
1, 231663, Control_c, 0, 64, 103
1, 231678, Control_c, 0, 64, 103
1, 231693, Control_c, 0, 64, 104
1, 231723, Control_c, 0, 64, 104
1, 231737, Control_c, 0, 64, 105
1, 231767, Control_c, 0, 64, 105
1, 231782, Control_c, 0, 64, 106
1, 231803, Control_c, 0, 64, 106
1, 231833, Control_c, 0, 64, 107
1, 231863, Control_c, 0, 64, 107
1, 231878, Control_c, 0, 64, 108
1, 231892, Control_c, 0, 64, 108
1, 231907, Control_c, 0, 64, 109
1, 231922, Control_c, 0, 64, 109
1, 231937, Control_c, 0, 64, 110
1, 231967, Control_c, 0, 64, 110
1, 232012, Control_c, 0, 64, 111
1, 232071, Control_c, 0, 64, 111
1, 232116, Control_c, 0, 64, 112
1, 233162, Control_c, 0, 64, 110
1, 233176, Control_c, 0, 64, 109
1, 233191, Control_c, 0, 64, 107
1, 233206, Control_c, 0, 64, 105
1, 233221, Control_c, 0, 64, 102
1, 233236, Control_c, 0, 64, 100
1, 233250, Control_c, 0, 64, 96
1, 233251, Note_on_c, 0, 44, 39
1, 233257, Note_on_c, 0, 32, 28
1, 233265, Control_c, 0, 64, 93
1, 233280, Control_c, 0, 64, 89
1, 233302, Control_c, 0, 64, 85
1, 233317, Control_c, 0, 64, 80
1, 233332, Control_c, 0, 64, 76
1, 233347, Control_c, 0, 64, 72
1, 233362, Control_c, 0, 64, 67
1, 233376, Control_c, 0, 64, 63
1, 233389, Note_off_c, 0, 31, 38
1, 233391, Control_c, 0, 64, 57
1, 233406, Control_c, 0, 64, 52
1, 233416, Note_off_c, 0, 43, 37
1, 233421, Control_c, 0, 64, 50
1, 233436, Control_c, 0, 64, 49
1, 233450, Control_c, 0, 64, 45
1, 233465, Control_c, 0, 64, 34
1, 233480, Control_c, 0, 64, 0
1, 233821, Control_c, 0, 64, 22
1, 233836, Control_c, 0, 64, 29
1, 233851, Control_c, 0, 64, 34
1, 233866, Control_c, 0, 64, 39
1, 233881, Control_c, 0, 64, 44
1, 233896, Control_c, 0, 64, 47
1, 233911, Control_c, 0, 64, 49
1, 233925, Control_c, 0, 64, 50
1, 233940, Control_c, 0, 64, 52
1, 233955, Control_c, 0, 64, 53
1, 233970, Control_c, 0, 64, 56
1, 233985, Control_c, 0, 64, 57
1, 233999, Control_c, 0, 64, 58
1, 234014, Control_c, 0, 64, 59
1, 234029, Control_c, 0, 64, 60
1, 234051, Control_c, 0, 64, 61
1, 234066, Control_c, 0, 64, 62
1, 234080, Control_c, 0, 64, 64
1, 234095, Control_c, 0, 64, 65
1, 234110, Control_c, 0, 64, 65
1, 234125, Control_c, 0, 64, 66
1, 234140, Control_c, 0, 64, 67
1, 234155, Control_c, 0, 64, 68
1, 234170, Control_c, 0, 64, 70
1, 234185, Control_c, 0, 64, 71
1, 234199, Control_c, 0, 64, 72
1, 234214, Control_c, 0, 64, 73
1, 234229, Control_c, 0, 64, 73
1, 234244, Control_c, 0, 64, 74
1, 234257, Control_c, 0, 64, 75
1, 234271, Control_c, 0, 64, 76
1, 234286, Control_c, 0, 64, 77
1, 234301, Control_c, 0, 64, 78
1, 234316, Control_c, 0, 64, 78
1, 234331, Control_c, 0, 64, 79
1, 234346, Control_c, 0, 64, 80
1, 234361, Control_c, 0, 64, 81
1, 234376, Control_c, 0, 64, 81
1, 234390, Control_c, 0, 64, 82
1, 234405, Control_c, 0, 64, 83
1, 234420, Control_c, 0, 64, 84
1, 234435, Control_c, 0, 64, 84
1, 234450, Control_c, 0, 64, 85
1, 234465, Control_c, 0, 64, 86
1, 234479, Control_c, 0, 64, 87
1, 234494, Control_c, 0, 64, 88
1, 234509, Control_c, 0, 64, 89
1, 234523, Control_c, 0, 64, 90
1, 234538, Control_c, 0, 64, 91
1, 234553, Control_c, 0, 64, 92
1, 234569, Control_c, 0, 64, 92
1, 234584, Control_c, 0, 64, 93
1, 234599, Control_c, 0, 64, 93
1, 234613, Control_c, 0, 64, 94
1, 234628, Control_c, 0, 64, 94
1, 234643, Control_c, 0, 64, 95
1, 234658, Control_c, 0, 64, 95
1, 234673, Control_c, 0, 64, 96
1, 234687, Control_c, 0, 64, 97
1, 234702, Control_c, 0, 64, 98
1, 234717, Control_c, 0, 64, 98
1, 234732, Control_c, 0, 64, 99
1, 234747, Control_c, 0, 64, 99
1, 234757, Note_off_c, 0, 32, 36
1, 234762, Control_c, 0, 64, 100
1, 234776, Control_c, 0, 64, 101
1, 234799, Control_c, 0, 64, 101
1, 234814, Control_c, 0, 64, 102
1, 234828, Control_c, 0, 64, 102
1, 234843, Control_c, 0, 64, 103
1, 234858, Control_c, 0, 64, 103
1, 234873, Control_c, 0, 64, 104
1, 234888, Control_c, 0, 64, 104
1, 234906, Note_off_c, 0, 44, 39
1, 234932, Control_c, 0, 64, 105
1, 234961, Control_c, 0, 64, 105
1, 235021, Control_c, 0, 64, 106
1, 235303, Control_c, 0, 64, 106
1, 235785, Control_c, 0, 64, 106
1, 236260, Control_c, 0, 64, 105
1, 236297, Control_c, 0, 64, 105
1, 236327, Control_c, 0, 64, 104
1, 236341, Control_c, 0, 64, 104
1, 236356, Control_c, 0, 64, 103
1, 236371, Control_c, 0, 64, 103
1, 236400, Control_c, 0, 64, 102
1, 236406, Note_on_c, 0, 49, 41
1, 236415, Control_c, 0, 64, 101
1, 236429, Note_on_c, 0, 37, 31
1, 236430, Control_c, 0, 64, 96
1, 236445, Control_c, 0, 64, 89
1, 236460, Control_c, 0, 64, 78
1, 236474, Control_c, 0, 64, 70
1, 236489, Control_c, 0, 64, 65
1, 236504, Control_c, 0, 64, 63
1, 236519, Control_c, 0, 64, 64
1, 236534, Control_c, 0, 64, 66
1, 236549, Control_c, 0, 64, 69
1, 236564, Control_c, 0, 64, 71
1, 236566, Note_off_c, 0, 49, 59
1, 236578, Control_c, 0, 64, 74
1, 236593, Control_c, 0, 64, 76
1, 236608, Control_c, 0, 64, 78
1, 236623, Control_c, 0, 64, 80
1, 236638, Control_c, 0, 64, 82
1, 236653, Control_c, 0, 64, 84
1, 236667, Control_c, 0, 64, 85
1, 236682, Control_c, 0, 64, 86
1, 236697, Control_c, 0, 64, 88
1, 236701, Note_on_c, 0, 49, 8
1, 236710, Note_off_c, 0, 37, 32
1, 236712, Control_c, 0, 64, 89
1, 236727, Control_c, 0, 64, 90
1, 236748, Note_off_c, 0, 49, 50
1, 236756, Control_c, 0, 64, 90
1, 236771, Control_c, 0, 64, 91
1, 236777, Note_on_c, 0, 44, 36
1, 236786, Control_c, 0, 64, 91
1, 236800, Control_c, 0, 64, 92
1, 236815, Control_c, 0, 64, 93
1, 236830, Control_c, 0, 64, 93
1, 236854, Note_on_c, 0, 49, 36
1, 236858, Note_off_c, 0, 44, 39
1, 236874, Control_c, 0, 64, 94
1, 236889, Control_c, 0, 64, 94
1, 236894, Note_off_c, 0, 49, 49
1, 236918, Control_c, 0, 64, 94
1, 236927, Note_on_c, 0, 37, 48
1, 236933, Control_c, 0, 64, 92
1, 236948, Control_c, 0, 64, 90
1, 236964, Control_c, 0, 64, 89
1, 236979, Control_c, 0, 64, 88
1, 236996, Note_on_c, 0, 49, 41
1, 237043, Note_off_c, 0, 49, 50
1, 237064, Note_off_c, 0, 37, 27
1, 237075, Note_on_c, 0, 44, 45
1, 237115, Note_off_c, 0, 44, 47
1, 237138, Note_on_c, 0, 49, 49
1, 237179, Note_off_c, 0, 49, 58
1, 237214, Note_on_c, 0, 37, 42
1, 237286, Note_off_c, 0, 37, 38
1, 237291, Note_on_c, 0, 49, 31
1, 237319, Note_off_c, 0, 49, 55
1, 237346, Note_on_c, 0, 44, 40
1, 237386, Note_off_c, 0, 44, 47
1, 237414, Note_on_c, 0, 49, 43
1, 237415, Control_c, 0, 64, 88
1, 237430, Control_c, 0, 64, 86
1, 237445, Control_c, 0, 64, 81
1, 237460, Control_c, 0, 64, 76
1, 237468, Note_off_c, 0, 49, 52
1, 237475, Control_c, 0, 64, 70
1, 237489, Control_c, 0, 64, 66
1, 237504, Control_c, 0, 64, 65
1, 237511, Note_on_c, 0, 64, 51
1, 237519, Control_c, 0, 64, 66
1, 237520, Note_on_c, 0, 37, 40
1, 237533, Control_c, 0, 64, 68
1, 237548, Control_c, 0, 64, 69
1, 237563, Control_c, 0, 64, 71
1, 237578, Control_c, 0, 64, 73
1, 237593, Control_c, 0, 64, 76
1, 237597, Note_on_c, 0, 49, 32
1, 237608, Note_off_c, 0, 37, 37
1, 237608, Control_c, 0, 64, 78
1, 237622, Control_c, 0, 64, 80
1, 237633, Note_off_c, 0, 49, 54
1, 237637, Control_c, 0, 64, 81
1, 237652, Control_c, 0, 64, 82
1, 237678, Note_on_c, 0, 44, 21
1, 237682, Control_c, 0, 64, 82
1, 237696, Control_c, 0, 64, 83
1, 237717, Note_off_c, 0, 44, 50
1, 237726, Control_c, 0, 64, 83
1, 237727, Note_on_c, 0, 49, 46
1, 237768, Note_off_c, 0, 64, 59
1, 237773, Note_off_c, 0, 49, 60
1, 237790, Note_on_c, 0, 61, 47
1, 237794, Control_c, 0, 64, 83
1, 237809, Control_c, 0, 64, 78
1, 237824, Control_c, 0, 64, 72
1, 237838, Note_off_c, 0, 61, 57
1, 237839, Control_c, 0, 64, 63
1, 237842, Note_on_c, 0, 37, 44
1, 237853, Control_c, 0, 64, 51
1, 237858, Note_on_c, 0, 60, 50
1, 237868, Control_c, 0, 64, 44
1, 237883, Control_c, 0, 64, 51
1, 237898, Control_c, 0, 64, 58
1, 237904, Note_off_c, 0, 37, 51
1, 237913, Control_c, 0, 64, 64
1, 237927, Control_c, 0, 64, 68
1, 237942, Control_c, 0, 64, 72
1, 237957, Control_c, 0, 64, 76
1, 237971, Control_c, 0, 64, 80
1, 237977, Note_on_c, 0, 51, 15
1, 237986, Control_c, 0, 64, 83
1, 238001, Control_c, 0, 64, 85
1, 238016, Control_c, 0, 64, 87
1, 238024, Note_off_c, 0, 51, 53
1, 238027, Note_on_c, 0, 44, 40
1, 238029, Note_off_c, 0, 60, 59
1, 238031, Control_c, 0, 64, 89
1, 238045, Control_c, 0, 64, 91
1, 238060, Control_c, 0, 64, 93
1, 238075, Control_c, 0, 64, 94
1, 238076, Note_off_c, 0, 44, 44
1, 238090, Control_c, 0, 67, 127
1, 238105, Control_c, 0, 64, 95
1, 238105, Control_c, 0, 67, 124
1, 238120, Control_c, 0, 64, 95
1, 238120, Control_c, 0, 67, 122
1, 238134, Control_c, 0, 64, 96
1, 238134, Control_c, 0, 67, 121
1, 238149, Control_c, 0, 64, 96
1, 238149, Control_c, 0, 67, 120
1, 238160, Poly_aftertouch_c, 0, 51, 127
1, 238164, Control_c, 0, 64, 97
1, 238190, Note_on_c, 0, 37, 44
1, 238211, Poly_aftertouch_c, 0, 51, 0
1, 238215, Note_on_c, 0, 68, 54
1, 238224, Control_c, 0, 64, 95
1, 238238, Control_c, 0, 64, 90
1, 238247, Note_on_c, 0, 60, 37
1, 238248, Note_on_c, 0, 54, 38
1, 238253, Control_c, 0, 64, 82
1, 238253, Control_c, 0, 67, 120
1, 238268, Control_c, 0, 64, 76
1, 238283, Control_c, 0, 64, 70
1, 238289, Note_off_c, 0, 37, 37
1, 238298, Control_c, 0, 64, 68
1, 238298, Control_c, 0, 67, 119
1, 238312, Control_c, 0, 64, 68
1, 238312, Control_c, 0, 67, 118
1, 238314, Poly_aftertouch_c, 0, 51, 127
1, 238327, Control_c, 0, 64, 70
1, 238327, Control_c, 0, 67, 116
1, 238342, Control_c, 0, 64, 73
1, 238342, Control_c, 0, 67, 114
1, 238353, Poly_aftertouch_c, 0, 51, 0
1, 238356, Control_c, 0, 64, 76
1, 238356, Control_c, 0, 67, 112
1, 238370, Note_on_c, 0, 44, 37
1, 238371, Control_c, 0, 64, 79
1, 238371, Control_c, 0, 67, 110
1, 238386, Control_c, 0, 64, 83
1, 238386, Control_c, 0, 67, 106
1, 238395, Note_off_c, 0, 60, 56
1, 238400, Note_off_c, 0, 68, 58
1, 238401, Control_c, 0, 64, 85
1, 238401, Control_c, 0, 67, 103
1, 238410, Note_off_c, 0, 44, 48
1, 238416, Control_c, 0, 64, 87
1, 238416, Control_c, 0, 67, 99
1, 238424, Note_off_c, 0, 54, 41
1, 238430, Control_c, 0, 64, 89
1, 238430, Control_c, 0, 67, 97
1, 238445, Control_c, 0, 64, 92
1, 238445, Control_c, 0, 67, 96
1, 238460, Control_c, 0, 64, 94
1, 238461, Note_on_c, 0, 51, 30
1, 238475, Control_c, 0, 64, 94
1, 238475, Control_c, 0, 67, 97
1, 238501, Note_off_c, 0, 51, 52
1, 238505, Control_c, 0, 64, 91
1, 238517, Note_on_c, 0, 37, 55
1, 238519, Control_c, 0, 64, 85
1, 238519, Control_c, 0, 67, 97
1, 238541, Note_on_c, 0, 68, 61
1, 238542, Control_c, 0, 64, 76
1, 238557, Control_c, 0, 64, 69
1, 238572, Note_on_c, 0, 60, 45
1, 238573, Note_on_c, 0, 54, 39
1, 238573, Control_c, 0, 64, 66
1, 238602, Note_on_c, 0, 51, 41
1, 238602, Control_c, 0, 64, 68
1, 238602, Note_off_c, 0, 37, 46
1, 238617, Control_c, 0, 64, 71
1, 238632, Control_c, 0, 64, 74
1, 238647, Control_c, 0, 64, 76
1, 238648, Note_off_c, 0, 51, 55
1, 238662, Control_c, 0, 64, 78
1, 238676, Control_c, 0, 64, 80
1, 238682, Note_on_c, 0, 44, 46
1, 238691, Control_c, 0, 64, 82
1, 238706, Control_c, 0, 64, 85
1, 238714, Note_off_c, 0, 60, 38
1, 238721, Note_off_c, 0, 44, 55
1, 238721, Control_c, 0, 64, 88
1, 238729, Note_off_c, 0, 68, 51
1, 238736, Control_c, 0, 64, 91
1, 238736, Control_c, 0, 67, 98
1, 238749, Note_on_c, 0, 51, 54
1, 238751, Control_c, 0, 64, 94
1, 238754, Note_off_c, 0, 54, 38
1, 238766, Control_c, 0, 64, 96
1, 238766, Control_c, 0, 67, 98
1, 238781, Control_c, 0, 64, 98
1, 238781, Control_c, 0, 67, 99
1, 238790, Note_off_c, 0, 51, 60
1, 238795, Control_c, 0, 64, 99
1, 238795, Control_c, 0, 67, 99
1, 238825, Control_c, 0, 64, 95
1, 238840, Control_c, 0, 64, 88
1, 238840, Control_c, 0, 67, 100
1, 238842, Note_on_c, 0, 37, 52
1, 238855, Control_c, 0, 64, 78
1, 238860, Note_on_c, 0, 68, 60
1, 238869, Control_c, 0, 64, 69
1, 238870, Note_on_c, 0, 54, 50
1, 238876, Note_on_c, 0, 60, 48
1, 238884, Control_c, 0, 64, 62
1, 238899, Control_c, 0, 64, 59
1, 238901, Note_off_c, 0, 68, 62
1, 238909, Note_off_c, 0, 37, 43
1, 238914, Note_on_c, 0, 51, 30
1, 238914, Control_c, 0, 64, 62
1, 238929, Note_off_c, 0, 54, 61
1, 238929, Control_c, 0, 64, 66
1, 238943, Control_c, 0, 64, 71
1, 238947, Note_off_c, 0, 51, 54
1, 238958, Control_c, 0, 64, 76
1, 238965, Note_on_c, 0, 44, 44
1, 238973, Control_c, 0, 64, 80
1, 238980, Note_off_c, 0, 60, 53
1, 238987, Control_c, 0, 64, 83
1, 238996, Note_off_c, 0, 44, 53
1, 239002, Control_c, 0, 64, 84
1, 239017, Control_c, 0, 64, 86
1, 239026, Note_on_c, 0, 51, 56
1, 239032, Control_c, 0, 64, 87
1, 239047, Control_c, 0, 64, 89
1, 239062, Control_c, 0, 64, 91
1, 239076, Control_c, 0, 64, 93
1, 239083, Note_on_c, 0, 52, 56
1, 239091, Control_c, 0, 64, 94
1, 239112, Note_off_c, 0, 52, 55
1, 239114, Note_off_c, 0, 51, 37
1, 239136, Control_c, 0, 67, 100
1, 239139, Note_on_c, 0, 61, 62
1, 239181, Control_c, 0, 67, 101
1, 239195, Control_c, 0, 67, 101
1, 239210, Control_c, 0, 64, 91
1, 239225, Control_c, 0, 64, 84
1, 239240, Control_c, 0, 64, 71
1, 239240, Control_c, 0, 67, 102
1, 239254, Control_c, 0, 64, 52
1, 239254, Control_c, 0, 67, 101
1, 239267, Note_on_c, 0, 37, 45
1, 239269, Control_c, 0, 64, 0
1, 239273, Note_on_c, 0, 68, 60
1, 239336, Control_c, 0, 64, 40
1, 239351, Control_c, 0, 64, 56
1, 239359, Note_off_c, 0, 37, 57
1, 239366, Control_c, 0, 64, 62
1, 239375, Note_on_c, 0, 49, 31
1, 239381, Control_c, 0, 64, 65
1, 239396, Control_c, 0, 64, 69
1, 239396, Control_c, 0, 67, 101
1, 239410, Control_c, 0, 64, 74
1, 239415, Note_off_c, 0, 49, 53
1, 239425, Control_c, 0, 64, 79
1, 239440, Control_c, 0, 64, 82
1, 239446, Note_on_c, 0, 44, 43
1, 239455, Control_c, 0, 64, 84
1, 239470, Control_c, 0, 64, 85
1, 239485, Control_c, 0, 64, 86
1, 239489, Note_off_c, 0, 44, 45
1, 239500, Control_c, 0, 64, 88
1, 239500, Control_c, 0, 67, 100
1, 239507, Note_on_c, 0, 49, 54
1, 239515, Control_c, 0, 64, 91
1, 239530, Control_c, 0, 64, 94
1, 239530, Control_c, 0, 67, 101
1, 239544, Control_c, 0, 64, 97
1, 239551, Note_off_c, 0, 49, 60
1, 239559, Control_c, 0, 67, 101
1, 239574, Control_c, 0, 64, 96
1, 239589, Control_c, 0, 64, 86
1, 239589, Control_c, 0, 67, 102
1, 239598, Note_on_c, 0, 37, 51
1, 239604, Control_c, 0, 64, 74
1, 239618, Control_c, 0, 64, 63
1, 239633, Control_c, 0, 64, 52
1, 239648, Control_c, 0, 64, 55
1, 239656, Note_off_c, 0, 37, 43
1, 239663, Note_on_c, 0, 49, 30
1, 239663, Control_c, 0, 64, 61
1, 239678, Control_c, 0, 64, 67
1, 239692, Control_c, 0, 64, 74
1, 239696, Note_off_c, 0, 49, 55
1, 239707, Control_c, 0, 64, 81
1, 239711, Note_on_c, 0, 44, 50
1, 239722, Control_c, 0, 64, 86
1, 239726, Note_off_c, 0, 61, 63
1, 239736, Control_c, 0, 64, 90
1, 239749, Note_off_c, 0, 44, 61
1, 239751, Control_c, 0, 64, 92
1, 239751, Control_c, 0, 67, 102
1, 239756, Note_off_c, 0, 68, 65
1, 239766, Control_c, 0, 64, 94
1, 239766, Control_c, 0, 67, 101
1, 239777, Note_on_c, 0, 49, 61
1, 239781, Control_c, 0, 64, 96
1, 239796, Control_c, 0, 64, 99
1, 239810, Control_c, 0, 64, 101
1, 239819, Note_off_c, 0, 49, 60
1, 239825, Control_c, 0, 64, 103
1, 239840, Control_c, 0, 64, 103
1, 239870, Control_c, 0, 64, 104
1, 239872, Note_on_c, 0, 37, 50
1, 239923, Note_off_c, 0, 37, 45
1, 239932, Note_on_c, 0, 49, 48
1, 239969, Note_off_c, 0, 49, 59
1, 239992, Note_on_c, 0, 44, 45
1, 240037, Note_off_c, 0, 44, 48
1, 240067, Note_on_c, 0, 49, 55
1, 240070, Control_c, 0, 64, 104
1, 240099, Control_c, 0, 67, 102
1, 240106, Note_off_c, 0, 49, 61
1, 240129, Control_c, 0, 64, 104
1, 240144, Control_c, 0, 64, 95
1, 240155, Note_on_c, 0, 37, 52
1, 240159, Control_c, 0, 64, 79
1, 240159, Control_c, 0, 67, 102
1, 240169, Note_on_c, 0, 76, 62
1, 240174, Control_c, 0, 64, 66
1, 240189, Control_c, 0, 64, 49
1, 240192, Note_off_c, 0, 37, 47
1, 240204, Control_c, 0, 64, 32
1, 240204, Control_c, 0, 67, 102
1, 240219, Control_c, 0, 64, 40
1, 240219, Control_c, 0, 67, 101
1, 240224, Note_on_c, 0, 49, 41
1, 240233, Control_c, 0, 64, 54
1, 240248, Control_c, 0, 64, 63
1, 240263, Note_off_c, 0, 49, 58
1, 240263, Control_c, 0, 64, 70
1, 240278, Control_c, 0, 64, 76
1, 240293, Control_c, 0, 64, 82
1, 240299, Note_on_c, 0, 44, 38
1, 240308, Control_c, 0, 64, 86
1, 240308, Control_c, 0, 67, 101
1, 240322, Control_c, 0, 64, 90
1, 240337, Note_off_c, 0, 44, 48
1, 240337, Control_c, 0, 64, 94
1, 240337, Control_c, 0, 67, 100
1, 240352, Control_c, 0, 64, 101
1, 240355, Note_on_c, 0, 49, 54
1, 240367, Control_c, 0, 64, 110
1, 240382, Control_c, 0, 64, 127
1, 240382, Control_c, 0, 67, 101
1, 240396, Note_on_c, 0, 73, 59
1, 240396, Note_off_c, 0, 76, 60
1, 240398, Note_off_c, 0, 49, 57
1, 240412, Control_c, 0, 67, 101
1, 240427, Control_c, 0, 64, 114
1, 240435, Note_off_c, 0, 73, 61
1, 240441, Control_c, 0, 64, 88
1, 240454, Note_on_c, 0, 72, 63
1, 240456, Control_c, 0, 64, 68
1, 240456, Control_c, 0, 67, 101
1, 240468, Note_on_c, 0, 37, 43
1, 240471, Control_c, 0, 64, 37
1, 240486, Control_c, 0, 64, 0
1, 240486, Control_c, 0, 67, 100
1, 240501, Control_c, 0, 64, 25
1, 240501, Control_c, 0, 67, 99
1, 240508, Note_off_c, 0, 37, 60
1, 240515, Control_c, 0, 64, 55
1, 240530, Control_c, 0, 64, 67
1, 240545, Control_c, 0, 64, 76
1, 240553, Note_on_c, 0, 51, 43
1, 240559, Control_c, 0, 64, 85
1, 240574, Control_c, 0, 64, 92
1, 240589, Control_c, 0, 64, 96
1, 240592, Note_off_c, 0, 51, 50
1, 240604, Control_c, 0, 64, 99
1, 240604, Control_c, 0, 67, 99
1, 240619, Control_c, 0, 64, 101
1, 240632, Note_off_c, 0, 72, 59
1, 240633, Control_c, 0, 64, 105
1, 240634, Note_on_c, 0, 44, 36
1, 240648, Control_c, 0, 64, 109
1, 240663, Control_c, 0, 64, 113
1, 240673, Note_off_c, 0, 44, 48
1, 240678, Control_c, 0, 64, 115
1, 240682, Note_on_c, 0, 51, 53
1, 240693, Control_c, 0, 64, 116
1, 240707, Control_c, 0, 64, 116
1, 240722, Control_c, 0, 64, 117
1, 240728, Note_off_c, 0, 51, 59
1, 240752, Control_c, 0, 64, 114
1, 240767, Control_c, 0, 64, 103
1, 240789, Control_c, 0, 64, 90
1, 240799, Note_on_c, 0, 80, 59
1, 240800, Note_on_c, 0, 37, 44
1, 240804, Control_c, 0, 64, 78
1, 240812, Note_on_c, 0, 72, 39
1, 240819, Control_c, 0, 64, 69
1, 240834, Control_c, 0, 64, 64
1, 240834, Control_c, 0, 67, 98
1, 240836, Note_on_c, 0, 66, 38
1, 240847, Note_off_c, 0, 37, 43
1, 240848, Control_c, 0, 64, 65
1, 240858, Note_on_c, 0, 51, 36
1, 240863, Control_c, 0, 64, 69
1, 240863, Control_c, 0, 67, 98
1, 240878, Control_c, 0, 64, 75
1, 240892, Control_c, 0, 64, 82
1, 240907, Control_c, 0, 64, 88
1, 240913, Note_off_c, 0, 51, 42
1, 240922, Control_c, 0, 64, 93
1, 240937, Control_c, 0, 64, 95
1, 240952, Control_c, 0, 64, 97
1, 240963, Note_on_c, 0, 44, 41
1, 240968, Control_c, 0, 64, 100
1, 240970, Note_off_c, 0, 72, 53
1, 240982, Control_c, 0, 64, 105
1, 240988, Note_off_c, 0, 66, 45
1, 240990, Note_off_c, 0, 80, 58
1, 240996, Control_c, 0, 64, 110
1, 240996, Control_c, 0, 67, 98
1, 241005, Note_off_c, 0, 44, 46
1, 241020, Note_on_c, 0, 51, 53
1, 241026, Control_c, 0, 64, 106
1, 241041, Control_c, 0, 64, 96
1, 241056, Control_c, 0, 64, 85
1, 241068, Note_off_c, 0, 51, 58
1, 241071, Control_c, 0, 64, 75
1, 241086, Control_c, 0, 64, 68
1, 241086, Control_c, 0, 67, 98
1, 241100, Control_c, 0, 64, 66
1, 241115, Control_c, 0, 64, 69
1, 241118, Note_on_c, 0, 80, 55
1, 241121, Note_on_c, 0, 37, 48
1, 241130, Control_c, 0, 64, 75
1, 241136, Note_on_c, 0, 66, 41
1, 241145, Control_c, 0, 64, 82
1, 241147, Note_on_c, 0, 72, 46
1, 241160, Control_c, 0, 64, 90
1, 241175, Control_c, 0, 64, 96
1, 241175, Control_c, 0, 67, 97
1, 241178, Note_on_c, 0, 51, 49
1, 241189, Control_c, 0, 64, 101
1, 241204, Control_c, 0, 64, 107
1, 241209, Note_off_c, 0, 37, 37
1, 241219, Control_c, 0, 64, 115
1, 241234, Control_c, 0, 64, 127
1, 241238, Note_off_c, 0, 51, 59
1, 241258, Note_on_c, 0, 44, 52
1, 241259, Note_off_c, 0, 72, 57
1, 241277, Note_off_c, 0, 80, 56
1, 241278, Control_c, 0, 64, 120
1, 241278, Control_c, 0, 67, 98
1, 241293, Control_c, 0, 64, 98
1, 241301, Note_off_c, 0, 44, 57
1, 241308, Control_c, 0, 64, 83
1, 241309, Note_off_c, 0, 66, 37
1, 241323, Control_c, 0, 64, 72
1, 241337, Control_c, 0, 64, 66
1, 241337, Control_c, 0, 67, 97
1, 241348, Note_on_c, 0, 51, 49
1, 241367, Control_c, 0, 64, 70
1, 241378, Note_off_c, 0, 51, 62
1, 241381, Control_c, 0, 64, 78
1, 241381, Control_c, 0, 67, 98
1, 241396, Control_c, 0, 64, 88
1, 241402, Note_on_c, 0, 80, 56
1, 241407, Note_on_c, 0, 66, 61
1, 241411, Control_c, 0, 64, 96
1, 241411, Control_c, 0, 67, 98
1, 241417, Note_on_c, 0, 72, 52
1, 241423, Note_on_c, 0, 37, 51
1, 241426, Control_c, 0, 64, 101
1, 241431, Note_off_c, 0, 80, 51
1, 241441, Control_c, 0, 64, 103
1, 241455, Control_c, 0, 64, 104
1, 241459, Note_off_c, 0, 66, 58
1, 241461, Note_off_c, 0, 37, 48
1, 241467, Note_on_c, 0, 51, 54
1, 241470, Control_c, 0, 64, 105
1, 241485, Control_c, 0, 64, 107
1, 241485, Control_c, 0, 67, 99
1, 241500, Control_c, 0, 64, 110
1, 241510, Note_off_c, 0, 72, 53
1, 241515, Note_off_c, 0, 51, 59
1, 241515, Control_c, 0, 64, 113
1, 241537, Control_c, 0, 64, 115
1, 241537, Control_c, 0, 67, 99
1, 241552, Control_c, 0, 64, 117
1, 241567, Control_c, 0, 64, 118
1, 241567, Control_c, 0, 67, 100
1, 241582, Control_c, 0, 64, 120
1, 241596, Control_c, 0, 64, 123
1, 241596, Control_c, 0, 67, 100
1, 241611, Control_c, 0, 64, 125
1, 241611, Control_c, 0, 67, 101
1, 241615, Note_on_c, 0, 64, 58
1, 241638, Note_off_c, 0, 64, 64
1, 241641, Control_c, 0, 64, 115
1, 241641, Control_c, 0, 67, 101
1, 241656, Control_c, 0, 64, 97
1, 241661, Note_on_c, 0, 73, 66
1, 241670, Control_c, 0, 64, 79
1, 241685, Control_c, 0, 64, 60
1, 241700, Control_c, 0, 64, 28
1, 241715, Control_c, 0, 64, 18
1, 241715, Control_c, 0, 67, 101
1, 241729, Note_on_c, 0, 37, 39
1, 241729, Control_c, 0, 64, 44
1, 241729, Control_c, 0, 67, 100
1, 241745, Control_c, 0, 64, 60
1, 241761, Control_c, 0, 64, 67
1, 241776, Control_c, 0, 64, 75
1, 241780, Note_on_c, 0, 80, 62
1, 241791, Control_c, 0, 64, 80
1, 241794, Note_off_c, 0, 37, 53
1, 241805, Control_c, 0, 64, 83
1, 241820, Control_c, 0, 64, 84
1, 241820, Control_c, 0, 67, 100
1, 241821, Note_on_c, 0, 49, 44
1, 241835, Control_c, 0, 64, 85
1, 241835, Control_c, 0, 67, 99
1, 241850, Control_c, 0, 64, 87
1, 241865, Note_off_c, 0, 49, 48
1, 241865, Control_c, 0, 64, 90
1, 241880, Control_c, 0, 64, 92
1, 241899, Note_on_c, 0, 44, 48
1, 241924, Control_c, 0, 67, 99
1, 241938, Control_c, 0, 67, 98
1, 241948, Note_off_c, 0, 44, 58
1, 241953, Control_c, 0, 64, 93
1, 241953, Control_c, 0, 67, 98
1, 241964, Note_on_c, 0, 49, 53
1, 241968, Control_c, 0, 64, 94
1, 241968, Control_c, 0, 67, 97
1, 241983, Control_c, 0, 64, 95
1, 241998, Control_c, 0, 64, 96
1, 241998, Control_c, 0, 67, 97
1, 242004, Note_off_c, 0, 49, 62
1, 242013, Control_c, 0, 64, 96
1, 242028, Control_c, 0, 64, 97
1, 242042, Control_c, 0, 64, 98
1, 242042, Control_c, 0, 67, 96
1, 242046, Note_off_c, 0, 73, 62
1, 242054, Note_on_c, 0, 37, 50
1, 242057, Control_c, 0, 64, 100
1, 242072, Control_c, 0, 64, 103
1, 242072, Control_c, 0, 67, 96
1, 242087, Control_c, 0, 64, 105
1, 242087, Control_c, 0, 67, 95
1, 242102, Control_c, 0, 64, 107
1, 242102, Control_c, 0, 67, 94
1, 242111, Note_on_c, 0, 49, 51
1, 242114, Note_off_c, 0, 37, 42
1, 242117, Control_c, 0, 64, 108
1, 242117, Control_c, 0, 67, 90
1, 242120, Note_off_c, 0, 80, 37
1, 242131, Control_c, 0, 64, 110
1, 242131, Control_c, 0, 67, 85
1, 242143, Note_off_c, 0, 49, 64
1, 242146, Control_c, 0, 64, 114
1, 242146, Control_c, 0, 67, 80
1, 242161, Note_on_c, 0, 44, 53
1, 242161, Control_c, 0, 64, 122
1, 242161, Control_c, 0, 67, 76
1, 242176, Control_c, 0, 64, 127
1, 242176, Control_c, 0, 67, 72
1, 242191, Control_c, 0, 67, 67
1, 242196, Note_off_c, 0, 44, 61
1, 242205, Control_c, 0, 67, 62
1, 242220, Control_c, 0, 67, 59
1, 242223, Note_on_c, 0, 49, 59
1, 242235, Control_c, 0, 67, 58
1, 242265, Control_c, 0, 67, 59
1, 242287, Control_c, 0, 67, 60
1, 242293, Note_on_c, 0, 66, 59
1, 242302, Control_c, 0, 67, 60
1, 242313, Note_off_c, 0, 49, 39
1, 242317, Control_c, 0, 64, 123
1, 242317, Control_c, 0, 67, 61
1, 242332, Control_c, 0, 64, 94
1, 242332, Control_c, 0, 67, 62
1, 242338, Note_on_c, 0, 72, 60
1, 242346, Control_c, 0, 64, 70
1, 242346, Control_c, 0, 67, 63
1, 242358, Note_on_c, 0, 37, 53
1, 242361, Control_c, 0, 64, 47
1, 242376, Control_c, 0, 64, 0
1, 242389, Note_on_c, 0, 80, 69
1, 242391, Control_c, 0, 64, 33
1, 242406, Control_c, 0, 64, 55
1, 242420, Control_c, 0, 64, 65
1, 242427, Note_off_c, 0, 37, 53
1, 242435, Control_c, 0, 64, 74
1, 242448, Note_on_c, 0, 51, 61
1, 242450, Control_c, 0, 64, 84
1, 242465, Control_c, 0, 64, 94
1, 242480, Control_c, 0, 64, 100
1, 242493, Note_off_c, 0, 51, 59
1, 242494, Control_c, 0, 64, 103
1, 242509, Control_c, 0, 64, 103
1, 242524, Control_c, 0, 64, 105
1, 242525, Note_on_c, 0, 44, 63
1, 242537, Note_off_c, 0, 80, 62
1, 242538, Control_c, 0, 64, 110
1, 242553, Control_c, 0, 64, 119
1, 242564, Note_off_c, 0, 44, 60
1, 242569, Control_c, 0, 64, 127
1, 242569, Control_c, 0, 67, 62
1, 242596, Note_on_c, 0, 51, 67
1, 242599, Control_c, 0, 67, 62
1, 242600, Note_off_c, 0, 72, 52
1, 242614, Control_c, 0, 67, 61
1, 242634, Note_off_c, 0, 51, 62
1, 242639, Note_off_c, 0, 66, 55
1, 242643, Control_c, 0, 67, 61
1, 242658, Control_c, 0, 67, 60
1, 242674, Note_on_c, 0, 37, 65
1, 242688, Control_c, 0, 67, 59
1, 242703, Control_c, 0, 67, 59
1, 242719, Note_off_c, 0, 37, 59
1, 242726, Note_on_c, 0, 51, 58
1, 242732, Control_c, 0, 67, 58
1, 242747, Control_c, 0, 67, 58
1, 242758, Note_off_c, 0, 51, 64
1, 242761, Control_c, 0, 67, 56
1, 242776, Control_c, 0, 67, 51
1, 242791, Control_c, 0, 67, 46
1, 242797, Note_on_c, 0, 44, 41
1, 242806, Control_c, 0, 67, 41
1, 242821, Control_c, 0, 67, 37
1, 242825, Note_on_c, 0, 51, 69
1, 242829, Note_off_c, 0, 44, 51
1, 242835, Control_c, 0, 67, 35
1, 242840, Note_on_c, 0, 64, 70
1, 242874, Note_off_c, 0, 64, 65
1, 242888, Note_on_c, 0, 73, 67
1, 242889, Note_off_c, 0, 51, 60
1, 242925, Control_c, 0, 64, 105
1, 242940, Control_c, 0, 64, 83
1, 242940, Control_c, 0, 67, 36
1, 242954, Control_c, 0, 64, 66
1, 242965, Note_on_c, 0, 80, 84
1, 242969, Note_on_c, 0, 37, 74
1, 242969, Control_c, 0, 64, 54
1, 242984, Control_c, 0, 64, 56
1, 242999, Control_c, 0, 64, 64
1, 243014, Control_c, 0, 64, 73
1, 243035, Control_c, 0, 64, 87
1, 243050, Control_c, 0, 64, 106
1, 243057, Note_on_c, 0, 49, 70
1, 243059, Note_off_c, 0, 37, 60
1, 243065, Control_c, 0, 64, 127
1, 243116, Note_off_c, 0, 49, 62
1, 243122, Note_on_c, 0, 44, 66
1, 243165, Note_off_c, 0, 44, 57
1, 243183, Note_on_c, 0, 49, 71
1, 243214, Control_c, 0, 67, 33
1, 243229, Control_c, 0, 67, 28
1, 243233, Note_off_c, 0, 49, 60
1, 243243, Control_c, 0, 67, 15
1, 243256, Note_on_c, 0, 37, 77
1, 243258, Control_c, 0, 67, 0
1, 243315, Note_off_c, 0, 73, 62
1, 243324, Note_on_c, 0, 49, 63
1, 243326, Note_off_c, 0, 37, 62
1, 243338, Note_off_c, 0, 80, 33
1, 243352, Note_off_c, 0, 49, 67
1, 243366, Note_on_c, 0, 44, 66
1, 243428, Note_on_c, 0, 49, 75
1, 243441, Note_on_c, 0, 66, 73
1, 243459, Note_off_c, 0, 44, 52
1, 243483, Note_on_c, 0, 72, 71
1, 243491, Note_off_c, 0, 49, 61
1, 243526, Control_c, 0, 64, 104
1, 243530, Note_on_c, 0, 37, 82
1, 243536, Note_on_c, 0, 80, 95
1, 243540, Control_c, 0, 64, 81
1, 243555, Control_c, 0, 64, 66
1, 243570, Control_c, 0, 64, 60
1, 243584, Control_c, 0, 64, 65
1, 243596, Note_off_c, 0, 37, 59
1, 243599, Control_c, 0, 64, 76
1, 243604, Note_on_c, 0, 51, 78
1, 243614, Control_c, 0, 64, 100
1, 243629, Control_c, 0, 64, 127
1, 243654, Note_off_c, 0, 51, 62
1, 243671, Note_on_c, 0, 44, 71
1, 243699, Note_off_c, 0, 44, 63
1, 243713, Note_off_c, 0, 80, 59
1, 243727, Note_on_c, 0, 51, 75
1, 243782, Note_off_c, 0, 51, 61
1, 243786, Note_off_c, 0, 72, 52
1, 243805, Note_off_c, 0, 66, 60
1, 243828, Note_on_c, 0, 37, 39
1, 243834, Note_on_c, 0, 51, 62
1, 243870, Note_on_c, 0, 44, 35
1, 243874, Note_off_c, 0, 37, 44
1, 243903, Note_off_c, 0, 51, 61
1, 243918, Note_off_c, 0, 44, 61
1, 243935, Note_on_c, 0, 37, 60
1, 243956, Note_on_c, 0, 64, 75
1, 243985, Note_off_c, 0, 64, 67
1, 243992, Note_on_c, 0, 73, 74
1, 244029, Note_off_c, 0, 73, 62
1, 244066, Control_c, 0, 64, 103
1, 244071, Note_on_c, 0, 44, 83
1, 244075, Note_on_c, 0, 49, 89
1, 244081, Control_c, 0, 64, 70
1, 244084, Note_on_c, 0, 68, 97
1, 244086, Note_on_c, 0, 80, 94
1, 244088, Note_off_c, 0, 37, 0
1, 244088, Note_on_c, 0, 37, 5
1, 244096, Control_c, 0, 64, 0
1, 244099, Note_off_c, 0, 44, 66
1, 244102, Note_off_c, 0, 49, 69
1, 244104, Note_off_c, 0, 37, 54
1, 244108, Note_off_c, 0, 68, 68
1, 244108, Note_off_c, 0, 80, 67
1, 244125, Control_c, 0, 64, 55
1, 244140, Control_c, 0, 64, 83
1, 244156, Control_c, 0, 64, 127
1, 244265, Note_on_c, 0, 64, 70
1, 244299, Note_on_c, 0, 52, 50
1, 244329, Note_on_c, 0, 68, 70
1, 244335, Note_off_c, 0, 64, 62
1, 244349, Note_off_c, 0, 52, 63
1, 244353, Note_on_c, 0, 56, 61
1, 244361, Note_on_c, 0, 61, 53
1, 244375, Poly_aftertouch_c, 0, 53, 127
1, 244388, Note_off_c, 0, 56, 63
1, 244398, Note_on_c, 0, 73, 77
1, 244403, Note_off_c, 0, 61, 56
1, 244410, Note_off_c, 0, 68, 65
1, 244411, Poly_aftertouch_c, 0, 53, 0
1, 244421, Note_on_c, 0, 64, 72
1, 244448, Note_on_c, 0, 76, 22
1, 244448, Note_off_c, 0, 73, 63
1, 244457, Note_off_c, 0, 64, 60
1, 244492, Note_off_c, 0, 76, 51
1, 244494, Note_on_c, 0, 68, 77
1, 244499, Note_on_c, 0, 56, 53
1, 244568, Note_on_c, 0, 73, 71
1, 244589, Note_off_c, 0, 68, 56
1, 244596, Note_on_c, 0, 61, 60
1, 244601, Note_off_c, 0, 56, 62
1, 244618, Note_on_c, 0, 64, 56
1, 244623, Note_on_c, 0, 76, 72
1, 244650, Note_off_c, 0, 73, 61
1, 244660, Note_off_c, 0, 61, 60
1, 244675, Note_off_c, 0, 76, 64
1, 244677, Note_on_c, 0, 68, 72
1, 244678, Note_off_c, 0, 64, 64
1, 244681, Note_on_c, 0, 80, 68
1, 244699, Note_off_c, 0, 68, 71
1, 244708, Note_off_c, 0, 80, 51
1, 244748, Note_on_c, 0, 73, 77
1, 244768, Note_on_c, 0, 61, 64
1, 244803, Note_off_c, 0, 73, 60
1, 244818, Note_on_c, 0, 76, 65
1, 244850, Note_on_c, 0, 64, 60
1, 244859, Note_off_c, 0, 61, 57
1, 244862, Note_on_c, 0, 80, 74
1, 244872, Poly_aftertouch_c, 0, 77, 127
1, 244874, Note_off_c, 0, 76, 60
1, 244904, Note_on_c, 0, 68, 67
1, 244904, Note_on_c, 0, 85, 70
1, 244907, Poly_aftertouch_c, 0, 77, 0
1, 244914, Note_off_c, 0, 64, 64
1, 244922, Note_off_c, 0, 80, 64
1, 244945, Note_on_c, 0, 73, 77
1, 244945, Note_off_c, 0, 85, 54
1, 244964, Note_off_c, 0, 68, 64
1, 244971, Note_off_c, 0, 73, 67
1, 244982, Note_on_c, 0, 76, 73
1, 245037, Note_on_c, 0, 64, 70
1, 245037, Note_on_c, 0, 80, 76
1, 245053, Note_off_c, 0, 76, 54
1, 245090, Note_on_c, 0, 68, 58
1, 245099, Note_off_c, 0, 64, 60
1, 245112, Note_on_c, 0, 85, 64
1, 245122, Note_off_c, 0, 80, 64
1, 245143, Note_on_c, 0, 73, 74
1, 245146, Note_off_c, 0, 68, 65
1, 245152, Note_off_c, 0, 85, 62
1, 245158, Note_on_c, 0, 88, 89
1, 245174, Note_off_c, 0, 73, 65
1, 245197, Note_on_c, 0, 76, 74
1, 245248, Note_on_c, 0, 85, 79
1, 245256, Note_off_c, 0, 76, 60
1, 245260, Note_off_c, 0, 88, 60
1, 245278, Note_on_c, 0, 73, 56
1, 245284, Note_on_c, 0, 80, 70
1, 245309, Note_off_c, 0, 85, 64
1, 245310, Note_off_c, 0, 73, 59
1, 245323, Note_on_c, 0, 68, 63
1, 245328, Note_on_c, 0, 64, 67
1, 245342, Note_on_c, 0, 76, 77
1, 245355, Note_off_c, 0, 64, 66
1, 245355, Note_off_c, 0, 68, 67
1, 245368, Note_off_c, 0, 80, 63
1, 245394, Note_off_c, 0, 76, 59
1, 245429, Note_on_c, 0, 85, 81
1, 245440, Note_on_c, 0, 73, 66
1, 245491, Note_on_c, 0, 80, 56
1, 245500, Note_on_c, 0, 68, 45
1, 245504, Note_off_c, 0, 73, 61
1, 245513, Note_off_c, 0, 80, 39
1, 245518, Note_on_c, 0, 79, 66
1, 245518, Note_off_c, 0, 85, 63
1, 245536, Note_on_c, 0, 76, 78
1, 245540, Note_off_c, 0, 68, 50
1, 245549, Note_off_c, 0, 79, 60
1, 245554, Note_on_c, 0, 64, 68
1, 245578, Poly_aftertouch_c, 0, 67, 127
1, 245599, Note_on_c, 0, 61, 67
1, 245605, Note_on_c, 0, 73, 85
1, 245611, Note_off_c, 0, 64, 63
1, 245614, Note_off_c, 0, 76, 62
1, 245619, Poly_aftertouch_c, 0, 67, 0
1, 245639, Note_off_c, 0, 61, 63
1, 245649, Note_off_c, 0, 73, 63
1, 245676, Note_on_c, 0, 68, 80
1, 245694, Note_on_c, 0, 80, 80
1, 245745, Note_on_c, 0, 76, 67
1, 245755, Note_on_c, 0, 64, 73
1, 245766, Note_off_c, 0, 68, 61
1, 245792, Note_off_c, 0, 80, 63
1, 245797, Note_on_c, 0, 73, 80
1, 245809, Poly_aftertouch_c, 0, 78, 0
1, 245814, Note_on_c, 0, 61, 66
1, 245829, Note_off_c, 0, 76, 62
1, 245833, Note_off_c, 0, 64, 63
1, 245846, Note_on_c, 0, 56, 73
1, 245858, Note_on_c, 0, 68, 81
1, 245870, Note_off_c, 0, 73, 63
1, 245878, Note_off_c, 0, 61, 63
1, 245879, Note_off_c, 0, 56, 65
1, 245885, Note_off_c, 0, 68, 69
1, 245938, Note_on_c, 0, 64, 81
1, 245939, Note_on_c, 0, 76, 92
1, 245998, Note_on_c, 0, 61, 76
1, 245998, Note_off_c, 0, 64, 61
1, 246007, Note_on_c, 0, 73, 75
1, 246046, Note_off_c, 0, 76, 58
1, 246069, Note_on_c, 0, 68, 70
1, 246088, Note_on_c, 0, 56, 71
1, 246099, Note_off_c, 0, 73, 61
1, 246101, Note_off_c, 0, 61, 62
1, 246102, Note_on_c, 0, 52, 71
1, 246127, Note_on_c, 0, 64, 77
1, 246141, Note_off_c, 0, 52, 64
1, 246144, Note_off_c, 0, 56, 62
1, 246153, Note_off_c, 0, 68, 62
1, 246173, Note_off_c, 0, 64, 61
1, 246174, Poly_aftertouch_c, 0, 69, 127
1, 246201, Poly_aftertouch_c, 0, 69, 0
1, 246209, Note_on_c, 0, 73, 98
1, 246213, Note_on_c, 0, 61, 84
1, 246263, Note_on_c, 0, 56, 72
1, 246270, Note_on_c, 0, 68, 77
1, 246288, Note_off_c, 0, 61, 58
1, 246311, Note_off_c, 0, 73, 60
1, 246342, Note_on_c, 0, 52, 71
1, 246347, Note_on_c, 0, 64, 73
1, 246350, Note_off_c, 0, 68, 64
1, 246379, Note_off_c, 0, 56, 52
1, 246399, Note_on_c, 0, 49, 73
1, 246403, Note_on_c, 0, 61, 85
1, 246411, Note_off_c, 0, 52, 62
1, 246420, Note_off_c, 0, 64, 65
1, 246433, Note_off_c, 0, 49, 63
1, 246448, Note_off_c, 0, 61, 63
1, 246473, Note_on_c, 0, 56, 88
1, 246487, Note_on_c, 0, 68, 89
1, 246548, Note_on_c, 0, 52, 65
1, 246550, Note_on_c, 0, 64, 68
1, 246583, Note_off_c, 0, 56, 60
1, 246591, Note_off_c, 0, 68, 63
1, 246600, Note_on_c, 0, 49, 68
1, 246606, Note_on_c, 0, 61, 81
1, 246630, Note_off_c, 0, 64, 63
1, 246645, Note_off_c, 0, 52, 62
1, 246651, Note_on_c, 0, 44, 74
1, 246667, Note_on_c, 0, 56, 81
1, 246674, Note_off_c, 0, 49, 62
1, 246681, Note_off_c, 0, 61, 63
1, 246686, Note_off_c, 0, 44, 63
1, 246692, Note_off_c, 0, 56, 67
1, 246749, Note_on_c, 0, 52, 85
1, 246752, Note_on_c, 0, 64, 88
1, 246810, Note_off_c, 0, 52, 59
1, 246818, Note_on_c, 0, 49, 75
1, 246834, Note_on_c, 0, 61, 75
1, 246857, Note_off_c, 0, 64, 61
1, 246903, Note_on_c, 0, 56, 70
1, 246904, Note_on_c, 0, 44, 71
1, 246906, Note_off_c, 0, 49, 62
1, 246916, Note_on_c, 0, 40, 74
1, 246916, Note_off_c, 0, 61, 61
1, 246949, Note_on_c, 0, 52, 75
1, 246963, Note_off_c, 0, 44, 59
1, 246968, Note_off_c, 0, 40, 59
1, 246973, Note_off_c, 0, 56, 61
1, 246997, Note_off_c, 0, 52, 62
1, 247014, Note_on_c, 0, 49, 78
1, 247020, Note_on_c, 0, 61, 91
1, 247049, Note_on_c, 0, 62, 54
1, 247074, Note_on_c, 0, 44, 69
1, 247078, Note_off_c, 0, 49, 61
1, 247080, Note_off_c, 0, 62, 49
1, 247125, Note_on_c, 0, 57, 31
1, 247125, Note_off_c, 0, 61, 56
1, 247135, Note_off_c, 0, 44, 57
1, 247141, Note_on_c, 0, 52, 78
1, 247143, Note_on_c, 0, 40, 72
1, 247148, Poly_aftertouch_c, 0, 56, 127
1, 247161, Note_off_c, 0, 57, 52
1, 247199, Poly_aftertouch_c, 0, 56, 0
1, 247210, Note_on_c, 0, 56, 69
1, 247214, Note_off_c, 0, 40, 59
1, 247218, Note_off_c, 0, 52, 65
1, 247244, Note_on_c, 0, 44, 43
1, 247268, Note_off_c, 0, 44, 58
1, 247271, Note_on_c, 0, 49, 106
1, 247278, Note_on_c, 0, 37, 95
1, 247304, Note_off_c, 0, 49, 68
1, 247313, Note_off_c, 0, 37, 62
1, 247322, Note_off_c, 0, 56, 35
1, 247528, Control_c, 0, 64, 76
1, 247543, Control_c, 0, 64, 0
1, 247859, Note_on_c, 0, 85, 102
1, 247864, Note_on_c, 0, 76, 98
1, 247864, Note_on_c, 0, 73, 101
1, 247868, Note_on_c, 0, 80, 80
1, 247870, Note_on_c, 0, 37, 89
1, 247871, Note_on_c, 0, 49, 93
1, 247880, Note_on_c, 0, 40, 81
1, 247882, Control_c, 0, 64, 50
1, 247883, Note_on_c, 0, 44, 81
1, 247885, Note_on_c, 0, 81, 76
1, 247897, Control_c, 0, 64, 103
1, 247900, Note_off_c, 0, 81, 67
1, 247912, Control_c, 0, 64, 127
1, 247917, Note_off_c, 0, 49, 64
1, 247920, Note_off_c, 0, 85, 66
1, 247921, Note_off_c, 0, 73, 65
1, 247930, Note_off_c, 0, 76, 66
1, 247934, Note_off_c, 0, 37, 64
1, 247936, Note_off_c, 0, 44, 62
1, 247936, Note_off_c, 0, 80, 63
1, 247938, Note_off_c, 0, 40, 58
1, 248180, Control_c, 0, 64, 79
1, 248195, Control_c, 0, 64, 19
1, 248210, Control_c, 0, 64, 0
1, 248453, Note_on_c, 0, 73, 99
1, 248457, Note_on_c, 0, 61, 102
1, 248457, Note_on_c, 0, 68, 96
1, 248459, Note_on_c, 0, 64, 97
1, 248460, Note_on_c, 0, 49, 96
1, 248463, Note_on_c, 0, 37, 88
1, 248466, Note_on_c, 0, 40, 87
1, 248471, Note_on_c, 0, 44, 83
1, 248484, Control_c, 0, 64, 56
1, 248499, Control_c, 0, 64, 127
1, 248517, Note_off_c, 0, 61, 64
1, 248518, Note_off_c, 0, 73, 69
1, 248526, Note_off_c, 0, 64, 69
1, 248528, Note_off_c, 0, 49, 64
1, 248532, Note_off_c, 0, 68, 66
1, 248543, Note_off_c, 0, 37, 61
1, 248544, Note_off_c, 0, 40, 60
1, 248550, Note_off_c, 0, 44, 62
1, 248780, Control_c, 0, 64, 83
1, 248795, Control_c, 0, 64, 55
1, 248810, Control_c, 0, 64, 0
1, 248885, End_track
0, 0, End_of_file
