0, 0, Header, 0, 1, 384
1, 0, Start_track
1, 0, Title_t, "RachmaninovElegie--Mizumoto     "
1, 0, Text_t, "2011 ePiano Junior Competition"
1, 0, Text_t, "captured in spring and summer 2011"
1, 0, Text_t, "http://www.piano-e-competition.com/"
1, 0, Text_t, "standard-resolution version"
1, 0, Text_t, "File processed for distribution with software designed and coded by Dr. John Q. Walker, founder of Zenph Sound Innovations"
1, 0, Instrument_name_t, "Yamaha Disklavier Pro Mark IV concert grand piano, model DCFIIISM4PRO"
1, 0, Sequencer_specific, 39, 67, 113, 0, 1, 0, 1, 0, 82, 97, 99, 104, 109, 97, 110, 32, 69, 108, 101, 103, 105, 101, 32, 32, 87, 101, 115, 116, 111, 110, 32, 77, 105, 122, 117, 109, 111, 116, 111, 32
1, 0, Sequencer_specific, 6, 67, 113, 0, 0, 0, 69
1, 0, System_exclusive, 21, 67, 113, 126, 21, 0, 2, 2, 2, 5, 12, 8, 4, 14, 1, 3, 7, 10, 14, 14, 5, 247
1, 0, Sequencer_specific, 5, 67, 123, 12, 2, 1
1, 0, Tempo, 512820
1, 0, Time_signature, 4, 2, 24, 8
1, 0, System_exclusive, 5, 126, 127, 9, 1, 247
1, 1, System_exclusive, 8, 67, 16, 76, 0, 0, 126, 0, 247
1, 2, System_exclusive, 8, 67, 16, 76, 8, 9, 7, 1, 247
1, 3, Control_c, 0, 0, 108
1, 3, Control_c, 1, 0, 108
1, 3, Control_c, 2, 0, 0
1, 3, Control_c, 3, 0, 0
1, 3, Control_c, 4, 0, 0
1, 3, Control_c, 5, 0, 0
1, 3, Control_c, 6, 0, 0
1, 3, Control_c, 7, 0, 0
1, 3, Control_c, 8, 0, 0
1, 3, Control_c, 9, 0, 127
1, 3, Control_c, 10, 0, 0
1, 3, Control_c, 11, 0, 0
1, 3, Control_c, 12, 0, 0
1, 3, Control_c, 13, 0, 0
1, 3, Control_c, 14, 0, 0
1, 3, Control_c, 15, 0, 0
1, 4, Control_c, 0, 32, 0
1, 4, Control_c, 1, 32, 0
1, 4, Control_c, 2, 32, 0
1, 4, Control_c, 3, 32, 0
1, 4, Control_c, 4, 32, 0
1, 4, Control_c, 5, 32, 0
1, 4, Control_c, 6, 32, 0
1, 4, Control_c, 7, 32, 0
1, 4, Control_c, 8, 32, 0
1, 4, Control_c, 9, 32, 0
1, 4, Control_c, 10, 32, 0
1, 4, Control_c, 11, 32, 0
1, 4, Control_c, 12, 32, 0
1, 4, Control_c, 13, 32, 0
1, 4, Control_c, 14, 32, 0
1, 4, Control_c, 15, 32, 0
1, 5, Program_c, 0, 0
1, 5, Program_c, 1, 0
1, 5, Program_c, 2, 0
1, 5, Program_c, 3, 0
1, 5, Program_c, 4, 0
1, 5, Program_c, 5, 0
1, 5, Program_c, 6, 0
1, 5, Program_c, 7, 0
1, 5, Program_c, 8, 0
1, 5, Program_c, 9, 0
1, 5, Program_c, 10, 0
1, 5, Program_c, 11, 0
1, 5, Program_c, 12, 0
1, 5, Program_c, 13, 0
1, 5, Program_c, 14, 0
1, 5, Program_c, 15, 0
1, 6, Control_c, 0, 7, 100
1, 6, Control_c, 1, 7, 100
1, 6, Control_c, 2, 7, 100
1, 6, Control_c, 3, 7, 100
1, 6, Control_c, 4, 7, 100
1, 6, Control_c, 5, 7, 100
1, 6, Control_c, 6, 7, 100
1, 6, Control_c, 7, 7, 100
1, 6, Control_c, 8, 7, 100
1, 6, Control_c, 9, 7, 100
1, 6, Control_c, 10, 7, 100
1, 6, Control_c, 11, 7, 100
1, 6, Control_c, 12, 7, 100
1, 6, Control_c, 13, 7, 100
1, 6, Control_c, 14, 7, 100
1, 6, Control_c, 15, 7, 100
1, 42, Control_c, 0, 64, 15
1, 79, Control_c, 0, 64, 31
1, 116, Control_c, 0, 64, 46
1, 153, Control_c, 0, 64, 63
1, 190, Control_c, 0, 64, 77
1, 226, Control_c, 0, 64, 94
1, 263, Control_c, 0, 64, 108
1, 300, Control_c, 0, 64, 127
1, 389, Note_on_c, 0, 39, 30
1, 398, Note_on_c, 0, 27, 28
1, 571, Note_off_c, 0, 27, 45
1, 630, Note_off_c, 0, 39, 42
1, 1190, Note_on_c, 0, 46, 29
1, 1706, Note_on_c, 0, 54, 35
1, 1719, Note_off_c, 0, 46, 34
1, 1972, Note_off_c, 0, 54, 43
1, 2153, Note_on_c, 0, 63, 28
1, 2297, Note_off_c, 0, 63, 51
1, 2580, Note_on_c, 0, 70, 41
1, 2694, Note_off_c, 0, 70, 55
1, 3012, Note_on_c, 0, 63, 31
1, 3291, Note_off_c, 0, 63, 39
1, 3372, Note_on_c, 0, 54, 40
1, 3555, Note_off_c, 0, 54, 43
1, 3747, Note_on_c, 0, 46, 42
1, 3805, Note_off_c, 0, 46, 62
1, 4226, Note_on_c, 0, 27, 37
1, 4274, Note_on_c, 0, 39, 23
1, 4356, Note_off_c, 0, 27, 36
1, 4413, Note_off_c, 0, 39, 35
1, 4798, Note_on_c, 0, 46, 26
1, 5052, Note_off_c, 0, 46, 36
1, 5158, Note_on_c, 0, 54, 37
1, 5338, Note_off_c, 0, 54, 43
1, 5508, Note_on_c, 0, 63, 34
1, 5611, Note_off_c, 0, 63, 59
1, 5909, Note_on_c, 0, 70, 39
1, 6001, Note_off_c, 0, 70, 58
1, 6286, Note_on_c, 0, 63, 33
1, 6593, Note_off_c, 0, 63, 41
1, 6658, Note_on_c, 0, 54, 25
1, 6894, Note_off_c, 0, 54, 36
1, 7014, Note_on_c, 0, 46, 33
1, 7093, Note_off_c, 0, 46, 59
1, 7511, Note_on_c, 0, 39, 23
1, 7522, Note_on_c, 0, 27, 32
1, 7650, Note_off_c, 0, 27, 37
1, 7693, Note_off_c, 0, 39, 39
1, 8108, Note_on_c, 0, 46, 18
1, 8417, Note_off_c, 0, 46, 28
1, 8477, Note_on_c, 0, 54, 39
1, 8612, Note_off_c, 0, 54, 35
1, 8852, Note_on_c, 0, 63, 33
1, 8952, Note_off_c, 0, 63, 57
1, 9535, Note_on_c, 0, 78, 67
1, 9539, Note_on_c, 0, 70, 39
1, 9618, Note_off_c, 0, 70, 59
1, 10097, Note_on_c, 0, 63, 30
1, 10369, Note_off_c, 0, 63, 40
1, 10447, Note_on_c, 0, 54, 41
1, 10785, Note_on_c, 0, 46, 42
1, 10825, Note_off_c, 0, 54, 31
1, 10874, Note_off_c, 0, 46, 61
1, 11261, Note_on_c, 0, 39, 40
1, 11287, Note_on_c, 0, 27, 43
1, 11314, Control_c, 0, 64, 105
1, 11329, Control_c, 0, 64, 69
1, 11344, Control_c, 0, 64, 51
1, 11359, Control_c, 0, 64, 33
1, 11374, Control_c, 0, 64, 34
1, 11389, Control_c, 0, 64, 51
1, 11403, Control_c, 0, 64, 65
1, 11418, Control_c, 0, 64, 83
1, 11433, Control_c, 0, 64, 127
1, 11449, Note_off_c, 0, 27, 47
1, 11488, Note_off_c, 0, 39, 40
1, 11772, Note_on_c, 0, 47, 45
1, 12099, Note_off_c, 0, 47, 29
1, 12149, Note_on_c, 0, 56, 41
1, 12496, Note_off_c, 0, 56, 32
1, 12497, Note_on_c, 0, 62, 42
1, 12613, Note_off_c, 0, 62, 61
1, 12830, Note_on_c, 0, 68, 46
1, 12927, Note_off_c, 0, 68, 58
1, 13210, Note_on_c, 0, 62, 34
1, 13476, Note_off_c, 0, 78, 33
1, 13545, Note_off_c, 0, 62, 38
1, 13604, Note_on_c, 0, 56, 34
1, 13663, Note_on_c, 0, 77, 60
1, 13797, Note_off_c, 0, 56, 40
1, 13971, Note_on_c, 0, 47, 37
1, 14027, Note_off_c, 0, 47, 60
1, 14465, Note_on_c, 0, 39, 34
1, 14468, Note_on_c, 0, 27, 34
1, 14517, Control_c, 0, 64, 92
1, 14532, Control_c, 0, 64, 66
1, 14546, Control_c, 0, 64, 0
1, 14635, Control_c, 0, 64, 35
1, 14658, Control_c, 0, 64, 60
1, 14672, Control_c, 0, 64, 67
1, 14687, Control_c, 0, 64, 75
1, 14702, Control_c, 0, 64, 90
1, 14715, Note_off_c, 0, 27, 48
1, 14717, Control_c, 0, 64, 127
1, 14792, Note_off_c, 0, 39, 40
1, 15148, Note_on_c, 0, 46, 22
1, 15190, Note_on_c, 0, 74, 50
1, 15399, Note_off_c, 0, 77, 60
1, 15424, Note_off_c, 0, 46, 38
1, 15500, Note_on_c, 0, 54, 40
1, 15584, Note_off_c, 0, 54, 52
1, 15810, Note_on_c, 0, 63, 26
1, 15914, Note_off_c, 0, 63, 52
1, 15917, Note_on_c, 0, 75, 59
1, 16069, Note_off_c, 0, 74, 58
1, 16070, Note_on_c, 0, 77, 61
1, 16077, Note_off_c, 0, 75, 59
1, 16261, Note_on_c, 0, 70, 41
1, 16316, Note_on_c, 0, 75, 55
1, 16361, Note_off_c, 0, 77, 59
1, 16418, Note_off_c, 0, 70, 35
1, 16723, Note_on_c, 0, 63, 36
1, 16847, Note_off_c, 0, 63, 49
1, 17050, Note_on_c, 0, 54, 41
1, 17252, Note_off_c, 0, 54, 22
1, 17349, Note_on_c, 0, 46, 37
1, 17427, Note_off_c, 0, 46, 59
1, 17786, Note_on_c, 0, 27, 41
1, 17791, Note_on_c, 0, 39, 39
1, 17807, Poly_aftertouch_c, 0, 73, 127
1, 17816, Control_c, 0, 64, 90
1, 17831, Control_c, 0, 64, 64
1, 17846, Control_c, 0, 64, 0
1, 17905, Control_c, 0, 64, 43
1, 17920, Control_c, 0, 64, 62
1, 17935, Control_c, 0, 64, 71
1, 17950, Note_off_c, 0, 27, 56
1, 17950, Control_c, 0, 64, 95
1, 17965, Control_c, 0, 64, 127
1, 18012, Note_off_c, 0, 39, 38
1, 18370, Note_on_c, 0, 70, 48
1, 18375, Note_on_c, 0, 46, 28
1, 18653, Poly_aftertouch_c, 0, 73, 0
1, 18690, Note_on_c, 0, 55, 51
1, 18755, Note_off_c, 0, 46, 33
1, 18883, Note_off_c, 0, 70, 52
1, 18954, Note_off_c, 0, 55, 49
1, 19000, Note_on_c, 0, 71, 68
1, 19026, Note_on_c, 0, 61, 33
1, 19112, Note_off_c, 0, 61, 59
1, 19226, Note_off_c, 0, 75, 62
1, 19456, Note_on_c, 0, 67, 38
1, 19490, Note_on_c, 0, 73, 69
1, 19554, Note_off_c, 0, 71, 58
1, 19589, Note_off_c, 0, 67, 62
1, 19984, Note_on_c, 0, 61, 35
1, 20183, Note_off_c, 0, 61, 55
1, 20280, Note_on_c, 0, 55, 40
1, 20397, Note_off_c, 0, 55, 51
1, 20650, Note_on_c, 0, 46, 29
1, 20691, Note_off_c, 0, 46, 50
1, 21239, Note_on_c, 0, 32, 30
1, 21313, Control_c, 0, 64, 87
1, 21328, Control_c, 0, 64, 64
1, 21343, Control_c, 0, 64, 13
1, 21358, Control_c, 0, 64, 0
1, 21410, Control_c, 0, 64, 28
1, 21425, Control_c, 0, 64, 54
1, 21440, Control_c, 0, 64, 64
1, 21455, Control_c, 0, 64, 70
1, 21469, Control_c, 0, 64, 78
1, 21484, Control_c, 0, 64, 95
1, 21499, Control_c, 0, 64, 127
1, 21577, Note_off_c, 0, 32, 41
1, 21622, Note_on_c, 0, 44, 29
1, 21713, Note_off_c, 0, 44, 57
1, 21776, Note_on_c, 0, 75, 53
1, 21806, Note_off_c, 0, 73, 61
1, 22052, Note_on_c, 0, 73, 60
1, 22214, Note_on_c, 0, 51, 39
1, 22224, Note_off_c, 0, 75, 25
1, 22323, Note_on_c, 0, 71, 54
1, 22323, Control_c, 0, 64, 106
1, 22337, Control_c, 0, 64, 77
1, 22352, Control_c, 0, 64, 66
1, 22367, Control_c, 0, 64, 62
1, 22379, Note_on_c, 0, 63, 30
1, 22397, Control_c, 0, 64, 63
1, 22401, Note_off_c, 0, 73, 38
1, 22411, Control_c, 0, 64, 65
1, 22426, Control_c, 0, 64, 69
1, 22442, Control_c, 0, 64, 75
1, 22457, Control_c, 0, 64, 84
1, 22472, Control_c, 0, 64, 95
1, 22487, Control_c, 0, 64, 117
1, 22502, Control_c, 0, 64, 127
1, 22585, Note_off_c, 0, 63, 50
1, 22675, Note_on_c, 0, 59, 33
1, 22752, Note_off_c, 0, 51, 41
1, 23006, Note_on_c, 0, 68, 42
1, 23063, Note_off_c, 0, 59, 39
1, 23093, Note_off_c, 0, 68, 58
1, 23272, Note_off_c, 0, 71, 64
1, 23289, Note_on_c, 0, 59, 47
1, 23337, Note_off_c, 0, 59, 63
1, 23634, Note_on_c, 0, 70, 68
1, 23661, Note_on_c, 0, 51, 48
1, 23959, Note_on_c, 0, 44, 47
1, 23983, Note_off_c, 0, 51, 41
1, 24001, Note_off_c, 0, 44, 63
1, 24368, Note_on_c, 0, 34, 51
1, 24406, Control_c, 0, 64, 78
1, 24420, Control_c, 0, 64, 53
1, 24435, Control_c, 0, 64, 0
1, 24509, Control_c, 0, 64, 32
1, 24524, Control_c, 0, 64, 56
1, 24538, Control_c, 0, 64, 64
1, 24553, Control_c, 0, 64, 73
1, 24568, Control_c, 0, 64, 90
1, 24583, Control_c, 0, 64, 127
1, 24727, Note_on_c, 0, 46, 48
1, 24731, Note_off_c, 0, 34, 55
1, 24767, Note_off_c, 0, 46, 64
1, 25091, Note_on_c, 0, 56, 45
1, 25190, Note_on_c, 0, 68, 65
1, 25277, Note_off_c, 0, 70, 60
1, 25524, Note_on_c, 0, 62, 33
1, 25650, Note_off_c, 0, 68, 48
1, 25859, Note_on_c, 0, 70, 25
1, 25896, Note_off_c, 0, 62, 37
1, 25954, Note_off_c, 0, 70, 39
1, 26032, Note_off_c, 0, 56, 0
1, 26071, Poly_aftertouch_c, 0, 56, 0
1, 26164, Note_on_c, 0, 62, 37
1, 26209, Note_off_c, 0, 62, 62
1, 26523, Note_on_c, 0, 66, 51
1, 26566, Note_on_c, 0, 56, 36
1, 26750, Note_off_c, 0, 56, 41
1, 26904, Note_on_c, 0, 49, 10
1, 26949, Note_off_c, 0, 49, 44
1, 27444, Note_on_c, 0, 35, 31
1, 27509, Note_on_c, 0, 63, 37
1, 27550, Control_c, 0, 64, 104
1, 27564, Control_c, 0, 64, 82
1, 27579, Control_c, 0, 64, 65
1, 27594, Control_c, 0, 64, 21
1, 27609, Control_c, 0, 64, 0
1, 27635, Note_off_c, 0, 66, 60
1, 27697, Control_c, 0, 64, 37
1, 27712, Control_c, 0, 64, 54
1, 27727, Control_c, 0, 64, 62
1, 27742, Control_c, 0, 64, 66
1, 27757, Control_c, 0, 64, 73
1, 27772, Control_c, 0, 64, 86
1, 27787, Control_c, 0, 64, 127
1, 27872, Note_off_c, 0, 35, 38
1, 28014, Poly_aftertouch_c, 0, 47, 127
1, 28016, Note_on_c, 0, 47, 3
1, 28056, Note_off_c, 0, 47, 39
1, 28341, Note_on_c, 0, 54, 36
1, 28520, Note_off_c, 0, 63, 53
1, 28617, Note_off_c, 0, 54, 41
1, 28655, Note_on_c, 0, 59, 35
1, 29022, Note_on_c, 0, 66, 34
1, 29107, Note_off_c, 0, 59, 33
1, 29271, Note_off_c, 0, 66, 37
1, 29355, Note_on_c, 0, 59, 37
1, 29433, Note_off_c, 0, 59, 55
1, 29735, Note_on_c, 0, 54, 38
1, 30013, Note_off_c, 0, 54, 42
1, 30085, Note_on_c, 0, 47, 35
1, 30174, Note_off_c, 0, 47, 55
1, 30708, Note_on_c, 0, 32, 33
1, 30782, Control_c, 0, 64, 93
1, 30797, Control_c, 0, 64, 69
1, 30812, Control_c, 0, 64, 45
1, 30827, Control_c, 0, 64, 0
1, 30901, Control_c, 0, 64, 32
1, 30916, Control_c, 0, 64, 54
1, 30930, Control_c, 0, 64, 62
1, 30945, Control_c, 0, 64, 66
1, 30960, Control_c, 0, 64, 69
1, 30974, Control_c, 0, 64, 76
1, 30989, Control_c, 0, 64, 87
1, 31004, Control_c, 0, 64, 110
1, 31019, Control_c, 0, 64, 127
1, 31099, Note_on_c, 0, 65, 35
1, 31100, Note_on_c, 0, 59, 24
1, 31123, Note_off_c, 0, 32, 40
1, 31229, Note_on_c, 0, 44, 38
1, 31271, Note_off_c, 0, 59, 40
1, 31293, Note_off_c, 0, 65, 41
1, 31298, Note_off_c, 0, 44, 59
1, 31382, Note_on_c, 0, 66, 54
1, 31390, Note_on_c, 0, 63, 40
1, 31433, Note_off_c, 0, 63, 61
1, 31445, Note_off_c, 0, 66, 59
1, 31605, Control_c, 0, 64, 86
1, 31620, Control_c, 0, 64, 69
1, 31623, Note_on_c, 0, 53, 38
1, 31635, Control_c, 0, 64, 62
1, 31642, Note_on_c, 0, 65, 43
1, 31650, Control_c, 0, 64, 62
1, 31652, Note_on_c, 0, 68, 50
1, 31665, Control_c, 0, 64, 64
1, 31679, Control_c, 0, 64, 66
1, 31694, Control_c, 0, 64, 71
1, 31709, Control_c, 0, 64, 79
1, 31722, Control_c, 0, 64, 93
1, 31737, Control_c, 0, 64, 116
1, 31751, Control_c, 0, 64, 127
1, 31787, Note_off_c, 0, 68, 60
1, 31830, Note_on_c, 0, 70, 65
1, 31834, Note_off_c, 0, 65, 59
1, 31853, Note_on_c, 0, 66, 52
1, 31912, Note_off_c, 0, 66, 55
1, 31915, Note_on_c, 0, 59, 40
1, 31948, Note_off_c, 0, 70, 59
1, 32043, Note_on_c, 0, 71, 70
1, 32048, Note_on_c, 0, 68, 58
1, 32103, Note_off_c, 0, 68, 59
1, 32130, Note_off_c, 0, 71, 64
1, 32357, Note_on_c, 0, 63, 37
1, 32426, Control_c, 0, 64, 119
1, 32441, Control_c, 0, 64, 118
1, 32456, Note_on_c, 0, 80, 69
1, 32456, Control_c, 0, 64, 117
1, 32471, Control_c, 0, 64, 101
1, 32486, Control_c, 0, 64, 80
1, 32491, Note_on_c, 0, 71, 50
1, 32500, Control_c, 0, 64, 64
1, 32515, Control_c, 0, 64, 42
1, 32529, Note_off_c, 0, 59, 35
1, 32530, Control_c, 0, 64, 24
1, 32545, Control_c, 0, 64, 26
1, 32559, Control_c, 0, 64, 45
1, 32574, Control_c, 0, 64, 58
1, 32589, Control_c, 0, 64, 65
1, 32604, Control_c, 0, 64, 70
1, 32626, Control_c, 0, 64, 77
1, 32641, Control_c, 0, 64, 87
1, 32656, Control_c, 0, 64, 113
1, 32671, Control_c, 0, 64, 127
1, 32747, Note_off_c, 0, 63, 56
1, 32837, Note_on_c, 0, 59, 36
1, 32900, Note_off_c, 0, 53, 41
1, 32917, Note_off_c, 0, 59, 61
1, 33196, Note_on_c, 0, 53, 37
1, 33358, Note_off_c, 0, 71, 46
1, 33397, Note_off_c, 0, 80, 58
1, 33501, Note_off_c, 0, 53, 42
1, 33611, Note_on_c, 0, 44, 24
1, 33683, Note_off_c, 0, 44, 54
1, 33839, Note_on_c, 0, 78, 49
1, 33868, Note_on_c, 0, 70, 34
1, 33975, Note_off_c, 0, 78, 51
1, 34013, Note_off_c, 0, 70, 32
1, 34219, Note_on_c, 0, 78, 42
1, 34237, Note_on_c, 0, 70, 33
1, 34258, Note_on_c, 0, 39, 27
1, 34264, Note_on_c, 0, 27, 24
1, 34288, Control_c, 0, 64, 107
1, 34303, Control_c, 0, 64, 72
1, 34318, Control_c, 0, 64, 55
1, 34333, Control_c, 0, 64, 22
1, 34347, Control_c, 0, 64, 23
1, 34362, Control_c, 0, 64, 38
1, 34377, Control_c, 0, 64, 55
1, 34391, Control_c, 0, 64, 64
1, 34406, Control_c, 0, 64, 72
1, 34422, Control_c, 0, 64, 88
1, 34437, Control_c, 0, 64, 127
1, 34515, Note_off_c, 0, 27, 41
1, 34576, Note_off_c, 0, 39, 41
1, 34919, Note_on_c, 0, 46, 29
1, 35286, Note_on_c, 0, 54, 47
1, 35379, Note_off_c, 0, 46, 40
1, 35431, Note_off_c, 0, 70, 42
1, 35535, Note_off_c, 0, 78, 36
1, 35616, Note_on_c, 0, 63, 50
1, 36172, Note_on_c, 0, 78, 76
1, 36219, Note_on_c, 0, 70, 36
1, 36384, Note_off_c, 0, 63, 37
1, 36416, Note_off_c, 0, 54, 50
1, 36628, Note_on_c, 0, 63, 47
1, 36824, Note_off_c, 0, 63, 51
1, 36956, Note_on_c, 0, 54, 58
1, 37196, Note_off_c, 0, 54, 32
1, 37283, Note_on_c, 0, 46, 58
1, 37354, Note_off_c, 0, 46, 63
1, 37748, Note_on_c, 0, 27, 48
1, 37761, Note_on_c, 0, 39, 52
1, 37803, Control_c, 0, 64, 80
1, 37818, Control_c, 0, 64, 45
1, 37832, Control_c, 0, 64, 0
1, 37899, Control_c, 0, 64, 51
1, 37913, Control_c, 0, 64, 64
1, 37928, Control_c, 0, 64, 72
1, 37940, Note_off_c, 0, 27, 62
1, 37943, Control_c, 0, 64, 84
1, 37958, Control_c, 0, 64, 104
1, 37973, Control_c, 0, 64, 127
1, 37988, Note_off_c, 0, 39, 62
1, 38183, Note_off_c, 0, 70, 42
1, 38235, Note_on_c, 0, 47, 61
1, 38374, Note_off_c, 0, 78, 61
1, 38599, Note_on_c, 0, 56, 41
1, 38720, Note_on_c, 0, 77, 77
1, 38821, Note_off_c, 0, 47, 36
1, 39016, Note_on_c, 0, 78, 83
1, 39067, Note_off_c, 0, 77, 61
1, 39132, Note_on_c, 0, 62, 53
1, 39224, Note_off_c, 0, 56, 42
1, 39225, Note_on_c, 0, 77, 84
1, 39266, Note_off_c, 0, 62, 63
1, 39312, Note_off_c, 0, 78, 28
1, 39313, Poly_aftertouch_c, 0, 81, 0
1, 39375, Note_off_c, 0, 77, 57
1, 39380, Note_on_c, 0, 75, 78
1, 39481, Note_off_c, 0, 75, 62
1, 39497, Note_on_c, 0, 77, 79
1, 39685, Note_on_c, 0, 68, 54
1, 39737, Control_c, 0, 64, 99
1, 39752, Control_c, 0, 64, 68
1, 39759, Note_on_c, 0, 78, 77
1, 39766, Control_c, 0, 64, 47
1, 39781, Control_c, 0, 64, 34
1, 39796, Control_c, 0, 64, 36
1, 39810, Control_c, 0, 64, 49
1, 39825, Note_off_c, 0, 77, 64
1, 39825, Control_c, 0, 64, 63
1, 39840, Control_c, 0, 64, 71
1, 39855, Control_c, 0, 64, 91
1, 39870, Control_c, 0, 64, 127
1, 39954, Note_off_c, 0, 68, 61
1, 40152, Note_on_c, 0, 62, 45
1, 40445, Note_on_c, 0, 56, 57
1, 40496, Note_off_c, 0, 62, 59
1, 40645, Note_off_c, 0, 56, 61
1, 40713, Note_on_c, 0, 47, 51
1, 40713, Poly_aftertouch_c, 0, 50, 127
1, 40760, Poly_aftertouch_c, 0, 50, 0
1, 40788, Note_off_c, 0, 47, 63
1, 40793, Note_on_c, 0, 77, 74
1, 40872, Note_off_c, 0, 78, 49
1, 41212, Note_on_c, 0, 39, 43
1, 41214, Note_on_c, 0, 27, 46
1, 41235, Control_c, 0, 64, 106
1, 41250, Control_c, 0, 64, 72
1, 41264, Control_c, 0, 64, 55
1, 41279, Control_c, 0, 64, 38
1, 41294, Control_c, 0, 64, 42
1, 41309, Control_c, 0, 64, 55
1, 41324, Control_c, 0, 64, 64
1, 41338, Control_c, 0, 64, 74
1, 41353, Control_c, 0, 64, 100
1, 41368, Control_c, 0, 64, 127
1, 41416, Note_off_c, 0, 27, 59
1, 41462, Note_off_c, 0, 39, 59
1, 41809, Note_on_c, 0, 46, 43
1, 41867, Note_on_c, 0, 74, 61
1, 42189, Note_off_c, 0, 77, 57
1, 42191, Note_off_c, 0, 46, 33
1, 42222, Note_on_c, 0, 54, 50
1, 42383, Note_off_c, 0, 54, 53
1, 42497, Note_on_c, 0, 63, 36
1, 42598, Note_off_c, 0, 63, 62
1, 42605, Note_on_c, 0, 75, 65
1, 42754, Note_on_c, 0, 77, 69
1, 42759, Note_off_c, 0, 74, 59
1, 42763, Note_off_c, 0, 75, 61
1, 42920, Note_on_c, 0, 70, 52
1, 42972, Note_on_c, 0, 75, 62
1, 42998, Note_off_c, 0, 70, 60
1, 43006, Note_off_c, 0, 77, 61
1, 43367, Note_on_c, 0, 63, 48
1, 43586, Note_off_c, 0, 63, 48
1, 43666, Note_on_c, 0, 54, 56
1, 43958, Note_on_c, 0, 46, 54
1, 44018, Note_off_c, 0, 46, 62
1, 44033, Note_off_c, 0, 54, 41
1, 44437, Note_on_c, 0, 39, 57
1, 44481, Control_c, 0, 64, 68
1, 44496, Control_c, 0, 64, 0
1, 44570, Control_c, 0, 64, 17
1, 44585, Control_c, 0, 64, 45
1, 44608, Control_c, 0, 64, 56
1, 44623, Control_c, 0, 64, 63
1, 44637, Control_c, 0, 64, 71
1, 44652, Control_c, 0, 64, 87
1, 44667, Control_c, 0, 64, 127
1, 44772, Poly_aftertouch_c, 0, 73, 127
1, 44778, Note_on_c, 0, 46, 63
1, 45052, Note_on_c, 0, 54, 51
1, 45130, Note_off_c, 0, 39, 62
1, 45138, Note_on_c, 0, 70, 78
1, 45163, Note_off_c, 0, 46, 61
1, 45177, Note_off_c, 0, 54, 64
1, 45402, Note_on_c, 0, 63, 71
1, 45440, Note_off_c, 0, 63, 59
1, 45744, Note_on_c, 0, 38, 65
1, 45800, Control_c, 0, 64, 98
1, 45815, Control_c, 0, 64, 66
1, 45830, Control_c, 0, 64, 17
1, 45845, Control_c, 0, 64, 0
1, 45875, Control_c, 0, 64, 39
1, 45890, Control_c, 0, 64, 60
1, 45905, Control_c, 0, 64, 70
1, 45919, Control_c, 0, 64, 89
1, 45934, Control_c, 0, 64, 127
1, 46006, Poly_aftertouch_c, 0, 73, 0
1, 46036, Note_on_c, 0, 46, 66
1, 46112, Poly_aftertouch_c, 0, 40, 127
1, 46129, Note_off_c, 0, 38, 53
1, 46151, Poly_aftertouch_c, 0, 40, 0
1, 46164, Note_off_c, 0, 70, 56
1, 46340, Note_on_c, 0, 54, 52
1, 46401, Note_off_c, 0, 46, 59
1, 46415, Note_on_c, 0, 71, 77
1, 46487, Note_off_c, 0, 54, 64
1, 46602, Note_off_c, 0, 75, 36
1, 46748, Note_on_c, 0, 62, 61
1, 46777, Note_off_c, 0, 62, 66
1, 47239, Note_on_c, 0, 37, 49
1, 47314, Note_on_c, 0, 73, 74
1, 47358, Control_c, 0, 64, 75
1, 47372, Control_c, 0, 64, 38
1, 47387, Control_c, 0, 64, 0
1, 47443, Note_off_c, 0, 71, 60
1, 47461, Control_c, 0, 64, 45
1, 47476, Control_c, 0, 64, 59
1, 47491, Control_c, 0, 64, 65
1, 47506, Control_c, 0, 64, 72
1, 47520, Control_c, 0, 64, 87
1, 47535, Control_c, 0, 64, 127
1, 47643, Note_off_c, 0, 37, 36
1, 47726, Note_on_c, 0, 49, 42
1, 47782, Note_off_c, 0, 49, 63
1, 48056, Note_on_c, 0, 58, 47
1, 48352, Note_on_c, 0, 66, 46
1, 48577, Note_off_c, 0, 58, 31
1, 48695, Note_on_c, 0, 70, 48
1, 48829, Note_off_c, 0, 66, 50
1, 48978, Note_off_c, 0, 70, 35
1, 48991, Note_on_c, 0, 66, 47
1, 49253, Note_off_c, 0, 66, 30
1, 49309, Note_on_c, 0, 58, 46
1, 49383, Note_off_c, 0, 58, 61
1, 49616, Note_on_c, 0, 49, 46
1, 50114, Note_on_c, 0, 37, 46
1, 50145, Control_c, 0, 64, 102
1, 50159, Control_c, 0, 64, 69
1, 50174, Control_c, 0, 64, 47
1, 50189, Control_c, 0, 64, 0
1, 50219, Control_c, 0, 64, 16
1, 50234, Control_c, 0, 64, 46
1, 50242, Note_off_c, 0, 49, 37
1, 50248, Control_c, 0, 64, 61
1, 50263, Control_c, 0, 64, 68
1, 50278, Control_c, 0, 64, 77
1, 50293, Control_c, 0, 64, 93
1, 50308, Control_c, 0, 64, 127
1, 50486, Note_on_c, 0, 49, 40
1, 50515, Note_off_c, 0, 37, 36
1, 50640, Note_off_c, 0, 49, 61
1, 50688, Note_off_c, 0, 73, 59
1, 50695, Note_on_c, 0, 75, 57
1, 50901, Note_on_c, 0, 73, 70
1, 51078, Note_off_c, 0, 75, 33
1, 51095, Note_on_c, 0, 53, 42
1, 51209, Note_on_c, 0, 71, 58
1, 51244, Note_on_c, 0, 63, 38
1, 51265, Control_c, 0, 64, 87
1, 51279, Note_off_c, 0, 73, 58
1, 51280, Control_c, 0, 64, 62
1, 51294, Control_c, 0, 64, 0
1, 51361, Control_c, 0, 64, 35
1, 51376, Control_c, 0, 64, 59
1, 51391, Control_c, 0, 64, 65
1, 51406, Control_c, 0, 64, 70
1, 51420, Control_c, 0, 64, 76
1, 51435, Control_c, 0, 64, 85
1, 51450, Control_c, 0, 64, 96
1, 51465, Control_c, 0, 64, 127
1, 51524, Note_off_c, 0, 63, 58
1, 51637, Note_on_c, 0, 59, 36
1, 51658, Note_off_c, 0, 53, 41
1, 51944, Note_on_c, 0, 68, 39
1, 51965, Note_off_c, 0, 59, 34
1, 52018, Note_off_c, 0, 68, 51
1, 52109, Note_off_c, 0, 71, 61
1, 52236, Note_on_c, 0, 59, 38
1, 52299, Note_off_c, 0, 59, 61
1, 52621, Note_on_c, 0, 70, 43
1, 52660, Note_on_c, 0, 61, 32
1, 52663, Note_on_c, 0, 53, 12
1, 52847, Note_off_c, 0, 53, 42
1, 52932, Note_on_c, 0, 49, 34
1, 53008, Note_off_c, 0, 49, 56
1, 53458, Note_on_c, 0, 42, 31
1, 53463, Note_on_c, 0, 30, 29
1, 53524, Note_on_c, 0, 66, 43
1, 53559, Note_on_c, 0, 58, 22
1, 53637, Control_c, 0, 64, 76
1, 53652, Control_c, 0, 64, 56
1, 53667, Control_c, 0, 64, 0
1, 53711, Control_c, 0, 64, 33
1, 53726, Control_c, 0, 64, 55
1, 53740, Control_c, 0, 64, 64
1, 53755, Control_c, 0, 64, 71
1, 53770, Control_c, 0, 64, 81
1, 53785, Control_c, 0, 64, 100
1, 53796, Note_off_c, 0, 30, 40
1, 53800, Control_c, 0, 64, 127
1, 53823, Note_off_c, 0, 61, 39
1, 53846, Note_off_c, 0, 42, 49
1, 53932, Note_off_c, 0, 58, 46
1, 54198, Note_on_c, 0, 49, 28
1, 54585, Note_on_c, 0, 54, 38
1, 54645, Note_off_c, 0, 49, 34
1, 54742, Note_off_c, 0, 70, 32
1, 54900, Note_on_c, 0, 58, 38
1, 54974, Note_off_c, 0, 54, 40
1, 55244, Note_on_c, 0, 63, 33
1, 55275, Note_off_c, 0, 58, 36
1, 55562, Note_on_c, 0, 61, 35
1, 55617, Note_off_c, 0, 63, 35
1, 55912, Note_on_c, 0, 58, 30
1, 55976, Note_off_c, 0, 61, 34
1, 56120, Note_off_c, 0, 58, 37
1, 56253, Note_on_c, 0, 54, 38
1, 56364, Note_off_c, 0, 54, 50
1, 56839, Note_on_c, 0, 32, 17
1, 56868, Note_on_c, 0, 44, 21
1, 56928, Control_c, 0, 64, 95
1, 56943, Control_c, 0, 64, 69
1, 56958, Control_c, 0, 64, 50
1, 56973, Control_c, 0, 64, 16
1, 56988, Control_c, 0, 64, 17
1, 57003, Control_c, 0, 64, 39
1, 57018, Control_c, 0, 64, 58
1, 57032, Control_c, 0, 64, 67
1, 57047, Control_c, 0, 64, 79
1, 57062, Control_c, 0, 64, 127
1, 57107, Note_off_c, 0, 32, 41
1, 57134, Note_off_c, 0, 66, 59
1, 57157, Note_off_c, 0, 44, 55
1, 57494, Note_on_c, 0, 53, 29
1, 57832, Note_on_c, 0, 59, 29
1, 57932, Note_off_c, 0, 53, 41
1, 57956, Note_on_c, 0, 65, 39
1, 58299, Note_off_c, 0, 65, 57
1, 58354, Note_on_c, 0, 63, 39
1, 58426, Note_off_c, 0, 63, 55
1, 58463, Poly_aftertouch_c, 0, 53, 127
1, 58645, Note_on_c, 0, 66, 52
1, 58656, Note_on_c, 0, 63, 48
1, 58735, Note_off_c, 0, 59, 34
1, 58761, Note_off_c, 0, 63, 59
1, 58812, Poly_aftertouch_c, 0, 53, 0
1, 58923, Note_on_c, 0, 63, 48
1, 58933, Note_off_c, 0, 66, 49
1, 59011, Poly_aftertouch_c, 0, 53, 127
1, 59074, Note_off_c, 0, 63, 36
1, 59212, Note_on_c, 0, 68, 64
1, 59230, Note_on_c, 0, 59, 39
1, 59243, Note_on_c, 0, 65, 47
1, 59406, Poly_aftertouch_c, 0, 53, 0
1, 59430, Note_off_c, 0, 59, 34
1, 59488, Note_on_c, 0, 53, 31
1, 59568, Note_off_c, 0, 53, 60
1, 59894, Note_on_c, 0, 46, 35
1, 59903, Note_on_c, 0, 34, 40
1, 59968, Note_on_c, 0, 70, 61
1, 59978, Note_on_c, 0, 62, 45
1, 59984, Control_c, 0, 64, 121
1, 59999, Control_c, 0, 64, 73
1, 60013, Control_c, 0, 64, 49
1, 60028, Control_c, 0, 64, 0
1, 60073, Control_c, 0, 64, 46
1, 60082, Note_off_c, 0, 68, 61
1, 60088, Control_c, 0, 64, 62
1, 60103, Control_c, 0, 64, 71
1, 60112, Note_off_c, 0, 65, 55
1, 60118, Control_c, 0, 64, 89
1, 60132, Control_c, 0, 64, 127
1, 60162, Note_off_c, 0, 34, 40
1, 60177, Note_off_c, 0, 46, 55
1, 60314, Note_off_c, 0, 62, 58
1, 60484, Note_on_c, 0, 53, 45
1, 60863, Note_on_c, 0, 58, 55
1, 61089, Note_off_c, 0, 53, 34
1, 61174, Note_on_c, 0, 62, 55
1, 61364, Note_off_c, 0, 58, 56
1, 61536, Note_on_c, 0, 66, 56
1, 61625, Note_off_c, 0, 70, 54
1, 61763, Note_off_c, 0, 66, 59
1, 61871, Note_on_c, 0, 65, 53
1, 62034, Note_off_c, 0, 62, 30
1, 62144, Note_on_c, 0, 62, 38
1, 62262, Note_off_c, 0, 65, 48
1, 62422, Note_off_c, 0, 62, 52
1, 62452, Note_on_c, 0, 58, 48
1, 62500, Note_off_c, 0, 58, 64
1, 62864, Note_on_c, 0, 41, 41
1, 62918, Control_c, 0, 64, 91
1, 62933, Control_c, 0, 64, 67
1, 62948, Control_c, 0, 64, 37
1, 62963, Control_c, 0, 64, 0
1, 63007, Control_c, 0, 64, 47
1, 63022, Control_c, 0, 64, 63
1, 63037, Control_c, 0, 64, 72
1, 63051, Control_c, 0, 64, 90
1, 63066, Control_c, 0, 64, 127
1, 63173, Note_on_c, 0, 51, 53
1, 63239, Note_off_c, 0, 41, 62
1, 63263, Note_on_c, 0, 71, 64
1, 63277, Note_on_c, 0, 68, 47
1, 63278, Note_off_c, 0, 51, 64
1, 63370, Note_off_c, 0, 68, 54
1, 63378, Note_off_c, 0, 71, 63
1, 63567, Note_on_c, 0, 56, 53
1, 63650, Note_on_c, 0, 70, 54
1, 63650, Note_on_c, 0, 73, 76
1, 63754, Note_off_c, 0, 70, 53
1, 63824, Poly_aftertouch_c, 0, 80, 0
1, 63889, Note_on_c, 0, 75, 80
1, 63893, Note_on_c, 0, 71, 69
1, 63901, Note_off_c, 0, 73, 64
1, 63976, Note_on_c, 0, 59, 64
1, 64025, Note_off_c, 0, 75, 62
1, 64059, Note_on_c, 0, 77, 87
1, 64088, Note_on_c, 0, 73, 60
1, 64111, Note_off_c, 0, 73, 65
1, 64123, Note_off_c, 0, 77, 65
1, 64316, Note_on_c, 0, 66, 50
1, 64371, Control_c, 0, 64, 82
1, 64379, Note_on_c, 0, 82, 82
1, 64386, Control_c, 0, 64, 64
1, 64401, Control_c, 0, 64, 51
1, 64408, Note_on_c, 0, 78, 63
1, 64415, Control_c, 0, 64, 52
1, 64430, Control_c, 0, 64, 56
1, 64445, Control_c, 0, 64, 63
1, 64460, Control_c, 0, 64, 70
1, 64475, Control_c, 0, 64, 85
1, 64489, Control_c, 0, 64, 127
1, 64604, Note_off_c, 0, 66, 51
1, 64801, Note_off_c, 0, 59, 60
1, 64807, Note_on_c, 0, 65, 41
1, 64832, Note_off_c, 0, 56, 36
1, 64854, Note_off_c, 0, 71, 53
1, 64867, Note_off_c, 0, 82, 64
1, 64932, Note_off_c, 0, 78, 64
1, 65066, Note_off_c, 0, 65, 36
1, 65090, Note_on_c, 0, 59, 40
1, 65328, Note_off_c, 0, 59, 42
1, 65355, Note_on_c, 0, 80, 62
1, 65368, Note_on_c, 0, 56, 49
1, 65369, Note_on_c, 0, 77, 60
1, 65415, Note_off_c, 0, 56, 63
1, 65805, Note_on_c, 0, 34, 41
1, 65829, Note_on_c, 0, 46, 42
1, 65831, Note_on_c, 0, 74, 48
1, 65850, Note_on_c, 0, 70, 42
1, 65898, Control_c, 0, 64, 97
1, 65913, Control_c, 0, 64, 69
1, 65928, Control_c, 0, 64, 52
1, 65942, Control_c, 0, 64, 40
1, 65954, Note_off_c, 0, 77, 57
1, 65957, Control_c, 0, 64, 44
1, 65972, Control_c, 0, 64, 55
1, 65987, Control_c, 0, 64, 65
1, 66002, Control_c, 0, 64, 78
1, 66010, Note_off_c, 0, 80, 58
1, 66017, Control_c, 0, 64, 127
1, 66061, Note_off_c, 0, 34, 41
1, 66081, Note_off_c, 0, 46, 62
1, 66349, Note_on_c, 0, 53, 43
1, 66697, Note_on_c, 0, 58, 51
1, 66828, Note_off_c, 0, 70, 49
1, 66876, Note_off_c, 0, 53, 55
1, 66993, Note_on_c, 0, 62, 46
1, 67076, Note_off_c, 0, 58, 59
1, 67338, Note_on_c, 0, 66, 45
1, 67588, Note_off_c, 0, 66, 36
1, 67665, Note_on_c, 0, 65, 47
1, 67758, Note_off_c, 0, 62, 50
1, 67961, Note_on_c, 0, 62, 48
1, 68013, Note_off_c, 0, 65, 48
1, 68250, Note_on_c, 0, 58, 53
1, 68250, Note_off_c, 0, 62, 52
1, 68298, Note_off_c, 0, 58, 63
1, 68631, Note_on_c, 0, 44, 51
1, 68759, Control_c, 0, 64, 85
1, 68775, Control_c, 0, 64, 63
1, 68790, Control_c, 0, 64, 0
1, 68879, Control_c, 0, 64, 56
1, 68894, Control_c, 0, 64, 64
1, 68908, Control_c, 0, 64, 69
1, 68923, Control_c, 0, 64, 75
1, 68938, Control_c, 0, 64, 84
1, 68951, Note_on_c, 0, 53, 53
1, 68953, Control_c, 0, 64, 99
1, 68968, Control_c, 0, 64, 127
1, 69221, Note_on_c, 0, 58, 48
1, 69296, Note_on_c, 0, 70, 73
1, 69324, Note_off_c, 0, 53, 63
1, 69326, Note_off_c, 0, 44, 62
1, 69376, Note_off_c, 0, 58, 63
1, 69493, Note_off_c, 0, 74, 60
1, 69564, Note_on_c, 0, 62, 64
1, 69840, Note_on_c, 0, 72, 83
1, 69865, Note_on_c, 0, 66, 55
1, 70001, Note_off_c, 0, 66, 59
1, 70109, Note_on_c, 0, 65, 71
1, 70191, Note_off_c, 0, 62, 57
1, 70399, Note_on_c, 0, 62, 67
1, 70408, Note_on_c, 0, 74, 86
1, 70484, Note_off_c, 0, 72, 60
1, 70489, Note_off_c, 0, 65, 60
1, 70566, Note_off_c, 0, 70, 54
1, 70680, Note_off_c, 0, 62, 58
1, 70688, Note_on_c, 0, 58, 78
1, 70736, Note_off_c, 0, 58, 64
1, 71082, Note_on_c, 0, 75, 80
1, 71085, Note_on_c, 0, 42, 60
1, 71086, Note_on_c, 0, 70, 63
1, 71087, Note_on_c, 0, 66, 55
1, 71125, Control_c, 0, 64, 107
1, 71139, Control_c, 0, 64, 66
1, 71155, Control_c, 0, 64, 21
1, 71170, Control_c, 0, 64, 0
1, 71185, Control_c, 0, 64, 24
1, 71195, Note_off_c, 0, 74, 60
1, 71200, Control_c, 0, 64, 55
1, 71215, Control_c, 0, 64, 70
1, 71229, Control_c, 0, 64, 103
1, 71244, Control_c, 0, 64, 127
1, 71314, Note_off_c, 0, 66, 58
1, 71334, Note_off_c, 0, 42, 54
1, 71486, Note_on_c, 0, 58, 76
1, 71543, Note_off_c, 0, 58, 63
1, 71754, Note_on_c, 0, 63, 71
1, 71877, Note_off_c, 0, 70, 63
1, 72024, Note_on_c, 0, 66, 75
1, 72161, Note_off_c, 0, 63, 52
1, 72387, Note_on_c, 0, 71, 80
1, 72486, Note_off_c, 0, 75, 60
1, 72501, Note_off_c, 0, 66, 61
1, 72730, Note_on_c, 0, 70, 75
1, 72998, Note_on_c, 0, 66, 77
1, 73073, Note_off_c, 0, 71, 61
1, 73083, Note_off_c, 0, 70, 61
1, 73281, Note_on_c, 0, 63, 80
1, 73323, Note_off_c, 0, 66, 57
1, 73332, Note_off_c, 0, 63, 65
1, 73655, Note_on_c, 0, 48, 79
1, 73666, Note_on_c, 0, 36, 74
1, 73713, Control_c, 0, 64, 70
1, 73728, Control_c, 0, 64, 0
1, 73757, Control_c, 0, 64, 40
1, 73772, Control_c, 0, 64, 64
1, 73787, Control_c, 0, 64, 94
1, 73795, Note_off_c, 0, 36, 63
1, 73809, Control_c, 0, 64, 127
1, 73827, Note_off_c, 0, 48, 65
1, 74040, Note_on_c, 0, 70, 82
1, 74041, Note_on_c, 0, 77, 88
1, 74047, Note_on_c, 0, 58, 64
1, 74084, Note_off_c, 0, 70, 66
1, 74107, Note_off_c, 0, 77, 66
1, 74314, Note_on_c, 0, 63, 71
1, 74393, Note_on_c, 0, 78, 90
1, 74394, Note_on_c, 0, 75, 87
1, 74519, Note_off_c, 0, 75, 61
1, 74610, Note_on_c, 0, 80, 88
1, 74612, Note_on_c, 0, 77, 86
1, 74639, Note_off_c, 0, 78, 62
1, 74674, Note_on_c, 0, 66, 75
1, 74713, Note_off_c, 0, 80, 62
1, 74730, Note_off_c, 0, 63, 62
1, 74733, Note_off_c, 0, 58, 62
1, 74754, Note_on_c, 0, 78, 91
1, 74757, Note_on_c, 0, 82, 90
1, 74801, Note_off_c, 0, 78, 65
1, 74807, Note_off_c, 0, 77, 53
1, 74808, Note_off_c, 0, 82, 67
1, 74864, Poly_aftertouch_c, 0, 77, 127
1, 75004, Note_on_c, 0, 73, 80
1, 75016, Control_c, 0, 64, 100
1, 75031, Control_c, 0, 64, 78
1, 75045, Note_on_c, 0, 89, 100
1, 75046, Control_c, 0, 64, 86
1, 75049, Note_on_c, 0, 85, 91
1, 75061, Control_c, 0, 64, 127
1, 75215, Note_off_c, 0, 73, 56
1, 75392, Note_on_c, 0, 72, 88
1, 75481, Note_off_c, 0, 66, 57
1, 75492, Note_off_c, 0, 85, 65
1, 75528, Note_off_c, 0, 89, 61
1, 75638, Note_on_c, 0, 66, 85
1, 75742, Note_off_c, 0, 72, 57
1, 75876, Note_on_c, 0, 84, 91
1, 75878, Note_on_c, 0, 87, 95
1, 75894, Note_on_c, 0, 63, 76
1, 75937, Note_off_c, 0, 66, 62
1, 75945, Poly_aftertouch_c, 0, 77, 0
1, 75961, Note_off_c, 0, 63, 63
1, 76248, Note_on_c, 0, 41, 80
1, 76317, Note_on_c, 0, 81, 90
1, 76324, Note_on_c, 0, 77, 84
1, 76351, Control_c, 0, 64, 91
1, 76366, Control_c, 0, 64, 51
1, 76375, Note_off_c, 0, 87, 58
1, 76381, Control_c, 0, 64, 0
1, 76415, Note_off_c, 0, 84, 54
1, 76425, Control_c, 0, 64, 36
1, 76440, Control_c, 0, 64, 61
1, 76455, Control_c, 0, 64, 72
1, 76469, Control_c, 0, 64, 109
1, 76484, Control_c, 0, 64, 127
1, 76712, Note_on_c, 0, 48, 81
1, 76722, Note_off_c, 0, 41, 63
1, 76742, Note_off_c, 0, 48, 68
1, 76987, Note_on_c, 0, 57, 82
1, 77234, Note_on_c, 0, 60, 83
1, 77303, Note_off_c, 0, 57, 62
1, 77552, Note_on_c, 0, 69, 84
1, 77627, Note_off_c, 0, 60, 64
1, 77802, Note_off_c, 0, 69, 63
1, 77813, Note_on_c, 0, 60, 86
1, 78065, Note_on_c, 0, 57, 90
1, 78084, Note_off_c, 0, 60, 64
1, 78099, Note_off_c, 0, 57, 69
1, 78356, Note_on_c, 0, 48, 91
1, 78392, Note_off_c, 0, 48, 67
1, 78701, Note_off_c, 0, 77, 60
1, 78821, Note_on_c, 0, 45, 92
1, 78823, Note_on_c, 0, 33, 85
1, 78835, Control_c, 0, 64, 72
1, 78850, Control_c, 0, 64, 59
1, 78865, Control_c, 0, 64, 64
1, 78880, Control_c, 0, 64, 75
1, 78894, Control_c, 0, 64, 127
1, 78918, Note_off_c, 0, 33, 63
1, 78938, Note_off_c, 0, 45, 64
1, 79005, Note_off_c, 0, 81, 65
1, 79213, Note_on_c, 0, 54, 87
1, 79494, Note_on_c, 0, 63, 74
1, 79500, Poly_aftertouch_c, 0, 56, 127
1, 79553, Note_on_c, 0, 87, 98
1, 79556, Note_on_c, 0, 78, 97
1, 79557, Note_on_c, 0, 90, 92
1, 79561, Poly_aftertouch_c, 0, 56, 0
1, 79796, Note_off_c, 0, 54, 51
1, 79815, Note_on_c, 0, 66, 87
1, 79836, Note_off_c, 0, 63, 61
1, 79851, Note_off_c, 0, 66, 63
1, 79852, Note_off_c, 0, 78, 62
1, 79862, Note_off_c, 0, 87, 55
1, 79873, Note_off_c, 0, 90, 62
1, 80056, Note_on_c, 0, 89, 100
1, 80057, Note_on_c, 0, 85, 99
1, 80058, Note_on_c, 0, 77, 97
1, 80063, Note_on_c, 0, 75, 79
1, 80084, Note_off_c, 0, 75, 70
1, 80328, Note_on_c, 0, 66, 93
1, 80341, Note_off_c, 0, 89, 62
1, 80370, Note_off_c, 0, 77, 63
1, 80390, Note_off_c, 0, 85, 58
1, 80599, Note_on_c, 0, 87, 97
1, 80600, Note_on_c, 0, 84, 91
1, 80601, Note_on_c, 0, 75, 99
1, 80619, Note_on_c, 0, 63, 83
1, 80651, Note_off_c, 0, 66, 60
1, 80887, Note_on_c, 0, 54, 90
1, 80907, Note_off_c, 0, 63, 62
1, 80927, Note_off_c, 0, 54, 68
1, 80931, Note_off_c, 0, 75, 59
1, 81133, Note_off_c, 0, 87, 60
1, 81343, Note_on_c, 0, 46, 81
1, 81348, Note_on_c, 0, 34, 77
1, 81366, Note_on_c, 0, 85, 94
1, 81368, Note_on_c, 0, 89, 96
1, 81369, Control_c, 0, 64, 70
1, 81372, Note_on_c, 0, 77, 94
1, 81384, Control_c, 0, 64, 0
1, 81428, Control_c, 0, 64, 57
1, 81443, Control_c, 0, 64, 75
1, 81458, Control_c, 0, 64, 127
1, 81462, Note_off_c, 0, 84, 51
1, 81472, Note_off_c, 0, 34, 62
1, 81504, Note_off_c, 0, 46, 63
1, 81789, Note_on_c, 0, 53, 81
1, 81899, Note_off_c, 0, 89, 63
1, 81905, Note_off_c, 0, 77, 63
1, 81998, Note_on_c, 0, 57, 19
1, 82047, Note_on_c, 0, 61, 69
1, 82106, Note_off_c, 0, 85, 62
1, 82159, Note_on_c, 0, 87, 92
1, 82162, Note_on_c, 0, 75, 93
1, 82165, Note_on_c, 0, 84, 85
1, 82165, Note_off_c, 0, 57, 43
1, 82290, Note_off_c, 0, 75, 61
1, 82380, Note_off_c, 0, 87, 61
1, 82413, Note_on_c, 0, 89, 88
1, 82419, Note_on_c, 0, 85, 82
1, 82422, Note_on_c, 0, 77, 85
1, 82430, Note_off_c, 0, 53, 52
1, 82467, Note_off_c, 0, 84, 61
1, 82500, Note_off_c, 0, 77, 64
1, 82511, Note_off_c, 0, 89, 63
1, 82516, Note_on_c, 0, 65, 70
1, 82536, Note_off_c, 0, 61, 60
1, 82544, Note_off_c, 0, 85, 65
1, 82552, Note_off_c, 0, 65, 63
1, 82597, Note_on_c, 0, 87, 86
1, 82606, Note_on_c, 0, 84, 76
1, 82607, Note_on_c, 0, 75, 84
1, 82641, Note_off_c, 0, 84, 58
1, 82671, Note_off_c, 0, 75, 61
1, 82699, Note_off_c, 0, 87, 61
1, 82768, Note_on_c, 0, 73, 63
1, 82802, Note_off_c, 0, 73, 67
1, 82840, Note_on_c, 0, 85, 87
1, 82847, Note_on_c, 0, 82, 79
1, 82849, Note_on_c, 0, 73, 89
1, 83226, Note_on_c, 0, 65, 61
1, 83330, Poly_aftertouch_c, 0, 61, 127
1, 83393, Poly_aftertouch_c, 0, 61, 0
1, 83486, Note_on_c, 0, 61, 73
1, 83576, Note_off_c, 0, 65, 61
1, 83676, Note_off_c, 0, 61, 51
1, 83754, Note_on_c, 0, 53, 69
1, 83792, Note_off_c, 0, 53, 64
1, 84087, Note_on_c, 0, 29, 66
1, 84087, Note_on_c, 0, 41, 69
1, 84106, Control_c, 0, 64, 63
1, 84121, Control_c, 0, 64, 0
1, 84180, Control_c, 0, 64, 54
1, 84187, Note_off_c, 0, 29, 63
1, 84195, Control_c, 0, 64, 69
1, 84210, Control_c, 0, 64, 93
1, 84220, Note_off_c, 0, 41, 65
1, 84225, Control_c, 0, 64, 127
1, 84372, Note_off_c, 0, 82, 59
1, 84396, Note_off_c, 0, 73, 62
1, 84396, Note_off_c, 0, 85, 64
1, 84406, Note_on_c, 0, 50, 65
1, 84651, Note_on_c, 0, 59, 52
1, 84698, Note_on_c, 0, 83, 93
1, 84709, Note_on_c, 0, 71, 81
1, 84710, Note_on_c, 0, 80, 74
1, 84866, Note_off_c, 0, 50, 57
1, 84947, Note_on_c, 0, 62, 65
1, 84964, Note_off_c, 0, 59, 64
1, 85005, Note_off_c, 0, 80, 63
1, 85016, Poly_aftertouch_c, 0, 76, 127
1, 85020, Note_off_c, 0, 83, 64
1, 85038, Note_off_c, 0, 71, 63
1, 85060, Poly_aftertouch_c, 0, 76, 0
1, 85233, Note_on_c, 0, 68, 58
1, 85276, Note_on_c, 0, 82, 83
1, 85289, Note_on_c, 0, 70, 71
1, 85294, Note_on_c, 0, 78, 77
1, 85306, Control_c, 0, 64, 112
1, 85321, Control_c, 0, 64, 94
1, 85335, Control_c, 0, 64, 95
1, 85350, Control_c, 0, 64, 104
1, 85365, Control_c, 0, 64, 127
1, 85378, Note_off_c, 0, 68, 62
1, 85379, Note_off_c, 0, 62, 54
1, 85510, Note_on_c, 0, 62, 51
1, 85552, Note_off_c, 0, 70, 61
1, 85798, Note_on_c, 0, 59, 49
1, 85836, Note_on_c, 0, 80, 75
1, 85846, Note_on_c, 0, 77, 65
1, 85848, Control_c, 0, 64, 107
1, 85851, Note_on_c, 0, 68, 58
1, 85860, Note_off_c, 0, 78, 59
1, 85863, Control_c, 0, 64, 74
1, 85867, Note_off_c, 0, 62, 29
1, 85878, Control_c, 0, 64, 65
1, 85892, Control_c, 0, 64, 64
1, 85907, Control_c, 0, 64, 67
1, 85922, Control_c, 0, 64, 75
1, 85937, Control_c, 0, 64, 96
1, 85952, Control_c, 0, 64, 127
1, 86043, Note_off_c, 0, 59, 55
1, 86076, Note_off_c, 0, 82, 53
1, 86129, Note_on_c, 0, 50, 51
1, 86178, Note_off_c, 0, 50, 64
1, 86187, Note_off_c, 0, 68, 48
1, 86534, Note_on_c, 0, 30, 44
1, 86546, Note_on_c, 0, 42, 43
1, 86577, Note_on_c, 0, 82, 77
1, 86594, Note_on_c, 0, 70, 55
1, 86598, Note_on_c, 0, 78, 69
1, 86627, Control_c, 0, 64, 73
1, 86641, Control_c, 0, 64, 49
1, 86656, Control_c, 0, 64, 0
1, 86671, Control_c, 0, 64, 18
1, 86675, Note_off_c, 0, 80, 48
1, 86686, Control_c, 0, 64, 43
1, 86693, Note_off_c, 0, 77, 62
1, 86701, Control_c, 0, 64, 60
1, 86715, Control_c, 0, 64, 69
1, 86730, Control_c, 0, 64, 85
1, 86745, Control_c, 0, 64, 127
1, 86793, Note_off_c, 0, 30, 40
1, 86811, Note_off_c, 0, 42, 62
1, 87057, Note_on_c, 0, 51, 55
1, 87107, Note_off_c, 0, 70, 60
1, 87304, Note_off_c, 0, 82, 61
1, 87310, Note_on_c, 0, 58, 53
1, 87366, Note_on_c, 0, 80, 69
1, 87372, Note_on_c, 0, 68, 61
1, 87377, Note_on_c, 0, 77, 65
1, 87428, Note_off_c, 0, 78, 49
1, 87484, Note_off_c, 0, 68, 59
1, 87577, Note_off_c, 0, 80, 62
1, 87597, Note_on_c, 0, 82, 74
1, 87604, Note_on_c, 0, 78, 66
1, 87623, Note_on_c, 0, 70, 64
1, 87664, Note_off_c, 0, 77, 35
1, 87698, Note_off_c, 0, 70, 62
1, 87726, Note_on_c, 0, 63, 55
1, 87733, Note_off_c, 0, 82, 63
1, 87747, Note_off_c, 0, 78, 63
1, 87758, Note_off_c, 0, 51, 62
1, 87776, Note_off_c, 0, 58, 62
1, 87785, Note_off_c, 0, 63, 62
1, 87799, Note_on_c, 0, 80, 74
1, 87820, Note_on_c, 0, 77, 43
1, 87821, Note_on_c, 0, 68, 64
1, 87846, Note_off_c, 0, 77, 50
1, 87890, Note_off_c, 0, 80, 63
1, 87891, Note_off_c, 0, 68, 61
1, 88095, Note_on_c, 0, 70, 62
1, 88122, Note_on_c, 0, 78, 72
1, 88138, Note_on_c, 0, 75, 65
1, 88152, Note_on_c, 0, 66, 53
1, 88183, Note_off_c, 0, 70, 62
1, 88524, Note_on_c, 0, 63, 55
1, 88820, Note_on_c, 0, 58, 63
1, 88903, Note_off_c, 0, 63, 60
1, 89102, Note_on_c, 0, 51, 65
1, 89113, Note_off_c, 0, 58, 55
1, 89116, Note_off_c, 0, 66, 33
1, 89161, Note_off_c, 0, 51, 64
1, 89477, Note_on_c, 0, 32, 57
1, 89477, Note_on_c, 0, 44, 58
1, 89507, Poly_aftertouch_c, 0, 76, 127
1, 89532, Control_c, 0, 64, 87
1, 89547, Control_c, 0, 64, 58
1, 89562, Control_c, 0, 64, 0
1, 89621, Note_off_c, 0, 32, 62
1, 89621, Control_c, 0, 64, 54
1, 89636, Control_c, 0, 64, 67
1, 89650, Control_c, 0, 64, 85
1, 89665, Control_c, 0, 64, 127
1, 89667, Note_off_c, 0, 44, 63
1, 89904, Note_on_c, 0, 55, 21
1, 89938, Note_off_c, 0, 78, 64
1, 90004, Poly_aftertouch_c, 0, 53, 127
1, 90064, Poly_aftertouch_c, 0, 53, 0
1, 90109, Note_on_c, 0, 59, 54
1, 90147, Note_on_c, 0, 77, 83
1, 90159, Note_on_c, 0, 68, 62
1, 90320, Poly_aftertouch_c, 0, 57, 127
1, 90342, Poly_aftertouch_c, 0, 76, 0
1, 90359, Note_off_c, 0, 75, 61
1, 90391, Note_off_c, 0, 68, 61
1, 90407, Note_on_c, 0, 63, 73
1, 90479, Note_off_c, 0, 63, 61
1, 90617, Note_off_c, 0, 55, 40
1, 90658, Note_on_c, 0, 75, 82
1, 90665, Note_on_c, 0, 66, 75
1, 90681, Note_on_c, 0, 68, 68
1, 90740, Note_off_c, 0, 68, 53
1, 90767, Note_off_c, 0, 66, 60
1, 90777, Note_off_c, 0, 59, 33
1, 90809, Note_off_c, 0, 77, 49
1, 90911, Note_on_c, 0, 63, 75
1, 90911, Note_off_c, 0, 75, 61
1, 91051, Poly_aftertouch_c, 0, 57, 0
1, 91087, Poly_aftertouch_c, 0, 57, 127
1, 91103, Poly_aftertouch_c, 0, 55, 127
1, 91109, Note_off_c, 0, 63, 55
1, 91168, Note_on_c, 0, 59, 58
1, 91179, Note_on_c, 0, 74, 87
1, 91184, Note_on_c, 0, 65, 77
1, 91251, Poly_aftertouch_c, 0, 55, 0
1, 91295, Note_off_c, 0, 65, 60
1, 91432, Note_off_c, 0, 74, 62
1, 91445, Note_on_c, 0, 53, 75
1, 91447, Note_off_c, 0, 59, 60
1, 91481, Poly_aftertouch_c, 0, 57, 0
1, 91483, Note_off_c, 0, 53, 64
1, 91825, Note_on_c, 0, 34, 63
1, 91901, Note_on_c, 0, 80, 76
1, 91919, Note_on_c, 0, 71, 78
1, 91947, Poly_aftertouch_c, 0, 76, 127
1, 91957, Control_c, 0, 64, 71
1, 91972, Control_c, 0, 64, 28
1, 91987, Control_c, 0, 64, 0
1, 92016, Control_c, 0, 64, 42
1, 92031, Control_c, 0, 64, 63
1, 92046, Control_c, 0, 64, 75
1, 92060, Control_c, 0, 64, 127
1, 92285, Note_on_c, 0, 46, 61
1, 92292, Note_off_c, 0, 34, 60
1, 92329, Note_off_c, 0, 46, 63
1, 92582, Note_on_c, 0, 54, 66
1, 92676, Poly_aftertouch_c, 0, 76, 0
1, 92714, Poly_aftertouch_c, 0, 76, 127
1, 92856, Note_off_c, 0, 71, 53
1, 92875, Note_on_c, 0, 63, 57
1, 92916, Note_off_c, 0, 80, 61
1, 93259, Note_on_c, 0, 78, 73
1, 93281, Note_on_c, 0, 70, 57
1, 93305, Control_c, 0, 64, 87
1, 93320, Control_c, 0, 64, 79
1, 93335, Control_c, 0, 64, 81
1, 93349, Control_c, 0, 64, 89
1, 93364, Control_c, 0, 64, 127
1, 93446, Note_off_c, 0, 63, 55
1, 93546, Note_off_c, 0, 54, 60
1, 93590, Note_on_c, 0, 63, 56
1, 93708, Note_off_c, 0, 63, 30
1, 93882, Note_on_c, 0, 54, 57
1, 93943, Note_off_c, 0, 54, 62
1, 94183, Note_on_c, 0, 46, 63
1, 94621, Note_on_c, 0, 34, 64
1, 94693, Control_c, 0, 64, 87
1, 94708, Control_c, 0, 64, 65
1, 94722, Control_c, 0, 64, 17
1, 94737, Control_c, 0, 64, 0
1, 94818, Note_off_c, 0, 46, 33
1, 94833, Control_c, 0, 64, 18
1, 94848, Control_c, 0, 64, 51
1, 94863, Control_c, 0, 64, 62
1, 94878, Control_c, 0, 64, 65
1, 94893, Control_c, 0, 64, 69
1, 94908, Control_c, 0, 64, 75
1, 94922, Control_c, 0, 64, 88
1, 94937, Control_c, 0, 64, 127
1, 95093, Note_on_c, 0, 46, 53
1, 95124, Note_off_c, 0, 34, 58
1, 95139, Note_off_c, 0, 70, 53
1, 95170, Note_off_c, 0, 46, 63
1, 95327, Poly_aftertouch_c, 0, 76, 0
1, 95442, Note_on_c, 0, 56, 58
1, 95555, Note_on_c, 0, 77, 72
1, 95578, Note_on_c, 0, 68, 55
1, 95664, Note_off_c, 0, 68, 58
1, 95750, Note_off_c, 0, 78, 32
1, 95822, Note_on_c, 0, 78, 82
1, 95834, Note_on_c, 0, 70, 59
1, 95865, Note_on_c, 0, 62, 47
1, 95873, Note_off_c, 0, 77, 60
1, 95908, Note_off_c, 0, 70, 60
1, 96017, Note_on_c, 0, 77, 80
1, 96047, Note_on_c, 0, 68, 55
1, 96063, Note_off_c, 0, 78, 59
1, 96074, Note_off_c, 0, 68, 52
1, 96303, Note_on_c, 0, 70, 47
1, 96389, Control_c, 0, 64, 87
1, 96396, Note_on_c, 0, 75, 68
1, 96404, Control_c, 0, 64, 68
1, 96413, Note_on_c, 0, 66, 50
1, 96418, Control_c, 0, 64, 58
1, 96422, Note_off_c, 0, 62, 49
1, 96433, Control_c, 0, 64, 56
1, 96448, Control_c, 0, 64, 60
1, 96463, Control_c, 0, 64, 65
1, 96478, Control_c, 0, 64, 73
1, 96492, Control_c, 0, 64, 95
1, 96507, Note_off_c, 0, 77, 58
1, 96507, Control_c, 0, 64, 127
1, 96510, Note_off_c, 0, 70, 60
1, 96703, Note_off_c, 0, 56, 48
1, 96714, Note_on_c, 0, 62, 42
1, 96771, Note_off_c, 0, 62, 62
1, 96901, Note_off_c, 0, 66, 47
1, 97058, Note_on_c, 0, 56, 16
1, 97298, Note_off_c, 0, 56, 40
1, 97324, Note_off_c, 0, 75, 35
1, 97378, Note_on_c, 0, 46, 42
1, 97394, Note_on_c, 0, 74, 55
1, 97401, Note_on_c, 0, 65, 46
1, 97499, Note_off_c, 0, 46, 60
1, 97626, Note_off_c, 0, 65, 60
1, 97986, Note_on_c, 0, 27, 37
1, 98002, Note_on_c, 0, 39, 39
1, 98020, Note_on_c, 0, 66, 43
1, 98031, Note_on_c, 0, 75, 57
1, 98079, Control_c, 0, 64, 88
1, 98094, Control_c, 0, 64, 64
1, 98109, Control_c, 0, 64, 12
1, 98115, Note_off_c, 0, 74, 63
1, 98124, Control_c, 0, 64, 0
1, 98168, Control_c, 0, 64, 47
1, 98183, Control_c, 0, 64, 63
1, 98198, Control_c, 0, 64, 71
1, 98212, Control_c, 0, 64, 93
1, 98227, Control_c, 0, 64, 127
1, 98262, Note_off_c, 0, 27, 40
1, 98319, Note_off_c, 0, 39, 40
1, 98629, Note_on_c, 0, 46, 43
1, 98836, Note_off_c, 0, 66, 31
1, 98883, Note_off_c, 0, 75, 57
1, 98941, Note_on_c, 0, 54, 51
1, 98997, Note_off_c, 0, 46, 33
1, 99295, Note_on_c, 0, 63, 49
1, 99795, Note_on_c, 0, 78, 76
1, 99812, Note_on_c, 0, 70, 56
1, 99956, Note_off_c, 0, 63, 54
1, 100091, Note_off_c, 0, 54, 33
1, 100250, Note_on_c, 0, 63, 53
1, 100460, Note_off_c, 0, 63, 51
1, 100542, Note_on_c, 0, 54, 63
1, 100733, Poly_aftertouch_c, 0, 75, 127
1, 100857, Note_on_c, 0, 46, 65
1, 100887, Note_off_c, 0, 54, 34
1, 100920, Note_off_c, 0, 46, 63
1, 101353, Note_on_c, 0, 27, 61
1, 101359, Note_on_c, 0, 39, 60
1, 101386, Control_c, 0, 64, 114
1, 101401, Control_c, 0, 64, 68
1, 101416, Control_c, 0, 64, 35
1, 101430, Control_c, 0, 64, 0
1, 101445, Control_c, 0, 64, 28
1, 101460, Control_c, 0, 64, 55
1, 101475, Control_c, 0, 64, 69
1, 101490, Control_c, 0, 64, 89
1, 101513, Control_c, 0, 64, 127
1, 101521, Note_off_c, 0, 27, 61
1, 101563, Note_off_c, 0, 39, 62
1, 101820, Note_on_c, 0, 47, 67
1, 102004, Note_off_c, 0, 70, 60
1, 102148, Note_on_c, 0, 56, 49
1, 102189, Poly_aftertouch_c, 0, 75, 0
1, 102273, Note_on_c, 0, 77, 76
1, 102275, Control_c, 0, 64, 83
1, 102290, Control_c, 0, 64, 71
1, 102305, Control_c, 0, 64, 68
1, 102309, Note_on_c, 0, 68, 59
1, 102321, Control_c, 0, 64, 70
1, 102335, Control_c, 0, 64, 74
1, 102350, Control_c, 0, 64, 83
1, 102365, Control_c, 0, 64, 111
1, 102380, Control_c, 0, 64, 127
1, 102413, Note_off_c, 0, 78, 26
1, 102423, Note_off_c, 0, 68, 59
1, 102532, Note_off_c, 0, 47, 32
1, 102591, Note_on_c, 0, 78, 82
1, 102601, Note_on_c, 0, 70, 61
1, 102646, Note_off_c, 0, 77, 60
1, 102681, Note_off_c, 0, 70, 62
1, 102689, Note_on_c, 0, 62, 59
1, 102755, Note_off_c, 0, 78, 62
1, 102791, Note_off_c, 0, 56, 55
1, 102810, Note_on_c, 0, 77, 80
1, 102822, Note_on_c, 0, 68, 72
1, 102869, Note_off_c, 0, 68, 59
1, 102900, Note_off_c, 0, 62, 63
1, 102950, Note_on_c, 0, 75, 75
1, 102964, Note_on_c, 0, 66, 60
1, 102968, Note_off_c, 0, 77, 60
1, 102989, Note_off_c, 0, 66, 63
1, 103046, Poly_aftertouch_c, 0, 73, 127
1, 103063, Note_off_c, 0, 75, 59
1, 103081, Note_on_c, 0, 68, 77
1, 103081, Note_on_c, 0, 77, 84
1, 103105, Poly_aftertouch_c, 0, 73, 0
1, 103133, Note_off_c, 0, 68, 58
1, 103249, Note_on_c, 0, 68, 66
1, 103306, Control_c, 0, 64, 79
1, 103321, Control_c, 0, 64, 62
1, 103336, Control_c, 0, 64, 52
1, 103338, Note_on_c, 0, 78, 83
1, 103351, Control_c, 0, 64, 55
1, 103358, Note_on_c, 0, 70, 56
1, 103365, Control_c, 0, 64, 61
1, 103380, Control_c, 0, 64, 69
1, 103395, Control_c, 0, 64, 84
1, 103401, Note_off_c, 0, 77, 54
1, 103410, Control_c, 0, 64, 127
1, 103498, Note_off_c, 0, 68, 61
1, 103696, Poly_aftertouch_c, 0, 73, 127
1, 103720, Poly_aftertouch_c, 0, 74, 127
1, 103739, Note_on_c, 0, 62, 55
1, 103842, Note_off_c, 0, 70, 64
1, 103973, Poly_aftertouch_c, 0, 74, 0
1, 103980, Poly_aftertouch_c, 0, 73, 0
1, 104006, Note_on_c, 0, 56, 61
1, 104053, Note_off_c, 0, 62, 49
1, 104202, Note_off_c, 0, 56, 47
1, 104273, Note_on_c, 0, 47, 49
1, 104329, Note_on_c, 0, 77, 76
1, 104361, Note_on_c, 0, 68, 51
1, 104371, Note_off_c, 0, 47, 61
1, 104396, Note_off_c, 0, 78, 64
1, 104745, Note_on_c, 0, 39, 52
1, 104747, Note_on_c, 0, 27, 47
1, 104760, Control_c, 0, 64, 94
1, 104775, Control_c, 0, 64, 63
1, 104790, Control_c, 0, 64, 0
1, 104864, Control_c, 0, 64, 52
1, 104878, Control_c, 0, 64, 64
1, 104893, Control_c, 0, 64, 70
1, 104897, Note_off_c, 0, 27, 62
1, 104908, Control_c, 0, 64, 77
1, 104923, Control_c, 0, 64, 91
1, 104937, Control_c, 0, 64, 127
1, 104944, Note_off_c, 0, 39, 61
1, 104971, Note_off_c, 0, 68, 56
1, 105300, Note_on_c, 0, 46, 43
1, 105309, Note_on_c, 0, 74, 62
1, 105328, Note_on_c, 0, 65, 51
1, 105597, Note_off_c, 0, 46, 40
1, 105631, Note_on_c, 0, 54, 51
1, 105705, Note_off_c, 0, 65, 62
1, 105712, Note_off_c, 0, 74, 62
1, 105854, Note_off_c, 0, 54, 54
1, 105882, Note_on_c, 0, 63, 39
1, 105913, Note_off_c, 0, 77, 57
1, 105992, Note_on_c, 0, 75, 62
1, 106004, Note_off_c, 0, 63, 61
1, 106012, Note_on_c, 0, 66, 54
1, 106045, Note_off_c, 0, 66, 62
1, 106167, Note_on_c, 0, 77, 69
1, 106173, Note_off_c, 0, 75, 61
1, 106197, Note_on_c, 0, 68, 34
1, 106241, Note_off_c, 0, 68, 51
1, 106343, Note_on_c, 0, 70, 50
1, 106440, Note_on_c, 0, 75, 61
1, 106448, Note_on_c, 0, 66, 35
1, 106454, Note_off_c, 0, 70, 62
1, 106530, Note_off_c, 0, 77, 61
1, 106787, Note_on_c, 0, 63, 42
1, 106981, Note_off_c, 0, 63, 49
1, 107091, Note_on_c, 0, 54, 48
1, 107272, Note_off_c, 0, 54, 31
1, 107398, Note_on_c, 0, 46, 44
1, 107451, Note_off_c, 0, 46, 62
1, 107772, Note_on_c, 0, 39, 48
1, 107774, Note_on_c, 0, 27, 46
1, 107797, Control_c, 0, 64, 77
1, 107812, Control_c, 0, 64, 50
1, 107827, Control_c, 0, 64, 0
1, 107872, Control_c, 0, 64, 46
1, 107887, Control_c, 0, 64, 62
1, 107898, Note_off_c, 0, 66, 57
1, 107902, Control_c, 0, 64, 73
1, 107914, Note_off_c, 0, 27, 55
1, 107917, Control_c, 0, 64, 96
1, 107932, Control_c, 0, 64, 127
1, 107940, Note_off_c, 0, 39, 61
1, 108232, Note_on_c, 0, 70, 60
1, 108262, Note_on_c, 0, 46, 44
1, 108271, Note_on_c, 0, 61, 38
1, 108503, Note_off_c, 0, 61, 54
1, 108534, Note_off_c, 0, 75, 55
1, 108540, Note_on_c, 0, 55, 54
1, 108720, Note_off_c, 0, 46, 39
1, 108821, Note_on_c, 0, 71, 72
1, 108830, Note_on_c, 0, 61, 46
1, 108848, Note_on_c, 0, 63, 51
1, 108867, Note_off_c, 0, 55, 61
1, 108907, Note_off_c, 0, 61, 61
1, 108952, Note_off_c, 0, 63, 57
1, 109041, Note_off_c, 0, 70, 37
1, 109231, Note_on_c, 0, 67, 42
1, 109266, Control_c, 0, 64, 94
1, 109281, Control_c, 0, 64, 75
1, 109296, Control_c, 0, 64, 69
1, 109300, Note_on_c, 0, 73, 71
1, 109310, Control_c, 0, 64, 71
1, 109325, Control_c, 0, 64, 75
1, 109337, Note_on_c, 0, 64, 43
1, 109340, Control_c, 0, 64, 87
1, 109355, Control_c, 0, 64, 127
1, 109400, Note_off_c, 0, 71, 62
1, 109413, Note_off_c, 0, 67, 63
1, 109719, Note_on_c, 0, 61, 46
1, 110002, Note_on_c, 0, 55, 44
1, 110038, Note_off_c, 0, 61, 51
1, 110160, Note_off_c, 0, 55, 55
1, 110211, Note_off_c, 0, 64, 38
1, 110355, Note_on_c, 0, 46, 42
1, 110403, Note_off_c, 0, 46, 62
1, 110827, Note_on_c, 0, 32, 43
1, 110912, Control_c, 0, 64, 83
1, 110927, Control_c, 0, 64, 63
1, 110941, Control_c, 0, 64, 36
1, 110956, Control_c, 0, 64, 22
1, 110971, Control_c, 0, 64, 26
1, 110986, Control_c, 0, 64, 44
1, 111001, Control_c, 0, 64, 57
1, 111015, Control_c, 0, 64, 64
1, 111030, Control_c, 0, 64, 69
1, 111045, Control_c, 0, 64, 75
1, 111060, Control_c, 0, 64, 86
1, 111075, Control_c, 0, 64, 109
1, 111091, Control_c, 0, 64, 127
1, 111175, Note_off_c, 0, 32, 42
1, 111189, Note_on_c, 0, 44, 41
1, 111292, Note_off_c, 0, 44, 57
1, 111340, Note_on_c, 0, 66, 37
1, 111341, Note_on_c, 0, 75, 58
1, 111414, Note_off_c, 0, 73, 61
1, 111417, Note_off_c, 0, 66, 55
1, 111611, Note_on_c, 0, 73, 66
1, 111631, Note_on_c, 0, 64, 51
1, 111657, Note_off_c, 0, 75, 61
1, 111662, Note_off_c, 0, 64, 64
1, 111783, Note_on_c, 0, 51, 49
1, 111896, Note_on_c, 0, 71, 62
1, 111914, Control_c, 0, 64, 89
1, 111929, Control_c, 0, 64, 68
1, 111932, Note_off_c, 0, 73, 60
1, 111935, Note_on_c, 0, 63, 37
1, 111943, Control_c, 0, 64, 55
1, 111958, Control_c, 0, 64, 49
1, 111973, Control_c, 0, 64, 51
1, 111994, Control_c, 0, 64, 60
1, 112009, Control_c, 0, 64, 65
1, 112024, Control_c, 0, 64, 72
1, 112039, Control_c, 0, 64, 85
1, 112054, Control_c, 0, 64, 108
1, 112069, Control_c, 0, 64, 127
1, 112175, Note_off_c, 0, 63, 60
1, 112258, Note_on_c, 0, 59, 35
1, 112319, Note_off_c, 0, 51, 57
1, 112599, Note_on_c, 0, 68, 42
1, 112672, Note_off_c, 0, 68, 52
1, 112710, Note_off_c, 0, 71, 63
1, 112799, Note_off_c, 0, 59, 0
1, 112836, Poly_aftertouch_c, 0, 59, 127
1, 112945, Poly_aftertouch_c, 0, 59, 0
1, 113235, Note_on_c, 0, 51, 30
1, 113243, Note_on_c, 0, 70, 59
1, 113267, Note_on_c, 0, 61, 39
1, 113423, Note_off_c, 0, 51, 40
1, 113553, Note_on_c, 0, 44, 31
1, 113601, Note_off_c, 0, 44, 60
1, 113981, Note_on_c, 0, 34, 32
1, 114040, Control_c, 0, 64, 81
1, 114055, Control_c, 0, 64, 63
1, 114070, Control_c, 0, 64, 40
1, 114085, Control_c, 0, 64, 35
1, 114100, Control_c, 0, 64, 41
1, 114114, Control_c, 0, 64, 54
1, 114129, Control_c, 0, 64, 64
1, 114144, Control_c, 0, 64, 70
1, 114159, Control_c, 0, 64, 80
1, 114173, Control_c, 0, 64, 95
1, 114188, Control_c, 0, 64, 127
1, 114313, Note_off_c, 0, 34, 38
1, 114336, Note_on_c, 0, 46, 40
1, 114385, Note_off_c, 0, 61, 56
1, 114387, Note_off_c, 0, 46, 60
1, 114737, Note_on_c, 0, 56, 41
1, 114813, Note_on_c, 0, 68, 49
1, 114860, Note_on_c, 0, 59, 37
1, 114940, Note_off_c, 0, 59, 61
1, 114960, Note_off_c, 0, 70, 27
1, 114976, Note_off_c, 0, 68, 57
1, 115175, Note_on_c, 0, 62, 34
1, 115550, Note_on_c, 0, 70, 34
1, 115553, Note_off_c, 0, 62, 39
1, 115625, Note_off_c, 0, 70, 50
1, 115746, Note_off_c, 0, 56, 35
1, 115951, Note_on_c, 0, 62, 40
1, 116002, Note_off_c, 0, 62, 63
1, 116486, Note_on_c, 0, 56, 38
1, 116585, Note_on_c, 0, 66, 54
1, 116632, Note_on_c, 0, 58, 33
1, 116780, Note_off_c, 0, 58, 34
1, 116899, Note_off_c, 0, 56, 32
1, 117017, Note_on_c, 0, 59, 38
1, 117021, Note_on_c, 0, 68, 56
1, 117104, Note_off_c, 0, 59, 62
1, 117112, Note_off_c, 0, 66, 59
1, 117125, Note_on_c, 0, 46, 37
1, 117309, Note_off_c, 0, 46, 41
1, 117334, Note_on_c, 0, 66, 56
1, 117368, Note_on_c, 0, 58, 44
1, 117414, Note_off_c, 0, 68, 36
1, 117432, Note_off_c, 0, 58, 60
1, 117864, Note_on_c, 0, 39, 32
1, 117903, Note_on_c, 0, 63, 43
1, 117910, Note_on_c, 0, 27, 22
1, 117939, Note_on_c, 0, 54, 29
1, 117994, Note_off_c, 0, 66, 56
1, 117999, Control_c, 0, 64, 116
1, 118013, Control_c, 0, 64, 78
1, 118028, Control_c, 0, 64, 60
1, 118043, Control_c, 0, 64, 0
1, 118117, Control_c, 0, 64, 33
1, 118132, Control_c, 0, 64, 56
1, 118147, Control_c, 0, 64, 65
1, 118162, Control_c, 0, 64, 70
1, 118177, Control_c, 0, 64, 80
1, 118192, Control_c, 0, 64, 95
1, 118198, Note_off_c, 0, 27, 40
1, 118206, Control_c, 0, 64, 127
1, 118276, Note_off_c, 0, 39, 40
1, 118374, Note_off_c, 0, 54, 43
1, 118652, Note_on_c, 0, 46, 31
1, 118988, Note_off_c, 0, 63, 54
1, 119072, Note_off_c, 0, 46, 35
1, 119118, Note_on_c, 0, 54, 40
1, 119331, Note_off_c, 0, 54, 44
1, 119469, Note_on_c, 0, 63, 40
1, 119595, Note_off_c, 0, 63, 58
1, 119875, Note_on_c, 0, 70, 44
1, 119981, Note_off_c, 0, 70, 57
1, 120233, Note_on_c, 0, 63, 35
1, 120524, Note_off_c, 0, 63, 35
1, 120555, Note_on_c, 0, 54, 40
1, 120793, Note_off_c, 0, 54, 36
1, 120872, Note_on_c, 0, 46, 31
1, 120921, Note_off_c, 0, 46, 57
1, 121324, Note_on_c, 0, 27, 27
1, 121332, Note_on_c, 0, 39, 27
1, 121435, Note_off_c, 0, 27, 37
1, 121503, Note_off_c, 0, 39, 42
1, 121798, Note_on_c, 0, 46, 26
1, 122004, Note_off_c, 0, 46, 37
1, 122135, Note_on_c, 0, 54, 39
1, 122293, Note_off_c, 0, 54, 33
1, 122475, Note_on_c, 0, 63, 35
1, 122556, Note_off_c, 0, 63, 54
1, 122827, Note_on_c, 0, 70, 52
1, 122895, Note_off_c, 0, 70, 58
1, 123267, Note_on_c, 0, 63, 38
1, 123560, Note_off_c, 0, 63, 32
1, 123671, Note_on_c, 0, 54, 32
1, 123975, Note_off_c, 0, 54, 32
1, 124163, Note_on_c, 0, 46, 34
1, 124243, Note_off_c, 0, 46, 57
1, 125336, Note_on_c, 0, 75, 34
1, 125354, Note_on_c, 0, 42, 33
1, 125367, Note_on_c, 0, 30, 28
1, 125374, Note_on_c, 0, 70, 22
1, 125391, Control_c, 0, 64, 99
1, 125405, Control_c, 0, 64, 70
1, 125420, Control_c, 0, 64, 58
1, 125435, Control_c, 0, 64, 49
1, 125450, Control_c, 0, 64, 51
1, 125473, Control_c, 0, 64, 59
1, 125488, Control_c, 0, 64, 66
1, 125502, Control_c, 0, 64, 80
1, 125517, Control_c, 0, 64, 127
1, 125605, Note_off_c, 0, 30, 42
1, 125653, Note_off_c, 0, 42, 50
1, 125788, Note_off_c, 0, 70, 41
1, 125867, Note_on_c, 0, 73, 41
1, 125874, Note_off_c, 0, 75, 36
1, 125923, Poly_aftertouch_c, 0, 66, 127
1, 126018, Note_off_c, 0, 73, 55
1, 126075, Poly_aftertouch_c, 0, 66, 0
1, 126086, Note_on_c, 0, 75, 36
1, 126110, Note_on_c, 0, 49, 41
1, 126127, Note_on_c, 0, 70, 30
1, 126294, Note_off_c, 0, 75, 30
1, 126297, Note_off_c, 0, 70, 38
1, 126312, Note_on_c, 0, 73, 35
1, 126339, Note_on_c, 0, 66, 29
1, 126342, Note_off_c, 0, 73, 57
1, 126540, Note_off_c, 0, 66, 40
1, 126618, Note_on_c, 0, 80, 31
1, 126652, Note_on_c, 0, 58, 58
1, 126753, Poly_aftertouch_c, 0, 73, 127
1, 126781, Note_off_c, 0, 49, 61
1, 126829, Note_off_c, 0, 80, 42
1, 126863, Note_on_c, 0, 78, 50
1, 126871, Poly_aftertouch_c, 0, 73, 0
1, 126935, Poly_aftertouch_c, 0, 70, 127
1, 126973, Note_off_c, 0, 78, 51
1, 126991, Poly_aftertouch_c, 0, 70, 0
1, 127020, Note_on_c, 0, 80, 41
1, 127025, Note_on_c, 0, 73, 34
1, 127075, Note_off_c, 0, 80, 47
1, 127141, Note_off_c, 0, 73, 30
1, 127149, Note_on_c, 0, 78, 48
1, 127173, Note_off_c, 0, 78, 59
1, 127193, Note_on_c, 0, 70, 34
1, 127226, Note_off_c, 0, 70, 51
1, 127323, Note_on_c, 0, 70, 45
1, 127323, Note_on_c, 0, 75, 48
1, 127421, Note_off_c, 0, 70, 48
1, 127427, Note_off_c, 0, 75, 57
1, 127446, Note_on_c, 0, 73, 54
1, 127450, Note_on_c, 0, 66, 37
1, 127511, Note_off_c, 0, 66, 50
1, 127522, Note_off_c, 0, 73, 54
1, 127556, Note_on_c, 0, 70, 54
1, 127583, Note_on_c, 0, 75, 35
1, 127672, Note_off_c, 0, 75, 39
1, 127686, Note_on_c, 0, 73, 57
1, 127722, Note_off_c, 0, 70, 40
1, 127736, Note_on_c, 0, 66, 33
1, 127741, Note_off_c, 0, 73, 57
1, 127765, Note_off_c, 0, 66, 54
1, 127842, Note_on_c, 0, 56, 62
1, 127895, Note_on_c, 0, 73, 38
1, 127957, Control_c, 0, 64, 96
1, 127966, Note_off_c, 0, 58, 39
1, 127971, Control_c, 0, 64, 80
1, 127986, Control_c, 0, 64, 77
1, 128001, Control_c, 0, 64, 79
1, 128003, Poly_aftertouch_c, 0, 66, 127
1, 128005, Note_off_c, 0, 73, 62
1, 128016, Control_c, 0, 64, 85
1, 128030, Note_on_c, 0, 63, 37
1, 128030, Note_on_c, 0, 71, 56
1, 128031, Control_c, 0, 64, 104
1, 128038, Poly_aftertouch_c, 0, 66, 0
1, 128045, Control_c, 0, 64, 127
1, 128158, Note_off_c, 0, 71, 61
1, 128173, Note_on_c, 0, 51, 76
1, 128180, Note_on_c, 0, 66, 42
1, 128185, Note_on_c, 0, 73, 60
1, 128188, Note_off_c, 0, 63, 35
1, 128235, Note_off_c, 0, 56, 63
1, 128296, Note_on_c, 0, 71, 60
1, 128297, Note_off_c, 0, 73, 56
1, 128312, Note_on_c, 0, 63, 46
1, 128333, Note_off_c, 0, 66, 32
1, 128360, Note_off_c, 0, 71, 62
1, 128528, Note_on_c, 0, 54, 64
1, 128614, Control_c, 0, 64, 91
1, 128615, Note_on_c, 0, 71, 50
1, 128617, Note_off_c, 0, 63, 38
1, 128629, Control_c, 0, 64, 65
1, 128639, Note_off_c, 0, 51, 60
1, 128644, Control_c, 0, 64, 25
1, 128657, Note_on_c, 0, 68, 15
1, 128659, Control_c, 0, 64, 0
1, 128705, Control_c, 0, 64, 44
1, 128719, Control_c, 0, 64, 61
1, 128729, Note_off_c, 0, 68, 37
1, 128734, Control_c, 0, 64, 67
1, 128741, Note_off_c, 0, 71, 60
1, 128749, Control_c, 0, 64, 72
1, 128759, Note_on_c, 0, 63, 41
1, 128760, Note_on_c, 0, 70, 60
1, 128764, Control_c, 0, 64, 80
1, 128779, Control_c, 0, 64, 89
1, 128793, Control_c, 0, 64, 103
1, 128808, Control_c, 0, 64, 127
1, 128810, Note_off_c, 0, 63, 55
1, 128842, Note_off_c, 0, 70, 54
1, 128899, Note_on_c, 0, 71, 40
1, 128908, Note_on_c, 0, 68, 31
1, 128993, Note_off_c, 0, 71, 61
1, 129017, Note_on_c, 0, 70, 51
1, 129018, Note_on_c, 0, 63, 47
1, 129027, Note_off_c, 0, 68, 28
1, 129063, Note_off_c, 0, 70, 56
1, 129071, Note_off_c, 0, 63, 56
1, 129192, Control_c, 0, 64, 112
1, 129193, Note_on_c, 0, 53, 42
1, 129214, Note_on_c, 0, 70, 46
1, 129215, Control_c, 0, 64, 74
1, 129230, Control_c, 0, 64, 55
1, 129244, Control_c, 0, 64, 40
1, 129254, Note_off_c, 0, 54, 55
1, 129259, Control_c, 0, 64, 40
1, 129267, Note_on_c, 0, 62, 12
1, 129274, Control_c, 0, 64, 48
1, 129289, Control_c, 0, 64, 59
1, 129304, Control_c, 0, 64, 65
1, 129318, Control_c, 0, 64, 72
1, 129325, Note_off_c, 0, 62, 47
1, 129325, Note_off_c, 0, 70, 53
1, 129333, Control_c, 0, 64, 81
1, 129348, Control_c, 0, 64, 91
1, 129361, Note_on_c, 0, 68, 47
1, 129363, Control_c, 0, 64, 106
1, 129368, Note_on_c, 0, 58, 35
1, 129378, Control_c, 0, 64, 127
1, 129419, Note_off_c, 0, 53, 62
1, 129455, Note_off_c, 0, 68, 56
1, 129472, Note_on_c, 0, 70, 50
1, 129475, Note_off_c, 0, 58, 38
1, 129501, Note_on_c, 0, 62, 38
1, 129567, Note_off_c, 0, 62, 55
1, 129586, Note_off_c, 0, 70, 57
1, 129613, Note_on_c, 0, 68, 48
1, 129625, Note_on_c, 0, 58, 28
1, 129734, Note_off_c, 0, 68, 56
1, 129755, Note_on_c, 0, 42, 43
1, 129756, Note_off_c, 0, 58, 28
1, 129773, Note_on_c, 0, 70, 48
1, 129774, Note_on_c, 0, 30, 31
1, 129779, Control_c, 0, 64, 77
1, 129793, Control_c, 0, 64, 61
1, 129808, Control_c, 0, 64, 43
1, 129823, Control_c, 0, 64, 40
1, 129838, Control_c, 0, 64, 42
1, 129853, Control_c, 0, 64, 53
1, 129867, Control_c, 0, 64, 62
1, 129882, Control_c, 0, 64, 67
1, 129895, Note_off_c, 0, 70, 58
1, 129897, Control_c, 0, 64, 72
1, 129903, Note_on_c, 0, 58, 33
1, 129911, Note_on_c, 0, 68, 42
1, 129912, Control_c, 0, 64, 78
1, 129927, Control_c, 0, 64, 84
1, 129941, Control_c, 0, 64, 89
1, 129956, Control_c, 0, 64, 93
1, 129969, Note_off_c, 0, 30, 39
1, 129978, Control_c, 0, 64, 96
1, 129993, Note_off_c, 0, 58, 49
1, 129993, Control_c, 0, 64, 100
1, 130000, Note_off_c, 0, 42, 61
1, 130008, Control_c, 0, 64, 106
1, 130017, Note_off_c, 0, 68, 56
1, 130023, Control_c, 0, 64, 127
1, 130032, Note_on_c, 0, 70, 56
1, 130068, Note_on_c, 0, 62, 12
1, 130132, Note_off_c, 0, 62, 45
1, 130138, Note_off_c, 0, 70, 54
1, 130140, Note_on_c, 0, 58, 47
1, 130166, Note_on_c, 0, 68, 49
1, 130273, Note_on_c, 0, 51, 71
1, 130273, Note_off_c, 0, 68, 52
1, 130288, Note_on_c, 0, 70, 59
1, 130302, Note_off_c, 0, 58, 35
1, 130315, Note_on_c, 0, 63, 40
1, 130369, Note_off_c, 0, 63, 58
1, 130402, Note_off_c, 0, 70, 37
1, 130407, Note_on_c, 0, 58, 56
1, 130436, Note_on_c, 0, 66, 41
1, 130525, Note_off_c, 0, 58, 45
1, 130542, Note_off_c, 0, 66, 54
1, 130551, Note_on_c, 0, 46, 70
1, 130563, Note_on_c, 0, 70, 55
1, 130566, Note_on_c, 0, 63, 40
1, 130614, Note_off_c, 0, 51, 60
1, 130669, Note_off_c, 0, 63, 47
1, 130675, Note_on_c, 0, 58, 44
1, 130691, Note_on_c, 0, 66, 44
1, 130697, Note_off_c, 0, 70, 51
1, 130741, Note_off_c, 0, 58, 58
1, 130760, Note_off_c, 0, 66, 53
1, 130899, Note_on_c, 0, 49, 64
1, 130950, Control_c, 0, 64, 94
1, 130952, Note_on_c, 0, 69, 50
1, 130964, Control_c, 0, 64, 67
1, 130979, Control_c, 0, 64, 17
1, 130994, Control_c, 0, 64, 0
1, 131037, Poly_aftertouch_c, 0, 66, 127
1, 131042, Note_off_c, 0, 46, 61
1, 131053, Control_c, 0, 64, 23
1, 131068, Note_off_c, 0, 69, 48
1, 131069, Control_c, 0, 64, 53
1, 131077, Poly_aftertouch_c, 0, 66, 0
1, 131084, Control_c, 0, 64, 62
1, 131088, Note_on_c, 0, 68, 52
1, 131099, Control_c, 0, 64, 65
1, 131104, Note_on_c, 0, 63, 28
1, 131113, Control_c, 0, 64, 67
1, 131128, Control_c, 0, 64, 70
1, 131143, Control_c, 0, 64, 75
1, 131151, Note_off_c, 0, 63, 52
1, 131157, Note_off_c, 0, 68, 58
1, 131158, Control_c, 0, 64, 84
1, 131173, Control_c, 0, 64, 103
1, 131187, Control_c, 0, 64, 127
1, 131203, Note_on_c, 0, 69, 51
1, 131227, Note_on_c, 0, 66, 31
1, 131275, Note_off_c, 0, 66, 47
1, 131299, Note_off_c, 0, 69, 54
1, 131330, Note_on_c, 0, 68, 49
1, 131352, Note_on_c, 0, 63, 37
1, 131381, Note_off_c, 0, 68, 52
1, 131393, Note_off_c, 0, 63, 59
1, 131527, Note_on_c, 0, 48, 49
1, 131539, Note_on_c, 0, 68, 35
1, 131581, Control_c, 0, 64, 90
1, 131595, Control_c, 0, 64, 70
1, 131600, Note_on_c, 0, 63, 15
1, 131610, Control_c, 0, 64, 54
1, 131625, Control_c, 0, 64, 0
1, 131661, Note_off_c, 0, 49, 55
1, 131699, Control_c, 0, 64, 29
1, 131703, Note_off_c, 0, 63, 31
1, 131703, Note_off_c, 0, 68, 56
1, 131713, Control_c, 0, 64, 47
1, 131728, Control_c, 0, 64, 56
1, 131735, Note_on_c, 0, 66, 43
1, 131743, Note_on_c, 0, 56, 28
1, 131743, Control_c, 0, 64, 61
1, 131758, Control_c, 0, 64, 63
1, 131773, Control_c, 0, 64, 65
1, 131788, Control_c, 0, 64, 68
1, 131803, Control_c, 0, 64, 73
1, 131814, Note_off_c, 0, 66, 56
1, 131817, Control_c, 0, 64, 80
1, 131832, Control_c, 0, 64, 92
1, 131838, Note_on_c, 0, 63, 45
1, 131846, Note_on_c, 0, 68, 54
1, 131847, Control_c, 0, 64, 110
1, 131863, Control_c, 0, 64, 127
1, 131877, Note_off_c, 0, 56, 37
1, 131968, Note_on_c, 0, 66, 51
1, 131975, Note_off_c, 0, 68, 35
1, 131986, Note_off_c, 0, 63, 35
1, 131992, Note_on_c, 0, 56, 40
1, 132032, Note_off_c, 0, 66, 48
1, 132041, Note_off_c, 0, 56, 54
1, 132092, Note_on_c, 0, 68, 59
1, 132111, Note_on_c, 0, 62, 44
1, 132214, Note_on_c, 0, 56, 45
1, 132223, Note_off_c, 0, 62, 52
1, 132241, Note_on_c, 0, 65, 42
1, 132268, Note_off_c, 0, 68, 41
1, 132340, Note_off_c, 0, 65, 57
1, 132371, Note_on_c, 0, 68, 66
1, 132371, Note_off_c, 0, 56, 28
1, 132374, Control_c, 0, 64, 78
1, 132389, Control_c, 0, 64, 58
1, 132393, Note_on_c, 0, 47, 36
1, 132402, Note_on_c, 0, 62, 31
1, 132404, Control_c, 0, 64, 43
1, 132418, Control_c, 0, 64, 45
1, 132433, Control_c, 0, 64, 53
1, 132448, Control_c, 0, 64, 61
1, 132458, Note_off_c, 0, 48, 57
1, 132462, Control_c, 0, 64, 67
1, 132477, Control_c, 0, 64, 74
1, 132492, Control_c, 0, 64, 87
1, 132502, Note_on_c, 0, 56, 55
1, 132507, Control_c, 0, 64, 107
1, 132515, Note_off_c, 0, 68, 60
1, 132521, Note_on_c, 0, 65, 47
1, 132522, Control_c, 0, 64, 127
1, 132545, Note_off_c, 0, 62, 36
1, 132579, Note_off_c, 0, 56, 55
1, 132656, Control_c, 0, 64, 94
1, 132663, Note_off_c, 0, 65, 34
1, 132671, Control_c, 0, 64, 66
1, 132682, Note_on_c, 0, 70, 62
1, 132686, Control_c, 0, 64, 51
1, 132701, Control_c, 0, 64, 47
1, 132703, Note_on_c, 0, 46, 41
1, 132715, Control_c, 0, 64, 51
1, 132716, Note_on_c, 0, 61, 34
1, 132730, Control_c, 0, 64, 60
1, 132745, Control_c, 0, 64, 66
1, 132759, Control_c, 0, 64, 76
1, 132774, Control_c, 0, 64, 89
1, 132785, Note_off_c, 0, 47, 34
1, 132789, Control_c, 0, 64, 106
1, 132804, Control_c, 0, 64, 127
1, 132831, Note_on_c, 0, 65, 54
1, 132840, Note_on_c, 0, 58, 52
1, 132850, Note_off_c, 0, 70, 54
1, 132860, Note_off_c, 0, 65, 63
1, 132867, Note_off_c, 0, 61, 35
1, 132883, Note_off_c, 0, 58, 63
1, 133017, Note_off_c, 0, 46, 55
1, 133041, Note_on_c, 0, 44, 51
1, 133049, Control_c, 0, 64, 92
1, 133063, Control_c, 0, 64, 67
1, 133070, Note_on_c, 0, 71, 52
1, 133078, Control_c, 0, 64, 50
1, 133093, Control_c, 0, 64, 33
1, 133108, Control_c, 0, 64, 35
1, 133117, Note_on_c, 0, 61, 25
1, 133123, Control_c, 0, 64, 50
1, 133138, Control_c, 0, 64, 64
1, 133153, Control_c, 0, 64, 72
1, 133167, Control_c, 0, 64, 85
1, 133182, Control_c, 0, 64, 105
1, 133195, Note_off_c, 0, 44, 63
1, 133197, Control_c, 0, 64, 127
1, 133216, Note_off_c, 0, 71, 62
1, 133248, Note_on_c, 0, 65, 49
1, 133253, Note_on_c, 0, 59, 48
1, 133275, Note_off_c, 0, 61, 24
1, 133290, Note_off_c, 0, 59, 61
1, 133302, Note_off_c, 0, 65, 62
1, 133519, Note_on_c, 0, 42, 38
1, 133543, Note_on_c, 0, 30, 51
1, 133579, Note_on_c, 0, 75, 53
1, 133582, Control_c, 0, 64, 81
1, 133597, Control_c, 0, 64, 60
1, 133612, Control_c, 0, 64, 44
1, 133627, Control_c, 0, 64, 45
1, 133637, Note_on_c, 0, 70, 33
1, 133642, Control_c, 0, 64, 54
1, 133656, Control_c, 0, 64, 62
1, 133671, Control_c, 0, 64, 69
1, 133686, Control_c, 0, 64, 82
1, 133686, Note_off_c, 0, 30, 62
1, 133707, Control_c, 0, 64, 104
1, 133722, Note_off_c, 0, 42, 63
1, 133722, Control_c, 0, 64, 127
1, 133764, Note_off_c, 0, 75, 59
1, 133795, Note_on_c, 0, 73, 51
1, 133803, Note_on_c, 0, 66, 36
1, 133803, Note_off_c, 0, 70, 35
1, 133916, Note_off_c, 0, 73, 59
1, 133944, Note_off_c, 0, 66, 27
1, 133955, Note_on_c, 0, 75, 50
1, 133960, Note_on_c, 0, 49, 66
1, 133990, Note_on_c, 0, 70, 34
1, 134088, Note_off_c, 0, 75, 0
1, 134091, Note_off_c, 0, 70, 55
1, 134111, Note_on_c, 0, 73, 49
1, 134113, Note_on_c, 0, 66, 49
1, 134134, Poly_aftertouch_c, 0, 75, 0
1, 134141, Note_off_c, 0, 73, 65
1, 134241, Note_off_c, 0, 66, 52
1, 134337, Note_on_c, 0, 80, 30
1, 134373, Note_on_c, 0, 58, 71
1, 134405, Control_c, 0, 64, 91
1, 134420, Control_c, 0, 64, 68
1, 134435, Control_c, 0, 64, 55
1, 134457, Control_c, 0, 64, 56
1, 134465, Poly_aftertouch_c, 0, 73, 127
1, 134472, Control_c, 0, 64, 60
1, 134486, Control_c, 0, 64, 65
1, 134501, Control_c, 0, 64, 72
1, 134514, Note_off_c, 0, 80, 55
1, 134516, Poly_aftertouch_c, 0, 73, 0
1, 134516, Control_c, 0, 64, 86
1, 134531, Control_c, 0, 64, 127
1, 134542, Note_on_c, 0, 78, 52
1, 134554, Note_on_c, 0, 70, 39
1, 134658, Note_on_c, 0, 80, 53
1, 134660, Note_off_c, 0, 49, 59
1, 134660, Note_off_c, 0, 70, 38
1, 134660, Note_off_c, 0, 78, 52
1, 134691, Note_on_c, 0, 73, 41
1, 134760, Note_off_c, 0, 80, 56
1, 134772, Note_off_c, 0, 73, 56
1, 134795, Note_on_c, 0, 70, 46
1, 134798, Note_on_c, 0, 78, 39
1, 134826, Note_off_c, 0, 78, 47
1, 134829, Note_off_c, 0, 70, 65
1, 134904, Note_on_c, 0, 75, 61
1, 134917, Note_on_c, 0, 70, 54
1, 134994, Note_off_c, 0, 70, 51
1, 135006, Note_off_c, 0, 75, 61
1, 135025, Note_on_c, 0, 66, 46
1, 135026, Note_on_c, 0, 73, 57
1, 135112, Note_off_c, 0, 73, 57
1, 135139, Note_off_c, 0, 66, 37
1, 135141, Note_on_c, 0, 75, 55
1, 135141, Note_on_c, 0, 70, 52
1, 135253, Note_off_c, 0, 75, 57
1, 135254, Note_on_c, 0, 73, 59
1, 135260, Note_off_c, 0, 70, 57
1, 135284, Note_on_c, 0, 66, 46
1, 135314, Note_off_c, 0, 73, 55
1, 135325, Note_off_c, 0, 66, 58
1, 135429, Note_on_c, 0, 56, 76
1, 135438, Note_on_c, 0, 73, 47
1, 135473, Control_c, 0, 64, 86
1, 135488, Control_c, 0, 64, 72
1, 135503, Control_c, 0, 64, 70
1, 135517, Control_c, 0, 64, 71
1, 135526, Note_on_c, 0, 66, 2
1, 135532, Control_c, 0, 64, 75
1, 135547, Control_c, 0, 64, 83
1, 135550, Note_off_c, 0, 73, 61
1, 135559, Note_on_c, 0, 63, 50
1, 135561, Control_c, 0, 64, 107
1, 135573, Note_off_c, 0, 66, 46
1, 135576, Control_c, 0, 64, 127
1, 135577, Note_on_c, 0, 71, 56
1, 135677, Note_off_c, 0, 58, 35
1, 135706, Note_off_c, 0, 71, 60
1, 135710, Note_on_c, 0, 66, 32
1, 135731, Note_on_c, 0, 51, 82
1, 135733, Note_on_c, 0, 73, 61
1, 135769, Note_off_c, 0, 63, 36
1, 135812, Note_off_c, 0, 56, 62
1, 135852, Note_off_c, 0, 73, 58
1, 135860, Note_on_c, 0, 71, 60
1, 135879, Note_off_c, 0, 66, 40
1, 135887, Note_on_c, 0, 63, 51
1, 135922, Note_off_c, 0, 71, 61
1, 136051, Note_on_c, 0, 54, 79
1, 136074, Note_off_c, 0, 63, 41
1, 136083, Note_on_c, 0, 71, 52
1, 136104, Control_c, 0, 64, 82
1, 136119, Control_c, 0, 64, 55
1, 136130, Note_on_c, 0, 68, 40
1, 136134, Control_c, 0, 64, 0
1, 136172, Note_off_c, 0, 51, 59
1, 136178, Control_c, 0, 64, 24
1, 136182, Note_off_c, 0, 71, 56
1, 136193, Control_c, 0, 64, 53
1, 136205, Note_off_c, 0, 68, 56
1, 136208, Control_c, 0, 64, 63
1, 136220, Note_on_c, 0, 63, 48
1, 136223, Control_c, 0, 64, 68
1, 136228, Note_on_c, 0, 70, 59
1, 136238, Control_c, 0, 64, 74
1, 136252, Control_c, 0, 64, 82
1, 136267, Control_c, 0, 64, 93
1, 136271, Note_off_c, 0, 63, 59
1, 136282, Control_c, 0, 64, 113
1, 136297, Control_c, 0, 64, 127
1, 136306, Note_off_c, 0, 70, 57
1, 136351, Note_on_c, 0, 71, 49
1, 136366, Note_on_c, 0, 68, 37
1, 136441, Note_off_c, 0, 71, 62
1, 136450, Note_on_c, 0, 63, 56
1, 136462, Note_on_c, 0, 70, 49
1, 136462, Note_off_c, 0, 68, 52
1, 136496, Note_off_c, 0, 63, 57
1, 136508, Note_off_c, 0, 70, 58
1, 136608, Control_c, 0, 64, 75
1, 136610, Note_on_c, 0, 53, 61
1, 136617, Note_on_c, 0, 70, 58
1, 136623, Control_c, 0, 64, 56
1, 136638, Control_c, 0, 64, 24
1, 136641, Note_on_c, 0, 62, 40
1, 136653, Control_c, 0, 64, 25
1, 136668, Control_c, 0, 64, 46
1, 136679, Note_off_c, 0, 54, 60
1, 136682, Control_c, 0, 64, 61
1, 136705, Control_c, 0, 64, 69
1, 136720, Control_c, 0, 64, 81
1, 136731, Note_off_c, 0, 62, 55
1, 136735, Control_c, 0, 64, 108
1, 136741, Note_off_c, 0, 70, 60
1, 136750, Control_c, 0, 64, 127
1, 136754, Note_on_c, 0, 58, 52
1, 136756, Note_on_c, 0, 68, 60
1, 136775, Note_off_c, 0, 53, 64
1, 136834, Note_off_c, 0, 58, 53
1, 136853, Note_off_c, 0, 68, 59
1, 136862, Note_on_c, 0, 70, 65
1, 136889, Note_on_c, 0, 62, 40
1, 136948, Note_off_c, 0, 62, 56
1, 136966, Note_on_c, 0, 58, 56
1, 136976, Note_off_c, 0, 70, 56
1, 136987, Note_on_c, 0, 68, 52
1, 137096, Note_off_c, 0, 58, 51
1, 137107, Note_off_c, 0, 68, 58
1, 137123, Note_on_c, 0, 42, 64
1, 137136, Note_on_c, 0, 70, 56
1, 137139, Note_on_c, 0, 30, 55
1, 137164, Control_c, 0, 64, 94
1, 137179, Control_c, 0, 64, 64
1, 137191, Note_on_c, 0, 62, 30
1, 137194, Control_c, 0, 64, 0
1, 137244, Note_off_c, 0, 62, 48
1, 137269, Note_on_c, 0, 58, 45
1, 137275, Note_off_c, 0, 70, 60
1, 137282, Control_c, 0, 64, 46
1, 137291, Note_on_c, 0, 68, 51
1, 137296, Control_c, 0, 64, 58
1, 137311, Control_c, 0, 64, 62
1, 137326, Control_c, 0, 64, 65
1, 137341, Control_c, 0, 64, 69
1, 137344, Note_off_c, 0, 30, 62
1, 137356, Control_c, 0, 64, 75
1, 137371, Note_off_c, 0, 58, 53
1, 137371, Control_c, 0, 64, 87
1, 137380, Note_off_c, 0, 42, 63
1, 137382, Note_off_c, 0, 68, 60
1, 137386, Control_c, 0, 64, 114
1, 137400, Note_on_c, 0, 70, 57
1, 137400, Control_c, 0, 64, 127
1, 137414, Note_on_c, 0, 63, 42
1, 137465, Note_off_c, 0, 63, 60
1, 137504, Note_off_c, 0, 70, 59
1, 137513, Note_on_c, 0, 58, 53
1, 137544, Note_on_c, 0, 66, 42
1, 137571, Note_off_c, 0, 58, 54
1, 137618, Note_off_c, 0, 66, 59
1, 137630, Note_on_c, 0, 51, 84
1, 137641, Note_on_c, 0, 70, 56
1, 137660, Control_c, 0, 64, 111
1, 137663, Note_on_c, 0, 63, 45
1, 137675, Control_c, 0, 64, 99
1, 137690, Control_c, 0, 64, 102
1, 137705, Control_c, 0, 64, 114
1, 137720, Note_off_c, 0, 63, 58
1, 137720, Control_c, 0, 64, 127
1, 137740, Note_off_c, 0, 70, 61
1, 137758, Note_on_c, 0, 66, 47
1, 137776, Note_on_c, 0, 58, 45
1, 137850, Note_off_c, 0, 66, 57
1, 137871, Note_on_c, 0, 70, 64
1, 137884, Note_on_c, 0, 46, 77
1, 137884, Note_on_c, 0, 63, 40
1, 137931, Note_off_c, 0, 63, 58
1, 137949, Note_off_c, 0, 51, 61
1, 137982, Note_off_c, 0, 70, 61
1, 137986, Note_off_c, 0, 58, 35
1, 138146, Note_on_c, 0, 49, 71
1, 138149, Control_c, 0, 64, 100
1, 138164, Control_c, 0, 64, 64
1, 138167, Note_on_c, 0, 69, 58
1, 138179, Control_c, 0, 64, 0
1, 138183, Note_on_c, 0, 66, 45
1, 138235, Note_off_c, 0, 66, 57
1, 138245, Control_c, 0, 64, 49
1, 138259, Note_off_c, 0, 46, 62
1, 138261, Control_c, 0, 64, 64
1, 138276, Control_c, 0, 64, 71
1, 138289, Note_on_c, 0, 63, 52
1, 138289, Note_off_c, 0, 69, 37
1, 138291, Control_c, 0, 64, 81
1, 138306, Control_c, 0, 64, 100
1, 138321, Control_c, 0, 64, 127
1, 138337, Note_on_c, 0, 68, 28
1, 138341, Note_off_c, 0, 63, 54
1, 138373, Note_off_c, 0, 68, 50
1, 138405, Note_on_c, 0, 69, 65
1, 138426, Note_on_c, 0, 66, 47
1, 138478, Note_off_c, 0, 66, 58
1, 138509, Note_off_c, 0, 69, 62
1, 138524, Note_on_c, 0, 68, 59
1, 138539, Note_on_c, 0, 63, 46
1, 138594, Note_off_c, 0, 63, 52
1, 138631, Note_off_c, 0, 68, 36
1, 138700, Note_on_c, 0, 48, 66
1, 138746, Note_off_c, 0, 49, 58
1, 138762, Note_on_c, 0, 68, 50
1, 138773, Note_on_c, 0, 63, 51
1, 138794, Control_c, 0, 64, 114
1, 138809, Control_c, 0, 64, 62
1, 138824, Control_c, 0, 64, 0
1, 138869, Note_off_c, 0, 68, 60
1, 138879, Note_off_c, 0, 63, 61
1, 138881, Note_on_c, 0, 66, 62
1, 138912, Note_on_c, 0, 56, 34
1, 138912, Control_c, 0, 64, 15
1, 138927, Control_c, 0, 64, 57
1, 138950, Control_c, 0, 64, 67
1, 138957, Note_off_c, 0, 56, 54
1, 138965, Control_c, 0, 64, 77
1, 138979, Control_c, 0, 64, 87
1, 138994, Note_off_c, 0, 66, 61
1, 138994, Control_c, 0, 64, 92
1, 139009, Control_c, 0, 64, 96
1, 139010, Note_on_c, 0, 63, 55
1, 139021, Note_on_c, 0, 68, 61
1, 139024, Control_c, 0, 64, 106
1, 139039, Control_c, 0, 64, 127
1, 139061, Note_on_c, 0, 56, 54
1, 139076, Note_off_c, 0, 63, 48
1, 139121, Note_off_c, 0, 68, 60
1, 139134, Note_on_c, 0, 66, 52
1, 139144, Note_off_c, 0, 56, 63
1, 139188, Note_off_c, 0, 66, 59
1, 139231, Note_on_c, 0, 69, 75
1, 139245, Note_on_c, 0, 63, 64
1, 139311, Note_off_c, 0, 69, 57
1, 139330, Note_on_c, 0, 66, 66
1, 139330, Note_off_c, 0, 63, 58
1, 139380, Control_c, 0, 64, 93
1, 139382, Note_on_c, 0, 57, 37
1, 139395, Control_c, 0, 64, 71
1, 139410, Control_c, 0, 64, 63
1, 139425, Control_c, 0, 64, 63
1, 139440, Control_c, 0, 64, 64
1, 139454, Note_off_c, 0, 57, 56
1, 139455, Control_c, 0, 64, 68
1, 139469, Note_on_c, 0, 49, 81
1, 139469, Control_c, 0, 64, 81
1, 139484, Control_c, 0, 64, 127
1, 139490, Note_on_c, 0, 63, 53
1, 139503, Note_off_c, 0, 48, 63
1, 139504, Note_on_c, 0, 70, 71
1, 139521, Note_off_c, 0, 66, 50
1, 139529, Note_off_c, 0, 49, 64
1, 139618, Note_off_c, 0, 70, 61
1, 139634, Note_off_c, 0, 63, 62
1, 139642, Note_on_c, 0, 66, 27
1, 139675, Note_off_c, 0, 66, 53
1, 139798, Note_on_c, 0, 56, 80
1, 139801, Control_c, 0, 64, 83
1, 139816, Control_c, 0, 64, 60
1, 139831, Control_c, 0, 64, 0
1, 139841, Note_on_c, 0, 75, 55
1, 139877, Control_c, 0, 64, 19
1, 139887, Note_on_c, 0, 71, 52
1, 139892, Control_c, 0, 64, 58
1, 139906, Control_c, 0, 64, 68
1, 139921, Control_c, 0, 64, 80
1, 139936, Control_c, 0, 64, 106
1, 139951, Control_c, 0, 64, 127
1, 139992, Note_on_c, 0, 73, 66
1, 140001, Note_on_c, 0, 65, 45
1, 140011, Note_off_c, 0, 75, 56
1, 140031, Note_off_c, 0, 71, 59
1, 140128, Note_off_c, 0, 73, 62
1, 140128, Control_c, 0, 64, 76
1, 140137, Note_on_c, 0, 54, 78
1, 140143, Note_on_c, 0, 75, 62
1, 140143, Control_c, 0, 64, 56
1, 140158, Control_c, 0, 64, 0
1, 140159, Note_off_c, 0, 65, 26
1, 140169, Note_on_c, 0, 71, 52
1, 140194, Note_off_c, 0, 56, 60
1, 140203, Control_c, 0, 64, 48
1, 140218, Control_c, 0, 64, 66
1, 140232, Control_c, 0, 64, 76
1, 140247, Control_c, 0, 64, 91
1, 140262, Control_c, 0, 64, 109
1, 140277, Control_c, 0, 64, 127
1, 140325, Note_on_c, 0, 56, 81
1, 140325, Note_on_c, 0, 73, 68
1, 140337, Note_off_c, 0, 75, 56
1, 140337, Note_on_c, 0, 65, 57
1, 140348, Note_off_c, 0, 71, 63
1, 140369, Note_off_c, 0, 73, 62
1, 140370, Note_off_c, 0, 65, 64
1, 140381, Note_off_c, 0, 54, 57
1, 140623, Note_on_c, 0, 78, 62
1, 140631, Note_on_c, 0, 59, 68
1, 140639, Control_c, 0, 64, 81
1, 140655, Control_c, 0, 64, 61
1, 140670, Control_c, 0, 64, 0
1, 140718, Note_off_c, 0, 56, 63
1, 140729, Control_c, 0, 64, 47
1, 140740, Poly_aftertouch_c, 0, 74, 127
1, 140744, Control_c, 0, 64, 62
1, 140759, Control_c, 0, 64, 67
1, 140773, Control_c, 0, 64, 73
1, 140788, Control_c, 0, 64, 78
1, 140801, Note_off_c, 0, 78, 55
1, 140803, Control_c, 0, 64, 83
1, 140818, Control_c, 0, 64, 90
1, 140833, Control_c, 0, 64, 103
1, 140840, Note_on_c, 0, 68, 51
1, 140847, Note_on_c, 0, 77, 56
1, 140847, Control_c, 0, 64, 127
1, 140906, Poly_aftertouch_c, 0, 74, 0
1, 141063, Note_on_c, 0, 58, 59
1, 141093, Note_off_c, 0, 77, 62
1, 141121, Note_on_c, 0, 74, 43
1, 141128, Note_on_c, 0, 78, 59
1, 141129, Control_c, 0, 64, 87
1, 141144, Control_c, 0, 64, 60
1, 141159, Control_c, 0, 64, 0
1, 141176, Note_off_c, 0, 68, 34
1, 141202, Note_off_c, 0, 59, 54
1, 141240, Control_c, 0, 64, 30
1, 141255, Control_c, 0, 64, 56
1, 141270, Control_c, 0, 64, 65
1, 141285, Control_c, 0, 64, 73
1, 141300, Control_c, 0, 64, 87
1, 141302, Note_off_c, 0, 78, 59
1, 141315, Control_c, 0, 64, 127
1, 141336, Note_off_c, 0, 58, 63
1, 141381, Note_on_c, 0, 68, 45
1, 141426, Note_off_c, 0, 68, 61
1, 141432, Note_off_c, 0, 74, 62
1, 141485, Poly_aftertouch_c, 0, 77, 0
1, 141711, Note_on_c, 0, 62, 46
1, 141729, Note_on_c, 0, 70, 40
1, 141857, Note_on_c, 0, 82, 84
1, 142012, Note_off_c, 0, 62, 52
1, 142039, Note_off_c, 0, 70, 37
1, 142110, Note_on_c, 0, 68, 62
1, 142211, Note_off_c, 0, 68, 58
1, 142228, Note_on_c, 0, 70, 67
1, 142241, Note_on_c, 0, 62, 59
1, 142303, Note_off_c, 0, 70, 56
1, 142384, Note_off_c, 0, 62, 57
1, 142388, Note_on_c, 0, 68, 61
1, 142404, Note_on_c, 0, 58, 53
1, 142416, Note_off_c, 0, 68, 65
1, 142431, Note_off_c, 0, 58, 60
1, 142642, Control_c, 0, 64, 75
1, 142647, Note_on_c, 0, 47, 69
1, 142657, Control_c, 0, 64, 57
1, 142672, Control_c, 0, 64, 47
1, 142694, Control_c, 0, 64, 51
1, 142709, Control_c, 0, 64, 60
1, 142724, Control_c, 0, 64, 69
1, 142739, Control_c, 0, 64, 100
1, 142752, Note_off_c, 0, 47, 63
1, 142753, Control_c, 0, 64, 127
1, 142942, Note_on_c, 0, 65, 52
1, 142963, Note_on_c, 0, 56, 35
1, 143022, Note_off_c, 0, 56, 51
1, 143038, Note_off_c, 0, 65, 60
1, 143063, Note_on_c, 0, 68, 61
1, 143074, Note_on_c, 0, 63, 57
1, 143165, Note_off_c, 0, 63, 54
1, 143187, Note_on_c, 0, 65, 59
1, 143193, Note_off_c, 0, 68, 34
1, 143200, Note_on_c, 0, 56, 57
1, 143354, Note_on_c, 0, 80, 84
1, 143360, Note_off_c, 0, 56, 58
1, 143361, Note_on_c, 0, 68, 57
1, 143364, Note_off_c, 0, 65, 55
1, 143369, Note_on_c, 0, 63, 63
1, 143465, Note_off_c, 0, 68, 57
1, 143489, Note_off_c, 0, 63, 61
1, 143494, Note_on_c, 0, 65, 68
1, 143608, Note_on_c, 0, 68, 41
1, 143639, Note_off_c, 0, 65, 50
1, 143665, Note_on_c, 0, 63, 48
1, 143670, Note_on_c, 0, 75, 82
1, 143720, Note_off_c, 0, 68, 56
1, 143752, Note_on_c, 0, 65, 43
1, 143770, Note_off_c, 0, 63, 62
1, 143780, Note_off_c, 0, 65, 61
1, 143791, Note_off_c, 0, 80, 64
1, 143829, Note_off_c, 0, 82, 58
1, 144000, Note_on_c, 0, 46, 61
1, 144065, Control_c, 0, 64, 98
1, 144080, Control_c, 0, 64, 65
1, 144095, Control_c, 0, 64, 0
1, 144104, Note_on_c, 0, 78, 81
1, 144139, Control_c, 0, 64, 22
1, 144154, Control_c, 0, 64, 59
1, 144169, Control_c, 0, 64, 70
1, 144191, Control_c, 0, 64, 91
1, 144199, Note_off_c, 0, 46, 63
1, 144206, Control_c, 0, 64, 127
1, 144261, Note_off_c, 0, 75, 59
1, 144379, Note_on_c, 0, 68, 57
1, 144409, Note_off_c, 0, 78, 63
1, 144477, Note_off_c, 0, 68, 60
1, 144491, Note_on_c, 0, 70, 64
1, 144524, Note_on_c, 0, 62, 47
1, 144587, Note_off_c, 0, 70, 50
1, 144662, Note_on_c, 0, 58, 56
1, 144680, Note_on_c, 0, 68, 54
1, 144719, Note_off_c, 0, 62, 50
1, 144739, Note_off_c, 0, 68, 59
1, 144741, Note_on_c, 0, 77, 77
1, 144784, Note_off_c, 0, 58, 62
1, 144796, Note_off_c, 0, 77, 64
1, 145085, Note_on_c, 0, 53, 53
1, 145092, Note_on_c, 0, 44, 50
1, 145151, Note_on_c, 0, 58, 75
1, 145162, Control_c, 0, 64, 86
1, 145177, Control_c, 0, 64, 78
1, 145192, Control_c, 0, 64, 77
1, 145207, Control_c, 0, 64, 80
1, 145221, Control_c, 0, 64, 90
1, 145236, Control_c, 0, 64, 127
1, 145363, Note_on_c, 0, 60, 78
1, 145370, Note_off_c, 0, 58, 60
1, 145375, Note_off_c, 0, 53, 63
1, 145403, Note_off_c, 0, 44, 62
1, 145432, Poly_aftertouch_c, 0, 46, 127
1, 145468, Poly_aftertouch_c, 0, 46, 0
1, 145502, Note_on_c, 0, 62, 93
1, 145529, Note_off_c, 0, 60, 65
1, 145679, Note_off_c, 0, 62, 59
1, 145679, Note_on_c, 0, 63, 85
1, 145697, Note_on_c, 0, 58, 80
1, 145704, Note_on_c, 0, 51, 60
1, 145714, Note_on_c, 0, 42, 53
1, 145718, Control_c, 0, 64, 110
1, 145733, Control_c, 0, 64, 64
1, 145748, Control_c, 0, 64, 0
1, 145822, Control_c, 0, 64, 58
1, 145837, Control_c, 0, 64, 74
1, 145840, Note_off_c, 0, 63, 64
1, 145852, Control_c, 0, 64, 100
1, 145866, Control_c, 0, 64, 127
1, 146051, Note_on_c, 0, 70, 95
1, 146131, Note_off_c, 0, 42, 57
1, 146179, Note_off_c, 0, 51, 64
1, 146203, Note_off_c, 0, 58, 61
1, 146305, Note_off_c, 0, 70, 56
1, 146529, Note_on_c, 0, 41, 46
1, 146530, Note_on_c, 0, 53, 44
1, 146555, Note_on_c, 0, 67, 16
1, 146570, Note_on_c, 0, 66, 19
1, 146573, Note_on_c, 0, 70, 90
1, 146591, Note_on_c, 0, 63, 50
1, 146601, Note_on_c, 0, 59, 57
1, 146616, Control_c, 0, 64, 111
1, 146631, Control_c, 0, 64, 65
1, 146646, Control_c, 0, 64, 0
1, 146705, Control_c, 0, 64, 56
1, 146718, Poly_aftertouch_c, 0, 68, 127
1, 146720, Control_c, 0, 64, 68
1, 146735, Control_c, 0, 64, 86
1, 146749, Control_c, 0, 64, 127
1, 146752, Note_off_c, 0, 53, 63
1, 146805, Note_off_c, 0, 41, 61
1, 146922, Note_off_c, 0, 67, 41
1, 146936, Note_off_c, 0, 66, 41
1, 146942, Poly_aftertouch_c, 0, 68, 0
1, 147297, Note_on_c, 0, 68, 83
1, 147319, Note_off_c, 0, 70, 63
1, 147331, Note_off_c, 0, 63, 63
1, 147348, Note_off_c, 0, 68, 62
1, 147369, Note_off_c, 0, 59, 65
1, 147536, Note_on_c, 0, 34, 57
1, 147538, Note_on_c, 0, 46, 58
1, 147616, Control_c, 0, 64, 74
1, 147625, Note_on_c, 0, 62, 72
1, 147631, Control_c, 0, 64, 24
1, 147646, Control_c, 0, 64, 0
1, 147649, Note_on_c, 0, 56, 43
1, 147658, Note_on_c, 0, 53, 55
1, 147691, Control_c, 0, 64, 54
1, 147702, Note_off_c, 0, 34, 63
1, 147706, Control_c, 0, 64, 69
1, 147721, Control_c, 0, 64, 93
1, 147724, Note_off_c, 0, 46, 63
1, 147735, Control_c, 0, 64, 127
1, 147741, Note_off_c, 0, 53, 63
1, 147743, Note_off_c, 0, 56, 60
1, 147824, Note_off_c, 0, 62, 62
1, 147952, Note_on_c, 0, 68, 59
1, 148035, Note_off_c, 0, 68, 60
1, 148070, Note_on_c, 0, 70, 65
1, 148072, Note_on_c, 0, 62, 59
1, 148194, Note_on_c, 0, 68, 70
1, 148198, Note_off_c, 0, 62, 60
1, 148198, Note_on_c, 0, 58, 67
1, 148205, Note_off_c, 0, 70, 34
1, 148358, Note_off_c, 0, 58, 59
1, 148364, Note_on_c, 0, 70, 47
1, 148388, Note_on_c, 0, 62, 58
1, 148412, Note_off_c, 0, 68, 58
1, 148413, Note_on_c, 0, 82, 90
1, 148484, Note_off_c, 0, 70, 59
1, 148526, Note_on_c, 0, 68, 79
1, 148533, Note_off_c, 0, 62, 61
1, 148544, Note_on_c, 0, 58, 61
1, 148603, Note_off_c, 0, 58, 55
1, 148647, Note_on_c, 0, 70, 74
1, 148649, Note_off_c, 0, 68, 56
1, 148660, Note_on_c, 0, 62, 62
1, 148767, Note_off_c, 0, 70, 62
1, 148773, Note_on_c, 0, 68, 65
1, 148773, Note_off_c, 0, 62, 62
1, 148778, Note_on_c, 0, 58, 72
1, 148793, Note_off_c, 0, 68, 63
1, 148806, Note_off_c, 0, 58, 66
1, 148981, Control_c, 0, 64, 94
1, 148993, Note_on_c, 0, 47, 77
1, 148996, Control_c, 0, 64, 62
1, 149010, Control_c, 0, 64, 42
1, 149025, Control_c, 0, 64, 54
1, 149040, Control_c, 0, 64, 65
1, 149054, Control_c, 0, 64, 97
1, 149061, Note_off_c, 0, 47, 62
1, 149069, Control_c, 0, 64, 127
1, 149205, Note_on_c, 0, 65, 60
1, 149271, Poly_aftertouch_c, 0, 56, 127
1, 149307, Poly_aftertouch_c, 0, 56, 0
1, 149309, Note_off_c, 0, 82, 64
1, 149311, Note_off_c, 0, 65, 60
1, 149324, Note_on_c, 0, 63, 61
1, 149325, Note_on_c, 0, 68, 63
1, 149446, Note_on_c, 0, 56, 46
1, 149449, Note_off_c, 0, 68, 56
1, 149462, Note_off_c, 0, 63, 55
1, 149470, Note_on_c, 0, 65, 61
1, 149626, Note_on_c, 0, 80, 89
1, 149643, Note_on_c, 0, 68, 64
1, 149655, Note_on_c, 0, 63, 70
1, 149676, Note_off_c, 0, 65, 57
1, 149731, Note_off_c, 0, 68, 56
1, 149742, Note_off_c, 0, 63, 62
1, 149778, Note_off_c, 0, 56, 31
1, 149780, Note_on_c, 0, 65, 64
1, 149843, Note_on_c, 0, 68, 32
1, 149870, Note_on_c, 0, 78, 92
1, 149911, Note_on_c, 0, 63, 54
1, 149947, Note_off_c, 0, 68, 58
1, 149963, Note_off_c, 0, 65, 64
1, 149978, Note_off_c, 0, 63, 64
1, 150030, Note_on_c, 0, 75, 96
1, 150043, Note_off_c, 0, 80, 63
1, 150075, Note_off_c, 0, 78, 63
1, 150187, Note_on_c, 0, 46, 74
1, 150195, Control_c, 0, 64, 72
1, 150210, Control_c, 0, 64, 0
1, 150255, Control_c, 0, 64, 31
1, 150270, Control_c, 0, 64, 64
1, 150285, Control_c, 0, 64, 80
1, 150289, Note_off_c, 0, 46, 63
1, 150299, Note_on_c, 0, 78, 92
1, 150300, Control_c, 0, 64, 127
1, 150412, Note_off_c, 0, 75, 55
1, 150481, Note_on_c, 0, 68, 72
1, 150578, Note_off_c, 0, 68, 56
1, 150578, Note_on_c, 0, 70, 76
1, 150593, Note_on_c, 0, 62, 62
1, 150627, Note_off_c, 0, 78, 61
1, 150665, Note_off_c, 0, 70, 53
1, 150741, Note_on_c, 0, 68, 70
1, 150751, Note_on_c, 0, 58, 58
1, 150779, Note_off_c, 0, 68, 62
1, 150785, Note_off_c, 0, 62, 57
1, 150794, Note_on_c, 0, 77, 86
1, 150803, Note_off_c, 0, 58, 63
1, 150831, Note_off_c, 0, 77, 65
1, 151055, Note_on_c, 0, 44, 60
1, 151056, Note_on_c, 0, 53, 68
1, 151137, Note_on_c, 0, 58, 89
1, 151137, Control_c, 0, 64, 66
1, 151152, Control_c, 0, 64, 0
1, 151167, Control_c, 0, 64, 38
1, 151182, Control_c, 0, 64, 57
1, 151197, Control_c, 0, 64, 66
1, 151211, Control_c, 0, 64, 79
1, 151226, Control_c, 0, 64, 127
1, 151305, Note_off_c, 0, 58, 64
1, 151321, Note_off_c, 0, 53, 64
1, 151324, Note_on_c, 0, 60, 92
1, 151331, Note_off_c, 0, 44, 62
1, 151437, Note_off_c, 0, 60, 66
1, 151462, Note_on_c, 0, 62, 95
1, 151683, Note_on_c, 0, 63, 91
1, 151685, Note_on_c, 0, 58, 93
1, 151693, Control_c, 0, 64, 70
1, 151694, Note_on_c, 0, 51, 83
1, 151696, Note_on_c, 0, 42, 73
1, 151708, Control_c, 0, 64, 0
1, 151736, Note_off_c, 0, 62, 59
1, 151781, Control_c, 0, 64, 64
1, 151796, Control_c, 0, 64, 90
1, 151811, Control_c, 0, 64, 127
1, 151813, Note_off_c, 0, 63, 63
1, 151915, Note_off_c, 0, 51, 65
1, 151962, Note_off_c, 0, 42, 63
1, 152108, Note_on_c, 0, 70, 97
1, 152386, Note_on_c, 0, 32, 87
1, 152419, Control_c, 0, 64, 81
1, 152421, Note_on_c, 0, 31, 51
1, 152442, Control_c, 0, 64, 47
1, 152457, Control_c, 0, 64, 0
1, 152466, Note_off_c, 0, 31, 52
1, 152501, Control_c, 0, 64, 56
1, 152516, Control_c, 0, 64, 71
1, 152531, Control_c, 0, 64, 107
1, 152546, Control_c, 0, 64, 127
1, 152610, Note_off_c, 0, 70, 60
1, 152636, Note_off_c, 0, 58, 64
1, 152671, Note_on_c, 0, 44, 90
1, 152778, Note_on_c, 0, 54, 89
1, 152851, Note_off_c, 0, 54, 64
1, 152876, Note_on_c, 0, 60, 87
1, 152892, Poly_aftertouch_c, 0, 66, 127
1, 152924, Poly_aftertouch_c, 0, 66, 0
1, 152984, Note_on_c, 0, 63, 91
1, 153216, Note_on_c, 0, 70, 95
1, 153235, Control_c, 0, 64, 70
1, 153250, Control_c, 0, 64, 0
1, 153295, Control_c, 0, 64, 40
1, 153309, Control_c, 0, 64, 64
1, 153324, Control_c, 0, 64, 81
1, 153339, Control_c, 0, 64, 127
1, 153362, Poly_aftertouch_c, 0, 67, 0
1, 153572, Note_off_c, 0, 70, 61
1, 153760, Note_off_c, 0, 60, 60
1, 153824, Note_off_c, 0, 32, 59
1, 153964, Note_on_c, 0, 68, 93
1, 154002, Note_off_c, 0, 63, 58
1, 154016, Note_off_c, 0, 44, 63
1, 154241, Note_on_c, 0, 37, 60
1, 154242, Note_on_c, 0, 44, 68
1, 154282, Control_c, 0, 64, 112
1, 154296, Control_c, 0, 64, 66
1, 154311, Control_c, 0, 64, 0
1, 154332, Note_on_c, 0, 53, 78
1, 154333, Note_on_c, 0, 61, 83
1, 154339, Poly_aftertouch_c, 0, 65, 127
1, 154356, Control_c, 0, 64, 48
1, 154371, Control_c, 0, 64, 72
1, 154377, Note_off_c, 0, 37, 62
1, 154386, Control_c, 0, 64, 127
1, 154387, Note_off_c, 0, 44, 64
1, 154397, Note_on_c, 0, 59, 3
1, 154405, Note_off_c, 0, 68, 58
1, 154407, Note_off_c, 0, 59, 0
1, 154425, Poly_aftertouch_c, 0, 65, 0
1, 154437, Poly_aftertouch_c, 0, 59, 0
1, 154445, Note_off_c, 0, 53, 63
1, 154486, Note_off_c, 0, 61, 58
1, 154656, Note_on_c, 0, 65, 66
1, 154679, Note_on_c, 0, 56, 49
1, 154763, Note_off_c, 0, 56, 63
1, 154785, Note_off_c, 0, 65, 54
1, 154786, Note_on_c, 0, 68, 69
1, 154788, Note_on_c, 0, 59, 64
1, 154900, Note_off_c, 0, 59, 61
1, 154906, Note_on_c, 0, 56, 70
1, 154912, Note_on_c, 0, 65, 67
1, 154927, Note_off_c, 0, 68, 30
1, 155099, Note_on_c, 0, 68, 56
1, 155104, Note_on_c, 0, 87, 93
1, 155106, Note_off_c, 0, 56, 52
1, 155116, Note_on_c, 0, 59, 60
1, 155120, Note_on_c, 0, 83, 65
1, 155143, Note_off_c, 0, 65, 58
1, 155195, Note_off_c, 0, 68, 57
1, 155238, Note_on_c, 0, 65, 71
1, 155238, Note_off_c, 0, 59, 62
1, 155254, Note_on_c, 0, 56, 48
1, 155304, Note_off_c, 0, 56, 53
1, 155360, Note_on_c, 0, 68, 59
1, 155367, Note_off_c, 0, 65, 54
1, 155395, Note_on_c, 0, 59, 49
1, 155476, Note_off_c, 0, 68, 62
1, 155490, Note_on_c, 0, 56, 73
1, 155497, Note_off_c, 0, 59, 63
1, 155519, Note_off_c, 0, 56, 66
1, 155579, Poly_aftertouch_c, 0, 65, 0
1, 155659, Control_c, 0, 64, 85
1, 155674, Control_c, 0, 64, 56
1, 155689, Control_c, 0, 64, 43
1, 155691, Note_on_c, 0, 41, 71
1, 155703, Control_c, 0, 64, 50
1, 155718, Control_c, 0, 64, 60
1, 155724, Note_off_c, 0, 41, 64
1, 155733, Control_c, 0, 64, 70
1, 155748, Control_c, 0, 64, 100
1, 155761, Note_off_c, 0, 83, 65
1, 155763, Control_c, 0, 64, 127
1, 155775, Note_off_c, 0, 87, 62
1, 155900, Note_on_c, 0, 68, 62
1, 155997, Note_off_c, 0, 68, 59
1, 156052, Note_on_c, 0, 85, 90
1, 156062, Note_on_c, 0, 70, 59
1, 156080, Note_on_c, 0, 61, 54
1, 156082, Note_on_c, 0, 82, 41
1, 156109, Note_off_c, 0, 82, 50
1, 156115, Note_off_c, 0, 85, 65
1, 156152, Note_off_c, 0, 70, 53
1, 156216, Note_off_c, 0, 61, 56
1, 156220, Note_on_c, 0, 68, 59
1, 156222, Note_on_c, 0, 59, 54
1, 156428, Note_on_c, 0, 70, 46
1, 156445, Note_on_c, 0, 61, 56
1, 156452, Note_off_c, 0, 59, 60
1, 156478, Note_on_c, 0, 83, 83
1, 156485, Note_on_c, 0, 80, 66
1, 156513, Note_off_c, 0, 68, 37
1, 156631, Note_off_c, 0, 70, 39
1, 156636, Note_off_c, 0, 80, 62
1, 156640, Note_on_c, 0, 68, 63
1, 156641, Note_off_c, 0, 61, 57
1, 156662, Note_on_c, 0, 59, 50
1, 156702, Note_on_c, 0, 82, 84
1, 156704, Note_on_c, 0, 78, 65
1, 156742, Note_off_c, 0, 59, 61
1, 156750, Note_on_c, 0, 70, 58
1, 156760, Note_off_c, 0, 68, 55
1, 156774, Note_on_c, 0, 61, 58
1, 156824, Note_off_c, 0, 70, 58
1, 156876, Note_on_c, 0, 77, 71
1, 156886, Note_on_c, 0, 80, 79
1, 156889, Note_on_c, 0, 68, 56
1, 156891, Note_off_c, 0, 78, 63
1, 156908, Note_off_c, 0, 61, 62
1, 156910, Note_off_c, 0, 83, 50
1, 156928, Note_off_c, 0, 68, 64
1, 156947, Note_off_c, 0, 82, 62
1, 157102, Note_off_c, 0, 77, 56
1, 157152, Note_on_c, 0, 42, 41
1, 157172, Control_c, 0, 64, 111
1, 157187, Control_c, 0, 64, 65
1, 157198, Note_on_c, 0, 82, 68
1, 157202, Control_c, 0, 64, 0
1, 157212, Note_on_c, 0, 78, 54
1, 157212, Note_off_c, 0, 80, 63
1, 157275, Control_c, 0, 64, 53
1, 157289, Note_off_c, 0, 42, 64
1, 157290, Control_c, 0, 64, 67
1, 157305, Control_c, 0, 64, 84
1, 157320, Control_c, 0, 64, 127
1, 157424, Note_off_c, 0, 78, 60
1, 157474, Note_off_c, 0, 82, 56
1, 157514, Note_on_c, 0, 66, 30
1, 157522, Poly_aftertouch_c, 0, 58, 127
1, 157563, Poly_aftertouch_c, 0, 58, 0
1, 157584, Note_off_c, 0, 66, 54
1, 157625, Note_on_c, 0, 70, 51
1, 157649, Note_on_c, 0, 61, 41
1, 157675, Note_off_c, 0, 70, 61
1, 157704, Note_off_c, 0, 61, 57
1, 157860, Note_on_c, 0, 66, 44
1, 157872, Note_on_c, 0, 58, 32
1, 157878, Note_on_c, 0, 61, 39
1, 157907, Note_off_c, 0, 58, 47
1, 157909, Note_off_c, 0, 66, 62
1, 157924, Note_off_c, 0, 61, 62
1, 158389, Note_on_c, 0, 70, 49
1, 158408, Note_on_c, 0, 44, 40
1, 158410, Control_c, 0, 64, 104
1, 158433, Control_c, 0, 64, 69
1, 158446, Note_on_c, 0, 58, 26
1, 158447, Note_on_c, 0, 62, 29
1, 158448, Note_on_c, 0, 65, 23
1, 158448, Control_c, 0, 64, 46
1, 158463, Control_c, 0, 64, 24
1, 158477, Control_c, 0, 64, 27
1, 158492, Control_c, 0, 64, 45
1, 158507, Control_c, 0, 64, 59
1, 158521, Control_c, 0, 64, 66
1, 158530, Note_off_c, 0, 65, 61
1, 158536, Control_c, 0, 64, 76
1, 158547, Note_off_c, 0, 58, 60
1, 158551, Control_c, 0, 64, 97
1, 158559, Note_off_c, 0, 70, 64
1, 158564, Note_off_c, 0, 62, 58
1, 158566, Control_c, 0, 64, 127
1, 158705, Note_off_c, 0, 44, 39
1, 158748, Note_on_c, 0, 46, 34
1, 158780, Note_on_c, 0, 72, 61
1, 158781, Note_on_c, 0, 53, 41
1, 158800, Note_on_c, 0, 60, 53
1, 158845, Note_off_c, 0, 60, 63
1, 158846, Note_off_c, 0, 46, 58
1, 158857, Note_off_c, 0, 72, 63
1, 158875, Note_off_c, 0, 53, 57
1, 159053, Note_on_c, 0, 74, 66
1, 159058, Note_on_c, 0, 50, 44
1, 159066, Note_on_c, 0, 58, 35
1, 159074, Note_on_c, 0, 62, 51
1, 159092, Note_off_c, 0, 50, 64
1, 159098, Note_off_c, 0, 58, 56
1, 159379, Note_on_c, 0, 42, 50
1, 159404, Control_c, 0, 64, 102
1, 159418, Control_c, 0, 64, 62
1, 159433, Control_c, 0, 64, 0
1, 159451, Note_on_c, 0, 70, 54
1, 159461, Note_on_c, 0, 66, 50
1, 159492, Control_c, 0, 64, 44
1, 159507, Control_c, 0, 64, 62
1, 159513, Note_off_c, 0, 42, 63
1, 159522, Control_c, 0, 64, 71
1, 159537, Control_c, 0, 64, 87
1, 159545, Note_off_c, 0, 74, 62
1, 159552, Control_c, 0, 64, 127
1, 159572, Note_off_c, 0, 66, 63
1, 159599, Note_off_c, 0, 62, 62
1, 159667, Note_on_c, 0, 54, 58
1, 159761, Note_on_c, 0, 75, 72
1, 159769, Note_on_c, 0, 63, 65
1, 159779, Note_off_c, 0, 70, 62
1, 159837, Note_off_c, 0, 54, 27
1, 159843, Note_on_c, 0, 58, 49
1, 159844, Note_on_c, 0, 51, 48
1, 159870, Note_off_c, 0, 58, 55
1, 159874, Note_off_c, 0, 51, 52
1, 160048, Control_c, 0, 64, 87
1, 160063, Control_c, 0, 64, 63
1, 160078, Control_c, 0, 64, 43
1, 160092, Control_c, 0, 64, 43
1, 160096, Note_on_c, 0, 41, 64
1, 160099, Note_on_c, 0, 70, 51
1, 160107, Control_c, 0, 64, 47
1, 160115, Note_on_c, 0, 68, 67
1, 160122, Control_c, 0, 64, 58
1, 160137, Control_c, 0, 64, 67
1, 160139, Note_off_c, 0, 41, 66
1, 160141, Note_off_c, 0, 75, 61
1, 160151, Note_off_c, 0, 70, 62
1, 160152, Control_c, 0, 64, 78
1, 160154, Note_off_c, 0, 63, 60
1, 160166, Control_c, 0, 64, 119
1, 160181, Control_c, 0, 64, 127
1, 160296, Note_on_c, 0, 56, 60
1, 160354, Note_off_c, 0, 56, 54
1, 160401, Note_on_c, 0, 77, 76
1, 160407, Note_on_c, 0, 65, 70
1, 160407, Note_off_c, 0, 68, 62
1, 160420, Poly_aftertouch_c, 0, 75, 0
1, 160448, Note_on_c, 0, 58, 56
1, 160461, Note_on_c, 0, 50, 50
1, 160471, Note_off_c, 0, 58, 61
1, 160489, Note_off_c, 0, 50, 55
1, 160626, Control_c, 0, 64, 91
1, 160641, Control_c, 0, 64, 65
1, 160656, Control_c, 0, 64, 45
1, 160672, Note_on_c, 0, 39, 58
1, 160678, Control_c, 0, 64, 43
1, 160693, Control_c, 0, 64, 48
1, 160708, Control_c, 0, 64, 61
1, 160715, Note_on_c, 0, 75, 61
1, 160717, Note_on_c, 0, 70, 62
1, 160722, Note_off_c, 0, 39, 61
1, 160722, Control_c, 0, 64, 68
1, 160737, Control_c, 0, 64, 80
1, 160738, Note_off_c, 0, 77, 62
1, 160752, Control_c, 0, 64, 116
1, 160767, Control_c, 0, 64, 127
1, 160783, Note_off_c, 0, 65, 61
1, 160817, Note_off_c, 0, 70, 63
1, 160857, Note_on_c, 0, 54, 54
1, 160962, Note_on_c, 0, 78, 85
1, 160970, Note_on_c, 0, 66, 77
1, 160983, Note_off_c, 0, 75, 61
1, 160983, Note_off_c, 0, 54, 60
1, 161026, Note_on_c, 0, 58, 68
1, 161062, Note_on_c, 0, 51, 50
1, 161062, Note_off_c, 0, 58, 64
1, 161096, Note_off_c, 0, 51, 55
1, 161119, Note_off_c, 0, 66, 62
1, 161242, Note_off_c, 0, 78, 61
1, 161287, Note_on_c, 0, 37, 57
1, 161290, Note_on_c, 0, 49, 60
1, 161313, Note_on_c, 0, 75, 66
1, 161327, Note_on_c, 0, 71, 61
1, 161330, Control_c, 0, 64, 64
1, 161345, Control_c, 0, 64, 0
1, 161389, Control_c, 0, 64, 42
1, 161404, Control_c, 0, 64, 63
1, 161418, Note_off_c, 0, 37, 62
1, 161427, Control_c, 0, 64, 75
1, 161442, Control_c, 0, 64, 116
1, 161449, Note_off_c, 0, 49, 64
1, 161457, Control_c, 0, 64, 127
1, 161489, Note_on_c, 0, 79, 79
1, 161497, Note_on_c, 0, 67, 77
1, 161501, Note_off_c, 0, 71, 64
1, 161553, Note_off_c, 0, 67, 64
1, 161558, Note_off_c, 0, 79, 63
1, 161600, Note_on_c, 0, 59, 45
1, 161629, Note_off_c, 0, 59, 58
1, 161660, Note_on_c, 0, 78, 83
1, 161666, Note_on_c, 0, 66, 76
1, 161673, Note_on_c, 0, 63, 69
1, 161681, Note_on_c, 0, 55, 61
1, 161683, Note_off_c, 0, 75, 39
1, 161702, Note_off_c, 0, 63, 66
1, 161718, Note_off_c, 0, 55, 67
1, 161722, Note_off_c, 0, 66, 63
1, 161725, Note_off_c, 0, 78, 64
1, 161790, Note_on_c, 0, 79, 69
1, 161803, Note_on_c, 0, 67, 82
1, 161898, Note_off_c, 0, 79, 62
1, 161907, Note_off_c, 0, 67, 58
1, 161945, Note_on_c, 0, 47, 69
1, 161945, Control_c, 0, 64, 110
1, 161951, Note_on_c, 0, 35, 72
1, 161960, Control_c, 0, 64, 61
1, 161975, Control_c, 0, 64, 0
1, 161999, Note_on_c, 0, 79, 82
1, 162005, Control_c, 0, 64, 21
1, 162005, Note_on_c, 0, 67, 81
1, 162014, Note_on_c, 0, 75, 70
1, 162019, Note_on_c, 0, 73, 73
1, 162020, Control_c, 0, 64, 57
1, 162022, Note_off_c, 0, 35, 62
1, 162035, Control_c, 0, 64, 70
1, 162050, Control_c, 0, 64, 89
1, 162050, Note_off_c, 0, 47, 64
1, 162064, Control_c, 0, 64, 127
1, 162073, Note_off_c, 0, 79, 64
1, 162088, Note_off_c, 0, 67, 62
1, 162214, Note_on_c, 0, 59, 63
1, 162276, Note_off_c, 0, 73, 58
1, 162286, Note_on_c, 0, 80, 84
1, 162288, Note_off_c, 0, 75, 59
1, 162292, Note_on_c, 0, 68, 93
1, 162331, Note_on_c, 0, 63, 64
1, 162339, Note_on_c, 0, 56, 77
1, 162342, Note_off_c, 0, 59, 62
1, 162361, Note_off_c, 0, 63, 65
1, 162384, Note_off_c, 0, 56, 65
1, 162517, Control_c, 0, 64, 75
1, 162532, Control_c, 0, 64, 57
1, 162547, Control_c, 0, 64, 52
1, 162557, Note_on_c, 0, 75, 55
1, 162559, Note_on_c, 0, 73, 85
1, 162561, Control_c, 0, 64, 58
1, 162562, Note_on_c, 0, 34, 70
1, 162564, Note_on_c, 0, 46, 80
1, 162576, Control_c, 0, 64, 65
1, 162591, Control_c, 0, 64, 79
1, 162592, Note_on_c, 0, 44, 30
1, 162594, Note_off_c, 0, 34, 63
1, 162595, Note_off_c, 0, 75, 63
1, 162595, Note_off_c, 0, 80, 62
1, 162598, Note_off_c, 0, 68, 59
1, 162606, Control_c, 0, 64, 127
1, 162612, Note_off_c, 0, 46, 63
1, 162631, Note_off_c, 0, 44, 52
1, 162754, Note_on_c, 0, 61, 74
1, 162776, Note_on_c, 0, 51, 44
1, 162791, Note_off_c, 0, 73, 65
1, 162798, Note_on_c, 0, 82, 88
1, 162807, Note_off_c, 0, 51, 52
1, 162810, Note_on_c, 0, 70, 96
1, 162819, Note_off_c, 0, 61, 59
1, 162861, Note_on_c, 0, 63, 62
1, 162870, Note_on_c, 0, 55, 77
1, 162890, Note_off_c, 0, 63, 64
1, 162898, Note_off_c, 0, 55, 69
1, 163014, Control_c, 0, 64, 92
1, 163029, Control_c, 0, 64, 30
1, 163044, Control_c, 0, 64, 0
1, 163046, Note_on_c, 0, 44, 91
1, 163054, Note_on_c, 0, 75, 84
1, 163054, Note_on_c, 0, 80, 76
1, 163062, Note_on_c, 0, 32, 53
1, 163078, Note_off_c, 0, 44, 66
1, 163096, Note_off_c, 0, 32, 60
1, 163103, Control_c, 0, 64, 63
1, 163114, Note_off_c, 0, 70, 58
1, 163117, Control_c, 0, 64, 94
1, 163132, Control_c, 0, 64, 127
1, 163147, Note_off_c, 0, 82, 62
1, 163208, Note_on_c, 0, 79, 44
1, 163212, Poly_aftertouch_c, 0, 81, 127
1, 163269, Note_on_c, 0, 59, 57
1, 163279, Note_off_c, 0, 80, 30
1, 163315, Note_off_c, 0, 79, 63
1, 163315, Poly_aftertouch_c, 0, 81, 0
1, 163318, Note_on_c, 0, 83, 88
1, 163331, Note_on_c, 0, 71, 94
1, 163350, Note_on_c, 0, 63, 64
1, 163365, Note_on_c, 0, 56, 79
1, 163367, Note_off_c, 0, 75, 63
1, 163369, Note_off_c, 0, 59, 63
1, 163379, Note_off_c, 0, 83, 65
1, 163381, Note_off_c, 0, 63, 65
1, 163391, Note_off_c, 0, 71, 63
1, 163412, Note_off_c, 0, 56, 66
1, 163591, Control_c, 0, 64, 94
1, 163606, Control_c, 0, 64, 62
1, 163621, Control_c, 0, 64, 0
1, 163639, Note_on_c, 0, 44, 36
1, 163651, Control_c, 0, 64, 13
1, 163665, Note_on_c, 0, 56, 62
1, 163668, Note_on_c, 0, 82, 79
1, 163673, Control_c, 0, 64, 55
1, 163674, Note_on_c, 0, 70, 77
1, 163676, Note_on_c, 0, 74, 62
1, 163688, Control_c, 0, 64, 69
1, 163691, Note_off_c, 0, 44, 62
1, 163703, Control_c, 0, 64, 91
1, 163711, Note_off_c, 0, 56, 63
1, 163717, Control_c, 0, 64, 127
1, 163719, Note_off_c, 0, 74, 63
1, 163732, Note_off_c, 0, 70, 63
1, 163755, Note_off_c, 0, 82, 65
1, 163928, Note_on_c, 0, 62, 71
1, 163937, Note_on_c, 0, 84, 87
1, 163946, Note_on_c, 0, 72, 82
1, 163981, Note_off_c, 0, 72, 61
1, 163993, Note_off_c, 0, 84, 64
1, 164003, Poly_aftertouch_c, 0, 53, 127
1, 164041, Poly_aftertouch_c, 0, 53, 0
1, 164079, Note_off_c, 0, 62, 59
1, 164087, Note_on_c, 0, 58, 80
1, 164114, Note_on_c, 0, 86, 89
1, 164116, Note_on_c, 0, 74, 91
1, 164119, Note_off_c, 0, 58, 65
1, 164169, Note_off_c, 0, 74, 60
1, 164178, Poly_aftertouch_c, 0, 65, 0
1, 164179, Note_off_c, 0, 86, 60
1, 164311, Control_c, 0, 64, 123
1, 164323, Note_on_c, 0, 42, 72
1, 164326, Control_c, 0, 64, 66
1, 164327, Note_on_c, 0, 54, 74
1, 164339, Note_on_c, 0, 86, 85
1, 164340, Control_c, 0, 64, 40
1, 164345, Note_on_c, 0, 74, 87
1, 164351, Note_on_c, 0, 78, 82
1, 164351, Note_on_c, 0, 82, 81
1, 164355, Control_c, 0, 64, 37
1, 164370, Control_c, 0, 64, 47
1, 164385, Control_c, 0, 64, 61
1, 164389, Note_off_c, 0, 42, 63
1, 164400, Control_c, 0, 64, 70
1, 164414, Note_off_c, 0, 54, 64
1, 164421, Note_off_c, 0, 86, 63
1, 164422, Control_c, 0, 64, 96
1, 164437, Control_c, 0, 64, 127
1, 164449, Note_off_c, 0, 74, 61
1, 164471, Note_off_c, 0, 78, 64
1, 164595, Note_on_c, 0, 63, 76
1, 164644, Note_on_c, 0, 87, 85
1, 164648, Note_on_c, 0, 75, 102
1, 164676, Note_off_c, 0, 82, 59
1, 164685, Note_off_c, 0, 63, 61
1, 164706, Note_on_c, 0, 66, 84
1, 164710, Note_on_c, 0, 58, 89
1, 164733, Note_off_c, 0, 66, 67
1, 164749, Note_off_c, 0, 58, 68
1, 164754, Note_off_c, 0, 75, 59
1, 164764, Note_off_c, 0, 87, 59
1, 164882, Control_c, 0, 64, 71
1, 164894, Note_on_c, 0, 86, 91
1, 164897, Note_on_c, 0, 74, 90
1, 164897, Note_on_c, 0, 82, 90
1, 164897, Control_c, 0, 64, 0
1, 164898, Note_on_c, 0, 49, 92
1, 164898, Note_on_c, 0, 79, 82
1, 164909, Note_on_c, 0, 37, 69
1, 164926, Control_c, 0, 64, 11
1, 164935, Note_off_c, 0, 37, 64
1, 164941, Note_off_c, 0, 49, 64
1, 164941, Control_c, 0, 64, 58
1, 164956, Control_c, 0, 64, 75
1, 164971, Control_c, 0, 64, 127
1, 164976, Note_off_c, 0, 86, 62
1, 164990, Note_off_c, 0, 74, 59
1, 165045, Note_off_c, 0, 79, 57
1, 165075, Note_on_c, 0, 58, 83
1, 165090, Note_on_c, 0, 51, 53
1, 165123, Note_off_c, 0, 51, 62
1, 165131, Note_off_c, 0, 82, 62
1, 165162, Note_on_c, 0, 75, 103
1, 165163, Note_on_c, 0, 87, 86
1, 165199, Note_on_c, 0, 63, 74
1, 165207, Note_on_c, 0, 55, 73
1, 165207, Note_off_c, 0, 58, 63
1, 165224, Note_off_c, 0, 63, 68
1, 165232, Note_off_c, 0, 55, 67
1, 165244, Note_on_c, 0, 56, 6
1, 165257, Note_off_c, 0, 75, 58
1, 165266, Note_off_c, 0, 87, 59
1, 165304, Note_off_c, 0, 56, 51
1, 165363, Control_c, 0, 64, 98
1, 165378, Control_c, 0, 64, 62
1, 165393, Control_c, 0, 64, 0
1, 165407, Note_on_c, 0, 86, 92
1, 165408, Note_on_c, 0, 47, 90
1, 165409, Note_on_c, 0, 74, 104
1, 165412, Note_on_c, 0, 80, 99
1, 165415, Note_on_c, 0, 35, 75
1, 165424, Control_c, 0, 64, 45
1, 165424, Note_on_c, 0, 83, 70
1, 165439, Control_c, 0, 64, 64
1, 165443, Note_on_c, 0, 82, 60
1, 165448, Note_off_c, 0, 35, 65
1, 165453, Control_c, 0, 64, 87
1, 165463, Note_off_c, 0, 47, 65
1, 165465, Note_off_c, 0, 82, 38
1, 165468, Control_c, 0, 64, 127
1, 165473, Note_off_c, 0, 74, 62
1, 165473, Note_off_c, 0, 86, 64
1, 165633, Note_on_c, 0, 59, 85
1, 165651, Note_on_c, 0, 87, 93
1, 165652, Note_on_c, 0, 75, 107
1, 165667, Note_on_c, 0, 51, 26
1, 165675, Note_on_c, 0, 85, 62
1, 165682, Note_off_c, 0, 80, 62
1, 165698, Note_off_c, 0, 85, 65
1, 165710, Note_off_c, 0, 51, 41
1, 165723, Note_off_c, 0, 83, 34
1, 165738, Note_off_c, 0, 75, 62
1, 165743, Note_off_c, 0, 87, 63
1, 165783, Note_on_c, 0, 56, 88
1, 165803, Note_off_c, 0, 59, 63
1, 165816, Note_on_c, 0, 86, 96
1, 165819, Note_on_c, 0, 74, 108
1, 165819, Note_off_c, 0, 56, 62
1, 165934, Note_off_c, 0, 86, 64
1, 165966, Note_off_c, 0, 74, 60
1, 165989, Note_on_c, 0, 83, 25
1, 165994, Control_c, 0, 64, 69
1, 166008, Control_c, 0, 64, 59
1, 166021, Note_on_c, 0, 46, 107
1, 166023, Control_c, 0, 64, 68
1, 166024, Note_off_c, 0, 83, 0
1, 166024, Note_on_c, 0, 83, 43
1, 166031, Note_on_c, 0, 34, 69
1, 166031, Note_on_c, 0, 75, 104
1, 166033, Note_on_c, 0, 80, 98
1, 166038, Control_c, 0, 64, 99
1, 166039, Note_on_c, 0, 87, 93
1, 166053, Control_c, 0, 64, 127
1, 166057, Note_off_c, 0, 34, 64
1, 166064, Note_off_c, 0, 46, 68
1, 166151, Note_off_c, 0, 75, 60
1, 166151, Note_off_c, 0, 87, 64
1, 166174, Note_off_c, 0, 83, 58
1, 166232, Note_on_c, 0, 86, 95
1, 166235, Note_on_c, 0, 74, 103
1, 166268, Note_off_c, 0, 80, 59
1, 166274, Note_on_c, 0, 51, 78
1, 166286, Note_off_c, 0, 74, 66
1, 166289, Note_on_c, 0, 60, 76
1, 166295, Note_off_c, 0, 86, 65
1, 166361, Note_on_c, 0, 80, 93
1, 166363, Note_on_c, 0, 75, 101
1, 166366, Note_on_c, 0, 87, 88
1, 166378, Note_on_c, 0, 83, 52
1, 166397, Note_off_c, 0, 60, 62
1, 166422, Note_off_c, 0, 83, 57
1, 166426, Note_off_c, 0, 51, 63
1, 166429, Note_off_c, 0, 75, 64
1, 166432, Note_off_c, 0, 87, 64
1, 166438, Note_on_c, 0, 55, 71
1, 166444, Note_on_c, 0, 63, 100
1, 166477, Note_off_c, 0, 63, 68
1, 166491, Note_off_c, 0, 55, 66
1, 166500, Note_on_c, 0, 86, 96
1, 166500, Note_on_c, 0, 74, 108
1, 166526, Note_on_c, 0, 76, 62
1, 166534, Note_off_c, 0, 80, 62
1, 166545, Note_off_c, 0, 76, 61
1, 166550, Note_off_c, 0, 74, 68
1, 166552, Note_off_c, 0, 86, 66
1, 166655, Note_on_c, 0, 75, 108
1, 166661, Note_on_c, 0, 87, 95
1, 166712, Note_off_c, 0, 87, 56
1, 166751, Note_off_c, 0, 75, 57
1, 166891, Control_c, 0, 64, 89
1, 166906, Control_c, 0, 64, 56
1, 166920, Note_on_c, 0, 45, 97
1, 166921, Control_c, 0, 64, 28
1, 166922, Note_on_c, 0, 75, 112
1, 166922, Note_on_c, 0, 81, 102
1, 166923, Note_on_c, 0, 33, 85
1, 166924, Note_on_c, 0, 84, 95
1, 166927, Note_on_c, 0, 87, 98
1, 166935, Control_c, 0, 64, 61
1, 166950, Control_c, 0, 64, 82
1, 166952, Note_off_c, 0, 33, 67
1, 166965, Note_off_c, 0, 45, 67
1, 166965, Control_c, 0, 64, 127
1, 167213, Note_off_c, 0, 81, 46
1, 167239, Note_on_c, 0, 61, 93
1, 167248, Note_on_c, 0, 52, 77
1, 167263, Note_off_c, 0, 75, 55
1, 167265, Note_off_c, 0, 87, 49
1, 167368, Note_on_c, 0, 76, 105
1, 167368, Note_on_c, 0, 81, 86
1, 167369, Note_on_c, 0, 88, 93
1, 167370, Note_on_c, 0, 64, 97
1, 167377, Note_on_c, 0, 80, 84
1, 167389, Note_off_c, 0, 80, 70
1, 167389, Note_off_c, 0, 84, 60
1, 167395, Note_off_c, 0, 76, 72
1, 167412, Note_off_c, 0, 88, 70
1, 167415, Note_off_c, 0, 61, 62
1, 167415, Note_off_c, 0, 81, 68
1, 167490, Note_on_c, 0, 61, 88
1, 167515, Note_off_c, 0, 64, 62
1, 167680, Note_on_c, 0, 88, 59
1, 167684, Note_on_c, 0, 85, 106
1, 167686, Note_on_c, 0, 95, 100
1, 167688, Note_on_c, 0, 83, 102
1, 167690, Note_on_c, 0, 64, 103
1, 167722, Note_on_c, 0, 91, 44
1, 167741, Note_off_c, 0, 61, 59
1, 167745, Note_on_c, 0, 54, 38
1, 167746, Note_off_c, 0, 91, 55
1, 167803, Note_off_c, 0, 64, 59
1, 167822, Note_off_c, 0, 54, 62
1, 167831, Note_on_c, 0, 61, 89
1, 167877, Note_off_c, 0, 52, 63
1, 167934, Note_on_c, 0, 64, 88
1, 167945, Note_on_c, 0, 62, 75
1, 167947, Note_off_c, 0, 61, 43
1, 167962, Note_off_c, 0, 62, 66
1, 167973, Note_off_c, 0, 64, 65
1, 168074, Note_on_c, 0, 62, 53
1, 168076, Note_on_c, 0, 73, 88
1, 168087, Note_on_c, 0, 64, 56
1, 168134, Note_off_c, 0, 64, 0
1, 168158, Note_on_c, 0, 64, 23
1, 168190, Note_off_c, 0, 62, 61
1, 168190, Note_off_c, 0, 64, 51
1, 168200, Note_off_c, 0, 73, 64
1, 168246, Note_on_c, 0, 69, 97
1, 168248, Note_on_c, 0, 76, 104
1, 168255, Control_c, 0, 64, 79
1, 168258, Note_on_c, 0, 64, 88
1, 168270, Control_c, 0, 64, 56
1, 168284, Note_on_c, 0, 66, 51
1, 168285, Control_c, 0, 64, 50
1, 168300, Control_c, 0, 64, 62
1, 168315, Control_c, 0, 64, 79
1, 168325, Note_off_c, 0, 66, 52
1, 168329, Control_c, 0, 64, 127
1, 168422, Note_off_c, 0, 95, 53
1, 168471, Note_off_c, 0, 85, 51
1, 168474, Note_off_c, 0, 83, 54
1, 168554, Note_off_c, 0, 88, 0
1, 168554, Note_on_c, 0, 88, 33
1, 168559, Note_on_c, 0, 93, 93
1, 168564, Note_on_c, 0, 81, 102
1, 168564, Note_on_c, 0, 85, 99
1, 168614, Note_off_c, 0, 76, 67
1, 168647, Note_off_c, 0, 93, 62
1, 168709, Note_off_c, 0, 81, 60
1, 168727, Note_off_c, 0, 85, 63
1, 168906, Note_on_c, 0, 80, 109
1, 168909, Note_on_c, 0, 85, 99
1, 168909, Note_on_c, 0, 92, 94
1, 168936, Note_off_c, 0, 69, 70
1, 168938, Note_off_c, 0, 64, 67
1, 168939, Note_on_c, 0, 90, 52
1, 169051, Note_off_c, 0, 90, 25
1, 169063, Note_off_c, 0, 88, 54
1, 169124, Note_off_c, 0, 92, 64
1, 169198, Note_off_c, 0, 80, 61
1, 169472, Note_on_c, 0, 90, 92
1, 169477, Note_on_c, 0, 78, 108
1, 169499, Note_off_c, 0, 85, 68
1, 169564, Note_off_c, 0, 78, 63
1, 169565, Note_off_c, 0, 90, 64
1, 169684, Note_on_c, 0, 80, 10
1, 169733, Note_off_c, 0, 80, 35
1, 169744, Note_on_c, 0, 27, 78
1, 169746, Note_on_c, 0, 39, 89
1, 169791, Note_on_c, 0, 79, 92
1, 169791, Note_on_c, 0, 85, 96
1, 169791, Note_on_c, 0, 77, 101
1, 169791, Note_on_c, 0, 89, 96
1, 169797, Control_c, 0, 64, 76
1, 169803, Note_on_c, 0, 80, 63
1, 169812, Control_c, 0, 64, 49
1, 169825, Note_off_c, 0, 80, 52
1, 169827, Control_c, 0, 64, 47
1, 169831, Poly_aftertouch_c, 0, 31, 0
1, 169842, Control_c, 0, 64, 64
1, 169846, Note_off_c, 0, 27, 63
1, 169857, Control_c, 0, 64, 88
1, 169864, Note_off_c, 0, 39, 63
1, 169872, Control_c, 0, 64, 127
1, 170092, Note_on_c, 0, 55, 85
1, 170105, Note_on_c, 0, 46, 56
1, 170152, Note_off_c, 0, 46, 59
1, 170235, Note_on_c, 0, 61, 89
1, 170264, Note_off_c, 0, 55, 59
1, 170268, Note_off_c, 0, 89, 59
1, 170304, Note_off_c, 0, 61, 64
1, 170335, Note_off_c, 0, 85, 65
1, 170373, Note_off_c, 0, 77, 58
1, 170408, Note_on_c, 0, 61, 92
1, 170409, Note_on_c, 0, 67, 89
1, 170428, Note_off_c, 0, 67, 72
1, 170448, Note_off_c, 0, 61, 59
1, 170644, Note_on_c, 0, 88, 96
1, 170647, Note_on_c, 0, 76, 103
1, 170843, Control_c, 0, 64, 77
1, 170857, Control_c, 0, 64, 0
1, 170858, Note_on_c, 0, 45, 97
1, 170861, Note_on_c, 0, 33, 84
1, 170887, Control_c, 0, 64, 37
1, 170891, Note_off_c, 0, 33, 68
1, 170902, Control_c, 0, 64, 62
1, 170909, Note_off_c, 0, 45, 66
1, 170917, Control_c, 0, 64, 81
1, 170931, Control_c, 0, 64, 127
1, 170958, Note_off_c, 0, 79, 60
1, 170982, Note_off_c, 0, 88, 65
1, 171010, Note_off_c, 0, 76, 64
1, 171122, Note_on_c, 0, 61, 71
1, 171171, Note_on_c, 0, 52, 20
1, 171198, Note_off_c, 0, 61, 60
1, 171201, Note_on_c, 0, 87, 87
1, 171208, Note_on_c, 0, 75, 105
1, 171212, Note_off_c, 0, 52, 0
1, 171212, Note_on_c, 0, 52, 23
1, 171221, Note_on_c, 0, 64, 88
1, 171235, Poly_aftertouch_c, 0, 53, 0
1, 171258, Note_off_c, 0, 87, 66
1, 171274, Note_off_c, 0, 75, 52
1, 171276, Note_on_c, 0, 57, 47
1, 171338, Note_off_c, 0, 64, 57
1, 171339, Note_on_c, 0, 61, 79
1, 171414, Poly_aftertouch_c, 0, 82, 0
1, 171447, Note_on_c, 0, 81, 90
1, 171449, Note_on_c, 0, 85, 92
1, 171449, Note_on_c, 0, 73, 98
1, 171454, Note_on_c, 0, 64, 92
1, 171488, Note_off_c, 0, 61, 62
1, 171544, Note_off_c, 0, 64, 58
1, 171555, Note_off_c, 0, 81, 65
1, 171582, Note_on_c, 0, 61, 82
1, 171586, Note_off_c, 0, 85, 65
1, 171588, Note_off_c, 0, 52, 59
1, 171590, Note_off_c, 0, 73, 63
1, 171601, Note_off_c, 0, 57, 64
1, 171670, Note_on_c, 0, 64, 90
1, 171675, Note_off_c, 0, 61, 59
1, 171705, Note_off_c, 0, 64, 63
1, 171777, Note_on_c, 0, 71, 100
1, 171779, Note_on_c, 0, 83, 89
1, 171821, Note_on_c, 0, 73, 73
1, 171855, Note_on_c, 0, 64, 47
1, 171859, Note_on_c, 0, 63, 3
1, 171877, Note_off_c, 0, 71, 56
1, 171881, Note_off_c, 0, 73, 61
1, 171888, Note_off_c, 0, 83, 59
1, 171902, Note_off_c, 0, 63, 49
1, 171973, Note_on_c, 0, 69, 82
1, 171973, Note_on_c, 0, 76, 102
1, 171978, Note_on_c, 0, 83, 100
1, 171982, Note_on_c, 0, 71, 96
1, 172047, Note_off_c, 0, 76, 62
1, 172103, Note_off_c, 0, 83, 61
1, 172120, Note_off_c, 0, 71, 56
1, 172253, Note_on_c, 0, 81, 98
1, 172285, Note_off_c, 0, 64, 66
1, 172405, Note_off_c, 0, 81, 64
1, 172431, Note_off_c, 0, 69, 63
1, 172513, Note_on_c, 0, 76, 10
1, 172545, Note_on_c, 0, 68, 98
1, 172546, Note_on_c, 0, 80, 91
1, 172552, Note_on_c, 0, 73, 95
1, 172590, Note_on_c, 0, 78, 47
1, 172704, Note_off_c, 0, 78, 25
1, 172715, Note_off_c, 0, 80, 62
1, 172717, Note_off_c, 0, 76, 58
1, 172745, Note_off_c, 0, 68, 60
1, 172777, Note_off_c, 0, 73, 63
1, 172958, Note_on_c, 0, 66, 98
1, 172960, Note_on_c, 0, 78, 99
1, 172972, Note_on_c, 0, 68, 81
1, 172990, Note_off_c, 0, 68, 61
1, 172993, Note_on_c, 0, 79, 47
1, 172994, Note_off_c, 0, 79, 127
1, 173038, Note_off_c, 0, 78, 61
1, 173043, Note_off_c, 0, 66, 56
1, 173144, Note_on_c, 0, 39, 88
1, 173145, Note_on_c, 0, 27, 78
1, 173208, Note_on_c, 0, 73, 93
1, 173211, Note_on_c, 0, 65, 92
1, 173211, Note_on_c, 0, 67, 89
1, 173216, Note_on_c, 0, 77, 90
1, 173222, Control_c, 0, 64, 83
1, 173236, Control_c, 0, 64, 51
1, 173251, Control_c, 0, 64, 0
1, 173266, Control_c, 0, 64, 25
1, 173281, Control_c, 0, 64, 59
1, 173282, Note_off_c, 0, 27, 64
1, 173296, Control_c, 0, 64, 78
1, 173306, Note_off_c, 0, 39, 63
1, 173310, Control_c, 0, 64, 127
1, 173323, Poly_aftertouch_c, 0, 75, 127
1, 173435, Note_off_c, 0, 65, 60
1, 173441, Note_off_c, 0, 67, 61
1, 173463, Note_on_c, 0, 55, 68
1, 173465, Note_on_c, 0, 46, 52
1, 173500, Note_off_c, 0, 46, 63
1, 173572, Note_on_c, 0, 61, 92
1, 173604, Note_off_c, 0, 55, 63
1, 173628, Note_off_c, 0, 61, 62
1, 173678, Poly_aftertouch_c, 0, 75, 0
1, 173723, Note_off_c, 0, 77, 57
1, 173729, Note_on_c, 0, 67, 81
1, 173732, Note_on_c, 0, 61, 76
1, 173741, Note_off_c, 0, 67, 70
1, 173754, Note_off_c, 0, 61, 62
1, 173824, Poly_aftertouch_c, 0, 65, 0
1, 173937, Note_on_c, 0, 76, 95
1, 173944, Note_on_c, 0, 64, 95
1, 174053, Note_off_c, 0, 73, 0
1, 174090, Poly_aftertouch_c, 0, 73, 127
1, 174170, Control_c, 0, 64, 102
1, 174176, Note_on_c, 0, 45, 96
1, 174179, Note_on_c, 0, 33, 85
1, 174185, Control_c, 0, 64, 52
1, 174201, Control_c, 0, 64, 0
1, 174255, Note_off_c, 0, 33, 63
1, 174260, Control_c, 0, 64, 26
1, 174275, Control_c, 0, 64, 68
1, 174283, Note_off_c, 0, 45, 65
1, 174289, Control_c, 0, 64, 127
1, 174302, Poly_aftertouch_c, 0, 73, 0
1, 174366, Note_off_c, 0, 64, 60
1, 174408, Note_on_c, 0, 52, 74
1, 174455, Poly_aftertouch_c, 0, 69, 127
1, 174457, Note_on_c, 0, 75, 92
1, 174464, Note_on_c, 0, 63, 96
1, 174494, Note_off_c, 0, 52, 64
1, 174495, Note_on_c, 0, 57, 81
1, 174508, Note_off_c, 0, 76, 59
1, 174544, Poly_aftertouch_c, 0, 73, 0
1, 174590, Poly_aftertouch_c, 0, 73, 0
1, 174593, Note_off_c, 0, 63, 60
1, 174609, Note_on_c, 0, 52, 75
1, 174701, Note_off_c, 0, 57, 49
1, 174711, Note_off_c, 0, 75, 56
1, 174763, Control_c, 0, 64, 76
1, 174772, Note_on_c, 0, 57, 49
1, 174773, Note_on_c, 0, 76, 97
1, 174778, Control_c, 0, 64, 0
1, 174781, Note_on_c, 0, 64, 95
1, 174785, Note_on_c, 0, 61, 89
1, 174808, Control_c, 0, 64, 31
1, 174823, Control_c, 0, 64, 61
1, 174838, Control_c, 0, 64, 81
1, 174853, Control_c, 0, 64, 127
1, 174900, Note_off_c, 0, 64, 65
1, 174925, Note_off_c, 0, 52, 61
1, 174937, Note_off_c, 0, 76, 64
1, 174949, Note_off_c, 0, 61, 61
1, 174987, Note_on_c, 0, 52, 78
1, 174988, Note_on_c, 0, 75, 90
1, 174999, Note_on_c, 0, 63, 91
1, 175040, Note_off_c, 0, 57, 56
1, 175041, Note_off_c, 0, 63, 64
1, 175042, Note_off_c, 0, 75, 62
1, 175047, Poly_aftertouch_c, 0, 69, 0
1, 175130, Note_on_c, 0, 61, 98
1, 175134, Note_on_c, 0, 73, 83
1, 175135, Note_on_c, 0, 57, 82
1, 175143, Note_off_c, 0, 52, 58
1, 175192, Note_off_c, 0, 61, 53
1, 175202, Note_off_c, 0, 73, 61
1, 175290, Note_on_c, 0, 69, 90
1, 175291, Control_c, 0, 64, 83
1, 175295, Note_on_c, 0, 73, 95
1, 175297, Note_on_c, 0, 61, 94
1, 175297, Note_on_c, 0, 64, 84
1, 175302, Note_on_c, 0, 52, 78
1, 175306, Control_c, 0, 64, 56
1, 175320, Control_c, 0, 64, 29
1, 175335, Control_c, 0, 64, 48
1, 175350, Control_c, 0, 64, 63
1, 175365, Control_c, 0, 64, 80
1, 175373, Note_off_c, 0, 64, 65
1, 175375, Note_off_c, 0, 69, 65
1, 175380, Control_c, 0, 64, 127
1, 175390, Note_off_c, 0, 61, 62
1, 175395, Note_off_c, 0, 73, 64
1, 175401, Note_off_c, 0, 57, 65
1, 175437, Note_off_c, 0, 52, 60
1, 175482, Note_on_c, 0, 59, 95
1, 175482, Note_on_c, 0, 71, 94
1, 175524, Note_off_c, 0, 59, 65
1, 175526, Note_off_c, 0, 71, 64
1, 175624, Note_on_c, 0, 69, 95
1, 175628, Note_on_c, 0, 57, 99
1, 175742, Note_off_c, 0, 57, 49
1, 175746, Note_off_c, 0, 69, 57
1, 175836, Note_on_c, 0, 69, 98
1, 175840, Note_on_c, 0, 61, 95
1, 175841, Note_on_c, 0, 57, 97
1, 175841, Note_on_c, 0, 64, 90
1, 175861, Control_c, 0, 64, 78
1, 175875, Control_c, 0, 64, 31
1, 175890, Control_c, 0, 64, 0
1, 175905, Control_c, 0, 64, 33
1, 175920, Control_c, 0, 64, 61
1, 175935, Control_c, 0, 64, 77
1, 175950, Control_c, 0, 64, 127
1, 175957, Note_off_c, 0, 69, 61
1, 175997, Note_off_c, 0, 57, 64
1, 176036, Note_off_c, 0, 61, 61
1, 176160, Note_on_c, 0, 68, 92
1, 176164, Note_on_c, 0, 56, 97
1, 176186, Control_c, 0, 64, 78
1, 176201, Control_c, 0, 64, 55
1, 176216, Control_c, 0, 64, 50
1, 176230, Note_on_c, 0, 66, 13
1, 176231, Control_c, 0, 64, 62
1, 176246, Control_c, 0, 64, 77
1, 176257, Note_off_c, 0, 64, 61
1, 176260, Control_c, 0, 64, 127
1, 176275, Note_off_c, 0, 66, 50
1, 176426, Note_off_c, 0, 68, 60
1, 176457, Note_off_c, 0, 56, 60
1, 176635, Note_on_c, 0, 66, 89
1, 176641, Note_on_c, 0, 54, 105
1, 176665, Note_on_c, 0, 58, 42
1, 176666, Note_on_c, 0, 59, 45
1, 176725, Note_off_c, 0, 58, 39
1, 176725, Note_off_c, 0, 59, 55
1, 176763, Note_off_c, 0, 54, 65
1, 176847, Note_off_c, 0, 66, 60
1, 176997, Note_on_c, 0, 27, 75
1, 176999, Note_on_c, 0, 39, 86
1, 177028, Note_on_c, 0, 65, 86
1, 177032, Note_on_c, 0, 61, 92
1, 177038, Note_on_c, 0, 55, 91
1, 177070, Control_c, 0, 64, 66
1, 177084, Control_c, 0, 64, 0
1, 177097, Poly_aftertouch_c, 0, 29, 127
1, 177148, Poly_aftertouch_c, 0, 29, 0
1, 177151, Control_c, 0, 64, 64
1, 177166, Control_c, 0, 64, 97
1, 177173, Note_off_c, 0, 27, 63
1, 177181, Control_c, 0, 64, 127
1, 177204, Note_off_c, 0, 39, 60
1, 177285, Note_off_c, 0, 55, 60
1, 177320, Note_off_c, 0, 61, 59
1, 177355, Note_on_c, 0, 55, 72
1, 177357, Note_on_c, 0, 46, 61
1, 177393, Note_off_c, 0, 46, 63
1, 177491, Note_on_c, 0, 61, 90
1, 177525, Note_off_c, 0, 55, 64
1, 177547, Note_off_c, 0, 61, 62
1, 177691, Note_on_c, 0, 67, 93
1, 177695, Note_on_c, 0, 61, 84
1, 177720, Note_off_c, 0, 67, 67
1, 177741, Note_off_c, 0, 61, 62
1, 177947, Note_on_c, 0, 64, 94
1, 177976, Note_off_c, 0, 65, 61
1, 178206, Note_on_c, 0, 45, 87
1, 178214, Note_on_c, 0, 33, 81
1, 178292, Note_on_c, 0, 61, 90
1, 178293, Note_on_c, 0, 55, 86
1, 178293, Note_on_c, 0, 65, 92
1, 178316, Control_c, 0, 64, 63
1, 178331, Control_c, 0, 64, 0
1, 178343, Note_off_c, 0, 64, 62
1, 178375, Control_c, 0, 64, 54
1, 178390, Control_c, 0, 64, 76
1, 178405, Note_off_c, 0, 33, 63
1, 178405, Control_c, 0, 64, 127
1, 178428, Note_off_c, 0, 45, 65
1, 178510, Note_off_c, 0, 55, 61
1, 178518, Note_off_c, 0, 61, 58
1, 178546, Note_on_c, 0, 57, 88
1, 178566, Note_on_c, 0, 47, 51
1, 178569, Note_off_c, 0, 57, 69
1, 178592, Note_off_c, 0, 47, 56
1, 178710, Note_on_c, 0, 61, 80
1, 178772, Note_off_c, 0, 61, 57
1, 178841, Note_on_c, 0, 67, 76
1, 178857, Note_on_c, 0, 61, 74
1, 178885, Note_off_c, 0, 67, 62
1, 178909, Note_off_c, 0, 61, 56
1, 179052, Note_on_c, 0, 64, 91
1, 179133, Note_off_c, 0, 65, 58
1, 179345, Note_on_c, 0, 39, 70
1, 179351, Note_off_c, 0, 64, 62
1, 179351, Note_on_c, 0, 27, 69
1, 179411, Note_on_c, 0, 64, 83
1, 179411, Control_c, 0, 64, 94
1, 179426, Control_c, 0, 64, 61
1, 179431, Note_on_c, 0, 55, 75
1, 179441, Control_c, 0, 64, 0
1, 179449, Note_on_c, 0, 61, 56
1, 179485, Control_c, 0, 64, 55
1, 179500, Control_c, 0, 64, 69
1, 179509, Note_off_c, 0, 27, 63
1, 179515, Control_c, 0, 64, 101
1, 179530, Note_off_c, 0, 61, 60
1, 179530, Control_c, 0, 64, 127
1, 179533, Note_off_c, 0, 39, 64
1, 179608, Note_off_c, 0, 55, 60
1, 179677, Note_on_c, 0, 55, 60
1, 179682, Note_on_c, 0, 46, 53
1, 179730, Note_off_c, 0, 46, 59
1, 179789, Note_on_c, 0, 61, 79
1, 179804, Note_off_c, 0, 55, 63
1, 179842, Note_off_c, 0, 61, 61
1, 179997, Note_on_c, 0, 67, 69
1, 180009, Note_on_c, 0, 61, 56
1, 180025, Note_off_c, 0, 67, 64
1, 180084, Note_off_c, 0, 61, 61
1, 180264, Note_on_c, 0, 63, 80
1, 180350, Note_off_c, 0, 64, 62
1, 180571, Note_on_c, 0, 45, 57
1, 180586, Note_on_c, 0, 33, 54
1, 180636, Control_c, 0, 64, 71
1, 180642, Note_on_c, 0, 65, 72
1, 180651, Note_on_c, 0, 55, 48
1, 180651, Control_c, 0, 64, 19
1, 180651, Note_on_c, 0, 61, 58
1, 180666, Control_c, 0, 64, 0
1, 180710, Control_c, 0, 64, 43
1, 180714, Note_off_c, 0, 33, 63
1, 180725, Control_c, 0, 64, 64
1, 180740, Control_c, 0, 64, 75
1, 180746, Note_off_c, 0, 45, 64
1, 180755, Control_c, 0, 64, 100
1, 180756, Note_off_c, 0, 63, 62
1, 180770, Control_c, 0, 64, 127
1, 180809, Note_off_c, 0, 55, 61
1, 180818, Note_off_c, 0, 61, 59
1, 180900, Note_on_c, 0, 55, 51
1, 180932, Note_off_c, 0, 55, 64
1, 181110, Note_on_c, 0, 61, 62
1, 181179, Note_off_c, 0, 61, 59
1, 181360, Note_on_c, 0, 61, 45
1, 181369, Note_on_c, 0, 67, 47
1, 181415, Note_off_c, 0, 67, 62
1, 181431, Note_off_c, 0, 61, 62
1, 181844, Note_on_c, 0, 64, 61
1, 181956, Note_off_c, 0, 65, 48
1, 182070, Note_off_c, 0, 64, 59
1, 182656, Note_on_c, 0, 64, 59
1, 182687, Note_on_c, 0, 55, 44
1, 182692, Note_on_c, 0, 61, 41
1, 182693, Note_on_c, 0, 27, 31
1, 182693, Note_on_c, 0, 39, 30
1, 182703, Control_c, 0, 64, 78
1, 182718, Control_c, 0, 64, 59
1, 182733, Control_c, 0, 64, 12
1, 182748, Control_c, 0, 64, 0
1, 182777, Control_c, 0, 64, 49
1, 182792, Control_c, 0, 64, 64
1, 182807, Control_c, 0, 64, 75
1, 182822, Control_c, 0, 64, 107
1, 182836, Control_c, 0, 64, 127
1, 182878, Note_off_c, 0, 27, 48
1, 182919, Note_off_c, 0, 39, 40
1, 182934, Note_off_c, 0, 55, 58
1, 182964, Note_off_c, 0, 61, 33
1, 183248, Note_on_c, 0, 55, 39
1, 183301, Note_off_c, 0, 55, 56
1, 183539, Note_on_c, 0, 55, 40
1, 183547, Note_on_c, 0, 61, 34
1, 183602, Note_off_c, 0, 55, 62
1, 183614, Note_off_c, 0, 61, 52
1, 184168, Note_on_c, 0, 67, 37
1, 184194, Note_on_c, 0, 61, 34
1, 184900, Note_off_c, 0, 67, 40
1, 185914, Note_on_c, 0, 63, 33
1, 185995, Control_c, 0, 64, 119
1, 186010, Control_c, 0, 64, 110
1, 186025, Control_c, 0, 64, 103
1, 186040, Control_c, 0, 64, 99
1, 186054, Control_c, 0, 64, 97
1, 186065, Note_off_c, 0, 64, 34
1, 186069, Control_c, 0, 64, 96
1, 186084, Control_c, 0, 64, 95
1, 186099, Control_c, 0, 64, 93
1, 186114, Control_c, 0, 64, 91
1, 186135, Control_c, 0, 64, 89
1, 186150, Control_c, 0, 64, 87
1, 186165, Control_c, 0, 64, 86
1, 186181, Control_c, 0, 64, 85
1, 186196, Control_c, 0, 64, 85
1, 186211, Control_c, 0, 64, 84
1, 186240, Control_c, 0, 64, 84
1, 186255, Control_c, 0, 64, 83
1, 186285, Control_c, 0, 64, 83
1, 186299, Control_c, 0, 64, 82
1, 186329, Control_c, 0, 64, 82
1, 186344, Control_c, 0, 64, 81
1, 186374, Control_c, 0, 64, 81
1, 186927, Note_off_c, 0, 61, 32
1, 187005, Note_off_c, 0, 63, 41
1, 187019, Control_c, 0, 64, 80
1, 187048, Control_c, 0, 64, 80
1, 187093, Control_c, 0, 64, 79
1, 187167, Control_c, 0, 64, 79
1, 187197, Control_c, 0, 64, 78
1, 187256, Control_c, 0, 64, 78
1, 187300, Control_c, 0, 64, 77
1, 187330, Control_c, 0, 64, 77
1, 187374, Control_c, 0, 64, 76
1, 187434, Control_c, 0, 64, 76
1, 187448, Control_c, 0, 64, 75
1, 187463, Control_c, 0, 64, 75
1, 187478, Control_c, 0, 64, 74
1, 187492, Control_c, 0, 64, 73
1, 187507, Control_c, 0, 64, 72
1, 187522, Control_c, 0, 64, 71
1, 187537, Control_c, 0, 64, 70
1, 187552, Control_c, 0, 64, 69
1, 187566, Control_c, 0, 64, 69
1, 187581, Control_c, 0, 64, 68
1, 187596, Control_c, 0, 64, 68
1, 187611, Control_c, 0, 64, 67
1, 187633, Control_c, 0, 64, 66
1, 187648, Control_c, 0, 64, 65
1, 187663, Control_c, 0, 64, 64
1, 187678, Control_c, 0, 64, 63
1, 187693, Control_c, 0, 64, 61
1, 187707, Control_c, 0, 64, 60
1, 187737, Control_c, 0, 64, 59
1, 187767, Control_c, 0, 64, 59
1, 187783, Control_c, 0, 64, 58
1, 187812, Control_c, 0, 64, 58
1, 187842, Control_c, 0, 64, 57
1, 187857, Control_c, 0, 64, 57
1, 187871, Control_c, 0, 64, 56
1, 187886, Control_c, 0, 64, 56
1, 187901, Control_c, 0, 64, 55
1, 187916, Control_c, 0, 64, 55
1, 187930, Control_c, 0, 64, 54
1, 187975, Control_c, 0, 64, 54
1, 188049, Control_c, 0, 64, 54
1, 188064, Control_c, 0, 64, 55
1, 188079, Control_c, 0, 64, 55
1, 188094, Control_c, 0, 64, 56
1, 188109, Control_c, 0, 64, 57
1, 188123, Control_c, 0, 64, 57
1, 188138, Control_c, 0, 64, 58
1, 188153, Control_c, 0, 64, 60
1, 188168, Control_c, 0, 64, 61
1, 188183, Control_c, 0, 64, 63
1, 188197, Control_c, 0, 64, 64
1, 188212, Control_c, 0, 64, 64
1, 188228, Control_c, 0, 64, 65
1, 188242, Control_c, 0, 64, 66
1, 188257, Control_c, 0, 64, 68
1, 188272, Control_c, 0, 64, 71
1, 188287, Control_c, 0, 64, 75
1, 188302, Control_c, 0, 64, 80
1, 188316, Control_c, 0, 64, 85
1, 188331, Control_c, 0, 64, 90
1, 188346, Control_c, 0, 64, 93
1, 188361, Control_c, 0, 64, 94
1, 188383, Control_c, 0, 64, 95
1, 188398, Control_c, 0, 64, 96
1, 188413, Control_c, 0, 64, 99
1, 188428, Control_c, 0, 64, 108
1, 188443, Control_c, 0, 64, 127
1, 189281, Note_on_c, 0, 58, 28
1, 189293, Note_on_c, 0, 55, 21
1, 189954, Control_c, 0, 64, 99
1, 189955, Note_on_c, 0, 59, 35
1, 189969, Control_c, 0, 64, 81
1, 189975, Note_on_c, 0, 56, 29
1, 189984, Control_c, 0, 64, 71
1, 189999, Control_c, 0, 64, 66
1, 190014, Control_c, 0, 64, 65
1, 190022, Note_off_c, 0, 58, 35
1, 190029, Control_c, 0, 64, 67
1, 190042, Note_off_c, 0, 55, 37
1, 190043, Control_c, 0, 64, 70
1, 190058, Control_c, 0, 64, 74
1, 190073, Control_c, 0, 64, 79
1, 190088, Control_c, 0, 64, 85
1, 190102, Control_c, 0, 64, 92
1, 190117, Control_c, 0, 64, 107
1, 190132, Control_c, 0, 64, 127
1, 190271, Note_off_c, 0, 59, 34
1, 190377, Note_off_c, 0, 56, 35
1, 190495, Note_on_c, 0, 63, 38
1, 190503, Control_c, 0, 64, 107
1, 190517, Control_c, 0, 64, 95
1, 190520, Note_on_c, 0, 59, 32
1, 190532, Control_c, 0, 64, 87
1, 190547, Control_c, 0, 64, 80
1, 190562, Control_c, 0, 64, 74
1, 190577, Control_c, 0, 64, 70
1, 190592, Control_c, 0, 64, 66
1, 190607, Control_c, 0, 64, 64
1, 190629, Control_c, 0, 64, 63
1, 190644, Control_c, 0, 64, 62
1, 190659, Control_c, 0, 64, 61
1, 190673, Control_c, 0, 64, 60
1, 190688, Control_c, 0, 64, 59
1, 190703, Control_c, 0, 64, 58
1, 190717, Control_c, 0, 64, 57
1, 190732, Control_c, 0, 64, 55
1, 190747, Control_c, 0, 64, 53
1, 190762, Control_c, 0, 64, 51
1, 190777, Control_c, 0, 64, 50
1, 190792, Control_c, 0, 64, 49
1, 190807, Control_c, 0, 64, 48
1, 190821, Control_c, 0, 64, 47
1, 190836, Control_c, 0, 64, 46
1, 190851, Control_c, 0, 64, 45
1, 190866, Control_c, 0, 64, 44
1, 191015, Control_c, 0, 64, 45
1, 191030, Control_c, 0, 64, 46
1, 191045, Control_c, 0, 64, 47
1, 191060, Control_c, 0, 64, 47
1, 191075, Control_c, 0, 64, 48
1, 191104, Control_c, 0, 64, 48
1, 191119, Control_c, 0, 64, 49
1, 191134, Control_c, 0, 64, 49
1, 191148, Control_c, 0, 64, 50
1, 191163, Control_c, 0, 64, 50
1, 191178, Control_c, 0, 64, 51
1, 191193, Control_c, 0, 64, 51
1, 191237, Control_c, 0, 64, 52
1, 191267, Control_c, 0, 64, 52
1, 191296, Control_c, 0, 64, 53
1, 191340, Control_c, 0, 64, 53
1, 191496, Control_c, 0, 64, 54
1, 191843, Note_on_c, 0, 61, 19
1, 191851, Note_on_c, 0, 58, 25
1, 191969, Note_off_c, 0, 59, 42
1, 191970, Note_off_c, 0, 63, 35
1, 192141, Control_c, 0, 64, 53
1, 192170, Control_c, 0, 64, 53
1, 192363, Control_c, 0, 64, 53
1, 192377, Control_c, 0, 64, 54
1, 192392, Control_c, 0, 64, 54
1, 192407, Control_c, 0, 64, 55
1, 192422, Control_c, 0, 64, 56
1, 192437, Control_c, 0, 64, 57
1, 192452, Control_c, 0, 64, 58
1, 192467, Control_c, 0, 64, 59
1, 192482, Control_c, 0, 64, 60
1, 192496, Control_c, 0, 64, 60
1, 192511, Control_c, 0, 64, 61
1, 192526, Control_c, 0, 64, 62
1, 192541, Control_c, 0, 64, 62
1, 192556, Control_c, 0, 64, 63
1, 192571, Control_c, 0, 64, 63
1, 192586, Control_c, 0, 64, 64
1, 192646, Control_c, 0, 64, 64
1, 192764, Control_c, 0, 64, 64
1, 192808, Control_c, 0, 64, 63
1, 192875, Control_c, 0, 64, 63
1, 192884, Note_off_c, 0, 61, 46
1, 192890, Control_c, 0, 64, 62
1, 192901, Note_off_c, 0, 58, 48
1, 192905, Control_c, 0, 64, 61
1, 192919, Control_c, 0, 64, 61
1, 192934, Control_c, 0, 64, 60
1, 192964, Control_c, 0, 64, 60
1, 192993, Control_c, 0, 64, 59
1, 193483, Control_c, 0, 64, 60
1, 193624, Control_c, 0, 64, 60
1, 193924, Note_on_c, 0, 59, 25
1, 193929, Note_on_c, 0, 63, 15
1, 194172, Control_c, 0, 64, 61
1, 194496, Note_on_c, 0, 64, 38
1, 194503, Note_on_c, 0, 61, 44
1, 194560, Note_off_c, 0, 63, 57
1, 194585, Note_off_c, 0, 59, 51
1, 194683, Control_c, 0, 64, 61
1, 194861, Control_c, 0, 64, 61
1, 194876, Control_c, 0, 64, 59
1, 194887, Note_on_c, 0, 66, 47
1, 194890, Note_off_c, 0, 61, 54
1, 194890, Control_c, 0, 64, 56
1, 194896, Note_on_c, 0, 63, 40
1, 194905, Control_c, 0, 64, 53
1, 194920, Control_c, 0, 64, 51
1, 194935, Control_c, 0, 64, 51
1, 194940, Note_off_c, 0, 64, 59
1, 194950, Control_c, 0, 64, 52
1, 194966, Control_c, 0, 64, 56
1, 194980, Control_c, 0, 64, 61
1, 194995, Control_c, 0, 64, 66
1, 195010, Control_c, 0, 64, 71
1, 195025, Control_c, 0, 64, 81
1, 195040, Control_c, 0, 64, 95
1, 195054, Control_c, 0, 64, 127
1, 195152, Note_off_c, 0, 66, 60
1, 195420, Note_on_c, 0, 66, 37
1, 195430, Note_on_c, 0, 70, 41
1, 195448, Control_c, 0, 64, 113
1, 195462, Control_c, 0, 64, 82
1, 195477, Control_c, 0, 64, 67
1, 195492, Control_c, 0, 64, 57
1, 195503, Note_off_c, 0, 63, 39
1, 195506, Control_c, 0, 64, 50
1, 195521, Control_c, 0, 64, 48
1, 195595, Control_c, 0, 64, 49
1, 195610, Control_c, 0, 64, 52
1, 195625, Control_c, 0, 64, 55
1, 195640, Control_c, 0, 64, 56
1, 195654, Control_c, 0, 64, 57
1, 195669, Control_c, 0, 64, 59
1, 195684, Control_c, 0, 64, 61
1, 195699, Control_c, 0, 64, 63
1, 195714, Control_c, 0, 64, 65
1, 195729, Control_c, 0, 64, 67
1, 195744, Control_c, 0, 64, 69
1, 195760, Control_c, 0, 64, 70
1, 195775, Control_c, 0, 64, 72
1, 195790, Control_c, 0, 64, 73
1, 195804, Control_c, 0, 64, 76
1, 195819, Control_c, 0, 64, 78
1, 195834, Control_c, 0, 64, 80
1, 195849, Control_c, 0, 64, 82
1, 195871, Control_c, 0, 64, 84
1, 195886, Control_c, 0, 64, 86
1, 195901, Control_c, 0, 64, 91
1, 195916, Control_c, 0, 64, 96
1, 195931, Control_c, 0, 64, 102
1, 195946, Control_c, 0, 64, 108
1, 195960, Control_c, 0, 64, 114
1, 195975, Control_c, 0, 64, 121
1, 195990, Control_c, 0, 64, 127
1, 196045, Note_off_c, 0, 66, 32
1, 196231, Note_off_c, 0, 70, 33
1, 197051, Note_on_c, 0, 68, 28
1, 197052, Note_on_c, 0, 64, 23
1, 197093, Control_c, 0, 64, 119
1, 197108, Control_c, 0, 64, 105
1, 197123, Control_c, 0, 64, 96
1, 197138, Control_c, 0, 64, 88
1, 197152, Control_c, 0, 64, 82
1, 197167, Control_c, 0, 64, 77
1, 197182, Control_c, 0, 64, 74
1, 197197, Control_c, 0, 64, 71
1, 197212, Control_c, 0, 64, 69
1, 197226, Control_c, 0, 64, 67
1, 197241, Control_c, 0, 64, 65
1, 197256, Control_c, 0, 64, 64
1, 197271, Control_c, 0, 64, 62
1, 197286, Control_c, 0, 64, 61
1, 197300, Control_c, 0, 64, 61
1, 197315, Control_c, 0, 64, 60
1, 197330, Control_c, 0, 64, 59
1, 197353, Control_c, 0, 64, 58
1, 197368, Control_c, 0, 64, 56
1, 197382, Control_c, 0, 64, 54
1, 197397, Control_c, 0, 64, 53
1, 197412, Control_c, 0, 64, 52
1, 197427, Control_c, 0, 64, 51
1, 197442, Control_c, 0, 64, 50
1, 197457, Control_c, 0, 64, 49
1, 197472, Control_c, 0, 64, 48
1, 197487, Control_c, 0, 64, 48
1, 197502, Control_c, 0, 64, 47
1, 197635, Control_c, 0, 64, 48
1, 197664, Control_c, 0, 64, 48
1, 197679, Control_c, 0, 64, 49
1, 197709, Control_c, 0, 64, 49
1, 197724, Control_c, 0, 64, 50
1, 197753, Control_c, 0, 64, 50
1, 197768, Control_c, 0, 64, 51
1, 197812, Control_c, 0, 64, 51
1, 197871, Control_c, 0, 64, 52
1, 198112, Note_off_c, 0, 68, 39
1, 198168, Note_off_c, 0, 64, 43
1, 198205, Control_c, 0, 64, 52
1, 198473, Control_c, 0, 64, 53
1, 198517, Control_c, 0, 64, 53
1, 198547, Control_c, 0, 64, 54
1, 198576, Control_c, 0, 64, 54
1, 198605, Control_c, 0, 64, 55
1, 198650, Control_c, 0, 64, 55
1, 198709, Control_c, 0, 64, 56
1, 198879, Control_c, 0, 64, 56
1, 199585, Note_on_c, 0, 70, 28
1, 199627, Note_on_c, 0, 66, 24
1, 199659, Control_c, 0, 64, 57
1, 199674, Control_c, 0, 64, 57
1, 199689, Control_c, 0, 64, 58
1, 199703, Control_c, 0, 64, 59
1, 199718, Control_c, 0, 64, 61
1, 199733, Control_c, 0, 64, 62
1, 199748, Control_c, 0, 64, 63
1, 199764, Control_c, 0, 64, 64
1, 199779, Control_c, 0, 64, 64
1, 199794, Control_c, 0, 64, 65
1, 199808, Control_c, 0, 64, 67
1, 199823, Control_c, 0, 64, 69
1, 199838, Control_c, 0, 64, 71
1, 199852, Control_c, 0, 64, 73
1, 199867, Control_c, 0, 64, 77
1, 199882, Control_c, 0, 64, 80
1, 199897, Control_c, 0, 64, 83
1, 199912, Control_c, 0, 64, 86
1, 199926, Control_c, 0, 64, 89
1, 199941, Control_c, 0, 64, 92
1, 199956, Control_c, 0, 64, 95
1, 199971, Control_c, 0, 64, 97
1, 199985, Control_c, 0, 64, 97
1, 200000, Control_c, 0, 64, 98
1, 200119, Control_c, 0, 64, 97
1, 200164, Control_c, 0, 64, 97
1, 200176, Note_off_c, 0, 66, 40
1, 200189, Note_on_c, 0, 71, 39
1, 200190, Note_off_c, 0, 70, 37
1, 200193, Control_c, 0, 64, 96
1, 200207, Control_c, 0, 64, 96
1, 200208, Note_on_c, 0, 68, 34
1, 200222, Control_c, 0, 64, 95
1, 200237, Control_c, 0, 64, 94
1, 200251, Control_c, 0, 64, 93
1, 200266, Control_c, 0, 64, 92
1, 200281, Control_c, 0, 64, 92
1, 200296, Control_c, 0, 64, 91
1, 200325, Control_c, 0, 64, 90
1, 200363, Control_c, 0, 64, 89
1, 200386, Note_off_c, 0, 71, 60
1, 200392, Control_c, 0, 64, 88
1, 200407, Control_c, 0, 64, 87
1, 200422, Control_c, 0, 64, 87
1, 200437, Control_c, 0, 64, 86
1, 200452, Control_c, 0, 64, 86
1, 200466, Control_c, 0, 64, 85
1, 200481, Control_c, 0, 64, 85
1, 200511, Control_c, 0, 64, 84
1, 200540, Control_c, 0, 64, 84
1, 200649, Note_on_c, 0, 75, 43
1, 200660, Control_c, 0, 64, 82
1, 200674, Control_c, 0, 64, 76
1, 200675, Note_on_c, 0, 71, 37
1, 200689, Control_c, 0, 64, 69
1, 200704, Control_c, 0, 64, 64
1, 200719, Control_c, 0, 64, 62
1, 200734, Control_c, 0, 64, 61
1, 200822, Control_c, 0, 64, 60
1, 200837, Note_off_c, 0, 68, 35
1, 200897, Control_c, 0, 64, 60
1, 201000, Control_c, 0, 64, 59
1, 201015, Note_on_c, 0, 73, 47
1, 201022, Note_on_c, 0, 70, 40
1, 201052, Note_off_c, 0, 75, 57
1, 201112, Control_c, 0, 64, 59
1, 201113, Note_off_c, 0, 71, 51
1, 201200, Control_c, 0, 64, 58
1, 201230, Control_c, 0, 64, 58
1, 201420, Note_on_c, 0, 75, 42
1, 201445, Note_on_c, 0, 71, 30
1, 201474, Note_off_c, 0, 73, 59
1, 201505, Note_off_c, 0, 70, 59
1, 201888, Note_off_c, 0, 75, 56
1, 201916, Note_on_c, 0, 76, 45
1, 201934, Note_on_c, 0, 73, 34
1, 202023, Note_off_c, 0, 71, 58
1, 202202, Control_c, 0, 64, 58
1, 202800, Note_on_c, 0, 80, 42
1, 202805, Note_on_c, 0, 71, 30
1, 202920, Control_c, 0, 64, 59
1, 202939, Note_off_c, 0, 76, 35
1, 202941, Note_off_c, 0, 73, 52
1, 202966, Control_c, 0, 64, 59
1, 202981, Control_c, 0, 64, 60
1, 203010, Control_c, 0, 64, 60
1, 203040, Control_c, 0, 64, 61
1, 203055, Control_c, 0, 64, 62
1, 203069, Control_c, 0, 64, 63
1, 203084, Control_c, 0, 64, 63
1, 203099, Control_c, 0, 64, 64
1, 203114, Control_c, 0, 64, 65
1, 203129, Control_c, 0, 64, 66
1, 203144, Control_c, 0, 64, 67
1, 203158, Control_c, 0, 64, 69
1, 203173, Control_c, 0, 64, 70
1, 203188, Control_c, 0, 64, 71
1, 203201, Control_c, 0, 64, 73
1, 203216, Control_c, 0, 64, 75
1, 203231, Control_c, 0, 64, 76
1, 203246, Control_c, 0, 64, 79
1, 203261, Control_c, 0, 64, 81
1, 203276, Control_c, 0, 64, 82
1, 203291, Control_c, 0, 64, 84
1, 203305, Control_c, 0, 64, 86
1, 203320, Control_c, 0, 64, 89
1, 203335, Control_c, 0, 64, 92
1, 203357, Control_c, 0, 64, 95
1, 203372, Control_c, 0, 64, 99
1, 203387, Control_c, 0, 64, 102
1, 203401, Control_c, 0, 64, 107
1, 203416, Control_c, 0, 64, 114
1, 203431, Control_c, 0, 64, 127
1, 203997, Note_off_c, 0, 80, 53
1, 204003, Note_off_c, 0, 71, 39
1, 205059, Note_on_c, 0, 78, 35
1, 205077, Note_on_c, 0, 70, 7
1, 205535, Note_off_c, 0, 78, 35
1, 205550, Note_off_c, 0, 70, 34
1, 206288, Note_on_c, 0, 78, 25
1, 206310, Poly_aftertouch_c, 0, 70, 127
1, 206325, Note_on_c, 0, 39, 18
1, 206331, Note_on_c, 0, 27, 25
1, 206412, Control_c, 0, 64, 106
1, 206426, Control_c, 0, 64, 75
1, 206441, Control_c, 0, 64, 62
1, 206456, Control_c, 0, 64, 53
1, 206486, Control_c, 0, 64, 57
1, 206501, Control_c, 0, 64, 63
1, 206516, Control_c, 0, 64, 69
1, 206531, Control_c, 0, 64, 77
1, 206546, Control_c, 0, 64, 90
1, 206561, Control_c, 0, 64, 114
1, 206575, Control_c, 0, 64, 127
1, 206665, Note_off_c, 0, 27, 41
1, 206753, Note_off_c, 0, 39, 41
1, 207273, Note_on_c, 0, 46, 26
1, 207694, Note_off_c, 0, 46, 33
1, 207768, Note_on_c, 0, 54, 34
1, 207984, Poly_aftertouch_c, 0, 70, 0
1, 208111, Note_off_c, 0, 78, 40
1, 208130, Note_on_c, 0, 63, 36
1, 208710, Note_on_c, 0, 78, 61
1, 208740, Note_on_c, 0, 70, 38
1, 208940, Note_off_c, 0, 63, 37
1, 209008, Note_off_c, 0, 54, 42
1, 209211, Note_on_c, 0, 63, 30
1, 209482, Note_off_c, 0, 63, 37
1, 209589, Note_on_c, 0, 54, 42
1, 209841, Note_off_c, 0, 54, 33
1, 209895, Note_on_c, 0, 46, 43
1, 209995, Note_off_c, 0, 46, 63
1, 210386, Note_on_c, 0, 27, 38
1, 210397, Note_on_c, 0, 39, 41
1, 210423, Control_c, 0, 64, 85
1, 210438, Control_c, 0, 64, 60
1, 210453, Control_c, 0, 64, 0
1, 210527, Control_c, 0, 64, 55
1, 210541, Control_c, 0, 64, 64
1, 210556, Control_c, 0, 64, 71
1, 210557, Note_off_c, 0, 27, 61
1, 210571, Control_c, 0, 64, 81
1, 210586, Control_c, 0, 64, 99
1, 210601, Control_c, 0, 64, 127
1, 210606, Note_off_c, 0, 39, 50
1, 210895, Note_on_c, 0, 47, 42
1, 210980, Note_off_c, 0, 70, 64
1, 211050, Note_off_c, 0, 78, 52
1, 211212, Note_on_c, 0, 56, 40
1, 211384, Note_on_c, 0, 77, 70
1, 211407, Note_on_c, 0, 68, 56
1, 211445, Note_off_c, 0, 47, 35
1, 211479, Note_off_c, 0, 68, 56
1, 211733, Note_on_c, 0, 78, 72
1, 211752, Note_on_c, 0, 70, 62
1, 211768, Note_off_c, 0, 77, 56
1, 211802, Note_on_c, 0, 62, 40
1, 211838, Note_off_c, 0, 70, 56
1, 211881, Note_off_c, 0, 78, 60
1, 211938, Note_on_c, 0, 77, 70
1, 211968, Note_on_c, 0, 68, 45
1, 211972, Note_off_c, 0, 56, 44
1, 211992, Note_off_c, 0, 68, 56
1, 212010, Note_off_c, 0, 62, 63
1, 212065, Note_on_c, 0, 75, 67
1, 212070, Note_off_c, 0, 77, 55
1, 212077, Note_on_c, 0, 66, 59
1, 212106, Note_off_c, 0, 66, 64
1, 212177, Note_off_c, 0, 75, 59
1, 212186, Note_on_c, 0, 77, 74
1, 212203, Note_on_c, 0, 68, 53
1, 212228, Note_off_c, 0, 68, 54
1, 212380, Note_on_c, 0, 68, 41
1, 212476, Note_on_c, 0, 78, 69
1, 212476, Control_c, 0, 64, 109
1, 212491, Note_on_c, 0, 70, 46
1, 212491, Control_c, 0, 64, 77
1, 212506, Control_c, 0, 64, 63
1, 212513, Note_off_c, 0, 77, 60
1, 212520, Control_c, 0, 64, 57
1, 212536, Control_c, 0, 64, 59
1, 212551, Control_c, 0, 64, 64
1, 212566, Control_c, 0, 64, 74
1, 212581, Control_c, 0, 64, 110
1, 212596, Control_c, 0, 64, 127
1, 212676, Note_off_c, 0, 68, 60
1, 212934, Note_on_c, 0, 62, 37
1, 213204, Note_off_c, 0, 62, 35
1, 213205, Note_off_c, 0, 70, 63
1, 213213, Note_off_c, 0, 78, 62
1, 213220, Note_on_c, 0, 56, 39
1, 213320, Note_off_c, 0, 56, 38
1, 213539, Note_on_c, 0, 47, 18
1, 213593, Note_off_c, 0, 47, 54
1, 213613, Note_on_c, 0, 77, 54
1, 213637, Note_on_c, 0, 68, 51
1, 214058, Note_on_c, 0, 27, 39
1, 214074, Note_on_c, 0, 39, 37
1, 214105, Control_c, 0, 64, 108
1, 214120, Control_c, 0, 64, 71
1, 214136, Control_c, 0, 64, 47
1, 214151, Control_c, 0, 64, 0
1, 214166, Control_c, 0, 64, 15
1, 214180, Control_c, 0, 64, 44
1, 214195, Control_c, 0, 64, 61
1, 214210, Control_c, 0, 64, 69
1, 214225, Control_c, 0, 64, 86
1, 214240, Control_c, 0, 64, 127
1, 214257, Note_off_c, 0, 27, 39
1, 214313, Note_off_c, 0, 39, 40
1, 214380, Note_off_c, 0, 68, 58
1, 214680, Note_on_c, 0, 46, 28
1, 214746, Note_on_c, 0, 74, 52
1, 214788, Note_on_c, 0, 65, 44
1, 214926, Note_off_c, 0, 46, 39
1, 215085, Note_on_c, 0, 54, 39
1, 215106, Note_off_c, 0, 65, 60
1, 215128, Note_off_c, 0, 74, 61
1, 215298, Note_off_c, 0, 54, 42
1, 215330, Note_off_c, 0, 77, 30
1, 215345, Note_on_c, 0, 63, 41
1, 215421, Note_off_c, 0, 63, 62
1, 215436, Note_on_c, 0, 75, 60
1, 215453, Note_on_c, 0, 66, 37
1, 215485, Note_off_c, 0, 66, 52
1, 215596, Note_off_c, 0, 75, 59
1, 215597, Note_on_c, 0, 77, 64
1, 215611, Note_on_c, 0, 68, 42
1, 215647, Note_off_c, 0, 68, 51
1, 215790, Note_on_c, 0, 70, 44
1, 215870, Note_off_c, 0, 70, 60
1, 215873, Note_on_c, 0, 66, 40
1, 215876, Note_on_c, 0, 75, 61
1, 215955, Note_off_c, 0, 77, 57
1, 216308, Control_c, 0, 64, 86
1, 216311, Note_on_c, 0, 63, 39
1, 216323, Control_c, 0, 64, 71
1, 216338, Control_c, 0, 64, 67
1, 216353, Control_c, 0, 64, 71
1, 216368, Control_c, 0, 64, 81
1, 216383, Control_c, 0, 64, 127
1, 216547, Note_off_c, 0, 63, 58
1, 216634, Note_on_c, 0, 54, 43
1, 216836, Note_off_c, 0, 54, 39
1, 216948, Note_on_c, 0, 46, 45
1, 216997, Note_off_c, 0, 46, 62
1, 217089, Note_off_c, 0, 66, 60
1, 217357, Note_on_c, 0, 27, 48
1, 217372, Note_on_c, 0, 39, 43
1, 217384, Control_c, 0, 64, 86
1, 217399, Control_c, 0, 64, 57
1, 217414, Control_c, 0, 64, 0
1, 217487, Control_c, 0, 64, 50
1, 217502, Control_c, 0, 64, 62
1, 217510, Note_off_c, 0, 27, 62
1, 217516, Control_c, 0, 64, 67
1, 217530, Note_off_c, 0, 39, 62
1, 217531, Control_c, 0, 64, 73
1, 217546, Control_c, 0, 64, 84
1, 217561, Control_c, 0, 64, 110
1, 217584, Control_c, 0, 64, 127
1, 217850, Note_on_c, 0, 70, 61
1, 217867, Note_on_c, 0, 46, 40
1, 217888, Note_on_c, 0, 61, 44
1, 218076, Note_off_c, 0, 61, 54
1, 218129, Note_off_c, 0, 75, 58
1, 218160, Note_on_c, 0, 55, 51
1, 218298, Note_off_c, 0, 46, 35
1, 218430, Note_on_c, 0, 61, 42
1, 218454, Note_on_c, 0, 71, 66
1, 218493, Note_off_c, 0, 55, 60
1, 218497, Note_on_c, 0, 63, 53
1, 218499, Note_off_c, 0, 70, 64
1, 218539, Note_off_c, 0, 61, 61
1, 218612, Note_off_c, 0, 63, 38
1, 218851, Note_on_c, 0, 67, 34
1, 218911, Control_c, 0, 64, 101
1, 218913, Note_on_c, 0, 73, 62
1, 218926, Control_c, 0, 64, 75
1, 218941, Control_c, 0, 64, 63
1, 218956, Control_c, 0, 64, 58
1, 218961, Note_on_c, 0, 64, 33
1, 218970, Control_c, 0, 64, 59
1, 218985, Control_c, 0, 64, 63
1, 219000, Control_c, 0, 64, 70
1, 219015, Control_c, 0, 64, 85
1, 219029, Note_off_c, 0, 71, 63
1, 219030, Control_c, 0, 64, 127
1, 219074, Note_off_c, 0, 67, 62
1, 219309, Note_on_c, 0, 61, 38
1, 219571, Note_off_c, 0, 61, 33
1, 219594, Note_on_c, 0, 55, 39
1, 219692, Note_off_c, 0, 55, 59
1, 219933, Note_on_c, 0, 46, 30
1, 219977, Note_off_c, 0, 46, 61
1, 220001, Note_off_c, 0, 64, 35
1, 220382, Note_on_c, 0, 32, 28
1, 220438, Control_c, 0, 64, 102
1, 220453, Control_c, 0, 64, 78
1, 220467, Control_c, 0, 64, 62
1, 220482, Control_c, 0, 64, 19
1, 220497, Control_c, 0, 64, 0
1, 220528, Control_c, 0, 64, 20
1, 220542, Control_c, 0, 64, 50
1, 220557, Control_c, 0, 64, 62
1, 220580, Control_c, 0, 64, 69
1, 220595, Control_c, 0, 64, 76
1, 220610, Control_c, 0, 64, 85
1, 220624, Control_c, 0, 64, 96
1, 220639, Control_c, 0, 64, 113
1, 220654, Control_c, 0, 64, 127
1, 220720, Note_on_c, 0, 44, 32
1, 220735, Note_off_c, 0, 32, 43
1, 220819, Note_off_c, 0, 44, 49
1, 220859, Note_on_c, 0, 75, 57
1, 220878, Note_on_c, 0, 66, 24
1, 220893, Note_off_c, 0, 73, 61
1, 220938, Note_off_c, 0, 66, 43
1, 221049, Note_off_c, 0, 75, 55
1, 221052, Note_on_c, 0, 73, 63
1, 221080, Note_on_c, 0, 64, 51
1, 221110, Note_off_c, 0, 64, 62
1, 221236, Note_on_c, 0, 51, 43
1, 221366, Note_on_c, 0, 71, 54
1, 221387, Control_c, 0, 64, 104
1, 221397, Note_on_c, 0, 63, 48
1, 221402, Control_c, 0, 64, 79
1, 221417, Control_c, 0, 64, 64
1, 221425, Note_off_c, 0, 73, 38
1, 221432, Control_c, 0, 64, 54
1, 221446, Control_c, 0, 64, 52
1, 221461, Control_c, 0, 64, 55
1, 221476, Control_c, 0, 64, 61
1, 221491, Control_c, 0, 64, 66
1, 221506, Control_c, 0, 64, 72
1, 221520, Control_c, 0, 64, 79
1, 221535, Control_c, 0, 64, 85
1, 221550, Control_c, 0, 64, 91
1, 221564, Control_c, 0, 64, 97
1, 221579, Control_c, 0, 64, 104
1, 221594, Control_c, 0, 64, 118
1, 221609, Control_c, 0, 64, 127
1, 221676, Note_off_c, 0, 63, 56
1, 221751, Note_on_c, 0, 59, 38
1, 221816, Note_off_c, 0, 51, 53
1, 222072, Note_on_c, 0, 68, 40
1, 222148, Note_off_c, 0, 59, 40
1, 222187, Note_off_c, 0, 68, 38
1, 222240, Note_off_c, 0, 71, 64
1, 222358, Note_on_c, 0, 59, 37
1, 222408, Note_off_c, 0, 59, 62
1, 222678, Note_on_c, 0, 70, 62
1, 222687, Note_on_c, 0, 51, 44
1, 222699, Note_on_c, 0, 61, 44
1, 222959, Note_on_c, 0, 44, 48
1, 223003, Note_off_c, 0, 51, 38
1, 223024, Note_off_c, 0, 44, 62
1, 223387, Note_on_c, 0, 34, 48
1, 223404, Control_c, 0, 64, 113
1, 223418, Control_c, 0, 64, 74
1, 223433, Control_c, 0, 64, 51
1, 223448, Control_c, 0, 64, 0
1, 223507, Control_c, 0, 64, 43
1, 223522, Control_c, 0, 64, 61
1, 223537, Control_c, 0, 64, 67
1, 223552, Control_c, 0, 64, 75
1, 223574, Control_c, 0, 64, 83
1, 223589, Control_c, 0, 64, 92
1, 223604, Control_c, 0, 64, 107
1, 223618, Control_c, 0, 64, 127
1, 223704, Note_on_c, 0, 46, 42
1, 223752, Note_off_c, 0, 34, 41
1, 223766, Note_off_c, 0, 46, 61
1, 224069, Note_on_c, 0, 56, 46
1, 224080, Note_off_c, 0, 61, 38
1, 224178, Note_on_c, 0, 68, 55
1, 224191, Note_on_c, 0, 59, 38
1, 224323, Note_off_c, 0, 59, 62
1, 224347, Note_off_c, 0, 70, 38
1, 224366, Note_off_c, 0, 68, 54
1, 224530, Note_on_c, 0, 62, 37
1, 224836, Note_on_c, 0, 70, 33
1, 224910, Note_off_c, 0, 62, 39
1, 224980, Note_off_c, 0, 70, 36
1, 225137, Note_off_c, 0, 56, 35
1, 225210, Note_on_c, 0, 62, 23
1, 225248, Note_off_c, 0, 62, 47
1, 225600, Note_on_c, 0, 56, 31
1, 225681, Note_on_c, 0, 66, 50
1, 225706, Note_on_c, 0, 58, 36
1, 225865, Note_off_c, 0, 56, 42
1, 226094, Note_on_c, 0, 46, 34
1, 226174, Note_off_c, 0, 46, 56
1, 226393, Note_on_c, 0, 63, 43
1, 226542, Note_off_c, 0, 63, 57
1, 226590, Note_off_c, 0, 58, 38
1, 226845, Note_on_c, 0, 27, 29
1, 226880, Note_on_c, 0, 39, 26
1, 226953, Note_on_c, 0, 58, 31
1, 226960, Note_on_c, 0, 63, 40
1, 226967, Note_on_c, 0, 61, 34
1, 226990, Note_on_c, 0, 55, 29
1, 226999, Control_c, 0, 64, 89
1, 227014, Control_c, 0, 64, 70
1, 227029, Control_c, 0, 64, 53
1, 227044, Control_c, 0, 64, 0
1, 227103, Control_c, 0, 64, 34
1, 227118, Control_c, 0, 64, 56
1, 227132, Control_c, 0, 64, 64
1, 227147, Control_c, 0, 64, 70
1, 227162, Control_c, 0, 64, 80
1, 227177, Control_c, 0, 64, 99
1, 227191, Control_c, 0, 64, 127
1, 227245, Note_off_c, 0, 27, 42
1, 227324, Note_off_c, 0, 39, 41
1, 227332, Note_off_c, 0, 66, 17
1, 227385, Note_off_c, 0, 55, 41
1, 227398, Note_off_c, 0, 58, 44
1, 227785, Note_on_c, 0, 46, 22
1, 227966, Note_off_c, 0, 61, 39
1, 227968, Note_off_c, 0, 63, 36
1, 228136, Note_on_c, 0, 55, 33
1, 228158, Note_off_c, 0, 46, 30
1, 228494, Note_off_c, 0, 55, 38
1, 228533, Note_on_c, 0, 61, 15
1, 228645, Note_off_c, 0, 61, 0
1, 228679, Poly_aftertouch_c, 0, 61, 0
1, 229238, Note_on_c, 0, 78, 48
1, 229249, Note_on_c, 0, 70, 32
1, 229257, Note_on_c, 0, 67, 29
1, 229352, Note_off_c, 0, 67, 56
1, 229937, Note_on_c, 0, 61, 29
1, 230307, Note_off_c, 0, 61, 35
1, 230354, Note_on_c, 0, 55, 32
1, 230546, Note_off_c, 0, 55, 44
1, 230694, Note_on_c, 0, 46, 27
1, 230748, Note_off_c, 0, 46, 61
1, 231117, Note_on_c, 0, 39, 22
1, 231121, Control_c, 0, 64, 107
1, 231136, Control_c, 0, 64, 76
1, 231151, Control_c, 0, 64, 62
1, 231166, Control_c, 0, 64, 53
1, 231180, Control_c, 0, 64, 53
1, 231195, Control_c, 0, 64, 59
1, 231210, Control_c, 0, 64, 64
1, 231225, Control_c, 0, 64, 71
1, 231240, Control_c, 0, 64, 83
1, 231254, Control_c, 0, 64, 106
1, 231269, Control_c, 0, 64, 127
1, 231336, Note_off_c, 0, 39, 42
1, 231385, Note_off_c, 0, 78, 61
1, 231407, Note_on_c, 0, 46, 37
1, 231407, Note_off_c, 0, 70, 53
1, 231462, Note_off_c, 0, 46, 56
1, 231659, Note_on_c, 0, 58, 42
1, 231726, Note_on_c, 0, 76, 51
1, 231752, Note_off_c, 0, 58, 56
1, 231775, Note_on_c, 0, 68, 37
1, 231868, Note_off_c, 0, 68, 54
1, 232035, Note_on_c, 0, 61, 35
1, 232229, Note_off_c, 0, 61, 27
1, 232321, Note_on_c, 0, 75, 58
1, 232325, Note_on_c, 0, 70, 35
1, 232366, Note_on_c, 0, 67, 36
1, 232468, Note_off_c, 0, 70, 35
1, 232592, Note_on_c, 0, 61, 32
1, 232631, Note_off_c, 0, 61, 55
1, 232770, Note_off_c, 0, 67, 31
1, 232851, Note_on_c, 0, 73, 56
1, 232914, Note_on_c, 0, 70, 14
1, 232962, Note_off_c, 0, 76, 35
1, 232978, Poly_aftertouch_c, 0, 58, 0
1, 233098, Note_off_c, 0, 75, 60
1, 233102, Note_off_c, 0, 73, 63
1, 233110, Note_on_c, 0, 49, 35
1, 233124, Note_off_c, 0, 70, 38
1, 233146, Note_off_c, 0, 49, 60
1, 233489, Note_on_c, 0, 39, 36
1, 233537, Note_on_c, 0, 75, 56
1, 233590, Control_c, 0, 64, 92
1, 233598, Note_on_c, 0, 71, 30
1, 233605, Control_c, 0, 64, 68
1, 233620, Control_c, 0, 64, 48
1, 233634, Control_c, 0, 64, 34
1, 233649, Control_c, 0, 64, 34
1, 233664, Control_c, 0, 64, 47
1, 233679, Control_c, 0, 64, 60
1, 233694, Control_c, 0, 64, 66
1, 233708, Control_c, 0, 64, 75
1, 233723, Control_c, 0, 64, 89
1, 233738, Control_c, 0, 64, 121
1, 233753, Control_c, 0, 64, 127
1, 233856, Note_off_c, 0, 39, 41
1, 233891, Note_on_c, 0, 47, 39
1, 234020, Note_off_c, 0, 71, 39
1, 234087, Note_off_c, 0, 75, 48
1, 234104, Note_off_c, 0, 47, 36
1, 234164, Note_on_c, 0, 56, 36
1, 234272, Note_on_c, 0, 73, 54
1, 234298, Note_on_c, 0, 70, 45
1, 234301, Note_off_c, 0, 56, 48
1, 234369, Note_off_c, 0, 70, 50
1, 234453, Note_off_c, 0, 73, 59
1, 234521, Note_on_c, 0, 75, 58
1, 234557, Note_on_c, 0, 71, 40
1, 234617, Note_off_c, 0, 71, 41
1, 234620, Note_on_c, 0, 63, 40
1, 234671, Note_off_c, 0, 75, 60
1, 234707, Note_on_c, 0, 73, 57
1, 234748, Note_on_c, 0, 70, 32
1, 234779, Note_off_c, 0, 70, 53
1, 234847, Note_off_c, 0, 63, 50
1, 235052, Note_on_c, 0, 71, 48
1, 235073, Note_on_c, 0, 68, 42
1, 235103, Control_c, 0, 64, 109
1, 235118, Control_c, 0, 64, 78
1, 235124, Note_off_c, 0, 73, 37
1, 235133, Control_c, 0, 64, 65
1, 235147, Control_c, 0, 64, 61
1, 235162, Control_c, 0, 64, 62
1, 235177, Control_c, 0, 64, 65
1, 235191, Control_c, 0, 64, 71
1, 235206, Control_c, 0, 64, 83
1, 235221, Control_c, 0, 64, 110
1, 235236, Control_c, 0, 64, 127
1, 235406, Note_on_c, 0, 63, 39
1, 235448, Note_off_c, 0, 63, 63
1, 235721, Note_on_c, 0, 56, 37
1, 235919, Note_off_c, 0, 56, 40
1, 235982, Note_on_c, 0, 47, 36
1, 236340, Note_on_c, 0, 39, 47
1, 236376, Control_c, 0, 64, 81
1, 236391, Control_c, 0, 64, 65
1, 236401, Note_off_c, 0, 47, 48
1, 236405, Control_c, 0, 64, 54
1, 236420, Control_c, 0, 64, 52
1, 236435, Control_c, 0, 64, 56
1, 236450, Control_c, 0, 64, 63
1, 236465, Control_c, 0, 64, 69
1, 236480, Control_c, 0, 64, 81
1, 236495, Control_c, 0, 64, 114
1, 236510, Control_c, 0, 64, 127
1, 236570, Note_off_c, 0, 68, 62
1, 236573, Note_off_c, 0, 71, 64
1, 236689, Note_on_c, 0, 46, 52
1, 236772, Note_off_c, 0, 39, 35
1, 236920, Note_on_c, 0, 56, 45
1, 236930, Note_off_c, 0, 46, 53
1, 237020, Note_on_c, 0, 70, 67
1, 237031, Note_off_c, 0, 56, 61
1, 237057, Note_on_c, 0, 62, 47
1, 237157, Note_off_c, 0, 70, 61
1, 237166, Note_off_c, 0, 62, 61
1, 237303, Note_on_c, 0, 62, 53
1, 237561, Note_on_c, 0, 68, 68
1, 237586, Note_on_c, 0, 59, 57
1, 237700, Note_off_c, 0, 62, 29
1, 237712, Note_off_c, 0, 68, 62
1, 237721, Note_off_c, 0, 59, 54
1, 237815, Note_on_c, 0, 62, 56
1, 237851, Note_off_c, 0, 62, 64
1, 237960, Note_on_c, 0, 66, 74
1, 237985, Note_on_c, 0, 58, 72
1, 238116, Note_off_c, 0, 58, 60
1, 238118, Note_off_c, 0, 66, 63
1, 238260, Note_on_c, 0, 65, 73
1, 238286, Note_on_c, 0, 56, 43
1, 238323, Note_on_c, 0, 46, 37
1, 238385, Note_off_c, 0, 56, 56
1, 238654, Note_on_c, 0, 39, 46
1, 238753, Note_on_c, 0, 58, 56
1, 238757, Note_on_c, 0, 66, 68
1, 238770, Control_c, 0, 64, 83
1, 238785, Control_c, 0, 64, 62
1, 238786, Note_off_c, 0, 46, 32
1, 238800, Control_c, 0, 64, 0
1, 238857, Note_off_c, 0, 65, 57
1, 238905, Control_c, 0, 64, 37
1, 238919, Control_c, 0, 64, 58
1, 238934, Control_c, 0, 64, 62
1, 238949, Control_c, 0, 64, 63
1, 238964, Control_c, 0, 64, 63
1, 238979, Control_c, 0, 64, 64
1, 238993, Control_c, 0, 64, 65
1, 239008, Control_c, 0, 64, 67
1, 239023, Control_c, 0, 64, 71
1, 239038, Control_c, 0, 64, 77
1, 239053, Control_c, 0, 64, 85
1, 239058, Note_off_c, 0, 58, 62
1, 239067, Control_c, 0, 64, 96
1, 239082, Control_c, 0, 64, 115
1, 239097, Control_c, 0, 64, 127
1, 239102, Note_on_c, 0, 46, 54
1, 239422, Note_on_c, 0, 54, 48
1, 239497, Note_on_c, 0, 65, 63
1, 239509, Note_on_c, 0, 56, 59
1, 239509, Note_off_c, 0, 39, 60
1, 239541, Note_off_c, 0, 46, 63
1, 239552, Note_off_c, 0, 54, 64
1, 239574, Note_off_c, 0, 56, 60
1, 239711, Note_off_c, 0, 65, 57
1, 239717, Note_off_c, 0, 66, 0
1, 239730, Note_on_c, 0, 66, 45
1, 239756, Note_on_c, 0, 58, 59
1, 239819, Note_on_c, 0, 63, 60
1, 239822, Note_off_c, 0, 58, 58
1, 239863, Note_off_c, 0, 66, 59
1, 239896, Note_off_c, 0, 63, 59
1, 239944, Note_on_c, 0, 65, 72
1, 239970, Note_on_c, 0, 56, 60
1, 240027, Note_off_c, 0, 56, 58
1, 240195, Note_off_c, 0, 65, 0
1, 240232, Poly_aftertouch_c, 0, 65, 127
1, 240243, Note_on_c, 0, 70, 51
1, 240283, Control_c, 0, 64, 86
1, 240298, Control_c, 0, 64, 66
1, 240313, Control_c, 0, 64, 51
1, 240321, Note_on_c, 0, 63, 64
1, 240327, Note_on_c, 0, 54, 62
1, 240328, Control_c, 0, 64, 50
1, 240342, Control_c, 0, 64, 54
1, 240357, Control_c, 0, 64, 62
1, 240372, Control_c, 0, 64, 68
1, 240387, Control_c, 0, 64, 80
1, 240402, Control_c, 0, 64, 110
1, 240416, Control_c, 0, 64, 127
1, 240427, Poly_aftertouch_c, 0, 65, 0
1, 240430, Note_off_c, 0, 70, 53
1, 240471, Note_off_c, 0, 54, 59
1, 240573, Poly_aftertouch_c, 0, 66, 127
1, 240595, Note_off_c, 0, 63, 20
1, 240672, Note_on_c, 0, 63, 42
1, 240697, Poly_aftertouch_c, 0, 66, 0
1, 240987, Note_on_c, 0, 54, 67
1, 241261, Note_on_c, 0, 46, 65
1, 241288, Note_off_c, 0, 54, 59
1, 241392, Note_off_c, 0, 63, 47
1, 241640, Note_on_c, 0, 39, 67
1, 241678, Control_c, 0, 64, 80
1, 241693, Control_c, 0, 64, 58
1, 241708, Control_c, 0, 64, 0
1, 241747, Note_off_c, 0, 46, 61
1, 241767, Control_c, 0, 64, 47
1, 241781, Control_c, 0, 64, 62
1, 241796, Control_c, 0, 64, 67
1, 241811, Control_c, 0, 64, 72
1, 241826, Control_c, 0, 64, 76
1, 241840, Control_c, 0, 64, 82
1, 241855, Control_c, 0, 64, 93
1, 241870, Control_c, 0, 64, 127
1, 242004, Note_on_c, 0, 46, 61
1, 242131, Note_on_c, 0, 58, 78
1, 242197, Control_c, 0, 64, 80
1, 242207, Note_off_c, 0, 39, 58
1, 242211, Control_c, 0, 64, 66
1, 242226, Control_c, 0, 64, 63
1, 242241, Control_c, 0, 64, 65
1, 242255, Control_c, 0, 64, 69
1, 242270, Control_c, 0, 64, 79
1, 242293, Control_c, 0, 64, 95
1, 242308, Control_c, 0, 64, 127
1, 242424, Note_on_c, 0, 55, 63
1, 242424, Note_off_c, 0, 46, 62
1, 242466, Note_off_c, 0, 55, 64
1, 242543, Note_off_c, 0, 58, 52
1, 242723, Note_on_c, 0, 59, 71
1, 242725, Note_on_c, 0, 61, 51
1, 242904, Note_off_c, 0, 61, 51
1, 242940, Note_off_c, 0, 59, 63
1, 243173, Note_on_c, 0, 67, 45
1, 243175, Control_c, 0, 64, 110
1, 243190, Control_c, 0, 64, 79
1, 243205, Control_c, 0, 64, 65
1, 243220, Control_c, 0, 64, 63
1, 243226, Note_on_c, 0, 61, 56
1, 243234, Control_c, 0, 64, 64
1, 243249, Control_c, 0, 64, 67
1, 243264, Control_c, 0, 64, 72
1, 243279, Control_c, 0, 64, 80
1, 243293, Control_c, 0, 64, 92
1, 243308, Control_c, 0, 64, 104
1, 243323, Control_c, 0, 64, 127
1, 243352, Note_off_c, 0, 67, 60
1, 243416, Note_off_c, 0, 61, 57
1, 243652, Note_on_c, 0, 61, 36
1, 243691, Note_off_c, 0, 61, 60
1, 243973, Note_on_c, 0, 55, 37
1, 244233, Note_on_c, 0, 46, 43
1, 244245, Note_off_c, 0, 55, 57
1, 244629, Control_c, 0, 64, 118
1, 244644, Control_c, 0, 64, 111
1, 244659, Control_c, 0, 64, 105
1, 244674, Control_c, 0, 64, 101
1, 244688, Control_c, 0, 64, 98
1, 244690, Note_on_c, 0, 39, 46
1, 244703, Control_c, 0, 64, 94
1, 244718, Control_c, 0, 64, 92
1, 244732, Control_c, 0, 64, 87
1, 244747, Control_c, 0, 64, 82
1, 244750, Note_off_c, 0, 46, 60
1, 244762, Control_c, 0, 64, 75
1, 244777, Control_c, 0, 64, 66
1, 244792, Control_c, 0, 64, 50
1, 244806, Control_c, 0, 64, 0
1, 244925, Control_c, 0, 64, 39
1, 244940, Control_c, 0, 64, 52
1, 244955, Control_c, 0, 64, 58
1, 244970, Control_c, 0, 64, 62
1, 244984, Control_c, 0, 64, 65
1, 244999, Control_c, 0, 64, 68
1, 245014, Control_c, 0, 64, 73
1, 245029, Control_c, 0, 64, 78
1, 245044, Control_c, 0, 64, 85
1, 245058, Control_c, 0, 64, 92
1, 245073, Control_c, 0, 64, 99
1, 245088, Control_c, 0, 64, 103
1, 245103, Control_c, 0, 64, 105
1, 245118, Control_c, 0, 64, 107
1, 245131, Note_on_c, 0, 47, 34
1, 245132, Control_c, 0, 64, 110
1, 245147, Control_c, 0, 64, 113
1, 245162, Control_c, 0, 64, 116
1, 245301, Note_on_c, 0, 63, 53
1, 245333, Note_off_c, 0, 39, 37
1, 245487, Note_on_c, 0, 61, 60
1, 245536, Note_off_c, 0, 63, 51
1, 245555, Control_c, 0, 64, 115
1, 245570, Control_c, 0, 64, 113
1, 245585, Control_c, 0, 64, 112
1, 245600, Control_c, 0, 64, 111
1, 245615, Control_c, 0, 64, 111
1, 245629, Control_c, 0, 64, 110
1, 245644, Control_c, 0, 64, 109
1, 245659, Control_c, 0, 64, 108
1, 245672, Note_on_c, 0, 56, 43
1, 245703, Control_c, 0, 64, 102
1, 245718, Control_c, 0, 64, 82
1, 245733, Control_c, 0, 64, 68
1, 245748, Control_c, 0, 64, 60
1, 245762, Control_c, 0, 64, 57
1, 245775, Note_off_c, 0, 61, 35
1, 245777, Control_c, 0, 64, 58
1, 245792, Note_on_c, 0, 59, 47
1, 245792, Control_c, 0, 64, 61
1, 245807, Control_c, 0, 64, 65
1, 245822, Control_c, 0, 64, 70
1, 245837, Control_c, 0, 64, 76
1, 245852, Control_c, 0, 64, 85
1, 245856, Note_off_c, 0, 47, 36
1, 245867, Control_c, 0, 64, 97
1, 245879, Control_c, 0, 64, 127
1, 245988, Note_off_c, 0, 56, 63
1, 246272, Note_on_c, 0, 63, 31
1, 246555, Note_off_c, 0, 63, 46
1, 246573, Note_on_c, 0, 68, 45
1, 246627, Note_off_c, 0, 68, 57
1, 246894, Note_on_c, 0, 63, 42
1, 246929, Note_off_c, 0, 63, 63
1, 247283, Note_on_c, 0, 58, 56
1, 247298, Poly_aftertouch_c, 0, 51, 127
1, 247627, Note_on_c, 0, 44, 41
1, 247691, Poly_aftertouch_c, 0, 51, 0
1, 247899, Note_off_c, 0, 59, 34
1, 248111, Control_c, 0, 64, 97
1, 248127, Control_c, 0, 64, 77
1, 248142, Control_c, 0, 64, 65
1, 248156, Control_c, 0, 64, 58
1, 248171, Control_c, 0, 64, 57
1, 248181, Note_on_c, 0, 39, 28
1, 248186, Control_c, 0, 64, 59
1, 248201, Control_c, 0, 64, 63
1, 248216, Control_c, 0, 64, 67
1, 248231, Control_c, 0, 64, 72
1, 248232, Note_off_c, 0, 44, 51
1, 248246, Control_c, 0, 64, 77
1, 248260, Control_c, 0, 64, 82
1, 248282, Control_c, 0, 64, 86
1, 248297, Control_c, 0, 64, 91
1, 248312, Control_c, 0, 64, 96
1, 248327, Control_c, 0, 64, 101
1, 248342, Control_c, 0, 64, 103
1, 248356, Control_c, 0, 64, 104
1, 248506, Control_c, 0, 64, 102
1, 248521, Control_c, 0, 64, 91
1, 248535, Control_c, 0, 64, 77
1, 248550, Control_c, 0, 64, 67
1, 248565, Control_c, 0, 64, 63
1, 248585, Note_on_c, 0, 47, 36
1, 248594, Control_c, 0, 64, 64
1, 248609, Control_c, 0, 64, 68
1, 248624, Control_c, 0, 64, 73
1, 248639, Control_c, 0, 64, 81
1, 248654, Control_c, 0, 64, 89
1, 248669, Control_c, 0, 64, 94
1, 248684, Control_c, 0, 64, 97
1, 248714, Control_c, 0, 64, 97
1, 248728, Control_c, 0, 64, 98
1, 248743, Control_c, 0, 64, 98
1, 248758, Control_c, 0, 64, 99
1, 248875, Control_c, 0, 64, 98
1, 248934, Control_c, 0, 64, 98
1, 248949, Control_c, 0, 64, 97
1, 248979, Control_c, 0, 64, 97
1, 249075, Control_c, 0, 64, 96
1, 249104, Control_c, 0, 64, 96
1, 249119, Control_c, 0, 64, 95
1, 249194, Note_on_c, 0, 52, 37
1, 249196, Note_on_c, 0, 56, 42
1, 249208, Control_c, 0, 64, 91
1, 249223, Control_c, 0, 64, 78
1, 249238, Control_c, 0, 64, 65
1, 249253, Control_c, 0, 64, 48
1, 249268, Control_c, 0, 64, 34
1, 249270, Note_off_c, 0, 47, 37
1, 249283, Control_c, 0, 64, 33
1, 249294, Note_off_c, 0, 58, 60
1, 249298, Control_c, 0, 64, 41
1, 249313, Control_c, 0, 64, 54
1, 249328, Control_c, 0, 64, 63
1, 249343, Control_c, 0, 64, 68
1, 249357, Control_c, 0, 64, 76
1, 249372, Control_c, 0, 64, 85
1, 249387, Control_c, 0, 64, 98
1, 249402, Control_c, 0, 64, 127
1, 249451, Note_off_c, 0, 52, 55
1, 249458, Note_off_c, 0, 39, 40
1, 249572, Note_off_c, 0, 56, 60
1, 249862, Note_on_c, 0, 62, 20
1, 250255, Note_on_c, 0, 66, 26
1, 250376, Note_off_c, 0, 62, 38
1, 250767, Note_on_c, 0, 62, 31
1, 250835, Note_off_c, 0, 62, 57
1, 250844, Note_off_c, 0, 66, 41
1, 251668, Note_on_c, 0, 47, 19
1, 251676, Note_on_c, 0, 54, 36
1, 251806, Note_off_c, 0, 47, 47
1, 252237, Note_off_c, 0, 54, 42
1, 252241, Note_on_c, 0, 56, 38
1, 252566, Note_off_c, 0, 56, 36
1, 252570, Note_on_c, 0, 54, 43
1, 253101, Control_c, 0, 64, 121
1, 253116, Control_c, 0, 64, 119
1, 253131, Control_c, 0, 64, 117
1, 253135, Note_on_c, 0, 39, 32
1, 253144, Note_on_c, 0, 27, 27
1, 253145, Control_c, 0, 64, 116
1, 253160, Control_c, 0, 64, 114
1, 253161, Note_on_c, 0, 51, 37
1, 253175, Control_c, 0, 64, 106
1, 253190, Control_c, 0, 64, 89
1, 253205, Control_c, 0, 64, 71
1, 253207, Note_off_c, 0, 54, 44
1, 253219, Control_c, 0, 64, 56
1, 253234, Control_c, 0, 64, 15
1, 253249, Control_c, 0, 64, 0
1, 253295, Control_c, 0, 64, 13
1, 253310, Control_c, 0, 64, 47
1, 253324, Control_c, 0, 64, 60
1, 253339, Control_c, 0, 64, 66
1, 253354, Control_c, 0, 64, 74
1, 253368, Control_c, 0, 64, 85
1, 253383, Control_c, 0, 64, 101
1, 253398, Control_c, 0, 64, 127
1, 253423, Note_off_c, 0, 27, 41
1, 253510, Note_off_c, 0, 39, 40
1, 253596, Note_off_c, 0, 51, 55
1, 253957, Note_on_c, 0, 46, 25
1, 254462, Note_on_c, 0, 54, 31
1, 254562, Note_off_c, 0, 46, 13
1, 254709, Note_off_c, 0, 54, 44
1, 254830, Note_on_c, 0, 63, 38
1, 254938, Note_off_c, 0, 63, 57
1, 255276, Note_on_c, 0, 70, 32
1, 255378, Note_off_c, 0, 70, 51
1, 255661, Note_on_c, 0, 63, 34
1, 255901, Note_off_c, 0, 63, 35
1, 256028, Note_on_c, 0, 54, 32
1, 256203, Note_off_c, 0, 54, 38
1, 256341, Note_on_c, 0, 46, 32
1, 256392, Note_off_c, 0, 46, 61
1, 256771, Control_c, 0, 64, 123
1, 256785, Control_c, 0, 64, 111
1, 256800, Control_c, 0, 64, 107
1, 256815, Control_c, 0, 64, 104
1, 256830, Control_c, 0, 64, 102
1, 256845, Control_c, 0, 64, 101
1, 256859, Control_c, 0, 64, 100
1, 256874, Control_c, 0, 64, 99
1, 256881, Note_on_c, 0, 32, 40
1, 256889, Control_c, 0, 64, 99
1, 256904, Control_c, 0, 64, 98
1, 256919, Control_c, 0, 64, 95
1, 256933, Control_c, 0, 64, 87
1, 256948, Control_c, 0, 64, 72
1, 256963, Control_c, 0, 64, 58
1, 256978, Control_c, 0, 64, 0
1, 257037, Control_c, 0, 64, 23
1, 257052, Control_c, 0, 64, 52
1, 257066, Control_c, 0, 64, 62
1, 257081, Control_c, 0, 64, 67
1, 257096, Control_c, 0, 64, 72
1, 257111, Control_c, 0, 64, 78
1, 257126, Control_c, 0, 64, 86
1, 257141, Control_c, 0, 64, 96
1, 257155, Control_c, 0, 64, 111
1, 257170, Control_c, 0, 64, 127
1, 257224, Note_on_c, 0, 56, 41
1, 257261, Note_on_c, 0, 53, 37
1, 257316, Note_off_c, 0, 53, 58
1, 257332, Note_off_c, 0, 56, 59
1, 257368, Note_on_c, 0, 44, 34
1, 257399, Note_off_c, 0, 32, 42
1, 257421, Note_off_c, 0, 44, 60
1, 257490, Note_on_c, 0, 58, 54
1, 257506, Note_on_c, 0, 54, 49
1, 257555, Note_off_c, 0, 54, 61
1, 257585, Note_off_c, 0, 58, 55
1, 257712, Control_c, 0, 64, 116
1, 257727, Control_c, 0, 64, 77
1, 257728, Note_on_c, 0, 51, 46
1, 257731, Note_on_c, 0, 59, 56
1, 257742, Control_c, 0, 64, 64
1, 257756, Control_c, 0, 64, 58
1, 257761, Note_on_c, 0, 56, 39
1, 257771, Control_c, 0, 64, 59
1, 257786, Control_c, 0, 64, 62
1, 257801, Control_c, 0, 64, 66
1, 257815, Control_c, 0, 64, 72
1, 257826, Note_off_c, 0, 56, 52
1, 257830, Control_c, 0, 64, 81
1, 257845, Control_c, 0, 64, 90
1, 257860, Control_c, 0, 64, 97
1, 257875, Control_c, 0, 64, 102
1, 257886, Note_off_c, 0, 59, 59
1, 257889, Control_c, 0, 64, 104
1, 257904, Control_c, 0, 64, 106
1, 257919, Control_c, 0, 64, 113
1, 257934, Control_c, 0, 64, 127
1, 257957, Note_on_c, 0, 63, 58
1, 257995, Note_on_c, 0, 59, 47
1, 258085, Note_on_c, 0, 53, 51
1, 258100, Note_off_c, 0, 63, 55
1, 258155, Note_off_c, 0, 51, 57
1, 258167, Note_off_c, 0, 53, 63
1, 258178, Note_on_c, 0, 65, 60
1, 258195, Note_on_c, 0, 61, 53
1, 258236, Note_off_c, 0, 61, 62
1, 258252, Note_off_c, 0, 65, 63
1, 258288, Note_off_c, 0, 59, 0
1, 258362, Poly_aftertouch_c, 0, 59, 0
1, 258518, Note_on_c, 0, 63, 42
1, 258564, Control_c, 0, 64, 110
1, 258577, Note_on_c, 0, 70, 60
1, 258579, Control_c, 0, 64, 81
1, 258594, Control_c, 0, 64, 67
1, 258602, Note_on_c, 0, 66, 42
1, 258609, Control_c, 0, 64, 62
1, 258638, Control_c, 0, 64, 64
1, 258653, Control_c, 0, 64, 69
1, 258668, Control_c, 0, 64, 77
1, 258683, Control_c, 0, 64, 90
1, 258698, Control_c, 0, 64, 111
1, 258712, Control_c, 0, 64, 127
1, 258879, Note_off_c, 0, 63, 56
1, 259017, Note_on_c, 0, 59, 36
1, 259094, Note_off_c, 0, 59, 57
1, 259287, Note_off_c, 0, 66, 62
1, 259296, Note_off_c, 0, 70, 63
1, 259357, Note_on_c, 0, 53, 37
1, 259573, Note_off_c, 0, 53, 37
1, 259626, Note_on_c, 0, 65, 47
1, 259644, Note_on_c, 0, 68, 55
1, 259658, Note_on_c, 0, 44, 11
1, 259725, Note_off_c, 0, 44, 43
1, 259932, Note_off_c, 0, 65, 51
1, 260115, Note_on_c, 0, 27, 34
1, 260122, Note_on_c, 0, 39, 29
1, 260139, Note_on_c, 0, 63, 39
1, 260170, Note_on_c, 0, 54, 34
1, 260181, Control_c, 0, 64, 112
1, 260196, Control_c, 0, 64, 79
1, 260210, Control_c, 0, 64, 64
1, 260225, Control_c, 0, 64, 57
1, 260229, Note_off_c, 0, 68, 25
1, 260240, Control_c, 0, 64, 58
1, 260262, Control_c, 0, 64, 62
1, 260277, Control_c, 0, 64, 67
1, 260291, Control_c, 0, 64, 75
1, 260306, Control_c, 0, 64, 91
1, 260321, Control_c, 0, 64, 127
1, 260372, Note_off_c, 0, 27, 41
1, 260426, Note_off_c, 0, 39, 40
1, 260470, Note_off_c, 0, 54, 42
1, 260797, Note_on_c, 0, 46, 26
1, 260855, Note_off_c, 0, 63, 59
1, 261118, Note_off_c, 0, 46, 40
1, 261153, Note_on_c, 0, 54, 38
1, 261331, Note_off_c, 0, 54, 45
1, 261487, Note_on_c, 0, 63, 41
1, 261551, Note_off_c, 0, 63, 60
1, 261835, Note_on_c, 0, 70, 45
1, 261928, Note_off_c, 0, 70, 52
1, 262213, Note_on_c, 0, 63, 27
1, 262456, Note_off_c, 0, 63, 41
1, 262540, Note_on_c, 0, 54, 36
1, 262787, Note_off_c, 0, 54, 34
1, 262919, Note_on_c, 0, 46, 34
1, 262989, Note_off_c, 0, 46, 62
1, 263392, Note_on_c, 0, 44, 38
1, 263398, Note_on_c, 0, 32, 34
1, 263421, Control_c, 0, 64, 85
1, 263435, Control_c, 0, 64, 68
1, 263450, Control_c, 0, 64, 61
1, 263465, Control_c, 0, 64, 60
1, 263480, Control_c, 0, 64, 62
1, 263495, Control_c, 0, 64, 65
1, 263509, Control_c, 0, 64, 72
1, 263524, Control_c, 0, 64, 84
1, 263539, Control_c, 0, 64, 111
1, 263554, Control_c, 0, 64, 127
1, 263568, Note_off_c, 0, 32, 41
1, 263601, Note_off_c, 0, 44, 54
1, 263711, Note_on_c, 0, 68, 48
1, 263725, Note_on_c, 0, 65, 51
1, 263806, Note_off_c, 0, 68, 61
1, 263821, Note_off_c, 0, 65, 60
1, 263860, Note_on_c, 0, 53, 48
1, 263967, Note_on_c, 0, 70, 65
1, 263982, Note_on_c, 0, 66, 62
1, 264066, Note_off_c, 0, 66, 61
1, 264106, Note_off_c, 0, 70, 39
1, 264146, Note_on_c, 0, 59, 52
1, 264229, Note_on_c, 0, 71, 71
1, 264244, Note_on_c, 0, 68, 75
1, 264345, Note_off_c, 0, 68, 55
1, 264417, Note_off_c, 0, 71, 0
1, 264426, Note_on_c, 0, 75, 78
1, 264429, Note_on_c, 0, 71, 61
1, 264477, Note_on_c, 0, 63, 58
1, 264604, Note_off_c, 0, 63, 63
1, 264611, Note_on_c, 0, 77, 87
1, 264619, Note_on_c, 0, 73, 70
1, 264632, Note_off_c, 0, 75, 64
1, 264652, Note_off_c, 0, 73, 64
1, 264677, Note_off_c, 0, 77, 64
1, 264899, Note_on_c, 0, 68, 47
1, 264977, Control_c, 0, 64, 90
1, 264990, Note_on_c, 0, 82, 88
1, 264992, Control_c, 0, 64, 74
1, 265007, Control_c, 0, 64, 70
1, 265017, Note_on_c, 0, 78, 58
1, 265037, Control_c, 0, 64, 72
1, 265052, Control_c, 0, 64, 78
1, 265067, Control_c, 0, 64, 91
1, 265081, Control_c, 0, 64, 127
1, 265097, Note_off_c, 0, 68, 62
1, 265431, Note_on_c, 0, 63, 52
1, 265513, Note_off_c, 0, 59, 31
1, 265513, Note_off_c, 0, 78, 65
1, 265517, Note_off_c, 0, 82, 66
1, 265679, Note_off_c, 0, 63, 58
1, 265709, Note_on_c, 0, 59, 53
1, 265721, Note_off_c, 0, 53, 34
1, 265743, Note_off_c, 0, 71, 62
1, 265986, Note_on_c, 0, 53, 47
1, 266001, Note_off_c, 0, 59, 55
1, 266009, Note_on_c, 0, 77, 67
1, 266018, Note_on_c, 0, 80, 76
1, 266051, Note_off_c, 0, 53, 63
1, 266444, Note_on_c, 0, 39, 44
1, 266451, Note_on_c, 0, 27, 39
1, 266492, Note_on_c, 0, 66, 57
1, 266501, Note_on_c, 0, 75, 67
1, 266505, Control_c, 0, 64, 108
1, 266519, Control_c, 0, 64, 70
1, 266534, Control_c, 0, 64, 35
1, 266549, Control_c, 0, 64, 0
1, 266605, Note_off_c, 0, 77, 62
1, 266608, Control_c, 0, 64, 32
1, 266623, Control_c, 0, 64, 57
1, 266636, Note_off_c, 0, 80, 57
1, 266638, Control_c, 0, 64, 64
1, 266653, Control_c, 0, 64, 70
1, 266660, Note_off_c, 0, 27, 57
1, 266668, Control_c, 0, 64, 81
1, 266682, Control_c, 0, 64, 99
1, 266693, Note_off_c, 0, 39, 61
1, 266697, Control_c, 0, 64, 127
1, 266860, Note_off_c, 0, 66, 51
1, 267004, Note_on_c, 0, 46, 51
1, 267311, Note_on_c, 0, 54, 60
1, 267344, Note_off_c, 0, 46, 57
1, 267612, Note_on_c, 0, 63, 52
1, 267613, Note_off_c, 0, 54, 53
1, 267673, Note_off_c, 0, 63, 63
1, 267937, Note_on_c, 0, 70, 59
1, 268022, Note_off_c, 0, 70, 62
1, 268253, Note_on_c, 0, 63, 57
1, 268549, Note_on_c, 0, 54, 65
1, 268578, Note_off_c, 0, 63, 57
1, 268858, Note_on_c, 0, 46, 70
1, 268898, Note_off_c, 0, 54, 63
1, 268916, Note_off_c, 0, 46, 63
1, 269366, Control_c, 0, 64, 93
1, 269371, Note_on_c, 0, 44, 78
1, 269373, Note_on_c, 0, 32, 74
1, 269381, Control_c, 0, 64, 67
1, 269396, Control_c, 0, 64, 58
1, 269411, Control_c, 0, 64, 60
1, 269425, Control_c, 0, 64, 64
1, 269440, Control_c, 0, 64, 75
1, 269455, Control_c, 0, 64, 127
1, 269466, Note_off_c, 0, 32, 61
1, 269485, Note_off_c, 0, 75, 64
1, 269503, Note_off_c, 0, 44, 63
1, 269836, Note_on_c, 0, 53, 72
1, 269849, Note_on_c, 0, 78, 86
1, 269850, Note_on_c, 0, 75, 82
1, 269936, Note_off_c, 0, 75, 61
1, 269961, Note_off_c, 0, 78, 61
1, 270153, Note_on_c, 0, 77, 91
1, 270154, Note_on_c, 0, 80, 89
1, 270159, Note_on_c, 0, 59, 74
1, 270210, Note_off_c, 0, 77, 63
1, 270222, Note_off_c, 0, 80, 62
1, 270379, Note_on_c, 0, 82, 90
1, 270382, Note_on_c, 0, 78, 88
1, 270394, Note_on_c, 0, 63, 87
1, 270430, Note_off_c, 0, 78, 65
1, 270435, Note_off_c, 0, 82, 66
1, 270446, Note_off_c, 0, 53, 59
1, 270462, Note_off_c, 0, 63, 62
1, 270596, Note_on_c, 0, 83, 96
1, 270598, Note_on_c, 0, 80, 100
1, 270599, Note_on_c, 0, 68, 88
1, 270654, Note_off_c, 0, 68, 62
1, 270665, Note_off_c, 0, 80, 63
1, 270677, Note_off_c, 0, 83, 63
1, 270757, Note_on_c, 0, 91, 23
1, 270765, Note_on_c, 0, 89, 17
1, 270798, Note_off_c, 0, 91, 39
1, 270813, Note_off_c, 0, 89, 46
1, 270835, Note_on_c, 0, 85, 102
1, 270843, Note_on_c, 0, 82, 97
1, 270844, Note_on_c, 0, 63, 99
1, 270912, Note_off_c, 0, 59, 0
1, 270944, Note_off_c, 0, 82, 61
1, 271070, Note_off_c, 0, 63, 60
1, 271107, Poly_aftertouch_c, 0, 59, 0
1, 271120, Note_on_c, 0, 87, 100
1, 271121, Note_on_c, 0, 59, 64
1, 271122, Note_on_c, 0, 83, 105
1, 271151, Note_off_c, 0, 85, 67
1, 271395, Note_off_c, 0, 87, 60
1, 271426, Note_on_c, 0, 89, 100
1, 271428, Note_on_c, 0, 85, 100
1, 271438, Note_on_c, 0, 53, 91
1, 271448, Note_off_c, 0, 83, 59
1, 271449, Note_off_c, 0, 59, 64
1, 271455, Note_on_c, 0, 54, 45
1, 271460, Note_off_c, 0, 53, 70
1, 271491, Note_off_c, 0, 85, 68
1, 271493, Note_off_c, 0, 54, 34
1, 271493, Note_off_c, 0, 89, 67
1, 271835, Control_c, 0, 64, 107
1, 271850, Control_c, 0, 64, 65
1, 271855, Note_on_c, 0, 89, 102
1, 271857, Note_on_c, 0, 94, 98
1, 271857, Note_on_c, 0, 92, 100
1, 271865, Note_on_c, 0, 39, 101
1, 271865, Control_c, 0, 64, 47
1, 271868, Note_on_c, 0, 27, 75
1, 271880, Control_c, 0, 64, 53
1, 271892, Note_off_c, 0, 27, 64
1, 271894, Control_c, 0, 64, 63
1, 271904, Note_off_c, 0, 39, 63
1, 271909, Control_c, 0, 64, 82
1, 271924, Control_c, 0, 64, 127
1, 272147, Note_off_c, 0, 94, 56
1, 272152, Note_off_c, 0, 89, 60
1, 272152, Note_off_c, 0, 92, 63
1, 272182, Note_on_c, 0, 90, 96
1, 272191, Note_on_c, 0, 87, 105
1, 272203, Note_on_c, 0, 46, 76
1, 272247, Note_on_c, 0, 86, 32
1, 272250, Note_off_c, 0, 90, 60
1, 272255, Note_off_c, 0, 87, 63
1, 272280, Note_off_c, 0, 86, 49
1, 272304, Note_on_c, 0, 54, 76
1, 272319, Note_off_c, 0, 46, 63
1, 272413, Note_on_c, 0, 63, 88
1, 272421, Note_on_c, 0, 89, 97
1, 272424, Note_on_c, 0, 85, 98
1, 272446, Note_off_c, 0, 63, 60
1, 272451, Note_off_c, 0, 54, 51
1, 272549, Note_off_c, 0, 89, 60
1, 272561, Note_off_c, 0, 85, 56
1, 272567, Note_on_c, 0, 87, 98
1, 272576, Note_on_c, 0, 83, 93
1, 272601, Note_on_c, 0, 84, 49
1, 272625, Note_off_c, 0, 84, 41
1, 272644, Note_off_c, 0, 87, 60
1, 272656, Note_off_c, 0, 83, 62
1, 272673, Control_c, 0, 64, 81
1, 272687, Control_c, 0, 64, 66
1, 272702, Control_c, 0, 64, 68
1, 272707, Note_on_c, 0, 44, 100
1, 272712, Note_on_c, 0, 32, 65
1, 272717, Control_c, 0, 64, 91
1, 272732, Control_c, 0, 64, 127
1, 272734, Note_on_c, 0, 87, 94
1, 272734, Note_on_c, 0, 82, 100
1, 272741, Note_on_c, 0, 85, 91
1, 272746, Note_off_c, 0, 44, 65
1, 272749, Note_off_c, 0, 32, 61
1, 272758, Note_on_c, 0, 80, 55
1, 272781, Note_off_c, 0, 80, 40
1, 272828, Note_off_c, 0, 82, 63
1, 272904, Note_off_c, 0, 87, 63
1, 272911, Note_on_c, 0, 83, 96
1, 272923, Note_on_c, 0, 80, 94
1, 272970, Note_off_c, 0, 80, 64
1, 272996, Note_on_c, 0, 63, 85
1, 272998, Note_off_c, 0, 85, 35
1, 273002, Note_on_c, 0, 59, 76
1, 273011, Note_on_c, 0, 51, 77
1, 273016, Note_off_c, 0, 63, 72
1, 273027, Note_off_c, 0, 59, 68
1, 273051, Note_off_c, 0, 51, 64
1, 273063, Note_off_c, 0, 83, 62
1, 273070, Note_on_c, 0, 78, 100
1, 273071, Note_on_c, 0, 82, 75
1, 273092, Note_off_c, 0, 82, 71
1, 273116, Note_off_c, 0, 78, 60
1, 273244, Control_c, 0, 64, 75
1, 273249, Note_on_c, 0, 77, 103
1, 273250, Note_on_c, 0, 82, 95
1, 273256, Note_on_c, 0, 80, 77
1, 273258, Note_on_c, 0, 39, 99
1, 273258, Control_c, 0, 64, 51
1, 273273, Control_c, 0, 64, 46
1, 273277, Note_on_c, 0, 27, 52
1, 273288, Note_off_c, 0, 39, 62
1, 273288, Control_c, 0, 64, 59
1, 273303, Control_c, 0, 64, 72
1, 273318, Control_c, 0, 64, 127
1, 273321, Note_off_c, 0, 27, 47
1, 273461, Note_on_c, 0, 78, 92
1, 273464, Note_on_c, 0, 75, 96
1, 273470, Note_on_c, 0, 46, 65
1, 273472, Note_off_c, 0, 82, 56
1, 273476, Note_off_c, 0, 77, 47
1, 273494, Note_off_c, 0, 80, 62
1, 273533, Note_off_c, 0, 75, 62
1, 273533, Note_off_c, 0, 78, 65
1, 273554, Note_off_c, 0, 46, 62
1, 273570, Note_on_c, 0, 54, 74
1, 273622, Note_on_c, 0, 77, 86
1, 273625, Note_on_c, 0, 73, 98
1, 273631, Note_on_c, 0, 76, 90
1, 273646, Note_off_c, 0, 54, 65
1, 273688, Note_off_c, 0, 76, 58
1, 273695, Note_off_c, 0, 73, 62
1, 273697, Note_off_c, 0, 77, 63
1, 273755, Note_on_c, 0, 71, 92
1, 273766, Note_on_c, 0, 74, 80
1, 273801, Note_on_c, 0, 75, 26
1, 273802, Note_off_c, 0, 75, 127
1, 273813, Note_off_c, 0, 74, 63
1, 273819, Note_off_c, 0, 71, 63
1, 273858, Control_c, 0, 64, 77
1, 273872, Control_c, 0, 64, 55
1, 273884, Note_on_c, 0, 44, 98
1, 273887, Control_c, 0, 64, 46
1, 273890, Note_on_c, 0, 32, 56
1, 273894, Note_on_c, 0, 75, 100
1, 273902, Note_on_c, 0, 70, 84
1, 273902, Control_c, 0, 64, 55
1, 273911, Note_on_c, 0, 73, 62
1, 273915, Note_on_c, 0, 71, 80
1, 273917, Control_c, 0, 64, 65
1, 273918, Note_on_c, 0, 74, 71
1, 273922, Note_off_c, 0, 32, 61
1, 273923, Note_off_c, 0, 44, 63
1, 273932, Control_c, 0, 64, 90
1, 273947, Control_c, 0, 64, 127
1, 273948, Note_off_c, 0, 71, 56
1, 273949, Note_off_c, 0, 70, 63
1, 273955, Note_on_c, 0, 76, 18
1, 273995, Note_off_c, 0, 73, 40
1, 274001, Note_off_c, 0, 75, 58
1, 274004, Note_off_c, 0, 76, 49
1, 274013, Note_off_c, 0, 74, 60
1, 274029, Note_on_c, 0, 71, 92
1, 274039, Note_on_c, 0, 68, 92
1, 274084, Note_off_c, 0, 68, 61
1, 274098, Note_on_c, 0, 59, 73
1, 274099, Note_on_c, 0, 63, 82
1, 274111, Note_on_c, 0, 51, 87
1, 274122, Note_off_c, 0, 59, 67
1, 274122, Note_off_c, 0, 63, 70
1, 274130, Note_on_c, 0, 53, 28
1, 274150, Note_off_c, 0, 51, 63
1, 274152, Note_off_c, 0, 71, 56
1, 274166, Note_on_c, 0, 70, 85
1, 274169, Note_on_c, 0, 66, 92
1, 274170, Note_off_c, 0, 53, 51
1, 274188, Note_off_c, 0, 70, 72
1, 274239, Note_off_c, 0, 66, 53
1, 274303, Control_c, 0, 64, 67
1, 274314, Note_on_c, 0, 65, 88
1, 274318, Note_on_c, 0, 70, 83
1, 274318, Control_c, 0, 64, 0
1, 274325, Note_on_c, 0, 39, 95
1, 274327, Note_on_c, 0, 68, 80
1, 274339, Note_on_c, 0, 27, 58
1, 274351, Note_off_c, 0, 39, 68
1, 274362, Control_c, 0, 64, 42
1, 274377, Control_c, 0, 64, 66
1, 274379, Note_off_c, 0, 27, 33
1, 274392, Control_c, 0, 64, 84
1, 274406, Control_c, 0, 64, 127
1, 274418, Note_off_c, 0, 65, 61
1, 274445, Note_on_c, 0, 63, 95
1, 274457, Note_on_c, 0, 66, 75
1, 274463, Note_off_c, 0, 68, 62
1, 274464, Note_off_c, 0, 70, 62
1, 274509, Note_off_c, 0, 63, 63
1, 274518, Note_off_c, 0, 66, 62
1, 274526, Note_on_c, 0, 54, 94
1, 274551, Note_off_c, 0, 54, 68
1, 274552, Note_on_c, 0, 46, 50
1, 274579, Note_off_c, 0, 46, 59
1, 274583, Note_on_c, 0, 65, 88
1, 274587, Note_on_c, 0, 61, 88
1, 274653, Note_off_c, 0, 65, 64
1, 274656, Note_off_c, 0, 61, 58
1, 274678, Note_on_c, 0, 63, 83
1, 274686, Note_on_c, 0, 59, 90
1, 274725, Note_off_c, 0, 63, 63
1, 274737, Note_off_c, 0, 59, 66
1, 274781, Note_on_c, 0, 61, 88
1, 274790, Note_on_c, 0, 58, 88
1, 274873, Note_off_c, 0, 58, 40
1, 274874, Control_c, 0, 64, 88
1, 274883, Note_on_c, 0, 59, 90
1, 274889, Control_c, 0, 64, 69
1, 274893, Note_on_c, 0, 56, 87
1, 274901, Note_off_c, 0, 61, 35
1, 274904, Control_c, 0, 64, 65
1, 274919, Control_c, 0, 64, 68
1, 274928, Note_off_c, 0, 59, 65
1, 274934, Control_c, 0, 64, 76
1, 274949, Control_c, 0, 64, 127
1, 274949, Note_off_c, 0, 56, 63
1, 275004, Note_on_c, 0, 58, 94
1, 275040, Note_on_c, 0, 55, 37
1, 275075, Note_off_c, 0, 55, 51
1, 275098, Note_on_c, 0, 56, 81
1, 275100, Note_on_c, 0, 53, 82
1, 275124, Note_off_c, 0, 58, 59
1, 275181, Note_on_c, 0, 54, 66
1, 275188, Note_on_c, 0, 51, 94
1, 275191, Note_off_c, 0, 53, 59
1, 275191, Note_off_c, 0, 56, 61
1, 275236, Note_off_c, 0, 54, 65
1, 275237, Note_off_c, 0, 51, 67
1, 275283, Note_on_c, 0, 53, 92
1, 275297, Note_on_c, 0, 50, 79
1, 275342, Control_c, 0, 64, 92
1, 275354, Note_off_c, 0, 50, 62
1, 275357, Control_c, 0, 64, 69
1, 275371, Control_c, 0, 64, 62
1, 275372, Note_on_c, 0, 47, 86
1, 275373, Note_off_c, 0, 53, 65
1, 275378, Note_on_c, 0, 52, 68
1, 275386, Control_c, 0, 64, 63
1, 275401, Control_c, 0, 64, 68
1, 275409, Note_off_c, 0, 52, 67
1, 275411, Note_on_c, 0, 48, 26
1, 275411, Note_on_c, 0, 51, 25
1, 275416, Control_c, 0, 64, 82
1, 275431, Control_c, 0, 64, 127
1, 275437, Note_off_c, 0, 47, 64
1, 275441, Note_off_c, 0, 51, 32
1, 275448, Note_off_c, 0, 48, 51
1, 275472, Note_on_c, 0, 46, 89
1, 275478, Note_on_c, 0, 49, 85
1, 275504, Note_off_c, 0, 46, 64
1, 275548, Note_off_c, 0, 49, 64
1, 275549, Control_c, 0, 64, 102
1, 275560, Note_on_c, 0, 47, 93
1, 275563, Control_c, 0, 64, 68
1, 275577, Note_on_c, 0, 44, 88
1, 275578, Control_c, 0, 64, 55
1, 275593, Control_c, 0, 64, 58
1, 275604, Note_on_c, 0, 43, 62
1, 275608, Control_c, 0, 64, 67
1, 275623, Control_c, 0, 64, 89
1, 275625, Note_off_c, 0, 44, 62
1, 275630, Note_off_c, 0, 43, 58
1, 275639, Control_c, 0, 64, 127
1, 275676, Note_on_c, 0, 46, 92
1, 275683, Note_on_c, 0, 42, 92
1, 275703, Note_off_c, 0, 47, 61
1, 275732, Note_off_c, 0, 42, 64
1, 275737, Note_off_c, 0, 46, 64
1, 275804, Note_on_c, 0, 41, 97
1, 275807, Note_on_c, 0, 44, 101
1, 275840, Note_off_c, 0, 41, 68
1, 275841, Note_off_c, 0, 44, 62
1, 276117, Note_on_c, 0, 39, 104
1, 276118, Note_on_c, 0, 27, 89
1, 276135, Control_c, 0, 64, 79
1, 276150, Control_c, 0, 64, 32
1, 276165, Control_c, 0, 64, 0
1, 276224, Control_c, 0, 64, 50
1, 276239, Control_c, 0, 64, 87
1, 276252, Note_off_c, 0, 27, 62
1, 276254, Control_c, 0, 64, 127
1, 276275, Note_off_c, 0, 39, 61
1, 276515, Note_on_c, 0, 46, 90
1, 276713, Note_on_c, 0, 54, 92
1, 276770, Note_off_c, 0, 46, 61
1, 277041, Note_on_c, 0, 63, 92
1, 277305, Note_off_c, 0, 63, 60
1, 277343, Note_off_c, 0, 54, 60
1, 278163, Note_on_c, 0, 70, 82
1, 278308, Note_off_c, 0, 70, 55
1, 278398, Note_on_c, 0, 70, 86
1, 279657, Poly_aftertouch_c, 0, 68, 127
1, 279879, Control_c, 0, 64, 121
1, 279894, Control_c, 0, 64, 118
1, 279908, Control_c, 0, 64, 115
1, 279923, Control_c, 0, 64, 112
1, 279938, Control_c, 0, 64, 110
1, 279952, Control_c, 0, 64, 108
1, 279967, Control_c, 0, 64, 107
1, 279982, Control_c, 0, 64, 106
1, 279997, Control_c, 0, 64, 105
1, 280012, Control_c, 0, 64, 104
1, 280026, Control_c, 0, 64, 102
1, 280041, Control_c, 0, 64, 100
1, 280056, Control_c, 0, 64, 99
1, 280086, Control_c, 0, 64, 99
1, 280115, Control_c, 0, 64, 98
1, 280130, Control_c, 0, 64, 97
1, 280159, Control_c, 0, 64, 97
1, 280174, Control_c, 0, 64, 96
1, 280189, Control_c, 0, 64, 95
1, 280204, Control_c, 0, 64, 95
1, 280219, Control_c, 0, 64, 94
1, 280234, Control_c, 0, 64, 93
1, 280249, Control_c, 0, 64, 93
1, 280263, Control_c, 0, 64, 92
1, 280278, Control_c, 0, 64, 91
1, 280293, Control_c, 0, 64, 90
1, 280308, Control_c, 0, 64, 90
1, 280396, Control_c, 0, 64, 89
1, 280427, Control_c, 0, 64, 89
1, 280441, Control_c, 0, 64, 88
1, 280478, Control_c, 0, 64, 88
1, 280493, Control_c, 0, 64, 87
1, 280538, Control_c, 0, 64, 87
1, 280582, Control_c, 0, 64, 86
1, 280627, Control_c, 0, 64, 86
1, 280656, Control_c, 0, 64, 85
1, 280686, Control_c, 0, 64, 85
1, 280745, Control_c, 0, 64, 84
1, 280760, Control_c, 0, 64, 84
1, 280774, Control_c, 0, 64, 83
1, 280789, Control_c, 0, 64, 83
1, 280804, Control_c, 0, 64, 82
1, 280863, Control_c, 0, 64, 82
1, 280922, Control_c, 0, 64, 81
1, 280967, Control_c, 0, 64, 81
1, 281012, Control_c, 0, 64, 80
1, 281071, Control_c, 0, 64, 80
1, 281100, Control_c, 0, 64, 79
1, 281115, Control_c, 0, 64, 79
1, 281130, Control_c, 0, 64, 78
1, 281174, Control_c, 0, 64, 78
1, 281227, Control_c, 0, 64, 77
1, 281286, Control_c, 0, 64, 77
1, 281316, Control_c, 0, 64, 76
1, 281390, Control_c, 0, 64, 76
1, 281420, Control_c, 0, 64, 75
1, 281431, Note_off_c, 0, 70, 12
1, 281450, Control_c, 0, 64, 75
1, 281494, Control_c, 0, 64, 74
1, 281553, Control_c, 0, 64, 74
1, 281597, Control_c, 0, 64, 73
1, 281627, Control_c, 0, 64, 73
1, 281657, Control_c, 0, 64, 72
1, 281686, Control_c, 0, 64, 72
1, 281715, Control_c, 0, 64, 71
1, 281730, Control_c, 0, 64, 71
1, 281760, Control_c, 0, 64, 70
1, 281805, Control_c, 0, 64, 70
1, 281849, Control_c, 0, 64, 69
1, 281894, Control_c, 0, 64, 69
1, 281975, Control_c, 0, 64, 68
1, 282064, Poly_aftertouch_c, 0, 68, 0
1, 282065, Control_c, 0, 64, 68
1, 282095, Control_c, 0, 64, 67
1, 282139, Control_c, 0, 64, 67
1, 282169, Control_c, 0, 64, 66
1, 282198, Control_c, 0, 64, 66
1, 282273, Control_c, 0, 64, 65
1, 282332, Control_c, 0, 64, 65
1, 282406, Control_c, 0, 64, 64
1, 282420, Control_c, 0, 64, 64
1, 282465, Control_c, 0, 64, 63
1, 282494, Control_c, 0, 64, 63
1, 282509, Control_c, 0, 64, 62
1, 282524, Control_c, 0, 64, 62
1, 282584, Control_c, 0, 64, 61
1, 282599, Control_c, 0, 64, 61
1, 282628, Control_c, 0, 64, 60
1, 282673, Control_c, 0, 64, 60
1, 282687, Control_c, 0, 64, 59
1, 282702, Control_c, 0, 64, 59
1, 282754, Control_c, 0, 64, 58
1, 282799, Control_c, 0, 64, 58
1, 282814, Control_c, 0, 64, 57
1, 282830, Control_c, 0, 64, 56
1, 282845, Control_c, 0, 64, 55
1, 282859, Control_c, 0, 64, 54
1, 282874, Control_c, 0, 64, 54
1, 282889, Control_c, 0, 64, 53
1, 282919, Control_c, 0, 64, 53
1, 282948, Control_c, 0, 64, 52
1, 282963, Control_c, 0, 64, 52
1, 282977, Control_c, 0, 64, 51
1, 283007, Control_c, 0, 64, 51
1, 283022, Control_c, 0, 64, 50
1, 283607, Control_c, 0, 64, 51
1, 284170, Control_c, 0, 64, 51
1, 284281, Control_c, 0, 64, 52
1, 284355, Control_c, 0, 64, 52
1, 284475, Control_c, 0, 64, 53
1, 284549, Control_c, 0, 64, 53
1, 284711, Control_c, 0, 64, 54
1, 284756, Control_c, 0, 64, 54
1, 284800, Control_c, 0, 64, 55
1, 284845, Control_c, 0, 64, 55
1, 284904, Control_c, 0, 64, 56
1, 285030, Control_c, 0, 64, 56
1, 285060, Control_c, 0, 64, 57
1, 285075, Control_c, 0, 64, 57
1, 285119, Control_c, 0, 64, 58
1, 285148, Control_c, 0, 64, 58
1, 285283, Control_c, 0, 64, 59
1, 285327, Control_c, 0, 64, 59
1, 285357, Control_c, 0, 64, 60
1, 285401, Control_c, 0, 64, 60
1, 285416, Control_c, 0, 64, 61
1, 285431, Control_c, 0, 64, 62
1, 285445, Control_c, 0, 64, 62
1, 285460, Control_c, 0, 64, 63
1, 285475, Control_c, 0, 64, 63
1, 285490, Control_c, 0, 64, 64
1, 285505, Control_c, 0, 64, 65
1, 285519, Control_c, 0, 64, 66
1, 285534, Control_c, 0, 64, 68
1, 285549, Control_c, 0, 64, 70
1, 285564, Control_c, 0, 64, 72
1, 285623, Control_c, 0, 64, 72
1, 285638, Control_c, 0, 64, 71
1, 285653, Control_c, 0, 64, 70
1, 285668, Control_c, 0, 64, 69
1, 285683, Control_c, 0, 64, 68
1, 285698, Control_c, 0, 64, 67
1, 285719, Control_c, 0, 64, 66
1, 285734, Control_c, 0, 64, 66
1, 285749, Control_c, 0, 64, 65
1, 285764, Control_c, 0, 64, 65
1, 285778, Control_c, 0, 64, 64
1, 285986, Control_c, 0, 64, 65
1, 286647, Control_c, 0, 64, 64
1, 286959, Control_c, 0, 64, 64
1, 287078, Control_c, 0, 64, 63
1, 287092, Control_c, 0, 64, 63
1, 287107, Control_c, 0, 64, 62
1, 287122, Control_c, 0, 64, 61
1, 287137, Control_c, 0, 64, 60
1, 287152, Control_c, 0, 64, 57
1, 287166, Control_c, 0, 64, 55
1, 287181, Control_c, 0, 64, 53
1, 287196, Control_c, 0, 64, 51
1, 287218, Control_c, 0, 64, 50
1, 287336, Control_c, 0, 64, 51
1, 287351, Control_c, 0, 64, 51
1, 287411, Control_c, 0, 64, 52
1, 287425, Control_c, 0, 64, 53
1, 287440, Control_c, 0, 64, 53
1, 288219, Control_c, 0, 64, 54
1, 288278, Control_c, 0, 64, 54
1, 288633, Control_c, 0, 64, 54
1, 288662, Control_c, 0, 64, 53
1, 288677, Control_c, 0, 64, 53
1, 288692, Control_c, 0, 64, 52
1, 288714, Control_c, 0, 64, 52
1, 288729, Control_c, 0, 64, 51
1, 288744, Control_c, 0, 64, 50
1, 288759, Control_c, 0, 64, 50
1, 288788, Control_c, 0, 64, 49
1, 288877, Control_c, 0, 64, 50
1, 288892, Control_c, 0, 64, 51
1, 288907, Control_c, 0, 64, 51
1, 289040, Control_c, 0, 64, 52
1, 289144, Control_c, 0, 64, 51
1, 289188, Control_c, 0, 64, 50
1, 289203, Control_c, 0, 64, 49
1, 289218, Control_c, 0, 64, 46
1, 289233, Control_c, 0, 64, 39
1, 289248, Control_c, 0, 64, 28
1, 289263, Control_c, 0, 64, 11
1, 289278, Control_c, 0, 64, 0
1, 289353, End_track
0, 0, End_of_file
