0, 0, Header, 0, 1, 384
1, 0, Start_track
1, 0, Title_t, "ChopinBalladeOp52--Mizumoto     "
1, 0, Text_t, "2011 ePiano Junior Competition"
1, 0, Text_t, "captured in spring and summer 2011"
1, 0, Text_t, "http://www.piano-e-competition.com/"
1, 0, Text_t, "standard-resolution version"
1, 0, Text_t, "File processed for distribution with software designed and coded by Dr. John Q. Walker, founder of Zenph Sound Innovations"
1, 0, Instrument_name_t, "Yamaha Disklavier Pro Mark IV concert grand piano, model DCFIIISM4PRO"
1, 0, Sequencer_specific, 39, 67, 113, 0, 1, 0, 1, 0, 67, 104, 111, 112, 105, 110, 66, 97, 108, 108, 97, 100, 101, 79, 112, 53, 87, 101, 115, 116, 111, 110, 32, 77, 105, 122, 117, 109, 111, 116, 111, 32
1, 0, Sequencer_specific, 6, 67, 113, 0, 0, 0, 69
1, 0, System_exclusive, 21, 67, 113, 126, 21, 0, 2, 2, 2, 5, 12, 8, 4, 14, 0, 15, 10, 8, 9, 12, 1, 247
1, 0, Sequencer_specific, 5, 67, 123, 12, 2, 1
1, 0, Tempo, 512820
1, 0, Time_signature, 4, 2, 24, 8
1, 0, System_exclusive, 5, 126, 127, 9, 1, 247
1, 1, System_exclusive, 8, 67, 16, 76, 0, 0, 126, 0, 247
1, 2, System_exclusive, 8, 67, 16, 76, 8, 9, 7, 1, 247
1, 3, Control_c, 0, 0, 108
1, 3, Control_c, 1, 0, 108
1, 3, Control_c, 2, 0, 0
1, 3, Control_c, 3, 0, 0
1, 3, Control_c, 4, 0, 0
1, 3, Control_c, 5, 0, 0
1, 3, Control_c, 6, 0, 0
1, 3, Control_c, 7, 0, 0
1, 3, Control_c, 8, 0, 0
1, 3, Control_c, 9, 0, 127
1, 3, Control_c, 10, 0, 0
1, 3, Control_c, 11, 0, 0
1, 3, Control_c, 12, 0, 0
1, 3, Control_c, 13, 0, 0
1, 3, Control_c, 14, 0, 0
1, 3, Control_c, 15, 0, 0
1, 4, Control_c, 0, 32, 0
1, 4, Control_c, 1, 32, 0
1, 4, Control_c, 2, 32, 0
1, 4, Control_c, 3, 32, 0
1, 4, Control_c, 4, 32, 0
1, 4, Control_c, 5, 32, 0
1, 4, Control_c, 6, 32, 0
1, 4, Control_c, 7, 32, 0
1, 4, Control_c, 8, 32, 0
1, 4, Control_c, 9, 32, 0
1, 4, Control_c, 10, 32, 0
1, 4, Control_c, 11, 32, 0
1, 4, Control_c, 12, 32, 0
1, 4, Control_c, 13, 32, 0
1, 4, Control_c, 14, 32, 0
1, 4, Control_c, 15, 32, 0
1, 5, Program_c, 0, 0
1, 5, Program_c, 1, 0
1, 5, Program_c, 2, 0
1, 5, Program_c, 3, 0
1, 5, Program_c, 4, 0
1, 5, Program_c, 5, 0
1, 5, Program_c, 6, 0
1, 5, Program_c, 7, 0
1, 5, Program_c, 8, 0
1, 5, Program_c, 9, 0
1, 5, Program_c, 10, 0
1, 5, Program_c, 11, 0
1, 5, Program_c, 12, 0
1, 5, Program_c, 13, 0
1, 5, Program_c, 14, 0
1, 5, Program_c, 15, 0
1, 6, Control_c, 0, 7, 100
1, 6, Control_c, 1, 7, 100
1, 6, Control_c, 2, 7, 100
1, 6, Control_c, 3, 7, 100
1, 6, Control_c, 4, 7, 100
1, 6, Control_c, 5, 7, 100
1, 6, Control_c, 6, 7, 100
1, 6, Control_c, 7, 7, 100
1, 6, Control_c, 8, 7, 100
1, 6, Control_c, 9, 7, 100
1, 6, Control_c, 10, 7, 100
1, 6, Control_c, 11, 7, 100
1, 6, Control_c, 12, 7, 100
1, 6, Control_c, 13, 7, 100
1, 6, Control_c, 14, 7, 100
1, 6, Control_c, 15, 7, 100
1, 42, Control_c, 0, 64, 15
1, 79, Control_c, 0, 64, 31
1, 116, Control_c, 0, 64, 46
1, 153, Control_c, 0, 64, 63
1, 190, Control_c, 0, 64, 77
1, 226, Control_c, 0, 64, 94
1, 263, Control_c, 0, 64, 108
1, 300, Control_c, 0, 64, 127
1, 387, Note_on_c, 0, 79, 32
1, 410, Note_on_c, 0, 67, 9
1, 609, Note_off_c, 0, 79, 43
1, 648, Note_off_c, 0, 67, 42
1, 950, Note_on_c, 0, 79, 30
1, 985, Poly_aftertouch_c, 0, 67, 127
1, 1094, Note_off_c, 0, 79, 47
1, 1136, Poly_aftertouch_c, 0, 67, 0
1, 1413, Note_on_c, 0, 79, 29
1, 1414, Note_on_c, 0, 67, 15
1, 1540, Note_off_c, 0, 79, 46
1, 1565, Note_off_c, 0, 67, 41
1, 1874, Note_on_c, 0, 64, 22
1, 1889, Note_on_c, 0, 79, 37
1, 1907, Note_on_c, 0, 67, 15
1, 2065, Note_off_c, 0, 79, 47
1, 2074, Note_off_c, 0, 67, 41
1, 2084, Note_off_c, 0, 64, 39
1, 2087, Note_on_c, 0, 72, 33
1, 2273, Note_on_c, 0, 79, 48
1, 2274, Note_off_c, 0, 72, 41
1, 2298, Note_on_c, 0, 67, 27
1, 2320, Note_on_c, 0, 64, 19
1, 2429, Note_off_c, 0, 79, 59
1, 2470, Note_on_c, 0, 72, 45
1, 2470, Note_off_c, 0, 67, 46
1, 2639, Note_off_c, 0, 64, 41
1, 2647, Note_off_c, 0, 72, 62
1, 2651, Note_on_c, 0, 62, 41
1, 2657, Note_on_c, 0, 79, 56
1, 2677, Note_on_c, 0, 67, 29
1, 2801, Note_off_c, 0, 79, 60
1, 2803, Note_off_c, 0, 62, 63
1, 2823, Note_on_c, 0, 72, 55
1, 2845, Note_off_c, 0, 67, 40
1, 3010, Note_on_c, 0, 79, 64
1, 3032, Note_on_c, 0, 62, 45
1, 3035, Note_on_c, 0, 67, 44
1, 3035, Note_off_c, 0, 72, 63
1, 3168, Note_off_c, 0, 79, 59
1, 3186, Note_on_c, 0, 72, 53
1, 3202, Note_on_c, 0, 70, 58
1, 3229, Note_off_c, 0, 67, 50
1, 3399, Note_on_c, 0, 79, 77
1, 3412, Note_on_c, 0, 60, 43
1, 3420, Note_on_c, 0, 67, 49
1, 3436, Control_c, 0, 64, 106
1, 3445, Note_off_c, 0, 72, 58
1, 3450, Note_off_c, 0, 70, 49
1, 3451, Control_c, 0, 64, 72
1, 3461, Note_off_c, 0, 62, 53
1, 3466, Control_c, 0, 64, 59
1, 3481, Control_c, 0, 64, 56
1, 3495, Control_c, 0, 64, 58
1, 3510, Control_c, 0, 64, 64
1, 3525, Control_c, 0, 64, 71
1, 3540, Control_c, 0, 64, 85
1, 3555, Control_c, 0, 64, 127
1, 3581, Note_on_c, 0, 70, 59
1, 3582, Note_on_c, 0, 72, 52
1, 3613, Note_off_c, 0, 79, 59
1, 3635, Note_off_c, 0, 67, 38
1, 3677, Note_off_c, 0, 60, 64
1, 3805, Note_on_c, 0, 79, 75
1, 3825, Note_on_c, 0, 67, 50
1, 3870, Note_off_c, 0, 70, 62
1, 3885, Note_off_c, 0, 72, 57
1, 4010, Note_off_c, 0, 79, 61
1, 4024, Note_on_c, 0, 70, 53
1, 4037, Note_on_c, 0, 72, 54
1, 4039, Note_off_c, 0, 67, 59
1, 4353, Note_on_c, 0, 41, 28
1, 4371, Note_on_c, 0, 79, 61
1, 4391, Note_on_c, 0, 67, 29
1, 4392, Control_c, 0, 64, 76
1, 4407, Control_c, 0, 64, 57
1, 4422, Control_c, 0, 64, 31
1, 4437, Control_c, 0, 64, 33
1, 4451, Control_c, 0, 64, 47
1, 4466, Control_c, 0, 64, 61
1, 4481, Control_c, 0, 64, 68
1, 4489, Note_off_c, 0, 70, 60
1, 4496, Control_c, 0, 64, 79
1, 4498, Note_off_c, 0, 72, 53
1, 4511, Control_c, 0, 64, 109
1, 4526, Control_c, 0, 64, 127
1, 4528, Note_off_c, 0, 41, 57
1, 4620, Note_off_c, 0, 79, 57
1, 4681, Note_off_c, 0, 67, 51
1, 4697, Note_on_c, 0, 72, 51
1, 4700, Note_on_c, 0, 69, 40
1, 4726, Note_on_c, 0, 60, 31
1, 4888, Note_on_c, 0, 77, 68
1, 4901, Note_on_c, 0, 57, 45
1, 4902, Note_off_c, 0, 60, 42
1, 4905, Note_on_c, 0, 65, 51
1, 4929, Note_off_c, 0, 72, 58
1, 4940, Note_off_c, 0, 69, 55
1, 5032, Note_off_c, 0, 77, 62
1, 5033, Note_off_c, 0, 57, 56
1, 5041, Note_off_c, 0, 65, 60
1, 5058, Note_on_c, 0, 60, 38
1, 5065, Note_on_c, 0, 72, 48
1, 5067, Note_on_c, 0, 69, 51
1, 5186, Control_c, 0, 64, 91
1, 5201, Control_c, 0, 64, 68
1, 5213, Note_off_c, 0, 60, 50
1, 5215, Note_on_c, 0, 76, 61
1, 5215, Control_c, 0, 64, 56
1, 5230, Control_c, 0, 64, 55
1, 5237, Note_on_c, 0, 50, 38
1, 5243, Note_on_c, 0, 64, 41
1, 5245, Control_c, 0, 64, 58
1, 5259, Control_c, 0, 64, 64
1, 5274, Note_off_c, 0, 69, 57
1, 5274, Control_c, 0, 64, 73
1, 5275, Note_off_c, 0, 72, 56
1, 5289, Control_c, 0, 64, 86
1, 5304, Control_c, 0, 64, 127
1, 5347, Note_off_c, 0, 50, 55
1, 5381, Note_off_c, 0, 76, 62
1, 5393, Note_off_c, 0, 64, 57
1, 5408, Note_on_c, 0, 69, 49
1, 5408, Note_on_c, 0, 72, 37
1, 5432, Poly_aftertouch_c, 0, 60, 127
1, 5456, Poly_aftertouch_c, 0, 60, 0
1, 5550, Control_c, 0, 64, 79
1, 5564, Control_c, 0, 64, 60
1, 5579, Control_c, 0, 64, 52
1, 5584, Note_on_c, 0, 76, 58
1, 5594, Control_c, 0, 64, 54
1, 5599, Note_on_c, 0, 43, 35
1, 5602, Note_on_c, 0, 64, 38
1, 5605, Note_off_c, 0, 72, 46
1, 5609, Control_c, 0, 64, 59
1, 5610, Note_off_c, 0, 69, 55
1, 5624, Control_c, 0, 64, 66
1, 5638, Control_c, 0, 64, 74
1, 5653, Note_off_c, 0, 43, 63
1, 5653, Control_c, 0, 64, 94
1, 5668, Control_c, 0, 64, 127
1, 5720, Note_off_c, 0, 76, 62
1, 5754, Note_off_c, 0, 64, 60
1, 5767, Note_on_c, 0, 55, 45
1, 5777, Note_on_c, 0, 71, 40
1, 5792, Note_on_c, 0, 67, 35
1, 5906, Note_off_c, 0, 55, 37
1, 5950, Note_on_c, 0, 74, 59
1, 5950, Control_c, 0, 64, 77
1, 5956, Note_on_c, 0, 59, 27
1, 5959, Note_off_c, 0, 67, 56
1, 5962, Note_on_c, 0, 53, 37
1, 5964, Control_c, 0, 64, 59
1, 5968, Note_on_c, 0, 62, 24
1, 5979, Control_c, 0, 64, 37
1, 5994, Control_c, 0, 64, 35
1, 6008, Control_c, 0, 64, 40
1, 6023, Control_c, 0, 64, 59
1, 6038, Control_c, 0, 64, 66
1, 6053, Control_c, 0, 64, 73
1, 6068, Control_c, 0, 64, 86
1, 6090, Control_c, 0, 64, 115
1, 6093, Note_off_c, 0, 71, 34
1, 6105, Control_c, 0, 64, 127
1, 6127, Note_on_c, 0, 67, 44
1, 6131, Note_off_c, 0, 62, 36
1, 6133, Note_off_c, 0, 53, 37
1, 6143, Note_on_c, 0, 55, 40
1, 6187, Note_off_c, 0, 59, 38
1, 6337, Note_off_c, 0, 67, 52
1, 6341, Note_on_c, 0, 52, 42
1, 6342, Note_on_c, 0, 72, 48
1, 6343, Control_c, 0, 64, 79
1, 6357, Note_on_c, 0, 60, 33
1, 6358, Control_c, 0, 64, 60
1, 6359, Note_off_c, 0, 55, 36
1, 6368, Note_off_c, 0, 74, 47
1, 6373, Control_c, 0, 64, 12
1, 6387, Control_c, 0, 64, 0
1, 6417, Control_c, 0, 64, 33
1, 6431, Control_c, 0, 64, 57
1, 6446, Control_c, 0, 64, 65
1, 6461, Control_c, 0, 64, 69
1, 6476, Control_c, 0, 64, 73
1, 6491, Control_c, 0, 64, 79
1, 6505, Control_c, 0, 64, 83
1, 6520, Control_c, 0, 64, 88
1, 6532, Note_off_c, 0, 52, 57
1, 6535, Control_c, 0, 64, 94
1, 6550, Control_c, 0, 64, 105
1, 6561, Note_on_c, 0, 67, 39
1, 6565, Note_off_c, 0, 60, 41
1, 6565, Control_c, 0, 64, 127
1, 6589, Note_on_c, 0, 55, 28
1, 6845, Note_on_c, 0, 48, 34
1, 6897, Note_on_c, 0, 64, 35
1, 6901, Note_on_c, 0, 76, 54
1, 6913, Control_c, 0, 64, 100
1, 6928, Control_c, 0, 64, 78
1, 6944, Control_c, 0, 64, 62
1, 6946, Note_off_c, 0, 72, 61
1, 6958, Control_c, 0, 64, 0
1, 6973, Note_off_c, 0, 67, 45
1, 6977, Note_off_c, 0, 55, 42
1, 7018, Control_c, 0, 64, 45
1, 7033, Control_c, 0, 64, 60
1, 7048, Control_c, 0, 64, 65
1, 7062, Control_c, 0, 64, 68
1, 7077, Control_c, 0, 64, 70
1, 7092, Control_c, 0, 64, 72
1, 7107, Control_c, 0, 64, 76
1, 7122, Control_c, 0, 64, 79
1, 7136, Control_c, 0, 64, 84
1, 7151, Control_c, 0, 64, 92
1, 7166, Control_c, 0, 64, 101
1, 7181, Control_c, 0, 64, 111
1, 7188, Note_on_c, 0, 67, 37
1, 7193, Note_on_c, 0, 55, 31
1, 7194, Note_on_c, 0, 72, 36
1, 7196, Control_c, 0, 64, 117
1, 7210, Control_c, 0, 64, 118
1, 7239, Note_off_c, 0, 64, 33
1, 7314, Control_c, 0, 64, 117
1, 7328, Control_c, 0, 64, 116
1, 7343, Control_c, 0, 64, 115
1, 7355, Note_off_c, 0, 72, 45
1, 7358, Control_c, 0, 64, 114
1, 7360, Note_off_c, 0, 67, 51
1, 7373, Note_off_c, 0, 55, 46
1, 7373, Control_c, 0, 64, 113
1, 7377, Note_on_c, 0, 64, 37
1, 7379, Note_on_c, 0, 60, 36
1, 7388, Control_c, 0, 64, 111
1, 7403, Control_c, 0, 64, 110
1, 7417, Control_c, 0, 64, 107
1, 7432, Control_c, 0, 64, 105
1, 7447, Control_c, 0, 64, 105
1, 7462, Control_c, 0, 64, 104
1, 7477, Control_c, 0, 64, 101
1, 7492, Control_c, 0, 64, 98
1, 7507, Control_c, 0, 64, 94
1, 7522, Control_c, 0, 64, 91
1, 7536, Control_c, 0, 64, 88
1, 7551, Control_c, 0, 64, 85
1, 7566, Control_c, 0, 64, 83
1, 7576, Note_on_c, 0, 72, 33
1, 7576, Note_off_c, 0, 64, 37
1, 7588, Control_c, 0, 64, 82
1, 7595, Note_on_c, 0, 57, 36
1, 7599, Note_on_c, 0, 65, 27
1, 7603, Control_c, 0, 64, 80
1, 7607, Note_off_c, 0, 60, 42
1, 7617, Control_c, 0, 64, 79
1, 7632, Control_c, 0, 64, 77
1, 7647, Control_c, 0, 64, 76
1, 7662, Control_c, 0, 64, 75
1, 7677, Control_c, 0, 64, 75
1, 7692, Control_c, 0, 64, 74
1, 7707, Control_c, 0, 64, 74
1, 7841, Control_c, 0, 64, 73
1, 7850, Note_on_c, 0, 55, 28
1, 7851, Note_on_c, 0, 64, 28
1, 7856, Control_c, 0, 64, 68
1, 7868, Note_off_c, 0, 72, 40
1, 7871, Control_c, 0, 64, 60
1, 7885, Control_c, 0, 64, 36
1, 7888, Note_off_c, 0, 57, 36
1, 7900, Control_c, 0, 64, 24
1, 7913, Note_off_c, 0, 65, 41
1, 7930, Control_c, 0, 64, 34
1, 7945, Control_c, 0, 64, 51
1, 7959, Control_c, 0, 64, 61
1, 7974, Control_c, 0, 64, 66
1, 7989, Control_c, 0, 64, 70
1, 8004, Control_c, 0, 64, 74
1, 8019, Control_c, 0, 64, 79
1, 8033, Control_c, 0, 64, 84
1, 8048, Control_c, 0, 64, 90
1, 8063, Control_c, 0, 64, 97
1, 8078, Control_c, 0, 64, 115
1, 8087, Note_off_c, 0, 55, 53
1, 8092, Control_c, 0, 64, 127
1, 8096, Note_off_c, 0, 48, 47
1, 8124, Note_off_c, 0, 64, 39
1, 8130, Note_off_c, 0, 76, 55
1, 8136, Note_on_c, 0, 72, 45
1, 8153, Note_on_c, 0, 67, 35
1, 8244, Note_off_c, 0, 72, 58
1, 8266, Note_off_c, 0, 67, 59
1, 8346, Note_on_c, 0, 64, 46
1, 8435, Note_off_c, 0, 64, 60
1, 8559, Note_on_c, 0, 36, 27
1, 8652, Note_on_c, 0, 79, 63
1, 8655, Note_off_c, 0, 36, 56
1, 8899, Note_on_c, 0, 72, 51
1, 8909, Note_on_c, 0, 55, 47
1, 8966, Note_off_c, 0, 79, 61
1, 9083, Note_on_c, 0, 79, 77
1, 9104, Note_on_c, 0, 60, 46
1, 9120, Note_on_c, 0, 67, 48
1, 9132, Note_off_c, 0, 72, 63
1, 9248, Note_off_c, 0, 60, 57
1, 9251, Note_off_c, 0, 79, 57
1, 9262, Note_on_c, 0, 62, 56
1, 9264, Note_on_c, 0, 72, 59
1, 9269, Note_on_c, 0, 70, 59
1, 9329, Note_off_c, 0, 67, 33
1, 9361, Note_off_c, 0, 62, 51
1, 9376, Note_off_c, 0, 55, 59
1, 9435, Note_on_c, 0, 79, 79
1, 9447, Note_on_c, 0, 67, 60
1, 9452, Note_on_c, 0, 64, 52
1, 9468, Note_off_c, 0, 72, 60
1, 9481, Note_off_c, 0, 70, 60
1, 9483, Note_off_c, 0, 64, 65
1, 9599, Note_off_c, 0, 79, 55
1, 9604, Note_on_c, 0, 70, 57
1, 9608, Note_off_c, 0, 67, 52
1, 9609, Note_on_c, 0, 72, 46
1, 9812, Control_c, 0, 64, 119
1, 9813, Note_on_c, 0, 41, 43
1, 9817, Note_on_c, 0, 79, 66
1, 9835, Control_c, 0, 64, 73
1, 9850, Note_on_c, 0, 67, 25
1, 9850, Control_c, 0, 64, 41
1, 9864, Control_c, 0, 64, 18
1, 9879, Control_c, 0, 64, 24
1, 9894, Control_c, 0, 64, 48
1, 9902, Note_off_c, 0, 72, 62
1, 9909, Note_off_c, 0, 70, 62
1, 9909, Control_c, 0, 64, 63
1, 9924, Control_c, 0, 64, 72
1, 9930, Note_off_c, 0, 41, 65
1, 9938, Control_c, 0, 64, 103
1, 9953, Control_c, 0, 64, 127
1, 10018, Note_off_c, 0, 67, 61
1, 10030, Note_off_c, 0, 79, 50
1, 10038, Note_on_c, 0, 72, 54
1, 10043, Note_on_c, 0, 69, 45
1, 10061, Note_on_c, 0, 60, 39
1, 10142, Note_off_c, 0, 60, 0
1, 10179, Poly_aftertouch_c, 0, 60, 127
1, 10199, Note_on_c, 0, 77, 67
1, 10211, Note_on_c, 0, 57, 46
1, 10217, Note_on_c, 0, 65, 41
1, 10221, Poly_aftertouch_c, 0, 60, 0
1, 10225, Note_off_c, 0, 72, 61
1, 10272, Note_off_c, 0, 69, 38
1, 10339, Note_off_c, 0, 77, 61
1, 10342, Note_off_c, 0, 65, 57
1, 10355, Note_on_c, 0, 69, 44
1, 10357, Note_on_c, 0, 60, 15
1, 10363, Note_on_c, 0, 72, 42
1, 10445, Note_off_c, 0, 57, 21
1, 10487, Control_c, 0, 64, 86
1, 10502, Control_c, 0, 64, 61
1, 10517, Control_c, 0, 64, 34
1, 10528, Note_on_c, 0, 50, 39
1, 10532, Note_on_c, 0, 76, 58
1, 10532, Control_c, 0, 64, 32
1, 10537, Note_off_c, 0, 60, 38
1, 10544, Note_on_c, 0, 64, 38
1, 10547, Control_c, 0, 64, 38
1, 10561, Control_c, 0, 64, 54
1, 10568, Note_off_c, 0, 72, 55
1, 10577, Note_off_c, 0, 69, 50
1, 10583, Control_c, 0, 64, 63
1, 10598, Control_c, 0, 64, 70
1, 10613, Control_c, 0, 64, 78
1, 10628, Control_c, 0, 64, 90
1, 10643, Control_c, 0, 64, 111
1, 10658, Control_c, 0, 64, 127
1, 10688, Note_off_c, 0, 50, 34
1, 10689, Note_off_c, 0, 76, 59
1, 10696, Note_off_c, 0, 64, 51
1, 10710, Note_on_c, 0, 60, 14
1, 10712, Note_on_c, 0, 69, 47
1, 10729, Note_on_c, 0, 72, 31
1, 10755, Note_off_c, 0, 60, 39
1, 10894, Control_c, 0, 64, 82
1, 10909, Control_c, 0, 64, 68
1, 10910, Note_on_c, 0, 76, 51
1, 10916, Note_off_c, 0, 69, 50
1, 10918, Note_on_c, 0, 43, 23
1, 10924, Note_off_c, 0, 72, 44
1, 10925, Control_c, 0, 64, 61
1, 10937, Note_on_c, 0, 64, 26
1, 10940, Control_c, 0, 64, 61
1, 10955, Control_c, 0, 64, 63
1, 10970, Control_c, 0, 64, 68
1, 10981, Note_off_c, 0, 43, 60
1, 10984, Control_c, 0, 64, 73
1, 10999, Control_c, 0, 64, 81
1, 11014, Control_c, 0, 64, 89
1, 11029, Control_c, 0, 64, 95
1, 11044, Control_c, 0, 64, 98
1, 11057, Note_off_c, 0, 76, 60
1, 11058, Control_c, 0, 64, 99
1, 11073, Control_c, 0, 64, 99
1, 11088, Control_c, 0, 64, 100
1, 11101, Note_off_c, 0, 64, 46
1, 11102, Control_c, 0, 64, 104
1, 11117, Control_c, 0, 64, 113
1, 11122, Note_on_c, 0, 67, 34
1, 11129, Note_on_c, 0, 55, 31
1, 11131, Note_on_c, 0, 71, 18
1, 11132, Control_c, 0, 64, 127
1, 11215, Note_off_c, 0, 55, 40
1, 11266, Control_c, 0, 64, 99
1, 11276, Note_on_c, 0, 74, 55
1, 11281, Control_c, 0, 64, 76
1, 11295, Control_c, 0, 64, 65
1, 11296, Note_on_c, 0, 53, 37
1, 11300, Note_off_c, 0, 67, 43
1, 11303, Note_on_c, 0, 59, 4
1, 11308, Note_on_c, 0, 62, 18
1, 11310, Control_c, 0, 64, 62
1, 11332, Control_c, 0, 64, 63
1, 11347, Control_c, 0, 64, 65
1, 11362, Control_c, 0, 64, 69
1, 11377, Control_c, 0, 64, 74
1, 11392, Control_c, 0, 64, 82
1, 11407, Control_c, 0, 64, 89
1, 11412, Note_off_c, 0, 71, 41
1, 11422, Control_c, 0, 64, 94
1, 11427, Note_off_c, 0, 62, 38
1, 11434, Note_off_c, 0, 59, 38
1, 11437, Control_c, 0, 64, 99
1, 11442, Note_on_c, 0, 67, 43
1, 11452, Control_c, 0, 64, 101
1, 11458, Note_on_c, 0, 55, 38
1, 11459, Note_off_c, 0, 53, 34
1, 11466, Control_c, 0, 64, 103
1, 11481, Control_c, 0, 64, 105
1, 11496, Control_c, 0, 64, 111
1, 11510, Control_c, 0, 64, 127
1, 11615, Control_c, 0, 64, 111
1, 11629, Control_c, 0, 64, 84
1, 11644, Note_on_c, 0, 72, 43
1, 11644, Note_off_c, 0, 67, 37
1, 11644, Control_c, 0, 64, 68
1, 11645, Note_on_c, 0, 52, 45
1, 11659, Control_c, 0, 64, 57
1, 11665, Note_on_c, 0, 60, 35
1, 11665, Note_off_c, 0, 74, 32
1, 11674, Note_off_c, 0, 55, 40
1, 11674, Control_c, 0, 64, 50
1, 11689, Control_c, 0, 64, 51
1, 11703, Control_c, 0, 64, 58
1, 11718, Control_c, 0, 64, 64
1, 11734, Control_c, 0, 64, 68
1, 11749, Control_c, 0, 64, 73
1, 11764, Control_c, 0, 64, 79
1, 11779, Control_c, 0, 64, 85
1, 11793, Control_c, 0, 64, 92
1, 11799, Note_off_c, 0, 60, 55
1, 11808, Control_c, 0, 64, 102
1, 11817, Note_off_c, 0, 52, 58
1, 11823, Control_c, 0, 64, 111
1, 11829, Note_on_c, 0, 67, 34
1, 11838, Control_c, 0, 64, 127
1, 11849, Note_on_c, 0, 55, 33
1, 12080, Note_on_c, 0, 48, 26
1, 12082, Control_c, 0, 64, 121
1, 12097, Control_c, 0, 64, 112
1, 12112, Control_c, 0, 64, 106
1, 12125, Control_c, 0, 64, 99
1, 12136, Note_on_c, 0, 76, 52
1, 12140, Control_c, 0, 64, 86
1, 12155, Control_c, 0, 64, 70
1, 12162, Note_on_c, 0, 64, 33
1, 12170, Control_c, 0, 64, 54
1, 12184, Note_off_c, 0, 55, 42
1, 12185, Control_c, 0, 64, 34
1, 12189, Note_off_c, 0, 72, 58
1, 12199, Control_c, 0, 64, 28
1, 12206, Note_off_c, 0, 67, 37
1, 12214, Control_c, 0, 64, 29
1, 12229, Control_c, 0, 64, 44
1, 12244, Control_c, 0, 64, 58
1, 12258, Control_c, 0, 64, 64
1, 12273, Control_c, 0, 64, 68
1, 12288, Control_c, 0, 64, 70
1, 12303, Control_c, 0, 64, 73
1, 12318, Control_c, 0, 64, 75
1, 12333, Control_c, 0, 64, 76
1, 12348, Control_c, 0, 64, 77
1, 12363, Control_c, 0, 64, 78
1, 12375, Note_on_c, 0, 55, 28
1, 12378, Control_c, 0, 64, 79
1, 12393, Control_c, 0, 64, 79
1, 12395, Note_on_c, 0, 67, 25
1, 12396, Note_on_c, 0, 72, 33
1, 12405, Note_off_c, 0, 64, 40
1, 12407, Control_c, 0, 64, 80
1, 12451, Control_c, 0, 64, 79
1, 12466, Control_c, 0, 64, 79
1, 12481, Control_c, 0, 64, 78
1, 12511, Control_c, 0, 64, 78
1, 12542, Control_c, 0, 64, 77
1, 12548, Note_off_c, 0, 55, 38
1, 12550, Note_off_c, 0, 67, 53
1, 12551, Note_off_c, 0, 72, 44
1, 12557, Note_on_c, 0, 60, 31
1, 12557, Note_on_c, 0, 64, 33
1, 12571, Control_c, 0, 64, 76
1, 12586, Control_c, 0, 64, 76
1, 12601, Control_c, 0, 64, 75
1, 12616, Control_c, 0, 64, 74
1, 12630, Control_c, 0, 64, 73
1, 12645, Control_c, 0, 64, 73
1, 12660, Control_c, 0, 64, 72
1, 12690, Control_c, 0, 64, 72
1, 12704, Control_c, 0, 64, 71
1, 12719, Control_c, 0, 64, 71
1, 12734, Control_c, 0, 64, 70
1, 12744, Note_on_c, 0, 57, 40
1, 12748, Control_c, 0, 64, 69
1, 12749, Note_on_c, 0, 65, 31
1, 12752, Note_on_c, 0, 72, 28
1, 12763, Control_c, 0, 64, 69
1, 12768, Note_off_c, 0, 64, 35
1, 12773, Note_off_c, 0, 60, 41
1, 12778, Control_c, 0, 64, 68
1, 12793, Control_c, 0, 64, 67
1, 12808, Control_c, 0, 64, 64
1, 12830, Control_c, 0, 64, 57
1, 12845, Control_c, 0, 64, 42
1, 12860, Control_c, 0, 64, 10
1, 12874, Control_c, 0, 64, 0
1, 12903, Control_c, 0, 64, 24
1, 12918, Control_c, 0, 64, 48
1, 12933, Control_c, 0, 64, 59
1, 12947, Note_off_c, 0, 57, 56
1, 12947, Control_c, 0, 64, 63
1, 12952, Note_on_c, 0, 55, 35
1, 12956, Note_off_c, 0, 72, 43
1, 12962, Control_c, 0, 64, 66
1, 12965, Note_off_c, 0, 65, 42
1, 12968, Note_on_c, 0, 64, 22
1, 12977, Control_c, 0, 64, 69
1, 12992, Control_c, 0, 64, 72
1, 13007, Control_c, 0, 64, 78
1, 13022, Control_c, 0, 64, 86
1, 13036, Control_c, 0, 64, 98
1, 13051, Control_c, 0, 64, 127
1, 13126, Note_off_c, 0, 55, 49
1, 13132, Note_off_c, 0, 76, 58
1, 13134, Note_off_c, 0, 48, 54
1, 13171, Note_off_c, 0, 64, 40
1, 13175, Note_on_c, 0, 72, 33
1, 13179, Note_on_c, 0, 67, 35
1, 13442, Note_on_c, 0, 76, 51
1, 13443, Note_on_c, 0, 43, 31
1, 13452, Control_c, 0, 64, 84
1, 13467, Control_c, 0, 64, 66
1, 13469, Note_off_c, 0, 67, 33
1, 13475, Note_on_c, 0, 64, 25
1, 13482, Control_c, 0, 64, 56
1, 13496, Control_c, 0, 64, 55
1, 13511, Control_c, 0, 64, 57
1, 13526, Control_c, 0, 64, 61
1, 13541, Control_c, 0, 64, 65
1, 13556, Control_c, 0, 64, 69
1, 13578, Control_c, 0, 64, 75
1, 13582, Note_off_c, 0, 43, 59
1, 13585, Note_off_c, 0, 72, 41
1, 13593, Control_c, 0, 64, 80
1, 13608, Control_c, 0, 64, 85
1, 13623, Control_c, 0, 64, 88
1, 13638, Control_c, 0, 64, 90
1, 13642, Note_off_c, 0, 76, 60
1, 13652, Control_c, 0, 64, 90
1, 13660, Note_off_c, 0, 64, 46
1, 13682, Control_c, 0, 64, 91
1, 13691, Note_on_c, 0, 67, 32
1, 13691, Note_on_c, 0, 71, 37
1, 13697, Control_c, 0, 64, 92
1, 13698, Note_on_c, 0, 55, 42
1, 13711, Control_c, 0, 64, 93
1, 13821, Note_off_c, 0, 55, 48
1, 13860, Note_on_c, 0, 74, 56
1, 13871, Note_off_c, 0, 67, 43
1, 13873, Note_on_c, 0, 59, 32
1, 13874, Control_c, 0, 64, 93
1, 13889, Control_c, 0, 64, 92
1, 13890, Note_on_c, 0, 62, 32
1, 13894, Note_on_c, 0, 53, 41
1, 13919, Control_c, 0, 64, 92
1, 13934, Control_c, 0, 64, 91
1, 13952, Note_off_c, 0, 71, 30
1, 13993, Control_c, 0, 64, 91
1, 14008, Control_c, 0, 64, 90
1, 14020, Note_off_c, 0, 62, 37
1, 14023, Control_c, 0, 64, 90
1, 14033, Note_off_c, 0, 53, 48
1, 14038, Control_c, 0, 64, 89
1, 14043, Note_off_c, 0, 59, 35
1, 14052, Control_c, 0, 64, 88
1, 14067, Control_c, 0, 64, 88
1, 14070, Note_on_c, 0, 67, 38
1, 14074, Note_on_c, 0, 55, 31
1, 14111, Control_c, 0, 64, 87
1, 14142, Control_c, 0, 64, 87
1, 14157, Control_c, 0, 64, 86
1, 14172, Control_c, 0, 64, 86
1, 14187, Control_c, 0, 64, 85
1, 14201, Control_c, 0, 64, 85
1, 14275, Control_c, 0, 64, 84
1, 14280, Note_on_c, 0, 72, 43
1, 14290, Control_c, 0, 64, 82
1, 14294, Note_on_c, 0, 52, 41
1, 14302, Note_off_c, 0, 74, 32
1, 14305, Control_c, 0, 64, 74
1, 14321, Note_on_c, 0, 60, 27
1, 14321, Note_off_c, 0, 67, 37
1, 14327, Control_c, 0, 64, 66
1, 14342, Control_c, 0, 64, 60
1, 14351, Note_off_c, 0, 55, 41
1, 14357, Control_c, 0, 64, 55
1, 14371, Control_c, 0, 64, 54
1, 14386, Control_c, 0, 64, 56
1, 14400, Control_c, 0, 64, 60
1, 14415, Control_c, 0, 64, 64
1, 14430, Control_c, 0, 64, 66
1, 14445, Control_c, 0, 64, 68
1, 14460, Control_c, 0, 64, 69
1, 14474, Control_c, 0, 64, 71
1, 14489, Control_c, 0, 64, 74
1, 14504, Control_c, 0, 64, 78
1, 14516, Note_off_c, 0, 52, 55
1, 14519, Control_c, 0, 64, 82
1, 14521, Note_off_c, 0, 60, 41
1, 14530, Note_on_c, 0, 67, 30
1, 14533, Control_c, 0, 64, 87
1, 14538, Note_on_c, 0, 55, 27
1, 14548, Control_c, 0, 64, 94
1, 14563, Control_c, 0, 64, 101
1, 14578, Control_c, 0, 64, 106
1, 14593, Control_c, 0, 64, 109
1, 14652, Control_c, 0, 64, 110
1, 14667, Control_c, 0, 64, 110
1, 14682, Control_c, 0, 64, 111
1, 14697, Control_c, 0, 64, 111
1, 14845, Control_c, 0, 64, 111
1, 14860, Control_c, 0, 64, 110
1, 14874, Control_c, 0, 64, 109
1, 14889, Control_c, 0, 64, 109
1, 14904, Control_c, 0, 64, 108
1, 14920, Control_c, 0, 64, 107
1, 14921, Note_on_c, 0, 48, 33
1, 14935, Control_c, 0, 64, 107
1, 14940, Note_on_c, 0, 76, 46
1, 14949, Control_c, 0, 64, 106
1, 14964, Control_c, 0, 64, 105
1, 14977, Note_on_c, 0, 64, 31
1, 14979, Control_c, 0, 64, 104
1, 14994, Control_c, 0, 64, 97
1, 15009, Control_c, 0, 64, 83
1, 15023, Control_c, 0, 64, 70
1, 15033, Note_off_c, 0, 72, 39
1, 15037, Note_off_c, 0, 67, 43
1, 15038, Control_c, 0, 64, 61
1, 15053, Control_c, 0, 64, 55
1, 15075, Control_c, 0, 64, 56
1, 15090, Note_off_c, 0, 55, 37
1, 15090, Control_c, 0, 64, 59
1, 15105, Control_c, 0, 64, 63
1, 15120, Control_c, 0, 64, 66
1, 15135, Control_c, 0, 64, 69
1, 15150, Control_c, 0, 64, 71
1, 15165, Control_c, 0, 64, 73
1, 15180, Control_c, 0, 64, 73
1, 15195, Control_c, 0, 64, 74
1, 15210, Control_c, 0, 64, 74
1, 15224, Control_c, 0, 64, 76
1, 15239, Control_c, 0, 64, 78
1, 15254, Control_c, 0, 64, 80
1, 15269, Control_c, 0, 64, 82
1, 15284, Control_c, 0, 64, 82
1, 15292, Note_on_c, 0, 72, 36
1, 15293, Note_on_c, 0, 55, 33
1, 15302, Note_on_c, 0, 67, 28
1, 15313, Control_c, 0, 64, 82
1, 15361, Note_off_c, 0, 64, 35
1, 15387, Control_c, 0, 64, 81
1, 15417, Control_c, 0, 64, 81
1, 15446, Control_c, 0, 64, 80
1, 15476, Control_c, 0, 64, 80
1, 15480, Note_off_c, 0, 55, 49
1, 15484, Note_off_c, 0, 72, 40
1, 15491, Control_c, 0, 64, 79
1, 15496, Note_off_c, 0, 67, 39
1, 15507, Note_on_c, 0, 64, 41
1, 15520, Control_c, 0, 64, 79
1, 15522, Note_on_c, 0, 60, 28
1, 15549, Control_c, 0, 64, 78
1, 15564, Control_c, 0, 64, 77
1, 15579, Control_c, 0, 64, 76
1, 15594, Control_c, 0, 64, 75
1, 15609, Control_c, 0, 64, 74
1, 15624, Control_c, 0, 64, 74
1, 15668, Control_c, 0, 64, 73
1, 15674, Note_off_c, 0, 64, 56
1, 15698, Control_c, 0, 64, 73
1, 15701, Note_on_c, 0, 72, 37
1, 15705, Note_on_c, 0, 57, 40
1, 15713, Control_c, 0, 64, 72
1, 15720, Note_on_c, 0, 65, 24
1, 15743, Control_c, 0, 64, 72
1, 15753, Note_off_c, 0, 60, 37
1, 15910, Note_on_c, 0, 64, 32
1, 15913, Note_off_c, 0, 65, 38
1, 15913, Note_on_c, 0, 55, 34
1, 15916, Note_off_c, 0, 72, 36
1, 15965, Note_off_c, 0, 57, 29
1, 15970, Note_off_c, 0, 48, 41
1, 16062, Control_c, 0, 64, 71
1, 16093, Note_off_c, 0, 64, 53
1, 16127, Note_on_c, 0, 48, 31
1, 16135, Note_on_c, 0, 72, 34
1, 16136, Note_on_c, 0, 67, 35
1, 16151, Control_c, 0, 64, 70
1, 16152, Note_off_c, 0, 55, 40
1, 16165, Control_c, 0, 64, 70
1, 16180, Control_c, 0, 64, 69
1, 16195, Control_c, 0, 64, 68
1, 16210, Control_c, 0, 64, 68
1, 16240, Control_c, 0, 64, 67
1, 16254, Control_c, 0, 64, 67
1, 16269, Control_c, 0, 64, 66
1, 16313, Control_c, 0, 64, 66
1, 16329, Note_off_c, 0, 67, 57
1, 16346, Note_on_c, 0, 64, 36
1, 16353, Note_off_c, 0, 72, 42
1, 16381, Note_on_c, 0, 60, 19
1, 16417, Control_c, 0, 64, 66
1, 16506, Control_c, 0, 64, 67
1, 16522, Control_c, 0, 64, 67
1, 16536, Control_c, 0, 64, 68
1, 16551, Control_c, 0, 64, 68
1, 16569, Note_off_c, 0, 64, 52
1, 16574, Control_c, 0, 64, 69
1, 16589, Control_c, 0, 64, 69
1, 16596, Note_on_c, 0, 65, 22
1, 16597, Note_on_c, 0, 57, 36
1, 16611, Note_on_c, 0, 72, 23
1, 16618, Control_c, 0, 64, 70
1, 16633, Control_c, 0, 64, 71
1, 16636, Note_off_c, 0, 60, 38
1, 16648, Control_c, 0, 64, 72
1, 16663, Control_c, 0, 64, 73
1, 16677, Control_c, 0, 64, 75
1, 16692, Control_c, 0, 64, 76
1, 16707, Control_c, 0, 64, 78
1, 16721, Control_c, 0, 64, 79
1, 16736, Control_c, 0, 64, 81
1, 16751, Control_c, 0, 64, 83
1, 16766, Control_c, 0, 64, 86
1, 16781, Control_c, 0, 64, 89
1, 16795, Control_c, 0, 64, 94
1, 16810, Control_c, 0, 64, 99
1, 16825, Control_c, 0, 64, 105
1, 16835, Note_on_c, 0, 55, 36
1, 16840, Control_c, 0, 64, 108
1, 16844, Note_on_c, 0, 64, 35
1, 16855, Note_off_c, 0, 65, 42
1, 16858, Note_off_c, 0, 72, 41
1, 16885, Control_c, 0, 64, 107
1, 16900, Control_c, 0, 64, 106
1, 16902, Note_off_c, 0, 48, 40
1, 16914, Control_c, 0, 64, 105
1, 16929, Control_c, 0, 64, 105
1, 16944, Control_c, 0, 64, 104
1, 16961, Note_off_c, 0, 57, 35
1, 16974, Control_c, 0, 64, 103
1, 16988, Control_c, 0, 64, 102
1, 17003, Control_c, 0, 64, 101
1, 17018, Control_c, 0, 64, 99
1, 17033, Control_c, 0, 64, 97
1, 17048, Control_c, 0, 64, 96
1, 17062, Control_c, 0, 64, 95
1, 17077, Control_c, 0, 64, 94
1, 17092, Control_c, 0, 64, 94
1, 17107, Control_c, 0, 64, 93
1, 17121, Control_c, 0, 64, 92
1, 17122, Note_on_c, 0, 72, 34
1, 17135, Note_on_c, 0, 67, 34
1, 17136, Control_c, 0, 64, 84
1, 17145, Note_on_c, 0, 48, 35
1, 17151, Control_c, 0, 64, 73
1, 17166, Control_c, 0, 64, 64
1, 17181, Control_c, 0, 64, 58
1, 17190, Note_off_c, 0, 64, 36
1, 17195, Control_c, 0, 64, 56
1, 17210, Control_c, 0, 64, 58
1, 17225, Control_c, 0, 64, 62
1, 17240, Control_c, 0, 64, 65
1, 17255, Control_c, 0, 64, 68
1, 17269, Control_c, 0, 64, 71
1, 17284, Control_c, 0, 64, 73
1, 17285, Note_off_c, 0, 55, 33
1, 17299, Control_c, 0, 64, 74
1, 17323, Control_c, 0, 64, 76
1, 17338, Control_c, 0, 64, 78
1, 17352, Control_c, 0, 64, 80
1, 17367, Control_c, 0, 64, 83
1, 17382, Control_c, 0, 64, 85
1, 17397, Control_c, 0, 64, 87
1, 17412, Control_c, 0, 64, 88
1, 17426, Control_c, 0, 64, 89
1, 17441, Control_c, 0, 64, 89
1, 17456, Control_c, 0, 64, 90
1, 17464, Note_on_c, 0, 64, 34
1, 17471, Control_c, 0, 64, 90
1, 17484, Note_on_c, 0, 60, 31
1, 17486, Control_c, 0, 64, 91
1, 17490, Note_off_c, 0, 67, 37
1, 17500, Control_c, 0, 64, 92
1, 17515, Control_c, 0, 64, 93
1, 17519, Note_off_c, 0, 72, 40
1, 17530, Control_c, 0, 64, 95
1, 17544, Control_c, 0, 64, 96
1, 17559, Control_c, 0, 64, 97
1, 17574, Control_c, 0, 64, 98
1, 17663, Control_c, 0, 64, 99
1, 17856, Control_c, 0, 64, 98
1, 17894, Note_on_c, 0, 72, 24
1, 17900, Control_c, 0, 64, 98
1, 17904, Note_on_c, 0, 57, 34
1, 17911, Note_on_c, 0, 65, 26
1, 17915, Control_c, 0, 64, 96
1, 17930, Control_c, 0, 64, 91
1, 17944, Control_c, 0, 64, 78
1, 17959, Control_c, 0, 64, 68
1, 17974, Control_c, 0, 64, 62
1, 17979, Note_off_c, 0, 60, 41
1, 17979, Note_off_c, 0, 64, 42
1, 17989, Control_c, 0, 64, 59
1, 18004, Control_c, 0, 64, 60
1, 18018, Control_c, 0, 64, 62
1, 18033, Control_c, 0, 64, 66
1, 18048, Control_c, 0, 64, 70
1, 18071, Control_c, 0, 64, 73
1, 18086, Control_c, 0, 64, 77
1, 18100, Control_c, 0, 64, 79
1, 18114, Control_c, 0, 64, 82
1, 18130, Control_c, 0, 64, 87
1, 18145, Control_c, 0, 64, 93
1, 18160, Control_c, 0, 64, 101
1, 18174, Control_c, 0, 64, 112
1, 18189, Control_c, 0, 64, 127
1, 18652, Note_on_c, 0, 55, 24
1, 18653, Note_on_c, 0, 64, 25
1, 18722, Control_c, 0, 64, 111
1, 18737, Control_c, 0, 64, 97
1, 18752, Control_c, 0, 64, 88
1, 18766, Control_c, 0, 64, 81
1, 18781, Control_c, 0, 64, 76
1, 18794, Note_off_c, 0, 65, 47
1, 18794, Note_off_c, 0, 72, 42
1, 18796, Control_c, 0, 64, 72
1, 18800, Note_off_c, 0, 57, 43
1, 18819, Control_c, 0, 64, 70
1, 18834, Control_c, 0, 64, 67
1, 18848, Control_c, 0, 64, 66
1, 18864, Control_c, 0, 64, 65
1, 18879, Control_c, 0, 64, 64
1, 18893, Control_c, 0, 64, 63
1, 18908, Control_c, 0, 64, 63
1, 18924, Control_c, 0, 64, 62
1, 18939, Control_c, 0, 64, 61
1, 18954, Control_c, 0, 64, 60
1, 18968, Control_c, 0, 64, 59
1, 18983, Control_c, 0, 64, 58
1, 18998, Control_c, 0, 64, 57
1, 19013, Control_c, 0, 64, 56
1, 19028, Control_c, 0, 64, 56
1, 19043, Control_c, 0, 64, 55
1, 19146, Control_c, 0, 64, 56
1, 19161, Control_c, 0, 64, 57
1, 19176, Control_c, 0, 64, 59
1, 19190, Control_c, 0, 64, 60
1, 19205, Control_c, 0, 64, 62
1, 19220, Control_c, 0, 64, 63
1, 19235, Control_c, 0, 64, 64
1, 19250, Control_c, 0, 64, 65
1, 19264, Control_c, 0, 64, 65
1, 19279, Control_c, 0, 64, 66
1, 19294, Control_c, 0, 64, 67
1, 19309, Control_c, 0, 64, 68
1, 19323, Control_c, 0, 64, 70
1, 19338, Control_c, 0, 64, 72
1, 19353, Control_c, 0, 64, 74
1, 19368, Control_c, 0, 64, 76
1, 19383, Control_c, 0, 64, 79
1, 19398, Control_c, 0, 64, 81
1, 19413, Control_c, 0, 64, 84
1, 19428, Control_c, 0, 64, 87
1, 19442, Control_c, 0, 64, 90
1, 19457, Control_c, 0, 64, 92
1, 19472, Control_c, 0, 64, 95
1, 19487, Control_c, 0, 64, 98
1, 19502, Control_c, 0, 64, 101
1, 19516, Control_c, 0, 64, 105
1, 19531, Control_c, 0, 64, 110
1, 19546, Control_c, 0, 64, 116
1, 19568, Control_c, 0, 64, 127
1, 20152, Note_off_c, 0, 64, 38
1, 20966, Note_off_c, 0, 48, 31
1, 21064, Note_off_c, 0, 55, 27
1, 21374, Note_on_c, 0, 72, 47
1, 21496, Control_c, 0, 64, 112
1, 21511, Control_c, 0, 64, 104
1, 21526, Control_c, 0, 64, 98
1, 21541, Control_c, 0, 64, 93
1, 21556, Control_c, 0, 64, 89
1, 21571, Control_c, 0, 64, 86
1, 21585, Control_c, 0, 64, 82
1, 21600, Control_c, 0, 64, 78
1, 21615, Control_c, 0, 64, 75
1, 21630, Control_c, 0, 64, 72
1, 21645, Control_c, 0, 64, 70
1, 21659, Control_c, 0, 64, 68
1, 21674, Control_c, 0, 64, 67
1, 21689, Control_c, 0, 64, 66
1, 21704, Control_c, 0, 64, 65
1, 21733, Control_c, 0, 64, 65
1, 21751, Note_off_c, 0, 76, 58
1, 21763, Control_c, 0, 64, 64
1, 21778, Control_c, 0, 64, 64
1, 21792, Control_c, 0, 64, 63
1, 21830, Control_c, 0, 64, 63
1, 21860, Control_c, 0, 64, 62
1, 21874, Control_c, 0, 64, 62
1, 21889, Control_c, 0, 64, 61
1, 21904, Control_c, 0, 64, 61
1, 21934, Control_c, 0, 64, 60
1, 21963, Control_c, 0, 64, 60
1, 21992, Control_c, 0, 64, 59
1, 22022, Control_c, 0, 64, 59
1, 22037, Control_c, 0, 64, 58
1, 22052, Control_c, 0, 64, 57
1, 22066, Control_c, 0, 64, 57
1, 22081, Control_c, 0, 64, 56
1, 22096, Control_c, 0, 64, 56
1, 22127, Control_c, 0, 64, 55
1, 22230, Control_c, 0, 64, 56
1, 22245, Control_c, 0, 64, 57
1, 22260, Control_c, 0, 64, 58
1, 22275, Control_c, 0, 64, 58
1, 22289, Control_c, 0, 64, 60
1, 22304, Control_c, 0, 64, 61
1, 22319, Control_c, 0, 64, 63
1, 22334, Control_c, 0, 64, 64
1, 22349, Control_c, 0, 64, 65
1, 22364, Control_c, 0, 64, 65
1, 22379, Control_c, 0, 64, 66
1, 22394, Control_c, 0, 64, 66
1, 22423, Control_c, 0, 64, 67
1, 22438, Control_c, 0, 64, 68
1, 22453, Control_c, 0, 64, 69
1, 22468, Control_c, 0, 64, 71
1, 22482, Control_c, 0, 64, 74
1, 22497, Control_c, 0, 64, 77
1, 22512, Control_c, 0, 64, 81
1, 22526, Control_c, 0, 64, 85
1, 22541, Control_c, 0, 64, 88
1, 22563, Control_c, 0, 64, 92
1, 22578, Control_c, 0, 64, 96
1, 22593, Control_c, 0, 64, 100
1, 22608, Control_c, 0, 64, 107
1, 22623, Control_c, 0, 64, 117
1, 22638, Control_c, 0, 64, 127
1, 23385, Note_on_c, 0, 73, 44
1, 23504, Control_c, 0, 64, 123
1, 23519, Control_c, 0, 64, 110
1, 23534, Control_c, 0, 64, 104
1, 23543, Note_off_c, 0, 72, 59
1, 23549, Control_c, 0, 64, 99
1, 23563, Control_c, 0, 64, 96
1, 23578, Control_c, 0, 64, 93
1, 23593, Control_c, 0, 64, 91
1, 23608, Control_c, 0, 64, 89
1, 23623, Control_c, 0, 64, 87
1, 23637, Control_c, 0, 64, 86
1, 23652, Control_c, 0, 64, 84
1, 23667, Control_c, 0, 64, 82
1, 23682, Control_c, 0, 64, 80
1, 23697, Control_c, 0, 64, 78
1, 23713, Control_c, 0, 64, 76
1, 23728, Control_c, 0, 64, 75
1, 23742, Control_c, 0, 64, 73
1, 23757, Control_c, 0, 64, 72
1, 23772, Control_c, 0, 64, 71
1, 23786, Control_c, 0, 64, 70
1, 23801, Control_c, 0, 64, 69
1, 23816, Control_c, 0, 64, 69
1, 23831, Control_c, 0, 64, 68
1, 23860, Control_c, 0, 64, 68
1, 23905, Control_c, 0, 64, 67
1, 23935, Control_c, 0, 64, 67
1, 23994, Control_c, 0, 64, 66
1, 24006, Note_on_c, 0, 71, 36
1, 24075, Control_c, 0, 64, 66
1, 24105, Control_c, 0, 64, 65
1, 24128, Poly_aftertouch_c, 0, 77, 127
1, 24134, Control_c, 0, 64, 65
1, 24155, Note_off_c, 0, 73, 53
1, 24164, Control_c, 0, 64, 64
1, 24179, Control_c, 0, 64, 64
1, 24194, Control_c, 0, 64, 63
1, 24253, Control_c, 0, 64, 63
1, 24431, Control_c, 0, 64, 63
1, 24457, Poly_aftertouch_c, 0, 77, 0
1, 24460, Control_c, 0, 64, 64
1, 24475, Control_c, 0, 64, 64
1, 24536, Control_c, 0, 64, 65
1, 24550, Control_c, 0, 64, 65
1, 24565, Control_c, 0, 64, 66
1, 24595, Control_c, 0, 64, 66
1, 24624, Control_c, 0, 64, 67
1, 24650, Note_on_c, 0, 41, 29
1, 24654, Control_c, 0, 64, 67
1, 24669, Control_c, 0, 64, 68
1, 24683, Control_c, 0, 64, 69
1, 24698, Control_c, 0, 64, 71
1, 24713, Control_c, 0, 64, 74
1, 24728, Control_c, 0, 64, 78
1, 24743, Control_c, 0, 64, 86
1, 24757, Control_c, 0, 64, 94
1, 24772, Control_c, 0, 64, 110
1, 24787, Control_c, 0, 64, 127
1, 24836, Note_off_c, 0, 41, 53
1, 25349, Note_on_c, 0, 65, 21
1, 25355, Note_on_c, 0, 72, 51
1, 25374, Note_on_c, 0, 60, 35
1, 25439, Poly_aftertouch_c, 0, 68, 127
1, 25555, Note_off_c, 0, 71, 26
1, 25575, Note_off_c, 0, 60, 37
1, 25580, Note_off_c, 0, 65, 40
1, 25610, Poly_aftertouch_c, 0, 68, 0
1, 25825, Note_on_c, 0, 77, 63
1, 25844, Note_on_c, 0, 56, 41
1, 25862, Note_on_c, 0, 65, 33
1, 25899, Note_off_c, 0, 65, 61
1, 25919, Note_off_c, 0, 56, 62
1, 25998, Note_off_c, 0, 72, 65
1, 26210, Note_on_c, 0, 76, 59
1, 26240, Control_c, 0, 64, 95
1, 26247, Note_off_c, 0, 77, 61
1, 26251, Note_on_c, 0, 53, 33
1, 26254, Control_c, 0, 64, 72
1, 26269, Control_c, 0, 64, 58
1, 26284, Control_c, 0, 64, 43
1, 26307, Control_c, 0, 64, 40
1, 26322, Control_c, 0, 64, 44
1, 26336, Control_c, 0, 64, 60
1, 26352, Control_c, 0, 64, 67
1, 26367, Control_c, 0, 64, 74
1, 26381, Control_c, 0, 64, 86
1, 26396, Control_c, 0, 64, 108
1, 26411, Control_c, 0, 64, 127
1, 26412, Note_off_c, 0, 53, 55
1, 26612, Note_on_c, 0, 70, 52
1, 26620, Note_on_c, 0, 61, 37
1, 26653, Note_on_c, 0, 67, 27
1, 26717, Note_off_c, 0, 61, 56
1, 26722, Note_off_c, 0, 76, 65
1, 26743, Poly_aftertouch_c, 0, 64, 127
1, 26778, Poly_aftertouch_c, 0, 64, 0
1, 26825, Note_off_c, 0, 67, 44
1, 27023, Note_on_c, 0, 73, 55
1, 27033, Note_on_c, 0, 64, 30
1, 27041, Note_on_c, 0, 58, 35
1, 27071, Note_on_c, 0, 61, 11
1, 27089, Note_off_c, 0, 64, 59
1, 27101, Note_off_c, 0, 58, 58
1, 27119, Note_off_c, 0, 61, 46
1, 27217, Note_off_c, 0, 70, 63
1, 27407, Note_on_c, 0, 41, 44
1, 27426, Control_c, 0, 64, 89
1, 27441, Control_c, 0, 64, 64
1, 27456, Control_c, 0, 64, 32
1, 27471, Control_c, 0, 64, 31
1, 27485, Control_c, 0, 64, 34
1, 27500, Control_c, 0, 64, 52
1, 27515, Control_c, 0, 64, 64
1, 27530, Note_off_c, 0, 41, 64
1, 27530, Control_c, 0, 64, 72
1, 27545, Control_c, 0, 64, 91
1, 27559, Control_c, 0, 64, 127
1, 27808, Note_on_c, 0, 65, 35
1, 27819, Note_on_c, 0, 72, 58
1, 27830, Note_on_c, 0, 68, 12
1, 27839, Note_on_c, 0, 60, 41
1, 27929, Note_off_c, 0, 73, 65
1, 27930, Note_off_c, 0, 60, 60
1, 27968, Note_off_c, 0, 65, 62
1, 28050, Note_off_c, 0, 68, 38
1, 28171, Note_on_c, 0, 77, 70
1, 28176, Note_on_c, 0, 65, 37
1, 28200, Note_on_c, 0, 56, 45
1, 28229, Note_off_c, 0, 65, 63
1, 28240, Note_off_c, 0, 56, 64
1, 28267, Poly_aftertouch_c, 0, 60, 0
1, 28368, Note_off_c, 0, 72, 65
1, 28531, Control_c, 0, 64, 80
1, 28551, Note_on_c, 0, 76, 56
1, 28552, Note_off_c, 0, 77, 58
1, 28554, Control_c, 0, 64, 60
1, 28556, Note_on_c, 0, 53, 31
1, 28569, Control_c, 0, 64, 0
1, 28598, Control_c, 0, 64, 19
1, 28612, Control_c, 0, 64, 50
1, 28627, Control_c, 0, 64, 62
1, 28642, Control_c, 0, 64, 68
1, 28656, Control_c, 0, 64, 78
1, 28671, Control_c, 0, 64, 90
1, 28683, Note_off_c, 0, 53, 57
1, 28686, Control_c, 0, 64, 109
1, 28701, Control_c, 0, 64, 127
1, 28913, Note_on_c, 0, 70, 50
1, 28924, Note_on_c, 0, 61, 34
1, 28929, Note_on_c, 0, 67, 26
1, 28967, Note_on_c, 0, 64, 27
1, 29002, Note_off_c, 0, 61, 54
1, 29004, Note_off_c, 0, 64, 51
1, 29020, Note_off_c, 0, 76, 60
1, 29046, Note_off_c, 0, 67, 37
1, 29347, Control_c, 0, 64, 94
1, 29361, Control_c, 0, 64, 72
1, 29376, Control_c, 0, 64, 59
1, 29386, Note_on_c, 0, 73, 37
1, 29387, Note_on_c, 0, 64, 20
1, 29391, Control_c, 0, 64, 50
1, 29392, Note_on_c, 0, 58, 29
1, 29421, Control_c, 0, 64, 54
1, 29435, Control_c, 0, 64, 61
1, 29450, Control_c, 0, 64, 65
1, 29464, Note_off_c, 0, 70, 38
1, 29465, Control_c, 0, 64, 70
1, 29479, Control_c, 0, 64, 77
1, 29494, Control_c, 0, 64, 89
1, 29509, Control_c, 0, 64, 104
1, 29521, Note_off_c, 0, 64, 55
1, 29524, Control_c, 0, 64, 127
1, 29533, Note_off_c, 0, 58, 51
1, 29572, Note_off_c, 0, 73, 60
1, 29894, Control_c, 0, 64, 110
1, 29897, Note_on_c, 0, 53, 34
1, 29909, Control_c, 0, 64, 74
1, 29924, Control_c, 0, 64, 57
1, 29938, Control_c, 0, 64, 48
1, 29953, Control_c, 0, 64, 50
1, 29968, Control_c, 0, 64, 59
1, 29983, Control_c, 0, 64, 66
1, 29998, Control_c, 0, 64, 74
1, 30013, Control_c, 0, 64, 93
1, 30013, Note_off_c, 0, 53, 58
1, 30028, Control_c, 0, 64, 127
1, 30299, Note_on_c, 0, 72, 51
1, 30308, Note_on_c, 0, 65, 30
1, 30322, Note_on_c, 0, 60, 24
1, 30388, Poly_aftertouch_c, 0, 68, 127
1, 30445, Poly_aftertouch_c, 0, 68, 0
1, 30469, Note_on_c, 0, 73, 64
1, 30477, Note_off_c, 0, 65, 42
1, 30490, Note_off_c, 0, 72, 61
1, 30578, Note_off_c, 0, 60, 0
1, 30608, Note_on_c, 0, 72, 74
1, 30609, Note_on_c, 0, 65, 45
1, 30615, Poly_aftertouch_c, 0, 60, 127
1, 30620, Note_on_c, 0, 56, 45
1, 30630, Note_off_c, 0, 73, 63
1, 30642, Note_off_c, 0, 65, 65
1, 30657, Note_off_c, 0, 56, 64
1, 30660, Poly_aftertouch_c, 0, 60, 0
1, 30736, Note_on_c, 0, 73, 80
1, 30804, Note_off_c, 0, 72, 61
1, 30901, Note_off_c, 0, 73, 63
1, 30904, Control_c, 0, 64, 88
1, 30919, Control_c, 0, 64, 54
1, 30929, Note_on_c, 0, 75, 72
1, 30934, Control_c, 0, 64, 0
1, 30940, Note_on_c, 0, 51, 45
1, 31008, Control_c, 0, 64, 44
1, 31023, Control_c, 0, 64, 67
1, 31038, Control_c, 0, 64, 85
1, 31044, Note_off_c, 0, 75, 64
1, 31052, Control_c, 0, 64, 127
1, 31071, Note_off_c, 0, 51, 63
1, 31256, Note_on_c, 0, 75, 77
1, 31271, Note_on_c, 0, 60, 52
1, 31275, Note_on_c, 0, 68, 61
1, 31312, Note_off_c, 0, 68, 64
1, 31316, Note_off_c, 0, 75, 61
1, 31330, Note_off_c, 0, 60, 62
1, 31613, Note_on_c, 0, 51, 49
1, 31628, Note_on_c, 0, 75, 74
1, 31716, Note_off_c, 0, 75, 62
1, 31841, Note_off_c, 0, 51, 52
1, 32082, Control_c, 0, 64, 92
1, 32093, Note_on_c, 0, 39, 38
1, 32097, Control_c, 0, 64, 62
1, 32105, Note_on_c, 0, 75, 55
1, 32112, Control_c, 0, 64, 27
1, 32127, Control_c, 0, 64, 24
1, 32141, Control_c, 0, 64, 34
1, 32156, Control_c, 0, 64, 55
1, 32171, Control_c, 0, 64, 65
1, 32186, Control_c, 0, 64, 75
1, 32201, Control_c, 0, 64, 105
1, 32214, Note_off_c, 0, 39, 53
1, 32216, Control_c, 0, 64, 127
1, 32555, Note_on_c, 0, 61, 36
1, 32570, Note_on_c, 0, 73, 51
1, 32579, Note_on_c, 0, 67, 21
1, 32616, Note_off_c, 0, 67, 53
1, 32665, Note_off_c, 0, 61, 62
1, 32708, Note_off_c, 0, 75, 59
1, 32731, Note_off_c, 0, 73, 59
1, 32759, Note_on_c, 0, 72, 59
1, 32904, Note_on_c, 0, 61, 49
1, 32909, Note_off_c, 0, 72, 60
1, 32922, Note_on_c, 0, 70, 52
1, 32931, Note_on_c, 0, 55, 42
1, 32954, Note_on_c, 0, 51, 37
1, 32958, Note_off_c, 0, 61, 59
1, 32962, Note_off_c, 0, 55, 61
1, 32988, Note_off_c, 0, 51, 46
1, 33080, Note_on_c, 0, 72, 69
1, 33084, Note_off_c, 0, 70, 62
1, 33284, Note_on_c, 0, 44, 37
1, 33311, Note_off_c, 0, 72, 55
1, 33313, Control_c, 0, 64, 84
1, 33316, Note_on_c, 0, 68, 47
1, 33327, Control_c, 0, 64, 59
1, 33342, Control_c, 0, 64, 0
1, 33417, Control_c, 0, 64, 49
1, 33432, Control_c, 0, 64, 64
1, 33446, Control_c, 0, 64, 72
1, 33461, Control_c, 0, 64, 83
1, 33463, Note_off_c, 0, 44, 59
1, 33476, Control_c, 0, 64, 103
1, 33491, Control_c, 0, 64, 127
1, 33757, Note_on_c, 0, 63, 39
1, 33766, Note_on_c, 0, 60, 38
1, 33798, Note_on_c, 0, 56, 32
1, 33880, Note_off_c, 0, 60, 59
1, 33881, Note_off_c, 0, 56, 51
1, 33885, Note_off_c, 0, 63, 54
1, 34120, Note_on_c, 0, 60, 42
1, 34123, Note_on_c, 0, 56, 43
1, 34129, Note_on_c, 0, 51, 46
1, 34197, Note_off_c, 0, 51, 55
1, 34210, Note_off_c, 0, 60, 60
1, 34220, Note_off_c, 0, 56, 52
1, 34475, Control_c, 0, 64, 103
1, 34490, Control_c, 0, 64, 73
1, 34500, Note_on_c, 0, 65, 38
1, 34505, Control_c, 0, 64, 57
1, 34506, Note_on_c, 0, 60, 33
1, 34520, Control_c, 0, 64, 45
1, 34541, Note_on_c, 0, 56, 32
1, 34542, Control_c, 0, 64, 44
1, 34557, Control_c, 0, 64, 50
1, 34572, Control_c, 0, 64, 61
1, 34588, Control_c, 0, 64, 67
1, 34603, Control_c, 0, 64, 73
1, 34617, Control_c, 0, 64, 83
1, 34632, Control_c, 0, 64, 99
1, 34645, Note_off_c, 0, 65, 61
1, 34647, Control_c, 0, 64, 121
1, 34655, Note_off_c, 0, 56, 34
1, 34661, Control_c, 0, 64, 127
1, 34684, Note_off_c, 0, 60, 42
1, 34899, Control_c, 0, 64, 97
1, 34910, Note_on_c, 0, 60, 38
1, 34911, Note_on_c, 0, 56, 40
1, 34914, Control_c, 0, 64, 71
1, 34922, Note_on_c, 0, 63, 23
1, 34929, Control_c, 0, 64, 56
1, 34944, Control_c, 0, 64, 48
1, 34959, Control_c, 0, 64, 49
1, 34973, Control_c, 0, 64, 57
1, 34988, Control_c, 0, 64, 66
1, 35003, Control_c, 0, 64, 72
1, 35018, Control_c, 0, 64, 82
1, 35033, Control_c, 0, 64, 98
1, 35047, Note_off_c, 0, 60, 56
1, 35047, Control_c, 0, 64, 127
1, 35053, Note_off_c, 0, 56, 51
1, 35072, Note_off_c, 0, 63, 40
1, 35340, Note_on_c, 0, 60, 35
1, 35370, Note_on_c, 0, 56, 25
1, 35378, Note_on_c, 0, 51, 34
1, 35441, Note_off_c, 0, 56, 54
1, 35450, Note_off_c, 0, 60, 62
1, 35461, Note_off_c, 0, 51, 54
1, 35948, Note_on_c, 0, 32, 42
1, 35982, Note_off_c, 0, 68, 50
1, 36003, Control_c, 0, 64, 82
1, 36018, Control_c, 0, 64, 61
1, 36040, Control_c, 0, 64, 42
1, 36055, Control_c, 0, 64, 40
1, 36070, Control_c, 0, 64, 41
1, 36085, Control_c, 0, 64, 56
1, 36100, Control_c, 0, 64, 66
1, 36114, Control_c, 0, 64, 78
1, 36129, Control_c, 0, 64, 112
1, 36137, Note_off_c, 0, 32, 53
1, 36144, Control_c, 0, 64, 127
1, 36621, Note_on_c, 0, 75, 66
1, 36636, Note_on_c, 0, 72, 28
1, 36651, Note_on_c, 0, 63, 36
1, 36722, Note_off_c, 0, 63, 62
1, 36723, Poly_aftertouch_c, 0, 68, 127
1, 36815, Poly_aftertouch_c, 0, 68, 0
1, 36889, Note_off_c, 0, 72, 42
1, 37038, Note_on_c, 0, 60, 34
1, 37046, Note_on_c, 0, 63, 42
1, 37051, Note_on_c, 0, 80, 73
1, 37053, Note_on_c, 0, 68, 43
1, 37081, Note_off_c, 0, 60, 64
1, 37095, Note_off_c, 0, 68, 62
1, 37104, Note_off_c, 0, 63, 63
1, 37199, Note_off_c, 0, 75, 62
1, 37379, Note_off_c, 0, 80, 60
1, 37400, Note_on_c, 0, 56, 50
1, 37417, Note_on_c, 0, 79, 59
1, 37427, Control_c, 0, 64, 100
1, 37441, Control_c, 0, 64, 67
1, 37456, Control_c, 0, 64, 32
1, 37471, Control_c, 0, 64, 0
1, 37501, Control_c, 0, 64, 41
1, 37516, Control_c, 0, 64, 61
1, 37537, Note_off_c, 0, 56, 64
1, 37538, Control_c, 0, 64, 69
1, 37553, Control_c, 0, 64, 82
1, 37567, Control_c, 0, 64, 127
1, 37773, Note_on_c, 0, 73, 65
1, 37774, Note_on_c, 0, 70, 46
1, 37793, Note_on_c, 0, 64, 46
1, 37797, Note_on_c, 0, 67, 40
1, 37879, Note_off_c, 0, 64, 56
1, 37891, Note_off_c, 0, 79, 54
1, 37893, Note_off_c, 0, 67, 55
1, 37940, Note_off_c, 0, 70, 36
1, 38124, Note_on_c, 0, 67, 41
1, 38130, Note_on_c, 0, 76, 67
1, 38131, Note_on_c, 0, 61, 43
1, 38160, Note_on_c, 0, 64, 27
1, 38175, Note_off_c, 0, 67, 63
1, 38190, Note_off_c, 0, 61, 59
1, 38192, Note_off_c, 0, 64, 55
1, 38236, Note_off_c, 0, 73, 65
1, 38480, Control_c, 0, 64, 73
1, 38495, Control_c, 0, 64, 49
1, 38499, Note_on_c, 0, 44, 54
1, 38509, Control_c, 0, 64, 24
1, 38524, Control_c, 0, 64, 27
1, 38539, Control_c, 0, 64, 51
1, 38554, Control_c, 0, 64, 64
1, 38569, Control_c, 0, 64, 75
1, 38575, Note_off_c, 0, 44, 64
1, 38583, Control_c, 0, 64, 108
1, 38598, Control_c, 0, 64, 127
1, 38804, Note_on_c, 0, 75, 76
1, 38821, Note_on_c, 0, 63, 46
1, 38845, Note_on_c, 0, 72, 45
1, 38857, Note_on_c, 0, 68, 25
1, 38869, Note_off_c, 0, 76, 64
1, 38871, Note_off_c, 0, 63, 62
1, 38910, Note_off_c, 0, 68, 44
1, 39042, Note_off_c, 0, 72, 52
1, 39125, Note_on_c, 0, 60, 38
1, 39143, Note_on_c, 0, 80, 77
1, 39150, Note_on_c, 0, 63, 49
1, 39157, Note_on_c, 0, 68, 49
1, 39182, Note_off_c, 0, 60, 64
1, 39194, Note_off_c, 0, 68, 64
1, 39201, Note_off_c, 0, 63, 63
1, 39252, Note_off_c, 0, 75, 63
1, 39480, Note_on_c, 0, 79, 69
1, 39482, Note_on_c, 0, 56, 44
1, 39488, Note_off_c, 0, 80, 58
1, 39495, Control_c, 0, 64, 82
1, 39510, Control_c, 0, 64, 59
1, 39525, Control_c, 0, 64, 0
1, 39569, Control_c, 0, 64, 47
1, 39584, Control_c, 0, 64, 63
1, 39599, Control_c, 0, 64, 71
1, 39601, Note_off_c, 0, 56, 64
1, 39613, Control_c, 0, 64, 84
1, 39628, Control_c, 0, 64, 112
1, 39643, Control_c, 0, 64, 127
1, 39820, Note_on_c, 0, 73, 60
1, 39843, Note_on_c, 0, 64, 45
1, 39846, Note_on_c, 0, 70, 53
1, 39854, Note_on_c, 0, 67, 37
1, 39886, Note_off_c, 0, 64, 62
1, 39906, Note_off_c, 0, 67, 57
1, 39946, Note_off_c, 0, 70, 39
1, 40207, Note_off_c, 0, 73, 57
1, 40227, Note_on_c, 0, 76, 50
1, 40228, Control_c, 0, 64, 76
1, 40243, Control_c, 0, 64, 55
1, 40248, Note_on_c, 0, 67, 23
1, 40254, Note_on_c, 0, 61, 32
1, 40258, Note_off_c, 0, 79, 8
1, 40258, Control_c, 0, 64, 12
1, 40276, Note_on_c, 0, 58, 28
1, 40288, Control_c, 0, 64, 24
1, 40303, Control_c, 0, 64, 54
1, 40318, Control_c, 0, 64, 64
1, 40333, Control_c, 0, 64, 71
1, 40346, Note_off_c, 0, 67, 59
1, 40348, Control_c, 0, 64, 81
1, 40359, Note_off_c, 0, 61, 58
1, 40362, Control_c, 0, 64, 96
1, 40377, Control_c, 0, 64, 114
1, 40382, Note_off_c, 0, 58, 57
1, 40392, Control_c, 0, 64, 127
1, 40586, Note_off_c, 0, 76, 60
1, 40684, Note_on_c, 0, 44, 44
1, 40696, Control_c, 0, 64, 105
1, 40711, Control_c, 0, 64, 71
1, 40726, Control_c, 0, 64, 53
1, 40741, Control_c, 0, 64, 42
1, 40756, Control_c, 0, 64, 42
1, 40771, Control_c, 0, 64, 50
1, 40785, Control_c, 0, 64, 62
1, 40792, Note_off_c, 0, 44, 62
1, 40800, Control_c, 0, 64, 70
1, 40815, Control_c, 0, 64, 83
1, 40830, Control_c, 0, 64, 127
1, 41080, Note_on_c, 0, 63, 37
1, 41086, Note_on_c, 0, 75, 53
1, 41134, Note_on_c, 0, 72, 19
1, 41179, Poly_aftertouch_c, 0, 68, 127
1, 41191, Note_off_c, 0, 63, 57
1, 41244, Note_on_c, 0, 77, 69
1, 41251, Note_off_c, 0, 72, 41
1, 41301, Note_off_c, 0, 75, 60
1, 41313, Poly_aftertouch_c, 0, 68, 0
1, 41383, Note_on_c, 0, 68, 46
1, 41397, Note_on_c, 0, 63, 57
1, 41399, Note_on_c, 0, 75, 82
1, 41415, Note_off_c, 0, 77, 61
1, 41424, Note_off_c, 0, 68, 62
1, 41441, Note_off_c, 0, 63, 63
1, 41519, Note_on_c, 0, 77, 82
1, 41534, Note_off_c, 0, 75, 61
1, 41692, Note_off_c, 0, 77, 58
1, 41697, Control_c, 0, 64, 58
1, 41712, Control_c, 0, 64, 0
1, 41713, Note_on_c, 0, 78, 70
1, 41723, Note_on_c, 0, 39, 43
1, 41786, Control_c, 0, 64, 62
1, 41800, Control_c, 0, 64, 73
1, 41802, Note_off_c, 0, 39, 64
1, 41815, Control_c, 0, 64, 89
1, 41830, Control_c, 0, 64, 127
1, 41856, Note_off_c, 0, 78, 64
1, 42067, Note_on_c, 0, 70, 57
1, 42070, Note_on_c, 0, 78, 85
1, 42115, Note_on_c, 0, 66, 40
1, 42132, Note_on_c, 0, 63, 40
1, 42151, Note_off_c, 0, 78, 63
1, 42184, Note_off_c, 0, 63, 58
1, 42202, Note_off_c, 0, 66, 53
1, 42205, Note_off_c, 0, 70, 55
1, 42437, Note_on_c, 0, 78, 76
1, 42439, Note_on_c, 0, 58, 53
1, 42443, Note_on_c, 0, 63, 45
1, 42460, Note_on_c, 0, 66, 52
1, 42494, Note_off_c, 0, 66, 65
1, 42498, Note_off_c, 0, 58, 58
1, 42503, Note_off_c, 0, 63, 63
1, 42547, Poly_aftertouch_c, 0, 74, 127
1, 42621, Note_off_c, 0, 78, 60
1, 42920, Note_on_c, 0, 78, 52
1, 42938, Note_on_c, 0, 41, 41
1, 42944, Control_c, 0, 64, 88
1, 42959, Control_c, 0, 64, 61
1, 42973, Control_c, 0, 64, 0
1, 43018, Control_c, 0, 64, 42
1, 43018, Poly_aftertouch_c, 0, 74, 0
1, 43033, Control_c, 0, 64, 63
1, 43048, Control_c, 0, 64, 74
1, 43050, Note_off_c, 0, 41, 63
1, 43062, Control_c, 0, 64, 96
1, 43077, Control_c, 0, 64, 127
1, 43335, Note_off_c, 0, 78, 34
1, 43436, Note_on_c, 0, 77, 52
1, 43457, Note_on_c, 0, 63, 31
1, 43497, Note_on_c, 0, 69, 21
1, 43638, Note_off_c, 0, 77, 60
1, 43646, Note_on_c, 0, 72, 55
1, 43647, Note_off_c, 0, 63, 38
1, 43651, Note_off_c, 0, 69, 43
1, 43810, Note_on_c, 0, 63, 45
1, 43816, Note_on_c, 0, 75, 58
1, 43819, Note_on_c, 0, 57, 32
1, 43844, Note_on_c, 0, 65, 21
1, 43851, Note_off_c, 0, 72, 59
1, 43862, Note_off_c, 0, 57, 61
1, 43873, Note_off_c, 0, 63, 58
1, 43885, Note_off_c, 0, 65, 42
1, 43959, Note_on_c, 0, 73, 59
1, 43987, Note_off_c, 0, 75, 53
1, 44106, Control_c, 0, 64, 118
1, 44121, Control_c, 0, 64, 116
1, 44178, Note_on_c, 0, 70, 46
1, 44181, Control_c, 0, 64, 102
1, 44189, Note_off_c, 0, 73, 39
1, 44195, Control_c, 0, 64, 80
1, 44200, Note_on_c, 0, 46, 25
1, 44210, Control_c, 0, 64, 60
1, 44225, Control_c, 0, 64, 0
1, 44291, Control_c, 0, 64, 55
1, 44306, Control_c, 0, 64, 67
1, 44321, Control_c, 0, 64, 78
1, 44336, Control_c, 0, 64, 102
1, 44351, Control_c, 0, 64, 127
1, 44360, Note_off_c, 0, 46, 58
1, 44604, Note_on_c, 0, 58, 35
1, 44627, Note_on_c, 0, 65, 24
1, 44670, Note_off_c, 0, 70, 56
1, 44676, Note_off_c, 0, 58, 52
1, 44682, Poly_aftertouch_c, 0, 61, 127
1, 44729, Poly_aftertouch_c, 0, 61, 0
1, 44866, Note_off_c, 0, 65, 40
1, 44995, Note_on_c, 0, 61, 36
1, 45028, Poly_aftertouch_c, 0, 58, 127
1, 45062, Note_on_c, 0, 53, 8
1, 45078, Poly_aftertouch_c, 0, 58, 0
1, 45090, Note_off_c, 0, 61, 57
1, 45131, Note_off_c, 0, 53, 44
1, 45484, Note_on_c, 0, 42, 42
1, 45529, Control_c, 0, 64, 111
1, 45544, Control_c, 0, 64, 74
1, 45559, Control_c, 0, 64, 58
1, 45573, Control_c, 0, 64, 32
1, 45588, Control_c, 0, 64, 29
1, 45603, Control_c, 0, 64, 44
1, 45618, Control_c, 0, 64, 62
1, 45624, Note_off_c, 0, 42, 63
1, 45633, Control_c, 0, 64, 72
1, 45648, Control_c, 0, 64, 93
1, 45662, Control_c, 0, 64, 127
1, 45978, Note_on_c, 0, 58, 33
1, 45991, Note_on_c, 0, 73, 42
1, 45993, Note_on_c, 0, 61, 29
1, 46045, Note_on_c, 0, 66, 17
1, 46145, Note_off_c, 0, 58, 37
1, 46148, Note_on_c, 0, 75, 58
1, 46156, Note_off_c, 0, 73, 55
1, 46163, Note_off_c, 0, 61, 42
1, 46188, Note_off_c, 0, 66, 39
1, 46293, Note_on_c, 0, 54, 52
1, 46298, Note_on_c, 0, 73, 60
1, 46301, Note_on_c, 0, 61, 45
1, 46305, Note_off_c, 0, 75, 57
1, 46330, Poly_aftertouch_c, 0, 58, 127
1, 46331, Note_off_c, 0, 61, 63
1, 46342, Note_off_c, 0, 54, 62
1, 46365, Poly_aftertouch_c, 0, 58, 0
1, 46429, Note_on_c, 0, 75, 70
1, 46472, Note_off_c, 0, 73, 60
1, 46564, Note_off_c, 0, 75, 60
1, 46626, Control_c, 0, 64, 87
1, 46629, Note_on_c, 0, 77, 64
1, 46641, Control_c, 0, 64, 56
1, 46656, Control_c, 0, 64, 0
1, 46676, Note_on_c, 0, 37, 28
1, 46700, Control_c, 0, 64, 12
1, 46715, Control_c, 0, 64, 56
1, 46730, Control_c, 0, 64, 67
1, 46744, Note_off_c, 0, 37, 60
1, 46745, Control_c, 0, 64, 77
1, 46759, Control_c, 0, 64, 94
1, 46774, Control_c, 0, 64, 127
1, 46804, Note_off_c, 0, 77, 63
1, 47004, Note_on_c, 0, 77, 66
1, 47029, Note_on_c, 0, 56, 39
1, 47049, Note_on_c, 0, 65, 40
1, 47055, Note_on_c, 0, 61, 27
1, 47111, Note_off_c, 0, 61, 42
1, 47119, Note_off_c, 0, 56, 55
1, 47132, Note_off_c, 0, 77, 62
1, 47202, Note_off_c, 0, 65, 50
1, 47353, Note_on_c, 0, 53, 41
1, 47368, Note_on_c, 0, 77, 67
1, 47382, Note_on_c, 0, 56, 40
1, 47393, Note_on_c, 0, 61, 35
1, 47412, Note_off_c, 0, 53, 60
1, 47425, Note_off_c, 0, 61, 57
1, 47446, Note_off_c, 0, 56, 63
1, 47527, Note_off_c, 0, 77, 59
1, 47800, Note_on_c, 0, 39, 32
1, 47835, Note_on_c, 0, 77, 58
1, 47850, Control_c, 0, 64, 72
1, 47865, Control_c, 0, 64, 52
1, 47880, Control_c, 0, 64, 34
1, 47910, Control_c, 0, 64, 46
1, 47924, Control_c, 0, 64, 61
1, 47939, Control_c, 0, 64, 71
1, 47954, Control_c, 0, 64, 87
1, 47957, Note_off_c, 0, 39, 56
1, 47968, Control_c, 0, 64, 127
1, 48238, Note_on_c, 0, 60, 31
1, 48265, Note_on_c, 0, 58, 32
1, 48266, Note_on_c, 0, 75, 55
1, 48346, Poly_aftertouch_c, 0, 66, 127
1, 48349, Note_off_c, 0, 58, 52
1, 48390, Poly_aftertouch_c, 0, 66, 0
1, 48447, Note_off_c, 0, 75, 61
1, 48456, Note_on_c, 0, 70, 55
1, 48568, Note_off_c, 0, 60, 36
1, 48608, Note_on_c, 0, 63, 43
1, 48616, Note_on_c, 0, 54, 37
1, 48633, Note_on_c, 0, 73, 62
1, 48639, Note_off_c, 0, 63, 61
1, 48642, Note_on_c, 0, 58, 5
1, 48650, Note_off_c, 0, 54, 62
1, 48690, Note_off_c, 0, 58, 52
1, 48716, Note_off_c, 0, 70, 54
1, 48761, Note_off_c, 0, 73, 62
1, 48779, Note_on_c, 0, 72, 66
1, 48867, Note_off_c, 0, 77, 34
1, 48894, Note_off_c, 0, 72, 60
1, 48962, Control_c, 0, 64, 74
1, 48969, Note_on_c, 0, 41, 36
1, 48971, Note_on_c, 0, 69, 51
1, 48977, Control_c, 0, 64, 49
1, 48991, Control_c, 0, 64, 0
1, 49036, Control_c, 0, 64, 49
1, 49051, Control_c, 0, 64, 64
1, 49065, Note_off_c, 0, 41, 64
1, 49065, Control_c, 0, 64, 75
1, 49080, Control_c, 0, 64, 96
1, 49095, Control_c, 0, 64, 127
1, 49168, Note_off_c, 0, 69, 55
1, 49353, Note_on_c, 0, 72, 64
1, 49364, Note_on_c, 0, 60, 46
1, 49366, Note_on_c, 0, 69, 25
1, 49371, Note_on_c, 0, 65, 43
1, 49444, Note_off_c, 0, 60, 63
1, 49484, Note_off_c, 0, 65, 61
1, 49684, Note_off_c, 0, 69, 36
1, 49730, Note_on_c, 0, 65, 35
1, 49731, Note_on_c, 0, 57, 44
1, 49738, Note_on_c, 0, 77, 75
1, 49742, Note_on_c, 0, 60, 34
1, 49770, Note_off_c, 0, 65, 64
1, 49775, Note_off_c, 0, 60, 56
1, 49788, Note_off_c, 0, 57, 64
1, 49892, Note_off_c, 0, 72, 65
1, 50095, Note_on_c, 0, 53, 37
1, 50098, Note_on_c, 0, 76, 65
1, 50111, Control_c, 0, 64, 94
1, 50126, Control_c, 0, 64, 66
1, 50131, Note_off_c, 0, 77, 62
1, 50141, Control_c, 0, 64, 26
1, 50156, Control_c, 0, 64, 0
1, 50185, Control_c, 0, 64, 40
1, 50200, Control_c, 0, 64, 61
1, 50215, Control_c, 0, 64, 69
1, 50230, Control_c, 0, 64, 81
1, 50242, Note_off_c, 0, 53, 58
1, 50244, Control_c, 0, 64, 108
1, 50267, Control_c, 0, 64, 127
1, 50443, Note_on_c, 0, 70, 57
1, 50465, Note_on_c, 0, 61, 36
1, 50489, Note_on_c, 0, 67, 27
1, 50500, Note_on_c, 0, 64, 24
1, 50514, Note_off_c, 0, 61, 61
1, 50541, Note_off_c, 0, 64, 50
1, 50543, Note_off_c, 0, 76, 65
1, 50652, Note_off_c, 0, 67, 43
1, 50813, Note_on_c, 0, 61, 30
1, 50818, Note_on_c, 0, 64, 35
1, 50838, Note_on_c, 0, 73, 59
1, 50843, Note_on_c, 0, 58, 29
1, 50877, Note_off_c, 0, 64, 61
1, 50888, Note_off_c, 0, 61, 57
1, 50889, Note_off_c, 0, 58, 61
1, 51015, Note_off_c, 0, 70, 65
1, 51193, Control_c, 0, 64, 79
1, 51204, Note_on_c, 0, 41, 44
1, 51208, Control_c, 0, 64, 53
1, 51223, Control_c, 0, 64, 0
1, 51282, Control_c, 0, 64, 52
1, 51297, Control_c, 0, 64, 65
1, 51305, Note_off_c, 0, 41, 65
1, 51312, Control_c, 0, 64, 73
1, 51327, Control_c, 0, 64, 86
1, 51341, Control_c, 0, 64, 112
1, 51356, Control_c, 0, 64, 127
1, 51590, Note_on_c, 0, 72, 54
1, 51594, Note_on_c, 0, 65, 39
1, 51609, Note_on_c, 0, 60, 38
1, 51630, Note_on_c, 0, 69, 20
1, 51664, Note_off_c, 0, 73, 64
1, 51678, Note_off_c, 0, 60, 62
1, 51707, Note_off_c, 0, 65, 61
1, 51881, Note_off_c, 0, 69, 40
1, 51954, Note_on_c, 0, 77, 59
1, 51958, Note_on_c, 0, 65, 37
1, 51996, Note_on_c, 0, 57, 30
1, 51998, Note_on_c, 0, 60, 16
1, 52007, Note_off_c, 0, 65, 63
1, 52032, Note_off_c, 0, 57, 54
1, 52043, Note_off_c, 0, 60, 37
1, 52137, Note_off_c, 0, 72, 64
1, 52310, Note_off_c, 0, 77, 57
1, 52311, Note_on_c, 0, 53, 40
1, 52318, Note_on_c, 0, 76, 52
1, 52342, Control_c, 0, 64, 80
1, 52357, Control_c, 0, 64, 62
1, 52372, Control_c, 0, 64, 40
1, 52387, Control_c, 0, 64, 37
1, 52402, Control_c, 0, 64, 39
1, 52416, Control_c, 0, 64, 51
1, 52431, Control_c, 0, 64, 62
1, 52446, Control_c, 0, 64, 67
1, 52462, Control_c, 0, 64, 74
1, 52462, Note_off_c, 0, 53, 59
1, 52477, Control_c, 0, 64, 83
1, 52492, Control_c, 0, 64, 98
1, 52513, Control_c, 0, 64, 119
1, 52528, Control_c, 0, 64, 127
1, 52685, Note_on_c, 0, 61, 37
1, 52696, Note_on_c, 0, 70, 48
1, 52712, Note_on_c, 0, 67, 30
1, 52718, Note_on_c, 0, 64, 30
1, 52769, Note_off_c, 0, 61, 57
1, 52784, Note_off_c, 0, 64, 56
1, 52796, Note_off_c, 0, 76, 63
1, 52841, Note_off_c, 0, 67, 47
1, 53120, Note_on_c, 0, 73, 45
1, 53121, Control_c, 0, 64, 92
1, 53124, Note_on_c, 0, 58, 33
1, 53136, Control_c, 0, 64, 73
1, 53145, Note_on_c, 0, 64, 26
1, 53150, Note_on_c, 0, 61, 8
1, 53150, Control_c, 0, 64, 67
1, 53165, Control_c, 0, 64, 68
1, 53180, Control_c, 0, 64, 69
1, 53195, Control_c, 0, 64, 73
1, 53210, Control_c, 0, 64, 81
1, 53219, Note_off_c, 0, 64, 62
1, 53225, Control_c, 0, 64, 95
1, 53228, Note_off_c, 0, 70, 54
1, 53229, Note_off_c, 0, 61, 42
1, 53239, Control_c, 0, 64, 127
1, 53246, Note_off_c, 0, 58, 53
1, 53621, Note_on_c, 0, 41, 35
1, 53648, Control_c, 0, 64, 112
1, 53663, Control_c, 0, 64, 77
1, 53678, Control_c, 0, 64, 62
1, 53693, Control_c, 0, 64, 52
1, 53708, Control_c, 0, 64, 53
1, 53723, Control_c, 0, 64, 58
1, 53737, Control_c, 0, 64, 64
1, 53752, Control_c, 0, 64, 70
1, 53766, Note_off_c, 0, 41, 59
1, 53767, Control_c, 0, 64, 78
1, 53781, Control_c, 0, 64, 94
1, 53796, Control_c, 0, 64, 127
1, 54105, Note_on_c, 0, 60, 33
1, 54127, Note_on_c, 0, 72, 45
1, 54163, Note_on_c, 0, 66, 26
1, 54170, Note_on_c, 0, 63, 28
1, 54177, Note_off_c, 0, 73, 38
1, 54316, Note_off_c, 0, 60, 41
1, 54319, Note_on_c, 0, 73, 61
1, 54333, Note_off_c, 0, 63, 43
1, 54369, Note_off_c, 0, 72, 61
1, 54460, Note_on_c, 0, 63, 50
1, 54475, Note_on_c, 0, 72, 77
1, 54483, Note_on_c, 0, 58, 41
1, 54485, Note_on_c, 0, 54, 47
1, 54505, Note_off_c, 0, 73, 63
1, 54514, Note_off_c, 0, 58, 62
1, 54525, Note_off_c, 0, 63, 56
1, 54528, Note_off_c, 0, 54, 62
1, 54543, Note_off_c, 0, 66, 40
1, 54611, Note_on_c, 0, 73, 77
1, 54680, Note_off_c, 0, 72, 60
1, 54775, Note_off_c, 0, 73, 63
1, 54793, Note_on_c, 0, 75, 76
1, 54796, Note_on_c, 0, 53, 45
1, 54804, Control_c, 0, 64, 89
1, 54818, Control_c, 0, 64, 63
1, 54833, Control_c, 0, 64, 0
1, 54864, Control_c, 0, 64, 25
1, 54879, Control_c, 0, 64, 56
1, 54888, Note_off_c, 0, 53, 64
1, 54894, Control_c, 0, 64, 68
1, 54908, Control_c, 0, 64, 84
1, 54923, Control_c, 0, 64, 127
1, 54944, Note_off_c, 0, 75, 64
1, 55151, Note_on_c, 0, 75, 83
1, 55158, Note_on_c, 0, 70, 55
1, 55189, Note_on_c, 0, 66, 43
1, 55192, Note_on_c, 0, 63, 49
1, 55213, Note_off_c, 0, 75, 64
1, 55273, Note_off_c, 0, 63, 55
1, 55298, Note_off_c, 0, 66, 52
1, 55355, Note_off_c, 0, 70, 37
1, 55484, Note_on_c, 0, 60, 47
1, 55519, Note_on_c, 0, 63, 47
1, 55525, Note_on_c, 0, 66, 38
1, 55548, Note_on_c, 0, 75, 77
1, 55562, Note_off_c, 0, 66, 64
1, 55582, Note_off_c, 0, 60, 64
1, 55583, Note_off_c, 0, 63, 62
1, 55647, Note_off_c, 0, 75, 63
1, 56054, Note_on_c, 0, 41, 30
1, 56078, Note_on_c, 0, 75, 64
1, 56101, Control_c, 0, 64, 100
1, 56116, Control_c, 0, 64, 69
1, 56130, Control_c, 0, 64, 46
1, 56145, Control_c, 0, 64, 43
1, 56160, Control_c, 0, 64, 50
1, 56175, Control_c, 0, 64, 61
1, 56189, Control_c, 0, 64, 68
1, 56204, Control_c, 0, 64, 79
1, 56219, Control_c, 0, 64, 127
1, 56224, Note_off_c, 0, 41, 56
1, 56650, Note_on_c, 0, 77, 56
1, 56651, Note_on_c, 0, 63, 26
1, 56691, Note_on_c, 0, 69, 31
1, 56796, Note_off_c, 0, 75, 57
1, 56828, Note_off_c, 0, 63, 40
1, 56880, Note_on_c, 0, 72, 59
1, 56918, Note_off_c, 0, 69, 41
1, 57073, Note_on_c, 0, 63, 34
1, 57073, Note_on_c, 0, 75, 61
1, 57078, Note_on_c, 0, 65, 35
1, 57079, Note_on_c, 0, 57, 41
1, 57107, Note_off_c, 0, 72, 60
1, 57127, Note_off_c, 0, 65, 61
1, 57139, Note_off_c, 0, 57, 62
1, 57146, Note_off_c, 0, 63, 59
1, 57221, Note_on_c, 0, 73, 64
1, 57281, Note_off_c, 0, 75, 38
1, 57441, Note_off_c, 0, 73, 55
1, 57446, Note_on_c, 0, 70, 52
1, 57458, Note_on_c, 0, 46, 37
1, 57495, Control_c, 0, 64, 90
1, 57509, Control_c, 0, 64, 65
1, 57524, Control_c, 0, 64, 0
1, 57583, Control_c, 0, 64, 56
1, 57588, Note_off_c, 0, 77, 52
1, 57598, Control_c, 0, 64, 67
1, 57613, Control_c, 0, 64, 80
1, 57628, Control_c, 0, 64, 127
1, 57634, Note_off_c, 0, 46, 57
1, 57870, Note_on_c, 0, 58, 36
1, 57891, Note_on_c, 0, 61, 26
1, 57896, Note_on_c, 0, 65, 26
1, 57933, Note_off_c, 0, 58, 55
1, 57974, Note_off_c, 0, 61, 40
1, 58127, Note_off_c, 0, 65, 41
1, 58233, Note_on_c, 0, 58, 35
1, 58243, Note_on_c, 0, 61, 32
1, 58272, Note_on_c, 0, 53, 21
1, 58291, Note_off_c, 0, 58, 53
1, 58329, Note_off_c, 0, 53, 48
1, 58340, Note_off_c, 0, 61, 56
1, 58763, Note_on_c, 0, 67, 38
1, 58799, Note_on_c, 0, 48, 24
1, 58829, Control_c, 0, 64, 77
1, 58844, Control_c, 0, 64, 54
1, 58853, Note_off_c, 0, 70, 59
1, 58859, Control_c, 0, 64, 0
1, 58904, Control_c, 0, 64, 47
1, 58919, Control_c, 0, 64, 63
1, 58933, Control_c, 0, 64, 73
1, 58948, Control_c, 0, 64, 88
1, 58963, Control_c, 0, 64, 127
1, 58969, Note_off_c, 0, 48, 57
1, 59049, Poly_aftertouch_c, 0, 77, 127
1, 59239, Note_on_c, 0, 58, 26
1, 59264, Note_on_c, 0, 64, 11
1, 59289, Note_on_c, 0, 60, 10
1, 59427, Note_off_c, 0, 64, 49
1, 59436, Note_off_c, 0, 58, 41
1, 59455, Note_off_c, 0, 60, 40
1, 59765, Note_on_c, 0, 60, 20
1, 59780, Note_on_c, 0, 58, 25
1, 59793, Note_on_c, 0, 52, 29
1, 60034, Note_off_c, 0, 60, 42
1, 60036, Note_off_c, 0, 52, 43
1, 60042, Note_off_c, 0, 58, 43
1, 61036, Note_on_c, 0, 41, 33
1, 61075, Control_c, 0, 64, 78
1, 61090, Control_c, 0, 64, 56
1, 61105, Control_c, 0, 64, 0
1, 61179, Control_c, 0, 64, 52
1, 61193, Control_c, 0, 64, 63
1, 61208, Control_c, 0, 64, 69
1, 61223, Control_c, 0, 64, 76
1, 61238, Control_c, 0, 64, 86
1, 61240, Note_off_c, 0, 41, 56
1, 61254, Control_c, 0, 64, 110
1, 61268, Control_c, 0, 64, 127
1, 61359, Poly_aftertouch_c, 0, 77, 0
1, 61582, Poly_aftertouch_c, 0, 77, 127
1, 61724, Note_on_c, 0, 72, 52
1, 61730, Note_on_c, 0, 60, 37
1, 61749, Note_on_c, 0, 65, 33
1, 61765, Note_on_c, 0, 68, 18
1, 61795, Note_off_c, 0, 67, 36
1, 61860, Poly_aftertouch_c, 0, 77, 0
1, 61934, Note_off_c, 0, 60, 35
1, 61965, Note_off_c, 0, 65, 42
1, 61997, Note_off_c, 0, 68, 41
1, 62185, Note_on_c, 0, 56, 44
1, 62186, Note_on_c, 0, 77, 67
1, 62193, Note_on_c, 0, 65, 38
1, 62253, Note_off_c, 0, 65, 61
1, 62287, Note_off_c, 0, 56, 63
1, 62297, Poly_aftertouch_c, 0, 60, 0
1, 62433, Note_off_c, 0, 72, 59
1, 62560, Note_on_c, 0, 76, 61
1, 62563, Note_off_c, 0, 77, 58
1, 62580, Note_on_c, 0, 53, 30
1, 62603, Control_c, 0, 64, 103
1, 62618, Control_c, 0, 64, 69
1, 62632, Control_c, 0, 64, 31
1, 62647, Control_c, 0, 64, 0
1, 62692, Control_c, 0, 64, 12
1, 62706, Control_c, 0, 64, 58
1, 62721, Control_c, 0, 64, 67
1, 62736, Control_c, 0, 64, 77
1, 62738, Note_off_c, 0, 53, 59
1, 62751, Control_c, 0, 64, 101
1, 62766, Control_c, 0, 64, 127
1, 62940, Note_on_c, 0, 70, 58
1, 62955, Note_on_c, 0, 61, 34
1, 62985, Note_on_c, 0, 67, 37
1, 62998, Note_on_c, 0, 64, 14
1, 63027, Note_off_c, 0, 76, 63
1, 63051, Note_off_c, 0, 61, 56
1, 63073, Note_off_c, 0, 64, 40
1, 63139, Note_off_c, 0, 67, 55
1, 63312, Note_on_c, 0, 73, 63
1, 63326, Note_on_c, 0, 64, 41
1, 63330, Note_on_c, 0, 58, 41
1, 63366, Note_off_c, 0, 64, 63
1, 63372, Note_off_c, 0, 58, 61
1, 63418, Poly_aftertouch_c, 0, 61, 0
1, 63485, Note_off_c, 0, 70, 63
1, 63663, Note_on_c, 0, 41, 44
1, 63678, Control_c, 0, 64, 85
1, 63693, Control_c, 0, 64, 60
1, 63708, Control_c, 0, 64, 0
1, 63745, Control_c, 0, 64, 10
1, 63760, Control_c, 0, 64, 48
1, 63774, Control_c, 0, 64, 65
1, 63780, Note_off_c, 0, 41, 65
1, 63789, Control_c, 0, 64, 74
1, 63804, Control_c, 0, 64, 96
1, 63819, Control_c, 0, 64, 127
1, 64048, Note_on_c, 0, 65, 40
1, 64048, Note_on_c, 0, 72, 64
1, 64061, Note_on_c, 0, 68, 33
1, 64081, Note_on_c, 0, 60, 42
1, 64130, Note_off_c, 0, 73, 65
1, 64157, Note_off_c, 0, 60, 60
1, 64197, Note_off_c, 0, 65, 61
1, 64320, Note_off_c, 0, 68, 38
1, 64378, Note_on_c, 0, 65, 30
1, 64400, Note_on_c, 0, 56, 50
1, 64463, Note_off_c, 0, 65, 61
1, 64465, Note_on_c, 0, 77, 73
1, 64481, Poly_aftertouch_c, 0, 60, 0
1, 64496, Note_off_c, 0, 56, 62
1, 64576, Note_off_c, 0, 72, 66
1, 64746, Control_c, 0, 64, 88
1, 64761, Control_c, 0, 64, 65
1, 64775, Control_c, 0, 64, 50
1, 64778, Note_on_c, 0, 53, 41
1, 64805, Control_c, 0, 64, 55
1, 64820, Control_c, 0, 64, 63
1, 64835, Control_c, 0, 64, 69
1, 64849, Control_c, 0, 64, 80
1, 64864, Control_c, 0, 64, 105
1, 64879, Control_c, 0, 64, 127
1, 64903, Note_off_c, 0, 53, 63
1, 64954, Note_on_c, 0, 76, 65
1, 65178, Note_on_c, 0, 67, 28
1, 65180, Note_on_c, 0, 61, 33
1, 65205, Control_c, 0, 64, 115
1, 65214, Note_on_c, 0, 70, 61
1, 65219, Control_c, 0, 64, 94
1, 65224, Note_off_c, 0, 76, 62
1, 65243, Control_c, 0, 64, 92
1, 65258, Note_on_c, 0, 64, 29
1, 65258, Control_c, 0, 64, 96
1, 65272, Control_c, 0, 64, 107
1, 65287, Control_c, 0, 64, 127
1, 65375, Note_on_c, 0, 72, 71
1, 65376, Note_off_c, 0, 70, 62
1, 65405, Note_off_c, 0, 64, 36
1, 65446, Note_off_c, 0, 67, 41
1, 65530, Note_on_c, 0, 75, 74
1, 65535, Note_on_c, 0, 58, 47
1, 65538, Note_on_c, 0, 64, 33
1, 65550, Note_off_c, 0, 72, 57
1, 65563, Note_off_c, 0, 58, 61
1, 65565, Note_off_c, 0, 61, 44
1, 65573, Note_off_c, 0, 64, 51
1, 65664, Note_on_c, 0, 73, 67
1, 65668, Note_off_c, 0, 77, 59
1, 65708, Note_off_c, 0, 75, 59
1, 65805, Control_c, 0, 64, 81
1, 65816, Note_off_c, 0, 73, 63
1, 65820, Control_c, 0, 64, 0
1, 65832, Note_on_c, 0, 53, 61
1, 65894, Control_c, 0, 64, 34
1, 65909, Control_c, 0, 64, 66
1, 65924, Control_c, 0, 64, 78
1, 65939, Control_c, 0, 64, 117
1, 65945, Note_off_c, 0, 53, 63
1, 65953, Control_c, 0, 64, 127
1, 66138, Note_on_c, 0, 60, 24
1, 66145, Note_on_c, 0, 56, 50
1, 66155, Note_on_c, 0, 72, 64
1, 66186, Note_on_c, 0, 68, 14
1, 66229, Note_off_c, 0, 56, 62
1, 66244, Note_off_c, 0, 68, 45
1, 66294, Note_on_c, 0, 73, 71
1, 66335, Note_off_c, 0, 72, 62
1, 66421, Note_on_c, 0, 52, 62
1, 66433, Note_on_c, 0, 72, 81
1, 66460, Note_off_c, 0, 73, 63
1, 66497, Note_off_c, 0, 52, 64
1, 66500, Note_off_c, 0, 60, 54
1, 66560, Note_on_c, 0, 73, 89
1, 66644, Note_off_c, 0, 72, 62
1, 66749, Note_off_c, 0, 73, 63
1, 66785, Note_on_c, 0, 51, 58
1, 66785, Note_on_c, 0, 75, 80
1, 66797, Control_c, 0, 64, 116
1, 66812, Control_c, 0, 64, 65
1, 66827, Control_c, 0, 64, 0
1, 66887, Control_c, 0, 64, 62
1, 66893, Note_off_c, 0, 75, 64
1, 66901, Control_c, 0, 64, 79
1, 66916, Control_c, 0, 64, 127
1, 66946, Note_off_c, 0, 51, 64
1, 67117, Note_on_c, 0, 60, 61
1, 67122, Note_on_c, 0, 68, 67
1, 67123, Note_on_c, 0, 75, 85
1, 67158, Note_off_c, 0, 68, 63
1, 67170, Note_off_c, 0, 75, 64
1, 67178, Note_off_c, 0, 60, 64
1, 67438, Note_on_c, 0, 75, 90
1, 67441, Note_on_c, 0, 51, 75
1, 67499, Note_off_c, 0, 75, 65
1, 67831, Note_on_c, 0, 39, 53
1, 67888, Control_c, 0, 64, 96
1, 67900, Note_on_c, 0, 75, 82
1, 67903, Control_c, 0, 64, 65
1, 67917, Control_c, 0, 64, 31
1, 67932, Control_c, 0, 64, 26
1, 67947, Control_c, 0, 64, 42
1, 67962, Control_c, 0, 64, 63
1, 67977, Control_c, 0, 64, 73
1, 67987, Note_off_c, 0, 39, 63
1, 67991, Control_c, 0, 64, 98
1, 67994, Note_off_c, 0, 51, 64
1, 68006, Control_c, 0, 64, 127
1, 68310, Note_on_c, 0, 73, 73
1, 68311, Note_on_c, 0, 61, 47
1, 68323, Note_on_c, 0, 67, 49
1, 68357, Note_off_c, 0, 67, 65
1, 68368, Note_off_c, 0, 61, 62
1, 68484, Note_on_c, 0, 72, 79
1, 68532, Note_off_c, 0, 75, 58
1, 68608, Note_on_c, 0, 61, 56
1, 68619, Note_on_c, 0, 55, 53
1, 68623, Note_on_c, 0, 51, 54
1, 68631, Note_on_c, 0, 70, 75
1, 68641, Note_off_c, 0, 61, 63
1, 68644, Note_off_c, 0, 73, 0
1, 68645, Note_off_c, 0, 72, 59
1, 68648, Note_off_c, 0, 55, 65
1, 68655, Note_off_c, 0, 51, 65
1, 68714, Poly_aftertouch_c, 0, 73, 0
1, 68762, Note_on_c, 0, 72, 81
1, 68774, Note_off_c, 0, 70, 63
1, 68956, Note_on_c, 0, 44, 55
1, 68978, Control_c, 0, 64, 91
1, 68991, Note_on_c, 0, 68, 66
1, 69000, Control_c, 0, 64, 54
1, 69005, Note_off_c, 0, 72, 61
1, 69015, Control_c, 0, 64, 0
1, 69074, Control_c, 0, 64, 31
1, 69080, Note_off_c, 0, 44, 64
1, 69089, Control_c, 0, 64, 64
1, 69104, Control_c, 0, 64, 76
1, 69119, Control_c, 0, 64, 116
1, 69134, Control_c, 0, 64, 127
1, 69427, Note_on_c, 0, 63, 66
1, 69438, Note_on_c, 0, 60, 52
1, 69467, Note_on_c, 0, 56, 44
1, 69566, Note_off_c, 0, 56, 56
1, 69594, Note_off_c, 0, 63, 61
1, 69599, Poly_aftertouch_c, 0, 76, 127
1, 69623, Note_off_c, 0, 60, 35
1, 69742, Note_on_c, 0, 56, 59
1, 69745, Note_on_c, 0, 60, 62
1, 69754, Note_on_c, 0, 51, 66
1, 69789, Note_off_c, 0, 60, 62
1, 69806, Note_off_c, 0, 51, 63
1, 69811, Note_off_c, 0, 56, 64
1, 70055, Note_on_c, 0, 44, 79
1, 70111, Note_off_c, 0, 44, 62
1, 70127, Poly_aftertouch_c, 0, 76, 0
1, 70401, Note_on_c, 0, 64, 75
1, 70416, Control_c, 0, 64, 105
1, 70419, Note_on_c, 0, 56, 63
1, 70420, Note_on_c, 0, 60, 55
1, 70431, Control_c, 0, 64, 72
1, 70446, Control_c, 0, 64, 64
1, 70461, Control_c, 0, 64, 68
1, 70483, Control_c, 0, 64, 81
1, 70498, Control_c, 0, 64, 127
1, 70541, Note_off_c, 0, 68, 61
1, 70596, Note_off_c, 0, 60, 55
1, 70616, Note_off_c, 0, 56, 55
1, 70651, Note_off_c, 0, 64, 63
1, 70770, Note_on_c, 0, 60, 76
1, 70775, Note_on_c, 0, 56, 68
1, 70777, Note_on_c, 0, 52, 64
1, 70818, Note_off_c, 0, 60, 65
1, 70822, Note_off_c, 0, 52, 63
1, 70839, Note_off_c, 0, 56, 65
1, 71255, Note_on_c, 0, 32, 76
1, 71276, Control_c, 0, 64, 93
1, 71290, Control_c, 0, 64, 60
1, 71305, Control_c, 0, 64, 0
1, 71349, Control_c, 0, 64, 58
1, 71364, Control_c, 0, 64, 73
1, 71378, Note_off_c, 0, 32, 63
1, 71379, Control_c, 0, 64, 127
1, 71734, Note_on_c, 0, 75, 78
1, 71761, Note_on_c, 0, 63, 55
1, 71766, Note_on_c, 0, 72, 58
1, 71787, Note_on_c, 0, 68, 50
1, 71838, Note_off_c, 0, 63, 63
1, 71880, Note_off_c, 0, 68, 55
1, 72089, Note_on_c, 0, 60, 50
1, 72105, Note_on_c, 0, 63, 58
1, 72119, Note_on_c, 0, 68, 58
1, 72136, Note_off_c, 0, 72, 61
1, 72141, Note_on_c, 0, 80, 89
1, 72154, Note_off_c, 0, 60, 64
1, 72172, Note_off_c, 0, 68, 61
1, 72184, Note_off_c, 0, 63, 63
1, 72215, Note_off_c, 0, 75, 65
1, 72446, Note_on_c, 0, 79, 83
1, 72449, Note_on_c, 0, 56, 65
1, 72455, Control_c, 0, 64, 77
1, 72469, Note_off_c, 0, 80, 62
1, 72470, Control_c, 0, 64, 43
1, 72485, Control_c, 0, 64, 0
1, 72515, Control_c, 0, 64, 35
1, 72529, Control_c, 0, 64, 63
1, 72544, Control_c, 0, 64, 73
1, 72559, Note_off_c, 0, 56, 64
1, 72559, Control_c, 0, 64, 94
1, 72574, Control_c, 0, 64, 127
1, 72771, Note_on_c, 0, 73, 83
1, 72779, Note_on_c, 0, 70, 60
1, 72784, Note_on_c, 0, 64, 54
1, 72785, Note_on_c, 0, 67, 50
1, 72890, Note_off_c, 0, 64, 54
1, 72906, Note_off_c, 0, 79, 52
1, 72909, Note_off_c, 0, 67, 54
1, 72926, Note_off_c, 0, 70, 63
1, 73075, Note_on_c, 0, 67, 52
1, 73076, Note_on_c, 0, 61, 53
1, 73096, Note_on_c, 0, 64, 41
1, 73126, Note_off_c, 0, 67, 62
1, 73137, Note_on_c, 0, 76, 79
1, 73137, Note_off_c, 0, 64, 62
1, 73152, Note_off_c, 0, 61, 63
1, 73245, Note_off_c, 0, 73, 64
1, 73442, Control_c, 0, 64, 110
1, 73444, Note_on_c, 0, 44, 70
1, 73456, Control_c, 0, 64, 63
1, 73478, Control_c, 0, 64, 0
1, 73519, Note_off_c, 0, 44, 64
1, 73523, Control_c, 0, 64, 40
1, 73537, Control_c, 0, 64, 65
1, 73552, Control_c, 0, 64, 86
1, 73567, Control_c, 0, 64, 127
1, 73732, Note_on_c, 0, 75, 78
1, 73753, Note_on_c, 0, 63, 57
1, 73764, Note_on_c, 0, 72, 55
1, 73781, Note_on_c, 0, 68, 45
1, 73791, Note_off_c, 0, 76, 64
1, 73807, Note_off_c, 0, 63, 61
1, 73841, Note_off_c, 0, 68, 54
1, 73987, Note_off_c, 0, 72, 60
1, 74019, Note_on_c, 0, 60, 41
1, 74043, Note_on_c, 0, 68, 52
1, 74044, Note_on_c, 0, 63, 53
1, 74076, Note_off_c, 0, 60, 63
1, 74085, Note_off_c, 0, 68, 62
1, 74104, Note_on_c, 0, 80, 85
1, 74106, Note_off_c, 0, 63, 63
1, 74166, Note_off_c, 0, 75, 63
1, 74331, Control_c, 0, 64, 85
1, 74346, Control_c, 0, 64, 67
1, 74360, Control_c, 0, 64, 65
1, 74368, Note_on_c, 0, 56, 65
1, 74375, Control_c, 0, 64, 69
1, 74390, Control_c, 0, 64, 84
1, 74405, Control_c, 0, 64, 127
1, 74449, Note_off_c, 0, 56, 64
1, 74524, Note_on_c, 0, 79, 81
1, 74661, Note_on_c, 0, 64, 49
1, 74667, Note_on_c, 0, 70, 43
1, 74691, Note_on_c, 0, 67, 46
1, 74734, Note_on_c, 0, 73, 80
1, 74738, Note_off_c, 0, 79, 68
1, 74747, Note_off_c, 0, 80, 62
1, 74782, Note_off_c, 0, 64, 59
1, 74818, Note_off_c, 0, 67, 59
1, 74856, Note_on_c, 0, 75, 81
1, 74872, Note_off_c, 0, 70, 53
1, 74939, Control_c, 0, 64, 99
1, 74954, Control_c, 0, 64, 74
1, 74976, Control_c, 0, 64, 69
1, 74991, Control_c, 0, 64, 71
1, 74996, Note_on_c, 0, 67, 50
1, 74998, Note_on_c, 0, 61, 51
1, 75006, Control_c, 0, 64, 76
1, 75009, Note_on_c, 0, 78, 77
1, 75015, Note_on_c, 0, 58, 49
1, 75020, Control_c, 0, 64, 88
1, 75034, Note_off_c, 0, 67, 66
1, 75035, Control_c, 0, 64, 127
1, 75060, Note_off_c, 0, 58, 64
1, 75060, Note_off_c, 0, 75, 59
1, 75064, Note_off_c, 0, 61, 62
1, 75070, Note_off_c, 0, 73, 56
1, 75146, Note_off_c, 0, 78, 65
1, 75154, Note_on_c, 0, 76, 73
1, 75287, Control_c, 0, 64, 109
1, 75290, Note_off_c, 0, 76, 63
1, 75301, Control_c, 0, 64, 69
1, 75316, Control_c, 0, 64, 0
1, 75326, Note_on_c, 0, 44, 73
1, 75361, Control_c, 0, 64, 18
1, 75375, Control_c, 0, 64, 59
1, 75390, Control_c, 0, 64, 70
1, 75405, Control_c, 0, 64, 92
1, 75415, Note_off_c, 0, 44, 63
1, 75420, Control_c, 0, 64, 127
1, 75608, Note_on_c, 0, 72, 59
1, 75619, Note_on_c, 0, 75, 80
1, 75621, Note_on_c, 0, 63, 50
1, 75634, Note_on_c, 0, 68, 56
1, 75739, Note_off_c, 0, 63, 57
1, 75749, Note_off_c, 0, 68, 52
1, 75767, Note_on_c, 0, 77, 87
1, 75783, Note_off_c, 0, 72, 59
1, 75811, Note_off_c, 0, 75, 62
1, 75881, Note_on_c, 0, 63, 61
1, 75886, Note_on_c, 0, 60, 56
1, 75894, Note_on_c, 0, 68, 50
1, 75901, Note_on_c, 0, 75, 92
1, 75916, Note_off_c, 0, 68, 61
1, 75917, Note_off_c, 0, 60, 66
1, 75933, Note_off_c, 0, 63, 63
1, 75940, Note_off_c, 0, 77, 60
1, 76018, Note_on_c, 0, 77, 96
1, 76046, Note_off_c, 0, 75, 63
1, 76197, Note_off_c, 0, 77, 61
1, 76205, Note_on_c, 0, 39, 63
1, 76214, Control_c, 0, 64, 77
1, 76214, Note_on_c, 0, 78, 87
1, 76229, Control_c, 0, 64, 0
1, 76288, Control_c, 0, 64, 42
1, 76303, Control_c, 0, 64, 72
1, 76307, Note_off_c, 0, 39, 65
1, 76317, Control_c, 0, 64, 127
1, 76404, Note_off_c, 0, 78, 63
1, 76539, Note_on_c, 0, 70, 66
1, 76560, Note_on_c, 0, 78, 88
1, 76588, Note_on_c, 0, 58, 24
1, 76637, Note_off_c, 0, 58, 45
1, 76650, Note_off_c, 0, 78, 66
1, 76688, Note_off_c, 0, 70, 61
1, 76892, Note_on_c, 0, 58, 57
1, 76902, Note_on_c, 0, 66, 52
1, 76906, Note_on_c, 0, 78, 85
1, 76908, Note_on_c, 0, 63, 52
1, 76935, Note_off_c, 0, 66, 64
1, 76941, Note_off_c, 0, 63, 65
1, 76949, Note_off_c, 0, 58, 63
1, 76954, Note_on_c, 0, 74, 29
1, 76989, Poly_aftertouch_c, 0, 73, 127
1, 77117, Note_off_c, 0, 78, 57
1, 77352, Note_on_c, 0, 41, 48
1, 77376, Note_on_c, 0, 78, 70
1, 77399, Control_c, 0, 64, 77
1, 77414, Control_c, 0, 64, 48
1, 77429, Control_c, 0, 64, 0
1, 77473, Control_c, 0, 64, 54
1, 77488, Control_c, 0, 64, 67
1, 77502, Note_off_c, 0, 41, 65
1, 77503, Control_c, 0, 64, 78
1, 77510, Note_off_c, 0, 74, 56
1, 77518, Control_c, 0, 64, 107
1, 77519, Poly_aftertouch_c, 0, 73, 0
1, 77532, Control_c, 0, 64, 127
1, 77734, Note_off_c, 0, 78, 36
1, 77788, Note_on_c, 0, 77, 61
1, 77793, Note_on_c, 0, 63, 46
1, 77828, Note_on_c, 0, 69, 42
1, 77928, Note_off_c, 0, 63, 57
1, 77954, Note_on_c, 0, 72, 65
1, 77959, Note_off_c, 0, 69, 61
1, 77974, Note_off_c, 0, 77, 62
1, 78125, Note_on_c, 0, 57, 41
1, 78133, Note_on_c, 0, 63, 46
1, 78141, Note_on_c, 0, 75, 68
1, 78153, Note_on_c, 0, 65, 32
1, 78181, Note_off_c, 0, 57, 63
1, 78185, Note_off_c, 0, 65, 57
1, 78200, Note_off_c, 0, 63, 61
1, 78256, Note_off_c, 0, 72, 61
1, 78288, Note_on_c, 0, 73, 66
1, 78339, Note_off_c, 0, 75, 59
1, 78444, Control_c, 0, 64, 117
1, 78459, Control_c, 0, 64, 112
1, 78473, Control_c, 0, 64, 110
1, 78488, Control_c, 0, 64, 109
1, 78503, Control_c, 0, 64, 108
1, 78518, Control_c, 0, 64, 94
1, 78519, Note_on_c, 0, 46, 39
1, 78523, Note_on_c, 0, 70, 48
1, 78533, Control_c, 0, 64, 74
1, 78548, Control_c, 0, 64, 57
1, 78563, Control_c, 0, 64, 0
1, 78584, Note_off_c, 0, 73, 56
1, 78607, Control_c, 0, 64, 17
1, 78622, Control_c, 0, 64, 56
1, 78637, Control_c, 0, 64, 66
1, 78652, Control_c, 0, 64, 76
1, 78666, Control_c, 0, 64, 94
1, 78675, Note_off_c, 0, 46, 63
1, 78681, Control_c, 0, 64, 127
1, 78883, Note_on_c, 0, 58, 47
1, 78909, Note_on_c, 0, 65, 35
1, 78921, Note_on_c, 0, 61, 29
1, 78978, Note_off_c, 0, 61, 45
1, 78987, Note_off_c, 0, 58, 57
1, 79004, Note_off_c, 0, 65, 45
1, 79270, Note_on_c, 0, 58, 26
1, 79272, Note_on_c, 0, 61, 43
1, 79282, Note_on_c, 0, 53, 33
1, 79323, Note_off_c, 0, 58, 59
1, 79335, Note_off_c, 0, 61, 60
1, 79356, Note_off_c, 0, 53, 58
1, 79714, Note_on_c, 0, 42, 46
1, 79735, Control_c, 0, 64, 91
1, 79750, Control_c, 0, 64, 65
1, 79764, Control_c, 0, 64, 25
1, 79779, Control_c, 0, 64, 0
1, 79794, Control_c, 0, 64, 12
1, 79809, Control_c, 0, 64, 50
1, 79824, Control_c, 0, 64, 63
1, 79839, Control_c, 0, 64, 70
1, 79850, Note_off_c, 0, 42, 62
1, 79853, Control_c, 0, 64, 81
1, 79868, Control_c, 0, 64, 103
1, 79878, Note_off_c, 0, 70, 60
1, 79883, Control_c, 0, 64, 127
1, 80159, Note_on_c, 0, 73, 48
1, 80168, Note_on_c, 0, 58, 36
1, 80169, Note_on_c, 0, 61, 33
1, 80169, Note_on_c, 0, 66, 28
1, 80246, Note_off_c, 0, 58, 55
1, 80249, Note_off_c, 0, 61, 52
1, 80277, Note_off_c, 0, 66, 31
1, 80299, Note_on_c, 0, 75, 62
1, 80324, Note_off_c, 0, 73, 60
1, 80447, Note_on_c, 0, 54, 50
1, 80454, Note_on_c, 0, 73, 64
1, 80467, Note_on_c, 0, 61, 23
1, 80473, Note_off_c, 0, 75, 58
1, 80485, Note_off_c, 0, 54, 65
1, 80493, Poly_aftertouch_c, 0, 58, 127
1, 80503, Note_off_c, 0, 61, 45
1, 80529, Poly_aftertouch_c, 0, 58, 0
1, 80585, Note_on_c, 0, 75, 74
1, 80624, Note_off_c, 0, 73, 61
1, 80709, Note_off_c, 0, 75, 59
1, 80772, Note_on_c, 0, 37, 35
1, 80779, Note_on_c, 0, 77, 65
1, 80795, Control_c, 0, 64, 76
1, 80810, Control_c, 0, 64, 39
1, 80825, Control_c, 0, 64, 0
1, 80869, Control_c, 0, 64, 52
1, 80884, Control_c, 0, 64, 65
1, 80897, Note_off_c, 0, 37, 56
1, 80899, Control_c, 0, 64, 75
1, 80914, Control_c, 0, 64, 107
1, 80929, Control_c, 0, 64, 127
1, 80938, Note_off_c, 0, 77, 64
1, 81125, Note_on_c, 0, 56, 42
1, 81129, Note_on_c, 0, 77, 62
1, 81176, Note_on_c, 0, 61, 38
1, 81197, Note_on_c, 0, 65, 16
1, 81250, Note_off_c, 0, 61, 52
1, 81266, Note_off_c, 0, 77, 58
1, 81270, Note_off_c, 0, 65, 45
1, 81279, Note_off_c, 0, 56, 33
1, 81496, Note_on_c, 0, 53, 36
1, 81508, Note_on_c, 0, 77, 64
1, 81528, Note_on_c, 0, 56, 34
1, 81531, Note_on_c, 0, 61, 34
1, 81572, Note_off_c, 0, 53, 58
1, 81576, Note_off_c, 0, 61, 61
1, 81607, Note_off_c, 0, 56, 60
1, 81643, Note_off_c, 0, 77, 61
1, 81947, Note_on_c, 0, 77, 48
1, 81959, Note_on_c, 0, 39, 30
1, 81980, Control_c, 0, 64, 85
1, 81995, Control_c, 0, 64, 65
1, 82010, Control_c, 0, 64, 50
1, 82026, Control_c, 0, 64, 48
1, 82040, Control_c, 0, 64, 53
1, 82055, Control_c, 0, 64, 61
1, 82070, Control_c, 0, 64, 67
1, 82085, Control_c, 0, 64, 76
1, 82092, Note_off_c, 0, 39, 57
1, 82100, Control_c, 0, 64, 95
1, 82114, Control_c, 0, 64, 127
1, 82381, Note_on_c, 0, 75, 49
1, 82382, Note_on_c, 0, 58, 35
1, 82385, Note_on_c, 0, 60, 29
1, 82394, Note_on_c, 0, 66, 20
1, 82470, Note_off_c, 0, 66, 54
1, 82506, Note_off_c, 0, 75, 60
1, 82513, Note_off_c, 0, 58, 37
1, 82546, Note_on_c, 0, 70, 52
1, 82632, Note_off_c, 0, 60, 38
1, 82715, Note_on_c, 0, 73, 61
1, 82725, Note_on_c, 0, 63, 35
1, 82726, Note_on_c, 0, 54, 42
1, 82735, Note_on_c, 0, 58, 28
1, 82759, Note_off_c, 0, 63, 49
1, 82762, Note_off_c, 0, 54, 63
1, 82775, Note_off_c, 0, 58, 45
1, 82856, Note_off_c, 0, 70, 38
1, 82860, Note_on_c, 0, 72, 64
1, 82892, Note_off_c, 0, 73, 51
1, 82982, Note_off_c, 0, 72, 60
1, 83082, Note_on_c, 0, 69, 52
1, 83090, Note_on_c, 0, 41, 40
1, 83100, Control_c, 0, 64, 81
1, 83115, Control_c, 0, 64, 56
1, 83130, Control_c, 0, 64, 0
1, 83174, Control_c, 0, 64, 36
1, 83187, Note_off_c, 0, 77, 40
1, 83189, Control_c, 0, 64, 62
1, 83198, Note_off_c, 0, 41, 65
1, 83204, Control_c, 0, 64, 71
1, 83226, Control_c, 0, 64, 88
1, 83241, Control_c, 0, 64, 127
1, 83315, Note_off_c, 0, 69, 54
1, 83389, Poly_aftertouch_c, 0, 77, 127
1, 83502, Note_on_c, 0, 72, 53
1, 83521, Poly_aftertouch_c, 0, 77, 0
1, 83523, Note_on_c, 0, 65, 47
1, 83558, Poly_aftertouch_c, 0, 77, 127
1, 83569, Note_on_c, 0, 60, 43
1, 83571, Note_on_c, 0, 69, 29
1, 83613, Poly_aftertouch_c, 0, 77, 0
1, 83648, Note_off_c, 0, 60, 59
1, 83657, Note_off_c, 0, 65, 59
1, 83866, Note_on_c, 0, 77, 74
1, 83872, Note_on_c, 0, 60, 40
1, 83882, Note_on_c, 0, 57, 51
1, 83889, Note_on_c, 0, 65, 38
1, 83904, Note_off_c, 0, 69, 41
1, 83907, Note_off_c, 0, 60, 64
1, 83917, Note_off_c, 0, 65, 58
1, 83934, Note_off_c, 0, 57, 63
1, 84095, Note_off_c, 0, 72, 61
1, 84204, Note_on_c, 0, 53, 46
1, 84229, Note_on_c, 0, 76, 61
1, 84242, Control_c, 0, 64, 77
1, 84247, Note_off_c, 0, 77, 55
1, 84257, Control_c, 0, 64, 54
1, 84272, Control_c, 0, 64, 0
1, 84301, Control_c, 0, 64, 12
1, 84316, Control_c, 0, 64, 58
1, 84331, Control_c, 0, 64, 69
1, 84346, Control_c, 0, 64, 85
1, 84361, Note_off_c, 0, 53, 64
1, 84361, Control_c, 0, 64, 127
1, 84566, Note_on_c, 0, 70, 57
1, 84581, Note_on_c, 0, 61, 29
1, 84625, Note_on_c, 0, 67, 41
1, 84646, Note_off_c, 0, 76, 65
1, 84733, Poly_aftertouch_c, 0, 64, 0
1, 84737, Note_off_c, 0, 61, 43
1, 84744, Note_off_c, 0, 67, 54
1, 84903, Note_on_c, 0, 64, 47
1, 84906, Note_on_c, 0, 58, 50
1, 84910, Note_on_c, 0, 73, 62
1, 84915, Note_on_c, 0, 61, 21
1, 84948, Note_off_c, 0, 64, 63
1, 84960, Note_off_c, 0, 61, 48
1, 84963, Note_off_c, 0, 58, 62
1, 85085, Note_off_c, 0, 70, 64
1, 85229, Control_c, 0, 64, 103
1, 85244, Control_c, 0, 64, 67
1, 85253, Note_on_c, 0, 41, 51
1, 85258, Control_c, 0, 64, 28
1, 85273, Control_c, 0, 64, 0
1, 85303, Control_c, 0, 64, 41
1, 85318, Control_c, 0, 64, 62
1, 85332, Note_off_c, 0, 41, 64
1, 85332, Control_c, 0, 64, 69
1, 85347, Control_c, 0, 64, 82
1, 85362, Control_c, 0, 64, 114
1, 85377, Control_c, 0, 64, 127
1, 85589, Note_on_c, 0, 72, 63
1, 85607, Note_on_c, 0, 60, 45
1, 85610, Note_on_c, 0, 65, 41
1, 85615, Note_on_c, 0, 69, 37
1, 85671, Note_off_c, 0, 73, 64
1, 85686, Note_off_c, 0, 60, 61
1, 85705, Note_off_c, 0, 65, 60
1, 85806, Note_off_c, 0, 69, 36
1, 85945, Note_on_c, 0, 57, 46
1, 85955, Note_on_c, 0, 65, 30
1, 85987, Note_off_c, 0, 65, 60
1, 86009, Note_off_c, 0, 57, 63
1, 86012, Note_on_c, 0, 77, 70
1, 86134, Note_off_c, 0, 72, 66
1, 86295, Note_on_c, 0, 53, 50
1, 86295, Control_c, 0, 64, 87
1, 86310, Control_c, 0, 64, 63
1, 86325, Control_c, 0, 64, 24
1, 86340, Control_c, 0, 64, 24
1, 86355, Control_c, 0, 64, 34
1, 86370, Control_c, 0, 64, 58
1, 86385, Control_c, 0, 64, 68
1, 86399, Control_c, 0, 64, 80
1, 86414, Control_c, 0, 64, 127
1, 86419, Note_off_c, 0, 53, 63
1, 86465, Note_on_c, 0, 76, 58
1, 86649, Note_on_c, 0, 70, 55
1, 86663, Note_off_c, 0, 76, 58
1, 86664, Note_on_c, 0, 61, 36
1, 86698, Note_on_c, 0, 67, 24
1, 86721, Note_on_c, 0, 64, 9
1, 86750, Note_off_c, 0, 61, 53
1, 86769, Note_off_c, 0, 67, 42
1, 86774, Note_off_c, 0, 64, 47
1, 86775, Note_off_c, 0, 70, 63
1, 86806, Note_on_c, 0, 72, 65
1, 87009, Note_on_c, 0, 58, 36
1, 87019, Note_on_c, 0, 61, 31
1, 87034, Note_on_c, 0, 75, 55
1, 87034, Note_on_c, 0, 64, 13
1, 87037, Note_off_c, 0, 72, 55
1, 87081, Note_off_c, 0, 61, 58
1, 87082, Note_off_c, 0, 64, 42
1, 87085, Note_off_c, 0, 58, 61
1, 87196, Note_off_c, 0, 77, 57
1, 87220, Note_on_c, 0, 73, 54
1, 87223, Control_c, 0, 64, 106
1, 87228, Note_off_c, 0, 75, 49
1, 87237, Control_c, 0, 64, 98
1, 87252, Control_c, 0, 64, 92
1, 87267, Control_c, 0, 64, 89
1, 87282, Control_c, 0, 64, 87
1, 87297, Control_c, 0, 64, 85
1, 87312, Control_c, 0, 64, 84
1, 87327, Control_c, 0, 64, 83
1, 87341, Control_c, 0, 64, 82
1, 87356, Control_c, 0, 64, 81
1, 87401, Control_c, 0, 64, 81
1, 87410, Note_off_c, 0, 73, 52
1, 87460, Control_c, 0, 64, 81
1, 87484, Note_on_c, 0, 41, 44
1, 87490, Control_c, 0, 64, 81
1, 87504, Control_c, 0, 64, 74
1, 87519, Control_c, 0, 64, 63
1, 87534, Control_c, 0, 64, 0
1, 87593, Control_c, 0, 64, 42
1, 87609, Control_c, 0, 64, 62
1, 87624, Control_c, 0, 64, 68
1, 87631, Note_off_c, 0, 41, 65
1, 87639, Control_c, 0, 64, 76
1, 87653, Control_c, 0, 64, 90
1, 87668, Control_c, 0, 64, 127
1, 87866, Note_on_c, 0, 72, 52
1, 87908, Note_on_c, 0, 60, 24
1, 87908, Note_on_c, 0, 66, 21
1, 87929, Note_on_c, 0, 63, 24
1, 87991, Note_off_c, 0, 63, 44
1, 88001, Note_off_c, 0, 60, 57
1, 88027, Note_on_c, 0, 73, 64
1, 88053, Note_off_c, 0, 72, 63
1, 88063, Poly_aftertouch_c, 0, 77, 127
1, 88087, Note_off_c, 0, 66, 40
1, 88171, Note_on_c, 0, 58, 49
1, 88176, Note_on_c, 0, 72, 72
1, 88184, Note_on_c, 0, 54, 47
1, 88186, Note_on_c, 0, 63, 36
1, 88199, Note_off_c, 0, 73, 62
1, 88209, Note_off_c, 0, 58, 62
1, 88224, Note_off_c, 0, 63, 50
1, 88233, Note_off_c, 0, 54, 60
1, 88292, Poly_aftertouch_c, 0, 77, 0
1, 88316, Note_on_c, 0, 73, 75
1, 88355, Note_off_c, 0, 72, 62
1, 88468, Control_c, 0, 64, 117
1, 88471, Note_off_c, 0, 73, 63
1, 88482, Control_c, 0, 64, 68
1, 88497, Control_c, 0, 64, 0
1, 88503, Note_on_c, 0, 53, 37
1, 88506, Note_on_c, 0, 75, 66
1, 88571, Control_c, 0, 64, 49
1, 88579, Note_off_c, 0, 53, 63
1, 88586, Control_c, 0, 64, 66
1, 88601, Control_c, 0, 64, 75
1, 88616, Control_c, 0, 64, 90
1, 88630, Control_c, 0, 64, 127
1, 88674, Note_off_c, 0, 75, 60
1, 88855, Note_on_c, 0, 75, 68
1, 88868, Note_on_c, 0, 70, 44
1, 88871, Note_on_c, 0, 63, 40
1, 88910, Note_on_c, 0, 66, 31
1, 88936, Note_off_c, 0, 63, 58
1, 88936, Note_off_c, 0, 75, 62
1, 88942, Note_off_c, 0, 70, 53
1, 88959, Note_off_c, 0, 66, 45
1, 89291, Control_c, 0, 64, 90
1, 89300, Note_on_c, 0, 75, 57
1, 89305, Control_c, 0, 64, 69
1, 89309, Note_on_c, 0, 60, 41
1, 89320, Control_c, 0, 64, 58
1, 89334, Note_on_c, 0, 66, 30
1, 89335, Control_c, 0, 64, 54
1, 89344, Note_on_c, 0, 63, 28
1, 89350, Control_c, 0, 64, 57
1, 89365, Control_c, 0, 64, 64
1, 89379, Control_c, 0, 64, 71
1, 89394, Control_c, 0, 64, 88
1, 89406, Note_off_c, 0, 66, 56
1, 89409, Control_c, 0, 64, 127
1, 89410, Note_off_c, 0, 63, 41
1, 89417, Note_off_c, 0, 60, 60
1, 89494, Note_off_c, 0, 75, 62
1, 89886, Note_on_c, 0, 75, 48
1, 89894, Note_on_c, 0, 41, 32
1, 89927, Control_c, 0, 64, 85
1, 89942, Control_c, 0, 64, 62
1, 89965, Control_c, 0, 64, 27
1, 89979, Control_c, 0, 64, 0
1, 89994, Control_c, 0, 64, 15
1, 90009, Control_c, 0, 64, 50
1, 90024, Control_c, 0, 64, 64
1, 90039, Control_c, 0, 64, 73
1, 90054, Control_c, 0, 64, 86
1, 90069, Control_c, 0, 64, 127
1, 90075, Note_off_c, 0, 41, 55
1, 90586, Note_on_c, 0, 63, 24
1, 90626, Note_on_c, 0, 77, 45
1, 90644, Note_on_c, 0, 69, 21
1, 90757, Note_off_c, 0, 75, 45
1, 90846, Note_off_c, 0, 63, 41
1, 90898, Note_off_c, 0, 69, 42
1, 90925, Note_on_c, 0, 72, 43
1, 91121, Note_on_c, 0, 57, 35
1, 91122, Note_on_c, 0, 75, 51
1, 91145, Note_off_c, 0, 72, 36
1, 91190, Note_off_c, 0, 57, 60
1, 91192, Poly_aftertouch_c, 0, 63, 127
1, 91211, Poly_aftertouch_c, 0, 63, 0
1, 91224, Poly_aftertouch_c, 0, 65, 0
1, 91233, Poly_aftertouch_c, 0, 63, 0
1, 91290, Note_on_c, 0, 73, 52
1, 91419, Note_off_c, 0, 75, 31
1, 91539, Note_off_c, 0, 73, 38
1, 91543, Note_on_c, 0, 70, 42
1, 91554, Note_on_c, 0, 46, 35
1, 91580, Control_c, 0, 64, 107
1, 91595, Control_c, 0, 64, 75
1, 91611, Control_c, 0, 64, 59
1, 91626, Control_c, 0, 64, 0
1, 91670, Control_c, 0, 64, 29
1, 91674, Note_off_c, 0, 77, 41
1, 91685, Control_c, 0, 64, 57
1, 91700, Control_c, 0, 64, 66
1, 91714, Control_c, 0, 64, 75
1, 91729, Control_c, 0, 64, 88
1, 91743, Note_off_c, 0, 46, 56
1, 91744, Control_c, 0, 64, 127
1, 92060, Note_on_c, 0, 58, 37
1, 92063, Note_on_c, 0, 65, 37
1, 92078, Note_on_c, 0, 61, 25
1, 92200, Note_off_c, 0, 58, 0
1, 92241, Poly_aftertouch_c, 0, 58, 0
1, 92265, Note_off_c, 0, 61, 36
1, 92281, Note_off_c, 0, 65, 59
1, 92357, Note_off_c, 0, 70, 46
1, 92480, Note_on_c, 0, 61, 36
1, 92494, Note_on_c, 0, 58, 39
1, 92506, Note_on_c, 0, 53, 31
1, 92547, Note_off_c, 0, 53, 56
1, 92579, Note_off_c, 0, 58, 54
1, 92632, Note_off_c, 0, 61, 36
1, 92841, Note_on_c, 0, 66, 50
1, 92846, Note_on_c, 0, 61, 46
1, 92849, Note_on_c, 0, 58, 45
1, 92945, Note_off_c, 0, 61, 55
1, 92959, Note_off_c, 0, 58, 38
1, 92999, Note_off_c, 0, 66, 46
1, 93182, Control_c, 0, 64, 107
1, 93198, Control_c, 0, 64, 75
1, 93213, Control_c, 0, 64, 64
1, 93214, Note_on_c, 0, 65, 34
1, 93216, Note_on_c, 0, 58, 39
1, 93222, Note_on_c, 0, 61, 41
1, 93227, Control_c, 0, 64, 64
1, 93242, Control_c, 0, 64, 66
1, 93257, Control_c, 0, 64, 72
1, 93271, Control_c, 0, 64, 86
1, 93286, Control_c, 0, 64, 127
1, 93354, Note_off_c, 0, 58, 0
1, 93382, Note_off_c, 0, 65, 41
1, 93385, Note_off_c, 0, 61, 37
1, 93393, Poly_aftertouch_c, 0, 58, 0
1, 93583, Control_c, 0, 64, 79
1, 93598, Control_c, 0, 64, 63
1, 93607, Note_on_c, 0, 58, 32
1, 93610, Note_on_c, 0, 61, 36
1, 93612, Control_c, 0, 64, 56
1, 93620, Note_on_c, 0, 53, 41
1, 93627, Control_c, 0, 64, 59
1, 93642, Control_c, 0, 64, 65
1, 93657, Control_c, 0, 64, 76
1, 93671, Control_c, 0, 64, 118
1, 93686, Control_c, 0, 64, 127
1, 93717, Note_off_c, 0, 53, 60
1, 93744, Note_off_c, 0, 58, 50
1, 93746, Note_off_c, 0, 61, 61
1, 94096, Note_on_c, 0, 53, 35
1, 94104, Note_on_c, 0, 58, 37
1, 94113, Note_on_c, 0, 49, 28
1, 94205, Note_off_c, 0, 53, 53
1, 94224, Note_off_c, 0, 58, 45
1, 94266, Note_off_c, 0, 49, 35
1, 94302, Control_c, 0, 67, 12
1, 94317, Control_c, 0, 67, 24
1, 94332, Control_c, 0, 67, 36
1, 94347, Control_c, 0, 67, 46
1, 94361, Control_c, 0, 67, 54
1, 94376, Control_c, 0, 67, 61
1, 94391, Control_c, 0, 67, 65
1, 94406, Control_c, 0, 67, 66
1, 94421, Control_c, 0, 67, 67
1, 94457, Control_c, 0, 67, 67
1, 94472, Control_c, 0, 67, 68
1, 94488, Control_c, 0, 67, 69
1, 94562, Control_c, 0, 67, 71
1, 94576, Control_c, 0, 67, 74
1, 94591, Control_c, 0, 67, 87
1, 94606, Control_c, 0, 67, 102
1, 94621, Control_c, 0, 67, 116
1, 94630, Note_on_c, 0, 34, 34
1, 94630, Note_on_c, 0, 46, 24
1, 94636, Control_c, 0, 67, 127
1, 94789, Note_off_c, 0, 46, 42
1, 94816, Note_off_c, 0, 34, 40
1, 95120, Note_on_c, 0, 32, 33
1, 95140, Note_on_c, 0, 44, 35
1, 95155, Control_c, 0, 64, 82
1, 95170, Control_c, 0, 64, 65
1, 95185, Control_c, 0, 64, 53
1, 95207, Control_c, 0, 64, 48
1, 95222, Control_c, 0, 64, 50
1, 95237, Control_c, 0, 64, 58
1, 95251, Control_c, 0, 64, 64
1, 95266, Control_c, 0, 64, 71
1, 95281, Control_c, 0, 64, 79
1, 95296, Control_c, 0, 64, 91
1, 95311, Control_c, 0, 64, 109
1, 95325, Control_c, 0, 64, 127
1, 95427, Note_off_c, 0, 44, 40
1, 95435, Note_off_c, 0, 32, 43
1, 95918, Note_on_c, 0, 30, 27
1, 95928, Note_on_c, 0, 42, 34
1, 95985, Control_c, 0, 64, 114
1, 96000, Control_c, 0, 64, 76
1, 96015, Control_c, 0, 64, 63
1, 96029, Control_c, 0, 64, 49
1, 96044, Control_c, 0, 64, 40
1, 96073, Control_c, 0, 64, 46
1, 96088, Control_c, 0, 64, 57
1, 96103, Control_c, 0, 64, 64
1, 96118, Control_c, 0, 64, 69
1, 96133, Control_c, 0, 64, 75
1, 96147, Control_c, 0, 64, 85
1, 96162, Control_c, 0, 64, 104
1, 96177, Control_c, 0, 64, 127
1, 96210, Note_off_c, 0, 30, 40
1, 96257, Note_off_c, 0, 42, 41
1, 96573, Note_on_c, 0, 37, 24
1, 96585, Note_on_c, 0, 49, 17
1, 96729, Note_off_c, 0, 37, 40
1, 96734, Note_off_c, 0, 49, 50
1, 97000, Note_on_c, 0, 54, 26
1, 97000, Note_on_c, 0, 42, 35
1, 97092, Note_off_c, 0, 42, 57
1, 97152, Note_off_c, 0, 54, 45
1, 97462, Note_on_c, 0, 78, 53
1, 97489, Note_on_c, 0, 70, 31
1, 97497, Note_on_c, 0, 66, 24
1, 97505, Note_on_c, 0, 46, 21
1, 97518, Poly_aftertouch_c, 0, 58, 127
1, 97608, Note_off_c, 0, 46, 54
1, 97678, Poly_aftertouch_c, 0, 58, 0
1, 97873, Note_on_c, 0, 63, 28
1, 97902, Note_on_c, 0, 51, 35
1, 97928, Note_off_c, 0, 63, 59
1, 97942, Note_off_c, 0, 51, 63
1, 97951, Note_off_c, 0, 78, 59
1, 97990, Note_off_c, 0, 70, 43
1, 97995, Note_off_c, 0, 66, 41
1, 98104, Poly_aftertouch_c, 0, 73, 127
1, 98172, Note_on_c, 0, 78, 58
1, 98184, Note_on_c, 0, 46, 36
1, 98184, Note_on_c, 0, 66, 38
1, 98204, Note_on_c, 0, 70, 36
1, 98212, Note_on_c, 0, 58, 30
1, 98264, Note_off_c, 0, 46, 55
1, 98283, Note_off_c, 0, 58, 55
1, 98305, Note_off_c, 0, 70, 48
1, 98310, Note_off_c, 0, 78, 58
1, 98341, Note_off_c, 0, 66, 33
1, 98535, Note_on_c, 0, 49, 36
1, 98558, Note_on_c, 0, 78, 57
1, 98566, Note_on_c, 0, 61, 28
1, 98571, Note_on_c, 0, 66, 27
1, 98587, Note_on_c, 0, 70, 40
1, 98601, Control_c, 0, 64, 89
1, 98615, Control_c, 0, 64, 68
1, 98630, Control_c, 0, 64, 56
1, 98645, Control_c, 0, 64, 51
1, 98660, Control_c, 0, 64, 53
1, 98675, Control_c, 0, 64, 60
1, 98690, Control_c, 0, 64, 66
1, 98705, Control_c, 0, 64, 75
1, 98720, Control_c, 0, 64, 87
1, 98731, Note_off_c, 0, 61, 53
1, 98734, Control_c, 0, 64, 106
1, 98749, Control_c, 0, 64, 127
1, 98821, Note_off_c, 0, 49, 57
1, 98891, Note_on_c, 0, 51, 48
1, 98915, Note_on_c, 0, 63, 30
1, 98960, Note_off_c, 0, 63, 55
1, 98991, Note_off_c, 0, 51, 61
1, 99199, Note_on_c, 0, 46, 33
1, 99224, Note_on_c, 0, 58, 36
1, 99287, Note_off_c, 0, 58, 62
1, 99356, Note_off_c, 0, 46, 37
1, 99492, Note_on_c, 0, 49, 44
1, 99501, Note_on_c, 0, 61, 39
1, 99548, Note_off_c, 0, 61, 61
1, 99593, Note_off_c, 0, 49, 60
1, 99793, Note_on_c, 0, 44, 49
1, 99808, Note_on_c, 0, 56, 39
1, 99817, Control_c, 0, 64, 96
1, 99832, Control_c, 0, 64, 73
1, 99847, Control_c, 0, 64, 61
1, 99861, Control_c, 0, 64, 53
1, 99876, Control_c, 0, 64, 54
1, 99891, Control_c, 0, 64, 60
1, 99906, Control_c, 0, 64, 66
1, 99921, Control_c, 0, 64, 75
1, 99933, Note_off_c, 0, 56, 62
1, 99936, Control_c, 0, 64, 89
1, 99951, Control_c, 0, 64, 113
1, 99966, Control_c, 0, 64, 127
1, 100026, Note_off_c, 0, 44, 51
1, 100091, Note_on_c, 0, 46, 45
1, 100095, Note_on_c, 0, 58, 48
1, 100147, Note_off_c, 0, 58, 62
1, 100182, Note_off_c, 0, 46, 61
1, 100394, Note_on_c, 0, 42, 41
1, 100396, Control_c, 0, 64, 108
1, 100410, Control_c, 0, 64, 76
1, 100421, Note_on_c, 0, 54, 33
1, 100425, Control_c, 0, 64, 62
1, 100448, Control_c, 0, 64, 52
1, 100478, Control_c, 0, 64, 59
1, 100492, Control_c, 0, 64, 65
1, 100507, Control_c, 0, 64, 71
1, 100522, Control_c, 0, 64, 80
1, 100523, Note_off_c, 0, 42, 62
1, 100523, Note_off_c, 0, 54, 62
1, 100536, Control_c, 0, 64, 90
1, 100551, Control_c, 0, 64, 99
1, 100566, Control_c, 0, 64, 108
1, 100581, Control_c, 0, 64, 113
1, 100596, Control_c, 0, 64, 127
1, 100689, Note_on_c, 0, 39, 49
1, 100700, Note_on_c, 0, 51, 43
1, 100732, Note_off_c, 0, 51, 60
1, 100776, Note_off_c, 0, 39, 56
1, 100890, Note_off_c, 0, 78, 32
1, 100940, Note_off_c, 0, 70, 61
1, 100954, Note_on_c, 0, 34, 50
1, 100955, Note_off_c, 0, 66, 40
1, 100957, Note_on_c, 0, 46, 47
1, 101063, Note_off_c, 0, 46, 62
1, 101149, Note_off_c, 0, 34, 37
1, 101209, Poly_aftertouch_c, 0, 73, 0
1, 101315, Note_on_c, 0, 37, 40
1, 101315, Note_on_c, 0, 66, 43
1, 101320, Note_on_c, 0, 49, 38
1, 101332, Note_on_c, 0, 70, 47
1, 101333, Note_on_c, 0, 78, 68
1, 101345, Control_c, 0, 64, 90
1, 101359, Control_c, 0, 64, 68
1, 101371, Poly_aftertouch_c, 0, 75, 127
1, 101374, Control_c, 0, 64, 50
1, 101389, Control_c, 0, 64, 27
1, 101404, Control_c, 0, 64, 26
1, 101419, Control_c, 0, 64, 43
1, 101433, Control_c, 0, 64, 60
1, 101448, Control_c, 0, 64, 67
1, 101463, Control_c, 0, 64, 75
1, 101477, Note_off_c, 0, 49, 63
1, 101478, Control_c, 0, 64, 86
1, 101493, Control_c, 0, 64, 101
1, 101495, Note_off_c, 0, 37, 59
1, 101507, Control_c, 0, 64, 123
1, 101522, Control_c, 0, 64, 127
1, 101567, Note_off_c, 0, 66, 61
1, 101609, Note_off_c, 0, 78, 62
1, 101615, Note_off_c, 0, 70, 64
1, 101622, Note_on_c, 0, 32, 49
1, 101629, Note_on_c, 0, 44, 51
1, 101708, Note_off_c, 0, 44, 56
1, 101791, Note_off_c, 0, 32, 35
1, 101863, Control_c, 0, 67, 127
1, 101877, Control_c, 0, 67, 126
1, 101892, Control_c, 0, 67, 125
1, 101897, Note_on_c, 0, 78, 71
1, 101900, Note_on_c, 0, 46, 39
1, 101907, Control_c, 0, 67, 125
1, 101911, Note_on_c, 0, 34, 47
1, 101912, Note_on_c, 0, 70, 54
1, 101918, Note_on_c, 0, 66, 46
1, 101922, Control_c, 0, 67, 124
1, 101947, Poly_aftertouch_c, 0, 75, 0
1, 101963, Note_off_c, 0, 46, 62
1, 101984, Note_off_c, 0, 34, 60
1, 101984, Poly_aftertouch_c, 0, 75, 127
1, 102034, Control_c, 0, 67, 125
1, 102038, Note_off_c, 0, 70, 58
1, 102064, Control_c, 0, 67, 125
1, 102079, Control_c, 0, 67, 126
1, 102079, Note_off_c, 0, 66, 35
1, 102094, Control_c, 0, 67, 127
1, 102104, Note_off_c, 0, 78, 56
1, 102171, Poly_aftertouch_c, 0, 74, 127
1, 102182, Control_c, 0, 67, 127
1, 102205, Poly_aftertouch_c, 0, 73, 127
1, 102221, Note_on_c, 0, 42, 51
1, 102231, Note_on_c, 0, 30, 41
1, 102307, Note_on_c, 0, 78, 74
1, 102315, Note_on_c, 0, 70, 47
1, 102315, Control_c, 0, 64, 82
1, 102330, Control_c, 0, 64, 61
1, 102330, Control_c, 0, 67, 127
1, 102335, Note_on_c, 0, 66, 44
1, 102345, Control_c, 0, 64, 43
1, 102360, Control_c, 0, 64, 42
1, 102375, Control_c, 0, 64, 51
1, 102389, Control_c, 0, 64, 62
1, 102389, Control_c, 0, 67, 126
1, 102404, Control_c, 0, 64, 70
1, 102409, Note_off_c, 0, 30, 58
1, 102419, Control_c, 0, 64, 82
1, 102434, Control_c, 0, 64, 127
1, 102438, Note_off_c, 0, 42, 63
1, 102582, Control_c, 0, 67, 125
1, 102597, Control_c, 0, 67, 124
1, 102612, Control_c, 0, 67, 123
1, 102627, Control_c, 0, 67, 123
1, 102646, Note_on_c, 0, 63, 62
1, 102665, Note_on_c, 0, 51, 58
1, 102719, Note_off_c, 0, 63, 61
1, 102722, Poly_aftertouch_c, 0, 76, 127
1, 102736, Note_off_c, 0, 51, 64
1, 102797, Note_off_c, 0, 66, 36
1, 102838, Note_off_c, 0, 70, 60
1, 102901, Note_off_c, 0, 78, 61
1, 102909, Note_on_c, 0, 58, 61
1, 102924, Note_on_c, 0, 46, 54
1, 103030, Note_off_c, 0, 58, 57
1, 103119, Note_off_c, 0, 46, 56
1, 103197, Control_c, 0, 67, 122
1, 103212, Control_c, 0, 67, 121
1, 103215, Note_on_c, 0, 77, 70
1, 103227, Control_c, 0, 67, 120
1, 103233, Note_on_c, 0, 68, 49
1, 103235, Note_on_c, 0, 65, 41
1, 103242, Control_c, 0, 67, 119
1, 103254, Note_on_c, 0, 49, 42
1, 103255, Note_on_c, 0, 61, 39
1, 103257, Control_c, 0, 64, 86
1, 103257, Control_c, 0, 67, 119
1, 103271, Control_c, 0, 64, 65
1, 103271, Control_c, 0, 67, 118
1, 103286, Control_c, 0, 64, 46
1, 103286, Control_c, 0, 67, 117
1, 103301, Control_c, 0, 64, 44
1, 103301, Control_c, 0, 67, 112
1, 103316, Control_c, 0, 64, 51
1, 103316, Control_c, 0, 67, 103
1, 103331, Control_c, 0, 64, 62
1, 103331, Control_c, 0, 67, 98
1, 103346, Control_c, 0, 64, 69
1, 103346, Control_c, 0, 67, 96
1, 103353, Note_off_c, 0, 61, 63
1, 103361, Control_c, 0, 64, 85
1, 103361, Control_c, 0, 67, 95
1, 103368, Note_off_c, 0, 49, 63
1, 103376, Control_c, 0, 64, 127
1, 103376, Control_c, 0, 67, 94
1, 103501, Control_c, 0, 67, 95
1, 103516, Control_c, 0, 67, 96
1, 103531, Control_c, 0, 67, 97
1, 103531, Note_on_c, 0, 44, 41
1, 103544, Note_on_c, 0, 56, 39
1, 103546, Control_c, 0, 67, 98
1, 103561, Control_c, 0, 67, 98
1, 103575, Control_c, 0, 64, 84
1, 103575, Control_c, 0, 67, 99
1, 103591, Control_c, 0, 64, 67
1, 103606, Control_c, 0, 64, 60
1, 103606, Control_c, 0, 67, 100
1, 103621, Control_c, 0, 64, 61
1, 103621, Control_c, 0, 67, 100
1, 103635, Control_c, 0, 64, 66
1, 103635, Control_c, 0, 67, 101
1, 103650, Control_c, 0, 64, 75
1, 103665, Control_c, 0, 64, 95
1, 103671, Note_off_c, 0, 56, 63
1, 103680, Control_c, 0, 64, 127
1, 103680, Control_c, 0, 67, 102
1, 103719, Note_off_c, 0, 44, 37
1, 103726, Poly_aftertouch_c, 0, 76, 0
1, 103797, Poly_aftertouch_c, 0, 74, 0
1, 103817, Poly_aftertouch_c, 0, 73, 0
1, 103847, Poly_aftertouch_c, 0, 75, 0
1, 103888, Control_c, 0, 67, 102
1, 103888, Note_on_c, 0, 58, 35
1, 103897, Note_off_c, 0, 77, 53
1, 103902, Control_c, 0, 64, 105
1, 103902, Control_c, 0, 67, 103
1, 103913, Note_on_c, 0, 46, 38
1, 103917, Control_c, 0, 64, 73
1, 103917, Control_c, 0, 67, 104
1, 103932, Control_c, 0, 64, 63
1, 103932, Control_c, 0, 67, 105
1, 103947, Control_c, 0, 64, 61
1, 103947, Control_c, 0, 67, 106
1, 103961, Control_c, 0, 64, 63
1, 103976, Control_c, 0, 64, 67
1, 103979, Note_off_c, 0, 65, 36
1, 103986, Note_off_c, 0, 68, 34
1, 103991, Control_c, 0, 64, 74
1, 104006, Control_c, 0, 64, 89
1, 104020, Control_c, 0, 64, 117
1, 104035, Control_c, 0, 64, 127
1, 104064, Note_off_c, 0, 58, 57
1, 104072, Note_off_c, 0, 46, 36
1, 104427, Note_on_c, 0, 76, 37
1, 104430, Note_on_c, 0, 59, 25
1, 104440, Note_on_c, 0, 47, 35
1, 104444, Control_c, 0, 64, 106
1, 104445, Note_on_c, 0, 64, 21
1, 104448, Note_on_c, 0, 68, 24
1, 104458, Control_c, 0, 64, 88
1, 104473, Control_c, 0, 64, 70
1, 104488, Control_c, 0, 64, 54
1, 104503, Control_c, 0, 64, 0
1, 104577, Control_c, 0, 67, 105
1, 104592, Control_c, 0, 64, 35
1, 104592, Control_c, 0, 67, 104
1, 104607, Control_c, 0, 64, 57
1, 104607, Control_c, 0, 67, 104
1, 104622, Control_c, 0, 64, 63
1, 104622, Control_c, 0, 67, 103
1, 104637, Control_c, 0, 64, 66
1, 104637, Control_c, 0, 67, 102
1, 104651, Control_c, 0, 64, 69
1, 104651, Control_c, 0, 67, 100
1, 104666, Control_c, 0, 64, 73
1, 104666, Control_c, 0, 67, 99
1, 104681, Control_c, 0, 64, 79
1, 104681, Control_c, 0, 67, 98
1, 104696, Control_c, 0, 64, 88
1, 104696, Control_c, 0, 67, 97
1, 104709, Note_off_c, 0, 59, 54
1, 104711, Control_c, 0, 64, 106
1, 104711, Control_c, 0, 67, 96
1, 104725, Control_c, 0, 64, 127
1, 104725, Control_c, 0, 67, 95
1, 104738, Note_off_c, 0, 47, 50
1, 104740, Control_c, 0, 67, 94
1, 104755, Control_c, 0, 67, 94
1, 104770, Control_c, 0, 67, 93
1, 104814, Control_c, 0, 67, 92
1, 104829, Control_c, 0, 67, 92
1, 104844, Control_c, 0, 67, 91
1, 104873, Control_c, 0, 67, 90
1, 105050, Note_on_c, 0, 47, 15
1, 105065, Note_on_c, 0, 35, 26
1, 105088, Control_c, 0, 67, 90
1, 105129, Note_off_c, 0, 35, 52
1, 105132, Control_c, 0, 67, 89
1, 105155, Note_off_c, 0, 47, 36
1, 105222, Control_c, 0, 67, 88
1, 105326, Control_c, 0, 67, 88
1, 105355, Control_c, 0, 67, 87
1, 105385, Control_c, 0, 67, 86
1, 105414, Note_on_c, 0, 52, 31
1, 105430, Control_c, 0, 67, 86
1, 105446, Note_on_c, 0, 40, 31
1, 105459, Control_c, 0, 67, 85
1, 105474, Control_c, 0, 67, 68
1, 105489, Control_c, 0, 67, 55
1, 105504, Control_c, 0, 67, 48
1, 105519, Note_off_c, 0, 76, 42
1, 105519, Control_c, 0, 67, 42
1, 105533, Control_c, 0, 67, 36
1, 105534, Note_off_c, 0, 40, 59
1, 105535, Note_off_c, 0, 64, 40
1, 105548, Control_c, 0, 67, 33
1, 105560, Note_off_c, 0, 68, 36
1, 105562, Note_off_c, 0, 52, 52
1, 105563, Control_c, 0, 67, 30
1, 105578, Control_c, 0, 67, 28
1, 105593, Control_c, 0, 67, 26
1, 105607, Control_c, 0, 67, 26
1, 105622, Control_c, 0, 67, 25
1, 105637, Control_c, 0, 67, 24
1, 105689, Control_c, 0, 67, 24
1, 105734, Control_c, 0, 67, 23
1, 105793, Control_c, 0, 67, 22
1, 105838, Control_c, 0, 67, 22
1, 105862, Note_on_c, 0, 59, 24
1, 105868, Control_c, 0, 67, 21
1, 105870, Note_on_c, 0, 76, 46
1, 105884, Note_on_c, 0, 47, 21
1, 105889, Note_on_c, 0, 68, 39
1, 105891, Note_on_c, 0, 64, 33
1, 105912, Control_c, 0, 67, 20
1, 105951, Note_off_c, 0, 47, 58
1, 105956, Control_c, 0, 67, 20
1, 105966, Note_off_c, 0, 59, 55
1, 105987, Control_c, 0, 67, 19
1, 106017, Control_c, 0, 67, 17
1, 106031, Control_c, 0, 67, 0
1, 106175, Note_on_c, 0, 49, 47
1, 106184, Note_on_c, 0, 61, 33
1, 106211, Note_off_c, 0, 76, 59
1, 106225, Note_off_c, 0, 61, 60
1, 106235, Note_off_c, 0, 49, 61
1, 106237, Note_off_c, 0, 64, 41
1, 106246, Note_off_c, 0, 68, 61
1, 106482, Note_on_c, 0, 76, 50
1, 106493, Note_on_c, 0, 44, 19
1, 106494, Note_on_c, 0, 68, 44
1, 106500, Note_on_c, 0, 56, 40
1, 106511, Note_on_c, 0, 64, 33
1, 106564, Note_off_c, 0, 56, 56
1, 106588, Note_off_c, 0, 44, 37
1, 106594, Note_off_c, 0, 64, 57
1, 106596, Note_off_c, 0, 68, 60
1, 106609, Note_off_c, 0, 76, 63
1, 106870, Note_on_c, 0, 47, 35
1, 106890, Note_on_c, 0, 59, 25
1, 106906, Note_on_c, 0, 76, 48
1, 106920, Note_on_c, 0, 68, 44
1, 106940, Note_on_c, 0, 64, 35
1, 106942, Control_c, 0, 64, 105
1, 106957, Control_c, 0, 64, 75
1, 106971, Control_c, 0, 64, 59
1, 106986, Control_c, 0, 64, 24
1, 107001, Control_c, 0, 64, 19
1, 107016, Control_c, 0, 64, 27
1, 107031, Control_c, 0, 64, 51
1, 107045, Control_c, 0, 64, 63
1, 107060, Control_c, 0, 64, 70
1, 107075, Control_c, 0, 64, 79
1, 107090, Control_c, 0, 64, 99
1, 107105, Control_c, 0, 64, 127
1, 107113, Note_off_c, 0, 59, 53
1, 107114, Note_off_c, 0, 47, 50
1, 107305, Note_on_c, 0, 61, 33
1, 107311, Note_on_c, 0, 49, 38
1, 107351, Note_off_c, 0, 61, 61
1, 107371, Note_off_c, 0, 49, 61
1, 107575, Note_on_c, 0, 44, 41
1, 107586, Note_on_c, 0, 56, 41
1, 107644, Note_off_c, 0, 56, 59
1, 107675, Note_off_c, 0, 44, 55
1, 107862, Poly_aftertouch_c, 0, 71, 127
1, 107868, Control_c, 0, 64, 96
1, 107871, Note_on_c, 0, 59, 43
1, 107874, Note_on_c, 0, 47, 45
1, 107883, Control_c, 0, 64, 72
1, 107898, Control_c, 0, 64, 64
1, 107913, Control_c, 0, 64, 63
1, 107936, Control_c, 0, 64, 65
1, 107950, Control_c, 0, 64, 71
1, 107963, Note_off_c, 0, 59, 64
1, 107963, Note_off_c, 0, 47, 61
1, 107965, Control_c, 0, 64, 81
1, 107980, Control_c, 0, 64, 106
1, 107995, Control_c, 0, 64, 127
1, 108160, Note_on_c, 0, 42, 49
1, 108161, Note_on_c, 0, 54, 53
1, 108252, Note_off_c, 0, 54, 59
1, 108350, Note_off_c, 0, 42, 54
1, 108366, Poly_aftertouch_c, 0, 74, 127
1, 108433, Note_on_c, 0, 56, 52
1, 108434, Note_on_c, 0, 44, 55
1, 108474, Note_off_c, 0, 56, 63
1, 108487, Note_off_c, 0, 44, 61
1, 108727, Control_c, 0, 67, 8
1, 108744, Note_on_c, 0, 40, 50
1, 108750, Note_on_c, 0, 52, 43
1, 108771, Control_c, 0, 64, 91
1, 108786, Control_c, 0, 64, 68
1, 108801, Control_c, 0, 64, 52
1, 108816, Control_c, 0, 64, 43
1, 108831, Control_c, 0, 64, 45
1, 108846, Control_c, 0, 64, 57
1, 108861, Control_c, 0, 64, 67
1, 108876, Control_c, 0, 64, 78
1, 108883, Note_off_c, 0, 52, 63
1, 108890, Control_c, 0, 64, 106
1, 108901, Note_off_c, 0, 40, 62
1, 108905, Control_c, 0, 64, 127
1, 109056, Note_on_c, 0, 37, 63
1, 109068, Note_on_c, 0, 49, 50
1, 109125, Note_off_c, 0, 49, 60
1, 109156, Control_c, 0, 67, 9
1, 109163, Note_off_c, 0, 37, 56
1, 109230, Note_off_c, 0, 64, 62
1, 109254, Note_off_c, 0, 76, 63
1, 109279, Note_off_c, 0, 68, 60
1, 109281, Poly_aftertouch_c, 0, 74, 0
1, 109286, Poly_aftertouch_c, 0, 71, 0
1, 109326, Note_on_c, 0, 44, 62
1, 109326, Note_on_c, 0, 32, 60
1, 109379, Control_c, 0, 67, 9
1, 109433, Note_off_c, 0, 32, 48
1, 109445, Note_off_c, 0, 44, 59
1, 109662, Note_on_c, 0, 47, 51
1, 109669, Note_on_c, 0, 35, 53
1, 109699, Control_c, 0, 64, 86
1, 109701, Note_on_c, 0, 76, 77
1, 109704, Note_on_c, 0, 68, 60
1, 109714, Control_c, 0, 64, 65
1, 109718, Note_on_c, 0, 64, 56
1, 109728, Control_c, 0, 64, 42
1, 109743, Control_c, 0, 64, 35
1, 109758, Control_c, 0, 64, 41
1, 109773, Control_c, 0, 64, 57
1, 109788, Control_c, 0, 64, 67
1, 109803, Control_c, 0, 64, 77
1, 109817, Control_c, 0, 64, 98
1, 109825, Note_off_c, 0, 47, 63
1, 109832, Control_c, 0, 64, 127
1, 109853, Note_off_c, 0, 35, 59
1, 109945, Note_off_c, 0, 64, 64
1, 109961, Note_off_c, 0, 76, 65
1, 109972, Note_off_c, 0, 68, 63
1, 109977, Note_on_c, 0, 42, 65
1, 109984, Note_on_c, 0, 30, 62
1, 110011, Control_c, 0, 67, 10
1, 110053, Note_off_c, 0, 30, 60
1, 110085, Note_off_c, 0, 42, 61
1, 110254, Note_on_c, 0, 44, 56
1, 110256, Note_on_c, 0, 76, 84
1, 110257, Note_on_c, 0, 32, 52
1, 110274, Note_on_c, 0, 64, 60
1, 110278, Note_on_c, 0, 68, 61
1, 110285, Control_c, 0, 67, 11
1, 110310, Note_off_c, 0, 44, 61
1, 110314, Note_off_c, 0, 64, 63
1, 110315, Control_c, 0, 67, 11
1, 110318, Note_off_c, 0, 68, 62
1, 110327, Note_off_c, 0, 76, 66
1, 110336, Note_off_c, 0, 32, 60
1, 110433, Control_c, 0, 67, 12
1, 110477, Control_c, 0, 67, 13
1, 110600, Note_on_c, 0, 40, 53
1, 110610, Note_on_c, 0, 28, 57
1, 110640, Control_c, 0, 67, 12
1, 110662, Note_on_c, 0, 76, 79
1, 110670, Control_c, 0, 64, 74
1, 110670, Control_c, 0, 67, 11
1, 110674, Note_on_c, 0, 64, 62
1, 110685, Control_c, 0, 64, 26
1, 110685, Control_c, 0, 67, 11
1, 110691, Note_on_c, 0, 68, 57
1, 110700, Control_c, 0, 64, 0
1, 110700, Control_c, 0, 67, 10
1, 110729, Control_c, 0, 67, 9
1, 110759, Control_c, 0, 64, 53
1, 110759, Control_c, 0, 67, 9
1, 110771, Note_off_c, 0, 28, 65
1, 110774, Control_c, 0, 64, 67
1, 110789, Control_c, 0, 64, 78
1, 110804, Control_c, 0, 64, 107
1, 110810, Note_off_c, 0, 40, 63
1, 110819, Control_c, 0, 64, 127
1, 110879, Control_c, 0, 67, 8
1, 110959, Poly_aftertouch_c, 0, 74, 127
1, 110994, Note_on_c, 0, 61, 73
1, 111004, Control_c, 0, 67, 0
1, 111007, Note_on_c, 0, 49, 58
1, 111053, Note_off_c, 0, 61, 61
1, 111075, Note_off_c, 0, 49, 63
1, 111260, Note_on_c, 0, 56, 75
1, 111268, Poly_aftertouch_c, 0, 74, 0
1, 111269, Note_on_c, 0, 44, 67
1, 111285, Note_off_c, 0, 76, 63
1, 111343, Note_off_c, 0, 68, 59
1, 111358, Note_off_c, 0, 64, 63
1, 111369, Note_off_c, 0, 44, 59
1, 111382, Note_off_c, 0, 56, 60
1, 111561, Poly_aftertouch_c, 0, 71, 127
1, 111624, Note_on_c, 0, 75, 80
1, 111630, Note_on_c, 0, 59, 45
1, 111642, Control_c, 0, 64, 75
1, 111644, Note_on_c, 0, 47, 49
1, 111644, Note_on_c, 0, 63, 61
1, 111655, Note_on_c, 0, 68, 50
1, 111657, Control_c, 0, 64, 49
1, 111679, Control_c, 0, 64, 0
1, 111698, Poly_aftertouch_c, 0, 71, 0
1, 111723, Control_c, 0, 64, 50
1, 111738, Control_c, 0, 64, 63
1, 111753, Control_c, 0, 64, 73
1, 111768, Control_c, 0, 64, 85
1, 111776, Note_off_c, 0, 59, 64
1, 111783, Control_c, 0, 64, 112
1, 111787, Note_off_c, 0, 47, 60
1, 111797, Control_c, 0, 64, 127
1, 111940, Note_on_c, 0, 70, 59
1, 111951, Note_on_c, 0, 46, 49
1, 111973, Note_on_c, 0, 58, 38
1, 111975, Control_c, 0, 64, 93
1, 111990, Control_c, 0, 64, 66
1, 112005, Control_c, 0, 64, 36
1, 112020, Control_c, 0, 64, 17
1, 112035, Control_c, 0, 64, 26
1, 112049, Control_c, 0, 64, 54
1, 112064, Control_c, 0, 64, 65
1, 112079, Control_c, 0, 64, 73
1, 112089, Note_off_c, 0, 58, 58
1, 112094, Control_c, 0, 64, 86
1, 112096, Note_off_c, 0, 46, 60
1, 112109, Control_c, 0, 64, 118
1, 112123, Control_c, 0, 64, 127
1, 112202, Note_off_c, 0, 75, 37
1, 112337, Note_on_c, 0, 44, 35
1, 112345, Control_c, 0, 64, 86
1, 112350, Note_on_c, 0, 71, 54
1, 112361, Control_c, 0, 64, 65
1, 112376, Control_c, 0, 64, 41
1, 112378, Note_off_c, 0, 68, 38
1, 112387, Note_on_c, 0, 56, 29
1, 112391, Note_off_c, 0, 70, 56
1, 112391, Control_c, 0, 64, 32
1, 112406, Control_c, 0, 64, 38
1, 112428, Control_c, 0, 64, 57
1, 112443, Control_c, 0, 64, 66
1, 112449, Note_off_c, 0, 63, 50
1, 112457, Control_c, 0, 64, 74
1, 112471, Control_c, 0, 64, 87
1, 112486, Control_c, 0, 64, 127
1, 112516, Note_off_c, 0, 56, 54
1, 112537, Note_off_c, 0, 44, 52
1, 112712, Note_off_c, 0, 71, 28
1, 112861, Note_on_c, 0, 34, 32
1, 112883, Note_on_c, 0, 46, 30
1, 112945, Control_c, 0, 64, 83
1, 112947, Note_on_c, 0, 62, 44
1, 112960, Control_c, 0, 64, 65
1, 112975, Control_c, 0, 64, 48
1, 112989, Control_c, 0, 64, 44
1, 113004, Control_c, 0, 64, 54
1, 113019, Control_c, 0, 64, 64
1, 113034, Control_c, 0, 64, 74
1, 113049, Control_c, 0, 64, 108
1, 113064, Control_c, 0, 64, 127
1, 113102, Note_off_c, 0, 62, 61
1, 113104, Note_off_c, 0, 34, 40
1, 113123, Note_off_c, 0, 46, 55
1, 113515, Note_on_c, 0, 56, 36
1, 113532, Note_on_c, 0, 74, 37
1, 113535, Note_on_c, 0, 62, 14
1, 113678, Note_off_c, 0, 56, 43
1, 113682, Note_off_c, 0, 74, 56
1, 113707, Note_on_c, 0, 75, 52
1, 113728, Note_off_c, 0, 62, 35
1, 113813, Poly_aftertouch_c, 0, 81, 127
1, 113848, Note_off_c, 0, 75, 56
1, 113854, Note_on_c, 0, 62, 4
1, 113854, Note_on_c, 0, 56, 42
1, 113854, Note_on_c, 0, 74, 59
1, 113857, Note_on_c, 0, 68, 35
1, 113942, Note_off_c, 0, 68, 56
1, 113949, Note_off_c, 0, 56, 62
1, 113958, Note_off_c, 0, 62, 55
1, 113971, Note_on_c, 0, 75, 68
1, 113979, Note_off_c, 0, 74, 57
1, 114107, Poly_aftertouch_c, 0, 81, 0
1, 114117, Note_on_c, 0, 77, 68
1, 114129, Note_off_c, 0, 75, 44
1, 114149, Note_off_c, 0, 77, 64
1, 114399, Note_on_c, 0, 77, 73
1, 114411, Note_on_c, 0, 68, 49
1, 114417, Note_on_c, 0, 56, 51
1, 114431, Note_on_c, 0, 62, 39
1, 114457, Note_off_c, 0, 77, 62
1, 114462, Note_off_c, 0, 56, 62
1, 114490, Note_off_c, 0, 68, 59
1, 114491, Note_off_c, 0, 62, 54
1, 114713, Note_on_c, 0, 77, 78
1, 114718, Note_on_c, 0, 56, 53
1, 114720, Note_on_c, 0, 62, 51
1, 114727, Note_on_c, 0, 53, 46
1, 114751, Note_off_c, 0, 62, 64
1, 114766, Note_off_c, 0, 53, 63
1, 114772, Note_off_c, 0, 56, 63
1, 114772, Note_off_c, 0, 77, 65
1, 115060, Note_on_c, 0, 47, 49
1, 115119, Control_c, 0, 64, 117
1, 115133, Control_c, 0, 64, 72
1, 115147, Note_on_c, 0, 77, 64
1, 115148, Control_c, 0, 64, 49
1, 115163, Control_c, 0, 64, 22
1, 115178, Control_c, 0, 64, 24
1, 115192, Control_c, 0, 64, 50
1, 115207, Control_c, 0, 64, 64
1, 115217, Note_off_c, 0, 47, 64
1, 115222, Control_c, 0, 64, 74
1, 115237, Control_c, 0, 64, 97
1, 115252, Control_c, 0, 64, 127
1, 115477, Note_on_c, 0, 68, 44
1, 115502, Note_on_c, 0, 63, 41
1, 115506, Note_off_c, 0, 68, 57
1, 115517, Poly_aftertouch_c, 0, 56, 127
1, 115526, Note_on_c, 0, 78, 62
1, 115535, Note_off_c, 0, 77, 54
1, 115544, Note_off_c, 0, 63, 64
1, 115550, Poly_aftertouch_c, 0, 56, 0
1, 115629, Note_off_c, 0, 78, 54
1, 115636, Note_on_c, 0, 77, 80
1, 115761, Note_on_c, 0, 63, 48
1, 115767, Note_on_c, 0, 75, 77
1, 115774, Note_on_c, 0, 56, 44
1, 115777, Note_off_c, 0, 77, 60
1, 115788, Note_on_c, 0, 53, 6
1, 115789, Note_off_c, 0, 63, 56
1, 115801, Note_off_c, 0, 56, 57
1, 115845, Note_off_c, 0, 53, 51
1, 115847, Note_off_c, 0, 75, 62
1, 115882, Note_on_c, 0, 68, 76
1, 115987, Note_off_c, 0, 68, 61
1, 116013, Note_on_c, 0, 42, 43
1, 116104, Control_c, 0, 64, 74
1, 116118, Note_on_c, 0, 41, 43
1, 116119, Control_c, 0, 64, 24
1, 116134, Control_c, 0, 64, 0
1, 116144, Note_off_c, 0, 42, 63
1, 116146, Note_on_c, 0, 83, 74
1, 116201, Control_c, 0, 64, 52
1, 116215, Control_c, 0, 64, 65
1, 116226, Note_off_c, 0, 41, 65
1, 116230, Control_c, 0, 64, 72
1, 116245, Control_c, 0, 64, 82
1, 116260, Control_c, 0, 64, 106
1, 116266, Poly_aftertouch_c, 0, 81, 127
1, 116275, Control_c, 0, 64, 127
1, 116519, Note_on_c, 0, 56, 43
1, 116548, Note_on_c, 0, 63, 45
1, 116554, Note_on_c, 0, 68, 42
1, 116566, Note_off_c, 0, 56, 63
1, 116582, Note_off_c, 0, 68, 58
1, 116593, Note_off_c, 0, 63, 60
1, 116817, Note_on_c, 0, 53, 46
1, 116818, Note_on_c, 0, 63, 41
1, 116849, Note_on_c, 0, 56, 43
1, 116864, Note_off_c, 0, 63, 62
1, 116867, Note_off_c, 0, 53, 63
1, 116877, Note_off_c, 0, 56, 57
1, 116987, Poly_aftertouch_c, 0, 79, 127
1, 117009, Poly_aftertouch_c, 0, 81, 0
1, 117080, Poly_aftertouch_c, 0, 79, 0
1, 117172, Note_on_c, 0, 46, 50
1, 117188, Control_c, 0, 64, 80
1, 117203, Control_c, 0, 64, 58
1, 117217, Control_c, 0, 64, 26
1, 117247, Control_c, 0, 64, 40
1, 117261, Control_c, 0, 64, 59
1, 117276, Control_c, 0, 64, 68
1, 117281, Note_off_c, 0, 46, 64
1, 117291, Control_c, 0, 64, 79
1, 117306, Control_c, 0, 64, 127
1, 117466, Note_on_c, 0, 74, 55
1, 117485, Note_on_c, 0, 56, 55
1, 117496, Note_on_c, 0, 62, 35
1, 117549, Note_off_c, 0, 56, 50
1, 117550, Note_off_c, 0, 62, 54
1, 117596, Note_on_c, 0, 75, 77
1, 117601, Note_off_c, 0, 74, 58
1, 117720, Note_on_c, 0, 62, 25
1, 117729, Note_on_c, 0, 56, 63
1, 117731, Note_on_c, 0, 68, 60
1, 117732, Note_off_c, 0, 83, 59
1, 117741, Note_on_c, 0, 74, 75
1, 117753, Note_off_c, 0, 62, 51
1, 117758, Note_off_c, 0, 68, 63
1, 117761, Note_off_c, 0, 56, 65
1, 117762, Note_off_c, 0, 75, 55
1, 117850, Note_on_c, 0, 75, 88
1, 117901, Note_off_c, 0, 74, 53
1, 117987, Note_off_c, 0, 75, 61
1, 118015, Note_on_c, 0, 77, 76
1, 118017, Note_on_c, 0, 47, 61
1, 118026, Control_c, 0, 64, 74
1, 118040, Control_c, 0, 64, 0
1, 118084, Control_c, 0, 64, 10
1, 118099, Control_c, 0, 64, 67
1, 118114, Control_c, 0, 64, 95
1, 118119, Note_off_c, 0, 47, 63
1, 118129, Control_c, 0, 64, 127
1, 118146, Note_off_c, 0, 77, 64
1, 118325, Note_on_c, 0, 77, 89
1, 118334, Note_on_c, 0, 56, 59
1, 118336, Note_on_c, 0, 68, 67
1, 118342, Note_on_c, 0, 63, 63
1, 118365, Note_off_c, 0, 68, 65
1, 118370, Note_off_c, 0, 56, 65
1, 118381, Note_off_c, 0, 77, 63
1, 118382, Note_off_c, 0, 63, 62
1, 118590, Note_on_c, 0, 53, 65
1, 118593, Note_on_c, 0, 77, 88
1, 118599, Note_on_c, 0, 63, 63
1, 118626, Note_on_c, 0, 56, 45
1, 118628, Note_off_c, 0, 63, 65
1, 118632, Note_off_c, 0, 53, 64
1, 118645, Note_off_c, 0, 77, 64
1, 118648, Note_off_c, 0, 56, 60
1, 118869, Note_on_c, 0, 48, 72
1, 118907, Control_c, 0, 64, 117
1, 118922, Control_c, 0, 64, 66
1, 118926, Note_on_c, 0, 77, 80
1, 118937, Control_c, 0, 64, 52
1, 118952, Control_c, 0, 64, 56
1, 118967, Control_c, 0, 64, 63
1, 118981, Control_c, 0, 64, 76
1, 118984, Note_off_c, 0, 48, 65
1, 118996, Control_c, 0, 64, 127
1, 119189, Note_on_c, 0, 57, 70
1, 119192, Note_on_c, 0, 69, 72
1, 119195, Note_on_c, 0, 78, 87
1, 119209, Note_on_c, 0, 63, 67
1, 119214, Note_off_c, 0, 77, 61
1, 119217, Note_off_c, 0, 69, 69
1, 119237, Note_off_c, 0, 57, 63
1, 119243, Note_off_c, 0, 63, 65
1, 119299, Note_off_c, 0, 78, 61
1, 119331, Note_on_c, 0, 77, 88
1, 119451, Note_on_c, 0, 63, 70
1, 119469, Note_on_c, 0, 57, 60
1, 119471, Note_on_c, 0, 53, 47
1, 119474, Note_on_c, 0, 75, 99
1, 119478, Note_off_c, 0, 63, 69
1, 119485, Note_off_c, 0, 77, 62
1, 119496, Note_off_c, 0, 57, 65
1, 119503, Note_off_c, 0, 53, 64
1, 119579, Note_off_c, 0, 75, 61
1, 119598, Note_on_c, 0, 69, 91
1, 119714, Note_off_c, 0, 69, 58
1, 119766, Note_on_c, 0, 41, 69
1, 119834, Control_c, 0, 64, 67
1, 119839, Note_on_c, 0, 84, 97
1, 119848, Control_c, 0, 64, 45
1, 119863, Control_c, 0, 64, 54
1, 119878, Control_c, 0, 64, 66
1, 119885, Note_off_c, 0, 41, 65
1, 119893, Control_c, 0, 64, 92
1, 119916, Control_c, 0, 64, 127
1, 120152, Note_on_c, 0, 69, 74
1, 120156, Note_on_c, 0, 57, 57
1, 120164, Note_on_c, 0, 63, 72
1, 120176, Note_off_c, 0, 69, 70
1, 120189, Note_off_c, 0, 57, 65
1, 120203, Note_off_c, 0, 63, 61
1, 120419, Note_on_c, 0, 63, 75
1, 120429, Note_on_c, 0, 53, 65
1, 120438, Note_on_c, 0, 57, 64
1, 120456, Note_off_c, 0, 63, 61
1, 120464, Note_off_c, 0, 57, 67
1, 120484, Note_off_c, 0, 53, 64
1, 120757, Note_on_c, 0, 46, 83
1, 120796, Control_c, 0, 64, 75
1, 120811, Control_c, 0, 64, 0
1, 120826, Note_on_c, 0, 82, 93
1, 120856, Control_c, 0, 64, 41
1, 120860, Note_off_c, 0, 46, 65
1, 120871, Control_c, 0, 64, 70
1, 120880, Note_off_c, 0, 84, 64
1, 120885, Control_c, 0, 64, 109
1, 120900, Control_c, 0, 64, 127
1, 121067, Note_on_c, 0, 62, 57
1, 121073, Note_on_c, 0, 68, 80
1, 121082, Note_on_c, 0, 58, 65
1, 121084, Note_off_c, 0, 82, 63
1, 121154, Note_off_c, 0, 68, 61
1, 121196, Note_off_c, 0, 62, 53
1, 121205, Note_off_c, 0, 58, 50
1, 121328, Note_on_c, 0, 62, 66
1, 121335, Note_on_c, 0, 53, 75
1, 121340, Note_on_c, 0, 58, 73
1, 121365, Note_off_c, 0, 62, 65
1, 121365, Note_off_c, 0, 58, 68
1, 121383, Note_off_c, 0, 53, 65
1, 121646, Note_on_c, 0, 39, 70
1, 121694, Control_c, 0, 64, 72
1, 121708, Control_c, 0, 64, 60
1, 121723, Control_c, 0, 64, 64
1, 121738, Control_c, 0, 64, 73
1, 121741, Note_on_c, 0, 73, 84
1, 121744, Note_on_c, 0, 79, 83
1, 121753, Control_c, 0, 64, 127
1, 121765, Note_off_c, 0, 39, 62
1, 121855, Note_off_c, 0, 73, 64
1, 121924, Note_on_c, 0, 80, 87
1, 121944, Note_off_c, 0, 79, 62
1, 121993, Note_on_c, 0, 82, 7
1, 122020, Note_off_c, 0, 80, 63
1, 122024, Note_on_c, 0, 79, 84
1, 122044, Note_off_c, 0, 82, 53
1, 122065, Note_on_c, 0, 58, 65
1, 122075, Note_on_c, 0, 61, 56
1, 122088, Note_off_c, 0, 79, 65
1, 122095, Note_on_c, 0, 80, 84
1, 122099, Note_off_c, 0, 58, 65
1, 122099, Note_on_c, 0, 67, 6
1, 122109, Note_off_c, 0, 61, 64
1, 122152, Note_off_c, 0, 67, 39
1, 122162, Note_on_c, 0, 79, 81
1, 122165, Note_off_c, 0, 80, 64
1, 122207, Note_off_c, 0, 79, 65
1, 122213, Note_on_c, 0, 80, 72
1, 122243, Note_off_c, 0, 80, 65
1, 122264, Note_on_c, 0, 79, 51
1, 122287, Note_off_c, 0, 79, 59
1, 122303, Note_on_c, 0, 61, 65
1, 122310, Note_on_c, 0, 80, 75
1, 122314, Note_on_c, 0, 51, 57
1, 122315, Note_on_c, 0, 58, 73
1, 122331, Note_off_c, 0, 61, 63
1, 122338, Note_on_c, 0, 79, 65
1, 122338, Note_off_c, 0, 58, 66
1, 122344, Note_off_c, 0, 51, 64
1, 122344, Note_off_c, 0, 80, 64
1, 122364, Note_off_c, 0, 79, 67
1, 122406, Note_on_c, 0, 77, 90
1, 122459, Note_off_c, 0, 77, 64
1, 122483, Poly_aftertouch_c, 0, 79, 127
1, 122494, Note_on_c, 0, 79, 30
1, 122591, Note_on_c, 0, 44, 73
1, 122650, Control_c, 0, 64, 59
1, 122665, Control_c, 0, 64, 0
1, 122667, Note_on_c, 0, 82, 94
1, 122677, Note_on_c, 0, 73, 91
1, 122695, Control_c, 0, 64, 41
1, 122710, Control_c, 0, 64, 66
1, 122716, Note_off_c, 0, 79, 62
1, 122724, Control_c, 0, 64, 95
1, 122727, Note_off_c, 0, 44, 64
1, 122739, Control_c, 0, 64, 127
1, 122805, Note_off_c, 0, 73, 60
1, 122961, Note_on_c, 0, 66, 61
1, 122972, Note_on_c, 0, 56, 57
1, 122973, Note_on_c, 0, 63, 66
1, 123025, Note_off_c, 0, 66, 63
1, 123044, Note_off_c, 0, 56, 64
1, 123054, Note_off_c, 0, 63, 63
1, 123065, Note_on_c, 0, 80, 88
1, 123067, Note_on_c, 0, 72, 81
1, 123163, Note_off_c, 0, 82, 62
1, 123229, Note_on_c, 0, 75, 90
1, 123254, Note_off_c, 0, 72, 59
1, 123276, Note_off_c, 0, 80, 62
1, 123287, Note_on_c, 0, 60, 61
1, 123292, Note_on_c, 0, 51, 66
1, 123300, Note_on_c, 0, 56, 67
1, 123315, Note_off_c, 0, 60, 66
1, 123334, Note_off_c, 0, 56, 68
1, 123348, Note_off_c, 0, 51, 63
1, 123354, Note_on_c, 0, 80, 94
1, 123393, Note_off_c, 0, 75, 59
1, 123437, Note_off_c, 0, 80, 59
1, 123465, Note_on_c, 0, 78, 91
1, 123520, Note_on_c, 0, 71, 17
1, 123557, Note_off_c, 0, 78, 61
1, 123562, Note_off_c, 0, 71, 41
1, 123607, Control_c, 0, 64, 112
1, 123614, Note_on_c, 0, 37, 77
1, 123622, Control_c, 0, 64, 67
1, 123623, Note_on_c, 0, 78, 89
1, 123637, Note_on_c, 0, 75, 74
1, 123637, Control_c, 0, 64, 36
1, 123658, Control_c, 0, 64, 39
1, 123671, Note_off_c, 0, 37, 61
1, 123673, Note_on_c, 0, 71, 33
1, 123673, Control_c, 0, 64, 62
1, 123688, Control_c, 0, 64, 79
1, 123703, Control_c, 0, 64, 127
1, 123704, Note_off_c, 0, 71, 46
1, 123717, Note_off_c, 0, 75, 62
1, 123745, Note_off_c, 0, 78, 63
1, 123916, Note_on_c, 0, 77, 84
1, 123928, Note_on_c, 0, 65, 66
1, 123933, Note_on_c, 0, 73, 71
1, 123935, Note_on_c, 0, 61, 63
1, 123941, Note_on_c, 0, 56, 54
1, 124014, Note_off_c, 0, 56, 55
1, 124016, Note_off_c, 0, 65, 52
1, 124019, Note_off_c, 0, 73, 62
1, 124031, Note_off_c, 0, 61, 56
1, 124053, Note_on_c, 0, 68, 85
1, 124157, Note_on_c, 0, 56, 75
1, 124209, Note_off_c, 0, 56, 66
1, 124210, Note_on_c, 0, 73, 87
1, 124217, Note_off_c, 0, 68, 34
1, 124245, Note_on_c, 0, 76, 12
1, 124260, Poly_aftertouch_c, 0, 61, 0
1, 124275, Note_off_c, 0, 77, 60
1, 124296, Note_off_c, 0, 76, 48
1, 124334, Note_on_c, 0, 72, 89
1, 124419, Note_off_c, 0, 73, 55
1, 124485, Note_on_c, 0, 42, 63
1, 124490, Note_off_c, 0, 72, 55
1, 124570, Control_c, 0, 64, 80
1, 124574, Note_on_c, 0, 80, 89
1, 124578, Note_on_c, 0, 72, 66
1, 124585, Control_c, 0, 64, 42
1, 124600, Control_c, 0, 64, 0
1, 124656, Note_off_c, 0, 42, 64
1, 124659, Control_c, 0, 64, 60
1, 124674, Control_c, 0, 64, 70
1, 124689, Control_c, 0, 64, 84
1, 124704, Control_c, 0, 64, 112
1, 124719, Control_c, 0, 64, 127
1, 124771, Note_off_c, 0, 72, 58
1, 124832, Note_on_c, 0, 65, 56
1, 124844, Note_on_c, 0, 58, 56
1, 124886, Note_on_c, 0, 61, 24
1, 124904, Note_on_c, 0, 78, 83
1, 124916, Note_on_c, 0, 70, 65
1, 124923, Note_off_c, 0, 61, 51
1, 124928, Note_off_c, 0, 58, 59
1, 124978, Note_off_c, 0, 65, 36
1, 125026, Note_off_c, 0, 80, 57
1, 125035, Note_on_c, 0, 73, 81
1, 125077, Note_off_c, 0, 78, 58
1, 125092, Note_on_c, 0, 54, 57
1, 125106, Note_on_c, 0, 58, 46
1, 125112, Note_off_c, 0, 70, 56
1, 125125, Note_off_c, 0, 54, 64
1, 125134, Note_off_c, 0, 58, 56
1, 125155, Poly_aftertouch_c, 0, 61, 127
1, 125161, Note_on_c, 0, 78, 86
1, 125187, Poly_aftertouch_c, 0, 61, 0
1, 125239, Note_off_c, 0, 78, 64
1, 125276, Note_on_c, 0, 78, 75
1, 125282, Note_off_c, 0, 73, 63
1, 125357, Note_off_c, 0, 78, 64
1, 125379, Note_on_c, 0, 77, 43
1, 125406, Note_off_c, 0, 77, 54
1, 125446, Note_on_c, 0, 36, 53
1, 125462, Note_on_c, 0, 77, 80
1, 125467, Control_c, 0, 64, 80
1, 125482, Note_on_c, 0, 70, 61
1, 125482, Control_c, 0, 64, 46
1, 125497, Control_c, 0, 64, 0
1, 125557, Control_c, 0, 64, 57
1, 125572, Control_c, 0, 64, 68
1, 125582, Note_off_c, 0, 36, 63
1, 125586, Control_c, 0, 64, 82
1, 125601, Control_c, 0, 64, 127
1, 125648, Note_off_c, 0, 70, 62
1, 125804, Note_on_c, 0, 63, 53
1, 125809, Note_on_c, 0, 75, 74
1, 125816, Note_on_c, 0, 72, 70
1, 125838, Note_on_c, 0, 54, 59
1, 125856, Note_off_c, 0, 77, 56
1, 125938, Note_off_c, 0, 63, 60
1, 125950, Note_off_c, 0, 75, 59
1, 125952, Note_off_c, 0, 72, 59
1, 125956, Note_on_c, 0, 73, 75
1, 125968, Note_on_c, 0, 77, 84
1, 126034, Note_off_c, 0, 54, 64
1, 126035, Note_off_c, 0, 73, 61
1, 126076, Note_off_c, 0, 77, 57
1, 126096, Note_on_c, 0, 80, 79
1, 126113, Note_on_c, 0, 70, 69
1, 126180, Note_off_c, 0, 70, 59
1, 126214, Note_on_c, 0, 78, 77
1, 126222, Note_off_c, 0, 80, 60
1, 126228, Note_on_c, 0, 72, 67
1, 126256, Note_off_c, 0, 72, 67
1, 126268, Note_off_c, 0, 78, 64
1, 126409, Control_c, 0, 64, 111
1, 126419, Note_on_c, 0, 41, 53
1, 126424, Control_c, 0, 64, 65
1, 126436, Note_on_c, 0, 69, 60
1, 126439, Note_on_c, 0, 63, 58
1, 126439, Control_c, 0, 64, 0
1, 126496, Note_off_c, 0, 41, 64
1, 126498, Control_c, 0, 64, 48
1, 126512, Note_off_c, 0, 63, 63
1, 126513, Control_c, 0, 64, 64
1, 126528, Control_c, 0, 64, 71
1, 126528, Note_off_c, 0, 69, 64
1, 126543, Control_c, 0, 64, 79
1, 126558, Control_c, 0, 64, 99
1, 126572, Control_c, 0, 64, 127
1, 126773, Note_on_c, 0, 63, 21
1, 126783, Note_on_c, 0, 66, 42
1, 126784, Note_on_c, 0, 72, 53
1, 126793, Note_on_c, 0, 69, 44
1, 126897, Note_on_c, 0, 53, 54
1, 126911, Note_on_c, 0, 73, 76
1, 126930, Note_off_c, 0, 63, 40
1, 126938, Note_off_c, 0, 72, 61
1, 126988, Note_off_c, 0, 53, 60
1, 127001, Note_off_c, 0, 73, 63
1, 127019, Note_on_c, 0, 63, 66
1, 127036, Note_on_c, 0, 72, 84
1, 127131, Note_off_c, 0, 63, 54
1, 127137, Note_on_c, 0, 61, 62
1, 127140, Note_on_c, 0, 73, 85
1, 127179, Note_off_c, 0, 72, 62
1, 127295, Note_on_c, 0, 60, 52
1, 127305, Note_off_c, 0, 61, 55
1, 127330, Note_on_c, 0, 75, 77
1, 127336, Control_c, 0, 64, 83
1, 127351, Control_c, 0, 64, 54
1, 127362, Note_off_c, 0, 73, 61
1, 127366, Control_c, 0, 64, 0
1, 127421, Note_off_c, 0, 66, 60
1, 127476, Control_c, 0, 64, 59
1, 127491, Control_c, 0, 64, 70
1, 127506, Control_c, 0, 64, 75
1, 127520, Control_c, 0, 64, 80
1, 127535, Control_c, 0, 64, 83
1, 127551, Control_c, 0, 64, 87
1, 127566, Control_c, 0, 64, 96
1, 127581, Control_c, 0, 64, 127
1, 127639, Note_on_c, 0, 65, 62
1, 127649, Note_off_c, 0, 69, 65
1, 127811, Note_off_c, 0, 60, 57
1, 127870, Note_on_c, 0, 73, 73
1, 127881, Note_on_c, 0, 58, 56
1, 127881, Note_off_c, 0, 75, 61
1, 127885, Note_on_c, 0, 70, 57
1, 127902, Note_off_c, 0, 65, 63
1, 127916, Note_off_c, 0, 58, 64
1, 127916, Note_off_c, 0, 70, 67
1, 127925, Note_off_c, 0, 73, 64
1, 128150, Control_c, 0, 64, 105
1, 128165, Control_c, 0, 64, 62
1, 128171, Note_on_c, 0, 58, 55
1, 128172, Note_on_c, 0, 73, 65
1, 128176, Note_on_c, 0, 70, 60
1, 128180, Control_c, 0, 64, 0
1, 128188, Note_on_c, 0, 65, 61
1, 128239, Control_c, 0, 64, 65
1, 128242, Note_off_c, 0, 65, 63
1, 128254, Control_c, 0, 64, 91
1, 128261, Note_off_c, 0, 58, 63
1, 128263, Note_off_c, 0, 70, 65
1, 128266, Note_off_c, 0, 73, 65
1, 128269, Control_c, 0, 64, 127
1, 128475, Note_on_c, 0, 73, 77
1, 128478, Note_on_c, 0, 67, 63
1, 128478, Note_on_c, 0, 64, 64
1, 128479, Note_on_c, 0, 70, 69
1, 128648, Note_on_c, 0, 75, 84
1, 128648, Note_on_c, 0, 72, 79
1, 128652, Note_on_c, 0, 53, 73
1, 128678, Note_off_c, 0, 70, 65
1, 128688, Note_off_c, 0, 64, 59
1, 128713, Note_off_c, 0, 75, 62
1, 128749, Note_off_c, 0, 53, 62
1, 128756, Note_off_c, 0, 73, 0
1, 128771, Note_on_c, 0, 70, 79
1, 128772, Note_on_c, 0, 73, 62
1, 128782, Note_off_c, 0, 72, 38
1, 128789, Note_on_c, 0, 64, 71
1, 128875, Note_on_c, 0, 75, 89
1, 128877, Note_on_c, 0, 72, 85
1, 128898, Note_off_c, 0, 70, 51
1, 128907, Note_on_c, 0, 63, 69
1, 128923, Note_off_c, 0, 64, 56
1, 128930, Note_off_c, 0, 73, 34
1, 128970, Note_off_c, 0, 75, 61
1, 129062, Note_on_c, 0, 70, 67
1, 129070, Note_on_c, 0, 76, 86
1, 129078, Control_c, 0, 64, 111
1, 129081, Note_on_c, 0, 61, 62
1, 129089, Note_off_c, 0, 72, 62
1, 129092, Control_c, 0, 64, 64
1, 129107, Control_c, 0, 64, 0
1, 129154, Note_off_c, 0, 67, 64
1, 129160, Note_off_c, 0, 63, 57
1, 129183, Control_c, 0, 64, 60
1, 129197, Control_c, 0, 64, 75
1, 129202, Note_off_c, 0, 70, 60
1, 129212, Control_c, 0, 64, 93
1, 129227, Control_c, 0, 64, 127
1, 129352, Note_on_c, 0, 66, 81
1, 129447, Note_off_c, 0, 66, 59
1, 129542, Note_off_c, 0, 61, 57
1, 129584, Note_on_c, 0, 75, 85
1, 129590, Note_on_c, 0, 70, 79
1, 129593, Note_off_c, 0, 76, 63
1, 129599, Note_on_c, 0, 60, 70
1, 129616, Note_off_c, 0, 70, 69
1, 129628, Note_off_c, 0, 75, 64
1, 129667, Note_off_c, 0, 60, 62
1, 129906, Note_on_c, 0, 60, 62
1, 129930, Control_c, 0, 64, 105
1, 129932, Note_on_c, 0, 75, 87
1, 129939, Note_on_c, 0, 63, 74
1, 129942, Note_on_c, 0, 70, 81
1, 129946, Control_c, 0, 64, 56
1, 129961, Control_c, 0, 64, 0
1, 130005, Note_off_c, 0, 63, 64
1, 130006, Control_c, 0, 64, 34
1, 130020, Control_c, 0, 64, 64
1, 130028, Note_off_c, 0, 75, 65
1, 130035, Control_c, 0, 64, 79
1, 130036, Note_off_c, 0, 70, 65
1, 130050, Control_c, 0, 64, 127
1, 130055, Note_off_c, 0, 60, 61
1, 130272, Control_c, 0, 64, 99
1, 130278, Note_on_c, 0, 75, 99
1, 130287, Control_c, 0, 64, 64
1, 130302, Control_c, 0, 64, 43
1, 130317, Control_c, 0, 64, 56
1, 130332, Control_c, 0, 64, 67
1, 130346, Control_c, 0, 64, 91
1, 130361, Control_c, 0, 64, 127
1, 130419, Note_on_c, 0, 77, 95
1, 130441, Control_c, 0, 64, 91
1, 130445, Note_off_c, 0, 75, 61
1, 130456, Control_c, 0, 64, 58
1, 130471, Control_c, 0, 64, 0
1, 130500, Control_c, 0, 64, 36
1, 130515, Control_c, 0, 64, 66
1, 130530, Control_c, 0, 64, 87
1, 130544, Control_c, 0, 64, 127
1, 130553, Note_on_c, 0, 75, 100
1, 130585, Note_off_c, 0, 77, 61
1, 130663, Control_c, 0, 64, 79
1, 130676, Note_off_c, 0, 75, 63
1, 130678, Control_c, 0, 64, 0
1, 130679, Note_on_c, 0, 77, 93
1, 130753, Control_c, 0, 64, 53
1, 130767, Control_c, 0, 64, 88
1, 130782, Control_c, 0, 64, 127
1, 130857, Control_c, 0, 64, 95
1, 130858, Note_on_c, 0, 78, 95
1, 130872, Control_c, 0, 64, 48
1, 130881, Note_off_c, 0, 77, 63
1, 130887, Control_c, 0, 64, 0
1, 130960, Control_c, 0, 64, 69
1, 130975, Control_c, 0, 64, 127
1, 131006, Note_off_c, 0, 78, 66
1, 131227, Note_on_c, 0, 78, 101
1, 131311, Note_off_c, 0, 78, 68
1, 131665, Note_on_c, 0, 78, 91
1, 131775, Note_off_c, 0, 78, 67
1, 132402, Note_on_c, 0, 78, 87
1, 135356, Note_on_c, 0, 41, 36
1, 135423, Control_c, 0, 64, 79
1, 135438, Control_c, 0, 64, 61
1, 135453, Control_c, 0, 64, 22
1, 135468, Control_c, 0, 64, 0
1, 135497, Control_c, 0, 64, 45
1, 135512, Control_c, 0, 64, 62
1, 135528, Control_c, 0, 64, 70
1, 135543, Control_c, 0, 64, 83
1, 135558, Control_c, 0, 64, 127
1, 135603, Note_off_c, 0, 41, 46
1, 135803, Note_off_c, 0, 78, 51
1, 136343, Note_on_c, 0, 77, 48
1, 136395, Note_on_c, 0, 63, 18
1, 136406, Note_on_c, 0, 69, 10
1, 136613, Note_off_c, 0, 63, 47
1, 136696, Note_on_c, 0, 72, 35
1, 136762, Note_off_c, 0, 69, 43
1, 136914, Note_on_c, 0, 75, 54
1, 136929, Note_on_c, 0, 63, 27
1, 136954, Note_on_c, 0, 65, 30
1, 136956, Note_off_c, 0, 72, 42
1, 136962, Note_on_c, 0, 57, 34
1, 137000, Note_off_c, 0, 65, 62
1, 137003, Note_off_c, 0, 63, 57
1, 137013, Note_off_c, 0, 57, 61
1, 137086, Note_on_c, 0, 73, 60
1, 137158, Note_off_c, 0, 75, 32
1, 137284, Note_off_c, 0, 73, 56
1, 137319, Note_on_c, 0, 70, 49
1, 137335, Note_on_c, 0, 46, 33
1, 137389, Control_c, 0, 64, 77
1, 137403, Control_c, 0, 64, 53
1, 137418, Control_c, 0, 64, 0
1, 137463, Control_c, 0, 64, 51
1, 137477, Control_c, 0, 64, 65
1, 137492, Control_c, 0, 64, 75
1, 137507, Control_c, 0, 64, 94
1, 137522, Note_off_c, 0, 77, 48
1, 137522, Control_c, 0, 64, 127
1, 137526, Note_off_c, 0, 46, 56
1, 137769, Note_on_c, 0, 58, 32
1, 137774, Note_on_c, 0, 65, 31
1, 137791, Note_on_c, 0, 61, 15
1, 137829, Note_off_c, 0, 58, 53
1, 137855, Note_off_c, 0, 61, 44
1, 138000, Note_off_c, 0, 65, 40
1, 138133, Note_on_c, 0, 53, 38
1, 138134, Note_on_c, 0, 61, 29
1, 138149, Note_on_c, 0, 58, 14
1, 138184, Note_off_c, 0, 61, 50
1, 138190, Note_off_c, 0, 58, 50
1, 138195, Note_off_c, 0, 53, 60
1, 138531, Note_on_c, 0, 67, 37
1, 138551, Note_on_c, 0, 48, 30
1, 138566, Control_c, 0, 64, 105
1, 138581, Control_c, 0, 64, 70
1, 138596, Control_c, 0, 64, 36
1, 138611, Control_c, 0, 64, 0
1, 138628, Note_off_c, 0, 70, 58
1, 138663, Control_c, 0, 64, 43
1, 138678, Control_c, 0, 64, 63
1, 138693, Control_c, 0, 64, 72
1, 138707, Control_c, 0, 64, 85
1, 138715, Note_off_c, 0, 48, 57
1, 138722, Control_c, 0, 64, 127
1, 138990, Poly_aftertouch_c, 0, 77, 127
1, 139001, Note_on_c, 0, 60, 30
1, 139003, Note_on_c, 0, 64, 28
1, 139007, Note_on_c, 0, 58, 25
1, 139103, Note_off_c, 0, 58, 45
1, 139103, Note_off_c, 0, 64, 58
1, 139122, Note_off_c, 0, 60, 55
1, 139470, Note_on_c, 0, 60, 32
1, 139475, Note_on_c, 0, 58, 28
1, 139479, Note_on_c, 0, 52, 34
1, 139635, Note_off_c, 0, 60, 37
1, 139639, Note_off_c, 0, 58, 45
1, 139648, Note_off_c, 0, 52, 45
1, 139821, Poly_aftertouch_c, 0, 77, 0
1, 140053, Note_off_c, 0, 67, 54
1, 140399, Note_on_c, 0, 41, 26
1, 140458, Control_c, 0, 64, 76
1, 140473, Control_c, 0, 64, 56
1, 140488, Control_c, 0, 64, 0
1, 140533, Control_c, 0, 64, 45
1, 140548, Control_c, 0, 64, 62
1, 140563, Control_c, 0, 64, 70
1, 140577, Control_c, 0, 64, 79
1, 140592, Control_c, 0, 64, 95
1, 140607, Control_c, 0, 64, 127
1, 140656, Note_off_c, 0, 41, 50
1, 140819, Note_on_c, 0, 68, 33
1, 140996, Note_off_c, 0, 68, 31
1, 141100, Note_on_c, 0, 72, 52
1, 141111, Note_on_c, 0, 53, 20
1, 141124, Note_on_c, 0, 60, 28
1, 141132, Note_on_c, 0, 68, 17
1, 141155, Note_off_c, 0, 53, 57
1, 141205, Note_off_c, 0, 60, 62
1, 141278, Note_off_c, 0, 72, 61
1, 141321, Note_off_c, 0, 68, 39
1, 141324, Note_on_c, 0, 67, 38
1, 141357, Note_off_c, 0, 67, 53
1, 141458, Note_on_c, 0, 68, 33
1, 141476, Note_on_c, 0, 56, 42
1, 141486, Note_on_c, 0, 77, 74
1, 141487, Note_on_c, 0, 60, 27
1, 141499, Note_off_c, 0, 68, 60
1, 141503, Note_on_c, 0, 72, 47
1, 141524, Note_off_c, 0, 60, 47
1, 141528, Note_off_c, 0, 56, 63
1, 141585, Note_off_c, 0, 72, 64
1, 141588, Note_off_c, 0, 77, 58
1, 141646, Note_on_c, 0, 65, 50
1, 141671, Note_off_c, 0, 65, 58
1, 141786, Note_on_c, 0, 41, 46
1, 141838, Note_on_c, 0, 73, 39
1, 141843, Note_on_c, 0, 76, 56
1, 141846, Note_on_c, 0, 55, 43
1, 141847, Note_on_c, 0, 49, 39
1, 141850, Control_c, 0, 64, 72
1, 141865, Note_on_c, 0, 67, 22
1, 141865, Control_c, 0, 64, 46
1, 141880, Control_c, 0, 64, 0
1, 141917, Note_off_c, 0, 41, 63
1, 141925, Control_c, 0, 64, 50
1, 141940, Control_c, 0, 64, 64
1, 141955, Control_c, 0, 64, 73
1, 141960, Note_off_c, 0, 55, 63
1, 141970, Control_c, 0, 64, 87
1, 141971, Note_off_c, 0, 49, 61
1, 141984, Control_c, 0, 64, 127
1, 141990, Note_off_c, 0, 67, 28
1, 142003, Note_on_c, 0, 68, 59
1, 142105, Note_off_c, 0, 68, 59
1, 142135, Note_on_c, 0, 67, 44
1, 142142, Note_on_c, 0, 70, 72
1, 142143, Note_on_c, 0, 61, 58
1, 142169, Note_off_c, 0, 76, 50
1, 142171, Note_on_c, 0, 53, 37
1, 142192, Note_off_c, 0, 67, 58
1, 142196, Note_off_c, 0, 61, 58
1, 142205, Note_off_c, 0, 53, 48
1, 142232, Note_off_c, 0, 73, 48
1, 142277, Note_on_c, 0, 65, 67
1, 142319, Note_off_c, 0, 65, 61
1, 142446, Note_on_c, 0, 58, 52
1, 142451, Note_on_c, 0, 73, 68
1, 142455, Note_off_c, 0, 70, 63
1, 142471, Note_on_c, 0, 61, 44
1, 142474, Note_on_c, 0, 64, 46
1, 142508, Note_off_c, 0, 61, 64
1, 142514, Note_off_c, 0, 58, 62
1, 142569, Note_off_c, 0, 64, 59
1, 142593, Note_on_c, 0, 70, 63
1, 142651, Note_off_c, 0, 70, 62
1, 142811, Note_on_c, 0, 41, 41
1, 142815, Note_on_c, 0, 70, 51
1, 142822, Control_c, 0, 64, 74
1, 142837, Control_c, 0, 64, 28
1, 142852, Control_c, 0, 64, 0
1, 142855, Note_on_c, 0, 60, 41
1, 142911, Control_c, 0, 64, 52
1, 142926, Control_c, 0, 64, 67
1, 142941, Note_off_c, 0, 41, 65
1, 142941, Control_c, 0, 64, 81
1, 142956, Control_c, 0, 64, 118
1, 142957, Note_off_c, 0, 60, 57
1, 142970, Control_c, 0, 64, 127
1, 142992, Note_on_c, 0, 68, 66
1, 143043, Note_off_c, 0, 73, 64
1, 143062, Note_off_c, 0, 70, 57
1, 143138, Note_off_c, 0, 68, 0
1, 143140, Note_on_c, 0, 72, 76
1, 143155, Note_on_c, 0, 68, 30
1, 143169, Note_on_c, 0, 53, 28
1, 143177, Note_on_c, 0, 56, 54
1, 143177, Note_on_c, 0, 60, 49
1, 143208, Note_off_c, 0, 53, 45
1, 143210, Note_off_c, 0, 56, 65
1, 143210, Note_off_c, 0, 60, 65
1, 143246, Note_off_c, 0, 72, 64
1, 143251, Note_off_c, 0, 68, 54
1, 143274, Note_on_c, 0, 67, 72
1, 143325, Note_off_c, 0, 67, 61
1, 143418, Note_on_c, 0, 56, 64
1, 143428, Note_on_c, 0, 77, 86
1, 143436, Note_on_c, 0, 72, 61
1, 143453, Note_off_c, 0, 56, 67
1, 143474, Poly_aftertouch_c, 0, 67, 127
1, 143496, Poly_aftertouch_c, 0, 67, 0
1, 143505, Note_off_c, 0, 72, 64
1, 143551, Note_on_c, 0, 65, 57
1, 143567, Note_off_c, 0, 77, 63
1, 143660, Note_on_c, 0, 41, 44
1, 143703, Note_off_c, 0, 65, 62
1, 143721, Note_on_c, 0, 49, 45
1, 143732, Note_on_c, 0, 73, 40
1, 143742, Note_on_c, 0, 55, 45
1, 143743, Note_on_c, 0, 76, 78
1, 143749, Control_c, 0, 64, 97
1, 143757, Note_on_c, 0, 70, 46
1, 143764, Control_c, 0, 64, 65
1, 143779, Control_c, 0, 64, 0
1, 143820, Note_off_c, 0, 41, 65
1, 143823, Control_c, 0, 64, 24
1, 143837, Control_c, 0, 64, 59
1, 143843, Note_off_c, 0, 70, 64
1, 143852, Control_c, 0, 64, 67
1, 143874, Control_c, 0, 64, 77
1, 143878, Note_off_c, 0, 49, 63
1, 143885, Note_on_c, 0, 72, 45
1, 143888, Note_off_c, 0, 55, 63
1, 143889, Control_c, 0, 64, 96
1, 143904, Control_c, 0, 64, 127
1, 143915, Note_on_c, 0, 68, 54
1, 143916, Note_off_c, 0, 72, 60
1, 143922, Note_off_c, 0, 76, 64
1, 143928, Note_off_c, 0, 73, 46
1, 144050, Note_on_c, 0, 70, 72
1, 144054, Note_off_c, 0, 68, 31
1, 144055, Note_on_c, 0, 61, 54
1, 144065, Note_on_c, 0, 67, 54
1, 144134, Poly_aftertouch_c, 0, 53, 127
1, 144140, Note_off_c, 0, 61, 54
1, 144146, Poly_aftertouch_c, 0, 58, 127
1, 144163, Note_on_c, 0, 65, 55
1, 144163, Note_off_c, 0, 67, 61
1, 144165, Poly_aftertouch_c, 0, 53, 0
1, 144180, Poly_aftertouch_c, 0, 58, 0
1, 144193, Note_on_c, 0, 68, 53
1, 144195, Note_off_c, 0, 70, 51
1, 144233, Note_off_c, 0, 65, 63
1, 144339, Note_off_c, 0, 68, 52
1, 144349, Control_c, 0, 64, 97
1, 144364, Control_c, 0, 64, 67
1, 144369, Note_on_c, 0, 73, 64
1, 144373, Note_on_c, 0, 58, 41
1, 144379, Control_c, 0, 64, 8
1, 144393, Note_on_c, 0, 64, 46
1, 144393, Note_on_c, 0, 61, 35
1, 144394, Control_c, 0, 64, 0
1, 144419, Note_on_c, 0, 67, 24
1, 144423, Control_c, 0, 64, 26
1, 144438, Control_c, 0, 64, 60
1, 144453, Control_c, 0, 64, 67
1, 144465, Note_off_c, 0, 61, 62
1, 144467, Control_c, 0, 64, 77
1, 144473, Note_off_c, 0, 58, 64
1, 144478, Note_off_c, 0, 67, 39
1, 144482, Control_c, 0, 64, 93
1, 144497, Control_c, 0, 64, 127
1, 144539, Note_off_c, 0, 64, 56
1, 144540, Note_on_c, 0, 70, 58
1, 144548, Note_off_c, 0, 73, 64
1, 144602, Poly_aftertouch_c, 0, 67, 127
1, 144646, Poly_aftertouch_c, 0, 67, 0
1, 144726, Note_off_c, 0, 70, 0
1, 144756, Note_on_c, 0, 70, 4
1, 144772, Note_on_c, 0, 72, 47
1, 144780, Note_on_c, 0, 67, 49
1, 144786, Control_c, 0, 64, 82
1, 144801, Control_c, 0, 64, 53
1, 144808, Note_on_c, 0, 41, 14
1, 144813, Note_on_c, 0, 48, 18
1, 144816, Control_c, 0, 64, 0
1, 144860, Control_c, 0, 64, 35
1, 144875, Control_c, 0, 64, 60
1, 144883, Note_off_c, 0, 67, 55
1, 144890, Control_c, 0, 64, 67
1, 144905, Note_off_c, 0, 41, 61
1, 144905, Control_c, 0, 64, 75
1, 144915, Note_off_c, 0, 48, 58
1, 144920, Control_c, 0, 64, 84
1, 144934, Control_c, 0, 64, 93
1, 144949, Control_c, 0, 64, 102
1, 144964, Control_c, 0, 64, 112
1, 144967, Note_off_c, 0, 70, 43
1, 144979, Control_c, 0, 64, 127
1, 144995, Note_on_c, 0, 68, 59
1, 145057, Note_off_c, 0, 68, 58
1, 145072, Note_off_c, 0, 72, 37
1, 145094, Poly_aftertouch_c, 0, 65, 0
1, 145181, Note_on_c, 0, 72, 62
1, 145193, Note_on_c, 0, 56, 42
1, 145195, Note_on_c, 0, 60, 43
1, 145201, Note_on_c, 0, 48, 36
1, 145207, Note_on_c, 0, 65, 48
1, 145213, Note_on_c, 0, 68, 36
1, 145213, Note_on_c, 0, 53, 29
1, 145237, Note_off_c, 0, 60, 63
1, 145256, Note_off_c, 0, 53, 59
1, 145260, Note_off_c, 0, 56, 62
1, 145271, Note_off_c, 0, 48, 61
1, 145313, Note_off_c, 0, 72, 64
1, 145317, Note_on_c, 0, 73, 76
1, 145322, Note_off_c, 0, 65, 60
1, 145330, Note_on_c, 0, 70, 65
1, 145386, Note_off_c, 0, 68, 51
1, 145417, Note_off_c, 0, 73, 60
1, 145467, Note_on_c, 0, 52, 51
1, 145467, Note_on_c, 0, 68, 47
1, 145469, Note_on_c, 0, 72, 77
1, 145473, Note_on_c, 0, 40, 58
1, 145473, Note_on_c, 0, 64, 63
1, 145482, Note_off_c, 0, 70, 61
1, 145567, Note_off_c, 0, 40, 62
1, 145573, Note_off_c, 0, 52, 64
1, 145606, Note_on_c, 0, 73, 86
1, 145613, Note_off_c, 0, 72, 64
1, 145628, Note_off_c, 0, 64, 63
1, 145687, Note_off_c, 0, 73, 63
1, 145767, Note_on_c, 0, 51, 56
1, 145779, Note_on_c, 0, 39, 51
1, 145816, Control_c, 0, 64, 88
1, 145831, Control_c, 0, 64, 54
1, 145838, Note_on_c, 0, 75, 80
1, 145843, Note_on_c, 0, 63, 61
1, 145846, Control_c, 0, 64, 0
1, 145921, Control_c, 0, 64, 62
1, 145924, Note_off_c, 0, 63, 60
1, 145929, Note_off_c, 0, 39, 63
1, 145936, Control_c, 0, 64, 69
1, 145951, Control_c, 0, 64, 76
1, 145961, Note_off_c, 0, 51, 64
1, 145966, Control_c, 0, 64, 85
1, 145981, Control_c, 0, 64, 91
1, 145995, Control_c, 0, 64, 96
1, 146010, Control_c, 0, 64, 103
1, 146025, Control_c, 0, 64, 117
1, 146031, Note_on_c, 0, 70, 65
1, 146038, Note_on_c, 0, 61, 53
1, 146039, Control_c, 0, 64, 127
1, 146062, Note_off_c, 0, 75, 61
1, 146071, Note_off_c, 0, 61, 64
1, 146074, Note_off_c, 0, 68, 61
1, 146097, Note_off_c, 0, 70, 63
1, 146168, Note_on_c, 0, 61, 55
1, 146179, Note_on_c, 0, 51, 47
1, 146179, Note_on_c, 0, 75, 85
1, 146205, Note_on_c, 0, 63, 65
1, 146205, Note_off_c, 0, 61, 58
1, 146223, Note_on_c, 0, 70, 57
1, 146228, Note_off_c, 0, 51, 60
1, 146318, Note_on_c, 0, 68, 72
1, 146338, Note_on_c, 0, 60, 56
1, 146344, Note_on_c, 0, 51, 46
1, 146345, Note_off_c, 0, 75, 61
1, 146379, Note_off_c, 0, 51, 61
1, 146381, Note_off_c, 0, 70, 0
1, 146384, Note_off_c, 0, 68, 60
1, 146385, Note_off_c, 0, 60, 59
1, 146417, Poly_aftertouch_c, 0, 70, 127
1, 146425, Note_on_c, 0, 70, 13
1, 146483, Note_on_c, 0, 51, 50
1, 146506, Control_c, 0, 64, 88
1, 146510, Note_on_c, 0, 75, 81
1, 146515, Note_on_c, 0, 68, 57
1, 146516, Note_on_c, 0, 60, 52
1, 146521, Control_c, 0, 64, 61
1, 146536, Control_c, 0, 64, 0
1, 146563, Note_off_c, 0, 68, 63
1, 146595, Control_c, 0, 64, 56
1, 146610, Control_c, 0, 64, 66
1, 146617, Note_off_c, 0, 63, 57
1, 146625, Control_c, 0, 64, 75
1, 146635, Poly_aftertouch_c, 0, 72, 127
1, 146639, Control_c, 0, 64, 88
1, 146654, Control_c, 0, 64, 123
1, 146657, Note_on_c, 0, 67, 51
1, 146665, Note_off_c, 0, 60, 58
1, 146669, Control_c, 0, 64, 127
1, 146672, Note_on_c, 0, 58, 49
1, 146689, Note_off_c, 0, 51, 62
1, 146701, Note_off_c, 0, 58, 63
1, 146739, Note_off_c, 0, 67, 60
1, 146743, Note_on_c, 0, 61, 53
1, 146769, Note_off_c, 0, 75, 54
1, 146848, Note_off_c, 0, 61, 57
1, 146849, Note_on_c, 0, 67, 49
1, 146968, Note_on_c, 0, 39, 49
1, 146989, Control_c, 0, 64, 73
1, 147004, Control_c, 0, 64, 39
1, 147012, Note_on_c, 0, 75, 68
1, 147018, Control_c, 0, 64, 0
1, 147062, Control_c, 0, 64, 44
1, 147077, Control_c, 0, 64, 62
1, 147080, Note_off_c, 0, 39, 63
1, 147092, Control_c, 0, 64, 69
1, 147101, Poly_aftertouch_c, 0, 72, 0
1, 147107, Control_c, 0, 64, 77
1, 147122, Control_c, 0, 64, 86
1, 147136, Control_c, 0, 64, 95
1, 147151, Control_c, 0, 64, 98
1, 147184, Note_off_c, 0, 70, 44
1, 147210, Control_c, 0, 64, 99
1, 147248, Note_on_c, 0, 65, 53
1, 147253, Note_on_c, 0, 51, 48
1, 147255, Control_c, 0, 64, 98
1, 147270, Control_c, 0, 64, 97
1, 147284, Control_c, 0, 64, 96
1, 147299, Control_c, 0, 64, 95
1, 147303, Note_off_c, 0, 65, 55
1, 147314, Control_c, 0, 64, 94
1, 147329, Control_c, 0, 64, 92
1, 147344, Control_c, 0, 64, 90
1, 147359, Control_c, 0, 64, 88
1, 147374, Control_c, 0, 64, 86
1, 147389, Control_c, 0, 64, 85
1, 147403, Control_c, 0, 64, 83
1, 147418, Control_c, 0, 64, 81
1, 147433, Control_c, 0, 64, 79
1, 147437, Note_on_c, 0, 58, 45
1, 147448, Control_c, 0, 64, 78
1, 147453, Note_on_c, 0, 73, 64
1, 147462, Control_c, 0, 64, 77
1, 147467, Note_on_c, 0, 65, 34
1, 147478, Note_off_c, 0, 75, 62
1, 147500, Note_off_c, 0, 51, 29
1, 147508, Control_c, 0, 64, 77
1, 147523, Control_c, 0, 64, 76
1, 147526, Note_off_c, 0, 67, 36
1, 147538, Control_c, 0, 64, 74
1, 147552, Control_c, 0, 64, 73
1, 147567, Control_c, 0, 64, 72
1, 147582, Control_c, 0, 64, 72
1, 147597, Control_c, 0, 64, 71
1, 147624, Note_off_c, 0, 73, 65
1, 147633, Control_c, 0, 64, 71
1, 147649, Note_off_c, 0, 58, 62
1, 147652, Note_on_c, 0, 72, 60
1, 147664, Control_c, 0, 64, 70
1, 147670, Note_on_c, 0, 63, 45
1, 147678, Note_on_c, 0, 67, 44
1, 147679, Control_c, 0, 64, 70
1, 147681, Note_off_c, 0, 65, 54
1, 147693, Control_c, 0, 64, 69
1, 147708, Control_c, 0, 64, 68
1, 147723, Control_c, 0, 64, 68
1, 147738, Control_c, 0, 64, 67
1, 147805, Note_off_c, 0, 67, 60
1, 147809, Note_on_c, 0, 70, 64
1, 147823, Note_on_c, 0, 65, 40
1, 147825, Note_on_c, 0, 61, 49
1, 147826, Note_off_c, 0, 63, 53
1, 147827, Control_c, 0, 64, 67
1, 147830, Note_off_c, 0, 72, 64
1, 147943, Note_off_c, 0, 61, 59
1, 147958, Note_on_c, 0, 63, 51
1, 147960, Control_c, 0, 64, 66
1, 147961, Note_off_c, 0, 70, 63
1, 147964, Note_on_c, 0, 72, 65
1, 147982, Note_on_c, 0, 67, 49
1, 147992, Note_off_c, 0, 65, 37
1, 148064, Control_c, 0, 64, 66
1, 148141, Note_off_c, 0, 63, 50
1, 148167, Control_c, 0, 64, 66
1, 148178, Note_on_c, 0, 61, 38
1, 148185, Note_off_c, 0, 67, 37
1, 148188, Note_on_c, 0, 56, 29
1, 148226, Control_c, 0, 64, 64
1, 148229, Note_on_c, 0, 65, 33
1, 148241, Control_c, 0, 64, 55
1, 148245, Note_on_c, 0, 68, 51
1, 148256, Control_c, 0, 64, 0
1, 148302, Note_off_c, 0, 72, 62
1, 148331, Control_c, 0, 64, 40
1, 148346, Control_c, 0, 64, 61
1, 148369, Control_c, 0, 64, 66
1, 148383, Control_c, 0, 64, 68
1, 148397, Control_c, 0, 64, 70
1, 148412, Control_c, 0, 64, 71
1, 148427, Control_c, 0, 64, 72
1, 148441, Note_off_c, 0, 61, 56
1, 148442, Control_c, 0, 64, 73
1, 148456, Control_c, 0, 64, 74
1, 148465, Note_off_c, 0, 65, 42
1, 148471, Control_c, 0, 64, 77
1, 148486, Control_c, 0, 64, 80
1, 148499, Note_on_c, 0, 63, 45
1, 148501, Control_c, 0, 64, 83
1, 148503, Note_on_c, 0, 60, 44
1, 148516, Control_c, 0, 64, 88
1, 148530, Control_c, 0, 64, 93
1, 148536, Note_off_c, 0, 60, 54
1, 148545, Control_c, 0, 64, 96
1, 148559, Note_off_c, 0, 56, 41
1, 148560, Control_c, 0, 64, 101
1, 148575, Control_c, 0, 64, 105
1, 148583, Note_off_c, 0, 63, 56
1, 148590, Control_c, 0, 64, 109
1, 148605, Control_c, 0, 64, 115
1, 148620, Control_c, 0, 64, 127
1, 148649, Note_on_c, 0, 60, 44
1, 148666, Note_on_c, 0, 63, 40
1, 148730, Note_off_c, 0, 60, 59
1, 148787, Note_off_c, 0, 63, 55
1, 148799, Note_on_c, 0, 62, 53
1, 148805, Note_on_c, 0, 59, 50
1, 148808, Note_on_c, 0, 53, 48
1, 148835, Note_off_c, 0, 62, 64
1, 148843, Note_off_c, 0, 59, 61
1, 148849, Note_off_c, 0, 53, 60
1, 148937, Note_on_c, 0, 59, 54
1, 148945, Note_on_c, 0, 62, 55
1, 148945, Note_on_c, 0, 53, 48
1, 148961, Note_off_c, 0, 59, 62
1, 148974, Note_off_c, 0, 53, 62
1, 149037, Note_off_c, 0, 62, 61
1, 149067, Note_on_c, 0, 61, 71
1, 149076, Note_on_c, 0, 56, 64
1, 149079, Note_on_c, 0, 52, 50
1, 149124, Note_off_c, 0, 56, 64
1, 149141, Note_off_c, 0, 52, 60
1, 149142, Note_off_c, 0, 61, 60
1, 149228, Note_on_c, 0, 61, 72
1, 149240, Note_on_c, 0, 56, 66
1, 149240, Note_on_c, 0, 52, 67
1, 149250, Control_c, 0, 64, 98
1, 149264, Control_c, 0, 64, 70
1, 149279, Control_c, 0, 64, 44
1, 149294, Control_c, 0, 64, 26
1, 149309, Control_c, 0, 64, 28
1, 149324, Control_c, 0, 64, 50
1, 149329, Note_off_c, 0, 52, 64
1, 149338, Control_c, 0, 64, 64
1, 149353, Control_c, 0, 64, 72
1, 149368, Control_c, 0, 64, 91
1, 149381, Note_on_c, 0, 60, 76
1, 149383, Note_off_c, 0, 61, 61
1, 149383, Control_c, 0, 64, 127
1, 149391, Note_on_c, 0, 51, 77
1, 149397, Note_off_c, 0, 56, 62
1, 149437, Note_off_c, 0, 51, 61
1, 149440, Note_off_c, 0, 60, 62
1, 149514, Note_on_c, 0, 51, 86
1, 149521, Note_on_c, 0, 60, 79
1, 149568, Note_off_c, 0, 51, 64
1, 149651, Note_on_c, 0, 49, 76
1, 149653, Note_on_c, 0, 65, 81
1, 149674, Note_off_c, 0, 68, 62
1, 149696, Note_on_c, 0, 37, 39
1, 149701, Note_off_c, 0, 60, 57
1, 149716, Note_off_c, 0, 49, 61
1, 149733, Note_off_c, 0, 37, 53
1, 149787, Note_off_c, 0, 65, 61
1, 149794, Note_on_c, 0, 36, 75
1, 149794, Note_on_c, 0, 48, 77
1, 149797, Note_on_c, 0, 63, 91
1, 149831, Note_off_c, 0, 48, 65
1, 149839, Note_off_c, 0, 36, 61
1, 149896, Note_off_c, 0, 63, 59
1, 149945, Note_on_c, 0, 46, 81
1, 149945, Note_on_c, 0, 70, 83
1, 149952, Note_on_c, 0, 34, 71
1, 149954, Note_on_c, 0, 67, 73
1, 149955, Note_on_c, 0, 61, 79
1, 149980, Note_off_c, 0, 46, 63
1, 149985, Note_off_c, 0, 67, 65
1, 149995, Note_off_c, 0, 61, 54
1, 149997, Note_off_c, 0, 34, 63
1, 150021, Note_off_c, 0, 70, 62
1, 150185, Note_on_c, 0, 44, 68
1, 150190, Note_on_c, 0, 32, 58
1, 150236, Control_c, 0, 64, 89
1, 150250, Control_c, 0, 64, 53
1, 150257, Note_on_c, 0, 72, 72
1, 150259, Note_on_c, 0, 70, 77
1, 150259, Note_on_c, 0, 60, 77
1, 150265, Control_c, 0, 64, 0
1, 150340, Control_c, 0, 64, 63
1, 150354, Control_c, 0, 64, 87
1, 150366, Note_off_c, 0, 72, 64
1, 150369, Control_c, 0, 64, 127
1, 150383, Note_off_c, 0, 60, 63
1, 150414, Note_off_c, 0, 32, 61
1, 150433, Note_off_c, 0, 70, 65
1, 150451, Note_off_c, 0, 44, 63
1, 150516, Note_on_c, 0, 63, 78
1, 150568, Note_off_c, 0, 63, 59
1, 150671, Note_on_c, 0, 51, 56
1, 150680, Note_on_c, 0, 56, 59
1, 150698, Note_on_c, 0, 60, 52
1, 150702, Note_on_c, 0, 59, 48
1, 150725, Note_on_c, 0, 75, 89
1, 150736, Note_on_c, 0, 63, 74
1, 150737, Note_off_c, 0, 59, 60
1, 150744, Note_on_c, 0, 72, 69
1, 150818, Note_off_c, 0, 63, 62
1, 150853, Note_on_c, 0, 70, 79
1, 150873, Note_off_c, 0, 72, 63
1, 150893, Note_off_c, 0, 75, 61
1, 150915, Note_off_c, 0, 70, 64
1, 150990, Note_on_c, 0, 63, 74
1, 151005, Note_on_c, 0, 80, 92
1, 151023, Note_off_c, 0, 63, 67
1, 151025, Note_off_c, 0, 51, 63
1, 151030, Note_off_c, 0, 60, 64
1, 151045, Note_on_c, 0, 81, 38
1, 151048, Note_off_c, 0, 56, 64
1, 151070, Note_off_c, 0, 81, 56
1, 151130, Note_on_c, 0, 68, 81
1, 151185, Note_off_c, 0, 80, 58
1, 151198, Note_on_c, 0, 44, 60
1, 151205, Note_off_c, 0, 68, 60
1, 151236, Note_on_c, 0, 52, 65
1, 151310, Note_on_c, 0, 79, 87
1, 151315, Note_on_c, 0, 58, 67
1, 151325, Control_c, 0, 64, 75
1, 151336, Note_on_c, 0, 76, 56
1, 151340, Control_c, 0, 64, 0
1, 151342, Note_on_c, 0, 77, 66
1, 151361, Note_on_c, 0, 73, 49
1, 151407, Control_c, 0, 64, 48
1, 151415, Note_off_c, 0, 44, 64
1, 151422, Control_c, 0, 64, 66
1, 151436, Note_off_c, 0, 73, 49
1, 151437, Control_c, 0, 64, 77
1, 151441, Note_off_c, 0, 52, 65
1, 151452, Control_c, 0, 64, 97
1, 151467, Control_c, 0, 64, 127
1, 151471, Note_off_c, 0, 58, 63
1, 151486, Note_off_c, 0, 77, 57
1, 151489, Note_off_c, 0, 76, 59
1, 151500, Note_on_c, 0, 72, 69
1, 151530, Note_off_c, 0, 79, 65
1, 151613, Note_off_c, 0, 72, 60
1, 151619, Note_on_c, 0, 61, 71
1, 151619, Note_on_c, 0, 73, 79
1, 151627, Note_on_c, 0, 70, 69
1, 151638, Note_on_c, 0, 58, 43
1, 151681, Note_off_c, 0, 58, 62
1, 151700, Note_off_c, 0, 61, 61
1, 151707, Note_off_c, 0, 70, 61
1, 151725, Note_off_c, 0, 73, 57
1, 151736, Note_on_c, 0, 72, 70
1, 151750, Note_on_c, 0, 68, 73
1, 151829, Note_off_c, 0, 68, 61
1, 151866, Note_on_c, 0, 64, 49
1, 151885, Note_on_c, 0, 55, 51
1, 151890, Note_on_c, 0, 58, 69
1, 151890, Note_on_c, 0, 61, 61
1, 151897, Note_off_c, 0, 64, 64
1, 151901, Note_on_c, 0, 70, 76
1, 151902, Note_on_c, 0, 76, 83
1, 151907, Note_on_c, 0, 67, 69
1, 151917, Note_off_c, 0, 55, 65
1, 151919, Note_off_c, 0, 61, 64
1, 151925, Note_off_c, 0, 58, 66
1, 151938, Note_off_c, 0, 72, 64
1, 152005, Note_off_c, 0, 67, 63
1, 152038, Note_on_c, 0, 73, 71
1, 152042, Note_off_c, 0, 70, 63
1, 152093, Note_off_c, 0, 73, 63
1, 152170, Control_c, 0, 64, 67
1, 152172, Note_on_c, 0, 32, 64
1, 152174, Note_on_c, 0, 44, 64
1, 152185, Control_c, 0, 64, 0
1, 152214, Note_on_c, 0, 63, 63
1, 152215, Note_on_c, 0, 73, 74
1, 152244, Control_c, 0, 64, 56
1, 152258, Control_c, 0, 64, 71
1, 152266, Note_off_c, 0, 32, 62
1, 152273, Control_c, 0, 64, 89
1, 152280, Note_off_c, 0, 63, 63
1, 152288, Control_c, 0, 64, 127
1, 152295, Note_off_c, 0, 44, 64
1, 152338, Note_on_c, 0, 72, 64
1, 152361, Note_off_c, 0, 76, 61
1, 152389, Note_off_c, 0, 73, 63
1, 152398, Note_off_c, 0, 72, 66
1, 152483, Note_on_c, 0, 51, 65
1, 152489, Note_on_c, 0, 75, 88
1, 152492, Note_on_c, 0, 72, 85
1, 152497, Note_on_c, 0, 60, 63
1, 152509, Note_on_c, 0, 56, 57
1, 152561, Note_off_c, 0, 72, 60
1, 152618, Note_on_c, 0, 73, 82
1, 152623, Note_off_c, 0, 75, 62
1, 152663, Note_off_c, 0, 73, 65
1, 152708, Note_on_c, 0, 63, 72
1, 152741, Note_on_c, 0, 80, 89
1, 152743, Note_off_c, 0, 63, 66
1, 152750, Note_on_c, 0, 70, 77
1, 152750, Note_off_c, 0, 60, 64
1, 152753, Note_off_c, 0, 51, 64
1, 152760, Note_on_c, 0, 73, 64
1, 152766, Note_off_c, 0, 56, 64
1, 152774, Note_off_c, 0, 70, 69
1, 152790, Note_off_c, 0, 73, 66
1, 152867, Note_on_c, 0, 68, 73
1, 152899, Note_on_c, 0, 72, 37
1, 152928, Note_off_c, 0, 72, 53
1, 152939, Note_off_c, 0, 68, 61
1, 152948, Note_off_c, 0, 80, 61
1, 152996, Note_on_c, 0, 44, 62
1, 153008, Control_c, 0, 64, 73
1, 153011, Note_on_c, 0, 52, 61
1, 153017, Note_on_c, 0, 79, 82
1, 153020, Note_on_c, 0, 58, 62
1, 153022, Control_c, 0, 64, 0
1, 153026, Note_on_c, 0, 76, 71
1, 153041, Note_on_c, 0, 73, 64
1, 153071, Note_off_c, 0, 44, 64
1, 153081, Control_c, 0, 64, 60
1, 153086, Note_off_c, 0, 52, 65
1, 153097, Control_c, 0, 64, 74
1, 153112, Control_c, 0, 64, 109
1, 153124, Note_off_c, 0, 58, 62
1, 153127, Control_c, 0, 64, 127
1, 153160, Note_off_c, 0, 73, 63
1, 153167, Note_on_c, 0, 72, 70
1, 153170, Note_off_c, 0, 76, 62
1, 153190, Note_off_c, 0, 79, 65
1, 153257, Note_off_c, 0, 72, 64
1, 153291, Note_on_c, 0, 73, 82
1, 153309, Note_on_c, 0, 61, 66
1, 153310, Note_on_c, 0, 52, 51
1, 153315, Note_on_c, 0, 70, 66
1, 153315, Note_on_c, 0, 58, 57
1, 153344, Note_off_c, 0, 52, 66
1, 153376, Note_off_c, 0, 58, 59
1, 153386, Note_off_c, 0, 61, 60
1, 153393, Note_off_c, 0, 73, 55
1, 153413, Note_on_c, 0, 72, 64
1, 153416, Note_off_c, 0, 70, 54
1, 153427, Note_on_c, 0, 68, 59
1, 153473, Note_off_c, 0, 68, 56
1, 153583, Note_on_c, 0, 55, 52
1, 153586, Control_c, 0, 64, 69
1, 153589, Note_on_c, 0, 76, 74
1, 153603, Note_on_c, 0, 64, 54
1, 153603, Note_on_c, 0, 67, 50
1, 153608, Control_c, 0, 64, 0
1, 153610, Note_on_c, 0, 70, 52
1, 153614, Note_on_c, 0, 61, 57
1, 153615, Note_on_c, 0, 58, 61
1, 153628, Note_off_c, 0, 72, 64
1, 153667, Control_c, 0, 64, 60
1, 153672, Note_off_c, 0, 64, 64
1, 153680, Note_off_c, 0, 70, 63
1, 153682, Note_off_c, 0, 55, 64
1, 153682, Control_c, 0, 64, 69
1, 153693, Note_off_c, 0, 61, 63
1, 153697, Control_c, 0, 64, 81
1, 153701, Note_off_c, 0, 58, 64
1, 153711, Control_c, 0, 64, 103
1, 153718, Note_off_c, 0, 67, 61
1, 153726, Control_c, 0, 64, 127
1, 153752, Note_on_c, 0, 73, 75
1, 153790, Note_off_c, 0, 76, 63
1, 153836, Poly_aftertouch_c, 0, 70, 0
1, 153896, Note_on_c, 0, 44, 43
1, 153905, Control_c, 0, 64, 74
1, 153907, Note_off_c, 0, 73, 0
1, 153908, Note_on_c, 0, 32, 54
1, 153920, Note_on_c, 0, 73, 52
1, 153920, Control_c, 0, 64, 45
1, 153935, Control_c, 0, 64, 0
1, 153947, Note_on_c, 0, 63, 40
1, 153965, Control_c, 0, 64, 10
1, 153974, Note_off_c, 0, 63, 56
1, 153980, Control_c, 0, 64, 58
1, 153994, Control_c, 0, 64, 68
1, 153994, Note_off_c, 0, 32, 62
1, 154006, Note_off_c, 0, 73, 65
1, 154009, Control_c, 0, 64, 78
1, 154018, Note_off_c, 0, 44, 63
1, 154024, Control_c, 0, 64, 113
1, 154024, Poly_aftertouch_c, 0, 68, 0
1, 154039, Control_c, 0, 64, 127
1, 154132, Note_on_c, 0, 68, 46
1, 154137, Note_on_c, 0, 70, 64
1, 154160, Note_off_c, 0, 68, 58
1, 154166, Note_off_c, 0, 70, 67
1, 154210, Poly_aftertouch_c, 0, 73, 0
1, 154248, Note_on_c, 0, 61, 69
1, 154269, Note_on_c, 0, 72, 63
1, 154273, Note_on_c, 0, 73, 71
1, 154296, Note_on_c, 0, 77, 65
1, 154306, Note_off_c, 0, 61, 62
1, 154310, Poly_aftertouch_c, 0, 49, 127
1, 154318, Note_off_c, 0, 72, 59
1, 154322, Note_off_c, 0, 73, 65
1, 154355, Poly_aftertouch_c, 0, 51, 127
1, 154357, Poly_aftertouch_c, 0, 49, 0
1, 154385, Poly_aftertouch_c, 0, 51, 0
1, 154404, Note_on_c, 0, 74, 61
1, 154441, Note_off_c, 0, 77, 62
1, 154457, Note_off_c, 0, 74, 62
1, 154481, Note_on_c, 0, 60, 21
1, 154501, Note_on_c, 0, 66, 68
1, 154511, Note_on_c, 0, 56, 73
1, 154521, Note_on_c, 0, 72, 83
1, 154528, Note_off_c, 0, 66, 65
1, 154537, Note_on_c, 0, 73, 73
1, 154541, Note_off_c, 0, 60, 64
1, 154543, Note_on_c, 0, 77, 78
1, 154554, Note_on_c, 0, 71, 44
1, 154564, Note_off_c, 0, 56, 63
1, 154565, Note_off_c, 0, 72, 64
1, 154580, Note_off_c, 0, 71, 61
1, 154601, Note_off_c, 0, 73, 63
1, 154606, Note_off_c, 0, 77, 61
1, 154644, Note_on_c, 0, 78, 81
1, 154648, Note_on_c, 0, 75, 94
1, 154725, Note_off_c, 0, 78, 63
1, 154784, Note_on_c, 0, 51, 64
1, 154792, Note_on_c, 0, 39, 62
1, 154799, Note_on_c, 0, 42, 66
1, 154810, Note_on_c, 0, 46, 61
1, 154810, Note_off_c, 0, 75, 58
1, 154831, Control_c, 0, 64, 93
1, 154845, Note_on_c, 0, 77, 93
1, 154846, Control_c, 0, 64, 59
1, 154852, Note_on_c, 0, 66, 82
1, 154861, Control_c, 0, 64, 0
1, 154905, Control_c, 0, 64, 54
1, 154909, Note_off_c, 0, 39, 63
1, 154920, Control_c, 0, 64, 70
1, 154924, Note_off_c, 0, 42, 64
1, 154930, Note_off_c, 0, 46, 64
1, 154935, Control_c, 0, 64, 91
1, 154943, Note_off_c, 0, 51, 64
1, 154949, Note_off_c, 0, 66, 61
1, 154949, Control_c, 0, 64, 127
1, 155007, Note_on_c, 0, 78, 77
1, 155021, Note_off_c, 0, 77, 58
1, 155025, Note_on_c, 0, 75, 65
1, 155060, Note_off_c, 0, 75, 60
1, 155079, Note_off_c, 0, 78, 63
1, 155146, Note_on_c, 0, 78, 89
1, 155156, Note_on_c, 0, 60, 74
1, 155159, Note_on_c, 0, 51, 60
1, 155161, Note_on_c, 0, 75, 85
1, 155168, Note_on_c, 0, 58, 60
1, 155171, Note_on_c, 0, 54, 44
1, 155187, Note_off_c, 0, 51, 64
1, 155191, Note_off_c, 0, 60, 65
1, 155203, Note_off_c, 0, 54, 53
1, 155204, Note_off_c, 0, 58, 64
1, 155279, Note_on_c, 0, 73, 81
1, 155323, Note_off_c, 0, 75, 61
1, 155326, Note_on_c, 0, 61, 20
1, 155333, Note_off_c, 0, 78, 62
1, 155382, Note_off_c, 0, 61, 35
1, 155405, Note_on_c, 0, 66, 70
1, 155415, Note_off_c, 0, 73, 61
1, 155426, Note_on_c, 0, 63, 62
1, 155431, Note_on_c, 0, 78, 93
1, 155437, Note_off_c, 0, 66, 66
1, 155437, Note_on_c, 0, 72, 88
1, 155439, Note_on_c, 0, 58, 60
1, 155443, Note_on_c, 0, 75, 83
1, 155455, Note_off_c, 0, 63, 66
1, 155467, Note_off_c, 0, 58, 66
1, 155476, Note_off_c, 0, 72, 65
1, 155527, Note_on_c, 0, 70, 74
1, 155556, Note_off_c, 0, 78, 57
1, 155597, Note_off_c, 0, 70, 62
1, 155627, Note_on_c, 0, 63, 78
1, 155696, Note_on_c, 0, 69, 77
1, 155734, Note_off_c, 0, 63, 61
1, 155775, Note_on_c, 0, 41, 73
1, 155803, Control_c, 0, 64, 69
1, 155818, Control_c, 0, 64, 0
1, 155834, Note_on_c, 0, 78, 89
1, 155846, Note_off_c, 0, 75, 61
1, 155884, Poly_aftertouch_c, 0, 43, 0
1, 155884, Control_c, 0, 64, 50
1, 155899, Control_c, 0, 64, 70
1, 155914, Note_off_c, 0, 41, 66
1, 155914, Control_c, 0, 64, 83
1, 155929, Control_c, 0, 64, 115
1, 155944, Control_c, 0, 64, 127
1, 155981, Note_off_c, 0, 69, 62
1, 156013, Poly_aftertouch_c, 0, 74, 127
1, 156063, Poly_aftertouch_c, 0, 74, 0
1, 156072, Note_on_c, 0, 52, 51
1, 156072, Note_on_c, 0, 53, 52
1, 156104, Note_off_c, 0, 78, 50
1, 156121, Note_off_c, 0, 52, 62
1, 156141, Note_off_c, 0, 53, 52
1, 156163, Note_on_c, 0, 60, 70
1, 156194, Note_on_c, 0, 77, 91
1, 156304, Note_on_c, 0, 63, 76
1, 156318, Note_on_c, 0, 72, 86
1, 156367, Note_off_c, 0, 63, 62
1, 156419, Poly_aftertouch_c, 0, 69, 127
1, 156454, Poly_aftertouch_c, 0, 69, 0
1, 156478, Control_c, 0, 64, 110
1, 156488, Note_on_c, 0, 66, 66
1, 156492, Control_c, 0, 64, 68
1, 156499, Note_on_c, 0, 75, 85
1, 156502, Note_on_c, 0, 53, 61
1, 156507, Control_c, 0, 64, 38
1, 156522, Control_c, 0, 64, 22
1, 156537, Control_c, 0, 64, 42
1, 156552, Control_c, 0, 64, 62
1, 156562, Note_off_c, 0, 60, 61
1, 156567, Control_c, 0, 64, 72
1, 156582, Control_c, 0, 64, 91
1, 156597, Note_off_c, 0, 66, 58
1, 156603, Control_c, 0, 64, 127
1, 156651, Note_off_c, 0, 77, 59
1, 156654, Note_off_c, 0, 72, 60
1, 156661, Note_on_c, 0, 73, 82
1, 156677, Note_on_c, 0, 65, 70
1, 156687, Note_off_c, 0, 75, 62
1, 156711, Note_off_c, 0, 73, 64
1, 156736, Note_off_c, 0, 65, 61
1, 156801, Note_on_c, 0, 61, 70
1, 156802, Note_on_c, 0, 58, 74
1, 156820, Note_on_c, 0, 70, 79
1, 156826, Control_c, 0, 64, 112
1, 156841, Control_c, 0, 64, 69
1, 156853, Note_off_c, 0, 53, 44
1, 156856, Control_c, 0, 64, 29
1, 156870, Control_c, 0, 64, 0
1, 156900, Control_c, 0, 64, 48
1, 156914, Control_c, 0, 64, 66
1, 156925, Note_on_c, 0, 54, 69
1, 156929, Control_c, 0, 64, 77
1, 156944, Control_c, 0, 64, 104
1, 156951, Note_on_c, 0, 63, 78
1, 156959, Control_c, 0, 64, 127
1, 156963, Note_off_c, 0, 58, 61
1, 156974, Note_off_c, 0, 61, 54
1, 156989, Note_off_c, 0, 54, 64
1, 157056, Note_on_c, 0, 53, 77
1, 157059, Note_off_c, 0, 63, 61
1, 157077, Note_on_c, 0, 61, 80
1, 157099, Note_off_c, 0, 53, 64
1, 157137, Note_off_c, 0, 61, 60
1, 157192, Note_on_c, 0, 51, 90
1, 157200, Note_on_c, 0, 66, 82
1, 157206, Note_on_c, 0, 58, 86
1, 157238, Note_on_c, 0, 39, 32
1, 157238, Note_off_c, 0, 51, 63
1, 157244, Note_off_c, 0, 58, 64
1, 157258, Note_off_c, 0, 70, 57
1, 157283, Note_off_c, 0, 39, 50
1, 157302, Note_off_c, 0, 66, 56
1, 157328, Note_on_c, 0, 65, 83
1, 157342, Note_on_c, 0, 49, 81
1, 157359, Note_on_c, 0, 37, 63
1, 157389, Note_off_c, 0, 37, 63
1, 157392, Note_off_c, 0, 49, 57
1, 157428, Note_off_c, 0, 65, 59
1, 157465, Note_on_c, 0, 72, 87
1, 157472, Note_on_c, 0, 36, 75
1, 157475, Note_on_c, 0, 48, 69
1, 157479, Note_on_c, 0, 63, 87
1, 157485, Note_on_c, 0, 69, 68
1, 157502, Note_off_c, 0, 48, 66
1, 157510, Note_off_c, 0, 36, 63
1, 157524, Note_off_c, 0, 63, 63
1, 157537, Note_off_c, 0, 72, 63
1, 157682, Note_on_c, 0, 34, 69
1, 157687, Note_on_c, 0, 46, 71
1, 157708, Control_c, 0, 64, 69
1, 157723, Control_c, 0, 64, 0
1, 157742, Note_on_c, 0, 73, 92
1, 157750, Note_on_c, 0, 61, 74
1, 157762, Note_on_c, 0, 70, 53
1, 157797, Control_c, 0, 64, 67
1, 157798, Note_off_c, 0, 69, 64
1, 157798, Note_off_c, 0, 70, 64
1, 157804, Note_off_c, 0, 61, 62
1, 157810, Note_off_c, 0, 34, 63
1, 157811, Control_c, 0, 64, 91
1, 157826, Control_c, 0, 64, 127
1, 157836, Note_off_c, 0, 46, 63
1, 157846, Note_off_c, 0, 73, 61
1, 157964, Note_on_c, 0, 65, 60
1, 157995, Note_off_c, 0, 65, 66
1, 158072, Note_on_c, 0, 53, 73
1, 158105, Note_on_c, 0, 73, 87
1, 158147, Note_on_c, 0, 70, 39
1, 158156, Note_on_c, 0, 61, 26
1, 158173, Note_off_c, 0, 70, 57
1, 158191, Note_off_c, 0, 61, 49
1, 158201, Note_off_c, 0, 73, 64
1, 158233, Note_on_c, 0, 72, 87
1, 158240, Note_on_c, 0, 75, 86
1, 158320, Note_on_c, 0, 65, 58
1, 158323, Note_on_c, 0, 61, 65
1, 158329, Note_on_c, 0, 58, 72
1, 158329, Note_off_c, 0, 53, 61
1, 158331, Note_off_c, 0, 72, 55
1, 158341, Note_off_c, 0, 65, 64
1, 158353, Note_on_c, 0, 70, 88
1, 158355, Note_on_c, 0, 73, 85
1, 158356, Note_off_c, 0, 61, 66
1, 158362, Note_off_c, 0, 75, 42
1, 158365, Note_off_c, 0, 58, 63
1, 158410, Note_off_c, 0, 70, 61
1, 158422, Note_off_c, 0, 73, 64
1, 158467, Note_on_c, 0, 75, 88
1, 158477, Note_on_c, 0, 72, 85
1, 158546, Poly_aftertouch_c, 0, 37, 127
1, 158572, Note_off_c, 0, 75, 61
1, 158593, Poly_aftertouch_c, 0, 37, 0
1, 158605, Control_c, 0, 64, 95
1, 158613, Note_on_c, 0, 37, 39
1, 158620, Control_c, 0, 64, 60
1, 158634, Note_on_c, 0, 49, 69
1, 158634, Control_c, 0, 64, 0
1, 158636, Note_on_c, 0, 77, 93
1, 158646, Note_on_c, 0, 73, 87
1, 158664, Control_c, 0, 64, 25
1, 158676, Note_off_c, 0, 72, 63
1, 158679, Control_c, 0, 64, 67
1, 158695, Control_c, 0, 64, 92
1, 158704, Note_off_c, 0, 37, 59
1, 158709, Control_c, 0, 64, 127
1, 158722, Note_off_c, 0, 49, 63
1, 158770, Note_off_c, 0, 73, 62
1, 158802, Note_on_c, 0, 72, 75
1, 158863, Note_off_c, 0, 72, 63
1, 158865, Note_off_c, 0, 77, 60
1, 158928, Note_on_c, 0, 77, 86
1, 158931, Note_on_c, 0, 53, 69
1, 158934, Note_on_c, 0, 61, 80
1, 158938, Note_on_c, 0, 73, 80
1, 158953, Note_on_c, 0, 70, 74
1, 158959, Note_on_c, 0, 56, 47
1, 158988, Note_off_c, 0, 56, 55
1, 158993, Note_off_c, 0, 53, 61
1, 159003, Note_off_c, 0, 61, 59
1, 159036, Note_off_c, 0, 70, 62
1, 159062, Note_on_c, 0, 68, 80
1, 159107, Note_off_c, 0, 73, 38
1, 159117, Note_off_c, 0, 77, 59
1, 159132, Note_off_c, 0, 68, 60
1, 159194, Note_on_c, 0, 56, 71
1, 159196, Note_on_c, 0, 61, 62
1, 159200, Note_on_c, 0, 77, 95
1, 159206, Note_on_c, 0, 66, 87
1, 159223, Note_off_c, 0, 61, 64
1, 159238, Note_off_c, 0, 56, 64
1, 159278, Note_off_c, 0, 66, 56
1, 159292, Note_off_c, 0, 77, 58
1, 159322, Note_on_c, 0, 65, 78
1, 159479, Note_on_c, 0, 51, 66
1, 159492, Note_on_c, 0, 39, 61
1, 159500, Note_on_c, 0, 77, 77
1, 159510, Note_on_c, 0, 76, 76
1, 159512, Note_on_c, 0, 66, 64
1, 159518, Control_c, 0, 64, 64
1, 159532, Control_c, 0, 64, 0
1, 159551, Note_off_c, 0, 76, 0
1, 159566, Note_on_c, 0, 76, 23
1, 159599, Note_off_c, 0, 39, 61
1, 159599, Control_c, 0, 64, 57
1, 159613, Note_off_c, 0, 76, 53
1, 159613, Note_off_c, 0, 77, 64
1, 159613, Control_c, 0, 64, 67
1, 159614, Note_off_c, 0, 51, 65
1, 159628, Control_c, 0, 64, 77
1, 159643, Control_c, 0, 64, 97
1, 159649, Note_off_c, 0, 65, 56
1, 159658, Control_c, 0, 64, 127
1, 159661, Note_on_c, 0, 73, 75
1, 159667, Note_off_c, 0, 66, 61
1, 159758, Note_off_c, 0, 73, 57
1, 159804, Note_on_c, 0, 75, 78
1, 159811, Note_on_c, 0, 54, 68
1, 159813, Note_on_c, 0, 58, 66
1, 159819, Note_on_c, 0, 72, 62
1, 159822, Note_on_c, 0, 66, 63
1, 159847, Note_off_c, 0, 58, 65
1, 159849, Note_off_c, 0, 54, 64
1, 159880, Note_off_c, 0, 66, 59
1, 159899, Note_off_c, 0, 72, 63
1, 159922, Note_off_c, 0, 75, 61
1, 159926, Note_on_c, 0, 70, 81
1, 160075, Note_on_c, 0, 54, 66
1, 160078, Note_on_c, 0, 42, 60
1, 160078, Note_on_c, 0, 63, 56
1, 160093, Note_on_c, 0, 73, 64
1, 160156, Note_off_c, 0, 63, 60
1, 160210, Note_on_c, 0, 72, 69
1, 160219, Note_off_c, 0, 70, 61
1, 160226, Note_off_c, 0, 42, 55
1, 160227, Note_on_c, 0, 64, 49
1, 160230, Note_off_c, 0, 54, 31
1, 160253, Note_off_c, 0, 73, 55
1, 160316, Poly_aftertouch_c, 0, 43, 127
1, 160362, Control_c, 0, 64, 76
1, 160377, Control_c, 0, 64, 30
1, 160389, Note_on_c, 0, 41, 61
1, 160389, Note_off_c, 0, 64, 60
1, 160392, Control_c, 0, 64, 0
1, 160393, Note_on_c, 0, 53, 59
1, 160435, Note_on_c, 0, 69, 63
1, 160449, Poly_aftertouch_c, 0, 43, 0
1, 160451, Note_on_c, 0, 65, 58
1, 160466, Note_off_c, 0, 72, 48
1, 160466, Control_c, 0, 64, 61
1, 160471, Note_off_c, 0, 41, 64
1, 160481, Control_c, 0, 64, 69
1, 160490, Note_off_c, 0, 53, 64
1, 160496, Control_c, 0, 64, 77
1, 160511, Control_c, 0, 64, 88
1, 160526, Control_c, 0, 64, 107
1, 160541, Control_c, 0, 64, 127
1, 160610, Note_off_c, 0, 65, 63
1, 160625, Note_on_c, 0, 66, 74
1, 160637, Note_off_c, 0, 69, 59
1, 160665, Note_on_c, 0, 54, 27
1, 160691, Note_off_c, 0, 66, 60
1, 160704, Note_off_c, 0, 54, 42
1, 160760, Note_on_c, 0, 72, 72
1, 160761, Note_on_c, 0, 69, 73
1, 160769, Note_on_c, 0, 65, 70
1, 160770, Note_on_c, 0, 53, 63
1, 160787, Note_off_c, 0, 72, 67
1, 160797, Note_off_c, 0, 69, 64
1, 160800, Note_off_c, 0, 65, 66
1, 160807, Note_off_c, 0, 53, 64
1, 160886, Note_on_c, 0, 52, 76
1, 160886, Note_on_c, 0, 64, 74
1, 160925, Note_off_c, 0, 64, 61
1, 160928, Note_off_c, 0, 52, 62
1, 161008, Note_on_c, 0, 77, 93
1, 161014, Note_on_c, 0, 69, 81
1, 161019, Note_on_c, 0, 65, 80
1, 161028, Note_on_c, 0, 63, 70
1, 161031, Note_on_c, 0, 51, 68
1, 161056, Note_off_c, 0, 63, 66
1, 161059, Note_off_c, 0, 69, 65
1, 161062, Note_off_c, 0, 51, 65
1, 161068, Note_off_c, 0, 65, 61
1, 161099, Note_off_c, 0, 77, 62
1, 161146, Note_on_c, 0, 60, 79
1, 161149, Note_on_c, 0, 48, 74
1, 161186, Note_off_c, 0, 48, 65
1, 161190, Note_off_c, 0, 60, 63
1, 161274, Control_c, 0, 64, 98
1, 161289, Control_c, 0, 64, 65
1, 161301, Note_on_c, 0, 76, 85
1, 161304, Control_c, 0, 64, 0
1, 161307, Note_on_c, 0, 70, 79
1, 161311, Note_on_c, 0, 55, 8
1, 161311, Note_on_c, 0, 64, 78
1, 161319, Note_on_c, 0, 49, 71
1, 161322, Note_on_c, 0, 61, 77
1, 161348, Note_off_c, 0, 61, 65
1, 161348, Control_c, 0, 64, 42
1, 161358, Note_off_c, 0, 55, 51
1, 161362, Note_off_c, 0, 49, 62
1, 161363, Control_c, 0, 64, 64
1, 161378, Control_c, 0, 64, 75
1, 161387, Note_off_c, 0, 76, 65
1, 161392, Note_off_c, 0, 70, 63
1, 161393, Control_c, 0, 64, 127
1, 161417, Note_off_c, 0, 64, 61
1, 161452, Note_on_c, 0, 58, 84
1, 161459, Note_on_c, 0, 46, 69
1, 161494, Note_off_c, 0, 46, 64
1, 161499, Note_off_c, 0, 58, 61
1, 161573, Note_on_c, 0, 55, 80
1, 161576, Note_on_c, 0, 70, 88
1, 161581, Note_on_c, 0, 58, 92
1, 161591, Note_on_c, 0, 43, 60
1, 161599, Note_on_c, 0, 45, 44
1, 161599, Note_off_c, 0, 55, 69
1, 161605, Note_on_c, 0, 64, 24
1, 161622, Note_off_c, 0, 43, 62
1, 161624, Note_off_c, 0, 58, 63
1, 161630, Note_off_c, 0, 45, 50
1, 161638, Note_off_c, 0, 64, 52
1, 161692, Note_on_c, 0, 54, 83
1, 161695, Note_on_c, 0, 42, 79
1, 161713, Note_on_c, 0, 57, 82
1, 161722, Note_off_c, 0, 54, 66
1, 161724, Note_off_c, 0, 42, 65
1, 161726, Note_off_c, 0, 70, 39
1, 161761, Note_off_c, 0, 57, 59
1, 161765, Note_on_c, 0, 64, 60
1, 161819, Note_on_c, 0, 73, 93
1, 161825, Note_on_c, 0, 49, 88
1, 161846, Note_on_c, 0, 37, 71
1, 161860, Note_off_c, 0, 49, 68
1, 161876, Note_off_c, 0, 73, 69
1, 161878, Note_off_c, 0, 37, 64
1, 161938, Note_on_c, 0, 66, 40
1, 161960, Note_on_c, 0, 42, 85
1, 161967, Note_on_c, 0, 30, 72
1, 161968, Note_on_c, 0, 58, 101
1, 161980, Note_off_c, 0, 64, 21
1, 162002, Note_off_c, 0, 66, 58
1, 162007, Note_off_c, 0, 30, 59
1, 162016, Note_off_c, 0, 42, 57
1, 162051, Note_off_c, 0, 58, 61
1, 162127, Control_c, 0, 64, 66
1, 162132, Note_on_c, 0, 29, 77
1, 162132, Note_on_c, 0, 41, 84
1, 162141, Control_c, 0, 64, 0
1, 162169, Note_on_c, 0, 60, 88
1, 162171, Note_on_c, 0, 69, 90
1, 162176, Note_on_c, 0, 65, 85
1, 162189, Note_off_c, 0, 29, 63
1, 162201, Note_off_c, 0, 41, 67
1, 162201, Note_off_c, 0, 60, 69
1, 162201, Control_c, 0, 64, 56
1, 162215, Note_off_c, 0, 65, 65
1, 162216, Control_c, 0, 64, 84
1, 162222, Note_off_c, 0, 69, 68
1, 162231, Control_c, 0, 64, 127
1, 162359, Note_on_c, 0, 66, 76
1, 162377, Note_on_c, 0, 54, 53
1, 162396, Note_off_c, 0, 66, 56
1, 162407, Note_off_c, 0, 54, 65
1, 162465, Note_on_c, 0, 84, 95
1, 162467, Note_on_c, 0, 83, 77
1, 162473, Note_on_c, 0, 80, 52
1, 162474, Note_on_c, 0, 71, 64
1, 162478, Note_on_c, 0, 72, 65
1, 162480, Note_on_c, 0, 81, 61
1, 162486, Note_on_c, 0, 65, 71
1, 162489, Note_on_c, 0, 79, 54
1, 162490, Note_off_c, 0, 71, 66
1, 162496, Note_off_c, 0, 72, 66
1, 162498, Note_on_c, 0, 53, 55
1, 162500, Note_off_c, 0, 84, 66
1, 162504, Note_off_c, 0, 80, 66
1, 162506, Note_off_c, 0, 81, 66
1, 162507, Note_off_c, 0, 83, 60
1, 162508, Note_off_c, 0, 65, 70
1, 162509, Note_off_c, 0, 79, 62
1, 162523, Note_off_c, 0, 53, 61
1, 162610, Note_on_c, 0, 64, 62
1, 162611, Note_on_c, 0, 52, 61
1, 162614, Note_on_c, 0, 50, 65
1, 162643, Note_off_c, 0, 50, 65
1, 162647, Note_on_c, 0, 62, 9
1, 162651, Note_off_c, 0, 52, 66
1, 162659, Note_off_c, 0, 64, 61
1, 162678, Note_off_c, 0, 62, 0
1, 162703, Poly_aftertouch_c, 0, 62, 0
1, 162726, Poly_aftertouch_c, 0, 59, 127
1, 162729, Note_on_c, 0, 89, 95
1, 162730, Note_on_c, 0, 81, 94
1, 162731, Note_on_c, 0, 77, 102
1, 162749, Note_on_c, 0, 63, 88
1, 162761, Note_on_c, 0, 51, 74
1, 162763, Note_off_c, 0, 77, 68
1, 162768, Note_off_c, 0, 81, 70
1, 162772, Note_off_c, 0, 89, 66
1, 162774, Poly_aftertouch_c, 0, 59, 0
1, 162796, Note_off_c, 0, 51, 66
1, 162800, Note_off_c, 0, 63, 61
1, 162872, Note_on_c, 0, 48, 79
1, 162874, Note_on_c, 0, 60, 78
1, 162925, Note_off_c, 0, 60, 64
1, 162928, Note_off_c, 0, 48, 64
1, 162979, Note_on_c, 0, 55, 36
1, 162990, Note_on_c, 0, 53, 22
1, 163024, Control_c, 0, 64, 70
1, 163029, Note_on_c, 0, 88, 90
1, 163036, Note_on_c, 0, 76, 96
1, 163038, Note_on_c, 0, 82, 99
1, 163038, Control_c, 0, 64, 19
1, 163039, Note_on_c, 0, 49, 75
1, 163042, Note_on_c, 0, 61, 82
1, 163053, Control_c, 0, 64, 14
1, 163068, Control_c, 0, 64, 56
1, 163068, Note_off_c, 0, 53, 40
1, 163076, Note_off_c, 0, 61, 60
1, 163083, Control_c, 0, 64, 71
1, 163086, Note_off_c, 0, 55, 62
1, 163092, Note_off_c, 0, 49, 62
1, 163098, Control_c, 0, 64, 123
1, 163102, Note_off_c, 0, 88, 66
1, 163112, Control_c, 0, 64, 127
1, 163116, Note_off_c, 0, 82, 66
1, 163120, Note_off_c, 0, 76, 64
1, 163177, Note_on_c, 0, 58, 80
1, 163184, Note_on_c, 0, 46, 76
1, 163214, Note_off_c, 0, 46, 66
1, 163216, Note_off_c, 0, 58, 60
1, 163289, Note_on_c, 0, 70, 99
1, 163292, Note_on_c, 0, 82, 88
1, 163302, Note_on_c, 0, 55, 84
1, 163309, Note_on_c, 0, 76, 48
1, 163312, Note_on_c, 0, 43, 62
1, 163318, Note_on_c, 0, 45, 59
1, 163336, Note_off_c, 0, 55, 68
1, 163346, Note_off_c, 0, 70, 63
1, 163349, Note_off_c, 0, 43, 65
1, 163354, Note_off_c, 0, 45, 62
1, 163422, Note_on_c, 0, 54, 87
1, 163425, Note_on_c, 0, 42, 73
1, 163431, Note_on_c, 0, 69, 86
1, 163440, Note_off_c, 0, 76, 37
1, 163451, Note_off_c, 0, 54, 67
1, 163456, Note_off_c, 0, 42, 64
1, 163458, Note_off_c, 0, 82, 62
1, 163501, Note_off_c, 0, 69, 54
1, 163515, Note_on_c, 0, 76, 70
1, 163549, Note_on_c, 0, 49, 97
1, 163559, Note_on_c, 0, 37, 81
1, 163560, Note_on_c, 0, 85, 103
1, 163585, Note_off_c, 0, 49, 63
1, 163588, Note_off_c, 0, 37, 63
1, 163616, Note_off_c, 0, 76, 58
1, 163697, Note_on_c, 0, 42, 95
1, 163707, Note_on_c, 0, 70, 103
1, 163709, Note_on_c, 0, 30, 79
1, 163712, Note_on_c, 0, 80, 26
1, 163730, Note_off_c, 0, 85, 64
1, 163730, Note_on_c, 0, 76, 23
1, 163734, Note_off_c, 0, 70, 69
1, 163745, Note_off_c, 0, 42, 64
1, 163747, Note_off_c, 0, 30, 64
1, 163750, Note_off_c, 0, 80, 52
1, 163770, Note_off_c, 0, 76, 53
1, 163845, Note_on_c, 0, 30, 38
1, 163852, Note_on_c, 0, 34, 20
1, 163887, Note_off_c, 0, 30, 54
1, 163898, Note_off_c, 0, 34, 52
1, 163928, Note_on_c, 0, 28, 84
1, 163928, Note_on_c, 0, 40, 85
1, 163950, Control_c, 0, 64, 67
1, 163965, Control_c, 0, 64, 0
1, 163977, Note_on_c, 0, 73, 106
1, 163978, Note_on_c, 0, 85, 99
1, 163979, Note_on_c, 0, 82, 95
1, 163994, Control_c, 0, 64, 41
1, 164002, Note_on_c, 0, 75, 61
1, 164009, Control_c, 0, 64, 73
1, 164024, Control_c, 0, 64, 127
1, 164033, Note_off_c, 0, 28, 64
1, 164067, Poly_aftertouch_c, 0, 86, 127
1, 164067, Note_off_c, 0, 40, 61
1, 164101, Poly_aftertouch_c, 0, 86, 0
1, 164124, Note_off_c, 0, 73, 63
1, 164131, Note_off_c, 0, 75, 42
1, 164134, Note_off_c, 0, 85, 64
1, 164150, Control_c, 0, 64, 87
1, 164159, Note_off_c, 0, 82, 58
1, 164165, Note_on_c, 0, 41, 94
1, 164165, Control_c, 0, 64, 58
1, 164175, Note_on_c, 0, 29, 61
1, 164179, Control_c, 0, 64, 25
1, 164184, Note_on_c, 0, 84, 94
1, 164186, Note_on_c, 0, 72, 94
1, 164187, Note_on_c, 0, 81, 80
1, 164194, Control_c, 0, 64, 51
1, 164199, Note_off_c, 0, 41, 68
1, 164207, Note_off_c, 0, 29, 56
1, 164209, Control_c, 0, 64, 66
1, 164213, Note_on_c, 0, 80, 46
1, 164214, Note_off_c, 0, 80, 127
1, 164224, Control_c, 0, 64, 87
1, 164239, Control_c, 0, 64, 127
1, 164282, Note_off_c, 0, 72, 64
1, 164286, Note_off_c, 0, 84, 63
1, 164296, Note_off_c, 0, 81, 62
1, 164344, Control_c, 0, 64, 74
1, 164358, Note_on_c, 0, 66, 86
1, 164358, Control_c, 0, 64, 45
1, 164364, Note_on_c, 0, 84, 93
1, 164365, Note_on_c, 0, 81, 88
1, 164365, Note_on_c, 0, 72, 102
1, 164367, Note_on_c, 0, 54, 69
1, 164373, Control_c, 0, 64, 0
1, 164388, Control_c, 0, 64, 37
1, 164402, Control_c, 0, 64, 61
1, 164404, Note_off_c, 0, 54, 65
1, 164413, Note_off_c, 0, 72, 67
1, 164416, Note_off_c, 0, 66, 62
1, 164417, Control_c, 0, 64, 71
1, 164418, Note_off_c, 0, 84, 65
1, 164432, Control_c, 0, 64, 89
1, 164434, Note_off_c, 0, 81, 66
1, 164447, Control_c, 0, 64, 127
1, 164506, Note_on_c, 0, 53, 77
1, 164506, Note_on_c, 0, 65, 86
1, 164511, Note_on_c, 0, 85, 100
1, 164511, Note_on_c, 0, 73, 100
1, 164530, Note_on_c, 0, 82, 54
1, 164541, Note_off_c, 0, 65, 61
1, 164545, Note_off_c, 0, 73, 66
1, 164548, Note_off_c, 0, 53, 64
1, 164553, Note_off_c, 0, 82, 62
1, 164562, Note_off_c, 0, 85, 64
1, 164583, Poly_aftertouch_c, 0, 60, 127
1, 164620, Poly_aftertouch_c, 0, 60, 0
1, 164621, Note_on_c, 0, 87, 97
1, 164622, Note_on_c, 0, 75, 103
1, 164624, Note_on_c, 0, 63, 93
1, 164635, Note_on_c, 0, 51, 81
1, 164661, Note_off_c, 0, 51, 68
1, 164662, Note_off_c, 0, 75, 65
1, 164669, Note_off_c, 0, 63, 62
1, 164669, Note_off_c, 0, 87, 65
1, 164736, Note_on_c, 0, 61, 89
1, 164741, Note_on_c, 0, 89, 96
1, 164744, Note_on_c, 0, 77, 100
1, 164750, Note_on_c, 0, 49, 69
1, 164776, Note_off_c, 0, 49, 66
1, 164785, Note_off_c, 0, 77, 67
1, 164791, Note_off_c, 0, 89, 64
1, 164794, Note_off_c, 0, 61, 57
1, 164869, Control_c, 0, 64, 65
1, 164877, Note_on_c, 0, 60, 94
1, 164878, Note_on_c, 0, 48, 85
1, 164881, Note_on_c, 0, 90, 97
1, 164883, Control_c, 0, 64, 0
1, 164884, Note_on_c, 0, 78, 113
1, 164884, Note_on_c, 0, 87, 104
1, 164918, Note_off_c, 0, 60, 67
1, 164923, Note_off_c, 0, 78, 66
1, 164928, Control_c, 0, 64, 64
1, 164931, Note_off_c, 0, 90, 63
1, 164933, Note_off_c, 0, 48, 65
1, 164942, Note_off_c, 0, 87, 64
1, 164942, Control_c, 0, 64, 89
1, 164957, Control_c, 0, 64, 127
1, 165033, Note_on_c, 0, 58, 93
1, 165038, Note_on_c, 0, 46, 83
1, 165128, Note_off_c, 0, 46, 60
1, 165144, Note_off_c, 0, 58, 62
1, 165195, Control_c, 0, 64, 82
1, 165197, Poly_aftertouch_c, 0, 52, 127
1, 165203, Note_on_c, 0, 78, 108
1, 165203, Note_on_c, 0, 90, 97
1, 165203, Note_on_c, 0, 87, 107
1, 165207, Note_on_c, 0, 57, 97
1, 165209, Note_on_c, 0, 45, 86
1, 165210, Control_c, 0, 64, 0
1, 165235, Note_on_c, 0, 48, 11
1, 165247, Note_off_c, 0, 57, 67
1, 165248, Poly_aftertouch_c, 0, 52, 0
1, 165254, Control_c, 0, 64, 49
1, 165261, Note_off_c, 0, 48, 46
1, 165269, Control_c, 0, 64, 73
1, 165270, Note_off_c, 0, 45, 64
1, 165284, Control_c, 0, 64, 127
1, 165379, Note_on_c, 0, 54, 99
1, 165390, Note_on_c, 0, 42, 83
1, 165421, Note_off_c, 0, 54, 64
1, 165427, Note_off_c, 0, 42, 63
1, 165522, Note_off_c, 0, 78, 55
1, 165527, Note_off_c, 0, 90, 41
1, 165539, Note_off_c, 0, 87, 55
1, 165587, Control_c, 0, 64, 68
1, 165599, Note_on_c, 0, 51, 104
1, 165599, Note_on_c, 0, 90, 103
1, 165602, Control_c, 0, 64, 0
1, 165605, Note_on_c, 0, 87, 91
1, 165607, Note_on_c, 0, 78, 105
1, 165610, Note_on_c, 0, 39, 86
1, 165617, Control_c, 0, 64, 41
1, 165632, Control_c, 0, 64, 67
1, 165644, Note_off_c, 0, 51, 65
1, 165647, Control_c, 0, 64, 127
1, 165677, Note_off_c, 0, 39, 60
1, 165706, Note_off_c, 0, 78, 64
1, 165718, Note_off_c, 0, 90, 64
1, 165737, Note_off_c, 0, 87, 64
1, 165844, Note_on_c, 0, 48, 102
1, 165846, Note_on_c, 0, 36, 87
1, 165894, Note_off_c, 0, 48, 66
1, 165915, Note_off_c, 0, 36, 63
1, 166166, Control_c, 0, 64, 85
1, 166174, Note_on_c, 0, 90, 103
1, 166175, Note_on_c, 0, 45, 92
1, 166176, Note_on_c, 0, 87, 104
1, 166178, Note_on_c, 0, 33, 86
1, 166179, Note_on_c, 0, 78, 103
1, 166180, Control_c, 0, 64, 34
1, 166195, Control_c, 0, 64, 0
1, 166240, Control_c, 0, 64, 40
1, 166255, Control_c, 0, 64, 82
1, 166270, Control_c, 0, 64, 127
1, 166289, Note_off_c, 0, 78, 66
1, 166289, Note_off_c, 0, 90, 65
1, 166306, Note_off_c, 0, 87, 69
1, 166520, Note_off_c, 0, 45, 55
1, 166538, Note_off_c, 0, 33, 49
1, 166651, Note_on_c, 0, 59, 90
1, 166655, Note_on_c, 0, 63, 88
1, 166657, Note_on_c, 0, 45, 96
1, 166659, Note_on_c, 0, 33, 87
1, 166660, Note_on_c, 0, 54, 94
1, 166700, Note_on_c, 0, 61, 43
1, 166780, Note_off_c, 0, 61, 0
1, 166816, Poly_aftertouch_c, 0, 61, 127
1, 166840, Note_off_c, 0, 33, 62
1, 166870, Note_off_c, 0, 45, 63
1, 166896, Note_off_c, 0, 54, 47
1, 166910, Note_off_c, 0, 63, 51
1, 166967, Poly_aftertouch_c, 0, 61, 0
1, 166976, Note_off_c, 0, 59, 56
1, 166997, Note_on_c, 0, 63, 95
1, 167000, Note_on_c, 0, 54, 103
1, 167001, Note_on_c, 0, 58, 91
1, 167004, Control_c, 0, 64, 69
1, 167011, Note_on_c, 0, 46, 97
1, 167018, Note_on_c, 0, 34, 79
1, 167019, Control_c, 0, 64, 0
1, 167086, Control_c, 0, 64, 46
1, 167090, Poly_aftertouch_c, 0, 41, 127
1, 167101, Control_c, 0, 64, 67
1, 167116, Control_c, 0, 64, 90
1, 167130, Control_c, 0, 64, 127
1, 167165, Note_off_c, 0, 46, 63
1, 167168, Note_off_c, 0, 34, 61
1, 167192, Note_off_c, 0, 54, 61
1, 167202, Poly_aftertouch_c, 0, 41, 0
1, 167223, Note_off_c, 0, 58, 58
1, 167229, Note_off_c, 0, 63, 54
1, 167323, Control_c, 0, 64, 76
1, 167326, Note_on_c, 0, 63, 96
1, 167328, Note_on_c, 0, 54, 98
1, 167333, Note_on_c, 0, 58, 87
1, 167338, Control_c, 0, 64, 24
1, 167342, Note_on_c, 0, 46, 97
1, 167346, Note_on_c, 0, 34, 86
1, 167352, Control_c, 0, 64, 0
1, 167412, Control_c, 0, 64, 43
1, 167426, Control_c, 0, 64, 67
1, 167441, Control_c, 0, 64, 82
1, 167451, Note_off_c, 0, 63, 62
1, 167456, Control_c, 0, 64, 127
1, 167469, Note_off_c, 0, 54, 62
1, 167488, Note_off_c, 0, 58, 64
1, 167510, Note_off_c, 0, 46, 62
1, 167514, Note_off_c, 0, 34, 61
1, 167677, Note_on_c, 0, 66, 91
1, 167678, Note_on_c, 0, 57, 91
1, 167680, Note_on_c, 0, 51, 100
1, 167686, Note_on_c, 0, 47, 95
1, 167692, Note_on_c, 0, 35, 83
1, 167695, Control_c, 0, 64, 68
1, 167709, Control_c, 0, 64, 0
1, 167783, Control_c, 0, 64, 59
1, 167798, Control_c, 0, 64, 77
1, 167799, Note_off_c, 0, 47, 67
1, 167813, Control_c, 0, 64, 127
1, 167814, Note_off_c, 0, 35, 62
1, 167829, Note_off_c, 0, 51, 62
1, 167874, Note_off_c, 0, 57, 60
1, 167909, Note_off_c, 0, 66, 51
1, 168100, Note_on_c, 0, 66, 90
1, 168103, Note_on_c, 0, 54, 93
1, 168103, Note_on_c, 0, 57, 89
1, 168121, Note_on_c, 0, 27, 80
1, 168121, Note_on_c, 0, 39, 81
1, 168131, Control_c, 0, 64, 72
1, 168146, Control_c, 0, 64, 0
1, 168169, Note_on_c, 0, 37, 10
1, 168170, Note_off_c, 0, 37, 127
1, 168205, Control_c, 0, 64, 51
1, 168220, Control_c, 0, 64, 73
1, 168234, Control_c, 0, 64, 127
1, 168240, Note_off_c, 0, 54, 64
1, 168255, Note_off_c, 0, 66, 61
1, 168262, Note_off_c, 0, 57, 66
1, 168359, Note_off_c, 0, 27, 58
1, 168413, Note_off_c, 0, 39, 59
1, 168681, Note_on_c, 0, 61, 93
1, 168686, Note_on_c, 0, 42, 85
1, 168688, Note_on_c, 0, 30, 75
1, 168717, Control_c, 0, 64, 79
1, 168732, Control_c, 0, 64, 40
1, 168747, Control_c, 0, 64, 0
1, 168865, Control_c, 0, 64, 56
1, 168880, Control_c, 0, 64, 64
1, 168895, Control_c, 0, 64, 68
1, 168910, Control_c, 0, 64, 73
1, 168924, Control_c, 0, 64, 80
1, 168939, Control_c, 0, 64, 94
1, 168954, Control_c, 0, 64, 127
1, 169052, Note_off_c, 0, 61, 59
1, 169097, Note_on_c, 0, 59, 78
1, 169102, Note_on_c, 0, 57, 77
1, 169105, Note_on_c, 0, 51, 62
1, 169120, Note_off_c, 0, 30, 61
1, 169128, Note_off_c, 0, 51, 61
1, 169137, Note_off_c, 0, 57, 66
1, 169143, Note_off_c, 0, 59, 64
1, 169171, Note_off_c, 0, 42, 63
1, 169342, Note_on_c, 0, 64, 76
1, 169479, Note_on_c, 0, 63, 85
1, 169489, Note_off_c, 0, 64, 59
1, 169489, Note_on_c, 0, 54, 68
1, 169544, Note_off_c, 0, 63, 64
1, 169595, Note_off_c, 0, 54, 59
1, 169604, Note_on_c, 0, 68, 92
1, 169617, Note_on_c, 0, 59, 71
1, 169650, Note_off_c, 0, 59, 67
1, 169682, Note_off_c, 0, 68, 59
1, 169692, Note_on_c, 0, 57, 61
1, 169715, Note_off_c, 0, 57, 61
1, 169721, Note_on_c, 0, 66, 79
1, 169733, Note_on_c, 0, 59, 69
1, 169737, Note_on_c, 0, 63, 79
1, 169863, Note_off_c, 0, 66, 55
1, 169929, Note_on_c, 0, 44, 71
1, 169933, Note_on_c, 0, 71, 82
1, 169943, Note_on_c, 0, 32, 58
1, 169955, Control_c, 0, 64, 83
1, 169969, Control_c, 0, 64, 0
1, 169987, Note_off_c, 0, 63, 60
1, 170059, Control_c, 0, 64, 55
1, 170081, Control_c, 0, 64, 64
1, 170088, Note_off_c, 0, 59, 44
1, 170090, Note_off_c, 0, 32, 63
1, 170096, Control_c, 0, 64, 69
1, 170110, Control_c, 0, 64, 74
1, 170126, Control_c, 0, 64, 82
1, 170136, Note_off_c, 0, 44, 63
1, 170136, Note_on_c, 0, 66, 69
1, 170141, Control_c, 0, 64, 101
1, 170142, Note_off_c, 0, 71, 59
1, 170151, Note_on_c, 0, 61, 72
1, 170156, Control_c, 0, 64, 127
1, 170201, Note_off_c, 0, 66, 62
1, 170240, Note_off_c, 0, 61, 55
1, 170258, Note_on_c, 0, 66, 73
1, 170326, Note_off_c, 0, 66, 63
1, 170366, Note_on_c, 0, 65, 75
1, 170369, Note_on_c, 0, 56, 65
1, 170369, Note_on_c, 0, 61, 70
1, 170408, Note_off_c, 0, 65, 62
1, 170415, Note_off_c, 0, 61, 60
1, 170479, Note_on_c, 0, 70, 90
1, 170485, Note_on_c, 0, 61, 75
1, 170504, Note_on_c, 0, 59, 69
1, 170514, Note_off_c, 0, 61, 65
1, 170528, Note_off_c, 0, 59, 66
1, 170550, Note_off_c, 0, 56, 25
1, 170568, Note_off_c, 0, 70, 57
1, 170576, Note_on_c, 0, 65, 76
1, 170584, Note_on_c, 0, 68, 72
1, 170589, Note_on_c, 0, 61, 71
1, 170705, Control_c, 0, 64, 96
1, 170705, Note_off_c, 0, 68, 59
1, 170711, Note_on_c, 0, 46, 80
1, 170719, Control_c, 0, 64, 64
1, 170720, Note_on_c, 0, 34, 79
1, 170723, Note_on_c, 0, 73, 85
1, 170734, Control_c, 0, 64, 0
1, 170750, Note_off_c, 0, 65, 57
1, 170764, Note_off_c, 0, 61, 59
1, 170793, Control_c, 0, 64, 14
1, 170805, Note_off_c, 0, 34, 63
1, 170808, Control_c, 0, 64, 59
1, 170831, Control_c, 0, 64, 66
1, 170837, Note_on_c, 0, 68, 65
1, 170840, Note_on_c, 0, 64, 75
1, 170841, Note_off_c, 0, 46, 63
1, 170841, Note_off_c, 0, 73, 63
1, 170846, Control_c, 0, 64, 71
1, 170860, Control_c, 0, 64, 76
1, 170864, Note_on_c, 0, 61, 32
1, 170875, Control_c, 0, 64, 81
1, 170883, Note_off_c, 0, 68, 60
1, 170890, Control_c, 0, 64, 87
1, 170897, Note_off_c, 0, 61, 47
1, 170905, Control_c, 0, 64, 95
1, 170920, Control_c, 0, 64, 113
1, 170934, Control_c, 0, 64, 127
1, 170939, Note_on_c, 0, 68, 82
1, 170949, Note_off_c, 0, 64, 36
1, 171029, Note_on_c, 0, 64, 81
1, 171039, Note_off_c, 0, 68, 59
1, 171039, Note_on_c, 0, 58, 77
1, 171052, Note_on_c, 0, 61, 33
1, 171076, Note_off_c, 0, 64, 65
1, 171083, Note_off_c, 0, 61, 54
1, 171122, Note_off_c, 0, 58, 63
1, 171134, Note_on_c, 0, 63, 80
1, 171141, Note_on_c, 0, 71, 90
1, 171158, Note_off_c, 0, 63, 69
1, 171180, Note_on_c, 0, 61, 10
1, 171181, Note_off_c, 0, 61, 127
1, 171234, Note_on_c, 0, 67, 86
1, 171247, Note_on_c, 0, 70, 69
1, 171248, Note_on_c, 0, 64, 56
1, 171251, Note_off_c, 0, 71, 56
1, 171279, Note_off_c, 0, 64, 64
1, 171308, Note_off_c, 0, 70, 61
1, 171354, Note_on_c, 0, 75, 93
1, 171355, Note_on_c, 0, 48, 93
1, 171358, Note_off_c, 0, 67, 63
1, 171359, Note_on_c, 0, 36, 84
1, 171364, Control_c, 0, 64, 81
1, 171378, Control_c, 0, 64, 28
1, 171393, Control_c, 0, 64, 0
1, 171436, Note_off_c, 0, 36, 63
1, 171438, Control_c, 0, 64, 62
1, 171443, Note_on_c, 0, 70, 84
1, 171452, Control_c, 0, 64, 75
1, 171458, Note_on_c, 0, 66, 83
1, 171461, Note_off_c, 0, 75, 62
1, 171463, Note_on_c, 0, 63, 69
1, 171464, Note_off_c, 0, 48, 66
1, 171468, Control_c, 0, 64, 99
1, 171477, Poly_aftertouch_c, 0, 43, 0
1, 171483, Control_c, 0, 64, 127
1, 171498, Note_off_c, 0, 63, 62
1, 171506, Note_off_c, 0, 70, 63
1, 171507, Poly_aftertouch_c, 0, 43, 0
1, 171554, Note_on_c, 0, 70, 83
1, 171585, Note_off_c, 0, 66, 60
1, 171587, Note_on_c, 0, 63, 42
1, 171610, Note_off_c, 0, 63, 60
1, 171633, Note_off_c, 0, 70, 64
1, 171658, Note_on_c, 0, 65, 85
1, 171659, Note_on_c, 0, 60, 68
1, 171665, Note_on_c, 0, 69, 66
1, 171677, Note_on_c, 0, 63, 51
1, 171692, Note_off_c, 0, 69, 66
1, 171703, Note_off_c, 0, 63, 57
1, 171710, Note_off_c, 0, 65, 65
1, 171757, Note_on_c, 0, 65, 80
1, 171767, Note_on_c, 0, 63, 82
1, 171780, Note_off_c, 0, 65, 67
1, 171794, Note_off_c, 0, 60, 64
1, 171794, Note_off_c, 0, 63, 69
1, 171796, Note_on_c, 0, 73, 82
1, 171844, Note_off_c, 0, 73, 65
1, 171888, Note_on_c, 0, 72, 94
1, 171922, Note_on_c, 0, 69, 62
1, 171942, Note_on_c, 0, 66, 29
1, 171945, Note_off_c, 0, 72, 64
1, 171988, Note_off_c, 0, 66, 46
1, 172011, Note_off_c, 0, 69, 64
1, 172053, Control_c, 0, 64, 94
1, 172056, Note_on_c, 0, 41, 96
1, 172058, Note_on_c, 0, 29, 87
1, 172068, Control_c, 0, 64, 56
1, 172075, Note_on_c, 0, 78, 100
1, 172083, Control_c, 0, 64, 0
1, 172113, Note_on_c, 0, 68, 41
1, 172140, Note_off_c, 0, 68, 52
1, 172141, Note_off_c, 0, 29, 62
1, 172142, Control_c, 0, 64, 51
1, 172157, Control_c, 0, 64, 65
1, 172166, Note_off_c, 0, 41, 67
1, 172172, Control_c, 0, 64, 73
1, 172187, Control_c, 0, 64, 90
1, 172197, Poly_aftertouch_c, 0, 36, 0
1, 172198, Note_on_c, 0, 75, 82
1, 172201, Control_c, 0, 64, 127
1, 172211, Note_off_c, 0, 78, 62
1, 172241, Note_off_c, 0, 75, 65
1, 172328, Note_on_c, 0, 82, 101
1, 172350, Note_on_c, 0, 73, 65
1, 172368, Note_off_c, 0, 73, 67
1, 172423, Note_on_c, 0, 77, 73
1, 172435, Note_off_c, 0, 82, 62
1, 172461, Note_off_c, 0, 77, 63
1, 172515, Note_on_c, 0, 77, 82
1, 172528, Note_on_c, 0, 85, 91
1, 172531, Note_on_c, 0, 72, 17
1, 172538, Note_off_c, 0, 77, 70
1, 172554, Note_on_c, 0, 75, 75
1, 172577, Note_off_c, 0, 72, 51
1, 172601, Note_on_c, 0, 80, 82
1, 172613, Note_off_c, 0, 85, 64
1, 172636, Note_off_c, 0, 75, 60
1, 172641, Note_off_c, 0, 80, 61
1, 172678, Note_on_c, 0, 65, 82
1, 172709, Note_on_c, 0, 89, 91
1, 172736, Note_off_c, 0, 65, 63
1, 172757, Note_off_c, 0, 89, 0
1, 172759, Note_on_c, 0, 84, 62
1, 172794, Poly_aftertouch_c, 0, 89, 127
1, 172808, Note_on_c, 0, 87, 71
1, 172854, Poly_aftertouch_c, 0, 89, 0
1, 172857, Note_off_c, 0, 84, 48
1, 172878, Note_on_c, 0, 90, 86
1, 172895, Note_off_c, 0, 87, 67
1, 172952, Note_on_c, 0, 87, 80
1, 172961, Note_on_c, 0, 89, 59
1, 172962, Note_on_c, 0, 81, 56
1, 172968, Note_on_c, 0, 84, 64
1, 172984, Note_off_c, 0, 90, 35
1, 172993, Note_off_c, 0, 84, 60
1, 173025, Note_on_c, 0, 91, 87
1, 173028, Note_off_c, 0, 81, 62
1, 173036, Note_off_c, 0, 87, 66
1, 173042, Note_on_c, 0, 72, 72
1, 173057, Note_off_c, 0, 89, 59
1, 173108, Note_off_c, 0, 91, 65
1, 173114, Note_on_c, 0, 87, 90
1, 173116, Note_off_c, 0, 72, 63
1, 173125, Note_on_c, 0, 84, 65
1, 173137, Note_on_c, 0, 89, 29
1, 173153, Note_on_c, 0, 81, 61
1, 173165, Note_off_c, 0, 84, 59
1, 173173, Note_off_c, 0, 89, 54
1, 173182, Note_off_c, 0, 81, 67
1, 173192, Note_on_c, 0, 90, 86
1, 173208, Note_off_c, 0, 87, 64
1, 173209, Note_on_c, 0, 65, 81
1, 173260, Note_off_c, 0, 65, 61
1, 173264, Note_on_c, 0, 87, 82
1, 173264, Note_off_c, 0, 90, 64
1, 173270, Note_on_c, 0, 84, 69
1, 173278, Note_on_c, 0, 89, 62
1, 173309, Note_on_c, 0, 81, 55
1, 173315, Note_off_c, 0, 84, 58
1, 173330, Note_off_c, 0, 89, 0
1, 173333, Note_off_c, 0, 81, 56
1, 173346, Note_on_c, 0, 91, 87
1, 173355, Note_off_c, 0, 87, 66
1, 173373, Note_on_c, 0, 72, 77
1, 173378, Poly_aftertouch_c, 0, 89, 0
1, 173384, Note_on_c, 0, 73, 39
1, 173415, Note_off_c, 0, 73, 46
1, 173421, Note_on_c, 0, 81, 72
1, 173423, Note_off_c, 0, 72, 62
1, 173427, Note_off_c, 0, 91, 64
1, 173432, Note_on_c, 0, 84, 76
1, 173433, Note_on_c, 0, 87, 89
1, 173452, Note_on_c, 0, 89, 44
1, 173475, Note_off_c, 0, 81, 66
1, 173480, Note_off_c, 0, 89, 54
1, 173507, Poly_aftertouch_c, 0, 74, 127
1, 173512, Note_on_c, 0, 90, 95
1, 173512, Note_on_c, 0, 65, 83
1, 173514, Note_off_c, 0, 84, 43
1, 173525, Note_off_c, 0, 87, 65
1, 173557, Note_off_c, 0, 65, 62
1, 173582, Note_on_c, 0, 87, 86
1, 173588, Note_on_c, 0, 84, 63
1, 173588, Note_off_c, 0, 90, 65
1, 173592, Note_on_c, 0, 81, 74
1, 173605, Note_on_c, 0, 89, 54
1, 173631, Note_off_c, 0, 89, 60
1, 173640, Note_off_c, 0, 81, 65
1, 173645, Note_off_c, 0, 84, 56
1, 173648, Poly_aftertouch_c, 0, 74, 0
1, 173664, Note_on_c, 0, 72, 82
1, 173669, Note_on_c, 0, 91, 90
1, 173687, Note_off_c, 0, 87, 66
1, 173729, Note_on_c, 0, 81, 82
1, 173741, Note_off_c, 0, 72, 63
1, 173751, Note_on_c, 0, 87, 92
1, 173757, Note_on_c, 0, 84, 65
1, 173759, Note_off_c, 0, 91, 65
1, 173766, Note_on_c, 0, 89, 60
1, 173793, Note_off_c, 0, 81, 65
1, 173794, Note_off_c, 0, 89, 64
1, 173806, Poly_aftertouch_c, 0, 74, 127
1, 173838, Note_on_c, 0, 65, 86
1, 173841, Note_on_c, 0, 90, 92
1, 173862, Note_off_c, 0, 87, 64
1, 173865, Note_off_c, 0, 84, 63
1, 173910, Note_off_c, 0, 65, 58
1, 173928, Note_on_c, 0, 87, 90
1, 173939, Note_off_c, 0, 90, 64
1, 173960, Note_on_c, 0, 81, 68
1, 173960, Note_on_c, 0, 89, 48
1, 173979, Poly_aftertouch_c, 0, 74, 0
1, 173989, Note_off_c, 0, 89, 53
1, 174037, Note_on_c, 0, 91, 91
1, 174037, Note_off_c, 0, 81, 57
1, 174046, Note_on_c, 0, 72, 78
1, 174053, Note_off_c, 0, 87, 65
1, 174102, Note_off_c, 0, 72, 64
1, 174113, Note_on_c, 0, 81, 67
1, 174129, Note_on_c, 0, 89, 79
1, 174186, Note_off_c, 0, 91, 53
1, 174226, Note_off_c, 0, 81, 55
1, 174262, Note_on_c, 0, 88, 94
1, 174265, Note_on_c, 0, 75, 88
1, 174277, Note_off_c, 0, 89, 65
1, 174309, Note_off_c, 0, 75, 65
1, 174315, Note_off_c, 0, 88, 69
1, 174446, Note_on_c, 0, 89, 98
1, 174508, Note_on_c, 0, 97, 12
1, 174544, Note_off_c, 0, 89, 62
1, 174557, Note_on_c, 0, 101, 103
1, 174569, Note_off_c, 0, 97, 37
1, 174664, Note_on_c, 0, 90, 90
1, 174679, Note_off_c, 0, 101, 66
1, 174749, Note_on_c, 0, 101, 84
1, 174749, Note_off_c, 0, 90, 62
1, 174823, Note_on_c, 0, 91, 85
1, 174823, Note_off_c, 0, 101, 62
1, 174890, Note_off_c, 0, 91, 60
1, 174904, Note_on_c, 0, 92, 88
1, 174959, Control_c, 0, 64, 113
1, 174974, Control_c, 0, 64, 106
1, 174986, Note_off_c, 0, 92, 62
1, 174989, Control_c, 0, 64, 101
1, 174992, Note_on_c, 0, 93, 89
1, 175004, Control_c, 0, 64, 97
1, 175018, Control_c, 0, 64, 95
1, 175033, Control_c, 0, 64, 94
1, 175048, Control_c, 0, 64, 93
1, 175052, Note_off_c, 0, 93, 67
1, 175075, Note_on_c, 0, 98, 80
1, 175078, Control_c, 0, 64, 93
1, 175092, Control_c, 0, 64, 92
1, 175107, Control_c, 0, 64, 91
1, 175122, Control_c, 0, 64, 89
1, 175132, Note_on_c, 0, 96, 83
1, 175137, Control_c, 0, 64, 88
1, 175152, Control_c, 0, 64, 86
1, 175166, Control_c, 0, 64, 85
1, 175171, Note_off_c, 0, 98, 65
1, 175181, Control_c, 0, 64, 84
1, 175207, Note_on_c, 0, 94, 80
1, 175210, Control_c, 0, 64, 84
1, 175236, Note_off_c, 0, 96, 66
1, 175255, Control_c, 0, 64, 83
1, 175270, Control_c, 0, 64, 82
1, 175272, Note_on_c, 0, 91, 82
1, 175284, Control_c, 0, 64, 80
1, 175299, Note_off_c, 0, 94, 63
1, 175299, Control_c, 0, 64, 79
1, 175322, Control_c, 0, 64, 79
1, 175335, Note_off_c, 0, 91, 65
1, 175337, Control_c, 0, 64, 78
1, 175357, Note_on_c, 0, 89, 77
1, 175415, Note_off_c, 0, 89, 49
1, 175424, Note_on_c, 0, 86, 77
1, 175488, Note_off_c, 0, 86, 62
1, 175518, Note_on_c, 0, 87, 74
1, 175544, Control_c, 0, 64, 78
1, 175574, Control_c, 0, 64, 77
1, 175579, Note_on_c, 0, 91, 78
1, 175582, Note_off_c, 0, 87, 63
1, 175603, Control_c, 0, 64, 77
1, 175618, Control_c, 0, 64, 76
1, 175648, Control_c, 0, 64, 76
1, 175650, Note_on_c, 0, 89, 76
1, 175673, Note_off_c, 0, 91, 63
1, 175678, Control_c, 0, 64, 75
1, 175692, Control_c, 0, 64, 74
1, 175707, Control_c, 0, 64, 74
1, 175710, Note_on_c, 0, 87, 78
1, 175722, Control_c, 0, 64, 73
1, 175737, Note_off_c, 0, 89, 63
1, 175737, Control_c, 0, 64, 73
1, 175752, Control_c, 0, 64, 72
1, 175782, Control_c, 0, 64, 72
1, 175787, Note_on_c, 0, 84, 74
1, 175791, Note_off_c, 0, 87, 64
1, 175811, Control_c, 0, 64, 71
1, 175813, Note_off_c, 0, 84, 66
1, 175826, Control_c, 0, 64, 71
1, 175840, Control_c, 0, 64, 70
1, 175854, Note_on_c, 0, 81, 66
1, 175885, Control_c, 0, 64, 70
1, 175909, Note_off_c, 0, 81, 59
1, 175914, Control_c, 0, 64, 69
1, 175928, Note_on_c, 0, 82, 71
1, 175929, Control_c, 0, 64, 69
1, 175959, Control_c, 0, 64, 68
1, 175993, Note_off_c, 0, 82, 65
1, 176000, Note_on_c, 0, 86, 73
1, 176047, Control_c, 0, 64, 68
1, 176073, Note_on_c, 0, 84, 76
1, 176086, Note_off_c, 0, 86, 61
1, 176114, Control_c, 0, 64, 67
1, 176130, Note_on_c, 0, 82, 71
1, 176156, Note_off_c, 0, 84, 62
1, 176208, Note_off_c, 0, 82, 64
1, 176210, Note_on_c, 0, 79, 75
1, 176250, Note_off_c, 0, 79, 63
1, 176288, Note_on_c, 0, 77, 70
1, 176322, Note_off_c, 0, 77, 58
1, 176352, Control_c, 0, 64, 68
1, 176360, Note_on_c, 0, 74, 71
1, 176426, Note_off_c, 0, 74, 61
1, 176444, Note_on_c, 0, 75, 69
1, 176507, Note_off_c, 0, 75, 62
1, 176515, Note_on_c, 0, 79, 69
1, 176589, Note_on_c, 0, 77, 69
1, 176590, Control_c, 0, 64, 67
1, 176601, Note_off_c, 0, 79, 61
1, 176656, Note_on_c, 0, 75, 62
1, 176670, Note_off_c, 0, 77, 59
1, 176734, Note_off_c, 0, 75, 62
1, 176736, Note_on_c, 0, 72, 68
1, 176777, Note_off_c, 0, 72, 63
1, 176833, Note_on_c, 0, 69, 64
1, 176842, Note_on_c, 0, 60, 53
1, 176894, Note_off_c, 0, 60, 58
1, 176909, Note_off_c, 0, 69, 58
1, 176926, Note_on_c, 0, 70, 66
1, 176932, Note_on_c, 0, 62, 53
1, 176997, Note_off_c, 0, 62, 59
1, 177008, Note_off_c, 0, 70, 62
1, 177023, Note_on_c, 0, 65, 58
1, 177025, Note_on_c, 0, 74, 63
1, 177063, Note_off_c, 0, 65, 63
1, 177095, Note_on_c, 0, 63, 58
1, 177099, Note_off_c, 0, 74, 61
1, 177100, Note_on_c, 0, 72, 69
1, 177135, Note_off_c, 0, 63, 63
1, 177168, Note_on_c, 0, 70, 64
1, 177175, Control_c, 0, 64, 67
1, 177186, Note_on_c, 0, 62, 59
1, 177186, Note_off_c, 0, 72, 58
1, 177220, Control_c, 0, 64, 66
1, 177224, Note_off_c, 0, 62, 62
1, 177252, Note_off_c, 0, 70, 62
1, 177259, Note_on_c, 0, 67, 65
1, 177263, Note_on_c, 0, 58, 61
1, 177293, Control_c, 0, 64, 66
1, 177299, Note_off_c, 0, 67, 60
1, 177322, Note_off_c, 0, 58, 59
1, 177334, Note_on_c, 0, 65, 61
1, 177364, Note_on_c, 0, 57, 46
1, 177368, Control_c, 0, 64, 65
1, 177409, Note_off_c, 0, 57, 64
1, 177412, Note_off_c, 0, 65, 62
1, 177415, Note_on_c, 0, 62, 66
1, 177433, Note_on_c, 0, 53, 58
1, 177467, Note_off_c, 0, 62, 59
1, 177497, Note_on_c, 0, 63, 66
1, 177502, Note_off_c, 0, 53, 59
1, 177527, Note_on_c, 0, 57, 36
1, 177579, Note_on_c, 0, 67, 63
1, 177581, Note_off_c, 0, 63, 62
1, 177581, Note_off_c, 0, 57, 58
1, 177597, Control_c, 0, 64, 65
1, 177621, Note_on_c, 0, 58, 53
1, 177678, Note_off_c, 0, 58, 61
1, 177681, Note_off_c, 0, 67, 59
1, 177685, Note_on_c, 0, 65, 59
1, 177687, Control_c, 0, 64, 64
1, 177698, Note_on_c, 0, 57, 58
1, 177746, Control_c, 0, 64, 64
1, 177770, Note_on_c, 0, 63, 58
1, 177770, Note_off_c, 0, 65, 58
1, 177791, Control_c, 0, 64, 63
1, 177794, Note_off_c, 0, 57, 62
1, 177824, Note_on_c, 0, 55, 45
1, 177868, Note_off_c, 0, 55, 60
1, 177869, Note_off_c, 0, 63, 60
1, 177880, Control_c, 0, 64, 63
1, 177889, Note_on_c, 0, 60, 55
1, 177898, Note_on_c, 0, 51, 50
1, 177960, Note_off_c, 0, 60, 62
1, 178002, Note_off_c, 0, 51, 48
1, 178018, Note_on_c, 0, 57, 50
1, 178028, Note_on_c, 0, 48, 38
1, 178141, Note_off_c, 0, 48, 56
1, 178149, Note_on_c, 0, 51, 51
1, 178156, Note_off_c, 0, 57, 57
1, 178168, Note_on_c, 0, 60, 53
1, 178264, Note_off_c, 0, 60, 63
1, 178289, Note_on_c, 0, 55, 51
1, 178386, Note_off_c, 0, 55, 62
1, 178429, Note_on_c, 0, 53, 44
1, 178501, Note_off_c, 0, 51, 63
1, 178554, Control_c, 0, 64, 63
1, 178558, Note_on_c, 0, 50, 39
1, 178629, Control_c, 0, 64, 64
1, 178643, Control_c, 0, 64, 64
1, 178662, Note_off_c, 0, 50, 57
1, 178674, Control_c, 0, 64, 65
1, 178688, Control_c, 0, 64, 65
1, 178691, Note_on_c, 0, 48, 51
1, 178733, Control_c, 0, 64, 66
1, 178754, Note_off_c, 0, 53, 54
1, 178778, Control_c, 0, 64, 66
1, 178779, Note_off_c, 0, 48, 60
1, 178808, Note_on_c, 0, 46, 39
1, 179014, Control_c, 0, 64, 67
1, 179029, Control_c, 0, 64, 66
1, 179035, Poly_aftertouch_c, 0, 41, 127
1, 179040, Note_on_c, 0, 62, 49
1, 179041, Note_on_c, 0, 57, 36
1, 179044, Control_c, 0, 64, 63
1, 179062, Note_off_c, 0, 46, 43
1, 179066, Control_c, 0, 64, 57
1, 179067, Note_on_c, 0, 53, 31
1, 179081, Control_c, 0, 64, 42
1, 179096, Control_c, 0, 64, 22
1, 179111, Control_c, 0, 64, 23
1, 179126, Control_c, 0, 64, 40
1, 179140, Control_c, 0, 64, 56
1, 179155, Control_c, 0, 64, 64
1, 179170, Control_c, 0, 64, 69
1, 179185, Control_c, 0, 64, 77
1, 179200, Control_c, 0, 64, 85
1, 179214, Control_c, 0, 64, 96
1, 179219, Note_off_c, 0, 57, 53
1, 179229, Control_c, 0, 64, 115
1, 179244, Control_c, 0, 64, 127
1, 179249, Note_off_c, 0, 53, 40
1, 179304, Note_off_c, 0, 62, 62
1, 179319, Poly_aftertouch_c, 0, 41, 0
1, 179590, Note_on_c, 0, 46, 22
1, 179619, Note_on_c, 0, 62, 42
1, 179639, Note_on_c, 0, 58, 37
1, 179657, Note_on_c, 0, 53, 30
1, 179675, Control_c, 0, 64, 100
1, 179689, Control_c, 0, 64, 77
1, 179704, Control_c, 0, 64, 65
1, 179719, Control_c, 0, 64, 58
1, 179734, Control_c, 0, 64, 56
1, 179749, Control_c, 0, 64, 59
1, 179763, Control_c, 0, 64, 63
1, 179778, Control_c, 0, 64, 67
1, 179793, Control_c, 0, 64, 71
1, 179815, Control_c, 0, 64, 76
1, 179830, Control_c, 0, 64, 83
1, 179845, Control_c, 0, 64, 88
1, 179859, Control_c, 0, 64, 95
1, 179874, Control_c, 0, 64, 103
1, 179888, Control_c, 0, 64, 127
1, 180036, Note_off_c, 0, 53, 35
1, 180065, Note_off_c, 0, 62, 57
1, 180167, Note_off_c, 0, 46, 37
1, 180213, Note_on_c, 0, 62, 55
1, 180222, Note_on_c, 0, 41, 33
1, 180238, Note_on_c, 0, 57, 51
1, 180261, Note_off_c, 0, 58, 63
1, 180276, Poly_aftertouch_c, 0, 53, 127
1, 180296, Note_off_c, 0, 62, 63
1, 180337, Poly_aftertouch_c, 0, 53, 0
1, 180390, Note_off_c, 0, 41, 34
1, 180536, Note_on_c, 0, 62, 53
1, 180541, Control_c, 0, 64, 117
1, 180545, Note_on_c, 0, 46, 35
1, 180562, Note_on_c, 0, 53, 22
1, 180563, Control_c, 0, 64, 69
1, 180575, Note_on_c, 0, 58, 45
1, 180578, Control_c, 0, 64, 0
1, 180644, Note_off_c, 0, 57, 59
1, 180667, Control_c, 0, 64, 53
1, 180682, Control_c, 0, 64, 60
1, 180697, Control_c, 0, 64, 62
1, 180711, Control_c, 0, 64, 63
1, 180726, Control_c, 0, 64, 66
1, 180741, Control_c, 0, 64, 70
1, 180744, Note_off_c, 0, 58, 64
1, 180751, Note_off_c, 0, 62, 64
1, 180756, Control_c, 0, 64, 78
1, 180771, Control_c, 0, 64, 101
1, 180785, Control_c, 0, 64, 127
1, 180864, Note_off_c, 0, 53, 36
1, 180943, Note_off_c, 0, 46, 34
1, 181061, Note_on_c, 0, 70, 73
1, 181071, Note_on_c, 0, 41, 40
1, 181077, Note_on_c, 0, 53, 35
1, 181112, Note_on_c, 0, 62, 15
1, 181124, Note_on_c, 0, 58, 38
1, 181151, Note_off_c, 0, 62, 50
1, 181176, Note_off_c, 0, 58, 46
1, 181213, Note_off_c, 0, 53, 32
1, 181270, Note_off_c, 0, 41, 34
1, 181373, Note_on_c, 0, 46, 40
1, 181437, Note_on_c, 0, 53, 15
1, 181452, Note_on_c, 0, 62, 66
1, 181485, Note_on_c, 0, 58, 32
1, 181490, Control_c, 0, 64, 88
1, 181505, Control_c, 0, 64, 58
1, 181520, Control_c, 0, 64, 0
1, 181592, Note_off_c, 0, 70, 62
1, 181595, Control_c, 0, 64, 56
1, 181609, Control_c, 0, 64, 64
1, 181624, Control_c, 0, 64, 67
1, 181627, Note_off_c, 0, 58, 55
1, 181630, Note_off_c, 0, 46, 63
1, 181639, Control_c, 0, 64, 69
1, 181653, Control_c, 0, 64, 70
1, 181683, Control_c, 0, 64, 71
1, 181698, Control_c, 0, 64, 75
1, 181713, Control_c, 0, 64, 82
1, 181727, Control_c, 0, 64, 93
1, 181738, Note_off_c, 0, 53, 42
1, 181742, Control_c, 0, 64, 127
1, 181929, Note_on_c, 0, 56, 41
1, 181940, Note_on_c, 0, 52, 33
1, 181964, Note_on_c, 0, 40, 5
1, 182015, Note_off_c, 0, 62, 60
1, 182030, Note_off_c, 0, 52, 51
1, 182046, Note_off_c, 0, 40, 43
1, 182124, Poly_aftertouch_c, 0, 66, 127
1, 182132, Note_off_c, 0, 56, 34
1, 182228, Note_on_c, 0, 52, 26
1, 182241, Note_on_c, 0, 45, 35
1, 182246, Note_on_c, 0, 61, 53
1, 182254, Control_c, 0, 64, 72
1, 182260, Note_on_c, 0, 57, 40
1, 182269, Control_c, 0, 64, 42
1, 182283, Control_c, 0, 64, 0
1, 182343, Control_c, 0, 64, 26
1, 182358, Control_c, 0, 64, 57
1, 182373, Control_c, 0, 64, 64
1, 182388, Control_c, 0, 64, 67
1, 182402, Control_c, 0, 64, 69
1, 182417, Control_c, 0, 64, 72
1, 182422, Note_off_c, 0, 52, 57
1, 182432, Control_c, 0, 64, 75
1, 182442, Note_off_c, 0, 45, 61
1, 182447, Control_c, 0, 64, 80
1, 182462, Control_c, 0, 64, 87
1, 182476, Control_c, 0, 64, 100
1, 182483, Poly_aftertouch_c, 0, 64, 127
1, 182491, Control_c, 0, 64, 127
1, 182522, Note_off_c, 0, 61, 61
1, 182585, Note_off_c, 0, 57, 36
1, 182748, Note_on_c, 0, 52, 36
1, 182749, Note_on_c, 0, 57, 35
1, 182759, Note_on_c, 0, 40, 24
1, 182759, Note_on_c, 0, 61, 34
1, 182759, Note_on_c, 0, 69, 60
1, 182817, Note_off_c, 0, 61, 54
1, 182854, Note_off_c, 0, 52, 55
1, 182877, Note_off_c, 0, 57, 36
1, 182900, Note_off_c, 0, 40, 28
1, 183058, Note_on_c, 0, 61, 54
1, 183064, Note_on_c, 0, 45, 33
1, 183074, Note_on_c, 0, 52, 30
1, 183076, Note_on_c, 0, 57, 35
1, 183084, Poly_aftertouch_c, 0, 64, 0
1, 183092, Control_c, 0, 64, 78
1, 183106, Control_c, 0, 64, 59
1, 183121, Control_c, 0, 64, 0
1, 183143, Poly_aftertouch_c, 0, 66, 0
1, 183160, Note_off_c, 0, 69, 59
1, 183180, Control_c, 0, 64, 52
1, 183195, Control_c, 0, 64, 63
1, 183210, Control_c, 0, 64, 68
1, 183224, Note_off_c, 0, 61, 63
1, 183225, Control_c, 0, 64, 71
1, 183240, Control_c, 0, 64, 75
1, 183243, Note_off_c, 0, 52, 49
1, 183255, Control_c, 0, 64, 79
1, 183270, Control_c, 0, 64, 85
1, 183285, Control_c, 0, 64, 91
1, 183295, Note_off_c, 0, 45, 47
1, 183299, Control_c, 0, 64, 99
1, 183303, Note_off_c, 0, 57, 54
1, 183314, Control_c, 0, 64, 115
1, 183329, Control_c, 0, 64, 127
1, 183529, Note_on_c, 0, 60, 55
1, 183537, Control_c, 0, 64, 115
1, 183558, Note_on_c, 0, 54, 45
1, 183559, Note_on_c, 0, 38, 33
1, 183559, Control_c, 0, 64, 73
1, 183568, Note_on_c, 0, 50, 26
1, 183574, Control_c, 0, 64, 57
1, 183589, Control_c, 0, 64, 19
1, 183603, Control_c, 0, 64, 0
1, 183618, Control_c, 0, 64, 29
1, 183633, Control_c, 0, 64, 54
1, 183648, Control_c, 0, 64, 64
1, 183663, Control_c, 0, 64, 68
1, 183677, Control_c, 0, 64, 72
1, 183692, Control_c, 0, 64, 74
1, 183707, Control_c, 0, 64, 77
1, 183722, Control_c, 0, 64, 78
1, 183736, Control_c, 0, 64, 78
1, 183749, Note_off_c, 0, 54, 63
1, 183751, Control_c, 0, 64, 79
1, 183781, Control_c, 0, 64, 80
1, 183795, Control_c, 0, 64, 81
1, 183810, Control_c, 0, 64, 82
1, 183812, Note_on_c, 0, 58, 43
1, 183830, Note_off_c, 0, 38, 39
1, 183838, Note_on_c, 0, 43, 34
1, 183840, Control_c, 0, 64, 80
1, 183842, Note_on_c, 0, 55, 41
1, 183855, Control_c, 0, 64, 73
1, 183870, Control_c, 0, 64, 60
1, 183884, Note_off_c, 0, 50, 42
1, 183884, Control_c, 0, 64, 0
1, 183923, Note_off_c, 0, 60, 62
1, 184003, Control_c, 0, 64, 22
1, 184018, Control_c, 0, 64, 59
1, 184033, Control_c, 0, 64, 62
1, 184047, Control_c, 0, 64, 63
1, 184062, Control_c, 0, 64, 63
1, 184077, Control_c, 0, 64, 64
1, 184092, Control_c, 0, 64, 67
1, 184107, Control_c, 0, 64, 70
1, 184121, Control_c, 0, 64, 75
1, 184136, Control_c, 0, 64, 81
1, 184151, Control_c, 0, 64, 89
1, 184166, Control_c, 0, 64, 99
1, 184181, Control_c, 0, 64, 109
1, 184195, Control_c, 0, 64, 117
1, 184279, Note_off_c, 0, 43, 39
1, 184334, Note_on_c, 0, 63, 55
1, 184346, Note_on_c, 0, 36, 33
1, 184351, Control_c, 0, 64, 115
1, 184366, Control_c, 0, 64, 114
1, 184381, Control_c, 0, 64, 112
1, 184388, Note_on_c, 0, 60, 9
1, 184396, Control_c, 0, 64, 111
1, 184411, Control_c, 0, 64, 110
1, 184412, Note_off_c, 0, 58, 39
1, 184415, Note_off_c, 0, 55, 59
1, 184425, Control_c, 0, 64, 110
1, 184440, Control_c, 0, 64, 109
1, 184455, Control_c, 0, 64, 108
1, 184470, Control_c, 0, 64, 107
1, 184485, Control_c, 0, 64, 105
1, 184499, Control_c, 0, 64, 103
1, 184504, Note_off_c, 0, 60, 35
1, 184514, Control_c, 0, 64, 101
1, 184529, Control_c, 0, 64, 98
1, 184544, Control_c, 0, 64, 96
1, 184558, Control_c, 0, 64, 94
1, 184573, Control_c, 0, 64, 93
1, 184588, Control_c, 0, 64, 92
1, 184603, Control_c, 0, 64, 91
1, 184618, Control_c, 0, 64, 90
1, 184620, Note_off_c, 0, 63, 37
1, 184632, Control_c, 0, 64, 89
1, 184647, Control_c, 0, 64, 89
1, 184662, Control_c, 0, 64, 88
1, 184677, Control_c, 0, 64, 85
1, 184692, Control_c, 0, 64, 73
1, 184695, Note_on_c, 0, 41, 30
1, 184696, Note_on_c, 0, 62, 39
1, 184701, Note_on_c, 0, 58, 35
1, 184707, Control_c, 0, 64, 59
1, 184722, Control_c, 0, 64, 0
1, 184737, Note_on_c, 0, 53, 14
1, 184745, Note_off_c, 0, 36, 33
1, 184825, Control_c, 0, 64, 38
1, 184840, Control_c, 0, 64, 53
1, 184855, Control_c, 0, 64, 60
1, 184869, Control_c, 0, 64, 62
1, 184884, Control_c, 0, 64, 64
1, 184899, Control_c, 0, 64, 66
1, 184914, Control_c, 0, 64, 69
1, 184929, Control_c, 0, 64, 73
1, 184939, Note_off_c, 0, 62, 62
1, 184944, Control_c, 0, 64, 79
1, 184958, Control_c, 0, 64, 86
1, 184973, Control_c, 0, 64, 93
1, 184988, Control_c, 0, 64, 99
1, 184991, Note_off_c, 0, 58, 61
1, 185003, Control_c, 0, 64, 102
1, 185017, Control_c, 0, 64, 104
1, 185031, Note_off_c, 0, 53, 42
1, 185032, Control_c, 0, 64, 105
1, 185055, Control_c, 0, 64, 108
1, 185070, Control_c, 0, 64, 113
1, 185084, Note_off_c, 0, 41, 41
1, 185085, Control_c, 0, 64, 127
1, 185427, Control_c, 0, 64, 93
1, 185428, Note_on_c, 0, 41, 38
1, 185428, Note_on_c, 0, 57, 38
1, 185433, Note_on_c, 0, 60, 39
1, 185442, Control_c, 0, 64, 71
1, 185453, Note_on_c, 0, 53, 19
1, 185456, Control_c, 0, 64, 50
1, 185471, Control_c, 0, 64, 0
1, 185530, Control_c, 0, 64, 31
1, 185545, Control_c, 0, 64, 52
1, 185560, Control_c, 0, 64, 60
1, 185574, Control_c, 0, 64, 64
1, 185589, Control_c, 0, 64, 66
1, 185600, Note_off_c, 0, 60, 61
1, 185604, Control_c, 0, 64, 68
1, 185619, Control_c, 0, 64, 70
1, 185634, Control_c, 0, 64, 73
1, 185649, Control_c, 0, 64, 76
1, 185655, Note_off_c, 0, 57, 48
1, 185664, Control_c, 0, 64, 81
1, 185678, Control_c, 0, 64, 87
1, 185692, Note_off_c, 0, 53, 36
1, 185693, Control_c, 0, 64, 94
1, 185708, Control_c, 0, 64, 98
1, 185723, Control_c, 0, 64, 101
1, 185738, Control_c, 0, 64, 104
1, 185753, Control_c, 0, 64, 107
1, 185767, Control_c, 0, 64, 114
1, 185782, Control_c, 0, 64, 127
1, 185943, Note_off_c, 0, 41, 34
1, 186066, Note_on_c, 0, 58, 30
1, 186076, Note_on_c, 0, 34, 21
1, 186080, Note_on_c, 0, 62, 25
1, 186082, Note_on_c, 0, 46, 13
1, 186086, Control_c, 0, 64, 115
1, 186096, Note_on_c, 0, 53, 13
1, 186101, Control_c, 0, 64, 92
1, 186116, Control_c, 0, 64, 76
1, 186130, Control_c, 0, 64, 63
1, 186145, Control_c, 0, 64, 32
1, 186160, Control_c, 0, 64, 0
1, 186249, Control_c, 0, 64, 12
1, 186264, Control_c, 0, 64, 42
1, 186278, Control_c, 0, 64, 52
1, 186293, Control_c, 0, 64, 58
1, 186308, Control_c, 0, 64, 61
1, 186322, Control_c, 0, 64, 63
1, 186337, Control_c, 0, 64, 65
1, 186352, Control_c, 0, 64, 68
1, 186367, Control_c, 0, 64, 71
1, 186382, Control_c, 0, 64, 74
1, 186397, Control_c, 0, 64, 77
1, 186412, Control_c, 0, 64, 81
1, 186427, Control_c, 0, 64, 87
1, 186442, Control_c, 0, 64, 95
1, 186449, Note_off_c, 0, 53, 52
1, 186457, Control_c, 0, 64, 105
1, 186471, Control_c, 0, 64, 127
1, 186474, Note_off_c, 0, 34, 42
1, 186487, Note_off_c, 0, 62, 41
1, 186594, Note_off_c, 0, 58, 44
1, 186612, Note_off_c, 0, 46, 39
1, 187633, Note_on_c, 0, 74, 58
1, 187667, Note_on_c, 0, 46, 32
1, 187668, Note_on_c, 0, 53, 37
1, 187673, Control_c, 0, 64, 89
1, 187677, Note_on_c, 0, 62, 22
1, 187678, Note_on_c, 0, 65, 30
1, 187682, Note_on_c, 0, 58, 20
1, 187688, Control_c, 0, 64, 71
1, 187703, Control_c, 0, 64, 59
1, 187717, Control_c, 0, 64, 45
1, 187732, Control_c, 0, 64, 44
1, 187747, Control_c, 0, 64, 52
1, 187762, Control_c, 0, 64, 60
1, 187776, Control_c, 0, 64, 65
1, 187791, Control_c, 0, 64, 68
1, 187806, Control_c, 0, 64, 71
1, 187821, Control_c, 0, 64, 74
1, 187836, Control_c, 0, 64, 77
1, 187837, Note_off_c, 0, 65, 58
1, 187850, Control_c, 0, 64, 80
1, 187864, Note_off_c, 0, 53, 50
1, 187865, Control_c, 0, 64, 84
1, 187880, Control_c, 0, 64, 89
1, 187893, Note_off_c, 0, 62, 54
1, 187894, Control_c, 0, 64, 95
1, 187897, Note_off_c, 0, 58, 42
1, 187909, Control_c, 0, 64, 105
1, 187914, Note_off_c, 0, 46, 40
1, 187924, Control_c, 0, 64, 127
1, 187935, Note_off_c, 0, 74, 56
1, 188406, Note_on_c, 0, 74, 58
1, 188438, Note_on_c, 0, 66, 33
1, 188454, Note_on_c, 0, 57, 21
1, 188457, Note_on_c, 0, 45, 21
1, 188460, Note_on_c, 0, 50, 13
1, 188467, Note_on_c, 0, 60, 32
1, 188471, Poly_aftertouch_c, 0, 69, 127
1, 188472, Note_on_c, 0, 62, 28
1, 188495, Control_c, 0, 64, 99
1, 188510, Control_c, 0, 64, 80
1, 188525, Control_c, 0, 64, 66
1, 188540, Control_c, 0, 64, 45
1, 188555, Control_c, 0, 64, 0
1, 188659, Control_c, 0, 64, 34
1, 188665, Poly_aftertouch_c, 0, 69, 0
1, 188673, Control_c, 0, 64, 53
1, 188688, Control_c, 0, 64, 58
1, 188703, Control_c, 0, 64, 61
1, 188717, Control_c, 0, 64, 63
1, 188732, Control_c, 0, 64, 65
1, 188747, Control_c, 0, 64, 68
1, 188762, Control_c, 0, 64, 72
1, 188777, Control_c, 0, 64, 76
1, 188799, Control_c, 0, 64, 82
1, 188814, Control_c, 0, 64, 89
1, 188829, Control_c, 0, 64, 98
1, 188844, Control_c, 0, 64, 117
1, 188859, Control_c, 0, 64, 127
1, 188986, Note_off_c, 0, 74, 61
1, 188990, Note_off_c, 0, 60, 41
1, 189014, Note_off_c, 0, 62, 38
1, 189074, Note_off_c, 0, 57, 42
1, 189095, Note_off_c, 0, 45, 41
1, 189104, Note_off_c, 0, 66, 41
1, 189810, Note_on_c, 0, 70, 44
1, 189822, Note_on_c, 0, 43, 28
1, 189843, Note_on_c, 0, 62, 15
1, 189848, Note_on_c, 0, 58, 31
1, 189861, Control_c, 0, 64, 112
1, 189876, Control_c, 0, 64, 80
1, 189891, Control_c, 0, 64, 60
1, 189905, Control_c, 0, 64, 17
1, 189920, Control_c, 0, 64, 0
1, 189934, Poly_aftertouch_c, 0, 65, 127
1, 189964, Control_c, 0, 64, 32
1, 189979, Control_c, 0, 64, 56
1, 189994, Control_c, 0, 64, 62
1, 190004, Note_off_c, 0, 50, 54
1, 190009, Control_c, 0, 64, 65
1, 190024, Control_c, 0, 64, 66
1, 190038, Control_c, 0, 64, 68
1, 190049, Note_off_c, 0, 62, 55
1, 190052, Poly_aftertouch_c, 0, 65, 0
1, 190053, Control_c, 0, 64, 70
1, 190068, Control_c, 0, 64, 72
1, 190083, Control_c, 0, 64, 76
1, 190098, Control_c, 0, 64, 82
1, 190112, Control_c, 0, 64, 91
1, 190127, Control_c, 0, 64, 104
1, 190142, Control_c, 0, 64, 127
1, 190180, Note_off_c, 0, 58, 36
1, 190372, Note_on_c, 0, 67, 50
1, 190397, Note_on_c, 0, 58, 7
1, 190400, Control_c, 0, 64, 117
1, 190415, Control_c, 0, 64, 78
1, 190419, Note_on_c, 0, 63, 36
1, 190428, Note_on_c, 0, 48, 30
1, 190430, Control_c, 0, 64, 64
1, 190445, Control_c, 0, 64, 58
1, 190460, Control_c, 0, 64, 60
1, 190475, Control_c, 0, 64, 64
1, 190489, Control_c, 0, 64, 70
1, 190499, Note_off_c, 0, 58, 58
1, 190504, Control_c, 0, 64, 79
1, 190514, Note_off_c, 0, 43, 40
1, 190519, Control_c, 0, 64, 93
1, 190534, Control_c, 0, 64, 123
1, 190549, Note_off_c, 0, 70, 33
1, 190549, Control_c, 0, 64, 127
1, 190555, Note_off_c, 0, 63, 60
1, 190590, Note_off_c, 0, 48, 38
1, 190605, Note_on_c, 0, 58, 44
1, 190616, Note_off_c, 0, 67, 52
1, 190656, Note_off_c, 0, 58, 59
1, 190669, Note_on_c, 0, 63, 41
1, 190683, Note_on_c, 0, 69, 63
1, 190743, Note_off_c, 0, 63, 0
1, 190757, Control_c, 0, 64, 95
1, 190758, Note_on_c, 0, 67, 53
1, 190772, Note_on_c, 0, 48, 32
1, 190772, Control_c, 0, 64, 71
1, 190776, Note_on_c, 0, 58, 40
1, 190777, Note_off_c, 0, 69, 54
1, 190781, Poly_aftertouch_c, 0, 63, 127
1, 190782, Note_on_c, 0, 63, 13
1, 190786, Control_c, 0, 64, 45
1, 190801, Control_c, 0, 64, 0
1, 190905, Control_c, 0, 64, 35
1, 190920, Control_c, 0, 64, 54
1, 190934, Control_c, 0, 64, 58
1, 190949, Control_c, 0, 64, 60
1, 190964, Control_c, 0, 64, 61
1, 190979, Control_c, 0, 64, 63
1, 190990, Note_off_c, 0, 58, 61
1, 190993, Control_c, 0, 64, 66
1, 191008, Control_c, 0, 64, 71
1, 191023, Control_c, 0, 64, 76
1, 191046, Control_c, 0, 64, 84
1, 191061, Control_c, 0, 64, 93
1, 191075, Control_c, 0, 64, 104
1, 191090, Control_c, 0, 64, 121
1, 191105, Control_c, 0, 64, 127
1, 191148, Note_off_c, 0, 63, 40
1, 191273, Note_off_c, 0, 67, 33
1, 191274, Poly_aftertouch_c, 0, 69, 127
1, 191324, Note_on_c, 0, 65, 50
1, 191334, Note_on_c, 0, 57, 40
1, 191356, Note_on_c, 0, 41, 37
1, 191357, Control_c, 0, 64, 97
1, 191359, Note_off_c, 0, 48, 35
1, 191372, Control_c, 0, 64, 69
1, 191382, Note_on_c, 0, 63, 10
1, 191387, Note_on_c, 0, 53, 34
1, 191387, Control_c, 0, 64, 21
1, 191401, Control_c, 0, 64, 0
1, 191447, Control_c, 0, 64, 42
1, 191450, Note_off_c, 0, 53, 63
1, 191460, Note_off_c, 0, 41, 62
1, 191461, Control_c, 0, 64, 61
1, 191476, Control_c, 0, 64, 68
1, 191479, Note_off_c, 0, 57, 63
1, 191479, Note_off_c, 0, 63, 39
1, 191491, Control_c, 0, 64, 73
1, 191501, Poly_aftertouch_c, 0, 69, 0
1, 191506, Control_c, 0, 64, 79
1, 191514, Note_off_c, 0, 65, 59
1, 191521, Control_c, 0, 64, 85
1, 191536, Control_c, 0, 64, 93
1, 191551, Control_c, 0, 64, 105
1, 191565, Control_c, 0, 64, 127
1, 191602, Poly_aftertouch_c, 0, 69, 127
1, 191768, Note_on_c, 0, 34, 25
1, 191769, Note_on_c, 0, 65, 41
1, 191805, Note_on_c, 0, 62, 29
1, 191807, Note_on_c, 0, 58, 30
1, 191828, Note_on_c, 0, 46, 21
1, 191839, Control_c, 0, 64, 102
1, 191854, Control_c, 0, 64, 69
1, 191869, Control_c, 0, 64, 48
1, 191884, Control_c, 0, 64, 10
1, 191898, Control_c, 0, 64, 12
1, 191900, Poly_aftertouch_c, 0, 69, 0
1, 191913, Control_c, 0, 64, 40
1, 191928, Control_c, 0, 64, 59
1, 191942, Control_c, 0, 64, 67
1, 191957, Control_c, 0, 64, 73
1, 191972, Control_c, 0, 64, 82
1, 191977, Note_off_c, 0, 34, 53
1, 191987, Control_c, 0, 64, 90
1, 191997, Note_off_c, 0, 46, 55
1, 192002, Control_c, 0, 64, 98
1, 192016, Control_c, 0, 64, 108
1, 192031, Control_c, 0, 64, 127
1, 192048, Note_off_c, 0, 58, 53
1, 192060, Note_off_c, 0, 65, 62
1, 192067, Note_off_c, 0, 62, 51
1, 192373, Note_on_c, 0, 74, 69
1, 192400, Note_on_c, 0, 62, 42
1, 192404, Note_on_c, 0, 46, 50
1, 192412, Note_on_c, 0, 58, 36
1, 192430, Note_on_c, 0, 53, 35
1, 192430, Note_on_c, 0, 65, 33
1, 192465, Note_off_c, 0, 46, 57
1, 192466, Note_off_c, 0, 58, 57
1, 192479, Note_off_c, 0, 53, 53
1, 192555, Note_off_c, 0, 62, 35
1, 192568, Note_off_c, 0, 74, 55
1, 192708, Note_on_c, 0, 46, 47
1, 192714, Note_on_c, 0, 58, 42
1, 192719, Note_on_c, 0, 70, 74
1, 192722, Control_c, 0, 64, 76
1, 192724, Note_on_c, 0, 62, 59
1, 192731, Note_on_c, 0, 53, 38
1, 192737, Control_c, 0, 64, 55
1, 192752, Control_c, 0, 64, 0
1, 192796, Control_c, 0, 64, 43
1, 192811, Control_c, 0, 64, 62
1, 192818, Note_off_c, 0, 65, 40
1, 192826, Control_c, 0, 64, 70
1, 192828, Note_off_c, 0, 62, 63
1, 192840, Control_c, 0, 64, 80
1, 192855, Control_c, 0, 64, 96
1, 192870, Control_c, 0, 64, 127
1, 192882, Note_off_c, 0, 70, 63
1, 192919, Note_off_c, 0, 46, 63
1, 192925, Note_off_c, 0, 53, 52
1, 192954, Note_off_c, 0, 58, 63
1, 193369, Note_on_c, 0, 79, 71
1, 193384, Note_on_c, 0, 70, 40
1, 193389, Note_on_c, 0, 64, 39
1, 193390, Note_on_c, 0, 67, 45
1, 193396, Control_c, 0, 64, 121
1, 193399, Note_on_c, 0, 61, 43
1, 193408, Note_on_c, 0, 58, 40
1, 193411, Control_c, 0, 64, 72
1, 193426, Control_c, 0, 64, 0
1, 193442, Poly_aftertouch_c, 0, 75, 127
1, 193545, Control_c, 0, 64, 49
1, 193560, Poly_aftertouch_c, 0, 75, 0
1, 193560, Control_c, 0, 64, 56
1, 193575, Control_c, 0, 64, 60
1, 193589, Control_c, 0, 64, 63
1, 193604, Control_c, 0, 64, 67
1, 193613, Note_off_c, 0, 58, 61
1, 193619, Control_c, 0, 64, 74
1, 193634, Control_c, 0, 64, 89
1, 193635, Note_off_c, 0, 64, 62
1, 193649, Control_c, 0, 64, 127
1, 193655, Note_off_c, 0, 61, 59
1, 193692, Note_off_c, 0, 79, 60
1, 193739, Note_off_c, 0, 67, 59
1, 193751, Note_off_c, 0, 70, 41
1, 193891, Note_on_c, 0, 77, 75
1, 193901, Control_c, 0, 64, 121
1, 193912, Note_on_c, 0, 65, 40
1, 193916, Control_c, 0, 64, 74
1, 193917, Note_on_c, 0, 70, 50
1, 193921, Note_on_c, 0, 58, 47
1, 193930, Note_on_c, 0, 62, 38
1, 193931, Control_c, 0, 64, 54
1, 193946, Control_c, 0, 64, 10
1, 193960, Control_c, 0, 64, 20
1, 193975, Control_c, 0, 64, 48
1, 193990, Control_c, 0, 64, 65
1, 194004, Control_c, 0, 64, 75
1, 194017, Note_off_c, 0, 65, 63
1, 194019, Control_c, 0, 64, 94
1, 194035, Note_off_c, 0, 58, 58
1, 194041, Note_off_c, 0, 70, 49
1, 194042, Control_c, 0, 64, 127
1, 194068, Note_off_c, 0, 62, 60
1, 194196, Note_on_c, 0, 76, 69
1, 194215, Note_on_c, 0, 70, 53
1, 194228, Note_off_c, 0, 77, 58
1, 194231, Note_on_c, 0, 61, 44
1, 194232, Note_on_c, 0, 58, 41
1, 194234, Control_c, 0, 64, 86
1, 194242, Note_on_c, 0, 67, 41
1, 194249, Control_c, 0, 64, 62
1, 194263, Control_c, 0, 64, 0
1, 194323, Control_c, 0, 64, 40
1, 194335, Note_off_c, 0, 70, 53
1, 194337, Control_c, 0, 64, 61
1, 194352, Note_off_c, 0, 61, 58
1, 194352, Control_c, 0, 64, 68
1, 194367, Control_c, 0, 64, 75
1, 194382, Control_c, 0, 64, 81
1, 194388, Note_off_c, 0, 67, 58
1, 194397, Control_c, 0, 64, 89
1, 194401, Note_off_c, 0, 58, 34
1, 194411, Control_c, 0, 64, 102
1, 194426, Control_c, 0, 64, 127
1, 194511, Note_off_c, 0, 76, 38
1, 194636, Note_on_c, 0, 77, 58
1, 194646, Note_on_c, 0, 58, 39
1, 194663, Note_on_c, 0, 70, 37
1, 194664, Note_on_c, 0, 68, 35
1, 194679, Control_c, 0, 64, 94
1, 194681, Note_on_c, 0, 62, 32
1, 194694, Control_c, 0, 64, 66
1, 194708, Control_c, 0, 64, 0
1, 194790, Control_c, 0, 64, 34
1, 194805, Control_c, 0, 64, 60
1, 194820, Control_c, 0, 64, 66
1, 194833, Control_c, 0, 64, 72
1, 194848, Control_c, 0, 64, 78
1, 194863, Control_c, 0, 64, 85
1, 194878, Control_c, 0, 64, 96
1, 194893, Note_off_c, 0, 62, 53
1, 194893, Control_c, 0, 64, 127
1, 194942, Note_off_c, 0, 58, 46
1, 195343, Note_on_c, 0, 46, 26
1, 195344, Poly_aftertouch_c, 0, 34, 127
1, 195399, Note_off_c, 0, 46, 51
1, 195413, Poly_aftertouch_c, 0, 34, 0
1, 195644, Note_on_c, 0, 34, 9
1, 195651, Note_on_c, 0, 46, 31
1, 195717, Note_off_c, 0, 77, 61
1, 195770, Note_off_c, 0, 68, 40
1, 195793, Note_off_c, 0, 70, 51
1, 195855, Note_off_c, 0, 34, 42
1, 195882, Note_off_c, 0, 46, 50
1, 196283, Note_on_c, 0, 70, 55
1, 196299, Note_on_c, 0, 62, 35
1, 196300, Note_on_c, 0, 46, 30
1, 196327, Note_on_c, 0, 58, 15
1, 196340, Note_on_c, 0, 68, 39
1, 196357, Note_on_c, 0, 53, 28
1, 196447, Note_off_c, 0, 70, 57
1, 196459, Note_off_c, 0, 46, 42
1, 196464, Note_off_c, 0, 58, 38
1, 196473, Note_off_c, 0, 68, 34
1, 196481, Note_off_c, 0, 53, 31
1, 196482, Note_off_c, 0, 62, 38
1, 196721, Note_on_c, 0, 70, 57
1, 196747, Note_on_c, 0, 68, 49
1, 196756, Note_on_c, 0, 62, 39
1, 196760, Note_on_c, 0, 46, 28
1, 196761, Control_c, 0, 64, 111
1, 196763, Note_on_c, 0, 58, 25
1, 196776, Control_c, 0, 64, 71
1, 196788, Note_on_c, 0, 53, 16
1, 196791, Control_c, 0, 64, 53
1, 196805, Control_c, 0, 64, 8
1, 196820, Control_c, 0, 64, 0
1, 196835, Control_c, 0, 64, 12
1, 196850, Control_c, 0, 64, 46
1, 196865, Control_c, 0, 64, 61
1, 196879, Control_c, 0, 64, 67
1, 196894, Control_c, 0, 64, 72
1, 196909, Control_c, 0, 64, 77
1, 196923, Control_c, 0, 64, 82
1, 196938, Control_c, 0, 64, 87
1, 196953, Control_c, 0, 64, 94
1, 196968, Control_c, 0, 64, 109
1, 196983, Control_c, 0, 64, 127
1, 197040, Note_off_c, 0, 46, 41
1, 197063, Note_off_c, 0, 53, 42
1, 197104, Note_off_c, 0, 68, 37
1, 197166, Note_off_c, 0, 62, 55
1, 197183, Note_off_c, 0, 58, 38
1, 197557, Note_on_c, 0, 67, 33
1, 197569, Note_on_c, 0, 63, 18
1, 197572, Note_on_c, 0, 51, 33
1, 197578, Note_on_c, 0, 58, 31
1, 197584, Control_c, 0, 64, 106
1, 197599, Control_c, 0, 64, 75
1, 197614, Control_c, 0, 64, 53
1, 197628, Control_c, 0, 64, 0
1, 197673, Control_c, 0, 64, 40
1, 197688, Control_c, 0, 64, 59
1, 197702, Control_c, 0, 64, 65
1, 197717, Control_c, 0, 64, 70
1, 197726, Note_off_c, 0, 51, 54
1, 197732, Control_c, 0, 64, 75
1, 197739, Note_off_c, 0, 67, 57
1, 197746, Control_c, 0, 64, 80
1, 197760, Note_off_c, 0, 63, 47
1, 197761, Control_c, 0, 64, 85
1, 197765, Note_off_c, 0, 58, 41
1, 197784, Control_c, 0, 64, 90
1, 197799, Control_c, 0, 64, 98
1, 197814, Control_c, 0, 64, 115
1, 197829, Control_c, 0, 64, 127
1, 197911, Note_on_c, 0, 67, 42
1, 197913, Note_on_c, 0, 51, 20
1, 197921, Note_on_c, 0, 63, 35
1, 197927, Note_on_c, 0, 58, 35
1, 198064, Note_off_c, 0, 63, 56
1, 198075, Note_off_c, 0, 51, 40
1, 198091, Note_off_c, 0, 58, 37
1, 198091, Note_off_c, 0, 70, 62
1, 198099, Note_off_c, 0, 67, 57
1, 198549, Note_on_c, 0, 48, 27
1, 198556, Note_on_c, 0, 60, 24
1, 198576, Note_on_c, 0, 75, 58
1, 198607, Control_c, 0, 64, 82
1, 198607, Note_on_c, 0, 63, 38
1, 198613, Note_on_c, 0, 67, 24
1, 198622, Control_c, 0, 64, 62
1, 198637, Control_c, 0, 64, 0
1, 198681, Control_c, 0, 64, 37
1, 198696, Control_c, 0, 64, 59
1, 198711, Control_c, 0, 64, 67
1, 198726, Control_c, 0, 64, 73
1, 198741, Control_c, 0, 64, 85
1, 198756, Control_c, 0, 64, 97
1, 198771, Control_c, 0, 64, 114
1, 198783, Note_off_c, 0, 63, 51
1, 198786, Control_c, 0, 64, 127
1, 198787, Note_off_c, 0, 67, 41
1, 198800, Note_off_c, 0, 48, 41
1, 198811, Note_off_c, 0, 75, 57
1, 198827, Note_off_c, 0, 60, 40
1, 198884, Poly_aftertouch_c, 0, 71, 127
1, 198989, Note_on_c, 0, 60, 30
1, 199015, Note_on_c, 0, 48, 15
1, 199066, Note_on_c, 0, 75, 65
1, 199067, Note_on_c, 0, 67, 23
1, 199076, Note_on_c, 0, 63, 33
1, 199120, Note_off_c, 0, 60, 55
1, 199187, Note_off_c, 0, 48, 40
1, 199212, Poly_aftertouch_c, 0, 71, 0
1, 199227, Note_off_c, 0, 67, 49
1, 199239, Note_off_c, 0, 75, 62
1, 199278, Note_off_c, 0, 63, 53
1, 199649, Note_on_c, 0, 67, 67
1, 199682, Note_on_c, 0, 55, 35
1, 199683, Note_on_c, 0, 48, 18
1, 199686, Note_on_c, 0, 60, 44
1, 199693, Note_on_c, 0, 63, 37
1, 199742, Note_off_c, 0, 48, 43
1, 199752, Note_off_c, 0, 55, 55
1, 199768, Note_off_c, 0, 63, 50
1, 199790, Note_off_c, 0, 67, 63
1, 199899, Note_off_c, 0, 60, 34
1, 199975, Note_on_c, 0, 67, 75
1, 199984, Note_on_c, 0, 48, 25
1, 199984, Note_on_c, 0, 63, 42
1, 199996, Note_on_c, 0, 55, 37
1, 199996, Note_on_c, 0, 60, 65
1, 200034, Note_off_c, 0, 48, 62
1, 200043, Note_off_c, 0, 55, 63
1, 200110, Note_off_c, 0, 63, 35
1, 200171, Note_off_c, 0, 60, 64
1, 200450, Note_on_c, 0, 43, 47
1, 200461, Note_on_c, 0, 70, 77
1, 200474, Note_on_c, 0, 55, 40
1, 200476, Control_c, 0, 64, 78
1, 200484, Note_on_c, 0, 58, 48
1, 200491, Control_c, 0, 64, 57
1, 200491, Note_on_c, 0, 62, 21
1, 200506, Control_c, 0, 64, 38
1, 200520, Control_c, 0, 64, 40
1, 200535, Control_c, 0, 64, 53
1, 200542, Note_off_c, 0, 67, 59
1, 200550, Control_c, 0, 64, 64
1, 200565, Control_c, 0, 64, 72
1, 200580, Control_c, 0, 64, 86
1, 200595, Control_c, 0, 64, 127
1, 200602, Note_off_c, 0, 58, 54
1, 200625, Note_off_c, 0, 55, 58
1, 200626, Note_off_c, 0, 43, 56
1, 200654, Note_off_c, 0, 62, 39
1, 200689, Note_off_c, 0, 70, 56
1, 200786, Note_on_c, 0, 43, 46
1, 200792, Note_on_c, 0, 55, 36
1, 200794, Note_on_c, 0, 70, 87
1, 200803, Note_on_c, 0, 62, 41
1, 200819, Note_on_c, 0, 58, 58
1, 200824, Control_c, 0, 64, 78
1, 200839, Control_c, 0, 64, 46
1, 200853, Control_c, 0, 64, 0
1, 200927, Control_c, 0, 64, 43
1, 200939, Note_off_c, 0, 62, 62
1, 200942, Control_c, 0, 64, 63
1, 200957, Control_c, 0, 64, 68
1, 200972, Control_c, 0, 64, 73
1, 200986, Control_c, 0, 64, 76
1, 201001, Control_c, 0, 64, 79
1, 201016, Control_c, 0, 64, 83
1, 201027, Note_off_c, 0, 70, 61
1, 201032, Control_c, 0, 64, 90
1, 201047, Control_c, 0, 64, 104
1, 201062, Control_c, 0, 64, 127
1, 201072, Poly_aftertouch_c, 0, 45, 127
1, 201174, Note_off_c, 0, 55, 47
1, 201174, Note_off_c, 0, 58, 36
1, 201341, Note_on_c, 0, 48, 34
1, 201402, Control_c, 0, 64, 114
1, 201412, Note_on_c, 0, 72, 75
1, 201417, Control_c, 0, 64, 71
1, 201430, Note_on_c, 0, 64, 38
1, 201430, Poly_aftertouch_c, 0, 45, 0
1, 201432, Control_c, 0, 64, 19
1, 201433, Note_on_c, 0, 58, 44
1, 201447, Control_c, 0, 64, 0
1, 201478, Note_off_c, 0, 43, 60
1, 201491, Control_c, 0, 64, 52
1, 201506, Control_c, 0, 64, 65
1, 201528, Control_c, 0, 64, 72
1, 201540, Note_off_c, 0, 64, 62
1, 201543, Control_c, 0, 64, 85
1, 201555, Note_off_c, 0, 72, 66
1, 201558, Control_c, 0, 64, 102
1, 201573, Control_c, 0, 64, 127
1, 201611, Note_off_c, 0, 58, 54
1, 201614, Note_off_c, 0, 48, 42
1, 201859, Note_on_c, 0, 48, 33
1, 201876, Note_on_c, 0, 41, 30
1, 201914, Control_c, 0, 64, 112
1, 201919, Note_on_c, 0, 65, 50
1, 201929, Control_c, 0, 64, 107
1, 201939, Note_on_c, 0, 58, 40
1, 201942, Note_on_c, 0, 63, 53
1, 201944, Control_c, 0, 64, 103
1, 201959, Control_c, 0, 64, 98
1, 201973, Control_c, 0, 64, 91
1, 201988, Control_c, 0, 64, 77
1, 202003, Control_c, 0, 64, 62
1, 202017, Control_c, 0, 64, 17
1, 202032, Control_c, 0, 64, 0
1, 202166, Control_c, 0, 64, 26
1, 202181, Control_c, 0, 64, 39
1, 202196, Control_c, 0, 64, 45
1, 202211, Control_c, 0, 64, 50
1, 202225, Control_c, 0, 64, 54
1, 202240, Control_c, 0, 64, 57
1, 202255, Control_c, 0, 64, 59
1, 202277, Control_c, 0, 64, 61
1, 202292, Control_c, 0, 64, 62
1, 202321, Control_c, 0, 64, 62
1, 202410, Control_c, 0, 64, 62
1, 202440, Control_c, 0, 64, 61
1, 202450, Note_on_c, 0, 57, 39
1, 202470, Control_c, 0, 64, 61
1, 202499, Note_off_c, 0, 63, 57
1, 202499, Control_c, 0, 64, 60
1, 202504, Note_off_c, 0, 58, 63
1, 202588, Control_c, 0, 64, 60
1, 202693, Control_c, 0, 64, 60
1, 202767, Control_c, 0, 64, 61
1, 202795, Note_on_c, 0, 62, 42
1, 202885, Control_c, 0, 64, 61
1, 202959, Control_c, 0, 64, 62
1, 203034, Note_off_c, 0, 57, 34
1, 203055, Note_on_c, 0, 60, 45
1, 203056, Note_off_c, 0, 62, 53
1, 203203, Control_c, 0, 64, 62
1, 203278, Control_c, 0, 64, 63
1, 203308, Control_c, 0, 64, 63
1, 203322, Control_c, 0, 64, 64
1, 203337, Control_c, 0, 64, 64
1, 203352, Control_c, 0, 64, 65
1, 203354, Note_on_c, 0, 55, 39
1, 203357, Note_off_c, 0, 60, 58
1, 203366, Control_c, 0, 64, 66
1, 203381, Control_c, 0, 64, 67
1, 203396, Control_c, 0, 64, 69
1, 203411, Control_c, 0, 64, 70
1, 203427, Control_c, 0, 64, 72
1, 203442, Control_c, 0, 64, 74
1, 203457, Control_c, 0, 64, 77
1, 203471, Control_c, 0, 64, 80
1, 203486, Control_c, 0, 64, 84
1, 203501, Control_c, 0, 64, 87
1, 203516, Control_c, 0, 64, 90
1, 203531, Control_c, 0, 64, 91
1, 203545, Control_c, 0, 64, 92
1, 203550, Note_off_c, 0, 41, 41
1, 203632, Note_off_c, 0, 48, 41
1, 203725, Note_on_c, 0, 57, 44
1, 203743, Note_off_c, 0, 55, 34
1, 203819, Control_c, 0, 64, 93
1, 204189, Control_c, 0, 64, 92
1, 204216, Note_on_c, 0, 46, 29
1, 204220, Control_c, 0, 64, 92
1, 204223, Note_on_c, 0, 55, 29
1, 204234, Note_on_c, 0, 62, 30
1, 204235, Control_c, 0, 64, 91
1, 204250, Control_c, 0, 64, 90
1, 204264, Control_c, 0, 64, 89
1, 204279, Control_c, 0, 64, 87
1, 204291, Note_off_c, 0, 57, 53
1, 204294, Control_c, 0, 64, 85
1, 204309, Control_c, 0, 64, 82
1, 204324, Control_c, 0, 64, 77
1, 204339, Control_c, 0, 64, 72
1, 204354, Control_c, 0, 64, 67
1, 204368, Control_c, 0, 64, 61
1, 204383, Control_c, 0, 64, 42
1, 204398, Control_c, 0, 64, 0
1, 204768, Note_on_c, 0, 53, 27
1, 204805, Control_c, 0, 64, 16
1, 204819, Control_c, 0, 64, 27
1, 204831, Note_off_c, 0, 55, 48
1, 204834, Control_c, 0, 64, 39
1, 204849, Control_c, 0, 64, 51
1, 204864, Control_c, 0, 64, 59
1, 204879, Control_c, 0, 64, 63
1, 204893, Control_c, 0, 64, 67
1, 204900, Note_off_c, 0, 65, 37
1, 204908, Control_c, 0, 64, 69
1, 204923, Control_c, 0, 64, 72
1, 204938, Control_c, 0, 64, 75
1, 204953, Control_c, 0, 64, 78
1, 204968, Control_c, 0, 64, 84
1, 204983, Control_c, 0, 64, 93
1, 204998, Control_c, 0, 64, 104
1, 205013, Control_c, 0, 64, 127
1, 205019, Note_off_c, 0, 62, 49
1, 205316, Note_on_c, 0, 74, 44
1, 205382, Poly_aftertouch_c, 0, 62, 127
1, 205465, Note_off_c, 0, 46, 41
1, 205489, Note_off_c, 0, 74, 54
1, 205523, Poly_aftertouch_c, 0, 62, 0
1, 205528, Note_off_c, 0, 53, 41
1, 205731, Note_on_c, 0, 46, 36
1, 205742, Note_on_c, 0, 53, 17
1, 205756, Note_on_c, 0, 74, 36
1, 205828, Note_on_c, 0, 62, 17
1, 206014, Note_off_c, 0, 46, 41
1, 206142, Note_off_c, 0, 62, 42
1, 206297, Note_off_c, 0, 74, 34
1, 206313, Note_off_c, 0, 53, 35
1, 206323, Note_on_c, 0, 70, 57
1, 206324, Note_on_c, 0, 54, 36
1, 206334, Note_on_c, 0, 46, 36
1, 206348, Note_on_c, 0, 62, 43
1, 206392, Note_off_c, 0, 46, 56
1, 206403, Note_off_c, 0, 54, 55
1, 206404, Note_off_c, 0, 70, 64
1, 206451, Note_off_c, 0, 62, 52
1, 206627, Note_on_c, 0, 54, 44
1, 206628, Note_on_c, 0, 70, 70
1, 206634, Note_on_c, 0, 46, 40
1, 206643, Control_c, 0, 64, 86
1, 206650, Note_on_c, 0, 62, 52
1, 206658, Control_c, 0, 64, 65
1, 206673, Control_c, 0, 64, 54
1, 206688, Control_c, 0, 64, 51
1, 206703, Control_c, 0, 64, 54
1, 206718, Control_c, 0, 64, 61
1, 206733, Control_c, 0, 64, 66
1, 206748, Control_c, 0, 64, 73
1, 206769, Control_c, 0, 64, 80
1, 206777, Note_off_c, 0, 70, 64
1, 206784, Control_c, 0, 64, 89
1, 206799, Control_c, 0, 64, 99
1, 206813, Control_c, 0, 64, 118
1, 206828, Control_c, 0, 64, 127
1, 206886, Note_off_c, 0, 62, 55
1, 206962, Note_off_c, 0, 54, 32
1, 206989, Note_off_c, 0, 46, 0
1, 207026, Poly_aftertouch_c, 0, 46, 127
1, 207040, Note_on_c, 0, 46, 3
1, 207063, Note_on_c, 0, 55, 44
1, 207108, Note_on_c, 0, 62, 59
1, 207108, Note_on_c, 0, 67, 69
1, 207150, Note_off_c, 0, 62, 64
1, 207168, Note_off_c, 0, 46, 50
1, 207229, Note_off_c, 0, 55, 35
1, 207229, Note_off_c, 0, 67, 59
1, 207270, Note_on_c, 0, 58, 63
1, 207328, Note_on_c, 0, 63, 55
1, 207335, Note_off_c, 0, 58, 59
1, 207362, Note_on_c, 0, 69, 66
1, 207370, Note_off_c, 0, 63, 57
1, 207436, Note_on_c, 0, 67, 72
1, 207443, Note_on_c, 0, 48, 43
1, 207447, Note_on_c, 0, 55, 34
1, 207455, Note_on_c, 0, 58, 53
1, 207466, Control_c, 0, 64, 93
1, 207469, Note_off_c, 0, 69, 61
1, 207481, Control_c, 0, 64, 65
1, 207496, Control_c, 0, 64, 0
1, 207518, Note_on_c, 0, 63, 27
1, 207577, Control_c, 0, 64, 48
1, 207591, Control_c, 0, 64, 64
1, 207606, Control_c, 0, 64, 70
1, 207621, Control_c, 0, 64, 76
1, 207636, Control_c, 0, 64, 84
1, 207651, Control_c, 0, 64, 92
1, 207656, Note_off_c, 0, 58, 61
1, 207666, Control_c, 0, 64, 111
1, 207676, Note_off_c, 0, 48, 59
1, 207681, Control_c, 0, 64, 127
1, 207688, Note_off_c, 0, 63, 41
1, 207856, Note_off_c, 0, 55, 43
1, 207906, Note_on_c, 0, 57, 56
1, 207906, Note_on_c, 0, 65, 77
1, 207910, Note_on_c, 0, 48, 51
1, 207922, Note_on_c, 0, 63, 58
1, 207947, Note_off_c, 0, 48, 64
1, 207978, Note_off_c, 0, 57, 61
1, 207982, Note_off_c, 0, 67, 61
1, 207990, Note_off_c, 0, 63, 61
1, 208017, Note_off_c, 0, 65, 62
1, 208194, Note_on_c, 0, 50, 56
1, 208202, Note_on_c, 0, 57, 47
1, 208203, Note_on_c, 0, 65, 74
1, 208210, Note_on_c, 0, 62, 69
1, 208229, Control_c, 0, 64, 89
1, 208244, Control_c, 0, 64, 59
1, 208266, Control_c, 0, 64, 0
1, 208327, Control_c, 0, 64, 17
1, 208332, Note_off_c, 0, 62, 64
1, 208341, Control_c, 0, 64, 64
1, 208356, Control_c, 0, 64, 74
1, 208371, Control_c, 0, 64, 93
1, 208375, Note_off_c, 0, 65, 64
1, 208386, Control_c, 0, 64, 127
1, 208408, Note_off_c, 0, 50, 64
1, 208409, Note_off_c, 0, 57, 65
1, 208641, Note_on_c, 0, 50, 49
1, 208648, Note_on_c, 0, 74, 87
1, 208664, Note_on_c, 0, 57, 61
1, 208673, Note_on_c, 0, 66, 69
1, 208673, Note_on_c, 0, 60, 72
1, 208732, Note_off_c, 0, 66, 62
1, 208733, Note_off_c, 0, 74, 65
1, 208751, Note_off_c, 0, 60, 65
1, 208779, Note_off_c, 0, 57, 59
1, 208826, Note_off_c, 0, 50, 38
1, 208956, Note_on_c, 0, 51, 54
1, 208963, Note_on_c, 0, 55, 55
1, 208977, Note_on_c, 0, 67, 68
1, 208988, Note_on_c, 0, 70, 84
1, 208995, Note_on_c, 0, 58, 75
1, 209016, Control_c, 0, 64, 72
1, 209031, Control_c, 0, 64, 15
1, 209046, Control_c, 0, 64, 0
1, 209090, Control_c, 0, 64, 38
1, 209105, Control_c, 0, 64, 65
1, 209120, Control_c, 0, 64, 76
1, 209135, Control_c, 0, 64, 98
1, 209140, Note_off_c, 0, 58, 63
1, 209150, Control_c, 0, 64, 127
1, 209163, Note_off_c, 0, 55, 64
1, 209176, Note_off_c, 0, 51, 64
1, 209196, Note_off_c, 0, 67, 62
1, 209210, Note_off_c, 0, 70, 63
1, 209561, Note_on_c, 0, 79, 85
1, 209566, Note_on_c, 0, 58, 44
1, 209579, Control_c, 0, 64, 87
1, 209580, Note_on_c, 0, 70, 65
1, 209582, Note_on_c, 0, 67, 68
1, 209583, Note_on_c, 0, 61, 51
1, 209587, Note_on_c, 0, 52, 48
1, 209594, Control_c, 0, 64, 62
1, 209609, Control_c, 0, 64, 0
1, 209653, Control_c, 0, 64, 48
1, 209668, Control_c, 0, 64, 66
1, 209682, Control_c, 0, 64, 77
1, 209697, Control_c, 0, 64, 98
1, 209712, Control_c, 0, 64, 127
1, 209842, Note_off_c, 0, 52, 57
1, 209855, Note_off_c, 0, 79, 62
1, 209860, Note_off_c, 0, 61, 62
1, 209889, Note_off_c, 0, 67, 59
1, 209934, Note_off_c, 0, 70, 51
1, 210041, Note_off_c, 0, 58, 0
1, 210047, Control_c, 0, 64, 84
1, 210051, Note_on_c, 0, 77, 88
1, 210053, Note_on_c, 0, 53, 60
1, 210056, Note_on_c, 0, 58, 41
1, 210056, Note_on_c, 0, 62, 54
1, 210061, Control_c, 0, 64, 64
1, 210068, Note_on_c, 0, 70, 59
1, 210069, Note_on_c, 0, 65, 73
1, 210076, Control_c, 0, 64, 57
1, 210091, Control_c, 0, 64, 61
1, 210101, Note_off_c, 0, 62, 63
1, 210106, Control_c, 0, 64, 67
1, 210119, Note_off_c, 0, 53, 63
1, 210120, Control_c, 0, 64, 78
1, 210135, Control_c, 0, 64, 123
1, 210146, Note_off_c, 0, 58, 63
1, 210150, Control_c, 0, 64, 127
1, 210156, Note_off_c, 0, 65, 58
1, 210190, Note_off_c, 0, 70, 56
1, 210227, Note_off_c, 0, 77, 60
1, 210307, Note_on_c, 0, 61, 60
1, 210311, Note_on_c, 0, 76, 80
1, 210313, Control_c, 0, 64, 116
1, 210324, Note_on_c, 0, 58, 53
1, 210328, Note_on_c, 0, 64, 73
1, 210328, Control_c, 0, 64, 69
1, 210331, Note_on_c, 0, 70, 61
1, 210332, Note_on_c, 0, 55, 54
1, 210342, Control_c, 0, 64, 0
1, 210417, Control_c, 0, 64, 48
1, 210431, Control_c, 0, 64, 65
1, 210441, Note_off_c, 0, 64, 60
1, 210446, Note_off_c, 0, 70, 60
1, 210446, Control_c, 0, 64, 72
1, 210461, Control_c, 0, 64, 79
1, 210476, Control_c, 0, 64, 87
1, 210477, Note_off_c, 0, 61, 57
1, 210491, Control_c, 0, 64, 95
1, 210512, Control_c, 0, 64, 121
1, 210527, Control_c, 0, 64, 127
1, 210542, Note_off_c, 0, 55, 37
1, 210560, Note_off_c, 0, 58, 36
1, 210733, Note_on_c, 0, 77, 77
1, 210735, Note_on_c, 0, 62, 36
1, 210736, Note_on_c, 0, 58, 35
1, 210750, Note_on_c, 0, 56, 40
1, 210758, Note_on_c, 0, 70, 41
1, 210759, Note_on_c, 0, 65, 42
1, 210781, Control_c, 0, 64, 123
1, 210793, Note_off_c, 0, 76, 61
1, 210796, Control_c, 0, 64, 71
1, 210810, Control_c, 0, 64, 19
1, 210825, Control_c, 0, 64, 0
1, 210914, Control_c, 0, 64, 27
1, 210929, Control_c, 0, 64, 45
1, 210943, Control_c, 0, 64, 57
1, 210958, Control_c, 0, 64, 64
1, 210960, Note_off_c, 0, 62, 63
1, 210973, Control_c, 0, 64, 70
1, 210988, Control_c, 0, 64, 81
1, 211003, Control_c, 0, 64, 127
1, 211010, Note_off_c, 0, 58, 63
1, 211018, Note_off_c, 0, 56, 64
1, 211335, Note_on_c, 0, 34, 30
1, 211352, Note_on_c, 0, 46, 39
1, 211442, Note_off_c, 0, 46, 59
1, 211464, Note_off_c, 0, 34, 35
1, 211622, Note_on_c, 0, 46, 41
1, 211626, Note_on_c, 0, 34, 37
1, 211720, Note_off_c, 0, 34, 58
1, 211729, Note_off_c, 0, 46, 59
1, 211773, Note_off_c, 0, 77, 60
1, 211793, Note_off_c, 0, 70, 62
1, 211877, Note_off_c, 0, 65, 63
1, 212195, Note_on_c, 0, 70, 70
1, 212223, Note_on_c, 0, 46, 39
1, 212237, Note_on_c, 0, 58, 36
1, 212242, Note_on_c, 0, 62, 38
1, 212263, Note_on_c, 0, 68, 40
1, 212273, Note_on_c, 0, 53, 33
1, 212337, Note_off_c, 0, 53, 43
1, 212352, Note_off_c, 0, 58, 38
1, 212354, Note_off_c, 0, 68, 53
1, 212358, Note_off_c, 0, 46, 35
1, 212371, Note_off_c, 0, 70, 60
1, 212428, Note_off_c, 0, 62, 33
1, 212620, Note_on_c, 0, 70, 70
1, 212649, Note_on_c, 0, 62, 48
1, 212649, Control_c, 0, 64, 104
1, 212653, Note_on_c, 0, 53, 31
1, 212656, Note_on_c, 0, 68, 44
1, 212660, Note_on_c, 0, 58, 38
1, 212663, Control_c, 0, 64, 68
1, 212670, Note_on_c, 0, 46, 30
1, 212678, Control_c, 0, 64, 15
1, 212693, Control_c, 0, 64, 0
1, 212737, Control_c, 0, 64, 16
1, 212760, Control_c, 0, 64, 55
1, 212775, Control_c, 0, 64, 63
1, 212789, Control_c, 0, 64, 67
1, 212804, Control_c, 0, 64, 72
1, 212819, Control_c, 0, 64, 77
1, 212834, Control_c, 0, 64, 84
1, 212849, Control_c, 0, 64, 93
1, 212855, Note_off_c, 0, 68, 39
1, 212863, Control_c, 0, 64, 110
1, 212878, Control_c, 0, 64, 127
1, 212894, Note_off_c, 0, 46, 41
1, 212917, Note_off_c, 0, 53, 36
1, 212989, Note_off_c, 0, 62, 62
1, 213055, Note_off_c, 0, 58, 28
1, 213437, Note_on_c, 0, 51, 32
1, 213444, Note_on_c, 0, 58, 35
1, 213453, Note_on_c, 0, 67, 34
1, 213457, Control_c, 0, 64, 84
1, 213462, Note_on_c, 0, 63, 32
1, 213471, Control_c, 0, 64, 62
1, 213486, Control_c, 0, 64, 0
1, 213553, Control_c, 0, 64, 55
1, 213568, Control_c, 0, 64, 65
1, 213580, Note_off_c, 0, 67, 60
1, 213583, Control_c, 0, 64, 73
1, 213588, Note_off_c, 0, 51, 54
1, 213598, Control_c, 0, 64, 83
1, 213602, Note_off_c, 0, 63, 50
1, 213612, Control_c, 0, 64, 98
1, 213627, Note_off_c, 0, 58, 39
1, 213627, Control_c, 0, 64, 127
1, 213821, Note_on_c, 0, 67, 50
1, 213827, Note_on_c, 0, 51, 37
1, 213838, Note_on_c, 0, 58, 31
1, 213855, Note_on_c, 0, 63, 33
1, 213960, Note_off_c, 0, 63, 50
1, 213978, Note_off_c, 0, 67, 60
1, 213990, Note_off_c, 0, 51, 45
1, 214005, Note_off_c, 0, 70, 60
1, 214155, Note_off_c, 0, 58, 35
1, 214682, Note_on_c, 0, 75, 71
1, 214710, Note_on_c, 0, 67, 50
1, 214716, Note_on_c, 0, 51, 36
1, 214721, Note_on_c, 0, 58, 32
1, 214806, Note_off_c, 0, 51, 50
1, 214876, Note_off_c, 0, 58, 33
1, 214895, Note_off_c, 0, 75, 60
1, 214908, Note_off_c, 0, 67, 38
1, 215306, Note_on_c, 0, 75, 59
1, 215319, Note_on_c, 0, 51, 24
1, 215327, Note_on_c, 0, 58, 25
1, 215338, Note_on_c, 0, 67, 43
1, 216295, Note_off_c, 0, 67, 54
1, 216346, Note_off_c, 0, 75, 56
1, 216560, Note_off_c, 0, 58, 42
1, 216599, Note_off_c, 0, 51, 35
1, 217298, Note_on_c, 0, 51, 30
1, 217313, Note_on_c, 0, 60, 28
1, 217315, Note_on_c, 0, 67, 25
1, 217383, Poly_aftertouch_c, 0, 66, 127
1, 217410, Poly_aftertouch_c, 0, 66, 0
1, 217547, Note_off_c, 0, 60, 42
1, 217753, Note_on_c, 0, 43, 30
1, 217805, Note_on_c, 0, 55, 20
1, 217848, Note_on_c, 0, 70, 57
1, 217860, Control_c, 0, 64, 117
1, 217867, Note_on_c, 0, 62, 38
1, 217870, Note_on_c, 0, 58, 36
1, 217871, Note_off_c, 0, 51, 35
1, 217874, Control_c, 0, 64, 80
1, 217889, Control_c, 0, 64, 63
1, 217904, Control_c, 0, 64, 0
1, 218030, Control_c, 0, 64, 54
1, 218045, Control_c, 0, 64, 62
1, 218060, Control_c, 0, 64, 67
1, 218073, Note_off_c, 0, 67, 19
1, 218074, Control_c, 0, 64, 71
1, 218089, Control_c, 0, 64, 77
1, 218104, Control_c, 0, 64, 86
1, 218118, Note_off_c, 0, 62, 61
1, 218119, Control_c, 0, 64, 111
1, 218133, Control_c, 0, 64, 127
1, 218179, Note_off_c, 0, 70, 62
1, 218196, Note_off_c, 0, 58, 52
1, 218282, Note_off_c, 0, 43, 41
1, 218448, Note_off_c, 0, 55, 44
1, 218555, Note_on_c, 0, 48, 29
1, 218632, Note_on_c, 0, 64, 31
1, 218636, Note_on_c, 0, 72, 60
1, 218638, Control_c, 0, 64, 82
1, 218652, Note_on_c, 0, 58, 35
1, 218653, Control_c, 0, 64, 62
1, 218668, Control_c, 0, 64, 0
1, 218727, Control_c, 0, 64, 50
1, 218749, Control_c, 0, 64, 62
1, 218764, Control_c, 0, 64, 67
1, 218778, Control_c, 0, 64, 70
1, 218793, Control_c, 0, 64, 74
1, 218808, Control_c, 0, 64, 77
1, 218823, Control_c, 0, 64, 81
1, 218838, Control_c, 0, 64, 86
1, 218853, Control_c, 0, 64, 92
1, 218868, Control_c, 0, 64, 104
1, 218870, Note_off_c, 0, 58, 55
1, 218883, Control_c, 0, 64, 127
1, 218888, Note_off_c, 0, 64, 42
1, 218955, Note_off_c, 0, 72, 39
1, 219080, Note_off_c, 0, 48, 29
1, 219229, Note_on_c, 0, 41, 39
1, 219267, Control_c, 0, 64, 94
1, 219282, Control_c, 0, 64, 71
1, 219297, Control_c, 0, 64, 56
1, 219312, Control_c, 0, 64, 24
1, 219327, Control_c, 0, 64, 0
1, 219341, Control_c, 0, 64, 14
1, 219356, Control_c, 0, 64, 43
1, 219371, Control_c, 0, 64, 58
1, 219386, Control_c, 0, 64, 64
1, 219401, Note_on_c, 0, 57, 37
1, 219401, Control_c, 0, 64, 67
1, 219416, Control_c, 0, 64, 69
1, 219431, Control_c, 0, 64, 72
1, 219446, Control_c, 0, 64, 75
1, 219461, Control_c, 0, 64, 78
1, 219476, Control_c, 0, 64, 84
1, 219498, Control_c, 0, 64, 92
1, 219513, Control_c, 0, 64, 117
1, 219527, Control_c, 0, 64, 127
1, 219561, Note_off_c, 0, 57, 37
1, 219623, Note_on_c, 0, 63, 42
1, 220096, Note_on_c, 0, 72, 51
1, 220365, Note_off_c, 0, 72, 34
1, 220475, Note_off_c, 0, 63, 37
1, 220528, Note_off_c, 0, 41, 42
1, 221337, Control_c, 0, 64, 112
1, 221340, Note_on_c, 0, 70, 37
1, 221351, Control_c, 0, 64, 79
1, 221356, Note_on_c, 0, 62, 36
1, 221366, Control_c, 0, 64, 64
1, 221370, Note_on_c, 0, 58, 21
1, 221381, Control_c, 0, 64, 44
1, 221396, Control_c, 0, 64, 33
1, 221405, Note_on_c, 0, 34, 7
1, 221411, Control_c, 0, 64, 34
1, 221425, Control_c, 0, 64, 49
1, 221440, Control_c, 0, 64, 62
1, 221455, Control_c, 0, 64, 69
1, 221470, Control_c, 0, 64, 77
1, 221485, Control_c, 0, 64, 90
1, 221500, Control_c, 0, 64, 119
1, 221515, Control_c, 0, 64, 127
1, 221563, Note_off_c, 0, 34, 42
1, 221572, Note_off_c, 0, 70, 51
1, 221625, Note_off_c, 0, 62, 38
1, 221631, Note_off_c, 0, 58, 39
1, 222007, Note_on_c, 0, 70, 41
1, 222034, Note_on_c, 0, 46, 27
1, 222034, Note_on_c, 0, 62, 31
1, 222038, Note_on_c, 0, 58, 20
1, 222040, Note_on_c, 0, 53, 22
1, 222704, Note_off_c, 0, 58, 42
1, 222711, Note_off_c, 0, 62, 39
1, 223359, Note_on_c, 0, 50, 29
1, 223361, Note_on_c, 0, 62, 38
1, 223375, Control_c, 0, 64, 98
1, 223391, Control_c, 0, 64, 73
1, 223406, Control_c, 0, 64, 58
1, 223420, Control_c, 0, 64, 40
1, 223450, Control_c, 0, 64, 49
1, 223465, Control_c, 0, 64, 60
1, 223480, Control_c, 0, 64, 65
1, 223494, Control_c, 0, 64, 69
1, 223509, Control_c, 0, 64, 73
1, 223524, Control_c, 0, 64, 76
1, 223533, Note_off_c, 0, 46, 50
1, 223537, Note_off_c, 0, 53, 42
1, 223539, Control_c, 0, 64, 79
1, 223554, Control_c, 0, 64, 82
1, 223569, Control_c, 0, 64, 87
1, 223584, Control_c, 0, 64, 94
1, 223599, Control_c, 0, 64, 109
1, 223613, Control_c, 0, 64, 127
1, 223745, Note_off_c, 0, 70, 53
1, 223942, Note_on_c, 0, 42, 35
1, 224050, Control_c, 0, 64, 121
1, 224065, Control_c, 0, 64, 90
1, 224066, Note_on_c, 0, 60, 40
1, 224080, Control_c, 0, 64, 68
1, 224094, Control_c, 0, 64, 49
1, 224109, Control_c, 0, 64, 0
1, 224168, Control_c, 0, 64, 40
1, 224183, Control_c, 0, 64, 57
1, 224199, Control_c, 0, 64, 62
1, 224214, Control_c, 0, 64, 65
1, 224229, Control_c, 0, 64, 66
1, 224243, Control_c, 0, 64, 67
1, 224258, Control_c, 0, 64, 69
1, 224273, Control_c, 0, 64, 71
1, 224288, Control_c, 0, 64, 75
1, 224303, Control_c, 0, 64, 80
1, 224317, Control_c, 0, 64, 87
1, 224332, Control_c, 0, 64, 95
1, 224347, Control_c, 0, 64, 104
1, 224362, Control_c, 0, 64, 118
1, 224377, Control_c, 0, 64, 127
1, 224440, Note_on_c, 0, 63, 45
1, 224463, Note_on_c, 0, 51, 43
1, 224502, Note_off_c, 0, 62, 36
1, 224536, Note_off_c, 0, 50, 37
1, 224620, Note_off_c, 0, 63, 62
1, 224630, Note_on_c, 0, 50, 42
1, 224633, Note_on_c, 0, 62, 53
1, 224717, Control_c, 0, 64, 115
1, 224725, Note_off_c, 0, 42, 42
1, 224738, Note_off_c, 0, 51, 33
1, 224740, Control_c, 0, 64, 112
1, 224755, Control_c, 0, 64, 111
1, 224769, Control_c, 0, 64, 110
1, 224784, Note_on_c, 0, 69, 71
1, 224784, Control_c, 0, 64, 108
1, 224799, Control_c, 0, 64, 107
1, 224814, Control_c, 0, 64, 105
1, 224829, Control_c, 0, 64, 103
1, 224843, Control_c, 0, 64, 101
1, 224858, Control_c, 0, 64, 99
1, 224873, Control_c, 0, 64, 98
1, 224883, Note_off_c, 0, 69, 57
1, 224888, Control_c, 0, 64, 96
1, 224903, Note_on_c, 0, 66, 64
1, 224903, Control_c, 0, 64, 94
1, 224909, Note_off_c, 0, 62, 52
1, 224917, Control_c, 0, 64, 93
1, 224932, Control_c, 0, 64, 93
1, 224947, Control_c, 0, 64, 92
1, 224961, Control_c, 0, 64, 91
1, 224976, Note_off_c, 0, 60, 58
1, 224976, Control_c, 0, 64, 90
1, 224993, Control_c, 0, 64, 90
1, 225004, Note_off_c, 0, 66, 59
1, 225008, Note_on_c, 0, 63, 66
1, 225008, Control_c, 0, 64, 89
1, 225064, Note_on_c, 0, 43, 38
1, 225081, Control_c, 0, 64, 90
1, 225111, Control_c, 0, 64, 86
1, 225126, Control_c, 0, 64, 73
1, 225133, Note_off_c, 0, 63, 59
1, 225140, Control_c, 0, 64, 58
1, 225154, Note_on_c, 0, 62, 57
1, 225155, Control_c, 0, 64, 0
1, 225161, Note_off_c, 0, 50, 41
1, 225165, Note_on_c, 0, 58, 51
1, 225214, Control_c, 0, 64, 20
1, 225229, Control_c, 0, 64, 55
1, 225241, Note_on_c, 0, 51, 40
1, 225244, Control_c, 0, 64, 63
1, 225259, Control_c, 0, 64, 67
1, 225274, Control_c, 0, 64, 70
1, 225284, Note_on_c, 0, 63, 63
1, 225289, Control_c, 0, 64, 74
1, 225292, Note_off_c, 0, 58, 49
1, 225302, Note_off_c, 0, 62, 59
1, 225304, Control_c, 0, 64, 77
1, 225319, Control_c, 0, 64, 83
1, 225333, Control_c, 0, 64, 92
1, 225348, Control_c, 0, 64, 112
1, 225363, Control_c, 0, 64, 127
1, 225375, Note_on_c, 0, 50, 49
1, 225394, Note_on_c, 0, 62, 66
1, 225407, Note_off_c, 0, 51, 47
1, 225421, Note_off_c, 0, 43, 53
1, 225494, Note_on_c, 0, 70, 77
1, 225515, Note_off_c, 0, 63, 54
1, 225593, Note_on_c, 0, 67, 69
1, 225596, Note_off_c, 0, 62, 56
1, 225621, Note_off_c, 0, 70, 60
1, 225639, Note_off_c, 0, 50, 53
1, 225686, Note_off_c, 0, 67, 64
1, 225695, Note_on_c, 0, 63, 65
1, 225739, Control_c, 0, 64, 118
1, 225751, Note_on_c, 0, 45, 46
1, 225754, Control_c, 0, 64, 68
1, 225769, Control_c, 0, 64, 0
1, 225844, Control_c, 0, 64, 50
1, 225852, Note_on_c, 0, 54, 59
1, 225859, Control_c, 0, 64, 64
1, 225874, Control_c, 0, 64, 70
1, 225875, Note_off_c, 0, 63, 55
1, 225888, Control_c, 0, 64, 77
1, 225903, Note_off_c, 0, 45, 63
1, 225903, Control_c, 0, 64, 85
1, 225918, Control_c, 0, 64, 93
1, 225921, Poly_aftertouch_c, 0, 61, 127
1, 225933, Control_c, 0, 64, 103
1, 225943, Note_off_c, 0, 54, 64
1, 225948, Control_c, 0, 64, 123
1, 225959, Poly_aftertouch_c, 0, 61, 0
1, 225962, Control_c, 0, 64, 127
1, 225992, Note_on_c, 0, 63, 61
1, 226025, Note_off_c, 0, 63, 66
1, 226107, Note_on_c, 0, 62, 61
1, 226123, Note_on_c, 0, 60, 47
1, 226126, Control_c, 0, 64, 121
1, 226141, Control_c, 0, 64, 108
1, 226155, Control_c, 0, 64, 102
1, 226158, Note_off_c, 0, 60, 64
1, 226170, Note_off_c, 0, 62, 56
1, 226170, Control_c, 0, 64, 98
1, 226185, Control_c, 0, 64, 93
1, 226198, Note_on_c, 0, 66, 72
1, 226199, Control_c, 0, 64, 88
1, 226214, Control_c, 0, 64, 83
1, 226237, Control_c, 0, 64, 80
1, 226252, Control_c, 0, 64, 77
1, 226266, Control_c, 0, 64, 76
1, 226281, Control_c, 0, 64, 75
1, 226291, Note_on_c, 0, 72, 72
1, 226293, Note_off_c, 0, 66, 62
1, 226296, Control_c, 0, 64, 75
1, 226320, Note_off_c, 0, 72, 68
1, 226326, Control_c, 0, 64, 74
1, 226341, Control_c, 0, 64, 74
1, 226355, Control_c, 0, 64, 73
1, 226383, Note_on_c, 0, 74, 73
1, 226429, Control_c, 0, 64, 73
1, 226459, Control_c, 0, 64, 72
1, 226464, Note_on_c, 0, 78, 76
1, 226475, Note_off_c, 0, 74, 61
1, 226488, Control_c, 0, 64, 72
1, 226525, Note_off_c, 0, 78, 64
1, 226541, Note_on_c, 0, 84, 69
1, 226548, Control_c, 0, 64, 71
1, 226562, Control_c, 0, 64, 71
1, 226574, Note_off_c, 0, 84, 65
1, 226593, Control_c, 0, 64, 70
1, 226608, Control_c, 0, 64, 69
1, 226623, Control_c, 0, 64, 68
1, 226633, Note_on_c, 0, 84, 70
1, 226637, Control_c, 0, 64, 67
1, 226652, Control_c, 0, 64, 67
1, 226667, Control_c, 0, 64, 66
1, 226697, Control_c, 0, 64, 66
1, 226711, Control_c, 0, 64, 65
1, 226722, Note_off_c, 0, 84, 61
1, 226726, Control_c, 0, 64, 59
1, 226741, Control_c, 0, 64, 0
1, 226765, Note_on_c, 0, 93, 62
1, 226858, Note_off_c, 0, 93, 64
1, 226904, Control_c, 0, 64, 14
1, 226919, Control_c, 0, 64, 34
1, 226934, Control_c, 0, 64, 50
1, 226949, Control_c, 0, 64, 60
1, 226964, Control_c, 0, 64, 67
1, 226985, Control_c, 0, 64, 73
1, 227000, Control_c, 0, 64, 82
1, 227015, Control_c, 0, 64, 93
1, 227030, Control_c, 0, 64, 109
1, 227044, Control_c, 0, 64, 127
1, 227233, Note_on_c, 0, 91, 46
1, 227278, Note_on_c, 0, 82, 40
1, 227307, Note_off_c, 0, 91, 63
1, 227408, Note_off_c, 0, 82, 56
1, 227483, Note_on_c, 0, 38, 17
1, 227566, Note_on_c, 0, 81, 44
1, 227614, Note_off_c, 0, 38, 33
1, 227749, Note_on_c, 0, 90, 60
1, 227816, Note_on_c, 0, 50, 22
1, 227825, Note_off_c, 0, 81, 45
1, 227846, Note_off_c, 0, 90, 61
1, 227855, Note_off_c, 0, 50, 52
1, 227876, Note_on_c, 0, 87, 39
1, 227906, Note_off_c, 0, 87, 57
1, 227974, Note_on_c, 0, 78, 57
1, 228071, Note_on_c, 0, 86, 62
1, 228079, Note_off_c, 0, 78, 58
1, 228091, Note_on_c, 0, 57, 44
1, 228153, Note_off_c, 0, 86, 63
1, 228171, Note_on_c, 0, 84, 61
1, 228209, Note_off_c, 0, 84, 65
1, 228214, Note_on_c, 0, 75, 21
1, 228242, Note_off_c, 0, 57, 60
1, 228275, Note_off_c, 0, 75, 41
1, 228276, Note_on_c, 0, 60, 54
1, 228284, Note_on_c, 0, 74, 75
1, 228380, Note_on_c, 0, 82, 73
1, 228431, Note_off_c, 0, 82, 66
1, 228433, Note_off_c, 0, 74, 57
1, 228482, Note_on_c, 0, 81, 66
1, 228505, Note_on_c, 0, 74, 12
1, 228519, Note_on_c, 0, 66, 42
1, 228543, Note_off_c, 0, 60, 62
1, 228547, Note_off_c, 0, 66, 58
1, 228547, Note_off_c, 0, 74, 51
1, 228568, Note_off_c, 0, 81, 63
1, 228579, Note_on_c, 0, 75, 75
1, 228698, Note_on_c, 0, 84, 81
1, 228797, Note_off_c, 0, 75, 48
1, 228802, Note_on_c, 0, 82, 70
1, 228851, Note_off_c, 0, 84, 55
1, 228931, Note_on_c, 0, 43, 45
1, 229009, Note_on_c, 0, 72, 56
1, 229031, Control_c, 0, 64, 77
1, 229046, Control_c, 0, 64, 47
1, 229049, Note_off_c, 0, 82, 64
1, 229061, Control_c, 0, 64, 0
1, 229120, Control_c, 0, 64, 26
1, 229135, Control_c, 0, 64, 58
1, 229150, Control_c, 0, 64, 65
1, 229165, Control_c, 0, 64, 69
1, 229179, Control_c, 0, 64, 73
1, 229194, Control_c, 0, 64, 78
1, 229197, Note_on_c, 0, 81, 48
1, 229209, Control_c, 0, 64, 82
1, 229231, Control_c, 0, 64, 89
1, 229246, Control_c, 0, 64, 101
1, 229261, Control_c, 0, 64, 127
1, 229277, Note_off_c, 0, 72, 38
1, 229281, Note_on_c, 0, 50, 34
1, 229289, Note_off_c, 0, 81, 64
1, 229315, Note_on_c, 0, 82, 62
1, 229335, Note_off_c, 0, 43, 58
1, 229346, Note_off_c, 0, 50, 61
1, 229380, Note_on_c, 0, 74, 33
1, 229411, Note_off_c, 0, 82, 61
1, 229413, Note_off_c, 0, 74, 54
1, 229450, Note_on_c, 0, 78, 57
1, 229468, Note_on_c, 0, 69, 47
1, 229537, Note_off_c, 0, 69, 56
1, 229584, Note_off_c, 0, 78, 54
1, 229588, Note_on_c, 0, 62, 39
1, 229607, Note_on_c, 0, 81, 56
1, 229631, Control_c, 0, 64, 112
1, 229635, Note_on_c, 0, 72, 43
1, 229646, Control_c, 0, 64, 76
1, 229661, Control_c, 0, 64, 57
1, 229676, Control_c, 0, 64, 48
1, 229691, Control_c, 0, 64, 51
1, 229705, Control_c, 0, 64, 59
1, 229720, Control_c, 0, 64, 66
1, 229735, Control_c, 0, 64, 73
1, 229750, Control_c, 0, 64, 86
1, 229755, Note_off_c, 0, 72, 64
1, 229765, Control_c, 0, 64, 105
1, 229781, Note_off_c, 0, 62, 56
1, 229781, Control_c, 0, 64, 127
1, 229790, Note_on_c, 0, 66, 37
1, 229848, Note_off_c, 0, 81, 63
1, 229925, Note_on_c, 0, 79, 51
1, 229949, Note_on_c, 0, 70, 27
1, 229986, Note_off_c, 0, 79, 59
1, 230002, Note_off_c, 0, 70, 47
1, 230004, Note_off_c, 0, 66, 38
1, 230010, Control_c, 0, 64, 89
1, 230025, Control_c, 0, 64, 70
1, 230040, Control_c, 0, 64, 58
1, 230054, Control_c, 0, 64, 53
1, 230069, Control_c, 0, 64, 56
1, 230084, Control_c, 0, 64, 62
1, 230095, Note_on_c, 0, 67, 35
1, 230099, Control_c, 0, 64, 68
1, 230110, Note_on_c, 0, 79, 53
1, 230114, Control_c, 0, 64, 75
1, 230121, Note_on_c, 0, 70, 44
1, 230128, Control_c, 0, 64, 90
1, 230143, Control_c, 0, 64, 123
1, 230158, Note_off_c, 0, 79, 60
1, 230158, Control_c, 0, 64, 127
1, 230168, Note_off_c, 0, 67, 60
1, 230213, Note_off_c, 0, 70, 62
1, 230439, Note_on_c, 0, 66, 47
1, 230454, Note_on_c, 0, 54, 43
1, 230499, Note_off_c, 0, 54, 59
1, 230549, Note_off_c, 0, 66, 60
1, 230613, Note_on_c, 0, 54, 49
1, 230637, Note_on_c, 0, 66, 58
1, 230702, Note_off_c, 0, 54, 59
1, 230740, Note_off_c, 0, 66, 62
1, 230754, Note_on_c, 0, 53, 56
1, 230768, Note_on_c, 0, 65, 67
1, 230794, Note_off_c, 0, 53, 63
1, 230824, Note_off_c, 0, 65, 63
1, 230879, Note_on_c, 0, 53, 59
1, 230886, Note_on_c, 0, 65, 68
1, 230964, Note_off_c, 0, 53, 59
1, 230985, Note_on_c, 0, 52, 55
1, 230987, Note_off_c, 0, 65, 62
1, 231003, Note_on_c, 0, 64, 75
1, 231146, Note_on_c, 0, 44, 54
1, 231212, Note_off_c, 0, 64, 61
1, 231217, Note_on_c, 0, 62, 68
1, 231248, Control_c, 0, 64, 118
1, 231263, Control_c, 0, 64, 73
1, 231271, Note_off_c, 0, 52, 25
1, 231277, Control_c, 0, 64, 0
1, 231382, Control_c, 0, 64, 37
1, 231397, Control_c, 0, 64, 51
1, 231400, Note_on_c, 0, 53, 44
1, 231403, Note_on_c, 0, 65, 66
1, 231412, Control_c, 0, 64, 55
1, 231426, Control_c, 0, 64, 58
1, 231441, Control_c, 0, 64, 61
1, 231456, Control_c, 0, 64, 64
1, 231479, Control_c, 0, 64, 66
1, 231480, Note_off_c, 0, 65, 62
1, 231494, Control_c, 0, 64, 70
1, 231508, Control_c, 0, 64, 74
1, 231523, Note_on_c, 0, 52, 55
1, 231523, Control_c, 0, 64, 82
1, 231528, Note_on_c, 0, 64, 67
1, 231538, Control_c, 0, 64, 92
1, 231553, Control_c, 0, 64, 110
1, 231568, Control_c, 0, 64, 127
1, 231625, Note_on_c, 0, 71, 79
1, 231655, Note_off_c, 0, 44, 58
1, 231659, Note_off_c, 0, 64, 60
1, 231668, Note_off_c, 0, 62, 61
1, 231713, Note_on_c, 0, 68, 73
1, 231750, Note_off_c, 0, 71, 60
1, 231783, Note_off_c, 0, 68, 62
1, 231792, Note_on_c, 0, 65, 73
1, 231805, Note_off_c, 0, 53, 26
1, 231866, Note_on_c, 0, 45, 61
1, 231879, Control_c, 0, 64, 112
1, 231884, Note_on_c, 0, 60, 50
1, 231893, Control_c, 0, 64, 68
1, 231901, Note_on_c, 0, 64, 75
1, 231903, Note_off_c, 0, 65, 63
1, 231908, Control_c, 0, 64, 29
1, 231923, Control_c, 0, 64, 0
1, 231928, Note_off_c, 0, 60, 61
1, 231929, Note_off_c, 0, 52, 53
1, 231953, Control_c, 0, 64, 36
1, 231967, Control_c, 0, 64, 61
1, 231982, Control_c, 0, 64, 69
1, 231996, Note_off_c, 0, 64, 63
1, 231997, Control_c, 0, 64, 82
1, 232003, Note_on_c, 0, 65, 77
1, 232006, Note_on_c, 0, 53, 44
1, 232012, Control_c, 0, 64, 109
1, 232026, Control_c, 0, 64, 127
1, 232085, Note_on_c, 0, 64, 80
1, 232090, Note_off_c, 0, 53, 54
1, 232091, Note_off_c, 0, 45, 63
1, 232106, Note_off_c, 0, 65, 61
1, 232125, Note_on_c, 0, 52, 41
1, 232168, Note_on_c, 0, 72, 86
1, 232197, Note_off_c, 0, 64, 58
1, 232260, Note_on_c, 0, 69, 80
1, 232290, Note_off_c, 0, 72, 62
1, 232337, Note_off_c, 0, 69, 63
1, 232359, Note_on_c, 0, 66, 53
1, 232360, Note_on_c, 0, 65, 70
1, 232375, Control_c, 0, 64, 73
1, 232390, Control_c, 0, 64, 0
1, 232419, Note_on_c, 0, 47, 64
1, 232421, Note_off_c, 0, 66, 63
1, 232449, Control_c, 0, 64, 52
1, 232464, Control_c, 0, 64, 69
1, 232479, Control_c, 0, 64, 81
1, 232494, Control_c, 0, 64, 115
1, 232494, Note_off_c, 0, 52, 62
1, 232495, Note_on_c, 0, 56, 82
1, 232508, Control_c, 0, 64, 127
1, 232520, Note_off_c, 0, 65, 50
1, 232534, Note_off_c, 0, 47, 62
1, 232559, Note_off_c, 0, 56, 66
1, 232603, Note_on_c, 0, 65, 67
1, 232632, Note_off_c, 0, 65, 67
1, 232699, Note_on_c, 0, 62, 75
1, 232703, Note_on_c, 0, 64, 81
1, 232723, Note_off_c, 0, 62, 69
1, 232789, Note_on_c, 0, 68, 88
1, 232792, Note_off_c, 0, 64, 56
1, 232863, Note_on_c, 0, 74, 82
1, 232865, Note_off_c, 0, 68, 64
1, 232890, Note_off_c, 0, 74, 66
1, 232941, Note_on_c, 0, 76, 90
1, 232991, Control_c, 0, 64, 84
1, 233006, Control_c, 0, 64, 74
1, 233021, Control_c, 0, 64, 77
1, 233027, Note_on_c, 0, 80, 84
1, 233035, Control_c, 0, 64, 89
1, 233050, Control_c, 0, 64, 127
1, 233051, Note_off_c, 0, 76, 61
1, 233098, Note_off_c, 0, 80, 65
1, 233099, Note_on_c, 0, 86, 83
1, 233111, Note_on_c, 0, 84, 66
1, 233128, Note_off_c, 0, 84, 66
1, 233137, Note_off_c, 0, 86, 65
1, 233139, Control_c, 0, 64, 87
1, 233153, Control_c, 0, 64, 76
1, 233168, Control_c, 0, 64, 74
1, 233183, Control_c, 0, 64, 77
1, 233190, Note_on_c, 0, 86, 90
1, 233198, Control_c, 0, 64, 92
1, 233213, Control_c, 0, 64, 127
1, 233302, Note_on_c, 0, 95, 98
1, 233322, Note_off_c, 0, 86, 65
1, 233336, Note_off_c, 0, 95, 68
1, 233608, Note_on_c, 0, 93, 102
1, 233619, Note_on_c, 0, 84, 87
1, 233783, Note_off_c, 0, 84, 61
1, 233829, Note_on_c, 0, 40, 88
1, 233858, Control_c, 0, 64, 75
1, 233873, Control_c, 0, 64, 37
1, 233885, Note_on_c, 0, 84, 104
1, 233888, Control_c, 0, 64, 0
1, 233917, Control_c, 0, 64, 42
1, 233924, Note_off_c, 0, 93, 62
1, 233932, Control_c, 0, 64, 65
1, 233947, Control_c, 0, 64, 88
1, 233962, Control_c, 0, 64, 127
1, 234047, Note_on_c, 0, 93, 68
1, 234092, Note_off_c, 0, 84, 63
1, 234190, Note_on_c, 0, 92, 91
1, 234197, Note_off_c, 0, 40, 63
1, 234198, Note_on_c, 0, 52, 77
1, 234206, Note_on_c, 0, 83, 86
1, 234216, Note_off_c, 0, 93, 61
1, 234231, Note_off_c, 0, 52, 68
1, 234250, Note_off_c, 0, 83, 66
1, 234263, Note_off_c, 0, 92, 66
1, 234332, Note_on_c, 0, 81, 87
1, 234397, Note_off_c, 0, 81, 63
1, 234415, Poly_aftertouch_c, 0, 87, 127
1, 234430, Note_on_c, 0, 89, 88
1, 234431, Note_on_c, 0, 59, 72
1, 234455, Poly_aftertouch_c, 0, 87, 0
1, 234524, Note_off_c, 0, 89, 61
1, 234533, Note_on_c, 0, 88, 80
1, 234538, Note_on_c, 0, 80, 90
1, 234570, Note_off_c, 0, 88, 65
1, 234583, Note_off_c, 0, 80, 65
1, 234631, Note_on_c, 0, 62, 71
1, 234641, Note_on_c, 0, 77, 98
1, 234687, Note_on_c, 0, 82, 38
1, 234722, Note_off_c, 0, 82, 47
1, 234729, Note_on_c, 0, 86, 93
1, 234759, Note_off_c, 0, 77, 65
1, 234814, Note_on_c, 0, 68, 70
1, 234822, Note_on_c, 0, 84, 92
1, 234839, Note_on_c, 0, 76, 70
1, 234851, Note_off_c, 0, 68, 63
1, 234857, Note_off_c, 0, 86, 63
1, 234858, Note_off_c, 0, 76, 65
1, 234865, Note_off_c, 0, 62, 64
1, 234871, Note_off_c, 0, 59, 64
1, 234908, Note_on_c, 0, 83, 87
1, 234913, Note_on_c, 0, 74, 81
1, 234950, Note_off_c, 0, 84, 62
1, 234963, Note_off_c, 0, 74, 64
1, 235030, Note_on_c, 0, 86, 91
1, 235033, Note_on_c, 0, 77, 84
1, 235040, Note_off_c, 0, 83, 63
1, 235087, Note_off_c, 0, 77, 60
1, 235135, Note_on_c, 0, 84, 88
1, 235138, Note_on_c, 0, 76, 85
1, 235206, Poly_aftertouch_c, 0, 77, 0
1, 235234, Note_off_c, 0, 76, 63
1, 235266, Control_c, 0, 64, 85
1, 235272, Note_on_c, 0, 33, 86
1, 235281, Control_c, 0, 64, 50
1, 235296, Control_c, 0, 64, 0
1, 235306, Note_off_c, 0, 84, 52
1, 235322, Note_off_c, 0, 86, 56
1, 235342, Note_on_c, 0, 74, 82
1, 235343, Note_off_c, 0, 33, 63
1, 235355, Control_c, 0, 64, 56
1, 235371, Control_c, 0, 64, 69
1, 235386, Control_c, 0, 64, 79
1, 235401, Control_c, 0, 64, 89
1, 235416, Control_c, 0, 64, 93
1, 235430, Control_c, 0, 64, 94
1, 235445, Control_c, 0, 64, 99
1, 235450, Note_off_c, 0, 74, 55
1, 235460, Control_c, 0, 64, 127
1, 235470, Note_on_c, 0, 83, 84
1, 235527, Note_on_c, 0, 82, 23
1, 235550, Note_off_c, 0, 83, 63
1, 235552, Note_on_c, 0, 45, 74
1, 235565, Note_off_c, 0, 82, 44
1, 235571, Note_on_c, 0, 84, 89
1, 235587, Note_on_c, 0, 76, 75
1, 235623, Note_off_c, 0, 76, 63
1, 235627, Note_off_c, 0, 84, 65
1, 235631, Note_off_c, 0, 45, 60
1, 235667, Note_on_c, 0, 52, 65
1, 235680, Note_on_c, 0, 80, 83
1, 235686, Note_on_c, 0, 71, 83
1, 235758, Note_off_c, 0, 71, 53
1, 235779, Note_off_c, 0, 80, 63
1, 235782, Note_on_c, 0, 57, 70
1, 235802, Note_on_c, 0, 83, 87
1, 235815, Note_on_c, 0, 74, 74
1, 235815, Control_c, 0, 64, 79
1, 235830, Control_c, 0, 64, 55
1, 235845, Control_c, 0, 64, 0
1, 235874, Control_c, 0, 64, 21
1, 235889, Control_c, 0, 64, 58
1, 235904, Control_c, 0, 64, 68
1, 235919, Control_c, 0, 64, 79
1, 235934, Control_c, 0, 64, 96
1, 235948, Control_c, 0, 64, 127
1, 235967, Note_on_c, 0, 64, 78
1, 235968, Note_off_c, 0, 52, 65
1, 235984, Note_off_c, 0, 57, 66
1, 235990, Note_off_c, 0, 64, 70
1, 235996, Note_off_c, 0, 74, 61
1, 236047, Note_on_c, 0, 81, 74
1, 236058, Note_on_c, 0, 72, 67
1, 236219, Note_on_c, 0, 69, 69
1, 236232, Note_on_c, 0, 67, 77
1, 236238, Control_c, 0, 64, 109
1, 236253, Control_c, 0, 64, 74
1, 236267, Note_off_c, 0, 72, 59
1, 236267, Control_c, 0, 64, 60
1, 236275, Note_off_c, 0, 67, 0
1, 236282, Control_c, 0, 64, 45
1, 236294, Note_on_c, 0, 67, 27
1, 236297, Control_c, 0, 64, 48
1, 236303, Note_off_c, 0, 81, 61
1, 236312, Control_c, 0, 64, 59
1, 236327, Control_c, 0, 64, 65
1, 236342, Control_c, 0, 64, 71
1, 236357, Control_c, 0, 64, 77
1, 236371, Control_c, 0, 64, 83
1, 236386, Control_c, 0, 64, 85
1, 236416, Note_off_c, 0, 67, 24
1, 236416, Control_c, 0, 64, 86
1, 236416, Note_on_c, 0, 81, 73
1, 236425, Note_on_c, 0, 72, 68
1, 236431, Control_c, 0, 64, 88
1, 236445, Control_c, 0, 64, 93
1, 236460, Control_c, 0, 64, 106
1, 236475, Control_c, 0, 64, 127
1, 236562, Note_on_c, 0, 64, 74
1, 236562, Note_off_c, 0, 72, 60
1, 236568, Note_off_c, 0, 81, 62
1, 236578, Control_c, 0, 64, 90
1, 236593, Control_c, 0, 64, 69
1, 236608, Control_c, 0, 64, 56
1, 236623, Control_c, 0, 64, 52
1, 236637, Control_c, 0, 64, 56
1, 236652, Control_c, 0, 64, 63
1, 236667, Control_c, 0, 64, 68
1, 236678, Note_on_c, 0, 81, 72
1, 236682, Note_on_c, 0, 72, 67
1, 236682, Control_c, 0, 64, 73
1, 236697, Control_c, 0, 64, 78
1, 236719, Control_c, 0, 64, 81
1, 236730, Note_off_c, 0, 69, 39
1, 236778, Control_c, 0, 64, 83
1, 236793, Control_c, 0, 64, 86
1, 236808, Control_c, 0, 64, 91
1, 236819, Note_off_c, 0, 83, 52
1, 236823, Control_c, 0, 64, 98
1, 236838, Control_c, 0, 64, 105
1, 236852, Control_c, 0, 64, 104
1, 236867, Control_c, 0, 64, 100
1, 236882, Control_c, 0, 64, 90
1, 236887, Note_off_c, 0, 81, 57
1, 236891, Note_on_c, 0, 63, 57
1, 236896, Control_c, 0, 64, 76
1, 236911, Control_c, 0, 64, 66
1, 236923, Note_off_c, 0, 72, 39
1, 236926, Control_c, 0, 64, 57
1, 236941, Control_c, 0, 64, 53
1, 236956, Control_c, 0, 64, 55
1, 236972, Control_c, 0, 64, 59
1, 236987, Control_c, 0, 64, 64
1, 236989, Note_off_c, 0, 64, 59
1, 237001, Control_c, 0, 64, 67
1, 237016, Control_c, 0, 64, 71
1, 237031, Control_c, 0, 64, 73
1, 237046, Control_c, 0, 64, 73
1, 237073, Note_on_c, 0, 81, 54
1, 237081, Note_on_c, 0, 72, 41
1, 237090, Control_c, 0, 64, 74
1, 237105, Control_c, 0, 64, 77
1, 237120, Control_c, 0, 64, 80
1, 237135, Control_c, 0, 64, 83
1, 237150, Control_c, 0, 64, 85
1, 237180, Control_c, 0, 64, 84
1, 237254, Control_c, 0, 64, 84
1, 237283, Control_c, 0, 64, 83
1, 237298, Control_c, 0, 64, 82
1, 237312, Control_c, 0, 64, 81
1, 237327, Control_c, 0, 64, 80
1, 237342, Control_c, 0, 64, 79
1, 237357, Control_c, 0, 64, 79
1, 237372, Control_c, 0, 64, 78
1, 237401, Control_c, 0, 64, 78
1, 237406, Note_on_c, 0, 62, 47
1, 237416, Control_c, 0, 64, 77
1, 237430, Control_c, 0, 64, 77
1, 237445, Control_c, 0, 64, 76
1, 237451, Note_off_c, 0, 63, 61
1, 237468, Control_c, 0, 64, 74
1, 237483, Control_c, 0, 64, 69
1, 237498, Control_c, 0, 64, 62
1, 237511, Control_c, 0, 64, 49
1, 237526, Control_c, 0, 64, 0
1, 237661, Note_on_c, 0, 82, 58
1, 237665, Note_off_c, 0, 81, 64
1, 237705, Note_off_c, 0, 72, 56
1, 237710, Note_on_c, 0, 74, 52
1, 237719, Control_c, 0, 64, 22
1, 237734, Control_c, 0, 64, 41
1, 237749, Control_c, 0, 64, 51
1, 237764, Control_c, 0, 64, 57
1, 237779, Control_c, 0, 64, 61
1, 237794, Control_c, 0, 64, 63
1, 237809, Control_c, 0, 64, 66
1, 237823, Control_c, 0, 64, 68
1, 237838, Note_off_c, 0, 74, 50
1, 237838, Control_c, 0, 64, 69
1, 237853, Control_c, 0, 64, 71
1, 237868, Control_c, 0, 64, 72
1, 237883, Control_c, 0, 64, 73
1, 237898, Control_c, 0, 64, 75
1, 237913, Control_c, 0, 64, 75
1, 237934, Note_off_c, 0, 82, 65
1, 237942, Control_c, 0, 64, 76
1, 237957, Control_c, 0, 64, 76
1, 237972, Control_c, 0, 64, 77
1, 238018, Note_on_c, 0, 81, 57
1, 238031, Control_c, 0, 64, 77
1, 238035, Note_on_c, 0, 72, 47
1, 238046, Control_c, 0, 64, 78
1, 238060, Control_c, 0, 64, 78
1, 238075, Control_c, 0, 64, 79
1, 238090, Control_c, 0, 64, 79
1, 238105, Control_c, 0, 64, 80
1, 238120, Control_c, 0, 64, 81
1, 238134, Control_c, 0, 64, 81
1, 238164, Control_c, 0, 64, 80
1, 238179, Control_c, 0, 64, 80
1, 238194, Control_c, 0, 64, 79
1, 238216, Control_c, 0, 64, 79
1, 238246, Control_c, 0, 64, 78
1, 238274, Note_on_c, 0, 54, 48
1, 238275, Control_c, 0, 64, 77
1, 238290, Control_c, 0, 64, 76
1, 238305, Control_c, 0, 64, 74
1, 238320, Control_c, 0, 64, 72
1, 238349, Control_c, 0, 64, 73
1, 238364, Control_c, 0, 64, 74
1, 238394, Control_c, 0, 64, 72
1, 238402, Note_on_c, 0, 84, 73
1, 238408, Control_c, 0, 64, 69
1, 238421, Note_on_c, 0, 75, 48
1, 238423, Control_c, 0, 64, 62
1, 238424, Note_off_c, 0, 81, 64
1, 238438, Control_c, 0, 64, 52
1, 238440, Note_off_c, 0, 72, 58
1, 238453, Control_c, 0, 64, 21
1, 238467, Control_c, 0, 64, 0
1, 238567, Note_on_c, 0, 55, 52
1, 238585, Note_off_c, 0, 62, 60
1, 238586, Note_off_c, 0, 54, 56
1, 238687, Note_on_c, 0, 82, 68
1, 238688, Note_off_c, 0, 75, 62
1, 238723, Note_on_c, 0, 74, 55
1, 238736, Note_off_c, 0, 84, 58
1, 238750, Control_c, 0, 64, 36
1, 238765, Control_c, 0, 64, 48
1, 238780, Control_c, 0, 64, 55
1, 238795, Control_c, 0, 64, 58
1, 238810, Control_c, 0, 64, 60
1, 238822, Note_off_c, 0, 74, 64
1, 238825, Control_c, 0, 64, 62
1, 238832, Note_off_c, 0, 55, 59
1, 238837, Note_on_c, 0, 57, 57
1, 238839, Control_c, 0, 64, 64
1, 238854, Control_c, 0, 64, 67
1, 238869, Control_c, 0, 64, 69
1, 238883, Control_c, 0, 64, 72
1, 238889, Note_off_c, 0, 82, 63
1, 238898, Control_c, 0, 64, 76
1, 238913, Control_c, 0, 64, 79
1, 238928, Control_c, 0, 64, 82
1, 238943, Control_c, 0, 64, 84
1, 238965, Control_c, 0, 64, 86
1, 238968, Note_on_c, 0, 78, 44
1, 238976, Note_on_c, 0, 72, 62
1, 238980, Control_c, 0, 64, 89
1, 238995, Control_c, 0, 64, 93
1, 239010, Control_c, 0, 64, 98
1, 239022, Note_off_c, 0, 72, 62
1, 239025, Control_c, 0, 64, 103
1, 239036, Note_off_c, 0, 57, 64
1, 239039, Control_c, 0, 64, 107
1, 239054, Control_c, 0, 64, 110
1, 239063, Note_off_c, 0, 78, 49
1, 239069, Control_c, 0, 64, 111
1, 239081, Note_on_c, 0, 58, 57
1, 239098, Control_c, 0, 64, 112
1, 239113, Control_c, 0, 64, 112
1, 239116, Note_on_c, 0, 79, 60
1, 239126, Note_off_c, 0, 58, 62
1, 239143, Control_c, 0, 64, 113
1, 239153, Note_on_c, 0, 70, 45
1, 239172, Control_c, 0, 64, 114
1, 239183, Note_off_c, 0, 70, 52
1, 239192, Note_off_c, 0, 79, 64
1, 239230, Note_on_c, 0, 50, 55
1, 239250, Note_on_c, 0, 82, 63
1, 239255, Note_off_c, 0, 50, 60
1, 239263, Note_on_c, 0, 74, 38
1, 239276, Control_c, 0, 64, 115
1, 239290, Control_c, 0, 64, 116
1, 239305, Control_c, 0, 64, 118
1, 239320, Control_c, 0, 64, 127
1, 239395, Control_c, 0, 64, 103
1, 239410, Control_c, 0, 64, 76
1, 239425, Control_c, 0, 64, 61
1, 239440, Control_c, 0, 64, 35
1, 239449, Note_on_c, 0, 38, 55
1, 239455, Control_c, 0, 64, 32
1, 239469, Control_c, 0, 64, 40
1, 239484, Control_c, 0, 64, 56
1, 239499, Control_c, 0, 64, 64
1, 239514, Control_c, 0, 64, 69
1, 239514, Note_off_c, 0, 38, 62
1, 239529, Control_c, 0, 64, 75
1, 239543, Control_c, 0, 64, 81
1, 239558, Control_c, 0, 64, 87
1, 239573, Control_c, 0, 64, 93
1, 239579, Note_off_c, 0, 82, 59
1, 239588, Control_c, 0, 64, 99
1, 239598, Note_on_c, 0, 81, 63
1, 239603, Control_c, 0, 64, 109
1, 239605, Note_on_c, 0, 72, 67
1, 239618, Control_c, 0, 64, 127
1, 239669, Note_off_c, 0, 74, 40
1, 239735, Note_on_c, 0, 62, 61
1, 239785, Note_off_c, 0, 81, 58
1, 239824, Note_on_c, 0, 82, 76
1, 239841, Note_off_c, 0, 72, 50
1, 239846, Note_on_c, 0, 74, 57
1, 239910, Note_off_c, 0, 82, 63
1, 239928, Note_off_c, 0, 74, 61
1, 239966, Control_c, 0, 64, 83
1, 239971, Note_on_c, 0, 78, 71
1, 239974, Note_on_c, 0, 66, 55
1, 239981, Control_c, 0, 64, 64
1, 239983, Note_on_c, 0, 69, 63
1, 239987, Note_on_c, 0, 60, 51
1, 239995, Control_c, 0, 64, 40
1, 240010, Control_c, 0, 64, 32
1, 240025, Control_c, 0, 64, 42
1, 240040, Control_c, 0, 64, 58
1, 240048, Note_off_c, 0, 69, 61
1, 240055, Control_c, 0, 64, 65
1, 240060, Note_off_c, 0, 78, 61
1, 240069, Control_c, 0, 64, 71
1, 240084, Control_c, 0, 64, 78
1, 240093, Note_off_c, 0, 66, 58
1, 240099, Control_c, 0, 64, 86
1, 240106, Note_on_c, 0, 81, 65
1, 240111, Note_on_c, 0, 72, 62
1, 240113, Control_c, 0, 64, 91
1, 240128, Control_c, 0, 64, 95
1, 240143, Control_c, 0, 64, 100
1, 240146, Note_off_c, 0, 72, 65
1, 240153, Note_off_c, 0, 81, 60
1, 240159, Control_c, 0, 64, 106
1, 240174, Control_c, 0, 64, 118
1, 240189, Control_c, 0, 64, 127
1, 240237, Note_on_c, 0, 72, 62
1, 240243, Note_on_c, 0, 81, 59
1, 240248, Control_c, 0, 64, 85
1, 240263, Note_on_c, 0, 55, 55
1, 240263, Control_c, 0, 64, 67
1, 240271, Note_off_c, 0, 62, 39
1, 240274, Note_off_c, 0, 72, 64
1, 240276, Note_off_c, 0, 60, 54
1, 240278, Control_c, 0, 64, 52
1, 240292, Control_c, 0, 64, 44
1, 240307, Control_c, 0, 64, 46
1, 240322, Control_c, 0, 64, 56
1, 240334, Note_off_c, 0, 81, 62
1, 240336, Control_c, 0, 64, 63
1, 240351, Control_c, 0, 64, 66
1, 240366, Control_c, 0, 64, 67
1, 240381, Control_c, 0, 64, 67
1, 240384, Note_on_c, 0, 79, 55
1, 240396, Control_c, 0, 64, 66
1, 240411, Control_c, 0, 64, 66
1, 240427, Note_off_c, 0, 79, 67
1, 240441, Control_c, 0, 64, 66
1, 240460, Note_on_c, 0, 81, 57
1, 240463, Control_c, 0, 64, 66
1, 240473, Poly_aftertouch_c, 0, 70, 127
1, 240478, Control_c, 0, 64, 61
1, 240492, Control_c, 0, 64, 45
1, 240504, Note_on_c, 0, 79, 63
1, 240507, Control_c, 0, 64, 0
1, 240519, Note_off_c, 0, 81, 62
1, 240542, Note_on_c, 0, 62, 42
1, 240609, Poly_aftertouch_c, 0, 70, 0
1, 240655, Control_c, 0, 64, 29
1, 240670, Control_c, 0, 64, 43
1, 240685, Control_c, 0, 64, 53
1, 240688, Note_on_c, 0, 78, 59
1, 240689, Note_off_c, 0, 79, 59
1, 240699, Note_on_c, 0, 69, 53
1, 240700, Control_c, 0, 64, 60
1, 240715, Control_c, 0, 64, 63
1, 240730, Control_c, 0, 64, 65
1, 240744, Control_c, 0, 64, 67
1, 240759, Control_c, 0, 64, 68
1, 240789, Control_c, 0, 64, 68
1, 240795, Note_off_c, 0, 69, 62
1, 240796, Note_off_c, 0, 62, 56
1, 240818, Control_c, 0, 64, 69
1, 240830, Note_on_c, 0, 61, 42
1, 240833, Control_c, 0, 64, 70
1, 240848, Control_c, 0, 64, 70
1, 240862, Control_c, 0, 64, 71
1, 240922, Control_c, 0, 64, 71
1, 240936, Control_c, 0, 64, 70
1, 240967, Control_c, 0, 64, 69
1, 240982, Control_c, 0, 64, 69
1, 240988, Note_off_c, 0, 78, 61
1, 240997, Control_c, 0, 64, 68
1, 241007, Note_on_c, 0, 79, 50
1, 241012, Control_c, 0, 64, 67
1, 241018, Note_on_c, 0, 70, 48
1, 241026, Control_c, 0, 64, 66
1, 241041, Control_c, 0, 64, 66
1, 241056, Control_c, 0, 64, 65
1, 241071, Control_c, 0, 64, 65
1, 241086, Control_c, 0, 64, 64
1, 241100, Control_c, 0, 64, 63
1, 241145, Control_c, 0, 64, 63
1, 241174, Control_c, 0, 64, 62
1, 241189, Control_c, 0, 64, 61
1, 241212, Control_c, 0, 64, 60
1, 241227, Control_c, 0, 64, 59
1, 241241, Control_c, 0, 64, 54
1, 241256, Control_c, 0, 64, 40
1, 241263, Note_on_c, 0, 60, 43
1, 241271, Control_c, 0, 64, 0
1, 241343, Note_off_c, 0, 61, 54
1, 241368, Note_off_c, 0, 55, 61
1, 241404, Control_c, 0, 64, 31
1, 241419, Control_c, 0, 64, 46
1, 241433, Control_c, 0, 64, 54
1, 241448, Control_c, 0, 64, 59
1, 241463, Control_c, 0, 64, 62
1, 241478, Control_c, 0, 64, 63
1, 241493, Control_c, 0, 64, 65
1, 241503, Note_on_c, 0, 80, 57
1, 241508, Control_c, 0, 64, 66
1, 241523, Control_c, 0, 64, 68
1, 241538, Note_on_c, 0, 72, 44
1, 241538, Control_c, 0, 64, 70
1, 241541, Note_off_c, 0, 79, 31
1, 241553, Control_c, 0, 64, 74
1, 241567, Control_c, 0, 64, 79
1, 241582, Control_c, 0, 64, 87
1, 241591, Note_off_c, 0, 70, 37
1, 241597, Control_c, 0, 64, 95
1, 241612, Control_c, 0, 64, 105
1, 241627, Control_c, 0, 64, 116
1, 241641, Control_c, 0, 64, 127
1, 241646, Note_off_c, 0, 72, 62
1, 241822, Note_on_c, 0, 79, 66
1, 241842, Note_on_c, 0, 70, 49
1, 241857, Note_off_c, 0, 80, 62
1, 241864, Control_c, 0, 64, 123
1, 241879, Control_c, 0, 64, 121
1, 241894, Control_c, 0, 64, 119
1, 241908, Control_c, 0, 64, 118
1, 241923, Control_c, 0, 64, 117
1, 241938, Control_c, 0, 64, 116
1, 241961, Control_c, 0, 64, 115
1, 241990, Control_c, 0, 64, 115
1, 242000, Note_on_c, 0, 52, 50
1, 242050, Control_c, 0, 64, 114
1, 242065, Control_c, 0, 64, 112
1, 242067, Note_off_c, 0, 70, 38
1, 242080, Control_c, 0, 64, 108
1, 242095, Control_c, 0, 64, 103
1, 242109, Control_c, 0, 64, 97
1, 242124, Control_c, 0, 64, 88
1, 242139, Control_c, 0, 64, 78
1, 242142, Note_on_c, 0, 82, 74
1, 242154, Note_on_c, 0, 73, 54
1, 242154, Control_c, 0, 64, 68
1, 242169, Control_c, 0, 64, 60
1, 242183, Control_c, 0, 64, 47
1, 242184, Note_off_c, 0, 79, 63
1, 242198, Control_c, 0, 64, 28
1, 242213, Control_c, 0, 64, 0
1, 242297, Note_on_c, 0, 53, 60
1, 242308, Note_off_c, 0, 60, 61
1, 242328, Note_off_c, 0, 52, 56
1, 242432, Note_on_c, 0, 80, 71
1, 242435, Control_c, 0, 64, 18
1, 242441, Note_on_c, 0, 72, 63
1, 242450, Note_off_c, 0, 73, 57
1, 242450, Control_c, 0, 64, 27
1, 242465, Control_c, 0, 64, 35
1, 242480, Control_c, 0, 64, 43
1, 242495, Control_c, 0, 64, 49
1, 242509, Control_c, 0, 64, 53
1, 242524, Control_c, 0, 64, 56
1, 242538, Note_off_c, 0, 82, 61
1, 242539, Control_c, 0, 64, 58
1, 242547, Note_off_c, 0, 72, 61
1, 242554, Control_c, 0, 64, 60
1, 242568, Note_on_c, 0, 55, 65
1, 242569, Control_c, 0, 64, 62
1, 242584, Control_c, 0, 64, 64
1, 242585, Note_off_c, 0, 53, 60
1, 242599, Control_c, 0, 64, 67
1, 242614, Control_c, 0, 64, 70
1, 242623, Note_off_c, 0, 80, 63
1, 242629, Control_c, 0, 64, 73
1, 242644, Control_c, 0, 64, 77
1, 242658, Control_c, 0, 64, 80
1, 242673, Control_c, 0, 64, 84
1, 242688, Control_c, 0, 64, 86
1, 242691, Note_on_c, 0, 76, 59
1, 242710, Control_c, 0, 64, 88
1, 242713, Note_on_c, 0, 70, 65
1, 242725, Control_c, 0, 64, 88
1, 242744, Note_off_c, 0, 70, 65
1, 242767, Note_off_c, 0, 55, 63
1, 242769, Control_c, 0, 64, 88
1, 242784, Control_c, 0, 64, 87
1, 242799, Control_c, 0, 64, 86
1, 242813, Control_c, 0, 64, 84
1, 242813, Note_off_c, 0, 76, 37
1, 242815, Note_on_c, 0, 56, 54
1, 242827, Note_on_c, 0, 77, 65
1, 242828, Control_c, 0, 64, 81
1, 242843, Control_c, 0, 64, 77
1, 242849, Note_on_c, 0, 68, 58
1, 242858, Control_c, 0, 64, 74
1, 242859, Note_off_c, 0, 56, 65
1, 242873, Control_c, 0, 64, 72
1, 242878, Note_off_c, 0, 68, 56
1, 242887, Control_c, 0, 64, 70
1, 242888, Note_off_c, 0, 77, 63
1, 242902, Control_c, 0, 64, 69
1, 242917, Control_c, 0, 64, 69
1, 242931, Control_c, 0, 64, 68
1, 242936, Note_on_c, 0, 48, 50
1, 242946, Control_c, 0, 64, 68
1, 242953, Note_on_c, 0, 72, 48
1, 242954, Note_on_c, 0, 80, 60
1, 242960, Note_off_c, 0, 48, 58
1, 242961, Control_c, 0, 64, 65
1, 242976, Control_c, 0, 64, 58
1, 242991, Control_c, 0, 64, 44
1, 243005, Control_c, 0, 64, 26
1, 243020, Control_c, 0, 64, 25
1, 243035, Control_c, 0, 64, 31
1, 243050, Control_c, 0, 64, 47
1, 243065, Control_c, 0, 64, 59
1, 243079, Control_c, 0, 64, 64
1, 243094, Control_c, 0, 64, 68
1, 243099, Note_on_c, 0, 36, 57
1, 243109, Control_c, 0, 64, 71
1, 243124, Control_c, 0, 64, 75
1, 243127, Note_off_c, 0, 36, 58
1, 243138, Control_c, 0, 64, 79
1, 243153, Control_c, 0, 64, 84
1, 243168, Control_c, 0, 64, 90
1, 243183, Control_c, 0, 64, 95
1, 243198, Control_c, 0, 64, 101
1, 243213, Control_c, 0, 64, 108
1, 243222, Note_off_c, 0, 80, 61
1, 243228, Control_c, 0, 64, 121
1, 243241, Note_on_c, 0, 79, 63
1, 243243, Control_c, 0, 64, 127
1, 243247, Note_off_c, 0, 72, 29
1, 243252, Note_on_c, 0, 70, 51
1, 243341, Note_on_c, 0, 60, 58
1, 243427, Note_off_c, 0, 79, 58
1, 243474, Note_on_c, 0, 80, 74
1, 243500, Note_off_c, 0, 70, 61
1, 243504, Note_on_c, 0, 72, 48
1, 243560, Note_off_c, 0, 80, 64
1, 243585, Note_off_c, 0, 60, 58
1, 243606, Note_off_c, 0, 72, 51
1, 243621, Control_c, 0, 64, 98
1, 243626, Note_on_c, 0, 58, 47
1, 243626, Note_on_c, 0, 64, 40
1, 243636, Control_c, 0, 64, 70
1, 243637, Note_on_c, 0, 76, 63
1, 243651, Control_c, 0, 64, 52
1, 243655, Note_on_c, 0, 67, 44
1, 243666, Control_c, 0, 64, 26
1, 243681, Control_c, 0, 64, 26
1, 243696, Control_c, 0, 64, 40
1, 243710, Control_c, 0, 64, 56
1, 243725, Control_c, 0, 64, 64
1, 243736, Note_off_c, 0, 67, 58
1, 243740, Control_c, 0, 64, 68
1, 243754, Control_c, 0, 64, 71
1, 243767, Note_off_c, 0, 76, 53
1, 243769, Control_c, 0, 64, 74
1, 243783, Note_on_c, 0, 79, 64
1, 243784, Control_c, 0, 64, 78
1, 243799, Note_on_c, 0, 70, 55
1, 243799, Control_c, 0, 64, 82
1, 243814, Control_c, 0, 64, 88
1, 243828, Control_c, 0, 64, 99
1, 243839, Note_off_c, 0, 70, 62
1, 243842, Note_off_c, 0, 79, 62
1, 243843, Control_c, 0, 64, 127
1, 243916, Note_off_c, 0, 58, 58
1, 243928, Note_on_c, 0, 53, 50
1, 243932, Control_c, 0, 64, 81
1, 243942, Note_on_c, 0, 70, 55
1, 243947, Control_c, 0, 64, 64
1, 243957, Note_on_c, 0, 79, 51
1, 243961, Control_c, 0, 64, 46
1, 243976, Control_c, 0, 64, 39
1, 243985, Note_off_c, 0, 70, 59
1, 243991, Control_c, 0, 64, 40
1, 244006, Control_c, 0, 64, 54
1, 244021, Control_c, 0, 64, 62
1, 244036, Control_c, 0, 64, 66
1, 244051, Control_c, 0, 64, 69
1, 244065, Control_c, 0, 64, 70
1, 244088, Note_on_c, 0, 77, 57
1, 244140, Control_c, 0, 64, 69
1, 244146, Note_off_c, 0, 77, 57
1, 244155, Control_c, 0, 64, 62
1, 244170, Control_c, 0, 64, 37
1, 244179, Note_on_c, 0, 68, 9
1, 244185, Control_c, 0, 64, 0
1, 244210, Note_on_c, 0, 77, 47
1, 244213, Note_off_c, 0, 79, 62
1, 244232, Note_on_c, 0, 60, 39
1, 244265, Note_off_c, 0, 64, 53
1, 244281, Control_c, 0, 64, 43
1, 244296, Control_c, 0, 64, 55
1, 244310, Control_c, 0, 64, 59
1, 244325, Control_c, 0, 64, 61
1, 244328, Note_off_c, 0, 68, 47
1, 244340, Control_c, 0, 64, 63
1, 244355, Control_c, 0, 64, 64
1, 244370, Control_c, 0, 64, 66
1, 244371, Note_off_c, 0, 77, 62
1, 244382, Note_off_c, 0, 53, 53
1, 244384, Control_c, 0, 64, 69
1, 244399, Control_c, 0, 64, 73
1, 244402, Note_on_c, 0, 76, 45
1, 244414, Control_c, 0, 64, 77
1, 244423, Note_on_c, 0, 67, 37
1, 244429, Control_c, 0, 64, 83
1, 244444, Control_c, 0, 64, 88
1, 244459, Control_c, 0, 64, 93
1, 244474, Control_c, 0, 64, 96
1, 244489, Control_c, 0, 64, 97
1, 244503, Control_c, 0, 64, 97
1, 244533, Control_c, 0, 64, 98
1, 244534, Note_off_c, 0, 67, 56
1, 244548, Control_c, 0, 64, 98
1, 244595, Note_off_c, 0, 60, 36
1, 244607, Control_c, 0, 64, 93
1, 244622, Control_c, 0, 64, 82
1, 244634, Note_on_c, 0, 56, 37
1, 244637, Control_c, 0, 64, 69
1, 244651, Control_c, 0, 64, 57
1, 244653, Note_on_c, 0, 65, 25
1, 244666, Control_c, 0, 64, 46
1, 244681, Control_c, 0, 64, 45
1, 244696, Control_c, 0, 64, 50
1, 244710, Control_c, 0, 64, 58
1, 244725, Control_c, 0, 64, 63
1, 244740, Control_c, 0, 64, 66
1, 244755, Control_c, 0, 64, 69
1, 244770, Control_c, 0, 64, 70
1, 244784, Control_c, 0, 64, 71
1, 244799, Control_c, 0, 64, 72
1, 244814, Control_c, 0, 64, 73
1, 244817, Note_off_c, 0, 56, 57
1, 244817, Note_off_c, 0, 65, 57
1, 244820, Note_off_c, 0, 76, 59
1, 244829, Control_c, 0, 64, 74
1, 244844, Control_c, 0, 64, 77
1, 244858, Control_c, 0, 64, 79
1, 244873, Control_c, 0, 64, 82
1, 244882, Note_on_c, 0, 77, 43
1, 244888, Control_c, 0, 64, 85
1, 244903, Control_c, 0, 64, 88
1, 244918, Control_c, 0, 64, 90
1, 244919, Note_on_c, 0, 68, 28
1, 244933, Control_c, 0, 64, 94
1, 244956, Control_c, 0, 64, 99
1, 244971, Control_c, 0, 64, 104
1, 244986, Control_c, 0, 64, 110
1, 245000, Control_c, 0, 64, 116
1, 245015, Control_c, 0, 64, 127
1, 245031, Note_off_c, 0, 77, 56
1, 245203, Note_off_c, 0, 68, 28
1, 245326, Control_c, 0, 64, 106
1, 245337, Note_on_c, 0, 44, 15
1, 245341, Control_c, 0, 64, 86
1, 245356, Control_c, 0, 64, 72
1, 245371, Control_c, 0, 64, 66
1, 245386, Control_c, 0, 64, 65
1, 245398, Note_on_c, 0, 77, 51
1, 245400, Control_c, 0, 64, 67
1, 245411, Note_on_c, 0, 68, 29
1, 245415, Control_c, 0, 64, 70
1, 245425, Note_off_c, 0, 44, 62
1, 245430, Control_c, 0, 64, 76
1, 245445, Control_c, 0, 64, 84
1, 245460, Control_c, 0, 64, 91
1, 245474, Control_c, 0, 64, 93
1, 245489, Control_c, 0, 64, 92
1, 245504, Control_c, 0, 64, 90
1, 245519, Control_c, 0, 64, 89
1, 245616, Note_off_c, 0, 77, 58
1, 245622, Control_c, 0, 64, 88
1, 245637, Control_c, 0, 64, 87
1, 245651, Note_on_c, 0, 78, 58
1, 245652, Control_c, 0, 64, 86
1, 245660, Note_off_c, 0, 68, 34
1, 245667, Control_c, 0, 64, 85
1, 245681, Control_c, 0, 64, 81
1, 245682, Note_on_c, 0, 70, 36
1, 245704, Control_c, 0, 64, 77
1, 245719, Control_c, 0, 64, 71
1, 245733, Control_c, 0, 64, 65
1, 245750, Control_c, 0, 64, 59
1, 245765, Control_c, 0, 64, 46
1, 245771, Note_on_c, 0, 56, 59
1, 245779, Control_c, 0, 64, 12
1, 245794, Control_c, 0, 64, 0
1, 245815, Note_off_c, 0, 56, 65
1, 245861, Note_on_c, 0, 58, 37
1, 245895, Note_off_c, 0, 58, 33
1, 245914, Note_on_c, 0, 56, 46
1, 245931, Note_off_c, 0, 70, 28
1, 245937, Note_on_c, 0, 68, 40
1, 245940, Note_off_c, 0, 56, 59
1, 245946, Note_on_c, 0, 77, 55
1, 245966, Note_off_c, 0, 68, 57
1, 245969, Note_on_c, 0, 58, 50
1, 245999, Note_off_c, 0, 58, 61
1, 246046, Note_off_c, 0, 78, 41
1, 246048, Note_off_c, 0, 77, 59
1, 246068, Note_on_c, 0, 75, 60
1, 246082, Note_on_c, 0, 48, 57
1, 246082, Note_on_c, 0, 66, 46
1, 246135, Control_c, 0, 64, 50
1, 246139, Note_off_c, 0, 66, 59
1, 246149, Control_c, 0, 64, 61
1, 246164, Control_c, 0, 64, 57
1, 246179, Control_c, 0, 64, 53
1, 246194, Note_on_c, 0, 78, 66
1, 246194, Control_c, 0, 64, 50
1, 246209, Control_c, 0, 64, 49
1, 246221, Note_off_c, 0, 75, 55
1, 246283, Control_c, 0, 64, 44
1, 246289, Note_off_c, 0, 48, 64
1, 246298, Control_c, 0, 64, 19
1, 246301, Note_on_c, 0, 49, 54
1, 246313, Control_c, 0, 64, 0
1, 246326, Note_off_c, 0, 49, 58
1, 246333, Note_on_c, 0, 68, 39
1, 246346, Note_off_c, 0, 78, 64
1, 246366, Note_off_c, 0, 68, 52
1, 246417, Note_on_c, 0, 78, 56
1, 246489, Note_off_c, 0, 78, 57
1, 246507, Note_on_c, 0, 77, 70
1, 246513, Note_on_c, 0, 56, 26
1, 246525, Note_on_c, 0, 68, 62
1, 246534, Note_on_c, 0, 58, 62
1, 246542, Control_c, 0, 64, 30
1, 246549, Note_off_c, 0, 56, 54
1, 246557, Control_c, 0, 64, 68
1, 246568, Note_off_c, 0, 68, 62
1, 246572, Control_c, 0, 64, 80
1, 246575, Note_on_c, 0, 55, 54
1, 246580, Note_off_c, 0, 77, 58
1, 246587, Control_c, 0, 64, 90
1, 246608, Note_on_c, 0, 72, 65
1, 246611, Note_off_c, 0, 58, 49
1, 246617, Control_c, 0, 64, 86
1, 246631, Note_off_c, 0, 55, 63
1, 246632, Control_c, 0, 64, 83
1, 246634, Note_on_c, 0, 56, 63
1, 246656, Note_off_c, 0, 72, 62
1, 246661, Control_c, 0, 64, 83
1, 246676, Control_c, 0, 64, 84
1, 246691, Control_c, 0, 64, 81
1, 246704, Note_off_c, 0, 56, 61
1, 246706, Control_c, 0, 64, 69
1, 246718, Note_on_c, 0, 73, 67
1, 246721, Control_c, 0, 64, 53
1, 246726, Note_on_c, 0, 61, 55
1, 246735, Control_c, 0, 64, 0
1, 246736, Note_on_c, 0, 65, 62
1, 246754, Note_off_c, 0, 61, 62
1, 246765, Note_off_c, 0, 65, 66
1, 246781, Note_off_c, 0, 73, 63
1, 246832, Note_on_c, 0, 77, 69
1, 246895, Note_off_c, 0, 77, 56
1, 246936, Note_on_c, 0, 75, 74
1, 246942, Control_c, 0, 64, 60
1, 246944, Note_on_c, 0, 39, 48
1, 246951, Note_on_c, 0, 67, 58
1, 246957, Control_c, 0, 64, 78
1, 246972, Control_c, 0, 64, 92
1, 246979, Note_off_c, 0, 39, 50
1, 246987, Control_c, 0, 64, 101
1, 246997, Note_off_c, 0, 67, 51
1, 247002, Control_c, 0, 64, 93
1, 247017, Control_c, 0, 64, 87
1, 247018, Note_off_c, 0, 75, 57
1, 247031, Control_c, 0, 64, 84
1, 247046, Control_c, 0, 64, 84
1, 247052, Note_on_c, 0, 77, 64
1, 247061, Control_c, 0, 64, 85
1, 247076, Control_c, 0, 64, 85
1, 247091, Control_c, 0, 64, 84
1, 247105, Control_c, 0, 64, 74
1, 247120, Control_c, 0, 64, 59
1, 247122, Note_off_c, 0, 77, 52
1, 247135, Control_c, 0, 64, 0
1, 247143, Note_on_c, 0, 51, 58
1, 247144, Note_on_c, 0, 75, 72
1, 247158, Note_on_c, 0, 67, 61
1, 247178, Note_off_c, 0, 51, 64
1, 247198, Note_off_c, 0, 67, 64
1, 247219, Note_off_c, 0, 75, 61
1, 247262, Note_on_c, 0, 77, 53
1, 247267, Note_on_c, 0, 76, 55
1, 247300, Note_off_c, 0, 77, 64
1, 247301, Note_off_c, 0, 76, 64
1, 247338, Note_on_c, 0, 73, 68
1, 247340, Note_on_c, 0, 55, 35
1, 247343, Note_on_c, 0, 63, 32
1, 247350, Note_on_c, 0, 65, 58
1, 247375, Note_off_c, 0, 55, 32
1, 247379, Note_off_c, 0, 63, 46
1, 247380, Note_off_c, 0, 65, 66
1, 247380, Note_off_c, 0, 73, 64
1, 247414, Note_on_c, 0, 70, 25
1, 247448, Note_on_c, 0, 75, 60
1, 247461, Note_off_c, 0, 70, 46
1, 247536, Note_on_c, 0, 44, 50
1, 247543, Note_on_c, 0, 72, 65
1, 247549, Note_off_c, 0, 75, 61
1, 247564, Note_off_c, 0, 44, 60
1, 247565, Note_on_c, 0, 63, 48
1, 247594, Note_off_c, 0, 63, 58
1, 247631, Note_off_c, 0, 72, 63
1, 247640, Note_on_c, 0, 73, 61
1, 247718, Note_off_c, 0, 73, 54
1, 247731, Note_on_c, 0, 51, 50
1, 247732, Note_on_c, 0, 70, 63
1, 247732, Note_on_c, 0, 61, 60
1, 247760, Note_off_c, 0, 51, 60
1, 247761, Note_off_c, 0, 61, 65
1, 247795, Note_off_c, 0, 70, 63
1, 247823, Note_on_c, 0, 72, 59
1, 247905, Note_off_c, 0, 72, 53
1, 247943, Control_c, 0, 64, 29
1, 247965, Control_c, 0, 64, 54
1, 247970, Note_on_c, 0, 60, 55
1, 247976, Note_on_c, 0, 68, 57
1, 247980, Control_c, 0, 64, 58
1, 247988, Note_on_c, 0, 56, 49
1, 247988, Note_on_c, 0, 63, 41
1, 247994, Control_c, 0, 64, 61
1, 247999, Note_off_c, 0, 60, 66
1, 248009, Control_c, 0, 64, 64
1, 248016, Note_off_c, 0, 63, 58
1, 248021, Note_off_c, 0, 56, 65
1, 248024, Control_c, 0, 64, 66
1, 248030, Note_off_c, 0, 68, 61
1, 248039, Control_c, 0, 64, 70
1, 248054, Control_c, 0, 64, 75
1, 248069, Control_c, 0, 64, 85
1, 248083, Control_c, 0, 64, 100
1, 248098, Control_c, 0, 64, 127
1, 248292, Control_c, 0, 64, 117
1, 248306, Control_c, 0, 64, 85
1, 248321, Control_c, 0, 64, 74
1, 248336, Control_c, 0, 64, 72
1, 248339, Note_on_c, 0, 44, 46
1, 248350, Control_c, 0, 64, 74
1, 248365, Control_c, 0, 64, 79
1, 248373, Note_off_c, 0, 44, 65
1, 248380, Control_c, 0, 64, 91
1, 248388, Note_on_c, 0, 89, 76
1, 248395, Control_c, 0, 64, 111
1, 248397, Note_on_c, 0, 80, 63
1, 248410, Control_c, 0, 64, 127
1, 248533, Note_off_c, 0, 80, 42
1, 248533, Note_off_c, 0, 89, 55
1, 248565, Note_on_c, 0, 90, 68
1, 248590, Note_on_c, 0, 82, 56
1, 248680, Note_on_c, 0, 68, 70
1, 248728, Note_off_c, 0, 68, 61
1, 248802, Note_on_c, 0, 89, 59
1, 248818, Note_on_c, 0, 68, 56
1, 248819, Note_on_c, 0, 80, 59
1, 248819, Note_off_c, 0, 82, 30
1, 248820, Note_on_c, 0, 70, 61
1, 248847, Note_off_c, 0, 80, 64
1, 248877, Note_off_c, 0, 90, 23
1, 248886, Note_off_c, 0, 68, 61
1, 248890, Note_off_c, 0, 70, 62
1, 248911, Note_off_c, 0, 89, 59
1, 248918, Note_on_c, 0, 60, 72
1, 248919, Note_on_c, 0, 87, 71
1, 248920, Control_c, 0, 64, 79
1, 248935, Control_c, 0, 64, 58
1, 248936, Note_on_c, 0, 78, 64
1, 248951, Control_c, 0, 64, 0
1, 248993, Note_off_c, 0, 78, 61
1, 249029, Note_on_c, 0, 90, 73
1, 249048, Note_off_c, 0, 87, 56
1, 249109, Note_off_c, 0, 60, 64
1, 249116, Note_on_c, 0, 61, 65
1, 249128, Note_on_c, 0, 89, 72
1, 249138, Note_off_c, 0, 90, 44
1, 249142, Note_on_c, 0, 80, 59
1, 249144, Note_off_c, 0, 61, 65
1, 249196, Note_off_c, 0, 80, 55
1, 249208, Note_off_c, 0, 89, 59
1, 249231, Note_on_c, 0, 90, 70
1, 249297, Note_on_c, 0, 68, 55
1, 249309, Note_off_c, 0, 90, 56
1, 249311, Note_on_c, 0, 80, 69
1, 249312, Note_on_c, 0, 89, 75
1, 249324, Note_on_c, 0, 70, 69
1, 249336, Control_c, 0, 64, 66
1, 249348, Note_off_c, 0, 68, 54
1, 249351, Control_c, 0, 64, 77
1, 249353, Note_off_c, 0, 80, 59
1, 249363, Note_off_c, 0, 89, 56
1, 249365, Control_c, 0, 64, 86
1, 249370, Note_on_c, 0, 67, 54
1, 249380, Control_c, 0, 64, 88
1, 249384, Note_off_c, 0, 70, 62
1, 249387, Note_on_c, 0, 84, 53
1, 249395, Control_c, 0, 64, 87
1, 249410, Control_c, 0, 64, 88
1, 249425, Control_c, 0, 64, 93
1, 249426, Note_off_c, 0, 84, 64
1, 249427, Note_on_c, 0, 68, 60
1, 249428, Note_off_c, 0, 67, 63
1, 249446, Control_c, 0, 64, 108
1, 249461, Control_c, 0, 64, 127
1, 249479, Note_off_c, 0, 68, 60
1, 249489, Note_on_c, 0, 85, 66
1, 249503, Note_on_c, 0, 73, 81
1, 249507, Control_c, 0, 64, 78
1, 249515, Note_on_c, 0, 77, 69
1, 249521, Control_c, 0, 64, 56
1, 249525, Note_off_c, 0, 73, 69
1, 249536, Control_c, 0, 64, 0
1, 249544, Note_off_c, 0, 77, 67
1, 249563, Note_off_c, 0, 85, 64
1, 249603, Note_on_c, 0, 89, 78
1, 249673, Note_off_c, 0, 89, 62
1, 249710, Note_on_c, 0, 87, 80
1, 249714, Note_on_c, 0, 51, 60
1, 249729, Note_on_c, 0, 79, 55
1, 249729, Control_c, 0, 64, 49
1, 249737, Note_off_c, 0, 51, 60
1, 249744, Control_c, 0, 64, 78
1, 249759, Control_c, 0, 64, 101
1, 249768, Note_off_c, 0, 79, 60
1, 249774, Control_c, 0, 64, 127
1, 249789, Control_c, 0, 64, 103
1, 249793, Note_off_c, 0, 87, 61
1, 249804, Control_c, 0, 64, 86
1, 249807, Note_on_c, 0, 89, 74
1, 249819, Control_c, 0, 64, 79
1, 249848, Control_c, 0, 64, 80
1, 249863, Control_c, 0, 64, 79
1, 249874, Note_off_c, 0, 89, 59
1, 249878, Control_c, 0, 64, 70
1, 249893, Control_c, 0, 64, 53
1, 249902, Note_on_c, 0, 87, 76
1, 249908, Control_c, 0, 64, 0
1, 249914, Note_on_c, 0, 79, 66
1, 249922, Note_on_c, 0, 63, 38
1, 249942, Note_off_c, 0, 79, 69
1, 249950, Note_off_c, 0, 63, 55
1, 249967, Note_off_c, 0, 87, 63
1, 249983, Note_on_c, 0, 89, 79
1, 250026, Note_off_c, 0, 89, 64
1, 250066, Note_on_c, 0, 67, 54
1, 250067, Note_on_c, 0, 75, 53
1, 250078, Note_on_c, 0, 77, 76
1, 250081, Note_on_c, 0, 85, 65
1, 250087, Note_off_c, 0, 67, 62
1, 250087, Note_off_c, 0, 75, 59
1, 250108, Note_off_c, 0, 77, 65
1, 250108, Note_off_c, 0, 85, 68
1, 250155, Note_on_c, 0, 87, 78
1, 250256, Note_on_c, 0, 56, 65
1, 250256, Note_off_c, 0, 87, 63
1, 250266, Note_on_c, 0, 84, 70
1, 250279, Note_on_c, 0, 75, 70
1, 250282, Note_off_c, 0, 56, 67
1, 250285, Control_c, 0, 64, 61
1, 250300, Control_c, 0, 64, 64
1, 250308, Note_off_c, 0, 75, 64
1, 250315, Control_c, 0, 64, 61
1, 250329, Control_c, 0, 64, 54
1, 250331, Note_off_c, 0, 84, 62
1, 250341, Note_on_c, 0, 85, 82
1, 250344, Control_c, 0, 64, 50
1, 250359, Control_c, 0, 64, 49
1, 250374, Control_c, 0, 64, 50
1, 250389, Control_c, 0, 64, 50
1, 250403, Control_c, 0, 64, 48
1, 250409, Note_off_c, 0, 85, 64
1, 250418, Control_c, 0, 64, 24
1, 250424, Note_on_c, 0, 63, 52
1, 250429, Note_on_c, 0, 73, 74
1, 250433, Control_c, 0, 64, 0
1, 250434, Note_on_c, 0, 82, 67
1, 250451, Note_off_c, 0, 63, 56
1, 250453, Note_off_c, 0, 73, 70
1, 250486, Note_off_c, 0, 82, 60
1, 250502, Note_on_c, 0, 84, 76
1, 250558, Note_off_c, 0, 84, 62
1, 250588, Note_on_c, 0, 68, 67
1, 250595, Note_on_c, 0, 80, 70
1, 250616, Note_off_c, 0, 68, 66
1, 250620, Note_on_c, 0, 75, 5
1, 250621, Note_off_c, 0, 75, 127
1, 250621, Note_off_c, 0, 80, 68
1, 250697, Note_on_c, 0, 89, 76
1, 250744, Note_off_c, 0, 89, 66
1, 250775, Control_c, 0, 64, 51
1, 250787, Note_on_c, 0, 51, 67
1, 250790, Control_c, 0, 64, 81
1, 250793, Note_on_c, 0, 79, 77
1, 250793, Note_on_c, 0, 87, 83
1, 250805, Control_c, 0, 64, 127
1, 250819, Note_off_c, 0, 51, 65
1, 250849, Note_off_c, 0, 79, 65
1, 250877, Note_off_c, 0, 87, 63
1, 250880, Note_on_c, 0, 89, 88
1, 250945, Control_c, 0, 64, 81
1, 250951, Note_off_c, 0, 89, 61
1, 250960, Control_c, 0, 64, 56
1, 250975, Control_c, 0, 64, 0
1, 250977, Note_on_c, 0, 79, 76
1, 250979, Note_on_c, 0, 87, 79
1, 250981, Note_on_c, 0, 63, 37
1, 251011, Note_off_c, 0, 63, 51
1, 251013, Note_off_c, 0, 79, 66
1, 251034, Note_on_c, 0, 85, 15
1, 251044, Note_off_c, 0, 87, 63
1, 251047, Note_on_c, 0, 89, 84
1, 251067, Note_off_c, 0, 85, 31
1, 251085, Note_off_c, 0, 89, 61
1, 251106, Note_on_c, 0, 67, 69
1, 251117, Note_on_c, 0, 75, 58
1, 251125, Note_on_c, 0, 77, 81
1, 251132, Note_on_c, 0, 85, 71
1, 251136, Note_off_c, 0, 75, 62
1, 251140, Note_off_c, 0, 67, 65
1, 251154, Note_off_c, 0, 77, 64
1, 251176, Note_off_c, 0, 85, 48
1, 251198, Note_on_c, 0, 87, 83
1, 251282, Note_off_c, 0, 87, 64
1, 251285, Note_on_c, 0, 85, 79
1, 251291, Note_on_c, 0, 56, 49
1, 251297, Note_on_c, 0, 75, 75
1, 251309, Note_off_c, 0, 85, 66
1, 251318, Note_off_c, 0, 56, 38
1, 251325, Note_off_c, 0, 75, 63
1, 251333, Note_on_c, 0, 84, 40
1, 251361, Note_off_c, 0, 84, 56
1, 251363, Note_on_c, 0, 85, 81
1, 251437, Note_off_c, 0, 85, 64
1, 251437, Note_on_c, 0, 63, 71
1, 251443, Note_on_c, 0, 73, 85
1, 251449, Note_on_c, 0, 82, 71
1, 251466, Note_off_c, 0, 73, 66
1, 251468, Note_off_c, 0, 63, 65
1, 251520, Note_off_c, 0, 82, 64
1, 251521, Note_on_c, 0, 84, 77
1, 251564, Note_off_c, 0, 84, 65
1, 251605, Note_on_c, 0, 72, 83
1, 251606, Note_on_c, 0, 68, 74
1, 251610, Note_on_c, 0, 75, 68
1, 251610, Note_on_c, 0, 80, 91
1, 251628, Note_off_c, 0, 75, 64
1, 251628, Control_c, 0, 64, 52
1, 251629, Note_off_c, 0, 72, 68
1, 251631, Note_off_c, 0, 68, 68
1, 251642, Control_c, 0, 64, 127
1, 251664, Note_off_c, 0, 80, 66
1, 251798, Control_c, 0, 64, 67
1, 251813, Control_c, 0, 64, 0
1, 252049, Control_c, 0, 64, 52
1, 252051, Note_on_c, 0, 99, 101
1, 252055, Note_on_c, 0, 39, 85
1, 252057, Note_on_c, 0, 91, 97
1, 252064, Control_c, 0, 64, 127
1, 252170, Note_on_c, 0, 97, 55
1, 252194, Note_on_c, 0, 94, 38
1, 252202, Note_on_c, 0, 101, 88
1, 252203, Note_off_c, 0, 97, 53
1, 252203, Note_off_c, 0, 99, 63
1, 252211, Note_off_c, 0, 91, 62
1, 252249, Note_off_c, 0, 94, 40
1, 252293, Note_on_c, 0, 51, 91
1, 252299, Note_on_c, 0, 99, 90
1, 252302, Note_on_c, 0, 91, 93
1, 252307, Note_off_c, 0, 39, 60
1, 252314, Note_off_c, 0, 51, 71
1, 252316, Note_off_c, 0, 101, 65
1, 252357, Note_off_c, 0, 91, 65
1, 252371, Note_on_c, 0, 97, 26
1, 252383, Note_on_c, 0, 101, 89
1, 252391, Note_off_c, 0, 99, 65
1, 252409, Note_off_c, 0, 97, 31
1, 252435, Note_off_c, 0, 101, 65
1, 252460, Note_on_c, 0, 63, 68
1, 252470, Note_on_c, 0, 89, 90
1, 252476, Note_on_c, 0, 97, 81
1, 252512, Note_off_c, 0, 63, 49
1, 252516, Note_off_c, 0, 97, 61
1, 252522, Note_off_c, 0, 89, 65
1, 252549, Note_on_c, 0, 99, 94
1, 252597, Note_on_c, 0, 67, 79
1, 252600, Note_on_c, 0, 61, 62
1, 252606, Poly_aftertouch_c, 0, 96, 0
1, 252618, Note_on_c, 0, 97, 75
1, 252627, Note_off_c, 0, 67, 63
1, 252631, Note_off_c, 0, 99, 65
1, 252633, Note_off_c, 0, 61, 65
1, 252636, Note_on_c, 0, 87, 97
1, 252673, Note_off_c, 0, 87, 66
1, 252761, Note_on_c, 0, 73, 79
1, 252772, Note_off_c, 0, 97, 63
1, 252774, Note_on_c, 0, 85, 92
1, 252794, Note_on_c, 0, 94, 64
1, 252803, Note_off_c, 0, 73, 64
1, 252815, Note_off_c, 0, 85, 66
1, 252845, Note_off_c, 0, 94, 45
1, 252851, Note_on_c, 0, 96, 77
1, 252863, Note_on_c, 0, 95, 73
1, 252891, Note_off_c, 0, 95, 51
1, 252896, Note_off_c, 0, 96, 66
1, 252908, Note_on_c, 0, 75, 82
1, 252927, Note_on_c, 0, 84, 92
1, 252927, Note_on_c, 0, 92, 74
1, 252944, Note_on_c, 0, 73, 31
1, 252952, Note_off_c, 0, 75, 58
1, 252969, Note_off_c, 0, 84, 65
1, 252974, Note_off_c, 0, 92, 63
1, 252976, Note_on_c, 0, 90, 36
1, 253005, Note_on_c, 0, 94, 89
1, 253007, Note_off_c, 0, 90, 51
1, 253015, Note_off_c, 0, 73, 37
1, 253036, Note_on_c, 0, 88, 26
1, 253081, Control_c, 0, 64, 78
1, 253095, Control_c, 0, 64, 63
1, 253107, Note_on_c, 0, 73, 83
1, 253108, Note_on_c, 0, 75, 84
1, 253109, Note_on_c, 0, 79, 88
1, 253110, Note_on_c, 0, 91, 81
1, 253110, Control_c, 0, 64, 60
1, 253116, Note_off_c, 0, 94, 63
1, 253117, Note_off_c, 0, 88, 38
1, 253125, Control_c, 0, 64, 66
1, 253126, Note_on_c, 0, 82, 78
1, 253140, Control_c, 0, 64, 78
1, 253155, Control_c, 0, 64, 127
1, 253179, Note_off_c, 0, 82, 65
1, 253207, Note_on_c, 0, 92, 89
1, 253208, Note_off_c, 0, 91, 66
1, 253270, Note_off_c, 0, 79, 65
1, 253291, Note_on_c, 0, 80, 82
1, 253295, Note_off_c, 0, 92, 63
1, 253299, Note_on_c, 0, 89, 71
1, 253339, Note_off_c, 0, 80, 65
1, 253360, Note_on_c, 0, 91, 92
1, 253362, Note_off_c, 0, 75, 61
1, 253363, Note_off_c, 0, 89, 62
1, 253391, Note_off_c, 0, 73, 63
1, 253420, Note_off_c, 0, 91, 60
1, 253443, Note_on_c, 0, 87, 87
1, 253452, Note_on_c, 0, 79, 82
1, 253479, Note_off_c, 0, 79, 68
1, 253488, Note_on_c, 0, 85, 42
1, 253515, Note_off_c, 0, 85, 57
1, 253518, Note_on_c, 0, 89, 90
1, 253524, Note_off_c, 0, 87, 64
1, 253563, Note_off_c, 0, 89, 66
1, 253589, Note_on_c, 0, 77, 83
1, 253598, Note_on_c, 0, 85, 64
1, 253620, Note_off_c, 0, 77, 64
1, 253632, Note_off_c, 0, 85, 55
1, 253641, Note_on_c, 0, 84, 50
1, 253657, Note_on_c, 0, 87, 90
1, 253665, Note_off_c, 0, 84, 61
1, 253740, Note_on_c, 0, 75, 89
1, 253744, Note_on_c, 0, 85, 81
1, 253753, Note_off_c, 0, 87, 62
1, 253782, Note_off_c, 0, 75, 62
1, 253895, Note_off_c, 0, 85, 64
1, 253897, Note_on_c, 0, 73, 91
1, 253902, Note_on_c, 0, 82, 74
1, 253908, Poly_aftertouch_c, 0, 86, 0
1, 253958, Note_off_c, 0, 73, 62
1, 253987, Note_off_c, 0, 82, 63
1, 253991, Note_on_c, 0, 84, 87
1, 254031, Note_off_c, 0, 84, 60
1, 254066, Note_on_c, 0, 72, 84
1, 254086, Note_on_c, 0, 82, 63
1, 254094, Note_on_c, 0, 80, 43
1, 254111, Note_off_c, 0, 72, 66
1, 254112, Note_off_c, 0, 82, 67
1, 254121, Note_off_c, 0, 80, 56
1, 254151, Note_on_c, 0, 82, 84
1, 254241, Note_on_c, 0, 61, 83
1, 254254, Note_off_c, 0, 82, 66
1, 254273, Note_on_c, 0, 79, 67
1, 254282, Control_c, 0, 64, 101
1, 254297, Control_c, 0, 64, 66
1, 254298, Note_on_c, 0, 70, 60
1, 254311, Control_c, 0, 64, 38
1, 254326, Control_c, 0, 64, 40
1, 254336, Note_off_c, 0, 70, 64
1, 254341, Control_c, 0, 64, 58
1, 254347, Note_on_c, 0, 80, 86
1, 254352, Note_off_c, 0, 79, 67
1, 254356, Control_c, 0, 64, 68
1, 254370, Control_c, 0, 64, 86
1, 254385, Control_c, 0, 64, 127
1, 254432, Note_off_c, 0, 80, 65
1, 254447, Note_on_c, 0, 68, 78
1, 254448, Note_on_c, 0, 76, 75
1, 254504, Note_off_c, 0, 68, 61
1, 254516, Note_off_c, 0, 76, 61
1, 254537, Note_on_c, 0, 79, 75
1, 254543, Note_off_c, 0, 61, 62
1, 254594, Note_off_c, 0, 79, 59
1, 254626, Note_on_c, 0, 75, 83
1, 254631, Note_on_c, 0, 67, 78
1, 254686, Note_off_c, 0, 67, 63
1, 254729, Note_on_c, 0, 77, 85
1, 254731, Note_off_c, 0, 75, 62
1, 254788, Note_off_c, 0, 77, 59
1, 254823, Note_on_c, 0, 65, 80
1, 254824, Note_on_c, 0, 73, 81
1, 254884, Note_off_c, 0, 65, 56
1, 254891, Note_off_c, 0, 73, 63
1, 254927, Note_on_c, 0, 75, 76
1, 255055, Note_on_c, 0, 51, 64
1, 255090, Control_c, 0, 64, 87
1, 255105, Control_c, 0, 64, 63
1, 255116, Note_on_c, 0, 63, 63
1, 255120, Control_c, 0, 64, 0
1, 255122, Note_on_c, 0, 72, 78
1, 255164, Control_c, 0, 64, 54
1, 255166, Note_off_c, 0, 75, 64
1, 255179, Control_c, 0, 64, 67
1, 255193, Control_c, 0, 64, 79
1, 255208, Control_c, 0, 64, 100
1, 255223, Control_c, 0, 64, 127
1, 255241, Note_off_c, 0, 63, 59
1, 255256, Note_on_c, 0, 73, 83
1, 255280, Note_off_c, 0, 72, 62
1, 255307, Poly_aftertouch_c, 0, 69, 127
1, 255381, Note_on_c, 0, 44, 65
1, 255409, Poly_aftertouch_c, 0, 69, 0
1, 255454, Control_c, 0, 64, 105
1, 255469, Control_c, 0, 64, 66
1, 255476, Note_on_c, 0, 70, 67
1, 255476, Note_off_c, 0, 51, 61
1, 255482, Note_off_c, 0, 73, 60
1, 255482, Note_on_c, 0, 61, 54
1, 255484, Control_c, 0, 64, 12
1, 255498, Control_c, 0, 64, 0
1, 255518, Poly_aftertouch_c, 0, 46, 127
1, 255528, Control_c, 0, 64, 26
1, 255543, Control_c, 0, 64, 58
1, 255558, Control_c, 0, 64, 67
1, 255572, Control_c, 0, 64, 74
1, 255576, Note_off_c, 0, 70, 64
1, 255582, Note_on_c, 0, 72, 69
1, 255587, Control_c, 0, 64, 82
1, 255602, Control_c, 0, 64, 86
1, 255616, Control_c, 0, 64, 88
1, 255646, Control_c, 0, 64, 90
1, 255658, Note_off_c, 0, 72, 63
1, 255661, Control_c, 0, 64, 93
1, 255664, Note_on_c, 0, 70, 64
1, 255676, Control_c, 0, 64, 99
1, 255691, Control_c, 0, 64, 107
1, 255700, Note_off_c, 0, 70, 62
1, 255706, Control_c, 0, 64, 119
1, 255721, Control_c, 0, 64, 127
1, 255721, Note_on_c, 0, 72, 58
1, 255779, Note_off_c, 0, 72, 62
1, 255784, Note_on_c, 0, 70, 58
1, 255810, Note_off_c, 0, 70, 68
1, 255840, Note_on_c, 0, 72, 53
1, 255858, Note_on_c, 0, 52, 73
1, 255876, Note_off_c, 0, 72, 66
1, 255885, Note_on_c, 0, 70, 65
1, 255906, Poly_aftertouch_c, 0, 46, 0
1, 255918, Note_off_c, 0, 70, 64
1, 255953, Note_on_c, 0, 72, 62
1, 255987, Note_off_c, 0, 72, 66
1, 255994, Note_on_c, 0, 70, 62
1, 256031, Note_off_c, 0, 70, 56
1, 256065, Note_on_c, 0, 72, 62
1, 256093, Note_on_c, 0, 53, 72
1, 256098, Note_off_c, 0, 72, 65
1, 256117, Note_on_c, 0, 70, 66
1, 256120, Control_c, 0, 64, 92
1, 256129, Note_off_c, 0, 52, 65
1, 256136, Control_c, 0, 64, 71
1, 256151, Control_c, 0, 64, 59
1, 256158, Note_off_c, 0, 70, 61
1, 256166, Control_c, 0, 64, 54
1, 256181, Control_c, 0, 64, 57
1, 256195, Note_on_c, 0, 72, 52
1, 256203, Control_c, 0, 64, 62
1, 256218, Control_c, 0, 64, 67
1, 256233, Control_c, 0, 64, 73
1, 256244, Note_on_c, 0, 70, 55
1, 256247, Control_c, 0, 64, 80
1, 256262, Control_c, 0, 64, 87
1, 256277, Control_c, 0, 64, 92
1, 256281, Note_off_c, 0, 72, 61
1, 256292, Control_c, 0, 64, 93
1, 256321, Control_c, 0, 64, 94
1, 256336, Control_c, 0, 64, 96
1, 256343, Note_on_c, 0, 54, 64
1, 256347, Note_on_c, 0, 69, 62
1, 256351, Control_c, 0, 64, 94
1, 256366, Control_c, 0, 64, 81
1, 256381, Control_c, 0, 64, 68
1, 256383, Note_off_c, 0, 53, 63
1, 256395, Control_c, 0, 64, 54
1, 256398, Note_off_c, 0, 70, 32
1, 256410, Control_c, 0, 64, 46
1, 256425, Control_c, 0, 64, 47
1, 256437, Note_off_c, 0, 69, 62
1, 256439, Control_c, 0, 64, 53
1, 256453, Note_on_c, 0, 70, 61
1, 256454, Control_c, 0, 64, 61
1, 256469, Control_c, 0, 64, 65
1, 256484, Control_c, 0, 64, 69
1, 256499, Control_c, 0, 64, 72
1, 256514, Control_c, 0, 64, 74
1, 256529, Control_c, 0, 64, 75
1, 256544, Control_c, 0, 64, 75
1, 256558, Control_c, 0, 64, 77
1, 256573, Control_c, 0, 64, 81
1, 256588, Control_c, 0, 64, 86
1, 256594, Note_on_c, 0, 72, 68
1, 256596, Note_off_c, 0, 70, 58
1, 256597, Note_off_c, 0, 54, 63
1, 256603, Note_on_c, 0, 55, 51
1, 256603, Control_c, 0, 64, 91
1, 256618, Control_c, 0, 64, 87
1, 256632, Control_c, 0, 64, 75
1, 256647, Control_c, 0, 64, 65
1, 256662, Control_c, 0, 64, 59
1, 256677, Control_c, 0, 64, 58
1, 256692, Control_c, 0, 64, 61
1, 256706, Control_c, 0, 64, 64
1, 256714, Note_on_c, 0, 70, 69
1, 256719, Note_off_c, 0, 72, 64
1, 256721, Control_c, 0, 64, 68
1, 256736, Control_c, 0, 64, 72
1, 256751, Control_c, 0, 64, 77
1, 256765, Control_c, 0, 64, 82
1, 256780, Control_c, 0, 64, 84
1, 256795, Control_c, 0, 64, 86
1, 256810, Control_c, 0, 64, 86
1, 256825, Control_c, 0, 64, 87
1, 256839, Control_c, 0, 64, 90
1, 256854, Control_c, 0, 64, 96
1, 256869, Control_c, 0, 64, 103
1, 256879, Note_on_c, 0, 73, 65
1, 256880, Note_on_c, 0, 51, 51
1, 256884, Control_c, 0, 64, 113
1, 256892, Note_off_c, 0, 55, 56
1, 256899, Control_c, 0, 64, 127
1, 256913, Note_off_c, 0, 44, 58
1, 256913, Control_c, 0, 64, 105
1, 256922, Note_off_c, 0, 70, 59
1, 256937, Control_c, 0, 64, 83
1, 256952, Control_c, 0, 64, 66
1, 256967, Control_c, 0, 64, 56
1, 256982, Control_c, 0, 64, 52
1, 256997, Control_c, 0, 64, 55
1, 257011, Control_c, 0, 64, 61
1, 257020, Note_off_c, 0, 61, 56
1, 257026, Control_c, 0, 64, 65
1, 257035, Note_on_c, 0, 67, 62
1, 257041, Control_c, 0, 64, 70
1, 257056, Control_c, 0, 64, 75
1, 257070, Control_c, 0, 64, 79
1, 257081, Note_off_c, 0, 73, 63
1, 257085, Control_c, 0, 64, 81
1, 257100, Control_c, 0, 64, 82
1, 257115, Control_c, 0, 64, 83
1, 257130, Control_c, 0, 64, 85
1, 257144, Control_c, 0, 64, 89
1, 257159, Control_c, 0, 64, 95
1, 257174, Control_c, 0, 64, 102
1, 257188, Control_c, 0, 64, 108
1, 257203, Control_c, 0, 64, 108
1, 257215, Note_on_c, 0, 56, 34
1, 257226, Note_on_c, 0, 44, 41
1, 257233, Control_c, 0, 64, 109
1, 257248, Control_c, 0, 64, 109
1, 257262, Control_c, 0, 64, 110
1, 257283, Note_on_c, 0, 68, 65
1, 257292, Control_c, 0, 64, 102
1, 257296, Note_off_c, 0, 67, 62
1, 257307, Control_c, 0, 64, 85
1, 257319, Note_on_c, 0, 60, 46
1, 257322, Control_c, 0, 64, 67
1, 257336, Control_c, 0, 64, 55
1, 257351, Control_c, 0, 64, 40
1, 257366, Control_c, 0, 64, 36
1, 257381, Control_c, 0, 64, 40
1, 257388, Note_off_c, 0, 51, 36
1, 257396, Control_c, 0, 64, 53
1, 257411, Control_c, 0, 64, 61
1, 257426, Control_c, 0, 64, 65
1, 257438, Note_off_c, 0, 60, 62
1, 257441, Control_c, 0, 64, 67
1, 257494, Note_on_c, 0, 63, 43
1, 257500, Control_c, 0, 64, 68
1, 257515, Control_c, 0, 64, 69
1, 257529, Control_c, 0, 64, 71
1, 257544, Control_c, 0, 64, 74
1, 257559, Control_c, 0, 64, 78
1, 257574, Control_c, 0, 64, 81
1, 257588, Control_c, 0, 64, 84
1, 257602, Note_on_c, 0, 51, 47
1, 257602, Note_off_c, 0, 56, 42
1, 257603, Control_c, 0, 64, 87
1, 257618, Control_c, 0, 64, 88
1, 257633, Control_c, 0, 64, 89
1, 257648, Control_c, 0, 64, 90
1, 257662, Control_c, 0, 64, 93
1, 257685, Control_c, 0, 64, 98
1, 257694, Note_on_c, 0, 58, 57
1, 257699, Note_off_c, 0, 63, 58
1, 257700, Control_c, 0, 64, 105
1, 257715, Control_c, 0, 64, 118
1, 257730, Control_c, 0, 64, 127
1, 257790, Note_off_c, 0, 58, 61
1, 257822, Note_on_c, 0, 63, 63
1, 257939, Note_on_c, 0, 54, 58
1, 257955, Note_on_c, 0, 60, 69
1, 257958, Note_off_c, 0, 63, 59
1, 257968, Note_off_c, 0, 51, 51
1, 258020, Note_off_c, 0, 60, 63
1, 258064, Note_on_c, 0, 63, 67
1, 258183, Note_on_c, 0, 52, 52
1, 258202, Note_off_c, 0, 63, 56
1, 258207, Note_off_c, 0, 54, 37
1, 258219, Control_c, 0, 64, 89
1, 258234, Control_c, 0, 64, 64
1, 258249, Control_c, 0, 64, 0
1, 258249, Note_on_c, 0, 61, 60
1, 258323, Control_c, 0, 64, 22
1, 258338, Control_c, 0, 64, 55
1, 258352, Control_c, 0, 64, 62
1, 258367, Control_c, 0, 64, 65
1, 258368, Note_on_c, 0, 64, 60
1, 258382, Control_c, 0, 64, 68
1, 258389, Note_off_c, 0, 61, 57
1, 258397, Control_c, 0, 64, 72
1, 258401, Note_off_c, 0, 68, 59
1, 258411, Control_c, 0, 64, 78
1, 258433, Control_c, 0, 64, 87
1, 258448, Control_c, 0, 64, 112
1, 258463, Control_c, 0, 64, 127
1, 258476, Note_off_c, 0, 52, 60
1, 258506, Note_off_c, 0, 64, 52
1, 258511, Note_on_c, 0, 67, 71
1, 258527, Note_on_c, 0, 48, 47
1, 258547, Note_on_c, 0, 61, 47
1, 258571, Note_off_c, 0, 44, 37
1, 258579, Note_off_c, 0, 61, 56
1, 258627, Note_off_c, 0, 67, 64
1, 258630, Note_on_c, 0, 68, 73
1, 258641, Note_off_c, 0, 48, 58
1, 258654, Note_on_c, 0, 66, 55
1, 258710, Note_off_c, 0, 68, 56
1, 258723, Note_off_c, 0, 66, 56
1, 258746, Note_on_c, 0, 49, 60
1, 258747, Note_on_c, 0, 67, 74
1, 258781, Note_on_c, 0, 61, 50
1, 258806, Note_off_c, 0, 61, 57
1, 258859, Note_on_c, 0, 68, 75
1, 258876, Note_on_c, 0, 64, 50
1, 258876, Note_off_c, 0, 67, 56
1, 258918, Note_off_c, 0, 64, 58
1, 258950, Note_off_c, 0, 68, 59
1, 258987, Note_off_c, 0, 49, 36
1, 259019, Note_on_c, 0, 42, 46
1, 259027, Note_on_c, 0, 69, 72
1, 259065, Note_on_c, 0, 61, 47
1, 259071, Control_c, 0, 64, 78
1, 259086, Control_c, 0, 64, 53
1, 259101, Control_c, 0, 64, 0
1, 259134, Note_off_c, 0, 61, 56
1, 259146, Control_c, 0, 64, 34
1, 259161, Control_c, 0, 64, 61
1, 259171, Note_on_c, 0, 63, 54
1, 259182, Control_c, 0, 64, 66
1, 259197, Control_c, 0, 64, 71
1, 259212, Control_c, 0, 64, 73
1, 259226, Control_c, 0, 64, 75
1, 259240, Control_c, 0, 64, 76
1, 259241, Note_off_c, 0, 63, 55
1, 259255, Control_c, 0, 64, 77
1, 259270, Control_c, 0, 64, 80
1, 259285, Control_c, 0, 64, 84
1, 259295, Note_on_c, 0, 68, 72
1, 259300, Control_c, 0, 64, 91
1, 259304, Note_off_c, 0, 42, 57
1, 259306, Note_on_c, 0, 61, 64
1, 259312, Note_on_c, 0, 44, 58
1, 259314, Control_c, 0, 64, 102
1, 259324, Note_off_c, 0, 69, 57
1, 259330, Control_c, 0, 64, 127
1, 259363, Note_off_c, 0, 61, 59
1, 259427, Note_off_c, 0, 68, 61
1, 259462, Poly_aftertouch_c, 0, 64, 127
1, 259492, Poly_aftertouch_c, 0, 64, 0
1, 259567, Note_on_c, 0, 66, 75
1, 259567, Control_c, 0, 64, 82
1, 259582, Control_c, 0, 64, 62
1, 259593, Note_on_c, 0, 45, 44
1, 259597, Note_on_c, 0, 54, 47
1, 259597, Control_c, 0, 64, 26
1, 259611, Control_c, 0, 64, 21
1, 259618, Note_off_c, 0, 44, 56
1, 259626, Control_c, 0, 64, 31
1, 259641, Control_c, 0, 64, 52
1, 259656, Control_c, 0, 64, 62
1, 259670, Control_c, 0, 64, 66
1, 259685, Control_c, 0, 64, 69
1, 259700, Control_c, 0, 64, 71
1, 259715, Control_c, 0, 64, 74
1, 259716, Note_off_c, 0, 54, 53
1, 259721, Note_on_c, 0, 61, 53
1, 259730, Control_c, 0, 64, 77
1, 259745, Control_c, 0, 64, 82
1, 259760, Control_c, 0, 64, 86
1, 259775, Control_c, 0, 64, 92
1, 259790, Control_c, 0, 64, 100
1, 259804, Control_c, 0, 64, 113
1, 259819, Control_c, 0, 64, 127
1, 259892, Note_off_c, 0, 66, 50
1, 259961, Note_on_c, 0, 46, 38
1, 259969, Note_off_c, 0, 45, 56
1, 259989, Control_c, 0, 64, 103
1, 260004, Control_c, 0, 64, 75
1, 260004, Note_on_c, 0, 64, 59
1, 260019, Control_c, 0, 64, 58
1, 260034, Control_c, 0, 64, 14
1, 260040, Note_off_c, 0, 61, 61
1, 260049, Control_c, 0, 64, 0
1, 260078, Control_c, 0, 64, 40
1, 260093, Control_c, 0, 64, 58
1, 260095, Poly_aftertouch_c, 0, 55, 127
1, 260108, Control_c, 0, 64, 65
1, 260123, Control_c, 0, 64, 69
1, 260138, Control_c, 0, 64, 73
1, 260153, Control_c, 0, 64, 75
1, 260168, Control_c, 0, 64, 77
1, 260180, Note_on_c, 0, 61, 49
1, 260183, Control_c, 0, 64, 78
1, 260187, Poly_aftertouch_c, 0, 55, 0
1, 260198, Control_c, 0, 64, 79
1, 260213, Control_c, 0, 64, 83
1, 260227, Control_c, 0, 64, 89
1, 260242, Control_c, 0, 64, 98
1, 260257, Control_c, 0, 64, 111
1, 260272, Control_c, 0, 64, 127
1, 260282, Note_off_c, 0, 61, 59
1, 260312, Note_on_c, 0, 55, 53
1, 260317, Note_on_c, 0, 38, 42
1, 260341, Note_off_c, 0, 46, 33
1, 260375, Note_off_c, 0, 55, 52
1, 260428, Note_off_c, 0, 38, 48
1, 260431, Note_on_c, 0, 61, 43
1, 260460, Note_on_c, 0, 39, 45
1, 260460, Note_on_c, 0, 63, 46
1, 260464, Note_off_c, 0, 64, 62
1, 260497, Note_off_c, 0, 63, 64
1, 260501, Note_on_c, 0, 66, 60
1, 260508, Control_c, 0, 64, 115
1, 260523, Control_c, 0, 64, 75
1, 260528, Note_off_c, 0, 39, 54
1, 260538, Control_c, 0, 64, 58
1, 260552, Note_on_c, 0, 64, 65
1, 260553, Control_c, 0, 64, 14
1, 260567, Note_off_c, 0, 66, 56
1, 260568, Control_c, 0, 64, 0
1, 260569, Note_on_c, 0, 38, 52
1, 260583, Control_c, 0, 64, 15
1, 260589, Note_off_c, 0, 61, 0
1, 260597, Control_c, 0, 64, 50
1, 260612, Control_c, 0, 64, 62
1, 260626, Poly_aftertouch_c, 0, 61, 127
1, 260627, Control_c, 0, 64, 67
1, 260642, Control_c, 0, 64, 71
1, 260657, Control_c, 0, 64, 76
1, 260678, Control_c, 0, 64, 82
1, 260689, Note_off_c, 0, 38, 59
1, 260689, Poly_aftertouch_c, 0, 61, 0
1, 260693, Control_c, 0, 64, 88
1, 260706, Note_on_c, 0, 63, 66
1, 260708, Control_c, 0, 64, 96
1, 260712, Note_off_c, 0, 64, 62
1, 260721, Note_on_c, 0, 39, 55
1, 260724, Control_c, 0, 64, 108
1, 260739, Control_c, 0, 64, 127
1, 260757, Note_off_c, 0, 39, 64
1, 260942, Note_on_c, 0, 32, 46
1, 260947, Control_c, 0, 64, 101
1, 260949, Note_on_c, 0, 44, 42
1, 260952, Note_on_c, 0, 68, 66
1, 260959, Note_on_c, 0, 60, 56
1, 260962, Control_c, 0, 64, 68
1, 260976, Control_c, 0, 64, 43
1, 260991, Control_c, 0, 64, 0
1, 261017, Note_off_c, 0, 63, 55
1, 261036, Control_c, 0, 64, 32
1, 261051, Control_c, 0, 64, 59
1, 261066, Control_c, 0, 64, 65
1, 261069, Note_off_c, 0, 60, 62
1, 261080, Control_c, 0, 64, 69
1, 261095, Control_c, 0, 64, 74
1, 261110, Control_c, 0, 64, 80
1, 261115, Note_off_c, 0, 32, 61
1, 261125, Control_c, 0, 64, 88
1, 261140, Control_c, 0, 64, 102
1, 261140, Note_on_c, 0, 63, 57
1, 261152, Note_off_c, 0, 44, 62
1, 261155, Control_c, 0, 64, 127
1, 261277, Note_on_c, 0, 58, 67
1, 261291, Note_off_c, 0, 63, 54
1, 261294, Note_on_c, 0, 51, 71
1, 261314, Note_on_c, 0, 39, 44
1, 261357, Note_off_c, 0, 39, 53
1, 261364, Note_off_c, 0, 58, 60
1, 261364, Note_off_c, 0, 51, 62
1, 261389, Note_off_c, 0, 68, 57
1, 261399, Note_on_c, 0, 63, 69
1, 261517, Control_c, 0, 64, 82
1, 261523, Note_on_c, 0, 68, 80
1, 261525, Note_on_c, 0, 42, 65
1, 261528, Note_on_c, 0, 54, 61
1, 261532, Control_c, 0, 64, 64
1, 261536, Note_on_c, 0, 60, 69
1, 261547, Control_c, 0, 64, 54
1, 261548, Note_off_c, 0, 63, 60
1, 261562, Control_c, 0, 64, 55
1, 261576, Control_c, 0, 64, 60
1, 261591, Control_c, 0, 64, 65
1, 261599, Note_off_c, 0, 54, 62
1, 261601, Note_off_c, 0, 42, 63
1, 261606, Control_c, 0, 64, 73
1, 261619, Note_off_c, 0, 60, 64
1, 261621, Control_c, 0, 64, 84
1, 261635, Control_c, 0, 64, 105
1, 261650, Control_c, 0, 64, 127
1, 261657, Note_on_c, 0, 63, 69
1, 261779, Note_on_c, 0, 52, 56
1, 261785, Note_on_c, 0, 40, 54
1, 261785, Control_c, 0, 64, 82
1, 261795, Note_off_c, 0, 63, 58
1, 261800, Control_c, 0, 64, 59
1, 261814, Control_c, 0, 64, 27
1, 261829, Control_c, 0, 64, 25
1, 261830, Note_on_c, 0, 56, 72
1, 261844, Control_c, 0, 64, 38
1, 261858, Control_c, 0, 64, 58
1, 261870, Note_off_c, 0, 52, 65
1, 261873, Control_c, 0, 64, 65
1, 261888, Control_c, 0, 64, 72
1, 261903, Control_c, 0, 64, 80
1, 261906, Note_off_c, 0, 40, 63
1, 261918, Control_c, 0, 64, 90
1, 261933, Control_c, 0, 64, 101
1, 261948, Control_c, 0, 64, 127
1, 261959, Note_on_c, 0, 61, 62
1, 261962, Note_off_c, 0, 56, 59
1, 261987, Note_off_c, 0, 68, 49
1, 262081, Control_c, 0, 64, 104
1, 262085, Note_off_c, 0, 61, 52
1, 262095, Note_on_c, 0, 67, 71
1, 262096, Control_c, 0, 64, 70
1, 262097, Note_on_c, 0, 36, 61
1, 262100, Note_on_c, 0, 48, 56
1, 262111, Control_c, 0, 64, 45
1, 262112, Note_on_c, 0, 56, 57
1, 262125, Control_c, 0, 64, 0
1, 262177, Control_c, 0, 64, 42
1, 262192, Control_c, 0, 64, 59
1, 262199, Note_off_c, 0, 48, 64
1, 262207, Control_c, 0, 64, 65
1, 262207, Note_off_c, 0, 36, 62
1, 262214, Note_off_c, 0, 67, 63
1, 262220, Note_on_c, 0, 66, 67
1, 262222, Control_c, 0, 64, 68
1, 262230, Note_off_c, 0, 56, 52
1, 262231, Note_on_c, 0, 68, 75
1, 262237, Control_c, 0, 64, 72
1, 262251, Control_c, 0, 64, 75
1, 262266, Control_c, 0, 64, 79
1, 262281, Control_c, 0, 64, 84
1, 262296, Control_c, 0, 64, 93
1, 262297, Note_off_c, 0, 68, 59
1, 262302, Note_off_c, 0, 66, 62
1, 262304, Poly_aftertouch_c, 0, 43, 127
1, 262311, Control_c, 0, 64, 127
1, 262327, Note_on_c, 0, 49, 76
1, 262332, Note_on_c, 0, 67, 82
1, 262338, Note_on_c, 0, 56, 72
1, 262340, Note_on_c, 0, 37, 65
1, 262361, Note_off_c, 0, 49, 64
1, 262392, Poly_aftertouch_c, 0, 43, 0
1, 262393, Note_off_c, 0, 37, 61
1, 262443, Note_off_c, 0, 56, 38
1, 262444, Note_on_c, 0, 64, 50
1, 262450, Note_on_c, 0, 68, 78
1, 262474, Note_off_c, 0, 64, 63
1, 262475, Note_off_c, 0, 67, 62
1, 262516, Note_off_c, 0, 68, 62
1, 262593, Control_c, 0, 64, 94
1, 262608, Control_c, 0, 64, 65
1, 262614, Note_on_c, 0, 30, 55
1, 262619, Note_on_c, 0, 42, 56
1, 262623, Control_c, 0, 64, 0
1, 262626, Note_on_c, 0, 71, 77
1, 262643, Note_on_c, 0, 61, 55
1, 262681, Control_c, 0, 64, 39
1, 262696, Control_c, 0, 64, 63
1, 262711, Control_c, 0, 64, 70
1, 262724, Note_off_c, 0, 61, 56
1, 262726, Control_c, 0, 64, 83
1, 262741, Control_c, 0, 64, 103
1, 262750, Note_off_c, 0, 71, 58
1, 262756, Control_c, 0, 64, 127
1, 262771, Note_on_c, 0, 69, 69
1, 262786, Note_off_c, 0, 42, 62
1, 262788, Note_off_c, 0, 30, 36
1, 262789, Note_on_c, 0, 63, 54
1, 262811, Note_off_c, 0, 69, 62
1, 262828, Note_off_c, 0, 63, 63
1, 262883, Note_on_c, 0, 69, 81
1, 262884, Note_on_c, 0, 61, 83
1, 262885, Note_on_c, 0, 44, 71
1, 262898, Note_on_c, 0, 32, 54
1, 262959, Note_off_c, 0, 61, 58
1, 262967, Note_off_c, 0, 32, 55
1, 262993, Note_on_c, 0, 64, 77
1, 262994, Note_off_c, 0, 44, 56
1, 262997, Note_off_c, 0, 69, 63
1, 262997, Note_on_c, 0, 68, 79
1, 263043, Note_off_c, 0, 64, 63
1, 263054, Note_off_c, 0, 68, 60
1, 263089, Control_c, 0, 64, 114
1, 263104, Control_c, 0, 64, 77
1, 263112, Note_on_c, 0, 45, 75
1, 263119, Note_on_c, 0, 68, 86
1, 263119, Control_c, 0, 64, 71
1, 263120, Note_on_c, 0, 33, 72
1, 263129, Note_on_c, 0, 54, 90
1, 263134, Control_c, 0, 64, 74
1, 263148, Control_c, 0, 64, 81
1, 263149, Poly_aftertouch_c, 0, 36, 0
1, 263163, Control_c, 0, 64, 105
1, 263178, Control_c, 0, 64, 127
1, 263194, Note_off_c, 0, 33, 62
1, 263200, Note_off_c, 0, 45, 63
1, 263221, Note_on_c, 0, 66, 65
1, 263233, Note_on_c, 0, 61, 84
1, 263253, Note_off_c, 0, 54, 30
1, 263259, Note_off_c, 0, 68, 61
1, 263307, Note_off_c, 0, 66, 62
1, 263327, Control_c, 0, 64, 83
1, 263342, Control_c, 0, 64, 57
1, 263357, Control_c, 0, 64, 0
1, 263367, Note_on_c, 0, 64, 90
1, 263370, Note_on_c, 0, 55, 92
1, 263371, Control_c, 0, 64, 17
1, 263375, Note_on_c, 0, 46, 80
1, 263383, Note_off_c, 0, 61, 50
1, 263386, Control_c, 0, 64, 54
1, 263388, Note_on_c, 0, 34, 73
1, 263401, Control_c, 0, 64, 68
1, 263412, Note_off_c, 0, 46, 63
1, 263416, Control_c, 0, 64, 89
1, 263430, Poly_aftertouch_c, 0, 42, 0
1, 263431, Note_off_c, 0, 34, 64
1, 263431, Control_c, 0, 64, 127
1, 263479, Note_off_c, 0, 55, 56
1, 263481, Note_on_c, 0, 63, 92
1, 263486, Note_on_c, 0, 61, 83
1, 263491, Note_off_c, 0, 64, 63
1, 263526, Note_off_c, 0, 63, 65
1, 263528, Note_off_c, 0, 61, 65
1, 263608, Control_c, 0, 64, 72
1, 263623, Control_c, 0, 64, 46
1, 263635, Note_on_c, 0, 61, 92
1, 263635, Note_on_c, 0, 71, 92
1, 263638, Control_c, 0, 64, 23
1, 263639, Note_on_c, 0, 39, 83
1, 263640, Note_on_c, 0, 27, 74
1, 263653, Control_c, 0, 64, 46
1, 263668, Control_c, 0, 64, 64
1, 263690, Control_c, 0, 64, 79
1, 263704, Control_c, 0, 64, 127
1, 263705, Note_off_c, 0, 27, 63
1, 263727, Note_off_c, 0, 39, 64
1, 263755, Note_on_c, 0, 70, 74
1, 263760, Note_on_c, 0, 67, 87
1, 263768, Note_off_c, 0, 61, 60
1, 263768, Note_off_c, 0, 71, 62
1, 263790, Note_off_c, 0, 67, 66
1, 263799, Note_off_c, 0, 70, 67
1, 263817, Poly_aftertouch_c, 0, 66, 127
1, 263855, Poly_aftertouch_c, 0, 66, 0
1, 263926, Control_c, 0, 64, 100
1, 263930, Note_on_c, 0, 76, 105
1, 263931, Note_on_c, 0, 51, 85
1, 263938, Note_on_c, 0, 39, 77
1, 263941, Note_on_c, 0, 67, 91
1, 263941, Control_c, 0, 64, 69
1, 263956, Control_c, 0, 64, 66
1, 263970, Control_c, 0, 64, 72
1, 263977, Note_off_c, 0, 51, 65
1, 263985, Control_c, 0, 64, 89
1, 263999, Note_off_c, 0, 39, 61
1, 264000, Control_c, 0, 64, 127
1, 264085, Note_on_c, 0, 75, 100
1, 264094, Note_on_c, 0, 73, 95
1, 264097, Note_off_c, 0, 67, 56
1, 264100, Note_off_c, 0, 76, 65
1, 264169, Note_off_c, 0, 75, 63
1, 264234, Note_off_c, 0, 73, 64
1, 264347, Note_on_c, 0, 44, 69
1, 264351, Note_on_c, 0, 32, 66
1, 264386, Note_on_c, 0, 80, 98
1, 264395, Note_on_c, 0, 75, 97
1, 264401, Control_c, 0, 64, 73
1, 264410, Note_on_c, 0, 73, 81
1, 264423, Control_c, 0, 64, 0
1, 264498, Control_c, 0, 64, 62
1, 264513, Control_c, 0, 64, 77
1, 264527, Control_c, 0, 64, 101
1, 264532, Note_off_c, 0, 32, 61
1, 264542, Control_c, 0, 64, 127
1, 264566, Note_off_c, 0, 44, 64
1, 264603, Note_off_c, 0, 73, 59
1, 264616, Note_on_c, 0, 72, 73
1, 264639, Note_off_c, 0, 75, 41
1, 264661, Note_off_c, 0, 80, 61
1, 264674, Note_off_c, 0, 72, 62
1, 264741, Note_on_c, 0, 80, 93
1, 264744, Note_on_c, 0, 75, 87
1, 264750, Note_on_c, 0, 72, 85
1, 264756, Note_on_c, 0, 51, 80
1, 264859, Note_off_c, 0, 51, 36
1, 264878, Note_off_c, 0, 72, 53
1, 264884, Note_on_c, 0, 70, 72
1, 264887, Note_off_c, 0, 75, 57
1, 264932, Note_off_c, 0, 80, 59
1, 264979, Note_off_c, 0, 70, 61
1, 265019, Note_on_c, 0, 80, 95
1, 265027, Note_on_c, 0, 51, 63
1, 265033, Note_on_c, 0, 75, 85
1, 265034, Note_on_c, 0, 44, 60
1, 265037, Note_on_c, 0, 72, 74
1, 265047, Control_c, 0, 64, 76
1, 265062, Control_c, 0, 64, 46
1, 265076, Control_c, 0, 64, 0
1, 265121, Control_c, 0, 64, 57
1, 265136, Control_c, 0, 64, 69
1, 265141, Note_off_c, 0, 72, 62
1, 265150, Control_c, 0, 64, 90
1, 265160, Note_on_c, 0, 68, 62
1, 265173, Control_c, 0, 64, 127
1, 265197, Note_off_c, 0, 75, 59
1, 265197, Note_off_c, 0, 80, 61
1, 265244, Note_off_c, 0, 68, 60
1, 265272, Note_on_c, 0, 80, 94
1, 265291, Note_on_c, 0, 75, 79
1, 265304, Note_on_c, 0, 70, 64
1, 265388, Note_on_c, 0, 68, 69
1, 265404, Note_off_c, 0, 70, 60
1, 265430, Note_off_c, 0, 80, 62
1, 265432, Note_off_c, 0, 75, 60
1, 265443, Note_off_c, 0, 68, 61
1, 265498, Control_c, 0, 64, 90
1, 265505, Note_on_c, 0, 79, 86
1, 265513, Control_c, 0, 64, 66
1, 265522, Note_on_c, 0, 70, 63
1, 265522, Note_on_c, 0, 75, 71
1, 265528, Control_c, 0, 64, 42
1, 265529, Note_on_c, 0, 58, 45
1, 265543, Control_c, 0, 64, 42
1, 265558, Control_c, 0, 64, 54
1, 265567, Note_off_c, 0, 58, 58
1, 265573, Control_c, 0, 64, 64
1, 265574, Note_off_c, 0, 70, 60
1, 265580, Note_off_c, 0, 75, 62
1, 265580, Note_off_c, 0, 79, 65
1, 265588, Control_c, 0, 64, 74
1, 265602, Control_c, 0, 64, 95
1, 265617, Control_c, 0, 64, 127
1, 265626, Note_on_c, 0, 67, 61
1, 265648, Note_off_c, 0, 67, 64
1, 265737, Control_c, 0, 64, 110
1, 265749, Note_on_c, 0, 67, 51
1, 265751, Note_on_c, 0, 75, 87
1, 265752, Control_c, 0, 64, 68
1, 265758, Note_on_c, 0, 70, 74
1, 265766, Control_c, 0, 64, 0
1, 265796, Note_on_c, 0, 58, 44
1, 265811, Control_c, 0, 64, 38
1, 265826, Control_c, 0, 64, 63
1, 265835, Note_off_c, 0, 70, 61
1, 265840, Control_c, 0, 64, 73
1, 265844, Note_off_c, 0, 67, 64
1, 265855, Control_c, 0, 64, 91
1, 265859, Note_off_c, 0, 75, 62
1, 265868, Note_on_c, 0, 63, 63
1, 265870, Control_c, 0, 64, 127
1, 265901, Note_off_c, 0, 63, 64
1, 265951, Note_off_c, 0, 44, 61
1, 265984, Note_off_c, 0, 51, 59
1, 266032, Note_on_c, 0, 78, 88
1, 266045, Note_on_c, 0, 70, 77
1, 266062, Note_off_c, 0, 58, 63
1, 266161, Note_on_c, 0, 69, 76
1, 266202, Note_off_c, 0, 78, 62
1, 266212, Note_off_c, 0, 69, 62
1, 266220, Note_off_c, 0, 70, 59
1, 266267, Note_on_c, 0, 78, 90
1, 266271, Note_on_c, 0, 57, 60
1, 266277, Control_c, 0, 64, 86
1, 266292, Control_c, 0, 64, 66
1, 266294, Note_on_c, 0, 75, 71
1, 266306, Control_c, 0, 64, 53
1, 266321, Control_c, 0, 64, 51
1, 266336, Control_c, 0, 64, 56
1, 266351, Control_c, 0, 64, 63
1, 266366, Control_c, 0, 64, 71
1, 266379, Note_off_c, 0, 57, 63
1, 266380, Control_c, 0, 64, 81
1, 266393, Note_on_c, 0, 58, 63
1, 266395, Control_c, 0, 64, 100
1, 266398, Note_on_c, 0, 66, 65
1, 266407, Note_off_c, 0, 75, 62
1, 266410, Control_c, 0, 64, 127
1, 266416, Note_off_c, 0, 78, 62
1, 266506, Note_off_c, 0, 58, 56
1, 266553, Note_on_c, 0, 57, 50
1, 266559, Note_on_c, 0, 78, 89
1, 266574, Control_c, 0, 64, 95
1, 266586, Note_on_c, 0, 70, 61
1, 266589, Control_c, 0, 64, 73
1, 266603, Note_on_c, 0, 75, 67
1, 266604, Control_c, 0, 64, 63
1, 266604, Note_off_c, 0, 66, 63
1, 266619, Control_c, 0, 64, 61
1, 266634, Control_c, 0, 64, 63
1, 266649, Control_c, 0, 64, 68
1, 266670, Control_c, 0, 64, 75
1, 266676, Note_off_c, 0, 75, 62
1, 266685, Control_c, 0, 64, 87
1, 266687, Note_off_c, 0, 70, 64
1, 266699, Note_on_c, 0, 66, 69
1, 266700, Note_off_c, 0, 78, 62
1, 266700, Control_c, 0, 64, 107
1, 266708, Note_off_c, 0, 57, 59
1, 266715, Control_c, 0, 64, 127
1, 266731, Note_on_c, 0, 58, 53
1, 266907, Note_on_c, 0, 63, 51
1, 266914, Note_on_c, 0, 78, 85
1, 266922, Control_c, 0, 64, 101
1, 266937, Control_c, 0, 64, 71
1, 266952, Control_c, 0, 64, 49
1, 266956, Note_on_c, 0, 75, 58
1, 266959, Note_on_c, 0, 70, 44
1, 266965, Note_off_c, 0, 66, 61
1, 266967, Control_c, 0, 64, 0
1, 267011, Control_c, 0, 64, 49
1, 267026, Control_c, 0, 64, 63
1, 267040, Control_c, 0, 64, 71
1, 267054, Note_off_c, 0, 75, 63
1, 267055, Control_c, 0, 64, 81
1, 267062, Note_off_c, 0, 70, 59
1, 267063, Note_off_c, 0, 63, 62
1, 267070, Control_c, 0, 64, 97
1, 267083, Note_on_c, 0, 66, 63
1, 267085, Control_c, 0, 64, 127
1, 267189, Note_off_c, 0, 66, 49
1, 267200, Note_on_c, 0, 70, 58
1, 267209, Note_on_c, 0, 74, 64
1, 267217, Note_off_c, 0, 58, 61
1, 267316, Note_off_c, 0, 70, 53
1, 267337, Note_on_c, 0, 66, 50
1, 267461, Note_on_c, 0, 73, 69
1, 267465, Note_off_c, 0, 66, 58
1, 267470, Note_on_c, 0, 70, 59
1, 267513, Note_off_c, 0, 74, 39
1, 267576, Note_off_c, 0, 73, 63
1, 267582, Note_on_c, 0, 66, 63
1, 267600, Note_off_c, 0, 78, 54
1, 267654, Note_off_c, 0, 66, 54
1, 267710, Note_on_c, 0, 44, 55
1, 267719, Note_on_c, 0, 32, 47
1, 267744, Control_c, 0, 64, 100
1, 267759, Control_c, 0, 64, 68
1, 267773, Note_on_c, 0, 78, 78
1, 267774, Control_c, 0, 64, 47
1, 267789, Control_c, 0, 64, 28
1, 267799, Note_on_c, 0, 69, 66
1, 267804, Control_c, 0, 64, 29
1, 267811, Note_on_c, 0, 72, 62
1, 267818, Control_c, 0, 64, 45
1, 267833, Control_c, 0, 64, 60
1, 267834, Note_off_c, 0, 70, 64
1, 267838, Note_off_c, 0, 32, 60
1, 267848, Control_c, 0, 64, 68
1, 267862, Control_c, 0, 64, 75
1, 267877, Control_c, 0, 64, 87
1, 267882, Note_off_c, 0, 44, 63
1, 267892, Control_c, 0, 64, 101
1, 267907, Control_c, 0, 64, 127
1, 267945, Note_on_c, 0, 74, 27
1, 267958, Note_off_c, 0, 69, 58
1, 267964, Note_on_c, 0, 68, 65
1, 267989, Note_off_c, 0, 78, 63
1, 267993, Note_off_c, 0, 74, 48
1, 267996, Note_off_c, 0, 72, 62
1, 268001, Note_off_c, 0, 68, 62
1, 268068, Note_on_c, 0, 51, 63
1, 268070, Note_on_c, 0, 78, 82
1, 268074, Note_on_c, 0, 39, 46
1, 268089, Note_on_c, 0, 72, 67
1, 268100, Note_on_c, 0, 68, 62
1, 268110, Note_off_c, 0, 39, 56
1, 268129, Note_off_c, 0, 51, 60
1, 268181, Note_on_c, 0, 67, 74
1, 268182, Note_off_c, 0, 68, 60
1, 268194, Note_off_c, 0, 72, 59
1, 268236, Note_off_c, 0, 78, 59
1, 268238, Note_off_c, 0, 67, 63
1, 268331, Control_c, 0, 64, 86
1, 268333, Note_on_c, 0, 78, 86
1, 268339, Note_on_c, 0, 56, 57
1, 268346, Note_on_c, 0, 44, 48
1, 268346, Control_c, 0, 64, 64
1, 268347, Note_on_c, 0, 72, 62
1, 268357, Note_on_c, 0, 68, 64
1, 268361, Control_c, 0, 64, 0
1, 268420, Control_c, 0, 64, 44
1, 268435, Control_c, 0, 64, 61
1, 268448, Note_off_c, 0, 78, 55
1, 268449, Control_c, 0, 64, 68
1, 268461, Note_on_c, 0, 63, 60
1, 268464, Control_c, 0, 64, 75
1, 268476, Note_off_c, 0, 68, 57
1, 268479, Control_c, 0, 64, 83
1, 268494, Control_c, 0, 64, 93
1, 268497, Note_off_c, 0, 72, 60
1, 268509, Control_c, 0, 64, 110
1, 268524, Control_c, 0, 64, 127
1, 268527, Note_off_c, 0, 63, 63
1, 268577, Note_on_c, 0, 78, 81
1, 268598, Note_on_c, 0, 68, 67
1, 268603, Note_on_c, 0, 72, 70
1, 268643, Note_off_c, 0, 56, 50
1, 268685, Note_off_c, 0, 68, 57
1, 268694, Note_off_c, 0, 78, 53
1, 268712, Note_on_c, 0, 67, 65
1, 268801, Poly_aftertouch_c, 0, 74, 127
1, 268804, Note_off_c, 0, 67, 54
1, 268820, Control_c, 0, 64, 93
1, 268834, Control_c, 0, 64, 68
1, 268839, Note_on_c, 0, 77, 76
1, 268842, Poly_aftertouch_c, 0, 74, 0
1, 268849, Control_c, 0, 64, 52
1, 268853, Note_on_c, 0, 56, 50
1, 268854, Note_on_c, 0, 68, 57
1, 268864, Control_c, 0, 64, 43
1, 268879, Control_c, 0, 64, 48
1, 268893, Control_c, 0, 64, 59
1, 268900, Note_off_c, 0, 72, 63
1, 268917, Control_c, 0, 64, 66
1, 268932, Control_c, 0, 64, 74
1, 268934, Note_off_c, 0, 77, 63
1, 268947, Control_c, 0, 64, 87
1, 268955, Note_off_c, 0, 56, 52
1, 268958, Note_off_c, 0, 68, 62
1, 268962, Control_c, 0, 64, 116
1, 268977, Control_c, 0, 64, 127
1, 268990, Note_on_c, 0, 65, 28
1, 269028, Note_off_c, 0, 65, 47
1, 269124, Control_c, 0, 64, 97
1, 269132, Note_on_c, 0, 72, 65
1, 269139, Note_on_c, 0, 65, 48
1, 269139, Control_c, 0, 64, 67
1, 269152, Note_on_c, 0, 56, 37
1, 269154, Control_c, 0, 64, 0
1, 269228, Control_c, 0, 64, 45
1, 269243, Control_c, 0, 64, 58
1, 269258, Control_c, 0, 64, 63
1, 269272, Control_c, 0, 64, 65
1, 269287, Control_c, 0, 64, 68
1, 269290, Note_off_c, 0, 72, 64
1, 269292, Note_on_c, 0, 60, 34
1, 269302, Control_c, 0, 64, 72
1, 269305, Note_off_c, 0, 65, 58
1, 269317, Control_c, 0, 64, 79
1, 269326, Note_off_c, 0, 60, 43
1, 269332, Control_c, 0, 64, 93
1, 269346, Control_c, 0, 64, 127
1, 269388, Note_off_c, 0, 44, 61
1, 269452, Note_on_c, 0, 76, 70
1, 269463, Note_on_c, 0, 64, 55
1, 269463, Note_off_c, 0, 56, 64
1, 269546, Poly_aftertouch_c, 0, 71, 127
1, 269603, Note_on_c, 0, 63, 59
1, 269609, Note_off_c, 0, 76, 48
1, 269613, Note_off_c, 0, 64, 49
1, 269646, Note_off_c, 0, 63, 60
1, 269798, Note_on_c, 0, 76, 62
1, 269812, Control_c, 0, 64, 96
1, 269816, Note_on_c, 0, 66, 52
1, 269827, Control_c, 0, 64, 69
1, 269831, Note_on_c, 0, 55, 47
1, 269842, Control_c, 0, 64, 54
1, 269857, Control_c, 0, 64, 45
1, 269872, Control_c, 0, 64, 46
1, 269886, Control_c, 0, 64, 55
1, 269901, Control_c, 0, 64, 64
1, 269907, Poly_aftertouch_c, 0, 71, 0
1, 269916, Control_c, 0, 64, 69
1, 269931, Control_c, 0, 64, 77
1, 269942, Note_off_c, 0, 55, 61
1, 269946, Control_c, 0, 64, 87
1, 269961, Control_c, 0, 64, 98
1, 269970, Note_off_c, 0, 76, 61
1, 269975, Control_c, 0, 64, 115
1, 269978, Note_off_c, 0, 66, 61
1, 269988, Note_on_c, 0, 64, 34
1, 269990, Note_on_c, 0, 56, 33
1, 269990, Control_c, 0, 64, 127
1, 269999, Note_on_c, 0, 59, 42
1, 270157, Note_off_c, 0, 56, 42
1, 270195, Note_on_c, 0, 55, 36
1, 270198, Control_c, 0, 64, 97
1, 270205, Note_on_c, 0, 76, 58
1, 270209, Note_on_c, 0, 71, 53
1, 270212, Control_c, 0, 64, 71
1, 270227, Control_c, 0, 64, 54
1, 270241, Note_off_c, 0, 64, 12
1, 270242, Control_c, 0, 64, 36
1, 270257, Control_c, 0, 64, 34
1, 270271, Control_c, 0, 64, 42
1, 270272, Note_off_c, 0, 59, 32
1, 270286, Control_c, 0, 64, 57
1, 270301, Control_c, 0, 64, 64
1, 270316, Control_c, 0, 64, 70
1, 270331, Control_c, 0, 64, 76
1, 270345, Control_c, 0, 64, 81
1, 270360, Control_c, 0, 64, 86
1, 270375, Control_c, 0, 64, 89
1, 270390, Note_off_c, 0, 55, 43
1, 270390, Control_c, 0, 64, 92
1, 270405, Control_c, 0, 64, 96
1, 270427, Control_c, 0, 64, 100
1, 270432, Note_off_c, 0, 71, 58
1, 270433, Note_on_c, 0, 56, 41
1, 270442, Note_on_c, 0, 59, 21
1, 270442, Control_c, 0, 64, 108
1, 270456, Note_off_c, 0, 76, 57
1, 270457, Control_c, 0, 64, 127
1, 270464, Note_on_c, 0, 64, 41
1, 270768, Note_on_c, 0, 71, 36
1, 270771, Note_on_c, 0, 76, 53
1, 270783, Note_off_c, 0, 64, 40
1, 270786, Note_on_c, 0, 68, 34
1, 270798, Control_c, 0, 64, 87
1, 270813, Control_c, 0, 64, 69
1, 270828, Control_c, 0, 64, 58
1, 270843, Control_c, 0, 64, 54
1, 270858, Control_c, 0, 64, 56
1, 270873, Control_c, 0, 64, 61
1, 270887, Control_c, 0, 64, 66
1, 270902, Control_c, 0, 64, 73
1, 270917, Control_c, 0, 64, 86
1, 270932, Control_c, 0, 64, 105
1, 270947, Control_c, 0, 64, 127
1, 271024, Note_off_c, 0, 68, 41
1, 271028, Note_on_c, 0, 64, 36
1, 271032, Note_off_c, 0, 71, 41
1, 271112, Note_off_c, 0, 64, 53
1, 271347, Note_on_c, 0, 71, 36
1, 271355, Control_c, 0, 64, 113
1, 271370, Control_c, 0, 64, 82
1, 271384, Control_c, 0, 64, 70
1, 271399, Control_c, 0, 64, 66
1, 271414, Control_c, 0, 64, 69
1, 271429, Control_c, 0, 64, 73
1, 271444, Control_c, 0, 64, 84
1, 271458, Control_c, 0, 64, 110
1, 271473, Control_c, 0, 64, 127
1, 271673, Note_on_c, 0, 63, 31
1, 271734, Note_off_c, 0, 71, 62
1, 272149, Control_c, 0, 64, 94
1, 272163, Control_c, 0, 64, 73
1, 272164, Note_on_c, 0, 71, 33
1, 272178, Control_c, 0, 64, 64
1, 272193, Control_c, 0, 64, 61
1, 272208, Control_c, 0, 64, 63
1, 272223, Control_c, 0, 64, 67
1, 272238, Control_c, 0, 64, 75
1, 272253, Control_c, 0, 64, 89
1, 272268, Control_c, 0, 64, 127
1, 272323, Note_off_c, 0, 63, 41
1, 272783, Note_on_c, 0, 62, 18
1, 272889, Note_off_c, 0, 76, 51
1, 272957, Note_off_c, 0, 59, 41
1, 272959, Note_off_c, 0, 56, 59
1, 273210, Note_off_c, 0, 62, 45
1, 273919, Note_on_c, 0, 61, 22
1, 273958, Note_on_c, 0, 33, 23
1, 274017, Control_c, 0, 64, 87
1, 274032, Control_c, 0, 64, 67
1, 274047, Control_c, 0, 64, 52
1, 274061, Control_c, 0, 64, 34
1, 274076, Control_c, 0, 64, 32
1, 274091, Control_c, 0, 64, 40
1, 274105, Control_c, 0, 64, 55
1, 274120, Control_c, 0, 64, 63
1, 274135, Control_c, 0, 64, 69
1, 274158, Control_c, 0, 64, 77
1, 274173, Control_c, 0, 64, 90
1, 274187, Control_c, 0, 64, 127
1, 274226, Note_off_c, 0, 33, 40
1, 274457, Note_off_c, 0, 61, 40
1, 274610, Note_on_c, 0, 69, 26
1, 274647, Note_on_c, 0, 52, 23
1, 274676, Note_off_c, 0, 71, 37
1, 274688, Note_on_c, 0, 67, 6
1, 274932, Note_off_c, 0, 52, 43
1, 275037, Note_on_c, 0, 76, 52
1, 275091, Note_on_c, 0, 57, 13
1, 275095, Note_on_c, 0, 64, 19
1, 275147, Note_off_c, 0, 69, 41
1, 275148, Note_off_c, 0, 67, 38
1, 275298, Note_off_c, 0, 57, 42
1, 275302, Note_off_c, 0, 76, 47
1, 275316, Note_on_c, 0, 69, 26
1, 275317, Note_on_c, 0, 67, 26
1, 275338, Note_off_c, 0, 64, 40
1, 275353, Note_on_c, 0, 59, 30
1, 275506, Note_on_c, 0, 76, 60
1, 275547, Note_on_c, 0, 61, 32
1, 275552, Note_on_c, 0, 64, 28
1, 275558, Note_off_c, 0, 67, 41
1, 275568, Note_off_c, 0, 69, 41
1, 275585, Note_off_c, 0, 61, 56
1, 275590, Note_off_c, 0, 59, 39
1, 275670, Note_off_c, 0, 76, 58
1, 275708, Note_on_c, 0, 67, 17
1, 275723, Note_off_c, 0, 64, 40
1, 275769, Poly_aftertouch_c, 0, 69, 127
1, 275995, Note_on_c, 0, 76, 52
1, 276028, Note_on_c, 0, 64, 18
1, 276045, Note_on_c, 0, 38, 21
1, 276055, Control_c, 0, 64, 96
1, 276070, Control_c, 0, 64, 70
1, 276084, Control_c, 0, 64, 56
1, 276093, Note_off_c, 0, 67, 54
1, 276099, Control_c, 0, 64, 52
1, 276106, Poly_aftertouch_c, 0, 69, 0
1, 276116, Control_c, 0, 64, 56
1, 276130, Control_c, 0, 64, 63
1, 276145, Control_c, 0, 64, 72
1, 276160, Control_c, 0, 64, 88
1, 276174, Control_c, 0, 64, 127
1, 276181, Note_off_c, 0, 38, 54
1, 276244, Note_off_c, 0, 76, 62
1, 276301, Note_off_c, 0, 64, 49
1, 276355, Note_on_c, 0, 69, 14
1, 276358, Poly_aftertouch_c, 0, 66, 127
1, 276503, Note_on_c, 0, 74, 59
1, 276534, Note_on_c, 0, 54, 40
1, 276549, Note_on_c, 0, 62, 35
1, 276574, Note_off_c, 0, 69, 41
1, 276641, Note_off_c, 0, 74, 62
1, 276656, Note_off_c, 0, 62, 56
1, 276659, Poly_aftertouch_c, 0, 66, 0
1, 276685, Note_on_c, 0, 69, 44
1, 276695, Note_off_c, 0, 54, 32
1, 276696, Poly_aftertouch_c, 0, 66, 127
1, 276698, Note_on_c, 0, 66, 3
1, 276739, Note_on_c, 0, 57, 7
1, 276851, Note_on_c, 0, 73, 61
1, 276864, Note_on_c, 0, 47, 44
1, 276878, Control_c, 0, 64, 83
1, 276880, Note_on_c, 0, 61, 42
1, 276890, Note_off_c, 0, 66, 40
1, 276893, Note_off_c, 0, 69, 39
1, 276893, Control_c, 0, 64, 64
1, 276897, Note_off_c, 0, 57, 42
1, 276909, Control_c, 0, 64, 60
1, 276924, Control_c, 0, 64, 62
1, 276939, Control_c, 0, 64, 65
1, 276953, Control_c, 0, 64, 72
1, 276968, Control_c, 0, 64, 82
1, 276975, Note_off_c, 0, 47, 56
1, 276983, Control_c, 0, 64, 105
1, 276997, Control_c, 0, 64, 127
1, 277001, Note_off_c, 0, 61, 52
1, 277018, Note_off_c, 0, 73, 55
1, 277025, Note_on_c, 0, 69, 47
1, 277034, Note_on_c, 0, 66, 37
1, 277198, Control_c, 0, 64, 88
1, 277212, Control_c, 0, 64, 66
1, 277227, Control_c, 0, 64, 48
1, 277228, Note_on_c, 0, 73, 57
1, 277242, Control_c, 0, 64, 34
1, 277249, Note_on_c, 0, 61, 29
1, 277250, Note_on_c, 0, 40, 40
1, 277257, Control_c, 0, 64, 37
1, 277261, Note_off_c, 0, 69, 56
1, 277272, Control_c, 0, 64, 54
1, 277277, Note_off_c, 0, 66, 42
1, 277286, Control_c, 0, 64, 64
1, 277301, Control_c, 0, 64, 71
1, 277308, Note_off_c, 0, 40, 63
1, 277316, Control_c, 0, 64, 79
1, 277330, Control_c, 0, 64, 87
1, 277345, Control_c, 0, 64, 94
1, 277360, Control_c, 0, 64, 97
1, 277375, Note_off_c, 0, 61, 48
1, 277375, Control_c, 0, 64, 98
1, 277390, Control_c, 0, 64, 99
1, 277401, Note_off_c, 0, 73, 63
1, 277404, Control_c, 0, 64, 102
1, 277419, Control_c, 0, 64, 106
1, 277434, Control_c, 0, 64, 112
1, 277445, Note_on_c, 0, 68, 44
1, 277449, Control_c, 0, 64, 127
1, 277457, Note_on_c, 0, 64, 15
1, 277469, Note_on_c, 0, 52, 20
1, 277527, Note_off_c, 0, 52, 45
1, 277610, Note_on_c, 0, 71, 56
1, 277624, Note_on_c, 0, 56, 35
1, 277624, Note_on_c, 0, 50, 36
1, 277624, Note_off_c, 0, 64, 30
1, 277626, Note_on_c, 0, 59, 35
1, 277707, Note_off_c, 0, 59, 54
1, 277756, Note_off_c, 0, 56, 34
1, 277776, Note_on_c, 0, 64, 44
1, 277779, Note_off_c, 0, 50, 34
1, 277798, Note_on_c, 0, 52, 36
1, 277817, Note_off_c, 0, 68, 34
1, 277988, Note_on_c, 0, 69, 57
1, 277990, Control_c, 0, 64, 90
1, 277993, Note_off_c, 0, 64, 37
1, 278005, Control_c, 0, 64, 68
1, 278015, Note_on_c, 0, 57, 25
1, 278018, Note_on_c, 0, 49, 31
1, 278020, Control_c, 0, 64, 54
1, 278034, Control_c, 0, 64, 48
1, 278039, Note_off_c, 0, 52, 43
1, 278049, Control_c, 0, 64, 49
1, 278064, Control_c, 0, 64, 57
1, 278072, Note_off_c, 0, 71, 57
1, 278079, Control_c, 0, 64, 64
1, 278094, Control_c, 0, 64, 70
1, 278108, Control_c, 0, 64, 76
1, 278123, Control_c, 0, 64, 84
1, 278138, Control_c, 0, 64, 91
1, 278147, Note_off_c, 0, 57, 36
1, 278152, Control_c, 0, 64, 97
1, 278167, Control_c, 0, 64, 100
1, 278182, Control_c, 0, 64, 101
1, 278191, Note_off_c, 0, 49, 42
1, 278197, Note_on_c, 0, 52, 23
1, 278197, Control_c, 0, 64, 103
1, 278212, Control_c, 0, 64, 109
1, 278214, Note_on_c, 0, 64, 35
1, 278227, Control_c, 0, 64, 121
1, 278242, Control_c, 0, 64, 127
1, 278470, Note_on_c, 0, 45, 33
1, 278519, Note_on_c, 0, 73, 55
1, 278536, Note_on_c, 0, 61, 39
1, 278569, Control_c, 0, 64, 94
1, 278583, Control_c, 0, 64, 76
1, 278584, Note_off_c, 0, 52, 42
1, 278598, Control_c, 0, 64, 65
1, 278605, Note_off_c, 0, 64, 48
1, 278613, Control_c, 0, 64, 56
1, 278620, Note_off_c, 0, 69, 36
1, 278628, Control_c, 0, 64, 52
1, 278643, Control_c, 0, 64, 53
1, 278665, Control_c, 0, 64, 59
1, 278680, Control_c, 0, 64, 64
1, 278695, Control_c, 0, 64, 67
1, 278710, Control_c, 0, 64, 71
1, 278724, Control_c, 0, 64, 76
1, 278739, Control_c, 0, 64, 79
1, 278754, Control_c, 0, 64, 84
1, 278769, Control_c, 0, 64, 87
1, 278783, Control_c, 0, 64, 92
1, 278798, Control_c, 0, 64, 98
1, 278810, Note_on_c, 0, 69, 37
1, 278813, Control_c, 0, 64, 105
1, 278823, Note_on_c, 0, 52, 33
1, 278823, Note_on_c, 0, 64, 31
1, 278828, Control_c, 0, 64, 118
1, 278843, Control_c, 0, 64, 127
1, 278911, Note_off_c, 0, 61, 34
1, 278990, Note_off_c, 0, 52, 46
1, 278998, Note_off_c, 0, 64, 41
1, 279021, Note_on_c, 0, 57, 35
1, 279023, Note_on_c, 0, 61, 37
1, 279041, Note_off_c, 0, 69, 43
1, 279185, Note_on_c, 0, 69, 35
1, 279198, Note_on_c, 0, 54, 47
1, 279204, Note_off_c, 0, 61, 35
1, 279207, Note_on_c, 0, 62, 42
1, 279223, Note_off_c, 0, 57, 42
1, 279289, Note_off_c, 0, 62, 60
1, 279347, Control_c, 0, 64, 119
1, 279362, Control_c, 0, 64, 115
1, 279377, Control_c, 0, 64, 112
1, 279392, Control_c, 0, 64, 110
1, 279413, Control_c, 0, 64, 109
1, 279428, Control_c, 0, 64, 108
1, 279472, Note_off_c, 0, 54, 32
1, 279476, Note_on_c, 0, 52, 31
1, 279480, Note_on_c, 0, 61, 39
1, 279488, Control_c, 0, 64, 106
1, 279503, Control_c, 0, 64, 85
1, 279518, Control_c, 0, 64, 67
1, 279533, Control_c, 0, 64, 50
1, 279548, Control_c, 0, 64, 28
1, 279553, Note_off_c, 0, 69, 42
1, 279562, Control_c, 0, 64, 25
1, 279577, Control_c, 0, 64, 31
1, 279592, Control_c, 0, 64, 53
1, 279607, Control_c, 0, 64, 63
1, 279622, Control_c, 0, 64, 69
1, 279637, Control_c, 0, 64, 75
1, 279651, Control_c, 0, 64, 85
1, 279666, Control_c, 0, 64, 99
1, 279681, Control_c, 0, 64, 127
1, 279710, Note_off_c, 0, 45, 39
1, 279713, Note_off_c, 0, 52, 54
1, 279795, Note_on_c, 0, 69, 40
1, 279812, Note_on_c, 0, 64, 33
1, 279834, Note_off_c, 0, 61, 40
1, 279890, Note_off_c, 0, 69, 56
1, 279913, Note_off_c, 0, 64, 58
1, 279959, Note_off_c, 0, 73, 64
1, 279968, Note_on_c, 0, 61, 43
1, 280033, Note_off_c, 0, 61, 57
1, 280099, Note_on_c, 0, 33, 34
1, 280217, Note_off_c, 0, 33, 51
1, 280240, Note_on_c, 0, 76, 67
1, 280474, Note_off_c, 0, 76, 58
1, 280478, Note_on_c, 0, 52, 48
1, 280490, Note_on_c, 0, 69, 44
1, 280507, Note_on_c, 0, 67, 38
1, 280570, Note_off_c, 0, 52, 59
1, 280650, Note_on_c, 0, 76, 74
1, 280660, Note_on_c, 0, 57, 55
1, 280672, Note_on_c, 0, 64, 52
1, 280680, Note_off_c, 0, 69, 46
1, 280686, Note_off_c, 0, 67, 59
1, 280782, Note_off_c, 0, 57, 60
1, 280809, Note_on_c, 0, 69, 54
1, 280814, Note_on_c, 0, 67, 52
1, 280816, Note_on_c, 0, 59, 47
1, 280820, Note_off_c, 0, 64, 55
1, 280854, Note_off_c, 0, 76, 57
1, 280987, Note_on_c, 0, 76, 72
1, 280991, Note_off_c, 0, 59, 58
1, 280995, Note_on_c, 0, 61, 51
1, 281009, Note_on_c, 0, 64, 53
1, 281009, Note_off_c, 0, 69, 57
1, 281024, Note_off_c, 0, 67, 59
1, 281030, Note_off_c, 0, 61, 63
1, 281136, Note_off_c, 0, 64, 58
1, 281145, Note_on_c, 0, 69, 46
1, 281154, Note_on_c, 0, 67, 49
1, 281161, Note_off_c, 0, 76, 54
1, 281325, Control_c, 0, 64, 121
1, 281338, Note_on_c, 0, 76, 69
1, 281340, Control_c, 0, 64, 69
1, 281349, Note_on_c, 0, 38, 38
1, 281355, Control_c, 0, 64, 0
1, 281361, Note_on_c, 0, 64, 50
1, 281406, Note_off_c, 0, 69, 52
1, 281407, Note_off_c, 0, 67, 60
1, 281414, Control_c, 0, 64, 44
1, 281428, Note_off_c, 0, 38, 62
1, 281429, Control_c, 0, 64, 62
1, 281443, Control_c, 0, 64, 69
1, 281458, Control_c, 0, 64, 77
1, 281473, Control_c, 0, 64, 87
1, 281488, Control_c, 0, 64, 101
1, 281503, Control_c, 0, 64, 127
1, 281526, Note_off_c, 0, 64, 58
1, 281529, Note_off_c, 0, 76, 57
1, 281536, Note_on_c, 0, 69, 52
1, 281538, Note_on_c, 0, 66, 48
1, 281574, Note_on_c, 0, 57, 35
1, 281619, Note_off_c, 0, 57, 47
1, 281695, Note_on_c, 0, 74, 71
1, 281714, Note_on_c, 0, 54, 48
1, 281726, Note_on_c, 0, 62, 50
1, 281769, Note_off_c, 0, 69, 36
1, 281780, Note_off_c, 0, 54, 63
1, 281814, Note_off_c, 0, 74, 63
1, 281820, Note_off_c, 0, 62, 61
1, 281821, Note_off_c, 0, 66, 0
1, 281831, Note_on_c, 0, 57, 41
1, 281839, Note_on_c, 0, 66, 23
1, 281839, Note_on_c, 0, 69, 39
1, 281869, Note_off_c, 0, 57, 55
1, 282015, Control_c, 0, 64, 90
1, 282017, Note_on_c, 0, 42, 52
1, 282019, Note_on_c, 0, 73, 61
1, 282030, Control_c, 0, 64, 68
1, 282040, Note_on_c, 0, 61, 40
1, 282042, Note_off_c, 0, 69, 55
1, 282045, Control_c, 0, 64, 55
1, 282060, Control_c, 0, 64, 52
1, 282060, Note_off_c, 0, 66, 42
1, 282074, Control_c, 0, 64, 56
1, 282089, Control_c, 0, 64, 63
1, 282104, Control_c, 0, 64, 71
1, 282119, Control_c, 0, 64, 80
1, 282131, Note_off_c, 0, 42, 58
1, 282134, Control_c, 0, 64, 96
1, 282148, Control_c, 0, 64, 127
1, 282188, Note_off_c, 0, 61, 36
1, 282191, Note_off_c, 0, 73, 49
1, 282197, Note_on_c, 0, 66, 38
1, 282198, Note_on_c, 0, 69, 40
1, 282199, Note_on_c, 0, 49, 34
1, 282341, Control_c, 0, 64, 98
1, 282356, Control_c, 0, 64, 71
1, 282365, Note_off_c, 0, 69, 59
1, 282367, Note_on_c, 0, 73, 59
1, 282371, Control_c, 0, 64, 58
1, 282382, Note_on_c, 0, 41, 35
1, 282386, Control_c, 0, 64, 53
1, 282405, Note_off_c, 0, 49, 41
1, 282408, Control_c, 0, 64, 56
1, 282412, Note_on_c, 0, 61, 39
1, 282423, Control_c, 0, 64, 62
1, 282438, Control_c, 0, 64, 68
1, 282453, Control_c, 0, 64, 74
1, 282468, Control_c, 0, 64, 83
1, 282482, Control_c, 0, 64, 96
1, 282498, Control_c, 0, 64, 112
1, 282513, Control_c, 0, 64, 127
1, 282533, Note_off_c, 0, 41, 36
1, 282534, Note_off_c, 0, 61, 57
1, 282539, Note_off_c, 0, 73, 59
1, 282564, Note_on_c, 0, 68, 51
1, 282579, Note_on_c, 0, 49, 40
1, 282722, Note_off_c, 0, 66, 35
1, 282737, Note_on_c, 0, 71, 60
1, 282746, Note_on_c, 0, 56, 40
1, 282758, Note_off_c, 0, 68, 54
1, 282772, Note_on_c, 0, 59, 36
1, 282773, Note_off_c, 0, 49, 36
1, 282880, Note_off_c, 0, 56, 36
1, 282880, Note_off_c, 0, 59, 52
1, 282886, Note_off_c, 0, 71, 57
1, 282907, Note_on_c, 0, 68, 48
1, 282941, Note_on_c, 0, 49, 20
1, 282953, Note_on_c, 0, 61, 36
1, 283119, Note_off_c, 0, 68, 53
1, 283158, Note_on_c, 0, 69, 51
1, 283172, Control_c, 0, 64, 92
1, 283184, Note_on_c, 0, 42, 44
1, 283187, Control_c, 0, 64, 69
1, 283199, Note_off_c, 0, 49, 40
1, 283201, Note_on_c, 0, 57, 32
1, 283202, Control_c, 0, 64, 54
1, 283217, Control_c, 0, 64, 38
1, 283246, Control_c, 0, 64, 49
1, 283249, Note_off_c, 0, 61, 42
1, 283261, Control_c, 0, 64, 61
1, 283276, Control_c, 0, 64, 67
1, 283291, Control_c, 0, 64, 72
1, 283306, Control_c, 0, 64, 79
1, 283321, Control_c, 0, 64, 87
1, 283336, Control_c, 0, 64, 94
1, 283351, Control_c, 0, 64, 101
1, 283366, Control_c, 0, 64, 110
1, 283375, Note_off_c, 0, 69, 60
1, 283379, Note_off_c, 0, 57, 44
1, 283381, Control_c, 0, 64, 127
1, 283415, Note_on_c, 0, 61, 37
1, 283437, Note_on_c, 0, 66, 38
1, 283444, Note_on_c, 0, 49, 29
1, 283467, Note_off_c, 0, 42, 30
1, 283496, Note_off_c, 0, 49, 61
1, 283524, Note_off_c, 0, 61, 48
1, 283576, Note_on_c, 0, 56, 45
1, 283635, Note_off_c, 0, 56, 60
1, 283675, Note_off_c, 0, 66, 60
1, 283812, Note_on_c, 0, 37, 38
1, 283936, Control_c, 0, 64, 80
1, 283949, Note_on_c, 0, 73, 50
1, 283951, Control_c, 0, 64, 63
1, 283966, Control_c, 0, 64, 36
1, 283980, Control_c, 0, 64, 22
1, 283995, Control_c, 0, 64, 23
1, 284010, Control_c, 0, 64, 41
1, 284025, Control_c, 0, 64, 58
1, 284040, Control_c, 0, 64, 64
1, 284054, Control_c, 0, 64, 68
1, 284069, Control_c, 0, 64, 73
1, 284084, Control_c, 0, 64, 78
1, 284100, Control_c, 0, 64, 85
1, 284115, Control_c, 0, 64, 94
1, 284130, Control_c, 0, 64, 114
1, 284144, Control_c, 0, 64, 127
1, 284185, Note_off_c, 0, 37, 32
1, 284253, Note_on_c, 0, 44, 32
1, 284334, Note_on_c, 0, 68, 44
1, 284364, Note_on_c, 0, 65, 39
1, 284408, Note_off_c, 0, 44, 40
1, 284552, Note_on_c, 0, 56, 36
1, 284599, Note_off_c, 0, 65, 32
1, 284611, Note_off_c, 0, 68, 37
1, 284614, Note_on_c, 0, 61, 42
1, 284773, Note_on_c, 0, 49, 38
1, 284775, Note_off_c, 0, 56, 43
1, 284779, Note_off_c, 0, 61, 34
1, 284794, Note_on_c, 0, 68, 38
1, 284810, Note_off_c, 0, 49, 62
1, 284877, Poly_aftertouch_c, 0, 65, 127
1, 284983, Note_on_c, 0, 61, 57
1, 285002, Poly_aftertouch_c, 0, 65, 0
1, 285024, Note_off_c, 0, 68, 34
1, 285157, Note_off_c, 0, 73, 58
1, 285164, Note_off_c, 0, 61, 42
1, 285176, Note_on_c, 0, 68, 49
1, 285224, Note_on_c, 0, 65, 27
1, 285485, Note_on_c, 0, 40, 43
1, 285537, Control_c, 0, 64, 93
1, 285552, Control_c, 0, 64, 64
1, 285566, Control_c, 0, 64, 22
1, 285571, Note_on_c, 0, 73, 52
1, 285581, Control_c, 0, 64, 0
1, 285589, Note_on_c, 0, 61, 26
1, 285599, Note_off_c, 0, 68, 55
1, 285606, Note_off_c, 0, 65, 39
1, 285610, Control_c, 0, 64, 12
1, 285625, Control_c, 0, 64, 53
1, 285640, Control_c, 0, 64, 65
1, 285655, Control_c, 0, 64, 74
1, 285664, Note_off_c, 0, 40, 64
1, 285670, Control_c, 0, 64, 89
1, 285686, Control_c, 0, 64, 127
1, 285750, Note_off_c, 0, 61, 38
1, 285791, Note_off_c, 0, 73, 59
1, 285837, Note_on_c, 0, 68, 46
1, 285882, Note_on_c, 0, 64, 12
1, 285939, Note_on_c, 0, 52, 21
1, 285996, Note_off_c, 0, 52, 49
1, 286047, Note_on_c, 0, 71, 59
1, 286065, Note_on_c, 0, 56, 29
1, 286066, Note_off_c, 0, 64, 32
1, 286069, Note_on_c, 0, 50, 41
1, 286096, Note_on_c, 0, 59, 12
1, 286165, Note_off_c, 0, 59, 45
1, 286221, Note_off_c, 0, 50, 50
1, 286240, Note_off_c, 0, 56, 38
1, 286259, Note_on_c, 0, 52, 34
1, 286266, Note_off_c, 0, 68, 34
1, 286269, Note_on_c, 0, 64, 42
1, 286487, Note_off_c, 0, 64, 50
1, 286524, Control_c, 0, 64, 96
1, 286532, Note_on_c, 0, 69, 45
1, 286538, Control_c, 0, 64, 71
1, 286553, Control_c, 0, 64, 56
1, 286558, Note_on_c, 0, 49, 24
1, 286559, Note_on_c, 0, 57, 26
1, 286564, Note_off_c, 0, 52, 42
1, 286568, Control_c, 0, 64, 32
1, 286583, Control_c, 0, 64, 30
1, 286598, Control_c, 0, 64, 37
1, 286612, Control_c, 0, 64, 53
1, 286626, Note_off_c, 0, 71, 39
1, 286627, Control_c, 0, 64, 61
1, 286642, Control_c, 0, 64, 65
1, 286657, Control_c, 0, 64, 69
1, 286672, Control_c, 0, 64, 74
1, 286686, Control_c, 0, 64, 81
1, 286701, Control_c, 0, 64, 89
1, 286716, Control_c, 0, 64, 101
1, 286731, Control_c, 0, 64, 127
1, 286740, Note_off_c, 0, 57, 42
1, 286796, Note_off_c, 0, 49, 40
1, 286800, Note_on_c, 0, 64, 38
1, 286802, Note_on_c, 0, 52, 26
1, 287295, Note_on_c, 0, 45, 35
1, 287365, Note_on_c, 0, 73, 49
1, 287375, Note_on_c, 0, 61, 21
1, 287406, Control_c, 0, 64, 79
1, 287419, Note_off_c, 0, 52, 40
1, 287421, Control_c, 0, 64, 64
1, 287434, Note_off_c, 0, 64, 59
1, 287435, Control_c, 0, 64, 46
1, 287446, Note_off_c, 0, 69, 54
1, 287450, Control_c, 0, 64, 35
1, 287479, Control_c, 0, 64, 44
1, 287494, Control_c, 0, 64, 57
1, 287509, Control_c, 0, 64, 64
1, 287524, Control_c, 0, 64, 68
1, 287539, Control_c, 0, 64, 72
1, 287554, Control_c, 0, 64, 76
1, 287569, Control_c, 0, 64, 80
1, 287584, Control_c, 0, 64, 85
1, 287599, Control_c, 0, 64, 90
1, 287613, Control_c, 0, 64, 95
1, 287635, Control_c, 0, 64, 102
1, 287650, Control_c, 0, 64, 113
1, 287665, Control_c, 0, 64, 127
1, 287748, Note_on_c, 0, 69, 33
1, 287757, Note_on_c, 0, 52, 26
1, 287782, Note_on_c, 0, 64, 21
1, 287836, Note_off_c, 0, 61, 39
1, 287953, Note_off_c, 0, 64, 40
1, 287971, Note_off_c, 0, 52, 45
1, 287975, Note_on_c, 0, 61, 36
1, 287998, Note_off_c, 0, 69, 40
1, 288007, Control_c, 0, 64, 121
1, 288021, Control_c, 0, 64, 117
1, 288024, Note_on_c, 0, 57, 16
1, 288036, Control_c, 0, 64, 115
1, 288051, Control_c, 0, 64, 114
1, 288066, Control_c, 0, 64, 112
1, 288081, Control_c, 0, 64, 110
1, 288096, Control_c, 0, 64, 108
1, 288111, Control_c, 0, 64, 106
1, 288126, Control_c, 0, 64, 105
1, 288141, Control_c, 0, 64, 104
1, 288156, Control_c, 0, 64, 104
1, 288195, Note_on_c, 0, 62, 38
1, 288195, Note_on_c, 0, 69, 43
1, 288200, Control_c, 0, 64, 103
1, 288201, Note_off_c, 0, 61, 33
1, 288204, Note_on_c, 0, 54, 39
1, 288215, Control_c, 0, 64, 103
1, 288229, Control_c, 0, 64, 102
1, 288242, Note_off_c, 0, 62, 56
1, 288244, Control_c, 0, 64, 102
1, 288276, Note_off_c, 0, 45, 34
1, 288392, Note_off_c, 0, 69, 32
1, 288396, Note_on_c, 0, 61, 39
1, 288397, Note_on_c, 0, 52, 38
1, 288400, Note_off_c, 0, 54, 39
1, 288434, Note_off_c, 0, 57, 11
1, 288517, Control_c, 0, 64, 101
1, 288532, Control_c, 0, 64, 101
1, 288547, Control_c, 0, 64, 100
1, 288562, Control_c, 0, 64, 99
1, 288577, Control_c, 0, 64, 96
1, 288591, Control_c, 0, 64, 86
1, 288592, Note_off_c, 0, 52, 41
1, 288594, Note_on_c, 0, 69, 48
1, 288603, Note_on_c, 0, 45, 37
1, 288606, Control_c, 0, 64, 71
1, 288613, Note_on_c, 0, 64, 32
1, 288614, Note_off_c, 0, 61, 35
1, 288621, Control_c, 0, 64, 55
1, 288636, Control_c, 0, 64, 31
1, 288651, Control_c, 0, 64, 19
1, 288681, Control_c, 0, 64, 35
1, 288696, Control_c, 0, 64, 52
1, 288710, Control_c, 0, 64, 61
1, 288725, Control_c, 0, 64, 65
1, 288740, Control_c, 0, 64, 66
1, 288755, Control_c, 0, 64, 67
1, 288770, Control_c, 0, 64, 67
1, 288794, Note_off_c, 0, 64, 61
1, 288799, Control_c, 0, 64, 68
1, 288814, Control_c, 0, 64, 69
1, 288828, Note_off_c, 0, 69, 58
1, 288829, Control_c, 0, 64, 72
1, 288831, Note_on_c, 0, 57, 32
1, 288832, Note_on_c, 0, 61, 39
1, 288843, Control_c, 0, 64, 74
1, 288858, Control_c, 0, 64, 77
1, 288873, Control_c, 0, 64, 79
1, 288889, Control_c, 0, 64, 81
1, 288904, Control_c, 0, 64, 82
1, 288919, Control_c, 0, 64, 83
1, 288933, Control_c, 0, 64, 83
1, 288948, Control_c, 0, 64, 84
1, 288963, Control_c, 0, 64, 85
1, 288978, Control_c, 0, 64, 86
1, 288993, Control_c, 0, 64, 87
1, 289007, Control_c, 0, 64, 88
1, 289022, Control_c, 0, 64, 90
1, 289037, Control_c, 0, 64, 91
1, 289052, Control_c, 0, 64, 92
1, 289056, Note_on_c, 0, 69, 46
1, 289059, Note_on_c, 0, 62, 41
1, 289062, Note_off_c, 0, 61, 32
1, 289067, Control_c, 0, 64, 93
1, 289075, Note_on_c, 0, 54, 33
1, 289082, Control_c, 0, 64, 96
1, 289097, Control_c, 0, 64, 100
1, 289110, Note_off_c, 0, 57, 34
1, 289112, Control_c, 0, 64, 108
1, 289134, Control_c, 0, 64, 123
1, 289146, Note_off_c, 0, 62, 50
1, 289149, Control_c, 0, 64, 127
1, 289283, Note_off_c, 0, 45, 30
1, 289355, Note_on_c, 0, 52, 35
1, 289355, Note_on_c, 0, 61, 40
1, 289356, Control_c, 0, 64, 95
1, 289371, Control_c, 0, 64, 72
1, 289386, Control_c, 0, 64, 64
1, 289401, Control_c, 0, 64, 62
1, 289403, Note_off_c, 0, 69, 42
1, 289415, Control_c, 0, 64, 64
1, 289430, Control_c, 0, 64, 67
1, 289432, Note_off_c, 0, 54, 35
1, 289445, Control_c, 0, 64, 72
1, 289459, Control_c, 0, 64, 82
1, 289474, Control_c, 0, 64, 92
1, 289489, Control_c, 0, 64, 100
1, 289504, Control_c, 0, 64, 102
1, 289563, Control_c, 0, 64, 103
1, 289578, Control_c, 0, 64, 104
1, 289593, Control_c, 0, 64, 105
1, 289608, Control_c, 0, 64, 105
1, 289633, Note_on_c, 0, 69, 47
1, 289652, Control_c, 0, 64, 104
1, 289667, Control_c, 0, 64, 95
1, 289670, Note_on_c, 0, 64, 32
1, 289682, Control_c, 0, 64, 80
1, 289685, Note_off_c, 0, 52, 39
1, 289695, Note_on_c, 0, 45, 31
1, 289697, Control_c, 0, 64, 68
1, 289712, Control_c, 0, 64, 61
1, 289721, Note_off_c, 0, 61, 34
1, 289727, Control_c, 0, 64, 59
1, 289742, Control_c, 0, 64, 60
1, 289757, Control_c, 0, 64, 64
1, 289772, Control_c, 0, 64, 67
1, 289787, Control_c, 0, 64, 71
1, 289801, Control_c, 0, 64, 76
1, 289816, Control_c, 0, 64, 79
1, 289831, Control_c, 0, 64, 80
1, 289846, Control_c, 0, 64, 81
1, 289861, Control_c, 0, 64, 82
1, 289876, Control_c, 0, 64, 84
1, 289897, Control_c, 0, 64, 87
1, 289912, Control_c, 0, 64, 90
1, 289927, Control_c, 0, 64, 94
1, 289942, Control_c, 0, 64, 96
1, 290004, Note_on_c, 0, 61, 33
1, 290014, Note_on_c, 0, 57, 33
1, 290016, Control_c, 0, 64, 88
1, 290031, Control_c, 0, 64, 69
1, 290045, Note_off_c, 0, 64, 43
1, 290046, Control_c, 0, 64, 55
1, 290061, Control_c, 0, 64, 48
1, 290076, Control_c, 0, 64, 50
1, 290089, Note_off_c, 0, 69, 40
1, 290090, Control_c, 0, 64, 58
1, 290105, Control_c, 0, 64, 64
1, 290120, Control_c, 0, 64, 72
1, 290135, Control_c, 0, 64, 82
1, 290150, Control_c, 0, 64, 94
1, 290164, Control_c, 0, 64, 105
1, 290179, Control_c, 0, 64, 113
1, 290208, Control_c, 0, 64, 114
1, 290223, Control_c, 0, 64, 118
1, 290238, Control_c, 0, 64, 127
1, 290429, Note_on_c, 0, 69, 40
1, 290430, Control_c, 0, 64, 89
1, 290445, Control_c, 0, 64, 72
1, 290452, Note_on_c, 0, 54, 23
1, 290460, Control_c, 0, 64, 62
1, 290464, Note_on_c, 0, 62, 23
1, 290475, Control_c, 0, 64, 56
1, 290491, Control_c, 0, 64, 57
1, 290505, Note_off_c, 0, 57, 50
1, 290505, Control_c, 0, 64, 62
1, 290511, Note_off_c, 0, 61, 35
1, 290520, Control_c, 0, 64, 67
1, 290535, Control_c, 0, 64, 72
1, 290550, Control_c, 0, 64, 78
1, 290565, Control_c, 0, 64, 84
1, 290579, Control_c, 0, 64, 88
1, 290594, Control_c, 0, 64, 89
1, 290609, Control_c, 0, 64, 90
1, 290620, Note_off_c, 0, 45, 37
1, 290624, Control_c, 0, 64, 92
1, 290646, Control_c, 0, 64, 97
1, 290661, Control_c, 0, 64, 107
1, 290676, Control_c, 0, 64, 127
1, 290729, Note_off_c, 0, 62, 39
1, 290824, Control_c, 0, 67, 10
1, 290839, Control_c, 0, 67, 26
1, 290854, Control_c, 0, 67, 40
1, 290869, Control_c, 0, 67, 53
1, 290884, Control_c, 0, 67, 63
1, 290898, Control_c, 0, 67, 73
1, 290913, Control_c, 0, 67, 83
1, 290928, Control_c, 0, 67, 93
1, 290943, Control_c, 0, 67, 102
1, 290958, Control_c, 0, 67, 112
1, 290973, Control_c, 0, 67, 120
1, 290987, Control_c, 0, 67, 127
1, 291282, Note_on_c, 0, 61, 36
1, 291297, Note_on_c, 0, 52, 22
1, 291298, Note_on_c, 0, 45, 20
1, 291373, Control_c, 0, 64, 123
1, 291396, Control_c, 0, 64, 95
1, 291410, Control_c, 0, 64, 82
1, 291424, Control_c, 0, 64, 72
1, 291439, Control_c, 0, 64, 65
1, 291454, Control_c, 0, 64, 60
1, 291468, Control_c, 0, 64, 53
1, 291477, Note_off_c, 0, 69, 48
1, 291483, Control_c, 0, 64, 45
1, 291498, Control_c, 0, 64, 35
1, 291513, Control_c, 0, 64, 24
1, 291528, Control_c, 0, 64, 15
1, 291529, Note_off_c, 0, 54, 36
1, 291542, Control_c, 0, 64, 12
1, 291602, Control_c, 0, 64, 22
1, 291617, Control_c, 0, 64, 38
1, 291632, Control_c, 0, 64, 50
1, 291647, Control_c, 0, 64, 58
1, 291661, Control_c, 0, 64, 62
1, 291676, Control_c, 0, 64, 64
1, 291691, Control_c, 0, 64, 65
1, 291706, Control_c, 0, 64, 66
1, 291721, Control_c, 0, 64, 67
1, 291735, Control_c, 0, 64, 68
1, 291750, Control_c, 0, 64, 69
1, 291765, Control_c, 0, 64, 70
1, 291780, Control_c, 0, 64, 72
1, 291795, Control_c, 0, 64, 75
1, 291809, Control_c, 0, 64, 77
1, 291824, Control_c, 0, 64, 80
1, 291839, Control_c, 0, 64, 83
1, 291853, Control_c, 0, 64, 85
1, 291863, Note_off_c, 0, 45, 41
1, 291868, Control_c, 0, 64, 88
1, 291883, Control_c, 0, 64, 91
1, 291898, Control_c, 0, 64, 94
1, 291913, Control_c, 0, 64, 97
1, 291927, Control_c, 0, 64, 101
1, 291942, Control_c, 0, 64, 104
1, 291957, Control_c, 0, 64, 107
1, 291972, Note_off_c, 0, 52, 43
1, 291972, Control_c, 0, 64, 110
1, 291987, Control_c, 0, 64, 113
1, 291999, Note_off_c, 0, 61, 30
1, 292001, Control_c, 0, 64, 118
1, 292016, Control_c, 0, 64, 127
1, 292070, Note_off_c, 0, 73, 38
1, 292850, Note_on_c, 0, 64, 25
1, 292883, Note_on_c, 0, 57, 20
1, 293147, Note_off_c, 0, 64, 40
1, 293319, Note_on_c, 0, 61, 28
1, 293336, Note_on_c, 0, 69, 35
1, 293345, Note_off_c, 0, 57, 36
1, 293487, Note_off_c, 0, 61, 43
1, 293504, Note_off_c, 0, 69, 30
1, 293545, Note_on_c, 0, 73, 38
1, 293549, Note_on_c, 0, 64, 28
1, 293594, Note_off_c, 0, 73, 48
1, 293599, Note_off_c, 0, 64, 59
1, 293729, Note_on_c, 0, 76, 50
1, 293733, Note_on_c, 0, 69, 31
1, 293799, Note_off_c, 0, 76, 52
1, 293816, Note_off_c, 0, 69, 54
1, 293896, Note_on_c, 0, 81, 46
1, 293918, Note_on_c, 0, 73, 28
1, 293965, Note_off_c, 0, 81, 45
1, 293996, Control_c, 0, 67, 123
1, 293997, Note_off_c, 0, 73, 41
1, 294011, Control_c, 0, 67, 119
1, 294026, Control_c, 0, 67, 115
1, 294041, Control_c, 0, 67, 111
1, 294055, Control_c, 0, 67, 108
1, 294070, Control_c, 0, 67, 103
1, 294079, Note_on_c, 0, 85, 51
1, 294080, Note_on_c, 0, 76, 37
1, 294085, Control_c, 0, 67, 98
1, 294100, Control_c, 0, 67, 92
1, 294113, Note_off_c, 0, 85, 65
1, 294115, Control_c, 0, 67, 86
1, 294130, Control_c, 0, 67, 81
1, 294145, Control_c, 0, 67, 77
1, 294160, Control_c, 0, 67, 72
1, 294174, Control_c, 0, 67, 69
1, 294189, Control_c, 0, 67, 67
1, 294204, Control_c, 0, 67, 65
1, 294219, Control_c, 0, 67, 62
1, 294234, Control_c, 0, 67, 57
1, 294244, Note_off_c, 0, 76, 0
1, 294248, Control_c, 0, 67, 52
1, 294263, Control_c, 0, 67, 48
1, 294278, Control_c, 0, 67, 45
1, 294282, Poly_aftertouch_c, 0, 76, 127
1, 294293, Control_c, 0, 67, 41
1, 294308, Control_c, 0, 67, 36
1, 294322, Control_c, 0, 67, 31
1, 294337, Control_c, 0, 67, 26
1, 294352, Control_c, 0, 67, 20
1, 294367, Control_c, 0, 67, 16
1, 294389, Control_c, 0, 67, 12
1, 294404, Control_c, 0, 67, 8
1, 294419, Control_c, 0, 67, 0
1, 294430, Note_on_c, 0, 93, 50
1, 294454, Note_off_c, 0, 93, 63
1, 294456, Poly_aftertouch_c, 0, 76, 0
1, 294465, Note_on_c, 0, 81, 19
1, 294505, Note_off_c, 0, 81, 51
1, 294613, Control_c, 0, 67, 8
1, 294627, Control_c, 0, 67, 10
1, 294642, Control_c, 0, 67, 11
1, 294657, Control_c, 0, 67, 13
1, 294672, Control_c, 0, 67, 16
1, 294686, Control_c, 0, 67, 18
1, 294701, Control_c, 0, 67, 20
1, 294716, Control_c, 0, 67, 23
1, 294731, Control_c, 0, 67, 25
1, 294745, Control_c, 0, 67, 27
1, 294760, Control_c, 0, 67, 34
1, 294773, Note_on_c, 0, 76, 33
1, 294775, Control_c, 0, 67, 46
1, 294780, Note_on_c, 0, 85, 40
1, 294790, Control_c, 0, 67, 57
1, 294805, Control_c, 0, 67, 67
1, 294819, Control_c, 0, 67, 77
1, 294834, Control_c, 0, 67, 83
1, 294849, Control_c, 0, 67, 89
1, 294864, Control_c, 0, 67, 94
1, 294878, Control_c, 0, 67, 98
1, 294893, Control_c, 0, 67, 100
1, 294908, Control_c, 0, 67, 104
1, 294923, Control_c, 0, 67, 110
1, 294938, Control_c, 0, 67, 117
1, 294952, Control_c, 0, 67, 123
1, 294967, Control_c, 0, 67, 127
1, 294970, Note_on_c, 0, 88, 36
1, 294979, Note_off_c, 0, 85, 42
1, 295016, Note_off_c, 0, 88, 61
1, 295030, Note_on_c, 0, 86, 52
1, 295033, Note_off_c, 0, 76, 41
1, 295038, Note_on_c, 0, 77, 31
1, 295209, Note_off_c, 0, 86, 45
1, 295212, Note_off_c, 0, 77, 44
1, 295259, Note_on_c, 0, 85, 51
1, 295268, Note_on_c, 0, 76, 40
1, 295325, Note_off_c, 0, 76, 57
1, 295380, Note_off_c, 0, 85, 53
1, 295413, Note_on_c, 0, 73, 38
1, 295423, Note_on_c, 0, 81, 39
1, 295490, Note_off_c, 0, 81, 60
1, 295542, Note_off_c, 0, 73, 54
1, 295561, Note_on_c, 0, 69, 40
1, 295567, Note_on_c, 0, 76, 47
1, 295656, Note_off_c, 0, 69, 55
1, 295659, Note_off_c, 0, 76, 57
1, 295719, Note_on_c, 0, 79, 47
1, 295764, Note_on_c, 0, 74, 39
1, 295771, Note_off_c, 0, 79, 62
1, 295790, Note_on_c, 0, 77, 50
1, 295905, Note_off_c, 0, 74, 36
1, 295907, Note_off_c, 0, 77, 59
1, 295957, Note_on_c, 0, 76, 45
1, 295977, Note_on_c, 0, 73, 35
1, 296014, Note_off_c, 0, 73, 57
1, 296077, Note_off_c, 0, 76, 58
1, 296101, Note_on_c, 0, 81, 55
1, 296115, Note_on_c, 0, 69, 45
1, 296141, Note_off_c, 0, 69, 60
1, 296163, Note_off_c, 0, 81, 62
1, 296274, Note_on_c, 0, 73, 46
1, 296293, Note_on_c, 0, 64, 43
1, 296382, Note_off_c, 0, 73, 54
1, 296404, Note_on_c, 0, 76, 49
1, 296404, Note_off_c, 0, 64, 50
1, 296421, Control_c, 0, 64, 121
1, 296436, Control_c, 0, 64, 116
1, 296438, Note_off_c, 0, 76, 62
1, 296451, Note_on_c, 0, 65, 34
1, 296451, Control_c, 0, 64, 113
1, 296452, Note_on_c, 0, 74, 52
1, 296466, Control_c, 0, 64, 112
1, 296480, Control_c, 0, 64, 111
1, 296495, Control_c, 0, 64, 110
1, 296509, Note_off_c, 0, 65, 51
1, 296510, Control_c, 0, 64, 109
1, 296524, Control_c, 0, 64, 108
1, 296539, Control_c, 0, 64, 107
1, 296554, Control_c, 0, 64, 105
1, 296559, Note_off_c, 0, 74, 55
1, 296569, Control_c, 0, 64, 104
1, 296584, Control_c, 0, 64, 102
1, 296592, Note_on_c, 0, 73, 53
1, 296596, Note_on_c, 0, 64, 37
1, 296598, Control_c, 0, 64, 100
1, 296613, Control_c, 0, 64, 99
1, 296636, Control_c, 0, 64, 98
1, 296650, Control_c, 0, 64, 97
1, 296665, Control_c, 0, 64, 96
1, 296673, Note_off_c, 0, 64, 59
1, 296680, Control_c, 0, 64, 94
1, 296695, Control_c, 0, 64, 93
1, 296710, Control_c, 0, 64, 92
1, 296724, Control_c, 0, 64, 90
1, 296726, Note_off_c, 0, 73, 63
1, 296739, Control_c, 0, 64, 89
1, 296754, Control_c, 0, 64, 89
1, 296768, Note_on_c, 0, 69, 47
1, 296772, Note_on_c, 0, 61, 40
1, 296784, Control_c, 0, 64, 88
1, 296813, Control_c, 0, 64, 88
1, 296828, Control_c, 0, 64, 87
1, 296842, Control_c, 0, 64, 86
1, 296857, Control_c, 0, 64, 85
1, 296874, Control_c, 0, 64, 85
1, 296878, Note_off_c, 0, 69, 58
1, 296889, Control_c, 0, 64, 84
1, 296903, Control_c, 0, 64, 83
1, 296918, Control_c, 0, 64, 82
1, 296932, Note_on_c, 0, 64, 44
1, 296933, Control_c, 0, 64, 81
1, 296941, Note_on_c, 0, 57, 45
1, 296947, Note_off_c, 0, 61, 34
1, 296947, Control_c, 0, 64, 80
1, 296962, Control_c, 0, 64, 80
1, 296977, Control_c, 0, 64, 79
1, 296992, Control_c, 0, 64, 79
1, 297007, Control_c, 0, 64, 78
1, 297021, Control_c, 0, 64, 78
1, 297051, Control_c, 0, 64, 77
1, 297126, Control_c, 0, 64, 78
1, 297155, Control_c, 0, 64, 78
1, 297164, Note_off_c, 0, 64, 37
1, 297165, Note_on_c, 0, 67, 41
1, 297170, Control_c, 0, 64, 79
1, 297185, Control_c, 0, 64, 79
1, 297200, Control_c, 0, 64, 79
1, 297215, Control_c, 0, 64, 76
1, 297221, Note_off_c, 0, 67, 60
1, 297229, Control_c, 0, 64, 70
1, 297244, Control_c, 0, 64, 63
1, 297259, Control_c, 0, 64, 57
1, 297263, Note_on_c, 0, 65, 36
1, 297274, Note_on_c, 0, 62, 18
1, 297274, Control_c, 0, 64, 54
1, 297289, Control_c, 0, 64, 55
1, 297304, Control_c, 0, 64, 60
1, 297319, Control_c, 0, 64, 64
1, 297334, Control_c, 0, 64, 66
1, 297348, Control_c, 0, 64, 68
1, 297363, Control_c, 0, 64, 70
1, 297385, Control_c, 0, 64, 71
1, 297400, Control_c, 0, 64, 73
1, 297415, Control_c, 0, 64, 75
1, 297430, Control_c, 0, 64, 78
1, 297444, Control_c, 0, 64, 82
1, 297459, Control_c, 0, 64, 87
1, 297474, Control_c, 0, 64, 93
1, 297489, Control_c, 0, 64, 101
1, 297492, Note_off_c, 0, 57, 37
1, 297497, Note_off_c, 0, 65, 54
1, 297504, Control_c, 0, 64, 111
1, 297519, Control_c, 0, 64, 127
1, 297563, Note_on_c, 0, 64, 40
1, 297567, Note_on_c, 0, 61, 31
1, 297599, Note_off_c, 0, 61, 52
1, 297600, Note_off_c, 0, 62, 41
1, 297773, Note_off_c, 0, 64, 47
1, 297787, Note_on_c, 0, 69, 44
1, 297829, Note_on_c, 0, 52, 31
1, 297910, Note_off_c, 0, 52, 38
1, 298001, Note_on_c, 0, 45, 42
1, 298015, Note_on_c, 0, 64, 38
1, 298046, Note_off_c, 0, 45, 62
1, 298153, Note_off_c, 0, 69, 37
1, 298164, Control_c, 0, 64, 118
1, 298178, Control_c, 0, 64, 115
1, 298193, Control_c, 0, 64, 112
1, 298196, Note_on_c, 0, 67, 41
1, 298205, Note_off_c, 0, 64, 40
1, 298208, Control_c, 0, 64, 111
1, 298223, Control_c, 0, 64, 108
1, 298230, Note_off_c, 0, 67, 54
1, 298238, Control_c, 0, 64, 106
1, 298252, Control_c, 0, 64, 104
1, 298256, Note_on_c, 0, 65, 41
1, 298261, Note_on_c, 0, 62, 38
1, 298267, Control_c, 0, 64, 102
1, 298282, Control_c, 0, 64, 100
1, 298297, Control_c, 0, 64, 98
1, 298312, Control_c, 0, 64, 95
1, 298327, Control_c, 0, 64, 93
1, 298342, Control_c, 0, 64, 89
1, 298357, Control_c, 0, 64, 86
1, 298371, Control_c, 0, 64, 84
1, 298386, Control_c, 0, 64, 83
1, 298401, Control_c, 0, 64, 82
1, 298413, Note_off_c, 0, 65, 48
1, 298443, Note_off_c, 0, 62, 36
1, 298461, Note_on_c, 0, 64, 43
1, 298467, Note_on_c, 0, 61, 46
1, 298491, Control_c, 0, 64, 82
1, 298503, Note_off_c, 0, 61, 64
1, 298506, Control_c, 0, 64, 81
1, 298520, Control_c, 0, 64, 81
1, 298550, Control_c, 0, 64, 80
1, 298565, Control_c, 0, 64, 80
1, 298594, Control_c, 0, 64, 79
1, 298609, Control_c, 0, 64, 79
1, 298624, Control_c, 0, 64, 78
1, 298668, Control_c, 0, 64, 78
1, 298713, Control_c, 0, 64, 77
1, 298727, Control_c, 0, 64, 77
1, 298742, Control_c, 0, 64, 76
1, 298750, Note_on_c, 0, 69, 41
1, 298755, Note_off_c, 0, 64, 37
1, 298757, Control_c, 0, 64, 75
1, 298772, Note_on_c, 0, 52, 32
1, 298772, Control_c, 0, 64, 73
1, 298786, Control_c, 0, 64, 70
1, 298801, Control_c, 0, 64, 67
1, 298816, Control_c, 0, 64, 65
1, 298831, Control_c, 0, 64, 64
1, 298861, Control_c, 0, 64, 65
1, 298883, Control_c, 0, 64, 67
1, 298898, Control_c, 0, 64, 68
1, 298913, Control_c, 0, 64, 69
1, 298927, Control_c, 0, 64, 70
1, 298942, Control_c, 0, 64, 70
1, 298957, Control_c, 0, 64, 71
1, 298972, Control_c, 0, 64, 71
1, 298987, Control_c, 0, 64, 72
1, 299001, Control_c, 0, 64, 73
1, 299012, Note_off_c, 0, 52, 35
1, 299016, Control_c, 0, 64, 73
1, 299031, Control_c, 0, 64, 74
1, 299046, Control_c, 0, 64, 75
1, 299061, Control_c, 0, 64, 75
1, 299072, Note_on_c, 0, 64, 34
1, 299075, Control_c, 0, 64, 76
1, 299090, Control_c, 0, 64, 76
1, 299093, Note_on_c, 0, 45, 27
1, 299105, Control_c, 0, 64, 77
1, 299120, Control_c, 0, 64, 78
1, 299131, Note_off_c, 0, 45, 55
1, 299135, Control_c, 0, 64, 79
1, 299150, Control_c, 0, 64, 79
1, 299299, Control_c, 0, 64, 79
1, 299343, Control_c, 0, 64, 78
1, 299349, Note_off_c, 0, 69, 15
1, 299388, Control_c, 0, 64, 78
1, 299403, Control_c, 0, 64, 77
1, 299416, Note_on_c, 0, 67, 24
1, 299444, Note_off_c, 0, 64, 26
1, 299447, Control_c, 0, 64, 77
1, 299462, Control_c, 0, 64, 76
1, 299477, Control_c, 0, 64, 76
1, 299482, Note_off_c, 0, 67, 40
1, 299489, Note_on_c, 0, 62, 29
1, 299491, Control_c, 0, 64, 75
1, 299506, Control_c, 0, 64, 75
1, 299519, Note_on_c, 0, 65, 27
1, 299521, Control_c, 0, 64, 74
1, 299550, Control_c, 0, 64, 74
1, 299580, Control_c, 0, 64, 73
1, 299595, Control_c, 0, 64, 73
1, 299617, Control_c, 0, 64, 72
1, 299632, Control_c, 0, 64, 72
1, 299706, Control_c, 0, 64, 71
1, 299736, Control_c, 0, 64, 71
1, 299780, Control_c, 0, 64, 70
1, 299898, Control_c, 0, 64, 70
1, 299977, Note_on_c, 0, 61, 28
1, 299987, Note_on_c, 0, 64, 24
1, 299987, Control_c, 0, 64, 69
1, 300038, Note_off_c, 0, 65, 29
1, 300077, Control_c, 0, 64, 69
1, 300084, Note_off_c, 0, 62, 48
1, 300166, Control_c, 0, 64, 68
1, 300270, Control_c, 0, 64, 68
1, 300300, Control_c, 0, 64, 67
1, 300381, Control_c, 0, 64, 67
1, 301355, Note_on_c, 0, 69, 30
1, 301621, Note_off_c, 0, 61, 40
1, 301826, Control_c, 0, 67, 127
1, 301841, Control_c, 0, 67, 124
1, 301856, Control_c, 0, 67, 121
1, 301879, Control_c, 0, 67, 119
1, 301893, Control_c, 0, 67, 117
1, 301907, Control_c, 0, 67, 115
1, 301922, Control_c, 0, 67, 113
1, 301937, Control_c, 0, 67, 109
1, 301951, Control_c, 0, 67, 105
1, 301966, Control_c, 0, 67, 102
1, 301981, Control_c, 0, 67, 98
1, 301996, Control_c, 0, 67, 95
1, 302011, Control_c, 0, 67, 92
1, 302025, Control_c, 0, 67, 88
1, 302040, Control_c, 0, 67, 84
1, 302055, Control_c, 0, 67, 80
1, 302070, Control_c, 0, 67, 78
1, 302085, Control_c, 0, 67, 75
1, 302099, Control_c, 0, 67, 71
1, 302114, Control_c, 0, 67, 66
1, 302129, Control_c, 0, 67, 61
1, 302142, Note_off_c, 0, 64, 42
1, 302143, Control_c, 0, 67, 55
1, 302158, Control_c, 0, 67, 50
1, 302173, Control_c, 0, 67, 44
1, 302188, Control_c, 0, 67, 39
1, 302203, Control_c, 0, 67, 34
1, 302217, Control_c, 0, 67, 29
1, 302232, Control_c, 0, 67, 25
1, 302247, Control_c, 0, 67, 21
1, 302262, Control_c, 0, 67, 18
1, 302277, Control_c, 0, 67, 15
1, 302291, Control_c, 0, 67, 11
1, 302306, Control_c, 0, 67, 9
1, 302321, Control_c, 0, 67, 0
1, 302908, Control_c, 0, 64, 66
1, 303248, Control_c, 0, 64, 66
1, 303279, Control_c, 0, 64, 65
1, 303338, Control_c, 0, 64, 65
1, 303390, Control_c, 0, 64, 64
1, 303538, Control_c, 0, 64, 64
1, 303847, Note_on_c, 0, 70, 31
1, 303997, Control_c, 0, 64, 63
1, 304083, Note_off_c, 0, 69, 43
1, 304087, Control_c, 0, 64, 63
1, 304155, Control_c, 0, 64, 62
1, 304213, Control_c, 0, 64, 62
1, 304654, Note_on_c, 0, 68, 27
1, 304807, Note_off_c, 0, 70, 52
1, 305214, Control_c, 0, 64, 61
1, 305305, Note_on_c, 0, 69, 33
1, 305435, Note_off_c, 0, 68, 56
1, 305900, Note_on_c, 0, 70, 43
1, 306051, Note_off_c, 0, 69, 55
1, 306393, Note_on_c, 0, 74, 49
1, 306459, Note_off_c, 0, 70, 61
1, 306847, Note_on_c, 0, 73, 47
1, 306849, Note_on_c, 0, 57, 30
1, 306889, Control_c, 0, 64, 61
1, 306942, Note_off_c, 0, 74, 53
1, 306963, Control_c, 0, 64, 60
1, 307022, Control_c, 0, 64, 60
1, 307119, Control_c, 0, 64, 59
1, 307397, Note_on_c, 0, 67, 41
1, 307398, Note_on_c, 0, 58, 32
1, 307481, Note_off_c, 0, 73, 65
1, 307490, Note_off_c, 0, 57, 42
1, 307794, Note_on_c, 0, 70, 45
1, 307830, Note_on_c, 0, 62, 34
1, 307900, Note_off_c, 0, 67, 64
1, 307919, Note_off_c, 0, 58, 57
1, 308179, Note_on_c, 0, 69, 51
1, 308191, Note_on_c, 0, 61, 34
1, 308256, Note_off_c, 0, 70, 64
1, 308265, Note_off_c, 0, 62, 49
1, 308524, Note_on_c, 0, 70, 49
1, 308539, Note_on_c, 0, 55, 39
1, 308613, Note_off_c, 0, 69, 64
1, 308637, Note_off_c, 0, 61, 47
1, 308852, Note_on_c, 0, 74, 53
1, 308877, Note_on_c, 0, 58, 36
1, 308902, Note_off_c, 0, 70, 63
1, 308915, Note_off_c, 0, 55, 49
1, 309234, Note_on_c, 0, 73, 43
1, 309279, Note_on_c, 0, 57, 26
1, 309286, Note_off_c, 0, 58, 42
1, 309302, Note_off_c, 0, 74, 55
1, 309629, Note_on_c, 0, 67, 38
1, 309642, Note_on_c, 0, 58, 31
1, 309662, Control_c, 0, 64, 60
1, 309667, Note_off_c, 0, 57, 42
1, 309713, Note_off_c, 0, 73, 62
1, 309943, Control_c, 0, 64, 60
1, 310062, Control_c, 0, 64, 61
1, 310132, Note_on_c, 0, 70, 31
1, 310156, Note_on_c, 0, 62, 15
1, 310257, Note_off_c, 0, 58, 49
1, 310262, Control_c, 0, 64, 61
1, 310322, Control_c, 0, 64, 62
1, 310329, Note_off_c, 0, 67, 37
1, 310381, Control_c, 0, 64, 62
1, 310425, Control_c, 0, 64, 63
1, 310440, Control_c, 0, 64, 63
1, 310471, Control_c, 0, 64, 64
1, 310516, Control_c, 0, 64, 64
1, 310545, Control_c, 0, 64, 65
1, 310560, Control_c, 0, 64, 65
1, 310574, Control_c, 0, 64, 66
1, 310589, Control_c, 0, 64, 66
1, 310604, Control_c, 0, 64, 67
1, 310619, Control_c, 0, 64, 67
1, 310648, Control_c, 0, 64, 68
1, 310678, Control_c, 0, 64, 68
1, 310708, Control_c, 0, 64, 69
1, 310722, Control_c, 0, 64, 69
1, 310726, Note_on_c, 0, 61, 28
1, 310752, Control_c, 0, 64, 70
1, 310766, Control_c, 0, 64, 70
1, 310781, Control_c, 0, 64, 71
1, 310796, Control_c, 0, 64, 72
1, 310811, Control_c, 0, 64, 72
1, 310826, Control_c, 0, 64, 73
1, 310841, Control_c, 0, 64, 75
1, 310863, Control_c, 0, 64, 76
1, 310878, Control_c, 0, 64, 78
1, 310893, Control_c, 0, 64, 81
1, 310906, Note_off_c, 0, 62, 41
1, 310908, Control_c, 0, 64, 84
1, 310923, Control_c, 0, 64, 87
1, 310937, Control_c, 0, 64, 91
1, 310952, Control_c, 0, 64, 96
1, 310967, Control_c, 0, 64, 99
1, 310981, Control_c, 0, 64, 103
1, 310996, Control_c, 0, 64, 104
1, 311011, Control_c, 0, 64, 105
1, 311026, Control_c, 0, 64, 106
1, 311041, Control_c, 0, 64, 106
1, 311055, Control_c, 0, 64, 107
1, 311070, Control_c, 0, 64, 108
1, 311085, Control_c, 0, 64, 109
1, 311100, Control_c, 0, 64, 110
1, 311115, Control_c, 0, 64, 110
1, 311296, Note_on_c, 0, 60, 35
1, 311331, Note_on_c, 0, 69, 36
1, 311333, Note_off_c, 0, 61, 40
1, 311368, Control_c, 0, 64, 111
1, 311403, Note_off_c, 0, 70, 42
1, 311412, Control_c, 0, 64, 111
1, 311427, Control_c, 0, 64, 112
1, 311442, Control_c, 0, 64, 112
1, 311457, Control_c, 0, 64, 113
1, 311471, Control_c, 0, 64, 115
1, 311486, Control_c, 0, 64, 116
1, 311501, Control_c, 0, 64, 118
1, 311516, Control_c, 0, 64, 121
1, 311531, Control_c, 0, 64, 127
1, 311614, Note_on_c, 0, 70, 50
1, 311636, Note_off_c, 0, 69, 50
1, 311786, Note_off_c, 0, 70, 58
1, 311800, Note_on_c, 0, 69, 54
1, 311821, Note_on_c, 0, 58, 39
1, 311841, Note_off_c, 0, 60, 57
1, 311950, Note_off_c, 0, 69, 55
1, 311978, Note_on_c, 0, 70, 62
1, 312188, Note_on_c, 0, 72, 63
1, 312191, Control_c, 0, 64, 102
1, 312206, Control_c, 0, 64, 78
1, 312220, Control_c, 0, 64, 64
1, 312227, Note_on_c, 0, 60, 31
1, 312235, Control_c, 0, 64, 50
1, 312250, Control_c, 0, 64, 45
1, 312265, Control_c, 0, 64, 46
1, 312280, Control_c, 0, 64, 55
1, 312294, Control_c, 0, 64, 63
1, 312309, Control_c, 0, 64, 67
1, 312324, Control_c, 0, 64, 72
1, 312339, Control_c, 0, 64, 77
1, 312361, Control_c, 0, 64, 84
1, 312376, Control_c, 0, 64, 93
1, 312385, Note_off_c, 0, 60, 49
1, 312389, Control_c, 0, 64, 103
1, 312404, Control_c, 0, 64, 127
1, 312422, Note_off_c, 0, 72, 59
1, 312549, Note_on_c, 0, 72, 71
1, 312567, Note_on_c, 0, 62, 52
1, 312586, Note_on_c, 0, 57, 33
1, 312701, Note_off_c, 0, 62, 58
1, 312752, Note_off_c, 0, 72, 57
1, 312835, Note_off_c, 0, 58, 36
1, 312953, Control_c, 0, 64, 113
1, 312961, Note_on_c, 0, 72, 65
1, 312968, Control_c, 0, 64, 78
1, 312983, Control_c, 0, 64, 62
1, 312984, Note_on_c, 0, 50, 39
1, 312997, Control_c, 0, 64, 47
1, 313012, Control_c, 0, 64, 45
1, 313019, Note_off_c, 0, 57, 45
1, 313027, Control_c, 0, 64, 49
1, 313041, Control_c, 0, 64, 60
1, 313045, Note_on_c, 0, 65, 35
1, 313056, Control_c, 0, 64, 65
1, 313071, Control_c, 0, 64, 70
1, 313086, Control_c, 0, 64, 76
1, 313109, Control_c, 0, 64, 84
1, 313123, Control_c, 0, 64, 94
1, 313137, Note_off_c, 0, 70, 1
1, 313138, Control_c, 0, 64, 106
1, 313153, Control_c, 0, 64, 127
1, 313154, Note_off_c, 0, 65, 51
1, 313208, Note_off_c, 0, 72, 49
1, 313279, Note_off_c, 0, 50, 41
1, 313567, Note_on_c, 0, 55, 22
1, 313582, Note_on_c, 0, 72, 47
1, 313598, Note_on_c, 0, 58, 32
1, 313609, Note_on_c, 0, 65, 26
1, 313612, Control_c, 0, 64, 108
1, 313627, Control_c, 0, 64, 79
1, 313643, Control_c, 0, 64, 66
1, 313658, Control_c, 0, 64, 60
1, 313672, Control_c, 0, 64, 59
1, 313687, Control_c, 0, 64, 62
1, 313702, Control_c, 0, 64, 66
1, 313717, Control_c, 0, 64, 71
1, 313732, Control_c, 0, 64, 78
1, 313746, Control_c, 0, 64, 87
1, 313761, Control_c, 0, 64, 99
1, 313776, Control_c, 0, 64, 115
1, 313791, Control_c, 0, 64, 127
1, 313795, Note_off_c, 0, 58, 51
1, 313968, Poly_aftertouch_c, 0, 71, 127
1, 314008, Poly_aftertouch_c, 0, 71, 0
1, 314029, Note_off_c, 0, 72, 38
1, 314063, Note_on_c, 0, 43, 31
1, 314069, Note_on_c, 0, 70, 49
1, 314096, Note_on_c, 0, 62, 31
1, 314117, Note_off_c, 0, 70, 62
1, 314144, Note_off_c, 0, 65, 41
1, 314185, Note_off_c, 0, 62, 52
1, 314195, Note_off_c, 0, 55, 42
1, 314245, Note_on_c, 0, 69, 59
1, 314364, Note_off_c, 0, 69, 57
1, 314451, Control_c, 0, 64, 86
1, 314458, Note_on_c, 0, 67, 51
1, 314466, Control_c, 0, 64, 67
1, 314477, Note_on_c, 0, 64, 31
1, 314481, Control_c, 0, 64, 54
1, 314488, Note_on_c, 0, 58, 30
1, 314492, Note_on_c, 0, 48, 24
1, 314495, Control_c, 0, 64, 51
1, 314510, Control_c, 0, 64, 53
1, 314525, Control_c, 0, 64, 60
1, 314540, Control_c, 0, 64, 65
1, 314548, Note_off_c, 0, 43, 41
1, 314555, Control_c, 0, 64, 70
1, 314570, Control_c, 0, 64, 75
1, 314585, Control_c, 0, 64, 81
1, 314607, Control_c, 0, 64, 88
1, 314621, Control_c, 0, 64, 97
1, 314636, Control_c, 0, 64, 108
1, 314651, Control_c, 0, 64, 127
1, 314662, Note_on_c, 0, 69, 50
1, 314668, Note_off_c, 0, 58, 46
1, 314704, Note_off_c, 0, 64, 40
1, 314897, Note_off_c, 0, 67, 10
1, 314946, Note_on_c, 0, 41, 31
1, 314948, Control_c, 0, 64, 110
1, 314957, Note_on_c, 0, 65, 43
1, 314963, Control_c, 0, 64, 101
1, 314977, Control_c, 0, 64, 94
1, 314986, Note_on_c, 0, 57, 37
1, 314992, Control_c, 0, 64, 89
1, 315007, Control_c, 0, 64, 87
1, 315021, Control_c, 0, 64, 86
1, 315036, Control_c, 0, 64, 86
1, 315051, Control_c, 0, 64, 84
1, 315066, Control_c, 0, 64, 79
1, 315081, Control_c, 0, 64, 69
1, 315091, Note_off_c, 0, 48, 39
1, 315095, Control_c, 0, 64, 59
1, 315110, Control_c, 0, 64, 24
1, 315113, Note_off_c, 0, 69, 57
1, 315125, Control_c, 0, 64, 0
1, 315318, Control_c, 0, 64, 17
1, 315333, Control_c, 0, 64, 42
1, 315356, Control_c, 0, 64, 54
1, 315371, Control_c, 0, 64, 60
1, 315386, Control_c, 0, 64, 63
1, 315400, Control_c, 0, 64, 65
1, 315415, Control_c, 0, 64, 68
1, 315430, Control_c, 0, 64, 71
1, 315444, Control_c, 0, 64, 75
1, 315459, Control_c, 0, 64, 80
1, 315474, Control_c, 0, 64, 85
1, 315489, Control_c, 0, 64, 89
1, 315504, Control_c, 0, 64, 93
1, 315518, Control_c, 0, 64, 97
1, 315527, Note_on_c, 0, 49, 36
1, 315533, Control_c, 0, 64, 102
1, 315548, Control_c, 0, 64, 111
1, 315550, Note_off_c, 0, 57, 44
1, 315563, Control_c, 0, 64, 127
1, 315859, Note_off_c, 0, 41, 42
1, 315948, Note_on_c, 0, 53, 46
1, 316000, Note_off_c, 0, 49, 60
1, 316303, Note_on_c, 0, 60, 52
1, 316305, Note_on_c, 0, 52, 40
1, 316344, Note_off_c, 0, 53, 55
1, 316370, Control_c, 0, 64, 101
1, 316383, Note_off_c, 0, 65, 59
1, 316385, Control_c, 0, 64, 67
1, 316400, Control_c, 0, 64, 32
1, 316415, Control_c, 0, 64, 0
1, 316460, Control_c, 0, 64, 29
1, 316474, Control_c, 0, 64, 58
1, 316489, Control_c, 0, 64, 64
1, 316504, Control_c, 0, 64, 67
1, 316519, Control_c, 0, 64, 69
1, 316534, Control_c, 0, 64, 70
1, 316548, Control_c, 0, 64, 71
1, 316563, Control_c, 0, 64, 74
1, 316578, Control_c, 0, 64, 78
1, 316592, Control_c, 0, 64, 85
1, 316607, Control_c, 0, 64, 95
1, 316622, Control_c, 0, 64, 109
1, 316637, Control_c, 0, 64, 127
1, 316641, Note_on_c, 0, 61, 66
1, 316646, Note_on_c, 0, 46, 52
1, 316659, Note_off_c, 0, 52, 52
1, 316709, Note_off_c, 0, 60, 57
1, 316935, Note_on_c, 0, 65, 72
1, 316943, Note_on_c, 0, 49, 56
1, 316957, Note_off_c, 0, 61, 35
1, 316963, Note_off_c, 0, 46, 53
1, 316994, Note_off_c, 0, 65, 63
1, 317006, Note_off_c, 0, 49, 61
1, 317305, Note_on_c, 0, 48, 45
1, 317318, Note_on_c, 0, 72, 65
1, 317329, Note_on_c, 0, 64, 54
1, 317342, Control_c, 0, 64, 88
1, 317357, Control_c, 0, 64, 65
1, 317371, Control_c, 0, 64, 38
1, 317386, Control_c, 0, 64, 16
1, 317415, Control_c, 0, 64, 32
1, 317430, Control_c, 0, 64, 51
1, 317445, Control_c, 0, 64, 60
1, 317460, Control_c, 0, 64, 64
1, 317475, Control_c, 0, 64, 66
1, 317489, Control_c, 0, 64, 69
1, 317503, Note_off_c, 0, 64, 39
1, 317504, Control_c, 0, 64, 74
1, 317519, Control_c, 0, 64, 80
1, 317534, Control_c, 0, 64, 89
1, 317549, Control_c, 0, 64, 102
1, 317563, Control_c, 0, 64, 127
1, 317616, Note_off_c, 0, 48, 56
1, 317634, Note_on_c, 0, 73, 71
1, 317656, Note_on_c, 0, 58, 50
1, 317888, Note_off_c, 0, 72, 32
1, 317940, Note_on_c, 0, 77, 68
1, 317949, Note_on_c, 0, 61, 49
1, 317958, Control_c, 0, 64, 88
1, 317973, Control_c, 0, 64, 68
1, 317980, Note_off_c, 0, 58, 57
1, 317987, Control_c, 0, 64, 58
1, 318002, Control_c, 0, 64, 56
1, 318017, Control_c, 0, 64, 57
1, 318032, Control_c, 0, 64, 61
1, 318046, Control_c, 0, 64, 65
1, 318052, Note_off_c, 0, 73, 63
1, 318061, Control_c, 0, 64, 70
1, 318076, Control_c, 0, 64, 76
1, 318091, Control_c, 0, 64, 82
1, 318106, Control_c, 0, 64, 86
1, 318120, Control_c, 0, 64, 90
1, 318135, Control_c, 0, 64, 93
1, 318150, Control_c, 0, 64, 96
1, 318165, Control_c, 0, 64, 100
1, 318180, Control_c, 0, 64, 102
1, 318195, Control_c, 0, 64, 102
1, 318254, Control_c, 0, 64, 101
1, 318269, Control_c, 0, 64, 95
1, 318275, Note_on_c, 0, 76, 60
1, 318278, Note_off_c, 0, 61, 51
1, 318284, Control_c, 0, 64, 81
1, 318299, Control_c, 0, 64, 68
1, 318313, Control_c, 0, 64, 57
1, 318317, Note_on_c, 0, 60, 40
1, 318328, Control_c, 0, 64, 46
1, 318341, Note_off_c, 0, 77, 57
1, 318350, Control_c, 0, 64, 46
1, 318365, Control_c, 0, 64, 49
1, 318380, Control_c, 0, 64, 58
1, 318394, Control_c, 0, 64, 63
1, 318409, Control_c, 0, 64, 66
1, 318424, Control_c, 0, 64, 67
1, 318440, Control_c, 0, 64, 68
1, 318455, Control_c, 0, 64, 68
1, 318484, Control_c, 0, 64, 69
1, 318499, Control_c, 0, 64, 69
1, 318588, Control_c, 0, 64, 69
1, 318618, Control_c, 0, 64, 68
1, 318633, Control_c, 0, 64, 68
1, 318648, Control_c, 0, 64, 67
1, 318662, Control_c, 0, 64, 65
1, 318666, Note_on_c, 0, 70, 42
1, 318668, Note_on_c, 0, 61, 34
1, 318677, Control_c, 0, 64, 63
1, 318686, Note_off_c, 0, 60, 34
1, 318692, Control_c, 0, 64, 61
1, 318707, Control_c, 0, 64, 59
1, 318722, Control_c, 0, 64, 58
1, 318734, Note_off_c, 0, 76, 61
1, 319003, Control_c, 0, 64, 58
1, 319032, Control_c, 0, 64, 59
1, 319099, Control_c, 0, 64, 59
1, 319108, Note_on_c, 0, 65, 24
1, 319112, Note_on_c, 0, 73, 38
1, 319129, Control_c, 0, 64, 60
1, 319143, Control_c, 0, 64, 61
1, 319158, Control_c, 0, 64, 62
1, 319173, Control_c, 0, 64, 64
1, 319187, Control_c, 0, 64, 65
1, 319202, Control_c, 0, 64, 66
1, 319217, Control_c, 0, 64, 66
1, 319232, Control_c, 0, 64, 67
1, 319241, Note_off_c, 0, 61, 59
1, 319248, Control_c, 0, 64, 67
1, 319263, Control_c, 0, 64, 68
1, 319278, Control_c, 0, 64, 68
1, 319283, Note_off_c, 0, 70, 58
1, 319292, Control_c, 0, 64, 69
1, 319307, Control_c, 0, 64, 69
1, 319322, Control_c, 0, 64, 70
1, 319337, Control_c, 0, 64, 72
1, 319352, Control_c, 0, 64, 75
1, 319366, Control_c, 0, 64, 79
1, 319381, Control_c, 0, 64, 84
1, 319396, Control_c, 0, 64, 89
1, 319411, Control_c, 0, 64, 94
1, 319426, Control_c, 0, 64, 98
1, 319441, Control_c, 0, 64, 100
1, 319455, Control_c, 0, 64, 101
1, 319470, Control_c, 0, 64, 101
1, 319613, Note_on_c, 0, 64, 32
1, 319707, Control_c, 0, 64, 102
1, 319752, Control_c, 0, 64, 102
1, 319766, Control_c, 0, 64, 103
1, 319781, Control_c, 0, 64, 103
1, 319796, Control_c, 0, 64, 105
1, 319810, Control_c, 0, 64, 106
1, 319825, Control_c, 0, 64, 108
1, 319848, Control_c, 0, 64, 110
1, 319863, Control_c, 0, 64, 112
1, 319877, Control_c, 0, 64, 113
1, 319891, Control_c, 0, 64, 114
1, 319965, Control_c, 0, 64, 115
1, 319995, Control_c, 0, 64, 115
1, 320010, Control_c, 0, 64, 116
1, 320025, Control_c, 0, 64, 118
1, 320041, Control_c, 0, 64, 119
1, 320056, Control_c, 0, 64, 127
1, 320107, Note_on_c, 0, 72, 41
1, 320144, Note_on_c, 0, 63, 36
1, 320144, Note_off_c, 0, 65, 30
1, 320167, Note_off_c, 0, 73, 29
1, 320229, Note_off_c, 0, 64, 35
1, 320309, Note_on_c, 0, 73, 52
1, 320334, Note_off_c, 0, 72, 57
1, 320484, Note_on_c, 0, 72, 56
1, 320507, Note_on_c, 0, 61, 40
1, 320534, Note_off_c, 0, 73, 25
1, 320548, Poly_aftertouch_c, 0, 70, 127
1, 320606, Poly_aftertouch_c, 0, 70, 0
1, 320612, Note_off_c, 0, 63, 36
1, 320648, Note_off_c, 0, 72, 64
1, 320655, Note_on_c, 0, 73, 69
1, 320659, Note_off_c, 0, 61, 62
1, 320826, Note_on_c, 0, 75, 77
1, 320833, Note_off_c, 0, 73, 59
1, 320867, Note_on_c, 0, 63, 50
1, 320935, Note_off_c, 0, 63, 48
1, 321012, Note_off_c, 0, 75, 53
1, 321113, Poly_aftertouch_c, 0, 71, 127
1, 321175, Control_c, 0, 64, 96
1, 321178, Note_on_c, 0, 75, 82
1, 321183, Note_on_c, 0, 60, 41
1, 321190, Control_c, 0, 64, 73
1, 321204, Control_c, 0, 64, 62
1, 321219, Control_c, 0, 64, 50
1, 321234, Control_c, 0, 64, 48
1, 321237, Poly_aftertouch_c, 0, 71, 0
1, 321245, Note_on_c, 0, 65, 37
1, 321249, Control_c, 0, 64, 51
1, 321263, Control_c, 0, 64, 59
1, 321278, Control_c, 0, 64, 64
1, 321293, Control_c, 0, 64, 69
1, 321308, Control_c, 0, 64, 74
1, 321323, Control_c, 0, 64, 80
1, 321345, Control_c, 0, 64, 86
1, 321360, Control_c, 0, 64, 91
1, 321375, Control_c, 0, 64, 95
1, 321390, Control_c, 0, 64, 97
1, 321405, Note_off_c, 0, 65, 36
1, 321405, Control_c, 0, 64, 100
1, 321420, Control_c, 0, 64, 104
1, 321435, Control_c, 0, 64, 111
1, 321449, Note_off_c, 0, 75, 59
1, 321450, Control_c, 0, 64, 121
1, 321464, Control_c, 0, 64, 127
1, 321559, Note_on_c, 0, 75, 77
1, 321564, Note_on_c, 0, 53, 40
1, 321570, Note_on_c, 0, 68, 56
1, 321583, Control_c, 0, 64, 98
1, 321598, Control_c, 0, 64, 71
1, 321608, Note_off_c, 0, 60, 44
1, 321612, Control_c, 0, 64, 59
1, 321627, Control_c, 0, 64, 53
1, 321643, Control_c, 0, 64, 53
1, 321658, Control_c, 0, 64, 59
1, 321673, Control_c, 0, 64, 65
1, 321687, Control_c, 0, 64, 71
1, 321702, Control_c, 0, 64, 77
1, 321717, Control_c, 0, 64, 83
1, 321732, Control_c, 0, 64, 87
1, 321747, Control_c, 0, 64, 90
1, 321761, Control_c, 0, 64, 91
1, 321762, Note_off_c, 0, 75, 56
1, 321769, Note_off_c, 0, 53, 55
1, 321774, Poly_aftertouch_c, 0, 71, 127
1, 321787, Note_off_c, 0, 68, 38
1, 321791, Control_c, 0, 64, 92
1, 321806, Control_c, 0, 64, 94
1, 321821, Control_c, 0, 64, 99
1, 321835, Control_c, 0, 64, 104
1, 321850, Control_c, 0, 64, 108
1, 321865, Control_c, 0, 64, 108
1, 321939, Control_c, 0, 64, 109
1, 321953, Control_c, 0, 64, 109
1, 322013, Control_c, 0, 64, 108
1, 322028, Control_c, 0, 64, 107
1, 322037, Note_on_c, 0, 75, 64
1, 322042, Note_on_c, 0, 58, 40
1, 322043, Control_c, 0, 64, 105
1, 322053, Poly_aftertouch_c, 0, 71, 0
1, 322058, Control_c, 0, 64, 97
1, 322073, Control_c, 0, 64, 82
1, 322092, Note_on_c, 0, 61, 39
1, 322094, Note_on_c, 0, 68, 36
1, 322094, Control_c, 0, 64, 69
1, 322109, Control_c, 0, 64, 62
1, 322124, Control_c, 0, 64, 59
1, 322139, Control_c, 0, 64, 60
1, 322154, Control_c, 0, 64, 64
1, 322168, Control_c, 0, 64, 68
1, 322183, Control_c, 0, 64, 73
1, 322198, Control_c, 0, 64, 79
1, 322200, Note_off_c, 0, 61, 53
1, 322213, Control_c, 0, 64, 85
1, 322228, Control_c, 0, 64, 90
1, 322243, Control_c, 0, 64, 93
1, 322258, Control_c, 0, 64, 94
1, 322302, Control_c, 0, 64, 94
1, 322317, Control_c, 0, 64, 95
1, 322332, Control_c, 0, 64, 96
1, 322347, Control_c, 0, 64, 97
1, 322436, Control_c, 0, 64, 96
1, 322452, Note_off_c, 0, 75, 56
1, 322466, Control_c, 0, 64, 96
1, 322481, Control_c, 0, 64, 95
1, 322481, Note_on_c, 0, 73, 54
1, 322488, Note_on_c, 0, 46, 32
1, 322499, Note_off_c, 0, 58, 40
1, 322510, Note_on_c, 0, 65, 40
1, 322510, Control_c, 0, 64, 94
1, 322525, Control_c, 0, 64, 94
1, 322583, Note_off_c, 0, 73, 57
1, 322584, Control_c, 0, 64, 94
1, 322614, Control_c, 0, 64, 95
1, 322617, Note_off_c, 0, 68, 29
1, 322669, Note_on_c, 0, 72, 60
1, 322673, Control_c, 0, 64, 94
1, 322688, Note_off_c, 0, 65, 23
1, 322702, Control_c, 0, 64, 94
1, 322762, Control_c, 0, 64, 93
1, 322791, Control_c, 0, 64, 93
1, 322844, Control_c, 0, 64, 92
1, 322866, Note_off_c, 0, 72, 62
1, 322887, Control_c, 0, 64, 92
1, 322901, Control_c, 0, 64, 91
1, 322903, Note_on_c, 0, 70, 54
1, 322907, Note_on_c, 0, 67, 42
1, 322916, Control_c, 0, 64, 89
1, 322924, Note_on_c, 0, 51, 37
1, 322931, Control_c, 0, 64, 80
1, 322934, Note_off_c, 0, 46, 41
1, 322946, Control_c, 0, 64, 68
1, 322961, Control_c, 0, 64, 51
1, 322976, Control_c, 0, 64, 0
1, 323037, Poly_aftertouch_c, 0, 61, 127
1, 323049, Control_c, 0, 64, 37
1, 323064, Control_c, 0, 64, 58
1, 323079, Control_c, 0, 64, 64
1, 323086, Note_off_c, 0, 70, 59
1, 323094, Control_c, 0, 64, 68
1, 323102, Note_on_c, 0, 72, 54
1, 323108, Control_c, 0, 64, 71
1, 323123, Control_c, 0, 64, 74
1, 323138, Control_c, 0, 64, 76
1, 323143, Note_off_c, 0, 67, 57
1, 323153, Control_c, 0, 64, 79
1, 323168, Control_c, 0, 64, 82
1, 323178, Poly_aftertouch_c, 0, 61, 0
1, 323182, Control_c, 0, 64, 87
1, 323197, Control_c, 0, 64, 92
1, 323212, Control_c, 0, 64, 98
1, 323228, Control_c, 0, 64, 102
1, 323243, Control_c, 0, 64, 103
1, 323258, Control_c, 0, 64, 104
1, 323287, Control_c, 0, 64, 103
1, 323317, Control_c, 0, 64, 103
1, 323331, Control_c, 0, 64, 102
1, 323346, Control_c, 0, 64, 102
1, 323376, Control_c, 0, 64, 101
1, 323387, Note_on_c, 0, 44, 34
1, 323391, Control_c, 0, 64, 101
1, 323405, Control_c, 0, 64, 99
1, 323420, Control_c, 0, 64, 97
1, 323435, Control_c, 0, 64, 95
1, 323447, Note_on_c, 0, 68, 42
1, 323450, Control_c, 0, 64, 92
1, 323453, Note_on_c, 0, 60, 40
1, 323465, Control_c, 0, 64, 87
1, 323480, Control_c, 0, 64, 82
1, 323495, Control_c, 0, 64, 74
1, 323510, Control_c, 0, 64, 63
1, 323524, Control_c, 0, 64, 41
1, 323527, Note_off_c, 0, 51, 39
1, 323539, Control_c, 0, 64, 0
1, 323563, Note_off_c, 0, 72, 64
1, 323635, Control_c, 0, 64, 20
1, 323650, Control_c, 0, 64, 50
1, 323665, Control_c, 0, 64, 57
1, 323679, Control_c, 0, 64, 61
1, 323694, Control_c, 0, 64, 62
1, 323709, Control_c, 0, 64, 63
1, 323724, Control_c, 0, 64, 65
1, 323739, Control_c, 0, 64, 66
1, 323754, Control_c, 0, 64, 68
1, 323769, Control_c, 0, 64, 71
1, 323784, Control_c, 0, 64, 74
1, 323799, Control_c, 0, 64, 77
1, 323813, Control_c, 0, 64, 80
1, 323828, Control_c, 0, 64, 82
1, 323843, Control_c, 0, 64, 84
1, 323857, Control_c, 0, 64, 85
1, 323872, Control_c, 0, 64, 86
1, 323887, Control_c, 0, 64, 87
1, 323902, Control_c, 0, 64, 87
1, 323917, Control_c, 0, 64, 88
1, 323931, Control_c, 0, 64, 89
1, 323946, Control_c, 0, 64, 90
1, 323976, Control_c, 0, 64, 90
1, 323989, Note_on_c, 0, 52, 54
1, 323991, Control_c, 0, 64, 91
1, 324005, Control_c, 0, 64, 92
1, 324020, Control_c, 0, 64, 92
1, 324036, Control_c, 0, 64, 93
1, 324037, Note_off_c, 0, 60, 44
1, 324080, Control_c, 0, 64, 93
1, 324095, Control_c, 0, 64, 94
1, 324110, Control_c, 0, 64, 95
1, 324125, Control_c, 0, 64, 96
1, 324140, Control_c, 0, 64, 98
1, 324155, Control_c, 0, 64, 99
1, 324169, Control_c, 0, 64, 100
1, 324184, Control_c, 0, 64, 100
1, 324199, Control_c, 0, 64, 101
1, 324214, Control_c, 0, 64, 102
1, 324228, Control_c, 0, 64, 103
1, 324288, Control_c, 0, 64, 103
1, 324302, Control_c, 0, 64, 104
1, 324317, Control_c, 0, 64, 104
1, 324340, Control_c, 0, 64, 105
1, 324354, Control_c, 0, 64, 105
1, 324369, Control_c, 0, 64, 106
1, 324384, Control_c, 0, 64, 108
1, 324393, Note_on_c, 0, 56, 69
1, 324399, Control_c, 0, 64, 109
1, 324414, Control_c, 0, 64, 110
1, 324428, Control_c, 0, 64, 112
1, 324443, Control_c, 0, 64, 114
1, 324458, Control_c, 0, 64, 116
1, 324473, Control_c, 0, 64, 121
1, 324487, Control_c, 0, 64, 127
1, 324710, Note_off_c, 0, 56, 37
1, 324745, Note_on_c, 0, 55, 55
1, 324747, Note_on_c, 0, 63, 63
1, 324769, Control_c, 0, 64, 79
1, 324784, Control_c, 0, 64, 62
1, 324799, Control_c, 0, 64, 31
1, 324800, Note_off_c, 0, 52, 60
1, 324814, Control_c, 0, 64, 17
1, 324827, Note_off_c, 0, 68, 60
1, 324845, Control_c, 0, 64, 34
1, 324859, Control_c, 0, 64, 56
1, 324874, Control_c, 0, 64, 63
1, 324889, Control_c, 0, 64, 66
1, 324903, Control_c, 0, 64, 68
1, 324918, Control_c, 0, 64, 70
1, 324933, Control_c, 0, 64, 71
1, 324948, Control_c, 0, 64, 72
1, 324963, Control_c, 0, 64, 74
1, 324977, Control_c, 0, 64, 76
1, 324992, Control_c, 0, 64, 80
1, 325007, Control_c, 0, 64, 85
1, 325022, Control_c, 0, 64, 89
1, 325037, Control_c, 0, 64, 92
1, 325050, Note_on_c, 0, 49, 59
1, 325051, Control_c, 0, 64, 93
1, 325083, Note_on_c, 0, 64, 73
1, 325089, Control_c, 0, 64, 94
1, 325103, Control_c, 0, 64, 96
1, 325119, Control_c, 0, 64, 98
1, 325134, Control_c, 0, 64, 102
1, 325149, Control_c, 0, 64, 107
1, 325164, Control_c, 0, 64, 114
1, 325173, Note_off_c, 0, 63, 37
1, 325178, Control_c, 0, 64, 127
1, 325254, Note_off_c, 0, 55, 34
1, 325375, Note_on_c, 0, 68, 83
1, 325390, Note_on_c, 0, 52, 68
1, 325397, Note_off_c, 0, 64, 61
1, 325423, Note_off_c, 0, 49, 63
1, 325435, Note_off_c, 0, 68, 61
1, 325738, Note_on_c, 0, 75, 77
1, 325742, Note_on_c, 0, 67, 64
1, 325748, Note_on_c, 0, 51, 66
1, 325757, Control_c, 0, 64, 86
1, 325766, Note_off_c, 0, 52, 58
1, 325772, Control_c, 0, 64, 63
1, 325787, Control_c, 0, 64, 0
1, 325853, Control_c, 0, 64, 21
1, 325868, Control_c, 0, 64, 57
1, 325870, Note_off_c, 0, 44, 57
1, 325882, Control_c, 0, 64, 66
1, 325897, Control_c, 0, 64, 71
1, 325912, Control_c, 0, 64, 77
1, 325927, Control_c, 0, 64, 83
1, 325942, Control_c, 0, 64, 91
1, 325957, Control_c, 0, 64, 104
1, 325972, Control_c, 0, 64, 127
1, 326016, Note_off_c, 0, 51, 64
1, 326027, Note_off_c, 0, 75, 62
1, 326031, Note_off_c, 0, 67, 55
1, 326061, Note_on_c, 0, 76, 74
1, 326070, Note_on_c, 0, 68, 71
1, 326127, Note_off_c, 0, 68, 62
1, 326271, Note_off_c, 0, 76, 63
1, 326371, Control_c, 0, 64, 87
1, 326372, Note_on_c, 0, 80, 79
1, 326386, Control_c, 0, 64, 66
1, 326389, Note_on_c, 0, 71, 65
1, 326397, Note_on_c, 0, 62, 45
1, 326401, Control_c, 0, 64, 55
1, 326416, Control_c, 0, 64, 54
1, 326431, Control_c, 0, 64, 57
1, 326446, Control_c, 0, 64, 63
1, 326461, Control_c, 0, 64, 68
1, 326476, Control_c, 0, 64, 74
1, 326491, Control_c, 0, 64, 82
1, 326505, Control_c, 0, 64, 93
1, 326520, Control_c, 0, 64, 110
1, 326535, Control_c, 0, 64, 127
1, 326541, Note_off_c, 0, 71, 50
1, 326580, Note_off_c, 0, 80, 60
1, 326648, Note_off_c, 0, 62, 32
1, 326675, Control_c, 0, 64, 111
1, 326690, Control_c, 0, 64, 74
1, 326705, Control_c, 0, 64, 56
1, 326709, Note_on_c, 0, 79, 71
1, 326720, Control_c, 0, 64, 34
1, 326727, Note_on_c, 0, 63, 43
1, 326735, Control_c, 0, 64, 36
1, 326735, Note_on_c, 0, 70, 57
1, 326749, Control_c, 0, 64, 53
1, 326764, Control_c, 0, 64, 63
1, 326779, Control_c, 0, 64, 70
1, 326794, Control_c, 0, 64, 76
1, 326809, Control_c, 0, 64, 82
1, 326823, Control_c, 0, 64, 85
1, 326838, Control_c, 0, 64, 88
1, 326841, Note_off_c, 0, 70, 54
1, 326853, Control_c, 0, 64, 93
1, 326868, Control_c, 0, 64, 104
1, 326882, Control_c, 0, 64, 127
1, 326957, Note_off_c, 0, 79, 33
1, 327060, Control_c, 0, 64, 97
1, 327073, Note_on_c, 0, 64, 47
1, 327075, Control_c, 0, 64, 69
1, 327077, Note_on_c, 0, 73, 73
1, 327090, Control_c, 0, 64, 49
1, 327104, Control_c, 0, 64, 44
1, 327119, Control_c, 0, 64, 50
1, 327134, Control_c, 0, 64, 61
1, 327149, Control_c, 0, 64, 67
1, 327164, Control_c, 0, 64, 73
1, 327171, Note_off_c, 0, 63, 41
1, 327179, Control_c, 0, 64, 79
1, 327194, Control_c, 0, 64, 80
1, 327209, Note_off_c, 0, 64, 63
1, 327239, Control_c, 0, 64, 81
1, 327254, Control_c, 0, 64, 81
1, 327268, Control_c, 0, 64, 83
1, 327283, Control_c, 0, 64, 85
1, 327298, Control_c, 0, 64, 87
1, 327313, Control_c, 0, 64, 89
1, 327335, Control_c, 0, 64, 90
1, 327379, Control_c, 0, 64, 89
1, 327453, Control_c, 0, 64, 90
1, 327483, Control_c, 0, 64, 89
1, 327498, Control_c, 0, 64, 87
1, 327513, Control_c, 0, 64, 82
1, 327519, Note_on_c, 0, 68, 41
1, 327525, Note_on_c, 0, 76, 66
1, 327528, Control_c, 0, 64, 77
1, 327543, Control_c, 0, 64, 73
1, 327558, Control_c, 0, 64, 71
1, 327572, Control_c, 0, 64, 70
1, 327617, Control_c, 0, 64, 70
1, 327629, Note_off_c, 0, 73, 59
1, 327632, Control_c, 0, 64, 69
1, 327647, Control_c, 0, 64, 68
1, 327661, Control_c, 0, 64, 68
1, 327735, Control_c, 0, 64, 67
1, 327966, Note_on_c, 0, 67, 46
1, 328062, Control_c, 0, 64, 68
1, 328088, Note_off_c, 0, 68, 62
1, 328128, Control_c, 0, 64, 68
1, 328202, Control_c, 0, 64, 69
1, 328247, Control_c, 0, 64, 69
1, 328306, Control_c, 0, 64, 70
1, 328321, Control_c, 0, 64, 70
1, 328336, Control_c, 0, 64, 71
1, 328345, Note_on_c, 0, 75, 60
1, 328350, Control_c, 0, 64, 71
1, 328363, Note_on_c, 0, 66, 42
1, 328365, Control_c, 0, 64, 72
1, 328380, Control_c, 0, 64, 73
1, 328392, Note_off_c, 0, 76, 60
1, 328395, Control_c, 0, 64, 74
1, 328410, Control_c, 0, 64, 75
1, 328415, Note_off_c, 0, 67, 61
1, 328425, Control_c, 0, 64, 76
1, 328440, Control_c, 0, 64, 77
1, 328455, Control_c, 0, 64, 78
1, 328469, Control_c, 0, 64, 81
1, 328484, Control_c, 0, 64, 84
1, 328499, Control_c, 0, 64, 87
1, 328514, Control_c, 0, 64, 88
1, 328516, Note_on_c, 0, 76, 68
1, 328528, Control_c, 0, 64, 89
1, 328542, Note_off_c, 0, 75, 61
1, 328543, Control_c, 0, 64, 90
1, 328558, Control_c, 0, 64, 90
1, 328573, Control_c, 0, 64, 92
1, 328588, Control_c, 0, 64, 94
1, 328602, Control_c, 0, 64, 96
1, 328617, Control_c, 0, 64, 99
1, 328632, Control_c, 0, 64, 102
1, 328647, Control_c, 0, 64, 104
1, 328662, Control_c, 0, 64, 106
1, 328676, Control_c, 0, 64, 108
1, 328691, Control_c, 0, 64, 104
1, 328694, Note_off_c, 0, 66, 54
1, 328695, Note_off_c, 0, 76, 55
1, 328701, Note_on_c, 0, 75, 67
1, 328706, Control_c, 0, 64, 86
1, 328716, Note_on_c, 0, 64, 44
1, 328720, Control_c, 0, 64, 69
1, 328732, Note_on_c, 0, 73, 39
1, 328735, Control_c, 0, 64, 59
1, 328750, Control_c, 0, 64, 58
1, 328765, Control_c, 0, 64, 62
1, 328780, Control_c, 0, 64, 66
1, 328795, Control_c, 0, 64, 70
1, 328810, Control_c, 0, 64, 75
1, 328833, Control_c, 0, 64, 80
1, 328842, Note_off_c, 0, 73, 33
1, 328848, Control_c, 0, 64, 83
1, 328863, Control_c, 0, 64, 87
1, 328869, Note_on_c, 0, 76, 72
1, 328876, Note_off_c, 0, 75, 63
1, 328878, Control_c, 0, 64, 91
1, 328893, Control_c, 0, 64, 96
1, 328908, Control_c, 0, 64, 102
1, 328923, Control_c, 0, 64, 110
1, 328938, Control_c, 0, 64, 127
1, 329041, Note_off_c, 0, 76, 48
1, 329056, Note_off_c, 0, 64, 56
1, 329086, Control_c, 0, 64, 109
1, 329096, Note_on_c, 0, 78, 67
1, 329100, Control_c, 0, 64, 78
1, 329115, Control_c, 0, 64, 64
1, 329119, Note_on_c, 0, 63, 36
1, 329121, Note_on_c, 0, 66, 47
1, 329130, Control_c, 0, 64, 56
1, 329159, Control_c, 0, 64, 61
1, 329174, Control_c, 0, 64, 67
1, 329189, Control_c, 0, 64, 75
1, 329204, Control_c, 0, 64, 89
1, 329218, Control_c, 0, 64, 121
1, 329224, Note_off_c, 0, 66, 59
1, 329233, Control_c, 0, 64, 127
1, 329313, Note_off_c, 0, 78, 59
1, 329365, Note_off_c, 0, 63, 35
1, 329507, Note_on_c, 0, 78, 71
1, 329530, Control_c, 0, 64, 104
1, 329537, Note_on_c, 0, 71, 46
1, 329544, Control_c, 0, 64, 74
1, 329547, Note_on_c, 0, 62, 40
1, 329559, Control_c, 0, 64, 60
1, 329582, Control_c, 0, 64, 51
1, 329597, Control_c, 0, 64, 53
1, 329611, Control_c, 0, 64, 61
1, 329627, Control_c, 0, 64, 67
1, 329642, Control_c, 0, 64, 75
1, 329656, Control_c, 0, 64, 87
1, 329671, Control_c, 0, 64, 103
1, 329686, Control_c, 0, 64, 127
1, 329725, Note_off_c, 0, 62, 60
1, 329844, Note_off_c, 0, 78, 38
1, 329847, Note_off_c, 0, 71, 39
1, 330036, Note_on_c, 0, 78, 56
1, 330052, Note_on_c, 0, 70, 41
1, 330053, Note_on_c, 0, 61, 38
1, 330056, Control_c, 0, 64, 88
1, 330071, Control_c, 0, 64, 69
1, 330086, Control_c, 0, 64, 63
1, 330115, Control_c, 0, 64, 65
1, 330130, Control_c, 0, 64, 70
1, 330145, Control_c, 0, 64, 79
1, 330160, Control_c, 0, 64, 96
1, 330175, Control_c, 0, 64, 127
1, 330217, Note_off_c, 0, 61, 51
1, 330390, Note_off_c, 0, 78, 35
1, 330502, Note_off_c, 0, 70, 52
1, 330789, Note_on_c, 0, 60, 29
1, 330791, Note_on_c, 0, 78, 47
1, 330807, Note_on_c, 0, 63, 30
1, 330811, Note_on_c, 0, 69, 27
1, 330834, Control_c, 0, 64, 96
1, 330849, Control_c, 0, 64, 77
1, 330863, Control_c, 0, 64, 66
1, 330878, Control_c, 0, 64, 59
1, 330893, Control_c, 0, 64, 55
1, 330908, Control_c, 0, 64, 56
1, 330923, Control_c, 0, 64, 59
1, 330938, Control_c, 0, 64, 62
1, 330953, Control_c, 0, 64, 66
1, 330968, Control_c, 0, 64, 69
1, 330983, Control_c, 0, 64, 73
1, 330997, Control_c, 0, 64, 79
1, 331012, Control_c, 0, 64, 85
1, 331027, Control_c, 0, 64, 91
1, 331042, Control_c, 0, 64, 101
1, 331057, Control_c, 0, 64, 118
1, 331075, Note_off_c, 0, 60, 50
1, 331078, Control_c, 0, 64, 127
1, 331275, Note_off_c, 0, 63, 40
1, 331281, Note_off_c, 0, 78, 62
1, 331580, Note_on_c, 0, 77, 42
1, 331612, Note_on_c, 0, 53, 22
1, 331642, Control_c, 0, 64, 104
1, 331657, Control_c, 0, 64, 78
1, 331672, Control_c, 0, 64, 66
1, 331686, Control_c, 0, 64, 59
1, 331701, Control_c, 0, 64, 57
1, 331716, Control_c, 0, 64, 58
1, 331731, Control_c, 0, 64, 61
1, 331746, Control_c, 0, 64, 64
1, 331761, Control_c, 0, 64, 67
1, 331776, Control_c, 0, 64, 70
1, 331790, Control_c, 0, 64, 72
1, 331805, Control_c, 0, 64, 74
1, 331827, Control_c, 0, 64, 77
1, 331842, Control_c, 0, 64, 80
1, 331857, Control_c, 0, 64, 84
1, 331872, Control_c, 0, 64, 88
1, 331887, Control_c, 0, 64, 92
1, 331901, Control_c, 0, 64, 96
1, 331916, Control_c, 0, 64, 102
1, 331922, Note_on_c, 0, 72, 41
1, 331931, Control_c, 0, 64, 109
1, 331945, Control_c, 0, 64, 121
1, 331960, Control_c, 0, 64, 127
1, 331975, Note_off_c, 0, 53, 41
1, 332158, Note_on_c, 0, 75, 48
1, 332178, Note_on_c, 0, 65, 32
1, 332217, Note_off_c, 0, 72, 37
1, 332229, Note_off_c, 0, 65, 61
1, 332346, Note_on_c, 0, 73, 52
1, 332433, Note_off_c, 0, 69, 42
1, 332491, Note_off_c, 0, 75, 20
1, 332598, Note_on_c, 0, 70, 40
1, 332619, Note_on_c, 0, 46, 33
1, 332651, Control_c, 0, 64, 89
1, 332666, Control_c, 0, 64, 70
1, 332681, Control_c, 0, 64, 56
1, 332693, Note_off_c, 0, 73, 45
1, 332695, Control_c, 0, 64, 49
1, 332725, Control_c, 0, 64, 54
1, 332740, Control_c, 0, 64, 61
1, 332755, Control_c, 0, 64, 66
1, 332769, Control_c, 0, 64, 70
1, 332783, Note_off_c, 0, 77, 61
1, 332784, Control_c, 0, 64, 77
1, 332799, Control_c, 0, 64, 84
1, 332815, Control_c, 0, 64, 92
1, 332830, Control_c, 0, 64, 103
1, 332845, Control_c, 0, 64, 127
1, 332975, Note_off_c, 0, 46, 40
1, 333066, Note_on_c, 0, 61, 28
1, 333101, Note_on_c, 0, 53, 35
1, 333188, Note_off_c, 0, 61, 36
1, 333398, Note_off_c, 0, 53, 36
1, 333417, Note_on_c, 0, 44, 43
1, 333522, Note_off_c, 0, 44, 59
1, 333549, Note_off_c, 0, 70, 59
1, 333871, Note_on_c, 0, 42, 47
1, 333875, Control_c, 0, 64, 86
1, 333889, Control_c, 0, 64, 64
1, 333904, Control_c, 0, 64, 53
1, 333919, Control_c, 0, 64, 53
1, 333934, Control_c, 0, 64, 58
1, 333949, Control_c, 0, 64, 64
1, 333964, Control_c, 0, 64, 71
1, 333978, Control_c, 0, 64, 83
1, 333985, Note_off_c, 0, 42, 63
1, 333993, Control_c, 0, 64, 127
1, 334309, Note_on_c, 0, 58, 23
1, 334316, Note_on_c, 0, 49, 13
1, 334339, Note_on_c, 0, 73, 40
1, 334378, Note_off_c, 0, 49, 46
1, 334390, Poly_aftertouch_c, 0, 54, 127
1, 334430, Poly_aftertouch_c, 0, 54, 0
1, 334479, Note_off_c, 0, 58, 36
1, 334503, Note_on_c, 0, 75, 57
1, 334520, Note_off_c, 0, 73, 56
1, 334611, Note_on_c, 0, 54, 39
1, 334622, Note_on_c, 0, 58, 41
1, 334622, Note_on_c, 0, 61, 48
1, 334653, Note_on_c, 0, 73, 62
1, 334656, Note_off_c, 0, 61, 64
1, 334658, Note_off_c, 0, 58, 63
1, 334675, Note_off_c, 0, 54, 62
1, 334676, Note_off_c, 0, 75, 57
1, 334784, Note_on_c, 0, 75, 70
1, 334831, Note_off_c, 0, 73, 61
1, 334928, Note_off_c, 0, 75, 58
1, 334999, Note_on_c, 0, 77, 62
1, 335000, Control_c, 0, 64, 102
1, 335007, Note_on_c, 0, 37, 41
1, 335015, Control_c, 0, 64, 64
1, 335030, Control_c, 0, 64, 0
1, 335089, Control_c, 0, 64, 54
1, 335104, Control_c, 0, 64, 67
1, 335112, Note_off_c, 0, 37, 61
1, 335118, Control_c, 0, 64, 77
1, 335133, Control_c, 0, 64, 97
1, 335141, Note_off_c, 0, 77, 64
1, 335148, Control_c, 0, 64, 127
1, 335384, Note_on_c, 0, 77, 64
1, 335392, Note_on_c, 0, 56, 41
1, 335418, Note_on_c, 0, 61, 46
1, 335422, Note_on_c, 0, 53, 41
1, 335471, Note_off_c, 0, 61, 57
1, 335475, Note_off_c, 0, 56, 60
1, 335504, Note_off_c, 0, 53, 58
1, 335517, Note_off_c, 0, 77, 60
1, 335713, Note_on_c, 0, 56, 44
1, 335725, Note_on_c, 0, 65, 33
1, 335729, Note_on_c, 0, 77, 69
1, 335736, Note_on_c, 0, 61, 39
1, 335763, Note_off_c, 0, 65, 63
1, 335770, Note_off_c, 0, 61, 63
1, 335778, Note_off_c, 0, 56, 63
1, 335898, Note_off_c, 0, 77, 58
1, 336083, Note_on_c, 0, 39, 41
1, 336150, Control_c, 0, 64, 78
1, 336152, Note_on_c, 0, 77, 55
1, 336164, Control_c, 0, 64, 62
1, 336179, Control_c, 0, 64, 47
1, 336194, Control_c, 0, 64, 46
1, 336208, Control_c, 0, 64, 51
1, 336223, Control_c, 0, 64, 62
1, 336238, Control_c, 0, 64, 68
1, 336253, Control_c, 0, 64, 78
1, 336268, Control_c, 0, 64, 96
1, 336283, Control_c, 0, 64, 127
1, 336292, Note_off_c, 0, 39, 50
1, 336549, Note_on_c, 0, 60, 32
1, 336551, Note_on_c, 0, 75, 53
1, 336643, Note_on_c, 0, 58, 12
1, 336690, Note_off_c, 0, 58, 51
1, 336704, Note_off_c, 0, 75, 62
1, 336725, Note_on_c, 0, 70, 54
1, 336861, Note_on_c, 0, 66, 47
1, 336873, Note_on_c, 0, 58, 35
1, 336894, Note_off_c, 0, 66, 63
1, 336894, Note_off_c, 0, 60, 55
1, 336900, Note_on_c, 0, 73, 61
1, 336903, Note_off_c, 0, 58, 58
1, 336989, Note_off_c, 0, 70, 54
1, 337032, Note_on_c, 0, 72, 63
1, 337034, Note_off_c, 0, 73, 60
1, 337172, Note_off_c, 0, 72, 58
1, 337231, Control_c, 0, 64, 91
1, 337232, Note_on_c, 0, 41, 41
1, 337235, Note_on_c, 0, 69, 54
1, 337246, Control_c, 0, 64, 63
1, 337261, Control_c, 0, 64, 29
1, 337276, Control_c, 0, 64, 19
1, 337305, Control_c, 0, 64, 42
1, 337320, Control_c, 0, 64, 61
1, 337330, Note_off_c, 0, 77, 42
1, 337333, Note_off_c, 0, 41, 65
1, 337335, Control_c, 0, 64, 70
1, 337350, Control_c, 0, 64, 83
1, 337365, Control_c, 0, 64, 127
1, 337451, Note_off_c, 0, 69, 57
1, 337657, Note_on_c, 0, 60, 41
1, 337659, Note_on_c, 0, 65, 39
1, 337660, Note_on_c, 0, 72, 61
1, 337708, Note_on_c, 0, 69, 11
1, 337754, Poly_aftertouch_c, 0, 77, 0
1, 337770, Note_off_c, 0, 60, 59
1, 337795, Note_off_c, 0, 65, 60
1, 337991, Note_off_c, 0, 69, 43
1, 338004, Note_on_c, 0, 65, 43
1, 338018, Note_on_c, 0, 77, 75
1, 338024, Note_on_c, 0, 60, 38
1, 338027, Note_on_c, 0, 57, 50
1, 338048, Note_off_c, 0, 65, 63
1, 338057, Note_off_c, 0, 60, 63
1, 338072, Note_off_c, 0, 57, 63
1, 338168, Note_off_c, 0, 72, 65
1, 338342, Note_on_c, 0, 53, 42
1, 338366, Control_c, 0, 64, 85
1, 338375, Note_on_c, 0, 76, 63
1, 338380, Control_c, 0, 64, 61
1, 338395, Control_c, 0, 64, 0
1, 338413, Note_off_c, 0, 77, 62
1, 338485, Control_c, 0, 64, 60
1, 338500, Control_c, 0, 64, 70
1, 338515, Control_c, 0, 64, 82
1, 338524, Note_off_c, 0, 53, 64
1, 338530, Control_c, 0, 64, 117
1, 338545, Control_c, 0, 64, 127
1, 338703, Note_on_c, 0, 70, 57
1, 338712, Note_on_c, 0, 61, 38
1, 338741, Note_on_c, 0, 67, 27
1, 338770, Note_on_c, 0, 64, 12
1, 338808, Note_off_c, 0, 61, 50
1, 338813, Note_off_c, 0, 76, 60
1, 338818, Note_off_c, 0, 64, 48
1, 338868, Note_off_c, 0, 67, 36
1, 339028, Note_on_c, 0, 61, 33
1, 339044, Note_on_c, 0, 58, 33
1, 339045, Note_on_c, 0, 73, 60
1, 339061, Note_on_c, 0, 64, 31
1, 339088, Note_off_c, 0, 58, 60
1, 339094, Note_off_c, 0, 64, 52
1, 339094, Note_off_c, 0, 61, 59
1, 339204, Note_off_c, 0, 70, 64
1, 339404, Control_c, 0, 64, 103
1, 339419, Control_c, 0, 64, 66
1, 339427, Note_on_c, 0, 41, 44
1, 339433, Control_c, 0, 64, 0
1, 339508, Control_c, 0, 64, 56
1, 339523, Control_c, 0, 64, 65
1, 339528, Note_off_c, 0, 41, 65
1, 339538, Control_c, 0, 64, 72
1, 339553, Control_c, 0, 64, 83
1, 339568, Control_c, 0, 64, 105
1, 339582, Control_c, 0, 64, 127
1, 339839, Note_on_c, 0, 72, 53
1, 339843, Note_on_c, 0, 65, 28
1, 339844, Note_on_c, 0, 60, 42
1, 339902, Poly_aftertouch_c, 0, 69, 127
1, 339943, Note_off_c, 0, 60, 58
1, 339948, Note_off_c, 0, 73, 65
1, 339985, Note_off_c, 0, 65, 47
1, 340095, Poly_aftertouch_c, 0, 69, 0
1, 340184, Note_on_c, 0, 65, 31
1, 340223, Note_on_c, 0, 57, 40
1, 340258, Note_off_c, 0, 65, 62
1, 340276, Note_off_c, 0, 57, 61
1, 340287, Note_on_c, 0, 77, 63
1, 340301, Poly_aftertouch_c, 0, 60, 0
1, 340388, Note_off_c, 0, 72, 65
1, 340569, Note_on_c, 0, 53, 42
1, 340569, Control_c, 0, 64, 89
1, 340583, Control_c, 0, 64, 67
1, 340598, Control_c, 0, 64, 50
1, 340613, Control_c, 0, 64, 47
1, 340628, Control_c, 0, 64, 51
1, 340643, Control_c, 0, 64, 59
1, 340657, Control_c, 0, 64, 65
1, 340672, Control_c, 0, 64, 71
1, 340687, Control_c, 0, 64, 80
1, 340702, Control_c, 0, 64, 91
1, 340716, Note_off_c, 0, 53, 63
1, 340717, Control_c, 0, 64, 103
1, 340731, Control_c, 0, 64, 118
1, 340746, Control_c, 0, 64, 127
1, 340769, Note_on_c, 0, 76, 49
1, 340929, Note_off_c, 0, 76, 60
1, 340955, Note_on_c, 0, 70, 50
1, 340969, Note_on_c, 0, 61, 27
1, 341022, Poly_aftertouch_c, 0, 67, 127
1, 341066, Poly_aftertouch_c, 0, 67, 0
1, 341067, Note_off_c, 0, 70, 61
1, 341094, Note_off_c, 0, 61, 36
1, 341098, Note_on_c, 0, 72, 59
1, 341246, Note_off_c, 0, 72, 59
1, 341246, Note_off_c, 0, 77, 61
1, 341254, Note_on_c, 0, 75, 61
1, 341258, Note_on_c, 0, 64, 28
1, 341263, Note_on_c, 0, 58, 43
1, 341285, Note_on_c, 0, 61, 13
1, 341291, Note_off_c, 0, 64, 53
1, 341305, Note_off_c, 0, 58, 61
1, 341329, Note_off_c, 0, 61, 41
1, 341383, Note_off_c, 0, 75, 59
1, 341413, Note_on_c, 0, 73, 50
1, 341558, Note_off_c, 0, 73, 56
1, 341591, Control_c, 0, 64, 84
1, 341607, Control_c, 0, 64, 64
1, 341610, Note_on_c, 0, 41, 50
1, 341621, Control_c, 0, 64, 31
1, 341636, Control_c, 0, 64, 28
1, 341651, Control_c, 0, 64, 33
1, 341666, Control_c, 0, 64, 52
1, 341681, Control_c, 0, 64, 62
1, 341696, Control_c, 0, 64, 69
1, 341710, Control_c, 0, 64, 79
1, 341717, Note_off_c, 0, 41, 65
1, 341725, Control_c, 0, 64, 109
1, 341740, Control_c, 0, 64, 127
1, 341949, Note_on_c, 0, 72, 58
1, 341972, Poly_aftertouch_c, 0, 77, 127
1, 341979, Note_on_c, 0, 66, 41
1, 341979, Note_on_c, 0, 63, 41
1, 342000, Note_on_c, 0, 60, 35
1, 342104, Note_on_c, 0, 73, 70
1, 342138, Note_off_c, 0, 60, 59
1, 342142, Note_off_c, 0, 63, 52
1, 342153, Note_off_c, 0, 72, 62
1, 342256, Note_on_c, 0, 72, 79
1, 342262, Note_on_c, 0, 54, 56
1, 342274, Note_on_c, 0, 58, 47
1, 342277, Note_on_c, 0, 63, 53
1, 342286, Note_off_c, 0, 73, 63
1, 342325, Note_off_c, 0, 58, 59
1, 342342, Note_off_c, 0, 66, 62
1, 342357, Note_off_c, 0, 54, 57
1, 342363, Poly_aftertouch_c, 0, 77, 0
1, 342365, Note_off_c, 0, 63, 57
1, 342396, Note_on_c, 0, 73, 80
1, 342435, Note_off_c, 0, 72, 59
1, 342550, Note_off_c, 0, 73, 62
1, 342580, Note_on_c, 0, 53, 49
1, 342581, Note_on_c, 0, 75, 74
1, 342593, Control_c, 0, 64, 96
1, 342607, Control_c, 0, 64, 65
1, 342622, Control_c, 0, 64, 0
1, 342696, Control_c, 0, 64, 53
1, 342711, Control_c, 0, 64, 67
1, 342712, Note_off_c, 0, 53, 64
1, 342725, Control_c, 0, 64, 78
1, 342740, Control_c, 0, 64, 115
1, 342755, Control_c, 0, 64, 127
1, 342815, Note_off_c, 0, 75, 58
1, 342940, Note_on_c, 0, 70, 47
1, 342941, Note_on_c, 0, 75, 68
1, 342956, Note_on_c, 0, 63, 46
1, 342975, Note_on_c, 0, 66, 39
1, 343068, Note_off_c, 0, 63, 53
1, 343086, Note_off_c, 0, 75, 60
1, 343116, Note_off_c, 0, 70, 33
1, 343118, Note_off_c, 0, 66, 34
1, 343288, Note_on_c, 0, 60, 41
1, 343306, Note_on_c, 0, 75, 60
1, 343306, Note_on_c, 0, 66, 30
1, 343330, Note_on_c, 0, 63, 4
1, 343340, Poly_aftertouch_c, 0, 77, 127
1, 343343, Note_off_c, 0, 66, 52
1, 343344, Note_off_c, 0, 60, 59
1, 343360, Note_off_c, 0, 63, 0
1, 343386, Poly_aftertouch_c, 0, 63, 0
1, 343398, Poly_aftertouch_c, 0, 77, 0
1, 343504, Note_off_c, 0, 75, 59
1, 343765, Note_on_c, 0, 75, 52
1, 343778, Note_on_c, 0, 41, 33
1, 343786, Control_c, 0, 64, 86
1, 343807, Control_c, 0, 64, 64
1, 343822, Control_c, 0, 64, 0
1, 343868, Control_c, 0, 64, 17
1, 343882, Control_c, 0, 64, 54
1, 343897, Control_c, 0, 64, 65
1, 343912, Control_c, 0, 64, 73
1, 343927, Control_c, 0, 64, 88
1, 343942, Control_c, 0, 64, 127
1, 343957, Note_off_c, 0, 41, 54
1, 344271, Note_on_c, 0, 77, 49
1, 344313, Note_on_c, 0, 63, 26
1, 344316, Note_on_c, 0, 69, 22
1, 344471, Note_off_c, 0, 75, 43
1, 344477, Note_off_c, 0, 63, 43
1, 344509, Note_on_c, 0, 72, 45
1, 344615, Note_off_c, 0, 69, 42
1, 344693, Note_on_c, 0, 57, 33
1, 344712, Note_off_c, 0, 72, 60
1, 344715, Note_on_c, 0, 75, 54
1, 344716, Note_on_c, 0, 63, 34
1, 344769, Poly_aftertouch_c, 0, 65, 127
1, 344802, Note_off_c, 0, 57, 57
1, 344805, Note_off_c, 0, 63, 53
1, 344811, Poly_aftertouch_c, 0, 65, 0
1, 344881, Note_on_c, 0, 73, 52
1, 345056, Note_off_c, 0, 75, 35
1, 345109, Note_on_c, 0, 70, 41
1, 345112, Note_on_c, 0, 46, 37
1, 345115, Note_off_c, 0, 73, 37
1, 345119, Control_c, 0, 64, 94
1, 345134, Control_c, 0, 64, 68
1, 345149, Control_c, 0, 64, 48
1, 345164, Control_c, 0, 64, 31
1, 345179, Control_c, 0, 64, 33
1, 345193, Control_c, 0, 64, 50
1, 345208, Control_c, 0, 64, 62
1, 345216, Note_off_c, 0, 77, 11
1, 345223, Control_c, 0, 64, 67
1, 345238, Control_c, 0, 64, 75
1, 345252, Control_c, 0, 64, 89
1, 345265, Note_off_c, 0, 46, 62
1, 345267, Control_c, 0, 64, 112
1, 345282, Control_c, 0, 64, 127
1, 345508, Note_on_c, 0, 65, 38
1, 345512, Note_on_c, 0, 61, 36
1, 345518, Note_on_c, 0, 58, 37
1, 345599, Note_off_c, 0, 58, 54
1, 345620, Note_off_c, 0, 61, 51
1, 345715, Note_off_c, 0, 65, 57
1, 345854, Note_on_c, 0, 61, 35
1, 345858, Note_on_c, 0, 58, 37
1, 345879, Note_on_c, 0, 53, 21
1, 345914, Note_off_c, 0, 58, 59
1, 345923, Note_off_c, 0, 61, 59
1, 345925, Note_off_c, 0, 53, 50
1, 346256, Note_on_c, 0, 67, 41
1, 346290, Note_on_c, 0, 48, 28
1, 346290, Control_c, 0, 64, 81
1, 346305, Control_c, 0, 64, 52
1, 346320, Control_c, 0, 64, 0
1, 346377, Note_off_c, 0, 70, 52
1, 346395, Control_c, 0, 64, 46
1, 346410, Control_c, 0, 64, 64
1, 346425, Control_c, 0, 64, 72
1, 346439, Control_c, 0, 64, 84
1, 346449, Note_off_c, 0, 48, 57
1, 346454, Control_c, 0, 64, 118
1, 346469, Control_c, 0, 64, 127
1, 346530, Poly_aftertouch_c, 0, 77, 127
1, 346702, Note_on_c, 0, 64, 31
1, 346704, Note_on_c, 0, 60, 27
1, 346707, Note_on_c, 0, 58, 31
1, 346766, Note_off_c, 0, 58, 57
1, 346773, Note_off_c, 0, 64, 57
1, 346799, Note_off_c, 0, 60, 59
1, 347106, Note_on_c, 0, 58, 29
1, 347118, Note_on_c, 0, 52, 34
1, 347121, Note_on_c, 0, 60, 23
1, 347214, Note_off_c, 0, 60, 59
1, 347228, Note_off_c, 0, 52, 58
1, 347252, Note_off_c, 0, 58, 35
1, 347671, Note_on_c, 0, 41, 39
1, 347729, Control_c, 0, 64, 87
1, 347744, Control_c, 0, 64, 65
1, 347759, Control_c, 0, 64, 31
1, 347774, Control_c, 0, 64, 0
1, 347803, Control_c, 0, 64, 34
1, 347818, Control_c, 0, 64, 58
1, 347833, Control_c, 0, 64, 66
1, 347847, Control_c, 0, 64, 74
1, 347862, Control_c, 0, 64, 86
1, 347877, Control_c, 0, 64, 101
1, 347892, Control_c, 0, 64, 127
1, 347919, Note_off_c, 0, 41, 44
1, 347925, Note_on_c, 0, 48, 39
1, 348033, Note_off_c, 0, 48, 54
1, 348111, Note_on_c, 0, 56, 42
1, 348115, Note_on_c, 0, 72, 61
1, 348152, Note_off_c, 0, 56, 62
1, 348192, Note_off_c, 0, 67, 60
1, 348232, Poly_aftertouch_c, 0, 77, 0
1, 348278, Note_on_c, 0, 53, 49
1, 348360, Note_off_c, 0, 53, 61
1, 348441, Note_on_c, 0, 77, 75
1, 348448, Note_on_c, 0, 60, 51
1, 348587, Note_on_c, 0, 68, 39
1, 348600, Note_off_c, 0, 60, 63
1, 348605, Note_off_c, 0, 72, 60
1, 348618, Note_off_c, 0, 68, 51
1, 348829, Note_on_c, 0, 41, 48
1, 348864, Control_c, 0, 64, 80
1, 348879, Control_c, 0, 64, 58
1, 348893, Control_c, 0, 64, 42
1, 348908, Control_c, 0, 64, 43
1, 348923, Control_c, 0, 64, 52
1, 348938, Control_c, 0, 64, 62
1, 348953, Control_c, 0, 64, 67
1, 348967, Control_c, 0, 64, 74
1, 348972, Note_on_c, 0, 76, 52
1, 348982, Control_c, 0, 64, 87
1, 348997, Control_c, 0, 64, 109
1, 349008, Note_off_c, 0, 41, 39
1, 349012, Control_c, 0, 64, 127
1, 349038, Note_on_c, 0, 49, 36
1, 349104, Note_off_c, 0, 49, 57
1, 349154, Note_on_c, 0, 55, 55
1, 349175, Note_off_c, 0, 76, 51
1, 349178, Note_on_c, 0, 69, 54
1, 349206, Note_off_c, 0, 55, 64
1, 349244, Note_off_c, 0, 69, 63
1, 349262, Note_on_c, 0, 70, 66
1, 349314, Note_on_c, 0, 52, 39
1, 349329, Note_off_c, 0, 70, 62
1, 349339, Note_on_c, 0, 71, 69
1, 349360, Note_off_c, 0, 52, 62
1, 349388, Note_on_c, 0, 58, 45
1, 349423, Note_off_c, 0, 58, 61
1, 349433, Note_on_c, 0, 72, 71
1, 349441, Note_off_c, 0, 77, 56
1, 349448, Note_off_c, 0, 71, 60
1, 349488, Note_on_c, 0, 67, 20
1, 349518, Note_on_c, 0, 75, 68
1, 349525, Note_off_c, 0, 67, 48
1, 349531, Note_off_c, 0, 72, 62
1, 349621, Note_off_c, 0, 75, 58
1, 349633, Note_on_c, 0, 73, 58
1, 349731, Control_c, 0, 64, 75
1, 349746, Control_c, 0, 64, 42
1, 349761, Control_c, 0, 64, 0
1, 349762, Note_on_c, 0, 41, 50
1, 349764, Note_off_c, 0, 73, 49
1, 349828, Control_c, 0, 64, 51
1, 349842, Control_c, 0, 64, 63
1, 349857, Control_c, 0, 64, 68
1, 349867, Note_off_c, 0, 41, 63
1, 349872, Control_c, 0, 64, 73
1, 349886, Note_on_c, 0, 48, 52
1, 349887, Control_c, 0, 64, 79
1, 349902, Control_c, 0, 64, 88
1, 349916, Control_c, 0, 64, 105
1, 349923, Note_on_c, 0, 72, 62
1, 349931, Control_c, 0, 64, 127
1, 349946, Note_off_c, 0, 48, 60
1, 349993, Note_on_c, 0, 56, 48
1, 350037, Note_off_c, 0, 56, 65
1, 350040, Note_on_c, 0, 73, 70
1, 350095, Note_off_c, 0, 73, 65
1, 350105, Note_on_c, 0, 71, 81
1, 350107, Note_off_c, 0, 72, 53
1, 350198, Note_on_c, 0, 60, 49
1, 350202, Note_on_c, 0, 72, 86
1, 350205, Note_off_c, 0, 71, 57
1, 350217, Poly_aftertouch_c, 0, 53, 0
1, 350296, Note_on_c, 0, 80, 86
1, 350307, Note_on_c, 0, 68, 54
1, 350321, Note_off_c, 0, 60, 62
1, 350330, Note_off_c, 0, 68, 59
1, 350342, Note_off_c, 0, 72, 62
1, 350362, Note_off_c, 0, 80, 67
1, 350385, Note_on_c, 0, 79, 71
1, 350456, Note_on_c, 0, 77, 82
1, 350477, Note_off_c, 0, 79, 65
1, 350518, Note_off_c, 0, 77, 62
1, 350603, Note_on_c, 0, 77, 59
1, 350608, Note_on_c, 0, 41, 52
1, 350621, Control_c, 0, 64, 98
1, 350636, Control_c, 0, 64, 66
1, 350644, Note_on_c, 0, 76, 16
1, 350645, Note_off_c, 0, 76, 127
1, 350651, Control_c, 0, 64, 0
1, 350710, Control_c, 0, 64, 50
1, 350725, Control_c, 0, 64, 63
1, 350739, Control_c, 0, 64, 69
1, 350754, Control_c, 0, 64, 78
1, 350759, Note_off_c, 0, 77, 61
1, 350766, Note_off_c, 0, 41, 57
1, 350769, Control_c, 0, 64, 88
1, 350770, Note_on_c, 0, 49, 48
1, 350774, Note_on_c, 0, 76, 66
1, 350784, Control_c, 0, 64, 100
1, 350799, Control_c, 0, 64, 116
1, 350813, Control_c, 0, 64, 127
1, 350838, Note_off_c, 0, 49, 56
1, 350895, Note_on_c, 0, 55, 46
1, 350898, Note_on_c, 0, 69, 56
1, 350928, Note_off_c, 0, 55, 63
1, 350943, Note_off_c, 0, 69, 60
1, 350979, Note_on_c, 0, 70, 64
1, 350979, Note_off_c, 0, 76, 60
1, 350980, Poly_aftertouch_c, 0, 77, 127
1, 351025, Note_off_c, 0, 70, 60
1, 351041, Note_on_c, 0, 71, 67
1, 351099, Note_on_c, 0, 58, 46
1, 351128, Note_off_c, 0, 58, 57
1, 351129, Note_on_c, 0, 72, 65
1, 351144, Note_off_c, 0, 71, 59
1, 351157, Poly_aftertouch_c, 0, 77, 0
1, 351175, Note_on_c, 0, 67, 40
1, 351205, Note_off_c, 0, 67, 54
1, 351240, Note_off_c, 0, 72, 61
1, 351245, Note_on_c, 0, 75, 58
1, 351325, Note_on_c, 0, 73, 60
1, 351353, Note_off_c, 0, 75, 55
1, 351369, Note_off_c, 0, 73, 59
1, 351458, Control_c, 0, 64, 82
1, 351473, Control_c, 0, 64, 63
1, 351484, Note_on_c, 0, 41, 53
1, 351488, Control_c, 0, 64, 26
1, 351503, Control_c, 0, 64, 0
1, 351533, Control_c, 0, 64, 32
1, 351548, Control_c, 0, 64, 56
1, 351562, Control_c, 0, 64, 64
1, 351577, Control_c, 0, 64, 69
1, 351592, Control_c, 0, 64, 76
1, 351607, Control_c, 0, 64, 83
1, 351622, Control_c, 0, 64, 92
1, 351636, Control_c, 0, 64, 104
1, 351640, Note_on_c, 0, 48, 52
1, 351643, Note_off_c, 0, 41, 58
1, 351651, Control_c, 0, 64, 127
1, 351708, Note_on_c, 0, 72, 60
1, 351780, Note_on_c, 0, 56, 39
1, 351819, Note_off_c, 0, 56, 64
1, 351834, Note_on_c, 0, 73, 66
1, 351843, Note_off_c, 0, 72, 61
1, 351912, Note_on_c, 0, 40, 56
1, 351921, Note_off_c, 0, 73, 61
1, 351922, Note_off_c, 0, 48, 59
1, 351924, Note_on_c, 0, 72, 72
1, 352007, Note_off_c, 0, 40, 61
1, 352016, Note_on_c, 0, 71, 78
1, 352017, Note_off_c, 0, 72, 61
1, 352037, Note_on_c, 0, 48, 59
1, 352097, Note_on_c, 0, 72, 77
1, 352104, Note_off_c, 0, 71, 62
1, 352138, Note_on_c, 0, 56, 51
1, 352179, Note_on_c, 0, 73, 81
1, 352183, Note_off_c, 0, 72, 66
1, 352186, Note_off_c, 0, 56, 63
1, 352243, Note_off_c, 0, 73, 66
1, 352277, Note_on_c, 0, 74, 80
1, 352324, Note_on_c, 0, 39, 61
1, 352341, Control_c, 0, 64, 91
1, 352356, Control_c, 0, 64, 65
1, 352357, Note_off_c, 0, 48, 52
1, 352371, Control_c, 0, 64, 37
1, 352385, Control_c, 0, 64, 28
1, 352396, Note_on_c, 0, 75, 80
1, 352400, Control_c, 0, 64, 35
1, 352415, Control_c, 0, 64, 54
1, 352430, Control_c, 0, 64, 65
1, 352441, Note_on_c, 0, 48, 43
1, 352445, Control_c, 0, 64, 73
1, 352448, Note_off_c, 0, 39, 61
1, 352459, Control_c, 0, 64, 86
1, 352474, Control_c, 0, 64, 111
1, 352489, Control_c, 0, 64, 127
1, 352504, Note_on_c, 0, 84, 88
1, 352510, Note_off_c, 0, 75, 62
1, 352511, Note_off_c, 0, 48, 63
1, 352528, Note_off_c, 0, 74, 62
1, 352549, Note_on_c, 0, 56, 54
1, 352596, Note_on_c, 0, 79, 76
1, 352601, Note_off_c, 0, 56, 62
1, 352645, Note_off_c, 0, 84, 57
1, 352680, Note_on_c, 0, 51, 37
1, 352683, Note_on_c, 0, 82, 79
1, 352696, Note_off_c, 0, 79, 64
1, 352721, Note_off_c, 0, 51, 49
1, 352744, Note_on_c, 0, 60, 59
1, 352754, Note_on_c, 0, 80, 76
1, 352788, Note_off_c, 0, 82, 64
1, 352823, Note_off_c, 0, 80, 65
1, 352845, Note_on_c, 0, 72, 78
1, 352871, Note_on_c, 0, 68, 52
1, 352883, Note_off_c, 0, 60, 60
1, 352893, Note_off_c, 0, 68, 58
1, 352904, Note_off_c, 0, 72, 58
1, 352911, Note_on_c, 0, 73, 75
1, 352976, Note_off_c, 0, 73, 63
1, 352994, Note_on_c, 0, 74, 74
1, 353072, Note_on_c, 0, 75, 73
1, 353089, Note_off_c, 0, 74, 59
1, 353130, Note_off_c, 0, 75, 63
1, 353146, Note_on_c, 0, 76, 71
1, 353149, Control_c, 0, 64, 74
1, 353150, Note_on_c, 0, 39, 52
1, 353164, Control_c, 0, 64, 28
1, 353178, Control_c, 0, 64, 0
1, 353238, Control_c, 0, 64, 26
1, 353253, Control_c, 0, 64, 62
1, 353258, Note_on_c, 0, 79, 65
1, 353265, Note_off_c, 0, 76, 60
1, 353267, Control_c, 0, 64, 69
1, 353280, Note_off_c, 0, 39, 60
1, 353282, Control_c, 0, 64, 76
1, 353292, Note_on_c, 0, 49, 38
1, 353297, Control_c, 0, 64, 83
1, 353312, Control_c, 0, 64, 89
1, 353326, Control_c, 0, 64, 96
1, 353327, Note_off_c, 0, 49, 57
1, 353341, Control_c, 0, 64, 107
1, 353356, Control_c, 0, 64, 127
1, 353366, Note_on_c, 0, 77, 69
1, 353380, Note_on_c, 0, 55, 47
1, 353405, Note_off_c, 0, 79, 35
1, 353438, Note_on_c, 0, 75, 67
1, 353446, Note_off_c, 0, 55, 57
1, 353464, Note_off_c, 0, 77, 57
1, 353539, Note_off_c, 0, 75, 59
1, 353550, Note_on_c, 0, 72, 62
1, 353587, Control_c, 0, 64, 94
1, 353602, Control_c, 0, 64, 71
1, 353617, Control_c, 0, 64, 61
1, 353626, Note_on_c, 0, 51, 6
1, 353632, Control_c, 0, 64, 58
1, 353646, Control_c, 0, 64, 62
1, 353661, Control_c, 0, 64, 66
1, 353661, Note_on_c, 0, 75, 68
1, 353664, Note_off_c, 0, 72, 62
1, 353676, Control_c, 0, 64, 73
1, 353691, Control_c, 0, 64, 84
1, 353706, Control_c, 0, 64, 100
1, 353720, Control_c, 0, 64, 127
1, 353733, Note_on_c, 0, 61, 42
1, 353747, Note_off_c, 0, 51, 41
1, 353772, Note_on_c, 0, 73, 66
1, 353795, Note_off_c, 0, 75, 54
1, 353818, Note_off_c, 0, 61, 55
1, 353889, Note_off_c, 0, 73, 58
1, 353949, Note_on_c, 0, 65, 48
1, 353985, Poly_aftertouch_c, 0, 70, 127
1, 354010, Poly_aftertouch_c, 0, 70, 0
1, 354050, Note_off_c, 0, 65, 62
1, 354079, Note_on_c, 0, 67, 59
1, 354174, Note_off_c, 0, 67, 62
1, 354231, Note_on_c, 0, 63, 58
1, 354350, Note_on_c, 0, 44, 46
1, 354424, Control_c, 0, 64, 121
1, 354439, Control_c, 0, 64, 88
1, 354454, Control_c, 0, 64, 68
1, 354469, Control_c, 0, 64, 52
1, 354478, Note_on_c, 0, 68, 60
1, 354484, Control_c, 0, 64, 39
1, 354490, Note_off_c, 0, 63, 56
1, 354499, Control_c, 0, 64, 42
1, 354513, Control_c, 0, 64, 54
1, 354528, Control_c, 0, 64, 63
1, 354543, Control_c, 0, 64, 69
1, 354558, Control_c, 0, 64, 77
1, 354573, Control_c, 0, 64, 93
1, 354587, Control_c, 0, 64, 127
1, 354590, Note_on_c, 0, 51, 51
1, 354613, Note_off_c, 0, 44, 57
1, 354672, Note_off_c, 0, 51, 62
1, 354740, Note_on_c, 0, 60, 58
1, 354796, Poly_aftertouch_c, 0, 71, 127
1, 354804, Note_off_c, 0, 60, 63
1, 354866, Note_on_c, 0, 51, 62
1, 354907, Note_off_c, 0, 68, 56
1, 354964, Note_off_c, 0, 51, 61
1, 354997, Note_on_c, 0, 60, 64
1, 355047, Poly_aftertouch_c, 0, 71, 0
1, 355107, Note_on_c, 0, 68, 59
1, 355122, Note_off_c, 0, 60, 62
1, 355139, Note_off_c, 0, 68, 63
1, 355294, Note_on_c, 0, 44, 70
1, 355321, Control_c, 0, 64, 84
1, 355335, Control_c, 0, 64, 75
1, 355365, Control_c, 0, 64, 78
1, 355380, Control_c, 0, 64, 89
1, 355395, Control_c, 0, 64, 127
1, 355432, Note_off_c, 0, 44, 62
1, 355435, Note_on_c, 0, 52, 74
1, 355525, Note_off_c, 0, 52, 63
1, 355563, Note_on_c, 0, 60, 78
1, 355643, Note_off_c, 0, 60, 61
1, 355683, Note_on_c, 0, 52, 74
1, 355778, Note_off_c, 0, 52, 64
1, 355806, Note_on_c, 0, 60, 70
1, 355955, Note_on_c, 0, 68, 77
1, 355980, Note_off_c, 0, 68, 68
1, 355989, Note_off_c, 0, 60, 65
1, 356262, Control_c, 0, 64, 75
1, 356268, Note_on_c, 0, 32, 74
1, 356277, Control_c, 0, 64, 40
1, 356292, Control_c, 0, 64, 0
1, 356321, Control_c, 0, 64, 51
1, 356336, Control_c, 0, 64, 70
1, 356338, Note_off_c, 0, 32, 62
1, 356350, Control_c, 0, 64, 98
1, 356365, Control_c, 0, 64, 127
1, 356528, Note_on_c, 0, 51, 69
1, 356727, Note_on_c, 0, 60, 59
1, 356748, Note_on_c, 0, 75, 87
1, 356779, Note_off_c, 0, 51, 53
1, 356886, Note_on_c, 0, 51, 82
1, 356986, Note_off_c, 0, 60, 0
1, 356986, Note_on_c, 0, 60, 23
1, 356990, Note_off_c, 0, 51, 62
1, 357036, Note_on_c, 0, 80, 84
1, 357080, Note_off_c, 0, 75, 63
1, 357166, Note_on_c, 0, 68, 66
1, 357186, Note_off_c, 0, 60, 56
1, 357191, Note_off_c, 0, 68, 63
1, 357353, Note_on_c, 0, 44, 68
1, 357388, Control_c, 0, 64, 87
1, 357403, Control_c, 0, 64, 36
1, 357418, Control_c, 0, 64, 0
1, 357432, Note_on_c, 0, 79, 76
1, 357477, Control_c, 0, 64, 64
1, 357492, Control_c, 0, 64, 81
1, 357507, Control_c, 0, 64, 127
1, 357518, Note_off_c, 0, 80, 51
1, 357534, Note_on_c, 0, 52, 61
1, 357537, Note_off_c, 0, 44, 61
1, 357557, Note_off_c, 0, 79, 62
1, 357598, Note_on_c, 0, 71, 72
1, 357621, Note_off_c, 0, 52, 62
1, 357653, Note_on_c, 0, 61, 57
1, 357684, Note_on_c, 0, 72, 75
1, 357693, Note_off_c, 0, 61, 59
1, 357695, Note_off_c, 0, 71, 60
1, 357751, Note_on_c, 0, 73, 77
1, 357759, Note_off_c, 0, 72, 64
1, 357811, Note_off_c, 0, 73, 65
1, 357827, Note_on_c, 0, 74, 81
1, 357864, Note_on_c, 0, 67, 63
1, 357887, Note_on_c, 0, 75, 78
1, 357902, Note_off_c, 0, 74, 59
1, 357945, Note_on_c, 0, 73, 61
1, 357953, Note_off_c, 0, 67, 63
1, 357964, Note_on_c, 0, 78, 81
1, 357971, Note_off_c, 0, 73, 66
1, 357993, Note_off_c, 0, 75, 60
1, 358046, Note_off_c, 0, 78, 66
1, 358071, Note_on_c, 0, 76, 77
1, 358149, Note_off_c, 0, 76, 64
1, 358196, Control_c, 0, 64, 81
1, 358210, Control_c, 0, 64, 45
1, 358212, Note_on_c, 0, 44, 70
1, 358225, Control_c, 0, 64, 0
1, 358262, Note_on_c, 0, 46, 20
1, 358270, Control_c, 0, 64, 12
1, 358285, Control_c, 0, 64, 57
1, 358300, Control_c, 0, 64, 68
1, 358305, Note_off_c, 0, 46, 45
1, 358315, Control_c, 0, 64, 77
1, 358324, Note_on_c, 0, 51, 71
1, 358329, Control_c, 0, 64, 92
1, 358344, Control_c, 0, 64, 127
1, 358353, Note_on_c, 0, 75, 81
1, 358364, Note_off_c, 0, 44, 60
1, 358410, Note_off_c, 0, 51, 64
1, 358454, Note_on_c, 0, 77, 83
1, 358480, Note_off_c, 0, 75, 57
1, 358531, Note_off_c, 0, 77, 63
1, 358535, Note_on_c, 0, 74, 79
1, 358568, Note_on_c, 0, 56, 47
1, 358610, Note_on_c, 0, 63, 59
1, 358610, Note_off_c, 0, 56, 61
1, 358616, Note_on_c, 0, 75, 85
1, 358658, Note_off_c, 0, 74, 60
1, 358659, Note_off_c, 0, 63, 49
1, 358714, Note_on_c, 0, 84, 92
1, 358755, Note_off_c, 0, 75, 61
1, 358800, Poly_aftertouch_c, 0, 72, 0
1, 358806, Note_on_c, 0, 82, 82
1, 358859, Note_off_c, 0, 84, 57
1, 358886, Note_on_c, 0, 81, 83
1, 358911, Note_off_c, 0, 82, 63
1, 358952, Note_off_c, 0, 81, 67
1, 358985, Note_on_c, 0, 44, 74
1, 359005, Control_c, 0, 64, 80
1, 359020, Control_c, 0, 64, 55
1, 359025, Note_on_c, 0, 80, 88
1, 359034, Control_c, 0, 64, 0
1, 359078, Control_c, 0, 64, 55
1, 359093, Control_c, 0, 64, 66
1, 359108, Control_c, 0, 64, 76
1, 359123, Control_c, 0, 64, 93
1, 359138, Control_c, 0, 64, 127
1, 359142, Note_on_c, 0, 79, 74
1, 359150, Note_off_c, 0, 80, 62
1, 359155, Note_on_c, 0, 52, 64
1, 359155, Note_off_c, 0, 44, 62
1, 359213, Note_off_c, 0, 52, 58
1, 359227, Note_off_c, 0, 79, 64
1, 359236, Note_on_c, 0, 71, 71
1, 359256, Note_on_c, 0, 61, 52
1, 359294, Note_off_c, 0, 61, 63
1, 359313, Note_on_c, 0, 72, 76
1, 359327, Note_off_c, 0, 71, 60
1, 359364, Note_on_c, 0, 73, 77
1, 359364, Note_off_c, 0, 72, 65
1, 359417, Note_off_c, 0, 73, 66
1, 359427, Note_on_c, 0, 67, 56
1, 359429, Note_on_c, 0, 74, 82
1, 359501, Note_on_c, 0, 75, 84
1, 359510, Note_off_c, 0, 74, 61
1, 359523, Note_on_c, 0, 73, 62
1, 359541, Note_off_c, 0, 67, 51
1, 359548, Note_off_c, 0, 73, 69
1, 359589, Note_on_c, 0, 78, 82
1, 359606, Note_off_c, 0, 75, 61
1, 359644, Note_off_c, 0, 78, 66
1, 359674, Note_on_c, 0, 76, 79
1, 359748, Note_off_c, 0, 76, 65
1, 359783, Control_c, 0, 64, 87
1, 359796, Note_on_c, 0, 44, 76
1, 359798, Control_c, 0, 64, 60
1, 359813, Control_c, 0, 64, 0
1, 359857, Control_c, 0, 64, 10
1, 359872, Control_c, 0, 64, 59
1, 359887, Control_c, 0, 64, 70
1, 359901, Control_c, 0, 64, 82
1, 359908, Note_on_c, 0, 51, 75
1, 359916, Control_c, 0, 64, 114
1, 359931, Control_c, 0, 64, 127
1, 359936, Note_off_c, 0, 44, 61
1, 359982, Note_off_c, 0, 51, 63
1, 359990, Note_on_c, 0, 75, 86
1, 360014, Note_on_c, 0, 60, 64
1, 360048, Note_off_c, 0, 60, 66
1, 360109, Note_on_c, 0, 77, 78
1, 360118, Note_off_c, 0, 75, 62
1, 360123, Note_on_c, 0, 56, 66
1, 360184, Note_on_c, 0, 75, 91
1, 360192, Note_off_c, 0, 56, 62
1, 360193, Note_off_c, 0, 77, 64
1, 360194, Note_on_c, 0, 63, 61
1, 360273, Note_on_c, 0, 71, 44
1, 360273, Note_off_c, 0, 63, 63
1, 360277, Note_on_c, 0, 74, 93
1, 360281, Note_off_c, 0, 75, 63
1, 360297, Note_off_c, 0, 71, 58
1, 360362, Note_on_c, 0, 75, 95
1, 360371, Note_off_c, 0, 74, 64
1, 360396, Poly_aftertouch_c, 0, 81, 0
1, 360438, Note_on_c, 0, 77, 97
1, 360448, Note_off_c, 0, 75, 65
1, 360523, Note_on_c, 0, 39, 76
1, 360530, Note_off_c, 0, 77, 65
1, 360587, Note_on_c, 0, 78, 99
1, 360591, Control_c, 0, 64, 72
1, 360606, Control_c, 0, 64, 0
1, 360665, Control_c, 0, 64, 30
1, 360680, Control_c, 0, 64, 61
1, 360695, Control_c, 0, 64, 69
1, 360701, Note_on_c, 0, 46, 62
1, 360710, Control_c, 0, 64, 82
1, 360724, Control_c, 0, 64, 127
1, 360739, Note_off_c, 0, 39, 60
1, 360744, Note_on_c, 0, 90, 94
1, 360799, Note_off_c, 0, 46, 62
1, 360803, Note_on_c, 0, 54, 62
1, 360824, Note_off_c, 0, 90, 63
1, 360833, Note_off_c, 0, 78, 62
1, 360841, Note_off_c, 0, 54, 66
1, 360881, Note_on_c, 0, 89, 89
1, 360917, Note_on_c, 0, 51, 59
1, 360971, Note_on_c, 0, 88, 85
1, 360972, Note_off_c, 0, 51, 61
1, 360975, Note_on_c, 0, 58, 73
1, 360989, Note_off_c, 0, 89, 61
1, 361046, Note_off_c, 0, 58, 63
1, 361049, Note_on_c, 0, 87, 85
1, 361078, Note_off_c, 0, 88, 64
1, 361101, Note_on_c, 0, 68, 38
1, 361113, Note_on_c, 0, 85, 86
1, 361135, Note_off_c, 0, 68, 48
1, 361151, Note_off_c, 0, 87, 64
1, 361164, Note_off_c, 0, 85, 65
1, 361170, Note_on_c, 0, 84, 80
1, 361230, Note_off_c, 0, 84, 60
1, 361251, Note_on_c, 0, 82, 82
1, 361305, Note_on_c, 0, 80, 77
1, 361311, Note_on_c, 0, 41, 67
1, 361325, Control_c, 0, 64, 91
1, 361338, Note_off_c, 0, 82, 63
1, 361340, Control_c, 0, 64, 64
1, 361355, Control_c, 0, 64, 0
1, 361361, Note_on_c, 0, 78, 83
1, 361391, Note_on_c, 0, 48, 62
1, 361393, Note_off_c, 0, 80, 64
1, 361400, Control_c, 0, 64, 45
1, 361404, Note_off_c, 0, 41, 63
1, 361414, Control_c, 0, 64, 63
1, 361428, Note_off_c, 0, 78, 64
1, 361429, Control_c, 0, 64, 69
1, 361434, Note_on_c, 0, 77, 78
1, 361438, Note_off_c, 0, 48, 62
1, 361444, Control_c, 0, 64, 78
1, 361459, Control_c, 0, 64, 94
1, 361471, Note_on_c, 0, 57, 54
1, 361474, Control_c, 0, 64, 119
1, 361485, Note_off_c, 0, 77, 65
1, 361489, Control_c, 0, 64, 127
1, 361494, Note_off_c, 0, 57, 58
1, 361511, Note_on_c, 0, 75, 80
1, 361572, Note_on_c, 0, 73, 74
1, 361608, Note_off_c, 0, 75, 62
1, 361632, Note_on_c, 0, 72, 83
1, 361644, Note_on_c, 0, 60, 32
1, 361644, Note_off_c, 0, 73, 65
1, 361682, Note_off_c, 0, 60, 44
1, 361701, Note_on_c, 0, 71, 75
1, 361701, Poly_aftertouch_c, 0, 61, 127
1, 361705, Note_off_c, 0, 72, 62
1, 361728, Poly_aftertouch_c, 0, 61, 0
1, 361735, Note_on_c, 0, 69, 24
1, 361752, Note_on_c, 0, 67, 12
1, 361781, Note_off_c, 0, 69, 53
1, 361784, Note_on_c, 0, 72, 75
1, 361801, Note_off_c, 0, 71, 59
1, 361805, Note_off_c, 0, 67, 41
1, 361860, Note_on_c, 0, 75, 78
1, 361889, Note_off_c, 0, 72, 60
1, 361957, Note_off_c, 0, 75, 61
1, 361964, Note_on_c, 0, 73, 64
1, 362072, Note_on_c, 0, 34, 48
1, 362081, Note_on_c, 0, 72, 65
1, 362096, Note_off_c, 0, 73, 57
1, 362103, Control_c, 0, 64, 91
1, 362118, Control_c, 0, 64, 64
1, 362133, Control_c, 0, 64, 14
1, 362148, Control_c, 0, 64, 0
1, 362192, Control_c, 0, 64, 54
1, 362207, Control_c, 0, 64, 66
1, 362222, Control_c, 0, 64, 73
1, 362224, Note_off_c, 0, 72, 60
1, 362228, Note_on_c, 0, 41, 49
1, 362233, Note_on_c, 0, 70, 59
1, 362237, Control_c, 0, 64, 82
1, 362251, Control_c, 0, 64, 93
1, 362266, Control_c, 0, 64, 106
1, 362281, Control_c, 0, 64, 127
1, 362309, Note_off_c, 0, 34, 35
1, 362314, Note_off_c, 0, 41, 60
1, 362352, Note_on_c, 0, 49, 47
1, 362380, Note_off_c, 0, 49, 58
1, 362530, Poly_aftertouch_c, 0, 49, 127
1, 362588, Poly_aftertouch_c, 0, 49, 0
1, 362633, Note_on_c, 0, 53, 57
1, 362805, Note_off_c, 0, 53, 61
1, 362870, Poly_aftertouch_c, 0, 61, 0
1, 363067, Note_on_c, 0, 42, 44
1, 363075, Control_c, 0, 64, 109
1, 363090, Control_c, 0, 64, 75
1, 363105, Control_c, 0, 64, 59
1, 363119, Control_c, 0, 64, 34
1, 363130, Note_off_c, 0, 70, 64
1, 363134, Control_c, 0, 64, 34
1, 363149, Control_c, 0, 64, 48
1, 363164, Control_c, 0, 64, 62
1, 363179, Control_c, 0, 64, 68
1, 363194, Control_c, 0, 64, 75
1, 363209, Control_c, 0, 64, 86
1, 363224, Control_c, 0, 64, 103
1, 363239, Control_c, 0, 64, 127
1, 363245, Note_off_c, 0, 42, 49
1, 363249, Note_on_c, 0, 49, 48
1, 363340, Note_off_c, 0, 49, 57
1, 363377, Note_on_c, 0, 73, 53
1, 363407, Note_on_c, 0, 58, 29
1, 363443, Note_off_c, 0, 58, 48
1, 363504, Note_on_c, 0, 75, 60
1, 363504, Note_off_c, 0, 73, 62
1, 363536, Note_on_c, 0, 54, 10
1, 363585, Note_off_c, 0, 54, 53
1, 363590, Note_off_c, 0, 75, 57
1, 363595, Note_on_c, 0, 61, 50
1, 363616, Note_on_c, 0, 73, 56
1, 363653, Note_off_c, 0, 61, 52
1, 363689, Note_off_c, 0, 73, 63
1, 363705, Note_on_c, 0, 72, 62
1, 363712, Note_on_c, 0, 70, 25
1, 363752, Note_off_c, 0, 70, 54
1, 363779, Note_off_c, 0, 72, 60
1, 363806, Note_on_c, 0, 73, 66
1, 363871, Note_off_c, 0, 73, 64
1, 363913, Note_on_c, 0, 75, 65
1, 364005, Note_off_c, 0, 75, 59
1, 364084, Note_on_c, 0, 77, 64
1, 364086, Note_on_c, 0, 37, 45
1, 364114, Control_c, 0, 64, 78
1, 364128, Control_c, 0, 64, 61
1, 364143, Control_c, 0, 64, 46
1, 364158, Control_c, 0, 64, 48
1, 364172, Control_c, 0, 64, 56
1, 364187, Control_c, 0, 64, 64
1, 364202, Control_c, 0, 64, 70
1, 364217, Control_c, 0, 64, 78
1, 364232, Note_off_c, 0, 37, 56
1, 364232, Control_c, 0, 64, 92
1, 364243, Note_on_c, 0, 44, 49
1, 364247, Control_c, 0, 64, 115
1, 364261, Control_c, 0, 64, 127
1, 364263, Note_on_c, 0, 89, 71
1, 364296, Note_off_c, 0, 44, 61
1, 364357, Note_on_c, 0, 53, 48
1, 364381, Note_on_c, 0, 84, 64
1, 364385, Note_off_c, 0, 89, 59
1, 364412, Note_off_c, 0, 53, 61
1, 364446, Note_off_c, 0, 84, 62
1, 364484, Note_on_c, 0, 87, 69
1, 364560, Note_on_c, 0, 85, 65
1, 364564, Note_on_c, 0, 56, 48
1, 364565, Note_on_c, 0, 49, 3
1, 364565, Note_off_c, 0, 87, 57
1, 364579, Note_off_c, 0, 49, 0
1, 364588, Note_off_c, 0, 77, 14
1, 364604, Poly_aftertouch_c, 0, 49, 0
1, 364613, Note_off_c, 0, 56, 60
1, 364630, Note_off_c, 0, 85, 61
1, 364636, Note_on_c, 0, 80, 62
1, 364679, Note_off_c, 0, 80, 59
1, 364721, Note_on_c, 0, 77, 66
1, 364725, Poly_aftertouch_c, 0, 65, 127
1, 364754, Poly_aftertouch_c, 0, 65, 0
1, 364756, Note_off_c, 0, 77, 62
1, 364806, Note_on_c, 0, 75, 62
1, 364881, Note_on_c, 0, 73, 62
1, 364888, Note_off_c, 0, 75, 55
1, 364937, Control_c, 0, 64, 84
1, 364940, Note_on_c, 0, 39, 49
1, 364951, Control_c, 0, 64, 66
1, 364953, Note_off_c, 0, 73, 63
1, 364966, Control_c, 0, 64, 56
1, 364981, Control_c, 0, 64, 57
1, 364995, Control_c, 0, 64, 61
1, 364996, Note_on_c, 0, 71, 53
1, 365010, Control_c, 0, 64, 67
1, 365025, Control_c, 0, 64, 75
1, 365033, Note_off_c, 0, 71, 65
1, 365040, Control_c, 0, 64, 89
1, 365055, Control_c, 0, 64, 127
1, 365059, Note_on_c, 0, 47, 47
1, 365072, Note_on_c, 0, 73, 61
1, 365099, Note_off_c, 0, 39, 53
1, 365109, Note_off_c, 0, 73, 64
1, 365135, Note_on_c, 0, 71, 57
1, 365168, Note_off_c, 0, 71, 66
1, 365189, Note_on_c, 0, 54, 43
1, 365198, Note_on_c, 0, 73, 52
1, 365236, Note_off_c, 0, 54, 57
1, 365237, Note_off_c, 0, 73, 65
1, 365250, Note_on_c, 0, 71, 68
1, 365270, Note_off_c, 0, 47, 33
1, 365313, Note_off_c, 0, 71, 59
1, 365335, Note_on_c, 0, 70, 58
1, 365386, Note_off_c, 0, 70, 59
1, 365436, Note_on_c, 0, 71, 67
1, 365440, Control_c, 0, 64, 95
1, 365444, Note_on_c, 0, 40, 44
1, 365455, Control_c, 0, 64, 71
1, 365469, Control_c, 0, 64, 54
1, 365484, Control_c, 0, 64, 49
1, 365499, Control_c, 0, 64, 53
1, 365503, Note_off_c, 0, 71, 62
1, 365521, Control_c, 0, 64, 60
1, 365536, Control_c, 0, 64, 66
1, 365543, Note_on_c, 0, 73, 59
1, 365551, Control_c, 0, 64, 71
1, 365567, Control_c, 0, 64, 81
1, 365582, Control_c, 0, 64, 92
1, 365597, Control_c, 0, 64, 110
1, 365598, Note_off_c, 0, 40, 52
1, 365612, Control_c, 0, 64, 127
1, 365617, Note_off_c, 0, 73, 54
1, 365624, Note_on_c, 0, 75, 68
1, 365628, Note_on_c, 0, 49, 47
1, 365680, Note_off_c, 0, 49, 58
1, 365692, Note_off_c, 0, 75, 59
1, 365713, Note_on_c, 0, 69, 63
1, 365729, Note_on_c, 0, 55, 45
1, 365788, Note_off_c, 0, 69, 55
1, 365794, Note_on_c, 0, 72, 60
1, 365800, Note_off_c, 0, 55, 50
1, 365861, Note_off_c, 0, 72, 63
1, 365877, Note_on_c, 0, 70, 64
1, 365933, Note_off_c, 0, 70, 61
1, 365952, Control_c, 0, 64, 82
1, 365963, Note_on_c, 0, 41, 50
1, 365967, Control_c, 0, 64, 63
1, 365975, Note_on_c, 0, 69, 51
1, 365981, Control_c, 0, 64, 44
1, 365996, Control_c, 0, 64, 40
1, 366011, Control_c, 0, 64, 45
1, 366026, Control_c, 0, 64, 60
1, 366041, Note_off_c, 0, 69, 62
1, 366041, Control_c, 0, 64, 67
1, 366056, Control_c, 0, 64, 74
1, 366071, Control_c, 0, 64, 86
1, 366073, Note_on_c, 0, 72, 68
1, 366085, Control_c, 0, 64, 108
1, 366095, Note_off_c, 0, 41, 60
1, 366100, Control_c, 0, 64, 127
1, 366102, Note_on_c, 0, 48, 52
1, 366142, Note_off_c, 0, 48, 62
1, 366153, Note_on_c, 0, 76, 51
1, 366188, Note_off_c, 0, 72, 61
1, 366203, Note_on_c, 0, 78, 76
1, 366216, Note_on_c, 0, 57, 50
1, 366235, Note_off_c, 0, 76, 64
1, 366247, Note_off_c, 0, 57, 65
1, 366268, Note_off_c, 0, 78, 64
1, 366298, Note_on_c, 0, 77, 76
1, 366353, Note_on_c, 0, 81, 68
1, 366372, Note_on_c, 0, 60, 61
1, 366385, Note_off_c, 0, 77, 54
1, 366407, Note_on_c, 0, 84, 80
1, 366408, Note_off_c, 0, 81, 63
1, 366419, Note_off_c, 0, 60, 63
1, 366453, Note_off_c, 0, 84, 63
1, 366488, Note_on_c, 0, 77, 79
1, 366564, Note_on_c, 0, 89, 77
1, 366575, Note_off_c, 0, 77, 58
1, 366632, Note_on_c, 0, 41, 65
1, 366640, Control_c, 0, 64, 76
1, 366642, Note_on_c, 0, 88, 68
1, 366649, Note_off_c, 0, 89, 62
1, 366655, Control_c, 0, 64, 61
1, 366670, Control_c, 0, 64, 53
1, 366685, Control_c, 0, 64, 56
1, 366700, Control_c, 0, 64, 63
1, 366708, Note_off_c, 0, 41, 65
1, 366709, Note_off_c, 0, 88, 65
1, 366711, Note_on_c, 0, 49, 56
1, 366714, Control_c, 0, 64, 71
1, 366729, Note_on_c, 0, 84, 75
1, 366729, Control_c, 0, 64, 83
1, 366744, Control_c, 0, 64, 127
1, 366786, Note_off_c, 0, 84, 62
1, 366792, Note_off_c, 0, 49, 61
1, 366805, Note_on_c, 0, 87, 78
1, 366811, Note_on_c, 0, 58, 56
1, 366840, Note_off_c, 0, 58, 65
1, 366876, Note_on_c, 0, 85, 75
1, 366906, Note_off_c, 0, 87, 58
1, 366928, Note_on_c, 0, 52, 40
1, 366947, Note_on_c, 0, 82, 62
1, 366964, Note_off_c, 0, 52, 59
1, 366967, Note_on_c, 0, 61, 64
1, 366967, Note_off_c, 0, 85, 62
1, 366981, Note_off_c, 0, 82, 66
1, 366996, Note_on_c, 0, 79, 76
1, 367028, Note_off_c, 0, 79, 71
1, 367034, Note_on_c, 0, 67, 55
1, 367036, Note_off_c, 0, 61, 58
1, 367055, Note_off_c, 0, 67, 62
1, 367086, Note_on_c, 0, 76, 74
1, 367144, Note_on_c, 0, 73, 76
1, 367151, Note_off_c, 0, 76, 66
1, 367191, Note_on_c, 0, 70, 74
1, 367204, Note_off_c, 0, 73, 62
1, 367243, Note_off_c, 0, 70, 64
1, 367254, Note_on_c, 0, 69, 85
1, 367257, Control_c, 0, 64, 92
1, 367261, Note_on_c, 0, 41, 78
1, 367271, Control_c, 0, 64, 47
1, 367286, Control_c, 0, 64, 0
1, 367322, Note_off_c, 0, 69, 58
1, 367327, Note_on_c, 0, 72, 77
1, 367336, Note_on_c, 0, 48, 67
1, 367345, Control_c, 0, 64, 52
1, 367353, Note_off_c, 0, 41, 64
1, 367360, Control_c, 0, 64, 68
1, 367375, Control_c, 0, 64, 82
1, 367389, Control_c, 0, 64, 127
1, 367394, Note_on_c, 0, 76, 48
1, 367400, Note_off_c, 0, 48, 64
1, 367427, Note_on_c, 0, 78, 86
1, 367430, Note_on_c, 0, 57, 68
1, 367436, Note_off_c, 0, 72, 65
1, 367453, Note_off_c, 0, 57, 67
1, 367458, Note_off_c, 0, 76, 65
1, 367471, Note_off_c, 0, 78, 67
1, 367499, Note_on_c, 0, 77, 89
1, 367535, Note_on_c, 0, 53, 48
1, 367546, Note_off_c, 0, 77, 64
1, 367552, Note_on_c, 0, 81, 86
1, 367570, Note_on_c, 0, 60, 70
1, 367593, Note_off_c, 0, 53, 60
1, 367610, Note_off_c, 0, 81, 64
1, 367623, Note_on_c, 0, 84, 71
1, 367627, Note_on_c, 0, 86, 68
1, 367643, Note_off_c, 0, 84, 65
1, 367645, Note_off_c, 0, 86, 66
1, 367654, Note_off_c, 0, 60, 64
1, 367663, Note_on_c, 0, 69, 70
1, 367691, Note_on_c, 0, 89, 101
1, 367761, Note_off_c, 0, 69, 60
1, 367796, Note_on_c, 0, 101, 98
1, 367812, Control_c, 0, 64, 112
1, 367817, Note_on_c, 0, 53, 76
1, 367827, Control_c, 0, 64, 72
1, 367836, Note_off_c, 0, 89, 62
1, 367842, Control_c, 0, 64, 56
1, 367856, Control_c, 0, 64, 52
1, 367871, Control_c, 0, 64, 58
1, 367886, Control_c, 0, 64, 67
1, 367889, Note_on_c, 0, 100, 84
1, 367901, Control_c, 0, 64, 87
1, 367916, Control_c, 0, 64, 127
1, 367922, Note_off_c, 0, 53, 64
1, 367932, Note_on_c, 0, 61, 70
1, 367934, Note_off_c, 0, 101, 64
1, 367966, Note_on_c, 0, 96, 91
1, 367976, Note_off_c, 0, 100, 67
1, 368003, Note_off_c, 0, 61, 60
1, 368026, Note_on_c, 0, 70, 80
1, 368044, Note_on_c, 0, 99, 96
1, 368053, Note_off_c, 0, 96, 66
1, 368074, Note_off_c, 0, 70, 65
1, 368111, Note_on_c, 0, 97, 78
1, 368152, Note_off_c, 0, 99, 65
1, 368165, Note_on_c, 0, 73, 79
1, 368167, Note_on_c, 0, 94, 94
1, 368208, Note_off_c, 0, 97, 64
1, 368223, Note_on_c, 0, 91, 89
1, 368225, Note_off_c, 0, 73, 64
1, 368235, Note_off_c, 0, 94, 64
1, 368247, Note_off_c, 0, 91, 68
1, 368264, Note_on_c, 0, 79, 77
1, 368285, Note_off_c, 0, 79, 70
1, 368295, Note_on_c, 0, 88, 85
1, 368348, Note_on_c, 0, 85, 82
1, 368367, Note_off_c, 0, 88, 66
1, 368391, Note_on_c, 0, 82, 80
1, 368421, Note_off_c, 0, 85, 64
1, 368446, Note_on_c, 0, 72, 90
1, 368450, Note_on_c, 0, 65, 78
1, 368450, Control_c, 0, 64, 75
1, 368452, Note_off_c, 0, 82, 65
1, 368453, Note_on_c, 0, 81, 88
1, 368465, Control_c, 0, 64, 17
1, 368479, Control_c, 0, 64, 0
1, 368520, Note_off_c, 0, 81, 66
1, 368531, Control_c, 0, 64, 53
1, 368532, Note_on_c, 0, 84, 85
1, 368546, Control_c, 0, 64, 70
1, 368560, Control_c, 0, 64, 86
1, 368575, Control_c, 0, 64, 127
1, 368588, Note_off_c, 0, 84, 62
1, 368592, Note_on_c, 0, 87, 87
1, 368654, Note_off_c, 0, 87, 64
1, 368661, Note_on_c, 0, 88, 75
1, 368697, Note_on_c, 0, 92, 70
1, 368724, Note_off_c, 0, 88, 67
1, 368775, Note_on_c, 0, 90, 81
1, 368815, Note_on_c, 0, 87, 80
1, 368831, Note_off_c, 0, 92, 64
1, 368840, Note_off_c, 0, 65, 58
1, 368842, Note_off_c, 0, 72, 63
1, 368865, Note_on_c, 0, 84, 86
1, 368870, Note_off_c, 0, 90, 60
1, 368894, Note_off_c, 0, 87, 62
1, 368909, Note_off_c, 0, 84, 63
1, 368920, Note_on_c, 0, 81, 77
1, 368944, Note_off_c, 0, 81, 70
1, 369014, Note_on_c, 0, 75, 77
1, 369065, Poly_aftertouch_c, 0, 79, 127
1, 369074, Note_on_c, 0, 73, 35
1, 369075, Note_off_c, 0, 73, 127
1, 369077, Note_off_c, 0, 75, 62
1, 369078, Note_on_c, 0, 72, 70
1, 369101, Poly_aftertouch_c, 0, 79, 0
1, 369102, Note_off_c, 0, 72, 68
1, 369104, Poly_aftertouch_c, 0, 73, 0
1, 369107, Note_on_c, 0, 69, 84
1, 369123, Control_c, 0, 64, 109
1, 369132, Note_on_c, 0, 63, 69
1, 369138, Control_c, 0, 64, 72
1, 369148, Note_on_c, 0, 60, 52
1, 369153, Control_c, 0, 64, 57
1, 369160, Note_off_c, 0, 69, 61
1, 369168, Control_c, 0, 64, 53
1, 369170, Note_on_c, 0, 70, 83
1, 369183, Control_c, 0, 64, 57
1, 369198, Control_c, 0, 64, 63
1, 369208, Note_on_c, 0, 62, 74
1, 369213, Control_c, 0, 64, 70
1, 369218, Note_off_c, 0, 70, 65
1, 369227, Control_c, 0, 64, 81
1, 369231, Note_off_c, 0, 63, 56
1, 369241, Note_on_c, 0, 71, 81
1, 369241, Note_off_c, 0, 60, 48
1, 369242, Control_c, 0, 64, 102
1, 369264, Control_c, 0, 64, 127
1, 369296, Note_on_c, 0, 72, 79
1, 369300, Note_off_c, 0, 62, 54
1, 369302, Note_off_c, 0, 71, 64
1, 369333, Note_on_c, 0, 61, 64
1, 369339, Note_off_c, 0, 72, 63
1, 369360, Note_on_c, 0, 73, 82
1, 369412, Note_off_c, 0, 73, 66
1, 369426, Note_on_c, 0, 70, 80
1, 369427, Control_c, 0, 64, 81
1, 369436, Note_off_c, 0, 61, 0
1, 369442, Control_c, 0, 64, 65
1, 369452, Note_on_c, 0, 61, 24
1, 369457, Note_off_c, 0, 70, 65
1, 369457, Control_c, 0, 64, 62
1, 369465, Note_on_c, 0, 67, 72
1, 369465, Note_on_c, 0, 69, 74
1, 369466, Note_on_c, 0, 65, 84
1, 369472, Control_c, 0, 64, 65
1, 369474, Note_on_c, 0, 60, 72
1, 369487, Control_c, 0, 64, 71
1, 369499, Note_off_c, 0, 61, 63
1, 369502, Control_c, 0, 64, 85
1, 369515, Note_off_c, 0, 60, 63
1, 369516, Control_c, 0, 64, 127
1, 369520, Note_off_c, 0, 67, 60
1, 369536, Note_on_c, 0, 72, 78
1, 369544, Note_off_c, 0, 69, 61
1, 369603, Note_off_c, 0, 72, 65
1, 369612, Note_on_c, 0, 75, 89
1, 369696, Note_off_c, 0, 75, 54
1, 369700, Note_on_c, 0, 76, 86
1, 369708, Note_on_c, 0, 53, 78
1, 369710, Control_c, 0, 64, 99
1, 369715, Note_on_c, 0, 63, 82
1, 369724, Control_c, 0, 64, 65
1, 369739, Control_c, 0, 64, 0
1, 369758, Note_on_c, 0, 80, 73
1, 369761, Note_off_c, 0, 76, 68
1, 369799, Control_c, 0, 64, 45
1, 369813, Control_c, 0, 64, 66
1, 369826, Note_on_c, 0, 78, 81
1, 369828, Control_c, 0, 64, 76
1, 369829, Note_off_c, 0, 65, 48
1, 369843, Control_c, 0, 64, 90
1, 369857, Control_c, 0, 64, 105
1, 369863, Note_on_c, 0, 75, 85
1, 369869, Note_off_c, 0, 80, 64
1, 369872, Control_c, 0, 64, 127
1, 369916, Note_off_c, 0, 78, 63
1, 369917, Note_on_c, 0, 72, 81
1, 369927, Note_off_c, 0, 63, 65
1, 369956, Note_off_c, 0, 75, 62
1, 369965, Note_off_c, 0, 72, 63
1, 369975, Note_on_c, 0, 69, 83
1, 369985, Note_off_c, 0, 53, 63
1, 370007, Note_off_c, 0, 69, 68
1, 370065, Note_on_c, 0, 67, 65
1, 370079, Note_on_c, 0, 63, 72
1, 370113, Note_off_c, 0, 67, 59
1, 370118, Note_on_c, 0, 61, 80
1, 370137, Note_off_c, 0, 63, 63
1, 370165, Note_off_c, 0, 61, 64
1, 370183, Note_on_c, 0, 57, 73
1, 370198, Note_on_c, 0, 59, 55
1, 370215, Note_on_c, 0, 51, 71
1, 370216, Note_off_c, 0, 57, 63
1, 370223, Note_off_c, 0, 59, 58
1, 370238, Note_on_c, 0, 48, 53
1, 370238, Note_on_c, 0, 58, 83
1, 370287, Note_off_c, 0, 58, 65
1, 370299, Note_on_c, 0, 50, 65
1, 370302, Note_on_c, 0, 59, 79
1, 370306, Note_off_c, 0, 51, 57
1, 370314, Note_on_c, 0, 52, 57
1, 370323, Note_off_c, 0, 48, 59
1, 370338, Note_off_c, 0, 52, 59
1, 370358, Note_off_c, 0, 59, 59
1, 370372, Note_on_c, 0, 60, 75
1, 370373, Note_off_c, 0, 50, 60
1, 370384, Control_c, 0, 64, 116
1, 370385, Note_on_c, 0, 49, 63
1, 370399, Control_c, 0, 64, 108
1, 370414, Control_c, 0, 64, 101
1, 370415, Note_off_c, 0, 60, 61
1, 370417, Note_off_c, 0, 49, 67
1, 370429, Control_c, 0, 64, 95
1, 370430, Note_on_c, 0, 61, 83
1, 370444, Control_c, 0, 64, 94
1, 370474, Control_c, 0, 64, 95
1, 370488, Control_c, 0, 64, 99
1, 370489, Note_off_c, 0, 61, 61
1, 370497, Note_on_c, 0, 58, 83
1, 370503, Control_c, 0, 64, 114
1, 370518, Control_c, 0, 64, 127
1, 370533, Control_c, 0, 64, 107
1, 370548, Control_c, 0, 64, 83
1, 370559, Note_off_c, 0, 58, 64
1, 370562, Control_c, 0, 64, 63
1, 370566, Note_on_c, 0, 57, 75
1, 370566, Note_on_c, 0, 41, 61
1, 370577, Note_on_c, 0, 48, 67
1, 370577, Control_c, 0, 64, 0
1, 370582, Note_on_c, 0, 53, 84
1, 370629, Note_off_c, 0, 57, 60
1, 370638, Note_on_c, 0, 58, 74
1, 370663, Note_off_c, 0, 48, 64
1, 370688, Note_off_c, 0, 41, 61
1, 370692, Note_off_c, 0, 58, 64
1, 370706, Note_on_c, 0, 59, 71
1, 370775, Note_on_c, 0, 60, 74
1, 370780, Note_off_c, 0, 59, 62
1, 370807, Note_on_c, 0, 52, 67
1, 370814, Note_on_c, 0, 49, 66
1, 370822, Note_off_c, 0, 60, 62
1, 370843, Note_on_c, 0, 61, 73
1, 370855, Note_off_c, 0, 53, 55
1, 370888, Note_off_c, 0, 61, 59
1, 370905, Note_on_c, 0, 58, 75
1, 370961, Note_off_c, 0, 58, 64
1, 370970, Control_c, 0, 64, 8
1, 370975, Note_on_c, 0, 57, 79
1, 370985, Control_c, 0, 64, 10
1, 370989, Note_on_c, 0, 53, 74
1, 371004, Note_on_c, 0, 48, 67
1, 371005, Note_off_c, 0, 49, 61
1, 371018, Note_off_c, 0, 52, 60
1, 371031, Note_off_c, 0, 57, 63
1, 371040, Note_on_c, 0, 58, 71
1, 371074, Control_c, 0, 64, 0
1, 371100, Note_off_c, 0, 58, 64
1, 371118, Note_on_c, 0, 59, 70
1, 371180, Note_off_c, 0, 59, 59
1, 371185, Note_on_c, 0, 60, 65
1, 371197, Note_on_c, 0, 52, 69
1, 371199, Note_on_c, 0, 49, 67
1, 371199, Note_off_c, 0, 48, 65
1, 371230, Note_off_c, 0, 60, 63
1, 371240, Note_off_c, 0, 53, 56
1, 371254, Note_on_c, 0, 61, 68
1, 371306, Note_off_c, 0, 61, 59
1, 371325, Note_on_c, 0, 58, 65
1, 371386, Note_off_c, 0, 58, 64
1, 371386, Control_c, 0, 64, 20
1, 371400, Note_on_c, 0, 57, 72
1, 371401, Control_c, 0, 64, 38
1, 371404, Note_off_c, 0, 49, 60
1, 371405, Note_on_c, 0, 53, 69
1, 371415, Note_on_c, 0, 48, 66
1, 371416, Control_c, 0, 64, 49
1, 371418, Note_off_c, 0, 52, 61
1, 371430, Control_c, 0, 64, 56
1, 371445, Control_c, 0, 64, 61
1, 371447, Note_off_c, 0, 57, 60
1, 371460, Control_c, 0, 64, 63
1, 371466, Note_on_c, 0, 58, 65
1, 371475, Control_c, 0, 64, 65
1, 371490, Control_c, 0, 64, 67
1, 371511, Control_c, 0, 64, 69
1, 371526, Control_c, 0, 64, 71
1, 371532, Note_off_c, 0, 58, 63
1, 371541, Control_c, 0, 64, 74
1, 371547, Note_on_c, 0, 59, 68
1, 371556, Control_c, 0, 64, 77
1, 371571, Control_c, 0, 64, 81
1, 371586, Control_c, 0, 64, 85
1, 371600, Control_c, 0, 64, 91
1, 371605, Note_off_c, 0, 53, 64
1, 371611, Note_off_c, 0, 59, 61
1, 371615, Control_c, 0, 64, 103
1, 371618, Note_on_c, 0, 60, 67
1, 371622, Note_on_c, 0, 49, 73
1, 371625, Note_on_c, 0, 52, 68
1, 371630, Control_c, 0, 64, 127
1, 371634, Note_off_c, 0, 48, 64
1, 371649, Note_off_c, 0, 52, 68
1, 371667, Note_off_c, 0, 49, 64
1, 371680, Note_off_c, 0, 60, 63
1, 371687, Note_on_c, 0, 61, 73
1, 371767, Note_off_c, 0, 61, 59
1, 371779, Note_on_c, 0, 58, 72
1, 371901, Note_off_c, 0, 58, 62
1, 371904, Note_on_c, 0, 41, 60
1, 371916, Note_on_c, 0, 51, 78
1, 371941, Control_c, 0, 64, 87
1, 371957, Control_c, 0, 64, 64
1, 371960, Note_on_c, 0, 57, 59
1, 371972, Control_c, 0, 64, 0
1, 372046, Control_c, 0, 64, 38
1, 372058, Note_on_c, 0, 60, 68
1, 372060, Control_c, 0, 64, 52
1, 372075, Control_c, 0, 64, 55
1, 372079, Note_off_c, 0, 57, 63
1, 372090, Control_c, 0, 64, 56
1, 372120, Control_c, 0, 64, 57
1, 372132, Note_off_c, 0, 60, 63
1, 372134, Control_c, 0, 64, 59
1, 372143, Note_on_c, 0, 63, 66
1, 372149, Control_c, 0, 64, 63
1, 372164, Control_c, 0, 64, 66
1, 372179, Control_c, 0, 64, 72
1, 372182, Note_off_c, 0, 63, 64
1, 372194, Control_c, 0, 64, 80
1, 372209, Control_c, 0, 64, 93
1, 372223, Control_c, 0, 64, 123
1, 372235, Note_on_c, 0, 65, 73
1, 372238, Control_c, 0, 64, 127
1, 372304, Note_on_c, 0, 72, 60
1, 372318, Note_off_c, 0, 65, 58
1, 372371, Note_off_c, 0, 72, 63
1, 372384, Note_on_c, 0, 68, 68
1, 372445, Note_off_c, 0, 68, 62
1, 372453, Note_on_c, 0, 67, 72
1, 372467, Control_c, 0, 64, 110
1, 372482, Control_c, 0, 64, 98
1, 372497, Control_c, 0, 64, 91
1, 372512, Control_c, 0, 64, 87
1, 372516, Note_off_c, 0, 67, 63
1, 372519, Note_on_c, 0, 66, 66
1, 372526, Control_c, 0, 64, 84
1, 372541, Control_c, 0, 64, 82
1, 372556, Control_c, 0, 64, 80
1, 372560, Note_on_c, 0, 65, 69
1, 372568, Note_off_c, 0, 66, 60
1, 372571, Control_c, 0, 64, 78
1, 372585, Control_c, 0, 64, 77
1, 372597, Note_off_c, 0, 65, 63
1, 372600, Control_c, 0, 64, 76
1, 372615, Control_c, 0, 64, 75
1, 372626, Note_on_c, 0, 64, 71
1, 372630, Control_c, 0, 64, 75
1, 372645, Control_c, 0, 64, 74
1, 372659, Note_off_c, 0, 64, 63
1, 372659, Control_c, 0, 64, 74
1, 372674, Control_c, 0, 64, 73
1, 372688, Note_on_c, 0, 63, 67
1, 372689, Control_c, 0, 64, 73
1, 372739, Note_off_c, 0, 63, 62
1, 372751, Note_on_c, 0, 62, 65
1, 372764, Control_c, 0, 64, 72
1, 372798, Note_off_c, 0, 62, 57
1, 372810, Note_on_c, 0, 61, 68
1, 372849, Note_off_c, 0, 61, 60
1, 372868, Control_c, 0, 64, 72
1, 372879, Note_on_c, 0, 60, 30
1, 372897, Control_c, 0, 64, 71
1, 372910, Note_on_c, 0, 59, 48
1, 372912, Note_off_c, 0, 60, 43
1, 372912, Control_c, 0, 64, 71
1, 372942, Control_c, 0, 64, 70
1, 372957, Control_c, 0, 64, 70
1, 372966, Note_off_c, 0, 59, 64
1, 372978, Note_on_c, 0, 58, 61
1, 372987, Control_c, 0, 64, 69
1, 373043, Note_off_c, 0, 58, 63
1, 373058, Note_on_c, 0, 57, 66
1, 373091, Note_off_c, 0, 57, 66
1, 373097, Control_c, 0, 64, 70
1, 373112, Control_c, 0, 64, 70
1, 373122, Note_on_c, 0, 56, 63
1, 373127, Control_c, 0, 64, 71
1, 373142, Control_c, 0, 64, 72
1, 373156, Control_c, 0, 64, 72
1, 373160, Note_off_c, 0, 56, 66
1, 373171, Control_c, 0, 64, 73
1, 373183, Note_on_c, 0, 55, 62
1, 373186, Control_c, 0, 64, 73
1, 373201, Control_c, 0, 64, 74
1, 373216, Control_c, 0, 64, 74
1, 373225, Note_off_c, 0, 55, 58
1, 373231, Control_c, 0, 64, 75
1, 373243, Note_on_c, 0, 54, 58
1, 373246, Note_off_c, 0, 51, 61
1, 373261, Control_c, 0, 64, 75
1, 373279, Note_off_c, 0, 54, 65
1, 373290, Note_on_c, 0, 53, 60
1, 373320, Control_c, 0, 64, 75
1, 373326, Note_off_c, 0, 41, 62
1, 373335, Note_off_c, 0, 53, 62
1, 373335, Control_c, 0, 64, 74
1, 373349, Control_c, 0, 64, 74
1, 373364, Control_c, 0, 64, 73
1, 373371, Note_on_c, 0, 52, 58
1, 373379, Control_c, 0, 64, 72
1, 373394, Control_c, 0, 64, 72
1, 373403, Note_off_c, 0, 52, 62
1, 373423, Control_c, 0, 64, 71
1, 373438, Note_on_c, 0, 51, 62
1, 373438, Control_c, 0, 64, 71
1, 373481, Note_off_c, 0, 51, 65
1, 373507, Note_on_c, 0, 50, 62
1, 373512, Control_c, 0, 64, 70
1, 373556, Note_off_c, 0, 50, 60
1, 373558, Control_c, 0, 64, 70
1, 373570, Note_on_c, 0, 49, 56
1, 373602, Control_c, 0, 64, 69
1, 373615, Note_off_c, 0, 49, 61
1, 373626, Note_on_c, 0, 48, 59
1, 373632, Control_c, 0, 64, 69
1, 373660, Note_off_c, 0, 48, 62
1, 373676, Control_c, 0, 64, 68
1, 373705, Note_on_c, 0, 47, 60
1, 373720, Control_c, 0, 64, 68
1, 373735, Control_c, 0, 67, 16
1, 373753, Note_off_c, 0, 47, 62
1, 373758, Control_c, 0, 64, 67
1, 373758, Control_c, 0, 67, 30
1, 373772, Control_c, 0, 67, 42
1, 373787, Control_c, 0, 67, 51
1, 373788, Note_on_c, 0, 46, 53
1, 373802, Control_c, 0, 67, 57
1, 373817, Control_c, 0, 67, 65
1, 373831, Control_c, 0, 64, 67
1, 373831, Control_c, 0, 67, 77
1, 373836, Note_off_c, 0, 46, 64
1, 373846, Control_c, 0, 67, 92
1, 373857, Note_on_c, 0, 45, 57
1, 373861, Control_c, 0, 64, 66
1, 373861, Control_c, 0, 67, 105
1, 373876, Control_c, 0, 67, 119
1, 373891, Control_c, 0, 67, 127
1, 373896, Note_off_c, 0, 45, 64
1, 373940, Note_on_c, 0, 44, 55
1, 373965, Control_c, 0, 64, 66
1, 374002, Note_off_c, 0, 44, 61
1, 374025, Note_on_c, 0, 43, 51
1, 374092, Note_off_c, 0, 43, 58
1, 374110, Note_on_c, 0, 42, 54
1, 374113, Control_c, 0, 64, 66
1, 374143, Control_c, 0, 64, 67
1, 374158, Control_c, 0, 64, 67
1, 374167, Note_off_c, 0, 42, 61
1, 374170, Note_on_c, 0, 41, 53
1, 374224, Note_off_c, 0, 41, 59
1, 374288, Note_on_c, 0, 40, 34
1, 374305, Control_c, 0, 64, 67
1, 374325, Note_off_c, 0, 40, 56
1, 374361, Note_on_c, 0, 39, 42
1, 374395, Control_c, 0, 64, 66
1, 374426, Note_off_c, 0, 39, 56
1, 374504, Note_on_c, 0, 38, 28
1, 374507, Control_c, 0, 64, 66
1, 374744, Control_c, 0, 64, 66
1, 374774, Control_c, 0, 64, 66
1, 374779, Note_on_c, 0, 37, 33
1, 374784, Note_off_c, 0, 38, 55
1, 374789, Control_c, 0, 64, 61
1, 374803, Control_c, 0, 64, 33
1, 374818, Control_c, 0, 64, 0
1, 374892, Control_c, 0, 64, 17
1, 374907, Control_c, 0, 64, 42
1, 374921, Control_c, 0, 64, 54
1, 374936, Control_c, 0, 64, 60
1, 374951, Control_c, 0, 64, 64
1, 374951, Control_c, 0, 67, 112
1, 374966, Control_c, 0, 64, 68
1, 374966, Control_c, 0, 67, 89
1, 374981, Control_c, 0, 64, 72
1, 374981, Control_c, 0, 67, 57
1, 374996, Control_c, 0, 64, 77
1, 374996, Control_c, 0, 67, 24
1, 375011, Control_c, 0, 64, 84
1, 375011, Control_c, 0, 67, 0
1, 375025, Control_c, 0, 64, 98
1, 375040, Control_c, 0, 64, 127
1, 375157, Note_on_c, 0, 44, 32
1, 375163, Note_off_c, 0, 37, 39
1, 375255, Note_off_c, 0, 44, 47
1, 375289, Note_on_c, 0, 46, 30
1, 375338, Note_off_c, 0, 46, 55
1, 375405, Note_on_c, 0, 48, 39
1, 375464, Note_off_c, 0, 48, 57
1, 375514, Note_on_c, 0, 49, 23
1, 375554, Note_on_c, 0, 51, 49
1, 375556, Note_off_c, 0, 49, 51
1, 375594, Note_off_c, 0, 51, 62
1, 375637, Note_on_c, 0, 77, 64
1, 375660, Note_on_c, 0, 53, 46
1, 375725, Poly_aftertouch_c, 0, 65, 127
1, 375738, Note_off_c, 0, 53, 44
1, 375739, Note_off_c, 0, 77, 58
1, 375762, Poly_aftertouch_c, 0, 65, 0
1, 375768, Note_on_c, 0, 54, 48
1, 375859, Note_off_c, 0, 54, 60
1, 375902, Note_on_c, 0, 56, 45
1, 375938, Control_c, 0, 64, 110
1, 375953, Control_c, 0, 64, 78
1, 375967, Control_c, 0, 64, 63
1, 375982, Control_c, 0, 64, 51
1, 376005, Control_c, 0, 64, 48
1, 376009, Note_on_c, 0, 77, 69
1, 376020, Control_c, 0, 64, 52
1, 376035, Control_c, 0, 64, 61
1, 376047, Note_on_c, 0, 68, 44
1, 376049, Control_c, 0, 64, 66
1, 376050, Note_on_c, 0, 65, 48
1, 376064, Control_c, 0, 64, 71
1, 376065, Note_off_c, 0, 56, 59
1, 376079, Control_c, 0, 64, 77
1, 376094, Control_c, 0, 64, 85
1, 376098, Note_on_c, 0, 58, 48
1, 376108, Control_c, 0, 64, 92
1, 376123, Control_c, 0, 64, 97
1, 376138, Control_c, 0, 64, 101
1, 376148, Note_off_c, 0, 58, 62
1, 376153, Control_c, 0, 64, 104
1, 376168, Control_c, 0, 64, 109
1, 376182, Control_c, 0, 64, 127
1, 376194, Note_on_c, 0, 56, 51
1, 376215, Note_off_c, 0, 65, 50
1, 376235, Note_off_c, 0, 56, 64
1, 376302, Note_on_c, 0, 60, 56
1, 376308, Note_off_c, 0, 68, 54
1, 376332, Poly_aftertouch_c, 0, 58, 0
1, 376343, Note_off_c, 0, 60, 59
1, 376350, Poly_aftertouch_c, 0, 76, 127
1, 376424, Note_on_c, 0, 63, 52
1, 376463, Poly_aftertouch_c, 0, 61, 0
1, 376478, Note_off_c, 0, 63, 55
1, 376531, Note_on_c, 0, 65, 30
1, 376564, Note_off_c, 0, 65, 52
1, 376614, Poly_aftertouch_c, 0, 76, 0
1, 376844, Poly_aftertouch_c, 0, 75, 127
1, 376942, Note_on_c, 0, 37, 46
1, 376975, Control_c, 0, 64, 84
1, 376990, Control_c, 0, 64, 65
1, 377004, Control_c, 0, 64, 47
1, 377009, Note_on_c, 0, 73, 60
1, 377019, Control_c, 0, 64, 34
1, 377029, Note_on_c, 0, 65, 37
1, 377034, Control_c, 0, 64, 37
1, 377048, Control_c, 0, 64, 53
1, 377063, Control_c, 0, 64, 63
1, 377078, Control_c, 0, 64, 69
1, 377093, Control_c, 0, 64, 76
1, 377108, Control_c, 0, 64, 90
1, 377111, Note_on_c, 0, 44, 40
1, 377122, Control_c, 0, 64, 108
1, 377137, Control_c, 0, 64, 127
1, 377162, Note_off_c, 0, 37, 35
1, 377169, Note_off_c, 0, 44, 60
1, 377190, Note_on_c, 0, 46, 40
1, 377221, Note_off_c, 0, 46, 56
1, 377229, Note_off_c, 0, 65, 35
1, 377240, Note_on_c, 0, 48, 51
1, 377292, Note_off_c, 0, 48, 58
1, 377339, Note_on_c, 0, 49, 50
1, 377371, Note_off_c, 0, 49, 64
1, 377442, Note_on_c, 0, 50, 38
1, 377467, Note_on_c, 0, 70, 68
1, 377479, Note_off_c, 0, 50, 45
1, 377493, Note_on_c, 0, 65, 54
1, 377498, Note_off_c, 0, 77, 61
1, 377511, Note_off_c, 0, 73, 63
1, 377523, Note_on_c, 0, 54, 63
1, 377529, Note_off_c, 0, 65, 65
1, 377537, Poly_aftertouch_c, 0, 75, 0
1, 377540, Note_off_c, 0, 70, 63
1, 377592, Note_off_c, 0, 54, 59
1, 377615, Note_on_c, 0, 56, 44
1, 377649, Note_off_c, 0, 56, 64
1, 377673, Note_on_c, 0, 58, 49
1, 377716, Note_off_c, 0, 58, 59
1, 377723, Control_c, 0, 64, 107
1, 377738, Control_c, 0, 64, 74
1, 377742, Note_on_c, 0, 70, 71
1, 377748, Note_on_c, 0, 56, 56
1, 377753, Control_c, 0, 64, 59
1, 377768, Control_c, 0, 64, 42
1, 377768, Note_on_c, 0, 60, 41
1, 377780, Note_on_c, 0, 66, 36
1, 377783, Control_c, 0, 64, 43
1, 377798, Control_c, 0, 64, 53
1, 377813, Control_c, 0, 64, 62
1, 377819, Note_off_c, 0, 66, 51
1, 377822, Note_off_c, 0, 60, 61
1, 377827, Control_c, 0, 64, 68
1, 377828, Note_off_c, 0, 56, 64
1, 377842, Control_c, 0, 64, 74
1, 377857, Control_c, 0, 64, 85
1, 377871, Control_c, 0, 64, 96
1, 377874, Note_on_c, 0, 60, 51
1, 377886, Control_c, 0, 64, 111
1, 377901, Control_c, 0, 64, 127
1, 377914, Note_off_c, 0, 60, 62
1, 377964, Note_on_c, 0, 61, 45
1, 378000, Note_off_c, 0, 61, 63
1, 378015, Note_on_c, 0, 63, 52
1, 378059, Note_off_c, 0, 63, 64
1, 378108, Note_on_c, 0, 65, 44
1, 378155, Note_off_c, 0, 65, 50
1, 378209, Note_on_c, 0, 66, 50
1, 378215, Note_on_c, 0, 68, 66
1, 378258, Note_off_c, 0, 66, 63
1, 378327, Note_off_c, 0, 68, 61
1, 378564, Note_on_c, 0, 37, 45
1, 378591, Control_c, 0, 64, 93
1, 378606, Note_on_c, 0, 68, 51
1, 378606, Control_c, 0, 64, 68
1, 378621, Control_c, 0, 64, 59
1, 378636, Control_c, 0, 64, 60
1, 378643, Note_on_c, 0, 66, 54
1, 378650, Control_c, 0, 64, 62
1, 378665, Control_c, 0, 64, 67
1, 378680, Control_c, 0, 64, 75
1, 378695, Control_c, 0, 64, 96
1, 378710, Control_c, 0, 64, 127
1, 378718, Note_on_c, 0, 44, 53
1, 378734, Note_off_c, 0, 37, 52
1, 378792, Note_off_c, 0, 44, 60
1, 378842, Note_on_c, 0, 48, 52
1, 378845, Note_off_c, 0, 70, 48
1, 378862, Note_off_c, 0, 68, 62
1, 378872, Poly_aftertouch_c, 0, 46, 0
1, 378876, Note_on_c, 0, 65, 65
1, 378889, Note_off_c, 0, 48, 62
1, 378891, Note_off_c, 0, 66, 63
1, 378907, Note_off_c, 0, 65, 63
1, 378948, Note_on_c, 0, 51, 51
1, 378976, Note_off_c, 0, 51, 52
1, 379008, Note_on_c, 0, 52, 63
1, 379062, Note_off_c, 0, 52, 59
1, 379085, Note_on_c, 0, 77, 88
1, 379126, Note_on_c, 0, 54, 26
1, 379136, Note_on_c, 0, 56, 53
1, 379160, Note_off_c, 0, 77, 60
1, 379167, Note_off_c, 0, 54, 42
1, 379209, Note_off_c, 0, 56, 63
1, 379214, Poly_aftertouch_c, 0, 63, 0
1, 379220, Note_on_c, 0, 58, 61
1, 379288, Note_off_c, 0, 58, 63
1, 379310, Control_c, 0, 64, 98
1, 379311, Note_on_c, 0, 56, 62
1, 379317, Note_on_c, 0, 68, 46
1, 379324, Note_on_c, 0, 73, 81
1, 379324, Control_c, 0, 64, 67
1, 379339, Note_on_c, 0, 61, 63
1, 379339, Control_c, 0, 64, 30
1, 379351, Poly_aftertouch_c, 0, 71, 127
1, 379354, Control_c, 0, 64, 21
1, 379369, Control_c, 0, 64, 29
1, 379384, Control_c, 0, 64, 54
1, 379390, Note_on_c, 0, 58, 58
1, 379397, Note_off_c, 0, 56, 61
1, 379398, Control_c, 0, 64, 65
1, 379402, Note_off_c, 0, 61, 62
1, 379413, Control_c, 0, 64, 75
1, 379428, Control_c, 0, 64, 97
1, 379429, Note_off_c, 0, 58, 64
1, 379437, Poly_aftertouch_c, 0, 71, 0
1, 379443, Control_c, 0, 64, 127
1, 379455, Note_off_c, 0, 68, 61
1, 379468, Note_on_c, 0, 60, 60
1, 379479, Note_off_c, 0, 73, 63
1, 379487, Poly_aftertouch_c, 0, 71, 0
1, 379494, Note_off_c, 0, 60, 66
1, 379553, Note_on_c, 0, 61, 49
1, 379589, Note_off_c, 0, 61, 63
1, 379607, Note_on_c, 0, 63, 56
1, 379655, Note_off_c, 0, 63, 53
1, 379723, Note_on_c, 0, 65, 50
1, 379762, Note_off_c, 0, 65, 66
1, 379774, Note_on_c, 0, 82, 81
1, 379792, Note_on_c, 0, 73, 45
1, 379801, Note_on_c, 0, 71, 57
1, 379859, Note_off_c, 0, 73, 54
1, 379899, Note_off_c, 0, 71, 54
1, 379949, Note_off_c, 0, 82, 61
1, 379995, Poly_aftertouch_c, 0, 79, 127
1, 380056, Poly_aftertouch_c, 0, 78, 127
1, 380127, Note_on_c, 0, 37, 41
1, 380162, Control_c, 0, 64, 121
1, 380177, Note_on_c, 0, 82, 75
1, 380177, Control_c, 0, 64, 75
1, 380192, Control_c, 0, 64, 59
1, 380206, Control_c, 0, 64, 33
1, 380209, Note_on_c, 0, 71, 44
1, 380221, Control_c, 0, 64, 28
1, 380236, Control_c, 0, 64, 36
1, 380239, Note_on_c, 0, 73, 18
1, 380251, Control_c, 0, 64, 55
1, 380266, Control_c, 0, 64, 64
1, 380275, Note_on_c, 0, 44, 44
1, 380281, Control_c, 0, 64, 73
1, 380296, Control_c, 0, 64, 82
1, 380300, Poly_aftertouch_c, 0, 79, 0
1, 380311, Control_c, 0, 64, 94
1, 380319, Note_off_c, 0, 37, 40
1, 380319, Poly_aftertouch_c, 0, 78, 0
1, 380323, Note_off_c, 0, 44, 60
1, 380326, Control_c, 0, 64, 106
1, 380340, Control_c, 0, 64, 127
1, 380360, Note_on_c, 0, 49, 51
1, 380361, Note_off_c, 0, 71, 58
1, 380397, Note_off_c, 0, 73, 40
1, 380401, Note_off_c, 0, 49, 63
1, 380498, Note_on_c, 0, 80, 66
1, 380501, Note_on_c, 0, 71, 57
1, 380525, Note_on_c, 0, 73, 49
1, 380542, Note_on_c, 0, 56, 63
1, 380580, Note_off_c, 0, 56, 64
1, 380619, Note_off_c, 0, 71, 61
1, 380621, Note_off_c, 0, 80, 64
1, 380645, Note_off_c, 0, 82, 54
1, 380655, Note_on_c, 0, 61, 25
1, 380669, Note_off_c, 0, 73, 36
1, 380689, Note_off_c, 0, 61, 49
1, 380730, Note_on_c, 0, 56, 51
1, 380750, Note_on_c, 0, 71, 57
1, 380754, Note_on_c, 0, 79, 66
1, 380758, Note_on_c, 0, 73, 47
1, 380807, Note_off_c, 0, 56, 59
1, 380814, Note_on_c, 0, 65, 55
1, 380832, Note_off_c, 0, 73, 60
1, 380860, Note_off_c, 0, 71, 47
1, 380885, Note_off_c, 0, 65, 62
1, 380921, Note_on_c, 0, 61, 54
1, 381004, Note_off_c, 0, 61, 57
1, 381015, Control_c, 0, 64, 92
1, 381030, Control_c, 0, 64, 68
1, 381035, Note_on_c, 0, 56, 52
1, 381035, Note_on_c, 0, 71, 45
1, 381038, Note_on_c, 0, 80, 72
1, 381044, Control_c, 0, 64, 57
1, 381059, Control_c, 0, 64, 56
1, 381061, Note_on_c, 0, 73, 42
1, 381074, Control_c, 0, 64, 60
1, 381089, Control_c, 0, 64, 66
1, 381104, Control_c, 0, 64, 73
1, 381118, Control_c, 0, 64, 91
1, 381123, Note_off_c, 0, 56, 52
1, 381133, Control_c, 0, 64, 127
1, 381139, Note_on_c, 0, 68, 50
1, 381148, Note_off_c, 0, 79, 62
1, 381190, Note_off_c, 0, 68, 59
1, 381247, Note_on_c, 0, 65, 16
1, 381288, Note_on_c, 0, 61, 47
1, 381290, Note_off_c, 0, 65, 53
1, 381311, Note_off_c, 0, 61, 58
1, 381390, Note_on_c, 0, 56, 52
1, 381442, Note_off_c, 0, 56, 59
1, 381500, Note_on_c, 0, 53, 38
1, 381534, Note_off_c, 0, 53, 51
1, 381545, Note_off_c, 0, 71, 59
1, 381560, Note_off_c, 0, 80, 48
1, 381561, Note_on_c, 0, 49, 45
1, 381611, Note_off_c, 0, 49, 59
1, 381631, Note_off_c, 0, 73, 64
1, 381645, Note_on_c, 0, 44, 37
1, 381742, Note_on_c, 0, 56, 40
1, 381813, Note_off_c, 0, 44, 51
1, 381831, Note_off_c, 0, 56, 58
1, 381899, Poly_aftertouch_c, 0, 65, 0
1, 381936, Poly_aftertouch_c, 0, 65, 127
1, 381945, Note_on_c, 0, 65, 3
1, 382072, Note_on_c, 0, 71, 52
1, 382240, Note_on_c, 0, 37, 40
1, 382260, Control_c, 0, 64, 93
1, 382275, Control_c, 0, 64, 68
1, 382290, Control_c, 0, 64, 52
1, 382305, Control_c, 0, 64, 44
1, 382311, Note_on_c, 0, 80, 71
1, 382320, Control_c, 0, 64, 47
1, 382335, Control_c, 0, 64, 59
1, 382350, Control_c, 0, 64, 66
1, 382365, Control_c, 0, 64, 74
1, 382380, Control_c, 0, 64, 89
1, 382395, Control_c, 0, 64, 127
1, 382425, Note_off_c, 0, 37, 44
1, 382477, Note_on_c, 0, 44, 43
1, 382537, Note_off_c, 0, 44, 53
1, 382546, Note_on_c, 0, 49, 43
1, 382603, Note_off_c, 0, 49, 59
1, 382624, Note_off_c, 0, 80, 60
1, 382626, Note_on_c, 0, 56, 45
1, 382669, Note_off_c, 0, 56, 57
1, 382673, Note_off_c, 0, 71, 39
1, 382725, Note_off_c, 0, 65, 41
1, 382747, Note_on_c, 0, 49, 38
1, 382783, Poly_aftertouch_c, 0, 44, 0
1, 382786, Note_off_c, 0, 49, 60
1, 382829, Note_on_c, 0, 56, 44
1, 382844, Note_on_c, 0, 73, 61
1, 382867, Note_off_c, 0, 56, 64
1, 382871, Note_on_c, 0, 65, 42
1, 382877, Note_on_c, 0, 71, 47
1, 382967, Note_on_c, 0, 61, 40
1, 383010, Note_off_c, 0, 61, 59
1, 383026, Note_off_c, 0, 71, 39
1, 383028, Poly_aftertouch_c, 0, 75, 127
1, 383036, Note_off_c, 0, 73, 50
1, 383056, Note_off_c, 0, 65, 34
1, 383056, Poly_aftertouch_c, 0, 76, 127
1, 383091, Note_on_c, 0, 56, 36
1, 383125, Note_off_c, 0, 56, 58
1, 383168, Note_on_c, 0, 49, 42
1, 383189, Note_on_c, 0, 73, 59
1, 383199, Note_on_c, 0, 65, 44
1, 383209, Note_off_c, 0, 49, 62
1, 383218, Note_on_c, 0, 71, 51
1, 383236, Note_on_c, 0, 56, 48
1, 383302, Note_off_c, 0, 56, 59
1, 383321, Note_on_c, 0, 61, 50
1, 383363, Note_off_c, 0, 61, 61
1, 383408, Note_on_c, 0, 68, 39
1, 383442, Note_off_c, 0, 68, 48
1, 383471, Note_on_c, 0, 61, 40
1, 383512, Note_off_c, 0, 61, 53
1, 383549, Note_on_c, 0, 56, 49
1, 383583, Note_off_c, 0, 56, 65
1, 383610, Note_on_c, 0, 49, 51
1, 383643, Note_off_c, 0, 49, 57
1, 383673, Note_on_c, 0, 56, 58
1, 383701, Note_off_c, 0, 56, 66
1, 383739, Note_on_c, 0, 61, 54
1, 383777, Note_off_c, 0, 61, 62
1, 383923, Note_on_c, 0, 49, 42
1, 383979, Note_off_c, 0, 49, 61
1, 384110, Note_on_c, 0, 49, 42
1, 384147, Note_off_c, 0, 49, 50
1, 384180, Note_on_c, 0, 56, 46
1, 384257, Note_off_c, 0, 56, 54
1, 384284, Note_on_c, 0, 49, 36
1, 384365, Note_off_c, 0, 49, 61
1, 384395, Poly_aftertouch_c, 0, 76, 0
1, 384433, Note_on_c, 0, 44, 9
1, 384482, Note_off_c, 0, 44, 47
1, 384538, Note_on_c, 0, 37, 45
1, 384580, Poly_aftertouch_c, 0, 75, 0
1, 384611, Note_off_c, 0, 37, 57
1, 384634, Note_off_c, 0, 73, 56
1, 384648, Note_off_c, 0, 65, 38
1, 384668, Note_off_c, 0, 71, 30
1, 384886, Note_on_c, 0, 30, 42
1, 384967, Control_c, 0, 64, 114
1, 384989, Control_c, 0, 64, 71
1, 384994, Note_on_c, 0, 73, 57
1, 385004, Control_c, 0, 64, 31
1, 385018, Control_c, 0, 64, 0
1, 385023, Note_on_c, 0, 71, 27
1, 385026, Note_on_c, 0, 66, 40
1, 385078, Control_c, 0, 64, 35
1, 385092, Control_c, 0, 64, 64
1, 385106, Note_off_c, 0, 30, 58
1, 385107, Control_c, 0, 64, 74
1, 385122, Control_c, 0, 64, 98
1, 385137, Control_c, 0, 64, 127
1, 385309, Note_on_c, 0, 49, 45
1, 385358, Note_off_c, 0, 71, 44
1, 385396, Note_on_c, 0, 61, 42
1, 385408, Note_off_c, 0, 49, 56
1, 385438, Note_off_c, 0, 61, 59
1, 385506, Note_on_c, 0, 54, 41
1, 385568, Note_off_c, 0, 54, 56
1, 385588, Note_on_c, 0, 49, 19
1, 385603, Note_off_c, 0, 66, 37
1, 385639, Note_off_c, 0, 49, 56
1, 385640, Poly_aftertouch_c, 0, 70, 127
1, 385652, Note_on_c, 0, 58, 41
1, 385684, Note_on_c, 0, 78, 67
1, 385691, Note_off_c, 0, 73, 61
1, 385709, Note_off_c, 0, 58, 56
1, 385748, Note_on_c, 0, 54, 45
1, 385765, Note_off_c, 0, 78, 62
1, 385794, Poly_aftertouch_c, 0, 70, 0
1, 385816, Note_off_c, 0, 54, 53
1, 385856, Note_on_c, 0, 49, 47
1, 385896, Note_off_c, 0, 49, 64
1, 386192, Note_on_c, 0, 39, 42
1, 386257, Control_c, 0, 64, 114
1, 386272, Control_c, 0, 64, 75
1, 386274, Note_on_c, 0, 78, 65
1, 386286, Control_c, 0, 64, 59
1, 386301, Control_c, 0, 64, 43
1, 386316, Control_c, 0, 64, 43
1, 386332, Control_c, 0, 64, 55
1, 386347, Control_c, 0, 64, 64
1, 386362, Control_c, 0, 64, 71
1, 386376, Control_c, 0, 64, 83
1, 386391, Control_c, 0, 64, 117
1, 386406, Control_c, 0, 64, 127
1, 386460, Note_on_c, 0, 66, 34
1, 386490, Note_off_c, 0, 39, 34
1, 386502, Note_on_c, 0, 46, 33
1, 386556, Note_off_c, 0, 66, 57
1, 386557, Note_off_c, 0, 78, 58
1, 386591, Note_on_c, 0, 70, 45
1, 386621, Note_off_c, 0, 46, 37
1, 386637, Note_off_c, 0, 70, 63
1, 386643, Note_on_c, 0, 51, 47
1, 386739, Note_off_c, 0, 51, 46
1, 386755, Note_on_c, 0, 54, 39
1, 386769, Note_on_c, 0, 58, 53
1, 386863, Note_on_c, 0, 70, 62
1, 386925, Note_off_c, 0, 54, 42
1, 386941, Note_on_c, 0, 51, 46
1, 386961, Note_off_c, 0, 58, 37
1, 386964, Note_off_c, 0, 70, 61
1, 386967, Note_on_c, 0, 63, 47
1, 387002, Note_off_c, 0, 51, 57
1, 387005, Note_off_c, 0, 63, 64
1, 387012, Note_on_c, 0, 66, 53
1, 387047, Note_off_c, 0, 66, 64
1, 387084, Note_on_c, 0, 46, 42
1, 387097, Note_on_c, 0, 58, 47
1, 387155, Note_off_c, 0, 58, 57
1, 387222, Note_on_c, 0, 72, 65
1, 387266, Control_c, 0, 64, 87
1, 387273, Note_on_c, 0, 39, 46
1, 387279, Control_c, 0, 64, 74
1, 387294, Control_c, 0, 64, 71
1, 387309, Control_c, 0, 64, 73
1, 387314, Note_off_c, 0, 46, 35
1, 387324, Control_c, 0, 64, 78
1, 387338, Control_c, 0, 64, 91
1, 387353, Control_c, 0, 64, 127
1, 387366, Note_off_c, 0, 72, 64
1, 387378, Note_on_c, 0, 61, 50
1, 387387, Poly_aftertouch_c, 0, 66, 127
1, 387412, Note_on_c, 0, 70, 36
1, 387422, Poly_aftertouch_c, 0, 66, 0
1, 387437, Note_off_c, 0, 39, 41
1, 387443, Note_on_c, 0, 46, 47
1, 387450, Note_off_c, 0, 61, 59
1, 387496, Note_on_c, 0, 73, 74
1, 387501, Note_off_c, 0, 70, 61
1, 387504, Note_off_c, 0, 46, 57
1, 387518, Note_on_c, 0, 51, 48
1, 387556, Note_off_c, 0, 51, 65
1, 387563, Note_off_c, 0, 73, 64
1, 387582, Note_on_c, 0, 54, 56
1, 387584, Note_on_c, 0, 66, 69
1, 387630, Note_off_c, 0, 66, 59
1, 387635, Note_off_c, 0, 54, 58
1, 387655, Note_on_c, 0, 51, 51
1, 387675, Note_on_c, 0, 70, 68
1, 387706, Note_off_c, 0, 51, 57
1, 387714, Note_off_c, 0, 70, 64
1, 387730, Note_on_c, 0, 46, 48
1, 387742, Note_on_c, 0, 66, 72
1, 387816, Note_off_c, 0, 46, 60
1, 387877, Note_on_c, 0, 78, 87
1, 388004, Note_on_c, 0, 44, 56
1, 388013, Control_c, 0, 64, 81
1, 388028, Control_c, 0, 64, 59
1, 388031, Note_off_c, 0, 66, 57
1, 388042, Note_on_c, 0, 70, 59
1, 388043, Control_c, 0, 64, 17
1, 388058, Control_c, 0, 64, 0
1, 388073, Control_c, 0, 64, 10
1, 388088, Control_c, 0, 64, 44
1, 388102, Control_c, 0, 64, 62
1, 388117, Control_c, 0, 64, 67
1, 388132, Control_c, 0, 64, 74
1, 388147, Control_c, 0, 64, 86
1, 388161, Control_c, 0, 64, 106
1, 388176, Control_c, 0, 64, 127
1, 388179, Note_on_c, 0, 51, 59
1, 388179, Note_on_c, 0, 73, 61
1, 388180, Note_on_c, 0, 66, 45
1, 388186, Note_off_c, 0, 44, 61
1, 388237, Note_off_c, 0, 78, 63
1, 388278, Note_on_c, 0, 54, 52
1, 388321, Note_on_c, 0, 77, 84
1, 388334, Note_off_c, 0, 51, 37
1, 388350, Note_off_c, 0, 70, 62
1, 388361, Note_off_c, 0, 73, 63
1, 388372, Note_off_c, 0, 54, 61
1, 388391, Note_off_c, 0, 66, 35
1, 388394, Note_on_c, 0, 61, 37
1, 388428, Note_off_c, 0, 61, 54
1, 388444, Note_on_c, 0, 70, 42
1, 388493, Note_on_c, 0, 54, 39
1, 388505, Note_on_c, 0, 73, 55
1, 388505, Note_off_c, 0, 70, 57
1, 388529, Note_off_c, 0, 77, 57
1, 388598, Note_on_c, 0, 51, 25
1, 388605, Note_on_c, 0, 66, 34
1, 388612, Note_off_c, 0, 54, 28
1, 388761, Note_on_c, 0, 44, 46
1, 388771, Note_on_c, 0, 77, 73
1, 388777, Control_c, 0, 64, 96
1, 388781, Note_off_c, 0, 51, 38
1, 388792, Control_c, 0, 64, 69
1, 388801, Note_off_c, 0, 73, 63
1, 388807, Control_c, 0, 64, 53
1, 388822, Control_c, 0, 64, 48
1, 388837, Control_c, 0, 64, 51
1, 388851, Control_c, 0, 64, 61
1, 388866, Control_c, 0, 64, 68
1, 388876, Note_off_c, 0, 66, 42
1, 388881, Control_c, 0, 64, 77
1, 388896, Control_c, 0, 64, 98
1, 388905, Note_on_c, 0, 68, 48
1, 388911, Control_c, 0, 64, 127
1, 388990, Note_off_c, 0, 68, 56
1, 388997, Note_on_c, 0, 51, 48
1, 389005, Note_off_c, 0, 44, 40
1, 389037, Note_on_c, 0, 72, 48
1, 389042, Note_on_c, 0, 66, 37
1, 389042, Note_off_c, 0, 77, 62
1, 389085, Note_on_c, 0, 54, 37
1, 389129, Note_off_c, 0, 66, 60
1, 389146, Note_on_c, 0, 75, 76
1, 389176, Note_off_c, 0, 54, 53
1, 389176, Note_off_c, 0, 72, 55
1, 389193, Note_off_c, 0, 51, 31
1, 389202, Note_on_c, 0, 60, 37
1, 389246, Note_on_c, 0, 68, 62
1, 389250, Note_off_c, 0, 60, 61
1, 389267, Poly_aftertouch_c, 0, 76, 0
1, 389278, Note_on_c, 0, 54, 59
1, 389311, Note_on_c, 0, 72, 65
1, 389317, Note_off_c, 0, 75, 60
1, 389326, Note_off_c, 0, 68, 58
1, 389376, Note_off_c, 0, 72, 64
1, 389393, Note_on_c, 0, 51, 61
1, 389404, Note_on_c, 0, 63, 62
1, 389411, Note_off_c, 0, 54, 52
1, 389500, Note_off_c, 0, 63, 62
1, 389536, Note_on_c, 0, 44, 60
1, 389633, Poly_aftertouch_c, 0, 68, 127
1, 389634, Note_on_c, 0, 72, 89
1, 389675, Poly_aftertouch_c, 0, 69, 127
1, 389676, Note_on_c, 0, 69, 3
1, 389701, Poly_aftertouch_c, 0, 62, 127
1, 389713, Note_off_c, 0, 44, 63
1, 389724, Note_off_c, 0, 69, 45
1, 389733, Poly_aftertouch_c, 0, 62, 0
1, 389759, Note_off_c, 0, 51, 43
1, 389764, Poly_aftertouch_c, 0, 68, 0
1, 389779, Note_on_c, 0, 66, 67
1, 389881, Note_on_c, 0, 70, 88
1, 389918, Note_off_c, 0, 66, 61
1, 389948, Note_off_c, 0, 72, 62
1, 389949, Note_on_c, 0, 60, 59
1, 390002, Note_off_c, 0, 60, 59
1, 390026, Note_off_c, 0, 70, 63
1, 390096, Note_on_c, 0, 37, 58
1, 390168, Note_on_c, 0, 70, 83
1, 390192, Control_c, 0, 64, 81
1, 390198, Note_on_c, 0, 58, 62
1, 390207, Control_c, 0, 64, 51
1, 390230, Control_c, 0, 64, 0
1, 390234, Note_on_c, 0, 65, 14
1, 390282, Note_off_c, 0, 65, 50
1, 390289, Control_c, 0, 64, 59
1, 390304, Control_c, 0, 64, 69
1, 390319, Control_c, 0, 64, 83
1, 390335, Control_c, 0, 64, 127
1, 390342, Note_on_c, 0, 44, 53
1, 390399, Note_off_c, 0, 37, 57
1, 390404, Note_on_c, 0, 46, 59
1, 390422, Note_off_c, 0, 44, 61
1, 390424, Note_off_c, 0, 58, 35
1, 390450, Note_off_c, 0, 46, 60
1, 390488, Note_on_c, 0, 48, 56
1, 390508, Note_off_c, 0, 70, 61
1, 390543, Note_off_c, 0, 48, 56
1, 390547, Note_on_c, 0, 68, 83
1, 390551, Note_on_c, 0, 56, 73
1, 390565, Note_on_c, 0, 65, 52
1, 390568, Poly_aftertouch_c, 0, 66, 127
1, 390578, Note_off_c, 0, 56, 68
1, 390581, Note_on_c, 0, 49, 65
1, 390596, Note_off_c, 0, 65, 65
1, 390616, Note_off_c, 0, 68, 63
1, 390618, Poly_aftertouch_c, 0, 66, 0
1, 390636, Note_off_c, 0, 49, 62
1, 390669, Note_on_c, 0, 50, 59
1, 390724, Note_off_c, 0, 50, 62
1, 390776, Note_on_c, 0, 54, 70
1, 390822, Note_on_c, 0, 89, 91
1, 390833, Note_on_c, 0, 77, 82
1, 390842, Note_on_c, 0, 80, 64
1, 390869, Note_off_c, 0, 80, 62
1, 390872, Note_on_c, 0, 56, 68
1, 390880, Note_off_c, 0, 54, 61
1, 390892, Note_off_c, 0, 77, 57
1, 390961, Note_off_c, 0, 89, 53
1, 391026, Note_on_c, 0, 58, 63
1, 391027, Note_on_c, 0, 85, 3
1, 391061, Note_off_c, 0, 56, 63
1, 391068, Control_c, 0, 64, 79
1, 391083, Control_c, 0, 64, 64
1, 391095, Note_on_c, 0, 89, 92
1, 391097, Control_c, 0, 64, 65
1, 391100, Note_on_c, 0, 77, 87
1, 391103, Note_on_c, 0, 80, 86
1, 391112, Control_c, 0, 64, 70
1, 391128, Control_c, 0, 64, 84
1, 391143, Control_c, 0, 64, 127
1, 391155, Note_off_c, 0, 58, 63
1, 391161, Note_off_c, 0, 85, 44
1, 391173, Note_on_c, 0, 56, 72
1, 391236, Note_on_c, 0, 58, 72
1, 391257, Note_off_c, 0, 56, 64
1, 391282, Note_off_c, 0, 89, 65
1, 391289, Note_off_c, 0, 58, 63
1, 391301, Note_on_c, 0, 60, 80
1, 391315, Note_off_c, 0, 80, 64
1, 391330, Note_off_c, 0, 77, 64
1, 391346, Note_off_c, 0, 60, 65
1, 391393, Note_on_c, 0, 61, 58
1, 391423, Note_off_c, 0, 61, 65
1, 391424, Note_on_c, 0, 63, 79
1, 391482, Note_off_c, 0, 63, 62
1, 391506, Note_on_c, 0, 65, 85
1, 391542, Note_off_c, 0, 65, 65
1, 391547, Note_on_c, 0, 80, 82
1, 391547, Note_on_c, 0, 85, 83
1, 391549, Note_on_c, 0, 73, 89
1, 391607, Note_on_c, 0, 83, 16
1, 391680, Note_off_c, 0, 73, 55
1, 391710, Note_off_c, 0, 83, 0
1, 391754, Poly_aftertouch_c, 0, 83, 127
1, 391859, Note_on_c, 0, 37, 75
1, 391861, Note_off_c, 0, 85, 61
1, 391921, Control_c, 0, 64, 75
1, 391930, Note_on_c, 0, 85, 80
1, 391936, Note_on_c, 0, 77, 88
1, 391936, Control_c, 0, 64, 0
1, 391937, Note_on_c, 0, 73, 82
1, 391995, Control_c, 0, 64, 65
1, 392010, Control_c, 0, 64, 92
1, 392025, Control_c, 0, 64, 127
1, 392052, Note_off_c, 0, 85, 66
1, 392064, Note_off_c, 0, 80, 63
1, 392066, Note_off_c, 0, 73, 64
1, 392073, Note_on_c, 0, 44, 59
1, 392074, Poly_aftertouch_c, 0, 83, 0
1, 392085, Note_off_c, 0, 77, 60
1, 392108, Note_on_c, 0, 46, 56
1, 392124, Note_off_c, 0, 37, 55
1, 392124, Note_off_c, 0, 44, 60
1, 392166, Note_on_c, 0, 48, 68
1, 392166, Note_off_c, 0, 46, 57
1, 392213, Note_on_c, 0, 65, 69
1, 392233, Note_off_c, 0, 48, 60
1, 392240, Note_off_c, 0, 65, 67
1, 392303, Note_on_c, 0, 50, 72
1, 392368, Note_off_c, 0, 50, 63
1, 392410, Note_on_c, 0, 73, 77
1, 392410, Note_on_c, 0, 82, 91
1, 392432, Note_on_c, 0, 53, 49
1, 392458, Note_off_c, 0, 73, 65
1, 392475, Note_on_c, 0, 52, 15
1, 392493, Note_off_c, 0, 53, 64
1, 392499, Note_off_c, 0, 82, 63
1, 392519, Note_off_c, 0, 52, 54
1, 392543, Note_on_c, 0, 58, 61
1, 392607, Note_off_c, 0, 58, 62
1, 392637, Note_on_c, 0, 56, 69
1, 392667, Note_on_c, 0, 82, 96
1, 392669, Control_c, 0, 64, 96
1, 392672, Note_on_c, 0, 78, 90
1, 392681, Note_on_c, 0, 72, 79
1, 392684, Control_c, 0, 64, 78
1, 392699, Control_c, 0, 64, 73
1, 392699, Note_on_c, 0, 74, 64
1, 392712, Note_on_c, 0, 58, 73
1, 392714, Control_c, 0, 64, 75
1, 392720, Note_off_c, 0, 74, 60
1, 392729, Control_c, 0, 64, 83
1, 392732, Note_off_c, 0, 56, 62
1, 392744, Control_c, 0, 64, 121
1, 392759, Control_c, 0, 64, 127
1, 392771, Note_off_c, 0, 58, 63
1, 392778, Note_on_c, 0, 60, 77
1, 392783, Note_off_c, 0, 72, 65
1, 392835, Note_off_c, 0, 78, 62
1, 392839, Note_off_c, 0, 60, 63
1, 392860, Note_on_c, 0, 61, 68
1, 392891, Note_on_c, 0, 70, 87
1, 392902, Note_off_c, 0, 82, 43
1, 392914, Note_off_c, 0, 61, 63
1, 392916, Note_on_c, 0, 62, 66
1, 392938, Note_off_c, 0, 70, 62
1, 392946, Note_off_c, 0, 62, 66
1, 392968, Note_on_c, 0, 65, 70
1, 392980, Note_on_c, 0, 64, 68
1, 393008, Note_off_c, 0, 64, 51
1, 393029, Note_off_c, 0, 65, 55
1, 393063, Note_on_c, 0, 66, 87
1, 393087, Note_on_c, 0, 80, 92
1, 393089, Note_on_c, 0, 68, 97
1, 393089, Note_on_c, 0, 75, 86
1, 393102, Note_off_c, 0, 66, 64
1, 393158, Note_off_c, 0, 75, 59
1, 393174, Note_off_c, 0, 68, 55
1, 393183, Note_off_c, 0, 80, 62
1, 393408, Note_on_c, 0, 37, 78
1, 393447, Control_c, 0, 64, 74
1, 393452, Note_on_c, 0, 80, 91
1, 393460, Note_on_c, 0, 68, 92
1, 393462, Note_on_c, 0, 75, 88
1, 393462, Control_c, 0, 64, 24
1, 393473, Note_on_c, 0, 77, 75
1, 393477, Control_c, 0, 64, 0
1, 393507, Control_c, 0, 64, 37
1, 393522, Control_c, 0, 64, 65
1, 393537, Control_c, 0, 64, 78
1, 393552, Control_c, 0, 64, 127
1, 393578, Note_on_c, 0, 44, 50
1, 393618, Note_on_c, 0, 46, 68
1, 393633, Note_off_c, 0, 37, 57
1, 393647, Note_off_c, 0, 44, 62
1, 393668, Note_off_c, 0, 46, 61
1, 393694, Note_on_c, 0, 48, 71
1, 393705, Note_off_c, 0, 77, 62
1, 393706, Note_on_c, 0, 73, 88
1, 393716, Note_off_c, 0, 68, 62
1, 393718, Note_off_c, 0, 75, 61
1, 393728, Note_off_c, 0, 80, 64
1, 393741, Note_off_c, 0, 48, 62
1, 393749, Note_off_c, 0, 73, 65
1, 393763, Note_on_c, 0, 49, 76
1, 393797, Note_off_c, 0, 49, 64
1, 393836, Note_on_c, 0, 52, 64
1, 393873, Note_off_c, 0, 52, 64
1, 393898, Note_on_c, 0, 89, 97
1, 393899, Note_on_c, 0, 77, 95
1, 393907, Note_on_c, 0, 80, 82
1, 393917, Note_on_c, 0, 54, 81
1, 393929, Note_off_c, 0, 80, 71
1, 393930, Note_off_c, 0, 77, 59
1, 393940, Note_off_c, 0, 89, 61
1, 393987, Note_on_c, 0, 56, 59
1, 394001, Note_off_c, 0, 54, 61
1, 394029, Note_on_c, 0, 58, 77
1, 394033, Note_off_c, 0, 56, 63
1, 394108, Control_c, 0, 64, 101
1, 394121, Note_off_c, 0, 58, 62
1, 394122, Control_c, 0, 64, 66
1, 394135, Note_on_c, 0, 80, 97
1, 394137, Control_c, 0, 64, 50
1, 394138, Note_on_c, 0, 56, 78
1, 394140, Note_on_c, 0, 85, 92
1, 394148, Note_on_c, 0, 73, 93
1, 394152, Control_c, 0, 64, 54
1, 394166, Control_c, 0, 64, 65
1, 394181, Control_c, 0, 64, 81
1, 394196, Control_c, 0, 64, 127
1, 394200, Note_on_c, 0, 58, 76
1, 394217, Note_off_c, 0, 73, 63
1, 394223, Note_off_c, 0, 56, 64
1, 394253, Note_off_c, 0, 58, 64
1, 394255, Note_off_c, 0, 80, 62
1, 394258, Note_on_c, 0, 60, 80
1, 394268, Note_off_c, 0, 85, 66
1, 394298, Note_off_c, 0, 60, 67
1, 394345, Note_on_c, 0, 61, 77
1, 394395, Note_on_c, 0, 63, 84
1, 394401, Note_off_c, 0, 61, 63
1, 394460, Note_off_c, 0, 63, 65
1, 394476, Note_on_c, 0, 65, 93
1, 394498, Note_on_c, 0, 77, 74
1, 394512, Note_on_c, 0, 79, 73
1, 394512, Note_on_c, 0, 67, 44
1, 394521, Note_off_c, 0, 65, 67
1, 394538, Note_off_c, 0, 67, 58
1, 394566, Note_off_c, 0, 77, 61
1, 394574, Note_off_c, 0, 79, 0
1, 394602, Note_on_c, 0, 85, 80
1, 394611, Poly_aftertouch_c, 0, 79, 127
1, 394634, Poly_aftertouch_c, 0, 79, 0
1, 394652, Note_on_c, 0, 94, 103
1, 394673, Note_off_c, 0, 85, 66
1, 394675, Note_on_c, 0, 92, 55
1, 394676, Note_off_c, 0, 92, 127
1, 394692, Note_off_c, 0, 94, 66
1, 394941, Note_on_c, 0, 36, 87
1, 395000, Note_on_c, 0, 94, 107
1, 395004, Note_on_c, 0, 87, 97
1, 395004, Control_c, 0, 64, 61
1, 395005, Note_on_c, 0, 82, 91
1, 395019, Note_on_c, 0, 91, 63
1, 395019, Control_c, 0, 64, 0
1, 395063, Control_c, 0, 64, 60
1, 395078, Control_c, 0, 64, 77
1, 395093, Control_c, 0, 64, 127
1, 395100, Note_off_c, 0, 91, 0
1, 395138, Poly_aftertouch_c, 0, 91, 127
1, 395147, Note_on_c, 0, 48, 74
1, 395148, Note_off_c, 0, 36, 62
1, 395170, Note_off_c, 0, 48, 66
1, 395202, Poly_aftertouch_c, 0, 91, 0
1, 395261, Note_on_c, 0, 51, 78
1, 395279, Note_off_c, 0, 94, 63
1, 395286, Note_off_c, 0, 82, 63
1, 395299, Note_off_c, 0, 87, 61
1, 395357, Note_off_c, 0, 51, 64
1, 395366, Note_on_c, 0, 92, 99
1, 395367, Note_on_c, 0, 56, 80
1, 395368, Note_on_c, 0, 87, 94
1, 395372, Note_on_c, 0, 80, 94
1, 395451, Note_off_c, 0, 56, 64
1, 395463, Note_on_c, 0, 51, 84
1, 395483, Note_off_c, 0, 87, 59
1, 395515, Note_off_c, 0, 80, 64
1, 395515, Note_off_c, 0, 92, 58
1, 395526, Note_off_c, 0, 51, 65
1, 395540, Note_on_c, 0, 56, 60
1, 395570, Note_off_c, 0, 56, 66
1, 395616, Note_on_c, 0, 91, 96
1, 395621, Note_on_c, 0, 79, 90
1, 395624, Note_on_c, 0, 87, 82
1, 395646, Note_on_c, 0, 60, 77
1, 395656, Note_off_c, 0, 87, 64
1, 395662, Note_off_c, 0, 79, 67
1, 395682, Note_off_c, 0, 91, 64
1, 395694, Note_on_c, 0, 63, 63
1, 395706, Note_off_c, 0, 60, 61
1, 395740, Note_off_c, 0, 63, 60
1, 395745, Note_on_c, 0, 68, 76
1, 395829, Note_on_c, 0, 87, 29
1, 395836, Note_on_c, 0, 60, 83
1, 395858, Note_off_c, 0, 87, 0
1, 395858, Note_on_c, 0, 87, 52
1, 395862, Note_on_c, 0, 80, 101
1, 395862, Note_on_c, 0, 92, 101
1, 395863, Note_off_c, 0, 68, 60
1, 395897, Note_off_c, 0, 60, 65
1, 395902, Note_on_c, 0, 79, 40
1, 395929, Note_off_c, 0, 79, 57
1, 395983, Note_on_c, 0, 75, 74
1, 396002, Poly_aftertouch_c, 0, 90, 127
1, 396011, Note_off_c, 0, 75, 65
1, 396053, Note_off_c, 0, 92, 65
1, 396058, Poly_aftertouch_c, 0, 90, 0
1, 396062, Note_on_c, 0, 68, 70
1, 396065, Note_off_c, 0, 87, 64
1, 396083, Note_off_c, 0, 80, 64
1, 396096, Note_off_c, 0, 68, 64
1, 396099, Note_on_c, 0, 63, 52
1, 396123, Note_off_c, 0, 63, 61
1, 396176, Note_on_c, 0, 60, 85
1, 396244, Note_off_c, 0, 60, 59
1, 396290, Note_on_c, 0, 56, 72
1, 396358, Note_on_c, 0, 51, 76
1, 396358, Note_on_c, 0, 80, 97
1, 396363, Note_on_c, 0, 75, 72
1, 396363, Note_off_c, 0, 56, 65
1, 396365, Note_on_c, 0, 68, 85
1, 396386, Note_off_c, 0, 51, 65
1, 396390, Note_off_c, 0, 75, 66
1, 396391, Note_off_c, 0, 68, 67
1, 396405, Note_off_c, 0, 80, 68
1, 396452, Note_on_c, 0, 48, 78
1, 396515, Note_off_c, 0, 48, 61
1, 396558, Note_on_c, 0, 44, 79
1, 396673, Note_off_c, 0, 44, 62
1, 396722, Note_on_c, 0, 35, 81
1, 396779, Note_on_c, 0, 80, 93
1, 396782, Note_on_c, 0, 75, 69
1, 396783, Note_on_c, 0, 68, 81
1, 396785, Control_c, 0, 64, 81
1, 396800, Control_c, 0, 64, 45
1, 396814, Control_c, 0, 64, 0
1, 396815, Note_on_c, 0, 78, 39
1, 396858, Control_c, 0, 64, 48
1, 396873, Control_c, 0, 64, 67
1, 396876, Note_off_c, 0, 35, 63
1, 396888, Control_c, 0, 64, 84
1, 396889, Note_off_c, 0, 78, 0
1, 396903, Control_c, 0, 64, 127
1, 396926, Poly_aftertouch_c, 0, 78, 127
1, 397032, Note_off_c, 0, 68, 36
1, 397048, Note_on_c, 0, 47, 64
1, 397081, Note_off_c, 0, 75, 62
1, 397110, Note_off_c, 0, 47, 62
1, 397117, Note_on_c, 0, 49, 56
1, 397138, Note_on_c, 0, 53, 69
1, 397167, Note_off_c, 0, 49, 56
1, 397207, Note_off_c, 0, 53, 61
1, 397237, Note_on_c, 0, 61, 60
1, 397261, Note_on_c, 0, 73, 85
1, 397278, Note_on_c, 0, 68, 74
1, 397284, Note_off_c, 0, 61, 60
1, 397290, Note_on_c, 0, 53, 59
1, 397314, Note_off_c, 0, 68, 52
1, 397335, Note_off_c, 0, 73, 66
1, 397385, Note_off_c, 0, 53, 61
1, 397388, Note_on_c, 0, 49, 59
1, 397526, Note_on_c, 0, 76, 16
1, 397548, Note_on_c, 0, 46, 63
1, 397564, Control_c, 0, 64, 79
1, 397572, Poly_aftertouch_c, 0, 75, 127
1, 397579, Control_c, 0, 64, 50
1, 397591, Note_off_c, 0, 49, 61
1, 397594, Control_c, 0, 64, 0
1, 397598, Note_on_c, 0, 73, 83
1, 397601, Note_on_c, 0, 68, 69
1, 397653, Control_c, 0, 64, 54
1, 397668, Control_c, 0, 64, 65
1, 397682, Control_c, 0, 64, 73
1, 397697, Control_c, 0, 64, 88
1, 397719, Control_c, 0, 64, 127
1, 397746, Note_off_c, 0, 76, 41
1, 397762, Note_on_c, 0, 49, 53
1, 397770, Note_off_c, 0, 68, 59
1, 397783, Note_off_c, 0, 46, 62
1, 397794, Note_on_c, 0, 54, 66
1, 397812, Note_off_c, 0, 80, 62
1, 397844, Note_off_c, 0, 49, 61
1, 397852, Poly_aftertouch_c, 0, 75, 0
1, 397856, Poly_aftertouch_c, 0, 78, 0
1, 397869, Note_off_c, 0, 54, 63
1, 397877, Note_on_c, 0, 63, 77
1, 397886, Note_on_c, 0, 67, 83
1, 397913, Note_off_c, 0, 73, 64
1, 397931, Note_off_c, 0, 67, 63
1, 397934, Note_off_c, 0, 63, 60
1, 397966, Note_on_c, 0, 54, 69
1, 398018, Note_off_c, 0, 54, 63
1, 398028, Note_on_c, 0, 49, 65
1, 398059, Note_on_c, 0, 61, 61
1, 398082, Note_on_c, 0, 78, 90
1, 398086, Note_on_c, 0, 73, 84
1, 398088, Note_on_c, 0, 66, 90
1, 398092, Note_off_c, 0, 49, 63
1, 398107, Note_on_c, 0, 54, 65
1, 398122, Note_off_c, 0, 61, 49
1, 398200, Note_off_c, 0, 66, 60
1, 398208, Note_off_c, 0, 78, 66
1, 398253, Note_on_c, 0, 76, 29
1, 398259, Note_off_c, 0, 54, 63
1, 398270, Note_on_c, 0, 77, 9
1, 398275, Note_on_c, 0, 44, 72
1, 398291, Note_off_c, 0, 73, 60
1, 398300, Note_off_c, 0, 76, 60
1, 398315, Note_off_c, 0, 77, 37
1, 398340, Note_on_c, 0, 77, 76
1, 398342, Control_c, 0, 64, 82
1, 398350, Note_on_c, 0, 73, 81
1, 398355, Note_on_c, 0, 65, 81
1, 398357, Control_c, 0, 64, 31
1, 398359, Note_on_c, 0, 71, 72
1, 398372, Control_c, 0, 64, 0
1, 398401, Control_c, 0, 64, 18
1, 398416, Control_c, 0, 64, 58
1, 398430, Control_c, 0, 64, 76
1, 398445, Control_c, 0, 64, 127
1, 398479, Note_off_c, 0, 65, 65
1, 398491, Note_on_c, 0, 49, 58
1, 398497, Note_off_c, 0, 44, 64
1, 398519, Note_on_c, 0, 53, 73
1, 398526, Note_off_c, 0, 77, 64
1, 398532, Note_off_c, 0, 71, 64
1, 398551, Note_off_c, 0, 73, 65
1, 398570, Note_off_c, 0, 49, 61
1, 398585, Note_on_c, 0, 60, 78
1, 398616, Note_off_c, 0, 53, 62
1, 398635, Note_off_c, 0, 60, 64
1, 398657, Note_on_c, 0, 53, 60
1, 398739, Note_on_c, 0, 61, 83
1, 398784, Note_on_c, 0, 71, 92
1, 398785, Note_on_c, 0, 73, 90
1, 398785, Note_on_c, 0, 83, 92
1, 398786, Note_on_c, 0, 77, 91
1, 398802, Note_off_c, 0, 61, 62
1, 398813, Note_off_c, 0, 71, 62
1, 398821, Note_on_c, 0, 49, 77
1, 398825, Note_off_c, 0, 73, 65
1, 398831, Note_off_c, 0, 53, 63
1, 398834, Note_off_c, 0, 77, 65
1, 398847, Note_off_c, 0, 83, 62
1, 399021, Note_on_c, 0, 42, 81
1, 399059, Control_c, 0, 64, 121
1, 399062, Note_off_c, 0, 49, 63
1, 399074, Control_c, 0, 64, 69
1, 399084, Note_on_c, 0, 83, 89
1, 399089, Control_c, 0, 64, 0
1, 399090, Note_on_c, 0, 71, 85
1, 399093, Note_on_c, 0, 73, 87
1, 399095, Note_on_c, 0, 78, 89
1, 399120, Control_c, 0, 64, 31
1, 399134, Control_c, 0, 64, 62
1, 399149, Control_c, 0, 64, 74
1, 399164, Control_c, 0, 64, 112
1, 399179, Control_c, 0, 64, 127
1, 399220, Note_on_c, 0, 49, 56
1, 399220, Note_off_c, 0, 42, 63
1, 399260, Note_on_c, 0, 54, 80
1, 399268, Note_off_c, 0, 49, 61
1, 399348, Note_off_c, 0, 83, 63
1, 399353, Note_off_c, 0, 54, 57
1, 399359, Note_on_c, 0, 63, 81
1, 399365, Note_off_c, 0, 78, 63
1, 399397, Note_off_c, 0, 71, 63
1, 399420, Note_off_c, 0, 73, 59
1, 399422, Note_off_c, 0, 63, 58
1, 399441, Note_on_c, 0, 54, 76
1, 399502, Note_off_c, 0, 54, 63
1, 399511, Note_on_c, 0, 64, 77
1, 399558, Note_on_c, 0, 73, 84
1, 399561, Note_on_c, 0, 82, 89
1, 399562, Note_off_c, 0, 64, 64
1, 399564, Note_on_c, 0, 70, 95
1, 399577, Note_on_c, 0, 54, 60
1, 399603, Note_off_c, 0, 73, 66
1, 399609, Note_on_c, 0, 49, 68
1, 399610, Note_off_c, 0, 54, 65
1, 399634, Note_off_c, 0, 70, 58
1, 399638, Note_off_c, 0, 49, 67
1, 399653, Note_off_c, 0, 82, 60
1, 399790, Note_on_c, 0, 43, 78
1, 399818, Note_on_c, 0, 82, 87
1, 399824, Note_on_c, 0, 70, 86
1, 399827, Note_on_c, 0, 75, 82
1, 399833, Note_on_c, 0, 73, 80
1, 399853, Control_c, 0, 64, 69
1, 399867, Control_c, 0, 64, 0
1, 399913, Control_c, 0, 64, 47
1, 399928, Control_c, 0, 64, 66
1, 399943, Control_c, 0, 64, 76
1, 399961, Note_on_c, 0, 49, 67
1, 399964, Control_c, 0, 64, 96
1, 399979, Control_c, 0, 64, 127
1, 399991, Note_off_c, 0, 82, 65
1, 399994, Note_off_c, 0, 43, 61
1, 400011, Note_off_c, 0, 75, 61
1, 400017, Note_on_c, 0, 51, 74
1, 400035, Note_off_c, 0, 73, 63
1, 400040, Note_off_c, 0, 49, 63
1, 400043, Note_off_c, 0, 70, 65
1, 400053, Note_on_c, 0, 57, 77
1, 400071, Note_off_c, 0, 51, 62
1, 400101, Note_off_c, 0, 57, 65
1, 400137, Note_on_c, 0, 51, 70
1, 400201, Note_on_c, 0, 58, 77
1, 400210, Note_off_c, 0, 51, 61
1, 400238, Note_on_c, 0, 75, 96
1, 400241, Note_on_c, 0, 63, 90
1, 400251, Note_on_c, 0, 70, 83
1, 400264, Note_on_c, 0, 72, 67
1, 400280, Note_off_c, 0, 58, 61
1, 400282, Note_on_c, 0, 51, 39
1, 400285, Note_on_c, 0, 49, 69
1, 400342, Note_off_c, 0, 75, 62
1, 400343, Note_off_c, 0, 63, 58
1, 400346, Note_off_c, 0, 70, 61
1, 400359, Note_off_c, 0, 51, 61
1, 400404, Note_off_c, 0, 49, 62
1, 400415, Note_on_c, 0, 44, 69
1, 400429, Note_on_c, 0, 46, 67
1, 400442, Note_off_c, 0, 72, 36
1, 400453, Control_c, 0, 64, 115
1, 400467, Control_c, 0, 64, 68
1, 400476, Note_on_c, 0, 72, 72
1, 400476, Note_on_c, 0, 75, 87
1, 400480, Note_on_c, 0, 63, 93
1, 400482, Control_c, 0, 64, 28
1, 400483, Note_on_c, 0, 70, 80
1, 400497, Control_c, 0, 64, 18
1, 400512, Control_c, 0, 64, 41
1, 400527, Control_c, 0, 64, 62
1, 400542, Control_c, 0, 64, 71
1, 400542, Note_off_c, 0, 44, 63
1, 400555, Note_on_c, 0, 51, 66
1, 400556, Control_c, 0, 64, 90
1, 400565, Note_off_c, 0, 46, 61
1, 400571, Control_c, 0, 64, 127
1, 400577, Note_off_c, 0, 70, 62
1, 400586, Note_off_c, 0, 51, 62
1, 400596, Note_on_c, 0, 56, 70
1, 400620, Note_off_c, 0, 63, 63
1, 400664, Note_off_c, 0, 56, 61
1, 400664, Poly_aftertouch_c, 0, 73, 127
1, 400670, Note_on_c, 0, 64, 79
1, 400678, Note_off_c, 0, 75, 59
1, 400688, Note_on_c, 0, 69, 87
1, 400688, Note_off_c, 0, 72, 60
1, 400693, Note_on_c, 0, 51, 59
1, 400709, Poly_aftertouch_c, 0, 73, 0
1, 400716, Note_off_c, 0, 69, 71
1, 400725, Note_off_c, 0, 64, 63
1, 400735, Note_on_c, 0, 56, 71
1, 400736, Note_off_c, 0, 51, 62
1, 400801, Note_off_c, 0, 56, 64
1, 400824, Note_on_c, 0, 63, 78
1, 400834, Note_on_c, 0, 51, 61
1, 400882, Note_on_c, 0, 56, 70
1, 400891, Note_on_c, 0, 75, 93
1, 400892, Note_off_c, 0, 63, 61
1, 400897, Note_on_c, 0, 68, 97
1, 400897, Note_on_c, 0, 80, 82
1, 400940, Note_off_c, 0, 68, 59
1, 400944, Note_off_c, 0, 75, 58
1, 400951, Note_off_c, 0, 80, 60
1, 400955, Note_off_c, 0, 51, 62
1, 401083, Note_on_c, 0, 46, 79
1, 401084, Control_c, 0, 64, 96
1, 401091, Note_on_c, 0, 80, 94
1, 401093, Note_on_c, 0, 68, 102
1, 401094, Note_on_c, 0, 73, 94
1, 401095, Note_off_c, 0, 56, 64
1, 401099, Control_c, 0, 64, 61
1, 401102, Note_on_c, 0, 75, 76
1, 401113, Control_c, 0, 64, 0
1, 401143, Control_c, 0, 64, 53
1, 401158, Control_c, 0, 64, 69
1, 401166, Note_off_c, 0, 75, 38
1, 401173, Control_c, 0, 64, 92
1, 401187, Note_on_c, 0, 51, 73
1, 401187, Control_c, 0, 64, 127
1, 401189, Note_off_c, 0, 46, 62
1, 401207, Note_off_c, 0, 68, 58
1, 401222, Note_off_c, 0, 80, 63
1, 401228, Note_on_c, 0, 55, 69
1, 401283, Note_off_c, 0, 51, 63
1, 401294, Note_on_c, 0, 79, 96
1, 401299, Note_on_c, 0, 62, 85
1, 401303, Note_on_c, 0, 67, 90
1, 401326, Note_off_c, 0, 67, 66
1, 401326, Note_off_c, 0, 73, 65
1, 401330, Note_off_c, 0, 55, 62
1, 401345, Note_off_c, 0, 79, 67
1, 401350, Note_off_c, 0, 62, 65
1, 401374, Note_on_c, 0, 55, 62
1, 401484, Note_on_c, 0, 63, 78
1, 401514, Note_on_c, 0, 73, 109
1, 401516, Note_on_c, 0, 75, 103
1, 401516, Note_on_c, 0, 79, 80
1, 401517, Note_on_c, 0, 85, 95
1, 401541, Note_off_c, 0, 63, 63
1, 401544, Note_off_c, 0, 79, 65
1, 401546, Note_off_c, 0, 73, 67
1, 401553, Note_off_c, 0, 75, 65
1, 401556, Note_off_c, 0, 85, 67
1, 401570, Note_on_c, 0, 51, 80
1, 401612, Note_off_c, 0, 55, 61
1, 401767, Note_on_c, 0, 44, 85
1, 401767, Note_on_c, 0, 80, 102
1, 401769, Note_on_c, 0, 73, 98
1, 401769, Note_on_c, 0, 85, 92
1, 401773, Control_c, 0, 64, 77
1, 401774, Note_on_c, 0, 75, 95
1, 401774, Note_off_c, 0, 51, 65
1, 401788, Control_c, 0, 64, 0
1, 401848, Control_c, 0, 64, 63
1, 401862, Control_c, 0, 64, 81
1, 401866, Note_off_c, 0, 44, 64
1, 401874, Note_on_c, 0, 51, 71
1, 401877, Control_c, 0, 64, 127
1, 401921, Note_on_c, 0, 56, 86
1, 401946, Note_off_c, 0, 51, 61
1, 402018, Note_on_c, 0, 63, 88
1, 402020, Note_off_c, 0, 56, 61
1, 402023, Note_off_c, 0, 73, 64
1, 402038, Note_off_c, 0, 85, 64
1, 402077, Poly_aftertouch_c, 0, 82, 127
1, 402102, Note_off_c, 0, 80, 59
1, 402104, Note_on_c, 0, 56, 82
1, 402108, Note_off_c, 0, 75, 54
1, 402117, Note_off_c, 0, 63, 61
1, 402143, Note_on_c, 0, 51, 65
1, 402182, Note_off_c, 0, 51, 66
1, 402190, Note_off_c, 0, 56, 63
1, 402221, Poly_aftertouch_c, 0, 82, 0
1, 402262, Note_on_c, 0, 84, 98
1, 402263, Note_on_c, 0, 80, 98
1, 402268, Note_on_c, 0, 72, 95
1, 402268, Note_on_c, 0, 75, 93
1, 402283, Note_on_c, 0, 68, 92
1, 402355, Note_off_c, 0, 68, 59
1, 402381, Note_on_c, 0, 63, 58
1, 402429, Note_on_c, 0, 56, 76
1, 402432, Note_off_c, 0, 75, 61
1, 402456, Note_off_c, 0, 63, 63
1, 402457, Note_off_c, 0, 84, 57
1, 402468, Note_off_c, 0, 56, 62
1, 402582, Note_off_c, 0, 72, 57
1, 402652, Note_on_c, 0, 84, 95
1, 402658, Note_on_c, 0, 78, 102
1, 402658, Note_on_c, 0, 72, 105
1, 402670, Note_on_c, 0, 46, 81
1, 402670, Control_c, 0, 64, 97
1, 402685, Control_c, 0, 64, 58
1, 402700, Control_c, 0, 64, 0
1, 402722, Note_off_c, 0, 80, 59
1, 402745, Control_c, 0, 64, 54
1, 402759, Control_c, 0, 64, 75
1, 402774, Control_c, 0, 64, 127
1, 402826, Note_off_c, 0, 78, 66
1, 402855, Note_off_c, 0, 84, 54
1, 402867, Note_on_c, 0, 49, 66
1, 402907, Note_off_c, 0, 72, 60
1, 402933, Note_on_c, 0, 54, 72
1, 403012, Note_on_c, 0, 82, 79
1, 403013, Note_on_c, 0, 73, 97
1, 403016, Note_on_c, 0, 70, 93
1, 403018, Note_on_c, 0, 61, 83
1, 403034, Note_off_c, 0, 82, 71
1, 403036, Note_off_c, 0, 54, 62
1, 403053, Note_off_c, 0, 73, 61
1, 403061, Note_off_c, 0, 70, 63
1, 403077, Note_off_c, 0, 61, 60
1, 403104, Note_on_c, 0, 54, 70
1, 403118, Note_off_c, 0, 49, 21
1, 403125, Note_off_c, 0, 46, 61
1, 403169, Note_on_c, 0, 61, 62
1, 403174, Note_off_c, 0, 54, 63
1, 403224, Note_on_c, 0, 66, 99
1, 403226, Note_on_c, 0, 78, 92
1, 403230, Note_on_c, 0, 73, 88
1, 403241, Note_off_c, 0, 61, 61
1, 403251, Note_off_c, 0, 78, 67
1, 403252, Note_on_c, 0, 54, 63
1, 403258, Note_off_c, 0, 66, 66
1, 403259, Note_off_c, 0, 73, 62
1, 403262, Note_on_c, 0, 46, 71
1, 403293, Note_off_c, 0, 54, 64
1, 403307, Note_off_c, 0, 46, 62
1, 403474, Poly_aftertouch_c, 0, 70, 127
1, 403494, Note_on_c, 0, 73, 96
1, 403505, Note_on_c, 0, 61, 83
1, 403516, Note_on_c, 0, 34, 72
1, 403523, Control_c, 0, 64, 86
1, 403523, Poly_aftertouch_c, 0, 70, 0
1, 403538, Control_c, 0, 64, 59
1, 403553, Control_c, 0, 64, 0
1, 403582, Control_c, 0, 64, 30
1, 403597, Control_c, 0, 64, 62
1, 403612, Control_c, 0, 64, 73
1, 403626, Control_c, 0, 64, 96
1, 403641, Control_c, 0, 64, 127
1, 403665, Note_on_c, 0, 42, 68
1, 403675, Note_off_c, 0, 73, 65
1, 403688, Note_off_c, 0, 61, 62
1, 403791, Note_on_c, 0, 49, 57
1, 403791, Note_off_c, 0, 42, 59
1, 403838, Note_on_c, 0, 58, 90
1, 403839, Note_on_c, 0, 70, 90
1, 403862, Note_on_c, 0, 61, 64
1, 403898, Note_off_c, 0, 49, 60
1, 403906, Note_on_c, 0, 42, 63
1, 403973, Note_off_c, 0, 42, 61
1, 403991, Note_on_c, 0, 49, 57
1, 404051, Note_off_c, 0, 49, 59
1, 404052, Note_off_c, 0, 34, 37
1, 404068, Note_on_c, 0, 42, 70
1, 404068, Note_off_c, 0, 70, 64
1, 404069, Note_off_c, 0, 58, 65
1, 404078, Note_off_c, 0, 61, 63
1, 404322, Note_on_c, 0, 68, 86
1, 404331, Note_on_c, 0, 56, 76
1, 404358, Note_on_c, 0, 61, 52
1, 404399, Note_off_c, 0, 61, 56
1, 404416, Note_off_c, 0, 56, 62
1, 404419, Note_off_c, 0, 68, 60
1, 404528, Note_on_c, 0, 68, 90
1, 404529, Note_on_c, 0, 56, 85
1, 404542, Note_on_c, 0, 34, 48
1, 404545, Note_on_c, 0, 61, 75
1, 404575, Control_c, 0, 64, 106
1, 404590, Control_c, 0, 64, 62
1, 404605, Control_c, 0, 64, 0
1, 404620, Note_off_c, 0, 42, 56
1, 404694, Control_c, 0, 64, 63
1, 404709, Control_c, 0, 64, 71
1, 404724, Control_c, 0, 64, 79
1, 404739, Control_c, 0, 64, 85
1, 404751, Note_on_c, 0, 42, 61
1, 404754, Control_c, 0, 64, 89
1, 404769, Control_c, 0, 64, 96
1, 404784, Control_c, 0, 64, 115
1, 404799, Control_c, 0, 64, 127
1, 404847, Note_on_c, 0, 49, 60
1, 404847, Note_off_c, 0, 42, 62
1, 404912, Note_off_c, 0, 49, 58
1, 404936, Note_on_c, 0, 42, 63
1, 404946, Note_off_c, 0, 68, 59
1, 404958, Note_off_c, 0, 34, 35
1, 404972, Note_off_c, 0, 56, 59
1, 405013, Note_off_c, 0, 61, 60
1, 405014, Note_off_c, 0, 42, 62
1, 405029, Note_on_c, 0, 49, 55
1, 405088, Note_on_c, 0, 66, 84
1, 405101, Note_on_c, 0, 61, 71
1, 405106, Note_on_c, 0, 54, 69
1, 405109, Note_on_c, 0, 42, 59
1, 405179, Note_off_c, 0, 49, 0
1, 405208, Note_on_c, 0, 49, 12
1, 405273, Note_off_c, 0, 49, 57
1, 405313, Note_on_c, 0, 34, 62
1, 405324, Control_c, 0, 64, 100
1, 405328, Note_off_c, 0, 42, 59
1, 405339, Control_c, 0, 64, 64
1, 405353, Control_c, 0, 64, 0
1, 405413, Control_c, 0, 64, 34
1, 405428, Control_c, 0, 64, 61
1, 405443, Control_c, 0, 64, 67
1, 405458, Control_c, 0, 64, 72
1, 405472, Control_c, 0, 64, 79
1, 405473, Note_on_c, 0, 42, 50
1, 405487, Control_c, 0, 64, 90
1, 405502, Control_c, 0, 64, 127
1, 405508, Note_off_c, 0, 54, 64
1, 405536, Note_off_c, 0, 66, 58
1, 405549, Note_off_c, 0, 61, 54
1, 405570, Poly_aftertouch_c, 0, 64, 127
1, 405583, Note_on_c, 0, 61, 54
1, 405588, Note_on_c, 0, 65, 81
1, 405591, Note_on_c, 0, 53, 72
1, 405607, Control_c, 0, 64, 105
1, 405613, Note_on_c, 0, 49, 53
1, 405621, Control_c, 0, 64, 71
1, 405624, Note_off_c, 0, 42, 58
1, 405636, Control_c, 0, 64, 62
1, 405651, Control_c, 0, 64, 61
1, 405654, Poly_aftertouch_c, 0, 64, 0
1, 405666, Control_c, 0, 64, 63
1, 405681, Control_c, 0, 64, 67
1, 405695, Control_c, 0, 64, 74
1, 405710, Control_c, 0, 64, 85
1, 405714, Note_off_c, 0, 49, 61
1, 405725, Control_c, 0, 64, 95
1, 405738, Note_on_c, 0, 42, 69
1, 405740, Control_c, 0, 64, 100
1, 405755, Control_c, 0, 64, 101
1, 405776, Note_off_c, 0, 65, 63
1, 405799, Control_c, 0, 64, 102
1, 405803, Note_off_c, 0, 53, 63
1, 405805, Note_off_c, 0, 42, 62
1, 405814, Control_c, 0, 64, 105
1, 405824, Note_on_c, 0, 49, 56
1, 405829, Control_c, 0, 64, 115
1, 405843, Control_c, 0, 64, 127
1, 405845, Note_off_c, 0, 61, 63
1, 405849, Note_off_c, 0, 34, 21
1, 405911, Note_on_c, 0, 42, 58
1, 405985, Note_on_c, 0, 66, 86
1, 405998, Note_on_c, 0, 54, 76
1, 405999, Note_on_c, 0, 61, 72
1, 406016, Note_off_c, 0, 49, 36
1, 406127, Note_off_c, 0, 54, 62
1, 406191, Note_off_c, 0, 66, 61
1, 406192, Note_on_c, 0, 34, 55
1, 406221, Note_off_c, 0, 42, 50
1, 406282, Note_on_c, 0, 55, 61
1, 406284, Note_on_c, 0, 67, 70
1, 406325, Control_c, 0, 64, 105
1, 406329, Note_on_c, 0, 65, 26
1, 406340, Control_c, 0, 64, 76
1, 406355, Control_c, 0, 64, 40
1, 406370, Control_c, 0, 64, 0
1, 406380, Note_off_c, 0, 65, 45
1, 406474, Control_c, 0, 64, 56
1, 406489, Control_c, 0, 64, 63
1, 406504, Control_c, 0, 64, 65
1, 406518, Control_c, 0, 64, 64
1, 406548, Control_c, 0, 64, 65
1, 406563, Control_c, 0, 64, 66
1, 406578, Control_c, 0, 64, 68
1, 406591, Note_on_c, 0, 41, 53
1, 406592, Control_c, 0, 64, 71
1, 406607, Control_c, 0, 64, 76
1, 406622, Control_c, 0, 64, 82
1, 406637, Control_c, 0, 64, 92
1, 406646, Note_off_c, 0, 41, 59
1, 406651, Control_c, 0, 64, 100
1, 406666, Note_on_c, 0, 49, 49
1, 406666, Control_c, 0, 64, 107
1, 406681, Control_c, 0, 64, 112
1, 406704, Control_c, 0, 64, 116
1, 406718, Control_c, 0, 64, 127
1, 406724, Note_off_c, 0, 49, 55
1, 406733, Note_off_c, 0, 67, 56
1, 406740, Note_off_c, 0, 55, 55
1, 406754, Note_on_c, 0, 41, 60
1, 406774, Note_off_c, 0, 34, 35
1, 406886, Note_on_c, 0, 67, 69
1, 406896, Note_on_c, 0, 55, 60
1, 406903, Note_on_c, 0, 49, 56
1, 406951, Note_off_c, 0, 67, 62
1, 406952, Note_off_c, 0, 61, 53
1, 406962, Note_off_c, 0, 55, 62
1, 406969, Note_off_c, 0, 41, 0
1, 406986, Note_on_c, 0, 41, 34
1, 407027, Note_off_c, 0, 49, 58
1, 407171, Note_on_c, 0, 36, 53
1, 407177, Note_on_c, 0, 68, 69
1, 407187, Note_on_c, 0, 65, 61
1, 407189, Note_on_c, 0, 56, 61
1, 407193, Control_c, 0, 64, 75
1, 407197, Note_off_c, 0, 41, 42
1, 407208, Control_c, 0, 64, 60
1, 407222, Control_c, 0, 64, 34
1, 407237, Control_c, 0, 64, 27
1, 407252, Control_c, 0, 64, 34
1, 407267, Control_c, 0, 64, 53
1, 407282, Control_c, 0, 64, 63
1, 407297, Control_c, 0, 64, 69
1, 407312, Control_c, 0, 64, 75
1, 407327, Control_c, 0, 64, 82
1, 407341, Control_c, 0, 64, 88
1, 407345, Note_on_c, 0, 41, 58
1, 407349, Note_off_c, 0, 36, 57
1, 407356, Control_c, 0, 64, 96
1, 407371, Control_c, 0, 64, 109
1, 407386, Control_c, 0, 64, 127
1, 407390, Note_off_c, 0, 41, 63
1, 407423, Note_on_c, 0, 48, 69
1, 407437, Note_off_c, 0, 56, 61
1, 407470, Note_off_c, 0, 65, 54
1, 407503, Note_off_c, 0, 48, 63
1, 407525, Note_off_c, 0, 68, 60
1, 407529, Note_on_c, 0, 49, 75
1, 407580, Note_off_c, 0, 49, 64
1, 407614, Note_on_c, 0, 50, 62
1, 407651, Note_on_c, 0, 69, 77
1, 407652, Note_on_c, 0, 65, 81
1, 407653, Note_on_c, 0, 57, 71
1, 407668, Note_on_c, 0, 51, 78
1, 407669, Note_off_c, 0, 50, 56
1, 407683, Note_off_c, 0, 57, 66
1, 407708, Note_off_c, 0, 65, 64
1, 407711, Note_off_c, 0, 51, 62
1, 407711, Note_on_c, 0, 52, 65
1, 407715, Note_off_c, 0, 69, 62
1, 407737, Note_off_c, 0, 52, 65
1, 407779, Note_on_c, 0, 52, 58
1, 407812, Note_off_c, 0, 52, 59
1, 407940, Note_on_c, 0, 37, 71
1, 407942, Control_c, 0, 64, 105
1, 407956, Note_on_c, 0, 72, 85
1, 407957, Control_c, 0, 64, 66
1, 407961, Note_on_c, 0, 60, 75
1, 407963, Note_on_c, 0, 65, 74
1, 407971, Control_c, 0, 64, 0
1, 408031, Control_c, 0, 64, 60
1, 408045, Control_c, 0, 64, 70
1, 408060, Control_c, 0, 64, 83
1, 408075, Control_c, 0, 64, 123
1, 408082, Note_on_c, 0, 46, 73
1, 408090, Control_c, 0, 64, 127
1, 408111, Note_off_c, 0, 37, 58
1, 408146, Note_off_c, 0, 46, 62
1, 408162, Note_on_c, 0, 48, 72
1, 408170, Note_off_c, 0, 72, 63
1, 408215, Note_off_c, 0, 60, 64
1, 408229, Note_off_c, 0, 48, 64
1, 408233, Note_off_c, 0, 65, 57
1, 408245, Note_on_c, 0, 49, 80
1, 408297, Note_off_c, 0, 49, 64
1, 408327, Note_on_c, 0, 52, 77
1, 408367, Note_on_c, 0, 65, 81
1, 408368, Note_on_c, 0, 70, 88
1, 408373, Note_on_c, 0, 58, 76
1, 408374, Note_on_c, 0, 51, 76
1, 408382, Note_off_c, 0, 52, 0
1, 408400, Note_off_c, 0, 58, 67
1, 408401, Note_off_c, 0, 51, 66
1, 408408, Note_off_c, 0, 65, 64
1, 408420, Note_off_c, 0, 70, 67
1, 408423, Poly_aftertouch_c, 0, 52, 0
1, 408449, Note_on_c, 0, 53, 78
1, 408461, Note_on_c, 0, 52, 28
1, 408522, Note_off_c, 0, 53, 45
1, 408522, Note_off_c, 0, 52, 45
1, 408615, Note_on_c, 0, 40, 71
1, 408615, Control_c, 0, 64, 82
1, 408630, Control_c, 0, 64, 48
1, 408631, Note_on_c, 0, 73, 85
1, 408639, Note_on_c, 0, 67, 77
1, 408641, Note_on_c, 0, 61, 80
1, 408645, Control_c, 0, 64, 0
1, 408691, Control_c, 0, 64, 65
1, 408706, Control_c, 0, 64, 85
1, 408720, Control_c, 0, 64, 127
1, 408731, Note_off_c, 0, 67, 63
1, 408754, Note_on_c, 0, 48, 66
1, 408786, Note_off_c, 0, 40, 63
1, 408788, Note_off_c, 0, 73, 63
1, 408796, Note_off_c, 0, 61, 63
1, 408811, Note_off_c, 0, 48, 64
1, 408871, Note_on_c, 0, 67, 80
1, 408877, Note_on_c, 0, 71, 86
1, 408878, Note_on_c, 0, 59, 86
1, 408883, Note_on_c, 0, 51, 74
1, 408921, Note_off_c, 0, 59, 64
1, 408921, Note_off_c, 0, 67, 64
1, 408923, Note_on_c, 0, 52, 73
1, 408945, Note_off_c, 0, 51, 62
1, 408968, Note_off_c, 0, 71, 58
1, 408988, Note_off_c, 0, 52, 65
1, 408990, Note_on_c, 0, 53, 80
1, 409046, Note_off_c, 0, 53, 57
1, 409063, Note_on_c, 0, 67, 94
1, 409064, Note_on_c, 0, 72, 94
1, 409067, Note_on_c, 0, 60, 93
1, 409073, Note_on_c, 0, 54, 81
1, 409096, Note_off_c, 0, 60, 63
1, 409101, Note_off_c, 0, 72, 67
1, 409106, Note_off_c, 0, 67, 67
1, 409122, Note_off_c, 0, 54, 65
1, 409130, Note_on_c, 0, 55, 86
1, 409256, Note_on_c, 0, 42, 36
1, 409260, Note_off_c, 0, 55, 56
1, 409276, Note_on_c, 0, 44, 17
1, 409292, Note_off_c, 0, 42, 49
1, 409300, Note_on_c, 0, 41, 78
1, 409321, Note_on_c, 0, 75, 95
1, 409323, Note_on_c, 0, 63, 92
1, 409329, Note_on_c, 0, 68, 92
1, 409334, Control_c, 0, 64, 61
1, 409349, Control_c, 0, 64, 0
1, 409356, Note_off_c, 0, 44, 34
1, 409379, Note_on_c, 0, 73, 32
1, 409393, Control_c, 0, 64, 48
1, 409398, Poly_aftertouch_c, 0, 71, 127
1, 409408, Control_c, 0, 64, 69
1, 409423, Control_c, 0, 64, 95
1, 409424, Note_on_c, 0, 49, 68
1, 409428, Poly_aftertouch_c, 0, 71, 0
1, 409437, Note_off_c, 0, 41, 64
1, 409437, Control_c, 0, 64, 127
1, 409456, Note_off_c, 0, 49, 67
1, 409474, Note_off_c, 0, 73, 55
1, 409507, Note_off_c, 0, 75, 62
1, 409518, Note_on_c, 0, 51, 85
1, 409520, Note_off_c, 0, 63, 63
1, 409534, Note_off_c, 0, 68, 59
1, 409567, Note_on_c, 0, 52, 70
1, 409575, Note_off_c, 0, 51, 65
1, 409616, Note_off_c, 0, 52, 65
1, 409625, Note_on_c, 0, 53, 78
1, 409725, Note_off_c, 0, 53, 61
1, 409729, Note_on_c, 0, 54, 60
1, 409734, Note_on_c, 0, 73, 97
1, 409735, Note_on_c, 0, 61, 100
1, 409741, Note_on_c, 0, 68, 83
1, 409763, Note_on_c, 0, 55, 47
1, 409765, Note_off_c, 0, 54, 51
1, 409840, Note_off_c, 0, 55, 63
1, 409857, Poly_aftertouch_c, 0, 53, 0
1, 409893, Note_on_c, 0, 43, 97
1, 409905, Control_c, 0, 64, 112
1, 409920, Control_c, 0, 64, 51
1, 409935, Control_c, 0, 64, 0
1, 409962, Note_off_c, 0, 61, 63
1, 409967, Note_off_c, 0, 73, 63
1, 409980, Control_c, 0, 64, 57
1, 409994, Control_c, 0, 64, 77
1, 410009, Note_on_c, 0, 51, 83
1, 410009, Control_c, 0, 64, 103
1, 410024, Control_c, 0, 64, 127
1, 410042, Note_off_c, 0, 43, 58
1, 410051, Note_off_c, 0, 68, 56
1, 410082, Note_off_c, 0, 51, 65
1, 410093, Note_on_c, 0, 52, 90
1, 410118, Note_on_c, 0, 75, 95
1, 410120, Note_on_c, 0, 63, 106
1, 410135, Note_on_c, 0, 72, 41
1, 410148, Note_off_c, 0, 52, 65
1, 410162, Note_off_c, 0, 72, 55
1, 410164, Note_on_c, 0, 76, 32
1, 410175, Note_on_c, 0, 54, 89
1, 410197, Note_off_c, 0, 63, 65
1, 410209, Note_off_c, 0, 75, 61
1, 410225, Note_off_c, 0, 76, 37
1, 410233, Note_off_c, 0, 54, 65
1, 410248, Note_on_c, 0, 55, 90
1, 410317, Note_off_c, 0, 55, 57
1, 410322, Note_on_c, 0, 56, 87
1, 410337, Note_on_c, 0, 76, 96
1, 410339, Note_on_c, 0, 64, 101
1, 410368, Note_off_c, 0, 56, 66
1, 410370, Note_off_c, 0, 64, 69
1, 410378, Note_on_c, 0, 57, 84
1, 410378, Note_off_c, 0, 76, 66
1, 410394, Note_on_c, 0, 55, 67
1, 410415, Note_off_c, 0, 55, 62
1, 410432, Note_off_c, 0, 57, 59
1, 410525, Note_on_c, 0, 75, 12
1, 410564, Note_on_c, 0, 44, 89
1, 410565, Control_c, 0, 64, 75
1, 410567, Note_on_c, 0, 77, 100
1, 410570, Note_off_c, 0, 75, 51
1, 410570, Note_on_c, 0, 72, 97
1, 410571, Note_on_c, 0, 65, 103
1, 410580, Control_c, 0, 64, 0
1, 410606, Note_on_c, 0, 43, 41
1, 410625, Control_c, 0, 64, 50
1, 410638, Note_off_c, 0, 43, 53
1, 410639, Control_c, 0, 64, 72
1, 410654, Control_c, 0, 64, 107
1, 410669, Control_c, 0, 64, 127
1, 410721, Note_on_c, 0, 53, 58
1, 410725, Note_on_c, 0, 75, 91
1, 410732, Note_off_c, 0, 65, 60
1, 410738, Note_off_c, 0, 77, 62
1, 410749, Note_off_c, 0, 44, 62
1, 410752, Note_on_c, 0, 52, 41
1, 410758, Note_off_c, 0, 72, 58
1, 410778, Note_on_c, 0, 56, 76
1, 410781, Note_off_c, 0, 53, 63
1, 410784, Note_off_c, 0, 52, 34
1, 410797, Note_off_c, 0, 75, 62
1, 410802, Note_off_c, 0, 56, 67
1, 410867, Note_on_c, 0, 82, 97
1, 410871, Note_on_c, 0, 70, 105
1, 410875, Note_on_c, 0, 61, 90
1, 410886, Note_on_c, 0, 73, 78
1, 410910, Note_on_c, 0, 83, 38
1, 410939, Note_off_c, 0, 83, 57
1, 410955, Note_on_c, 0, 56, 58
1, 410960, Note_off_c, 0, 61, 60
1, 411020, Note_off_c, 0, 82, 60
1, 411035, Note_off_c, 0, 56, 61
1, 411041, Note_off_c, 0, 70, 58
1, 411044, Note_on_c, 0, 65, 85
1, 411124, Note_off_c, 0, 65, 63
1, 411143, Note_off_c, 0, 73, 0
1, 411145, Note_on_c, 0, 61, 90
1, 411154, Note_on_c, 0, 77, 103
1, 411158, Note_on_c, 0, 80, 95
1, 411160, Note_on_c, 0, 68, 109
1, 411176, Poly_aftertouch_c, 0, 73, 0
1, 411228, Note_on_c, 0, 56, 78
1, 411264, Note_off_c, 0, 80, 62
1, 411265, Note_off_c, 0, 61, 57
1, 411301, Note_on_c, 0, 53, 80
1, 411315, Note_off_c, 0, 56, 62
1, 411322, Note_off_c, 0, 68, 55
1, 411325, Note_off_c, 0, 53, 69
1, 411510, Note_on_c, 0, 72, 101
1, 411512, Note_on_c, 0, 80, 94
1, 411515, Note_on_c, 0, 66, 102
1, 411520, Note_on_c, 0, 32, 96
1, 411536, Control_c, 0, 64, 84
1, 411550, Note_on_c, 0, 78, 24
1, 411551, Control_c, 0, 64, 50
1, 411566, Control_c, 0, 64, 0
1, 411593, Note_off_c, 0, 77, 50
1, 411595, Control_c, 0, 64, 56
1, 411609, Poly_aftertouch_c, 0, 34, 127
1, 411610, Control_c, 0, 64, 75
1, 411625, Control_c, 0, 64, 127
1, 411640, Poly_aftertouch_c, 0, 34, 0
1, 411649, Note_on_c, 0, 44, 92
1, 411664, Note_off_c, 0, 32, 61
1, 411674, Note_off_c, 0, 44, 70
1, 411764, Note_off_c, 0, 66, 56
1, 411780, Note_on_c, 0, 51, 82
1, 411813, Note_off_c, 0, 78, 43
1, 411829, Note_off_c, 0, 80, 63
1, 411840, Note_off_c, 0, 72, 56
1, 411854, Note_on_c, 0, 60, 83
1, 411858, Note_off_c, 0, 51, 64
1, 411931, Note_on_c, 0, 56, 86
1, 411964, Note_off_c, 0, 60, 60
1, 412042, Note_on_c, 0, 66, 92
1, 412063, Note_off_c, 0, 56, 50
1, 412108, Note_off_c, 0, 66, 63
1, 412150, Note_on_c, 0, 60, 97
1, 412153, Note_on_c, 0, 72, 102
1, 412153, Note_on_c, 0, 78, 90
1, 412162, Note_on_c, 0, 66, 95
1, 412231, Note_on_c, 0, 56, 85
1, 412259, Poly_aftertouch_c, 0, 76, 127
1, 412263, Note_off_c, 0, 60, 62
1, 412330, Note_off_c, 0, 66, 53
1, 412334, Poly_aftertouch_c, 0, 76, 0
1, 412346, Note_on_c, 0, 51, 97
1, 412346, Note_off_c, 0, 78, 61
1, 412367, Note_off_c, 0, 56, 65
1, 412386, Note_off_c, 0, 51, 67
1, 412655, Note_on_c, 0, 77, 103
1, 412656, Note_on_c, 0, 73, 101
1, 412657, Note_on_c, 0, 65, 97
1, 412658, Note_on_c, 0, 37, 92
1, 412671, Control_c, 0, 64, 109
1, 412695, Control_c, 0, 64, 57
1, 412701, Note_off_c, 0, 72, 70
1, 412710, Control_c, 0, 64, 0
1, 412712, Note_off_c, 0, 77, 68
1, 412713, Note_off_c, 0, 65, 67
1, 412735, Note_off_c, 0, 73, 69
1, 412754, Control_c, 0, 64, 66
1, 412768, Control_c, 0, 64, 108
1, 412783, Control_c, 0, 64, 127
1, 412949, Note_on_c, 0, 53, 90
1, 413011, Note_on_c, 0, 44, 68
1, 413013, Note_off_c, 0, 53, 60
1, 413037, Note_off_c, 0, 37, 57
1, 413062, Note_on_c, 0, 56, 78
1, 413124, Note_off_c, 0, 56, 66
1, 413127, Note_on_c, 0, 49, 82
1, 413128, Note_off_c, 0, 44, 63
1, 413145, Note_on_c, 0, 65, 81
1, 413151, Note_off_c, 0, 49, 69
1, 413184, Note_off_c, 0, 65, 63
1, 413214, Note_on_c, 0, 49, 65
1, 413231, Note_on_c, 0, 65, 77
1, 413241, Note_on_c, 0, 53, 45
1, 413280, Note_off_c, 0, 53, 63
1, 413284, Note_on_c, 0, 56, 72
1, 413285, Note_on_c, 0, 68, 85
1, 413300, Note_off_c, 0, 65, 63
1, 413321, Note_off_c, 0, 49, 63
1, 413335, Note_on_c, 0, 77, 79
1, 413336, Note_off_c, 0, 68, 65
1, 413345, Note_on_c, 0, 61, 79
1, 413347, Note_off_c, 0, 56, 63
1, 413368, Note_off_c, 0, 61, 68
1, 413372, Note_off_c, 0, 77, 58
1, 413414, Note_on_c, 0, 77, 79
1, 413468, Note_on_c, 0, 65, 46
1, 413479, Note_on_c, 0, 80, 89
1, 413481, Note_on_c, 0, 68, 80
1, 413506, Note_off_c, 0, 65, 52
1, 413545, Note_off_c, 0, 68, 62
1, 413556, Note_on_c, 0, 73, 98
1, 413559, Note_on_c, 0, 89, 99
1, 413560, Note_off_c, 0, 80, 65
1, 413598, Note_on_c, 0, 88, 26
1, 413599, Note_off_c, 0, 88, 127
1, 413603, Note_off_c, 0, 77, 64
1, 413605, Note_off_c, 0, 73, 66
1, 413622, Note_on_c, 0, 65, 30
1, 413644, Note_on_c, 0, 80, 83
1, 413650, Note_on_c, 0, 68, 39
1, 413652, Note_off_c, 0, 65, 53
1, 413673, Note_off_c, 0, 89, 58
1, 413691, Note_off_c, 0, 68, 63
1, 413698, Note_on_c, 0, 61, 54
1, 413710, Note_off_c, 0, 80, 63
1, 413715, Note_on_c, 0, 77, 79
1, 413718, Note_off_c, 0, 61, 61
1, 413740, Note_off_c, 0, 77, 67
1, 413772, Note_on_c, 0, 61, 80
1, 413792, Note_on_c, 0, 77, 85
1, 413828, Note_off_c, 0, 61, 58
1, 413837, Note_on_c, 0, 56, 68
1, 413851, Note_on_c, 0, 68, 78
1, 413882, Note_off_c, 0, 77, 57
1, 413907, Note_on_c, 0, 49, 74
1, 413914, Note_off_c, 0, 56, 64
1, 413916, Note_on_c, 0, 65, 87
1, 413918, Note_off_c, 0, 68, 60
1, 413932, Note_off_c, 0, 49, 63
1, 413941, Note_off_c, 0, 65, 67
1, 413988, Note_on_c, 0, 49, 79
1, 413999, Note_on_c, 0, 65, 92
1, 414054, Note_off_c, 0, 49, 62
1, 414056, Note_on_c, 0, 56, 76
1, 414066, Note_on_c, 0, 44, 63
1, 414144, Note_off_c, 0, 65, 33
1, 414154, Note_off_c, 0, 56, 62
1, 414159, Note_on_c, 0, 53, 93
1, 414215, Note_off_c, 0, 44, 62
1, 414235, Control_c, 0, 64, 103
1, 414248, Note_off_c, 0, 53, 59
1, 414250, Control_c, 0, 64, 63
1, 414251, Note_on_c, 0, 37, 92
1, 414257, Note_on_c, 0, 65, 101
1, 414264, Control_c, 0, 64, 0
1, 414310, Control_c, 0, 64, 62
1, 414325, Control_c, 0, 64, 79
1, 414339, Control_c, 0, 64, 127
1, 414347, Note_on_c, 0, 45, 21
1, 414355, Note_on_c, 0, 53, 83
1, 414370, Note_off_c, 0, 65, 57
1, 414421, Note_off_c, 0, 37, 58
1, 414421, Note_on_c, 0, 57, 68
1, 414427, Note_off_c, 0, 53, 64
1, 414450, Note_on_c, 0, 49, 72
1, 414453, Note_off_c, 0, 45, 61
1, 414478, Note_off_c, 0, 49, 66
1, 414481, Note_on_c, 0, 65, 86
1, 414489, Note_off_c, 0, 57, 64
1, 414521, Note_off_c, 0, 65, 62
1, 414545, Note_on_c, 0, 49, 55
1, 414569, Note_on_c, 0, 65, 82
1, 414597, Note_on_c, 0, 57, 55
1, 414615, Note_off_c, 0, 65, 67
1, 414632, Note_on_c, 0, 69, 75
1, 414638, Note_on_c, 0, 67, 68
1, 414646, Note_off_c, 0, 57, 64
1, 414651, Note_off_c, 0, 49, 62
1, 414657, Note_off_c, 0, 67, 65
1, 414666, Note_on_c, 0, 61, 78
1, 414683, Note_off_c, 0, 69, 66
1, 414686, Note_off_c, 0, 61, 70
1, 414704, Note_on_c, 0, 77, 63
1, 414722, Note_on_c, 0, 76, 18
1, 414723, Note_off_c, 0, 77, 64
1, 414764, Note_on_c, 0, 77, 83
1, 414767, Note_off_c, 0, 76, 44
1, 414791, Note_on_c, 0, 69, 70
1, 414819, Note_on_c, 0, 81, 87
1, 414833, Note_off_c, 0, 77, 63
1, 414895, Note_off_c, 0, 81, 67
1, 414897, Note_on_c, 0, 73, 97
1, 414897, Note_on_c, 0, 89, 107
1, 414915, Note_off_c, 0, 69, 0
1, 414940, Note_on_c, 0, 69, 30
1, 414947, Note_off_c, 0, 73, 66
1, 414981, Note_on_c, 0, 81, 94
1, 415010, Note_on_c, 0, 61, 79
1, 415014, Note_off_c, 0, 69, 61
1, 415029, Note_off_c, 0, 89, 59
1, 415040, Note_off_c, 0, 61, 63
1, 415041, Note_off_c, 0, 81, 62
1, 415065, Note_on_c, 0, 77, 76
1, 415091, Note_off_c, 0, 77, 67
1, 415113, Note_on_c, 0, 61, 76
1, 415131, Note_on_c, 0, 77, 95
1, 415162, Note_off_c, 0, 61, 60
1, 415165, Note_on_c, 0, 58, 60
1, 415204, Note_on_c, 0, 69, 83
1, 415220, Poly_aftertouch_c, 0, 54, 127
1, 415250, Note_on_c, 0, 49, 77
1, 415250, Note_off_c, 0, 58, 64
1, 415250, Note_off_c, 0, 77, 61
1, 415259, Poly_aftertouch_c, 0, 54, 0
1, 415270, Note_on_c, 0, 65, 86
1, 415272, Note_off_c, 0, 69, 61
1, 415277, Note_off_c, 0, 49, 69
1, 415296, Note_off_c, 0, 65, 66
1, 415342, Note_on_c, 0, 49, 84
1, 415348, Note_on_c, 0, 65, 91
1, 415396, Note_on_c, 0, 46, 60
1, 415401, Note_off_c, 0, 49, 62
1, 415415, Note_on_c, 0, 56, 71
1, 415416, Note_off_c, 0, 56, 127
1, 415429, Note_on_c, 0, 57, 80
1, 415481, Note_off_c, 0, 65, 61
1, 415487, Note_off_c, 0, 57, 59
1, 415491, Note_off_c, 0, 46, 64
1, 415492, Note_on_c, 0, 53, 92
1, 415533, Control_c, 0, 64, 79
1, 415544, Note_off_c, 0, 53, 65
1, 415548, Control_c, 0, 64, 31
1, 415553, Note_on_c, 0, 37, 90
1, 415561, Note_on_c, 0, 65, 99
1, 415562, Control_c, 0, 64, 0
1, 415607, Control_c, 0, 64, 59
1, 415622, Control_c, 0, 64, 73
1, 415636, Control_c, 0, 64, 105
1, 415637, Note_on_c, 0, 53, 79
1, 415651, Note_on_c, 0, 46, 71
1, 415651, Control_c, 0, 64, 127
1, 415659, Note_off_c, 0, 65, 61
1, 415672, Poly_aftertouch_c, 0, 58, 0
1, 415684, Poly_aftertouch_c, 0, 39, 0
1, 415698, Note_on_c, 0, 58, 44
1, 415721, Note_off_c, 0, 53, 62
1, 415736, Note_on_c, 0, 49, 79
1, 415739, Note_off_c, 0, 37, 58
1, 415759, Note_off_c, 0, 46, 61
1, 415761, Note_on_c, 0, 65, 78
1, 415763, Note_off_c, 0, 58, 64
1, 415771, Note_off_c, 0, 49, 63
1, 415785, Note_off_c, 0, 65, 61
1, 415850, Note_on_c, 0, 65, 87
1, 415864, Note_on_c, 0, 49, 74
1, 415908, Note_on_c, 0, 70, 81
1, 415927, Note_off_c, 0, 65, 63
1, 415940, Note_off_c, 0, 49, 58
1, 415948, Note_off_c, 0, 70, 67
1, 415957, Note_on_c, 0, 58, 73
1, 415964, Note_on_c, 0, 77, 79
1, 415984, Note_off_c, 0, 58, 66
1, 415986, Note_off_c, 0, 77, 70
1, 416040, Note_on_c, 0, 77, 89
1, 416072, Note_on_c, 0, 63, 67
1, 416090, Note_on_c, 0, 82, 89
1, 416120, Note_off_c, 0, 63, 55
1, 416124, Note_on_c, 0, 62, 33
1, 416138, Note_off_c, 0, 82, 64
1, 416153, Note_on_c, 0, 89, 103
1, 416157, Note_off_c, 0, 62, 48
1, 416158, Note_on_c, 0, 70, 95
1, 416189, Note_off_c, 0, 77, 56
1, 416222, Note_on_c, 0, 82, 84
1, 416228, Note_off_c, 0, 70, 60
1, 416269, Note_on_c, 0, 61, 56
1, 416269, Note_off_c, 0, 89, 63
1, 416288, Note_on_c, 0, 77, 88
1, 416293, Note_off_c, 0, 82, 63
1, 416302, Note_on_c, 0, 58, 60
1, 416312, Note_off_c, 0, 77, 65
1, 416327, Note_off_c, 0, 58, 66
1, 416332, Note_off_c, 0, 61, 64
1, 416375, Note_on_c, 0, 77, 98
1, 416386, Note_on_c, 0, 58, 79
1, 416432, Note_on_c, 0, 70, 80
1, 416445, Note_off_c, 0, 58, 64
1, 416477, Note_on_c, 0, 51, 62
1, 416484, Note_off_c, 0, 77, 61
1, 416498, Note_on_c, 0, 67, 86
1, 416499, Note_off_c, 0, 51, 61
1, 416504, Note_off_c, 0, 70, 61
1, 416519, Note_off_c, 0, 67, 70
1, 416579, Note_on_c, 0, 49, 83
1, 416580, Note_on_c, 0, 65, 98
1, 416627, Note_on_c, 0, 58, 80
1, 416632, Note_off_c, 0, 49, 63
1, 416663, Note_on_c, 0, 42, 60
1, 416665, Note_off_c, 0, 58, 65
1, 416692, Note_off_c, 0, 65, 58
1, 416702, Note_on_c, 0, 53, 91
1, 416743, Note_off_c, 0, 42, 62
1, 416763, Note_off_c, 0, 53, 64
1, 416779, Control_c, 0, 64, 87
1, 416782, Note_on_c, 0, 37, 98
1, 416791, Note_on_c, 0, 67, 98
1, 416794, Control_c, 0, 64, 0
1, 416854, Control_c, 0, 64, 51
1, 416862, Note_on_c, 0, 53, 86
1, 416866, Note_on_c, 0, 43, 46
1, 416868, Control_c, 0, 64, 68
1, 416873, Note_off_c, 0, 67, 44
1, 416883, Control_c, 0, 64, 91
1, 416898, Control_c, 0, 64, 127
1, 416911, Note_on_c, 0, 59, 70
1, 416922, Note_off_c, 0, 37, 60
1, 416932, Note_off_c, 0, 53, 61
1, 416940, Note_on_c, 0, 49, 81
1, 416943, Note_off_c, 0, 43, 61
1, 416945, Poly_aftertouch_c, 0, 65, 0
1, 416967, Note_off_c, 0, 49, 67
1, 416973, Note_on_c, 0, 67, 84
1, 416982, Note_off_c, 0, 59, 64
1, 417004, Note_off_c, 0, 67, 65
1, 417047, Note_on_c, 0, 65, 87
1, 417073, Note_on_c, 0, 49, 48
1, 417081, Note_on_c, 0, 55, 55
1, 417101, Note_on_c, 0, 71, 86
1, 417105, Note_off_c, 0, 65, 65
1, 417125, Note_on_c, 0, 70, 4
1, 417129, Note_off_c, 0, 49, 57
1, 417143, Note_off_c, 0, 55, 62
1, 417153, Note_on_c, 0, 61, 76
1, 417155, Note_on_c, 0, 77, 82
1, 417155, Note_off_c, 0, 71, 66
1, 417173, Note_off_c, 0, 70, 50
1, 417175, Note_off_c, 0, 77, 70
1, 417178, Note_off_c, 0, 61, 67
1, 417225, Note_on_c, 0, 77, 90
1, 417281, Note_on_c, 0, 83, 87
1, 417286, Note_on_c, 0, 67, 59
1, 417289, Note_off_c, 0, 77, 64
1, 417341, Note_on_c, 0, 73, 99
1, 417345, Note_on_c, 0, 91, 103
1, 417345, Note_off_c, 0, 83, 66
1, 417352, Poly_aftertouch_c, 0, 65, 127
1, 417359, Note_on_c, 0, 89, 72
1, 417390, Note_off_c, 0, 73, 66
1, 417408, Note_off_c, 0, 89, 0
1, 417414, Note_on_c, 0, 83, 95
1, 417423, Note_on_c, 0, 89, 14
1, 417453, Note_off_c, 0, 91, 63
1, 417457, Note_on_c, 0, 61, 79
1, 417457, Note_off_c, 0, 67, 58
1, 417471, Note_off_c, 0, 89, 49
1, 417473, Note_off_c, 0, 83, 65
1, 417483, Note_off_c, 0, 61, 69
1, 417485, Poly_aftertouch_c, 0, 65, 0
1, 417491, Note_on_c, 0, 77, 75
1, 417514, Note_off_c, 0, 77, 64
1, 417549, Note_on_c, 0, 61, 102
1, 417556, Note_on_c, 0, 79, 100
1, 417606, Note_on_c, 0, 54, 43
1, 417608, Note_off_c, 0, 61, 60
1, 417614, Note_on_c, 0, 51, 44
1, 417627, Note_on_c, 0, 71, 78
1, 417675, Note_off_c, 0, 79, 63
1, 417695, Note_on_c, 0, 49, 81
1, 417701, Note_off_c, 0, 71, 61
1, 417709, Note_on_c, 0, 65, 87
1, 417718, Note_off_c, 0, 54, 64
1, 417721, Note_off_c, 0, 51, 60
1, 417722, Note_off_c, 0, 49, 65
1, 417724, Poly_aftertouch_c, 0, 72, 0
1, 417729, Note_off_c, 0, 65, 72
1, 417783, Note_on_c, 0, 67, 84
1, 417785, Note_on_c, 0, 49, 96
1, 417852, Note_off_c, 0, 49, 63
1, 417857, Note_on_c, 0, 59, 87
1, 417894, Note_off_c, 0, 67, 62
1, 417901, Poly_aftertouch_c, 0, 37, 127
1, 417939, Note_off_c, 0, 59, 61
1, 417946, Note_on_c, 0, 53, 83
1, 417950, Note_on_c, 0, 55, 70
1, 417980, Poly_aftertouch_c, 0, 37, 0
1, 417986, Note_off_c, 0, 53, 63
1, 418005, Note_off_c, 0, 55, 63
1, 418039, Control_c, 0, 64, 75
1, 418054, Control_c, 0, 64, 0
1, 418076, Note_on_c, 0, 68, 93
1, 418077, Note_on_c, 0, 48, 109
1, 418079, Note_on_c, 0, 56, 105
1, 418079, Note_on_c, 0, 60, 93
1, 418093, Note_on_c, 0, 36, 82
1, 418099, Control_c, 0, 64, 50
1, 418101, Note_on_c, 0, 64, 38
1, 418105, Note_off_c, 0, 60, 68
1, 418105, Note_off_c, 0, 68, 67
1, 418108, Note_on_c, 0, 61, 39
1, 418109, Note_off_c, 0, 61, 127
1, 418112, Note_off_c, 0, 56, 69
1, 418113, Control_c, 0, 64, 78
1, 418128, Control_c, 0, 64, 127
1, 418130, Note_off_c, 0, 64, 50
1, 418153, Note_off_c, 0, 36, 59
1, 418177, Poly_aftertouch_c, 0, 65, 0
1, 418187, Note_off_c, 0, 48, 46
1, 418328, Note_on_c, 0, 36, 97
1, 418403, Note_off_c, 0, 36, 62
1, 418461, Note_on_c, 0, 48, 93
1, 418509, Note_off_c, 0, 48, 66
1, 418541, Note_on_c, 0, 41, 96
1, 418558, Note_on_c, 0, 53, 82
1, 418559, Control_c, 0, 64, 74
1, 418574, Control_c, 0, 64, 0
1, 418639, Note_on_c, 0, 44, 80
1, 418643, Note_off_c, 0, 41, 66
1, 418647, Note_on_c, 0, 56, 84
1, 418662, Control_c, 0, 64, 62
1, 418684, Control_c, 0, 64, 72
1, 418687, Note_off_c, 0, 53, 64
1, 418699, Control_c, 0, 64, 83
1, 418701, Note_on_c, 0, 47, 74
1, 418714, Note_on_c, 0, 59, 79
1, 418714, Control_c, 0, 64, 97
1, 418723, Note_off_c, 0, 44, 62
1, 418729, Control_c, 0, 64, 109
1, 418742, Note_off_c, 0, 56, 67
1, 418743, Control_c, 0, 64, 119
1, 418755, Note_off_c, 0, 59, 62
1, 418755, Note_on_c, 0, 48, 90
1, 418758, Control_c, 0, 64, 127
1, 418761, Note_off_c, 0, 47, 64
1, 418790, Note_on_c, 0, 60, 82
1, 418796, Note_off_c, 0, 48, 67
1, 418837, Note_on_c, 0, 65, 88
1, 418843, Note_off_c, 0, 60, 66
1, 418871, Note_on_c, 0, 52, 46
1, 418873, Note_on_c, 0, 53, 50
1, 418894, Note_on_c, 0, 68, 77
1, 418901, Note_off_c, 0, 52, 66
1, 418903, Note_off_c, 0, 53, 63
1, 418908, Note_on_c, 0, 59, 63
1, 418913, Note_on_c, 0, 55, 48
1, 418918, Note_on_c, 0, 57, 71
1, 418922, Note_on_c, 0, 71, 83
1, 418931, Note_off_c, 0, 65, 64
1, 418935, Control_c, 0, 64, 89
1, 418937, Note_off_c, 0, 55, 60
1, 418943, Note_off_c, 0, 59, 64
1, 418944, Note_off_c, 0, 57, 65
1, 418950, Note_off_c, 0, 68, 66
1, 418950, Control_c, 0, 64, 73
1, 418958, Note_off_c, 0, 71, 65
1, 418965, Control_c, 0, 64, 72
1, 418970, Note_on_c, 0, 60, 82
1, 418979, Control_c, 0, 64, 79
1, 418992, Note_on_c, 0, 72, 76
1, 418994, Note_off_c, 0, 60, 66
1, 418994, Control_c, 0, 64, 100
1, 419009, Control_c, 0, 64, 127
1, 419037, Note_on_c, 0, 77, 90
1, 419056, Note_off_c, 0, 72, 65
1, 419077, Note_on_c, 0, 67, 52
1, 419077, Note_on_c, 0, 69, 75
1, 419084, Note_on_c, 0, 80, 83
1, 419096, Note_on_c, 0, 83, 81
1, 419101, Note_off_c, 0, 67, 59
1, 419102, Note_off_c, 0, 69, 69
1, 419113, Note_off_c, 0, 77, 65
1, 419122, Note_off_c, 0, 80, 68
1, 419132, Note_off_c, 0, 83, 65
1, 419140, Note_on_c, 0, 72, 78
1, 419167, Note_on_c, 0, 84, 80
1, 419170, Note_off_c, 0, 72, 58
1, 419217, Control_c, 0, 64, 89
1, 419219, Note_on_c, 0, 89, 93
1, 419232, Control_c, 0, 64, 56
1, 419245, Note_on_c, 0, 77, 20
1, 419247, Control_c, 0, 64, 0
1, 419253, Note_off_c, 0, 84, 56
1, 419262, Note_on_c, 0, 80, 95
1, 419269, Note_on_c, 0, 92, 110
1, 419277, Control_c, 0, 64, 48
1, 419278, Note_off_c, 0, 77, 53
1, 419281, Note_off_c, 0, 89, 67
1, 419292, Control_c, 0, 64, 89
1, 419295, Note_on_c, 0, 94, 63
1, 419296, Note_off_c, 0, 94, 127
1, 419300, Note_off_c, 0, 80, 65
1, 419301, Note_off_c, 0, 92, 66
1, 419307, Control_c, 0, 64, 127
1, 419447, Control_c, 0, 64, 77
1, 419462, Control_c, 0, 64, 53
1, 419477, Control_c, 0, 64, 0
1, 419610, Note_on_c, 0, 65, 72
1, 419611, Note_on_c, 0, 61, 99
1, 419611, Note_on_c, 0, 49, 79
1, 419612, Note_on_c, 0, 73, 98
1, 419614, Note_on_c, 0, 68, 90
1, 419615, Note_on_c, 0, 56, 88
1, 419622, Note_on_c, 0, 77, 83
1, 419635, Note_on_c, 0, 53, 57
1, 419640, Control_c, 0, 64, 54
1, 419647, Note_off_c, 0, 77, 66
1, 419651, Note_on_c, 0, 75, 37
1, 419655, Control_c, 0, 64, 127
1, 419665, Note_off_c, 0, 61, 63
1, 419670, Note_off_c, 0, 65, 63
1, 419679, Note_off_c, 0, 75, 55
1, 419682, Note_off_c, 0, 73, 63
1, 419684, Note_off_c, 0, 49, 61
1, 419694, Note_off_c, 0, 53, 56
1, 419722, Note_off_c, 0, 56, 58
1, 419730, Note_off_c, 0, 68, 0
1, 419768, Poly_aftertouch_c, 0, 68, 127
1, 419802, Control_c, 0, 64, 97
1, 419815, Poly_aftertouch_c, 0, 68, 0
1, 419817, Control_c, 0, 64, 49
1, 419832, Control_c, 0, 64, 0
1, 419854, Note_on_c, 0, 61, 102
1, 419855, Note_on_c, 0, 48, 77
1, 419855, Note_on_c, 0, 59, 97
1, 419855, Note_on_c, 0, 73, 95
1, 419856, Note_on_c, 0, 68, 83
1, 419857, Note_on_c, 0, 56, 91
1, 419873, Note_on_c, 0, 53, 67
1, 419893, Control_c, 0, 64, 49
1, 419902, Note_off_c, 0, 59, 66
1, 419903, Note_off_c, 0, 61, 64
1, 419907, Control_c, 0, 64, 91
1, 419911, Note_off_c, 0, 48, 63
1, 419912, Note_off_c, 0, 53, 65
1, 419915, Note_off_c, 0, 68, 63
1, 419922, Control_c, 0, 64, 127
1, 419930, Note_off_c, 0, 73, 64
1, 419966, Control_c, 0, 64, 91
1, 419981, Control_c, 0, 64, 48
1, 419996, Control_c, 0, 64, 0
1, 420023, Note_off_c, 0, 56, 66
1, 420036, Note_on_c, 0, 58, 103
1, 420038, Note_on_c, 0, 66, 102
1, 420040, Control_c, 0, 64, 64
1, 420047, Note_on_c, 0, 78, 88
1, 420049, Note_on_c, 0, 73, 82
1, 420055, Control_c, 0, 64, 127
1, 420064, Note_on_c, 0, 46, 64
1, 420071, Note_off_c, 0, 73, 72
1, 420077, Note_off_c, 0, 78, 57
1, 420090, Note_off_c, 0, 46, 57
1, 420097, Note_off_c, 0, 58, 61
1, 420099, Note_off_c, 0, 66, 59
1, 420181, Control_c, 0, 64, 86
1, 420196, Control_c, 0, 64, 21
1, 420211, Control_c, 0, 64, 0
1, 420220, Note_on_c, 0, 64, 100
1, 420222, Note_on_c, 0, 55, 92
1, 420222, Note_on_c, 0, 67, 96
1, 420224, Note_on_c, 0, 76, 98
1, 420225, Note_on_c, 0, 52, 91
1, 420225, Note_on_c, 0, 60, 101
1, 420227, Note_on_c, 0, 72, 88
1, 420229, Note_on_c, 0, 48, 84
1, 420255, Note_off_c, 0, 64, 67
1, 420262, Note_off_c, 0, 67, 64
1, 420270, Control_c, 0, 64, 50
1, 420273, Note_off_c, 0, 72, 68
1, 420280, Note_off_c, 0, 76, 66
1, 420283, Note_off_c, 0, 48, 65
1, 420285, Control_c, 0, 64, 82
1, 420288, Note_off_c, 0, 60, 64
1, 420300, Control_c, 0, 64, 127
1, 420353, Note_off_c, 0, 52, 53
1, 420371, Note_off_c, 0, 55, 48
1, 420389, Control_c, 0, 64, 90
1, 420404, Control_c, 0, 64, 61
1, 420419, Control_c, 0, 64, 0
1, 420440, Note_on_c, 0, 55, 77
1, 420442, Note_on_c, 0, 72, 106
1, 420443, Note_on_c, 0, 79, 99
1, 420445, Note_on_c, 0, 84, 104
1, 420446, Note_on_c, 0, 52, 67
1, 420448, Control_c, 0, 64, 49
1, 420448, Note_on_c, 0, 58, 104
1, 420454, Note_on_c, 0, 46, 84
1, 420463, Control_c, 0, 64, 72
1, 420478, Note_off_c, 0, 72, 69
1, 420478, Control_c, 0, 64, 127
1, 420481, Note_off_c, 0, 84, 70
1, 420481, Note_off_c, 0, 79, 68
1, 420502, Note_on_c, 0, 49, 31
1, 420502, Note_off_c, 0, 58, 64
1, 420511, Note_off_c, 0, 52, 65
1, 420511, Note_off_c, 0, 55, 64
1, 420538, Note_off_c, 0, 49, 43
1, 420538, Note_off_c, 0, 46, 63
1, 420701, Control_c, 0, 64, 63
1, 420716, Control_c, 0, 64, 0
1, 420726, Poly_aftertouch_c, 0, 53, 127
1, 420727, Note_on_c, 0, 53, 3
1, 420732, Note_on_c, 0, 56, 103
1, 420738, Note_on_c, 0, 44, 87
1, 420741, Note_on_c, 0, 72, 112
1, 420743, Note_on_c, 0, 84, 104
1, 420745, Note_on_c, 0, 77, 100
1, 420760, Control_c, 0, 64, 70
1, 420770, Note_off_c, 0, 77, 66
1, 420771, Note_off_c, 0, 72, 71
1, 420772, Note_off_c, 0, 84, 68
1, 420774, Control_c, 0, 64, 127
1, 420776, Note_off_c, 0, 56, 68
1, 420779, Note_off_c, 0, 53, 61
1, 420805, Note_off_c, 0, 44, 65
1, 420991, Note_on_c, 0, 36, 97
1, 421095, Note_on_c, 0, 48, 83
1, 421101, Note_off_c, 0, 36, 39
1, 421122, Poly_aftertouch_c, 0, 56, 127
1, 421152, Note_off_c, 0, 48, 63
1, 421167, Poly_aftertouch_c, 0, 56, 0
1, 421181, Control_c, 0, 64, 90
1, 421186, Note_on_c, 0, 41, 81
1, 421187, Note_on_c, 0, 53, 77
1, 421196, Control_c, 0, 64, 57
1, 421211, Control_c, 0, 64, 0
1, 421249, Note_on_c, 0, 56, 77
1, 421255, Note_on_c, 0, 44, 82
1, 421270, Note_off_c, 0, 41, 65
1, 421298, Note_off_c, 0, 53, 62
1, 421300, Note_on_c, 0, 47, 76
1, 421300, Control_c, 0, 64, 58
1, 421315, Control_c, 0, 64, 69
1, 421319, Note_on_c, 0, 59, 76
1, 421328, Note_off_c, 0, 44, 63
1, 421329, Control_c, 0, 64, 78
1, 421344, Note_off_c, 0, 56, 66
1, 421344, Control_c, 0, 64, 88
1, 421349, Note_off_c, 0, 59, 68
1, 421359, Control_c, 0, 64, 93
1, 421362, Note_on_c, 0, 48, 87
1, 421369, Note_off_c, 0, 47, 62
1, 421373, Control_c, 0, 64, 94
1, 421388, Control_c, 0, 64, 99
1, 421393, Note_on_c, 0, 60, 75
1, 421399, Note_off_c, 0, 48, 64
1, 421403, Control_c, 0, 64, 127
1, 421446, Note_on_c, 0, 65, 89
1, 421446, Note_off_c, 0, 60, 66
1, 421454, Note_on_c, 0, 53, 69
1, 421478, Control_c, 0, 64, 98
1, 421493, Control_c, 0, 64, 84
1, 421501, Note_on_c, 0, 68, 79
1, 421501, Note_on_c, 0, 56, 77
1, 421502, Note_off_c, 0, 53, 63
1, 421508, Control_c, 0, 64, 86
1, 421523, Control_c, 0, 64, 99
1, 421528, Note_on_c, 0, 59, 74
1, 421533, Note_on_c, 0, 71, 86
1, 421538, Control_c, 0, 64, 127
1, 421543, Note_off_c, 0, 65, 64
1, 421554, Note_off_c, 0, 56, 63
1, 421559, Note_off_c, 0, 59, 63
1, 421561, Note_off_c, 0, 68, 66
1, 421574, Note_off_c, 0, 71, 64
1, 421587, Note_on_c, 0, 60, 78
1, 421604, Note_on_c, 0, 72, 84
1, 421606, Note_off_c, 0, 60, 73
1, 421652, Note_on_c, 0, 77, 89
1, 421665, Note_off_c, 0, 72, 66
1, 421699, Note_on_c, 0, 71, 65
1, 421706, Note_on_c, 0, 80, 86
1, 421710, Note_on_c, 0, 69, 60
1, 421718, Note_on_c, 0, 83, 80
1, 421727, Note_off_c, 0, 71, 65
1, 421730, Note_off_c, 0, 69, 63
1, 421733, Note_off_c, 0, 77, 66
1, 421742, Note_off_c, 0, 80, 69
1, 421753, Note_off_c, 0, 83, 65
1, 421760, Note_on_c, 0, 72, 79
1, 421760, Poly_aftertouch_c, 0, 67, 127
1, 421780, Note_off_c, 0, 72, 73
1, 421790, Poly_aftertouch_c, 0, 67, 0
1, 421792, Note_on_c, 0, 84, 87
1, 421826, Control_c, 0, 64, 73
1, 421841, Control_c, 0, 64, 0
1, 421843, Note_on_c, 0, 89, 85
1, 421851, Note_on_c, 0, 77, 40
1, 421865, Note_off_c, 0, 84, 60
1, 421885, Note_on_c, 0, 80, 97
1, 421885, Note_on_c, 0, 92, 110
1, 421896, Note_off_c, 0, 77, 53
1, 421900, Note_off_c, 0, 89, 66
1, 421900, Control_c, 0, 64, 73
1, 421915, Control_c, 0, 64, 127
1, 421919, Note_off_c, 0, 92, 64
1, 421922, Note_off_c, 0, 80, 64
1, 421924, Note_on_c, 0, 94, 40
1, 421925, Note_off_c, 0, 94, 127
1, 422034, Control_c, 0, 64, 76
1, 422049, Control_c, 0, 64, 44
1, 422064, Control_c, 0, 64, 0
1, 422241, Control_c, 0, 64, 63
1, 422248, Note_on_c, 0, 61, 83
1, 422249, Note_on_c, 0, 56, 72
1, 422252, Note_on_c, 0, 49, 67
1, 422255, Note_on_c, 0, 77, 86
1, 422256, Control_c, 0, 64, 97
1, 422257, Note_on_c, 0, 73, 85
1, 422261, Note_on_c, 0, 65, 87
1, 422262, Note_on_c, 0, 68, 83
1, 422272, Control_c, 0, 64, 127
1, 422289, Note_off_c, 0, 61, 61
1, 422297, Note_off_c, 0, 56, 66
1, 422306, Note_off_c, 0, 77, 65
1, 422317, Note_off_c, 0, 49, 64
1, 422326, Note_off_c, 0, 65, 63
1, 422329, Note_off_c, 0, 73, 65
1, 422333, Note_off_c, 0, 68, 61
1, 422374, Poly_aftertouch_c, 0, 75, 0
1, 422516, Control_c, 0, 64, 73
1, 422531, Control_c, 0, 64, 17
1, 422546, Control_c, 0, 64, 0
1, 422575, Note_on_c, 0, 47, 81
1, 422577, Note_on_c, 0, 35, 70
1, 422580, Note_on_c, 0, 65, 78
1, 422581, Note_on_c, 0, 61, 72
1, 422584, Note_on_c, 0, 53, 76
1, 422584, Note_on_c, 0, 56, 76
1, 422619, Control_c, 0, 64, 63
1, 422634, Control_c, 0, 64, 78
1, 422649, Control_c, 0, 64, 127
1, 422655, Note_off_c, 0, 65, 62
1, 422661, Note_on_c, 0, 41, 19
1, 422664, Note_off_c, 0, 47, 62
1, 422676, Note_off_c, 0, 35, 60
1, 422685, Note_off_c, 0, 53, 63
1, 422690, Note_off_c, 0, 56, 64
1, 422694, Note_on_c, 0, 38, 30
1, 422729, Note_off_c, 0, 61, 59
1, 422797, Control_c, 0, 64, 93
1, 422812, Control_c, 0, 64, 64
1, 422827, Control_c, 0, 64, 0
1, 422834, Note_on_c, 0, 66, 79
1, 422841, Note_on_c, 0, 61, 80
1, 422847, Note_on_c, 0, 46, 84
1, 422847, Note_off_c, 0, 38, 51
1, 422849, Note_on_c, 0, 54, 80
1, 422851, Note_on_c, 0, 34, 71
1, 422872, Control_c, 0, 64, 20
1, 422882, Note_off_c, 0, 41, 55
1, 422887, Control_c, 0, 64, 63
1, 422890, Note_off_c, 0, 34, 66
1, 422901, Control_c, 0, 64, 76
1, 422916, Control_c, 0, 64, 127
1, 422920, Note_off_c, 0, 46, 64
1, 422949, Note_off_c, 0, 54, 64
1, 422952, Note_off_c, 0, 61, 62
1, 422985, Note_off_c, 0, 66, 60
1, 422990, Control_c, 0, 64, 82
1, 423005, Control_c, 0, 64, 60
1, 423019, Control_c, 0, 64, 0
1, 423048, Note_on_c, 0, 48, 81
1, 423050, Note_on_c, 0, 36, 77
1, 423054, Note_on_c, 0, 55, 85
1, 423055, Note_on_c, 0, 64, 82
1, 423056, Note_on_c, 0, 60, 77
1, 423064, Control_c, 0, 64, 53
1, 423080, Control_c, 0, 64, 66
1, 423095, Control_c, 0, 64, 75
1, 423102, Note_off_c, 0, 48, 64
1, 423102, Note_off_c, 0, 55, 64
1, 423107, Note_off_c, 0, 36, 63
1, 423110, Control_c, 0, 64, 95
1, 423113, Note_off_c, 0, 60, 64
1, 423124, Control_c, 0, 64, 127
1, 423133, Note_off_c, 0, 64, 62
1, 423176, Control_c, 0, 64, 99
1, 423191, Control_c, 0, 64, 66
1, 423206, Control_c, 0, 64, 0
1, 423253, Note_on_c, 0, 60, 86
1, 423253, Note_on_c, 0, 67, 88
1, 423256, Note_on_c, 0, 72, 87
1, 423257, Note_on_c, 0, 46, 84
1, 423265, Control_c, 0, 64, 58
1, 423270, Note_on_c, 0, 34, 76
1, 423280, Control_c, 0, 64, 71
1, 423295, Control_c, 0, 64, 91
1, 423310, Control_c, 0, 64, 127
1, 423322, Note_off_c, 0, 46, 63
1, 423348, Note_off_c, 0, 34, 61
1, 423361, Note_off_c, 0, 60, 60
1, 423364, Note_off_c, 0, 67, 62
1, 423370, Note_off_c, 0, 72, 63
1, 423384, Control_c, 0, 64, 74
1, 423399, Control_c, 0, 64, 47
1, 423414, Control_c, 0, 64, 0
1, 423447, Note_on_c, 0, 44, 97
1, 423453, Note_on_c, 0, 60, 92
1, 423456, Note_on_c, 0, 65, 83
1, 423458, Control_c, 0, 64, 47
1, 423459, Note_on_c, 0, 32, 79
1, 423459, Note_on_c, 0, 72, 85
1, 423473, Control_c, 0, 64, 65
1, 423488, Control_c, 0, 64, 77
1, 423503, Control_c, 0, 64, 127
1, 423519, Note_on_c, 0, 34, 9
1, 423537, Note_off_c, 0, 72, 63
1, 423550, Note_off_c, 0, 60, 63
1, 423552, Note_off_c, 0, 32, 59
1, 423564, Note_off_c, 0, 65, 62
1, 423576, Control_c, 0, 64, 108
1, 423579, Note_off_c, 0, 44, 61
1, 423581, Note_off_c, 0, 34, 45
1, 423591, Control_c, 0, 64, 66
1, 423606, Control_c, 0, 64, 0
1, 423639, Note_on_c, 0, 74, 86
1, 423640, Note_on_c, 0, 43, 93
1, 423642, Note_on_c, 0, 31, 83
1, 423642, Note_on_c, 0, 62, 84
1, 423642, Note_on_c, 0, 65, 87
1, 423665, Control_c, 0, 64, 47
1, 423680, Control_c, 0, 64, 68
1, 423688, Note_on_c, 0, 71, 29
1, 423695, Control_c, 0, 64, 90
1, 423702, Note_off_c, 0, 62, 63
1, 423704, Note_off_c, 0, 65, 61
1, 423710, Note_off_c, 0, 74, 63
1, 423710, Control_c, 0, 64, 127
1, 423716, Note_on_c, 0, 69, 24
1, 423717, Note_off_c, 0, 43, 63
1, 423722, Note_off_c, 0, 71, 51
1, 423727, Note_off_c, 0, 31, 62
1, 423739, Control_c, 0, 64, 111
1, 423754, Control_c, 0, 64, 66
1, 423757, Note_off_c, 0, 69, 55
1, 423769, Control_c, 0, 64, 0
1, 423802, Note_on_c, 0, 42, 101
1, 423805, Note_on_c, 0, 63, 100
1, 423809, Note_on_c, 0, 30, 85
1, 423810, Note_on_c, 0, 75, 89
1, 423814, Control_c, 0, 64, 38
1, 423829, Control_c, 0, 64, 67
1, 423829, Note_on_c, 0, 73, 64
1, 423830, Note_on_c, 0, 68, 62
1, 423835, Note_on_c, 0, 32, 56
1, 423843, Control_c, 0, 64, 88
1, 423847, Note_off_c, 0, 73, 65
1, 423849, Note_on_c, 0, 69, 55
1, 423854, Note_off_c, 0, 68, 56
1, 423858, Control_c, 0, 64, 127
1, 423867, Note_off_c, 0, 63, 60
1, 423871, Note_off_c, 0, 32, 56
1, 423873, Note_off_c, 0, 69, 61
1, 423880, Note_off_c, 0, 75, 62
1, 423889, Note_off_c, 0, 42, 63
1, 423893, Note_off_c, 0, 30, 62
1, 423903, Control_c, 0, 64, 106
1, 423926, Control_c, 0, 64, 66
1, 423931, Poly_aftertouch_c, 0, 62, 0
1, 423941, Control_c, 0, 64, 0
1, 423976, Note_on_c, 0, 66, 100
1, 423978, Note_on_c, 0, 78, 98
1, 423982, Note_on_c, 0, 40, 91
1, 423985, Poly_aftertouch_c, 0, 34, 127
1, 423985, Control_c, 0, 64, 61
1, 423990, Note_on_c, 0, 75, 81
1, 423996, Note_on_c, 0, 26, 77
1, 423996, Note_on_c, 0, 28, 69
1, 424000, Control_c, 0, 64, 80
1, 424013, Note_on_c, 0, 38, 47
1, 424014, Control_c, 0, 64, 127
1, 424029, Note_off_c, 0, 66, 61
1, 424030, Poly_aftertouch_c, 0, 34, 0
1, 424031, Note_on_c, 0, 30, 32
1, 424041, Note_off_c, 0, 75, 59
1, 424041, Note_off_c, 0, 78, 62
1, 424044, Note_off_c, 0, 26, 62
1, 424051, Note_off_c, 0, 38, 49
1, 424057, Note_off_c, 0, 40, 62
1, 424067, Poly_aftertouch_c, 0, 73, 127
1, 424073, Control_c, 0, 64, 107
1, 424082, Note_off_c, 0, 30, 41
1, 424088, Note_off_c, 0, 28, 34
1, 424088, Control_c, 0, 64, 64
1, 424091, Poly_aftertouch_c, 0, 73, 0
1, 424094, Note_on_c, 0, 31, 39
1, 424103, Control_c, 0, 64, 0
1, 424127, Note_on_c, 0, 35, 44
1, 424129, Note_on_c, 0, 71, 99
1, 424133, Note_on_c, 0, 83, 96
1, 424134, Note_on_c, 0, 39, 106
1, 424139, Note_on_c, 0, 27, 82
1, 424142, Note_on_c, 0, 72, 83
1, 424148, Control_c, 0, 64, 58
1, 424154, Note_off_c, 0, 72, 71
1, 424159, Note_off_c, 0, 31, 48
1, 424161, Note_off_c, 0, 35, 54
1, 424163, Control_c, 0, 64, 76
1, 424168, Note_off_c, 0, 83, 65
1, 424175, Note_off_c, 0, 27, 66
1, 424175, Note_off_c, 0, 71, 64
1, 424178, Control_c, 0, 64, 127
1, 424186, Note_off_c, 0, 39, 64
1, 424222, Control_c, 0, 64, 93
1, 424237, Control_c, 0, 64, 65
1, 424252, Control_c, 0, 64, 42
1, 424267, Control_c, 0, 64, 59
1, 424269, Note_on_c, 0, 68, 103
1, 424277, Note_on_c, 0, 80, 77
1, 424279, Note_on_c, 0, 77, 73
1, 424279, Note_on_c, 0, 70, 81
1, 424280, Note_on_c, 0, 50, 104
1, 424281, Control_c, 0, 64, 72
1, 424288, Note_on_c, 0, 76, 59
1, 424295, Note_on_c, 0, 38, 67
1, 424296, Control_c, 0, 64, 127
1, 424298, Note_on_c, 0, 40, 74
1, 424298, Note_on_c, 0, 78, 60
1, 424314, Note_off_c, 0, 68, 63
1, 424316, Note_off_c, 0, 50, 66
1, 424317, Note_off_c, 0, 76, 65
1, 424318, Note_off_c, 0, 77, 62
1, 424318, Note_off_c, 0, 78, 62
1, 424324, Note_off_c, 0, 40, 66
1, 424325, Note_off_c, 0, 38, 64
1, 424327, Note_off_c, 0, 70, 64
1, 424338, Note_off_c, 0, 80, 62
1, 424341, Control_c, 0, 64, 72
1, 424355, Control_c, 0, 64, 0
1, 424404, Note_on_c, 0, 49, 101
1, 424412, Note_on_c, 0, 70, 108
1, 424412, Note_on_c, 0, 82, 96
1, 424414, Control_c, 0, 64, 57
1, 424415, Note_on_c, 0, 37, 83
1, 424429, Control_c, 0, 64, 90
1, 424432, Note_on_c, 0, 39, 65
1, 424438, Note_on_c, 0, 80, 61
1, 424444, Control_c, 0, 64, 127
1, 424457, Note_off_c, 0, 80, 66
1, 424458, Note_off_c, 0, 39, 61
1, 424466, Note_off_c, 0, 49, 60
1, 424468, Note_off_c, 0, 70, 63
1, 424478, Note_off_c, 0, 37, 61
1, 424482, Note_off_c, 0, 82, 64
1, 424503, Control_c, 0, 64, 96
1, 424518, Control_c, 0, 64, 61
1, 424533, Control_c, 0, 64, 0
1, 424547, Control_c, 0, 64, 8
1, 424551, Note_on_c, 0, 48, 104
1, 424556, Note_on_c, 0, 36, 93
1, 424557, Note_on_c, 0, 73, 111
1, 424559, Note_on_c, 0, 85, 95
1, 424562, Control_c, 0, 64, 58
1, 424577, Control_c, 0, 64, 74
1, 424592, Control_c, 0, 64, 127
1, 424598, Note_off_c, 0, 48, 67
1, 424602, Note_off_c, 0, 73, 65
1, 424604, Note_off_c, 0, 36, 64
1, 424608, Note_off_c, 0, 85, 65
1, 424652, Control_c, 0, 64, 69
1, 424675, Control_c, 0, 64, 0
1, 424698, Note_on_c, 0, 46, 105
1, 424703, Note_on_c, 0, 78, 111
1, 424708, Note_on_c, 0, 34, 86
1, 424714, Note_on_c, 0, 87, 88
1, 424718, Control_c, 0, 64, 52
1, 424724, Note_on_c, 0, 89, 72
1, 424728, Note_on_c, 0, 37, 61
1, 424729, Note_off_c, 0, 37, 127
1, 424729, Note_on_c, 0, 47, 55
1, 424730, Note_off_c, 0, 47, 127
1, 424733, Control_c, 0, 64, 98
1, 424741, Note_off_c, 0, 89, 66
1, 424748, Control_c, 0, 64, 127
1, 424753, Note_on_c, 0, 88, 35
1, 424753, Note_off_c, 0, 78, 66
1, 424757, Note_off_c, 0, 87, 57
1, 424767, Note_off_c, 0, 34, 60
1, 424779, Poly_aftertouch_c, 0, 37, 127
1, 424781, Note_off_c, 0, 88, 58
1, 424788, Note_off_c, 0, 46, 58
1, 424807, Control_c, 0, 64, 78
1, 424821, Control_c, 0, 64, 14
1, 424836, Control_c, 0, 64, 0
1, 424847, Note_on_c, 0, 45, 100
1, 424847, Note_on_c, 0, 76, 98
1, 424847, Note_on_c, 0, 79, 92
1, 424848, Note_on_c, 0, 84, 97
1, 424853, Note_on_c, 0, 33, 90
1, 424853, Note_on_c, 0, 88, 84
1, 424854, Poly_aftertouch_c, 0, 37, 0
1, 424872, Note_on_c, 0, 40, 56
1, 424879, Note_on_c, 0, 36, 48
1, 424881, Control_c, 0, 64, 66
1, 424884, Note_on_c, 0, 35, 39
1, 424896, Control_c, 0, 64, 127
1, 424910, Note_off_c, 0, 79, 65
1, 424913, Note_off_c, 0, 76, 63
1, 424917, Note_off_c, 0, 33, 63
1, 424926, Note_off_c, 0, 35, 49
1, 424928, Note_off_c, 0, 88, 65
1, 424934, Note_off_c, 0, 45, 63
1, 424937, Note_off_c, 0, 84, 65
1, 424970, Control_c, 0, 64, 66
1, 424985, Control_c, 0, 64, 0
1, 425012, Note_on_c, 0, 84, 107
1, 425015, Note_on_c, 0, 77, 108
1, 425018, Note_on_c, 0, 44, 111
1, 425020, Note_on_c, 0, 89, 90
1, 425025, Note_on_c, 0, 32, 90
1, 425027, Note_off_c, 0, 36, 31
1, 425029, Control_c, 0, 64, 31
1, 425039, Note_off_c, 0, 89, 72
1, 425044, Control_c, 0, 64, 75
1, 425049, Note_off_c, 0, 40, 58
1, 425055, Note_off_c, 0, 77, 67
1, 425055, Note_off_c, 0, 84, 69
1, 425059, Control_c, 0, 64, 127
1, 425060, Note_on_c, 0, 88, 34
1, 425061, Note_off_c, 0, 88, 127
1, 425081, Note_off_c, 0, 32, 61
1, 425087, Note_off_c, 0, 44, 58
1, 425117, Poly_aftertouch_c, 0, 34, 127
1, 425130, Poly_aftertouch_c, 0, 31, 127
1, 425150, Poly_aftertouch_c, 0, 34, 0
1, 425164, Poly_aftertouch_c, 0, 31, 0
1, 425177, Control_c, 0, 64, 81
1, 425192, Control_c, 0, 64, 0
1, 425209, Note_on_c, 0, 73, 100
1, 425210, Note_on_c, 0, 77, 95
1, 425212, Note_on_c, 0, 46, 111
1, 425212, Note_on_c, 0, 79, 89
1, 425221, Note_on_c, 0, 85, 85
1, 425228, Note_on_c, 0, 34, 87
1, 425255, Note_off_c, 0, 34, 66
1, 425308, Note_off_c, 0, 77, 54
1, 425309, Note_off_c, 0, 46, 59
1, 425309, Note_off_c, 0, 85, 65
1, 425322, Note_off_c, 0, 73, 60
1, 425354, Note_off_c, 0, 79, 44
1, 425442, Note_on_c, 0, 79, 94
1, 425443, Note_on_c, 0, 77, 105
1, 425444, Note_on_c, 0, 48, 109
1, 425444, Note_on_c, 0, 72, 102
1, 425446, Note_on_c, 0, 84, 92
1, 425447, Note_on_c, 0, 36, 88
1, 425451, Control_c, 0, 64, 56
1, 425462, Note_on_c, 0, 78, 64
1, 425463, Note_off_c, 0, 78, 127
1, 425467, Control_c, 0, 64, 127
1, 425468, Note_on_c, 0, 81, 62
1, 425477, Note_on_c, 0, 43, 31
1, 425486, Note_off_c, 0, 72, 66
1, 425488, Note_off_c, 0, 81, 65
1, 425492, Note_off_c, 0, 84, 66
1, 425501, Note_off_c, 0, 79, 68
1, 425503, Note_off_c, 0, 36, 64
1, 425505, Note_off_c, 0, 77, 64
1, 425512, Note_off_c, 0, 48, 66
1, 425514, Note_off_c, 0, 43, 43
1, 425749, Control_c, 0, 64, 78
1, 425763, Control_c, 0, 64, 36
1, 425778, Control_c, 0, 64, 0
1, 426010, Note_on_c, 0, 60, 110
1, 426014, Note_on_c, 0, 48, 96
1, 426030, Control_c, 0, 64, 91
1, 426044, Control_c, 0, 64, 127
1, 426127, Note_off_c, 0, 60, 63
1, 426170, Control_c, 0, 64, 66
1, 426185, Control_c, 0, 64, 0
1, 426190, Note_on_c, 0, 61, 101
1, 426192, Note_off_c, 0, 48, 48
1, 426194, Note_on_c, 0, 49, 95
1, 426230, Control_c, 0, 64, 57
1, 426244, Control_c, 0, 64, 75
1, 426256, Note_off_c, 0, 61, 70
1, 426259, Control_c, 0, 64, 127
1, 426291, Note_off_c, 0, 49, 61
1, 426305, Control_c, 0, 64, 111
1, 426312, Poly_aftertouch_c, 0, 65, 0
1, 426320, Control_c, 0, 64, 76
1, 426327, Note_on_c, 0, 53, 90
1, 426335, Control_c, 0, 64, 67
1, 426341, Note_on_c, 0, 65, 102
1, 426349, Control_c, 0, 64, 74
1, 426357, Note_off_c, 0, 53, 66
1, 426364, Control_c, 0, 64, 97
1, 426379, Control_c, 0, 64, 127
1, 426415, Note_off_c, 0, 65, 61
1, 426467, Control_c, 0, 64, 83
1, 426482, Control_c, 0, 64, 0
1, 426500, Note_on_c, 0, 67, 94
1, 426502, Note_on_c, 0, 48, 101
1, 426503, Note_on_c, 0, 59, 92
1, 426504, Note_on_c, 0, 55, 108
1, 426510, Note_on_c, 0, 36, 84
1, 426510, Note_on_c, 0, 62, 77
1, 426524, Note_on_c, 0, 38, 63
1, 426527, Control_c, 0, 64, 57
1, 426540, Note_off_c, 0, 48, 68
1, 426541, Control_c, 0, 64, 86
1, 426547, Note_on_c, 0, 61, 36
1, 426548, Note_off_c, 0, 61, 127
1, 426553, Note_off_c, 0, 38, 55
1, 426554, Note_on_c, 0, 57, 20
1, 426555, Note_off_c, 0, 57, 127
1, 426556, Control_c, 0, 64, 127
1, 426559, Note_off_c, 0, 55, 65
1, 426561, Note_off_c, 0, 36, 63
1, 426562, Note_off_c, 0, 59, 61
1, 426577, Note_off_c, 0, 62, 60
1, 426601, Poly_aftertouch_c, 0, 57, 0
1, 426616, Control_c, 0, 64, 64
1, 426621, Note_off_c, 0, 67, 39
1, 426631, Control_c, 0, 64, 0
1, 426721, Note_on_c, 0, 43, 105
1, 426723, Note_on_c, 0, 31, 90
1, 426726, Note_on_c, 0, 53, 103
1, 426726, Note_on_c, 0, 67, 86
1, 426727, Note_on_c, 0, 59, 91
1, 426727, Note_on_c, 0, 62, 83
1, 426729, Note_on_c, 0, 65, 87
1, 426749, Control_c, 0, 64, 52
1, 426750, Note_on_c, 0, 58, 60
1, 426751, Note_off_c, 0, 58, 127
1, 426756, Note_on_c, 0, 33, 48
1, 426761, Note_off_c, 0, 43, 68
1, 426764, Control_c, 0, 64, 127
1, 426769, Note_off_c, 0, 31, 66
1, 426783, Note_off_c, 0, 53, 64
1, 426787, Note_off_c, 0, 67, 65
1, 426794, Note_off_c, 0, 33, 53
1, 426815, Note_off_c, 0, 59, 64
1, 426821, Note_off_c, 0, 65, 61
1, 426835, Note_off_c, 0, 62, 60
1, 426897, Control_c, 0, 64, 69
1, 426920, Control_c, 0, 64, 0
1, 427083, Note_on_c, 0, 60, 105
1, 427087, Note_on_c, 0, 67, 86
1, 427088, Note_on_c, 0, 36, 101
1, 427088, Note_on_c, 0, 55, 99
1, 427088, Note_on_c, 0, 64, 94
1, 427089, Note_on_c, 0, 24, 90
1, 427114, Control_c, 0, 64, 101
1, 427129, Control_c, 0, 64, 127
1, 427130, Note_off_c, 0, 55, 67
1, 427133, Note_off_c, 0, 36, 66
1, 427138, Note_on_c, 0, 62, 14
1, 427142, Note_off_c, 0, 24, 61
1, 427145, Note_off_c, 0, 60, 70
1, 427145, Note_off_c, 0, 67, 65
1, 427150, Note_off_c, 0, 64, 67
1, 427173, Note_off_c, 0, 62, 52
1, 427573, Control_c, 0, 64, 74
1, 427588, Control_c, 0, 64, 0
1, 429056, Control_c, 0, 64, 35
1, 429070, Control_c, 0, 64, 45
1, 429085, Control_c, 0, 64, 47
1, 429100, Control_c, 0, 64, 48
1, 429129, Control_c, 0, 64, 48
1, 429144, Control_c, 0, 64, 50
1, 429167, Control_c, 0, 64, 54
1, 429182, Control_c, 0, 64, 57
1, 429196, Control_c, 0, 64, 58
1, 429210, Control_c, 0, 64, 59
1, 429225, Control_c, 0, 64, 60
1, 429240, Control_c, 0, 64, 61
1, 429255, Control_c, 0, 64, 62
1, 429269, Control_c, 0, 64, 63
1, 429284, Control_c, 0, 64, 64
1, 429284, Control_c, 0, 67, 16
1, 429299, Control_c, 0, 64, 65
1, 429299, Control_c, 0, 67, 25
1, 429314, Control_c, 0, 64, 66
1, 429314, Control_c, 0, 67, 32
1, 429329, Control_c, 0, 64, 66
1, 429329, Control_c, 0, 67, 37
1, 429344, Control_c, 0, 64, 67
1, 429344, Control_c, 0, 67, 43
1, 429358, Control_c, 0, 64, 68
1, 429358, Control_c, 0, 67, 51
1, 429373, Control_c, 0, 64, 68
1, 429373, Control_c, 0, 67, 62
1, 429388, Control_c, 0, 64, 69
1, 429388, Control_c, 0, 67, 73
1, 429403, Control_c, 0, 64, 70
1, 429403, Control_c, 0, 67, 81
1, 429418, Control_c, 0, 64, 71
1, 429418, Control_c, 0, 67, 88
1, 429433, Control_c, 0, 64, 73
1, 429433, Control_c, 0, 67, 94
1, 429448, Control_c, 0, 64, 75
1, 429448, Control_c, 0, 67, 100
1, 429463, Control_c, 0, 64, 79
1, 429463, Control_c, 0, 67, 109
1, 429478, Control_c, 0, 64, 82
1, 429478, Control_c, 0, 67, 121
1, 429493, Control_c, 0, 64, 86
1, 429493, Control_c, 0, 67, 127
1, 429507, Control_c, 0, 64, 89
1, 429522, Control_c, 0, 64, 91
1, 429537, Control_c, 0, 64, 92
1, 429552, Control_c, 0, 64, 92
1, 429582, Control_c, 0, 64, 93
1, 429597, Control_c, 0, 64, 95
1, 429612, Control_c, 0, 64, 96
1, 429627, Control_c, 0, 64, 98
1, 429641, Control_c, 0, 64, 100
1, 429656, Control_c, 0, 64, 102
1, 429671, Control_c, 0, 64, 103
1, 429685, Control_c, 0, 64, 104
1, 429700, Control_c, 0, 64, 106
1, 429715, Control_c, 0, 64, 109
1, 429730, Control_c, 0, 64, 113
1, 429745, Control_c, 0, 64, 121
1, 429759, Control_c, 0, 64, 127
1, 430516, Note_on_c, 0, 84, 53
1, 430529, Note_on_c, 0, 48, 37
1, 430530, Note_on_c, 0, 72, 34
1, 430533, Note_on_c, 0, 79, 39
1, 430536, Note_on_c, 0, 64, 35
1, 430557, Note_on_c, 0, 55, 33
1, 431525, Note_off_c, 0, 84, 58
1, 431543, Note_off_c, 0, 72, 44
1, 431609, Note_off_c, 0, 79, 41
1, 431653, Note_off_c, 0, 48, 37
1, 431688, Note_off_c, 0, 64, 36
1, 431783, Note_off_c, 0, 55, 40
1, 433050, Note_on_c, 0, 79, 56
1, 433072, Note_on_c, 0, 74, 42
1, 433091, Note_on_c, 0, 48, 31
1, 433093, Note_on_c, 0, 62, 25
1, 433102, Note_on_c, 0, 55, 25
1, 433102, Note_on_c, 0, 71, 27
1, 433117, Note_on_c, 0, 65, 21
1, 433118, Note_on_c, 0, 67, 22
1, 433191, Control_c, 0, 64, 95
1, 433206, Control_c, 0, 64, 74
1, 433221, Control_c, 0, 64, 63
1, 433235, Control_c, 0, 64, 54
1, 433250, Control_c, 0, 64, 53
1, 433265, Control_c, 0, 64, 57
1, 433280, Control_c, 0, 64, 62
1, 433295, Control_c, 0, 64, 66
1, 433309, Control_c, 0, 64, 69
1, 433324, Control_c, 0, 64, 72
1, 433339, Control_c, 0, 64, 76
1, 433354, Control_c, 0, 64, 81
1, 433369, Control_c, 0, 64, 89
1, 433383, Control_c, 0, 64, 101
1, 433398, Control_c, 0, 64, 127
1, 434052, Note_off_c, 0, 48, 34
1, 434071, Note_off_c, 0, 79, 36
1, 434078, Note_off_c, 0, 67, 34
1, 434094, Note_off_c, 0, 65, 33
1, 434120, Note_off_c, 0, 74, 58
1, 434158, Note_off_c, 0, 71, 43
1, 434322, Note_off_c, 0, 62, 35
1, 434426, Note_off_c, 0, 55, 33
1, 435677, Note_on_c, 0, 76, 50
1, 435681, Note_on_c, 0, 70, 34
1, 435694, Note_on_c, 0, 64, 32
1, 435705, Note_on_c, 0, 67, 35
1, 435709, Note_on_c, 0, 60, 24
1, 435711, Note_on_c, 0, 55, 26
1, 435720, Note_on_c, 0, 48, 17
1, 435793, Control_c, 0, 64, 79
1, 435808, Control_c, 0, 64, 65
1, 435822, Control_c, 0, 64, 50
1, 435837, Control_c, 0, 64, 29
1, 435854, Control_c, 0, 64, 23
1, 435868, Control_c, 0, 64, 32
1, 435883, Control_c, 0, 64, 49
1, 435905, Control_c, 0, 64, 58
1, 435920, Control_c, 0, 64, 62
1, 435934, Control_c, 0, 64, 64
1, 435949, Control_c, 0, 64, 65
1, 435964, Control_c, 0, 64, 67
1, 435979, Control_c, 0, 64, 70
1, 435994, Control_c, 0, 64, 74
1, 436009, Control_c, 0, 64, 79
1, 436024, Control_c, 0, 64, 88
1, 436039, Control_c, 0, 64, 102
1, 436054, Control_c, 0, 64, 127
1, 436551, Note_off_c, 0, 76, 37
1, 436624, Note_off_c, 0, 67, 43
1, 436835, Note_off_c, 0, 70, 44
1, 436857, Note_off_c, 0, 64, 42
1, 436862, Note_off_c, 0, 60, 41
1, 436869, Note_off_c, 0, 48, 40
1, 437064, Note_off_c, 0, 55, 37
1, 438248, Note_on_c, 0, 74, 50
1, 438267, Note_on_c, 0, 55, 28
1, 438268, Note_on_c, 0, 62, 27
1, 438283, Note_on_c, 0, 58, 30
1, 438286, Note_on_c, 0, 65, 17
1, 438290, Note_on_c, 0, 48, 20
1, 438390, Control_c, 0, 64, 92
1, 438404, Control_c, 0, 64, 76
1, 438419, Control_c, 0, 64, 67
1, 438434, Control_c, 0, 64, 61
1, 438449, Control_c, 0, 64, 56
1, 438464, Control_c, 0, 64, 52
1, 438478, Control_c, 0, 64, 51
1, 438493, Control_c, 0, 64, 52
1, 438508, Control_c, 0, 64, 54
1, 438522, Control_c, 0, 64, 57
1, 438537, Control_c, 0, 64, 62
1, 438552, Control_c, 0, 64, 65
1, 438567, Control_c, 0, 64, 68
1, 438582, Control_c, 0, 64, 71
1, 438596, Control_c, 0, 64, 76
1, 438611, Control_c, 0, 64, 80
1, 438626, Control_c, 0, 64, 85
1, 438641, Control_c, 0, 64, 91
1, 438656, Control_c, 0, 64, 102
1, 438671, Control_c, 0, 64, 127
1, 439139, Note_off_c, 0, 58, 42
1, 439192, Note_off_c, 0, 74, 57
1, 439267, Note_off_c, 0, 62, 41
1, 439289, Note_off_c, 0, 55, 43
1, 439313, Note_off_c, 0, 48, 37
1, 439330, Note_off_c, 0, 65, 41
1, 441347, Note_on_c, 0, 64, 45
1, 441368, Note_on_c, 0, 55, 24
1, 441382, Note_on_c, 0, 48, 16
1, 441384, Note_on_c, 0, 36, 24
1, 441384, Note_on_c, 0, 60, 30
1, 441473, Control_c, 0, 64, 113
1, 441488, Control_c, 0, 64, 96
1, 441502, Control_c, 0, 64, 85
1, 441517, Control_c, 0, 64, 77
1, 441532, Control_c, 0, 64, 71
1, 441546, Control_c, 0, 64, 66
1, 441561, Control_c, 0, 64, 62
1, 441576, Control_c, 0, 64, 59
1, 441591, Control_c, 0, 64, 56
1, 441606, Control_c, 0, 64, 54
1, 441620, Control_c, 0, 64, 52
1, 441635, Control_c, 0, 64, 50
1, 441650, Control_c, 0, 64, 48
1, 441665, Control_c, 0, 64, 47
1, 441680, Control_c, 0, 64, 46
1, 441709, Control_c, 0, 64, 47
1, 441724, Control_c, 0, 64, 49
1, 441738, Control_c, 0, 64, 52
1, 441753, Control_c, 0, 64, 54
1, 441768, Control_c, 0, 64, 57
1, 441783, Control_c, 0, 64, 59
1, 441798, Control_c, 0, 64, 60
1, 441813, Control_c, 0, 64, 61
1, 441828, Control_c, 0, 64, 63
1, 441842, Control_c, 0, 64, 64
1, 441857, Control_c, 0, 64, 65
1, 441872, Control_c, 0, 64, 66
1, 441894, Control_c, 0, 64, 67
1, 441909, Control_c, 0, 64, 68
1, 441924, Control_c, 0, 64, 69
1, 441939, Control_c, 0, 64, 71
1, 441953, Control_c, 0, 64, 72
1, 441968, Control_c, 0, 64, 74
1, 441983, Control_c, 0, 64, 76
1, 441998, Control_c, 0, 64, 79
1, 442013, Control_c, 0, 64, 82
1, 442027, Control_c, 0, 64, 85
1, 442042, Control_c, 0, 64, 90
1, 442057, Control_c, 0, 64, 94
1, 442072, Control_c, 0, 64, 100
1, 442087, Control_c, 0, 64, 107
1, 442102, Control_c, 0, 64, 118
1, 442117, Control_c, 0, 64, 127
1, 444422, Control_c, 0, 64, 115
1, 444422, Control_c, 0, 67, 122
1, 444437, Control_c, 0, 64, 110
1, 444437, Control_c, 0, 67, 114
1, 444452, Control_c, 0, 64, 105
1, 444452, Control_c, 0, 67, 108
1, 444467, Control_c, 0, 64, 103
1, 444467, Control_c, 0, 67, 102
1, 444482, Control_c, 0, 64, 101
1, 444482, Control_c, 0, 67, 97
1, 444496, Control_c, 0, 64, 100
1, 444496, Control_c, 0, 67, 94
1, 444511, Control_c, 0, 64, 100
1, 444511, Control_c, 0, 67, 90
1, 444526, Control_c, 0, 64, 99
1, 444526, Control_c, 0, 67, 88
1, 444540, Control_c, 0, 64, 98
1, 444540, Control_c, 0, 67, 86
1, 444555, Control_c, 0, 64, 96
1, 444555, Control_c, 0, 67, 84
1, 444570, Control_c, 0, 64, 94
1, 444570, Control_c, 0, 67, 83
1, 444585, Control_c, 0, 64, 92
1, 444585, Control_c, 0, 67, 80
1, 444600, Control_c, 0, 64, 91
1, 444600, Control_c, 0, 67, 77
1, 444615, Control_c, 0, 64, 90
1, 444615, Control_c, 0, 67, 73
1, 444630, Control_c, 0, 67, 69
1, 444645, Control_c, 0, 64, 89
1, 444645, Control_c, 0, 67, 66
1, 444660, Control_c, 0, 64, 89
1, 444660, Control_c, 0, 67, 63
1, 444675, Control_c, 0, 64, 88
1, 444675, Control_c, 0, 67, 59
1, 444690, Control_c, 0, 64, 87
1, 444690, Control_c, 0, 67, 55
1, 444705, Control_c, 0, 64, 86
1, 444705, Control_c, 0, 67, 52
1, 444719, Control_c, 0, 64, 85
1, 444719, Control_c, 0, 67, 48
1, 444734, Control_c, 0, 64, 84
1, 444734, Control_c, 0, 67, 44
1, 444749, Control_c, 0, 64, 83
1, 444749, Control_c, 0, 67, 40
1, 444764, Control_c, 0, 64, 82
1, 444764, Control_c, 0, 67, 36
1, 444779, Control_c, 0, 64, 81
1, 444779, Control_c, 0, 67, 32
1, 444794, Control_c, 0, 64, 80
1, 444794, Control_c, 0, 67, 27
1, 444808, Control_c, 0, 64, 79
1, 444808, Control_c, 0, 67, 24
1, 444823, Control_c, 0, 64, 78
1, 444823, Control_c, 0, 67, 21
1, 444838, Control_c, 0, 64, 77
1, 444838, Control_c, 0, 67, 20
1, 444853, Control_c, 0, 64, 77
1, 444853, Control_c, 0, 67, 18
1, 444868, Control_c, 0, 64, 76
1, 444868, Control_c, 0, 67, 17
1, 444890, Control_c, 0, 64, 76
1, 444890, Control_c, 0, 67, 17
1, 444905, Control_c, 0, 64, 75
1, 444905, Control_c, 0, 67, 16
1, 444919, Control_c, 0, 64, 75
1, 444919, Control_c, 0, 67, 15
1, 444934, Control_c, 0, 64, 74
1, 444949, Control_c, 0, 67, 15
1, 444963, Control_c, 0, 64, 74
1, 444963, Control_c, 0, 67, 14
1, 444978, Control_c, 0, 64, 73
1, 444993, Control_c, 0, 64, 73
1, 444993, Control_c, 0, 67, 13
1, 445008, Control_c, 0, 64, 72
1, 445038, Control_c, 0, 64, 72
1, 445083, Control_c, 0, 67, 13
1, 445127, Control_c, 0, 64, 71
1, 445127, Control_c, 0, 67, 12
1, 445157, Control_c, 0, 67, 11
1, 445201, Control_c, 0, 67, 11
1, 445231, Control_c, 0, 64, 71
1, 445260, Control_c, 0, 67, 10
1, 445304, Control_c, 0, 64, 70
1, 445319, Control_c, 0, 67, 9
1, 445349, Control_c, 0, 64, 70
1, 445378, Control_c, 0, 67, 9
1, 445393, Control_c, 0, 64, 69
1, 445393, Control_c, 0, 67, 8
1, 445408, Control_c, 0, 64, 69
1, 445423, Control_c, 0, 67, 0
1, 445439, Control_c, 0, 64, 68
1, 445468, Control_c, 0, 64, 68
1, 445513, Control_c, 0, 64, 67
1, 445639, Control_c, 0, 64, 67
1, 445698, Control_c, 0, 64, 66
1, 445742, Control_c, 0, 64, 66
1, 445757, Control_c, 0, 64, 65
1, 445786, Control_c, 0, 64, 65
1, 445831, Control_c, 0, 64, 64
1, 445861, Control_c, 0, 64, 64
1, 445905, Control_c, 0, 64, 63
1, 446068, Control_c, 0, 64, 63
1, 446247, Control_c, 0, 64, 62
1, 446320, Note_off_c, 0, 48, 59
1, 446321, Control_c, 0, 64, 62
1, 446328, Note_off_c, 0, 36, 55
1, 446332, Note_off_c, 0, 55, 57
1, 446336, Control_c, 0, 64, 61
1, 446341, Note_off_c, 0, 64, 64
1, 446347, Note_off_c, 0, 60, 59
1, 446351, Control_c, 0, 64, 60
1, 446365, Control_c, 0, 64, 59
1, 446388, Control_c, 0, 64, 58
1, 446403, Control_c, 0, 64, 57
1, 446417, Control_c, 0, 64, 57
1, 446432, Control_c, 0, 64, 56
1, 446447, Control_c, 0, 64, 54
1, 446462, Control_c, 0, 64, 52
1, 446477, Control_c, 0, 64, 51
1, 446491, Control_c, 0, 64, 51
1, 446550, Control_c, 0, 64, 51
1, 446565, Control_c, 0, 64, 54
1, 446580, Control_c, 0, 64, 60
1, 446590, Note_on_c, 0, 29, 70
1, 446595, Control_c, 0, 64, 67
1, 446600, Note_on_c, 0, 56, 83
1, 446609, Control_c, 0, 64, 74
1, 446616, Note_off_c, 0, 29, 62
1, 446624, Control_c, 0, 64, 89
1, 446639, Control_c, 0, 64, 127
1, 446701, Note_on_c, 0, 68, 76
1, 446773, Note_off_c, 0, 56, 62
1, 446781, Note_on_c, 0, 65, 74
1, 446787, Note_off_c, 0, 68, 60
1, 446847, Control_c, 0, 64, 105
1, 446850, Note_off_c, 0, 65, 62
1, 446862, Control_c, 0, 64, 94
1, 446864, Note_on_c, 0, 49, 61
1, 446877, Control_c, 0, 64, 86
1, 446877, Note_on_c, 0, 55, 76
1, 446891, Control_c, 0, 64, 81
1, 446906, Control_c, 0, 64, 78
1, 446915, Note_off_c, 0, 55, 61
1, 446921, Control_c, 0, 64, 74
1, 446922, Note_off_c, 0, 49, 54
1, 446935, Control_c, 0, 64, 72
1, 446950, Control_c, 0, 64, 69
1, 446952, Note_on_c, 0, 59, 63
1, 446956, Note_on_c, 0, 56, 64
1, 446964, Note_on_c, 0, 37, 59
1, 446965, Control_c, 0, 64, 67
1, 446980, Control_c, 0, 64, 66
1, 446995, Control_c, 0, 64, 66
1, 447009, Control_c, 0, 64, 65
1, 447011, Note_off_c, 0, 37, 63
1, 447013, Note_off_c, 0, 59, 64
1, 447024, Note_on_c, 0, 53, 78
1, 447024, Control_c, 0, 64, 65
1, 447039, Note_off_c, 0, 56, 64
1, 447041, Note_on_c, 0, 43, 53
1, 447055, Control_c, 0, 64, 64
1, 447074, Note_off_c, 0, 53, 61
1, 447098, Note_on_c, 0, 61, 81
1, 447101, Note_off_c, 0, 43, 58
1, 447109, Note_on_c, 0, 35, 48
1, 447113, Note_on_c, 0, 36, 57
1, 447149, Note_off_c, 0, 35, 58
1, 447152, Note_off_c, 0, 36, 63
1, 447174, Note_on_c, 0, 60, 73
1, 447179, Note_on_c, 0, 52, 70
1, 447181, Control_c, 0, 64, 64
1, 447190, Note_off_c, 0, 61, 52
1, 447217, Note_off_c, 0, 52, 66
1, 447237, Note_on_c, 0, 67, 85
1, 447240, Control_c, 0, 64, 63
1, 447268, Note_off_c, 0, 60, 64
1, 447268, Note_on_c, 0, 48, 68
1, 447301, Note_off_c, 0, 67, 65
1, 447321, Note_on_c, 0, 60, 87
1, 447348, Note_on_c, 0, 56, 75
1, 447358, Control_c, 0, 64, 64
1, 447388, Control_c, 0, 64, 64
1, 447397, Note_on_c, 0, 70, 85
1, 447403, Control_c, 0, 64, 65
1, 447404, Note_off_c, 0, 56, 63
1, 447418, Control_c, 0, 64, 65
1, 447432, Control_c, 0, 64, 66
1, 447447, Control_c, 0, 64, 67
1, 447467, Note_on_c, 0, 41, 70
1, 447469, Note_on_c, 0, 68, 81
1, 447482, Note_off_c, 0, 70, 65
1, 447483, Note_off_c, 0, 48, 64
1, 447505, Note_off_c, 0, 60, 64
1, 447509, Note_off_c, 0, 41, 67
1, 447516, Note_off_c, 0, 68, 60
1, 447551, Control_c, 0, 64, 66
1, 447560, Note_on_c, 0, 67, 92
1, 447563, Note_on_c, 0, 49, 67
1, 447566, Control_c, 0, 64, 66
1, 447581, Control_c, 0, 64, 65
1, 447596, Control_c, 0, 64, 65
1, 447610, Control_c, 0, 64, 64
1, 447625, Control_c, 0, 64, 64
1, 447638, Note_on_c, 0, 57, 78
1, 447640, Control_c, 0, 64, 63
1, 447655, Control_c, 0, 64, 63
1, 447670, Control_c, 0, 64, 61
1, 447675, Note_off_c, 0, 49, 62
1, 447676, Note_on_c, 0, 37, 64
1, 447685, Note_off_c, 0, 67, 60
1, 447685, Control_c, 0, 64, 58
1, 447700, Control_c, 0, 64, 51
1, 447710, Note_on_c, 0, 65, 81
1, 447714, Control_c, 0, 64, 16
1, 447719, Note_off_c, 0, 37, 62
1, 447729, Control_c, 0, 64, 0
1, 447744, Note_off_c, 0, 57, 61
1, 447782, Note_on_c, 0, 36, 70
1, 447804, Note_on_c, 0, 61, 75
1, 447805, Poly_aftertouch_c, 0, 58, 0
1, 447808, Note_off_c, 0, 65, 65
1, 447827, Note_off_c, 0, 36, 61
1, 447871, Note_off_c, 0, 61, 61
1, 447888, Note_on_c, 0, 60, 76
1, 447893, Note_on_c, 0, 52, 56
1, 447932, Note_off_c, 0, 52, 64
1, 447956, Note_on_c, 0, 58, 65
1, 447982, Note_on_c, 0, 48, 46
1, 447991, Note_off_c, 0, 60, 60
1, 448023, Note_off_c, 0, 58, 64
1, 448026, Note_on_c, 0, 67, 72
1, 448067, Note_off_c, 0, 48, 59
1, 448067, Note_on_c, 0, 41, 65
1, 448078, Control_c, 0, 64, 30
1, 448093, Control_c, 0, 64, 47
1, 448108, Control_c, 0, 64, 56
1, 448123, Control_c, 0, 64, 59
1, 448127, Note_on_c, 0, 56, 72
1, 448137, Control_c, 0, 64, 61
1, 448141, Note_off_c, 0, 67, 62
1, 448152, Control_c, 0, 64, 62
1, 448167, Control_c, 0, 64, 63
1, 448181, Control_c, 0, 64, 65
1, 448196, Control_c, 0, 64, 67
1, 448211, Control_c, 0, 64, 70
1, 448213, Note_on_c, 0, 53, 51
1, 448226, Control_c, 0, 64, 73
1, 448241, Control_c, 0, 64, 75
1, 448247, Note_on_c, 0, 68, 83
1, 448255, Control_c, 0, 64, 79
1, 448257, Note_on_c, 0, 63, 63
1, 448268, Note_off_c, 0, 56, 63
1, 448269, Note_off_c, 0, 41, 64
1, 448270, Control_c, 0, 64, 84
1, 448285, Control_c, 0, 64, 88
1, 448298, Note_off_c, 0, 53, 56
1, 448300, Control_c, 0, 64, 95
1, 448313, Note_on_c, 0, 44, 41
1, 448315, Control_c, 0, 64, 103
1, 448322, Note_off_c, 0, 63, 62
1, 448329, Control_c, 0, 64, 117
1, 448335, Note_on_c, 0, 61, 79
1, 448344, Control_c, 0, 64, 127
1, 448376, Note_off_c, 0, 44, 62
1, 448388, Note_off_c, 0, 61, 63
1, 448388, Note_off_c, 0, 68, 42
1, 448391, Note_on_c, 0, 63, 76
1, 448408, Note_on_c, 0, 39, 70
1, 448418, Control_c, 0, 64, 72
1, 448433, Control_c, 0, 64, 39
1, 448448, Control_c, 0, 64, 0
1, 448449, Note_off_c, 0, 63, 64
1, 448452, Note_on_c, 0, 61, 74
1, 448493, Control_c, 0, 64, 38
1, 448499, Note_off_c, 0, 61, 64
1, 448507, Control_c, 0, 64, 61
1, 448516, Note_on_c, 0, 60, 81
1, 448517, Note_on_c, 0, 54, 64
1, 448522, Control_c, 0, 64, 68
1, 448537, Control_c, 0, 64, 75
1, 448552, Control_c, 0, 64, 83
1, 448552, Note_off_c, 0, 39, 36
1, 448567, Control_c, 0, 64, 88
1, 448581, Control_c, 0, 64, 91
1, 448596, Control_c, 0, 64, 92
1, 448606, Note_off_c, 0, 54, 63
1, 448624, Note_off_c, 0, 60, 59
1, 448634, Control_c, 0, 64, 93
1, 448645, Note_on_c, 0, 44, 43
1, 448649, Control_c, 0, 64, 96
1, 448650, Note_on_c, 0, 68, 82
1, 448664, Control_c, 0, 64, 101
1, 448672, Note_on_c, 0, 66, 60
1, 448679, Control_c, 0, 64, 109
1, 448694, Control_c, 0, 64, 118
1, 448698, Note_off_c, 0, 44, 58
1, 448702, Note_off_c, 0, 68, 63
1, 448702, Note_off_c, 0, 66, 64
1, 448709, Control_c, 0, 64, 123
1, 448717, Note_on_c, 0, 37, 67
1, 448739, Control_c, 0, 64, 100
1, 448754, Control_c, 0, 64, 74
1, 448756, Note_on_c, 0, 68, 79
1, 448768, Control_c, 0, 64, 50
1, 448776, Note_on_c, 0, 66, 60
1, 448783, Control_c, 0, 64, 0
1, 448805, Note_off_c, 0, 37, 63
1, 448813, Note_off_c, 0, 66, 64
1, 448842, Control_c, 0, 64, 18
1, 448857, Control_c, 0, 64, 55
1, 448863, Note_on_c, 0, 53, 59
1, 448872, Control_c, 0, 64, 62
1, 448885, Note_on_c, 0, 65, 61
1, 448886, Control_c, 0, 64, 64
1, 448901, Control_c, 0, 64, 65
1, 448940, Note_off_c, 0, 53, 56
1, 448949, Note_off_c, 0, 65, 57
1, 448961, Control_c, 0, 64, 65
1, 448976, Control_c, 0, 64, 66
1, 448991, Control_c, 0, 64, 67
1, 449005, Control_c, 0, 64, 69
1, 449014, Note_on_c, 0, 44, 49
1, 449020, Control_c, 0, 64, 72
1, 449035, Control_c, 0, 64, 75
1, 449041, Note_on_c, 0, 73, 76
1, 449046, Note_off_c, 0, 68, 62
1, 449050, Control_c, 0, 64, 74
1, 449065, Control_c, 0, 64, 66
1, 449079, Control_c, 0, 64, 49
1, 449094, Control_c, 0, 64, 0
1, 449096, Note_off_c, 0, 44, 58
1, 449107, Note_on_c, 0, 43, 54
1, 449118, Note_on_c, 0, 61, 68
1, 449153, Control_c, 0, 64, 42
1, 449168, Control_c, 0, 64, 59
1, 449183, Control_c, 0, 64, 64
1, 449198, Control_c, 0, 64, 67
1, 449212, Control_c, 0, 64, 69
1, 449222, Note_off_c, 0, 61, 58
1, 449227, Control_c, 0, 64, 71
1, 449242, Control_c, 0, 64, 74
1, 449244, Note_off_c, 0, 43, 60
1, 449250, Note_on_c, 0, 72, 78
1, 449253, Note_on_c, 0, 44, 60
1, 449257, Note_off_c, 0, 73, 62
1, 449257, Control_c, 0, 64, 79
1, 449272, Control_c, 0, 64, 84
1, 449286, Control_c, 0, 64, 93
1, 449301, Control_c, 0, 64, 113
1, 449308, Note_off_c, 0, 72, 61
1, 449316, Control_c, 0, 64, 127
1, 449330, Note_off_c, 0, 44, 63
1, 449351, Note_on_c, 0, 71, 81
1, 449360, Note_on_c, 0, 45, 58
1, 449363, Note_on_c, 0, 61, 75
1, 449406, Note_off_c, 0, 71, 64
1, 449416, Note_off_c, 0, 45, 58
1, 449423, Note_off_c, 0, 61, 54
1, 449445, Note_on_c, 0, 46, 69
1, 449448, Note_on_c, 0, 70, 90
1, 449516, Note_off_c, 0, 70, 64
1, 449519, Note_off_c, 0, 46, 63
1, 449524, Note_on_c, 0, 47, 75
1, 449527, Note_on_c, 0, 61, 70
1, 449545, Note_on_c, 0, 69, 74
1, 449553, Note_on_c, 0, 65, 21
1, 449570, Note_off_c, 0, 69, 64
1, 449596, Note_off_c, 0, 65, 52
1, 449606, Note_on_c, 0, 68, 85
1, 449609, Note_off_c, 0, 47, 61
1, 449612, Note_on_c, 0, 69, 59
1, 449614, Note_on_c, 0, 66, 82
1, 449617, Note_off_c, 0, 61, 63
1, 449620, Note_on_c, 0, 48, 79
1, 449621, Control_c, 0, 64, 89
1, 449635, Note_off_c, 0, 69, 62
1, 449635, Control_c, 0, 64, 59
1, 449650, Control_c, 0, 64, 0
1, 449688, Note_off_c, 0, 66, 56
1, 449691, Note_on_c, 0, 65, 60
1, 449706, Note_on_c, 0, 49, 77
1, 449715, Note_off_c, 0, 48, 60
1, 449716, Note_on_c, 0, 58, 87
1, 449729, Note_off_c, 0, 65, 59
1, 449739, Control_c, 0, 64, 32
1, 449754, Control_c, 0, 64, 62
1, 449769, Control_c, 0, 64, 67
1, 449774, Note_off_c, 0, 58, 64
1, 449784, Control_c, 0, 64, 70
1, 449798, Note_on_c, 0, 67, 68
1, 449798, Control_c, 0, 64, 72
1, 449801, Note_off_c, 0, 49, 59
1, 449807, Note_on_c, 0, 64, 76
1, 449813, Control_c, 0, 64, 74
1, 449814, Note_on_c, 0, 48, 66
1, 449815, Note_off_c, 0, 68, 62
1, 449828, Control_c, 0, 64, 78
1, 449843, Control_c, 0, 64, 87
1, 449858, Control_c, 0, 64, 127
1, 449903, Note_off_c, 0, 67, 63
1, 449904, Note_on_c, 0, 72, 96
1, 449906, Note_off_c, 0, 48, 56
1, 449921, Note_on_c, 0, 60, 60
1, 449935, Note_off_c, 0, 64, 65
1, 449942, Note_off_c, 0, 60, 63
1, 449949, Note_off_c, 0, 72, 67
1, 450046, Note_on_c, 0, 41, 76
1, 450080, Control_c, 0, 64, 90
1, 450095, Control_c, 0, 64, 63
1, 450109, Control_c, 0, 64, 0
1, 450118, Note_on_c, 0, 68, 94
1, 450161, Control_c, 0, 64, 24
1, 450176, Control_c, 0, 64, 61
1, 450191, Control_c, 0, 64, 70
1, 450206, Control_c, 0, 64, 82
1, 450221, Control_c, 0, 64, 105
1, 450234, Note_off_c, 0, 41, 64
1, 450237, Control_c, 0, 64, 127
1, 450246, Note_on_c, 0, 80, 86
1, 450288, Note_off_c, 0, 68, 58
1, 450292, Note_on_c, 0, 72, 25
1, 450330, Note_on_c, 0, 77, 86
1, 450356, Note_off_c, 0, 80, 61
1, 450378, Note_off_c, 0, 72, 34
1, 450401, Note_off_c, 0, 77, 60
1, 450414, Control_c, 0, 64, 99
1, 450419, Note_on_c, 0, 61, 63
1, 450421, Note_on_c, 0, 67, 82
1, 450429, Control_c, 0, 64, 76
1, 450444, Control_c, 0, 64, 63
1, 450458, Control_c, 0, 64, 48
1, 450473, Control_c, 0, 64, 41
1, 450475, Note_off_c, 0, 67, 57
1, 450488, Control_c, 0, 64, 44
1, 450493, Note_on_c, 0, 71, 79
1, 450498, Note_on_c, 0, 49, 65
1, 450502, Note_off_c, 0, 61, 56
1, 450503, Control_c, 0, 64, 53
1, 450509, Note_on_c, 0, 68, 63
1, 450518, Control_c, 0, 64, 61
1, 450532, Control_c, 0, 64, 64
1, 450547, Control_c, 0, 64, 65
1, 450557, Note_off_c, 0, 71, 63
1, 450560, Note_off_c, 0, 49, 64
1, 450562, Control_c, 0, 64, 66
1, 450564, Note_on_c, 0, 55, 69
1, 450573, Note_on_c, 0, 65, 85
1, 450576, Control_c, 0, 64, 67
1, 450582, Note_off_c, 0, 68, 59
1, 450591, Control_c, 0, 64, 69
1, 450606, Control_c, 0, 64, 72
1, 450621, Note_off_c, 0, 65, 64
1, 450621, Control_c, 0, 64, 74
1, 450636, Control_c, 0, 64, 76
1, 450645, Note_on_c, 0, 48, 77
1, 450645, Note_off_c, 0, 55, 59
1, 450648, Note_on_c, 0, 73, 88
1, 450651, Control_c, 0, 64, 79
1, 450666, Control_c, 0, 64, 81
1, 450674, Note_off_c, 0, 48, 65
1, 450681, Control_c, 0, 64, 85
1, 450696, Control_c, 0, 64, 90
1, 450710, Note_on_c, 0, 64, 70
1, 450711, Control_c, 0, 64, 97
1, 450714, Note_on_c, 0, 72, 79
1, 450725, Control_c, 0, 64, 108
1, 450740, Control_c, 0, 64, 127
1, 450740, Note_off_c, 0, 64, 66
1, 450765, Note_on_c, 0, 79, 88
1, 450787, Note_on_c, 0, 60, 65
1, 450788, Note_off_c, 0, 73, 62
1, 450791, Note_off_c, 0, 72, 66
1, 450799, Control_c, 0, 64, 117
1, 450814, Control_c, 0, 64, 79
1, 450829, Control_c, 0, 64, 64
1, 450830, Note_off_c, 0, 79, 67
1, 450844, Control_c, 0, 64, 50
1, 450852, Note_on_c, 0, 72, 93
1, 450857, Note_on_c, 0, 68, 79
1, 450858, Control_c, 0, 64, 43
1, 450881, Control_c, 0, 64, 49
1, 450895, Control_c, 0, 64, 60
1, 450910, Control_c, 0, 64, 66
1, 450916, Note_off_c, 0, 68, 63
1, 450925, Note_on_c, 0, 82, 87
1, 450925, Control_c, 0, 64, 73
1, 450940, Control_c, 0, 64, 83
1, 450955, Control_c, 0, 64, 100
1, 450970, Control_c, 0, 64, 127
1, 450982, Note_on_c, 0, 53, 71
1, 450993, Note_off_c, 0, 60, 58
1, 450998, Note_on_c, 0, 80, 83
1, 451005, Note_off_c, 0, 82, 66
1, 451015, Note_off_c, 0, 53, 67
1, 451018, Note_off_c, 0, 72, 65
1, 451024, Note_off_c, 0, 80, 68
1, 451059, Control_c, 0, 64, 79
1, 451066, Note_on_c, 0, 61, 81
1, 451074, Control_c, 0, 64, 59
1, 451076, Note_on_c, 0, 79, 96
1, 451089, Control_c, 0, 64, 37
1, 451104, Control_c, 0, 64, 33
1, 451119, Control_c, 0, 64, 42
1, 451134, Control_c, 0, 64, 58
1, 451146, Note_on_c, 0, 69, 83
1, 451149, Control_c, 0, 64, 64
1, 451151, Note_off_c, 0, 61, 56
1, 451163, Control_c, 0, 64, 69
1, 451178, Control_c, 0, 64, 71
1, 451185, Note_off_c, 0, 79, 65
1, 451188, Note_on_c, 0, 49, 73
1, 451193, Control_c, 0, 64, 71
1, 451207, Control_c, 0, 64, 71
1, 451221, Note_on_c, 0, 70, 35
1, 451222, Control_c, 0, 64, 71
1, 451225, Note_on_c, 0, 77, 75
1, 451237, Control_c, 0, 64, 72
1, 451252, Control_c, 0, 64, 74
1, 451253, Note_off_c, 0, 70, 55
1, 451253, Note_off_c, 0, 49, 64
1, 451265, Note_off_c, 0, 69, 61
1, 451267, Control_c, 0, 64, 77
1, 451281, Control_c, 0, 64, 81
1, 451296, Note_on_c, 0, 73, 85
1, 451296, Control_c, 0, 64, 85
1, 451302, Note_off_c, 0, 77, 63
1, 451311, Control_c, 0, 64, 88
1, 451320, Note_on_c, 0, 48, 65
1, 451326, Control_c, 0, 64, 89
1, 451341, Control_c, 0, 64, 86
1, 451355, Control_c, 0, 64, 81
1, 451361, Note_off_c, 0, 48, 49
1, 451370, Control_c, 0, 64, 71
1, 451372, Note_on_c, 0, 72, 76
1, 451378, Note_off_c, 0, 73, 66
1, 451385, Control_c, 0, 64, 49
1, 451399, Control_c, 0, 64, 0
1, 451422, Note_on_c, 0, 70, 78
1, 451440, Note_on_c, 0, 64, 62
1, 451483, Note_off_c, 0, 64, 58
1, 451488, Note_on_c, 0, 78, 63
1, 451489, Control_c, 0, 64, 53
1, 451492, Note_off_c, 0, 70, 64
1, 451498, Note_on_c, 0, 79, 86
1, 451501, Note_off_c, 0, 72, 62
1, 451504, Control_c, 0, 64, 59
1, 451518, Control_c, 0, 64, 60
1, 451533, Control_c, 0, 64, 62
1, 451538, Note_on_c, 0, 60, 40
1, 451548, Control_c, 0, 64, 64
1, 451563, Control_c, 0, 64, 66
1, 451566, Note_off_c, 0, 60, 59
1, 451577, Note_off_c, 0, 79, 64
1, 451578, Control_c, 0, 64, 68
1, 451581, Note_off_c, 0, 78, 62
1, 451582, Note_on_c, 0, 53, 69
1, 451589, Note_on_c, 0, 68, 84
1, 451593, Control_c, 0, 64, 66
1, 451607, Control_c, 0, 64, 58
1, 451629, Control_c, 0, 64, 31
1, 451644, Control_c, 0, 64, 0
1, 451688, Control_c, 0, 64, 37
1, 451703, Control_c, 0, 64, 57
1, 451706, Note_on_c, 0, 80, 81
1, 451716, Note_on_c, 0, 65, 58
1, 451718, Control_c, 0, 64, 64
1, 451728, Note_off_c, 0, 68, 60
1, 451732, Control_c, 0, 64, 68
1, 451739, Note_on_c, 0, 75, 54
1, 451747, Control_c, 0, 64, 71
1, 451762, Control_c, 0, 64, 76
1, 451764, Note_off_c, 0, 65, 59
1, 451775, Note_off_c, 0, 53, 63
1, 451777, Control_c, 0, 64, 83
1, 451779, Note_off_c, 0, 75, 64
1, 451792, Control_c, 0, 64, 96
1, 451796, Note_on_c, 0, 56, 64
1, 451798, Note_on_c, 0, 73, 80
1, 451806, Control_c, 0, 64, 127
1, 451808, Note_off_c, 0, 80, 64
1, 451837, Control_c, 0, 64, 109
1, 451840, Note_off_c, 0, 56, 63
1, 451850, Note_on_c, 0, 75, 87
1, 451850, Note_off_c, 0, 73, 64
1, 451852, Control_c, 0, 64, 79
1, 451867, Control_c, 0, 64, 66
1, 451882, Control_c, 0, 64, 60
1, 451882, Note_on_c, 0, 51, 80
1, 451897, Control_c, 0, 64, 61
1, 451903, Note_off_c, 0, 75, 64
1, 451904, Note_on_c, 0, 73, 71
1, 451911, Control_c, 0, 64, 65
1, 451926, Control_c, 0, 64, 71
1, 451938, Note_off_c, 0, 73, 68
1, 451941, Control_c, 0, 64, 80
1, 451956, Control_c, 0, 64, 96
1, 451971, Note_on_c, 0, 72, 83
1, 451971, Control_c, 0, 64, 127
1, 451975, Note_off_c, 0, 51, 60
1, 452001, Note_on_c, 0, 66, 71
1, 452045, Note_off_c, 0, 72, 56
1, 452065, Note_on_c, 0, 80, 90
1, 452073, Note_off_c, 0, 66, 61
1, 452082, Note_on_c, 0, 78, 75
1, 452084, Note_on_c, 0, 56, 63
1, 452117, Note_off_c, 0, 78, 63
1, 452129, Note_off_c, 0, 80, 65
1, 452163, Control_c, 0, 64, 96
1, 452171, Note_off_c, 0, 56, 58
1, 452172, Note_on_c, 0, 49, 76
1, 452177, Control_c, 0, 64, 67
1, 452182, Note_on_c, 0, 80, 79
1, 452192, Control_c, 0, 64, 0
1, 452193, Note_on_c, 0, 78, 77
1, 452252, Control_c, 0, 64, 23
1, 452253, Note_off_c, 0, 49, 64
1, 452265, Note_off_c, 0, 78, 63
1, 452267, Control_c, 0, 64, 57
1, 452282, Control_c, 0, 64, 65
1, 452296, Control_c, 0, 64, 68
1, 452298, Note_on_c, 0, 77, 73
1, 452302, Note_on_c, 0, 65, 63
1, 452311, Control_c, 0, 64, 70
1, 452326, Control_c, 0, 64, 71
1, 452341, Control_c, 0, 64, 73
1, 452355, Control_c, 0, 64, 76
1, 452365, Note_off_c, 0, 77, 58
1, 452377, Control_c, 0, 64, 81
1, 452381, Note_off_c, 0, 65, 61
1, 452392, Control_c, 0, 64, 90
1, 452407, Control_c, 0, 64, 107
1, 452422, Control_c, 0, 64, 127
1, 452442, Note_on_c, 0, 56, 66
1, 452481, Control_c, 0, 64, 93
1, 452490, Note_on_c, 0, 85, 77
1, 452492, Note_off_c, 0, 80, 63
1, 452496, Control_c, 0, 64, 67
1, 452510, Control_c, 0, 64, 35
1, 452525, Control_c, 0, 64, 0
1, 452526, Note_off_c, 0, 56, 55
1, 452541, Note_on_c, 0, 55, 60
1, 452554, Note_on_c, 0, 73, 71
1, 452569, Control_c, 0, 64, 43
1, 452584, Control_c, 0, 64, 60
1, 452599, Control_c, 0, 64, 65
1, 452614, Control_c, 0, 64, 67
1, 452630, Control_c, 0, 64, 67
1, 452645, Note_off_c, 0, 73, 58
1, 452669, Note_off_c, 0, 55, 62
1, 452674, Note_on_c, 0, 84, 77
1, 452675, Note_on_c, 0, 56, 66
1, 452681, Note_off_c, 0, 85, 62
1, 452704, Control_c, 0, 64, 68
1, 452719, Control_c, 0, 64, 69
1, 452722, Note_off_c, 0, 84, 60
1, 452733, Control_c, 0, 64, 71
1, 452744, Note_off_c, 0, 56, 64
1, 452748, Control_c, 0, 64, 74
1, 452763, Control_c, 0, 64, 77
1, 452769, Note_on_c, 0, 57, 63
1, 452770, Note_on_c, 0, 83, 80
1, 452777, Control_c, 0, 64, 82
1, 452782, Note_on_c, 0, 73, 73
1, 452792, Control_c, 0, 64, 88
1, 452807, Control_c, 0, 64, 99
1, 452809, Note_off_c, 0, 57, 60
1, 452816, Note_off_c, 0, 83, 62
1, 452822, Control_c, 0, 64, 127
1, 452845, Note_on_c, 0, 58, 69
1, 452847, Note_on_c, 0, 82, 87
1, 452859, Note_off_c, 0, 73, 65
1, 452880, Note_on_c, 0, 77, 55
1, 452907, Note_off_c, 0, 58, 63
1, 452908, Note_on_c, 0, 59, 82
1, 452909, Note_on_c, 0, 80, 44
1, 452909, Note_off_c, 0, 82, 66
1, 452931, Note_on_c, 0, 73, 83
1, 452939, Note_off_c, 0, 80, 60
1, 452942, Note_on_c, 0, 81, 74
1, 452960, Note_off_c, 0, 77, 64
1, 452976, Note_off_c, 0, 81, 55
1, 452983, Note_off_c, 0, 59, 63
1, 453003, Note_on_c, 0, 60, 84
1, 453009, Note_on_c, 0, 80, 95
1, 453021, Note_off_c, 0, 73, 63
1, 453022, Note_on_c, 0, 77, 91
1, 453044, Control_c, 0, 64, 82
1, 453059, Control_c, 0, 64, 53
1, 453070, Note_on_c, 0, 61, 87
1, 453074, Control_c, 0, 64, 0
1, 453089, Note_off_c, 0, 60, 62
1, 453113, Note_on_c, 0, 70, 88
1, 453131, Note_off_c, 0, 77, 62
1, 453155, Control_c, 0, 64, 60
1, 453170, Control_c, 0, 64, 70
1, 453177, Note_off_c, 0, 70, 66
1, 453185, Note_on_c, 0, 60, 79
1, 453185, Control_c, 0, 64, 79
1, 453188, Note_on_c, 0, 79, 39
1, 453194, Note_off_c, 0, 61, 61
1, 453200, Control_c, 0, 64, 91
1, 453203, Note_on_c, 0, 76, 83
1, 453211, Note_off_c, 0, 80, 66
1, 453215, Control_c, 0, 64, 105
1, 453229, Control_c, 0, 64, 127
1, 453259, Note_off_c, 0, 79, 65
1, 453287, Note_on_c, 0, 84, 96
1, 453292, Note_off_c, 0, 60, 61
1, 453303, Note_on_c, 0, 72, 72
1, 453311, Note_off_c, 0, 76, 65
1, 453325, Note_off_c, 0, 84, 66
1, 453327, Note_off_c, 0, 72, 66
1, 453425, Poly_aftertouch_c, 0, 55, 127
1, 453438, Control_c, 0, 64, 79
1, 453444, Note_on_c, 0, 53, 83
1, 453453, Control_c, 0, 64, 48
1, 453467, Control_c, 0, 64, 0
1, 453480, Note_on_c, 0, 80, 88
1, 453482, Note_on_c, 0, 71, 91
1, 453497, Poly_aftertouch_c, 0, 55, 0
1, 453505, Note_off_c, 0, 53, 65
1, 453506, Note_on_c, 0, 75, 40
1, 453520, Note_off_c, 0, 71, 66
1, 453527, Control_c, 0, 64, 57
1, 453535, Note_off_c, 0, 75, 35
1, 453540, Note_off_c, 0, 80, 63
1, 453542, Control_c, 0, 64, 67
1, 453556, Control_c, 0, 64, 74
1, 453571, Control_c, 0, 64, 80
1, 453586, Control_c, 0, 64, 85
1, 453600, Control_c, 0, 64, 86
1, 453615, Control_c, 0, 64, 88
1, 453630, Control_c, 0, 64, 92
1, 453645, Control_c, 0, 64, 99
1, 453660, Control_c, 0, 64, 113
1, 453663, Note_on_c, 0, 75, 66
1, 453671, Note_on_c, 0, 72, 71
1, 453674, Control_c, 0, 64, 127
1, 453692, Note_off_c, 0, 75, 66
1, 453695, Note_on_c, 0, 68, 51
1, 453706, Note_off_c, 0, 72, 63
1, 453729, Note_off_c, 0, 68, 54
1, 453753, Note_on_c, 0, 76, 77
1, 453775, Note_on_c, 0, 73, 60
1, 453779, Note_on_c, 0, 62, 40
1, 453808, Note_off_c, 0, 73, 67
1, 453813, Note_off_c, 0, 76, 63
1, 453832, Note_off_c, 0, 62, 57
1, 453836, Note_on_c, 0, 77, 82
1, 453841, Note_on_c, 0, 59, 58
1, 453860, Note_on_c, 0, 74, 74
1, 453874, Note_off_c, 0, 77, 63
1, 453894, Note_off_c, 0, 74, 64
1, 453904, Note_on_c, 0, 68, 51
1, 453936, Note_on_c, 0, 78, 91
1, 453937, Note_off_c, 0, 59, 62
1, 453945, Note_on_c, 0, 75, 80
1, 453949, Note_on_c, 0, 62, 58
1, 453972, Note_off_c, 0, 68, 60
1, 453989, Note_off_c, 0, 78, 64
1, 453990, Note_off_c, 0, 75, 59
1, 454012, Note_off_c, 0, 62, 63
1, 454016, Note_on_c, 0, 76, 82
1, 454053, Control_c, 0, 64, 88
1, 454068, Control_c, 0, 64, 66
1, 454073, Note_on_c, 0, 52, 85
1, 454079, Note_on_c, 0, 80, 87
1, 454082, Control_c, 0, 64, 57
1, 454097, Control_c, 0, 64, 58
1, 454098, Note_on_c, 0, 77, 73
1, 454108, Note_off_c, 0, 52, 59
1, 454112, Control_c, 0, 64, 63
1, 454127, Control_c, 0, 64, 70
1, 454136, Note_on_c, 0, 79, 70
1, 454142, Control_c, 0, 64, 93
1, 454157, Control_c, 0, 64, 127
1, 454164, Note_on_c, 0, 67, 72
1, 454172, Note_off_c, 0, 76, 61
1, 454195, Note_off_c, 0, 80, 58
1, 454205, Note_off_c, 0, 79, 67
1, 454229, Note_on_c, 0, 61, 79
1, 454234, Note_off_c, 0, 67, 61
1, 454251, Note_on_c, 0, 85, 88
1, 454260, Note_off_c, 0, 77, 59
1, 454272, Note_off_c, 0, 85, 67
1, 454335, Control_c, 0, 64, 65
1, 454344, Note_off_c, 0, 61, 63
1, 454350, Control_c, 0, 64, 0
1, 454352, Note_on_c, 0, 51, 89
1, 454365, Note_on_c, 0, 78, 89
1, 454368, Note_on_c, 0, 69, 97
1, 454410, Control_c, 0, 64, 48
1, 454418, Note_off_c, 0, 51, 62
1, 454423, Note_off_c, 0, 69, 63
1, 454424, Control_c, 0, 64, 72
1, 454425, Note_off_c, 0, 78, 62
1, 454439, Control_c, 0, 64, 87
1, 454454, Control_c, 0, 64, 119
1, 454469, Control_c, 0, 64, 127
1, 454511, Note_on_c, 0, 70, 73
1, 454511, Note_on_c, 0, 73, 72
1, 454538, Note_on_c, 0, 66, 50
1, 454554, Note_off_c, 0, 73, 59
1, 454571, Note_off_c, 0, 70, 58
1, 454584, Note_off_c, 0, 66, 58
1, 454586, Note_on_c, 0, 60, 59
1, 454595, Note_on_c, 0, 71, 76
1, 454601, Note_on_c, 0, 74, 72
1, 454629, Note_off_c, 0, 71, 67
1, 454633, Note_off_c, 0, 74, 69
1, 454676, Note_on_c, 0, 57, 59
1, 454679, Note_off_c, 0, 60, 53
1, 454682, Note_on_c, 0, 75, 89
1, 454702, Note_on_c, 0, 72, 69
1, 454732, Note_off_c, 0, 75, 56
1, 454737, Note_on_c, 0, 66, 60
1, 454766, Note_on_c, 0, 76, 80
1, 454768, Note_off_c, 0, 57, 62
1, 454773, Note_on_c, 0, 73, 75
1, 454793, Note_off_c, 0, 72, 62
1, 454803, Poly_aftertouch_c, 0, 75, 127
1, 454808, Note_off_c, 0, 66, 63
1, 454813, Note_on_c, 0, 77, 86
1, 454828, Note_off_c, 0, 76, 64
1, 454836, Note_off_c, 0, 73, 66
1, 454842, Poly_aftertouch_c, 0, 75, 0
1, 454866, Note_off_c, 0, 77, 65
1, 454890, Note_on_c, 0, 50, 73
1, 454891, Control_c, 0, 64, 123
1, 454905, Control_c, 0, 64, 75
1, 454907, Note_on_c, 0, 75, 96
1, 454907, Note_on_c, 0, 78, 85
1, 454920, Control_c, 0, 64, 60
1, 454929, Note_off_c, 0, 50, 55
1, 454935, Control_c, 0, 64, 55
1, 454949, Note_off_c, 0, 75, 66
1, 454950, Control_c, 0, 64, 59
1, 454961, Note_off_c, 0, 78, 62
1, 454965, Control_c, 0, 64, 65
1, 454979, Control_c, 0, 64, 79
1, 454990, Note_on_c, 0, 74, 83
1, 454991, Note_on_c, 0, 65, 76
1, 454994, Control_c, 0, 64, 127
1, 455012, Note_on_c, 0, 78, 19
1, 455055, Note_off_c, 0, 65, 61
1, 455055, Note_off_c, 0, 78, 52
1, 455064, Note_on_c, 0, 83, 97
1, 455065, Note_on_c, 0, 59, 66
1, 455093, Note_off_c, 0, 74, 65
1, 455099, Poly_aftertouch_c, 0, 76, 0
1, 455105, Note_off_c, 0, 83, 64
1, 455128, Control_c, 0, 64, 97
1, 455143, Control_c, 0, 64, 65
1, 455158, Control_c, 0, 64, 0
1, 455192, Note_on_c, 0, 49, 73
1, 455217, Note_on_c, 0, 67, 84
1, 455233, Control_c, 0, 64, 42
1, 455234, Note_on_c, 0, 76, 56
1, 455247, Control_c, 0, 64, 65
1, 455252, Note_off_c, 0, 49, 64
1, 455259, Note_off_c, 0, 76, 61
1, 455262, Control_c, 0, 64, 73
1, 455265, Note_off_c, 0, 59, 58
1, 455277, Control_c, 0, 64, 79
1, 455292, Control_c, 0, 64, 81
1, 455310, Note_off_c, 0, 67, 58
1, 455336, Control_c, 0, 64, 83
1, 455343, Note_on_c, 0, 68, 80
1, 455350, Note_on_c, 0, 64, 62
1, 455351, Control_c, 0, 64, 87
1, 455364, Note_on_c, 0, 71, 60
1, 455366, Control_c, 0, 64, 97
1, 455384, Note_on_c, 0, 70, 29
1, 455388, Control_c, 0, 64, 127
1, 455404, Note_off_c, 0, 71, 65
1, 455420, Note_off_c, 0, 68, 61
1, 455421, Note_off_c, 0, 70, 50
1, 455433, Note_off_c, 0, 64, 50
1, 455449, Note_on_c, 0, 69, 86
1, 455454, Note_on_c, 0, 58, 63
1, 455467, Note_on_c, 0, 72, 53
1, 455489, Note_off_c, 0, 72, 60
1, 455492, Note_off_c, 0, 69, 65
1, 455515, Note_off_c, 0, 58, 53
1, 455524, Note_on_c, 0, 55, 59
1, 455535, Note_on_c, 0, 73, 82
1, 455575, Note_off_c, 0, 73, 60
1, 455596, Note_on_c, 0, 71, 72
1, 455600, Note_on_c, 0, 64, 47
1, 455609, Note_on_c, 0, 75, 87
1, 455637, Note_off_c, 0, 55, 62
1, 455641, Note_on_c, 0, 58, 71
1, 455656, Note_off_c, 0, 75, 63
1, 455677, Note_off_c, 0, 64, 54
1, 455693, Note_off_c, 0, 71, 0
1, 455721, Note_on_c, 0, 76, 79
1, 455724, Note_off_c, 0, 58, 62
1, 455728, Control_c, 0, 64, 88
1, 455731, Note_on_c, 0, 71, 7
1, 455738, Note_off_c, 0, 71, 51
1, 455743, Control_c, 0, 64, 63
1, 455753, Note_on_c, 0, 48, 83
1, 455758, Control_c, 0, 64, 0
1, 455781, Note_off_c, 0, 48, 68
1, 455787, Control_c, 0, 64, 19
1, 455797, Note_on_c, 0, 77, 81
1, 455801, Note_on_c, 0, 73, 78
1, 455802, Control_c, 0, 64, 56
1, 455818, Control_c, 0, 64, 71
1, 455833, Control_c, 0, 64, 94
1, 455841, Note_off_c, 0, 77, 60
1, 455844, Note_off_c, 0, 76, 62
1, 455848, Control_c, 0, 64, 127
1, 455849, Note_off_c, 0, 73, 62
1, 455866, Note_on_c, 0, 64, 65
1, 455900, Note_on_c, 0, 58, 53
1, 455906, Note_on_c, 0, 75, 67
1, 455935, Note_off_c, 0, 75, 66
1, 455936, Note_off_c, 0, 64, 63
1, 455963, Note_off_c, 0, 58, 63
1, 455966, Control_c, 0, 64, 94
1, 455981, Control_c, 0, 64, 64
1, 455989, Poly_aftertouch_c, 0, 57, 0
1, 455990, Note_on_c, 0, 79, 87
1, 455996, Control_c, 0, 64, 0
1, 455999, Note_on_c, 0, 76, 79
1, 456005, Note_on_c, 0, 47, 79
1, 456020, Note_on_c, 0, 48, 70
1, 456023, Note_on_c, 0, 77, 45
1, 456024, Note_off_c, 0, 77, 127
1, 456024, Note_off_c, 0, 76, 68
1, 456032, Note_off_c, 0, 47, 66
1, 456041, Control_c, 0, 64, 49
1, 456053, Note_off_c, 0, 48, 64
1, 456056, Control_c, 0, 64, 66
1, 456071, Control_c, 0, 64, 79
1, 456083, Note_on_c, 0, 76, 73
1, 456086, Control_c, 0, 64, 127
1, 456093, Note_on_c, 0, 78, 76
1, 456107, Note_off_c, 0, 79, 62
1, 456112, Note_on_c, 0, 64, 73
1, 456129, Note_off_c, 0, 78, 66
1, 456138, Note_off_c, 0, 76, 65
1, 456164, Note_on_c, 0, 79, 73
1, 456193, Note_on_c, 0, 59, 76
1, 456193, Note_off_c, 0, 64, 57
1, 456220, Note_off_c, 0, 79, 62
1, 456221, Note_on_c, 0, 75, 68
1, 456242, Note_on_c, 0, 78, 67
1, 456250, Note_off_c, 0, 75, 64
1, 456257, Note_on_c, 0, 55, 73
1, 456262, Note_off_c, 0, 78, 39
1, 456281, Note_off_c, 0, 59, 55
1, 456295, Note_on_c, 0, 79, 54
1, 456302, Note_on_c, 0, 77, 46
1, 456336, Note_off_c, 0, 79, 67
1, 456338, Note_on_c, 0, 64, 72
1, 456345, Note_on_c, 0, 81, 66
1, 456368, Note_off_c, 0, 55, 62
1, 456381, Note_on_c, 0, 59, 78
1, 456387, Note_off_c, 0, 77, 65
1, 456396, Note_off_c, 0, 64, 62
1, 456398, Note_off_c, 0, 81, 66
1, 456417, Note_off_c, 0, 59, 64
1, 456418, Control_c, 0, 64, 75
1, 456433, Control_c, 0, 64, 53
1, 456444, Note_on_c, 0, 82, 92
1, 456448, Control_c, 0, 64, 39
1, 456451, Note_on_c, 0, 79, 89
1, 456463, Control_c, 0, 64, 51
1, 456464, Note_on_c, 0, 49, 78
1, 456477, Control_c, 0, 64, 64
1, 456492, Control_c, 0, 64, 77
1, 456503, Note_off_c, 0, 82, 63
1, 456507, Control_c, 0, 64, 127
1, 456522, Note_off_c, 0, 49, 60
1, 456532, Note_on_c, 0, 84, 86
1, 456537, Note_on_c, 0, 80, 92
1, 456549, Note_off_c, 0, 79, 66
1, 456577, Note_on_c, 0, 64, 69
1, 456586, Note_off_c, 0, 84, 67
1, 456620, Note_on_c, 0, 82, 100
1, 456621, Note_on_c, 0, 60, 82
1, 456637, Note_on_c, 0, 85, 83
1, 456641, Note_off_c, 0, 64, 63
1, 456644, Note_off_c, 0, 80, 66
1, 456672, Note_off_c, 0, 60, 64
1, 456675, Note_off_c, 0, 82, 68
1, 456685, Note_off_c, 0, 85, 65
1, 456730, Control_c, 0, 64, 94
1, 456745, Control_c, 0, 64, 49
1, 456756, Note_on_c, 0, 84, 101
1, 456758, Note_on_c, 0, 80, 92
1, 456760, Control_c, 0, 64, 0
1, 456772, Note_on_c, 0, 44, 87
1, 456804, Note_off_c, 0, 44, 67
1, 456805, Control_c, 0, 64, 60
1, 456819, Control_c, 0, 64, 78
1, 456834, Control_c, 0, 64, 127
1, 456848, Note_off_c, 0, 80, 64
1, 456931, Note_on_c, 0, 87, 97
1, 456933, Note_on_c, 0, 91, 88
1, 456941, Note_on_c, 0, 65, 82
1, 456945, Note_off_c, 0, 84, 64
1, 457007, Note_off_c, 0, 87, 61
1, 457018, Note_off_c, 0, 91, 55
1, 457029, Note_on_c, 0, 89, 87
1, 457038, Note_on_c, 0, 60, 76
1, 457040, Note_on_c, 0, 85, 89
1, 457058, Note_off_c, 0, 65, 56
1, 457115, Note_off_c, 0, 89, 66
1, 457119, Note_off_c, 0, 85, 63
1, 457131, Note_off_c, 0, 60, 58
1, 457135, Note_on_c, 0, 84, 96
1, 457143, Note_on_c, 0, 56, 74
1, 457191, Note_off_c, 0, 84, 61
1, 457201, Note_on_c, 0, 65, 64
1, 457217, Note_on_c, 0, 84, 65
1, 457219, Note_on_c, 0, 87, 86
1, 457264, Note_off_c, 0, 84, 65
1, 457273, Note_on_c, 0, 60, 68
1, 457276, Note_off_c, 0, 56, 61
1, 457286, Note_off_c, 0, 65, 60
1, 457294, Note_off_c, 0, 87, 57
1, 457297, Note_on_c, 0, 85, 61
1, 457301, Note_on_c, 0, 82, 92
1, 457321, Note_off_c, 0, 60, 64
1, 457331, Control_c, 0, 64, 70
1, 457346, Control_c, 0, 64, 0
1, 457368, Note_on_c, 0, 46, 83
1, 457386, Note_on_c, 0, 80, 95
1, 457386, Note_off_c, 0, 85, 65
1, 457388, Note_off_c, 0, 82, 54
1, 457397, Note_off_c, 0, 46, 67
1, 457405, Control_c, 0, 64, 60
1, 457421, Control_c, 0, 64, 72
1, 457425, Note_off_c, 0, 80, 69
1, 457436, Control_c, 0, 64, 96
1, 457450, Control_c, 0, 64, 127
1, 457464, Note_on_c, 0, 84, 82
1, 457472, Note_on_c, 0, 65, 69
1, 457472, Note_on_c, 0, 80, 57
1, 457495, Note_off_c, 0, 80, 65
1, 457543, Note_on_c, 0, 60, 68
1, 457549, Note_on_c, 0, 79, 82
1, 457550, Note_on_c, 0, 82, 83
1, 457553, Note_off_c, 0, 84, 60
1, 457554, Note_off_c, 0, 65, 61
1, 457580, Note_off_c, 0, 60, 64
1, 457649, Note_off_c, 0, 79, 64
1, 457665, Control_c, 0, 64, 103
1, 457667, Note_off_c, 0, 82, 65
1, 457669, Note_on_c, 0, 48, 81
1, 457677, Note_on_c, 0, 72, 93
1, 457680, Control_c, 0, 64, 66
1, 457695, Control_c, 0, 64, 0
1, 457718, Note_off_c, 0, 48, 63
1, 457739, Control_c, 0, 64, 28
1, 457754, Control_c, 0, 64, 62
1, 457767, Note_on_c, 0, 82, 85
1, 457769, Control_c, 0, 64, 73
1, 457777, Note_off_c, 0, 72, 63
1, 457784, Control_c, 0, 64, 108
1, 457798, Control_c, 0, 64, 127
1, 457803, Note_on_c, 0, 65, 45
1, 457824, Note_on_c, 0, 64, 29
1, 457848, Note_on_c, 0, 77, 82
1, 457854, Note_on_c, 0, 80, 79
1, 457854, Note_off_c, 0, 82, 65
1, 457857, Note_off_c, 0, 65, 47
1, 457860, Note_off_c, 0, 64, 50
1, 457862, Note_on_c, 0, 60, 69
1, 457916, Note_off_c, 0, 77, 64
1, 457938, Note_off_c, 0, 60, 60
1, 457940, Note_off_c, 0, 80, 63
1, 457942, Note_on_c, 0, 68, 83
1, 457951, Note_on_c, 0, 56, 68
1, 457951, Note_on_c, 0, 70, 54
1, 457967, Note_off_c, 0, 68, 65
1, 457973, Note_off_c, 0, 70, 61
1, 458012, Note_on_c, 0, 75, 77
1, 458013, Note_on_c, 0, 65, 53
1, 458014, Note_on_c, 0, 79, 78
1, 458055, Note_off_c, 0, 75, 58
1, 458055, Note_off_c, 0, 56, 62
1, 458083, Note_on_c, 0, 60, 59
1, 458092, Note_on_c, 0, 77, 83
1, 458098, Note_off_c, 0, 65, 62
1, 458098, Note_on_c, 0, 73, 84
1, 458116, Note_off_c, 0, 79, 60
1, 458135, Note_off_c, 0, 60, 63
1, 458139, Control_c, 0, 64, 64
1, 458154, Control_c, 0, 64, 0
1, 458176, Note_off_c, 0, 77, 61
1, 458178, Note_on_c, 0, 48, 78
1, 458183, Note_on_c, 0, 67, 92
1, 458191, Note_off_c, 0, 73, 62
1, 458198, Control_c, 0, 64, 8
1, 458213, Note_off_c, 0, 48, 64
1, 458214, Control_c, 0, 64, 60
1, 458229, Control_c, 0, 64, 68
1, 458244, Control_c, 0, 64, 74
1, 458259, Control_c, 0, 64, 80
1, 458270, Note_on_c, 0, 76, 76
1, 458273, Control_c, 0, 64, 85
1, 458277, Note_on_c, 0, 72, 69
1, 458284, Note_off_c, 0, 67, 64
1, 458286, Note_on_c, 0, 64, 66
1, 458286, Note_on_c, 0, 71, 63
1, 458288, Control_c, 0, 64, 91
1, 458303, Control_c, 0, 64, 117
1, 458309, Note_off_c, 0, 71, 55
1, 458318, Control_c, 0, 64, 127
1, 458323, Note_off_c, 0, 76, 63
1, 458349, Note_on_c, 0, 60, 72
1, 458367, Note_off_c, 0, 64, 59
1, 458374, Note_on_c, 0, 70, 89
1, 458376, Note_off_c, 0, 72, 65
1, 458452, Note_off_c, 0, 70, 62
1, 458463, Note_off_c, 0, 60, 58
1, 458516, Note_on_c, 0, 49, 67
1, 458546, Note_on_c, 0, 70, 86
1, 458547, Control_c, 0, 64, 87
1, 458562, Control_c, 0, 64, 62
1, 458577, Control_c, 0, 64, 0
1, 458636, Control_c, 0, 64, 57
1, 458651, Control_c, 0, 64, 68
1, 458656, Note_on_c, 0, 79, 77
1, 458658, Note_on_c, 0, 61, 62
1, 458665, Control_c, 0, 64, 78
1, 458674, Note_off_c, 0, 70, 63
1, 458680, Control_c, 0, 64, 91
1, 458692, Note_off_c, 0, 49, 57
1, 458695, Control_c, 0, 64, 103
1, 458710, Control_c, 0, 64, 114
1, 458725, Control_c, 0, 64, 127
1, 458742, Note_on_c, 0, 56, 58
1, 458760, Note_on_c, 0, 68, 77
1, 458766, Note_off_c, 0, 61, 53
1, 458770, Note_off_c, 0, 79, 64
1, 458771, Note_on_c, 0, 77, 66
1, 458821, Note_on_c, 0, 53, 73
1, 458828, Note_on_c, 0, 72, 82
1, 458829, Note_off_c, 0, 77, 62
1, 458834, Note_off_c, 0, 56, 59
1, 458864, Note_off_c, 0, 68, 60
1, 458897, Note_on_c, 0, 61, 61
1, 458917, Note_on_c, 0, 75, 90
1, 458920, Note_off_c, 0, 53, 62
1, 458920, Note_off_c, 0, 72, 64
1, 458953, Note_on_c, 0, 56, 66
1, 458982, Note_on_c, 0, 73, 79
1, 458985, Note_off_c, 0, 61, 60
1, 459005, Note_off_c, 0, 75, 60
1, 459006, Control_c, 0, 64, 116
1, 459009, Note_on_c, 0, 70, 72
1, 459022, Note_off_c, 0, 56, 64
1, 459022, Control_c, 0, 64, 69
1, 459037, Control_c, 0, 64, 0
1, 459058, Note_on_c, 0, 46, 81
1, 459079, Note_on_c, 0, 68, 86
1, 459081, Note_off_c, 0, 70, 56
1, 459096, Control_c, 0, 64, 27
1, 459097, Note_off_c, 0, 73, 64
1, 459111, Control_c, 0, 64, 63
1, 459131, Note_off_c, 0, 68, 62
1, 459133, Control_c, 0, 64, 71
1, 459146, Note_off_c, 0, 46, 62
1, 459148, Control_c, 0, 64, 77
1, 459163, Control_c, 0, 64, 80
1, 459176, Note_on_c, 0, 72, 81
1, 459177, Control_c, 0, 64, 79
1, 459180, Note_on_c, 0, 61, 67
1, 459192, Control_c, 0, 64, 77
1, 459207, Control_c, 0, 64, 76
1, 459232, Note_off_c, 0, 61, 55
1, 459268, Note_on_c, 0, 55, 61
1, 459269, Note_on_c, 0, 70, 77
1, 459281, Note_on_c, 0, 67, 71
1, 459282, Control_c, 0, 64, 75
1, 459286, Note_off_c, 0, 72, 60
1, 459296, Control_c, 0, 64, 75
1, 459311, Control_c, 0, 64, 74
1, 459341, Control_c, 0, 64, 73
1, 459356, Control_c, 0, 64, 69
1, 459365, Note_on_c, 0, 48, 63
1, 459370, Control_c, 0, 64, 61
1, 459384, Note_on_c, 0, 65, 74
1, 459385, Control_c, 0, 64, 28
1, 459386, Note_on_c, 0, 68, 76
1, 459400, Control_c, 0, 64, 0
1, 459402, Note_off_c, 0, 70, 59
1, 459425, Note_off_c, 0, 67, 58
1, 459452, Note_off_c, 0, 55, 59
1, 459458, Note_off_c, 0, 48, 63
1, 459484, Note_on_c, 0, 60, 69
1, 459551, Note_off_c, 0, 60, 61
1, 459599, Note_on_c, 0, 61, 60
1, 459652, Note_off_c, 0, 61, 59
1, 459656, Note_off_c, 0, 65, 58
1, 459669, Note_on_c, 0, 67, 70
1, 459676, Note_on_c, 0, 60, 65
1, 459681, Note_off_c, 0, 68, 57
1, 459681, Control_c, 0, 64, 17
1, 459696, Control_c, 0, 64, 46
1, 459711, Control_c, 0, 64, 56
1, 459725, Note_off_c, 0, 60, 60
1, 459726, Control_c, 0, 64, 61
1, 459741, Control_c, 0, 64, 62
1, 459756, Control_c, 0, 64, 63
1, 459770, Control_c, 0, 64, 63
1, 459785, Control_c, 0, 64, 64
1, 459787, Note_on_c, 0, 59, 64
1, 459800, Control_c, 0, 64, 65
1, 459815, Control_c, 0, 64, 67
1, 459826, Note_off_c, 0, 59, 64
1, 459830, Control_c, 0, 64, 69
1, 459845, Control_c, 0, 64, 72
1, 459867, Control_c, 0, 64, 74
1, 459869, Note_on_c, 0, 60, 63
1, 459882, Control_c, 0, 64, 72
1, 459897, Control_c, 0, 64, 65
1, 459912, Control_c, 0, 64, 55
1, 459918, Note_off_c, 0, 67, 63
1, 459923, Note_off_c, 0, 60, 61
1, 459926, Control_c, 0, 64, 39
1, 459941, Note_on_c, 0, 64, 75
1, 459941, Control_c, 0, 64, 36
1, 459953, Note_on_c, 0, 55, 66
1, 459956, Control_c, 0, 64, 45
1, 459971, Control_c, 0, 64, 58
1, 459986, Control_c, 0, 64, 64
1, 460000, Control_c, 0, 64, 68
1, 460015, Control_c, 0, 64, 72
1, 460030, Control_c, 0, 64, 75
1, 460031, Note_off_c, 0, 55, 58
1, 460036, Note_on_c, 0, 60, 68
1, 460045, Control_c, 0, 64, 78
1, 460060, Control_c, 0, 64, 83
1, 460075, Control_c, 0, 64, 91
1, 460089, Note_off_c, 0, 60, 61
1, 460090, Control_c, 0, 64, 104
1, 460098, Note_on_c, 0, 72, 58
1, 460104, Control_c, 0, 64, 127
1, 460119, Note_off_c, 0, 64, 61
1, 460119, Control_c, 0, 64, 98
1, 460123, Note_on_c, 0, 57, 58
1, 460131, Note_on_c, 0, 63, 66
1, 460134, Control_c, 0, 64, 76
1, 460135, Note_off_c, 0, 72, 64
1, 460146, Note_off_c, 0, 57, 62
1, 460149, Control_c, 0, 64, 63
1, 460164, Control_c, 0, 64, 45
1, 460179, Control_c, 0, 64, 36
1, 460181, Note_off_c, 0, 63, 53
1, 460190, Note_on_c, 0, 66, 69
1, 460193, Control_c, 0, 64, 44
1, 460203, Note_on_c, 0, 58, 72
1, 460208, Control_c, 0, 64, 59
1, 460215, Note_on_c, 0, 62, 64
1, 460223, Note_off_c, 0, 66, 63
1, 460223, Control_c, 0, 64, 65
1, 460224, Note_on_c, 0, 65, 65
1, 460238, Control_c, 0, 64, 69
1, 460252, Control_c, 0, 64, 73
1, 460262, Note_off_c, 0, 58, 63
1, 460267, Control_c, 0, 64, 77
1, 460282, Control_c, 0, 64, 80
1, 460297, Control_c, 0, 64, 84
1, 460298, Note_on_c, 0, 53, 43
1, 460311, Control_c, 0, 64, 90
1, 460326, Control_c, 0, 64, 97
1, 460341, Control_c, 0, 64, 99
1, 460344, Note_on_c, 0, 55, 62
1, 460346, Note_off_c, 0, 53, 57
1, 460352, Note_off_c, 0, 65, 61
1, 460356, Control_c, 0, 64, 85
1, 460371, Control_c, 0, 64, 69
1, 460385, Control_c, 0, 64, 50
1, 460392, Note_on_c, 0, 70, 67
1, 460400, Control_c, 0, 64, 22
1, 460402, Note_off_c, 0, 55, 64
1, 460415, Control_c, 0, 64, 17
1, 460430, Control_c, 0, 64, 39
1, 460434, Note_off_c, 0, 62, 63
1, 460442, Note_on_c, 0, 56, 67
1, 460444, Control_c, 0, 64, 58
1, 460459, Control_c, 0, 64, 65
1, 460466, Note_on_c, 0, 63, 71
1, 460468, Note_off_c, 0, 70, 63
1, 460468, Note_on_c, 0, 60, 69
1, 460474, Control_c, 0, 64, 70
1, 460489, Control_c, 0, 64, 73
1, 460493, Note_off_c, 0, 56, 60
1, 460504, Control_c, 0, 64, 76
1, 460519, Control_c, 0, 64, 77
1, 460534, Control_c, 0, 64, 77
1, 460546, Note_on_c, 0, 51, 66
1, 460549, Control_c, 0, 64, 78
1, 460564, Control_c, 0, 64, 76
1, 460578, Control_c, 0, 64, 73
1, 460593, Control_c, 0, 64, 68
1, 460604, Note_off_c, 0, 60, 64
1, 460616, Control_c, 0, 64, 65
1, 460631, Control_c, 0, 64, 64
1, 460633, Note_off_c, 0, 51, 62
1, 460639, Note_on_c, 0, 53, 63
1, 460644, Note_off_c, 0, 63, 59
1, 460646, Control_c, 0, 64, 65
1, 460647, Note_on_c, 0, 68, 74
1, 460652, Note_on_c, 0, 60, 51
1, 460660, Control_c, 0, 64, 67
1, 460674, Control_c, 0, 64, 69
1, 460686, Note_off_c, 0, 53, 62
1, 460689, Control_c, 0, 64, 68
1, 460704, Control_c, 0, 64, 64
1, 460712, Note_on_c, 0, 55, 59
1, 460719, Control_c, 0, 64, 50
1, 460724, Note_off_c, 0, 68, 61
1, 460733, Control_c, 0, 64, 0
1, 460734, Note_off_c, 0, 60, 62
1, 460745, Note_on_c, 0, 59, 75
1, 460745, Note_on_c, 0, 62, 74
1, 460750, Note_off_c, 0, 55, 65
1, 460770, Note_on_c, 0, 50, 60
1, 460793, Control_c, 0, 64, 38
1, 460808, Control_c, 0, 64, 58
1, 460823, Control_c, 0, 64, 64
1, 460838, Control_c, 0, 64, 67
1, 460853, Control_c, 0, 64, 68
1, 460863, Note_off_c, 0, 50, 63
1, 460867, Control_c, 0, 64, 69
1, 460876, Note_on_c, 0, 51, 68
1, 460882, Control_c, 0, 64, 69
1, 460889, Poly_aftertouch_c, 0, 61, 0
1, 460897, Control_c, 0, 64, 68
1, 460899, Note_off_c, 0, 62, 62
1, 460903, Note_off_c, 0, 59, 60
1, 460912, Control_c, 0, 64, 65
1, 460918, Note_on_c, 0, 67, 73
1, 460924, Note_off_c, 0, 51, 63
1, 460927, Control_c, 0, 64, 58
1, 460931, Note_on_c, 0, 58, 68
1, 460941, Control_c, 0, 64, 51
1, 460955, Note_off_c, 0, 67, 60
1, 460956, Control_c, 0, 64, 52
1, 460960, Note_on_c, 0, 52, 65
1, 460962, Note_off_c, 0, 58, 68
1, 460971, Control_c, 0, 64, 57
1, 460986, Control_c, 0, 64, 62
1, 461001, Control_c, 0, 64, 66
1, 461008, Note_on_c, 0, 60, 75
1, 461009, Note_on_c, 0, 57, 75
1, 461015, Control_c, 0, 64, 69
1, 461026, Note_off_c, 0, 52, 60
1, 461030, Control_c, 0, 64, 72
1, 461045, Control_c, 0, 64, 74
1, 461060, Control_c, 0, 64, 76
1, 461062, Note_on_c, 0, 48, 54
1, 461074, Control_c, 0, 64, 77
1, 461089, Control_c, 0, 64, 78
1, 461112, Note_off_c, 0, 60, 62
1, 461118, Note_off_c, 0, 57, 62
1, 461119, Control_c, 0, 64, 79
1, 461130, Note_off_c, 0, 48, 63
1, 461133, Control_c, 0, 64, 80
1, 461148, Control_c, 0, 64, 81
1, 461156, Note_on_c, 0, 49, 63
1, 461163, Control_c, 0, 64, 83
1, 461178, Control_c, 0, 64, 84
1, 461193, Note_on_c, 0, 56, 79
1, 461207, Note_on_c, 0, 65, 64
1, 461222, Note_off_c, 0, 56, 68
1, 461234, Note_off_c, 0, 65, 64
1, 461237, Control_c, 0, 64, 82
1, 461242, Note_off_c, 0, 49, 59
1, 461252, Control_c, 0, 64, 76
1, 461258, Note_on_c, 0, 46, 56
1, 461267, Control_c, 0, 64, 65
1, 461282, Control_c, 0, 64, 41
1, 461283, Note_on_c, 0, 65, 86
1, 461284, Note_on_c, 0, 55, 81
1, 461297, Note_on_c, 0, 61, 72
1, 461297, Control_c, 0, 64, 0
1, 461324, Note_off_c, 0, 46, 62
1, 461337, Note_on_c, 0, 45, 54
1, 461392, Control_c, 0, 64, 34
1, 461408, Control_c, 0, 64, 54
1, 461417, Note_off_c, 0, 45, 62
1, 461425, Control_c, 0, 64, 58
1, 461439, Control_c, 0, 64, 60
1, 461442, Note_on_c, 0, 46, 63
1, 461454, Control_c, 0, 64, 60
1, 461469, Control_c, 0, 64, 61
1, 461483, Note_off_c, 0, 55, 61
1, 461484, Control_c, 0, 64, 63
1, 461498, Control_c, 0, 64, 65
1, 461500, Note_off_c, 0, 46, 61
1, 461513, Control_c, 0, 64, 67
1, 461528, Control_c, 0, 64, 68
1, 461543, Control_c, 0, 64, 63
1, 461546, Note_on_c, 0, 60, 69
1, 461546, Note_on_c, 0, 64, 71
1, 461548, Note_on_c, 0, 48, 53
1, 461550, Note_on_c, 0, 55, 65
1, 461558, Control_c, 0, 64, 53
1, 461572, Control_c, 0, 64, 34
1, 461587, Control_c, 0, 64, 26
1, 461602, Note_off_c, 0, 65, 60
1, 461602, Control_c, 0, 64, 34
1, 461607, Note_off_c, 0, 48, 59
1, 461617, Control_c, 0, 64, 51
1, 461628, Note_on_c, 0, 47, 58
1, 461631, Note_off_c, 0, 64, 66
1, 461632, Control_c, 0, 64, 62
1, 461640, Note_off_c, 0, 61, 32
1, 461646, Control_c, 0, 64, 66
1, 461661, Control_c, 0, 64, 69
1, 461676, Control_c, 0, 64, 72
1, 461690, Note_off_c, 0, 60, 64
1, 461690, Control_c, 0, 64, 75
1, 461691, Note_off_c, 0, 47, 58
1, 461705, Control_c, 0, 64, 77
1, 461720, Control_c, 0, 64, 79
1, 461722, Note_on_c, 0, 48, 58
1, 461735, Control_c, 0, 64, 80
1, 461750, Control_c, 0, 64, 82
1, 461757, Note_off_c, 0, 55, 63
1, 461765, Control_c, 0, 64, 84
1, 461780, Control_c, 0, 64, 85
1, 461791, Note_off_c, 0, 48, 55
1, 461795, Control_c, 0, 64, 79
1, 461810, Control_c, 0, 64, 68
1, 461813, Note_on_c, 0, 60, 51
1, 461824, Control_c, 0, 64, 54
1, 461826, Note_on_c, 0, 63, 75
1, 461838, Note_on_c, 0, 45, 33
1, 461839, Control_c, 0, 64, 12
1, 461845, Note_on_c, 0, 53, 67
1, 461854, Control_c, 0, 64, 0
1, 461870, Note_on_c, 0, 44, 61
1, 461872, Note_off_c, 0, 45, 47
1, 461883, Control_c, 0, 64, 32
1, 461898, Control_c, 0, 64, 54
1, 461913, Control_c, 0, 64, 62
1, 461928, Control_c, 0, 64, 65
1, 461943, Control_c, 0, 64, 66
1, 461945, Note_off_c, 0, 44, 62
1, 461958, Control_c, 0, 64, 67
1, 461965, Note_on_c, 0, 45, 44
1, 461994, Note_off_c, 0, 60, 61
1, 462002, Control_c, 0, 64, 67
1, 462016, Control_c, 0, 64, 68
1, 462031, Control_c, 0, 64, 70
1, 462039, Note_off_c, 0, 45, 63
1, 462061, Control_c, 0, 64, 65
1, 462070, Note_on_c, 0, 46, 48
1, 462076, Control_c, 0, 64, 54
1, 462090, Control_c, 0, 64, 31
1, 462093, Note_on_c, 0, 61, 64
1, 462096, Note_on_c, 0, 58, 64
1, 462098, Note_off_c, 0, 46, 59
1, 462113, Control_c, 0, 64, 0
1, 462144, Note_on_c, 0, 48, 43
1, 462152, Note_off_c, 0, 53, 50
1, 462157, Control_c, 0, 64, 48
1, 462171, Control_c, 0, 64, 60
1, 462180, Note_off_c, 0, 48, 52
1, 462186, Control_c, 0, 64, 64
1, 462201, Control_c, 0, 64, 67
1, 462212, Note_off_c, 0, 63, 55
1, 462217, Control_c, 0, 64, 68
1, 462233, Note_on_c, 0, 44, 48
1, 462290, Note_off_c, 0, 44, 62
1, 462291, Control_c, 0, 64, 68
1, 462329, Note_on_c, 0, 43, 42
1, 462332, Note_off_c, 0, 58, 63
1, 462343, Note_off_c, 0, 61, 60
1, 462350, Note_on_c, 0, 52, 66
1, 462365, Control_c, 0, 64, 68
1, 462386, Note_off_c, 0, 43, 62
1, 462394, Control_c, 0, 64, 67
1, 462413, Note_on_c, 0, 44, 56
1, 462468, Note_off_c, 0, 52, 65
1, 462468, Control_c, 0, 64, 68
1, 462477, Poly_aftertouch_c, 0, 62, 0
1, 462491, Note_off_c, 0, 44, 56
1, 462500, Note_on_c, 0, 53, 61
1, 462528, Note_on_c, 0, 41, 46
1, 462555, Note_off_c, 0, 53, 61
1, 462570, Note_off_c, 0, 41, 64
1, 462573, Control_c, 0, 64, 66
1, 462587, Control_c, 0, 64, 62
1, 462592, Note_on_c, 0, 40, 52
1, 462594, Note_on_c, 0, 58, 45
1, 462602, Control_c, 0, 64, 50
1, 462608, Note_on_c, 0, 60, 60
1, 462613, Note_on_c, 0, 55, 63
1, 462617, Control_c, 0, 64, 24
1, 462631, Control_c, 0, 64, 0
1, 462661, Control_c, 0, 64, 15
1, 462676, Control_c, 0, 64, 43
1, 462681, Note_on_c, 0, 41, 44
1, 462691, Control_c, 0, 64, 56
1, 462705, Control_c, 0, 64, 62
1, 462707, Note_off_c, 0, 40, 37
1, 462718, Note_off_c, 0, 41, 59
1, 462720, Control_c, 0, 64, 64
1, 462735, Control_c, 0, 64, 66
1, 462741, Note_off_c, 0, 55, 62
1, 462750, Control_c, 0, 64, 66
1, 462751, Note_on_c, 0, 43, 46
1, 462807, Note_off_c, 0, 43, 57
1, 462809, Control_c, 0, 64, 67
1, 462824, Control_c, 0, 64, 67
1, 462826, Note_off_c, 0, 58, 35
1, 462838, Control_c, 0, 64, 68
1, 462841, Note_on_c, 0, 41, 44
1, 462853, Control_c, 0, 64, 70
1, 462871, Note_on_c, 0, 56, 59
1, 462876, Control_c, 0, 64, 72
1, 462880, Note_on_c, 0, 53, 55
1, 462891, Control_c, 0, 64, 74
1, 462904, Note_off_c, 0, 60, 63
1, 462904, Note_off_c, 0, 41, 60
1, 462905, Control_c, 0, 64, 77
1, 462919, Control_c, 0, 64, 78
1, 462929, Note_on_c, 0, 43, 50
1, 462934, Control_c, 0, 64, 80
1, 462949, Control_c, 0, 64, 81
1, 462964, Note_off_c, 0, 56, 61
1, 462964, Control_c, 0, 64, 83
1, 462979, Control_c, 0, 64, 85
1, 462980, Note_off_c, 0, 43, 57
1, 462991, Note_off_c, 0, 53, 52
1, 462993, Control_c, 0, 64, 87
1, 463009, Control_c, 0, 64, 90
1, 463024, Control_c, 0, 64, 91
1, 463035, Note_on_c, 0, 39, 42
1, 463039, Control_c, 0, 64, 93
1, 463054, Control_c, 0, 64, 95
1, 463068, Control_c, 0, 64, 96
1, 463083, Control_c, 0, 64, 97
1, 463098, Control_c, 0, 64, 96
1, 463112, Note_off_c, 0, 39, 55
1, 463113, Control_c, 0, 64, 88
1, 463128, Control_c, 0, 64, 74
1, 463142, Control_c, 0, 64, 64
1, 463151, Note_on_c, 0, 37, 42
1, 463157, Control_c, 0, 64, 59
1, 463158, Note_on_c, 0, 65, 57
1, 463172, Control_c, 0, 64, 59
1, 463184, Note_on_c, 0, 56, 41
1, 463187, Control_c, 0, 64, 62
1, 463197, Note_on_c, 0, 53, 27
1, 463202, Control_c, 0, 64, 65
1, 463209, Note_off_c, 0, 37, 58
1, 463217, Control_c, 0, 64, 70
1, 463231, Control_c, 0, 64, 76
1, 463239, Note_on_c, 0, 39, 49
1, 463246, Control_c, 0, 64, 83
1, 463261, Control_c, 0, 64, 89
1, 463276, Control_c, 0, 64, 94
1, 463288, Note_off_c, 0, 65, 52
1, 463291, Control_c, 0, 64, 95
1, 463303, Note_off_c, 0, 56, 33
1, 463306, Control_c, 0, 64, 95
1, 463342, Note_off_c, 0, 39, 60
1, 463345, Note_off_c, 0, 53, 41
1, 463350, Control_c, 0, 64, 96
1, 463365, Control_c, 0, 64, 96
1, 463380, Control_c, 0, 64, 97
1, 463381, Note_on_c, 0, 36, 48
1, 463395, Control_c, 0, 64, 98
1, 463498, Control_c, 0, 64, 95
1, 463499, Note_off_c, 0, 36, 59
1, 463513, Control_c, 0, 64, 84
1, 463523, Note_on_c, 0, 34, 53
1, 463524, Note_on_c, 0, 65, 50
1, 463527, Control_c, 0, 64, 70
1, 463531, Note_on_c, 0, 55, 50
1, 463542, Control_c, 0, 64, 56
1, 463556, Note_on_c, 0, 53, 44
1, 463557, Control_c, 0, 64, 38
1, 463572, Control_c, 0, 64, 30
1, 463587, Control_c, 0, 64, 38
1, 463609, Control_c, 0, 64, 52
1, 463624, Control_c, 0, 64, 61
1, 463638, Note_off_c, 0, 55, 63
1, 463639, Control_c, 0, 64, 65
1, 463651, Note_off_c, 0, 34, 58
1, 463654, Control_c, 0, 64, 68
1, 463668, Control_c, 0, 64, 70
1, 463678, Note_on_c, 0, 36, 36
1, 463683, Control_c, 0, 64, 71
1, 463728, Control_c, 0, 64, 71
1, 463742, Control_c, 0, 64, 72
1, 463744, Note_off_c, 0, 36, 60
1, 463757, Control_c, 0, 64, 74
1, 463765, Note_on_c, 0, 37, 49
1, 463772, Control_c, 0, 64, 77
1, 463779, Note_off_c, 0, 53, 41
1, 463787, Control_c, 0, 64, 79
1, 463800, Poly_aftertouch_c, 0, 62, 127
1, 463802, Control_c, 0, 64, 82
1, 463818, Control_c, 0, 64, 84
1, 463832, Control_c, 0, 64, 85
1, 463847, Control_c, 0, 64, 86
1, 463861, Note_on_c, 0, 53, 43
1, 463862, Control_c, 0, 64, 87
1, 463863, Note_on_c, 0, 57, 54
1, 463875, Note_on_c, 0, 36, 44
1, 463877, Control_c, 0, 64, 89
1, 463881, Note_off_c, 0, 37, 35
1, 463891, Control_c, 0, 64, 93
1, 463906, Control_c, 0, 64, 99
1, 463921, Control_c, 0, 64, 110
1, 463929, Note_off_c, 0, 65, 52
1, 463935, Poly_aftertouch_c, 0, 62, 0
1, 463936, Control_c, 0, 64, 127
1, 463937, Note_off_c, 0, 36, 58
1, 463964, Note_on_c, 0, 41, 55
1, 464025, Note_off_c, 0, 53, 40
1, 464042, Note_off_c, 0, 41, 52
1, 464105, Note_on_c, 0, 37, 50
1, 464114, Control_c, 0, 64, 80
1, 464129, Control_c, 0, 64, 65
1, 464137, Note_on_c, 0, 53, 44
1, 464140, Note_on_c, 0, 58, 66
1, 464144, Control_c, 0, 64, 53
1, 464158, Control_c, 0, 64, 52
1, 464173, Control_c, 0, 64, 57
1, 464188, Control_c, 0, 64, 63
1, 464193, Note_on_c, 0, 39, 52
1, 464197, Note_off_c, 0, 37, 51
1, 464203, Control_c, 0, 64, 69
1, 464218, Control_c, 0, 64, 75
1, 464232, Control_c, 0, 64, 83
1, 464247, Note_off_c, 0, 39, 59
1, 464247, Control_c, 0, 64, 90
1, 464262, Control_c, 0, 64, 98
1, 464265, Note_on_c, 0, 41, 67
1, 464276, Control_c, 0, 64, 105
1, 464291, Control_c, 0, 64, 111
1, 464306, Control_c, 0, 64, 112
1, 464307, Note_off_c, 0, 41, 64
1, 464321, Control_c, 0, 64, 114
1, 464336, Control_c, 0, 64, 118
1, 464342, Note_off_c, 0, 58, 61
1, 464358, Control_c, 0, 64, 127
1, 464364, Note_off_c, 0, 57, 56
1, 464379, Note_on_c, 0, 40, 60
1, 464394, Note_on_c, 0, 60, 76
1, 464400, Note_on_c, 0, 58, 58
1, 464428, Note_off_c, 0, 53, 52
1, 464445, Note_off_c, 0, 40, 60
1, 464447, Note_on_c, 0, 41, 65
1, 464456, Note_off_c, 0, 60, 64
1, 464467, Note_off_c, 0, 58, 63
1, 464489, Note_off_c, 0, 41, 65
1, 464531, Note_on_c, 0, 43, 68
1, 464591, Note_off_c, 0, 43, 57
1, 464626, Control_c, 0, 64, 92
1, 464630, Note_on_c, 0, 41, 63
1, 464641, Control_c, 0, 64, 68
1, 464650, Note_on_c, 0, 68, 80
1, 464655, Note_on_c, 0, 60, 72
1, 464656, Note_on_c, 0, 56, 77
1, 464656, Control_c, 0, 64, 49
1, 464670, Control_c, 0, 64, 28
1, 464680, Note_off_c, 0, 41, 63
1, 464685, Control_c, 0, 64, 38
1, 464700, Control_c, 0, 64, 56
1, 464714, Control_c, 0, 64, 65
1, 464717, Note_on_c, 0, 46, 71
1, 464729, Control_c, 0, 64, 71
1, 464744, Control_c, 0, 64, 80
1, 464758, Note_off_c, 0, 68, 59
1, 464759, Control_c, 0, 64, 95
1, 464762, Note_off_c, 0, 46, 61
1, 464774, Control_c, 0, 64, 115
1, 464775, Note_off_c, 0, 56, 63
1, 464788, Control_c, 0, 64, 127
1, 464802, Note_on_c, 0, 44, 68
1, 464889, Note_off_c, 0, 44, 61
1, 464895, Note_on_c, 0, 43, 68
1, 464907, Control_c, 0, 64, 88
1, 464911, Note_on_c, 0, 58, 86
1, 464911, Note_on_c, 0, 64, 86
1, 464922, Control_c, 0, 64, 72
1, 464937, Control_c, 0, 64, 66
1, 464944, Note_off_c, 0, 60, 61
1, 464951, Control_c, 0, 64, 66
1, 464966, Control_c, 0, 64, 70
1, 464973, Note_on_c, 0, 44, 66
1, 464974, Note_off_c, 0, 43, 63
1, 464981, Control_c, 0, 64, 78
1, 464996, Control_c, 0, 64, 94
1, 465011, Control_c, 0, 64, 127
1, 465024, Note_off_c, 0, 58, 60
1, 465040, Note_on_c, 0, 46, 74
1, 465041, Note_off_c, 0, 44, 63
1, 465144, Note_off_c, 0, 46, 61
1, 465154, Note_on_c, 0, 65, 85
1, 465154, Note_on_c, 0, 44, 72
1, 465160, Note_on_c, 0, 60, 86
1, 465162, Note_on_c, 0, 56, 89
1, 465178, Note_off_c, 0, 64, 59
1, 465201, Note_off_c, 0, 65, 63
1, 465211, Note_off_c, 0, 56, 65
1, 465214, Note_off_c, 0, 60, 64
1, 465223, Note_on_c, 0, 46, 64
1, 465232, Note_off_c, 0, 44, 58
1, 465306, Note_on_c, 0, 48, 77
1, 465308, Note_off_c, 0, 46, 61
1, 465379, Note_off_c, 0, 48, 61
1, 465393, Note_on_c, 0, 60, 73
1, 465399, Note_on_c, 0, 63, 95
1, 465400, Note_on_c, 0, 54, 95
1, 465405, Control_c, 0, 64, 79
1, 465407, Note_on_c, 0, 45, 78
1, 465419, Control_c, 0, 64, 51
1, 465434, Control_c, 0, 64, 0
1, 465449, Control_c, 0, 64, 20
1, 465463, Note_on_c, 0, 44, 68
1, 465464, Control_c, 0, 64, 49
1, 465477, Note_off_c, 0, 45, 63
1, 465479, Control_c, 0, 64, 64
1, 465494, Control_c, 0, 64, 73
1, 465509, Control_c, 0, 64, 95
1, 465510, Note_off_c, 0, 60, 61
1, 465516, Note_off_c, 0, 54, 61
1, 465524, Control_c, 0, 64, 127
1, 465545, Note_on_c, 0, 45, 73
1, 465562, Note_off_c, 0, 44, 55
1, 465628, Note_on_c, 0, 46, 79
1, 465632, Note_off_c, 0, 45, 63
1, 465637, Note_on_c, 0, 53, 93
1, 465637, Note_on_c, 0, 61, 90
1, 465638, Note_on_c, 0, 58, 90
1, 465671, Note_off_c, 0, 53, 63
1, 465671, Note_off_c, 0, 63, 64
1, 465690, Note_off_c, 0, 58, 63
1, 465693, Note_on_c, 0, 48, 82
1, 465700, Note_off_c, 0, 61, 63
1, 465702, Note_off_c, 0, 46, 63
1, 465793, Note_on_c, 0, 49, 83
1, 465821, Note_off_c, 0, 48, 63
1, 465898, Note_off_c, 0, 49, 63
1, 465901, Control_c, 0, 64, 85
1, 465905, Note_on_c, 0, 48, 90
1, 465911, Note_on_c, 0, 60, 90
1, 465916, Note_on_c, 0, 53, 90
1, 465916, Control_c, 0, 64, 52
1, 465917, Note_on_c, 0, 56, 88
1, 465930, Control_c, 0, 64, 0
1, 465975, Control_c, 0, 64, 22
1, 465976, Note_off_c, 0, 48, 64
1, 465990, Control_c, 0, 64, 65
1, 466004, Control_c, 0, 64, 78
1, 466016, Note_on_c, 0, 44, 82
1, 466019, Control_c, 0, 64, 110
1, 466034, Control_c, 0, 64, 127
1, 466066, Note_off_c, 0, 44, 63
1, 466108, Note_on_c, 0, 41, 92
1, 466108, Note_off_c, 0, 60, 62
1, 466158, Note_off_c, 0, 56, 62
1, 466185, Note_off_c, 0, 41, 46
1, 466186, Note_on_c, 0, 37, 90
1, 466186, Note_off_c, 0, 53, 61
1, 466285, Note_on_c, 0, 36, 82
1, 466313, Note_off_c, 0, 37, 60
1, 466317, Control_c, 0, 64, 75
1, 466332, Control_c, 0, 64, 54
1, 466346, Control_c, 0, 64, 18
1, 466361, Control_c, 0, 64, 36
1, 466372, Note_on_c, 0, 37, 77
1, 466376, Control_c, 0, 64, 57
1, 466391, Control_c, 0, 64, 68
1, 466406, Control_c, 0, 64, 82
1, 466421, Control_c, 0, 64, 127
1, 466427, Note_on_c, 0, 60, 91
1, 466429, Note_on_c, 0, 58, 98
1, 466430, Note_on_c, 0, 52, 91
1, 466466, Note_off_c, 0, 37, 62
1, 466481, Note_off_c, 0, 36, 61
1, 466484, Note_off_c, 0, 52, 67
1, 466502, Note_off_c, 0, 60, 61
1, 466523, Note_off_c, 0, 58, 60
1, 466558, Note_on_c, 0, 44, 99
1, 466624, Note_off_c, 0, 44, 65
1, 466683, Note_on_c, 0, 43, 95
1, 466871, Control_c, 0, 64, 80
1, 466886, Control_c, 0, 64, 49
1, 466886, Note_on_c, 0, 56, 106
1, 466889, Note_on_c, 0, 41, 69
1, 466893, Note_on_c, 0, 65, 93
1, 466895, Note_on_c, 0, 48, 95
1, 466901, Control_c, 0, 64, 0
1, 466904, Note_off_c, 0, 43, 61
1, 466916, Control_c, 0, 64, 50
1, 466928, Note_off_c, 0, 41, 65
1, 466931, Control_c, 0, 64, 68
1, 466932, Note_off_c, 0, 56, 67
1, 466935, Note_off_c, 0, 65, 60
1, 466946, Control_c, 0, 64, 97
1, 466960, Control_c, 0, 64, 127
1, 466990, Note_on_c, 0, 57, 90
1, 467042, Note_off_c, 0, 57, 66
1, 467056, Note_off_c, 0, 48, 57
1, 467077, Note_on_c, 0, 66, 66
1, 467080, Note_on_c, 0, 60, 75
1, 467086, Note_on_c, 0, 51, 85
1, 467095, Control_c, 0, 64, 88
1, 467104, Note_off_c, 0, 60, 68
1, 467109, Control_c, 0, 64, 56
1, 467124, Control_c, 0, 64, 0
1, 467141, Note_on_c, 0, 69, 87
1, 467142, Note_on_c, 0, 62, 90
1, 467157, Note_on_c, 0, 54, 87
1, 467169, Control_c, 0, 64, 24
1, 467172, Note_on_c, 0, 64, 39
1, 467183, Control_c, 0, 64, 67
1, 467188, Note_off_c, 0, 66, 62
1, 467191, Note_off_c, 0, 51, 64
1, 467198, Control_c, 0, 64, 83
1, 467204, Note_off_c, 0, 64, 49
1, 467213, Control_c, 0, 64, 127
1, 467217, Note_off_c, 0, 62, 63
1, 467226, Note_off_c, 0, 69, 62
1, 467226, Note_on_c, 0, 63, 83
1, 467250, Note_off_c, 0, 63, 70
1, 467301, Note_on_c, 0, 66, 100
1, 467306, Note_on_c, 0, 57, 82
1, 467307, Note_on_c, 0, 72, 89
1, 467311, Note_off_c, 0, 54, 63
1, 467366, Note_off_c, 0, 66, 59
1, 467373, Note_off_c, 0, 57, 66
1, 467387, Note_on_c, 0, 68, 92
1, 467388, Note_off_c, 0, 72, 59
1, 467391, Note_on_c, 0, 60, 98
1, 467393, Note_on_c, 0, 75, 92
1, 467423, Note_off_c, 0, 68, 65
1, 467437, Note_off_c, 0, 75, 66
1, 467469, Note_on_c, 0, 69, 95
1, 467518, Note_off_c, 0, 69, 63
1, 467539, Note_on_c, 0, 78, 80
1, 467543, Note_on_c, 0, 63, 90
1, 467545, Note_off_c, 0, 60, 64
1, 467556, Note_on_c, 0, 75, 80
1, 467561, Control_c, 0, 64, 69
1, 467576, Control_c, 0, 64, 0
1, 467598, Note_on_c, 0, 76, 45
1, 467602, Note_on_c, 0, 81, 72
1, 467602, Note_off_c, 0, 75, 55
1, 467607, Note_on_c, 0, 74, 89
1, 467624, Note_off_c, 0, 76, 55
1, 467628, Note_off_c, 0, 78, 65
1, 467629, Note_on_c, 0, 66, 76
1, 467635, Control_c, 0, 64, 62
1, 467649, Note_on_c, 0, 75, 79
1, 467650, Control_c, 0, 64, 77
1, 467657, Note_off_c, 0, 63, 62
1, 467660, Note_off_c, 0, 74, 67
1, 467662, Note_off_c, 0, 81, 66
1, 467664, Control_c, 0, 64, 127
1, 467692, Note_off_c, 0, 75, 62
1, 467738, Note_on_c, 0, 78, 101
1, 467741, Note_on_c, 0, 84, 101
1, 467746, Note_on_c, 0, 69, 86
1, 467753, Note_off_c, 0, 66, 64
1, 467798, Note_off_c, 0, 69, 63
1, 467807, Note_off_c, 0, 78, 49
1, 467812, Note_on_c, 0, 80, 87
1, 467820, Note_off_c, 0, 84, 61
1, 467827, Note_on_c, 0, 87, 94
1, 467828, Note_on_c, 0, 72, 99
1, 467837, Note_on_c, 0, 79, 68
1, 467854, Note_off_c, 0, 79, 68
1, 467861, Poly_aftertouch_c, 0, 77, 0
1, 467862, Note_off_c, 0, 80, 66
1, 467873, Note_off_c, 0, 87, 65
1, 467900, Note_on_c, 0, 81, 92
1, 467923, Note_on_c, 0, 83, 58
1, 467946, Note_off_c, 0, 83, 60
1, 467953, Note_on_c, 0, 90, 71
1, 467953, Note_off_c, 0, 81, 67
1, 467963, Note_off_c, 0, 72, 63
1, 467968, Note_on_c, 0, 75, 94
1, 467973, Note_on_c, 0, 85, 57
1, 467974, Note_off_c, 0, 85, 127
1, 467995, Note_off_c, 0, 90, 62
1, 467997, Note_on_c, 0, 87, 36
1, 468012, Note_on_c, 0, 91, 92
1, 468015, Note_on_c, 0, 89, 60
1, 468028, Note_off_c, 0, 87, 51
1, 468034, Note_off_c, 0, 89, 63
1, 468039, Note_on_c, 0, 86, 88
1, 468065, Note_on_c, 0, 78, 84
1, 468067, Note_off_c, 0, 91, 65
1, 468081, Note_off_c, 0, 75, 59
1, 468093, Note_off_c, 0, 86, 65
1, 468165, Note_on_c, 0, 81, 90
1, 468177, Note_off_c, 0, 78, 64
1, 468196, Note_on_c, 0, 90, 57
1, 468216, Note_off_c, 0, 90, 62
1, 468230, Note_on_c, 0, 99, 112
1, 468233, Note_on_c, 0, 90, 92
1, 468239, Note_on_c, 0, 93, 58
1, 468254, Note_on_c, 0, 84, 103
1, 468257, Note_on_c, 0, 100, 71
1, 468266, Note_off_c, 0, 84, 79
1, 468270, Note_off_c, 0, 93, 68
1, 468274, Note_off_c, 0, 90, 65
1, 468275, Note_off_c, 0, 100, 65
1, 468276, Note_off_c, 0, 99, 65
1, 468278, Note_off_c, 0, 81, 64
1, 468570, Note_on_c, 0, 69, 86
1, 468571, Note_on_c, 0, 57, 102
1, 468573, Note_on_c, 0, 60, 93
1, 468575, Note_on_c, 0, 67, 92
1, 468576, Note_on_c, 0, 54, 98
1, 468582, Note_on_c, 0, 63, 77
1, 468588, Note_on_c, 0, 42, 79
1, 468591, Control_c, 0, 64, 85
1, 468607, Control_c, 0, 64, 21
1, 468614, Note_off_c, 0, 60, 62
1, 468621, Control_c, 0, 64, 0
1, 468624, Note_off_c, 0, 42, 65
1, 468631, Note_off_c, 0, 54, 62
1, 468649, Note_off_c, 0, 67, 59
1, 468665, Note_off_c, 0, 63, 32
1, 468666, Note_off_c, 0, 69, 60
1, 468666, Control_c, 0, 64, 61
1, 468681, Control_c, 0, 64, 69
1, 468695, Control_c, 0, 64, 74
1, 468710, Control_c, 0, 64, 78
1, 468718, Note_on_c, 0, 65, 75
1, 468725, Control_c, 0, 64, 83
1, 468728, Note_on_c, 0, 41, 73
1, 468730, Note_on_c, 0, 53, 88
1, 468740, Control_c, 0, 64, 94
1, 468746, Poly_aftertouch_c, 0, 60, 0
1, 468755, Control_c, 0, 64, 127
1, 468764, Note_off_c, 0, 53, 63
1, 468764, Note_off_c, 0, 57, 61
1, 468766, Note_off_c, 0, 41, 66
1, 468792, Note_on_c, 0, 48, 13
1, 468808, Note_on_c, 0, 66, 86
1, 468811, Note_off_c, 0, 65, 66
1, 468826, Note_on_c, 0, 51, 92
1, 468849, Note_off_c, 0, 48, 50
1, 468859, Note_on_c, 0, 39, 61
1, 468866, Control_c, 0, 64, 98
1, 468868, Note_off_c, 0, 51, 64
1, 468871, Note_off_c, 0, 66, 63
1, 468881, Control_c, 0, 64, 84
1, 468889, Note_off_c, 0, 39, 58
1, 468897, Control_c, 0, 64, 85
1, 468909, Note_on_c, 0, 65, 91
1, 468911, Control_c, 0, 64, 95
1, 468913, Note_on_c, 0, 70, 95
1, 468914, Note_on_c, 0, 58, 96
1, 468924, Note_on_c, 0, 49, 82
1, 468926, Control_c, 0, 64, 127
1, 468955, Note_on_c, 0, 37, 42
1, 468967, Note_off_c, 0, 49, 60
1, 468996, Note_off_c, 0, 37, 50
1, 468998, Note_on_c, 0, 48, 83
1, 469002, Note_off_c, 0, 58, 58
1, 469011, Note_off_c, 0, 70, 60
1, 469016, Note_on_c, 0, 36, 63
1, 469026, Note_on_c, 0, 38, 53
1, 469035, Note_on_c, 0, 44, 44
1, 469044, Note_off_c, 0, 48, 64
1, 469046, Note_off_c, 0, 36, 62
1, 469056, Note_off_c, 0, 38, 55
1, 469067, Note_off_c, 0, 44, 51
1, 469095, Note_on_c, 0, 46, 79
1, 469125, Note_off_c, 0, 46, 67
1, 469166, Note_on_c, 0, 61, 104
1, 469171, Note_on_c, 0, 73, 90
1, 469172, Note_on_c, 0, 44, 87
1, 469196, Note_on_c, 0, 32, 64
1, 469198, Note_off_c, 0, 65, 62
1, 469217, Note_off_c, 0, 44, 64
1, 469218, Poly_aftertouch_c, 0, 34, 0
1, 469227, Note_off_c, 0, 32, 60
1, 469254, Note_off_c, 0, 61, 59
1, 469254, Note_off_c, 0, 73, 64
1, 469260, Note_on_c, 0, 43, 84
1, 469266, Note_on_c, 0, 31, 73
1, 469294, Note_off_c, 0, 31, 64
1, 469298, Note_off_c, 0, 43, 58
1, 469329, Note_on_c, 0, 43, 69
1, 469346, Note_on_c, 0, 31, 81
1, 469375, Note_off_c, 0, 43, 63
1, 469378, Note_off_c, 0, 31, 65
1, 469385, Control_c, 0, 64, 85
1, 469401, Control_c, 0, 64, 52
1, 469416, Control_c, 0, 64, 0
1, 469426, Note_on_c, 0, 60, 100
1, 469427, Note_on_c, 0, 72, 91
1, 469428, Note_on_c, 0, 43, 84
1, 469429, Note_on_c, 0, 70, 98
1, 469430, Note_on_c, 0, 31, 85
1, 469431, Note_on_c, 0, 64, 79
1, 469431, Control_c, 0, 64, 26
1, 469445, Control_c, 0, 64, 64
1, 469455, Note_off_c, 0, 60, 69
1, 469456, Note_off_c, 0, 64, 69
1, 469457, Note_off_c, 0, 72, 67
1, 469459, Note_off_c, 0, 43, 66
1, 469460, Control_c, 0, 64, 83
1, 469469, Note_off_c, 0, 70, 70
1, 469475, Control_c, 0, 64, 127
1, 469478, Note_off_c, 0, 31, 64
1, 469538, Poly_aftertouch_c, 0, 63, 0
1, 469545, Note_on_c, 0, 24, 72
1, 469553, Note_on_c, 0, 36, 55
1, 469566, Note_on_c, 0, 35, 37
1, 469578, Note_off_c, 0, 24, 61
1, 469583, Note_off_c, 0, 36, 54
1, 469616, Note_off_c, 0, 35, 48
1, 469639, Note_on_c, 0, 36, 85
1, 469643, Note_on_c, 0, 24, 79
1, 469679, Note_off_c, 0, 24, 62
1, 469687, Note_off_c, 0, 36, 62
1, 469732, Note_on_c, 0, 31, 20
1, 469734, Control_c, 0, 64, 78
1, 469748, Note_on_c, 0, 52, 100
1, 469749, Control_c, 0, 64, 71
1, 469750, Note_on_c, 0, 64, 96
1, 469751, Note_on_c, 0, 58, 101
1, 469754, Note_on_c, 0, 37, 95
1, 469759, Note_on_c, 0, 25, 83
1, 469764, Control_c, 0, 64, 79
1, 469778, Control_c, 0, 64, 111
1, 469781, Note_off_c, 0, 52, 71
1, 469785, Note_off_c, 0, 31, 60
1, 469789, Note_off_c, 0, 37, 60
1, 469793, Control_c, 0, 64, 127
1, 469798, Note_off_c, 0, 64, 62
1, 469798, Note_off_c, 0, 25, 64
1, 469810, Note_off_c, 0, 58, 61
1, 469858, Note_on_c, 0, 36, 84
1, 469873, Note_on_c, 0, 24, 52
1, 469891, Note_off_c, 0, 36, 63
1, 469909, Note_off_c, 0, 24, 59
1, 469946, Poly_aftertouch_c, 0, 31, 127
1, 469947, Note_on_c, 0, 36, 79
1, 469954, Note_on_c, 0, 24, 67
1, 469980, Note_off_c, 0, 24, 68
1, 470003, Poly_aftertouch_c, 0, 31, 0
1, 470003, Note_off_c, 0, 36, 63
1, 470090, Control_c, 0, 64, 103
1, 470104, Control_c, 0, 64, 59
1, 470114, Note_on_c, 0, 41, 105
1, 470119, Control_c, 0, 64, 0
1, 470122, Note_on_c, 0, 56, 104
1, 470124, Note_on_c, 0, 29, 85
1, 470127, Note_on_c, 0, 65, 91
1, 470147, Note_off_c, 0, 29, 66
1, 470153, Note_off_c, 0, 41, 67
1, 470164, Control_c, 0, 64, 64
1, 470165, Note_off_c, 0, 56, 67
1, 470178, Control_c, 0, 64, 97
1, 470186, Note_off_c, 0, 65, 55
1, 470194, Control_c, 0, 64, 127
1, 470225, Note_on_c, 0, 57, 77
1, 470258, Note_on_c, 0, 59, 38
1, 470270, Note_off_c, 0, 57, 65
1, 470292, Note_off_c, 0, 59, 52
1, 470306, Note_on_c, 0, 60, 78
1, 470308, Note_on_c, 0, 66, 87
1, 470312, Note_on_c, 0, 51, 92
1, 470331, Note_off_c, 0, 60, 69
1, 470342, Control_c, 0, 64, 64
1, 470365, Control_c, 0, 64, 0
1, 470391, Note_on_c, 0, 62, 91
1, 470392, Note_on_c, 0, 69, 79
1, 470393, Note_on_c, 0, 54, 86
1, 470419, Note_off_c, 0, 51, 60
1, 470419, Note_off_c, 0, 66, 64
1, 470424, Control_c, 0, 64, 53
1, 470439, Control_c, 0, 64, 80
1, 470439, Note_off_c, 0, 62, 66
1, 470442, Note_off_c, 0, 69, 63
1, 470454, Control_c, 0, 64, 127
1, 470475, Poly_aftertouch_c, 0, 64, 0
1, 470523, Note_on_c, 0, 71, 79
1, 470526, Note_on_c, 0, 57, 83
1, 470544, Note_on_c, 0, 65, 46
1, 470546, Note_on_c, 0, 64, 61
1, 470547, Note_off_c, 0, 54, 62
1, 470570, Note_off_c, 0, 64, 64
1, 470570, Note_off_c, 0, 65, 60
1, 470594, Note_off_c, 0, 57, 65
1, 470602, Note_on_c, 0, 68, 98
1, 470611, Note_on_c, 0, 60, 98
1, 470611, Note_on_c, 0, 75, 94
1, 470616, Note_off_c, 0, 71, 62
1, 470645, Note_off_c, 0, 68, 67
1, 470648, Note_off_c, 0, 75, 65
1, 470702, Note_on_c, 0, 69, 82
1, 470702, Note_on_c, 0, 71, 90
1, 470742, Note_off_c, 0, 69, 63
1, 470742, Note_off_c, 0, 71, 66
1, 470743, Note_on_c, 0, 78, 53
1, 470762, Note_off_c, 0, 60, 62
1, 470766, Note_on_c, 0, 63, 85
1, 470778, Note_on_c, 0, 75, 67
1, 470781, Note_on_c, 0, 77, 70
1, 470786, Note_off_c, 0, 78, 46
1, 470794, Control_c, 0, 64, 86
1, 470795, Note_on_c, 0, 73, 87
1, 470801, Note_off_c, 0, 75, 68
1, 470806, Note_off_c, 0, 77, 64
1, 470808, Note_on_c, 0, 81, 65
1, 470809, Control_c, 0, 64, 49
1, 470815, Note_on_c, 0, 79, 46
1, 470815, Note_off_c, 0, 73, 71
1, 470824, Control_c, 0, 64, 0
1, 470830, Note_on_c, 0, 74, 67
1, 470839, Control_c, 0, 64, 41
1, 470839, Note_off_c, 0, 79, 64
1, 470846, Note_off_c, 0, 74, 65
1, 470852, Note_on_c, 0, 66, 81
1, 470854, Control_c, 0, 64, 62
1, 470868, Control_c, 0, 64, 77
1, 470868, Note_off_c, 0, 81, 65
1, 470883, Control_c, 0, 64, 127
1, 470891, Note_off_c, 0, 63, 62
1, 470932, Note_on_c, 0, 84, 97
1, 470938, Note_on_c, 0, 78, 85
1, 470945, Note_on_c, 0, 69, 89
1, 470953, Note_off_c, 0, 66, 63
1, 470975, Note_off_c, 0, 78, 58
1, 470989, Note_off_c, 0, 84, 65
1, 470994, Note_on_c, 0, 80, 88
1, 471012, Note_off_c, 0, 69, 66
1, 471015, Note_on_c, 0, 87, 99
1, 471029, Note_on_c, 0, 72, 101
1, 471050, Note_off_c, 0, 80, 67
1, 471068, Note_off_c, 0, 87, 65
1, 471108, Note_on_c, 0, 81, 87
1, 471133, Note_on_c, 0, 83, 50
1, 471134, Note_off_c, 0, 83, 127
1, 471134, Note_off_c, 0, 72, 55
1, 471152, Note_off_c, 0, 81, 66
1, 471179, Note_on_c, 0, 75, 87
1, 471180, Note_on_c, 0, 90, 78
1, 471186, Note_on_c, 0, 85, 69
1, 471203, Note_off_c, 0, 85, 68
1, 471226, Note_on_c, 0, 93, 88
1, 471246, Note_off_c, 0, 90, 66
1, 471265, Note_on_c, 0, 78, 85
1, 471271, Note_off_c, 0, 93, 67
1, 471291, Note_off_c, 0, 75, 62
1, 471350, Note_on_c, 0, 81, 87
1, 471368, Note_on_c, 0, 96, 74
1, 471368, Note_off_c, 0, 78, 63
1, 471387, Note_on_c, 0, 90, 62
1, 471394, Note_off_c, 0, 96, 68
1, 471405, Note_off_c, 0, 90, 63
1, 471429, Note_on_c, 0, 99, 108
1, 471433, Note_on_c, 0, 90, 104
1, 471435, Note_on_c, 0, 93, 83
1, 471435, Note_off_c, 0, 81, 60
1, 471444, Note_on_c, 0, 84, 106
1, 471460, Note_off_c, 0, 84, 71
1, 471468, Note_off_c, 0, 90, 65
1, 471468, Note_off_c, 0, 99, 69
1, 471471, Note_off_c, 0, 93, 65
1, 471731, Note_on_c, 0, 66, 99
1, 471733, Note_on_c, 0, 81, 93
1, 471735, Control_c, 0, 64, 68
1, 471736, Note_on_c, 0, 69, 108
1, 471737, Note_on_c, 0, 72, 100
1, 471738, Note_on_c, 0, 54, 87
1, 471745, Note_on_c, 0, 75, 82
1, 471749, Control_c, 0, 64, 34
1, 471764, Control_c, 0, 64, 43
1, 471767, Note_off_c, 0, 54, 63
1, 471772, Note_off_c, 0, 66, 65
1, 471779, Control_c, 0, 64, 59
1, 471783, Note_off_c, 0, 72, 61
1, 471795, Control_c, 0, 64, 71
1, 471810, Control_c, 0, 64, 96
1, 471823, Note_on_c, 0, 72, 53
1, 471825, Control_c, 0, 64, 127
1, 471829, Note_off_c, 0, 75, 60
1, 471861, Note_off_c, 0, 81, 58
1, 471877, Note_off_c, 0, 72, 58
1, 471891, Note_on_c, 0, 77, 95
1, 471894, Note_on_c, 0, 53, 86
1, 471897, Note_on_c, 0, 65, 94
1, 471915, Note_on_c, 0, 81, 32
1, 471924, Note_off_c, 0, 69, 63
1, 471933, Note_off_c, 0, 65, 66
1, 471938, Note_off_c, 0, 53, 65
1, 471941, Note_on_c, 0, 60, 36
1, 471948, Note_off_c, 0, 81, 54
1, 471971, Note_off_c, 0, 77, 61
1, 471974, Note_off_c, 0, 60, 45
1, 471999, Note_on_c, 0, 78, 98
1, 472007, Note_on_c, 0, 63, 97
1, 472018, Note_on_c, 0, 51, 84
1, 472042, Note_off_c, 0, 51, 68
1, 472047, Note_off_c, 0, 63, 61
1, 472062, Note_off_c, 0, 78, 62
1, 472096, Note_on_c, 0, 77, 92
1, 472096, Note_on_c, 0, 82, 98
1, 472097, Note_on_c, 0, 70, 101
1, 472102, Note_on_c, 0, 61, 91
1, 472109, Note_on_c, 0, 49, 77
1, 472114, Control_c, 0, 64, 83
1, 472128, Control_c, 0, 64, 71
1, 472135, Note_off_c, 0, 49, 68
1, 472143, Control_c, 0, 64, 72
1, 472147, Note_off_c, 0, 61, 60
1, 472158, Control_c, 0, 64, 79
1, 472172, Control_c, 0, 64, 98
1, 472183, Note_on_c, 0, 60, 91
1, 472187, Control_c, 0, 64, 127
1, 472188, Note_off_c, 0, 70, 58
1, 472189, Note_on_c, 0, 48, 81
1, 472204, Note_on_c, 0, 56, 59
1, 472207, Note_off_c, 0, 82, 60
1, 472222, Note_off_c, 0, 60, 67
1, 472222, Note_off_c, 0, 48, 67
1, 472226, Note_off_c, 0, 56, 62
1, 472261, Control_c, 0, 64, 99
1, 472275, Note_on_c, 0, 58, 93
1, 472276, Control_c, 0, 64, 66
1, 472291, Control_c, 0, 64, 12
1, 472296, Note_on_c, 0, 46, 69
1, 472305, Control_c, 0, 64, 0
1, 472313, Note_off_c, 0, 58, 63
1, 472317, Note_off_c, 0, 46, 60
1, 472320, Control_c, 0, 64, 50
1, 472335, Control_c, 0, 64, 66
1, 472350, Control_c, 0, 64, 82
1, 472360, Note_on_c, 0, 56, 94
1, 472365, Control_c, 0, 64, 127
1, 472365, Note_on_c, 0, 73, 106
1, 472368, Note_on_c, 0, 85, 90
1, 472371, Note_on_c, 0, 44, 88
1, 472399, Note_off_c, 0, 44, 65
1, 472401, Note_off_c, 0, 77, 61
1, 472404, Note_off_c, 0, 56, 66
1, 472451, Note_on_c, 0, 55, 97
1, 472453, Note_off_c, 0, 73, 63
1, 472454, Note_on_c, 0, 43, 85
1, 472477, Note_off_c, 0, 85, 59
1, 472485, Note_off_c, 0, 43, 68
1, 472488, Note_off_c, 0, 55, 67
1, 472539, Note_on_c, 0, 55, 93
1, 472544, Note_on_c, 0, 43, 85
1, 472571, Note_off_c, 0, 43, 62
1, 472576, Note_off_c, 0, 55, 66
1, 472625, Control_c, 0, 64, 86
1, 472641, Control_c, 0, 64, 55
1, 472656, Control_c, 0, 64, 0
1, 472661, Note_on_c, 0, 43, 93
1, 472663, Note_on_c, 0, 57, 88
1, 472666, Note_on_c, 0, 84, 98
1, 472667, Note_on_c, 0, 55, 85
1, 472668, Note_on_c, 0, 76, 98
1, 472669, Note_on_c, 0, 72, 105
1, 472670, Note_on_c, 0, 82, 98
1, 472670, Control_c, 0, 64, 43
1, 472684, Note_off_c, 0, 57, 71
1, 472684, Note_off_c, 0, 55, 74
1, 472685, Control_c, 0, 64, 67
1, 472700, Control_c, 0, 64, 91
1, 472705, Note_off_c, 0, 72, 68
1, 472708, Note_off_c, 0, 43, 64
1, 472708, Note_off_c, 0, 84, 66
1, 472715, Control_c, 0, 64, 127
1, 472719, Note_off_c, 0, 76, 68
1, 472726, Note_off_c, 0, 82, 68
1, 472788, Note_on_c, 0, 48, 89
1, 472799, Note_on_c, 0, 36, 76
1, 472816, Note_off_c, 0, 48, 66
1, 472827, Note_off_c, 0, 36, 64
1, 472890, Note_on_c, 0, 36, 77
1, 472897, Note_on_c, 0, 48, 105
1, 472957, Note_off_c, 0, 48, 65
1, 472965, Note_off_c, 0, 36, 62
1, 473026, Control_c, 0, 64, 84
1, 473038, Note_on_c, 0, 76, 99
1, 473041, Note_on_c, 0, 64, 102
1, 473041, Note_on_c, 0, 72, 91
1, 473041, Control_c, 0, 64, 39
1, 473043, Note_on_c, 0, 70, 99
1, 473045, Poly_aftertouch_c, 0, 43, 127
1, 473045, Note_on_c, 0, 49, 101
1, 473053, Note_on_c, 0, 37, 86
1, 473056, Control_c, 0, 64, 0
1, 473065, Poly_aftertouch_c, 0, 41, 0
1, 473091, Note_off_c, 0, 49, 64
1, 473095, Note_on_c, 0, 36, 27
1, 473099, Poly_aftertouch_c, 0, 43, 0
1, 473100, Control_c, 0, 64, 56
1, 473112, Note_off_c, 0, 37, 62
1, 473115, Control_c, 0, 64, 70
1, 473129, Control_c, 0, 64, 88
1, 473134, Note_off_c, 0, 36, 52
1, 473144, Control_c, 0, 64, 127
1, 473150, Poly_aftertouch_c, 0, 48, 0
1, 473162, Note_on_c, 0, 48, 69
1, 473205, Note_off_c, 0, 48, 65
1, 473213, Note_on_c, 0, 36, 10
1, 473215, Note_on_c, 0, 41, 12
1, 473241, Note_off_c, 0, 76, 58
1, 473248, Note_off_c, 0, 36, 56
1, 473250, Note_off_c, 0, 64, 55
1, 473263, Note_off_c, 0, 41, 41
1, 473297, Note_off_c, 0, 72, 60
1, 473306, Note_on_c, 0, 48, 100
1, 473313, Note_on_c, 0, 36, 88
1, 473331, Note_off_c, 0, 48, 65
1, 473353, Note_off_c, 0, 36, 64
1, 473369, Note_off_c, 0, 70, 64
1, 473529, Poly_aftertouch_c, 0, 32, 127
1, 473568, Poly_aftertouch_c, 0, 32, 0
1, 473580, Note_on_c, 0, 29, 93
1, 473625, Note_on_c, 0, 77, 98
1, 473631, Note_on_c, 0, 65, 98
1, 473632, Note_on_c, 0, 68, 100
1, 473640, Control_c, 0, 64, 73
1, 473655, Control_c, 0, 64, 0
1, 473743, Control_c, 0, 64, 43
1, 473758, Control_c, 0, 64, 68
1, 473773, Control_c, 0, 64, 78
1, 473788, Control_c, 0, 64, 93
1, 473792, Note_off_c, 0, 65, 60
1, 473803, Control_c, 0, 64, 119
1, 473815, Note_off_c, 0, 77, 63
1, 473817, Control_c, 0, 64, 127
1, 473852, Note_on_c, 0, 36, 72
1, 473872, Note_off_c, 0, 68, 60
1, 474026, Note_on_c, 0, 44, 87
1, 474149, Poly_aftertouch_c, 0, 54, 127
1, 474183, Poly_aftertouch_c, 0, 54, 0
1, 474196, Note_on_c, 0, 49, 76
1, 474234, Note_off_c, 0, 29, 56
1, 474308, Note_off_c, 0, 36, 59
1, 474312, Note_on_c, 0, 48, 75
1, 474326, Note_off_c, 0, 49, 60
1, 474346, Note_off_c, 0, 44, 60
1, 474399, Note_off_c, 0, 48, 60
1, 474410, Note_on_c, 0, 53, 65
1, 474486, Note_on_c, 0, 56, 76
1, 474493, Note_off_c, 0, 53, 62
1, 474537, Control_c, 0, 64, 105
1, 474541, Note_off_c, 0, 56, 63
1, 474552, Control_c, 0, 64, 72
1, 474562, Note_on_c, 0, 53, 64
1, 474566, Control_c, 0, 64, 45
1, 474581, Control_c, 0, 64, 0
1, 474625, Note_off_c, 0, 53, 59
1, 474639, Note_on_c, 0, 58, 66
1, 474655, Control_c, 0, 64, 40
1, 474657, Note_on_c, 0, 36, 51
1, 474670, Control_c, 0, 64, 61
1, 474685, Control_c, 0, 64, 65
1, 474699, Note_on_c, 0, 56, 71
1, 474700, Control_c, 0, 64, 68
1, 474714, Note_off_c, 0, 58, 61
1, 474714, Control_c, 0, 64, 70
1, 474729, Control_c, 0, 64, 72
1, 474731, Note_off_c, 0, 36, 62
1, 474744, Control_c, 0, 64, 73
1, 474755, Note_on_c, 0, 46, 58
1, 474759, Control_c, 0, 64, 74
1, 474766, Note_off_c, 0, 56, 63
1, 474773, Control_c, 0, 64, 76
1, 474785, Note_on_c, 0, 52, 75
1, 474788, Control_c, 0, 64, 79
1, 474803, Control_c, 0, 64, 84
1, 474805, Note_off_c, 0, 46, 58
1, 474818, Control_c, 0, 64, 90
1, 474833, Control_c, 0, 64, 96
1, 474855, Control_c, 0, 64, 103
1, 474860, Note_off_c, 0, 52, 64
1, 474860, Note_on_c, 0, 56, 60
1, 474870, Control_c, 0, 64, 112
1, 474882, Note_off_c, 0, 56, 61
1, 474885, Note_on_c, 0, 55, 68
1, 474885, Control_c, 0, 64, 127
1, 474893, Note_on_c, 0, 41, 57
1, 474924, Note_on_c, 0, 56, 69
1, 474934, Note_off_c, 0, 55, 54
1, 474946, Note_off_c, 0, 41, 61
1, 474961, Note_on_c, 0, 48, 64
1, 474964, Note_off_c, 0, 56, 64
1, 475000, Note_on_c, 0, 57, 73
1, 475066, Note_off_c, 0, 57, 64
1, 475075, Note_on_c, 0, 56, 63
1, 475141, Note_off_c, 0, 56, 63
1, 475182, Control_c, 0, 64, 82
1, 475184, Note_on_c, 0, 60, 67
1, 475188, Note_on_c, 0, 68, 42
1, 475191, Note_on_c, 0, 41, 65
1, 475195, Poly_aftertouch_c, 0, 62, 0
1, 475197, Control_c, 0, 64, 50
1, 475205, Note_off_c, 0, 48, 26
1, 475212, Control_c, 0, 64, 0
1, 475225, Note_off_c, 0, 68, 45
1, 475241, Note_off_c, 0, 60, 63
1, 475247, Note_on_c, 0, 67, 72
1, 475266, Note_off_c, 0, 41, 63
1, 475274, Note_on_c, 0, 48, 47
1, 475286, Control_c, 0, 64, 56
1, 475301, Control_c, 0, 64, 65
1, 475312, Note_off_c, 0, 67, 65
1, 475315, Control_c, 0, 64, 69
1, 475316, Note_off_c, 0, 48, 64
1, 475330, Control_c, 0, 64, 71
1, 475339, Note_on_c, 0, 59, 73
1, 475345, Control_c, 0, 64, 73
1, 475360, Control_c, 0, 64, 75
1, 475370, Note_on_c, 0, 56, 56
1, 475375, Control_c, 0, 64, 79
1, 475376, Note_on_c, 0, 60, 72
1, 475389, Control_c, 0, 64, 86
1, 475391, Note_off_c, 0, 59, 60
1, 475404, Control_c, 0, 64, 101
1, 475419, Control_c, 0, 64, 127
1, 475431, Note_off_c, 0, 56, 61
1, 475432, Note_on_c, 0, 61, 80
1, 475441, Note_on_c, 0, 44, 72
1, 475457, Note_off_c, 0, 60, 63
1, 475478, Note_off_c, 0, 61, 60
1, 475492, Note_on_c, 0, 60, 72
1, 475507, Note_on_c, 0, 53, 61
1, 475515, Note_off_c, 0, 44, 63
1, 475542, Note_off_c, 0, 53, 63
1, 475543, Note_off_c, 0, 60, 64
1, 475555, Note_on_c, 0, 65, 63
1, 475560, Note_on_c, 0, 59, 69
1, 475577, Note_on_c, 0, 68, 78
1, 475598, Note_off_c, 0, 65, 60
1, 475632, Note_off_c, 0, 59, 60
1, 475653, Note_on_c, 0, 65, 85
1, 475655, Note_off_c, 0, 68, 63
1, 475663, Control_c, 0, 64, 84
1, 475678, Control_c, 0, 64, 63
1, 475693, Control_c, 0, 64, 0
1, 475697, Note_on_c, 0, 48, 64
1, 475704, Note_on_c, 0, 70, 75
1, 475721, Note_off_c, 0, 65, 62
1, 475752, Control_c, 0, 64, 54
1, 475760, Note_on_c, 0, 68, 84
1, 475767, Control_c, 0, 64, 64
1, 475771, Note_off_c, 0, 48, 63
1, 475782, Control_c, 0, 64, 70
1, 475789, Note_on_c, 0, 58, 63
1, 475798, Control_c, 0, 64, 75
1, 475802, Note_off_c, 0, 70, 63
1, 475812, Control_c, 0, 64, 79
1, 475823, Note_on_c, 0, 64, 81
1, 475827, Control_c, 0, 64, 83
1, 475837, Note_off_c, 0, 68, 62
1, 475842, Control_c, 0, 64, 88
1, 475843, Note_off_c, 0, 58, 54
1, 475857, Control_c, 0, 64, 95
1, 475872, Control_c, 0, 64, 113
1, 475880, Note_on_c, 0, 67, 81
1, 475887, Note_on_c, 0, 52, 58
1, 475887, Control_c, 0, 64, 127
1, 475894, Note_off_c, 0, 64, 62
1, 475918, Note_off_c, 0, 52, 66
1, 475939, Note_on_c, 0, 68, 82
1, 475942, Note_on_c, 0, 60, 62
1, 475964, Note_off_c, 0, 67, 60
1, 475983, Note_off_c, 0, 68, 63
1, 476012, Note_on_c, 0, 69, 77
1, 476037, Note_off_c, 0, 60, 60
1, 476064, Note_off_c, 0, 69, 65
1, 476067, Note_on_c, 0, 72, 69
1, 476094, Note_off_c, 0, 72, 66
1, 476109, Note_on_c, 0, 73, 73
1, 476154, Note_off_c, 0, 73, 65
1, 476170, Note_on_c, 0, 72, 75
1, 476225, Note_off_c, 0, 72, 64
1, 476230, Note_on_c, 0, 79, 76
1, 476286, Control_c, 0, 64, 110
1, 476301, Control_c, 0, 64, 66
1, 476316, Control_c, 0, 64, 0
1, 476318, Note_on_c, 0, 77, 83
1, 476321, Note_on_c, 0, 41, 61
1, 476353, Note_off_c, 0, 79, 66
1, 476383, Control_c, 0, 64, 20
1, 476398, Control_c, 0, 64, 59
1, 476401, Note_off_c, 0, 77, 65
1, 476413, Control_c, 0, 64, 67
1, 476428, Control_c, 0, 64, 72
1, 476443, Control_c, 0, 64, 79
1, 476458, Control_c, 0, 64, 90
1, 476473, Control_c, 0, 64, 112
1, 476473, Note_off_c, 0, 41, 64
1, 476479, Note_on_c, 0, 48, 63
1, 476487, Control_c, 0, 64, 127
1, 476512, Note_on_c, 0, 59, 83
1, 476531, Note_off_c, 0, 48, 62
1, 476598, Note_on_c, 0, 60, 76
1, 476610, Note_on_c, 0, 56, 60
1, 476610, Note_off_c, 0, 59, 61
1, 476661, Note_on_c, 0, 61, 77
1, 476680, Note_off_c, 0, 60, 62
1, 476693, Note_on_c, 0, 44, 69
1, 476699, Note_off_c, 0, 56, 39
1, 476702, Note_off_c, 0, 61, 60
1, 476715, Note_on_c, 0, 60, 68
1, 476762, Note_on_c, 0, 53, 45
1, 476772, Note_off_c, 0, 44, 62
1, 476772, Note_off_c, 0, 60, 64
1, 476797, Note_off_c, 0, 53, 63
1, 476818, Note_on_c, 0, 68, 76
1, 476833, Note_on_c, 0, 60, 56
1, 476839, Note_on_c, 0, 59, 37
1, 476864, Note_off_c, 0, 59, 59
1, 476888, Control_c, 0, 64, 80
1, 476889, Note_on_c, 0, 65, 76
1, 476890, Note_off_c, 0, 60, 57
1, 476893, Note_off_c, 0, 68, 61
1, 476903, Control_c, 0, 64, 56
1, 476914, Note_on_c, 0, 70, 62
1, 476917, Control_c, 0, 64, 0
1, 476932, Note_on_c, 0, 48, 67
1, 476948, Note_off_c, 0, 65, 62
1, 476961, Control_c, 0, 64, 12
1, 476976, Control_c, 0, 64, 59
1, 476987, Note_on_c, 0, 68, 82
1, 476991, Control_c, 0, 64, 68
1, 477006, Control_c, 0, 64, 78
1, 477019, Note_off_c, 0, 48, 64
1, 477021, Control_c, 0, 64, 97
1, 477023, Note_off_c, 0, 70, 64
1, 477028, Note_on_c, 0, 58, 69
1, 477036, Control_c, 0, 64, 127
1, 477050, Note_on_c, 0, 64, 84
1, 477060, Note_off_c, 0, 68, 61
1, 477102, Note_off_c, 0, 58, 61
1, 477107, Note_on_c, 0, 67, 76
1, 477114, Note_off_c, 0, 64, 64
1, 477143, Note_on_c, 0, 52, 62
1, 477161, Note_on_c, 0, 68, 82
1, 477172, Note_off_c, 0, 52, 66
1, 477176, Note_off_c, 0, 67, 62
1, 477185, Note_on_c, 0, 60, 77
1, 477189, Note_off_c, 0, 68, 69
1, 477215, Note_on_c, 0, 67, 70
1, 477269, Note_off_c, 0, 67, 59
1, 477283, Note_off_c, 0, 60, 60
1, 477285, Note_on_c, 0, 73, 73
1, 477307, Note_on_c, 0, 68, 83
1, 477310, Note_off_c, 0, 73, 69
1, 477332, Poly_aftertouch_c, 0, 71, 127
1, 477358, Poly_aftertouch_c, 0, 71, 0
1, 477376, Note_off_c, 0, 68, 63
1, 477379, Note_on_c, 0, 71, 35
1, 477401, Note_on_c, 0, 80, 63
1, 477421, Note_off_c, 0, 71, 65
1, 477427, Note_on_c, 0, 78, 81
1, 477432, Note_off_c, 0, 80, 67
1, 477438, Poly_aftertouch_c, 0, 72, 127
1, 477444, Control_c, 0, 64, 111
1, 477452, Note_on_c, 0, 53, 84
1, 477458, Control_c, 0, 64, 67
1, 477465, Poly_aftertouch_c, 0, 72, 0
1, 477473, Control_c, 0, 64, 0
1, 477506, Note_off_c, 0, 78, 64
1, 477513, Note_on_c, 0, 60, 55
1, 477518, Note_on_c, 0, 71, 82
1, 477527, Note_off_c, 0, 53, 64
1, 477532, Control_c, 0, 64, 51
1, 477547, Control_c, 0, 64, 66
1, 477561, Note_on_c, 0, 72, 76
1, 477562, Control_c, 0, 64, 78
1, 477564, Note_off_c, 0, 60, 64
1, 477573, Note_off_c, 0, 71, 64
1, 477577, Control_c, 0, 64, 111
1, 477591, Control_c, 0, 64, 127
1, 477612, Note_on_c, 0, 68, 75
1, 477619, Note_on_c, 0, 73, 82
1, 477644, Note_off_c, 0, 72, 64
1, 477652, Note_off_c, 0, 73, 65
1, 477668, Note_on_c, 0, 72, 79
1, 477674, Note_off_c, 0, 68, 62
1, 477697, Note_on_c, 0, 56, 82
1, 477727, Note_off_c, 0, 72, 63
1, 477741, Note_on_c, 0, 65, 74
1, 477755, Note_on_c, 0, 76, 28
1, 477757, Note_on_c, 0, 80, 85
1, 477783, Note_off_c, 0, 56, 64
1, 477790, Note_off_c, 0, 76, 48
1, 477803, Note_off_c, 0, 65, 63
1, 477826, Note_on_c, 0, 72, 64
1, 477831, Note_off_c, 0, 80, 65
1, 477841, Note_on_c, 0, 77, 89
1, 477842, Note_on_c, 0, 71, 64
1, 477869, Note_off_c, 0, 71, 65
1, 477883, Note_off_c, 0, 72, 61
1, 477895, Control_c, 0, 64, 114
1, 477906, Note_on_c, 0, 82, 86
1, 477910, Control_c, 0, 64, 66
1, 477914, Note_off_c, 0, 77, 61
1, 477924, Control_c, 0, 64, 0
1, 477935, Note_on_c, 0, 60, 81
1, 477966, Note_on_c, 0, 80, 81
1, 477984, Control_c, 0, 64, 17
1, 477999, Control_c, 0, 64, 64
1, 478004, Note_off_c, 0, 82, 65
1, 478014, Control_c, 0, 64, 78
1, 478021, Note_on_c, 0, 76, 91
1, 478023, Note_off_c, 0, 60, 64
1, 478029, Control_c, 0, 64, 127
1, 478031, Note_on_c, 0, 70, 76
1, 478040, Note_off_c, 0, 80, 65
1, 478085, Note_on_c, 0, 79, 86
1, 478099, Note_off_c, 0, 70, 60
1, 478104, Note_off_c, 0, 76, 62
1, 478133, Note_on_c, 0, 64, 77
1, 478141, Note_on_c, 0, 80, 90
1, 478166, Note_off_c, 0, 79, 67
1, 478183, Note_off_c, 0, 64, 62
1, 478185, Note_on_c, 0, 72, 71
1, 478196, Note_off_c, 0, 80, 66
1, 478218, Note_on_c, 0, 79, 87
1, 478276, Note_on_c, 0, 84, 87
1, 478285, Note_off_c, 0, 79, 65
1, 478308, Note_on_c, 0, 80, 92
1, 478317, Note_on_c, 0, 85, 86
1, 478331, Note_off_c, 0, 84, 65
1, 478360, Note_off_c, 0, 80, 65
1, 478365, Note_off_c, 0, 85, 67
1, 478389, Note_on_c, 0, 84, 97
1, 478416, Note_off_c, 0, 72, 56
1, 478435, Note_off_c, 0, 84, 67
1, 478444, Control_c, 0, 64, 98
1, 478458, Note_on_c, 0, 93, 96
1, 478459, Control_c, 0, 64, 60
1, 478474, Control_c, 0, 64, 0
1, 478488, Note_off_c, 0, 93, 67
1, 478512, Note_on_c, 0, 77, 98
1, 478519, Note_on_c, 0, 68, 80
1, 478520, Note_on_c, 0, 72, 79
1, 478539, Note_off_c, 0, 77, 66
1, 478545, Note_on_c, 0, 89, 97
1, 478545, Note_off_c, 0, 72, 69
1, 478561, Note_off_c, 0, 68, 59
1, 478632, Note_off_c, 0, 89, 59
1, 478640, Note_on_c, 0, 101, 104
1, 478735, Note_on_c, 0, 100, 96
1, 478762, Note_off_c, 0, 101, 66
1, 478810, Note_on_c, 0, 73, 97
1, 478810, Note_on_c, 0, 77, 107
1, 478813, Note_on_c, 0, 65, 83
1, 478813, Note_on_c, 0, 68, 97
1, 478819, Note_on_c, 0, 99, 94
1, 478836, Control_c, 0, 64, 69
1, 478850, Note_off_c, 0, 100, 66
1, 478851, Control_c, 0, 64, 127
1, 478878, Note_on_c, 0, 97, 88
1, 478893, Poly_aftertouch_c, 0, 70, 127
1, 478895, Note_on_c, 0, 70, 5
1, 478912, Note_off_c, 0, 99, 65
1, 478931, Note_off_c, 0, 70, 48
1, 478953, Note_off_c, 0, 97, 64
1, 478955, Note_on_c, 0, 95, 83
1, 478957, Note_on_c, 0, 96, 68
1, 478984, Note_off_c, 0, 96, 67
1, 478985, Note_off_c, 0, 95, 60
1, 478990, Note_off_c, 0, 73, 62
1, 479016, Note_on_c, 0, 94, 86
1, 479039, Note_off_c, 0, 77, 55
1, 479057, Note_on_c, 0, 92, 82
1, 479068, Note_off_c, 0, 65, 53
1, 479075, Note_off_c, 0, 68, 57
1, 479106, Note_off_c, 0, 94, 64
1, 479111, Note_on_c, 0, 91, 88
1, 479141, Note_off_c, 0, 92, 66
1, 479158, Note_on_c, 0, 77, 92
1, 479164, Control_c, 0, 64, 76
1, 479164, Note_on_c, 0, 72, 71
1, 479170, Note_off_c, 0, 91, 64
1, 479174, Note_on_c, 0, 68, 71
1, 479178, Control_c, 0, 64, 0
1, 479186, Note_on_c, 0, 88, 76
1, 479200, Note_off_c, 0, 72, 64
1, 479205, Note_off_c, 0, 77, 64
1, 479212, Note_on_c, 0, 89, 21
1, 479217, Note_off_c, 0, 88, 63
1, 479219, Note_off_c, 0, 68, 58
1, 479238, Note_on_c, 0, 88, 73
1, 479242, Note_off_c, 0, 89, 34
1, 479310, Note_on_c, 0, 87, 81
1, 479349, Note_off_c, 0, 88, 65
1, 479358, Note_on_c, 0, 77, 100
1, 479364, Note_on_c, 0, 73, 89
1, 479367, Note_on_c, 0, 65, 72
1, 479370, Note_on_c, 0, 68, 77
1, 479371, Note_on_c, 0, 85, 95
1, 479377, Note_off_c, 0, 77, 68
1, 479391, Note_off_c, 0, 73, 66
1, 479393, Note_off_c, 0, 65, 67
1, 479393, Control_c, 0, 64, 65
1, 479397, Note_off_c, 0, 68, 67
1, 479406, Note_off_c, 0, 87, 64
1, 479408, Control_c, 0, 64, 127
1, 479435, Note_off_c, 0, 85, 67
1, 479444, Note_on_c, 0, 84, 83
1, 479489, Note_off_c, 0, 84, 63
1, 479500, Note_on_c, 0, 82, 80
1, 479546, Note_on_c, 0, 80, 77
1, 479566, Note_off_c, 0, 82, 65
1, 479584, Note_on_c, 0, 78, 68
1, 479585, Note_off_c, 0, 78, 127
1, 479591, Note_on_c, 0, 79, 85
1, 479613, Note_off_c, 0, 80, 64
1, 479629, Note_off_c, 0, 79, 68
1, 479658, Note_on_c, 0, 77, 62
1, 479677, Note_off_c, 0, 77, 63
1, 479692, Note_on_c, 0, 65, 92
1, 479695, Note_on_c, 0, 60, 78
1, 479699, Note_on_c, 0, 56, 77
1, 479704, Control_c, 0, 64, 77
1, 479711, Note_off_c, 0, 65, 71
1, 479719, Control_c, 0, 64, 0
1, 479722, Note_off_c, 0, 60, 69
1, 479728, Note_on_c, 0, 92, 87
1, 479728, Note_off_c, 0, 56, 68
1, 479732, Note_on_c, 0, 53, 7
1, 479776, Note_on_c, 0, 93, 39
1, 479782, Note_off_c, 0, 53, 28
1, 479787, Note_on_c, 0, 91, 82
1, 479797, Note_off_c, 0, 92, 64
1, 479806, Note_off_c, 0, 93, 49
1, 479847, Note_off_c, 0, 91, 64
1, 479876, Note_on_c, 0, 89, 81
1, 479921, Note_off_c, 0, 89, 65
1, 479949, Note_on_c, 0, 87, 85
1, 479954, Note_on_c, 0, 65, 101
1, 479955, Note_on_c, 0, 61, 94
1, 479956, Note_on_c, 0, 53, 87
1, 479958, Note_on_c, 0, 56, 96
1, 479972, Control_c, 0, 64, 72
1, 479986, Control_c, 0, 64, 127
1, 479997, Note_on_c, 0, 58, 41
1, 480007, Note_on_c, 0, 85, 87
1, 480025, Note_off_c, 0, 87, 63
1, 480028, Note_off_c, 0, 58, 54
1, 480068, Note_off_c, 0, 85, 66
1, 480091, Note_on_c, 0, 84, 80
1, 480134, Note_off_c, 0, 61, 60
1, 480142, Note_off_c, 0, 84, 60
1, 480145, Note_on_c, 0, 82, 82
1, 480172, Note_off_c, 0, 65, 56
1, 480195, Note_on_c, 0, 80, 76
1, 480207, Note_off_c, 0, 56, 57
1, 480211, Note_off_c, 0, 53, 58
1, 480234, Note_on_c, 0, 79, 83
1, 480234, Note_off_c, 0, 82, 63
1, 480266, Note_off_c, 0, 80, 64
1, 480278, Note_off_c, 0, 79, 64
1, 480292, Note_on_c, 0, 65, 93
1, 480300, Note_on_c, 0, 60, 69
1, 480300, Note_on_c, 0, 56, 77
1, 480304, Note_on_c, 0, 77, 87
1, 480306, Control_c, 0, 64, 67
1, 480321, Control_c, 0, 64, 0
1, 480327, Note_off_c, 0, 60, 68
1, 480342, Note_off_c, 0, 65, 60
1, 480354, Note_off_c, 0, 56, 56
1, 480357, Note_on_c, 0, 75, 83
1, 480380, Note_off_c, 0, 77, 55
1, 480420, Note_on_c, 0, 73, 84
1, 480454, Note_off_c, 0, 75, 60
1, 480480, Note_on_c, 0, 65, 99
1, 480487, Note_on_c, 0, 61, 83
1, 480488, Note_on_c, 0, 56, 79
1, 480491, Note_off_c, 0, 73, 63
1, 480491, Note_on_c, 0, 53, 67
1, 480500, Note_on_c, 0, 72, 88
1, 480504, Note_off_c, 0, 65, 66
1, 480513, Control_c, 0, 64, 63
1, 480518, Note_off_c, 0, 61, 65
1, 480520, Note_off_c, 0, 53, 66
1, 480528, Control_c, 0, 64, 127
1, 480533, Note_off_c, 0, 56, 64
1, 480543, Note_off_c, 0, 72, 65
1, 480561, Note_on_c, 0, 70, 86
1, 480607, Note_on_c, 0, 68, 79
1, 480634, Note_off_c, 0, 70, 65
1, 480651, Note_on_c, 0, 67, 80
1, 480674, Note_off_c, 0, 68, 61
1, 480687, Note_off_c, 0, 67, 60
1, 480707, Note_on_c, 0, 65, 82
1, 480753, Note_on_c, 0, 41, 74
1, 480753, Note_off_c, 0, 65, 61
1, 480786, Note_on_c, 0, 61, 79
1, 480813, Note_on_c, 0, 48, 73
1, 480856, Note_off_c, 0, 61, 62
1, 480908, Note_on_c, 0, 56, 92
1, 480911, Note_on_c, 0, 60, 74
1, 480936, Control_c, 0, 64, 73
1, 480951, Control_c, 0, 64, 0
1, 480971, Note_off_c, 0, 60, 64
1, 480983, Note_on_c, 0, 65, 77
1, 481039, Control_c, 0, 64, 62
1, 481051, Note_on_c, 0, 68, 86
1, 481054, Control_c, 0, 64, 74
1, 481064, Note_off_c, 0, 65, 65
1, 481069, Control_c, 0, 64, 103
1, 481084, Control_c, 0, 64, 127
1, 481089, Note_off_c, 0, 68, 65
1, 481129, Note_on_c, 0, 72, 97
1, 481162, Note_off_c, 0, 41, 62
1, 481188, Note_on_c, 0, 77, 97
1, 481200, Note_off_c, 0, 72, 66
1, 481207, Note_off_c, 0, 56, 62
1, 481212, Note_off_c, 0, 48, 61
1, 481257, Note_on_c, 0, 80, 95
1, 481268, Note_off_c, 0, 77, 66
1, 481289, Note_off_c, 0, 80, 69
1, 481294, Note_on_c, 0, 81, 61
1, 481311, Note_off_c, 0, 81, 66
1, 481341, Note_on_c, 0, 84, 97
1, 481352, Note_on_c, 0, 86, 84
1, 481367, Note_off_c, 0, 86, 64
1, 481412, Note_on_c, 0, 89, 95
1, 481421, Note_off_c, 0, 84, 63
1, 481480, Note_on_c, 0, 92, 99
1, 481497, Note_off_c, 0, 89, 63
1, 481538, Note_off_c, 0, 92, 66
1, 481615, Note_on_c, 0, 97, 101
1, 481618, Note_on_c, 0, 85, 95
1, 481683, Note_off_c, 0, 97, 63
1, 481714, Note_on_c, 0, 96, 92
1, 481723, Note_off_c, 0, 85, 56
1, 481724, Note_on_c, 0, 84, 86
1, 481812, Note_on_c, 0, 92, 97
1, 481813, Note_on_c, 0, 80, 85
1, 481825, Note_off_c, 0, 96, 63
1, 481826, Note_off_c, 0, 84, 61
1, 481902, Note_off_c, 0, 92, 66
1, 481908, Note_on_c, 0, 89, 99
1, 481913, Note_on_c, 0, 77, 72
1, 481920, Note_off_c, 0, 80, 65
1, 481946, Note_off_c, 0, 77, 63
1, 481965, Note_on_c, 0, 82, 92
1, 481984, Note_on_c, 0, 94, 92
1, 481996, Note_off_c, 0, 89, 66
1, 482026, Note_off_c, 0, 82, 64
1, 482054, Note_on_c, 0, 92, 89
1, 482057, Note_on_c, 0, 80, 73
1, 482090, Note_off_c, 0, 94, 63
1, 482107, Note_on_c, 0, 77, 80
1, 482111, Note_on_c, 0, 89, 83
1, 482127, Note_off_c, 0, 80, 62
1, 482140, Note_off_c, 0, 92, 65
1, 482148, Note_on_c, 0, 72, 71
1, 482178, Note_off_c, 0, 77, 64
1, 482182, Note_on_c, 0, 84, 80
1, 482184, Note_off_c, 0, 89, 64
1, 482202, Note_off_c, 0, 72, 64
1, 482208, Note_off_c, 0, 84, 66
1, 482229, Note_on_c, 0, 79, 78
1, 482245, Note_on_c, 0, 91, 85
1, 482277, Note_on_c, 0, 89, 88
1, 482278, Note_off_c, 0, 79, 59
1, 482305, Note_off_c, 0, 91, 64
1, 482312, Note_on_c, 0, 76, 69
1, 482321, Note_on_c, 0, 77, 54
1, 482348, Note_off_c, 0, 77, 61
1, 482356, Note_on_c, 0, 84, 83
1, 482376, Note_off_c, 0, 89, 66
1, 482387, Note_off_c, 0, 76, 64
1, 482408, Note_on_c, 0, 80, 86
1, 482410, Note_on_c, 0, 68, 69
1, 482425, Note_off_c, 0, 84, 63
1, 482443, Note_off_c, 0, 68, 64
1, 482465, Note_off_c, 0, 80, 65
1, 482470, Note_on_c, 0, 73, 83
1, 482470, Note_on_c, 0, 85, 76
1, 482521, Note_off_c, 0, 85, 66
1, 482524, Note_on_c, 0, 84, 85
1, 482530, Note_on_c, 0, 72, 73
1, 482581, Note_off_c, 0, 73, 55
1, 482594, Note_on_c, 0, 68, 73
1, 482599, Note_on_c, 0, 80, 87
1, 482611, Note_off_c, 0, 72, 64
1, 482619, Note_off_c, 0, 84, 66
1, 482622, Note_on_c, 0, 65, 69
1, 482648, Note_off_c, 0, 68, 63
1, 482649, Note_on_c, 0, 77, 88
1, 482652, Note_off_c, 0, 65, 67
1, 482657, Note_off_c, 0, 80, 64
1, 482691, Note_on_c, 0, 70, 81
1, 482720, Note_on_c, 0, 82, 86
1, 482730, Note_off_c, 0, 77, 62
1, 482747, Note_off_c, 0, 70, 62
1, 482757, Note_on_c, 0, 80, 80
1, 482762, Note_on_c, 0, 68, 76
1, 482807, Note_off_c, 0, 82, 63
1, 482813, Note_on_c, 0, 65, 70
1, 482815, Note_on_c, 0, 77, 89
1, 482830, Note_off_c, 0, 68, 59
1, 482842, Note_on_c, 0, 60, 73
1, 482846, Note_off_c, 0, 80, 64
1, 482870, Note_off_c, 0, 65, 64
1, 482873, Note_on_c, 0, 72, 82
1, 482879, Note_off_c, 0, 77, 64
1, 482893, Note_off_c, 0, 60, 64
1, 482907, Note_off_c, 0, 72, 63
1, 482920, Note_on_c, 0, 67, 83
1, 482938, Note_on_c, 0, 79, 86
1, 482977, Note_on_c, 0, 77, 88
1, 482994, Note_off_c, 0, 67, 61
1, 482995, Note_on_c, 0, 65, 82
1, 483012, Note_off_c, 0, 79, 64
1, 483031, Note_on_c, 0, 72, 79
1, 483059, Note_off_c, 0, 77, 66
1, 483064, Note_off_c, 0, 65, 63
1, 483089, Note_on_c, 0, 68, 90
1, 483091, Note_on_c, 0, 56, 78
1, 483093, Note_on_c, 0, 60, 29
1, 483093, Control_c, 0, 64, 104
1, 483099, Poly_aftertouch_c, 0, 64, 0
1, 483108, Control_c, 0, 64, 98
1, 483112, Note_off_c, 0, 72, 62
1, 483123, Control_c, 0, 64, 96
1, 483125, Note_off_c, 0, 60, 46
1, 483141, Note_off_c, 0, 56, 64
1, 483150, Note_off_c, 0, 68, 62
1, 483159, Note_on_c, 0, 73, 85
1, 483164, Note_on_c, 0, 61, 64
1, 483165, Poly_aftertouch_c, 0, 58, 127
1, 483167, Control_c, 0, 64, 95
1, 483182, Control_c, 0, 64, 93
1, 483187, Note_on_c, 0, 63, 19
1, 483193, Poly_aftertouch_c, 0, 58, 0
1, 483197, Control_c, 0, 64, 91
1, 483206, Note_off_c, 0, 73, 62
1, 483210, Note_on_c, 0, 72, 81
1, 483211, Control_c, 0, 64, 88
1, 483218, Note_off_c, 0, 61, 61
1, 483219, Note_on_c, 0, 60, 64
1, 483224, Note_on_c, 0, 59, 70
1, 483226, Control_c, 0, 64, 86
1, 483227, Note_off_c, 0, 63, 46
1, 483241, Control_c, 0, 64, 85
1, 483256, Control_c, 0, 64, 84
1, 483271, Control_c, 0, 64, 83
1, 483275, Note_on_c, 0, 68, 88
1, 483285, Control_c, 0, 64, 82
1, 483286, Note_on_c, 0, 56, 69
1, 483287, Note_off_c, 0, 59, 62
1, 483288, Note_off_c, 0, 60, 64
1, 483300, Control_c, 0, 64, 81
1, 483301, Note_on_c, 0, 53, 74
1, 483304, Note_off_c, 0, 72, 65
1, 483315, Control_c, 0, 64, 81
1, 483334, Note_off_c, 0, 56, 63
1, 483335, Note_on_c, 0, 65, 86
1, 483339, Note_off_c, 0, 53, 63
1, 483343, Note_off_c, 0, 68, 62
1, 483345, Control_c, 0, 64, 80
1, 483367, Note_on_c, 0, 58, 81
1, 483374, Control_c, 0, 64, 80
1, 483389, Control_c, 0, 64, 79
1, 483396, Note_on_c, 0, 70, 85
1, 483403, Control_c, 0, 64, 79
1, 483407, Note_off_c, 0, 65, 61
1, 483418, Control_c, 0, 64, 78
1, 483419, Note_off_c, 0, 58, 62
1, 483433, Control_c, 0, 64, 78
1, 483439, Note_on_c, 0, 56, 75
1, 483442, Note_on_c, 0, 68, 76
1, 483448, Control_c, 0, 64, 77
1, 483463, Control_c, 0, 64, 77
1, 483478, Control_c, 0, 64, 76
1, 483481, Note_off_c, 0, 70, 63
1, 483485, Note_on_c, 0, 65, 84
1, 483493, Control_c, 0, 64, 76
1, 483494, Note_on_c, 0, 53, 59
1, 483499, Note_off_c, 0, 56, 63
1, 483508, Control_c, 0, 64, 75
1, 483509, Note_on_c, 0, 48, 74
1, 483519, Note_off_c, 0, 68, 62
1, 483522, Control_c, 0, 64, 74
1, 483530, Note_off_c, 0, 53, 65
1, 483537, Control_c, 0, 64, 73
1, 483547, Note_on_c, 0, 60, 87
1, 483549, Note_off_c, 0, 65, 63
1, 483552, Control_c, 0, 64, 72
1, 483564, Note_off_c, 0, 48, 63
1, 483567, Control_c, 0, 64, 71
1, 483576, Note_off_c, 0, 60, 65
1, 483579, Note_on_c, 0, 55, 84
1, 483582, Control_c, 0, 64, 70
1, 483597, Control_c, 0, 64, 69
1, 483611, Control_c, 0, 64, 68
1, 483615, Note_on_c, 0, 67, 86
1, 483626, Control_c, 0, 64, 67
1, 483628, Note_off_c, 0, 55, 61
1, 483651, Note_on_c, 0, 65, 76
1, 483656, Note_on_c, 0, 53, 70
1, 483656, Control_c, 0, 64, 66
1, 483677, Note_on_c, 0, 52, 45
1, 483685, Note_off_c, 0, 67, 63
1, 483707, Note_on_c, 0, 59, 56
1, 483708, Note_on_c, 0, 60, 72
1, 483710, Note_off_c, 0, 52, 34
1, 483711, Note_on_c, 0, 48, 57
1, 483726, Note_off_c, 0, 65, 63
1, 483727, Note_off_c, 0, 53, 63
1, 483739, Note_on_c, 0, 44, 67
1, 483748, Note_off_c, 0, 48, 66
1, 483749, Note_on_c, 0, 56, 88
1, 483755, Note_off_c, 0, 60, 58
1, 483756, Note_on_c, 0, 46, 40
1, 483759, Control_c, 0, 64, 66
1, 483764, Note_off_c, 0, 59, 64
1, 483776, Note_off_c, 0, 44, 65
1, 483790, Note_off_c, 0, 46, 44
1, 483798, Note_off_c, 0, 56, 65
1, 483799, Note_on_c, 0, 49, 83
1, 483805, Control_c, 0, 64, 66
1, 483825, Note_on_c, 0, 61, 79
1, 483856, Control_c, 0, 64, 66
1, 483870, Note_off_c, 0, 49, 59
1, 483871, Note_on_c, 0, 48, 69
1, 483873, Note_on_c, 0, 60, 76
1, 483876, Note_on_c, 0, 47, 54
1, 483880, Note_off_c, 0, 61, 57
1, 483900, Control_c, 0, 64, 65
1, 483922, Note_off_c, 0, 47, 53
1, 483928, Note_on_c, 0, 44, 72
1, 483931, Note_off_c, 0, 48, 65
1, 483934, Note_on_c, 0, 56, 81
1, 483938, Note_on_c, 0, 41, 72
1, 483967, Note_off_c, 0, 60, 66
1, 483968, Note_off_c, 0, 44, 64
1, 483974, Control_c, 0, 64, 65
1, 483975, Note_off_c, 0, 41, 65
1, 483988, Note_on_c, 0, 53, 90
1, 483999, Note_on_c, 0, 46, 87
1, 484002, Note_off_c, 0, 56, 63
1, 484049, Note_on_c, 0, 58, 84
1, 484054, Note_off_c, 0, 53, 58
1, 484062, Note_off_c, 0, 46, 57
1, 484077, Note_on_c, 0, 44, 79
1, 484078, Control_c, 0, 64, 64
1, 484089, Note_on_c, 0, 56, 78
1, 484133, Note_off_c, 0, 58, 62
1, 484134, Note_on_c, 0, 41, 64
1, 484137, Note_on_c, 0, 53, 75
1, 484145, Note_off_c, 0, 44, 62
1, 484147, Note_on_c, 0, 52, 71
1, 484153, Note_on_c, 0, 36, 74
1, 484168, Note_off_c, 0, 56, 64
1, 484179, Note_off_c, 0, 41, 66
1, 484186, Note_off_c, 0, 52, 45
1, 484187, Note_off_c, 0, 53, 63
1, 484188, Note_on_c, 0, 48, 87
1, 484207, Note_off_c, 0, 36, 60
1, 484223, Note_on_c, 0, 43, 87
1, 484230, Note_off_c, 0, 48, 63
1, 484262, Note_on_c, 0, 55, 85
1, 484271, Control_c, 0, 64, 64
1, 484273, Note_off_c, 0, 43, 62
1, 484286, Control_c, 0, 64, 63
1, 484295, Note_on_c, 0, 53, 77
1, 484300, Control_c, 0, 64, 63
1, 484303, Note_on_c, 0, 40, 73
1, 484334, Note_off_c, 0, 55, 62
1, 484357, Note_on_c, 0, 47, 58
1, 484360, Note_on_c, 0, 48, 68
1, 484366, Note_on_c, 0, 35, 37
1, 484370, Note_off_c, 0, 53, 64
1, 484386, Note_on_c, 0, 36, 47
1, 484386, Note_off_c, 0, 48, 66
1, 484390, Note_off_c, 0, 40, 63
1, 484402, Note_on_c, 0, 32, 63
1, 484406, Note_on_c, 0, 44, 89
1, 484413, Note_off_c, 0, 35, 62
1, 484418, Note_off_c, 0, 36, 51
1, 484420, Note_on_c, 0, 31, 65
1, 484427, Note_off_c, 0, 47, 64
1, 484432, Note_on_c, 0, 34, 25
1, 484450, Note_off_c, 0, 32, 62
1, 484455, Note_off_c, 0, 31, 64
1, 484464, Note_off_c, 0, 44, 63
1, 484474, Note_on_c, 0, 37, 86
1, 484475, Note_off_c, 0, 34, 48
1, 484481, Note_on_c, 0, 49, 78
1, 484507, Control_c, 0, 64, 62
1, 484535, Note_on_c, 0, 36, 61
1, 484547, Note_on_c, 0, 48, 70
1, 484551, Control_c, 0, 64, 61
1, 484556, Note_off_c, 0, 37, 54
1, 484560, Note_off_c, 0, 49, 60
1, 484575, Control_c, 0, 64, 61
1, 484590, Control_c, 0, 64, 60
1, 484605, Control_c, 0, 64, 59
1, 484619, Control_c, 0, 64, 58
1, 484625, Note_on_c, 0, 32, 66
1, 484628, Note_on_c, 0, 44, 76
1, 484634, Control_c, 0, 64, 58
1, 484646, Note_off_c, 0, 36, 62
1, 484649, Control_c, 0, 64, 57
1, 484650, Note_on_c, 0, 29, 75
1, 484658, Note_off_c, 0, 48, 65
1, 484679, Note_on_c, 0, 41, 90
1, 484694, Control_c, 0, 64, 57
1, 484701, Note_off_c, 0, 44, 64
1, 484704, Note_off_c, 0, 32, 61
1, 484733, Note_on_c, 0, 37, 86
1, 484738, Control_c, 0, 64, 57
1, 484746, Note_on_c, 0, 49, 80
1, 484754, Note_off_c, 0, 29, 61
1, 484762, Note_off_c, 0, 41, 64
1, 484768, Control_c, 0, 64, 57
1, 484783, Control_c, 0, 64, 56
1, 484788, Note_off_c, 0, 37, 59
1, 484797, Control_c, 0, 64, 56
1, 484798, Note_off_c, 0, 49, 0
1, 484810, Note_on_c, 0, 36, 80
1, 484810, Note_on_c, 0, 48, 90
1, 484812, Control_c, 0, 64, 55
1, 484836, Poly_aftertouch_c, 0, 49, 127
1, 484853, Poly_aftertouch_c, 0, 49, 0
1, 484888, Note_on_c, 0, 44, 86
1, 484894, Note_off_c, 0, 36, 62
1, 484896, Note_on_c, 0, 30, 51
1, 484900, Note_on_c, 0, 29, 79
1, 484902, Note_off_c, 0, 48, 66
1, 484917, Note_on_c, 0, 32, 29
1, 484920, Note_on_c, 0, 41, 91
1, 484945, Control_c, 0, 64, 56
1, 484957, Note_off_c, 0, 44, 64
1, 484960, Note_off_c, 0, 32, 42
1, 484960, Control_c, 0, 64, 57
1, 484975, Control_c, 0, 64, 57
1, 484977, Note_off_c, 0, 30, 58
1, 484980, Note_on_c, 0, 37, 88
1, 484999, Note_on_c, 0, 49, 73
1, 485007, Note_off_c, 0, 29, 62
1, 485010, Note_off_c, 0, 41, 64
1, 485019, Control_c, 0, 64, 58
1, 485024, Note_off_c, 0, 49, 58
1, 485034, Note_off_c, 0, 37, 62
1, 485049, Note_on_c, 0, 36, 83
1, 485049, Control_c, 0, 64, 57
1, 485069, Poly_aftertouch_c, 0, 49, 127
1, 485078, Control_c, 0, 64, 57
1, 485087, Poly_aftertouch_c, 0, 49, 0
1, 485099, Note_on_c, 0, 48, 75
1, 485108, Control_c, 0, 64, 56
1, 485126, Note_on_c, 0, 32, 66
1, 485133, Note_on_c, 0, 44, 81
1, 485144, Note_off_c, 0, 36, 62
1, 485150, Note_off_c, 0, 48, 65
1, 485153, Control_c, 0, 64, 55
1, 485162, Note_on_c, 0, 29, 74
1, 485168, Control_c, 0, 64, 54
1, 485170, Note_on_c, 0, 41, 89
1, 485171, Note_off_c, 0, 32, 62
1, 485198, Note_off_c, 0, 44, 63
1, 485212, Control_c, 0, 64, 55
1, 485225, Note_on_c, 0, 37, 87
1, 485245, Note_on_c, 0, 49, 83
1, 485263, Note_off_c, 0, 41, 64
1, 485267, Note_off_c, 0, 29, 62
1, 485271, Control_c, 0, 64, 55
1, 485286, Control_c, 0, 64, 56
1, 485294, Note_on_c, 0, 36, 68
1, 485300, Note_on_c, 0, 48, 75
1, 485301, Control_c, 0, 64, 58
1, 485311, Note_off_c, 0, 37, 62
1, 485316, Control_c, 0, 64, 60
1, 485338, Control_c, 0, 64, 62
1, 485346, Note_off_c, 0, 49, 48
1, 485353, Note_on_c, 0, 32, 78
1, 485353, Control_c, 0, 64, 64
1, 485368, Control_c, 0, 64, 66
1, 485368, Note_on_c, 0, 50, 3
1, 485380, Note_off_c, 0, 36, 62
1, 485382, Note_on_c, 0, 44, 84
1, 485383, Control_c, 0, 64, 68
1, 485398, Control_c, 0, 64, 71
1, 485408, Note_off_c, 0, 50, 28
1, 485413, Control_c, 0, 64, 74
1, 485420, Note_off_c, 0, 48, 65
1, 485427, Control_c, 0, 64, 77
1, 485442, Control_c, 0, 64, 94
1, 485445, Note_off_c, 0, 32, 63
1, 485457, Note_on_c, 0, 29, 95
1, 485457, Control_c, 0, 64, 127
1, 485459, Note_on_c, 0, 41, 99
1, 485490, Note_off_c, 0, 44, 65
1, 485496, Note_off_c, 0, 41, 67
1, 485520, Note_off_c, 0, 29, 61
1, 485753, Control_c, 0, 64, 86
1, 485768, Control_c, 0, 64, 61
1, 485783, Control_c, 0, 64, 0
1, 485960, Note_on_c, 0, 77, 93
1, 485961, Note_on_c, 0, 73, 104
1, 485965, Note_on_c, 0, 65, 97
1, 485967, Note_on_c, 0, 68, 98
1, 485967, Note_on_c, 0, 49, 110
1, 485972, Note_on_c, 0, 37, 82
1, 485991, Control_c, 0, 64, 24
1, 485997, Note_on_c, 0, 75, 56
1, 486000, Note_off_c, 0, 49, 67
1, 486000, Note_off_c, 0, 37, 68
1, 486005, Control_c, 0, 64, 87
1, 486009, Note_off_c, 0, 65, 67
1, 486018, Note_off_c, 0, 77, 65
1, 486020, Control_c, 0, 64, 127
1, 486024, Note_off_c, 0, 75, 52
1, 486036, Note_off_c, 0, 68, 65
1, 486044, Note_off_c, 0, 73, 69
1, 486295, Control_c, 0, 64, 92
1, 486310, Control_c, 0, 64, 64
1, 486324, Control_c, 0, 64, 0
1, 486478, Note_on_c, 0, 85, 96
1, 486483, Note_on_c, 0, 73, 93
1, 486485, Note_on_c, 0, 46, 110
1, 486485, Note_on_c, 0, 77, 99
1, 486485, Note_on_c, 0, 79, 93
1, 486488, Note_on_c, 0, 34, 90
1, 486502, Control_c, 0, 64, 80
1, 486510, Note_on_c, 0, 78, 52
1, 486511, Note_off_c, 0, 78, 127
1, 486517, Control_c, 0, 64, 127
1, 486540, Note_off_c, 0, 73, 67
1, 486546, Note_off_c, 0, 85, 66
1, 486559, Note_off_c, 0, 77, 65
1, 486560, Note_off_c, 0, 79, 68
1, 486584, Poly_aftertouch_c, 0, 41, 127
1, 486726, Poly_aftertouch_c, 0, 41, 0
1, 486758, Note_off_c, 0, 46, 62
1, 486764, Note_off_c, 0, 34, 61
1, 486835, Control_c, 0, 64, 98
1, 486850, Control_c, 0, 64, 59
1, 486865, Control_c, 0, 64, 0
1, 487035, Note_on_c, 0, 64, 92
1, 487040, Note_on_c, 0, 58, 96
1, 487040, Note_on_c, 0, 55, 99
1, 487040, Note_on_c, 0, 60, 92
1, 487043, Note_on_c, 0, 48, 99
1, 487046, Note_on_c, 0, 36, 90
1, 487073, Control_c, 0, 64, 75
1, 487088, Control_c, 0, 64, 127
1, 487180, Note_off_c, 0, 36, 62
1, 487180, Note_off_c, 0, 48, 65
1, 487331, Note_off_c, 0, 64, 58
1, 487392, Note_off_c, 0, 55, 57
1, 487430, Note_off_c, 0, 60, 52
1, 487441, Note_off_c, 0, 58, 61
1, 487473, Control_c, 0, 64, 84
1, 487488, Control_c, 0, 64, 0
1, 487794, Note_on_c, 0, 65, 95
1, 487794, Note_on_c, 0, 41, 104
1, 487796, Note_on_c, 0, 53, 96
1, 487796, Note_on_c, 0, 56, 95
1, 487797, Note_on_c, 0, 29, 88
1, 487797, Note_on_c, 0, 60, 94
1, 487876, Note_on_c, 0, 62, 8
1, 487910, Note_off_c, 0, 62, 28
1, 488134, Control_c, 0, 64, 27
1, 488143, Poly_aftertouch_c, 0, 62, 127
1, 488148, Control_c, 0, 64, 42
1, 488163, Control_c, 0, 64, 47
1, 488178, Control_c, 0, 64, 51
1, 488192, Control_c, 0, 64, 54
1, 488207, Control_c, 0, 64, 58
1, 488222, Control_c, 0, 64, 61
1, 488237, Control_c, 0, 64, 64
1, 488252, Control_c, 0, 64, 66
1, 488266, Control_c, 0, 64, 67
1, 488281, Control_c, 0, 64, 68
1, 488296, Control_c, 0, 64, 69
1, 488311, Control_c, 0, 64, 71
1, 488334, Control_c, 0, 64, 72
1, 488348, Control_c, 0, 64, 75
1, 488363, Control_c, 0, 64, 78
1, 488378, Control_c, 0, 64, 82
1, 488392, Control_c, 0, 64, 86
1, 488407, Control_c, 0, 64, 90
1, 488422, Control_c, 0, 64, 93
1, 488437, Control_c, 0, 64, 94
1, 488452, Control_c, 0, 64, 96
1, 488466, Control_c, 0, 64, 98
1, 488481, Control_c, 0, 64, 101
1, 488496, Control_c, 0, 64, 106
1, 488511, Control_c, 0, 64, 115
1, 488526, Control_c, 0, 64, 127
1, 488897, Control_c, 0, 64, 118
1, 488899, Poly_aftertouch_c, 0, 62, 0
1, 488912, Control_c, 0, 64, 115
1, 488927, Control_c, 0, 64, 111
1, 488942, Control_c, 0, 64, 109
1, 488957, Control_c, 0, 64, 106
1, 488971, Control_c, 0, 64, 104
1, 488986, Control_c, 0, 64, 103
1, 489001, Control_c, 0, 64, 101
1, 489015, Control_c, 0, 64, 101
1, 489045, Control_c, 0, 64, 100
1, 489082, Control_c, 0, 64, 99
1, 489097, Control_c, 0, 64, 99
1, 489112, Control_c, 0, 64, 98
1, 489127, Control_c, 0, 64, 97
1, 489141, Control_c, 0, 64, 96
1, 489171, Control_c, 0, 64, 96
1, 489186, Control_c, 0, 64, 95
1, 489201, Control_c, 0, 64, 94
1, 489216, Control_c, 0, 64, 93
1, 489230, Control_c, 0, 64, 92
1, 489245, Control_c, 0, 64, 91
1, 489260, Control_c, 0, 64, 89
1, 489275, Control_c, 0, 64, 88
1, 489290, Control_c, 0, 64, 87
1, 489304, Control_c, 0, 64, 86
1, 489319, Control_c, 0, 64, 86
1, 489365, Control_c, 0, 64, 85
1, 489380, Control_c, 0, 64, 85
1, 489454, Control_c, 0, 64, 84
1, 489483, Control_c, 0, 64, 84
1, 489527, Control_c, 0, 64, 83
1, 489542, Control_c, 0, 64, 83
1, 489572, Control_c, 0, 64, 82
1, 489586, Control_c, 0, 64, 82
1, 489616, Control_c, 0, 64, 81
1, 489631, Control_c, 0, 64, 81
1, 489645, Control_c, 0, 64, 80
1, 489660, Control_c, 0, 64, 78
1, 489675, Control_c, 0, 64, 77
1, 489690, Control_c, 0, 64, 76
1, 489705, Control_c, 0, 64, 75
1, 489794, Control_c, 0, 64, 76
1, 489809, Control_c, 0, 64, 76
1, 489831, Control_c, 0, 64, 77
1, 489845, Control_c, 0, 64, 78
1, 489860, Control_c, 0, 64, 80
1, 489870, Note_off_c, 0, 60, 61
1, 489873, Note_off_c, 0, 53, 63
1, 489875, Control_c, 0, 64, 79
1, 489883, Note_off_c, 0, 56, 67
1, 489883, Note_off_c, 0, 65, 60
1, 489890, Control_c, 0, 64, 69
1, 489896, Note_off_c, 0, 29, 63
1, 489897, Note_off_c, 0, 41, 65
1, 489905, Control_c, 0, 64, 0
1, 489980, End_track
0, 0, End_of_file
