0, 0, Header, 0, 1, 384
1, 0, Start_track
1, 0, Title_t, "RachmaninSonataNo2Op36--Mizumoto"
1, 0, Text_t, "2011 ePiano Junior Competition"
1, 0, Text_t, "captured in spring and summer 2011"
1, 0, Text_t, "http://www.piano-e-competition.com/"
1, 0, Text_t, "standard-resolution version"
1, 0, Text_t, "File processed for distribution with software designed and coded by Dr. John Q. Walker, founder of Zenph Sound Innovations"
1, 0, Instrument_name_t, "Yamaha Disklavier Pro Mark IV concert grand piano, model DCFIIISM4PRO"
1, 0, Sequencer_specific, 39, 67, 113, 0, 1, 0, 1, 0, 82, 97, 99, 104, 109, 97, 110, 83, 111, 110, 97, 116, 97, 78, 111, 50, 87, 101, 115, 116, 111, 110, 32, 77, 105, 122, 117, 109, 111, 116, 111, 32
1, 0, Sequencer_specific, 6, 67, 113, 0, 0, 0, 69
1, 0, System_exclusive, 21, 67, 113, 126, 21, 0, 2, 2, 2, 5, 12, 8, 4, 14, 1, 4, 11, 10, 0, 15, 1, 247
1, 0, Sequencer_specific, 5, 67, 123, 12, 2, 1
1, 0, Tempo, 512820
1, 0, Time_signature, 4, 2, 24, 8
1, 0, System_exclusive, 5, 126, 127, 9, 1, 247
1, 1, System_exclusive, 8, 67, 16, 76, 0, 0, 126, 0, 247
1, 2, System_exclusive, 8, 67, 16, 76, 8, 9, 7, 1, 247
1, 3, Control_c, 0, 0, 108
1, 3, Control_c, 1, 0, 108
1, 3, Control_c, 2, 0, 0
1, 3, Control_c, 3, 0, 0
1, 3, Control_c, 4, 0, 0
1, 3, Control_c, 5, 0, 0
1, 3, Control_c, 6, 0, 0
1, 3, Control_c, 7, 0, 0
1, 3, Control_c, 8, 0, 0
1, 3, Control_c, 9, 0, 127
1, 3, Control_c, 10, 0, 0
1, 3, Control_c, 11, 0, 0
1, 3, Control_c, 12, 0, 0
1, 3, Control_c, 13, 0, 0
1, 3, Control_c, 14, 0, 0
1, 3, Control_c, 15, 0, 0
1, 4, Control_c, 0, 32, 0
1, 4, Control_c, 1, 32, 0
1, 4, Control_c, 2, 32, 0
1, 4, Control_c, 3, 32, 0
1, 4, Control_c, 4, 32, 0
1, 4, Control_c, 5, 32, 0
1, 4, Control_c, 6, 32, 0
1, 4, Control_c, 7, 32, 0
1, 4, Control_c, 8, 32, 0
1, 4, Control_c, 9, 32, 0
1, 4, Control_c, 10, 32, 0
1, 4, Control_c, 11, 32, 0
1, 4, Control_c, 12, 32, 0
1, 4, Control_c, 13, 32, 0
1, 4, Control_c, 14, 32, 0
1, 4, Control_c, 15, 32, 0
1, 5, Program_c, 0, 0
1, 5, Program_c, 1, 0
1, 5, Program_c, 2, 0
1, 5, Program_c, 3, 0
1, 5, Program_c, 4, 0
1, 5, Program_c, 5, 0
1, 5, Program_c, 6, 0
1, 5, Program_c, 7, 0
1, 5, Program_c, 8, 0
1, 5, Program_c, 9, 0
1, 5, Program_c, 10, 0
1, 5, Program_c, 11, 0
1, 5, Program_c, 12, 0
1, 5, Program_c, 13, 0
1, 5, Program_c, 14, 0
1, 5, Program_c, 15, 0
1, 6, Control_c, 0, 7, 100
1, 6, Control_c, 1, 7, 100
1, 6, Control_c, 2, 7, 100
1, 6, Control_c, 3, 7, 100
1, 6, Control_c, 4, 7, 100
1, 6, Control_c, 5, 7, 100
1, 6, Control_c, 6, 7, 100
1, 6, Control_c, 7, 7, 100
1, 6, Control_c, 8, 7, 100
1, 6, Control_c, 9, 7, 100
1, 6, Control_c, 10, 7, 100
1, 6, Control_c, 11, 7, 100
1, 6, Control_c, 12, 7, 100
1, 6, Control_c, 13, 7, 100
1, 6, Control_c, 14, 7, 100
1, 6, Control_c, 15, 7, 100
1, 42, Control_c, 0, 64, 15
1, 79, Control_c, 0, 64, 31
1, 116, Control_c, 0, 64, 46
1, 153, Control_c, 0, 64, 63
1, 190, Control_c, 0, 64, 77
1, 226, Control_c, 0, 64, 94
1, 263, Control_c, 0, 64, 108
1, 300, Control_c, 0, 64, 127
1, 378, Note_on_c, 0, 65, 96
1, 502, Note_on_c, 0, 63, 90
1, 524, Note_off_c, 0, 65, 64
1, 544, Note_on_c, 0, 61, 82
1, 578, Note_off_c, 0, 63, 67
1, 584, Note_on_c, 0, 58, 95
1, 595, Note_off_c, 0, 61, 64
1, 605, Note_on_c, 0, 53, 65
1, 629, Note_off_c, 0, 58, 65
1, 645, Note_on_c, 0, 49, 89
1, 654, Note_on_c, 0, 46, 60
1, 654, Note_off_c, 0, 53, 65
1, 658, Note_on_c, 0, 41, 89
1, 680, Note_off_c, 0, 49, 67
1, 691, Note_off_c, 0, 46, 65
1, 704, Note_off_c, 0, 41, 65
1, 760, Note_on_c, 0, 39, 91
1, 786, Note_on_c, 0, 38, 77
1, 805, Note_on_c, 0, 37, 89
1, 811, Note_off_c, 0, 38, 65
1, 827, Control_c, 0, 64, 72
1, 829, Note_on_c, 0, 36, 71
1, 832, Note_off_c, 0, 39, 56
1, 842, Control_c, 0, 64, 43
1, 854, Note_off_c, 0, 36, 59
1, 857, Control_c, 0, 64, 28
1, 859, Note_on_c, 0, 34, 107
1, 870, Note_on_c, 0, 22, 83
1, 872, Control_c, 0, 64, 48
1, 873, Note_off_c, 0, 37, 62
1, 887, Control_c, 0, 64, 66
1, 898, Note_off_c, 0, 22, 62
1, 901, Note_off_c, 0, 34, 62
1, 901, Control_c, 0, 64, 127
1, 1266, Note_on_c, 0, 65, 93
1, 1269, Note_on_c, 0, 77, 112
1, 1270, Note_on_c, 0, 53, 78
1, 1270, Note_on_c, 0, 61, 84
1, 1273, Note_on_c, 0, 82, 98
1, 1273, Note_on_c, 0, 89, 97
1, 1274, Note_on_c, 0, 58, 84
1, 1297, Note_off_c, 0, 89, 64
1, 1307, Note_off_c, 0, 77, 69
1, 1309, Note_off_c, 0, 82, 64
1, 1326, Note_off_c, 0, 65, 58
1, 1339, Note_off_c, 0, 53, 61
1, 1357, Note_off_c, 0, 58, 62
1, 1367, Note_off_c, 0, 61, 61
1, 1405, Note_on_c, 0, 61, 87
1, 1408, Note_on_c, 0, 65, 105
1, 1412, Note_on_c, 0, 53, 76
1, 1413, Note_on_c, 0, 58, 86
1, 1417, Note_on_c, 0, 82, 109
1, 1428, Note_on_c, 0, 73, 112
1, 1432, Note_on_c, 0, 85, 83
1, 1432, Note_off_c, 0, 65, 75
1, 1448, Note_off_c, 0, 61, 68
1, 1449, Note_off_c, 0, 53, 65
1, 1449, Note_off_c, 0, 58, 66
1, 1450, Note_off_c, 0, 85, 73
1, 1460, Note_off_c, 0, 82, 65
1, 1463, Note_off_c, 0, 73, 59
1, 1792, Note_on_c, 0, 73, 69
1, 1793, Note_on_c, 0, 77, 55
1, 1794, Note_on_c, 0, 70, 66
1, 1836, Note_off_c, 0, 77, 60
1, 1856, Note_off_c, 0, 70, 52
1, 1879, Note_off_c, 0, 73, 49
1, 1925, Note_on_c, 0, 70, 66
1, 1925, Note_on_c, 0, 61, 68
1, 1940, Note_on_c, 0, 65, 50
1, 1950, Note_off_c, 0, 70, 64
1, 1990, Note_off_c, 0, 61, 53
1, 1997, Note_on_c, 0, 73, 63
1, 2019, Note_on_c, 0, 70, 43
1, 2024, Note_off_c, 0, 73, 69
1, 2048, Note_off_c, 0, 70, 0
1, 2056, Poly_aftertouch_c, 0, 70, 0
1, 2065, Note_on_c, 0, 70, 68
1, 2067, Note_on_c, 0, 73, 88
1, 2074, Note_on_c, 0, 77, 74
1, 2093, Note_off_c, 0, 65, 53
1, 2097, Note_off_c, 0, 70, 65
1, 2101, Note_off_c, 0, 73, 57
1, 2108, Note_off_c, 0, 77, 62
1, 2131, Note_on_c, 0, 61, 77
1, 2134, Note_on_c, 0, 70, 80
1, 2136, Note_on_c, 0, 65, 41
1, 2179, Note_off_c, 0, 70, 62
1, 2203, Note_on_c, 0, 73, 78
1, 2204, Poly_aftertouch_c, 0, 70, 0
1, 2206, Note_off_c, 0, 61, 60
1, 2207, Note_on_c, 0, 70, 57
1, 2230, Note_off_c, 0, 70, 60
1, 2230, Note_off_c, 0, 73, 67
1, 2238, Note_off_c, 0, 65, 54
1, 2270, Note_on_c, 0, 73, 86
1, 2272, Note_on_c, 0, 77, 80
1, 2273, Note_on_c, 0, 70, 76
1, 2293, Note_off_c, 0, 73, 65
1, 2300, Note_off_c, 0, 70, 67
1, 2313, Note_off_c, 0, 77, 58
1, 2319, Note_on_c, 0, 61, 81
1, 2328, Note_on_c, 0, 70, 90
1, 2330, Note_on_c, 0, 65, 70
1, 2352, Note_off_c, 0, 70, 62
1, 2380, Note_on_c, 0, 73, 85
1, 2388, Note_off_c, 0, 61, 58
1, 2389, Note_on_c, 0, 70, 62
1, 2402, Note_off_c, 0, 73, 70
1, 2408, Note_off_c, 0, 70, 66
1, 2419, Note_off_c, 0, 65, 61
1, 2448, Note_on_c, 0, 73, 100
1, 2452, Note_on_c, 0, 77, 95
1, 2453, Note_on_c, 0, 70, 81
1, 2474, Note_off_c, 0, 70, 69
1, 2488, Note_on_c, 0, 65, 49
1, 2489, Note_off_c, 0, 73, 65
1, 2498, Note_off_c, 0, 77, 63
1, 2499, Note_on_c, 0, 70, 90
1, 2501, Note_on_c, 0, 61, 93
1, 2527, Note_off_c, 0, 70, 68
1, 2529, Note_off_c, 0, 61, 63
1, 2537, Note_off_c, 0, 65, 65
1, 2557, Note_on_c, 0, 65, 79
1, 2567, Note_on_c, 0, 73, 82
1, 2571, Note_on_c, 0, 70, 68
1, 2588, Note_off_c, 0, 73, 70
1, 2595, Note_off_c, 0, 70, 67
1, 2630, Note_on_c, 0, 73, 97
1, 2635, Note_on_c, 0, 77, 80
1, 2645, Note_on_c, 0, 70, 74
1, 2651, Note_off_c, 0, 65, 59
1, 2673, Note_off_c, 0, 70, 66
1, 2673, Note_off_c, 0, 73, 65
1, 2700, Note_off_c, 0, 77, 54
1, 2705, Note_on_c, 0, 73, 83
1, 2713, Note_on_c, 0, 65, 57
1, 2722, Note_on_c, 0, 70, 84
1, 2740, Note_off_c, 0, 70, 73
1, 2744, Note_off_c, 0, 65, 63
1, 2753, Note_off_c, 0, 73, 66
1, 2786, Note_on_c, 0, 73, 79
1, 2798, Note_on_c, 0, 70, 85
1, 2883, Poly_aftertouch_c, 0, 65, 0
1, 2984, Note_on_c, 0, 65, 97
1, 2995, Note_off_c, 0, 70, 63
1, 3014, Note_off_c, 0, 73, 67
1, 3288, Note_on_c, 0, 64, 93
1, 3339, Note_off_c, 0, 65, 53
1, 3369, Note_on_c, 0, 70, 69
1, 3369, Note_on_c, 0, 73, 65
1, 3394, Note_off_c, 0, 70, 66
1, 3401, Note_off_c, 0, 73, 63
1, 3453, Note_on_c, 0, 73, 74
1, 3455, Note_on_c, 0, 70, 69
1, 3470, Note_on_c, 0, 77, 63
1, 3485, Note_off_c, 0, 70, 66
1, 3494, Note_off_c, 0, 73, 62
1, 3512, Note_off_c, 0, 77, 52
1, 3517, Note_on_c, 0, 63, 94
1, 3546, Note_off_c, 0, 64, 66
1, 3548, Note_on_c, 0, 73, 69
1, 3550, Note_on_c, 0, 70, 78
1, 3574, Note_on_c, 0, 65, 34
1, 3575, Note_off_c, 0, 70, 68
1, 3580, Note_off_c, 0, 73, 65
1, 3588, Note_off_c, 0, 63, 66
1, 3601, Note_off_c, 0, 65, 56
1, 3638, Note_on_c, 0, 73, 72
1, 3653, Note_on_c, 0, 70, 68
1, 3658, Note_on_c, 0, 65, 46
1, 3682, Note_off_c, 0, 73, 64
1, 3685, Note_off_c, 0, 70, 70
1, 3693, Note_off_c, 0, 65, 54
1, 3724, Note_on_c, 0, 61, 32
1, 3748, Note_on_c, 0, 73, 65
1, 3751, Note_on_c, 0, 65, 56
1, 3757, Note_on_c, 0, 70, 72
1, 3757, Note_off_c, 0, 61, 51
1, 3845, Note_on_c, 0, 61, 84
1, 3854, Control_c, 0, 64, 74
1, 3856, Note_off_c, 0, 65, 60
1, 3856, Note_off_c, 0, 70, 62
1, 3863, Note_off_c, 0, 73, 62
1, 3869, Control_c, 0, 64, 38
1, 3883, Control_c, 0, 64, 0
1, 3927, Control_c, 0, 64, 24
1, 3942, Control_c, 0, 64, 57
1, 3957, Control_c, 0, 64, 66
1, 3965, Note_on_c, 0, 70, 55
1, 3966, Note_on_c, 0, 65, 55
1, 3972, Control_c, 0, 64, 73
1, 3980, Note_on_c, 0, 73, 33
1, 3987, Control_c, 0, 64, 86
1, 3988, Note_off_c, 0, 65, 61
1, 3988, Note_off_c, 0, 70, 61
1, 4001, Control_c, 0, 64, 108
1, 4016, Control_c, 0, 64, 127
1, 4035, Note_off_c, 0, 73, 0
1, 4046, Note_on_c, 0, 73, 55
1, 4061, Note_on_c, 0, 70, 63
1, 4082, Note_off_c, 0, 73, 64
1, 4087, Note_off_c, 0, 70, 66
1, 4128, Note_on_c, 0, 77, 59
1, 4128, Poly_aftertouch_c, 0, 65, 127
1, 4147, Note_on_c, 0, 70, 66
1, 4164, Note_on_c, 0, 73, 53
1, 4178, Note_off_c, 0, 70, 65
1, 4188, Note_off_c, 0, 73, 61
1, 4197, Note_off_c, 0, 77, 42
1, 4203, Poly_aftertouch_c, 0, 65, 0
1, 4268, Note_on_c, 0, 58, 82
1, 4334, Note_off_c, 0, 61, 59
1, 4361, Note_on_c, 0, 70, 60
1, 4374, Note_on_c, 0, 65, 41
1, 4376, Note_on_c, 0, 73, 40
1, 4397, Note_off_c, 0, 70, 63
1, 4401, Note_off_c, 0, 65, 55
1, 4404, Note_off_c, 0, 73, 54
1, 4478, Note_on_c, 0, 53, 75
1, 4492, Note_off_c, 0, 58, 56
1, 4585, Note_on_c, 0, 70, 56
1, 4599, Note_on_c, 0, 65, 40
1, 4603, Note_on_c, 0, 73, 39
1, 4614, Note_off_c, 0, 70, 66
1, 4653, Note_off_c, 0, 73, 0
1, 4665, Note_on_c, 0, 73, 50
1, 4666, Note_on_c, 0, 70, 67
1, 4666, Note_off_c, 0, 65, 0
1, 4680, Note_on_c, 0, 65, 27
1, 4695, Note_off_c, 0, 70, 66
1, 4708, Note_off_c, 0, 73, 62
1, 4752, Note_on_c, 0, 77, 56
1, 4766, Note_on_c, 0, 73, 36
1, 4778, Note_on_c, 0, 70, 24
1, 4778, Note_off_c, 0, 65, 0
1, 4798, Note_off_c, 0, 73, 46
1, 4813, Note_off_c, 0, 70, 0
1, 4825, Poly_aftertouch_c, 0, 70, 0
1, 4829, Poly_aftertouch_c, 0, 65, 0
1, 4841, Note_on_c, 0, 70, 43
1, 4844, Note_on_c, 0, 73, 62
1, 4849, Note_on_c, 0, 65, 27
1, 4852, Note_off_c, 0, 77, 63
1, 4879, Note_off_c, 0, 73, 64
1, 4896, Note_off_c, 0, 70, 63
1, 4904, Note_off_c, 0, 65, 62
1, 5058, Note_on_c, 0, 61, 52
1, 5085, Note_off_c, 0, 61, 62
1, 5108, Note_on_c, 0, 58, 3
1, 5163, Note_on_c, 0, 61, 48
1, 5341, Note_on_c, 0, 52, 69
1, 5407, Note_off_c, 0, 53, 58
1, 5440, Control_c, 0, 64, 91
1, 5455, Control_c, 0, 64, 67
1, 5461, Note_off_c, 0, 61, 60
1, 5464, Note_on_c, 0, 65, 51
1, 5470, Control_c, 0, 64, 49
1, 5482, Note_off_c, 0, 58, 42
1, 5485, Control_c, 0, 64, 46
1, 5499, Control_c, 0, 64, 49
1, 5514, Control_c, 0, 64, 57
1, 5529, Control_c, 0, 64, 64
1, 5544, Control_c, 0, 64, 69
1, 5559, Control_c, 0, 64, 76
1, 5567, Note_on_c, 0, 61, 44
1, 5573, Control_c, 0, 64, 82
1, 5588, Control_c, 0, 64, 89
1, 5603, Control_c, 0, 64, 94
1, 5609, Note_off_c, 0, 65, 45
1, 5618, Control_c, 0, 64, 100
1, 5621, Note_on_c, 0, 58, 45
1, 5621, Note_off_c, 0, 61, 0
1, 5621, Note_on_c, 0, 61, 35
1, 5633, Control_c, 0, 64, 106
1, 5647, Control_c, 0, 64, 120
1, 5658, Note_off_c, 0, 58, 65
1, 5658, Note_off_c, 0, 61, 63
1, 5662, Control_c, 0, 64, 127
1, 5754, Note_on_c, 0, 58, 47
1, 5756, Note_on_c, 0, 61, 43
1, 5782, Note_off_c, 0, 61, 56
1, 5796, Note_off_c, 0, 58, 43
1, 5855, Note_on_c, 0, 58, 22
1, 5932, Note_off_c, 0, 58, 0
1, 5936, Note_on_c, 0, 61, 10
1, 5949, Note_off_c, 0, 52, 65
1, 5950, Note_on_c, 0, 58, 27
1, 6174, Control_c, 0, 64, 81
1, 6189, Control_c, 0, 64, 65
1, 6193, Note_on_c, 0, 51, 59
1, 6203, Control_c, 0, 64, 59
1, 6218, Control_c, 0, 64, 59
1, 6233, Control_c, 0, 64, 62
1, 6248, Control_c, 0, 64, 67
1, 6263, Control_c, 0, 64, 75
1, 6278, Control_c, 0, 64, 89
1, 6293, Control_c, 0, 64, 127
1, 6308, Note_off_c, 0, 61, 53
1, 6349, Note_off_c, 0, 51, 63
1, 6580, Note_on_c, 0, 61, 45
1, 6597, Note_on_c, 0, 53, 30
1, 6728, Control_c, 0, 64, 82
1, 6743, Control_c, 0, 64, 63
1, 6751, Note_on_c, 0, 49, 56
1, 6758, Control_c, 0, 64, 49
1, 6773, Control_c, 0, 64, 48
1, 6788, Control_c, 0, 64, 53
1, 6801, Note_on_c, 0, 41, 7
1, 6802, Control_c, 0, 64, 61
1, 6817, Control_c, 0, 64, 67
1, 6832, Control_c, 0, 64, 76
1, 6846, Control_c, 0, 64, 91
1, 6861, Control_c, 0, 64, 127
1, 6952, Note_off_c, 0, 61, 37
1, 6952, Note_on_c, 0, 34, 37
1, 6976, Note_off_c, 0, 41, 40
1, 6979, Note_off_c, 0, 49, 34
1, 6995, Note_off_c, 0, 34, 50
1, 7000, Note_off_c, 0, 53, 42
1, 7041, Note_off_c, 0, 58, 31
1, 7043, Note_on_c, 0, 65, 37
1, 7045, Note_on_c, 0, 61, 52
1, 7108, Note_off_c, 0, 61, 58
1, 7130, Note_on_c, 0, 52, 51
1, 7183, Note_off_c, 0, 52, 62
1, 7294, Note_on_c, 0, 60, 76
1, 7319, Note_on_c, 0, 53, 41
1, 7321, Note_off_c, 0, 65, 11
1, 7366, Note_off_c, 0, 53, 50
1, 7389, Note_on_c, 0, 48, 67
1, 7434, Note_off_c, 0, 60, 59
1, 7467, Note_on_c, 0, 34, 67
1, 7483, Note_off_c, 0, 48, 62
1, 7500, Note_off_c, 0, 34, 63
1, 7542, Note_on_c, 0, 65, 71
1, 7543, Note_on_c, 0, 60, 73
1, 7569, Note_off_c, 0, 60, 68
1, 7619, Note_on_c, 0, 53, 73
1, 7654, Note_off_c, 0, 53, 65
1, 7670, Note_on_c, 0, 41, 62
1, 7699, Note_off_c, 0, 41, 65
1, 7747, Note_on_c, 0, 53, 81
1, 7749, Note_on_c, 0, 58, 85
1, 7804, Control_c, 0, 64, 115
1, 7815, Note_on_c, 0, 46, 91
1, 7819, Control_c, 0, 64, 110
1, 7821, Note_off_c, 0, 53, 60
1, 7834, Control_c, 0, 64, 127
1, 7837, Note_off_c, 0, 65, 33
1, 7837, Note_off_c, 0, 58, 61
1, 7901, Note_on_c, 0, 34, 81
1, 7920, Note_off_c, 0, 46, 55
1, 7952, Note_on_c, 0, 58, 95
1, 7952, Note_off_c, 0, 34, 62
1, 7957, Note_on_c, 0, 65, 80
1, 7980, Poly_aftertouch_c, 0, 40, 0
1, 8007, Note_off_c, 0, 58, 63
1, 8011, Poly_aftertouch_c, 0, 62, 0
1, 8025, Note_on_c, 0, 53, 98
1, 8063, Note_on_c, 0, 49, 35
1, 8068, Note_off_c, 0, 53, 66
1, 8087, Note_on_c, 0, 41, 59
1, 8099, Note_off_c, 0, 49, 53
1, 8116, Note_off_c, 0, 41, 64
1, 8156, Poly_aftertouch_c, 0, 48, 0
1, 8166, Note_on_c, 0, 56, 95
1, 8168, Note_on_c, 0, 53, 90
1, 8218, Note_off_c, 0, 53, 61
1, 8219, Note_on_c, 0, 44, 102
1, 8230, Note_off_c, 0, 56, 64
1, 8250, Note_off_c, 0, 65, 39
1, 8270, Poly_aftertouch_c, 0, 62, 127
1, 8310, Note_on_c, 0, 39, 23
1, 8320, Note_on_c, 0, 34, 86
1, 8321, Poly_aftertouch_c, 0, 63, 127
1, 8342, Note_off_c, 0, 44, 63
1, 8365, Note_off_c, 0, 39, 57
1, 8372, Note_on_c, 0, 56, 101
1, 8373, Poly_aftertouch_c, 0, 62, 0
1, 8376, Note_on_c, 0, 65, 82
1, 8378, Note_off_c, 0, 34, 62
1, 8398, Poly_aftertouch_c, 0, 63, 0
1, 8403, Note_off_c, 0, 65, 67
1, 8407, Note_off_c, 0, 56, 70
1, 8442, Note_on_c, 0, 53, 100
1, 8448, Note_on_c, 0, 44, 95
1, 8475, Note_off_c, 0, 53, 72
1, 8477, Note_on_c, 0, 46, 55
1, 8499, Note_off_c, 0, 46, 63
1, 8503, Note_on_c, 0, 41, 86
1, 8516, Note_off_c, 0, 44, 65
1, 8523, Note_off_c, 0, 41, 68
1, 8640, Poly_aftertouch_c, 0, 41, 127
1, 8657, Poly_aftertouch_c, 0, 53, 0
1, 8660, Poly_aftertouch_c, 0, 50, 127
1, 8664, Poly_aftertouch_c, 0, 41, 0
1, 8686, Control_c, 0, 64, 88
1, 8701, Note_on_c, 0, 54, 91
1, 8701, Control_c, 0, 64, 36
1, 8710, Note_on_c, 0, 42, 100
1, 8713, Poly_aftertouch_c, 0, 47, 127
1, 8716, Control_c, 0, 64, 0
1, 8727, Poly_aftertouch_c, 0, 50, 0
1, 8752, Poly_aftertouch_c, 0, 47, 0
1, 8754, Note_off_c, 0, 42, 66
1, 8758, Note_off_c, 0, 54, 66
1, 8761, Control_c, 0, 64, 9
1, 8765, Note_on_c, 0, 34, 107
1, 8773, Note_on_c, 0, 22, 69
1, 8776, Control_c, 0, 64, 64
1, 8783, Note_on_c, 0, 29, 18
1, 8790, Control_c, 0, 64, 93
1, 8802, Note_off_c, 0, 34, 67
1, 8803, Note_off_c, 0, 22, 59
1, 8805, Control_c, 0, 64, 127
1, 8818, Note_on_c, 0, 32, 5
1, 8830, Note_off_c, 0, 29, 51
1, 8874, Note_off_c, 0, 32, 46
1, 9054, Note_on_c, 0, 65, 99
1, 9060, Note_on_c, 0, 61, 84
1, 9062, Note_on_c, 0, 58, 85
1, 9065, Note_on_c, 0, 54, 74
1, 9082, Note_off_c, 0, 61, 70
1, 9083, Note_off_c, 0, 65, 65
1, 9088, Note_off_c, 0, 58, 67
1, 9095, Note_off_c, 0, 54, 63
1, 9125, Note_on_c, 0, 65, 95
1, 9126, Note_on_c, 0, 58, 99
1, 9129, Note_on_c, 0, 61, 90
1, 9151, Poly_aftertouch_c, 0, 54, 127
1, 9178, Note_on_c, 0, 64, 20
1, 9191, Note_on_c, 0, 87, 40
1, 9229, Note_off_c, 0, 64, 38
1, 9256, Note_off_c, 0, 87, 64
1, 9266, Note_off_c, 0, 65, 62
1, 9280, Poly_aftertouch_c, 0, 54, 0
1, 9281, Note_off_c, 0, 61, 61
1, 9284, Note_off_c, 0, 58, 63
1, 9309, Note_on_c, 0, 89, 95
1, 9311, Note_on_c, 0, 77, 103
1, 9312, Note_on_c, 0, 82, 103
1, 9339, Note_on_c, 0, 65, 80
1, 9342, Note_on_c, 0, 58, 70
1, 9342, Note_off_c, 0, 77, 66
1, 9344, Note_on_c, 0, 61, 69
1, 9345, Note_on_c, 0, 54, 66
1, 9346, Note_off_c, 0, 89, 66
1, 9356, Note_off_c, 0, 82, 64
1, 9381, Note_off_c, 0, 54, 63
1, 9385, Note_off_c, 0, 65, 57
1, 9403, Note_off_c, 0, 58, 61
1, 9409, Note_off_c, 0, 61, 57
1, 9479, Note_on_c, 0, 82, 108
1, 9482, Note_on_c, 0, 65, 89
1, 9482, Note_on_c, 0, 73, 107
1, 9482, Note_on_c, 0, 61, 86
1, 9482, Note_on_c, 0, 85, 94
1, 9494, Note_off_c, 0, 73, 72
1, 9496, Note_on_c, 0, 54, 61
1, 9496, Note_on_c, 0, 58, 71
1, 9497, Note_off_c, 0, 85, 75
1, 9512, Note_off_c, 0, 82, 60
1, 9521, Note_off_c, 0, 65, 64
1, 9543, Note_off_c, 0, 54, 57
1, 9567, Note_off_c, 0, 61, 55
1, 9605, Note_off_c, 0, 58, 51
1, 9630, Note_on_c, 0, 54, 56
1, 9636, Note_on_c, 0, 61, 51
1, 9673, Note_on_c, 0, 65, 89
1, 9699, Note_off_c, 0, 54, 63
1, 9720, Note_off_c, 0, 61, 62
1, 9735, Note_off_c, 0, 65, 63
1, 9766, Note_on_c, 0, 77, 85
1, 9775, Note_on_c, 0, 73, 82
1, 9776, Note_on_c, 0, 70, 87
1, 9818, Note_off_c, 0, 77, 61
1, 9834, Note_off_c, 0, 70, 60
1, 9850, Note_off_c, 0, 73, 58
1, 9865, Note_on_c, 0, 61, 72
1, 9866, Note_on_c, 0, 66, 80
1, 9896, Note_off_c, 0, 61, 58
1, 9952, Note_on_c, 0, 70, 49
1, 9953, Note_off_c, 0, 66, 62
1, 9974, Note_off_c, 0, 70, 0
1, 9981, Note_on_c, 0, 73, 61
1, 9992, Note_on_c, 0, 70, 66
1, 9997, Note_on_c, 0, 77, 85
1, 10022, Note_off_c, 0, 70, 66
1, 10040, Note_off_c, 0, 73, 65
1, 10051, Note_off_c, 0, 77, 63
1, 10053, Note_on_c, 0, 61, 76
1, 10067, Note_on_c, 0, 66, 69
1, 10080, Note_on_c, 0, 65, 23
1, 10103, Note_on_c, 0, 73, 81
1, 10108, Note_off_c, 0, 61, 62
1, 10110, Note_off_c, 0, 65, 55
1, 10115, Note_on_c, 0, 70, 78
1, 10115, Note_off_c, 0, 66, 62
1, 10141, Note_off_c, 0, 73, 61
1, 10142, Note_off_c, 0, 70, 67
1, 10171, Note_on_c, 0, 73, 85
1, 10179, Note_on_c, 0, 77, 91
1, 10180, Note_on_c, 0, 70, 87
1, 10204, Note_off_c, 0, 70, 62
1, 10228, Note_off_c, 0, 73, 64
1, 10231, Note_off_c, 0, 77, 63
1, 10252, Note_on_c, 0, 61, 78
1, 10254, Note_on_c, 0, 66, 87
1, 10280, Note_on_c, 0, 73, 82
1, 10281, Note_on_c, 0, 65, 28
1, 10289, Note_on_c, 0, 70, 84
1, 10311, Note_off_c, 0, 61, 53
1, 10311, Note_off_c, 0, 66, 62
1, 10317, Note_off_c, 0, 65, 51
1, 10317, Note_off_c, 0, 70, 62
1, 10318, Note_off_c, 0, 73, 63
1, 10356, Note_on_c, 0, 70, 83
1, 10357, Note_on_c, 0, 77, 95
1, 10358, Note_on_c, 0, 73, 78
1, 10395, Note_off_c, 0, 70, 66
1, 10408, Note_off_c, 0, 73, 65
1, 10431, Note_off_c, 0, 77, 62
1, 10435, Note_on_c, 0, 61, 95
1, 10443, Note_on_c, 0, 66, 88
1, 10449, Note_on_c, 0, 65, 61
1, 10463, Note_off_c, 0, 66, 71
1, 10469, Note_off_c, 0, 61, 62
1, 10469, Note_off_c, 0, 65, 62
1, 10470, Poly_aftertouch_c, 0, 69, 0
1, 10480, Note_on_c, 0, 73, 79
1, 10487, Note_on_c, 0, 70, 84
1, 10519, Note_off_c, 0, 73, 58
1, 10547, Note_on_c, 0, 77, 92
1, 10553, Note_on_c, 0, 73, 73
1, 10584, Note_off_c, 0, 70, 66
1, 10597, Note_off_c, 0, 73, 64
1, 10627, Note_on_c, 0, 73, 74
1, 10628, Note_off_c, 0, 77, 61
1, 10639, Note_on_c, 0, 70, 76
1, 10663, Note_on_c, 0, 66, 41
1, 10663, Note_off_c, 0, 70, 68
1, 10672, Note_off_c, 0, 73, 65
1, 10698, Note_off_c, 0, 66, 0
1, 10698, Note_on_c, 0, 66, 66
1, 10703, Note_on_c, 0, 73, 82
1, 10712, Note_on_c, 0, 70, 84
1, 10847, Note_off_c, 0, 66, 51
1, 10915, Note_on_c, 0, 65, 107
1, 10949, Note_off_c, 0, 70, 58
1, 10979, Note_off_c, 0, 73, 65
1, 11184, Note_on_c, 0, 64, 92
1, 11228, Note_off_c, 0, 65, 56
1, 11238, Note_on_c, 0, 70, 68
1, 11245, Note_on_c, 0, 73, 52
1, 11265, Note_off_c, 0, 70, 64
1, 11277, Note_off_c, 0, 73, 59
1, 11313, Note_on_c, 0, 73, 64
1, 11315, Note_on_c, 0, 70, 62
1, 11316, Note_on_c, 0, 66, 29
1, 11333, Note_on_c, 0, 77, 57
1, 11341, Note_off_c, 0, 70, 70
1, 11346, Note_off_c, 0, 66, 52
1, 11348, Note_off_c, 0, 73, 62
1, 11397, Note_on_c, 0, 73, 73
1, 11401, Note_off_c, 0, 77, 36
1, 11402, Note_on_c, 0, 63, 93
1, 11412, Note_on_c, 0, 70, 72
1, 11419, Note_off_c, 0, 64, 66
1, 11438, Note_off_c, 0, 70, 67
1, 11438, Note_off_c, 0, 73, 62
1, 11447, Note_on_c, 0, 66, 5
1, 11467, Note_off_c, 0, 63, 65
1, 11475, Note_off_c, 0, 66, 0
1, 11497, Note_on_c, 0, 66, 19
1, 11500, Note_on_c, 0, 70, 75
1, 11502, Note_on_c, 0, 73, 67
1, 11523, Note_off_c, 0, 70, 67
1, 11534, Note_off_c, 0, 73, 66
1, 11536, Note_off_c, 0, 66, 59
1, 11593, Note_on_c, 0, 66, 53
1, 11601, Note_on_c, 0, 73, 75
1, 11608, Note_on_c, 0, 70, 71
1, 11700, Note_off_c, 0, 66, 61
1, 11712, Note_off_c, 0, 70, 60
1, 11712, Note_off_c, 0, 73, 59
1, 11718, Note_on_c, 0, 61, 93
1, 11756, Control_c, 0, 64, 75
1, 11771, Control_c, 0, 64, 48
1, 11786, Control_c, 0, 64, 0
1, 11815, Control_c, 0, 64, 40
1, 11822, Note_on_c, 0, 66, 60
1, 11828, Note_on_c, 0, 70, 57
1, 11830, Control_c, 0, 64, 59
1, 11845, Control_c, 0, 64, 68
1, 11855, Note_on_c, 0, 73, 18
1, 11859, Note_off_c, 0, 66, 61
1, 11860, Note_off_c, 0, 70, 64
1, 11860, Control_c, 0, 64, 81
1, 11875, Control_c, 0, 64, 127
1, 11918, Poly_aftertouch_c, 0, 66, 0
1, 11927, Note_on_c, 0, 70, 44
1, 11938, Note_on_c, 0, 77, 50
1, 11948, Note_off_c, 0, 73, 58
1, 11958, Note_off_c, 0, 70, 52
1, 11986, Note_on_c, 0, 66, 65
1, 11991, Note_on_c, 0, 73, 57
1, 11997, Note_on_c, 0, 70, 56
1, 12009, Note_off_c, 0, 77, 60
1, 12025, Note_off_c, 0, 66, 57
1, 12031, Note_off_c, 0, 70, 64
1, 12034, Note_off_c, 0, 73, 62
1, 12108, Note_on_c, 0, 70, 65
1, 12109, Note_on_c, 0, 73, 42
1, 12118, Note_on_c, 0, 66, 28
1, 12133, Note_off_c, 0, 73, 59
1, 12138, Note_off_c, 0, 70, 66
1, 12144, Note_on_c, 0, 58, 86
1, 12147, Note_off_c, 0, 66, 56
1, 12214, Note_off_c, 0, 61, 60
1, 12381, Note_on_c, 0, 54, 86
1, 12463, Note_on_c, 0, 66, 53
1, 12463, Note_on_c, 0, 70, 54
1, 12465, Note_off_c, 0, 58, 59
1, 12490, Note_off_c, 0, 70, 64
1, 12494, Note_off_c, 0, 66, 55
1, 12519, Poly_aftertouch_c, 0, 73, 127
1, 12529, Note_on_c, 0, 73, 8
1, 12545, Note_on_c, 0, 70, 62
1, 12547, Note_on_c, 0, 66, 44
1, 12580, Note_off_c, 0, 70, 64
1, 12609, Note_off_c, 0, 66, 0
1, 12622, Note_on_c, 0, 77, 64
1, 12670, Note_off_c, 0, 73, 0
1, 12675, Poly_aftertouch_c, 0, 66, 0
1, 12687, Note_on_c, 0, 73, 39
1, 12694, Note_on_c, 0, 70, 7
1, 12708, Note_on_c, 0, 66, 4
1, 12718, Note_off_c, 0, 77, 63
1, 12739, Note_off_c, 0, 73, 65
1, 12746, Note_off_c, 0, 70, 62
1, 12774, Note_off_c, 0, 66, 0
1, 12774, Note_on_c, 0, 66, 6
1, 12815, Note_off_c, 0, 66, 59
1, 12949, Note_on_c, 0, 61, 56
1, 12975, Note_on_c, 0, 58, 20
1, 13003, Note_off_c, 0, 61, 0
1, 13027, Note_off_c, 0, 58, 0
1, 13027, Note_on_c, 0, 58, 18
1, 13040, Poly_aftertouch_c, 0, 61, 127
1, 13200, Note_on_c, 0, 53, 73
1, 13209, Control_c, 0, 64, 94
1, 13224, Control_c, 0, 64, 69
1, 13235, Note_off_c, 0, 54, 63
1, 13238, Control_c, 0, 64, 57
1, 13253, Control_c, 0, 64, 52
1, 13268, Control_c, 0, 64, 53
1, 13283, Control_c, 0, 64, 58
1, 13289, Poly_aftertouch_c, 0, 61, 0
1, 13297, Note_off_c, 0, 58, 42
1, 13298, Control_c, 0, 64, 63
1, 13299, Note_on_c, 0, 65, 51
1, 13313, Control_c, 0, 64, 67
1, 13328, Control_c, 0, 64, 72
1, 13343, Control_c, 0, 64, 77
1, 13358, Control_c, 0, 64, 84
1, 13373, Control_c, 0, 64, 91
1, 13387, Control_c, 0, 64, 102
1, 13388, Note_on_c, 0, 61, 47
1, 13394, Note_on_c, 0, 58, 43
1, 13402, Control_c, 0, 64, 114
1, 13425, Control_c, 0, 64, 127
1, 13431, Note_off_c, 0, 65, 59
1, 13471, Note_off_c, 0, 58, 63
1, 13501, Note_off_c, 0, 61, 61
1, 13567, Note_on_c, 0, 52, 71
1, 13569, Note_on_c, 0, 61, 50
1, 13587, Control_c, 0, 64, 82
1, 13595, Note_on_c, 0, 58, 46
1, 13602, Control_c, 0, 64, 67
1, 13607, Note_off_c, 0, 61, 64
1, 13617, Control_c, 0, 64, 63
1, 13619, Note_off_c, 0, 58, 56
1, 13632, Control_c, 0, 64, 63
1, 13647, Control_c, 0, 64, 65
1, 13656, Note_off_c, 0, 53, 63
1, 13662, Control_c, 0, 64, 71
1, 13676, Control_c, 0, 64, 79
1, 13680, Note_on_c, 0, 61, 57
1, 13691, Control_c, 0, 64, 92
1, 13706, Note_off_c, 0, 61, 62
1, 13706, Control_c, 0, 64, 108
1, 13712, Note_on_c, 0, 58, 29
1, 13721, Control_c, 0, 64, 127
1, 13776, Note_on_c, 0, 61, 68
1, 13784, Note_off_c, 0, 58, 0
1, 13784, Note_on_c, 0, 58, 2
1, 13826, Note_off_c, 0, 61, 57
1, 13838, Note_on_c, 0, 51, 77
1, 13879, Note_off_c, 0, 52, 64
1, 13903, Note_off_c, 0, 51, 65
1, 14080, Note_on_c, 0, 61, 57
1, 14087, Note_on_c, 0, 54, 52
1, 14174, Control_c, 0, 64, 119
1, 14186, Note_on_c, 0, 49, 64
1, 14189, Control_c, 0, 64, 74
1, 14196, Note_on_c, 0, 42, 59
1, 14204, Control_c, 0, 64, 58
1, 14218, Note_off_c, 0, 54, 61
1, 14218, Control_c, 0, 64, 44
1, 14233, Control_c, 0, 64, 46
1, 14237, Poly_aftertouch_c, 0, 63, 127
1, 14248, Control_c, 0, 64, 55
1, 14263, Control_c, 0, 64, 64
1, 14278, Control_c, 0, 64, 70
1, 14292, Control_c, 0, 64, 82
1, 14307, Control_c, 0, 64, 105
1, 14318, Note_on_c, 0, 34, 52
1, 14322, Control_c, 0, 64, 127
1, 14335, Note_off_c, 0, 49, 62
1, 14347, Poly_aftertouch_c, 0, 63, 0
1, 14352, Note_off_c, 0, 42, 60
1, 14353, Note_off_c, 0, 34, 61
1, 14359, Note_off_c, 0, 61, 59
1, 14386, Note_off_c, 0, 58, 33
1, 14412, Note_on_c, 0, 65, 58
1, 14421, Note_on_c, 0, 61, 56
1, 14486, Note_on_c, 0, 53, 67
1, 14500, Note_off_c, 0, 61, 58
1, 14523, Note_on_c, 0, 49, 44
1, 14532, Note_off_c, 0, 53, 60
1, 14545, Note_on_c, 0, 41, 57
1, 14553, Note_off_c, 0, 49, 61
1, 14586, Note_off_c, 0, 41, 64
1, 14605, Poly_aftertouch_c, 0, 64, 127
1, 14629, Note_on_c, 0, 54, 82
1, 14634, Note_on_c, 0, 60, 78
1, 14657, Poly_aftertouch_c, 0, 64, 0
1, 14676, Note_off_c, 0, 65, 41
1, 14699, Note_on_c, 0, 48, 78
1, 14701, Note_off_c, 0, 54, 63
1, 14726, Note_off_c, 0, 60, 59
1, 14776, Note_on_c, 0, 34, 77
1, 14798, Note_off_c, 0, 48, 62
1, 14803, Poly_aftertouch_c, 0, 39, 127
1, 14812, Note_off_c, 0, 34, 64
1, 14839, Poly_aftertouch_c, 0, 39, 0
1, 14841, Note_on_c, 0, 60, 85
1, 14844, Poly_aftertouch_c, 0, 62, 0
1, 14846, Note_on_c, 0, 65, 82
1, 14860, Poly_aftertouch_c, 0, 62, 0
1, 14876, Note_off_c, 0, 60, 65
1, 14894, Poly_aftertouch_c, 0, 62, 0
1, 14914, Note_on_c, 0, 53, 91
1, 14924, Note_on_c, 0, 49, 73
1, 14928, Note_on_c, 0, 62, 17
1, 14956, Note_off_c, 0, 53, 64
1, 14967, Note_on_c, 0, 41, 78
1, 14979, Note_off_c, 0, 49, 63
1, 15002, Note_off_c, 0, 41, 66
1, 15038, Note_on_c, 0, 54, 95
1, 15044, Note_on_c, 0, 58, 86
1, 15055, Control_c, 0, 64, 80
1, 15060, Poly_aftertouch_c, 0, 64, 127
1, 15070, Control_c, 0, 64, 61
1, 15085, Control_c, 0, 64, 59
1, 15087, Poly_aftertouch_c, 0, 64, 0
1, 15093, Note_on_c, 0, 46, 99
1, 15099, Note_off_c, 0, 54, 64
1, 15100, Control_c, 0, 64, 63
1, 15112, Note_off_c, 0, 65, 25
1, 15114, Control_c, 0, 64, 72
1, 15126, Note_off_c, 0, 58, 61
1, 15129, Control_c, 0, 64, 114
1, 15144, Control_c, 0, 64, 127
1, 15152, Note_on_c, 0, 47, 5
1, 15194, Note_on_c, 0, 34, 86
1, 15201, Note_off_c, 0, 46, 62
1, 15206, Note_off_c, 0, 47, 36
1, 15230, Note_off_c, 0, 34, 65
1, 15233, Note_on_c, 0, 58, 100
1, 15238, Note_on_c, 0, 65, 85
1, 15239, Note_off_c, 0, 62, 37
1, 15295, Note_off_c, 0, 58, 62
1, 15304, Note_on_c, 0, 53, 102
1, 15314, Note_on_c, 0, 49, 87
1, 15343, Note_off_c, 0, 53, 68
1, 15353, Note_on_c, 0, 41, 84
1, 15367, Note_off_c, 0, 49, 64
1, 15386, Note_off_c, 0, 65, 53
1, 15387, Note_off_c, 0, 41, 67
1, 15447, Note_on_c, 0, 57, 94
1, 15447, Note_on_c, 0, 53, 98
1, 15470, Control_c, 0, 64, 81
1, 15485, Control_c, 0, 64, 56
1, 15495, Note_on_c, 0, 45, 100
1, 15498, Note_off_c, 0, 53, 64
1, 15499, Control_c, 0, 64, 33
1, 15513, Note_on_c, 0, 41, 57
1, 15514, Control_c, 0, 64, 45
1, 15529, Control_c, 0, 64, 61
1, 15544, Control_c, 0, 64, 76
1, 15546, Note_on_c, 0, 37, 19
1, 15556, Note_off_c, 0, 57, 55
1, 15558, Control_c, 0, 64, 127
1, 15597, Poly_aftertouch_c, 0, 62, 127
1, 15602, Note_on_c, 0, 34, 93
1, 15604, Note_off_c, 0, 37, 45
1, 15613, Note_off_c, 0, 45, 63
1, 15629, Poly_aftertouch_c, 0, 62, 0
1, 15635, Note_on_c, 0, 57, 105
1, 15635, Note_on_c, 0, 65, 94
1, 15640, Note_off_c, 0, 41, 64
1, 15658, Note_off_c, 0, 34, 64
1, 15677, Note_off_c, 0, 57, 72
1, 15683, Note_off_c, 0, 65, 65
1, 15734, Note_on_c, 0, 53, 104
1, 15736, Note_on_c, 0, 45, 92
1, 15786, Note_off_c, 0, 53, 68
1, 15792, Note_off_c, 0, 45, 65
1, 15793, Note_on_c, 0, 41, 82
1, 15807, Note_on_c, 0, 46, 3
1, 15808, Note_off_c, 0, 46, 127
1, 15826, Note_off_c, 0, 41, 66
1, 15846, Poly_aftertouch_c, 0, 46, 0
1, 15878, Control_c, 0, 64, 74
1, 15879, Note_on_c, 0, 52, 35
1, 15893, Control_c, 0, 64, 0
1, 15955, Note_off_c, 0, 52, 0
1, 15955, Note_on_c, 0, 52, 7
1, 16085, Note_on_c, 0, 56, 85
1, 16094, Note_on_c, 0, 44, 106
1, 16105, Note_on_c, 0, 50, 27
1, 16115, Note_on_c, 0, 43, 72
1, 16123, Note_on_c, 0, 54, 43
1, 16123, Note_off_c, 0, 52, 45
1, 16136, Note_off_c, 0, 43, 63
1, 16137, Note_on_c, 0, 49, 32
1, 16138, Note_off_c, 0, 49, 127
1, 16141, Note_off_c, 0, 50, 50
1, 16142, Note_off_c, 0, 44, 65
1, 16143, Note_off_c, 0, 56, 67
1, 16144, Note_on_c, 0, 34, 107
1, 16145, Control_c, 0, 64, 127
1, 16153, Note_off_c, 0, 54, 56
1, 16165, Note_on_c, 0, 23, 64
1, 16166, Note_off_c, 0, 23, 127
1, 16172, Note_on_c, 0, 35, 59
1, 16180, Note_off_c, 0, 34, 63
1, 16203, Poly_aftertouch_c, 0, 23, 0
1, 16205, Note_off_c, 0, 35, 57
1, 16220, Poly_aftertouch_c, 0, 29, 127
1, 16257, Poly_aftertouch_c, 0, 29, 0
1, 16284, Poly_aftertouch_c, 0, 36, 0
1, 16466, Note_on_c, 0, 65, 98
1, 16473, Note_on_c, 0, 53, 78
1, 16495, Note_off_c, 0, 65, 63
1, 16497, Note_on_c, 0, 56, 46
1, 16501, Note_off_c, 0, 53, 65
1, 16504, Note_on_c, 0, 62, 48
1, 16514, Note_off_c, 0, 56, 66
1, 16515, Note_on_c, 0, 63, 8
1, 16532, Note_off_c, 0, 62, 0
1, 16532, Note_on_c, 0, 62, 69
1, 16538, Note_on_c, 0, 65, 97
1, 16545, Note_on_c, 0, 53, 88
1, 16550, Note_on_c, 0, 56, 90
1, 16550, Note_on_c, 0, 58, 83
1, 16568, Note_off_c, 0, 63, 35
1, 16723, Note_off_c, 0, 65, 53
1, 16748, Note_off_c, 0, 53, 60
1, 16752, Note_off_c, 0, 58, 61
1, 16760, Note_off_c, 0, 62, 56
1, 16800, Note_on_c, 0, 62, 73
1, 16804, Note_on_c, 0, 58, 76
1, 16806, Note_on_c, 0, 65, 90
1, 16807, Note_on_c, 0, 77, 111
1, 16807, Note_on_c, 0, 82, 110
1, 16809, Note_on_c, 0, 89, 102
1, 16815, Note_on_c, 0, 53, 48
1, 16834, Note_off_c, 0, 89, 64
1, 16835, Note_off_c, 0, 82, 63
1, 16836, Note_off_c, 0, 77, 69
1, 16843, Note_off_c, 0, 53, 63
1, 16869, Note_off_c, 0, 56, 23
1, 16884, Note_off_c, 0, 65, 41
1, 16938, Note_off_c, 0, 58, 53
1, 16972, Note_off_c, 0, 62, 50
1, 17018, Note_on_c, 0, 62, 71
1, 17021, Note_on_c, 0, 53, 67
1, 17021, Note_on_c, 0, 65, 94
1, 17023, Note_on_c, 0, 74, 106
1, 17023, Note_on_c, 0, 82, 112
1, 17023, Note_on_c, 0, 86, 98
1, 17029, Note_on_c, 0, 58, 85
1, 17038, Note_off_c, 0, 74, 73
1, 17038, Note_off_c, 0, 86, 76
1, 17049, Note_off_c, 0, 82, 68
1, 17116, Note_off_c, 0, 65, 55
1, 17120, Note_off_c, 0, 53, 0
1, 17125, Note_off_c, 0, 58, 62
1, 17128, Note_off_c, 0, 62, 57
1, 17164, Poly_aftertouch_c, 0, 53, 127
1, 17236, Note_on_c, 0, 53, 13
1, 17257, Note_on_c, 0, 58, 83
1, 17262, Note_on_c, 0, 62, 85
1, 17266, Note_on_c, 0, 65, 93
1, 17307, Note_off_c, 0, 53, 63
1, 17332, Note_off_c, 0, 58, 63
1, 17336, Note_off_c, 0, 65, 62
1, 17349, Note_off_c, 0, 62, 64
1, 17388, Note_on_c, 0, 74, 89
1, 17392, Note_on_c, 0, 70, 92
1, 17396, Note_on_c, 0, 77, 83
1, 17436, Note_off_c, 0, 74, 62
1, 17443, Note_off_c, 0, 70, 63
1, 17447, Note_off_c, 0, 77, 61
1, 17529, Note_on_c, 0, 62, 92
1, 17530, Note_on_c, 0, 70, 105
1, 17532, Note_on_c, 0, 65, 52
1, 17555, Note_on_c, 0, 68, 55
1, 17556, Note_off_c, 0, 68, 127
1, 17563, Note_off_c, 0, 70, 70
1, 17566, Note_off_c, 0, 62, 67
1, 17573, Note_off_c, 0, 65, 65
1, 17581, Poly_aftertouch_c, 0, 68, 0
1, 17623, Note_on_c, 0, 74, 85
1, 17638, Note_on_c, 0, 70, 74
1, 17662, Note_off_c, 0, 70, 63
1, 17679, Note_off_c, 0, 74, 64
1, 17713, Note_on_c, 0, 77, 89
1, 17718, Note_on_c, 0, 70, 72
1, 17739, Note_off_c, 0, 70, 72
1, 17788, Note_on_c, 0, 74, 89
1, 17799, Note_on_c, 0, 70, 83
1, 17799, Note_off_c, 0, 77, 62
1, 17820, Note_off_c, 0, 70, 71
1, 17829, Note_off_c, 0, 74, 65
1, 17868, Note_on_c, 0, 74, 88
1, 17875, Note_on_c, 0, 70, 96
1, 17916, Note_off_c, 0, 74, 66
1, 17921, Note_off_c, 0, 70, 67
1, 17967, Note_on_c, 0, 65, 102
1, 18046, Note_on_c, 0, 74, 80
1, 18052, Note_on_c, 0, 70, 68
1, 18053, Note_off_c, 0, 70, 127
1, 18065, Note_off_c, 0, 74, 71
1, 18112, Note_on_c, 0, 74, 83
1, 18118, Note_on_c, 0, 70, 74
1, 18145, Note_off_c, 0, 70, 62
1, 18159, Note_off_c, 0, 74, 63
1, 18205, Note_on_c, 0, 64, 101
1, 18230, Note_off_c, 0, 65, 65
1, 18261, Note_on_c, 0, 77, 93
1, 18331, Note_on_c, 0, 74, 83
1, 18336, Note_on_c, 0, 70, 80
1, 18339, Note_off_c, 0, 77, 64
1, 18362, Note_off_c, 0, 70, 67
1, 18376, Note_off_c, 0, 74, 63
1, 18399, Note_on_c, 0, 65, 2
1, 18409, Note_on_c, 0, 74, 76
1, 18413, Note_on_c, 0, 70, 79
1, 18428, Note_off_c, 0, 65, 59
1, 18431, Note_off_c, 0, 74, 69
1, 18434, Note_off_c, 0, 70, 71
1, 18437, Note_off_c, 0, 64, 0
1, 18445, Note_on_c, 0, 63, 99
1, 18452, Poly_aftertouch_c, 0, 64, 0
1, 18540, Note_on_c, 0, 74, 77
1, 18550, Note_on_c, 0, 65, 54
1, 18563, Note_on_c, 0, 70, 30
1, 18563, Note_off_c, 0, 74, 62
1, 18569, Note_off_c, 0, 65, 63
1, 18584, Note_off_c, 0, 70, 63
1, 18637, Poly_aftertouch_c, 0, 74, 127
1, 18658, Note_on_c, 0, 70, 49
1, 18809, Note_off_c, 0, 63, 62
1, 18816, Note_on_c, 0, 62, 88
1, 18842, Control_c, 0, 64, 115
1, 18857, Control_c, 0, 64, 68
1, 18866, Poly_aftertouch_c, 0, 74, 0
1, 18871, Note_on_c, 0, 77, 79
1, 18872, Control_c, 0, 64, 27
1, 18887, Control_c, 0, 64, 0
1, 18899, Note_off_c, 0, 70, 62
1, 18917, Control_c, 0, 64, 48
1, 18931, Control_c, 0, 64, 64
1, 18946, Control_c, 0, 64, 75
1, 18962, Control_c, 0, 64, 106
1, 18971, Note_on_c, 0, 74, 70
1, 18972, Note_on_c, 0, 65, 65
1, 18972, Note_on_c, 0, 70, 61
1, 18977, Control_c, 0, 64, 127
1, 18982, Note_off_c, 0, 77, 61
1, 19002, Note_off_c, 0, 74, 63
1, 19003, Note_off_c, 0, 65, 66
1, 19007, Note_off_c, 0, 70, 63
1, 19065, Note_on_c, 0, 74, 72
1, 19075, Note_on_c, 0, 70, 60
1, 19088, Note_off_c, 0, 74, 69
1, 19101, Note_off_c, 0, 70, 65
1, 19159, Poly_aftertouch_c, 0, 65, 0
1, 19305, Note_on_c, 0, 58, 75
1, 19389, Note_on_c, 0, 65, 66
1, 19408, Note_off_c, 0, 62, 58
1, 19418, Note_on_c, 0, 70, 34
1, 19424, Note_off_c, 0, 65, 66
1, 19468, Poly_aftertouch_c, 0, 76, 127
1, 19469, Poly_aftertouch_c, 0, 74, 127
1, 19473, Note_off_c, 0, 70, 0
1, 19484, Note_on_c, 0, 70, 52
1, 19506, Note_on_c, 0, 65, 15
1, 19540, Note_off_c, 0, 65, 49
1, 19543, Poly_aftertouch_c, 0, 76, 0
1, 19567, Note_on_c, 0, 53, 74
1, 19569, Note_off_c, 0, 58, 63
1, 19592, Poly_aftertouch_c, 0, 74, 0
1, 19604, Note_off_c, 0, 53, 64
1, 19637, Note_on_c, 0, 77, 89
1, 19659, Note_on_c, 0, 65, 41
1, 19680, Note_off_c, 0, 70, 56
1, 19686, Note_off_c, 0, 65, 56
1, 19750, Note_on_c, 0, 74, 69
1, 19761, Note_on_c, 0, 70, 43
1, 19764, Note_on_c, 0, 65, 61
1, 19794, Note_off_c, 0, 74, 59
1, 19796, Note_off_c, 0, 65, 66
1, 19796, Note_off_c, 0, 70, 64
1, 19799, Note_off_c, 0, 77, 53
1, 19824, Note_on_c, 0, 74, 68
1, 19849, Note_on_c, 0, 70, 66
1, 19865, Poly_aftertouch_c, 0, 65, 0
1, 19892, Note_off_c, 0, 70, 56
1, 19896, Note_off_c, 0, 74, 64
1, 19945, Note_on_c, 0, 34, 82
1, 19945, Note_on_c, 0, 41, 85
1, 20100, Note_on_c, 0, 46, 96
1, 20121, Note_off_c, 0, 34, 59
1, 20123, Note_off_c, 0, 41, 64
1, 20153, Note_off_c, 0, 46, 66
1, 20367, Note_on_c, 0, 50, 81
1, 20429, Note_on_c, 0, 74, 94
1, 20432, Note_on_c, 0, 80, 94
1, 20432, Note_on_c, 0, 83, 92
1, 20436, Note_on_c, 0, 71, 95
1, 20444, Control_c, 0, 64, 74
1, 20459, Control_c, 0, 64, 0
1, 20503, Control_c, 0, 64, 12
1, 20518, Control_c, 0, 64, 59
1, 20533, Control_c, 0, 64, 71
1, 20549, Control_c, 0, 64, 97
1, 20564, Control_c, 0, 64, 127
1, 20621, Note_on_c, 0, 53, 87
1, 20647, Note_off_c, 0, 50, 63
1, 20716, Note_off_c, 0, 83, 61
1, 20723, Note_off_c, 0, 80, 62
1, 20729, Note_on_c, 0, 56, 97
1, 20742, Note_off_c, 0, 53, 64
1, 20755, Note_off_c, 0, 71, 61
1, 20765, Note_off_c, 0, 74, 52
1, 20825, Note_off_c, 0, 56, 63
1, 20839, Note_on_c, 0, 61, 90
1, 20900, Note_off_c, 0, 61, 63
1, 20965, Note_on_c, 0, 82, 89
1, 20970, Note_on_c, 0, 74, 70
1, 20971, Note_on_c, 0, 70, 95
1, 20971, Control_c, 0, 64, 81
1, 20986, Control_c, 0, 64, 66
1, 21001, Control_c, 0, 64, 64
1, 21009, Note_on_c, 0, 62, 71
1, 21015, Control_c, 0, 64, 68
1, 21030, Control_c, 0, 64, 82
1, 21045, Control_c, 0, 64, 127
1, 21119, Note_off_c, 0, 70, 63
1, 21138, Note_off_c, 0, 82, 63
1, 21143, Note_on_c, 0, 65, 94
1, 21176, Note_off_c, 0, 74, 52
1, 21191, Note_off_c, 0, 62, 61
1, 21340, Note_on_c, 0, 71, 73
1, 21365, Note_on_c, 0, 80, 89
1, 21367, Note_on_c, 0, 74, 34
1, 21370, Note_on_c, 0, 62, 70
1, 21371, Control_c, 0, 64, 71
1, 21386, Control_c, 0, 64, 0
1, 21394, Note_on_c, 0, 73, 34
1, 21403, Note_off_c, 0, 65, 62
1, 21428, Note_off_c, 0, 73, 32
1, 21438, Poly_aftertouch_c, 0, 77, 127
1, 21445, Control_c, 0, 64, 35
1, 21460, Control_c, 0, 64, 60
1, 21475, Control_c, 0, 64, 67
1, 21489, Control_c, 0, 64, 78
1, 21504, Control_c, 0, 64, 92
1, 21519, Control_c, 0, 64, 115
1, 21534, Control_c, 0, 64, 127
1, 21615, Note_off_c, 0, 74, 61
1, 21623, Note_on_c, 0, 70, 82
1, 21659, Note_off_c, 0, 62, 64
1, 21659, Poly_aftertouch_c, 0, 77, 0
1, 21684, Note_off_c, 0, 71, 63
1, 21742, Note_off_c, 0, 70, 64
1, 21827, Note_off_c, 0, 80, 55
1, 22046, Note_on_c, 0, 69, 48
1, 22056, Note_on_c, 0, 61, 47
1, 22074, Control_c, 0, 64, 92
1, 22089, Note_on_c, 0, 77, 42
1, 22089, Control_c, 0, 64, 68
1, 22093, Note_on_c, 0, 80, 76
1, 22104, Control_c, 0, 64, 60
1, 22119, Control_c, 0, 64, 62
1, 22123, Note_on_c, 0, 73, 48
1, 22132, Note_on_c, 0, 68, 39
1, 22134, Control_c, 0, 64, 68
1, 22150, Control_c, 0, 64, 84
1, 22151, Note_off_c, 0, 69, 64
1, 22164, Control_c, 0, 64, 127
1, 22179, Note_off_c, 0, 61, 62
1, 22346, Note_off_c, 0, 77, 60
1, 22349, Note_off_c, 0, 80, 62
1, 22379, Note_off_c, 0, 73, 59
1, 22386, Note_off_c, 0, 68, 44
1, 22798, Note_on_c, 0, 42, 30
1, 22823, Note_on_c, 0, 30, 46
1, 22838, Note_on_c, 0, 49, 56
1, 22861, Note_off_c, 0, 30, 58
1, 22889, Note_off_c, 0, 42, 61
1, 22910, Note_off_c, 0, 49, 63
1, 23123, Note_on_c, 0, 56, 64
1, 23226, Note_off_c, 0, 56, 63
1, 23228, Note_on_c, 0, 57, 75
1, 23302, Note_off_c, 0, 57, 65
1, 23323, Note_on_c, 0, 61, 79
1, 23364, Note_off_c, 0, 61, 60
1, 23453, Note_on_c, 0, 69, 73
1, 23475, Note_off_c, 0, 69, 64
1, 23515, Note_on_c, 0, 78, 87
1, 23528, Note_on_c, 0, 72, 68
1, 23595, Note_on_c, 0, 76, 26
1, 23675, Note_on_c, 0, 66, 15
1, 23717, Note_off_c, 0, 66, 42
1, 23719, Note_off_c, 0, 78, 63
1, 23773, Note_off_c, 0, 76, 37
1, 23821, Note_on_c, 0, 77, 83
1, 23836, Note_on_c, 0, 73, 55
1, 23957, Note_on_c, 0, 65, 42
1, 24026, Control_c, 0, 64, 75
1, 24041, Control_c, 0, 64, 54
1, 24049, Note_on_c, 0, 43, 58
1, 24056, Control_c, 0, 64, 34
1, 24070, Control_c, 0, 64, 40
1, 24077, Note_off_c, 0, 73, 62
1, 24085, Control_c, 0, 64, 52
1, 24100, Control_c, 0, 64, 64
1, 24115, Control_c, 0, 64, 74
1, 24130, Control_c, 0, 64, 101
1, 24134, Note_off_c, 0, 77, 63
1, 24144, Control_c, 0, 64, 127
1, 24157, Note_off_c, 0, 43, 60
1, 24203, Note_on_c, 0, 53, 61
1, 24431, Note_on_c, 0, 61, 49
1, 24455, Control_c, 0, 64, 112
1, 24470, Control_c, 0, 64, 70
1, 24485, Control_c, 0, 64, 58
1, 24500, Control_c, 0, 64, 55
1, 24512, Note_on_c, 0, 76, 66
1, 24515, Control_c, 0, 64, 59
1, 24530, Control_c, 0, 64, 64
1, 24545, Control_c, 0, 64, 71
1, 24560, Control_c, 0, 64, 88
1, 24563, Note_on_c, 0, 73, 39
1, 24575, Control_c, 0, 64, 127
1, 24616, Note_off_c, 0, 65, 59
1, 24689, Note_off_c, 0, 73, 60
1, 24693, Note_off_c, 0, 72, 63
1, 24709, Note_off_c, 0, 61, 34
1, 24750, Note_off_c, 0, 76, 63
1, 24753, Note_on_c, 0, 64, 55
1, 24754, Note_off_c, 0, 53, 35
1, 24762, Note_on_c, 0, 60, 44
1, 24785, Note_off_c, 0, 64, 65
1, 24807, Note_off_c, 0, 60, 54
1, 24896, Note_on_c, 0, 63, 54
1, 24905, Note_on_c, 0, 53, 44
1, 24945, Note_off_c, 0, 63, 56
1, 25007, Note_off_c, 0, 53, 52
1, 25016, Note_on_c, 0, 75, 70
1, 25024, Note_on_c, 0, 45, 14
1, 25067, Note_off_c, 0, 45, 53
1, 25101, Note_off_c, 0, 75, 55
1, 25131, Poly_aftertouch_c, 0, 72, 0
1, 25314, Note_on_c, 0, 34, 42
1, 25368, Control_c, 0, 64, 113
1, 25383, Control_c, 0, 64, 72
1, 25404, Control_c, 0, 64, 52
1, 25408, Note_on_c, 0, 75, 56
1, 25419, Control_c, 0, 64, 47
1, 25434, Control_c, 0, 64, 52
1, 25448, Poly_aftertouch_c, 0, 69, 127
1, 25448, Control_c, 0, 64, 61
1, 25456, Note_on_c, 0, 72, 36
1, 25463, Control_c, 0, 64, 69
1, 25478, Control_c, 0, 64, 83
1, 25493, Control_c, 0, 64, 127
1, 25504, Note_off_c, 0, 34, 50
1, 25651, Note_on_c, 0, 63, 44
1, 25687, Note_off_c, 0, 75, 61
1, 25700, Note_off_c, 0, 63, 60
1, 25712, Note_on_c, 0, 54, 36
1, 25712, Poly_aftertouch_c, 0, 68, 127
1, 25842, Note_on_c, 0, 74, 62
1, 25843, Note_on_c, 0, 70, 40
1, 25850, Note_on_c, 0, 66, 47
1, 25886, Note_off_c, 0, 54, 37
1, 25899, Note_off_c, 0, 66, 61
1, 25943, Note_on_c, 0, 54, 20
1, 25985, Note_off_c, 0, 54, 44
1, 25997, Poly_aftertouch_c, 0, 69, 0
1, 26004, Note_on_c, 0, 62, 53
1, 26018, Poly_aftertouch_c, 0, 68, 0
1, 26161, Note_on_c, 0, 45, 54
1, 26198, Control_c, 0, 64, 80
1, 26213, Control_c, 0, 64, 60
1, 26227, Control_c, 0, 64, 32
1, 26242, Control_c, 0, 64, 27
1, 26257, Control_c, 0, 64, 36
1, 26271, Control_c, 0, 64, 54
1, 26286, Control_c, 0, 64, 63
1, 26298, Note_on_c, 0, 66, 65
1, 26301, Control_c, 0, 64, 68
1, 26311, Note_off_c, 0, 70, 49
1, 26316, Control_c, 0, 64, 79
1, 26326, Note_off_c, 0, 45, 64
1, 26331, Control_c, 0, 64, 113
1, 26345, Control_c, 0, 64, 127
1, 26398, Note_off_c, 0, 62, 64
1, 26420, Note_off_c, 0, 74, 64
1, 26464, Note_off_c, 0, 72, 54
1, 26523, Note_off_c, 0, 66, 61
1, 26525, Note_on_c, 0, 53, 52
1, 26568, Note_on_c, 0, 63, 56
1, 26611, Note_off_c, 0, 53, 61
1, 26700, Note_off_c, 0, 63, 60
1, 26706, Note_on_c, 0, 65, 49
1, 26711, Note_on_c, 0, 75, 66
1, 26729, Note_on_c, 0, 72, 56
1, 26751, Note_off_c, 0, 65, 64
1, 26777, Note_on_c, 0, 53, 39
1, 26804, Note_off_c, 0, 53, 56
1, 26841, Note_off_c, 0, 72, 56
1, 26848, Note_on_c, 0, 63, 55
1, 26896, Note_off_c, 0, 75, 54
1, 27006, Control_c, 0, 64, 109
1, 27021, Note_on_c, 0, 34, 52
1, 27021, Control_c, 0, 64, 70
1, 27028, Note_on_c, 0, 75, 66
1, 27035, Control_c, 0, 64, 54
1, 27050, Control_c, 0, 64, 49
1, 27059, Note_off_c, 0, 63, 54
1, 27061, Note_on_c, 0, 72, 47
1, 27065, Control_c, 0, 64, 52
1, 27080, Control_c, 0, 64, 60
1, 27094, Control_c, 0, 64, 68
1, 27108, Note_off_c, 0, 34, 61
1, 27109, Control_c, 0, 64, 82
1, 27124, Control_c, 0, 64, 127
1, 27185, Note_on_c, 0, 63, 64
1, 27202, Poly_aftertouch_c, 0, 69, 127
1, 27218, Poly_aftertouch_c, 0, 68, 127
1, 27261, Note_off_c, 0, 63, 59
1, 27261, Note_off_c, 0, 75, 62
1, 27343, Note_on_c, 0, 70, 51
1, 27344, Note_on_c, 0, 74, 70
1, 27371, Note_on_c, 0, 66, 50
1, 27425, Note_off_c, 0, 66, 55
1, 27453, Note_on_c, 0, 54, 10
1, 27473, Poly_aftertouch_c, 0, 69, 0
1, 27486, Note_on_c, 0, 62, 50
1, 27497, Note_off_c, 0, 54, 53
1, 27502, Poly_aftertouch_c, 0, 68, 0
1, 27651, Control_c, 0, 64, 94
1, 27663, Note_on_c, 0, 44, 63
1, 27666, Control_c, 0, 64, 67
1, 27681, Control_c, 0, 64, 53
1, 27689, Note_on_c, 0, 66, 67
1, 27710, Control_c, 0, 64, 58
1, 27725, Control_c, 0, 64, 66
1, 27728, Note_off_c, 0, 44, 62
1, 27736, Note_off_c, 0, 62, 57
1, 27740, Control_c, 0, 64, 77
1, 27755, Control_c, 0, 64, 116
1, 27770, Control_c, 0, 64, 127
1, 27796, Note_off_c, 0, 70, 52
1, 27812, Note_off_c, 0, 72, 61
1, 27849, Note_off_c, 0, 74, 61
1, 27863, Note_on_c, 0, 53, 50
1, 27866, Note_on_c, 0, 62, 43
1, 27907, Note_off_c, 0, 66, 55
1, 27908, Note_off_c, 0, 53, 57
1, 27918, Note_off_c, 0, 62, 53
1, 27954, Note_on_c, 0, 65, 56
1, 27961, Note_on_c, 0, 74, 79
1, 27965, Note_on_c, 0, 71, 67
1, 28005, Note_off_c, 0, 65, 61
1, 28058, Note_off_c, 0, 71, 63
1, 28077, Note_off_c, 0, 74, 63
1, 28107, Note_on_c, 0, 62, 63
1, 28110, Poly_aftertouch_c, 0, 53, 0
1, 28322, Note_on_c, 0, 33, 51
1, 28354, Note_on_c, 0, 74, 65
1, 28375, Note_on_c, 0, 70, 54
1, 28376, Control_c, 0, 64, 76
1, 28398, Control_c, 0, 64, 55
1, 28413, Control_c, 0, 64, 19
1, 28428, Control_c, 0, 64, 22
1, 28439, Note_off_c, 0, 62, 63
1, 28442, Control_c, 0, 64, 37
1, 28457, Control_c, 0, 64, 56
1, 28465, Note_off_c, 0, 33, 63
1, 28472, Control_c, 0, 64, 66
1, 28487, Control_c, 0, 64, 74
1, 28502, Control_c, 0, 64, 90
1, 28516, Control_c, 0, 64, 125
1, 28527, Note_off_c, 0, 70, 60
1, 28531, Control_c, 0, 64, 127
1, 28579, Note_off_c, 0, 74, 64
1, 28602, Note_on_c, 0, 62, 24
1, 28638, Poly_aftertouch_c, 0, 67, 127
1, 28639, Note_off_c, 0, 62, 52
1, 28677, Poly_aftertouch_c, 0, 67, 0
1, 28700, Note_on_c, 0, 53, 35
1, 28739, Note_off_c, 0, 53, 59
1, 28748, Note_on_c, 0, 69, 39
1, 28761, Note_on_c, 0, 73, 59
1, 28805, Note_on_c, 0, 65, 52
1, 28845, Note_off_c, 0, 65, 65
1, 28897, Note_on_c, 0, 61, 50
1, 29051, Note_off_c, 0, 61, 57
1, 29051, Control_c, 0, 64, 93
1, 29054, Note_on_c, 0, 65, 50
1, 29064, Note_on_c, 0, 44, 52
1, 29065, Control_c, 0, 64, 68
1, 29080, Control_c, 0, 64, 58
1, 29082, Poly_aftertouch_c, 0, 71, 127
1, 29095, Control_c, 0, 64, 58
1, 29110, Control_c, 0, 64, 62
1, 29125, Control_c, 0, 64, 66
1, 29147, Control_c, 0, 64, 71
1, 29154, Note_off_c, 0, 44, 63
1, 29162, Control_c, 0, 64, 77
1, 29163, Note_off_c, 0, 73, 65
1, 29177, Control_c, 0, 64, 84
1, 29182, Note_off_c, 0, 69, 54
1, 29189, Poly_aftertouch_c, 0, 71, 0
1, 29191, Control_c, 0, 64, 95
1, 29206, Control_c, 0, 64, 125
1, 29221, Control_c, 0, 64, 127
1, 29231, Note_on_c, 0, 62, 42
1, 29260, Note_off_c, 0, 62, 58
1, 29316, Note_on_c, 0, 52, 27
1, 29351, Note_on_c, 0, 74, 69
1, 29353, Note_off_c, 0, 52, 50
1, 29354, Note_off_c, 0, 65, 58
1, 29367, Note_on_c, 0, 70, 59
1, 29372, Note_on_c, 0, 64, 57
1, 29403, Note_off_c, 0, 64, 65
1, 29454, Note_on_c, 0, 52, 46
1, 29471, Note_off_c, 0, 70, 53
1, 29479, Note_off_c, 0, 52, 59
1, 29490, Note_off_c, 0, 74, 59
1, 29532, Note_on_c, 0, 62, 52
1, 29783, Note_on_c, 0, 33, 44
1, 29787, Note_on_c, 0, 74, 57
1, 29800, Control_c, 0, 64, 87
1, 29809, Note_on_c, 0, 70, 49
1, 29814, Control_c, 0, 64, 64
1, 29829, Control_c, 0, 64, 46
1, 29844, Control_c, 0, 64, 44
1, 29847, Note_off_c, 0, 62, 40
1, 29859, Control_c, 0, 64, 50
1, 29874, Control_c, 0, 64, 60
1, 29896, Control_c, 0, 64, 66
1, 29909, Note_off_c, 0, 33, 62
1, 29910, Control_c, 0, 64, 73
1, 29925, Control_c, 0, 64, 86
1, 29940, Control_c, 0, 64, 112
1, 29952, Note_off_c, 0, 70, 57
1, 29955, Control_c, 0, 64, 127
1, 29989, Note_off_c, 0, 74, 63
1, 30003, Note_on_c, 0, 62, 31
1, 30037, Note_off_c, 0, 62, 54
1, 30110, Note_on_c, 0, 52, 42
1, 30152, Note_off_c, 0, 52, 59
1, 30154, Note_on_c, 0, 73, 65
1, 30161, Note_on_c, 0, 69, 44
1, 30251, Note_on_c, 0, 62, 16
1, 30299, Note_off_c, 0, 62, 45
1, 30325, Note_on_c, 0, 61, 49
1, 30353, Poly_aftertouch_c, 0, 52, 127
1, 30376, Poly_aftertouch_c, 0, 52, 0
1, 30506, Note_off_c, 0, 61, 37
1, 30573, Note_on_c, 0, 42, 33
1, 30575, Note_off_c, 0, 69, 36
1, 30608, Poly_aftertouch_c, 0, 70, 127
1, 30643, Note_on_c, 0, 64, 48
1, 30644, Control_c, 0, 64, 103
1, 30659, Control_c, 0, 64, 72
1, 30674, Control_c, 0, 64, 58
1, 30684, Note_off_c, 0, 73, 54
1, 30689, Control_c, 0, 64, 53
1, 30703, Control_c, 0, 64, 58
1, 30718, Control_c, 0, 64, 63
1, 30733, Control_c, 0, 64, 70
1, 30748, Control_c, 0, 64, 81
1, 30763, Control_c, 0, 64, 103
1, 30778, Control_c, 0, 64, 127
1, 30852, Note_off_c, 0, 42, 42
1, 30852, Poly_aftertouch_c, 0, 70, 0
1, 30872, Note_on_c, 0, 60, 35
1, 30876, Note_on_c, 0, 51, 40
1, 30891, Note_off_c, 0, 64, 31
1, 30914, Note_off_c, 0, 51, 55
1, 31080, Note_on_c, 0, 68, 47
1, 31085, Note_on_c, 0, 63, 39
1, 31087, Note_off_c, 0, 60, 41
1, 31136, Note_off_c, 0, 63, 61
1, 31234, Note_on_c, 0, 60, 39
1, 31450, Note_on_c, 0, 51, 33
1, 31546, Note_on_c, 0, 72, 46
1, 31602, Note_off_c, 0, 68, 39
1, 31681, Note_off_c, 0, 51, 40
1, 31772, Note_off_c, 0, 60, 39
1, 31824, Control_c, 0, 64, 116
1, 31839, Control_c, 0, 64, 112
1, 31854, Control_c, 0, 64, 109
1, 31869, Control_c, 0, 64, 108
1, 31943, Note_on_c, 0, 39, 41
1, 31987, Control_c, 0, 64, 104
1, 32002, Control_c, 0, 64, 85
1, 32015, Note_on_c, 0, 69, 45
1, 32017, Control_c, 0, 64, 69
1, 32031, Control_c, 0, 64, 58
1, 32046, Control_c, 0, 64, 51
1, 32061, Control_c, 0, 64, 53
1, 32075, Control_c, 0, 64, 59
1, 32090, Control_c, 0, 64, 65
1, 32105, Control_c, 0, 64, 70
1, 32120, Control_c, 0, 64, 77
1, 32143, Control_c, 0, 64, 85
1, 32157, Control_c, 0, 64, 92
1, 32172, Control_c, 0, 64, 96
1, 32182, Note_off_c, 0, 72, 35
1, 32187, Control_c, 0, 64, 100
1, 32199, Note_off_c, 0, 39, 41
1, 32202, Control_c, 0, 64, 108
1, 32217, Control_c, 0, 64, 125
1, 32231, Control_c, 0, 64, 127
1, 32331, Note_off_c, 0, 69, 33
1, 32372, Note_on_c, 0, 49, 37
1, 32397, Note_on_c, 0, 66, 46
1, 32435, Note_off_c, 0, 49, 56
1, 32512, Note_on_c, 0, 61, 52
1, 32532, Note_off_c, 0, 66, 35
1, 32539, Note_on_c, 0, 57, 41
1, 32539, Note_off_c, 0, 61, 62
1, 32611, Note_off_c, 0, 57, 55
1, 32834, Note_on_c, 0, 72, 53
1, 32841, Note_on_c, 0, 48, 47
1, 32904, Note_off_c, 0, 48, 60
1, 32906, Control_c, 0, 64, 102
1, 32921, Control_c, 0, 64, 74
1, 32936, Control_c, 0, 64, 55
1, 32951, Control_c, 0, 64, 33
1, 32954, Note_on_c, 0, 69, 54
1, 32966, Control_c, 0, 64, 31
1, 32966, Note_on_c, 0, 41, 43
1, 32980, Control_c, 0, 64, 39
1, 32995, Control_c, 0, 64, 53
1, 32996, Note_off_c, 0, 72, 30
1, 33010, Control_c, 0, 64, 61
1, 33025, Control_c, 0, 64, 66
1, 33039, Control_c, 0, 64, 70
1, 33054, Control_c, 0, 64, 75
1, 33069, Control_c, 0, 64, 82
1, 33084, Control_c, 0, 64, 91
1, 33099, Control_c, 0, 64, 104
1, 33113, Control_c, 0, 64, 127
1, 33120, Note_off_c, 0, 41, 34
1, 33172, Note_off_c, 0, 69, 54
1, 33209, Note_on_c, 0, 65, 51
1, 33222, Note_on_c, 0, 49, 13
1, 33262, Note_off_c, 0, 65, 55
1, 33268, Note_off_c, 0, 49, 38
1, 33296, Note_on_c, 0, 57, 51
1, 33300, Note_on_c, 0, 61, 42
1, 33328, Note_off_c, 0, 61, 54
1, 33350, Note_off_c, 0, 57, 58
1, 33523, Note_on_c, 0, 72, 67
1, 33556, Note_on_c, 0, 48, 33
1, 33574, Control_c, 0, 64, 82
1, 33587, Note_off_c, 0, 48, 58
1, 33589, Control_c, 0, 64, 63
1, 33603, Control_c, 0, 64, 53
1, 33616, Note_off_c, 0, 72, 63
1, 33617, Note_on_c, 0, 42, 51
1, 33637, Note_on_c, 0, 68, 58
1, 33640, Control_c, 0, 64, 58
1, 33655, Control_c, 0, 64, 64
1, 33669, Control_c, 0, 64, 70
1, 33684, Control_c, 0, 64, 84
1, 33699, Control_c, 0, 64, 105
1, 33714, Control_c, 0, 64, 127
1, 33762, Note_off_c, 0, 42, 54
1, 33797, Note_off_c, 0, 68, 35
1, 33812, Note_on_c, 0, 49, 35
1, 33844, Note_on_c, 0, 64, 55
1, 33847, Note_off_c, 0, 49, 53
1, 33925, Note_on_c, 0, 58, 53
1, 33947, Note_off_c, 0, 64, 55
1, 33983, Note_off_c, 0, 58, 55
1, 34131, Note_on_c, 0, 48, 45
1, 34143, Note_on_c, 0, 72, 67
1, 34171, Note_off_c, 0, 48, 62
1, 34174, Control_c, 0, 64, 122
1, 34189, Control_c, 0, 64, 75
1, 34204, Control_c, 0, 64, 56
1, 34218, Control_c, 0, 64, 0
1, 34219, Note_on_c, 0, 41, 50
1, 34222, Note_off_c, 0, 72, 63
1, 34233, Note_on_c, 0, 69, 61
1, 34263, Control_c, 0, 64, 22
1, 34278, Control_c, 0, 64, 52
1, 34292, Control_c, 0, 64, 61
1, 34307, Control_c, 0, 64, 65
1, 34322, Control_c, 0, 64, 68
1, 34330, Note_off_c, 0, 41, 54
1, 34337, Control_c, 0, 64, 73
1, 34352, Control_c, 0, 64, 81
1, 34374, Control_c, 0, 64, 98
1, 34389, Control_c, 0, 64, 127
1, 34393, Note_off_c, 0, 69, 57
1, 34442, Note_on_c, 0, 49, 39
1, 34450, Note_on_c, 0, 65, 55
1, 34477, Note_off_c, 0, 49, 57
1, 34489, Note_off_c, 0, 65, 62
1, 34574, Note_on_c, 0, 57, 46
1, 34589, Note_on_c, 0, 61, 10
1, 34602, Note_off_c, 0, 57, 56
1, 34639, Note_off_c, 0, 61, 51
1, 34823, Note_on_c, 0, 77, 62
1, 34841, Note_on_c, 0, 48, 32
1, 35001, Note_off_c, 0, 48, 46
1, 35006, Note_off_c, 0, 77, 60
1, 35041, Note_on_c, 0, 39, 39
1, 35106, Note_on_c, 0, 73, 50
1, 35124, Control_c, 0, 64, 83
1, 35139, Control_c, 0, 64, 66
1, 35154, Control_c, 0, 64, 57
1, 35169, Control_c, 0, 64, 56
1, 35183, Control_c, 0, 64, 61
1, 35198, Control_c, 0, 64, 67
1, 35213, Control_c, 0, 64, 75
1, 35228, Control_c, 0, 64, 89
1, 35243, Control_c, 0, 64, 115
1, 35257, Control_c, 0, 64, 127
1, 35322, Note_off_c, 0, 39, 40
1, 35363, Note_off_c, 0, 73, 63
1, 35366, Note_on_c, 0, 49, 23
1, 35402, Note_on_c, 0, 66, 43
1, 35405, Note_off_c, 0, 49, 56
1, 35449, Note_off_c, 0, 66, 63
1, 35502, Note_on_c, 0, 61, 42
1, 35509, Note_on_c, 0, 57, 46
1, 35529, Note_off_c, 0, 61, 54
1, 35568, Note_off_c, 0, 57, 51
1, 35742, Note_on_c, 0, 72, 59
1, 35776, Control_c, 0, 64, 104
1, 35778, Note_on_c, 0, 48, 34
1, 35791, Control_c, 0, 64, 75
1, 35805, Control_c, 0, 64, 61
1, 35820, Control_c, 0, 64, 49
1, 35831, Note_off_c, 0, 48, 58
1, 35835, Control_c, 0, 64, 50
1, 35837, Note_off_c, 0, 72, 61
1, 35841, Note_on_c, 0, 69, 60
1, 35850, Control_c, 0, 64, 53
1, 35865, Note_on_c, 0, 41, 50
1, 35865, Control_c, 0, 64, 59
1, 35887, Control_c, 0, 64, 63
1, 35902, Control_c, 0, 64, 65
1, 35917, Control_c, 0, 64, 68
1, 35931, Control_c, 0, 64, 71
1, 35946, Control_c, 0, 64, 74
1, 35961, Control_c, 0, 64, 80
1, 35966, Note_off_c, 0, 41, 58
1, 35976, Control_c, 0, 64, 90
1, 35991, Control_c, 0, 64, 119
1, 36005, Control_c, 0, 64, 127
1, 36017, Note_off_c, 0, 69, 58
1, 36080, Note_on_c, 0, 65, 52
1, 36125, Note_off_c, 0, 65, 62
1, 36172, Note_on_c, 0, 61, 52
1, 36173, Note_on_c, 0, 57, 59
1, 36210, Note_off_c, 0, 61, 64
1, 36218, Note_off_c, 0, 57, 59
1, 36376, Note_on_c, 0, 72, 65
1, 36405, Control_c, 0, 64, 71
1, 36406, Note_on_c, 0, 48, 43
1, 36420, Control_c, 0, 64, 25
1, 36435, Control_c, 0, 64, 0
1, 36446, Note_off_c, 0, 48, 56
1, 36460, Note_off_c, 0, 72, 61
1, 36466, Note_on_c, 0, 68, 57
1, 36471, Note_on_c, 0, 42, 57
1, 36494, Control_c, 0, 64, 38
1, 36509, Control_c, 0, 64, 57
1, 36525, Control_c, 0, 64, 63
1, 36540, Control_c, 0, 64, 67
1, 36554, Control_c, 0, 64, 72
1, 36569, Control_c, 0, 64, 83
1, 36584, Control_c, 0, 64, 112
1, 36599, Control_c, 0, 64, 127
1, 36609, Note_off_c, 0, 42, 61
1, 36632, Note_off_c, 0, 68, 55
1, 36671, Note_on_c, 0, 49, 28
1, 36684, Note_on_c, 0, 64, 50
1, 36710, Note_off_c, 0, 49, 41
1, 36764, Note_on_c, 0, 58, 57
1, 36775, Note_off_c, 0, 64, 55
1, 36831, Note_off_c, 0, 58, 62
1, 36980, Note_on_c, 0, 72, 63
1, 36989, Note_on_c, 0, 48, 25
1, 37027, Note_off_c, 0, 48, 48
1, 37035, Control_c, 0, 64, 74
1, 37050, Control_c, 0, 64, 56
1, 37065, Note_on_c, 0, 41, 48
1, 37065, Control_c, 0, 64, 0
1, 37069, Note_off_c, 0, 72, 61
1, 37082, Note_on_c, 0, 69, 57
1, 37109, Control_c, 0, 64, 34
1, 37124, Control_c, 0, 64, 57
1, 37139, Control_c, 0, 64, 64
1, 37154, Control_c, 0, 64, 67
1, 37160, Note_off_c, 0, 41, 51
1, 37169, Control_c, 0, 64, 71
1, 37184, Control_c, 0, 64, 75
1, 37199, Control_c, 0, 64, 80
1, 37213, Control_c, 0, 64, 89
1, 37218, Note_off_c, 0, 69, 57
1, 37228, Control_c, 0, 64, 100
1, 37243, Control_c, 0, 64, 127
1, 37253, Note_on_c, 0, 49, 42
1, 37286, Note_on_c, 0, 65, 51
1, 37291, Note_off_c, 0, 49, 62
1, 37332, Note_off_c, 0, 65, 62
1, 37425, Note_on_c, 0, 57, 46
1, 37458, Note_off_c, 0, 57, 63
1, 37649, Note_on_c, 0, 69, 50
1, 37687, Note_on_c, 0, 48, 33
1, 37725, Control_c, 0, 64, 104
1, 37740, Control_c, 0, 64, 77
1, 37755, Control_c, 0, 64, 65
1, 37764, Note_off_c, 0, 48, 51
1, 37769, Control_c, 0, 64, 59
1, 37784, Control_c, 0, 64, 59
1, 37799, Control_c, 0, 64, 61
1, 37814, Control_c, 0, 64, 65
1, 37816, Note_on_c, 0, 39, 30
1, 37829, Control_c, 0, 64, 70
1, 37840, Note_off_c, 0, 69, 61
1, 37843, Control_c, 0, 64, 78
1, 37858, Control_c, 0, 64, 90
1, 37862, Note_on_c, 0, 73, 57
1, 37873, Control_c, 0, 64, 115
1, 37888, Control_c, 0, 64, 127
1, 38028, Note_on_c, 0, 66, 46
1, 38030, Note_off_c, 0, 73, 55
1, 38036, Note_off_c, 0, 39, 42
1, 38087, Note_on_c, 0, 49, 35
1, 38134, Note_on_c, 0, 65, 52
1, 38144, Note_off_c, 0, 66, 37
1, 38155, Note_off_c, 0, 49, 57
1, 38187, Note_off_c, 0, 65, 61
1, 38208, Note_on_c, 0, 64, 57
1, 38224, Note_on_c, 0, 57, 39
1, 38256, Note_off_c, 0, 64, 58
1, 38262, Note_off_c, 0, 57, 48
1, 38304, Note_on_c, 0, 63, 60
1, 38370, Note_off_c, 0, 63, 61
1, 38396, Note_on_c, 0, 69, 70
1, 38422, Note_on_c, 0, 48, 43
1, 38460, Control_c, 0, 64, 103
1, 38474, Control_c, 0, 64, 74
1, 38489, Control_c, 0, 64, 61
1, 38494, Note_off_c, 0, 48, 55
1, 38504, Control_c, 0, 64, 54
1, 38515, Note_on_c, 0, 72, 68
1, 38517, Note_off_c, 0, 69, 60
1, 38517, Control_c, 0, 64, 55
1, 38532, Control_c, 0, 64, 59
1, 38538, Note_on_c, 0, 41, 46
1, 38547, Control_c, 0, 64, 64
1, 38562, Control_c, 0, 64, 67
1, 38577, Control_c, 0, 64, 72
1, 38590, Note_off_c, 0, 72, 63
1, 38591, Control_c, 0, 64, 78
1, 38606, Control_c, 0, 64, 84
1, 38621, Control_c, 0, 64, 93
1, 38636, Control_c, 0, 64, 106
1, 38649, Note_on_c, 0, 57, 61
1, 38651, Control_c, 0, 64, 127
1, 38688, Note_off_c, 0, 41, 53
1, 38712, Note_off_c, 0, 57, 58
1, 38724, Note_on_c, 0, 63, 64
1, 38733, Note_on_c, 0, 49, 44
1, 38774, Note_off_c, 0, 49, 63
1, 38788, Note_off_c, 0, 63, 61
1, 38820, Note_on_c, 0, 66, 45
1, 38826, Note_on_c, 0, 55, 56
1, 38845, Note_off_c, 0, 66, 56
1, 38879, Note_off_c, 0, 55, 61
1, 38898, Note_on_c, 0, 68, 69
1, 38941, Note_off_c, 0, 68, 54
1, 38983, Note_on_c, 0, 73, 72
1, 39038, Note_on_c, 0, 51, 38
1, 39044, Control_c, 0, 64, 80
1, 39045, Note_on_c, 0, 43, 36
1, 39059, Control_c, 0, 64, 64
1, 39074, Control_c, 0, 64, 56
1, 39080, Note_off_c, 0, 51, 49
1, 39083, Note_on_c, 0, 77, 83
1, 39089, Control_c, 0, 64, 58
1, 39098, Note_off_c, 0, 73, 60
1, 39104, Control_c, 0, 64, 62
1, 39119, Control_c, 0, 64, 67
1, 39133, Control_c, 0, 64, 74
1, 39138, Note_off_c, 0, 77, 61
1, 39142, Note_off_c, 0, 43, 53
1, 39148, Control_c, 0, 64, 83
1, 39163, Control_c, 0, 64, 94
1, 39178, Control_c, 0, 64, 104
1, 39193, Control_c, 0, 64, 114
1, 39197, Note_on_c, 0, 72, 70
1, 39208, Control_c, 0, 64, 127
1, 39238, Note_on_c, 0, 53, 36
1, 39276, Note_off_c, 0, 53, 52
1, 39281, Note_on_c, 0, 71, 71
1, 39296, Note_off_c, 0, 72, 47
1, 39346, Note_on_c, 0, 58, 52
1, 39358, Note_off_c, 0, 71, 61
1, 39360, Note_on_c, 0, 70, 69
1, 39399, Note_off_c, 0, 70, 56
1, 39408, Note_on_c, 0, 65, 71
1, 39413, Note_off_c, 0, 58, 59
1, 39480, Note_off_c, 0, 65, 58
1, 39487, Note_on_c, 0, 72, 75
1, 39501, Note_on_c, 0, 51, 59
1, 39578, Control_c, 0, 64, 85
1, 39587, Note_on_c, 0, 75, 87
1, 39593, Control_c, 0, 64, 65
1, 39606, Note_on_c, 0, 44, 61
1, 39606, Note_off_c, 0, 72, 59
1, 39607, Note_off_c, 0, 51, 56
1, 39608, Control_c, 0, 64, 54
1, 39630, Control_c, 0, 64, 54
1, 39645, Control_c, 0, 64, 60
1, 39660, Control_c, 0, 64, 65
1, 39662, Note_off_c, 0, 75, 64
1, 39674, Control_c, 0, 64, 73
1, 39689, Note_on_c, 0, 60, 76
1, 39689, Control_c, 0, 64, 86
1, 39704, Control_c, 0, 64, 117
1, 39720, Control_c, 0, 64, 127
1, 39724, Note_off_c, 0, 44, 61
1, 39770, Note_off_c, 0, 60, 58
1, 39772, Note_on_c, 0, 53, 60
1, 39774, Note_on_c, 0, 66, 70
1, 39824, Note_off_c, 0, 53, 62
1, 39828, Note_on_c, 0, 70, 77
1, 39834, Note_off_c, 0, 66, 62
1, 39858, Note_off_c, 0, 70, 65
1, 39867, Note_on_c, 0, 61, 59
1, 39913, Note_on_c, 0, 71, 73
1, 39960, Note_off_c, 0, 71, 58
1, 39986, Note_off_c, 0, 61, 38
1, 39996, Note_on_c, 0, 77, 84
1, 40031, Control_c, 0, 64, 92
1, 40046, Control_c, 0, 64, 71
1, 40049, Poly_aftertouch_c, 0, 50, 127
1, 40060, Control_c, 0, 64, 64
1, 40075, Note_on_c, 0, 46, 56
1, 40075, Control_c, 0, 64, 65
1, 40090, Control_c, 0, 64, 70
1, 40095, Poly_aftertouch_c, 0, 50, 0
1, 40099, Note_on_c, 0, 80, 89
1, 40105, Control_c, 0, 64, 86
1, 40109, Note_off_c, 0, 77, 65
1, 40120, Control_c, 0, 64, 127
1, 40126, Note_on_c, 0, 54, 58
1, 40168, Note_off_c, 0, 46, 63
1, 40194, Note_on_c, 0, 76, 75
1, 40196, Note_off_c, 0, 54, 63
1, 40221, Note_on_c, 0, 77, 48
1, 40222, Note_off_c, 0, 77, 127
1, 40228, Note_off_c, 0, 80, 61
1, 40259, Note_on_c, 0, 62, 57
1, 40275, Note_on_c, 0, 75, 77
1, 40293, Note_off_c, 0, 76, 64
1, 40305, Note_off_c, 0, 62, 57
1, 40334, Note_on_c, 0, 73, 71
1, 40346, Note_on_c, 0, 54, 57
1, 40357, Note_off_c, 0, 75, 60
1, 40406, Note_on_c, 0, 70, 81
1, 40427, Note_off_c, 0, 73, 63
1, 40444, Note_off_c, 0, 54, 63
1, 40471, Note_on_c, 0, 48, 63
1, 40479, Note_on_c, 0, 75, 86
1, 40503, Note_off_c, 0, 70, 48
1, 40512, Control_c, 0, 64, 80
1, 40528, Control_c, 0, 64, 62
1, 40543, Control_c, 0, 64, 46
1, 40558, Control_c, 0, 64, 47
1, 40573, Control_c, 0, 64, 53
1, 40575, Note_on_c, 0, 78, 90
1, 40587, Control_c, 0, 64, 62
1, 40602, Control_c, 0, 64, 66
1, 40617, Control_c, 0, 64, 73
1, 40618, Note_off_c, 0, 48, 58
1, 40632, Control_c, 0, 64, 82
1, 40638, Note_on_c, 0, 66, 74
1, 40645, Note_on_c, 0, 54, 55
1, 40647, Control_c, 0, 64, 95
1, 40662, Control_c, 0, 64, 127
1, 40689, Note_off_c, 0, 78, 58
1, 40692, Note_off_c, 0, 66, 62
1, 40697, Note_off_c, 0, 75, 61
1, 40717, Note_on_c, 0, 70, 74
1, 40743, Note_off_c, 0, 70, 69
1, 40765, Note_off_c, 0, 54, 64
1, 40794, Note_on_c, 0, 72, 79
1, 40844, Note_off_c, 0, 72, 62
1, 40889, Note_on_c, 0, 75, 60
1, 40915, Note_off_c, 0, 75, 51
1, 40960, Note_on_c, 0, 78, 81
1, 41031, Note_on_c, 0, 58, 61
1, 41032, Control_c, 0, 64, 99
1, 41047, Control_c, 0, 64, 66
1, 41061, Control_c, 0, 64, 43
1, 41072, Note_off_c, 0, 58, 61
1, 41076, Control_c, 0, 64, 39
1, 41081, Note_on_c, 0, 82, 88
1, 41091, Control_c, 0, 64, 47
1, 41095, Note_off_c, 0, 78, 64
1, 41106, Control_c, 0, 64, 60
1, 41128, Control_c, 0, 64, 69
1, 41137, Note_off_c, 0, 82, 65
1, 41143, Control_c, 0, 64, 85
1, 41157, Control_c, 0, 64, 127
1, 41174, Note_on_c, 0, 50, 59
1, 41196, Note_on_c, 0, 58, 62
1, 41250, Note_off_c, 0, 50, 63
1, 41264, Note_off_c, 0, 58, 63
1, 41306, Note_on_c, 0, 66, 78
1, 41309, Note_on_c, 0, 78, 78
1, 41315, Note_on_c, 0, 70, 63
1, 41331, Note_off_c, 0, 66, 69
1, 41346, Note_off_c, 0, 70, 66
1, 41347, Note_off_c, 0, 78, 57
1, 41403, Note_on_c, 0, 68, 75
1, 41445, Note_off_c, 0, 68, 60
1, 41458, Note_on_c, 0, 75, 34
1, 41461, Note_on_c, 0, 56, 62
1, 41477, Note_on_c, 0, 58, 28
1, 41491, Note_off_c, 0, 75, 50
1, 41498, Note_off_c, 0, 56, 66
1, 41509, Note_off_c, 0, 58, 49
1, 41516, Note_on_c, 0, 78, 67
1, 41527, Note_on_c, 0, 66, 54
1, 41538, Note_on_c, 0, 70, 67
1, 41544, Note_off_c, 0, 78, 68
1, 41553, Note_off_c, 0, 66, 56
1, 41562, Note_off_c, 0, 70, 70
1, 41588, Control_c, 0, 64, 78
1, 41603, Control_c, 0, 64, 62
1, 41617, Control_c, 0, 64, 60
1, 41620, Note_on_c, 0, 56, 66
1, 41622, Note_on_c, 0, 82, 90
1, 41624, Note_on_c, 0, 70, 79
1, 41632, Control_c, 0, 64, 64
1, 41647, Note_off_c, 0, 70, 70
1, 41647, Control_c, 0, 64, 70
1, 41650, Note_off_c, 0, 82, 58
1, 41655, Note_off_c, 0, 56, 64
1, 41662, Control_c, 0, 64, 88
1, 41677, Control_c, 0, 64, 127
1, 41733, Note_on_c, 0, 46, 61
1, 41733, Note_on_c, 0, 56, 74
1, 41764, Note_off_c, 0, 46, 65
1, 41764, Note_off_c, 0, 56, 63
1, 41831, Note_on_c, 0, 65, 74
1, 41835, Note_on_c, 0, 70, 71
1, 41837, Note_on_c, 0, 77, 72
1, 41866, Note_off_c, 0, 65, 67
1, 41872, Note_off_c, 0, 77, 68
1, 41882, Note_off_c, 0, 70, 62
1, 41943, Note_on_c, 0, 68, 56
1, 41970, Note_off_c, 0, 68, 63
1, 41971, Note_on_c, 0, 56, 70
1, 42026, Note_off_c, 0, 56, 62
1, 42052, Note_on_c, 0, 77, 58
1, 42052, Note_on_c, 0, 65, 63
1, 42068, Note_on_c, 0, 70, 72
1, 42076, Note_off_c, 0, 77, 64
1, 42081, Note_off_c, 0, 65, 63
1, 42098, Note_off_c, 0, 70, 67
1, 42114, Control_c, 0, 64, 80
1, 42129, Control_c, 0, 64, 62
1, 42144, Control_c, 0, 64, 56
1, 42159, Control_c, 0, 64, 60
1, 42162, Note_on_c, 0, 49, 50
1, 42162, Note_on_c, 0, 82, 78
1, 42174, Control_c, 0, 64, 66
1, 42178, Note_on_c, 0, 70, 59
1, 42189, Note_off_c, 0, 49, 52
1, 42189, Control_c, 0, 64, 80
1, 42190, Note_off_c, 0, 82, 63
1, 42198, Note_off_c, 0, 70, 62
1, 42204, Control_c, 0, 64, 127
1, 42240, Poly_aftertouch_c, 0, 42, 127
1, 42243, Note_on_c, 0, 49, 78
1, 42257, Note_on_c, 0, 42, 3
1, 42269, Note_off_c, 0, 49, 68
1, 42281, Note_off_c, 0, 42, 56
1, 42349, Note_on_c, 0, 64, 76
1, 42351, Note_on_c, 0, 70, 74
1, 42360, Note_on_c, 0, 76, 57
1, 42372, Note_off_c, 0, 64, 70
1, 42380, Note_off_c, 0, 76, 61
1, 42405, Note_off_c, 0, 70, 61
1, 42423, Note_on_c, 0, 66, 79
1, 42456, Note_on_c, 0, 56, 63
1, 42469, Note_off_c, 0, 66, 65
1, 42484, Note_on_c, 0, 71, 30
1, 42517, Note_off_c, 0, 56, 64
1, 42519, Note_off_c, 0, 71, 46
1, 42543, Note_on_c, 0, 63, 69
1, 42547, Note_on_c, 0, 75, 64
1, 42558, Note_on_c, 0, 70, 67
1, 42566, Note_off_c, 0, 75, 63
1, 42572, Note_off_c, 0, 63, 66
1, 42585, Note_off_c, 0, 70, 67
1, 42626, Control_c, 0, 64, 70
1, 42637, Note_on_c, 0, 51, 88
1, 42640, Control_c, 0, 64, 55
1, 42653, Note_on_c, 0, 82, 86
1, 42654, Note_on_c, 0, 70, 74
1, 42655, Control_c, 0, 64, 53
1, 42670, Note_off_c, 0, 70, 42
1, 42670, Control_c, 0, 64, 59
1, 42677, Note_off_c, 0, 51, 62
1, 42684, Note_off_c, 0, 82, 56
1, 42685, Control_c, 0, 64, 67
1, 42699, Control_c, 0, 64, 84
1, 42705, Note_on_c, 0, 71, 20
1, 42714, Control_c, 0, 64, 127
1, 42743, Note_off_c, 0, 71, 48
1, 42747, Note_on_c, 0, 43, 72
1, 42758, Note_on_c, 0, 51, 80
1, 42777, Note_off_c, 0, 43, 63
1, 42793, Note_off_c, 0, 51, 64
1, 42821, Note_on_c, 0, 70, 81
1, 42824, Note_on_c, 0, 62, 87
1, 42844, Note_off_c, 0, 62, 72
1, 42855, Note_off_c, 0, 70, 55
1, 42904, Note_on_c, 0, 62, 93
1, 42910, Poly_aftertouch_c, 0, 74, 0
1, 42930, Note_on_c, 0, 54, 69
1, 42961, Note_off_c, 0, 62, 63
1, 42983, Note_on_c, 0, 61, 72
1, 43003, Note_off_c, 0, 54, 64
1, 43006, Note_on_c, 0, 70, 68
1, 43016, Note_off_c, 0, 61, 63
1, 43039, Note_off_c, 0, 70, 65
1, 43056, Control_c, 0, 64, 87
1, 43071, Control_c, 0, 64, 72
1, 43086, Control_c, 0, 64, 72
1, 43092, Note_on_c, 0, 53, 91
1, 43097, Note_on_c, 0, 44, 77
1, 43098, Note_on_c, 0, 70, 91
1, 43101, Control_c, 0, 64, 80
1, 43104, Note_on_c, 0, 82, 91
1, 43115, Control_c, 0, 64, 115
1, 43125, Note_off_c, 0, 82, 68
1, 43129, Note_off_c, 0, 44, 64
1, 43130, Control_c, 0, 64, 127
1, 43137, Note_off_c, 0, 53, 63
1, 43138, Note_off_c, 0, 70, 65
1, 43220, Note_on_c, 0, 55, 51
1, 43244, Note_off_c, 0, 55, 58
1, 43265, Note_on_c, 0, 61, 95
1, 43267, Note_on_c, 0, 68, 86
1, 43272, Note_on_c, 0, 73, 72
1, 43296, Note_off_c, 0, 73, 70
1, 43309, Note_off_c, 0, 61, 58
1, 43334, Note_on_c, 0, 54, 78
1, 43334, Note_on_c, 0, 64, 54
1, 43346, Note_on_c, 0, 62, 53
1, 43363, Note_off_c, 0, 64, 64
1, 43369, Note_off_c, 0, 68, 51
1, 43371, Note_off_c, 0, 62, 67
1, 43380, Note_on_c, 0, 56, 15
1, 43382, Note_off_c, 0, 54, 67
1, 43421, Note_off_c, 0, 56, 53
1, 43454, Note_on_c, 0, 60, 72
1, 43456, Note_on_c, 0, 72, 79
1, 43479, Note_on_c, 0, 68, 62
1, 43480, Note_off_c, 0, 60, 67
1, 43497, Note_off_c, 0, 72, 63
1, 43503, Note_off_c, 0, 68, 69
1, 43508, Control_c, 0, 64, 85
1, 43522, Control_c, 0, 64, 62
1, 43533, Note_on_c, 0, 45, 90
1, 43537, Control_c, 0, 64, 52
1, 43545, Note_on_c, 0, 33, 71
1, 43552, Control_c, 0, 64, 58
1, 43560, Note_on_c, 0, 82, 95
1, 43562, Note_on_c, 0, 70, 90
1, 43566, Note_off_c, 0, 45, 67
1, 43567, Control_c, 0, 64, 65
1, 43576, Note_off_c, 0, 33, 64
1, 43582, Note_off_c, 0, 82, 68
1, 43582, Control_c, 0, 64, 79
1, 43593, Note_off_c, 0, 70, 64
1, 43596, Control_c, 0, 64, 127
1, 43642, Note_on_c, 0, 45, 84
1, 43657, Note_on_c, 0, 33, 46
1, 43675, Note_off_c, 0, 45, 64
1, 43694, Note_off_c, 0, 33, 51
1, 43731, Note_on_c, 0, 59, 90
1, 43735, Note_on_c, 0, 71, 83
1, 43736, Note_on_c, 0, 66, 83
1, 43754, Note_off_c, 0, 59, 66
1, 43755, Note_off_c, 0, 71, 71
1, 43787, Note_off_c, 0, 66, 63
1, 43810, Note_on_c, 0, 54, 89
1, 43816, Note_on_c, 0, 63, 87
1, 43837, Note_off_c, 0, 63, 70
1, 43852, Note_off_c, 0, 54, 59
1, 43853, Note_on_c, 0, 61, 9
1, 43868, Note_on_c, 0, 50, 71
1, 43891, Poly_aftertouch_c, 0, 68, 127
1, 43897, Note_off_c, 0, 61, 41
1, 43898, Note_off_c, 0, 50, 65
1, 43912, Note_on_c, 0, 67, 29
1, 43938, Poly_aftertouch_c, 0, 68, 0
1, 43945, Note_off_c, 0, 67, 45
1, 43954, Note_on_c, 0, 70, 85
1, 43959, Note_on_c, 0, 58, 71
1, 43974, Note_on_c, 0, 66, 65
1, 43986, Note_off_c, 0, 58, 66
1, 43999, Note_off_c, 0, 70, 63
1, 44001, Note_off_c, 0, 66, 65
1, 44027, Control_c, 0, 64, 96
1, 44042, Control_c, 0, 64, 45
1, 44044, Note_on_c, 0, 34, 84
1, 44057, Note_on_c, 0, 22, 68
1, 44057, Control_c, 0, 64, 0
1, 44070, Note_on_c, 0, 82, 80
1, 44071, Note_on_c, 0, 70, 74
1, 44078, Note_on_c, 0, 80, 63
1, 44082, Note_off_c, 0, 34, 61
1, 44082, Note_off_c, 0, 82, 70
1, 44085, Note_off_c, 0, 70, 72
1, 44091, Note_on_c, 0, 68, 38
1, 44092, Note_off_c, 0, 68, 127
1, 44094, Note_off_c, 0, 80, 66
1, 44101, Control_c, 0, 64, 52
1, 44123, Note_off_c, 0, 22, 0
1, 44123, Control_c, 0, 64, 71
1, 44138, Control_c, 0, 64, 125
1, 44141, Note_on_c, 0, 22, 41
1, 44144, Note_on_c, 0, 34, 75
1, 44153, Control_c, 0, 64, 127
1, 44172, Note_off_c, 0, 34, 65
1, 44174, Note_off_c, 0, 22, 56
1, 44224, Note_on_c, 0, 70, 73
1, 44229, Note_on_c, 0, 58, 89
1, 44237, Note_on_c, 0, 65, 69
1, 44274, Note_off_c, 0, 65, 59
1, 44276, Note_off_c, 0, 58, 63
1, 44282, Note_off_c, 0, 70, 63
1, 44304, Note_on_c, 0, 61, 87
1, 44309, Note_on_c, 0, 53, 66
1, 44346, Note_off_c, 0, 61, 65
1, 44347, Note_on_c, 0, 49, 91
1, 44363, Note_off_c, 0, 53, 59
1, 44395, Note_off_c, 0, 49, 66
1, 44410, Note_on_c, 0, 71, 82
1, 44415, Note_on_c, 0, 65, 65
1, 44417, Note_on_c, 0, 59, 62
1, 44438, Note_off_c, 0, 59, 62
1, 44451, Note_off_c, 0, 65, 65
1, 44454, Note_off_c, 0, 71, 65
1, 44505, Note_on_c, 0, 37, 94
1, 44522, Note_on_c, 0, 82, 104
1, 44524, Note_on_c, 0, 70, 99
1, 44542, Note_off_c, 0, 82, 62
1, 44552, Note_off_c, 0, 70, 63
1, 44555, Note_off_c, 0, 37, 62
1, 44583, Note_on_c, 0, 25, 83
1, 44589, Note_on_c, 0, 37, 83
1, 44598, Poly_aftertouch_c, 0, 29, 127
1, 44626, Note_off_c, 0, 25, 62
1, 44634, Note_off_c, 0, 37, 64
1, 44651, Poly_aftertouch_c, 0, 29, 0
1, 44677, Note_on_c, 0, 59, 96
1, 44679, Note_on_c, 0, 66, 98
1, 44681, Note_on_c, 0, 71, 96
1, 44700, Note_off_c, 0, 71, 70
1, 44704, Note_off_c, 0, 59, 65
1, 44726, Note_off_c, 0, 66, 64
1, 44749, Note_on_c, 0, 62, 99
1, 44760, Note_on_c, 0, 52, 86
1, 44772, Note_off_c, 0, 62, 68
1, 44777, Note_on_c, 0, 54, 75
1, 44788, Note_on_c, 0, 56, 49
1, 44794, Note_on_c, 0, 68, 55
1, 44799, Note_off_c, 0, 52, 66
1, 44806, Note_on_c, 0, 55, 54
1, 44811, Note_off_c, 0, 54, 66
1, 44815, Note_off_c, 0, 56, 59
1, 44830, Note_off_c, 0, 55, 58
1, 44843, Note_off_c, 0, 68, 60
1, 44878, Note_on_c, 0, 60, 82
1, 44879, Note_on_c, 0, 72, 89
1, 44888, Note_on_c, 0, 66, 85
1, 44898, Note_off_c, 0, 60, 71
1, 44920, Note_off_c, 0, 72, 67
1, 44932, Note_off_c, 0, 66, 59
1, 44947, Control_c, 0, 64, 68
1, 44961, Control_c, 0, 64, 55
1, 44976, Control_c, 0, 64, 63
1, 44981, Note_on_c, 0, 39, 114
1, 44991, Control_c, 0, 64, 75
1, 44996, Note_on_c, 0, 70, 110
1, 44997, Note_on_c, 0, 82, 101
1, 44999, Note_on_c, 0, 27, 84
1, 45006, Note_on_c, 0, 34, 34
1, 45006, Control_c, 0, 64, 127
1, 45026, Note_off_c, 0, 27, 64
1, 45028, Note_off_c, 0, 70, 67
1, 45029, Note_off_c, 0, 39, 64
1, 45033, Note_off_c, 0, 82, 63
1, 45063, Note_off_c, 0, 34, 41
1, 45072, Note_on_c, 0, 28, 75
1, 45076, Note_on_c, 0, 39, 92
1, 45104, Note_off_c, 0, 28, 62
1, 45122, Note_off_c, 0, 39, 62
1, 45137, Note_on_c, 0, 40, 17
1, 45174, Note_on_c, 0, 72, 89
1, 45175, Note_on_c, 0, 60, 96
1, 45182, Note_off_c, 0, 40, 52
1, 45185, Note_on_c, 0, 65, 81
1, 45199, Note_off_c, 0, 72, 66
1, 45208, Note_off_c, 0, 60, 66
1, 45232, Note_off_c, 0, 65, 63
1, 45262, Note_on_c, 0, 63, 108
1, 45290, Note_on_c, 0, 54, 64
1, 45290, Poly_aftertouch_c, 0, 64, 0
1, 45295, Note_off_c, 0, 63, 70
1, 45315, Note_off_c, 0, 54, 63
1, 45358, Note_on_c, 0, 55, 78
1, 45381, Note_off_c, 0, 55, 67
1, 45385, Note_on_c, 0, 64, 25
1, 45386, Note_off_c, 0, 64, 127
1, 45417, Note_on_c, 0, 69, 96
1, 45421, Poly_aftertouch_c, 0, 64, 0
1, 45426, Note_on_c, 0, 73, 90
1, 45429, Note_on_c, 0, 61, 79
1, 45447, Poly_aftertouch_c, 0, 56, 0
1, 45451, Note_off_c, 0, 61, 69
1, 45466, Note_off_c, 0, 69, 65
1, 45482, Note_off_c, 0, 73, 65
1, 45540, Control_c, 0, 64, 64
1, 45555, Control_c, 0, 64, 0
1, 45560, Note_on_c, 0, 41, 110
1, 45567, Note_on_c, 0, 29, 87
1, 45572, Note_on_c, 0, 69, 104
1, 45572, Note_on_c, 0, 73, 104
1, 45584, Note_on_c, 0, 83, 79
1, 45587, Note_on_c, 0, 81, 78
1, 45589, Note_on_c, 0, 37, 25
1, 45597, Note_off_c, 0, 83, 71
1, 45599, Control_c, 0, 64, 35
1, 45612, Note_off_c, 0, 69, 69
1, 45613, Note_off_c, 0, 41, 67
1, 45614, Note_off_c, 0, 73, 62
1, 45614, Note_off_c, 0, 29, 62
1, 45617, Note_off_c, 0, 81, 71
1, 45622, Control_c, 0, 64, 73
1, 45623, Note_on_c, 0, 33, 16
1, 45637, Control_c, 0, 64, 127
1, 45665, Note_off_c, 0, 37, 39
1, 45670, Poly_aftertouch_c, 0, 36, 127
1, 45674, Note_off_c, 0, 33, 48
1, 45678, Note_on_c, 0, 29, 82
1, 45679, Note_on_c, 0, 41, 113
1, 45710, Note_off_c, 0, 29, 65
1, 45715, Note_off_c, 0, 41, 68
1, 45753, Poly_aftertouch_c, 0, 36, 0
1, 45794, Note_on_c, 0, 69, 102
1, 45804, Note_on_c, 0, 61, 94
1, 45804, Note_on_c, 0, 73, 87
1, 45830, Note_off_c, 0, 61, 65
1, 45854, Note_off_c, 0, 69, 65
1, 45861, Note_off_c, 0, 73, 65
1, 45921, Note_on_c, 0, 65, 98
1, 45925, Note_on_c, 0, 63, 89
1, 45927, Note_on_c, 0, 58, 53
1, 45932, Note_on_c, 0, 53, 65
1, 45948, Note_on_c, 0, 57, 61
1, 45951, Note_on_c, 0, 55, 59
1, 45960, Note_off_c, 0, 65, 66
1, 45966, Note_off_c, 0, 53, 67
1, 45972, Note_off_c, 0, 58, 45
1, 45974, Note_off_c, 0, 55, 60
1, 45976, Note_off_c, 0, 63, 63
1, 45978, Note_off_c, 0, 57, 66
1, 46021, Note_on_c, 0, 65, 111
1, 46022, Note_on_c, 0, 63, 100
1, 46025, Note_on_c, 0, 53, 104
1, 46028, Note_on_c, 0, 57, 85
1, 46054, Note_off_c, 0, 65, 69
1, 46055, Note_off_c, 0, 57, 68
1, 46059, Note_off_c, 0, 63, 67
1, 46071, Note_off_c, 0, 53, 70
1, 46401, Control_c, 0, 64, 82
1, 46415, Control_c, 0, 64, 0
1, 46644, Poly_aftertouch_c, 0, 57, 127
1, 46671, Poly_aftertouch_c, 0, 55, 127
1, 46678, Note_on_c, 0, 58, 84
1, 46679, Note_on_c, 0, 46, 107
1, 46684, Note_on_c, 0, 34, 118
1, 46691, Note_on_c, 0, 52, 16
1, 46696, Control_c, 0, 64, 127
1, 46697, Note_on_c, 0, 22, 84
1, 46700, Poly_aftertouch_c, 0, 57, 0
1, 46706, Note_on_c, 0, 51, 57
1, 46707, Note_off_c, 0, 51, 127
1, 46707, Note_off_c, 0, 58, 66
1, 46711, Poly_aftertouch_c, 0, 55, 0
1, 46713, Note_off_c, 0, 46, 70
1, 46726, Note_off_c, 0, 22, 59
1, 46729, Note_off_c, 0, 34, 65
1, 46729, Note_off_c, 0, 52, 47
1, 47190, Note_on_c, 0, 65, 81
1, 47194, Note_on_c, 0, 58, 82
1, 47194, Note_on_c, 0, 61, 79
1, 47200, Note_on_c, 0, 53, 73
1, 47208, Note_on_c, 0, 41, 59
1, 47209, Note_on_c, 0, 46, 69
1, 47215, Note_on_c, 0, 49, 68
1, 47560, Note_off_c, 0, 58, 61
1, 47561, Note_off_c, 0, 41, 64
1, 47570, Note_off_c, 0, 53, 61
1, 47578, Note_off_c, 0, 65, 59
1, 47578, Note_off_c, 0, 49, 62
1, 47579, Note_off_c, 0, 61, 58
1, 47584, Note_off_c, 0, 46, 61
1, 47641, Note_on_c, 0, 53, 83
1, 47641, Note_on_c, 0, 65, 89
1, 47647, Note_on_c, 0, 58, 87
1, 47650, Note_on_c, 0, 41, 69
1, 47651, Note_on_c, 0, 46, 67
1, 47655, Note_on_c, 0, 49, 66
1, 47656, Note_on_c, 0, 61, 72
1, 47900, Poly_aftertouch_c, 0, 43, 127
1, 47903, Note_off_c, 0, 65, 47
1, 47916, Note_off_c, 0, 58, 59
1, 47928, Note_off_c, 0, 61, 60
1, 47936, Note_off_c, 0, 41, 63
1, 47950, Note_off_c, 0, 53, 65
1, 47953, Note_off_c, 0, 46, 60
1, 47963, Note_off_c, 0, 49, 63
1, 47983, Note_on_c, 0, 61, 86
1, 47987, Note_on_c, 0, 65, 91
1, 47987, Poly_aftertouch_c, 0, 43, 0
1, 47993, Note_on_c, 0, 58, 97
1, 47999, Note_on_c, 0, 53, 94
1, 48005, Note_on_c, 0, 46, 86
1, 48006, Note_on_c, 0, 41, 80
1, 48006, Note_on_c, 0, 49, 77
1, 48120, Note_on_c, 0, 43, 31
1, 48180, Note_off_c, 0, 46, 58
1, 48195, Note_off_c, 0, 61, 60
1, 48198, Note_off_c, 0, 58, 61
1, 48216, Note_off_c, 0, 53, 61
1, 48216, Note_off_c, 0, 49, 51
1, 48237, Note_off_c, 0, 41, 46
1, 48238, Note_off_c, 0, 65, 54
1, 48260, Poly_aftertouch_c, 0, 64, 0
1, 48273, Note_off_c, 0, 43, 0
1, 48282, Note_on_c, 0, 53, 89
1, 48282, Note_on_c, 0, 65, 79
1, 48285, Note_on_c, 0, 46, 94
1, 48287, Note_on_c, 0, 49, 79
1, 48289, Note_on_c, 0, 58, 96
1, 48291, Note_on_c, 0, 61, 86
1, 48297, Poly_aftertouch_c, 0, 64, 127
1, 48298, Note_off_c, 0, 53, 76
1, 48310, Poly_aftertouch_c, 0, 43, 127
1, 48311, Note_off_c, 0, 49, 70
1, 48326, Note_off_c, 0, 46, 65
1, 48327, Note_off_c, 0, 58, 65
1, 48336, Poly_aftertouch_c, 0, 43, 0
1, 48347, Note_off_c, 0, 61, 62
1, 48359, Poly_aftertouch_c, 0, 64, 0
1, 48366, Poly_aftertouch_c, 0, 43, 0
1, 48490, Control_c, 0, 64, 63
1, 48502, Note_on_c, 0, 56, 102
1, 48506, Control_c, 0, 64, 0
1, 48507, Note_on_c, 0, 61, 101
1, 48507, Note_on_c, 0, 68, 89
1, 48509, Note_on_c, 0, 44, 111
1, 48524, Note_off_c, 0, 65, 64
1, 48526, Note_on_c, 0, 32, 63
1, 48539, Note_off_c, 0, 56, 67
1, 48547, Note_off_c, 0, 61, 67
1, 48547, Note_off_c, 0, 68, 64
1, 48550, Note_off_c, 0, 44, 66
1, 48550, Control_c, 0, 64, 57
1, 48560, Note_off_c, 0, 32, 63
1, 48565, Control_c, 0, 64, 93
1, 48580, Control_c, 0, 64, 127
1, 48870, Note_on_c, 0, 53, 74
1, 48875, Note_on_c, 0, 70, 93
1, 48876, Note_on_c, 0, 77, 87
1, 48878, Note_on_c, 0, 61, 74
1, 48878, Note_on_c, 0, 58, 75
1, 48878, Note_on_c, 0, 65, 79
1, 48881, Note_on_c, 0, 73, 83
1, 48899, Note_on_c, 0, 76, 54
1, 48918, Note_off_c, 0, 65, 66
1, 48924, Note_off_c, 0, 76, 39
1, 49113, Note_off_c, 0, 77, 53
1, 49150, Note_on_c, 0, 76, 49
1, 49163, Note_off_c, 0, 70, 60
1, 49167, Note_off_c, 0, 53, 61
1, 49174, Note_off_c, 0, 73, 57
1, 49194, Note_off_c, 0, 76, 56
1, 49206, Note_off_c, 0, 61, 61
1, 49210, Note_off_c, 0, 58, 62
1, 49249, Note_on_c, 0, 77, 95
1, 49256, Note_on_c, 0, 65, 90
1, 49257, Note_on_c, 0, 70, 90
1, 49257, Note_on_c, 0, 73, 91
1, 49260, Note_on_c, 0, 61, 66
1, 49264, Note_on_c, 0, 53, 73
1, 49266, Note_on_c, 0, 58, 61
1, 49499, Note_off_c, 0, 77, 52
1, 49516, Note_off_c, 0, 53, 61
1, 49525, Note_off_c, 0, 73, 55
1, 49531, Note_off_c, 0, 70, 60
1, 49535, Note_off_c, 0, 65, 61
1, 49537, Note_off_c, 0, 58, 39
1, 49549, Note_off_c, 0, 61, 62
1, 49587, Note_on_c, 0, 77, 97
1, 49591, Note_on_c, 0, 70, 88
1, 49592, Note_on_c, 0, 73, 92
1, 49593, Poly_aftertouch_c, 0, 61, 0
1, 49594, Note_on_c, 0, 65, 93
1, 49596, Note_on_c, 0, 58, 87
1, 49598, Note_on_c, 0, 61, 72
1, 49606, Note_on_c, 0, 53, 76
1, 49677, Note_off_c, 0, 53, 62
1, 49710, Note_off_c, 0, 77, 60
1, 49727, Note_off_c, 0, 65, 57
1, 49797, Note_off_c, 0, 70, 58
1, 49802, Note_on_c, 0, 55, 14
1, 49806, Note_off_c, 0, 73, 61
1, 49817, Note_off_c, 0, 61, 61
1, 49820, Note_off_c, 0, 58, 61
1, 49832, Poly_aftertouch_c, 0, 76, 127
1, 49860, Note_on_c, 0, 65, 89
1, 49862, Note_on_c, 0, 58, 80
1, 49862, Note_on_c, 0, 61, 74
1, 49865, Note_off_c, 0, 55, 51
1, 49867, Note_on_c, 0, 53, 78
1, 49872, Note_on_c, 0, 77, 87
1, 49873, Note_on_c, 0, 73, 90
1, 49873, Poly_aftertouch_c, 0, 76, 0
1, 49875, Note_on_c, 0, 70, 95
1, 49880, Note_off_c, 0, 65, 72
1, 49886, Note_off_c, 0, 61, 67
1, 49894, Note_off_c, 0, 77, 67
1, 49897, Note_off_c, 0, 58, 66
1, 49897, Note_off_c, 0, 53, 68
1, 49901, Note_off_c, 0, 70, 65
1, 49909, Note_off_c, 0, 73, 60
1, 50076, Note_on_c, 0, 56, 16
1, 50113, Note_on_c, 0, 58, 75
1, 50115, Control_c, 0, 64, 99
1, 50124, Note_on_c, 0, 34, 108
1, 50129, Note_on_c, 0, 46, 96
1, 50129, Control_c, 0, 64, 54
1, 50138, Note_on_c, 0, 22, 62
1, 50144, Control_c, 0, 64, 0
1, 50151, Poly_aftertouch_c, 0, 27, 0
1, 50152, Note_off_c, 0, 56, 40
1, 50163, Note_off_c, 0, 46, 68
1, 50165, Note_off_c, 0, 34, 64
1, 50174, Note_off_c, 0, 22, 59
1, 50174, Control_c, 0, 64, 36
1, 50179, Note_off_c, 0, 58, 64
1, 50189, Control_c, 0, 64, 65
1, 50203, Control_c, 0, 64, 93
1, 50218, Control_c, 0, 64, 127
1, 50385, Note_on_c, 0, 53, 79
1, 50561, Note_on_c, 0, 61, 80
1, 50562, Note_on_c, 0, 65, 74
1, 50566, Note_on_c, 0, 89, 112
1, 50628, Note_off_c, 0, 53, 60
1, 50673, Note_on_c, 0, 87, 91
1, 50680, Note_off_c, 0, 61, 62
1, 50688, Note_off_c, 0, 89, 59
1, 50705, Note_on_c, 0, 53, 66
1, 50714, Note_off_c, 0, 65, 60
1, 50747, Note_on_c, 0, 86, 74
1, 50759, Note_off_c, 0, 87, 63
1, 50785, Note_off_c, 0, 86, 66
1, 50791, Note_on_c, 0, 60, 36
1, 50821, Note_on_c, 0, 65, 79
1, 50827, Note_on_c, 0, 85, 76
1, 50859, Note_on_c, 0, 64, 57
1, 50885, Note_on_c, 0, 82, 83
1, 50893, Note_off_c, 0, 60, 64
1, 50920, Note_off_c, 0, 64, 58
1, 50926, Note_off_c, 0, 85, 66
1, 50929, Note_off_c, 0, 65, 51
1, 50944, Note_on_c, 0, 78, 80
1, 50947, Note_on_c, 0, 58, 71
1, 50950, Note_off_c, 0, 82, 66
1, 50957, Note_off_c, 0, 53, 54
1, 50978, Note_off_c, 0, 78, 63
1, 50981, Note_on_c, 0, 77, 99
1, 51018, Note_off_c, 0, 77, 68
1, 51036, Note_on_c, 0, 65, 77
1, 51040, Note_off_c, 0, 58, 62
1, 51043, Note_on_c, 0, 75, 88
1, 51086, Note_off_c, 0, 75, 65
1, 51102, Note_on_c, 0, 74, 89
1, 51103, Note_off_c, 0, 65, 61
1, 51130, Control_c, 0, 64, 99
1, 51136, Note_off_c, 0, 74, 61
1, 51139, Note_on_c, 0, 61, 44
1, 51145, Control_c, 0, 64, 67
1, 51157, Note_on_c, 0, 58, 59
1, 51158, Note_on_c, 0, 73, 90
1, 51159, Control_c, 0, 64, 45
1, 51174, Control_c, 0, 64, 34
1, 51187, Note_on_c, 0, 72, 66
1, 51189, Control_c, 0, 64, 47
1, 51203, Control_c, 0, 64, 62
1, 51206, Note_on_c, 0, 70, 78
1, 51206, Note_off_c, 0, 61, 64
1, 51213, Note_off_c, 0, 58, 65
1, 51218, Control_c, 0, 64, 73
1, 51233, Control_c, 0, 64, 101
1, 51236, Note_off_c, 0, 73, 59
1, 51244, Note_off_c, 0, 72, 63
1, 51248, Control_c, 0, 64, 127
1, 51251, Note_on_c, 0, 69, 46
1, 51259, Note_on_c, 0, 66, 75
1, 51260, Note_off_c, 0, 70, 63
1, 51278, Note_off_c, 0, 69, 54
1, 51285, Note_on_c, 0, 55, 65
1, 51287, Note_off_c, 0, 66, 66
1, 51295, Note_on_c, 0, 65, 88
1, 51332, Note_off_c, 0, 65, 64
1, 51350, Note_on_c, 0, 51, 73
1, 51361, Note_on_c, 0, 63, 82
1, 51373, Note_off_c, 0, 55, 60
1, 51397, Note_on_c, 0, 64, 47
1, 51409, Note_off_c, 0, 63, 64
1, 51412, Note_off_c, 0, 51, 64
1, 51419, Note_on_c, 0, 62, 88
1, 51423, Note_off_c, 0, 64, 59
1, 51424, Note_on_c, 0, 47, 62
1, 51451, Note_off_c, 0, 62, 67
1, 51477, Note_on_c, 0, 61, 88
1, 51482, Note_off_c, 0, 47, 64
1, 51519, Note_on_c, 0, 58, 84
1, 51558, Note_off_c, 0, 61, 65
1, 51567, Note_on_c, 0, 54, 83
1, 51578, Note_off_c, 0, 58, 65
1, 51603, Note_off_c, 0, 54, 68
1, 51613, Note_on_c, 0, 53, 92
1, 51652, Note_off_c, 0, 53, 64
1, 51674, Note_on_c, 0, 51, 90
1, 51731, Control_c, 0, 64, 66
1, 51732, Note_off_c, 0, 51, 63
1, 51738, Note_on_c, 0, 50, 85
1, 51746, Control_c, 0, 64, 0
1, 51787, Note_on_c, 0, 49, 103
1, 51792, Note_on_c, 0, 37, 99
1, 51800, Note_on_c, 0, 25, 76
1, 51801, Note_off_c, 0, 50, 67
1, 51811, Note_off_c, 0, 49, 70
1, 51827, Note_off_c, 0, 25, 58
1, 51834, Control_c, 0, 64, 127
1, 51839, Note_off_c, 0, 37, 65
1, 52182, Note_on_c, 0, 65, 78
1, 52186, Note_on_c, 0, 53, 78
1, 52190, Note_on_c, 0, 58, 78
1, 52194, Note_on_c, 0, 61, 72
1, 52196, Note_on_c, 0, 41, 62
1, 52197, Note_on_c, 0, 46, 66
1, 52202, Note_on_c, 0, 49, 64
1, 52537, Note_off_c, 0, 49, 58
1, 52542, Note_off_c, 0, 41, 63
1, 52551, Note_off_c, 0, 53, 59
1, 52555, Note_off_c, 0, 46, 61
1, 52557, Note_off_c, 0, 65, 56
1, 52559, Note_off_c, 0, 58, 62
1, 52567, Note_off_c, 0, 61, 60
1, 52625, Note_on_c, 0, 65, 85
1, 52631, Note_on_c, 0, 58, 86
1, 52634, Note_on_c, 0, 53, 80
1, 52634, Note_on_c, 0, 61, 78
1, 52638, Note_on_c, 0, 46, 67
1, 52641, Note_on_c, 0, 49, 70
1, 52642, Note_on_c, 0, 41, 72
1, 52840, Note_off_c, 0, 41, 62
1, 52848, Note_off_c, 0, 46, 61
1, 52855, Note_off_c, 0, 49, 61
1, 52855, Note_off_c, 0, 53, 60
1, 52856, Note_off_c, 0, 58, 62
1, 52866, Note_off_c, 0, 65, 59
1, 52872, Note_off_c, 0, 61, 60
1, 52940, Note_on_c, 0, 65, 89
1, 52943, Note_on_c, 0, 53, 86
1, 52944, Note_on_c, 0, 41, 77
1, 52944, Note_on_c, 0, 61, 78
1, 52946, Note_on_c, 0, 58, 89
1, 52951, Note_on_c, 0, 46, 77
1, 52958, Note_on_c, 0, 49, 74
1, 53104, Note_off_c, 0, 65, 57
1, 53135, Note_off_c, 0, 46, 50
1, 53139, Note_off_c, 0, 58, 60
1, 53144, Poly_aftertouch_c, 0, 43, 127
1, 53150, Note_off_c, 0, 53, 61
1, 53153, Note_off_c, 0, 61, 58
1, 53159, Note_off_c, 0, 49, 52
1, 53161, Note_off_c, 0, 41, 59
1, 53192, Poly_aftertouch_c, 0, 43, 0
1, 53224, Note_on_c, 0, 53, 98
1, 53225, Note_on_c, 0, 49, 74
1, 53227, Note_on_c, 0, 65, 87
1, 53228, Note_on_c, 0, 61, 93
1, 53229, Note_on_c, 0, 46, 78
1, 53230, Note_on_c, 0, 58, 94
1, 53248, Note_off_c, 0, 58, 73
1, 53257, Note_off_c, 0, 53, 65
1, 53260, Note_off_c, 0, 46, 66
1, 53262, Note_on_c, 0, 64, 34
1, 53267, Note_off_c, 0, 49, 62
1, 53269, Note_off_c, 0, 61, 65
1, 53273, Note_off_c, 0, 65, 66
1, 53296, Note_off_c, 0, 64, 52
1, 53405, Control_c, 0, 64, 83
1, 53420, Control_c, 0, 64, 0
1, 53429, Note_on_c, 0, 56, 104
1, 53429, Note_on_c, 0, 80, 96
1, 53430, Note_on_c, 0, 73, 92
1, 53430, Note_on_c, 0, 68, 102
1, 53442, Note_on_c, 0, 44, 58
1, 53445, Note_on_c, 0, 53, 57
1, 53450, Control_c, 0, 64, 35
1, 53454, Note_off_c, 0, 56, 69
1, 53465, Control_c, 0, 64, 66
1, 53469, Note_off_c, 0, 44, 58
1, 53469, Note_off_c, 0, 53, 58
1, 53479, Note_on_c, 0, 78, 29
1, 53479, Control_c, 0, 64, 127
1, 53525, Note_off_c, 0, 78, 33
1, 53549, Poly_aftertouch_c, 0, 67, 0
1, 53579, Note_off_c, 0, 73, 57
1, 53582, Note_off_c, 0, 68, 59
1, 53734, Note_on_c, 0, 77, 84
1, 53738, Note_on_c, 0, 70, 79
1, 53740, Note_on_c, 0, 73, 76
1, 53743, Note_on_c, 0, 65, 70
1, 53743, Note_on_c, 0, 53, 69
1, 53747, Note_on_c, 0, 61, 70
1, 53751, Note_on_c, 0, 58, 64
1, 53777, Note_off_c, 0, 80, 63
1, 53937, Note_off_c, 0, 77, 63
1, 53946, Note_off_c, 0, 73, 60
1, 53972, Note_off_c, 0, 65, 61
1, 53976, Note_off_c, 0, 53, 64
1, 53983, Note_off_c, 0, 61, 60
1, 53987, Note_off_c, 0, 58, 62
1, 53996, Note_off_c, 0, 70, 57
1, 54089, Note_on_c, 0, 77, 90
1, 54095, Note_on_c, 0, 70, 88
1, 54098, Note_on_c, 0, 73, 85
1, 54101, Note_on_c, 0, 65, 78
1, 54104, Note_on_c, 0, 53, 70
1, 54106, Note_on_c, 0, 61, 71
1, 54107, Note_on_c, 0, 58, 72
1, 54229, Note_off_c, 0, 77, 52
1, 54259, Note_off_c, 0, 73, 59
1, 54320, Note_off_c, 0, 53, 62
1, 54326, Note_off_c, 0, 70, 53
1, 54335, Note_off_c, 0, 58, 60
1, 54336, Note_off_c, 0, 65, 61
1, 54346, Note_off_c, 0, 61, 61
1, 54390, Note_on_c, 0, 77, 88
1, 54393, Note_on_c, 0, 73, 90
1, 54394, Note_on_c, 0, 70, 91
1, 54400, Note_on_c, 0, 65, 84
1, 54402, Note_on_c, 0, 53, 81
1, 54403, Note_on_c, 0, 61, 72
1, 54407, Note_on_c, 0, 58, 80
1, 54509, Note_off_c, 0, 77, 62
1, 54512, Note_off_c, 0, 53, 61
1, 54558, Note_off_c, 0, 58, 60
1, 54558, Note_off_c, 0, 73, 57
1, 54561, Note_off_c, 0, 65, 57
1, 54584, Note_off_c, 0, 70, 59
1, 54587, Note_off_c, 0, 61, 60
1, 54626, Poly_aftertouch_c, 0, 76, 127
1, 54652, Note_on_c, 0, 65, 90
1, 54652, Note_on_c, 0, 53, 79
1, 54658, Note_on_c, 0, 61, 79
1, 54661, Note_on_c, 0, 58, 90
1, 54664, Note_on_c, 0, 73, 96
1, 54667, Note_off_c, 0, 65, 75
1, 54668, Note_on_c, 0, 77, 85
1, 54670, Note_on_c, 0, 70, 87
1, 54676, Note_off_c, 0, 61, 73
1, 54682, Note_off_c, 0, 58, 71
1, 54686, Note_off_c, 0, 70, 76
1, 54688, Note_off_c, 0, 77, 71
1, 54694, Note_off_c, 0, 53, 65
1, 54698, Note_off_c, 0, 73, 68
1, 54712, Poly_aftertouch_c, 0, 76, 0
1, 54860, Note_on_c, 0, 27, 39
1, 54901, Note_on_c, 0, 30, 46
1, 54904, Note_on_c, 0, 49, 109
1, 54904, Control_c, 0, 64, 44
1, 54908, Note_on_c, 0, 37, 102
1, 54917, Note_on_c, 0, 25, 70
1, 54919, Control_c, 0, 64, 0
1, 54925, Note_off_c, 0, 27, 59
1, 54935, Note_off_c, 0, 49, 70
1, 54938, Note_off_c, 0, 30, 60
1, 54941, Note_off_c, 0, 25, 60
1, 54948, Control_c, 0, 64, 38
1, 54953, Note_off_c, 0, 37, 63
1, 54963, Control_c, 0, 64, 70
1, 54978, Control_c, 0, 64, 127
1, 55180, Note_on_c, 0, 53, 72
1, 55273, Note_on_c, 0, 77, 103
1, 55353, Note_off_c, 0, 77, 55
1, 55392, Note_on_c, 0, 89, 101
1, 55406, Note_on_c, 0, 61, 74
1, 55407, Note_on_c, 0, 65, 75
1, 55409, Note_on_c, 0, 85, 69
1, 55427, Note_off_c, 0, 85, 68
1, 55443, Note_off_c, 0, 53, 62
1, 55487, Note_off_c, 0, 89, 55
1, 55493, Note_on_c, 0, 87, 96
1, 55508, Note_off_c, 0, 61, 62
1, 55542, Note_on_c, 0, 53, 71
1, 55552, Note_off_c, 0, 65, 55
1, 55579, Note_on_c, 0, 55, 38
1, 55579, Note_off_c, 0, 87, 65
1, 55581, Note_on_c, 0, 86, 82
1, 55620, Note_off_c, 0, 55, 32
1, 55624, Note_off_c, 0, 86, 67
1, 55630, Note_on_c, 0, 60, 43
1, 55652, Note_on_c, 0, 85, 79
1, 55654, Note_on_c, 0, 65, 78
1, 55668, Note_on_c, 0, 64, 72
1, 55700, Note_on_c, 0, 82, 88
1, 55719, Note_off_c, 0, 60, 63
1, 55740, Note_off_c, 0, 64, 60
1, 55741, Note_off_c, 0, 85, 66
1, 55753, Note_on_c, 0, 78, 76
1, 55760, Note_off_c, 0, 65, 57
1, 55761, Note_off_c, 0, 82, 66
1, 55769, Note_on_c, 0, 58, 67
1, 55779, Note_off_c, 0, 78, 68
1, 55790, Note_on_c, 0, 77, 96
1, 55823, Note_off_c, 0, 53, 41
1, 55826, Note_off_c, 0, 77, 68
1, 55851, Note_off_c, 0, 58, 63
1, 55853, Note_on_c, 0, 75, 85
1, 55861, Note_on_c, 0, 65, 77
1, 55896, Note_off_c, 0, 75, 65
1, 55907, Note_on_c, 0, 74, 88
1, 55931, Note_off_c, 0, 74, 66
1, 55932, Note_off_c, 0, 65, 55
1, 55966, Note_on_c, 0, 73, 89
1, 55967, Note_on_c, 0, 58, 72
1, 55969, Note_on_c, 0, 61, 69
1, 55978, Control_c, 0, 64, 84
1, 55993, Control_c, 0, 64, 60
1, 56008, Control_c, 0, 64, 35
1, 56018, Note_on_c, 0, 70, 77
1, 56023, Control_c, 0, 64, 43
1, 56027, Note_off_c, 0, 61, 63
1, 56027, Note_off_c, 0, 58, 65
1, 56038, Control_c, 0, 64, 55
1, 56053, Note_off_c, 0, 73, 67
1, 56053, Control_c, 0, 64, 65
1, 56067, Control_c, 0, 64, 75
1, 56071, Note_on_c, 0, 66, 71
1, 56074, Note_off_c, 0, 70, 66
1, 56082, Control_c, 0, 64, 100
1, 56103, Note_on_c, 0, 57, 76
1, 56104, Note_off_c, 0, 66, 68
1, 56104, Control_c, 0, 64, 127
1, 56112, Note_on_c, 0, 67, 84
1, 56148, Note_off_c, 0, 67, 64
1, 56160, Note_off_c, 0, 57, 64
1, 56187, Note_on_c, 0, 64, 61
1, 56190, Note_on_c, 0, 65, 51
1, 56213, Note_on_c, 0, 52, 53
1, 56215, Note_on_c, 0, 53, 29
1, 56220, Note_off_c, 0, 65, 64
1, 56232, Note_on_c, 0, 48, 68
1, 56241, Note_off_c, 0, 52, 63
1, 56258, Note_off_c, 0, 53, 48
1, 56262, Note_off_c, 0, 48, 64
1, 56275, Note_off_c, 0, 64, 70
1, 56305, Note_on_c, 0, 61, 87
1, 56345, Note_on_c, 0, 58, 83
1, 56395, Note_off_c, 0, 61, 64
1, 56407, Note_on_c, 0, 55, 79
1, 56407, Note_off_c, 0, 58, 63
1, 56432, Note_off_c, 0, 55, 67
1, 56445, Note_on_c, 0, 53, 82
1, 56476, Note_off_c, 0, 53, 65
1, 56511, Note_on_c, 0, 51, 88
1, 56566, Note_off_c, 0, 51, 65
1, 56593, Note_on_c, 0, 50, 82
1, 56697, Note_on_c, 0, 42, 63
1, 56707, Note_on_c, 0, 30, 63
1, 56712, Control_c, 0, 64, 84
1, 56727, Control_c, 0, 64, 58
1, 56742, Control_c, 0, 64, 0
1, 56762, Note_on_c, 0, 49, 80
1, 56775, Note_off_c, 0, 50, 64
1, 56829, Note_off_c, 0, 49, 63
1, 56830, Control_c, 0, 64, 54
1, 56852, Control_c, 0, 64, 70
1, 56861, Note_off_c, 0, 30, 63
1, 56867, Control_c, 0, 64, 89
1, 56882, Control_c, 0, 64, 127
1, 56900, Note_off_c, 0, 42, 64
1, 57106, Note_on_c, 0, 49, 49
1, 57168, Note_on_c, 0, 78, 24
1, 57205, Note_on_c, 0, 58, 74
1, 57217, Note_on_c, 0, 77, 62
1, 57227, Note_on_c, 0, 73, 49
1, 57227, Note_off_c, 0, 49, 60
1, 57274, Note_off_c, 0, 73, 61
1, 57287, Note_off_c, 0, 77, 63
1, 57288, Note_off_c, 0, 78, 26
1, 57290, Note_on_c, 0, 68, 65
1, 57369, Note_on_c, 0, 51, 72
1, 57369, Note_off_c, 0, 68, 57
1, 57374, Note_on_c, 0, 78, 84
1, 57381, Note_off_c, 0, 58, 62
1, 57401, Control_c, 0, 64, 106
1, 57416, Control_c, 0, 64, 70
1, 57431, Control_c, 0, 64, 57
1, 57441, Note_on_c, 0, 60, 83
1, 57445, Note_on_c, 0, 75, 70
1, 57445, Control_c, 0, 64, 51
1, 57447, Note_on_c, 0, 72, 54
1, 57460, Control_c, 0, 64, 53
1, 57475, Control_c, 0, 64, 58
1, 57481, Note_on_c, 0, 71, 29
1, 57481, Note_off_c, 0, 78, 61
1, 57490, Control_c, 0, 64, 64
1, 57492, Note_off_c, 0, 51, 63
1, 57505, Note_off_c, 0, 75, 62
1, 57505, Control_c, 0, 64, 70
1, 57507, Note_off_c, 0, 72, 61
1, 57508, Note_on_c, 0, 66, 78
1, 57517, Note_off_c, 0, 71, 33
1, 57520, Control_c, 0, 64, 80
1, 57535, Control_c, 0, 64, 99
1, 57549, Control_c, 0, 64, 127
1, 57585, Note_off_c, 0, 66, 57
1, 57597, Note_on_c, 0, 78, 87
1, 57618, Note_on_c, 0, 53, 75
1, 57631, Control_c, 0, 64, 83
1, 57642, Note_on_c, 0, 61, 84
1, 57645, Control_c, 0, 64, 69
1, 57649, Note_on_c, 0, 70, 81
1, 57652, Note_on_c, 0, 73, 77
1, 57660, Control_c, 0, 64, 68
1, 57675, Control_c, 0, 64, 75
1, 57690, Note_off_c, 0, 60, 53
1, 57690, Control_c, 0, 64, 99
1, 57694, Note_off_c, 0, 61, 63
1, 57696, Note_off_c, 0, 78, 59
1, 57705, Control_c, 0, 64, 127
1, 57719, Note_off_c, 0, 73, 61
1, 57723, Note_on_c, 0, 66, 81
1, 57736, Note_off_c, 0, 53, 63
1, 57751, Note_off_c, 0, 70, 61
1, 57806, Note_on_c, 0, 78, 81
1, 57829, Note_off_c, 0, 66, 59
1, 57883, Control_c, 0, 64, 68
1, 57889, Note_on_c, 0, 44, 69
1, 57889, Note_on_c, 0, 68, 69
1, 57894, Note_on_c, 0, 72, 61
1, 57898, Control_c, 0, 64, 47
1, 57900, Note_on_c, 0, 54, 77
1, 57910, Note_off_c, 0, 78, 51
1, 57912, Control_c, 0, 64, 37
1, 57927, Control_c, 0, 64, 49
1, 57942, Control_c, 0, 64, 62
1, 57955, Note_off_c, 0, 44, 61
1, 57957, Control_c, 0, 64, 72
1, 57969, Note_off_c, 0, 72, 64
1, 57972, Control_c, 0, 64, 94
1, 57976, Note_on_c, 0, 63, 70
1, 57978, Note_off_c, 0, 54, 64
1, 57982, Note_off_c, 0, 68, 61
1, 57987, Control_c, 0, 64, 127
1, 58010, Note_off_c, 0, 63, 64
1, 58015, Poly_aftertouch_c, 0, 43, 0
1, 58095, Note_on_c, 0, 51, 69
1, 58099, Note_on_c, 0, 80, 66
1, 58122, Note_on_c, 0, 78, 17
1, 58162, Note_on_c, 0, 60, 84
1, 58169, Note_off_c, 0, 80, 61
1, 58171, Note_on_c, 0, 75, 72
1, 58204, Note_off_c, 0, 51, 62
1, 58215, Note_on_c, 0, 70, 79
1, 58226, Note_off_c, 0, 78, 59
1, 58253, Note_off_c, 0, 75, 58
1, 58293, Note_on_c, 0, 80, 74
1, 58307, Note_off_c, 0, 70, 62
1, 58314, Note_on_c, 0, 53, 78
1, 58324, Note_off_c, 0, 60, 57
1, 58351, Control_c, 0, 64, 84
1, 58360, Note_on_c, 0, 77, 78
1, 58366, Control_c, 0, 64, 58
1, 58372, Note_on_c, 0, 73, 79
1, 58380, Note_on_c, 0, 61, 90
1, 58381, Control_c, 0, 64, 27
1, 58396, Control_c, 0, 64, 31
1, 58411, Control_c, 0, 64, 46
1, 58424, Note_off_c, 0, 80, 61
1, 58425, Control_c, 0, 64, 62
1, 58432, Note_off_c, 0, 53, 65
1, 58435, Note_off_c, 0, 77, 63
1, 58439, Note_on_c, 0, 70, 87
1, 58440, Control_c, 0, 64, 72
1, 58455, Control_c, 0, 64, 114
1, 58458, Note_off_c, 0, 61, 63
1, 58462, Note_off_c, 0, 73, 62
1, 58469, Control_c, 0, 64, 127
1, 58524, Note_off_c, 0, 70, 60
1, 58524, Note_on_c, 0, 80, 88
1, 58557, Note_on_c, 0, 63, 90
1, 58578, Note_on_c, 0, 72, 78
1, 58583, Note_on_c, 0, 75, 79
1, 58598, Note_off_c, 0, 63, 65
1, 58624, Note_off_c, 0, 80, 61
1, 58651, Note_on_c, 0, 68, 88
1, 58697, Note_off_c, 0, 72, 61
1, 58729, Note_off_c, 0, 75, 61
1, 58737, Note_on_c, 0, 80, 80
1, 58744, Note_off_c, 0, 68, 60
1, 58766, Control_c, 0, 64, 79
1, 58778, Note_on_c, 0, 46, 68
1, 58781, Control_c, 0, 64, 59
1, 58784, Note_on_c, 0, 56, 79
1, 58795, Control_c, 0, 64, 34
1, 58810, Control_c, 0, 64, 42
1, 58818, Note_off_c, 0, 46, 64
1, 58825, Control_c, 0, 64, 58
1, 58828, Note_on_c, 0, 70, 73
1, 58830, Note_on_c, 0, 73, 66
1, 58834, Note_off_c, 0, 80, 63
1, 58840, Control_c, 0, 64, 67
1, 58841, Note_off_c, 0, 56, 64
1, 58855, Control_c, 0, 64, 81
1, 58869, Note_off_c, 0, 70, 61
1, 58869, Control_c, 0, 64, 127
1, 58871, Note_off_c, 0, 73, 61
1, 58954, Note_on_c, 0, 53, 81
1, 58960, Note_on_c, 0, 82, 82
1, 59022, Note_on_c, 0, 61, 92
1, 59028, Note_on_c, 0, 80, 78
1, 59032, Note_on_c, 0, 77, 80
1, 59046, Note_off_c, 0, 53, 65
1, 59057, Note_off_c, 0, 82, 63
1, 59091, Note_off_c, 0, 61, 62
1, 59098, Note_off_c, 0, 77, 63
1, 59101, Note_on_c, 0, 73, 82
1, 59105, Note_off_c, 0, 80, 63
1, 59167, Note_off_c, 0, 73, 62
1, 59169, Note_on_c, 0, 82, 87
1, 59179, Note_on_c, 0, 54, 80
1, 59196, Note_on_c, 0, 56, 71
1, 59204, Control_c, 0, 64, 110
1, 59219, Control_c, 0, 64, 67
1, 59234, Control_c, 0, 64, 33
1, 59239, Note_on_c, 0, 78, 81
1, 59243, Note_on_c, 0, 75, 86
1, 59248, Control_c, 0, 64, 0
1, 59263, Control_c, 0, 64, 26
1, 59278, Note_on_c, 0, 65, 72
1, 59278, Control_c, 0, 64, 56
1, 59281, Note_on_c, 0, 64, 77
1, 59283, Note_off_c, 0, 56, 60
1, 59292, Control_c, 0, 64, 67
1, 59293, Note_off_c, 0, 82, 62
1, 59297, Note_off_c, 0, 54, 64
1, 59307, Note_off_c, 0, 64, 68
1, 59307, Control_c, 0, 64, 80
1, 59308, Note_on_c, 0, 70, 88
1, 59312, Note_off_c, 0, 78, 63
1, 59322, Control_c, 0, 64, 127
1, 59328, Note_off_c, 0, 75, 62
1, 59385, Note_on_c, 0, 82, 89
1, 59401, Note_off_c, 0, 70, 64
1, 59415, Note_off_c, 0, 65, 63
1, 59427, Note_on_c, 0, 56, 63
1, 59439, Note_on_c, 0, 77, 83
1, 59448, Note_on_c, 0, 73, 92
1, 59452, Note_off_c, 0, 56, 60
1, 59496, Note_off_c, 0, 82, 61
1, 59516, Note_on_c, 0, 70, 88
1, 59564, Note_off_c, 0, 73, 57
1, 59621, Note_on_c, 0, 82, 89
1, 59629, Note_on_c, 0, 48, 75
1, 59630, Note_off_c, 0, 77, 61
1, 59641, Note_on_c, 0, 58, 73
1, 59641, Note_off_c, 0, 70, 61
1, 59648, Control_c, 0, 64, 87
1, 59663, Control_c, 0, 64, 51
1, 59678, Control_c, 0, 64, 0
1, 59718, Note_off_c, 0, 48, 64
1, 59722, Note_off_c, 0, 82, 64
1, 59723, Control_c, 0, 64, 47
1, 59723, Note_on_c, 0, 72, 77
1, 59732, Note_on_c, 0, 75, 71
1, 59737, Control_c, 0, 64, 65
1, 59743, Note_off_c, 0, 58, 65
1, 59752, Control_c, 0, 64, 84
1, 59767, Control_c, 0, 64, 127
1, 59778, Note_off_c, 0, 72, 64
1, 59790, Note_on_c, 0, 66, 72
1, 59796, Note_off_c, 0, 75, 62
1, 59814, Note_off_c, 0, 66, 67
1, 59880, Note_on_c, 0, 60, 66
1, 59900, Note_on_c, 0, 84, 82
1, 59962, Note_off_c, 0, 60, 66
1, 59967, Note_on_c, 0, 68, 82
1, 59977, Note_on_c, 0, 82, 75
1, 59984, Note_on_c, 0, 78, 83
1, 59998, Note_off_c, 0, 84, 53
1, 60013, Note_off_c, 0, 68, 63
1, 60050, Note_on_c, 0, 72, 83
1, 60074, Note_off_c, 0, 78, 61
1, 60084, Note_off_c, 0, 82, 64
1, 60127, Note_on_c, 0, 84, 85
1, 60173, Note_off_c, 0, 72, 59
1, 60175, Control_c, 0, 64, 71
1, 60189, Control_c, 0, 64, 46
1, 60195, Note_on_c, 0, 70, 83
1, 60204, Control_c, 0, 64, 38
1, 60214, Note_on_c, 0, 77, 71
1, 60219, Note_on_c, 0, 80, 76
1, 60219, Control_c, 0, 64, 53
1, 60232, Control_c, 0, 64, 63
1, 60247, Control_c, 0, 64, 72
1, 60262, Control_c, 0, 64, 97
1, 60277, Control_c, 0, 64, 127
1, 60281, Note_on_c, 0, 72, 78
1, 60292, Note_off_c, 0, 84, 62
1, 60293, Note_off_c, 0, 77, 63
1, 60298, Note_off_c, 0, 70, 64
1, 60355, Note_off_c, 0, 72, 61
1, 60380, Note_on_c, 0, 63, 65
1, 60399, Note_on_c, 0, 84, 82
1, 60411, Note_off_c, 0, 80, 61
1, 60480, Note_on_c, 0, 72, 71
1, 60481, Note_off_c, 0, 63, 62
1, 60504, Note_off_c, 0, 72, 69
1, 60558, Note_on_c, 0, 78, 79
1, 60571, Note_off_c, 0, 84, 54
1, 60691, Note_on_c, 0, 75, 80
1, 60695, Note_off_c, 0, 78, 62
1, 60715, Control_c, 0, 64, 78
1, 60730, Control_c, 0, 64, 58
1, 60744, Control_c, 0, 64, 39
1, 60753, Note_on_c, 0, 60, 53
1, 60757, Note_on_c, 0, 53, 49
1, 60759, Control_c, 0, 64, 46
1, 60774, Control_c, 0, 64, 59
1, 60789, Control_c, 0, 64, 68
1, 60804, Control_c, 0, 64, 82
1, 60818, Control_c, 0, 64, 127
1, 60827, Note_off_c, 0, 53, 63
1, 60842, Note_off_c, 0, 60, 64
1, 60871, Note_on_c, 0, 84, 81
1, 60882, Note_off_c, 0, 75, 62
1, 60918, Poly_aftertouch_c, 0, 81, 127
1, 60950, Poly_aftertouch_c, 0, 81, 0
1, 61056, Note_on_c, 0, 69, 61
1, 61145, Note_on_c, 0, 77, 69
1, 61165, Poly_aftertouch_c, 0, 83, 0
1, 61205, Note_off_c, 0, 84, 59
1, 61215, Note_off_c, 0, 69, 62
1, 61222, Note_on_c, 0, 72, 55
1, 61234, Note_off_c, 0, 77, 63
1, 61261, Note_off_c, 0, 72, 65
1, 61320, Note_on_c, 0, 76, 39
1, 61356, Note_off_c, 0, 76, 46
1, 61382, Note_on_c, 0, 80, 67
1, 61410, Note_off_c, 0, 80, 69
1, 61487, Note_on_c, 0, 81, 32
1, 61517, Note_off_c, 0, 81, 53
1, 61532, Note_on_c, 0, 84, 59
1, 61593, Note_on_c, 0, 89, 60
1, 61612, Note_off_c, 0, 84, 56
1, 61715, Control_c, 0, 64, 104
1, 61720, Note_on_c, 0, 65, 54
1, 61724, Note_on_c, 0, 96, 70
1, 61731, Control_c, 0, 64, 71
1, 61746, Control_c, 0, 64, 57
1, 61760, Control_c, 0, 64, 54
1, 61775, Control_c, 0, 64, 58
1, 61790, Control_c, 0, 64, 64
1, 61805, Control_c, 0, 64, 72
1, 61820, Control_c, 0, 64, 86
1, 61834, Control_c, 0, 64, 127
1, 61842, Note_on_c, 0, 66, 40
1, 61883, Note_off_c, 0, 65, 52
1, 61899, Note_off_c, 0, 96, 65
1, 61902, Note_on_c, 0, 90, 68
1, 61908, Note_off_c, 0, 66, 53
1, 61919, Note_off_c, 0, 89, 60
1, 61935, Note_on_c, 0, 70, 42
1, 62007, Note_off_c, 0, 90, 61
1, 62016, Note_on_c, 0, 75, 42
1, 62025, Note_off_c, 0, 70, 45
1, 62064, Note_off_c, 0, 75, 63
1, 62099, Note_on_c, 0, 77, 62
1, 62131, Note_off_c, 0, 77, 65
1, 62180, Note_on_c, 0, 78, 58
1, 62221, Note_off_c, 0, 78, 62
1, 62230, Note_on_c, 0, 63, 44
1, 62256, Note_on_c, 0, 87, 63
1, 62265, Note_on_c, 0, 82, 6
1, 62295, Note_off_c, 0, 82, 41
1, 62322, Note_on_c, 0, 94, 71
1, 62328, Note_off_c, 0, 63, 54
1, 62348, Note_off_c, 0, 87, 63
1, 62380, Note_on_c, 0, 70, 51
1, 62396, Note_off_c, 0, 94, 62
1, 62408, Note_on_c, 0, 89, 74
1, 62456, Note_on_c, 0, 73, 52
1, 62464, Note_off_c, 0, 70, 62
1, 62484, Note_off_c, 0, 73, 67
1, 62487, Note_off_c, 0, 89, 56
1, 62612, Note_on_c, 0, 77, 61
1, 62630, Note_off_c, 0, 77, 64
1, 62634, Note_on_c, 0, 61, 56
1, 62680, Note_on_c, 0, 85, 62
1, 62735, Note_off_c, 0, 85, 63
1, 62736, Note_off_c, 0, 61, 58
1, 62748, Note_on_c, 0, 94, 81
1, 62799, Note_on_c, 0, 66, 50
1, 62813, Note_off_c, 0, 94, 63
1, 62839, Note_on_c, 0, 87, 67
1, 62885, Note_off_c, 0, 66, 61
1, 62888, Note_off_c, 0, 87, 62
1, 62889, Note_on_c, 0, 70, 58
1, 62922, Note_off_c, 0, 70, 67
1, 63019, Note_on_c, 0, 73, 7
1, 63041, Note_on_c, 0, 75, 53
1, 63073, Note_off_c, 0, 75, 61
1, 63077, Note_off_c, 0, 73, 32
1, 63094, Note_on_c, 0, 78, 57
1, 63130, Note_off_c, 0, 78, 65
1, 63145, Note_on_c, 0, 82, 57
1, 63170, Note_on_c, 0, 65, 46
1, 63176, Note_off_c, 0, 82, 67
1, 63254, Note_on_c, 0, 89, 61
1, 63257, Control_c, 0, 64, 110
1, 63267, Note_off_c, 0, 65, 60
1, 63272, Control_c, 0, 64, 73
1, 63287, Control_c, 0, 64, 55
1, 63299, Note_on_c, 0, 58, 48
1, 63302, Control_c, 0, 64, 52
1, 63317, Control_c, 0, 64, 56
1, 63331, Control_c, 0, 64, 63
1, 63346, Control_c, 0, 64, 69
1, 63361, Control_c, 0, 64, 82
1, 63376, Control_c, 0, 64, 127
1, 63384, Note_off_c, 0, 58, 60
1, 63397, Note_on_c, 0, 82, 59
1, 63464, Note_off_c, 0, 89, 63
1, 63497, Note_on_c, 0, 70, 45
1, 63524, Note_off_c, 0, 70, 61
1, 63568, Note_on_c, 0, 73, 55
1, 63593, Note_off_c, 0, 82, 63
1, 63626, Note_off_c, 0, 73, 56
1, 63636, Note_on_c, 0, 77, 67
1, 63675, Note_on_c, 0, 63, 50
1, 63690, Note_off_c, 0, 77, 56
1, 63735, Note_on_c, 0, 82, 28
1, 63741, Note_on_c, 0, 85, 56
1, 63772, Note_off_c, 0, 82, 46
1, 63789, Note_off_c, 0, 63, 56
1, 63815, Note_on_c, 0, 92, 61
1, 63833, Note_on_c, 0, 70, 43
1, 63839, Note_off_c, 0, 85, 64
1, 63891, Note_on_c, 0, 89, 76
1, 63891, Note_off_c, 0, 70, 56
1, 63894, Note_on_c, 0, 73, 47
1, 63902, Note_off_c, 0, 92, 60
1, 63940, Note_off_c, 0, 73, 64
1, 63985, Note_on_c, 0, 75, 65
1, 64019, Note_off_c, 0, 89, 60
1, 64042, Note_off_c, 0, 75, 60
1, 64081, Note_on_c, 0, 77, 62
1, 64104, Note_on_c, 0, 61, 53
1, 64111, Note_off_c, 0, 77, 65
1, 64135, Note_on_c, 0, 80, 33
1, 64154, Note_on_c, 0, 85, 62
1, 64165, Note_off_c, 0, 80, 49
1, 64186, Note_off_c, 0, 61, 59
1, 64189, Note_on_c, 0, 63, 38
1, 64201, Note_on_c, 0, 92, 78
1, 64212, Note_off_c, 0, 85, 64
1, 64228, Note_off_c, 0, 63, 52
1, 64237, Note_on_c, 0, 66, 52
1, 64275, Note_on_c, 0, 87, 79
1, 64283, Note_off_c, 0, 92, 65
1, 64299, Note_off_c, 0, 66, 60
1, 64307, Note_on_c, 0, 70, 53
1, 64346, Note_off_c, 0, 70, 66
1, 64378, Note_on_c, 0, 73, 67
1, 64412, Note_off_c, 0, 73, 65
1, 64447, Note_off_c, 0, 87, 53
1, 64461, Note_on_c, 0, 75, 61
1, 64498, Note_on_c, 0, 60, 59
1, 64498, Note_off_c, 0, 75, 59
1, 64532, Note_on_c, 0, 80, 40
1, 64540, Note_on_c, 0, 85, 58
1, 64560, Note_off_c, 0, 80, 53
1, 64571, Note_off_c, 0, 85, 68
1, 64574, Note_on_c, 0, 61, 53
1, 64577, Control_c, 0, 64, 102
1, 64592, Control_c, 0, 64, 72
1, 64599, Note_off_c, 0, 60, 59
1, 64607, Control_c, 0, 64, 66
1, 64620, Note_on_c, 0, 92, 83
1, 64622, Control_c, 0, 64, 66
1, 64637, Control_c, 0, 64, 70
1, 64642, Note_off_c, 0, 61, 58
1, 64651, Control_c, 0, 64, 81
1, 64664, Note_on_c, 0, 65, 51
1, 64666, Control_c, 0, 64, 119
1, 64681, Control_c, 0, 64, 127
1, 64713, Note_on_c, 0, 85, 78
1, 64716, Note_off_c, 0, 92, 65
1, 64743, Note_on_c, 0, 68, 50
1, 64747, Note_off_c, 0, 65, 51
1, 64762, Note_off_c, 0, 85, 60
1, 64822, Note_off_c, 0, 68, 60
1, 64823, Note_on_c, 0, 72, 61
1, 64873, Note_off_c, 0, 72, 61
1, 64905, Note_on_c, 0, 73, 63
1, 64960, Note_off_c, 0, 73, 60
1, 64968, Note_on_c, 0, 77, 46
1, 64983, Note_on_c, 0, 80, 69
1, 64990, Note_off_c, 0, 77, 56
1, 65021, Note_off_c, 0, 80, 63
1, 65042, Note_on_c, 0, 63, 48
1, 65098, Note_on_c, 0, 87, 72
1, 65137, Note_on_c, 0, 56, 53
1, 65144, Note_off_c, 0, 63, 58
1, 65148, Control_c, 0, 64, 89
1, 65163, Control_c, 0, 64, 66
1, 65178, Control_c, 0, 64, 57
1, 65207, Control_c, 0, 64, 61
1, 65211, Note_on_c, 0, 80, 67
1, 65222, Control_c, 0, 64, 67
1, 65237, Control_c, 0, 64, 78
1, 65252, Control_c, 0, 64, 127
1, 65259, Note_off_c, 0, 56, 56
1, 65288, Note_on_c, 0, 63, 52
1, 65317, Note_off_c, 0, 87, 38
1, 65370, Note_off_c, 0, 63, 60
1, 65374, Note_on_c, 0, 68, 41
1, 65402, Note_off_c, 0, 68, 56
1, 65410, Note_off_c, 0, 80, 63
1, 65433, Note_on_c, 0, 72, 50
1, 65442, Note_on_c, 0, 75, 58
1, 65461, Note_off_c, 0, 72, 57
1, 65523, Note_on_c, 0, 80, 47
1, 65524, Note_off_c, 0, 75, 54
1, 65552, Note_on_c, 0, 84, 53
1, 65557, Note_on_c, 0, 60, 43
1, 65574, Note_off_c, 0, 80, 55
1, 65591, Note_on_c, 0, 90, 70
1, 65608, Control_c, 0, 64, 80
1, 65623, Control_c, 0, 64, 64
1, 65633, Note_off_c, 0, 84, 61
1, 65638, Control_c, 0, 64, 61
1, 65653, Control_c, 0, 64, 63
1, 65668, Control_c, 0, 64, 67
1, 65680, Note_on_c, 0, 61, 45
1, 65682, Control_c, 0, 64, 74
1, 65697, Control_c, 0, 64, 89
1, 65708, Note_on_c, 0, 85, 64
1, 65708, Note_off_c, 0, 60, 37
1, 65711, Note_off_c, 0, 90, 63
1, 65712, Control_c, 0, 64, 127
1, 65750, Note_off_c, 0, 61, 56
1, 65754, Note_on_c, 0, 66, 54
1, 65833, Note_off_c, 0, 66, 60
1, 65834, Note_on_c, 0, 70, 51
1, 65864, Note_off_c, 0, 70, 62
1, 65873, Note_on_c, 0, 72, 41
1, 65901, Note_off_c, 0, 72, 57
1, 65932, Note_off_c, 0, 85, 53
1, 65936, Note_on_c, 0, 73, 48
1, 65959, Note_off_c, 0, 73, 62
1, 65983, Note_on_c, 0, 78, 62
1, 66001, Note_on_c, 0, 58, 48
1, 66033, Note_on_c, 0, 82, 62
1, 66057, Note_off_c, 0, 58, 59
1, 66059, Note_off_c, 0, 78, 58
1, 66100, Note_on_c, 0, 89, 74
1, 66119, Note_off_c, 0, 82, 64
1, 66120, Control_c, 0, 64, 116
1, 66135, Control_c, 0, 64, 77
1, 66150, Control_c, 0, 64, 64
1, 66153, Note_on_c, 0, 60, 56
1, 66156, Note_on_c, 0, 88, 8
1, 66157, Note_off_c, 0, 88, 127
1, 66164, Control_c, 0, 64, 60
1, 66174, Note_on_c, 0, 84, 78
1, 66174, Note_off_c, 0, 89, 60
1, 66179, Control_c, 0, 64, 63
1, 66194, Control_c, 0, 64, 67
1, 66209, Control_c, 0, 64, 77
1, 66212, Note_off_c, 0, 60, 60
1, 66224, Control_c, 0, 64, 102
1, 66233, Note_on_c, 0, 65, 51
1, 66239, Control_c, 0, 64, 127
1, 66264, Note_off_c, 0, 84, 65
1, 66270, Note_off_c, 0, 65, 65
1, 66288, Note_on_c, 0, 68, 56
1, 66313, Note_off_c, 0, 68, 62
1, 66362, Note_on_c, 0, 70, 58
1, 66395, Note_on_c, 0, 72, 53
1, 66403, Note_off_c, 0, 70, 62
1, 66422, Note_off_c, 0, 72, 63
1, 66431, Note_on_c, 0, 77, 50
1, 66439, Note_on_c, 0, 80, 64
1, 66447, Note_on_c, 0, 56, 60
1, 66483, Note_off_c, 0, 77, 56
1, 66498, Note_on_c, 0, 58, 43
1, 66500, Note_on_c, 0, 87, 75
1, 66510, Note_off_c, 0, 80, 64
1, 66536, Note_off_c, 0, 56, 61
1, 66561, Note_on_c, 0, 82, 85
1, 66564, Note_off_c, 0, 58, 60
1, 66568, Note_off_c, 0, 87, 63
1, 66585, Note_on_c, 0, 63, 59
1, 66647, Note_on_c, 0, 66, 49
1, 66649, Note_off_c, 0, 63, 63
1, 66671, Note_off_c, 0, 66, 58
1, 66698, Note_on_c, 0, 68, 72
1, 66744, Note_off_c, 0, 82, 56
1, 66746, Note_on_c, 0, 70, 62
1, 66766, Note_off_c, 0, 68, 61
1, 66788, Note_off_c, 0, 70, 59
1, 66805, Note_on_c, 0, 73, 52
1, 66817, Note_on_c, 0, 78, 68
1, 66823, Note_on_c, 0, 54, 59
1, 66838, Note_off_c, 0, 73, 64
1, 66863, Note_on_c, 0, 85, 81
1, 66883, Note_off_c, 0, 78, 64
1, 66926, Note_off_c, 0, 54, 63
1, 66935, Note_on_c, 0, 80, 82
1, 66940, Note_off_c, 0, 85, 65
1, 66942, Note_on_c, 0, 61, 60
1, 67008, Note_off_c, 0, 61, 63
1, 67070, Note_on_c, 0, 66, 70
1, 67082, Note_off_c, 0, 80, 61
1, 67092, Note_on_c, 0, 68, 66
1, 67119, Note_off_c, 0, 68, 68
1, 67141, Note_on_c, 0, 73, 58
1, 67142, Note_off_c, 0, 66, 62
1, 67161, Note_on_c, 0, 77, 63
1, 67172, Note_off_c, 0, 73, 66
1, 67175, Note_on_c, 0, 54, 69
1, 67219, Note_on_c, 0, 84, 77
1, 67222, Note_off_c, 0, 77, 63
1, 67224, Control_c, 0, 64, 86
1, 67237, Note_on_c, 0, 83, 73
1, 67239, Control_c, 0, 64, 72
1, 67253, Control_c, 0, 64, 70
1, 67254, Note_off_c, 0, 83, 61
1, 67265, Note_off_c, 0, 84, 59
1, 67268, Note_off_c, 0, 54, 65
1, 67268, Control_c, 0, 64, 73
1, 67283, Control_c, 0, 64, 85
1, 67293, Note_on_c, 0, 79, 85
1, 67297, Control_c, 0, 64, 127
1, 67315, Note_on_c, 0, 60, 66
1, 67360, Note_off_c, 0, 60, 63
1, 67366, Note_on_c, 0, 64, 51
1, 67388, Note_off_c, 0, 64, 59
1, 67415, Note_on_c, 0, 65, 71
1, 67458, Note_on_c, 0, 67, 54
1, 67473, Note_off_c, 0, 79, 61
1, 67490, Note_on_c, 0, 69, 40
1, 67494, Note_on_c, 0, 72, 61
1, 67504, Note_off_c, 0, 67, 60
1, 67508, Note_on_c, 0, 76, 58
1, 67512, Note_on_c, 0, 53, 66
1, 67518, Note_off_c, 0, 69, 54
1, 67520, Note_off_c, 0, 65, 58
1, 67571, Note_on_c, 0, 83, 84
1, 67586, Control_c, 0, 64, 74
1, 67597, Note_off_c, 0, 76, 64
1, 67601, Control_c, 0, 64, 59
1, 67610, Note_off_c, 0, 53, 60
1, 67610, Note_off_c, 0, 72, 62
1, 67616, Control_c, 0, 64, 53
1, 67630, Note_on_c, 0, 54, 48
1, 67631, Control_c, 0, 64, 58
1, 67646, Note_off_c, 0, 83, 62
1, 67646, Control_c, 0, 64, 64
1, 67646, Note_on_c, 0, 78, 86
1, 67661, Control_c, 0, 64, 78
1, 67676, Control_c, 0, 64, 127
1, 67684, Note_on_c, 0, 59, 47
1, 67700, Note_on_c, 0, 63, 72
1, 67700, Note_off_c, 0, 54, 63
1, 67720, Note_off_c, 0, 59, 65
1, 67726, Note_on_c, 0, 65, 67
1, 67728, Note_off_c, 0, 63, 68
1, 67756, Note_off_c, 0, 65, 64
1, 67801, Note_on_c, 0, 66, 59
1, 67828, Note_off_c, 0, 78, 58
1, 67840, Note_off_c, 0, 66, 61
1, 67854, Note_on_c, 0, 71, 60
1, 67872, Note_on_c, 0, 49, 46
1, 67881, Note_on_c, 0, 75, 68
1, 67892, Note_off_c, 0, 71, 56
1, 67942, Note_on_c, 0, 82, 74
1, 67961, Note_off_c, 0, 75, 62
1, 67988, Control_c, 0, 64, 119
1, 67992, Note_off_c, 0, 49, 64
1, 68002, Control_c, 0, 64, 72
1, 68016, Note_on_c, 0, 50, 51
1, 68017, Control_c, 0, 64, 57
1, 68018, Note_on_c, 0, 78, 87
1, 68032, Control_c, 0, 64, 55
1, 68042, Note_off_c, 0, 50, 59
1, 68047, Note_off_c, 0, 82, 65
1, 68047, Control_c, 0, 64, 61
1, 68062, Note_on_c, 0, 57, 58
1, 68062, Control_c, 0, 64, 68
1, 68084, Control_c, 0, 64, 85
1, 68099, Control_c, 0, 64, 127
1, 68120, Note_on_c, 0, 60, 66
1, 68126, Note_off_c, 0, 78, 63
1, 68142, Note_off_c, 0, 57, 61
1, 68179, Note_on_c, 0, 65, 71
1, 68189, Note_off_c, 0, 60, 62
1, 68205, Note_off_c, 0, 65, 67
1, 68233, Note_on_c, 0, 66, 57
1, 68281, Note_off_c, 0, 66, 60
1, 68296, Note_on_c, 0, 69, 60
1, 68322, Note_off_c, 0, 69, 65
1, 68392, Note_on_c, 0, 72, 56
1, 68431, Note_on_c, 0, 41, 59
1, 68492, Note_on_c, 0, 81, 73
1, 68498, Note_off_c, 0, 72, 64
1, 68529, Control_c, 0, 64, 78
1, 68543, Control_c, 0, 64, 60
1, 68558, Control_c, 0, 64, 36
1, 68573, Control_c, 0, 64, 38
1, 68588, Control_c, 0, 64, 54
1, 68594, Note_on_c, 0, 51, 53
1, 68603, Control_c, 0, 64, 64
1, 68612, Note_off_c, 0, 41, 64
1, 68618, Control_c, 0, 64, 75
1, 68632, Control_c, 0, 64, 102
1, 68647, Control_c, 0, 64, 127
1, 68668, Note_off_c, 0, 51, 65
1, 68714, Note_on_c, 0, 77, 66
1, 68792, Note_off_c, 0, 81, 62
1, 68853, Note_on_c, 0, 57, 46
1, 68858, Note_off_c, 0, 77, 64
1, 68904, Note_on_c, 0, 60, 58
1, 68908, Note_off_c, 0, 57, 63
1, 68938, Note_off_c, 0, 60, 67
1, 68954, Note_on_c, 0, 63, 65
1, 68984, Note_off_c, 0, 63, 66
1, 69006, Note_on_c, 0, 65, 64
1, 69027, Note_off_c, 0, 65, 64
1, 69067, Note_on_c, 0, 69, 65
1, 69096, Note_off_c, 0, 69, 64
1, 69119, Note_on_c, 0, 70, 69
1, 69150, Note_off_c, 0, 70, 64
1, 69192, Note_on_c, 0, 71, 65
1, 69223, Note_off_c, 0, 71, 67
1, 69248, Control_c, 0, 64, 125
1, 69263, Control_c, 0, 64, 110
1, 69279, Control_c, 0, 64, 97
1, 69294, Control_c, 0, 64, 80
1, 69299, Note_on_c, 0, 78, 85
1, 69309, Control_c, 0, 64, 68
1, 69314, Note_on_c, 0, 75, 32
1, 69323, Control_c, 0, 64, 61
1, 69338, Control_c, 0, 64, 62
1, 69344, Note_off_c, 0, 75, 48
1, 69353, Control_c, 0, 64, 66
1, 69367, Control_c, 0, 64, 73
1, 69382, Control_c, 0, 64, 87
1, 69397, Control_c, 0, 64, 127
1, 69419, Note_on_c, 0, 75, 77
1, 69513, Note_on_c, 0, 72, 57
1, 69538, Note_off_c, 0, 78, 60
1, 69540, Note_on_c, 0, 68, 63
1, 69578, Note_off_c, 0, 72, 62
1, 69627, Note_off_c, 0, 68, 60
1, 69642, Note_on_c, 0, 69, 41
1, 69686, Note_off_c, 0, 69, 44
1, 69703, Note_on_c, 0, 61, 49
1, 69744, Note_off_c, 0, 61, 59
1, 69750, Note_on_c, 0, 58, 56
1, 69754, Note_on_c, 0, 77, 76
1, 69758, Note_off_c, 0, 75, 62
1, 69800, Note_off_c, 0, 58, 56
1, 69835, Note_on_c, 0, 73, 78
1, 69861, Note_off_c, 0, 77, 62
1, 69901, Note_on_c, 0, 70, 68
1, 69956, Note_on_c, 0, 66, 68
1, 69963, Note_off_c, 0, 70, 61
1, 69982, Note_on_c, 0, 67, 64
1, 70015, Note_off_c, 0, 67, 63
1, 70016, Poly_aftertouch_c, 0, 58, 0
1, 70022, Note_on_c, 0, 61, 59
1, 70107, Note_on_c, 0, 58, 47
1, 70112, Note_off_c, 0, 61, 59
1, 70113, Note_on_c, 0, 75, 76
1, 70123, Note_off_c, 0, 73, 62
1, 70143, Note_off_c, 0, 58, 61
1, 70180, Note_off_c, 0, 66, 41
1, 70188, Note_on_c, 0, 72, 79
1, 70201, Note_off_c, 0, 75, 62
1, 70257, Note_on_c, 0, 69, 74
1, 70278, Note_off_c, 0, 72, 65
1, 70299, Note_off_c, 0, 69, 61
1, 70308, Note_on_c, 0, 65, 71
1, 70335, Note_on_c, 0, 66, 42
1, 70348, Note_off_c, 0, 65, 63
1, 70362, Note_off_c, 0, 66, 59
1, 70391, Note_on_c, 0, 60, 55
1, 70444, Note_on_c, 0, 57, 61
1, 70494, Note_off_c, 0, 60, 37
1, 70509, Control_c, 0, 64, 84
1, 70523, Control_c, 0, 64, 69
1, 70526, Note_on_c, 0, 69, 76
1, 70534, Note_off_c, 0, 57, 64
1, 70538, Control_c, 0, 64, 64
1, 70553, Control_c, 0, 64, 66
1, 70568, Control_c, 0, 64, 71
1, 70579, Poly_aftertouch_c, 0, 64, 0
1, 70583, Control_c, 0, 64, 82
1, 70597, Control_c, 0, 64, 110
1, 70612, Control_c, 0, 64, 127
1, 70622, Note_on_c, 0, 66, 81
1, 70659, Note_off_c, 0, 69, 62
1, 70716, Note_on_c, 0, 63, 70
1, 70747, Note_off_c, 0, 63, 59
1, 70770, Note_on_c, 0, 58, 67
1, 70788, Note_on_c, 0, 59, 49
1, 70789, Control_c, 0, 64, 105
1, 70803, Control_c, 0, 64, 73
1, 70813, Note_off_c, 0, 59, 60
1, 70818, Control_c, 0, 64, 61
1, 70833, Control_c, 0, 64, 60
1, 70835, Note_on_c, 0, 51, 59
1, 70848, Control_c, 0, 64, 63
1, 70864, Control_c, 0, 64, 68
1, 70879, Control_c, 0, 64, 78
1, 70893, Control_c, 0, 64, 98
1, 70906, Note_on_c, 0, 41, 63
1, 70908, Control_c, 0, 64, 127
1, 70940, Note_off_c, 0, 66, 58
1, 70956, Note_on_c, 0, 68, 69
1, 70990, Note_off_c, 0, 41, 64
1, 71026, Note_off_c, 0, 58, 47
1, 71032, Note_on_c, 0, 65, 74
1, 71057, Note_off_c, 0, 68, 63
1, 71108, Control_c, 0, 64, 82
1, 71121, Note_on_c, 0, 61, 68
1, 71123, Control_c, 0, 64, 64
1, 71138, Control_c, 0, 64, 55
1, 71150, Note_off_c, 0, 51, 22
1, 71152, Control_c, 0, 64, 56
1, 71167, Control_c, 0, 64, 61
1, 71172, Note_on_c, 0, 57, 57
1, 71175, Note_off_c, 0, 61, 55
1, 71182, Control_c, 0, 64, 67
1, 71197, Control_c, 0, 64, 78
1, 71210, Note_on_c, 0, 58, 61
1, 71212, Control_c, 0, 64, 95
1, 71226, Control_c, 0, 64, 127
1, 71241, Note_off_c, 0, 57, 61
1, 71262, Note_off_c, 0, 58, 63
1, 71271, Note_on_c, 0, 51, 62
1, 71367, Note_on_c, 0, 41, 58
1, 71411, Note_on_c, 0, 66, 68
1, 71429, Note_off_c, 0, 51, 35
1, 71432, Note_off_c, 0, 65, 58
1, 71449, Control_c, 0, 64, 95
1, 71464, Control_c, 0, 64, 70
1, 71479, Control_c, 0, 64, 60
1, 71493, Control_c, 0, 64, 61
1, 71507, Note_on_c, 0, 63, 65
1, 71508, Control_c, 0, 64, 64
1, 71523, Control_c, 0, 64, 71
1, 71537, Control_c, 0, 64, 87
1, 71552, Control_c, 0, 64, 127
1, 71557, Note_off_c, 0, 66, 57
1, 71581, Note_off_c, 0, 41, 35
1, 71583, Note_on_c, 0, 60, 63
1, 71667, Note_on_c, 0, 56, 57
1, 71697, Note_off_c, 0, 60, 60
1, 71712, Note_off_c, 0, 56, 64
1, 71712, Note_off_c, 0, 63, 62
1, 71744, Note_on_c, 0, 57, 58
1, 71792, Note_off_c, 0, 57, 58
1, 71846, Note_on_c, 0, 51, 61
1, 71920, Note_off_c, 0, 51, 56
1, 71985, Note_on_c, 0, 41, 55
1, 72109, Control_c, 0, 64, 78
1, 72123, Control_c, 0, 64, 60
1, 72138, Control_c, 0, 64, 25
1, 72153, Control_c, 0, 64, 23
1, 72168, Control_c, 0, 64, 26
1, 72183, Control_c, 0, 64, 44
1, 72194, Note_on_c, 0, 29, 58
1, 72198, Control_c, 0, 64, 59
1, 72212, Control_c, 0, 64, 66
1, 72227, Control_c, 0, 64, 76
1, 72231, Note_off_c, 0, 41, 64
1, 72242, Control_c, 0, 64, 100
1, 72257, Control_c, 0, 64, 127
1, 72258, Note_off_c, 0, 29, 62
1, 72508, Note_on_c, 0, 51, 67
1, 72587, Note_off_c, 0, 51, 63
1, 72593, Note_on_c, 0, 54, 68
1, 72660, Note_off_c, 0, 54, 60
1, 72665, Note_on_c, 0, 57, 70
1, 72736, Note_on_c, 0, 60, 52
1, 72737, Note_off_c, 0, 57, 65
1, 72784, Note_on_c, 0, 63, 64
1, 72825, Note_on_c, 0, 69, 69
1, 72830, Note_off_c, 0, 60, 64
1, 72840, Note_off_c, 0, 63, 64
1, 72861, Note_on_c, 0, 72, 84
1, 72904, Note_on_c, 0, 71, 52
1, 72917, Note_off_c, 0, 69, 65
1, 72925, Note_off_c, 0, 71, 61
1, 72926, Note_off_c, 0, 72, 64
1, 72935, Note_on_c, 0, 75, 87
1, 72939, Note_on_c, 0, 78, 83
1, 72967, Note_off_c, 0, 75, 54
1, 72970, Note_off_c, 0, 78, 63
1, 73159, Poly_aftertouch_c, 0, 79, 127
1, 73193, Note_on_c, 0, 75, 71
1, 73230, Poly_aftertouch_c, 0, 79, 0
1, 73303, Note_on_c, 0, 77, 75
1, 73321, Note_off_c, 0, 75, 62
1, 73382, Note_on_c, 0, 73, 64
1, 73411, Note_off_c, 0, 77, 58
1, 73432, Note_on_c, 0, 76, 71
1, 73433, Note_off_c, 0, 73, 63
1, 73484, Note_off_c, 0, 76, 64
1, 73486, Note_on_c, 0, 72, 63
1, 73532, Note_off_c, 0, 72, 64
1, 73551, Note_on_c, 0, 75, 82
1, 73600, Note_off_c, 0, 75, 62
1, 73620, Note_on_c, 0, 69, 81
1, 73671, Note_on_c, 0, 78, 84
1, 73686, Note_off_c, 0, 69, 61
1, 73735, Note_off_c, 0, 78, 65
1, 73750, Note_on_c, 0, 75, 69
1, 73793, Note_off_c, 0, 75, 57
1, 73812, Note_on_c, 0, 73, 64
1, 73828, Note_on_c, 0, 77, 65
1, 73842, Note_off_c, 0, 73, 65
1, 73884, Note_on_c, 0, 76, 62
1, 73894, Note_off_c, 0, 77, 62
1, 73913, Note_on_c, 0, 72, 80
1, 73914, Note_off_c, 0, 76, 66
1, 73945, Note_off_c, 0, 72, 64
1, 73973, Note_on_c, 0, 75, 78
1, 73998, Note_off_c, 0, 75, 67
1, 74030, Note_on_c, 0, 69, 79
1, 74081, Note_on_c, 0, 78, 80
1, 74082, Note_off_c, 0, 69, 57
1, 74121, Note_on_c, 0, 75, 70
1, 74129, Note_off_c, 0, 78, 65
1, 74177, Note_off_c, 0, 75, 62
1, 74180, Note_on_c, 0, 73, 68
1, 74204, Note_on_c, 0, 77, 70
1, 74208, Note_off_c, 0, 73, 67
1, 74263, Note_on_c, 0, 76, 46
1, 74263, Note_off_c, 0, 77, 62
1, 74284, Note_on_c, 0, 72, 79
1, 74288, Note_off_c, 0, 76, 53
1, 74312, Note_off_c, 0, 72, 64
1, 74342, Note_on_c, 0, 75, 79
1, 74369, Note_off_c, 0, 75, 63
1, 74406, Note_on_c, 0, 69, 79
1, 74435, Note_on_c, 0, 78, 84
1, 74454, Note_off_c, 0, 69, 61
1, 74487, Note_off_c, 0, 78, 66
1, 74493, Note_on_c, 0, 75, 73
1, 74541, Note_on_c, 0, 73, 70
1, 74549, Note_off_c, 0, 75, 61
1, 74570, Note_on_c, 0, 77, 66
1, 74573, Note_off_c, 0, 73, 60
1, 74631, Note_off_c, 0, 77, 63
1, 74661, Note_on_c, 0, 72, 77
1, 74706, Note_off_c, 0, 72, 60
1, 74735, Note_on_c, 0, 75, 67
1, 74781, Note_off_c, 0, 75, 59
1, 74815, Note_on_c, 0, 69, 68
1, 74837, Control_c, 0, 64, 115
1, 74851, Control_c, 0, 64, 108
1, 74867, Control_c, 0, 64, 104
1, 74877, Note_on_c, 0, 77, 72
1, 74878, Note_off_c, 0, 69, 56
1, 74882, Control_c, 0, 64, 103
1, 74897, Control_c, 0, 64, 103
1, 74912, Control_c, 0, 64, 102
1, 74927, Control_c, 0, 64, 100
1, 74941, Control_c, 0, 64, 97
1, 74949, Note_on_c, 0, 73, 70
1, 74956, Control_c, 0, 64, 94
1, 74957, Note_off_c, 0, 77, 63
1, 74971, Control_c, 0, 64, 92
1, 74985, Control_c, 0, 64, 92
1, 75000, Control_c, 0, 64, 91
1, 75019, Note_off_c, 0, 73, 64
1, 75045, Control_c, 0, 64, 91
1, 75049, Note_on_c, 0, 76, 66
1, 75059, Control_c, 0, 64, 90
1, 75074, Control_c, 0, 64, 89
1, 75085, Note_on_c, 0, 72, 53
1, 75089, Control_c, 0, 64, 88
1, 75104, Control_c, 0, 64, 88
1, 75119, Control_c, 0, 64, 87
1, 75121, Note_off_c, 0, 76, 61
1, 75149, Control_c, 0, 64, 87
1, 75156, Note_off_c, 0, 72, 62
1, 75162, Note_on_c, 0, 75, 67
1, 75178, Control_c, 0, 64, 86
1, 75193, Control_c, 0, 64, 86
1, 75211, Note_off_c, 0, 75, 60
1, 75223, Control_c, 0, 64, 85
1, 75250, Note_on_c, 0, 69, 66
1, 75253, Control_c, 0, 64, 85
1, 75267, Control_c, 0, 64, 84
1, 75282, Control_c, 0, 64, 83
1, 75312, Control_c, 0, 64, 83
1, 75341, Control_c, 0, 64, 82
1, 75356, Control_c, 0, 64, 82
1, 75371, Control_c, 0, 64, 81
1, 75385, Control_c, 0, 64, 81
1, 75390, Note_on_c, 0, 65, 67
1, 75400, Control_c, 0, 64, 80
1, 75415, Control_c, 0, 64, 79
1, 75430, Control_c, 0, 64, 78
1, 75445, Control_c, 0, 64, 77
1, 75459, Note_on_c, 0, 77, 65
1, 75459, Control_c, 0, 64, 76
1, 75474, Control_c, 0, 64, 75
1, 75489, Control_c, 0, 64, 74
1, 75504, Control_c, 0, 64, 72
1, 75519, Control_c, 0, 64, 71
1, 75533, Control_c, 0, 64, 69
1, 75539, Note_off_c, 0, 69, 33
1, 75541, Note_off_c, 0, 77, 62
1, 75545, Note_on_c, 0, 73, 67
1, 75548, Control_c, 0, 64, 68
1, 75571, Control_c, 0, 64, 68
1, 75586, Control_c, 0, 64, 67
1, 75600, Control_c, 0, 64, 67
1, 75615, Control_c, 0, 64, 66
1, 75617, Note_off_c, 0, 73, 63
1, 75630, Control_c, 0, 64, 66
1, 75645, Control_c, 0, 64, 65
1, 75648, Note_on_c, 0, 76, 60
1, 75686, Note_on_c, 0, 72, 49
1, 75713, Note_off_c, 0, 76, 52
1, 75720, Control_c, 0, 64, 65
1, 75743, Note_off_c, 0, 72, 59
1, 75754, Note_on_c, 0, 75, 59
1, 75765, Control_c, 0, 64, 64
1, 75794, Note_off_c, 0, 75, 62
1, 75808, Control_c, 0, 64, 65
1, 75823, Control_c, 0, 64, 65
1, 75825, Note_on_c, 0, 69, 45
1, 75838, Control_c, 0, 64, 66
1, 75853, Control_c, 0, 64, 68
1, 75868, Control_c, 0, 64, 71
1, 75879, Note_off_c, 0, 69, 57
1, 75882, Control_c, 0, 64, 75
1, 75897, Control_c, 0, 64, 79
1, 75912, Control_c, 0, 64, 83
1, 75918, Note_on_c, 0, 77, 42
1, 75927, Control_c, 0, 64, 86
1, 75942, Control_c, 0, 64, 90
1, 75957, Control_c, 0, 64, 92
1, 75965, Note_off_c, 0, 77, 62
1, 75971, Control_c, 0, 64, 95
1, 75986, Note_on_c, 0, 73, 61
1, 75986, Control_c, 0, 64, 97
1, 76001, Control_c, 0, 64, 98
1, 76016, Control_c, 0, 64, 99
1, 76050, Note_off_c, 0, 73, 61
1, 76102, Note_on_c, 0, 76, 56
1, 76149, Control_c, 0, 64, 100
1, 76170, Note_off_c, 0, 76, 54
1, 76176, Note_on_c, 0, 72, 40
1, 76179, Control_c, 0, 64, 100
1, 76194, Control_c, 0, 64, 101
1, 76241, Note_off_c, 0, 72, 59
1, 76249, Note_on_c, 0, 75, 51
1, 76296, Note_off_c, 0, 75, 61
1, 76335, Control_c, 0, 64, 100
1, 76353, Note_on_c, 0, 69, 51
1, 76364, Control_c, 0, 64, 100
1, 76469, Note_on_c, 0, 77, 65
1, 76505, Note_off_c, 0, 69, 34
1, 76591, Note_off_c, 0, 77, 52
1, 76608, Note_on_c, 0, 73, 52
1, 76758, Note_off_c, 0, 73, 52
1, 76765, Control_c, 0, 64, 99
1, 76772, Note_on_c, 0, 64, 46
1, 76780, Control_c, 0, 64, 92
1, 76791, Note_on_c, 0, 76, 42
1, 76795, Control_c, 0, 64, 79
1, 76810, Control_c, 0, 64, 72
1, 76825, Control_c, 0, 64, 70
1, 76839, Control_c, 0, 64, 71
1, 76854, Control_c, 0, 64, 75
1, 76869, Control_c, 0, 64, 84
1, 76872, Note_off_c, 0, 65, 56
1, 76884, Control_c, 0, 64, 104
1, 76899, Control_c, 0, 64, 127
1, 76922, Note_off_c, 0, 76, 59
1, 76943, Note_on_c, 0, 72, 46
1, 77285, Note_on_c, 0, 63, 33
1, 77292, Control_c, 0, 64, 115
1, 77307, Control_c, 0, 64, 92
1, 77314, Note_on_c, 0, 75, 40
1, 77320, Note_off_c, 0, 72, 44
1, 77322, Control_c, 0, 64, 74
1, 77335, Note_off_c, 0, 64, 57
1, 77337, Control_c, 0, 64, 64
1, 77352, Control_c, 0, 64, 58
1, 77366, Control_c, 0, 64, 59
1, 77381, Control_c, 0, 64, 62
1, 77396, Control_c, 0, 64, 66
1, 77411, Control_c, 0, 64, 71
1, 77426, Control_c, 0, 64, 77
1, 77441, Control_c, 0, 64, 81
1, 77455, Control_c, 0, 64, 83
1, 77469, Control_c, 0, 64, 84
1, 77484, Control_c, 0, 64, 86
1, 77499, Control_c, 0, 64, 90
1, 77514, Control_c, 0, 64, 96
1, 77529, Control_c, 0, 64, 104
1, 77543, Control_c, 0, 64, 115
1, 77558, Control_c, 0, 64, 127
1, 77608, Note_on_c, 0, 69, 31
1, 77820, Note_off_c, 0, 63, 46
1, 77935, Note_off_c, 0, 69, 42
1, 77963, Note_off_c, 0, 75, 55
1, 78765, Note_on_c, 0, 77, 53
1, 78771, Note_on_c, 0, 65, 29
1, 78788, Note_on_c, 0, 61, 37
1, 78801, Note_on_c, 0, 68, 34
1, 78802, Note_on_c, 0, 73, 44
1, 78803, Control_c, 0, 64, 120
1, 78818, Control_c, 0, 64, 84
1, 78833, Control_c, 0, 64, 67
1, 78848, Control_c, 0, 64, 59
1, 78863, Control_c, 0, 64, 57
1, 78878, Control_c, 0, 64, 59
1, 78893, Control_c, 0, 64, 63
1, 78908, Control_c, 0, 64, 68
1, 78923, Control_c, 0, 64, 75
1, 78937, Control_c, 0, 64, 83
1, 78952, Control_c, 0, 64, 88
1, 78967, Control_c, 0, 64, 91
1, 78982, Control_c, 0, 64, 93
1, 78997, Control_c, 0, 64, 96
1, 79012, Control_c, 0, 64, 102
1, 79027, Control_c, 0, 64, 112
1, 79041, Control_c, 0, 64, 127
1, 79070, Note_off_c, 0, 61, 36
1, 79075, Note_off_c, 0, 73, 54
1, 79076, Note_off_c, 0, 65, 48
1, 79350, Note_off_c, 0, 68, 40
1, 79356, Note_on_c, 0, 76, 65
1, 79364, Note_off_c, 0, 77, 57
1, 79373, Note_on_c, 0, 60, 43
1, 79376, Note_on_c, 0, 72, 38
1, 79379, Note_on_c, 0, 64, 38
1, 79418, Note_off_c, 0, 72, 63
1, 79448, Control_c, 0, 64, 83
1, 79450, Note_off_c, 0, 60, 59
1, 79463, Control_c, 0, 64, 66
1, 79478, Note_off_c, 0, 76, 62
1, 79478, Control_c, 0, 64, 57
1, 79488, Note_on_c, 0, 75, 64
1, 79493, Control_c, 0, 64, 55
1, 79495, Note_on_c, 0, 70, 58
1, 79497, Note_off_c, 0, 64, 63
1, 79502, Note_on_c, 0, 58, 38
1, 79507, Control_c, 0, 64, 59
1, 79516, Note_on_c, 0, 66, 45
1, 79522, Control_c, 0, 64, 65
1, 79530, Note_off_c, 0, 58, 54
1, 79532, Note_on_c, 0, 63, 45
1, 79537, Control_c, 0, 64, 72
1, 79551, Control_c, 0, 64, 82
1, 79566, Control_c, 0, 64, 97
1, 79581, Control_c, 0, 64, 122
1, 79596, Control_c, 0, 64, 127
1, 79634, Note_off_c, 0, 70, 34
1, 79658, Note_off_c, 0, 66, 60
1, 79689, Note_off_c, 0, 63, 57
1, 80049, Note_on_c, 0, 77, 54
1, 80064, Control_c, 0, 64, 116
1, 80070, Note_on_c, 0, 61, 35
1, 80075, Note_on_c, 0, 65, 37
1, 80077, Note_on_c, 0, 73, 35
1, 80079, Control_c, 0, 64, 103
1, 80086, Note_on_c, 0, 68, 27
1, 80094, Control_c, 0, 64, 93
1, 80109, Control_c, 0, 64, 83
1, 80124, Control_c, 0, 64, 74
1, 80138, Control_c, 0, 64, 65
1, 80143, Note_off_c, 0, 75, 57
1, 80153, Control_c, 0, 64, 52
1, 80168, Control_c, 0, 64, 0
1, 80330, Control_c, 0, 64, 36
1, 80345, Control_c, 0, 64, 53
1, 80360, Control_c, 0, 64, 61
1, 80375, Control_c, 0, 64, 65
1, 80389, Control_c, 0, 64, 69
1, 80404, Control_c, 0, 64, 73
1, 80419, Control_c, 0, 64, 79
1, 80434, Control_c, 0, 64, 84
1, 80451, Control_c, 0, 64, 91
1, 80466, Control_c, 0, 64, 98
1, 80480, Control_c, 0, 64, 105
1, 80495, Control_c, 0, 64, 111
1, 80510, Control_c, 0, 64, 125
1, 80525, Control_c, 0, 64, 127
1, 80792, Note_off_c, 0, 61, 56
1, 80851, Note_off_c, 0, 68, 51
1, 81163, Note_off_c, 0, 77, 40
1, 81177, Note_off_c, 0, 65, 41
1, 81202, Note_off_c, 0, 73, 42
1, 81210, Note_on_c, 0, 60, 44
1, 81214, Note_on_c, 0, 75, 39
1, 81294, Note_off_c, 0, 75, 49
1, 81299, Note_off_c, 0, 60, 59
1, 81331, Control_c, 0, 64, 94
1, 81346, Control_c, 0, 64, 72
1, 81359, Note_on_c, 0, 73, 41
1, 81361, Control_c, 0, 64, 63
1, 81370, Note_on_c, 0, 61, 36
1, 81376, Control_c, 0, 64, 60
1, 81382, Note_on_c, 0, 70, 49
1, 81391, Control_c, 0, 64, 62
1, 81397, Note_on_c, 0, 58, 43
1, 81406, Control_c, 0, 64, 65
1, 81406, Note_on_c, 0, 65, 33
1, 81420, Control_c, 0, 64, 69
1, 81435, Control_c, 0, 64, 78
1, 81450, Control_c, 0, 64, 87
1, 81450, Note_off_c, 0, 61, 63
1, 81453, Note_off_c, 0, 65, 63
1, 81459, Note_off_c, 0, 58, 64
1, 81465, Control_c, 0, 64, 95
1, 81480, Control_c, 0, 64, 104
1, 81493, Note_off_c, 0, 70, 63
1, 81494, Control_c, 0, 64, 114
1, 81509, Control_c, 0, 64, 127
1, 81520, Note_off_c, 0, 73, 62
1, 81557, Note_on_c, 0, 76, 27
1, 81688, Note_on_c, 0, 68, 50
1, 81689, Note_on_c, 0, 77, 73
1, 81698, Note_off_c, 0, 76, 54
1, 81703, Note_on_c, 0, 73, 45
1, 81728, Note_on_c, 0, 61, 15
1, 81774, Note_off_c, 0, 61, 51
1, 81778, Note_off_c, 0, 68, 62
1, 81810, Note_off_c, 0, 73, 62
1, 81945, Note_on_c, 0, 75, 74
1, 81961, Control_c, 0, 64, 87
1, 81969, Note_on_c, 0, 60, 52
1, 81975, Control_c, 0, 64, 73
1, 81990, Control_c, 0, 64, 69
1, 82005, Control_c, 0, 64, 71
1, 82020, Control_c, 0, 64, 76
1, 82035, Control_c, 0, 64, 86
1, 82050, Control_c, 0, 64, 104
1, 82054, Note_off_c, 0, 77, 61
1, 82058, Note_on_c, 0, 73, 74
1, 82065, Control_c, 0, 64, 127
1, 82074, Note_on_c, 0, 58, 59
1, 82081, Note_on_c, 0, 66, 47
1, 82085, Note_off_c, 0, 60, 37
1, 82103, Note_off_c, 0, 75, 56
1, 82112, Note_off_c, 0, 66, 62
1, 82131, Note_off_c, 0, 58, 55
1, 82173, Note_off_c, 0, 73, 56
1, 82213, Control_c, 0, 64, 94
1, 82223, Note_on_c, 0, 72, 57
1, 82228, Control_c, 0, 64, 66
1, 82243, Control_c, 0, 64, 0
1, 82246, Note_on_c, 0, 65, 40
1, 82247, Note_on_c, 0, 60, 24
1, 82273, Note_on_c, 0, 56, 34
1, 82273, Note_on_c, 0, 68, 36
1, 82324, Control_c, 0, 64, 46
1, 82339, Control_c, 0, 64, 60
1, 82354, Control_c, 0, 64, 63
1, 82358, Note_off_c, 0, 60, 65
1, 82364, Note_off_c, 0, 68, 61
1, 82369, Control_c, 0, 64, 64
1, 82383, Note_off_c, 0, 56, 60
1, 82384, Control_c, 0, 64, 65
1, 82396, Note_off_c, 0, 72, 65
1, 82398, Control_c, 0, 64, 66
1, 82411, Note_off_c, 0, 65, 59
1, 82413, Control_c, 0, 64, 68
1, 82428, Control_c, 0, 64, 74
1, 82443, Control_c, 0, 64, 84
1, 82458, Control_c, 0, 64, 107
1, 82473, Control_c, 0, 64, 127
1, 82665, Control_c, 0, 64, 85
1, 82668, Note_on_c, 0, 73, 35
1, 82671, Note_on_c, 0, 77, 48
1, 82672, Note_on_c, 0, 68, 33
1, 82680, Control_c, 0, 64, 66
1, 82695, Control_c, 0, 64, 51
1, 82702, Note_on_c, 0, 61, 31
1, 82708, Note_on_c, 0, 65, 32
1, 82710, Control_c, 0, 64, 35
1, 82724, Control_c, 0, 64, 34
1, 82739, Control_c, 0, 64, 43
1, 82754, Control_c, 0, 64, 56
1, 82769, Control_c, 0, 64, 62
1, 82783, Control_c, 0, 64, 65
1, 82798, Control_c, 0, 64, 68
1, 82813, Control_c, 0, 64, 69
1, 82828, Control_c, 0, 64, 71
1, 82843, Control_c, 0, 64, 74
1, 82859, Control_c, 0, 64, 78
1, 82873, Control_c, 0, 64, 85
1, 82888, Control_c, 0, 64, 94
1, 82892, Note_off_c, 0, 65, 61
1, 82896, Note_off_c, 0, 61, 41
1, 82903, Control_c, 0, 64, 105
1, 82918, Control_c, 0, 64, 119
1, 82930, Note_off_c, 0, 68, 51
1, 82933, Control_c, 0, 64, 127
1, 83240, Note_on_c, 0, 66, 41
1, 83246, Note_off_c, 0, 77, 59
1, 83250, Note_on_c, 0, 60, 39
1, 83256, Note_on_c, 0, 70, 54
1, 83257, Note_on_c, 0, 80, 55
1, 83298, Note_off_c, 0, 73, 41
1, 83303, Note_off_c, 0, 60, 57
1, 83310, Note_off_c, 0, 66, 55
1, 83310, Note_off_c, 0, 70, 57
1, 83323, Note_on_c, 0, 75, 17
1, 83370, Note_off_c, 0, 75, 46
1, 83399, Control_c, 0, 64, 103
1, 83414, Control_c, 0, 64, 79
1, 83420, Note_off_c, 0, 80, 58
1, 83429, Control_c, 0, 64, 63
1, 83441, Note_on_c, 0, 73, 26
1, 83444, Control_c, 0, 64, 42
1, 83448, Note_on_c, 0, 61, 36
1, 83453, Note_on_c, 0, 77, 43
1, 83459, Control_c, 0, 64, 23
1, 83460, Note_on_c, 0, 65, 35
1, 83461, Note_on_c, 0, 68, 10
1, 83473, Control_c, 0, 64, 22
1, 83488, Control_c, 0, 64, 37
1, 83503, Control_c, 0, 64, 53
1, 83518, Control_c, 0, 64, 61
1, 83533, Control_c, 0, 64, 64
1, 83547, Control_c, 0, 64, 67
1, 83562, Control_c, 0, 64, 70
1, 83577, Control_c, 0, 64, 74
1, 83591, Control_c, 0, 64, 79
1, 83596, Note_off_c, 0, 61, 57
1, 83606, Control_c, 0, 64, 85
1, 83621, Control_c, 0, 64, 95
1, 83626, Note_off_c, 0, 68, 38
1, 83635, Note_off_c, 0, 65, 42
1, 83636, Control_c, 0, 64, 114
1, 83639, Note_off_c, 0, 77, 58
1, 83652, Note_off_c, 0, 73, 46
1, 83652, Control_c, 0, 64, 127
1, 84014, Note_on_c, 0, 77, 35
1, 84014, Note_on_c, 0, 65, 28
1, 84021, Note_on_c, 0, 68, 19
1, 84025, Note_on_c, 0, 73, 24
1, 84029, Control_c, 0, 64, 111
1, 84044, Control_c, 0, 64, 99
1, 84059, Control_c, 0, 64, 90
1, 84062, Note_on_c, 0, 61, 24
1, 84074, Control_c, 0, 64, 82
1, 84089, Control_c, 0, 64, 74
1, 84103, Control_c, 0, 64, 67
1, 84118, Control_c, 0, 64, 61
1, 84133, Control_c, 0, 64, 51
1, 84148, Control_c, 0, 64, 30
1, 84163, Control_c, 0, 64, 0
1, 84475, Control_c, 0, 64, 28
1, 84490, Control_c, 0, 64, 39
1, 84505, Control_c, 0, 64, 48
1, 84519, Control_c, 0, 64, 55
1, 84534, Control_c, 0, 64, 58
1, 84556, Control_c, 0, 64, 60
1, 84571, Control_c, 0, 64, 62
1, 84586, Control_c, 0, 64, 63
1, 84601, Control_c, 0, 64, 65
1, 84616, Control_c, 0, 64, 68
1, 84631, Control_c, 0, 64, 71
1, 84646, Control_c, 0, 64, 74
1, 84660, Control_c, 0, 64, 77
1, 84675, Control_c, 0, 64, 80
1, 84690, Control_c, 0, 64, 84
1, 84705, Control_c, 0, 64, 90
1, 84720, Control_c, 0, 64, 96
1, 84734, Control_c, 0, 64, 104
1, 84749, Control_c, 0, 64, 112
1, 84764, Control_c, 0, 64, 125
1, 84779, Control_c, 0, 64, 127
1, 84911, Note_off_c, 0, 68, 32
1, 85591, Note_on_c, 0, 75, 42
1, 85615, Note_off_c, 0, 61, 34
1, 85690, Note_off_c, 0, 73, 40
1, 85767, Note_off_c, 0, 65, 38
1, 85808, Note_off_c, 0, 77, 53
1, 86162, Note_on_c, 0, 77, 55
1, 86316, Note_off_c, 0, 75, 63
1, 86351, Control_c, 0, 64, 115
1, 86366, Control_c, 0, 64, 108
1, 86380, Control_c, 0, 64, 101
1, 86395, Control_c, 0, 64, 96
1, 86410, Control_c, 0, 64, 92
1, 86424, Control_c, 0, 64, 90
1, 86439, Control_c, 0, 64, 87
1, 86454, Control_c, 0, 64, 85
1, 86469, Control_c, 0, 64, 82
1, 86484, Control_c, 0, 64, 81
1, 86498, Control_c, 0, 64, 79
1, 86505, Note_on_c, 0, 78, 69
1, 86513, Control_c, 0, 64, 78
1, 86528, Control_c, 0, 64, 77
1, 86543, Control_c, 0, 64, 77
1, 86553, Note_off_c, 0, 77, 61
1, 86558, Control_c, 0, 64, 76
1, 86765, Control_c, 0, 64, 75
1, 86783, Note_on_c, 0, 77, 73
1, 86817, Control_c, 0, 64, 75
1, 86831, Control_c, 0, 64, 74
1, 86837, Note_off_c, 0, 78, 52
1, 86848, Control_c, 0, 64, 74
1, 86877, Control_c, 0, 64, 73
1, 86907, Control_c, 0, 64, 72
1, 86921, Control_c, 0, 64, 72
1, 86936, Control_c, 0, 64, 71
1, 86951, Control_c, 0, 64, 71
1, 87010, Control_c, 0, 64, 70
1, 87040, Control_c, 0, 64, 70
1, 87129, Control_c, 0, 64, 69
1, 87144, Control_c, 0, 64, 65
1, 87155, Note_on_c, 0, 80, 56
1, 87159, Control_c, 0, 64, 58
1, 87174, Control_c, 0, 64, 49
1, 87188, Control_c, 0, 64, 48
1, 87203, Control_c, 0, 64, 51
1, 87215, Note_off_c, 0, 77, 61
1, 87218, Control_c, 0, 64, 58
1, 87233, Control_c, 0, 64, 63
1, 87247, Control_c, 0, 64, 65
1, 87262, Control_c, 0, 64, 68
1, 87277, Control_c, 0, 64, 70
1, 87292, Control_c, 0, 64, 73
1, 87307, Control_c, 0, 64, 78
1, 87321, Control_c, 0, 64, 84
1, 87336, Control_c, 0, 64, 93
1, 87351, Control_c, 0, 64, 106
1, 87366, Control_c, 0, 64, 127
1, 87399, Note_on_c, 0, 68, 42
1, 87475, Note_on_c, 0, 75, 44
1, 87546, Note_off_c, 0, 68, 57
1, 87627, Note_on_c, 0, 67, 34
1, 87677, Note_on_c, 0, 77, 52
1, 87688, Note_on_c, 0, 73, 33
1, 87728, Note_off_c, 0, 75, 30
1, 87746, Note_off_c, 0, 67, 58
1, 87784, Note_off_c, 0, 77, 58
1, 87792, Note_off_c, 0, 73, 53
1, 87806, Note_on_c, 0, 66, 31
1, 87841, Note_off_c, 0, 66, 53
1, 87901, Note_on_c, 0, 65, 48
1, 87919, Note_off_c, 0, 80, 59
1, 87933, Note_on_c, 0, 73, 49
1, 87934, Note_on_c, 0, 77, 50
1, 87958, Note_off_c, 0, 65, 55
1, 88028, Note_on_c, 0, 61, 52
1, 88134, Note_off_c, 0, 61, 60
1, 88158, Note_on_c, 0, 56, 52
1, 88208, Note_on_c, 0, 82, 71
1, 88238, Note_off_c, 0, 56, 62
1, 88250, Note_off_c, 0, 77, 54
1, 88341, Note_on_c, 0, 55, 43
1, 88370, Note_off_c, 0, 73, 38
1, 88389, Note_on_c, 0, 75, 66
1, 88396, Note_off_c, 0, 55, 60
1, 88464, Note_on_c, 0, 54, 37
1, 88468, Note_off_c, 0, 75, 60
1, 88514, Note_off_c, 0, 54, 64
1, 88567, Note_on_c, 0, 77, 48
1, 88583, Note_on_c, 0, 53, 56
1, 88589, Note_on_c, 0, 70, 35
1, 88596, Note_on_c, 0, 73, 30
1, 88640, Note_off_c, 0, 53, 50
1, 88670, Note_off_c, 0, 73, 48
1, 88682, Note_off_c, 0, 77, 58
1, 88724, Note_off_c, 0, 70, 35
1, 88804, Control_c, 0, 64, 81
1, 88807, Note_on_c, 0, 44, 16
1, 88807, Note_on_c, 0, 73, 33
1, 88819, Control_c, 0, 64, 63
1, 88831, Note_on_c, 0, 77, 37
1, 88834, Control_c, 0, 64, 42
1, 88841, Note_on_c, 0, 70, 27
1, 88849, Control_c, 0, 64, 37
1, 88864, Control_c, 0, 64, 41
1, 88879, Control_c, 0, 64, 54
1, 88893, Control_c, 0, 64, 63
1, 88908, Control_c, 0, 64, 68
1, 88923, Control_c, 0, 64, 75
1, 88938, Control_c, 0, 64, 83
1, 88944, Note_off_c, 0, 82, 63
1, 88945, Note_on_c, 0, 37, 42
1, 88953, Control_c, 0, 64, 92
1, 88960, Note_off_c, 0, 44, 37
1, 88967, Control_c, 0, 64, 104
1, 88982, Control_c, 0, 64, 127
1, 89003, Note_off_c, 0, 70, 45
1, 89078, Note_off_c, 0, 37, 35
1, 89139, Note_on_c, 0, 44, 35
1, 89192, Note_off_c, 0, 44, 48
1, 89201, Note_on_c, 0, 80, 64
1, 89243, Note_off_c, 0, 77, 59
1, 89346, Note_on_c, 0, 53, 40
1, 89400, Note_on_c, 0, 75, 50
1, 89452, Note_off_c, 0, 75, 56
1, 89460, Note_off_c, 0, 53, 50
1, 89469, Note_off_c, 0, 73, 21
1, 89496, Note_on_c, 0, 54, 50
1, 89546, Note_on_c, 0, 77, 50
1, 89558, Note_off_c, 0, 54, 63
1, 89565, Poly_aftertouch_c, 0, 73, 127
1, 89609, Note_on_c, 0, 55, 47
1, 89612, Poly_aftertouch_c, 0, 73, 0
1, 89631, Note_off_c, 0, 77, 60
1, 89725, Note_off_c, 0, 55, 53
1, 89776, Control_c, 0, 64, 84
1, 89777, Note_on_c, 0, 56, 43
1, 89797, Note_on_c, 0, 77, 51
1, 89797, Control_c, 0, 64, 67
1, 89807, Note_on_c, 0, 73, 24
1, 89812, Control_c, 0, 64, 60
1, 89827, Control_c, 0, 64, 60
1, 89842, Control_c, 0, 64, 63
1, 89843, Note_on_c, 0, 68, 12
1, 89856, Control_c, 0, 64, 67
1, 89871, Control_c, 0, 64, 73
1, 89886, Control_c, 0, 64, 83
1, 89901, Control_c, 0, 64, 94
1, 89907, Note_off_c, 0, 56, 61
1, 89916, Control_c, 0, 64, 104
1, 89929, Note_on_c, 0, 61, 52
1, 89931, Control_c, 0, 64, 106
1, 89946, Control_c, 0, 64, 107
1, 89961, Control_c, 0, 64, 108
1, 89976, Control_c, 0, 64, 110
1, 89990, Control_c, 0, 64, 113
1, 89997, Note_off_c, 0, 61, 57
1, 90005, Control_c, 0, 64, 115
1, 90035, Control_c, 0, 64, 116
1, 90077, Note_on_c, 0, 65, 48
1, 90161, Note_off_c, 0, 65, 56
1, 90184, Note_on_c, 0, 66, 53
1, 90184, Control_c, 0, 64, 115
1, 90199, Control_c, 0, 64, 114
1, 90202, Note_off_c, 0, 68, 44
1, 90213, Control_c, 0, 64, 112
1, 90228, Control_c, 0, 64, 110
1, 90235, Note_off_c, 0, 80, 58
1, 90243, Control_c, 0, 64, 110
1, 90258, Control_c, 0, 64, 109
1, 90272, Control_c, 0, 64, 109
1, 90287, Control_c, 0, 64, 108
1, 90289, Note_off_c, 0, 66, 59
1, 90302, Control_c, 0, 64, 107
1, 90317, Control_c, 0, 64, 106
1, 90332, Control_c, 0, 64, 104
1, 90334, Note_on_c, 0, 67, 52
1, 90346, Control_c, 0, 64, 104
1, 90361, Control_c, 0, 64, 103
1, 90391, Control_c, 0, 64, 102
1, 90435, Control_c, 0, 64, 102
1, 90450, Control_c, 0, 64, 101
1, 90456, Note_on_c, 0, 80, 68
1, 90465, Control_c, 0, 64, 99
1, 90479, Control_c, 0, 64, 98
1, 90491, Note_off_c, 0, 77, 63
1, 90494, Control_c, 0, 64, 97
1, 90501, Note_on_c, 0, 65, 47
1, 90523, Note_off_c, 0, 67, 35
1, 90527, Note_off_c, 0, 73, 38
1, 90664, Control_c, 0, 64, 98
1, 90697, Note_off_c, 0, 65, 57
1, 90709, Control_c, 0, 64, 94
1, 90722, Note_on_c, 0, 63, 39
1, 90724, Control_c, 0, 64, 85
1, 90739, Control_c, 0, 64, 76
1, 90748, Note_on_c, 0, 66, 36
1, 90754, Control_c, 0, 64, 68
1, 90769, Control_c, 0, 64, 64
1, 90784, Control_c, 0, 64, 57
1, 90798, Control_c, 0, 64, 50
1, 90813, Control_c, 0, 64, 45
1, 90822, Note_on_c, 0, 78, 59
1, 90828, Control_c, 0, 64, 44
1, 90843, Control_c, 0, 64, 48
1, 90855, Note_on_c, 0, 70, 34
1, 90858, Control_c, 0, 64, 54
1, 90873, Control_c, 0, 64, 60
1, 90888, Control_c, 0, 64, 63
1, 90903, Control_c, 0, 64, 66
1, 90918, Control_c, 0, 64, 68
1, 90929, Note_off_c, 0, 63, 60
1, 90933, Control_c, 0, 64, 72
1, 90947, Control_c, 0, 64, 77
1, 90958, Note_off_c, 0, 70, 57
1, 90962, Control_c, 0, 64, 83
1, 90977, Control_c, 0, 64, 89
1, 90992, Control_c, 0, 64, 93
1, 91007, Control_c, 0, 64, 95
1, 91022, Control_c, 0, 64, 96
1, 91051, Control_c, 0, 64, 96
1, 91066, Control_c, 0, 64, 97
1, 91111, Note_off_c, 0, 66, 37
1, 91121, Note_on_c, 0, 72, 41
1, 91158, Note_on_c, 0, 56, 32
1, 91197, Note_off_c, 0, 80, 42
1, 91262, Note_off_c, 0, 56, 34
1, 91325, Control_c, 0, 64, 96
1, 91336, Note_off_c, 0, 78, 54
1, 91376, Note_off_c, 0, 72, 28
1, 91384, Control_c, 0, 64, 96
1, 91429, Control_c, 0, 64, 95
1, 91473, Control_c, 0, 64, 95
1, 91487, Control_c, 0, 64, 94
1, 91502, Control_c, 0, 64, 93
1, 91517, Control_c, 0, 64, 92
1, 91547, Control_c, 0, 64, 92
1, 91559, Note_on_c, 0, 77, 42
1, 91562, Control_c, 0, 64, 91
1, 91568, Note_on_c, 0, 65, 24
1, 91576, Control_c, 0, 64, 91
1, 91577, Note_on_c, 0, 61, 33
1, 91589, Note_on_c, 0, 68, 30
1, 91593, Note_on_c, 0, 73, 29
1, 91606, Control_c, 0, 64, 90
1, 91621, Control_c, 0, 64, 88
1, 91637, Control_c, 0, 64, 85
1, 91652, Control_c, 0, 64, 78
1, 91666, Control_c, 0, 64, 70
1, 91681, Control_c, 0, 64, 61
1, 91696, Control_c, 0, 64, 51
1, 91710, Control_c, 0, 64, 43
1, 91725, Control_c, 0, 64, 42
1, 91740, Control_c, 0, 64, 42
1, 91755, Control_c, 0, 64, 45
1, 91770, Control_c, 0, 64, 49
1, 91784, Control_c, 0, 64, 55
1, 91799, Control_c, 0, 64, 58
1, 91814, Control_c, 0, 64, 60
1, 91829, Control_c, 0, 64, 62
1, 91844, Control_c, 0, 64, 63
1, 91858, Control_c, 0, 64, 65
1, 91873, Control_c, 0, 64, 66
1, 91888, Control_c, 0, 64, 68
1, 91902, Control_c, 0, 64, 71
1, 91917, Control_c, 0, 64, 74
1, 91932, Control_c, 0, 64, 77
1, 91947, Control_c, 0, 64, 80
1, 91962, Control_c, 0, 64, 83
1, 91977, Control_c, 0, 64, 85
1, 91991, Control_c, 0, 64, 86
1, 92006, Control_c, 0, 64, 87
1, 92021, Control_c, 0, 64, 89
1, 92044, Control_c, 0, 64, 91
1, 92059, Control_c, 0, 64, 94
1, 92073, Control_c, 0, 64, 97
1, 92088, Control_c, 0, 64, 99
1, 92103, Control_c, 0, 64, 99
1, 92117, Control_c, 0, 64, 100
1, 92162, Control_c, 0, 64, 100
1, 92177, Note_off_c, 0, 68, 37
1, 92192, Note_off_c, 0, 77, 55
1, 92206, Note_off_c, 0, 73, 41
1, 92206, Control_c, 0, 64, 101
1, 92429, Control_c, 0, 64, 100
1, 92489, Control_c, 0, 64, 100
1, 92748, Note_off_c, 0, 65, 36
1, 92791, Note_off_c, 0, 61, 37
1, 93088, Control_c, 0, 64, 100
1, 93091, Note_on_c, 0, 75, 59
1, 93103, Control_c, 0, 64, 101
1, 93147, Control_c, 0, 64, 102
1, 93162, Control_c, 0, 64, 102
1, 93177, Control_c, 0, 64, 104
1, 93192, Control_c, 0, 64, 107
1, 93207, Control_c, 0, 64, 110
1, 93222, Control_c, 0, 64, 115
1, 93237, Control_c, 0, 64, 127
1, 93316, Note_off_c, 0, 75, 58
1, 93374, Note_on_c, 0, 73, 56
1, 93411, Note_off_c, 0, 73, 65
1, 93434, Note_on_c, 0, 75, 62
1, 93485, Note_on_c, 0, 73, 74
1, 93500, Note_off_c, 0, 75, 58
1, 93504, Control_c, 0, 64, 108
1, 93519, Control_c, 0, 64, 75
1, 93541, Control_c, 0, 64, 59
1, 93556, Control_c, 0, 64, 36
1, 93571, Control_c, 0, 64, 35
1, 93586, Control_c, 0, 64, 43
1, 93600, Control_c, 0, 64, 56
1, 93615, Control_c, 0, 64, 63
1, 93630, Control_c, 0, 64, 67
1, 93645, Control_c, 0, 64, 71
1, 93660, Control_c, 0, 64, 76
1, 93675, Control_c, 0, 64, 84
1, 93689, Control_c, 0, 64, 96
1, 93704, Control_c, 0, 64, 127
1, 93732, Note_off_c, 0, 73, 64
1, 93935, Note_on_c, 0, 72, 74
1, 94176, Note_on_c, 0, 58, 44
1, 94182, Note_on_c, 0, 54, 44
1, 94257, Note_on_c, 0, 70, 57
1, 94295, Note_on_c, 0, 65, 39
1, 94334, Control_c, 0, 64, 108
1, 94349, Control_c, 0, 64, 75
1, 94364, Control_c, 0, 64, 57
1, 94373, Note_off_c, 0, 72, 62
1, 94379, Control_c, 0, 64, 0
1, 94468, Control_c, 0, 64, 42
1, 94483, Control_c, 0, 64, 55
1, 94498, Control_c, 0, 64, 59
1, 94512, Control_c, 0, 64, 61
1, 94527, Control_c, 0, 64, 63
1, 94542, Control_c, 0, 64, 66
1, 94557, Control_c, 0, 64, 71
1, 94572, Control_c, 0, 64, 81
1, 94586, Control_c, 0, 64, 95
1, 94601, Control_c, 0, 64, 127
1, 94625, Note_off_c, 0, 58, 57
1, 94780, Note_off_c, 0, 54, 28
1, 94817, Note_off_c, 0, 65, 31
1, 94900, Note_on_c, 0, 55, 33
1, 94948, Note_on_c, 0, 73, 61
1, 94972, Note_on_c, 0, 64, 34
1, 94975, Note_off_c, 0, 55, 61
1, 94994, Note_off_c, 0, 70, 63
1, 95055, Note_off_c, 0, 64, 57
1, 95374, Note_on_c, 0, 63, 47
1, 95377, Note_on_c, 0, 51, 29
1, 95379, Control_c, 0, 64, 120
1, 95388, Note_on_c, 0, 54, 35
1, 95394, Control_c, 0, 64, 109
1, 95401, Note_on_c, 0, 61, 40
1, 95408, Control_c, 0, 64, 102
1, 95422, Note_on_c, 0, 44, 23
1, 95423, Control_c, 0, 64, 97
1, 95439, Control_c, 0, 64, 92
1, 95454, Control_c, 0, 64, 87
1, 95469, Control_c, 0, 64, 82
1, 95483, Control_c, 0, 64, 74
1, 95498, Control_c, 0, 64, 64
1, 95513, Control_c, 0, 64, 49
1, 95527, Control_c, 0, 64, 0
1, 95566, Note_off_c, 0, 73, 58
1, 95677, Control_c, 0, 64, 25
1, 95692, Control_c, 0, 64, 41
1, 95706, Control_c, 0, 64, 54
1, 95721, Control_c, 0, 64, 61
1, 95736, Control_c, 0, 64, 65
1, 95750, Control_c, 0, 64, 69
1, 95765, Control_c, 0, 64, 74
1, 95788, Control_c, 0, 64, 81
1, 95803, Control_c, 0, 64, 89
1, 95818, Control_c, 0, 64, 100
1, 95832, Control_c, 0, 64, 117
1, 95847, Control_c, 0, 64, 127
1, 96042, Note_off_c, 0, 51, 44
1, 96047, Note_off_c, 0, 44, 40
1, 96068, Note_off_c, 0, 61, 51
1, 96130, Note_off_c, 0, 63, 62
1, 96132, Note_off_c, 0, 54, 46
1, 96376, Note_on_c, 0, 55, 42
1, 96393, Note_on_c, 0, 72, 64
1, 96411, Note_on_c, 0, 64, 50
1, 96414, Note_on_c, 0, 58, 32
1, 96446, Note_off_c, 0, 55, 63
1, 96451, Note_off_c, 0, 58, 58
1, 96530, Note_off_c, 0, 64, 62
1, 96632, Poly_aftertouch_c, 0, 69, 127
1, 96722, Note_on_c, 0, 61, 49
1, 96739, Note_on_c, 0, 63, 54
1, 96743, Poly_aftertouch_c, 0, 69, 0
1, 96759, Control_c, 0, 64, 95
1, 96766, Note_on_c, 0, 54, 51
1, 96769, Note_on_c, 0, 51, 39
1, 96774, Control_c, 0, 64, 68
1, 96775, Note_on_c, 0, 44, 29
1, 96788, Control_c, 0, 64, 39
1, 96803, Control_c, 0, 64, 0
1, 96848, Control_c, 0, 64, 47
1, 96862, Control_c, 0, 64, 58
1, 96877, Control_c, 0, 64, 63
1, 96889, Note_off_c, 0, 72, 61
1, 96892, Control_c, 0, 64, 65
1, 96902, Note_off_c, 0, 61, 57
1, 96906, Control_c, 0, 64, 68
1, 96921, Control_c, 0, 64, 70
1, 96936, Note_off_c, 0, 51, 56
1, 96936, Control_c, 0, 64, 75
1, 96944, Note_off_c, 0, 54, 64
1, 96951, Control_c, 0, 64, 83
1, 96966, Control_c, 0, 64, 95
1, 96967, Note_off_c, 0, 44, 40
1, 96981, Control_c, 0, 64, 127
1, 97037, Note_off_c, 0, 63, 54
1, 97200, Note_on_c, 0, 71, 74
1, 97213, Note_on_c, 0, 57, 45
1, 97224, Note_on_c, 0, 53, 43
1, 97230, Note_on_c, 0, 62, 57
1, 97253, Note_off_c, 0, 57, 64
1, 97262, Note_off_c, 0, 53, 64
1, 97300, Note_off_c, 0, 62, 63
1, 97415, Note_off_c, 0, 71, 56
1, 97423, Poly_aftertouch_c, 0, 69, 127
1, 97458, Poly_aftertouch_c, 0, 69, 0
1, 97537, Control_c, 0, 64, 104
1, 97540, Note_on_c, 0, 63, 49
1, 97551, Note_on_c, 0, 54, 42
1, 97552, Control_c, 0, 64, 71
1, 97553, Note_on_c, 0, 61, 48
1, 97561, Note_on_c, 0, 51, 36
1, 97567, Control_c, 0, 64, 47
1, 97579, Note_on_c, 0, 44, 20
1, 97582, Control_c, 0, 64, 0
1, 97671, Control_c, 0, 64, 41
1, 97685, Control_c, 0, 64, 59
1, 97700, Control_c, 0, 64, 62
1, 97715, Control_c, 0, 64, 64
1, 97729, Control_c, 0, 64, 65
1, 97737, Note_off_c, 0, 61, 62
1, 97738, Note_off_c, 0, 44, 56
1, 97744, Control_c, 0, 64, 68
1, 97759, Note_off_c, 0, 54, 57
1, 97759, Control_c, 0, 64, 74
1, 97764, Note_off_c, 0, 63, 62
1, 97774, Control_c, 0, 64, 85
1, 97777, Note_off_c, 0, 51, 56
1, 97789, Control_c, 0, 64, 101
1, 97804, Control_c, 0, 64, 127
1, 98317, Note_on_c, 0, 70, 52
1, 98322, Note_on_c, 0, 52, 34
1, 98331, Control_c, 0, 64, 78
1, 98340, Note_on_c, 0, 55, 25
1, 98346, Control_c, 0, 64, 63
1, 98352, Note_on_c, 0, 60, 30
1, 98360, Control_c, 0, 64, 56
1, 98375, Control_c, 0, 64, 58
1, 98390, Control_c, 0, 64, 63
1, 98405, Control_c, 0, 64, 69
1, 98419, Control_c, 0, 64, 78
1, 98433, Control_c, 0, 64, 94
1, 98448, Control_c, 0, 64, 120
1, 98458, Note_off_c, 0, 70, 62
1, 98463, Control_c, 0, 64, 127
1, 98477, Note_off_c, 0, 52, 56
1, 98510, Note_off_c, 0, 55, 35
1, 98967, Note_on_c, 0, 51, 29
1, 98984, Note_on_c, 0, 63, 40
1, 98985, Note_on_c, 0, 61, 36
1, 98994, Note_on_c, 0, 54, 32
1, 99012, Note_on_c, 0, 44, 20
1, 99020, Control_c, 0, 64, 125
1, 99035, Control_c, 0, 64, 109
1, 99049, Control_c, 0, 64, 103
1, 99064, Control_c, 0, 64, 98
1, 99079, Control_c, 0, 64, 92
1, 99090, Note_off_c, 0, 60, 39
1, 99094, Control_c, 0, 64, 84
1, 99109, Control_c, 0, 64, 77
1, 99123, Control_c, 0, 64, 69
1, 99138, Control_c, 0, 64, 63
1, 99153, Control_c, 0, 64, 53
1, 99167, Control_c, 0, 64, 39
1, 99183, Control_c, 0, 64, 12
1, 99198, Control_c, 0, 64, 0
1, 99375, Control_c, 0, 64, 17
1, 99390, Control_c, 0, 64, 28
1, 99405, Control_c, 0, 64, 35
1, 99420, Control_c, 0, 64, 41
1, 99435, Control_c, 0, 64, 50
1, 99449, Control_c, 0, 64, 56
1, 99464, Control_c, 0, 64, 59
1, 99479, Control_c, 0, 64, 60
1, 99494, Control_c, 0, 64, 61
1, 99509, Control_c, 0, 64, 62
1, 99531, Control_c, 0, 64, 64
1, 99546, Control_c, 0, 64, 65
1, 99561, Control_c, 0, 64, 67
1, 99575, Control_c, 0, 64, 69
1, 99590, Control_c, 0, 64, 72
1, 99605, Control_c, 0, 64, 75
1, 99620, Control_c, 0, 64, 78
1, 99636, Control_c, 0, 64, 80
1, 99651, Control_c, 0, 64, 83
1, 99666, Control_c, 0, 64, 85
1, 99680, Control_c, 0, 64, 87
1, 99695, Control_c, 0, 64, 89
1, 99710, Control_c, 0, 64, 91
1, 99725, Control_c, 0, 64, 93
1, 99740, Control_c, 0, 64, 95
1, 99754, Control_c, 0, 64, 98
1, 99769, Control_c, 0, 64, 100
1, 99784, Control_c, 0, 64, 104
1, 99798, Control_c, 0, 64, 108
1, 99813, Control_c, 0, 64, 111
1, 99828, Control_c, 0, 64, 115
1, 99843, Control_c, 0, 64, 120
1, 99858, Control_c, 0, 64, 127
1, 100324, Control_c, 0, 64, 125
1, 100354, Control_c, 0, 64, 122
1, 100384, Control_c, 0, 64, 120
1, 100391, Note_on_c, 0, 58, 40
1, 100398, Control_c, 0, 64, 119
1, 100413, Control_c, 0, 64, 117
1, 100429, Control_c, 0, 64, 115
1, 100444, Control_c, 0, 64, 114
1, 100459, Control_c, 0, 64, 112
1, 100464, Note_off_c, 0, 63, 39
1, 100474, Control_c, 0, 64, 111
1, 100477, Note_off_c, 0, 61, 34
1, 100489, Control_c, 0, 64, 110
1, 100503, Control_c, 0, 64, 110
1, 100518, Control_c, 0, 64, 109
1, 100533, Control_c, 0, 64, 108
1, 100548, Control_c, 0, 64, 107
1, 100562, Control_c, 0, 64, 106
1, 100577, Control_c, 0, 64, 106
1, 100592, Control_c, 0, 64, 105
1, 100607, Control_c, 0, 64, 104
1, 100621, Control_c, 0, 64, 103
1, 100636, Control_c, 0, 64, 102
1, 100666, Control_c, 0, 64, 101
1, 100681, Control_c, 0, 64, 100
1, 100695, Control_c, 0, 64, 99
1, 100710, Control_c, 0, 64, 98
1, 100725, Control_c, 0, 64, 97
1, 100740, Control_c, 0, 64, 96
1, 100755, Control_c, 0, 64, 96
1, 100770, Control_c, 0, 64, 95
1, 100784, Control_c, 0, 64, 94
1, 100799, Control_c, 0, 64, 93
1, 100803, Note_off_c, 0, 58, 56
1, 100814, Control_c, 0, 64, 92
1, 100829, Control_c, 0, 64, 91
1, 100832, Note_on_c, 0, 60, 41
1, 100844, Control_c, 0, 64, 90
1, 100848, Note_off_c, 0, 44, 35
1, 100859, Control_c, 0, 64, 90
1, 100874, Control_c, 0, 64, 89
1, 100889, Control_c, 0, 64, 88
1, 100903, Control_c, 0, 64, 87
1, 100918, Control_c, 0, 64, 87
1, 100933, Control_c, 0, 64, 86
1, 100947, Control_c, 0, 64, 85
1, 100962, Control_c, 0, 64, 84
1, 100977, Control_c, 0, 64, 83
1, 100992, Control_c, 0, 64, 83
1, 101007, Control_c, 0, 64, 82
1, 101029, Control_c, 0, 64, 81
1, 101044, Control_c, 0, 64, 81
1, 101046, Note_off_c, 0, 60, 60
1, 101059, Control_c, 0, 64, 80
1, 101070, Note_on_c, 0, 61, 51
1, 101074, Control_c, 0, 64, 79
1, 101074, Note_off_c, 0, 51, 49
1, 101082, Note_off_c, 0, 54, 42
1, 101089, Control_c, 0, 64, 78
1, 101103, Control_c, 0, 64, 78
1, 101118, Control_c, 0, 64, 77
1, 101133, Control_c, 0, 64, 76
1, 101147, Control_c, 0, 64, 74
1, 101162, Control_c, 0, 64, 72
1, 101177, Control_c, 0, 64, 72
1, 101192, Control_c, 0, 64, 71
1, 101207, Control_c, 0, 64, 70
1, 101214, Note_on_c, 0, 62, 52
1, 101223, Control_c, 0, 64, 70
1, 101238, Control_c, 0, 64, 69
1, 101240, Note_off_c, 0, 61, 50
1, 101252, Control_c, 0, 64, 68
1, 101267, Control_c, 0, 64, 67
1, 101282, Control_c, 0, 64, 66
1, 101297, Control_c, 0, 64, 65
1, 101312, Control_c, 0, 64, 65
1, 101326, Control_c, 0, 64, 64
1, 101341, Control_c, 0, 64, 63
1, 101342, Note_off_c, 0, 62, 54
1, 101356, Control_c, 0, 64, 62
1, 101357, Note_on_c, 0, 65, 54
1, 101370, Control_c, 0, 64, 61
1, 101385, Control_c, 0, 64, 61
1, 101400, Control_c, 0, 64, 60
1, 101415, Control_c, 0, 64, 60
1, 101430, Control_c, 0, 64, 59
1, 101444, Control_c, 0, 64, 59
1, 101459, Control_c, 0, 64, 58
1, 101474, Control_c, 0, 64, 57
1, 101489, Control_c, 0, 64, 56
1, 101504, Control_c, 0, 64, 55
1, 101518, Control_c, 0, 64, 54
1, 101533, Control_c, 0, 64, 53
1, 101539, Note_off_c, 0, 65, 57
1, 101548, Control_c, 0, 64, 52
1, 101563, Control_c, 0, 64, 52
1, 101564, Note_on_c, 0, 66, 40
1, 101577, Control_c, 0, 64, 51
1, 101682, Control_c, 0, 64, 53
1, 101697, Control_c, 0, 64, 55
1, 101712, Control_c, 0, 64, 58
1, 101726, Control_c, 0, 64, 61
1, 101741, Control_c, 0, 64, 63
1, 101756, Control_c, 0, 64, 64
1, 101777, Control_c, 0, 64, 65
1, 101792, Control_c, 0, 64, 66
1, 101807, Note_on_c, 0, 63, 42
1, 101807, Note_off_c, 0, 66, 56
1, 101807, Control_c, 0, 64, 66
1, 101822, Control_c, 0, 64, 67
1, 101837, Control_c, 0, 64, 68
1, 101852, Control_c, 0, 64, 69
1, 101867, Control_c, 0, 64, 70
1, 101881, Control_c, 0, 64, 71
1, 101896, Control_c, 0, 64, 72
1, 101974, Note_off_c, 0, 63, 49
1, 101977, Note_on_c, 0, 65, 43
1, 102060, Note_off_c, 0, 65, 58
1, 102083, Note_on_c, 0, 66, 50
1, 102146, Note_off_c, 0, 66, 61
1, 102177, Note_on_c, 0, 68, 37
1, 102210, Note_on_c, 0, 70, 46
1, 102238, Control_c, 0, 64, 71
1, 102248, Note_off_c, 0, 68, 53
1, 102271, Note_off_c, 0, 70, 57
1, 102279, Note_on_c, 0, 72, 53
1, 102312, Control_c, 0, 64, 71
1, 102341, Control_c, 0, 64, 70
1, 102342, Note_on_c, 0, 73, 54
1, 102370, Note_off_c, 0, 72, 50
1, 102386, Control_c, 0, 64, 70
1, 102408, Note_off_c, 0, 73, 56
1, 102419, Note_on_c, 0, 75, 54
1, 102526, Control_c, 0, 64, 69
1, 102567, Note_on_c, 0, 77, 58
1, 102572, Note_off_c, 0, 75, 55
1, 102584, Note_on_c, 0, 61, 28
1, 102592, Note_on_c, 0, 68, 17
1, 102597, Note_on_c, 0, 65, 35
1, 102600, Control_c, 0, 64, 69
1, 102606, Note_on_c, 0, 73, 20
1, 102615, Control_c, 0, 64, 67
1, 102630, Control_c, 0, 64, 62
1, 102645, Control_c, 0, 64, 52
1, 102660, Control_c, 0, 64, 35
1, 102674, Control_c, 0, 64, 13
1, 102704, Control_c, 0, 64, 21
1, 102719, Control_c, 0, 64, 39
1, 102734, Control_c, 0, 64, 52
1, 102749, Control_c, 0, 64, 58
1, 102755, Note_off_c, 0, 73, 44
1, 102764, Control_c, 0, 64, 61
1, 102779, Control_c, 0, 64, 62
1, 102794, Control_c, 0, 64, 64
1, 102808, Control_c, 0, 64, 65
1, 102823, Note_off_c, 0, 65, 61
1, 102823, Control_c, 0, 64, 67
1, 102838, Control_c, 0, 64, 69
1, 102849, Note_off_c, 0, 61, 58
1, 102853, Control_c, 0, 64, 72
1, 102868, Control_c, 0, 64, 75
1, 102883, Control_c, 0, 64, 78
1, 102898, Control_c, 0, 64, 80
1, 102913, Control_c, 0, 64, 83
1, 102927, Control_c, 0, 64, 85
1, 102941, Control_c, 0, 64, 87
1, 102956, Control_c, 0, 64, 90
1, 102971, Control_c, 0, 64, 93
1, 102986, Control_c, 0, 64, 97
1, 103001, Control_c, 0, 64, 99
1, 103015, Control_c, 0, 64, 101
1, 103030, Control_c, 0, 64, 102
1, 103045, Control_c, 0, 64, 104
1, 103060, Control_c, 0, 64, 105
1, 103073, Note_off_c, 0, 68, 41
1, 103075, Control_c, 0, 64, 105
1, 103083, Note_on_c, 0, 76, 63
1, 103089, Control_c, 0, 64, 106
1, 103098, Note_on_c, 0, 64, 44
1, 103104, Control_c, 0, 64, 106
1, 103116, Note_on_c, 0, 60, 42
1, 103119, Note_off_c, 0, 77, 44
1, 103119, Control_c, 0, 64, 107
1, 103124, Note_on_c, 0, 72, 32
1, 103134, Control_c, 0, 64, 108
1, 103148, Control_c, 0, 64, 109
1, 103157, Note_off_c, 0, 72, 54
1, 103163, Control_c, 0, 64, 109
1, 103196, Note_off_c, 0, 60, 60
1, 103208, Control_c, 0, 64, 106
1, 103219, Note_off_c, 0, 76, 62
1, 103223, Control_c, 0, 64, 96
1, 103227, Note_on_c, 0, 75, 68
1, 103238, Control_c, 0, 64, 79
1, 103242, Note_on_c, 0, 58, 42
1, 103252, Note_on_c, 0, 66, 48
1, 103253, Note_on_c, 0, 70, 52
1, 103253, Control_c, 0, 64, 65
1, 103275, Control_c, 0, 64, 49
1, 103286, Note_off_c, 0, 64, 34
1, 103290, Control_c, 0, 64, 29
1, 103304, Control_c, 0, 64, 26
1, 103319, Control_c, 0, 64, 38
1, 103334, Control_c, 0, 64, 53
1, 103340, Note_off_c, 0, 70, 51
1, 103348, Control_c, 0, 64, 61
1, 103363, Control_c, 0, 64, 64
1, 103378, Control_c, 0, 64, 66
1, 103393, Control_c, 0, 64, 69
1, 103405, Note_off_c, 0, 66, 61
1, 103408, Control_c, 0, 64, 71
1, 103423, Control_c, 0, 64, 75
1, 103437, Control_c, 0, 64, 78
1, 103452, Control_c, 0, 64, 83
1, 103467, Control_c, 0, 64, 88
1, 103482, Control_c, 0, 64, 93
1, 103493, Note_off_c, 0, 58, 54
1, 103497, Control_c, 0, 64, 98
1, 103512, Control_c, 0, 64, 100
1, 103527, Control_c, 0, 64, 101
1, 103542, Control_c, 0, 64, 102
1, 103661, Control_c, 0, 64, 102
1, 103676, Control_c, 0, 64, 100
1, 103691, Control_c, 0, 64, 98
1, 103706, Control_c, 0, 64, 96
1, 103720, Control_c, 0, 64, 93
1, 103735, Control_c, 0, 64, 91
1, 103739, Note_on_c, 0, 77, 49
1, 103750, Control_c, 0, 64, 88
1, 103758, Note_on_c, 0, 73, 38
1, 103764, Control_c, 0, 64, 84
1, 103768, Note_on_c, 0, 61, 34
1, 103774, Note_on_c, 0, 68, 16
1, 103777, Note_on_c, 0, 65, 32
1, 103779, Control_c, 0, 64, 78
1, 103791, Note_off_c, 0, 75, 58
1, 103794, Control_c, 0, 64, 71
1, 103809, Control_c, 0, 64, 65
1, 103824, Control_c, 0, 64, 56
1, 103838, Control_c, 0, 64, 38
1, 103853, Control_c, 0, 64, 0
1, 104024, Control_c, 0, 64, 24
1, 104039, Control_c, 0, 64, 42
1, 104053, Control_c, 0, 64, 53
1, 104068, Control_c, 0, 64, 58
1, 104083, Control_c, 0, 64, 60
1, 104098, Control_c, 0, 64, 61
1, 104113, Control_c, 0, 64, 63
1, 104127, Control_c, 0, 64, 64
1, 104142, Control_c, 0, 64, 65
1, 104157, Control_c, 0, 64, 67
1, 104171, Control_c, 0, 64, 69
1, 104186, Control_c, 0, 64, 71
1, 104201, Control_c, 0, 64, 74
1, 104216, Control_c, 0, 64, 77
1, 104231, Control_c, 0, 64, 79
1, 104245, Control_c, 0, 64, 80
1, 104260, Control_c, 0, 64, 81
1, 104275, Control_c, 0, 64, 82
1, 104290, Control_c, 0, 64, 83
1, 104305, Control_c, 0, 64, 84
1, 104320, Control_c, 0, 64, 86
1, 104335, Control_c, 0, 64, 87
1, 104350, Control_c, 0, 64, 88
1, 104364, Control_c, 0, 64, 89
1, 104379, Control_c, 0, 64, 90
1, 104394, Control_c, 0, 64, 91
1, 104409, Control_c, 0, 64, 93
1, 104424, Control_c, 0, 64, 94
1, 104439, Control_c, 0, 64, 95
1, 104454, Control_c, 0, 64, 96
1, 104469, Control_c, 0, 64, 98
1, 104484, Control_c, 0, 64, 100
1, 104488, Note_off_c, 0, 61, 58
1, 104499, Control_c, 0, 64, 104
1, 104514, Control_c, 0, 64, 108
1, 104528, Control_c, 0, 64, 112
1, 104543, Control_c, 0, 64, 115
1, 104558, Control_c, 0, 64, 117
1, 104573, Control_c, 0, 64, 120
1, 104586, Note_off_c, 0, 68, 40
1, 104587, Control_c, 0, 64, 127
1, 104770, Note_off_c, 0, 77, 33
1, 104809, Note_off_c, 0, 73, 27
1, 104845, Note_off_c, 0, 65, 39
1, 104855, Note_on_c, 0, 60, 39
1, 104871, Note_on_c, 0, 75, 46
1, 104948, Note_off_c, 0, 60, 52
1, 104950, Note_off_c, 0, 75, 52
1, 104980, Control_c, 0, 64, 100
1, 104994, Control_c, 0, 64, 71
1, 105008, Note_on_c, 0, 73, 51
1, 105009, Control_c, 0, 64, 59
1, 105023, Note_on_c, 0, 61, 45
1, 105024, Control_c, 0, 64, 55
1, 105031, Note_on_c, 0, 70, 45
1, 105034, Note_on_c, 0, 65, 39
1, 105035, Note_on_c, 0, 58, 45
1, 105039, Control_c, 0, 64, 56
1, 105054, Control_c, 0, 64, 60
1, 105068, Control_c, 0, 64, 64
1, 105070, Note_off_c, 0, 61, 62
1, 105073, Note_off_c, 0, 65, 64
1, 105074, Note_off_c, 0, 58, 65
1, 105083, Control_c, 0, 64, 69
1, 105098, Control_c, 0, 64, 77
1, 105113, Control_c, 0, 64, 85
1, 105118, Note_off_c, 0, 70, 57
1, 105128, Control_c, 0, 64, 91
1, 105142, Note_off_c, 0, 73, 55
1, 105143, Control_c, 0, 64, 95
1, 105157, Control_c, 0, 64, 101
1, 105172, Control_c, 0, 64, 109
1, 105186, Control_c, 0, 64, 127
1, 105303, Poly_aftertouch_c, 0, 76, 127
1, 105312, Note_on_c, 0, 73, 48
1, 105313, Note_on_c, 0, 77, 72
1, 105315, Note_on_c, 0, 68, 55
1, 105317, Note_on_c, 0, 61, 48
1, 105335, Note_on_c, 0, 65, 34
1, 105339, Poly_aftertouch_c, 0, 76, 0
1, 105356, Note_off_c, 0, 61, 64
1, 105369, Note_off_c, 0, 65, 51
1, 105369, Note_off_c, 0, 68, 52
1, 105424, Note_off_c, 0, 73, 62
1, 105561, Note_on_c, 0, 75, 77
1, 105575, Note_on_c, 0, 65, 24
1, 105593, Note_on_c, 0, 60, 52
1, 105631, Note_off_c, 0, 77, 53
1, 105635, Note_off_c, 0, 65, 58
1, 105653, Note_off_c, 0, 60, 55
1, 105676, Note_on_c, 0, 73, 77
1, 105676, Note_on_c, 0, 58, 63
1, 105703, Note_on_c, 0, 66, 54
1, 105716, Note_off_c, 0, 75, 61
1, 105740, Note_off_c, 0, 66, 62
1, 105747, Note_off_c, 0, 58, 59
1, 105808, Note_off_c, 0, 73, 59
1, 105846, Note_on_c, 0, 72, 65
1, 105846, Control_c, 0, 64, 113
1, 105861, Control_c, 0, 64, 70
1, 105863, Note_on_c, 0, 60, 37
1, 105864, Note_on_c, 0, 65, 48
1, 105876, Control_c, 0, 64, 21
1, 105881, Note_on_c, 0, 68, 50
1, 105883, Note_on_c, 0, 56, 38
1, 105891, Control_c, 0, 64, 0
1, 105950, Control_c, 0, 64, 46
1, 105965, Control_c, 0, 64, 60
1, 105965, Note_off_c, 0, 60, 65
1, 105980, Control_c, 0, 64, 65
1, 105994, Note_off_c, 0, 68, 63
1, 105995, Note_off_c, 0, 56, 61
1, 105995, Control_c, 0, 64, 70
1, 106010, Control_c, 0, 64, 77
1, 106025, Note_off_c, 0, 65, 61
1, 106025, Control_c, 0, 64, 91
1, 106035, Note_off_c, 0, 72, 64
1, 106040, Control_c, 0, 64, 125
1, 106055, Control_c, 0, 64, 127
1, 106303, Note_on_c, 0, 77, 57
1, 106304, Note_on_c, 0, 68, 43
1, 106305, Note_on_c, 0, 65, 40
1, 106314, Control_c, 0, 64, 101
1, 106317, Note_on_c, 0, 73, 46
1, 106328, Note_on_c, 0, 61, 41
1, 106329, Control_c, 0, 64, 71
1, 106344, Control_c, 0, 64, 54
1, 106359, Control_c, 0, 64, 0
1, 106388, Control_c, 0, 64, 14
1, 106403, Control_c, 0, 64, 50
1, 106418, Control_c, 0, 64, 61
1, 106433, Control_c, 0, 64, 66
1, 106447, Control_c, 0, 64, 70
1, 106462, Control_c, 0, 64, 73
1, 106477, Control_c, 0, 64, 76
1, 106492, Control_c, 0, 64, 80
1, 106507, Control_c, 0, 64, 85
1, 106520, Note_off_c, 0, 65, 55
1, 106521, Control_c, 0, 64, 93
1, 106530, Note_off_c, 0, 68, 60
1, 106536, Control_c, 0, 64, 107
1, 106551, Control_c, 0, 64, 127
1, 106565, Note_off_c, 0, 61, 34
1, 106783, Note_off_c, 0, 77, 59
1, 106800, Note_on_c, 0, 80, 61
1, 106810, Note_on_c, 0, 66, 46
1, 106837, Note_on_c, 0, 70, 37
1, 106839, Note_on_c, 0, 60, 39
1, 106851, Note_on_c, 0, 75, 15
1, 106854, Note_off_c, 0, 73, 37
1, 106868, Note_off_c, 0, 70, 56
1, 106889, Note_off_c, 0, 66, 60
1, 106893, Note_off_c, 0, 60, 54
1, 106894, Note_off_c, 0, 75, 49
1, 106982, Control_c, 0, 64, 103
1, 106994, Note_on_c, 0, 77, 58
1, 106997, Note_off_c, 0, 80, 54
1, 106997, Control_c, 0, 64, 73
1, 107015, Note_on_c, 0, 73, 35
1, 107019, Control_c, 0, 64, 58
1, 107031, Note_on_c, 0, 65, 37
1, 107034, Control_c, 0, 64, 33
1, 107041, Note_on_c, 0, 61, 35
1, 107041, Note_on_c, 0, 68, 33
1, 107049, Control_c, 0, 64, 23
1, 107063, Control_c, 0, 64, 30
1, 107078, Control_c, 0, 64, 50
1, 107093, Control_c, 0, 64, 61
1, 107108, Control_c, 0, 64, 67
1, 107123, Control_c, 0, 64, 73
1, 107137, Control_c, 0, 64, 82
1, 107152, Control_c, 0, 64, 90
1, 107160, Note_off_c, 0, 61, 58
1, 107167, Control_c, 0, 64, 99
1, 107182, Control_c, 0, 64, 114
1, 107196, Note_off_c, 0, 68, 38
1, 107196, Control_c, 0, 64, 127
1, 107202, Note_off_c, 0, 77, 57
1, 107205, Note_off_c, 0, 65, 40
1, 107212, Note_off_c, 0, 73, 54
1, 107533, Note_on_c, 0, 77, 35
1, 107556, Note_on_c, 0, 73, 28
1, 107564, Note_on_c, 0, 61, 24
1, 107577, Note_on_c, 0, 65, 19
1, 107578, Poly_aftertouch_c, 0, 68, 127
1, 107612, Control_c, 0, 64, 112
1, 107627, Control_c, 0, 64, 88
1, 107642, Control_c, 0, 64, 71
1, 107657, Control_c, 0, 64, 59
1, 107672, Control_c, 0, 64, 42
1, 107686, Control_c, 0, 64, 30
1, 107701, Control_c, 0, 64, 30
1, 107716, Control_c, 0, 64, 36
1, 107731, Control_c, 0, 64, 49
1, 107746, Control_c, 0, 64, 58
1, 107768, Control_c, 0, 64, 61
1, 107783, Control_c, 0, 64, 63
1, 107798, Control_c, 0, 64, 64
1, 107812, Control_c, 0, 64, 65
1, 107827, Control_c, 0, 64, 67
1, 107842, Control_c, 0, 64, 69
1, 107857, Control_c, 0, 64, 73
1, 107872, Control_c, 0, 64, 78
1, 107886, Control_c, 0, 64, 86
1, 107901, Control_c, 0, 64, 92
1, 107916, Control_c, 0, 64, 97
1, 107931, Control_c, 0, 64, 104
1, 107946, Control_c, 0, 64, 112
1, 107960, Control_c, 0, 64, 127
1, 108442, Poly_aftertouch_c, 0, 68, 0
1, 109052, Note_on_c, 0, 75, 50
1, 109149, Note_off_c, 0, 73, 40
1, 109213, Control_c, 0, 64, 125
1, 109228, Control_c, 0, 64, 120
1, 109229, Note_off_c, 0, 77, 54
1, 109243, Control_c, 0, 64, 116
1, 109265, Control_c, 0, 64, 115
1, 109280, Control_c, 0, 64, 113
1, 109295, Control_c, 0, 64, 112
1, 109310, Control_c, 0, 64, 110
1, 109325, Control_c, 0, 64, 109
1, 109339, Control_c, 0, 64, 108
1, 109354, Control_c, 0, 64, 106
1, 109355, Note_off_c, 0, 65, 38
1, 109369, Control_c, 0, 64, 104
1, 109384, Control_c, 0, 64, 103
1, 109386, Note_off_c, 0, 61, 35
1, 109399, Control_c, 0, 64, 102
1, 109413, Control_c, 0, 64, 101
1, 109443, Control_c, 0, 64, 100
1, 109457, Control_c, 0, 64, 100
1, 109586, Note_on_c, 0, 77, 64
1, 109590, Control_c, 0, 64, 99
1, 109620, Control_c, 0, 64, 99
1, 109653, Note_off_c, 0, 75, 63
1, 109694, Control_c, 0, 64, 98
1, 109798, Control_c, 0, 64, 99
1, 109813, Control_c, 0, 64, 99
1, 109842, Note_on_c, 0, 80, 58
1, 109843, Control_c, 0, 64, 100
1, 109869, Note_off_c, 0, 77, 59
1, 109872, Control_c, 0, 64, 100
1, 109900, Note_on_c, 0, 78, 74
1, 109902, Control_c, 0, 64, 101
1, 109909, Note_off_c, 0, 80, 60
1, 109931, Control_c, 0, 64, 101
1, 109961, Control_c, 0, 64, 102
1, 110058, Control_c, 0, 64, 102
1, 110115, Note_on_c, 0, 77, 76
1, 110128, Note_off_c, 0, 78, 60
1, 110177, Control_c, 0, 64, 95
1, 110192, Control_c, 0, 64, 78
1, 110206, Control_c, 0, 64, 64
1, 110221, Control_c, 0, 64, 47
1, 110236, Control_c, 0, 64, 45
1, 110251, Control_c, 0, 64, 50
1, 110266, Control_c, 0, 64, 60
1, 110280, Control_c, 0, 64, 65
1, 110295, Control_c, 0, 64, 72
1, 110310, Control_c, 0, 64, 84
1, 110325, Control_c, 0, 64, 95
1, 110340, Control_c, 0, 64, 110
1, 110354, Control_c, 0, 64, 127
1, 110395, Note_on_c, 0, 80, 73
1, 110434, Note_off_c, 0, 77, 60
1, 110464, Note_off_c, 0, 80, 65
1, 110794, Note_on_c, 0, 44, 35
1, 110836, Note_on_c, 0, 37, 22
1, 110905, Note_on_c, 0, 85, 74
1, 110909, Note_off_c, 0, 37, 56
1, 110925, Note_on_c, 0, 75, 39
1, 110928, Note_off_c, 0, 44, 51
1, 110931, Note_on_c, 0, 73, 47
1, 110959, Note_off_c, 0, 75, 50
1, 110997, Note_off_c, 0, 73, 52
1, 111228, Note_on_c, 0, 56, 53
1, 111297, Note_on_c, 0, 77, 53
1, 111317, Note_on_c, 0, 73, 42
1, 111369, Note_off_c, 0, 56, 58
1, 111380, Note_off_c, 0, 77, 59
1, 111381, Note_on_c, 0, 63, 48
1, 111388, Note_off_c, 0, 73, 60
1, 111432, Note_off_c, 0, 63, 56
1, 111462, Note_on_c, 0, 64, 38
1, 111518, Note_on_c, 0, 65, 47
1, 111524, Note_on_c, 0, 61, 50
1, 111524, Note_on_c, 0, 73, 55
1, 111524, Note_off_c, 0, 64, 58
1, 111529, Note_on_c, 0, 77, 47
1, 111545, Note_off_c, 0, 65, 62
1, 111563, Note_off_c, 0, 61, 64
1, 111629, Note_off_c, 0, 73, 61
1, 111659, Note_off_c, 0, 77, 59
1, 111668, Note_off_c, 0, 85, 65
1, 111693, Poly_aftertouch_c, 0, 81, 127
1, 111761, Poly_aftertouch_c, 0, 82, 127
1, 111865, Note_on_c, 0, 37, 53
1, 111915, Note_off_c, 0, 37, 61
1, 111915, Note_on_c, 0, 44, 28
1, 111938, Poly_aftertouch_c, 0, 82, 0
1, 111953, Note_off_c, 0, 44, 44
1, 111980, Note_on_c, 0, 84, 68
1, 111983, Poly_aftertouch_c, 0, 81, 0
1, 111996, Note_on_c, 0, 72, 52
1, 112182, Note_on_c, 0, 55, 65
1, 112206, Note_on_c, 0, 77, 55
1, 112213, Note_on_c, 0, 73, 45
1, 112274, Note_off_c, 0, 73, 57
1, 112289, Note_off_c, 0, 55, 61
1, 112303, Note_off_c, 0, 77, 61
1, 112316, Poly_aftertouch_c, 0, 79, 127
1, 112324, Note_on_c, 0, 61, 54
1, 112371, Poly_aftertouch_c, 0, 79, 0
1, 112392, Note_off_c, 0, 61, 56
1, 112395, Note_on_c, 0, 63, 34
1, 112449, Note_off_c, 0, 63, 45
1, 112454, Note_on_c, 0, 77, 53
1, 112461, Note_off_c, 0, 84, 56
1, 112470, Note_on_c, 0, 60, 52
1, 112470, Note_on_c, 0, 73, 48
1, 112479, Note_on_c, 0, 65, 49
1, 112506, Note_off_c, 0, 65, 63
1, 112514, Note_off_c, 0, 60, 65
1, 112543, Note_off_c, 0, 77, 61
1, 112550, Note_off_c, 0, 73, 63
1, 112570, Note_off_c, 0, 72, 61
1, 112830, Note_on_c, 0, 44, 49
1, 112847, Note_on_c, 0, 37, 40
1, 112883, Control_c, 0, 64, 81
1, 112898, Control_c, 0, 64, 65
1, 112913, Control_c, 0, 64, 58
1, 112928, Control_c, 0, 64, 58
1, 112932, Note_on_c, 0, 82, 67
1, 112943, Control_c, 0, 64, 61
1, 112957, Control_c, 0, 64, 65
1, 112967, Note_on_c, 0, 70, 53
1, 112972, Control_c, 0, 64, 71
1, 112987, Control_c, 0, 64, 84
1, 112988, Note_off_c, 0, 37, 60
1, 113005, Poly_aftertouch_c, 0, 75, 0
1, 113009, Control_c, 0, 64, 127
1, 113012, Note_off_c, 0, 44, 63
1, 113223, Note_on_c, 0, 73, 40
1, 113235, Note_on_c, 0, 54, 23
1, 113235, Note_on_c, 0, 77, 36
1, 113268, Note_on_c, 0, 60, 54
1, 113299, Note_off_c, 0, 54, 44
1, 113340, Note_off_c, 0, 60, 63
1, 113350, Note_off_c, 0, 77, 37
1, 113367, Note_off_c, 0, 73, 37
1, 113379, Note_on_c, 0, 63, 49
1, 113433, Note_on_c, 0, 58, 38
1, 113437, Note_off_c, 0, 63, 52
1, 113447, Note_on_c, 0, 65, 30
1, 113459, Note_on_c, 0, 77, 55
1, 113470, Note_on_c, 0, 73, 41
1, 113479, Note_off_c, 0, 65, 56
1, 113492, Note_off_c, 0, 82, 55
1, 113522, Note_off_c, 0, 58, 61
1, 113563, Note_off_c, 0, 73, 58
1, 113653, Note_off_c, 0, 70, 58
1, 113930, Note_on_c, 0, 37, 38
1, 113933, Note_on_c, 0, 44, 35
1, 113934, Control_c, 0, 64, 92
1, 113949, Control_c, 0, 64, 68
1, 113964, Control_c, 0, 64, 54
1, 113978, Control_c, 0, 64, 50
1, 113994, Control_c, 0, 64, 53
1, 114009, Control_c, 0, 64, 59
1, 114013, Note_on_c, 0, 80, 60
1, 114024, Control_c, 0, 64, 66
1, 114032, Note_on_c, 0, 68, 39
1, 114039, Poly_aftertouch_c, 0, 72, 127
1, 114039, Control_c, 0, 64, 72
1, 114053, Control_c, 0, 64, 85
1, 114059, Note_off_c, 0, 37, 53
1, 114068, Control_c, 0, 64, 110
1, 114074, Note_off_c, 0, 44, 56
1, 114083, Control_c, 0, 64, 127
1, 114089, Poly_aftertouch_c, 0, 72, 0
1, 114110, Note_off_c, 0, 77, 60
1, 114357, Note_on_c, 0, 53, 47
1, 114443, Note_on_c, 0, 73, 40
1, 114447, Note_on_c, 0, 77, 43
1, 114488, Note_off_c, 0, 53, 55
1, 114543, Note_off_c, 0, 73, 50
1, 114566, Note_on_c, 0, 58, 39
1, 114586, Note_off_c, 0, 77, 54
1, 114626, Note_off_c, 0, 58, 55
1, 114696, Note_on_c, 0, 63, 32
1, 114981, Note_on_c, 0, 73, 36
1, 115003, Note_on_c, 0, 56, 25
1, 115005, Note_on_c, 0, 77, 36
1, 115013, Note_on_c, 0, 61, 33
1, 115014, Note_on_c, 0, 65, 22
1, 115027, Note_off_c, 0, 63, 23
1, 115056, Control_c, 0, 64, 111
1, 115070, Control_c, 0, 64, 94
1, 115085, Control_c, 0, 64, 78
1, 115100, Control_c, 0, 64, 67
1, 115115, Control_c, 0, 64, 60
1, 115130, Control_c, 0, 64, 56
1, 115144, Control_c, 0, 64, 57
1, 115159, Control_c, 0, 64, 61
1, 115174, Control_c, 0, 64, 64
1, 115189, Control_c, 0, 64, 68
1, 115204, Control_c, 0, 64, 72
1, 115218, Control_c, 0, 64, 75
1, 115233, Control_c, 0, 64, 77
1, 115256, Control_c, 0, 64, 79
1, 115271, Control_c, 0, 64, 82
1, 115285, Control_c, 0, 64, 85
1, 115300, Control_c, 0, 64, 90
1, 115315, Control_c, 0, 64, 97
1, 115330, Control_c, 0, 64, 109
1, 115345, Control_c, 0, 64, 127
1, 115719, Note_off_c, 0, 80, 58
1, 115731, Note_off_c, 0, 68, 54
1, 115769, Note_off_c, 0, 77, 58
1, 115807, Note_off_c, 0, 73, 52
1, 116255, Note_off_c, 0, 65, 54
1, 116398, Note_off_c, 0, 56, 40
1, 116497, Note_on_c, 0, 78, 68
1, 116500, Note_off_c, 0, 61, 36
1, 116816, Note_off_c, 0, 78, 56
1, 116884, Note_on_c, 0, 77, 57
1, 116917, Note_off_c, 0, 77, 65
1, 116920, Note_on_c, 0, 78, 70
1, 116982, Note_off_c, 0, 78, 61
1, 116986, Note_on_c, 0, 77, 78
1, 116990, Control_c, 0, 64, 109
1, 117004, Control_c, 0, 64, 72
1, 117019, Control_c, 0, 64, 59
1, 117034, Control_c, 0, 64, 54
1, 117048, Control_c, 0, 64, 56
1, 117063, Control_c, 0, 64, 61
1, 117078, Control_c, 0, 64, 66
1, 117093, Control_c, 0, 64, 73
1, 117108, Control_c, 0, 64, 84
1, 117123, Control_c, 0, 64, 97
1, 117138, Control_c, 0, 64, 115
1, 117153, Control_c, 0, 64, 127
1, 117248, Note_on_c, 0, 75, 79
1, 117438, Note_on_c, 0, 73, 84
1, 117447, Note_off_c, 0, 77, 60
1, 117475, Note_off_c, 0, 75, 62
1, 117495, Note_off_c, 0, 73, 65
1, 117686, Note_on_c, 0, 58, 45
1, 117725, Note_on_c, 0, 54, 45
1, 117759, Note_on_c, 0, 70, 73
1, 117795, Note_on_c, 0, 65, 55
1, 117827, Control_c, 0, 64, 101
1, 117842, Control_c, 0, 64, 67
1, 117857, Control_c, 0, 64, 43
1, 117871, Control_c, 0, 64, 0
1, 117902, Control_c, 0, 64, 31
1, 117917, Control_c, 0, 64, 54
1, 117932, Control_c, 0, 64, 63
1, 117946, Control_c, 0, 64, 68
1, 117961, Control_c, 0, 64, 72
1, 117976, Control_c, 0, 64, 76
1, 117992, Control_c, 0, 64, 82
1, 118007, Control_c, 0, 64, 92
1, 118022, Control_c, 0, 64, 115
1, 118037, Control_c, 0, 64, 127
1, 118258, Note_on_c, 0, 57, 51
1, 118282, Note_off_c, 0, 58, 49
1, 118289, Note_off_c, 0, 65, 0
1, 118300, Note_off_c, 0, 54, 60
1, 118305, Note_on_c, 0, 72, 77
1, 118326, Poly_aftertouch_c, 0, 65, 127
1, 118330, Note_on_c, 0, 64, 43
1, 118393, Note_off_c, 0, 70, 64
1, 118399, Poly_aftertouch_c, 0, 65, 0
1, 118506, Note_off_c, 0, 57, 55
1, 118641, Note_on_c, 0, 56, 30
1, 118643, Note_on_c, 0, 49, 35
1, 118675, Note_off_c, 0, 64, 24
1, 118688, Note_on_c, 0, 68, 62
1, 118702, Note_on_c, 0, 65, 32
1, 118725, Control_c, 0, 64, 96
1, 118740, Control_c, 0, 64, 75
1, 118755, Control_c, 0, 64, 60
1, 118769, Control_c, 0, 64, 0
1, 118862, Note_off_c, 0, 72, 61
1, 118889, Control_c, 0, 64, 20
1, 118904, Control_c, 0, 64, 44
1, 118918, Control_c, 0, 64, 49
1, 118933, Control_c, 0, 64, 53
1, 118948, Control_c, 0, 64, 58
1, 118963, Control_c, 0, 64, 63
1, 118978, Control_c, 0, 64, 67
1, 119000, Control_c, 0, 64, 72
1, 119015, Control_c, 0, 64, 81
1, 119030, Control_c, 0, 64, 90
1, 119045, Control_c, 0, 64, 99
1, 119060, Control_c, 0, 64, 107
1, 119074, Control_c, 0, 64, 113
1, 119089, Control_c, 0, 64, 127
1, 119184, Note_off_c, 0, 56, 41
1, 119232, Note_on_c, 0, 73, 74
1, 119508, Note_off_c, 0, 73, 62
1, 119685, Note_on_c, 0, 72, 73
1, 119764, Note_off_c, 0, 65, 56
1, 119846, Note_off_c, 0, 68, 58
1, 119894, Note_on_c, 0, 54, 43
1, 119943, Note_off_c, 0, 72, 56
1, 120001, Note_on_c, 0, 70, 59
1, 120038, Note_off_c, 0, 70, 63
1, 120061, Note_on_c, 0, 72, 68
1, 120089, Control_c, 0, 64, 101
1, 120104, Control_c, 0, 64, 72
1, 120107, Poly_aftertouch_c, 0, 63, 127
1, 120116, Note_on_c, 0, 70, 67
1, 120119, Control_c, 0, 64, 49
1, 120134, Control_c, 0, 64, 0
1, 120193, Control_c, 0, 64, 27
1, 120199, Note_off_c, 0, 72, 48
1, 120208, Control_c, 0, 64, 51
1, 120222, Control_c, 0, 64, 57
1, 120237, Control_c, 0, 64, 59
1, 120252, Control_c, 0, 64, 59
1, 120266, Control_c, 0, 64, 60
1, 120281, Control_c, 0, 64, 61
1, 120296, Control_c, 0, 64, 63
1, 120311, Control_c, 0, 64, 65
1, 120326, Control_c, 0, 64, 67
1, 120340, Control_c, 0, 64, 70
1, 120355, Control_c, 0, 64, 73
1, 120370, Control_c, 0, 64, 76
1, 120386, Control_c, 0, 64, 77
1, 120401, Control_c, 0, 64, 78
1, 120432, Poly_aftertouch_c, 0, 63, 0
1, 120437, Note_on_c, 0, 68, 72
1, 120503, Note_off_c, 0, 70, 60
1, 120586, Control_c, 0, 64, 77
1, 120619, Note_on_c, 0, 53, 41
1, 120631, Control_c, 0, 64, 77
1, 120645, Control_c, 0, 64, 75
1, 120660, Control_c, 0, 64, 68
1, 120673, Note_off_c, 0, 54, 31
1, 120675, Control_c, 0, 64, 58
1, 120689, Control_c, 0, 64, 45
1, 120704, Control_c, 0, 64, 36
1, 120719, Control_c, 0, 64, 36
1, 120721, Note_on_c, 0, 66, 62
1, 120734, Control_c, 0, 64, 44
1, 120742, Note_on_c, 0, 61, 39
1, 120749, Control_c, 0, 64, 56
1, 120763, Control_c, 0, 64, 62
1, 120778, Control_c, 0, 64, 66
1, 120793, Control_c, 0, 64, 68
1, 120808, Control_c, 0, 64, 70
1, 120823, Control_c, 0, 64, 72
1, 120825, Note_off_c, 0, 68, 57
1, 120837, Control_c, 0, 64, 73
1, 120852, Control_c, 0, 64, 75
1, 120867, Control_c, 0, 64, 77
1, 120882, Control_c, 0, 64, 79
1, 120897, Control_c, 0, 64, 80
1, 120936, Note_off_c, 0, 61, 37
1, 120956, Control_c, 0, 64, 80
1, 120986, Control_c, 0, 64, 79
1, 121016, Control_c, 0, 64, 78
1, 121031, Control_c, 0, 64, 78
1, 121045, Control_c, 0, 64, 76
1, 121060, Control_c, 0, 64, 75
1, 121075, Control_c, 0, 64, 74
1, 121087, Note_on_c, 0, 51, 40
1, 121089, Control_c, 0, 64, 73
1, 121104, Control_c, 0, 64, 72
1, 121119, Control_c, 0, 64, 71
1, 121134, Control_c, 0, 64, 71
1, 121149, Control_c, 0, 64, 70
1, 121153, Note_off_c, 0, 53, 40
1, 121163, Control_c, 0, 64, 69
1, 121178, Control_c, 0, 64, 69
1, 121194, Control_c, 0, 64, 68
1, 121204, Note_on_c, 0, 60, 45
1, 121209, Control_c, 0, 64, 68
1, 121224, Control_c, 0, 64, 66
1, 121246, Control_c, 0, 64, 63
1, 121261, Control_c, 0, 64, 56
1, 121275, Control_c, 0, 64, 42
1, 121290, Control_c, 0, 64, 0
1, 121498, Control_c, 0, 64, 26
1, 121512, Control_c, 0, 64, 39
1, 121527, Control_c, 0, 64, 48
1, 121542, Control_c, 0, 64, 53
1, 121557, Control_c, 0, 64, 56
1, 121572, Control_c, 0, 64, 58
1, 121579, Note_on_c, 0, 68, 51
1, 121586, Control_c, 0, 64, 59
1, 121594, Note_off_c, 0, 66, 60
1, 121601, Control_c, 0, 64, 60
1, 121616, Control_c, 0, 64, 61
1, 121631, Control_c, 0, 64, 61
1, 121647, Control_c, 0, 64, 62
1, 121661, Control_c, 0, 64, 63
1, 121676, Control_c, 0, 64, 64
1, 121691, Control_c, 0, 64, 65
1, 121750, Control_c, 0, 64, 65
1, 121765, Control_c, 0, 64, 66
1, 121794, Control_c, 0, 64, 66
1, 121809, Control_c, 0, 64, 67
1, 121839, Control_c, 0, 64, 67
1, 121854, Control_c, 0, 64, 66
1, 121868, Control_c, 0, 64, 63
1, 121883, Control_c, 0, 64, 58
1, 121894, Note_on_c, 0, 69, 47
1, 121898, Control_c, 0, 64, 56
1, 121904, Note_off_c, 0, 68, 54
1, 121913, Control_c, 0, 64, 57
1, 121928, Control_c, 0, 64, 60
1, 121943, Control_c, 0, 64, 64
1, 121958, Control_c, 0, 64, 66
1, 121973, Control_c, 0, 64, 70
1, 121992, Note_off_c, 0, 60, 63
1, 121996, Control_c, 0, 64, 72
1, 122011, Control_c, 0, 64, 74
1, 122025, Control_c, 0, 64, 75
1, 122055, Control_c, 0, 64, 75
1, 122065, Note_off_c, 0, 49, 63
1, 122070, Control_c, 0, 64, 76
1, 122085, Control_c, 0, 64, 77
1, 122087, Note_off_c, 0, 51, 61
1, 122099, Control_c, 0, 64, 80
1, 122114, Control_c, 0, 64, 82
1, 122129, Control_c, 0, 64, 84
1, 122143, Control_c, 0, 64, 85
1, 122203, Control_c, 0, 64, 86
1, 122232, Control_c, 0, 64, 86
1, 122247, Control_c, 0, 64, 87
1, 122425, Control_c, 0, 64, 86
1, 122455, Control_c, 0, 64, 86
1, 122456, Note_on_c, 0, 65, 36
1, 122469, Note_on_c, 0, 61, 26
1, 122469, Control_c, 0, 64, 85
1, 122470, Note_on_c, 0, 46, 30
1, 122482, Note_on_c, 0, 53, 30
1, 122484, Control_c, 0, 64, 84
1, 122499, Control_c, 0, 64, 78
1, 122514, Control_c, 0, 64, 69
1, 122529, Control_c, 0, 64, 61
1, 122538, Note_off_c, 0, 69, 42
1, 122543, Control_c, 0, 64, 50
1, 122558, Control_c, 0, 64, 42
1, 122573, Control_c, 0, 64, 41
1, 122588, Control_c, 0, 64, 44
1, 122603, Control_c, 0, 64, 51
1, 122617, Control_c, 0, 64, 57
1, 122632, Control_c, 0, 64, 60
1, 122647, Control_c, 0, 64, 62
1, 122661, Control_c, 0, 64, 63
1, 122676, Control_c, 0, 64, 65
1, 122691, Control_c, 0, 64, 66
1, 122706, Control_c, 0, 64, 68
1, 122721, Control_c, 0, 64, 70
1, 122743, Control_c, 0, 64, 73
1, 122758, Control_c, 0, 64, 76
1, 122773, Control_c, 0, 64, 80
1, 122789, Control_c, 0, 64, 84
1, 122804, Control_c, 0, 64, 87
1, 122819, Control_c, 0, 64, 91
1, 122834, Control_c, 0, 64, 96
1, 122835, Note_off_c, 0, 61, 41
1, 122848, Control_c, 0, 64, 104
1, 122856, Note_off_c, 0, 65, 50
1, 122863, Control_c, 0, 64, 127
1, 122985, Note_off_c, 0, 46, 41
1, 122995, Note_off_c, 0, 53, 41
1, 123636, Note_on_c, 0, 77, 53
1, 123658, Note_on_c, 0, 68, 45
1, 123727, Note_off_c, 0, 68, 58
1, 123743, Note_off_c, 0, 77, 58
1, 123899, Note_on_c, 0, 75, 48
1, 123906, Control_c, 0, 64, 112
1, 123916, Note_on_c, 0, 63, 27
1, 123921, Control_c, 0, 64, 80
1, 123928, Note_on_c, 0, 66, 38
1, 123934, Note_on_c, 0, 69, 27
1, 123936, Control_c, 0, 64, 66
1, 123947, Note_on_c, 0, 60, 26
1, 123951, Control_c, 0, 64, 57
1, 123966, Control_c, 0, 64, 56
1, 123980, Control_c, 0, 64, 59
1, 123995, Control_c, 0, 64, 63
1, 124010, Control_c, 0, 64, 66
1, 124025, Control_c, 0, 64, 70
1, 124040, Control_c, 0, 64, 73
1, 124054, Control_c, 0, 64, 78
1, 124069, Control_c, 0, 64, 82
1, 124084, Control_c, 0, 64, 89
1, 124099, Control_c, 0, 64, 98
1, 124113, Control_c, 0, 64, 111
1, 124128, Control_c, 0, 64, 127
1, 124366, Note_off_c, 0, 69, 42
1, 124506, Note_off_c, 0, 60, 39
1, 124561, Note_off_c, 0, 75, 53
1, 124566, Note_off_c, 0, 63, 35
1, 124604, Note_off_c, 0, 66, 34
1, 125398, Note_on_c, 0, 65, 37
1, 125420, Control_c, 0, 64, 90
1, 125430, Note_on_c, 0, 61, 31
1, 125431, Note_on_c, 0, 53, 26
1, 125434, Control_c, 0, 64, 72
1, 125442, Note_on_c, 0, 46, 26
1, 125449, Control_c, 0, 64, 62
1, 125464, Control_c, 0, 64, 56
1, 125479, Control_c, 0, 64, 58
1, 125494, Control_c, 0, 64, 62
1, 125508, Control_c, 0, 64, 66
1, 125523, Control_c, 0, 64, 70
1, 125538, Control_c, 0, 64, 76
1, 125553, Control_c, 0, 64, 82
1, 125568, Control_c, 0, 64, 90
1, 125583, Control_c, 0, 64, 96
1, 125597, Control_c, 0, 64, 104
1, 125612, Control_c, 0, 64, 116
1, 125627, Control_c, 0, 64, 127
1, 126054, Note_off_c, 0, 53, 33
1, 126486, Note_on_c, 0, 53, 40
1, 126737, Note_off_c, 0, 65, 35
1, 126838, Note_off_c, 0, 61, 36
1, 126940, Note_on_c, 0, 52, 50
1, 127046, Note_off_c, 0, 46, 39
1, 127130, Note_on_c, 0, 51, 69
1, 127210, Note_off_c, 0, 52, 47
1, 127255, Note_off_c, 0, 53, 42
1, 127291, Note_on_c, 0, 49, 43
1, 127293, Note_on_c, 0, 73, 76
1, 127385, Note_off_c, 0, 51, 30
1, 127432, Note_on_c, 0, 46, 47
1, 127455, Note_off_c, 0, 49, 60
1, 127472, Note_off_c, 0, 46, 64
1, 127668, Poly_aftertouch_c, 0, 70, 127
1, 127766, Note_on_c, 0, 42, 42
1, 127843, Control_c, 0, 64, 120
1, 127858, Control_c, 0, 64, 74
1, 127861, Note_on_c, 0, 58, 45
1, 127869, Note_on_c, 0, 63, 52
1, 127873, Control_c, 0, 64, 55
1, 127888, Control_c, 0, 64, 0
1, 127932, Control_c, 0, 64, 37
1, 127946, Control_c, 0, 64, 59
1, 127961, Control_c, 0, 64, 66
1, 127984, Control_c, 0, 64, 73
1, 127999, Control_c, 0, 64, 85
1, 128014, Control_c, 0, 64, 98
1, 128028, Control_c, 0, 64, 127
1, 128033, Poly_aftertouch_c, 0, 70, 0
1, 128069, Note_off_c, 0, 58, 51
1, 128078, Note_off_c, 0, 73, 64
1, 128105, Note_on_c, 0, 30, 42
1, 128146, Note_off_c, 0, 30, 58
1, 128158, Note_off_c, 0, 42, 62
1, 128400, Note_off_c, 0, 63, 50
1, 128453, Note_on_c, 0, 49, 9
1, 128513, Note_off_c, 0, 49, 44
1, 128557, Note_on_c, 0, 58, 44
1, 128622, Note_off_c, 0, 58, 54
1, 128670, Note_on_c, 0, 63, 45
1, 128714, Note_off_c, 0, 63, 63
1, 128887, Note_on_c, 0, 70, 41
1, 128976, Note_off_c, 0, 70, 62
1, 129219, Note_on_c, 0, 63, 34
1, 129386, Note_off_c, 0, 63, 40
1, 129415, Note_on_c, 0, 58, 43
1, 129508, Note_off_c, 0, 58, 45
1, 129539, Note_on_c, 0, 97, 57
1, 129646, Note_on_c, 0, 49, 36
1, 129685, Note_off_c, 0, 49, 63
1, 129890, Note_on_c, 0, 42, 32
1, 129987, Note_off_c, 0, 42, 58
1, 129995, Note_off_c, 0, 97, 62
1, 130128, Note_on_c, 0, 96, 74
1, 130229, Note_on_c, 0, 49, 42
1, 130321, Note_off_c, 0, 49, 55
1, 130363, Note_on_c, 0, 58, 36
1, 130376, Note_on_c, 0, 87, 56
1, 130420, Note_off_c, 0, 96, 63
1, 130450, Note_off_c, 0, 58, 49
1, 130525, Note_on_c, 0, 63, 30
1, 130579, Note_off_c, 0, 87, 28
1, 130590, Note_off_c, 0, 63, 59
1, 130757, Note_on_c, 0, 95, 70
1, 130810, Note_on_c, 0, 70, 44
1, 130895, Note_off_c, 0, 70, 59
1, 131049, Note_on_c, 0, 86, 52
1, 131056, Note_off_c, 0, 95, 64
1, 131061, Poly_aftertouch_c, 0, 93, 127
1, 131085, Note_off_c, 0, 86, 64
1, 131088, Poly_aftertouch_c, 0, 93, 0
1, 131096, Poly_aftertouch_c, 0, 91, 127
1, 131141, Note_on_c, 0, 63, 46
1, 131172, Poly_aftertouch_c, 0, 91, 0
1, 131219, Note_off_c, 0, 63, 50
1, 131265, Note_on_c, 0, 94, 72
1, 131297, Note_on_c, 0, 85, 49
1, 131300, Note_on_c, 0, 58, 30
1, 131327, Note_off_c, 0, 85, 62
1, 131335, Note_off_c, 0, 94, 63
1, 131354, Note_off_c, 0, 58, 56
1, 131373, Note_on_c, 0, 49, 39
1, 131404, Note_off_c, 0, 49, 58
1, 131617, Control_c, 0, 64, 74
1, 131618, Note_on_c, 0, 87, 66
1, 131632, Control_c, 0, 64, 61
1, 131635, Note_on_c, 0, 42, 37
1, 131636, Note_on_c, 0, 84, 36
1, 131647, Control_c, 0, 64, 55
1, 131662, Control_c, 0, 64, 57
1, 131676, Control_c, 0, 64, 62
1, 131691, Control_c, 0, 64, 67
1, 131706, Control_c, 0, 64, 76
1, 131729, Control_c, 0, 64, 102
1, 131743, Note_off_c, 0, 42, 63
1, 131744, Control_c, 0, 64, 127
1, 131860, Note_off_c, 0, 87, 60
1, 131863, Note_off_c, 0, 84, 56
1, 131880, Note_on_c, 0, 83, 63
1, 131937, Note_on_c, 0, 49, 39
1, 131965, Note_off_c, 0, 83, 63
1, 132009, Note_off_c, 0, 49, 52
1, 132072, Note_on_c, 0, 58, 35
1, 132080, Note_on_c, 0, 86, 71
1, 132106, Note_on_c, 0, 82, 55
1, 132121, Note_off_c, 0, 58, 59
1, 132176, Note_on_c, 0, 63, 44
1, 132219, Note_off_c, 0, 63, 48
1, 132226, Note_off_c, 0, 82, 39
1, 132307, Note_on_c, 0, 85, 72
1, 132310, Note_off_c, 0, 86, 64
1, 132364, Note_off_c, 0, 85, 64
1, 132402, Note_on_c, 0, 63, 49
1, 132450, Note_off_c, 0, 63, 55
1, 132536, Note_on_c, 0, 84, 71
1, 132567, Note_on_c, 0, 75, 52
1, 132594, Note_on_c, 0, 58, 4
1, 132602, Note_on_c, 0, 49, 50
1, 132618, Note_off_c, 0, 75, 55
1, 132632, Note_off_c, 0, 84, 58
1, 132637, Note_off_c, 0, 49, 64
1, 132652, Note_off_c, 0, 58, 33
1, 132803, Control_c, 0, 64, 116
1, 132818, Control_c, 0, 64, 75
1, 132822, Note_on_c, 0, 83, 69
1, 132832, Control_c, 0, 64, 61
1, 132841, Note_on_c, 0, 42, 41
1, 132847, Control_c, 0, 64, 59
1, 132849, Note_on_c, 0, 74, 39
1, 132862, Control_c, 0, 64, 62
1, 132878, Control_c, 0, 64, 66
1, 132893, Control_c, 0, 64, 74
1, 132907, Control_c, 0, 64, 92
1, 132922, Control_c, 0, 64, 127
1, 132935, Note_off_c, 0, 83, 64
1, 132948, Note_off_c, 0, 74, 63
1, 132961, Note_off_c, 0, 42, 62
1, 133037, Poly_aftertouch_c, 0, 79, 127
1, 133131, Note_on_c, 0, 82, 62
1, 133150, Note_on_c, 0, 73, 52
1, 133274, Note_on_c, 0, 49, 37
1, 133293, Note_off_c, 0, 73, 63
1, 133299, Poly_aftertouch_c, 0, 79, 0
1, 133372, Note_on_c, 0, 75, 50
1, 133390, Note_off_c, 0, 82, 65
1, 133404, Note_on_c, 0, 58, 45
1, 133501, Note_on_c, 0, 63, 43
1, 133542, Note_off_c, 0, 75, 61
1, 133577, Note_on_c, 0, 71, 60
1, 133628, Note_off_c, 0, 63, 55
1, 133735, Note_off_c, 0, 49, 35
1, 133772, Note_off_c, 0, 58, 57
1, 133786, Note_off_c, 0, 71, 55
1, 133791, Note_on_c, 0, 74, 65
1, 133827, Note_on_c, 0, 70, 42
1, 134017, Note_on_c, 0, 58, 46
1, 134033, Note_on_c, 0, 73, 70
1, 134057, Note_off_c, 0, 74, 62
1, 134069, Note_off_c, 0, 70, 38
1, 134131, Note_off_c, 0, 73, 64
1, 134169, Note_on_c, 0, 49, 39
1, 134174, Note_off_c, 0, 58, 37
1, 134365, Note_off_c, 0, 49, 34
1, 134409, Note_on_c, 0, 42, 42
1, 134436, Note_on_c, 0, 72, 60
1, 134449, Note_on_c, 0, 69, 39
1, 134449, Control_c, 0, 64, 96
1, 134463, Control_c, 0, 64, 71
1, 134478, Control_c, 0, 64, 59
1, 134493, Control_c, 0, 64, 54
1, 134508, Control_c, 0, 64, 58
1, 134523, Control_c, 0, 64, 64
1, 134537, Control_c, 0, 64, 71
1, 134552, Control_c, 0, 64, 83
1, 134567, Control_c, 0, 64, 112
1, 134582, Control_c, 0, 64, 127
1, 134629, Note_off_c, 0, 69, 45
1, 134777, Note_on_c, 0, 63, 45
1, 134795, Note_off_c, 0, 42, 62
1, 134796, Note_off_c, 0, 72, 64
1, 134887, Note_off_c, 0, 63, 55
1, 135005, Note_on_c, 0, 30, 40
1, 135041, Note_on_c, 0, 71, 56
1, 135105, Note_on_c, 0, 62, 22
1, 135152, Note_off_c, 0, 71, 62
1, 135194, Note_off_c, 0, 62, 49
1, 135223, Note_on_c, 0, 42, 53
1, 135247, Note_off_c, 0, 30, 44
1, 135260, Note_off_c, 0, 42, 64
1, 135490, Note_on_c, 0, 70, 53
1, 135515, Control_c, 0, 64, 83
1, 135519, Note_on_c, 0, 61, 40
1, 135530, Control_c, 0, 64, 65
1, 135545, Control_c, 0, 64, 58
1, 135548, Note_on_c, 0, 49, 23
1, 135560, Control_c, 0, 64, 59
1, 135576, Control_c, 0, 64, 63
1, 135591, Control_c, 0, 64, 70
1, 135605, Control_c, 0, 64, 84
1, 135620, Control_c, 0, 64, 127
1, 135709, Note_off_c, 0, 61, 53
1, 135721, Note_on_c, 0, 58, 42
1, 135747, Note_off_c, 0, 49, 41
1, 135789, Note_off_c, 0, 58, 57
1, 135807, Note_off_c, 0, 70, 53
1, 136150, Note_on_c, 0, 70, 37
1, 136224, Note_off_c, 0, 70, 62
1, 136234, Note_on_c, 0, 63, 37
1, 136269, Note_on_c, 0, 60, 28
1, 136374, Note_off_c, 0, 63, 57
1, 136406, Note_off_c, 0, 60, 34
1, 136851, Note_on_c, 0, 63, 47
1, 136914, Note_off_c, 0, 63, 54
1, 137021, Note_on_c, 0, 58, 36
1, 137066, Note_off_c, 0, 58, 59
1, 137112, Note_on_c, 0, 49, 30
1, 137148, Note_off_c, 0, 49, 57
1, 137314, Note_on_c, 0, 42, 54
1, 137357, Note_off_c, 0, 42, 62
1, 137678, Note_on_c, 0, 49, 36
1, 137747, Note_off_c, 0, 49, 55
1, 137794, Note_on_c, 0, 58, 51
1, 137885, Note_off_c, 0, 58, 58
1, 137917, Note_on_c, 0, 63, 50
1, 138052, Note_off_c, 0, 63, 48
1, 138059, Note_on_c, 0, 70, 45
1, 138084, Note_off_c, 0, 70, 57
1, 138194, Note_on_c, 0, 63, 38
1, 138224, Note_off_c, 0, 63, 53
1, 138451, Note_on_c, 0, 49, 50
1, 138493, Note_off_c, 0, 49, 65
1, 138704, Note_on_c, 0, 62, 53
1, 138706, Note_on_c, 0, 50, 48
1, 138733, Control_c, 0, 64, 87
1, 138735, Note_on_c, 0, 59, 43
1, 138748, Control_c, 0, 64, 67
1, 138764, Control_c, 0, 64, 57
1, 138779, Control_c, 0, 64, 56
1, 138794, Control_c, 0, 64, 60
1, 138808, Control_c, 0, 64, 64
1, 138823, Control_c, 0, 64, 70
1, 138838, Control_c, 0, 64, 79
1, 138849, Note_on_c, 0, 42, 47
1, 138853, Control_c, 0, 64, 91
1, 138867, Control_c, 0, 64, 107
1, 138873, Note_off_c, 0, 59, 57
1, 138882, Control_c, 0, 64, 127
1, 138885, Note_off_c, 0, 42, 50
1, 139089, Note_off_c, 0, 50, 29
1, 139122, Note_off_c, 0, 62, 38
1, 139134, Control_c, 0, 64, 98
1, 139137, Note_on_c, 0, 43, 43
1, 139149, Control_c, 0, 64, 70
1, 139152, Note_on_c, 0, 51, 42
1, 139164, Control_c, 0, 64, 43
1, 139178, Control_c, 0, 64, 12
1, 139193, Control_c, 0, 64, 17
1, 139215, Control_c, 0, 64, 41
1, 139217, Note_on_c, 0, 61, 44
1, 139230, Control_c, 0, 64, 58
1, 139235, Note_off_c, 0, 43, 63
1, 139237, Note_on_c, 0, 58, 40
1, 139245, Control_c, 0, 64, 65
1, 139259, Control_c, 0, 64, 73
1, 139264, Note_off_c, 0, 51, 64
1, 139274, Control_c, 0, 64, 83
1, 139275, Note_off_c, 0, 58, 62
1, 139289, Control_c, 0, 64, 96
1, 139295, Note_off_c, 0, 61, 62
1, 139304, Control_c, 0, 64, 113
1, 139319, Control_c, 0, 64, 127
1, 139474, Note_on_c, 0, 58, 55
1, 139513, Poly_aftertouch_c, 0, 51, 0
1, 139532, Poly_aftertouch_c, 0, 51, 0
1, 139532, Note_off_c, 0, 58, 59
1, 139539, Note_on_c, 0, 61, 52
1, 139569, Note_off_c, 0, 61, 64
1, 139601, Note_on_c, 0, 62, 61
1, 139641, Note_off_c, 0, 62, 59
1, 139750, Control_c, 0, 64, 116
1, 139764, Control_c, 0, 64, 75
1, 139779, Control_c, 0, 64, 61
1, 139793, Note_on_c, 0, 61, 50
1, 139794, Note_on_c, 0, 85, 79
1, 139794, Control_c, 0, 64, 56
1, 139795, Note_on_c, 0, 77, 56
1, 139808, Control_c, 0, 64, 59
1, 139823, Control_c, 0, 64, 64
1, 139824, Note_off_c, 0, 61, 65
1, 139831, Poly_aftertouch_c, 0, 65, 0
1, 139832, Note_off_c, 0, 77, 64
1, 139838, Control_c, 0, 64, 70
1, 139849, Note_off_c, 0, 85, 67
1, 139853, Control_c, 0, 64, 80
1, 139868, Control_c, 0, 64, 100
1, 139879, Note_on_c, 0, 71, 69
1, 139882, Control_c, 0, 64, 127
1, 139909, Note_off_c, 0, 71, 63
1, 140001, Note_on_c, 0, 72, 33
1, 140008, Control_c, 0, 64, 101
1, 140020, Poly_aftertouch_c, 0, 73, 127
1, 140023, Control_c, 0, 64, 73
1, 140030, Note_off_c, 0, 72, 58
1, 140033, Note_on_c, 0, 75, 70
1, 140038, Control_c, 0, 64, 62
1, 140048, Note_on_c, 0, 63, 53
1, 140053, Note_on_c, 0, 55, 56
1, 140053, Control_c, 0, 64, 59
1, 140068, Control_c, 0, 64, 61
1, 140072, Poly_aftertouch_c, 0, 73, 0
1, 140082, Control_c, 0, 64, 66
1, 140097, Control_c, 0, 64, 73
1, 140112, Control_c, 0, 64, 82
1, 140113, Note_off_c, 0, 75, 61
1, 140114, Note_off_c, 0, 63, 63
1, 140120, Note_off_c, 0, 55, 63
1, 140121, Note_on_c, 0, 72, 47
1, 140127, Control_c, 0, 64, 89
1, 140142, Control_c, 0, 64, 94
1, 140147, Note_off_c, 0, 72, 58
1, 140154, Note_on_c, 0, 71, 60
1, 140157, Control_c, 0, 64, 95
1, 140171, Control_c, 0, 64, 97
1, 140173, Note_off_c, 0, 71, 62
1, 140186, Control_c, 0, 64, 100
1, 140201, Control_c, 0, 64, 107
1, 140216, Control_c, 0, 64, 127
1, 140247, Note_on_c, 0, 70, 65
1, 140323, Note_off_c, 0, 70, 57
1, 140349, Note_on_c, 0, 62, 59
1, 140382, Poly_aftertouch_c, 0, 63, 0
1, 140388, Note_off_c, 0, 62, 61
1, 140435, Note_on_c, 0, 70, 76
1, 140452, Note_on_c, 0, 53, 63
1, 140466, Note_on_c, 0, 61, 12
1, 140499, Note_off_c, 0, 53, 60
1, 140510, Note_off_c, 0, 70, 61
1, 140514, Note_off_c, 0, 61, 51
1, 140530, Poly_aftertouch_c, 0, 42, 0
1, 140632, Note_on_c, 0, 59, 36
1, 140684, Note_on_c, 0, 43, 50
1, 140690, Note_on_c, 0, 51, 57
1, 140713, Control_c, 0, 64, 104
1, 140728, Control_c, 0, 64, 70
1, 140743, Control_c, 0, 64, 50
1, 140756, Note_off_c, 0, 43, 64
1, 140758, Control_c, 0, 64, 35
1, 140763, Note_off_c, 0, 59, 54
1, 140767, Note_on_c, 0, 63, 64
1, 140772, Note_on_c, 0, 58, 56
1, 140773, Control_c, 0, 64, 40
1, 140778, Note_on_c, 0, 61, 57
1, 140782, Note_off_c, 0, 51, 63
1, 140787, Control_c, 0, 64, 55
1, 140802, Control_c, 0, 64, 64
1, 140806, Note_off_c, 0, 58, 65
1, 140817, Control_c, 0, 64, 73
1, 140831, Control_c, 0, 64, 92
1, 140838, Note_off_c, 0, 61, 60
1, 140846, Control_c, 0, 64, 127
1, 140854, Note_off_c, 0, 63, 60
1, 140940, Note_on_c, 0, 51, 40
1, 140955, Note_on_c, 0, 58, 57
1, 140975, Note_off_c, 0, 51, 50
1, 140997, Note_on_c, 0, 61, 61
1, 141010, Note_off_c, 0, 58, 61
1, 141032, Note_off_c, 0, 61, 65
1, 141048, Note_on_c, 0, 62, 72
1, 141104, Note_off_c, 0, 62, 62
1, 141122, Note_on_c, 0, 63, 67
1, 141160, Note_off_c, 0, 63, 62
1, 141188, Control_c, 0, 64, 100
1, 141203, Control_c, 0, 64, 73
1, 141209, Note_on_c, 0, 85, 88
1, 141210, Note_on_c, 0, 65, 38
1, 141213, Note_on_c, 0, 61, 49
1, 141217, Control_c, 0, 64, 65
1, 141220, Note_on_c, 0, 77, 49
1, 141232, Control_c, 0, 64, 67
1, 141240, Note_off_c, 0, 65, 49
1, 141247, Note_off_c, 0, 61, 63
1, 141247, Control_c, 0, 64, 71
1, 141253, Note_off_c, 0, 77, 64
1, 141262, Control_c, 0, 64, 84
1, 141277, Control_c, 0, 64, 127
1, 141283, Note_off_c, 0, 85, 67
1, 141299, Note_on_c, 0, 71, 66
1, 141334, Note_off_c, 0, 71, 58
1, 141398, Note_on_c, 0, 72, 44
1, 141434, Note_off_c, 0, 72, 65
1, 141439, Note_on_c, 0, 75, 84
1, 141440, Control_c, 0, 64, 75
1, 141445, Note_on_c, 0, 73, 50
1, 141459, Note_on_c, 0, 55, 61
1, 141462, Control_c, 0, 64, 58
1, 141465, Note_on_c, 0, 63, 64
1, 141476, Note_off_c, 0, 73, 59
1, 141477, Control_c, 0, 64, 48
1, 141492, Control_c, 0, 64, 54
1, 141507, Control_c, 0, 64, 63
1, 141521, Control_c, 0, 64, 71
1, 141527, Note_on_c, 0, 72, 63
1, 141536, Control_c, 0, 64, 84
1, 141543, Note_off_c, 0, 75, 60
1, 141545, Note_off_c, 0, 63, 63
1, 141551, Control_c, 0, 64, 110
1, 141558, Note_off_c, 0, 72, 64
1, 141564, Note_off_c, 0, 55, 63
1, 141566, Control_c, 0, 64, 127
1, 141568, Note_on_c, 0, 71, 76
1, 141592, Note_off_c, 0, 71, 70
1, 141660, Note_on_c, 0, 70, 77
1, 141726, Note_off_c, 0, 70, 61
1, 141751, Note_on_c, 0, 62, 70
1, 141790, Note_off_c, 0, 62, 62
1, 141825, Note_on_c, 0, 70, 90
1, 141826, Note_on_c, 0, 44, 62
1, 141826, Note_on_c, 0, 53, 69
1, 141870, Note_off_c, 0, 53, 58
1, 141891, Note_off_c, 0, 44, 62
1, 141901, Note_off_c, 0, 70, 60
1, 142010, Note_on_c, 0, 59, 24
1, 142070, Control_c, 0, 64, 108
1, 142076, Note_on_c, 0, 51, 64
1, 142080, Note_on_c, 0, 43, 60
1, 142085, Control_c, 0, 64, 68
1, 142100, Control_c, 0, 64, 40
1, 142115, Note_on_c, 0, 63, 80
1, 142115, Control_c, 0, 64, 19
1, 142118, Note_on_c, 0, 58, 72
1, 142130, Control_c, 0, 64, 26
1, 142144, Control_c, 0, 64, 53
1, 142146, Note_off_c, 0, 59, 57
1, 142147, Note_off_c, 0, 58, 67
1, 142147, Note_off_c, 0, 43, 64
1, 142150, Note_on_c, 0, 61, 15
1, 142159, Control_c, 0, 64, 66
1, 142166, Note_off_c, 0, 63, 65
1, 142170, Note_off_c, 0, 51, 63
1, 142174, Control_c, 0, 64, 79
1, 142189, Control_c, 0, 64, 127
1, 142195, Note_off_c, 0, 61, 37
1, 142366, Note_on_c, 0, 58, 43
1, 142398, Note_on_c, 0, 61, 64
1, 142413, Note_on_c, 0, 92, 92
1, 142452, Note_on_c, 0, 90, 39
1, 142476, Note_off_c, 0, 61, 61
1, 142479, Note_off_c, 0, 90, 36
1, 142505, Note_on_c, 0, 51, 58
1, 142519, Note_off_c, 0, 58, 36
1, 142617, Note_off_c, 0, 51, 62
1, 142674, Note_on_c, 0, 46, 45
1, 142699, Control_c, 0, 64, 122
1, 142714, Control_c, 0, 64, 76
1, 142726, Note_on_c, 0, 89, 80
1, 142729, Control_c, 0, 64, 67
1, 142744, Control_c, 0, 64, 69
1, 142749, Note_on_c, 0, 85, 65
1, 142760, Control_c, 0, 64, 75
1, 142774, Control_c, 0, 64, 91
1, 142785, Note_off_c, 0, 85, 63
1, 142785, Note_off_c, 0, 92, 66
1, 142785, Note_off_c, 0, 46, 60
1, 142789, Control_c, 0, 64, 127
1, 142797, Note_off_c, 0, 89, 65
1, 142838, Note_on_c, 0, 52, 36
1, 142899, Note_off_c, 0, 52, 57
1, 142924, Note_on_c, 0, 58, 40
1, 142940, Note_on_c, 0, 61, 61
1, 142944, Note_on_c, 0, 73, 79
1, 142975, Note_off_c, 0, 73, 69
1, 142989, Note_off_c, 0, 58, 0
1, 142994, Note_off_c, 0, 61, 55
1, 143027, Poly_aftertouch_c, 0, 58, 127
1, 143034, Note_on_c, 0, 52, 49
1, 143081, Poly_aftertouch_c, 0, 58, 0
1, 143128, Note_off_c, 0, 52, 62
1, 143135, Note_on_c, 0, 46, 65
1, 143170, Note_on_c, 0, 77, 83
1, 143171, Note_on_c, 0, 73, 63
1, 143197, Control_c, 0, 64, 74
1, 143212, Control_c, 0, 64, 55
1, 143226, Control_c, 0, 64, 38
1, 143241, Control_c, 0, 64, 41
1, 143256, Control_c, 0, 64, 56
1, 143263, Note_on_c, 0, 53, 57
1, 143271, Control_c, 0, 64, 65
1, 143276, Note_off_c, 0, 46, 62
1, 143285, Note_off_c, 0, 73, 60
1, 143286, Control_c, 0, 64, 73
1, 143301, Control_c, 0, 64, 91
1, 143315, Control_c, 0, 64, 127
1, 143326, Note_on_c, 0, 58, 60
1, 143353, Note_off_c, 0, 53, 62
1, 143371, Note_off_c, 0, 58, 60
1, 143381, Note_on_c, 0, 61, 68
1, 143390, Note_on_c, 0, 70, 78
1, 143392, Note_on_c, 0, 73, 83
1, 143420, Note_off_c, 0, 61, 62
1, 143424, Note_off_c, 0, 77, 64
1, 143441, Note_on_c, 0, 53, 50
1, 143466, Note_off_c, 0, 70, 63
1, 143515, Note_off_c, 0, 73, 65
1, 143528, Poly_aftertouch_c, 0, 58, 127
1, 143537, Control_c, 0, 64, 90
1, 143553, Control_c, 0, 64, 66
1, 143555, Note_off_c, 0, 53, 58
1, 143560, Note_on_c, 0, 48, 73
1, 143568, Control_c, 0, 64, 57
1, 143577, Poly_aftertouch_c, 0, 58, 0
1, 143583, Note_on_c, 0, 61, 82
1, 143597, Control_c, 0, 64, 59
1, 143602, Note_off_c, 0, 61, 70
1, 143606, Poly_aftertouch_c, 0, 69, 0
1, 143612, Control_c, 0, 64, 64
1, 143627, Control_c, 0, 64, 75
1, 143642, Control_c, 0, 64, 109
1, 143644, Note_off_c, 0, 48, 56
1, 143656, Control_c, 0, 64, 127
1, 143671, Note_on_c, 0, 54, 64
1, 143715, Note_on_c, 0, 58, 59
1, 143765, Note_off_c, 0, 54, 62
1, 143786, Note_off_c, 0, 58, 63
1, 143803, Note_on_c, 0, 65, 63
1, 143834, Note_on_c, 0, 92, 90
1, 143850, Note_off_c, 0, 65, 56
1, 143888, Note_on_c, 0, 54, 55
1, 143930, Note_on_c, 0, 58, 53
1, 143972, Note_off_c, 0, 54, 63
1, 144031, Note_on_c, 0, 49, 67
1, 144049, Control_c, 0, 64, 73
1, 144055, Note_on_c, 0, 89, 88
1, 144058, Note_off_c, 0, 58, 56
1, 144064, Control_c, 0, 64, 60
1, 144064, Note_on_c, 0, 85, 77
1, 144076, Note_on_c, 0, 91, 61
1, 144079, Control_c, 0, 64, 60
1, 144089, Note_off_c, 0, 85, 67
1, 144094, Note_off_c, 0, 91, 64
1, 144094, Control_c, 0, 64, 65
1, 144095, Note_off_c, 0, 92, 67
1, 144098, Note_off_c, 0, 89, 67
1, 144109, Control_c, 0, 64, 74
1, 144115, Note_off_c, 0, 49, 64
1, 144124, Control_c, 0, 64, 102
1, 144126, Note_on_c, 0, 55, 63
1, 144138, Control_c, 0, 64, 127
1, 144182, Note_on_c, 0, 58, 60
1, 144206, Note_off_c, 0, 55, 58
1, 144229, Note_off_c, 0, 58, 61
1, 144232, Note_on_c, 0, 73, 88
1, 144242, Note_on_c, 0, 66, 71
1, 144258, Note_off_c, 0, 73, 60
1, 144269, Note_off_c, 0, 66, 67
1, 144315, Note_on_c, 0, 58, 59
1, 144348, Note_off_c, 0, 58, 63
1, 144361, Note_on_c, 0, 55, 66
1, 144439, Note_on_c, 0, 77, 88
1, 144455, Note_on_c, 0, 51, 79
1, 144464, Note_off_c, 0, 55, 61
1, 144473, Control_c, 0, 64, 88
1, 144487, Control_c, 0, 64, 58
1, 144502, Control_c, 0, 64, 0
1, 144532, Control_c, 0, 64, 33
1, 144547, Control_c, 0, 64, 62
1, 144561, Control_c, 0, 64, 74
1, 144576, Control_c, 0, 64, 127
1, 144589, Note_on_c, 0, 76, 42
1, 144603, Note_off_c, 0, 51, 63
1, 144605, Note_on_c, 0, 58, 67
1, 144672, Note_off_c, 0, 58, 60
1, 144705, Note_on_c, 0, 67, 71
1, 144724, Note_on_c, 0, 73, 80
1, 144732, Note_on_c, 0, 70, 76
1, 144740, Note_off_c, 0, 67, 57
1, 144756, Note_off_c, 0, 77, 64
1, 144773, Note_off_c, 0, 76, 43
1, 144781, Note_on_c, 0, 61, 62
1, 144813, Note_off_c, 0, 70, 65
1, 144819, Note_off_c, 0, 61, 61
1, 144842, Note_on_c, 0, 58, 65
1, 144917, Control_c, 0, 64, 80
1, 144932, Control_c, 0, 64, 52
1, 144932, Note_on_c, 0, 53, 79
1, 144934, Note_off_c, 0, 58, 63
1, 144936, Note_on_c, 0, 61, 82
1, 144943, Poly_aftertouch_c, 0, 69, 127
1, 144947, Control_c, 0, 64, 27
1, 144961, Note_off_c, 0, 61, 68
1, 144961, Control_c, 0, 64, 29
1, 144975, Poly_aftertouch_c, 0, 69, 0
1, 144976, Control_c, 0, 64, 41
1, 144977, Note_off_c, 0, 73, 64
1, 144991, Control_c, 0, 64, 60
1, 145003, Note_off_c, 0, 53, 64
1, 145006, Control_c, 0, 64, 70
1, 145021, Control_c, 0, 64, 92
1, 145035, Control_c, 0, 64, 127
1, 145072, Note_on_c, 0, 61, 58
1, 145113, Note_off_c, 0, 61, 63
1, 145132, Note_on_c, 0, 63, 57
1, 145173, Note_off_c, 0, 63, 63
1, 145225, Note_on_c, 0, 68, 58
1, 145257, Note_on_c, 0, 89, 63
1, 145257, Note_on_c, 0, 85, 65
1, 145259, Note_on_c, 0, 88, 69
1, 145280, Note_off_c, 0, 68, 54
1, 145307, Note_off_c, 0, 85, 52
1, 145329, Note_on_c, 0, 63, 44
1, 145352, Note_off_c, 0, 88, 64
1, 145368, Note_on_c, 0, 84, 81
1, 145399, Control_c, 0, 64, 91
1, 145404, Note_on_c, 0, 61, 57
1, 145414, Control_c, 0, 64, 67
1, 145429, Control_c, 0, 64, 57
1, 145444, Control_c, 0, 64, 58
1, 145448, Note_off_c, 0, 84, 62
1, 145449, Note_off_c, 0, 61, 62
1, 145450, Note_off_c, 0, 63, 54
1, 145458, Control_c, 0, 64, 62
1, 145469, Note_on_c, 0, 54, 69
1, 145473, Control_c, 0, 64, 67
1, 145483, Note_on_c, 0, 83, 73
1, 145486, Note_on_c, 0, 85, 80
1, 145488, Control_c, 0, 64, 75
1, 145502, Control_c, 0, 64, 94
1, 145517, Control_c, 0, 64, 127
1, 145541, Note_off_c, 0, 83, 63
1, 145552, Note_on_c, 0, 61, 55
1, 145552, Note_off_c, 0, 54, 63
1, 145579, Note_off_c, 0, 89, 39
1, 145582, Note_on_c, 0, 84, 83
1, 145593, Note_off_c, 0, 85, 62
1, 145596, Note_off_c, 0, 61, 58
1, 145598, Note_on_c, 0, 63, 54
1, 145615, Note_off_c, 0, 84, 60
1, 145631, Note_off_c, 0, 63, 63
1, 145656, Note_on_c, 0, 69, 71
1, 145689, Note_on_c, 0, 84, 83
1, 145696, Note_on_c, 0, 81, 75
1, 145712, Note_off_c, 0, 69, 50
1, 145736, Note_on_c, 0, 63, 48
1, 145757, Note_off_c, 0, 84, 58
1, 145758, Note_off_c, 0, 81, 63
1, 145778, Note_on_c, 0, 80, 84
1, 145779, Note_on_c, 0, 61, 63
1, 145791, Note_off_c, 0, 63, 48
1, 145828, Note_off_c, 0, 80, 63
1, 145872, Control_c, 0, 64, 74
1, 145875, Note_off_c, 0, 61, 60
1, 145886, Note_on_c, 0, 56, 74
1, 145887, Control_c, 0, 64, 58
1, 145894, Note_on_c, 0, 82, 84
1, 145901, Control_c, 0, 64, 51
1, 145916, Control_c, 0, 64, 55
1, 145919, Note_on_c, 0, 78, 59
1, 145931, Control_c, 0, 64, 62
1, 145954, Control_c, 0, 64, 70
1, 145969, Control_c, 0, 64, 87
1, 145984, Control_c, 0, 64, 127
1, 145991, Note_off_c, 0, 56, 63
1, 145992, Note_on_c, 0, 63, 60
1, 146005, Note_on_c, 0, 77, 74
1, 146039, Note_off_c, 0, 78, 50
1, 146061, Note_off_c, 0, 63, 61
1, 146065, Note_off_c, 0, 82, 63
1, 146070, Note_on_c, 0, 66, 30
1, 146081, Note_off_c, 0, 77, 63
1, 146095, Note_on_c, 0, 72, 73
1, 146103, Note_off_c, 0, 66, 51
1, 146106, Note_on_c, 0, 78, 77
1, 146111, Note_on_c, 0, 76, 73
1, 146168, Note_off_c, 0, 72, 61
1, 146191, Note_on_c, 0, 66, 65
1, 146201, Note_on_c, 0, 75, 86
1, 146204, Note_on_c, 0, 63, 54
1, 146215, Note_off_c, 0, 76, 66
1, 146221, Note_off_c, 0, 78, 63
1, 146246, Note_off_c, 0, 75, 64
1, 146265, Control_c, 0, 64, 100
1, 146277, Note_off_c, 0, 63, 62
1, 146280, Control_c, 0, 64, 69
1, 146291, Note_off_c, 0, 66, 61
1, 146294, Note_on_c, 0, 57, 87
1, 146295, Control_c, 0, 64, 53
1, 146310, Control_c, 0, 64, 49
1, 146324, Control_c, 0, 64, 53
1, 146339, Control_c, 0, 64, 63
1, 146354, Control_c, 0, 64, 71
1, 146358, Note_off_c, 0, 57, 64
1, 146369, Control_c, 0, 64, 84
1, 146384, Control_c, 0, 64, 120
1, 146398, Control_c, 0, 64, 127
1, 146427, Note_on_c, 0, 65, 65
1, 146474, Note_on_c, 0, 92, 91
1, 146483, Note_on_c, 0, 89, 79
1, 146501, Note_on_c, 0, 73, 76
1, 146520, Note_off_c, 0, 65, 55
1, 146556, Note_on_c, 0, 66, 64
1, 146564, Note_off_c, 0, 73, 63
1, 146582, Note_on_c, 0, 88, 76
1, 146595, Note_off_c, 0, 89, 59
1, 146619, Note_on_c, 0, 86, 36
1, 146620, Note_off_c, 0, 86, 127
1, 146628, Note_off_c, 0, 92, 65
1, 146636, Control_c, 0, 64, 74
1, 146643, Note_off_c, 0, 88, 65
1, 146650, Control_c, 0, 64, 58
1, 146659, Note_on_c, 0, 58, 83
1, 146665, Control_c, 0, 64, 52
1, 146667, Note_off_c, 0, 66, 62
1, 146675, Note_on_c, 0, 89, 85
1, 146680, Control_c, 0, 64, 56
1, 146684, Note_on_c, 0, 87, 81
1, 146702, Control_c, 0, 64, 63
1, 146717, Control_c, 0, 64, 73
1, 146732, Control_c, 0, 64, 92
1, 146747, Control_c, 0, 64, 127
1, 146750, Note_on_c, 0, 65, 65
1, 146754, Note_off_c, 0, 58, 62
1, 146775, Note_off_c, 0, 89, 64
1, 146787, Note_off_c, 0, 87, 64
1, 146792, Note_on_c, 0, 86, 86
1, 146808, Note_on_c, 0, 67, 49
1, 146830, Note_off_c, 0, 65, 62
1, 146833, Note_off_c, 0, 86, 64
1, 146848, Note_off_c, 0, 67, 61
1, 146851, Note_on_c, 0, 73, 83
1, 146884, Note_on_c, 0, 85, 73
1, 146890, Note_on_c, 0, 84, 83
1, 146905, Note_off_c, 0, 73, 65
1, 146935, Note_on_c, 0, 65, 55
1, 146935, Note_on_c, 0, 67, 67
1, 146956, Note_off_c, 0, 84, 65
1, 146965, Note_off_c, 0, 85, 64
1, 146983, Note_on_c, 0, 83, 81
1, 147017, Note_off_c, 0, 65, 63
1, 147023, Note_off_c, 0, 83, 60
1, 147024, Note_off_c, 0, 67, 62
1, 147041, Note_on_c, 0, 60, 77
1, 147044, Control_c, 0, 64, 89
1, 147056, Note_on_c, 0, 84, 96
1, 147059, Control_c, 0, 64, 65
1, 147065, Note_on_c, 0, 62, 54
1, 147072, Note_on_c, 0, 83, 29
1, 147073, Control_c, 0, 64, 52
1, 147082, Note_on_c, 0, 82, 75
1, 147088, Control_c, 0, 64, 55
1, 147099, Note_off_c, 0, 83, 45
1, 147102, Control_c, 0, 64, 62
1, 147117, Control_c, 0, 64, 69
1, 147132, Control_c, 0, 64, 84
1, 147135, Note_off_c, 0, 84, 64
1, 147146, Control_c, 0, 64, 127
1, 147148, Note_off_c, 0, 60, 64
1, 147162, Note_on_c, 0, 81, 83
1, 147171, Note_off_c, 0, 62, 22
1, 147175, Note_off_c, 0, 82, 63
1, 147177, Note_on_c, 0, 69, 43
1, 147203, Note_on_c, 0, 74, 74
1, 147204, Note_off_c, 0, 69, 55
1, 147215, Note_off_c, 0, 81, 66
1, 147261, Note_on_c, 0, 82, 85
1, 147263, Note_on_c, 0, 80, 90
1, 147292, Note_off_c, 0, 74, 60
1, 147303, Note_on_c, 0, 68, 53
1, 147322, Note_off_c, 0, 82, 62
1, 147332, Note_on_c, 0, 66, 77
1, 147337, Note_off_c, 0, 80, 65
1, 147355, Note_on_c, 0, 79, 84
1, 147392, Note_off_c, 0, 68, 60
1, 147399, Note_off_c, 0, 79, 66
1, 147399, Control_c, 0, 64, 102
1, 147400, Note_off_c, 0, 66, 62
1, 147413, Control_c, 0, 64, 67
1, 147428, Control_c, 0, 64, 47
1, 147433, Note_on_c, 0, 61, 97
1, 147451, Control_c, 0, 64, 50
1, 147465, Control_c, 0, 64, 61
1, 147480, Control_c, 0, 64, 70
1, 147495, Control_c, 0, 64, 95
1, 147510, Control_c, 0, 64, 127
1, 147540, Note_on_c, 0, 68, 65
1, 147540, Note_off_c, 0, 61, 60
1, 147547, Note_on_c, 0, 97, 42
1, 147588, Note_off_c, 0, 97, 57
1, 147605, Note_on_c, 0, 73, 66
1, 147626, Note_off_c, 0, 68, 60
1, 147659, Note_off_c, 0, 73, 56
1, 147662, Note_on_c, 0, 76, 78
1, 147668, Note_on_c, 0, 97, 94
1, 147677, Note_on_c, 0, 92, 85
1, 147734, Note_off_c, 0, 76, 61
1, 147740, Note_on_c, 0, 68, 69
1, 147751, Note_off_c, 0, 92, 65
1, 147768, Note_on_c, 0, 91, 87
1, 147775, Note_on_c, 0, 73, 58
1, 147781, Note_off_c, 0, 97, 63
1, 147814, Note_off_c, 0, 68, 61
1, 147821, Note_off_c, 0, 91, 65
1, 147829, Note_on_c, 0, 62, 78
1, 147859, Note_on_c, 0, 97, 97
1, 147863, Note_on_c, 0, 90, 91
1, 147889, Note_off_c, 0, 73, 0
1, 147898, Note_on_c, 0, 68, 60
1, 147899, Note_off_c, 0, 62, 62
1, 147905, Note_on_c, 0, 73, 37
1, 147924, Note_off_c, 0, 90, 63
1, 147955, Note_on_c, 0, 89, 90
1, 147959, Note_off_c, 0, 97, 64
1, 147973, Note_off_c, 0, 73, 65
1, 147987, Note_off_c, 0, 68, 61
1, 147995, Note_off_c, 0, 89, 65
1, 147996, Note_on_c, 0, 77, 80
1, 148035, Note_on_c, 0, 97, 97
1, 148057, Note_off_c, 0, 77, 58
1, 148072, Note_on_c, 0, 89, 66
1, 148087, Note_on_c, 0, 72, 66
1, 148100, Note_on_c, 0, 69, 46
1, 148130, Note_off_c, 0, 97, 64
1, 148136, Note_on_c, 0, 87, 80
1, 148138, Note_off_c, 0, 89, 61
1, 148157, Note_off_c, 0, 87, 71
1, 148207, Note_off_c, 0, 69, 60
1, 148215, Control_c, 0, 64, 75
1, 148225, Note_on_c, 0, 63, 84
1, 148230, Control_c, 0, 64, 61
1, 148241, Note_on_c, 0, 90, 97
1, 148243, Note_off_c, 0, 72, 58
1, 148244, Control_c, 0, 64, 61
1, 148259, Control_c, 0, 64, 66
1, 148274, Control_c, 0, 64, 80
1, 148276, Note_on_c, 0, 78, 85
1, 148289, Control_c, 0, 64, 127
1, 148329, Note_on_c, 0, 69, 67
1, 148332, Note_off_c, 0, 63, 61
1, 148335, Note_off_c, 0, 78, 65
1, 148349, Note_off_c, 0, 90, 62
1, 148376, Note_on_c, 0, 72, 71
1, 148451, Note_on_c, 0, 78, 84
1, 148462, Note_on_c, 0, 97, 101
1, 148512, Note_off_c, 0, 78, 65
1, 148548, Note_on_c, 0, 92, 78
1, 148580, Note_off_c, 0, 97, 63
1, 148610, Note_off_c, 0, 92, 66
1, 148616, Note_off_c, 0, 72, 61
1, 148617, Note_off_c, 0, 69, 61
1, 148632, Note_on_c, 0, 65, 87
1, 148652, Note_on_c, 0, 97, 101
1, 148666, Note_on_c, 0, 93, 80
1, 148666, Note_on_c, 0, 94, 56
1, 148667, Note_on_c, 0, 90, 83
1, 148708, Note_off_c, 0, 94, 52
1, 148722, Note_off_c, 0, 65, 55
1, 148739, Note_off_c, 0, 90, 64
1, 148753, Note_on_c, 0, 73, 80
1, 148754, Note_off_c, 0, 93, 63
1, 148759, Note_on_c, 0, 89, 86
1, 148777, Note_off_c, 0, 97, 63
1, 148783, Note_on_c, 0, 75, 71
1, 148792, Note_off_c, 0, 89, 63
1, 148793, Note_on_c, 0, 91, 23
1, 148794, Note_off_c, 0, 91, 127
1, 148813, Note_off_c, 0, 73, 64
1, 148825, Note_off_c, 0, 75, 61
1, 148831, Note_on_c, 0, 79, 89
1, 148845, Note_on_c, 0, 95, 103
1, 148850, Note_on_c, 0, 93, 88
1, 148857, Note_on_c, 0, 91, 87
1, 148896, Note_off_c, 0, 79, 61
1, 148914, Note_on_c, 0, 75, 77
1, 148923, Note_on_c, 0, 73, 73
1, 148932, Note_off_c, 0, 93, 62
1, 148932, Note_off_c, 0, 95, 64
1, 148933, Note_off_c, 0, 91, 57
1, 148950, Note_on_c, 0, 86, 81
1, 148974, Note_off_c, 0, 86, 69
1, 149004, Note_off_c, 0, 73, 64
1, 149009, Control_c, 0, 64, 80
1, 149024, Control_c, 0, 64, 47
1, 149032, Note_off_c, 0, 75, 62
1, 149033, Note_on_c, 0, 66, 88
1, 149038, Note_on_c, 0, 89, 101
1, 149039, Control_c, 0, 64, 0
1, 149043, Note_on_c, 0, 85, 101
1, 149053, Control_c, 0, 64, 27
1, 149068, Control_c, 0, 64, 62
1, 149083, Control_c, 0, 64, 83
1, 149098, Control_c, 0, 64, 127
1, 149103, Note_on_c, 0, 88, 16
1, 149104, Note_off_c, 0, 88, 127
1, 149115, Note_off_c, 0, 89, 64
1, 149136, Note_on_c, 0, 73, 68
1, 149140, Note_off_c, 0, 66, 60
1, 149156, Note_off_c, 0, 85, 59
1, 149188, Note_on_c, 0, 75, 73
1, 149231, Note_off_c, 0, 73, 64
1, 149264, Note_on_c, 0, 80, 94
1, 149271, Note_on_c, 0, 97, 105
1, 149284, Note_off_c, 0, 75, 62
1, 149298, Note_on_c, 0, 98, 67
1, 149303, Note_on_c, 0, 94, 49
1, 149304, Note_off_c, 0, 94, 127
1, 149322, Note_on_c, 0, 81, 8
1, 149334, Note_off_c, 0, 80, 62
1, 149340, Note_off_c, 0, 98, 0
1, 149352, Note_on_c, 0, 75, 64
1, 149358, Note_off_c, 0, 81, 43
1, 149380, Note_on_c, 0, 73, 59
1, 149404, Note_on_c, 0, 85, 97
1, 149415, Poly_aftertouch_c, 0, 98, 0
1, 149439, Note_off_c, 0, 85, 66
1, 149458, Note_off_c, 0, 73, 64
1, 149476, Note_on_c, 0, 66, 88
1, 149524, Note_on_c, 0, 83, 90
1, 149530, Note_on_c, 0, 84, 81
1, 149532, Note_off_c, 0, 75, 57
1, 149546, Note_on_c, 0, 85, 45
1, 149547, Note_off_c, 0, 85, 127
1, 149550, Note_on_c, 0, 94, 40
1, 149551, Note_off_c, 0, 94, 127
1, 149551, Note_off_c, 0, 84, 71
1, 149552, Note_off_c, 0, 83, 60
1, 149554, Note_off_c, 0, 97, 63
1, 149624, Note_on_c, 0, 78, 98
1, 149627, Note_on_c, 0, 96, 100
1, 149654, Note_on_c, 0, 68, 31
1, 149664, Note_off_c, 0, 66, 61
1, 149671, Note_off_c, 0, 78, 64
1, 149683, Note_off_c, 0, 96, 65
1, 149686, Note_off_c, 0, 68, 49
1, 149761, Note_on_c, 0, 74, 87
1, 149764, Note_on_c, 0, 76, 88
1, 149769, Note_on_c, 0, 81, 96
1, 149773, Note_on_c, 0, 96, 96
1, 149779, Note_on_c, 0, 91, 86
1, 149779, Note_on_c, 0, 92, 86
1, 149785, Note_on_c, 0, 93, 73
1, 149797, Note_on_c, 0, 95, 50
1, 149798, Note_off_c, 0, 95, 127
1, 149801, Note_off_c, 0, 81, 66
1, 149807, Note_off_c, 0, 93, 66
1, 149814, Note_off_c, 0, 96, 65
1, 149817, Note_off_c, 0, 92, 63
1, 149820, Note_on_c, 0, 94, 32
1, 149821, Note_off_c, 0, 74, 66
1, 149823, Note_off_c, 0, 91, 63
1, 149825, Note_on_c, 0, 86, 19
1, 149827, Note_off_c, 0, 76, 63
1, 149856, Note_off_c, 0, 94, 31
1, 149866, Note_off_c, 0, 86, 35
1, 149921, Note_on_c, 0, 90, 103
1, 149925, Note_on_c, 0, 82, 105
1, 149927, Note_on_c, 0, 94, 89
1, 149930, Note_on_c, 0, 80, 79
1, 149938, Note_off_c, 0, 82, 75
1, 149946, Note_off_c, 0, 94, 70
1, 149948, Note_on_c, 0, 78, 57
1, 149948, Note_off_c, 0, 90, 56
1, 149960, Note_on_c, 0, 91, 38
1, 149961, Note_off_c, 0, 91, 127
1, 149969, Note_off_c, 0, 78, 59
1, 149969, Note_off_c, 0, 80, 62
1, 150099, Control_c, 0, 64, 76
1, 150109, Note_on_c, 0, 69, 81
1, 150109, Note_on_c, 0, 78, 64
1, 150112, Note_on_c, 0, 81, 96
1, 150114, Control_c, 0, 64, 14
1, 150119, Note_on_c, 0, 73, 86
1, 150129, Control_c, 0, 64, 0
1, 150146, Note_on_c, 0, 96, 104
1, 150150, Note_on_c, 0, 84, 105
1, 150157, Note_on_c, 0, 90, 89
1, 150168, Note_off_c, 0, 69, 64
1, 150171, Note_off_c, 0, 81, 67
1, 150173, Control_c, 0, 64, 56
1, 150188, Control_c, 0, 64, 71
1, 150203, Control_c, 0, 64, 106
1, 150213, Note_off_c, 0, 73, 64
1, 150214, Note_off_c, 0, 78, 64
1, 150217, Note_off_c, 0, 90, 58
1, 150218, Control_c, 0, 64, 127
1, 150316, Note_on_c, 0, 80, 91
1, 150324, Note_on_c, 0, 92, 95
1, 150342, Note_on_c, 0, 68, 48
1, 150343, Note_on_c, 0, 78, 47
1, 150359, Note_off_c, 0, 80, 64
1, 150362, Note_on_c, 0, 66, 16
1, 150368, Note_off_c, 0, 68, 56
1, 150369, Note_off_c, 0, 78, 38
1, 150374, Note_off_c, 0, 84, 63
1, 150376, Note_off_c, 0, 96, 63
1, 150405, Note_off_c, 0, 66, 42
1, 150451, Note_on_c, 0, 90, 86
1, 150467, Note_on_c, 0, 75, 76
1, 150468, Note_on_c, 0, 77, 75
1, 150473, Note_on_c, 0, 76, 72
1, 150476, Note_on_c, 0, 66, 67
1, 150485, Note_off_c, 0, 77, 67
1, 150489, Note_off_c, 0, 76, 68
1, 150492, Note_off_c, 0, 75, 68
1, 150494, Note_off_c, 0, 66, 66
1, 150499, Note_off_c, 0, 92, 56
1, 150559, Note_on_c, 0, 75, 85
1, 150566, Note_on_c, 0, 73, 84
1, 150569, Note_on_c, 0, 87, 90
1, 150583, Note_off_c, 0, 90, 63
1, 150586, Note_off_c, 0, 73, 71
1, 150591, Note_off_c, 0, 75, 51
1, 150608, Note_on_c, 0, 70, 37
1, 150638, Note_off_c, 0, 87, 64
1, 150661, Note_on_c, 0, 74, 89
1, 150670, Note_on_c, 0, 68, 81
1, 150670, Control_c, 0, 64, 69
1, 150684, Note_on_c, 0, 62, 56
1, 150685, Control_c, 0, 64, 48
1, 150699, Control_c, 0, 64, 47
1, 150702, Note_off_c, 0, 74, 67
1, 150713, Note_on_c, 0, 89, 75
1, 150714, Control_c, 0, 64, 60
1, 150715, Note_off_c, 0, 62, 65
1, 150720, Note_on_c, 0, 77, 84
1, 150729, Control_c, 0, 64, 71
1, 150737, Note_off_c, 0, 70, 64
1, 150738, Note_off_c, 0, 68, 61
1, 150744, Control_c, 0, 64, 119
1, 150750, Note_on_c, 0, 88, 54
1, 150759, Control_c, 0, 64, 127
1, 150784, Note_off_c, 0, 88, 48
1, 150794, Note_off_c, 0, 89, 55
1, 150795, Note_on_c, 0, 73, 94
1, 150798, Note_off_c, 0, 77, 58
1, 150807, Note_on_c, 0, 61, 81
1, 150830, Note_on_c, 0, 85, 82
1, 150830, Note_off_c, 0, 61, 69
1, 150838, Note_off_c, 0, 73, 65
1, 150906, Note_on_c, 0, 71, 102
1, 150927, Note_on_c, 0, 57, 66
1, 150927, Note_on_c, 0, 83, 70
1, 150941, Note_off_c, 0, 71, 67
1, 150951, Note_off_c, 0, 57, 64
1, 150961, Note_off_c, 0, 85, 64
1, 150988, Note_on_c, 0, 80, 87
1, 150993, Note_off_c, 0, 83, 65
1, 151007, Note_on_c, 0, 68, 93
1, 151014, Note_on_c, 0, 64, 78
1, 151016, Note_on_c, 0, 56, 81
1, 151044, Note_off_c, 0, 56, 68
1, 151045, Note_off_c, 0, 80, 63
1, 151050, Note_off_c, 0, 68, 63
1, 151065, Note_off_c, 0, 64, 41
1, 151111, Note_on_c, 0, 61, 21
1, 151114, Note_on_c, 0, 67, 94
1, 151117, Note_on_c, 0, 55, 83
1, 151128, Note_on_c, 0, 82, 69
1, 151131, Note_on_c, 0, 64, 58
1, 151135, Note_on_c, 0, 70, 89
1, 151149, Note_off_c, 0, 61, 63
1, 151152, Note_off_c, 0, 67, 69
1, 151160, Note_off_c, 0, 64, 63
1, 151161, Note_off_c, 0, 55, 65
1, 151175, Note_off_c, 0, 82, 57
1, 151178, Note_on_c, 0, 80, 20
1, 151223, Note_off_c, 0, 80, 32
1, 151231, Note_off_c, 0, 70, 61
1, 151240, Note_on_c, 0, 66, 100
1, 151247, Note_on_c, 0, 78, 85
1, 151254, Note_on_c, 0, 54, 80
1, 151276, Note_off_c, 0, 66, 65
1, 151278, Note_off_c, 0, 54, 70
1, 151346, Note_on_c, 0, 64, 99
1, 151354, Note_on_c, 0, 52, 90
1, 151356, Note_on_c, 0, 76, 75
1, 151382, Note_off_c, 0, 64, 71
1, 151384, Note_off_c, 0, 52, 65
1, 151406, Note_off_c, 0, 78, 57
1, 151434, Note_on_c, 0, 73, 90
1, 151446, Note_off_c, 0, 76, 62
1, 151462, Note_on_c, 0, 61, 99
1, 151490, Note_on_c, 0, 49, 54
1, 151496, Note_off_c, 0, 73, 63
1, 151499, Note_off_c, 0, 61, 65
1, 151515, Note_off_c, 0, 49, 37
1, 151565, Note_on_c, 0, 60, 101
1, 151582, Note_on_c, 0, 63, 89
1, 151585, Note_on_c, 0, 48, 69
1, 151587, Note_on_c, 0, 75, 46
1, 151600, Note_on_c, 0, 59, 40
1, 151601, Note_off_c, 0, 59, 127
1, 151603, Note_off_c, 0, 60, 70
1, 151611, Note_off_c, 0, 48, 66
1, 151613, Note_off_c, 0, 75, 52
1, 151632, Poly_aftertouch_c, 0, 59, 0
1, 151654, Poly_aftertouch_c, 0, 54, 127
1, 151661, Note_off_c, 0, 63, 62
1, 151668, Note_on_c, 0, 59, 96
1, 151674, Note_on_c, 0, 47, 92
1, 151678, Poly_aftertouch_c, 0, 54, 0
1, 151686, Note_on_c, 0, 71, 82
1, 151701, Note_off_c, 0, 59, 68
1, 151702, Note_off_c, 0, 47, 66
1, 151716, Control_c, 0, 64, 93
1, 151731, Control_c, 0, 64, 83
1, 151745, Control_c, 0, 64, 88
1, 151760, Control_c, 0, 64, 105
1, 151772, Note_on_c, 0, 57, 105
1, 151775, Control_c, 0, 64, 127
1, 151778, Note_on_c, 0, 45, 90
1, 151794, Note_on_c, 0, 69, 81
1, 151809, Note_off_c, 0, 57, 68
1, 151812, Note_off_c, 0, 45, 63
1, 151832, Note_off_c, 0, 71, 59
1, 151870, Note_on_c, 0, 66, 91
1, 151874, Note_off_c, 0, 69, 64
1, 151884, Note_on_c, 0, 54, 101
1, 151904, Note_on_c, 0, 42, 67
1, 151921, Note_off_c, 0, 66, 63
1, 151926, Note_off_c, 0, 54, 66
1, 151939, Note_off_c, 0, 42, 56
1, 151975, Control_c, 0, 64, 97
1, 151986, Note_on_c, 0, 53, 101
1, 151990, Control_c, 0, 64, 79
1, 151996, Note_on_c, 0, 41, 82
1, 152005, Control_c, 0, 64, 67
1, 152006, Note_on_c, 0, 56, 87
1, 152009, Note_on_c, 0, 70, 44
1, 152019, Control_c, 0, 64, 60
1, 152021, Note_on_c, 0, 68, 63
1, 152022, Note_on_c, 0, 43, 52
1, 152026, Note_off_c, 0, 53, 67
1, 152030, Note_off_c, 0, 41, 67
1, 152034, Control_c, 0, 64, 63
1, 152038, Note_on_c, 0, 58, 38
1, 152038, Note_off_c, 0, 70, 52
1, 152049, Note_on_c, 0, 48, 7
1, 152049, Control_c, 0, 64, 68
1, 152053, Note_off_c, 0, 43, 57
1, 152056, Note_off_c, 0, 56, 67
1, 152056, Note_off_c, 0, 68, 63
1, 152063, Control_c, 0, 64, 81
1, 152073, Note_off_c, 0, 58, 34
1, 152078, Note_off_c, 0, 48, 29
1, 152078, Control_c, 0, 64, 127
1, 152089, Note_on_c, 0, 52, 99
1, 152090, Poly_aftertouch_c, 0, 50, 0
1, 152094, Note_on_c, 0, 40, 97
1, 152101, Note_on_c, 0, 64, 74
1, 152121, Note_off_c, 0, 52, 70
1, 152125, Note_off_c, 0, 40, 68
1, 152202, Note_on_c, 0, 62, 83
1, 152203, Note_on_c, 0, 48, 91
1, 152203, Note_on_c, 0, 50, 85
1, 152208, Note_on_c, 0, 36, 86
1, 152229, Note_off_c, 0, 50, 69
1, 152231, Note_off_c, 0, 48, 68
1, 152233, Note_off_c, 0, 36, 68
1, 152247, Note_off_c, 0, 64, 59
1, 152292, Note_on_c, 0, 59, 83
1, 152300, Note_off_c, 0, 62, 63
1, 152315, Note_on_c, 0, 47, 97
1, 152322, Note_on_c, 0, 35, 83
1, 152339, Note_on_c, 0, 45, 55
1, 152345, Note_off_c, 0, 59, 64
1, 152355, Note_off_c, 0, 47, 65
1, 152357, Note_off_c, 0, 35, 64
1, 152363, Note_off_c, 0, 45, 62
1, 152423, Note_on_c, 0, 45, 102
1, 152426, Note_on_c, 0, 35, 85
1, 152436, Control_c, 0, 64, 76
1, 152437, Note_on_c, 0, 42, 72
1, 152442, Note_on_c, 0, 39, 81
1, 152450, Control_c, 0, 64, 27
1, 152453, Note_on_c, 0, 60, 85
1, 152458, Note_on_c, 0, 48, 85
1, 152465, Control_c, 0, 64, 0
1, 152477, Note_off_c, 0, 45, 65
1, 152479, Note_off_c, 0, 42, 56
1, 152484, Note_off_c, 0, 35, 62
1, 152503, Note_off_c, 0, 39, 60
1, 152510, Control_c, 0, 64, 62
1, 152524, Control_c, 0, 64, 84
1, 152539, Control_c, 0, 64, 127
1, 152579, Note_off_c, 0, 48, 59
1, 152584, Note_on_c, 0, 44, 106
1, 152593, Note_on_c, 0, 32, 89
1, 152613, Control_c, 0, 64, 92
1, 152628, Note_on_c, 0, 56, 82
1, 152628, Control_c, 0, 64, 67
1, 152633, Note_off_c, 0, 44, 64
1, 152643, Control_c, 0, 64, 61
1, 152646, Note_off_c, 0, 32, 58
1, 152658, Control_c, 0, 64, 67
1, 152673, Control_c, 0, 64, 77
1, 152694, Control_c, 0, 64, 127
1, 152758, Note_on_c, 0, 42, 104
1, 152768, Note_on_c, 0, 30, 90
1, 152800, Note_off_c, 0, 42, 66
1, 152801, Note_off_c, 0, 30, 62
1, 152816, Note_on_c, 0, 32, 11
1, 152825, Note_on_c, 0, 54, 76
1, 152860, Note_off_c, 0, 32, 51
1, 152891, Note_off_c, 0, 60, 60
1, 152967, Note_on_c, 0, 39, 99
1, 152978, Note_on_c, 0, 27, 87
1, 152991, Note_on_c, 0, 51, 86
1, 152992, Note_off_c, 0, 56, 62
1, 153004, Note_off_c, 0, 27, 65
1, 153004, Note_off_c, 0, 39, 64
1, 153017, Note_off_c, 0, 54, 63
1, 153049, Note_off_c, 0, 51, 65
1, 153194, Poly_aftertouch_c, 0, 57, 127
1, 153303, Control_c, 0, 64, 74
1, 153304, Poly_aftertouch_c, 0, 59, 127
1, 153317, Control_c, 0, 64, 0
1, 153330, Note_on_c, 0, 61, 86
1, 153332, Note_on_c, 0, 25, 80
1, 153332, Note_on_c, 0, 37, 97
1, 153332, Note_on_c, 0, 49, 97
1, 153369, Poly_aftertouch_c, 0, 57, 0
1, 153391, Control_c, 0, 64, 65
1, 153406, Control_c, 0, 64, 109
1, 153412, Note_off_c, 0, 25, 63
1, 153414, Note_off_c, 0, 49, 67
1, 153421, Control_c, 0, 64, 127
1, 153424, Poly_aftertouch_c, 0, 55, 127
1, 153425, Note_off_c, 0, 61, 64
1, 153443, Note_off_c, 0, 37, 63
1, 153447, Poly_aftertouch_c, 0, 54, 127
1, 153457, Poly_aftertouch_c, 0, 59, 0
1, 153466, Poly_aftertouch_c, 0, 55, 0
1, 153477, Poly_aftertouch_c, 0, 54, 0
1, 153782, Note_on_c, 0, 73, 74
1, 153784, Note_on_c, 0, 65, 69
1, 153785, Note_on_c, 0, 68, 65
1, 153840, Note_on_c, 0, 80, 103
1, 153844, Note_on_c, 0, 92, 101
1, 153847, Note_on_c, 0, 85, 91
1, 153856, Note_off_c, 0, 65, 63
1, 153862, Note_off_c, 0, 85, 73
1, 153865, Note_off_c, 0, 73, 63
1, 153866, Note_off_c, 0, 68, 63
1, 153879, Note_off_c, 0, 92, 62
1, 153899, Note_off_c, 0, 80, 61
1, 154086, Note_on_c, 0, 84, 95
1, 154087, Note_on_c, 0, 72, 90
1, 154091, Note_on_c, 0, 77, 98
1, 154092, Note_on_c, 0, 64, 70
1, 154093, Note_on_c, 0, 68, 83
1, 154096, Note_on_c, 0, 80, 85
1, 154104, Note_on_c, 0, 65, 61
1, 154139, Note_on_c, 0, 79, 37
1, 154162, Note_off_c, 0, 72, 61
1, 154167, Note_off_c, 0, 79, 55
1, 154175, Note_off_c, 0, 65, 56
1, 154178, Note_off_c, 0, 77, 61
1, 154191, Note_off_c, 0, 80, 61
1, 154194, Note_off_c, 0, 68, 60
1, 154206, Note_off_c, 0, 84, 64
1, 154216, Note_off_c, 0, 64, 59
1, 154274, Note_on_c, 0, 72, 88
1, 154283, Note_on_c, 0, 84, 91
1, 154283, Note_on_c, 0, 77, 89
1, 154283, Note_on_c, 0, 80, 90
1, 154286, Note_on_c, 0, 68, 84
1, 154313, Note_off_c, 0, 72, 62
1, 154317, Note_off_c, 0, 77, 61
1, 154325, Note_off_c, 0, 68, 62
1, 154329, Note_off_c, 0, 84, 66
1, 154332, Note_off_c, 0, 80, 65
1, 154417, Note_on_c, 0, 71, 88
1, 154424, Note_on_c, 0, 92, 95
1, 154426, Note_on_c, 0, 56, 78
1, 154426, Note_on_c, 0, 80, 97
1, 154435, Note_on_c, 0, 65, 63
1, 154442, Note_on_c, 0, 84, 63
1, 154453, Note_off_c, 0, 71, 59
1, 154457, Note_off_c, 0, 84, 66
1, 154468, Note_off_c, 0, 65, 63
1, 154468, Note_off_c, 0, 80, 64
1, 154480, Note_off_c, 0, 56, 61
1, 154482, Note_off_c, 0, 92, 64
1, 154532, Poly_aftertouch_c, 0, 83, 0
1, 154542, Note_on_c, 0, 65, 81
1, 154545, Note_on_c, 0, 71, 90
1, 154548, Note_on_c, 0, 92, 86
1, 154548, Note_on_c, 0, 63, 69
1, 154550, Note_on_c, 0, 80, 102
1, 154583, Note_off_c, 0, 63, 62
1, 154585, Note_off_c, 0, 71, 61
1, 154587, Note_off_c, 0, 92, 65
1, 154587, Note_off_c, 0, 80, 68
1, 154598, Note_off_c, 0, 65, 61
1, 154673, Note_on_c, 0, 70, 89
1, 154675, Note_on_c, 0, 77, 89
1, 154679, Note_on_c, 0, 89, 89
1, 154682, Note_on_c, 0, 82, 81
1, 154683, Note_on_c, 0, 65, 70
1, 154699, Note_off_c, 0, 89, 67
1, 154703, Note_off_c, 0, 82, 71
1, 154709, Note_off_c, 0, 77, 62
1, 154710, Note_on_c, 0, 79, 37
1, 154711, Note_off_c, 0, 79, 127
1, 154719, Note_off_c, 0, 70, 61
1, 154735, Note_off_c, 0, 65, 62
1, 154788, Note_on_c, 0, 89, 82
1, 154792, Note_on_c, 0, 70, 93
1, 154792, Note_on_c, 0, 82, 81
1, 154795, Note_on_c, 0, 77, 89
1, 154796, Note_on_c, 0, 65, 67
1, 154810, Note_off_c, 0, 82, 73
1, 154812, Note_on_c, 0, 88, 58
1, 154813, Note_off_c, 0, 88, 127
1, 154817, Note_off_c, 0, 89, 61
1, 154830, Note_off_c, 0, 77, 64
1, 154843, Note_off_c, 0, 70, 60
1, 154850, Poly_aftertouch_c, 0, 62, 0
1, 154855, Note_off_c, 0, 65, 63
1, 154873, Poly_aftertouch_c, 0, 62, 0
1, 154916, Note_on_c, 0, 69, 93
1, 154919, Note_on_c, 0, 65, 65
1, 154920, Note_on_c, 0, 73, 97
1, 154921, Note_on_c, 0, 81, 76
1, 154924, Note_on_c, 0, 85, 80
1, 154926, Note_on_c, 0, 77, 85
1, 154942, Note_on_c, 0, 61, 67
1, 154964, Note_off_c, 0, 69, 64
1, 154973, Note_off_c, 0, 61, 63
1, 154986, Note_off_c, 0, 85, 63
1, 154993, Note_off_c, 0, 65, 64
1, 154999, Note_off_c, 0, 73, 60
1, 155010, Note_off_c, 0, 77, 60
1, 155034, Note_off_c, 0, 81, 64
1, 155056, Note_on_c, 0, 65, 76
1, 155056, Note_on_c, 0, 69, 85
1, 155061, Note_on_c, 0, 85, 92
1, 155062, Note_on_c, 0, 61, 73
1, 155069, Note_on_c, 0, 73, 94
1, 155070, Note_on_c, 0, 77, 85
1, 155073, Note_on_c, 0, 67, 68
1, 155090, Note_off_c, 0, 67, 63
1, 155093, Note_off_c, 0, 61, 64
1, 155094, Note_off_c, 0, 69, 64
1, 155128, Note_off_c, 0, 73, 61
1, 155158, Note_off_c, 0, 77, 58
1, 155168, Note_off_c, 0, 85, 62
1, 155199, Note_on_c, 0, 80, 91
1, 155205, Note_on_c, 0, 67, 35
1, 155206, Note_on_c, 0, 68, 77
1, 155210, Note_on_c, 0, 61, 76
1, 155212, Note_on_c, 0, 73, 95
1, 155221, Note_off_c, 0, 65, 62
1, 155228, Note_off_c, 0, 67, 58
1, 155231, Note_off_c, 0, 68, 68
1, 155234, Note_off_c, 0, 61, 67
1, 155243, Note_off_c, 0, 73, 67
1, 155243, Note_off_c, 0, 80, 59
1, 155423, Poly_aftertouch_c, 0, 70, 127
1, 155463, Poly_aftertouch_c, 0, 70, 0
1, 155471, Note_on_c, 0, 48, 86
1, 155475, Note_on_c, 0, 72, 94
1, 155477, Note_on_c, 0, 60, 94
1, 155478, Note_on_c, 0, 36, 76
1, 155489, Control_c, 0, 64, 82
1, 155504, Control_c, 0, 64, 0
1, 155505, Note_on_c, 0, 66, 45
1, 155552, Note_off_c, 0, 66, 0
1, 155565, Control_c, 0, 64, 54
1, 155572, Note_off_c, 0, 36, 64
1, 155579, Control_c, 0, 64, 84
1, 155584, Note_off_c, 0, 48, 64
1, 155588, Poly_aftertouch_c, 0, 66, 127
1, 155594, Control_c, 0, 64, 127
1, 155596, Note_off_c, 0, 60, 67
1, 155600, Poly_aftertouch_c, 0, 44, 0
1, 155635, Note_off_c, 0, 72, 68
1, 155661, Poly_aftertouch_c, 0, 66, 0
1, 155809, Note_on_c, 0, 73, 94
1, 155812, Note_on_c, 0, 85, 79
1, 155827, Note_on_c, 0, 78, 70
1, 155830, Note_on_c, 0, 68, 68
1, 155830, Note_on_c, 0, 66, 31
1, 155843, Note_on_c, 0, 61, 55
1, 155858, Note_off_c, 0, 68, 66
1, 155862, Note_off_c, 0, 66, 52
1, 155862, Note_off_c, 0, 73, 61
1, 155883, Note_off_c, 0, 61, 59
1, 155883, Note_off_c, 0, 85, 64
1, 155912, Note_off_c, 0, 78, 51
1, 155964, Note_on_c, 0, 79, 88
1, 155967, Note_on_c, 0, 73, 89
1, 155970, Note_on_c, 0, 67, 75
1, 155979, Note_on_c, 0, 64, 67
1, 155986, Note_on_c, 0, 59, 59
1, 156018, Note_off_c, 0, 73, 63
1, 156019, Note_off_c, 0, 59, 64
1, 156022, Note_off_c, 0, 67, 63
1, 156025, Note_off_c, 0, 64, 60
1, 156033, Note_off_c, 0, 79, 64
1, 156095, Note_on_c, 0, 73, 88
1, 156096, Note_on_c, 0, 79, 88
1, 156097, Note_on_c, 0, 67, 85
1, 156100, Note_on_c, 0, 59, 69
1, 156106, Note_on_c, 0, 64, 72
1, 156132, Note_off_c, 0, 59, 65
1, 156137, Note_off_c, 0, 67, 64
1, 156140, Note_off_c, 0, 73, 64
1, 156147, Note_off_c, 0, 64, 61
1, 156150, Note_off_c, 0, 79, 66
1, 156217, Note_on_c, 0, 73, 92
1, 156217, Note_on_c, 0, 85, 88
1, 156218, Note_on_c, 0, 66, 91
1, 156221, Note_on_c, 0, 78, 82
1, 156225, Note_on_c, 0, 58, 72
1, 156245, Note_on_c, 0, 63, 63
1, 156263, Note_off_c, 0, 66, 61
1, 156265, Note_off_c, 0, 73, 66
1, 156270, Note_off_c, 0, 78, 62
1, 156271, Note_off_c, 0, 85, 64
1, 156274, Note_off_c, 0, 58, 50
1, 156279, Note_off_c, 0, 63, 64
1, 156341, Note_on_c, 0, 63, 77
1, 156341, Note_on_c, 0, 85, 88
1, 156342, Note_on_c, 0, 73, 96
1, 156344, Note_on_c, 0, 66, 89
1, 156345, Note_on_c, 0, 78, 82
1, 156347, Note_on_c, 0, 58, 79
1, 156357, Control_c, 0, 64, 80
1, 156372, Control_c, 0, 64, 73
1, 156387, Control_c, 0, 64, 79
1, 156402, Control_c, 0, 64, 100
1, 156407, Note_off_c, 0, 78, 63
1, 156417, Note_off_c, 0, 66, 59
1, 156417, Control_c, 0, 64, 127
1, 156419, Note_off_c, 0, 73, 62
1, 156423, Note_off_c, 0, 58, 63
1, 156452, Note_off_c, 0, 63, 51
1, 156483, Note_on_c, 0, 73, 84
1, 156487, Note_on_c, 0, 77, 89
1, 156498, Note_on_c, 0, 65, 80
1, 156504, Note_on_c, 0, 57, 68
1, 156506, Note_on_c, 0, 62, 66
1, 156539, Note_off_c, 0, 62, 62
1, 156546, Note_off_c, 0, 65, 63
1, 156547, Note_off_c, 0, 85, 63
1, 156548, Note_off_c, 0, 57, 59
1, 156551, Note_off_c, 0, 73, 58
1, 156553, Note_off_c, 0, 77, 61
1, 156617, Control_c, 0, 64, 84
1, 156620, Note_on_c, 0, 73, 88
1, 156623, Note_on_c, 0, 77, 85
1, 156629, Note_on_c, 0, 65, 83
1, 156632, Control_c, 0, 64, 67
1, 156634, Note_on_c, 0, 62, 77
1, 156635, Note_on_c, 0, 57, 73
1, 156647, Control_c, 0, 64, 64
1, 156653, Note_on_c, 0, 85, 60
1, 156661, Control_c, 0, 64, 70
1, 156676, Control_c, 0, 64, 95
1, 156682, Note_off_c, 0, 85, 52
1, 156691, Control_c, 0, 64, 127
1, 156704, Note_off_c, 0, 77, 62
1, 156705, Note_off_c, 0, 73, 64
1, 156712, Note_off_c, 0, 57, 63
1, 156723, Note_off_c, 0, 65, 62
1, 156753, Note_off_c, 0, 62, 62
1, 156771, Note_on_c, 0, 85, 87
1, 156778, Note_on_c, 0, 73, 92
1, 156778, Note_on_c, 0, 76, 85
1, 156796, Note_on_c, 0, 61, 75
1, 156796, Note_on_c, 0, 64, 86
1, 156805, Note_on_c, 0, 56, 70
1, 156808, Note_on_c, 0, 62, 33
1, 156838, Note_off_c, 0, 62, 58
1, 156859, Note_off_c, 0, 85, 64
1, 156860, Note_off_c, 0, 73, 62
1, 156863, Note_off_c, 0, 64, 55
1, 156865, Note_off_c, 0, 76, 61
1, 156869, Note_off_c, 0, 56, 61
1, 156888, Note_off_c, 0, 61, 59
1, 156945, Note_on_c, 0, 85, 88
1, 156949, Note_on_c, 0, 73, 102
1, 156950, Note_on_c, 0, 61, 79
1, 156956, Note_on_c, 0, 64, 87
1, 156960, Note_on_c, 0, 76, 67
1, 156966, Note_on_c, 0, 56, 72
1, 156980, Note_off_c, 0, 76, 64
1, 156989, Note_off_c, 0, 85, 67
1, 157027, Note_off_c, 0, 56, 60
1, 157030, Note_off_c, 0, 73, 64
1, 157086, Note_off_c, 0, 64, 53
1, 157091, Note_off_c, 0, 61, 37
1, 157153, Note_on_c, 0, 76, 58
1, 157160, Note_on_c, 0, 55, 80
1, 157162, Note_on_c, 0, 64, 85
1, 157164, Note_on_c, 0, 72, 97
1, 157168, Note_on_c, 0, 60, 77
1, 157188, Note_off_c, 0, 64, 70
1, 157204, Note_off_c, 0, 60, 66
1, 157217, Note_off_c, 0, 72, 65
1, 157223, Note_off_c, 0, 55, 65
1, 157223, Note_off_c, 0, 76, 65
1, 157551, Note_on_c, 0, 61, 90
1, 157556, Note_on_c, 0, 25, 71
1, 157556, Note_on_c, 0, 49, 89
1, 157557, Note_on_c, 0, 37, 77
1, 157558, Control_c, 0, 64, 94
1, 157573, Control_c, 0, 64, 59
1, 157587, Control_c, 0, 64, 0
1, 157629, Poly_aftertouch_c, 0, 55, 127
1, 157645, Note_off_c, 0, 25, 62
1, 157646, Control_c, 0, 64, 57
1, 157649, Note_off_c, 0, 49, 65
1, 157661, Control_c, 0, 64, 68
1, 157662, Note_off_c, 0, 37, 63
1, 157671, Poly_aftertouch_c, 0, 55, 0
1, 157671, Note_off_c, 0, 61, 64
1, 157676, Control_c, 0, 64, 83
1, 157691, Control_c, 0, 64, 127
1, 157937, Note_on_c, 0, 61, 74
1, 157943, Note_on_c, 0, 53, 55
1, 157956, Note_on_c, 0, 56, 67
1, 157970, Note_off_c, 0, 61, 64
1, 157979, Note_on_c, 0, 80, 86
1, 157981, Note_on_c, 0, 68, 88
1, 157983, Note_off_c, 0, 53, 64
1, 157988, Note_off_c, 0, 56, 65
1, 157989, Note_on_c, 0, 73, 69
1, 158000, Note_off_c, 0, 80, 67
1, 158016, Note_off_c, 0, 73, 66
1, 158030, Note_off_c, 0, 68, 61
1, 158212, Note_on_c, 0, 52, 3
1, 158213, Note_on_c, 0, 72, 77
1, 158241, Note_on_c, 0, 44, 59
1, 158252, Note_on_c, 0, 68, 60
1, 158253, Note_on_c, 0, 65, 62
1, 158262, Control_c, 0, 64, 77
1, 158277, Control_c, 0, 64, 50
1, 158292, Control_c, 0, 64, 0
1, 158336, Control_c, 0, 64, 57
1, 158351, Control_c, 0, 64, 68
1, 158366, Control_c, 0, 64, 83
1, 158380, Control_c, 0, 64, 127
1, 158433, Note_off_c, 0, 52, 58
1, 158454, Note_off_c, 0, 65, 59
1, 158462, Note_off_c, 0, 68, 31
1, 158526, Note_on_c, 0, 68, 77
1, 158531, Note_on_c, 0, 71, 76
1, 158535, Note_on_c, 0, 65, 57
1, 158536, Note_off_c, 0, 44, 0
1, 158542, Note_off_c, 0, 72, 64
1, 158553, Note_on_c, 0, 51, 76
1, 158554, Note_off_c, 0, 65, 65
1, 158559, Note_off_c, 0, 71, 68
1, 158571, Note_off_c, 0, 68, 64
1, 158573, Poly_aftertouch_c, 0, 44, 127
1, 158639, Note_off_c, 0, 51, 60
1, 158695, Poly_aftertouch_c, 0, 44, 0
1, 158712, Note_on_c, 0, 80, 84
1, 158717, Note_on_c, 0, 68, 83
1, 158718, Note_on_c, 0, 57, 72
1, 158763, Note_off_c, 0, 68, 57
1, 158764, Note_off_c, 0, 80, 64
1, 158767, Note_off_c, 0, 57, 60
1, 158945, Note_on_c, 0, 70, 79
1, 158954, Note_on_c, 0, 44, 47
1, 158960, Note_on_c, 0, 65, 61
1, 158962, Note_on_c, 0, 50, 52
1, 158981, Control_c, 0, 64, 80
1, 158996, Control_c, 0, 64, 49
1, 159010, Control_c, 0, 64, 0
1, 159055, Control_c, 0, 64, 50
1, 159067, Note_off_c, 0, 70, 66
1, 159070, Control_c, 0, 64, 63
1, 159085, Control_c, 0, 64, 73
1, 159100, Control_c, 0, 64, 86
1, 159115, Control_c, 0, 64, 106
1, 159117, Note_off_c, 0, 65, 64
1, 159129, Control_c, 0, 64, 127
1, 159258, Note_on_c, 0, 49, 65
1, 159261, Note_on_c, 0, 69, 68
1, 159262, Note_on_c, 0, 65, 69
1, 159275, Note_on_c, 0, 61, 66
1, 159332, Note_off_c, 0, 44, 40
1, 159365, Note_off_c, 0, 65, 54
1, 159398, Note_off_c, 0, 61, 34
1, 159403, Note_off_c, 0, 49, 52
1, 159462, Note_off_c, 0, 69, 0
1, 159475, Note_on_c, 0, 69, 43
1, 159478, Control_c, 0, 64, 98
1, 159478, Note_on_c, 0, 57, 51
1, 159480, Note_on_c, 0, 73, 74
1, 159492, Control_c, 0, 64, 68
1, 159499, Note_on_c, 0, 65, 63
1, 159507, Control_c, 0, 64, 50
1, 159522, Control_c, 0, 64, 44
1, 159538, Control_c, 0, 64, 48
1, 159553, Control_c, 0, 64, 57
1, 159568, Control_c, 0, 64, 66
1, 159582, Control_c, 0, 64, 72
1, 159597, Control_c, 0, 64, 83
1, 159612, Control_c, 0, 64, 96
1, 159613, Note_off_c, 0, 69, 64
1, 159627, Control_c, 0, 64, 127
1, 159636, Note_on_c, 0, 44, 45
1, 159661, Note_off_c, 0, 57, 65
1, 159672, Note_on_c, 0, 61, 65
1, 159672, Note_off_c, 0, 50, 63
1, 159675, Note_on_c, 0, 48, 33
1, 159691, Note_off_c, 0, 44, 63
1, 159698, Poly_aftertouch_c, 0, 71, 127
1, 159710, Note_off_c, 0, 48, 48
1, 159720, Note_on_c, 0, 68, 38
1, 159752, Note_off_c, 0, 73, 63
1, 159761, Note_on_c, 0, 69, 24
1, 159772, Note_off_c, 0, 61, 53
1, 159793, Poly_aftertouch_c, 0, 71, 0
1, 159845, Note_off_c, 0, 69, 0
1, 159883, Poly_aftertouch_c, 0, 69, 127
1, 159918, Note_on_c, 0, 48, 59
1, 159923, Control_c, 0, 64, 86
1, 159929, Note_on_c, 0, 36, 55
1, 159938, Control_c, 0, 64, 63
1, 159952, Control_c, 0, 64, 18
1, 159967, Control_c, 0, 64, 0
1, 159997, Control_c, 0, 64, 41
1, 160012, Control_c, 0, 64, 60
1, 160014, Note_off_c, 0, 36, 64
1, 160027, Control_c, 0, 64, 69
1, 160040, Note_off_c, 0, 48, 64
1, 160040, Note_off_c, 0, 65, 31
1, 160042, Control_c, 0, 64, 82
1, 160057, Control_c, 0, 64, 106
1, 160057, Poly_aftertouch_c, 0, 69, 0
1, 160071, Note_off_c, 0, 68, 44
1, 160072, Control_c, 0, 64, 127
1, 160201, Note_on_c, 0, 53, 52
1, 160210, Note_on_c, 0, 68, 61
1, 160224, Note_on_c, 0, 65, 49
1, 160251, Note_on_c, 0, 56, 52
1, 160271, Note_off_c, 0, 53, 52
1, 160273, Note_off_c, 0, 65, 57
1, 160290, Poly_aftertouch_c, 0, 49, 127
1, 160304, Note_off_c, 0, 56, 54
1, 160370, Note_on_c, 0, 49, 6
1, 160379, Note_on_c, 0, 73, 75
1, 160381, Note_on_c, 0, 61, 63
1, 160385, Note_on_c, 0, 56, 55
1, 160412, Note_off_c, 0, 61, 64
1, 160420, Note_off_c, 0, 56, 64
1, 160429, Note_off_c, 0, 49, 60
1, 160454, Note_off_c, 0, 68, 35
1, 160462, Note_off_c, 0, 73, 63
1, 160617, Note_on_c, 0, 67, 57
1, 160626, Note_on_c, 0, 65, 51
1, 160631, Note_on_c, 0, 59, 55
1, 160643, Control_c, 0, 64, 101
1, 160644, Note_on_c, 0, 53, 49
1, 160646, Note_on_c, 0, 47, 51
1, 160652, Note_on_c, 0, 55, 45
1, 160657, Control_c, 0, 64, 67
1, 160672, Control_c, 0, 64, 0
1, 160746, Control_c, 0, 64, 28
1, 160761, Control_c, 0, 64, 56
1, 160775, Control_c, 0, 64, 61
1, 160790, Control_c, 0, 64, 64
1, 160805, Control_c, 0, 64, 66
1, 160814, Note_off_c, 0, 53, 56
1, 160820, Note_off_c, 0, 67, 63
1, 160820, Control_c, 0, 64, 69
1, 160828, Note_off_c, 0, 59, 65
1, 160835, Control_c, 0, 64, 72
1, 160841, Note_off_c, 0, 55, 64
1, 160850, Control_c, 0, 64, 79
1, 160851, Note_off_c, 0, 47, 62
1, 160865, Control_c, 0, 64, 90
1, 160879, Control_c, 0, 64, 127
1, 160883, Note_off_c, 0, 65, 46
1, 160970, Note_on_c, 0, 66, 63
1, 160972, Note_on_c, 0, 52, 39
1, 160972, Note_on_c, 0, 58, 52
1, 160990, Note_on_c, 0, 54, 54
1, 161000, Note_off_c, 0, 58, 63
1, 161015, Note_off_c, 0, 54, 59
1, 161024, Note_off_c, 0, 52, 59
1, 161079, Poly_aftertouch_c, 0, 46, 0
1, 161122, Note_off_c, 0, 66, 30
1, 161153, Note_on_c, 0, 73, 72
1, 161236, Note_off_c, 0, 73, 61
1, 161421, Note_on_c, 0, 65, 56
1, 161435, Control_c, 0, 64, 89
1, 161439, Note_on_c, 0, 63, 47
1, 161450, Control_c, 0, 64, 66
1, 161457, Note_on_c, 0, 45, 36
1, 161460, Note_on_c, 0, 53, 30
1, 161465, Control_c, 0, 64, 40
1, 161467, Note_on_c, 0, 51, 42
1, 161479, Control_c, 0, 64, 0
1, 161507, Note_on_c, 0, 57, 34
1, 161509, Control_c, 0, 64, 32
1, 161524, Control_c, 0, 64, 56
1, 161539, Control_c, 0, 64, 65
1, 161553, Control_c, 0, 64, 72
1, 161568, Control_c, 0, 64, 81
1, 161577, Note_off_c, 0, 45, 63
1, 161583, Control_c, 0, 64, 92
1, 161585, Note_off_c, 0, 53, 55
1, 161591, Note_off_c, 0, 51, 61
1, 161598, Control_c, 0, 64, 104
1, 161607, Note_off_c, 0, 57, 63
1, 161613, Control_c, 0, 64, 117
1, 161628, Control_c, 0, 64, 127
1, 161643, Note_off_c, 0, 63, 53
1, 161652, Note_off_c, 0, 65, 55
1, 161892, Note_on_c, 0, 50, 35
1, 161893, Note_on_c, 0, 53, 33
1, 161895, Note_on_c, 0, 65, 47
1, 161899, Note_on_c, 0, 62, 38
1, 161902, Control_c, 0, 64, 96
1, 161917, Control_c, 0, 64, 70
1, 161927, Note_on_c, 0, 58, 35
1, 161932, Control_c, 0, 64, 54
1, 161935, Note_on_c, 0, 44, 29
1, 161947, Control_c, 0, 64, 26
1, 161962, Control_c, 0, 64, 19
1, 161976, Control_c, 0, 64, 37
1, 161991, Control_c, 0, 64, 56
1, 162006, Control_c, 0, 64, 64
1, 162021, Control_c, 0, 64, 70
1, 162036, Control_c, 0, 64, 77
1, 162051, Control_c, 0, 64, 84
1, 162066, Control_c, 0, 64, 89
1, 162070, Note_off_c, 0, 62, 61
1, 162081, Control_c, 0, 64, 92
1, 162091, Note_off_c, 0, 65, 59
1, 162096, Control_c, 0, 64, 95
1, 162096, Note_off_c, 0, 44, 49
1, 162110, Control_c, 0, 64, 100
1, 162125, Control_c, 0, 64, 112
1, 162140, Control_c, 0, 64, 127
1, 162148, Note_off_c, 0, 53, 41
1, 162173, Poly_aftertouch_c, 0, 67, 127
1, 162182, Note_off_c, 0, 58, 32
1, 162265, Note_off_c, 0, 50, 39
1, 162308, Note_on_c, 0, 52, 14
1, 162361, Control_c, 0, 64, 87
1, 162376, Control_c, 0, 64, 70
1, 162383, Poly_aftertouch_c, 0, 43, 127
1, 162391, Control_c, 0, 64, 62
1, 162396, Note_on_c, 0, 64, 49
1, 162400, Poly_aftertouch_c, 0, 49, 127
1, 162406, Control_c, 0, 64, 62
1, 162428, Control_c, 0, 64, 64
1, 162433, Note_on_c, 0, 58, 39
1, 162437, Note_on_c, 0, 61, 39
1, 162438, Note_off_c, 0, 52, 63
1, 162443, Control_c, 0, 64, 70
1, 162458, Control_c, 0, 64, 79
1, 162473, Control_c, 0, 64, 93
1, 162488, Control_c, 0, 64, 112
1, 162502, Control_c, 0, 64, 127
1, 162505, Poly_aftertouch_c, 0, 49, 0
1, 162507, Poly_aftertouch_c, 0, 67, 0
1, 162528, Poly_aftertouch_c, 0, 43, 0
1, 162536, Note_off_c, 0, 58, 60
1, 162552, Poly_aftertouch_c, 0, 68, 127
1, 162608, Poly_aftertouch_c, 0, 68, 0
1, 162714, Note_off_c, 0, 61, 63
1, 162767, Note_off_c, 0, 64, 63
1, 162844, Note_on_c, 0, 37, 33
1, 162847, Note_on_c, 0, 25, 43
1, 162859, Control_c, 0, 64, 117
1, 162874, Control_c, 0, 64, 90
1, 162889, Control_c, 0, 64, 71
1, 162904, Control_c, 0, 64, 57
1, 162918, Control_c, 0, 64, 47
1, 162933, Control_c, 0, 64, 48
1, 162948, Control_c, 0, 64, 55
1, 162963, Control_c, 0, 64, 62
1, 162977, Control_c, 0, 64, 67
1, 162992, Control_c, 0, 64, 73
1, 163007, Control_c, 0, 64, 81
1, 163008, Note_off_c, 0, 25, 55
1, 163012, Note_off_c, 0, 37, 49
1, 163022, Control_c, 0, 64, 85
1, 163037, Control_c, 0, 64, 86
1, 163051, Control_c, 0, 64, 87
1, 163066, Control_c, 0, 64, 87
1, 163081, Control_c, 0, 64, 89
1, 163096, Control_c, 0, 64, 93
1, 163111, Control_c, 0, 64, 98
1, 163117, Note_on_c, 0, 61, 58
1, 163125, Control_c, 0, 64, 104
1, 163140, Control_c, 0, 64, 110
1, 163155, Control_c, 0, 64, 116
1, 163177, Control_c, 0, 64, 119
1, 163180, Note_on_c, 0, 53, 29
1, 163183, Note_on_c, 0, 56, 24
1, 163222, Control_c, 0, 64, 120
1, 163223, Note_off_c, 0, 56, 51
1, 163237, Control_c, 0, 64, 122
1, 163242, Note_off_c, 0, 53, 52
1, 163249, Note_off_c, 0, 61, 36
1, 163251, Control_c, 0, 64, 127
1, 163380, Note_on_c, 0, 60, 66
1, 163407, Note_on_c, 0, 56, 41
1, 163475, Poly_aftertouch_c, 0, 52, 127
1, 163500, Poly_aftertouch_c, 0, 52, 0
1, 163597, Poly_aftertouch_c, 0, 47, 0
1, 163613, Note_on_c, 0, 53, 60
1, 163622, Note_on_c, 0, 49, 46
1, 163632, Note_off_c, 0, 60, 63
1, 163687, Note_off_c, 0, 49, 57
1, 163712, Control_c, 0, 64, 80
1, 163726, Note_on_c, 0, 37, 49
1, 163727, Control_c, 0, 64, 64
1, 163742, Control_c, 0, 64, 50
1, 163750, Note_on_c, 0, 25, 41
1, 163753, Note_off_c, 0, 53, 51
1, 163756, Control_c, 0, 64, 49
1, 163763, Note_off_c, 0, 56, 42
1, 163771, Control_c, 0, 64, 55
1, 163786, Control_c, 0, 64, 63
1, 163801, Control_c, 0, 64, 69
1, 163813, Note_off_c, 0, 25, 62
1, 163816, Control_c, 0, 64, 79
1, 163823, Note_off_c, 0, 37, 60
1, 163831, Control_c, 0, 64, 97
1, 163845, Control_c, 0, 64, 127
1, 163851, Note_on_c, 0, 61, 57
1, 163878, Note_on_c, 0, 53, 29
1, 163884, Note_on_c, 0, 56, 46
1, 163988, Note_off_c, 0, 61, 59
1, 163997, Note_off_c, 0, 56, 43
1, 164064, Note_on_c, 0, 60, 60
1, 164069, Note_on_c, 0, 56, 35
1, 164069, Note_on_c, 0, 52, 55
1, 164093, Note_off_c, 0, 53, 41
1, 164103, Note_off_c, 0, 52, 65
1, 164164, Note_on_c, 0, 48, 60
1, 164194, Note_off_c, 0, 48, 64
1, 164276, Note_on_c, 0, 53, 58
1, 164286, Note_on_c, 0, 49, 40
1, 164291, Note_off_c, 0, 60, 57
1, 164329, Note_off_c, 0, 49, 60
1, 164358, Control_c, 0, 64, 111
1, 164372, Control_c, 0, 64, 76
1, 164384, Note_off_c, 0, 56, 16
1, 164386, Note_on_c, 0, 37, 47
1, 164387, Control_c, 0, 64, 60
1, 164394, Note_on_c, 0, 25, 50
1, 164402, Control_c, 0, 64, 38
1, 164417, Control_c, 0, 64, 36
1, 164419, Note_off_c, 0, 53, 48
1, 164431, Control_c, 0, 64, 45
1, 164446, Control_c, 0, 64, 58
1, 164451, Note_off_c, 0, 37, 53
1, 164452, Note_off_c, 0, 25, 60
1, 164461, Control_c, 0, 64, 65
1, 164476, Control_c, 0, 64, 72
1, 164491, Control_c, 0, 64, 84
1, 164505, Control_c, 0, 64, 95
1, 164513, Note_on_c, 0, 60, 53
1, 164520, Control_c, 0, 64, 104
1, 164526, Note_on_c, 0, 53, 15
1, 164527, Note_on_c, 0, 56, 50
1, 164535, Control_c, 0, 64, 106
1, 164550, Control_c, 0, 64, 107
1, 164579, Control_c, 0, 64, 109
1, 164583, Note_off_c, 0, 56, 55
1, 164585, Note_off_c, 0, 60, 59
1, 164594, Control_c, 0, 64, 113
1, 164609, Control_c, 0, 64, 119
1, 164623, Control_c, 0, 64, 125
1, 164698, Note_on_c, 0, 52, 52
1, 164725, Note_on_c, 0, 59, 48
1, 164728, Note_on_c, 0, 56, 41
1, 164728, Note_off_c, 0, 52, 65
1, 164735, Control_c, 0, 64, 127
1, 164740, Note_off_c, 0, 53, 38
1, 164778, Note_off_c, 0, 59, 56
1, 164797, Note_on_c, 0, 47, 52
1, 164830, Note_off_c, 0, 47, 63
1, 164890, Note_on_c, 0, 49, 44
1, 164895, Note_off_c, 0, 56, 35
1, 164903, Note_on_c, 0, 53, 40
1, 164938, Note_off_c, 0, 49, 60
1, 164957, Control_c, 0, 64, 125
1, 164972, Control_c, 0, 64, 78
1, 164987, Control_c, 0, 64, 62
1, 164995, Note_off_c, 0, 53, 48
1, 165002, Control_c, 0, 64, 46
1, 165004, Note_on_c, 0, 37, 33
1, 165016, Control_c, 0, 64, 44
1, 165020, Note_on_c, 0, 25, 34
1, 165031, Control_c, 0, 64, 51
1, 165046, Control_c, 0, 64, 62
1, 165058, Note_off_c, 0, 25, 52
1, 165059, Note_off_c, 0, 37, 49
1, 165061, Control_c, 0, 64, 68
1, 165076, Control_c, 0, 64, 74
1, 165089, Note_on_c, 0, 60, 53
1, 165091, Control_c, 0, 64, 82
1, 165105, Control_c, 0, 64, 89
1, 165112, Note_on_c, 0, 53, 10
1, 165113, Note_on_c, 0, 56, 46
1, 165121, Control_c, 0, 64, 92
1, 165136, Control_c, 0, 64, 93
1, 165140, Note_off_c, 0, 60, 56
1, 165168, Note_off_c, 0, 56, 57
1, 165181, Control_c, 0, 64, 94
1, 165195, Control_c, 0, 64, 96
1, 165210, Control_c, 0, 64, 98
1, 165225, Control_c, 0, 64, 100
1, 165240, Control_c, 0, 64, 102
1, 165254, Control_c, 0, 64, 103
1, 165269, Control_c, 0, 64, 107
1, 165273, Note_on_c, 0, 52, 37
1, 165284, Control_c, 0, 64, 113
1, 165287, Note_on_c, 0, 56, 37
1, 165299, Note_off_c, 0, 53, 22
1, 165299, Control_c, 0, 64, 127
1, 165304, Note_on_c, 0, 59, 33
1, 165305, Note_off_c, 0, 52, 52
1, 165363, Note_on_c, 0, 47, 52
1, 165395, Note_off_c, 0, 47, 64
1, 165429, Note_off_c, 0, 56, 28
1, 165464, Note_on_c, 0, 49, 36
1, 165464, Note_on_c, 0, 53, 45
1, 165500, Note_off_c, 0, 59, 29
1, 165501, Note_off_c, 0, 49, 58
1, 165563, Note_off_c, 0, 53, 44
1, 165572, Control_c, 0, 64, 92
1, 165583, Note_on_c, 0, 37, 45
1, 165587, Control_c, 0, 64, 69
1, 165601, Note_on_c, 0, 25, 35
1, 165602, Control_c, 0, 64, 57
1, 165617, Control_c, 0, 64, 50
1, 165632, Control_c, 0, 64, 53
1, 165646, Note_off_c, 0, 25, 51
1, 165646, Control_c, 0, 64, 60
1, 165661, Control_c, 0, 64, 66
1, 165664, Note_off_c, 0, 37, 56
1, 165676, Note_on_c, 0, 59, 38
1, 165676, Control_c, 0, 64, 71
1, 165689, Note_on_c, 0, 56, 42
1, 165691, Control_c, 0, 64, 78
1, 165706, Control_c, 0, 64, 85
1, 165712, Note_off_c, 0, 59, 55
1, 165720, Poly_aftertouch_c, 0, 53, 127
1, 165720, Control_c, 0, 64, 88
1, 165729, Note_off_c, 0, 56, 60
1, 165735, Control_c, 0, 64, 89
1, 165765, Control_c, 0, 64, 89
1, 165780, Control_c, 0, 64, 90
1, 165795, Control_c, 0, 64, 92
1, 165810, Control_c, 0, 64, 95
1, 165824, Control_c, 0, 64, 98
1, 165839, Control_c, 0, 64, 101
1, 165847, Note_on_c, 0, 52, 43
1, 165853, Control_c, 0, 64, 104
1, 165854, Note_on_c, 0, 55, 44
1, 165856, Poly_aftertouch_c, 0, 53, 0
1, 165858, Note_on_c, 0, 58, 45
1, 165868, Control_c, 0, 64, 106
1, 165875, Note_off_c, 0, 52, 55
1, 165883, Control_c, 0, 64, 109
1, 165898, Control_c, 0, 64, 115
1, 165914, Control_c, 0, 64, 127
1, 165916, Note_off_c, 0, 58, 54
1, 165938, Note_on_c, 0, 46, 38
1, 165941, Note_off_c, 0, 55, 56
1, 165973, Note_off_c, 0, 46, 50
1, 166019, Note_on_c, 0, 49, 42
1, 166025, Note_on_c, 0, 53, 36
1, 166060, Note_off_c, 0, 49, 62
1, 166070, Poly_aftertouch_c, 0, 58, 127
1, 166091, Control_c, 0, 64, 97
1, 166102, Poly_aftertouch_c, 0, 58, 0
1, 166106, Control_c, 0, 64, 73
1, 166121, Control_c, 0, 64, 61
1, 166132, Note_on_c, 0, 37, 45
1, 166136, Control_c, 0, 64, 54
1, 166150, Control_c, 0, 64, 55
1, 166151, Note_on_c, 0, 25, 30
1, 166173, Control_c, 0, 64, 60
1, 166188, Control_c, 0, 64, 65
1, 166199, Note_off_c, 0, 37, 57
1, 166202, Note_off_c, 0, 25, 51
1, 166202, Control_c, 0, 64, 71
1, 166216, Note_off_c, 0, 53, 0
1, 166217, Control_c, 0, 64, 78
1, 166231, Note_on_c, 0, 59, 37
1, 166232, Control_c, 0, 64, 84
1, 166233, Note_on_c, 0, 56, 46
1, 166247, Control_c, 0, 64, 88
1, 166254, Poly_aftertouch_c, 0, 53, 127
1, 166262, Control_c, 0, 64, 89
1, 166269, Note_off_c, 0, 59, 51
1, 166278, Note_off_c, 0, 56, 60
1, 166306, Control_c, 0, 64, 89
1, 166321, Control_c, 0, 64, 91
1, 166336, Control_c, 0, 64, 93
1, 166350, Control_c, 0, 64, 95
1, 166365, Control_c, 0, 64, 97
1, 166380, Control_c, 0, 64, 98
1, 166388, Note_on_c, 0, 52, 49
1, 166394, Poly_aftertouch_c, 0, 53, 0
1, 166394, Control_c, 0, 64, 99
1, 166406, Note_on_c, 0, 55, 45
1, 166409, Control_c, 0, 64, 100
1, 166418, Note_off_c, 0, 52, 63
1, 166424, Control_c, 0, 64, 101
1, 166439, Control_c, 0, 64, 102
1, 166454, Control_c, 0, 64, 104
1, 166469, Control_c, 0, 64, 107
1, 166479, Note_on_c, 0, 46, 56
1, 166484, Control_c, 0, 64, 111
1, 166498, Control_c, 0, 64, 117
1, 166513, Control_c, 0, 64, 127
1, 166516, Note_off_c, 0, 46, 64
1, 166554, Note_off_c, 0, 55, 33
1, 166603, Note_on_c, 0, 49, 31
1, 166612, Note_on_c, 0, 53, 39
1, 166656, Note_off_c, 0, 49, 53
1, 166668, Note_off_c, 0, 53, 51
1, 166691, Control_c, 0, 64, 105
1, 166706, Control_c, 0, 64, 76
1, 166722, Control_c, 0, 64, 59
1, 166722, Note_on_c, 0, 37, 43
1, 166737, Control_c, 0, 64, 45
1, 166743, Note_on_c, 0, 25, 23
1, 166752, Control_c, 0, 64, 44
1, 166766, Control_c, 0, 64, 52
1, 166781, Control_c, 0, 64, 61
1, 166795, Note_off_c, 0, 25, 50
1, 166796, Control_c, 0, 64, 66
1, 166807, Note_off_c, 0, 37, 55
1, 166811, Control_c, 0, 64, 73
1, 166825, Control_c, 0, 64, 79
1, 166840, Control_c, 0, 64, 84
1, 166850, Note_on_c, 0, 58, 39
1, 166855, Control_c, 0, 64, 87
1, 166861, Note_on_c, 0, 56, 42
1, 166870, Control_c, 0, 64, 88
1, 166877, Note_on_c, 0, 53, 27
1, 166884, Control_c, 0, 64, 89
1, 166899, Control_c, 0, 64, 91
1, 166904, Note_off_c, 0, 58, 51
1, 166922, Control_c, 0, 64, 93
1, 166923, Note_off_c, 0, 56, 54
1, 166925, Note_off_c, 0, 53, 51
1, 166937, Control_c, 0, 64, 98
1, 166952, Control_c, 0, 64, 103
1, 166966, Control_c, 0, 64, 107
1, 166981, Control_c, 0, 64, 107
1, 166996, Control_c, 0, 64, 108
1, 167011, Control_c, 0, 64, 108
1, 167025, Control_c, 0, 64, 109
1, 167040, Control_c, 0, 64, 109
1, 167055, Control_c, 0, 64, 110
1, 167070, Control_c, 0, 64, 112
1, 167085, Control_c, 0, 64, 113
1, 167088, Note_on_c, 0, 57, 39
1, 167099, Control_c, 0, 64, 98
1, 167100, Note_on_c, 0, 52, 38
1, 167107, Note_on_c, 0, 55, 40
1, 167114, Control_c, 0, 64, 81
1, 167129, Control_c, 0, 64, 69
1, 167144, Control_c, 0, 64, 63
1, 167159, Control_c, 0, 64, 63
1, 167162, Note_off_c, 0, 52, 49
1, 167173, Control_c, 0, 64, 64
1, 167186, Note_on_c, 0, 45, 38
1, 167188, Control_c, 0, 64, 68
1, 167203, Control_c, 0, 64, 75
1, 167217, Note_off_c, 0, 45, 55
1, 167217, Control_c, 0, 64, 83
1, 167232, Control_c, 0, 64, 92
1, 167241, Note_off_c, 0, 57, 36
1, 167247, Control_c, 0, 64, 100
1, 167262, Control_c, 0, 64, 105
1, 167277, Control_c, 0, 64, 110
1, 167285, Note_off_c, 0, 55, 30
1, 167291, Control_c, 0, 64, 120
1, 167300, Note_on_c, 0, 49, 37
1, 167306, Control_c, 0, 64, 127
1, 167321, Note_on_c, 0, 53, 41
1, 167360, Note_off_c, 0, 53, 60
1, 167420, Note_off_c, 0, 49, 36
1, 167467, Note_on_c, 0, 37, 35
1, 167470, Control_c, 0, 64, 82
1, 167485, Control_c, 0, 64, 67
1, 167491, Note_on_c, 0, 25, 16
1, 167499, Control_c, 0, 64, 57
1, 167515, Control_c, 0, 64, 53
1, 167530, Control_c, 0, 64, 55
1, 167545, Control_c, 0, 64, 61
1, 167560, Control_c, 0, 64, 66
1, 167569, Note_off_c, 0, 25, 56
1, 167575, Control_c, 0, 64, 71
1, 167588, Note_off_c, 0, 37, 51
1, 167589, Control_c, 0, 64, 76
1, 167604, Control_c, 0, 64, 80
1, 167615, Note_on_c, 0, 56, 43
1, 167619, Control_c, 0, 64, 82
1, 167628, Note_on_c, 0, 58, 35
1, 167630, Note_on_c, 0, 53, 38
1, 167633, Control_c, 0, 64, 83
1, 167648, Control_c, 0, 64, 86
1, 167670, Control_c, 0, 64, 89
1, 167685, Control_c, 0, 64, 94
1, 167695, Note_off_c, 0, 58, 45
1, 167696, Note_off_c, 0, 53, 58
1, 167700, Control_c, 0, 64, 99
1, 167703, Note_off_c, 0, 56, 58
1, 167715, Control_c, 0, 64, 104
1, 167730, Control_c, 0, 64, 106
1, 167952, Control_c, 0, 64, 106
1, 168011, Control_c, 0, 64, 105
1, 168019, Note_on_c, 0, 57, 31
1, 168022, Note_on_c, 0, 52, 33
1, 168026, Control_c, 0, 64, 102
1, 168033, Note_on_c, 0, 55, 34
1, 168040, Control_c, 0, 64, 99
1, 168055, Control_c, 0, 64, 95
1, 168069, Control_c, 0, 64, 92
1, 168084, Control_c, 0, 64, 90
1, 168099, Control_c, 0, 64, 89
1, 168114, Control_c, 0, 64, 88
1, 168159, Control_c, 0, 64, 88
1, 168159, Note_off_c, 0, 52, 51
1, 168195, Note_on_c, 0, 45, 31
1, 168218, Control_c, 0, 64, 87
1, 168233, Control_c, 0, 64, 79
1, 168247, Control_c, 0, 64, 67
1, 168262, Control_c, 0, 64, 58
1, 168269, Note_off_c, 0, 55, 43
1, 168277, Control_c, 0, 64, 51
1, 168292, Control_c, 0, 64, 52
1, 168307, Control_c, 0, 64, 58
1, 168323, Control_c, 0, 64, 63
1, 168337, Control_c, 0, 64, 67
1, 168352, Control_c, 0, 64, 71
1, 168367, Control_c, 0, 64, 75
1, 168382, Control_c, 0, 64, 79
1, 168397, Control_c, 0, 64, 82
1, 168418, Control_c, 0, 64, 85
1, 168433, Control_c, 0, 64, 88
1, 168448, Control_c, 0, 64, 92
1, 168457, Note_on_c, 0, 53, 36
1, 168463, Control_c, 0, 64, 98
1, 168478, Control_c, 0, 64, 107
1, 168493, Control_c, 0, 64, 120
1, 168508, Control_c, 0, 64, 127
1, 168508, Note_on_c, 0, 49, 28
1, 168514, Note_off_c, 0, 45, 41
1, 168608, Note_off_c, 0, 57, 35
1, 168621, Note_off_c, 0, 49, 54
1, 168928, Note_off_c, 0, 53, 38
1, 169100, Control_c, 0, 64, 125
1, 169116, Control_c, 0, 64, 115
1, 169131, Control_c, 0, 64, 113
1, 169146, Control_c, 0, 64, 112
1, 169167, Control_c, 0, 64, 110
1, 169182, Control_c, 0, 64, 108
1, 169197, Control_c, 0, 64, 104
1, 169212, Control_c, 0, 64, 101
1, 169227, Control_c, 0, 64, 98
1, 169241, Control_c, 0, 64, 96
1, 169256, Control_c, 0, 64, 96
1, 169271, Control_c, 0, 64, 95
1, 169286, Control_c, 0, 64, 93
1, 169301, Control_c, 0, 64, 92
1, 169315, Control_c, 0, 64, 90
1, 169330, Control_c, 0, 64, 88
1, 169345, Control_c, 0, 64, 87
1, 169360, Control_c, 0, 64, 85
1, 169375, Control_c, 0, 64, 84
1, 169390, Control_c, 0, 64, 83
1, 169405, Control_c, 0, 64, 82
1, 169419, Control_c, 0, 64, 81
1, 169434, Control_c, 0, 64, 81
1, 169449, Control_c, 0, 64, 80
1, 169464, Control_c, 0, 64, 80
1, 169479, Control_c, 0, 64, 79
1, 169493, Control_c, 0, 64, 78
1, 169508, Control_c, 0, 64, 78
1, 169532, Note_on_c, 0, 57, 74
1, 169538, Control_c, 0, 64, 77
1, 169553, Control_c, 0, 64, 77
1, 169567, Control_c, 0, 64, 76
1, 169582, Control_c, 0, 64, 75
1, 169597, Control_c, 0, 64, 74
1, 169611, Control_c, 0, 64, 73
1, 169626, Control_c, 0, 64, 72
1, 169641, Control_c, 0, 64, 70
1, 169656, Control_c, 0, 64, 69
1, 169671, Control_c, 0, 64, 68
1, 169685, Control_c, 0, 64, 67
1, 169700, Control_c, 0, 64, 66
1, 169730, Control_c, 0, 64, 66
1, 169834, Control_c, 0, 64, 65
1, 169961, Control_c, 0, 64, 65
1, 169976, Control_c, 0, 64, 64
1, 169980, Note_on_c, 0, 56, 65
1, 169990, Control_c, 0, 64, 64
1, 170020, Control_c, 0, 64, 64
1, 170138, Control_c, 0, 64, 65
1, 170142, Note_off_c, 0, 57, 35
1, 170192, Note_off_c, 0, 56, 65
1, 170207, Note_on_c, 0, 55, 75
1, 170331, Control_c, 0, 64, 65
1, 170388, Note_on_c, 0, 38, 49
1, 170493, Note_on_c, 0, 45, 44
1, 170582, Note_on_c, 0, 53, 53
1, 170612, Control_c, 0, 64, 65
1, 170679, Control_c, 0, 64, 64
1, 170683, Note_off_c, 0, 55, 62
1, 170725, Control_c, 0, 64, 64
1, 170739, Control_c, 0, 64, 63
1, 170858, Control_c, 0, 64, 64
1, 170946, Control_c, 0, 64, 64
1, 170961, Control_c, 0, 64, 65
1, 170976, Control_c, 0, 64, 65
1, 171006, Control_c, 0, 64, 66
1, 171021, Control_c, 0, 64, 67
1, 171035, Control_c, 0, 64, 70
1, 171050, Control_c, 0, 64, 73
1, 171065, Control_c, 0, 64, 76
1, 171080, Control_c, 0, 64, 79
1, 171095, Control_c, 0, 64, 83
1, 171110, Control_c, 0, 64, 85
1, 171125, Control_c, 0, 64, 88
1, 171140, Control_c, 0, 64, 93
1, 171155, Control_c, 0, 64, 98
1, 171170, Control_c, 0, 64, 105
1, 171181, Note_on_c, 0, 50, 58
1, 171184, Control_c, 0, 64, 112
1, 171199, Control_c, 0, 64, 113
1, 171210, Note_off_c, 0, 45, 53
1, 171244, Control_c, 0, 64, 112
1, 171258, Control_c, 0, 64, 111
1, 171273, Control_c, 0, 64, 110
1, 171288, Control_c, 0, 64, 108
1, 171303, Control_c, 0, 64, 105
1, 171318, Control_c, 0, 64, 103
1, 171332, Control_c, 0, 64, 100
1, 171347, Control_c, 0, 64, 98
1, 171362, Control_c, 0, 64, 95
1, 171377, Control_c, 0, 64, 92
1, 171391, Control_c, 0, 64, 89
1, 171414, Control_c, 0, 64, 86
1, 171429, Control_c, 0, 64, 85
1, 171444, Control_c, 0, 64, 84
1, 171447, Note_on_c, 0, 45, 58
1, 171453, Note_off_c, 0, 53, 27
1, 171459, Control_c, 0, 64, 83
1, 171473, Control_c, 0, 64, 82
1, 171503, Control_c, 0, 64, 81
1, 171518, Control_c, 0, 64, 81
1, 171533, Control_c, 0, 64, 80
1, 171548, Control_c, 0, 64, 79
1, 171563, Control_c, 0, 64, 78
1, 171578, Control_c, 0, 64, 78
1, 171593, Control_c, 0, 64, 77
1, 171594, Note_on_c, 0, 44, 45
1, 171608, Control_c, 0, 64, 76
1, 171623, Control_c, 0, 64, 75
1, 171637, Control_c, 0, 64, 75
1, 171650, Note_off_c, 0, 44, 62
1, 171667, Control_c, 0, 64, 74
1, 171682, Control_c, 0, 64, 74
1, 171696, Note_on_c, 0, 43, 49
1, 171696, Control_c, 0, 64, 73
1, 171712, Note_off_c, 0, 50, 34
1, 171793, Note_off_c, 0, 43, 61
1, 171811, Note_off_c, 0, 38, 53
1, 171814, Control_c, 0, 64, 73
1, 171821, Note_on_c, 0, 42, 53
1, 171893, Note_off_c, 0, 42, 60
1, 171933, Control_c, 0, 64, 72
1, 171939, Note_on_c, 0, 41, 51
1, 171992, Control_c, 0, 64, 72
1, 172006, Control_c, 0, 64, 71
1, 172021, Control_c, 0, 64, 71
1, 172036, Control_c, 0, 64, 70
1, 172051, Control_c, 0, 64, 69
1, 172059, Note_off_c, 0, 41, 58
1, 172066, Control_c, 0, 64, 68
1, 172080, Control_c, 0, 64, 67
1, 172088, Note_on_c, 0, 38, 42
1, 172095, Control_c, 0, 64, 66
1, 172110, Control_c, 0, 64, 65
1, 172125, Control_c, 0, 64, 64
1, 172140, Control_c, 0, 64, 64
1, 172162, Control_c, 0, 64, 63
1, 172177, Control_c, 0, 64, 62
1, 172192, Control_c, 0, 64, 62
1, 172207, Control_c, 0, 64, 61
1, 172236, Control_c, 0, 64, 61
1, 172251, Control_c, 0, 64, 60
1, 172266, Control_c, 0, 64, 60
1, 172295, Control_c, 0, 64, 59
1, 172329, Note_on_c, 0, 44, 57
1, 172341, Control_c, 0, 64, 59
1, 172364, Note_off_c, 0, 45, 61
1, 172371, Control_c, 0, 64, 58
1, 172445, Control_c, 0, 64, 59
1, 172459, Control_c, 0, 64, 60
1, 172467, Note_on_c, 0, 36, 40
1, 172474, Control_c, 0, 64, 62
1, 172485, Note_off_c, 0, 38, 39
1, 172489, Control_c, 0, 64, 64
1, 172504, Control_c, 0, 64, 66
1, 172518, Control_c, 0, 64, 68
1, 172533, Control_c, 0, 64, 70
1, 172548, Control_c, 0, 64, 74
1, 172563, Control_c, 0, 64, 77
1, 172578, Control_c, 0, 64, 80
1, 172592, Control_c, 0, 64, 82
1, 172607, Control_c, 0, 64, 83
1, 172651, Control_c, 0, 64, 82
1, 172681, Control_c, 0, 64, 82
1, 172696, Control_c, 0, 64, 81
1, 172709, Note_on_c, 0, 35, 39
1, 172711, Control_c, 0, 64, 80
1, 172720, Note_off_c, 0, 36, 39
1, 172726, Control_c, 0, 64, 80
1, 172740, Control_c, 0, 64, 79
1, 172755, Control_c, 0, 64, 79
1, 172770, Control_c, 0, 64, 78
1, 172785, Control_c, 0, 64, 77
1, 172791, Note_on_c, 0, 43, 53
1, 172800, Control_c, 0, 64, 73
1, 172804, Note_off_c, 0, 44, 63
1, 172815, Control_c, 0, 64, 67
1, 172829, Control_c, 0, 64, 61
1, 172844, Control_c, 0, 64, 57
1, 172859, Control_c, 0, 64, 58
1, 172874, Control_c, 0, 64, 60
1, 172889, Control_c, 0, 64, 63
1, 172910, Control_c, 0, 64, 66
1, 172925, Control_c, 0, 64, 69
1, 172940, Control_c, 0, 64, 72
1, 172955, Control_c, 0, 64, 75
1, 172970, Control_c, 0, 64, 77
1, 172985, Control_c, 0, 64, 79
1, 173000, Control_c, 0, 64, 81
1, 173015, Control_c, 0, 64, 83
1, 173030, Control_c, 0, 64, 84
1, 173044, Control_c, 0, 64, 80
1, 173056, Note_on_c, 0, 34, 45
1, 173059, Control_c, 0, 64, 70
1, 173073, Note_on_c, 0, 41, 50
1, 173074, Note_off_c, 0, 35, 41
1, 173074, Control_c, 0, 64, 63
1, 173082, Note_off_c, 0, 43, 62
1, 173089, Control_c, 0, 64, 58
1, 173104, Control_c, 0, 64, 59
1, 173119, Control_c, 0, 64, 63
1, 173134, Control_c, 0, 64, 68
1, 173149, Control_c, 0, 64, 79
1, 173164, Control_c, 0, 64, 94
1, 173169, Note_off_c, 0, 34, 50
1, 173179, Control_c, 0, 64, 120
1, 173194, Control_c, 0, 64, 127
1, 173254, Note_off_c, 0, 41, 64
1, 173256, Note_on_c, 0, 33, 46
1, 173371, Control_c, 0, 64, 119
1, 173386, Control_c, 0, 64, 114
1, 173400, Control_c, 0, 64, 112
1, 173415, Control_c, 0, 64, 110
1, 173430, Control_c, 0, 64, 109
1, 173445, Control_c, 0, 64, 108
1, 173459, Control_c, 0, 64, 106
1, 173474, Control_c, 0, 64, 104
1, 173489, Control_c, 0, 64, 100
1, 173504, Control_c, 0, 64, 98
1, 173519, Control_c, 0, 64, 95
1, 173533, Control_c, 0, 64, 95
1, 173534, Note_on_c, 0, 38, 45
1, 173548, Control_c, 0, 64, 94
1, 173553, Note_off_c, 0, 33, 39
1, 173555, Note_on_c, 0, 29, 35
1, 173593, Control_c, 0, 64, 94
1, 173608, Control_c, 0, 64, 93
1, 173623, Control_c, 0, 64, 92
1, 173638, Control_c, 0, 64, 92
1, 173659, Control_c, 0, 64, 91
1, 173861, Note_on_c, 0, 33, 40
1, 173897, Control_c, 0, 64, 90
1, 173912, Control_c, 0, 64, 83
1, 173927, Control_c, 0, 64, 73
1, 173933, Note_on_c, 0, 74, 39
1, 173939, Note_on_c, 0, 77, 53
1, 173942, Control_c, 0, 64, 66
1, 173954, Note_off_c, 0, 38, 32
1, 173957, Control_c, 0, 64, 61
1, 173987, Control_c, 0, 64, 63
1, 174001, Control_c, 0, 64, 66
1, 174016, Control_c, 0, 64, 71
1, 174031, Control_c, 0, 64, 78
1, 174038, Note_off_c, 0, 74, 55
1, 174046, Control_c, 0, 64, 84
1, 174061, Control_c, 0, 64, 89
1, 174076, Control_c, 0, 64, 91
1, 174090, Control_c, 0, 64, 91
1, 174094, Note_off_c, 0, 77, 55
1, 174113, Note_on_c, 0, 76, 56
1, 174120, Control_c, 0, 64, 92
1, 174124, Note_on_c, 0, 69, 43
1, 174135, Control_c, 0, 64, 94
1, 174150, Control_c, 0, 64, 97
1, 174152, Note_off_c, 0, 69, 53
1, 174164, Control_c, 0, 64, 101
1, 174168, Note_off_c, 0, 76, 56
1, 174179, Control_c, 0, 64, 106
1, 174194, Control_c, 0, 64, 111
1, 174209, Control_c, 0, 64, 120
1, 174223, Control_c, 0, 64, 127
1, 174240, Note_on_c, 0, 75, 61
1, 174264, Note_on_c, 0, 67, 50
1, 174273, Note_off_c, 0, 75, 64
1, 174281, Note_off_c, 0, 29, 40
1, 174302, Note_off_c, 0, 67, 64
1, 174312, Note_off_c, 0, 33, 39
1, 174415, Note_on_c, 0, 66, 50
1, 174422, Note_on_c, 0, 74, 39
1, 174425, Note_on_c, 0, 76, 33
1, 174457, Note_off_c, 0, 66, 59
1, 174457, Note_off_c, 0, 76, 51
1, 174466, Note_off_c, 0, 74, 47
1, 174570, Note_on_c, 0, 69, 49
1, 174582, Note_on_c, 0, 65, 47
1, 174622, Note_off_c, 0, 69, 58
1, 174681, Note_on_c, 0, 57, 72
1, 174687, Note_off_c, 0, 65, 62
1, 174750, Control_c, 0, 64, 119
1, 174765, Control_c, 0, 64, 112
1, 174770, Note_on_c, 0, 67, 63
1, 174779, Control_c, 0, 64, 108
1, 174790, Note_on_c, 0, 64, 39
1, 174794, Control_c, 0, 64, 105
1, 174810, Control_c, 0, 64, 102
1, 174821, Note_off_c, 0, 64, 55
1, 174825, Control_c, 0, 64, 100
1, 174840, Control_c, 0, 64, 99
1, 174854, Control_c, 0, 64, 98
1, 174869, Control_c, 0, 64, 98
1, 174914, Note_off_c, 0, 67, 57
1, 174925, Note_on_c, 0, 66, 67
1, 174928, Note_on_c, 0, 56, 79
1, 174935, Note_on_c, 0, 63, 59
1, 174943, Control_c, 0, 64, 98
1, 174958, Control_c, 0, 64, 99
1, 174973, Control_c, 0, 64, 100
1, 174977, Note_off_c, 0, 63, 62
1, 174984, Note_off_c, 0, 57, 61
1, 174988, Control_c, 0, 64, 102
1, 174994, Note_off_c, 0, 66, 62
1, 175003, Control_c, 0, 64, 103
1, 175018, Control_c, 0, 64, 106
1, 175033, Control_c, 0, 64, 110
1, 175048, Control_c, 0, 64, 119
1, 175052, Note_on_c, 0, 65, 59
1, 175062, Control_c, 0, 64, 127
1, 175066, Note_on_c, 0, 62, 50
1, 175108, Note_off_c, 0, 65, 59
1, 175124, Note_off_c, 0, 62, 55
1, 175130, Note_off_c, 0, 56, 64
1, 175137, Note_on_c, 0, 55, 77
1, 175192, Note_on_c, 0, 57, 66
1, 175219, Note_off_c, 0, 55, 61
1, 175419, Note_on_c, 0, 45, 53
1, 175422, Note_on_c, 0, 38, 43
1, 175439, Control_c, 0, 64, 120
1, 175454, Control_c, 0, 64, 115
1, 175469, Control_c, 0, 64, 105
1, 175484, Control_c, 0, 64, 84
1, 175489, Note_on_c, 0, 53, 76
1, 175499, Control_c, 0, 64, 67
1, 175515, Control_c, 0, 64, 41
1, 175529, Control_c, 0, 64, 0
1, 175583, Note_off_c, 0, 57, 39
1, 175618, Control_c, 0, 64, 28
1, 175633, Control_c, 0, 64, 42
1, 175648, Control_c, 0, 64, 52
1, 175663, Control_c, 0, 64, 58
1, 175677, Control_c, 0, 64, 62
1, 175692, Control_c, 0, 64, 64
1, 175707, Control_c, 0, 64, 66
1, 175722, Control_c, 0, 64, 68
1, 175729, Note_on_c, 0, 56, 45
1, 175736, Control_c, 0, 64, 70
1, 175751, Control_c, 0, 64, 73
1, 175766, Control_c, 0, 64, 75
1, 175781, Control_c, 0, 64, 77
1, 175796, Control_c, 0, 64, 78
1, 175802, Note_off_c, 0, 53, 55
1, 175811, Control_c, 0, 64, 79
1, 175826, Control_c, 0, 64, 79
1, 175841, Control_c, 0, 64, 80
1, 175855, Control_c, 0, 64, 80
1, 175870, Control_c, 0, 64, 81
1, 175874, Note_on_c, 0, 50, 59
1, 175879, Note_off_c, 0, 56, 59
1, 175907, Control_c, 0, 64, 81
1, 175923, Note_off_c, 0, 45, 63
1, 175929, Note_on_c, 0, 55, 39
1, 175996, Control_c, 0, 64, 82
1, 176040, Control_c, 0, 64, 81
1, 176055, Control_c, 0, 64, 76
1, 176057, Note_on_c, 0, 54, 53
1, 176058, Note_off_c, 0, 55, 37
1, 176060, Note_off_c, 0, 50, 58
1, 176070, Control_c, 0, 64, 66
1, 176074, Note_on_c, 0, 45, 52
1, 176085, Control_c, 0, 64, 54
1, 176100, Control_c, 0, 64, 38
1, 176115, Control_c, 0, 64, 34
1, 176129, Control_c, 0, 64, 39
1, 176144, Control_c, 0, 64, 53
1, 176159, Control_c, 0, 64, 61
1, 176174, Control_c, 0, 64, 66
1, 176189, Control_c, 0, 64, 70
1, 176203, Control_c, 0, 64, 73
1, 176205, Note_off_c, 0, 54, 56
1, 176207, Note_on_c, 0, 53, 49
1, 176218, Control_c, 0, 64, 76
1, 176233, Control_c, 0, 64, 78
1, 176240, Note_off_c, 0, 53, 63
1, 176248, Control_c, 0, 64, 80
1, 176262, Control_c, 0, 64, 83
1, 176277, Control_c, 0, 64, 86
1, 176292, Control_c, 0, 64, 89
1, 176307, Control_c, 0, 64, 91
1, 176322, Control_c, 0, 64, 92
1, 176337, Control_c, 0, 64, 95
1, 176351, Control_c, 0, 64, 97
1, 176365, Note_on_c, 0, 50, 49
1, 176366, Control_c, 0, 64, 99
1, 176381, Control_c, 0, 64, 102
1, 176396, Control_c, 0, 64, 106
1, 176411, Control_c, 0, 64, 110
1, 176413, Note_off_c, 0, 45, 50
1, 176425, Control_c, 0, 64, 113
1, 176440, Control_c, 0, 64, 117
1, 176455, Control_c, 0, 64, 122
1, 176470, Control_c, 0, 64, 127
1, 176559, Note_off_c, 0, 50, 34
1, 176583, Note_on_c, 0, 45, 46
1, 176599, Note_on_c, 0, 81, 51
1, 176604, Note_on_c, 0, 77, 42
1, 176722, Note_off_c, 0, 81, 32
1, 176741, Note_on_c, 0, 80, 56
1, 176768, Note_on_c, 0, 72, 39
1, 176785, Note_off_c, 0, 77, 40
1, 176786, Note_off_c, 0, 80, 59
1, 176797, Note_off_c, 0, 72, 54
1, 176879, Note_on_c, 0, 79, 57
1, 176900, Note_off_c, 0, 38, 57
1, 176905, Note_on_c, 0, 71, 34
1, 176938, Note_off_c, 0, 45, 61
1, 176945, Note_off_c, 0, 71, 49
1, 176980, Note_off_c, 0, 79, 57
1, 176999, Note_on_c, 0, 77, 58
1, 177026, Note_on_c, 0, 69, 59
1, 177034, Note_off_c, 0, 77, 65
1, 177092, Note_off_c, 0, 69, 61
1, 177149, Note_on_c, 0, 71, 55
1, 177162, Note_on_c, 0, 68, 53
1, 177301, Note_on_c, 0, 62, 74
1, 177301, Note_off_c, 0, 71, 56
1, 177307, Note_off_c, 0, 68, 35
1, 177310, Note_on_c, 0, 67, 51
1, 177402, Poly_aftertouch_c, 0, 70, 127
1, 177429, Poly_aftertouch_c, 0, 70, 0
1, 177463, Control_c, 0, 64, 125
1, 177466, Note_off_c, 0, 67, 62
1, 177470, Note_on_c, 0, 69, 60
1, 177476, Note_on_c, 0, 61, 74
1, 177478, Control_c, 0, 64, 108
1, 177484, Note_on_c, 0, 66, 59
1, 177493, Control_c, 0, 64, 101
1, 177507, Control_c, 0, 64, 97
1, 177516, Note_off_c, 0, 62, 64
1, 177522, Control_c, 0, 64, 93
1, 177537, Control_c, 0, 64, 91
1, 177552, Control_c, 0, 64, 90
1, 177567, Control_c, 0, 64, 89
1, 177581, Control_c, 0, 64, 89
1, 177609, Note_off_c, 0, 69, 58
1, 177611, Control_c, 0, 64, 88
1, 177619, Note_on_c, 0, 68, 63
1, 177623, Note_on_c, 0, 60, 85
1, 177626, Control_c, 0, 64, 88
1, 177629, Note_on_c, 0, 65, 54
1, 177641, Control_c, 0, 64, 87
1, 177655, Note_off_c, 0, 61, 63
1, 177656, Control_c, 0, 64, 87
1, 177659, Note_off_c, 0, 66, 36
1, 177659, Note_off_c, 0, 68, 58
1, 177671, Control_c, 0, 64, 86
1, 177686, Control_c, 0, 64, 86
1, 177700, Control_c, 0, 64, 85
1, 177708, Note_off_c, 0, 65, 60
1, 177715, Control_c, 0, 64, 85
1, 177730, Control_c, 0, 64, 84
1, 177745, Control_c, 0, 64, 84
1, 177758, Note_on_c, 0, 59, 78
1, 177760, Control_c, 0, 64, 83
1, 177764, Note_on_c, 0, 67, 65
1, 177774, Note_on_c, 0, 64, 56
1, 177774, Control_c, 0, 64, 82
1, 177784, Note_off_c, 0, 60, 61
1, 177789, Control_c, 0, 64, 82
1, 177803, Control_c, 0, 64, 81
1, 177818, Control_c, 0, 64, 81
1, 177820, Note_off_c, 0, 64, 57
1, 177833, Control_c, 0, 64, 80
1, 177847, Control_c, 0, 64, 80
1, 177877, Control_c, 0, 64, 79
1, 177893, Control_c, 0, 64, 78
1, 177907, Note_off_c, 0, 59, 63
1, 177908, Control_c, 0, 64, 78
1, 177922, Control_c, 0, 64, 77
1, 177928, Note_on_c, 0, 57, 74
1, 177967, Control_c, 0, 64, 78
1, 177982, Control_c, 0, 64, 77
1, 177996, Control_c, 0, 64, 71
1, 178011, Control_c, 0, 64, 61
1, 178023, Note_on_c, 0, 65, 65
1, 178026, Note_off_c, 0, 67, 60
1, 178026, Control_c, 0, 64, 33
1, 178031, Note_on_c, 0, 62, 60
1, 178041, Control_c, 0, 64, 0
1, 178070, Control_c, 0, 64, 35
1, 178085, Control_c, 0, 64, 57
1, 178100, Control_c, 0, 64, 64
1, 178115, Control_c, 0, 64, 69
1, 178130, Control_c, 0, 64, 74
1, 178152, Control_c, 0, 64, 80
1, 178167, Control_c, 0, 64, 84
1, 178182, Control_c, 0, 64, 87
1, 178197, Control_c, 0, 64, 91
1, 178211, Control_c, 0, 64, 96
1, 178214, Note_off_c, 0, 57, 63
1, 178222, Note_on_c, 0, 50, 51
1, 178226, Control_c, 0, 64, 105
1, 178241, Control_c, 0, 64, 125
1, 178256, Control_c, 0, 64, 127
1, 178337, Poly_aftertouch_c, 0, 67, 127
1, 178407, Note_on_c, 0, 48, 53
1, 178409, Note_on_c, 0, 56, 81
1, 178450, Note_off_c, 0, 48, 63
1, 178452, Note_off_c, 0, 50, 26
1, 178492, Poly_aftertouch_c, 0, 67, 0
1, 178534, Poly_aftertouch_c, 0, 66, 127
1, 178643, Note_off_c, 0, 56, 61
1, 178732, Note_on_c, 0, 47, 45
1, 178739, Note_on_c, 0, 38, 30
1, 178779, Poly_aftertouch_c, 0, 61, 127
1, 178803, Note_on_c, 0, 55, 71
1, 178805, Control_c, 0, 64, 99
1, 178819, Control_c, 0, 64, 73
1, 178827, Note_off_c, 0, 65, 33
1, 178834, Control_c, 0, 64, 62
1, 178849, Control_c, 0, 64, 53
1, 178864, Control_c, 0, 64, 53
1, 178879, Control_c, 0, 64, 58
1, 178901, Control_c, 0, 64, 63
1, 178916, Control_c, 0, 64, 68
1, 178925, Poly_aftertouch_c, 0, 66, 0
1, 178931, Control_c, 0, 64, 76
1, 178945, Control_c, 0, 64, 83
1, 178960, Control_c, 0, 64, 88
1, 178975, Control_c, 0, 64, 92
1, 178990, Control_c, 0, 64, 95
1, 179005, Control_c, 0, 64, 99
1, 179009, Note_off_c, 0, 55, 57
1, 179020, Control_c, 0, 64, 107
1, 179034, Control_c, 0, 64, 127
1, 179036, Poly_aftertouch_c, 0, 61, 0
1, 179060, Note_on_c, 0, 69, 61
1, 179073, Note_on_c, 0, 65, 36
1, 179126, Note_off_c, 0, 65, 51
1, 179182, Note_off_c, 0, 69, 53
1, 179187, Note_off_c, 0, 62, 0
1, 179221, Note_on_c, 0, 53, 63
1, 179228, Note_on_c, 0, 60, 64
1, 179231, Note_on_c, 0, 68, 61
1, 179249, Poly_aftertouch_c, 0, 62, 0
1, 179284, Note_off_c, 0, 47, 52
1, 179303, Note_off_c, 0, 68, 57
1, 179324, Note_off_c, 0, 60, 61
1, 179404, Note_off_c, 0, 53, 54
1, 179451, Note_on_c, 0, 67, 66
1, 179462, Note_on_c, 0, 47, 61
1, 179510, Control_c, 0, 64, 85
1, 179524, Control_c, 0, 64, 66
1, 179539, Control_c, 0, 64, 51
1, 179545, Note_on_c, 0, 59, 3
1, 179554, Control_c, 0, 64, 44
1, 179568, Control_c, 0, 64, 46
1, 179583, Control_c, 0, 64, 56
1, 179588, Note_off_c, 0, 59, 48
1, 179598, Control_c, 0, 64, 63
1, 179613, Control_c, 0, 64, 67
1, 179628, Control_c, 0, 64, 71
1, 179636, Note_on_c, 0, 65, 57
1, 179650, Control_c, 0, 64, 76
1, 179650, Note_on_c, 0, 57, 63
1, 179665, Control_c, 0, 64, 79
1, 179674, Note_off_c, 0, 67, 61
1, 179680, Control_c, 0, 64, 81
1, 179688, Note_off_c, 0, 65, 60
1, 179691, Note_off_c, 0, 57, 64
1, 179694, Control_c, 0, 64, 82
1, 179709, Control_c, 0, 64, 84
1, 179724, Control_c, 0, 64, 87
1, 179739, Control_c, 0, 64, 91
1, 179754, Control_c, 0, 64, 100
1, 179769, Control_c, 0, 64, 127
1, 179780, Note_on_c, 0, 62, 64
1, 179800, Note_on_c, 0, 56, 65
1, 179816, Note_off_c, 0, 62, 63
1, 179838, Note_off_c, 0, 56, 62
1, 179853, Note_off_c, 0, 38, 48
1, 179868, Note_off_c, 0, 47, 61
1, 179939, Note_on_c, 0, 55, 71
1, 179942, Note_on_c, 0, 59, 65
1, 179993, Note_off_c, 0, 59, 50
1, 180087, Note_off_c, 0, 55, 54
1, 180090, Note_on_c, 0, 54, 61
1, 180146, Note_off_c, 0, 54, 59
1, 180187, Note_on_c, 0, 59, 87
1, 180193, Note_on_c, 0, 53, 67
1, 180275, Note_off_c, 0, 53, 60
1, 180319, Note_off_c, 0, 59, 61
1, 180387, Note_on_c, 0, 50, 51
1, 180413, Control_c, 0, 64, 98
1, 180415, Note_on_c, 0, 58, 88
1, 180428, Control_c, 0, 64, 71
1, 180443, Control_c, 0, 64, 58
1, 180458, Control_c, 0, 64, 54
1, 180473, Control_c, 0, 64, 58
1, 180488, Control_c, 0, 64, 64
1, 180503, Control_c, 0, 64, 76
1, 180518, Control_c, 0, 64, 104
1, 180532, Control_c, 0, 64, 127
1, 180555, Note_on_c, 0, 49, 66
1, 180564, Note_off_c, 0, 50, 59
1, 180596, Note_off_c, 0, 58, 62
1, 180597, Note_on_c, 0, 57, 87
1, 180625, Note_on_c, 0, 48, 64
1, 180651, Note_off_c, 0, 49, 50
1, 180693, Note_off_c, 0, 48, 62
1, 180738, Note_off_c, 0, 57, 62
1, 180746, Note_on_c, 0, 47, 63
1, 180775, Note_on_c, 0, 55, 92
1, 180798, Control_c, 0, 64, 92
1, 180813, Control_c, 0, 64, 63
1, 180828, Control_c, 0, 64, 41
1, 180829, Note_off_c, 0, 55, 65
1, 180840, Note_off_c, 0, 47, 58
1, 180843, Control_c, 0, 64, 49
1, 180858, Control_c, 0, 64, 62
1, 180872, Control_c, 0, 64, 80
1, 180881, Note_on_c, 0, 46, 68
1, 180887, Control_c, 0, 64, 127
1, 180958, Note_on_c, 0, 45, 62
1, 180959, Note_off_c, 0, 46, 54
1, 181018, Note_on_c, 0, 43, 62
1, 181057, Note_off_c, 0, 43, 63
1, 181087, Note_on_c, 0, 40, 59
1, 181098, Note_on_c, 0, 52, 91
1, 181126, Note_off_c, 0, 45, 63
1, 181150, Note_off_c, 0, 52, 69
1, 181162, Note_on_c, 0, 28, 79
1, 181171, Note_off_c, 0, 40, 62
1, 181195, Note_off_c, 0, 28, 64
1, 181423, Note_on_c, 0, 76, 62
1, 181428, Note_on_c, 0, 47, 91
1, 181444, Control_c, 0, 64, 96
1, 181445, Note_on_c, 0, 79, 76
1, 181459, Control_c, 0, 64, 66
1, 181474, Control_c, 0, 64, 45
1, 181489, Control_c, 0, 64, 42
1, 181503, Control_c, 0, 64, 52
1, 181518, Control_c, 0, 64, 66
1, 181533, Control_c, 0, 64, 81
1, 181547, Control_c, 0, 64, 127
1, 181592, Note_on_c, 0, 71, 75
1, 181606, Note_off_c, 0, 76, 65
1, 181609, Note_on_c, 0, 78, 66
1, 181611, Note_off_c, 0, 79, 63
1, 181640, Note_off_c, 0, 78, 66
1, 181645, Note_off_c, 0, 71, 63
1, 181705, Note_on_c, 0, 77, 77
1, 181743, Note_on_c, 0, 69, 51
1, 181766, Note_off_c, 0, 69, 59
1, 181776, Note_off_c, 0, 77, 63
1, 181852, Note_on_c, 0, 76, 73
1, 181858, Note_off_c, 0, 47, 63
1, 181860, Note_on_c, 0, 68, 84
1, 181883, Note_on_c, 0, 75, 39
1, 181905, Note_off_c, 0, 68, 60
1, 181913, Note_off_c, 0, 76, 62
1, 181932, Note_on_c, 0, 67, 33
1, 181983, Note_off_c, 0, 67, 0
1, 181994, Note_on_c, 0, 67, 52
1, 181997, Note_on_c, 0, 71, 74
1, 182001, Note_off_c, 0, 75, 40
1, 182064, Note_off_c, 0, 71, 64
1, 182092, Note_on_c, 0, 59, 92
1, 182095, Note_off_c, 0, 67, 64
1, 182195, Note_on_c, 0, 69, 77
1, 182198, Note_on_c, 0, 66, 72
1, 182287, Note_off_c, 0, 66, 60
1, 182338, Note_on_c, 0, 58, 96
1, 182352, Note_on_c, 0, 68, 77
1, 182368, Note_off_c, 0, 59, 62
1, 182392, Note_off_c, 0, 69, 58
1, 182414, Note_off_c, 0, 68, 64
1, 182464, Note_on_c, 0, 65, 71
1, 182464, Note_on_c, 0, 67, 65
1, 182534, Note_on_c, 0, 57, 93
1, 182539, Note_off_c, 0, 67, 62
1, 182549, Note_off_c, 0, 65, 62
1, 182551, Note_off_c, 0, 58, 63
1, 182579, Note_on_c, 0, 64, 75
1, 182605, Note_off_c, 0, 57, 65
1, 182611, Note_off_c, 0, 64, 65
1, 182766, Note_on_c, 0, 47, 78
1, 182778, Note_on_c, 0, 40, 68
1, 182847, Note_on_c, 0, 55, 93
1, 182882, Control_c, 0, 64, 76
1, 182897, Control_c, 0, 64, 47
1, 182912, Control_c, 0, 64, 0
1, 182971, Control_c, 0, 64, 54
1, 182986, Control_c, 0, 64, 67
1, 183001, Control_c, 0, 64, 79
1, 183016, Control_c, 0, 64, 105
1, 183031, Control_c, 0, 64, 127
1, 183052, Note_on_c, 0, 59, 80
1, 183054, Note_off_c, 0, 55, 63
1, 183184, Note_on_c, 0, 52, 90
1, 183204, Note_on_c, 0, 58, 81
1, 183205, Note_off_c, 0, 59, 65
1, 183223, Note_off_c, 0, 47, 62
1, 183253, Note_off_c, 0, 58, 64
1, 183338, Note_off_c, 0, 52, 63
1, 183356, Control_c, 0, 64, 107
1, 183371, Control_c, 0, 64, 73
1, 183380, Note_on_c, 0, 47, 91
1, 183393, Control_c, 0, 64, 63
1, 183399, Note_on_c, 0, 71, 89
1, 183408, Control_c, 0, 64, 65
1, 183423, Control_c, 0, 64, 69
1, 183438, Control_c, 0, 64, 81
1, 183445, Note_off_c, 0, 40, 63
1, 183453, Control_c, 0, 64, 127
1, 183537, Note_on_c, 0, 55, 83
1, 183543, Note_on_c, 0, 70, 66
1, 183559, Note_off_c, 0, 71, 57
1, 183561, Note_off_c, 0, 55, 66
1, 183574, Note_off_c, 0, 47, 64
1, 183629, Poly_aftertouch_c, 0, 44, 0
1, 183649, Poly_aftertouch_c, 0, 44, 0
1, 183669, Note_on_c, 0, 28, 82
1, 183674, Note_off_c, 0, 70, 64
1, 183680, Note_on_c, 0, 69, 78
1, 183788, Note_on_c, 0, 40, 90
1, 183795, Note_on_c, 0, 30, 32
1, 183803, Note_off_c, 0, 28, 62
1, 183807, Note_on_c, 0, 67, 78
1, 183838, Note_off_c, 0, 40, 65
1, 183842, Note_off_c, 0, 30, 54
1, 183847, Note_off_c, 0, 69, 64
1, 183862, Note_off_c, 0, 67, 63
1, 183952, Note_on_c, 0, 47, 79
1, 183978, Note_on_c, 0, 85, 81
1, 184014, Note_on_c, 0, 75, 36
1, 184033, Note_off_c, 0, 47, 59
1, 184043, Note_off_c, 0, 75, 48
1, 184048, Note_off_c, 0, 85, 54
1, 184071, Note_on_c, 0, 55, 89
1, 184086, Note_on_c, 0, 84, 80
1, 184091, Note_on_c, 0, 79, 76
1, 184103, Note_off_c, 0, 55, 64
1, 184266, Note_on_c, 0, 83, 75
1, 184285, Note_on_c, 0, 76, 74
1, 184309, Note_off_c, 0, 84, 57
1, 184319, Note_on_c, 0, 62, 93
1, 184321, Control_c, 0, 64, 111
1, 184336, Control_c, 0, 64, 66
1, 184344, Note_off_c, 0, 79, 64
1, 184351, Control_c, 0, 64, 0
1, 184359, Note_off_c, 0, 83, 65
1, 184395, Control_c, 0, 64, 48
1, 184410, Control_c, 0, 64, 67
1, 184417, Note_off_c, 0, 76, 64
1, 184425, Control_c, 0, 64, 81
1, 184439, Control_c, 0, 64, 120
1, 184454, Control_c, 0, 64, 127
1, 184503, Note_on_c, 0, 55, 79
1, 184511, Note_on_c, 0, 82, 76
1, 184595, Note_off_c, 0, 82, 62
1, 184643, Note_on_c, 0, 79, 74
1, 184651, Note_on_c, 0, 61, 93
1, 184678, Note_off_c, 0, 62, 62
1, 184713, Note_off_c, 0, 55, 61
1, 184783, Note_on_c, 0, 60, 89
1, 184786, Note_on_c, 0, 76, 80
1, 184788, Note_off_c, 0, 61, 64
1, 184795, Note_off_c, 0, 79, 62
1, 184824, Note_off_c, 0, 60, 66
1, 184834, Note_off_c, 0, 76, 65
1, 184940, Note_on_c, 0, 74, 68
1, 184953, Note_on_c, 0, 48, 66
1, 185066, Note_off_c, 0, 74, 58
1, 185078, Note_on_c, 0, 40, 77
1, 185078, Note_on_c, 0, 73, 73
1, 185084, Note_on_c, 0, 55, 90
1, 185101, Note_off_c, 0, 48, 60
1, 185233, Note_off_c, 0, 73, 65
1, 185248, Control_c, 0, 64, 76
1, 185262, Control_c, 0, 64, 57
1, 185277, Control_c, 0, 64, 34
1, 185291, Note_on_c, 0, 48, 83
1, 185292, Control_c, 0, 64, 33
1, 185294, Note_on_c, 0, 72, 63
1, 185307, Control_c, 0, 64, 41
1, 185322, Control_c, 0, 64, 56
1, 185336, Control_c, 0, 64, 64
1, 185351, Control_c, 0, 64, 73
1, 185355, Note_off_c, 0, 55, 63
1, 185366, Control_c, 0, 64, 88
1, 185381, Control_c, 0, 64, 127
1, 185415, Note_off_c, 0, 48, 64
1, 185431, Note_off_c, 0, 40, 63
1, 185441, Note_off_c, 0, 72, 64
1, 185460, Note_on_c, 0, 74, 71
1, 185479, Note_on_c, 0, 71, 66
1, 185571, Note_off_c, 0, 71, 63
1, 185610, Note_on_c, 0, 70, 78
1, 185612, Note_on_c, 0, 28, 58
1, 185624, Note_on_c, 0, 73, 76
1, 185632, Note_off_c, 0, 74, 62
1, 185672, Note_off_c, 0, 70, 62
1, 185684, Note_off_c, 0, 73, 63
1, 185704, Note_off_c, 0, 28, 62
1, 185708, Note_on_c, 0, 40, 71
1, 185739, Note_off_c, 0, 40, 65
1, 185752, Note_on_c, 0, 72, 87
1, 185780, Note_on_c, 0, 67, 63
1, 185889, Note_on_c, 0, 55, 80
1, 185894, Note_on_c, 0, 71, 84
1, 185913, Note_off_c, 0, 67, 58
1, 185973, Note_off_c, 0, 72, 57
1, 185982, Control_c, 0, 64, 87
1, 185997, Control_c, 0, 64, 61
1, 186011, Control_c, 0, 64, 0
1, 186051, Note_on_c, 0, 62, 89
1, 186053, Note_on_c, 0, 70, 82
1, 186056, Control_c, 0, 64, 35
1, 186071, Control_c, 0, 64, 58
1, 186086, Control_c, 0, 64, 68
1, 186101, Control_c, 0, 64, 82
1, 186101, Note_on_c, 0, 64, 43
1, 186110, Note_off_c, 0, 71, 57
1, 186116, Control_c, 0, 64, 127
1, 186131, Note_off_c, 0, 64, 54
1, 186250, Note_on_c, 0, 61, 92
1, 186264, Control_c, 0, 64, 81
1, 186271, Note_on_c, 0, 67, 84
1, 186275, Note_off_c, 0, 55, 64
1, 186279, Control_c, 0, 64, 56
1, 186288, Note_off_c, 0, 62, 60
1, 186293, Control_c, 0, 64, 24
1, 186300, Note_off_c, 0, 70, 64
1, 186308, Control_c, 0, 64, 27
1, 186323, Control_c, 0, 64, 47
1, 186327, Note_off_c, 0, 67, 65
1, 186337, Control_c, 0, 64, 62
1, 186352, Control_c, 0, 64, 71
1, 186367, Control_c, 0, 64, 97
1, 186390, Control_c, 0, 64, 127
1, 186457, Note_off_c, 0, 61, 60
1, 186469, Note_on_c, 0, 52, 81
1, 186507, Note_on_c, 0, 64, 68
1, 186617, Note_off_c, 0, 64, 0
1, 186617, Note_on_c, 0, 60, 88
1, 186631, Note_on_c, 0, 63, 73
1, 186686, Poly_aftertouch_c, 0, 64, 0
1, 186687, Note_off_c, 0, 60, 65
1, 186700, Note_off_c, 0, 63, 62
1, 186763, Note_off_c, 0, 52, 64
1, 186765, Note_on_c, 0, 59, 93
1, 186773, Note_on_c, 0, 62, 85
1, 186807, Note_off_c, 0, 59, 67
1, 186922, Note_on_c, 0, 38, 68
1, 186936, Note_on_c, 0, 61, 85
1, 186955, Note_off_c, 0, 38, 61
1, 186955, Note_off_c, 0, 62, 60
1, 187070, Note_on_c, 0, 60, 77
1, 187073, Note_on_c, 0, 55, 98
1, 187088, Note_off_c, 0, 61, 61
1, 187245, Note_off_c, 0, 60, 62
1, 187284, Note_on_c, 0, 59, 80
1, 187310, Note_on_c, 0, 49, 96
1, 187330, Control_c, 0, 64, 78
1, 187345, Control_c, 0, 64, 45
1, 187358, Note_off_c, 0, 55, 60
1, 187360, Control_c, 0, 64, 0
1, 187405, Control_c, 0, 64, 51
1, 187420, Control_c, 0, 64, 65
1, 187434, Control_c, 0, 64, 78
1, 187444, Note_off_c, 0, 59, 54
1, 187449, Control_c, 0, 64, 127
1, 187506, Note_on_c, 0, 74, 81
1, 187508, Note_on_c, 0, 55, 84
1, 187638, Note_on_c, 0, 52, 83
1, 187641, Note_on_c, 0, 73, 90
1, 187668, Note_off_c, 0, 74, 59
1, 187684, Note_off_c, 0, 55, 56
1, 187720, Note_off_c, 0, 73, 63
1, 187723, Note_off_c, 0, 52, 65
1, 187776, Note_on_c, 0, 72, 95
1, 187806, Note_on_c, 0, 51, 88
1, 187857, Note_off_c, 0, 49, 60
1, 187905, Note_off_c, 0, 51, 64
1, 187922, Note_on_c, 0, 71, 96
1, 187932, Control_c, 0, 64, 97
1, 187937, Note_on_c, 0, 50, 93
1, 187941, Note_off_c, 0, 72, 56
1, 187946, Note_on_c, 0, 43, 81
1, 187946, Control_c, 0, 64, 65
1, 187961, Control_c, 0, 64, 54
1, 187976, Control_c, 0, 64, 55
1, 187991, Control_c, 0, 64, 59
1, 188006, Control_c, 0, 64, 65
1, 188021, Control_c, 0, 64, 74
1, 188036, Control_c, 0, 64, 95
1, 188050, Control_c, 0, 64, 127
1, 188056, Note_off_c, 0, 50, 58
1, 188057, Note_on_c, 0, 47, 88
1, 188059, Note_on_c, 0, 67, 95
1, 188059, Note_off_c, 0, 71, 61
1, 188068, Note_off_c, 0, 43, 62
1, 188072, Note_on_c, 0, 42, 84
1, 188106, Note_off_c, 0, 47, 65
1, 188117, Note_off_c, 0, 67, 66
1, 188134, Note_off_c, 0, 42, 64
1, 188275, Note_on_c, 0, 46, 99
1, 188278, Note_on_c, 0, 39, 87
1, 188290, Note_on_c, 0, 86, 102
1, 188423, Note_off_c, 0, 86, 65
1, 188429, Note_off_c, 0, 46, 59
1, 188473, Note_on_c, 0, 85, 103
1, 188479, Note_on_c, 0, 47, 85
1, 188483, Note_on_c, 0, 45, 87
1, 188500, Note_off_c, 0, 39, 58
1, 188576, Note_off_c, 0, 85, 62
1, 188599, Note_off_c, 0, 45, 57
1, 188602, Note_on_c, 0, 41, 72
1, 188610, Note_off_c, 0, 47, 57
1, 188614, Note_on_c, 0, 44, 79
1, 188624, Note_on_c, 0, 84, 103
1, 188645, Note_off_c, 0, 44, 66
1, 188647, Note_off_c, 0, 41, 65
1, 188840, Note_off_c, 0, 84, 65
1, 188864, Note_on_c, 0, 43, 94
1, 188864, Note_on_c, 0, 29, 78
1, 188873, Control_c, 0, 64, 65
1, 188883, Note_on_c, 0, 83, 102
1, 188884, Note_on_c, 0, 86, 94
1, 188888, Control_c, 0, 64, 0
1, 188918, Control_c, 0, 64, 41
1, 188932, Control_c, 0, 64, 64
1, 188936, Note_off_c, 0, 29, 62
1, 188947, Control_c, 0, 64, 81
1, 188960, Note_off_c, 0, 43, 64
1, 188962, Control_c, 0, 64, 127
1, 189020, Note_off_c, 0, 83, 62
1, 189068, Note_on_c, 0, 79, 83
1, 189088, Note_on_c, 0, 50, 76
1, 189100, Note_on_c, 0, 85, 81
1, 189129, Note_off_c, 0, 86, 64
1, 189165, Note_off_c, 0, 85, 66
1, 189177, Note_off_c, 0, 79, 63
1, 189188, Note_off_c, 0, 50, 60
1, 189216, Note_on_c, 0, 40, 84
1, 189219, Note_on_c, 0, 84, 95
1, 189225, Note_on_c, 0, 76, 80
1, 189235, Note_on_c, 0, 77, 80
1, 189254, Note_off_c, 0, 77, 60
1, 189262, Note_off_c, 0, 76, 64
1, 189264, Note_on_c, 0, 79, 37
1, 189269, Note_off_c, 0, 40, 64
1, 189308, Note_off_c, 0, 84, 65
1, 189317, Note_off_c, 0, 79, 64
1, 189348, Note_on_c, 0, 83, 92
1, 189350, Note_on_c, 0, 55, 78
1, 189356, Note_on_c, 0, 75, 99
1, 189377, Control_c, 0, 64, 91
1, 189399, Note_off_c, 0, 83, 67
1, 189399, Control_c, 0, 64, 82
1, 189414, Control_c, 0, 64, 85
1, 189425, Note_off_c, 0, 75, 65
1, 189429, Control_c, 0, 64, 94
1, 189443, Control_c, 0, 64, 127
1, 189445, Note_off_c, 0, 55, 55
1, 189451, Note_on_c, 0, 47, 77
1, 189496, Note_on_c, 0, 79, 85
1, 189498, Note_on_c, 0, 74, 91
1, 189502, Note_off_c, 0, 47, 63
1, 189580, Note_off_c, 0, 74, 63
1, 189597, Note_on_c, 0, 72, 85
1, 189608, Note_on_c, 0, 76, 67
1, 189609, Note_on_c, 0, 61, 83
1, 189609, Note_on_c, 0, 77, 63
1, 189612, Note_off_c, 0, 79, 64
1, 189636, Note_off_c, 0, 76, 68
1, 189636, Note_off_c, 0, 77, 64
1, 189642, Note_off_c, 0, 72, 64
1, 189699, Note_on_c, 0, 51, 83
1, 189738, Note_on_c, 0, 70, 88
1, 189741, Note_on_c, 0, 73, 88
1, 189754, Control_c, 0, 64, 87
1, 189769, Control_c, 0, 64, 65
1, 189771, Note_off_c, 0, 61, 60
1, 189785, Control_c, 0, 64, 53
1, 189800, Control_c, 0, 64, 55
1, 189811, Note_off_c, 0, 51, 64
1, 189815, Control_c, 0, 64, 62
1, 189826, Note_off_c, 0, 73, 62
1, 189829, Control_c, 0, 64, 69
1, 189844, Control_c, 0, 64, 82
1, 189853, Note_off_c, 0, 70, 61
1, 189859, Control_c, 0, 64, 127
1, 189861, Note_on_c, 0, 67, 79
1, 189882, Note_on_c, 0, 72, 82
1, 189884, Note_on_c, 0, 64, 73
1, 189905, Control_c, 0, 64, 105
1, 189919, Control_c, 0, 64, 84
1, 189934, Control_c, 0, 64, 76
1, 189964, Control_c, 0, 64, 78
1, 189978, Control_c, 0, 64, 83
1, 189993, Control_c, 0, 64, 88
1, 189994, Note_on_c, 0, 55, 77
1, 189997, Note_on_c, 0, 71, 85
1, 190008, Control_c, 0, 64, 91
1, 190038, Note_off_c, 0, 64, 65
1, 190038, Control_c, 0, 64, 92
1, 190049, Note_off_c, 0, 67, 60
1, 190052, Control_c, 0, 64, 96
1, 190060, Note_off_c, 0, 72, 61
1, 190067, Control_c, 0, 64, 105
1, 190076, Note_off_c, 0, 71, 62
1, 190082, Control_c, 0, 64, 127
1, 190104, Note_off_c, 0, 55, 62
1, 190120, Note_on_c, 0, 70, 87
1, 190121, Note_on_c, 0, 67, 80
1, 190140, Note_on_c, 0, 63, 71
1, 190155, Note_off_c, 0, 70, 64
1, 190167, Note_off_c, 0, 63, 66
1, 190174, Note_off_c, 0, 67, 59
1, 190277, Note_on_c, 0, 67, 92
1, 190279, Note_on_c, 0, 58, 71
1, 190282, Control_c, 0, 64, 89
1, 190284, Note_on_c, 0, 62, 82
1, 190290, Poly_aftertouch_c, 0, 60, 127
1, 190297, Control_c, 0, 64, 67
1, 190312, Control_c, 0, 64, 54
1, 190327, Control_c, 0, 64, 50
1, 190341, Control_c, 0, 64, 55
1, 190343, Poly_aftertouch_c, 0, 60, 0
1, 190356, Control_c, 0, 64, 63
1, 190367, Note_off_c, 0, 62, 63
1, 190371, Control_c, 0, 64, 70
1, 190385, Control_c, 0, 64, 81
1, 190400, Control_c, 0, 64, 97
1, 190415, Note_off_c, 0, 58, 60
1, 190415, Control_c, 0, 64, 127
1, 190449, Note_on_c, 0, 64, 66
1, 190452, Note_on_c, 0, 66, 81
1, 190457, Note_on_c, 0, 61, 80
1, 190460, Note_off_c, 0, 67, 59
1, 190464, Note_on_c, 0, 60, 10
1, 190517, Note_off_c, 0, 60, 44
1, 190587, Note_on_c, 0, 67, 81
1, 190587, Note_off_c, 0, 66, 60
1, 190588, Note_off_c, 0, 61, 37
1, 190593, Control_c, 0, 64, 99
1, 190594, Note_on_c, 0, 58, 69
1, 190600, Note_on_c, 0, 62, 74
1, 190608, Control_c, 0, 64, 74
1, 190623, Control_c, 0, 64, 63
1, 190638, Control_c, 0, 64, 61
1, 190652, Control_c, 0, 64, 63
1, 190667, Control_c, 0, 64, 67
1, 190683, Control_c, 0, 64, 74
1, 190697, Control_c, 0, 64, 83
1, 190704, Note_off_c, 0, 64, 0
1, 190712, Control_c, 0, 64, 93
1, 190713, Note_on_c, 0, 61, 62
1, 190718, Note_on_c, 0, 64, 44
1, 190722, Note_on_c, 0, 68, 66
1, 190727, Control_c, 0, 64, 100
1, 190737, Note_off_c, 0, 67, 61
1, 190742, Control_c, 0, 64, 102
1, 190751, Note_off_c, 0, 58, 50
1, 190787, Control_c, 0, 64, 103
1, 190801, Control_c, 0, 64, 105
1, 190816, Control_c, 0, 64, 107
1, 190820, Note_off_c, 0, 61, 48
1, 190831, Note_off_c, 0, 62, 0
1, 190831, Control_c, 0, 64, 108
1, 190848, Note_on_c, 0, 67, 78
1, 190858, Note_off_c, 0, 68, 59
1, 190860, Note_on_c, 0, 62, 27
1, 190871, Note_on_c, 0, 58, 65
1, 190902, Note_off_c, 0, 64, 30
1, 190942, Control_c, 0, 64, 108
1, 190957, Control_c, 0, 64, 110
1, 190987, Control_c, 0, 64, 100
1, 191002, Control_c, 0, 64, 83
1, 191009, Note_on_c, 0, 69, 62
1, 191010, Note_on_c, 0, 65, 68
1, 191015, Note_on_c, 0, 60, 64
1, 191016, Control_c, 0, 64, 69
1, 191016, Note_off_c, 0, 67, 57
1, 191031, Control_c, 0, 64, 62
1, 191031, Note_off_c, 0, 58, 49
1, 191061, Control_c, 0, 64, 64
1, 191076, Control_c, 0, 64, 68
1, 191090, Control_c, 0, 64, 73
1, 191105, Control_c, 0, 64, 80
1, 191120, Control_c, 0, 64, 85
1, 191132, Note_off_c, 0, 69, 56
1, 191135, Control_c, 0, 64, 86
1, 191142, Note_off_c, 0, 65, 62
1, 191151, Note_on_c, 0, 67, 66
1, 191163, Note_off_c, 0, 62, 0
1, 191163, Note_on_c, 0, 62, 22
1, 191164, Control_c, 0, 64, 85
1, 191171, Note_on_c, 0, 58, 61
1, 191183, Note_off_c, 0, 60, 56
1, 191239, Note_off_c, 0, 67, 61
1, 191282, Control_c, 0, 64, 85
1, 191297, Control_c, 0, 64, 84
1, 191303, Note_on_c, 0, 60, 58
1, 191309, Note_on_c, 0, 66, 63
1, 191312, Note_on_c, 0, 70, 61
1, 191335, Note_off_c, 0, 58, 37
1, 191343, Note_off_c, 0, 66, 65
1, 191356, Control_c, 0, 64, 84
1, 191384, Note_off_c, 0, 70, 57
1, 191415, Note_off_c, 0, 60, 55
1, 191476, Control_c, 0, 64, 82
1, 191489, Note_on_c, 0, 58, 53
1, 191491, Control_c, 0, 64, 72
1, 191496, Note_on_c, 0, 70, 68
1, 191505, Control_c, 0, 64, 63
1, 191514, Note_on_c, 0, 65, 49
1, 191520, Control_c, 0, 64, 55
1, 191535, Note_off_c, 0, 62, 27
1, 191535, Control_c, 0, 64, 54
1, 191550, Control_c, 0, 64, 57
1, 191565, Control_c, 0, 64, 61
1, 191580, Control_c, 0, 64, 65
1, 191595, Control_c, 0, 64, 68
1, 191610, Control_c, 0, 64, 70
1, 191631, Control_c, 0, 64, 72
1, 191646, Control_c, 0, 64, 73
1, 191658, Note_off_c, 0, 58, 37
1, 191658, Note_off_c, 0, 65, 57
1, 191661, Control_c, 0, 64, 74
1, 191670, Note_off_c, 0, 70, 56
1, 191676, Control_c, 0, 64, 75
1, 191683, Note_on_c, 0, 72, 52
1, 191691, Control_c, 0, 64, 76
1, 191695, Note_on_c, 0, 67, 48
1, 191702, Note_on_c, 0, 64, 49
1, 191705, Control_c, 0, 64, 77
1, 191720, Control_c, 0, 64, 79
1, 191735, Control_c, 0, 64, 80
1, 191750, Control_c, 0, 64, 81
1, 191809, Control_c, 0, 64, 81
1, 191815, Note_off_c, 0, 72, 39
1, 191824, Control_c, 0, 64, 80
1, 191895, Note_off_c, 0, 67, 36
1, 191917, Note_on_c, 0, 70, 58
1, 191926, Note_on_c, 0, 58, 46
1, 191928, Control_c, 0, 64, 80
1, 191943, Control_c, 0, 64, 76
1, 191946, Note_on_c, 0, 65, 41
1, 191957, Control_c, 0, 64, 67
1, 191972, Control_c, 0, 64, 61
1, 191987, Control_c, 0, 64, 57
1, 192002, Control_c, 0, 64, 57
1, 192010, Note_off_c, 0, 64, 37
1, 192017, Control_c, 0, 64, 60
1, 192031, Control_c, 0, 64, 62
1, 192046, Control_c, 0, 64, 65
1, 192061, Control_c, 0, 64, 67
1, 192076, Control_c, 0, 64, 69
1, 192091, Control_c, 0, 64, 70
1, 192105, Control_c, 0, 64, 72
1, 192120, Control_c, 0, 64, 73
1, 192135, Control_c, 0, 64, 75
1, 192143, Note_off_c, 0, 70, 53
1, 192148, Note_off_c, 0, 58, 37
1, 192150, Control_c, 0, 64, 77
1, 192164, Control_c, 0, 64, 80
1, 192179, Control_c, 0, 64, 85
1, 192194, Control_c, 0, 64, 92
1, 192209, Control_c, 0, 64, 96
1, 192224, Control_c, 0, 64, 91
1, 192226, Note_on_c, 0, 73, 39
1, 192233, Note_on_c, 0, 68, 40
1, 192236, Note_on_c, 0, 64, 45
1, 192239, Control_c, 0, 64, 79
1, 192253, Control_c, 0, 64, 69
1, 192268, Control_c, 0, 64, 65
1, 192299, Control_c, 0, 64, 67
1, 192314, Control_c, 0, 64, 70
1, 192328, Control_c, 0, 64, 77
1, 192343, Control_c, 0, 64, 83
1, 192358, Control_c, 0, 64, 88
1, 192396, Control_c, 0, 64, 87
1, 192397, Note_off_c, 0, 65, 8
1, 192410, Control_c, 0, 64, 87
1, 192443, Note_off_c, 0, 73, 27
1, 192469, Control_c, 0, 64, 87
1, 192484, Control_c, 0, 64, 87
1, 192499, Control_c, 0, 64, 82
1, 192514, Control_c, 0, 64, 71
1, 192528, Control_c, 0, 64, 64
1, 192537, Note_off_c, 0, 68, 34
1, 192543, Control_c, 0, 64, 61
1, 192558, Note_on_c, 0, 58, 38
1, 192558, Control_c, 0, 64, 62
1, 192561, Note_on_c, 0, 70, 54
1, 192565, Note_on_c, 0, 65, 21
1, 192573, Control_c, 0, 64, 64
1, 192587, Control_c, 0, 64, 68
1, 192598, Note_off_c, 0, 64, 0
1, 192602, Control_c, 0, 64, 72
1, 192617, Control_c, 0, 64, 79
1, 192632, Control_c, 0, 64, 83
1, 192635, Poly_aftertouch_c, 0, 64, 127
1, 192647, Control_c, 0, 64, 86
1, 192653, Note_off_c, 0, 58, 52
1, 192662, Control_c, 0, 64, 87
1, 192669, Note_off_c, 0, 65, 49
1, 192712, Note_off_c, 0, 70, 62
1, 192751, Control_c, 0, 64, 87
1, 192775, Poly_aftertouch_c, 0, 64, 0
1, 192957, Control_c, 0, 64, 88
1, 192972, Control_c, 0, 64, 89
1, 192987, Control_c, 0, 64, 92
1, 193002, Control_c, 0, 64, 93
1, 193017, Control_c, 0, 64, 91
1, 193031, Control_c, 0, 64, 81
1, 193037, Note_on_c, 0, 74, 41
1, 193046, Control_c, 0, 64, 70
1, 193057, Note_on_c, 0, 69, 36
1, 193061, Control_c, 0, 64, 63
1, 193076, Control_c, 0, 64, 61
1, 193077, Note_on_c, 0, 66, 29
1, 193091, Control_c, 0, 64, 63
1, 193106, Control_c, 0, 64, 66
1, 193129, Control_c, 0, 64, 70
1, 193130, Note_off_c, 0, 74, 62
1, 193144, Control_c, 0, 64, 78
1, 193158, Control_c, 0, 64, 86
1, 193173, Control_c, 0, 64, 95
1, 193188, Control_c, 0, 64, 100
1, 193198, Note_off_c, 0, 66, 53
1, 193202, Control_c, 0, 64, 101
1, 193217, Control_c, 0, 64, 101
1, 193232, Control_c, 0, 64, 102
1, 193247, Control_c, 0, 64, 102
1, 193262, Control_c, 0, 64, 104
1, 193274, Note_off_c, 0, 69, 40
1, 193276, Control_c, 0, 64, 106
1, 193291, Control_c, 0, 64, 107
1, 193336, Control_c, 0, 64, 107
1, 193350, Control_c, 0, 64, 106
1, 193365, Control_c, 0, 64, 106
1, 193395, Control_c, 0, 64, 105
1, 193440, Control_c, 0, 64, 104
1, 193455, Control_c, 0, 64, 104
1, 193470, Control_c, 0, 64, 103
1, 193484, Control_c, 0, 64, 102
1, 193499, Control_c, 0, 64, 102
1, 193574, Control_c, 0, 64, 101
1, 193589, Control_c, 0, 64, 101
1, 193603, Control_c, 0, 64, 100
1, 193618, Control_c, 0, 64, 100
1, 193923, Control_c, 0, 64, 100
1, 193938, Control_c, 0, 64, 101
1, 193982, Control_c, 0, 64, 101
1, 193985, Note_on_c, 0, 79, 52
1, 193997, Control_c, 0, 64, 100
1, 194012, Control_c, 0, 64, 88
1, 194019, Note_on_c, 0, 63, 30
1, 194021, Note_on_c, 0, 75, 28
1, 194022, Note_on_c, 0, 70, 36
1, 194024, Note_on_c, 0, 67, 24
1, 194026, Control_c, 0, 64, 72
1, 194041, Control_c, 0, 64, 61
1, 194056, Control_c, 0, 64, 46
1, 194071, Control_c, 0, 64, 38
1, 194086, Control_c, 0, 64, 38
1, 194100, Control_c, 0, 64, 50
1, 194115, Control_c, 0, 64, 59
1, 194130, Control_c, 0, 64, 63
1, 194145, Control_c, 0, 64, 66
1, 194160, Control_c, 0, 64, 68
1, 194174, Control_c, 0, 64, 69
1, 194189, Control_c, 0, 64, 71
1, 194204, Control_c, 0, 64, 73
1, 194219, Control_c, 0, 64, 76
1, 194233, Control_c, 0, 64, 80
1, 194248, Control_c, 0, 64, 87
1, 194263, Control_c, 0, 64, 95
1, 194278, Control_c, 0, 64, 109
1, 194293, Control_c, 0, 64, 127
1, 194326, Note_off_c, 0, 70, 58
1, 194357, Note_off_c, 0, 75, 35
1, 194447, Note_off_c, 0, 63, 41
1, 194494, Note_off_c, 0, 67, 32
1, 194523, Note_off_c, 0, 79, 53
1, 194582, Note_on_c, 0, 60, 34
1, 194588, Note_on_c, 0, 72, 37
1, 194591, Note_on_c, 0, 77, 42
1, 194634, Note_off_c, 0, 60, 58
1, 194635, Note_off_c, 0, 77, 60
1, 194686, Poly_aftertouch_c, 0, 68, 0
1, 194729, Note_off_c, 0, 72, 29
1, 194745, Note_on_c, 0, 79, 55
1, 194746, Control_c, 0, 64, 95
1, 194760, Control_c, 0, 64, 70
1, 194772, Note_on_c, 0, 67, 32
1, 194775, Note_on_c, 0, 70, 36
1, 194775, Control_c, 0, 64, 58
1, 194778, Note_on_c, 0, 75, 36
1, 194787, Note_on_c, 0, 63, 33
1, 194790, Control_c, 0, 64, 52
1, 194805, Control_c, 0, 64, 54
1, 194820, Control_c, 0, 64, 61
1, 194835, Control_c, 0, 64, 66
1, 194849, Control_c, 0, 64, 74
1, 194864, Control_c, 0, 64, 84
1, 194866, Note_off_c, 0, 75, 63
1, 194871, Note_off_c, 0, 79, 66
1, 194872, Note_off_c, 0, 63, 60
1, 194879, Control_c, 0, 64, 94
1, 194889, Note_off_c, 0, 70, 50
1, 194894, Note_off_c, 0, 67, 58
1, 194894, Control_c, 0, 64, 104
1, 194909, Control_c, 0, 64, 119
1, 194924, Control_c, 0, 64, 127
1, 195170, Note_on_c, 0, 67, 29
1, 195206, Note_on_c, 0, 79, 55
1, 195216, Note_on_c, 0, 70, 29
1, 195220, Note_on_c, 0, 63, 39
1, 195246, Note_on_c, 0, 75, 12
1, 195267, Note_off_c, 0, 70, 60
1, 195295, Note_off_c, 0, 67, 62
1, 195312, Note_off_c, 0, 63, 58
1, 195333, Note_off_c, 0, 79, 63
1, 195354, Note_off_c, 0, 75, 28
1, 195890, Note_on_c, 0, 55, 10
1, 195902, Note_on_c, 0, 48, 17
1, 196016, Note_on_c, 0, 63, 23
1, 196027, Note_off_c, 0, 48, 49
1, 196042, Note_off_c, 0, 55, 47
1, 196281, Note_on_c, 0, 75, 44
1, 196337, Note_off_c, 0, 63, 37
1, 196445, Note_off_c, 0, 75, 56
1, 196473, Note_on_c, 0, 82, 46
1, 196502, Note_on_c, 0, 70, 41
1, 196505, Note_off_c, 0, 82, 65
1, 196507, Note_on_c, 0, 63, 9
1, 196635, Note_off_c, 0, 70, 37
1, 196662, Note_on_c, 0, 75, 43
1, 196678, Note_off_c, 0, 63, 20
1, 196856, Note_on_c, 0, 63, 37
1, 196890, Note_off_c, 0, 75, 32
1, 197076, Note_on_c, 0, 75, 41
1, 197106, Note_off_c, 0, 63, 33
1, 197267, Note_off_c, 0, 75, 37
1, 197330, Note_on_c, 0, 82, 40
1, 197339, Note_on_c, 0, 70, 39
1, 197350, Note_on_c, 0, 63, 15
1, 197385, Note_off_c, 0, 82, 58
1, 197574, Note_on_c, 0, 75, 44
1, 197598, Note_off_c, 0, 70, 42
1, 197611, Note_off_c, 0, 75, 62
1, 197680, Note_off_c, 0, 63, 39
1, 198117, Note_on_c, 0, 55, 27
1, 198136, Note_on_c, 0, 67, 43
1, 198141, Note_on_c, 0, 58, 26
1, 198145, Note_on_c, 0, 51, 39
1, 198147, Note_on_c, 0, 63, 26
1, 198171, Control_c, 0, 64, 87
1, 198185, Control_c, 0, 64, 68
1, 198200, Control_c, 0, 64, 57
1, 198215, Control_c, 0, 64, 55
1, 198230, Control_c, 0, 64, 58
1, 198245, Control_c, 0, 64, 63
1, 198260, Control_c, 0, 64, 67
1, 198274, Control_c, 0, 64, 72
1, 198289, Control_c, 0, 64, 80
1, 198304, Control_c, 0, 64, 87
1, 198319, Control_c, 0, 64, 94
1, 198334, Control_c, 0, 64, 102
1, 198348, Control_c, 0, 64, 113
1, 198370, Control_c, 0, 64, 127
1, 198401, Note_off_c, 0, 58, 51
1, 198537, Note_off_c, 0, 51, 41
1, 198542, Note_off_c, 0, 63, 36
1, 198578, Note_off_c, 0, 55, 41
1, 198600, Note_off_c, 0, 67, 55
1, 198659, Note_on_c, 0, 65, 37
1, 198673, Note_on_c, 0, 56, 42
1, 198683, Note_on_c, 0, 48, 30
1, 198698, Note_on_c, 0, 60, 12
1, 198722, Note_off_c, 0, 48, 50
1, 198730, Note_off_c, 0, 56, 63
1, 198752, Note_off_c, 0, 65, 55
1, 198764, Note_off_c, 0, 60, 42
1, 198830, Control_c, 0, 64, 99
1, 198838, Note_on_c, 0, 67, 48
1, 198844, Control_c, 0, 64, 67
1, 198855, Note_on_c, 0, 63, 32
1, 198859, Control_c, 0, 64, 50
1, 198874, Control_c, 0, 64, 43
1, 198889, Control_c, 0, 64, 47
1, 198890, Note_on_c, 0, 51, 34
1, 198898, Note_on_c, 0, 58, 24
1, 198904, Control_c, 0, 64, 57
1, 198911, Note_on_c, 0, 55, 13
1, 198919, Control_c, 0, 64, 65
1, 198934, Control_c, 0, 64, 74
1, 198949, Control_c, 0, 64, 90
1, 198952, Note_off_c, 0, 67, 63
1, 198957, Note_off_c, 0, 63, 58
1, 198963, Control_c, 0, 64, 127
1, 198968, Note_off_c, 0, 51, 56
1, 199009, Note_off_c, 0, 58, 35
1, 199131, Note_off_c, 0, 55, 0
1, 199168, Poly_aftertouch_c, 0, 55, 127
1, 199207, Note_on_c, 0, 51, 27
1, 199211, Note_on_c, 0, 67, 43
1, 199224, Note_on_c, 0, 63, 30
1, 199241, Poly_aftertouch_c, 0, 58, 127
1, 199277, Poly_aftertouch_c, 0, 58, 0
1, 199288, Poly_aftertouch_c, 0, 55, 0
1, 199292, Note_off_c, 0, 51, 55
1, 199425, Note_off_c, 0, 63, 40
1, 199584, Note_on_c, 0, 46, 22
1, 199596, Note_on_c, 0, 39, 19
1, 199631, Note_off_c, 0, 67, 34
1, 199661, Note_on_c, 0, 55, 42
1, 199669, Note_off_c, 0, 39, 53
1, 199674, Note_off_c, 0, 46, 57
1, 199869, Note_on_c, 0, 67, 47
1, 199931, Note_off_c, 0, 55, 44
1, 199995, Note_on_c, 0, 74, 52
1, 200027, Note_off_c, 0, 67, 37
1, 200028, Note_on_c, 0, 62, 35
1, 200031, Note_off_c, 0, 74, 65
1, 200136, Note_off_c, 0, 62, 54
1, 200142, Note_on_c, 0, 67, 49
1, 200159, Poly_aftertouch_c, 0, 55, 0
1, 200310, Note_on_c, 0, 55, 45
1, 200318, Note_on_c, 0, 46, 46
1, 200356, Note_off_c, 0, 67, 29
1, 200356, Note_on_c, 0, 39, 20
1, 200362, Note_off_c, 0, 46, 64
1, 200408, Note_off_c, 0, 39, 52
1, 200503, Note_on_c, 0, 67, 44
1, 200511, Note_off_c, 0, 55, 27
1, 200689, Note_off_c, 0, 67, 43
1, 200697, Note_on_c, 0, 74, 45
1, 200725, Poly_aftertouch_c, 0, 55, 127
1, 200739, Note_on_c, 0, 62, 42
1, 200746, Note_off_c, 0, 74, 62
1, 200775, Poly_aftertouch_c, 0, 55, 0
1, 200943, Note_on_c, 0, 67, 42
1, 200943, Note_off_c, 0, 62, 52
1, 200980, Note_off_c, 0, 67, 63
1, 201344, Note_on_c, 0, 39, 38
1, 201380, Control_c, 0, 64, 108
1, 201395, Control_c, 0, 64, 99
1, 201410, Control_c, 0, 64, 94
1, 201424, Note_on_c, 0, 59, 45
1, 201425, Control_c, 0, 64, 90
1, 201440, Control_c, 0, 64, 88
1, 201441, Note_on_c, 0, 54, 37
1, 201454, Control_c, 0, 64, 86
1, 201469, Control_c, 0, 64, 84
1, 201484, Control_c, 0, 64, 82
1, 201498, Control_c, 0, 64, 80
1, 201513, Control_c, 0, 64, 78
1, 201528, Control_c, 0, 64, 76
1, 201543, Control_c, 0, 64, 75
1, 201558, Control_c, 0, 64, 74
1, 201572, Control_c, 0, 64, 73
1, 201587, Control_c, 0, 64, 72
1, 201602, Note_off_c, 0, 54, 37
1, 201602, Control_c, 0, 64, 71
1, 201612, Note_off_c, 0, 59, 59
1, 201617, Control_c, 0, 64, 70
1, 201631, Control_c, 0, 64, 70
1, 201649, Note_on_c, 0, 55, 36
1, 201649, Note_on_c, 0, 47, 30
1, 201661, Control_c, 0, 64, 69
1, 201672, Note_on_c, 0, 53, 30
1, 201676, Control_c, 0, 64, 69
1, 201697, Note_off_c, 0, 39, 40
1, 201721, Control_c, 0, 64, 68
1, 201751, Control_c, 0, 64, 68
1, 201761, Note_on_c, 0, 46, 39
1, 201766, Note_off_c, 0, 47, 34
1, 201795, Control_c, 0, 64, 67
1, 201806, Note_off_c, 0, 53, 35
1, 201829, Note_off_c, 0, 55, 58
1, 201839, Control_c, 0, 64, 67
1, 201867, Note_on_c, 0, 39, 39
1, 201870, Control_c, 0, 64, 66
1, 201877, Note_on_c, 0, 59, 46
1, 201882, Note_off_c, 0, 46, 35
1, 201900, Control_c, 0, 64, 66
1, 201904, Note_on_c, 0, 54, 11
1, 201944, Control_c, 0, 64, 65
1, 201959, Control_c, 0, 64, 65
1, 201963, Note_off_c, 0, 54, 46
1, 201963, Note_off_c, 0, 59, 59
1, 201974, Control_c, 0, 64, 64
1, 201988, Control_c, 0, 64, 64
1, 202019, Note_on_c, 0, 47, 31
1, 202026, Note_on_c, 0, 55, 39
1, 202037, Note_on_c, 0, 53, 32
1, 202048, Control_c, 0, 64, 63
1, 202058, Note_off_c, 0, 39, 42
1, 202062, Control_c, 0, 64, 63
1, 202077, Control_c, 0, 64, 62
1, 202090, Note_off_c, 0, 53, 46
1, 202092, Control_c, 0, 64, 62
1, 202129, Control_c, 0, 64, 61
1, 202144, Control_c, 0, 64, 61
1, 202147, Note_on_c, 0, 46, 38
1, 202147, Note_off_c, 0, 47, 35
1, 202159, Control_c, 0, 64, 60
1, 202174, Control_c, 0, 64, 60
1, 202188, Control_c, 0, 64, 59
1, 202203, Control_c, 0, 64, 59
1, 202218, Control_c, 0, 64, 58
1, 202247, Control_c, 0, 64, 58
1, 202262, Control_c, 0, 64, 57
1, 202268, Note_off_c, 0, 55, 34
1, 202277, Control_c, 0, 64, 57
1, 202289, Note_on_c, 0, 58, 43
1, 202292, Control_c, 0, 64, 56
1, 202299, Note_on_c, 0, 54, 34
1, 202302, Note_on_c, 0, 39, 36
1, 202304, Note_off_c, 0, 46, 34
1, 202307, Control_c, 0, 64, 56
1, 202321, Control_c, 0, 64, 54
1, 202336, Control_c, 0, 64, 53
1, 202351, Control_c, 0, 64, 51
1, 202366, Control_c, 0, 64, 49
1, 202379, Note_off_c, 0, 54, 39
1, 202381, Control_c, 0, 64, 46
1, 202395, Control_c, 0, 64, 42
1, 202406, Note_off_c, 0, 58, 50
1, 202410, Control_c, 0, 64, 35
1, 202425, Control_c, 0, 64, 19
1, 202439, Control_c, 0, 64, 0
1, 202452, Note_on_c, 0, 55, 37
1, 202458, Note_on_c, 0, 51, 43
1, 202462, Note_on_c, 0, 47, 29
1, 202478, Note_off_c, 0, 39, 44
1, 202605, Note_on_c, 0, 46, 34
1, 202625, Note_off_c, 0, 47, 39
1, 202783, Note_off_c, 0, 55, 47
1, 202809, Note_off_c, 0, 51, 36
1, 202814, Note_on_c, 0, 39, 36
1, 202815, Note_on_c, 0, 53, 34
1, 202817, Note_on_c, 0, 58, 40
1, 202842, Note_off_c, 0, 46, 39
1, 203085, Control_c, 0, 64, 9
1, 203090, Note_off_c, 0, 53, 40
1, 203100, Control_c, 0, 64, 12
1, 203115, Control_c, 0, 64, 14
1, 203130, Control_c, 0, 64, 17
1, 203141, Note_on_c, 0, 47, 26
1, 203144, Note_off_c, 0, 58, 28
1, 203144, Control_c, 0, 64, 19
1, 203152, Note_on_c, 0, 54, 28
1, 203159, Control_c, 0, 64, 19
1, 203166, Note_on_c, 0, 51, 20
1, 203189, Control_c, 0, 64, 20
1, 203204, Control_c, 0, 64, 21
1, 203218, Control_c, 0, 64, 25
1, 203233, Control_c, 0, 64, 32
1, 203248, Control_c, 0, 64, 39
1, 203262, Control_c, 0, 64, 44
1, 203277, Control_c, 0, 64, 49
1, 203286, Note_off_c, 0, 39, 35
1, 203292, Control_c, 0, 64, 53
1, 203307, Control_c, 0, 64, 56
1, 203322, Control_c, 0, 64, 58
1, 203336, Control_c, 0, 64, 60
1, 203351, Control_c, 0, 64, 62
1, 203366, Control_c, 0, 64, 63
1, 203381, Control_c, 0, 64, 64
1, 203396, Control_c, 0, 64, 65
1, 203410, Control_c, 0, 64, 67
1, 203425, Control_c, 0, 64, 69
1, 203440, Control_c, 0, 64, 72
1, 203456, Control_c, 0, 64, 76
1, 203471, Control_c, 0, 64, 80
1, 203483, Note_on_c, 0, 46, 23
1, 203485, Control_c, 0, 64, 84
1, 203497, Note_off_c, 0, 51, 36
1, 203500, Control_c, 0, 64, 88
1, 203515, Control_c, 0, 64, 90
1, 203530, Control_c, 0, 64, 90
1, 203545, Control_c, 0, 64, 91
1, 203549, Note_off_c, 0, 47, 36
1, 203559, Control_c, 0, 64, 92
1, 203574, Control_c, 0, 64, 93
1, 203589, Control_c, 0, 64, 96
1, 203611, Control_c, 0, 64, 98
1, 203626, Control_c, 0, 64, 99
1, 203641, Control_c, 0, 64, 100
1, 203644, Note_off_c, 0, 54, 42
1, 203670, Control_c, 0, 64, 101
1, 203700, Control_c, 0, 64, 101
1, 203741, Note_off_c, 0, 46, 41
1, 203833, Control_c, 0, 64, 101
1, 203848, Control_c, 0, 64, 100
1, 203863, Control_c, 0, 64, 100
1, 203892, Control_c, 0, 64, 99
1, 203922, Control_c, 0, 64, 98
1, 203952, Control_c, 0, 64, 98
1, 203966, Control_c, 0, 64, 97
1, 203981, Control_c, 0, 64, 97
1, 204040, Control_c, 0, 64, 95
1, 204055, Control_c, 0, 64, 83
1, 204070, Control_c, 0, 64, 71
1, 204085, Control_c, 0, 64, 62
1, 204100, Control_c, 0, 64, 58
1, 204114, Control_c, 0, 64, 59
1, 204129, Control_c, 0, 64, 62
1, 204138, Note_on_c, 0, 42, 32
1, 204144, Control_c, 0, 64, 65
1, 204159, Control_c, 0, 64, 69
1, 204174, Control_c, 0, 64, 73
1, 204189, Control_c, 0, 64, 77
1, 204204, Control_c, 0, 64, 81
1, 204218, Control_c, 0, 64, 84
1, 204233, Control_c, 0, 64, 88
1, 204248, Control_c, 0, 64, 94
1, 204264, Control_c, 0, 64, 101
1, 204278, Control_c, 0, 64, 110
1, 204293, Control_c, 0, 64, 119
1, 204308, Control_c, 0, 64, 122
1, 204323, Control_c, 0, 64, 125
1, 204329, Note_on_c, 0, 52, 46
1, 204329, Note_off_c, 0, 42, 42
1, 204338, Control_c, 0, 64, 127
1, 204411, Note_off_c, 0, 52, 57
1, 204490, Note_on_c, 0, 55, 51
1, 204586, Note_off_c, 0, 55, 46
1, 204627, Control_c, 0, 64, 117
1, 204636, Note_on_c, 0, 76, 63
1, 204642, Control_c, 0, 64, 114
1, 204650, Note_on_c, 0, 58, 40
1, 204656, Control_c, 0, 64, 112
1, 204671, Control_c, 0, 64, 110
1, 204686, Control_c, 0, 64, 109
1, 204701, Control_c, 0, 64, 107
1, 204715, Control_c, 0, 64, 104
1, 204729, Note_on_c, 0, 59, 51
1, 204729, Note_off_c, 0, 58, 39
1, 204730, Control_c, 0, 64, 102
1, 204745, Control_c, 0, 64, 100
1, 204761, Control_c, 0, 64, 98
1, 204775, Note_off_c, 0, 59, 64
1, 204776, Control_c, 0, 64, 96
1, 204790, Control_c, 0, 64, 94
1, 204805, Control_c, 0, 64, 93
1, 204820, Control_c, 0, 64, 92
1, 204823, Note_on_c, 0, 60, 61
1, 204834, Control_c, 0, 64, 91
1, 204849, Control_c, 0, 64, 90
1, 204864, Control_c, 0, 64, 89
1, 204879, Note_off_c, 0, 60, 58
1, 204879, Control_c, 0, 64, 87
1, 204894, Note_on_c, 0, 61, 54
1, 204894, Control_c, 0, 64, 86
1, 204908, Control_c, 0, 64, 85
1, 204923, Control_c, 0, 64, 84
1, 204934, Note_off_c, 0, 61, 62
1, 204953, Control_c, 0, 64, 83
1, 204966, Note_on_c, 0, 57, 62
1, 204982, Control_c, 0, 64, 83
1, 205012, Control_c, 0, 64, 82
1, 205025, Note_off_c, 0, 57, 59
1, 205027, Control_c, 0, 64, 82
1, 205068, Note_on_c, 0, 64, 59
1, 205073, Control_c, 0, 64, 81
1, 205102, Control_c, 0, 64, 81
1, 205158, Note_off_c, 0, 64, 61
1, 205194, Note_on_c, 0, 65, 55
1, 205204, Note_on_c, 0, 74, 72
1, 205317, Note_off_c, 0, 76, 57
1, 205319, Note_off_c, 0, 65, 60
1, 205331, Control_c, 0, 64, 81
1, 205335, Note_on_c, 0, 66, 60
1, 205480, Control_c, 0, 64, 80
1, 205495, Control_c, 0, 64, 77
1, 205504, Note_on_c, 0, 67, 53
1, 205506, Note_off_c, 0, 66, 51
1, 205510, Control_c, 0, 64, 69
1, 205524, Control_c, 0, 64, 61
1, 205539, Control_c, 0, 64, 50
1, 205554, Control_c, 0, 64, 43
1, 205557, Note_on_c, 0, 76, 77
1, 205569, Control_c, 0, 64, 44
1, 205584, Control_c, 0, 64, 52
1, 205599, Control_c, 0, 64, 60
1, 205613, Control_c, 0, 64, 64
1, 205627, Note_off_c, 0, 74, 64
1, 205628, Control_c, 0, 64, 68
1, 205643, Control_c, 0, 64, 72
1, 205650, Note_off_c, 0, 67, 62
1, 205657, Control_c, 0, 64, 75
1, 205672, Control_c, 0, 64, 78
1, 205687, Control_c, 0, 64, 80
1, 205693, Note_on_c, 0, 66, 45
1, 205702, Control_c, 0, 64, 83
1, 205717, Control_c, 0, 64, 86
1, 205731, Control_c, 0, 64, 93
1, 205738, Note_off_c, 0, 66, 62
1, 205746, Control_c, 0, 64, 100
1, 205761, Control_c, 0, 64, 110
1, 205776, Control_c, 0, 64, 127
1, 205809, Note_on_c, 0, 64, 51
1, 205879, Note_off_c, 0, 64, 55
1, 205888, Note_on_c, 0, 73, 71
1, 205894, Note_off_c, 0, 76, 63
1, 205964, Note_on_c, 0, 61, 47
1, 206043, Note_off_c, 0, 61, 58
1, 206076, Note_on_c, 0, 58, 47
1, 206102, Note_on_c, 0, 66, 38
1, 206108, Note_off_c, 0, 58, 63
1, 206144, Note_off_c, 0, 66, 60
1, 206180, Note_on_c, 0, 65, 53
1, 206182, Note_on_c, 0, 55, 48
1, 206211, Note_off_c, 0, 65, 63
1, 206273, Control_c, 0, 64, 94
1, 206277, Note_off_c, 0, 55, 47
1, 206288, Control_c, 0, 64, 71
1, 206302, Control_c, 0, 64, 62
1, 206308, Note_on_c, 0, 52, 57
1, 206317, Control_c, 0, 64, 59
1, 206318, Note_on_c, 0, 64, 55
1, 206332, Control_c, 0, 64, 61
1, 206347, Control_c, 0, 64, 64
1, 206352, Note_off_c, 0, 73, 60
1, 206362, Control_c, 0, 64, 69
1, 206377, Control_c, 0, 64, 76
1, 206392, Control_c, 0, 64, 82
1, 206394, Note_off_c, 0, 64, 63
1, 206406, Note_off_c, 0, 52, 55
1, 206407, Control_c, 0, 64, 86
1, 206422, Control_c, 0, 64, 87
1, 206436, Note_on_c, 0, 42, 51
1, 206436, Control_c, 0, 64, 88
1, 206441, Note_on_c, 0, 58, 56
1, 206451, Control_c, 0, 64, 89
1, 206466, Control_c, 0, 64, 91
1, 206472, Note_off_c, 0, 58, 66
1, 206480, Control_c, 0, 64, 96
1, 206495, Control_c, 0, 64, 101
1, 206500, Note_off_c, 0, 42, 56
1, 206510, Control_c, 0, 64, 108
1, 206517, Note_on_c, 0, 52, 17
1, 206525, Control_c, 0, 64, 112
1, 206530, Note_on_c, 0, 59, 60
1, 206540, Control_c, 0, 64, 113
1, 206556, Note_off_c, 0, 52, 49
1, 206565, Note_off_c, 0, 59, 67
1, 206581, Note_on_c, 0, 55, 61
1, 206619, Note_on_c, 0, 60, 68
1, 206636, Control_c, 0, 64, 114
1, 206642, Note_off_c, 0, 55, 54
1, 206651, Control_c, 0, 64, 115
1, 206666, Control_c, 0, 64, 115
1, 206690, Note_off_c, 0, 60, 63
1, 206711, Control_c, 0, 64, 115
1, 206726, Note_on_c, 0, 61, 50
1, 206726, Control_c, 0, 64, 114
1, 206738, Note_on_c, 0, 71, 77
1, 206741, Control_c, 0, 64, 113
1, 206756, Control_c, 0, 64, 105
1, 206770, Control_c, 0, 64, 90
1, 206785, Control_c, 0, 64, 75
1, 206800, Control_c, 0, 64, 65
1, 206815, Control_c, 0, 64, 60
1, 206816, Note_off_c, 0, 61, 61
1, 206830, Control_c, 0, 64, 59
1, 206838, Note_on_c, 0, 62, 58
1, 206845, Control_c, 0, 64, 61
1, 206859, Control_c, 0, 64, 64
1, 206874, Control_c, 0, 64, 67
1, 206889, Control_c, 0, 64, 69
1, 206904, Control_c, 0, 64, 70
1, 206906, Note_off_c, 0, 62, 56
1, 206933, Note_on_c, 0, 63, 53
1, 206948, Control_c, 0, 64, 70
1, 206978, Note_on_c, 0, 73, 72
1, 207005, Note_off_c, 0, 71, 61
1, 207021, Note_off_c, 0, 63, 63
1, 207052, Control_c, 0, 64, 69
1, 207066, Control_c, 0, 64, 68
1, 207075, Note_on_c, 0, 64, 54
1, 207081, Control_c, 0, 64, 65
1, 207096, Control_c, 0, 64, 61
1, 207110, Control_c, 0, 64, 57
1, 207125, Control_c, 0, 64, 54
1, 207140, Control_c, 0, 64, 53
1, 207155, Note_off_c, 0, 64, 60
1, 207155, Control_c, 0, 64, 54
1, 207170, Control_c, 0, 64, 56
1, 207185, Control_c, 0, 64, 57
1, 207200, Control_c, 0, 64, 58
1, 207202, Note_off_c, 0, 73, 62
1, 207203, Note_on_c, 0, 70, 61
1, 207207, Note_on_c, 0, 61, 40
1, 207230, Control_c, 0, 64, 59
1, 207244, Control_c, 0, 64, 60
1, 207259, Control_c, 0, 64, 62
1, 207261, Note_off_c, 0, 61, 59
1, 207274, Control_c, 0, 64, 63
1, 207285, Note_on_c, 0, 54, 55
1, 207289, Control_c, 0, 64, 64
1, 207303, Control_c, 0, 64, 64
1, 207318, Control_c, 0, 64, 65
1, 207333, Control_c, 0, 64, 66
1, 207355, Control_c, 0, 64, 68
1, 207370, Control_c, 0, 64, 70
1, 207385, Control_c, 0, 64, 71
1, 207392, Note_off_c, 0, 54, 61
1, 207399, Control_c, 0, 64, 73
1, 207407, Note_on_c, 0, 67, 53
1, 207414, Control_c, 0, 64, 75
1, 207429, Control_c, 0, 64, 76
1, 207441, Note_off_c, 0, 67, 65
1, 207444, Control_c, 0, 64, 76
1, 207460, Control_c, 0, 64, 77
1, 207489, Control_c, 0, 64, 77
1, 207495, Note_on_c, 0, 64, 50
1, 207593, Control_c, 0, 64, 76
1, 207608, Control_c, 0, 64, 72
1, 207623, Control_c, 0, 64, 66
1, 207628, Note_on_c, 0, 65, 55
1, 207638, Control_c, 0, 64, 60
1, 207647, Note_off_c, 0, 70, 55
1, 207653, Control_c, 0, 64, 57
1, 207668, Control_c, 0, 64, 58
1, 207671, Note_off_c, 0, 64, 56
1, 207682, Control_c, 0, 64, 60
1, 207697, Control_c, 0, 64, 63
1, 207712, Control_c, 0, 64, 66
1, 207726, Control_c, 0, 64, 68
1, 207741, Control_c, 0, 64, 69
1, 207754, Note_on_c, 0, 73, 49
1, 207755, Control_c, 0, 64, 69
1, 207800, Control_c, 0, 64, 70
1, 207814, Note_off_c, 0, 73, 58
1, 207814, Control_c, 0, 64, 71
1, 207829, Control_c, 0, 64, 72
1, 207843, Note_on_c, 0, 70, 52
1, 207844, Control_c, 0, 64, 73
1, 207851, Note_off_c, 0, 65, 49
1, 207859, Control_c, 0, 64, 73
1, 207908, Note_on_c, 0, 66, 41
1, 207936, Note_off_c, 0, 66, 55
1, 208037, Control_c, 0, 64, 73
1, 208052, Control_c, 0, 64, 72
1, 208067, Control_c, 0, 64, 67
1, 208073, Poly_aftertouch_c, 0, 67, 127
1, 208081, Control_c, 0, 64, 62
1, 208094, Note_on_c, 0, 63, 45
1, 208096, Control_c, 0, 64, 58
1, 208118, Control_c, 0, 64, 56
1, 208120, Poly_aftertouch_c, 0, 67, 0
1, 208133, Control_c, 0, 64, 56
1, 208148, Control_c, 0, 64, 58
1, 208163, Control_c, 0, 64, 61
1, 208177, Control_c, 0, 64, 62
1, 208187, Note_on_c, 0, 64, 52
1, 208192, Control_c, 0, 64, 63
1, 208207, Control_c, 0, 64, 63
1, 208212, Note_off_c, 0, 70, 51
1, 208222, Control_c, 0, 64, 64
1, 208237, Control_c, 0, 64, 64
1, 208245, Note_off_c, 0, 63, 35
1, 208252, Control_c, 0, 64, 65
1, 208267, Control_c, 0, 64, 66
1, 208282, Control_c, 0, 64, 66
1, 208288, Note_on_c, 0, 73, 45
1, 208297, Control_c, 0, 64, 67
1, 208312, Control_c, 0, 64, 67
1, 208327, Control_c, 0, 64, 68
1, 208334, Note_off_c, 0, 73, 62
1, 208341, Control_c, 0, 64, 68
1, 208356, Control_c, 0, 64, 69
1, 208368, Note_on_c, 0, 70, 47
1, 208371, Control_c, 0, 64, 70
1, 208386, Control_c, 0, 64, 70
1, 208401, Control_c, 0, 64, 71
1, 208416, Control_c, 0, 64, 71
1, 208421, Note_off_c, 0, 64, 33
1, 208430, Control_c, 0, 64, 72
1, 208445, Control_c, 0, 64, 73
1, 208446, Note_on_c, 0, 66, 41
1, 208460, Control_c, 0, 64, 73
1, 208475, Control_c, 0, 64, 74
1, 208487, Note_off_c, 0, 66, 61
1, 208520, Control_c, 0, 64, 74
1, 208564, Note_on_c, 0, 67, 44
1, 208579, Control_c, 0, 64, 75
1, 208609, Control_c, 0, 64, 75
1, 208628, Note_off_c, 0, 67, 53
1, 208638, Control_c, 0, 64, 75
1, 208653, Control_c, 0, 64, 74
1, 208668, Control_c, 0, 64, 73
1, 208672, Note_on_c, 0, 62, 33
1, 208682, Control_c, 0, 64, 69
1, 208697, Control_c, 0, 64, 65
1, 208712, Control_c, 0, 64, 63
1, 208742, Control_c, 0, 64, 63
1, 208756, Control_c, 0, 64, 64
1, 208771, Control_c, 0, 64, 65
1, 208786, Control_c, 0, 64, 66
1, 208801, Control_c, 0, 64, 67
1, 208813, Note_off_c, 0, 62, 62
1, 208816, Control_c, 0, 64, 67
1, 208820, Note_on_c, 0, 63, 39
1, 208832, Note_off_c, 0, 70, 55
1, 208845, Control_c, 0, 64, 68
1, 208882, Control_c, 0, 64, 68
1, 208897, Control_c, 0, 64, 69
1, 208912, Control_c, 0, 64, 70
1, 208927, Control_c, 0, 64, 71
1, 208942, Control_c, 0, 64, 71
1, 208945, Note_on_c, 0, 73, 33
1, 208956, Control_c, 0, 64, 72
1, 208971, Control_c, 0, 64, 73
1, 208986, Control_c, 0, 64, 74
1, 208987, Note_off_c, 0, 73, 48
1, 209001, Control_c, 0, 64, 75
1, 209016, Control_c, 0, 64, 76
1, 209030, Control_c, 0, 64, 76
1, 209045, Control_c, 0, 64, 77
1, 209061, Control_c, 0, 64, 77
1, 209071, Note_on_c, 0, 70, 37
1, 209076, Control_c, 0, 64, 78
1, 209091, Control_c, 0, 64, 79
1, 209106, Control_c, 0, 64, 80
1, 209121, Control_c, 0, 64, 80
1, 209135, Control_c, 0, 64, 81
1, 209150, Control_c, 0, 64, 82
1, 209165, Control_c, 0, 64, 84
1, 209179, Control_c, 0, 64, 86
1, 209194, Control_c, 0, 64, 88
1, 209206, Note_on_c, 0, 66, 24
1, 209209, Control_c, 0, 64, 90
1, 209224, Control_c, 0, 64, 92
1, 209239, Control_c, 0, 64, 94
1, 209254, Control_c, 0, 64, 95
1, 209268, Control_c, 0, 64, 97
1, 209283, Control_c, 0, 64, 99
1, 209298, Control_c, 0, 64, 102
1, 209313, Control_c, 0, 64, 105
1, 209328, Control_c, 0, 64, 109
1, 209334, Note_on_c, 0, 67, 36
1, 209343, Control_c, 0, 64, 112
1, 209358, Control_c, 0, 64, 119
1, 209372, Control_c, 0, 64, 127
1, 209456, Note_off_c, 0, 67, 62
1, 209472, Note_off_c, 0, 63, 32
1, 209525, Note_on_c, 0, 61, 35
1, 209696, Note_off_c, 0, 61, 31
1, 209914, Control_c, 0, 64, 122
1, 209928, Control_c, 0, 64, 115
1, 209943, Control_c, 0, 64, 112
1, 209958, Control_c, 0, 64, 109
1, 209973, Control_c, 0, 64, 108
1, 209988, Control_c, 0, 64, 106
1, 210001, Control_c, 0, 64, 105
1, 210016, Control_c, 0, 64, 104
1, 210031, Control_c, 0, 64, 104
1, 210046, Control_c, 0, 64, 103
1, 210049, Note_on_c, 0, 62, 40
1, 210054, Note_off_c, 0, 70, 43
1, 210061, Control_c, 0, 64, 103
1, 210064, Note_off_c, 0, 66, 41
1, 210119, Control_c, 0, 64, 100
1, 210134, Control_c, 0, 64, 88
1, 210149, Control_c, 0, 64, 75
1, 210164, Control_c, 0, 64, 65
1, 210179, Control_c, 0, 64, 59
1, 210193, Control_c, 0, 64, 57
1, 210208, Control_c, 0, 64, 59
1, 210223, Control_c, 0, 64, 62
1, 210238, Control_c, 0, 64, 65
1, 210250, Note_on_c, 0, 42, 37
1, 210253, Control_c, 0, 64, 68
1, 210267, Control_c, 0, 64, 71
1, 210282, Control_c, 0, 64, 73
1, 210297, Control_c, 0, 64, 75
1, 210312, Control_c, 0, 64, 76
1, 210327, Control_c, 0, 64, 78
1, 210349, Control_c, 0, 64, 80
1, 210364, Control_c, 0, 64, 83
1, 210379, Control_c, 0, 64, 87
1, 210394, Control_c, 0, 64, 92
1, 210408, Control_c, 0, 64, 96
1, 210423, Note_on_c, 0, 50, 49
1, 210423, Control_c, 0, 64, 98
1, 210438, Control_c, 0, 64, 101
1, 210442, Note_off_c, 0, 42, 38
1, 210453, Control_c, 0, 64, 103
1, 210468, Control_c, 0, 64, 105
1, 210482, Control_c, 0, 64, 107
1, 210483, Note_off_c, 0, 50, 60
1, 210497, Control_c, 0, 64, 107
1, 210541, Control_c, 0, 64, 108
1, 210556, Control_c, 0, 64, 108
1, 210558, Note_on_c, 0, 74, 53
1, 210570, Note_on_c, 0, 71, 47
1, 210571, Control_c, 0, 64, 109
1, 210575, Note_on_c, 0, 59, 14
1, 210586, Control_c, 0, 64, 111
1, 210601, Control_c, 0, 64, 114
1, 210616, Control_c, 0, 64, 115
1, 210620, Note_off_c, 0, 71, 57
1, 210623, Note_off_c, 0, 59, 39
1, 210637, Note_off_c, 0, 62, 53
1, 210640, Note_off_c, 0, 74, 56
1, 210646, Control_c, 0, 64, 116
1, 210676, Control_c, 0, 64, 117
1, 210718, Note_on_c, 0, 69, 47
1, 210720, Control_c, 0, 64, 114
1, 210729, Note_on_c, 0, 66, 51
1, 210735, Control_c, 0, 64, 98
1, 210750, Control_c, 0, 64, 81
1, 210765, Control_c, 0, 64, 66
1, 210780, Control_c, 0, 64, 58
1, 210795, Control_c, 0, 64, 57
1, 210810, Control_c, 0, 64, 59
1, 210824, Control_c, 0, 64, 63
1, 210839, Control_c, 0, 64, 66
1, 210839, Note_on_c, 0, 50, 39
1, 210854, Control_c, 0, 64, 71
1, 210863, Note_off_c, 0, 66, 58
1, 210869, Control_c, 0, 64, 75
1, 210884, Control_c, 0, 64, 78
1, 210898, Control_c, 0, 64, 81
1, 210913, Control_c, 0, 64, 83
1, 210928, Control_c, 0, 64, 86
1, 210943, Control_c, 0, 64, 89
1, 210947, Note_off_c, 0, 50, 48
1, 210950, Note_off_c, 0, 69, 53
1, 210957, Control_c, 0, 64, 93
1, 210959, Note_on_c, 0, 59, 52
1, 210972, Control_c, 0, 64, 98
1, 210987, Control_c, 0, 64, 105
1, 211002, Control_c, 0, 64, 117
1, 211016, Control_c, 0, 64, 127
1, 211031, Note_off_c, 0, 59, 57
1, 211064, Note_on_c, 0, 73, 61
1, 211078, Note_on_c, 0, 69, 54
1, 211167, Poly_aftertouch_c, 0, 62, 0
1, 211194, Note_on_c, 0, 67, 52
1, 211219, Note_on_c, 0, 64, 45
1, 211227, Note_off_c, 0, 69, 52
1, 211272, Note_off_c, 0, 73, 57
1, 211301, Note_off_c, 0, 67, 62
1, 211305, Control_c, 0, 64, 84
1, 211307, Note_on_c, 0, 59, 60
1, 211320, Control_c, 0, 64, 67
1, 211335, Control_c, 0, 64, 61
1, 211349, Control_c, 0, 64, 60
1, 211352, Note_off_c, 0, 59, 60
1, 211364, Control_c, 0, 64, 62
1, 211379, Control_c, 0, 64, 66
1, 211394, Control_c, 0, 64, 70
1, 211409, Control_c, 0, 64, 76
1, 211424, Control_c, 0, 64, 80
1, 211424, Note_on_c, 0, 50, 49
1, 211439, Control_c, 0, 64, 81
1, 211462, Note_off_c, 0, 64, 62
1, 211498, Note_on_c, 0, 71, 62
1, 211499, Control_c, 0, 64, 81
1, 211506, Note_off_c, 0, 50, 54
1, 211510, Note_on_c, 0, 67, 48
1, 211514, Control_c, 0, 64, 82
1, 211528, Control_c, 0, 64, 82
1, 211534, Note_on_c, 0, 42, 51
1, 211543, Control_c, 0, 64, 83
1, 211546, Note_off_c, 0, 67, 58
1, 211549, Note_off_c, 0, 71, 54
1, 211588, Control_c, 0, 64, 82
1, 211591, Note_on_c, 0, 66, 65
1, 211608, Note_on_c, 0, 62, 59
1, 211631, Note_off_c, 0, 42, 49
1, 211641, Note_off_c, 0, 66, 60
1, 211654, Note_off_c, 0, 62, 54
1, 211677, Control_c, 0, 64, 82
1, 211680, Note_on_c, 0, 66, 35
1, 211688, Note_on_c, 0, 69, 66
1, 211692, Control_c, 0, 64, 81
1, 211696, Note_on_c, 0, 50, 50
1, 211706, Control_c, 0, 64, 80
1, 211721, Control_c, 0, 64, 79
1, 211736, Control_c, 0, 64, 77
1, 211751, Control_c, 0, 64, 71
1, 211766, Control_c, 0, 64, 63
1, 211780, Control_c, 0, 64, 39
1, 211782, Note_off_c, 0, 66, 54
1, 211795, Control_c, 0, 64, 0
1, 211809, Note_off_c, 0, 50, 57
1, 211830, Note_on_c, 0, 61, 58
1, 211832, Note_on_c, 0, 64, 55
1, 211836, Note_on_c, 0, 58, 50
1, 211901, Note_off_c, 0, 58, 62
1, 211906, Control_c, 0, 64, 49
1, 211921, Control_c, 0, 64, 59
1, 211936, Control_c, 0, 64, 62
1, 211951, Control_c, 0, 64, 63
1, 211966, Control_c, 0, 64, 64
1, 211968, Note_on_c, 0, 50, 39
1, 211980, Control_c, 0, 64, 66
1, 211981, Note_off_c, 0, 69, 61
1, 211985, Note_off_c, 0, 64, 63
1, 211995, Control_c, 0, 64, 68
1, 212010, Control_c, 0, 64, 72
1, 212025, Control_c, 0, 64, 76
1, 212036, Note_off_c, 0, 61, 63
1, 212040, Control_c, 0, 64, 81
1, 212045, Note_on_c, 0, 42, 54
1, 212054, Control_c, 0, 64, 85
1, 212069, Control_c, 0, 64, 89
1, 212084, Control_c, 0, 64, 91
1, 212098, Control_c, 0, 64, 92
1, 212113, Control_c, 0, 64, 92
1, 212133, Note_on_c, 0, 64, 61
1, 212139, Note_off_c, 0, 50, 0
1, 212140, Note_off_c, 0, 42, 61
1, 212157, Note_on_c, 0, 50, 28
1, 212162, Note_on_c, 0, 67, 55
1, 212172, Control_c, 0, 64, 91
1, 212187, Control_c, 0, 64, 91
1, 212228, Note_off_c, 0, 50, 58
1, 212236, Note_off_c, 0, 67, 56
1, 212237, Note_off_c, 0, 64, 56
1, 212241, Note_on_c, 0, 62, 72
1, 212243, Note_on_c, 0, 57, 61
1, 212249, Note_on_c, 0, 59, 73
1, 212293, Control_c, 0, 64, 92
1, 212300, Note_off_c, 0, 57, 56
1, 212308, Control_c, 0, 64, 92
1, 212309, Note_off_c, 0, 62, 62
1, 212323, Control_c, 0, 64, 94
1, 212338, Control_c, 0, 64, 97
1, 212352, Control_c, 0, 64, 102
1, 212367, Note_on_c, 0, 42, 62
1, 212367, Control_c, 0, 64, 105
1, 212382, Control_c, 0, 64, 108
1, 212396, Control_c, 0, 64, 112
1, 212411, Control_c, 0, 64, 117
1, 212426, Control_c, 0, 64, 127
1, 212460, Note_on_c, 0, 50, 56
1, 212465, Note_off_c, 0, 59, 64
1, 212481, Note_on_c, 0, 62, 63
1, 212481, Note_on_c, 0, 66, 69
1, 212509, Note_off_c, 0, 42, 52
1, 212532, Note_off_c, 0, 62, 60
1, 212533, Note_off_c, 0, 50, 63
1, 212577, Note_on_c, 0, 61, 71
1, 212581, Note_off_c, 0, 66, 38
1, 212585, Note_on_c, 0, 58, 77
1, 212637, Poly_aftertouch_c, 0, 55, 127
1, 212655, Note_off_c, 0, 61, 61
1, 212664, Poly_aftertouch_c, 0, 55, 0
1, 212678, Note_on_c, 0, 64, 72
1, 212684, Note_off_c, 0, 58, 60
1, 212729, Control_c, 0, 64, 122
1, 212744, Control_c, 0, 64, 110
1, 212759, Control_c, 0, 64, 89
1, 212764, Note_off_c, 0, 64, 56
1, 212774, Control_c, 0, 64, 67
1, 212789, Control_c, 0, 64, 32
1, 212793, Note_on_c, 0, 43, 44
1, 212804, Control_c, 0, 64, 0
1, 212813, Note_on_c, 0, 53, 78
1, 212817, Note_on_c, 0, 59, 71
1, 212832, Note_off_c, 0, 43, 62
1, 212843, Note_off_c, 0, 53, 68
1, 212853, Note_on_c, 0, 50, 45
1, 212863, Control_c, 0, 64, 42
1, 212878, Control_c, 0, 64, 59
1, 212879, Note_off_c, 0, 59, 64
1, 212893, Control_c, 0, 64, 64
1, 212897, Note_on_c, 0, 53, 67
1, 212897, Note_off_c, 0, 50, 65
1, 212908, Control_c, 0, 64, 69
1, 212922, Control_c, 0, 64, 74
1, 212937, Control_c, 0, 64, 81
1, 212940, Note_off_c, 0, 53, 66
1, 212952, Control_c, 0, 64, 90
1, 212967, Control_c, 0, 64, 102
1, 212975, Note_on_c, 0, 59, 75
1, 212982, Control_c, 0, 64, 127
1, 212995, Note_off_c, 0, 59, 72
1, 213072, Note_on_c, 0, 65, 69
1, 213092, Note_on_c, 0, 62, 21
1, 213100, Note_off_c, 0, 65, 66
1, 213135, Note_off_c, 0, 62, 40
1, 213145, Note_on_c, 0, 67, 68
1, 213179, Note_off_c, 0, 67, 62
1, 213212, Note_on_c, 0, 65, 31
1, 213264, Control_c, 0, 64, 92
1, 213279, Control_c, 0, 64, 64
1, 213285, Note_on_c, 0, 68, 43
1, 213285, Note_on_c, 0, 81, 84
1, 213293, Control_c, 0, 64, 44
1, 213307, Note_on_c, 0, 76, 47
1, 213308, Control_c, 0, 64, 41
1, 213323, Control_c, 0, 64, 48
1, 213328, Note_off_c, 0, 76, 56
1, 213338, Control_c, 0, 64, 60
1, 213353, Note_on_c, 0, 75, 57
1, 213360, Control_c, 0, 64, 67
1, 213371, Note_off_c, 0, 68, 63
1, 213375, Control_c, 0, 64, 76
1, 213383, Note_off_c, 0, 65, 64
1, 213390, Control_c, 0, 64, 87
1, 213403, Note_off_c, 0, 75, 58
1, 213405, Control_c, 0, 64, 100
1, 213416, Note_on_c, 0, 74, 71
1, 213420, Control_c, 0, 64, 116
1, 213434, Control_c, 0, 64, 127
1, 213471, Note_off_c, 0, 74, 65
1, 213488, Note_off_c, 0, 81, 48
1, 213491, Note_on_c, 0, 77, 83
1, 213517, Note_on_c, 0, 71, 70
1, 213528, Note_on_c, 0, 68, 56
1, 213563, Note_off_c, 0, 68, 65
1, 213567, Note_off_c, 0, 71, 62
1, 213571, Note_off_c, 0, 77, 64
1, 213577, Note_on_c, 0, 65, 46
1, 213618, Note_off_c, 0, 65, 63
1, 213627, Note_on_c, 0, 62, 67
1, 213652, Note_off_c, 0, 62, 66
1, 213740, Note_on_c, 0, 59, 48
1, 213764, Note_on_c, 0, 54, 57
1, 213767, Note_off_c, 0, 59, 61
1, 213787, Note_off_c, 0, 54, 59
1, 213788, Note_on_c, 0, 58, 47
1, 213814, Note_off_c, 0, 58, 56
1, 213824, Note_on_c, 0, 69, 82
1, 213883, Note_on_c, 0, 61, 56
1, 213906, Note_off_c, 0, 61, 58
1, 213940, Note_on_c, 0, 60, 68
1, 213973, Note_off_c, 0, 60, 67
1, 213978, Note_off_c, 0, 69, 56
1, 213982, Control_c, 0, 64, 71
1, 213997, Control_c, 0, 64, 47
1, 214003, Note_on_c, 0, 59, 80
1, 214005, Note_on_c, 0, 65, 78
1, 214012, Control_c, 0, 64, 24
1, 214016, Note_on_c, 0, 50, 68
1, 214027, Control_c, 0, 64, 28
1, 214031, Note_off_c, 0, 59, 66
1, 214041, Control_c, 0, 64, 48
1, 214056, Control_c, 0, 64, 62
1, 214059, Note_off_c, 0, 65, 65
1, 214070, Note_on_c, 0, 53, 62
1, 214071, Control_c, 0, 64, 71
1, 214074, Note_off_c, 0, 50, 64
1, 214094, Control_c, 0, 64, 92
1, 214098, Poly_aftertouch_c, 0, 43, 0
1, 214109, Control_c, 0, 64, 127
1, 214115, Note_off_c, 0, 53, 65
1, 214153, Note_on_c, 0, 59, 62
1, 214178, Note_off_c, 0, 59, 67
1, 214277, Note_on_c, 0, 65, 60
1, 214293, Note_on_c, 0, 62, 43
1, 214302, Note_on_c, 0, 89, 80
1, 214315, Note_on_c, 0, 88, 50
1, 214316, Note_off_c, 0, 88, 127
1, 214321, Note_off_c, 0, 65, 64
1, 214324, Note_off_c, 0, 89, 70
1, 214345, Note_on_c, 0, 67, 71
1, 214390, Note_off_c, 0, 67, 60
1, 214404, Note_off_c, 0, 62, 61
1, 214473, Note_on_c, 0, 65, 48
1, 214496, Note_on_c, 0, 68, 27
1, 214496, Note_on_c, 0, 69, 63
1, 214532, Note_on_c, 0, 81, 82
1, 214538, Control_c, 0, 64, 80
1, 214553, Control_c, 0, 64, 63
1, 214563, Note_on_c, 0, 76, 48
1, 214567, Control_c, 0, 64, 54
1, 214582, Control_c, 0, 64, 57
1, 214597, Note_off_c, 0, 76, 64
1, 214597, Control_c, 0, 64, 62
1, 214604, Note_off_c, 0, 69, 62
1, 214612, Control_c, 0, 64, 68
1, 214623, Note_on_c, 0, 75, 72
1, 214627, Note_off_c, 0, 68, 57
1, 214627, Control_c, 0, 64, 76
1, 214628, Note_off_c, 0, 65, 63
1, 214642, Control_c, 0, 64, 89
1, 214658, Control_c, 0, 64, 102
1, 214672, Control_c, 0, 64, 112
1, 214685, Note_off_c, 0, 75, 62
1, 214687, Control_c, 0, 64, 114
1, 214700, Note_on_c, 0, 74, 70
1, 214717, Control_c, 0, 64, 119
1, 214725, Note_off_c, 0, 74, 68
1, 214732, Control_c, 0, 64, 127
1, 214747, Note_on_c, 0, 77, 68
1, 214762, Note_on_c, 0, 68, 64
1, 214762, Note_on_c, 0, 76, 65
1, 214768, Note_on_c, 0, 71, 73
1, 214780, Note_off_c, 0, 76, 61
1, 214783, Note_off_c, 0, 81, 66
1, 214813, Note_off_c, 0, 68, 63
1, 214852, Note_off_c, 0, 71, 62
1, 214854, Note_on_c, 0, 65, 46
1, 214855, Note_off_c, 0, 77, 64
1, 214885, Note_off_c, 0, 65, 65
1, 214887, Note_on_c, 0, 62, 64
1, 214908, Note_off_c, 0, 62, 64
1, 214966, Note_on_c, 0, 59, 69
1, 215022, Note_off_c, 0, 59, 56
1, 215040, Note_on_c, 0, 58, 57
1, 215077, Note_on_c, 0, 53, 56
1, 215090, Note_on_c, 0, 62, 42
1, 215094, Control_c, 0, 64, 81
1, 215108, Note_off_c, 0, 58, 59
1, 215109, Control_c, 0, 64, 63
1, 215115, Note_on_c, 0, 68, 78
1, 215118, Note_on_c, 0, 56, 53
1, 215123, Control_c, 0, 64, 52
1, 215138, Control_c, 0, 64, 53
1, 215148, Note_off_c, 0, 62, 64
1, 215153, Control_c, 0, 64, 59
1, 215165, Note_on_c, 0, 61, 57
1, 215168, Control_c, 0, 64, 65
1, 215183, Control_c, 0, 64, 72
1, 215185, Note_off_c, 0, 56, 65
1, 215189, Note_off_c, 0, 53, 64
1, 215197, Control_c, 0, 64, 83
1, 215212, Control_c, 0, 64, 96
1, 215227, Control_c, 0, 64, 109
1, 215242, Control_c, 0, 64, 113
1, 215252, Note_off_c, 0, 61, 60
1, 215254, Note_on_c, 0, 60, 64
1, 215272, Control_c, 0, 64, 115
1, 215287, Control_c, 0, 64, 127
1, 215339, Note_off_c, 0, 68, 63
1, 215348, Note_off_c, 0, 60, 50
1, 215420, Note_on_c, 0, 65, 62
1, 215435, Control_c, 0, 64, 102
1, 215451, Control_c, 0, 64, 73
1, 215453, Note_on_c, 0, 59, 53
1, 215466, Control_c, 0, 64, 58
1, 215481, Control_c, 0, 64, 38
1, 215495, Control_c, 0, 64, 37
1, 215510, Control_c, 0, 64, 47
1, 215515, Note_on_c, 0, 43, 44
1, 215525, Control_c, 0, 64, 59
1, 215540, Control_c, 0, 64, 64
1, 215548, Note_on_c, 0, 50, 53
1, 215555, Control_c, 0, 64, 68
1, 215567, Note_off_c, 0, 43, 59
1, 215569, Control_c, 0, 64, 72
1, 215579, Note_off_c, 0, 59, 64
1, 215584, Control_c, 0, 64, 75
1, 215597, Note_off_c, 0, 50, 65
1, 215606, Control_c, 0, 64, 77
1, 215621, Control_c, 0, 64, 78
1, 215627, Note_off_c, 0, 65, 64
1, 215634, Note_on_c, 0, 53, 66
1, 215636, Control_c, 0, 64, 79
1, 215651, Control_c, 0, 64, 82
1, 215666, Control_c, 0, 64, 86
1, 215680, Control_c, 0, 64, 92
1, 215693, Note_off_c, 0, 53, 63
1, 215695, Control_c, 0, 64, 101
1, 215710, Control_c, 0, 64, 108
1, 215725, Control_c, 0, 64, 114
1, 215739, Control_c, 0, 64, 125
1, 215752, Note_on_c, 0, 58, 53
1, 215754, Control_c, 0, 64, 127
1, 215809, Note_off_c, 0, 58, 57
1, 215828, Note_on_c, 0, 59, 61
1, 215839, Note_on_c, 0, 80, 74
1, 215887, Control_c, 0, 64, 80
1, 215902, Control_c, 0, 64, 65
1, 215914, Note_off_c, 0, 59, 61
1, 215917, Control_c, 0, 64, 56
1, 215932, Control_c, 0, 64, 56
1, 215946, Control_c, 0, 64, 59
1, 215961, Control_c, 0, 64, 63
1, 215966, Note_on_c, 0, 68, 58
1, 215976, Control_c, 0, 64, 68
1, 215992, Control_c, 0, 64, 73
1, 216007, Control_c, 0, 64, 77
1, 216012, Note_on_c, 0, 62, 19
1, 216021, Control_c, 0, 64, 78
1, 216056, Note_off_c, 0, 62, 49
1, 216066, Control_c, 0, 64, 79
1, 216081, Note_on_c, 0, 70, 63
1, 216081, Control_c, 0, 64, 81
1, 216095, Control_c, 0, 64, 84
1, 216110, Control_c, 0, 64, 89
1, 216113, Note_off_c, 0, 68, 29
1, 216125, Control_c, 0, 64, 93
1, 216128, Note_on_c, 0, 61, 54
1, 216139, Control_c, 0, 64, 97
1, 216154, Control_c, 0, 64, 100
1, 216169, Control_c, 0, 64, 101
1, 216184, Control_c, 0, 64, 101
1, 216191, Note_off_c, 0, 70, 62
1, 216199, Control_c, 0, 64, 102
1, 216205, Note_off_c, 0, 80, 60
1, 216219, Note_off_c, 0, 61, 60
1, 216229, Control_c, 0, 64, 103
1, 216244, Control_c, 0, 64, 103
1, 216255, Note_on_c, 0, 62, 47
1, 216259, Control_c, 0, 64, 104
1, 216289, Note_on_c, 0, 71, 62
1, 216289, Control_c, 0, 64, 104
1, 216304, Control_c, 0, 64, 105
1, 216333, Control_c, 0, 64, 106
1, 216356, Control_c, 0, 64, 110
1, 216370, Control_c, 0, 64, 122
1, 216375, Note_off_c, 0, 62, 56
1, 216385, Control_c, 0, 64, 127
1, 216395, Note_on_c, 0, 65, 61
1, 216430, Control_c, 0, 64, 91
1, 216444, Control_c, 0, 64, 70
1, 216449, Note_off_c, 0, 65, 58
1, 216459, Control_c, 0, 64, 59
1, 216467, Note_on_c, 0, 79, 69
1, 216474, Control_c, 0, 64, 54
1, 216489, Control_c, 0, 64, 55
1, 216490, Note_on_c, 0, 55, 47
1, 216504, Control_c, 0, 64, 59
1, 216518, Control_c, 0, 64, 63
1, 216533, Control_c, 0, 64, 66
1, 216542, Note_off_c, 0, 71, 61
1, 216548, Control_c, 0, 64, 69
1, 216562, Note_on_c, 0, 67, 60
1, 216563, Control_c, 0, 64, 70
1, 216607, Control_c, 0, 64, 70
1, 216610, Note_off_c, 0, 55, 58
1, 216622, Control_c, 0, 64, 71
1, 216632, Note_off_c, 0, 79, 61
1, 216637, Control_c, 0, 64, 73
1, 216649, Note_off_c, 0, 67, 57
1, 216651, Note_on_c, 0, 61, 52
1, 216652, Control_c, 0, 64, 75
1, 216664, Note_on_c, 0, 70, 50
1, 216667, Control_c, 0, 64, 78
1, 216682, Control_c, 0, 64, 81
1, 216697, Control_c, 0, 64, 83
1, 216711, Control_c, 0, 64, 84
1, 216721, Note_off_c, 0, 61, 61
1, 216726, Control_c, 0, 64, 86
1, 216728, Note_off_c, 0, 70, 54
1, 216741, Control_c, 0, 64, 89
1, 216754, Note_on_c, 0, 62, 55
1, 216756, Control_c, 0, 64, 92
1, 216770, Control_c, 0, 64, 96
1, 216785, Control_c, 0, 64, 102
1, 216800, Control_c, 0, 64, 109
1, 216815, Control_c, 0, 64, 120
1, 216830, Control_c, 0, 64, 127
1, 216845, Note_on_c, 0, 71, 67
1, 216861, Note_on_c, 0, 65, 61
1, 216918, Control_c, 0, 64, 107
1, 216933, Control_c, 0, 64, 79
1, 216935, Note_off_c, 0, 65, 55
1, 216948, Control_c, 0, 64, 66
1, 216962, Control_c, 0, 64, 61
1, 216968, Note_on_c, 0, 55, 50
1, 216977, Control_c, 0, 64, 61
1, 216992, Control_c, 0, 64, 64
1, 217007, Note_on_c, 0, 78, 67
1, 217007, Control_c, 0, 64, 68
1, 217022, Control_c, 0, 64, 73
1, 217038, Control_c, 0, 64, 78
1, 217039, Note_off_c, 0, 71, 62
1, 217053, Control_c, 0, 64, 82
1, 217066, Note_on_c, 0, 61, 55
1, 217067, Control_c, 0, 64, 82
1, 217082, Control_c, 0, 64, 83
1, 217083, Note_off_c, 0, 62, 11
1, 217084, Note_on_c, 0, 66, 71
1, 217103, Note_off_c, 0, 55, 58
1, 217135, Control_c, 0, 64, 84
1, 217149, Control_c, 0, 64, 86
1, 217157, Note_off_c, 0, 61, 61
1, 217157, Note_off_c, 0, 66, 61
1, 217158, Note_off_c, 0, 78, 63
1, 217164, Control_c, 0, 64, 88
1, 217176, Note_on_c, 0, 70, 66
1, 217179, Control_c, 0, 64, 90
1, 217193, Control_c, 0, 64, 92
1, 217208, Control_c, 0, 64, 93
1, 217223, Control_c, 0, 64, 94
1, 217238, Control_c, 0, 64, 94
1, 217247, Note_on_c, 0, 72, 76
1, 217253, Control_c, 0, 64, 95
1, 217267, Note_off_c, 0, 70, 55
1, 217267, Control_c, 0, 64, 96
1, 217277, Note_off_c, 0, 72, 65
1, 217282, Control_c, 0, 64, 98
1, 217297, Control_c, 0, 64, 99
1, 217312, Control_c, 0, 64, 100
1, 217327, Control_c, 0, 64, 101
1, 217341, Control_c, 0, 64, 102
1, 217351, Note_on_c, 0, 77, 90
1, 217356, Control_c, 0, 64, 103
1, 217371, Control_c, 0, 64, 105
1, 217385, Control_c, 0, 64, 108
1, 217397, Note_on_c, 0, 71, 21
1, 217400, Control_c, 0, 64, 112
1, 217415, Control_c, 0, 64, 127
1, 217438, Note_off_c, 0, 71, 40
1, 217444, Note_on_c, 0, 65, 75
1, 217541, Note_on_c, 0, 75, 75
1, 217545, Note_on_c, 0, 72, 71
1, 217558, Note_off_c, 0, 65, 59
1, 217618, Note_off_c, 0, 77, 58
1, 217623, Control_c, 0, 64, 97
1, 217638, Control_c, 0, 64, 73
1, 217653, Control_c, 0, 64, 61
1, 217665, Note_on_c, 0, 66, 66
1, 217666, Note_off_c, 0, 72, 60
1, 217667, Control_c, 0, 64, 58
1, 217682, Control_c, 0, 64, 61
1, 217697, Control_c, 0, 64, 65
1, 217704, Note_off_c, 0, 66, 62
1, 217711, Control_c, 0, 64, 71
1, 217726, Control_c, 0, 64, 81
1, 217741, Control_c, 0, 64, 95
1, 217756, Control_c, 0, 64, 103
1, 217757, Note_on_c, 0, 77, 81
1, 217767, Note_off_c, 0, 75, 61
1, 217771, Control_c, 0, 64, 104
1, 217784, Note_on_c, 0, 71, 58
1, 217803, Note_off_c, 0, 71, 62
1, 217815, Control_c, 0, 64, 104
1, 217829, Note_off_c, 0, 77, 62
1, 217830, Control_c, 0, 64, 107
1, 217853, Control_c, 0, 64, 109
1, 217868, Control_c, 0, 64, 110
1, 217904, Note_on_c, 0, 68, 58
1, 217987, Control_c, 0, 64, 110
1, 218002, Control_c, 0, 64, 112
1, 218011, Note_off_c, 0, 68, 62
1, 218016, Control_c, 0, 64, 113
1, 218031, Control_c, 0, 64, 112
1, 218044, Note_on_c, 0, 74, 70
1, 218046, Control_c, 0, 64, 102
1, 218059, Note_on_c, 0, 69, 57
1, 218060, Note_on_c, 0, 65, 52
1, 218061, Control_c, 0, 64, 85
1, 218076, Control_c, 0, 64, 70
1, 218090, Control_c, 0, 64, 60
1, 218105, Control_c, 0, 64, 53
1, 218120, Control_c, 0, 64, 55
1, 218135, Control_c, 0, 64, 59
1, 218150, Control_c, 0, 64, 63
1, 218152, Note_on_c, 0, 58, 43
1, 218164, Control_c, 0, 64, 66
1, 218179, Control_c, 0, 64, 69
1, 218194, Control_c, 0, 64, 70
1, 218211, Note_on_c, 0, 59, 57
1, 218223, Control_c, 0, 64, 70
1, 218224, Note_off_c, 0, 58, 58
1, 218250, Note_off_c, 0, 59, 65
1, 218253, Control_c, 0, 64, 71
1, 218268, Control_c, 0, 64, 73
1, 218277, Note_on_c, 0, 60, 61
1, 218283, Control_c, 0, 64, 75
1, 218297, Control_c, 0, 64, 78
1, 218312, Control_c, 0, 64, 80
1, 218320, Note_off_c, 0, 60, 63
1, 218327, Control_c, 0, 64, 81
1, 218341, Control_c, 0, 64, 81
1, 218361, Note_on_c, 0, 61, 64
1, 218371, Control_c, 0, 64, 82
1, 218386, Control_c, 0, 64, 82
1, 218396, Note_off_c, 0, 61, 65
1, 218401, Control_c, 0, 64, 83
1, 218415, Control_c, 0, 64, 85
1, 218430, Control_c, 0, 64, 86
1, 218435, Note_on_c, 0, 62, 54
1, 218445, Control_c, 0, 64, 88
1, 218460, Control_c, 0, 64, 89
1, 218473, Note_off_c, 0, 62, 55
1, 218475, Control_c, 0, 64, 90
1, 218489, Control_c, 0, 64, 91
1, 218504, Control_c, 0, 64, 93
1, 218517, Note_on_c, 0, 59, 53
1, 218519, Control_c, 0, 64, 96
1, 218532, Note_on_c, 0, 73, 75
1, 218533, Control_c, 0, 64, 99
1, 218536, Note_off_c, 0, 74, 62
1, 218543, Note_off_c, 0, 65, 63
1, 218548, Control_c, 0, 64, 97
1, 218563, Control_c, 0, 64, 84
1, 218586, Control_c, 0, 64, 67
1, 218588, Note_off_c, 0, 59, 61
1, 218601, Control_c, 0, 64, 55
1, 218615, Control_c, 0, 64, 47
1, 218621, Note_on_c, 0, 56, 61
1, 218630, Control_c, 0, 64, 48
1, 218644, Note_off_c, 0, 69, 40
1, 218646, Control_c, 0, 64, 54
1, 218661, Control_c, 0, 64, 61
1, 218676, Control_c, 0, 64, 65
1, 218691, Control_c, 0, 64, 68
1, 218706, Control_c, 0, 64, 71
1, 218713, Note_off_c, 0, 56, 63
1, 218720, Control_c, 0, 64, 73
1, 218735, Control_c, 0, 64, 74
1, 218749, Note_on_c, 0, 53, 56
1, 218750, Control_c, 0, 64, 75
1, 218765, Note_on_c, 0, 63, 29
1, 218765, Control_c, 0, 64, 76
1, 218780, Control_c, 0, 64, 77
1, 218794, Control_c, 0, 64, 79
1, 218807, Note_off_c, 0, 63, 49
1, 218809, Control_c, 0, 64, 82
1, 218824, Control_c, 0, 64, 85
1, 218838, Control_c, 0, 64, 87
1, 218853, Control_c, 0, 64, 89
1, 218855, Note_on_c, 0, 65, 35
1, 218855, Note_off_c, 0, 73, 65
1, 218864, Note_on_c, 0, 74, 75
1, 218868, Control_c, 0, 64, 89
1, 218883, Control_c, 0, 64, 90
1, 218898, Control_c, 0, 64, 91
1, 218912, Control_c, 0, 64, 93
1, 218927, Control_c, 0, 64, 98
1, 218938, Note_off_c, 0, 74, 62
1, 218942, Control_c, 0, 64, 105
1, 218957, Control_c, 0, 64, 127
1, 218968, Note_on_c, 0, 71, 58
1, 219013, Note_on_c, 0, 54, 58
1, 219028, Note_off_c, 0, 53, 36
1, 219120, Note_off_c, 0, 54, 64
1, 219125, Note_on_c, 0, 74, 82
1, 219141, Note_on_c, 0, 55, 60
1, 219145, Note_off_c, 0, 71, 58
1, 219150, Note_on_c, 0, 62, 48
1, 219193, Note_off_c, 0, 55, 56
1, 219255, Note_on_c, 0, 56, 51
1, 219280, Note_off_c, 0, 56, 57
1, 219320, Note_on_c, 0, 71, 78
1, 219342, Note_on_c, 0, 53, 55
1, 219364, Note_off_c, 0, 65, 40
1, 219377, Note_off_c, 0, 53, 60
1, 219387, Note_off_c, 0, 74, 58
1, 219405, Note_off_c, 0, 71, 62
1, 219451, Note_on_c, 0, 43, 58
1, 219471, Note_on_c, 0, 50, 3
1, 219484, Control_c, 0, 64, 100
1, 219487, Note_off_c, 0, 50, 0
1, 219499, Control_c, 0, 64, 81
1, 219513, Poly_aftertouch_c, 0, 50, 0
1, 219514, Control_c, 0, 64, 74
1, 219529, Control_c, 0, 64, 75
1, 219538, Note_on_c, 0, 61, 72
1, 219542, Note_off_c, 0, 62, 65
1, 219543, Control_c, 0, 64, 78
1, 219547, Note_off_c, 0, 43, 62
1, 219558, Control_c, 0, 64, 84
1, 219570, Note_on_c, 0, 51, 65
1, 219573, Control_c, 0, 64, 95
1, 219587, Control_c, 0, 64, 115
1, 219600, Note_off_c, 0, 61, 62
1, 219602, Control_c, 0, 64, 127
1, 219614, Note_off_c, 0, 51, 62
1, 219625, Note_on_c, 0, 60, 63
1, 219647, Note_on_c, 0, 53, 74
1, 219662, Note_off_c, 0, 60, 65
1, 219679, Note_on_c, 0, 58, 73
1, 219702, Note_off_c, 0, 53, 61
1, 219720, Note_on_c, 0, 52, 71
1, 219742, Note_off_c, 0, 58, 66
1, 219774, Note_on_c, 0, 59, 40
1, 219782, Note_off_c, 0, 52, 59
1, 219787, Note_on_c, 0, 68, 85
1, 219818, Note_on_c, 0, 69, 60
1, 219819, Note_on_c, 0, 43, 65
1, 219837, Note_off_c, 0, 69, 62
1, 219845, Note_off_c, 0, 59, 64
1, 219872, Note_off_c, 0, 43, 63
1, 219876, Poly_aftertouch_c, 0, 60, 0
1, 219900, Note_on_c, 0, 66, 19
1, 219901, Note_off_c, 0, 68, 60
1, 219934, Note_on_c, 0, 41, 71
1, 219940, Note_on_c, 0, 64, 8
1, 219941, Note_off_c, 0, 66, 42
1, 219970, Note_on_c, 0, 67, 93
1, 219986, Note_off_c, 0, 64, 49
1, 220003, Note_off_c, 0, 41, 63
1, 220074, Note_on_c, 0, 39, 73
1, 220149, Note_off_c, 0, 39, 63
1, 220205, Poly_aftertouch_c, 0, 66, 0
1, 220218, Note_on_c, 0, 66, 54
1, 220247, Note_on_c, 0, 59, 65
1, 220250, Note_on_c, 0, 38, 61
1, 220278, Control_c, 0, 64, 104
1, 220292, Control_c, 0, 64, 65
1, 220307, Control_c, 0, 64, 0
1, 220310, Note_off_c, 0, 67, 54
1, 220381, Note_on_c, 0, 31, 62
1, 220381, Control_c, 0, 64, 54
1, 220392, Note_off_c, 0, 38, 55
1, 220396, Control_c, 0, 64, 68
1, 220404, Note_off_c, 0, 59, 63
1, 220411, Control_c, 0, 64, 77
1, 220418, Note_off_c, 0, 66, 63
1, 220426, Control_c, 0, 64, 86
1, 220441, Control_c, 0, 64, 88
1, 220456, Control_c, 0, 64, 89
1, 220471, Control_c, 0, 64, 92
1, 220481, Note_off_c, 0, 31, 62
1, 220483, Control_c, 0, 64, 102
1, 220496, Note_on_c, 0, 65, 82
1, 220498, Control_c, 0, 64, 127
1, 220542, Poly_aftertouch_c, 0, 38, 127
1, 220544, Note_off_c, 0, 65, 65
1, 220572, Poly_aftertouch_c, 0, 38, 0
1, 220677, Note_on_c, 0, 50, 64
1, 220736, Control_c, 0, 64, 98
1, 220751, Control_c, 0, 64, 72
1, 220765, Control_c, 0, 64, 59
1, 220780, Control_c, 0, 64, 51
1, 220790, Note_on_c, 0, 80, 85
1, 220795, Control_c, 0, 64, 53
1, 220808, Note_on_c, 0, 53, 58
1, 220809, Control_c, 0, 64, 61
1, 220824, Control_c, 0, 64, 67
1, 220836, Note_off_c, 0, 50, 58
1, 220846, Control_c, 0, 64, 74
1, 220861, Control_c, 0, 64, 82
1, 220876, Control_c, 0, 64, 89
1, 220891, Control_c, 0, 64, 93
1, 220895, Note_off_c, 0, 53, 63
1, 220906, Control_c, 0, 64, 95
1, 220920, Note_on_c, 0, 59, 55
1, 220921, Control_c, 0, 64, 99
1, 220931, Note_on_c, 0, 66, 67
1, 220935, Control_c, 0, 64, 107
1, 220945, Note_off_c, 0, 59, 62
1, 220950, Control_c, 0, 64, 127
1, 220992, Note_off_c, 0, 66, 61
1, 221047, Note_on_c, 0, 67, 68
1, 221084, Note_off_c, 0, 67, 63
1, 221138, Note_on_c, 0, 62, 60
1, 221172, Note_off_c, 0, 80, 62
1, 221180, Note_off_c, 0, 62, 59
1, 221195, Note_on_c, 0, 66, 70
1, 221228, Note_on_c, 0, 59, 42
1, 221263, Note_off_c, 0, 66, 58
1, 221287, Poly_aftertouch_c, 0, 74, 127
1, 221292, Control_c, 0, 64, 119
1, 221302, Note_on_c, 0, 62, 61
1, 221306, Control_c, 0, 64, 77
1, 221321, Control_c, 0, 64, 62
1, 221323, Note_off_c, 0, 59, 56
1, 221333, Note_on_c, 0, 75, 5
1, 221334, Note_on_c, 0, 79, 84
1, 221336, Note_on_c, 0, 76, 19
1, 221336, Control_c, 0, 64, 52
1, 221351, Control_c, 0, 64, 53
1, 221366, Control_c, 0, 64, 59
1, 221380, Control_c, 0, 64, 65
1, 221395, Control_c, 0, 64, 71
1, 221405, Note_off_c, 0, 62, 64
1, 221410, Control_c, 0, 64, 78
1, 221418, Note_on_c, 0, 67, 67
1, 221425, Control_c, 0, 64, 86
1, 221440, Control_c, 0, 64, 90
1, 221454, Control_c, 0, 64, 91
1, 221469, Control_c, 0, 64, 92
1, 221484, Control_c, 0, 64, 93
1, 221499, Control_c, 0, 64, 96
1, 221506, Note_on_c, 0, 68, 78
1, 221514, Control_c, 0, 64, 102
1, 221529, Control_c, 0, 64, 112
1, 221541, Note_off_c, 0, 67, 58
1, 221544, Control_c, 0, 64, 127
1, 221554, Note_off_c, 0, 76, 37
1, 221565, Note_off_c, 0, 75, 41
1, 221571, Note_off_c, 0, 68, 59
1, 221620, Note_on_c, 0, 62, 57
1, 221685, Note_on_c, 0, 67, 66
1, 221796, Note_on_c, 0, 58, 56
1, 221815, Note_off_c, 0, 62, 0
1, 221853, Poly_aftertouch_c, 0, 62, 127
1, 221884, Note_on_c, 0, 78, 83
1, 221885, Note_off_c, 0, 67, 28
1, 221918, Note_off_c, 0, 79, 66
1, 221967, Control_c, 0, 64, 106
1, 221982, Control_c, 0, 64, 74
1, 221997, Control_c, 0, 64, 60
1, 222011, Control_c, 0, 64, 48
1, 222026, Control_c, 0, 64, 50
1, 222027, Note_on_c, 0, 68, 68
1, 222041, Control_c, 0, 64, 58
1, 222055, Control_c, 0, 64, 65
1, 222070, Control_c, 0, 64, 72
1, 222085, Control_c, 0, 64, 83
1, 222100, Control_c, 0, 64, 99
1, 222113, Note_on_c, 0, 69, 66
1, 222115, Control_c, 0, 64, 127
1, 222147, Poly_aftertouch_c, 0, 62, 0
1, 222165, Note_off_c, 0, 68, 59
1, 222178, Poly_aftertouch_c, 0, 74, 0
1, 222191, Note_off_c, 0, 69, 60
1, 222205, Note_off_c, 0, 58, 63
1, 222225, Note_on_c, 0, 62, 53
1, 222319, Note_off_c, 0, 78, 55
1, 222380, Note_on_c, 0, 68, 65
1, 222418, Control_c, 0, 64, 86
1, 222433, Control_c, 0, 64, 68
1, 222448, Control_c, 0, 64, 62
1, 222462, Control_c, 0, 64, 63
1, 222477, Control_c, 0, 64, 65
1, 222492, Control_c, 0, 64, 73
1, 222496, Note_on_c, 0, 59, 60
1, 222507, Control_c, 0, 64, 90
1, 222522, Control_c, 0, 64, 127
1, 222553, Note_off_c, 0, 68, 62
1, 222601, Note_off_c, 0, 59, 64
1, 222602, Note_off_c, 0, 62, 55
1, 222687, Note_on_c, 0, 77, 74
1, 222931, Note_on_c, 0, 67, 59
1, 222994, Poly_aftertouch_c, 0, 71, 127
1, 223039, Poly_aftertouch_c, 0, 71, 0
1, 223083, Note_off_c, 0, 77, 65
1, 223093, Control_c, 0, 64, 92
1, 223097, Note_on_c, 0, 43, 59
1, 223108, Control_c, 0, 64, 67
1, 223123, Control_c, 0, 64, 42
1, 223138, Control_c, 0, 64, 0
1, 223167, Control_c, 0, 64, 28
1, 223182, Control_c, 0, 64, 51
1, 223197, Control_c, 0, 64, 60
1, 223211, Control_c, 0, 64, 64
1, 223226, Control_c, 0, 64, 67
1, 223241, Control_c, 0, 64, 70
1, 223256, Control_c, 0, 64, 72
1, 223258, Note_on_c, 0, 51, 69
1, 223271, Control_c, 0, 64, 73
1, 223285, Control_c, 0, 64, 73
1, 223300, Control_c, 0, 64, 75
1, 223305, Note_off_c, 0, 43, 58
1, 223315, Control_c, 0, 64, 78
1, 223330, Control_c, 0, 64, 84
1, 223345, Control_c, 0, 64, 91
1, 223359, Control_c, 0, 64, 101
1, 223370, Note_off_c, 0, 51, 62
1, 223374, Control_c, 0, 64, 120
1, 223386, Note_on_c, 0, 55, 71
1, 223389, Control_c, 0, 64, 127
1, 223453, Note_off_c, 0, 55, 63
1, 223492, Note_on_c, 0, 75, 71
1, 223517, Note_on_c, 0, 72, 70
1, 223549, Note_off_c, 0, 67, 62
1, 223631, Note_on_c, 0, 70, 68
1, 223644, Note_on_c, 0, 67, 62
1, 223678, Note_off_c, 0, 72, 61
1, 223701, Control_c, 0, 64, 88
1, 223711, Note_off_c, 0, 75, 54
1, 223716, Control_c, 0, 64, 67
1, 223731, Control_c, 0, 64, 54
1, 223743, Note_on_c, 0, 63, 60
1, 223746, Control_c, 0, 64, 51
1, 223761, Control_c, 0, 64, 55
1, 223765, Note_off_c, 0, 70, 63
1, 223775, Control_c, 0, 64, 62
1, 223790, Control_c, 0, 64, 68
1, 223805, Note_off_c, 0, 63, 61
1, 223805, Control_c, 0, 64, 76
1, 223820, Control_c, 0, 64, 85
1, 223822, Note_on_c, 0, 60, 61
1, 223842, Control_c, 0, 64, 95
1, 223857, Control_c, 0, 64, 104
1, 223872, Control_c, 0, 64, 114
1, 223884, Note_off_c, 0, 67, 61
1, 223887, Control_c, 0, 64, 127
1, 223914, Note_off_c, 0, 60, 63
1, 223920, Note_on_c, 0, 51, 67
1, 223943, Note_on_c, 0, 74, 69
1, 223946, Note_on_c, 0, 70, 73
1, 223949, Note_off_c, 0, 51, 66
1, 224013, Note_off_c, 0, 74, 60
1, 224039, Note_on_c, 0, 65, 73
1, 224041, Note_on_c, 0, 68, 76
1, 224042, Note_off_c, 0, 70, 58
1, 224129, Note_off_c, 0, 68, 61
1, 224138, Note_on_c, 0, 60, 72
1, 224138, Control_c, 0, 64, 80
1, 224153, Control_c, 0, 64, 63
1, 224168, Control_c, 0, 64, 49
1, 224182, Control_c, 0, 64, 50
1, 224197, Control_c, 0, 64, 56
1, 224212, Control_c, 0, 64, 63
1, 224213, Note_off_c, 0, 60, 50
1, 224228, Control_c, 0, 64, 67
1, 224233, Note_on_c, 0, 51, 65
1, 224243, Control_c, 0, 64, 74
1, 224257, Control_c, 0, 64, 82
1, 224262, Note_off_c, 0, 65, 61
1, 224272, Control_c, 0, 64, 87
1, 224287, Control_c, 0, 64, 91
1, 224302, Control_c, 0, 64, 95
1, 224307, Note_on_c, 0, 68, 57
1, 224317, Control_c, 0, 64, 99
1, 224322, Note_on_c, 0, 43, 69
1, 224324, Note_on_c, 0, 72, 66
1, 224324, Note_off_c, 0, 51, 59
1, 224331, Control_c, 0, 64, 106
1, 224346, Control_c, 0, 64, 127
1, 224413, Note_on_c, 0, 67, 70
1, 224415, Note_on_c, 0, 63, 74
1, 224425, Note_off_c, 0, 68, 56
1, 224426, Note_off_c, 0, 72, 61
1, 224462, Note_off_c, 0, 43, 54
1, 224483, Note_off_c, 0, 67, 61
1, 224507, Note_on_c, 0, 51, 67
1, 224514, Note_on_c, 0, 70, 82
1, 224543, Note_off_c, 0, 63, 60
1, 224632, Note_off_c, 0, 51, 55
1, 224650, Note_on_c, 0, 59, 71
1, 224661, Note_on_c, 0, 65, 71
1, 224665, Control_c, 0, 64, 77
1, 224668, Note_on_c, 0, 64, 63
1, 224669, Note_on_c, 0, 62, 67
1, 224680, Control_c, 0, 64, 50
1, 224695, Control_c, 0, 64, 0
1, 224712, Note_off_c, 0, 70, 55
1, 224748, Note_off_c, 0, 59, 60
1, 224765, Note_off_c, 0, 64, 61
1, 224769, Control_c, 0, 64, 57
1, 224783, Control_c, 0, 64, 66
1, 224790, Note_on_c, 0, 51, 57
1, 224798, Control_c, 0, 64, 72
1, 224813, Control_c, 0, 64, 81
1, 224828, Control_c, 0, 64, 87
1, 224843, Control_c, 0, 64, 91
1, 224853, Note_on_c, 0, 43, 71
1, 224858, Note_off_c, 0, 65, 48
1, 224858, Control_c, 0, 64, 98
1, 224871, Note_off_c, 0, 51, 61
1, 224873, Control_c, 0, 64, 127
1, 224932, Note_off_c, 0, 43, 62
1, 224932, Note_off_c, 0, 62, 56
1, 224934, Note_on_c, 0, 68, 78
1, 224950, Note_on_c, 0, 65, 66
1, 224987, Note_on_c, 0, 51, 71
1, 225039, Note_on_c, 0, 58, 72
1, 225042, Note_on_c, 0, 63, 83
1, 225046, Note_on_c, 0, 60, 84
1, 225055, Note_off_c, 0, 65, 61
1, 225067, Note_off_c, 0, 68, 58
1, 225091, Note_off_c, 0, 58, 64
1, 225106, Note_off_c, 0, 51, 62
1, 225121, Note_on_c, 0, 43, 68
1, 225137, Note_off_c, 0, 63, 62
1, 225199, Note_off_c, 0, 43, 61
1, 225205, Note_on_c, 0, 45, 12
1, 225222, Note_on_c, 0, 51, 73
1, 225259, Note_off_c, 0, 45, 45
1, 225273, Note_on_c, 0, 63, 83
1, 225287, Note_on_c, 0, 67, 71
1, 225294, Note_on_c, 0, 56, 77
1, 225315, Note_off_c, 0, 60, 26
1, 225343, Note_off_c, 0, 56, 62
1, 225360, Note_off_c, 0, 51, 63
1, 225378, Note_on_c, 0, 62, 86
1, 225390, Note_off_c, 0, 63, 52
1, 225392, Note_on_c, 0, 59, 77
1, 225463, Note_off_c, 0, 62, 65
1, 225467, Note_on_c, 0, 65, 85
1, 225479, Note_off_c, 0, 59, 64
1, 225508, Note_off_c, 0, 67, 61
1, 225577, Control_c, 0, 64, 72
1, 225589, Note_on_c, 0, 60, 81
1, 225592, Control_c, 0, 64, 0
1, 225593, Note_on_c, 0, 32, 64
1, 225601, Note_on_c, 0, 54, 92
1, 225653, Note_off_c, 0, 54, 65
1, 225666, Control_c, 0, 64, 56
1, 225679, Note_off_c, 0, 60, 65
1, 225681, Note_off_c, 0, 65, 57
1, 225681, Control_c, 0, 64, 70
1, 225681, Note_on_c, 0, 44, 77
1, 225696, Control_c, 0, 64, 89
1, 225711, Note_off_c, 0, 32, 62
1, 225711, Control_c, 0, 64, 127
1, 225730, Note_off_c, 0, 44, 63
1, 225850, Note_on_c, 0, 56, 76
1, 225875, Note_on_c, 0, 81, 77
1, 225881, Note_on_c, 0, 78, 79
1, 225893, Note_off_c, 0, 56, 62
1, 225915, Note_on_c, 0, 61, 76
1, 225970, Note_on_c, 0, 76, 82
1, 225970, Note_on_c, 0, 69, 94
1, 225980, Note_on_c, 0, 73, 70
1, 225982, Note_off_c, 0, 61, 60
1, 226014, Note_off_c, 0, 81, 56
1, 226047, Note_off_c, 0, 76, 63
1, 226049, Note_on_c, 0, 52, 80
1, 226056, Note_off_c, 0, 78, 63
1, 226087, Note_off_c, 0, 52, 68
1, 226161, Note_on_c, 0, 44, 85
1, 226201, Note_off_c, 0, 69, 60
1, 226221, Note_off_c, 0, 44, 62
1, 226227, Note_on_c, 0, 76, 81
1, 226232, Note_off_c, 0, 73, 65
1, 226233, Note_on_c, 0, 80, 80
1, 226327, Control_c, 0, 64, 74
1, 226328, Note_on_c, 0, 71, 87
1, 226331, Note_on_c, 0, 75, 75
1, 226334, Note_off_c, 0, 80, 64
1, 226336, Note_on_c, 0, 68, 94
1, 226342, Control_c, 0, 64, 43
1, 226350, Note_on_c, 0, 63, 82
1, 226357, Control_c, 0, 64, 0
1, 226360, Note_on_c, 0, 56, 56
1, 226364, Note_off_c, 0, 76, 35
1, 226394, Note_on_c, 0, 54, 60
1, 226401, Control_c, 0, 64, 43
1, 226416, Control_c, 0, 64, 61
1, 226430, Control_c, 0, 64, 68
1, 226435, Note_off_c, 0, 63, 58
1, 226441, Note_off_c, 0, 54, 65
1, 226445, Control_c, 0, 64, 79
1, 226451, Note_off_c, 0, 56, 64
1, 226460, Control_c, 0, 64, 99
1, 226475, Control_c, 0, 64, 127
1, 226486, Note_on_c, 0, 49, 73
1, 226489, Note_off_c, 0, 75, 53
1, 226508, Note_off_c, 0, 49, 58
1, 226537, Note_off_c, 0, 68, 61
1, 226540, Note_on_c, 0, 78, 95
1, 226554, Note_off_c, 0, 71, 61
1, 226598, Poly_aftertouch_c, 0, 48, 0
1, 226633, Note_off_c, 0, 78, 66
1, 226640, Note_on_c, 0, 73, 81
1, 226642, Note_on_c, 0, 67, 82
1, 226648, Note_on_c, 0, 69, 77
1, 226751, Note_on_c, 0, 77, 98
1, 226757, Note_on_c, 0, 74, 78
1, 226766, Note_off_c, 0, 67, 61
1, 226780, Note_off_c, 0, 73, 63
1, 226781, Note_off_c, 0, 69, 62
1, 226866, Note_on_c, 0, 69, 91
1, 226866, Note_on_c, 0, 72, 80
1, 226870, Note_on_c, 0, 65, 87
1, 226918, Note_off_c, 0, 77, 60
1, 226924, Note_off_c, 0, 74, 61
1, 226942, Control_c, 0, 64, 65
1, 226957, Note_on_c, 0, 45, 79
1, 226957, Control_c, 0, 64, 0
1, 226967, Note_off_c, 0, 72, 64
1, 227032, Control_c, 0, 64, 47
1, 227036, Note_off_c, 0, 45, 62
1, 227046, Control_c, 0, 64, 64
1, 227058, Note_on_c, 0, 33, 86
1, 227061, Control_c, 0, 64, 75
1, 227076, Control_c, 0, 64, 93
1, 227077, Note_on_c, 0, 45, 60
1, 227091, Control_c, 0, 64, 127
1, 227103, Note_off_c, 0, 33, 63
1, 227116, Note_off_c, 0, 45, 64
1, 227166, Note_on_c, 0, 72, 86
1, 227169, Note_on_c, 0, 76, 83
1, 227176, Note_off_c, 0, 69, 62
1, 227183, Note_off_c, 0, 65, 61
1, 227240, Note_on_c, 0, 54, 55
1, 227253, Note_on_c, 0, 70, 88
1, 227254, Note_on_c, 0, 58, 89
1, 227269, Note_on_c, 0, 67, 96
1, 227273, Note_on_c, 0, 64, 92
1, 227278, Note_off_c, 0, 54, 64
1, 227292, Note_off_c, 0, 72, 60
1, 227312, Note_off_c, 0, 58, 63
1, 227315, Note_off_c, 0, 76, 31
1, 227321, Note_off_c, 0, 70, 62
1, 227357, Note_on_c, 0, 44, 77
1, 227387, Note_off_c, 0, 44, 64
1, 227464, Note_on_c, 0, 74, 78
1, 227468, Note_on_c, 0, 70, 75
1, 227469, Note_off_c, 0, 64, 60
1, 227474, Note_on_c, 0, 59, 77
1, 227476, Note_off_c, 0, 67, 64
1, 227501, Note_off_c, 0, 59, 68
1, 227547, Note_off_c, 0, 74, 61
1, 227551, Note_on_c, 0, 63, 85
1, 227563, Note_on_c, 0, 65, 72
1, 227597, Note_on_c, 0, 69, 18
1, 227604, Note_on_c, 0, 64, 41
1, 227610, Note_on_c, 0, 62, 34
1, 227614, Note_off_c, 0, 63, 59
1, 227617, Note_off_c, 0, 70, 63
1, 227622, Note_on_c, 0, 46, 62
1, 227626, Note_off_c, 0, 64, 60
1, 227637, Note_off_c, 0, 69, 51
1, 227644, Note_off_c, 0, 62, 47
1, 227654, Note_on_c, 0, 72, 96
1, 227664, Note_off_c, 0, 46, 60
1, 227708, Note_off_c, 0, 65, 61
1, 227732, Note_on_c, 0, 34, 63
1, 227765, Control_c, 0, 64, 70
1, 227767, Note_on_c, 0, 65, 81
1, 227774, Note_on_c, 0, 68, 90
1, 227775, Note_on_c, 0, 62, 90
1, 227780, Control_c, 0, 64, 0
1, 227822, Note_off_c, 0, 72, 64
1, 227835, Note_on_c, 0, 46, 85
1, 227837, Note_off_c, 0, 62, 64
1, 227837, Poly_aftertouch_c, 0, 41, 127
1, 227840, Control_c, 0, 64, 57
1, 227854, Control_c, 0, 64, 70
1, 227867, Note_off_c, 0, 65, 61
1, 227869, Control_c, 0, 64, 96
1, 227873, Poly_aftertouch_c, 0, 41, 0
1, 227878, Note_off_c, 0, 34, 61
1, 227884, Control_c, 0, 64, 127
1, 227891, Note_off_c, 0, 68, 65
1, 227894, Note_off_c, 0, 46, 64
1, 227987, Note_on_c, 0, 58, 79
1, 228008, Note_on_c, 0, 62, 66
1, 228069, Note_on_c, 0, 83, 87
1, 228087, Note_on_c, 0, 80, 77
1, 228141, Note_off_c, 0, 62, 59
1, 228154, Note_off_c, 0, 58, 63
1, 228166, Control_c, 0, 64, 90
1, 228167, Note_on_c, 0, 71, 89
1, 228170, Note_on_c, 0, 78, 94
1, 228173, Note_on_c, 0, 75, 94
1, 228174, Note_on_c, 0, 63, 70
1, 228181, Control_c, 0, 64, 62
1, 228195, Control_c, 0, 64, 0
1, 228203, Note_off_c, 0, 83, 62
1, 228223, Note_on_c, 0, 60, 41
1, 228227, Note_on_c, 0, 59, 43
1, 228227, Control_c, 0, 64, 20
1, 228235, Note_off_c, 0, 80, 62
1, 228242, Control_c, 0, 64, 56
1, 228256, Control_c, 0, 64, 67
1, 228258, Note_on_c, 0, 56, 73
1, 228260, Note_off_c, 0, 63, 62
1, 228263, Note_off_c, 0, 59, 61
1, 228266, Note_off_c, 0, 60, 64
1, 228269, Note_off_c, 0, 78, 63
1, 228271, Control_c, 0, 64, 87
1, 228280, Poly_aftertouch_c, 0, 62, 0
1, 228286, Control_c, 0, 64, 127
1, 228293, Note_off_c, 0, 56, 64
1, 228359, Note_on_c, 0, 46, 77
1, 228389, Note_off_c, 0, 46, 67
1, 228418, Note_off_c, 0, 75, 62
1, 228434, Note_off_c, 0, 71, 62
1, 228455, Note_on_c, 0, 82, 88
1, 228457, Note_on_c, 0, 78, 60
1, 228477, Note_on_c, 0, 79, 78
1, 228477, Note_off_c, 0, 78, 60
1, 228545, Control_c, 0, 64, 110
1, 228549, Note_on_c, 0, 62, 47
1, 228554, Note_on_c, 0, 65, 79
1, 228557, Note_on_c, 0, 77, 88
1, 228558, Note_on_c, 0, 58, 78
1, 228559, Note_on_c, 0, 74, 89
1, 228560, Control_c, 0, 64, 67
1, 228566, Note_on_c, 0, 70, 95
1, 228574, Control_c, 0, 64, 28
1, 228582, Note_off_c, 0, 79, 46
1, 228589, Control_c, 0, 64, 0
1, 228604, Control_c, 0, 64, 18
1, 228619, Control_c, 0, 64, 53
1, 228627, Note_off_c, 0, 65, 62
1, 228630, Note_off_c, 0, 58, 65
1, 228633, Control_c, 0, 64, 68
1, 228638, Note_off_c, 0, 82, 57
1, 228648, Control_c, 0, 64, 86
1, 228656, Note_off_c, 0, 62, 65
1, 228663, Control_c, 0, 64, 127
1, 228669, Note_off_c, 0, 77, 60
1, 228698, Note_off_c, 0, 70, 65
1, 228699, Note_on_c, 0, 49, 80
1, 228725, Note_off_c, 0, 49, 68
1, 228754, Poly_aftertouch_c, 0, 73, 127
1, 228777, Note_on_c, 0, 81, 91
1, 228783, Note_off_c, 0, 74, 60
1, 228808, Poly_aftertouch_c, 0, 73, 0
1, 228837, Note_on_c, 0, 66, 52
1, 228847, Note_on_c, 0, 61, 44
1, 228861, Note_off_c, 0, 66, 58
1, 228872, Note_on_c, 0, 75, 85
1, 228876, Note_off_c, 0, 61, 61
1, 228877, Note_on_c, 0, 69, 93
1, 228880, Note_on_c, 0, 71, 84
1, 228883, Note_off_c, 0, 81, 59
1, 228910, Note_on_c, 0, 72, 41
1, 228911, Note_off_c, 0, 72, 127
1, 228925, Note_on_c, 0, 55, 67
1, 228947, Note_off_c, 0, 55, 63
1, 228957, Note_off_c, 0, 75, 62
1, 228964, Note_off_c, 0, 69, 55
1, 228976, Note_on_c, 0, 79, 99
1, 229003, Note_off_c, 0, 71, 61
1, 229005, Note_on_c, 0, 76, 58
1, 229048, Note_off_c, 0, 76, 59
1, 229112, Note_on_c, 0, 74, 88
1, 229114, Note_on_c, 0, 71, 95
1, 229119, Note_on_c, 0, 67, 95
1, 229144, Note_on_c, 0, 76, 62
1, 229145, Control_c, 0, 64, 84
1, 229160, Control_c, 0, 64, 50
1, 229175, Control_c, 0, 64, 0
1, 229197, Note_off_c, 0, 79, 57
1, 229199, Note_off_c, 0, 76, 57
1, 229219, Control_c, 0, 64, 47
1, 229225, Note_on_c, 0, 47, 86
1, 229232, Note_off_c, 0, 74, 63
1, 229234, Control_c, 0, 64, 65
1, 229248, Control_c, 0, 64, 80
1, 229263, Control_c, 0, 64, 127
1, 229284, Note_off_c, 0, 71, 59
1, 229296, Note_off_c, 0, 47, 57
1, 229324, Note_on_c, 0, 35, 87
1, 229338, Note_on_c, 0, 47, 63
1, 229373, Note_off_c, 0, 35, 62
1, 229394, Note_off_c, 0, 47, 63
1, 229416, Note_on_c, 0, 78, 89
1, 229430, Note_off_c, 0, 67, 66
1, 229443, Note_on_c, 0, 74, 52
1, 229445, Poly_aftertouch_c, 0, 45, 0
1, 229470, Control_c, 0, 64, 95
1, 229483, Note_off_c, 0, 74, 61
1, 229485, Control_c, 0, 64, 69
1, 229500, Note_on_c, 0, 69, 88
1, 229500, Control_c, 0, 64, 62
1, 229502, Note_on_c, 0, 72, 88
1, 229503, Note_on_c, 0, 57, 80
1, 229506, Note_on_c, 0, 66, 99
1, 229507, Note_on_c, 0, 60, 71
1, 229515, Control_c, 0, 64, 65
1, 229518, Note_off_c, 0, 78, 65
1, 229526, Note_off_c, 0, 57, 70
1, 229530, Control_c, 0, 64, 71
1, 229530, Note_off_c, 0, 60, 64
1, 229545, Control_c, 0, 64, 92
1, 229559, Control_c, 0, 64, 127
1, 229597, Note_off_c, 0, 66, 66
1, 229601, Note_on_c, 0, 45, 82
1, 229637, Note_off_c, 0, 45, 64
1, 229677, Note_off_c, 0, 72, 61
1, 229698, Note_on_c, 0, 76, 96
1, 229708, Note_on_c, 0, 59, 80
1, 229727, Note_off_c, 0, 69, 62
1, 229743, Note_off_c, 0, 59, 64
1, 229797, Note_on_c, 0, 65, 94
1, 229804, Note_on_c, 0, 71, 81
1, 229804, Note_on_c, 0, 67, 86
1, 229824, Note_off_c, 0, 76, 62
1, 229846, Note_on_c, 0, 72, 18
1, 229847, Note_off_c, 0, 72, 127
1, 229867, Note_on_c, 0, 48, 62
1, 229867, Note_off_c, 0, 71, 64
1, 229882, Note_on_c, 0, 47, 17
1, 229902, Note_on_c, 0, 74, 103
1, 229905, Note_off_c, 0, 48, 62
1, 229911, Note_off_c, 0, 47, 48
1, 229916, Note_off_c, 0, 65, 62
1, 229936, Note_off_c, 0, 67, 63
1, 229993, Note_on_c, 0, 36, 87
1, 229998, Control_c, 0, 64, 115
1, 230010, Note_on_c, 0, 68, 57
1, 230011, Note_on_c, 0, 70, 94
1, 230012, Note_on_c, 0, 67, 98
1, 230013, Control_c, 0, 64, 62
1, 230015, Note_on_c, 0, 64, 93
1, 230027, Control_c, 0, 64, 0
1, 230039, Note_on_c, 0, 71, 58
1, 230039, Note_off_c, 0, 74, 64
1, 230062, Note_off_c, 0, 64, 65
1, 230071, Note_off_c, 0, 71, 0
1, 230087, Control_c, 0, 64, 64
1, 230087, Note_on_c, 0, 71, 43
1, 230087, Note_off_c, 0, 68, 53
1, 230094, Note_off_c, 0, 67, 62
1, 230102, Control_c, 0, 64, 89
1, 230109, Note_off_c, 0, 70, 65
1, 230112, Note_on_c, 0, 48, 93
1, 230117, Note_off_c, 0, 71, 59
1, 230117, Control_c, 0, 64, 127
1, 230138, Note_off_c, 0, 36, 63
1, 230161, Note_off_c, 0, 48, 66
1, 230248, Note_on_c, 0, 58, 90
1, 230278, Note_on_c, 0, 85, 92
1, 230326, Note_on_c, 0, 64, 56
1, 230335, Note_off_c, 0, 58, 63
1, 230368, Control_c, 0, 64, 72
1, 230375, Note_on_c, 0, 77, 91
1, 230379, Note_on_c, 0, 61, 74
1, 230379, Note_on_c, 0, 67, 74
1, 230383, Control_c, 0, 64, 28
1, 230384, Note_on_c, 0, 80, 83
1, 230385, Note_on_c, 0, 73, 103
1, 230398, Control_c, 0, 64, 0
1, 230409, Note_off_c, 0, 85, 61
1, 230413, Control_c, 0, 64, 33
1, 230427, Control_c, 0, 64, 63
1, 230442, Control_c, 0, 64, 84
1, 230457, Control_c, 0, 64, 127
1, 230485, Note_on_c, 0, 56, 84
1, 230487, Note_off_c, 0, 67, 62
1, 230496, Note_off_c, 0, 64, 64
1, 230503, Note_off_c, 0, 61, 63
1, 230505, Note_off_c, 0, 73, 64
1, 230528, Note_off_c, 0, 56, 63
1, 230531, Note_off_c, 0, 80, 47
1, 230585, Note_on_c, 0, 48, 93
1, 230631, Note_off_c, 0, 48, 65
1, 230671, Note_on_c, 0, 84, 96
1, 230707, Note_off_c, 0, 77, 58
1, 230748, Note_on_c, 0, 67, 16
1, 230771, Note_on_c, 0, 64, 89
1, 230776, Note_on_c, 0, 79, 93
1, 230776, Control_c, 0, 64, 77
1, 230780, Note_on_c, 0, 76, 98
1, 230783, Note_on_c, 0, 72, 99
1, 230789, Note_on_c, 0, 61, 22
1, 230791, Control_c, 0, 64, 50
1, 230794, Note_on_c, 0, 60, 71
1, 230799, Poly_aftertouch_c, 0, 65, 0
1, 230806, Control_c, 0, 64, 0
1, 230817, Note_on_c, 0, 81, 50
1, 230821, Control_c, 0, 64, 22
1, 230829, Note_off_c, 0, 84, 62
1, 230831, Note_off_c, 0, 61, 60
1, 230836, Control_c, 0, 64, 52
1, 230837, Note_off_c, 0, 81, 61
1, 230841, Note_off_c, 0, 67, 61
1, 230850, Control_c, 0, 64, 67
1, 230863, Note_off_c, 0, 79, 66
1, 230865, Control_c, 0, 64, 88
1, 230875, Note_on_c, 0, 58, 78
1, 230880, Control_c, 0, 64, 127
1, 230902, Note_off_c, 0, 64, 63
1, 230904, Note_on_c, 0, 56, 81
1, 230904, Note_off_c, 0, 60, 64
1, 230939, Note_off_c, 0, 58, 65
1, 230956, Note_off_c, 0, 56, 63
1, 230959, Note_off_c, 0, 76, 60
1, 231008, Note_on_c, 0, 82, 96
1, 231029, Note_off_c, 0, 72, 64
1, 231099, Note_off_c, 0, 82, 63
1, 231102, Note_on_c, 0, 78, 90
1, 231110, Note_on_c, 0, 70, 93
1, 231117, Note_on_c, 0, 73, 86
1, 231124, Note_on_c, 0, 77, 85
1, 231124, Note_off_c, 0, 78, 66
1, 231174, Note_off_c, 0, 77, 59
1, 231205, Note_on_c, 0, 80, 95
1, 231211, Note_off_c, 0, 70, 63
1, 231211, Note_off_c, 0, 73, 67
1, 231219, Note_on_c, 0, 78, 28
1, 231252, Note_off_c, 0, 78, 49
1, 231253, Note_off_c, 0, 80, 68
1, 231298, Note_on_c, 0, 72, 100
1, 231300, Note_on_c, 0, 76, 97
1, 231304, Note_on_c, 0, 67, 98
1, 231346, Control_c, 0, 64, 77
1, 231361, Control_c, 0, 64, 0
1, 231421, Note_on_c, 0, 55, 65
1, 231421, Control_c, 0, 64, 48
1, 231436, Control_c, 0, 64, 68
1, 231442, Poly_aftertouch_c, 0, 54, 127
1, 231451, Control_c, 0, 64, 81
1, 231466, Control_c, 0, 64, 120
1, 231473, Poly_aftertouch_c, 0, 54, 0
1, 231473, Note_on_c, 0, 58, 87
1, 231480, Control_c, 0, 64, 127
1, 231563, Note_off_c, 0, 76, 62
1, 231569, Note_on_c, 0, 48, 95
1, 231590, Note_off_c, 0, 58, 60
1, 231602, Note_off_c, 0, 55, 62
1, 231607, Note_on_c, 0, 79, 95
1, 231607, Note_off_c, 0, 48, 66
1, 231634, Note_off_c, 0, 67, 59
1, 231656, Note_off_c, 0, 72, 55
1, 231724, Note_on_c, 0, 63, 103
1, 231724, Note_on_c, 0, 73, 104
1, 231728, Note_on_c, 0, 65, 97
1, 231759, Note_off_c, 0, 63, 67
1, 231782, Note_off_c, 0, 79, 61
1, 231855, Note_on_c, 0, 58, 96
1, 231885, Note_off_c, 0, 58, 69
1, 231902, Note_on_c, 0, 57, 68
1, 231926, Note_off_c, 0, 57, 56
1, 231926, Note_off_c, 0, 65, 56
1, 231974, Note_on_c, 0, 48, 93
1, 231994, Note_off_c, 0, 48, 68
1, 232046, Note_on_c, 0, 79, 101
1, 232051, Note_off_c, 0, 73, 70
1, 232154, Control_c, 0, 64, 94
1, 232168, Note_on_c, 0, 64, 56
1, 232169, Control_c, 0, 64, 70
1, 232175, Note_on_c, 0, 70, 95
1, 232183, Note_on_c, 0, 60, 83
1, 232183, Note_on_c, 0, 72, 99
1, 232184, Control_c, 0, 64, 64
1, 232190, Note_on_c, 0, 67, 95
1, 232198, Control_c, 0, 64, 69
1, 232202, Note_off_c, 0, 70, 65
1, 232210, Note_off_c, 0, 64, 65
1, 232213, Control_c, 0, 64, 81
1, 232221, Note_off_c, 0, 60, 62
1, 232229, Control_c, 0, 64, 127
1, 232248, Note_off_c, 0, 79, 59
1, 232250, Note_on_c, 0, 61, 4
1, 232278, Note_off_c, 0, 61, 50
1, 232281, Poly_aftertouch_c, 0, 62, 0
1, 232347, Note_on_c, 0, 76, 99
1, 232354, Note_on_c, 0, 55, 107
1, 232368, Note_off_c, 0, 72, 65
1, 232372, Note_off_c, 0, 55, 75
1, 232392, Note_off_c, 0, 67, 66
1, 232395, Note_off_c, 0, 76, 67
1, 232614, Control_c, 0, 64, 94
1, 232618, Note_on_c, 0, 71, 96
1, 232619, Note_on_c, 0, 67, 99
1, 232622, Note_on_c, 0, 64, 103
1, 232629, Control_c, 0, 64, 57
1, 232630, Note_on_c, 0, 40, 95
1, 232636, Note_on_c, 0, 28, 88
1, 232644, Control_c, 0, 64, 0
1, 232688, Control_c, 0, 64, 51
1, 232696, Note_off_c, 0, 28, 63
1, 232702, Note_off_c, 0, 64, 67
1, 232703, Control_c, 0, 64, 67
1, 232718, Control_c, 0, 64, 82
1, 232728, Note_off_c, 0, 40, 65
1, 232733, Control_c, 0, 64, 127
1, 232735, Poly_aftertouch_c, 0, 26, 0
1, 232738, Note_off_c, 0, 67, 66
1, 232744, Note_off_c, 0, 71, 64
1, 232966, Note_on_c, 0, 75, 115
1, 232973, Note_on_c, 0, 85, 91
1, 232974, Note_on_c, 0, 47, 68
1, 233026, Note_off_c, 0, 85, 59
1, 233032, Note_off_c, 0, 47, 62
1, 233062, Note_off_c, 0, 75, 51
1, 233069, Note_on_c, 0, 52, 47
1, 233103, Note_on_c, 0, 76, 91
1, 233104, Note_off_c, 0, 52, 53
1, 233110, Note_on_c, 0, 79, 88
1, 233236, Note_off_c, 0, 79, 65
1, 233238, Note_off_c, 0, 76, 61
1, 233241, Note_on_c, 0, 73, 104
1, 233241, Note_on_c, 0, 83, 91
1, 233295, Note_on_c, 0, 82, 28
1, 233301, Note_off_c, 0, 83, 57
1, 233317, Note_off_c, 0, 73, 57
1, 233332, Note_off_c, 0, 82, 30
1, 233342, Note_on_c, 0, 74, 85
1, 233348, Note_on_c, 0, 78, 80
1, 233352, Note_on_c, 0, 59, 97
1, 233354, Note_on_c, 0, 52, 81
1, 233357, Note_on_c, 0, 47, 82
1, 233387, Note_off_c, 0, 47, 65
1, 233396, Note_off_c, 0, 59, 66
1, 233404, Note_off_c, 0, 52, 66
1, 233440, Note_off_c, 0, 78, 63
1, 233460, Note_on_c, 0, 81, 85
1, 233464, Note_on_c, 0, 71, 98
1, 233484, Note_off_c, 0, 74, 61
1, 233519, Note_off_c, 0, 71, 67
1, 233528, Note_off_c, 0, 81, 64
1, 233556, Note_on_c, 0, 74, 88
1, 233588, Note_on_c, 0, 76, 45
1, 233611, Note_off_c, 0, 76, 55
1, 233663, Note_off_c, 0, 74, 65
1, 233664, Note_on_c, 0, 70, 95
1, 233675, Note_on_c, 0, 80, 81
1, 233749, Note_on_c, 0, 73, 58
1, 233751, Note_off_c, 0, 70, 61
1, 233751, Note_off_c, 0, 80, 60
1, 233752, Note_on_c, 0, 59, 86
1, 233752, Note_on_c, 0, 64, 90
1, 233768, Note_on_c, 0, 72, 71
1, 233771, Note_off_c, 0, 73, 40
1, 233781, Note_off_c, 0, 59, 66
1, 233783, Note_off_c, 0, 64, 67
1, 233788, Note_on_c, 0, 71, 51
1, 233789, Note_off_c, 0, 71, 127
1, 233851, Note_on_c, 0, 78, 82
1, 233853, Note_on_c, 0, 69, 83
1, 233856, Note_off_c, 0, 72, 65
1, 233909, Note_off_c, 0, 69, 64
1, 233928, Note_on_c, 0, 72, 78
1, 233944, Note_off_c, 0, 78, 59
1, 234003, Note_off_c, 0, 72, 61
1, 234025, Note_on_c, 0, 66, 94
1, 234029, Note_on_c, 0, 76, 79
1, 234082, Control_c, 0, 64, 103
1, 234083, Note_off_c, 0, 66, 65
1, 234097, Control_c, 0, 64, 63
1, 234108, Note_off_c, 0, 76, 43
1, 234109, Note_on_c, 0, 71, 80
1, 234111, Note_on_c, 0, 67, 82
1, 234111, Control_c, 0, 64, 0
1, 234122, Note_on_c, 0, 59, 95
1, 234126, Note_on_c, 0, 52, 85
1, 234126, Note_on_c, 0, 47, 81
1, 234150, Note_off_c, 0, 59, 67
1, 234156, Control_c, 0, 64, 59
1, 234157, Note_off_c, 0, 67, 67
1, 234166, Note_off_c, 0, 71, 67
1, 234171, Note_off_c, 0, 52, 65
1, 234171, Control_c, 0, 64, 74
1, 234177, Note_off_c, 0, 47, 64
1, 234186, Control_c, 0, 64, 127
1, 234193, Note_on_c, 0, 50, 2
1, 234238, Note_off_c, 0, 50, 47
1, 234317, Note_on_c, 0, 75, 105
1, 234320, Note_on_c, 0, 85, 91
1, 234402, Note_off_c, 0, 75, 58
1, 234402, Note_off_c, 0, 85, 55
1, 234417, Note_on_c, 0, 52, 90
1, 234418, Note_on_c, 0, 40, 81
1, 234418, Note_on_c, 0, 47, 86
1, 234421, Note_on_c, 0, 76, 87
1, 234424, Note_on_c, 0, 79, 80
1, 234438, Note_off_c, 0, 52, 73
1, 234450, Note_off_c, 0, 40, 67
1, 234450, Note_off_c, 0, 47, 65
1, 234516, Note_off_c, 0, 76, 64
1, 234520, Note_off_c, 0, 79, 64
1, 234535, Note_on_c, 0, 83, 82
1, 234539, Note_on_c, 0, 73, 98
1, 234579, Note_off_c, 0, 83, 64
1, 234597, Note_off_c, 0, 73, 57
1, 234627, Note_on_c, 0, 78, 79
1, 234629, Note_on_c, 0, 74, 79
1, 234719, Note_off_c, 0, 78, 63
1, 234735, Note_on_c, 0, 81, 85
1, 234739, Note_off_c, 0, 74, 60
1, 234741, Note_on_c, 0, 71, 96
1, 234741, Control_c, 0, 64, 71
1, 234756, Control_c, 0, 64, 43
1, 234771, Control_c, 0, 64, 0
1, 234778, Note_on_c, 0, 28, 74
1, 234779, Note_on_c, 0, 40, 87
1, 234786, Control_c, 0, 64, 27
1, 234798, Note_off_c, 0, 71, 65
1, 234801, Control_c, 0, 64, 55
1, 234812, Note_off_c, 0, 28, 64
1, 234815, Control_c, 0, 64, 66
1, 234817, Note_off_c, 0, 81, 65
1, 234819, Note_on_c, 0, 73, 89
1, 234830, Note_off_c, 0, 40, 64
1, 234830, Control_c, 0, 64, 78
1, 234841, Note_on_c, 0, 76, 56
1, 234845, Control_c, 0, 64, 119
1, 234860, Control_c, 0, 64, 127
1, 234862, Note_off_c, 0, 76, 62
1, 234888, Note_off_c, 0, 73, 66
1, 234922, Note_on_c, 0, 70, 95
1, 234934, Note_on_c, 0, 80, 62
1, 234958, Note_on_c, 0, 78, 52
1, 234970, Note_off_c, 0, 80, 66
1, 235022, Note_off_c, 0, 78, 37
1, 235033, Note_on_c, 0, 73, 51
1, 235035, Note_on_c, 0, 71, 80
1, 235056, Note_on_c, 0, 55, 61
1, 235074, Note_off_c, 0, 70, 61
1, 235084, Note_on_c, 0, 53, 49
1, 235086, Note_off_c, 0, 73, 64
1, 235098, Note_on_c, 0, 67, 92
1, 235102, Note_off_c, 0, 55, 65
1, 235104, Note_on_c, 0, 77, 83
1, 235104, Note_off_c, 0, 71, 61
1, 235113, Note_off_c, 0, 53, 56
1, 235122, Poly_aftertouch_c, 0, 43, 0
1, 235147, Poly_aftertouch_c, 0, 43, 0
1, 235192, Note_off_c, 0, 77, 59
1, 235201, Note_on_c, 0, 68, 84
1, 235205, Note_off_c, 0, 67, 64
1, 235210, Note_on_c, 0, 71, 61
1, 235211, Note_on_c, 0, 72, 56
1, 235216, Note_on_c, 0, 54, 63
1, 235224, Note_on_c, 0, 59, 81
1, 235226, Note_on_c, 0, 48, 78
1, 235247, Note_off_c, 0, 59, 68
1, 235252, Note_off_c, 0, 72, 61
1, 235254, Note_off_c, 0, 48, 66
1, 235262, Note_off_c, 0, 54, 65
1, 235283, Note_off_c, 0, 71, 54
1, 235317, Note_on_c, 0, 74, 76
1, 235324, Note_on_c, 0, 64, 80
1, 235325, Note_on_c, 0, 65, 77
1, 235328, Note_off_c, 0, 68, 61
1, 235361, Note_off_c, 0, 64, 61
1, 235365, Note_off_c, 0, 65, 55
1, 235387, Note_off_c, 0, 74, 0
1, 235408, Note_on_c, 0, 67, 74
1, 235411, Poly_aftertouch_c, 0, 74, 0
1, 235414, Note_on_c, 0, 66, 41
1, 235453, Note_off_c, 0, 66, 49
1, 235471, Note_off_c, 0, 67, 64
1, 235485, Note_on_c, 0, 63, 97
1, 235485, Note_on_c, 0, 73, 74
1, 235541, Note_off_c, 0, 63, 65
1, 235546, Note_off_c, 0, 73, 64
1, 235551, Control_c, 0, 64, 76
1, 235565, Control_c, 0, 64, 19
1, 235573, Note_on_c, 0, 43, 97
1, 235575, Note_on_c, 0, 31, 79
1, 235576, Note_on_c, 0, 64, 92
1, 235579, Note_on_c, 0, 67, 86
1, 235580, Control_c, 0, 64, 0
1, 235604, Note_on_c, 0, 70, 62
1, 235606, Note_off_c, 0, 31, 68
1, 235612, Note_off_c, 0, 64, 68
1, 235621, Note_off_c, 0, 43, 66
1, 235624, Note_off_c, 0, 67, 67
1, 235625, Control_c, 0, 64, 65
1, 235632, Note_off_c, 0, 70, 66
1, 235639, Control_c, 0, 64, 88
1, 235654, Control_c, 0, 64, 127
1, 235822, Note_on_c, 0, 78, 107
1, 235829, Note_on_c, 0, 88, 88
1, 235831, Note_on_c, 0, 80, 87
1, 235844, Note_off_c, 0, 80, 71
1, 235855, Note_on_c, 0, 52, 20
1, 235855, Note_off_c, 0, 88, 59
1, 235858, Note_on_c, 0, 84, 37
1, 235859, Note_off_c, 0, 84, 127
1, 235869, Note_off_c, 0, 78, 63
1, 235893, Note_off_c, 0, 52, 51
1, 235918, Note_on_c, 0, 80, 65
1, 235924, Note_on_c, 0, 83, 80
1, 235930, Poly_aftertouch_c, 0, 55, 127
1, 235932, Note_on_c, 0, 79, 87
1, 235936, Note_off_c, 0, 80, 39
1, 235964, Poly_aftertouch_c, 0, 55, 0
1, 236010, Note_off_c, 0, 83, 62
1, 236033, Note_on_c, 0, 86, 84
1, 236035, Note_off_c, 0, 79, 60
1, 236036, Note_on_c, 0, 76, 97
1, 236099, Note_off_c, 0, 86, 64
1, 236125, Note_on_c, 0, 55, 71
1, 236126, Note_on_c, 0, 80, 78
1, 236126, Note_off_c, 0, 76, 0
1, 236133, Note_on_c, 0, 50, 89
1, 236134, Note_on_c, 0, 62, 92
1, 236144, Note_on_c, 0, 78, 93
1, 236156, Poly_aftertouch_c, 0, 76, 0
1, 236160, Note_on_c, 0, 81, 68
1, 236174, Note_on_c, 0, 82, 29
1, 236177, Note_off_c, 0, 50, 66
1, 236183, Note_off_c, 0, 55, 63
1, 236202, Note_off_c, 0, 62, 67
1, 236211, Note_off_c, 0, 82, 42
1, 236216, Note_off_c, 0, 81, 56
1, 236231, Note_off_c, 0, 78, 62
1, 236231, Note_off_c, 0, 80, 62
1, 236246, Note_on_c, 0, 85, 85
1, 236252, Note_on_c, 0, 75, 104
1, 236289, Note_off_c, 0, 85, 67
1, 236326, Note_on_c, 0, 78, 77
1, 236386, Note_off_c, 0, 75, 62
1, 236392, Poly_aftertouch_c, 0, 66, 127
1, 236416, Note_off_c, 0, 78, 62
1, 236422, Note_on_c, 0, 73, 102
1, 236428, Note_on_c, 0, 83, 81
1, 236454, Note_on_c, 0, 82, 53
1, 236475, Note_off_c, 0, 83, 63
1, 236497, Note_off_c, 0, 82, 45
1, 236499, Note_on_c, 0, 76, 82
1, 236501, Note_on_c, 0, 67, 86
1, 236502, Note_on_c, 0, 62, 78
1, 236504, Note_off_c, 0, 73, 63
1, 236529, Note_off_c, 0, 67, 68
1, 236543, Note_on_c, 0, 78, 45
1, 236544, Note_off_c, 0, 62, 67
1, 236552, Poly_aftertouch_c, 0, 66, 0
1, 236574, Note_off_c, 0, 78, 58
1, 236597, Note_on_c, 0, 71, 95
1, 236601, Note_on_c, 0, 81, 82
1, 236606, Note_off_c, 0, 76, 65
1, 236652, Note_off_c, 0, 71, 66
1, 236690, Note_on_c, 0, 73, 89
1, 236690, Note_off_c, 0, 81, 64
1, 236717, Note_on_c, 0, 76, 54
1, 236724, Note_on_c, 0, 78, 14
1, 236744, Note_on_c, 0, 74, 44
1, 236759, Note_off_c, 0, 73, 63
1, 236759, Note_off_c, 0, 76, 64
1, 236766, Control_c, 0, 64, 91
1, 236767, Note_off_c, 0, 74, 56
1, 236771, Note_off_c, 0, 78, 34
1, 236774, Note_on_c, 0, 80, 84
1, 236781, Note_on_c, 0, 70, 97
1, 236781, Control_c, 0, 64, 84
1, 236794, Note_off_c, 0, 80, 68
1, 236795, Control_c, 0, 64, 93
1, 236810, Note_on_c, 0, 79, 70
1, 236810, Control_c, 0, 64, 127
1, 236831, Note_on_c, 0, 50, 77
1, 236833, Note_on_c, 0, 55, 81
1, 236833, Note_on_c, 0, 62, 76
1, 236838, Note_off_c, 0, 79, 66
1, 236853, Note_on_c, 0, 71, 86
1, 236859, Note_off_c, 0, 62, 69
1, 236860, Note_on_c, 0, 74, 78
1, 236860, Note_off_c, 0, 55, 68
1, 236872, Note_off_c, 0, 70, 64
1, 236874, Note_on_c, 0, 69, 35
1, 236878, Note_off_c, 0, 50, 62
1, 236887, Note_off_c, 0, 71, 67
1, 236901, Note_off_c, 0, 74, 67
1, 236904, Note_off_c, 0, 69, 53
1, 237029, Note_on_c, 0, 78, 109
1, 237036, Note_on_c, 0, 88, 87
1, 237063, Control_c, 0, 64, 88
1, 237074, Note_on_c, 0, 80, 27
1, 237077, Control_c, 0, 64, 62
1, 237089, Note_on_c, 0, 55, 86
1, 237091, Note_on_c, 0, 43, 76
1, 237092, Control_c, 0, 64, 34
1, 237094, Note_on_c, 0, 50, 76
1, 237098, Note_off_c, 0, 80, 44
1, 237107, Control_c, 0, 64, 44
1, 237110, Note_off_c, 0, 88, 61
1, 237122, Control_c, 0, 64, 60
1, 237126, Note_on_c, 0, 83, 77
1, 237133, Note_on_c, 0, 79, 78
1, 237137, Control_c, 0, 64, 72
1, 237152, Control_c, 0, 64, 111
1, 237158, Note_off_c, 0, 55, 65
1, 237167, Control_c, 0, 64, 127
1, 237168, Note_off_c, 0, 78, 50
1, 237179, Note_off_c, 0, 50, 64
1, 237188, Note_off_c, 0, 83, 64
1, 237195, Note_off_c, 0, 43, 65
1, 237203, Note_off_c, 0, 79, 65
1, 237221, Note_on_c, 0, 86, 80
1, 237226, Note_on_c, 0, 76, 92
1, 237296, Note_off_c, 0, 86, 50
1, 237320, Note_on_c, 0, 80, 56
1, 237331, Note_off_c, 0, 76, 68
1, 237333, Note_on_c, 0, 78, 78
1, 237337, Note_on_c, 0, 81, 74
1, 237341, Note_off_c, 0, 80, 38
1, 237413, Note_off_c, 0, 81, 65
1, 237425, Note_off_c, 0, 78, 63
1, 237436, Note_on_c, 0, 31, 68
1, 237441, Note_on_c, 0, 43, 77
1, 237443, Note_on_c, 0, 85, 81
1, 237444, Note_on_c, 0, 75, 98
1, 237470, Note_off_c, 0, 31, 64
1, 237488, Note_off_c, 0, 43, 64
1, 237523, Note_on_c, 0, 76, 81
1, 237523, Note_off_c, 0, 75, 55
1, 237531, Note_on_c, 0, 79, 75
1, 237531, Note_off_c, 0, 85, 64
1, 237606, Note_off_c, 0, 76, 66
1, 237608, Note_on_c, 0, 83, 84
1, 237625, Note_off_c, 0, 79, 60
1, 237626, Note_on_c, 0, 73, 93
1, 237654, Note_off_c, 0, 83, 63
1, 237700, Note_on_c, 0, 78, 75
1, 237700, Note_on_c, 0, 74, 84
1, 237701, Note_off_c, 0, 73, 65
1, 237709, Note_on_c, 0, 55, 65
1, 237740, Note_off_c, 0, 55, 64
1, 237760, Poly_aftertouch_c, 0, 45, 127
1, 237775, Note_on_c, 0, 81, 81
1, 237775, Note_off_c, 0, 78, 64
1, 237791, Poly_aftertouch_c, 0, 45, 0
1, 237794, Note_on_c, 0, 71, 87
1, 237802, Note_off_c, 0, 74, 58
1, 237850, Note_off_c, 0, 81, 63
1, 237852, Note_off_c, 0, 71, 66
1, 237871, Note_on_c, 0, 74, 81
1, 237891, Note_on_c, 0, 64, 89
1, 237897, Note_on_c, 0, 52, 85
1, 237901, Note_on_c, 0, 57, 68
1, 237903, Note_on_c, 0, 76, 43
1, 237909, Note_off_c, 0, 64, 73
1, 237927, Note_off_c, 0, 76, 57
1, 237931, Note_off_c, 0, 57, 66
1, 237936, Note_off_c, 0, 52, 62
1, 237961, Note_off_c, 0, 74, 63
1, 237966, Note_on_c, 0, 70, 99
1, 237968, Note_on_c, 0, 80, 82
1, 237991, Note_on_c, 0, 78, 64
1, 238008, Note_off_c, 0, 78, 64
1, 238017, Note_off_c, 0, 70, 67
1, 238049, Note_off_c, 0, 80, 63
1, 238070, Note_on_c, 0, 71, 94
1, 238156, Note_off_c, 0, 71, 65
1, 238184, Note_on_c, 0, 76, 76
1, 238196, Note_on_c, 0, 66, 84
1, 238254, Note_off_c, 0, 66, 63
1, 238269, Note_off_c, 0, 76, 61
1, 238279, Control_c, 0, 64, 92
1, 238293, Control_c, 0, 64, 55
1, 238308, Control_c, 0, 64, 0
1, 238314, Note_on_c, 0, 68, 95
1, 238316, Note_on_c, 0, 47, 100
1, 238320, Note_on_c, 0, 35, 84
1, 238320, Note_on_c, 0, 71, 94
1, 238326, Note_on_c, 0, 67, 105
1, 238338, Control_c, 0, 64, 29
1, 238339, Note_on_c, 0, 70, 62
1, 238353, Control_c, 0, 64, 66
1, 238363, Note_off_c, 0, 70, 39
1, 238367, Control_c, 0, 64, 110
1, 238368, Note_off_c, 0, 67, 67
1, 238369, Note_off_c, 0, 35, 61
1, 238370, Note_on_c, 0, 73, 36
1, 238371, Note_off_c, 0, 68, 62
1, 238378, Note_off_c, 0, 47, 66
1, 238382, Note_off_c, 0, 71, 68
1, 238382, Control_c, 0, 64, 127
1, 238398, Note_off_c, 0, 73, 51
1, 238432, Poly_aftertouch_c, 0, 40, 0
1, 238588, Note_on_c, 0, 83, 90
1, 238589, Note_on_c, 0, 79, 97
1, 238589, Note_on_c, 0, 91, 91
1, 238601, Note_on_c, 0, 89, 79
1, 238629, Note_off_c, 0, 89, 47
1, 238636, Note_off_c, 0, 79, 66
1, 238639, Note_on_c, 0, 88, 24
1, 238640, Note_off_c, 0, 88, 127
1, 238642, Note_off_c, 0, 91, 63
1, 238651, Note_off_c, 0, 83, 65
1, 238762, Note_on_c, 0, 90, 94
1, 238763, Note_on_c, 0, 78, 106
1, 238767, Note_on_c, 0, 64, 82
1, 238771, Note_on_c, 0, 52, 81
1, 238774, Note_on_c, 0, 59, 79
1, 238787, Note_off_c, 0, 64, 72
1, 238809, Note_off_c, 0, 78, 66
1, 238809, Note_off_c, 0, 90, 66
1, 238810, Note_off_c, 0, 59, 68
1, 238836, Note_off_c, 0, 52, 66
1, 238911, Note_on_c, 0, 76, 96
1, 238918, Note_on_c, 0, 77, 92
1, 238919, Note_on_c, 0, 88, 84
1, 238920, Note_on_c, 0, 89, 79
1, 238938, Note_off_c, 0, 77, 68
1, 238946, Note_off_c, 0, 89, 60
1, 238955, Note_off_c, 0, 88, 61
1, 238964, Note_off_c, 0, 76, 65
1, 239012, Control_c, 0, 64, 74
1, 239027, Control_c, 0, 64, 52
1, 239040, Note_on_c, 0, 50, 90
1, 239042, Note_on_c, 0, 38, 75
1, 239042, Control_c, 0, 64, 49
1, 239048, Note_on_c, 0, 86, 99
1, 239049, Note_on_c, 0, 74, 101
1, 239053, Note_on_c, 0, 78, 92
1, 239057, Control_c, 0, 64, 61
1, 239072, Control_c, 0, 64, 78
1, 239075, Note_off_c, 0, 38, 67
1, 239086, Control_c, 0, 64, 127
1, 239089, Note_off_c, 0, 50, 66
1, 239089, Note_off_c, 0, 74, 67
1, 239100, Note_off_c, 0, 86, 65
1, 239105, Note_off_c, 0, 78, 63
1, 239223, Note_on_c, 0, 73, 100
1, 239224, Note_on_c, 0, 85, 94
1, 239247, Note_off_c, 0, 85, 67
1, 239253, Note_off_c, 0, 73, 68
1, 239267, Note_on_c, 0, 72, 33
1, 239298, Note_off_c, 0, 72, 54
1, 239361, Note_on_c, 0, 71, 99
1, 239364, Note_on_c, 0, 83, 93
1, 239379, Note_on_c, 0, 65, 91
1, 239387, Note_on_c, 0, 59, 82
1, 239393, Note_on_c, 0, 53, 85
1, 239397, Note_off_c, 0, 71, 69
1, 239402, Note_off_c, 0, 65, 69
1, 239402, Note_off_c, 0, 83, 65
1, 239425, Note_off_c, 0, 59, 65
1, 239437, Note_off_c, 0, 53, 66
1, 239489, Note_on_c, 0, 69, 97
1, 239492, Note_on_c, 0, 78, 92
1, 239500, Note_on_c, 0, 81, 74
1, 239504, Note_on_c, 0, 71, 75
1, 239519, Note_off_c, 0, 71, 70
1, 239523, Note_off_c, 0, 81, 68
1, 239530, Note_off_c, 0, 69, 66
1, 239590, Note_off_c, 0, 78, 61
1, 239613, Control_c, 0, 64, 78
1, 239628, Control_c, 0, 64, 19
1, 239638, Note_on_c, 0, 71, 57
1, 239641, Note_on_c, 0, 47, 100
1, 239643, Control_c, 0, 64, 0
1, 239644, Note_on_c, 0, 35, 86
1, 239648, Note_on_c, 0, 67, 97
1, 239649, Note_on_c, 0, 74, 86
1, 239650, Note_on_c, 0, 79, 95
1, 239658, Control_c, 0, 64, 34
1, 239673, Control_c, 0, 64, 63
1, 239686, Note_off_c, 0, 67, 68
1, 239687, Control_c, 0, 64, 85
1, 239690, Note_off_c, 0, 35, 60
1, 239700, Note_on_c, 0, 76, 25
1, 239702, Control_c, 0, 64, 127
1, 239703, Note_off_c, 0, 71, 65
1, 239705, Note_off_c, 0, 47, 66
1, 239713, Note_off_c, 0, 74, 66
1, 239732, Note_off_c, 0, 79, 67
1, 239736, Note_off_c, 0, 76, 40
1, 239841, Note_on_c, 0, 79, 92
1, 239844, Note_on_c, 0, 86, 86
1, 239844, Note_on_c, 0, 83, 84
1, 239847, Note_on_c, 0, 91, 76
1, 239864, Note_off_c, 0, 83, 73
1, 239866, Note_off_c, 0, 86, 67
1, 239872, Note_off_c, 0, 91, 67
1, 239874, Note_on_c, 0, 89, 48
1, 239874, Note_off_c, 0, 79, 67
1, 239903, Note_off_c, 0, 89, 38
1, 239984, Note_on_c, 0, 78, 103
1, 239991, Note_on_c, 0, 85, 79
1, 239993, Note_on_c, 0, 90, 85
1, 240005, Note_on_c, 0, 81, 67
1, 240014, Note_off_c, 0, 90, 68
1, 240019, Note_on_c, 0, 65, 80
1, 240020, Note_off_c, 0, 81, 67
1, 240021, Note_off_c, 0, 85, 58
1, 240022, Note_off_c, 0, 78, 66
1, 240028, Note_on_c, 0, 53, 84
1, 240041, Note_off_c, 0, 65, 71
1, 240058, Note_on_c, 0, 60, 24
1, 240073, Note_off_c, 0, 53, 64
1, 240091, Note_off_c, 0, 60, 49
1, 240125, Note_on_c, 0, 76, 103
1, 240127, Note_on_c, 0, 88, 92
1, 240130, Note_on_c, 0, 79, 95
1, 240148, Note_on_c, 0, 84, 70
1, 240176, Note_off_c, 0, 79, 62
1, 240177, Note_off_c, 0, 84, 64
1, 240195, Note_off_c, 0, 76, 61
1, 240201, Note_off_c, 0, 88, 63
1, 240236, Control_c, 0, 64, 70
1, 240251, Control_c, 0, 64, 57
1, 240266, Control_c, 0, 64, 61
1, 240274, Note_on_c, 0, 38, 86
1, 240274, Note_on_c, 0, 50, 105
1, 240281, Control_c, 0, 64, 73
1, 240295, Note_on_c, 0, 74, 102
1, 240295, Note_on_c, 0, 86, 102
1, 240296, Control_c, 0, 64, 127
1, 240306, Note_on_c, 0, 77, 96
1, 240311, Note_on_c, 0, 83, 86
1, 240320, Note_on_c, 0, 40, 26
1, 240342, Note_off_c, 0, 77, 68
1, 240348, Note_off_c, 0, 74, 67
1, 240354, Note_off_c, 0, 83, 61
1, 240357, Note_off_c, 0, 38, 62
1, 240365, Note_off_c, 0, 86, 64
1, 240371, Note_off_c, 0, 40, 47
1, 240376, Poly_aftertouch_c, 0, 44, 0
1, 240379, Note_off_c, 0, 50, 65
1, 240395, Poly_aftertouch_c, 0, 41, 0
1, 240401, Poly_aftertouch_c, 0, 44, 0
1, 240508, Note_on_c, 0, 72, 100
1, 240512, Note_on_c, 0, 76, 96
1, 240514, Note_on_c, 0, 81, 83
1, 240514, Note_on_c, 0, 84, 82
1, 240520, Note_on_c, 0, 83, 82
1, 240538, Note_off_c, 0, 76, 65
1, 240543, Note_off_c, 0, 81, 60
1, 240543, Note_off_c, 0, 83, 60
1, 240547, Note_off_c, 0, 84, 65
1, 240549, Note_off_c, 0, 72, 66
1, 240697, Note_on_c, 0, 71, 108
1, 240700, Note_on_c, 0, 79, 88
1, 240701, Note_on_c, 0, 74, 97
1, 240703, Note_on_c, 0, 83, 85
1, 240705, Note_on_c, 0, 81, 90
1, 240750, Note_on_c, 0, 55, 89
1, 240755, Note_on_c, 0, 62, 92
1, 240793, Note_off_c, 0, 62, 69
1, 240797, Note_off_c, 0, 55, 65
1, 240813, Note_off_c, 0, 74, 63
1, 240813, Note_off_c, 0, 83, 62
1, 240815, Note_off_c, 0, 71, 64
1, 240818, Note_off_c, 0, 81, 63
1, 240822, Note_off_c, 0, 79, 64
1, 240914, Note_on_c, 0, 69, 106
1, 240916, Note_on_c, 0, 79, 97
1, 240917, Note_on_c, 0, 77, 91
1, 240917, Note_on_c, 0, 72, 97
1, 241011, Note_off_c, 0, 72, 60
1, 241015, Note_off_c, 0, 79, 57
1, 241064, Note_off_c, 0, 77, 57
1, 241085, Note_off_c, 0, 69, 51
1, 241143, Note_on_c, 0, 75, 9
1, 241197, Note_off_c, 0, 75, 38
1, 241230, Control_c, 0, 64, 82
1, 241237, Note_on_c, 0, 73, 101
1, 241239, Note_on_c, 0, 79, 99
1, 241240, Note_on_c, 0, 75, 97
1, 241242, Note_on_c, 0, 67, 98
1, 241245, Control_c, 0, 64, 54
1, 241249, Note_on_c, 0, 72, 102
1, 241250, Note_on_c, 0, 48, 89
1, 241257, Note_on_c, 0, 43, 77
1, 241258, Note_on_c, 0, 36, 73
1, 241259, Control_c, 0, 64, 0
1, 241274, Control_c, 0, 64, 33
1, 241287, Note_on_c, 0, 38, 45
1, 241288, Note_off_c, 0, 38, 127
1, 241289, Control_c, 0, 64, 57
1, 241304, Control_c, 0, 64, 74
1, 241319, Control_c, 0, 64, 127
1, 241340, Note_off_c, 0, 67, 59
1, 241348, Note_off_c, 0, 73, 58
1, 241358, Poly_aftertouch_c, 0, 71, 0
1, 241371, Poly_aftertouch_c, 0, 39, 0
1, 241373, Note_off_c, 0, 79, 64
1, 241377, Note_off_c, 0, 72, 63
1, 241401, Note_off_c, 0, 75, 67
1, 241602, Note_on_c, 0, 82, 105
1, 241605, Note_on_c, 0, 91, 97
1, 241611, Note_on_c, 0, 94, 86
1, 241614, Note_on_c, 0, 92, 83
1, 241616, Note_off_c, 0, 36, 63
1, 241633, Note_off_c, 0, 92, 58
1, 241634, Note_off_c, 0, 43, 63
1, 241638, Note_off_c, 0, 48, 64
1, 241644, Note_on_c, 0, 95, 50
1, 241645, Note_off_c, 0, 95, 127
1, 241649, Note_on_c, 0, 83, 26
1, 241682, Note_off_c, 0, 94, 57
1, 241686, Note_off_c, 0, 83, 49
1, 241709, Poly_aftertouch_c, 0, 84, 0
1, 241736, Note_on_c, 0, 87, 80
1, 241742, Note_off_c, 0, 82, 62
1, 241742, Note_off_c, 0, 91, 63
1, 241771, Note_off_c, 0, 87, 61
1, 241853, Note_on_c, 0, 81, 109
1, 241856, Note_on_c, 0, 87, 102
1, 241862, Note_on_c, 0, 93, 86
1, 241866, Note_on_c, 0, 91, 88
1, 241881, Note_on_c, 0, 90, 54
1, 241893, Note_on_c, 0, 83, 36
1, 241894, Note_off_c, 0, 83, 127
1, 241900, Note_off_c, 0, 90, 60
1, 241903, Note_on_c, 0, 88, 30
1, 241919, Note_off_c, 0, 91, 59
1, 241920, Note_off_c, 0, 93, 65
1, 241927, Note_on_c, 0, 67, 82
1, 241927, Note_on_c, 0, 84, 58
1, 241933, Note_on_c, 0, 55, 74
1, 241934, Note_off_c, 0, 88, 49
1, 241942, Note_off_c, 0, 81, 60
1, 241948, Note_off_c, 0, 67, 71
1, 241948, Note_on_c, 0, 60, 70
1, 241953, Note_off_c, 0, 87, 58
1, 241957, Note_on_c, 0, 57, 46
1, 241966, Note_off_c, 0, 60, 64
1, 241974, Note_off_c, 0, 55, 65
1, 241987, Note_off_c, 0, 57, 35
1, 241995, Note_off_c, 0, 84, 65
1, 242023, Note_on_c, 0, 87, 101
1, 242026, Note_on_c, 0, 91, 99
1, 242028, Note_on_c, 0, 79, 100
1, 242091, Note_on_c, 0, 84, 95
1, 242116, Note_off_c, 0, 79, 66
1, 242127, Note_off_c, 0, 91, 65
1, 242127, Note_off_c, 0, 87, 61
1, 242141, Control_c, 0, 64, 69
1, 242145, Note_off_c, 0, 84, 67
1, 242156, Control_c, 0, 64, 55
1, 242165, Note_on_c, 0, 43, 100
1, 242167, Note_on_c, 0, 31, 82
1, 242171, Control_c, 0, 64, 60
1, 242181, Note_on_c, 0, 89, 88
1, 242185, Note_on_c, 0, 77, 105
1, 242186, Control_c, 0, 64, 68
1, 242193, Note_on_c, 0, 86, 83
1, 242197, Note_off_c, 0, 31, 66
1, 242199, Control_c, 0, 64, 97
1, 242210, Note_off_c, 0, 43, 65
1, 242213, Control_c, 0, 64, 127
1, 242222, Note_off_c, 0, 86, 62
1, 242237, Note_off_c, 0, 89, 65
1, 242242, Poly_aftertouch_c, 0, 38, 127
1, 242251, Note_off_c, 0, 77, 65
1, 242279, Poly_aftertouch_c, 0, 38, 0
1, 242302, Note_on_c, 0, 79, 52
1, 242365, Note_on_c, 0, 75, 101
1, 242366, Note_on_c, 0, 87, 86
1, 242396, Note_on_c, 0, 82, 51
1, 242419, Note_off_c, 0, 79, 57
1, 242425, Note_off_c, 0, 82, 53
1, 242431, Note_off_c, 0, 87, 65
1, 242434, Note_off_c, 0, 75, 63
1, 242451, Note_on_c, 0, 58, 40
1, 242467, Note_on_c, 0, 48, 46
1, 242476, Poly_aftertouch_c, 0, 76, 0
1, 242481, Note_off_c, 0, 58, 35
1, 242482, Note_on_c, 0, 47, 29
1, 242495, Note_off_c, 0, 48, 53
1, 242509, Note_on_c, 0, 82, 91
1, 242515, Note_on_c, 0, 74, 94
1, 242516, Poly_aftertouch_c, 0, 49, 0
1, 242517, Note_off_c, 0, 47, 53
1, 242517, Note_on_c, 0, 86, 94
1, 242519, Note_on_c, 0, 79, 80
1, 242530, Note_on_c, 0, 76, 75
1, 242555, Note_off_c, 0, 76, 43
1, 242597, Note_off_c, 0, 86, 63
1, 242607, Note_off_c, 0, 74, 63
1, 242607, Note_off_c, 0, 79, 63
1, 242634, Note_off_c, 0, 82, 63
1, 242652, Control_c, 0, 64, 110
1, 242667, Control_c, 0, 64, 77
1, 242682, Control_c, 0, 64, 73
1, 242687, Note_on_c, 0, 51, 91
1, 242693, Note_on_c, 0, 39, 89
1, 242696, Control_c, 0, 64, 90
1, 242699, Note_on_c, 0, 80, 83
1, 242701, Note_on_c, 0, 72, 104
1, 242702, Note_on_c, 0, 84, 102
1, 242711, Control_c, 0, 64, 127
1, 242752, Note_off_c, 0, 80, 63
1, 242755, Note_off_c, 0, 39, 65
1, 242777, Note_off_c, 0, 51, 64
1, 242788, Note_off_c, 0, 84, 59
1, 242816, Note_on_c, 0, 75, 90
1, 242819, Note_off_c, 0, 72, 59
1, 242899, Note_off_c, 0, 75, 66
1, 242900, Note_on_c, 0, 79, 94
1, 242906, Note_on_c, 0, 70, 108
1, 242923, Note_on_c, 0, 82, 64
1, 242947, Note_off_c, 0, 82, 68
1, 242959, Note_off_c, 0, 79, 60
1, 242968, Note_on_c, 0, 78, 14
1, 242969, Note_off_c, 0, 70, 66
1, 242980, Note_on_c, 0, 73, 90
1, 242998, Note_on_c, 0, 81, 33
1, 243005, Note_on_c, 0, 48, 76
1, 243005, Note_on_c, 0, 72, 84
1, 243009, Note_on_c, 0, 55, 72
1, 243010, Note_off_c, 0, 78, 41
1, 243012, Note_off_c, 0, 73, 57
1, 243027, Note_off_c, 0, 81, 52
1, 243048, Note_off_c, 0, 55, 67
1, 243063, Note_on_c, 0, 69, 99
1, 243068, Note_off_c, 0, 48, 65
1, 243069, Note_on_c, 0, 75, 78
1, 243069, Note_on_c, 0, 81, 81
1, 243078, Note_on_c, 0, 79, 75
1, 243080, Note_off_c, 0, 72, 65
1, 243122, Note_off_c, 0, 69, 64
1, 243126, Note_on_c, 0, 72, 79
1, 243132, Note_off_c, 0, 75, 58
1, 243137, Note_off_c, 0, 79, 56
1, 243143, Note_off_c, 0, 81, 63
1, 243194, Note_on_c, 0, 75, 40
1, 243212, Note_on_c, 0, 67, 100
1, 243212, Note_on_c, 0, 79, 77
1, 243233, Note_on_c, 0, 76, 77
1, 243247, Note_off_c, 0, 72, 64
1, 243272, Note_off_c, 0, 67, 68
1, 243277, Note_off_c, 0, 79, 65
1, 243301, Note_off_c, 0, 76, 63
1, 243312, Note_off_c, 0, 75, 63
1, 243349, Note_on_c, 0, 31, 84
1, 243349, Note_on_c, 0, 43, 98
1, 243352, Note_on_c, 0, 65, 102
1, 243358, Note_on_c, 0, 77, 82
1, 243386, Note_on_c, 0, 68, 46
1, 243391, Note_off_c, 0, 77, 60
1, 243400, Note_off_c, 0, 65, 67
1, 243403, Note_off_c, 0, 31, 63
1, 243418, Note_on_c, 0, 38, 3
1, 243422, Note_off_c, 0, 43, 65
1, 243422, Note_off_c, 0, 68, 63
1, 243460, Note_off_c, 0, 38, 46
1, 243505, Note_on_c, 0, 63, 98
1, 243515, Note_on_c, 0, 75, 82
1, 243519, Note_on_c, 0, 67, 61
1, 243519, Note_on_c, 0, 70, 71
1, 243558, Note_off_c, 0, 63, 65
1, 243564, Note_off_c, 0, 75, 63
1, 243570, Note_off_c, 0, 67, 56
1, 243591, Note_off_c, 0, 70, 61
1, 243626, Note_on_c, 0, 67, 88
1, 243630, Note_on_c, 0, 62, 96
1, 243630, Note_on_c, 0, 74, 92
1, 243653, Note_on_c, 0, 70, 35
1, 243683, Note_off_c, 0, 67, 65
1, 243683, Note_off_c, 0, 70, 54
1, 243683, Note_off_c, 0, 74, 65
1, 243685, Note_off_c, 0, 62, 67
1, 243686, Note_on_c, 0, 51, 86
1, 243696, Note_on_c, 0, 39, 83
1, 243709, Note_on_c, 0, 46, 45
1, 243711, Note_off_c, 0, 51, 68
1, 243734, Note_off_c, 0, 39, 64
1, 243738, Note_off_c, 0, 46, 55
1, 243763, Note_on_c, 0, 60, 99
1, 243766, Note_on_c, 0, 72, 91
1, 243807, Note_on_c, 0, 71, 34
1, 243808, Note_off_c, 0, 71, 127
1, 243825, Note_on_c, 0, 68, 15
1, 243829, Note_off_c, 0, 72, 59
1, 243843, Note_off_c, 0, 60, 59
1, 243871, Note_off_c, 0, 68, 42
1, 243921, Control_c, 0, 64, 66
1, 243935, Control_c, 0, 64, 0
1, 243939, Note_on_c, 0, 63, 97
1, 243939, Note_on_c, 0, 67, 87
1, 243939, Note_on_c, 0, 58, 99
1, 243941, Note_on_c, 0, 24, 88
1, 243941, Note_on_c, 0, 36, 99
1, 243942, Note_on_c, 0, 70, 88
1, 243951, Note_on_c, 0, 31, 61
1, 243973, Note_off_c, 0, 58, 65
1, 243979, Control_c, 0, 64, 16
1, 243994, Control_c, 0, 64, 68
1, 243996, Note_off_c, 0, 63, 64
1, 243999, Note_off_c, 0, 67, 66
1, 244001, Note_off_c, 0, 70, 65
1, 244009, Control_c, 0, 64, 98
1, 244024, Control_c, 0, 64, 127
1, 244140, Note_off_c, 0, 24, 59
1, 244184, Note_off_c, 0, 31, 59
1, 244199, Note_off_c, 0, 36, 64
1, 244268, Note_on_c, 0, 91, 103
1, 244270, Note_on_c, 0, 82, 108
1, 244286, Note_on_c, 0, 94, 78
1, 244369, Note_on_c, 0, 87, 86
1, 244378, Note_off_c, 0, 82, 62
1, 244378, Note_off_c, 0, 94, 30
1, 244381, Note_off_c, 0, 91, 60
1, 244410, Note_off_c, 0, 87, 65
1, 244464, Note_on_c, 0, 81, 102
1, 244468, Note_on_c, 0, 93, 91
1, 244473, Note_on_c, 0, 87, 92
1, 244485, Note_on_c, 0, 91, 72
1, 244493, Note_on_c, 0, 90, 52
1, 244503, Note_off_c, 0, 91, 43
1, 244505, Note_on_c, 0, 67, 86
1, 244509, Note_on_c, 0, 55, 75
1, 244513, Note_off_c, 0, 90, 61
1, 244515, Note_on_c, 0, 88, 37
1, 244524, Note_off_c, 0, 81, 65
1, 244524, Note_off_c, 0, 67, 71
1, 244526, Note_off_c, 0, 93, 65
1, 244533, Note_on_c, 0, 84, 90
1, 244536, Note_on_c, 0, 60, 62
1, 244542, Note_off_c, 0, 88, 53
1, 244554, Note_off_c, 0, 60, 62
1, 244554, Note_off_c, 0, 87, 59
1, 244554, Note_off_c, 0, 55, 65
1, 244614, Note_on_c, 0, 91, 90
1, 244619, Note_on_c, 0, 87, 86
1, 244620, Note_on_c, 0, 79, 99
1, 244679, Note_off_c, 0, 79, 66
1, 244695, Note_off_c, 0, 91, 63
1, 244702, Note_off_c, 0, 87, 61
1, 244739, Note_on_c, 0, 43, 95
1, 244739, Note_off_c, 0, 84, 61
1, 244745, Note_on_c, 0, 31, 77
1, 244753, Note_on_c, 0, 77, 98
1, 244755, Note_on_c, 0, 91, 50
1, 244756, Note_on_c, 0, 79, 91
1, 244759, Note_on_c, 0, 39, 38
1, 244762, Note_on_c, 0, 89, 70
1, 244772, Note_off_c, 0, 31, 65
1, 244781, Note_off_c, 0, 43, 67
1, 244784, Note_off_c, 0, 91, 64
1, 244798, Note_off_c, 0, 89, 67
1, 244799, Note_off_c, 0, 79, 45
1, 244808, Note_off_c, 0, 39, 53
1, 244823, Note_off_c, 0, 77, 63
1, 244877, Note_on_c, 0, 79, 52
1, 244913, Note_on_c, 0, 75, 98
1, 244915, Note_on_c, 0, 87, 86
1, 244925, Note_on_c, 0, 82, 23
1, 244959, Note_on_c, 0, 58, 84
1, 244964, Note_off_c, 0, 75, 66
1, 244967, Note_off_c, 0, 87, 66
1, 244971, Note_off_c, 0, 79, 62
1, 244977, Note_off_c, 0, 82, 49
1, 244983, Note_on_c, 0, 47, 80
1, 244990, Note_off_c, 0, 58, 65
1, 245008, Note_off_c, 0, 47, 66
1, 245045, Note_on_c, 0, 74, 105
1, 245045, Note_on_c, 0, 79, 77
1, 245049, Note_on_c, 0, 82, 94
1, 245051, Note_on_c, 0, 86, 91
1, 245114, Note_off_c, 0, 86, 65
1, 245117, Note_off_c, 0, 74, 66
1, 245123, Note_off_c, 0, 79, 65
1, 245129, Note_on_c, 0, 46, 45
1, 245148, Note_off_c, 0, 82, 63
1, 245152, Control_c, 0, 64, 100
1, 245167, Control_c, 0, 64, 63
1, 245181, Control_c, 0, 64, 0
1, 245191, Note_on_c, 0, 51, 102
1, 245195, Control_c, 0, 64, 17
1, 245205, Note_on_c, 0, 39, 87
1, 245210, Control_c, 0, 64, 51
1, 245213, Note_on_c, 0, 72, 98
1, 245215, Note_on_c, 0, 84, 94
1, 245224, Control_c, 0, 64, 68
1, 245233, Note_on_c, 0, 83, 75
1, 245238, Note_off_c, 0, 39, 66
1, 245238, Note_off_c, 0, 46, 63
1, 245239, Control_c, 0, 64, 116
1, 245249, Note_off_c, 0, 83, 68
1, 245254, Control_c, 0, 64, 127
1, 245258, Note_off_c, 0, 51, 65
1, 245278, Note_off_c, 0, 72, 61
1, 245280, Note_off_c, 0, 84, 65
1, 245281, Note_on_c, 0, 77, 5
1, 245282, Note_off_c, 0, 77, 127
1, 245311, Note_on_c, 0, 75, 89
1, 245343, Note_on_c, 0, 78, 27
1, 245371, Note_off_c, 0, 78, 0
1, 245388, Poly_aftertouch_c, 0, 78, 0
1, 245391, Note_on_c, 0, 82, 79
1, 245398, Note_on_c, 0, 70, 105
1, 245405, Note_on_c, 0, 78, 22
1, 245416, Note_off_c, 0, 75, 60
1, 245457, Note_off_c, 0, 70, 65
1, 245463, Note_off_c, 0, 82, 66
1, 245463, Note_off_c, 0, 78, 60
1, 245472, Poly_aftertouch_c, 0, 79, 127
1, 245476, Note_on_c, 0, 73, 94
1, 245498, Note_on_c, 0, 55, 78
1, 245500, Note_on_c, 0, 48, 73
1, 245504, Poly_aftertouch_c, 0, 79, 0
1, 245539, Note_off_c, 0, 73, 54
1, 245549, Note_on_c, 0, 72, 75
1, 245551, Note_off_c, 0, 55, 64
1, 245566, Note_off_c, 0, 48, 66
1, 245571, Note_on_c, 0, 81, 84
1, 245576, Note_on_c, 0, 69, 101
1, 245612, Note_on_c, 0, 75, 30
1, 245639, Note_on_c, 0, 79, 3
1, 245640, Note_off_c, 0, 79, 127
1, 245644, Note_off_c, 0, 69, 63
1, 245664, Poly_aftertouch_c, 0, 76, 0
1, 245666, Note_off_c, 0, 81, 65
1, 245737, Note_on_c, 0, 67, 105
1, 245737, Note_on_c, 0, 79, 94
1, 245755, Note_on_c, 0, 76, 76
1, 245761, Note_off_c, 0, 72, 63
1, 245788, Note_off_c, 0, 75, 39
1, 245796, Control_c, 0, 64, 77
1, 245801, Note_off_c, 0, 76, 56
1, 245810, Note_off_c, 0, 67, 64
1, 245811, Control_c, 0, 64, 61
1, 245814, Note_off_c, 0, 79, 64
1, 245841, Control_c, 0, 64, 67
1, 245855, Control_c, 0, 64, 87
1, 245870, Control_c, 0, 64, 127
1, 245874, Note_on_c, 0, 43, 101
1, 245875, Note_on_c, 0, 31, 90
1, 245883, Note_on_c, 0, 65, 104
1, 245883, Note_on_c, 0, 77, 92
1, 245903, Note_on_c, 0, 68, 67
1, 245903, Note_on_c, 0, 76, 72
1, 245904, Note_off_c, 0, 76, 127
1, 245908, Note_on_c, 0, 38, 47
1, 245916, Note_on_c, 0, 74, 49
1, 245920, Note_off_c, 0, 68, 64
1, 245922, Note_on_c, 0, 39, 36
1, 245922, Note_on_c, 0, 41, 30
1, 245923, Note_off_c, 0, 41, 127
1, 245937, Note_off_c, 0, 74, 61
1, 245937, Note_off_c, 0, 77, 66
1, 245940, Note_off_c, 0, 65, 59
1, 245946, Note_off_c, 0, 38, 61
1, 245949, Note_off_c, 0, 31, 63
1, 245959, Note_off_c, 0, 39, 52
1, 245984, Note_off_c, 0, 43, 64
1, 246076, Note_on_c, 0, 63, 103
1, 246077, Note_on_c, 0, 67, 69
1, 246078, Note_on_c, 0, 75, 92
1, 246090, Note_on_c, 0, 70, 74
1, 246142, Note_off_c, 0, 63, 67
1, 246151, Note_off_c, 0, 75, 64
1, 246192, Note_off_c, 0, 67, 52
1, 246192, Note_off_c, 0, 70, 60
1, 246244, Note_on_c, 0, 67, 90
1, 246251, Note_on_c, 0, 62, 108
1, 246251, Note_on_c, 0, 74, 100
1, 246259, Note_on_c, 0, 70, 85
1, 246315, Note_off_c, 0, 70, 64
1, 246321, Note_on_c, 0, 46, 91
1, 246324, Note_on_c, 0, 39, 80
1, 246326, Note_on_c, 0, 51, 101
1, 246330, Note_off_c, 0, 74, 65
1, 246357, Note_off_c, 0, 62, 62
1, 246360, Note_off_c, 0, 67, 62
1, 246363, Note_off_c, 0, 51, 68
1, 246384, Note_off_c, 0, 46, 66
1, 246390, Note_off_c, 0, 39, 64
1, 246466, Note_on_c, 0, 60, 102
1, 246472, Note_on_c, 0, 72, 96
1, 246476, Note_on_c, 0, 63, 86
1, 246505, Note_off_c, 0, 72, 64
1, 246514, Note_off_c, 0, 60, 68
1, 246560, Note_on_c, 0, 62, 12
1, 246592, Note_off_c, 0, 62, 45
1, 246597, Note_off_c, 0, 63, 27
1, 246622, Note_on_c, 0, 67, 28
1, 246627, Note_on_c, 0, 64, 51
1, 246678, Poly_aftertouch_c, 0, 65, 0
1, 246682, Note_off_c, 0, 64, 55
1, 246707, Note_off_c, 0, 67, 0
1, 246716, Poly_aftertouch_c, 0, 29, 127
1, 246721, Note_on_c, 0, 63, 96
1, 246721, Note_on_c, 0, 67, 59
1, 246721, Note_on_c, 0, 70, 96
1, 246723, Note_on_c, 0, 58, 105
1, 246724, Note_on_c, 0, 37, 115
1, 246724, Control_c, 0, 64, 70
1, 246728, Note_on_c, 0, 25, 94
1, 246738, Control_c, 0, 64, 0
1, 246749, Note_on_c, 0, 27, 57
1, 246767, Note_off_c, 0, 58, 67
1, 246780, Note_off_c, 0, 27, 54
1, 246783, Control_c, 0, 64, 39
1, 246797, Control_c, 0, 64, 64
1, 246798, Poly_aftertouch_c, 0, 29, 0
1, 246798, Note_off_c, 0, 70, 58
1, 246804, Note_off_c, 0, 63, 64
1, 246804, Note_off_c, 0, 67, 64
1, 246812, Control_c, 0, 64, 74
1, 246827, Control_c, 0, 64, 91
1, 246842, Control_c, 0, 64, 127
1, 246947, Note_off_c, 0, 25, 59
1, 247004, Note_off_c, 0, 37, 61
1, 247192, Note_on_c, 0, 82, 106
1, 247195, Note_on_c, 0, 85, 103
1, 247196, Note_on_c, 0, 94, 106
1, 247339, Note_off_c, 0, 82, 61
1, 247347, Note_off_c, 0, 94, 63
1, 247367, Note_off_c, 0, 85, 60
1, 247451, Note_on_c, 0, 93, 97
1, 247453, Note_on_c, 0, 81, 109
1, 247489, Note_on_c, 0, 85, 44
1, 247505, Note_off_c, 0, 81, 68
1, 247514, Note_off_c, 0, 85, 39
1, 247521, Note_off_c, 0, 93, 66
1, 247522, Note_on_c, 0, 63, 79
1, 247522, Note_on_c, 0, 75, 94
1, 247525, Note_on_c, 0, 70, 69
1, 247560, Note_off_c, 0, 75, 66
1, 247563, Note_off_c, 0, 70, 63
1, 247582, Note_off_c, 0, 63, 64
1, 247610, Note_on_c, 0, 91, 96
1, 247615, Note_on_c, 0, 79, 97
1, 247628, Note_on_c, 0, 81, 73
1, 247642, Note_off_c, 0, 81, 70
1, 247660, Note_off_c, 0, 79, 68
1, 247668, Note_off_c, 0, 91, 66
1, 247737, Note_on_c, 0, 67, 94
1, 247740, Note_on_c, 0, 55, 87
1, 247746, Note_on_c, 0, 89, 95
1, 247752, Note_on_c, 0, 77, 97
1, 247761, Note_on_c, 0, 79, 76
1, 247774, Note_off_c, 0, 79, 72
1, 247780, Note_off_c, 0, 55, 66
1, 247797, Note_off_c, 0, 67, 67
1, 247797, Note_off_c, 0, 77, 65
1, 247799, Note_off_c, 0, 89, 67
1, 247844, Poly_aftertouch_c, 0, 62, 0
1, 247896, Note_on_c, 0, 75, 106
1, 247896, Note_on_c, 0, 87, 88
1, 247931, Note_on_c, 0, 85, 44
1, 247940, Note_off_c, 0, 75, 67
1, 247946, Note_off_c, 0, 87, 65
1, 247954, Note_off_c, 0, 85, 58
1, 247955, Note_on_c, 0, 70, 81
1, 247961, Note_on_c, 0, 61, 52
1, 247972, Note_on_c, 0, 59, 81
1, 247973, Note_on_c, 0, 66, 35
1, 247977, Note_off_c, 0, 70, 71
1, 247985, Note_off_c, 0, 61, 58
1, 247995, Note_off_c, 0, 59, 69
1, 248005, Note_off_c, 0, 66, 53
1, 248016, Note_on_c, 0, 74, 101
1, 248017, Note_on_c, 0, 86, 87
1, 248019, Note_on_c, 0, 77, 92
1, 248022, Note_on_c, 0, 82, 87
1, 248068, Note_off_c, 0, 74, 67
1, 248068, Note_off_c, 0, 86, 66
1, 248089, Note_on_c, 0, 58, 55
1, 248113, Note_off_c, 0, 82, 63
1, 248116, Control_c, 0, 64, 96
1, 248117, Note_off_c, 0, 77, 64
1, 248131, Control_c, 0, 64, 63
1, 248145, Control_c, 0, 64, 42
1, 248155, Note_on_c, 0, 63, 97
1, 248160, Control_c, 0, 64, 49
1, 248166, Note_on_c, 0, 51, 93
1, 248175, Note_on_c, 0, 85, 93
1, 248175, Control_c, 0, 64, 60
1, 248178, Note_on_c, 0, 73, 104
1, 248191, Control_c, 0, 64, 75
1, 248206, Control_c, 0, 64, 127
1, 248214, Note_off_c, 0, 58, 60
1, 248215, Note_off_c, 0, 73, 67
1, 248220, Note_off_c, 0, 85, 67
1, 248229, Note_off_c, 0, 51, 65
1, 248264, Note_off_c, 0, 63, 62
1, 248318, Note_on_c, 0, 70, 108
1, 248320, Note_on_c, 0, 82, 93
1, 248358, Note_off_c, 0, 70, 66
1, 248366, Note_off_c, 0, 82, 64
1, 248415, Poly_aftertouch_c, 0, 61, 127
1, 248421, Note_on_c, 0, 63, 78
1, 248428, Note_on_c, 0, 55, 77
1, 248436, Note_on_c, 0, 81, 91
1, 248437, Note_on_c, 0, 69, 94
1, 248441, Poly_aftertouch_c, 0, 61, 0
1, 248457, Note_off_c, 0, 55, 67
1, 248459, Note_off_c, 0, 63, 63
1, 248479, Note_off_c, 0, 69, 68
1, 248482, Note_off_c, 0, 81, 67
1, 248561, Note_on_c, 0, 79, 90
1, 248564, Note_on_c, 0, 67, 97
1, 248602, Note_off_c, 0, 67, 67
1, 248608, Note_off_c, 0, 79, 65
1, 248628, Control_c, 0, 64, 81
1, 248643, Control_c, 0, 64, 55
1, 248658, Control_c, 0, 64, 0
1, 248676, Note_on_c, 0, 58, 96
1, 248679, Note_on_c, 0, 46, 83
1, 248680, Note_on_c, 0, 77, 89
1, 248687, Note_on_c, 0, 65, 87
1, 248688, Control_c, 0, 64, 26
1, 248691, Note_on_c, 0, 67, 75
1, 248703, Control_c, 0, 64, 60
1, 248715, Note_off_c, 0, 67, 69
1, 248717, Note_off_c, 0, 65, 65
1, 248717, Control_c, 0, 64, 73
1, 248721, Note_off_c, 0, 77, 63
1, 248732, Control_c, 0, 64, 127
1, 248757, Note_off_c, 0, 46, 63
1, 248811, Note_off_c, 0, 58, 62
1, 248817, Note_on_c, 0, 75, 74
1, 248819, Note_on_c, 0, 63, 92
1, 248853, Note_on_c, 0, 73, 44
1, 248864, Note_off_c, 0, 63, 64
1, 248872, Note_off_c, 0, 75, 62
1, 248881, Note_off_c, 0, 73, 55
1, 248895, Note_on_c, 0, 58, 92
1, 248896, Note_on_c, 0, 51, 79
1, 248936, Note_on_c, 0, 74, 78
1, 248943, Note_on_c, 0, 62, 95
1, 248953, Note_off_c, 0, 51, 62
1, 248970, Note_on_c, 0, 65, 55
1, 248980, Note_off_c, 0, 58, 59
1, 248986, Note_off_c, 0, 74, 64
1, 248998, Note_off_c, 0, 62, 65
1, 249015, Note_off_c, 0, 65, 59
1, 249088, Control_c, 0, 64, 89
1, 249102, Note_on_c, 0, 61, 94
1, 249103, Control_c, 0, 64, 57
1, 249105, Note_on_c, 0, 73, 84
1, 249118, Control_c, 0, 64, 0
1, 249119, Note_on_c, 0, 65, 62
1, 249159, Note_off_c, 0, 73, 65
1, 249162, Control_c, 0, 64, 34
1, 249177, Control_c, 0, 64, 62
1, 249181, Note_off_c, 0, 65, 54
1, 249192, Control_c, 0, 64, 73
1, 249200, Note_off_c, 0, 61, 59
1, 249207, Control_c, 0, 64, 109
1, 249222, Control_c, 0, 64, 127
1, 249255, Note_on_c, 0, 70, 82
1, 249278, Note_on_c, 0, 58, 59
1, 249281, Note_on_c, 0, 67, 63
1, 249308, Note_on_c, 0, 61, 54
1, 249310, Note_on_c, 0, 63, 63
1, 249317, Note_off_c, 0, 58, 65
1, 249331, Note_off_c, 0, 70, 63
1, 249339, Note_off_c, 0, 63, 65
1, 249339, Note_off_c, 0, 67, 55
1, 249341, Note_off_c, 0, 61, 61
1, 249388, Note_on_c, 0, 69, 82
1, 249392, Note_on_c, 0, 66, 86
1, 249400, Note_on_c, 0, 57, 80
1, 249453, Note_off_c, 0, 57, 65
1, 249454, Note_off_c, 0, 69, 63
1, 249458, Note_off_c, 0, 66, 61
1, 249496, Note_on_c, 0, 67, 87
1, 249505, Note_on_c, 0, 63, 88
1, 249514, Note_on_c, 0, 58, 91
1, 249538, Note_off_c, 0, 67, 65
1, 249555, Note_off_c, 0, 63, 63
1, 249557, Note_off_c, 0, 58, 63
1, 249599, Control_c, 0, 64, 100
1, 249614, Control_c, 0, 64, 70
1, 249624, Note_on_c, 0, 67, 96
1, 249628, Note_on_c, 0, 61, 93
1, 249629, Control_c, 0, 64, 63
1, 249634, Note_on_c, 0, 55, 90
1, 249644, Control_c, 0, 64, 65
1, 249657, Note_on_c, 0, 60, 66
1, 249659, Control_c, 0, 64, 71
1, 249672, Note_off_c, 0, 67, 64
1, 249673, Control_c, 0, 64, 100
1, 249675, Note_off_c, 0, 55, 65
1, 249687, Control_c, 0, 64, 127
1, 249694, Note_off_c, 0, 60, 60
1, 249732, Note_off_c, 0, 61, 52
1, 249735, Note_on_c, 0, 65, 85
1, 249749, Note_on_c, 0, 58, 94
1, 249769, Note_on_c, 0, 51, 82
1, 249785, Note_off_c, 0, 65, 64
1, 249789, Note_on_c, 0, 52, 62
1, 249791, Note_on_c, 0, 53, 57
1, 249791, Note_off_c, 0, 58, 67
1, 249809, Note_off_c, 0, 52, 64
1, 249810, Note_off_c, 0, 51, 63
1, 249815, Note_off_c, 0, 53, 60
1, 249881, Control_c, 0, 64, 79
1, 249883, Note_on_c, 0, 55, 112
1, 249886, Note_on_c, 0, 62, 96
1, 249895, Note_on_c, 0, 50, 97
1, 249895, Control_c, 0, 64, 60
1, 249910, Control_c, 0, 64, 58
1, 249925, Control_c, 0, 64, 65
1, 249932, Note_off_c, 0, 50, 68
1, 249934, Note_off_c, 0, 62, 62
1, 249940, Control_c, 0, 64, 81
1, 249952, Note_on_c, 0, 41, 11
1, 249955, Control_c, 0, 64, 127
1, 249967, Note_off_c, 0, 55, 56
1, 249988, Note_off_c, 0, 41, 0
1, 250006, Poly_aftertouch_c, 0, 41, 0
1, 250029, Control_c, 0, 64, 81
1, 250049, Note_on_c, 0, 54, 110
1, 250051, Note_on_c, 0, 61, 89
1, 250051, Control_c, 0, 64, 78
1, 250062, Note_on_c, 0, 48, 87
1, 250066, Control_c, 0, 64, 112
1, 250070, Note_on_c, 0, 47, 77
1, 250078, Note_off_c, 0, 61, 65
1, 250081, Control_c, 0, 64, 127
1, 250083, Note_off_c, 0, 54, 67
1, 250085, Note_on_c, 0, 52, 69
1, 250092, Note_on_c, 0, 53, 52
1, 250095, Note_off_c, 0, 48, 63
1, 250096, Note_off_c, 0, 47, 66
1, 250105, Note_off_c, 0, 52, 66
1, 250118, Note_off_c, 0, 53, 58
1, 250184, Control_c, 0, 64, 91
1, 250196, Note_on_c, 0, 45, 100
1, 250199, Note_on_c, 0, 57, 98
1, 250199, Control_c, 0, 64, 66
1, 250200, Note_on_c, 0, 51, 107
1, 250214, Control_c, 0, 64, 63
1, 250226, Note_on_c, 0, 50, 80
1, 250229, Control_c, 0, 64, 71
1, 250237, Note_off_c, 0, 45, 66
1, 250244, Control_c, 0, 64, 127
1, 250250, Note_off_c, 0, 57, 64
1, 250283, Note_off_c, 0, 51, 56
1, 250291, Note_off_c, 0, 50, 56
1, 250305, Note_on_c, 0, 54, 22
1, 250325, Note_off_c, 0, 54, 64
1, 250348, Control_c, 0, 64, 96
1, 250363, Control_c, 0, 64, 79
1, 250365, Note_on_c, 0, 55, 94
1, 250367, Note_on_c, 0, 49, 103
1, 250370, Note_on_c, 0, 44, 96
1, 250377, Control_c, 0, 64, 84
1, 250387, Note_on_c, 0, 42, 69
1, 250392, Control_c, 0, 64, 127
1, 250402, Note_on_c, 0, 34, 51
1, 250418, Note_off_c, 0, 44, 65
1, 250420, Note_off_c, 0, 42, 63
1, 250424, Note_off_c, 0, 49, 64
1, 250440, Note_off_c, 0, 34, 51
1, 250440, Note_off_c, 0, 55, 61
1, 250444, Poly_aftertouch_c, 0, 54, 127
1, 250478, Poly_aftertouch_c, 0, 54, 0
1, 250555, Control_c, 0, 64, 81
1, 250570, Control_c, 0, 64, 49
1, 250577, Note_on_c, 0, 41, 93
1, 250578, Note_on_c, 0, 48, 117
1, 250578, Note_on_c, 0, 53, 116
1, 250586, Control_c, 0, 64, 0
1, 250601, Control_c, 0, 64, 38
1, 250603, Note_on_c, 0, 43, 58
1, 250604, Note_off_c, 0, 43, 127
1, 250616, Control_c, 0, 64, 66
1, 250631, Control_c, 0, 64, 112
1, 250645, Control_c, 0, 64, 127
1, 250648, Note_on_c, 0, 37, 46
1, 250712, Note_off_c, 0, 48, 46
1, 250715, Note_off_c, 0, 37, 57
1, 250723, Note_off_c, 0, 41, 57
1, 250764, Note_off_c, 0, 53, 58
1, 250816, Control_c, 0, 64, 116
1, 250816, Poly_aftertouch_c, 0, 49, 127
1, 250831, Control_c, 0, 64, 61
1, 250840, Poly_aftertouch_c, 0, 49, 0
1, 250845, Note_on_c, 0, 52, 105
1, 250845, Control_c, 0, 64, 0
1, 250849, Note_on_c, 0, 40, 102
1, 250852, Note_on_c, 0, 46, 97
1, 250857, Note_on_c, 0, 39, 73
1, 250862, Note_on_c, 0, 34, 86
1, 250875, Control_c, 0, 64, 47
1, 250884, Note_off_c, 0, 39, 60
1, 250890, Control_c, 0, 64, 78
1, 250896, Note_on_c, 0, 41, 42
1, 250905, Control_c, 0, 64, 127
1, 250922, Note_off_c, 0, 41, 60
1, 250965, Note_off_c, 0, 34, 61
1, 250983, Note_off_c, 0, 46, 59
1, 250985, Note_off_c, 0, 52, 61
1, 251080, Note_off_c, 0, 40, 59
1, 251093, Poly_aftertouch_c, 0, 45, 127
1, 251118, Poly_aftertouch_c, 0, 45, 0
1, 251146, Poly_aftertouch_c, 0, 37, 0
1, 251150, Note_on_c, 0, 49, 104
1, 251152, Note_on_c, 0, 45, 86
1, 251153, Note_on_c, 0, 37, 76
1, 251156, Note_on_c, 0, 31, 80
1, 251162, Note_on_c, 0, 36, 90
1, 251168, Note_on_c, 0, 33, 66
1, 251188, Note_off_c, 0, 36, 68
1, 251189, Note_off_c, 0, 31, 65
1, 251199, Note_off_c, 0, 33, 54
1, 251201, Note_off_c, 0, 37, 56
1, 251217, Note_off_c, 0, 45, 64
1, 251231, Poly_aftertouch_c, 0, 34, 127
1, 251243, Note_off_c, 0, 49, 64
1, 251247, Poly_aftertouch_c, 0, 51, 127
1, 251272, Poly_aftertouch_c, 0, 51, 0
1, 251280, Poly_aftertouch_c, 0, 34, 0
1, 251525, Note_on_c, 0, 57, 21
1, 251560, Poly_aftertouch_c, 0, 55, 127
1, 251609, Control_c, 0, 64, 87
1, 251624, Control_c, 0, 64, 44
1, 251639, Note_on_c, 0, 58, 89
1, 251639, Control_c, 0, 64, 0
1, 251642, Note_on_c, 0, 34, 112
1, 251649, Note_on_c, 0, 46, 109
1, 251650, Note_on_c, 0, 22, 76
1, 251661, Note_on_c, 0, 52, 28
1, 251668, Poly_aftertouch_c, 0, 55, 0
1, 251669, Note_on_c, 0, 51, 67
1, 251671, Note_off_c, 0, 22, 62
1, 251683, Control_c, 0, 64, 66
1, 251684, Note_off_c, 0, 57, 43
1, 251688, Note_off_c, 0, 46, 68
1, 251691, Note_off_c, 0, 34, 64
1, 251693, Note_off_c, 0, 51, 56
1, 251693, Note_off_c, 0, 52, 56
1, 251694, Note_off_c, 0, 58, 65
1, 251696, Note_on_c, 0, 54, 7
1, 251697, Note_off_c, 0, 54, 127
1, 251698, Control_c, 0, 64, 127
1, 251749, Poly_aftertouch_c, 0, 35, 0
1, 251749, Poly_aftertouch_c, 0, 47, 0
1, 251781, Poly_aftertouch_c, 0, 35, 0
1, 251955, Note_on_c, 0, 53, 95
1, 251964, Note_on_c, 0, 41, 66
1, 251964, Note_on_c, 0, 58, 93
1, 251967, Note_on_c, 0, 49, 72
1, 251968, Note_on_c, 0, 65, 81
1, 251970, Note_on_c, 0, 61, 89
1, 251996, Note_off_c, 0, 41, 62
1, 251998, Note_off_c, 0, 49, 67
1, 252005, Note_off_c, 0, 58, 66
1, 252006, Note_off_c, 0, 53, 67
1, 252028, Note_off_c, 0, 61, 63
1, 252035, Note_off_c, 0, 65, 63
1, 252159, Note_on_c, 0, 56, 63
1, 252167, Note_on_c, 0, 61, 111
1, 252173, Note_on_c, 0, 49, 75
1, 252176, Note_on_c, 0, 73, 98
1, 252176, Note_on_c, 0, 68, 92
1, 252179, Note_on_c, 0, 65, 90
1, 252197, Note_off_c, 0, 68, 67
1, 252199, Note_off_c, 0, 65, 72
1, 252215, Note_off_c, 0, 56, 59
1, 252224, Note_off_c, 0, 61, 62
1, 252226, Note_off_c, 0, 73, 59
1, 252229, Note_off_c, 0, 49, 62
1, 252359, Note_on_c, 0, 65, 97
1, 252364, Note_on_c, 0, 70, 111
1, 252369, Note_on_c, 0, 82, 102
1, 252398, Note_off_c, 0, 70, 71
1, 252404, Note_off_c, 0, 65, 66
1, 252405, Note_off_c, 0, 82, 67
1, 252551, Control_c, 0, 64, 74
1, 252565, Control_c, 0, 64, 28
1, 252573, Note_on_c, 0, 65, 21
1, 252577, Note_on_c, 0, 68, 99
1, 252578, Note_on_c, 0, 73, 107
1, 252580, Control_c, 0, 64, 48
1, 252581, Note_on_c, 0, 80, 109
1, 252582, Note_on_c, 0, 85, 98
1, 252583, Note_on_c, 0, 89, 92
1, 252585, Note_on_c, 0, 92, 97
1, 252588, Note_on_c, 0, 61, 75
1, 252595, Control_c, 0, 64, 69
1, 252602, Note_on_c, 0, 63, 59
1, 252609, Control_c, 0, 64, 127
1, 252611, Note_on_c, 0, 90, 44
1, 252611, Note_off_c, 0, 73, 70
1, 252619, Note_off_c, 0, 89, 66
1, 252620, Note_off_c, 0, 80, 66
1, 252625, Note_off_c, 0, 65, 64
1, 252628, Note_off_c, 0, 92, 65
1, 252629, Note_off_c, 0, 85, 66
1, 252629, Note_off_c, 0, 68, 68
1, 252631, Note_off_c, 0, 63, 67
1, 252634, Note_off_c, 0, 90, 54
1, 252643, Note_off_c, 0, 61, 62
1, 252830, Note_on_c, 0, 65, 88
1, 252834, Note_on_c, 0, 61, 90
1, 252837, Note_on_c, 0, 53, 73
1, 252837, Note_on_c, 0, 58, 83
1, 252839, Note_on_c, 0, 73, 94
1, 252840, Note_on_c, 0, 70, 96
1, 252840, Note_on_c, 0, 82, 85
1, 252853, Note_off_c, 0, 65, 66
1, 252867, Note_off_c, 0, 53, 66
1, 252876, Poly_aftertouch_c, 0, 56, 127
1, 252878, Note_off_c, 0, 61, 65
1, 252880, Note_off_c, 0, 82, 62
1, 252881, Note_on_c, 0, 56, 2
1, 252881, Note_off_c, 0, 73, 65
1, 252882, Note_off_c, 0, 58, 63
1, 252885, Note_off_c, 0, 70, 64
1, 252924, Note_off_c, 0, 56, 51
1, 252973, Note_on_c, 0, 70, 61
1, 253013, Note_off_c, 0, 70, 57
1, 253062, Note_on_c, 0, 61, 103
1, 253066, Note_on_c, 0, 65, 99
1, 253067, Note_on_c, 0, 73, 99
1, 253070, Note_on_c, 0, 49, 83
1, 253079, Note_on_c, 0, 56, 61
1, 253079, Note_on_c, 0, 68, 73
1, 253088, Note_on_c, 0, 51, 54
1, 253094, Note_off_c, 0, 61, 63
1, 253097, Note_on_c, 0, 69, 64
1, 253097, Note_off_c, 0, 68, 61
1, 253099, Note_off_c, 0, 65, 66
1, 253103, Note_off_c, 0, 56, 64
1, 253109, Note_off_c, 0, 73, 69
1, 253112, Note_off_c, 0, 51, 58
1, 253116, Note_off_c, 0, 69, 63
1, 253126, Note_off_c, 0, 49, 64
1, 253332, Note_on_c, 0, 41, 84
1, 253335, Note_on_c, 0, 53, 98
1, 253336, Note_on_c, 0, 49, 97
1, 253337, Note_on_c, 0, 58, 107
1, 253339, Note_on_c, 0, 70, 91
1, 253340, Note_on_c, 0, 46, 91
1, 253341, Note_on_c, 0, 61, 94
1, 253341, Note_on_c, 0, 65, 82
1, 253354, Note_off_c, 0, 53, 75
1, 253365, Note_off_c, 0, 41, 68
1, 253372, Note_on_c, 0, 44, 42
1, 253377, Note_off_c, 0, 49, 66
1, 253379, Note_off_c, 0, 46, 66
1, 253396, Note_off_c, 0, 58, 67
1, 253402, Note_off_c, 0, 61, 69
1, 253410, Note_off_c, 0, 44, 36
1, 253419, Note_off_c, 0, 70, 60
1, 253425, Note_on_c, 0, 62, 60
1, 253442, Note_off_c, 0, 65, 61
1, 253456, Note_off_c, 0, 62, 65
1, 253721, Poly_aftertouch_c, 0, 55, 127
1, 253742, Control_c, 0, 64, 80
1, 253753, Note_on_c, 0, 58, 87
1, 253757, Control_c, 0, 64, 18
1, 253758, Note_on_c, 0, 46, 106
1, 253758, Note_on_c, 0, 34, 116
1, 253769, Note_on_c, 0, 22, 77
1, 253772, Control_c, 0, 64, 0
1, 253788, Note_on_c, 0, 52, 13
1, 253788, Poly_aftertouch_c, 0, 55, 0
1, 253794, Note_on_c, 0, 51, 57
1, 253795, Note_off_c, 0, 51, 127
1, 253806, Note_off_c, 0, 46, 69
1, 253808, Note_off_c, 0, 22, 57
1, 253809, Control_c, 0, 64, 27
1, 253815, Note_off_c, 0, 58, 65
1, 253817, Note_off_c, 0, 34, 64
1, 253819, Note_off_c, 0, 52, 57
1, 253824, Note_on_c, 0, 35, 28
1, 253824, Control_c, 0, 64, 65
1, 253839, Control_c, 0, 64, 95
1, 253845, Note_on_c, 0, 56, 13
1, 253854, Control_c, 0, 64, 127
1, 253871, Note_off_c, 0, 35, 49
1, 253881, Note_off_c, 0, 56, 54
1, 254222, Note_on_c, 0, 53, 83
1, 254226, Note_on_c, 0, 61, 92
1, 254229, Note_on_c, 0, 58, 90
1, 254236, Note_on_c, 0, 77, 107
1, 254236, Note_on_c, 0, 82, 104
1, 254243, Note_on_c, 0, 89, 98
1, 254259, Note_off_c, 0, 89, 72
1, 254266, Note_off_c, 0, 82, 68
1, 254268, Note_off_c, 0, 77, 68
1, 254417, Note_on_c, 0, 85, 97
1, 254418, Note_on_c, 0, 73, 106
1, 254418, Note_on_c, 0, 82, 107
1, 254422, Note_on_c, 0, 65, 102
1, 254438, Note_off_c, 0, 73, 67
1, 254450, Note_off_c, 0, 85, 61
1, 254451, Note_off_c, 0, 82, 67
1, 254452, Note_off_c, 0, 61, 64
1, 254462, Note_off_c, 0, 58, 64
1, 254480, Note_off_c, 0, 53, 65
1, 254513, Poly_aftertouch_c, 0, 55, 127
1, 254556, Poly_aftertouch_c, 0, 55, 0
1, 254817, Note_on_c, 0, 64, 97
1, 254843, Note_on_c, 0, 70, 64
1, 254862, Note_off_c, 0, 65, 56
1, 254922, Note_on_c, 0, 73, 72
1, 254987, Note_off_c, 0, 70, 51
1, 255008, Note_on_c, 0, 77, 66
1, 255020, Note_off_c, 0, 73, 62
1, 255067, Note_off_c, 0, 77, 61
1, 255108, Control_c, 0, 64, 84
1, 255109, Note_on_c, 0, 63, 92
1, 255123, Control_c, 0, 64, 71
1, 255138, Control_c, 0, 64, 72
1, 255152, Control_c, 0, 64, 79
1, 255157, Note_off_c, 0, 64, 64
1, 255167, Control_c, 0, 64, 103
1, 255177, Note_on_c, 0, 66, 65
1, 255182, Control_c, 0, 64, 127
1, 255256, Note_off_c, 0, 63, 65
1, 255261, Note_on_c, 0, 70, 65
1, 255263, Note_off_c, 0, 66, 54
1, 255374, Note_on_c, 0, 73, 64
1, 255398, Note_off_c, 0, 70, 58
1, 255476, Note_on_c, 0, 61, 89
1, 255516, Control_c, 0, 64, 88
1, 255528, Note_off_c, 0, 73, 62
1, 255531, Control_c, 0, 64, 65
1, 255546, Control_c, 0, 64, 49
1, 255547, Note_on_c, 0, 65, 53
1, 255561, Control_c, 0, 64, 52
1, 255576, Control_c, 0, 64, 57
1, 255590, Control_c, 0, 64, 64
1, 255605, Control_c, 0, 64, 72
1, 255620, Control_c, 0, 64, 86
1, 255631, Note_on_c, 0, 70, 70
1, 255634, Control_c, 0, 64, 127
1, 255709, Note_off_c, 0, 61, 62
1, 255716, Note_off_c, 0, 65, 61
1, 255726, Note_on_c, 0, 77, 35
1, 255770, Note_off_c, 0, 77, 0
1, 255770, Note_on_c, 0, 77, 9
1, 255792, Note_off_c, 0, 70, 59
1, 255811, Poly_aftertouch_c, 0, 76, 127
1, 255818, Note_on_c, 0, 65, 58
1, 255881, Note_on_c, 0, 58, 83
1, 255910, Note_on_c, 0, 70, 61
1, 255912, Note_off_c, 0, 77, 51
1, 255917, Poly_aftertouch_c, 0, 76, 0
1, 255932, Note_off_c, 0, 58, 62
1, 255978, Note_off_c, 0, 65, 59
1, 255991, Note_on_c, 0, 73, 67
1, 256027, Note_off_c, 0, 70, 51
1, 256100, Note_on_c, 0, 65, 58
1, 256170, Note_on_c, 0, 53, 76
1, 256194, Note_on_c, 0, 70, 59
1, 256210, Note_off_c, 0, 73, 55
1, 256214, Note_off_c, 0, 65, 61
1, 256220, Control_c, 0, 64, 92
1, 256235, Control_c, 0, 64, 70
1, 256250, Control_c, 0, 64, 63
1, 256264, Control_c, 0, 64, 64
1, 256268, Note_off_c, 0, 70, 57
1, 256279, Control_c, 0, 64, 66
1, 256294, Control_c, 0, 64, 74
1, 256309, Control_c, 0, 64, 87
1, 256324, Control_c, 0, 64, 125
1, 256338, Control_c, 0, 64, 127
1, 256432, Note_on_c, 0, 52, 80
1, 256471, Note_off_c, 0, 53, 64
1, 256592, Note_on_c, 0, 51, 84
1, 256620, Note_off_c, 0, 52, 64
1, 256704, Note_on_c, 0, 53, 28
1, 256724, Note_off_c, 0, 51, 64
1, 256741, Note_on_c, 0, 50, 81
1, 256797, Note_off_c, 0, 50, 63
1, 256804, Note_on_c, 0, 58, 53
1, 256931, Note_on_c, 0, 61, 64
1, 256938, Control_c, 0, 64, 109
1, 256953, Control_c, 0, 64, 72
1, 256963, Note_on_c, 0, 49, 73
1, 256963, Note_off_c, 0, 53, 42
1, 256968, Control_c, 0, 64, 54
1, 256972, Note_on_c, 0, 41, 55
1, 256978, Note_off_c, 0, 58, 53
1, 256984, Control_c, 0, 64, 42
1, 256999, Control_c, 0, 64, 49
1, 257014, Control_c, 0, 64, 60
1, 257017, Note_off_c, 0, 61, 62
1, 257028, Control_c, 0, 64, 67
1, 257043, Control_c, 0, 64, 84
1, 257049, Note_on_c, 0, 53, 72
1, 257058, Control_c, 0, 64, 127
1, 257081, Note_on_c, 0, 34, 63
1, 257082, Note_off_c, 0, 41, 60
1, 257086, Note_off_c, 0, 53, 62
1, 257108, Note_on_c, 0, 58, 57
1, 257111, Note_off_c, 0, 49, 62
1, 257115, Note_off_c, 0, 34, 64
1, 257137, Note_off_c, 0, 58, 64
1, 257162, Note_on_c, 0, 66, 60
1, 257228, Note_on_c, 0, 53, 59
1, 257243, Note_off_c, 0, 66, 58
1, 257250, Note_off_c, 0, 53, 64
1, 257252, Note_on_c, 0, 49, 46
1, 257271, Note_on_c, 0, 58, 50
1, 257289, Note_on_c, 0, 41, 64
1, 257294, Note_off_c, 0, 49, 62
1, 257304, Note_off_c, 0, 58, 64
1, 257309, Note_on_c, 0, 70, 58
1, 257320, Note_off_c, 0, 41, 64
1, 257329, Note_off_c, 0, 70, 64
1, 257395, Note_on_c, 0, 60, 95
1, 257413, Note_on_c, 0, 48, 78
1, 257446, Note_off_c, 0, 60, 65
1, 257464, Note_on_c, 0, 41, 30
1, 257481, Note_on_c, 0, 53, 78
1, 257482, Note_off_c, 0, 48, 59
1, 257508, Note_on_c, 0, 34, 70
1, 257517, Note_off_c, 0, 41, 63
1, 257518, Note_off_c, 0, 53, 61
1, 257544, Note_on_c, 0, 58, 62
1, 257547, Note_off_c, 0, 34, 63
1, 257576, Note_off_c, 0, 58, 65
1, 257595, Note_on_c, 0, 65, 68
1, 257638, Note_on_c, 0, 53, 77
1, 257638, Note_on_c, 0, 64, 47
1, 257663, Note_on_c, 0, 49, 59
1, 257684, Note_on_c, 0, 58, 77
1, 257687, Note_off_c, 0, 53, 63
1, 257702, Note_on_c, 0, 41, 69
1, 257708, Note_off_c, 0, 49, 63
1, 257732, Note_off_c, 0, 41, 65
1, 257745, Note_on_c, 0, 70, 71
1, 257756, Note_off_c, 0, 65, 0
1, 257759, Poly_aftertouch_c, 0, 46, 0
1, 257759, Note_off_c, 0, 58, 65
1, 257768, Note_on_c, 0, 68, 53
1, 257770, Note_off_c, 0, 64, 53
1, 257777, Note_off_c, 0, 70, 67
1, 257792, Note_off_c, 0, 68, 59
1, 257807, Control_c, 0, 64, 106
1, 257812, Poly_aftertouch_c, 0, 65, 0
1, 257821, Note_on_c, 0, 58, 90
1, 257821, Control_c, 0, 64, 69
1, 257824, Note_on_c, 0, 46, 98
1, 257833, Note_on_c, 0, 63, 61
1, 257836, Control_c, 0, 64, 60
1, 257842, Note_on_c, 0, 47, 77
1, 257851, Note_on_c, 0, 48, 64
1, 257851, Control_c, 0, 64, 63
1, 257862, Note_off_c, 0, 63, 65
1, 257866, Control_c, 0, 64, 69
1, 257866, Note_off_c, 0, 48, 67
1, 257869, Note_off_c, 0, 47, 51
1, 257881, Control_c, 0, 64, 94
1, 257892, Note_off_c, 0, 58, 64
1, 257896, Control_c, 0, 64, 127
1, 257906, Note_on_c, 0, 53, 88
1, 257923, Note_off_c, 0, 46, 61
1, 257930, Note_on_c, 0, 34, 75
1, 257933, Note_on_c, 0, 58, 64
1, 257956, Note_off_c, 0, 34, 61
1, 257958, Note_off_c, 0, 53, 63
1, 257979, Note_on_c, 0, 65, 77
1, 257988, Note_off_c, 0, 58, 64
1, 258026, Note_on_c, 0, 64, 36
1, 258033, Note_on_c, 0, 53, 96
1, 258047, Note_on_c, 0, 49, 74
1, 258066, Note_on_c, 0, 46, 45
1, 258077, Note_on_c, 0, 58, 92
1, 258078, Note_off_c, 0, 53, 65
1, 258090, Note_on_c, 0, 41, 70
1, 258090, Note_off_c, 0, 46, 59
1, 258094, Note_off_c, 0, 65, 59
1, 258101, Note_off_c, 0, 49, 62
1, 258119, Note_off_c, 0, 41, 65
1, 258143, Note_on_c, 0, 70, 71
1, 258149, Note_off_c, 0, 58, 66
1, 258156, Note_off_c, 0, 64, 57
1, 258158, Note_on_c, 0, 68, 66
1, 258167, Note_off_c, 0, 70, 69
1, 258188, Note_off_c, 0, 68, 61
1, 258191, Poly_aftertouch_c, 0, 43, 0
1, 258209, Note_on_c, 0, 45, 104
1, 258224, Note_on_c, 0, 57, 96
1, 258225, Note_on_c, 0, 41, 56
1, 258237, Note_on_c, 0, 42, 58
1, 258292, Note_off_c, 0, 42, 41
1, 258309, Note_on_c, 0, 53, 87
1, 258311, Note_off_c, 0, 57, 62
1, 258321, Note_off_c, 0, 45, 62
1, 258325, Note_on_c, 0, 34, 79
1, 258348, Note_off_c, 0, 41, 63
1, 258354, Note_off_c, 0, 34, 65
1, 258356, Note_off_c, 0, 53, 65
1, 258367, Note_on_c, 0, 57, 60
1, 258399, Note_off_c, 0, 57, 62
1, 258403, Note_on_c, 0, 65, 89
1, 258453, Note_on_c, 0, 53, 86
1, 258459, Note_on_c, 0, 45, 78
1, 258479, Note_off_c, 0, 65, 65
1, 258498, Note_on_c, 0, 57, 84
1, 258524, Note_off_c, 0, 53, 65
1, 258527, Note_on_c, 0, 41, 85
1, 258537, Note_off_c, 0, 45, 62
1, 258582, Note_off_c, 0, 41, 66
1, 258594, Note_off_c, 0, 57, 63
1, 258598, Note_on_c, 0, 68, 89
1, 258628, Note_off_c, 0, 68, 61
1, 258731, Note_on_c, 0, 52, 56
1, 258749, Control_c, 0, 64, 122
1, 258763, Control_c, 0, 64, 52
1, 258772, Note_on_c, 0, 34, 115
1, 258775, Note_on_c, 0, 29, 20
1, 258778, Control_c, 0, 64, 0
1, 258780, Note_on_c, 0, 44, 103
1, 258781, Note_on_c, 0, 56, 94
1, 258781, Note_on_c, 0, 22, 86
1, 258783, Note_off_c, 0, 52, 59
1, 258791, Note_on_c, 0, 50, 23
1, 258803, Note_off_c, 0, 44, 69
1, 258807, Note_off_c, 0, 22, 59
1, 258808, Control_c, 0, 64, 52
1, 258811, Note_off_c, 0, 29, 52
1, 258820, Note_off_c, 0, 50, 46
1, 258821, Note_on_c, 0, 35, 32
1, 258822, Note_off_c, 0, 34, 64
1, 258823, Control_c, 0, 64, 72
1, 258829, Note_off_c, 0, 56, 64
1, 258838, Control_c, 0, 64, 127
1, 258868, Note_off_c, 0, 35, 49
1, 258873, Poly_aftertouch_c, 0, 36, 127
1, 258912, Poly_aftertouch_c, 0, 36, 0
1, 259007, Note_on_c, 0, 50, 31
1, 259015, Note_on_c, 0, 58, 90
1, 259018, Note_on_c, 0, 62, 79
1, 259029, Note_on_c, 0, 53, 98
1, 259029, Note_on_c, 0, 65, 84
1, 259052, Note_on_c, 0, 41, 40
1, 259056, Note_off_c, 0, 62, 64
1, 259058, Note_off_c, 0, 58, 62
1, 259074, Note_off_c, 0, 50, 63
1, 259075, Note_off_c, 0, 65, 65
1, 259079, Note_off_c, 0, 53, 66
1, 259088, Note_off_c, 0, 41, 52
1, 259212, Note_on_c, 0, 62, 92
1, 259214, Note_on_c, 0, 77, 104
1, 259217, Note_on_c, 0, 65, 87
1, 259223, Note_on_c, 0, 60, 65
1, 259235, Note_off_c, 0, 65, 73
1, 259240, Note_off_c, 0, 62, 67
1, 259242, Note_off_c, 0, 60, 63
1, 259255, Note_on_c, 0, 67, 30
1, 259256, Note_off_c, 0, 67, 127
1, 259256, Note_off_c, 0, 77, 68
1, 259394, Note_on_c, 0, 67, 94
1, 259400, Note_on_c, 0, 84, 94
1, 259408, Note_on_c, 0, 71, 67
1, 259411, Note_on_c, 0, 73, 61
1, 259414, Note_on_c, 0, 82, 55
1, 259423, Note_off_c, 0, 71, 67
1, 259424, Note_off_c, 0, 84, 60
1, 259430, Note_off_c, 0, 73, 41
1, 259431, Note_on_c, 0, 72, 43
1, 259434, Note_off_c, 0, 82, 61
1, 259442, Note_off_c, 0, 67, 64
1, 259455, Note_on_c, 0, 83, 5
1, 259456, Note_off_c, 0, 83, 127
1, 259461, Note_off_c, 0, 72, 37
1, 259551, Note_on_c, 0, 64, 38
1, 259586, Control_c, 0, 64, 69
1, 259591, Note_off_c, 0, 64, 0
1, 259591, Note_on_c, 0, 64, 69
1, 259595, Note_on_c, 0, 71, 103
1, 259597, Note_on_c, 0, 59, 77
1, 259598, Note_on_c, 0, 68, 97
1, 259601, Note_on_c, 0, 83, 96
1, 259601, Note_on_c, 0, 88, 94
1, 259601, Control_c, 0, 64, 0
1, 259608, Note_on_c, 0, 95, 91
1, 259609, Note_on_c, 0, 96, 91
1, 259615, Note_on_c, 0, 92, 86
1, 259628, Note_off_c, 0, 71, 68
1, 259629, Note_off_c, 0, 59, 66
1, 259631, Control_c, 0, 64, 54
1, 259634, Note_off_c, 0, 96, 65
1, 259635, Note_off_c, 0, 92, 71
1, 259636, Note_on_c, 0, 61, 42
1, 259641, Note_off_c, 0, 88, 68
1, 259646, Control_c, 0, 64, 83
1, 259646, Note_off_c, 0, 68, 67
1, 259648, Note_off_c, 0, 83, 67
1, 259652, Note_off_c, 0, 95, 67
1, 259654, Note_off_c, 0, 64, 66
1, 259661, Control_c, 0, 64, 127
1, 259664, Note_off_c, 0, 61, 54
1, 259854, Note_on_c, 0, 68, 103
1, 259855, Note_on_c, 0, 75, 102
1, 259855, Note_on_c, 0, 87, 88
1, 259876, Note_on_c, 0, 58, 71
1, 259884, Note_off_c, 0, 68, 70
1, 259888, Note_off_c, 0, 75, 66
1, 259890, Note_off_c, 0, 87, 63
1, 259894, Note_off_c, 0, 58, 64
1, 259979, Poly_aftertouch_c, 0, 57, 0
1, 260082, Note_on_c, 0, 59, 101
1, 260083, Note_on_c, 0, 70, 102
1, 260084, Note_on_c, 0, 76, 91
1, 260087, Note_on_c, 0, 64, 97
1, 260090, Note_on_c, 0, 56, 94
1, 260091, Note_on_c, 0, 47, 77
1, 260091, Note_on_c, 0, 52, 83
1, 260112, Note_off_c, 0, 59, 69
1, 260114, Note_off_c, 0, 64, 70
1, 260117, Note_off_c, 0, 76, 68
1, 260125, Note_off_c, 0, 70, 70
1, 260132, Note_off_c, 0, 52, 66
1, 260132, Note_off_c, 0, 56, 66
1, 260144, Note_off_c, 0, 47, 61
1, 260203, Poly_aftertouch_c, 0, 49, 0
1, 260346, Note_on_c, 0, 65, 23
1, 260388, Note_off_c, 0, 65, 49
1, 260389, Note_on_c, 0, 52, 100
1, 260391, Note_on_c, 0, 47, 96
1, 260394, Note_on_c, 0, 40, 80
1, 260396, Note_on_c, 0, 68, 98
1, 260398, Note_on_c, 0, 56, 105
1, 260400, Note_on_c, 0, 63, 99
1, 260417, Note_off_c, 0, 52, 69
1, 260432, Note_off_c, 0, 47, 68
1, 260435, Note_off_c, 0, 40, 63
1, 260458, Note_on_c, 0, 64, 8
1, 260479, Note_off_c, 0, 56, 64
1, 260479, Note_off_c, 0, 68, 55
1, 260490, Note_off_c, 0, 63, 60
1, 260490, Poly_aftertouch_c, 0, 69, 0
1, 260492, Note_off_c, 0, 64, 47
1, 260514, Poly_aftertouch_c, 0, 69, 0
1, 260816, Control_c, 0, 64, 75
1, 260823, Note_on_c, 0, 52, 40
1, 260826, Note_on_c, 0, 58, 84
1, 260829, Note_on_c, 0, 34, 111
1, 260831, Control_c, 0, 64, 0
1, 260832, Note_on_c, 0, 46, 111
1, 260835, Note_on_c, 0, 22, 77
1, 260863, Note_off_c, 0, 22, 60
1, 260868, Note_on_c, 0, 51, 43
1, 260869, Note_off_c, 0, 51, 127
1, 260870, Note_off_c, 0, 52, 64
1, 260877, Note_off_c, 0, 46, 66
1, 260879, Note_off_c, 0, 34, 64
1, 260886, Note_off_c, 0, 58, 65
1, 260890, Control_c, 0, 64, 44
1, 260904, Control_c, 0, 64, 68
1, 260919, Control_c, 0, 64, 96
1, 260934, Control_c, 0, 64, 127
1, 261230, Note_on_c, 0, 53, 76
1, 261232, Note_on_c, 0, 58, 73
1, 261232, Note_on_c, 0, 62, 79
1, 261315, Note_on_c, 0, 77, 98
1, 261316, Note_on_c, 0, 82, 98
1, 261325, Note_on_c, 0, 89, 77
1, 261339, Note_off_c, 0, 89, 70
1, 261343, Note_off_c, 0, 82, 62
1, 261348, Note_off_c, 0, 77, 69
1, 261416, Note_on_c, 0, 65, 94
1, 261419, Note_on_c, 0, 82, 113
1, 261424, Note_on_c, 0, 74, 100
1, 261431, Note_on_c, 0, 86, 71
1, 261439, Note_off_c, 0, 53, 61
1, 261439, Note_off_c, 0, 74, 75
1, 261441, Note_off_c, 0, 58, 65
1, 261446, Note_off_c, 0, 86, 67
1, 261446, Note_off_c, 0, 82, 62
1, 261451, Note_off_c, 0, 62, 63
1, 261759, Note_on_c, 0, 64, 87
1, 261789, Note_on_c, 0, 70, 55
1, 261824, Note_off_c, 0, 70, 63
1, 261842, Note_on_c, 0, 74, 65
1, 261895, Note_off_c, 0, 74, 64
1, 261899, Note_on_c, 0, 77, 75
1, 261935, Note_off_c, 0, 77, 62
1, 261967, Note_off_c, 0, 65, 34
1, 261970, Note_on_c, 0, 63, 93
1, 261995, Note_off_c, 0, 64, 65
1, 262045, Note_on_c, 0, 66, 60
1, 262127, Note_on_c, 0, 70, 71
1, 262129, Note_off_c, 0, 66, 37
1, 262224, Note_on_c, 0, 74, 66
1, 262262, Note_off_c, 0, 70, 58
1, 262263, Note_off_c, 0, 63, 61
1, 262286, Note_on_c, 0, 62, 88
1, 262343, Control_c, 0, 64, 111
1, 262358, Control_c, 0, 64, 71
1, 262365, Note_off_c, 0, 74, 60
1, 262373, Control_c, 0, 64, 49
1, 262380, Note_on_c, 0, 65, 65
1, 262388, Control_c, 0, 64, 35
1, 262403, Control_c, 0, 64, 39
1, 262418, Control_c, 0, 64, 51
1, 262433, Control_c, 0, 64, 63
1, 262448, Control_c, 0, 64, 70
1, 262463, Control_c, 0, 64, 83
1, 262464, Note_on_c, 0, 70, 66
1, 262477, Control_c, 0, 64, 127
1, 262528, Note_off_c, 0, 65, 57
1, 262540, Note_on_c, 0, 77, 68
1, 262592, Note_off_c, 0, 70, 60
1, 262606, Note_off_c, 0, 62, 60
1, 262628, Note_on_c, 0, 58, 78
1, 262642, Note_on_c, 0, 65, 65
1, 262675, Note_off_c, 0, 58, 61
1, 262727, Note_on_c, 0, 70, 64
1, 262737, Note_off_c, 0, 77, 35
1, 262834, Note_on_c, 0, 74, 66
1, 262838, Note_off_c, 0, 65, 59
1, 262867, Note_on_c, 0, 53, 75
1, 262871, Control_c, 0, 64, 96
1, 262886, Control_c, 0, 64, 81
1, 262901, Control_c, 0, 64, 79
1, 262916, Control_c, 0, 64, 82
1, 262927, Note_off_c, 0, 70, 52
1, 262931, Control_c, 0, 64, 91
1, 262946, Control_c, 0, 64, 119
1, 262961, Control_c, 0, 64, 127
1, 262963, Note_on_c, 0, 65, 58
1, 263025, Note_off_c, 0, 74, 63
1, 263040, Note_off_c, 0, 65, 62
1, 263044, Note_on_c, 0, 70, 54
1, 263063, Note_off_c, 0, 70, 63
1, 263075, Note_on_c, 0, 52, 80
1, 263090, Note_off_c, 0, 53, 60
1, 263209, Note_on_c, 0, 51, 81
1, 263226, Note_off_c, 0, 52, 61
1, 263274, Note_off_c, 0, 51, 63
1, 263292, Note_on_c, 0, 53, 60
1, 263317, Note_on_c, 0, 50, 67
1, 263337, Note_off_c, 0, 53, 62
1, 263399, Note_on_c, 0, 62, 70
1, 263440, Note_off_c, 0, 50, 0
1, 263459, Note_on_c, 0, 50, 34
1, 263502, Note_on_c, 0, 44, 64
1, 263508, Control_c, 0, 64, 91
1, 263530, Control_c, 0, 64, 66
1, 263545, Control_c, 0, 64, 46
1, 263551, Note_off_c, 0, 50, 59
1, 263560, Control_c, 0, 64, 36
1, 263573, Note_on_c, 0, 68, 67
1, 263575, Control_c, 0, 64, 44
1, 263589, Control_c, 0, 64, 58
1, 263604, Control_c, 0, 64, 66
1, 263605, Note_off_c, 0, 62, 58
1, 263619, Control_c, 0, 64, 75
1, 263634, Control_c, 0, 64, 92
1, 263640, Note_on_c, 0, 56, 72
1, 263649, Control_c, 0, 64, 127
1, 263658, Note_off_c, 0, 44, 63
1, 263659, Note_on_c, 0, 34, 53
1, 263679, Note_off_c, 0, 68, 53
1, 263696, Note_off_c, 0, 34, 51
1, 263721, Note_on_c, 0, 62, 69
1, 263724, Note_off_c, 0, 56, 59
1, 263798, Note_on_c, 0, 68, 80
1, 263819, Note_off_c, 0, 62, 61
1, 263823, Note_on_c, 0, 56, 42
1, 263849, Note_on_c, 0, 42, 62
1, 263850, Note_off_c, 0, 56, 58
1, 263852, Note_off_c, 0, 68, 64
1, 263863, Poly_aftertouch_c, 0, 49, 127
1, 263878, Note_on_c, 0, 59, 73
1, 263882, Poly_aftertouch_c, 0, 49, 0
1, 263889, Note_off_c, 0, 42, 64
1, 263925, Poly_aftertouch_c, 0, 50, 0
1, 263959, Note_on_c, 0, 69, 67
1, 263986, Note_off_c, 0, 69, 66
1, 263989, Control_c, 0, 64, 83
1, 263992, Note_off_c, 0, 59, 64
1, 264004, Control_c, 0, 64, 67
1, 264019, Control_c, 0, 64, 63
1, 264025, Note_on_c, 0, 42, 52
1, 264034, Control_c, 0, 64, 65
1, 264038, Note_on_c, 0, 67, 82
1, 264039, Note_on_c, 0, 49, 34
1, 264048, Control_c, 0, 64, 70
1, 264063, Control_c, 0, 64, 82
1, 264078, Control_c, 0, 64, 125
1, 264084, Note_on_c, 0, 34, 61
1, 264093, Control_c, 0, 64, 127
1, 264106, Note_off_c, 0, 42, 62
1, 264112, Note_on_c, 0, 55, 78
1, 264115, Note_off_c, 0, 34, 62
1, 264119, Note_off_c, 0, 49, 60
1, 264123, Note_off_c, 0, 67, 61
1, 264165, Note_on_c, 0, 61, 77
1, 264183, Note_off_c, 0, 55, 62
1, 264224, Note_off_c, 0, 61, 64
1, 264225, Note_on_c, 0, 67, 75
1, 264230, Note_on_c, 0, 55, 58
1, 264241, Note_on_c, 0, 49, 65
1, 264251, Note_off_c, 0, 67, 67
1, 264268, Note_off_c, 0, 55, 66
1, 264272, Note_on_c, 0, 43, 68
1, 264290, Note_off_c, 0, 49, 64
1, 264302, Note_off_c, 0, 43, 65
1, 264302, Note_on_c, 0, 58, 94
1, 264397, Note_on_c, 0, 68, 62
1, 264410, Note_off_c, 0, 58, 65
1, 264412, Control_c, 0, 64, 93
1, 264415, Note_off_c, 0, 68, 64
1, 264427, Control_c, 0, 64, 68
1, 264442, Control_c, 0, 64, 61
1, 264456, Note_on_c, 0, 49, 81
1, 264457, Control_c, 0, 64, 64
1, 264457, Note_on_c, 0, 66, 86
1, 264472, Control_c, 0, 64, 72
1, 264480, Note_on_c, 0, 34, 63
1, 264487, Control_c, 0, 64, 109
1, 264501, Control_c, 0, 64, 127
1, 264509, Note_off_c, 0, 34, 63
1, 264523, Note_on_c, 0, 54, 89
1, 264546, Note_on_c, 0, 61, 82
1, 264549, Note_off_c, 0, 49, 62
1, 264556, Note_off_c, 0, 66, 63
1, 264573, Note_off_c, 0, 54, 63
1, 264628, Note_on_c, 0, 66, 85
1, 264638, Note_off_c, 0, 61, 62
1, 264645, Note_on_c, 0, 49, 78
1, 264660, Note_on_c, 0, 41, 79
1, 264665, Note_on_c, 0, 55, 45
1, 264670, Note_on_c, 0, 53, 43
1, 264684, Note_off_c, 0, 66, 66
1, 264686, Note_off_c, 0, 49, 61
1, 264693, Note_off_c, 0, 55, 55
1, 264699, Note_off_c, 0, 53, 55
1, 264709, Note_on_c, 0, 57, 93
1, 264709, Note_off_c, 0, 41, 64
1, 264738, Poly_aftertouch_c, 0, 46, 0
1, 264784, Note_on_c, 0, 69, 78
1, 264808, Note_off_c, 0, 69, 69
1, 264814, Note_on_c, 0, 39, 47
1, 264814, Note_off_c, 0, 57, 66
1, 264833, Note_on_c, 0, 67, 7
1, 264852, Note_off_c, 0, 39, 59
1, 264867, Note_on_c, 0, 65, 97
1, 264871, Control_c, 0, 64, 66
1, 264877, Note_on_c, 0, 49, 77
1, 264878, Note_on_c, 0, 40, 42
1, 264879, Note_off_c, 0, 67, 43
1, 264883, Note_on_c, 0, 46, 73
1, 264886, Control_c, 0, 64, 0
1, 264910, Note_on_c, 0, 34, 43
1, 264913, Poly_aftertouch_c, 0, 37, 0
1, 264919, Note_on_c, 0, 48, 47
1, 264920, Note_off_c, 0, 40, 51
1, 264921, Note_on_c, 0, 47, 41
1, 264921, Note_off_c, 0, 49, 63
1, 264931, Control_c, 0, 64, 63
1, 264939, Note_off_c, 0, 34, 56
1, 264940, Note_off_c, 0, 46, 59
1, 264945, Control_c, 0, 64, 127
1, 264947, Note_off_c, 0, 48, 52
1, 264948, Note_on_c, 0, 53, 90
1, 264957, Note_off_c, 0, 47, 43
1, 264958, Note_on_c, 0, 64, 8
1, 264963, Note_off_c, 0, 65, 64
1, 264972, Note_on_c, 0, 61, 80
1, 264993, Note_off_c, 0, 64, 48
1, 265060, Note_off_c, 0, 53, 64
1, 265071, Note_on_c, 0, 65, 99
1, 265075, Note_off_c, 0, 61, 65
1, 265096, Note_on_c, 0, 41, 78
1, 265122, Note_on_c, 0, 49, 70
1, 265126, Note_off_c, 0, 65, 60
1, 265142, Note_on_c, 0, 52, 19
1, 265150, Note_off_c, 0, 49, 68
1, 265164, Note_on_c, 0, 56, 103
1, 265168, Note_off_c, 0, 41, 66
1, 265178, Note_off_c, 0, 52, 51
1, 265266, Note_on_c, 0, 68, 81
1, 265288, Note_off_c, 0, 68, 70
1, 265319, Note_off_c, 0, 56, 65
1, 265383, Control_c, 0, 64, 87
1, 265396, Note_on_c, 0, 38, 95
1, 265397, Note_on_c, 0, 26, 79
1, 265398, Control_c, 0, 64, 47
1, 265413, Note_on_c, 0, 62, 99
1, 265413, Control_c, 0, 64, 0
1, 265416, Note_on_c, 0, 50, 100
1, 265420, Note_on_c, 0, 36, 53
1, 265421, Note_off_c, 0, 36, 127
1, 265425, Note_off_c, 0, 26, 67
1, 265435, Note_on_c, 0, 56, 53
1, 265438, Note_on_c, 0, 57, 38
1, 265441, Note_off_c, 0, 38, 69
1, 265450, Note_off_c, 0, 50, 66
1, 265458, Control_c, 0, 64, 59
1, 265464, Note_off_c, 0, 57, 56
1, 265470, Note_off_c, 0, 56, 33
1, 265473, Control_c, 0, 64, 76
1, 265479, Note_off_c, 0, 62, 66
1, 265488, Control_c, 0, 64, 127
1, 265637, Note_on_c, 0, 38, 82
1, 265649, Note_on_c, 0, 57, 94
1, 265650, Note_on_c, 0, 71, 91
1, 265654, Note_on_c, 0, 69, 84
1, 265662, Note_on_c, 0, 59, 77
1, 265676, Note_off_c, 0, 57, 65
1, 265679, Note_off_c, 0, 59, 67
1, 265683, Note_off_c, 0, 69, 55
1, 265686, Note_off_c, 0, 71, 63
1, 265691, Note_off_c, 0, 38, 61
1, 265842, Note_on_c, 0, 57, 94
1, 265852, Note_on_c, 0, 66, 99
1, 265852, Note_on_c, 0, 78, 105
1, 265882, Note_off_c, 0, 66, 65
1, 265889, Note_off_c, 0, 78, 65
1, 265890, Note_off_c, 0, 57, 65
1, 266044, Note_on_c, 0, 54, 51
1, 266047, Note_on_c, 0, 62, 97
1, 266047, Note_on_c, 0, 74, 100
1, 266049, Note_on_c, 0, 78, 94
1, 266050, Note_on_c, 0, 86, 94
1, 266062, Note_on_c, 0, 56, 73
1, 266074, Note_off_c, 0, 54, 65
1, 266078, Note_off_c, 0, 74, 65
1, 266080, Note_off_c, 0, 62, 68
1, 266081, Note_off_c, 0, 56, 66
1, 266088, Note_off_c, 0, 78, 66
1, 266098, Note_on_c, 0, 52, 3
1, 266098, Note_off_c, 0, 86, 69
1, 266133, Note_off_c, 0, 52, 43
1, 266195, Note_on_c, 0, 63, 45
1, 266266, Note_off_c, 0, 63, 50
1, 266280, Control_c, 0, 64, 87
1, 266295, Control_c, 0, 64, 61
1, 266302, Note_on_c, 0, 73, 106
1, 266310, Control_c, 0, 64, 55
1, 266312, Note_on_c, 0, 61, 82
1, 266314, Note_on_c, 0, 97, 95
1, 266315, Note_on_c, 0, 87, 94
1, 266315, Note_on_c, 0, 92, 103
1, 266317, Note_on_c, 0, 85, 90
1, 266324, Control_c, 0, 64, 68
1, 266326, Note_on_c, 0, 94, 71
1, 266332, Note_off_c, 0, 87, 74
1, 266337, Note_off_c, 0, 92, 67
1, 266337, Note_off_c, 0, 97, 66
1, 266339, Control_c, 0, 64, 127
1, 266341, Note_off_c, 0, 73, 69
1, 266343, Note_off_c, 0, 61, 62
1, 266343, Note_off_c, 0, 94, 67
1, 266344, Note_off_c, 0, 85, 68
1, 266494, Note_on_c, 0, 85, 39
1, 266542, Note_off_c, 0, 85, 60
1, 266589, Note_on_c, 0, 68, 105
1, 266593, Note_on_c, 0, 64, 86
1, 266595, Note_on_c, 0, 61, 80
1, 266601, Note_on_c, 0, 76, 95
1, 266603, Note_on_c, 0, 85, 95
1, 266604, Note_on_c, 0, 82, 87
1, 266606, Note_on_c, 0, 56, 70
1, 266607, Note_on_c, 0, 74, 64
1, 266612, Note_on_c, 0, 88, 59
1, 266614, Note_on_c, 0, 86, 69
1, 266619, Note_off_c, 0, 68, 67
1, 266622, Note_on_c, 0, 80, 54
1, 266624, Note_off_c, 0, 74, 44
1, 266630, Note_off_c, 0, 88, 64
1, 266630, Note_off_c, 0, 86, 67
1, 266631, Note_off_c, 0, 64, 66
1, 266632, Note_off_c, 0, 76, 64
1, 266635, Note_off_c, 0, 56, 65
1, 266636, Note_off_c, 0, 61, 66
1, 266641, Note_off_c, 0, 82, 64
1, 266641, Note_off_c, 0, 85, 64
1, 266645, Note_off_c, 0, 80, 41
1, 266886, Note_on_c, 0, 61, 99
1, 266888, Note_on_c, 0, 49, 81
1, 266888, Note_on_c, 0, 64, 100
1, 266888, Note_on_c, 0, 76, 97
1, 266889, Note_on_c, 0, 70, 102
1, 266891, Note_on_c, 0, 73, 98
1, 266911, Note_on_c, 0, 48, 67
1, 266916, Note_off_c, 0, 61, 62
1, 266919, Note_off_c, 0, 64, 71
1, 266921, Note_off_c, 0, 76, 66
1, 266934, Note_off_c, 0, 70, 68
1, 266935, Note_off_c, 0, 73, 70
1, 266937, Note_off_c, 0, 49, 63
1, 266943, Note_off_c, 0, 48, 64
1, 267235, Note_on_c, 0, 42, 81
1, 267235, Note_on_c, 0, 49, 98
1, 267237, Note_on_c, 0, 54, 99
1, 267239, Note_on_c, 0, 70, 100
1, 267242, Note_on_c, 0, 64, 102
1, 267243, Note_on_c, 0, 58, 106
1, 267274, Note_on_c, 0, 44, 47
1, 267276, Note_off_c, 0, 54, 68
1, 267280, Note_on_c, 0, 68, 63
1, 267295, Note_off_c, 0, 49, 67
1, 267296, Note_off_c, 0, 58, 69
1, 267298, Note_off_c, 0, 70, 68
1, 267302, Note_off_c, 0, 44, 57
1, 267304, Note_off_c, 0, 64, 72
1, 267307, Note_off_c, 0, 42, 63
1, 267311, Note_off_c, 0, 68, 63
1, 267366, Poly_aftertouch_c, 0, 41, 0
1, 267621, Note_on_c, 0, 58, 29
1, 267654, Note_off_c, 0, 58, 56
1, 267664, Note_on_c, 0, 56, 16
1, 267778, Control_c, 0, 64, 97
1, 267791, Note_off_c, 0, 56, 0
1, 267792, Note_on_c, 0, 62, 93
1, 267793, Control_c, 0, 64, 54
1, 267794, Note_on_c, 0, 38, 99
1, 267795, Note_on_c, 0, 50, 103
1, 267797, Note_on_c, 0, 26, 92
1, 267807, Note_on_c, 0, 56, 52
1, 267808, Control_c, 0, 64, 0
1, 267837, Note_on_c, 0, 58, 44
1, 267861, Note_off_c, 0, 56, 63
1, 267870, Note_off_c, 0, 58, 33
1, 267871, Note_off_c, 0, 50, 66
1, 267879, Note_off_c, 0, 62, 68
1, 267882, Control_c, 0, 64, 53
1, 267897, Control_c, 0, 64, 71
1, 267907, Note_off_c, 0, 26, 63
1, 267912, Control_c, 0, 64, 98
1, 267927, Control_c, 0, 64, 127
1, 267936, Note_off_c, 0, 38, 64
1, 268317, Note_on_c, 0, 50, 63
1, 268319, Note_on_c, 0, 45, 78
1, 268320, Note_on_c, 0, 54, 88
1, 268335, Note_on_c, 0, 69, 104
1, 268338, Note_on_c, 0, 81, 97
1, 268345, Note_on_c, 0, 74, 67
1, 268370, Note_off_c, 0, 74, 63
1, 268373, Note_off_c, 0, 69, 67
1, 268376, Note_off_c, 0, 81, 63
1, 268566, Note_on_c, 0, 78, 99
1, 268568, Note_on_c, 0, 66, 95
1, 268568, Note_on_c, 0, 74, 92
1, 268570, Note_on_c, 0, 57, 94
1, 268572, Control_c, 0, 64, 95
1, 268586, Control_c, 0, 64, 60
1, 268601, Control_c, 0, 64, 0
1, 268660, Control_c, 0, 64, 42
1, 268675, Control_c, 0, 64, 63
1, 268690, Control_c, 0, 64, 69
1, 268705, Control_c, 0, 64, 78
1, 268720, Control_c, 0, 64, 92
1, 268735, Control_c, 0, 64, 127
1, 268752, Note_off_c, 0, 50, 64
1, 268780, Note_off_c, 0, 54, 61
1, 268785, Note_off_c, 0, 45, 63
1, 268796, Note_off_c, 0, 78, 67
1, 268808, Note_off_c, 0, 66, 62
1, 268825, Note_off_c, 0, 74, 63
1, 269018, Note_on_c, 0, 56, 80
1, 269080, Note_off_c, 0, 57, 58
1, 269145, Note_on_c, 0, 60, 35
1, 269206, Note_on_c, 0, 66, 56
1, 269236, Note_off_c, 0, 60, 38
1, 269288, Note_off_c, 0, 66, 61
1, 269300, Note_on_c, 0, 55, 85
1, 269301, Note_on_c, 0, 69, 64
1, 269322, Control_c, 0, 64, 83
1, 269336, Control_c, 0, 64, 66
1, 269351, Control_c, 0, 64, 60
1, 269361, Note_off_c, 0, 69, 64
1, 269366, Control_c, 0, 64, 62
1, 269377, Note_off_c, 0, 56, 63
1, 269381, Control_c, 0, 64, 66
1, 269396, Control_c, 0, 64, 74
1, 269410, Control_c, 0, 64, 97
1, 269420, Note_on_c, 0, 58, 67
1, 269425, Control_c, 0, 64, 127
1, 269534, Note_off_c, 0, 58, 60
1, 269542, Note_on_c, 0, 62, 51
1, 269775, Note_on_c, 0, 66, 51
1, 269819, Control_c, 0, 64, 87
1, 269825, Note_off_c, 0, 62, 34
1, 269829, Note_on_c, 0, 54, 63
1, 269834, Control_c, 0, 64, 64
1, 269848, Control_c, 0, 64, 34
1, 269863, Control_c, 0, 64, 0
1, 269898, Note_off_c, 0, 55, 58
1, 269908, Control_c, 0, 64, 46
1, 269922, Control_c, 0, 64, 61
1, 269937, Control_c, 0, 64, 67
1, 269952, Note_on_c, 0, 57, 48
1, 269952, Control_c, 0, 64, 73
1, 269966, Control_c, 0, 64, 79
1, 269981, Control_c, 0, 64, 84
1, 269996, Control_c, 0, 64, 87
1, 270011, Control_c, 0, 64, 90
1, 270026, Control_c, 0, 64, 93
1, 270028, Note_off_c, 0, 54, 65
1, 270040, Control_c, 0, 64, 95
1, 270050, Note_on_c, 0, 62, 46
1, 270055, Control_c, 0, 64, 96
1, 270070, Control_c, 0, 64, 98
1, 270085, Control_c, 0, 64, 101
1, 270096, Note_off_c, 0, 57, 35
1, 270100, Control_c, 0, 64, 105
1, 270103, Note_off_c, 0, 66, 37
1, 270115, Control_c, 0, 64, 110
1, 270130, Control_c, 0, 64, 115
1, 270133, Note_on_c, 0, 69, 47
1, 270144, Control_c, 0, 64, 117
1, 270159, Control_c, 0, 64, 120
1, 270174, Control_c, 0, 64, 127
1, 270234, Note_on_c, 0, 50, 61
1, 270242, Note_off_c, 0, 62, 39
1, 270259, Note_on_c, 0, 57, 44
1, 270282, Note_off_c, 0, 50, 63
1, 270383, Note_on_c, 0, 62, 44
1, 270430, Note_off_c, 0, 69, 35
1, 270472, Note_on_c, 0, 66, 48
1, 270482, Note_off_c, 0, 57, 27
1, 270531, Note_on_c, 0, 45, 53
1, 270552, Control_c, 0, 64, 87
1, 270568, Control_c, 0, 64, 67
1, 270582, Control_c, 0, 64, 54
1, 270597, Control_c, 0, 64, 46
1, 270601, Note_off_c, 0, 62, 42
1, 270609, Note_on_c, 0, 57, 48
1, 270612, Control_c, 0, 64, 48
1, 270627, Control_c, 0, 64, 58
1, 270642, Control_c, 0, 64, 64
1, 270656, Control_c, 0, 64, 70
1, 270670, Control_c, 0, 64, 79
1, 270685, Control_c, 0, 64, 88
1, 270700, Control_c, 0, 64, 95
1, 270715, Control_c, 0, 64, 101
1, 270730, Control_c, 0, 64, 109
1, 270744, Control_c, 0, 64, 117
1, 270746, Note_on_c, 0, 44, 50
1, 270755, Note_off_c, 0, 45, 57
1, 270759, Control_c, 0, 64, 127
1, 270795, Note_off_c, 0, 57, 50
1, 270797, Note_on_c, 0, 62, 40
1, 270825, Note_off_c, 0, 66, 16
1, 270899, Note_off_c, 0, 44, 58
1, 270936, Note_on_c, 0, 43, 53
1, 271033, Control_c, 0, 64, 116
1, 271048, Control_c, 0, 64, 112
1, 271063, Control_c, 0, 64, 110
1, 271078, Control_c, 0, 64, 108
1, 271092, Control_c, 0, 64, 105
1, 271107, Control_c, 0, 64, 102
1, 271122, Control_c, 0, 64, 98
1, 271127, Note_off_c, 0, 43, 53
1, 271137, Control_c, 0, 64, 95
1, 271152, Control_c, 0, 64, 92
1, 271167, Control_c, 0, 64, 90
1, 271181, Control_c, 0, 64, 89
1, 271196, Control_c, 0, 64, 88
1, 271211, Control_c, 0, 64, 88
1, 271219, Note_on_c, 0, 42, 47
1, 271285, Control_c, 0, 64, 86
1, 271300, Control_c, 0, 64, 76
1, 271314, Control_c, 0, 64, 64
1, 271329, Control_c, 0, 64, 49
1, 271344, Control_c, 0, 64, 45
1, 271360, Control_c, 0, 64, 52
1, 271363, Note_on_c, 0, 69, 52
1, 271375, Control_c, 0, 64, 61
1, 271390, Control_c, 0, 64, 67
1, 271404, Control_c, 0, 64, 76
1, 271419, Control_c, 0, 64, 91
1, 271434, Control_c, 0, 64, 116
1, 271449, Control_c, 0, 64, 127
1, 271498, Note_off_c, 0, 62, 56
1, 271512, Note_off_c, 0, 69, 62
1, 271811, Note_on_c, 0, 39, 42
1, 271860, Note_off_c, 0, 42, 51
1, 271900, Control_c, 0, 64, 92
1, 271915, Control_c, 0, 64, 73
1, 271923, Note_on_c, 0, 73, 56
1, 271930, Control_c, 0, 64, 62
1, 271945, Control_c, 0, 64, 57
1, 271960, Control_c, 0, 64, 59
1, 271975, Control_c, 0, 64, 63
1, 271990, Control_c, 0, 64, 67
1, 272005, Control_c, 0, 64, 73
1, 272019, Control_c, 0, 64, 80
1, 272034, Control_c, 0, 64, 86
1, 272049, Control_c, 0, 64, 87
1, 272079, Control_c, 0, 64, 87
1, 272093, Control_c, 0, 64, 89
1, 272108, Control_c, 0, 64, 92
1, 272123, Control_c, 0, 64, 98
1, 272137, Control_c, 0, 64, 100
1, 272154, Control_c, 0, 64, 101
1, 272154, Note_off_c, 0, 39, 39
1, 272154, Note_off_c, 0, 73, 57
1, 272196, Note_on_c, 0, 49, 37
1, 272198, Control_c, 0, 64, 101
1, 272257, Control_c, 0, 64, 102
1, 272272, Control_c, 0, 64, 102
1, 272301, Control_c, 0, 64, 103
1, 272327, Note_on_c, 0, 66, 39
1, 272344, Note_off_c, 0, 49, 36
1, 272377, Note_off_c, 0, 66, 51
1, 272390, Control_c, 0, 64, 103
1, 272430, Note_on_c, 0, 61, 43
1, 272440, Note_on_c, 0, 57, 43
1, 272473, Note_off_c, 0, 61, 63
1, 272536, Note_off_c, 0, 57, 53
1, 272590, Control_c, 0, 64, 103
1, 272605, Control_c, 0, 64, 102
1, 272634, Control_c, 0, 64, 102
1, 272649, Control_c, 0, 64, 101
1, 272708, Control_c, 0, 64, 102
1, 272718, Note_on_c, 0, 48, 49
1, 272718, Note_on_c, 0, 72, 54
1, 272723, Control_c, 0, 64, 104
1, 272738, Control_c, 0, 64, 107
1, 272753, Control_c, 0, 64, 114
1, 272768, Control_c, 0, 64, 127
1, 272797, Control_c, 0, 64, 104
1, 272807, Note_off_c, 0, 48, 57
1, 272812, Control_c, 0, 64, 82
1, 272824, Note_on_c, 0, 69, 59
1, 272827, Control_c, 0, 64, 65
1, 272842, Control_c, 0, 64, 46
1, 272851, Note_on_c, 0, 41, 42
1, 272857, Control_c, 0, 64, 13
1, 272867, Note_off_c, 0, 72, 48
1, 272872, Control_c, 0, 64, 15
1, 272887, Control_c, 0, 64, 35
1, 272902, Control_c, 0, 64, 53
1, 272917, Control_c, 0, 64, 61
1, 272932, Control_c, 0, 64, 64
1, 272947, Control_c, 0, 64, 66
1, 272975, Note_off_c, 0, 41, 56
1, 273006, Control_c, 0, 64, 66
1, 273021, Control_c, 0, 64, 67
1, 273036, Control_c, 0, 64, 69
1, 273051, Control_c, 0, 64, 74
1, 273057, Note_off_c, 0, 69, 59
1, 273066, Control_c, 0, 64, 81
1, 273066, Note_on_c, 0, 65, 57
1, 273072, Note_on_c, 0, 49, 36
1, 273081, Control_c, 0, 64, 91
1, 273096, Control_c, 0, 64, 106
1, 273110, Note_off_c, 0, 49, 53
1, 273110, Control_c, 0, 64, 127
1, 273135, Note_off_c, 0, 65, 59
1, 273146, Note_on_c, 0, 57, 68
1, 273180, Note_on_c, 0, 61, 35
1, 273212, Note_off_c, 0, 61, 51
1, 273222, Note_off_c, 0, 57, 62
1, 273349, Note_on_c, 0, 72, 69
1, 273404, Note_on_c, 0, 48, 39
1, 273414, Control_c, 0, 64, 91
1, 273429, Control_c, 0, 64, 66
1, 273438, Note_off_c, 0, 48, 61
1, 273443, Note_on_c, 0, 68, 69
1, 273444, Control_c, 0, 64, 50
1, 273450, Note_off_c, 0, 72, 59
1, 273453, Note_on_c, 0, 42, 57
1, 273458, Control_c, 0, 64, 41
1, 273473, Control_c, 0, 64, 45
1, 273488, Control_c, 0, 64, 56
1, 273503, Control_c, 0, 64, 64
1, 273518, Control_c, 0, 64, 71
1, 273532, Control_c, 0, 64, 81
1, 273547, Control_c, 0, 64, 96
1, 273562, Control_c, 0, 64, 125
1, 273576, Control_c, 0, 64, 127
1, 273577, Note_off_c, 0, 42, 61
1, 273583, Note_off_c, 0, 68, 56
1, 273628, Note_on_c, 0, 64, 58
1, 273630, Note_on_c, 0, 49, 37
1, 273663, Note_off_c, 0, 49, 51
1, 273703, Note_on_c, 0, 58, 59
1, 273722, Note_on_c, 0, 61, 53
1, 273731, Note_off_c, 0, 64, 52
1, 273745, Note_off_c, 0, 61, 59
1, 273793, Note_off_c, 0, 58, 54
1, 273874, Note_on_c, 0, 72, 69
1, 273875, Note_on_c, 0, 48, 47
1, 273933, Note_off_c, 0, 48, 61
1, 273933, Control_c, 0, 64, 77
1, 273948, Control_c, 0, 64, 53
1, 273963, Control_c, 0, 64, 0
1, 273964, Note_on_c, 0, 69, 68
1, 273971, Note_on_c, 0, 41, 55
1, 273981, Note_off_c, 0, 72, 59
1, 274029, Control_c, 0, 64, 33
1, 274044, Control_c, 0, 64, 56
1, 274059, Control_c, 0, 64, 63
1, 274069, Note_off_c, 0, 41, 61
1, 274074, Control_c, 0, 64, 66
1, 274088, Control_c, 0, 64, 68
1, 274103, Control_c, 0, 64, 69
1, 274118, Control_c, 0, 64, 71
1, 274133, Control_c, 0, 64, 76
1, 274137, Note_off_c, 0, 69, 63
1, 274148, Control_c, 0, 64, 85
1, 274163, Control_c, 0, 64, 127
1, 274166, Note_on_c, 0, 65, 59
1, 274166, Note_on_c, 0, 49, 30
1, 274202, Note_off_c, 0, 49, 55
1, 274204, Note_off_c, 0, 65, 65
1, 274255, Note_on_c, 0, 57, 67
1, 274270, Note_on_c, 0, 61, 30
1, 274282, Note_off_c, 0, 57, 66
1, 274303, Note_off_c, 0, 61, 51
1, 274462, Note_on_c, 0, 77, 65
1, 274479, Note_on_c, 0, 48, 41
1, 274649, Note_off_c, 0, 48, 38
1, 274652, Note_on_c, 0, 39, 52
1, 274696, Control_c, 0, 64, 99
1, 274707, Note_off_c, 0, 77, 58
1, 274710, Control_c, 0, 64, 72
1, 274725, Control_c, 0, 64, 56
1, 274729, Note_on_c, 0, 73, 65
1, 274740, Control_c, 0, 64, 49
1, 274742, Poly_aftertouch_c, 0, 71, 127
1, 274762, Control_c, 0, 64, 52
1, 274777, Control_c, 0, 64, 59
1, 274792, Control_c, 0, 64, 66
1, 274807, Control_c, 0, 64, 74
1, 274822, Control_c, 0, 64, 91
1, 274836, Control_c, 0, 64, 127
1, 274845, Poly_aftertouch_c, 0, 71, 0
1, 274849, Note_off_c, 0, 39, 62
1, 274909, Note_on_c, 0, 49, 45
1, 274920, Note_off_c, 0, 73, 64
1, 274946, Note_on_c, 0, 66, 57
1, 274952, Note_off_c, 0, 49, 63
1, 274998, Note_off_c, 0, 66, 59
1, 275030, Note_on_c, 0, 57, 58
1, 275033, Note_on_c, 0, 61, 50
1, 275058, Note_off_c, 0, 61, 57
1, 275077, Note_off_c, 0, 57, 62
1, 275206, Note_on_c, 0, 48, 47
1, 275214, Note_on_c, 0, 72, 69
1, 275266, Control_c, 0, 64, 87
1, 275273, Note_off_c, 0, 48, 62
1, 275281, Control_c, 0, 64, 63
1, 275292, Note_on_c, 0, 69, 72
1, 275295, Control_c, 0, 64, 37
1, 275310, Control_c, 0, 64, 14
1, 275311, Note_on_c, 0, 41, 56
1, 275325, Control_c, 0, 64, 16
1, 275340, Control_c, 0, 64, 38
1, 275355, Control_c, 0, 64, 55
1, 275370, Control_c, 0, 64, 63
1, 275385, Control_c, 0, 64, 67
1, 275400, Control_c, 0, 64, 71
1, 275400, Note_off_c, 0, 41, 61
1, 275415, Control_c, 0, 64, 78
1, 275430, Control_c, 0, 64, 85
1, 275445, Control_c, 0, 64, 94
1, 275455, Poly_aftertouch_c, 0, 67, 127
1, 275459, Control_c, 0, 64, 110
1, 275460, Note_off_c, 0, 69, 62
1, 275471, Note_off_c, 0, 72, 31
1, 275474, Control_c, 0, 64, 127
1, 275477, Note_on_c, 0, 49, 47
1, 275483, Note_on_c, 0, 65, 63
1, 275502, Poly_aftertouch_c, 0, 67, 0
1, 275516, Note_off_c, 0, 49, 64
1, 275552, Note_off_c, 0, 65, 62
1, 275563, Note_on_c, 0, 61, 64
1, 275569, Note_on_c, 0, 57, 69
1, 275591, Note_off_c, 0, 61, 65
1, 275622, Note_off_c, 0, 57, 61
1, 275722, Note_on_c, 0, 48, 51
1, 275732, Note_on_c, 0, 72, 69
1, 275777, Control_c, 0, 64, 122
1, 275783, Note_off_c, 0, 48, 60
1, 275792, Control_c, 0, 64, 75
1, 275807, Control_c, 0, 64, 58
1, 275812, Note_on_c, 0, 42, 59
1, 275822, Control_c, 0, 64, 27
1, 275826, Note_on_c, 0, 68, 68
1, 275827, Note_off_c, 0, 72, 62
1, 275837, Control_c, 0, 64, 9
1, 275851, Control_c, 0, 64, 27
1, 275866, Control_c, 0, 64, 52
1, 275881, Control_c, 0, 64, 63
1, 275896, Control_c, 0, 64, 70
1, 275911, Control_c, 0, 64, 81
1, 275912, Note_off_c, 0, 42, 63
1, 275925, Control_c, 0, 64, 95
1, 275940, Control_c, 0, 64, 116
1, 275955, Note_off_c, 0, 68, 59
1, 275955, Control_c, 0, 64, 127
1, 275966, Note_on_c, 0, 49, 20
1, 275993, Note_on_c, 0, 64, 47
1, 276008, Note_off_c, 0, 49, 41
1, 276080, Note_on_c, 0, 58, 54
1, 276090, Note_on_c, 0, 61, 21
1, 276128, Note_off_c, 0, 58, 56
1, 276128, Note_off_c, 0, 61, 52
1, 276156, Note_off_c, 0, 64, 30
1, 276220, Note_on_c, 0, 49, 37
1, 276234, Note_on_c, 0, 72, 61
1, 276261, Note_off_c, 0, 49, 48
1, 276319, Control_c, 0, 64, 75
1, 276334, Control_c, 0, 64, 59
1, 276349, Control_c, 0, 64, 32
1, 276350, Note_on_c, 0, 69, 56
1, 276355, Note_off_c, 0, 72, 52
1, 276363, Note_on_c, 0, 41, 45
1, 276363, Control_c, 0, 64, 19
1, 276378, Control_c, 0, 64, 25
1, 276393, Control_c, 0, 64, 45
1, 276407, Control_c, 0, 64, 59
1, 276421, Note_off_c, 0, 41, 58
1, 276422, Control_c, 0, 64, 63
1, 276437, Control_c, 0, 64, 66
1, 276452, Control_c, 0, 64, 70
1, 276467, Control_c, 0, 64, 73
1, 276482, Control_c, 0, 64, 77
1, 276497, Control_c, 0, 64, 83
1, 276499, Note_off_c, 0, 69, 59
1, 276512, Control_c, 0, 64, 90
1, 276527, Control_c, 0, 64, 99
1, 276542, Control_c, 0, 64, 117
1, 276550, Note_on_c, 0, 65, 49
1, 276556, Control_c, 0, 64, 127
1, 276612, Note_off_c, 0, 65, 59
1, 276654, Note_on_c, 0, 57, 55
1, 276664, Note_on_c, 0, 61, 37
1, 276695, Note_off_c, 0, 61, 51
1, 276698, Note_off_c, 0, 57, 61
1, 276837, Note_on_c, 0, 69, 52
1, 276875, Note_on_c, 0, 48, 37
1, 276971, Control_c, 0, 64, 122
1, 276980, Note_off_c, 0, 48, 39
1, 276986, Control_c, 0, 64, 83
1, 277009, Control_c, 0, 64, 69
1, 277023, Control_c, 0, 64, 63
1, 277035, Note_on_c, 0, 39, 43
1, 277053, Control_c, 0, 64, 67
1, 277068, Control_c, 0, 64, 73
1, 277083, Control_c, 0, 64, 84
1, 277098, Control_c, 0, 64, 102
1, 277099, Note_off_c, 0, 69, 62
1, 277100, Note_on_c, 0, 73, 61
1, 277113, Control_c, 0, 64, 127
1, 277242, Note_off_c, 0, 39, 46
1, 277267, Note_on_c, 0, 66, 53
1, 277283, Note_off_c, 0, 73, 53
1, 277305, Note_on_c, 0, 49, 42
1, 277352, Note_off_c, 0, 66, 52
1, 277368, Note_on_c, 0, 65, 52
1, 277420, Note_off_c, 0, 49, 53
1, 277430, Note_off_c, 0, 65, 60
1, 277439, Note_on_c, 0, 64, 61
1, 277456, Note_on_c, 0, 57, 40
1, 277489, Note_off_c, 0, 64, 60
1, 277515, Note_off_c, 0, 57, 54
1, 277533, Note_on_c, 0, 63, 62
1, 277603, Note_off_c, 0, 63, 62
1, 277613, Note_on_c, 0, 69, 68
1, 277621, Note_on_c, 0, 48, 42
1, 277646, Control_c, 0, 64, 107
1, 277661, Control_c, 0, 64, 76
1, 277676, Control_c, 0, 64, 61
1, 277691, Control_c, 0, 64, 48
1, 277692, Note_off_c, 0, 48, 55
1, 277705, Control_c, 0, 64, 48
1, 277713, Note_on_c, 0, 72, 68
1, 277720, Control_c, 0, 64, 54
1, 277728, Note_on_c, 0, 41, 50
1, 277735, Control_c, 0, 64, 61
1, 277752, Note_off_c, 0, 69, 51
1, 277758, Control_c, 0, 64, 66
1, 277773, Control_c, 0, 64, 70
1, 277787, Note_off_c, 0, 72, 64
1, 277788, Control_c, 0, 64, 76
1, 277802, Control_c, 0, 64, 80
1, 277817, Control_c, 0, 64, 81
1, 277832, Control_c, 0, 64, 82
1, 277833, Note_on_c, 0, 57, 65
1, 277846, Note_off_c, 0, 41, 54
1, 277847, Control_c, 0, 64, 85
1, 277862, Control_c, 0, 64, 93
1, 277877, Control_c, 0, 64, 120
1, 277885, Note_on_c, 0, 49, 48
1, 277892, Control_c, 0, 64, 127
1, 277900, Note_off_c, 0, 57, 62
1, 277902, Note_on_c, 0, 63, 67
1, 277931, Note_off_c, 0, 49, 62
1, 277958, Note_off_c, 0, 63, 63
1, 277971, Note_on_c, 0, 66, 65
1, 277977, Note_on_c, 0, 55, 54
1, 277998, Note_off_c, 0, 66, 66
1, 278034, Note_off_c, 0, 55, 58
1, 278049, Note_on_c, 0, 68, 79
1, 278117, Note_off_c, 0, 68, 59
1, 278133, Note_on_c, 0, 73, 76
1, 278172, Control_c, 0, 64, 86
1, 278187, Control_c, 0, 64, 65
1, 278202, Control_c, 0, 64, 54
1, 278217, Control_c, 0, 64, 55
1, 278220, Note_on_c, 0, 43, 45
1, 278229, Note_on_c, 0, 77, 79
1, 278232, Control_c, 0, 64, 60
1, 278247, Control_c, 0, 64, 67
1, 278259, Note_off_c, 0, 73, 62
1, 278261, Control_c, 0, 64, 82
1, 278276, Control_c, 0, 64, 127
1, 278280, Note_off_c, 0, 43, 58
1, 278324, Note_off_c, 0, 77, 45
1, 278342, Note_on_c, 0, 72, 74
1, 278381, Note_on_c, 0, 53, 46
1, 278426, Note_on_c, 0, 71, 73
1, 278430, Note_off_c, 0, 53, 63
1, 278443, Note_off_c, 0, 72, 63
1, 278498, Note_on_c, 0, 70, 75
1, 278510, Note_off_c, 0, 71, 57
1, 278511, Note_on_c, 0, 56, 40
1, 278563, Note_on_c, 0, 65, 67
1, 278563, Note_off_c, 0, 56, 57
1, 278568, Note_off_c, 0, 70, 62
1, 278627, Note_on_c, 0, 72, 81
1, 278636, Note_off_c, 0, 65, 57
1, 278655, Note_on_c, 0, 51, 55
1, 278737, Note_on_c, 0, 75, 87
1, 278759, Control_c, 0, 64, 79
1, 278774, Control_c, 0, 64, 60
1, 278786, Note_on_c, 0, 44, 60
1, 278786, Note_off_c, 0, 51, 53
1, 278789, Control_c, 0, 64, 34
1, 278798, Note_off_c, 0, 72, 63
1, 278803, Control_c, 0, 64, 33
1, 278818, Control_c, 0, 64, 43
1, 278822, Note_off_c, 0, 75, 65
1, 278833, Control_c, 0, 64, 57
1, 278838, Note_on_c, 0, 74, 44
1, 278848, Control_c, 0, 64, 63
1, 278856, Note_on_c, 0, 60, 64
1, 278863, Control_c, 0, 64, 68
1, 278864, Note_off_c, 0, 74, 52
1, 278869, Note_off_c, 0, 44, 63
1, 278877, Control_c, 0, 64, 75
1, 278892, Control_c, 0, 64, 87
1, 278905, Note_on_c, 0, 66, 71
1, 278907, Control_c, 0, 64, 115
1, 278919, Note_on_c, 0, 53, 63
1, 278919, Note_off_c, 0, 60, 63
1, 278922, Control_c, 0, 64, 127
1, 278966, Note_off_c, 0, 53, 61
1, 278967, Note_on_c, 0, 70, 77
1, 278968, Note_off_c, 0, 66, 62
1, 278990, Note_off_c, 0, 70, 71
1, 279005, Note_on_c, 0, 61, 61
1, 279048, Note_on_c, 0, 71, 64
1, 279064, Note_on_c, 0, 69, 52
1, 279087, Note_off_c, 0, 71, 59
1, 279087, Note_off_c, 0, 69, 58
1, 279093, Note_off_c, 0, 61, 55
1, 279131, Note_on_c, 0, 77, 76
1, 279132, Note_on_c, 0, 76, 73
1, 279147, Note_on_c, 0, 50, 20
1, 279203, Control_c, 0, 64, 104
1, 279218, Control_c, 0, 64, 72
1, 279229, Note_on_c, 0, 46, 47
1, 279233, Control_c, 0, 64, 59
1, 279233, Note_off_c, 0, 76, 61
1, 279250, Note_on_c, 0, 80, 84
1, 279254, Note_off_c, 0, 77, 65
1, 279255, Control_c, 0, 64, 55
1, 279270, Control_c, 0, 64, 59
1, 279272, Note_on_c, 0, 54, 48
1, 279272, Note_off_c, 0, 50, 39
1, 279285, Control_c, 0, 64, 67
1, 279300, Control_c, 0, 64, 79
1, 279315, Control_c, 0, 64, 127
1, 279355, Note_off_c, 0, 46, 63
1, 279367, Note_on_c, 0, 76, 72
1, 279373, Note_on_c, 0, 77, 56
1, 279391, Note_off_c, 0, 77, 61
1, 279397, Note_off_c, 0, 54, 59
1, 279429, Note_off_c, 0, 80, 61
1, 279437, Note_on_c, 0, 75, 69
1, 279449, Note_on_c, 0, 62, 55
1, 279464, Note_off_c, 0, 76, 63
1, 279497, Note_on_c, 0, 73, 64
1, 279507, Note_off_c, 0, 62, 53
1, 279507, Note_off_c, 0, 75, 62
1, 279536, Note_on_c, 0, 54, 54
1, 279544, Note_on_c, 0, 70, 75
1, 279580, Note_off_c, 0, 73, 60
1, 279617, Note_off_c, 0, 54, 57
1, 279630, Note_on_c, 0, 75, 81
1, 279648, Note_on_c, 0, 48, 53
1, 279655, Note_off_c, 0, 70, 62
1, 279657, Control_c, 0, 64, 104
1, 279671, Control_c, 0, 64, 71
1, 279686, Control_c, 0, 64, 54
1, 279701, Control_c, 0, 64, 46
1, 279716, Control_c, 0, 64, 51
1, 279731, Note_on_c, 0, 78, 86
1, 279731, Control_c, 0, 64, 59
1, 279744, Note_off_c, 0, 48, 56
1, 279746, Control_c, 0, 64, 66
1, 279761, Control_c, 0, 64, 76
1, 279775, Control_c, 0, 64, 92
1, 279785, Note_on_c, 0, 54, 52
1, 279790, Control_c, 0, 64, 127
1, 279805, Note_on_c, 0, 66, 62
1, 279852, Note_off_c, 0, 66, 58
1, 279875, Note_off_c, 0, 75, 61
1, 279883, Note_on_c, 0, 70, 67
1, 279891, Note_off_c, 0, 78, 57
1, 279921, Note_off_c, 0, 70, 59
1, 279965, Note_off_c, 0, 54, 58
1, 279979, Note_on_c, 0, 72, 64
1, 280055, Note_off_c, 0, 72, 62
1, 280057, Note_on_c, 0, 58, 49
1, 280145, Note_on_c, 0, 74, 17
1, 280187, Note_on_c, 0, 78, 72
1, 280187, Note_off_c, 0, 74, 30
1, 280275, Note_off_c, 0, 58, 38
1, 280298, Note_on_c, 0, 50, 43
1, 280361, Control_c, 0, 64, 91
1, 280376, Control_c, 0, 64, 71
1, 280390, Control_c, 0, 64, 58
1, 280406, Control_c, 0, 64, 39
1, 280417, Note_on_c, 0, 82, 66
1, 280421, Control_c, 0, 64, 37
1, 280436, Control_c, 0, 64, 44
1, 280450, Control_c, 0, 64, 57
1, 280465, Control_c, 0, 64, 64
1, 280480, Control_c, 0, 64, 69
1, 280495, Control_c, 0, 64, 77
1, 280510, Control_c, 0, 64, 89
1, 280514, Note_off_c, 0, 78, 61
1, 280524, Control_c, 0, 64, 101
1, 280539, Control_c, 0, 64, 127
1, 280548, Note_on_c, 0, 70, 52
1, 280572, Note_on_c, 0, 58, 47
1, 280572, Note_off_c, 0, 50, 61
1, 280649, Poly_aftertouch_c, 0, 80, 127
1, 280685, Note_off_c, 0, 58, 63
1, 280686, Note_on_c, 0, 78, 57
1, 280686, Poly_aftertouch_c, 0, 80, 0
1, 280688, Note_off_c, 0, 82, 55
1, 280718, Note_off_c, 0, 70, 39
1, 280771, Note_on_c, 0, 66, 45
1, 280799, Note_off_c, 0, 78, 57
1, 280843, Note_off_c, 0, 66, 50
1, 280884, Note_on_c, 0, 59, 44
1, 280910, Note_on_c, 0, 77, 54
1, 280992, Control_c, 0, 64, 87
1, 281007, Control_c, 0, 64, 69
1, 281008, Note_on_c, 0, 68, 45
1, 281022, Control_c, 0, 64, 61
1, 281052, Control_c, 0, 64, 63
1, 281054, Note_on_c, 0, 51, 37
1, 281067, Control_c, 0, 64, 69
1, 281080, Note_off_c, 0, 68, 57
1, 281081, Control_c, 0, 64, 77
1, 281082, Note_off_c, 0, 77, 56
1, 281096, Control_c, 0, 64, 90
1, 281102, Note_on_c, 0, 80, 53
1, 281111, Control_c, 0, 64, 110
1, 281123, Note_off_c, 0, 59, 35
1, 281126, Control_c, 0, 64, 127
1, 281192, Note_on_c, 0, 68, 34
1, 281239, Note_off_c, 0, 51, 53
1, 281282, Note_off_c, 0, 80, 56
1, 281296, Note_on_c, 0, 60, 39
1, 281310, Note_on_c, 0, 77, 49
1, 281353, Note_off_c, 0, 68, 36
1, 281368, Note_off_c, 0, 60, 59
1, 281435, Note_on_c, 0, 66, 32
1, 281575, Note_on_c, 0, 61, 44
1, 281585, Note_off_c, 0, 66, 38
1, 281606, Note_off_c, 0, 77, 52
1, 281645, Note_on_c, 0, 75, 44
1, 281651, Note_off_c, 0, 61, 58
1, 281744, Note_off_c, 0, 75, 61
1, 281784, Note_on_c, 0, 66, 38
1, 281815, Control_c, 0, 64, 117
1, 281830, Control_c, 0, 64, 112
1, 281844, Control_c, 0, 64, 109
1, 281859, Control_c, 0, 64, 107
1, 281874, Control_c, 0, 64, 107
1, 281889, Control_c, 0, 64, 106
1, 281903, Control_c, 0, 64, 105
1, 281918, Control_c, 0, 64, 104
1, 281933, Control_c, 0, 64, 103
1, 281948, Control_c, 0, 64, 102
1, 281963, Control_c, 0, 64, 100
1, 281977, Control_c, 0, 64, 99
1, 282021, Control_c, 0, 64, 99
1, 282080, Note_on_c, 0, 41, 35
1, 282125, Control_c, 0, 64, 96
1, 282140, Control_c, 0, 64, 82
1, 282155, Control_c, 0, 64, 67
1, 282169, Control_c, 0, 64, 51
1, 282184, Control_c, 0, 64, 47
1, 282199, Control_c, 0, 64, 52
1, 282212, Note_on_c, 0, 78, 45
1, 282214, Control_c, 0, 64, 60
1, 282229, Control_c, 0, 64, 65
1, 282251, Control_c, 0, 64, 70
1, 282266, Control_c, 0, 64, 79
1, 282281, Control_c, 0, 64, 87
1, 282289, Note_off_c, 0, 41, 56
1, 282295, Control_c, 0, 64, 94
1, 282310, Control_c, 0, 64, 100
1, 282325, Control_c, 0, 64, 101
1, 282369, Control_c, 0, 64, 101
1, 282374, Note_off_c, 0, 66, 34
1, 282384, Control_c, 0, 64, 102
1, 282399, Control_c, 0, 64, 103
1, 282414, Control_c, 0, 64, 104
1, 282527, Note_on_c, 0, 57, 51
1, 282587, Note_on_c, 0, 66, 30
1, 282593, Note_off_c, 0, 57, 55
1, 282593, Control_c, 0, 64, 104
1, 282608, Control_c, 0, 64, 105
1, 282623, Control_c, 0, 64, 106
1, 282637, Control_c, 0, 64, 107
1, 282652, Control_c, 0, 64, 108
1, 282667, Control_c, 0, 64, 109
1, 282682, Control_c, 0, 64, 109
1, 282689, Note_on_c, 0, 63, 22
1, 282697, Note_on_c, 0, 75, 55
1, 282729, Note_off_c, 0, 63, 42
1, 282730, Note_off_c, 0, 66, 0
1, 282756, Note_on_c, 0, 66, 4
1, 282809, Note_off_c, 0, 78, 25
1, 282815, Control_c, 0, 64, 109
1, 282819, Note_off_c, 0, 66, 45
1, 282871, Note_on_c, 0, 56, 51
1, 282874, Control_c, 0, 64, 107
1, 282889, Control_c, 0, 64, 95
1, 282904, Control_c, 0, 64, 80
1, 282918, Control_c, 0, 64, 68
1, 282933, Control_c, 0, 64, 64
1, 282963, Control_c, 0, 64, 66
1, 282978, Control_c, 0, 64, 69
1, 283000, Control_c, 0, 64, 74
1, 283010, Note_on_c, 0, 73, 54
1, 283015, Control_c, 0, 64, 81
1, 283016, Note_on_c, 0, 61, 36
1, 283030, Control_c, 0, 64, 86
1, 283044, Control_c, 0, 64, 87
1, 283114, Note_on_c, 0, 65, 55
1, 283118, Control_c, 0, 64, 88
1, 283133, Control_c, 0, 64, 90
1, 283134, Note_off_c, 0, 75, 54
1, 283148, Control_c, 0, 64, 93
1, 283152, Note_off_c, 0, 73, 38
1, 283163, Control_c, 0, 64, 96
1, 283168, Note_off_c, 0, 65, 58
1, 283178, Control_c, 0, 64, 99
1, 283186, Note_on_c, 0, 77, 69
1, 283192, Control_c, 0, 64, 102
1, 283207, Control_c, 0, 64, 108
1, 283214, Note_off_c, 0, 56, 61
1, 283216, Note_off_c, 0, 61, 57
1, 283222, Control_c, 0, 64, 115
1, 283237, Control_c, 0, 64, 127
1, 283264, Note_on_c, 0, 64, 49
1, 283296, Note_on_c, 0, 65, 53
1, 283314, Note_off_c, 0, 64, 60
1, 283335, Note_off_c, 0, 77, 55
1, 283371, Note_on_c, 0, 73, 58
1, 283412, Note_on_c, 0, 56, 46
1, 283445, Control_c, 0, 64, 112
1, 283457, Note_off_c, 0, 73, 63
1, 283460, Control_c, 0, 64, 100
1, 283475, Control_c, 0, 64, 102
1, 283490, Control_c, 0, 64, 110
1, 283505, Control_c, 0, 64, 127
1, 283521, Note_on_c, 0, 60, 49
1, 283529, Note_off_c, 0, 65, 62
1, 283579, Control_c, 0, 64, 84
1, 283594, Control_c, 0, 64, 71
1, 283597, Note_on_c, 0, 72, 55
1, 283608, Control_c, 0, 64, 66
1, 283623, Control_c, 0, 64, 67
1, 283638, Control_c, 0, 64, 73
1, 283653, Control_c, 0, 64, 87
1, 283667, Control_c, 0, 64, 127
1, 283683, Note_on_c, 0, 63, 56
1, 283708, Note_off_c, 0, 56, 61
1, 283726, Note_off_c, 0, 72, 51
1, 283761, Note_off_c, 0, 63, 61
1, 283777, Note_on_c, 0, 75, 66
1, 283845, Note_off_c, 0, 60, 53
1, 283872, Note_on_c, 0, 63, 48
1, 283943, Note_on_c, 0, 55, 53
1, 283977, Note_on_c, 0, 72, 47
1, 283986, Control_c, 0, 64, 82
1, 284000, Control_c, 0, 64, 67
1, 284012, Note_off_c, 0, 75, 50
1, 284015, Control_c, 0, 64, 60
1, 284030, Control_c, 0, 64, 57
1, 284045, Control_c, 0, 64, 60
1, 284058, Note_on_c, 0, 58, 55
1, 284060, Control_c, 0, 64, 64
1, 284074, Control_c, 0, 64, 68
1, 284089, Control_c, 0, 64, 73
1, 284104, Control_c, 0, 64, 78
1, 284112, Note_off_c, 0, 63, 61
1, 284119, Control_c, 0, 64, 81
1, 284147, Note_off_c, 0, 72, 64
1, 284154, Note_on_c, 0, 70, 62
1, 284156, Note_off_c, 0, 58, 54
1, 284180, Control_c, 0, 64, 82
1, 284195, Control_c, 0, 64, 82
1, 284210, Control_c, 0, 64, 85
1, 284225, Control_c, 0, 64, 87
1, 284239, Control_c, 0, 64, 89
1, 284242, Note_on_c, 0, 61, 51
1, 284246, Note_off_c, 0, 55, 62
1, 284254, Control_c, 0, 64, 90
1, 284269, Control_c, 0, 64, 91
1, 284304, Note_off_c, 0, 61, 59
1, 284307, Note_off_c, 0, 70, 38
1, 284310, Note_on_c, 0, 73, 66
1, 284313, Control_c, 0, 64, 91
1, 284319, Note_on_c, 0, 58, 37
1, 284328, Control_c, 0, 64, 92
1, 284343, Control_c, 0, 64, 94
1, 284356, Note_off_c, 0, 58, 55
1, 284357, Control_c, 0, 64, 96
1, 284372, Control_c, 0, 64, 97
1, 284387, Control_c, 0, 64, 98
1, 284420, Note_on_c, 0, 61, 52
1, 284447, Control_c, 0, 64, 98
1, 284462, Control_c, 0, 64, 99
1, 284477, Control_c, 0, 64, 101
1, 284498, Control_c, 0, 64, 104
1, 284510, Note_on_c, 0, 70, 57
1, 284513, Control_c, 0, 64, 105
1, 284528, Control_c, 0, 64, 103
1, 284543, Control_c, 0, 64, 89
1, 284558, Control_c, 0, 64, 74
1, 284563, Note_on_c, 0, 54, 45
1, 284572, Control_c, 0, 64, 63
1, 284587, Control_c, 0, 64, 54
1, 284596, Note_off_c, 0, 61, 25
1, 284602, Control_c, 0, 64, 52
1, 284617, Control_c, 0, 64, 55
1, 284632, Control_c, 0, 64, 61
1, 284647, Control_c, 0, 64, 65
1, 284657, Note_off_c, 0, 73, 0
1, 284661, Control_c, 0, 64, 69
1, 284669, Note_on_c, 0, 57, 42
1, 284676, Control_c, 0, 64, 72
1, 284691, Control_c, 0, 64, 75
1, 284694, Poly_aftertouch_c, 0, 73, 127
1, 284706, Control_c, 0, 64, 76
1, 284712, Note_off_c, 0, 70, 62
1, 284721, Control_c, 0, 64, 77
1, 284727, Poly_aftertouch_c, 0, 73, 0
1, 284742, Note_on_c, 0, 69, 53
1, 284751, Control_c, 0, 64, 78
1, 284765, Control_c, 0, 64, 79
1, 284780, Control_c, 0, 64, 82
1, 284795, Control_c, 0, 64, 83
1, 284810, Control_c, 0, 64, 84
1, 284824, Control_c, 0, 64, 85
1, 284839, Control_c, 0, 64, 86
1, 284840, Note_off_c, 0, 57, 51
1, 284854, Control_c, 0, 64, 86
1, 284859, Note_on_c, 0, 60, 49
1, 284865, Note_off_c, 0, 69, 37
1, 284869, Control_c, 0, 64, 87
1, 284884, Control_c, 0, 64, 87
1, 284897, Control_c, 0, 64, 88
1, 284906, Note_off_c, 0, 60, 60
1, 284912, Control_c, 0, 64, 89
1, 284927, Control_c, 0, 64, 90
1, 284938, Note_on_c, 0, 72, 56
1, 284942, Control_c, 0, 64, 90
1, 284957, Control_c, 0, 64, 91
1, 284986, Control_c, 0, 64, 91
1, 285016, Control_c, 0, 64, 92
1, 285041, Note_on_c, 0, 60, 39
1, 285055, Note_off_c, 0, 54, 57
1, 285087, Note_off_c, 0, 72, 59
1, 285096, Note_off_c, 0, 60, 55
1, 285098, Note_on_c, 0, 57, 39
1, 285106, Note_on_c, 0, 69, 55
1, 285150, Control_c, 0, 64, 91
1, 285174, Note_off_c, 0, 57, 58
1, 285177, Note_off_c, 0, 69, 63
1, 285194, Control_c, 0, 64, 91
1, 285218, Note_on_c, 0, 60, 52
1, 285273, Note_off_c, 0, 60, 59
1, 285314, Note_on_c, 0, 57, 50
1, 285320, Control_c, 0, 64, 90
1, 285335, Control_c, 0, 64, 90
1, 285365, Control_c, 0, 64, 89
1, 285380, Control_c, 0, 64, 88
1, 285394, Control_c, 0, 64, 87
1, 285409, Control_c, 0, 64, 87
1, 285424, Control_c, 0, 64, 86
1, 285428, Note_off_c, 0, 57, 36
1, 285431, Note_on_c, 0, 48, 44
1, 285438, Control_c, 0, 64, 85
1, 285453, Control_c, 0, 64, 84
1, 285468, Control_c, 0, 64, 83
1, 285483, Control_c, 0, 64, 82
1, 285498, Control_c, 0, 64, 82
1, 285512, Control_c, 0, 64, 81
1, 285527, Control_c, 0, 64, 79
1, 285542, Control_c, 0, 64, 78
1, 285557, Control_c, 0, 64, 75
1, 285572, Control_c, 0, 64, 73
1, 285579, Note_on_c, 0, 69, 52
1, 285586, Control_c, 0, 64, 72
1, 285616, Control_c, 0, 64, 73
1, 285717, Note_off_c, 0, 48, 61
1, 285780, Note_off_c, 0, 69, 60
1, 285818, Note_on_c, 0, 66, 51
1, 285987, Note_on_c, 0, 63, 45
1, 286024, Control_c, 0, 64, 72
1, 286046, Note_off_c, 0, 63, 58
1, 286069, Note_on_c, 0, 58, 45
1, 286152, Note_on_c, 0, 59, 41
1, 286203, Control_c, 0, 64, 73
1, 286232, Control_c, 0, 64, 73
1, 286247, Control_c, 0, 64, 74
1, 286250, Note_off_c, 0, 59, 58
1, 286261, Control_c, 0, 64, 74
1, 286276, Control_c, 0, 64, 75
1, 286289, Note_on_c, 0, 51, 51
1, 286291, Control_c, 0, 64, 75
1, 286306, Control_c, 0, 64, 76
1, 286321, Control_c, 0, 64, 76
1, 286335, Control_c, 0, 64, 77
1, 286380, Control_c, 0, 64, 77
1, 286404, Note_off_c, 0, 51, 47
1, 286409, Control_c, 0, 64, 77
1, 286424, Control_c, 0, 64, 75
1, 286427, Note_on_c, 0, 41, 44
1, 286439, Control_c, 0, 64, 71
1, 286441, Note_off_c, 0, 66, 58
1, 286453, Control_c, 0, 64, 66
1, 286468, Control_c, 0, 64, 63
1, 286483, Control_c, 0, 64, 62
1, 286496, Note_on_c, 0, 68, 57
1, 286498, Control_c, 0, 64, 63
1, 286513, Control_c, 0, 64, 65
1, 286529, Control_c, 0, 64, 68
1, 286544, Control_c, 0, 64, 73
1, 286558, Control_c, 0, 64, 77
1, 286573, Control_c, 0, 64, 79
1, 286588, Control_c, 0, 64, 80
1, 286604, Note_off_c, 0, 41, 61
1, 286626, Note_off_c, 0, 58, 59
1, 286629, Note_on_c, 0, 65, 58
1, 286644, Note_off_c, 0, 68, 57
1, 286647, Control_c, 0, 64, 80
1, 286662, Control_c, 0, 64, 81
1, 286677, Control_c, 0, 64, 81
1, 286691, Control_c, 0, 64, 82
1, 286724, Note_on_c, 0, 61, 53
1, 286802, Note_off_c, 0, 61, 57
1, 286803, Note_on_c, 0, 57, 54
1, 286818, Control_c, 0, 64, 81
1, 286847, Control_c, 0, 64, 81
1, 286852, Note_on_c, 0, 58, 40
1, 286877, Control_c, 0, 64, 80
1, 286879, Note_off_c, 0, 58, 58
1, 286891, Control_c, 0, 64, 80
1, 286903, Note_on_c, 0, 51, 58
1, 286938, Note_off_c, 0, 57, 37
1, 287011, Note_on_c, 0, 41, 49
1, 287040, Control_c, 0, 64, 77
1, 287055, Control_c, 0, 64, 71
1, 287059, Note_off_c, 0, 51, 31
1, 287062, Note_off_c, 0, 65, 59
1, 287070, Control_c, 0, 64, 64
1, 287080, Note_on_c, 0, 66, 56
1, 287084, Control_c, 0, 64, 58
1, 287099, Control_c, 0, 64, 56
1, 287114, Control_c, 0, 64, 58
1, 287129, Control_c, 0, 64, 61
1, 287143, Control_c, 0, 64, 64
1, 287157, Control_c, 0, 64, 68
1, 287172, Control_c, 0, 64, 72
1, 287177, Note_on_c, 0, 63, 60
1, 287187, Control_c, 0, 64, 75
1, 287193, Note_off_c, 0, 66, 54
1, 287201, Control_c, 0, 64, 77
1, 287216, Control_c, 0, 64, 79
1, 287231, Control_c, 0, 64, 80
1, 287246, Control_c, 0, 64, 82
1, 287257, Note_off_c, 0, 41, 30
1, 287261, Control_c, 0, 64, 86
1, 287272, Note_on_c, 0, 60, 58
1, 287276, Control_c, 0, 64, 91
1, 287291, Control_c, 0, 64, 99
1, 287306, Control_c, 0, 64, 109
1, 287320, Control_c, 0, 64, 127
1, 287359, Note_on_c, 0, 56, 60
1, 287405, Note_off_c, 0, 60, 59
1, 287423, Note_off_c, 0, 63, 60
1, 287424, Note_on_c, 0, 57, 57
1, 287431, Note_off_c, 0, 56, 63
1, 287491, Note_off_c, 0, 57, 59
1, 287532, Note_on_c, 0, 51, 60
1, 287590, Note_off_c, 0, 51, 56
1, 287666, Note_on_c, 0, 41, 49
1, 287818, Control_c, 0, 64, 96
1, 287832, Control_c, 0, 64, 70
1, 287847, Control_c, 0, 64, 49
1, 287862, Control_c, 0, 64, 30
1, 287887, Note_on_c, 0, 29, 55
1, 287893, Control_c, 0, 64, 44
1, 287907, Control_c, 0, 64, 59
1, 287922, Control_c, 0, 64, 66
1, 287935, Note_off_c, 0, 41, 64
1, 287937, Control_c, 0, 64, 74
1, 287952, Note_off_c, 0, 29, 63
1, 287952, Control_c, 0, 64, 91
1, 287967, Control_c, 0, 64, 127
1, 288224, Note_on_c, 0, 51, 62
1, 288304, Note_off_c, 0, 51, 62
1, 288311, Note_on_c, 0, 54, 58
1, 288381, Note_on_c, 0, 57, 66
1, 288388, Note_off_c, 0, 54, 58
1, 288438, Note_off_c, 0, 57, 64
1, 288454, Note_on_c, 0, 60, 48
1, 288522, Note_on_c, 0, 63, 57
1, 288552, Note_off_c, 0, 60, 61
1, 288556, Note_on_c, 0, 69, 68
1, 288578, Note_off_c, 0, 63, 63
1, 288609, Note_on_c, 0, 72, 73
1, 288662, Note_off_c, 0, 69, 64
1, 288684, Note_off_c, 0, 72, 64
1, 288687, Note_on_c, 0, 78, 78
1, 288689, Note_on_c, 0, 75, 69
1, 288712, Note_off_c, 0, 78, 70
1, 288716, Note_off_c, 0, 75, 67
1, 288949, Note_on_c, 0, 75, 69
1, 289065, Note_off_c, 0, 75, 61
1, 289075, Note_on_c, 0, 77, 66
1, 289160, Note_on_c, 0, 73, 61
1, 289184, Note_off_c, 0, 77, 56
1, 289227, Note_off_c, 0, 73, 63
1, 289243, Note_on_c, 0, 76, 64
1, 289291, Note_off_c, 0, 76, 62
1, 289301, Note_on_c, 0, 72, 65
1, 289349, Note_off_c, 0, 72, 63
1, 289383, Note_on_c, 0, 75, 65
1, 289417, Note_off_c, 0, 75, 62
1, 289442, Note_on_c, 0, 69, 73
1, 289490, Note_off_c, 0, 69, 56
1, 289502, Note_on_c, 0, 78, 81
1, 289577, Note_on_c, 0, 75, 68
1, 289578, Note_off_c, 0, 78, 63
1, 289647, Note_off_c, 0, 75, 61
1, 289673, Note_on_c, 0, 77, 62
1, 289678, Note_on_c, 0, 73, 55
1, 289714, Note_off_c, 0, 73, 62
1, 289739, Control_c, 0, 64, 125
1, 289754, Control_c, 0, 64, 120
1, 289756, Note_off_c, 0, 77, 58
1, 289759, Note_on_c, 0, 76, 55
1, 289769, Control_c, 0, 64, 119
1, 289783, Control_c, 0, 64, 117
1, 289792, Note_off_c, 0, 76, 66
1, 289798, Control_c, 0, 64, 116
1, 289799, Note_on_c, 0, 72, 68
1, 289813, Control_c, 0, 64, 115
1, 289832, Note_off_c, 0, 72, 64
1, 289843, Control_c, 0, 64, 115
1, 289866, Note_on_c, 0, 75, 74
1, 289896, Note_off_c, 0, 75, 64
1, 289930, Note_on_c, 0, 69, 72
1, 289971, Note_off_c, 0, 69, 56
1, 289973, Note_on_c, 0, 78, 77
1, 289976, Control_c, 0, 64, 115
1, 289991, Control_c, 0, 64, 116
1, 290006, Control_c, 0, 64, 117
1, 290021, Control_c, 0, 64, 119
1, 290022, Note_on_c, 0, 75, 68
1, 290032, Note_off_c, 0, 78, 65
1, 290050, Control_c, 0, 64, 120
1, 290084, Note_off_c, 0, 75, 60
1, 290085, Note_on_c, 0, 73, 68
1, 290111, Note_on_c, 0, 77, 60
1, 290118, Note_off_c, 0, 73, 62
1, 290173, Note_off_c, 0, 77, 60
1, 290174, Note_on_c, 0, 76, 52
1, 290193, Note_off_c, 0, 76, 59
1, 290194, Note_on_c, 0, 72, 74
1, 290239, Note_off_c, 0, 72, 62
1, 290269, Note_on_c, 0, 75, 73
1, 290296, Note_off_c, 0, 75, 65
1, 290331, Note_on_c, 0, 69, 73
1, 290346, Control_c, 0, 64, 122
1, 290365, Note_on_c, 0, 78, 78
1, 290376, Control_c, 0, 64, 125
1, 290378, Note_off_c, 0, 69, 59
1, 290406, Control_c, 0, 64, 127
1, 290424, Note_off_c, 0, 78, 65
1, 290427, Note_on_c, 0, 75, 62
1, 290462, Note_on_c, 0, 73, 64
1, 290466, Note_off_c, 0, 75, 58
1, 290532, Note_on_c, 0, 77, 50
1, 290534, Note_off_c, 0, 73, 61
1, 290608, Note_off_c, 0, 77, 61
1, 290653, Note_on_c, 0, 72, 56
1, 290683, Note_off_c, 0, 72, 66
1, 290713, Note_on_c, 0, 75, 66
1, 290754, Control_c, 0, 64, 125
1, 290763, Note_off_c, 0, 75, 59
1, 290769, Control_c, 0, 64, 122
1, 290784, Control_c, 0, 64, 120
1, 290799, Control_c, 0, 64, 119
1, 290814, Control_c, 0, 64, 117
1, 290829, Control_c, 0, 64, 115
1, 290832, Note_on_c, 0, 77, 71
1, 290844, Control_c, 0, 64, 115
1, 290859, Control_c, 0, 64, 113
1, 290873, Control_c, 0, 64, 112
1, 290888, Control_c, 0, 64, 112
1, 290893, Poly_aftertouch_c, 0, 71, 0
1, 290903, Control_c, 0, 64, 110
1, 290904, Note_off_c, 0, 77, 62
1, 290905, Note_on_c, 0, 73, 67
1, 290918, Control_c, 0, 64, 108
1, 290932, Control_c, 0, 64, 104
1, 290947, Control_c, 0, 64, 100
1, 290962, Control_c, 0, 64, 98
1, 290966, Note_off_c, 0, 73, 65
1, 290977, Control_c, 0, 64, 96
1, 290992, Control_c, 0, 64, 95
1, 290996, Note_on_c, 0, 76, 60
1, 291021, Control_c, 0, 64, 95
1, 291028, Note_on_c, 0, 72, 56
1, 291036, Control_c, 0, 64, 94
1, 291049, Note_off_c, 0, 76, 60
1, 291050, Control_c, 0, 64, 93
1, 291065, Control_c, 0, 64, 91
1, 291080, Control_c, 0, 64, 90
1, 291095, Control_c, 0, 64, 88
1, 291106, Note_off_c, 0, 72, 64
1, 291109, Note_on_c, 0, 75, 68
1, 291110, Control_c, 0, 64, 87
1, 291124, Control_c, 0, 64, 87
1, 291139, Control_c, 0, 64, 86
1, 291154, Control_c, 0, 64, 86
1, 291163, Note_off_c, 0, 75, 61
1, 291169, Control_c, 0, 64, 85
1, 291184, Control_c, 0, 64, 84
1, 291197, Note_on_c, 0, 69, 63
1, 291199, Control_c, 0, 64, 83
1, 291214, Control_c, 0, 64, 82
1, 291236, Control_c, 0, 64, 82
1, 291265, Control_c, 0, 64, 81
1, 291280, Control_c, 0, 64, 81
1, 291295, Control_c, 0, 64, 80
1, 291338, Note_on_c, 0, 65, 66
1, 291369, Note_on_c, 0, 77, 66
1, 291370, Control_c, 0, 64, 79
1, 291385, Control_c, 0, 64, 77
1, 291400, Control_c, 0, 64, 70
1, 291415, Control_c, 0, 64, 64
1, 291429, Control_c, 0, 64, 57
1, 291443, Note_off_c, 0, 69, 32
1, 291444, Control_c, 0, 64, 55
1, 291459, Control_c, 0, 64, 58
1, 291461, Note_off_c, 0, 77, 61
1, 291467, Note_on_c, 0, 73, 62
1, 291474, Control_c, 0, 64, 62
1, 291488, Control_c, 0, 64, 67
1, 291503, Control_c, 0, 64, 72
1, 291518, Control_c, 0, 64, 77
1, 291533, Control_c, 0, 64, 81
1, 291539, Note_off_c, 0, 73, 63
1, 291548, Control_c, 0, 64, 83
1, 291553, Note_on_c, 0, 76, 61
1, 291562, Control_c, 0, 64, 84
1, 291577, Control_c, 0, 64, 86
1, 291592, Control_c, 0, 64, 88
1, 291604, Note_on_c, 0, 72, 52
1, 291607, Control_c, 0, 64, 91
1, 291622, Control_c, 0, 64, 93
1, 291630, Note_off_c, 0, 76, 53
1, 291637, Control_c, 0, 64, 96
1, 291652, Control_c, 0, 64, 97
1, 291659, Note_off_c, 0, 72, 59
1, 291667, Control_c, 0, 64, 98
1, 291673, Note_on_c, 0, 75, 48
1, 291681, Control_c, 0, 64, 99
1, 291696, Control_c, 0, 64, 100
1, 291704, Note_off_c, 0, 75, 53
1, 291711, Control_c, 0, 64, 101
1, 291726, Note_on_c, 0, 69, 43
1, 291726, Control_c, 0, 64, 102
1, 291741, Control_c, 0, 64, 103
1, 291755, Control_c, 0, 64, 106
1, 291757, Note_off_c, 0, 69, 51
1, 291770, Control_c, 0, 64, 110
1, 291782, Note_on_c, 0, 77, 64
1, 291785, Control_c, 0, 64, 114
1, 291800, Control_c, 0, 64, 117
1, 291815, Control_c, 0, 64, 120
1, 291829, Control_c, 0, 64, 122
1, 291837, Note_off_c, 0, 77, 55
1, 291861, Note_on_c, 0, 73, 60
1, 291873, Control_c, 0, 64, 125
1, 291888, Control_c, 0, 64, 127
1, 291922, Note_off_c, 0, 73, 63
1, 291950, Note_on_c, 0, 76, 60
1, 291958, Note_on_c, 0, 64, 60
1, 291962, Control_c, 0, 64, 119
1, 291985, Control_c, 0, 64, 93
1, 292000, Control_c, 0, 64, 76
1, 292015, Control_c, 0, 64, 66
1, 292022, Note_off_c, 0, 76, 62
1, 292029, Control_c, 0, 64, 61
1, 292033, Note_on_c, 0, 72, 56
1, 292039, Note_off_c, 0, 65, 60
1, 292059, Control_c, 0, 64, 63
1, 292073, Control_c, 0, 64, 67
1, 292084, Note_off_c, 0, 72, 59
1, 292088, Control_c, 0, 64, 71
1, 292089, Note_on_c, 0, 75, 54
1, 292103, Control_c, 0, 64, 76
1, 292118, Control_c, 0, 64, 78
1, 292129, Note_off_c, 0, 75, 64
1, 292134, Control_c, 0, 64, 79
1, 292149, Control_c, 0, 64, 79
1, 292153, Note_on_c, 0, 69, 55
1, 292164, Control_c, 0, 64, 80
1, 292178, Control_c, 0, 64, 81
1, 292193, Control_c, 0, 64, 83
1, 292199, Note_off_c, 0, 69, 59
1, 292208, Control_c, 0, 64, 85
1, 292223, Control_c, 0, 64, 88
1, 292231, Note_on_c, 0, 77, 63
1, 292238, Control_c, 0, 64, 90
1, 292252, Control_c, 0, 64, 92
1, 292267, Control_c, 0, 64, 95
1, 292282, Control_c, 0, 64, 97
1, 292286, Note_off_c, 0, 77, 56
1, 292297, Control_c, 0, 64, 99
1, 292299, Note_on_c, 0, 73, 62
1, 292311, Control_c, 0, 64, 101
1, 292326, Control_c, 0, 64, 107
1, 292341, Control_c, 0, 64, 116
1, 292356, Control_c, 0, 64, 127
1, 292367, Note_off_c, 0, 73, 63
1, 292405, Note_on_c, 0, 76, 59
1, 292466, Note_on_c, 0, 72, 48
1, 292486, Note_off_c, 0, 76, 57
1, 292549, Note_on_c, 0, 63, 55
1, 292585, Note_off_c, 0, 64, 28
1, 292611, Note_off_c, 0, 63, 63
1, 292651, Note_off_c, 0, 72, 61
1, 292655, Note_on_c, 0, 75, 56
1, 292698, Note_off_c, 0, 75, 62
1, 292760, Note_on_c, 0, 69, 61
1, 292865, Note_on_c, 0, 41, 47
1, 292944, Note_on_c, 0, 49, 41
1, 292945, Note_off_c, 0, 41, 61
1, 292975, Note_off_c, 0, 49, 60
1, 293164, Note_on_c, 0, 59, 49
1, 293297, Control_c, 0, 64, 98
1, 293312, Control_c, 0, 64, 89
1, 293327, Control_c, 0, 64, 85
1, 293342, Control_c, 0, 64, 86
1, 293357, Control_c, 0, 64, 87
1, 293372, Control_c, 0, 64, 89
1, 293384, Note_on_c, 0, 63, 63
1, 293387, Control_c, 0, 64, 91
1, 293398, Note_off_c, 0, 69, 60
1, 293401, Control_c, 0, 64, 92
1, 293407, Note_on_c, 0, 75, 50
1, 293416, Control_c, 0, 64, 93
1, 293431, Control_c, 0, 64, 94
1, 293507, Note_off_c, 0, 75, 54
1, 293512, Control_c, 0, 64, 94
1, 293539, Note_on_c, 0, 71, 60
1, 293557, Control_c, 0, 64, 95
1, 293620, Note_off_c, 0, 71, 58
1, 293628, Note_on_c, 0, 70, 54
1, 293679, Note_on_c, 0, 74, 48
1, 293744, Note_off_c, 0, 74, 59
1, 293750, Note_on_c, 0, 73, 62
1, 293758, Note_off_c, 0, 70, 41
1, 293780, Control_c, 0, 64, 95
1, 293804, Note_off_c, 0, 73, 59
1, 293810, Control_c, 0, 64, 96
1, 293824, Control_c, 0, 64, 97
1, 293827, Note_on_c, 0, 69, 60
1, 293839, Control_c, 0, 64, 98
1, 293854, Control_c, 0, 64, 100
1, 293869, Control_c, 0, 64, 102
1, 293884, Control_c, 0, 64, 105
1, 293898, Control_c, 0, 64, 108
1, 293902, Note_on_c, 0, 68, 60
1, 293904, Note_off_c, 0, 69, 58
1, 293913, Control_c, 0, 64, 112
1, 293928, Control_c, 0, 64, 115
1, 293943, Control_c, 0, 64, 120
1, 293952, Note_on_c, 0, 71, 54
1, 293957, Control_c, 0, 64, 127
1, 293982, Note_off_c, 0, 68, 57
1, 293992, Poly_aftertouch_c, 0, 53, 127
1, 293998, Note_on_c, 0, 75, 61
1, 294002, Note_off_c, 0, 63, 54
1, 294002, Note_off_c, 0, 71, 60
1, 294060, Note_on_c, 0, 71, 63
1, 294093, Note_off_c, 0, 75, 61
1, 294134, Note_on_c, 0, 70, 60
1, 294139, Note_off_c, 0, 71, 58
1, 294182, Note_off_c, 0, 59, 61
1, 294197, Note_on_c, 0, 74, 47
1, 294249, Note_off_c, 0, 70, 45
1, 294250, Note_on_c, 0, 73, 58
1, 294251, Note_off_c, 0, 74, 63
1, 294288, Note_off_c, 0, 73, 63
1, 294299, Note_on_c, 0, 69, 61
1, 294375, Note_off_c, 0, 69, 54
1, 294378, Note_on_c, 0, 68, 54
1, 294419, Note_off_c, 0, 68, 60
1, 294426, Note_on_c, 0, 71, 59
1, 294485, Note_on_c, 0, 59, 65
1, 294487, Note_on_c, 0, 75, 57
1, 294525, Note_off_c, 0, 71, 57
1, 294573, Note_on_c, 0, 71, 49
1, 294573, Control_c, 0, 64, 112
1, 294588, Control_c, 0, 64, 90
1, 294603, Control_c, 0, 64, 77
1, 294618, Control_c, 0, 64, 70
1, 294633, Control_c, 0, 64, 68
1, 294634, Note_off_c, 0, 75, 60
1, 294647, Control_c, 0, 64, 69
1, 294662, Control_c, 0, 64, 72
1, 294674, Note_on_c, 0, 70, 53
1, 294677, Control_c, 0, 64, 78
1, 294688, Note_off_c, 0, 71, 52
1, 294692, Control_c, 0, 64, 87
1, 294707, Control_c, 0, 64, 94
1, 294713, Poly_aftertouch_c, 0, 53, 0
1, 294721, Control_c, 0, 64, 96
1, 294723, Note_on_c, 0, 74, 43
1, 294751, Poly_aftertouch_c, 0, 53, 127
1, 294751, Control_c, 0, 64, 95
1, 294767, Note_on_c, 0, 56, 59
1, 294770, Note_off_c, 0, 70, 44
1, 294776, Note_off_c, 0, 74, 63
1, 294779, Note_on_c, 0, 73, 60
1, 294810, Control_c, 0, 64, 93
1, 294820, Note_off_c, 0, 73, 60
1, 294825, Control_c, 0, 64, 85
1, 294840, Control_c, 0, 64, 75
1, 294841, Note_on_c, 0, 69, 52
1, 294847, Poly_aftertouch_c, 0, 53, 0
1, 294854, Control_c, 0, 64, 70
1, 294869, Control_c, 0, 64, 69
1, 294884, Control_c, 0, 64, 70
1, 294898, Control_c, 0, 64, 73
1, 294913, Control_c, 0, 64, 77
1, 294916, Note_off_c, 0, 69, 58
1, 294918, Note_on_c, 0, 68, 50
1, 294928, Control_c, 0, 64, 84
1, 294943, Note_off_c, 0, 59, 52
1, 294943, Control_c, 0, 64, 90
1, 294958, Control_c, 0, 64, 95
1, 294966, Note_off_c, 0, 68, 58
1, 294980, Note_on_c, 0, 71, 53
1, 294980, Control_c, 0, 64, 98
1, 294995, Control_c, 0, 64, 99
1, 295027, Note_on_c, 0, 75, 58
1, 295035, Note_off_c, 0, 71, 58
1, 295095, Note_on_c, 0, 71, 53
1, 295098, Control_c, 0, 64, 100
1, 295124, Note_off_c, 0, 56, 65
1, 295169, Note_off_c, 0, 75, 55
1, 295200, Note_on_c, 0, 70, 59
1, 295247, Note_off_c, 0, 71, 35
1, 295294, Note_on_c, 0, 74, 55
1, 295338, Note_off_c, 0, 70, 39
1, 295357, Note_on_c, 0, 73, 52
1, 295362, Note_off_c, 0, 74, 52
1, 295400, Note_off_c, 0, 73, 61
1, 295419, Note_on_c, 0, 69, 55
1, 295507, Note_off_c, 0, 69, 59
1, 295521, Note_on_c, 0, 68, 47
1, 295585, Note_off_c, 0, 68, 54
1, 295609, Note_on_c, 0, 71, 53
1, 295618, Note_on_c, 0, 41, 43
1, 295642, Note_off_c, 0, 71, 65
1, 295776, Note_on_c, 0, 47, 34
1, 295793, Note_on_c, 0, 50, 50
1, 295817, Control_c, 0, 64, 99
1, 295920, Control_c, 0, 64, 99
1, 295926, Note_on_c, 0, 70, 56
1, 295935, Control_c, 0, 64, 90
1, 295950, Note_on_c, 0, 56, 53
1, 295950, Control_c, 0, 64, 75
1, 295965, Control_c, 0, 64, 66
1, 295980, Control_c, 0, 64, 60
1, 295995, Control_c, 0, 64, 58
1, 296010, Control_c, 0, 64, 60
1, 296025, Control_c, 0, 64, 63
1, 296040, Control_c, 0, 64, 68
1, 296055, Control_c, 0, 64, 76
1, 296069, Control_c, 0, 64, 85
1, 296073, Note_off_c, 0, 70, 58
1, 296084, Control_c, 0, 64, 95
1, 296084, Note_on_c, 0, 67, 52
1, 296099, Control_c, 0, 64, 104
1, 296114, Control_c, 0, 64, 112
1, 296129, Control_c, 0, 64, 120
1, 296144, Control_c, 0, 64, 127
1, 296218, Note_off_c, 0, 67, 59
1, 296222, Note_on_c, 0, 69, 64
1, 296310, Note_off_c, 0, 69, 61
1, 296338, Note_on_c, 0, 65, 45
1, 296362, Note_off_c, 0, 41, 40
1, 296377, Note_off_c, 0, 65, 64
1, 296385, Note_off_c, 0, 56, 59
1, 296396, Note_on_c, 0, 68, 55
1, 296433, Note_off_c, 0, 68, 65
1, 296502, Note_on_c, 0, 62, 52
1, 296594, Note_on_c, 0, 58, 52
1, 296596, Control_c, 0, 64, 104
1, 296611, Control_c, 0, 64, 81
1, 296625, Control_c, 0, 64, 69
1, 296630, Note_on_c, 0, 67, 58
1, 296637, Note_off_c, 0, 62, 36
1, 296640, Control_c, 0, 64, 64
1, 296655, Control_c, 0, 64, 64
1, 296670, Control_c, 0, 64, 65
1, 296685, Control_c, 0, 64, 69
1, 296699, Control_c, 0, 64, 75
1, 296714, Control_c, 0, 64, 82
1, 296729, Control_c, 0, 64, 87
1, 296737, Note_off_c, 0, 67, 61
1, 296743, Control_c, 0, 64, 89
1, 296753, Note_on_c, 0, 63, 49
1, 296773, Control_c, 0, 64, 90
1, 296803, Control_c, 0, 64, 91
1, 296805, Note_off_c, 0, 63, 56
1, 296818, Control_c, 0, 64, 92
1, 296818, Note_on_c, 0, 66, 51
1, 296833, Control_c, 0, 64, 93
1, 296847, Control_c, 0, 64, 94
1, 296862, Control_c, 0, 64, 95
1, 296877, Control_c, 0, 64, 96
1, 296886, Note_off_c, 0, 66, 53
1, 296910, Note_on_c, 0, 60, 56
1, 296949, Note_off_c, 0, 60, 63
1, 296982, Note_on_c, 0, 65, 61
1, 296982, Note_off_c, 0, 58, 39
1, 297011, Control_c, 0, 64, 95
1, 297026, Control_c, 0, 64, 94
1, 297041, Control_c, 0, 64, 94
1, 297056, Control_c, 0, 64, 93
1, 297059, Note_on_c, 0, 61, 40
1, 297063, Note_off_c, 0, 65, 57
1, 297071, Control_c, 0, 64, 92
1, 297086, Control_c, 0, 64, 91
1, 297092, Note_off_c, 0, 61, 59
1, 297101, Control_c, 0, 64, 90
1, 297104, Note_on_c, 0, 63, 56
1, 297115, Control_c, 0, 64, 88
1, 297130, Control_c, 0, 64, 87
1, 297139, Note_off_c, 0, 63, 65
1, 297145, Control_c, 0, 64, 85
1, 297160, Control_c, 0, 64, 83
1, 297163, Note_on_c, 0, 59, 47
1, 297174, Control_c, 0, 64, 81
1, 297189, Control_c, 0, 64, 79
1, 297204, Control_c, 0, 64, 78
1, 297226, Control_c, 0, 64, 78
1, 297227, Note_off_c, 0, 59, 58
1, 297241, Control_c, 0, 64, 77
1, 297256, Control_c, 0, 64, 76
1, 297256, Note_on_c, 0, 61, 54
1, 297271, Control_c, 0, 64, 76
1, 297286, Control_c, 0, 64, 75
1, 297301, Control_c, 0, 64, 73
1, 297312, Note_on_c, 0, 58, 52
1, 297315, Control_c, 0, 64, 72
1, 297330, Control_c, 0, 64, 72
1, 297335, Note_off_c, 0, 61, 60
1, 297345, Control_c, 0, 64, 71
1, 297360, Control_c, 0, 64, 71
1, 297375, Note_off_c, 0, 58, 62
1, 297389, Control_c, 0, 64, 70
1, 297394, Note_on_c, 0, 60, 55
1, 297404, Control_c, 0, 64, 70
1, 297419, Control_c, 0, 64, 69
1, 297434, Control_c, 0, 64, 68
1, 297438, Note_off_c, 0, 60, 64
1, 297448, Control_c, 0, 64, 68
1, 297463, Control_c, 0, 64, 67
1, 297478, Control_c, 0, 64, 66
1, 297482, Note_on_c, 0, 55, 56
1, 297492, Control_c, 0, 64, 66
1, 297507, Control_c, 0, 64, 65
1, 297522, Control_c, 0, 64, 65
1, 297537, Control_c, 0, 64, 64
1, 297552, Control_c, 0, 64, 64
1, 297566, Control_c, 0, 64, 63
1, 297607, Note_off_c, 0, 55, 61
1, 297629, Note_on_c, 0, 58, 50
1, 297670, Control_c, 0, 64, 63
1, 297685, Control_c, 0, 64, 62
1, 297699, Control_c, 0, 64, 60
1, 297715, Control_c, 0, 64, 57
1, 297730, Control_c, 0, 64, 56
1, 297760, Control_c, 0, 64, 57
1, 297761, Note_on_c, 0, 54, 45
1, 297774, Control_c, 0, 64, 58
1, 297780, Note_off_c, 0, 50, 36
1, 297789, Control_c, 0, 64, 58
1, 297804, Control_c, 0, 64, 59
1, 297819, Control_c, 0, 64, 60
1, 297834, Control_c, 0, 64, 60
1, 297849, Control_c, 0, 64, 61
1, 297889, Note_off_c, 0, 58, 56
1, 297904, Note_on_c, 0, 57, 44
1, 297968, Note_off_c, 0, 54, 62
1, 298079, Note_on_c, 0, 53, 39
1, 298186, Note_off_c, 0, 47, 39
1, 298241, Control_c, 0, 64, 61
1, 298256, Control_c, 0, 64, 62
1, 298270, Control_c, 0, 64, 62
1, 298285, Control_c, 0, 64, 63
1, 298314, Control_c, 0, 64, 63
1, 298329, Control_c, 0, 64, 64
1, 298344, Control_c, 0, 64, 64
1, 298374, Control_c, 0, 64, 65
1, 298389, Control_c, 0, 64, 65
1, 298420, Note_on_c, 0, 56, 42
1, 298433, Control_c, 0, 64, 66
1, 298463, Note_off_c, 0, 57, 59
1, 298797, Control_c, 0, 64, 66
1, 298814, Note_on_c, 0, 50, 31
1, 298827, Control_c, 0, 64, 66
1, 298842, Control_c, 0, 64, 64
1, 298857, Control_c, 0, 64, 62
1, 298864, Note_off_c, 0, 53, 32
1, 298871, Control_c, 0, 64, 61
1, 298886, Control_c, 0, 64, 62
1, 298901, Control_c, 0, 64, 64
1, 298916, Control_c, 0, 64, 67
1, 298931, Control_c, 0, 64, 72
1, 298945, Control_c, 0, 64, 78
1, 298960, Control_c, 0, 64, 83
1, 298962, Note_off_c, 0, 56, 60
1, 298975, Control_c, 0, 64, 87
1, 298990, Control_c, 0, 64, 90
1, 299005, Control_c, 0, 64, 91
1, 299019, Control_c, 0, 64, 92
1, 299049, Control_c, 0, 64, 93
1, 299093, Control_c, 0, 64, 93
1, 299196, Note_off_c, 0, 50, 54
1, 299735, Note_on_c, 0, 70, 60
1, 299739, Control_c, 0, 64, 92
1, 299754, Control_c, 0, 64, 85
1, 299755, Note_on_c, 0, 49, 34
1, 299759, Note_on_c, 0, 66, 46
1, 299764, Note_on_c, 0, 42, 28
1, 299769, Control_c, 0, 64, 74
1, 299769, Note_on_c, 0, 58, 25
1, 299784, Control_c, 0, 64, 66
1, 299799, Control_c, 0, 64, 62
1, 299813, Control_c, 0, 64, 61
1, 299828, Control_c, 0, 64, 62
1, 299843, Control_c, 0, 64, 65
1, 299858, Control_c, 0, 64, 68
1, 299873, Control_c, 0, 64, 73
1, 299888, Control_c, 0, 64, 78
1, 299903, Control_c, 0, 64, 82
1, 299917, Control_c, 0, 64, 84
1, 299932, Control_c, 0, 64, 86
1, 299947, Control_c, 0, 64, 88
1, 299961, Control_c, 0, 64, 92
1, 299976, Control_c, 0, 64, 97
1, 299991, Control_c, 0, 64, 102
1, 300006, Control_c, 0, 64, 108
1, 300021, Control_c, 0, 64, 113
1, 300035, Control_c, 0, 64, 117
1, 300050, Control_c, 0, 64, 120
1, 300080, Control_c, 0, 64, 122
1, 300095, Control_c, 0, 64, 127
1, 300109, Note_off_c, 0, 58, 54
1, 300167, Note_off_c, 0, 70, 61
1, 300201, Note_off_c, 0, 66, 36
1, 300445, Note_on_c, 0, 69, 55
1, 300462, Note_on_c, 0, 65, 39
1, 300466, Note_on_c, 0, 50, 39
1, 300469, Note_off_c, 0, 49, 56
1, 300514, Note_off_c, 0, 65, 55
1, 300565, Note_off_c, 0, 69, 47
1, 300606, Control_c, 0, 64, 107
1, 300615, Note_on_c, 0, 68, 53
1, 300621, Control_c, 0, 64, 82
1, 300627, Note_off_c, 0, 50, 36
1, 300632, Note_on_c, 0, 51, 47
1, 300636, Control_c, 0, 64, 65
1, 300643, Note_on_c, 0, 59, 43
1, 300651, Control_c, 0, 64, 41
1, 300657, Note_on_c, 0, 63, 30
1, 300666, Control_c, 0, 64, 0
1, 300755, Control_c, 0, 64, 41
1, 300770, Control_c, 0, 64, 55
1, 300784, Control_c, 0, 64, 61
1, 300794, Note_off_c, 0, 42, 40
1, 300799, Control_c, 0, 64, 65
1, 300814, Control_c, 0, 64, 68
1, 300829, Control_c, 0, 64, 72
1, 300844, Control_c, 0, 64, 76
1, 300858, Control_c, 0, 64, 82
1, 300873, Control_c, 0, 64, 89
1, 300888, Control_c, 0, 64, 102
1, 300903, Control_c, 0, 64, 120
1, 300919, Control_c, 0, 64, 127
1, 300919, Note_off_c, 0, 59, 54
1, 300928, Note_off_c, 0, 68, 51
1, 300952, Note_off_c, 0, 51, 57
1, 301074, Note_off_c, 0, 63, 40
1, 301471, Note_on_c, 0, 58, 27
1, 301473, Note_on_c, 0, 70, 46
1, 301481, Note_on_c, 0, 66, 32
1, 301486, Note_on_c, 0, 42, 31
1, 301492, Note_on_c, 0, 49, 28
1, 301504, Control_c, 0, 64, 109
1, 301519, Control_c, 0, 64, 96
1, 301533, Control_c, 0, 64, 84
1, 301548, Control_c, 0, 64, 75
1, 301563, Control_c, 0, 64, 67
1, 301578, Control_c, 0, 64, 60
1, 301593, Control_c, 0, 64, 48
1, 301607, Control_c, 0, 64, 28
1, 301622, Control_c, 0, 64, 0
1, 301823, Control_c, 0, 64, 14
1, 301837, Control_c, 0, 64, 31
1, 301852, Control_c, 0, 64, 41
1, 301867, Control_c, 0, 64, 50
1, 301882, Control_c, 0, 64, 56
1, 301897, Control_c, 0, 64, 60
1, 301912, Control_c, 0, 64, 62
1, 301927, Control_c, 0, 64, 64
1, 301942, Control_c, 0, 64, 66
1, 301957, Control_c, 0, 64, 67
1, 301971, Control_c, 0, 64, 69
1, 301986, Control_c, 0, 64, 72
1, 302001, Control_c, 0, 64, 76
1, 302016, Control_c, 0, 64, 79
1, 302030, Control_c, 0, 64, 82
1, 302045, Control_c, 0, 64, 85
1, 302060, Control_c, 0, 64, 86
1, 302075, Control_c, 0, 64, 87
1, 302090, Control_c, 0, 64, 88
1, 302133, Control_c, 0, 64, 88
1, 302148, Control_c, 0, 64, 89
1, 302162, Control_c, 0, 64, 90
1, 302177, Control_c, 0, 64, 92
1, 302192, Control_c, 0, 64, 92
1, 302207, Control_c, 0, 64, 93
1, 302223, Note_off_c, 0, 66, 40
1, 302237, Control_c, 0, 64, 93
1, 302282, Control_c, 0, 64, 94
1, 302297, Control_c, 0, 64, 95
1, 302311, Control_c, 0, 64, 95
1, 302326, Control_c, 0, 64, 96
1, 302341, Control_c, 0, 64, 96
1, 302355, Control_c, 0, 64, 97
1, 302429, Control_c, 0, 64, 98
1, 302466, Control_c, 0, 64, 98
1, 302481, Control_c, 0, 64, 99
1, 302541, Control_c, 0, 64, 99
1, 302734, Control_c, 0, 64, 100
1, 302808, Control_c, 0, 64, 100
1, 302813, Note_on_c, 0, 61, 32
1, 302823, Control_c, 0, 64, 101
1, 302838, Control_c, 0, 64, 102
1, 302850, Note_off_c, 0, 58, 39
1, 302853, Control_c, 0, 64, 103
1, 302862, Note_off_c, 0, 42, 34
1, 302868, Control_c, 0, 64, 104
1, 302883, Control_c, 0, 64, 105
1, 302898, Control_c, 0, 64, 106
1, 302908, Note_off_c, 0, 70, 39
1, 302913, Control_c, 0, 64, 107
1, 302928, Control_c, 0, 64, 109
1, 302942, Control_c, 0, 64, 112
1, 302957, Control_c, 0, 64, 117
1, 302972, Control_c, 0, 64, 127
1, 302978, Note_off_c, 0, 49, 38
1, 303144, Note_on_c, 0, 63, 37
1, 303158, Note_off_c, 0, 61, 34
1, 303286, Note_off_c, 0, 63, 57
1, 303362, Note_on_c, 0, 65, 44
1, 303453, Note_off_c, 0, 65, 48
1, 303538, Note_on_c, 0, 66, 49
1, 303635, Note_off_c, 0, 66, 54
1, 303647, Control_c, 0, 64, 125
1, 303662, Control_c, 0, 64, 120
1, 303662, Note_on_c, 0, 68, 40
1, 303677, Control_c, 0, 64, 117
1, 303691, Control_c, 0, 64, 116
1, 303706, Control_c, 0, 64, 115
1, 303714, Note_off_c, 0, 68, 55
1, 303721, Control_c, 0, 64, 114
1, 303734, Note_on_c, 0, 70, 51
1, 303736, Control_c, 0, 64, 112
1, 303751, Control_c, 0, 64, 112
1, 303765, Control_c, 0, 64, 110
1, 303780, Control_c, 0, 64, 108
1, 303795, Control_c, 0, 64, 107
1, 303809, Control_c, 0, 64, 105
1, 303814, Note_off_c, 0, 70, 59
1, 303824, Control_c, 0, 64, 104
1, 303839, Control_c, 0, 64, 102
1, 303847, Note_on_c, 0, 71, 51
1, 303854, Control_c, 0, 64, 101
1, 303869, Control_c, 0, 64, 100
1, 303883, Control_c, 0, 64, 99
1, 303898, Control_c, 0, 64, 99
1, 303912, Note_off_c, 0, 71, 63
1, 303918, Note_on_c, 0, 73, 51
1, 303942, Control_c, 0, 64, 98
1, 303975, Note_on_c, 0, 75, 53
1, 303995, Control_c, 0, 64, 98
1, 304011, Note_off_c, 0, 73, 60
1, 304019, Note_off_c, 0, 75, 61
1, 304024, Control_c, 0, 64, 97
1, 304028, Note_on_c, 0, 77, 62
1, 304054, Control_c, 0, 64, 97
1, 304094, Note_on_c, 0, 78, 58
1, 304097, Note_off_c, 0, 77, 60
1, 304139, Note_off_c, 0, 78, 63
1, 304151, Note_on_c, 0, 80, 61
1, 304232, Control_c, 0, 64, 97
1, 304277, Control_c, 0, 64, 93
1, 304281, Note_on_c, 0, 70, 45
1, 304282, Note_on_c, 0, 73, 40
1, 304292, Control_c, 0, 64, 79
1, 304300, Note_on_c, 0, 82, 70
1, 304303, Note_on_c, 0, 66, 37
1, 304306, Control_c, 0, 64, 66
1, 304321, Control_c, 0, 64, 50
1, 304336, Control_c, 0, 64, 18
1, 304351, Note_off_c, 0, 80, 61
1, 304351, Control_c, 0, 64, 0
1, 304378, Note_on_c, 0, 78, 39
1, 304380, Control_c, 0, 64, 35
1, 304395, Control_c, 0, 64, 52
1, 304410, Control_c, 0, 64, 60
1, 304425, Control_c, 0, 64, 63
1, 304440, Control_c, 0, 64, 64
1, 304455, Control_c, 0, 64, 65
1, 304465, Note_off_c, 0, 78, 60
1, 304470, Control_c, 0, 64, 66
1, 304485, Control_c, 0, 64, 69
1, 304499, Control_c, 0, 64, 73
1, 304505, Note_off_c, 0, 70, 64
1, 304514, Control_c, 0, 64, 80
1, 304515, Note_off_c, 0, 66, 61
1, 304529, Control_c, 0, 64, 87
1, 304544, Control_c, 0, 64, 93
1, 304558, Control_c, 0, 64, 98
1, 304573, Control_c, 0, 64, 100
1, 304588, Control_c, 0, 64, 101
1, 304603, Control_c, 0, 64, 102
1, 304632, Control_c, 0, 64, 103
1, 304647, Control_c, 0, 64, 103
1, 304677, Control_c, 0, 64, 104
1, 304710, Note_off_c, 0, 73, 55
1, 304758, Control_c, 0, 64, 104
1, 304773, Control_c, 0, 64, 105
1, 304788, Control_c, 0, 64, 105
1, 304803, Control_c, 0, 64, 106
1, 304815, Note_on_c, 0, 81, 68
1, 304815, Note_on_c, 0, 69, 43
1, 304818, Note_on_c, 0, 65, 45
1, 304832, Control_c, 0, 64, 107
1, 304853, Note_off_c, 0, 82, 58
1, 304877, Control_c, 0, 64, 107
1, 304892, Control_c, 0, 64, 108
1, 304893, Note_off_c, 0, 65, 54
1, 304908, Control_c, 0, 64, 110
1, 304923, Control_c, 0, 64, 112
1, 304924, Note_off_c, 0, 69, 55
1, 304937, Control_c, 0, 64, 110
1, 304944, Note_off_c, 0, 81, 62
1, 304952, Control_c, 0, 64, 96
1, 304961, Note_on_c, 0, 80, 68
1, 304967, Note_on_c, 0, 71, 47
1, 304967, Control_c, 0, 64, 76
1, 304982, Control_c, 0, 64, 59
1, 304983, Note_on_c, 0, 75, 52
1, 304984, Note_on_c, 0, 63, 41
1, 304991, Note_on_c, 0, 68, 37
1, 304997, Control_c, 0, 64, 36
1, 305011, Control_c, 0, 64, 28
1, 305026, Control_c, 0, 64, 31
1, 305041, Control_c, 0, 64, 48
1, 305055, Control_c, 0, 64, 60
1, 305070, Control_c, 0, 64, 65
1, 305085, Control_c, 0, 64, 71
1, 305100, Control_c, 0, 64, 75
1, 305108, Note_off_c, 0, 71, 62
1, 305110, Note_off_c, 0, 63, 59
1, 305115, Control_c, 0, 64, 78
1, 305128, Note_off_c, 0, 75, 31
1, 305129, Control_c, 0, 64, 81
1, 305144, Control_c, 0, 64, 84
1, 305159, Control_c, 0, 64, 87
1, 305164, Note_off_c, 0, 68, 58
1, 305174, Control_c, 0, 64, 93
1, 305188, Control_c, 0, 64, 98
1, 305203, Control_c, 0, 64, 103
1, 305218, Control_c, 0, 64, 106
1, 305233, Control_c, 0, 64, 106
1, 305322, Control_c, 0, 64, 106
1, 305337, Control_c, 0, 64, 105
1, 305352, Control_c, 0, 64, 105
1, 305367, Control_c, 0, 64, 104
1, 305381, Control_c, 0, 64, 104
1, 305396, Control_c, 0, 64, 102
1, 305411, Control_c, 0, 64, 102
1, 305426, Control_c, 0, 64, 101
1, 305441, Control_c, 0, 64, 101
1, 305462, Control_c, 0, 64, 100
1, 305477, Control_c, 0, 64, 99
1, 305492, Control_c, 0, 64, 97
1, 305507, Control_c, 0, 64, 94
1, 305522, Control_c, 0, 64, 92
1, 305537, Control_c, 0, 64, 89
1, 305552, Note_on_c, 0, 82, 56
1, 305552, Control_c, 0, 64, 85
1, 305560, Note_on_c, 0, 66, 20
1, 305563, Note_on_c, 0, 70, 30
1, 305566, Note_on_c, 0, 73, 29
1, 305567, Control_c, 0, 64, 83
1, 305581, Control_c, 0, 64, 80
1, 305589, Note_on_c, 0, 78, 33
1, 305596, Control_c, 0, 64, 77
1, 305611, Control_c, 0, 64, 73
1, 305626, Control_c, 0, 64, 67
1, 305641, Control_c, 0, 64, 60
1, 305644, Note_off_c, 0, 80, 53
1, 305655, Control_c, 0, 64, 46
1, 305670, Control_c, 0, 64, 0
1, 305834, Control_c, 0, 64, 24
1, 305849, Control_c, 0, 64, 35
1, 305862, Control_c, 0, 64, 42
1, 305877, Control_c, 0, 64, 47
1, 305891, Control_c, 0, 64, 52
1, 305906, Control_c, 0, 64, 56
1, 305921, Control_c, 0, 64, 60
1, 305936, Control_c, 0, 64, 63
1, 305951, Control_c, 0, 64, 64
1, 305966, Control_c, 0, 64, 65
1, 305981, Control_c, 0, 64, 66
1, 305996, Control_c, 0, 64, 67
1, 306010, Control_c, 0, 64, 69
1, 306025, Control_c, 0, 64, 71
1, 306040, Control_c, 0, 64, 73
1, 306055, Control_c, 0, 64, 76
1, 306070, Control_c, 0, 64, 79
1, 306070, Note_off_c, 0, 66, 53
1, 306084, Control_c, 0, 64, 81
1, 306099, Control_c, 0, 64, 84
1, 306114, Control_c, 0, 64, 86
1, 306119, Note_off_c, 0, 78, 49
1, 306125, Note_off_c, 0, 70, 55
1, 306129, Control_c, 0, 64, 88
1, 306144, Control_c, 0, 64, 89
1, 306210, Control_c, 0, 64, 89
1, 306225, Control_c, 0, 64, 90
1, 306240, Control_c, 0, 64, 92
1, 306255, Control_c, 0, 64, 94
1, 306270, Control_c, 0, 64, 95
1, 306284, Control_c, 0, 64, 96
1, 306299, Control_c, 0, 64, 96
1, 306314, Control_c, 0, 64, 97
1, 306329, Control_c, 0, 64, 98
1, 306344, Control_c, 0, 64, 100
1, 306358, Control_c, 0, 64, 102
1, 306373, Control_c, 0, 64, 106
1, 306388, Control_c, 0, 64, 110
1, 306402, Control_c, 0, 64, 111
1, 306547, Note_off_c, 0, 82, 60
1, 306553, Note_off_c, 0, 73, 37
1, 306557, Note_on_c, 0, 61, 45
1, 306564, Note_on_c, 0, 80, 53
1, 306641, Control_c, 0, 64, 112
1, 306656, Control_c, 0, 64, 112
1, 306667, Note_off_c, 0, 80, 58
1, 306671, Control_c, 0, 64, 112
1, 306678, Note_off_c, 0, 61, 47
1, 306686, Control_c, 0, 64, 100
1, 306700, Control_c, 0, 64, 81
1, 306715, Control_c, 0, 64, 66
1, 306718, Note_on_c, 0, 78, 50
1, 306730, Control_c, 0, 64, 55
1, 306733, Note_on_c, 0, 63, 43
1, 306745, Control_c, 0, 64, 52
1, 306756, Note_on_c, 0, 75, 39
1, 306760, Control_c, 0, 64, 54
1, 306766, Note_on_c, 0, 66, 16
1, 306768, Note_on_c, 0, 70, 42
1, 306774, Control_c, 0, 64, 59
1, 306785, Note_off_c, 0, 63, 63
1, 306789, Control_c, 0, 64, 63
1, 306802, Note_off_c, 0, 66, 44
1, 306804, Note_off_c, 0, 70, 65
1, 306804, Control_c, 0, 64, 67
1, 306819, Control_c, 0, 64, 71
1, 306820, Note_off_c, 0, 78, 64
1, 306833, Control_c, 0, 64, 75
1, 306843, Note_off_c, 0, 75, 57
1, 306848, Control_c, 0, 64, 79
1, 306863, Control_c, 0, 64, 82
1, 306878, Control_c, 0, 64, 85
1, 306893, Control_c, 0, 64, 89
1, 306908, Control_c, 0, 64, 94
1, 306923, Control_c, 0, 64, 98
1, 306938, Control_c, 0, 64, 101
1, 306960, Control_c, 0, 64, 101
1, 306975, Control_c, 0, 64, 102
1, 306989, Control_c, 0, 64, 104
1, 307004, Control_c, 0, 64, 109
1, 307019, Control_c, 0, 64, 127
1, 307034, Note_on_c, 0, 82, 69
1, 307048, Note_on_c, 0, 73, 41
1, 307057, Note_on_c, 0, 78, 49
1, 307066, Note_on_c, 0, 70, 19
1, 307075, Note_off_c, 0, 73, 53
1, 307092, Note_off_c, 0, 78, 64
1, 307108, Note_off_c, 0, 70, 42
1, 307133, Poly_aftertouch_c, 0, 66, 0
1, 307133, Note_off_c, 0, 82, 61
1, 307309, Note_on_c, 0, 58, 55
1, 307311, Note_on_c, 0, 80, 63
1, 307328, Note_on_c, 0, 77, 43
1, 307354, Note_off_c, 0, 77, 58
1, 307360, Note_off_c, 0, 58, 58
1, 307403, Note_on_c, 0, 78, 71
1, 307410, Note_on_c, 0, 59, 56
1, 307413, Note_off_c, 0, 80, 56
1, 307498, Note_off_c, 0, 59, 62
1, 307504, Note_off_c, 0, 78, 61
1, 307511, Poly_aftertouch_c, 0, 75, 0
1, 307561, Note_on_c, 0, 65, 39
1, 307568, Control_c, 0, 64, 89
1, 307571, Note_on_c, 0, 77, 61
1, 307577, Note_on_c, 0, 61, 42
1, 307583, Control_c, 0, 64, 64
1, 307597, Control_c, 0, 64, 41
1, 307612, Control_c, 0, 64, 19
1, 307615, Note_on_c, 0, 70, 41
1, 307627, Note_on_c, 0, 73, 31
1, 307627, Control_c, 0, 64, 20
1, 307641, Control_c, 0, 64, 42
1, 307656, Control_c, 0, 64, 58
1, 307671, Control_c, 0, 64, 65
1, 307683, Note_off_c, 0, 61, 63
1, 307686, Control_c, 0, 64, 70
1, 307687, Note_off_c, 0, 65, 63
1, 307687, Note_off_c, 0, 73, 63
1, 307709, Control_c, 0, 64, 75
1, 307721, Note_off_c, 0, 77, 64
1, 307724, Control_c, 0, 64, 80
1, 307737, Note_off_c, 0, 70, 62
1, 307738, Control_c, 0, 64, 87
1, 307753, Control_c, 0, 64, 99
1, 307768, Control_c, 0, 64, 127
1, 307993, Note_on_c, 0, 82, 60
1, 308003, Note_on_c, 0, 73, 40
1, 308005, Control_c, 0, 64, 91
1, 308007, Note_on_c, 0, 70, 36
1, 308019, Note_on_c, 0, 66, 31
1, 308020, Control_c, 0, 64, 70
1, 308028, Note_on_c, 0, 78, 39
1, 308035, Control_c, 0, 64, 60
1, 308049, Control_c, 0, 64, 56
1, 308064, Control_c, 0, 64, 59
1, 308079, Control_c, 0, 64, 64
1, 308094, Control_c, 0, 64, 69
1, 308109, Control_c, 0, 64, 77
1, 308124, Control_c, 0, 64, 87
1, 308139, Control_c, 0, 64, 94
1, 308153, Note_off_c, 0, 78, 64
1, 308153, Control_c, 0, 64, 100
1, 308168, Control_c, 0, 64, 106
1, 308170, Note_off_c, 0, 82, 65
1, 308183, Control_c, 0, 64, 125
1, 308198, Control_c, 0, 64, 127
1, 308214, Note_off_c, 0, 66, 39
1, 308216, Note_off_c, 0, 70, 62
1, 308224, Note_off_c, 0, 73, 55
1, 308542, Note_on_c, 0, 71, 42
1, 308545, Note_on_c, 0, 65, 44
1, 308547, Note_on_c, 0, 85, 61
1, 308589, Note_off_c, 0, 65, 60
1, 308684, Note_off_c, 0, 71, 36
1, 308708, Control_c, 0, 64, 77
1, 308723, Control_c, 0, 64, 62
1, 308726, Note_on_c, 0, 82, 48
1, 308726, Note_off_c, 0, 85, 38
1, 308730, Note_on_c, 0, 73, 40
1, 308738, Control_c, 0, 64, 48
1, 308741, Note_on_c, 0, 78, 15
1, 308753, Control_c, 0, 64, 46
1, 308762, Note_on_c, 0, 70, 28
1, 308768, Control_c, 0, 64, 50
1, 308773, Note_on_c, 0, 66, 23
1, 308783, Control_c, 0, 64, 59
1, 308797, Control_c, 0, 64, 66
1, 308812, Control_c, 0, 64, 72
1, 308827, Control_c, 0, 64, 81
1, 308842, Control_c, 0, 64, 91
1, 308857, Control_c, 0, 64, 110
1, 308871, Control_c, 0, 64, 127
1, 308872, Note_off_c, 0, 70, 49
1, 308873, Note_off_c, 0, 73, 54
1, 308875, Note_off_c, 0, 78, 59
1, 308875, Note_off_c, 0, 82, 65
1, 308876, Note_off_c, 0, 66, 37
1, 309289, Note_on_c, 0, 82, 41
1, 309305, Note_on_c, 0, 78, 30
1, 309316, Note_on_c, 0, 70, 24
1, 309316, Note_on_c, 0, 73, 18
1, 309335, Note_on_c, 0, 66, 26
1, 309369, Control_c, 0, 64, 85
1, 309383, Control_c, 0, 64, 70
1, 309398, Control_c, 0, 64, 62
1, 309413, Control_c, 0, 64, 57
1, 309427, Control_c, 0, 64, 56
1, 309442, Control_c, 0, 64, 57
1, 309457, Control_c, 0, 64, 60
1, 309472, Control_c, 0, 64, 63
1, 309487, Control_c, 0, 64, 67
1, 309501, Control_c, 0, 64, 71
1, 309516, Control_c, 0, 64, 76
1, 309531, Control_c, 0, 64, 82
1, 309546, Control_c, 0, 64, 88
1, 309561, Control_c, 0, 64, 94
1, 309576, Control_c, 0, 64, 101
1, 309591, Control_c, 0, 64, 116
1, 309606, Control_c, 0, 64, 127
1, 309972, Note_off_c, 0, 73, 48
1, 310127, Note_off_c, 0, 66, 39
1, 310199, Note_off_c, 0, 70, 41
1, 310446, Note_on_c, 0, 80, 47
1, 310602, Note_off_c, 0, 78, 46
1, 310620, Note_off_c, 0, 82, 60
1, 310940, Note_on_c, 0, 82, 59
1, 311090, Note_off_c, 0, 80, 59
1, 311230, Note_on_c, 0, 85, 52
1, 311272, Note_off_c, 0, 82, 63
1, 311302, Note_off_c, 0, 85, 64
1, 311312, Note_on_c, 0, 83, 69
1, 311513, Note_on_c, 0, 82, 79
1, 311537, Note_off_c, 0, 83, 64
1, 311809, Control_c, 0, 64, 90
1, 311818, Note_on_c, 0, 85, 75
1, 311823, Control_c, 0, 64, 68
1, 311838, Control_c, 0, 64, 53
1, 311852, Note_off_c, 0, 82, 65
1, 311853, Control_c, 0, 64, 44
1, 311868, Control_c, 0, 64, 47
1, 311883, Control_c, 0, 64, 59
1, 311897, Control_c, 0, 64, 66
1, 311912, Control_c, 0, 64, 75
1, 311927, Control_c, 0, 64, 95
1, 311942, Control_c, 0, 64, 127
1, 311975, Note_off_c, 0, 85, 65
1, 312271, Note_on_c, 0, 49, 38
1, 312272, Note_on_c, 0, 42, 35
1, 312333, Note_off_c, 0, 42, 60
1, 312349, Note_off_c, 0, 49, 61
1, 312380, Note_on_c, 0, 90, 68
1, 312406, Note_on_c, 0, 80, 33
1, 312426, Note_on_c, 0, 78, 38
1, 312438, Note_off_c, 0, 80, 52
1, 312463, Note_off_c, 0, 78, 48
1, 312673, Note_on_c, 0, 61, 60
1, 312811, Note_on_c, 0, 82, 46
1, 312849, Note_on_c, 0, 66, 50
1, 312856, Note_off_c, 0, 61, 58
1, 312858, Poly_aftertouch_c, 0, 78, 127
1, 312888, Poly_aftertouch_c, 0, 78, 0
1, 312897, Note_off_c, 0, 66, 60
1, 312898, Note_off_c, 0, 82, 49
1, 312947, Note_on_c, 0, 69, 53
1, 313019, Note_on_c, 0, 78, 44
1, 313025, Note_off_c, 0, 69, 55
1, 313038, Note_on_c, 0, 82, 50
1, 313042, Note_on_c, 0, 66, 47
1, 313048, Note_on_c, 0, 70, 48
1, 313076, Note_off_c, 0, 70, 64
1, 313087, Note_off_c, 0, 66, 61
1, 313174, Note_off_c, 0, 82, 61
1, 313181, Note_off_c, 0, 78, 60
1, 313201, Poly_aftertouch_c, 0, 87, 127
1, 313210, Note_off_c, 0, 90, 63
1, 313391, Note_on_c, 0, 42, 55
1, 313417, Poly_aftertouch_c, 0, 86, 127
1, 313434, Note_on_c, 0, 49, 34
1, 313451, Note_off_c, 0, 42, 61
1, 313472, Note_off_c, 0, 49, 61
1, 313517, Poly_aftertouch_c, 0, 86, 0
1, 313524, Note_on_c, 0, 89, 70
1, 313547, Poly_aftertouch_c, 0, 87, 0
1, 313557, Note_on_c, 0, 77, 52
1, 313770, Note_on_c, 0, 60, 60
1, 313842, Note_on_c, 0, 82, 63
1, 313873, Note_off_c, 0, 60, 63
1, 313946, Note_on_c, 0, 66, 11
1, 313953, Note_off_c, 0, 82, 55
1, 313990, Note_off_c, 0, 66, 46
1, 313996, Note_on_c, 0, 68, 51
1, 314050, Note_off_c, 0, 89, 54
1, 314078, Note_on_c, 0, 82, 48
1, 314098, Note_on_c, 0, 65, 45
1, 314099, Note_on_c, 0, 70, 52
1, 314110, Note_on_c, 0, 78, 36
1, 314114, Note_off_c, 0, 68, 36
1, 314140, Note_off_c, 0, 70, 63
1, 314160, Note_off_c, 0, 65, 62
1, 314211, Note_off_c, 0, 77, 61
1, 314219, Note_off_c, 0, 82, 63
1, 314241, Note_off_c, 0, 78, 49
1, 314518, Note_on_c, 0, 42, 40
1, 314540, Note_on_c, 0, 49, 49
1, 314551, Control_c, 0, 64, 111
1, 314566, Control_c, 0, 64, 75
1, 314581, Control_c, 0, 64, 61
1, 314590, Note_on_c, 0, 80, 13
1, 314596, Control_c, 0, 64, 57
1, 314611, Control_c, 0, 64, 59
1, 314614, Note_on_c, 0, 87, 64
1, 314626, Control_c, 0, 64, 63
1, 314631, Note_off_c, 0, 42, 63
1, 314634, Note_on_c, 0, 75, 48
1, 314640, Control_c, 0, 64, 70
1, 314643, Note_off_c, 0, 49, 63
1, 314655, Control_c, 0, 64, 84
1, 314657, Note_off_c, 0, 80, 45
1, 314670, Control_c, 0, 64, 127
1, 314840, Note_on_c, 0, 59, 62
1, 314860, Note_on_c, 0, 82, 51
1, 314912, Note_on_c, 0, 78, 7
1, 314913, Note_off_c, 0, 59, 62
1, 314936, Note_on_c, 0, 65, 44
1, 314976, Note_off_c, 0, 78, 42
1, 314989, Note_off_c, 0, 82, 53
1, 315001, Note_off_c, 0, 65, 61
1, 315025, Note_on_c, 0, 68, 49
1, 315090, Note_off_c, 0, 68, 57
1, 315131, Note_on_c, 0, 70, 47
1, 315139, Note_on_c, 0, 82, 48
1, 315147, Note_on_c, 0, 78, 44
1, 315174, Note_off_c, 0, 87, 59
1, 315180, Note_off_c, 0, 70, 63
1, 315200, Note_on_c, 0, 63, 4
1, 315202, Note_on_c, 0, 66, 35
1, 315233, Note_off_c, 0, 66, 55
1, 315241, Note_off_c, 0, 63, 52
1, 315301, Note_off_c, 0, 78, 56
1, 315349, Note_off_c, 0, 75, 57
1, 315756, Note_on_c, 0, 49, 31
1, 315764, Note_on_c, 0, 42, 32
1, 315775, Control_c, 0, 64, 125
1, 315790, Control_c, 0, 64, 75
1, 315805, Control_c, 0, 64, 57
1, 315819, Control_c, 0, 64, 31
1, 315834, Control_c, 0, 64, 30
1, 315839, Note_on_c, 0, 85, 53
1, 315847, Note_on_c, 0, 73, 45
1, 315849, Control_c, 0, 64, 37
1, 315853, Poly_aftertouch_c, 0, 77, 127
1, 315863, Control_c, 0, 64, 54
1, 315875, Poly_aftertouch_c, 0, 80, 127
1, 315878, Control_c, 0, 64, 64
1, 315893, Control_c, 0, 64, 72
1, 315895, Poly_aftertouch_c, 0, 77, 0
1, 315908, Control_c, 0, 64, 87
1, 315909, Poly_aftertouch_c, 0, 80, 0
1, 315922, Note_off_c, 0, 42, 54
1, 315923, Control_c, 0, 64, 122
1, 315924, Note_off_c, 0, 49, 63
1, 315945, Control_c, 0, 64, 127
1, 315950, Note_off_c, 0, 82, 62
1, 316234, Note_on_c, 0, 58, 45
1, 316298, Note_on_c, 0, 82, 48
1, 316316, Note_on_c, 0, 78, 31
1, 316415, Note_off_c, 0, 58, 54
1, 316453, Note_on_c, 0, 63, 35
1, 316557, Note_off_c, 0, 63, 50
1, 316585, Note_on_c, 0, 66, 45
1, 316690, Note_off_c, 0, 82, 57
1, 316701, Note_off_c, 0, 78, 39
1, 316710, Note_off_c, 0, 66, 46
1, 316922, Note_on_c, 0, 82, 43
1, 316923, Note_on_c, 0, 61, 29
1, 316933, Note_on_c, 0, 66, 18
1, 316945, Note_on_c, 0, 70, 28
1, 316951, Note_on_c, 0, 78, 36
1, 317443, Note_off_c, 0, 85, 55
1, 317566, Note_off_c, 0, 70, 40
1, 317641, Note_off_c, 0, 82, 63
1, 317985, Note_off_c, 0, 73, 34
1, 318138, Control_c, 0, 64, 125
1, 318153, Control_c, 0, 64, 119
1, 318155, Note_off_c, 0, 66, 34
1, 318168, Control_c, 0, 64, 115
1, 318191, Control_c, 0, 64, 113
1, 318191, Note_off_c, 0, 61, 37
1, 318206, Control_c, 0, 64, 110
1, 318220, Control_c, 0, 64, 109
1, 318235, Control_c, 0, 64, 108
1, 318250, Control_c, 0, 64, 106
1, 318264, Control_c, 0, 64, 104
1, 318279, Control_c, 0, 64, 103
1, 318294, Control_c, 0, 64, 102
1, 318309, Control_c, 0, 64, 101
1, 318324, Control_c, 0, 64, 101
1, 318338, Control_c, 0, 64, 100
1, 318353, Control_c, 0, 64, 99
1, 318368, Control_c, 0, 64, 98
1, 318383, Control_c, 0, 64, 98
1, 318398, Control_c, 0, 64, 96
1, 318412, Control_c, 0, 64, 96
1, 318427, Control_c, 0, 64, 95
1, 318442, Control_c, 0, 64, 95
1, 318471, Control_c, 0, 64, 94
1, 318532, Control_c, 0, 64, 94
1, 318539, Note_on_c, 0, 83, 66
1, 318576, Control_c, 0, 64, 93
1, 318650, Control_c, 0, 64, 93
1, 318665, Control_c, 0, 64, 92
1, 318680, Control_c, 0, 64, 91
1, 318694, Control_c, 0, 64, 91
1, 318724, Control_c, 0, 64, 90
1, 318754, Control_c, 0, 64, 90
1, 318769, Control_c, 0, 64, 89
1, 318784, Control_c, 0, 64, 89
1, 318875, Note_off_c, 0, 83, 59
1, 318942, Note_on_c, 0, 82, 63
1, 318983, Note_off_c, 0, 82, 62
1, 318993, Note_off_c, 0, 78, 38
1, 319003, Note_on_c, 0, 83, 66
1, 319013, Control_c, 0, 64, 89
1, 319043, Control_c, 0, 64, 85
1, 319049, Note_on_c, 0, 82, 77
1, 319058, Control_c, 0, 64, 74
1, 319071, Note_off_c, 0, 83, 61
1, 319073, Control_c, 0, 64, 64
1, 319087, Control_c, 0, 64, 56
1, 319102, Control_c, 0, 64, 54
1, 319117, Control_c, 0, 64, 56
1, 319132, Control_c, 0, 64, 62
1, 319147, Control_c, 0, 64, 66
1, 319161, Control_c, 0, 64, 70
1, 319176, Control_c, 0, 64, 75
1, 319191, Control_c, 0, 64, 79
1, 319206, Control_c, 0, 64, 81
1, 319221, Control_c, 0, 64, 84
1, 319235, Control_c, 0, 64, 88
1, 319250, Control_c, 0, 64, 96
1, 319265, Control_c, 0, 64, 114
1, 319281, Control_c, 0, 64, 127
1, 319316, Note_on_c, 0, 80, 78
1, 319398, Note_off_c, 0, 82, 62
1, 319512, Note_on_c, 0, 78, 76
1, 319540, Note_off_c, 0, 80, 64
1, 319564, Note_off_c, 0, 78, 64
1, 319690, Note_on_c, 0, 63, 47
1, 319696, Note_on_c, 0, 59, 50
1, 319787, Note_on_c, 0, 75, 81
1, 319815, Note_on_c, 0, 70, 63
1, 319926, Note_off_c, 0, 63, 46
1, 319931, Note_off_c, 0, 70, 57
1, 320028, Note_on_c, 0, 58, 61
1, 320036, Note_on_c, 0, 71, 76
1, 320042, Note_on_c, 0, 68, 73
1, 320051, Poly_aftertouch_c, 0, 73, 127
1, 320054, Note_off_c, 0, 59, 61
1, 320110, Poly_aftertouch_c, 0, 73, 0
1, 320110, Note_off_c, 0, 68, 58
1, 320128, Note_off_c, 0, 75, 59
1, 320227, Note_on_c, 0, 56, 58
1, 320260, Note_off_c, 0, 58, 26
1, 320280, Note_off_c, 0, 56, 62
1, 320289, Note_on_c, 0, 73, 83
1, 320299, Note_on_c, 0, 65, 64
1, 320307, Note_off_c, 0, 71, 63
1, 320319, Note_off_c, 0, 65, 64
1, 320336, Note_off_c, 0, 73, 64
1, 320575, Note_on_c, 0, 55, 64
1, 320582, Note_on_c, 0, 39, 53
1, 320600, Control_c, 0, 64, 110
1, 320614, Control_c, 0, 64, 70
1, 320629, Control_c, 0, 64, 51
1, 320644, Control_c, 0, 64, 49
1, 320649, Note_on_c, 0, 58, 62
1, 320659, Control_c, 0, 64, 54
1, 320674, Control_c, 0, 64, 63
1, 320689, Control_c, 0, 64, 74
1, 320700, Note_on_c, 0, 63, 66
1, 320704, Control_c, 0, 64, 120
1, 320717, Note_off_c, 0, 55, 55
1, 320719, Control_c, 0, 64, 127
1, 320784, Note_on_c, 0, 46, 51
1, 320801, Note_on_c, 0, 70, 77
1, 320804, Note_off_c, 0, 39, 55
1, 320812, Note_off_c, 0, 58, 63
1, 320829, Note_off_c, 0, 63, 61
1, 320841, Note_off_c, 0, 46, 61
1, 320857, Note_off_c, 0, 70, 62
1, 320932, Note_on_c, 0, 55, 51
1, 320991, Note_off_c, 0, 55, 62
1, 321142, Note_on_c, 0, 58, 49
1, 321169, Note_on_c, 0, 87, 85
1, 321188, Note_on_c, 0, 77, 59
1, 321201, Note_on_c, 0, 75, 54
1, 321220, Note_off_c, 0, 77, 65
1, 321275, Note_off_c, 0, 58, 59
1, 321281, Note_off_c, 0, 75, 57
1, 321306, Note_on_c, 0, 63, 49
1, 321386, Note_off_c, 0, 63, 61
1, 321411, Note_on_c, 0, 75, 57
1, 321415, Note_on_c, 0, 79, 49
1, 321418, Note_on_c, 0, 65, 51
1, 321477, Note_off_c, 0, 65, 59
1, 321478, Note_off_c, 0, 79, 56
1, 321488, Note_off_c, 0, 75, 57
1, 321527, Note_on_c, 0, 66, 49
1, 321547, Poly_aftertouch_c, 0, 83, 127
1, 321605, Note_off_c, 0, 66, 60
1, 321613, Note_on_c, 0, 67, 57
1, 321617, Note_on_c, 0, 75, 56
1, 321621, Note_on_c, 0, 63, 54
1, 321627, Note_on_c, 0, 79, 57
1, 321642, Note_off_c, 0, 67, 64
1, 321655, Note_off_c, 0, 63, 65
1, 321687, Note_off_c, 0, 79, 62
1, 321712, Note_off_c, 0, 75, 61
1, 321737, Note_off_c, 0, 87, 65
1, 321815, Poly_aftertouch_c, 0, 82, 127
1, 321954, Note_on_c, 0, 39, 55
1, 321974, Note_on_c, 0, 46, 52
1, 322015, Note_off_c, 0, 39, 60
1, 322022, Note_off_c, 0, 46, 60
1, 322040, Note_on_c, 0, 86, 77
1, 322057, Note_on_c, 0, 74, 59
1, 322062, Poly_aftertouch_c, 0, 83, 0
1, 322064, Poly_aftertouch_c, 0, 82, 0
1, 322281, Note_on_c, 0, 57, 67
1, 322290, Control_c, 0, 64, 101
1, 322304, Control_c, 0, 64, 70
1, 322319, Control_c, 0, 64, 61
1, 322335, Control_c, 0, 64, 60
1, 322341, Note_on_c, 0, 79, 58
1, 322349, Note_on_c, 0, 75, 49
1, 322350, Control_c, 0, 64, 63
1, 322365, Control_c, 0, 64, 69
1, 322379, Control_c, 0, 64, 81
1, 322394, Control_c, 0, 64, 127
1, 322424, Poly_aftertouch_c, 0, 81, 127
1, 322432, Note_off_c, 0, 75, 54
1, 322433, Note_off_c, 0, 79, 61
1, 322434, Note_off_c, 0, 57, 61
1, 322468, Note_on_c, 0, 63, 51
1, 322518, Note_on_c, 0, 65, 49
1, 322531, Note_off_c, 0, 63, 55
1, 322573, Note_on_c, 0, 75, 53
1, 322582, Note_on_c, 0, 79, 54
1, 322609, Note_off_c, 0, 86, 56
1, 322627, Note_off_c, 0, 79, 61
1, 322631, Note_on_c, 0, 62, 48
1, 322635, Note_off_c, 0, 65, 58
1, 322639, Poly_aftertouch_c, 0, 81, 0
1, 322640, Note_on_c, 0, 67, 41
1, 322659, Note_off_c, 0, 75, 55
1, 322668, Note_off_c, 0, 67, 52
1, 322680, Note_off_c, 0, 62, 64
1, 322724, Note_off_c, 0, 74, 60
1, 322999, Note_on_c, 0, 39, 46
1, 323021, Note_on_c, 0, 46, 47
1, 323040, Control_c, 0, 64, 112
1, 323055, Control_c, 0, 64, 73
1, 323070, Control_c, 0, 64, 60
1, 323083, Control_c, 0, 64, 54
1, 323090, Note_on_c, 0, 74, 20
1, 323094, Note_on_c, 0, 84, 67
1, 323098, Control_c, 0, 64, 56
1, 323113, Control_c, 0, 64, 62
1, 323127, Control_c, 0, 64, 69
1, 323128, Note_on_c, 0, 72, 45
1, 323142, Control_c, 0, 64, 85
1, 323147, Note_off_c, 0, 74, 50
1, 323157, Control_c, 0, 64, 127
1, 323169, Note_off_c, 0, 46, 62
1, 323173, Note_off_c, 0, 39, 51
1, 323378, Note_on_c, 0, 56, 48
1, 323416, Note_on_c, 0, 79, 52
1, 323438, Note_on_c, 0, 62, 46
1, 323488, Note_off_c, 0, 56, 46
1, 323496, Poly_aftertouch_c, 0, 75, 127
1, 323520, Poly_aftertouch_c, 0, 75, 0
1, 323522, Note_off_c, 0, 62, 61
1, 323536, Note_off_c, 0, 79, 44
1, 323566, Note_on_c, 0, 65, 47
1, 323673, Note_on_c, 0, 79, 52
1, 323680, Note_off_c, 0, 65, 55
1, 323689, Note_on_c, 0, 75, 13
1, 323690, Note_on_c, 0, 60, 42
1, 323725, Note_on_c, 0, 67, 8
1, 323730, Note_off_c, 0, 84, 53
1, 323750, Note_off_c, 0, 60, 60
1, 323773, Note_off_c, 0, 67, 35
1, 323798, Note_off_c, 0, 75, 39
1, 323830, Note_off_c, 0, 79, 53
1, 323849, Note_off_c, 0, 72, 64
1, 324173, Note_on_c, 0, 39, 35
1, 324194, Note_on_c, 0, 46, 36
1, 324211, Control_c, 0, 64, 89
1, 324215, Note_on_c, 0, 74, 26
1, 324226, Control_c, 0, 64, 67
1, 324228, Note_on_c, 0, 82, 60
1, 324237, Note_on_c, 0, 70, 47
1, 324241, Control_c, 0, 64, 52
1, 324245, Note_on_c, 0, 77, 16
1, 324255, Control_c, 0, 64, 47
1, 324270, Control_c, 0, 64, 50
1, 324285, Control_c, 0, 64, 59
1, 324300, Control_c, 0, 64, 65
1, 324306, Note_off_c, 0, 46, 60
1, 324309, Note_off_c, 0, 39, 56
1, 324313, Note_off_c, 0, 74, 59
1, 324315, Control_c, 0, 64, 72
1, 324319, Note_off_c, 0, 77, 54
1, 324329, Control_c, 0, 64, 82
1, 324344, Control_c, 0, 64, 96
1, 324359, Control_c, 0, 64, 127
1, 324557, Note_on_c, 0, 55, 47
1, 324615, Note_on_c, 0, 79, 50
1, 324621, Note_on_c, 0, 75, 36
1, 324637, Note_off_c, 0, 55, 53
1, 324695, Note_on_c, 0, 60, 37
1, 324818, Note_on_c, 0, 65, 39
1, 324876, Note_off_c, 0, 65, 58
1, 324895, Note_off_c, 0, 75, 49
1, 324895, Note_off_c, 0, 79, 59
1, 324908, Note_off_c, 0, 60, 56
1, 325196, Control_c, 0, 64, 119
1, 325211, Control_c, 0, 64, 115
1, 325226, Control_c, 0, 64, 112
1, 325241, Control_c, 0, 64, 111
1, 325246, Note_on_c, 0, 58, 29
1, 325256, Control_c, 0, 64, 110
1, 325270, Control_c, 0, 64, 109
1, 325273, Note_on_c, 0, 67, 24
1, 325276, Note_on_c, 0, 75, 34
1, 325280, Note_on_c, 0, 79, 43
1, 325285, Note_on_c, 0, 63, 30
1, 325285, Control_c, 0, 64, 102
1, 325300, Control_c, 0, 64, 87
1, 325315, Control_c, 0, 64, 73
1, 325330, Control_c, 0, 64, 64
1, 325345, Control_c, 0, 64, 60
1, 325360, Control_c, 0, 64, 61
1, 325375, Control_c, 0, 64, 63
1, 325390, Control_c, 0, 64, 67
1, 325404, Control_c, 0, 64, 72
1, 325419, Control_c, 0, 64, 78
1, 325434, Control_c, 0, 64, 84
1, 325449, Control_c, 0, 64, 87
1, 325464, Control_c, 0, 64, 90
1, 325478, Control_c, 0, 64, 91
1, 325493, Control_c, 0, 64, 92
1, 325508, Control_c, 0, 64, 95
1, 325522, Control_c, 0, 64, 100
1, 325537, Control_c, 0, 64, 108
1, 325552, Control_c, 0, 64, 125
1, 325567, Control_c, 0, 64, 127
1, 325996, Note_off_c, 0, 82, 58
1, 326001, Note_off_c, 0, 70, 63
1, 326028, Note_off_c, 0, 79, 62
1, 326054, Note_off_c, 0, 75, 50
1, 326781, Note_on_c, 0, 80, 63
1, 326880, Note_off_c, 0, 67, 59
1, 326961, Note_off_c, 0, 58, 37
1, 326981, Note_off_c, 0, 63, 53
1, 327132, Note_off_c, 0, 80, 58
1, 327210, Note_on_c, 0, 79, 56
1, 327249, Note_off_c, 0, 79, 66
1, 327256, Note_on_c, 0, 80, 70
1, 327295, Control_c, 0, 64, 109
1, 327310, Control_c, 0, 64, 79
1, 327315, Note_on_c, 0, 79, 67
1, 327321, Note_off_c, 0, 80, 65
1, 327325, Control_c, 0, 64, 64
1, 327340, Control_c, 0, 64, 59
1, 327354, Control_c, 0, 64, 60
1, 327369, Control_c, 0, 64, 63
1, 327384, Control_c, 0, 64, 67
1, 327399, Control_c, 0, 64, 73
1, 327414, Control_c, 0, 64, 81
1, 327429, Control_c, 0, 64, 90
1, 327443, Control_c, 0, 64, 94
1, 327458, Control_c, 0, 64, 95
1, 327473, Control_c, 0, 64, 95
1, 327488, Control_c, 0, 64, 98
1, 327503, Control_c, 0, 64, 103
1, 327518, Control_c, 0, 64, 120
1, 327533, Control_c, 0, 64, 127
1, 327589, Note_on_c, 0, 77, 75
1, 327789, Note_on_c, 0, 75, 79
1, 327809, Note_off_c, 0, 79, 54
1, 327824, Note_off_c, 0, 77, 64
1, 327853, Note_off_c, 0, 75, 62
1, 327995, Note_on_c, 0, 63, 45
1, 328103, Note_on_c, 0, 72, 73
1, 328117, Control_c, 0, 64, 90
1, 328120, Note_on_c, 0, 67, 51
1, 328132, Control_c, 0, 64, 72
1, 328147, Control_c, 0, 64, 65
1, 328162, Control_c, 0, 64, 65
1, 328177, Control_c, 0, 64, 68
1, 328192, Control_c, 0, 64, 74
1, 328207, Control_c, 0, 64, 87
1, 328221, Control_c, 0, 64, 114
1, 328236, Control_c, 0, 64, 127
1, 328340, Note_off_c, 0, 67, 33
1, 328426, Note_on_c, 0, 70, 68
1, 328434, Note_off_c, 0, 63, 55
1, 328478, Note_on_c, 0, 62, 33
1, 328635, Note_off_c, 0, 72, 56
1, 328739, Note_off_c, 0, 62, 50
1, 328823, Note_on_c, 0, 67, 52
1, 328833, Note_on_c, 0, 61, 36
1, 328850, Control_c, 0, 64, 105
1, 328866, Control_c, 0, 64, 78
1, 328881, Control_c, 0, 64, 64
1, 328883, Note_off_c, 0, 70, 36
1, 328896, Control_c, 0, 64, 53
1, 328911, Control_c, 0, 64, 51
1, 328925, Control_c, 0, 64, 56
1, 328940, Control_c, 0, 64, 63
1, 328955, Control_c, 0, 64, 68
1, 328963, Note_on_c, 0, 63, 33
1, 328970, Control_c, 0, 64, 76
1, 328979, Note_off_c, 0, 61, 63
1, 328985, Control_c, 0, 64, 86
1, 328999, Control_c, 0, 64, 99
1, 329014, Control_c, 0, 64, 112
1, 329016, Note_off_c, 0, 67, 63
1, 329029, Control_c, 0, 64, 127
1, 329035, Note_off_c, 0, 63, 60
1, 329493, Note_on_c, 0, 39, 33
1, 329496, Note_on_c, 0, 27, 19
1, 329508, Note_on_c, 0, 60, 44
1, 329554, Control_c, 0, 64, 92
1, 329566, Note_on_c, 0, 55, 27
1, 329569, Control_c, 0, 64, 70
1, 329578, Note_on_c, 0, 58, 19
1, 329584, Control_c, 0, 64, 61
1, 329584, Poly_aftertouch_c, 0, 62, 127
1, 329599, Control_c, 0, 64, 55
1, 329614, Control_c, 0, 64, 56
1, 329628, Control_c, 0, 64, 60
1, 329643, Control_c, 0, 64, 65
1, 329658, Control_c, 0, 64, 72
1, 329673, Control_c, 0, 64, 81
1, 329688, Control_c, 0, 64, 90
1, 329703, Control_c, 0, 64, 100
1, 329706, Note_off_c, 0, 27, 39
1, 329718, Control_c, 0, 64, 113
1, 329733, Control_c, 0, 64, 127
1, 329761, Note_off_c, 0, 39, 38
1, 329834, Note_off_c, 0, 55, 41
1, 329857, Poly_aftertouch_c, 0, 62, 0
1, 329870, Note_off_c, 0, 60, 60
1, 329887, Note_off_c, 0, 58, 41
1, 330070, Note_on_c, 0, 48, 41
1, 330228, Note_off_c, 0, 48, 32
1, 330245, Note_on_c, 0, 58, 50
1, 330353, Note_off_c, 0, 58, 59
1, 330406, Note_on_c, 0, 60, 50
1, 330475, Note_off_c, 0, 60, 61
1, 330622, Note_on_c, 0, 67, 46
1, 330684, Note_on_c, 0, 94, 68
1, 330720, Note_off_c, 0, 67, 61
1, 330867, Note_on_c, 0, 91, 54
1, 330868, Note_off_c, 0, 94, 56
1, 330985, Note_off_c, 0, 91, 56
1, 331019, Note_on_c, 0, 93, 72
1, 331167, Note_on_c, 0, 90, 32
1, 331174, Note_on_c, 0, 60, 26
1, 331196, Note_off_c, 0, 90, 50
1, 331217, Note_off_c, 0, 60, 47
1, 331269, Note_on_c, 0, 92, 78
1, 331269, Note_off_c, 0, 93, 64
1, 331286, Note_on_c, 0, 87, 43
1, 331318, Note_on_c, 0, 58, 23
1, 331330, Note_off_c, 0, 87, 56
1, 331352, Note_off_c, 0, 92, 64
1, 331357, Note_off_c, 0, 58, 42
1, 331405, Note_on_c, 0, 84, 34
1, 331432, Note_off_c, 0, 84, 46
1, 331572, Control_c, 0, 64, 98
1, 331572, Note_on_c, 0, 91, 67
1, 331587, Control_c, 0, 64, 75
1, 331602, Control_c, 0, 64, 65
1, 331604, Note_on_c, 0, 83, 54
1, 331616, Note_on_c, 0, 39, 44
1, 331617, Control_c, 0, 64, 65
1, 331631, Control_c, 0, 64, 66
1, 331646, Control_c, 0, 64, 72
1, 331668, Control_c, 0, 64, 83
1, 331683, Control_c, 0, 64, 110
1, 331698, Control_c, 0, 64, 127
1, 331710, Note_off_c, 0, 39, 59
1, 331714, Note_off_c, 0, 83, 62
1, 331716, Note_off_c, 0, 91, 63
1, 331756, Note_on_c, 0, 82, 53
1, 331784, Note_off_c, 0, 82, 63
1, 331930, Note_on_c, 0, 84, 68
1, 332013, Note_on_c, 0, 48, 43
1, 332067, Note_on_c, 0, 81, 57
1, 332082, Note_off_c, 0, 48, 51
1, 332122, Note_off_c, 0, 84, 53
1, 332165, Note_on_c, 0, 58, 43
1, 332188, Note_on_c, 0, 80, 68
1, 332228, Note_off_c, 0, 58, 56
1, 332245, Note_off_c, 0, 81, 32
1, 332264, Note_off_c, 0, 80, 59
1, 332296, Note_on_c, 0, 79, 62
1, 332298, Note_on_c, 0, 60, 42
1, 332332, Note_off_c, 0, 79, 64
1, 332341, Note_off_c, 0, 60, 51
1, 332423, Note_on_c, 0, 83, 66
1, 332430, Note_on_c, 0, 79, 71
1, 332442, Note_on_c, 0, 67, 52
1, 332474, Note_off_c, 0, 67, 64
1, 332491, Note_off_c, 0, 83, 58
1, 332507, Note_off_c, 0, 79, 59
1, 332532, Note_on_c, 0, 78, 64
1, 332577, Note_off_c, 0, 78, 57
1, 332653, Note_on_c, 0, 82, 78
1, 332660, Note_on_c, 0, 79, 47
1, 332693, Note_off_c, 0, 79, 65
1, 332763, Note_off_c, 0, 82, 63
1, 332770, Note_on_c, 0, 72, 45
1, 332794, Note_off_c, 0, 72, 57
1, 332833, Note_on_c, 0, 58, 25
1, 332875, Note_off_c, 0, 58, 45
1, 332895, Note_on_c, 0, 79, 63
1, 332934, Note_on_c, 0, 70, 27
1, 332949, Note_off_c, 0, 79, 61
1, 332964, Poly_aftertouch_c, 0, 48, 0
1, 332971, Note_off_c, 0, 70, 46
1, 333223, Note_on_c, 0, 72, 63
1, 333240, Control_c, 0, 64, 92
1, 333255, Control_c, 0, 64, 70
1, 333270, Control_c, 0, 64, 60
1, 333275, Note_on_c, 0, 40, 35
1, 333284, Control_c, 0, 64, 57
1, 333299, Control_c, 0, 64, 60
1, 333314, Control_c, 0, 64, 64
1, 333329, Control_c, 0, 64, 70
1, 333344, Control_c, 0, 64, 81
1, 333358, Control_c, 0, 64, 100
1, 333371, Note_off_c, 0, 72, 65
1, 333373, Control_c, 0, 64, 127
1, 333403, Note_on_c, 0, 60, 49
1, 333447, Note_off_c, 0, 60, 61
1, 333587, Note_on_c, 0, 60, 52
1, 333590, Note_on_c, 0, 58, 43
1, 333629, Note_off_c, 0, 58, 59
1, 333647, Note_off_c, 0, 40, 40
1, 333647, Note_off_c, 0, 60, 63
1, 333787, Note_on_c, 0, 48, 43
1, 333833, Note_off_c, 0, 48, 62
1, 334073, Note_on_c, 0, 55, 56
1, 334093, Note_on_c, 0, 94, 60
1, 334167, Note_off_c, 0, 55, 61
1, 334253, Note_on_c, 0, 91, 52
1, 334258, Note_on_c, 0, 60, 44
1, 334264, Note_off_c, 0, 94, 63
1, 334356, Note_off_c, 0, 91, 50
1, 334380, Note_on_c, 0, 70, 50
1, 334383, Note_on_c, 0, 93, 68
1, 334387, Note_on_c, 0, 90, 62
1, 334404, Note_off_c, 0, 70, 63
1, 334416, Note_off_c, 0, 60, 62
1, 334449, Note_off_c, 0, 93, 63
1, 334456, Note_off_c, 0, 90, 61
1, 334531, Note_on_c, 0, 89, 28
1, 334567, Note_off_c, 0, 89, 42
1, 334624, Note_on_c, 0, 92, 71
1, 334632, Note_on_c, 0, 60, 39
1, 334648, Note_on_c, 0, 87, 49
1, 334687, Note_off_c, 0, 87, 63
1, 334696, Note_off_c, 0, 60, 57
1, 334714, Note_off_c, 0, 92, 62
1, 334738, Note_on_c, 0, 84, 61
1, 334759, Note_off_c, 0, 84, 63
1, 334760, Note_on_c, 0, 55, 38
1, 334820, Note_off_c, 0, 55, 63
1, 334843, Note_on_c, 0, 91, 71
1, 334878, Note_on_c, 0, 83, 53
1, 334913, Poly_aftertouch_c, 0, 48, 0
1, 334914, Note_off_c, 0, 83, 64
1, 334958, Note_on_c, 0, 82, 70
1, 334958, Note_off_c, 0, 91, 53
1, 334999, Note_off_c, 0, 82, 64
1, 335093, Control_c, 0, 64, 85
1, 335108, Control_c, 0, 64, 65
1, 335117, Note_on_c, 0, 40, 46
1, 335119, Note_on_c, 0, 84, 67
1, 335123, Control_c, 0, 64, 53
1, 335137, Control_c, 0, 64, 51
1, 335152, Note_on_c, 0, 79, 52
1, 335152, Control_c, 0, 64, 55
1, 335167, Control_c, 0, 64, 62
1, 335182, Control_c, 0, 64, 68
1, 335197, Control_c, 0, 64, 77
1, 335212, Control_c, 0, 64, 94
1, 335227, Control_c, 0, 64, 127
1, 335245, Note_on_c, 0, 48, 60
1, 335261, Note_off_c, 0, 40, 61
1, 335285, Note_off_c, 0, 48, 62
1, 335313, Note_off_c, 0, 79, 58
1, 335444, Note_on_c, 0, 55, 39
1, 335448, Note_off_c, 0, 84, 60
1, 335479, Note_off_c, 0, 55, 59
1, 335540, Note_on_c, 0, 60, 46
1, 335541, Note_on_c, 0, 78, 58
1, 335611, Note_off_c, 0, 78, 62
1, 335667, Note_on_c, 0, 83, 61
1, 335671, Note_on_c, 0, 70, 56
1, 335676, Note_on_c, 0, 79, 62
1, 335697, Note_off_c, 0, 70, 64
1, 335704, Note_off_c, 0, 60, 62
1, 335730, Note_off_c, 0, 83, 60
1, 335760, Note_off_c, 0, 79, 59
1, 335775, Note_on_c, 0, 76, 53
1, 335816, Note_off_c, 0, 76, 64
1, 335885, Note_on_c, 0, 79, 60
1, 335885, Note_on_c, 0, 82, 73
1, 335929, Note_off_c, 0, 79, 62
1, 335992, Note_on_c, 0, 72, 67
1, 335993, Note_off_c, 0, 82, 63
1, 336005, Note_on_c, 0, 55, 33
1, 336022, Note_off_c, 0, 72, 65
1, 336043, Note_off_c, 0, 55, 49
1, 336119, Note_on_c, 0, 79, 72
1, 336180, Note_on_c, 0, 70, 17
1, 336194, Note_off_c, 0, 79, 64
1, 336222, Note_off_c, 0, 70, 41
1, 336232, Note_on_c, 0, 69, 62
1, 336268, Note_off_c, 0, 69, 64
1, 336284, Note_on_c, 0, 40, 55
1, 336354, Control_c, 0, 64, 102
1, 336369, Control_c, 0, 64, 71
1, 336383, Control_c, 0, 64, 59
1, 336393, Note_on_c, 0, 72, 64
1, 336398, Control_c, 0, 64, 52
1, 336413, Control_c, 0, 64, 53
1, 336428, Control_c, 0, 64, 59
1, 336443, Control_c, 0, 64, 64
1, 336452, Note_on_c, 0, 48, 41
1, 336458, Control_c, 0, 64, 71
1, 336473, Control_c, 0, 64, 79
1, 336487, Control_c, 0, 64, 89
1, 336502, Control_c, 0, 64, 100
1, 336517, Control_c, 0, 64, 113
1, 336522, Note_on_c, 0, 67, 55
1, 336523, Note_off_c, 0, 40, 59
1, 336532, Control_c, 0, 64, 127
1, 336608, Note_off_c, 0, 72, 58
1, 336643, Note_off_c, 0, 67, 62
1, 336658, Note_on_c, 0, 70, 68
1, 336693, Note_on_c, 0, 60, 58
1, 336699, Note_off_c, 0, 70, 60
1, 336766, Note_off_c, 0, 60, 61
1, 336797, Note_off_c, 0, 48, 62
1, 336828, Note_on_c, 0, 49, 49
1, 336848, Note_on_c, 0, 59, 55
1, 336866, Note_off_c, 0, 49, 61
1, 337132, Control_c, 0, 64, 101
1, 337137, Note_on_c, 0, 50, 35
1, 337139, Note_on_c, 0, 43, 36
1, 337147, Control_c, 0, 64, 71
1, 337162, Control_c, 0, 64, 46
1, 337177, Control_c, 0, 64, 0
1, 337199, Note_on_c, 0, 64, 43
1, 337209, Note_on_c, 0, 62, 41
1, 337222, Note_on_c, 0, 58, 46
1, 337237, Control_c, 0, 64, 31
1, 337245, Note_off_c, 0, 43, 62
1, 337251, Control_c, 0, 64, 59
1, 337261, Note_off_c, 0, 50, 58
1, 337266, Control_c, 0, 64, 66
1, 337281, Control_c, 0, 64, 73
1, 337296, Control_c, 0, 64, 84
1, 337298, Note_off_c, 0, 58, 63
1, 337298, Note_off_c, 0, 59, 39
1, 337311, Control_c, 0, 64, 93
1, 337318, Note_off_c, 0, 64, 61
1, 337325, Control_c, 0, 64, 102
1, 337332, Note_off_c, 0, 62, 63
1, 337340, Control_c, 0, 64, 117
1, 337355, Control_c, 0, 64, 127
1, 337504, Note_on_c, 0, 58, 52
1, 337547, Note_off_c, 0, 58, 64
1, 337559, Note_on_c, 0, 62, 56
1, 337590, Note_off_c, 0, 62, 65
1, 337634, Note_on_c, 0, 64, 61
1, 337677, Note_off_c, 0, 64, 61
1, 337778, Control_c, 0, 64, 92
1, 337786, Note_on_c, 0, 65, 54
1, 337793, Control_c, 0, 64, 69
1, 337803, Note_on_c, 0, 86, 60
1, 337804, Note_on_c, 0, 58, 46
1, 337808, Control_c, 0, 64, 56
1, 337810, Note_on_c, 0, 62, 10
1, 337823, Control_c, 0, 64, 47
1, 337838, Control_c, 0, 64, 49
1, 337839, Note_on_c, 0, 82, 58
1, 337853, Control_c, 0, 64, 58
1, 337868, Control_c, 0, 64, 64
1, 337882, Control_c, 0, 64, 68
1, 337885, Note_on_c, 0, 81, 68
1, 337886, Note_off_c, 0, 82, 63
1, 337887, Note_off_c, 0, 86, 63
1, 337897, Control_c, 0, 64, 75
1, 337912, Control_c, 0, 64, 81
1, 337918, Note_off_c, 0, 81, 65
1, 337927, Control_c, 0, 64, 85
1, 337942, Control_c, 0, 64, 89
1, 337956, Control_c, 0, 64, 91
1, 337957, Note_on_c, 0, 79, 66
1, 337971, Control_c, 0, 64, 92
1, 337986, Control_c, 0, 64, 92
1, 337991, Note_on_c, 0, 66, 64
1, 338000, Note_off_c, 0, 79, 60
1, 338000, Control_c, 0, 64, 95
1, 338012, Note_on_c, 0, 82, 59
1, 338015, Control_c, 0, 64, 100
1, 338018, Note_off_c, 0, 65, 61
1, 338026, Note_on_c, 0, 78, 65
1, 338030, Control_c, 0, 64, 110
1, 338037, Note_off_c, 0, 58, 64
1, 338040, Note_off_c, 0, 62, 57
1, 338045, Control_c, 0, 64, 127
1, 338052, Note_off_c, 0, 66, 62
1, 338074, Note_on_c, 0, 77, 63
1, 338074, Note_off_c, 0, 82, 54
1, 338083, Note_off_c, 0, 78, 63
1, 338094, Note_off_c, 0, 77, 64
1, 338118, Note_on_c, 0, 76, 78
1, 338142, Poly_aftertouch_c, 0, 80, 0
1, 338157, Note_off_c, 0, 76, 61
1, 338184, Note_on_c, 0, 78, 69
1, 338197, Note_on_c, 0, 75, 69
1, 338242, Note_on_c, 0, 74, 68
1, 338246, Note_off_c, 0, 78, 64
1, 338274, Note_on_c, 0, 73, 81
1, 338276, Note_off_c, 0, 74, 64
1, 338285, Note_off_c, 0, 75, 61
1, 338300, Note_on_c, 0, 67, 40
1, 338313, Note_on_c, 0, 72, 66
1, 338321, Note_off_c, 0, 73, 64
1, 338402, Note_off_c, 0, 72, 63
1, 338405, Note_off_c, 0, 67, 60
1, 338417, Note_on_c, 0, 71, 60
1, 338440, Note_on_c, 0, 70, 80
1, 338483, Note_off_c, 0, 71, 64
1, 338488, Note_off_c, 0, 70, 67
1, 338625, Note_on_c, 0, 64, 50
1, 338630, Control_c, 0, 64, 77
1, 338635, Note_on_c, 0, 58, 60
1, 338645, Control_c, 0, 64, 56
1, 338649, Note_on_c, 0, 62, 56
1, 338660, Control_c, 0, 64, 0
1, 338704, Control_c, 0, 64, 37
1, 338719, Control_c, 0, 64, 58
1, 338734, Control_c, 0, 64, 65
1, 338749, Control_c, 0, 64, 70
1, 338764, Control_c, 0, 64, 77
1, 338778, Control_c, 0, 64, 85
1, 338793, Control_c, 0, 64, 90
1, 338808, Control_c, 0, 64, 94
1, 338812, Note_off_c, 0, 58, 59
1, 338822, Control_c, 0, 64, 100
1, 338833, Note_off_c, 0, 64, 58
1, 338836, Note_off_c, 0, 62, 62
1, 338837, Control_c, 0, 64, 117
1, 338848, Note_on_c, 0, 50, 61
1, 338852, Control_c, 0, 64, 127
1, 338874, Poly_aftertouch_c, 0, 43, 127
1, 338893, Note_off_c, 0, 50, 64
1, 338905, Poly_aftertouch_c, 0, 43, 0
1, 338940, Note_on_c, 0, 58, 65
1, 338970, Note_off_c, 0, 58, 65
1, 339051, Note_on_c, 0, 62, 52
1, 339078, Note_off_c, 0, 62, 59
1, 339117, Note_on_c, 0, 64, 69
1, 339224, Note_on_c, 0, 62, 12
1, 339257, Note_off_c, 0, 64, 62
1, 339276, Note_on_c, 0, 65, 79
1, 339284, Note_on_c, 0, 58, 68
1, 339285, Note_on_c, 0, 86, 57
1, 339290, Control_c, 0, 64, 94
1, 339305, Control_c, 0, 64, 68
1, 339318, Note_on_c, 0, 82, 40
1, 339320, Control_c, 0, 64, 50
1, 339334, Control_c, 0, 64, 36
1, 339349, Control_c, 0, 64, 38
1, 339364, Control_c, 0, 64, 50
1, 339367, Note_off_c, 0, 82, 61
1, 339379, Note_off_c, 0, 86, 63
1, 339379, Control_c, 0, 64, 60
1, 339388, Note_on_c, 0, 81, 60
1, 339394, Control_c, 0, 64, 65
1, 339409, Control_c, 0, 64, 69
1, 339419, Note_off_c, 0, 81, 65
1, 339424, Control_c, 0, 64, 74
1, 339439, Control_c, 0, 64, 79
1, 339453, Control_c, 0, 64, 83
1, 339457, Note_on_c, 0, 79, 65
1, 339468, Control_c, 0, 64, 86
1, 339483, Control_c, 0, 64, 90
1, 339498, Control_c, 0, 64, 94
1, 339513, Control_c, 0, 64, 104
1, 339527, Control_c, 0, 64, 127
1, 339528, Note_off_c, 0, 79, 58
1, 339555, Note_on_c, 0, 82, 45
1, 339575, Note_on_c, 0, 78, 46
1, 339598, Note_off_c, 0, 82, 43
1, 339599, Note_on_c, 0, 66, 77
1, 339620, Note_on_c, 0, 80, 20
1, 339632, Note_off_c, 0, 78, 54
1, 339660, Note_off_c, 0, 80, 50
1, 339681, Note_on_c, 0, 76, 74
1, 339689, Note_off_c, 0, 65, 64
1, 339704, Note_off_c, 0, 62, 56
1, 339715, Note_off_c, 0, 58, 65
1, 339728, Note_off_c, 0, 76, 62
1, 339745, Note_off_c, 0, 66, 65
1, 339802, Note_on_c, 0, 79, 30
1, 339821, Note_on_c, 0, 74, 62
1, 339848, Note_off_c, 0, 79, 46
1, 339879, Note_off_c, 0, 74, 56
1, 339888, Note_on_c, 0, 73, 67
1, 339972, Note_off_c, 0, 73, 63
1, 340018, Note_on_c, 0, 67, 65
1, 340030, Note_on_c, 0, 72, 75
1, 340121, Note_off_c, 0, 72, 62
1, 340149, Note_off_c, 0, 67, 62
1, 340154, Note_on_c, 0, 70, 74
1, 340261, Note_off_c, 0, 70, 63
1, 340263, Note_on_c, 0, 71, 70
1, 340306, Note_off_c, 0, 71, 64
1, 340458, Note_on_c, 0, 64, 67
1, 340459, Note_on_c, 0, 58, 60
1, 340470, Note_on_c, 0, 62, 61
1, 340482, Control_c, 0, 64, 75
1, 340497, Control_c, 0, 64, 53
1, 340512, Control_c, 0, 64, 0
1, 340556, Control_c, 0, 64, 46
1, 340571, Control_c, 0, 64, 61
1, 340586, Control_c, 0, 64, 67
1, 340601, Control_c, 0, 64, 76
1, 340616, Control_c, 0, 64, 91
1, 340631, Control_c, 0, 64, 127
1, 340652, Note_off_c, 0, 58, 62
1, 340661, Note_off_c, 0, 64, 59
1, 340671, Note_off_c, 0, 62, 64
1, 340738, Note_on_c, 0, 43, 56
1, 340744, Note_on_c, 0, 50, 37
1, 340767, Note_off_c, 0, 43, 61
1, 340777, Note_off_c, 0, 50, 49
1, 340947, Note_on_c, 0, 86, 67
1, 340970, Note_on_c, 0, 74, 22
1, 340972, Note_on_c, 0, 82, 64
1, 341006, Note_off_c, 0, 74, 40
1, 341019, Note_on_c, 0, 81, 71
1, 341024, Note_off_c, 0, 86, 64
1, 341035, Note_off_c, 0, 82, 63
1, 341049, Note_off_c, 0, 81, 65
1, 341087, Note_on_c, 0, 79, 46
1, 341108, Note_off_c, 0, 79, 59
1, 341147, Note_on_c, 0, 70, 21
1, 341147, Note_on_c, 0, 82, 61
1, 341148, Note_on_c, 0, 78, 63
1, 341162, Note_on_c, 0, 63, 54
1, 341171, Note_on_c, 0, 66, 16
1, 341185, Note_off_c, 0, 70, 44
1, 341190, Note_off_c, 0, 63, 63
1, 341194, Note_on_c, 0, 77, 73
1, 341198, Note_off_c, 0, 78, 62
1, 341200, Note_off_c, 0, 82, 60
1, 341215, Note_off_c, 0, 66, 51
1, 341221, Note_off_c, 0, 77, 66
1, 341278, Note_on_c, 0, 74, 53
1, 341282, Note_on_c, 0, 76, 59
1, 341306, Control_c, 0, 64, 106
1, 341321, Control_c, 0, 64, 73
1, 341336, Control_c, 0, 64, 62
1, 341347, Note_off_c, 0, 74, 61
1, 341351, Control_c, 0, 64, 60
1, 341357, Note_on_c, 0, 64, 53
1, 341362, Note_on_c, 0, 58, 70
1, 341366, Control_c, 0, 64, 61
1, 341372, Note_on_c, 0, 62, 62
1, 341380, Control_c, 0, 64, 65
1, 341403, Note_off_c, 0, 76, 60
1, 341403, Control_c, 0, 64, 71
1, 341418, Control_c, 0, 64, 81
1, 341427, Note_off_c, 0, 62, 61
1, 341428, Note_off_c, 0, 58, 63
1, 341431, Note_off_c, 0, 64, 65
1, 341432, Control_c, 0, 64, 94
1, 341447, Control_c, 0, 64, 109
1, 341462, Control_c, 0, 64, 127
1, 341533, Note_on_c, 0, 86, 70
1, 341543, Note_on_c, 0, 82, 76
1, 341552, Note_on_c, 0, 68, 70
1, 341561, Note_on_c, 0, 76, 54
1, 341575, Note_on_c, 0, 74, 39
1, 341580, Note_off_c, 0, 76, 61
1, 341586, Note_off_c, 0, 68, 62
1, 341600, Note_on_c, 0, 81, 75
1, 341600, Note_off_c, 0, 86, 62
1, 341601, Note_off_c, 0, 74, 50
1, 341612, Note_off_c, 0, 82, 64
1, 341630, Note_off_c, 0, 81, 64
1, 341659, Note_on_c, 0, 79, 61
1, 341687, Note_off_c, 0, 79, 67
1, 341725, Note_on_c, 0, 82, 66
1, 341728, Note_on_c, 0, 78, 71
1, 341734, Note_on_c, 0, 68, 69
1, 341735, Note_on_c, 0, 70, 77
1, 341738, Note_on_c, 0, 58, 69
1, 341759, Note_off_c, 0, 70, 70
1, 341761, Note_off_c, 0, 68, 64
1, 341767, Note_off_c, 0, 58, 66
1, 341773, Note_on_c, 0, 77, 74
1, 341782, Note_off_c, 0, 78, 64
1, 341782, Note_off_c, 0, 82, 63
1, 341798, Note_off_c, 0, 77, 68
1, 341829, Note_on_c, 0, 76, 73
1, 341886, Note_off_c, 0, 76, 64
1, 341922, Control_c, 0, 64, 91
1, 341937, Control_c, 0, 64, 68
1, 341951, Note_on_c, 0, 89, 75
1, 341951, Control_c, 0, 64, 57
1, 341959, Note_on_c, 0, 77, 62
1, 341960, Note_on_c, 0, 70, 68
1, 341966, Control_c, 0, 64, 58
1, 341969, Note_on_c, 0, 85, 66
1, 341975, Note_on_c, 0, 73, 63
1, 341981, Note_on_c, 0, 76, 46
1, 341981, Control_c, 0, 64, 62
1, 341993, Note_off_c, 0, 77, 67
1, 341996, Control_c, 0, 64, 67
1, 342002, Note_off_c, 0, 76, 38
1, 342008, Note_off_c, 0, 73, 62
1, 342011, Control_c, 0, 64, 77
1, 342014, Note_on_c, 0, 84, 79
1, 342017, Note_off_c, 0, 85, 64
1, 342024, Note_off_c, 0, 89, 60
1, 342026, Control_c, 0, 64, 94
1, 342026, Note_off_c, 0, 70, 64
1, 342040, Control_c, 0, 64, 127
1, 342052, Note_off_c, 0, 84, 65
1, 342089, Note_on_c, 0, 83, 70
1, 342118, Note_off_c, 0, 83, 63
1, 342167, Note_on_c, 0, 73, 75
1, 342173, Note_on_c, 0, 69, 68
1, 342179, Note_on_c, 0, 81, 67
1, 342196, Note_on_c, 0, 85, 59
1, 342214, Note_off_c, 0, 81, 64
1, 342226, Note_on_c, 0, 80, 71
1, 342230, Note_off_c, 0, 73, 64
1, 342239, Note_on_c, 0, 63, 74
1, 342245, Note_off_c, 0, 69, 62
1, 342249, Note_off_c, 0, 85, 61
1, 342277, Note_off_c, 0, 80, 58
1, 342288, Note_on_c, 0, 77, 77
1, 342294, Note_off_c, 0, 63, 59
1, 342389, Note_on_c, 0, 67, 72
1, 342389, Control_c, 0, 64, 98
1, 342403, Control_c, 0, 64, 69
1, 342408, Note_on_c, 0, 61, 64
1, 342417, Note_on_c, 0, 65, 36
1, 342418, Control_c, 0, 64, 43
1, 342433, Control_c, 0, 64, 23
1, 342446, Note_on_c, 0, 66, 15
1, 342449, Control_c, 0, 64, 25
1, 342464, Control_c, 0, 64, 45
1, 342478, Control_c, 0, 64, 59
1, 342485, Note_on_c, 0, 58, 73
1, 342489, Note_off_c, 0, 66, 29
1, 342490, Note_off_c, 0, 77, 59
1, 342493, Control_c, 0, 64, 65
1, 342503, Note_off_c, 0, 67, 62
1, 342504, Note_off_c, 0, 61, 60
1, 342508, Control_c, 0, 64, 70
1, 342523, Control_c, 0, 64, 75
1, 342524, Note_off_c, 0, 65, 63
1, 342538, Control_c, 0, 64, 79
1, 342543, Note_off_c, 0, 58, 63
1, 342552, Control_c, 0, 64, 83
1, 342567, Control_c, 0, 64, 86
1, 342582, Control_c, 0, 64, 92
1, 342597, Control_c, 0, 64, 106
1, 342612, Control_c, 0, 64, 127
1, 342616, Note_on_c, 0, 85, 75
1, 342617, Note_on_c, 0, 89, 72
1, 342628, Note_on_c, 0, 76, 82
1, 342648, Note_on_c, 0, 73, 68
1, 342658, Note_off_c, 0, 76, 63
1, 342685, Note_off_c, 0, 85, 64
1, 342687, Note_on_c, 0, 84, 71
1, 342688, Note_off_c, 0, 73, 63
1, 342691, Note_off_c, 0, 89, 62
1, 342712, Note_off_c, 0, 84, 68
1, 342738, Note_on_c, 0, 83, 71
1, 342780, Note_off_c, 0, 83, 63
1, 342789, Control_c, 0, 64, 86
1, 342804, Control_c, 0, 64, 66
1, 342815, Note_on_c, 0, 73, 72
1, 342819, Control_c, 0, 64, 60
1, 342822, Note_on_c, 0, 81, 66
1, 342832, Note_on_c, 0, 85, 62
1, 342834, Control_c, 0, 64, 61
1, 342849, Control_c, 0, 64, 65
1, 342862, Note_off_c, 0, 81, 66
1, 342864, Control_c, 0, 64, 72
1, 342873, Note_on_c, 0, 80, 79
1, 342879, Control_c, 0, 64, 93
1, 342901, Control_c, 0, 64, 127
1, 342902, Note_off_c, 0, 73, 63
1, 342942, Note_off_c, 0, 85, 60
1, 342944, Note_on_c, 0, 77, 69
1, 342968, Note_off_c, 0, 80, 63
1, 342970, Note_off_c, 0, 77, 64
1, 342980, Note_on_c, 0, 76, 78
1, 343034, Note_off_c, 0, 76, 62
1, 343041, Note_on_c, 0, 81, 76
1, 343047, Note_on_c, 0, 88, 50
1, 343070, Note_off_c, 0, 81, 66
1, 343094, Note_off_c, 0, 88, 58
1, 343111, Note_on_c, 0, 83, 77
1, 343176, Note_off_c, 0, 83, 64
1, 343178, Note_on_c, 0, 84, 77
1, 343226, Note_off_c, 0, 84, 63
1, 343317, Control_c, 0, 64, 115
1, 343328, Note_on_c, 0, 89, 70
1, 343332, Control_c, 0, 64, 73
1, 343341, Note_on_c, 0, 77, 55
1, 343344, Note_on_c, 0, 74, 49
1, 343346, Note_on_c, 0, 86, 61
1, 343347, Control_c, 0, 64, 49
1, 343349, Note_on_c, 0, 70, 51
1, 343361, Control_c, 0, 64, 31
1, 343362, Note_on_c, 0, 65, 50
1, 343376, Control_c, 0, 64, 34
1, 343391, Control_c, 0, 64, 51
1, 343397, Note_off_c, 0, 77, 63
1, 343406, Control_c, 0, 64, 62
1, 343415, Note_off_c, 0, 74, 64
1, 343421, Control_c, 0, 64, 69
1, 343435, Note_off_c, 0, 70, 64
1, 343436, Control_c, 0, 64, 82
1, 343437, Note_off_c, 0, 65, 63
1, 343450, Control_c, 0, 64, 101
1, 343451, Note_off_c, 0, 89, 64
1, 343465, Control_c, 0, 64, 127
1, 343469, Note_off_c, 0, 86, 66
1, 343627, Note_on_c, 0, 53, 55
1, 343720, Note_off_c, 0, 53, 58
1, 343743, Note_on_c, 0, 50, 49
1, 343783, Note_off_c, 0, 50, 63
1, 343832, Note_on_c, 0, 55, 59
1, 343852, Note_on_c, 0, 64, 60
1, 343856, Note_on_c, 0, 76, 60
1, 343893, Note_off_c, 0, 55, 60
1, 343980, Note_off_c, 0, 64, 61
1, 343982, Note_on_c, 0, 70, 58
1, 343983, Note_off_c, 0, 76, 59
1, 343990, Note_on_c, 0, 46, 36
1, 344033, Note_off_c, 0, 70, 54
1, 344094, Note_on_c, 0, 56, 67
1, 344096, Note_on_c, 0, 65, 72
1, 344096, Note_off_c, 0, 46, 56
1, 344107, Note_on_c, 0, 77, 58
1, 344124, Note_on_c, 0, 74, 46
1, 344128, Note_off_c, 0, 56, 65
1, 344202, Note_off_c, 0, 74, 56
1, 344214, Note_on_c, 0, 70, 65
1, 344232, Note_on_c, 0, 43, 56
1, 344236, Note_off_c, 0, 77, 60
1, 344294, Note_off_c, 0, 43, 61
1, 344313, Note_off_c, 0, 70, 60
1, 344315, Note_on_c, 0, 55, 62
1, 344327, Note_on_c, 0, 74, 55
1, 344343, Note_on_c, 0, 77, 39
1, 344357, Note_off_c, 0, 55, 62
1, 344374, Note_off_c, 0, 77, 54
1, 344403, Note_off_c, 0, 74, 59
1, 344420, Note_off_c, 0, 65, 58
1, 344440, Note_on_c, 0, 70, 63
1, 344518, Note_off_c, 0, 70, 60
1, 344563, Note_on_c, 0, 51, 43
1, 344563, Note_on_c, 0, 74, 67
1, 344567, Note_on_c, 0, 66, 73
1, 344568, Note_on_c, 0, 78, 68
1, 344569, Note_on_c, 0, 58, 56
1, 344604, Note_off_c, 0, 51, 47
1, 344614, Note_off_c, 0, 58, 57
1, 344622, Note_off_c, 0, 74, 58
1, 344641, Note_off_c, 0, 66, 59
1, 344660, Note_off_c, 0, 78, 63
1, 344675, Note_on_c, 0, 70, 50
1, 344772, Note_off_c, 0, 70, 55
1, 344839, Note_on_c, 0, 79, 70
1, 344848, Note_on_c, 0, 67, 66
1, 344858, Note_on_c, 0, 51, 57
1, 344874, Control_c, 0, 64, 74
1, 344875, Note_on_c, 0, 75, 56
1, 344881, Note_on_c, 0, 59, 52
1, 344889, Control_c, 0, 64, 49
1, 344903, Control_c, 0, 64, 0
1, 344962, Control_c, 0, 64, 22
1, 344977, Control_c, 0, 64, 56
1, 344980, Note_off_c, 0, 75, 57
1, 344989, Note_off_c, 0, 79, 63
1, 344992, Control_c, 0, 64, 63
1, 345002, Note_off_c, 0, 67, 62
1, 345007, Control_c, 0, 64, 67
1, 345013, Note_on_c, 0, 71, 53
1, 345022, Control_c, 0, 64, 71
1, 345037, Control_c, 0, 64, 75
1, 345052, Control_c, 0, 64, 81
1, 345064, Note_off_c, 0, 71, 57
1, 345066, Control_c, 0, 64, 87
1, 345081, Control_c, 0, 64, 98
1, 345096, Control_c, 0, 64, 127
1, 345118, Note_on_c, 0, 68, 77
1, 345119, Note_on_c, 0, 80, 69
1, 345120, Note_on_c, 0, 75, 57
1, 345194, Note_off_c, 0, 59, 60
1, 345217, Note_on_c, 0, 55, 58
1, 345219, Note_off_c, 0, 51, 57
1, 345232, Note_off_c, 0, 68, 61
1, 345241, Note_on_c, 0, 71, 57
1, 345246, Note_off_c, 0, 75, 54
1, 345253, Note_off_c, 0, 80, 63
1, 345280, Note_off_c, 0, 71, 62
1, 345341, Control_c, 0, 64, 86
1, 345355, Control_c, 0, 64, 68
1, 345356, Note_on_c, 0, 69, 80
1, 345356, Note_on_c, 0, 81, 70
1, 345368, Note_on_c, 0, 60, 64
1, 345370, Control_c, 0, 64, 60
1, 345383, Note_on_c, 0, 77, 49
1, 345385, Control_c, 0, 64, 60
1, 345400, Control_c, 0, 64, 63
1, 345414, Control_c, 0, 64, 67
1, 345429, Control_c, 0, 64, 75
1, 345443, Note_off_c, 0, 81, 60
1, 345444, Note_off_c, 0, 77, 57
1, 345444, Control_c, 0, 64, 86
1, 345459, Control_c, 0, 64, 100
1, 345461, Note_off_c, 0, 69, 60
1, 345469, Note_on_c, 0, 51, 74
1, 345470, Note_on_c, 0, 75, 60
1, 345473, Control_c, 0, 64, 127
1, 345483, Note_off_c, 0, 60, 57
1, 345490, Note_off_c, 0, 55, 32
1, 345529, Note_off_c, 0, 75, 52
1, 345540, Note_off_c, 0, 51, 63
1, 345579, Note_on_c, 0, 82, 75
1, 345582, Note_on_c, 0, 79, 70
1, 345588, Note_on_c, 0, 70, 80
1, 345605, Note_on_c, 0, 62, 56
1, 345659, Note_off_c, 0, 79, 59
1, 345681, Note_on_c, 0, 78, 69
1, 345685, Note_off_c, 0, 62, 53
1, 345694, Note_on_c, 0, 48, 71
1, 345707, Note_off_c, 0, 70, 63
1, 345719, Note_off_c, 0, 82, 63
1, 345748, Note_off_c, 0, 78, 63
1, 345757, Note_off_c, 0, 48, 63
1, 345770, Control_c, 0, 64, 91
1, 345785, Control_c, 0, 64, 68
1, 345800, Control_c, 0, 64, 59
1, 345815, Control_c, 0, 64, 58
1, 345819, Note_on_c, 0, 79, 73
1, 345821, Note_on_c, 0, 71, 81
1, 345822, Note_on_c, 0, 83, 77
1, 345823, Note_on_c, 0, 63, 74
1, 345830, Control_c, 0, 64, 61
1, 345845, Control_c, 0, 64, 65
1, 345846, Note_off_c, 0, 63, 69
1, 345859, Control_c, 0, 64, 74
1, 345874, Control_c, 0, 64, 89
1, 345896, Control_c, 0, 64, 127
1, 345927, Note_on_c, 0, 75, 79
1, 345936, Note_off_c, 0, 79, 64
1, 345945, Note_off_c, 0, 71, 62
1, 345945, Note_off_c, 0, 83, 63
1, 345973, Note_on_c, 0, 41, 61
1, 345977, Note_off_c, 0, 75, 63
1, 346047, Note_off_c, 0, 41, 62
1, 346054, Note_on_c, 0, 84, 81
1, 346059, Note_on_c, 0, 72, 80
1, 346115, Note_on_c, 0, 79, 6
1, 346142, Note_off_c, 0, 72, 61
1, 346154, Note_off_c, 0, 84, 61
1, 346157, Note_off_c, 0, 79, 58
1, 346162, Note_on_c, 0, 80, 70
1, 346190, Note_off_c, 0, 80, 69
1, 346238, Control_c, 0, 64, 108
1, 346252, Control_c, 0, 64, 80
1, 346261, Note_on_c, 0, 58, 58
1, 346267, Note_on_c, 0, 73, 86
1, 346267, Control_c, 0, 64, 72
1, 346274, Note_on_c, 0, 82, 74
1, 346280, Note_on_c, 0, 65, 63
1, 346283, Note_on_c, 0, 86, 63
1, 346296, Control_c, 0, 64, 75
1, 346298, Note_off_c, 0, 58, 65
1, 346311, Control_c, 0, 64, 84
1, 346313, Note_off_c, 0, 86, 47
1, 346326, Control_c, 0, 64, 115
1, 346337, Note_off_c, 0, 73, 63
1, 346341, Control_c, 0, 64, 127
1, 346342, Note_off_c, 0, 65, 56
1, 346348, Note_off_c, 0, 82, 47
1, 346369, Note_on_c, 0, 79, 63
1, 346408, Note_on_c, 0, 78, 22
1, 346438, Note_on_c, 0, 64, 46
1, 346447, Note_off_c, 0, 79, 64
1, 346449, Note_off_c, 0, 78, 30
1, 346465, Note_off_c, 0, 64, 56
1, 346484, Note_on_c, 0, 67, 78
1, 346484, Note_on_c, 0, 74, 91
1, 346484, Note_on_c, 0, 86, 86
1, 346499, Note_on_c, 0, 82, 71
1, 346535, Note_off_c, 0, 67, 59
1, 346582, Note_on_c, 0, 80, 73
1, 346591, Note_off_c, 0, 74, 59
1, 346596, Note_off_c, 0, 82, 59
1, 346606, Note_off_c, 0, 86, 62
1, 346610, Note_off_c, 0, 80, 65
1, 346624, Note_on_c, 0, 64, 28
1, 346638, Note_on_c, 0, 61, 13
1, 346640, Note_on_c, 0, 79, 57
1, 346653, Note_on_c, 0, 60, 60
1, 346658, Note_off_c, 0, 79, 64
1, 346685, Note_off_c, 0, 61, 40
1, 346739, Note_on_c, 0, 57, 83
1, 346748, Note_off_c, 0, 60, 61
1, 346757, Note_off_c, 0, 64, 53
1, 346846, Note_off_c, 0, 57, 63
1, 346861, Note_on_c, 0, 88, 84
1, 346863, Note_on_c, 0, 76, 99
1, 346890, Note_on_c, 0, 63, 59
1, 346901, Note_on_c, 0, 71, 46
1, 346908, Note_on_c, 0, 69, 52
1, 346930, Note_off_c, 0, 69, 60
1, 346930, Note_off_c, 0, 71, 62
1, 346957, Note_off_c, 0, 63, 53
1, 346986, Poly_aftertouch_c, 0, 86, 0
1, 346988, Note_on_c, 0, 83, 74
1, 346988, Note_off_c, 0, 76, 59
1, 346989, Note_off_c, 0, 88, 63
1, 347039, Note_on_c, 0, 57, 80
1, 347070, Note_on_c, 0, 77, 98
1, 347075, Note_on_c, 0, 89, 90
1, 347108, Note_off_c, 0, 83, 62
1, 347119, Note_on_c, 0, 88, 28
1, 347120, Note_off_c, 0, 88, 127
1, 347126, Note_off_c, 0, 57, 63
1, 347147, Note_off_c, 0, 77, 62
1, 347156, Note_off_c, 0, 89, 62
1, 347168, Note_on_c, 0, 83, 61
1, 347274, Note_on_c, 0, 78, 104
1, 347276, Note_on_c, 0, 70, 89
1, 347280, Note_on_c, 0, 90, 88
1, 347326, Note_off_c, 0, 83, 58
1, 347362, Note_off_c, 0, 78, 60
1, 347366, Note_off_c, 0, 70, 61
1, 347410, Note_on_c, 0, 83, 33
1, 347426, Note_off_c, 0, 90, 55
1, 347484, Control_c, 0, 64, 90
1, 347496, Note_on_c, 0, 71, 98
1, 347498, Control_c, 0, 64, 64
1, 347502, Note_on_c, 0, 62, 76
1, 347502, Note_on_c, 0, 91, 94
1, 347505, Note_on_c, 0, 79, 100
1, 347513, Control_c, 0, 64, 51
1, 347528, Control_c, 0, 64, 52
1, 347542, Control_c, 0, 64, 61
1, 347557, Control_c, 0, 64, 70
1, 347572, Control_c, 0, 64, 92
1, 347587, Note_off_c, 0, 71, 65
1, 347587, Control_c, 0, 64, 127
1, 347609, Note_off_c, 0, 79, 65
1, 347612, Note_off_c, 0, 91, 65
1, 347624, Note_off_c, 0, 83, 58
1, 347647, Note_on_c, 0, 55, 79
1, 347678, Note_off_c, 0, 62, 52
1, 347728, Note_on_c, 0, 80, 102
1, 347728, Note_on_c, 0, 92, 98
1, 347734, Note_on_c, 0, 89, 69
1, 347740, Note_on_c, 0, 82, 85
1, 347761, Note_on_c, 0, 62, 71
1, 347763, Note_off_c, 0, 55, 60
1, 347770, Note_off_c, 0, 89, 58
1, 347806, Note_off_c, 0, 82, 56
1, 347836, Note_off_c, 0, 80, 62
1, 347840, Note_off_c, 0, 92, 66
1, 347879, Note_off_c, 0, 62, 60
1, 347888, Note_on_c, 0, 65, 68
1, 347919, Note_on_c, 0, 81, 100
1, 347922, Note_on_c, 0, 89, 99
1, 347922, Note_on_c, 0, 93, 97
1, 347924, Note_off_c, 0, 65, 65
1, 347951, Note_on_c, 0, 71, 80
1, 347975, Note_off_c, 0, 71, 69
1, 348029, Note_on_c, 0, 87, 81
1, 348035, Note_off_c, 0, 93, 64
1, 348037, Note_off_c, 0, 89, 61
1, 348039, Note_off_c, 0, 81, 65
1, 348074, Note_off_c, 0, 87, 64
1, 348105, Control_c, 0, 64, 80
1, 348120, Control_c, 0, 64, 67
1, 348131, Note_on_c, 0, 73, 98
1, 348143, Control_c, 0, 64, 66
1, 348143, Note_on_c, 0, 67, 82
1, 348152, Note_on_c, 0, 89, 106
1, 348158, Control_c, 0, 64, 71
1, 348172, Control_c, 0, 64, 88
1, 348187, Control_c, 0, 64, 127
1, 348265, Note_off_c, 0, 89, 61
1, 348268, Note_on_c, 0, 63, 86
1, 348271, Note_off_c, 0, 67, 61
1, 348287, Note_on_c, 0, 90, 46
1, 348296, Note_off_c, 0, 73, 58
1, 348309, Note_off_c, 0, 90, 57
1, 348350, Control_c, 0, 64, 110
1, 348364, Control_c, 0, 64, 117
1, 348378, Note_on_c, 0, 90, 95
1, 348379, Control_c, 0, 64, 127
1, 348380, Note_on_c, 0, 82, 112
1, 348380, Note_on_c, 0, 94, 103
1, 348390, Note_on_c, 0, 74, 99
1, 348396, Note_on_c, 0, 68, 91
1, 348403, Note_off_c, 0, 63, 40
1, 348476, Note_off_c, 0, 82, 64
1, 348478, Note_off_c, 0, 94, 64
1, 348555, Note_off_c, 0, 68, 59
1, 348564, Note_off_c, 0, 74, 59
1, 348572, Note_off_c, 0, 90, 33
1, 348587, Control_c, 0, 64, 117
1, 348602, Control_c, 0, 64, 67
1, 348617, Control_c, 0, 64, 37
1, 348626, Note_on_c, 0, 74, 97
1, 348626, Note_on_c, 0, 91, 108
1, 348626, Note_on_c, 0, 68, 100
1, 348627, Note_on_c, 0, 95, 100
1, 348629, Note_on_c, 0, 83, 102
1, 348632, Control_c, 0, 64, 31
1, 348647, Control_c, 0, 64, 57
1, 348661, Control_c, 0, 64, 72
1, 348676, Control_c, 0, 64, 127
1, 348721, Note_off_c, 0, 95, 66
1, 348771, Note_off_c, 0, 68, 58
1, 348794, Note_on_c, 0, 65, 83
1, 348800, Note_on_c, 0, 92, 90
1, 348804, Note_on_c, 0, 89, 43
1, 348808, Note_off_c, 0, 83, 66
1, 348811, Note_off_c, 0, 91, 66
1, 348816, Note_off_c, 0, 74, 64
1, 348831, Note_off_c, 0, 89, 54
1, 348842, Note_off_c, 0, 92, 64
1, 348868, Note_off_c, 0, 65, 59
1, 349028, Note_on_c, 0, 69, 51
1, 349032, Note_on_c, 0, 65, 72
1, 349040, Note_on_c, 0, 75, 97
1, 349040, Control_c, 0, 64, 69
1, 349055, Control_c, 0, 64, 38
1, 349066, Note_on_c, 0, 84, 110
1, 349066, Note_on_c, 0, 96, 103
1, 349070, Control_c, 0, 64, 31
1, 349072, Note_on_c, 0, 89, 91
1, 349075, Note_on_c, 0, 71, 54
1, 349085, Control_c, 0, 64, 56
1, 349100, Control_c, 0, 64, 72
1, 349111, Note_off_c, 0, 89, 58
1, 349114, Control_c, 0, 64, 127
1, 349142, Note_off_c, 0, 69, 64
1, 349146, Note_off_c, 0, 65, 62
1, 349183, Note_off_c, 0, 75, 65
1, 349192, Note_off_c, 0, 96, 45
1, 349205, Note_off_c, 0, 71, 0
1, 349243, Poly_aftertouch_c, 0, 71, 127
1, 349290, Note_off_c, 0, 84, 0
1, 349294, Poly_aftertouch_c, 0, 71, 0
1, 349305, Note_on_c, 0, 76, 95
1, 349308, Note_on_c, 0, 64, 85
1, 349311, Note_on_c, 0, 88, 99
1, 349327, Poly_aftertouch_c, 0, 84, 127
1, 349331, Poly_aftertouch_c, 0, 71, 127
1, 349338, Poly_aftertouch_c, 0, 84, 0
1, 349358, Note_off_c, 0, 76, 66
1, 349360, Note_off_c, 0, 64, 65
1, 349376, Poly_aftertouch_c, 0, 71, 0
1, 349481, Note_on_c, 0, 75, 100
1, 349483, Note_on_c, 0, 87, 100
1, 349487, Note_on_c, 0, 63, 90
1, 349510, Note_off_c, 0, 88, 60
1, 349526, Note_off_c, 0, 75, 64
1, 349533, Note_off_c, 0, 63, 63
1, 349612, Note_on_c, 0, 72, 98
1, 349617, Note_on_c, 0, 84, 87
1, 349651, Note_on_c, 0, 59, 62
1, 349651, Note_on_c, 0, 60, 63
1, 349663, Note_off_c, 0, 87, 61
1, 349669, Note_off_c, 0, 72, 66
1, 349679, Note_off_c, 0, 59, 64
1, 349681, Note_off_c, 0, 60, 66
1, 349741, Note_off_c, 0, 84, 63
1, 349747, Note_on_c, 0, 65, 91
1, 349747, Note_on_c, 0, 71, 102
1, 349750, Note_on_c, 0, 59, 80
1, 349756, Note_on_c, 0, 68, 93
1, 349758, Control_c, 0, 64, 77
1, 349773, Control_c, 0, 64, 40
1, 349788, Control_c, 0, 64, 0
1, 349797, Note_off_c, 0, 71, 65
1, 349798, Note_off_c, 0, 59, 65
1, 349817, Note_on_c, 0, 86, 76
1, 349818, Control_c, 0, 64, 29
1, 349823, Note_on_c, 0, 74, 80
1, 349823, Note_off_c, 0, 65, 63
1, 349833, Control_c, 0, 64, 60
1, 349843, Note_off_c, 0, 68, 63
1, 349846, Note_on_c, 0, 76, 61
1, 349848, Control_c, 0, 64, 70
1, 349863, Control_c, 0, 64, 96
1, 349867, Note_off_c, 0, 76, 42
1, 349878, Control_c, 0, 64, 127
1, 349900, Note_off_c, 0, 74, 53
1, 349902, Note_off_c, 0, 86, 52
1, 349924, Note_on_c, 0, 70, 96
1, 349931, Note_on_c, 0, 58, 79
1, 349951, Note_on_c, 0, 82, 77
1, 349956, Note_off_c, 0, 58, 69
1, 349960, Note_off_c, 0, 70, 64
1, 350041, Note_on_c, 0, 68, 105
1, 350054, Note_on_c, 0, 56, 87
1, 350061, Note_off_c, 0, 82, 59
1, 350068, Note_on_c, 0, 80, 80
1, 350074, Note_off_c, 0, 56, 71
1, 350080, Note_off_c, 0, 68, 65
1, 350153, Note_on_c, 0, 65, 95
1, 350161, Note_on_c, 0, 77, 89
1, 350179, Note_off_c, 0, 80, 62
1, 350182, Note_on_c, 0, 53, 52
1, 350191, Note_off_c, 0, 65, 67
1, 350209, Note_off_c, 0, 53, 57
1, 350229, Note_off_c, 0, 77, 64
1, 350254, Note_on_c, 0, 61, 83
1, 350255, Note_on_c, 0, 64, 95
1, 350260, Note_on_c, 0, 58, 91
1, 350271, Note_on_c, 0, 52, 57
1, 350276, Control_c, 0, 64, 72
1, 350290, Note_off_c, 0, 64, 68
1, 350291, Control_c, 0, 64, 47
1, 350294, Note_off_c, 0, 52, 60
1, 350302, Note_on_c, 0, 79, 75
1, 350304, Note_on_c, 0, 53, 33
1, 350305, Note_off_c, 0, 53, 127
1, 350306, Control_c, 0, 64, 9
1, 350318, Note_on_c, 0, 67, 79
1, 350321, Control_c, 0, 64, 24
1, 350328, Note_off_c, 0, 58, 64
1, 350328, Note_off_c, 0, 61, 62
1, 350335, Control_c, 0, 64, 52
1, 350350, Control_c, 0, 64, 65
1, 350365, Control_c, 0, 64, 77
1, 350387, Control_c, 0, 64, 110
1, 350390, Note_on_c, 0, 63, 93
1, 350395, Note_off_c, 0, 67, 53
1, 350402, Control_c, 0, 64, 127
1, 350404, Note_on_c, 0, 51, 78
1, 350411, Note_on_c, 0, 75, 78
1, 350429, Note_off_c, 0, 51, 64
1, 350431, Note_off_c, 0, 79, 28
1, 350434, Note_off_c, 0, 63, 61
1, 350503, Note_on_c, 0, 61, 96
1, 350514, Note_on_c, 0, 49, 82
1, 350516, Note_on_c, 0, 73, 79
1, 350535, Note_off_c, 0, 61, 68
1, 350536, Note_off_c, 0, 75, 57
1, 350539, Note_off_c, 0, 49, 68
1, 350593, Note_on_c, 0, 70, 90
1, 350600, Note_on_c, 0, 58, 95
1, 350604, Note_off_c, 0, 73, 62
1, 350626, Note_on_c, 0, 56, 63
1, 350633, Note_on_c, 0, 46, 41
1, 350647, Note_off_c, 0, 56, 63
1, 350652, Note_off_c, 0, 58, 62
1, 350653, Note_off_c, 0, 70, 62
1, 350666, Note_off_c, 0, 46, 55
1, 350685, Control_c, 0, 64, 95
1, 350691, Note_on_c, 0, 52, 77
1, 350694, Note_on_c, 0, 57, 103
1, 350700, Control_c, 0, 64, 63
1, 350706, Note_on_c, 0, 45, 80
1, 350714, Control_c, 0, 64, 49
1, 350715, Note_on_c, 0, 47, 32
1, 350722, Note_on_c, 0, 48, 49
1, 350729, Note_on_c, 0, 61, 88
1, 350729, Control_c, 0, 64, 52
1, 350737, Note_on_c, 0, 73, 61
1, 350738, Note_off_c, 0, 45, 67
1, 350739, Note_off_c, 0, 57, 67
1, 350744, Control_c, 0, 64, 61
1, 350748, Note_off_c, 0, 47, 45
1, 350748, Note_off_c, 0, 48, 59
1, 350758, Control_c, 0, 64, 72
1, 350770, Note_off_c, 0, 73, 66
1, 350773, Control_c, 0, 64, 127
1, 350774, Note_off_c, 0, 52, 65
1, 350806, Note_on_c, 0, 56, 98
1, 350814, Note_on_c, 0, 44, 82
1, 350815, Note_off_c, 0, 61, 60
1, 350834, Note_on_c, 0, 68, 88
1, 350846, Note_off_c, 0, 56, 67
1, 350847, Note_off_c, 0, 44, 65
1, 350907, Note_off_c, 0, 68, 60
1, 350915, Note_on_c, 0, 55, 95
1, 350918, Note_on_c, 0, 53, 88
1, 350925, Note_on_c, 0, 41, 70
1, 350933, Note_on_c, 0, 67, 77
1, 350939, Note_on_c, 0, 43, 62
1, 350942, Note_off_c, 0, 53, 67
1, 350951, Note_off_c, 0, 55, 64
1, 350954, Note_off_c, 0, 41, 66
1, 350963, Note_off_c, 0, 43, 60
1, 351013, Note_on_c, 0, 52, 91
1, 351013, Note_on_c, 0, 53, 82
1, 351019, Note_on_c, 0, 64, 86
1, 351022, Note_on_c, 0, 40, 79
1, 351022, Note_off_c, 0, 67, 62
1, 351044, Note_on_c, 0, 45, 63
1, 351047, Note_off_c, 0, 40, 66
1, 351053, Note_off_c, 0, 53, 67
1, 351054, Note_off_c, 0, 52, 68
1, 351069, Note_off_c, 0, 64, 66
1, 351076, Note_on_c, 0, 43, 34
1, 351099, Control_c, 0, 64, 89
1, 351114, Control_c, 0, 64, 61
1, 351127, Note_on_c, 0, 51, 101
1, 351136, Control_c, 0, 64, 23
1, 351140, Note_on_c, 0, 39, 86
1, 351151, Control_c, 0, 64, 27
1, 351160, Note_off_c, 0, 43, 48
1, 351165, Control_c, 0, 64, 53
1, 351175, Note_off_c, 0, 45, 64
1, 351175, Note_off_c, 0, 51, 65
1, 351179, Note_on_c, 0, 54, 80
1, 351180, Control_c, 0, 64, 67
1, 351186, Note_on_c, 0, 66, 58
1, 351190, Note_on_c, 0, 38, 22
1, 351192, Note_off_c, 0, 39, 60
1, 351195, Note_on_c, 0, 53, 73
1, 351195, Control_c, 0, 64, 88
1, 351210, Note_off_c, 0, 54, 66
1, 351210, Control_c, 0, 64, 127
1, 351227, Note_off_c, 0, 66, 62
1, 351228, Note_off_c, 0, 53, 59
1, 351246, Note_off_c, 0, 38, 0
1, 351258, Note_on_c, 0, 38, 69
1, 351260, Note_on_c, 0, 50, 96
1, 351283, Note_on_c, 0, 62, 73
1, 351301, Note_off_c, 0, 50, 66
1, 351314, Note_off_c, 0, 38, 63
1, 351390, Note_on_c, 0, 48, 94
1, 351391, Note_on_c, 0, 36, 93
1, 351398, Note_on_c, 0, 47, 84
1, 351419, Note_off_c, 0, 47, 58
1, 351422, Note_on_c, 0, 60, 79
1, 351428, Note_off_c, 0, 48, 66
1, 351436, Note_off_c, 0, 36, 65
1, 351473, Note_off_c, 0, 62, 29
1, 351511, Note_on_c, 0, 45, 102
1, 351522, Note_on_c, 0, 43, 79
1, 351522, Note_on_c, 0, 57, 73
1, 351522, Note_off_c, 0, 60, 65
1, 351523, Note_on_c, 0, 33, 78
1, 351523, Note_on_c, 0, 31, 80
1, 351547, Note_off_c, 0, 43, 56
1, 351553, Note_off_c, 0, 31, 64
1, 351554, Note_off_c, 0, 45, 65
1, 351557, Note_off_c, 0, 33, 65
1, 351562, Note_off_c, 0, 57, 64
1, 351641, Control_c, 0, 64, 87
1, 351654, Note_on_c, 0, 42, 106
1, 351655, Control_c, 0, 64, 60
1, 351660, Note_on_c, 0, 30, 89
1, 351670, Control_c, 0, 64, 0
1, 351685, Control_c, 0, 64, 19
1, 351697, Note_on_c, 0, 59, 83
1, 351700, Control_c, 0, 64, 46
1, 351713, Note_off_c, 0, 42, 61
1, 351714, Control_c, 0, 64, 65
1, 351726, Note_off_c, 0, 30, 61
1, 351729, Control_c, 0, 64, 83
1, 351744, Control_c, 0, 64, 127
1, 351820, Note_on_c, 0, 41, 103
1, 351828, Note_on_c, 0, 29, 80
1, 351832, Note_on_c, 0, 28, 87
1, 351833, Note_off_c, 0, 59, 62
1, 351840, Note_on_c, 0, 40, 63
1, 351848, Control_c, 0, 64, 92
1, 351863, Control_c, 0, 64, 64
1, 351863, Note_off_c, 0, 40, 63
1, 351884, Note_off_c, 0, 41, 64
1, 351885, Control_c, 0, 64, 46
1, 351889, Note_off_c, 0, 28, 56
1, 351900, Control_c, 0, 64, 52
1, 351913, Note_on_c, 0, 53, 93
1, 351914, Note_off_c, 0, 29, 62
1, 351914, Control_c, 0, 64, 64
1, 351929, Control_c, 0, 64, 81
1, 351944, Control_c, 0, 64, 127
1, 352039, Note_on_c, 0, 39, 99
1, 352043, Note_on_c, 0, 27, 95
1, 352052, Note_on_c, 0, 37, 74
1, 352072, Note_on_c, 0, 26, 56
1, 352077, Note_off_c, 0, 37, 62
1, 352081, Note_off_c, 0, 39, 67
1, 352107, Note_off_c, 0, 26, 57
1, 352110, Note_off_c, 0, 27, 58
1, 352144, Note_on_c, 0, 51, 91
1, 352259, Note_off_c, 0, 53, 48
1, 352272, Note_on_c, 0, 36, 104
1, 352278, Note_on_c, 0, 24, 94
1, 352308, Note_off_c, 0, 24, 66
1, 352309, Note_off_c, 0, 36, 66
1, 352314, Note_on_c, 0, 48, 83
1, 352337, Note_off_c, 0, 51, 64
1, 352361, Note_off_c, 0, 48, 64
1, 352583, Control_c, 0, 64, 85
1, 352596, Note_on_c, 0, 26, 37
1, 352598, Control_c, 0, 64, 40
1, 352599, Note_on_c, 0, 58, 93
1, 352601, Note_on_c, 0, 46, 98
1, 352604, Note_on_c, 0, 53, 84
1, 352607, Note_on_c, 0, 34, 114
1, 352612, Control_c, 0, 64, 0
1, 352614, Note_on_c, 0, 22, 91
1, 352644, Note_off_c, 0, 26, 60
1, 352651, Note_off_c, 0, 22, 65
1, 352665, Control_c, 0, 64, 25
1, 352667, Note_off_c, 0, 46, 66
1, 352670, Note_off_c, 0, 34, 65
1, 352677, Note_off_c, 0, 58, 65
1, 352680, Control_c, 0, 64, 66
1, 352682, Note_off_c, 0, 53, 67
1, 352694, Control_c, 0, 64, 94
1, 352709, Control_c, 0, 64, 127
1, 353171, Note_on_c, 0, 62, 89
1, 353172, Note_on_c, 0, 53, 85
1, 353172, Note_on_c, 0, 65, 92
1, 353174, Note_on_c, 0, 77, 104
1, 353175, Note_on_c, 0, 82, 99
1, 353176, Note_on_c, 0, 58, 84
1, 353176, Note_on_c, 0, 89, 99
1, 353467, Note_off_c, 0, 65, 65
1, 353476, Note_off_c, 0, 53, 65
1, 353500, Note_off_c, 0, 62, 65
1, 353505, Note_off_c, 0, 58, 66
1, 353510, Note_off_c, 0, 82, 62
1, 353568, Note_off_c, 0, 89, 57
1, 353637, Note_off_c, 0, 77, 36
1, 353791, Note_on_c, 0, 62, 83
1, 353793, Note_on_c, 0, 53, 83
1, 353797, Note_on_c, 0, 89, 97
1, 353798, Note_on_c, 0, 81, 100
1, 353798, Note_on_c, 0, 67, 86
1, 353799, Note_on_c, 0, 65, 91
1, 353800, Note_on_c, 0, 58, 90
1, 353801, Note_on_c, 0, 57, 77
1, 353801, Note_on_c, 0, 82, 93
1, 353801, Note_on_c, 0, 77, 102
1, 353814, Note_on_c, 0, 86, 77
1, 353896, Note_off_c, 0, 67, 65
1, 353988, Note_off_c, 0, 57, 64
1, 354009, Note_off_c, 0, 53, 63
1, 354061, Note_off_c, 0, 81, 61
1, 354077, Note_off_c, 0, 82, 56
1, 354115, Note_off_c, 0, 89, 47
1, 354128, Note_off_c, 0, 58, 55
1, 354152, Note_off_c, 0, 65, 56
1, 354194, Note_off_c, 0, 62, 60
1, 354212, Note_off_c, 0, 77, 60
1, 354247, Note_off_c, 0, 86, 62
1, 354272, Note_on_c, 0, 89, 84
1, 354275, Note_on_c, 0, 62, 84
1, 354275, Note_on_c, 0, 77, 98
1, 354276, Note_on_c, 0, 80, 97
1, 354277, Note_on_c, 0, 53, 75
1, 354277, Note_on_c, 0, 65, 95
1, 354284, Note_on_c, 0, 82, 95
1, 354291, Note_on_c, 0, 58, 79
1, 354299, Note_on_c, 0, 56, 57
1, 354306, Note_off_c, 0, 77, 69
1, 354309, Note_off_c, 0, 65, 64
1, 354310, Note_off_c, 0, 89, 64
1, 354320, Note_off_c, 0, 62, 66
1, 354320, Note_off_c, 0, 82, 67
1, 354322, Note_off_c, 0, 80, 68
1, 354337, Note_off_c, 0, 58, 65
1, 354339, Note_off_c, 0, 56, 66
1, 354341, Note_off_c, 0, 53, 65
1, 354606, Control_c, 0, 64, 70
1, 354621, Control_c, 0, 64, 0
1, 354626, Note_on_c, 0, 55, 105
1, 354629, Note_on_c, 0, 33, 83
1, 354629, Note_on_c, 0, 45, 89
1, 354677, Note_off_c, 0, 33, 63
1, 354680, Note_off_c, 0, 45, 66
1, 354680, Control_c, 0, 64, 48
1, 354687, Note_on_c, 0, 40, 18
1, 354695, Control_c, 0, 64, 70
1, 354710, Control_c, 0, 64, 103
1, 354719, Note_off_c, 0, 55, 66
1, 354725, Control_c, 0, 64, 127
1, 354736, Note_off_c, 0, 40, 49
1, 355033, Note_on_c, 0, 83, 97
1, 355035, Note_on_c, 0, 66, 85
1, 355038, Note_on_c, 0, 67, 95
1, 355039, Note_on_c, 0, 55, 78
1, 355042, Note_on_c, 0, 71, 99
1, 355043, Note_on_c, 0, 78, 94
1, 355046, Note_on_c, 0, 61, 79
1, 355046, Note_on_c, 0, 73, 91
1, 355053, Note_on_c, 0, 58, 73
1, 355124, Poly_aftertouch_c, 0, 57, 127
1, 355156, Poly_aftertouch_c, 0, 57, 0
1, 355278, Note_off_c, 0, 78, 64
1, 355383, Note_off_c, 0, 83, 55
1, 355387, Note_off_c, 0, 66, 62
1, 355416, Note_off_c, 0, 73, 56
1, 355440, Note_off_c, 0, 55, 55
1, 355449, Note_off_c, 0, 67, 58
1, 355457, Note_off_c, 0, 61, 51
1, 355475, Note_off_c, 0, 71, 48
1, 355535, Note_off_c, 0, 58, 52
1, 355577, Note_on_c, 0, 55, 80
1, 355577, Note_on_c, 0, 67, 95
1, 355578, Note_on_c, 0, 65, 87
1, 355580, Note_on_c, 0, 58, 52
1, 355580, Note_on_c, 0, 73, 94
1, 355580, Note_on_c, 0, 83, 92
1, 355581, Note_on_c, 0, 77, 92
1, 355583, Note_on_c, 0, 71, 97
1, 355584, Note_on_c, 0, 61, 81
1, 355822, Note_on_c, 0, 79, 20
1, 355869, Note_off_c, 0, 77, 59
1, 355882, Note_off_c, 0, 65, 52
1, 355905, Note_off_c, 0, 67, 51
1, 355920, Note_off_c, 0, 73, 57
1, 355921, Note_off_c, 0, 83, 53
1, 355997, Note_off_c, 0, 61, 28
1, 356006, Note_off_c, 0, 71, 53
1, 356061, Note_off_c, 0, 55, 0
1, 356061, Note_on_c, 0, 55, 45
1, 356075, Note_on_c, 0, 67, 87
1, 356081, Note_on_c, 0, 83, 85
1, 356081, Note_on_c, 0, 61, 77
1, 356082, Note_on_c, 0, 64, 84
1, 356082, Note_on_c, 0, 73, 99
1, 356084, Note_off_c, 0, 58, 0
1, 356084, Note_on_c, 0, 58, 23
1, 356086, Note_on_c, 0, 76, 88
1, 356087, Note_on_c, 0, 71, 95
1, 356103, Note_off_c, 0, 67, 68
1, 356106, Note_off_c, 0, 79, 0
1, 356106, Note_on_c, 0, 79, 11
1, 356112, Note_off_c, 0, 83, 62
1, 356114, Note_off_c, 0, 64, 65
1, 356115, Note_off_c, 0, 55, 64
1, 356119, Note_off_c, 0, 58, 65
1, 356122, Note_off_c, 0, 71, 59
1, 356127, Note_off_c, 0, 61, 65
1, 356127, Note_off_c, 0, 76, 67
1, 356139, Note_off_c, 0, 73, 66
1, 356152, Note_off_c, 0, 79, 38
1, 356424, Control_c, 0, 64, 94
1, 356436, Note_on_c, 0, 58, 90
1, 356438, Note_on_c, 0, 46, 97
1, 356439, Control_c, 0, 64, 60
1, 356447, Note_on_c, 0, 53, 79
1, 356452, Note_on_c, 0, 22, 82
1, 356453, Note_on_c, 0, 34, 94
1, 356453, Control_c, 0, 64, 0
1, 356483, Control_c, 0, 64, 48
1, 356498, Control_c, 0, 64, 67
1, 356502, Note_off_c, 0, 46, 66
1, 356503, Note_off_c, 0, 22, 63
1, 356507, Note_off_c, 0, 58, 66
1, 356513, Control_c, 0, 64, 92
1, 356518, Note_off_c, 0, 53, 65
1, 356522, Note_off_c, 0, 34, 61
1, 356527, Control_c, 0, 64, 127
1, 356885, Note_on_c, 0, 58, 86
1, 356885, Note_on_c, 0, 65, 84
1, 356885, Note_on_c, 0, 77, 102
1, 356886, Note_on_c, 0, 70, 94
1, 356890, Note_on_c, 0, 53, 77
1, 356893, Note_on_c, 0, 46, 71
1, 356901, Note_on_c, 0, 50, 71
1, 357144, Note_off_c, 0, 58, 62
1, 357158, Note_off_c, 0, 70, 61
1, 357171, Note_off_c, 0, 46, 59
1, 357179, Note_off_c, 0, 77, 57
1, 357217, Note_off_c, 0, 50, 61
1, 357267, Note_off_c, 0, 65, 44
1, 357294, Note_off_c, 0, 53, 51
1, 357415, Note_on_c, 0, 57, 83
1, 357417, Note_on_c, 0, 45, 76
1, 357417, Note_on_c, 0, 65, 88
1, 357418, Note_on_c, 0, 77, 89
1, 357419, Note_on_c, 0, 69, 86
1, 357419, Note_on_c, 0, 70, 85
1, 357422, Note_on_c, 0, 53, 82
1, 357428, Note_on_c, 0, 74, 68
1, 357428, Note_on_c, 0, 50, 70
1, 357454, Control_c, 0, 64, 72
1, 357469, Control_c, 0, 64, 41
1, 357483, Control_c, 0, 64, 0
1, 357513, Control_c, 0, 64, 47
1, 357527, Control_c, 0, 64, 64
1, 357542, Control_c, 0, 64, 74
1, 357557, Control_c, 0, 64, 94
1, 357572, Control_c, 0, 64, 127
1, 357630, Note_off_c, 0, 45, 62
1, 357649, Note_off_c, 0, 57, 63
1, 357681, Note_off_c, 0, 69, 64
1, 357709, Note_off_c, 0, 77, 60
1, 357766, Note_off_c, 0, 70, 61
1, 357817, Note_off_c, 0, 65, 50
1, 357857, Note_off_c, 0, 74, 55
1, 357860, Note_on_c, 0, 56, 81
1, 357874, Note_on_c, 0, 44, 63
1, 357890, Note_on_c, 0, 77, 87
1, 357893, Note_on_c, 0, 65, 83
1, 357899, Note_on_c, 0, 68, 88
1, 357920, Note_off_c, 0, 50, 63
1, 357921, Note_off_c, 0, 56, 65
1, 357926, Note_off_c, 0, 53, 65
1, 357935, Note_off_c, 0, 77, 67
1, 357941, Note_off_c, 0, 65, 65
1, 357950, Note_off_c, 0, 68, 65
1, 357960, Note_off_c, 0, 44, 62
1, 358223, Note_on_c, 0, 55, 91
1, 358229, Note_on_c, 0, 45, 64
1, 358239, Note_on_c, 0, 33, 66
1, 358247, Control_c, 0, 64, 74
1, 358262, Control_c, 0, 64, 46
1, 358276, Control_c, 0, 64, 0
1, 358305, Control_c, 0, 64, 17
1, 358320, Control_c, 0, 64, 56
1, 358335, Control_c, 0, 64, 69
1, 358349, Control_c, 0, 64, 86
1, 358358, Note_off_c, 0, 33, 63
1, 358364, Control_c, 0, 64, 127
1, 358377, Note_off_c, 0, 55, 64
1, 358388, Note_off_c, 0, 45, 64
1, 358626, Note_on_c, 0, 71, 90
1, 358642, Note_on_c, 0, 66, 74
1, 358644, Note_on_c, 0, 55, 59
1, 358646, Note_on_c, 0, 54, 63
1, 358647, Note_on_c, 0, 45, 50
1, 358651, Note_on_c, 0, 59, 64
1, 358654, Control_c, 0, 64, 83
1, 358656, Note_on_c, 0, 61, 62
1, 358669, Control_c, 0, 64, 65
1, 358684, Control_c, 0, 64, 57
1, 358699, Control_c, 0, 64, 60
1, 358714, Control_c, 0, 64, 64
1, 358728, Control_c, 0, 64, 72
1, 358743, Control_c, 0, 64, 87
1, 358758, Control_c, 0, 64, 127
1, 358886, Note_off_c, 0, 66, 62
1, 358930, Note_off_c, 0, 54, 61
1, 358956, Note_off_c, 0, 55, 59
1, 358966, Note_off_c, 0, 45, 55
1, 358968, Note_off_c, 0, 71, 57
1, 359047, Note_off_c, 0, 59, 48
1, 359051, Note_off_c, 0, 61, 59
1, 359175, Note_on_c, 0, 71, 83
1, 359184, Note_on_c, 0, 55, 49
1, 359190, Note_on_c, 0, 53, 53
1, 359192, Note_on_c, 0, 61, 59
1, 359193, Note_on_c, 0, 59, 57
1, 359210, Note_on_c, 0, 45, 45
1, 359216, Note_on_c, 0, 65, 47
1, 359218, Control_c, 0, 64, 116
1, 359233, Control_c, 0, 64, 70
1, 359248, Control_c, 0, 64, 26
1, 359263, Control_c, 0, 64, 0
1, 359351, Control_c, 0, 64, 53
1, 359374, Control_c, 0, 64, 61
1, 359389, Control_c, 0, 64, 63
1, 359403, Control_c, 0, 64, 65
1, 359418, Control_c, 0, 64, 68
1, 359433, Control_c, 0, 64, 75
1, 359435, Note_off_c, 0, 65, 58
1, 359448, Control_c, 0, 64, 100
1, 359463, Control_c, 0, 64, 127
1, 359476, Note_off_c, 0, 45, 53
1, 359476, Note_off_c, 0, 53, 61
1, 359504, Note_off_c, 0, 71, 52
1, 359507, Note_off_c, 0, 55, 47
1, 359518, Note_off_c, 0, 59, 52
1, 359523, Note_off_c, 0, 61, 50
1, 359721, Note_on_c, 0, 71, 72
1, 359730, Control_c, 0, 64, 111
1, 359733, Note_on_c, 0, 64, 50
1, 359738, Note_on_c, 0, 45, 43
1, 359741, Note_on_c, 0, 52, 44
1, 359744, Control_c, 0, 64, 71
1, 359750, Note_on_c, 0, 59, 55
1, 359759, Control_c, 0, 64, 54
1, 359759, Note_on_c, 0, 55, 32
1, 359763, Note_on_c, 0, 61, 38
1, 359774, Control_c, 0, 64, 43
1, 359789, Control_c, 0, 64, 47
1, 359803, Control_c, 0, 64, 56
1, 359818, Control_c, 0, 64, 66
1, 359833, Control_c, 0, 64, 75
1, 359846, Note_off_c, 0, 64, 64
1, 359848, Control_c, 0, 64, 97
1, 359855, Note_off_c, 0, 55, 60
1, 359856, Note_off_c, 0, 61, 60
1, 359861, Note_off_c, 0, 52, 65
1, 359863, Control_c, 0, 64, 127
1, 359865, Note_off_c, 0, 71, 63
1, 359879, Note_off_c, 0, 45, 63
1, 359898, Note_off_c, 0, 59, 64
1, 360235, Note_on_c, 0, 22, 42
1, 360241, Control_c, 0, 64, 122
1, 360249, Note_on_c, 0, 34, 40
1, 360256, Control_c, 0, 64, 77
1, 360257, Note_on_c, 0, 46, 53
1, 360271, Control_c, 0, 64, 63
1, 360286, Control_c, 0, 64, 54
1, 360300, Control_c, 0, 64, 57
1, 360315, Control_c, 0, 64, 62
1, 360330, Control_c, 0, 64, 68
1, 360345, Control_c, 0, 64, 79
1, 360360, Control_c, 0, 64, 109
1, 360374, Control_c, 0, 64, 127
1, 360425, Note_off_c, 0, 46, 62
1, 360440, Note_off_c, 0, 22, 39
1, 360469, Note_off_c, 0, 34, 40
1, 360892, Note_on_c, 0, 65, 52
1, 360902, Note_on_c, 0, 58, 48
1, 360904, Note_on_c, 0, 62, 43
1, 360918, Note_on_c, 0, 46, 35
1, 360919, Note_on_c, 0, 50, 27
1, 360925, Note_on_c, 0, 53, 26
1, 360943, Note_on_c, 0, 41, 29
1, 361226, Note_off_c, 0, 62, 62
1, 361250, Note_off_c, 0, 58, 54
1, 361267, Note_off_c, 0, 65, 59
1, 361273, Note_off_c, 0, 41, 41
1, 361304, Note_off_c, 0, 46, 48
1, 361309, Note_off_c, 0, 53, 41
1, 361332, Note_off_c, 0, 50, 39
1, 361503, Note_on_c, 0, 65, 75
1, 361514, Note_on_c, 0, 50, 43
1, 361514, Note_on_c, 0, 62, 58
1, 361517, Note_on_c, 0, 53, 49
1, 361529, Note_on_c, 0, 58, 56
1, 361535, Note_on_c, 0, 41, 42
1, 361538, Note_on_c, 0, 57, 59
1, 361542, Note_on_c, 0, 45, 46
1, 361561, Note_on_c, 0, 46, 32
1, 361679, Note_off_c, 0, 45, 61
1, 361730, Note_off_c, 0, 58, 62
1, 361736, Note_off_c, 0, 65, 53
1, 361741, Note_off_c, 0, 62, 62
1, 361743, Note_off_c, 0, 57, 64
1, 361745, Note_off_c, 0, 41, 52
1, 361746, Note_off_c, 0, 46, 48
1, 361844, Note_off_c, 0, 50, 58
1, 361932, Note_off_c, 0, 53, 30
1, 361990, Note_on_c, 0, 46, 49
1, 361995, Note_on_c, 0, 53, 42
1, 362006, Note_on_c, 0, 41, 52
1, 362013, Note_on_c, 0, 50, 53
1, 362013, Note_on_c, 0, 62, 34
1, 362039, Note_on_c, 0, 65, 84
1, 362047, Note_on_c, 0, 56, 80
1, 362049, Note_on_c, 0, 58, 76
1, 362050, Note_off_c, 0, 53, 65
1, 362061, Note_off_c, 0, 41, 64
1, 362064, Note_on_c, 0, 44, 44
1, 362091, Note_off_c, 0, 50, 63
1, 362093, Note_off_c, 0, 46, 62
1, 362096, Note_off_c, 0, 44, 54
1, 362130, Note_off_c, 0, 56, 63
1, 362145, Note_off_c, 0, 62, 62
1, 362150, Note_off_c, 0, 58, 63
1, 362165, Note_off_c, 0, 65, 61
1, 362554, Note_on_c, 0, 56, 66
1, 362554, Note_on_c, 0, 62, 71
1, 362582, Note_on_c, 0, 71, 90
1, 362588, Note_on_c, 0, 59, 85
1, 362589, Note_on_c, 0, 65, 85
1, 362591, Control_c, 0, 64, 73
1, 362606, Control_c, 0, 64, 31
1, 362620, Control_c, 0, 64, 0
1, 362621, Note_on_c, 0, 67, 44
1, 362650, Control_c, 0, 64, 51
1, 362665, Control_c, 0, 64, 70
1, 362680, Control_c, 0, 64, 110
1, 362691, Note_off_c, 0, 62, 66
1, 362694, Control_c, 0, 64, 127
1, 362702, Note_off_c, 0, 67, 48
1, 362714, Note_off_c, 0, 56, 65
1, 362743, Note_off_c, 0, 59, 65
1, 362841, Note_off_c, 0, 65, 65
1, 362867, Note_off_c, 0, 71, 64
1, 362964, Note_on_c, 0, 34, 79
1, 363145, Poly_aftertouch_c, 0, 38, 127
1, 363157, Note_on_c, 0, 74, 80
1, 363161, Note_on_c, 0, 83, 92
1, 363166, Note_on_c, 0, 71, 89
1, 363170, Note_on_c, 0, 80, 93
1, 363217, Note_on_c, 0, 46, 68
1, 363253, Note_off_c, 0, 34, 61
1, 363270, Poly_aftertouch_c, 0, 38, 0
1, 363280, Note_off_c, 0, 46, 63
1, 363288, Poly_aftertouch_c, 0, 41, 0
1, 363321, Note_off_c, 0, 83, 59
1, 363337, Note_off_c, 0, 80, 65
1, 363348, Note_off_c, 0, 71, 62
1, 363375, Note_off_c, 0, 74, 57
1, 363498, Note_on_c, 0, 56, 81
1, 363552, Note_on_c, 0, 74, 24
1, 363575, Poly_aftertouch_c, 0, 79, 127
1, 363591, Note_off_c, 0, 74, 0
1, 363591, Note_on_c, 0, 74, 25
1, 363606, Note_on_c, 0, 82, 101
1, 363612, Note_on_c, 0, 70, 92
1, 363623, Poly_aftertouch_c, 0, 79, 0
1, 363642, Note_on_c, 0, 79, 17
1, 363651, Control_c, 0, 64, 85
1, 363666, Control_c, 0, 64, 73
1, 363681, Control_c, 0, 64, 71
1, 363696, Control_c, 0, 64, 73
1, 363710, Control_c, 0, 64, 80
1, 363725, Control_c, 0, 64, 107
1, 363740, Control_c, 0, 64, 127
1, 363820, Note_off_c, 0, 70, 65
1, 363912, Note_on_c, 0, 77, 20
1, 363913, Note_on_c, 0, 62, 71
1, 363920, Note_off_c, 0, 82, 60
1, 363980, Note_off_c, 0, 77, 36
1, 364129, Note_off_c, 0, 79, 42
1, 364139, Note_off_c, 0, 74, 0
1, 364139, Note_on_c, 0, 74, 14
1, 364144, Note_on_c, 0, 80, 87
1, 364159, Poly_aftertouch_c, 0, 77, 127
1, 364295, Poly_aftertouch_c, 0, 77, 0
1, 364332, Poly_aftertouch_c, 0, 77, 127
1, 364386, Note_on_c, 0, 70, 66
1, 364488, Note_off_c, 0, 70, 64
1, 364517, Note_off_c, 0, 56, 60
1, 364573, Note_off_c, 0, 62, 64
1, 364585, Note_off_c, 0, 74, 53
1, 364617, Note_off_c, 0, 80, 37
1, 364730, Poly_aftertouch_c, 0, 77, 0
1, 364993, Note_on_c, 0, 49, 38
1, 364994, Note_on_c, 0, 57, 46
1, 365002, Poly_aftertouch_c, 0, 78, 127
1, 365002, Poly_aftertouch_c, 0, 79, 127
1, 365053, Note_on_c, 0, 80, 85
1, 365061, Note_on_c, 0, 73, 57
1, 365062, Note_on_c, 0, 77, 58
1, 365072, Note_on_c, 0, 68, 58
1, 365074, Control_c, 0, 64, 84
1, 365089, Control_c, 0, 64, 68
1, 365104, Control_c, 0, 64, 64
1, 365119, Control_c, 0, 64, 65
1, 365134, Control_c, 0, 64, 71
1, 365149, Control_c, 0, 64, 82
1, 365163, Control_c, 0, 64, 127
1, 365386, Note_off_c, 0, 57, 60
1, 365414, Poly_aftertouch_c, 0, 79, 0
1, 365521, Note_off_c, 0, 49, 54
1, 365936, Note_on_c, 0, 30, 55
1, 365986, Control_c, 0, 64, 79
1, 366001, Control_c, 0, 64, 62
1, 366016, Control_c, 0, 64, 41
1, 366030, Control_c, 0, 64, 38
1, 366045, Control_c, 0, 64, 44
1, 366060, Control_c, 0, 64, 58
1, 366075, Control_c, 0, 64, 65
1, 366090, Control_c, 0, 64, 70
1, 366112, Control_c, 0, 64, 78
1, 366127, Control_c, 0, 64, 89
1, 366142, Control_c, 0, 64, 104
1, 366156, Control_c, 0, 64, 127
1, 366301, Note_on_c, 0, 42, 53
1, 366337, Note_off_c, 0, 30, 58
1, 366380, Note_off_c, 0, 42, 63
1, 366619, Note_on_c, 0, 49, 42
1, 366661, Note_off_c, 0, 77, 51
1, 366686, Poly_aftertouch_c, 0, 78, 0
1, 366703, Note_off_c, 0, 80, 59
1, 366805, Note_on_c, 0, 42, 48
1, 366821, Note_off_c, 0, 68, 58
1, 366874, Note_off_c, 0, 73, 63
1, 366899, Note_off_c, 0, 49, 26
1, 366985, Poly_aftertouch_c, 0, 76, 127
1, 366989, Note_on_c, 0, 49, 24
1, 367022, Note_off_c, 0, 42, 43
1, 367045, Note_on_c, 0, 78, 70
1, 367060, Note_on_c, 0, 73, 47
1, 367077, Note_on_c, 0, 66, 47
1, 367207, Note_off_c, 0, 49, 39
1, 367217, Note_on_c, 0, 57, 46
1, 367292, Note_off_c, 0, 57, 60
1, 367351, Note_off_c, 0, 66, 34
1, 367377, Poly_aftertouch_c, 0, 76, 0
1, 367645, Note_on_c, 0, 57, 37
1, 367646, Note_on_c, 0, 66, 34
1, 367650, Note_on_c, 0, 63, 44
1, 367712, Note_off_c, 0, 57, 63
1, 367716, Note_off_c, 0, 66, 59
1, 367725, Note_off_c, 0, 63, 59
1, 368227, Note_off_c, 0, 78, 60
1, 368370, Note_off_c, 0, 73, 49
1, 368447, Note_on_c, 0, 29, 32
1, 368701, Note_on_c, 0, 41, 41
1, 368800, Note_on_c, 0, 73, 52
1, 368814, Note_on_c, 0, 77, 56
1, 368826, Note_on_c, 0, 65, 42
1, 368836, Note_on_c, 0, 69, 39
1, 368863, Control_c, 0, 64, 84
1, 368878, Control_c, 0, 64, 64
1, 368893, Control_c, 0, 64, 44
1, 368908, Control_c, 0, 64, 36
1, 368922, Control_c, 0, 64, 39
1, 368937, Control_c, 0, 64, 51
1, 368952, Control_c, 0, 64, 62
1, 368967, Control_c, 0, 64, 67
1, 368982, Control_c, 0, 64, 72
1, 368997, Control_c, 0, 64, 79
1, 369010, Note_off_c, 0, 29, 52
1, 369011, Control_c, 0, 64, 86
1, 369026, Control_c, 0, 64, 94
1, 369041, Control_c, 0, 64, 109
1, 369055, Control_c, 0, 64, 127
1, 369061, Note_off_c, 0, 41, 64
1, 369239, Note_off_c, 0, 77, 52
1, 369292, Note_off_c, 0, 73, 37
1, 369325, Note_off_c, 0, 65, 49
1, 369408, Note_on_c, 0, 51, 36
1, 369634, Note_on_c, 0, 57, 39
1, 369668, Note_off_c, 0, 69, 0
1, 369690, Note_on_c, 0, 76, 43
1, 369705, Note_on_c, 0, 72, 43
1, 369705, Poly_aftertouch_c, 0, 69, 127
1, 369722, Note_on_c, 0, 64, 31
1, 369768, Note_off_c, 0, 57, 55
1, 369846, Note_off_c, 0, 76, 61
1, 369988, Note_off_c, 0, 64, 40
1, 370029, Note_off_c, 0, 72, 41
1, 370055, Poly_aftertouch_c, 0, 69, 0
1, 370102, Note_on_c, 0, 57, 34
1, 370330, Control_c, 0, 64, 120
1, 370345, Control_c, 0, 64, 115
1, 370359, Control_c, 0, 64, 112
1, 370374, Control_c, 0, 64, 110
1, 370389, Control_c, 0, 64, 109
1, 370404, Control_c, 0, 64, 108
1, 370411, Note_on_c, 0, 75, 43
1, 370416, Note_on_c, 0, 63, 25
1, 370419, Control_c, 0, 64, 108
1, 370425, Note_on_c, 0, 72, 37
1, 370438, Note_on_c, 0, 69, 31
1, 370449, Control_c, 0, 64, 107
1, 370479, Control_c, 0, 64, 107
1, 370582, Control_c, 0, 64, 106
1, 370649, Control_c, 0, 64, 106
1, 370678, Control_c, 0, 64, 105
1, 370693, Control_c, 0, 64, 105
1, 370915, Control_c, 0, 64, 100
1, 370925, Note_on_c, 0, 65, 34
1, 370930, Control_c, 0, 64, 84
1, 370945, Control_c, 0, 64, 72
1, 370960, Control_c, 0, 64, 65
1, 370974, Control_c, 0, 64, 64
1, 370989, Control_c, 0, 64, 66
1, 371004, Control_c, 0, 64, 70
1, 371019, Control_c, 0, 64, 78
1, 371033, Control_c, 0, 64, 91
1, 371048, Control_c, 0, 64, 106
1, 371063, Control_c, 0, 64, 119
1, 371093, Control_c, 0, 64, 116
1, 371108, Control_c, 0, 64, 117
1, 371123, Control_c, 0, 64, 127
1, 371135, Note_off_c, 0, 65, 47
1, 371188, Note_off_c, 0, 75, 59
1, 371219, Note_off_c, 0, 72, 60
1, 371245, Note_off_c, 0, 69, 42
1, 371258, Note_off_c, 0, 51, 40
1, 371260, Note_off_c, 0, 63, 40
1, 371267, Note_off_c, 0, 57, 50
1, 372172, Note_on_c, 0, 58, 35
1, 372189, Note_on_c, 0, 53, 32
1, 372214, Note_on_c, 0, 46, 9
1, 372220, Note_on_c, 0, 34, 28
1, 372221, Note_on_c, 0, 29, 25
1, 372257, Poly_aftertouch_c, 0, 22, 127
1, 372265, Control_c, 0, 64, 109
1, 372279, Control_c, 0, 64, 81
1, 372294, Control_c, 0, 64, 68
1, 372309, Control_c, 0, 64, 63
1, 372324, Control_c, 0, 64, 64
1, 372339, Control_c, 0, 64, 67
1, 372354, Control_c, 0, 64, 73
1, 372369, Control_c, 0, 64, 84
1, 372384, Control_c, 0, 64, 100
1, 372398, Control_c, 0, 64, 127
1, 372455, Note_off_c, 0, 46, 41
1, 372475, Note_off_c, 0, 29, 41
1, 372482, Poly_aftertouch_c, 0, 22, 0
1, 372515, Note_off_c, 0, 58, 63
1, 372515, Note_off_c, 0, 53, 45
1, 372565, Note_off_c, 0, 34, 41
1, 372876, Note_on_c, 0, 61, 34
1, 372881, Note_on_c, 0, 65, 36
1, 372902, Note_on_c, 0, 58, 29
1, 372902, Note_on_c, 0, 41, 4
1, 372907, Note_on_c, 0, 53, 15
1, 372914, Note_on_c, 0, 46, 22
1, 372917, Note_on_c, 0, 49, 14
1, 373049, Note_off_c, 0, 53, 44
1, 373131, Note_off_c, 0, 65, 35
1, 373162, Note_off_c, 0, 41, 42
1, 373180, Note_off_c, 0, 58, 38
1, 373184, Note_off_c, 0, 61, 40
1, 373256, Note_off_c, 0, 49, 32
1, 373260, Note_off_c, 0, 46, 49
1, 373561, Note_on_c, 0, 61, 39
1, 373572, Note_on_c, 0, 54, 39
1, 373596, Note_on_c, 0, 65, 41
1, 373613, Note_on_c, 0, 42, 35
1, 373625, Note_on_c, 0, 58, 29
1, 373630, Note_on_c, 0, 46, 25
1, 373630, Note_on_c, 0, 49, 23
1, 373632, Note_on_c, 0, 53, 25
1, 373767, Note_off_c, 0, 54, 40
1, 373865, Note_off_c, 0, 42, 41
1, 373879, Note_off_c, 0, 58, 37
1, 373892, Note_off_c, 0, 61, 36
1, 373920, Note_off_c, 0, 46, 40
1, 373922, Note_off_c, 0, 65, 39
1, 373934, Note_off_c, 0, 53, 42
1, 373965, Note_off_c, 0, 49, 41
1, 374181, Note_on_c, 0, 65, 48
1, 374195, Note_on_c, 0, 49, 40
1, 374205, Note_on_c, 0, 61, 38
1, 374207, Note_on_c, 0, 53, 43
1, 374217, Note_on_c, 0, 55, 40
1, 374229, Note_off_c, 0, 65, 61
1, 374238, Note_on_c, 0, 46, 10
1, 374243, Note_off_c, 0, 53, 63
1, 374250, Note_off_c, 0, 61, 62
1, 374251, Note_off_c, 0, 55, 61
1, 374260, Note_off_c, 0, 49, 62
1, 374282, Note_off_c, 0, 46, 41
1, 374308, Poly_aftertouch_c, 0, 58, 0
1, 374634, Note_on_c, 0, 44, 37
1, 374635, Note_on_c, 0, 68, 61
1, 374643, Note_on_c, 0, 65, 40
1, 374645, Control_c, 0, 64, 78
1, 374646, Note_on_c, 0, 56, 38
1, 374651, Note_on_c, 0, 37, 23
1, 374655, Note_on_c, 0, 41, 34
1, 374660, Control_c, 0, 64, 62
1, 374661, Note_on_c, 0, 61, 32
1, 374674, Control_c, 0, 64, 46
1, 374689, Control_c, 0, 64, 44
1, 374704, Control_c, 0, 64, 52
1, 374719, Control_c, 0, 64, 64
1, 374726, Poly_aftertouch_c, 0, 32, 127
1, 374734, Control_c, 0, 64, 73
1, 374749, Control_c, 0, 64, 97
1, 374759, Poly_aftertouch_c, 0, 32, 0
1, 374764, Control_c, 0, 64, 127
1, 374771, Note_off_c, 0, 41, 58
1, 374776, Poly_aftertouch_c, 0, 32, 0
1, 374776, Note_off_c, 0, 56, 63
1, 374786, Note_off_c, 0, 65, 63
1, 374795, Note_off_c, 0, 61, 61
1, 374803, Note_off_c, 0, 44, 54
1, 374805, Note_off_c, 0, 37, 35
1, 374814, Note_off_c, 0, 68, 62
1, 375020, Note_on_c, 0, 73, 49
1, 375021, Note_on_c, 0, 58, 39
1, 375045, Note_on_c, 0, 70, 47
1, 375047, Note_on_c, 0, 61, 29
1, 375057, Note_on_c, 0, 63, 40
1, 375070, Note_on_c, 0, 51, 45
1, 375111, Note_on_c, 0, 49, 33
1, 375271, Note_off_c, 0, 63, 59
1, 375317, Note_off_c, 0, 70, 53
1, 375384, Note_off_c, 0, 61, 37
1, 375393, Note_off_c, 0, 73, 34
1, 375406, Note_off_c, 0, 49, 32
1, 375418, Note_off_c, 0, 51, 50
1, 375421, Note_off_c, 0, 58, 35
1, 375592, Note_on_c, 0, 64, 44
1, 375597, Note_on_c, 0, 58, 31
1, 375601, Note_on_c, 0, 52, 39
1, 375601, Note_on_c, 0, 70, 42
1, 375603, Note_on_c, 0, 73, 43
1, 375606, Note_on_c, 0, 61, 29
1, 375622, Note_on_c, 0, 49, 27
1, 375783, Note_off_c, 0, 64, 62
1, 375825, Note_off_c, 0, 73, 57
1, 375842, Note_off_c, 0, 70, 55
1, 375853, Note_off_c, 0, 49, 39
1, 375879, Note_off_c, 0, 52, 54
1, 375880, Note_off_c, 0, 58, 41
1, 375884, Note_off_c, 0, 61, 38
1, 376119, Note_on_c, 0, 53, 42
1, 376124, Note_on_c, 0, 73, 49
1, 376128, Note_on_c, 0, 61, 37
1, 376134, Note_on_c, 0, 49, 37
1, 376139, Note_on_c, 0, 58, 36
1, 376166, Note_on_c, 0, 65, 19
1, 376168, Note_off_c, 0, 53, 60
1, 376173, Note_off_c, 0, 58, 59
1, 376178, Note_off_c, 0, 49, 63
1, 376181, Note_off_c, 0, 73, 63
1, 376206, Note_off_c, 0, 61, 61
1, 376208, Note_off_c, 0, 65, 43
1, 376489, Note_on_c, 0, 29, 39
1, 376512, Note_on_c, 0, 22, 39
1, 376536, Note_on_c, 0, 34, 36
1, 376577, Note_on_c, 0, 58, 55
1, 376581, Note_on_c, 0, 53, 43
1, 376583, Note_on_c, 0, 46, 49
1, 376594, Control_c, 0, 64, 91
1, 376609, Control_c, 0, 64, 65
1, 376624, Control_c, 0, 64, 44
1, 376639, Control_c, 0, 64, 42
1, 376653, Control_c, 0, 64, 49
1, 376668, Control_c, 0, 64, 61
1, 376683, Control_c, 0, 64, 73
1, 376684, Note_off_c, 0, 46, 64
1, 376698, Control_c, 0, 64, 102
1, 376706, Note_off_c, 0, 53, 60
1, 376713, Control_c, 0, 64, 127
1, 376717, Note_off_c, 0, 29, 49
1, 376737, Note_off_c, 0, 22, 40
1, 376748, Note_off_c, 0, 58, 63
1, 376775, Note_off_c, 0, 34, 39
1, 377028, Note_on_c, 0, 77, 50
1, 377052, Note_on_c, 0, 71, 45
1, 377054, Note_on_c, 0, 73, 53
1, 377057, Note_on_c, 0, 59, 35
1, 377072, Note_on_c, 0, 53, 32
1, 377072, Note_on_c, 0, 65, 29
1, 377105, Note_on_c, 0, 61, 34
1, 377293, Note_off_c, 0, 71, 62
1, 377317, Note_off_c, 0, 59, 56
1, 377324, Note_off_c, 0, 73, 59
1, 377355, Note_off_c, 0, 77, 50
1, 377379, Note_off_c, 0, 65, 38
1, 377421, Note_off_c, 0, 53, 41
1, 377502, Note_off_c, 0, 61, 38
1, 377690, Note_on_c, 0, 77, 51
1, 377694, Note_on_c, 0, 61, 15
1, 377714, Note_on_c, 0, 53, 36
1, 377718, Note_on_c, 0, 60, 35
1, 377721, Note_on_c, 0, 65, 37
1, 377721, Note_on_c, 0, 73, 42
1, 377745, Note_on_c, 0, 72, 30
1, 377886, Note_off_c, 0, 53, 57
1, 377892, Note_off_c, 0, 73, 61
1, 377901, Note_off_c, 0, 72, 53
1, 377902, Note_off_c, 0, 77, 48
1, 377913, Note_off_c, 0, 61, 41
1, 377945, Note_off_c, 0, 65, 40
1, 377961, Note_off_c, 0, 60, 64
1, 378207, Note_on_c, 0, 77, 47
1, 378208, Note_on_c, 0, 53, 36
1, 378210, Note_on_c, 0, 73, 42
1, 378215, Note_on_c, 0, 61, 45
1, 378226, Note_on_c, 0, 65, 43
1, 378253, Note_off_c, 0, 77, 61
1, 378256, Note_off_c, 0, 53, 61
1, 378259, Note_off_c, 0, 73, 63
1, 378269, Note_off_c, 0, 65, 62
1, 378271, Note_off_c, 0, 61, 58
1, 378583, Control_c, 0, 64, 98
1, 378589, Note_on_c, 0, 80, 56
1, 378593, Note_on_c, 0, 44, 27
1, 378597, Control_c, 0, 64, 69
1, 378600, Note_on_c, 0, 56, 22
1, 378605, Note_on_c, 0, 68, 40
1, 378611, Note_on_c, 0, 49, 29
1, 378612, Control_c, 0, 64, 55
1, 378617, Note_on_c, 0, 73, 35
1, 378627, Control_c, 0, 64, 49
1, 378632, Note_on_c, 0, 77, 19
1, 378642, Control_c, 0, 64, 54
1, 378657, Control_c, 0, 64, 63
1, 378671, Control_c, 0, 64, 71
1, 378681, Poly_aftertouch_c, 0, 53, 127
1, 378686, Control_c, 0, 64, 92
1, 378701, Control_c, 0, 64, 127
1, 378704, Note_off_c, 0, 44, 54
1, 378709, Note_off_c, 0, 77, 62
1, 378711, Note_off_c, 0, 68, 63
1, 378714, Note_off_c, 0, 49, 56
1, 378722, Note_off_c, 0, 73, 63
1, 378733, Note_off_c, 0, 80, 64
1, 378735, Poly_aftertouch_c, 0, 53, 0
1, 378745, Note_off_c, 0, 56, 55
1, 378950, Note_on_c, 0, 70, 47
1, 378964, Note_on_c, 0, 85, 47
1, 378971, Note_on_c, 0, 73, 42
1, 378979, Note_on_c, 0, 82, 46
1, 378996, Note_on_c, 0, 61, 32
1, 379000, Note_on_c, 0, 75, 36
1, 379018, Note_on_c, 0, 63, 42
1, 379207, Note_off_c, 0, 63, 57
1, 379225, Note_off_c, 0, 75, 38
1, 379287, Note_off_c, 0, 82, 37
1, 379318, Note_off_c, 0, 70, 33
1, 379338, Note_off_c, 0, 73, 34
1, 379360, Note_off_c, 0, 61, 37
1, 379366, Note_off_c, 0, 85, 33
1, 379532, Note_on_c, 0, 61, 20
1, 379565, Note_on_c, 0, 73, 21
1, 379571, Note_on_c, 0, 85, 26
1, 379576, Note_on_c, 0, 70, 11
1, 379590, Note_on_c, 0, 76, 42
1, 379591, Note_on_c, 0, 82, 37
1, 379595, Note_on_c, 0, 64, 28
1, 379714, Note_off_c, 0, 76, 63
1, 379725, Note_off_c, 0, 82, 57
1, 379753, Note_off_c, 0, 85, 36
1, 379764, Note_off_c, 0, 64, 52
1, 379766, Note_off_c, 0, 61, 41
1, 379772, Note_off_c, 0, 73, 39
1, 379807, Note_off_c, 0, 70, 41
1, 380117, Note_on_c, 0, 85, 44
1, 380147, Note_on_c, 0, 70, 36
1, 380150, Note_on_c, 0, 65, 34
1, 380151, Note_on_c, 0, 73, 21
1, 380159, Note_on_c, 0, 82, 28
1, 380163, Note_on_c, 0, 61, 24
1, 380183, Note_on_c, 0, 77, 6
1, 380196, Note_off_c, 0, 85, 63
1, 380199, Note_off_c, 0, 82, 53
1, 380206, Note_off_c, 0, 61, 49
1, 380208, Note_off_c, 0, 65, 61
1, 380208, Note_off_c, 0, 70, 62
1, 380210, Note_off_c, 0, 73, 58
1, 380231, Note_off_c, 0, 77, 42
1, 380691, Note_on_c, 0, 58, 45
1, 380693, Note_on_c, 0, 22, 23
1, 380694, Control_c, 0, 64, 87
1, 380709, Control_c, 0, 64, 66
1, 380715, Note_on_c, 0, 34, 13
1, 380723, Note_on_c, 0, 29, 20
1, 380724, Control_c, 0, 64, 54
1, 380731, Note_on_c, 0, 46, 19
1, 380733, Note_on_c, 0, 53, 33
1, 380739, Control_c, 0, 64, 52
1, 380754, Control_c, 0, 64, 55
1, 380768, Control_c, 0, 64, 63
1, 380784, Control_c, 0, 64, 70
1, 380799, Control_c, 0, 64, 86
1, 380813, Note_off_c, 0, 46, 60
1, 380814, Control_c, 0, 64, 127
1, 380826, Note_off_c, 0, 22, 50
1, 380868, Note_off_c, 0, 29, 34
1, 380876, Note_off_c, 0, 34, 41
1, 380878, Note_off_c, 0, 53, 36
1, 380882, Note_off_c, 0, 58, 61
1, 381348, Note_on_c, 0, 73, 32
1, 381350, Note_on_c, 0, 71, 30
1, 381359, Note_on_c, 0, 89, 38
1, 381367, Note_on_c, 0, 85, 33
1, 381368, Note_on_c, 0, 65, 26
1, 381389, Note_on_c, 0, 83, 27
1, 381418, Poly_aftertouch_c, 0, 77, 127
1, 381564, Note_off_c, 0, 65, 52
1, 381565, Note_off_c, 0, 71, 58
1, 381567, Note_off_c, 0, 73, 57
1, 381588, Poly_aftertouch_c, 0, 77, 0
1, 381594, Note_off_c, 0, 85, 52
1, 381597, Note_off_c, 0, 83, 56
1, 381609, Note_off_c, 0, 89, 49
1, 382073, Note_on_c, 0, 72, 38
1, 382086, Note_on_c, 0, 89, 38
1, 382114, Note_on_c, 0, 65, 30
1, 382115, Note_on_c, 0, 85, 29
1, 382116, Note_on_c, 0, 77, 23
1, 382122, Note_on_c, 0, 84, 34
1, 382166, Poly_aftertouch_c, 0, 73, 127
1, 382266, Note_off_c, 0, 65, 48
1, 382270, Poly_aftertouch_c, 0, 73, 0
1, 382271, Note_off_c, 0, 72, 58
1, 382290, Note_off_c, 0, 84, 51
1, 382302, Note_off_c, 0, 85, 42
1, 382312, Note_off_c, 0, 77, 42
1, 382324, Note_off_c, 0, 89, 41
1, 382811, Note_on_c, 0, 85, 32
1, 382814, Note_on_c, 0, 89, 43
1, 382826, Note_on_c, 0, 65, 28
1, 382838, Note_on_c, 0, 77, 20
1, 382855, Note_on_c, 0, 73, 31
1, 382913, Note_off_c, 0, 89, 61
1, 382927, Note_off_c, 0, 77, 60
1, 382939, Note_off_c, 0, 73, 60
1, 382954, Note_off_c, 0, 85, 46
1, 382975, Note_off_c, 0, 65, 34
1, 383309, Note_on_c, 0, 58, 44
1, 383390, Note_off_c, 0, 58, 54
1, 383430, Note_on_c, 0, 63, 45
1, 383507, Note_on_c, 0, 66, 45
1, 383755, Note_on_c, 0, 71, 66
1, 383824, Note_off_c, 0, 63, 39
1, 383970, Control_c, 0, 64, 88
1, 383986, Control_c, 0, 64, 69
1, 383995, Note_on_c, 0, 39, 29
1, 383997, Note_on_c, 0, 46, 35
1, 384000, Control_c, 0, 64, 63
1, 384015, Control_c, 0, 64, 63
1, 384030, Control_c, 0, 64, 67
1, 384045, Control_c, 0, 64, 73
1, 384060, Control_c, 0, 64, 86
1, 384082, Control_c, 0, 64, 112
1, 384097, Control_c, 0, 64, 127
1, 384252, Note_off_c, 0, 39, 42
1, 384282, Note_off_c, 0, 46, 41
1, 384293, Note_on_c, 0, 51, 55
1, 384410, Note_off_c, 0, 51, 32
1, 384511, Note_on_c, 0, 54, 44
1, 384554, Note_off_c, 0, 71, 58
1, 384628, Note_on_c, 0, 70, 64
1, 384641, Note_off_c, 0, 54, 45
1, 384641, Note_off_c, 0, 66, 62
1, 384657, Note_on_c, 0, 57, 49
1, 384691, Note_off_c, 0, 70, 63
1, 384781, Note_on_c, 0, 58, 60
1, 384781, Note_off_c, 0, 57, 63
1, 384814, Note_off_c, 0, 58, 65
1, 385055, Note_on_c, 0, 57, 61
1, 385112, Note_on_c, 0, 53, 49
1, 385112, Control_c, 0, 64, 97
1, 385127, Control_c, 0, 64, 71
1, 385142, Control_c, 0, 64, 58
1, 385157, Control_c, 0, 64, 56
1, 385172, Control_c, 0, 64, 59
1, 385187, Control_c, 0, 64, 65
1, 385201, Control_c, 0, 64, 74
1, 385216, Control_c, 0, 64, 96
1, 385231, Control_c, 0, 64, 127
1, 385241, Note_on_c, 0, 38, 34
1, 385254, Note_off_c, 0, 53, 63
1, 385263, Note_on_c, 0, 46, 45
1, 385312, Note_off_c, 0, 57, 65
1, 385383, Note_off_c, 0, 38, 34
1, 385497, Note_off_c, 0, 46, 55
1, 385540, Note_on_c, 0, 53, 43
1, 385634, Note_off_c, 0, 53, 61
1, 385656, Note_on_c, 0, 83, 60
1, 385660, Note_on_c, 0, 71, 33
1, 385893, Note_on_c, 0, 57, 56
1, 385902, Note_off_c, 0, 71, 62
1, 385913, Poly_aftertouch_c, 0, 76, 127
1, 386066, Note_off_c, 0, 57, 59
1, 386076, Note_on_c, 0, 82, 74
1, 386085, Note_off_c, 0, 83, 64
1, 386093, Note_on_c, 0, 58, 58
1, 386112, Note_on_c, 0, 70, 45
1, 386125, Note_off_c, 0, 82, 66
1, 386128, Poly_aftertouch_c, 0, 76, 0
1, 386153, Note_off_c, 0, 70, 65
1, 386184, Note_off_c, 0, 58, 59
1, 386229, Note_on_c, 0, 65, 59
1, 386294, Note_off_c, 0, 65, 62
1, 386302, Note_on_c, 0, 56, 62
1, 386381, Note_off_c, 0, 56, 62
1, 386385, Note_on_c, 0, 61, 68
1, 386444, Note_on_c, 0, 64, 66
1, 386614, Note_on_c, 0, 71, 78
1, 386744, Control_c, 0, 64, 77
1, 386758, Control_c, 0, 64, 58
1, 386773, Control_c, 0, 64, 41
1, 386788, Control_c, 0, 64, 46
1, 386802, Control_c, 0, 64, 57
1, 386811, Note_on_c, 0, 37, 44
1, 386814, Note_on_c, 0, 44, 45
1, 386817, Control_c, 0, 64, 68
1, 386832, Control_c, 0, 64, 87
1, 386847, Control_c, 0, 64, 127
1, 386904, Note_off_c, 0, 37, 59
1, 386912, Note_off_c, 0, 44, 60
1, 386934, Note_off_c, 0, 64, 62
1, 386957, Note_off_c, 0, 61, 61
1, 387099, Note_on_c, 0, 52, 40
1, 387225, Note_off_c, 0, 52, 63
1, 387239, Note_on_c, 0, 56, 53
1, 387303, Note_off_c, 0, 56, 61
1, 387330, Note_on_c, 0, 70, 78
1, 387331, Note_on_c, 0, 57, 53
1, 387360, Note_off_c, 0, 71, 61
1, 387392, Note_off_c, 0, 70, 63
1, 387422, Note_off_c, 0, 57, 55
1, 387490, Note_on_c, 0, 58, 62
1, 387532, Note_off_c, 0, 58, 63
1, 387810, Note_on_c, 0, 55, 62
1, 387836, Note_on_c, 0, 52, 50
1, 387855, Control_c, 0, 64, 73
1, 387870, Control_c, 0, 64, 59
1, 387885, Control_c, 0, 64, 51
1, 387899, Control_c, 0, 64, 54
1, 387914, Control_c, 0, 64, 60
1, 387929, Control_c, 0, 64, 67
1, 387930, Note_on_c, 0, 36, 38
1, 387944, Control_c, 0, 64, 79
1, 387950, Note_on_c, 0, 43, 41
1, 387959, Control_c, 0, 64, 109
1, 387975, Control_c, 0, 64, 127
1, 388010, Note_off_c, 0, 52, 64
1, 388038, Note_off_c, 0, 55, 62
1, 388179, Note_off_c, 0, 36, 38
1, 388261, Note_off_c, 0, 43, 40
1, 388300, Note_on_c, 0, 52, 37
1, 388401, Note_off_c, 0, 52, 60
1, 388460, Note_on_c, 0, 95, 64
1, 388476, Note_on_c, 0, 83, 46
1, 388686, Note_on_c, 0, 55, 39
1, 388749, Note_off_c, 0, 83, 65
1, 388796, Note_off_c, 0, 55, 47
1, 388817, Note_on_c, 0, 60, 47
1, 388905, Note_off_c, 0, 60, 63
1, 389047, Note_on_c, 0, 94, 60
1, 389057, Note_on_c, 0, 71, 41
1, 389066, Note_on_c, 0, 82, 47
1, 389070, Note_off_c, 0, 95, 65
1, 389097, Note_off_c, 0, 94, 62
1, 389109, Note_off_c, 0, 82, 66
1, 389138, Note_off_c, 0, 71, 63
1, 389241, Note_on_c, 0, 72, 52
1, 389279, Note_off_c, 0, 72, 67
1, 389333, Note_on_c, 0, 56, 64
1, 389396, Note_off_c, 0, 56, 63
1, 389405, Note_on_c, 0, 61, 68
1, 389460, Note_on_c, 0, 64, 69
1, 389616, Note_on_c, 0, 71, 74
1, 389703, Poly_aftertouch_c, 0, 67, 127
1, 389739, Control_c, 0, 64, 82
1, 389754, Control_c, 0, 64, 63
1, 389768, Control_c, 0, 64, 52
1, 389783, Control_c, 0, 64, 54
1, 389784, Note_on_c, 0, 37, 52
1, 389793, Note_on_c, 0, 44, 51
1, 389798, Control_c, 0, 64, 60
1, 389813, Control_c, 0, 64, 67
1, 389828, Control_c, 0, 64, 77
1, 389840, Note_off_c, 0, 64, 64
1, 389843, Control_c, 0, 64, 108
1, 389858, Control_c, 0, 64, 127
1, 389859, Poly_aftertouch_c, 0, 67, 0
1, 389861, Note_off_c, 0, 37, 59
1, 389864, Note_off_c, 0, 44, 61
1, 389874, Note_off_c, 0, 61, 62
1, 390033, Note_on_c, 0, 52, 49
1, 390147, Note_off_c, 0, 52, 61
1, 390153, Note_on_c, 0, 56, 54
1, 390217, Note_off_c, 0, 56, 61
1, 390240, Note_on_c, 0, 57, 61
1, 390309, Note_on_c, 0, 70, 80
1, 390338, Note_off_c, 0, 71, 61
1, 390355, Note_off_c, 0, 57, 51
1, 390373, Note_off_c, 0, 70, 62
1, 390437, Note_on_c, 0, 58, 70
1, 390506, Note_off_c, 0, 58, 64
1, 390684, Note_on_c, 0, 55, 68
1, 390706, Note_on_c, 0, 52, 59
1, 390740, Control_c, 0, 64, 78
1, 390755, Control_c, 0, 64, 59
1, 390769, Control_c, 0, 64, 33
1, 390799, Control_c, 0, 64, 44
1, 390807, Note_on_c, 0, 36, 43
1, 390821, Control_c, 0, 64, 61
1, 390836, Control_c, 0, 64, 68
1, 390850, Note_on_c, 0, 43, 50
1, 390850, Control_c, 0, 64, 80
1, 390865, Control_c, 0, 64, 108
1, 390880, Control_c, 0, 64, 127
1, 390882, Note_off_c, 0, 52, 61
1, 390926, Note_on_c, 0, 57, 28
1, 390928, Note_off_c, 0, 55, 63
1, 390961, Note_off_c, 0, 57, 50
1, 390991, Note_off_c, 0, 36, 30
1, 391043, Note_off_c, 0, 43, 58
1, 391084, Note_on_c, 0, 52, 26
1, 391202, Note_off_c, 0, 52, 59
1, 391221, Note_on_c, 0, 83, 65
1, 391233, Note_on_c, 0, 71, 51
1, 391435, Note_on_c, 0, 55, 43
1, 391536, Note_off_c, 0, 71, 62
1, 391584, Note_off_c, 0, 55, 54
1, 391612, Note_on_c, 0, 60, 46
1, 391700, Note_off_c, 0, 60, 58
1, 391773, Note_off_c, 0, 83, 59
1, 391888, Note_on_c, 0, 71, 36
1, 391964, Note_on_c, 0, 82, 48
1, 391984, Note_on_c, 0, 70, 30
1, 392032, Note_off_c, 0, 70, 65
1, 392052, Note_off_c, 0, 82, 61
1, 392108, Note_off_c, 0, 71, 30
1, 392341, Note_on_c, 0, 72, 31
1, 392409, Note_off_c, 0, 72, 58
1, 393132, Note_on_c, 0, 54, 38
1, 393289, Note_on_c, 0, 58, 56
1, 393306, Note_off_c, 0, 54, 46
1, 393348, Control_c, 0, 64, 125
1, 393363, Control_c, 0, 64, 120
1, 393378, Control_c, 0, 64, 116
1, 393392, Control_c, 0, 64, 113
1, 393407, Control_c, 0, 64, 110
1, 393422, Control_c, 0, 64, 107
1, 393436, Control_c, 0, 64, 106
1, 393451, Control_c, 0, 64, 104
1, 393464, Note_on_c, 0, 63, 62
1, 393467, Control_c, 0, 64, 103
1, 393482, Control_c, 0, 64, 102
1, 393497, Control_c, 0, 64, 100
1, 393511, Control_c, 0, 64, 99
1, 393526, Control_c, 0, 64, 97
1, 393541, Control_c, 0, 64, 96
1, 393556, Control_c, 0, 64, 95
1, 393572, Control_c, 0, 64, 94
1, 393587, Control_c, 0, 64, 94
1, 393602, Control_c, 0, 64, 93
1, 393631, Control_c, 0, 64, 93
1, 393660, Control_c, 0, 64, 92
1, 393690, Control_c, 0, 64, 92
1, 393705, Control_c, 0, 64, 91
1, 393720, Control_c, 0, 64, 91
1, 393794, Control_c, 0, 64, 90
1, 393816, Control_c, 0, 64, 90
1, 393831, Control_c, 0, 64, 89
1, 393846, Control_c, 0, 64, 89
1, 393861, Control_c, 0, 64, 88
1, 393890, Control_c, 0, 64, 88
1, 393920, Control_c, 0, 64, 87
1, 393949, Control_c, 0, 64, 87
1, 394043, Note_on_c, 0, 70, 64
1, 394097, Control_c, 0, 64, 86
1, 394112, Control_c, 0, 64, 86
1, 394141, Control_c, 0, 64, 85
1, 394156, Control_c, 0, 64, 85
1, 394171, Control_c, 0, 64, 84
1, 394186, Control_c, 0, 64, 84
1, 394201, Control_c, 0, 64, 83
1, 394216, Control_c, 0, 64, 83
1, 394231, Control_c, 0, 64, 82
1, 394260, Control_c, 0, 64, 82
1, 394718, Note_on_c, 0, 42, 43
1, 394755, Note_on_c, 0, 35, 25
1, 394772, Control_c, 0, 64, 81
1, 394787, Control_c, 0, 64, 76
1, 394802, Control_c, 0, 64, 68
1, 394816, Control_c, 0, 64, 61
1, 394831, Control_c, 0, 64, 54
1, 394846, Control_c, 0, 64, 53
1, 394861, Control_c, 0, 64, 55
1, 394876, Control_c, 0, 64, 59
1, 394890, Control_c, 0, 64, 62
1, 394905, Control_c, 0, 64, 64
1, 394920, Control_c, 0, 64, 67
1, 394935, Control_c, 0, 64, 70
1, 394950, Control_c, 0, 64, 75
1, 394964, Control_c, 0, 64, 82
1, 394979, Control_c, 0, 64, 90
1, 394994, Control_c, 0, 64, 100
1, 395009, Control_c, 0, 64, 115
1, 395012, Poly_aftertouch_c, 0, 66, 127
1, 395023, Control_c, 0, 64, 127
1, 395113, Note_off_c, 0, 35, 39
1, 395129, Note_off_c, 0, 42, 59
1, 395621, Note_on_c, 0, 51, 33
1, 395996, Note_on_c, 0, 54, 30
1, 396516, Note_on_c, 0, 56, 21
1, 396779, Note_off_c, 0, 58, 58
1, 396951, Note_off_c, 0, 70, 26
1, 397053, Note_off_c, 0, 63, 37
1, 397113, Poly_aftertouch_c, 0, 66, 0
1, 397620, Control_c, 0, 64, 125
1, 397634, Control_c, 0, 64, 122
1, 397664, Control_c, 0, 64, 120
1, 397679, Control_c, 0, 64, 119
1, 397753, Control_c, 0, 64, 117
1, 397797, Control_c, 0, 64, 116
1, 397812, Control_c, 0, 64, 115
1, 397827, Control_c, 0, 64, 115
1, 397841, Control_c, 0, 64, 114
1, 397856, Control_c, 0, 64, 112
1, 397871, Control_c, 0, 64, 110
1, 397886, Control_c, 0, 64, 109
1, 397901, Control_c, 0, 64, 107
1, 397906, Note_on_c, 0, 69, 32
1, 397912, Note_on_c, 0, 57, 30
1, 397915, Control_c, 0, 64, 104
1, 397930, Control_c, 0, 64, 102
1, 397945, Control_c, 0, 64, 101
1, 397960, Control_c, 0, 64, 99
1, 397975, Control_c, 0, 64, 99
1, 397989, Control_c, 0, 64, 98
1, 398004, Control_c, 0, 64, 98
1, 398019, Control_c, 0, 64, 97
1, 398034, Control_c, 0, 64, 96
1, 398049, Control_c, 0, 64, 95
1, 398064, Control_c, 0, 64, 94
1, 398079, Control_c, 0, 64, 93
1, 398094, Control_c, 0, 64, 92
1, 398108, Control_c, 0, 64, 92
1, 398123, Control_c, 0, 64, 91
1, 398138, Control_c, 0, 64, 90
1, 398153, Control_c, 0, 64, 89
1, 398168, Control_c, 0, 64, 88
1, 398182, Control_c, 0, 64, 87
1, 398197, Control_c, 0, 64, 87
1, 398212, Control_c, 0, 64, 86
1, 398226, Control_c, 0, 64, 85
1, 398241, Control_c, 0, 64, 84
1, 398256, Control_c, 0, 64, 83
1, 398271, Control_c, 0, 64, 82
1, 398286, Control_c, 0, 64, 81
1, 398299, Note_off_c, 0, 51, 28
1, 398323, Control_c, 0, 64, 80
1, 398338, Control_c, 0, 64, 80
1, 398345, Note_off_c, 0, 54, 37
1, 398368, Control_c, 0, 64, 79
1, 398377, Note_off_c, 0, 56, 32
1, 398398, Control_c, 0, 64, 79
1, 398413, Control_c, 0, 64, 78
1, 398443, Control_c, 0, 64, 78
1, 398457, Control_c, 0, 64, 77
1, 398472, Control_c, 0, 64, 77
1, 398487, Control_c, 0, 64, 76
1, 398502, Control_c, 0, 64, 76
1, 398517, Control_c, 0, 64, 75
1, 398531, Control_c, 0, 64, 75
1, 398546, Control_c, 0, 64, 74
1, 398561, Control_c, 0, 64, 74
1, 398576, Control_c, 0, 64, 73
1, 398605, Control_c, 0, 64, 73
1, 398635, Control_c, 0, 64, 72
1, 398650, Control_c, 0, 64, 72
1, 398679, Control_c, 0, 64, 71
1, 398709, Control_c, 0, 64, 71
1, 398724, Control_c, 0, 64, 70
1, 398738, Control_c, 0, 64, 70
1, 398768, Control_c, 0, 64, 69
1, 398798, Control_c, 0, 64, 69
1, 398827, Control_c, 0, 64, 68
1, 398842, Control_c, 0, 64, 68
1, 398857, Control_c, 0, 64, 67
1, 398872, Control_c, 0, 64, 67
1, 398887, Control_c, 0, 64, 66
1, 398917, Control_c, 0, 64, 66
1, 398931, Control_c, 0, 64, 65
1, 398961, Control_c, 0, 64, 65
1, 399072, Control_c, 0, 64, 65
1, 399116, Control_c, 0, 64, 66
1, 399146, Control_c, 0, 64, 66
1, 399176, Control_c, 0, 64, 67
1, 399312, Note_off_c, 0, 69, 41
1, 399314, Note_off_c, 0, 57, 39
1, 399325, Control_c, 0, 64, 66
1, 399970, Control_c, 0, 64, 67
1, 400443, Control_c, 0, 64, 67
1, 400598, Control_c, 0, 64, 68
1, 400702, Control_c, 0, 64, 68
1, 401015, Control_c, 0, 64, 69
1, 401020, Note_on_c, 0, 46, 35
1, 401045, Control_c, 0, 64, 69
1, 401050, Note_on_c, 0, 34, 18
1, 401059, Control_c, 0, 64, 70
1, 401074, Control_c, 0, 64, 71
1, 401089, Control_c, 0, 64, 72
1, 401104, Control_c, 0, 64, 74
1, 401119, Control_c, 0, 64, 76
1, 401133, Control_c, 0, 64, 78
1, 401148, Control_c, 0, 64, 80
1, 401163, Control_c, 0, 64, 83
1, 401178, Control_c, 0, 64, 85
1, 401193, Control_c, 0, 64, 87
1, 401207, Control_c, 0, 64, 89
1, 401222, Control_c, 0, 64, 92
1, 401237, Control_c, 0, 64, 95
1, 401251, Control_c, 0, 64, 99
1, 401266, Control_c, 0, 64, 102
1, 401281, Control_c, 0, 64, 104
1, 401304, Control_c, 0, 64, 107
1, 401319, Control_c, 0, 64, 110
1, 401333, Control_c, 0, 64, 117
1, 401348, Control_c, 0, 64, 127
1, 401428, Note_on_c, 0, 58, 35
1, 401551, Note_off_c, 0, 46, 48
1, 401558, Note_on_c, 0, 49, 27
1, 401564, Note_off_c, 0, 58, 49
1, 401630, Note_off_c, 0, 34, 41
1, 401649, Note_on_c, 0, 53, 40
1, 401685, Note_off_c, 0, 49, 44
1, 401705, Note_on_c, 0, 58, 52
1, 401735, Note_off_c, 0, 53, 50
1, 401764, Note_on_c, 0, 45, 42
1, 401780, Note_on_c, 0, 33, 45
1, 401834, Note_on_c, 0, 48, 43
1, 401892, Note_off_c, 0, 45, 62
1, 401931, Note_off_c, 0, 58, 28
1, 401942, Note_on_c, 0, 52, 48
1, 401946, Note_off_c, 0, 33, 33
1, 402127, Note_on_c, 0, 58, 51
1, 402130, Note_on_c, 0, 42, 61
1, 402152, Note_off_c, 0, 48, 38
1, 402157, Note_on_c, 0, 30, 50
1, 402179, Note_off_c, 0, 52, 51
1, 402216, Control_c, 0, 64, 114
1, 402230, Control_c, 0, 64, 81
1, 402245, Control_c, 0, 64, 68
1, 402260, Control_c, 0, 64, 61
1, 402274, Control_c, 0, 64, 59
1, 402275, Note_off_c, 0, 58, 51
1, 402289, Control_c, 0, 64, 62
1, 402296, Note_on_c, 0, 47, 40
1, 402304, Control_c, 0, 64, 65
1, 402319, Control_c, 0, 64, 70
1, 402334, Control_c, 0, 64, 76
1, 402350, Control_c, 0, 64, 84
1, 402365, Control_c, 0, 64, 91
1, 402371, Note_on_c, 0, 51, 48
1, 402379, Control_c, 0, 64, 102
1, 402383, Note_off_c, 0, 47, 54
1, 402394, Control_c, 0, 64, 114
1, 402409, Control_c, 0, 64, 127
1, 402422, Note_on_c, 0, 58, 54
1, 402431, Note_off_c, 0, 51, 56
1, 402509, Note_on_c, 0, 48, 44
1, 402520, Note_off_c, 0, 58, 51
1, 402537, Note_off_c, 0, 42, 63
1, 402564, Note_off_c, 0, 30, 0
1, 402575, Note_off_c, 0, 48, 56
1, 402584, Note_on_c, 0, 52, 49
1, 402587, Poly_aftertouch_c, 0, 30, 0
1, 402676, Note_on_c, 0, 58, 51
1, 402677, Note_on_c, 0, 43, 59
1, 402684, Note_off_c, 0, 52, 60
1, 402689, Control_c, 0, 64, 81
1, 402696, Note_on_c, 0, 31, 54
1, 402703, Control_c, 0, 64, 64
1, 402718, Control_c, 0, 64, 55
1, 402733, Control_c, 0, 64, 56
1, 402747, Poly_aftertouch_c, 0, 33, 127
1, 402748, Control_c, 0, 64, 61
1, 402763, Control_c, 0, 64, 67
1, 402777, Control_c, 0, 64, 77
1, 402778, Note_on_c, 0, 49, 44
1, 402798, Poly_aftertouch_c, 0, 33, 0
1, 402800, Control_c, 0, 64, 96
1, 402810, Note_off_c, 0, 31, 62
1, 402815, Control_c, 0, 64, 127
1, 402819, Note_off_c, 0, 49, 64
1, 402819, Note_off_c, 0, 43, 63
1, 402871, Note_off_c, 0, 58, 58
1, 402875, Note_on_c, 0, 53, 45
1, 403015, Note_on_c, 0, 46, 70
1, 403030, Note_on_c, 0, 34, 61
1, 403051, Control_c, 0, 64, 101
1, 403066, Control_c, 0, 64, 69
1, 403081, Control_c, 0, 64, 40
1, 403096, Control_c, 0, 64, 0
1, 403135, Note_off_c, 0, 53, 37
1, 403200, Control_c, 0, 64, 39
1, 403215, Control_c, 0, 64, 49
1, 403230, Control_c, 0, 64, 55
1, 403245, Control_c, 0, 64, 60
1, 403251, Note_on_c, 0, 58, 53
1, 403260, Control_c, 0, 64, 64
1, 403275, Control_c, 0, 64, 68
1, 403290, Control_c, 0, 64, 76
1, 403304, Control_c, 0, 64, 90
1, 403319, Control_c, 0, 64, 127
1, 403320, Note_on_c, 0, 49, 53
1, 403349, Note_off_c, 0, 34, 61
1, 403358, Note_off_c, 0, 46, 61
1, 403382, Note_off_c, 0, 58, 54
1, 403389, Note_off_c, 0, 49, 55
1, 403402, Note_on_c, 0, 53, 54
1, 403503, Note_on_c, 0, 58, 53
1, 403507, Note_on_c, 0, 45, 70
1, 403508, Note_off_c, 0, 53, 58
1, 403519, Note_on_c, 0, 33, 62
1, 403542, Note_off_c, 0, 45, 67
1, 403564, Note_off_c, 0, 33, 64
1, 403582, Note_on_c, 0, 48, 51
1, 403641, Note_off_c, 0, 58, 26
1, 403704, Note_on_c, 0, 52, 50
1, 403901, Note_on_c, 0, 58, 47
1, 403948, Note_off_c, 0, 48, 10
1, 403960, Note_off_c, 0, 52, 52
1, 403963, Note_on_c, 0, 28, 68
1, 403964, Note_on_c, 0, 40, 77
1, 404023, Control_c, 0, 64, 81
1, 404038, Control_c, 0, 64, 55
1, 404053, Control_c, 0, 64, 0
1, 404074, Note_off_c, 0, 58, 51
1, 404139, Note_on_c, 0, 47, 41
1, 404157, Control_c, 0, 64, 26
1, 404172, Control_c, 0, 64, 41
1, 404187, Control_c, 0, 64, 50
1, 404202, Control_c, 0, 64, 57
1, 404208, Note_on_c, 0, 51, 48
1, 404217, Control_c, 0, 64, 61
1, 404231, Control_c, 0, 64, 65
1, 404239, Note_off_c, 0, 47, 49
1, 404246, Control_c, 0, 64, 68
1, 404261, Control_c, 0, 64, 72
1, 404275, Control_c, 0, 64, 77
1, 404278, Note_off_c, 0, 51, 54
1, 404283, Note_on_c, 0, 58, 51
1, 404290, Control_c, 0, 64, 82
1, 404312, Control_c, 0, 64, 87
1, 404327, Control_c, 0, 64, 91
1, 404342, Control_c, 0, 64, 94
1, 404345, Note_off_c, 0, 28, 50
1, 404357, Control_c, 0, 64, 96
1, 404370, Note_off_c, 0, 40, 60
1, 404372, Control_c, 0, 64, 98
1, 404387, Control_c, 0, 64, 100
1, 404395, Note_on_c, 0, 48, 41
1, 404401, Control_c, 0, 64, 101
1, 404416, Control_c, 0, 64, 102
1, 404431, Control_c, 0, 64, 103
1, 404444, Note_off_c, 0, 48, 59
1, 404446, Control_c, 0, 64, 103
1, 404456, Note_off_c, 0, 58, 32
1, 404461, Control_c, 0, 64, 104
1, 404473, Note_on_c, 0, 52, 49
1, 404610, Note_on_c, 0, 41, 53
1, 404624, Note_on_c, 0, 29, 52
1, 404638, Note_off_c, 0, 52, 58
1, 404638, Control_c, 0, 64, 93
1, 404653, Control_c, 0, 64, 73
1, 404654, Note_on_c, 0, 58, 50
1, 404667, Control_c, 0, 64, 58
1, 404682, Control_c, 0, 64, 25
1, 404697, Control_c, 0, 64, 0
1, 404727, Control_c, 0, 64, 36
1, 404735, Note_on_c, 0, 49, 42
1, 404743, Control_c, 0, 64, 55
1, 404758, Control_c, 0, 64, 62
1, 404772, Control_c, 0, 64, 66
1, 404787, Control_c, 0, 64, 71
1, 404802, Control_c, 0, 64, 75
1, 404817, Control_c, 0, 64, 79
1, 404832, Control_c, 0, 64, 84
1, 404842, Note_off_c, 0, 58, 51
1, 404846, Control_c, 0, 64, 90
1, 404850, Note_off_c, 0, 49, 37
1, 404856, Note_off_c, 0, 29, 58
1, 404861, Control_c, 0, 64, 98
1, 404875, Note_off_c, 0, 41, 64
1, 404876, Control_c, 0, 64, 108
1, 404890, Control_c, 0, 64, 115
1, 404896, Note_on_c, 0, 53, 48
1, 404905, Control_c, 0, 64, 122
1, 404920, Control_c, 0, 64, 127
1, 405138, Note_off_c, 0, 53, 27
1, 405165, Control_c, 0, 64, 122
1, 405179, Control_c, 0, 64, 88
1, 405180, Note_on_c, 0, 46, 49
1, 405185, Note_on_c, 0, 34, 46
1, 405194, Control_c, 0, 64, 69
1, 405209, Control_c, 0, 64, 56
1, 405224, Control_c, 0, 64, 44
1, 405239, Control_c, 0, 64, 43
1, 405254, Control_c, 0, 64, 51
1, 405269, Control_c, 0, 64, 60
1, 405284, Control_c, 0, 64, 65
1, 405298, Control_c, 0, 64, 68
1, 405313, Control_c, 0, 64, 71
1, 405314, Note_on_c, 0, 48, 48
1, 405328, Control_c, 0, 64, 73
1, 405343, Control_c, 0, 64, 74
1, 405358, Control_c, 0, 64, 75
1, 405372, Control_c, 0, 64, 77
1, 405387, Control_c, 0, 64, 80
1, 405399, Note_off_c, 0, 48, 51
1, 405402, Control_c, 0, 64, 83
1, 405411, Note_on_c, 0, 52, 43
1, 405417, Control_c, 0, 64, 86
1, 405432, Control_c, 0, 64, 89
1, 405447, Control_c, 0, 64, 93
1, 405462, Control_c, 0, 64, 96
1, 405477, Control_c, 0, 64, 99
1, 405483, Note_on_c, 0, 58, 62
1, 405492, Control_c, 0, 64, 103
1, 405500, Note_off_c, 0, 52, 62
1, 405506, Control_c, 0, 64, 108
1, 405521, Control_c, 0, 64, 112
1, 405536, Control_c, 0, 64, 122
1, 405552, Control_c, 0, 64, 127
1, 405553, Note_off_c, 0, 46, 35
1, 405572, Note_off_c, 0, 34, 40
1, 405574, Note_on_c, 0, 49, 47
1, 405589, Note_off_c, 0, 58, 51
1, 405641, Note_off_c, 0, 49, 54
1, 405661, Note_on_c, 0, 53, 47
1, 405705, Note_on_c, 0, 55, 34
1, 405762, Note_on_c, 0, 59, 57
1, 405764, Note_on_c, 0, 45, 51
1, 405772, Note_on_c, 0, 33, 50
1, 405815, Note_off_c, 0, 55, 58
1, 405822, Note_off_c, 0, 45, 64
1, 405848, Note_off_c, 0, 33, 61
1, 405877, Note_off_c, 0, 59, 62
1, 405881, Note_on_c, 0, 50, 48
1, 405946, Note_off_c, 0, 50, 59
1, 405986, Note_on_c, 0, 54, 47
1, 406008, Note_off_c, 0, 53, 13
1, 406018, Control_c, 0, 64, 92
1, 406032, Note_on_c, 0, 40, 43
1, 406033, Control_c, 0, 64, 71
1, 406048, Control_c, 0, 64, 58
1, 406062, Note_on_c, 0, 58, 66
1, 406063, Control_c, 0, 64, 50
1, 406065, Note_on_c, 0, 28, 43
1, 406068, Note_off_c, 0, 54, 60
1, 406077, Control_c, 0, 64, 52
1, 406092, Control_c, 0, 64, 59
1, 406107, Control_c, 0, 64, 65
1, 406121, Control_c, 0, 64, 70
1, 406136, Control_c, 0, 64, 77
1, 406142, Note_on_c, 0, 49, 47
1, 406151, Control_c, 0, 64, 84
1, 406166, Control_c, 0, 64, 89
1, 406181, Control_c, 0, 64, 94
1, 406190, Note_off_c, 0, 58, 60
1, 406196, Control_c, 0, 64, 95
1, 406211, Control_c, 0, 64, 97
1, 406226, Control_c, 0, 64, 99
1, 406232, Note_on_c, 0, 53, 58
1, 406241, Control_c, 0, 64, 103
1, 406247, Note_off_c, 0, 49, 54
1, 406255, Control_c, 0, 64, 112
1, 406270, Control_c, 0, 64, 127
1, 406278, Note_off_c, 0, 28, 50
1, 406285, Note_off_c, 0, 40, 60
1, 406300, Note_on_c, 0, 57, 71
1, 406321, Note_off_c, 0, 53, 58
1, 406372, Note_on_c, 0, 48, 58
1, 406401, Note_off_c, 0, 57, 60
1, 406453, Note_on_c, 0, 52, 56
1, 406479, Control_c, 0, 64, 98
1, 406493, Control_c, 0, 64, 75
1, 406497, Note_off_c, 0, 48, 62
1, 406508, Control_c, 0, 64, 65
1, 406512, Note_on_c, 0, 41, 44
1, 406517, Note_on_c, 0, 29, 46
1, 406523, Control_c, 0, 64, 64
1, 406533, Note_on_c, 0, 56, 71
1, 406545, Control_c, 0, 64, 66
1, 406560, Control_c, 0, 64, 70
1, 406569, Note_off_c, 0, 29, 60
1, 406572, Note_off_c, 0, 52, 60
1, 406574, Control_c, 0, 64, 75
1, 406580, Note_off_c, 0, 41, 62
1, 406589, Control_c, 0, 64, 77
1, 406604, Control_c, 0, 64, 78
1, 406628, Note_on_c, 0, 47, 50
1, 406634, Control_c, 0, 64, 79
1, 406649, Control_c, 0, 64, 82
1, 406664, Control_c, 0, 64, 84
1, 406674, Note_off_c, 0, 56, 62
1, 406679, Control_c, 0, 64, 86
1, 406693, Control_c, 0, 64, 88
1, 406703, Note_on_c, 0, 51, 56
1, 406708, Control_c, 0, 64, 88
1, 406723, Control_c, 0, 64, 89
1, 406762, Note_off_c, 0, 47, 35
1, 406767, Control_c, 0, 64, 87
1, 406782, Control_c, 0, 64, 78
1, 406787, Note_on_c, 0, 57, 65
1, 406797, Control_c, 0, 64, 63
1, 406804, Note_off_c, 0, 51, 57
1, 406812, Control_c, 0, 64, 0
1, 406813, Note_on_c, 0, 46, 39
1, 406819, Note_on_c, 0, 34, 44
1, 406870, Note_on_c, 0, 48, 48
1, 406915, Control_c, 0, 64, 49
1, 406917, Note_off_c, 0, 57, 62
1, 406930, Control_c, 0, 64, 54
1, 406944, Control_c, 0, 64, 55
1, 406944, Note_off_c, 0, 48, 61
1, 406949, Note_on_c, 0, 52, 51
1, 406959, Control_c, 0, 64, 56
1, 406974, Control_c, 0, 64, 60
1, 406989, Control_c, 0, 64, 64
1, 407004, Control_c, 0, 64, 69
1, 407018, Control_c, 0, 64, 79
1, 407033, Control_c, 0, 64, 92
1, 407048, Note_on_c, 0, 58, 67
1, 407048, Control_c, 0, 64, 120
1, 407063, Note_off_c, 0, 52, 65
1, 407063, Control_c, 0, 64, 127
1, 407092, Note_on_c, 0, 49, 54
1, 407117, Note_off_c, 0, 34, 40
1, 407135, Note_off_c, 0, 46, 34
1, 407157, Note_off_c, 0, 49, 57
1, 407162, Note_off_c, 0, 58, 54
1, 407180, Note_on_c, 0, 53, 51
1, 407245, Note_on_c, 0, 55, 32
1, 407292, Note_on_c, 0, 33, 42
1, 407295, Note_on_c, 0, 45, 7
1, 407301, Note_on_c, 0, 59, 64
1, 407314, Note_off_c, 0, 55, 60
1, 407330, Note_off_c, 0, 33, 51
1, 407342, Note_off_c, 0, 45, 53
1, 407350, Note_off_c, 0, 53, 38
1, 407370, Note_on_c, 0, 50, 49
1, 407402, Note_off_c, 0, 59, 55
1, 407467, Note_off_c, 0, 50, 59
1, 407479, Note_on_c, 0, 54, 44
1, 407515, Control_c, 0, 64, 87
1, 407530, Control_c, 0, 64, 64
1, 407545, Control_c, 0, 64, 27
1, 407560, Control_c, 0, 64, 0
1, 407566, Note_on_c, 0, 40, 33
1, 407575, Note_on_c, 0, 58, 61
1, 407576, Note_off_c, 0, 54, 56
1, 407582, Note_on_c, 0, 28, 37
1, 407589, Control_c, 0, 64, 37
1, 407604, Control_c, 0, 64, 57
1, 407619, Control_c, 0, 64, 64
1, 407634, Control_c, 0, 64, 68
1, 407648, Control_c, 0, 64, 73
1, 407653, Note_on_c, 0, 49, 42
1, 407663, Control_c, 0, 64, 78
1, 407678, Control_c, 0, 64, 85
1, 407687, Note_off_c, 0, 58, 60
1, 407692, Control_c, 0, 64, 91
1, 407707, Control_c, 0, 64, 97
1, 407722, Control_c, 0, 64, 104
1, 407724, Note_off_c, 0, 49, 57
1, 407737, Control_c, 0, 64, 119
1, 407745, Note_on_c, 0, 53, 47
1, 407752, Control_c, 0, 64, 127
1, 407808, Note_on_c, 0, 57, 65
1, 407812, Note_off_c, 0, 28, 39
1, 407826, Note_off_c, 0, 53, 60
1, 407847, Note_off_c, 0, 40, 40
1, 407879, Note_on_c, 0, 48, 52
1, 407901, Note_off_c, 0, 57, 60
1, 407967, Note_on_c, 0, 52, 51
1, 408003, Note_off_c, 0, 48, 60
1, 408020, Control_c, 0, 64, 109
1, 408035, Control_c, 0, 64, 72
1, 408056, Note_on_c, 0, 56, 60
1, 408057, Control_c, 0, 64, 58
1, 408059, Note_on_c, 0, 41, 34
1, 408062, Note_on_c, 0, 29, 34
1, 408071, Control_c, 0, 64, 46
1, 408083, Note_off_c, 0, 52, 60
1, 408086, Control_c, 0, 64, 46
1, 408101, Control_c, 0, 64, 53
1, 408116, Control_c, 0, 64, 61
1, 408131, Control_c, 0, 64, 66
1, 408145, Control_c, 0, 64, 71
1, 408155, Note_on_c, 0, 47, 49
1, 408160, Control_c, 0, 64, 75
1, 408175, Control_c, 0, 64, 78
1, 408190, Note_off_c, 0, 56, 57
1, 408190, Control_c, 0, 64, 82
1, 408205, Control_c, 0, 64, 84
1, 408220, Control_c, 0, 64, 87
1, 408226, Note_on_c, 0, 51, 55
1, 408232, Note_off_c, 0, 47, 48
1, 408235, Control_c, 0, 64, 90
1, 408250, Control_c, 0, 64, 94
1, 408265, Control_c, 0, 64, 100
1, 408279, Control_c, 0, 64, 108
1, 408294, Control_c, 0, 64, 116
1, 408294, Note_off_c, 0, 51, 55
1, 408298, Note_on_c, 0, 57, 63
1, 408309, Control_c, 0, 64, 127
1, 408333, Note_off_c, 0, 29, 51
1, 408363, Note_on_c, 0, 48, 51
1, 408382, Note_off_c, 0, 57, 61
1, 408407, Note_off_c, 0, 41, 44
1, 408417, Note_off_c, 0, 48, 59
1, 408433, Note_on_c, 0, 52, 49
1, 408512, Note_off_c, 0, 52, 60
1, 408521, Note_on_c, 0, 58, 72
1, 408590, Note_on_c, 0, 34, 48
1, 408593, Note_on_c, 0, 49, 44
1, 408605, Note_off_c, 0, 58, 54
1, 408640, Note_off_c, 0, 49, 60
1, 408643, Note_on_c, 0, 53, 52
1, 408754, Control_c, 0, 64, 82
1, 408754, Note_on_c, 0, 42, 52
1, 408757, Note_on_c, 0, 59, 66
1, 408768, Control_c, 0, 64, 65
1, 408775, Note_off_c, 0, 53, 54
1, 408791, Control_c, 0, 64, 51
1, 408806, Control_c, 0, 64, 51
1, 408820, Control_c, 0, 64, 55
1, 408835, Control_c, 0, 64, 62
1, 408850, Control_c, 0, 64, 66
1, 408864, Note_off_c, 0, 59, 63
1, 408865, Control_c, 0, 64, 71
1, 408870, Note_on_c, 0, 54, 58
1, 408880, Control_c, 0, 64, 77
1, 408894, Control_c, 0, 64, 86
1, 408909, Control_c, 0, 64, 94
1, 408918, Note_on_c, 0, 50, 59
1, 408918, Note_off_c, 0, 54, 61
1, 408924, Control_c, 0, 64, 105
1, 408939, Control_c, 0, 64, 122
1, 408950, Note_off_c, 0, 34, 41
1, 408953, Control_c, 0, 64, 127
1, 408986, Note_off_c, 0, 50, 61
1, 408996, Note_on_c, 0, 51, 62
1, 409028, Note_off_c, 0, 42, 56
1, 409047, Note_on_c, 0, 34, 53
1, 409066, Note_on_c, 0, 56, 61
1, 409070, Note_off_c, 0, 51, 46
1, 409137, Note_on_c, 0, 59, 54
1, 409176, Control_c, 0, 64, 82
1, 409180, Note_off_c, 0, 56, 63
1, 409192, Control_c, 0, 64, 64
1, 409192, Note_on_c, 0, 60, 70
1, 409207, Control_c, 0, 64, 50
1, 409221, Note_on_c, 0, 45, 35
1, 409221, Control_c, 0, 64, 49
1, 409236, Control_c, 0, 64, 54
1, 409251, Control_c, 0, 64, 62
1, 409259, Note_on_c, 0, 57, 60
1, 409259, Note_off_c, 0, 59, 58
1, 409266, Control_c, 0, 64, 67
1, 409267, Note_off_c, 0, 60, 63
1, 409281, Control_c, 0, 64, 72
1, 409295, Control_c, 0, 64, 77
1, 409308, Note_on_c, 0, 52, 60
1, 409310, Control_c, 0, 64, 82
1, 409325, Control_c, 0, 64, 88
1, 409329, Note_off_c, 0, 57, 63
1, 409339, Control_c, 0, 64, 94
1, 409350, Note_off_c, 0, 34, 43
1, 409354, Control_c, 0, 64, 105
1, 409369, Control_c, 0, 64, 122
1, 409376, Note_off_c, 0, 45, 57
1, 409376, Note_off_c, 0, 52, 61
1, 409384, Control_c, 0, 64, 127
1, 409388, Note_on_c, 0, 53, 58
1, 409439, Note_off_c, 0, 53, 61
1, 409458, Poly_aftertouch_c, 0, 52, 127
1, 409460, Note_on_c, 0, 34, 53
1, 409469, Note_on_c, 0, 58, 50
1, 409478, Poly_aftertouch_c, 0, 52, 0
1, 409552, Note_on_c, 0, 61, 38
1, 409555, Note_off_c, 0, 58, 63
1, 409570, Control_c, 0, 64, 93
1, 409585, Control_c, 0, 64, 68
1, 409585, Note_on_c, 0, 63, 72
1, 409593, Note_off_c, 0, 61, 63
1, 409600, Control_c, 0, 64, 50
1, 409615, Control_c, 0, 64, 43
1, 409619, Note_on_c, 0, 46, 58
1, 409630, Control_c, 0, 64, 50
1, 409644, Control_c, 0, 64, 61
1, 409659, Control_c, 0, 64, 68
1, 409668, Note_on_c, 0, 56, 64
1, 409674, Control_c, 0, 64, 78
1, 409689, Control_c, 0, 64, 95
1, 409704, Control_c, 0, 64, 127
1, 409716, Note_off_c, 0, 63, 51
1, 409735, Note_on_c, 0, 59, 61
1, 409745, Note_off_c, 0, 56, 62
1, 409791, Note_off_c, 0, 34, 41
1, 409815, Note_on_c, 0, 64, 76
1, 409823, Note_off_c, 0, 59, 61
1, 409861, Note_on_c, 0, 57, 64
1, 409879, Note_on_c, 0, 34, 58
1, 409903, Note_off_c, 0, 46, 35
1, 409934, Note_on_c, 0, 60, 61
1, 409939, Note_off_c, 0, 64, 47
1, 409961, Note_off_c, 0, 57, 59
1, 410000, Control_c, 0, 64, 95
1, 410005, Note_off_c, 0, 34, 49
1, 410014, Control_c, 0, 64, 68
1, 410017, Note_on_c, 0, 65, 78
1, 410029, Note_on_c, 0, 49, 60
1, 410029, Control_c, 0, 64, 52
1, 410032, Note_off_c, 0, 60, 63
1, 410044, Control_c, 0, 64, 47
1, 410059, Control_c, 0, 64, 53
1, 410074, Control_c, 0, 64, 63
1, 410088, Control_c, 0, 64, 73
1, 410092, Note_on_c, 0, 61, 68
1, 410103, Control_c, 0, 64, 93
1, 410118, Control_c, 0, 64, 127
1, 410122, Note_off_c, 0, 65, 59
1, 410123, Note_off_c, 0, 49, 38
1, 410158, Note_on_c, 0, 34, 53
1, 410159, Note_on_c, 0, 58, 57
1, 410164, Note_off_c, 0, 61, 60
1, 410195, Note_off_c, 0, 34, 59
1, 410196, Note_off_c, 0, 58, 65
1, 410218, Note_on_c, 0, 59, 74
1, 410304, Note_on_c, 0, 63, 56
1, 410339, Note_on_c, 0, 68, 58
1, 410339, Note_off_c, 0, 59, 48
1, 410383, Note_on_c, 0, 53, 60
1, 410404, Note_off_c, 0, 53, 63
1, 410419, Note_on_c, 0, 69, 82
1, 410423, Note_off_c, 0, 63, 58
1, 410428, Note_on_c, 0, 65, 37
1, 410435, Note_off_c, 0, 68, 63
1, 410463, Note_off_c, 0, 65, 50
1, 410481, Note_on_c, 0, 60, 73
1, 410494, Note_off_c, 0, 69, 62
1, 410563, Note_on_c, 0, 61, 55
1, 410572, Note_off_c, 0, 60, 56
1, 410586, Note_on_c, 0, 65, 60
1, 410602, Note_on_c, 0, 34, 57
1, 410637, Note_off_c, 0, 34, 60
1, 410643, Note_off_c, 0, 61, 61
1, 410718, Note_on_c, 0, 70, 44
1, 410722, Note_off_c, 0, 65, 63
1, 410746, Note_on_c, 0, 71, 86
1, 410747, Note_on_c, 0, 54, 73
1, 410753, Note_off_c, 0, 70, 52
1, 410784, Note_off_c, 0, 54, 64
1, 410834, Note_on_c, 0, 63, 70
1, 410854, Note_off_c, 0, 71, 57
1, 410876, Note_off_c, 0, 63, 59
1, 410893, Note_on_c, 0, 69, 64
1, 410947, Note_on_c, 0, 37, 51
1, 410951, Note_on_c, 0, 72, 86
1, 410980, Note_off_c, 0, 69, 64
1, 410982, Note_off_c, 0, 37, 51
1, 410997, Note_on_c, 0, 64, 79
1, 411016, Note_off_c, 0, 72, 64
1, 411051, Note_off_c, 0, 64, 65
1, 411082, Note_on_c, 0, 69, 62
1, 411139, Note_off_c, 0, 69, 63
1, 411156, Control_c, 0, 64, 109
1, 411170, Note_on_c, 0, 58, 79
1, 411171, Control_c, 0, 64, 73
1, 411180, Note_on_c, 0, 73, 80
1, 411186, Control_c, 0, 64, 61
1, 411201, Control_c, 0, 64, 58
1, 411215, Control_c, 0, 64, 62
1, 411230, Control_c, 0, 64, 67
1, 411241, Note_off_c, 0, 73, 64
1, 411243, Note_on_c, 0, 70, 72
1, 411245, Control_c, 0, 64, 78
1, 411260, Control_c, 0, 64, 104
1, 411275, Control_c, 0, 64, 127
1, 411287, Note_on_c, 0, 67, 79
1, 411290, Note_off_c, 0, 70, 58
1, 411374, Note_on_c, 0, 68, 61
1, 411379, Note_off_c, 0, 67, 53
1, 411398, Note_on_c, 0, 71, 70
1, 411420, Note_on_c, 0, 46, 56
1, 411424, Note_off_c, 0, 58, 59
1, 411427, Note_on_c, 0, 75, 75
1, 411450, Note_off_c, 0, 68, 61
1, 411512, Note_off_c, 0, 71, 64
1, 411525, Note_on_c, 0, 76, 76
1, 411526, Note_off_c, 0, 46, 57
1, 411541, Note_on_c, 0, 61, 75
1, 411550, Note_off_c, 0, 75, 64
1, 411584, Note_off_c, 0, 76, 65
1, 411621, Note_off_c, 0, 61, 61
1, 411623, Note_on_c, 0, 69, 76
1, 411642, Note_on_c, 0, 71, 55
1, 411655, Note_on_c, 0, 46, 51
1, 411668, Note_off_c, 0, 71, 37
1, 411694, Note_off_c, 0, 46, 49
1, 411699, Poly_aftertouch_c, 0, 72, 0
1, 411712, Note_off_c, 0, 69, 61
1, 411719, Note_on_c, 0, 71, 51
1, 411745, Note_on_c, 0, 73, 73
1, 411763, Note_off_c, 0, 71, 57
1, 411790, Note_on_c, 0, 77, 68
1, 411803, Note_off_c, 0, 73, 64
1, 411857, Note_on_c, 0, 81, 74
1, 411857, Note_off_c, 0, 77, 63
1, 411861, Note_on_c, 0, 79, 77
1, 411869, Note_on_c, 0, 65, 63
1, 411870, Note_on_c, 0, 64, 56
1, 411940, Note_off_c, 0, 64, 63
1, 411945, Note_on_c, 0, 71, 65
1, 411949, Note_off_c, 0, 79, 57
1, 411955, Note_off_c, 0, 81, 64
1, 411967, Note_on_c, 0, 72, 42
1, 411988, Note_off_c, 0, 71, 64
1, 411996, Note_off_c, 0, 72, 34
1, 412003, Note_on_c, 0, 76, 59
1, 412051, Note_on_c, 0, 82, 91
1, 412070, Note_on_c, 0, 58, 73
1, 412071, Note_off_c, 0, 76, 65
1, 412119, Note_on_c, 0, 73, 69
1, 412152, Note_off_c, 0, 73, 65
1, 412155, Note_off_c, 0, 82, 58
1, 412158, Note_on_c, 0, 77, 65
1, 412211, Note_on_c, 0, 66, 93
1, 412216, Control_c, 0, 64, 87
1, 412227, Note_on_c, 0, 83, 90
1, 412230, Control_c, 0, 64, 62
1, 412245, Control_c, 0, 64, 52
1, 412260, Control_c, 0, 64, 55
1, 412262, Note_off_c, 0, 77, 61
1, 412275, Control_c, 0, 64, 62
1, 412280, Note_off_c, 0, 65, 51
1, 412290, Control_c, 0, 64, 71
1, 412304, Control_c, 0, 64, 91
1, 412312, Note_on_c, 0, 78, 76
1, 412317, Note_off_c, 0, 83, 64
1, 412319, Control_c, 0, 64, 127
1, 412346, Note_on_c, 0, 74, 76
1, 412348, Note_off_c, 0, 78, 63
1, 412383, Note_off_c, 0, 58, 61
1, 412425, Note_on_c, 0, 75, 72
1, 412426, Note_off_c, 0, 66, 56
1, 412438, Note_off_c, 0, 74, 48
1, 412450, Note_on_c, 0, 58, 61
1, 412503, Note_on_c, 0, 83, 71
1, 412503, Poly_aftertouch_c, 0, 62, 127
1, 412545, Note_off_c, 0, 75, 62
1, 412563, Note_on_c, 0, 84, 89
1, 412569, Note_on_c, 0, 69, 93
1, 412617, Note_off_c, 0, 83, 50
1, 412632, Note_on_c, 0, 81, 71
1, 412643, Note_off_c, 0, 69, 54
1, 412649, Note_off_c, 0, 84, 61
1, 412676, Note_on_c, 0, 76, 73
1, 412687, Note_off_c, 0, 81, 65
1, 412765, Note_on_c, 0, 70, 95
1, 412768, Note_on_c, 0, 77, 87
1, 412790, Note_off_c, 0, 76, 57
1, 412814, Note_on_c, 0, 81, 73
1, 412862, Note_on_c, 0, 85, 70
1, 412864, Note_off_c, 0, 77, 59
1, 412893, Note_off_c, 0, 70, 64
1, 412918, Note_off_c, 0, 81, 66
1, 412938, Note_off_c, 0, 85, 67
1, 412960, Note_on_c, 0, 86, 41
1, 412985, Note_on_c, 0, 73, 103
1, 412987, Note_off_c, 0, 86, 51
1, 412997, Poly_aftertouch_c, 0, 60, 127
1, 413045, Note_on_c, 0, 89, 26
1, 413060, Note_on_c, 0, 84, 68
1, 413061, Note_on_c, 0, 86, 65
1, 413061, Poly_aftertouch_c, 0, 60, 0
1, 413082, Note_off_c, 0, 89, 43
1, 413098, Poly_aftertouch_c, 0, 60, 127
1, 413101, Note_off_c, 0, 73, 65
1, 413107, Note_off_c, 0, 86, 65
1, 413125, Note_off_c, 0, 84, 63
1, 413130, Note_on_c, 0, 81, 81
1, 413164, Note_off_c, 0, 58, 61
1, 413218, Poly_aftertouch_c, 0, 62, 0
1, 413225, Note_on_c, 0, 65, 89
1, 413229, Note_on_c, 0, 82, 90
1, 413255, Poly_aftertouch_c, 0, 62, 127
1, 413270, Poly_aftertouch_c, 0, 60, 0
1, 413300, Note_on_c, 0, 85, 88
1, 413314, Poly_aftertouch_c, 0, 62, 0
1, 413342, Note_off_c, 0, 81, 60
1, 413374, Note_off_c, 0, 82, 64
1, 413386, Note_on_c, 0, 89, 92
1, 413416, Note_off_c, 0, 85, 65
1, 413481, Note_on_c, 0, 58, 79
1, 413514, Note_on_c, 0, 88, 88
1, 413519, Control_c, 0, 64, 78
1, 413535, Control_c, 0, 64, 61
1, 413550, Control_c, 0, 64, 56
1, 413565, Control_c, 0, 64, 59
1, 413580, Control_c, 0, 64, 64
1, 413595, Control_c, 0, 64, 72
1, 413609, Control_c, 0, 64, 91
1, 413613, Note_on_c, 0, 84, 79
1, 413613, Note_off_c, 0, 89, 61
1, 413624, Control_c, 0, 64, 127
1, 413627, Note_off_c, 0, 65, 55
1, 413668, Note_off_c, 0, 84, 66
1, 413675, Note_on_c, 0, 81, 74
1, 413719, Note_off_c, 0, 88, 65
1, 413741, Note_on_c, 0, 82, 80
1, 413774, Note_off_c, 0, 81, 64
1, 413805, Note_on_c, 0, 85, 79
1, 413812, Note_off_c, 0, 82, 65
1, 413851, Note_on_c, 0, 89, 84
1, 413858, Note_off_c, 0, 85, 66
1, 413910, Note_on_c, 0, 88, 85
1, 413941, Note_off_c, 0, 89, 64
1, 413961, Note_on_c, 0, 84, 69
1, 413985, Note_off_c, 0, 88, 66
1, 414016, Note_on_c, 0, 81, 77
1, 414021, Note_off_c, 0, 84, 64
1, 414083, Note_off_c, 0, 58, 61
1, 414087, Note_on_c, 0, 70, 86
1, 414094, Note_on_c, 0, 82, 80
1, 414102, Note_off_c, 0, 81, 60
1, 414149, Note_off_c, 0, 82, 65
1, 414158, Note_on_c, 0, 85, 80
1, 414226, Note_on_c, 0, 89, 77
1, 414235, Note_off_c, 0, 85, 65
1, 414312, Note_on_c, 0, 88, 76
1, 414325, Note_on_c, 0, 73, 87
1, 414332, Note_off_c, 0, 70, 64
1, 414336, Note_off_c, 0, 89, 61
1, 414404, Note_on_c, 0, 84, 70
1, 414412, Note_off_c, 0, 88, 66
1, 414468, Note_off_c, 0, 84, 61
1, 414482, Note_on_c, 0, 81, 69
1, 414559, Note_on_c, 0, 65, 73
1, 414567, Note_on_c, 0, 82, 67
1, 414574, Note_off_c, 0, 81, 58
1, 414594, Note_off_c, 0, 73, 59
1, 414632, Note_on_c, 0, 85, 68
1, 414653, Note_off_c, 0, 82, 64
1, 414694, Note_off_c, 0, 85, 64
1, 414696, Note_on_c, 0, 89, 69
1, 414769, Note_on_c, 0, 88, 68
1, 414783, Note_off_c, 0, 89, 61
1, 414792, Note_on_c, 0, 58, 63
1, 414838, Note_on_c, 0, 84, 61
1, 414841, Note_off_c, 0, 65, 61
1, 414842, Note_off_c, 0, 88, 64
1, 414879, Note_off_c, 0, 84, 59
1, 414907, Note_on_c, 0, 81, 64
1, 414966, Note_off_c, 0, 81, 63
1, 414972, Note_on_c, 0, 82, 67
1, 415030, Note_on_c, 0, 85, 71
1, 415030, Note_off_c, 0, 82, 62
1, 415079, Note_off_c, 0, 85, 65
1, 415088, Note_on_c, 0, 89, 64
1, 415146, Note_on_c, 0, 88, 70
1, 415150, Note_off_c, 0, 89, 63
1, 415200, Note_off_c, 0, 88, 66
1, 415214, Note_on_c, 0, 84, 61
1, 415255, Note_off_c, 0, 84, 58
1, 415258, Note_off_c, 0, 58, 56
1, 415279, Note_on_c, 0, 81, 49
1, 415368, Note_off_c, 0, 81, 54
1, 415369, Note_on_c, 0, 82, 56
1, 415383, Note_on_c, 0, 70, 65
1, 415425, Note_off_c, 0, 82, 56
1, 415457, Note_on_c, 0, 85, 62
1, 415541, Note_off_c, 0, 85, 64
1, 415554, Note_on_c, 0, 89, 60
1, 415661, Note_off_c, 0, 89, 60
1, 415672, Note_on_c, 0, 88, 52
1, 415708, Note_off_c, 0, 70, 63
1, 415711, Note_on_c, 0, 73, 66
1, 415791, Note_off_c, 0, 88, 61
1, 415809, Note_on_c, 0, 84, 51
1, 415875, Note_off_c, 0, 84, 62
1, 415911, Note_on_c, 0, 81, 45
1, 415987, Note_off_c, 0, 73, 56
1, 416015, Note_on_c, 0, 65, 58
1, 416029, Note_on_c, 0, 82, 37
1, 416045, Note_off_c, 0, 81, 31
1, 416080, Note_off_c, 0, 82, 52
1, 416097, Note_on_c, 0, 85, 55
1, 416170, Note_off_c, 0, 85, 62
1, 416183, Note_on_c, 0, 89, 53
1, 416258, Note_off_c, 0, 89, 60
1, 416265, Note_on_c, 0, 88, 57
1, 416280, Note_on_c, 0, 64, 58
1, 416288, Note_off_c, 0, 65, 57
1, 416358, Note_off_c, 0, 88, 62
1, 416368, Note_on_c, 0, 84, 41
1, 416397, Note_off_c, 0, 84, 60
1, 416426, Note_on_c, 0, 81, 45
1, 416491, Note_off_c, 0, 81, 54
1, 416499, Note_off_c, 0, 64, 57
1, 416500, Note_on_c, 0, 63, 51
1, 416516, Note_on_c, 0, 82, 48
1, 416554, Note_off_c, 0, 82, 63
1, 416590, Note_on_c, 0, 85, 56
1, 416650, Note_off_c, 0, 85, 61
1, 416688, Note_on_c, 0, 89, 40
1, 416741, Note_off_c, 0, 89, 60
1, 416754, Note_on_c, 0, 88, 55
1, 416758, Note_on_c, 0, 61, 47
1, 416824, Note_off_c, 0, 63, 49
1, 416829, Note_off_c, 0, 88, 62
1, 416843, Note_on_c, 0, 84, 46
1, 416844, Note_off_c, 0, 61, 53
1, 416873, Note_off_c, 0, 84, 60
1, 416923, Note_on_c, 0, 81, 44
1, 417005, Note_off_c, 0, 81, 53
1, 417010, Note_on_c, 0, 58, 48
1, 417041, Note_on_c, 0, 82, 42
1, 417078, Note_off_c, 0, 82, 58
1, 417114, Note_on_c, 0, 85, 52
1, 417172, Note_off_c, 0, 85, 54
1, 417201, Note_on_c, 0, 89, 44
1, 417281, Note_off_c, 0, 89, 59
1, 417282, Note_off_c, 0, 58, 49
1, 417297, Note_on_c, 0, 53, 49
1, 417303, Note_on_c, 0, 88, 49
1, 417356, Note_off_c, 0, 88, 58
1, 417388, Note_on_c, 0, 84, 50
1, 417443, Note_off_c, 0, 84, 58
1, 417479, Note_on_c, 0, 81, 42
1, 417544, Note_off_c, 0, 53, 54
1, 417560, Note_on_c, 0, 52, 42
1, 417574, Note_off_c, 0, 81, 51
1, 417604, Note_on_c, 0, 82, 48
1, 417675, Note_off_c, 0, 82, 53
1, 417704, Note_on_c, 0, 85, 52
1, 417780, Note_off_c, 0, 85, 55
1, 417802, Note_on_c, 0, 89, 45
1, 417826, Note_off_c, 0, 52, 36
1, 417907, Note_off_c, 0, 89, 53
1, 417923, Note_on_c, 0, 88, 51
1, 417929, Note_on_c, 0, 51, 47
1, 417997, Note_off_c, 0, 51, 58
1, 418018, Note_off_c, 0, 88, 59
1, 418045, Note_on_c, 0, 84, 45
1, 418109, Note_off_c, 0, 84, 52
1, 418167, Note_on_c, 0, 81, 39
1, 418328, Note_on_c, 0, 82, 47
1, 418330, Note_on_c, 0, 49, 39
1, 418343, Note_off_c, 0, 81, 33
1, 418384, Control_c, 0, 64, 116
1, 418398, Control_c, 0, 64, 113
1, 418413, Control_c, 0, 64, 112
1, 418428, Control_c, 0, 64, 112
1, 418443, Control_c, 0, 64, 111
1, 418447, Note_off_c, 0, 82, 49
1, 418458, Control_c, 0, 64, 109
1, 418472, Control_c, 0, 64, 107
1, 418477, Note_on_c, 0, 85, 51
1, 418487, Control_c, 0, 64, 105
1, 418502, Control_c, 0, 64, 104
1, 418517, Control_c, 0, 64, 102
1, 418540, Control_c, 0, 64, 102
1, 418554, Control_c, 0, 64, 101
1, 418564, Note_off_c, 0, 85, 64
1, 418569, Control_c, 0, 64, 100
1, 418584, Control_c, 0, 64, 98
1, 418598, Note_on_c, 0, 89, 48
1, 418598, Control_c, 0, 64, 96
1, 418613, Control_c, 0, 64, 95
1, 418628, Control_c, 0, 64, 94
1, 418643, Control_c, 0, 64, 93
1, 418658, Control_c, 0, 64, 92
1, 418687, Control_c, 0, 64, 92
1, 418717, Control_c, 0, 64, 91
1, 418776, Control_c, 0, 64, 91
1, 418778, Note_off_c, 0, 89, 55
1, 418791, Control_c, 0, 64, 86
1, 418805, Control_c, 0, 64, 76
1, 418807, Note_on_c, 0, 88, 45
1, 418808, Note_on_c, 0, 34, 33
1, 418820, Control_c, 0, 64, 66
1, 418835, Control_c, 0, 64, 60
1, 418850, Control_c, 0, 64, 58
1, 418865, Control_c, 0, 64, 59
1, 418880, Control_c, 0, 64, 62
1, 418895, Control_c, 0, 64, 65
1, 418909, Control_c, 0, 64, 69
1, 418924, Control_c, 0, 64, 73
1, 418939, Control_c, 0, 64, 79
1, 418944, Note_off_c, 0, 88, 57
1, 418954, Control_c, 0, 64, 85
1, 418966, Note_on_c, 0, 84, 43
1, 418969, Control_c, 0, 64, 95
1, 418984, Control_c, 0, 64, 111
1, 418998, Control_c, 0, 64, 127
1, 419053, Note_off_c, 0, 34, 41
1, 419065, Note_off_c, 0, 84, 59
1, 419124, Note_on_c, 0, 81, 39
1, 419135, Note_off_c, 0, 49, 52
1, 419281, Note_off_c, 0, 81, 34
1, 419318, Note_on_c, 0, 82, 38
1, 419501, Note_off_c, 0, 82, 42
1, 419525, Note_on_c, 0, 85, 36
1, 419813, Note_on_c, 0, 89, 29
1, 419854, Note_off_c, 0, 85, 37
1, 420358, Note_on_c, 0, 94, 25
1, 420396, Note_off_c, 0, 94, 44
1, 421160, Note_off_c, 0, 89, 36
1, 421393, Control_c, 0, 64, 115
1, 421407, Control_c, 0, 64, 107
1, 421422, Control_c, 0, 64, 102
1, 421437, Control_c, 0, 64, 101
1, 421452, Control_c, 0, 64, 99
1, 421467, Control_c, 0, 64, 98
1, 421482, Control_c, 0, 64, 97
1, 421497, Control_c, 0, 64, 95
1, 421520, Control_c, 0, 64, 94
1, 421535, Control_c, 0, 64, 92
1, 421550, Control_c, 0, 64, 90
1, 421565, Control_c, 0, 64, 88
1, 421579, Control_c, 0, 64, 86
1, 421594, Control_c, 0, 64, 85
1, 421609, Control_c, 0, 64, 84
1, 421623, Control_c, 0, 64, 84
1, 421638, Control_c, 0, 64, 83
1, 421653, Control_c, 0, 64, 82
1, 421668, Control_c, 0, 64, 81
1, 421683, Control_c, 0, 64, 80
1, 421697, Control_c, 0, 64, 78
1, 421712, Control_c, 0, 64, 77
1, 421727, Control_c, 0, 64, 76
1, 421742, Control_c, 0, 64, 75
1, 421757, Control_c, 0, 64, 74
1, 421771, Control_c, 0, 64, 73
1, 421786, Control_c, 0, 64, 71
1, 421801, Control_c, 0, 64, 70
1, 421816, Control_c, 0, 64, 69
1, 421831, Control_c, 0, 64, 68
1, 421846, Control_c, 0, 64, 67
1, 421861, Control_c, 0, 64, 66
1, 421875, Control_c, 0, 64, 65
1, 421890, Control_c, 0, 64, 64
1, 421905, Control_c, 0, 64, 64
1, 421935, Control_c, 0, 64, 63
1, 421965, Control_c, 0, 64, 63
1, 421994, Control_c, 0, 64, 62
1, 422009, Control_c, 0, 64, 62
1, 422023, Control_c, 0, 64, 61
1, 422038, Control_c, 0, 64, 60
1, 422053, Control_c, 0, 64, 59
1, 422068, Control_c, 0, 64, 58
1, 422083, Control_c, 0, 64, 57
1, 422097, Control_c, 0, 64, 56
1, 422112, Control_c, 0, 64, 55
1, 422127, Control_c, 0, 64, 53
1, 422142, Control_c, 0, 64, 51
1, 422157, Control_c, 0, 64, 47
1, 422171, Control_c, 0, 64, 44
1, 422186, Control_c, 0, 64, 41
1, 422201, Control_c, 0, 64, 40
1, 422230, Control_c, 0, 64, 39
1, 422312, Control_c, 0, 64, 40
1, 422328, Control_c, 0, 64, 41
1, 422343, Control_c, 0, 64, 42
1, 422358, Control_c, 0, 64, 44
1, 422373, Control_c, 0, 64, 46
1, 422388, Control_c, 0, 64, 48
1, 422402, Control_c, 0, 64, 50
1, 422417, Control_c, 0, 64, 51
1, 422432, Control_c, 0, 64, 53
1, 422446, Control_c, 0, 64, 54
1, 422461, Control_c, 0, 64, 56
1, 422476, Control_c, 0, 64, 57
1, 422491, Control_c, 0, 64, 58
1, 422506, Control_c, 0, 64, 59
1, 422520, Control_c, 0, 64, 60
1, 422535, Control_c, 0, 64, 61
1, 422550, Control_c, 0, 64, 62
1, 422565, Control_c, 0, 64, 62
1, 422580, Control_c, 0, 64, 63
1, 422594, Control_c, 0, 64, 64
1, 422609, Control_c, 0, 64, 65
1, 422624, Control_c, 0, 64, 65
1, 422639, Control_c, 0, 64, 66
1, 422653, Control_c, 0, 64, 67
1, 422668, Control_c, 0, 64, 68
1, 422683, Control_c, 0, 64, 69
1, 422698, Control_c, 0, 64, 71
1, 422713, Control_c, 0, 64, 72
1, 422728, Control_c, 0, 64, 74
1, 422743, Control_c, 0, 64, 76
1, 422758, Control_c, 0, 64, 78
1, 422773, Control_c, 0, 64, 80
1, 422788, Control_c, 0, 64, 81
1, 422802, Control_c, 0, 64, 81
1, 422817, Control_c, 0, 64, 82
1, 422846, Control_c, 0, 64, 82
1, 422861, Control_c, 0, 64, 83
1, 422876, Control_c, 0, 64, 84
1, 422891, Control_c, 0, 64, 86
1, 422906, Control_c, 0, 64, 87
1, 422920, Control_c, 0, 64, 88
1, 422935, Control_c, 0, 64, 89
1, 422964, Control_c, 0, 64, 90
1, 422979, Control_c, 0, 64, 90
1, 422994, Control_c, 0, 64, 91
1, 423009, Control_c, 0, 64, 93
1, 423032, Control_c, 0, 64, 94
1, 423046, Control_c, 0, 64, 96
1, 423061, Control_c, 0, 64, 98
1, 423076, Control_c, 0, 64, 101
1, 423091, Control_c, 0, 64, 104
1, 423106, Control_c, 0, 64, 110
1, 423121, Control_c, 0, 64, 122
1, 423136, Control_c, 0, 64, 127
1, 423232, Note_on_c, 0, 46, 33
1, 423504, Note_on_c, 0, 53, 44
1, 423547, Note_off_c, 0, 46, 34
1, 423651, Note_on_c, 0, 61, 42
1, 423770, Note_off_c, 0, 53, 41
1, 423787, Note_on_c, 0, 65, 43
1, 423800, Note_off_c, 0, 61, 54
1, 423858, Note_on_c, 0, 70, 44
1, 423929, Note_on_c, 0, 73, 53
1, 424215, Note_on_c, 0, 77, 65
1, 424579, Poly_aftertouch_c, 0, 82, 127
1, 424695, Poly_aftertouch_c, 0, 82, 0
1, 424763, Note_on_c, 0, 82, 42
1, 424809, Note_off_c, 0, 82, 62
1, 425357, Note_off_c, 0, 70, 40
1, 425399, Note_off_c, 0, 73, 35
1, 425932, Note_off_c, 0, 65, 61
1, 426740, Note_on_c, 0, 76, 44
1, 426743, Note_on_c, 0, 72, 39
1, 427081, Note_off_c, 0, 76, 58
1, 427109, Note_off_c, 0, 77, 30
1, 427131, Note_off_c, 0, 72, 52
1, 427673, Note_on_c, 0, 75, 46
1, 427699, Note_on_c, 0, 71, 38
1, 428304, Note_on_c, 0, 34, 36
1, 428317, Control_c, 0, 64, 86
1, 428332, Control_c, 0, 64, 68
1, 428347, Control_c, 0, 64, 61
1, 428362, Control_c, 0, 64, 63
1, 428377, Control_c, 0, 64, 66
1, 428392, Control_c, 0, 64, 73
1, 428407, Control_c, 0, 64, 87
1, 428421, Control_c, 0, 64, 127
1, 428544, Note_off_c, 0, 71, 56
1, 428571, Note_off_c, 0, 34, 41
1, 428769, Note_on_c, 0, 46, 30
1, 428893, Note_off_c, 0, 46, 54
1, 429150, Note_on_c, 0, 53, 37
1, 429321, Note_off_c, 0, 75, 52
1, 429328, Note_on_c, 0, 61, 36
1, 429431, Note_on_c, 0, 65, 36
1, 429519, Note_off_c, 0, 53, 41
1, 429521, Note_on_c, 0, 70, 42
1, 429528, Note_off_c, 0, 61, 51
1, 429820, Note_on_c, 0, 73, 54
1, 430427, Note_on_c, 0, 82, 23
1, 430535, Note_off_c, 0, 82, 57
1, 430760, Poly_aftertouch_c, 0, 76, 127
1, 432067, Note_off_c, 0, 70, 35
1, 432174, Note_off_c, 0, 65, 32
1, 432453, Note_off_c, 0, 73, 57
1, 433174, Note_on_c, 0, 70, 33
1, 433760, Note_on_c, 0, 65, 26
1, 433898, Note_off_c, 0, 70, 39
1, 434441, Poly_aftertouch_c, 0, 74, 127
1, 434486, Control_c, 0, 64, 125
1, 434515, Control_c, 0, 64, 122
1, 434530, Control_c, 0, 64, 120
1, 434545, Control_c, 0, 64, 119
1, 434560, Control_c, 0, 64, 116
1, 434574, Control_c, 0, 64, 115
1, 434589, Control_c, 0, 64, 114
1, 434604, Control_c, 0, 64, 113
1, 434634, Control_c, 0, 64, 112
1, 434662, Control_c, 0, 64, 112
1, 434691, Control_c, 0, 64, 111
1, 434721, Control_c, 0, 64, 110
1, 434736, Control_c, 0, 64, 110
1, 434751, Control_c, 0, 64, 109
1, 434766, Control_c, 0, 64, 109
1, 434780, Control_c, 0, 64, 108
1, 434795, Control_c, 0, 64, 108
1, 434810, Control_c, 0, 64, 107
1, 434825, Control_c, 0, 64, 107
1, 434840, Control_c, 0, 64, 106
1, 434854, Control_c, 0, 64, 106
1, 434869, Control_c, 0, 64, 105
1, 434884, Control_c, 0, 64, 105
1, 434899, Control_c, 0, 64, 104
1, 434929, Control_c, 0, 64, 104
1, 434973, Control_c, 0, 64, 103
1, 435010, Control_c, 0, 64, 103
1, 435040, Control_c, 0, 64, 102
1, 435084, Control_c, 0, 64, 102
1, 435100, Control_c, 0, 64, 101
1, 435115, Control_c, 0, 64, 101
1, 435144, Control_c, 0, 64, 100
1, 435159, Control_c, 0, 64, 100
1, 435203, Control_c, 0, 64, 99
1, 435233, Control_c, 0, 64, 99
1, 435248, Control_c, 0, 64, 98
1, 435307, Control_c, 0, 64, 98
1, 435530, Control_c, 0, 64, 97
1, 435575, Control_c, 0, 64, 97
1, 435864, Control_c, 0, 64, 96
1, 435878, Control_c, 0, 64, 96
1, 435893, Control_c, 0, 64, 95
1, 435924, Control_c, 0, 64, 95
1, 435954, Note_off_c, 0, 65, 32
1, 435983, Control_c, 0, 64, 94
1, 436072, Control_c, 0, 64, 94
1, 436190, Control_c, 0, 64, 93
1, 436220, Control_c, 0, 64, 93
1, 436249, Control_c, 0, 64, 92
1, 436383, Control_c, 0, 64, 92
1, 436457, Control_c, 0, 64, 91
1, 436539, Control_c, 0, 64, 91
1, 436568, Control_c, 0, 64, 90
1, 436583, Control_c, 0, 64, 90
1, 436627, Control_c, 0, 64, 89
1, 436686, Control_c, 0, 64, 89
1, 436762, Control_c, 0, 64, 88
1, 436910, Control_c, 0, 64, 88
1, 437072, Control_c, 0, 64, 87
1, 437236, Control_c, 0, 64, 87
1, 437257, Control_c, 0, 64, 86
1, 437272, Control_c, 0, 64, 86
1, 437287, Control_c, 0, 64, 85
1, 437302, Control_c, 0, 64, 85
1, 437331, Control_c, 0, 64, 84
1, 437346, Control_c, 0, 64, 84
1, 437361, Control_c, 0, 64, 83
1, 437376, Control_c, 0, 64, 83
1, 437391, Control_c, 0, 64, 82
1, 437406, Control_c, 0, 64, 81
1, 437421, Control_c, 0, 64, 81
1, 437436, Control_c, 0, 64, 80
1, 437450, Control_c, 0, 64, 80
1, 437480, Control_c, 0, 64, 79
1, 437525, Control_c, 0, 64, 79
1, 437555, Control_c, 0, 64, 78
1, 437570, Control_c, 0, 64, 78
1, 437599, Control_c, 0, 64, 77
1, 437629, Control_c, 0, 64, 77
1, 437673, Control_c, 0, 64, 76
1, 437688, Control_c, 0, 64, 76
1, 437732, Control_c, 0, 64, 75
1, 437747, Control_c, 0, 64, 75
1, 437762, Control_c, 0, 64, 74
1, 437777, Control_c, 0, 64, 74
1, 437806, Control_c, 0, 64, 73
1, 437821, Control_c, 0, 64, 73
1, 437851, Control_c, 0, 64, 72
1, 437880, Control_c, 0, 64, 72
1, 437895, Control_c, 0, 64, 71
1, 437925, Control_c, 0, 64, 71
1, 437940, Control_c, 0, 64, 70
1, 437969, Control_c, 0, 64, 70
1, 437984, Control_c, 0, 64, 69
1, 438021, Control_c, 0, 64, 69
1, 438095, Control_c, 0, 64, 68
1, 438110, Control_c, 0, 64, 68
1, 438169, Control_c, 0, 64, 67
1, 438214, Control_c, 0, 64, 67
1, 438247, Poly_aftertouch_c, 0, 74, 0
1, 438259, Control_c, 0, 64, 66
1, 438306, Poly_aftertouch_c, 0, 76, 0
1, 438318, Control_c, 0, 64, 66
1, 438348, Control_c, 0, 64, 65
1, 438525, Control_c, 0, 64, 65
1, 438643, Control_c, 0, 64, 64
1, 438828, Control_c, 0, 64, 64
1, 438873, Control_c, 0, 64, 63
1, 438902, Control_c, 0, 64, 63
1, 438947, Control_c, 0, 64, 62
1, 438992, Control_c, 0, 64, 62
1, 439007, Control_c, 0, 64, 61
1, 439081, Control_c, 0, 64, 61
1, 439141, Control_c, 0, 64, 60
1, 439482, Control_c, 0, 64, 61
1, 439564, Control_c, 0, 64, 61
1, 439593, Control_c, 0, 64, 62
1, 439608, Control_c, 0, 64, 62
1, 439623, Control_c, 0, 64, 63
1, 439638, Control_c, 0, 64, 63
1, 439667, Control_c, 0, 64, 64
1, 439697, Control_c, 0, 64, 64
1, 439712, Control_c, 0, 64, 65
1, 439726, Control_c, 0, 64, 65
1, 439756, Control_c, 0, 64, 66
1, 439770, Control_c, 0, 64, 66
1, 439785, Control_c, 0, 64, 67
1, 439800, Control_c, 0, 64, 69
1, 439815, Control_c, 0, 64, 70
1, 439830, Control_c, 0, 64, 72
1, 439844, Control_c, 0, 64, 72
1, 439859, Control_c, 0, 64, 73
1, 439905, Control_c, 0, 64, 74
1, 439920, Control_c, 0, 64, 75
1, 439935, Control_c, 0, 64, 76
1, 439949, Control_c, 0, 64, 77
1, 439964, Control_c, 0, 64, 78
1, 439979, Control_c, 0, 64, 79
1, 439993, Control_c, 0, 64, 79
1, 440008, Control_c, 0, 64, 80
1, 440023, Control_c, 0, 64, 80
1, 440053, Control_c, 0, 64, 81
1, 440068, Control_c, 0, 64, 82
1, 440083, Control_c, 0, 64, 83
1, 440098, Control_c, 0, 64, 84
1, 440113, Control_c, 0, 64, 86
1, 440128, Control_c, 0, 64, 87
1, 440142, Control_c, 0, 64, 88
1, 440157, Control_c, 0, 64, 89
1, 440172, Control_c, 0, 64, 90
1, 440186, Control_c, 0, 64, 91
1, 440201, Control_c, 0, 64, 92
1, 440216, Control_c, 0, 64, 94
1, 440238, Control_c, 0, 64, 95
1, 440253, Control_c, 0, 64, 96
1, 440268, Control_c, 0, 64, 98
1, 440283, Control_c, 0, 64, 100
1, 440297, Control_c, 0, 64, 101
1, 440312, Control_c, 0, 64, 104
1, 440327, Control_c, 0, 64, 106
1, 440342, Control_c, 0, 64, 108
1, 440357, Control_c, 0, 64, 110
1, 440372, Control_c, 0, 64, 112
1, 440387, Control_c, 0, 64, 113
1, 440401, Control_c, 0, 64, 115
1, 440416, Control_c, 0, 64, 116
1, 440431, Control_c, 0, 64, 117
1, 440446, Control_c, 0, 64, 119
1, 440461, Control_c, 0, 64, 120
1, 440475, Control_c, 0, 64, 125
1, 440490, Control_c, 0, 64, 127
1, 441704, Note_on_c, 0, 78, 66
1, 441716, Note_on_c, 0, 70, 55
1, 441747, Note_on_c, 0, 64, 34
1, 441753, Note_on_c, 0, 54, 36
1, 441758, Note_on_c, 0, 61, 33
1, 442697, Note_on_c, 0, 79, 71
1, 442751, Control_c, 0, 64, 115
1, 442766, Control_c, 0, 64, 97
1, 442781, Control_c, 0, 64, 83
1, 442795, Control_c, 0, 64, 74
1, 442810, Control_c, 0, 64, 68
1, 442825, Control_c, 0, 64, 61
1, 442840, Control_c, 0, 64, 52
1, 442855, Control_c, 0, 64, 38
1, 442867, Note_off_c, 0, 78, 59
1, 442869, Control_c, 0, 64, 0
1, 443752, Control_c, 0, 64, 16
1, 443767, Control_c, 0, 64, 23
1, 443782, Control_c, 0, 64, 31
1, 443797, Control_c, 0, 64, 43
1, 443811, Control_c, 0, 64, 50
1, 443826, Control_c, 0, 64, 54
1, 443841, Control_c, 0, 64, 55
1, 443856, Control_c, 0, 64, 57
1, 443871, Control_c, 0, 64, 58
1, 443886, Control_c, 0, 64, 61
1, 443901, Control_c, 0, 64, 63
1, 443916, Control_c, 0, 64, 65
1, 443931, Control_c, 0, 64, 67
1, 443946, Control_c, 0, 64, 69
1, 443961, Control_c, 0, 64, 71
1, 443976, Control_c, 0, 64, 75
1, 443997, Control_c, 0, 64, 78
1, 444012, Control_c, 0, 64, 82
1, 444027, Control_c, 0, 64, 86
1, 444041, Control_c, 0, 64, 90
1, 444056, Control_c, 0, 64, 94
1, 444071, Control_c, 0, 64, 98
1, 444086, Control_c, 0, 64, 103
1, 444101, Control_c, 0, 64, 108
1, 444116, Control_c, 0, 64, 116
1, 444131, Control_c, 0, 64, 127
1, 444617, Note_on_c, 0, 78, 46
1, 444747, Note_off_c, 0, 79, 59
1, 445119, Note_off_c, 0, 70, 34
1, 445164, Note_on_c, 0, 75, 44
1, 445419, Note_off_c, 0, 78, 36
1, 445457, Note_off_c, 0, 75, 35
1, 445489, Note_on_c, 0, 76, 55
1, 445552, Note_off_c, 0, 61, 49
1, 445565, Note_off_c, 0, 76, 64
1, 445576, Note_off_c, 0, 54, 43
1, 445616, Note_off_c, 0, 64, 35
1, 445882, Note_on_c, 0, 76, 42
1, 445901, Note_on_c, 0, 60, 31
1, 445902, Note_on_c, 0, 64, 31
1, 445904, Note_on_c, 0, 69, 33
1, 445982, Control_c, 0, 64, 92
1, 445997, Control_c, 0, 64, 72
1, 446012, Control_c, 0, 64, 59
1, 446027, Control_c, 0, 64, 46
1, 446042, Control_c, 0, 64, 46
1, 446057, Control_c, 0, 64, 54
1, 446071, Control_c, 0, 64, 61
1, 446086, Control_c, 0, 64, 66
1, 446101, Control_c, 0, 64, 71
1, 446116, Control_c, 0, 64, 77
1, 446131, Control_c, 0, 64, 82
1, 446146, Control_c, 0, 64, 87
1, 446160, Control_c, 0, 64, 95
1, 446175, Control_c, 0, 64, 110
1, 446190, Control_c, 0, 64, 127
1, 446382, Note_off_c, 0, 69, 42
1, 446625, Note_on_c, 0, 69, 37
1, 446704, Poly_aftertouch_c, 0, 74, 127
1, 447168, Note_off_c, 0, 60, 44
1, 447625, Note_on_c, 0, 67, 31
1, 447643, Note_on_c, 0, 62, 22
1, 447644, Control_c, 0, 64, 120
1, 447651, Note_on_c, 0, 59, 20
1, 447658, Control_c, 0, 64, 83
1, 447673, Control_c, 0, 64, 68
1, 447688, Control_c, 0, 64, 61
1, 447703, Control_c, 0, 64, 61
1, 447718, Control_c, 0, 64, 63
1, 447735, Note_off_c, 0, 69, 64
1, 447740, Control_c, 0, 64, 67
1, 447755, Control_c, 0, 64, 72
1, 447770, Control_c, 0, 64, 78
1, 447784, Control_c, 0, 64, 84
1, 447799, Control_c, 0, 64, 88
1, 447814, Control_c, 0, 64, 89
1, 447829, Control_c, 0, 64, 90
1, 447837, Note_off_c, 0, 64, 39
1, 447844, Control_c, 0, 64, 92
1, 447858, Control_c, 0, 64, 95
1, 447873, Control_c, 0, 64, 100
1, 447889, Control_c, 0, 64, 104
1, 447904, Control_c, 0, 64, 107
1, 447919, Control_c, 0, 64, 109
1, 447929, Note_on_c, 0, 71, 71
1, 447934, Control_c, 0, 64, 112
1, 447949, Control_c, 0, 64, 114
1, 447963, Control_c, 0, 64, 115
1, 447967, Poly_aftertouch_c, 0, 74, 0
1, 447978, Control_c, 0, 64, 119
1, 447993, Control_c, 0, 64, 122
1, 447998, Note_off_c, 0, 76, 58
1, 448007, Control_c, 0, 64, 127
1, 448021, Note_off_c, 0, 67, 59
1, 448044, Note_off_c, 0, 59, 40
1, 448233, Note_off_c, 0, 62, 42
1, 448289, Control_c, 0, 64, 122
1, 448295, Note_on_c, 0, 57, 35
1, 448301, Note_on_c, 0, 60, 35
1, 448304, Control_c, 0, 64, 116
1, 448319, Control_c, 0, 64, 113
1, 448334, Control_c, 0, 64, 109
1, 448348, Control_c, 0, 64, 105
1, 448355, Note_on_c, 0, 72, 63
1, 448363, Control_c, 0, 64, 101
1, 448378, Control_c, 0, 64, 97
1, 448393, Control_c, 0, 64, 93
1, 448406, Note_on_c, 0, 66, 38
1, 448407, Control_c, 0, 64, 89
1, 448422, Control_c, 0, 64, 84
1, 448437, Control_c, 0, 64, 78
1, 448448, Note_off_c, 0, 71, 62
1, 448452, Control_c, 0, 64, 68
1, 448467, Control_c, 0, 64, 58
1, 448489, Control_c, 0, 64, 28
1, 448504, Control_c, 0, 64, 0
1, 448637, Control_c, 0, 64, 24
1, 448652, Control_c, 0, 64, 41
1, 448667, Control_c, 0, 64, 53
1, 448683, Control_c, 0, 64, 61
1, 448698, Control_c, 0, 64, 65
1, 448712, Control_c, 0, 64, 69
1, 448727, Control_c, 0, 64, 76
1, 448742, Control_c, 0, 64, 81
1, 448757, Control_c, 0, 64, 87
1, 448772, Control_c, 0, 64, 91
1, 448786, Control_c, 0, 64, 95
1, 448801, Control_c, 0, 64, 97
1, 448816, Control_c, 0, 64, 98
1, 448830, Control_c, 0, 64, 99
1, 448889, Control_c, 0, 64, 100
1, 448903, Control_c, 0, 64, 101
1, 448918, Control_c, 0, 64, 103
1, 448933, Control_c, 0, 64, 104
1, 448948, Control_c, 0, 64, 105
1, 448963, Control_c, 0, 64, 105
1, 448978, Control_c, 0, 64, 106
1, 449014, Note_on_c, 0, 76, 58
1, 449022, Control_c, 0, 64, 106
1, 449037, Control_c, 0, 64, 107
1, 449052, Control_c, 0, 64, 108
1, 449067, Control_c, 0, 64, 109
1, 449082, Control_c, 0, 64, 112
1, 449096, Control_c, 0, 64, 114
1, 449111, Control_c, 0, 64, 115
1, 449156, Control_c, 0, 64, 115
1, 449185, Control_c, 0, 64, 116
1, 449252, Note_off_c, 0, 66, 38
1, 449282, Control_c, 0, 64, 115
1, 449297, Control_c, 0, 64, 115
1, 449326, Control_c, 0, 64, 114
1, 449355, Control_c, 0, 64, 113
1, 449370, Control_c, 0, 64, 112
1, 449385, Control_c, 0, 64, 110
1, 449400, Control_c, 0, 64, 110
1, 449534, Control_c, 0, 64, 104
1, 449549, Control_c, 0, 64, 94
1, 449564, Control_c, 0, 64, 83
1, 449579, Control_c, 0, 64, 77
1, 449594, Control_c, 0, 64, 75
1, 449608, Control_c, 0, 64, 75
1, 449613, Note_on_c, 0, 65, 34
1, 449623, Control_c, 0, 64, 77
1, 449638, Control_c, 0, 64, 81
1, 449652, Control_c, 0, 64, 85
1, 449667, Control_c, 0, 64, 89
1, 449682, Control_c, 0, 64, 92
1, 449697, Control_c, 0, 64, 93
1, 449712, Control_c, 0, 64, 94
1, 449756, Control_c, 0, 64, 94
1, 449765, Note_off_c, 0, 76, 64
1, 449771, Control_c, 0, 64, 95
1, 449781, Note_off_c, 0, 57, 61
1, 449786, Control_c, 0, 64, 96
1, 449845, Note_off_c, 0, 60, 63
1, 449934, Control_c, 0, 64, 96
1, 450094, Note_on_c, 0, 74, 57
1, 450146, Note_off_c, 0, 72, 64
1, 450342, Control_c, 0, 64, 97
1, 450367, Note_on_c, 0, 56, 41
1, 450440, Note_on_c, 0, 71, 68
1, 450486, Note_off_c, 0, 74, 63
1, 450654, Control_c, 0, 64, 96
1, 450671, Note_off_c, 0, 56, 35
1, 450681, Note_on_c, 0, 72, 79
1, 450683, Control_c, 0, 64, 96
1, 450736, Control_c, 0, 64, 95
1, 450754, Note_off_c, 0, 71, 61
1, 450775, Note_off_c, 0, 65, 63
1, 450780, Control_c, 0, 64, 95
1, 450839, Control_c, 0, 64, 94
1, 450883, Control_c, 0, 64, 94
1, 450895, Note_off_c, 0, 72, 52
1, 450913, Control_c, 0, 64, 93
1, 450928, Control_c, 0, 64, 93
1, 450957, Control_c, 0, 64, 92
1, 450969, Note_on_c, 0, 55, 39
1, 451005, Note_on_c, 0, 48, 41
1, 451011, Note_on_c, 0, 72, 65
1, 451044, Note_on_c, 0, 64, 45
1, 451061, Control_c, 0, 64, 90
1, 451077, Control_c, 0, 64, 82
1, 451092, Control_c, 0, 64, 69
1, 451106, Control_c, 0, 64, 54
1, 451121, Control_c, 0, 64, 0
1, 451196, Control_c, 0, 64, 35
1, 451211, Control_c, 0, 64, 50
1, 451225, Control_c, 0, 64, 56
1, 451240, Control_c, 0, 64, 59
1, 451255, Control_c, 0, 64, 61
1, 451270, Control_c, 0, 64, 63
1, 451285, Control_c, 0, 64, 65
1, 451299, Control_c, 0, 64, 67
1, 451314, Control_c, 0, 64, 70
1, 451329, Control_c, 0, 64, 75
1, 451344, Control_c, 0, 64, 78
1, 451359, Control_c, 0, 64, 80
1, 451373, Control_c, 0, 64, 80
1, 451388, Control_c, 0, 64, 81
1, 451403, Control_c, 0, 64, 81
1, 451417, Control_c, 0, 64, 82
1, 451432, Control_c, 0, 64, 83
1, 451447, Control_c, 0, 64, 84
1, 451462, Control_c, 0, 64, 85
1, 451485, Control_c, 0, 64, 85
1, 451562, Note_on_c, 0, 67, 55
1, 451647, Control_c, 0, 64, 86
1, 451682, Note_off_c, 0, 72, 61
1, 451704, Note_off_c, 0, 64, 62
1, 451825, Control_c, 0, 64, 85
1, 451915, Control_c, 0, 64, 85
1, 451959, Control_c, 0, 64, 84
1, 451993, Note_on_c, 0, 54, 35
1, 452048, Control_c, 0, 64, 82
1, 452048, Poly_aftertouch_c, 0, 71, 127
1, 452060, Note_on_c, 0, 63, 45
1, 452063, Control_c, 0, 64, 74
1, 452078, Control_c, 0, 64, 63
1, 452093, Control_c, 0, 64, 55
1, 452108, Control_c, 0, 64, 53
1, 452122, Control_c, 0, 64, 55
1, 452137, Control_c, 0, 64, 59
1, 452138, Poly_aftertouch_c, 0, 71, 0
1, 452152, Control_c, 0, 64, 63
1, 452167, Control_c, 0, 64, 66
1, 452177, Note_off_c, 0, 55, 58
1, 452182, Control_c, 0, 64, 69
1, 452196, Control_c, 0, 64, 71
1, 452211, Control_c, 0, 64, 72
1, 452233, Control_c, 0, 64, 74
1, 452248, Control_c, 0, 64, 76
1, 452263, Control_c, 0, 64, 78
1, 452278, Control_c, 0, 64, 80
1, 452293, Control_c, 0, 64, 82
1, 452308, Control_c, 0, 64, 84
1, 452321, Note_on_c, 0, 69, 68
1, 452322, Control_c, 0, 64, 85
1, 452337, Control_c, 0, 64, 86
1, 452352, Control_c, 0, 64, 86
1, 452381, Note_off_c, 0, 63, 37
1, 452396, Control_c, 0, 64, 87
1, 452441, Control_c, 0, 64, 87
1, 452455, Control_c, 0, 64, 88
1, 452470, Control_c, 0, 64, 89
1, 452570, Note_on_c, 0, 53, 44
1, 452589, Note_on_c, 0, 62, 26
1, 452589, Control_c, 0, 64, 89
1, 452632, Control_c, 0, 64, 88
1, 452647, Control_c, 0, 64, 78
1, 452662, Control_c, 0, 64, 65
1, 452677, Control_c, 0, 64, 45
1, 452682, Note_off_c, 0, 54, 42
1, 452692, Control_c, 0, 64, 0
1, 452737, Control_c, 0, 64, 43
1, 452752, Control_c, 0, 64, 57
1, 452767, Control_c, 0, 64, 62
1, 452773, Note_off_c, 0, 48, 56
1, 452781, Control_c, 0, 64, 64
1, 452796, Control_c, 0, 64, 65
1, 452811, Control_c, 0, 64, 66
1, 452826, Control_c, 0, 64, 68
1, 452841, Control_c, 0, 64, 69
1, 452853, Note_on_c, 0, 71, 62
1, 452856, Control_c, 0, 64, 72
1, 452870, Control_c, 0, 64, 76
1, 452874, Note_off_c, 0, 67, 35
1, 452885, Control_c, 0, 64, 80
1, 452900, Control_c, 0, 64, 86
1, 452910, Note_off_c, 0, 62, 55
1, 452915, Control_c, 0, 64, 92
1, 452930, Control_c, 0, 64, 96
1, 452944, Control_c, 0, 64, 97
1, 452978, Note_off_c, 0, 69, 36
1, 452981, Control_c, 0, 64, 97
1, 452996, Control_c, 0, 64, 98
1, 453026, Control_c, 0, 64, 98
1, 453130, Control_c, 0, 64, 98
1, 453144, Control_c, 0, 64, 97
1, 453159, Control_c, 0, 64, 96
1, 453174, Control_c, 0, 64, 95
1, 453189, Control_c, 0, 64, 93
1, 453199, Note_on_c, 0, 45, 28
1, 453203, Control_c, 0, 64, 90
1, 453216, Note_on_c, 0, 52, 27
1, 453218, Control_c, 0, 64, 88
1, 453233, Control_c, 0, 64, 86
1, 453248, Control_c, 0, 64, 83
1, 453263, Control_c, 0, 64, 81
1, 453277, Control_c, 0, 64, 80
1, 453285, Note_on_c, 0, 69, 51
1, 453291, Note_on_c, 0, 61, 35
1, 453292, Control_c, 0, 64, 79
1, 453322, Control_c, 0, 64, 78
1, 453337, Control_c, 0, 64, 72
1, 453340, Note_off_c, 0, 53, 49
1, 453351, Control_c, 0, 64, 64
1, 453366, Control_c, 0, 64, 46
1, 453381, Control_c, 0, 64, 0
1, 453471, Control_c, 0, 64, 30
1, 453485, Note_off_c, 0, 71, 38
1, 453486, Control_c, 0, 64, 45
1, 453500, Control_c, 0, 64, 52
1, 453515, Control_c, 0, 64, 56
1, 453530, Control_c, 0, 64, 59
1, 453545, Control_c, 0, 64, 60
1, 453560, Control_c, 0, 64, 62
1, 453574, Control_c, 0, 64, 63
1, 453589, Control_c, 0, 64, 64
1, 453604, Control_c, 0, 64, 65
1, 453619, Control_c, 0, 64, 67
1, 453634, Control_c, 0, 64, 68
1, 453649, Control_c, 0, 64, 70
1, 453664, Control_c, 0, 64, 72
1, 453679, Control_c, 0, 64, 73
1, 453693, Control_c, 0, 64, 73
1, 453708, Control_c, 0, 64, 74
1, 453745, Control_c, 0, 64, 74
1, 453789, Control_c, 0, 64, 75
1, 453819, Control_c, 0, 64, 75
1, 453834, Control_c, 0, 64, 76
1, 453861, Note_on_c, 0, 64, 45
1, 453864, Control_c, 0, 64, 76
1, 453908, Control_c, 0, 64, 77
1, 453938, Control_c, 0, 64, 77
1, 453962, Poly_aftertouch_c, 0, 67, 127
1, 453967, Control_c, 0, 64, 78
1, 453997, Control_c, 0, 64, 78
1, 453998, Note_off_c, 0, 61, 50
1, 453999, Poly_aftertouch_c, 0, 67, 0
1, 454007, Note_off_c, 0, 69, 33
1, 454012, Control_c, 0, 64, 79
1, 454041, Control_c, 0, 64, 79
1, 454100, Control_c, 0, 64, 80
1, 454399, Note_on_c, 0, 51, 35
1, 454426, Note_on_c, 0, 60, 31
1, 454480, Control_c, 0, 64, 78
1, 454495, Control_c, 0, 64, 72
1, 454510, Control_c, 0, 64, 64
1, 454524, Control_c, 0, 64, 58
1, 454539, Control_c, 0, 64, 56
1, 454554, Control_c, 0, 64, 58
1, 454569, Control_c, 0, 64, 62
1, 454584, Control_c, 0, 64, 66
1, 454598, Control_c, 0, 64, 73
1, 454613, Control_c, 0, 64, 81
1, 454628, Control_c, 0, 64, 87
1, 454642, Control_c, 0, 64, 92
1, 454657, Control_c, 0, 64, 95
1, 454672, Control_c, 0, 64, 96
1, 454687, Control_c, 0, 64, 97
1, 454702, Control_c, 0, 64, 97
1, 454716, Control_c, 0, 64, 98
1, 454746, Control_c, 0, 64, 98
1, 454757, Note_off_c, 0, 45, 41
1, 454792, Note_off_c, 0, 52, 42
1, 454815, Note_on_c, 0, 66, 61
1, 454862, Note_off_c, 0, 64, 64
1, 454867, Note_off_c, 0, 60, 62
1, 455028, Control_c, 0, 64, 98
1, 455042, Control_c, 0, 64, 97
1, 455058, Control_c, 0, 64, 97
1, 455073, Control_c, 0, 64, 96
1, 455108, Note_on_c, 0, 59, 48
1, 455121, Note_off_c, 0, 51, 33
1, 455126, Note_on_c, 0, 43, 27
1, 455133, Control_c, 0, 64, 95
1, 455134, Note_on_c, 0, 50, 18
1, 455147, Control_c, 0, 64, 81
1, 455162, Control_c, 0, 64, 68
1, 455177, Control_c, 0, 64, 58
1, 455192, Control_c, 0, 64, 45
1, 455207, Control_c, 0, 64, 43
1, 455229, Control_c, 0, 64, 46
1, 455244, Control_c, 0, 64, 56
1, 455259, Control_c, 0, 64, 63
1, 455273, Control_c, 0, 64, 66
1, 455288, Control_c, 0, 64, 69
1, 455303, Control_c, 0, 64, 72
1, 455318, Control_c, 0, 64, 75
1, 455333, Control_c, 0, 64, 78
1, 455347, Control_c, 0, 64, 82
1, 455362, Control_c, 0, 64, 86
1, 455377, Control_c, 0, 64, 90
1, 455392, Control_c, 0, 64, 94
1, 455407, Control_c, 0, 64, 97
1, 455421, Control_c, 0, 64, 98
1, 455451, Control_c, 0, 64, 98
1, 455456, Note_on_c, 0, 67, 58
1, 455461, Note_off_c, 0, 50, 40
1, 455465, Control_c, 0, 64, 100
1, 455471, Note_on_c, 0, 49, 39
1, 455476, Note_on_c, 0, 58, 45
1, 455480, Control_c, 0, 64, 102
1, 455495, Control_c, 0, 64, 105
1, 455507, Note_off_c, 0, 66, 35
1, 455510, Control_c, 0, 64, 109
1, 455525, Control_c, 0, 64, 115
1, 455539, Control_c, 0, 64, 127
1, 455547, Note_off_c, 0, 59, 37
1, 455557, Note_off_c, 0, 43, 48
1, 455581, Note_off_c, 0, 49, 61
1, 455581, Note_off_c, 0, 67, 63
1, 455730, Note_off_c, 0, 58, 57
1, 455977, Control_c, 0, 64, 113
1, 455992, Control_c, 0, 64, 104
1, 456007, Control_c, 0, 64, 98
1, 456010, Note_on_c, 0, 66, 48
1, 456022, Control_c, 0, 64, 94
1, 456024, Note_on_c, 0, 57, 36
1, 456037, Note_on_c, 0, 62, 43
1, 456037, Control_c, 0, 64, 90
1, 456039, Note_on_c, 0, 38, 29
1, 456043, Note_on_c, 0, 50, 32
1, 456052, Control_c, 0, 64, 87
1, 456066, Control_c, 0, 64, 85
1, 456081, Control_c, 0, 64, 82
1, 456096, Control_c, 0, 64, 79
1, 456111, Control_c, 0, 64, 74
1, 456126, Control_c, 0, 64, 68
1, 456141, Control_c, 0, 64, 61
1, 456156, Control_c, 0, 64, 47
1, 456170, Control_c, 0, 64, 13
1, 456185, Control_c, 0, 64, 0
1, 456348, Control_c, 0, 64, 18
1, 456362, Control_c, 0, 64, 42
1, 456376, Control_c, 0, 64, 51
1, 456391, Control_c, 0, 64, 56
1, 456406, Control_c, 0, 64, 59
1, 456420, Control_c, 0, 64, 61
1, 456435, Control_c, 0, 64, 62
1, 456450, Control_c, 0, 64, 64
1, 456465, Control_c, 0, 64, 66
1, 456480, Control_c, 0, 64, 68
1, 456494, Control_c, 0, 64, 72
1, 456509, Control_c, 0, 64, 76
1, 456524, Control_c, 0, 64, 82
1, 456530, Note_off_c, 0, 38, 38
1, 456539, Control_c, 0, 64, 87
1, 456554, Control_c, 0, 64, 94
1, 456568, Control_c, 0, 64, 99
1, 456583, Control_c, 0, 64, 104
1, 456598, Control_c, 0, 64, 108
1, 456612, Control_c, 0, 64, 112
1, 456627, Control_c, 0, 64, 119
1, 456640, Note_off_c, 0, 50, 40
1, 456642, Control_c, 0, 64, 127
1, 456737, Note_off_c, 0, 66, 53
1, 456746, Note_off_c, 0, 57, 58
1, 456779, Note_off_c, 0, 62, 54
1, 457566, Note_on_c, 0, 64, 41
1, 457576, Note_on_c, 0, 55, 30
1, 457576, Note_on_c, 0, 62, 32
1, 457584, Note_on_c, 0, 50, 18
1, 457588, Note_on_c, 0, 35, 29
1, 457608, Control_c, 0, 64, 125
1, 457622, Control_c, 0, 64, 106
1, 457637, Control_c, 0, 64, 95
1, 457652, Control_c, 0, 64, 85
1, 457666, Control_c, 0, 64, 72
1, 457681, Control_c, 0, 64, 61
1, 457696, Control_c, 0, 64, 41
1, 457711, Control_c, 0, 64, 0
1, 457814, Control_c, 0, 64, 20
1, 457829, Control_c, 0, 64, 35
1, 457844, Control_c, 0, 64, 43
1, 457858, Control_c, 0, 64, 50
1, 457874, Control_c, 0, 64, 55
1, 457889, Control_c, 0, 64, 59
1, 457904, Control_c, 0, 64, 63
1, 457919, Control_c, 0, 64, 65
1, 457933, Control_c, 0, 64, 67
1, 457948, Control_c, 0, 64, 70
1, 457963, Control_c, 0, 64, 74
1, 457978, Control_c, 0, 64, 78
1, 457993, Control_c, 0, 64, 82
1, 458008, Control_c, 0, 64, 88
1, 458022, Control_c, 0, 64, 95
1, 458037, Control_c, 0, 64, 106
1, 458052, Control_c, 0, 64, 119
1, 458067, Control_c, 0, 64, 127
1, 458285, Note_off_c, 0, 35, 36
1, 458393, Note_off_c, 0, 50, 37
1, 458409, Note_off_c, 0, 64, 60
1, 458427, Note_off_c, 0, 55, 43
1, 458446, Note_off_c, 0, 62, 45
1, 459665, Note_on_c, 0, 66, 34
1, 459716, Note_on_c, 0, 38, 7
1, 459717, Note_on_c, 0, 62, 17
1, 459719, Control_c, 0, 64, 112
1, 459722, Poly_aftertouch_c, 0, 57, 127
1, 459734, Control_c, 0, 64, 96
1, 459735, Poly_aftertouch_c, 0, 50, 127
1, 459749, Control_c, 0, 64, 87
1, 459764, Control_c, 0, 64, 81
1, 459779, Control_c, 0, 64, 77
1, 459793, Control_c, 0, 64, 74
1, 459808, Control_c, 0, 64, 71
1, 459823, Control_c, 0, 64, 70
1, 459837, Control_c, 0, 64, 68
1, 459852, Control_c, 0, 64, 67
1, 459869, Control_c, 0, 64, 66
1, 459883, Control_c, 0, 64, 66
1, 459898, Control_c, 0, 64, 65
1, 459913, Control_c, 0, 64, 64
1, 459942, Control_c, 0, 64, 64
1, 460031, Control_c, 0, 64, 63
1, 460076, Control_c, 0, 64, 63
1, 460091, Control_c, 0, 64, 62
1, 460120, Control_c, 0, 64, 62
1, 460135, Control_c, 0, 64, 61
1, 460150, Control_c, 0, 64, 61
1, 460165, Control_c, 0, 64, 60
1, 460180, Control_c, 0, 64, 60
1, 460195, Control_c, 0, 64, 59
1, 460209, Control_c, 0, 64, 59
1, 460224, Control_c, 0, 64, 58
1, 460239, Control_c, 0, 64, 57
1, 460269, Control_c, 0, 64, 57
1, 460283, Control_c, 0, 64, 56
1, 460298, Control_c, 0, 64, 56
1, 460327, Control_c, 0, 64, 55
1, 460387, Control_c, 0, 64, 56
1, 460401, Control_c, 0, 64, 56
1, 460416, Control_c, 0, 64, 57
1, 460431, Control_c, 0, 64, 57
1, 460446, Control_c, 0, 64, 59
1, 460468, Control_c, 0, 64, 61
1, 460483, Control_c, 0, 64, 62
1, 460498, Control_c, 0, 64, 63
1, 460513, Control_c, 0, 64, 65
1, 460528, Control_c, 0, 64, 66
1, 460542, Control_c, 0, 64, 67
1, 460557, Control_c, 0, 64, 69
1, 460572, Control_c, 0, 64, 71
1, 460587, Control_c, 0, 64, 73
1, 460602, Control_c, 0, 64, 75
1, 460616, Control_c, 0, 64, 78
1, 460631, Control_c, 0, 64, 80
1, 460646, Control_c, 0, 64, 83
1, 460662, Control_c, 0, 64, 85
1, 460677, Control_c, 0, 64, 86
1, 460692, Control_c, 0, 64, 86
1, 460706, Control_c, 0, 64, 87
1, 460721, Control_c, 0, 64, 88
1, 460736, Control_c, 0, 64, 90
1, 460751, Control_c, 0, 64, 91
1, 460765, Control_c, 0, 64, 93
1, 460780, Control_c, 0, 64, 94
1, 460795, Control_c, 0, 64, 95
1, 460810, Control_c, 0, 64, 97
1, 460825, Control_c, 0, 64, 98
1, 460839, Control_c, 0, 64, 100
1, 460854, Control_c, 0, 64, 102
1, 460869, Control_c, 0, 64, 104
1, 460884, Control_c, 0, 64, 105
1, 460898, Control_c, 0, 64, 107
1, 460913, Control_c, 0, 64, 108
1, 460928, Control_c, 0, 64, 110
1, 460943, Control_c, 0, 64, 112
1, 460958, Control_c, 0, 64, 114
1, 460973, Control_c, 0, 64, 116
1, 460988, Control_c, 0, 64, 119
1, 461003, Control_c, 0, 64, 125
1, 461018, Control_c, 0, 64, 127
1, 461603, Control_c, 0, 64, 116
1, 461619, Control_c, 0, 64, 111
1, 461634, Control_c, 0, 64, 108
1, 461649, Control_c, 0, 64, 104
1, 461663, Control_c, 0, 64, 102
1, 461678, Control_c, 0, 64, 98
1, 461693, Control_c, 0, 64, 96
1, 461707, Control_c, 0, 64, 95
1, 461722, Control_c, 0, 64, 93
1, 461737, Control_c, 0, 64, 92
1, 461752, Control_c, 0, 64, 91
1, 461767, Control_c, 0, 64, 90
1, 461781, Control_c, 0, 64, 89
1, 461796, Control_c, 0, 64, 88
1, 461811, Control_c, 0, 64, 87
1, 461826, Control_c, 0, 64, 87
1, 461841, Control_c, 0, 64, 86
1, 461855, Control_c, 0, 64, 86
1, 461870, Control_c, 0, 64, 85
1, 461885, Control_c, 0, 64, 84
1, 461900, Control_c, 0, 64, 83
1, 461915, Control_c, 0, 64, 82
1, 461930, Control_c, 0, 64, 82
1, 461981, Control_c, 0, 64, 81
1, 461996, Control_c, 0, 64, 81
1, 462041, Control_c, 0, 64, 80
1, 462055, Control_c, 0, 64, 80
1, 462085, Control_c, 0, 64, 79
1, 462115, Control_c, 0, 64, 79
1, 462130, Control_c, 0, 64, 78
1, 462144, Control_c, 0, 64, 78
1, 462159, Control_c, 0, 64, 77
1, 462174, Control_c, 0, 64, 77
1, 462189, Control_c, 0, 64, 76
1, 462204, Control_c, 0, 64, 76
1, 462219, Control_c, 0, 64, 75
1, 462233, Control_c, 0, 64, 75
1, 462248, Control_c, 0, 64, 74
1, 462264, Control_c, 0, 64, 74
1, 462279, Control_c, 0, 64, 73
1, 462294, Control_c, 0, 64, 73
1, 462308, Control_c, 0, 64, 72
1, 462323, Control_c, 0, 64, 71
1, 462338, Control_c, 0, 64, 71
1, 462353, Control_c, 0, 64, 70
1, 462368, Control_c, 0, 64, 69
1, 462383, Control_c, 0, 64, 69
1, 462398, Control_c, 0, 64, 68
1, 462412, Control_c, 0, 64, 68
1, 462427, Control_c, 0, 64, 67
1, 462457, Control_c, 0, 64, 67
1, 462472, Control_c, 0, 64, 66
1, 462486, Control_c, 0, 64, 66
1, 462516, Control_c, 0, 64, 65
1, 462545, Control_c, 0, 64, 65
1, 462575, Control_c, 0, 64, 64
1, 462604, Control_c, 0, 64, 64
1, 462634, Control_c, 0, 64, 63
1, 462678, Control_c, 0, 64, 63
1, 462693, Control_c, 0, 64, 62
1, 462731, Control_c, 0, 64, 62
1, 462775, Control_c, 0, 64, 61
1, 462863, Control_c, 0, 64, 61
1, 462950, Poly_aftertouch_c, 0, 57, 0
1, 462982, Control_c, 0, 64, 60
1, 463014, Note_off_c, 0, 66, 31
1, 463027, Control_c, 0, 64, 60
1, 463042, Control_c, 0, 64, 59
1, 463051, Note_off_c, 0, 62, 35
1, 463057, Control_c, 0, 64, 59
1, 463068, Note_off_c, 0, 38, 33
1, 463072, Control_c, 0, 64, 58
1, 463087, Control_c, 0, 64, 57
1, 463101, Control_c, 0, 64, 56
1, 463104, Poly_aftertouch_c, 0, 50, 0
1, 463116, Control_c, 0, 64, 55
1, 463131, Control_c, 0, 64, 53
1, 463146, Control_c, 0, 64, 52
1, 463160, Control_c, 0, 64, 49
1, 463175, Control_c, 0, 64, 45
1, 463190, Control_c, 0, 64, 37
1, 463205, Control_c, 0, 64, 0
1, 464146, Control_c, 0, 64, 20
1, 464161, Control_c, 0, 64, 24
1, 464175, Control_c, 0, 64, 30
1, 464190, Control_c, 0, 64, 41
1, 464213, Control_c, 0, 64, 50
1, 464228, Control_c, 0, 64, 55
1, 464243, Control_c, 0, 64, 56
1, 464257, Control_c, 0, 64, 57
1, 464272, Control_c, 0, 64, 58
1, 464287, Control_c, 0, 64, 60
1, 464301, Control_c, 0, 64, 61
1, 464316, Control_c, 0, 64, 63
1, 464331, Control_c, 0, 64, 64
1, 464346, Control_c, 0, 64, 65
1, 464361, Control_c, 0, 64, 67
1, 464375, Control_c, 0, 64, 70
1, 464390, Control_c, 0, 64, 73
1, 464405, Control_c, 0, 64, 77
1, 464420, Control_c, 0, 64, 82
1, 464435, Control_c, 0, 64, 88
1, 464449, Control_c, 0, 64, 93
1, 464464, Control_c, 0, 64, 99
1, 464479, Control_c, 0, 64, 103
1, 464494, Control_c, 0, 64, 106
1, 464508, Control_c, 0, 64, 112
1, 464523, Control_c, 0, 64, 127
1, 465102, Note_on_c, 0, 67, 50
1, 465136, Note_on_c, 0, 52, 30
1, 465139, Note_on_c, 0, 59, 32
1, 465140, Note_on_c, 0, 64, 31
1, 465147, Note_on_c, 0, 40, 32
1, 465611, Note_off_c, 0, 64, 42
1, 465642, Note_off_c, 0, 59, 50
1, 465668, Note_off_c, 0, 52, 43
1, 466085, Note_on_c, 0, 69, 64
1, 466100, Note_on_c, 0, 64, 38
1, 466105, Note_on_c, 0, 60, 41
1, 466175, Note_off_c, 0, 67, 60
1, 466243, Note_off_c, 0, 64, 55
1, 466247, Note_off_c, 0, 60, 58
1, 466735, Note_on_c, 0, 67, 57
1, 466740, Note_on_c, 0, 64, 37
1, 466743, Note_on_c, 0, 59, 37
1, 466755, Note_on_c, 0, 45, 30
1, 466786, Note_on_c, 0, 33, 31
1, 466830, Control_c, 0, 64, 98
1, 466845, Control_c, 0, 64, 75
1, 466848, Note_off_c, 0, 69, 60
1, 466858, Control_c, 0, 64, 61
1, 466873, Control_c, 0, 64, 37
1, 466888, Control_c, 0, 64, 0
1, 466920, Note_off_c, 0, 40, 35
1, 466962, Control_c, 0, 64, 32
1, 466977, Control_c, 0, 64, 50
1, 466991, Control_c, 0, 64, 58
1, 467006, Control_c, 0, 64, 62
1, 467021, Control_c, 0, 64, 65
1, 467036, Control_c, 0, 64, 69
1, 467052, Control_c, 0, 64, 75
1, 467066, Control_c, 0, 64, 86
1, 467081, Control_c, 0, 64, 108
1, 467096, Control_c, 0, 64, 127
1, 467138, Note_off_c, 0, 33, 40
1, 467868, Note_on_c, 0, 52, 37
1, 467869, Note_off_c, 0, 59, 58
1, 467952, Note_off_c, 0, 64, 51
1, 467964, Note_off_c, 0, 67, 62
1, 468665, Note_on_c, 0, 71, 69
1, 468708, Note_on_c, 0, 64, 41
1, 468717, Note_on_c, 0, 60, 43
1, 468809, Note_off_c, 0, 60, 58
1, 468926, Note_off_c, 0, 64, 32
1, 469110, Note_on_c, 0, 67, 53
1, 469114, Note_on_c, 0, 62, 47
1, 469135, Control_c, 0, 64, 107
1, 469150, Control_c, 0, 64, 77
1, 469165, Control_c, 0, 64, 64
1, 469179, Control_c, 0, 64, 59
1, 469194, Control_c, 0, 64, 60
1, 469197, Poly_aftertouch_c, 0, 64, 127
1, 469209, Control_c, 0, 64, 64
1, 469224, Control_c, 0, 64, 68
1, 469239, Control_c, 0, 64, 75
1, 469254, Control_c, 0, 64, 85
1, 469266, Note_off_c, 0, 71, 62
1, 469269, Control_c, 0, 64, 95
1, 469284, Control_c, 0, 64, 107
1, 469298, Control_c, 0, 64, 127
1, 469326, Poly_aftertouch_c, 0, 64, 0
1, 469345, Note_off_c, 0, 62, 60
1, 469706, Note_on_c, 0, 69, 64
1, 469716, Note_on_c, 0, 60, 36
1, 469717, Note_on_c, 0, 64, 30
1, 469773, Note_off_c, 0, 67, 62
1, 469785, Note_off_c, 0, 64, 61
1, 469809, Note_off_c, 0, 60, 61
1, 469912, Note_off_c, 0, 52, 41
1, 469985, Note_on_c, 0, 50, 41
1, 470038, Poly_aftertouch_c, 0, 64, 127
1, 470072, Note_on_c, 0, 59, 37
1, 470075, Note_on_c, 0, 66, 58
1, 470076, Control_c, 0, 64, 110
1, 470091, Control_c, 0, 64, 73
1, 470106, Control_c, 0, 64, 52
1, 470120, Control_c, 0, 64, 0
1, 470180, Control_c, 0, 64, 39
1, 470181, Note_off_c, 0, 69, 50
1, 470202, Control_c, 0, 64, 55
1, 470217, Control_c, 0, 64, 62
1, 470232, Control_c, 0, 64, 66
1, 470247, Control_c, 0, 64, 70
1, 470262, Control_c, 0, 64, 75
1, 470270, Note_off_c, 0, 45, 46
1, 470277, Control_c, 0, 64, 81
1, 470291, Control_c, 0, 64, 90
1, 470306, Control_c, 0, 64, 104
1, 470321, Control_c, 0, 64, 127
1, 470368, Poly_aftertouch_c, 0, 64, 0
1, 470381, Note_off_c, 0, 59, 32
1, 470559, Note_on_c, 0, 54, 38
1, 470622, Note_on_c, 0, 60, 40
1, 470639, Note_off_c, 0, 50, 37
1, 470698, Note_on_c, 0, 62, 43
1, 470710, Note_off_c, 0, 54, 34
1, 470762, Note_on_c, 0, 69, 63
1, 470804, Note_off_c, 0, 66, 58
1, 470805, Note_off_c, 0, 60, 38
1, 470856, Note_off_c, 0, 62, 53
1, 471250, Note_on_c, 0, 64, 36
1, 471263, Note_on_c, 0, 59, 35
1, 471264, Note_on_c, 0, 66, 49
1, 471284, Note_on_c, 0, 43, 29
1, 471291, Note_on_c, 0, 31, 26
1, 471337, Control_c, 0, 64, 111
1, 471352, Control_c, 0, 64, 87
1, 471366, Control_c, 0, 64, 71
1, 471381, Control_c, 0, 64, 58
1, 471396, Control_c, 0, 64, 35
1, 471411, Control_c, 0, 64, 15
1, 471427, Note_off_c, 0, 69, 57
1, 471440, Control_c, 0, 64, 21
1, 471455, Control_c, 0, 64, 37
1, 471470, Control_c, 0, 64, 51
1, 471485, Control_c, 0, 64, 58
1, 471500, Control_c, 0, 64, 61
1, 471514, Control_c, 0, 64, 63
1, 471529, Control_c, 0, 64, 65
1, 471544, Control_c, 0, 64, 68
1, 471558, Control_c, 0, 64, 71
1, 471573, Note_off_c, 0, 31, 41
1, 471573, Control_c, 0, 64, 76
1, 471588, Control_c, 0, 64, 84
1, 471603, Control_c, 0, 64, 94
1, 471618, Control_c, 0, 64, 106
1, 471633, Control_c, 0, 64, 127
1, 472236, Note_on_c, 0, 50, 26
1, 472357, Note_off_c, 0, 59, 38
1, 473020, Note_on_c, 0, 69, 56
1, 473051, Note_on_c, 0, 59, 35
1, 473070, Note_on_c, 0, 62, 39
1, 473098, Note_off_c, 0, 66, 53
1, 473114, Note_off_c, 0, 64, 41
1, 473165, Note_off_c, 0, 59, 55
1, 473257, Note_off_c, 0, 62, 34
1, 473431, Note_on_c, 0, 66, 64
1, 473461, Note_on_c, 0, 60, 39
1, 473501, Poly_aftertouch_c, 0, 64, 127
1, 473522, Note_off_c, 0, 69, 63
1, 473627, Note_off_c, 0, 60, 54
1, 473965, Note_on_c, 0, 67, 72
1, 473999, Note_on_c, 0, 59, 46
1, 474003, Note_on_c, 0, 62, 44
1, 474008, Poly_aftertouch_c, 0, 64, 0
1, 474027, Note_off_c, 0, 66, 54
1, 474068, Note_off_c, 0, 59, 54
1, 474180, Note_off_c, 0, 50, 40
1, 474230, Note_on_c, 0, 48, 48
1, 474277, Note_off_c, 0, 62, 44
1, 474288, Control_c, 0, 64, 92
1, 474301, Note_on_c, 0, 64, 68
1, 474303, Control_c, 0, 64, 65
1, 474318, Note_on_c, 0, 59, 46
1, 474318, Control_c, 0, 64, 0
1, 474330, Note_off_c, 0, 67, 61
1, 474377, Control_c, 0, 64, 39
1, 474391, Control_c, 0, 64, 60
1, 474401, Note_off_c, 0, 43, 58
1, 474406, Control_c, 0, 64, 68
1, 474410, Note_off_c, 0, 48, 63
1, 474421, Control_c, 0, 64, 82
1, 474434, Note_off_c, 0, 59, 64
1, 474436, Control_c, 0, 64, 110
1, 474451, Control_c, 0, 64, 127
1, 474506, Note_off_c, 0, 64, 64
1, 474646, Note_on_c, 0, 52, 54
1, 474740, Note_on_c, 0, 55, 54
1, 474747, Note_on_c, 0, 60, 55
1, 474751, Note_off_c, 0, 52, 58
1, 474801, Note_off_c, 0, 55, 63
1, 474810, Note_on_c, 0, 64, 57
1, 474878, Note_on_c, 0, 71, 80
1, 474936, Note_off_c, 0, 64, 62
1, 474962, Note_off_c, 0, 71, 62
1, 475018, Note_off_c, 0, 60, 57
1, 475365, Note_on_c, 0, 64, 55
1, 475373, Note_on_c, 0, 59, 43
1, 475374, Note_on_c, 0, 30, 43
1, 475374, Note_on_c, 0, 62, 47
1, 475379, Note_on_c, 0, 42, 37
1, 475407, Control_c, 0, 64, 101
1, 475421, Control_c, 0, 64, 77
1, 475444, Control_c, 0, 64, 61
1, 475459, Control_c, 0, 64, 0
1, 475607, Control_c, 0, 64, 11
1, 475621, Control_c, 0, 64, 35
1, 475636, Control_c, 0, 64, 53
1, 475651, Control_c, 0, 64, 61
1, 475666, Control_c, 0, 64, 65
1, 475681, Control_c, 0, 64, 69
1, 475696, Control_c, 0, 64, 74
1, 475711, Control_c, 0, 64, 79
1, 475725, Control_c, 0, 64, 85
1, 475731, Note_off_c, 0, 30, 40
1, 475740, Control_c, 0, 64, 94
1, 475755, Control_c, 0, 64, 107
1, 475770, Control_c, 0, 64, 127
1, 476331, Note_on_c, 0, 48, 20
1, 476347, Note_off_c, 0, 59, 55
1, 476971, Note_on_c, 0, 67, 47
1, 476998, Note_on_c, 0, 57, 34
1, 476998, Note_on_c, 0, 60, 32
1, 477032, Note_off_c, 0, 62, 9
1, 477041, Note_off_c, 0, 64, 37
1, 477106, Note_off_c, 0, 57, 55
1, 477193, Note_off_c, 0, 60, 39
1, 477349, Note_on_c, 0, 64, 50
1, 477359, Note_on_c, 0, 59, 42
1, 477412, Note_on_c, 0, 62, 11
1, 477419, Note_off_c, 0, 67, 61
1, 477528, Poly_aftertouch_c, 0, 60, 127
1, 477562, Note_off_c, 0, 59, 59
1, 477562, Poly_aftertouch_c, 0, 60, 0
1, 477886, Note_off_c, 0, 42, 35
1, 477929, Note_on_c, 0, 66, 62
1, 477949, Note_on_c, 0, 57, 52
1, 477973, Note_on_c, 0, 60, 39
1, 477994, Note_off_c, 0, 62, 52
1, 478000, Note_off_c, 0, 64, 40
1, 478137, Note_off_c, 0, 48, 36
1, 478272, Note_on_c, 0, 47, 43
1, 478343, Control_c, 0, 64, 81
1, 478358, Control_c, 0, 64, 63
1, 478358, Note_on_c, 0, 63, 67
1, 478373, Control_c, 0, 64, 41
1, 478387, Control_c, 0, 64, 39
1, 478402, Control_c, 0, 64, 46
1, 478417, Control_c, 0, 64, 58
1, 478438, Control_c, 0, 64, 66
1, 478453, Note_off_c, 0, 66, 63
1, 478453, Control_c, 0, 64, 74
1, 478468, Control_c, 0, 64, 87
1, 478483, Control_c, 0, 64, 106
1, 478492, Note_off_c, 0, 60, 41
1, 478498, Control_c, 0, 64, 127
1, 478501, Note_off_c, 0, 57, 65
1, 478534, Note_off_c, 0, 63, 63
1, 478838, Note_on_c, 0, 48, 42
1, 478892, Note_off_c, 0, 47, 62
1, 478903, Note_on_c, 0, 64, 72
1, 478919, Note_on_c, 0, 59, 56
1, 478925, Note_on_c, 0, 56, 63
1, 479043, Note_off_c, 0, 64, 63
1, 479057, Note_off_c, 0, 56, 63
1, 479065, Note_off_c, 0, 59, 58
1, 479320, Note_on_c, 0, 49, 44
1, 479333, Note_on_c, 0, 40, 44
1, 479391, Note_on_c, 0, 66, 74
1, 479392, Note_on_c, 0, 58, 49
1, 479400, Note_on_c, 0, 55, 57
1, 479410, Control_c, 0, 64, 92
1, 479413, Poly_aftertouch_c, 0, 62, 127
1, 479425, Control_c, 0, 64, 67
1, 479440, Control_c, 0, 64, 41
1, 479454, Control_c, 0, 64, 0
1, 479461, Note_off_c, 0, 48, 37
1, 479484, Control_c, 0, 64, 41
1, 479499, Control_c, 0, 64, 59
1, 479514, Control_c, 0, 64, 66
1, 479528, Control_c, 0, 64, 73
1, 479534, Note_off_c, 0, 55, 62
1, 479543, Poly_aftertouch_c, 0, 62, 0
1, 479543, Control_c, 0, 64, 78
1, 479558, Control_c, 0, 64, 81
1, 479573, Control_c, 0, 64, 84
1, 479576, Note_off_c, 0, 58, 63
1, 479587, Control_c, 0, 64, 88
1, 479602, Control_c, 0, 64, 95
1, 479615, Note_off_c, 0, 66, 63
1, 479617, Control_c, 0, 64, 103
1, 479632, Control_c, 0, 64, 112
1, 479646, Control_c, 0, 64, 115
1, 479661, Control_c, 0, 64, 116
1, 479692, Note_off_c, 0, 40, 38
1, 479722, Note_off_c, 0, 49, 63
1, 479735, Control_c, 0, 64, 115
1, 479750, Control_c, 0, 64, 115
1, 479765, Control_c, 0, 64, 114
1, 479780, Control_c, 0, 64, 113
1, 479794, Control_c, 0, 64, 112
1, 479809, Control_c, 0, 64, 110
1, 479825, Control_c, 0, 64, 108
1, 479840, Control_c, 0, 64, 104
1, 479851, Note_on_c, 0, 67, 70
1, 479855, Control_c, 0, 64, 102
1, 479869, Control_c, 0, 64, 99
1, 479884, Control_c, 0, 64, 96
1, 479899, Control_c, 0, 64, 94
1, 479914, Control_c, 0, 64, 91
1, 479937, Control_c, 0, 64, 87
1, 479951, Control_c, 0, 64, 84
1, 479966, Control_c, 0, 64, 82
1, 479980, Note_on_c, 0, 61, 53
1, 479981, Control_c, 0, 64, 80
1, 479996, Control_c, 0, 64, 79
1, 480011, Control_c, 0, 64, 78
1, 480025, Control_c, 0, 64, 77
1, 480040, Control_c, 0, 64, 76
1, 480055, Control_c, 0, 64, 76
1, 480057, Note_on_c, 0, 70, 78
1, 480070, Control_c, 0, 64, 75
1, 480084, Control_c, 0, 64, 74
1, 480099, Control_c, 0, 64, 73
1, 480114, Control_c, 0, 64, 73
1, 480129, Control_c, 0, 64, 72
1, 480144, Control_c, 0, 64, 72
1, 480188, Control_c, 0, 64, 71
1, 480241, Note_on_c, 0, 64, 47
1, 480248, Control_c, 0, 64, 71
1, 480277, Control_c, 0, 64, 70
1, 480309, Note_on_c, 0, 75, 70
1, 480322, Control_c, 0, 64, 70
1, 480351, Control_c, 0, 64, 69
1, 480366, Control_c, 0, 64, 69
1, 480377, Note_off_c, 0, 67, 20
1, 480396, Control_c, 0, 64, 68
1, 480411, Note_off_c, 0, 61, 60
1, 480425, Control_c, 0, 64, 68
1, 480455, Control_c, 0, 64, 67
1, 480484, Control_c, 0, 64, 67
1, 480507, Note_on_c, 0, 76, 73
1, 480529, Control_c, 0, 64, 66
1, 480575, Note_off_c, 0, 75, 62
1, 480774, Note_on_c, 0, 59, 29
1, 480907, Control_c, 0, 64, 66
1, 480915, Note_on_c, 0, 78, 68
1, 480952, Control_c, 0, 64, 65
1, 480967, Control_c, 0, 64, 64
1, 480981, Control_c, 0, 64, 64
1, 480996, Note_off_c, 0, 76, 62
1, 480996, Control_c, 0, 64, 63
1, 481011, Control_c, 0, 64, 62
1, 481026, Control_c, 0, 64, 60
1, 481040, Control_c, 0, 64, 58
1, 481055, Control_c, 0, 64, 56
1, 481070, Control_c, 0, 64, 52
1, 481085, Control_c, 0, 64, 49
1, 481100, Control_c, 0, 64, 45
1, 481115, Control_c, 0, 64, 42
1, 481130, Control_c, 0, 64, 40
1, 481174, Control_c, 0, 64, 43
1, 481189, Control_c, 0, 64, 51
1, 481204, Control_c, 0, 64, 57
1, 481219, Control_c, 0, 64, 60
1, 481233, Control_c, 0, 64, 61
1, 481248, Control_c, 0, 64, 62
1, 481263, Control_c, 0, 64, 64
1, 481278, Control_c, 0, 64, 68
1, 481293, Control_c, 0, 64, 73
1, 481307, Control_c, 0, 64, 84
1, 481322, Control_c, 0, 64, 96
1, 481337, Control_c, 0, 64, 110
1, 481352, Control_c, 0, 64, 127
1, 481612, Control_c, 0, 64, 122
1, 481627, Control_c, 0, 64, 119
1, 481642, Control_c, 0, 64, 115
1, 481656, Control_c, 0, 64, 114
1, 481671, Control_c, 0, 64, 112
1, 481686, Control_c, 0, 64, 109
1, 481701, Control_c, 0, 64, 108
1, 481716, Control_c, 0, 64, 106
1, 481730, Control_c, 0, 64, 105
1, 481745, Control_c, 0, 64, 103
1, 481760, Control_c, 0, 64, 102
1, 481775, Control_c, 0, 64, 100
1, 481790, Control_c, 0, 64, 98
1, 481804, Control_c, 0, 64, 98
1, 481819, Control_c, 0, 64, 97
1, 481834, Control_c, 0, 64, 96
1, 481848, Control_c, 0, 64, 96
1, 481878, Control_c, 0, 64, 95
1, 481893, Control_c, 0, 64, 95
1, 481908, Control_c, 0, 64, 94
1, 481923, Control_c, 0, 64, 93
1, 481938, Control_c, 0, 64, 92
1, 481997, Control_c, 0, 64, 92
1, 482012, Control_c, 0, 64, 91
1, 482027, Control_c, 0, 64, 90
1, 482041, Control_c, 0, 64, 90
1, 482056, Control_c, 0, 64, 88
1, 482071, Control_c, 0, 64, 88
1, 482082, Note_on_c, 0, 71, 36
1, 482086, Control_c, 0, 64, 87
1, 482101, Control_c, 0, 64, 86
1, 482103, Note_on_c, 0, 63, 23
1, 482116, Control_c, 0, 64, 85
1, 482130, Control_c, 0, 64, 83
1, 482145, Control_c, 0, 64, 80
1, 482160, Control_c, 0, 64, 77
1, 482182, Control_c, 0, 64, 75
1, 482197, Control_c, 0, 64, 73
1, 482212, Control_c, 0, 64, 72
1, 482227, Control_c, 0, 64, 71
1, 482228, Note_off_c, 0, 64, 55
1, 482228, Note_off_c, 0, 70, 55
1, 482242, Control_c, 0, 64, 69
1, 482257, Control_c, 0, 64, 67
1, 482272, Control_c, 0, 64, 65
1, 482286, Control_c, 0, 64, 64
1, 482301, Control_c, 0, 64, 63
1, 482316, Control_c, 0, 64, 62
1, 482331, Control_c, 0, 64, 61
1, 482346, Control_c, 0, 64, 60
1, 482361, Control_c, 0, 64, 59
1, 482376, Control_c, 0, 64, 59
1, 482391, Control_c, 0, 64, 58
1, 482406, Control_c, 0, 64, 57
1, 482421, Control_c, 0, 64, 57
1, 482435, Control_c, 0, 64, 56
1, 482450, Control_c, 0, 64, 56
1, 482479, Control_c, 0, 64, 55
1, 482553, Control_c, 0, 64, 56
1, 482568, Control_c, 0, 64, 58
1, 482583, Control_c, 0, 64, 61
1, 482598, Control_c, 0, 64, 64
1, 482613, Control_c, 0, 64, 67
1, 482627, Control_c, 0, 64, 70
1, 482642, Control_c, 0, 64, 72
1, 482657, Control_c, 0, 64, 76
1, 482671, Control_c, 0, 64, 79
1, 482686, Control_c, 0, 64, 83
1, 482701, Control_c, 0, 64, 87
1, 482716, Control_c, 0, 64, 93
1, 482731, Control_c, 0, 64, 98
1, 482746, Control_c, 0, 64, 101
1, 482760, Control_c, 0, 64, 103
1, 482775, Control_c, 0, 64, 104
1, 482850, Control_c, 0, 64, 103
1, 482864, Control_c, 0, 64, 102
1, 482879, Control_c, 0, 64, 102
1, 482894, Control_c, 0, 64, 101
1, 482909, Control_c, 0, 64, 100
1, 482931, Control_c, 0, 64, 99
1, 482946, Control_c, 0, 64, 98
1, 482960, Control_c, 0, 64, 98
1, 482975, Control_c, 0, 64, 97
1, 482990, Control_c, 0, 64, 96
1, 483005, Control_c, 0, 64, 96
1, 483020, Control_c, 0, 64, 95
1, 483036, Control_c, 0, 64, 94
1, 483050, Control_c, 0, 64, 93
1, 483065, Control_c, 0, 64, 92
1, 483080, Control_c, 0, 64, 91
1, 483095, Control_c, 0, 64, 89
1, 483109, Control_c, 0, 64, 88
1, 483124, Control_c, 0, 64, 87
1, 483139, Control_c, 0, 64, 86
1, 483154, Control_c, 0, 64, 85
1, 483169, Control_c, 0, 64, 84
1, 483184, Control_c, 0, 64, 83
1, 483199, Control_c, 0, 64, 82
1, 483214, Control_c, 0, 64, 81
1, 483228, Control_c, 0, 64, 80
1, 483243, Control_c, 0, 64, 79
1, 483258, Control_c, 0, 64, 78
1, 483273, Control_c, 0, 64, 77
1, 483288, Control_c, 0, 64, 76
1, 483302, Control_c, 0, 64, 75
1, 483317, Control_c, 0, 64, 73
1, 483332, Control_c, 0, 64, 72
1, 483347, Control_c, 0, 64, 71
1, 483362, Control_c, 0, 64, 70
1, 483376, Control_c, 0, 64, 70
1, 483406, Control_c, 0, 64, 69
1, 483420, Control_c, 0, 64, 69
1, 483435, Control_c, 0, 64, 68
1, 483450, Control_c, 0, 64, 67
1, 483465, Control_c, 0, 64, 67
1, 483480, Control_c, 0, 64, 66
1, 483494, Control_c, 0, 64, 66
1, 483539, Control_c, 0, 64, 65
1, 483568, Control_c, 0, 64, 65
1, 483658, Control_c, 0, 64, 64
1, 483724, Control_c, 0, 64, 64
1, 483783, Control_c, 0, 64, 63
1, 483829, Control_c, 0, 64, 63
1, 483859, Control_c, 0, 64, 62
1, 483871, Note_off_c, 0, 78, 57
1, 483872, Note_off_c, 0, 71, 52
1, 483873, Control_c, 0, 64, 62
1, 483918, Control_c, 0, 64, 61
1, 483926, Note_off_c, 0, 63, 43
1, 483947, Control_c, 0, 64, 61
1, 483962, Note_off_c, 0, 59, 36
1, 483962, Control_c, 0, 64, 60
1, 484006, Control_c, 0, 64, 60
1, 484021, Control_c, 0, 64, 59
1, 484051, Control_c, 0, 64, 59
1, 484066, Control_c, 0, 64, 58
1, 484081, Control_c, 0, 64, 58
1, 484096, Control_c, 0, 64, 57
1, 484111, Control_c, 0, 64, 56
1, 484125, Control_c, 0, 64, 56
1, 484140, Control_c, 0, 64, 55
1, 484155, Control_c, 0, 64, 55
1, 484185, Control_c, 0, 64, 54
1, 484273, Control_c, 0, 64, 55
1, 484288, Control_c, 0, 64, 55
1, 484303, Control_c, 0, 64, 56
1, 484332, Control_c, 0, 64, 56
1, 484347, Control_c, 0, 64, 57
1, 484362, Control_c, 0, 64, 58
1, 484377, Control_c, 0, 64, 58
1, 484391, Control_c, 0, 64, 59
1, 484406, Control_c, 0, 64, 59
1, 484429, Control_c, 0, 64, 60
1, 484443, Control_c, 0, 64, 60
1, 484458, Control_c, 0, 64, 61
1, 484473, Control_c, 0, 64, 61
1, 484503, Control_c, 0, 64, 62
1, 484517, Control_c, 0, 64, 62
1, 484547, Control_c, 0, 64, 63
1, 484562, Control_c, 0, 64, 63
1, 484577, Control_c, 0, 64, 64
1, 484606, Control_c, 0, 64, 64
1, 484622, Control_c, 0, 64, 65
1, 484637, Control_c, 0, 64, 65
1, 484666, Control_c, 0, 64, 66
1, 484696, Control_c, 0, 64, 66
1, 484711, Control_c, 0, 64, 67
1, 484726, Control_c, 0, 64, 67
1, 484740, Control_c, 0, 64, 68
1, 484755, Control_c, 0, 64, 68
1, 484770, Control_c, 0, 64, 69
1, 484785, Control_c, 0, 64, 69
1, 484800, Control_c, 0, 64, 70
1, 484815, Control_c, 0, 64, 71
1, 484829, Control_c, 0, 64, 72
1, 484844, Control_c, 0, 64, 73
1, 484859, Control_c, 0, 64, 74
1, 484874, Control_c, 0, 64, 75
1, 484889, Control_c, 0, 64, 76
1, 484904, Control_c, 0, 64, 77
1, 484919, Control_c, 0, 64, 78
1, 484934, Control_c, 0, 64, 80
1, 484948, Control_c, 0, 64, 81
1, 484963, Control_c, 0, 64, 83
1, 484978, Control_c, 0, 64, 84
1, 484993, Control_c, 0, 64, 86
1, 485008, Control_c, 0, 64, 87
1, 485022, Control_c, 0, 64, 89
1, 485037, Control_c, 0, 64, 90
1, 485052, Control_c, 0, 64, 92
1, 485066, Control_c, 0, 64, 93
1, 485081, Control_c, 0, 64, 95
1, 485096, Control_c, 0, 64, 96
1, 485111, Control_c, 0, 64, 97
1, 485126, Control_c, 0, 64, 99
1, 485140, Control_c, 0, 64, 101
1, 485155, Control_c, 0, 64, 103
1, 485178, Control_c, 0, 64, 106
1, 485193, Control_c, 0, 64, 108
1, 485208, Control_c, 0, 64, 109
1, 485237, Control_c, 0, 64, 110
1, 485267, Control_c, 0, 64, 110
1, 485296, Control_c, 0, 64, 111
1, 485326, Control_c, 0, 64, 112
1, 485354, Note_on_c, 0, 67, 40
1, 485355, Control_c, 0, 64, 113
1, 485370, Control_c, 0, 64, 115
1, 485385, Note_on_c, 0, 52, 32
1, 485385, Control_c, 0, 64, 125
1, 485387, Note_on_c, 0, 59, 29
1, 485399, Note_on_c, 0, 64, 26
1, 485400, Control_c, 0, 64, 127
1, 485793, Note_off_c, 0, 67, 53
1, 485859, Note_off_c, 0, 64, 40
1, 485871, Note_off_c, 0, 59, 41
1, 485936, Note_off_c, 0, 52, 43
1, 486296, Note_on_c, 0, 60, 36
1, 486297, Note_on_c, 0, 69, 43
1, 486301, Note_on_c, 0, 64, 38
1, 486335, Note_on_c, 0, 40, 21
1, 486475, Note_off_c, 0, 40, 41
1, 486503, Note_off_c, 0, 60, 55
1, 486541, Note_off_c, 0, 64, 40
1, 486611, Note_off_c, 0, 69, 36
1, 487008, Note_on_c, 0, 67, 35
1, 487017, Note_on_c, 0, 62, 22
1, 487019, Note_on_c, 0, 64, 33
1, 487029, Note_on_c, 0, 45, 14
1, 487062, Control_c, 0, 64, 99
1, 487070, Note_on_c, 0, 33, 12
1, 487077, Control_c, 0, 64, 74
1, 487091, Control_c, 0, 64, 56
1, 487106, Control_c, 0, 64, 24
1, 487121, Control_c, 0, 64, 11
1, 487135, Control_c, 0, 64, 15
1, 487150, Control_c, 0, 64, 39
1, 487165, Control_c, 0, 64, 55
1, 487180, Control_c, 0, 64, 63
1, 487195, Control_c, 0, 64, 66
1, 487209, Control_c, 0, 64, 70
1, 487224, Control_c, 0, 64, 74
1, 487239, Control_c, 0, 64, 80
1, 487254, Control_c, 0, 64, 89
1, 487268, Control_c, 0, 64, 109
1, 487283, Control_c, 0, 64, 127
1, 487294, Note_off_c, 0, 33, 39
1, 487309, Note_off_c, 0, 67, 61
1, 487336, Note_off_c, 0, 64, 46
1, 487362, Note_off_c, 0, 45, 49
1, 487467, Note_off_c, 0, 62, 42
1, 487877, Note_on_c, 0, 79, 40
1, 487896, Note_on_c, 0, 52, 20
1, 488075, Note_off_c, 0, 52, 38
1, 488164, Note_off_c, 0, 79, 50
1, 488230, Note_on_c, 0, 76, 35
1, 488258, Note_on_c, 0, 64, 27
1, 488312, Note_off_c, 0, 76, 55
1, 488416, Note_off_c, 0, 64, 35
1, 488839, Note_on_c, 0, 71, 65
1, 488856, Note_on_c, 0, 55, 29
1, 488889, Note_on_c, 0, 60, 34
1, 488946, Poly_aftertouch_c, 0, 64, 127
1, 489007, Note_off_c, 0, 60, 55
1, 489083, Note_off_c, 0, 55, 44
1, 489232, Note_on_c, 0, 52, 24
1, 489235, Note_on_c, 0, 67, 61
1, 489238, Note_on_c, 0, 62, 47
1, 489366, Note_off_c, 0, 52, 53
1, 489379, Note_off_c, 0, 71, 62
1, 489447, Note_off_c, 0, 62, 61
1, 489450, Poly_aftertouch_c, 0, 64, 0
1, 489800, Note_on_c, 0, 69, 70
1, 489806, Note_on_c, 0, 45, 42
1, 489816, Note_on_c, 0, 60, 46
1, 489817, Note_on_c, 0, 64, 32
1, 489855, Note_off_c, 0, 64, 61
1, 489861, Note_off_c, 0, 67, 64
1, 489903, Note_off_c, 0, 60, 65
1, 490108, Note_off_c, 0, 69, 60
1, 490114, Note_on_c, 0, 50, 40
1, 490163, Note_on_c, 0, 62, 10
1, 490174, Control_c, 0, 64, 77
1, 490189, Note_on_c, 0, 66, 55
1, 490189, Control_c, 0, 64, 58
1, 490204, Control_c, 0, 64, 39
1, 490206, Note_on_c, 0, 59, 46
1, 490219, Control_c, 0, 64, 42
1, 490234, Control_c, 0, 64, 53
1, 490248, Control_c, 0, 64, 65
1, 490263, Control_c, 0, 64, 77
1, 490264, Note_off_c, 0, 59, 61
1, 490275, Note_off_c, 0, 62, 57
1, 490278, Control_c, 0, 64, 127
1, 490328, Note_off_c, 0, 66, 63
1, 490493, Note_off_c, 0, 45, 37
1, 490514, Note_on_c, 0, 74, 50
1, 490550, Note_off_c, 0, 74, 63
1, 490785, Note_on_c, 0, 69, 62
1, 490806, Note_on_c, 0, 57, 39
1, 490811, Note_on_c, 0, 54, 42
1, 490815, Note_on_c, 0, 60, 42
1, 490856, Note_off_c, 0, 54, 63
1, 490860, Note_off_c, 0, 50, 63
1, 490903, Note_off_c, 0, 57, 61
1, 490914, Note_off_c, 0, 60, 62
1, 491024, Note_off_c, 0, 69, 55
1, 491302, Note_on_c, 0, 43, 37
1, 491323, Note_on_c, 0, 66, 47
1, 491331, Note_on_c, 0, 31, 23
1, 491335, Note_on_c, 0, 60, 28
1, 491345, Control_c, 0, 64, 84
1, 491356, Note_on_c, 0, 64, 38
1, 491360, Control_c, 0, 64, 63
1, 491375, Control_c, 0, 64, 0
1, 491419, Control_c, 0, 64, 20
1, 491434, Control_c, 0, 64, 52
1, 491449, Control_c, 0, 64, 63
1, 491463, Control_c, 0, 64, 69
1, 491478, Control_c, 0, 64, 76
1, 491493, Control_c, 0, 64, 86
1, 491507, Control_c, 0, 64, 109
1, 491515, Note_off_c, 0, 60, 52
1, 491522, Control_c, 0, 64, 127
1, 491537, Note_off_c, 0, 64, 52
1, 491538, Note_off_c, 0, 31, 38
1, 491577, Note_off_c, 0, 43, 39
1, 491581, Note_off_c, 0, 66, 61
1, 492137, Note_on_c, 0, 50, 30
1, 492144, Note_on_c, 0, 78, 44
1, 492264, Note_off_c, 0, 50, 35
1, 492359, Note_off_c, 0, 78, 34
1, 492481, Note_on_c, 0, 74, 46
1, 492484, Note_on_c, 0, 62, 25
1, 492556, Note_off_c, 0, 74, 53
1, 492616, Note_off_c, 0, 62, 34
1, 493062, Note_on_c, 0, 69, 69
1, 493089, Note_on_c, 0, 54, 44
1, 493093, Note_on_c, 0, 59, 41
1, 493104, Note_on_c, 0, 62, 37
1, 493179, Note_off_c, 0, 59, 60
1, 493216, Note_off_c, 0, 54, 52
1, 493305, Note_off_c, 0, 62, 36
1, 493416, Note_on_c, 0, 50, 41
1, 493461, Note_on_c, 0, 66, 72
1, 493479, Note_on_c, 0, 60, 56
1, 493485, Note_off_c, 0, 50, 64
1, 493555, Note_off_c, 0, 69, 57
1, 493602, Note_off_c, 0, 60, 63
1, 493938, Note_on_c, 0, 67, 79
1, 493963, Note_on_c, 0, 43, 52
1, 493972, Note_off_c, 0, 66, 61
1, 493973, Note_on_c, 0, 59, 53
1, 493975, Poly_aftertouch_c, 0, 64, 127
1, 493989, Note_on_c, 0, 62, 30
1, 494006, Poly_aftertouch_c, 0, 64, 0
1, 494025, Note_off_c, 0, 59, 60
1, 494029, Note_off_c, 0, 62, 51
1, 494251, Note_on_c, 0, 48, 61
1, 494297, Control_c, 0, 64, 76
1, 494311, Control_c, 0, 64, 48
1, 494316, Note_on_c, 0, 64, 72
1, 494326, Control_c, 0, 64, 0
1, 494332, Note_on_c, 0, 57, 57
1, 494334, Note_off_c, 0, 67, 57
1, 494342, Note_off_c, 0, 43, 62
1, 494371, Control_c, 0, 64, 57
1, 494386, Control_c, 0, 64, 70
1, 494401, Control_c, 0, 64, 96
1, 494415, Control_c, 0, 64, 127
1, 494446, Note_off_c, 0, 57, 63
1, 494488, Note_off_c, 0, 64, 64
1, 494629, Note_on_c, 0, 72, 57
1, 494649, Note_off_c, 0, 72, 62
1, 494818, Poly_aftertouch_c, 0, 41, 127
1, 494858, Note_off_c, 0, 48, 55
1, 494875, Note_on_c, 0, 40, 54
1, 494881, Note_on_c, 0, 67, 77
1, 494885, Note_on_c, 0, 55, 65
1, 494893, Poly_aftertouch_c, 0, 41, 0
1, 494895, Note_on_c, 0, 60, 55
1, 494938, Note_off_c, 0, 40, 63
1, 495036, Note_off_c, 0, 60, 59
1, 495089, Note_off_c, 0, 55, 62
1, 495301, Note_on_c, 0, 30, 52
1, 495313, Note_on_c, 0, 42, 50
1, 495340, Note_on_c, 0, 64, 73
1, 495361, Note_on_c, 0, 59, 48
1, 495370, Control_c, 0, 64, 73
1, 495385, Control_c, 0, 64, 40
1, 495400, Control_c, 0, 64, 0
1, 495447, Note_off_c, 0, 67, 62
1, 495459, Control_c, 0, 64, 54
1, 495474, Control_c, 0, 64, 66
1, 495489, Control_c, 0, 64, 79
1, 495504, Control_c, 0, 64, 127
1, 495531, Note_off_c, 0, 59, 62
1, 495562, Note_off_c, 0, 30, 59
1, 495565, Note_off_c, 0, 64, 64
1, 495629, Note_off_c, 0, 42, 61
1, 496046, Note_on_c, 0, 48, 41
1, 496066, Note_on_c, 0, 76, 52
1, 496175, Note_off_c, 0, 48, 44
1, 496179, Note_off_c, 0, 76, 54
1, 496368, Note_on_c, 0, 60, 4
1, 496381, Note_on_c, 0, 72, 52
1, 496428, Note_off_c, 0, 72, 65
1, 496530, Note_off_c, 0, 60, 53
1, 496942, Note_on_c, 0, 67, 75
1, 496947, Note_on_c, 0, 52, 48
1, 496959, Note_on_c, 0, 57, 55
1, 496961, Note_on_c, 0, 60, 49
1, 497078, Note_off_c, 0, 57, 56
1, 497203, Note_off_c, 0, 60, 55
1, 497239, Note_off_c, 0, 52, 62
1, 497243, Note_on_c, 0, 48, 57
1, 497325, Note_on_c, 0, 60, 14
1, 497335, Control_c, 0, 64, 107
1, 497337, Note_on_c, 0, 64, 75
1, 497342, Note_on_c, 0, 59, 65
1, 497350, Control_c, 0, 64, 70
1, 497365, Control_c, 0, 64, 58
1, 497374, Note_on_c, 0, 62, 21
1, 497380, Control_c, 0, 64, 57
1, 497396, Control_c, 0, 64, 60
1, 497407, Note_off_c, 0, 67, 63
1, 497411, Control_c, 0, 64, 66
1, 497425, Control_c, 0, 64, 80
1, 497440, Control_c, 0, 64, 127
1, 497479, Note_off_c, 0, 48, 63
1, 497494, Note_off_c, 0, 59, 63
1, 497752, Note_on_c, 0, 42, 59
1, 497797, Note_on_c, 0, 66, 80
1, 497827, Note_off_c, 0, 60, 39
1, 497830, Note_off_c, 0, 62, 39
1, 497834, Note_on_c, 0, 57, 29
1, 497838, Note_off_c, 0, 64, 64
1, 497871, Note_off_c, 0, 57, 51
1, 498071, Poly_aftertouch_c, 0, 45, 127
1, 498126, Note_on_c, 0, 47, 63
1, 498144, Control_c, 0, 64, 75
1, 498145, Poly_aftertouch_c, 0, 45, 0
1, 498155, Note_off_c, 0, 42, 40
1, 498158, Control_c, 0, 64, 56
1, 498167, Note_on_c, 0, 63, 80
1, 498173, Control_c, 0, 64, 44
1, 498183, Note_on_c, 0, 59, 37
1, 498188, Control_c, 0, 64, 51
1, 498196, Note_on_c, 0, 57, 54
1, 498204, Control_c, 0, 64, 62
1, 498207, Note_off_c, 0, 66, 60
1, 498207, Poly_aftertouch_c, 0, 58, 127
1, 498219, Control_c, 0, 64, 72
1, 498234, Control_c, 0, 64, 103
1, 498243, Poly_aftertouch_c, 0, 58, 0
1, 498244, Note_off_c, 0, 59, 59
1, 498248, Control_c, 0, 64, 127
1, 498349, Note_off_c, 0, 57, 38
1, 498407, Note_on_c, 0, 71, 76
1, 498412, Note_off_c, 0, 63, 62
1, 498431, Note_on_c, 0, 69, 60
1, 498452, Note_off_c, 0, 69, 39
1, 498463, Note_off_c, 0, 71, 64
1, 498553, Note_on_c, 0, 48, 74
1, 498576, Note_off_c, 0, 47, 63
1, 498616, Note_on_c, 0, 64, 72
1, 498617, Note_off_c, 0, 48, 63
1, 498651, Note_on_c, 0, 56, 69
1, 498665, Note_on_c, 0, 54, 45
1, 498697, Note_off_c, 0, 54, 54
1, 498722, Note_off_c, 0, 56, 63
1, 498845, Note_on_c, 0, 49, 67
1, 498853, Note_on_c, 0, 40, 62
1, 498854, Poly_aftertouch_c, 0, 63, 127
1, 498908, Control_c, 0, 64, 86
1, 498922, Control_c, 0, 64, 60
1, 498937, Control_c, 0, 64, 0
1, 498943, Note_on_c, 0, 66, 80
1, 498974, Poly_aftertouch_c, 0, 63, 0
1, 498974, Note_off_c, 0, 64, 65
1, 498997, Control_c, 0, 64, 57
1, 499012, Control_c, 0, 64, 67
1, 499027, Control_c, 0, 64, 75
1, 499029, Note_off_c, 0, 66, 65
1, 499042, Control_c, 0, 64, 87
1, 499055, Control_c, 0, 64, 104
1, 499069, Control_c, 0, 64, 127
1, 499144, Note_off_c, 0, 40, 63
1, 499185, Note_off_c, 0, 49, 64
1, 499259, Note_on_c, 0, 67, 84
1, 499382, Note_on_c, 0, 61, 70
1, 499444, Note_on_c, 0, 70, 85
1, 499579, Note_on_c, 0, 64, 70
1, 499607, Note_off_c, 0, 67, 47
1, 499652, Note_on_c, 0, 75, 85
1, 499684, Control_c, 0, 64, 81
1, 499699, Control_c, 0, 64, 65
1, 499714, Control_c, 0, 64, 57
1, 499728, Control_c, 0, 64, 59
1, 499743, Control_c, 0, 64, 63
1, 499758, Control_c, 0, 64, 68
1, 499773, Control_c, 0, 64, 77
1, 499788, Control_c, 0, 64, 92
1, 499805, Control_c, 0, 64, 127
1, 499824, Note_on_c, 0, 76, 86
1, 499867, Note_off_c, 0, 75, 63
1, 499880, Note_off_c, 0, 70, 62
1, 500074, Note_on_c, 0, 59, 56
1, 500075, Note_on_c, 0, 63, 56
1, 500102, Note_off_c, 0, 61, 59
1, 500115, Control_c, 0, 64, 112
1, 500130, Control_c, 0, 64, 71
1, 500149, Note_on_c, 0, 78, 85
1, 500153, Control_c, 0, 64, 39
1, 500168, Note_off_c, 0, 64, 62
1, 500168, Control_c, 0, 64, 0
1, 500193, Note_on_c, 0, 69, 48
1, 500226, Control_c, 0, 64, 52
1, 500241, Control_c, 0, 64, 63
1, 500256, Control_c, 0, 64, 67
1, 500265, Note_off_c, 0, 76, 59
1, 500271, Control_c, 0, 64, 72
1, 500286, Control_c, 0, 64, 78
1, 500300, Control_c, 0, 64, 87
1, 500315, Control_c, 0, 64, 106
1, 500330, Control_c, 0, 64, 127
1, 500407, Note_off_c, 0, 69, 64
1, 500408, Note_off_c, 0, 59, 63
1, 500622, Note_on_c, 0, 58, 57
1, 500652, Note_on_c, 0, 74, 4
1, 500672, Control_c, 0, 64, 96
1, 500687, Control_c, 0, 64, 75
1, 500702, Control_c, 0, 64, 72
1, 500708, Note_on_c, 0, 71, 75
1, 500716, Control_c, 0, 64, 76
1, 500721, Note_on_c, 0, 68, 64
1, 500731, Control_c, 0, 64, 84
1, 500746, Control_c, 0, 64, 106
1, 500761, Control_c, 0, 64, 127
1, 500823, Note_off_c, 0, 58, 62
1, 500840, Note_off_c, 0, 68, 51
1, 501086, Note_on_c, 0, 57, 44
1, 501182, Control_c, 0, 64, 80
1, 501197, Control_c, 0, 64, 55
1, 501198, Note_on_c, 0, 67, 65
1, 501212, Control_c, 0, 64, 0
1, 501214, Note_off_c, 0, 74, 4
1, 501262, Note_off_c, 0, 71, 63
1, 501287, Control_c, 0, 64, 55
1, 501301, Control_c, 0, 64, 64
1, 501315, Control_c, 0, 64, 68
1, 501330, Control_c, 0, 64, 74
1, 501345, Control_c, 0, 64, 79
1, 501359, Control_c, 0, 64, 85
1, 501374, Control_c, 0, 64, 92
1, 501376, Note_off_c, 0, 78, 63
1, 501390, Control_c, 0, 64, 102
1, 501405, Control_c, 0, 64, 127
1, 501421, Note_on_c, 0, 72, 84
1, 501424, Note_off_c, 0, 67, 61
1, 501579, Note_on_c, 0, 67, 63
1, 501624, Note_off_c, 0, 57, 63
1, 501636, Note_off_c, 0, 63, 62
1, 501650, Note_off_c, 0, 67, 61
1, 501681, Note_on_c, 0, 75, 89
1, 501742, Note_off_c, 0, 72, 64
1, 501859, Note_on_c, 0, 78, 90
1, 501899, Note_on_c, 0, 50, 54
1, 501913, Note_off_c, 0, 75, 61
1, 501954, Note_off_c, 0, 50, 60
1, 502005, Note_on_c, 0, 79, 90
1, 502034, Note_on_c, 0, 60, 62
1, 502044, Note_off_c, 0, 78, 66
1, 502049, Note_on_c, 0, 69, 31
1, 502084, Note_off_c, 0, 69, 52
1, 502096, Note_off_c, 0, 79, 63
1, 502232, Note_on_c, 0, 66, 48
1, 502273, Control_c, 0, 64, 110
1, 502287, Control_c, 0, 64, 67
1, 502297, Note_on_c, 0, 81, 86
1, 502302, Control_c, 0, 64, 0
1, 502311, Note_on_c, 0, 69, 68
1, 502331, Note_on_c, 0, 74, 46
1, 502346, Note_on_c, 0, 73, 45
1, 502347, Control_c, 0, 64, 47
1, 502361, Control_c, 0, 64, 65
1, 502369, Note_off_c, 0, 73, 58
1, 502376, Control_c, 0, 64, 80
1, 502380, Note_off_c, 0, 69, 64
1, 502384, Note_off_c, 0, 74, 64
1, 502399, Control_c, 0, 64, 127
1, 502414, Note_off_c, 0, 81, 67
1, 502515, Note_off_c, 0, 66, 45
1, 502640, Note_off_c, 0, 60, 38
1, 502665, Note_on_c, 0, 83, 87
1, 502686, Note_on_c, 0, 71, 72
1, 502836, Note_on_c, 0, 57, 46
1, 502839, Note_on_c, 0, 64, 47
1, 502861, Note_off_c, 0, 71, 64
1, 502870, Note_off_c, 0, 83, 65
1, 503017, Note_off_c, 0, 64, 53
1, 503087, Note_off_c, 0, 57, 47
1, 503108, Note_on_c, 0, 62, 46
1, 503111, Note_on_c, 0, 54, 48
1, 503202, Note_on_c, 0, 84, 80
1, 503206, Control_c, 0, 64, 81
1, 503221, Control_c, 0, 64, 60
1, 503236, Control_c, 0, 64, 27
1, 503245, Note_on_c, 0, 72, 52
1, 503246, Note_on_c, 0, 78, 47
1, 503251, Control_c, 0, 64, 26
1, 503266, Control_c, 0, 64, 39
1, 503281, Control_c, 0, 64, 57
1, 503296, Control_c, 0, 64, 66
1, 503311, Control_c, 0, 64, 76
1, 503316, Note_off_c, 0, 62, 64
1, 503325, Control_c, 0, 64, 90
1, 503331, Note_off_c, 0, 54, 64
1, 503340, Control_c, 0, 64, 112
1, 503355, Control_c, 0, 64, 127
1, 503472, Note_off_c, 0, 72, 55
1, 503666, Note_on_c, 0, 43, 42
1, 503681, Control_c, 0, 64, 79
1, 503696, Control_c, 0, 64, 60
1, 503710, Control_c, 0, 64, 29
1, 503725, Control_c, 0, 64, 26
1, 503740, Control_c, 0, 64, 42
1, 503755, Control_c, 0, 64, 61
1, 503770, Control_c, 0, 64, 70
1, 503786, Control_c, 0, 64, 86
1, 503792, Note_off_c, 0, 43, 56
1, 503801, Control_c, 0, 64, 127
1, 503820, Note_on_c, 0, 50, 51
1, 503859, Note_off_c, 0, 50, 63
1, 503860, Note_off_c, 0, 78, 63
1, 503958, Note_on_c, 0, 59, 34
1, 503978, Note_on_c, 0, 74, 43
1, 503988, Note_off_c, 0, 59, 55
1, 504057, Note_on_c, 0, 79, 53
1, 504068, Note_off_c, 0, 84, 63
1, 504294, Note_on_c, 0, 71, 41
1, 504309, Note_on_c, 0, 67, 37
1, 504342, Note_on_c, 0, 62, 38
1, 504448, Note_on_c, 0, 86, 73
1, 504566, Note_off_c, 0, 71, 62
1, 504680, Note_off_c, 0, 74, 58
1, 504681, Note_off_c, 0, 62, 19
1, 504864, Note_off_c, 0, 86, 62
1, 504884, Note_off_c, 0, 67, 0
1, 504900, Note_off_c, 0, 79, 59
1, 504920, Note_on_c, 0, 72, 37
1, 504920, Poly_aftertouch_c, 0, 67, 127
1, 504938, Note_on_c, 0, 64, 19
1, 505033, Note_off_c, 0, 64, 37
1, 505033, Note_off_c, 0, 72, 60
1, 505049, Poly_aftertouch_c, 0, 67, 0
1, 505189, Note_on_c, 0, 67, 34
1, 505204, Note_on_c, 0, 71, 39
1, 505216, Note_on_c, 0, 62, 34
1, 505266, Note_off_c, 0, 62, 60
1, 505282, Note_off_c, 0, 67, 62
1, 505294, Note_off_c, 0, 71, 58
1, 505460, Note_on_c, 0, 74, 30
1, 505463, Note_on_c, 0, 67, 19
1, 505463, Note_on_c, 0, 71, 29
1, 505561, Note_off_c, 0, 67, 38
1, 505600, Note_off_c, 0, 74, 33
1, 505632, Note_on_c, 0, 66, 37
1, 505632, Note_off_c, 0, 71, 32
1, 505634, Note_on_c, 0, 69, 34
1, 505642, Note_on_c, 0, 60, 34
1, 505682, Note_off_c, 0, 69, 59
1, 505695, Note_off_c, 0, 66, 53
1, 505709, Note_off_c, 0, 60, 52
1, 505830, Note_on_c, 0, 71, 49
1, 505835, Note_on_c, 0, 66, 41
1, 505850, Note_on_c, 0, 62, 31
1, 505885, Note_off_c, 0, 71, 57
1, 505891, Note_off_c, 0, 66, 56
1, 505895, Note_off_c, 0, 62, 49
1, 506013, Note_on_c, 0, 66, 45
1, 506023, Note_on_c, 0, 60, 42
1, 506027, Note_on_c, 0, 69, 52
1, 506066, Note_off_c, 0, 69, 63
1, 506070, Note_off_c, 0, 60, 62
1, 506081, Note_off_c, 0, 66, 59
1, 506226, Note_on_c, 0, 74, 43
1, 506235, Note_on_c, 0, 66, 37
1, 506240, Note_on_c, 0, 71, 46
1, 506335, Control_c, 0, 64, 78
1, 506350, Control_c, 0, 64, 65
1, 506365, Control_c, 0, 64, 63
1, 506380, Control_c, 0, 64, 65
1, 506395, Control_c, 0, 64, 70
1, 506402, Note_on_c, 0, 59, 39
1, 506402, Note_on_c, 0, 67, 41
1, 506409, Control_c, 0, 64, 83
1, 506413, Note_on_c, 0, 64, 46
1, 506424, Control_c, 0, 64, 127
1, 506446, Note_off_c, 0, 66, 40
1, 506476, Note_off_c, 0, 67, 60
1, 506534, Note_off_c, 0, 64, 54
1, 506537, Note_off_c, 0, 59, 37
1, 506617, Note_on_c, 0, 64, 26
1, 506622, Note_on_c, 0, 60, 42
1, 506622, Note_on_c, 0, 69, 50
1, 506643, Note_off_c, 0, 74, 51
1, 506657, Note_off_c, 0, 69, 63
1, 506679, Note_off_c, 0, 64, 55
1, 506681, Note_off_c, 0, 71, 33
1, 506754, Note_off_c, 0, 60, 32
1, 506812, Note_on_c, 0, 64, 53
1, 506814, Note_on_c, 0, 67, 41
1, 506836, Note_on_c, 0, 59, 41
1, 506867, Note_off_c, 0, 67, 60
1, 506986, Note_off_c, 0, 59, 58
1, 506986, Note_off_c, 0, 64, 61
1, 507037, Note_on_c, 0, 74, 56
1, 507058, Note_on_c, 0, 71, 51
1, 507119, Note_off_c, 0, 74, 62
1, 507132, Note_off_c, 0, 71, 64
1, 507324, Note_on_c, 0, 60, 33
1, 507368, Note_on_c, 0, 64, 41
1, 507425, Control_c, 0, 64, 112
1, 507440, Control_c, 0, 64, 75
1, 507454, Note_on_c, 0, 81, 77
1, 507455, Control_c, 0, 64, 62
1, 507470, Note_on_c, 0, 69, 60
1, 507470, Control_c, 0, 64, 57
1, 507484, Control_c, 0, 64, 59
1, 507491, Note_on_c, 0, 76, 9
1, 507499, Control_c, 0, 64, 63
1, 507514, Control_c, 0, 64, 69
1, 507529, Control_c, 0, 64, 78
1, 507544, Control_c, 0, 64, 92
1, 507559, Control_c, 0, 64, 114
1, 507573, Control_c, 0, 64, 127
1, 507667, Note_off_c, 0, 60, 48
1, 507710, Note_off_c, 0, 64, 57
1, 507761, Note_on_c, 0, 62, 24
1, 507772, Note_on_c, 0, 71, 56
1, 507806, Note_on_c, 0, 66, 40
1, 507825, Note_off_c, 0, 69, 38
1, 507907, Note_on_c, 0, 60, 42
1, 507907, Note_off_c, 0, 71, 62
1, 507919, Note_off_c, 0, 62, 42
1, 507939, Note_off_c, 0, 66, 36
1, 507965, Note_on_c, 0, 69, 53
1, 508000, Note_on_c, 0, 64, 46
1, 508002, Note_off_c, 0, 60, 59
1, 508039, Note_off_c, 0, 69, 60
1, 508061, Note_off_c, 0, 64, 51
1, 508184, Note_on_c, 0, 69, 46
1, 508185, Note_on_c, 0, 66, 48
1, 508190, Note_off_c, 0, 81, 59
1, 508198, Note_on_c, 0, 74, 54
1, 508211, Note_off_c, 0, 69, 55
1, 508214, Note_off_c, 0, 76, 37
1, 508223, Note_off_c, 0, 66, 63
1, 508250, Note_off_c, 0, 74, 0
1, 508287, Poly_aftertouch_c, 0, 74, 127
1, 508495, Note_on_c, 0, 79, 72
1, 508522, Control_c, 0, 64, 120
1, 508537, Control_c, 0, 64, 76
1, 508552, Control_c, 0, 64, 62
1, 508560, Note_on_c, 0, 43, 43
1, 508567, Control_c, 0, 64, 55
1, 508583, Control_c, 0, 64, 58
1, 508598, Control_c, 0, 64, 64
1, 508612, Control_c, 0, 64, 71
1, 508627, Control_c, 0, 64, 87
1, 508642, Control_c, 0, 64, 127
1, 508656, Note_off_c, 0, 43, 54
1, 508667, Note_on_c, 0, 50, 50
1, 508694, Poly_aftertouch_c, 0, 74, 0
1, 508718, Note_off_c, 0, 50, 59
1, 508798, Note_on_c, 0, 59, 44
1, 508814, Note_off_c, 0, 79, 58
1, 508834, Note_off_c, 0, 59, 65
1, 508852, Note_on_c, 0, 74, 44
1, 508939, Note_off_c, 0, 74, 60
1, 508992, Note_on_c, 0, 79, 44
1, 509104, Note_on_c, 0, 71, 40
1, 509141, Note_on_c, 0, 67, 34
1, 509144, Note_on_c, 0, 62, 40
1, 509198, Note_on_c, 0, 86, 68
1, 509252, Note_off_c, 0, 71, 59
1, 509335, Note_off_c, 0, 62, 50
1, 509342, Note_off_c, 0, 86, 63
1, 509347, Note_off_c, 0, 79, 60
1, 509356, Note_off_c, 0, 67, 35
1, 509563, Note_on_c, 0, 72, 39
1, 509577, Note_on_c, 0, 64, 23
1, 509588, Note_on_c, 0, 67, 14
1, 509608, Note_off_c, 0, 72, 63
1, 509616, Note_off_c, 0, 64, 51
1, 509632, Note_off_c, 0, 67, 47
1, 509770, Note_on_c, 0, 67, 37
1, 509776, Note_on_c, 0, 62, 43
1, 509785, Note_on_c, 0, 71, 46
1, 509822, Note_off_c, 0, 62, 61
1, 509823, Note_off_c, 0, 67, 62
1, 509836, Note_off_c, 0, 71, 59
1, 509974, Note_on_c, 0, 67, 42
1, 509976, Note_on_c, 0, 74, 50
1, 509981, Note_on_c, 0, 71, 47
1, 510039, Note_off_c, 0, 67, 52
1, 510087, Note_off_c, 0, 74, 51
1, 510122, Note_off_c, 0, 71, 54
1, 510149, Note_on_c, 0, 66, 49
1, 510152, Note_on_c, 0, 69, 47
1, 510161, Note_on_c, 0, 60, 40
1, 510199, Note_off_c, 0, 69, 61
1, 510221, Note_off_c, 0, 60, 53
1, 510226, Note_off_c, 0, 66, 49
1, 510349, Note_on_c, 0, 71, 52
1, 510351, Note_on_c, 0, 66, 46
1, 510364, Note_on_c, 0, 62, 42
1, 510391, Note_off_c, 0, 71, 61
1, 510406, Note_off_c, 0, 66, 56
1, 510412, Note_off_c, 0, 62, 59
1, 510534, Note_on_c, 0, 66, 52
1, 510535, Note_on_c, 0, 69, 58
1, 510545, Note_on_c, 0, 60, 41
1, 510566, Note_off_c, 0, 69, 65
1, 510576, Note_off_c, 0, 60, 60
1, 510576, Note_off_c, 0, 66, 59
1, 510733, Note_on_c, 0, 74, 53
1, 510748, Note_on_c, 0, 71, 53
1, 510771, Note_on_c, 0, 66, 40
1, 510871, Control_c, 0, 64, 101
1, 510886, Control_c, 0, 64, 73
1, 510900, Control_c, 0, 64, 63
1, 510915, Control_c, 0, 64, 60
1, 510923, Note_on_c, 0, 67, 45
1, 510926, Note_on_c, 0, 59, 42
1, 510930, Control_c, 0, 64, 62
1, 510939, Note_on_c, 0, 64, 47
1, 510945, Control_c, 0, 64, 66
1, 510960, Control_c, 0, 64, 73
1, 510976, Control_c, 0, 64, 87
1, 510991, Control_c, 0, 64, 127
1, 511004, Note_off_c, 0, 67, 61
1, 511045, Note_off_c, 0, 59, 53
1, 511058, Note_off_c, 0, 64, 54
1, 511070, Note_off_c, 0, 66, 41
1, 511118, Note_off_c, 0, 74, 59
1, 511128, Note_on_c, 0, 64, 30
1, 511132, Note_on_c, 0, 69, 59
1, 511141, Note_off_c, 0, 71, 51
1, 511143, Note_on_c, 0, 60, 45
1, 511175, Note_off_c, 0, 69, 58
1, 511191, Note_off_c, 0, 64, 57
1, 511199, Note_off_c, 0, 60, 56
1, 511314, Note_on_c, 0, 67, 55
1, 511316, Note_on_c, 0, 64, 45
1, 511320, Note_on_c, 0, 59, 50
1, 511347, Note_off_c, 0, 67, 66
1, 511404, Note_off_c, 0, 59, 57
1, 511432, Note_off_c, 0, 64, 62
1, 511518, Note_on_c, 0, 74, 67
1, 511535, Note_on_c, 0, 71, 56
1, 511536, Note_on_c, 0, 64, 59
1, 511584, Note_off_c, 0, 64, 59
1, 511598, Note_off_c, 0, 71, 64
1, 511602, Note_off_c, 0, 74, 63
1, 511738, Note_on_c, 0, 60, 50
1, 511757, Note_on_c, 0, 64, 47
1, 511764, Note_on_c, 0, 57, 51
1, 511824, Note_on_c, 0, 73, 28
1, 511824, Note_on_c, 0, 79, 86
1, 511828, Control_c, 0, 64, 86
1, 511836, Note_on_c, 0, 67, 64
1, 511843, Control_c, 0, 64, 66
1, 511858, Control_c, 0, 64, 60
1, 511868, Note_off_c, 0, 73, 46
1, 511872, Control_c, 0, 64, 62
1, 511887, Control_c, 0, 64, 66
1, 511902, Control_c, 0, 64, 75
1, 511917, Control_c, 0, 64, 103
1, 511932, Control_c, 0, 64, 127
1, 512014, Note_off_c, 0, 57, 54
1, 512017, Note_off_c, 0, 60, 60
1, 512037, Note_on_c, 0, 59, 54
1, 512051, Note_on_c, 0, 69, 73
1, 512057, Note_on_c, 0, 74, 7
1, 512060, Note_on_c, 0, 62, 66
1, 512083, Note_off_c, 0, 67, 38
1, 512129, Note_off_c, 0, 64, 63
1, 512132, Note_off_c, 0, 74, 39
1, 512200, Note_off_c, 0, 59, 62
1, 512223, Note_on_c, 0, 57, 74
1, 512223, Note_on_c, 0, 67, 73
1, 512256, Note_off_c, 0, 69, 62
1, 512256, Note_off_c, 0, 79, 65
1, 512261, Note_off_c, 0, 62, 61
1, 512281, Note_off_c, 0, 67, 64
1, 512303, Poly_aftertouch_c, 0, 76, 0
1, 512411, Note_on_c, 0, 60, 64
1, 512422, Note_off_c, 0, 57, 59
1, 512465, Note_off_c, 0, 60, 65
1, 512556, Note_on_c, 0, 78, 84
1, 512558, Note_on_c, 0, 74, 71
1, 512566, Note_on_c, 0, 66, 79
1, 512766, Note_on_c, 0, 40, 75
1, 512769, Control_c, 0, 64, 77
1, 512784, Control_c, 0, 64, 36
1, 512799, Control_c, 0, 64, 0
1, 512829, Control_c, 0, 64, 27
1, 512844, Control_c, 0, 64, 60
1, 512859, Control_c, 0, 64, 73
1, 512881, Control_c, 0, 64, 127
1, 512930, Note_on_c, 0, 47, 70
1, 512986, Note_off_c, 0, 40, 57
1, 512987, Note_off_c, 0, 78, 57
1, 512992, Note_off_c, 0, 66, 61
1, 513051, Note_on_c, 0, 55, 76
1, 513101, Note_off_c, 0, 47, 62
1, 513135, Note_off_c, 0, 55, 63
1, 513145, Note_on_c, 0, 64, 77
1, 513187, Note_off_c, 0, 74, 54
1, 513206, Note_off_c, 0, 64, 63
1, 513210, Note_on_c, 0, 71, 76
1, 513270, Note_on_c, 0, 76, 78
1, 513277, Note_off_c, 0, 71, 64
1, 513315, Note_off_c, 0, 76, 64
1, 513363, Note_on_c, 0, 74, 80
1, 513449, Note_on_c, 0, 71, 57
1, 513453, Note_on_c, 0, 67, 56
1, 513456, Note_on_c, 0, 62, 54
1, 513562, Note_on_c, 0, 86, 82
1, 513646, Note_off_c, 0, 71, 58
1, 513703, Note_off_c, 0, 86, 66
1, 513705, Note_off_c, 0, 74, 64
1, 513740, Note_off_c, 0, 67, 55
1, 513777, Note_off_c, 0, 62, 54
1, 513859, Note_on_c, 0, 64, 46
1, 513862, Note_on_c, 0, 72, 51
1, 513893, Note_on_c, 0, 67, 23
1, 513902, Note_off_c, 0, 72, 62
1, 513906, Note_off_c, 0, 64, 59
1, 513930, Note_off_c, 0, 67, 43
1, 514041, Note_on_c, 0, 67, 42
1, 514047, Note_on_c, 0, 62, 50
1, 514059, Note_on_c, 0, 71, 55
1, 514095, Note_off_c, 0, 62, 62
1, 514100, Note_off_c, 0, 71, 63
1, 514108, Note_off_c, 0, 67, 62
1, 514232, Note_on_c, 0, 74, 49
1, 514247, Note_on_c, 0, 71, 50
1, 514249, Note_on_c, 0, 67, 45
1, 514450, Note_on_c, 0, 60, 35
1, 514453, Control_c, 0, 64, 93
1, 514468, Control_c, 0, 64, 72
1, 514482, Control_c, 0, 64, 69
1, 514483, Note_on_c, 0, 66, 48
1, 514493, Note_on_c, 0, 69, 49
1, 514496, Note_off_c, 0, 67, 47
1, 514497, Control_c, 0, 64, 71
1, 514512, Control_c, 0, 64, 78
1, 514527, Control_c, 0, 64, 97
1, 514538, Note_off_c, 0, 69, 61
1, 514542, Control_c, 0, 64, 127
1, 514543, Note_off_c, 0, 66, 54
1, 514548, Note_off_c, 0, 74, 54
1, 514590, Note_off_c, 0, 60, 48
1, 514606, Note_off_c, 0, 71, 58
1, 514674, Note_on_c, 0, 62, 48
1, 514679, Note_on_c, 0, 66, 47
1, 514719, Note_off_c, 0, 66, 60
1, 514728, Note_off_c, 0, 62, 56
1, 514832, Note_on_c, 0, 66, 48
1, 514838, Note_on_c, 0, 60, 44
1, 514859, Note_on_c, 0, 69, 46
1, 514885, Note_off_c, 0, 60, 63
1, 514888, Note_off_c, 0, 69, 54
1, 514892, Note_off_c, 0, 66, 55
1, 515035, Note_on_c, 0, 74, 52
1, 515035, Note_on_c, 0, 66, 42
1, 515044, Note_on_c, 0, 71, 52
1, 515076, Control_c, 0, 64, 92
1, 515091, Control_c, 0, 64, 72
1, 515106, Control_c, 0, 64, 64
1, 515143, Control_c, 0, 64, 66
1, 515158, Control_c, 0, 64, 71
1, 515172, Control_c, 0, 64, 81
1, 515187, Control_c, 0, 64, 99
1, 515190, Note_on_c, 0, 59, 45
1, 515196, Note_on_c, 0, 67, 44
1, 515202, Control_c, 0, 64, 127
1, 515203, Note_on_c, 0, 64, 45
1, 515255, Note_off_c, 0, 67, 60
1, 515288, Note_off_c, 0, 66, 41
1, 515300, Note_off_c, 0, 59, 52
1, 515305, Note_off_c, 0, 64, 53
1, 515368, Note_off_c, 0, 74, 52
1, 515394, Note_on_c, 0, 64, 33
1, 515395, Note_on_c, 0, 69, 58
1, 515414, Note_on_c, 0, 60, 36
1, 515425, Note_off_c, 0, 71, 31
1, 515441, Note_off_c, 0, 69, 58
1, 515464, Note_off_c, 0, 60, 53
1, 515464, Note_off_c, 0, 64, 53
1, 515575, Note_on_c, 0, 67, 56
1, 515594, Note_on_c, 0, 59, 42
1, 515601, Note_on_c, 0, 64, 46
1, 515633, Note_off_c, 0, 64, 63
1, 515640, Note_off_c, 0, 59, 59
1, 515662, Note_off_c, 0, 67, 61
1, 515765, Note_on_c, 0, 64, 35
1, 515767, Note_on_c, 0, 74, 55
1, 515784, Note_on_c, 0, 71, 46
1, 515811, Note_off_c, 0, 64, 63
1, 515818, Note_off_c, 0, 74, 59
1, 515825, Note_off_c, 0, 71, 64
1, 515998, Note_on_c, 0, 60, 42
1, 516001, Note_on_c, 0, 57, 39
1, 516012, Note_on_c, 0, 64, 38
1, 516079, Note_on_c, 0, 78, 70
1, 516084, Control_c, 0, 64, 95
1, 516099, Control_c, 0, 64, 73
1, 516113, Note_on_c, 0, 66, 49
1, 516114, Control_c, 0, 64, 64
1, 516128, Control_c, 0, 64, 62
1, 516143, Control_c, 0, 64, 64
1, 516158, Control_c, 0, 64, 68
1, 516173, Control_c, 0, 64, 75
1, 516188, Control_c, 0, 64, 88
1, 516202, Control_c, 0, 64, 109
1, 516217, Control_c, 0, 64, 127
1, 516256, Note_off_c, 0, 57, 55
1, 516270, Note_off_c, 0, 78, 53
1, 516276, Note_off_c, 0, 60, 60
1, 516333, Note_on_c, 0, 59, 26
1, 516358, Note_on_c, 0, 67, 51
1, 516362, Note_off_c, 0, 64, 59
1, 516384, Note_on_c, 0, 62, 43
1, 516447, Note_off_c, 0, 66, 20
1, 516463, Note_off_c, 0, 67, 60
1, 516473, Note_off_c, 0, 59, 45
1, 516474, Note_on_c, 0, 57, 33
1, 516476, Note_off_c, 0, 62, 49
1, 516549, Note_off_c, 0, 57, 49
1, 516569, Note_on_c, 0, 66, 44
1, 516584, Note_on_c, 0, 60, 51
1, 516631, Note_off_c, 0, 66, 59
1, 516722, Note_on_c, 0, 62, 48
1, 516726, Note_off_c, 0, 60, 61
1, 516752, Note_off_c, 0, 62, 62
1, 516913, Note_on_c, 0, 76, 57
1, 516929, Note_on_c, 0, 64, 32
1, 517040, Control_c, 0, 64, 102
1, 517055, Control_c, 0, 64, 78
1, 517069, Control_c, 0, 64, 67
1, 517084, Control_c, 0, 64, 65
1, 517099, Control_c, 0, 64, 66
1, 517105, Note_on_c, 0, 40, 42
1, 517114, Control_c, 0, 64, 70
1, 517129, Control_c, 0, 64, 77
1, 517143, Control_c, 0, 64, 90
1, 517158, Control_c, 0, 64, 109
1, 517173, Control_c, 0, 64, 127
1, 517184, Note_off_c, 0, 64, 58
1, 517196, Note_off_c, 0, 40, 51
1, 517230, Note_on_c, 0, 47, 44
1, 517251, Note_off_c, 0, 76, 53
1, 517270, Note_off_c, 0, 47, 60
1, 517329, Note_on_c, 0, 55, 43
1, 517334, Note_on_c, 0, 64, 37
1, 517389, Note_off_c, 0, 64, 56
1, 517392, Note_off_c, 0, 55, 62
1, 517421, Note_on_c, 0, 71, 50
1, 517464, Note_off_c, 0, 71, 61
1, 517485, Note_on_c, 0, 76, 49
1, 517520, Note_off_c, 0, 76, 66
1, 517586, Note_on_c, 0, 74, 55
1, 517749, Note_on_c, 0, 71, 30
1, 517761, Note_on_c, 0, 62, 34
1, 517773, Note_on_c, 0, 67, 26
1, 517819, Note_on_c, 0, 86, 74
1, 517849, Note_off_c, 0, 74, 56
1, 517866, Note_off_c, 0, 71, 51
1, 517884, Note_off_c, 0, 86, 61
1, 517989, Note_off_c, 0, 62, 37
1, 518104, Note_off_c, 0, 67, 0
1, 518149, Poly_aftertouch_c, 0, 67, 127
1, 518161, Note_on_c, 0, 72, 35
1, 518164, Note_on_c, 0, 64, 20
1, 518215, Note_off_c, 0, 72, 56
1, 518219, Note_off_c, 0, 64, 46
1, 518256, Poly_aftertouch_c, 0, 67, 0
1, 518382, Note_on_c, 0, 62, 37
1, 518390, Note_on_c, 0, 67, 46
1, 518392, Note_on_c, 0, 71, 29
1, 518428, Note_off_c, 0, 62, 61
1, 518429, Note_off_c, 0, 67, 64
1, 518435, Note_off_c, 0, 71, 50
1, 518558, Note_on_c, 0, 74, 47
1, 518560, Note_on_c, 0, 71, 49
1, 518561, Note_on_c, 0, 67, 30
1, 518645, Note_off_c, 0, 67, 50
1, 518657, Note_off_c, 0, 74, 53
1, 518686, Note_off_c, 0, 71, 51
1, 518737, Note_on_c, 0, 66, 47
1, 518743, Note_on_c, 0, 69, 44
1, 518744, Note_on_c, 0, 60, 33
1, 518791, Note_off_c, 0, 69, 60
1, 518797, Note_off_c, 0, 60, 52
1, 518811, Note_off_c, 0, 66, 51
1, 518937, Note_on_c, 0, 62, 51
1, 518939, Note_on_c, 0, 71, 48
1, 518987, Note_off_c, 0, 71, 61
1, 519006, Control_c, 0, 64, 125
1, 519013, Poly_aftertouch_c, 0, 66, 127
1, 519017, Note_off_c, 0, 62, 55
1, 519020, Control_c, 0, 64, 120
1, 519035, Control_c, 0, 64, 117
1, 519050, Poly_aftertouch_c, 0, 66, 0
1, 519116, Note_on_c, 0, 66, 36
1, 519124, Control_c, 0, 64, 116
1, 519136, Note_on_c, 0, 69, 48
1, 519146, Note_on_c, 0, 60, 39
1, 519154, Control_c, 0, 64, 115
1, 519169, Control_c, 0, 64, 115
1, 519181, Note_off_c, 0, 69, 61
1, 519184, Control_c, 0, 64, 114
1, 519188, Note_off_c, 0, 60, 59
1, 519194, Note_off_c, 0, 66, 56
1, 519199, Control_c, 0, 64, 112
1, 519213, Control_c, 0, 64, 111
1, 519228, Control_c, 0, 64, 110
1, 519243, Control_c, 0, 64, 110
1, 519258, Control_c, 0, 64, 109
1, 519287, Control_c, 0, 64, 109
1, 519346, Control_c, 0, 64, 108
1, 519359, Note_on_c, 0, 66, 30
1, 519362, Note_on_c, 0, 71, 48
1, 519362, Note_on_c, 0, 74, 34
1, 519406, Control_c, 0, 64, 109
1, 519420, Control_c, 0, 64, 111
1, 519464, Control_c, 0, 64, 107
1, 519479, Control_c, 0, 64, 87
1, 519494, Control_c, 0, 64, 74
1, 519509, Control_c, 0, 64, 66
1, 519524, Control_c, 0, 64, 65
1, 519539, Control_c, 0, 64, 67
1, 519554, Control_c, 0, 64, 71
1, 519561, Note_on_c, 0, 59, 37
1, 519563, Note_on_c, 0, 67, 37
1, 519569, Control_c, 0, 64, 79
1, 519572, Note_off_c, 0, 66, 35
1, 519574, Note_on_c, 0, 64, 45
1, 519584, Control_c, 0, 64, 94
1, 519598, Control_c, 0, 64, 113
1, 519620, Control_c, 0, 64, 127
1, 519653, Note_off_c, 0, 67, 57
1, 519717, Note_off_c, 0, 59, 36
1, 519753, Note_off_c, 0, 64, 0
1, 519786, Note_off_c, 0, 71, 31
1, 519789, Note_off_c, 0, 74, 31
1, 519792, Poly_aftertouch_c, 0, 64, 127
1, 519801, Note_on_c, 0, 60, 44
1, 519813, Note_on_c, 0, 69, 46
1, 519858, Note_off_c, 0, 69, 61
1, 519864, Note_off_c, 0, 60, 56
1, 519900, Poly_aftertouch_c, 0, 64, 0
1, 520037, Note_on_c, 0, 67, 37
1, 520046, Note_on_c, 0, 59, 42
1, 520051, Note_on_c, 0, 64, 38
1, 520080, Note_off_c, 0, 67, 62
1, 520120, Note_off_c, 0, 59, 52
1, 520135, Note_off_c, 0, 64, 49
1, 520302, Note_on_c, 0, 74, 45
1, 520334, Note_on_c, 0, 71, 43
1, 520342, Note_on_c, 0, 64, 38
1, 520403, Note_off_c, 0, 74, 61
1, 520673, Note_on_c, 0, 59, 39
1, 520692, Note_on_c, 0, 45, 29
1, 520701, Note_on_c, 0, 52, 36
1, 520752, Note_off_c, 0, 64, 0
1, 520781, Note_on_c, 0, 64, 4
1, 520783, Control_c, 0, 64, 93
1, 520797, Note_on_c, 0, 76, 62
1, 520798, Control_c, 0, 64, 72
1, 520811, Note_on_c, 0, 67, 29
1, 520813, Control_c, 0, 64, 61
1, 520828, Control_c, 0, 64, 57
1, 520843, Control_c, 0, 64, 59
1, 520857, Control_c, 0, 64, 62
1, 520872, Control_c, 0, 64, 67
1, 520874, Note_off_c, 0, 45, 54
1, 520887, Control_c, 0, 64, 75
1, 520898, Note_off_c, 0, 71, 62
1, 520900, Note_off_c, 0, 52, 58
1, 520902, Control_c, 0, 64, 84
1, 520916, Control_c, 0, 64, 95
1, 520931, Control_c, 0, 64, 104
1, 520946, Control_c, 0, 64, 109
1, 520982, Note_off_c, 0, 76, 55
1, 520991, Control_c, 0, 64, 110
1, 521005, Control_c, 0, 64, 114
1, 521020, Control_c, 0, 64, 120
1, 521035, Control_c, 0, 64, 127
1, 521120, Note_off_c, 0, 59, 47
1, 521149, Note_on_c, 0, 61, 34
1, 521164, Note_on_c, 0, 69, 37
1, 521201, Note_off_c, 0, 67, 28
1, 521280, Note_off_c, 0, 64, 34
1, 521334, Note_off_c, 0, 61, 29
1, 521392, Note_on_c, 0, 59, 34
1, 521393, Note_on_c, 0, 67, 38
1, 521440, Note_off_c, 0, 69, 42
1, 521441, Note_off_c, 0, 67, 62
1, 521444, Note_off_c, 0, 59, 56
1, 521691, Note_on_c, 0, 62, 35
1, 521709, Note_on_c, 0, 57, 24
1, 521768, Note_off_c, 0, 62, 60
1, 521775, Note_off_c, 0, 57, 57
1, 521832, Note_on_c, 0, 74, 56
1, 521888, Note_on_c, 0, 64, 35
1, 521891, Note_on_c, 0, 69, 26
1, 522192, Control_c, 0, 64, 88
1, 522204, Note_on_c, 0, 38, 39
1, 522207, Control_c, 0, 64, 70
1, 522222, Control_c, 0, 64, 62
1, 522237, Control_c, 0, 64, 61
1, 522251, Control_c, 0, 64, 63
1, 522266, Control_c, 0, 64, 67
1, 522281, Control_c, 0, 64, 75
1, 522296, Control_c, 0, 64, 87
1, 522311, Control_c, 0, 64, 99
1, 522326, Control_c, 0, 64, 109
1, 522334, Note_off_c, 0, 69, 34
1, 522341, Control_c, 0, 64, 111
1, 522355, Note_off_c, 0, 64, 56
1, 522355, Control_c, 0, 64, 112
1, 522367, Note_off_c, 0, 38, 33
1, 522370, Note_on_c, 0, 45, 45
1, 522370, Control_c, 0, 64, 115
1, 522385, Control_c, 0, 64, 127
1, 522396, Note_off_c, 0, 74, 56
1, 522448, Note_on_c, 0, 54, 50
1, 522454, Note_off_c, 0, 45, 58
1, 522503, Note_off_c, 0, 54, 59
1, 522516, Note_on_c, 0, 62, 43
1, 522544, Note_off_c, 0, 62, 57
1, 522582, Note_on_c, 0, 69, 43
1, 522620, Note_off_c, 0, 69, 62
1, 522629, Note_on_c, 0, 74, 61
1, 522658, Note_off_c, 0, 74, 66
1, 522731, Note_on_c, 0, 74, 52
1, 522776, Note_on_c, 0, 81, 58
1, 522871, Note_on_c, 0, 69, 27
1, 522910, Note_on_c, 0, 62, 37
1, 522923, Note_on_c, 0, 66, 39
1, 523021, Note_on_c, 0, 86, 75
1, 523035, Note_off_c, 0, 81, 65
1, 523153, Note_off_c, 0, 62, 62
1, 523163, Note_off_c, 0, 69, 54
1, 523213, Note_off_c, 0, 74, 58
1, 523232, Note_on_c, 0, 78, 52
1, 523324, Note_off_c, 0, 78, 51
1, 523342, Note_off_c, 0, 66, 37
1, 523378, Note_on_c, 0, 61, 42
1, 523381, Note_on_c, 0, 76, 50
1, 523392, Note_on_c, 0, 71, 43
1, 523470, Note_off_c, 0, 76, 62
1, 523474, Note_off_c, 0, 71, 60
1, 523517, Note_on_c, 0, 78, 52
1, 523550, Note_off_c, 0, 61, 35
1, 523589, Note_off_c, 0, 78, 62
1, 523632, Note_on_c, 0, 74, 54
1, 523658, Note_on_c, 0, 66, 34
1, 523662, Note_on_c, 0, 69, 39
1, 523691, Note_on_c, 0, 62, 27
1, 523692, Note_off_c, 0, 74, 56
1, 523724, Note_on_c, 0, 78, 56
1, 523821, Note_off_c, 0, 78, 56
1, 523825, Note_on_c, 0, 83, 73
1, 523845, Note_off_c, 0, 62, 54
1, 523852, Note_on_c, 0, 76, 54
1, 523855, Note_off_c, 0, 69, 61
1, 523921, Note_off_c, 0, 76, 61
1, 523935, Note_off_c, 0, 66, 39
1, 523962, Note_on_c, 0, 78, 52
1, 524019, Note_off_c, 0, 78, 60
1, 524054, Note_on_c, 0, 60, 44
1, 524061, Note_on_c, 0, 71, 43
1, 524068, Note_on_c, 0, 74, 52
1, 524094, Note_off_c, 0, 71, 61
1, 524124, Note_off_c, 0, 60, 52
1, 524133, Note_off_c, 0, 74, 54
1, 524168, Note_on_c, 0, 78, 52
1, 524327, Note_on_c, 0, 69, 38
1, 524333, Note_on_c, 0, 62, 38
1, 524338, Note_on_c, 0, 66, 34
1, 524349, Control_c, 0, 64, 105
1, 524364, Control_c, 0, 64, 82
1, 524368, Note_off_c, 0, 78, 35
1, 524379, Control_c, 0, 64, 70
1, 524394, Control_c, 0, 64, 64
1, 524395, Note_on_c, 0, 81, 58
1, 524419, Note_off_c, 0, 86, 39
1, 524420, Note_on_c, 0, 76, 34
1, 524423, Control_c, 0, 64, 69
1, 524438, Control_c, 0, 64, 79
1, 524453, Control_c, 0, 64, 104
1, 524468, Control_c, 0, 64, 127
1, 524493, Note_off_c, 0, 76, 60
1, 524511, Note_on_c, 0, 78, 50
1, 524532, Note_off_c, 0, 83, 30
1, 524591, Note_off_c, 0, 62, 55
1, 524608, Note_off_c, 0, 81, 53
1, 524614, Note_on_c, 0, 86, 64
1, 524621, Note_off_c, 0, 78, 57
1, 524636, Note_off_c, 0, 69, 58
1, 524645, Note_on_c, 0, 74, 46
1, 524699, Note_off_c, 0, 74, 57
1, 524729, Note_off_c, 0, 66, 39
1, 524760, Note_on_c, 0, 78, 44
1, 524807, Note_off_c, 0, 78, 58
1, 524858, Note_on_c, 0, 71, 52
1, 524858, Note_on_c, 0, 76, 54
1, 524903, Note_off_c, 0, 71, 59
1, 524912, Note_off_c, 0, 86, 53
1, 524919, Note_off_c, 0, 76, 58
1, 524964, Note_on_c, 0, 78, 41
1, 525015, Note_off_c, 0, 78, 60
1, 525080, Note_on_c, 0, 74, 43
1, 525093, Note_on_c, 0, 66, 32
1, 525103, Note_on_c, 0, 62, 47
1, 525111, Note_on_c, 0, 69, 39
1, 525183, Note_on_c, 0, 78, 48
1, 525199, Note_off_c, 0, 62, 61
1, 525213, Note_off_c, 0, 69, 48
1, 525229, Note_off_c, 0, 78, 62
1, 525254, Note_off_c, 0, 66, 37
1, 525281, Note_off_c, 0, 74, 30
1, 525336, Note_on_c, 0, 79, 66
1, 525415, Poly_aftertouch_c, 0, 76, 127
1, 525450, Poly_aftertouch_c, 0, 76, 0
1, 525490, Note_on_c, 0, 78, 60
1, 525564, Note_on_c, 0, 64, 44
1, 525569, Note_on_c, 0, 57, 38
1, 525658, Note_off_c, 0, 57, 59
1, 525679, Note_on_c, 0, 67, 33
1, 525683, Note_off_c, 0, 78, 24
1, 525697, Note_off_c, 0, 64, 61
1, 525751, Note_off_c, 0, 79, 33
1, 525784, Note_off_c, 0, 67, 37
1, 525817, Note_on_c, 0, 76, 43
1, 525921, Note_off_c, 0, 76, 57
1, 525945, Note_on_c, 0, 69, 33
1, 525958, Note_on_c, 0, 78, 59
1, 525992, Note_on_c, 0, 66, 34
1, 526076, Note_on_c, 0, 76, 48
1, 526109, Note_off_c, 0, 78, 60
1, 526110, Note_off_c, 0, 76, 66
1, 526207, Note_off_c, 0, 69, 39
1, 526237, Note_off_c, 0, 66, 39
1, 526238, Note_on_c, 0, 86, 61
1, 526240, Note_on_c, 0, 62, 40
1, 526318, Note_off_c, 0, 62, 58
1, 526356, Note_on_c, 0, 66, 56
1, 526425, Note_off_c, 0, 66, 54
1, 526460, Note_on_c, 0, 71, 59
1, 526487, Note_on_c, 0, 60, 8
1, 526496, Note_off_c, 0, 71, 62
1, 526533, Note_off_c, 0, 60, 40
1, 526550, Note_on_c, 0, 66, 58
1, 526633, Note_off_c, 0, 66, 58
1, 526652, Note_on_c, 0, 69, 57
1, 526677, Note_on_c, 0, 62, 43
1, 526691, Note_off_c, 0, 69, 62
1, 526714, Note_off_c, 0, 62, 62
1, 526757, Note_on_c, 0, 66, 53
1, 526899, Note_on_c, 0, 76, 61
1, 526907, Note_off_c, 0, 66, 53
1, 526907, Control_c, 0, 64, 109
1, 526911, Note_on_c, 0, 59, 51
1, 526918, Note_on_c, 0, 71, 50
1, 526921, Control_c, 0, 64, 76
1, 526936, Control_c, 0, 64, 67
1, 526952, Control_c, 0, 64, 66
1, 526967, Control_c, 0, 64, 67
1, 526982, Control_c, 0, 64, 70
1, 526997, Control_c, 0, 64, 78
1, 526997, Note_off_c, 0, 71, 63
1, 527012, Control_c, 0, 64, 90
1, 527026, Control_c, 0, 64, 107
1, 527034, Note_off_c, 0, 59, 39
1, 527041, Control_c, 0, 64, 110
1, 527045, Note_on_c, 0, 66, 55
1, 527071, Control_c, 0, 64, 110
1, 527107, Control_c, 0, 64, 113
1, 527122, Control_c, 0, 64, 122
1, 527137, Control_c, 0, 64, 127
1, 527143, Note_off_c, 0, 66, 54
1, 527162, Note_on_c, 0, 69, 49
1, 527173, Note_on_c, 0, 62, 48
1, 527220, Note_off_c, 0, 69, 57
1, 527224, Note_off_c, 0, 62, 60
1, 527296, Note_on_c, 0, 66, 38
1, 527389, Note_off_c, 0, 86, 23
1, 527463, Control_c, 0, 64, 93
1, 527474, Note_on_c, 0, 57, 46
1, 527478, Control_c, 0, 64, 73
1, 527492, Note_off_c, 0, 66, 39
1, 527493, Note_on_c, 0, 71, 29
1, 527493, Control_c, 0, 64, 64
1, 527495, Note_off_c, 0, 76, 60
1, 527496, Note_on_c, 0, 74, 50
1, 527507, Control_c, 0, 64, 63
1, 527522, Control_c, 0, 64, 65
1, 527537, Control_c, 0, 64, 69
1, 527551, Control_c, 0, 64, 76
1, 527566, Control_c, 0, 64, 86
1, 527568, Note_off_c, 0, 57, 59
1, 527581, Control_c, 0, 64, 94
1, 527596, Control_c, 0, 64, 94
1, 527611, Control_c, 0, 64, 93
1, 527656, Control_c, 0, 64, 94
1, 527666, Note_off_c, 0, 71, 41
1, 527671, Control_c, 0, 64, 95
1, 527674, Note_on_c, 0, 66, 38
1, 527686, Control_c, 0, 64, 95
1, 527700, Control_c, 0, 64, 96
1, 527715, Control_c, 0, 64, 97
1, 527730, Control_c, 0, 64, 99
1, 527745, Control_c, 0, 64, 104
1, 527760, Control_c, 0, 64, 110
1, 527775, Control_c, 0, 64, 127
1, 527853, Note_off_c, 0, 66, 42
1, 527876, Note_on_c, 0, 69, 41
1, 527921, Note_on_c, 0, 86, 55
1, 527947, Note_off_c, 0, 86, 64
1, 527956, Poly_aftertouch_c, 0, 62, 127
1, 527961, Note_off_c, 0, 74, 58
1, 527996, Poly_aftertouch_c, 0, 62, 0
1, 528038, Note_off_c, 0, 69, 34
1, 528069, Note_on_c, 0, 66, 41
1, 528157, Note_off_c, 0, 66, 52
1, 528288, Note_on_c, 0, 54, 46
1, 528288, Note_on_c, 0, 64, 23
1, 528303, Note_on_c, 0, 71, 38
1, 528380, Note_off_c, 0, 71, 47
1, 528380, Note_off_c, 0, 64, 52
1, 528419, Note_off_c, 0, 54, 55
1, 528439, Note_on_c, 0, 66, 39
1, 528490, Note_off_c, 0, 66, 57
1, 528631, Note_on_c, 0, 62, 12
1, 528681, Note_off_c, 0, 62, 46
1, 528726, Note_on_c, 0, 66, 34
1, 528767, Note_off_c, 0, 66, 57
1, 529109, Note_on_c, 0, 50, 38
1, 529183, Note_on_c, 0, 72, 54
1, 529212, Control_c, 0, 64, 86
1, 529227, Control_c, 0, 64, 70
1, 529242, Control_c, 0, 64, 64
1, 529257, Control_c, 0, 64, 65
1, 529271, Control_c, 0, 64, 67
1, 529286, Control_c, 0, 64, 71
1, 529293, Poly_aftertouch_c, 0, 60, 127
1, 529301, Control_c, 0, 64, 79
1, 529313, Poly_aftertouch_c, 0, 64, 127
1, 529316, Control_c, 0, 64, 90
1, 529322, Poly_aftertouch_c, 0, 60, 0
1, 529331, Control_c, 0, 64, 100
1, 529355, Control_c, 0, 64, 104
1, 529399, Control_c, 0, 64, 104
1, 529414, Control_c, 0, 64, 107
1, 529415, Note_on_c, 0, 66, 38
1, 529428, Control_c, 0, 64, 115
1, 529443, Control_c, 0, 64, 127
1, 529507, Note_off_c, 0, 66, 53
1, 529545, Note_on_c, 0, 43, 31
1, 529570, Note_off_c, 0, 72, 59
1, 529658, Note_on_c, 0, 66, 47
1, 529671, Poly_aftertouch_c, 0, 64, 0
1, 529838, Note_on_c, 0, 52, 42
1, 529869, Note_off_c, 0, 50, 31
1, 529918, Control_c, 0, 64, 101
1, 529933, Control_c, 0, 64, 81
1, 529947, Control_c, 0, 64, 69
1, 529954, Note_on_c, 0, 70, 55
1, 529962, Control_c, 0, 64, 64
1, 529977, Note_on_c, 0, 58, 22
1, 529977, Control_c, 0, 64, 65
1, 529982, Note_on_c, 0, 61, 33
1, 529986, Note_off_c, 0, 66, 41
1, 529992, Control_c, 0, 64, 67
1, 530007, Control_c, 0, 64, 73
1, 530021, Control_c, 0, 64, 83
1, 530036, Control_c, 0, 64, 97
1, 530051, Control_c, 0, 64, 117
1, 530066, Control_c, 0, 64, 127
1, 530138, Note_off_c, 0, 70, 55
1, 530140, Note_off_c, 0, 52, 60
1, 530159, Note_off_c, 0, 58, 41
1, 530176, Note_off_c, 0, 61, 42
1, 530190, Note_on_c, 0, 64, 39
1, 530191, Note_off_c, 0, 43, 38
1, 530325, Note_off_c, 0, 64, 35
1, 530357, Note_on_c, 0, 57, 39
1, 530405, Note_off_c, 0, 57, 50
1, 530444, Note_on_c, 0, 62, 46
1, 530497, Note_off_c, 0, 62, 58
1, 530514, Note_on_c, 0, 66, 59
1, 530550, Note_off_c, 0, 66, 65
1, 530633, Note_on_c, 0, 69, 66
1, 530720, Note_off_c, 0, 69, 48
1, 530741, Note_on_c, 0, 74, 51
1, 530864, Note_on_c, 0, 78, 65
1, 530864, Note_off_c, 0, 74, 59
1, 530901, Note_on_c, 0, 26, 38
1, 530903, Note_off_c, 0, 78, 64
1, 531022, Note_off_c, 0, 26, 36
1, 531163, Note_on_c, 0, 86, 57
1, 531176, Note_on_c, 0, 38, 43
1, 531221, Note_off_c, 0, 38, 60
1, 531451, Note_off_c, 0, 86, 58
1, 531492, Note_on_c, 0, 88, 52
1, 531549, Note_on_c, 0, 45, 27
1, 531703, Note_off_c, 0, 88, 37
1, 531706, Note_on_c, 0, 52, 51
1, 531710, Note_on_c, 0, 86, 50
1, 531710, Note_off_c, 0, 45, 35
1, 531716, Note_on_c, 0, 79, 44
1, 531752, Note_on_c, 0, 74, 11
1, 531818, Note_off_c, 0, 79, 58
1, 531872, Note_off_c, 0, 52, 61
1, 531872, Note_off_c, 0, 86, 32
1, 531886, Note_on_c, 0, 88, 43
1, 531895, Note_off_c, 0, 74, 39
1, 531898, Note_on_c, 0, 45, 40
1, 531950, Note_off_c, 0, 45, 58
1, 531963, Note_off_c, 0, 88, 49
1, 532022, Note_on_c, 0, 74, 42
1, 532024, Note_on_c, 0, 54, 54
1, 532031, Note_on_c, 0, 81, 52
1, 532039, Note_on_c, 0, 86, 41
1, 532117, Note_off_c, 0, 86, 57
1, 532157, Note_on_c, 0, 45, 44
1, 532167, Note_on_c, 0, 88, 59
1, 532178, Note_off_c, 0, 81, 56
1, 532190, Note_off_c, 0, 45, 52
1, 532190, Note_off_c, 0, 74, 54
1, 532209, Note_off_c, 0, 54, 43
1, 532252, Control_c, 0, 64, 125
1, 532267, Control_c, 0, 64, 122
1, 532282, Control_c, 0, 64, 119
1, 532284, Note_off_c, 0, 88, 35
1, 532296, Control_c, 0, 64, 117
1, 532308, Note_on_c, 0, 81, 55
1, 532309, Note_on_c, 0, 74, 44
1, 532311, Control_c, 0, 64, 115
1, 532314, Note_on_c, 0, 57, 45
1, 532322, Note_on_c, 0, 86, 49
1, 532326, Control_c, 0, 64, 115
1, 532363, Control_c, 0, 64, 114
1, 532378, Control_c, 0, 64, 113
1, 532378, Note_off_c, 0, 57, 60
1, 532392, Control_c, 0, 64, 112
1, 532407, Control_c, 0, 64, 112
1, 532423, Note_off_c, 0, 86, 56
1, 532425, Note_off_c, 0, 74, 53
1, 532431, Note_on_c, 0, 54, 43
1, 532434, Note_on_c, 0, 88, 58
1, 532437, Note_off_c, 0, 81, 55
1, 532474, Note_off_c, 0, 54, 61
1, 532482, Control_c, 0, 64, 111
1, 532511, Note_off_c, 0, 88, 54
1, 532521, Note_on_c, 0, 59, 60
1, 532526, Control_c, 0, 64, 110
1, 532548, Note_on_c, 0, 74, 57
1, 532557, Note_on_c, 0, 83, 59
1, 532559, Note_on_c, 0, 86, 53
1, 532571, Control_c, 0, 64, 110
1, 532586, Note_off_c, 0, 59, 57
1, 532586, Control_c, 0, 64, 109
1, 532616, Control_c, 0, 64, 109
1, 532637, Note_on_c, 0, 52, 52
1, 532645, Control_c, 0, 64, 108
1, 532650, Note_off_c, 0, 74, 55
1, 532653, Note_off_c, 0, 86, 55
1, 532655, Note_on_c, 0, 88, 58
1, 532662, Note_off_c, 0, 83, 60
1, 532705, Control_c, 0, 64, 108
1, 532720, Note_off_c, 0, 52, 55
1, 532734, Control_c, 0, 64, 108
1, 532747, Note_on_c, 0, 57, 50
1, 532748, Control_c, 0, 64, 110
1, 532751, Note_off_c, 0, 88, 38
1, 532763, Control_c, 0, 64, 113
1, 532771, Note_on_c, 0, 74, 64
1, 532771, Note_on_c, 0, 81, 58
1, 532774, Note_on_c, 0, 86, 65
1, 532778, Control_c, 0, 64, 117
1, 532792, Control_c, 0, 64, 127
1, 532821, Note_off_c, 0, 57, 60
1, 532835, Note_on_c, 0, 54, 56
1, 532858, Note_off_c, 0, 74, 55
1, 532860, Note_off_c, 0, 86, 61
1, 532864, Note_off_c, 0, 54, 65
1, 532875, Note_off_c, 0, 81, 60
1, 532878, Note_on_c, 0, 88, 60
1, 532956, Control_c, 0, 64, 112
1, 532971, Control_c, 0, 64, 91
1, 532972, Note_off_c, 0, 88, 38
1, 532985, Note_on_c, 0, 62, 52
1, 532986, Control_c, 0, 64, 76
1, 532992, Note_on_c, 0, 74, 56
1, 532993, Note_on_c, 0, 86, 57
1, 533000, Control_c, 0, 64, 71
1, 533003, Note_on_c, 0, 81, 60
1, 533030, Control_c, 0, 64, 73
1, 533042, Note_off_c, 0, 62, 55
1, 533044, Control_c, 0, 64, 78
1, 533059, Control_c, 0, 64, 86
1, 533063, Note_on_c, 0, 54, 53
1, 533074, Control_c, 0, 64, 98
1, 533081, Note_off_c, 0, 81, 62
1, 533096, Control_c, 0, 64, 106
1, 533099, Note_off_c, 0, 86, 60
1, 533108, Note_on_c, 0, 88, 58
1, 533112, Note_off_c, 0, 74, 52
1, 533206, Note_on_c, 0, 64, 53
1, 533223, Note_on_c, 0, 86, 61
1, 533223, Note_off_c, 0, 88, 33
1, 533236, Note_on_c, 0, 74, 50
1, 533237, Note_on_c, 0, 79, 53
1, 533244, Control_c, 0, 64, 105
1, 533251, Note_off_c, 0, 64, 62
1, 533269, Note_off_c, 0, 54, 38
1, 533274, Control_c, 0, 64, 105
1, 533279, Note_off_c, 0, 74, 43
1, 533303, Note_off_c, 0, 79, 51
1, 533306, Note_off_c, 0, 86, 58
1, 533333, Control_c, 0, 64, 106
1, 533343, Note_on_c, 0, 88, 55
1, 533346, Note_on_c, 0, 54, 45
1, 533349, Control_c, 0, 64, 107
1, 533364, Control_c, 0, 64, 99
1, 533379, Control_c, 0, 64, 85
1, 533394, Control_c, 0, 64, 73
1, 533409, Control_c, 0, 64, 67
1, 533423, Control_c, 0, 64, 66
1, 533438, Control_c, 0, 64, 68
1, 533453, Control_c, 0, 64, 72
1, 533460, Note_on_c, 0, 66, 46
1, 533466, Note_on_c, 0, 86, 49
1, 533466, Note_off_c, 0, 54, 57
1, 533467, Note_on_c, 0, 74, 45
1, 533467, Control_c, 0, 64, 77
1, 533469, Note_off_c, 0, 88, 35
1, 533475, Note_on_c, 0, 81, 46
1, 533482, Control_c, 0, 64, 83
1, 533498, Control_c, 0, 64, 87
1, 533513, Control_c, 0, 64, 91
1, 533528, Control_c, 0, 64, 96
1, 533531, Note_off_c, 0, 74, 0
1, 533542, Control_c, 0, 64, 104
1, 533546, Note_off_c, 0, 86, 59
1, 533557, Control_c, 0, 64, 115
1, 533568, Poly_aftertouch_c, 0, 74, 127
1, 533572, Control_c, 0, 64, 127
1, 533577, Note_on_c, 0, 54, 44
1, 533580, Note_off_c, 0, 81, 58
1, 533582, Note_off_c, 0, 66, 35
1, 533584, Note_on_c, 0, 88, 52
1, 533602, Note_off_c, 0, 54, 60
1, 533609, Poly_aftertouch_c, 0, 74, 0
1, 533644, Note_off_c, 0, 88, 55
1, 533722, Note_on_c, 0, 81, 48
1, 533731, Note_on_c, 0, 74, 43
1, 533731, Note_on_c, 0, 86, 56
1, 533734, Note_on_c, 0, 69, 53
1, 533734, Control_c, 0, 64, 91
1, 533749, Control_c, 0, 64, 74
1, 533764, Control_c, 0, 64, 66
1, 533779, Control_c, 0, 64, 66
1, 533793, Control_c, 0, 64, 67
1, 533808, Control_c, 0, 64, 71
1, 533817, Note_off_c, 0, 69, 57
1, 533823, Control_c, 0, 64, 80
1, 533846, Control_c, 0, 64, 90
1, 533856, Note_off_c, 0, 86, 56
1, 533861, Control_c, 0, 64, 97
1, 533875, Control_c, 0, 64, 100
1, 533879, Note_on_c, 0, 66, 36
1, 533884, Note_on_c, 0, 88, 53
1, 533904, Note_off_c, 0, 81, 43
1, 533905, Control_c, 0, 64, 101
1, 533908, Note_off_c, 0, 74, 41
1, 533920, Control_c, 0, 64, 106
1, 533935, Control_c, 0, 64, 120
1, 533949, Control_c, 0, 64, 127
1, 534023, Control_c, 0, 64, 113
1, 534038, Control_c, 0, 64, 89
1, 534044, Note_on_c, 0, 71, 45
1, 534048, Note_off_c, 0, 66, 44
1, 534053, Note_on_c, 0, 74, 31
1, 534053, Control_c, 0, 64, 79
1, 534057, Note_on_c, 0, 83, 45
1, 534062, Note_off_c, 0, 88, 40
1, 534068, Control_c, 0, 64, 78
1, 534083, Control_c, 0, 64, 81
1, 534098, Control_c, 0, 64, 89
1, 534112, Control_c, 0, 64, 103
1, 534127, Control_c, 0, 64, 127
1, 534137, Poly_aftertouch_c, 0, 86, 127
1, 534196, Note_off_c, 0, 71, 49
1, 534209, Poly_aftertouch_c, 0, 86, 0
1, 534216, Note_off_c, 0, 74, 30
1, 534228, Note_off_c, 0, 83, 53
1, 534235, Note_on_c, 0, 64, 26
1, 534257, Note_on_c, 0, 88, 44
1, 534469, Control_c, 0, 64, 90
1, 534474, Note_off_c, 0, 88, 35
1, 534479, Note_on_c, 0, 74, 51
1, 534483, Control_c, 0, 64, 73
1, 534498, Control_c, 0, 64, 65
1, 534504, Note_on_c, 0, 86, 38
1, 534513, Control_c, 0, 64, 63
1, 534521, Note_on_c, 0, 81, 36
1, 534528, Control_c, 0, 64, 64
1, 534543, Control_c, 0, 64, 68
1, 534557, Control_c, 0, 64, 76
1, 534572, Control_c, 0, 64, 85
1, 534595, Control_c, 0, 64, 92
1, 534610, Control_c, 0, 64, 96
1, 534639, Control_c, 0, 64, 96
1, 534654, Control_c, 0, 64, 97
1, 534669, Control_c, 0, 64, 101
1, 534684, Control_c, 0, 64, 107
1, 534698, Control_c, 0, 64, 114
1, 534713, Control_c, 0, 64, 119
1, 534727, Note_off_c, 0, 86, 54
1, 534736, Note_off_c, 0, 64, 47
1, 534753, Note_on_c, 0, 88, 46
1, 534758, Control_c, 0, 64, 125
1, 534765, Note_off_c, 0, 74, 33
1, 534772, Control_c, 0, 64, 127
1, 534789, Note_on_c, 0, 66, 41
1, 534804, Note_off_c, 0, 81, 36
1, 535168, Note_off_c, 0, 88, 41
1, 535218, Control_c, 0, 64, 112
1, 535232, Control_c, 0, 64, 88
1, 535247, Control_c, 0, 64, 75
1, 535248, Note_on_c, 0, 86, 35
1, 535250, Note_on_c, 0, 81, 33
1, 535262, Control_c, 0, 64, 68
1, 535277, Control_c, 0, 64, 65
1, 535291, Note_on_c, 0, 78, 22
1, 535292, Control_c, 0, 64, 66
1, 535303, Poly_aftertouch_c, 0, 74, 127
1, 535306, Control_c, 0, 64, 69
1, 535321, Control_c, 0, 64, 75
1, 535344, Control_c, 0, 64, 84
1, 535358, Control_c, 0, 64, 93
1, 535373, Control_c, 0, 64, 101
1, 535388, Control_c, 0, 64, 108
1, 535403, Control_c, 0, 64, 115
1, 535418, Control_c, 0, 64, 127
1, 535486, Note_off_c, 0, 86, 39
1, 535489, Note_on_c, 0, 88, 49
1, 535567, Note_off_c, 0, 81, 35
1, 535686, Note_off_c, 0, 78, 37
1, 535695, Note_on_c, 0, 69, 35
1, 535708, Note_on_c, 0, 81, 23
1, 535710, Note_on_c, 0, 86, 49
1, 535716, Note_off_c, 0, 88, 55
1, 535778, Note_off_c, 0, 66, 39
1, 536199, Poly_aftertouch_c, 0, 74, 0
1, 536202, Note_on_c, 0, 62, 34
1, 537166, Control_c, 0, 64, 117
1, 537181, Control_c, 0, 64, 111
1, 537196, Control_c, 0, 64, 106
1, 537208, Note_on_c, 0, 74, 35
1, 537210, Control_c, 0, 64, 102
1, 537225, Control_c, 0, 64, 100
1, 537241, Control_c, 0, 64, 99
1, 537256, Control_c, 0, 64, 98
1, 537271, Control_c, 0, 64, 97
1, 537285, Control_c, 0, 64, 95
1, 537300, Control_c, 0, 64, 93
1, 537315, Control_c, 0, 64, 91
1, 537331, Control_c, 0, 64, 89
1, 537346, Control_c, 0, 64, 88
1, 537361, Control_c, 0, 64, 87
1, 537376, Control_c, 0, 64, 86
1, 537390, Control_c, 0, 64, 85
1, 537405, Control_c, 0, 64, 84
1, 537420, Control_c, 0, 64, 83
1, 537434, Control_c, 0, 64, 81
1, 537449, Control_c, 0, 64, 79
1, 537464, Control_c, 0, 64, 78
1, 537479, Control_c, 0, 64, 77
1, 537494, Control_c, 0, 64, 76
1, 537508, Control_c, 0, 64, 75
1, 537523, Control_c, 0, 64, 74
1, 537538, Control_c, 0, 64, 73
1, 537553, Control_c, 0, 64, 73
1, 537568, Control_c, 0, 64, 72
1, 537590, Control_c, 0, 64, 71
1, 537605, Control_c, 0, 64, 70
1, 537620, Control_c, 0, 64, 70
1, 537634, Control_c, 0, 64, 69
1, 537649, Control_c, 0, 64, 69
1, 537679, Control_c, 0, 64, 68
1, 537694, Control_c, 0, 64, 68
1, 537709, Control_c, 0, 64, 67
1, 537723, Control_c, 0, 64, 67
1, 537738, Control_c, 0, 64, 66
1, 537768, Control_c, 0, 64, 66
1, 537827, Control_c, 0, 64, 65
1, 537871, Control_c, 0, 64, 65
1, 537931, Control_c, 0, 64, 64
1, 537990, Control_c, 0, 64, 64
1, 538034, Control_c, 0, 64, 63
1, 538094, Control_c, 0, 64, 63
1, 538169, Control_c, 0, 64, 62
1, 538228, Control_c, 0, 64, 62
1, 538272, Control_c, 0, 64, 61
1, 538317, Control_c, 0, 64, 61
1, 538369, Control_c, 0, 64, 60
1, 538384, Control_c, 0, 64, 60
1, 538443, Control_c, 0, 64, 59
1, 538487, Control_c, 0, 64, 59
1, 538561, Control_c, 0, 64, 58
1, 538620, Control_c, 0, 64, 58
1, 538670, Note_off_c, 0, 86, 49
1, 538683, Note_off_c, 0, 69, 37
1, 538702, Note_off_c, 0, 62, 21
1, 538709, Control_c, 0, 64, 57
1, 538735, Note_off_c, 0, 74, 36
1, 538754, Control_c, 0, 64, 57
1, 538764, Note_off_c, 0, 81, 39
1, 538784, Control_c, 0, 64, 56
1, 538813, Control_c, 0, 64, 56
1, 538843, Control_c, 0, 64, 55
1, 538857, Control_c, 0, 64, 54
1, 538872, Control_c, 0, 64, 52
1, 538887, Control_c, 0, 64, 46
1, 538902, Control_c, 0, 64, 29
1, 538917, Control_c, 0, 64, 0
1, 539740, Control_c, 0, 64, 18
1, 539755, Control_c, 0, 64, 27
1, 539770, Control_c, 0, 64, 31
1, 539785, Control_c, 0, 64, 36
1, 539800, Control_c, 0, 64, 44
1, 539815, Control_c, 0, 64, 50
1, 539837, Control_c, 0, 64, 55
1, 539852, Control_c, 0, 64, 57
1, 539866, Control_c, 0, 64, 59
1, 539881, Control_c, 0, 64, 60
1, 539896, Control_c, 0, 64, 61
1, 539910, Control_c, 0, 64, 62
1, 539925, Control_c, 0, 64, 64
1, 539940, Control_c, 0, 64, 65
1, 539955, Control_c, 0, 64, 67
1, 539970, Control_c, 0, 64, 70
1, 539985, Control_c, 0, 64, 73
1, 540000, Control_c, 0, 64, 76
1, 540015, Control_c, 0, 64, 80
1, 540030, Control_c, 0, 64, 84
1, 540044, Control_c, 0, 64, 89
1, 540059, Control_c, 0, 64, 97
1, 540074, Control_c, 0, 64, 107
1, 540089, Control_c, 0, 64, 127
1, 540843, Note_on_c, 0, 67, 64
1, 540867, Note_on_c, 0, 59, 53
1, 540867, Note_on_c, 0, 64, 52
1, 540875, Note_on_c, 0, 52, 38
1, 541198, Note_off_c, 0, 64, 63
1, 541213, Note_off_c, 0, 59, 57
1, 541491, Note_off_c, 0, 52, 43
1, 541582, Note_on_c, 0, 69, 81
1, 541597, Note_on_c, 0, 60, 65
1, 541598, Note_on_c, 0, 40, 60
1, 541602, Note_on_c, 0, 64, 58
1, 541636, Note_off_c, 0, 67, 62
1, 541648, Note_off_c, 0, 40, 64
1, 541690, Note_off_c, 0, 64, 62
1, 541787, Note_off_c, 0, 60, 62
1, 542111, Note_on_c, 0, 67, 74
1, 542126, Note_on_c, 0, 45, 57
1, 542130, Note_on_c, 0, 62, 65
1, 542141, Note_on_c, 0, 64, 60
1, 542150, Note_on_c, 0, 33, 54
1, 542157, Control_c, 0, 64, 76
1, 542172, Control_c, 0, 64, 48
1, 542186, Control_c, 0, 64, 0
1, 542202, Note_off_c, 0, 69, 57
1, 542231, Control_c, 0, 64, 44
1, 542246, Control_c, 0, 64, 64
1, 542260, Control_c, 0, 64, 77
1, 542275, Control_c, 0, 64, 127
1, 542326, Note_off_c, 0, 62, 63
1, 542330, Note_off_c, 0, 64, 61
1, 542384, Note_off_c, 0, 67, 64
1, 542402, Note_off_c, 0, 33, 62
1, 542429, Note_off_c, 0, 45, 64
1, 542680, Note_on_c, 0, 88, 69
1, 543022, Note_on_c, 0, 59, 48
1, 543035, Note_on_c, 0, 76, 57
1, 543043, Note_off_c, 0, 88, 62
1, 543114, Note_off_c, 0, 76, 56
1, 543301, Note_on_c, 0, 76, 64
1, 543305, Note_on_c, 0, 64, 54
1, 543472, Note_off_c, 0, 59, 57
1, 543554, Note_on_c, 0, 83, 75
1, 543580, Note_off_c, 0, 64, 58
1, 543584, Note_off_c, 0, 76, 65
1, 543589, Note_off_c, 0, 83, 65
1, 543821, Note_on_c, 0, 60, 45
1, 543821, Note_on_c, 0, 64, 49
1, 543866, Note_on_c, 0, 71, 80
1, 544005, Note_off_c, 0, 64, 58
1, 544132, Note_off_c, 0, 60, 55
1, 544177, Note_on_c, 0, 62, 49
1, 544177, Note_on_c, 0, 64, 48
1, 544218, Note_on_c, 0, 67, 86
1, 544251, Note_off_c, 0, 64, 63
1, 544267, Note_off_c, 0, 62, 63
1, 544471, Note_off_c, 0, 71, 62
1, 544476, Note_on_c, 0, 76, 75
1, 544489, Note_off_c, 0, 67, 60
1, 544507, Note_off_c, 0, 76, 66
1, 544715, Note_on_c, 0, 69, 79
1, 544728, Note_on_c, 0, 64, 62
1, 544749, Note_on_c, 0, 60, 64
1, 544821, Note_off_c, 0, 64, 63
1, 544865, Note_off_c, 0, 60, 64
1, 544987, Note_on_c, 0, 50, 50
1, 545011, Control_c, 0, 64, 77
1, 545026, Control_c, 0, 64, 55
1, 545040, Control_c, 0, 64, 28
1, 545046, Note_on_c, 0, 66, 74
1, 545052, Note_on_c, 0, 59, 64
1, 545055, Control_c, 0, 64, 37
1, 545077, Control_c, 0, 64, 57
1, 545091, Note_off_c, 0, 69, 61
1, 545092, Control_c, 0, 64, 73
1, 545106, Control_c, 0, 64, 127
1, 545125, Note_off_c, 0, 59, 64
1, 545168, Note_off_c, 0, 66, 62
1, 545173, Poly_aftertouch_c, 0, 45, 127
1, 545200, Poly_aftertouch_c, 0, 45, 0
1, 545312, Note_on_c, 0, 74, 70
1, 545340, Note_off_c, 0, 74, 68
1, 545459, Note_on_c, 0, 54, 47
1, 545473, Note_off_c, 0, 50, 63
1, 545485, Note_off_c, 0, 54, 60
1, 545587, Note_on_c, 0, 69, 73
1, 545595, Note_on_c, 0, 60, 60
1, 545603, Note_on_c, 0, 62, 50
1, 545685, Note_off_c, 0, 60, 64
1, 545698, Note_on_c, 0, 31, 55
1, 545736, Note_off_c, 0, 31, 63
1, 545766, Note_on_c, 0, 43, 42
1, 545801, Note_off_c, 0, 43, 61
1, 545902, Note_off_c, 0, 69, 62
1, 546041, Note_on_c, 0, 66, 61
1, 546057, Note_on_c, 0, 59, 59
1, 546061, Note_on_c, 0, 50, 51
1, 546063, Control_c, 0, 64, 88
1, 546078, Control_c, 0, 64, 69
1, 546093, Control_c, 0, 64, 63
1, 546108, Control_c, 0, 64, 64
1, 546123, Control_c, 0, 64, 69
1, 546138, Control_c, 0, 64, 79
1, 546152, Control_c, 0, 64, 122
1, 546167, Control_c, 0, 64, 127
1, 546214, Note_off_c, 0, 59, 64
1, 546266, Note_off_c, 0, 62, 37
1, 546289, Note_off_c, 0, 66, 62
1, 546348, Note_off_c, 0, 50, 63
1, 546497, Note_on_c, 0, 88, 63
1, 546761, Note_on_c, 0, 59, 50
1, 546831, Note_on_c, 0, 76, 62
1, 546838, Note_off_c, 0, 88, 56
1, 546951, Note_off_c, 0, 76, 54
1, 547060, Note_off_c, 0, 59, 38
1, 547072, Note_on_c, 0, 64, 56
1, 547083, Note_on_c, 0, 76, 73
1, 547162, Note_off_c, 0, 64, 62
1, 547320, Note_on_c, 0, 83, 81
1, 547341, Note_off_c, 0, 76, 63
1, 547346, Note_off_c, 0, 83, 66
1, 547546, Note_on_c, 0, 69, 82
1, 547557, Note_on_c, 0, 62, 50
1, 547574, Note_on_c, 0, 59, 48
1, 547699, Note_off_c, 0, 62, 59
1, 547842, Note_on_c, 0, 60, 54
1, 547848, Note_on_c, 0, 62, 54
1, 547854, Note_on_c, 0, 66, 80
1, 547881, Note_off_c, 0, 69, 65
1, 547920, Note_off_c, 0, 59, 32
1, 547920, Note_off_c, 0, 62, 62
1, 547936, Note_off_c, 0, 60, 64
1, 548085, Note_on_c, 0, 76, 60
1, 548116, Note_off_c, 0, 66, 64
1, 548120, Note_off_c, 0, 76, 66
1, 548322, Note_on_c, 0, 67, 88
1, 548379, Note_on_c, 0, 59, 36
1, 548421, Note_off_c, 0, 59, 45
1, 548558, Poly_aftertouch_c, 0, 62, 127
1, 548601, Note_on_c, 0, 48, 63
1, 548638, Note_on_c, 0, 59, 53
1, 548645, Note_on_c, 0, 64, 85
1, 548651, Control_c, 0, 64, 72
1, 548666, Control_c, 0, 64, 60
1, 548695, Control_c, 0, 64, 65
1, 548704, Note_off_c, 0, 67, 60
1, 548710, Control_c, 0, 64, 79
1, 548724, Poly_aftertouch_c, 0, 62, 0
1, 548725, Control_c, 0, 64, 127
1, 548740, Note_off_c, 0, 59, 63
1, 548781, Note_off_c, 0, 64, 63
1, 548890, Note_on_c, 0, 72, 79
1, 548912, Note_off_c, 0, 72, 70
1, 549130, Note_on_c, 0, 40, 64
1, 549161, Note_on_c, 0, 67, 86
1, 549167, Note_on_c, 0, 55, 82
1, 549168, Note_on_c, 0, 60, 70
1, 549169, Note_off_c, 0, 48, 62
1, 549197, Note_off_c, 0, 40, 64
1, 549267, Note_off_c, 0, 60, 61
1, 549363, Note_off_c, 0, 55, 61
1, 549531, Note_on_c, 0, 42, 70
1, 549533, Note_on_c, 0, 30, 60
1, 549578, Note_on_c, 0, 64, 83
1, 549595, Note_on_c, 0, 59, 67
1, 549600, Control_c, 0, 64, 70
1, 549615, Control_c, 0, 64, 0
1, 549674, Control_c, 0, 64, 34
1, 549681, Note_off_c, 0, 67, 60
1, 549689, Control_c, 0, 64, 64
1, 549692, Note_off_c, 0, 59, 61
1, 549703, Control_c, 0, 64, 78
1, 549718, Control_c, 0, 64, 127
1, 549761, Note_off_c, 0, 30, 61
1, 549765, Note_off_c, 0, 64, 66
1, 549825, Note_off_c, 0, 42, 63
1, 550005, Note_on_c, 0, 88, 78
1, 550235, Note_on_c, 0, 59, 56
1, 550320, Note_on_c, 0, 76, 72
1, 550347, Note_off_c, 0, 88, 64
1, 550410, Note_off_c, 0, 76, 62
1, 550555, Note_off_c, 0, 59, 37
1, 550575, Note_on_c, 0, 76, 81
1, 550576, Note_on_c, 0, 64, 64
1, 550613, Note_off_c, 0, 64, 63
1, 550783, Note_on_c, 0, 83, 86
1, 550807, Note_off_c, 0, 76, 64
1, 550822, Note_off_c, 0, 83, 64
1, 551021, Note_on_c, 0, 67, 91
1, 551030, Note_on_c, 0, 60, 56
1, 551038, Note_on_c, 0, 57, 54
1, 551151, Note_off_c, 0, 60, 54
1, 551309, Note_on_c, 0, 59, 64
1, 551315, Note_on_c, 0, 60, 64
1, 551316, Note_off_c, 0, 57, 63
1, 551338, Note_on_c, 0, 64, 91
1, 551368, Note_off_c, 0, 67, 62
1, 551451, Note_off_c, 0, 64, 61
1, 551558, Note_on_c, 0, 76, 84
1, 551578, Note_off_c, 0, 76, 72
1, 551586, Note_off_c, 0, 60, 65
1, 551609, Note_off_c, 0, 59, 64
1, 551781, Note_on_c, 0, 66, 92
1, 551796, Note_on_c, 0, 57, 81
1, 552058, Note_on_c, 0, 47, 67
1, 552112, Control_c, 0, 64, 85
1, 552118, Note_on_c, 0, 63, 89
1, 552127, Control_c, 0, 64, 60
1, 552142, Control_c, 0, 64, 0
1, 552162, Note_off_c, 0, 66, 62
1, 552171, Control_c, 0, 64, 37
1, 552176, Note_off_c, 0, 57, 59
1, 552186, Control_c, 0, 64, 61
1, 552201, Control_c, 0, 64, 72
1, 552216, Control_c, 0, 64, 99
1, 552230, Control_c, 0, 64, 127
1, 552356, Note_on_c, 0, 71, 84
1, 552419, Note_on_c, 0, 59, 45
1, 552477, Note_off_c, 0, 59, 63
1, 552513, Note_on_c, 0, 56, 72
1, 552525, Note_on_c, 0, 48, 64
1, 552540, Note_off_c, 0, 63, 61
1, 552561, Note_off_c, 0, 71, 57
1, 552585, Note_off_c, 0, 47, 63
1, 552588, Note_off_c, 0, 56, 64
1, 552600, Note_on_c, 0, 59, 85
1, 552603, Note_off_c, 0, 48, 63
1, 552604, Note_on_c, 0, 64, 81
1, 552689, Note_off_c, 0, 59, 62
1, 552908, Note_on_c, 0, 49, 78
1, 552910, Note_on_c, 0, 40, 72
1, 552955, Poly_aftertouch_c, 0, 63, 127
1, 552974, Note_on_c, 0, 58, 81
1, 552979, Control_c, 0, 64, 94
1, 552993, Note_on_c, 0, 55, 80
1, 552994, Control_c, 0, 64, 50
1, 552996, Note_on_c, 0, 66, 79
1, 553009, Control_c, 0, 64, 0
1, 553061, Note_off_c, 0, 55, 63
1, 553068, Control_c, 0, 64, 39
1, 553074, Poly_aftertouch_c, 0, 63, 0
1, 553083, Control_c, 0, 64, 62
1, 553088, Note_off_c, 0, 64, 60
1, 553096, Note_off_c, 0, 58, 64
1, 553098, Control_c, 0, 64, 68
1, 553113, Control_c, 0, 64, 74
1, 553123, Note_off_c, 0, 66, 64
1, 553128, Control_c, 0, 64, 82
1, 553143, Control_c, 0, 64, 92
1, 553157, Control_c, 0, 64, 109
1, 553172, Control_c, 0, 64, 127
1, 553187, Note_off_c, 0, 40, 63
1, 553221, Note_off_c, 0, 49, 63
1, 553330, Note_on_c, 0, 67, 86
1, 553336, Note_on_c, 0, 64, 82
1, 553399, Note_off_c, 0, 64, 61
1, 553406, Note_off_c, 0, 67, 65
1, 553471, Note_on_c, 0, 61, 76
1, 553486, Note_on_c, 0, 57, 34
1, 553501, Poly_aftertouch_c, 0, 71, 0
1, 553553, Note_on_c, 0, 70, 89
1, 553555, Note_on_c, 0, 66, 88
1, 553560, Note_off_c, 0, 57, 56
1, 553655, Note_off_c, 0, 66, 59
1, 553682, Note_on_c, 0, 64, 80
1, 553765, Note_on_c, 0, 75, 88
1, 553767, Note_on_c, 0, 67, 91
1, 553772, Control_c, 0, 64, 76
1, 553787, Control_c, 0, 64, 59
1, 553802, Control_c, 0, 64, 47
1, 553813, Note_off_c, 0, 70, 60
1, 553816, Control_c, 0, 64, 50
1, 553831, Control_c, 0, 64, 60
1, 553846, Control_c, 0, 64, 69
1, 553861, Control_c, 0, 64, 84
1, 553876, Control_c, 0, 64, 127
1, 553910, Note_on_c, 0, 76, 93
1, 553951, Note_off_c, 0, 67, 62
1, 553957, Note_off_c, 0, 75, 57
1, 554116, Note_on_c, 0, 59, 68
1, 554172, Note_off_c, 0, 61, 57
1, 554176, Note_on_c, 0, 78, 94
1, 554180, Note_on_c, 0, 69, 79
1, 554187, Note_off_c, 0, 64, 60
1, 554195, Control_c, 0, 64, 85
1, 554210, Control_c, 0, 64, 45
1, 554225, Control_c, 0, 64, 0
1, 554228, Note_off_c, 0, 76, 62
1, 554299, Control_c, 0, 64, 21
1, 554314, Control_c, 0, 64, 60
1, 554329, Control_c, 0, 64, 65
1, 554344, Control_c, 0, 64, 68
1, 554358, Control_c, 0, 64, 71
1, 554360, Note_off_c, 0, 69, 63
1, 554373, Control_c, 0, 64, 76
1, 554388, Control_c, 0, 64, 83
1, 554403, Control_c, 0, 64, 106
1, 554418, Control_c, 0, 64, 127
1, 554553, Note_on_c, 0, 61, 82
1, 554738, Note_on_c, 0, 66, 85
1, 554739, Note_on_c, 0, 71, 83
1, 554746, Note_on_c, 0, 63, 87
1, 554778, Note_off_c, 0, 61, 62
1, 554888, Note_off_c, 0, 66, 60
1, 555003, Control_c, 0, 64, 70
1, 555004, Note_on_c, 0, 64, 94
1, 555018, Control_c, 0, 64, 26
1, 555021, Note_on_c, 0, 67, 89
1, 555030, Note_off_c, 0, 63, 63
1, 555033, Control_c, 0, 64, 0
1, 555077, Control_c, 0, 64, 49
1, 555092, Control_c, 0, 64, 63
1, 555107, Control_c, 0, 64, 72
1, 555122, Control_c, 0, 64, 91
1, 555129, Note_off_c, 0, 67, 57
1, 555137, Control_c, 0, 64, 127
1, 555145, Note_off_c, 0, 71, 53
1, 555235, Note_on_c, 0, 69, 103
1, 555239, Note_on_c, 0, 65, 87
1, 555255, Note_off_c, 0, 64, 63
1, 555269, Note_off_c, 0, 59, 65
1, 555275, Note_off_c, 0, 78, 62
1, 555454, Note_on_c, 0, 70, 93
1, 555456, Note_on_c, 0, 78, 105
1, 555456, Note_on_c, 0, 66, 92
1, 555477, Note_off_c, 0, 65, 61
1, 555525, Note_off_c, 0, 69, 59
1, 555556, Note_off_c, 0, 66, 59
1, 555575, Note_off_c, 0, 70, 62
1, 555700, Poly_aftertouch_c, 0, 76, 127
1, 555717, Note_off_c, 0, 78, 59
1, 555749, Poly_aftertouch_c, 0, 76, 0
1, 555760, Note_on_c, 0, 64, 78
1, 555767, Note_on_c, 0, 67, 89
1, 555767, Control_c, 0, 64, 104
1, 555770, Note_on_c, 0, 79, 97
1, 555773, Note_on_c, 0, 71, 101
1, 555782, Control_c, 0, 64, 62
1, 555797, Control_c, 0, 64, 0
1, 555811, Control_c, 0, 64, 18
1, 555826, Control_c, 0, 64, 57
1, 555841, Control_c, 0, 64, 78
1, 555856, Control_c, 0, 64, 127
1, 555881, Note_off_c, 0, 79, 63
1, 555895, Note_off_c, 0, 71, 61
1, 555990, Note_off_c, 0, 67, 68
1, 556034, Note_off_c, 0, 64, 66
1, 556052, Note_on_c, 0, 81, 97
1, 556054, Note_on_c, 0, 72, 94
1, 556058, Note_on_c, 0, 69, 100
1, 556156, Note_off_c, 0, 81, 64
1, 556205, Note_off_c, 0, 69, 59
1, 556404, Note_on_c, 0, 79, 98
1, 556404, Note_on_c, 0, 74, 96
1, 556406, Note_on_c, 0, 67, 98
1, 556515, Note_off_c, 0, 72, 59
1, 556597, Note_off_c, 0, 74, 64
1, 556637, Note_off_c, 0, 67, 57
1, 556702, Note_off_c, 0, 79, 47
1, 556933, Note_on_c, 0, 79, 96
1, 556935, Note_on_c, 0, 67, 93
1, 556936, Note_on_c, 0, 76, 93
1, 556943, Note_on_c, 0, 45, 90
1, 556946, Note_on_c, 0, 33, 80
1, 556961, Control_c, 0, 64, 73
1, 556976, Control_c, 0, 64, 0
1, 557020, Control_c, 0, 64, 61
1, 557035, Control_c, 0, 64, 86
1, 557042, Note_off_c, 0, 33, 63
1, 557057, Control_c, 0, 64, 127
1, 557069, Note_off_c, 0, 45, 63
1, 557265, Note_off_c, 0, 67, 61
1, 557274, Note_off_c, 0, 79, 61
1, 557306, Note_off_c, 0, 76, 64
1, 557405, Note_on_c, 0, 71, 89
1, 557405, Note_on_c, 0, 52, 83
1, 557414, Note_on_c, 0, 83, 76
1, 557437, Note_off_c, 0, 83, 70
1, 557453, Note_off_c, 0, 71, 62
1, 557638, Note_on_c, 0, 60, 90
1, 557648, Note_on_c, 0, 78, 93
1, 557650, Note_on_c, 0, 74, 86
1, 557651, Note_on_c, 0, 66, 91
1, 557679, Note_off_c, 0, 52, 65
1, 557700, Note_off_c, 0, 66, 61
1, 557724, Note_off_c, 0, 78, 62
1, 557727, Note_off_c, 0, 74, 59
1, 557745, Note_off_c, 0, 60, 65
1, 557926, Poly_aftertouch_c, 0, 60, 127
1, 557954, Note_on_c, 0, 74, 62
1, 557962, Note_on_c, 0, 78, 73
1, 557973, Poly_aftertouch_c, 0, 71, 0
1, 557977, Note_on_c, 0, 66, 57
1, 558057, Note_off_c, 0, 66, 60
1, 558085, Note_on_c, 0, 71, 100
1, 558089, Note_off_c, 0, 74, 64
1, 558124, Note_off_c, 0, 78, 64
1, 558230, Poly_aftertouch_c, 0, 60, 0
1, 558279, Note_off_c, 0, 71, 58
1, 558394, Note_on_c, 0, 83, 89
1, 558403, Note_on_c, 0, 71, 93
1, 558413, Note_on_c, 0, 60, 63
1, 558434, Note_off_c, 0, 83, 67
1, 558449, Note_off_c, 0, 71, 66
1, 558620, Note_on_c, 0, 52, 64
1, 558663, Note_on_c, 0, 76, 82
1, 558668, Note_on_c, 0, 72, 82
1, 558672, Note_on_c, 0, 64, 81
1, 558717, Note_off_c, 0, 60, 36
1, 558777, Note_off_c, 0, 64, 61
1, 558779, Note_off_c, 0, 76, 62
1, 558806, Note_off_c, 0, 72, 53
1, 558876, Note_on_c, 0, 72, 67
1, 558879, Note_on_c, 0, 64, 87
1, 558881, Note_on_c, 0, 76, 90
1, 558917, Note_off_c, 0, 64, 61
1, 558926, Note_off_c, 0, 72, 65
1, 558953, Note_off_c, 0, 76, 66
1, 559066, Note_on_c, 0, 60, 78
1, 559071, Note_on_c, 0, 71, 98
1, 559071, Note_on_c, 0, 83, 81
1, 559091, Note_off_c, 0, 83, 72
1, 559095, Note_off_c, 0, 52, 66
1, 559113, Note_off_c, 0, 71, 66
1, 559125, Note_on_c, 0, 81, 4
1, 559126, Note_off_c, 0, 81, 127
1, 559133, Note_off_c, 0, 60, 65
1, 559174, Poly_aftertouch_c, 0, 81, 0
1, 559283, Note_on_c, 0, 71, 76
1, 559286, Note_on_c, 0, 74, 63
1, 559292, Note_on_c, 0, 76, 61
1, 559303, Note_on_c, 0, 69, 100
1, 559322, Poly_aftertouch_c, 0, 60, 127
1, 559331, Note_off_c, 0, 76, 65
1, 559342, Note_off_c, 0, 71, 65
1, 559347, Note_off_c, 0, 74, 63
1, 559439, Note_off_c, 0, 69, 59
1, 559456, Poly_aftertouch_c, 0, 59, 127
1, 559559, Note_on_c, 0, 67, 98
1, 559570, Control_c, 0, 64, 89
1, 559582, Poly_aftertouch_c, 0, 59, 0
1, 559585, Control_c, 0, 64, 63
1, 559600, Control_c, 0, 64, 56
1, 559601, Note_on_c, 0, 76, 89
1, 559607, Poly_aftertouch_c, 0, 60, 0
1, 559608, Note_on_c, 0, 72, 89
1, 559615, Control_c, 0, 64, 64
1, 559629, Control_c, 0, 64, 81
1, 559644, Control_c, 0, 64, 127
1, 559671, Note_off_c, 0, 67, 58
1, 559686, Note_off_c, 0, 76, 67
1, 559686, Note_off_c, 0, 72, 64
1, 559817, Note_on_c, 0, 50, 81
1, 559843, Note_off_c, 0, 50, 68
1, 559850, Note_on_c, 0, 81, 90
1, 559852, Note_on_c, 0, 69, 87
1, 560008, Note_off_c, 0, 69, 53
1, 560121, Note_on_c, 0, 57, 77
1, 560124, Note_on_c, 0, 78, 93
1, 560126, Note_on_c, 0, 74, 88
1, 560129, Note_on_c, 0, 66, 78
1, 560132, Note_on_c, 0, 60, 44
1, 560156, Note_off_c, 0, 66, 66
1, 560162, Note_off_c, 0, 60, 66
1, 560164, Note_off_c, 0, 81, 67
1, 560179, Note_off_c, 0, 57, 66
1, 560204, Note_off_c, 0, 74, 67
1, 560248, Note_off_c, 0, 78, 57
1, 560499, Note_on_c, 0, 43, 70
1, 560505, Note_on_c, 0, 31, 71
1, 560543, Note_on_c, 0, 78, 91
1, 560543, Control_c, 0, 64, 87
1, 560551, Note_on_c, 0, 66, 82
1, 560552, Note_on_c, 0, 74, 84
1, 560558, Control_c, 0, 64, 53
1, 560573, Control_c, 0, 64, 0
1, 560602, Control_c, 0, 64, 33
1, 560617, Note_off_c, 0, 31, 64
1, 560617, Control_c, 0, 64, 62
1, 560632, Control_c, 0, 64, 82
1, 560647, Control_c, 0, 64, 127
1, 560658, Note_off_c, 0, 43, 65
1, 560709, Note_off_c, 0, 66, 61
1, 560732, Note_off_c, 0, 74, 62
1, 560764, Note_off_c, 0, 78, 64
1, 560854, Note_on_c, 0, 83, 85
1, 560859, Note_on_c, 0, 71, 92
1, 560866, Note_on_c, 0, 50, 83
1, 560876, Note_off_c, 0, 83, 67
1, 560902, Note_off_c, 0, 71, 64
1, 561057, Note_on_c, 0, 59, 97
1, 561066, Note_on_c, 0, 76, 82
1, 561070, Note_on_c, 0, 64, 77
1, 561073, Note_on_c, 0, 72, 73
1, 561075, Note_off_c, 0, 50, 63
1, 561151, Note_off_c, 0, 76, 61
1, 561154, Note_off_c, 0, 64, 53
1, 561163, Note_off_c, 0, 72, 59
1, 561326, Note_on_c, 0, 76, 64
1, 561330, Note_on_c, 0, 72, 58
1, 561453, Note_on_c, 0, 69, 101
1, 561467, Note_off_c, 0, 76, 65
1, 561477, Note_off_c, 0, 72, 64
1, 561567, Note_off_c, 0, 59, 60
1, 561641, Note_off_c, 0, 69, 52
1, 561734, Note_on_c, 0, 83, 83
1, 561748, Note_on_c, 0, 59, 68
1, 561751, Note_on_c, 0, 71, 82
1, 561777, Note_off_c, 0, 83, 66
1, 561795, Note_off_c, 0, 71, 65
1, 561961, Note_on_c, 0, 50, 64
1, 561981, Note_on_c, 0, 74, 76
1, 561982, Note_on_c, 0, 71, 73
1, 561996, Note_on_c, 0, 62, 68
1, 562038, Note_off_c, 0, 59, 37
1, 562096, Note_off_c, 0, 62, 62
1, 562096, Note_off_c, 0, 74, 61
1, 562136, Note_off_c, 0, 71, 50
1, 562191, Note_on_c, 0, 62, 87
1, 562193, Note_on_c, 0, 74, 85
1, 562195, Note_on_c, 0, 71, 68
1, 562234, Note_off_c, 0, 62, 66
1, 562258, Note_off_c, 0, 71, 64
1, 562273, Note_off_c, 0, 74, 64
1, 562286, Poly_aftertouch_c, 0, 59, 127
1, 562362, Poly_aftertouch_c, 0, 59, 0
1, 562381, Note_on_c, 0, 59, 45
1, 562398, Note_on_c, 0, 83, 87
1, 562401, Note_on_c, 0, 71, 92
1, 562417, Note_off_c, 0, 83, 73
1, 562418, Note_off_c, 0, 50, 64
1, 562440, Note_off_c, 0, 71, 67
1, 562446, Note_off_c, 0, 59, 64
1, 562586, Note_on_c, 0, 67, 98
1, 562598, Note_on_c, 0, 69, 73
1, 562598, Note_on_c, 0, 72, 74
1, 562647, Note_off_c, 0, 69, 65
1, 562667, Note_off_c, 0, 72, 61
1, 562684, Note_off_c, 0, 67, 57
1, 562733, Poly_aftertouch_c, 0, 60, 127
1, 562842, Note_on_c, 0, 55, 77
1, 562847, Control_c, 0, 64, 111
1, 562850, Note_on_c, 0, 66, 98
1, 562851, Note_on_c, 0, 74, 75
1, 562860, Note_on_c, 0, 71, 73
1, 562862, Control_c, 0, 64, 62
1, 562869, Note_on_c, 0, 62, 40
1, 562877, Control_c, 0, 64, 41
1, 562893, Control_c, 0, 64, 51
1, 562908, Control_c, 0, 64, 63
1, 562917, Note_off_c, 0, 62, 45
1, 562921, Note_off_c, 0, 71, 66
1, 562922, Note_off_c, 0, 74, 64
1, 562923, Control_c, 0, 64, 80
1, 562938, Control_c, 0, 64, 127
1, 562969, Poly_aftertouch_c, 0, 60, 0
1, 563017, Note_off_c, 0, 66, 62
1, 563091, Note_on_c, 0, 81, 89
1, 563098, Note_on_c, 0, 60, 85
1, 563102, Note_on_c, 0, 69, 91
1, 563191, Poly_aftertouch_c, 0, 57, 127
1, 563230, Note_off_c, 0, 69, 60
1, 563325, Note_on_c, 0, 64, 88
1, 563355, Note_on_c, 0, 76, 88
1, 563363, Note_off_c, 0, 55, 61
1, 563364, Note_on_c, 0, 72, 97
1, 563366, Note_off_c, 0, 64, 68
1, 563382, Note_off_c, 0, 60, 68
1, 563408, Poly_aftertouch_c, 0, 57, 0
1, 563413, Note_off_c, 0, 81, 65
1, 563433, Note_off_c, 0, 76, 65
1, 563473, Note_off_c, 0, 72, 61
1, 563678, Note_on_c, 0, 42, 61
1, 563704, Note_on_c, 0, 30, 69
1, 563711, Note_on_c, 0, 76, 93
1, 563721, Note_on_c, 0, 64, 85
1, 563721, Note_on_c, 0, 72, 85
1, 563731, Control_c, 0, 64, 77
1, 563746, Control_c, 0, 64, 39
1, 563761, Control_c, 0, 64, 0
1, 563775, Control_c, 0, 64, 11
1, 563797, Control_c, 0, 64, 58
1, 563811, Note_off_c, 0, 30, 63
1, 563812, Control_c, 0, 64, 80
1, 563826, Control_c, 0, 64, 127
1, 563841, Note_off_c, 0, 42, 63
1, 563876, Note_off_c, 0, 64, 62
1, 563909, Note_off_c, 0, 72, 66
1, 563921, Note_off_c, 0, 76, 64
1, 564034, Note_on_c, 0, 48, 72
1, 564034, Note_on_c, 0, 69, 82
1, 564041, Note_on_c, 0, 81, 69
1, 564044, Note_on_c, 0, 83, 59
1, 564047, Note_on_c, 0, 71, 68
1, 564049, Poly_aftertouch_c, 0, 54, 127
1, 564058, Note_off_c, 0, 81, 68
1, 564063, Note_off_c, 0, 71, 66
1, 564063, Note_off_c, 0, 83, 62
1, 564079, Note_off_c, 0, 69, 61
1, 564082, Poly_aftertouch_c, 0, 54, 0
1, 564223, Note_on_c, 0, 57, 93
1, 564230, Note_on_c, 0, 74, 79
1, 564237, Note_on_c, 0, 71, 74
1, 564253, Note_off_c, 0, 48, 63
1, 564311, Note_off_c, 0, 71, 58
1, 564320, Note_off_c, 0, 74, 59
1, 564479, Note_on_c, 0, 71, 53
1, 564479, Note_on_c, 0, 74, 57
1, 564623, Note_on_c, 0, 67, 100
1, 564634, Note_off_c, 0, 74, 62
1, 564650, Note_off_c, 0, 71, 65
1, 564736, Note_off_c, 0, 57, 55
1, 564783, Note_off_c, 0, 67, 54
1, 564916, Note_on_c, 0, 57, 63
1, 564929, Note_on_c, 0, 83, 86
1, 564942, Note_on_c, 0, 71, 83
1, 564970, Note_off_c, 0, 83, 67
1, 564983, Note_off_c, 0, 71, 62
1, 565143, Note_on_c, 0, 48, 58
1, 565206, Note_on_c, 0, 72, 74
1, 565223, Note_on_c, 0, 69, 71
1, 565227, Control_c, 0, 64, 83
1, 565227, Note_on_c, 0, 60, 62
1, 565241, Control_c, 0, 64, 66
1, 565256, Control_c, 0, 64, 63
1, 565271, Control_c, 0, 64, 66
1, 565294, Control_c, 0, 64, 74
1, 565309, Control_c, 0, 64, 97
1, 565324, Control_c, 0, 64, 127
1, 565337, Note_off_c, 0, 57, 38
1, 565358, Note_off_c, 0, 60, 64
1, 565365, Note_off_c, 0, 72, 64
1, 565370, Note_off_c, 0, 69, 56
1, 565370, Poly_aftertouch_c, 0, 50, 127
1, 565447, Note_on_c, 0, 69, 58
1, 565454, Note_on_c, 0, 72, 86
1, 565459, Note_on_c, 0, 60, 80
1, 565504, Note_off_c, 0, 60, 63
1, 565507, Note_off_c, 0, 69, 64
1, 565531, Note_off_c, 0, 72, 62
1, 565594, Note_off_c, 0, 48, 61
1, 565636, Note_on_c, 0, 57, 58
1, 565647, Poly_aftertouch_c, 0, 50, 0
1, 565656, Note_on_c, 0, 76, 67
1, 565660, Note_on_c, 0, 64, 72
1, 565672, Note_off_c, 0, 57, 66
1, 565673, Note_off_c, 0, 76, 66
1, 565701, Note_off_c, 0, 64, 61
1, 565752, Poly_aftertouch_c, 0, 62, 127
1, 565779, Poly_aftertouch_c, 0, 62, 0
1, 565884, Note_on_c, 0, 67, 64
1, 565888, Note_on_c, 0, 71, 71
1, 565889, Note_on_c, 0, 66, 91
1, 565901, Control_c, 0, 64, 102
1, 565916, Control_c, 0, 64, 79
1, 565931, Control_c, 0, 64, 74
1, 565946, Control_c, 0, 64, 80
1, 565960, Control_c, 0, 64, 94
1, 565975, Control_c, 0, 64, 127
1, 566005, Note_off_c, 0, 71, 64
1, 566014, Note_off_c, 0, 67, 64
1, 566102, Note_off_c, 0, 66, 62
1, 566233, Note_on_c, 0, 64, 78
1, 566280, Control_c, 0, 64, 80
1, 566294, Control_c, 0, 64, 61
1, 566309, Control_c, 0, 64, 49
1, 566312, Note_on_c, 0, 73, 73
1, 566317, Note_on_c, 0, 61, 65
1, 566324, Control_c, 0, 64, 55
1, 566339, Control_c, 0, 64, 63
1, 566354, Control_c, 0, 64, 71
1, 566369, Control_c, 0, 64, 92
1, 566372, Note_on_c, 0, 70, 41
1, 566384, Control_c, 0, 64, 127
1, 566391, Note_off_c, 0, 64, 67
1, 566448, Note_off_c, 0, 61, 62
1, 566482, Note_off_c, 0, 73, 63
1, 566509, Note_off_c, 0, 70, 65
1, 566604, Note_on_c, 0, 47, 57
1, 566653, Note_off_c, 0, 47, 62
1, 566671, Note_on_c, 0, 78, 77
1, 566682, Note_on_c, 0, 66, 72
1, 566841, Note_off_c, 0, 66, 62
1, 566916, Note_on_c, 0, 54, 62
1, 566920, Note_on_c, 0, 63, 66
1, 566928, Note_on_c, 0, 57, 61
1, 566951, Note_on_c, 0, 75, 73
1, 566952, Note_on_c, 0, 69, 67
1, 566969, Note_off_c, 0, 54, 62
1, 566971, Note_off_c, 0, 63, 59
1, 566973, Note_off_c, 0, 78, 62
1, 566978, Note_off_c, 0, 57, 62
1, 567040, Note_off_c, 0, 75, 63
1, 567043, Note_off_c, 0, 69, 62
1, 567152, Note_on_c, 0, 63, 68
1, 567165, Note_on_c, 0, 54, 59
1, 567169, Note_on_c, 0, 75, 75
1, 567171, Note_on_c, 0, 57, 45
1, 567180, Note_off_c, 0, 63, 67
1, 567189, Note_on_c, 0, 69, 70
1, 567195, Note_off_c, 0, 57, 59
1, 567197, Note_off_c, 0, 54, 64
1, 567249, Note_off_c, 0, 69, 61
1, 567408, Note_on_c, 0, 47, 72
1, 567415, Control_c, 0, 64, 87
1, 567421, Note_on_c, 0, 67, 66
1, 567423, Note_on_c, 0, 79, 81
1, 567430, Control_c, 0, 64, 63
1, 567444, Note_off_c, 0, 75, 54
1, 567444, Control_c, 0, 64, 57
1, 567456, Poly_aftertouch_c, 0, 74, 127
1, 567459, Control_c, 0, 64, 60
1, 567472, Note_off_c, 0, 47, 64
1, 567474, Control_c, 0, 64, 63
1, 567475, Poly_aftertouch_c, 0, 74, 0
1, 567489, Control_c, 0, 64, 71
1, 567504, Control_c, 0, 64, 90
1, 567518, Control_c, 0, 64, 127
1, 567614, Note_off_c, 0, 67, 62
1, 567624, Note_on_c, 0, 76, 81
1, 567626, Note_on_c, 0, 71, 80
1, 567629, Note_off_c, 0, 79, 66
1, 567631, Note_on_c, 0, 64, 59
1, 567641, Note_on_c, 0, 59, 40
1, 567642, Note_on_c, 0, 55, 42
1, 567651, Note_off_c, 0, 64, 62
1, 567671, Note_off_c, 0, 59, 51
1, 567675, Note_off_c, 0, 55, 53
1, 567799, Note_off_c, 0, 76, 64
1, 567812, Note_on_c, 0, 59, 29
1, 567821, Note_on_c, 0, 75, 85
1, 567823, Note_on_c, 0, 78, 94
1, 567823, Note_on_c, 0, 66, 92
1, 567827, Note_on_c, 0, 63, 67
1, 567831, Note_on_c, 0, 54, 65
1, 567841, Note_off_c, 0, 71, 62
1, 567850, Note_off_c, 0, 59, 57
1, 567855, Note_off_c, 0, 63, 66
1, 567856, Note_off_c, 0, 54, 65
1, 567862, Note_off_c, 0, 75, 62
1, 567862, Note_off_c, 0, 66, 65
1, 567893, Note_off_c, 0, 78, 64
1, 568010, Note_on_c, 0, 71, 100
1, 568011, Note_on_c, 0, 45, 60
1, 568013, Note_on_c, 0, 83, 87
1, 568014, Note_on_c, 0, 47, 62
1, 568036, Note_off_c, 0, 45, 62
1, 568041, Note_off_c, 0, 47, 66
1, 568049, Note_off_c, 0, 83, 59
1, 568056, Note_off_c, 0, 71, 62
1, 568062, Note_on_c, 0, 81, 19
1, 568063, Note_off_c, 0, 81, 127
1, 568193, Note_on_c, 0, 64, 77
1, 568199, Note_on_c, 0, 79, 93
1, 568202, Note_on_c, 0, 67, 96
1, 568202, Note_on_c, 0, 76, 96
1, 568228, Note_off_c, 0, 64, 65
1, 568247, Note_off_c, 0, 67, 66
1, 568271, Note_off_c, 0, 76, 64
1, 568288, Note_off_c, 0, 79, 64
1, 568399, Note_on_c, 0, 62, 77
1, 568402, Note_on_c, 0, 66, 86
1, 568405, Note_on_c, 0, 57, 57
1, 568408, Control_c, 0, 64, 84
1, 568422, Control_c, 0, 64, 64
1, 568437, Control_c, 0, 64, 60
1, 568441, Note_off_c, 0, 66, 65
1, 568444, Note_on_c, 0, 69, 102
1, 568444, Note_on_c, 0, 81, 94
1, 568447, Note_on_c, 0, 78, 96
1, 568449, Note_off_c, 0, 62, 66
1, 568452, Control_c, 0, 64, 67
1, 568464, Note_off_c, 0, 57, 64
1, 568466, Control_c, 0, 64, 98
1, 568476, Note_off_c, 0, 69, 68
1, 568481, Control_c, 0, 64, 127
1, 568500, Note_off_c, 0, 81, 66
1, 568501, Note_off_c, 0, 78, 65
1, 568646, Note_on_c, 0, 50, 72
1, 568649, Note_on_c, 0, 43, 70
1, 568664, Note_on_c, 0, 74, 104
1, 568664, Note_on_c, 0, 86, 98
1, 568676, Note_off_c, 0, 43, 65
1, 568677, Note_off_c, 0, 50, 67
1, 568703, Note_off_c, 0, 86, 67
1, 568706, Note_off_c, 0, 74, 66
1, 568796, Note_on_c, 0, 80, 38
1, 568825, Note_off_c, 0, 80, 49
1, 568876, Note_on_c, 0, 62, 90
1, 568881, Note_on_c, 0, 67, 89
1, 568884, Note_on_c, 0, 83, 98
1, 568887, Note_on_c, 0, 79, 98
1, 568888, Note_on_c, 0, 71, 98
1, 568906, Note_off_c, 0, 67, 66
1, 568923, Note_off_c, 0, 62, 68
1, 569014, Note_off_c, 0, 71, 48
1, 569056, Note_off_c, 0, 83, 56
1, 569125, Note_off_c, 0, 79, 62
1, 569126, Control_c, 0, 64, 97
1, 569141, Control_c, 0, 64, 63
1, 569156, Note_on_c, 0, 57, 82
1, 569156, Note_on_c, 0, 66, 90
1, 569156, Control_c, 0, 64, 55
1, 569157, Note_on_c, 0, 64, 78
1, 569165, Note_on_c, 0, 69, 99
1, 569165, Note_on_c, 0, 78, 103
1, 569165, Note_on_c, 0, 81, 97
1, 569171, Control_c, 0, 64, 66
1, 569179, Note_off_c, 0, 66, 69
1, 569180, Note_on_c, 0, 80, 66
1, 569185, Note_off_c, 0, 64, 68
1, 569186, Control_c, 0, 64, 94
1, 569201, Control_c, 0, 64, 127
1, 569204, Note_off_c, 0, 69, 69
1, 569205, Note_off_c, 0, 80, 39
1, 569210, Note_off_c, 0, 57, 66
1, 569225, Note_off_c, 0, 78, 68
1, 569225, Note_off_c, 0, 81, 69
1, 569459, Note_on_c, 0, 40, 81
1, 569459, Note_on_c, 0, 52, 97
1, 569476, Note_on_c, 0, 76, 109
1, 569476, Note_on_c, 0, 88, 98
1, 569484, Note_off_c, 0, 40, 65
1, 569487, Note_off_c, 0, 52, 68
1, 569500, Note_on_c, 0, 47, 21
1, 569514, Note_off_c, 0, 88, 68
1, 569518, Note_off_c, 0, 76, 69
1, 569537, Note_off_c, 0, 47, 44
1, 569540, Note_on_c, 0, 77, 3
1, 569558, Note_off_c, 0, 77, 44
1, 569824, Note_on_c, 0, 59, 92
1, 569827, Note_on_c, 0, 67, 101
1, 569827, Note_on_c, 0, 79, 100
1, 569828, Note_on_c, 0, 64, 93
1, 569828, Note_on_c, 0, 83, 98
1, 569830, Note_on_c, 0, 71, 105
1, 569851, Note_off_c, 0, 67, 69
1, 569860, Note_off_c, 0, 59, 67
1, 569860, Note_off_c, 0, 64, 70
1, 569864, Note_on_c, 0, 81, 59
1, 569934, Note_off_c, 0, 81, 60
1, 570146, Poly_aftertouch_c, 0, 34, 127
1, 570187, Control_c, 0, 64, 88
1, 570194, Poly_aftertouch_c, 0, 34, 0
1, 570202, Control_c, 0, 64, 58
1, 570217, Control_c, 0, 64, 33
1, 570224, Note_on_c, 0, 45, 99
1, 570226, Note_on_c, 0, 33, 83
1, 570232, Control_c, 0, 64, 52
1, 570247, Control_c, 0, 64, 66
1, 570256, Note_off_c, 0, 33, 67
1, 570261, Control_c, 0, 64, 108
1, 570271, Note_on_c, 0, 40, 20
1, 570274, Note_off_c, 0, 45, 68
1, 570276, Control_c, 0, 64, 127
1, 570277, Note_off_c, 0, 83, 65
1, 570279, Note_off_c, 0, 71, 67
1, 570302, Note_off_c, 0, 79, 63
1, 570315, Note_off_c, 0, 40, 50
1, 570593, Note_on_c, 0, 83, 101
1, 570596, Note_on_c, 0, 71, 102
1, 570596, Note_on_c, 0, 79, 93
1, 570600, Note_on_c, 0, 64, 91
1, 570602, Note_on_c, 0, 67, 102
1, 570603, Note_on_c, 0, 55, 94
1, 570607, Note_on_c, 0, 60, 82
1, 570629, Note_on_c, 0, 58, 58
1, 570634, Note_on_c, 0, 81, 63
1, 570673, Note_off_c, 0, 58, 49
1, 570715, Note_off_c, 0, 81, 57
1, 570767, Note_off_c, 0, 71, 67
1, 570814, Note_off_c, 0, 60, 63
1, 570831, Note_off_c, 0, 55, 63
1, 570866, Note_off_c, 0, 64, 61
1, 570882, Note_off_c, 0, 67, 58
1, 571065, Note_on_c, 0, 72, 101
1, 571070, Note_on_c, 0, 60, 86
1, 571079, Note_off_c, 0, 83, 53
1, 571094, Note_off_c, 0, 72, 69
1, 571111, Note_off_c, 0, 60, 67
1, 571126, Note_off_c, 0, 79, 64
1, 571363, Note_on_c, 0, 54, 79
1, 571363, Note_on_c, 0, 64, 77
1, 571363, Note_on_c, 0, 66, 87
1, 571376, Note_on_c, 0, 60, 69
1, 571403, Control_c, 0, 64, 95
1, 571410, Note_on_c, 0, 81, 96
1, 571410, Note_on_c, 0, 84, 98
1, 571412, Note_on_c, 0, 72, 102
1, 571418, Control_c, 0, 64, 93
1, 571432, Control_c, 0, 64, 120
1, 571447, Control_c, 0, 64, 127
1, 571499, Note_off_c, 0, 54, 60
1, 571562, Note_off_c, 0, 66, 54
1, 571578, Note_off_c, 0, 64, 56
1, 571666, Note_on_c, 0, 54, 88
1, 571670, Note_on_c, 0, 64, 71
1, 571671, Note_on_c, 0, 66, 98
1, 571672, Note_off_c, 0, 72, 55
1, 571678, Note_off_c, 0, 60, 65
1, 571705, Note_off_c, 0, 64, 64
1, 571709, Note_off_c, 0, 54, 66
1, 571719, Note_off_c, 0, 66, 58
1, 571884, Note_on_c, 0, 72, 92
1, 571902, Note_on_c, 0, 60, 66
1, 571907, Note_off_c, 0, 84, 60
1, 571911, Note_off_c, 0, 72, 64
1, 571922, Note_off_c, 0, 81, 63
1, 571931, Note_off_c, 0, 60, 67
1, 572141, Note_on_c, 0, 60, 72
1, 572145, Note_on_c, 0, 64, 87
1, 572149, Note_on_c, 0, 57, 68
1, 572152, Control_c, 0, 64, 74
1, 572153, Note_on_c, 0, 52, 72
1, 572167, Control_c, 0, 64, 61
1, 572179, Note_on_c, 0, 86, 95
1, 572181, Note_on_c, 0, 83, 93
1, 572182, Note_on_c, 0, 74, 95
1, 572182, Control_c, 0, 64, 61
1, 572196, Control_c, 0, 64, 66
1, 572211, Control_c, 0, 64, 79
1, 572226, Control_c, 0, 64, 127
1, 572351, Note_off_c, 0, 86, 63
1, 572352, Note_off_c, 0, 74, 61
1, 572359, Note_off_c, 0, 64, 59
1, 572360, Note_off_c, 0, 52, 61
1, 572372, Note_off_c, 0, 83, 64
1, 572383, Note_off_c, 0, 60, 57
1, 572430, Note_on_c, 0, 60, 62
1, 572438, Note_on_c, 0, 52, 77
1, 572441, Note_on_c, 0, 64, 88
1, 572443, Note_on_c, 0, 76, 105
1, 572444, Note_on_c, 0, 84, 102
1, 572445, Note_on_c, 0, 88, 96
1, 572461, Note_off_c, 0, 52, 69
1, 572463, Note_off_c, 0, 57, 64
1, 572467, Note_on_c, 0, 86, 56
1, 572468, Note_off_c, 0, 86, 127
1, 572481, Note_off_c, 0, 64, 67
1, 572481, Note_off_c, 0, 76, 69
1, 572483, Note_off_c, 0, 84, 66
1, 572489, Note_off_c, 0, 60, 64
1, 572503, Note_off_c, 0, 88, 66
1, 572641, Note_on_c, 0, 71, 73
1, 572645, Note_on_c, 0, 59, 73
1, 572649, Note_on_c, 0, 86, 98
1, 572650, Note_on_c, 0, 78, 99
1, 572657, Note_on_c, 0, 90, 92
1, 572657, Note_off_c, 0, 71, 67
1, 572670, Note_off_c, 0, 59, 67
1, 572694, Note_off_c, 0, 86, 65
1, 572698, Note_off_c, 0, 78, 62
1, 572699, Note_on_c, 0, 88, 11
1, 572742, Poly_aftertouch_c, 0, 69, 0
1, 572745, Note_off_c, 0, 88, 38
1, 572760, Note_off_c, 0, 90, 62
1, 572785, Note_on_c, 0, 51, 15
1, 572832, Note_off_c, 0, 51, 52
1, 572845, Note_on_c, 0, 62, 85
1, 572855, Note_on_c, 0, 50, 85
1, 572861, Note_on_c, 0, 79, 100
1, 572861, Note_on_c, 0, 91, 99
1, 572861, Note_on_c, 0, 88, 95
1, 572868, Note_off_c, 0, 62, 67
1, 572877, Note_on_c, 0, 87, 65
1, 572882, Note_off_c, 0, 50, 68
1, 572897, Note_on_c, 0, 89, 45
1, 572897, Note_off_c, 0, 87, 40
1, 572898, Note_off_c, 0, 79, 68
1, 572922, Note_off_c, 0, 88, 65
1, 572922, Note_off_c, 0, 89, 57
1, 572929, Note_off_c, 0, 91, 66
1, 572971, Note_on_c, 0, 38, 72
1, 573004, Note_off_c, 0, 38, 63
1, 573123, Control_c, 0, 64, 89
1, 573127, Note_on_c, 0, 93, 100
1, 573129, Note_on_c, 0, 90, 105
1, 573130, Note_on_c, 0, 81, 101
1, 573133, Note_on_c, 0, 62, 93
1, 573137, Control_c, 0, 64, 67
1, 573152, Control_c, 0, 64, 66
1, 573159, Note_on_c, 0, 83, 52
1, 573160, Note_off_c, 0, 83, 127
1, 573167, Control_c, 0, 64, 80
1, 573170, Note_off_c, 0, 62, 64
1, 573182, Control_c, 0, 64, 127
1, 573247, Note_off_c, 0, 93, 66
1, 573259, Note_off_c, 0, 81, 61
1, 573269, Note_off_c, 0, 90, 62
1, 573376, Note_on_c, 0, 67, 45
1, 573383, Note_on_c, 0, 72, 94
1, 573388, Note_on_c, 0, 64, 75
1, 573390, Note_on_c, 0, 60, 75
1, 573448, Note_off_c, 0, 72, 66
1, 573456, Note_on_c, 0, 91, 106
1, 573456, Note_on_c, 0, 95, 101
1, 573459, Note_on_c, 0, 83, 105
1, 573471, Note_off_c, 0, 67, 64
1, 573476, Note_off_c, 0, 60, 65
1, 573479, Note_off_c, 0, 64, 65
1, 573488, Note_on_c, 0, 89, 45
1, 573495, Note_off_c, 0, 83, 70
1, 573496, Note_off_c, 0, 95, 67
1, 573497, Note_on_c, 0, 93, 38
1, 573508, Note_off_c, 0, 91, 70
1, 573514, Note_off_c, 0, 89, 55
1, 573535, Note_off_c, 0, 93, 35
1, 573637, Note_on_c, 0, 60, 26
1, 573682, Note_off_c, 0, 60, 0
1, 573702, Note_on_c, 0, 60, 32
1, 573703, Note_on_c, 0, 66, 100
1, 573708, Note_on_c, 0, 54, 97
1, 573730, Note_off_c, 0, 66, 69
1, 573738, Note_off_c, 0, 60, 67
1, 573746, Note_on_c, 0, 53, 66
1, 573758, Note_off_c, 0, 54, 65
1, 573773, Note_off_c, 0, 53, 63
1, 573811, Poly_aftertouch_c, 0, 61, 0
1, 573902, Note_on_c, 0, 81, 88
1, 573902, Note_on_c, 0, 69, 95
1, 573903, Note_on_c, 0, 74, 89
1, 573905, Note_on_c, 0, 78, 95
1, 573916, Control_c, 0, 64, 73
1, 573930, Control_c, 0, 64, 63
1, 573935, Note_on_c, 0, 31, 76
1, 573940, Note_on_c, 0, 43, 81
1, 573945, Control_c, 0, 64, 66
1, 573959, Control_c, 0, 64, 75
1, 573967, Note_off_c, 0, 31, 65
1, 573974, Control_c, 0, 64, 127
1, 573986, Note_off_c, 0, 43, 63
1, 574069, Note_off_c, 0, 78, 63
1, 574107, Note_off_c, 0, 74, 53
1, 574130, Note_off_c, 0, 81, 51
1, 574170, Note_on_c, 0, 60, 39
1, 574172, Note_on_c, 0, 59, 51
1, 574175, Note_off_c, 0, 69, 54
1, 574176, Note_on_c, 0, 54, 62
1, 574203, Note_off_c, 0, 60, 65
1, 574289, Note_on_c, 0, 66, 92
1, 574292, Note_on_c, 0, 81, 99
1, 574295, Note_on_c, 0, 69, 100
1, 574295, Note_on_c, 0, 74, 96
1, 574298, Note_on_c, 0, 78, 99
1, 574381, Note_off_c, 0, 54, 65
1, 574384, Note_off_c, 0, 59, 63
1, 574408, Note_off_c, 0, 69, 64
1, 574418, Note_off_c, 0, 66, 58
1, 574501, Note_off_c, 0, 81, 58
1, 574617, Note_on_c, 0, 71, 85
1, 574617, Note_on_c, 0, 59, 78
1, 574648, Note_off_c, 0, 71, 62
1, 574671, Note_off_c, 0, 59, 65
1, 574877, Note_on_c, 0, 59, 64
1, 574885, Note_on_c, 0, 62, 67
1, 574887, Note_on_c, 0, 52, 69
1, 574887, Note_on_c, 0, 64, 73
1, 574942, Note_on_c, 0, 71, 100
1, 574944, Note_on_c, 0, 83, 93
1, 574948, Note_on_c, 0, 79, 86
1, 574961, Control_c, 0, 64, 68
1, 574976, Control_c, 0, 64, 35
1, 574991, Control_c, 0, 64, 29
1, 575005, Control_c, 0, 64, 44
1, 575024, Note_off_c, 0, 78, 59
1, 575028, Control_c, 0, 64, 61
1, 575043, Control_c, 0, 64, 73
1, 575058, Control_c, 0, 64, 127
1, 575093, Note_off_c, 0, 64, 60
1, 575097, Note_off_c, 0, 52, 57
1, 575118, Note_off_c, 0, 59, 55
1, 575158, Note_off_c, 0, 74, 55
1, 575189, Note_on_c, 0, 52, 78
1, 575194, Note_on_c, 0, 64, 83
1, 575219, Note_off_c, 0, 71, 59
1, 575235, Note_off_c, 0, 52, 65
1, 575241, Note_off_c, 0, 64, 63
1, 575255, Note_off_c, 0, 62, 57
1, 575395, Note_off_c, 0, 79, 64
1, 575398, Note_on_c, 0, 71, 91
1, 575411, Note_on_c, 0, 59, 64
1, 575423, Note_off_c, 0, 71, 64
1, 575428, Note_off_c, 0, 83, 63
1, 575439, Note_off_c, 0, 59, 68
1, 575618, Note_on_c, 0, 55, 61
1, 575624, Note_on_c, 0, 62, 63
1, 575630, Note_on_c, 0, 59, 65
1, 575642, Note_on_c, 0, 50, 67
1, 575653, Note_on_c, 0, 81, 91
1, 575654, Note_on_c, 0, 72, 87
1, 575654, Note_on_c, 0, 84, 88
1, 575788, Note_off_c, 0, 72, 64
1, 575823, Note_off_c, 0, 62, 57
1, 575827, Note_off_c, 0, 84, 64
1, 575841, Note_off_c, 0, 81, 65
1, 575910, Note_on_c, 0, 62, 66
1, 575922, Note_off_c, 0, 55, 63
1, 575932, Note_on_c, 0, 86, 97
1, 575935, Note_on_c, 0, 74, 99
1, 575935, Note_on_c, 0, 83, 93
1, 575938, Note_off_c, 0, 50, 56
1, 575957, Note_off_c, 0, 59, 64
1, 575959, Note_off_c, 0, 62, 65
1, 576045, Note_off_c, 0, 74, 62
1, 576057, Note_off_c, 0, 83, 65
1, 576060, Note_off_c, 0, 86, 64
1, 576122, Note_on_c, 0, 69, 74
1, 576128, Note_on_c, 0, 57, 63
1, 576134, Note_on_c, 0, 88, 96
1, 576134, Note_on_c, 0, 76, 97
1, 576134, Note_on_c, 0, 84, 96
1, 576143, Note_on_c, 0, 59, 50
1, 576146, Note_off_c, 0, 69, 69
1, 576155, Note_off_c, 0, 57, 66
1, 576161, Note_off_c, 0, 59, 64
1, 576167, Note_off_c, 0, 84, 67
1, 576170, Note_off_c, 0, 76, 64
1, 576189, Note_off_c, 0, 88, 63
1, 576292, Note_on_c, 0, 85, 34
1, 576294, Note_on_c, 0, 51, 10
1, 576313, Note_on_c, 0, 59, 47
1, 576323, Note_off_c, 0, 85, 45
1, 576336, Note_on_c, 0, 86, 92
1, 576337, Note_on_c, 0, 47, 77
1, 576339, Note_on_c, 0, 78, 95
1, 576341, Note_on_c, 0, 90, 91
1, 576352, Note_off_c, 0, 59, 65
1, 576355, Note_off_c, 0, 51, 49
1, 576362, Note_off_c, 0, 47, 66
1, 576391, Note_on_c, 0, 88, 16
1, 576394, Note_off_c, 0, 86, 64
1, 576397, Note_off_c, 0, 78, 61
1, 576438, Note_off_c, 0, 88, 36
1, 576447, Note_off_c, 0, 90, 63
1, 576447, Note_on_c, 0, 35, 55
1, 576478, Note_off_c, 0, 35, 56
1, 576573, Note_on_c, 0, 60, 83
1, 576582, Note_on_c, 0, 91, 99
1, 576583, Note_on_c, 0, 88, 95
1, 576584, Note_on_c, 0, 79, 103
1, 576593, Note_off_c, 0, 60, 74
1, 576682, Note_off_c, 0, 79, 63
1, 576697, Note_off_c, 0, 88, 64
1, 576700, Note_off_c, 0, 91, 62
1, 576704, Poly_aftertouch_c, 0, 89, 0
1, 576704, Note_on_c, 0, 61, 20
1, 576761, Note_off_c, 0, 61, 49
1, 576785, Note_on_c, 0, 64, 31
1, 576817, Note_on_c, 0, 60, 74
1, 576818, Note_off_c, 0, 64, 0
1, 576818, Note_on_c, 0, 64, 30
1, 576820, Note_on_c, 0, 67, 73
1, 576826, Note_on_c, 0, 72, 86
1, 576866, Control_c, 0, 64, 69
1, 576881, Control_c, 0, 64, 41
1, 576893, Note_on_c, 0, 93, 94
1, 576895, Control_c, 0, 64, 38
1, 576896, Note_on_c, 0, 81, 89
1, 576900, Note_on_c, 0, 90, 95
1, 576910, Control_c, 0, 64, 55
1, 576925, Control_c, 0, 64, 72
1, 576933, Note_off_c, 0, 72, 65
1, 576940, Control_c, 0, 64, 127
1, 576949, Note_off_c, 0, 93, 67
1, 576957, Note_off_c, 0, 81, 67
1, 576964, Note_off_c, 0, 67, 65
1, 576966, Note_off_c, 0, 60, 64
1, 576977, Note_off_c, 0, 90, 66
1, 576984, Note_off_c, 0, 64, 64
1, 577166, Note_on_c, 0, 66, 89
1, 577181, Note_on_c, 0, 54, 79
1, 577203, Note_off_c, 0, 66, 65
1, 577207, Note_on_c, 0, 53, 74
1, 577212, Note_off_c, 0, 54, 66
1, 577232, Note_off_c, 0, 53, 67
1, 577324, Note_on_c, 0, 72, 94
1, 577324, Note_on_c, 0, 76, 86
1, 577327, Note_on_c, 0, 67, 95
1, 577327, Note_on_c, 0, 79, 85
1, 577393, Control_c, 0, 64, 87
1, 577404, Note_on_c, 0, 42, 90
1, 577407, Control_c, 0, 64, 77
1, 577416, Note_on_c, 0, 30, 69
1, 577422, Control_c, 0, 64, 83
1, 577437, Control_c, 0, 64, 127
1, 577446, Note_off_c, 0, 30, 63
1, 577460, Note_off_c, 0, 42, 63
1, 577494, Poly_aftertouch_c, 0, 32, 127
1, 577532, Poly_aftertouch_c, 0, 32, 0
1, 577539, Note_off_c, 0, 76, 62
1, 577558, Note_off_c, 0, 79, 59
1, 577580, Note_off_c, 0, 72, 59
1, 577586, Note_off_c, 0, 67, 57
1, 577699, Note_on_c, 0, 60, 65
1, 577699, Note_on_c, 0, 64, 75
1, 577707, Note_on_c, 0, 57, 60
1, 577708, Note_on_c, 0, 52, 70
1, 577762, Note_on_c, 0, 79, 91
1, 577763, Note_on_c, 0, 67, 93
1, 577768, Note_on_c, 0, 72, 90
1, 577768, Note_on_c, 0, 76, 80
1, 577778, Control_c, 0, 64, 62
1, 577792, Control_c, 0, 64, 0
1, 577837, Control_c, 0, 64, 56
1, 577852, Control_c, 0, 64, 77
1, 577866, Control_c, 0, 64, 127
1, 577941, Note_off_c, 0, 52, 65
1, 577948, Note_off_c, 0, 57, 64
1, 577956, Note_off_c, 0, 67, 59
1, 577971, Note_off_c, 0, 60, 65
1, 577981, Note_off_c, 0, 64, 65
1, 578078, Poly_aftertouch_c, 0, 74, 127
1, 578110, Note_off_c, 0, 79, 53
1, 578119, Note_off_c, 0, 72, 62
1, 578121, Poly_aftertouch_c, 0, 74, 0
1, 578130, Note_on_c, 0, 69, 81
1, 578134, Note_off_c, 0, 76, 60
1, 578150, Note_on_c, 0, 57, 54
1, 578152, Note_off_c, 0, 69, 68
1, 578175, Note_off_c, 0, 57, 63
1, 578369, Note_on_c, 0, 57, 53
1, 578386, Note_on_c, 0, 62, 60
1, 578394, Note_on_c, 0, 60, 63
1, 578396, Note_on_c, 0, 50, 59
1, 578447, Note_on_c, 0, 81, 90
1, 578452, Note_on_c, 0, 69, 81
1, 578453, Note_on_c, 0, 78, 87
1, 578483, Control_c, 0, 64, 90
1, 578497, Control_c, 0, 64, 60
1, 578512, Control_c, 0, 64, 0
1, 578541, Control_c, 0, 64, 20
1, 578556, Control_c, 0, 64, 53
1, 578571, Control_c, 0, 64, 64
1, 578586, Control_c, 0, 64, 72
1, 578601, Control_c, 0, 64, 95
1, 578615, Control_c, 0, 64, 127
1, 578639, Note_off_c, 0, 62, 56
1, 578646, Note_off_c, 0, 60, 62
1, 578650, Note_off_c, 0, 50, 56
1, 578671, Note_off_c, 0, 57, 60
1, 578735, Note_on_c, 0, 50, 63
1, 578751, Note_on_c, 0, 62, 72
1, 578751, Note_on_c, 0, 60, 72
1, 578799, Note_off_c, 0, 50, 62
1, 578808, Note_off_c, 0, 62, 62
1, 578813, Note_off_c, 0, 69, 45
1, 578814, Note_off_c, 0, 60, 64
1, 578988, Note_on_c, 0, 69, 79
1, 578997, Note_on_c, 0, 57, 71
1, 578999, Note_off_c, 0, 81, 62
1, 579013, Note_off_c, 0, 69, 69
1, 579017, Note_off_c, 0, 78, 61
1, 579034, Note_off_c, 0, 57, 64
1, 579236, Note_on_c, 0, 60, 57
1, 579247, Note_on_c, 0, 52, 61
1, 579256, Note_on_c, 0, 48, 57
1, 579276, Control_c, 0, 64, 80
1, 579285, Note_on_c, 0, 79, 83
1, 579285, Note_on_c, 0, 83, 85
1, 579285, Note_on_c, 0, 71, 80
1, 579290, Control_c, 0, 64, 62
1, 579305, Control_c, 0, 64, 56
1, 579320, Control_c, 0, 64, 59
1, 579335, Control_c, 0, 64, 65
1, 579350, Control_c, 0, 64, 80
1, 579364, Control_c, 0, 64, 127
1, 579422, Note_off_c, 0, 71, 62
1, 579443, Note_off_c, 0, 60, 59
1, 579446, Note_off_c, 0, 48, 60
1, 579454, Note_off_c, 0, 79, 65
1, 579455, Note_off_c, 0, 83, 62
1, 579544, Note_on_c, 0, 48, 64
1, 579553, Note_on_c, 0, 60, 61
1, 579589, Note_off_c, 0, 52, 64
1, 579592, Note_off_c, 0, 48, 60
1, 579593, Note_on_c, 0, 81, 85
1, 579595, Note_on_c, 0, 72, 87
1, 579596, Note_on_c, 0, 84, 88
1, 579619, Note_off_c, 0, 60, 63
1, 579695, Note_off_c, 0, 72, 61
1, 579716, Note_off_c, 0, 81, 64
1, 579720, Note_off_c, 0, 84, 62
1, 579780, Note_on_c, 0, 55, 72
1, 579792, Note_on_c, 0, 67, 46
1, 579813, Note_on_c, 0, 74, 91
1, 579813, Note_on_c, 0, 86, 86
1, 579813, Note_off_c, 0, 55, 67
1, 579816, Note_off_c, 0, 67, 57
1, 579820, Note_on_c, 0, 83, 78
1, 579888, Note_off_c, 0, 83, 64
1, 579906, Note_off_c, 0, 74, 52
1, 579909, Note_off_c, 0, 86, 57
1, 580054, Note_on_c, 0, 59, 61
1, 580060, Note_on_c, 0, 88, 84
1, 580060, Note_on_c, 0, 47, 62
1, 580060, Note_on_c, 0, 76, 86
1, 580062, Note_on_c, 0, 84, 86
1, 580081, Note_off_c, 0, 59, 63
1, 580111, Note_off_c, 0, 47, 62
1, 580115, Note_off_c, 0, 76, 64
1, 580126, Note_off_c, 0, 88, 64
1, 580149, Note_off_c, 0, 84, 65
1, 580212, Note_on_c, 0, 35, 68
1, 580243, Note_off_c, 0, 35, 62
1, 580434, Note_on_c, 0, 90, 83
1, 580436, Note_on_c, 0, 78, 79
1, 580439, Note_on_c, 0, 87, 83
1, 580463, Control_c, 0, 64, 91
1, 580478, Control_c, 0, 64, 64
1, 580480, Note_on_c, 0, 47, 65
1, 580480, Note_on_c, 0, 59, 61
1, 580492, Control_c, 0, 64, 43
1, 580507, Control_c, 0, 64, 47
1, 580522, Control_c, 0, 64, 59
1, 580537, Control_c, 0, 64, 69
1, 580552, Control_c, 0, 64, 93
1, 580567, Control_c, 0, 64, 127
1, 580567, Note_off_c, 0, 47, 63
1, 580596, Note_off_c, 0, 59, 65
1, 580649, Note_off_c, 0, 78, 60
1, 580663, Note_off_c, 0, 90, 63
1, 580803, Note_on_c, 0, 57, 57
1, 580810, Note_on_c, 0, 69, 57
1, 580823, Note_on_c, 0, 64, 57
1, 580860, Note_on_c, 0, 91, 90
1, 580869, Note_on_c, 0, 79, 78
1, 580875, Note_on_c, 0, 88, 65
1, 580883, Poly_aftertouch_c, 0, 60, 127
1, 580895, Note_on_c, 0, 85, 43
1, 580912, Note_off_c, 0, 69, 63
1, 580916, Note_off_c, 0, 87, 63
1, 580936, Note_off_c, 0, 85, 47
1, 580942, Note_off_c, 0, 64, 64
1, 580943, Note_off_c, 0, 88, 63
1, 580944, Note_off_c, 0, 79, 66
1, 580945, Poly_aftertouch_c, 0, 60, 0
1, 580950, Note_off_c, 0, 57, 64
1, 580957, Note_off_c, 0, 91, 66
1, 581358, Note_on_c, 0, 57, 48
1, 581363, Note_on_c, 0, 45, 53
1, 581512, Note_off_c, 0, 57, 64
1, 581513, Note_off_c, 0, 45, 63
1, 581571, Note_on_c, 0, 83, 85
1, 581576, Note_on_c, 0, 71, 83
1, 581599, Note_on_c, 0, 76, 39
1, 581610, Note_on_c, 0, 75, 21
1, 581644, Note_off_c, 0, 76, 59
1, 581647, Note_off_c, 0, 75, 45
1, 581786, Note_off_c, 0, 71, 56
1, 581829, Note_off_c, 0, 83, 56
1, 581840, Poly_aftertouch_c, 0, 81, 127
1, 582034, Poly_aftertouch_c, 0, 81, 0
1, 582072, Poly_aftertouch_c, 0, 81, 127
1, 582139, Note_on_c, 0, 57, 68
1, 582161, Note_on_c, 0, 40, 63
1, 582162, Note_on_c, 0, 47, 36
1, 582194, Note_on_c, 0, 83, 73
1, 582203, Note_on_c, 0, 71, 59
1, 582218, Note_on_c, 0, 76, 53
1, 582227, Control_c, 0, 64, 85
1, 582242, Control_c, 0, 64, 57
1, 582248, Poly_aftertouch_c, 0, 79, 127
1, 582254, Poly_aftertouch_c, 0, 78, 127
1, 582257, Control_c, 0, 64, 0
1, 582302, Control_c, 0, 64, 49
1, 582317, Control_c, 0, 64, 65
1, 582332, Control_c, 0, 64, 81
1, 582346, Control_c, 0, 64, 127
1, 582391, Note_off_c, 0, 47, 55
1, 582394, Note_off_c, 0, 40, 61
1, 582400, Note_off_c, 0, 57, 60
1, 582556, Note_off_c, 0, 71, 57
1, 582593, Poly_aftertouch_c, 0, 79, 0
1, 582597, Poly_aftertouch_c, 0, 81, 0
1, 582601, Poly_aftertouch_c, 0, 78, 0
1, 582642, Note_off_c, 0, 83, 62
1, 582651, Note_off_c, 0, 76, 63
1, 582722, Note_on_c, 0, 64, 59
1, 582791, Note_off_c, 0, 64, 63
1, 583075, Note_on_c, 0, 55, 62
1, 583086, Note_on_c, 0, 45, 57
1, 583118, Note_on_c, 0, 88, 69
1, 583131, Note_on_c, 0, 83, 67
1, 583132, Note_on_c, 0, 76, 62
1, 583202, Note_off_c, 0, 45, 63
1, 583225, Poly_aftertouch_c, 0, 86, 127
1, 583294, Note_off_c, 0, 55, 61
1, 583495, Note_on_c, 0, 55, 67
1, 583510, Note_on_c, 0, 40, 59
1, 583517, Control_c, 0, 64, 79
1, 583532, Control_c, 0, 64, 63
1, 583546, Control_c, 0, 64, 55
1, 583555, Note_on_c, 0, 47, 31
1, 583561, Control_c, 0, 64, 60
1, 583576, Control_c, 0, 64, 66
1, 583591, Control_c, 0, 64, 76
1, 583606, Control_c, 0, 64, 106
1, 583620, Control_c, 0, 64, 127
1, 583639, Note_off_c, 0, 47, 60
1, 583643, Poly_aftertouch_c, 0, 86, 0
1, 583646, Note_off_c, 0, 83, 64
1, 583648, Note_off_c, 0, 40, 61
1, 583660, Note_off_c, 0, 88, 64
1, 583678, Note_off_c, 0, 55, 61
1, 583701, Note_off_c, 0, 76, 62
1, 583840, Note_on_c, 0, 59, 55
1, 583879, Note_off_c, 0, 59, 63
1, 584118, Note_on_c, 0, 45, 55
1, 584132, Note_on_c, 0, 71, 54
1, 584135, Note_on_c, 0, 54, 64
1, 584135, Note_on_c, 0, 83, 53
1, 584154, Note_on_c, 0, 76, 39
1, 584247, Poly_aftertouch_c, 0, 81, 127
1, 584250, Note_off_c, 0, 45, 62
1, 584320, Note_off_c, 0, 54, 63
1, 584565, Note_on_c, 0, 54, 62
1, 584576, Note_on_c, 0, 40, 48
1, 584576, Control_c, 0, 64, 95
1, 584591, Control_c, 0, 64, 69
1, 584597, Note_on_c, 0, 47, 36
1, 584606, Control_c, 0, 64, 51
1, 584621, Control_c, 0, 64, 32
1, 584636, Control_c, 0, 64, 33
1, 584651, Control_c, 0, 64, 49
1, 584666, Control_c, 0, 64, 61
1, 584680, Control_c, 0, 64, 68
1, 584695, Control_c, 0, 64, 75
1, 584710, Control_c, 0, 64, 84
1, 584713, Note_off_c, 0, 40, 62
1, 584725, Control_c, 0, 64, 91
1, 584726, Note_off_c, 0, 47, 46
1, 584740, Control_c, 0, 64, 101
1, 584762, Note_off_c, 0, 54, 61
1, 584762, Control_c, 0, 64, 112
1, 584777, Control_c, 0, 64, 127
1, 584970, Note_on_c, 0, 59, 52
1, 584978, Poly_aftertouch_c, 0, 81, 0
1, 584991, Note_off_c, 0, 76, 56
1, 585006, Note_off_c, 0, 83, 60
1, 585059, Note_off_c, 0, 71, 60
1, 585187, Note_off_c, 0, 59, 44
1, 585459, Note_on_c, 0, 52, 48
1, 585472, Note_on_c, 0, 71, 45
1, 585473, Control_c, 0, 64, 105
1, 585488, Control_c, 0, 64, 74
1, 585491, Note_on_c, 0, 64, 40
1, 585511, Control_c, 0, 64, 63
1, 585515, Note_on_c, 0, 45, 39
1, 585526, Control_c, 0, 64, 61
1, 585530, Note_on_c, 0, 76, 18
1, 585541, Control_c, 0, 64, 64
1, 585556, Control_c, 0, 64, 69
1, 585570, Control_c, 0, 64, 80
1, 585585, Control_c, 0, 64, 117
1, 585600, Control_c, 0, 64, 127
1, 585644, Note_off_c, 0, 45, 61
1, 585644, Note_off_c, 0, 52, 64
1, 586188, Note_on_c, 0, 52, 35
1, 586195, Note_on_c, 0, 40, 31
1, 586208, Control_c, 0, 64, 95
1, 586209, Note_on_c, 0, 47, 32
1, 586223, Control_c, 0, 64, 71
1, 586237, Control_c, 0, 64, 58
1, 586260, Control_c, 0, 64, 52
1, 586275, Control_c, 0, 64, 54
1, 586290, Control_c, 0, 64, 60
1, 586305, Control_c, 0, 64, 65
1, 586319, Control_c, 0, 64, 70
1, 586334, Control_c, 0, 64, 79
1, 586349, Control_c, 0, 64, 85
1, 586363, Control_c, 0, 64, 90
1, 586378, Control_c, 0, 64, 92
1, 586393, Control_c, 0, 64, 94
1, 586408, Control_c, 0, 64, 97
1, 586423, Control_c, 0, 64, 104
1, 586437, Control_c, 0, 64, 115
1, 586452, Control_c, 0, 64, 127
1, 586469, Note_off_c, 0, 47, 41
1, 586472, Note_off_c, 0, 40, 44
1, 586708, Note_off_c, 0, 52, 42
1, 586722, Note_off_c, 0, 76, 53
1, 586740, Note_off_c, 0, 64, 56
1, 586740, Note_off_c, 0, 71, 56
1, 586776, Note_on_c, 0, 55, 41
1, 587069, Note_off_c, 0, 55, 48
1, 587379, Control_c, 0, 64, 117
1, 587394, Control_c, 0, 64, 114
1, 587409, Control_c, 0, 64, 112
1, 587424, Control_c, 0, 64, 110
1, 587439, Control_c, 0, 64, 108
1, 587442, Note_on_c, 0, 47, 41
1, 587453, Control_c, 0, 64, 105
1, 587468, Control_c, 0, 64, 104
1, 587498, Control_c, 0, 64, 103
1, 587527, Control_c, 0, 64, 103
1, 587557, Control_c, 0, 64, 102
1, 587776, Note_off_c, 0, 47, 38
1, 587788, Note_on_c, 0, 52, 49
1, 587832, Control_c, 0, 64, 103
1, 587877, Control_c, 0, 64, 103
1, 587891, Control_c, 0, 64, 104
1, 587921, Control_c, 0, 64, 104
1, 587936, Control_c, 0, 64, 105
1, 587951, Control_c, 0, 64, 105
1, 587954, Note_off_c, 0, 52, 39
1, 587965, Control_c, 0, 64, 106
1, 587974, Note_on_c, 0, 55, 47
1, 587980, Control_c, 0, 64, 106
1, 587983, Note_on_c, 0, 28, 32
1, 587995, Control_c, 0, 64, 107
1, 588010, Control_c, 0, 64, 108
1, 588025, Control_c, 0, 64, 108
1, 588081, Note_off_c, 0, 28, 38
1, 588143, Note_off_c, 0, 55, 55
1, 588157, Note_on_c, 0, 40, 47
1, 588186, Note_on_c, 0, 53, 44
1, 588217, Control_c, 0, 64, 109
1, 588232, Control_c, 0, 64, 110
1, 588247, Control_c, 0, 64, 112
1, 588262, Control_c, 0, 64, 113
1, 588276, Control_c, 0, 64, 114
1, 588291, Control_c, 0, 64, 110
1, 588306, Control_c, 0, 64, 93
1, 588321, Control_c, 0, 64, 74
1, 588336, Control_c, 0, 64, 62
1, 588338, Note_off_c, 0, 53, 55
1, 588350, Control_c, 0, 64, 51
1, 588356, Note_on_c, 0, 57, 50
1, 588365, Control_c, 0, 64, 50
1, 588374, Note_off_c, 0, 40, 42
1, 588380, Control_c, 0, 64, 56
1, 588395, Control_c, 0, 64, 62
1, 588406, Note_on_c, 0, 46, 47
1, 588410, Control_c, 0, 64, 66
1, 588425, Control_c, 0, 64, 71
1, 588439, Control_c, 0, 64, 75
1, 588455, Control_c, 0, 64, 77
1, 588461, Note_off_c, 0, 57, 58
1, 588470, Control_c, 0, 64, 78
1, 588530, Note_on_c, 0, 54, 56
1, 588552, Control_c, 0, 64, 78
1, 588567, Control_c, 0, 64, 79
1, 588581, Control_c, 0, 64, 79
1, 588596, Control_c, 0, 64, 80
1, 588611, Control_c, 0, 64, 80
1, 588626, Note_off_c, 0, 54, 62
1, 588640, Control_c, 0, 64, 81
1, 588649, Note_on_c, 0, 47, 44
1, 588655, Control_c, 0, 64, 82
1, 588657, Note_on_c, 0, 58, 60
1, 588670, Control_c, 0, 64, 84
1, 588681, Note_off_c, 0, 46, 27
1, 588685, Control_c, 0, 64, 86
1, 588700, Control_c, 0, 64, 89
1, 588714, Control_c, 0, 64, 90
1, 588727, Note_off_c, 0, 58, 61
1, 588729, Control_c, 0, 64, 91
1, 588744, Control_c, 0, 64, 92
1, 588759, Control_c, 0, 64, 93
1, 588768, Note_on_c, 0, 55, 66
1, 588818, Control_c, 0, 64, 93
1, 588846, Note_off_c, 0, 55, 59
1, 588878, Note_on_c, 0, 59, 66
1, 588921, Control_c, 0, 64, 94
1, 588936, Control_c, 0, 64, 95
1, 588939, Note_on_c, 0, 60, 56
1, 588951, Control_c, 0, 64, 98
1, 588966, Control_c, 0, 64, 102
1, 588980, Control_c, 0, 64, 106
1, 588995, Note_off_c, 0, 59, 58
1, 588995, Control_c, 0, 64, 109
1, 589010, Control_c, 0, 64, 112
1, 589014, Note_off_c, 0, 60, 64
1, 589015, Note_on_c, 0, 55, 42
1, 589021, Note_off_c, 0, 47, 38
1, 589024, Control_c, 0, 64, 112
1, 589026, Note_on_c, 0, 63, 64
1, 589039, Control_c, 0, 64, 113
1, 589054, Control_c, 0, 64, 115
1, 589064, Note_off_c, 0, 55, 53
1, 589069, Control_c, 0, 64, 116
1, 589084, Control_c, 0, 64, 117
1, 589097, Note_off_c, 0, 63, 60
1, 589098, Control_c, 0, 64, 119
1, 589110, Note_on_c, 0, 61, 67
1, 589128, Control_c, 0, 64, 120
1, 589179, Note_off_c, 0, 61, 62
1, 589188, Control_c, 0, 64, 122
1, 589209, Note_on_c, 0, 64, 56
1, 589217, Control_c, 0, 64, 98
1, 589232, Control_c, 0, 64, 77
1, 589255, Control_c, 0, 64, 63
1, 589262, Note_on_c, 0, 40, 45
1, 589270, Control_c, 0, 64, 49
1, 589285, Control_c, 0, 64, 44
1, 589289, Note_off_c, 0, 64, 63
1, 589300, Control_c, 0, 64, 46
1, 589305, Note_on_c, 0, 62, 55
1, 589315, Control_c, 0, 64, 56
1, 589329, Control_c, 0, 64, 62
1, 589344, Control_c, 0, 64, 66
1, 589359, Control_c, 0, 64, 70
1, 589374, Control_c, 0, 64, 74
1, 589385, Note_off_c, 0, 62, 63
1, 589387, Note_off_c, 0, 40, 57
1, 589389, Note_on_c, 0, 47, 42
1, 589389, Control_c, 0, 64, 76
1, 589404, Control_c, 0, 64, 78
1, 589408, Note_on_c, 0, 65, 57
1, 589419, Control_c, 0, 64, 79
1, 589421, Note_off_c, 0, 47, 49
1, 589434, Control_c, 0, 64, 81
1, 589449, Control_c, 0, 64, 84
1, 589463, Control_c, 0, 64, 87
1, 589478, Control_c, 0, 64, 92
1, 589493, Control_c, 0, 64, 98
1, 589508, Control_c, 0, 64, 106
1, 589514, Note_on_c, 0, 61, 55
1, 589523, Control_c, 0, 64, 112
1, 589537, Control_c, 0, 64, 116
1, 589552, Control_c, 0, 64, 119
1, 589581, Control_c, 0, 64, 120
1, 589596, Control_c, 0, 64, 127
1, 589629, Note_on_c, 0, 64, 46
1, 589638, Note_on_c, 0, 68, 70
1, 589644, Note_on_c, 0, 56, 52
1, 589676, Note_off_c, 0, 61, 37
1, 589682, Note_off_c, 0, 65, 51
1, 589688, Note_off_c, 0, 64, 60
1, 589710, Note_off_c, 0, 56, 62
1, 589732, Note_on_c, 0, 60, 64
1, 589748, Note_on_c, 0, 55, 46
1, 589775, Note_off_c, 0, 60, 62
1, 589797, Note_off_c, 0, 55, 60
1, 589808, Note_on_c, 0, 63, 69
1, 589839, Note_on_c, 0, 54, 59
1, 589877, Note_off_c, 0, 63, 58
1, 589882, Note_off_c, 0, 54, 64
1, 589892, Note_on_c, 0, 59, 70
1, 589918, Note_on_c, 0, 53, 57
1, 589931, Note_off_c, 0, 68, 57
1, 589936, Note_off_c, 0, 59, 60
1, 589968, Note_on_c, 0, 62, 59
1, 589969, Note_off_c, 0, 53, 56
1, 590012, Note_on_c, 0, 52, 49
1, 590028, Note_off_c, 0, 62, 60
1, 590061, Note_on_c, 0, 58, 73
1, 590094, Note_off_c, 0, 52, 57
1, 590124, Control_c, 0, 64, 94
1, 590124, Note_off_c, 0, 58, 60
1, 590139, Note_on_c, 0, 51, 51
1, 590139, Control_c, 0, 64, 73
1, 590140, Note_on_c, 0, 61, 64
1, 590153, Control_c, 0, 64, 60
1, 590166, Note_on_c, 0, 64, 62
1, 590168, Control_c, 0, 64, 53
1, 590183, Control_c, 0, 64, 54
1, 590198, Control_c, 0, 64, 59
1, 590212, Control_c, 0, 64, 64
1, 590220, Note_off_c, 0, 61, 58
1, 590227, Control_c, 0, 64, 68
1, 590236, Note_off_c, 0, 51, 63
1, 590242, Control_c, 0, 64, 74
1, 590249, Note_on_c, 0, 57, 65
1, 590257, Control_c, 0, 64, 78
1, 590272, Control_c, 0, 64, 80
1, 590291, Note_on_c, 0, 50, 52
1, 590316, Control_c, 0, 64, 80
1, 590323, Note_off_c, 0, 57, 63
1, 590331, Control_c, 0, 64, 81
1, 590346, Control_c, 0, 64, 84
1, 590347, Note_on_c, 0, 60, 60
1, 590350, Note_off_c, 0, 50, 58
1, 590360, Control_c, 0, 64, 87
1, 590375, Control_c, 0, 64, 90
1, 590390, Control_c, 0, 64, 93
1, 590405, Control_c, 0, 64, 94
1, 590416, Note_off_c, 0, 60, 60
1, 590478, Note_on_c, 0, 56, 62
1, 590539, Control_c, 0, 64, 94
1, 590553, Control_c, 0, 64, 93
1, 590581, Note_off_c, 0, 56, 61
1, 590583, Control_c, 0, 64, 93
1, 590612, Note_on_c, 0, 59, 50
1, 590717, Control_c, 0, 64, 92
1, 590732, Control_c, 0, 64, 84
1, 590735, Note_on_c, 0, 40, 39
1, 590735, Note_off_c, 0, 59, 56
1, 590747, Control_c, 0, 64, 71
1, 590768, Control_c, 0, 64, 60
1, 590773, Note_on_c, 0, 57, 59
1, 590783, Control_c, 0, 64, 44
1, 590798, Control_c, 0, 64, 37
1, 590812, Control_c, 0, 64, 41
1, 590827, Control_c, 0, 64, 52
1, 590842, Control_c, 0, 64, 60
1, 590858, Control_c, 0, 64, 63
1, 590861, Note_off_c, 0, 57, 63
1, 590873, Control_c, 0, 64, 65
1, 590887, Note_on_c, 0, 60, 59
1, 590888, Control_c, 0, 64, 66
1, 590902, Control_c, 0, 64, 67
1, 590917, Control_c, 0, 64, 69
1, 590920, Note_off_c, 0, 64, 41
1, 590932, Control_c, 0, 64, 71
1, 590947, Control_c, 0, 64, 75
1, 590962, Control_c, 0, 64, 80
1, 590963, Note_on_c, 0, 47, 51
1, 590976, Control_c, 0, 64, 85
1, 590980, Note_off_c, 0, 60, 58
1, 590991, Control_c, 0, 64, 93
1, 591004, Note_on_c, 0, 56, 64
1, 591006, Control_c, 0, 64, 100
1, 591021, Control_c, 0, 64, 105
1, 591036, Control_c, 0, 64, 107
1, 591049, Note_off_c, 0, 47, 56
1, 591049, Note_off_c, 0, 56, 62
1, 591051, Control_c, 0, 64, 108
1, 591066, Control_c, 0, 64, 108
1, 591067, Note_off_c, 0, 40, 44
1, 591073, Note_on_c, 0, 48, 52
1, 591092, Note_on_c, 0, 59, 61
1, 591110, Control_c, 0, 64, 109
1, 591153, Note_off_c, 0, 48, 62
1, 591188, Note_off_c, 0, 59, 57
1, 591193, Note_on_c, 0, 57, 72
1, 591243, Control_c, 0, 64, 109
1, 591258, Control_c, 0, 64, 110
1, 591273, Note_on_c, 0, 48, 43
1, 591273, Control_c, 0, 64, 112
1, 591279, Note_off_c, 0, 57, 60
1, 591288, Control_c, 0, 64, 113
1, 591292, Note_on_c, 0, 60, 66
1, 591302, Control_c, 0, 64, 114
1, 591317, Control_c, 0, 64, 115
1, 591332, Control_c, 0, 64, 120
1, 591347, Control_c, 0, 64, 127
1, 591352, Note_off_c, 0, 60, 63
1, 591390, Note_on_c, 0, 59, 67
1, 591420, Note_on_c, 0, 56, 57
1, 591490, Note_off_c, 0, 59, 61
1, 591498, Note_on_c, 0, 63, 59
1, 591520, Note_off_c, 0, 56, 61
1, 591549, Note_off_c, 0, 48, 39
1, 591557, Note_on_c, 0, 57, 23
1, 591566, Note_on_c, 0, 60, 31
1, 591587, Note_off_c, 0, 63, 62
1, 591591, Note_off_c, 0, 60, 54
1, 591593, Note_off_c, 0, 57, 50
1, 591616, Note_on_c, 0, 64, 68
1, 591685, Note_on_c, 0, 63, 76
1, 591687, Note_off_c, 0, 64, 64
1, 591733, Note_on_c, 0, 67, 67
1, 591735, Note_off_c, 0, 63, 61
1, 591761, Note_off_c, 0, 67, 67
1, 591790, Note_on_c, 0, 64, 80
1, 591795, Note_on_c, 0, 40, 48
1, 591824, Note_on_c, 0, 47, 57
1, 591841, Note_off_c, 0, 40, 64
1, 591856, Note_off_c, 0, 47, 63
1, 591882, Note_off_c, 0, 64, 56
1, 591926, Note_on_c, 0, 69, 27
1, 591963, Poly_aftertouch_c, 0, 68, 0
1, 591971, Note_off_c, 0, 69, 0
1, 591978, Control_c, 0, 64, 106
1, 591981, Note_on_c, 0, 69, 67
1, 591993, Control_c, 0, 64, 78
1, 592007, Control_c, 0, 64, 66
1, 592022, Control_c, 0, 64, 64
1, 592037, Control_c, 0, 64, 66
1, 592051, Control_c, 0, 64, 70
1, 592064, Poly_aftertouch_c, 0, 60, 127
1, 592066, Control_c, 0, 64, 78
1, 592076, Note_on_c, 0, 72, 40
1, 592081, Note_off_c, 0, 69, 64
1, 592081, Control_c, 0, 64, 91
1, 592082, Poly_aftertouch_c, 0, 60, 0
1, 592090, Note_on_c, 0, 63, 57
1, 592096, Control_c, 0, 64, 109
1, 592111, Control_c, 0, 64, 127
1, 592113, Poly_aftertouch_c, 0, 60, 0
1, 592154, Note_off_c, 0, 63, 61
1, 592173, Note_on_c, 0, 68, 74
1, 592187, Note_on_c, 0, 62, 59
1, 592204, Note_off_c, 0, 72, 64
1, 592234, Note_off_c, 0, 62, 57
1, 592239, Note_on_c, 0, 75, 75
1, 592273, Note_on_c, 0, 71, 74
1, 592284, Note_on_c, 0, 61, 62
1, 592294, Note_off_c, 0, 68, 62
1, 592329, Note_off_c, 0, 61, 59
1, 592329, Note_off_c, 0, 71, 65
1, 592344, Note_on_c, 0, 67, 78
1, 592353, Note_off_c, 0, 75, 63
1, 592366, Note_on_c, 0, 60, 57
1, 592407, Note_off_c, 0, 67, 60
1, 592410, Note_off_c, 0, 60, 60
1, 592416, Note_on_c, 0, 70, 78
1, 592422, Note_on_c, 0, 59, 56
1, 592482, Note_on_c, 0, 66, 60
1, 592489, Control_c, 0, 64, 93
1, 592494, Note_off_c, 0, 70, 63
1, 592501, Note_off_c, 0, 59, 58
1, 592504, Control_c, 0, 64, 74
1, 592507, Note_on_c, 0, 58, 57
1, 592519, Control_c, 0, 64, 65
1, 592534, Control_c, 0, 64, 63
1, 592544, Note_off_c, 0, 58, 65
1, 592544, Note_off_c, 0, 66, 62
1, 592548, Control_c, 0, 64, 64
1, 592563, Control_c, 0, 64, 68
1, 592571, Note_on_c, 0, 65, 51
1, 592578, Control_c, 0, 64, 77
1, 592586, Note_on_c, 0, 57, 60
1, 592593, Control_c, 0, 64, 88
1, 592608, Control_c, 0, 64, 101
1, 592611, Note_on_c, 0, 69, 8
1, 592622, Control_c, 0, 64, 111
1, 592633, Note_off_c, 0, 65, 62
1, 592637, Control_c, 0, 64, 112
1, 592657, Note_off_c, 0, 69, 52
1, 592671, Note_off_c, 0, 57, 60
1, 592681, Control_c, 0, 64, 115
1, 592689, Note_on_c, 0, 71, 74
1, 592690, Note_on_c, 0, 64, 59
1, 592696, Control_c, 0, 64, 127
1, 592744, Note_on_c, 0, 47, 49
1, 592759, Note_off_c, 0, 64, 62
1, 592778, Note_on_c, 0, 67, 67
1, 592778, Note_off_c, 0, 47, 63
1, 592843, Note_off_c, 0, 71, 0
1, 592858, Note_off_c, 0, 67, 59
1, 592862, Note_on_c, 0, 71, 32
1, 592899, Note_on_c, 0, 63, 65
1, 592976, Note_off_c, 0, 63, 54
1, 592985, Note_on_c, 0, 66, 66
1, 593015, Control_c, 0, 64, 90
1, 593030, Control_c, 0, 64, 64
1, 593040, Note_on_c, 0, 40, 46
1, 593045, Control_c, 0, 64, 47
1, 593060, Control_c, 0, 64, 43
1, 593074, Control_c, 0, 64, 49
1, 593089, Control_c, 0, 64, 60
1, 593096, Note_off_c, 0, 66, 58
1, 593104, Control_c, 0, 64, 66
1, 593115, Note_on_c, 0, 64, 69
1, 593119, Control_c, 0, 64, 74
1, 593125, Note_on_c, 0, 46, 40
1, 593127, Note_off_c, 0, 40, 62
1, 593134, Control_c, 0, 64, 90
1, 593148, Control_c, 0, 64, 107
1, 593158, Note_off_c, 0, 46, 52
1, 593163, Control_c, 0, 64, 127
1, 593195, Note_off_c, 0, 64, 60
1, 593208, Note_on_c, 0, 68, 70
1, 593213, Note_off_c, 0, 71, 61
1, 593298, Note_on_c, 0, 47, 42
1, 593338, Note_on_c, 0, 63, 73
1, 593352, Note_off_c, 0, 68, 50
1, 593377, Note_off_c, 0, 47, 50
1, 593383, Note_on_c, 0, 56, 59
1, 593406, Note_off_c, 0, 63, 61
1, 593425, Note_on_c, 0, 67, 68
1, 593493, Note_off_c, 0, 67, 62
1, 593510, Note_on_c, 0, 64, 78
1, 593540, Note_on_c, 0, 47, 61
1, 593556, Note_off_c, 0, 56, 59
1, 593583, Note_on_c, 0, 68, 74
1, 593587, Note_off_c, 0, 64, 62
1, 593623, Note_off_c, 0, 47, 62
1, 593641, Note_off_c, 0, 68, 62
1, 593641, Note_on_c, 0, 66, 80
1, 593644, Note_on_c, 0, 56, 57
1, 593693, Note_off_c, 0, 66, 63
1, 593715, Note_on_c, 0, 70, 81
1, 593716, Note_off_c, 0, 56, 55
1, 593725, Note_on_c, 0, 63, 63
1, 593760, Note_off_c, 0, 63, 68
1, 593766, Note_off_c, 0, 70, 62
1, 593782, Note_on_c, 0, 68, 73
1, 593806, Note_off_c, 0, 68, 69
1, 593828, Note_on_c, 0, 71, 83
1, 593913, Note_on_c, 0, 73, 81
1, 593941, Control_c, 0, 64, 81
1, 593946, Note_off_c, 0, 71, 42
1, 593956, Control_c, 0, 64, 67
1, 593960, Note_on_c, 0, 40, 63
1, 593969, Note_off_c, 0, 73, 64
1, 593970, Control_c, 0, 64, 62
1, 593985, Control_c, 0, 64, 64
1, 593987, Note_off_c, 0, 40, 65
1, 593987, Note_on_c, 0, 75, 67
1, 594000, Control_c, 0, 64, 68
1, 594015, Control_c, 0, 64, 78
1, 594029, Control_c, 0, 64, 99
1, 594045, Control_c, 0, 64, 127
1, 594059, Note_on_c, 0, 72, 87
1, 594087, Note_off_c, 0, 75, 61
1, 594139, Note_on_c, 0, 76, 82
1, 594143, Note_off_c, 0, 72, 66
1, 594156, Note_on_c, 0, 56, 54
1, 594172, Note_on_c, 0, 63, 38
1, 594221, Note_off_c, 0, 63, 59
1, 594224, Note_on_c, 0, 72, 84
1, 594235, Note_on_c, 0, 66, 31
1, 594240, Note_off_c, 0, 76, 59
1, 594279, Note_off_c, 0, 56, 58
1, 594300, Note_off_c, 0, 66, 62
1, 594318, Note_on_c, 0, 80, 88
1, 594324, Note_on_c, 0, 75, 73
1, 594342, Control_c, 0, 64, 94
1, 594347, Note_on_c, 0, 67, 31
1, 594353, Note_on_c, 0, 65, 33
1, 594357, Control_c, 0, 64, 71
1, 594364, Note_off_c, 0, 72, 60
1, 594372, Control_c, 0, 64, 61
1, 594378, Note_off_c, 0, 67, 45
1, 594387, Note_off_c, 0, 65, 54
1, 594387, Control_c, 0, 64, 58
1, 594389, Note_on_c, 0, 71, 79
1, 594401, Note_off_c, 0, 75, 61
1, 594401, Control_c, 0, 64, 61
1, 594416, Control_c, 0, 64, 66
1, 594431, Control_c, 0, 64, 76
1, 594433, Note_on_c, 0, 64, 53
1, 594446, Control_c, 0, 64, 90
1, 594446, Note_off_c, 0, 71, 64
1, 594455, Note_on_c, 0, 75, 65
1, 594461, Control_c, 0, 64, 110
1, 594476, Control_c, 0, 64, 127
1, 594505, Note_on_c, 0, 63, 54
1, 594510, Note_off_c, 0, 64, 61
1, 594535, Note_off_c, 0, 75, 63
1, 594538, Note_off_c, 0, 63, 65
1, 594552, Note_on_c, 0, 70, 84
1, 594554, Note_off_c, 0, 80, 62
1, 594574, Note_on_c, 0, 62, 71
1, 594627, Note_on_c, 0, 73, 72
1, 594641, Note_off_c, 0, 70, 59
1, 594648, Note_off_c, 0, 62, 59
1, 594692, Note_on_c, 0, 69, 79
1, 594705, Note_off_c, 0, 73, 63
1, 594713, Note_on_c, 0, 52, 64
1, 594760, Note_off_c, 0, 52, 64
1, 594771, Note_on_c, 0, 76, 78
1, 594776, Note_off_c, 0, 69, 61
1, 594789, Note_on_c, 0, 72, 68
1, 594868, Note_off_c, 0, 72, 61
1, 594883, Note_on_c, 0, 68, 81
1, 594974, Note_off_c, 0, 68, 54
1, 594980, Note_on_c, 0, 71, 75
1, 595012, Note_on_c, 0, 40, 59
1, 595062, Control_c, 0, 64, 80
1, 595076, Control_c, 0, 64, 58
1, 595091, Control_c, 0, 64, 30
1, 595106, Control_c, 0, 64, 30
1, 595110, Note_on_c, 0, 69, 84
1, 595121, Control_c, 0, 64, 45
1, 595136, Control_c, 0, 64, 61
1, 595146, Note_off_c, 0, 71, 54
1, 595150, Control_c, 0, 64, 69
1, 595165, Control_c, 0, 64, 83
1, 595170, Note_on_c, 0, 47, 49
1, 595177, Note_off_c, 0, 40, 62
1, 595180, Control_c, 0, 64, 127
1, 595196, Note_off_c, 0, 47, 59
1, 595208, Note_off_c, 0, 69, 61
1, 595218, Note_on_c, 0, 72, 71
1, 595240, Note_off_c, 0, 76, 57
1, 595328, Note_on_c, 0, 59, 75
1, 595334, Note_on_c, 0, 68, 83
1, 595339, Note_off_c, 0, 72, 60
1, 595403, Note_off_c, 0, 68, 61
1, 595416, Note_off_c, 0, 59, 62
1, 595423, Note_on_c, 0, 71, 77
1, 595424, Note_on_c, 0, 60, 72
1, 595507, Note_on_c, 0, 69, 90
1, 595520, Note_off_c, 0, 71, 62
1, 595540, Note_off_c, 0, 60, 64
1, 595540, Note_on_c, 0, 52, 78
1, 595570, Note_off_c, 0, 69, 63
1, 595585, Note_on_c, 0, 72, 78
1, 595619, Note_off_c, 0, 52, 41
1, 595637, Note_off_c, 0, 72, 64
1, 595656, Note_on_c, 0, 71, 83
1, 595692, Note_on_c, 0, 59, 8
1, 595704, Note_off_c, 0, 71, 63
1, 595719, Note_on_c, 0, 75, 70
1, 595732, Note_off_c, 0, 59, 0
1, 595744, Note_on_c, 0, 72, 67
1, 595750, Poly_aftertouch_c, 0, 59, 0
1, 595763, Note_off_c, 0, 75, 53
1, 595770, Note_off_c, 0, 72, 64
1, 595772, Note_on_c, 0, 76, 64
1, 595784, Note_on_c, 0, 69, 67
1, 595797, Note_on_c, 0, 68, 14
1, 595804, Note_off_c, 0, 69, 64
1, 595819, Note_on_c, 0, 79, 70
1, 595835, Note_off_c, 0, 76, 65
1, 595838, Note_off_c, 0, 68, 40
1, 595869, Note_on_c, 0, 76, 72
1, 595873, Note_off_c, 0, 79, 67
1, 595959, Note_on_c, 0, 80, 92
1, 595976, Note_off_c, 0, 76, 58
1, 596086, Note_off_c, 0, 80, 65
1, 596088, Note_on_c, 0, 28, 86
1, 596115, Note_on_c, 0, 81, 95
1, 596142, Control_c, 0, 64, 73
1, 596157, Control_c, 0, 64, 48
1, 596172, Control_c, 0, 64, 0
1, 596202, Control_c, 0, 64, 28
1, 596216, Control_c, 0, 64, 56
1, 596231, Control_c, 0, 64, 64
1, 596246, Control_c, 0, 64, 72
1, 596261, Control_c, 0, 64, 87
1, 596276, Control_c, 0, 64, 127
1, 596281, Note_on_c, 0, 40, 72
1, 596289, Note_off_c, 0, 28, 61
1, 596306, Note_on_c, 0, 84, 92
1, 596311, Note_off_c, 0, 81, 63
1, 596317, Note_off_c, 0, 40, 66
1, 596321, Note_on_c, 0, 70, 89
1, 596397, Note_off_c, 0, 70, 61
1, 596409, Note_off_c, 0, 84, 45
1, 596421, Note_on_c, 0, 80, 76
1, 596473, Note_on_c, 0, 48, 55
1, 596501, Note_off_c, 0, 80, 63
1, 596526, Note_on_c, 0, 83, 89
1, 596533, Note_on_c, 0, 71, 80
1, 596554, Note_on_c, 0, 58, 68
1, 596568, Note_off_c, 0, 48, 60
1, 596590, Note_off_c, 0, 71, 61
1, 596601, Note_off_c, 0, 83, 64
1, 596614, Note_off_c, 0, 58, 63
1, 596636, Note_on_c, 0, 74, 60
1, 596644, Note_on_c, 0, 60, 61
1, 596664, Note_off_c, 0, 60, 62
1, 596707, Note_on_c, 0, 82, 87
1, 596753, Note_off_c, 0, 74, 61
1, 596774, Note_on_c, 0, 60, 38
1, 596813, Note_off_c, 0, 82, 63
1, 596822, Note_on_c, 0, 76, 54
1, 596826, Note_on_c, 0, 77, 66
1, 596868, Note_off_c, 0, 77, 49
1, 596905, Note_on_c, 0, 81, 68
1, 596911, Note_off_c, 0, 76, 64
1, 596929, Note_on_c, 0, 79, 55
1, 596952, Note_off_c, 0, 79, 39
1, 596954, Note_on_c, 0, 71, 46
1, 596967, Note_on_c, 0, 72, 45
1, 596970, Note_off_c, 0, 81, 61
1, 596990, Note_off_c, 0, 60, 62
1, 596993, Note_off_c, 0, 71, 61
1, 596996, Note_on_c, 0, 76, 65
1, 596999, Note_off_c, 0, 72, 52
1, 597024, Note_off_c, 0, 76, 67
1, 597092, Note_on_c, 0, 77, 68
1, 597099, Note_on_c, 0, 76, 65
1, 597112, Note_on_c, 0, 71, 34
1, 597129, Note_on_c, 0, 70, 59
1, 597140, Note_off_c, 0, 71, 55
1, 597162, Note_off_c, 0, 77, 59
1, 597162, Note_off_c, 0, 76, 58
1, 597208, Note_on_c, 0, 72, 62
1, 597221, Note_off_c, 0, 70, 30
1, 597297, Note_on_c, 0, 69, 76
1, 597297, Note_on_c, 0, 74, 75
1, 597336, Control_c, 0, 64, 119
1, 597337, Note_off_c, 0, 72, 55
1, 597349, Note_off_c, 0, 69, 63
1, 597351, Control_c, 0, 64, 113
1, 597366, Control_c, 0, 64, 109
1, 597381, Control_c, 0, 64, 107
1, 597396, Control_c, 0, 64, 104
1, 597400, Note_on_c, 0, 71, 74
1, 597409, Note_off_c, 0, 74, 58
1, 597410, Control_c, 0, 64, 102
1, 597425, Control_c, 0, 64, 100
1, 597440, Control_c, 0, 64, 99
1, 597455, Control_c, 0, 64, 97
1, 597457, Note_off_c, 0, 71, 64
1, 597469, Control_c, 0, 64, 94
1, 597491, Note_on_c, 0, 72, 74
1, 597492, Control_c, 0, 64, 91
1, 597501, Note_on_c, 0, 68, 72
1, 597507, Control_c, 0, 64, 88
1, 597522, Control_c, 0, 64, 86
1, 597537, Control_c, 0, 64, 85
1, 597566, Control_c, 0, 64, 84
1, 597578, Note_off_c, 0, 72, 58
1, 597581, Control_c, 0, 64, 83
1, 597586, Note_off_c, 0, 68, 56
1, 597596, Control_c, 0, 64, 81
1, 597602, Note_on_c, 0, 69, 71
1, 597611, Control_c, 0, 64, 79
1, 597625, Control_c, 0, 64, 78
1, 597640, Control_c, 0, 64, 77
1, 597655, Control_c, 0, 64, 77
1, 597669, Control_c, 0, 64, 76
1, 597684, Control_c, 0, 64, 75
1, 597699, Control_c, 0, 64, 74
1, 597714, Control_c, 0, 64, 74
1, 597728, Note_on_c, 0, 70, 74
1, 597729, Note_off_c, 0, 69, 60
1, 597740, Note_on_c, 0, 67, 61
1, 597743, Control_c, 0, 64, 73
1, 597773, Control_c, 0, 64, 73
1, 597788, Control_c, 0, 64, 72
1, 597817, Control_c, 0, 64, 72
1, 597826, Note_off_c, 0, 70, 61
1, 597832, Control_c, 0, 64, 71
1, 597853, Note_on_c, 0, 66, 71
1, 597862, Control_c, 0, 64, 71
1, 597892, Control_c, 0, 64, 70
1, 597899, Note_off_c, 0, 67, 53
1, 597922, Control_c, 0, 64, 70
1, 597966, Control_c, 0, 64, 69
1, 597996, Control_c, 0, 64, 69
1, 598026, Control_c, 0, 64, 68
1, 598041, Control_c, 0, 64, 68
1, 598054, Note_on_c, 0, 67, 60
1, 598071, Control_c, 0, 64, 67
1, 598085, Note_off_c, 0, 66, 57
1, 598101, Control_c, 0, 64, 67
1, 598115, Control_c, 0, 64, 66
1, 598145, Control_c, 0, 64, 66
1, 598205, Control_c, 0, 64, 65
1, 598241, Control_c, 0, 64, 65
1, 598243, Note_on_c, 0, 64, 54
1, 598256, Note_off_c, 0, 67, 57
1, 598315, Control_c, 0, 64, 64
1, 598419, Note_on_c, 0, 67, 46
1, 598419, Poly_aftertouch_c, 0, 71, 127
1, 598419, Control_c, 0, 64, 64
1, 598468, Note_off_c, 0, 64, 59
1, 598492, Poly_aftertouch_c, 0, 71, 0
1, 598530, Poly_aftertouch_c, 0, 71, 127
1, 598533, Poly_aftertouch_c, 0, 69, 127
1, 598617, Note_on_c, 0, 60, 43
1, 598656, Control_c, 0, 64, 63
1, 598774, Control_c, 0, 64, 63
1, 598819, Note_on_c, 0, 61, 43
1, 598835, Control_c, 0, 64, 62
1, 598864, Control_c, 0, 64, 62
1, 598886, Note_off_c, 0, 60, 34
1, 598894, Control_c, 0, 64, 61
1, 598899, Poly_aftertouch_c, 0, 69, 0
1, 598902, Note_off_c, 0, 67, 57
1, 598923, Control_c, 0, 64, 61
1, 598936, Poly_aftertouch_c, 0, 71, 0
1, 598953, Control_c, 0, 64, 60
1, 598968, Control_c, 0, 64, 60
1, 598971, Note_on_c, 0, 59, 46
1, 599005, Control_c, 0, 64, 59
1, 599020, Control_c, 0, 64, 59
1, 599021, Note_off_c, 0, 61, 33
1, 599035, Control_c, 0, 64, 58
1, 599064, Control_c, 0, 64, 58
1, 599094, Control_c, 0, 64, 57
1, 599118, Note_off_c, 0, 59, 56
1, 599130, Note_on_c, 0, 60, 49
1, 599264, Note_off_c, 0, 60, 59
1, 599285, Note_on_c, 0, 61, 45
1, 599522, Note_on_c, 0, 55, 38
1, 599645, Note_off_c, 0, 61, 32
1, 599657, Control_c, 0, 64, 58
1, 599753, Control_c, 0, 64, 58
1, 599798, Control_c, 0, 64, 59
1, 599871, Control_c, 0, 64, 59
1, 599961, Control_c, 0, 64, 60
1, 600005, Control_c, 0, 64, 60
1, 600079, Control_c, 0, 64, 61
1, 600198, Control_c, 0, 64, 61
1, 600204, Note_on_c, 0, 61, 32
1, 600301, Control_c, 0, 64, 62
1, 600330, Control_c, 0, 64, 63
1, 600345, Control_c, 0, 64, 63
1, 600360, Control_c, 0, 64, 64
1, 600375, Control_c, 0, 64, 65
1, 600390, Control_c, 0, 64, 66
1, 600405, Control_c, 0, 64, 67
1, 600420, Control_c, 0, 64, 68
1, 600435, Control_c, 0, 64, 70
1, 600450, Control_c, 0, 64, 71
1, 600465, Control_c, 0, 64, 73
1, 600487, Control_c, 0, 64, 74
1, 600491, Note_on_c, 0, 59, 40
1, 600502, Control_c, 0, 64, 75
1, 600503, Note_off_c, 0, 61, 41
1, 600517, Control_c, 0, 64, 75
1, 600532, Control_c, 0, 64, 76
1, 600547, Control_c, 0, 64, 76
1, 600561, Control_c, 0, 64, 77
1, 600573, Note_off_c, 0, 55, 28
1, 600576, Control_c, 0, 64, 77
1, 600591, Control_c, 0, 64, 78
1, 600646, Note_off_c, 0, 59, 61
1, 600680, Control_c, 0, 64, 77
1, 600683, Note_on_c, 0, 60, 48
1, 600709, Control_c, 0, 64, 77
1, 600724, Control_c, 0, 64, 76
1, 600739, Control_c, 0, 64, 76
1, 600768, Control_c, 0, 64, 75
1, 600798, Control_c, 0, 64, 75
1, 600828, Control_c, 0, 64, 74
1, 600843, Control_c, 0, 64, 74
1, 600852, Note_off_c, 0, 60, 63
1, 600858, Control_c, 0, 64, 73
1, 600862, Note_on_c, 0, 62, 45
1, 600873, Control_c, 0, 64, 73
1, 600917, Control_c, 0, 64, 72
1, 600961, Control_c, 0, 64, 72
1, 600991, Control_c, 0, 64, 71
1, 601010, Note_off_c, 0, 62, 58
1, 601021, Control_c, 0, 64, 71
1, 601040, Note_on_c, 0, 64, 54
1, 601050, Control_c, 0, 64, 70
1, 601296, Control_c, 0, 64, 71
1, 601309, Note_on_c, 0, 65, 45
1, 601310, Control_c, 0, 64, 70
1, 601325, Control_c, 0, 64, 68
1, 601340, Control_c, 0, 64, 64
1, 601355, Control_c, 0, 64, 59
1, 601370, Control_c, 0, 64, 58
1, 601373, Note_off_c, 0, 64, 50
1, 601384, Control_c, 0, 64, 59
1, 601399, Control_c, 0, 64, 62
1, 601414, Control_c, 0, 64, 66
1, 601429, Control_c, 0, 64, 70
1, 601444, Control_c, 0, 64, 76
1, 601458, Control_c, 0, 64, 81
1, 601473, Control_c, 0, 64, 85
1, 601488, Control_c, 0, 64, 88
1, 601503, Control_c, 0, 64, 91
1, 601517, Control_c, 0, 64, 93
1, 601532, Control_c, 0, 64, 96
1, 601547, Control_c, 0, 64, 102
1, 601562, Control_c, 0, 64, 112
1, 601568, Note_off_c, 0, 65, 55
1, 601577, Control_c, 0, 64, 127
1, 601627, Note_on_c, 0, 64, 38
1, 601681, Note_on_c, 0, 77, 65
1, 601741, Note_off_c, 0, 64, 62
1, 601874, Poly_aftertouch_c, 0, 63, 127
1, 601901, Poly_aftertouch_c, 0, 63, 0
1, 601912, Note_on_c, 0, 61, 32
1, 602032, Note_on_c, 0, 76, 65
1, 602134, Control_c, 0, 64, 99
1, 602149, Control_c, 0, 64, 76
1, 602161, Note_on_c, 0, 53, 42
1, 602163, Control_c, 0, 64, 65
1, 602166, Note_off_c, 0, 61, 38
1, 602178, Control_c, 0, 64, 63
1, 602179, Note_off_c, 0, 77, 53
1, 602193, Control_c, 0, 64, 65
1, 602208, Control_c, 0, 64, 68
1, 602223, Control_c, 0, 64, 75
1, 602238, Control_c, 0, 64, 84
1, 602253, Control_c, 0, 64, 97
1, 602268, Control_c, 0, 64, 104
1, 602273, Note_off_c, 0, 76, 64
1, 602275, Note_on_c, 0, 75, 66
1, 602282, Control_c, 0, 64, 105
1, 602321, Note_on_c, 0, 46, 28
1, 602327, Control_c, 0, 64, 107
1, 602341, Control_c, 0, 64, 112
1, 602343, Note_off_c, 0, 53, 44
1, 602356, Control_c, 0, 64, 127
1, 602661, Note_on_c, 0, 73, 64
1, 602801, Poly_aftertouch_c, 0, 76, 127
1, 602805, Note_off_c, 0, 75, 58
1, 602828, Note_on_c, 0, 53, 39
1, 602836, Note_off_c, 0, 46, 37
1, 602942, Control_c, 0, 64, 125
1, 602956, Control_c, 0, 64, 120
1, 602971, Control_c, 0, 64, 117
1, 603004, Note_on_c, 0, 58, 47
1, 603005, Note_off_c, 0, 53, 33
1, 603076, Note_on_c, 0, 70, 53
1, 603082, Note_off_c, 0, 73, 60
1, 603105, Control_c, 0, 64, 106
1, 603120, Control_c, 0, 64, 88
1, 603135, Control_c, 0, 64, 74
1, 603150, Control_c, 0, 64, 69
1, 603164, Control_c, 0, 64, 70
1, 603179, Control_c, 0, 64, 75
1, 603194, Control_c, 0, 64, 84
1, 603209, Control_c, 0, 64, 103
1, 603223, Note_off_c, 0, 58, 58
1, 603224, Control_c, 0, 64, 127
1, 603248, Note_on_c, 0, 61, 41
1, 603260, Poly_aftertouch_c, 0, 76, 0
1, 603314, Note_on_c, 0, 65, 48
1, 603361, Note_off_c, 0, 61, 49
1, 603418, Note_off_c, 0, 65, 61
1, 603465, Note_off_c, 0, 70, 19
1, 603490, Note_on_c, 0, 63, 54
1, 603618, Note_on_c, 0, 64, 61
1, 603619, Note_off_c, 0, 63, 58
1, 603696, Note_off_c, 0, 64, 61
1, 603740, Note_on_c, 0, 65, 67
1, 603839, Control_c, 0, 64, 115
1, 603854, Control_c, 0, 64, 82
1, 603869, Control_c, 0, 64, 69
1, 603872, Note_off_c, 0, 65, 50
1, 603883, Control_c, 0, 64, 65
1, 603883, Note_on_c, 0, 61, 51
1, 603898, Control_c, 0, 64, 67
1, 603912, Control_c, 0, 64, 71
1, 603927, Control_c, 0, 64, 82
1, 603934, Note_on_c, 0, 77, 82
1, 603942, Control_c, 0, 64, 98
1, 603957, Control_c, 0, 64, 127
1, 603977, Note_on_c, 0, 53, 62
1, 604019, Note_off_c, 0, 53, 63
1, 604035, Note_off_c, 0, 61, 58
1, 604221, Note_on_c, 0, 72, 50
1, 604290, Control_c, 0, 64, 99
1, 604292, Note_on_c, 0, 80, 82
1, 604304, Control_c, 0, 64, 78
1, 604319, Control_c, 0, 64, 71
1, 604326, Note_on_c, 0, 73, 52
1, 604334, Control_c, 0, 64, 72
1, 604349, Control_c, 0, 64, 75
1, 604364, Control_c, 0, 64, 83
1, 604379, Control_c, 0, 64, 101
1, 604393, Control_c, 0, 64, 127
1, 604447, Note_on_c, 0, 65, 48
1, 604462, Note_off_c, 0, 72, 57
1, 604559, Note_on_c, 0, 79, 75
1, 604584, Note_off_c, 0, 80, 64
1, 604597, Note_off_c, 0, 65, 59
1, 604623, Note_off_c, 0, 77, 59
1, 604627, Note_on_c, 0, 63, 52
1, 604632, Note_off_c, 0, 73, 41
1, 604739, Note_on_c, 0, 61, 54
1, 604772, Note_off_c, 0, 63, 36
1, 604801, Note_on_c, 0, 77, 75
1, 604809, Control_c, 0, 64, 85
1, 604824, Control_c, 0, 64, 68
1, 604839, Control_c, 0, 64, 60
1, 604854, Control_c, 0, 64, 60
1, 604858, Note_off_c, 0, 79, 60
1, 604869, Control_c, 0, 64, 62
1, 604883, Control_c, 0, 64, 67
1, 604898, Control_c, 0, 64, 74
1, 604913, Control_c, 0, 64, 84
1, 604927, Control_c, 0, 64, 95
1, 604933, Note_on_c, 0, 70, 55
1, 604942, Control_c, 0, 64, 105
1, 604957, Control_c, 0, 64, 109
1, 604995, Control_c, 0, 64, 110
1, 605009, Control_c, 0, 64, 112
1, 605024, Control_c, 0, 64, 120
1, 605039, Control_c, 0, 64, 127
1, 605042, Note_off_c, 0, 77, 60
1, 605052, Note_off_c, 0, 70, 37
1, 605078, Note_on_c, 0, 73, 67
1, 605097, Note_on_c, 0, 68, 56
1, 605147, Note_off_c, 0, 61, 32
1, 605200, Note_off_c, 0, 68, 59
1, 605231, Note_on_c, 0, 67, 50
1, 605268, Note_on_c, 0, 75, 65
1, 605284, Note_off_c, 0, 67, 55
1, 605365, Note_off_c, 0, 73, 56
1, 605410, Note_on_c, 0, 77, 66
1, 605441, Note_off_c, 0, 75, 52
1, 605520, Note_on_c, 0, 54, 44
1, 605559, Note_on_c, 0, 79, 63
1, 605586, Note_on_c, 0, 73, 47
1, 605602, Note_off_c, 0, 77, 61
1, 605607, Note_off_c, 0, 54, 62
1, 605631, Note_off_c, 0, 73, 60
1, 605639, Note_off_c, 0, 79, 62
1, 605791, Note_on_c, 0, 77, 63
1, 605814, Note_on_c, 0, 72, 41
1, 605822, Note_on_c, 0, 65, 39
1, 605863, Control_c, 0, 64, 88
1, 605877, Control_c, 0, 64, 71
1, 605892, Control_c, 0, 64, 63
1, 605902, Note_off_c, 0, 72, 64
1, 605922, Control_c, 0, 64, 66
1, 605933, Note_on_c, 0, 34, 44
1, 605937, Control_c, 0, 64, 71
1, 605951, Control_c, 0, 64, 82
1, 605966, Control_c, 0, 64, 101
1, 605981, Control_c, 0, 64, 127
1, 605985, Note_off_c, 0, 34, 60
1, 606118, Note_on_c, 0, 73, 56
1, 606194, Note_off_c, 0, 65, 35
1, 606223, Note_on_c, 0, 53, 55
1, 606354, Note_off_c, 0, 53, 64
1, 606384, Note_on_c, 0, 65, 60
1, 606385, Note_on_c, 0, 72, 56
1, 606395, Control_c, 0, 64, 119
1, 606410, Control_c, 0, 64, 86
1, 606425, Control_c, 0, 64, 74
1, 606440, Control_c, 0, 64, 70
1, 606450, Note_off_c, 0, 73, 42
1, 606454, Control_c, 0, 64, 71
1, 606469, Control_c, 0, 64, 74
1, 606492, Control_c, 0, 64, 80
1, 606506, Control_c, 0, 64, 89
1, 606521, Control_c, 0, 64, 98
1, 606536, Control_c, 0, 64, 102
1, 606565, Note_on_c, 0, 64, 53
1, 606593, Note_off_c, 0, 65, 60
1, 606625, Control_c, 0, 64, 103
1, 606640, Control_c, 0, 64, 104
1, 606653, Note_off_c, 0, 64, 63
1, 606671, Note_on_c, 0, 70, 57
1, 606690, Note_off_c, 0, 72, 57
1, 606697, Note_on_c, 0, 63, 50
1, 606703, Poly_aftertouch_c, 0, 74, 0
1, 606769, Note_off_c, 0, 63, 61
1, 606787, Control_c, 0, 64, 104
1, 606845, Note_on_c, 0, 61, 54
1, 606921, Control_c, 0, 64, 104
1, 606936, Control_c, 0, 64, 99
1, 606951, Control_c, 0, 64, 86
1, 606966, Control_c, 0, 64, 73
1, 606981, Control_c, 0, 64, 64
1, 606996, Control_c, 0, 64, 57
1, 607010, Control_c, 0, 64, 56
1, 607025, Control_c, 0, 64, 59
1, 607031, Note_on_c, 0, 53, 46
1, 607040, Control_c, 0, 64, 63
1, 607043, Note_off_c, 0, 61, 48
1, 607055, Control_c, 0, 64, 66
1, 607070, Note_off_c, 0, 77, 63
1, 607070, Control_c, 0, 64, 69
1, 607085, Control_c, 0, 64, 72
1, 607100, Control_c, 0, 64, 73
1, 607113, Note_on_c, 0, 72, 58
1, 607115, Control_c, 0, 64, 73
1, 607129, Control_c, 0, 64, 74
1, 607144, Control_c, 0, 64, 76
1, 607156, Note_off_c, 0, 70, 62
1, 607159, Control_c, 0, 64, 79
1, 607174, Control_c, 0, 64, 82
1, 607189, Control_c, 0, 64, 86
1, 607198, Note_on_c, 0, 46, 47
1, 607203, Control_c, 0, 64, 89
1, 607218, Control_c, 0, 64, 90
1, 607240, Control_c, 0, 64, 91
1, 607251, Note_off_c, 0, 53, 26
1, 607255, Control_c, 0, 64, 92
1, 607270, Control_c, 0, 64, 94
1, 607285, Control_c, 0, 64, 96
1, 607300, Control_c, 0, 64, 98
1, 607301, Note_off_c, 0, 46, 55
1, 607314, Control_c, 0, 64, 100
1, 607329, Control_c, 0, 64, 101
1, 607344, Control_c, 0, 64, 102
1, 607359, Control_c, 0, 64, 103
1, 607374, Control_c, 0, 64, 103
1, 607412, Poly_aftertouch_c, 0, 61, 127
1, 607427, Note_off_c, 0, 72, 62
1, 607433, Note_on_c, 0, 75, 62
1, 607508, Note_on_c, 0, 70, 24
1, 607584, Poly_aftertouch_c, 0, 61, 0
1, 607608, Note_on_c, 0, 73, 71
1, 607666, Note_on_c, 0, 60, 26
1, 607715, Control_c, 0, 64, 104
1, 607719, Note_off_c, 0, 75, 0
1, 607724, Note_off_c, 0, 70, 38
1, 607756, Poly_aftertouch_c, 0, 75, 127
1, 607765, Note_on_c, 0, 72, 63
1, 607771, Note_off_c, 0, 73, 58
1, 607790, Poly_aftertouch_c, 0, 75, 0
1, 607815, Note_off_c, 0, 60, 47
1, 607872, Note_on_c, 0, 61, 30
1, 607908, Control_c, 0, 64, 105
1, 607923, Control_c, 0, 64, 106
1, 607938, Control_c, 0, 64, 104
1, 607952, Control_c, 0, 64, 91
1, 607974, Control_c, 0, 64, 76
1, 607982, Note_on_c, 0, 70, 61
1, 607989, Control_c, 0, 64, 65
1, 608004, Control_c, 0, 64, 60
1, 608005, Note_off_c, 0, 72, 56
1, 608019, Control_c, 0, 64, 60
1, 608033, Control_c, 0, 64, 62
1, 608048, Control_c, 0, 64, 65
1, 608063, Control_c, 0, 64, 69
1, 608078, Control_c, 0, 64, 73
1, 608093, Control_c, 0, 64, 78
1, 608102, Note_off_c, 0, 61, 46
1, 608107, Control_c, 0, 64, 81
1, 608122, Control_c, 0, 64, 83
1, 608137, Note_on_c, 0, 51, 55
1, 608137, Control_c, 0, 64, 84
1, 608152, Control_c, 0, 64, 85
1, 608167, Control_c, 0, 64, 87
1, 608182, Control_c, 0, 64, 91
1, 608188, Note_off_c, 0, 70, 63
1, 608197, Control_c, 0, 64, 96
1, 608212, Control_c, 0, 64, 101
1, 608212, Note_on_c, 0, 72, 59
1, 608226, Control_c, 0, 64, 106
1, 608241, Control_c, 0, 64, 109
1, 608256, Control_c, 0, 64, 112
1, 608271, Control_c, 0, 64, 116
1, 608275, Note_on_c, 0, 46, 38
1, 608285, Control_c, 0, 64, 122
1, 608300, Control_c, 0, 64, 127
1, 608310, Note_off_c, 0, 51, 35
1, 608321, Note_off_c, 0, 46, 63
1, 608470, Note_on_c, 0, 75, 56
1, 608480, Note_on_c, 0, 68, 39
1, 608567, Control_c, 0, 64, 103
1, 608582, Control_c, 0, 64, 74
1, 608597, Control_c, 0, 64, 64
1, 608612, Control_c, 0, 64, 62
1, 608627, Control_c, 0, 64, 63
1, 608641, Control_c, 0, 64, 66
1, 608656, Control_c, 0, 64, 72
1, 608665, Note_off_c, 0, 68, 51
1, 608671, Control_c, 0, 64, 81
1, 608680, Note_on_c, 0, 39, 38
1, 608680, Note_on_c, 0, 46, 32
1, 608686, Control_c, 0, 64, 90
1, 608701, Control_c, 0, 64, 97
1, 608723, Control_c, 0, 64, 100
1, 608738, Control_c, 0, 64, 101
1, 608753, Control_c, 0, 64, 101
1, 608768, Note_off_c, 0, 39, 60
1, 608768, Control_c, 0, 64, 102
1, 608769, Note_on_c, 0, 67, 16
1, 608778, Note_off_c, 0, 46, 51
1, 608782, Control_c, 0, 64, 105
1, 608784, Note_off_c, 0, 72, 58
1, 608797, Control_c, 0, 64, 110
1, 608812, Control_c, 0, 64, 116
1, 608827, Control_c, 0, 64, 125
1, 608842, Control_c, 0, 64, 127
1, 608892, Note_on_c, 0, 73, 66
1, 608958, Note_off_c, 0, 67, 36
1, 609011, Note_on_c, 0, 53, 49
1, 609023, Note_on_c, 0, 70, 49
1, 609109, Note_off_c, 0, 53, 61
1, 609146, Note_off_c, 0, 73, 45
1, 609163, Note_on_c, 0, 67, 58
1, 609170, Note_on_c, 0, 55, 51
1, 609242, Note_off_c, 0, 75, 60
1, 609281, Note_off_c, 0, 55, 61
1, 609302, Note_on_c, 0, 57, 54
1, 609305, Note_off_c, 0, 67, 57
1, 609306, Note_on_c, 0, 72, 77
1, 609365, Note_off_c, 0, 70, 59
1, 609392, Note_off_c, 0, 57, 63
1, 609429, Note_on_c, 0, 58, 61
1, 609436, Note_on_c, 0, 73, 85
1, 609474, Note_off_c, 0, 72, 61
1, 609594, Note_on_c, 0, 51, 53
1, 609598, Note_on_c, 0, 60, 50
1, 609634, Note_off_c, 0, 58, 56
1, 609640, Note_off_c, 0, 73, 65
1, 609661, Note_on_c, 0, 72, 74
1, 609681, Control_c, 0, 64, 79
1, 609696, Control_c, 0, 64, 54
1, 609711, Control_c, 0, 64, 0
1, 609785, Control_c, 0, 64, 52
1, 609799, Control_c, 0, 64, 62
1, 609814, Control_c, 0, 64, 65
1, 609829, Control_c, 0, 64, 67
1, 609833, Note_on_c, 0, 65, 44
1, 609844, Control_c, 0, 64, 69
1, 609859, Control_c, 0, 64, 74
1, 609873, Control_c, 0, 64, 82
1, 609887, Control_c, 0, 64, 113
1, 609901, Note_off_c, 0, 51, 53
1, 609902, Control_c, 0, 64, 127
1, 609926, Note_off_c, 0, 60, 59
1, 609943, Note_on_c, 0, 63, 55
1, 609950, Note_on_c, 0, 70, 70
1, 609992, Note_on_c, 0, 66, 24
1, 609994, Note_off_c, 0, 72, 63
1, 609996, Note_off_c, 0, 65, 55
1, 610002, Note_off_c, 0, 63, 61
1, 610011, Note_off_c, 0, 70, 64
1, 610033, Note_off_c, 0, 66, 45
1, 610145, Note_on_c, 0, 61, 50
1, 610188, Note_on_c, 0, 70, 64
1, 610215, Control_c, 0, 64, 87
1, 610236, Control_c, 0, 64, 67
1, 610251, Control_c, 0, 64, 55
1, 610266, Control_c, 0, 64, 47
1, 610273, Note_on_c, 0, 65, 13
1, 610281, Control_c, 0, 64, 50
1, 610295, Control_c, 0, 64, 59
1, 610310, Control_c, 0, 64, 65
1, 610325, Note_off_c, 0, 65, 45
1, 610325, Control_c, 0, 64, 70
1, 610340, Control_c, 0, 64, 77
1, 610343, Note_off_c, 0, 61, 56
1, 610346, Note_on_c, 0, 63, 54
1, 610349, Note_on_c, 0, 53, 49
1, 610355, Control_c, 0, 64, 83
1, 610370, Control_c, 0, 64, 88
1, 610385, Control_c, 0, 64, 94
1, 610400, Control_c, 0, 64, 102
1, 610415, Control_c, 0, 64, 117
1, 610429, Control_c, 0, 64, 127
1, 610476, Note_on_c, 0, 46, 37
1, 610493, Note_on_c, 0, 65, 48
1, 610494, Note_off_c, 0, 63, 31
1, 610508, Note_off_c, 0, 53, 31
1, 610648, Note_off_c, 0, 46, 40
1, 610672, Note_on_c, 0, 60, 47
1, 610749, Note_on_c, 0, 68, 58
1, 610769, Control_c, 0, 64, 102
1, 610775, Note_on_c, 0, 63, 43
1, 610784, Control_c, 0, 64, 75
1, 610798, Note_off_c, 0, 65, 32
1, 610799, Control_c, 0, 64, 62
1, 610804, Note_off_c, 0, 70, 58
1, 610815, Control_c, 0, 64, 46
1, 610830, Control_c, 0, 64, 46
1, 610844, Control_c, 0, 64, 51
1, 610859, Control_c, 0, 64, 58
1, 610874, Control_c, 0, 64, 63
1, 610889, Control_c, 0, 64, 65
1, 610904, Control_c, 0, 64, 68
1, 610911, Note_off_c, 0, 60, 55
1, 610918, Control_c, 0, 64, 71
1, 610933, Control_c, 0, 64, 75
1, 610943, Note_on_c, 0, 46, 42
1, 610948, Control_c, 0, 64, 80
1, 610963, Control_c, 0, 64, 86
1, 610985, Control_c, 0, 64, 95
1, 611000, Control_c, 0, 64, 106
1, 611015, Control_c, 0, 64, 127
1, 611180, Note_on_c, 0, 53, 39
1, 611240, Note_off_c, 0, 63, 59
1, 611406, Note_on_c, 0, 54, 48
1, 611441, Note_on_c, 0, 70, 56
1, 611458, Note_off_c, 0, 54, 53
1, 611465, Note_on_c, 0, 61, 44
1, 611553, Note_off_c, 0, 70, 57
1, 611558, Note_off_c, 0, 68, 52
1, 611598, Note_on_c, 0, 55, 49
1, 611606, Note_off_c, 0, 61, 61
1, 611646, Note_off_c, 0, 46, 36
1, 611655, Note_off_c, 0, 53, 24
1, 611664, Note_off_c, 0, 55, 56
1, 611956, Note_on_c, 0, 36, 38
1, 611983, Note_on_c, 0, 52, 43
1, 611995, Note_on_c, 0, 60, 39
1, 612000, Note_on_c, 0, 68, 46
1, 612000, Control_c, 0, 64, 99
1, 612004, Note_on_c, 0, 56, 36
1, 612015, Control_c, 0, 64, 75
1, 612030, Control_c, 0, 64, 62
1, 612045, Control_c, 0, 64, 58
1, 612060, Control_c, 0, 64, 60
1, 612075, Control_c, 0, 64, 63
1, 612078, Note_off_c, 0, 36, 52
1, 612090, Control_c, 0, 64, 68
1, 612105, Control_c, 0, 64, 75
1, 612119, Control_c, 0, 64, 89
1, 612134, Control_c, 0, 64, 102
1, 612149, Control_c, 0, 64, 113
1, 612164, Control_c, 0, 64, 117
1, 612189, Note_off_c, 0, 56, 53
1, 612199, Note_off_c, 0, 52, 63
1, 612208, Control_c, 0, 64, 120
1, 612223, Note_off_c, 0, 60, 53
1, 612223, Control_c, 0, 64, 127
1, 612341, Control_c, 0, 64, 125
1, 612356, Control_c, 0, 64, 122
1, 612371, Control_c, 0, 64, 119
1, 612385, Control_c, 0, 64, 116
1, 612400, Control_c, 0, 64, 113
1, 612416, Note_on_c, 0, 58, 41
1, 612416, Control_c, 0, 64, 109
1, 612431, Control_c, 0, 64, 106
1, 612446, Control_c, 0, 64, 102
1, 612468, Control_c, 0, 64, 99
1, 612483, Control_c, 0, 64, 97
1, 612498, Control_c, 0, 64, 94
1, 612513, Control_c, 0, 64, 92
1, 612528, Control_c, 0, 64, 90
1, 612543, Control_c, 0, 64, 88
1, 612558, Control_c, 0, 64, 87
1, 612572, Control_c, 0, 64, 86
1, 612576, Note_off_c, 0, 68, 58
1, 612587, Control_c, 0, 64, 84
1, 612602, Control_c, 0, 64, 83
1, 612616, Control_c, 0, 64, 82
1, 612631, Control_c, 0, 64, 82
1, 612638, Note_on_c, 0, 59, 44
1, 612646, Control_c, 0, 64, 81
1, 612661, Control_c, 0, 64, 80
1, 612676, Control_c, 0, 64, 79
1, 612691, Control_c, 0, 64, 78
1, 612698, Note_on_c, 0, 67, 44
1, 612705, Control_c, 0, 64, 77
1, 612718, Note_off_c, 0, 58, 31
1, 612720, Control_c, 0, 64, 76
1, 612735, Control_c, 0, 64, 75
1, 612749, Control_c, 0, 64, 74
1, 612764, Control_c, 0, 64, 73
1, 612794, Control_c, 0, 64, 73
1, 612809, Control_c, 0, 64, 72
1, 612823, Control_c, 0, 64, 72
1, 612838, Control_c, 0, 64, 71
1, 612853, Control_c, 0, 64, 71
1, 612894, Note_off_c, 0, 59, 63
1, 612898, Note_on_c, 0, 60, 41
1, 612913, Control_c, 0, 64, 70
1, 612928, Control_c, 0, 64, 70
1, 612957, Control_c, 0, 64, 69
1, 612972, Control_c, 0, 64, 69
1, 613002, Control_c, 0, 64, 68
1, 613047, Control_c, 0, 64, 68
1, 613077, Control_c, 0, 64, 67
1, 613121, Control_c, 0, 64, 67
1, 613131, Note_on_c, 0, 61, 41
1, 613195, Control_c, 0, 64, 66
1, 613231, Note_off_c, 0, 61, 54
1, 613236, Note_off_c, 0, 60, 29
1, 613262, Control_c, 0, 64, 66
1, 613269, Note_on_c, 0, 59, 45
1, 613351, Control_c, 0, 64, 65
1, 613381, Control_c, 0, 64, 65
1, 613394, Note_off_c, 0, 67, 52
1, 613425, Control_c, 0, 64, 64
1, 613431, Note_on_c, 0, 60, 40
1, 613434, Note_off_c, 0, 59, 55
1, 613440, Control_c, 0, 64, 64
1, 613470, Control_c, 0, 64, 63
1, 613485, Control_c, 0, 64, 63
1, 613500, Control_c, 0, 64, 62
1, 613514, Control_c, 0, 64, 62
1, 613529, Control_c, 0, 64, 61
1, 613544, Control_c, 0, 64, 60
1, 613559, Control_c, 0, 64, 59
1, 613573, Control_c, 0, 64, 58
1, 613588, Control_c, 0, 64, 57
1, 613603, Control_c, 0, 64, 54
1, 613613, Note_on_c, 0, 61, 32
1, 613618, Control_c, 0, 64, 50
1, 613633, Control_c, 0, 64, 46
1, 613647, Control_c, 0, 64, 39
1, 613661, Note_off_c, 0, 60, 29
1, 613662, Control_c, 0, 64, 28
1, 613677, Control_c, 0, 64, 0
1, 613778, Note_on_c, 0, 55, 33
1, 613830, Note_off_c, 0, 61, 40
1, 613870, Control_c, 0, 64, 22
1, 613884, Control_c, 0, 64, 37
1, 613899, Control_c, 0, 64, 47
1, 613914, Control_c, 0, 64, 54
1, 613929, Control_c, 0, 64, 58
1, 613944, Control_c, 0, 64, 60
1, 613959, Control_c, 0, 64, 61
1, 613980, Control_c, 0, 64, 62
1, 613995, Control_c, 0, 64, 63
1, 614010, Control_c, 0, 64, 65
1, 614026, Control_c, 0, 64, 67
1, 614041, Control_c, 0, 64, 69
1, 614056, Control_c, 0, 64, 71
1, 614070, Control_c, 0, 64, 73
1, 614085, Control_c, 0, 64, 75
1, 614100, Control_c, 0, 64, 77
1, 614115, Control_c, 0, 64, 79
1, 614130, Control_c, 0, 64, 81
1, 614144, Control_c, 0, 64, 85
1, 614159, Control_c, 0, 64, 89
1, 614174, Control_c, 0, 64, 95
1, 614188, Control_c, 0, 64, 99
1, 614203, Control_c, 0, 64, 102
1, 614218, Control_c, 0, 64, 104
1, 614233, Control_c, 0, 64, 104
1, 614248, Control_c, 0, 64, 105
1, 614263, Control_c, 0, 64, 106
1, 614278, Control_c, 0, 64, 106
1, 614293, Control_c, 0, 64, 108
1, 614305, Note_on_c, 0, 61, 42
1, 614308, Control_c, 0, 64, 109
1, 614323, Control_c, 0, 64, 110
1, 614410, Control_c, 0, 64, 110
1, 614455, Control_c, 0, 64, 109
1, 614469, Control_c, 0, 64, 109
1, 614492, Note_on_c, 0, 59, 50
1, 614494, Note_off_c, 0, 61, 36
1, 614499, Control_c, 0, 64, 108
1, 614529, Control_c, 0, 64, 108
1, 614588, Control_c, 0, 64, 107
1, 614603, Control_c, 0, 64, 107
1, 614618, Control_c, 0, 64, 106
1, 614624, Note_off_c, 0, 55, 32
1, 614627, Note_off_c, 0, 59, 61
1, 614633, Control_c, 0, 64, 105
1, 614662, Control_c, 0, 64, 105
1, 614671, Note_on_c, 0, 60, 49
1, 614707, Control_c, 0, 64, 104
1, 614729, Control_c, 0, 64, 104
1, 614738, Poly_aftertouch_c, 0, 77, 127
1, 614743, Control_c, 0, 64, 103
1, 614758, Control_c, 0, 64, 102
1, 614773, Control_c, 0, 64, 101
1, 614788, Control_c, 0, 64, 100
1, 614803, Control_c, 0, 64, 100
1, 614813, Note_on_c, 0, 61, 66
1, 614818, Note_off_c, 0, 60, 61
1, 614833, Control_c, 0, 64, 99
1, 614878, Control_c, 0, 64, 99
1, 614892, Control_c, 0, 64, 98
1, 614907, Control_c, 0, 64, 98
1, 614922, Control_c, 0, 64, 97
1, 614937, Control_c, 0, 64, 97
1, 614963, Note_on_c, 0, 62, 73
1, 614984, Note_off_c, 0, 61, 55
1, 615011, Control_c, 0, 64, 96
1, 615017, Poly_aftertouch_c, 0, 77, 0
1, 615130, Control_c, 0, 64, 87
1, 615145, Control_c, 0, 64, 72
1, 615148, Note_on_c, 0, 63, 72
1, 615159, Control_c, 0, 64, 60
1, 615174, Control_c, 0, 64, 45
1, 615189, Control_c, 0, 64, 43
1, 615204, Control_c, 0, 64, 49
1, 615218, Control_c, 0, 64, 57
1, 615233, Control_c, 0, 64, 62
1, 615239, Note_off_c, 0, 62, 55
1, 615248, Control_c, 0, 64, 65
1, 615263, Control_c, 0, 64, 68
1, 615278, Control_c, 0, 64, 69
1, 615292, Control_c, 0, 64, 71
1, 615307, Control_c, 0, 64, 72
1, 615322, Control_c, 0, 64, 75
1, 615336, Control_c, 0, 64, 80
1, 615351, Control_c, 0, 64, 86
1, 615359, Note_off_c, 0, 63, 62
1, 615360, Note_on_c, 0, 62, 72
1, 615362, Poly_aftertouch_c, 0, 77, 0
1, 615366, Control_c, 0, 64, 94
1, 615381, Control_c, 0, 64, 107
1, 615384, Note_on_c, 0, 75, 83
1, 615396, Control_c, 0, 64, 127
1, 615491, Note_off_c, 0, 62, 62
1, 615517, Note_on_c, 0, 61, 71
1, 615622, Note_off_c, 0, 61, 62
1, 615652, Note_on_c, 0, 59, 64
1, 615677, Note_on_c, 0, 74, 85
1, 615735, Note_off_c, 0, 75, 58
1, 615834, Control_c, 0, 64, 100
1, 615849, Control_c, 0, 64, 69
1, 615853, Note_on_c, 0, 51, 74
1, 615853, Note_off_c, 0, 59, 38
1, 615864, Control_c, 0, 64, 60
1, 615879, Control_c, 0, 64, 59
1, 615894, Control_c, 0, 64, 62
1, 615900, Poly_aftertouch_c, 0, 75, 127
1, 615902, Note_on_c, 0, 73, 86
1, 615908, Control_c, 0, 64, 66
1, 615923, Control_c, 0, 64, 74
1, 615934, Poly_aftertouch_c, 0, 75, 0
1, 615938, Control_c, 0, 64, 95
1, 615943, Note_off_c, 0, 74, 62
1, 615953, Control_c, 0, 64, 127
1, 616013, Note_on_c, 0, 44, 78
1, 616056, Note_off_c, 0, 51, 55
1, 616069, Note_off_c, 0, 44, 63
1, 616201, Note_on_c, 0, 71, 90
1, 616201, Note_off_c, 0, 73, 65
1, 616248, Note_off_c, 0, 71, 64
1, 616433, Note_on_c, 0, 87, 80
1, 616551, Note_on_c, 0, 68, 90
1, 616639, Note_on_c, 0, 86, 82
1, 616666, Note_off_c, 0, 87, 62
1, 616776, Note_on_c, 0, 63, 68
1, 616782, Note_off_c, 0, 68, 60
1, 616788, Note_off_c, 0, 86, 59
1, 616821, Poly_aftertouch_c, 0, 62, 0
1, 616826, Note_on_c, 0, 85, 77
1, 616889, Note_off_c, 0, 85, 65
1, 616961, Note_off_c, 0, 63, 62
1, 616970, Note_on_c, 0, 62, 60
1, 616979, Note_on_c, 0, 83, 75
1, 617087, Note_off_c, 0, 62, 61
1, 617094, Note_off_c, 0, 83, 65
1, 617106, Note_on_c, 0, 80, 76
1, 617116, Note_on_c, 0, 61, 75
1, 617131, Note_off_c, 0, 80, 69
1, 617151, Note_off_c, 0, 61, 60
1, 617280, Note_on_c, 0, 57, 69
1, 617302, Note_on_c, 0, 75, 82
1, 617306, Note_off_c, 0, 57, 66
1, 617428, Note_on_c, 0, 74, 70
1, 617429, Note_off_c, 0, 75, 60
1, 617443, Note_on_c, 0, 51, 79
1, 617471, Note_off_c, 0, 51, 67
1, 617508, Note_off_c, 0, 74, 62
1, 617524, Note_on_c, 0, 75, 86
1, 617554, Note_on_c, 0, 71, 48
1, 617589, Note_off_c, 0, 71, 46
1, 617602, Note_on_c, 0, 32, 46
1, 617638, Note_off_c, 0, 32, 57
1, 617639, Note_on_c, 0, 73, 52
1, 617788, Note_on_c, 0, 78, 89
1, 617818, Note_on_c, 0, 71, 37
1, 617831, Note_off_c, 0, 73, 20
1, 617845, Note_on_c, 0, 51, 63
1, 617857, Control_c, 0, 64, 90
1, 617872, Control_c, 0, 64, 69
1, 617886, Control_c, 0, 64, 63
1, 617901, Control_c, 0, 64, 64
1, 617916, Control_c, 0, 64, 67
1, 617919, Note_off_c, 0, 71, 43
1, 617931, Control_c, 0, 64, 75
1, 617946, Control_c, 0, 64, 94
1, 617960, Control_c, 0, 64, 127
1, 618003, Note_on_c, 0, 59, 61
1, 618014, Note_off_c, 0, 78, 65
1, 618014, Note_off_c, 0, 51, 63
1, 618049, Note_on_c, 0, 77, 87
1, 618053, Note_off_c, 0, 59, 60
1, 618077, Note_off_c, 0, 75, 61
1, 618164, Note_on_c, 0, 68, 70
1, 618300, Note_on_c, 0, 75, 85
1, 618331, Note_on_c, 0, 66, 63
1, 618393, Note_off_c, 0, 68, 35
1, 618469, Note_off_c, 0, 77, 60
1, 618471, Note_on_c, 0, 63, 66
1, 618480, Note_off_c, 0, 66, 56
1, 618603, Note_off_c, 0, 75, 62
1, 618618, Note_on_c, 0, 71, 73
1, 618779, Note_off_c, 0, 63, 54
1, 618787, Note_on_c, 0, 64, 55
1, 618836, Note_on_c, 0, 59, 48
1, 618858, Control_c, 0, 64, 77
1, 618873, Control_c, 0, 64, 61
1, 618883, Note_on_c, 0, 73, 71
1, 618888, Control_c, 0, 64, 50
1, 618903, Control_c, 0, 64, 50
1, 618904, Note_on_c, 0, 70, 55
1, 618918, Control_c, 0, 64, 56
1, 618932, Control_c, 0, 64, 63
1, 618947, Control_c, 0, 64, 68
1, 618962, Control_c, 0, 64, 76
1, 618977, Control_c, 0, 64, 87
1, 618981, Note_off_c, 0, 64, 64
1, 618988, Note_off_c, 0, 59, 64
1, 618992, Control_c, 0, 64, 99
1, 619006, Control_c, 0, 64, 115
1, 619021, Control_c, 0, 64, 127
1, 619062, Note_on_c, 0, 75, 71
1, 619066, Note_off_c, 0, 71, 57
1, 619077, Note_off_c, 0, 70, 44
1, 619167, Note_on_c, 0, 49, 47
1, 619198, Note_off_c, 0, 73, 0
1, 619243, Poly_aftertouch_c, 0, 73, 127
1, 619252, Note_on_c, 0, 77, 69
1, 619268, Note_off_c, 0, 75, 56
1, 619275, Poly_aftertouch_c, 0, 73, 0
1, 619290, Note_off_c, 0, 49, 61
1, 619333, Poly_aftertouch_c, 0, 70, 127
1, 619369, Poly_aftertouch_c, 0, 70, 0
1, 619500, Note_off_c, 0, 77, 63
1, 619506, Note_on_c, 0, 75, 64
1, 619524, Note_on_c, 0, 70, 27
1, 619577, Control_c, 0, 64, 80
1, 619591, Control_c, 0, 64, 66
1, 619608, Control_c, 0, 64, 61
1, 619623, Note_on_c, 0, 32, 40
1, 619623, Control_c, 0, 64, 62
1, 619637, Control_c, 0, 64, 65
1, 619652, Control_c, 0, 64, 72
1, 619667, Control_c, 0, 64, 88
1, 619681, Control_c, 0, 64, 127
1, 619686, Note_off_c, 0, 70, 55
1, 619694, Note_off_c, 0, 32, 61
1, 619827, Note_on_c, 0, 71, 52
1, 619832, Note_on_c, 0, 51, 54
1, 619879, Note_off_c, 0, 51, 63
1, 620112, Note_on_c, 0, 70, 54
1, 620138, Note_off_c, 0, 71, 51
1, 620144, Note_on_c, 0, 63, 59
1, 620305, Note_off_c, 0, 63, 60
1, 620311, Note_on_c, 0, 62, 63
1, 620327, Poly_aftertouch_c, 0, 71, 127
1, 620410, Note_on_c, 0, 68, 52
1, 620419, Note_off_c, 0, 62, 59
1, 620436, Note_off_c, 0, 70, 48
1, 620451, Note_on_c, 0, 61, 60
1, 620536, Poly_aftertouch_c, 0, 71, 0
1, 620541, Note_off_c, 0, 61, 62
1, 620608, Note_on_c, 0, 59, 53
1, 620637, Control_c, 0, 64, 109
1, 620652, Control_c, 0, 64, 77
1, 620667, Control_c, 0, 64, 63
1, 620682, Control_c, 0, 64, 57
1, 620704, Control_c, 0, 64, 59
1, 620719, Control_c, 0, 64, 64
1, 620734, Control_c, 0, 64, 70
1, 620749, Control_c, 0, 64, 82
1, 620764, Control_c, 0, 64, 109
1, 620779, Control_c, 0, 64, 127
1, 620815, Note_on_c, 0, 51, 51
1, 620824, Note_off_c, 0, 59, 46
1, 620877, Note_on_c, 0, 70, 68
1, 620945, Note_off_c, 0, 68, 59
1, 620946, Note_off_c, 0, 75, 61
1, 620976, Note_on_c, 0, 44, 49
1, 621064, Note_off_c, 0, 51, 39
1, 621101, Note_off_c, 0, 44, 60
1, 621206, Note_on_c, 0, 73, 68
1, 621238, Note_on_c, 0, 68, 32
1, 621296, Note_off_c, 0, 70, 57
1, 621355, Note_off_c, 0, 73, 62
1, 621363, Note_on_c, 0, 71, 74
1, 621369, Note_off_c, 0, 68, 52
1, 621435, Note_on_c, 0, 58, 47
1, 621531, Note_on_c, 0, 70, 73
1, 621548, Note_off_c, 0, 71, 58
1, 621557, Note_on_c, 0, 66, 23
1, 621566, Note_off_c, 0, 58, 61
1, 621602, Note_off_c, 0, 66, 46
1, 621653, Note_on_c, 0, 59, 43
1, 621727, Note_on_c, 0, 68, 66
1, 621779, Control_c, 0, 64, 97
1, 621794, Control_c, 0, 64, 73
1, 621799, Note_off_c, 0, 70, 56
1, 621808, Control_c, 0, 64, 59
1, 621823, Control_c, 0, 64, 56
1, 621838, Control_c, 0, 64, 60
1, 621852, Control_c, 0, 64, 64
1, 621867, Control_c, 0, 64, 71
1, 621868, Note_off_c, 0, 59, 43
1, 621882, Control_c, 0, 64, 84
1, 621890, Note_on_c, 0, 49, 44
1, 621897, Control_c, 0, 64, 127
1, 621976, Note_on_c, 0, 70, 61
1, 622005, Note_off_c, 0, 68, 60
1, 622014, Note_on_c, 0, 44, 36
1, 622055, Note_off_c, 0, 49, 58
1, 622063, Note_off_c, 0, 44, 62
1, 622255, Note_on_c, 0, 73, 53
1, 622297, Note_on_c, 0, 66, 47
1, 622320, Control_c, 0, 64, 103
1, 622335, Control_c, 0, 64, 76
1, 622350, Control_c, 0, 64, 64
1, 622365, Control_c, 0, 64, 59
1, 622380, Control_c, 0, 64, 61
1, 622395, Control_c, 0, 64, 65
1, 622410, Control_c, 0, 64, 70
1, 622418, Note_on_c, 0, 44, 35
1, 622425, Control_c, 0, 64, 79
1, 622436, Note_on_c, 0, 37, 44
1, 622439, Control_c, 0, 64, 89
1, 622454, Control_c, 0, 64, 101
1, 622469, Control_c, 0, 64, 106
1, 622478, Note_off_c, 0, 37, 57
1, 622498, Note_off_c, 0, 44, 59
1, 622516, Note_off_c, 0, 66, 56
1, 622528, Control_c, 0, 64, 106
1, 622543, Control_c, 0, 64, 107
1, 622555, Note_off_c, 0, 70, 53
1, 622557, Note_on_c, 0, 65, 47
1, 622631, Control_c, 0, 64, 106
1, 622646, Control_c, 0, 64, 106
1, 622673, Note_on_c, 0, 71, 64
1, 622681, Note_off_c, 0, 73, 57
1, 622705, Control_c, 0, 64, 105
1, 622720, Control_c, 0, 64, 104
1, 622723, Note_on_c, 0, 51, 59
1, 622735, Control_c, 0, 64, 104
1, 622750, Control_c, 0, 64, 103
1, 622760, Note_off_c, 0, 65, 25
1, 622765, Control_c, 0, 64, 102
1, 622779, Control_c, 0, 64, 101
1, 622795, Control_c, 0, 64, 101
1, 622813, Note_on_c, 0, 66, 58
1, 622884, Note_off_c, 0, 51, 62
1, 622884, Control_c, 0, 64, 100
1, 622899, Control_c, 0, 64, 100
1, 622904, Note_on_c, 0, 53, 66
1, 622932, Note_on_c, 0, 65, 67
1, 622938, Note_off_c, 0, 71, 62
1, 623043, Note_on_c, 0, 55, 71
1, 623051, Note_off_c, 0, 53, 61
1, 623060, Note_on_c, 0, 70, 74
1, 623099, Note_off_c, 0, 65, 57
1, 623113, Control_c, 0, 64, 100
1, 623122, Note_off_c, 0, 66, 47
1, 623143, Control_c, 0, 64, 101
1, 623166, Note_off_c, 0, 55, 62
1, 623173, Note_on_c, 0, 56, 74
1, 623188, Control_c, 0, 64, 102
1, 623194, Note_on_c, 0, 71, 85
1, 623203, Note_off_c, 0, 70, 62
1, 623203, Control_c, 0, 64, 103
1, 623218, Control_c, 0, 64, 104
1, 623232, Control_c, 0, 64, 104
1, 623247, Control_c, 0, 64, 105
1, 623277, Control_c, 0, 64, 105
1, 623292, Control_c, 0, 64, 106
1, 623306, Control_c, 0, 64, 106
1, 623321, Control_c, 0, 64, 108
1, 623336, Control_c, 0, 64, 110
1, 623351, Control_c, 0, 64, 114
1, 623366, Control_c, 0, 64, 125
1, 623380, Control_c, 0, 64, 127
1, 623383, Note_on_c, 0, 58, 71
1, 623393, Note_on_c, 0, 49, 66
1, 623424, Note_off_c, 0, 56, 61
1, 623427, Note_on_c, 0, 70, 84
1, 623439, Control_c, 0, 64, 106
1, 623454, Control_c, 0, 64, 74
1, 623469, Control_c, 0, 64, 52
1, 623483, Note_off_c, 0, 71, 55
1, 623484, Control_c, 0, 64, 0
1, 623557, Note_off_c, 0, 58, 63
1, 623558, Control_c, 0, 64, 44
1, 623566, Note_on_c, 0, 59, 78
1, 623572, Control_c, 0, 64, 59
1, 623587, Control_c, 0, 64, 61
1, 623603, Control_c, 0, 64, 62
1, 623618, Control_c, 0, 64, 63
1, 623633, Control_c, 0, 64, 64
1, 623647, Control_c, 0, 64, 66
1, 623662, Control_c, 0, 64, 70
1, 623677, Control_c, 0, 64, 76
1, 623700, Control_c, 0, 64, 83
1, 623715, Control_c, 0, 64, 91
1, 623718, Note_on_c, 0, 60, 77
1, 623729, Control_c, 0, 64, 100
1, 623744, Control_c, 0, 64, 110
1, 623751, Note_on_c, 0, 68, 85
1, 623753, Note_off_c, 0, 59, 63
1, 623759, Control_c, 0, 64, 127
1, 623797, Note_off_c, 0, 60, 63
1, 623957, Note_on_c, 0, 61, 65
1, 624011, Control_c, 0, 64, 104
1, 624025, Control_c, 0, 64, 71
1, 624026, Note_on_c, 0, 67, 78
1, 624039, Note_on_c, 0, 64, 50
1, 624040, Control_c, 0, 64, 43
1, 624042, Note_off_c, 0, 70, 62
1, 624055, Control_c, 0, 64, 0
1, 624065, Note_off_c, 0, 68, 64
1, 624100, Control_c, 0, 64, 27
1, 624115, Control_c, 0, 64, 54
1, 624130, Control_c, 0, 64, 63
1, 624145, Control_c, 0, 64, 67
1, 624160, Control_c, 0, 64, 69
1, 624174, Control_c, 0, 64, 71
1, 624189, Control_c, 0, 64, 73
1, 624204, Control_c, 0, 64, 76
1, 624219, Control_c, 0, 64, 81
1, 624234, Control_c, 0, 64, 88
1, 624248, Note_on_c, 0, 58, 67
1, 624248, Control_c, 0, 64, 97
1, 624263, Control_c, 0, 64, 110
1, 624278, Control_c, 0, 64, 127
1, 624294, Note_off_c, 0, 49, 59
1, 624341, Note_off_c, 0, 61, 39
1, 624344, Note_on_c, 0, 76, 81
1, 624406, Note_off_c, 0, 67, 64
1, 624432, Note_on_c, 0, 49, 61
1, 624475, Note_off_c, 0, 58, 52
1, 624627, Note_off_c, 0, 49, 61
1, 624654, Note_on_c, 0, 58, 67
1, 624700, Note_on_c, 0, 75, 89
1, 624770, Note_off_c, 0, 64, 63
1, 624773, Note_on_c, 0, 66, 67
1, 624795, Note_off_c, 0, 76, 61
1, 624834, Note_off_c, 0, 58, 62
1, 624873, Note_off_c, 0, 66, 55
1, 624950, Note_on_c, 0, 67, 68
1, 624982, Control_c, 0, 64, 79
1, 624997, Control_c, 0, 64, 62
1, 625012, Control_c, 0, 64, 52
1, 625026, Control_c, 0, 64, 53
1, 625031, Note_on_c, 0, 73, 79
1, 625041, Control_c, 0, 64, 58
1, 625056, Control_c, 0, 64, 65
1, 625067, Note_off_c, 0, 75, 61
1, 625069, Note_off_c, 0, 67, 64
1, 625070, Control_c, 0, 64, 73
1, 625085, Control_c, 0, 64, 87
1, 625100, Control_c, 0, 64, 117
1, 625115, Control_c, 0, 64, 127
1, 625249, Note_on_c, 0, 70, 83
1, 625286, Note_on_c, 0, 54, 71
1, 625298, Note_off_c, 0, 73, 54
1, 625355, Note_off_c, 0, 54, 65
1, 625370, Note_on_c, 0, 55, 75
1, 625437, Note_on_c, 0, 69, 85
1, 625443, Note_off_c, 0, 70, 62
1, 625471, Note_off_c, 0, 55, 58
1, 625474, Note_on_c, 0, 56, 77
1, 625527, Note_off_c, 0, 56, 63
1, 625543, Note_on_c, 0, 57, 80
1, 625590, Note_off_c, 0, 57, 58
1, 625607, Note_on_c, 0, 68, 79
1, 625644, Note_off_c, 0, 69, 56
1, 625653, Note_on_c, 0, 42, 63
1, 625699, Note_on_c, 0, 49, 69
1, 625716, Control_c, 0, 64, 86
1, 625725, Note_off_c, 0, 42, 61
1, 625731, Control_c, 0, 64, 64
1, 625737, Note_on_c, 0, 52, 67
1, 625745, Control_c, 0, 64, 53
1, 625760, Control_c, 0, 64, 54
1, 625774, Note_on_c, 0, 66, 75
1, 625775, Control_c, 0, 64, 59
1, 625785, Note_on_c, 0, 58, 82
1, 625790, Control_c, 0, 64, 66
1, 625794, Note_on_c, 0, 64, 56
1, 625798, Note_off_c, 0, 68, 55
1, 625805, Control_c, 0, 64, 80
1, 625808, Note_on_c, 0, 56, 61
1, 625815, Note_off_c, 0, 64, 60
1, 625819, Note_off_c, 0, 49, 62
1, 625819, Control_c, 0, 64, 116
1, 625830, Note_off_c, 0, 66, 61
1, 625831, Note_off_c, 0, 56, 59
1, 625832, Note_off_c, 0, 52, 64
1, 625834, Control_c, 0, 64, 127
1, 625859, Note_off_c, 0, 58, 61
1, 625999, Note_on_c, 0, 78, 94
1, 626097, Note_on_c, 0, 58, 67
1, 626122, Note_on_c, 0, 59, 58
1, 626161, Note_off_c, 0, 59, 63
1, 626172, Note_off_c, 0, 58, 62
1, 626190, Note_on_c, 0, 60, 69
1, 626202, Note_on_c, 0, 59, 78
1, 626218, Note_off_c, 0, 78, 64
1, 626276, Note_off_c, 0, 59, 41
1, 626285, Note_on_c, 0, 61, 78
1, 626294, Note_off_c, 0, 60, 55
1, 626335, Note_on_c, 0, 77, 94
1, 626389, Note_on_c, 0, 63, 79
1, 626406, Note_off_c, 0, 61, 54
1, 626437, Note_off_c, 0, 77, 64
1, 626477, Note_off_c, 0, 63, 63
1, 626532, Note_on_c, 0, 76, 104
1, 626553, Control_c, 0, 64, 100
1, 626568, Control_c, 0, 64, 104
1, 626583, Control_c, 0, 64, 127
1, 626601, Note_off_c, 0, 76, 67
1, 626697, Note_on_c, 0, 66, 80
1, 626716, Note_on_c, 0, 59, 51
1, 626738, Note_off_c, 0, 59, 63
1, 626774, Note_off_c, 0, 66, 61
1, 626779, Note_on_c, 0, 75, 96
1, 626885, Note_on_c, 0, 67, 67
1, 626957, Note_off_c, 0, 67, 63
1, 626962, Control_c, 0, 64, 96
1, 626969, Note_on_c, 0, 58, 83
1, 626977, Control_c, 0, 64, 72
1, 626991, Control_c, 0, 64, 66
1, 627006, Control_c, 0, 64, 68
1, 627018, Note_off_c, 0, 75, 59
1, 627021, Control_c, 0, 64, 77
1, 627036, Control_c, 0, 64, 106
1, 627041, Note_on_c, 0, 72, 91
1, 627051, Control_c, 0, 64, 127
1, 627052, Note_on_c, 0, 68, 92
1, 627090, Note_off_c, 0, 58, 62
1, 627156, Note_on_c, 0, 53, 71
1, 627156, Note_off_c, 0, 68, 59
1, 627187, Note_on_c, 0, 73, 96
1, 627237, Note_on_c, 0, 43, 80
1, 627242, Note_off_c, 0, 72, 50
1, 627248, Note_off_c, 0, 53, 63
1, 627270, Note_off_c, 0, 43, 67
1, 627302, Note_on_c, 0, 75, 99
1, 627307, Note_off_c, 0, 73, 60
1, 627312, Note_on_c, 0, 69, 89
1, 627373, Note_off_c, 0, 69, 61
1, 627456, Control_c, 0, 64, 77
1, 627466, Note_on_c, 0, 34, 84
1, 627471, Control_c, 0, 64, 59
1, 627486, Control_c, 0, 64, 55
1, 627501, Control_c, 0, 64, 61
1, 627507, Note_on_c, 0, 70, 95
1, 627512, Note_on_c, 0, 73, 92
1, 627513, Note_off_c, 0, 34, 64
1, 627516, Control_c, 0, 64, 73
1, 627525, Note_off_c, 0, 75, 37
1, 627531, Control_c, 0, 64, 127
1, 627549, Note_on_c, 0, 74, 41
1, 627555, Note_off_c, 0, 70, 63
1, 627564, Note_off_c, 0, 73, 64
1, 627572, Note_off_c, 0, 74, 59
1, 627701, Note_on_c, 0, 53, 64
1, 627710, Note_on_c, 0, 58, 50
1, 627715, Note_on_c, 0, 61, 67
1, 627730, Note_on_c, 0, 73, 94
1, 627833, Note_on_c, 0, 82, 96
1, 627857, Note_on_c, 0, 64, 61
1, 627865, Note_off_c, 0, 73, 62
1, 627926, Note_off_c, 0, 64, 62
1, 627942, Note_off_c, 0, 61, 60
1, 627956, Note_off_c, 0, 58, 60
1, 627958, Note_on_c, 0, 73, 89
1, 627967, Note_off_c, 0, 82, 61
1, 628016, Note_on_c, 0, 61, 59
1, 628019, Note_on_c, 0, 65, 74
1, 628026, Note_on_c, 0, 58, 65
1, 628047, Note_off_c, 0, 65, 67
1, 628058, Note_on_c, 0, 80, 93
1, 628068, Note_off_c, 0, 73, 48
1, 628085, Note_off_c, 0, 53, 63
1, 628089, Note_off_c, 0, 61, 63
1, 628098, Note_off_c, 0, 58, 64
1, 628116, Note_off_c, 0, 80, 66
1, 628133, Note_on_c, 0, 81, 36
1, 628161, Note_on_c, 0, 79, 90
1, 628162, Note_off_c, 0, 81, 53
1, 628270, Note_on_c, 0, 78, 97
1, 628286, Note_off_c, 0, 79, 63
1, 628319, Poly_aftertouch_c, 0, 37, 127
1, 628335, Note_off_c, 0, 78, 65
1, 628357, Poly_aftertouch_c, 0, 39, 127
1, 628369, Control_c, 0, 64, 79
1, 628375, Note_on_c, 0, 44, 89
1, 628376, Note_on_c, 0, 32, 71
1, 628383, Poly_aftertouch_c, 0, 37, 0
1, 628384, Control_c, 0, 64, 63
1, 628399, Control_c, 0, 64, 59
1, 628414, Control_c, 0, 64, 63
1, 628421, Note_off_c, 0, 32, 63
1, 628425, Note_on_c, 0, 77, 88
1, 628426, Note_on_c, 0, 65, 95
1, 628428, Note_on_c, 0, 73, 95
1, 628429, Control_c, 0, 64, 72
1, 628431, Note_off_c, 0, 44, 65
1, 628436, Note_on_c, 0, 76, 82
1, 628437, Poly_aftertouch_c, 0, 39, 0
1, 628444, Control_c, 0, 64, 102
1, 628451, Note_off_c, 0, 65, 66
1, 628454, Note_off_c, 0, 76, 57
1, 628459, Control_c, 0, 64, 127
1, 628472, Note_off_c, 0, 77, 63
1, 628474, Note_off_c, 0, 73, 64
1, 628619, Note_on_c, 0, 75, 104
1, 628700, Note_on_c, 0, 67, 57
1, 628708, Note_on_c, 0, 65, 61
1, 628738, Note_on_c, 0, 85, 101
1, 628759, Note_off_c, 0, 65, 61
1, 628769, Note_off_c, 0, 75, 61
1, 628770, Note_off_c, 0, 67, 56
1, 628806, Note_on_c, 0, 68, 69
1, 628807, Note_off_c, 0, 85, 67
1, 628856, Note_off_c, 0, 68, 59
1, 628861, Note_on_c, 0, 69, 71
1, 628866, Note_on_c, 0, 77, 108
1, 628945, Note_off_c, 0, 69, 62
1, 628974, Note_on_c, 0, 70, 52
1, 628991, Note_on_c, 0, 84, 104
1, 629001, Note_off_c, 0, 70, 37
1, 629006, Note_on_c, 0, 71, 87
1, 629010, Note_on_c, 0, 69, 40
1, 629013, Note_off_c, 0, 77, 62
1, 629030, Note_off_c, 0, 69, 61
1, 629031, Note_off_c, 0, 71, 67
1, 629078, Poly_aftertouch_c, 0, 68, 0
1, 629113, Note_on_c, 0, 83, 100
1, 629141, Note_off_c, 0, 84, 66
1, 629219, Note_off_c, 0, 83, 60
1, 629299, Note_on_c, 0, 31, 85
1, 629299, Note_on_c, 0, 43, 92
1, 629311, Control_c, 0, 64, 73
1, 629323, Note_on_c, 0, 82, 98
1, 629325, Note_on_c, 0, 73, 101
1, 629326, Control_c, 0, 64, 62
1, 629331, Note_on_c, 0, 75, 84
1, 629340, Control_c, 0, 64, 64
1, 629343, Note_off_c, 0, 31, 63
1, 629349, Note_off_c, 0, 75, 71
1, 629355, Control_c, 0, 64, 74
1, 629358, Note_off_c, 0, 73, 64
1, 629360, Note_off_c, 0, 43, 64
1, 629370, Control_c, 0, 64, 127
1, 629379, Note_off_c, 0, 82, 65
1, 629569, Note_on_c, 0, 51, 70
1, 629642, Note_on_c, 0, 75, 100
1, 629644, Note_on_c, 0, 87, 95
1, 629659, Note_on_c, 0, 85, 80
1, 629706, Note_off_c, 0, 87, 62
1, 629719, Note_off_c, 0, 75, 49
1, 629747, Note_on_c, 0, 58, 75
1, 629767, Note_on_c, 0, 83, 75
1, 629776, Note_off_c, 0, 85, 60
1, 629782, Note_off_c, 0, 51, 64
1, 629801, Note_off_c, 0, 58, 64
1, 629898, Note_on_c, 0, 86, 92
1, 629902, Note_on_c, 0, 74, 93
1, 629910, Note_on_c, 0, 61, 79
1, 629925, Note_off_c, 0, 83, 64
1, 629944, Note_off_c, 0, 74, 66
1, 629961, Note_off_c, 0, 86, 65
1, 630019, Note_on_c, 0, 70, 81
1, 630083, Note_on_c, 0, 85, 93
1, 630084, Note_off_c, 0, 61, 58
1, 630085, Note_on_c, 0, 73, 95
1, 630095, Note_on_c, 0, 68, 73
1, 630113, Note_off_c, 0, 70, 59
1, 630114, Note_off_c, 0, 73, 65
1, 630126, Note_off_c, 0, 85, 61
1, 630226, Note_on_c, 0, 63, 81
1, 630246, Note_on_c, 0, 70, 99
1, 630249, Note_on_c, 0, 82, 85
1, 630249, Note_off_c, 0, 68, 62
1, 630274, Note_off_c, 0, 63, 64
1, 630282, Note_off_c, 0, 82, 56
1, 630303, Note_off_c, 0, 70, 57
1, 630389, Note_on_c, 0, 61, 90
1, 630395, Note_on_c, 0, 79, 92
1, 630401, Control_c, 0, 64, 91
1, 630403, Note_on_c, 0, 67, 89
1, 630416, Control_c, 0, 64, 85
1, 630424, Note_on_c, 0, 75, 22
1, 630431, Control_c, 0, 64, 90
1, 630432, Note_on_c, 0, 77, 54
1, 630450, Note_off_c, 0, 61, 61
1, 630452, Control_c, 0, 64, 107
1, 630467, Note_off_c, 0, 75, 39
1, 630467, Control_c, 0, 64, 127
1, 630518, Note_off_c, 0, 77, 0
1, 630535, Note_on_c, 0, 77, 31
1, 630536, Note_on_c, 0, 76, 78
1, 630539, Note_on_c, 0, 58, 76
1, 630610, Note_off_c, 0, 58, 62
1, 630636, Note_on_c, 0, 75, 85
1, 630637, Note_off_c, 0, 77, 60
1, 630643, Note_off_c, 0, 79, 65
1, 630646, Note_off_c, 0, 76, 65
1, 630660, Note_off_c, 0, 67, 64
1, 630670, Note_on_c, 0, 51, 83
1, 630676, Note_off_c, 0, 75, 61
1, 630800, Note_off_c, 0, 51, 61
1, 630810, Note_on_c, 0, 75, 93
1, 630815, Note_on_c, 0, 63, 92
1, 630841, Note_on_c, 0, 45, 46
1, 630844, Poly_aftertouch_c, 0, 73, 127
1, 630853, Control_c, 0, 64, 79
1, 630867, Control_c, 0, 64, 72
1, 630873, Poly_aftertouch_c, 0, 73, 0
1, 630882, Control_c, 0, 64, 77
1, 630893, Note_off_c, 0, 45, 55
1, 630897, Control_c, 0, 64, 96
1, 630911, Control_c, 0, 64, 127
1, 630936, Note_on_c, 0, 43, 76
1, 630953, Note_off_c, 0, 63, 63
1, 630955, Note_on_c, 0, 50, 71
1, 630974, Note_off_c, 0, 75, 63
1, 631010, Note_on_c, 0, 71, 19
1, 631016, Control_c, 0, 64, 71
1, 631027, Note_on_c, 0, 74, 91
1, 631031, Control_c, 0, 64, 57
1, 631034, Note_on_c, 0, 62, 86
1, 631041, Note_on_c, 0, 68, 15
1, 631045, Control_c, 0, 64, 54
1, 631052, Note_off_c, 0, 71, 53
1, 631060, Control_c, 0, 64, 60
1, 631075, Control_c, 0, 64, 67
1, 631078, Note_off_c, 0, 43, 64
1, 631078, Note_off_c, 0, 68, 50
1, 631090, Control_c, 0, 64, 80
1, 631103, Note_off_c, 0, 50, 63
1, 631105, Control_c, 0, 64, 127
1, 631219, Note_off_c, 0, 62, 0
1, 631253, Note_on_c, 0, 71, 77
1, 631254, Note_on_c, 0, 72, 80
1, 631257, Poly_aftertouch_c, 0, 62, 127
1, 631353, Poly_aftertouch_c, 0, 62, 0
1, 631370, Note_on_c, 0, 61, 75
1, 631381, Note_on_c, 0, 70, 86
1, 631432, Note_off_c, 0, 74, 60
1, 631445, Note_off_c, 0, 72, 60
1, 631459, Note_off_c, 0, 61, 62
1, 631482, Note_on_c, 0, 60, 70
1, 631493, Note_off_c, 0, 71, 55
1, 631496, Note_on_c, 0, 59, 68
1, 631498, Note_on_c, 0, 67, 90
1, 631520, Note_off_c, 0, 70, 66
1, 631543, Note_off_c, 0, 67, 66
1, 631556, Note_off_c, 0, 60, 57
1, 631597, Note_on_c, 0, 57, 53
1, 631600, Note_off_c, 0, 59, 39
1, 631606, Note_on_c, 0, 55, 57
1, 631640, Note_on_c, 0, 62, 91
1, 631663, Note_off_c, 0, 57, 64
1, 631668, Note_off_c, 0, 55, 58
1, 631756, Note_on_c, 0, 48, 75
1, 631762, Note_on_c, 0, 61, 91
1, 631796, Note_off_c, 0, 62, 60
1, 631839, Note_off_c, 0, 48, 62
1, 631847, Note_on_c, 0, 43, 68
1, 631864, Note_off_c, 0, 61, 63
1, 631907, Note_on_c, 0, 60, 95
1, 631921, Note_on_c, 0, 42, 82
1, 631952, Note_off_c, 0, 43, 63
1, 631969, Note_off_c, 0, 42, 63
1, 632030, Note_on_c, 0, 59, 91
1, 632059, Note_off_c, 0, 60, 57
1, 632177, Note_on_c, 0, 29, 89
1, 632177, Note_on_c, 0, 41, 93
1, 632187, Control_c, 0, 64, 75
1, 632202, Control_c, 0, 64, 34
1, 632207, Note_on_c, 0, 61, 91
1, 632209, Note_on_c, 0, 51, 90
1, 632213, Note_on_c, 0, 58, 78
1, 632217, Control_c, 0, 64, 24
1, 632232, Control_c, 0, 64, 50
1, 632237, Note_off_c, 0, 29, 62
1, 632242, Note_off_c, 0, 51, 65
1, 632244, Note_off_c, 0, 59, 64
1, 632247, Control_c, 0, 64, 61
1, 632249, Note_on_c, 0, 62, 44
1, 632253, Note_off_c, 0, 41, 64
1, 632262, Control_c, 0, 64, 72
1, 632271, Note_off_c, 0, 58, 64
1, 632271, Note_off_c, 0, 61, 64
1, 632277, Control_c, 0, 64, 109
1, 632280, Note_off_c, 0, 62, 65
1, 632291, Control_c, 0, 64, 127
1, 632450, Note_on_c, 0, 73, 83
1, 632488, Note_on_c, 0, 69, 48
1, 632495, Note_off_c, 0, 73, 58
1, 632512, Note_off_c, 0, 69, 57
1, 632547, Note_on_c, 0, 85, 99
1, 632551, Poly_aftertouch_c, 0, 61, 127
1, 632580, Poly_aftertouch_c, 0, 61, 0
1, 632601, Note_on_c, 0, 73, 41
1, 632628, Note_off_c, 0, 73, 53
1, 632644, Note_on_c, 0, 68, 68
1, 632660, Note_off_c, 0, 85, 63
1, 632674, Note_on_c, 0, 62, 30
1, 632715, Note_on_c, 0, 84, 98
1, 632715, Note_off_c, 0, 68, 62
1, 632759, Poly_aftertouch_c, 0, 61, 127
1, 632767, Note_on_c, 0, 58, 73
1, 632770, Note_on_c, 0, 67, 73
1, 632805, Poly_aftertouch_c, 0, 61, 0
1, 632831, Note_off_c, 0, 62, 27
1, 632842, Note_off_c, 0, 67, 63
1, 632845, Poly_aftertouch_c, 0, 74, 0
1, 632870, Note_on_c, 0, 83, 95
1, 632878, Control_c, 0, 64, 84
1, 632891, Note_on_c, 0, 65, 45
1, 632892, Control_c, 0, 64, 72
1, 632897, Note_off_c, 0, 58, 63
1, 632907, Control_c, 0, 64, 73
1, 632917, Note_off_c, 0, 65, 53
1, 632922, Control_c, 0, 64, 83
1, 632937, Control_c, 0, 64, 127
1, 633015, Note_on_c, 0, 82, 102
1, 633024, Note_on_c, 0, 63, 47
1, 633040, Note_off_c, 0, 84, 62
1, 633049, Note_off_c, 0, 63, 58
1, 633064, Note_on_c, 0, 78, 42
1, 633090, Note_off_c, 0, 78, 49
1, 633141, Note_on_c, 0, 54, 67
1, 633144, Note_off_c, 0, 83, 62
1, 633162, Note_on_c, 0, 77, 89
1, 633173, Note_off_c, 0, 82, 66
1, 633197, Note_off_c, 0, 77, 63
1, 633262, Note_on_c, 0, 53, 71
1, 633298, Note_off_c, 0, 54, 63
1, 633375, Note_on_c, 0, 73, 93
1, 633384, Note_on_c, 0, 61, 90
1, 633397, Control_c, 0, 64, 89
1, 633412, Control_c, 0, 64, 64
1, 633427, Control_c, 0, 64, 43
1, 633449, Control_c, 0, 64, 45
1, 633456, Note_on_c, 0, 52, 76
1, 633463, Control_c, 0, 64, 56
1, 633478, Control_c, 0, 64, 65
1, 633479, Note_off_c, 0, 53, 64
1, 633493, Control_c, 0, 64, 75
1, 633508, Control_c, 0, 64, 99
1, 633523, Control_c, 0, 64, 127
1, 633534, Note_on_c, 0, 71, 76
1, 633575, Note_off_c, 0, 52, 63
1, 633614, Note_on_c, 0, 51, 74
1, 633639, Note_off_c, 0, 61, 49
1, 633672, Note_off_c, 0, 51, 65
1, 633675, Note_on_c, 0, 70, 89
1, 633717, Note_off_c, 0, 73, 59
1, 633774, Note_off_c, 0, 71, 47
1, 633885, Note_on_c, 0, 30, 72
1, 633922, Control_c, 0, 64, 101
1, 633933, Note_on_c, 0, 73, 87
1, 633937, Control_c, 0, 64, 63
1, 633946, Note_on_c, 0, 61, 68
1, 633952, Control_c, 0, 64, 0
1, 633964, Note_on_c, 0, 72, 31
1, 634001, Note_off_c, 0, 72, 51
1, 634012, Control_c, 0, 64, 41
1, 634021, Note_off_c, 0, 70, 66
1, 634027, Control_c, 0, 64, 64
1, 634035, Note_off_c, 0, 30, 64
1, 634042, Control_c, 0, 64, 73
1, 634057, Control_c, 0, 64, 84
1, 634072, Control_c, 0, 64, 95
1, 634086, Control_c, 0, 64, 105
1, 634101, Control_c, 0, 64, 127
1, 634108, Note_on_c, 0, 49, 78
1, 634134, Note_off_c, 0, 49, 67
1, 634155, Note_off_c, 0, 61, 62
1, 634186, Note_on_c, 0, 70, 83
1, 634297, Note_on_c, 0, 61, 59
1, 634375, Note_on_c, 0, 69, 82
1, 634441, Note_off_c, 0, 61, 60
1, 634469, Note_on_c, 0, 60, 70
1, 634530, Poly_aftertouch_c, 0, 71, 127
1, 634536, Note_off_c, 0, 70, 26
1, 634555, Note_on_c, 0, 68, 85
1, 634590, Note_off_c, 0, 69, 64
1, 634606, Note_off_c, 0, 60, 60
1, 634614, Note_on_c, 0, 59, 65
1, 634646, Poly_aftertouch_c, 0, 71, 0
1, 634730, Control_c, 0, 64, 81
1, 634745, Control_c, 0, 64, 58
1, 634757, Note_on_c, 0, 58, 67
1, 634760, Control_c, 0, 64, 30
1, 634776, Control_c, 0, 64, 32
1, 634787, Note_off_c, 0, 68, 55
1, 634791, Control_c, 0, 64, 45
1, 634792, Note_on_c, 0, 66, 66
1, 634798, Note_off_c, 0, 59, 62
1, 634806, Control_c, 0, 64, 59
1, 634821, Control_c, 0, 64, 66
1, 634822, Note_off_c, 0, 58, 64
1, 634835, Control_c, 0, 64, 75
1, 634850, Control_c, 0, 64, 88
1, 634861, Note_off_c, 0, 73, 65
1, 634865, Control_c, 0, 64, 107
1, 634870, Note_off_c, 0, 66, 63
1, 634880, Control_c, 0, 64, 127
1, 635005, Note_on_c, 0, 49, 26
1, 635026, Note_on_c, 0, 46, 54
1, 635096, Note_on_c, 0, 61, 68
1, 635115, Note_on_c, 0, 58, 59
1, 635189, Note_on_c, 0, 44, 51
1, 635218, Note_off_c, 0, 46, 37
1, 635302, Note_off_c, 0, 58, 61
1, 635378, Note_on_c, 0, 42, 48
1, 635435, Control_c, 0, 64, 81
1, 635442, Note_on_c, 0, 57, 57
1, 635450, Control_c, 0, 64, 62
1, 635452, Note_off_c, 0, 44, 26
1, 635465, Control_c, 0, 64, 37
1, 635479, Control_c, 0, 64, 31
1, 635494, Control_c, 0, 64, 40
1, 635509, Control_c, 0, 64, 55
1, 635524, Control_c, 0, 64, 62
1, 635539, Control_c, 0, 64, 66
1, 635553, Control_c, 0, 64, 69
1, 635568, Control_c, 0, 64, 72
1, 635571, Note_off_c, 0, 42, 61
1, 635584, Control_c, 0, 64, 75
1, 635599, Control_c, 0, 64, 77
1, 635614, Control_c, 0, 64, 82
1, 635629, Control_c, 0, 64, 87
1, 635644, Control_c, 0, 64, 95
1, 635658, Control_c, 0, 64, 107
1, 635681, Control_c, 0, 64, 127
1, 635720, Note_on_c, 0, 41, 42
1, 635799, Control_c, 0, 64, 94
1, 635814, Control_c, 0, 64, 72
1, 635829, Control_c, 0, 64, 62
1, 635844, Control_c, 0, 64, 58
1, 635858, Control_c, 0, 64, 61
1, 635873, Control_c, 0, 64, 64
1, 635888, Control_c, 0, 64, 67
1, 635903, Control_c, 0, 64, 72
1, 635909, Note_on_c, 0, 56, 54
1, 635917, Control_c, 0, 64, 78
1, 635932, Control_c, 0, 64, 82
1, 635947, Control_c, 0, 64, 85
1, 635962, Control_c, 0, 64, 87
1, 635977, Control_c, 0, 64, 88
1, 635991, Control_c, 0, 64, 89
1, 636006, Control_c, 0, 64, 90
1, 636021, Control_c, 0, 64, 90
1, 636033, Note_off_c, 0, 41, 36
1, 636036, Control_c, 0, 64, 92
1, 636051, Control_c, 0, 64, 95
1, 636052, Note_off_c, 0, 57, 62
1, 636059, Note_off_c, 0, 61, 63
1, 636065, Control_c, 0, 64, 98
1, 636080, Control_c, 0, 64, 100
1, 636090, Note_off_c, 0, 49, 39
1, 636095, Control_c, 0, 64, 101
1, 636170, Control_c, 0, 64, 100
1, 636175, Note_on_c, 0, 40, 47
1, 636199, Control_c, 0, 64, 100
1, 636229, Control_c, 0, 64, 99
1, 636244, Control_c, 0, 64, 98
1, 636263, Note_off_c, 0, 40, 53
1, 636332, Control_c, 0, 64, 98
1, 636347, Control_c, 0, 64, 97
1, 636362, Control_c, 0, 64, 96
1, 636378, Control_c, 0, 64, 96
1, 636393, Control_c, 0, 64, 95
1, 636407, Control_c, 0, 64, 95
1, 636444, Control_c, 0, 64, 94
1, 636474, Control_c, 0, 64, 93
1, 636489, Control_c, 0, 64, 92
1, 636518, Control_c, 0, 64, 92
1, 636607, Control_c, 0, 64, 91
1, 636622, Control_c, 0, 64, 91
1, 636637, Control_c, 0, 64, 90
1, 636652, Control_c, 0, 64, 90
1, 636667, Control_c, 0, 64, 89
1, 636696, Control_c, 0, 64, 89
1, 636725, Control_c, 0, 64, 88
1, 636740, Control_c, 0, 64, 88
1, 636755, Control_c, 0, 64, 87
1, 636770, Control_c, 0, 64, 87
1, 636787, Note_on_c, 0, 40, 34
1, 636809, Note_on_c, 0, 48, 24
1, 636829, Control_c, 0, 64, 86
1, 636844, Control_c, 0, 64, 78
1, 636852, Note_on_c, 0, 60, 46
1, 636859, Control_c, 0, 64, 67
1, 636874, Control_c, 0, 64, 57
1, 636876, Note_on_c, 0, 55, 35
1, 636888, Control_c, 0, 64, 43
1, 636903, Control_c, 0, 64, 35
1, 636933, Control_c, 0, 64, 39
1, 636933, Note_off_c, 0, 56, 57
1, 636948, Control_c, 0, 64, 48
1, 636963, Control_c, 0, 64, 55
1, 636977, Control_c, 0, 64, 59
1, 636992, Control_c, 0, 64, 61
1, 636998, Note_off_c, 0, 48, 59
1, 637007, Control_c, 0, 64, 62
1, 637009, Note_off_c, 0, 40, 55
1, 637022, Control_c, 0, 64, 63
1, 637037, Control_c, 0, 64, 64
1, 637052, Control_c, 0, 64, 65
1, 637067, Control_c, 0, 64, 67
1, 637081, Control_c, 0, 64, 69
1, 637096, Control_c, 0, 64, 70
1, 637111, Control_c, 0, 64, 72
1, 637125, Control_c, 0, 64, 74
1, 637140, Control_c, 0, 64, 76
1, 637155, Control_c, 0, 64, 78
1, 637170, Control_c, 0, 64, 79
1, 637193, Control_c, 0, 64, 81
1, 637208, Control_c, 0, 64, 82
1, 637223, Control_c, 0, 64, 83
1, 637237, Control_c, 0, 64, 83
1, 637252, Control_c, 0, 64, 84
1, 637267, Control_c, 0, 64, 85
1, 637282, Control_c, 0, 64, 85
1, 637326, Control_c, 0, 64, 86
1, 637341, Control_c, 0, 64, 87
1, 637356, Control_c, 0, 64, 89
1, 637362, Note_off_c, 0, 60, 24
1, 637371, Control_c, 0, 64, 92
1, 637381, Note_on_c, 0, 59, 32
1, 637386, Control_c, 0, 64, 95
1, 637401, Control_c, 0, 64, 99
1, 637416, Control_c, 0, 64, 105
1, 637430, Control_c, 0, 64, 113
1, 637445, Control_c, 0, 64, 127
1, 637512, Note_off_c, 0, 55, 39
1, 637558, Note_on_c, 0, 57, 48
1, 637703, Note_off_c, 0, 57, 53
1, 637703, Note_off_c, 0, 59, 19
1, 637742, Note_on_c, 0, 40, 38
1, 637755, Note_on_c, 0, 28, 37
1, 637771, Note_on_c, 0, 55, 36
1, 637844, Note_off_c, 0, 28, 56
1, 637857, Note_off_c, 0, 40, 49
1, 637963, Note_off_c, 0, 55, 35
1, 637981, Note_on_c, 0, 52, 46
1, 638103, Note_off_c, 0, 52, 60
1, 638195, Note_on_c, 0, 47, 45
1, 638279, Note_off_c, 0, 47, 60
1, 638355, Control_c, 0, 64, 109
1, 638370, Control_c, 0, 64, 77
1, 638381, Note_on_c, 0, 48, 53
1, 638384, Control_c, 0, 64, 70
1, 638414, Control_c, 0, 64, 72
1, 638429, Control_c, 0, 64, 80
1, 638444, Control_c, 0, 64, 98
1, 638459, Control_c, 0, 64, 127
1, 638474, Note_off_c, 0, 48, 63
1, 638596, Note_on_c, 0, 59, 52
1, 638721, Note_off_c, 0, 59, 55
1, 638760, Note_on_c, 0, 57, 54
1, 638912, Control_c, 0, 64, 110
1, 638927, Control_c, 0, 64, 78
1, 638934, Note_on_c, 0, 28, 37
1, 638936, Note_on_c, 0, 55, 59
1, 638942, Control_c, 0, 64, 64
1, 638952, Note_on_c, 0, 40, 36
1, 638956, Control_c, 0, 64, 61
1, 638971, Control_c, 0, 64, 63
1, 638986, Control_c, 0, 64, 66
1, 639000, Control_c, 0, 64, 72
1, 639015, Control_c, 0, 64, 83
1, 639030, Control_c, 0, 64, 99
1, 639043, Note_off_c, 0, 57, 20
1, 639045, Control_c, 0, 64, 114
1, 639060, Control_c, 0, 64, 119
1, 639073, Note_off_c, 0, 28, 60
1, 639074, Control_c, 0, 64, 117
1, 639077, Note_off_c, 0, 55, 57
1, 639094, Note_on_c, 0, 52, 59
1, 639105, Control_c, 0, 64, 119
1, 639120, Control_c, 0, 64, 127
1, 639122, Note_off_c, 0, 40, 37
1, 639261, Note_on_c, 0, 47, 53
1, 639349, Note_off_c, 0, 52, 29
1, 639361, Note_off_c, 0, 47, 55
1, 639454, Note_on_c, 0, 48, 52
1, 639468, Control_c, 0, 64, 88
1, 639482, Control_c, 0, 64, 70
1, 639497, Control_c, 0, 64, 62
1, 639526, Control_c, 0, 64, 64
1, 639541, Control_c, 0, 64, 69
1, 639556, Control_c, 0, 64, 77
1, 639571, Control_c, 0, 64, 87
1, 639583, Note_off_c, 0, 48, 64
1, 639587, Control_c, 0, 64, 99
1, 639602, Control_c, 0, 64, 102
1, 639607, Note_on_c, 0, 59, 44
1, 639631, Control_c, 0, 64, 101
1, 639661, Control_c, 0, 64, 102
1, 639676, Control_c, 0, 64, 105
1, 639691, Control_c, 0, 64, 109
1, 639705, Control_c, 0, 64, 110
1, 639720, Control_c, 0, 64, 111
1, 639762, Note_off_c, 0, 59, 58
1, 639794, Control_c, 0, 64, 112
1, 639795, Note_on_c, 0, 57, 53
1, 639809, Control_c, 0, 64, 112
1, 639824, Control_c, 0, 64, 115
1, 639839, Control_c, 0, 64, 119
1, 639854, Control_c, 0, 64, 127
1, 639961, Note_off_c, 0, 57, 59
1, 639981, Note_on_c, 0, 55, 55
1, 639994, Note_on_c, 0, 40, 36
1, 640014, Note_on_c, 0, 28, 43
1, 640031, Control_c, 0, 64, 93
1, 640046, Control_c, 0, 64, 70
1, 640061, Control_c, 0, 64, 62
1, 640076, Control_c, 0, 64, 59
1, 640091, Control_c, 0, 64, 62
1, 640105, Control_c, 0, 64, 66
1, 640120, Control_c, 0, 64, 73
1, 640135, Control_c, 0, 64, 84
1, 640140, Note_on_c, 0, 52, 61
1, 640149, Control_c, 0, 64, 99
1, 640164, Control_c, 0, 64, 111
1, 640187, Control_c, 0, 64, 112
1, 640190, Note_off_c, 0, 55, 35
1, 640202, Control_c, 0, 64, 112
1, 640250, Note_off_c, 0, 28, 57
1, 640305, Control_c, 0, 64, 112
1, 640334, Note_on_c, 0, 46, 58
1, 640335, Control_c, 0, 64, 113
1, 640343, Note_off_c, 0, 40, 39
1, 640410, Control_c, 0, 64, 114
1, 640413, Note_off_c, 0, 52, 48
1, 640440, Control_c, 0, 64, 115
1, 640514, Control_c, 0, 64, 115
1, 640528, Control_c, 0, 64, 117
1, 640543, Control_c, 0, 64, 120
1, 640558, Control_c, 0, 64, 125
1, 640572, Control_c, 0, 64, 127
1, 640617, Note_on_c, 0, 47, 65
1, 640632, Control_c, 0, 64, 96
1, 640647, Control_c, 0, 64, 76
1, 640659, Note_off_c, 0, 46, 50
1, 640662, Control_c, 0, 64, 64
1, 640677, Control_c, 0, 64, 57
1, 640692, Control_c, 0, 64, 56
1, 640707, Control_c, 0, 64, 60
1, 640721, Control_c, 0, 64, 64
1, 640736, Control_c, 0, 64, 67
1, 640751, Control_c, 0, 64, 72
1, 640766, Control_c, 0, 64, 77
1, 640780, Control_c, 0, 64, 81
1, 640795, Control_c, 0, 64, 85
1, 640810, Control_c, 0, 64, 88
1, 640825, Control_c, 0, 64, 92
1, 640828, Note_on_c, 0, 61, 61
1, 640840, Control_c, 0, 64, 97
1, 640854, Control_c, 0, 64, 105
1, 640867, Note_off_c, 0, 47, 62
1, 640869, Control_c, 0, 64, 119
1, 640884, Control_c, 0, 64, 127
1, 641004, Note_on_c, 0, 57, 58
1, 641162, Note_on_c, 0, 55, 66
1, 641168, Note_on_c, 0, 40, 48
1, 641188, Note_on_c, 0, 28, 43
1, 641295, Note_off_c, 0, 28, 58
1, 641322, Note_on_c, 0, 52, 64
1, 641333, Note_off_c, 0, 40, 60
1, 641437, Note_off_c, 0, 61, 14
1, 641481, Note_on_c, 0, 46, 60
1, 641537, Note_off_c, 0, 52, 59
1, 641662, Control_c, 0, 64, 90
1, 641663, Note_on_c, 0, 47, 65
1, 641684, Control_c, 0, 64, 73
1, 641699, Control_c, 0, 64, 67
1, 641728, Control_c, 0, 64, 71
1, 641743, Control_c, 0, 64, 79
1, 641758, Control_c, 0, 64, 93
1, 641763, Note_off_c, 0, 46, 23
1, 641773, Control_c, 0, 64, 127
1, 641821, Note_off_c, 0, 47, 63
1, 641827, Note_on_c, 0, 61, 66
1, 641895, Note_off_c, 0, 57, 41
1, 641915, Note_off_c, 0, 55, 41
1, 641986, Note_on_c, 0, 57, 68
1, 642129, Control_c, 0, 64, 97
1, 642140, Note_on_c, 0, 55, 71
1, 642140, Note_on_c, 0, 28, 53
1, 642143, Note_on_c, 0, 40, 48
1, 642144, Control_c, 0, 64, 72
1, 642159, Control_c, 0, 64, 60
1, 642173, Control_c, 0, 64, 51
1, 642188, Control_c, 0, 64, 54
1, 642203, Control_c, 0, 64, 61
1, 642206, Note_off_c, 0, 61, 54
1, 642218, Control_c, 0, 64, 66
1, 642233, Control_c, 0, 64, 72
1, 642248, Control_c, 0, 64, 81
1, 642263, Control_c, 0, 64, 90
1, 642278, Control_c, 0, 64, 100
1, 642278, Note_on_c, 0, 52, 72
1, 642288, Note_off_c, 0, 28, 62
1, 642292, Control_c, 0, 64, 107
1, 642307, Control_c, 0, 64, 115
1, 642317, Note_off_c, 0, 55, 52
1, 642322, Control_c, 0, 64, 127
1, 642325, Note_off_c, 0, 40, 61
1, 642349, Note_off_c, 0, 57, 36
1, 642433, Note_on_c, 0, 46, 65
1, 642588, Note_off_c, 0, 46, 57
1, 642596, Control_c, 0, 64, 96
1, 642596, Note_on_c, 0, 47, 76
1, 642611, Control_c, 0, 64, 76
1, 642625, Control_c, 0, 64, 69
1, 642655, Control_c, 0, 64, 74
1, 642670, Control_c, 0, 64, 87
1, 642685, Control_c, 0, 64, 125
1, 642699, Control_c, 0, 64, 127
1, 642723, Note_off_c, 0, 47, 63
1, 642760, Note_on_c, 0, 61, 72
1, 642774, Poly_aftertouch_c, 0, 55, 127
1, 642867, Note_off_c, 0, 61, 55
1, 642889, Poly_aftertouch_c, 0, 55, 0
1, 642904, Note_on_c, 0, 57, 68
1, 642989, Note_off_c, 0, 52, 39
1, 643097, Note_on_c, 0, 28, 65
1, 643099, Note_on_c, 0, 40, 65
1, 643101, Control_c, 0, 64, 82
1, 643104, Note_on_c, 0, 55, 75
1, 643115, Control_c, 0, 64, 58
1, 643130, Control_c, 0, 64, 0
1, 643182, Control_c, 0, 64, 30
1, 643197, Control_c, 0, 64, 56
1, 643212, Control_c, 0, 64, 64
1, 643227, Control_c, 0, 64, 70
1, 643240, Note_off_c, 0, 57, 0
1, 643242, Control_c, 0, 64, 77
1, 643256, Control_c, 0, 64, 84
1, 643271, Control_c, 0, 64, 95
1, 643276, Poly_aftertouch_c, 0, 57, 127
1, 643279, Note_on_c, 0, 52, 75
1, 643286, Control_c, 0, 64, 127
1, 643328, Poly_aftertouch_c, 0, 57, 0
1, 643364, Note_off_c, 0, 40, 63
1, 643374, Note_off_c, 0, 28, 61
1, 643416, Note_off_c, 0, 55, 35
1, 643457, Note_on_c, 0, 45, 81
1, 643514, Note_off_c, 0, 45, 64
1, 643515, Note_off_c, 0, 52, 67
1, 643772, Note_on_c, 0, 46, 71
1, 643805, Control_c, 0, 64, 70
1, 643818, Note_on_c, 0, 62, 78
1, 643820, Control_c, 0, 64, 0
1, 643879, Control_c, 0, 64, 46
1, 643894, Control_c, 0, 64, 63
1, 643909, Control_c, 0, 64, 73
1, 643932, Control_c, 0, 64, 91
1, 643946, Control_c, 0, 64, 127
1, 643959, Note_off_c, 0, 46, 63
1, 644045, Note_on_c, 0, 60, 62
1, 644196, Note_on_c, 0, 79, 74
1, 644221, Note_off_c, 0, 79, 69
1, 644232, Note_on_c, 0, 58, 70
1, 644242, Note_off_c, 0, 62, 59
1, 644303, Note_off_c, 0, 60, 38
1, 644362, Note_on_c, 0, 55, 69
1, 644525, Note_on_c, 0, 50, 70
1, 644534, Note_on_c, 0, 28, 62
1, 644537, Note_on_c, 0, 40, 72
1, 644757, Note_off_c, 0, 28, 61
1, 644791, Note_off_c, 0, 40, 62
1, 644798, Note_on_c, 0, 62, 66
1, 644847, Note_off_c, 0, 58, 47
1, 644871, Note_off_c, 0, 50, 38
1, 644901, Note_off_c, 0, 55, 36
1, 644922, Note_on_c, 0, 60, 71
1, 645029, Note_on_c, 0, 58, 77
1, 645029, Note_off_c, 0, 62, 23
1, 645050, Control_c, 0, 64, 79
1, 645065, Control_c, 0, 64, 63
1, 645080, Control_c, 0, 64, 58
1, 645087, Note_off_c, 0, 60, 61
1, 645094, Control_c, 0, 64, 60
1, 645109, Control_c, 0, 64, 63
1, 645116, Note_on_c, 0, 46, 73
1, 645124, Control_c, 0, 64, 69
1, 645139, Note_on_c, 0, 55, 72
1, 645139, Control_c, 0, 64, 85
1, 645142, Note_off_c, 0, 46, 66
1, 645144, Note_off_c, 0, 58, 56
1, 645154, Control_c, 0, 64, 127
1, 645259, Note_on_c, 0, 50, 70
1, 645372, Note_on_c, 0, 76, 88
1, 645396, Note_off_c, 0, 76, 69
1, 645426, Note_on_c, 0, 58, 6
1, 645433, Note_off_c, 0, 50, 58
1, 645552, Note_on_c, 0, 62, 70
1, 645579, Note_off_c, 0, 58, 41
1, 645726, Note_on_c, 0, 28, 65
1, 645726, Note_on_c, 0, 40, 68
1, 645756, Note_off_c, 0, 40, 65
1, 645761, Note_off_c, 0, 28, 63
1, 645762, Note_on_c, 0, 60, 68
1, 645765, Note_off_c, 0, 55, 20
1, 645984, Note_on_c, 0, 58, 75
1, 646005, Note_off_c, 0, 62, 50
1, 646047, Note_off_c, 0, 60, 60
1, 646092, Note_on_c, 0, 55, 68
1, 646096, Control_c, 0, 64, 115
1, 646111, Control_c, 0, 64, 73
1, 646126, Control_c, 0, 64, 64
1, 646132, Note_off_c, 0, 58, 55
1, 646140, Control_c, 0, 64, 63
1, 646155, Control_c, 0, 64, 64
1, 646177, Control_c, 0, 64, 69
1, 646191, Note_on_c, 0, 46, 72
1, 646191, Control_c, 0, 64, 90
1, 646199, Note_on_c, 0, 50, 75
1, 646206, Control_c, 0, 64, 127
1, 646219, Note_off_c, 0, 46, 65
1, 646308, Note_off_c, 0, 50, 61
1, 646329, Note_on_c, 0, 62, 72
1, 646389, Poly_aftertouch_c, 0, 58, 0
1, 646437, Note_on_c, 0, 72, 88
1, 646455, Note_off_c, 0, 72, 74
1, 646469, Note_on_c, 0, 60, 71
1, 646477, Note_off_c, 0, 55, 41
1, 646526, Note_off_c, 0, 62, 55
1, 646589, Note_on_c, 0, 58, 79
1, 646749, Note_off_c, 0, 60, 23
1, 646752, Note_on_c, 0, 55, 76
1, 646770, Note_on_c, 0, 28, 70
1, 646770, Note_on_c, 0, 40, 73
1, 646771, Control_c, 0, 64, 79
1, 646786, Control_c, 0, 64, 33
1, 646792, Note_off_c, 0, 58, 62
1, 646801, Control_c, 0, 64, 0
1, 646845, Control_c, 0, 64, 59
1, 646860, Control_c, 0, 64, 69
1, 646875, Control_c, 0, 64, 88
1, 646889, Control_c, 0, 64, 127
1, 646928, Note_on_c, 0, 35, 21
1, 646943, Note_off_c, 0, 28, 62
1, 646960, Note_off_c, 0, 40, 62
1, 646961, Note_off_c, 0, 35, 0
1, 646971, Note_on_c, 0, 50, 75
1, 646978, Note_off_c, 0, 55, 63
1, 646978, Poly_aftertouch_c, 0, 35, 0
1, 647059, Note_off_c, 0, 50, 62
1, 647097, Note_on_c, 0, 64, 86
1, 647149, Control_c, 0, 64, 97
1, 647163, Control_c, 0, 64, 54
1, 647178, Control_c, 0, 64, 0
1, 647184, Note_on_c, 0, 45, 85
1, 647187, Note_on_c, 0, 33, 77
1, 647220, Note_off_c, 0, 33, 66
1, 647228, Note_off_c, 0, 45, 63
1, 647238, Control_c, 0, 64, 62
1, 647253, Control_c, 0, 64, 81
1, 647260, Note_on_c, 0, 62, 75
1, 647268, Control_c, 0, 64, 127
1, 647324, Note_off_c, 0, 64, 49
1, 647366, Note_on_c, 0, 60, 75
1, 647408, Note_off_c, 0, 62, 53
1, 647446, Note_on_c, 0, 69, 96
1, 647461, Note_on_c, 0, 57, 80
1, 647467, Note_off_c, 0, 69, 69
1, 647482, Note_off_c, 0, 60, 64
1, 647542, Note_off_c, 0, 57, 64
1, 647568, Note_on_c, 0, 52, 70
1, 647615, Note_off_c, 0, 52, 62
1, 647715, Note_on_c, 0, 52, 82
1, 647720, Control_c, 0, 64, 101
1, 647721, Note_on_c, 0, 40, 72
1, 647735, Control_c, 0, 64, 67
1, 647750, Control_c, 0, 64, 41
1, 647765, Control_c, 0, 64, 17
1, 647780, Control_c, 0, 64, 38
1, 647794, Control_c, 0, 64, 58
1, 647798, Note_on_c, 0, 67, 77
1, 647809, Control_c, 0, 64, 67
1, 647824, Control_c, 0, 64, 82
1, 647838, Control_c, 0, 64, 127
1, 647900, Note_on_c, 0, 66, 77
1, 647931, Note_off_c, 0, 67, 60
1, 647995, Note_on_c, 0, 64, 76
1, 648019, Note_off_c, 0, 66, 48
1, 648031, Control_c, 0, 64, 89
1, 648046, Note_off_c, 0, 52, 63
1, 648046, Control_c, 0, 64, 64
1, 648060, Control_c, 0, 64, 24
1, 648072, Note_off_c, 0, 64, 62
1, 648075, Control_c, 0, 64, 22
1, 648080, Note_on_c, 0, 60, 73
1, 648090, Control_c, 0, 64, 41
1, 648093, Note_on_c, 0, 45, 84
1, 648105, Control_c, 0, 64, 59
1, 648117, Note_off_c, 0, 60, 65
1, 648120, Control_c, 0, 64, 68
1, 648124, Note_off_c, 0, 40, 55
1, 648135, Control_c, 0, 64, 86
1, 648139, Note_off_c, 0, 45, 66
1, 648150, Control_c, 0, 64, 127
1, 648166, Note_on_c, 0, 57, 63
1, 648171, Note_on_c, 0, 55, 66
1, 648192, Note_off_c, 0, 55, 61
1, 648207, Note_off_c, 0, 57, 65
1, 648302, Note_on_c, 0, 65, 98
1, 648307, Note_on_c, 0, 71, 81
1, 648338, Note_off_c, 0, 65, 65
1, 648415, Note_on_c, 0, 69, 90
1, 648454, Note_off_c, 0, 71, 58
1, 648512, Note_off_c, 0, 69, 59
1, 648540, Note_on_c, 0, 67, 93
1, 648561, Note_on_c, 0, 41, 71
1, 648564, Note_on_c, 0, 29, 74
1, 648571, Note_on_c, 0, 40, 79
1, 648612, Note_off_c, 0, 67, 63
1, 648637, Note_on_c, 0, 64, 82
1, 648643, Note_off_c, 0, 41, 64
1, 648663, Poly_aftertouch_c, 0, 36, 127
1, 648687, Note_off_c, 0, 64, 65
1, 648699, Poly_aftertouch_c, 0, 36, 0
1, 648734, Note_on_c, 0, 59, 91
1, 648740, Note_off_c, 0, 40, 59
1, 648746, Note_off_c, 0, 29, 32
1, 648776, Note_off_c, 0, 59, 66
1, 648843, Poly_aftertouch_c, 0, 34, 127
1, 648844, Note_on_c, 0, 76, 92
1, 648881, Note_off_c, 0, 76, 65
1, 648883, Poly_aftertouch_c, 0, 34, 0
1, 648897, Control_c, 0, 64, 77
1, 648912, Control_c, 0, 64, 57
1, 648927, Control_c, 0, 64, 42
1, 648928, Note_on_c, 0, 45, 99
1, 648928, Note_on_c, 0, 33, 83
1, 648934, Note_on_c, 0, 74, 98
1, 648941, Control_c, 0, 64, 47
1, 648956, Control_c, 0, 64, 57
1, 648960, Note_off_c, 0, 33, 67
1, 648970, Note_off_c, 0, 45, 66
1, 648971, Control_c, 0, 64, 66
1, 648985, Control_c, 0, 64, 83
1, 649000, Control_c, 0, 64, 127
1, 649020, Note_on_c, 0, 72, 55
1, 649035, Note_off_c, 0, 74, 61
1, 649114, Note_off_c, 0, 72, 66
1, 649122, Note_on_c, 0, 67, 84
1, 649142, Note_on_c, 0, 64, 94
1, 649167, Note_off_c, 0, 64, 75
1, 649188, Note_off_c, 0, 67, 67
1, 649232, Note_on_c, 0, 60, 84
1, 649258, Note_on_c, 0, 62, 44
1, 649275, Note_off_c, 0, 60, 67
1, 649286, Note_off_c, 0, 62, 59
1, 649321, Note_on_c, 0, 44, 18
1, 649362, Note_off_c, 0, 44, 47
1, 649400, Note_on_c, 0, 52, 99
1, 649408, Control_c, 0, 64, 72
1, 649409, Note_on_c, 0, 40, 95
1, 649423, Control_c, 0, 64, 33
1, 649438, Control_c, 0, 64, 0
1, 649468, Control_c, 0, 64, 44
1, 649482, Control_c, 0, 64, 66
1, 649497, Control_c, 0, 64, 83
1, 649512, Control_c, 0, 64, 127
1, 649613, Note_on_c, 0, 95, 104
1, 649702, Note_on_c, 0, 93, 87
1, 649715, Note_off_c, 0, 95, 64
1, 649765, Note_on_c, 0, 92, 91
1, 649771, Note_off_c, 0, 93, 68
1, 649817, Note_off_c, 0, 92, 67
1, 649819, Note_on_c, 0, 91, 89
1, 649859, Note_off_c, 0, 40, 59
1, 649859, Note_off_c, 0, 91, 64
1, 649880, Note_on_c, 0, 88, 79
1, 649888, Note_on_c, 0, 89, 75
1, 649910, Note_off_c, 0, 89, 66
1, 649915, Note_on_c, 0, 40, 75
1, 649918, Note_on_c, 0, 45, 86
1, 649932, Note_off_c, 0, 52, 65
1, 649944, Note_off_c, 0, 88, 67
1, 649947, Note_off_c, 0, 45, 68
1, 649948, Note_off_c, 0, 40, 67
1, 649951, Note_on_c, 0, 83, 92
1, 650055, Note_on_c, 0, 91, 72
1, 650060, Note_off_c, 0, 83, 60
1, 650089, Note_on_c, 0, 90, 82
1, 650093, Note_on_c, 0, 64, 75
1, 650105, Note_on_c, 0, 60, 75
1, 650113, Note_on_c, 0, 55, 73
1, 650117, Note_off_c, 0, 64, 67
1, 650120, Note_off_c, 0, 91, 66
1, 650128, Note_off_c, 0, 60, 68
1, 650135, Note_on_c, 0, 89, 92
1, 650138, Note_off_c, 0, 55, 67
1, 650153, Note_off_c, 0, 90, 65
1, 650185, Note_off_c, 0, 89, 66
1, 650192, Note_on_c, 0, 88, 85
1, 650232, Note_off_c, 0, 88, 68
1, 650267, Note_on_c, 0, 84, 76
1, 650288, Note_off_c, 0, 84, 71
1, 650324, Note_on_c, 0, 40, 87
1, 650327, Note_on_c, 0, 79, 104
1, 650333, Note_on_c, 0, 33, 81
1, 650352, Note_off_c, 0, 40, 69
1, 650364, Note_off_c, 0, 33, 63
1, 650383, Note_off_c, 0, 79, 64
1, 650411, Note_on_c, 0, 83, 84
1, 650472, Note_on_c, 0, 81, 75
1, 650504, Note_on_c, 0, 80, 87
1, 650517, Note_off_c, 0, 83, 66
1, 650518, Note_off_c, 0, 81, 64
1, 650546, Note_on_c, 0, 79, 86
1, 650556, Note_off_c, 0, 80, 62
1, 650589, Note_off_c, 0, 79, 67
1, 650623, Note_on_c, 0, 76, 77
1, 650624, Note_on_c, 0, 77, 79
1, 650645, Note_off_c, 0, 77, 68
1, 650678, Note_on_c, 0, 28, 83
1, 650682, Note_on_c, 0, 33, 87
1, 650692, Note_off_c, 0, 76, 66
1, 650695, Note_on_c, 0, 71, 96
1, 650708, Note_off_c, 0, 28, 66
1, 650716, Note_off_c, 0, 33, 64
1, 650768, Note_off_c, 0, 71, 60
1, 650785, Note_on_c, 0, 79, 85
1, 650830, Note_on_c, 0, 78, 80
1, 650852, Note_off_c, 0, 79, 66
1, 650854, Note_on_c, 0, 59, 30
1, 650874, Note_on_c, 0, 77, 87
1, 650885, Note_off_c, 0, 78, 64
1, 650890, Note_off_c, 0, 59, 50
1, 650920, Note_off_c, 0, 77, 65
1, 650926, Note_on_c, 0, 76, 81
1, 650968, Note_off_c, 0, 76, 63
1, 650986, Note_on_c, 0, 72, 87
1, 651022, Note_off_c, 0, 72, 64
1, 651041, Control_c, 0, 64, 68
1, 651055, Control_c, 0, 64, 0
1, 651063, Note_on_c, 0, 67, 97
1, 651064, Note_on_c, 0, 40, 95
1, 651071, Note_on_c, 0, 33, 84
1, 651078, Note_on_c, 0, 65, 63
1, 651079, Note_off_c, 0, 65, 127
1, 651098, Note_off_c, 0, 67, 68
1, 651100, Control_c, 0, 64, 46
1, 651115, Control_c, 0, 64, 65
1, 651129, Control_c, 0, 64, 89
1, 651144, Control_c, 0, 64, 127
1, 651283, Note_off_c, 0, 33, 60
1, 651296, Note_on_c, 0, 95, 103
1, 651311, Note_off_c, 0, 40, 63
1, 651335, Note_on_c, 0, 94, 36
1, 651336, Note_off_c, 0, 94, 127
1, 651371, Note_on_c, 0, 93, 83
1, 651387, Note_off_c, 0, 95, 67
1, 651435, Note_on_c, 0, 92, 92
1, 651444, Note_off_c, 0, 93, 67
1, 651474, Note_on_c, 0, 91, 85
1, 651480, Note_off_c, 0, 92, 66
1, 651500, Note_off_c, 0, 91, 67
1, 651522, Control_c, 0, 64, 107
1, 651536, Control_c, 0, 64, 84
1, 651539, Note_on_c, 0, 88, 89
1, 651549, Note_on_c, 0, 41, 89
1, 651551, Control_c, 0, 64, 87
1, 651557, Note_on_c, 0, 45, 88
1, 651558, Note_on_c, 0, 47, 86
1, 651567, Control_c, 0, 64, 127
1, 651569, Note_on_c, 0, 40, 71
1, 651583, Note_off_c, 0, 41, 68
1, 651585, Note_off_c, 0, 45, 67
1, 651585, Note_off_c, 0, 47, 68
1, 651590, Note_on_c, 0, 83, 94
1, 651592, Note_off_c, 0, 40, 66
1, 651660, Note_off_c, 0, 83, 64
1, 651673, Note_on_c, 0, 91, 75
1, 651679, Note_off_c, 0, 88, 61
1, 651710, Note_on_c, 0, 64, 85
1, 651713, Note_on_c, 0, 60, 80
1, 651713, Note_on_c, 0, 90, 79
1, 651730, Note_off_c, 0, 64, 71
1, 651736, Note_off_c, 0, 60, 70
1, 651744, Note_off_c, 0, 91, 65
1, 651757, Note_on_c, 0, 89, 89
1, 651772, Note_off_c, 0, 90, 65
1, 651799, Note_off_c, 0, 89, 65
1, 651803, Note_on_c, 0, 88, 84
1, 651840, Note_off_c, 0, 88, 66
1, 651875, Note_on_c, 0, 84, 77
1, 651892, Control_c, 0, 64, 90
1, 651897, Note_off_c, 0, 84, 70
1, 651907, Control_c, 0, 64, 65
1, 651922, Note_on_c, 0, 40, 92
1, 651922, Control_c, 0, 64, 59
1, 651929, Note_on_c, 0, 33, 85
1, 651929, Note_on_c, 0, 79, 103
1, 651937, Control_c, 0, 64, 64
1, 651951, Control_c, 0, 64, 76
1, 651954, Note_off_c, 0, 33, 68
1, 651954, Note_off_c, 0, 40, 66
1, 651966, Control_c, 0, 64, 127
1, 651980, Note_off_c, 0, 79, 66
1, 652015, Note_on_c, 0, 83, 80
1, 652066, Note_on_c, 0, 81, 83
1, 652080, Note_off_c, 0, 83, 64
1, 652097, Note_on_c, 0, 80, 85
1, 652112, Note_off_c, 0, 81, 67
1, 652144, Note_on_c, 0, 79, 88
1, 652145, Note_off_c, 0, 80, 63
1, 652187, Note_off_c, 0, 79, 65
1, 652223, Note_on_c, 0, 76, 66
1, 652253, Note_on_c, 0, 28, 86
1, 652258, Note_on_c, 0, 33, 91
1, 652275, Note_on_c, 0, 71, 98
1, 652283, Note_off_c, 0, 76, 62
1, 652284, Note_off_c, 0, 28, 66
1, 652287, Note_off_c, 0, 33, 66
1, 652340, Note_off_c, 0, 71, 62
1, 652362, Note_on_c, 0, 79, 91
1, 652404, Note_on_c, 0, 78, 80
1, 652432, Note_on_c, 0, 77, 92
1, 652434, Note_off_c, 0, 79, 64
1, 652460, Note_off_c, 0, 78, 65
1, 652466, Poly_aftertouch_c, 0, 52, 127
1, 652478, Note_off_c, 0, 77, 65
1, 652494, Note_on_c, 0, 76, 82
1, 652498, Poly_aftertouch_c, 0, 52, 0
1, 652515, Note_off_c, 0, 76, 70
1, 652556, Note_on_c, 0, 72, 76
1, 652582, Control_c, 0, 64, 69
1, 652588, Note_off_c, 0, 72, 0
1, 652597, Control_c, 0, 64, 0
1, 652606, Poly_aftertouch_c, 0, 72, 0
1, 652609, Note_on_c, 0, 40, 95
1, 652611, Note_on_c, 0, 67, 100
1, 652612, Note_on_c, 0, 33, 88
1, 652641, Control_c, 0, 64, 48
1, 652656, Control_c, 0, 64, 67
1, 652660, Note_off_c, 0, 67, 66
1, 652671, Control_c, 0, 64, 90
1, 652673, Note_off_c, 0, 33, 62
1, 652682, Note_off_c, 0, 40, 64
1, 652686, Control_c, 0, 64, 127
1, 652761, Note_on_c, 0, 83, 77
1, 652803, Note_on_c, 0, 81, 62
1, 652812, Note_off_c, 0, 83, 66
1, 652826, Note_on_c, 0, 80, 83
1, 652846, Note_off_c, 0, 81, 64
1, 652866, Note_on_c, 0, 79, 78
1, 652871, Note_off_c, 0, 80, 64
1, 652911, Note_off_c, 0, 79, 64
1, 652945, Control_c, 0, 64, 107
1, 652949, Note_on_c, 0, 76, 76
1, 652960, Control_c, 0, 64, 77
1, 652967, Note_on_c, 0, 45, 90
1, 652973, Note_on_c, 0, 40, 78
1, 652975, Control_c, 0, 64, 71
1, 652989, Control_c, 0, 64, 77
1, 652994, Note_on_c, 0, 71, 91
1, 652995, Note_off_c, 0, 76, 59
1, 652997, Note_off_c, 0, 40, 70
1, 653004, Control_c, 0, 64, 96
1, 653009, Note_on_c, 0, 72, 59
1, 653014, Note_off_c, 0, 45, 63
1, 653019, Control_c, 0, 64, 127
1, 653042, Note_off_c, 0, 72, 48
1, 653051, Note_off_c, 0, 71, 63
1, 653083, Note_on_c, 0, 83, 80
1, 653114, Note_on_c, 0, 81, 74
1, 653142, Note_on_c, 0, 62, 82
1, 653143, Note_off_c, 0, 83, 64
1, 653167, Note_on_c, 0, 80, 80
1, 653175, Note_off_c, 0, 62, 63
1, 653187, Note_off_c, 0, 81, 63
1, 653210, Note_on_c, 0, 77, 83
1, 653212, Note_off_c, 0, 80, 61
1, 653250, Note_on_c, 0, 84, 13
1, 653264, Note_off_c, 0, 77, 66
1, 653281, Note_on_c, 0, 76, 65
1, 653292, Note_on_c, 0, 74, 59
1, 653293, Note_off_c, 0, 74, 127
1, 653293, Note_off_c, 0, 84, 38
1, 653298, Note_on_c, 0, 60, 56
1, 653298, Note_on_c, 0, 65, 101
1, 653317, Note_off_c, 0, 76, 64
1, 653327, Note_off_c, 0, 60, 67
1, 653328, Note_off_c, 0, 65, 67
1, 653381, Note_on_c, 0, 84, 61
1, 653390, Note_on_c, 0, 83, 76
1, 653405, Poly_aftertouch_c, 0, 61, 0
1, 653411, Note_on_c, 0, 81, 75
1, 653438, Note_off_c, 0, 84, 64
1, 653439, Note_off_c, 0, 83, 63
1, 653443, Note_on_c, 0, 40, 85
1, 653466, Note_off_c, 0, 81, 65
1, 653491, Note_on_c, 0, 77, 83
1, 653503, Note_off_c, 0, 40, 62
1, 653536, Note_on_c, 0, 76, 84
1, 653544, Note_off_c, 0, 77, 67
1, 653558, Note_off_c, 0, 76, 71
1, 653598, Control_c, 0, 64, 83
1, 653610, Note_on_c, 0, 33, 88
1, 653611, Note_on_c, 0, 40, 97
1, 653612, Control_c, 0, 64, 55
1, 653627, Control_c, 0, 64, 19
1, 653641, Note_on_c, 0, 83, 102
1, 653642, Control_c, 0, 64, 35
1, 653664, Control_c, 0, 64, 56
1, 653679, Control_c, 0, 64, 71
1, 653688, Note_on_c, 0, 94, 49
1, 653694, Control_c, 0, 64, 127
1, 653710, Note_off_c, 0, 94, 54
1, 653715, Note_off_c, 0, 83, 63
1, 653727, Note_on_c, 0, 95, 77
1, 653742, Poly_aftertouch_c, 0, 36, 0
1, 653767, Note_on_c, 0, 93, 82
1, 653775, Note_on_c, 0, 45, 80
1, 653785, Note_off_c, 0, 33, 63
1, 653790, Note_off_c, 0, 95, 66
1, 653791, Note_off_c, 0, 40, 62
1, 653799, Note_on_c, 0, 92, 85
1, 653805, Note_off_c, 0, 45, 68
1, 653838, Note_off_c, 0, 93, 66
1, 653850, Note_off_c, 0, 92, 66
1, 653852, Note_on_c, 0, 89, 90
1, 653898, Note_off_c, 0, 89, 65
1, 653919, Note_on_c, 0, 86, 81
1, 653939, Note_off_c, 0, 86, 71
1, 653989, Note_on_c, 0, 60, 88
1, 653991, Note_on_c, 0, 64, 97
1, 653995, Note_on_c, 0, 79, 99
1, 654016, Note_on_c, 0, 55, 65
1, 654025, Note_on_c, 0, 61, 35
1, 654026, Note_off_c, 0, 61, 127
1, 654065, Note_on_c, 0, 83, 80
1, 654085, Note_off_c, 0, 79, 56
1, 654085, Note_off_c, 0, 64, 57
1, 654123, Note_on_c, 0, 81, 73
1, 654138, Note_on_c, 0, 80, 60
1, 654145, Note_off_c, 0, 83, 65
1, 654146, Note_on_c, 0, 52, 95
1, 654152, Note_off_c, 0, 60, 64
1, 654165, Note_off_c, 0, 55, 31
1, 654174, Note_off_c, 0, 81, 63
1, 654177, Note_off_c, 0, 52, 67
1, 654195, Note_on_c, 0, 79, 86
1, 654199, Note_off_c, 0, 80, 66
1, 654225, Note_off_c, 0, 79, 67
1, 654267, Note_on_c, 0, 76, 88
1, 654310, Note_off_c, 0, 76, 65
1, 654314, Note_on_c, 0, 84, 11
1, 654332, Control_c, 0, 64, 65
1, 654335, Note_on_c, 0, 52, 105
1, 654336, Note_on_c, 0, 45, 93
1, 654337, Note_off_c, 0, 84, 51
1, 654344, Note_on_c, 0, 71, 104
1, 654347, Control_c, 0, 64, 0
1, 654377, Control_c, 0, 64, 12
1, 654392, Control_c, 0, 64, 60
1, 654403, Note_on_c, 0, 80, 16
1, 654414, Control_c, 0, 64, 75
1, 654426, Note_off_c, 0, 71, 61
1, 654428, Control_c, 0, 64, 127
1, 654442, Note_on_c, 0, 83, 81
1, 654448, Note_off_c, 0, 80, 30
1, 654479, Note_off_c, 0, 52, 62
1, 654487, Note_on_c, 0, 40, 90
1, 654487, Note_on_c, 0, 81, 78
1, 654507, Note_off_c, 0, 45, 64
1, 654509, Note_off_c, 0, 83, 66
1, 654515, Note_off_c, 0, 40, 69
1, 654526, Note_on_c, 0, 80, 77
1, 654558, Note_off_c, 0, 81, 65
1, 654573, Note_on_c, 0, 77, 88
1, 654575, Note_off_c, 0, 80, 65
1, 654618, Note_off_c, 0, 77, 67
1, 654644, Note_on_c, 0, 76, 80
1, 654661, Note_on_c, 0, 67, 102
1, 654673, Note_on_c, 0, 64, 82
1, 654679, Note_on_c, 0, 60, 62
1, 654693, Note_on_c, 0, 61, 59
1, 654705, Note_on_c, 0, 65, 30
1, 654706, Note_off_c, 0, 65, 127
1, 654717, Note_off_c, 0, 61, 38
1, 654732, Note_off_c, 0, 76, 63
1, 654734, Note_off_c, 0, 67, 57
1, 654755, Note_on_c, 0, 83, 73
1, 654797, Note_on_c, 0, 81, 79
1, 654804, Note_on_c, 0, 55, 89
1, 654814, Note_off_c, 0, 83, 65
1, 654818, Note_off_c, 0, 64, 67
1, 654820, Note_off_c, 0, 60, 63
1, 654839, Note_on_c, 0, 80, 82
1, 654844, Note_off_c, 0, 55, 62
1, 654855, Note_off_c, 0, 81, 65
1, 654890, Note_off_c, 0, 80, 63
1, 654902, Note_on_c, 0, 77, 74
1, 654905, Note_on_c, 0, 79, 69
1, 654937, Note_off_c, 0, 79, 68
1, 654946, Note_off_c, 0, 77, 63
1, 654963, Control_c, 0, 64, 89
1, 654964, Note_on_c, 0, 74, 57
1, 654977, Control_c, 0, 64, 70
1, 654982, Note_off_c, 0, 74, 43
1, 654990, Note_on_c, 0, 62, 99
1, 654991, Note_on_c, 0, 55, 88
1, 654992, Note_on_c, 0, 52, 92
1, 654992, Control_c, 0, 64, 68
1, 654993, Note_on_c, 0, 76, 23
1, 655007, Control_c, 0, 64, 79
1, 655018, Note_on_c, 0, 53, 22
1, 655020, Note_off_c, 0, 62, 64
1, 655022, Control_c, 0, 64, 127
1, 655026, Note_off_c, 0, 76, 38
1, 655030, Note_off_c, 0, 55, 68
1, 655042, Note_off_c, 0, 52, 69
1, 655057, Note_on_c, 0, 83, 73
1, 655060, Note_off_c, 0, 53, 48
1, 655082, Note_off_c, 0, 83, 70
1, 655095, Note_on_c, 0, 92, 22
1, 655096, Note_off_c, 0, 92, 127
1, 655109, Note_on_c, 0, 95, 72
1, 655127, Note_on_c, 0, 51, 56
1, 655159, Note_on_c, 0, 93, 70
1, 655159, Note_off_c, 0, 51, 61
1, 655190, Note_off_c, 0, 95, 66
1, 655212, Note_on_c, 0, 92, 91
1, 655220, Note_on_c, 0, 52, 103
1, 655228, Note_on_c, 0, 45, 95
1, 655236, Poly_aftertouch_c, 0, 46, 0
1, 655243, Note_off_c, 0, 93, 66
1, 655250, Note_off_c, 0, 52, 70
1, 655255, Note_on_c, 0, 89, 95
1, 655262, Note_off_c, 0, 92, 65
1, 655267, Note_off_c, 0, 45, 63
1, 655295, Note_off_c, 0, 89, 65
1, 655336, Note_on_c, 0, 84, 82
1, 655362, Note_off_c, 0, 84, 64
1, 655395, Note_on_c, 0, 79, 101
1, 655456, Note_on_c, 0, 83, 92
1, 655459, Note_on_c, 0, 32, 7
1, 655483, Note_off_c, 0, 79, 63
1, 655510, Note_on_c, 0, 81, 84
1, 655516, Note_on_c, 0, 33, 95
1, 655522, Note_on_c, 0, 28, 93
1, 655540, Note_on_c, 0, 80, 96
1, 655546, Note_on_c, 0, 30, 19
1, 655547, Note_off_c, 0, 30, 0
1, 655547, Note_off_c, 0, 83, 66
1, 655551, Note_off_c, 0, 28, 64
1, 655554, Note_off_c, 0, 33, 67
1, 655560, Note_off_c, 0, 32, 0
1, 655573, Note_off_c, 0, 81, 67
1, 655584, Poly_aftertouch_c, 0, 30, 127
1, 655599, Poly_aftertouch_c, 0, 30, 0
1, 655610, Poly_aftertouch_c, 0, 32, 0
1, 655614, Note_on_c, 0, 79, 89
1, 655614, Note_off_c, 0, 80, 66
1, 655659, Note_off_c, 0, 79, 68
1, 655696, Note_on_c, 0, 76, 97
1, 655738, Note_on_c, 0, 84, 14
1, 655785, Note_off_c, 0, 84, 42
1, 655790, Poly_aftertouch_c, 0, 83, 127
1, 655824, Note_on_c, 0, 81, 43
1, 655838, Poly_aftertouch_c, 0, 83, 0
1, 655840, Note_on_c, 0, 60, 95
1, 655844, Note_on_c, 0, 64, 103
1, 655844, Control_c, 0, 64, 117
1, 655845, Note_on_c, 0, 54, 92
1, 655846, Note_on_c, 0, 71, 106
1, 655856, Note_off_c, 0, 81, 49
1, 655856, Note_on_c, 0, 83, 36
1, 655859, Control_c, 0, 64, 64
1, 655874, Note_on_c, 0, 55, 64
1, 655874, Control_c, 0, 64, 0
1, 655875, Note_on_c, 0, 72, 51
1, 655876, Note_off_c, 0, 72, 127
1, 655876, Note_on_c, 0, 79, 53
1, 655879, Note_off_c, 0, 76, 62
1, 655883, Note_on_c, 0, 77, 46
1, 655884, Note_off_c, 0, 77, 127
1, 655888, Note_on_c, 0, 80, 31
1, 655903, Note_off_c, 0, 79, 44
1, 655922, Poly_aftertouch_c, 0, 84, 0
1, 655934, Note_off_c, 0, 80, 32
1, 655946, Note_off_c, 0, 54, 64
1, 655970, Note_off_c, 0, 71, 63
1, 655971, Control_c, 0, 64, 65
1, 655981, Note_off_c, 0, 83, 37
1, 655986, Control_c, 0, 64, 94
1, 656000, Control_c, 0, 64, 127
1, 656082, Note_on_c, 0, 83, 111
1, 656100, Note_on_c, 0, 81, 58
1, 656101, Note_off_c, 0, 81, 127
1, 656192, Note_on_c, 0, 81, 92
1, 656203, Note_off_c, 0, 83, 60
1, 656264, Note_on_c, 0, 80, 89
1, 656272, Note_off_c, 0, 81, 62
1, 656318, Note_on_c, 0, 79, 86
1, 656319, Note_off_c, 0, 80, 65
1, 656359, Note_off_c, 0, 79, 66
1, 656390, Note_on_c, 0, 76, 96
1, 656450, Note_off_c, 0, 76, 61
1, 656466, Note_on_c, 0, 72, 92
1, 656481, Note_off_c, 0, 64, 64
1, 656497, Note_off_c, 0, 55, 58
1, 656503, Note_off_c, 0, 60, 57
1, 656505, Note_off_c, 0, 72, 62
1, 656522, Note_on_c, 0, 71, 95
1, 656565, Note_on_c, 0, 69, 80
1, 656597, Note_off_c, 0, 71, 63
1, 656606, Note_on_c, 0, 68, 88
1, 656631, Note_off_c, 0, 69, 65
1, 656658, Note_off_c, 0, 68, 65
1, 656667, Note_on_c, 0, 65, 87
1, 656705, Note_off_c, 0, 65, 62
1, 656727, Note_on_c, 0, 64, 86
1, 656751, Note_on_c, 0, 62, 42
1, 656752, Note_off_c, 0, 62, 127
1, 656772, Note_off_c, 0, 64, 65
1, 656800, Note_on_c, 0, 60, 76
1, 656828, Note_off_c, 0, 60, 66
1, 656839, Note_on_c, 0, 59, 94
1, 656869, Note_on_c, 0, 57, 80
1, 656906, Note_off_c, 0, 59, 62
1, 656912, Note_on_c, 0, 56, 83
1, 656941, Note_off_c, 0, 57, 62
1, 656947, Note_off_c, 0, 56, 64
1, 656961, Note_on_c, 0, 53, 93
1, 656996, Note_off_c, 0, 53, 61
1, 657012, Note_on_c, 0, 52, 94
1, 657067, Note_off_c, 0, 52, 66
1, 657086, Note_on_c, 0, 48, 79
1, 657110, Note_off_c, 0, 48, 66
1, 657137, Note_on_c, 0, 47, 78
1, 657157, Note_on_c, 0, 45, 82
1, 657166, Poly_aftertouch_c, 0, 48, 0
1, 657188, Note_off_c, 0, 47, 59
1, 657207, Note_on_c, 0, 44, 67
1, 657207, Note_off_c, 0, 45, 65
1, 657239, Note_off_c, 0, 44, 63
1, 657255, Note_on_c, 0, 41, 73
1, 657257, Note_on_c, 0, 43, 74
1, 657283, Note_off_c, 0, 41, 66
1, 657289, Note_on_c, 0, 40, 93
1, 657292, Note_off_c, 0, 43, 67
1, 657312, Control_c, 0, 64, 93
1, 657327, Control_c, 0, 64, 54
1, 657338, Note_on_c, 0, 33, 111
1, 657339, Note_off_c, 0, 40, 68
1, 657342, Control_c, 0, 64, 0
1, 657343, Note_on_c, 0, 21, 90
1, 657375, Note_off_c, 0, 21, 66
1, 657400, Note_off_c, 0, 33, 66
1, 657409, Control_c, 0, 64, 60
1, 657423, Control_c, 0, 64, 82
1, 657438, Control_c, 0, 64, 127
1, 657617, Note_on_c, 0, 40, 96
1, 657756, Note_on_c, 0, 45, 101
1, 657758, Note_off_c, 0, 40, 65
1, 657850, Note_off_c, 0, 45, 64
1, 657865, Note_on_c, 0, 48, 96
1, 657940, Note_off_c, 0, 48, 62
1, 657973, Control_c, 0, 64, 83
1, 657982, Note_on_c, 0, 50, 80
1, 657988, Control_c, 0, 64, 62
1, 657990, Note_on_c, 0, 49, 61
1, 657996, Note_on_c, 0, 51, 42
1, 658002, Control_c, 0, 64, 49
1, 658015, Note_off_c, 0, 49, 58
1, 658017, Control_c, 0, 64, 55
1, 658030, Note_off_c, 0, 51, 53
1, 658032, Control_c, 0, 64, 62
1, 658037, Note_off_c, 0, 50, 65
1, 658047, Control_c, 0, 64, 70
1, 658062, Control_c, 0, 64, 86
1, 658065, Note_on_c, 0, 52, 91
1, 658076, Control_c, 0, 64, 127
1, 658133, Note_off_c, 0, 52, 68
1, 658136, Control_c, 0, 64, 82
1, 658158, Note_on_c, 0, 60, 84
1, 658158, Control_c, 0, 64, 68
1, 658160, Note_on_c, 0, 53, 97
1, 658173, Control_c, 0, 64, 64
1, 658188, Control_c, 0, 64, 68
1, 658202, Control_c, 0, 64, 78
1, 658205, Note_on_c, 0, 63, 78
1, 658217, Control_c, 0, 64, 127
1, 658247, Note_on_c, 0, 68, 65
1, 658256, Note_off_c, 0, 60, 63
1, 658272, Note_on_c, 0, 54, 85
1, 658287, Note_on_c, 0, 71, 75
1, 658291, Note_off_c, 0, 63, 64
1, 658309, Note_off_c, 0, 53, 46
1, 658313, Note_off_c, 0, 68, 65
1, 658339, Note_off_c, 0, 71, 63
1, 658343, Note_off_c, 0, 54, 66
1, 658354, Note_on_c, 0, 57, 87
1, 658359, Note_on_c, 0, 64, 88
1, 658401, Note_on_c, 0, 69, 76
1, 658401, Note_off_c, 0, 57, 66
1, 658438, Note_off_c, 0, 64, 62
1, 658452, Note_on_c, 0, 57, 71
1, 658455, Note_on_c, 0, 59, 73
1, 658468, Note_on_c, 0, 75, 83
1, 658484, Note_off_c, 0, 69, 64
1, 658509, Note_off_c, 0, 57, 64
1, 658532, Note_off_c, 0, 75, 63
1, 658541, Note_on_c, 0, 67, 85
1, 658568, Note_off_c, 0, 59, 66
1, 658589, Note_on_c, 0, 72, 81
1, 658610, Note_on_c, 0, 74, 73
1, 658613, Note_on_c, 0, 63, 82
1, 658617, Control_c, 0, 64, 113
1, 658626, Note_off_c, 0, 67, 61
1, 658632, Control_c, 0, 64, 91
1, 658638, Note_on_c, 0, 77, 74
1, 658646, Control_c, 0, 64, 92
1, 658661, Control_c, 0, 64, 112
1, 658670, Note_off_c, 0, 72, 65
1, 658674, Note_off_c, 0, 63, 62
1, 658676, Control_c, 0, 64, 127
1, 658681, Note_off_c, 0, 74, 64
1, 658685, Note_on_c, 0, 64, 83
1, 658688, Note_off_c, 0, 77, 64
1, 658700, Note_on_c, 0, 69, 96
1, 658726, Note_off_c, 0, 64, 64
1, 658729, Note_on_c, 0, 74, 63
1, 658732, Note_on_c, 0, 72, 72
1, 658763, Note_on_c, 0, 65, 90
1, 658765, Note_off_c, 0, 69, 63
1, 658789, Note_on_c, 0, 80, 88
1, 658803, Note_off_c, 0, 72, 66
1, 658806, Note_off_c, 0, 74, 64
1, 658816, Note_off_c, 0, 65, 62
1, 658836, Note_off_c, 0, 80, 66
1, 658845, Note_on_c, 0, 66, 82
1, 658863, Note_on_c, 0, 74, 87
1, 658899, Note_off_c, 0, 66, 64
1, 658911, Note_on_c, 0, 67, 87
1, 658911, Note_on_c, 0, 77, 83
1, 658929, Note_off_c, 0, 74, 65
1, 658933, Note_on_c, 0, 79, 72
1, 658953, Note_on_c, 0, 84, 74
1, 658956, Note_off_c, 0, 77, 65
1, 658957, Note_off_c, 0, 67, 65
1, 658957, Note_off_c, 0, 79, 70
1, 658985, Note_off_c, 0, 84, 64
1, 658988, Note_on_c, 0, 68, 85
1, 658996, Note_on_c, 0, 83, 18
1, 659016, Note_on_c, 0, 77, 98
1, 659032, Note_off_c, 0, 68, 66
1, 659034, Note_off_c, 0, 83, 35
1, 659036, Note_on_c, 0, 69, 90
1, 659045, Note_on_c, 0, 82, 77
1, 659074, Note_off_c, 0, 77, 66
1, 659097, Note_off_c, 0, 69, 60
1, 659101, Note_on_c, 0, 83, 68
1, 659101, Note_on_c, 0, 85, 61
1, 659104, Note_off_c, 0, 82, 65
1, 659106, Note_on_c, 0, 70, 77
1, 659117, Note_on_c, 0, 89, 72
1, 659117, Note_off_c, 0, 83, 66
1, 659118, Note_off_c, 0, 85, 66
1, 659124, Note_on_c, 0, 88, 65
1, 659154, Note_off_c, 0, 88, 65
1, 659175, Note_on_c, 0, 79, 83
1, 659184, Note_off_c, 0, 89, 62
1, 659187, Note_off_c, 0, 70, 69
1, 659199, Note_on_c, 0, 81, 42
1, 659200, Note_off_c, 0, 81, 127
1, 659213, Note_on_c, 0, 84, 80
1, 659231, Note_on_c, 0, 72, 88
1, 659242, Note_on_c, 0, 86, 71
1, 659252, Note_off_c, 0, 79, 64
1, 659254, Note_on_c, 0, 89, 84
1, 659276, Note_off_c, 0, 72, 62
1, 659290, Poly_aftertouch_c, 0, 71, 0
1, 659296, Note_on_c, 0, 73, 85
1, 659299, Note_off_c, 0, 84, 64
1, 659309, Note_off_c, 0, 86, 63
1, 659316, Note_off_c, 0, 89, 64
1, 659325, Note_on_c, 0, 81, 97
1, 659340, Note_off_c, 0, 73, 67
1, 659347, Note_on_c, 0, 74, 90
1, 659353, Note_on_c, 0, 84, 69
1, 659361, Note_on_c, 0, 86, 58
1, 659380, Note_off_c, 0, 81, 70
1, 659396, Note_off_c, 0, 74, 62
1, 659408, Note_on_c, 0, 92, 93
1, 659415, Note_off_c, 0, 84, 66
1, 659420, Note_off_c, 0, 86, 66
1, 659425, Note_on_c, 0, 75, 80
1, 659464, Note_off_c, 0, 92, 66
1, 659477, Note_on_c, 0, 76, 85
1, 659484, Note_on_c, 0, 84, 81
1, 659488, Note_on_c, 0, 86, 82
1, 659495, Note_off_c, 0, 75, 63
1, 659517, Note_on_c, 0, 88, 86
1, 659526, Note_off_c, 0, 84, 65
1, 659528, Note_off_c, 0, 76, 66
1, 659531, Note_off_c, 0, 86, 62
1, 659534, Note_on_c, 0, 87, 31
1, 659535, Note_off_c, 0, 87, 127
1, 659544, Note_on_c, 0, 91, 64
1, 659549, Note_on_c, 0, 89, 70
1, 659557, Note_on_c, 0, 77, 92
1, 659558, Note_on_c, 0, 95, 82
1, 659560, Note_off_c, 0, 88, 68
1, 659567, Note_off_c, 0, 89, 65
1, 659571, Note_off_c, 0, 91, 66
1, 659590, Note_off_c, 0, 95, 65
1, 659617, Note_on_c, 0, 88, 84
1, 659627, Note_off_c, 0, 77, 56
1, 659632, Note_on_c, 0, 89, 66
1, 659650, Note_on_c, 0, 78, 91
1, 659662, Note_off_c, 0, 89, 55
1, 659671, Note_on_c, 0, 93, 64
1, 659678, Note_on_c, 0, 99, 99
1, 659690, Note_off_c, 0, 88, 53
1, 659701, Note_off_c, 0, 93, 67
1, 659716, Note_off_c, 0, 78, 65
1, 659721, Note_on_c, 0, 79, 95
1, 659735, Note_off_c, 0, 99, 65
1, 659772, Note_on_c, 0, 100, 92
1, 659775, Note_off_c, 0, 79, 64
1, 659810, Note_on_c, 0, 80, 81
1, 659818, Note_on_c, 0, 79, 37
1, 659818, Note_on_c, 0, 81, 86
1, 659821, Note_off_c, 0, 100, 66
1, 659839, Note_off_c, 0, 79, 61
1, 659871, Note_off_c, 0, 81, 60
1, 659876, Note_off_c, 0, 80, 61
1, 659895, Note_on_c, 0, 83, 76
1, 660001, Note_on_c, 0, 84, 100
1, 660012, Note_off_c, 0, 83, 63
1, 660111, Note_on_c, 0, 85, 97
1, 660129, Note_off_c, 0, 84, 68
1, 660226, Note_on_c, 0, 86, 98
1, 660234, Note_off_c, 0, 85, 65
1, 660366, Note_on_c, 0, 87, 93
1, 660401, Note_on_c, 0, 88, 63
1, 660416, Note_off_c, 0, 86, 64
1, 660420, Note_off_c, 0, 88, 63
1, 660617, Note_on_c, 0, 88, 92
1, 660652, Note_off_c, 0, 87, 64
1, 660666, Note_off_c, 0, 88, 69
1, 661286, Control_c, 0, 64, 115
1, 661300, Control_c, 0, 64, 104
1, 661315, Control_c, 0, 64, 99
1, 661330, Control_c, 0, 64, 95
1, 661344, Control_c, 0, 64, 90
1, 661359, Control_c, 0, 64, 85
1, 661374, Control_c, 0, 64, 80
1, 661389, Control_c, 0, 64, 79
1, 661433, Control_c, 0, 64, 78
1, 661448, Control_c, 0, 64, 78
1, 661463, Control_c, 0, 64, 77
1, 661478, Control_c, 0, 64, 75
1, 661492, Control_c, 0, 64, 73
1, 661507, Control_c, 0, 64, 72
1, 661567, Control_c, 0, 64, 71
1, 661597, Control_c, 0, 64, 71
1, 661611, Control_c, 0, 64, 70
1, 661626, Control_c, 0, 64, 69
1, 661641, Control_c, 0, 64, 68
1, 661685, Control_c, 0, 64, 68
1, 661715, Control_c, 0, 64, 67
1, 661744, Control_c, 0, 64, 67
1, 661759, Control_c, 0, 64, 66
1, 661789, Control_c, 0, 64, 66
1, 661848, Control_c, 0, 64, 65
1, 661862, Control_c, 0, 64, 65
1, 661900, Control_c, 0, 64, 64
1, 661930, Control_c, 0, 64, 64
1, 662094, Control_c, 0, 64, 63
1, 662109, Control_c, 0, 64, 63
1, 662123, Control_c, 0, 64, 62
1, 662153, Control_c, 0, 64, 61
1, 662182, Control_c, 0, 64, 61
1, 662197, Control_c, 0, 64, 60
1, 662212, Control_c, 0, 64, 59
1, 662227, Control_c, 0, 64, 59
1, 662256, Control_c, 0, 64, 58
1, 662271, Control_c, 0, 64, 58
1, 662285, Control_c, 0, 64, 57
1, 662300, Control_c, 0, 64, 57
1, 662315, Control_c, 0, 64, 56
1, 662330, Control_c, 0, 64, 55
1, 662345, Control_c, 0, 64, 54
1, 662360, Control_c, 0, 64, 54
1, 662375, Control_c, 0, 64, 53
1, 662390, Control_c, 0, 64, 53
1, 662405, Control_c, 0, 64, 52
1, 662419, Control_c, 0, 64, 51
1, 662434, Control_c, 0, 64, 50
1, 662449, Control_c, 0, 64, 49
1, 662464, Control_c, 0, 64, 48
1, 662479, Control_c, 0, 64, 48
1, 662493, Control_c, 0, 64, 47
1, 662508, Control_c, 0, 64, 47
1, 662523, Control_c, 0, 64, 46
1, 662538, Control_c, 0, 64, 46
1, 662553, Control_c, 0, 64, 45
1, 662723, Control_c, 0, 64, 46
1, 662768, Control_c, 0, 64, 46
1, 662798, Control_c, 0, 64, 47
1, 662828, Control_c, 0, 64, 47
1, 662843, Control_c, 0, 64, 48
1, 662858, Control_c, 0, 64, 49
1, 662872, Control_c, 0, 64, 49
1, 662887, Control_c, 0, 64, 50
1, 662902, Control_c, 0, 64, 51
1, 662916, Control_c, 0, 64, 52
1, 662931, Control_c, 0, 64, 52
1, 662946, Control_c, 0, 64, 53
1, 662961, Control_c, 0, 64, 54
1, 662976, Control_c, 0, 64, 55
1, 662990, Control_c, 0, 64, 55
1, 663005, Control_c, 0, 64, 56
1, 663020, Control_c, 0, 64, 56
1, 663035, Control_c, 0, 64, 57
1, 663050, Control_c, 0, 64, 57
1, 663079, Control_c, 0, 64, 58
1, 663094, Control_c, 0, 64, 59
1, 663108, Control_c, 0, 64, 59
1, 663123, Control_c, 0, 64, 60
1, 663138, Control_c, 0, 64, 61
1, 663153, Control_c, 0, 64, 62
1, 663168, Control_c, 0, 64, 62
1, 663183, Control_c, 0, 64, 63
1, 663197, Control_c, 0, 64, 63
1, 663227, Control_c, 0, 64, 64
1, 663242, Control_c, 0, 64, 64
1, 663257, Control_c, 0, 64, 65
1, 663272, Control_c, 0, 64, 65
1, 663287, Control_c, 0, 64, 66
1, 663302, Control_c, 0, 64, 67
1, 663316, Control_c, 0, 64, 67
1, 663331, Control_c, 0, 64, 68
1, 663346, Control_c, 0, 64, 70
1, 663361, Control_c, 0, 64, 71
1, 663376, Control_c, 0, 64, 73
1, 663397, Control_c, 0, 64, 75
1, 663412, Control_c, 0, 64, 76
1, 663427, Control_c, 0, 64, 78
1, 663442, Control_c, 0, 64, 79
1, 663457, Control_c, 0, 64, 81
1, 663472, Control_c, 0, 64, 84
1, 663487, Control_c, 0, 64, 88
1, 663502, Control_c, 0, 64, 92
1, 663516, Control_c, 0, 64, 98
1, 663531, Control_c, 0, 64, 107
1, 663546, Control_c, 0, 64, 127
1, 664375, Note_on_c, 0, 52, 36
1, 664674, Note_off_c, 0, 52, 42
1, 665636, Note_on_c, 0, 57, 41
1, 665668, Note_on_c, 0, 33, 27
1, 665689, Control_c, 0, 64, 100
1, 665704, Control_c, 0, 64, 75
1, 665718, Control_c, 0, 64, 64
1, 665733, Control_c, 0, 64, 60
1, 665748, Control_c, 0, 64, 62
1, 665763, Control_c, 0, 64, 66
1, 665778, Control_c, 0, 64, 73
1, 665792, Control_c, 0, 64, 84
1, 665807, Control_c, 0, 64, 108
1, 665822, Control_c, 0, 64, 127
1, 665952, Note_off_c, 0, 33, 40
1, 666415, Note_on_c, 0, 64, 37
1, 666427, Note_on_c, 0, 48, 26
1, 666522, Note_off_c, 0, 57, 37
1, 666885, Note_on_c, 0, 40, 29
1, 666896, Note_on_c, 0, 71, 48
1, 666972, Note_off_c, 0, 64, 62
1, 666986, Note_on_c, 0, 59, 24
1, 666994, Note_off_c, 0, 48, 36
1, 667056, Note_off_c, 0, 71, 57
1, 667246, Note_off_c, 0, 59, 37
1, 667312, Note_on_c, 0, 60, 32
1, 667341, Note_off_c, 0, 40, 36
1, 667357, Note_on_c, 0, 52, 27
1, 667607, Note_off_c, 0, 52, 41
1, 667616, Note_off_c, 0, 60, 40
1, 667643, Note_on_c, 0, 64, 50
1, 667657, Note_on_c, 0, 45, 35
1, 667687, Note_off_c, 0, 64, 65
1, 667860, Note_off_c, 0, 45, 38
1, 667927, Note_on_c, 0, 52, 45
1, 667933, Note_on_c, 0, 40, 34
1, 667975, Note_off_c, 0, 40, 59
1, 668030, Note_off_c, 0, 52, 64
1, 668261, Control_c, 0, 64, 93
1, 668262, Note_on_c, 0, 57, 51
1, 668276, Control_c, 0, 64, 69
1, 668291, Control_c, 0, 64, 57
1, 668305, Note_on_c, 0, 33, 27
1, 668305, Control_c, 0, 64, 52
1, 668320, Control_c, 0, 64, 55
1, 668337, Control_c, 0, 64, 61
1, 668351, Control_c, 0, 64, 67
1, 668366, Control_c, 0, 64, 75
1, 668381, Control_c, 0, 64, 89
1, 668396, Control_c, 0, 64, 120
1, 668397, Note_off_c, 0, 33, 55
1, 668410, Control_c, 0, 64, 127
1, 668558, Note_on_c, 0, 64, 48
1, 668569, Note_on_c, 0, 48, 48
1, 668575, Note_off_c, 0, 57, 60
1, 668785, Note_off_c, 0, 48, 37
1, 668833, Note_on_c, 0, 71, 57
1, 668864, Note_off_c, 0, 64, 61
1, 668867, Note_on_c, 0, 40, 38
1, 668883, Note_on_c, 0, 59, 45
1, 668939, Note_off_c, 0, 71, 63
1, 669174, Control_c, 0, 64, 90
1, 669182, Note_on_c, 0, 60, 41
1, 669189, Control_c, 0, 64, 68
1, 669198, Note_on_c, 0, 52, 29
1, 669204, Control_c, 0, 64, 60
1, 669219, Control_c, 0, 64, 59
1, 669233, Control_c, 0, 64, 62
1, 669248, Control_c, 0, 64, 67
1, 669252, Note_off_c, 0, 40, 36
1, 669263, Control_c, 0, 64, 77
1, 669278, Control_c, 0, 64, 114
1, 669293, Control_c, 0, 64, 127
1, 669319, Note_off_c, 0, 59, 32
1, 669505, Note_off_c, 0, 60, 35
1, 669518, Note_on_c, 0, 64, 39
1, 669522, Control_c, 0, 67, 24
1, 669537, Control_c, 0, 67, 43
1, 669541, Note_on_c, 0, 45, 27
1, 669541, Note_off_c, 0, 52, 43
1, 669551, Control_c, 0, 67, 61
1, 669556, Note_off_c, 0, 64, 64
1, 669566, Control_c, 0, 67, 79
1, 669581, Control_c, 0, 67, 96
1, 669596, Control_c, 0, 67, 110
1, 669611, Control_c, 0, 67, 122
1, 669625, Control_c, 0, 67, 127
1, 669745, Note_off_c, 0, 45, 37
1, 669881, Note_on_c, 0, 52, 45
1, 669884, Note_on_c, 0, 40, 35
1, 669976, Note_off_c, 0, 40, 56
1, 669988, Note_off_c, 0, 52, 63
1, 670598, Note_on_c, 0, 24, 22
1, 670635, Note_on_c, 0, 55, 36
1, 670685, Control_c, 0, 64, 101
1, 670700, Control_c, 0, 64, 72
1, 670715, Control_c, 0, 64, 58
1, 670730, Control_c, 0, 64, 39
1, 670745, Control_c, 0, 64, 35
1, 670760, Control_c, 0, 64, 43
1, 670775, Control_c, 0, 64, 59
1, 670790, Control_c, 0, 64, 66
1, 670804, Control_c, 0, 64, 73
1, 670819, Control_c, 0, 64, 84
1, 670834, Control_c, 0, 64, 98
1, 670849, Control_c, 0, 64, 127
1, 670924, Note_off_c, 0, 24, 40
1, 671097, Note_off_c, 0, 55, 41
1, 671283, Note_on_c, 0, 64, 24
1, 671298, Note_on_c, 0, 43, 14
1, 671583, Note_on_c, 0, 36, 30
1, 671583, Note_off_c, 0, 43, 26
1, 671616, Note_on_c, 0, 71, 43
1, 671692, Note_off_c, 0, 64, 49
1, 671693, Note_on_c, 0, 59, 12
1, 671810, Note_off_c, 0, 36, 39
1, 671925, Note_off_c, 0, 59, 36
1, 672001, Note_on_c, 0, 52, 36
1, 672010, Note_off_c, 0, 71, 34
1, 672018, Note_on_c, 0, 60, 36
1, 672242, Note_off_c, 0, 52, 37
1, 672337, Note_on_c, 0, 43, 34
1, 672350, Note_off_c, 0, 60, 57
1, 672352, Note_on_c, 0, 64, 50
1, 672426, Note_off_c, 0, 64, 64
1, 672479, Note_off_c, 0, 43, 32
1, 672590, Note_on_c, 0, 36, 36
1, 672647, Note_off_c, 0, 36, 58
1, 672648, Note_on_c, 0, 52, 43
1, 672759, Note_off_c, 0, 52, 63
1, 672931, Note_on_c, 0, 24, 34
1, 672943, Note_on_c, 0, 55, 48
1, 672987, Note_off_c, 0, 24, 56
1, 673058, Note_off_c, 0, 55, 60
1, 673214, Note_on_c, 0, 64, 47
1, 673232, Note_on_c, 0, 43, 27
1, 673353, Control_c, 0, 67, 121
1, 673368, Control_c, 0, 67, 107
1, 673383, Control_c, 0, 67, 95
1, 673398, Control_c, 0, 67, 86
1, 673413, Control_c, 0, 67, 77
1, 673428, Control_c, 0, 67, 68
1, 673443, Control_c, 0, 67, 58
1, 673458, Control_c, 0, 67, 48
1, 673471, Note_on_c, 0, 71, 53
1, 673472, Control_c, 0, 67, 37
1, 673483, Note_off_c, 0, 43, 32
1, 673487, Control_c, 0, 67, 30
1, 673489, Note_on_c, 0, 36, 32
1, 673502, Control_c, 0, 67, 24
1, 673511, Note_off_c, 0, 64, 60
1, 673517, Control_c, 0, 67, 19
1, 673532, Control_c, 0, 67, 13
1, 673545, Note_on_c, 0, 59, 22
1, 673547, Control_c, 0, 67, 0
1, 673620, Note_off_c, 0, 71, 56
1, 673628, Note_off_c, 0, 36, 33
1, 673768, Note_on_c, 0, 52, 42
1, 673793, Note_on_c, 0, 60, 39
1, 673865, Note_off_c, 0, 59, 32
1, 673984, Note_off_c, 0, 52, 34
1, 674065, Note_off_c, 0, 60, 56
1, 674095, Note_on_c, 0, 64, 45
1, 674104, Note_on_c, 0, 43, 35
1, 674150, Note_off_c, 0, 64, 64
1, 674302, Note_off_c, 0, 43, 37
1, 674462, Note_on_c, 0, 36, 37
1, 674483, Note_on_c, 0, 52, 36
1, 674568, Note_off_c, 0, 36, 51
1, 674647, Note_off_c, 0, 52, 43
1, 675244, Note_on_c, 0, 28, 33
1, 675345, Note_on_c, 0, 56, 43
1, 675407, Control_c, 0, 64, 84
1, 675422, Control_c, 0, 64, 66
1, 675437, Control_c, 0, 64, 49
1, 675452, Control_c, 0, 64, 35
1, 675467, Control_c, 0, 64, 34
1, 675482, Control_c, 0, 64, 40
1, 675497, Control_c, 0, 64, 52
1, 675512, Control_c, 0, 64, 60
1, 675527, Control_c, 0, 64, 65
1, 675541, Control_c, 0, 64, 68
1, 675556, Control_c, 0, 64, 72
1, 675571, Control_c, 0, 64, 78
1, 675586, Control_c, 0, 64, 87
1, 675601, Control_c, 0, 64, 105
1, 675616, Control_c, 0, 64, 127
1, 675619, Note_off_c, 0, 28, 46
1, 675891, Note_off_c, 0, 56, 40
1, 676042, Note_on_c, 0, 64, 37
1, 676064, Note_on_c, 0, 47, 24
1, 676397, Note_on_c, 0, 40, 33
1, 676489, Note_on_c, 0, 71, 49
1, 676579, Note_on_c, 0, 59, 26
1, 676581, Note_off_c, 0, 40, 40
1, 676601, Note_off_c, 0, 64, 62
1, 676727, Note_off_c, 0, 71, 55
1, 676835, Note_on_c, 0, 56, 27
1, 676843, Note_on_c, 0, 61, 43
1, 676921, Note_off_c, 0, 47, 29
1, 676975, Note_off_c, 0, 59, 41
1, 676977, Note_off_c, 0, 56, 53
1, 677121, Note_on_c, 0, 47, 36
1, 677145, Note_on_c, 0, 68, 54
1, 677185, Note_off_c, 0, 61, 43
1, 677212, Note_off_c, 0, 68, 61
1, 677344, Note_on_c, 0, 40, 37
1, 677357, Note_off_c, 0, 47, 34
1, 677384, Note_off_c, 0, 40, 62
1, 677411, Note_on_c, 0, 52, 46
1, 677513, Note_off_c, 0, 52, 64
1, 677679, Note_on_c, 0, 28, 47
1, 677714, Note_on_c, 0, 56, 50
1, 677722, Note_off_c, 0, 28, 60
1, 677837, Note_off_c, 0, 56, 61
1, 677959, Note_on_c, 0, 64, 55
1, 677977, Note_on_c, 0, 47, 38
1, 678194, Note_on_c, 0, 71, 59
1, 678208, Note_on_c, 0, 40, 45
1, 678229, Note_on_c, 0, 59, 44
1, 678254, Note_off_c, 0, 64, 62
1, 678350, Note_off_c, 0, 40, 36
1, 678350, Note_off_c, 0, 71, 56
1, 678472, Note_on_c, 0, 61, 55
1, 678538, Note_off_c, 0, 59, 58
1, 678636, Note_off_c, 0, 47, 0
1, 678673, Poly_aftertouch_c, 0, 47, 127
1, 678713, Note_off_c, 0, 61, 58
1, 678721, Note_on_c, 0, 68, 61
1, 678784, Note_off_c, 0, 68, 62
1, 678913, Note_on_c, 0, 40, 48
1, 678922, Poly_aftertouch_c, 0, 47, 0
1, 678956, Note_off_c, 0, 40, 62
1, 678963, Note_on_c, 0, 52, 53
1, 679065, Note_off_c, 0, 52, 64
1, 679278, Note_on_c, 0, 28, 42
1, 679285, Control_c, 0, 64, 89
1, 679300, Control_c, 0, 64, 71
1, 679315, Control_c, 0, 64, 64
1, 679330, Control_c, 0, 64, 65
1, 679335, Note_on_c, 0, 56, 56
1, 679345, Control_c, 0, 64, 72
1, 679359, Control_c, 0, 64, 93
1, 679374, Control_c, 0, 64, 127
1, 679414, Note_off_c, 0, 28, 49
1, 679527, Note_off_c, 0, 56, 58
1, 679681, Note_on_c, 0, 64, 54
1, 679739, Note_on_c, 0, 47, 35
1, 679777, Note_off_c, 0, 47, 55
1, 679900, Note_on_c, 0, 47, 52
1, 679923, Note_on_c, 0, 59, 59
1, 680090, Note_off_c, 0, 59, 56
1, 680277, Note_on_c, 0, 57, 40
1, 680347, Note_on_c, 0, 66, 52
1, 680361, Control_c, 0, 64, 76
1, 680376, Control_c, 0, 64, 60
1, 680391, Control_c, 0, 64, 38
1, 680406, Control_c, 0, 64, 36
1, 680420, Control_c, 0, 64, 45
1, 680435, Control_c, 0, 64, 59
1, 680450, Control_c, 0, 64, 68
1, 680464, Control_c, 0, 64, 78
1, 680479, Control_c, 0, 64, 99
1, 680490, Note_off_c, 0, 64, 61
1, 680494, Control_c, 0, 64, 127
1, 680594, Note_off_c, 0, 47, 34
1, 680653, Note_off_c, 0, 57, 55
1, 680659, Note_on_c, 0, 59, 52
1, 680662, Note_on_c, 0, 68, 57
1, 680663, Note_off_c, 0, 66, 59
1, 680695, Note_off_c, 0, 59, 63
1, 680699, Note_off_c, 0, 68, 64
1, 680945, Note_on_c, 0, 78, 75
1, 680969, Note_on_c, 0, 73, 43
1, 680973, Note_on_c, 0, 61, 48
1, 680973, Note_on_c, 0, 69, 40
1, 680995, Note_off_c, 0, 73, 58
1, 681095, Note_off_c, 0, 69, 45
1, 681237, Note_on_c, 0, 68, 37
1, 681288, Note_on_c, 0, 63, 40
1, 681309, Note_off_c, 0, 61, 53
1, 681337, Note_on_c, 0, 80, 75
1, 681396, Note_on_c, 0, 75, 42
1, 681398, Control_c, 0, 64, 72
1, 681413, Control_c, 0, 64, 55
1, 681417, Note_on_c, 0, 71, 43
1, 681428, Control_c, 0, 64, 41
1, 681429, Note_off_c, 0, 78, 63
1, 681438, Note_off_c, 0, 63, 63
1, 681442, Control_c, 0, 64, 46
1, 681457, Control_c, 0, 64, 57
1, 681472, Control_c, 0, 64, 66
1, 681486, Control_c, 0, 64, 79
1, 681501, Control_c, 0, 64, 127
1, 681584, Note_off_c, 0, 71, 64
1, 681607, Note_on_c, 0, 59, 62
1, 681625, Note_off_c, 0, 75, 61
1, 681637, Note_off_c, 0, 68, 46
1, 681639, Note_off_c, 0, 59, 64
1, 681844, Note_on_c, 0, 78, 80
1, 681858, Note_on_c, 0, 64, 49
1, 681860, Note_on_c, 0, 69, 55
1, 681863, Note_on_c, 0, 73, 55
1, 681882, Note_off_c, 0, 80, 64
1, 681933, Note_off_c, 0, 73, 58
1, 682076, Note_off_c, 0, 69, 62
1, 682083, Note_off_c, 0, 64, 57
1, 682236, Note_on_c, 0, 71, 32
1, 682248, Note_on_c, 0, 80, 71
1, 682257, Note_on_c, 0, 65, 45
1, 682269, Note_on_c, 0, 68, 45
1, 682276, Note_on_c, 0, 75, 51
1, 682295, Control_c, 0, 64, 88
1, 682309, Note_off_c, 0, 78, 60
1, 682309, Control_c, 0, 64, 64
1, 682324, Control_c, 0, 64, 25
1, 682339, Control_c, 0, 64, 0
1, 682354, Control_c, 0, 64, 12
1, 682369, Control_c, 0, 64, 50
1, 682383, Control_c, 0, 64, 64
1, 682397, Note_off_c, 0, 68, 62
1, 682398, Control_c, 0, 64, 76
1, 682404, Note_off_c, 0, 65, 64
1, 682413, Control_c, 0, 64, 127
1, 682609, Note_on_c, 0, 59, 48
1, 682626, Note_off_c, 0, 75, 62
1, 682686, Note_off_c, 0, 80, 61
1, 682716, Note_off_c, 0, 71, 52
1, 682722, Note_off_c, 0, 59, 55
1, 682937, Note_on_c, 0, 66, 42
1, 682951, Note_on_c, 0, 69, 41
1, 682958, Note_on_c, 0, 83, 60
1, 683006, Note_off_c, 0, 69, 61
1, 683010, Note_on_c, 0, 73, 35
1, 683017, Note_on_c, 0, 76, 8
1, 683026, Note_off_c, 0, 66, 62
1, 683059, Note_off_c, 0, 76, 51
1, 683084, Note_off_c, 0, 83, 65
1, 683126, Note_off_c, 0, 73, 64
1, 683435, Note_on_c, 0, 40, 36
1, 683471, Note_on_c, 0, 76, 30
1, 683474, Note_on_c, 0, 80, 50
1, 683482, Note_on_c, 0, 71, 38
1, 683489, Note_on_c, 0, 68, 33
1, 683533, Control_c, 0, 64, 80
1, 683547, Control_c, 0, 64, 62
1, 683562, Control_c, 0, 64, 38
1, 683577, Control_c, 0, 64, 9
1, 683592, Control_c, 0, 64, 14
1, 683614, Control_c, 0, 64, 41
1, 683629, Control_c, 0, 64, 61
1, 683644, Control_c, 0, 64, 68
1, 683658, Control_c, 0, 64, 78
1, 683673, Control_c, 0, 64, 96
1, 683688, Control_c, 0, 64, 127
1, 683704, Poly_aftertouch_c, 0, 74, 127
1, 683799, Note_off_c, 0, 80, 63
1, 683824, Note_off_c, 0, 40, 43
1, 683827, Note_off_c, 0, 76, 54
1, 683834, Note_off_c, 0, 68, 46
1, 683843, Note_off_c, 0, 71, 59
1, 683844, Poly_aftertouch_c, 0, 74, 0
1, 683866, Note_on_c, 0, 47, 40
1, 684132, Note_off_c, 0, 47, 39
1, 684149, Note_on_c, 0, 56, 34
1, 684164, Note_on_c, 0, 59, 40
1, 684251, Note_off_c, 0, 56, 54
1, 684430, Note_off_c, 0, 59, 64
1, 684445, Note_on_c, 0, 57, 41
1, 684469, Note_on_c, 0, 66, 58
1, 684699, Note_on_c, 0, 68, 58
1, 684702, Note_on_c, 0, 59, 49
1, 684718, Note_off_c, 0, 57, 59
1, 684742, Note_off_c, 0, 66, 34
1, 684744, Note_off_c, 0, 68, 61
1, 684760, Note_off_c, 0, 59, 62
1, 685004, Note_on_c, 0, 78, 74
1, 685009, Note_on_c, 0, 73, 32
1, 685012, Note_on_c, 0, 61, 50
1, 685027, Note_on_c, 0, 69, 55
1, 685065, Note_off_c, 0, 73, 63
1, 685277, Note_off_c, 0, 69, 38
1, 685289, Note_on_c, 0, 68, 42
1, 685313, Note_on_c, 0, 63, 46
1, 685334, Control_c, 0, 64, 87
1, 685349, Control_c, 0, 64, 62
1, 685354, Note_on_c, 0, 80, 69
1, 685364, Control_c, 0, 64, 29
1, 685379, Control_c, 0, 64, 28
1, 685381, Note_on_c, 0, 71, 52
1, 685385, Note_off_c, 0, 61, 53
1, 685394, Control_c, 0, 64, 46
1, 685395, Note_on_c, 0, 75, 44
1, 685408, Note_off_c, 0, 63, 63
1, 685408, Control_c, 0, 64, 61
1, 685423, Control_c, 0, 64, 70
1, 685427, Note_off_c, 0, 78, 62
1, 685438, Control_c, 0, 64, 84
1, 685453, Control_c, 0, 64, 114
1, 685468, Control_c, 0, 64, 127
1, 685578, Note_off_c, 0, 71, 63
1, 685597, Note_on_c, 0, 59, 57
1, 685604, Note_off_c, 0, 75, 60
1, 685632, Note_off_c, 0, 59, 63
1, 685653, Note_off_c, 0, 68, 34
1, 685875, Note_on_c, 0, 73, 51
1, 685881, Note_on_c, 0, 78, 69
1, 685885, Note_on_c, 0, 69, 44
1, 685907, Note_on_c, 0, 64, 48
1, 685930, Note_off_c, 0, 80, 62
1, 685961, Note_off_c, 0, 73, 55
1, 686088, Note_off_c, 0, 69, 61
1, 686115, Note_off_c, 0, 64, 55
1, 686162, Note_off_c, 0, 78, 62
1, 686269, Note_on_c, 0, 80, 58
1, 686285, Note_on_c, 0, 71, 37
1, 686287, Note_on_c, 0, 68, 36
1, 686293, Note_on_c, 0, 75, 46
1, 686305, Control_c, 0, 64, 100
1, 686318, Note_on_c, 0, 65, 46
1, 686320, Control_c, 0, 64, 69
1, 686335, Control_c, 0, 64, 56
1, 686350, Control_c, 0, 64, 51
1, 686365, Control_c, 0, 64, 53
1, 686380, Control_c, 0, 64, 59
1, 686395, Control_c, 0, 64, 63
1, 686410, Control_c, 0, 64, 68
1, 686424, Control_c, 0, 64, 76
1, 686431, Note_off_c, 0, 65, 63
1, 686439, Control_c, 0, 64, 88
1, 686442, Note_off_c, 0, 68, 58
1, 686454, Control_c, 0, 64, 115
1, 686468, Control_c, 0, 64, 127
1, 686566, Note_off_c, 0, 75, 61
1, 686577, Note_off_c, 0, 80, 63
1, 686657, Note_on_c, 0, 59, 46
1, 686794, Note_off_c, 0, 71, 33
1, 686796, Note_off_c, 0, 59, 35
1, 687018, Note_on_c, 0, 66, 38
1, 687076, Note_on_c, 0, 69, 13
1, 687081, Note_on_c, 0, 83, 44
1, 687107, Note_on_c, 0, 73, 43
1, 687110, Note_on_c, 0, 76, 32
1, 687118, Note_off_c, 0, 69, 50
1, 687152, Note_off_c, 0, 76, 63
1, 687172, Note_off_c, 0, 83, 65
1, 687177, Note_off_c, 0, 66, 34
1, 687207, Note_off_c, 0, 73, 63
1, 687596, Note_on_c, 0, 40, 32
1, 687653, Note_on_c, 0, 80, 42
1, 687665, Note_on_c, 0, 68, 22
1, 687683, Note_on_c, 0, 71, 36
1, 687696, Note_on_c, 0, 76, 17
1, 687715, Control_c, 0, 64, 78
1, 687729, Control_c, 0, 64, 64
1, 687744, Control_c, 0, 64, 52
1, 687758, Control_c, 0, 64, 48
1, 687773, Control_c, 0, 64, 53
1, 687788, Control_c, 0, 64, 61
1, 687802, Control_c, 0, 64, 67
1, 687817, Control_c, 0, 64, 77
1, 687832, Control_c, 0, 64, 98
1, 687847, Control_c, 0, 64, 127
1, 687861, Note_off_c, 0, 71, 64
1, 687882, Note_off_c, 0, 80, 63
1, 687884, Note_off_c, 0, 76, 58
1, 687924, Note_off_c, 0, 68, 55
1, 688118, Note_off_c, 0, 40, 47
1, 688153, Note_on_c, 0, 47, 35
1, 688154, Note_on_c, 0, 59, 36
1, 688243, Note_off_c, 0, 47, 54
1, 688330, Note_off_c, 0, 59, 53
1, 688404, Note_on_c, 0, 56, 41
1, 688416, Note_on_c, 0, 64, 45
1, 688481, Note_off_c, 0, 56, 61
1, 688482, Note_off_c, 0, 64, 62
1, 688732, Note_on_c, 0, 61, 43
1, 688785, Note_on_c, 0, 76, 58
1, 688792, Note_on_c, 0, 69, 23
1, 689018, Note_on_c, 0, 68, 57
1, 689025, Note_on_c, 0, 59, 42
1, 689045, Note_off_c, 0, 61, 37
1, 689133, Note_off_c, 0, 69, 41
1, 689150, Note_off_c, 0, 68, 54
1, 689246, Note_on_c, 0, 64, 53
1, 689251, Note_on_c, 0, 73, 68
1, 689260, Note_off_c, 0, 59, 34
1, 689281, Note_off_c, 0, 64, 65
1, 689310, Note_off_c, 0, 73, 64
1, 689553, Control_c, 0, 64, 102
1, 689567, Control_c, 0, 64, 71
1, 689581, Note_on_c, 0, 75, 60
1, 689582, Control_c, 0, 64, 58
1, 689599, Note_on_c, 0, 66, 54
1, 689605, Note_on_c, 0, 71, 41
1, 689605, Control_c, 0, 64, 59
1, 689620, Control_c, 0, 64, 62
1, 689635, Control_c, 0, 64, 69
1, 689649, Control_c, 0, 64, 84
1, 689654, Note_on_c, 0, 68, 19
1, 689664, Control_c, 0, 64, 127
1, 689680, Note_off_c, 0, 71, 63
1, 689683, Note_off_c, 0, 75, 63
1, 689691, Note_off_c, 0, 66, 62
1, 689699, Note_off_c, 0, 68, 40
1, 689799, Note_off_c, 0, 76, 65
1, 689882, Note_on_c, 0, 59, 58
1, 689913, Note_on_c, 0, 60, 38
1, 689936, Note_off_c, 0, 59, 60
1, 689941, Note_off_c, 0, 60, 57
1, 690112, Note_on_c, 0, 78, 85
1, 690392, Note_on_c, 0, 74, 45
1, 690400, Note_on_c, 0, 71, 44
1, 690404, Note_on_c, 0, 66, 52
1, 690413, Note_on_c, 0, 68, 46
1, 690487, Control_c, 0, 64, 79
1, 690502, Control_c, 0, 64, 66
1, 690505, Note_on_c, 0, 80, 83
1, 690517, Control_c, 0, 64, 64
1, 690531, Control_c, 0, 64, 67
1, 690546, Control_c, 0, 64, 74
1, 690561, Control_c, 0, 64, 92
1, 690576, Control_c, 0, 64, 127
1, 690881, Note_on_c, 0, 65, 62
1, 690980, Note_off_c, 0, 78, 23
1, 691001, Note_off_c, 0, 65, 62
1, 691011, Note_off_c, 0, 66, 59
1, 691081, Note_off_c, 0, 74, 63
1, 691113, Note_off_c, 0, 68, 54
1, 691177, Note_on_c, 0, 64, 55
1, 691218, Note_off_c, 0, 71, 55
1, 691244, Note_on_c, 0, 83, 70
1, 691275, Note_off_c, 0, 64, 62
1, 691285, Note_off_c, 0, 80, 62
1, 691318, Note_off_c, 0, 83, 64
1, 691661, Note_on_c, 0, 61, 51
1, 691665, Note_on_c, 0, 73, 46
1, 691666, Note_on_c, 0, 40, 38
1, 691666, Note_on_c, 0, 76, 55
1, 691689, Note_on_c, 0, 68, 46
1, 691710, Control_c, 0, 64, 93
1, 691724, Control_c, 0, 64, 68
1, 691739, Control_c, 0, 64, 57
1, 691754, Control_c, 0, 64, 52
1, 691768, Control_c, 0, 64, 54
1, 691783, Control_c, 0, 64, 59
1, 691798, Control_c, 0, 64, 65
1, 691813, Control_c, 0, 64, 75
1, 691828, Control_c, 0, 64, 93
1, 691850, Control_c, 0, 64, 127
1, 691869, Note_off_c, 0, 76, 65
1, 691891, Note_off_c, 0, 73, 64
1, 691916, Note_off_c, 0, 68, 59
1, 691924, Note_off_c, 0, 61, 63
1, 692065, Note_off_c, 0, 40, 46
1, 692085, Note_on_c, 0, 56, 51
1, 692224, Note_off_c, 0, 56, 62
1, 692269, Note_on_c, 0, 49, 41
1, 692322, Note_on_c, 0, 61, 62
1, 692336, Note_off_c, 0, 49, 62
1, 692389, Note_off_c, 0, 61, 62
1, 692602, Note_on_c, 0, 57, 47
1, 692639, Note_on_c, 0, 66, 60
1, 692804, Note_off_c, 0, 57, 62
1, 692840, Note_on_c, 0, 64, 68
1, 692868, Note_on_c, 0, 56, 46
1, 692888, Note_off_c, 0, 66, 62
1, 692920, Note_off_c, 0, 56, 63
1, 692987, Note_off_c, 0, 64, 61
1, 692989, Note_on_c, 0, 63, 23
1, 693029, Note_off_c, 0, 63, 46
1, 693064, Note_on_c, 0, 75, 80
1, 693095, Note_on_c, 0, 64, 66
1, 693123, Note_off_c, 0, 64, 67
1, 693382, Note_on_c, 0, 72, 51
1, 693385, Note_on_c, 0, 68, 53
1, 693393, Note_on_c, 0, 61, 51
1, 693410, Note_on_c, 0, 63, 48
1, 693445, Note_on_c, 0, 76, 80
1, 693445, Note_off_c, 0, 75, 63
1, 693452, Control_c, 0, 64, 92
1, 693467, Control_c, 0, 64, 66
1, 693482, Control_c, 0, 64, 43
1, 693496, Control_c, 0, 64, 34
1, 693511, Control_c, 0, 64, 43
1, 693526, Control_c, 0, 64, 59
1, 693540, Control_c, 0, 64, 67
1, 693555, Control_c, 0, 64, 79
1, 693570, Control_c, 0, 64, 110
1, 693572, Note_off_c, 0, 72, 65
1, 693585, Control_c, 0, 64, 127
1, 693620, Note_off_c, 0, 61, 60
1, 693663, Note_off_c, 0, 68, 61
1, 693680, Note_off_c, 0, 63, 54
1, 693758, Note_on_c, 0, 75, 77
1, 693803, Note_off_c, 0, 76, 58
1, 693960, Note_on_c, 0, 56, 51
1, 693999, Note_on_c, 0, 76, 82
1, 694038, Note_off_c, 0, 75, 63
1, 694238, Note_on_c, 0, 71, 46
1, 694258, Note_on_c, 0, 62, 43
1, 694263, Note_on_c, 0, 64, 46
1, 694306, Note_on_c, 0, 78, 78
1, 694318, Note_off_c, 0, 56, 33
1, 694357, Note_off_c, 0, 71, 59
1, 694433, Note_off_c, 0, 76, 60
1, 694539, Note_on_c, 0, 79, 77
1, 694558, Note_off_c, 0, 78, 61
1, 694568, Note_off_c, 0, 64, 50
1, 694645, Note_off_c, 0, 62, 32
1, 694709, Note_on_c, 0, 56, 49
1, 694783, Note_on_c, 0, 80, 71
1, 694783, Note_off_c, 0, 79, 63
1, 694784, Note_off_c, 0, 56, 63
1, 694855, Note_off_c, 0, 80, 64
1, 695140, Note_on_c, 0, 40, 42
1, 695155, Note_on_c, 0, 28, 35
1, 695160, Note_on_c, 0, 71, 57
1, 695197, Note_on_c, 0, 61, 35
1, 695203, Note_on_c, 0, 64, 40
1, 695230, Control_c, 0, 64, 77
1, 695245, Control_c, 0, 64, 61
1, 695260, Control_c, 0, 64, 43
1, 695275, Control_c, 0, 64, 46
1, 695290, Control_c, 0, 64, 54
1, 695305, Control_c, 0, 64, 63
1, 695319, Control_c, 0, 64, 69
1, 695320, Note_off_c, 0, 28, 54
1, 695334, Control_c, 0, 64, 78
1, 695349, Control_c, 0, 64, 93
1, 695360, Note_off_c, 0, 40, 51
1, 695364, Control_c, 0, 64, 112
1, 695379, Control_c, 0, 64, 127
1, 695633, Note_on_c, 0, 47, 41
1, 695803, Note_off_c, 0, 61, 37
1, 695869, Note_off_c, 0, 64, 38
1, 695898, Poly_aftertouch_c, 0, 69, 127
1, 695904, Note_on_c, 0, 54, 52
1, 695925, Note_off_c, 0, 47, 39
1, 695944, Note_off_c, 0, 54, 64
1, 695992, Poly_aftertouch_c, 0, 69, 0
1, 696154, Note_on_c, 0, 57, 54
1, 696306, Control_c, 0, 64, 111
1, 696321, Control_c, 0, 64, 104
1, 696344, Control_c, 0, 64, 101
1, 696359, Control_c, 0, 64, 100
1, 696373, Control_c, 0, 64, 99
1, 696388, Control_c, 0, 64, 97
1, 696403, Control_c, 0, 64, 95
1, 696418, Control_c, 0, 64, 92
1, 696425, Note_on_c, 0, 59, 46
1, 696433, Control_c, 0, 64, 90
1, 696447, Control_c, 0, 64, 89
1, 696458, Note_off_c, 0, 57, 51
1, 696507, Control_c, 0, 64, 88
1, 696521, Control_c, 0, 64, 87
1, 696536, Control_c, 0, 64, 84
1, 696551, Control_c, 0, 64, 82
1, 696566, Control_c, 0, 64, 79
1, 696581, Control_c, 0, 64, 78
1, 696610, Control_c, 0, 64, 79
1, 696640, Control_c, 0, 64, 81
1, 696655, Control_c, 0, 64, 89
1, 696670, Control_c, 0, 64, 104
1, 696685, Control_c, 0, 64, 127
1, 696736, Note_on_c, 0, 61, 52
1, 696834, Note_off_c, 0, 59, 37
1, 696876, Poly_aftertouch_c, 0, 53, 127
1, 696921, Control_c, 0, 64, 120
1, 696936, Control_c, 0, 64, 110
1, 696950, Control_c, 0, 64, 106
1, 696965, Control_c, 0, 64, 102
1, 696980, Control_c, 0, 64, 101
1, 696995, Control_c, 0, 64, 99
1, 697010, Control_c, 0, 64, 98
1, 697025, Control_c, 0, 64, 97
1, 697040, Control_c, 0, 64, 96
1, 697055, Control_c, 0, 64, 95
1, 697070, Control_c, 0, 64, 94
1, 697090, Note_off_c, 0, 61, 55
1, 697093, Control_c, 0, 64, 93
1, 697108, Control_c, 0, 64, 92
1, 697123, Control_c, 0, 64, 91
1, 697152, Control_c, 0, 64, 90
1, 697165, Note_on_c, 0, 59, 30
1, 697167, Control_c, 0, 64, 89
1, 697182, Control_c, 0, 64, 88
1, 697196, Control_c, 0, 64, 88
1, 697211, Control_c, 0, 64, 87
1, 697252, Note_on_c, 0, 68, 48
1, 697256, Control_c, 0, 64, 87
1, 697261, Note_on_c, 0, 64, 38
1, 697270, Control_c, 0, 64, 83
1, 697285, Control_c, 0, 64, 72
1, 697300, Control_c, 0, 64, 62
1, 697315, Control_c, 0, 64, 45
1, 697330, Control_c, 0, 64, 38
1, 697344, Control_c, 0, 64, 41
1, 697359, Control_c, 0, 64, 52
1, 697374, Control_c, 0, 64, 60
1, 697385, Poly_aftertouch_c, 0, 53, 0
1, 697388, Control_c, 0, 64, 64
1, 697403, Control_c, 0, 64, 66
1, 697418, Control_c, 0, 64, 68
1, 697427, Note_off_c, 0, 71, 64
1, 697433, Control_c, 0, 64, 69
1, 697448, Control_c, 0, 64, 71
1, 697463, Control_c, 0, 64, 74
1, 697478, Control_c, 0, 64, 80
1, 697493, Control_c, 0, 64, 88
1, 697508, Control_c, 0, 64, 99
1, 697523, Control_c, 0, 64, 116
1, 697537, Control_c, 0, 64, 127
1, 697793, Note_on_c, 0, 47, 26
1, 697851, Note_off_c, 0, 59, 30
1, 697896, Note_on_c, 0, 73, 61
1, 697965, Note_off_c, 0, 64, 64
1, 698000, Note_off_c, 0, 68, 53
1, 698138, Control_c, 0, 64, 125
1, 698153, Control_c, 0, 64, 119
1, 698167, Control_c, 0, 64, 117
1, 698177, Note_on_c, 0, 59, 30
1, 698182, Control_c, 0, 64, 115
1, 698226, Control_c, 0, 64, 115
1, 698229, Note_on_c, 0, 71, 50
1, 698241, Control_c, 0, 64, 114
1, 698256, Control_c, 0, 64, 110
1, 698271, Control_c, 0, 64, 95
1, 698280, Note_on_c, 0, 63, 38
1, 698285, Control_c, 0, 64, 75
1, 698287, Note_off_c, 0, 73, 52
1, 698300, Control_c, 0, 64, 62
1, 698315, Control_c, 0, 64, 45
1, 698330, Control_c, 0, 64, 38
1, 698345, Control_c, 0, 64, 42
1, 698359, Control_c, 0, 64, 53
1, 698374, Control_c, 0, 64, 61
1, 698389, Control_c, 0, 64, 65
1, 698403, Control_c, 0, 64, 69
1, 698418, Control_c, 0, 64, 73
1, 698433, Control_c, 0, 64, 77
1, 698448, Control_c, 0, 64, 82
1, 698463, Control_c, 0, 64, 88
1, 698476, Note_off_c, 0, 63, 49
1, 698477, Control_c, 0, 64, 95
1, 698492, Control_c, 0, 64, 103
1, 698507, Control_c, 0, 64, 127
1, 698534, Note_off_c, 0, 59, 53
1, 698826, Note_on_c, 0, 58, 32
1, 698885, Note_off_c, 0, 47, 19
1, 698930, Note_off_c, 0, 58, 58
1, 698933, Note_on_c, 0, 62, 37
1, 698933, Note_on_c, 0, 76, 63
1, 698963, Note_on_c, 0, 67, 17
1, 699020, Note_off_c, 0, 71, 60
1, 699047, Note_off_c, 0, 76, 64
1, 699049, Note_off_c, 0, 67, 60
1, 699132, Note_off_c, 0, 62, 62
1, 699404, Note_on_c, 0, 40, 34
1, 699455, Note_on_c, 0, 28, 37
1, 699468, Note_on_c, 0, 68, 49
1, 699487, Note_on_c, 0, 57, 30
1, 699487, Control_c, 0, 64, 97
1, 699502, Control_c, 0, 64, 74
1, 699511, Note_on_c, 0, 66, 23
1, 699517, Control_c, 0, 64, 63
1, 699519, Note_on_c, 0, 61, 28
1, 699531, Control_c, 0, 64, 58
1, 699546, Control_c, 0, 64, 59
1, 699561, Control_c, 0, 64, 62
1, 699575, Control_c, 0, 64, 66
1, 699590, Control_c, 0, 64, 71
1, 699605, Control_c, 0, 64, 79
1, 699620, Control_c, 0, 64, 86
1, 699635, Control_c, 0, 64, 94
1, 699649, Control_c, 0, 64, 99
1, 699657, Note_off_c, 0, 28, 40
1, 699664, Control_c, 0, 64, 103
1, 699669, Poly_aftertouch_c, 0, 63, 127
1, 699679, Control_c, 0, 64, 108
1, 699694, Control_c, 0, 64, 119
1, 699707, Note_off_c, 0, 40, 38
1, 699709, Control_c, 0, 64, 127
1, 700002, Note_on_c, 0, 47, 37
1, 700028, Note_off_c, 0, 57, 40
1, 700197, Poly_aftertouch_c, 0, 63, 0
1, 700259, Note_off_c, 0, 61, 40
1, 700268, Note_on_c, 0, 54, 47
1, 700322, Note_off_c, 0, 47, 38
1, 700337, Note_off_c, 0, 54, 58
1, 700533, Note_on_c, 0, 56, 46
1, 700710, Control_c, 0, 64, 119
1, 700725, Control_c, 0, 64, 115
1, 700740, Control_c, 0, 64, 115
1, 700754, Control_c, 0, 64, 112
1, 700769, Control_c, 0, 64, 108
1, 700770, Note_on_c, 0, 57, 45
1, 700784, Control_c, 0, 64, 105
1, 700793, Note_off_c, 0, 56, 37
1, 700799, Control_c, 0, 64, 103
1, 700814, Control_c, 0, 64, 101
1, 700836, Control_c, 0, 64, 99
1, 700851, Control_c, 0, 64, 98
1, 700866, Control_c, 0, 64, 96
1, 700880, Control_c, 0, 64, 94
1, 700895, Control_c, 0, 64, 92
1, 700910, Control_c, 0, 64, 91
1, 700925, Control_c, 0, 64, 90
1, 700928, Note_off_c, 0, 68, 28
1, 700940, Control_c, 0, 64, 87
1, 700954, Control_c, 0, 64, 86
1, 700969, Control_c, 0, 64, 84
1, 700984, Control_c, 0, 64, 82
1, 700999, Control_c, 0, 64, 81
1, 701006, Note_off_c, 0, 57, 60
1, 701013, Control_c, 0, 64, 81
1, 701028, Note_on_c, 0, 59, 44
1, 701028, Control_c, 0, 64, 80
1, 701058, Control_c, 0, 64, 80
1, 701073, Control_c, 0, 64, 79
1, 701089, Control_c, 0, 64, 78
1, 701103, Control_c, 0, 64, 78
1, 701177, Control_c, 0, 64, 77
1, 701252, Control_c, 0, 64, 77
1, 701368, Note_on_c, 0, 56, 29
1, 701400, Control_c, 0, 64, 74
1, 701415, Control_c, 0, 64, 67
1, 701418, Note_on_c, 0, 61, 35
1, 701429, Control_c, 0, 64, 58
1, 701434, Note_on_c, 0, 64, 43
1, 701444, Control_c, 0, 64, 45
1, 701459, Control_c, 0, 64, 42
1, 701472, Note_off_c, 0, 59, 37
1, 701474, Control_c, 0, 64, 45
1, 701489, Control_c, 0, 64, 54
1, 701503, Control_c, 0, 64, 61
1, 701518, Control_c, 0, 64, 64
1, 701533, Control_c, 0, 64, 66
1, 701548, Control_c, 0, 64, 68
1, 701563, Control_c, 0, 64, 70
1, 701585, Control_c, 0, 64, 73
1, 701600, Control_c, 0, 64, 78
1, 701615, Control_c, 0, 64, 84
1, 701621, Note_off_c, 0, 61, 53
1, 701629, Control_c, 0, 64, 93
1, 701640, Note_off_c, 0, 66, 39
1, 701644, Control_c, 0, 64, 105
1, 701659, Control_c, 0, 64, 127
1, 701699, Note_off_c, 0, 64, 54
1, 701930, Note_off_c, 0, 56, 41
1, 701950, Note_on_c, 0, 47, 28
1, 702062, Note_on_c, 0, 69, 51
1, 702087, Note_on_c, 0, 64, 33
1, 702135, Poly_aftertouch_c, 0, 60, 127
1, 702170, Note_off_c, 0, 64, 54
1, 702170, Poly_aftertouch_c, 0, 60, 0
1, 702222, Control_c, 0, 64, 122
1, 702266, Control_c, 0, 64, 120
1, 702316, Note_off_c, 0, 69, 54
1, 702333, Control_c, 0, 64, 122
1, 702363, Control_c, 0, 64, 116
1, 702371, Note_on_c, 0, 68, 46
1, 702377, Control_c, 0, 64, 96
1, 702392, Control_c, 0, 64, 77
1, 702395, Note_on_c, 0, 56, 32
1, 702407, Control_c, 0, 64, 65
1, 702418, Note_on_c, 0, 59, 16
1, 702422, Control_c, 0, 64, 56
1, 702432, Note_on_c, 0, 64, 23
1, 702437, Control_c, 0, 64, 48
1, 702451, Control_c, 0, 64, 50
1, 702466, Control_c, 0, 64, 56
1, 702481, Control_c, 0, 64, 62
1, 702496, Control_c, 0, 64, 66
1, 702511, Control_c, 0, 64, 70
1, 702525, Control_c, 0, 64, 74
1, 702540, Control_c, 0, 64, 77
1, 702555, Control_c, 0, 64, 80
1, 702570, Control_c, 0, 64, 83
1, 702584, Control_c, 0, 64, 86
1, 702599, Control_c, 0, 64, 90
1, 702614, Control_c, 0, 64, 98
1, 702617, Note_off_c, 0, 68, 54
1, 702629, Control_c, 0, 64, 110
1, 702644, Control_c, 0, 64, 127
1, 702659, Note_off_c, 0, 59, 48
1, 702705, Note_off_c, 0, 56, 40
1, 702712, Note_off_c, 0, 64, 40
1, 702882, Note_off_c, 0, 47, 38
1, 702944, Note_on_c, 0, 55, 38
1, 703045, Note_off_c, 0, 55, 56
1, 703062, Note_on_c, 0, 73, 44
1, 703064, Note_on_c, 0, 64, 34
1, 703085, Note_on_c, 0, 58, 32
1, 703156, Note_off_c, 0, 64, 59
1, 703163, Note_off_c, 0, 73, 62
1, 703255, Note_off_c, 0, 58, 53
1, 703580, Note_on_c, 0, 40, 30
1, 703595, Note_on_c, 0, 28, 31
1, 703602, Note_on_c, 0, 57, 32
1, 703602, Note_on_c, 0, 64, 44
1, 703610, Note_on_c, 0, 54, 32
1, 703620, Note_on_c, 0, 62, 37
1, 703645, Control_c, 0, 64, 86
1, 703660, Control_c, 0, 64, 68
1, 703675, Control_c, 0, 64, 56
1, 703690, Control_c, 0, 64, 42
1, 703705, Control_c, 0, 64, 40
1, 703720, Control_c, 0, 64, 46
1, 703735, Control_c, 0, 64, 57
1, 703750, Control_c, 0, 64, 62
1, 703765, Control_c, 0, 64, 66
1, 703779, Control_c, 0, 64, 69
1, 703794, Control_c, 0, 64, 73
1, 703809, Control_c, 0, 64, 78
1, 703829, Note_off_c, 0, 28, 41
1, 703830, Control_c, 0, 64, 86
1, 703845, Control_c, 0, 64, 94
1, 703860, Control_c, 0, 64, 104
1, 703875, Control_c, 0, 64, 127
1, 703914, Note_off_c, 0, 40, 41
1, 704201, Control_c, 0, 64, 117
1, 704215, Control_c, 0, 64, 113
1, 704230, Control_c, 0, 64, 110
1, 704245, Control_c, 0, 64, 109
1, 704259, Control_c, 0, 64, 108
1, 704275, Control_c, 0, 64, 108
1, 704279, Note_on_c, 0, 47, 41
1, 704290, Control_c, 0, 64, 107
1, 704305, Control_c, 0, 64, 106
1, 704319, Control_c, 0, 64, 105
1, 704334, Control_c, 0, 64, 104
1, 704349, Control_c, 0, 64, 102
1, 704364, Control_c, 0, 64, 100
1, 704379, Control_c, 0, 64, 99
1, 704394, Control_c, 0, 64, 98
1, 704453, Control_c, 0, 64, 98
1, 704468, Control_c, 0, 64, 97
1, 704483, Control_c, 0, 64, 95
1, 704498, Control_c, 0, 64, 94
1, 704513, Control_c, 0, 64, 94
1, 704527, Control_c, 0, 64, 93
1, 704579, Control_c, 0, 64, 93
1, 704594, Control_c, 0, 64, 92
1, 704608, Control_c, 0, 64, 91
1, 704623, Control_c, 0, 64, 91
1, 704638, Control_c, 0, 64, 90
1, 704659, Note_on_c, 0, 49, 34
1, 704683, Control_c, 0, 64, 89
1, 704713, Control_c, 0, 64, 89
1, 704721, Note_off_c, 0, 54, 43
1, 704727, Control_c, 0, 64, 88
1, 704742, Control_c, 0, 64, 87
1, 704757, Control_c, 0, 64, 85
1, 704771, Control_c, 0, 64, 83
1, 704786, Control_c, 0, 64, 82
1, 704846, Control_c, 0, 64, 82
1, 704860, Control_c, 0, 64, 81
1, 704875, Control_c, 0, 64, 80
1, 704890, Control_c, 0, 64, 80
1, 704919, Control_c, 0, 64, 79
1, 704921, Note_on_c, 0, 50, 52
1, 704942, Note_off_c, 0, 49, 36
1, 704949, Control_c, 0, 64, 79
1, 704951, Note_off_c, 0, 57, 36
1, 704978, Control_c, 0, 64, 78
1, 704990, Note_off_c, 0, 47, 35
1, 704993, Control_c, 0, 64, 78
1, 705008, Control_c, 0, 64, 77
1, 705038, Control_c, 0, 64, 77
1, 705052, Control_c, 0, 64, 76
1, 705062, Note_off_c, 0, 62, 37
1, 705068, Control_c, 0, 64, 76
1, 705083, Control_c, 0, 64, 75
1, 705098, Control_c, 0, 64, 75
1, 705113, Control_c, 0, 64, 74
1, 705128, Control_c, 0, 64, 74
1, 705169, Note_on_c, 0, 54, 53
1, 705172, Control_c, 0, 64, 73
1, 705183, Note_off_c, 0, 50, 63
1, 705216, Control_c, 0, 64, 73
1, 705261, Control_c, 0, 64, 72
1, 705443, Note_off_c, 0, 54, 64
1, 705476, Control_c, 0, 64, 73
1, 705505, Control_c, 0, 64, 73
1, 705513, Note_on_c, 0, 52, 39
1, 705535, Control_c, 0, 64, 72
1, 705550, Control_c, 0, 64, 69
1, 705565, Control_c, 0, 64, 63
1, 705580, Control_c, 0, 64, 51
1, 705585, Note_on_c, 0, 61, 45
1, 705592, Note_on_c, 0, 57, 37
1, 705594, Control_c, 0, 64, 37
1, 705609, Control_c, 0, 64, 38
1, 705624, Control_c, 0, 64, 46
1, 705639, Control_c, 0, 64, 57
1, 705654, Control_c, 0, 64, 63
1, 705661, Note_off_c, 0, 52, 66
1, 705668, Control_c, 0, 64, 67
1, 705683, Control_c, 0, 64, 71
1, 705698, Control_c, 0, 64, 75
1, 705699, Note_off_c, 0, 64, 64
1, 705713, Control_c, 0, 64, 78
1, 705728, Control_c, 0, 64, 80
1, 705742, Control_c, 0, 64, 83
1, 705757, Control_c, 0, 64, 86
1, 705771, Note_off_c, 0, 57, 56
1, 705772, Control_c, 0, 64, 90
1, 705787, Control_c, 0, 64, 93
1, 705801, Control_c, 0, 64, 95
1, 705816, Control_c, 0, 64, 95
1, 705925, Note_on_c, 0, 40, 41
1, 705951, Control_c, 0, 64, 96
1, 706009, Control_c, 0, 64, 95
1, 706077, Control_c, 0, 64, 95
1, 706106, Control_c, 0, 64, 94
1, 706121, Control_c, 0, 64, 94
1, 706151, Control_c, 0, 64, 93
1, 706251, Note_on_c, 0, 51, 41
1, 706284, Control_c, 0, 64, 93
1, 706298, Control_c, 0, 64, 88
1, 706313, Control_c, 0, 64, 76
1, 706328, Control_c, 0, 64, 64
1, 706330, Note_on_c, 0, 66, 47
1, 706337, Note_on_c, 0, 60, 42
1, 706343, Control_c, 0, 64, 49
1, 706358, Control_c, 0, 64, 43
1, 706373, Control_c, 0, 64, 45
1, 706388, Control_c, 0, 64, 53
1, 706403, Control_c, 0, 64, 61
1, 706417, Control_c, 0, 64, 65
1, 706432, Control_c, 0, 64, 70
1, 706436, Note_off_c, 0, 61, 58
1, 706447, Control_c, 0, 64, 73
1, 706462, Control_c, 0, 64, 75
1, 706477, Control_c, 0, 64, 77
1, 706480, Note_off_c, 0, 60, 64
1, 706491, Control_c, 0, 64, 79
1, 706506, Control_c, 0, 64, 82
1, 706521, Control_c, 0, 64, 86
1, 706536, Control_c, 0, 64, 91
1, 706551, Control_c, 0, 64, 95
1, 706565, Control_c, 0, 64, 100
1, 706580, Control_c, 0, 64, 101
1, 706595, Control_c, 0, 64, 101
1, 706639, Control_c, 0, 64, 101
1, 706670, Control_c, 0, 64, 100
1, 706685, Control_c, 0, 64, 100
1, 706714, Control_c, 0, 64, 98
1, 706715, Note_off_c, 0, 66, 58
1, 706729, Control_c, 0, 64, 97
1, 706738, Note_on_c, 0, 64, 43
1, 706744, Control_c, 0, 64, 96
1, 706753, Note_on_c, 0, 59, 41
1, 706759, Control_c, 0, 64, 94
1, 706774, Control_c, 0, 64, 87
1, 706781, Note_on_c, 0, 56, 34
1, 706788, Control_c, 0, 64, 73
1, 706803, Control_c, 0, 64, 57
1, 706826, Control_c, 0, 64, 0
1, 706929, Control_c, 0, 64, 36
1, 706942, Note_off_c, 0, 51, 53
1, 706944, Control_c, 0, 64, 47
1, 706959, Control_c, 0, 64, 53
1, 706974, Control_c, 0, 64, 56
1, 706988, Control_c, 0, 64, 59
1, 707003, Control_c, 0, 64, 61
1, 707018, Control_c, 0, 64, 63
1, 707033, Control_c, 0, 64, 65
1, 707047, Control_c, 0, 64, 69
1, 707062, Control_c, 0, 64, 76
1, 707077, Control_c, 0, 64, 88
1, 707092, Control_c, 0, 64, 105
1, 707107, Control_c, 0, 64, 127
1, 707183, Note_on_c, 0, 50, 34
1, 707247, Note_off_c, 0, 56, 41
1, 707254, Note_off_c, 0, 59, 55
1, 707318, Note_off_c, 0, 64, 50
1, 707327, Note_off_c, 0, 40, 46
1, 707354, Note_off_c, 0, 50, 43
1, 707823, Note_on_c, 0, 73, 53
1, 707827, Control_c, 0, 64, 83
1, 707833, Note_on_c, 0, 58, 36
1, 707837, Note_on_c, 0, 64, 42
1, 707842, Control_c, 0, 64, 70
1, 707856, Note_on_c, 0, 55, 27
1, 707857, Note_on_c, 0, 49, 19
1, 707857, Control_c, 0, 64, 65
1, 707871, Control_c, 0, 64, 66
1, 707886, Control_c, 0, 64, 68
1, 707901, Control_c, 0, 64, 73
1, 707916, Control_c, 0, 64, 86
1, 707931, Control_c, 0, 64, 106
1, 707945, Control_c, 0, 64, 127
1, 707992, Note_off_c, 0, 55, 43
1, 708012, Note_off_c, 0, 73, 59
1, 708015, Note_off_c, 0, 49, 42
1, 708017, Note_off_c, 0, 64, 56
1, 708096, Note_off_c, 0, 58, 60
1, 708647, Note_on_c, 0, 57, 35
1, 708648, Note_on_c, 0, 59, 37
1, 708652, Note_on_c, 0, 52, 33
1, 708673, Note_on_c, 0, 49, 26
1, 708698, Note_on_c, 0, 28, 33
1, 708705, Note_on_c, 0, 40, 30
1, 708723, Control_c, 0, 64, 89
1, 708738, Control_c, 0, 64, 69
1, 708753, Control_c, 0, 64, 53
1, 708767, Control_c, 0, 64, 41
1, 708797, Control_c, 0, 64, 49
1, 708811, Control_c, 0, 64, 59
1, 708826, Control_c, 0, 64, 65
1, 708841, Control_c, 0, 64, 70
1, 708856, Control_c, 0, 64, 77
1, 708871, Control_c, 0, 64, 84
1, 708886, Control_c, 0, 64, 92
1, 708901, Control_c, 0, 64, 105
1, 708916, Control_c, 0, 64, 127
1, 708917, Note_off_c, 0, 28, 39
1, 708993, Note_off_c, 0, 40, 47
1, 709007, Note_off_c, 0, 49, 41
1, 709181, Note_off_c, 0, 57, 38
1, 709245, Note_off_c, 0, 52, 42
1, 709503, Note_off_c, 0, 59, 48
1, 709515, Note_on_c, 0, 54, 38
1, 709905, Note_on_c, 0, 57, 40
1, 709956, Note_off_c, 0, 54, 39
1, 710132, Control_c, 0, 64, 125
1, 710147, Control_c, 0, 64, 120
1, 710162, Control_c, 0, 64, 115
1, 710177, Control_c, 0, 64, 110
1, 710191, Control_c, 0, 64, 106
1, 710202, Note_off_c, 0, 57, 35
1, 710206, Note_on_c, 0, 61, 43
1, 710206, Control_c, 0, 64, 104
1, 710221, Control_c, 0, 64, 104
1, 710251, Control_c, 0, 64, 103
1, 710295, Control_c, 0, 64, 103
1, 710413, Control_c, 0, 64, 102
1, 710463, Note_on_c, 0, 64, 46
1, 710527, Note_off_c, 0, 61, 35
1, 710531, Control_c, 0, 64, 103
1, 710569, Control_c, 0, 64, 104
1, 710628, Control_c, 0, 64, 104
1, 710659, Control_c, 0, 64, 105
1, 710688, Control_c, 0, 64, 105
1, 710733, Control_c, 0, 64, 106
1, 710746, Note_on_c, 0, 69, 39
1, 710762, Control_c, 0, 64, 106
1, 710772, Note_on_c, 0, 85, 61
1, 710866, Control_c, 0, 64, 106
1, 710887, Note_off_c, 0, 64, 39
1, 710895, Control_c, 0, 64, 105
1, 710910, Control_c, 0, 64, 105
1, 710925, Control_c, 0, 64, 104
1, 710940, Control_c, 0, 64, 104
1, 710985, Control_c, 0, 64, 103
1, 711000, Control_c, 0, 64, 102
1, 711030, Control_c, 0, 64, 102
1, 711044, Control_c, 0, 64, 101
1, 711059, Control_c, 0, 64, 101
1, 711074, Control_c, 0, 64, 100
1, 711089, Control_c, 0, 64, 99
1, 711115, Note_on_c, 0, 57, 26
1, 711163, Control_c, 0, 64, 100
1, 711163, Note_on_c, 0, 59, 36
1, 711178, Control_c, 0, 64, 101
1, 711193, Control_c, 0, 64, 100
1, 711208, Control_c, 0, 64, 91
1, 711223, Note_on_c, 0, 75, 49
1, 711223, Control_c, 0, 64, 77
1, 711237, Control_c, 0, 64, 66
1, 711252, Control_c, 0, 64, 59
1, 711268, Note_off_c, 0, 69, 43
1, 711281, Control_c, 0, 64, 62
1, 711296, Control_c, 0, 64, 66
1, 711318, Control_c, 0, 64, 71
1, 711333, Control_c, 0, 64, 78
1, 711348, Note_off_c, 0, 85, 57
1, 711348, Control_c, 0, 64, 86
1, 711363, Control_c, 0, 64, 92
1, 711378, Control_c, 0, 64, 101
1, 711393, Control_c, 0, 64, 112
1, 711408, Control_c, 0, 64, 127
1, 711591, Note_on_c, 0, 68, 35
1, 711668, Note_off_c, 0, 59, 42
1, 711850, Note_on_c, 0, 63, 40
1, 711867, Note_off_c, 0, 68, 39
1, 712110, Note_on_c, 0, 61, 41
1, 712187, Note_off_c, 0, 63, 33
1, 712235, Note_off_c, 0, 75, 59
1, 712354, Note_off_c, 0, 57, 35
1, 712397, Note_off_c, 0, 61, 29
1, 712401, Note_on_c, 0, 59, 33
1, 712661, Note_on_c, 0, 57, 38
1, 712666, Note_on_c, 0, 73, 43
1, 712683, Note_off_c, 0, 59, 0
1, 712734, Note_off_c, 0, 73, 64
1, 712751, Note_off_c, 0, 57, 63
1, 712752, Poly_aftertouch_c, 0, 59, 0
1, 713154, Note_on_c, 0, 49, 33
1, 713154, Note_on_c, 0, 59, 42
1, 713176, Note_on_c, 0, 40, 30
1, 713226, Note_on_c, 0, 28, 29
1, 713230, Control_c, 0, 64, 85
1, 713245, Control_c, 0, 64, 67
1, 713260, Control_c, 0, 64, 59
1, 713289, Control_c, 0, 64, 62
1, 713304, Control_c, 0, 64, 66
1, 713319, Control_c, 0, 64, 75
1, 713334, Control_c, 0, 64, 90
1, 713349, Control_c, 0, 64, 127
1, 713470, Note_off_c, 0, 28, 39
1, 713485, Note_off_c, 0, 49, 35
1, 713521, Note_on_c, 0, 54, 37
1, 713524, Note_off_c, 0, 40, 46
1, 713823, Note_off_c, 0, 54, 42
1, 713831, Note_on_c, 0, 57, 35
1, 713927, Note_off_c, 0, 59, 25
1, 714073, Note_off_c, 0, 57, 32
1, 714107, Note_on_c, 0, 61, 40
1, 714356, Note_on_c, 0, 64, 41
1, 714462, Note_off_c, 0, 61, 38
1, 714659, Note_on_c, 0, 69, 34
1, 714660, Note_off_c, 0, 64, 31
1, 714689, Note_on_c, 0, 85, 46
1, 714935, Control_c, 0, 64, 122
1, 714950, Control_c, 0, 64, 120
1, 714965, Control_c, 0, 64, 119
1, 714985, Note_on_c, 0, 57, 28
1, 714995, Control_c, 0, 64, 120
1, 715009, Control_c, 0, 64, 122
1, 715024, Note_on_c, 0, 59, 37
1, 715024, Control_c, 0, 64, 125
1, 715039, Control_c, 0, 64, 127
1, 715062, Control_c, 0, 64, 112
1, 715077, Control_c, 0, 64, 92
1, 715091, Control_c, 0, 64, 73
1, 715092, Note_on_c, 0, 75, 44
1, 715106, Control_c, 0, 64, 64
1, 715121, Control_c, 0, 64, 60
1, 715135, Control_c, 0, 64, 61
1, 715145, Note_off_c, 0, 69, 43
1, 715150, Control_c, 0, 64, 64
1, 715165, Control_c, 0, 64, 67
1, 715180, Control_c, 0, 64, 73
1, 715195, Control_c, 0, 64, 80
1, 715209, Control_c, 0, 64, 87
1, 715224, Control_c, 0, 64, 92
1, 715239, Control_c, 0, 64, 95
1, 715247, Note_off_c, 0, 85, 27
1, 715253, Control_c, 0, 64, 99
1, 715268, Control_c, 0, 64, 103
1, 715283, Control_c, 0, 64, 114
1, 715298, Control_c, 0, 64, 127
1, 715436, Note_on_c, 0, 68, 26
1, 715539, Note_off_c, 0, 59, 40
1, 715684, Note_on_c, 0, 63, 37
1, 715788, Note_off_c, 0, 68, 37
1, 715987, Note_on_c, 0, 61, 42
1, 716067, Note_off_c, 0, 63, 28
1, 716231, Note_off_c, 0, 75, 54
1, 716327, Note_on_c, 0, 59, 37
1, 716400, Note_off_c, 0, 57, 38
1, 716436, Note_off_c, 0, 61, 37
1, 716680, Note_on_c, 0, 73, 52
1, 716688, Note_on_c, 0, 57, 37
1, 716782, Note_off_c, 0, 73, 63
1, 716798, Note_off_c, 0, 57, 60
1, 716801, Note_off_c, 0, 59, 20
1, 717277, Note_on_c, 0, 59, 49
1, 717347, Note_on_c, 0, 49, 25
1, 717355, Note_on_c, 0, 28, 30
1, 717379, Note_on_c, 0, 40, 24
1, 717397, Control_c, 0, 64, 108
1, 717411, Control_c, 0, 64, 81
1, 717426, Control_c, 0, 64, 66
1, 717441, Control_c, 0, 64, 60
1, 717456, Control_c, 0, 64, 58
1, 717471, Control_c, 0, 64, 60
1, 717486, Control_c, 0, 64, 64
1, 717501, Control_c, 0, 64, 68
1, 717516, Control_c, 0, 64, 74
1, 717530, Control_c, 0, 64, 80
1, 717545, Control_c, 0, 64, 86
1, 717560, Control_c, 0, 64, 92
1, 717575, Control_c, 0, 64, 99
1, 717590, Control_c, 0, 64, 108
1, 717604, Control_c, 0, 64, 127
1, 717622, Note_off_c, 0, 28, 39
1, 717656, Note_off_c, 0, 40, 44
1, 717733, Note_on_c, 0, 54, 39
1, 717813, Note_off_c, 0, 49, 38
1, 717975, Control_c, 0, 64, 120
1, 717990, Control_c, 0, 64, 114
1, 718005, Control_c, 0, 64, 111
1, 718019, Control_c, 0, 64, 109
1, 718034, Control_c, 0, 64, 108
1, 718057, Control_c, 0, 64, 106
1, 718072, Control_c, 0, 64, 102
1, 718087, Control_c, 0, 64, 99
1, 718101, Control_c, 0, 64, 96
1, 718116, Control_c, 0, 64, 94
1, 718131, Control_c, 0, 64, 91
1, 718145, Control_c, 0, 64, 89
1, 718160, Control_c, 0, 64, 87
1, 718175, Control_c, 0, 64, 87
1, 718190, Control_c, 0, 64, 86
1, 718205, Note_on_c, 0, 56, 48
1, 718205, Control_c, 0, 64, 86
1, 718220, Control_c, 0, 64, 85
1, 718234, Control_c, 0, 64, 85
1, 718249, Control_c, 0, 64, 84
1, 718264, Control_c, 0, 64, 83
1, 718270, Note_off_c, 0, 59, 48
1, 718279, Control_c, 0, 64, 82
1, 718287, Note_off_c, 0, 54, 44
1, 718294, Control_c, 0, 64, 82
1, 718308, Control_c, 0, 64, 81
1, 718323, Control_c, 0, 64, 81
1, 718353, Control_c, 0, 64, 80
1, 718368, Control_c, 0, 64, 79
1, 718383, Control_c, 0, 64, 79
1, 718398, Control_c, 0, 64, 78
1, 718442, Control_c, 0, 64, 78
1, 718472, Control_c, 0, 64, 77
1, 718487, Control_c, 0, 64, 77
1, 718502, Control_c, 0, 64, 76
1, 718546, Control_c, 0, 64, 76
1, 718591, Control_c, 0, 64, 75
1, 718620, Control_c, 0, 64, 75
1, 718626, Note_on_c, 0, 57, 49
1, 718635, Control_c, 0, 64, 74
1, 718651, Control_c, 0, 64, 74
1, 718666, Control_c, 0, 64, 73
1, 718681, Control_c, 0, 64, 73
1, 718696, Control_c, 0, 64, 72
1, 718711, Control_c, 0, 64, 71
1, 718725, Control_c, 0, 64, 70
1, 718740, Note_off_c, 0, 56, 61
1, 718740, Control_c, 0, 64, 69
1, 718755, Control_c, 0, 64, 68
1, 718769, Control_c, 0, 64, 67
1, 718806, Control_c, 0, 64, 67
1, 718821, Control_c, 0, 64, 66
1, 718836, Control_c, 0, 64, 66
1, 718851, Control_c, 0, 64, 65
1, 718866, Control_c, 0, 64, 65
1, 718910, Control_c, 0, 64, 64
1, 718940, Control_c, 0, 64, 64
1, 718970, Control_c, 0, 64, 63
1, 719014, Control_c, 0, 64, 63
1, 719058, Control_c, 0, 64, 63
1, 719073, Control_c, 0, 64, 64
1, 719088, Control_c, 0, 64, 64
1, 719102, Control_c, 0, 64, 65
1, 719110, Note_on_c, 0, 52, 31
1, 719117, Control_c, 0, 64, 67
1, 719132, Control_c, 0, 64, 69
1, 719147, Control_c, 0, 64, 72
1, 719162, Control_c, 0, 64, 75
1, 719176, Control_c, 0, 64, 77
1, 719191, Control_c, 0, 64, 78
1, 719206, Control_c, 0, 64, 79
1, 719236, Control_c, 0, 64, 80
1, 719250, Control_c, 0, 64, 81
1, 719265, Control_c, 0, 64, 82
1, 719280, Control_c, 0, 64, 84
1, 719295, Control_c, 0, 64, 87
1, 719309, Control_c, 0, 64, 89
1, 719324, Control_c, 0, 64, 91
1, 719339, Control_c, 0, 64, 93
1, 719354, Control_c, 0, 64, 95
1, 719368, Control_c, 0, 64, 96
1, 719383, Note_on_c, 0, 59, 41
1, 719383, Control_c, 0, 64, 97
1, 719398, Control_c, 0, 64, 98
1, 719413, Control_c, 0, 64, 98
1, 719444, Control_c, 0, 64, 99
1, 719462, Note_off_c, 0, 52, 41
1, 719488, Control_c, 0, 64, 100
1, 719629, Control_c, 0, 64, 99
1, 719659, Control_c, 0, 64, 99
1, 719673, Control_c, 0, 64, 98
1, 719680, Note_on_c, 0, 56, 55
1, 719688, Control_c, 0, 64, 97
1, 719703, Control_c, 0, 64, 91
1, 719718, Control_c, 0, 64, 81
1, 719732, Control_c, 0, 64, 72
1, 719747, Control_c, 0, 64, 67
1, 719762, Control_c, 0, 64, 67
1, 719777, Control_c, 0, 64, 68
1, 719792, Control_c, 0, 64, 71
1, 719806, Control_c, 0, 64, 75
1, 719821, Control_c, 0, 64, 80
1, 719836, Control_c, 0, 64, 86
1, 719851, Control_c, 0, 64, 89
1, 719866, Control_c, 0, 64, 90
1, 719872, Note_off_c, 0, 57, 37
1, 719880, Control_c, 0, 64, 90
1, 719895, Control_c, 0, 64, 91
1, 719903, Note_off_c, 0, 59, 34
1, 719910, Control_c, 0, 64, 93
1, 719924, Control_c, 0, 64, 96
1, 719936, Note_on_c, 0, 51, 42
1, 719939, Control_c, 0, 64, 98
1, 719954, Control_c, 0, 64, 99
1, 719969, Control_c, 0, 64, 100
1, 720147, Control_c, 0, 64, 99
1, 720163, Note_on_c, 0, 59, 43
1, 720221, Control_c, 0, 64, 99
1, 720252, Control_c, 0, 64, 98
1, 720266, Note_off_c, 0, 51, 39
1, 720267, Control_c, 0, 64, 98
1, 720303, Control_c, 0, 64, 97
1, 720392, Control_c, 0, 64, 97
1, 720407, Control_c, 0, 64, 91
1, 720412, Note_on_c, 0, 54, 52
1, 720422, Control_c, 0, 64, 77
1, 720437, Control_c, 0, 64, 67
1, 720452, Control_c, 0, 64, 62
1, 720461, Note_off_c, 0, 56, 30
1, 720467, Control_c, 0, 64, 61
1, 720482, Control_c, 0, 64, 63
1, 720496, Control_c, 0, 64, 66
1, 720511, Control_c, 0, 64, 71
1, 720526, Control_c, 0, 64, 77
1, 720541, Control_c, 0, 64, 82
1, 720555, Control_c, 0, 64, 86
1, 720570, Control_c, 0, 64, 88
1, 720585, Control_c, 0, 64, 91
1, 720600, Control_c, 0, 64, 95
1, 720615, Control_c, 0, 64, 104
1, 720625, Note_off_c, 0, 54, 61
1, 720629, Control_c, 0, 64, 122
1, 720644, Control_c, 0, 64, 127
1, 720648, Note_off_c, 0, 59, 24
1, 720669, Note_on_c, 0, 49, 37
1, 720830, Note_off_c, 0, 49, 35
1, 720927, Note_on_c, 0, 59, 36
1, 721000, Control_c, 0, 64, 122
1, 721014, Control_c, 0, 64, 115
1, 721029, Control_c, 0, 64, 111
1, 721052, Control_c, 0, 64, 107
1, 721067, Control_c, 0, 64, 102
1, 721082, Control_c, 0, 64, 98
1, 721097, Control_c, 0, 64, 95
1, 721112, Control_c, 0, 64, 92
1, 721126, Control_c, 0, 64, 91
1, 721141, Control_c, 0, 64, 90
1, 721155, Note_on_c, 0, 52, 52
1, 721156, Control_c, 0, 64, 87
1, 721170, Control_c, 0, 64, 81
1, 721185, Control_c, 0, 64, 75
1, 721200, Control_c, 0, 64, 70
1, 721215, Control_c, 0, 64, 66
1, 721230, Control_c, 0, 64, 65
1, 721245, Control_c, 0, 64, 65
1, 721260, Control_c, 0, 64, 66
1, 721274, Control_c, 0, 64, 66
1, 721289, Control_c, 0, 64, 67
1, 721304, Control_c, 0, 64, 68
1, 721319, Control_c, 0, 64, 70
1, 721334, Control_c, 0, 64, 73
1, 721349, Control_c, 0, 64, 75
1, 721393, Control_c, 0, 64, 74
1, 721408, Control_c, 0, 64, 74
1, 721415, Note_on_c, 0, 57, 45
1, 721423, Control_c, 0, 64, 73
1, 721438, Control_c, 0, 64, 72
1, 721452, Control_c, 0, 64, 71
1, 721467, Control_c, 0, 64, 70
1, 721471, Note_off_c, 0, 59, 39
1, 721497, Control_c, 0, 64, 70
1, 721526, Control_c, 0, 64, 69
1, 721556, Control_c, 0, 64, 69
1, 721570, Control_c, 0, 64, 68
1, 721585, Control_c, 0, 64, 68
1, 721615, Control_c, 0, 64, 67
1, 721659, Control_c, 0, 64, 67
1, 721663, Note_on_c, 0, 59, 39
1, 721678, Note_off_c, 0, 57, 36
1, 721748, Control_c, 0, 64, 66
1, 721902, Note_on_c, 0, 51, 43
1, 721905, Control_c, 0, 64, 66
1, 721964, Control_c, 0, 64, 65
1, 722008, Control_c, 0, 64, 65
1, 722010, Note_off_c, 0, 52, 59
1, 722082, Control_c, 0, 64, 64
1, 722094, Note_off_c, 0, 59, 57
1, 722127, Control_c, 0, 64, 64
1, 722140, Note_on_c, 0, 56, 32
1, 722172, Control_c, 0, 64, 63
1, 722246, Control_c, 0, 64, 63
1, 722335, Control_c, 0, 64, 62
1, 722383, Note_on_c, 0, 59, 40
1, 722512, Control_c, 0, 64, 62
1, 722688, Note_on_c, 0, 49, 35
1, 722714, Control_c, 0, 64, 61
1, 722729, Control_c, 0, 64, 59
1, 722743, Control_c, 0, 64, 56
1, 722758, Control_c, 0, 64, 53
1, 722773, Control_c, 0, 64, 52
1, 722788, Control_c, 0, 64, 51
1, 722803, Control_c, 0, 64, 52
1, 722813, Note_off_c, 0, 51, 36
1, 722817, Control_c, 0, 64, 52
1, 722832, Control_c, 0, 64, 53
1, 722847, Control_c, 0, 64, 54
1, 722854, Note_off_c, 0, 59, 48
1, 722862, Control_c, 0, 64, 56
1, 722877, Control_c, 0, 64, 58
1, 722891, Control_c, 0, 64, 59
1, 722906, Control_c, 0, 64, 60
1, 722921, Control_c, 0, 64, 62
1, 722936, Control_c, 0, 64, 63
1, 722950, Control_c, 0, 64, 64
1, 722963, Note_on_c, 0, 54, 34
1, 722965, Control_c, 0, 64, 65
1, 723009, Control_c, 0, 64, 65
1, 723024, Control_c, 0, 64, 66
1, 723039, Control_c, 0, 64, 68
1, 723054, Control_c, 0, 64, 71
1, 723069, Control_c, 0, 64, 74
1, 723084, Control_c, 0, 64, 77
1, 723098, Control_c, 0, 64, 80
1, 723113, Control_c, 0, 64, 82
1, 723128, Control_c, 0, 64, 83
1, 723142, Control_c, 0, 64, 83
1, 723157, Control_c, 0, 64, 84
1, 723190, Note_off_c, 0, 49, 55
1, 723223, Note_on_c, 0, 59, 41
1, 723313, Control_c, 0, 64, 83
1, 723372, Control_c, 0, 64, 83
1, 723507, Control_c, 0, 64, 82
1, 723547, Note_on_c, 0, 47, 39
1, 723565, Control_c, 0, 64, 78
1, 723580, Control_c, 0, 64, 71
1, 723595, Control_c, 0, 64, 64
1, 723610, Control_c, 0, 64, 60
1, 723625, Control_c, 0, 64, 59
1, 723639, Control_c, 0, 64, 60
1, 723654, Control_c, 0, 64, 63
1, 723669, Control_c, 0, 64, 65
1, 723684, Control_c, 0, 64, 68
1, 723698, Control_c, 0, 64, 71
1, 723713, Control_c, 0, 64, 73
1, 723714, Note_off_c, 0, 56, 1
1, 723728, Control_c, 0, 64, 74
1, 723743, Control_c, 0, 64, 75
1, 723758, Control_c, 0, 64, 76
1, 723772, Control_c, 0, 64, 77
1, 723787, Control_c, 0, 64, 78
1, 723802, Control_c, 0, 64, 79
1, 723817, Control_c, 0, 64, 80
1, 723832, Control_c, 0, 64, 81
1, 723846, Control_c, 0, 64, 82
1, 723861, Control_c, 0, 64, 82
1, 723875, Note_on_c, 0, 52, 33
1, 723916, Note_off_c, 0, 59, 27
1, 723935, Control_c, 0, 64, 83
1, 723964, Control_c, 0, 64, 83
1, 724150, Control_c, 0, 64, 83
1, 724263, Note_on_c, 0, 45, 36
1, 724329, Control_c, 0, 64, 80
1, 724334, Note_on_c, 0, 59, 46
1, 724343, Control_c, 0, 64, 73
1, 724358, Control_c, 0, 64, 66
1, 724373, Control_c, 0, 64, 62
1, 724375, Note_off_c, 0, 54, 58
1, 724387, Control_c, 0, 64, 61
1, 724402, Control_c, 0, 64, 63
1, 724417, Control_c, 0, 64, 66
1, 724432, Control_c, 0, 64, 69
1, 724447, Control_c, 0, 64, 75
1, 724448, Note_off_c, 0, 52, 50
1, 724461, Control_c, 0, 64, 79
1, 724467, Note_off_c, 0, 47, 32
1, 724476, Control_c, 0, 64, 82
1, 724491, Control_c, 0, 64, 84
1, 724506, Control_c, 0, 64, 85
1, 724521, Control_c, 0, 64, 87
1, 724536, Control_c, 0, 64, 90
1, 724550, Control_c, 0, 64, 94
1, 724565, Control_c, 0, 64, 98
1, 724572, Note_off_c, 0, 45, 41
1, 724580, Control_c, 0, 64, 104
1, 724595, Control_c, 0, 64, 107
1, 724610, Control_c, 0, 64, 108
1, 724625, Control_c, 0, 64, 109
1, 724773, Control_c, 0, 64, 108
1, 724795, Control_c, 0, 64, 108
1, 724869, Control_c, 0, 64, 107
1, 724899, Control_c, 0, 64, 107
1, 724914, Control_c, 0, 64, 106
1, 724943, Control_c, 0, 64, 105
1, 725002, Control_c, 0, 64, 105
1, 725017, Control_c, 0, 64, 104
1, 725030, Note_on_c, 0, 56, 30
1, 725032, Control_c, 0, 64, 104
1, 725048, Control_c, 0, 64, 102
1, 725057, Note_on_c, 0, 51, 27
1, 725063, Control_c, 0, 64, 101
1, 725066, Note_on_c, 0, 44, 28
1, 725072, Note_on_c, 0, 47, 31
1, 725078, Control_c, 0, 64, 98
1, 725092, Control_c, 0, 64, 94
1, 725107, Control_c, 0, 64, 88
1, 725122, Control_c, 0, 64, 82
1, 725137, Control_c, 0, 64, 74
1, 725152, Control_c, 0, 64, 67
1, 725166, Control_c, 0, 64, 62
1, 725181, Control_c, 0, 64, 57
1, 725195, Control_c, 0, 64, 55
1, 725209, Control_c, 0, 64, 55
1, 725239, Control_c, 0, 64, 55
1, 725284, Control_c, 0, 64, 56
1, 725299, Control_c, 0, 64, 57
1, 725314, Control_c, 0, 64, 58
1, 725328, Control_c, 0, 64, 60
1, 725343, Control_c, 0, 64, 62
1, 725358, Control_c, 0, 64, 63
1, 725373, Control_c, 0, 64, 64
1, 725388, Control_c, 0, 64, 65
1, 725403, Control_c, 0, 64, 67
1, 725417, Control_c, 0, 64, 68
1, 725432, Control_c, 0, 64, 69
1, 725447, Control_c, 0, 64, 71
1, 725462, Control_c, 0, 64, 72
1, 725477, Control_c, 0, 64, 74
1, 725491, Control_c, 0, 64, 76
1, 725506, Control_c, 0, 64, 77
1, 725521, Control_c, 0, 64, 78
1, 725543, Control_c, 0, 64, 79
1, 725558, Control_c, 0, 64, 80
1, 725573, Control_c, 0, 64, 81
1, 725588, Control_c, 0, 64, 82
1, 725603, Control_c, 0, 64, 83
1, 725617, Control_c, 0, 64, 84
1, 725632, Control_c, 0, 64, 86
1, 725647, Control_c, 0, 64, 88
1, 725662, Control_c, 0, 64, 89
1, 725677, Control_c, 0, 64, 91
1, 725691, Control_c, 0, 64, 93
1, 725706, Control_c, 0, 64, 96
1, 725721, Control_c, 0, 64, 100
1, 725736, Control_c, 0, 64, 104
1, 725750, Control_c, 0, 64, 109
1, 725765, Control_c, 0, 64, 117
1, 725780, Control_c, 0, 64, 127
1, 725912, Note_off_c, 0, 51, 42
1, 726151, Note_off_c, 0, 56, 41
1, 726349, Note_off_c, 0, 59, 34
1, 726422, Note_off_c, 0, 44, 36
1, 726662, Note_off_c, 0, 47, 36
1, 727144, Note_on_c, 0, 59, 37
1, 727153, Note_on_c, 0, 57, 38
1, 727178, Note_on_c, 0, 52, 27
1, 727186, Note_on_c, 0, 42, 31
1, 727219, Control_c, 0, 64, 115
1, 727234, Control_c, 0, 64, 98
1, 727249, Control_c, 0, 64, 89
1, 727252, Poly_aftertouch_c, 0, 49, 127
1, 727263, Control_c, 0, 64, 81
1, 727278, Control_c, 0, 64, 74
1, 727293, Control_c, 0, 64, 69
1, 727308, Control_c, 0, 64, 65
1, 727323, Control_c, 0, 64, 61
1, 727338, Control_c, 0, 64, 59
1, 727353, Control_c, 0, 64, 58
1, 727367, Control_c, 0, 64, 58
1, 727397, Control_c, 0, 64, 57
1, 727442, Control_c, 0, 64, 58
1, 727457, Control_c, 0, 64, 58
1, 727472, Control_c, 0, 64, 59
1, 727487, Control_c, 0, 64, 60
1, 727502, Control_c, 0, 64, 62
1, 727516, Control_c, 0, 64, 63
1, 727531, Control_c, 0, 64, 65
1, 727546, Control_c, 0, 64, 66
1, 727561, Control_c, 0, 64, 69
1, 727576, Control_c, 0, 64, 70
1, 727591, Control_c, 0, 64, 71
1, 727605, Control_c, 0, 64, 71
1, 727620, Control_c, 0, 64, 72
1, 727635, Control_c, 0, 64, 73
1, 727650, Control_c, 0, 64, 75
1, 727665, Control_c, 0, 64, 77
1, 727679, Control_c, 0, 64, 79
1, 727694, Control_c, 0, 64, 81
1, 727709, Control_c, 0, 64, 82
1, 727724, Control_c, 0, 64, 83
1, 727739, Control_c, 0, 64, 84
1, 727753, Control_c, 0, 64, 85
1, 727768, Control_c, 0, 64, 86
1, 727791, Control_c, 0, 64, 87
1, 728042, Control_c, 0, 64, 86
1, 728196, Note_off_c, 0, 42, 41
1, 728280, Control_c, 0, 64, 86
1, 728628, Control_c, 0, 64, 85
1, 728637, Note_on_c, 0, 44, 29
1, 728673, Control_c, 0, 64, 85
1, 728703, Control_c, 0, 64, 84
1, 728732, Control_c, 0, 64, 84
1, 728776, Control_c, 0, 64, 83
1, 728821, Control_c, 0, 64, 83
1, 728835, Control_c, 0, 64, 82
1, 728839, Note_off_c, 0, 44, 37
1, 728850, Control_c, 0, 64, 81
1, 728865, Control_c, 0, 64, 78
1, 728877, Note_on_c, 0, 42, 34
1, 728880, Control_c, 0, 64, 72
1, 728895, Control_c, 0, 64, 65
1, 728909, Control_c, 0, 64, 58
1, 728924, Control_c, 0, 64, 50
1, 728939, Control_c, 0, 64, 49
1, 728953, Control_c, 0, 64, 51
1, 728968, Control_c, 0, 64, 55
1, 728983, Control_c, 0, 64, 60
1, 728998, Control_c, 0, 64, 63
1, 729013, Control_c, 0, 64, 65
1, 729029, Control_c, 0, 64, 67
1, 729044, Control_c, 0, 64, 70
1, 729058, Control_c, 0, 64, 73
1, 729067, Note_off_c, 0, 57, 58
1, 729073, Control_c, 0, 64, 77
1, 729088, Control_c, 0, 64, 82
1, 729089, Note_off_c, 0, 59, 56
1, 729103, Control_c, 0, 64, 87
1, 729118, Control_c, 0, 64, 92
1, 729132, Control_c, 0, 64, 96
1, 729141, Note_off_c, 0, 52, 42
1, 729147, Control_c, 0, 64, 100
1, 729162, Control_c, 0, 64, 104
1, 729177, Control_c, 0, 64, 107
1, 729192, Control_c, 0, 64, 112
1, 729207, Control_c, 0, 64, 117
1, 729219, Poly_aftertouch_c, 0, 49, 0
1, 729222, Control_c, 0, 64, 127
1, 729295, Note_off_c, 0, 42, 41
1, 729985, Note_on_c, 0, 59, 33
1, 729992, Note_on_c, 0, 52, 26
1, 730003, Note_on_c, 0, 47, 16
1, 730010, Note_on_c, 0, 56, 28
1, 730037, Control_c, 0, 64, 120
1, 730052, Control_c, 0, 64, 104
1, 730062, Note_on_c, 0, 40, 20
1, 730067, Control_c, 0, 64, 96
1, 730081, Control_c, 0, 64, 88
1, 730096, Control_c, 0, 64, 83
1, 730111, Control_c, 0, 64, 79
1, 730126, Control_c, 0, 64, 76
1, 730141, Control_c, 0, 64, 75
1, 730155, Control_c, 0, 64, 74
1, 730170, Control_c, 0, 64, 72
1, 730185, Control_c, 0, 64, 71
1, 730200, Control_c, 0, 64, 70
1, 730214, Control_c, 0, 64, 68
1, 730229, Control_c, 0, 64, 66
1, 730244, Control_c, 0, 64, 65
1, 730259, Control_c, 0, 64, 63
1, 730274, Control_c, 0, 64, 62
1, 730289, Control_c, 0, 64, 62
1, 730304, Control_c, 0, 64, 61
1, 730319, Control_c, 0, 64, 60
1, 730333, Control_c, 0, 64, 60
1, 730348, Control_c, 0, 64, 59
1, 730363, Control_c, 0, 64, 58
1, 730378, Control_c, 0, 64, 57
1, 730393, Control_c, 0, 64, 56
1, 730407, Control_c, 0, 64, 55
1, 730422, Control_c, 0, 64, 54
1, 730437, Control_c, 0, 64, 54
1, 730452, Control_c, 0, 64, 52
1, 730467, Control_c, 0, 64, 51
1, 730481, Control_c, 0, 64, 50
1, 730496, Control_c, 0, 64, 49
1, 730511, Control_c, 0, 64, 48
1, 730526, Control_c, 0, 64, 47
1, 730540, Control_c, 0, 64, 47
1, 730555, Control_c, 0, 64, 46
1, 730570, Control_c, 0, 64, 45
1, 730600, Control_c, 0, 64, 45
1, 730614, Control_c, 0, 64, 44
1, 730630, Control_c, 0, 64, 44
1, 730645, Control_c, 0, 64, 43
1, 730786, Control_c, 0, 64, 44
1, 730801, Control_c, 0, 64, 45
1, 730816, Control_c, 0, 64, 45
1, 730830, Control_c, 0, 64, 46
1, 730845, Control_c, 0, 64, 48
1, 730860, Control_c, 0, 64, 50
1, 730875, Control_c, 0, 64, 52
1, 730890, Control_c, 0, 64, 55
1, 730904, Control_c, 0, 64, 57
1, 730919, Control_c, 0, 64, 60
1, 730934, Control_c, 0, 64, 61
1, 730949, Control_c, 0, 64, 63
1, 730964, Control_c, 0, 64, 65
1, 730978, Control_c, 0, 64, 66
1, 730993, Control_c, 0, 64, 69
1, 731008, Control_c, 0, 64, 71
1, 731023, Control_c, 0, 64, 74
1, 731037, Control_c, 0, 64, 77
1, 731052, Control_c, 0, 64, 81
1, 731067, Control_c, 0, 64, 85
1, 731082, Control_c, 0, 64, 88
1, 731097, Control_c, 0, 64, 92
1, 731111, Control_c, 0, 64, 94
1, 731126, Control_c, 0, 64, 98
1, 731141, Control_c, 0, 64, 102
1, 731156, Control_c, 0, 64, 108
1, 731171, Control_c, 0, 64, 114
1, 731186, Control_c, 0, 64, 127
1, 732068, Control_c, 0, 64, 120
1, 732083, Control_c, 0, 64, 115
1, 732098, Control_c, 0, 64, 112
1, 732113, Control_c, 0, 64, 109
1, 732127, Control_c, 0, 64, 107
1, 732142, Control_c, 0, 64, 104
1, 732157, Control_c, 0, 64, 100
1, 732171, Control_c, 0, 64, 95
1, 732186, Control_c, 0, 64, 89
1, 732201, Control_c, 0, 64, 84
1, 732216, Control_c, 0, 64, 82
1, 732232, Control_c, 0, 64, 81
1, 732283, Control_c, 0, 64, 80
1, 732298, Control_c, 0, 64, 79
1, 732313, Control_c, 0, 64, 79
1, 732328, Control_c, 0, 64, 78
1, 732343, Control_c, 0, 64, 78
1, 732372, Control_c, 0, 64, 77
1, 732387, Control_c, 0, 64, 77
1, 732402, Control_c, 0, 64, 75
1, 732417, Control_c, 0, 64, 75
1, 732432, Control_c, 0, 64, 74
1, 732447, Control_c, 0, 64, 73
1, 732462, Control_c, 0, 64, 73
1, 732491, Control_c, 0, 64, 72
1, 732506, Control_c, 0, 64, 72
1, 732521, Control_c, 0, 64, 71
1, 732536, Control_c, 0, 64, 70
1, 732550, Control_c, 0, 64, 69
1, 732565, Control_c, 0, 64, 68
1, 732580, Control_c, 0, 64, 67
1, 732595, Control_c, 0, 64, 66
1, 732609, Control_c, 0, 64, 65
1, 732624, Control_c, 0, 64, 65
1, 732654, Control_c, 0, 64, 64
1, 732669, Control_c, 0, 64, 64
1, 732683, Control_c, 0, 64, 63
1, 732698, Control_c, 0, 64, 63
1, 732713, Control_c, 0, 64, 62
1, 732728, Control_c, 0, 64, 61
1, 732757, Control_c, 0, 64, 61
1, 732787, Control_c, 0, 64, 60
1, 732817, Control_c, 0, 64, 60
1, 732818, Note_off_c, 0, 52, 41
1, 732846, Control_c, 0, 64, 59
1, 732876, Control_c, 0, 64, 59
1, 732891, Note_off_c, 0, 59, 45
1, 732906, Control_c, 0, 64, 58
1, 732930, Note_off_c, 0, 56, 42
1, 732936, Control_c, 0, 64, 58
1, 732939, Note_off_c, 0, 40, 43
1, 732963, Note_off_c, 0, 47, 40
1, 732965, Control_c, 0, 64, 57
1, 733009, Control_c, 0, 64, 57
1, 733195, Control_c, 0, 64, 56
1, 733255, Control_c, 0, 64, 56
1, 733344, Control_c, 0, 64, 56
1, 733388, Control_c, 0, 64, 57
1, 733447, Control_c, 0, 64, 57
1, 733492, Control_c, 0, 64, 58
1, 733521, Control_c, 0, 64, 58
1, 733551, Control_c, 0, 64, 59
1, 733580, Control_c, 0, 64, 59
1, 733595, Control_c, 0, 64, 60
1, 733624, Control_c, 0, 64, 60
1, 733639, Control_c, 0, 64, 61
1, 733654, Control_c, 0, 64, 62
1, 733669, Control_c, 0, 64, 63
1, 733684, Control_c, 0, 64, 63
1, 733699, Control_c, 0, 64, 64
1, 733714, Control_c, 0, 64, 65
1, 733729, Control_c, 0, 64, 66
1, 733744, Control_c, 0, 64, 67
1, 733758, Control_c, 0, 64, 68
1, 733780, Control_c, 0, 64, 69
1, 733795, Control_c, 0, 64, 70
1, 733810, Control_c, 0, 64, 71
1, 733826, Control_c, 0, 64, 72
1, 733841, Control_c, 0, 64, 74
1, 733855, Control_c, 0, 64, 77
1, 733870, Control_c, 0, 64, 80
1, 733885, Control_c, 0, 64, 83
1, 733900, Control_c, 0, 64, 86
1, 733915, Control_c, 0, 64, 88
1, 733929, Control_c, 0, 64, 90
1, 733944, Control_c, 0, 64, 91
1, 733959, Control_c, 0, 64, 92
1, 733974, Control_c, 0, 64, 94
1, 733989, Control_c, 0, 64, 95
1, 734003, Control_c, 0, 64, 96
1, 734018, Control_c, 0, 64, 97
1, 734033, Control_c, 0, 64, 98
1, 734048, Control_c, 0, 64, 98
1, 734063, Control_c, 0, 64, 99
1, 734077, Control_c, 0, 64, 100
1, 734107, Control_c, 0, 64, 101
1, 734137, Control_c, 0, 64, 101
1, 734152, Control_c, 0, 64, 102
1, 734167, Control_c, 0, 64, 102
1, 734181, Control_c, 0, 64, 103
1, 734195, Control_c, 0, 64, 103
1, 734617, Control_c, 0, 64, 103
1, 734652, Note_on_c, 0, 76, 61
1, 734663, Control_c, 0, 64, 102
1, 734678, Note_on_c, 0, 59, 33
1, 734680, Note_on_c, 0, 52, 31
1, 734691, Note_on_c, 0, 68, 37
1, 734700, Note_on_c, 0, 62, 20
1, 734900, Control_c, 0, 64, 103
1, 734915, Control_c, 0, 64, 104
1, 734930, Control_c, 0, 64, 105
1, 734944, Control_c, 0, 64, 106
1, 734959, Control_c, 0, 64, 108
1, 734974, Control_c, 0, 64, 111
1, 734989, Control_c, 0, 64, 116
1, 735004, Control_c, 0, 64, 127
1, 735273, Note_on_c, 0, 77, 65
1, 735337, Control_c, 0, 64, 122
1, 735351, Control_c, 0, 64, 99
1, 735366, Control_c, 0, 64, 81
1, 735381, Control_c, 0, 64, 65
1, 735395, Control_c, 0, 64, 46
1, 735410, Control_c, 0, 64, 0
1, 735494, Note_off_c, 0, 76, 39
1, 735899, Control_c, 0, 64, 12
1, 735914, Control_c, 0, 64, 27
1, 735929, Control_c, 0, 64, 37
1, 735944, Control_c, 0, 64, 44
1, 735959, Control_c, 0, 64, 47
1, 735973, Control_c, 0, 64, 49
1, 735988, Control_c, 0, 64, 51
1, 736003, Control_c, 0, 64, 53
1, 736025, Control_c, 0, 64, 56
1, 736040, Control_c, 0, 64, 58
1, 736055, Control_c, 0, 64, 59
1, 736070, Control_c, 0, 64, 60
1, 736085, Control_c, 0, 64, 61
1, 736099, Control_c, 0, 64, 62
1, 736114, Control_c, 0, 64, 63
1, 736129, Control_c, 0, 64, 65
1, 736144, Control_c, 0, 64, 66
1, 736159, Control_c, 0, 64, 67
1, 736173, Control_c, 0, 64, 69
1, 736188, Control_c, 0, 64, 71
1, 736203, Control_c, 0, 64, 74
1, 736219, Control_c, 0, 64, 77
1, 736234, Control_c, 0, 64, 80
1, 736248, Control_c, 0, 64, 83
1, 736263, Control_c, 0, 64, 86
1, 736278, Control_c, 0, 64, 88
1, 736293, Control_c, 0, 64, 89
1, 736308, Control_c, 0, 64, 90
1, 736322, Control_c, 0, 64, 91
1, 736337, Control_c, 0, 64, 91
1, 736352, Control_c, 0, 64, 92
1, 736367, Control_c, 0, 64, 93
1, 736382, Control_c, 0, 64, 95
1, 736397, Control_c, 0, 64, 96
1, 736411, Control_c, 0, 64, 98
1, 736426, Control_c, 0, 64, 98
1, 736441, Control_c, 0, 64, 99
1, 736456, Control_c, 0, 64, 100
1, 736471, Control_c, 0, 64, 101
1, 736486, Control_c, 0, 64, 103
1, 736501, Control_c, 0, 64, 105
1, 736515, Control_c, 0, 64, 108
1, 736530, Control_c, 0, 64, 110
1, 736545, Control_c, 0, 64, 111
1, 736560, Control_c, 0, 64, 112
1, 736575, Control_c, 0, 64, 115
1, 736589, Control_c, 0, 64, 116
1, 736604, Control_c, 0, 64, 119
1, 736619, Control_c, 0, 64, 125
1, 736634, Control_c, 0, 64, 127
1, 736812, Note_on_c, 0, 76, 40
1, 737027, Note_off_c, 0, 77, 30
1, 737336, Note_on_c, 0, 73, 45
1, 737341, Note_off_c, 0, 68, 32
1, 737554, Note_off_c, 0, 52, 51
1, 737619, Note_off_c, 0, 59, 51
1, 737640, Note_off_c, 0, 76, 36
1, 737661, Note_off_c, 0, 73, 64
1, 737690, Note_on_c, 0, 74, 52
1, 737711, Note_off_c, 0, 62, 38
1, 737749, Note_off_c, 0, 74, 60
1, 738057, Note_on_c, 0, 74, 46
1, 738087, Note_on_c, 0, 62, 18
1, 738097, Note_on_c, 0, 58, 33
1, 738099, Note_on_c, 0, 67, 30
1, 738102, Control_c, 0, 64, 120
1, 738117, Control_c, 0, 64, 85
1, 738132, Control_c, 0, 64, 70
1, 738147, Control_c, 0, 64, 62
1, 738161, Control_c, 0, 64, 58
1, 738176, Control_c, 0, 64, 59
1, 738191, Control_c, 0, 64, 62
1, 738206, Control_c, 0, 64, 65
1, 738221, Control_c, 0, 64, 68
1, 738236, Control_c, 0, 64, 72
1, 738251, Control_c, 0, 64, 75
1, 738273, Control_c, 0, 64, 79
1, 738288, Control_c, 0, 64, 83
1, 738302, Control_c, 0, 64, 88
1, 738317, Control_c, 0, 64, 93
1, 738332, Control_c, 0, 64, 100
1, 738347, Control_c, 0, 64, 108
1, 738362, Control_c, 0, 64, 120
1, 738376, Control_c, 0, 64, 127
1, 738435, Note_off_c, 0, 67, 54
1, 738709, Note_on_c, 0, 67, 41
1, 738810, Note_off_c, 0, 58, 51
1, 739282, Note_on_c, 0, 60, 23
1, 739288, Note_on_c, 0, 57, 29
1, 739348, Note_on_c, 0, 65, 41
1, 739363, Control_c, 0, 64, 114
1, 739377, Control_c, 0, 64, 87
1, 739384, Note_off_c, 0, 62, 38
1, 739392, Control_c, 0, 64, 69
1, 739407, Control_c, 0, 64, 60
1, 739422, Control_c, 0, 64, 55
1, 739429, Note_off_c, 0, 67, 62
1, 739437, Control_c, 0, 64, 56
1, 739452, Control_c, 0, 64, 60
1, 739467, Control_c, 0, 64, 64
1, 739482, Control_c, 0, 64, 67
1, 739497, Control_c, 0, 64, 71
1, 739512, Control_c, 0, 64, 74
1, 739527, Control_c, 0, 64, 78
1, 739541, Control_c, 0, 64, 81
1, 739556, Control_c, 0, 64, 85
1, 739571, Control_c, 0, 64, 91
1, 739586, Control_c, 0, 64, 98
1, 739601, Control_c, 0, 64, 107
1, 739615, Control_c, 0, 64, 115
1, 739630, Control_c, 0, 64, 127
1, 739692, Note_on_c, 0, 69, 65
1, 739728, Note_off_c, 0, 65, 59
1, 739753, Note_off_c, 0, 57, 41
1, 739825, Note_off_c, 0, 74, 49
1, 739896, Note_off_c, 0, 60, 40
1, 739910, Note_on_c, 0, 58, 40
1, 739934, Note_on_c, 0, 55, 39
1, 740008, Control_c, 0, 64, 103
1, 740009, Note_on_c, 0, 70, 71
1, 740022, Control_c, 0, 64, 77
1, 740037, Control_c, 0, 64, 62
1, 740052, Control_c, 0, 64, 48
1, 740066, Control_c, 0, 64, 43
1, 740081, Control_c, 0, 64, 46
1, 740096, Control_c, 0, 64, 54
1, 740102, Note_off_c, 0, 69, 62
1, 740111, Control_c, 0, 64, 61
1, 740119, Poly_aftertouch_c, 0, 64, 127
1, 740126, Control_c, 0, 64, 65
1, 740141, Control_c, 0, 64, 68
1, 740155, Control_c, 0, 64, 70
1, 740170, Control_c, 0, 64, 72
1, 740185, Control_c, 0, 64, 74
1, 740200, Control_c, 0, 64, 77
1, 740215, Control_c, 0, 64, 81
1, 740230, Control_c, 0, 64, 86
1, 740245, Control_c, 0, 64, 91
1, 740260, Control_c, 0, 64, 95
1, 740275, Control_c, 0, 64, 98
1, 740282, Note_on_c, 0, 74, 67
1, 740289, Control_c, 0, 64, 100
1, 740304, Control_c, 0, 64, 102
1, 740319, Control_c, 0, 64, 103
1, 740334, Control_c, 0, 64, 104
1, 740346, Poly_aftertouch_c, 0, 64, 0
1, 740349, Control_c, 0, 64, 105
1, 740363, Control_c, 0, 64, 105
1, 740378, Control_c, 0, 64, 106
1, 740452, Control_c, 0, 64, 105
1, 740467, Control_c, 0, 64, 105
1, 740468, Note_off_c, 0, 70, 37
1, 740481, Control_c, 0, 64, 104
1, 740563, Control_c, 0, 64, 104
1, 740578, Control_c, 0, 64, 96
1, 740582, Note_on_c, 0, 63, 39
1, 740593, Control_c, 0, 64, 78
1, 740608, Control_c, 0, 64, 64
1, 740623, Control_c, 0, 64, 59
1, 740638, Control_c, 0, 64, 61
1, 740652, Control_c, 0, 64, 64
1, 740667, Control_c, 0, 64, 68
1, 740682, Control_c, 0, 64, 75
1, 740696, Control_c, 0, 64, 87
1, 740711, Control_c, 0, 64, 96
1, 740726, Control_c, 0, 64, 105
1, 740741, Control_c, 0, 64, 112
1, 740751, Note_off_c, 0, 74, 61
1, 740756, Control_c, 0, 64, 114
1, 740800, Control_c, 0, 64, 115
1, 740814, Control_c, 0, 64, 116
1, 740829, Control_c, 0, 64, 117
1, 740889, Control_c, 0, 64, 116
1, 740919, Control_c, 0, 64, 115
1, 740931, Note_off_c, 0, 55, 61
1, 740931, Note_off_c, 0, 58, 62
1, 740964, Note_on_c, 0, 72, 59
1, 741090, Note_off_c, 0, 63, 41
1, 741172, Control_c, 0, 64, 116
1, 741217, Control_c, 0, 64, 106
1, 741232, Control_c, 0, 64, 87
1, 741239, Note_on_c, 0, 69, 50
1, 741246, Control_c, 0, 64, 69
1, 741268, Control_c, 0, 64, 61
1, 741278, Note_on_c, 0, 54, 26
1, 741283, Control_c, 0, 64, 58
1, 741298, Control_c, 0, 64, 59
1, 741312, Control_c, 0, 64, 62
1, 741327, Control_c, 0, 64, 66
1, 741342, Control_c, 0, 64, 71
1, 741357, Control_c, 0, 64, 76
1, 741372, Control_c, 0, 64, 79
1, 741387, Control_c, 0, 64, 82
1, 741402, Control_c, 0, 64, 83
1, 741416, Control_c, 0, 64, 84
1, 741431, Control_c, 0, 64, 85
1, 741438, Note_off_c, 0, 54, 56
1, 741446, Control_c, 0, 64, 87
1, 741454, Note_off_c, 0, 72, 55
1, 741461, Control_c, 0, 64, 90
1, 741473, Note_on_c, 0, 70, 59
1, 741473, Note_off_c, 0, 69, 59
1, 741476, Control_c, 0, 64, 93
1, 741491, Control_c, 0, 64, 95
1, 741506, Control_c, 0, 64, 97
1, 741520, Control_c, 0, 64, 98
1, 741549, Note_off_c, 0, 70, 57
1, 741712, Control_c, 0, 64, 98
1, 741742, Control_c, 0, 64, 96
1, 741757, Control_c, 0, 64, 91
1, 741772, Control_c, 0, 64, 79
1, 741783, Note_on_c, 0, 70, 51
1, 741786, Control_c, 0, 64, 67
1, 741795, Note_on_c, 0, 53, 26
1, 741801, Note_on_c, 0, 62, 36
1, 741801, Control_c, 0, 64, 56
1, 741817, Control_c, 0, 64, 51
1, 741832, Control_c, 0, 64, 52
1, 741837, Note_on_c, 0, 46, 23
1, 741847, Control_c, 0, 64, 56
1, 741862, Control_c, 0, 64, 61
1, 741877, Control_c, 0, 64, 64
1, 741891, Control_c, 0, 64, 67
1, 741906, Control_c, 0, 64, 69
1, 741921, Control_c, 0, 64, 71
1, 741935, Control_c, 0, 64, 72
1, 741950, Control_c, 0, 64, 74
1, 741965, Control_c, 0, 64, 75
1, 741980, Control_c, 0, 64, 78
1, 741995, Control_c, 0, 64, 81
1, 742017, Control_c, 0, 64, 84
1, 742020, Note_off_c, 0, 62, 52
1, 742032, Control_c, 0, 64, 87
1, 742047, Control_c, 0, 64, 88
1, 742062, Control_c, 0, 64, 89
1, 742094, Note_on_c, 0, 65, 44
1, 742106, Control_c, 0, 64, 89
1, 742135, Control_c, 0, 64, 90
1, 742150, Control_c, 0, 64, 90
1, 742180, Control_c, 0, 64, 91
1, 742224, Control_c, 0, 64, 90
1, 742314, Control_c, 0, 64, 90
1, 742343, Control_c, 0, 64, 89
1, 742358, Control_c, 0, 64, 89
1, 742417, Control_c, 0, 64, 88
1, 742454, Note_on_c, 0, 61, 38
1, 742468, Note_on_c, 0, 52, 37
1, 742476, Control_c, 0, 64, 88
1, 742491, Control_c, 0, 64, 84
1, 742506, Control_c, 0, 64, 75
1, 742521, Control_c, 0, 64, 65
1, 742535, Control_c, 0, 64, 55
1, 742550, Control_c, 0, 64, 45
1, 742565, Control_c, 0, 64, 44
1, 742573, Note_off_c, 0, 53, 43
1, 742580, Control_c, 0, 64, 47
1, 742595, Control_c, 0, 64, 54
1, 742611, Control_c, 0, 64, 59
1, 742626, Control_c, 0, 64, 62
1, 742640, Control_c, 0, 64, 64
1, 742655, Control_c, 0, 64, 65
1, 742670, Control_c, 0, 64, 66
1, 742684, Control_c, 0, 64, 68
1, 742699, Control_c, 0, 64, 70
1, 742714, Control_c, 0, 64, 73
1, 742729, Control_c, 0, 64, 77
1, 742744, Control_c, 0, 64, 82
1, 742766, Control_c, 0, 64, 86
1, 742781, Control_c, 0, 64, 90
1, 742796, Control_c, 0, 64, 92
1, 742811, Control_c, 0, 64, 94
1, 742826, Control_c, 0, 64, 95
1, 742840, Control_c, 0, 64, 96
1, 742855, Control_c, 0, 64, 98
1, 742870, Control_c, 0, 64, 100
1, 742884, Control_c, 0, 64, 101
1, 742889, Note_off_c, 0, 61, 46
1, 742899, Control_c, 0, 64, 102
1, 742914, Control_c, 0, 64, 104
1, 742929, Control_c, 0, 64, 104
1, 742944, Control_c, 0, 64, 105
1, 742988, Control_c, 0, 64, 105
1, 743018, Control_c, 0, 64, 107
1, 743032, Control_c, 0, 64, 108
1, 743047, Control_c, 0, 64, 109
1, 743085, Note_off_c, 0, 70, 46
1, 743151, Control_c, 0, 64, 110
1, 743166, Control_c, 0, 64, 110
1, 743181, Control_c, 0, 64, 111
1, 743196, Control_c, 0, 64, 112
1, 743211, Control_c, 0, 64, 114
1, 743226, Control_c, 0, 64, 115
1, 743255, Control_c, 0, 64, 108
1, 743270, Control_c, 0, 64, 91
1, 743282, Note_on_c, 0, 67, 48
1, 743284, Control_c, 0, 64, 75
1, 743297, Note_on_c, 0, 51, 28
1, 743299, Control_c, 0, 64, 64
1, 743312, Note_on_c, 0, 60, 25
1, 743314, Control_c, 0, 64, 59
1, 743329, Control_c, 0, 64, 60
1, 743344, Control_c, 0, 64, 62
1, 743358, Control_c, 0, 64, 65
1, 743373, Control_c, 0, 64, 68
1, 743374, Note_off_c, 0, 52, 30
1, 743388, Control_c, 0, 64, 73
1, 743395, Note_off_c, 0, 65, 41
1, 743403, Control_c, 0, 64, 77
1, 743419, Control_c, 0, 64, 80
1, 743434, Control_c, 0, 64, 82
1, 743449, Control_c, 0, 64, 85
1, 743463, Control_c, 0, 64, 88
1, 743478, Control_c, 0, 64, 93
1, 743493, Control_c, 0, 64, 100
1, 743515, Control_c, 0, 64, 108
1, 743530, Control_c, 0, 64, 115
1, 743545, Control_c, 0, 64, 122
1, 743560, Control_c, 0, 64, 127
1, 743580, Note_off_c, 0, 46, 33
1, 743602, Note_off_c, 0, 51, 53
1, 743620, Note_off_c, 0, 60, 41
1, 743667, Note_off_c, 0, 67, 36
1, 743968, Note_on_c, 0, 69, 51
1, 744117, Note_on_c, 0, 50, 16
1, 744129, Note_on_c, 0, 43, 32
1, 744166, Control_c, 0, 64, 105
1, 744180, Control_c, 0, 64, 84
1, 744186, Note_on_c, 0, 59, 39
1, 744195, Note_on_c, 0, 67, 52
1, 744195, Control_c, 0, 64, 69
1, 744211, Control_c, 0, 64, 60
1, 744226, Control_c, 0, 64, 53
1, 744241, Control_c, 0, 64, 54
1, 744263, Control_c, 0, 64, 57
1, 744278, Control_c, 0, 64, 62
1, 744293, Control_c, 0, 64, 65
1, 744308, Control_c, 0, 64, 67
1, 744323, Control_c, 0, 64, 70
1, 744337, Control_c, 0, 64, 71
1, 744352, Control_c, 0, 64, 73
1, 744367, Control_c, 0, 64, 75
1, 744382, Control_c, 0, 64, 78
1, 744397, Control_c, 0, 64, 81
1, 744411, Control_c, 0, 64, 87
1, 744426, Control_c, 0, 64, 91
1, 744441, Control_c, 0, 64, 96
1, 744456, Control_c, 0, 64, 100
1, 744471, Control_c, 0, 64, 105
1, 744475, Note_off_c, 0, 69, 31
1, 744485, Control_c, 0, 64, 110
1, 744500, Control_c, 0, 64, 116
1, 744515, Control_c, 0, 64, 127
1, 744517, Note_off_c, 0, 67, 57
1, 744533, Note_off_c, 0, 59, 61
1, 744571, Note_on_c, 0, 62, 47
1, 744856, Note_on_c, 0, 49, 23
1, 744916, Control_c, 0, 64, 95
1, 744930, Control_c, 0, 64, 76
1, 744934, Note_on_c, 0, 58, 51
1, 744945, Control_c, 0, 64, 66
1, 744960, Control_c, 0, 64, 63
1, 744975, Control_c, 0, 64, 64
1, 744990, Control_c, 0, 64, 67
1, 745013, Control_c, 0, 64, 72
1, 745028, Control_c, 0, 64, 80
1, 745042, Control_c, 0, 64, 87
1, 745057, Control_c, 0, 64, 92
1, 745072, Control_c, 0, 64, 95
1, 745086, Note_off_c, 0, 43, 35
1, 745087, Control_c, 0, 64, 97
1, 745102, Control_c, 0, 64, 99
1, 745114, Note_off_c, 0, 50, 41
1, 745116, Control_c, 0, 64, 103
1, 745131, Control_c, 0, 64, 110
1, 745146, Control_c, 0, 64, 125
1, 745160, Control_c, 0, 64, 127
1, 745192, Note_off_c, 0, 62, 34
1, 745237, Note_on_c, 0, 64, 52
1, 745238, Note_off_c, 0, 58, 48
1, 745536, Note_off_c, 0, 49, 34
1, 745605, Control_c, 0, 64, 90
1, 745619, Control_c, 0, 64, 68
1, 745623, Note_on_c, 0, 57, 50
1, 745634, Control_c, 0, 64, 60
1, 745649, Control_c, 0, 64, 57
1, 745652, Note_on_c, 0, 48, 24
1, 745660, Note_on_c, 0, 41, 16
1, 745664, Control_c, 0, 64, 60
1, 745678, Control_c, 0, 64, 63
1, 745693, Control_c, 0, 64, 67
1, 745708, Control_c, 0, 64, 74
1, 745723, Control_c, 0, 64, 79
1, 745738, Control_c, 0, 64, 83
1, 745760, Control_c, 0, 64, 85
1, 745774, Control_c, 0, 64, 86
1, 745789, Control_c, 0, 64, 87
1, 745805, Control_c, 0, 64, 89
1, 745820, Control_c, 0, 64, 95
1, 745835, Control_c, 0, 64, 102
1, 745850, Control_c, 0, 64, 110
1, 745864, Control_c, 0, 64, 122
1, 745879, Control_c, 0, 64, 127
1, 746043, Control_c, 0, 64, 87
1, 746057, Control_c, 0, 64, 68
1, 746062, Note_on_c, 0, 65, 56
1, 746072, Control_c, 0, 64, 58
1, 746086, Note_off_c, 0, 64, 40
1, 746087, Control_c, 0, 64, 54
1, 746102, Note_on_c, 0, 47, 28
1, 746102, Control_c, 0, 64, 57
1, 746116, Control_c, 0, 64, 63
1, 746131, Control_c, 0, 64, 68
1, 746134, Note_off_c, 0, 48, 39
1, 746146, Control_c, 0, 64, 74
1, 746160, Control_c, 0, 64, 82
1, 746175, Control_c, 0, 64, 89
1, 746189, Control_c, 0, 64, 96
1, 746204, Control_c, 0, 64, 101
1, 746219, Control_c, 0, 64, 109
1, 746222, Note_off_c, 0, 41, 41
1, 746234, Control_c, 0, 64, 127
1, 746245, Note_off_c, 0, 65, 59
1, 746248, Note_off_c, 0, 57, 60
1, 746254, Note_off_c, 0, 47, 38
1, 746746, Control_c, 0, 64, 115
1, 746750, Note_on_c, 0, 64, 47
1, 746761, Control_c, 0, 64, 108
1, 746772, Note_on_c, 0, 55, 31
1, 746776, Control_c, 0, 64, 104
1, 746790, Note_on_c, 0, 48, 18
1, 746791, Control_c, 0, 64, 100
1, 746791, Note_on_c, 0, 36, 25
1, 746805, Control_c, 0, 64, 96
1, 746810, Note_on_c, 0, 60, 26
1, 746820, Control_c, 0, 64, 91
1, 746835, Control_c, 0, 64, 83
1, 746850, Control_c, 0, 64, 75
1, 746865, Control_c, 0, 64, 68
1, 746879, Control_c, 0, 64, 61
1, 746894, Control_c, 0, 64, 48
1, 746909, Control_c, 0, 64, 35
1, 746923, Control_c, 0, 64, 26
1, 746938, Control_c, 0, 64, 26
1, 746953, Control_c, 0, 64, 27
1, 746968, Control_c, 0, 64, 31
1, 746983, Control_c, 0, 64, 37
1, 746997, Control_c, 0, 64, 45
1, 747012, Control_c, 0, 64, 53
1, 747027, Control_c, 0, 64, 57
1, 747042, Control_c, 0, 64, 59
1, 747057, Control_c, 0, 64, 61
1, 747072, Control_c, 0, 64, 63
1, 747086, Control_c, 0, 64, 64
1, 747101, Control_c, 0, 64, 65
1, 747116, Control_c, 0, 64, 67
1, 747131, Control_c, 0, 64, 70
1, 747146, Control_c, 0, 64, 73
1, 747161, Control_c, 0, 64, 78
1, 747176, Control_c, 0, 64, 83
1, 747190, Control_c, 0, 64, 88
1, 747205, Control_c, 0, 64, 95
1, 747220, Control_c, 0, 64, 100
1, 747235, Control_c, 0, 64, 105
1, 747257, Control_c, 0, 64, 109
1, 747272, Control_c, 0, 64, 115
1, 747286, Control_c, 0, 64, 127
1, 747542, Note_off_c, 0, 36, 39
1, 747545, Note_off_c, 0, 48, 39
1, 747616, Note_off_c, 0, 55, 43
1, 747654, Note_off_c, 0, 64, 55
1, 747659, Note_off_c, 0, 60, 41
1, 748505, Note_on_c, 0, 62, 30
1, 748523, Note_on_c, 0, 53, 30
1, 748534, Note_on_c, 0, 48, 21
1, 748547, Note_on_c, 0, 60, 19
1, 748551, Note_on_c, 0, 33, 21
1, 748585, Control_c, 0, 64, 114
1, 748600, Control_c, 0, 64, 99
1, 748615, Control_c, 0, 64, 88
1, 748630, Control_c, 0, 64, 77
1, 748644, Control_c, 0, 64, 68
1, 748659, Control_c, 0, 64, 62
1, 748674, Control_c, 0, 64, 54
1, 748689, Control_c, 0, 64, 50
1, 748733, Control_c, 0, 64, 50
1, 748755, Control_c, 0, 64, 51
1, 748770, Control_c, 0, 64, 52
1, 748785, Control_c, 0, 64, 54
1, 748800, Control_c, 0, 64, 57
1, 748815, Control_c, 0, 64, 59
1, 748830, Control_c, 0, 64, 61
1, 748845, Control_c, 0, 64, 62
1, 748859, Control_c, 0, 64, 64
1, 748874, Control_c, 0, 64, 65
1, 748889, Control_c, 0, 64, 67
1, 748903, Control_c, 0, 64, 69
1, 748918, Control_c, 0, 64, 71
1, 748933, Control_c, 0, 64, 73
1, 748948, Control_c, 0, 64, 76
1, 748963, Control_c, 0, 64, 79
1, 748977, Control_c, 0, 64, 83
1, 748992, Control_c, 0, 64, 87
1, 749008, Control_c, 0, 64, 91
1, 749023, Control_c, 0, 64, 96
1, 749038, Control_c, 0, 64, 101
1, 749053, Control_c, 0, 64, 106
1, 749068, Control_c, 0, 64, 113
1, 749082, Control_c, 0, 64, 122
1, 749097, Control_c, 0, 64, 127
1, 749554, Note_off_c, 0, 33, 36
1, 749590, Note_off_c, 0, 62, 39
1, 749610, Note_off_c, 0, 48, 37
1, 749699, Note_off_c, 0, 60, 33
1, 749742, Note_off_c, 0, 53, 42
1, 750828, Note_on_c, 0, 55, 19
1, 750839, Note_on_c, 0, 64, 25
1, 750849, Note_on_c, 0, 48, 19
1, 750873, Note_on_c, 0, 60, 10
1, 750874, Note_on_c, 0, 36, 20
1, 750876, Note_on_c, 0, 43, 15
1, 750920, Control_c, 0, 64, 111
1, 750934, Control_c, 0, 64, 98
1, 750949, Control_c, 0, 64, 90
1, 750964, Control_c, 0, 64, 84
1, 750979, Control_c, 0, 64, 80
1, 751001, Control_c, 0, 64, 77
1, 751016, Control_c, 0, 64, 75
1, 751031, Control_c, 0, 64, 73
1, 751045, Control_c, 0, 64, 71
1, 751060, Control_c, 0, 64, 70
1, 751075, Control_c, 0, 64, 68
1, 751090, Control_c, 0, 64, 67
1, 751105, Control_c, 0, 64, 65
1, 751119, Control_c, 0, 64, 64
1, 751134, Control_c, 0, 64, 63
1, 751149, Control_c, 0, 64, 62
1, 751164, Control_c, 0, 64, 61
1, 751179, Control_c, 0, 64, 60
1, 751194, Control_c, 0, 64, 58
1, 751209, Control_c, 0, 64, 56
1, 751224, Control_c, 0, 64, 54
1, 751238, Control_c, 0, 64, 53
1, 751253, Control_c, 0, 64, 51
1, 751268, Control_c, 0, 64, 48
1, 751283, Control_c, 0, 64, 42
1, 751297, Control_c, 0, 64, 35
1, 751312, Control_c, 0, 64, 25
1, 751327, Control_c, 0, 64, 17
1, 751342, Control_c, 0, 64, 0
1, 753456, Control_c, 0, 64, 9
1, 753471, Control_c, 0, 64, 13
1, 753486, Control_c, 0, 64, 17
1, 753501, Control_c, 0, 64, 23
1, 753515, Control_c, 0, 64, 28
1, 753530, Control_c, 0, 64, 34
1, 753545, Control_c, 0, 64, 39
1, 753560, Control_c, 0, 64, 42
1, 753574, Control_c, 0, 64, 45
1, 753589, Control_c, 0, 64, 49
1, 753604, Control_c, 0, 64, 53
1, 753619, Control_c, 0, 64, 56
1, 753634, Control_c, 0, 64, 58
1, 753649, Control_c, 0, 64, 60
1, 753663, Control_c, 0, 64, 61
1, 753678, Control_c, 0, 64, 63
1, 753693, Control_c, 0, 64, 64
1, 753708, Control_c, 0, 64, 65
1, 753722, Control_c, 0, 64, 68
1, 753737, Control_c, 0, 64, 70
1, 753752, Control_c, 0, 64, 73
1, 753766, Control_c, 0, 64, 77
1, 753781, Control_c, 0, 64, 83
1, 753797, Control_c, 0, 64, 89
1, 753812, Control_c, 0, 64, 98
1, 753827, Control_c, 0, 64, 107
1, 753842, Control_c, 0, 64, 127
1, 754212, Note_off_c, 0, 55, 47
1, 754245, Note_off_c, 0, 64, 53
1, 754250, Note_off_c, 0, 48, 54
1, 754252, Note_off_c, 0, 60, 42
1, 754258, Note_off_c, 0, 43, 49
1, 754301, Note_off_c, 0, 36, 40
1, 754836, Note_on_c, 0, 41, 104
1, 754836, Note_on_c, 0, 89, 100
1, 754838, Note_on_c, 0, 29, 85
1, 754839, Note_on_c, 0, 77, 105
1, 754867, Note_off_c, 0, 29, 65
1, 754871, Note_off_c, 0, 77, 71
1, 754872, Note_off_c, 0, 89, 67
1, 754873, Note_on_c, 0, 79, 47
1, 754874, Note_off_c, 0, 79, 127
1, 754874, Note_off_c, 0, 41, 67
1, 755112, Note_on_c, 0, 82, 80
1, 755115, Note_on_c, 0, 58, 81
1, 755123, Note_on_c, 0, 70, 92
1, 755129, Poly_aftertouch_c, 0, 63, 0
1, 755183, Note_off_c, 0, 70, 61
1, 755200, Note_off_c, 0, 58, 62
1, 755209, Note_off_c, 0, 82, 63
1, 755234, Control_c, 0, 64, 125
1, 755238, Note_on_c, 0, 61, 95
1, 755241, Note_on_c, 0, 64, 92
1, 755241, Note_on_c, 0, 79, 97
1, 755245, Note_on_c, 0, 67, 101
1, 755249, Control_c, 0, 64, 62
1, 755264, Control_c, 0, 64, 0
1, 755323, Control_c, 0, 64, 48
1, 755337, Control_c, 0, 64, 69
1, 755341, Note_off_c, 0, 79, 62
1, 755352, Control_c, 0, 64, 95
1, 755357, Note_on_c, 0, 76, 83
1, 755367, Control_c, 0, 64, 127
1, 755391, Note_off_c, 0, 76, 62
1, 755394, Note_off_c, 0, 67, 62
1, 755445, Note_on_c, 0, 73, 87
1, 755474, Note_off_c, 0, 61, 67
1, 755476, Note_off_c, 0, 64, 60
1, 755516, Note_on_c, 0, 70, 83
1, 755549, Note_off_c, 0, 73, 62
1, 755563, Note_on_c, 0, 67, 84
1, 755600, Note_off_c, 0, 70, 65
1, 755610, Note_off_c, 0, 67, 62
1, 755625, Note_on_c, 0, 64, 80
1, 755646, Note_off_c, 0, 64, 71
1, 755686, Note_on_c, 0, 61, 91
1, 755717, Note_on_c, 0, 58, 76
1, 755756, Note_off_c, 0, 61, 64
1, 755760, Note_on_c, 0, 55, 82
1, 755772, Note_off_c, 0, 58, 64
1, 755775, Note_on_c, 0, 57, 84
1, 755801, Note_off_c, 0, 55, 58
1, 755859, Note_on_c, 0, 54, 76
1, 755864, Note_off_c, 0, 57, 63
1, 755886, Note_on_c, 0, 51, 90
1, 755901, Note_off_c, 0, 54, 64
1, 755907, Note_off_c, 0, 51, 70
1, 755938, Control_c, 0, 64, 79
1, 755953, Control_c, 0, 64, 46
1, 755967, Control_c, 0, 64, 0
1, 755975, Note_on_c, 0, 47, 73
1, 756007, Note_on_c, 0, 57, 79
1, 756011, Note_on_c, 0, 51, 89
1, 756016, Note_off_c, 0, 47, 59
1, 756020, Note_on_c, 0, 48, 69
1, 756036, Note_off_c, 0, 57, 66
1, 756038, Note_off_c, 0, 48, 64
1, 756049, Note_off_c, 0, 51, 65
1, 756061, Note_on_c, 0, 44, 62
1, 756127, Note_off_c, 0, 44, 64
1, 756151, Note_on_c, 0, 41, 48
1, 756152, Note_on_c, 0, 40, 51
1, 756196, Note_off_c, 0, 41, 64
1, 756200, Note_off_c, 0, 40, 64
1, 756214, Note_on_c, 0, 41, 87
1, 756224, Note_on_c, 0, 34, 76
1, 756226, Note_on_c, 0, 53, 103
1, 756227, Note_on_c, 0, 50, 101
1, 756229, Note_on_c, 0, 62, 93
1, 756240, Note_on_c, 0, 58, 91
1, 756243, Control_c, 0, 64, 59
1, 756252, Note_off_c, 0, 50, 74
1, 756255, Note_off_c, 0, 34, 65
1, 756255, Note_off_c, 0, 41, 66
1, 756258, Control_c, 0, 64, 127
1, 756258, Note_off_c, 0, 53, 69
1, 756262, Note_off_c, 0, 58, 69
1, 756269, Note_off_c, 0, 62, 63
1, 756346, Control_c, 0, 64, 98
1, 756361, Control_c, 0, 64, 60
1, 756376, Control_c, 0, 64, 0
1, 756878, Note_on_c, 0, 41, 101
1, 756878, Note_on_c, 0, 50, 98
1, 756880, Note_on_c, 0, 53, 96
1, 756880, Note_on_c, 0, 62, 84
1, 756881, Note_on_c, 0, 34, 87
1, 756882, Note_on_c, 0, 58, 89
1, 756894, Control_c, 0, 64, 73
1, 756901, Note_off_c, 0, 41, 71
1, 756902, Note_off_c, 0, 50, 70
1, 756907, Note_off_c, 0, 53, 68
1, 756908, Note_off_c, 0, 34, 68
1, 756909, Note_off_c, 0, 58, 69
1, 756909, Control_c, 0, 64, 127
1, 756920, Note_off_c, 0, 62, 65
1, 756938, Control_c, 0, 64, 72
1, 756953, Control_c, 0, 64, 0
1, 756973, Poly_aftertouch_c, 0, 59, 0
1, 757536, Note_on_c, 0, 50, 82
1, 757543, Note_on_c, 0, 53, 65
1, 757544, Note_on_c, 0, 58, 59
1, 757545, Note_on_c, 0, 41, 75
1, 757552, Note_on_c, 0, 34, 64
1, 757560, Note_off_c, 0, 50, 68
1, 757562, Note_off_c, 0, 53, 63
1, 757566, Note_on_c, 0, 62, 35
1, 757566, Note_off_c, 0, 58, 60
1, 757573, Note_off_c, 0, 41, 66
1, 757584, Note_off_c, 0, 34, 62
1, 757611, Note_on_c, 0, 50, 88
1, 757622, Note_on_c, 0, 53, 81
1, 757624, Note_on_c, 0, 41, 81
1, 757625, Note_on_c, 0, 58, 74
1, 757627, Note_off_c, 0, 62, 0
1, 757627, Note_on_c, 0, 62, 38
1, 757632, Note_on_c, 0, 34, 65
1, 757645, Note_off_c, 0, 50, 66
1, 757647, Note_off_c, 0, 53, 67
1, 757650, Note_off_c, 0, 41, 67
1, 757653, Note_off_c, 0, 58, 67
1, 757656, Note_off_c, 0, 62, 58
1, 757664, Note_off_c, 0, 34, 63
1, 757703, Note_on_c, 0, 41, 86
1, 757710, Note_on_c, 0, 53, 79
1, 757710, Note_on_c, 0, 34, 89
1, 757711, Note_on_c, 0, 50, 93
1, 757714, Note_on_c, 0, 58, 78
1, 757720, Note_on_c, 0, 62, 76
1, 757738, Note_off_c, 0, 41, 66
1, 757741, Note_off_c, 0, 50, 69
1, 757743, Note_off_c, 0, 53, 69
1, 757746, Note_off_c, 0, 58, 66
1, 757747, Note_off_c, 0, 34, 68
1, 757752, Note_off_c, 0, 62, 69
1, 757841, Note_on_c, 0, 58, 27
1, 757870, Note_off_c, 0, 58, 49
1, 757939, Note_on_c, 0, 41, 96
1, 757940, Note_on_c, 0, 34, 80
1, 757940, Note_on_c, 0, 50, 93
1, 757941, Note_on_c, 0, 53, 91
1, 757943, Note_on_c, 0, 62, 87
1, 757946, Note_on_c, 0, 58, 83
1, 757962, Note_off_c, 0, 41, 71
1, 757965, Note_off_c, 0, 50, 67
1, 757969, Note_off_c, 0, 53, 68
1, 757971, Note_off_c, 0, 34, 67
1, 757971, Note_off_c, 0, 58, 70
1, 757980, Note_off_c, 0, 62, 61
1, 758367, Note_on_c, 0, 41, 83
1, 758376, Note_on_c, 0, 34, 72
1, 758381, Note_on_c, 0, 58, 67
1, 758382, Note_on_c, 0, 50, 71
1, 758384, Note_on_c, 0, 53, 63
1, 758393, Note_on_c, 0, 62, 55
1, 758400, Note_off_c, 0, 41, 66
1, 758407, Note_off_c, 0, 34, 62
1, 758413, Note_off_c, 0, 50, 66
1, 758415, Note_off_c, 0, 58, 61
1, 758417, Note_off_c, 0, 53, 64
1, 758455, Note_on_c, 0, 41, 81
1, 758462, Note_on_c, 0, 50, 76
1, 758464, Note_on_c, 0, 34, 79
1, 758466, Note_on_c, 0, 53, 74
1, 758473, Note_off_c, 0, 62, 58
1, 758489, Poly_aftertouch_c, 0, 58, 0
1, 758494, Note_off_c, 0, 50, 67
1, 758501, Note_off_c, 0, 41, 65
1, 758501, Note_off_c, 0, 53, 66
1, 758505, Note_off_c, 0, 34, 65
1, 758554, Note_on_c, 0, 50, 95
1, 758555, Note_on_c, 0, 53, 97
1, 758558, Note_on_c, 0, 41, 94
1, 758560, Note_on_c, 0, 34, 96
1, 758563, Note_on_c, 0, 62, 93
1, 758565, Note_on_c, 0, 58, 82
1, 758584, Note_off_c, 0, 41, 71
1, 758584, Note_off_c, 0, 53, 67
1, 758588, Note_off_c, 0, 50, 69
1, 758588, Note_off_c, 0, 58, 68
1, 758595, Note_off_c, 0, 34, 64
1, 758595, Note_off_c, 0, 62, 62
1, 758874, Note_on_c, 0, 50, 72
1, 758882, Note_on_c, 0, 58, 62
1, 758887, Note_on_c, 0, 34, 54
1, 758887, Note_on_c, 0, 62, 53
1, 758904, Note_off_c, 0, 50, 64
1, 758913, Note_off_c, 0, 62, 60
1, 758914, Note_off_c, 0, 58, 65
1, 758927, Note_off_c, 0, 34, 61
1, 759001, Note_on_c, 0, 58, 73
1, 759013, Note_on_c, 0, 50, 62
1, 759025, Note_on_c, 0, 62, 42
1, 759028, Note_on_c, 0, 40, 60
1, 759040, Note_on_c, 0, 34, 30
1, 759041, Note_off_c, 0, 50, 66
1, 759045, Note_off_c, 0, 58, 62
1, 759052, Note_off_c, 0, 62, 57
1, 759066, Note_off_c, 0, 40, 62
1, 759081, Note_off_c, 0, 34, 46
1, 759126, Note_on_c, 0, 57, 81
1, 759145, Note_on_c, 0, 38, 57
1, 759148, Note_on_c, 0, 50, 42
1, 759165, Note_off_c, 0, 57, 64
1, 759177, Note_off_c, 0, 50, 50
1, 759181, Note_off_c, 0, 38, 61
1, 759248, Note_on_c, 0, 58, 75
1, 759254, Note_on_c, 0, 41, 59
1, 759262, Note_on_c, 0, 50, 57
1, 759278, Note_off_c, 0, 58, 64
1, 759286, Note_off_c, 0, 50, 59
1, 759287, Note_off_c, 0, 41, 61
1, 759289, Note_on_c, 0, 62, 28
1, 759329, Note_off_c, 0, 62, 31
1, 759349, Note_on_c, 0, 56, 83
1, 759350, Note_on_c, 0, 50, 74
1, 759364, Note_on_c, 0, 38, 50
1, 759376, Note_off_c, 0, 50, 66
1, 759376, Note_on_c, 0, 34, 45
1, 759397, Note_off_c, 0, 56, 63
1, 759400, Note_off_c, 0, 38, 62
1, 759420, Note_off_c, 0, 34, 54
1, 759451, Note_on_c, 0, 50, 76
1, 759452, Note_on_c, 0, 42, 75
1, 759457, Note_on_c, 0, 58, 75
1, 759469, Note_on_c, 0, 62, 58
1, 759484, Note_off_c, 0, 50, 67
1, 759485, Note_off_c, 0, 42, 62
1, 759499, Note_off_c, 0, 62, 64
1, 759508, Note_off_c, 0, 58, 61
1, 759548, Note_on_c, 0, 55, 89
1, 759551, Note_on_c, 0, 38, 64
1, 759552, Note_on_c, 0, 34, 62
1, 759594, Note_off_c, 0, 55, 65
1, 759595, Note_off_c, 0, 34, 63
1, 759619, Note_off_c, 0, 38, 0
1, 759655, Note_on_c, 0, 50, 89
1, 759657, Note_on_c, 0, 34, 62
1, 759657, Poly_aftertouch_c, 0, 38, 127
1, 759675, Note_on_c, 0, 58, 60
1, 759680, Note_on_c, 0, 41, 19
1, 759688, Note_off_c, 0, 34, 61
1, 759698, Note_off_c, 0, 50, 64
1, 759705, Note_off_c, 0, 58, 64
1, 759725, Note_off_c, 0, 41, 30
1, 759737, Poly_aftertouch_c, 0, 38, 0
1, 759746, Note_on_c, 0, 54, 98
1, 759755, Note_on_c, 0, 34, 71
1, 759773, Poly_aftertouch_c, 0, 38, 127
1, 759814, Note_off_c, 0, 54, 65
1, 759818, Poly_aftertouch_c, 0, 38, 0
1, 759832, Note_off_c, 0, 34, 63
1, 759838, Note_on_c, 0, 40, 92
1, 759842, Note_on_c, 0, 50, 102
1, 759847, Note_on_c, 0, 58, 93
1, 759853, Note_on_c, 0, 62, 73
1, 759874, Note_off_c, 0, 40, 65
1, 759878, Note_off_c, 0, 62, 68
1, 759882, Note_off_c, 0, 50, 67
1, 759914, Note_off_c, 0, 58, 62
1, 759959, Note_on_c, 0, 22, 80
1, 759963, Note_on_c, 0, 53, 95
1, 760034, Note_off_c, 0, 53, 65
1, 760092, Note_on_c, 0, 29, 35
1, 760101, Note_on_c, 0, 58, 91
1, 760104, Note_on_c, 0, 34, 104
1, 760105, Control_c, 0, 64, 37
1, 760107, Note_on_c, 0, 49, 94
1, 760108, Note_on_c, 0, 57, 31
1, 760108, Note_on_c, 0, 61, 80
1, 760109, Note_on_c, 0, 54, 96
1, 760120, Control_c, 0, 64, 127
1, 760127, Note_off_c, 0, 49, 74
1, 760132, Note_off_c, 0, 61, 69
1, 760134, Note_off_c, 0, 29, 56
1, 760136, Note_off_c, 0, 22, 59
1, 760139, Note_off_c, 0, 57, 54
1, 760146, Note_off_c, 0, 54, 66
1, 760147, Note_off_c, 0, 34, 63
1, 760149, Note_off_c, 0, 58, 67
1, 760398, Note_on_c, 0, 42, 88
1, 760411, Note_on_c, 0, 73, 104
1, 760414, Note_on_c, 0, 70, 95
1, 760521, Note_off_c, 0, 70, 62
1, 760531, Note_off_c, 0, 73, 64
1, 760566, Note_off_c, 0, 42, 64
1, 760580, Note_on_c, 0, 58, 99
1, 760584, Note_on_c, 0, 70, 116
1, 760584, Note_on_c, 0, 78, 104
1, 760584, Note_on_c, 0, 82, 95
1, 760588, Note_on_c, 0, 73, 98
1, 760600, Note_on_c, 0, 49, 29
1, 760628, Note_on_c, 0, 80, 30
1, 760637, Note_off_c, 0, 49, 45
1, 760661, Note_off_c, 0, 80, 52
1, 760672, Note_off_c, 0, 58, 60
1, 760673, Note_off_c, 0, 82, 63
1, 760710, Note_on_c, 0, 49, 81
1, 760757, Note_off_c, 0, 70, 52
1, 760780, Note_off_c, 0, 78, 61
1, 760802, Note_on_c, 0, 42, 83
1, 760822, Note_off_c, 0, 73, 63
1, 760827, Note_off_c, 0, 49, 64
1, 760828, Note_on_c, 0, 41, 70
1, 760854, Note_off_c, 0, 41, 66
1, 760854, Note_off_c, 0, 42, 63
1, 760907, Note_on_c, 0, 34, 97
1, 760997, Note_on_c, 0, 73, 96
1, 761002, Note_on_c, 0, 61, 92
1, 761007, Note_on_c, 0, 70, 88
1, 761020, Note_on_c, 0, 22, 85
1, 761046, Note_off_c, 0, 61, 64
1, 761061, Note_off_c, 0, 34, 59
1, 761097, Note_off_c, 0, 73, 66
1, 761123, Control_c, 0, 64, 86
1, 761137, Control_c, 0, 64, 43
1, 761152, Control_c, 0, 64, 0
1, 761156, Note_on_c, 0, 34, 103
1, 761159, Note_on_c, 0, 68, 104
1, 761162, Note_on_c, 0, 80, 100
1, 761182, Control_c, 0, 64, 38
1, 761186, Note_off_c, 0, 22, 63
1, 761194, Note_off_c, 0, 70, 59
1, 761195, Note_on_c, 0, 71, 44
1, 761197, Control_c, 0, 64, 66
1, 761203, Note_off_c, 0, 34, 65
1, 761211, Control_c, 0, 64, 103
1, 761225, Note_off_c, 0, 71, 35
1, 761226, Control_c, 0, 64, 127
1, 761275, Note_off_c, 0, 80, 64
1, 761333, Note_off_c, 0, 68, 64
1, 761356, Note_on_c, 0, 42, 44
1, 761361, Note_on_c, 0, 44, 57
1, 761391, Note_off_c, 0, 42, 61
1, 761397, Note_on_c, 0, 58, 96
1, 761403, Note_on_c, 0, 46, 46
1, 761421, Note_off_c, 0, 44, 56
1, 761445, Note_off_c, 0, 46, 62
1, 761459, Note_off_c, 0, 58, 65
1, 761474, Note_on_c, 0, 49, 70
1, 761504, Note_on_c, 0, 73, 89
1, 761511, Note_on_c, 0, 61, 73
1, 761512, Note_on_c, 0, 42, 83
1, 761526, Note_on_c, 0, 70, 77
1, 761535, Note_off_c, 0, 61, 69
1, 761536, Note_off_c, 0, 49, 64
1, 761538, Note_on_c, 0, 41, 72
1, 761559, Note_off_c, 0, 42, 60
1, 761567, Note_off_c, 0, 73, 64
1, 761570, Note_off_c, 0, 41, 64
1, 761603, Control_c, 0, 64, 99
1, 761618, Control_c, 0, 64, 58
1, 761621, Note_on_c, 0, 66, 100
1, 761621, Note_on_c, 0, 78, 98
1, 761624, Note_off_c, 0, 70, 37
1, 761633, Control_c, 0, 64, 0
1, 761641, Note_on_c, 0, 34, 88
1, 761678, Control_c, 0, 64, 60
1, 761693, Control_c, 0, 64, 76
1, 761707, Control_c, 0, 64, 127
1, 761726, Note_off_c, 0, 34, 59
1, 761729, Note_off_c, 0, 78, 64
1, 761761, Note_on_c, 0, 22, 73
1, 761763, Note_off_c, 0, 66, 65
1, 761766, Poly_aftertouch_c, 0, 32, 0
1, 761825, Note_on_c, 0, 34, 107
1, 761848, Note_off_c, 0, 22, 61
1, 761866, Note_off_c, 0, 34, 64
1, 761912, Note_on_c, 0, 70, 81
1, 761916, Note_on_c, 0, 58, 68
1, 761928, Poly_aftertouch_c, 0, 35, 127
1, 761936, Note_on_c, 0, 66, 68
1, 761937, Note_off_c, 0, 58, 39
1, 761969, Poly_aftertouch_c, 0, 35, 0
1, 761974, Note_off_c, 0, 70, 65
1, 761990, Note_on_c, 0, 42, 36
1, 761992, Note_off_c, 0, 66, 62
1, 761998, Note_on_c, 0, 44, 55
1, 762019, Control_c, 0, 64, 80
1, 762023, Note_off_c, 0, 42, 52
1, 762034, Control_c, 0, 64, 62
1, 762036, Note_off_c, 0, 44, 59
1, 762037, Note_on_c, 0, 58, 87
1, 762037, Note_on_c, 0, 65, 94
1, 762038, Note_on_c, 0, 77, 100
1, 762041, Note_on_c, 0, 46, 26
1, 762049, Control_c, 0, 64, 53
1, 762061, Note_on_c, 0, 67, 64
1, 762064, Control_c, 0, 64, 58
1, 762078, Control_c, 0, 64, 64
1, 762080, Note_on_c, 0, 59, 30
1, 762080, Note_off_c, 0, 67, 41
1, 762091, Note_off_c, 0, 46, 57
1, 762093, Control_c, 0, 64, 74
1, 762102, Note_off_c, 0, 58, 64
1, 762108, Control_c, 0, 64, 120
1, 762110, Note_on_c, 0, 49, 61
1, 762113, Note_off_c, 0, 59, 36
1, 762123, Control_c, 0, 64, 127
1, 762124, Note_off_c, 0, 77, 66
1, 762154, Note_off_c, 0, 65, 64
1, 762161, Note_on_c, 0, 42, 80
1, 762183, Note_off_c, 0, 49, 64
1, 762199, Note_off_c, 0, 42, 64
1, 762273, Note_on_c, 0, 34, 82
1, 762332, Note_on_c, 0, 70, 83
1, 762336, Note_on_c, 0, 58, 84
1, 762364, Note_on_c, 0, 66, 64
1, 762370, Note_off_c, 0, 34, 54
1, 762377, Note_off_c, 0, 58, 62
1, 762378, Note_on_c, 0, 22, 75
1, 762409, Note_off_c, 0, 70, 62
1, 762411, Control_c, 0, 64, 85
1, 762426, Control_c, 0, 64, 50
1, 762441, Control_c, 0, 64, 0
1, 762449, Note_on_c, 0, 75, 92
1, 762455, Note_on_c, 0, 34, 94
1, 762456, Note_on_c, 0, 63, 103
1, 762478, Note_off_c, 0, 22, 60
1, 762485, Control_c, 0, 64, 51
1, 762500, Control_c, 0, 64, 71
1, 762502, Note_off_c, 0, 34, 63
1, 762515, Control_c, 0, 64, 107
1, 762530, Control_c, 0, 64, 127
1, 762534, Note_off_c, 0, 75, 64
1, 762548, Note_off_c, 0, 63, 63
1, 762585, Note_off_c, 0, 66, 53
1, 762611, Note_on_c, 0, 44, 61
1, 762646, Note_on_c, 0, 58, 88
1, 762662, Note_on_c, 0, 46, 42
1, 762669, Note_off_c, 0, 44, 56
1, 762691, Note_off_c, 0, 58, 66
1, 762711, Note_on_c, 0, 49, 62
1, 762736, Note_off_c, 0, 46, 38
1, 762739, Note_on_c, 0, 42, 77
1, 762740, Note_on_c, 0, 70, 87
1, 762744, Note_on_c, 0, 58, 77
1, 762748, Note_off_c, 0, 49, 66
1, 762769, Note_off_c, 0, 42, 63
1, 762781, Note_off_c, 0, 58, 65
1, 762801, Note_on_c, 0, 66, 54
1, 762825, Note_off_c, 0, 66, 60
1, 762866, Note_on_c, 0, 34, 76
1, 762871, Note_on_c, 0, 73, 85
1, 762874, Note_on_c, 0, 61, 95
1, 762885, Note_on_c, 0, 66, 85
1, 762901, Control_c, 0, 64, 74
1, 762916, Control_c, 0, 64, 0
1, 762965, Note_off_c, 0, 34, 60
1, 762983, Control_c, 0, 64, 55
1, 762991, Note_on_c, 0, 22, 74
1, 762995, Note_off_c, 0, 61, 65
1, 762998, Control_c, 0, 64, 66
1, 763013, Control_c, 0, 64, 75
1, 763028, Control_c, 0, 64, 90
1, 763034, Note_off_c, 0, 73, 65
1, 763040, Note_off_c, 0, 66, 63
1, 763042, Control_c, 0, 64, 127
1, 763044, Note_off_c, 0, 70, 60
1, 763080, Note_off_c, 0, 22, 61
1, 763081, Note_on_c, 0, 34, 83
1, 763104, Note_off_c, 0, 34, 66
1, 763334, Note_on_c, 0, 53, 75
1, 763344, Note_on_c, 0, 62, 57
1, 763350, Note_on_c, 0, 77, 103
1, 763354, Note_on_c, 0, 82, 94
1, 763356, Note_on_c, 0, 91, 82
1, 763356, Note_on_c, 0, 89, 85
1, 763358, Note_on_c, 0, 58, 71
1, 763378, Note_off_c, 0, 91, 70
1, 763382, Note_off_c, 0, 89, 67
1, 763386, Note_off_c, 0, 82, 59
1, 763389, Note_off_c, 0, 77, 65
1, 763432, Note_off_c, 0, 53, 61
1, 763455, Note_off_c, 0, 58, 63
1, 763466, Note_off_c, 0, 62, 63
1, 763472, Control_c, 0, 64, 87
1, 763481, Note_on_c, 0, 65, 87
1, 763487, Control_c, 0, 64, 50
1, 763490, Note_on_c, 0, 86, 96
1, 763493, Note_on_c, 0, 74, 101
1, 763496, Note_on_c, 0, 82, 97
1, 763502, Control_c, 0, 64, 0
1, 763547, Control_c, 0, 64, 56
1, 763562, Control_c, 0, 64, 69
1, 763570, Note_off_c, 0, 65, 59
1, 763576, Control_c, 0, 64, 88
1, 763580, Note_on_c, 0, 64, 69
1, 763591, Control_c, 0, 64, 127
1, 763641, Poly_aftertouch_c, 0, 61, 0
1, 763645, Note_on_c, 0, 63, 76
1, 763645, Note_off_c, 0, 86, 65
1, 763646, Note_off_c, 0, 64, 65
1, 763654, Note_off_c, 0, 82, 65
1, 763670, Note_off_c, 0, 63, 69
1, 763678, Note_off_c, 0, 74, 66
1, 763704, Note_on_c, 0, 62, 85
1, 763762, Note_off_c, 0, 62, 62
1, 763799, Note_on_c, 0, 58, 64
1, 763873, Note_off_c, 0, 58, 63
1, 763877, Note_on_c, 0, 54, 75
1, 763880, Control_c, 0, 64, 68
1, 763895, Control_c, 0, 64, 38
1, 763910, Control_c, 0, 64, 0
1, 763913, Note_on_c, 0, 65, 73
1, 763917, Note_on_c, 0, 62, 54
1, 763919, Note_off_c, 0, 54, 63
1, 763922, Note_on_c, 0, 58, 65
1, 763925, Control_c, 0, 64, 25
1, 763939, Control_c, 0, 64, 51
1, 763949, Note_off_c, 0, 62, 66
1, 763954, Control_c, 0, 64, 63
1, 763964, Note_on_c, 0, 53, 66
1, 763969, Control_c, 0, 64, 71
1, 763984, Control_c, 0, 64, 83
1, 763999, Control_c, 0, 64, 97
1, 764013, Control_c, 0, 64, 108
1, 764021, Note_off_c, 0, 58, 63
1, 764027, Note_off_c, 0, 53, 63
1, 764028, Note_on_c, 0, 52, 65
1, 764028, Control_c, 0, 64, 108
1, 764043, Control_c, 0, 64, 108
1, 764057, Control_c, 0, 64, 107
1, 764066, Note_on_c, 0, 64, 25
1, 764097, Note_off_c, 0, 52, 65
1, 764098, Note_on_c, 0, 51, 82
1, 764102, Control_c, 0, 64, 111
1, 764113, Note_on_c, 0, 60, 83
1, 764115, Note_on_c, 0, 55, 88
1, 764117, Control_c, 0, 64, 127
1, 764126, Note_off_c, 0, 51, 68
1, 764148, Note_off_c, 0, 65, 64
1, 764154, Note_on_c, 0, 50, 84
1, 764154, Note_off_c, 0, 64, 49
1, 764172, Note_off_c, 0, 60, 63
1, 764193, Note_off_c, 0, 55, 62
1, 764219, Note_off_c, 0, 50, 61
1, 764235, Note_on_c, 0, 48, 63
1, 764267, Control_c, 0, 64, 94
1, 764272, Note_on_c, 0, 47, 70
1, 764281, Control_c, 0, 64, 66
1, 764286, Note_off_c, 0, 48, 59
1, 764296, Control_c, 0, 64, 57
1, 764308, Note_off_c, 0, 47, 60
1, 764311, Control_c, 0, 64, 62
1, 764313, Note_on_c, 0, 63, 86
1, 764316, Note_on_c, 0, 51, 102
1, 764326, Control_c, 0, 64, 70
1, 764341, Control_c, 0, 64, 127
1, 764343, Note_on_c, 0, 47, 76
1, 764354, Note_on_c, 0, 45, 49
1, 764366, Note_off_c, 0, 47, 67
1, 764369, Note_off_c, 0, 63, 66
1, 764378, Note_off_c, 0, 51, 61
1, 764383, Note_off_c, 0, 45, 56
1, 764412, Note_on_c, 0, 43, 81
1, 764445, Note_on_c, 0, 59, 23
1, 764448, Note_on_c, 0, 41, 36
1, 764449, Note_off_c, 0, 41, 127
1, 764490, Note_on_c, 0, 38, 58
1, 764491, Note_off_c, 0, 43, 63
1, 764495, Note_off_c, 0, 59, 49
1, 764523, Note_off_c, 0, 38, 62
1, 764538, Note_on_c, 0, 41, 94
1, 764539, Note_on_c, 0, 62, 94
1, 764539, Note_on_c, 0, 50, 105
1, 764544, Poly_aftertouch_c, 0, 40, 127
1, 764555, Note_on_c, 0, 56, 51
1, 764562, Note_off_c, 0, 41, 69
1, 764569, Note_off_c, 0, 50, 69
1, 764570, Control_c, 0, 64, 117
1, 764575, Note_off_c, 0, 62, 69
1, 764582, Note_off_c, 0, 56, 57
1, 764585, Control_c, 0, 64, 62
1, 764589, Poly_aftertouch_c, 0, 40, 0
1, 764600, Control_c, 0, 64, 0
1, 764778, Note_on_c, 0, 50, 71
1, 764789, Note_on_c, 0, 62, 52
1, 764790, Note_on_c, 0, 34, 50
1, 764792, Note_on_c, 0, 58, 46
1, 764804, Note_off_c, 0, 50, 67
1, 764811, Note_off_c, 0, 62, 58
1, 764819, Note_off_c, 0, 58, 50
1, 764824, Note_off_c, 0, 34, 54
1, 764930, Note_on_c, 0, 58, 69
1, 764933, Note_on_c, 0, 50, 76
1, 764937, Note_on_c, 0, 40, 69
1, 764939, Note_on_c, 0, 62, 60
1, 764960, Note_off_c, 0, 50, 67
1, 764966, Note_off_c, 0, 40, 65
1, 764967, Note_off_c, 0, 58, 65
1, 764971, Note_off_c, 0, 62, 65
1, 764989, Poly_aftertouch_c, 0, 34, 127
1, 765031, Poly_aftertouch_c, 0, 34, 0
1, 765064, Note_on_c, 0, 57, 81
1, 765080, Note_on_c, 0, 38, 55
1, 765094, Note_on_c, 0, 50, 25
1, 765097, Note_off_c, 0, 57, 65
1, 765100, Note_on_c, 0, 34, 20
1, 765112, Note_off_c, 0, 38, 62
1, 765133, Note_off_c, 0, 50, 30
1, 765147, Note_off_c, 0, 34, 42
1, 765185, Note_on_c, 0, 41, 76
1, 765192, Note_on_c, 0, 58, 75
1, 765201, Note_on_c, 0, 50, 74
1, 765215, Note_on_c, 0, 62, 45
1, 765220, Note_off_c, 0, 58, 67
1, 765229, Note_off_c, 0, 41, 65
1, 765238, Note_off_c, 0, 50, 66
1, 765250, Note_off_c, 0, 62, 56
1, 765294, Note_on_c, 0, 50, 77
1, 765298, Note_on_c, 0, 56, 81
1, 765305, Note_on_c, 0, 38, 65
1, 765322, Note_off_c, 0, 50, 66
1, 765323, Note_on_c, 0, 34, 33
1, 765341, Note_off_c, 0, 56, 64
1, 765347, Note_off_c, 0, 38, 60
1, 765368, Note_off_c, 0, 34, 50
1, 765401, Note_on_c, 0, 42, 80
1, 765404, Note_on_c, 0, 50, 81
1, 765412, Note_on_c, 0, 58, 77
1, 765434, Note_on_c, 0, 62, 47
1, 765437, Note_off_c, 0, 42, 66
1, 765440, Note_off_c, 0, 50, 64
1, 765452, Note_off_c, 0, 58, 61
1, 765459, Note_off_c, 0, 62, 57
1, 765493, Note_on_c, 0, 55, 89
1, 765496, Note_on_c, 0, 34, 66
1, 765499, Note_on_c, 0, 38, 64
1, 765538, Note_off_c, 0, 55, 66
1, 765543, Note_off_c, 0, 34, 62
1, 765559, Note_off_c, 0, 38, 0
1, 765595, Poly_aftertouch_c, 0, 38, 127
1, 765600, Note_on_c, 0, 50, 99
1, 765602, Note_on_c, 0, 41, 73
1, 765604, Note_on_c, 0, 34, 60
1, 765624, Note_on_c, 0, 62, 56
1, 765624, Note_on_c, 0, 58, 54
1, 765637, Note_off_c, 0, 34, 63
1, 765639, Note_off_c, 0, 50, 65
1, 765645, Note_off_c, 0, 62, 63
1, 765647, Note_off_c, 0, 41, 53
1, 765647, Note_off_c, 0, 58, 61
1, 765688, Note_on_c, 0, 54, 97
1, 765691, Note_on_c, 0, 34, 74
1, 765744, Poly_aftertouch_c, 0, 38, 0
1, 765747, Note_off_c, 0, 54, 66
1, 765767, Note_off_c, 0, 34, 64
1, 765778, Note_on_c, 0, 40, 89
1, 765786, Note_on_c, 0, 50, 104
1, 765790, Note_on_c, 0, 58, 90
1, 765798, Note_on_c, 0, 62, 72
1, 765803, Note_off_c, 0, 40, 69
1, 765818, Note_off_c, 0, 50, 68
1, 765826, Note_off_c, 0, 62, 67
1, 765838, Note_off_c, 0, 58, 64
1, 765890, Note_on_c, 0, 22, 83
1, 765898, Note_on_c, 0, 53, 98
1, 765959, Note_off_c, 0, 53, 66
1, 766033, Note_on_c, 0, 58, 104
1, 766034, Note_on_c, 0, 34, 105
1, 766035, Note_on_c, 0, 29, 43
1, 766037, Note_on_c, 0, 61, 80
1, 766038, Control_c, 0, 64, 54
1, 766039, Note_on_c, 0, 49, 95
1, 766039, Note_on_c, 0, 54, 95
1, 766052, Control_c, 0, 64, 127
1, 766057, Note_off_c, 0, 49, 72
1, 766060, Note_off_c, 0, 61, 70
1, 766066, Note_off_c, 0, 22, 58
1, 766066, Note_off_c, 0, 58, 70
1, 766071, Note_off_c, 0, 54, 67
1, 766075, Note_off_c, 0, 29, 49
1, 766075, Note_off_c, 0, 34, 63
1, 766322, Note_on_c, 0, 42, 85
1, 766349, Note_on_c, 0, 70, 99
1, 766352, Note_on_c, 0, 73, 96
1, 766374, Note_on_c, 0, 44, 11
1, 766406, Note_off_c, 0, 70, 60
1, 766414, Note_off_c, 0, 73, 61
1, 766452, Note_on_c, 0, 49, 23
1, 766460, Note_off_c, 0, 42, 62
1, 766472, Note_on_c, 0, 58, 103
1, 766480, Note_on_c, 0, 70, 107
1, 766483, Note_on_c, 0, 73, 99
1, 766483, Note_on_c, 0, 82, 97
1, 766490, Note_on_c, 0, 78, 94
1, 766492, Note_off_c, 0, 44, 0
1, 766513, Note_off_c, 0, 49, 39
1, 766528, Poly_aftertouch_c, 0, 44, 127
1, 766545, Note_off_c, 0, 58, 64
1, 766561, Note_on_c, 0, 49, 62
1, 766569, Poly_aftertouch_c, 0, 44, 0
1, 766588, Note_off_c, 0, 82, 61
1, 766607, Note_off_c, 0, 78, 61
1, 766611, Note_on_c, 0, 42, 88
1, 766630, Note_off_c, 0, 73, 59
1, 766635, Note_off_c, 0, 49, 64
1, 766644, Note_off_c, 0, 70, 64
1, 766654, Note_on_c, 0, 41, 44
1, 766654, Note_off_c, 0, 42, 63
1, 766687, Note_off_c, 0, 41, 53
1, 766707, Note_on_c, 0, 34, 96
1, 766733, Note_on_c, 0, 71, 39
1, 766762, Note_off_c, 0, 71, 50
1, 766805, Note_on_c, 0, 73, 98
1, 766811, Note_on_c, 0, 61, 90
1, 766817, Note_on_c, 0, 22, 92
1, 766817, Note_on_c, 0, 70, 83
1, 766841, Note_off_c, 0, 61, 62
1, 766848, Note_off_c, 0, 34, 50
1, 766885, Note_off_c, 0, 73, 64
1, 766904, Control_c, 0, 64, 93
1, 766919, Control_c, 0, 64, 50
1, 766934, Control_c, 0, 64, 0
1, 766939, Note_on_c, 0, 34, 103
1, 766945, Note_on_c, 0, 68, 105
1, 766948, Note_on_c, 0, 80, 99
1, 766951, Note_off_c, 0, 22, 61
1, 766976, Note_off_c, 0, 70, 64
1, 766978, Note_off_c, 0, 34, 65
1, 766978, Control_c, 0, 64, 43
1, 766993, Control_c, 0, 64, 69
1, 767008, Control_c, 0, 64, 105
1, 767022, Control_c, 0, 64, 127
1, 767047, Note_off_c, 0, 80, 64
1, 767087, Note_off_c, 0, 68, 63
1, 767100, Note_on_c, 0, 44, 67
1, 767132, Note_on_c, 0, 58, 96
1, 767147, Note_on_c, 0, 46, 38
1, 767149, Note_off_c, 0, 44, 57
1, 767178, Note_off_c, 0, 58, 66
1, 767196, Note_off_c, 0, 46, 60
1, 767204, Note_on_c, 0, 49, 66
1, 767226, Note_on_c, 0, 73, 95
1, 767228, Note_on_c, 0, 42, 85
1, 767232, Note_on_c, 0, 61, 77
1, 767243, Note_off_c, 0, 49, 64
1, 767253, Note_on_c, 0, 41, 68
1, 767253, Note_on_c, 0, 70, 79
1, 767259, Note_off_c, 0, 42, 65
1, 767261, Note_off_c, 0, 61, 65
1, 767276, Note_off_c, 0, 41, 62
1, 767291, Note_off_c, 0, 73, 64
1, 767323, Note_off_c, 0, 70, 60
1, 767353, Note_on_c, 0, 66, 105
1, 767354, Note_on_c, 0, 78, 101
1, 767355, Note_on_c, 0, 34, 94
1, 767378, Control_c, 0, 64, 97
1, 767383, Note_on_c, 0, 70, 16
1, 767393, Control_c, 0, 64, 51
1, 767405, Note_off_c, 0, 70, 48
1, 767408, Control_c, 0, 64, 0
1, 767440, Note_off_c, 0, 34, 60
1, 767452, Control_c, 0, 64, 33
1, 767453, Note_off_c, 0, 78, 63
1, 767475, Control_c, 0, 64, 66
1, 767484, Note_on_c, 0, 22, 82
1, 767490, Control_c, 0, 64, 94
1, 767493, Note_off_c, 0, 66, 65
1, 767504, Control_c, 0, 64, 127
1, 767547, Note_on_c, 0, 34, 93
1, 767559, Note_off_c, 0, 22, 60
1, 767570, Note_off_c, 0, 34, 69
1, 767587, Note_on_c, 0, 35, 43
1, 767619, Note_on_c, 0, 70, 93
1, 767622, Note_on_c, 0, 58, 86
1, 767624, Note_off_c, 0, 35, 51
1, 767638, Note_on_c, 0, 66, 68
1, 767645, Note_off_c, 0, 58, 69
1, 767686, Note_off_c, 0, 70, 62
1, 767697, Note_off_c, 0, 66, 62
1, 767718, Note_on_c, 0, 44, 44
1, 767741, Control_c, 0, 64, 94
1, 767747, Note_on_c, 0, 58, 81
1, 767747, Note_on_c, 0, 65, 102
1, 767750, Note_on_c, 0, 77, 101
1, 767756, Control_c, 0, 64, 61
1, 767766, Note_on_c, 0, 68, 64
1, 767771, Control_c, 0, 64, 0
1, 767776, Note_on_c, 0, 67, 56
1, 767785, Note_off_c, 0, 68, 61
1, 767791, Note_off_c, 0, 67, 44
1, 767804, Note_off_c, 0, 44, 47
1, 767804, Poly_aftertouch_c, 0, 46, 127
1, 767815, Control_c, 0, 64, 44
1, 767820, Note_off_c, 0, 58, 64
1, 767821, Note_on_c, 0, 49, 62
1, 767830, Control_c, 0, 64, 64
1, 767845, Control_c, 0, 64, 78
1, 767854, Poly_aftertouch_c, 0, 46, 0
1, 767859, Note_off_c, 0, 77, 61
1, 767860, Control_c, 0, 64, 127
1, 767868, Note_on_c, 0, 42, 80
1, 767885, Note_off_c, 0, 65, 66
1, 767893, Note_off_c, 0, 49, 63
1, 767899, Note_on_c, 0, 41, 57
1, 767905, Note_off_c, 0, 42, 64
1, 767925, Note_off_c, 0, 41, 59
1, 767971, Note_on_c, 0, 34, 89
1, 767978, Poly_aftertouch_c, 0, 44, 0
1, 768057, Note_on_c, 0, 70, 94
1, 768066, Note_on_c, 0, 66, 88
1, 768068, Note_on_c, 0, 58, 91
1, 768093, Note_on_c, 0, 22, 77
1, 768096, Note_on_c, 0, 68, 43
1, 768113, Note_off_c, 0, 58, 62
1, 768126, Note_off_c, 0, 68, 53
1, 768140, Note_off_c, 0, 34, 37
1, 768168, Note_off_c, 0, 70, 62
1, 768202, Control_c, 0, 64, 99
1, 768224, Control_c, 0, 64, 62
1, 768230, Note_on_c, 0, 75, 99
1, 768231, Note_on_c, 0, 63, 99
1, 768234, Note_on_c, 0, 34, 93
1, 768239, Control_c, 0, 64, 0
1, 768259, Note_off_c, 0, 22, 61
1, 768259, Note_off_c, 0, 66, 58
1, 768283, Control_c, 0, 64, 49
1, 768286, Note_off_c, 0, 34, 63
1, 768298, Control_c, 0, 64, 65
1, 768313, Control_c, 0, 64, 79
1, 768328, Control_c, 0, 64, 127
1, 768368, Note_off_c, 0, 75, 61
1, 768400, Note_off_c, 0, 63, 63
1, 768418, Note_on_c, 0, 66, 21
1, 768420, Note_on_c, 0, 42, 31
1, 768428, Note_on_c, 0, 58, 85
1, 768445, Note_on_c, 0, 44, 31
1, 768458, Note_off_c, 0, 58, 65
1, 768461, Note_off_c, 0, 42, 46
1, 768462, Note_off_c, 0, 66, 54
1, 768487, Note_on_c, 0, 46, 22
1, 768523, Note_on_c, 0, 70, 90
1, 768531, Note_on_c, 0, 58, 79
1, 768537, Note_off_c, 0, 46, 51
1, 768544, Note_off_c, 0, 44, 53
1, 768563, Note_off_c, 0, 58, 62
1, 768572, Note_on_c, 0, 66, 53
1, 768614, Note_off_c, 0, 70, 59
1, 768624, Control_c, 0, 64, 83
1, 768639, Control_c, 0, 64, 51
1, 768646, Note_on_c, 0, 34, 70
1, 768647, Note_on_c, 0, 73, 91
1, 768653, Control_c, 0, 64, 0
1, 768656, Note_on_c, 0, 61, 84
1, 768671, Note_off_c, 0, 66, 61
1, 768713, Note_off_c, 0, 34, 56
1, 768727, Control_c, 0, 64, 33
1, 768742, Control_c, 0, 64, 64
1, 768750, Note_off_c, 0, 61, 62
1, 768757, Control_c, 0, 64, 75
1, 768772, Note_off_c, 0, 73, 63
1, 768772, Control_c, 0, 64, 98
1, 768784, Note_on_c, 0, 22, 68
1, 768787, Control_c, 0, 64, 127
1, 768838, Note_off_c, 0, 22, 62
1, 768844, Note_on_c, 0, 34, 71
1, 768880, Note_off_c, 0, 34, 58
1, 769068, Note_on_c, 0, 53, 59
1, 769070, Note_on_c, 0, 62, 59
1, 769091, Control_c, 0, 64, 98
1, 769106, Control_c, 0, 64, 66
1, 769110, Note_off_c, 0, 62, 62
1, 769121, Control_c, 0, 64, 0
1, 769175, Note_on_c, 0, 68, 51
1, 769178, Note_on_c, 0, 72, 56
1, 769185, Note_on_c, 0, 65, 62
1, 769195, Control_c, 0, 64, 23
1, 769210, Control_c, 0, 64, 55
1, 769225, Control_c, 0, 64, 61
1, 769240, Control_c, 0, 64, 63
1, 769255, Control_c, 0, 64, 64
1, 769257, Note_off_c, 0, 68, 63
1, 769261, Note_on_c, 0, 77, 67
1, 769282, Note_off_c, 0, 65, 61
1, 769283, Note_off_c, 0, 72, 63
1, 769284, Control_c, 0, 64, 64
1, 769299, Note_off_c, 0, 53, 58
1, 769299, Control_c, 0, 64, 65
1, 769314, Control_c, 0, 64, 67
1, 769329, Control_c, 0, 64, 70
1, 769343, Control_c, 0, 64, 75
1, 769358, Note_on_c, 0, 63, 73
1, 769358, Control_c, 0, 64, 86
1, 769365, Note_off_c, 0, 77, 57
1, 769373, Control_c, 0, 64, 101
1, 769388, Control_c, 0, 64, 127
1, 769412, Note_on_c, 0, 69, 56
1, 769413, Note_off_c, 0, 63, 63
1, 769419, Note_on_c, 0, 64, 68
1, 769419, Note_on_c, 0, 73, 62
1, 769454, Note_off_c, 0, 64, 61
1, 769467, Note_off_c, 0, 69, 60
1, 769479, Note_on_c, 0, 77, 77
1, 769488, Note_off_c, 0, 73, 65
1, 769501, Note_on_c, 0, 63, 55
1, 769506, Control_c, 0, 64, 100
1, 769518, Note_on_c, 0, 65, 75
1, 769521, Control_c, 0, 64, 74
1, 769522, Note_off_c, 0, 63, 63
1, 769536, Control_c, 0, 64, 60
1, 769539, Note_off_c, 0, 77, 60
1, 769550, Control_c, 0, 64, 43
1, 769565, Control_c, 0, 64, 42
1, 769573, Note_on_c, 0, 74, 56
1, 769578, Note_on_c, 0, 70, 69
1, 769580, Control_c, 0, 64, 47
1, 769592, Note_off_c, 0, 65, 62
1, 769595, Control_c, 0, 64, 56
1, 769604, Note_on_c, 0, 60, 51
1, 769610, Control_c, 0, 64, 62
1, 769624, Note_on_c, 0, 77, 75
1, 769625, Control_c, 0, 64, 67
1, 769627, Note_off_c, 0, 74, 63
1, 769634, Note_off_c, 0, 60, 65
1, 769640, Control_c, 0, 64, 75
1, 769642, Note_off_c, 0, 70, 63
1, 769655, Control_c, 0, 64, 89
1, 769669, Control_c, 0, 64, 127
1, 769670, Note_on_c, 0, 59, 17
1, 769677, Note_off_c, 0, 77, 63
1, 769678, Note_on_c, 0, 66, 76
1, 769700, Poly_aftertouch_c, 0, 58, 0
1, 769725, Note_off_c, 0, 59, 42
1, 769748, Note_on_c, 0, 73, 71
1, 769750, Note_on_c, 0, 70, 74
1, 769750, Note_off_c, 0, 66, 61
1, 769807, Note_off_c, 0, 73, 64
1, 769812, Note_off_c, 0, 70, 64
1, 769818, Note_on_c, 0, 67, 77
1, 769833, Note_on_c, 0, 44, 28
1, 769840, Control_c, 0, 64, 75
1, 769855, Control_c, 0, 64, 48
1, 769861, Note_on_c, 0, 70, 54
1, 769861, Note_off_c, 0, 44, 48
1, 769866, Note_on_c, 0, 37, 33
1, 769870, Control_c, 0, 64, 0
1, 769871, Note_on_c, 0, 74, 60
1, 769877, Note_off_c, 0, 67, 62
1, 769896, Note_off_c, 0, 74, 63
1, 769899, Note_on_c, 0, 79, 79
1, 769909, Note_off_c, 0, 37, 30
1, 769917, Note_off_c, 0, 70, 65
1, 769924, Note_off_c, 0, 79, 68
1, 770063, Control_c, 0, 64, 50
1, 770078, Control_c, 0, 64, 62
1, 770092, Control_c, 0, 64, 63
1, 770104, Note_on_c, 0, 34, 54
1, 770107, Control_c, 0, 64, 65
1, 770122, Control_c, 0, 64, 66
1, 770137, Control_c, 0, 64, 71
1, 770137, Note_off_c, 0, 34, 61
1, 770152, Control_c, 0, 64, 80
1, 770166, Control_c, 0, 64, 104
1, 770181, Control_c, 0, 64, 127
1, 770283, Note_on_c, 0, 62, 56
1, 770316, Note_off_c, 0, 62, 65
1, 770329, Note_on_c, 0, 53, 56
1, 770329, Control_c, 0, 64, 81
1, 770344, Control_c, 0, 64, 62
1, 770359, Control_c, 0, 64, 28
1, 770367, Note_on_c, 0, 68, 60
1, 770373, Control_c, 0, 64, 0
1, 770382, Note_on_c, 0, 72, 56
1, 770388, Control_c, 0, 64, 31
1, 770391, Note_on_c, 0, 65, 60
1, 770403, Control_c, 0, 64, 51
1, 770418, Control_c, 0, 64, 61
1, 770433, Control_c, 0, 64, 65
1, 770447, Control_c, 0, 64, 69
1, 770454, Note_off_c, 0, 68, 64
1, 770470, Control_c, 0, 64, 74
1, 770477, Note_on_c, 0, 77, 66
1, 770485, Control_c, 0, 64, 79
1, 770486, Note_off_c, 0, 72, 62
1, 770499, Control_c, 0, 64, 83
1, 770501, Note_off_c, 0, 65, 61
1, 770514, Control_c, 0, 64, 88
1, 770529, Control_c, 0, 64, 94
1, 770535, Note_off_c, 0, 53, 52
1, 770544, Control_c, 0, 64, 107
1, 770556, Note_on_c, 0, 63, 66
1, 770559, Control_c, 0, 64, 127
1, 770579, Note_off_c, 0, 77, 52
1, 770594, Note_off_c, 0, 63, 62
1, 770608, Note_on_c, 0, 69, 64
1, 770621, Note_on_c, 0, 73, 69
1, 770632, Note_on_c, 0, 64, 70
1, 770673, Note_off_c, 0, 64, 58
1, 770674, Note_off_c, 0, 69, 62
1, 770685, Note_on_c, 0, 77, 75
1, 770689, Note_off_c, 0, 73, 64
1, 770716, Note_on_c, 0, 65, 76
1, 770737, Note_on_c, 0, 62, 55
1, 770749, Note_off_c, 0, 77, 59
1, 770767, Control_c, 0, 64, 125
1, 770772, Note_on_c, 0, 74, 66
1, 770775, Note_on_c, 0, 70, 72
1, 770782, Control_c, 0, 64, 76
1, 770788, Note_off_c, 0, 65, 62
1, 770796, Control_c, 0, 64, 60
1, 770802, Note_off_c, 0, 62, 62
1, 770811, Control_c, 0, 64, 39
1, 770814, Note_on_c, 0, 77, 59
1, 770814, Note_on_c, 0, 59, 39
1, 770826, Control_c, 0, 64, 42
1, 770832, Note_on_c, 0, 60, 57
1, 770839, Note_off_c, 0, 74, 62
1, 770841, Note_off_c, 0, 59, 59
1, 770841, Control_c, 0, 64, 52
1, 770847, Note_off_c, 0, 70, 63
1, 770856, Control_c, 0, 64, 63
1, 770871, Note_off_c, 0, 77, 64
1, 770871, Control_c, 0, 64, 72
1, 770874, Note_off_c, 0, 60, 64
1, 770886, Control_c, 0, 64, 107
1, 770889, Note_on_c, 0, 66, 81
1, 770901, Control_c, 0, 64, 127
1, 770939, Note_on_c, 0, 70, 74
1, 770939, Note_off_c, 0, 66, 61
1, 770945, Note_on_c, 0, 73, 70
1, 770995, Note_off_c, 0, 70, 64
1, 770996, Note_on_c, 0, 78, 70
1, 770996, Note_off_c, 0, 73, 65
1, 771014, Note_on_c, 0, 67, 85
1, 771020, Note_off_c, 0, 78, 64
1, 771034, Control_c, 0, 64, 76
1, 771049, Control_c, 0, 64, 52
1, 771051, Note_on_c, 0, 39, 66
1, 771054, Note_on_c, 0, 70, 60
1, 771063, Control_c, 0, 64, 0
1, 771065, Note_off_c, 0, 67, 65
1, 771082, Note_off_c, 0, 39, 64
1, 771090, Note_off_c, 0, 70, 64
1, 771096, Note_on_c, 0, 79, 65
1, 771113, Note_off_c, 0, 79, 66
1, 771263, Control_c, 0, 64, 28
1, 771274, Note_on_c, 0, 70, 66
1, 771278, Control_c, 0, 64, 51
1, 771285, Note_on_c, 0, 78, 75
1, 771293, Control_c, 0, 64, 59
1, 771308, Control_c, 0, 64, 63
1, 771312, Note_on_c, 0, 58, 44
1, 771318, Note_off_c, 0, 70, 57
1, 771322, Control_c, 0, 64, 65
1, 771337, Control_c, 0, 64, 68
1, 771339, Note_on_c, 0, 81, 73
1, 771352, Control_c, 0, 64, 72
1, 771368, Note_off_c, 0, 78, 59
1, 771368, Control_c, 0, 64, 79
1, 771383, Control_c, 0, 64, 92
1, 771389, Note_off_c, 0, 81, 66
1, 771398, Control_c, 0, 64, 127
1, 771409, Note_on_c, 0, 74, 60
1, 771426, Note_on_c, 0, 67, 75
1, 771437, Note_off_c, 0, 74, 63
1, 771438, Note_on_c, 0, 76, 33
1, 771442, Control_c, 0, 64, 109
1, 771457, Control_c, 0, 64, 86
1, 771461, Note_on_c, 0, 79, 75
1, 771464, Note_off_c, 0, 58, 63
1, 771468, Note_off_c, 0, 76, 44
1, 771472, Control_c, 0, 64, 82
1, 771476, Note_off_c, 0, 67, 65
1, 771487, Control_c, 0, 64, 87
1, 771501, Control_c, 0, 64, 109
1, 771516, Control_c, 0, 64, 127
1, 771533, Note_on_c, 0, 75, 85
1, 771573, Note_on_c, 0, 66, 21
1, 771575, Note_off_c, 0, 79, 61
1, 771595, Note_off_c, 0, 75, 64
1, 771605, Control_c, 0, 64, 111
1, 771617, Note_on_c, 0, 82, 90
1, 771619, Control_c, 0, 64, 73
1, 771623, Note_on_c, 0, 74, 86
1, 771623, Note_on_c, 0, 86, 86
1, 771634, Control_c, 0, 64, 57
1, 771649, Control_c, 0, 64, 42
1, 771656, Note_on_c, 0, 63, 65
1, 771658, Note_off_c, 0, 66, 0
1, 771664, Control_c, 0, 64, 48
1, 771679, Control_c, 0, 64, 58
1, 771681, Note_off_c, 0, 74, 65
1, 771682, Note_on_c, 0, 79, 82
1, 771693, Control_c, 0, 64, 67
1, 771707, Note_on_c, 0, 70, 72
1, 771708, Control_c, 0, 64, 78
1, 771720, Note_off_c, 0, 63, 63
1, 771723, Control_c, 0, 64, 122
1, 771724, Note_off_c, 0, 82, 63
1, 771727, Poly_aftertouch_c, 0, 66, 0
1, 771729, Note_off_c, 0, 70, 68
1, 771730, Note_off_c, 0, 86, 64
1, 771738, Control_c, 0, 64, 127
1, 771750, Note_on_c, 0, 74, 81
1, 771751, Note_off_c, 0, 79, 66
1, 771768, Control_c, 0, 64, 115
1, 771783, Control_c, 0, 64, 78
1, 771798, Control_c, 0, 64, 69
1, 771804, Note_on_c, 0, 67, 91
1, 771811, Note_on_c, 0, 58, 82
1, 771812, Note_on_c, 0, 79, 90
1, 771812, Control_c, 0, 64, 69
1, 771827, Control_c, 0, 64, 75
1, 771838, Note_off_c, 0, 74, 63
1, 771842, Control_c, 0, 64, 89
1, 771856, Control_c, 0, 64, 127
1, 771869, Note_on_c, 0, 75, 86
1, 771887, Note_off_c, 0, 79, 64
1, 771909, Note_off_c, 0, 58, 64
1, 771910, Note_off_c, 0, 67, 61
1, 771911, Note_on_c, 0, 63, 66
1, 771929, Note_off_c, 0, 75, 64
1, 771930, Note_on_c, 0, 74, 83
1, 771936, Note_off_c, 0, 63, 66
1, 771951, Note_off_c, 0, 74, 68
1, 771983, Control_c, 0, 64, 107
1, 771997, Control_c, 0, 64, 74
1, 772012, Control_c, 0, 64, 64
1, 772027, Control_c, 0, 64, 63
1, 772036, Note_on_c, 0, 77, 99
1, 772042, Control_c, 0, 64, 66
1, 772044, Note_on_c, 0, 91, 98
1, 772056, Note_on_c, 0, 68, 65
1, 772057, Control_c, 0, 64, 75
1, 772057, Note_on_c, 0, 87, 77
1, 772071, Control_c, 0, 64, 127
1, 772113, Note_on_c, 0, 83, 87
1, 772114, Note_off_c, 0, 87, 63
1, 772115, Note_off_c, 0, 77, 47
1, 772138, Note_on_c, 0, 75, 78
1, 772165, Note_off_c, 0, 91, 49
1, 772167, Note_off_c, 0, 68, 62
1, 772182, Note_off_c, 0, 75, 62
1, 772196, Note_on_c, 0, 79, 87
1, 772200, Note_off_c, 0, 83, 61
1, 772206, Control_c, 0, 64, 117
1, 772221, Control_c, 0, 64, 69
1, 772227, Note_off_c, 0, 79, 64
1, 772236, Control_c, 0, 64, 35
1, 772250, Control_c, 0, 64, 0
1, 772255, Note_on_c, 0, 72, 87
1, 772265, Note_on_c, 0, 71, 85
1, 772265, Note_on_c, 0, 84, 98
1, 772271, Note_on_c, 0, 61, 81
1, 772280, Control_c, 0, 64, 50
1, 772287, Note_off_c, 0, 71, 52
1, 772294, Control_c, 0, 64, 65
1, 772309, Control_c, 0, 64, 76
1, 772321, Note_on_c, 0, 80, 86
1, 772324, Control_c, 0, 64, 108
1, 772339, Control_c, 0, 64, 127
1, 772346, Note_off_c, 0, 84, 65
1, 772365, Note_off_c, 0, 61, 63
1, 772366, Note_on_c, 0, 68, 82
1, 772379, Note_off_c, 0, 72, 58
1, 772394, Note_on_c, 0, 79, 85
1, 772405, Note_off_c, 0, 80, 61
1, 772415, Note_off_c, 0, 79, 73
1, 772424, Note_off_c, 0, 68, 62
1, 772546, Note_on_c, 0, 57, 79
1, 772552, Note_on_c, 0, 67, 79
1, 772565, Note_on_c, 0, 63, 78
1, 772579, Note_off_c, 0, 57, 65
1, 772606, Note_on_c, 0, 94, 106
1, 772609, Note_on_c, 0, 82, 99
1, 772627, Note_off_c, 0, 63, 64
1, 772629, Note_on_c, 0, 92, 66
1, 772641, Note_off_c, 0, 82, 63
1, 772645, Note_off_c, 0, 94, 62
1, 772647, Note_off_c, 0, 92, 65
1, 772716, Control_c, 0, 64, 125
1, 772731, Control_c, 0, 64, 62
1, 772746, Control_c, 0, 64, 0
1, 772747, Note_on_c, 0, 63, 85
1, 772749, Note_on_c, 0, 79, 105
1, 772751, Note_on_c, 0, 73, 105
1, 772752, Note_on_c, 0, 91, 99
1, 772799, Note_off_c, 0, 91, 67
1, 772805, Control_c, 0, 64, 24
1, 772820, Control_c, 0, 64, 74
1, 772835, Control_c, 0, 64, 127
1, 772878, Note_off_c, 0, 63, 64
1, 772881, Note_off_c, 0, 67, 64
1, 772916, Note_off_c, 0, 73, 61
1, 772938, Note_off_c, 0, 79, 62
1, 772949, Note_on_c, 0, 87, 78
1, 772996, Note_off_c, 0, 87, 66
1, 773020, Note_on_c, 0, 86, 86
1, 773082, Note_on_c, 0, 85, 82
1, 773103, Note_off_c, 0, 86, 64
1, 773117, Note_on_c, 0, 82, 92
1, 773130, Note_off_c, 0, 85, 67
1, 773155, Note_off_c, 0, 82, 66
1, 773163, Note_on_c, 0, 81, 85
1, 773229, Note_on_c, 0, 79, 70
1, 773252, Note_on_c, 0, 75, 84
1, 773255, Note_off_c, 0, 81, 67
1, 773285, Note_off_c, 0, 79, 63
1, 773289, Note_off_c, 0, 75, 67
1, 773333, Note_on_c, 0, 74, 89
1, 773384, Note_on_c, 0, 73, 76
1, 773410, Note_off_c, 0, 74, 60
1, 773422, Note_on_c, 0, 70, 79
1, 773454, Note_on_c, 0, 69, 87
1, 773473, Note_off_c, 0, 73, 66
1, 773482, Note_off_c, 0, 70, 65
1, 773502, Note_off_c, 0, 69, 67
1, 773507, Note_on_c, 0, 67, 81
1, 773530, Note_off_c, 0, 67, 67
1, 773567, Note_on_c, 0, 66, 82
1, 773609, Note_on_c, 0, 63, 63
1, 773629, Note_on_c, 0, 62, 72
1, 773635, Note_off_c, 0, 66, 64
1, 773638, Note_off_c, 0, 63, 65
1, 773654, Note_off_c, 0, 62, 66
1, 773664, Note_on_c, 0, 60, 87
1, 773704, Note_off_c, 0, 60, 67
1, 773726, Note_on_c, 0, 61, 62
1, 773744, Note_on_c, 0, 58, 80
1, 773762, Control_c, 0, 64, 76
1, 773777, Control_c, 0, 64, 0
1, 773789, Note_off_c, 0, 61, 62
1, 773793, Note_off_c, 0, 58, 67
1, 773804, Note_on_c, 0, 39, 100
1, 773804, Note_on_c, 0, 55, 105
1, 773810, Note_on_c, 0, 27, 64
1, 773831, Note_off_c, 0, 55, 66
1, 773837, Control_c, 0, 64, 60
1, 773838, Note_off_c, 0, 39, 59
1, 773843, Note_off_c, 0, 27, 64
1, 773852, Control_c, 0, 64, 85
1, 773867, Control_c, 0, 64, 127
1, 774066, Note_on_c, 0, 74, 90
1, 774079, Note_on_c, 0, 54, 71
1, 774124, Note_off_c, 0, 74, 63
1, 774161, Note_off_c, 0, 54, 63
1, 774191, Note_on_c, 0, 55, 69
1, 774203, Note_on_c, 0, 82, 70
1, 774214, Control_c, 0, 64, 92
1, 774220, Note_on_c, 0, 86, 77
1, 774221, Note_on_c, 0, 74, 81
1, 774229, Control_c, 0, 64, 52
1, 774244, Note_off_c, 0, 74, 69
1, 774244, Control_c, 0, 64, 0
1, 774245, Note_off_c, 0, 86, 67
1, 774257, Note_off_c, 0, 82, 64
1, 774265, Note_off_c, 0, 55, 55
1, 774305, Note_on_c, 0, 56, 67
1, 774349, Note_on_c, 0, 74, 72
1, 774353, Note_on_c, 0, 80, 73
1, 774356, Note_off_c, 0, 56, 63
1, 774369, Note_off_c, 0, 80, 69
1, 774374, Note_off_c, 0, 74, 68
1, 774378, Note_on_c, 0, 86, 31
1, 774379, Note_off_c, 0, 86, 127
1, 774398, Note_on_c, 0, 57, 58
1, 774429, Note_off_c, 0, 57, 66
1, 774452, Note_on_c, 0, 74, 70
1, 774463, Note_on_c, 0, 58, 63
1, 774465, Note_on_c, 0, 79, 50
1, 774479, Note_off_c, 0, 74, 67
1, 774487, Note_off_c, 0, 79, 59
1, 774496, Note_off_c, 0, 58, 64
1, 774522, Note_on_c, 0, 59, 20
1, 774532, Note_on_c, 0, 60, 67
1, 774558, Note_on_c, 0, 72, 68
1, 774564, Note_off_c, 0, 60, 56
1, 774566, Note_off_c, 0, 59, 29
1, 774575, Note_off_c, 0, 72, 66
1, 774683, Note_on_c, 0, 57, 48
1, 774687, Note_on_c, 0, 66, 66
1, 774699, Note_on_c, 0, 81, 60
1, 774704, Note_on_c, 0, 63, 56
1, 774704, Control_c, 0, 64, 39
1, 774710, Note_on_c, 0, 79, 71
1, 774719, Control_c, 0, 64, 51
1, 774724, Note_off_c, 0, 66, 59
1, 774727, Note_off_c, 0, 57, 51
1, 774731, Note_on_c, 0, 78, 56
1, 774734, Control_c, 0, 64, 53
1, 774747, Note_off_c, 0, 79, 45
1, 774749, Control_c, 0, 64, 58
1, 774761, Note_off_c, 0, 63, 60
1, 774763, Control_c, 0, 64, 63
1, 774778, Control_c, 0, 64, 68
1, 774783, Note_off_c, 0, 81, 56
1, 774784, Note_on_c, 0, 77, 80
1, 774793, Control_c, 0, 64, 77
1, 774797, Note_off_c, 0, 78, 65
1, 774808, Control_c, 0, 64, 94
1, 774823, Control_c, 0, 64, 127
1, 774835, Note_off_c, 0, 77, 63
1, 774837, Note_on_c, 0, 49, 68
1, 774850, Note_on_c, 0, 76, 79
1, 774876, Note_off_c, 0, 49, 57
1, 774882, Note_off_c, 0, 76, 55
1, 774906, Note_on_c, 0, 78, 92
1, 774928, Note_on_c, 0, 75, 74
1, 774969, Note_on_c, 0, 61, 48
1, 774975, Note_on_c, 0, 74, 90
1, 774993, Note_off_c, 0, 78, 63
1, 775001, Note_off_c, 0, 75, 64
1, 775018, Note_off_c, 0, 61, 60
1, 775038, Note_on_c, 0, 72, 87
1, 775038, Note_off_c, 0, 74, 65
1, 775056, Note_off_c, 0, 72, 73
1, 775067, Control_c, 0, 64, 93
1, 775082, Control_c, 0, 64, 66
1, 775092, Note_on_c, 0, 58, 95
1, 775092, Note_on_c, 0, 67, 88
1, 775096, Control_c, 0, 64, 56
1, 775100, Note_on_c, 0, 74, 88
1, 775111, Note_off_c, 0, 67, 72
1, 775111, Control_c, 0, 64, 61
1, 775114, Note_on_c, 0, 70, 83
1, 775126, Control_c, 0, 64, 65
1, 775130, Note_off_c, 0, 58, 67
1, 775141, Control_c, 0, 64, 80
1, 775156, Note_off_c, 0, 74, 64
1, 775156, Control_c, 0, 64, 127
1, 775160, Note_on_c, 0, 69, 88
1, 775169, Note_off_c, 0, 70, 67
1, 775220, Note_off_c, 0, 69, 59
1, 775232, Note_on_c, 0, 67, 84
1, 775273, Note_off_c, 0, 67, 63
1, 775289, Control_c, 0, 64, 86
1, 775304, Control_c, 0, 64, 54
1, 775318, Note_on_c, 0, 39, 98
1, 775319, Control_c, 0, 64, 0
1, 775342, Note_off_c, 0, 39, 70
1, 775342, Note_on_c, 0, 27, 47
1, 775343, Note_off_c, 0, 27, 127
1, 775365, Control_c, 0, 64, 57
1, 775380, Control_c, 0, 64, 70
1, 775394, Control_c, 0, 64, 93
1, 775409, Control_c, 0, 64, 127
1, 775469, Note_on_c, 0, 74, 76
1, 775494, Note_on_c, 0, 82, 53
1, 775502, Note_on_c, 0, 54, 65
1, 775503, Note_off_c, 0, 74, 62
1, 775515, Note_off_c, 0, 82, 60
1, 775557, Note_off_c, 0, 54, 57
1, 775557, Control_c, 0, 64, 78
1, 775558, Note_on_c, 0, 86, 81
1, 775562, Note_on_c, 0, 74, 73
1, 775572, Control_c, 0, 64, 46
1, 775583, Note_off_c, 0, 74, 69
1, 775584, Note_on_c, 0, 80, 58
1, 775587, Control_c, 0, 64, 0
1, 775604, Note_on_c, 0, 55, 68
1, 775607, Note_off_c, 0, 86, 64
1, 775616, Note_off_c, 0, 80, 65
1, 775654, Note_off_c, 0, 55, 56
1, 775680, Note_on_c, 0, 90, 69
1, 775682, Note_on_c, 0, 82, 64
1, 775692, Note_on_c, 0, 56, 74
1, 775695, Note_off_c, 0, 90, 67
1, 775698, Note_off_c, 0, 82, 65
1, 775708, Note_on_c, 0, 78, 45
1, 775733, Note_off_c, 0, 78, 37
1, 775756, Note_off_c, 0, 56, 63
1, 775785, Note_on_c, 0, 57, 73
1, 775788, Note_on_c, 0, 74, 81
1, 775809, Note_off_c, 0, 74, 69
1, 775819, Note_off_c, 0, 57, 63
1, 775819, Note_on_c, 0, 86, 39
1, 775820, Note_off_c, 0, 86, 127
1, 775858, Note_on_c, 0, 58, 59
1, 775893, Note_on_c, 0, 89, 74
1, 775896, Note_on_c, 0, 77, 72
1, 775896, Note_off_c, 0, 58, 65
1, 775908, Note_off_c, 0, 89, 67
1, 775912, Note_off_c, 0, 77, 67
1, 775929, Note_on_c, 0, 60, 60
1, 776009, Control_c, 0, 64, 31
1, 776024, Control_c, 0, 64, 44
1, 776039, Control_c, 0, 64, 48
1, 776054, Control_c, 0, 64, 55
1, 776056, Note_on_c, 0, 57, 38
1, 776059, Note_on_c, 0, 81, 67
1, 776068, Control_c, 0, 64, 61
1, 776081, Note_on_c, 0, 66, 52
1, 776083, Control_c, 0, 64, 65
1, 776093, Note_on_c, 0, 63, 51
1, 776098, Control_c, 0, 64, 70
1, 776100, Note_on_c, 0, 78, 57
1, 776105, Note_off_c, 0, 60, 16
1, 776108, Note_off_c, 0, 57, 52
1, 776108, Note_off_c, 0, 66, 61
1, 776112, Control_c, 0, 64, 78
1, 776127, Control_c, 0, 64, 89
1, 776142, Control_c, 0, 64, 102
1, 776144, Note_off_c, 0, 78, 63
1, 776146, Note_on_c, 0, 77, 80
1, 776146, Note_off_c, 0, 63, 61
1, 776156, Note_off_c, 0, 81, 59
1, 776157, Control_c, 0, 64, 127
1, 776207, Note_off_c, 0, 77, 60
1, 776212, Note_on_c, 0, 76, 84
1, 776228, Note_on_c, 0, 49, 69
1, 776251, Note_off_c, 0, 76, 62
1, 776260, Note_off_c, 0, 49, 67
1, 776273, Note_on_c, 0, 78, 86
1, 776296, Note_on_c, 0, 75, 77
1, 776303, Note_on_c, 0, 63, 55
1, 776338, Note_on_c, 0, 74, 81
1, 776356, Note_on_c, 0, 61, 51
1, 776357, Note_off_c, 0, 78, 62
1, 776365, Note_off_c, 0, 75, 64
1, 776373, Note_off_c, 0, 63, 32
1, 776389, Note_off_c, 0, 61, 61
1, 776394, Note_on_c, 0, 72, 90
1, 776399, Note_off_c, 0, 74, 65
1, 776415, Note_off_c, 0, 72, 69
1, 776439, Control_c, 0, 64, 76
1, 776448, Note_on_c, 0, 67, 91
1, 776451, Note_on_c, 0, 58, 92
1, 776462, Control_c, 0, 64, 62
1, 776467, Note_on_c, 0, 74, 89
1, 776473, Note_off_c, 0, 67, 73
1, 776477, Control_c, 0, 64, 60
1, 776491, Control_c, 0, 64, 64
1, 776495, Note_on_c, 0, 70, 76
1, 776504, Note_off_c, 0, 58, 66
1, 776506, Control_c, 0, 64, 70
1, 776521, Control_c, 0, 64, 86
1, 776531, Note_on_c, 0, 69, 88
1, 776535, Note_off_c, 0, 74, 62
1, 776536, Control_c, 0, 64, 127
1, 776543, Note_off_c, 0, 70, 67
1, 776564, Note_on_c, 0, 67, 27
1, 776565, Note_off_c, 0, 67, 127
1, 776572, Poly_aftertouch_c, 0, 59, 0
1, 776591, Note_off_c, 0, 69, 68
1, 776626, Note_on_c, 0, 67, 78
1, 776665, Note_off_c, 0, 67, 61
1, 776683, Control_c, 0, 64, 80
1, 776698, Control_c, 0, 64, 50
1, 776713, Control_c, 0, 64, 0
1, 776739, Note_on_c, 0, 39, 79
1, 776748, Note_on_c, 0, 27, 51
1, 776772, Note_off_c, 0, 39, 69
1, 776781, Note_off_c, 0, 27, 55
1, 776788, Control_c, 0, 64, 57
1, 776803, Control_c, 0, 64, 68
1, 776817, Control_c, 0, 64, 77
1, 776832, Control_c, 0, 64, 81
1, 776877, Control_c, 0, 64, 82
1, 776891, Control_c, 0, 64, 85
1, 776906, Control_c, 0, 64, 93
1, 776917, Note_on_c, 0, 91, 79
1, 776921, Control_c, 0, 64, 108
1, 776934, Note_on_c, 0, 46, 48
1, 776935, Control_c, 0, 64, 127
1, 776973, Note_on_c, 0, 86, 15
1, 776977, Note_off_c, 0, 91, 54
1, 776985, Note_on_c, 0, 94, 86
1, 776994, Note_on_c, 0, 55, 65
1, 776997, Note_on_c, 0, 82, 76
1, 776999, Note_off_c, 0, 46, 56
1, 777011, Note_off_c, 0, 86, 64
1, 777020, Note_off_c, 0, 82, 71
1, 777026, Note_off_c, 0, 94, 62
1, 777151, Note_on_c, 0, 90, 74
1, 777172, Note_on_c, 0, 49, 61
1, 777178, Note_on_c, 0, 78, 46
1, 777210, Note_off_c, 0, 78, 55
1, 777214, Note_off_c, 0, 55, 43
1, 777223, Note_off_c, 0, 90, 62
1, 777233, Note_on_c, 0, 93, 96
1, 777239, Note_on_c, 0, 81, 93
1, 777243, Note_on_c, 0, 85, 94
1, 777256, Note_on_c, 0, 57, 63
1, 777259, Note_off_c, 0, 81, 69
1, 777265, Note_off_c, 0, 85, 67
1, 777276, Note_off_c, 0, 93, 67
1, 777277, Note_off_c, 0, 57, 63
1, 777283, Note_off_c, 0, 49, 64
1, 777447, Control_c, 0, 64, 100
1, 777462, Control_c, 0, 64, 62
1, 777476, Note_on_c, 0, 43, 96
1, 777477, Control_c, 0, 64, 0
1, 777482, Note_on_c, 0, 31, 69
1, 777513, Note_off_c, 0, 31, 63
1, 777516, Note_off_c, 0, 43, 65
1, 777521, Control_c, 0, 64, 13
1, 777536, Control_c, 0, 64, 58
1, 777551, Control_c, 0, 64, 68
1, 777566, Control_c, 0, 64, 91
1, 777581, Control_c, 0, 64, 127
1, 777625, Note_on_c, 0, 86, 83
1, 777631, Note_on_c, 0, 74, 74
1, 777645, Note_off_c, 0, 74, 69
1, 777664, Note_on_c, 0, 82, 53
1, 777664, Note_off_c, 0, 86, 64
1, 777670, Note_on_c, 0, 50, 56
1, 777673, Note_on_c, 0, 52, 58
1, 777688, Note_off_c, 0, 82, 64
1, 777711, Note_on_c, 0, 90, 93
1, 777712, Note_on_c, 0, 78, 102
1, 777724, Note_on_c, 0, 58, 88
1, 777730, Note_off_c, 0, 52, 60
1, 777735, Note_off_c, 0, 50, 61
1, 777745, Note_off_c, 0, 78, 65
1, 777746, Note_off_c, 0, 90, 67
1, 777867, Note_off_c, 0, 58, 62
1, 777867, Note_on_c, 0, 85, 82
1, 777870, Note_on_c, 0, 73, 82
1, 777891, Note_off_c, 0, 73, 72
1, 777897, Note_on_c, 0, 51, 81
1, 777916, Note_off_c, 0, 85, 64
1, 777933, Note_on_c, 0, 61, 85
1, 777939, Note_on_c, 0, 82, 103
1, 777941, Note_on_c, 0, 88, 96
1, 777944, Note_on_c, 0, 76, 91
1, 777956, Note_on_c, 0, 77, 94
1, 777960, Note_off_c, 0, 61, 71
1, 777972, Note_off_c, 0, 76, 71
1, 777975, Note_off_c, 0, 77, 72
1, 777977, Note_off_c, 0, 82, 69
1, 777979, Note_off_c, 0, 88, 71
1, 777991, Note_off_c, 0, 51, 65
1, 778135, Control_c, 0, 64, 86
1, 778150, Control_c, 0, 64, 44
1, 778164, Note_on_c, 0, 80, 32
1, 778165, Control_c, 0, 64, 0
1, 778175, Note_on_c, 0, 46, 110
1, 778185, Note_on_c, 0, 78, 15
1, 778192, Note_on_c, 0, 34, 59
1, 778210, Control_c, 0, 64, 59
1, 778214, Note_off_c, 0, 46, 66
1, 778222, Note_on_c, 0, 44, 17
1, 778223, Note_off_c, 0, 44, 127
1, 778225, Note_off_c, 0, 34, 57
1, 778225, Control_c, 0, 64, 78
1, 778240, Control_c, 0, 64, 127
1, 778251, Note_off_c, 0, 78, 0
1, 778274, Poly_aftertouch_c, 0, 44, 0
1, 778287, Poly_aftertouch_c, 0, 78, 127
1, 778298, Note_off_c, 0, 80, 52
1, 778317, Poly_aftertouch_c, 0, 78, 0
1, 778329, Note_on_c, 0, 82, 79
1, 778338, Note_on_c, 0, 70, 77
1, 778351, Note_on_c, 0, 55, 79
1, 778360, Note_off_c, 0, 70, 71
1, 778380, Note_off_c, 0, 82, 64
1, 778405, Note_on_c, 0, 79, 102
1, 778412, Note_on_c, 0, 86, 101
1, 778425, Note_on_c, 0, 63, 94
1, 778438, Note_off_c, 0, 55, 63
1, 778446, Note_off_c, 0, 79, 70
1, 778448, Note_off_c, 0, 86, 67
1, 778564, Note_on_c, 0, 60, 10
1, 778570, Note_on_c, 0, 57, 81
1, 778582, Note_on_c, 0, 81, 92
1, 778586, Note_on_c, 0, 78, 89
1, 778598, Note_off_c, 0, 81, 73
1, 778603, Note_on_c, 0, 69, 50
1, 778604, Note_off_c, 0, 69, 127
1, 778609, Note_on_c, 0, 79, 26
1, 778610, Note_off_c, 0, 79, 127
1, 778610, Note_off_c, 0, 78, 68
1, 778618, Note_off_c, 0, 63, 60
1, 778651, Note_on_c, 0, 66, 98
1, 778657, Note_on_c, 0, 73, 111
1, 778659, Note_on_c, 0, 85, 105
1, 778674, Note_on_c, 0, 86, 80
1, 778675, Note_off_c, 0, 66, 64
1, 778677, Note_off_c, 0, 60, 57
1, 778684, Note_on_c, 0, 80, 46
1, 778685, Note_off_c, 0, 80, 127
1, 778688, Note_off_c, 0, 86, 71
1, 778688, Note_off_c, 0, 57, 65
1, 778693, Note_off_c, 0, 73, 69
1, 778711, Note_off_c, 0, 85, 65
1, 778855, Control_c, 0, 64, 68
1, 778870, Control_c, 0, 64, 0
1, 778880, Note_on_c, 0, 51, 111
1, 778899, Note_on_c, 0, 39, 74
1, 778911, Note_off_c, 0, 51, 70
1, 778914, Control_c, 0, 64, 31
1, 778928, Control_c, 0, 64, 69
1, 778934, Note_off_c, 0, 39, 63
1, 778943, Control_c, 0, 64, 127
1, 778949, Note_on_c, 0, 67, 30
1, 778985, Note_off_c, 0, 67, 47
1, 779044, Note_on_c, 0, 79, 93
1, 779055, Note_on_c, 0, 74, 74
1, 779062, Note_on_c, 0, 58, 92
1, 779088, Note_off_c, 0, 79, 67
1, 779131, Note_on_c, 0, 82, 95
1, 779132, Note_on_c, 0, 67, 101
1, 779133, Note_on_c, 0, 70, 96
1, 779165, Note_off_c, 0, 70, 68
1, 779165, Note_off_c, 0, 74, 62
1, 779175, Note_off_c, 0, 82, 66
1, 779248, Note_off_c, 0, 67, 59
1, 779257, Note_off_c, 0, 58, 63
1, 779278, Note_on_c, 0, 78, 83
1, 779286, Note_on_c, 0, 61, 88
1, 779301, Control_c, 0, 64, 86
1, 779315, Note_on_c, 0, 76, 22
1, 779316, Control_c, 0, 64, 58
1, 779330, Control_c, 0, 64, 0
1, 779332, Note_off_c, 0, 76, 47
1, 779342, Note_off_c, 0, 78, 64
1, 779345, Control_c, 0, 64, 42
1, 779345, Note_on_c, 0, 73, 98
1, 779354, Note_on_c, 0, 81, 96
1, 779357, Note_on_c, 0, 69, 106
1, 779360, Control_c, 0, 64, 60
1, 779375, Control_c, 0, 64, 78
1, 779381, Note_off_c, 0, 69, 71
1, 779390, Control_c, 0, 64, 127
1, 779393, Note_off_c, 0, 73, 68
1, 779397, Note_off_c, 0, 81, 68
1, 779401, Note_off_c, 0, 61, 66
1, 779590, Control_c, 0, 64, 80
1, 779605, Control_c, 0, 64, 0
1, 779864, Note_on_c, 0, 67, 71
1, 779865, Note_on_c, 0, 82, 75
1, 779871, Note_on_c, 0, 62, 66
1, 779871, Note_on_c, 0, 70, 83
1, 779879, Note_on_c, 0, 74, 65
1, 779889, Note_off_c, 0, 67, 68
1, 779897, Note_off_c, 0, 62, 66
1, 779898, Note_off_c, 0, 82, 66
1, 779900, Note_off_c, 0, 70, 66
1, 779906, Note_off_c, 0, 74, 67
1, 780125, Note_on_c, 0, 75, 81
1, 780127, Note_on_c, 0, 66, 84
1, 780131, Note_on_c, 0, 70, 79
1, 780132, Note_on_c, 0, 61, 74
1, 780145, Note_on_c, 0, 58, 36
1, 780168, Note_off_c, 0, 66, 62
1, 780168, Note_off_c, 0, 70, 63
1, 780170, Note_off_c, 0, 61, 61
1, 780171, Note_off_c, 0, 58, 51
1, 780177, Note_off_c, 0, 75, 64
1, 780373, Note_on_c, 0, 67, 93
1, 780374, Note_on_c, 0, 70, 97
1, 780374, Note_on_c, 0, 82, 81
1, 780378, Note_on_c, 0, 62, 79
1, 780379, Note_on_c, 0, 74, 72
1, 780394, Note_off_c, 0, 82, 70
1, 780403, Note_off_c, 0, 74, 69
1, 780407, Note_off_c, 0, 67, 66
1, 780419, Note_off_c, 0, 62, 61
1, 780419, Note_off_c, 0, 70, 65
1, 780603, Note_on_c, 0, 57, 76
1, 780606, Note_on_c, 0, 61, 93
1, 780606, Note_on_c, 0, 64, 91
1, 780606, Note_on_c, 0, 73, 98
1, 780609, Note_on_c, 0, 76, 82
1, 780618, Note_on_c, 0, 62, 76
1, 780628, Note_off_c, 0, 57, 68
1, 780635, Note_on_c, 0, 70, 55
1, 780643, Note_off_c, 0, 62, 64
1, 780648, Note_off_c, 0, 64, 67
1, 780657, Note_off_c, 0, 70, 60
1, 780659, Note_off_c, 0, 76, 66
1, 780661, Note_off_c, 0, 61, 64
1, 780676, Note_off_c, 0, 73, 62
1, 780816, Note_on_c, 0, 62, 50
1, 780826, Note_on_c, 0, 68, 99
1, 780832, Note_on_c, 0, 77, 92
1, 780833, Note_on_c, 0, 65, 92
1, 780836, Note_on_c, 0, 70, 96
1, 780842, Note_on_c, 0, 56, 80
1, 780856, Note_on_c, 0, 74, 47
1, 780858, Note_on_c, 0, 63, 46
1, 780859, Note_off_c, 0, 63, 127
1, 780860, Note_off_c, 0, 68, 67
1, 780869, Note_off_c, 0, 62, 65
1, 780869, Note_off_c, 0, 65, 65
1, 780879, Note_off_c, 0, 74, 38
1, 780881, Note_on_c, 0, 67, 17
1, 780882, Note_off_c, 0, 67, 127
1, 780882, Note_off_c, 0, 56, 63
1, 780886, Note_off_c, 0, 70, 67
1, 780887, Note_off_c, 0, 77, 65
1, 781068, Note_on_c, 0, 74, 97
1, 781070, Note_on_c, 0, 58, 103
1, 781071, Note_on_c, 0, 70, 94
1, 781071, Note_on_c, 0, 82, 88
1, 781074, Control_c, 0, 64, 73
1, 781081, Note_on_c, 0, 46, 78
1, 781089, Control_c, 0, 64, 127
1, 781098, Note_on_c, 0, 52, 26
1, 781104, Control_c, 0, 64, 89
1, 781107, Note_off_c, 0, 74, 65
1, 781109, Note_off_c, 0, 46, 67
1, 781109, Note_off_c, 0, 58, 67
1, 781116, Note_off_c, 0, 82, 64
1, 781119, Control_c, 0, 64, 31
1, 781121, Note_off_c, 0, 70, 67
1, 781128, Note_off_c, 0, 52, 50
1, 781134, Control_c, 0, 64, 0
1, 781307, Note_on_c, 0, 66, 101
1, 781310, Note_on_c, 0, 78, 96
1, 781313, Note_on_c, 0, 63, 109
1, 781313, Note_on_c, 0, 72, 90
1, 781322, Note_on_c, 0, 51, 93
1, 781326, Control_c, 0, 64, 67
1, 781333, Note_on_c, 0, 57, 40
1, 781340, Note_on_c, 0, 58, 58
1, 781341, Control_c, 0, 64, 127
1, 781349, Note_off_c, 0, 63, 66
1, 781352, Note_off_c, 0, 66, 66
1, 781355, Note_off_c, 0, 72, 67
1, 781361, Note_off_c, 0, 57, 65
1, 781363, Note_off_c, 0, 58, 59
1, 781366, Note_off_c, 0, 51, 64
1, 781372, Note_off_c, 0, 78, 65
1, 781400, Control_c, 0, 64, 107
1, 781414, Control_c, 0, 64, 71
1, 781429, Control_c, 0, 64, 50
1, 781444, Control_c, 0, 64, 0
1, 781546, Note_on_c, 0, 55, 106
1, 781549, Note_on_c, 0, 43, 84
1, 781551, Note_on_c, 0, 74, 88
1, 781551, Note_on_c, 0, 82, 85
1, 781552, Note_on_c, 0, 70, 101
1, 781563, Control_c, 0, 64, 42
1, 781576, Note_on_c, 0, 50, 30
1, 781578, Control_c, 0, 64, 127
1, 781579, Note_off_c, 0, 43, 69
1, 781583, Note_off_c, 0, 74, 62
1, 781590, Note_off_c, 0, 55, 67
1, 781591, Note_off_c, 0, 82, 64
1, 781599, Note_off_c, 0, 70, 68
1, 781611, Note_off_c, 0, 50, 45
1, 781622, Control_c, 0, 64, 76
1, 781637, Control_c, 0, 64, 30
1, 781652, Control_c, 0, 64, 0
1, 781783, Note_on_c, 0, 59, 101
1, 781790, Note_on_c, 0, 62, 102
1, 781791, Note_on_c, 0, 56, 91
1, 781791, Note_on_c, 0, 74, 91
1, 781792, Note_on_c, 0, 68, 103
1, 781793, Note_on_c, 0, 52, 85
1, 781811, Note_off_c, 0, 59, 70
1, 781817, Note_on_c, 0, 70, 31
1, 781823, Control_c, 0, 64, 64
1, 781830, Note_off_c, 0, 62, 70
1, 781831, Note_off_c, 0, 56, 66
1, 781831, Note_on_c, 0, 50, 16
1, 781834, Note_off_c, 0, 52, 66
1, 781837, Control_c, 0, 64, 127
1, 781848, Note_off_c, 0, 74, 64
1, 781853, Note_off_c, 0, 68, 67
1, 781853, Note_off_c, 0, 70, 40
1, 781872, Note_off_c, 0, 50, 56
1, 781886, Poly_aftertouch_c, 0, 71, 0
1, 781891, Poly_aftertouch_c, 0, 48, 0
1, 781956, Control_c, 0, 64, 95
1, 781971, Control_c, 0, 64, 64
1, 781986, Control_c, 0, 64, 0
1, 782058, Note_on_c, 0, 79, 93
1, 782060, Note_on_c, 0, 51, 126
1, 782061, Note_on_c, 0, 67, 103
1, 782062, Note_on_c, 0, 70, 101
1, 782062, Note_on_c, 0, 75, 92
1, 782067, Note_on_c, 0, 39, 87
1, 782090, Control_c, 0, 64, 91
1, 782092, Note_off_c, 0, 79, 69
1, 782094, Note_off_c, 0, 67, 68
1, 782100, Note_off_c, 0, 39, 66
1, 782103, Note_off_c, 0, 51, 69
1, 782104, Control_c, 0, 64, 127
1, 782106, Note_off_c, 0, 70, 69
1, 782108, Note_off_c, 0, 75, 65
1, 782162, Control_c, 0, 64, 66
1, 782177, Control_c, 0, 64, 0
1, 782347, Note_on_c, 0, 60, 96
1, 782349, Note_on_c, 0, 54, 125
1, 782350, Note_on_c, 0, 57, 104
1, 782350, Note_on_c, 0, 69, 96
1, 782351, Note_on_c, 0, 42, 85
1, 782355, Note_on_c, 0, 63, 96
1, 782358, Note_on_c, 0, 48, 57
1, 782381, Note_on_c, 0, 49, 52
1, 782382, Note_off_c, 0, 49, 127
1, 782383, Note_off_c, 0, 48, 59
1, 782383, Note_off_c, 0, 54, 72
1, 782383, Note_on_c, 0, 66, 49
1, 782385, Control_c, 0, 64, 127
1, 782389, Note_off_c, 0, 57, 68
1, 782389, Note_off_c, 0, 42, 64
1, 782407, Note_off_c, 0, 69, 64
1, 782410, Note_off_c, 0, 60, 67
1, 782422, Note_off_c, 0, 66, 62
1, 782425, Note_off_c, 0, 63, 67
1, 782556, Control_c, 0, 64, 78
1, 782571, Control_c, 0, 64, 0
1, 782657, Note_on_c, 0, 34, 71
1, 782714, Note_on_c, 0, 41, 67
1, 782736, Note_on_c, 0, 46, 85
1, 782756, Note_off_c, 0, 41, 66
1, 782757, Note_off_c, 0, 34, 62
1, 782758, Note_on_c, 0, 50, 99
1, 782759, Note_on_c, 0, 82, 92
1, 782759, Note_on_c, 0, 74, 100
1, 782760, Note_on_c, 0, 70, 114
1, 782767, Note_on_c, 0, 77, 89
1, 782778, Control_c, 0, 64, 127
1, 782787, Note_off_c, 0, 50, 69
1, 782791, Note_on_c, 0, 45, 45
1, 782792, Note_off_c, 0, 45, 127
1, 782798, Note_off_c, 0, 82, 65
1, 782800, Note_off_c, 0, 46, 63
1, 782801, Note_off_c, 0, 77, 65
1, 782803, Note_on_c, 0, 79, 20
1, 782804, Note_off_c, 0, 74, 66
1, 782806, Note_off_c, 0, 70, 69
1, 782829, Note_on_c, 0, 83, 21
1, 782830, Note_off_c, 0, 83, 127
1, 782831, Poly_aftertouch_c, 0, 45, 0
1, 782832, Note_off_c, 0, 79, 38
1, 783045, Control_c, 0, 64, 72
1, 783060, Control_c, 0, 64, 0
1, 783285, Note_on_c, 0, 63, 86
1, 783286, Note_on_c, 0, 41, 106
1, 783286, Note_on_c, 0, 34, 100
1, 783288, Note_on_c, 0, 52, 86
1, 783292, Note_on_c, 0, 58, 73
1, 783292, Note_on_c, 0, 50, 76
1, 783309, Note_off_c, 0, 63, 65
1, 783310, Note_off_c, 0, 58, 66
1, 783310, Note_off_c, 0, 50, 67
1, 783310, Note_off_c, 0, 52, 69
1, 783313, Note_off_c, 0, 34, 67
1, 783313, Note_off_c, 0, 41, 67
1, 783347, Note_on_c, 0, 65, 5
1, 783348, Note_off_c, 0, 65, 127
1, 783370, Note_on_c, 0, 41, 113
1, 783373, Note_on_c, 0, 34, 103
1, 783373, Note_on_c, 0, 62, 95
1, 783374, Note_on_c, 0, 58, 97
1, 783375, Note_on_c, 0, 52, 94
1, 783385, Note_on_c, 0, 59, 45
1, 783391, Poly_aftertouch_c, 0, 60, 0
1, 783395, Control_c, 0, 64, 52
1, 783402, Note_off_c, 0, 41, 68
1, 783403, Note_on_c, 0, 60, 26
1, 783408, Note_off_c, 0, 34, 62
1, 783408, Note_off_c, 0, 52, 69
1, 783409, Control_c, 0, 64, 127
1, 783414, Note_off_c, 0, 62, 67
1, 783415, Note_off_c, 0, 59, 65
1, 783431, Note_off_c, 0, 58, 63
1, 783433, Note_off_c, 0, 60, 42
1, 783662, Control_c, 0, 64, 101
1, 783676, Control_c, 0, 64, 62
1, 783691, Control_c, 0, 64, 0
1, 783904, Note_on_c, 0, 58, 97
1, 783906, Note_on_c, 0, 50, 96
1, 783909, Note_on_c, 0, 41, 98
1, 783909, Note_on_c, 0, 62, 78
1, 783912, Note_on_c, 0, 34, 85
1, 783915, Note_on_c, 0, 52, 73
1, 783920, Note_on_c, 0, 65, 56
1, 783927, Note_off_c, 0, 50, 72
1, 783932, Note_off_c, 0, 52, 68
1, 783933, Note_off_c, 0, 58, 64
1, 783936, Note_off_c, 0, 41, 68
1, 783939, Note_off_c, 0, 34, 66
1, 783951, Note_off_c, 0, 65, 42
1, 783953, Note_off_c, 0, 62, 63
1, 783968, Note_on_c, 0, 37, 6
1, 784001, Note_on_c, 0, 34, 102
1, 784002, Note_on_c, 0, 41, 106
1, 784002, Note_on_c, 0, 62, 107
1, 784002, Note_on_c, 0, 58, 102
1, 784011, Note_on_c, 0, 50, 92
1, 784014, Note_on_c, 0, 52, 71
1, 784024, Control_c, 0, 64, 60
1, 784029, Note_off_c, 0, 41, 68
1, 784031, Note_off_c, 0, 37, 26
1, 784031, Note_off_c, 0, 50, 70
1, 784035, Note_off_c, 0, 52, 68
1, 784039, Note_off_c, 0, 34, 64
1, 784039, Control_c, 0, 64, 127
1, 784048, Note_on_c, 0, 59, 26
1, 784048, Note_off_c, 0, 62, 68
1, 784051, Note_off_c, 0, 58, 68
1, 784084, Note_off_c, 0, 59, 45
1, 784210, Note_on_c, 0, 60, 3
1, 784232, Control_c, 0, 64, 65
1, 784247, Control_c, 0, 64, 0
1, 784255, Note_off_c, 0, 60, 39
1, 784322, Note_on_c, 0, 34, 3
1, 784350, Note_off_c, 0, 34, 54
1, 784456, Note_on_c, 0, 58, 101
1, 784458, Note_on_c, 0, 41, 104
1, 784459, Note_on_c, 0, 34, 86
1, 784461, Note_on_c, 0, 65, 82
1, 784472, Note_on_c, 0, 37, 68
1, 784472, Note_on_c, 0, 50, 76
1, 784474, Note_on_c, 0, 62, 61
1, 784484, Note_on_c, 0, 52, 53
1, 784486, Note_off_c, 0, 65, 65
1, 784490, Note_off_c, 0, 50, 67
1, 784494, Note_off_c, 0, 41, 68
1, 784497, Note_off_c, 0, 37, 60
1, 784502, Note_off_c, 0, 34, 62
1, 784502, Note_off_c, 0, 58, 64
1, 784505, Note_off_c, 0, 62, 65
1, 784509, Note_off_c, 0, 52, 39
1, 784555, Note_on_c, 0, 41, 105
1, 784556, Note_on_c, 0, 34, 107
1, 784558, Note_on_c, 0, 64, 33
1, 784561, Note_on_c, 0, 62, 86
1, 784562, Note_on_c, 0, 59, 96
1, 784573, Control_c, 0, 64, 87
1, 784574, Note_on_c, 0, 37, 64
1, 784575, Note_off_c, 0, 37, 127
1, 784575, Note_off_c, 0, 41, 73
1, 784575, Note_on_c, 0, 60, 81
1, 784577, Note_off_c, 0, 62, 64
1, 784580, Note_on_c, 0, 53, 64
1, 784581, Note_off_c, 0, 53, 127
1, 784589, Control_c, 0, 64, 127
1, 784590, Note_off_c, 0, 60, 70
1, 784593, Note_on_c, 0, 58, 46
1, 784594, Note_off_c, 0, 58, 127
1, 784594, Note_off_c, 0, 34, 64
1, 784600, Note_off_c, 0, 59, 64
1, 784600, Note_off_c, 0, 64, 66
1, 784634, Control_c, 0, 64, 89
1, 784649, Control_c, 0, 64, 28
1, 784664, Control_c, 0, 64, 0
1, 784777, Note_on_c, 0, 50, 74
1, 784780, Note_on_c, 0, 62, 69
1, 784788, Note_on_c, 0, 34, 82
1, 784799, Note_on_c, 0, 22, 62
1, 784807, Note_off_c, 0, 50, 66
1, 784812, Note_off_c, 0, 62, 65
1, 784817, Note_off_c, 0, 34, 67
1, 784836, Note_off_c, 0, 22, 59
1, 784937, Note_on_c, 0, 40, 79
1, 784949, Note_on_c, 0, 50, 46
1, 784950, Note_on_c, 0, 28, 61
1, 784957, Note_on_c, 0, 59, 46
1, 784970, Note_off_c, 0, 40, 64
1, 784974, Note_on_c, 0, 52, 22
1, 784975, Note_off_c, 0, 52, 127
1, 784977, Note_off_c, 0, 50, 51
1, 784983, Note_off_c, 0, 28, 61
1, 784984, Note_off_c, 0, 59, 52
1, 785060, Note_on_c, 0, 57, 84
1, 785074, Note_on_c, 0, 50, 57
1, 785105, Note_off_c, 0, 50, 65
1, 785105, Note_off_c, 0, 57, 64
1, 785177, Note_on_c, 0, 41, 83
1, 785182, Note_on_c, 0, 29, 67
1, 785184, Note_on_c, 0, 50, 73
1, 785192, Note_on_c, 0, 58, 67
1, 785201, Note_on_c, 0, 62, 56
1, 785204, Note_off_c, 0, 41, 66
1, 785211, Note_off_c, 0, 29, 61
1, 785216, Note_off_c, 0, 50, 67
1, 785223, Note_off_c, 0, 58, 66
1, 785224, Note_off_c, 0, 62, 60
1, 785289, Note_on_c, 0, 56, 88
1, 785291, Note_on_c, 0, 37, 74
1, 785291, Note_on_c, 0, 50, 70
1, 785294, Note_on_c, 0, 25, 59
1, 785315, Note_off_c, 0, 37, 65
1, 785322, Note_off_c, 0, 50, 66
1, 785327, Note_off_c, 0, 25, 56
1, 785339, Note_off_c, 0, 56, 66
1, 785390, Note_on_c, 0, 42, 96
1, 785396, Note_on_c, 0, 50, 90
1, 785399, Note_on_c, 0, 58, 83
1, 785405, Note_on_c, 0, 30, 78
1, 785421, Note_off_c, 0, 42, 67
1, 785425, Note_on_c, 0, 62, 35
1, 785429, Note_off_c, 0, 30, 64
1, 785449, Note_off_c, 0, 50, 62
1, 785471, Note_off_c, 0, 62, 50
1, 785473, Note_off_c, 0, 58, 61
1, 785500, Note_on_c, 0, 55, 90
1, 785512, Note_on_c, 0, 50, 52
1, 785515, Note_on_c, 0, 34, 64
1, 785530, Note_on_c, 0, 25, 44
1, 785541, Note_off_c, 0, 50, 54
1, 785544, Note_off_c, 0, 34, 57
1, 785554, Note_off_c, 0, 55, 65
1, 785572, Note_off_c, 0, 25, 52
1, 785610, Note_on_c, 0, 50, 96
1, 785613, Note_on_c, 0, 40, 86
1, 785617, Note_on_c, 0, 41, 91
1, 785622, Note_on_c, 0, 62, 77
1, 785625, Note_on_c, 0, 58, 74
1, 785634, Note_on_c, 0, 28, 60
1, 785642, Note_off_c, 0, 41, 66
1, 785644, Note_off_c, 0, 40, 68
1, 785651, Note_off_c, 0, 62, 64
1, 785662, Note_off_c, 0, 50, 65
1, 785664, Note_off_c, 0, 28, 56
1, 785667, Note_off_c, 0, 58, 59
1, 785708, Note_on_c, 0, 54, 95
1, 785712, Note_on_c, 0, 37, 99
1, 785713, Note_on_c, 0, 50, 65
1, 785737, Note_off_c, 0, 50, 66
1, 785753, Note_off_c, 0, 37, 59
1, 785760, Note_on_c, 0, 25, 14
1, 785761, Note_off_c, 0, 25, 127
1, 785773, Note_off_c, 0, 54, 66
1, 785807, Note_on_c, 0, 50, 101
1, 785813, Note_on_c, 0, 58, 99
1, 785816, Note_on_c, 0, 62, 79
1, 785821, Note_on_c, 0, 38, 86
1, 785829, Note_on_c, 0, 40, 86
1, 785840, Note_on_c, 0, 60, 56
1, 785841, Note_off_c, 0, 60, 127
1, 785841, Note_off_c, 0, 62, 64
1, 785847, Note_off_c, 0, 50, 68
1, 785855, Note_off_c, 0, 40, 68
1, 785856, Note_off_c, 0, 58, 65
1, 785862, Note_off_c, 0, 38, 62
1, 785916, Note_on_c, 0, 53, 108
1, 785929, Note_on_c, 0, 29, 83
1, 785968, Note_off_c, 0, 53, 67
1, 786052, Note_on_c, 0, 58, 107
1, 786055, Note_on_c, 0, 49, 106
1, 786059, Note_on_c, 0, 61, 78
1, 786060, Note_on_c, 0, 34, 110
1, 786061, Note_on_c, 0, 54, 82
1, 786063, Note_off_c, 0, 29, 63
1, 786070, Note_on_c, 0, 55, 69
1, 786072, Control_c, 0, 64, 127
1, 786073, Note_off_c, 0, 49, 74
1, 786081, Note_off_c, 0, 61, 69
1, 786089, Note_off_c, 0, 54, 68
1, 786090, Note_on_c, 0, 51, 37
1, 786091, Note_on_c, 0, 32, 45
1, 786092, Note_off_c, 0, 32, 127
1, 786097, Note_off_c, 0, 55, 65
1, 786097, Note_off_c, 0, 58, 64
1, 786099, Note_off_c, 0, 34, 66
1, 786128, Note_off_c, 0, 51, 53
1, 786129, Poly_aftertouch_c, 0, 32, 0
1, 786371, Note_on_c, 0, 42, 84
1, 786374, Note_on_c, 0, 70, 95
1, 786381, Note_on_c, 0, 73, 80
1, 786404, Note_on_c, 0, 74, 55
1, 786406, Note_off_c, 0, 73, 66
1, 786412, Note_off_c, 0, 70, 66
1, 786424, Note_off_c, 0, 74, 62
1, 786487, Note_off_c, 0, 42, 64
1, 786491, Note_on_c, 0, 58, 102
1, 786491, Note_on_c, 0, 70, 114
1, 786493, Note_on_c, 0, 73, 99
1, 786493, Note_on_c, 0, 82, 106
1, 786496, Note_on_c, 0, 78, 98
1, 786560, Note_off_c, 0, 58, 65
1, 786579, Note_on_c, 0, 49, 72
1, 786603, Note_off_c, 0, 82, 59
1, 786609, Note_off_c, 0, 78, 61
1, 786626, Note_on_c, 0, 42, 87
1, 786645, Note_off_c, 0, 49, 65
1, 786649, Note_off_c, 0, 73, 57
1, 786671, Note_off_c, 0, 70, 62
1, 786672, Note_off_c, 0, 42, 64
1, 786726, Note_on_c, 0, 34, 100
1, 786829, Note_on_c, 0, 73, 100
1, 786829, Note_on_c, 0, 22, 87
1, 786836, Note_on_c, 0, 61, 90
1, 786839, Note_on_c, 0, 70, 86
1, 786850, Note_off_c, 0, 34, 62
1, 786870, Note_on_c, 0, 25, 34
1, 786870, Note_off_c, 0, 61, 60
1, 786917, Note_off_c, 0, 73, 62
1, 786925, Control_c, 0, 64, 79
1, 786929, Note_off_c, 0, 25, 45
1, 786948, Control_c, 0, 64, 0
1, 786970, Note_on_c, 0, 34, 109
1, 786976, Note_on_c, 0, 68, 112
1, 786982, Note_on_c, 0, 80, 98
1, 786992, Control_c, 0, 64, 23
1, 787002, Note_off_c, 0, 22, 62
1, 787006, Note_off_c, 0, 70, 64
1, 787007, Control_c, 0, 64, 71
1, 787011, Note_on_c, 0, 78, 51
1, 787012, Note_off_c, 0, 78, 127
1, 787017, Note_off_c, 0, 34, 64
1, 787021, Control_c, 0, 64, 127
1, 787096, Note_off_c, 0, 80, 62
1, 787142, Note_off_c, 0, 68, 60
1, 787154, Note_on_c, 0, 42, 69
1, 787173, Note_on_c, 0, 44, 56
1, 787196, Note_off_c, 0, 42, 63
1, 787203, Note_on_c, 0, 58, 101
1, 787232, Note_off_c, 0, 44, 41
1, 787254, Note_off_c, 0, 58, 68
1, 787281, Note_on_c, 0, 49, 73
1, 787290, Note_on_c, 0, 61, 93
1, 787290, Note_on_c, 0, 73, 102
1, 787302, Note_on_c, 0, 42, 91
1, 787303, Note_on_c, 0, 70, 82
1, 787312, Poly_aftertouch_c, 0, 46, 127
1, 787325, Note_off_c, 0, 61, 62
1, 787331, Note_off_c, 0, 49, 61
1, 787348, Note_off_c, 0, 42, 64
1, 787348, Poly_aftertouch_c, 0, 46, 0
1, 787348, Note_off_c, 0, 73, 62
1, 787362, Note_off_c, 0, 70, 65
1, 787368, Poly_aftertouch_c, 0, 46, 0
1, 787393, Control_c, 0, 64, 84
1, 787408, Note_on_c, 0, 78, 102
1, 787408, Control_c, 0, 64, 43
1, 787410, Note_on_c, 0, 66, 106
1, 787421, Note_on_c, 0, 34, 98
1, 787423, Control_c, 0, 64, 0
1, 787467, Control_c, 0, 64, 22
1, 787482, Control_c, 0, 64, 62
1, 787497, Control_c, 0, 64, 72
1, 787507, Note_off_c, 0, 78, 64
1, 787512, Note_off_c, 0, 34, 61
1, 787512, Control_c, 0, 64, 95
1, 787526, Control_c, 0, 64, 127
1, 787539, Note_on_c, 0, 22, 82
1, 787557, Poly_aftertouch_c, 0, 27, 0
1, 787561, Note_off_c, 0, 66, 0
1, 787599, Poly_aftertouch_c, 0, 66, 127
1, 787602, Note_on_c, 0, 34, 95
1, 787609, Note_on_c, 0, 32, 72
1, 787624, Note_on_c, 0, 29, 22
1, 787629, Note_off_c, 0, 22, 58
1, 787635, Note_off_c, 0, 32, 62
1, 787637, Poly_aftertouch_c, 0, 21, 127
1, 787640, Poly_aftertouch_c, 0, 66, 0
1, 787641, Note_off_c, 0, 34, 64
1, 787671, Note_off_c, 0, 29, 50
1, 787677, Poly_aftertouch_c, 0, 21, 0
1, 787706, Note_on_c, 0, 70, 90
1, 787713, Note_on_c, 0, 58, 74
1, 787739, Note_off_c, 0, 58, 66
1, 787742, Note_on_c, 0, 66, 58
1, 787768, Note_off_c, 0, 70, 64
1, 787769, Note_on_c, 0, 42, 50
1, 787773, Note_off_c, 0, 66, 65
1, 787800, Control_c, 0, 64, 101
1, 787810, Note_off_c, 0, 42, 61
1, 787815, Control_c, 0, 64, 63
1, 787830, Control_c, 0, 64, 27
1, 787834, Note_on_c, 0, 58, 84
1, 787838, Note_on_c, 0, 65, 100
1, 787840, Note_on_c, 0, 77, 100
1, 787844, Control_c, 0, 64, 34
1, 787859, Control_c, 0, 64, 53
1, 787864, Note_on_c, 0, 56, 47
1, 787871, Poly_aftertouch_c, 0, 44, 127
1, 787874, Control_c, 0, 64, 64
1, 787878, Note_on_c, 0, 44, 3
1, 787883, Note_on_c, 0, 67, 33
1, 787884, Note_off_c, 0, 67, 127
1, 787889, Control_c, 0, 64, 77
1, 787892, Note_off_c, 0, 58, 65
1, 787895, Note_off_c, 0, 56, 56
1, 787897, Note_off_c, 0, 44, 46
1, 787904, Control_c, 0, 64, 127
1, 787926, Note_off_c, 0, 77, 60
1, 787927, Note_on_c, 0, 49, 62
1, 787955, Note_on_c, 0, 42, 90
1, 787968, Note_off_c, 0, 65, 65
1, 787980, Note_off_c, 0, 49, 63
1, 787996, Note_off_c, 0, 42, 65
1, 788046, Note_on_c, 0, 66, 25
1, 788055, Note_on_c, 0, 34, 89
1, 788064, Note_on_c, 0, 32, 75
1, 788085, Note_off_c, 0, 66, 49
1, 788096, Note_off_c, 0, 32, 63
1, 788133, Note_on_c, 0, 58, 94
1, 788139, Note_on_c, 0, 70, 87
1, 788144, Note_off_c, 0, 34, 59
1, 788160, Note_on_c, 0, 66, 73
1, 788165, Note_on_c, 0, 68, 56
1, 788171, Note_on_c, 0, 22, 70
1, 788191, Note_off_c, 0, 58, 64
1, 788191, Note_off_c, 0, 68, 55
1, 788201, Note_on_c, 0, 25, 19
1, 788257, Note_off_c, 0, 70, 60
1, 788259, Control_c, 0, 64, 81
1, 788261, Note_off_c, 0, 25, 42
1, 788273, Control_c, 0, 64, 0
1, 788277, Note_on_c, 0, 34, 94
1, 788277, Note_on_c, 0, 75, 95
1, 788279, Note_on_c, 0, 63, 106
1, 788302, Note_on_c, 0, 73, 69
1, 788321, Note_off_c, 0, 22, 62
1, 788333, Control_c, 0, 64, 52
1, 788339, Note_off_c, 0, 34, 64
1, 788347, Control_c, 0, 64, 75
1, 788362, Control_c, 0, 64, 127
1, 788392, Note_off_c, 0, 75, 66
1, 788422, Note_off_c, 0, 73, 21
1, 788433, Note_off_c, 0, 63, 61
1, 788481, Note_on_c, 0, 42, 42
1, 788487, Note_on_c, 0, 44, 55
1, 788501, Note_on_c, 0, 58, 89
1, 788509, Note_off_c, 0, 66, 57
1, 788518, Note_off_c, 0, 42, 49
1, 788529, Note_off_c, 0, 44, 57
1, 788542, Note_on_c, 0, 46, 23
1, 788545, Note_off_c, 0, 58, 66
1, 788586, Note_on_c, 0, 49, 43
1, 788597, Note_on_c, 0, 42, 65
1, 788601, Note_off_c, 0, 46, 58
1, 788612, Note_on_c, 0, 70, 94
1, 788615, Note_off_c, 0, 49, 55
1, 788620, Note_on_c, 0, 58, 88
1, 788624, Note_off_c, 0, 42, 62
1, 788633, Note_on_c, 0, 66, 62
1, 788660, Note_off_c, 0, 58, 61
1, 788694, Note_off_c, 0, 70, 59
1, 788698, Note_off_c, 0, 66, 61
1, 788725, Control_c, 0, 64, 115
1, 788735, Poly_aftertouch_c, 0, 66, 0
1, 788740, Note_on_c, 0, 66, 43
1, 788740, Control_c, 0, 64, 63
1, 788741, Note_on_c, 0, 34, 75
1, 788743, Note_on_c, 0, 73, 95
1, 788749, Note_on_c, 0, 61, 95
1, 788755, Control_c, 0, 64, 0
1, 788779, Note_off_c, 0, 66, 48
1, 788829, Control_c, 0, 64, 39
1, 788844, Control_c, 0, 64, 63
1, 788859, Control_c, 0, 64, 69
1, 788864, Note_off_c, 0, 34, 37
1, 788873, Control_c, 0, 64, 80
1, 788876, Note_off_c, 0, 61, 61
1, 788885, Note_on_c, 0, 22, 66
1, 788888, Control_c, 0, 64, 96
1, 788900, Note_off_c, 0, 73, 63
1, 788903, Control_c, 0, 64, 127
1, 788956, Note_off_c, 0, 22, 60
1, 788960, Note_on_c, 0, 34, 77
1, 788991, Note_off_c, 0, 34, 62
1, 789173, Note_on_c, 0, 53, 62
1, 789208, Control_c, 0, 64, 76
1, 789211, Note_on_c, 0, 62, 50
1, 789222, Control_c, 0, 64, 53
1, 789237, Control_c, 0, 64, 0
1, 789260, Note_off_c, 0, 62, 55
1, 789292, Note_on_c, 0, 68, 61
1, 789298, Note_on_c, 0, 65, 61
1, 789308, Note_on_c, 0, 72, 58
1, 789311, Control_c, 0, 64, 45
1, 789326, Control_c, 0, 64, 59
1, 789341, Control_c, 0, 64, 62
1, 789356, Control_c, 0, 64, 63
1, 789385, Control_c, 0, 64, 63
1, 789393, Note_on_c, 0, 77, 68
1, 789399, Note_off_c, 0, 68, 63
1, 789400, Control_c, 0, 64, 65
1, 789405, Note_off_c, 0, 65, 59
1, 789411, Note_off_c, 0, 72, 64
1, 789414, Control_c, 0, 64, 67
1, 789421, Note_off_c, 0, 53, 55
1, 789429, Control_c, 0, 64, 71
1, 789444, Control_c, 0, 64, 80
1, 789459, Control_c, 0, 64, 98
1, 789474, Control_c, 0, 64, 127
1, 789502, Note_on_c, 0, 63, 69
1, 789506, Note_off_c, 0, 77, 54
1, 789553, Note_on_c, 0, 64, 68
1, 789553, Note_off_c, 0, 63, 61
1, 789554, Note_on_c, 0, 69, 53
1, 789554, Note_on_c, 0, 73, 61
1, 789589, Note_off_c, 0, 64, 59
1, 789608, Note_off_c, 0, 69, 59
1, 789616, Note_on_c, 0, 63, 62
1, 789625, Note_on_c, 0, 77, 73
1, 789630, Note_off_c, 0, 73, 64
1, 789637, Control_c, 0, 64, 80
1, 789649, Note_off_c, 0, 63, 65
1, 789652, Control_c, 0, 64, 63
1, 789662, Note_on_c, 0, 65, 69
1, 789667, Control_c, 0, 64, 48
1, 789682, Control_c, 0, 64, 48
1, 789682, Note_off_c, 0, 77, 62
1, 789685, Note_on_c, 0, 62, 71
1, 789696, Control_c, 0, 64, 54
1, 789711, Control_c, 0, 64, 60
1, 789712, Note_on_c, 0, 74, 58
1, 789722, Note_on_c, 0, 70, 70
1, 789726, Control_c, 0, 64, 65
1, 789731, Note_off_c, 0, 65, 63
1, 789734, Note_off_c, 0, 62, 56
1, 789742, Control_c, 0, 64, 70
1, 789757, Control_c, 0, 64, 79
1, 789763, Note_on_c, 0, 77, 73
1, 789769, Note_on_c, 0, 60, 51
1, 789771, Note_off_c, 0, 74, 63
1, 789772, Control_c, 0, 64, 92
1, 789784, Note_off_c, 0, 70, 64
1, 789786, Control_c, 0, 64, 127
1, 789792, Note_on_c, 0, 58, 75
1, 789804, Note_off_c, 0, 60, 65
1, 789819, Note_on_c, 0, 66, 79
1, 789822, Note_off_c, 0, 77, 63
1, 789826, Note_off_c, 0, 58, 64
1, 789862, Note_on_c, 0, 59, 67
1, 789878, Note_off_c, 0, 66, 62
1, 789881, Note_off_c, 0, 59, 65
1, 789884, Note_on_c, 0, 73, 73
1, 789885, Note_on_c, 0, 70, 73
1, 789944, Note_on_c, 0, 78, 69
1, 789945, Note_off_c, 0, 70, 63
1, 789945, Note_off_c, 0, 73, 64
1, 789965, Note_on_c, 0, 67, 76
1, 789977, Note_off_c, 0, 78, 66
1, 789984, Note_on_c, 0, 42, 70
1, 790001, Control_c, 0, 64, 125
1, 790007, Note_off_c, 0, 42, 62
1, 790009, Note_on_c, 0, 70, 68
1, 790016, Control_c, 0, 64, 72
1, 790020, Note_on_c, 0, 74, 63
1, 790031, Control_c, 0, 64, 47
1, 790034, Note_on_c, 0, 40, 25
1, 790036, Note_off_c, 0, 67, 62
1, 790046, Control_c, 0, 64, 0
1, 790052, Note_off_c, 0, 74, 67
1, 790066, Note_on_c, 0, 79, 67
1, 790067, Note_on_c, 0, 81, 69
1, 790072, Note_off_c, 0, 70, 66
1, 790076, Note_off_c, 0, 40, 52
1, 790091, Note_off_c, 0, 81, 66
1, 790091, Note_off_c, 0, 79, 68
1, 790238, Control_c, 0, 64, 42
1, 790253, Control_c, 0, 64, 64
1, 790268, Note_on_c, 0, 36, 63
1, 790268, Control_c, 0, 64, 68
1, 790283, Control_c, 0, 64, 72
1, 790297, Note_off_c, 0, 36, 61
1, 790298, Control_c, 0, 64, 75
1, 790312, Control_c, 0, 64, 79
1, 790327, Control_c, 0, 64, 87
1, 790342, Control_c, 0, 64, 103
1, 790358, Control_c, 0, 64, 127
1, 790471, Note_on_c, 0, 63, 50
1, 790472, Note_on_c, 0, 55, 63
1, 790491, Control_c, 0, 64, 91
1, 790506, Control_c, 0, 64, 68
1, 790509, Note_off_c, 0, 63, 65
1, 790520, Control_c, 0, 64, 56
1, 790536, Control_c, 0, 64, 50
1, 790545, Note_on_c, 0, 70, 65
1, 790551, Control_c, 0, 64, 54
1, 790558, Note_on_c, 0, 67, 65
1, 790558, Note_on_c, 0, 74, 55
1, 790566, Control_c, 0, 64, 60
1, 790581, Control_c, 0, 64, 64
1, 790596, Control_c, 0, 64, 69
1, 790610, Control_c, 0, 64, 73
1, 790625, Control_c, 0, 64, 75
1, 790634, Note_off_c, 0, 70, 63
1, 790636, Note_on_c, 0, 79, 68
1, 790640, Note_off_c, 0, 67, 64
1, 790640, Control_c, 0, 64, 76
1, 790655, Control_c, 0, 64, 75
1, 790660, Note_off_c, 0, 74, 61
1, 790667, Note_off_c, 0, 55, 62
1, 790696, Note_on_c, 0, 65, 72
1, 790696, Note_on_c, 0, 77, 40
1, 790726, Note_off_c, 0, 77, 52
1, 790729, Note_off_c, 0, 79, 55
1, 790767, Note_on_c, 0, 74, 64
1, 790768, Note_on_c, 0, 71, 63
1, 790769, Note_off_c, 0, 65, 59
1, 790781, Control_c, 0, 64, 76
1, 790825, Control_c, 0, 64, 76
1, 790827, Note_on_c, 0, 65, 66
1, 790830, Note_on_c, 0, 79, 79
1, 790830, Note_off_c, 0, 74, 63
1, 790840, Control_c, 0, 64, 77
1, 790845, Note_off_c, 0, 71, 60
1, 790855, Control_c, 0, 64, 78
1, 790866, Note_on_c, 0, 67, 75
1, 790869, Control_c, 0, 64, 79
1, 790884, Control_c, 0, 64, 80
1, 790889, Note_off_c, 0, 65, 60
1, 790897, Note_on_c, 0, 64, 49
1, 790899, Control_c, 0, 64, 79
1, 790913, Note_off_c, 0, 79, 62
1, 790914, Control_c, 0, 64, 74
1, 790928, Note_on_c, 0, 63, 74
1, 790929, Control_c, 0, 64, 67
1, 790933, Note_on_c, 0, 75, 76
1, 790943, Control_c, 0, 64, 62
1, 790946, Note_on_c, 0, 72, 51
1, 790948, Note_off_c, 0, 67, 60
1, 790952, Note_off_c, 0, 64, 65
1, 790956, Note_on_c, 0, 71, 55
1, 790958, Note_off_c, 0, 63, 65
1, 790958, Control_c, 0, 64, 57
1, 790973, Control_c, 0, 64, 55
1, 790979, Note_off_c, 0, 71, 38
1, 790994, Note_on_c, 0, 79, 76
1, 791002, Note_on_c, 0, 62, 74
1, 791016, Note_off_c, 0, 72, 62
1, 791017, Note_off_c, 0, 75, 61
1, 791042, Note_on_c, 0, 68, 82
1, 791043, Note_off_c, 0, 62, 60
1, 791059, Note_off_c, 0, 79, 64
1, 791062, Control_c, 0, 64, 55
1, 791077, Control_c, 0, 64, 56
1, 791092, Control_c, 0, 64, 56
1, 791099, Note_on_c, 0, 58, 58
1, 791107, Note_on_c, 0, 72, 64
1, 791120, Note_on_c, 0, 75, 70
1, 791122, Control_c, 0, 64, 54
1, 791123, Note_off_c, 0, 68, 62
1, 791128, Note_off_c, 0, 58, 66
1, 791136, Control_c, 0, 64, 44
1, 791151, Control_c, 0, 64, 0
1, 791167, Note_on_c, 0, 57, 72
1, 791168, Note_on_c, 0, 80, 74
1, 791181, Note_off_c, 0, 75, 64
1, 791187, Note_off_c, 0, 72, 64
1, 791214, Note_on_c, 0, 69, 68
1, 791224, Note_off_c, 0, 57, 56
1, 791226, Note_off_c, 0, 80, 64
1, 791284, Control_c, 0, 64, 13
1, 791288, Note_on_c, 0, 75, 68
1, 791290, Note_on_c, 0, 72, 65
1, 791293, Note_on_c, 0, 41, 71
1, 791299, Control_c, 0, 64, 47
1, 791314, Control_c, 0, 64, 58
1, 791328, Note_off_c, 0, 69, 55
1, 791329, Control_c, 0, 64, 63
1, 791330, Note_off_c, 0, 72, 65
1, 791340, Note_off_c, 0, 41, 63
1, 791345, Control_c, 0, 64, 65
1, 791354, Note_off_c, 0, 75, 62
1, 791359, Control_c, 0, 64, 68
1, 791361, Note_on_c, 0, 81, 67
1, 791374, Control_c, 0, 64, 71
1, 791389, Control_c, 0, 64, 75
1, 791404, Control_c, 0, 64, 82
1, 791419, Control_c, 0, 64, 96
1, 791441, Control_c, 0, 64, 127
1, 791451, Note_off_c, 0, 81, 59
1, 791477, Note_on_c, 0, 69, 61
1, 791486, Control_c, 0, 64, 120
1, 791500, Control_c, 0, 64, 85
1, 791515, Control_c, 0, 64, 72
1, 791518, Note_off_c, 0, 69, 58
1, 791518, Note_on_c, 0, 65, 55
1, 791530, Control_c, 0, 64, 67
1, 791535, Note_on_c, 0, 74, 68
1, 791536, Note_on_c, 0, 56, 49
1, 791545, Control_c, 0, 64, 67
1, 791560, Control_c, 0, 64, 70
1, 791562, Note_off_c, 0, 65, 62
1, 791570, Note_on_c, 0, 59, 45
1, 791574, Control_c, 0, 64, 74
1, 791589, Control_c, 0, 64, 81
1, 791591, Note_on_c, 0, 81, 71
1, 791604, Control_c, 0, 64, 91
1, 791611, Note_off_c, 0, 74, 63
1, 791619, Control_c, 0, 64, 106
1, 791634, Control_c, 0, 64, 127
1, 791640, Note_off_c, 0, 56, 61
1, 791646, Note_off_c, 0, 81, 65
1, 791656, Note_off_c, 0, 59, 63
1, 791671, Note_on_c, 0, 74, 72
1, 791688, Note_on_c, 0, 66, 65
1, 791716, Note_off_c, 0, 66, 65
1, 791750, Note_on_c, 0, 81, 73
1, 791763, Note_off_c, 0, 74, 61
1, 791783, Note_on_c, 0, 79, 33
1, 791813, Note_off_c, 0, 79, 57
1, 791814, Note_on_c, 0, 86, 76
1, 791832, Note_off_c, 0, 81, 65
1, 791867, Note_off_c, 0, 86, 64
1, 791884, Note_on_c, 0, 81, 72
1, 791890, Note_on_c, 0, 64, 22
1, 791900, Control_c, 0, 64, 87
1, 791915, Control_c, 0, 64, 68
1, 791927, Note_off_c, 0, 64, 55
1, 791930, Control_c, 0, 64, 60
1, 791935, Note_on_c, 0, 70, 66
1, 791937, Note_on_c, 0, 62, 57
1, 791945, Control_c, 0, 64, 58
1, 791958, Note_on_c, 0, 86, 86
1, 791959, Control_c, 0, 64, 61
1, 791974, Control_c, 0, 64, 65
1, 791983, Note_off_c, 0, 81, 63
1, 791989, Control_c, 0, 64, 70
1, 792004, Control_c, 0, 64, 77
1, 792018, Control_c, 0, 64, 86
1, 792019, Note_off_c, 0, 70, 64
1, 792030, Note_on_c, 0, 93, 74
1, 792033, Control_c, 0, 64, 93
1, 792038, Note_off_c, 0, 86, 65
1, 792040, Note_on_c, 0, 91, 68
1, 792048, Control_c, 0, 64, 97
1, 792056, Note_off_c, 0, 91, 62
1, 792063, Control_c, 0, 64, 98
1, 792083, Note_off_c, 0, 93, 67
1, 792092, Control_c, 0, 64, 100
1, 792096, Note_on_c, 0, 63, 56
1, 792107, Control_c, 0, 64, 104
1, 792108, Note_on_c, 0, 86, 73
1, 792112, Note_on_c, 0, 88, 66
1, 792113, Note_off_c, 0, 62, 60
1, 792122, Control_c, 0, 64, 125
1, 792133, Note_off_c, 0, 63, 64
1, 792136, Note_on_c, 0, 71, 75
1, 792138, Control_c, 0, 64, 127
1, 792159, Note_on_c, 0, 93, 86
1, 792161, Note_off_c, 0, 88, 47
1, 792171, Note_off_c, 0, 86, 65
1, 792192, Note_off_c, 0, 71, 62
1, 792227, Note_off_c, 0, 93, 66
1, 792234, Note_on_c, 0, 98, 72
1, 792259, Note_off_c, 0, 98, 67
1, 792285, Note_on_c, 0, 93, 83
1, 792338, Control_c, 0, 64, 75
1, 792346, Note_on_c, 0, 98, 76
1, 792353, Control_c, 0, 64, 56
1, 792353, Note_on_c, 0, 69, 46
1, 792368, Control_c, 0, 64, 33
1, 792371, Note_on_c, 0, 75, 58
1, 792377, Note_on_c, 0, 67, 41
1, 792383, Control_c, 0, 64, 42
1, 792397, Control_c, 0, 64, 55
1, 792405, Note_off_c, 0, 69, 62
1, 792408, Note_off_c, 0, 93, 64
1, 792412, Control_c, 0, 64, 62
1, 792421, Note_on_c, 0, 105, 92
1, 792427, Control_c, 0, 64, 67
1, 792428, Note_off_c, 0, 67, 59
1, 792441, Control_c, 0, 64, 74
1, 792446, Note_off_c, 0, 75, 64
1, 792454, Note_off_c, 0, 98, 65
1, 792456, Control_c, 0, 64, 89
1, 792471, Control_c, 0, 64, 114
1, 792478, Note_off_c, 0, 105, 65
1, 792486, Control_c, 0, 64, 127
1, 792495, Note_on_c, 0, 93, 73
1, 792517, Note_off_c, 0, 93, 71
1, 792553, Note_on_c, 0, 76, 59
1, 792567, Note_on_c, 0, 70, 63
1, 792574, Note_on_c, 0, 96, 85
1, 792589, Note_off_c, 0, 76, 64
1, 792611, Note_off_c, 0, 70, 60
1, 792632, Note_off_c, 0, 96, 62
1, 792639, Note_on_c, 0, 91, 59
1, 792648, Note_on_c, 0, 89, 63
1, 792671, Note_off_c, 0, 89, 59
1, 792673, Note_off_c, 0, 91, 66
1, 792707, Note_on_c, 0, 84, 79
1, 792727, Note_off_c, 0, 84, 71
1, 792737, Control_c, 0, 64, 98
1, 792752, Control_c, 0, 64, 64
1, 792767, Control_c, 0, 64, 0
1, 792797, Note_on_c, 0, 75, 62
1, 792800, Note_on_c, 0, 89, 85
1, 792805, Note_on_c, 0, 69, 55
1, 792807, Note_on_c, 0, 65, 46
1, 792811, Control_c, 0, 64, 25
1, 792823, Note_on_c, 0, 81, 54
1, 792824, Note_off_c, 0, 75, 63
1, 792826, Note_off_c, 0, 69, 59
1, 792826, Control_c, 0, 64, 61
1, 792831, Note_off_c, 0, 89, 59
1, 792836, Note_off_c, 0, 65, 63
1, 792840, Control_c, 0, 64, 71
1, 792842, Note_off_c, 0, 81, 62
1, 792855, Control_c, 0, 64, 88
1, 792870, Control_c, 0, 64, 127
1, 793053, Note_on_c, 0, 82, 73
1, 793058, Note_on_c, 0, 65, 63
1, 793059, Note_on_c, 0, 74, 77
1, 793063, Note_on_c, 0, 70, 58
1, 793070, Note_on_c, 0, 58, 59
1, 793077, Note_off_c, 0, 82, 69
1, 793083, Note_off_c, 0, 70, 64
1, 793088, Note_off_c, 0, 65, 66
1, 793092, Note_off_c, 0, 74, 62
1, 793100, Note_off_c, 0, 58, 65
1, 793293, Note_on_c, 0, 77, 84
1, 793295, Note_on_c, 0, 62, 84
1, 793296, Note_on_c, 0, 57, 79
1, 793298, Note_on_c, 0, 65, 87
1, 793298, Note_on_c, 0, 69, 80
1, 793301, Note_on_c, 0, 50, 75
1, 793310, Note_on_c, 0, 74, 65
1, 793316, Note_off_c, 0, 62, 71
1, 793322, Note_off_c, 0, 69, 67
1, 793328, Note_off_c, 0, 57, 66
1, 793333, Note_off_c, 0, 77, 60
1, 793337, Note_off_c, 0, 74, 64
1, 793342, Note_off_c, 0, 65, 63
1, 793346, Note_off_c, 0, 50, 63
1, 793519, Note_on_c, 0, 57, 87
1, 793525, Note_on_c, 0, 50, 77
1, 793531, Note_on_c, 0, 58, 104
1, 793532, Note_on_c, 0, 43, 79
1, 793535, Note_on_c, 0, 70, 88
1, 793540, Note_off_c, 0, 57, 72
1, 793551, Note_off_c, 0, 50, 69
1, 793564, Note_off_c, 0, 43, 67
1, 793576, Note_off_c, 0, 70, 61
1, 793583, Note_off_c, 0, 58, 62
1, 793715, Control_c, 0, 64, 68
1, 793730, Control_c, 0, 64, 0
1, 793745, Note_on_c, 0, 51, 95
1, 793753, Note_on_c, 0, 44, 86
1, 793756, Note_on_c, 0, 59, 96
1, 793756, Note_on_c, 0, 65, 86
1, 793760, Note_on_c, 0, 53, 100
1, 793775, Control_c, 0, 64, 43
1, 793783, Note_off_c, 0, 51, 65
1, 793790, Control_c, 0, 64, 69
1, 793805, Control_c, 0, 64, 127
1, 793808, Note_off_c, 0, 44, 64
1, 793823, Note_off_c, 0, 65, 60
1, 793829, Note_off_c, 0, 59, 64
1, 793838, Note_off_c, 0, 53, 61
1, 793983, Control_c, 0, 64, 66
1, 793998, Control_c, 0, 64, 0
1, 794003, Note_on_c, 0, 41, 41
1, 794007, Note_on_c, 0, 34, 87
1, 794007, Note_on_c, 0, 46, 109
1, 794008, Note_on_c, 0, 50, 95
1, 794008, Note_on_c, 0, 58, 104
1, 794029, Note_on_c, 0, 56, 71
1, 794042, Control_c, 0, 64, 58
1, 794047, Note_off_c, 0, 50, 68
1, 794048, Note_off_c, 0, 56, 64
1, 794051, Note_off_c, 0, 41, 64
1, 794057, Control_c, 0, 64, 93
1, 794058, Note_off_c, 0, 34, 61
1, 794067, Note_off_c, 0, 58, 68
1, 794072, Control_c, 0, 64, 127
1, 794073, Note_off_c, 0, 46, 63
1, 794161, Control_c, 0, 64, 65
1, 794176, Control_c, 0, 64, 0
1, 794413, Control_c, 0, 64, 61
1, 794413, Note_on_c, 0, 62, 96
1, 794416, Note_on_c, 0, 50, 77
1, 794419, Note_on_c, 0, 74, 102
1, 794420, Note_on_c, 0, 86, 98
1, 794428, Control_c, 0, 64, 127
1, 794437, Note_off_c, 0, 62, 76
1, 794445, Note_on_c, 0, 76, 72
1, 794449, Note_off_c, 0, 50, 68
1, 794460, Note_off_c, 0, 76, 67
1, 794552, Note_off_c, 0, 86, 65
1, 794579, Note_off_c, 0, 74, 64
1, 794938, Note_on_c, 0, 50, 83
1, 794939, Note_on_c, 0, 62, 88
1, 794949, Note_on_c, 0, 38, 79
1, 794961, Note_off_c, 0, 50, 67
1, 794970, Note_on_c, 0, 26, 28
1, 794974, Note_off_c, 0, 38, 65
1, 794980, Note_off_c, 0, 62, 66
1, 795018, Note_off_c, 0, 26, 43
1, 795184, Note_on_c, 0, 48, 75
1, 795197, Note_on_c, 0, 60, 78
1, 795206, Note_on_c, 0, 51, 77
1, 795214, Control_c, 0, 64, 65
1, 795229, Control_c, 0, 64, 0
1, 795239, Note_off_c, 0, 48, 61
1, 795260, Note_on_c, 0, 62, 78
1, 795269, Note_off_c, 0, 51, 62
1, 795286, Note_off_c, 0, 60, 58
1, 795306, Note_on_c, 0, 63, 72
1, 795355, Note_off_c, 0, 62, 62
1, 795363, Note_on_c, 0, 65, 57
1, 795364, Note_off_c, 0, 63, 63
1, 795382, Note_on_c, 0, 53, 48
1, 795393, Note_on_c, 0, 50, 24
1, 795405, Note_on_c, 0, 46, 83
1, 795411, Note_on_c, 0, 58, 84
1, 795412, Note_on_c, 0, 62, 62
1, 795417, Note_off_c, 0, 53, 66
1, 795421, Note_off_c, 0, 50, 59
1, 795429, Note_off_c, 0, 46, 67
1, 795433, Note_off_c, 0, 58, 70
1, 795439, Note_off_c, 0, 62, 68
1, 795439, Note_off_c, 0, 65, 64
1, 795635, Note_on_c, 0, 67, 84
1, 795646, Note_on_c, 0, 55, 61
1, 795647, Note_off_c, 0, 55, 127
1, 795656, Note_on_c, 0, 51, 75
1, 795663, Note_on_c, 0, 39, 38
1, 795665, Note_on_c, 0, 63, 35
1, 795668, Note_off_c, 0, 67, 67
1, 795686, Note_off_c, 0, 51, 66
1, 795697, Note_off_c, 0, 63, 34
1, 795701, Note_off_c, 0, 39, 50
1, 795911, Control_c, 0, 64, 63
1, 795925, Note_on_c, 0, 79, 94
1, 795933, Control_c, 0, 64, 90
1, 795940, Note_on_c, 0, 67, 84
1, 795944, Note_on_c, 0, 55, 64
1, 795948, Control_c, 0, 64, 127
1, 795960, Note_off_c, 0, 67, 71
1, 795960, Note_off_c, 0, 79, 64
1, 796167, Note_on_c, 0, 54, 76
1, 796171, Control_c, 0, 64, 92
1, 796173, Note_on_c, 0, 66, 79
1, 796175, Note_on_c, 0, 62, 71
1, 796175, Note_on_c, 0, 69, 78
1, 796178, Note_on_c, 0, 50, 57
1, 796180, Note_off_c, 0, 55, 64
1, 796186, Control_c, 0, 64, 53
1, 796192, Note_off_c, 0, 54, 68
1, 796195, Note_off_c, 0, 62, 65
1, 796199, Note_off_c, 0, 66, 68
1, 796201, Note_off_c, 0, 50, 61
1, 796201, Control_c, 0, 64, 0
1, 796205, Note_off_c, 0, 69, 65
1, 796389, Note_on_c, 0, 70, 82
1, 796391, Note_on_c, 0, 67, 74
1, 796393, Note_on_c, 0, 58, 70
1, 796401, Note_on_c, 0, 55, 80
1, 796405, Note_on_c, 0, 50, 44
1, 796416, Note_off_c, 0, 67, 69
1, 796422, Note_on_c, 0, 43, 37
1, 796423, Note_off_c, 0, 58, 66
1, 796428, Note_off_c, 0, 55, 67
1, 796431, Note_off_c, 0, 70, 66
1, 796434, Note_off_c, 0, 50, 62
1, 796458, Note_off_c, 0, 43, 33
1, 796648, Note_on_c, 0, 74, 63
1, 796653, Note_on_c, 0, 86, 94
1, 796659, Control_c, 0, 64, 51
1, 796669, Note_on_c, 0, 62, 80
1, 796681, Control_c, 0, 64, 77
1, 796686, Note_on_c, 0, 50, 64
1, 796696, Control_c, 0, 64, 127
1, 796696, Note_off_c, 0, 74, 64
1, 796696, Note_off_c, 0, 86, 69
1, 796699, Note_off_c, 0, 62, 70
1, 796705, Note_on_c, 0, 84, 32
1, 796706, Note_off_c, 0, 84, 127
1, 796749, Note_off_c, 0, 50, 64
1, 797078, Note_on_c, 0, 26, 53
1, 797085, Note_on_c, 0, 38, 51
1, 797108, Note_on_c, 0, 50, 65
1, 797108, Note_on_c, 0, 62, 79
1, 797112, Note_off_c, 0, 26, 58
1, 797117, Note_off_c, 0, 38, 62
1, 797147, Note_off_c, 0, 50, 60
1, 797304, Control_c, 0, 64, 93
1, 797316, Note_on_c, 0, 55, 71
1, 797317, Note_on_c, 0, 43, 57
1, 797319, Control_c, 0, 64, 62
1, 797325, Note_on_c, 0, 46, 68
1, 797334, Control_c, 0, 64, 0
1, 797349, Note_off_c, 0, 43, 64
1, 797361, Note_off_c, 0, 46, 67
1, 797363, Note_off_c, 0, 62, 55
1, 797377, Note_on_c, 0, 57, 70
1, 797384, Note_off_c, 0, 55, 62
1, 797444, Note_on_c, 0, 58, 69
1, 797462, Note_off_c, 0, 57, 63
1, 797501, Note_off_c, 0, 58, 64
1, 797509, Note_on_c, 0, 60, 69
1, 797513, Note_on_c, 0, 48, 47
1, 797517, Note_on_c, 0, 53, 76
1, 797518, Note_on_c, 0, 45, 54
1, 797532, Note_on_c, 0, 57, 57
1, 797534, Note_on_c, 0, 41, 57
1, 797540, Note_off_c, 0, 60, 69
1, 797542, Note_off_c, 0, 53, 67
1, 797543, Note_off_c, 0, 48, 65
1, 797547, Note_off_c, 0, 45, 62
1, 797556, Note_off_c, 0, 57, 60
1, 797564, Note_off_c, 0, 41, 56
1, 797753, Note_on_c, 0, 58, 63
1, 797760, Note_on_c, 0, 46, 62
1, 797761, Note_on_c, 0, 62, 65
1, 797781, Note_on_c, 0, 34, 17
1, 797782, Note_off_c, 0, 58, 66
1, 797788, Note_off_c, 0, 62, 66
1, 797789, Note_off_c, 0, 46, 63
1, 797829, Note_off_c, 0, 34, 51
1, 798070, Note_on_c, 0, 55, 38
1, 798085, Note_on_c, 0, 67, 64
1, 798325, Note_on_c, 0, 49, 61
1, 798332, Note_on_c, 0, 52, 44
1, 798333, Note_on_c, 0, 64, 64
1, 798336, Note_on_c, 0, 57, 54
1, 798347, Note_off_c, 0, 55, 63
1, 798360, Note_off_c, 0, 52, 51
1, 798361, Note_off_c, 0, 49, 64
1, 798363, Note_off_c, 0, 64, 66
1, 798366, Note_off_c, 0, 57, 66
1, 798550, Note_on_c, 0, 45, 34
1, 798561, Note_on_c, 0, 54, 40
1, 798562, Note_on_c, 0, 50, 51
1, 798566, Note_off_c, 0, 67, 62
1, 798585, Note_off_c, 0, 45, 62
1, 798586, Note_off_c, 0, 50, 58
1, 798593, Note_off_c, 0, 54, 34
1, 798816, Control_c, 0, 64, 30
1, 798831, Control_c, 0, 64, 46
1, 798843, Note_on_c, 0, 74, 66
1, 798846, Control_c, 0, 64, 55
1, 798860, Control_c, 0, 64, 59
1, 798863, Note_on_c, 0, 50, 36
1, 798864, Note_on_c, 0, 62, 50
1, 798875, Control_c, 0, 64, 62
1, 798890, Control_c, 0, 64, 64
1, 798901, Note_off_c, 0, 74, 63
1, 798905, Control_c, 0, 64, 64
1, 798910, Note_off_c, 0, 62, 65
1, 798927, Control_c, 0, 64, 66
1, 798942, Control_c, 0, 64, 68
1, 798956, Control_c, 0, 64, 73
1, 798971, Note_off_c, 0, 50, 58
1, 798971, Control_c, 0, 64, 81
1, 798986, Control_c, 0, 64, 93
1, 799001, Control_c, 0, 64, 107
1, 799016, Control_c, 0, 64, 127
1, 799263, Note_on_c, 0, 62, 73
1, 799272, Note_on_c, 0, 26, 46
1, 799272, Note_on_c, 0, 50, 53
1, 799283, Note_on_c, 0, 38, 51
1, 799287, Note_off_c, 0, 62, 68
1, 799302, Note_off_c, 0, 50, 55
1, 799314, Note_off_c, 0, 26, 51
1, 799316, Note_off_c, 0, 38, 52
1, 799569, Note_on_c, 0, 51, 64
1, 799594, Control_c, 0, 64, 115
1, 799604, Note_on_c, 0, 66, 89
1, 799608, Note_on_c, 0, 63, 87
1, 799609, Control_c, 0, 64, 70
1, 799612, Note_on_c, 0, 54, 86
1, 799624, Control_c, 0, 64, 35
1, 799639, Control_c, 0, 64, 0
1, 799676, Control_c, 0, 64, 30
1, 799691, Control_c, 0, 64, 56
1, 799705, Control_c, 0, 64, 64
1, 799716, Note_off_c, 0, 51, 64
1, 799720, Control_c, 0, 64, 71
1, 799735, Control_c, 0, 64, 76
1, 799736, Note_on_c, 0, 50, 66
1, 799750, Control_c, 0, 64, 79
1, 799798, Note_off_c, 0, 50, 63
1, 799809, Control_c, 0, 64, 80
1, 799817, Note_on_c, 0, 49, 72
1, 799824, Control_c, 0, 64, 80
1, 799839, Control_c, 0, 64, 81
1, 799868, Control_c, 0, 64, 80
1, 799875, Note_off_c, 0, 49, 64
1, 799883, Control_c, 0, 64, 80
1, 799885, Note_on_c, 0, 48, 76
1, 799898, Control_c, 0, 64, 79
1, 799913, Control_c, 0, 64, 78
1, 799928, Control_c, 0, 64, 78
1, 799940, Note_on_c, 0, 47, 67
1, 799946, Note_off_c, 0, 48, 61
1, 799957, Control_c, 0, 64, 77
1, 799990, Note_on_c, 0, 46, 73
1, 799996, Note_off_c, 0, 47, 64
1, 800020, Note_off_c, 0, 46, 66
1, 800032, Control_c, 0, 64, 77
1, 800046, Control_c, 0, 64, 76
1, 800058, Note_on_c, 0, 44, 78
1, 800061, Control_c, 0, 64, 74
1, 800067, Note_off_c, 0, 54, 61
1, 800076, Control_c, 0, 64, 73
1, 800091, Control_c, 0, 64, 70
1, 800105, Control_c, 0, 64, 69
1, 800118, Note_off_c, 0, 44, 63
1, 800121, Control_c, 0, 64, 68
1, 800136, Control_c, 0, 64, 68
1, 800141, Note_on_c, 0, 39, 66
1, 800166, Control_c, 0, 64, 67
1, 800181, Note_on_c, 0, 38, 69
1, 800205, Note_off_c, 0, 39, 62
1, 800214, Note_off_c, 0, 38, 65
1, 800289, Note_on_c, 0, 37, 69
1, 800295, Note_on_c, 0, 58, 86
1, 800299, Control_c, 0, 64, 67
1, 800314, Control_c, 0, 64, 66
1, 800328, Control_c, 0, 64, 66
1, 800343, Control_c, 0, 64, 65
1, 800358, Note_off_c, 0, 37, 61
1, 800361, Note_on_c, 0, 36, 74
1, 800388, Control_c, 0, 64, 65
1, 800410, Note_off_c, 0, 36, 61
1, 800433, Note_on_c, 0, 35, 66
1, 800440, Control_c, 0, 64, 64
1, 800455, Note_off_c, 0, 63, 54
1, 800455, Control_c, 0, 64, 64
1, 800470, Control_c, 0, 64, 63
1, 800495, Note_off_c, 0, 35, 62
1, 800503, Note_on_c, 0, 34, 77
1, 800507, Note_off_c, 0, 66, 58
1, 800514, Control_c, 0, 64, 63
1, 800539, Note_on_c, 0, 57, 85
1, 800543, Control_c, 0, 64, 62
1, 800558, Control_c, 0, 64, 62
1, 800565, Note_off_c, 0, 58, 64
1, 800573, Control_c, 0, 64, 61
1, 800581, Note_on_c, 0, 30, 61
1, 800585, Note_off_c, 0, 34, 61
1, 800588, Control_c, 0, 64, 60
1, 800602, Control_c, 0, 64, 60
1, 800622, Note_on_c, 0, 27, 67
1, 800646, Note_off_c, 0, 30, 61
1, 800647, Control_c, 0, 64, 59
1, 800676, Control_c, 0, 64, 59
1, 800691, Control_c, 0, 64, 58
1, 800699, Note_on_c, 0, 37, 62
1, 800704, Note_off_c, 0, 27, 62
1, 800706, Control_c, 0, 64, 58
1, 800753, Note_off_c, 0, 37, 61
1, 800755, Note_on_c, 0, 56, 84
1, 800768, Note_on_c, 0, 36, 66
1, 800780, Control_c, 0, 64, 57
1, 800817, Note_off_c, 0, 36, 61
1, 800820, Note_off_c, 0, 57, 52
1, 800840, Control_c, 0, 64, 57
1, 800847, Note_on_c, 0, 35, 57
1, 800869, Control_c, 0, 64, 56
1, 800902, Note_off_c, 0, 35, 62
1, 800914, Control_c, 0, 64, 56
1, 800915, Note_on_c, 0, 34, 69
1, 800929, Control_c, 0, 64, 55
1, 800944, Control_c, 0, 64, 55
1, 800959, Control_c, 0, 64, 54
1, 800983, Note_on_c, 0, 54, 70
1, 800989, Control_c, 0, 64, 54
1, 800992, Note_off_c, 0, 34, 58
1, 801004, Note_on_c, 0, 30, 37
1, 801046, Note_off_c, 0, 30, 61
1, 801050, Note_on_c, 0, 27, 58
1, 801061, Note_off_c, 0, 56, 61
1, 801092, Control_c, 0, 64, 54
1, 801137, Control_c, 0, 64, 55
1, 801148, Note_off_c, 0, 27, 60
1, 801151, Control_c, 0, 64, 55
1, 801156, Note_on_c, 0, 37, 59
1, 801174, Control_c, 0, 64, 56
1, 801233, Note_off_c, 0, 37, 57
1, 801233, Control_c, 0, 64, 56
1, 801248, Control_c, 0, 64, 57
1, 801254, Note_on_c, 0, 36, 53
1, 801263, Control_c, 0, 64, 58
1, 801277, Control_c, 0, 64, 58
1, 801281, Note_on_c, 0, 51, 66
1, 801326, Note_off_c, 0, 36, 61
1, 801351, Note_off_c, 0, 54, 53
1, 801351, Control_c, 0, 64, 58
1, 801362, Note_on_c, 0, 35, 50
1, 801381, Control_c, 0, 64, 57
1, 801427, Note_off_c, 0, 35, 61
1, 801452, Note_on_c, 0, 34, 62
1, 801509, Note_on_c, 0, 30, 37
1, 801524, Note_off_c, 0, 34, 47
1, 801589, Note_on_c, 0, 27, 52
1, 801589, Note_on_c, 0, 46, 51
1, 801605, Note_off_c, 0, 30, 46
1, 801617, Note_off_c, 0, 51, 64
1, 801791, Note_on_c, 0, 37, 57
1, 801794, Note_off_c, 0, 27, 59
1, 801827, Control_c, 0, 64, 57
1, 801835, Note_off_c, 0, 37, 61
1, 801841, Control_c, 0, 64, 55
1, 801856, Control_c, 0, 64, 49
1, 801864, Note_off_c, 0, 46, 62
1, 801871, Control_c, 0, 64, 42
1, 801886, Control_c, 0, 64, 32
1, 801901, Control_c, 0, 64, 24
1, 801923, Control_c, 0, 64, 23
1, 801937, Note_on_c, 0, 45, 40
1, 801968, Control_c, 0, 64, 23
1, 801997, Control_c, 0, 64, 24
1, 802012, Control_c, 0, 64, 24
1, 802027, Control_c, 0, 64, 25
1, 802042, Control_c, 0, 64, 25
1, 802043, Note_off_c, 0, 45, 61
1, 802071, Control_c, 0, 64, 22
1, 802073, Note_on_c, 0, 36, 45
1, 802078, Note_on_c, 0, 44, 54
1, 802086, Control_c, 0, 64, 0
1, 802107, Note_off_c, 0, 36, 52
1, 802117, Note_off_c, 0, 44, 62
1, 802200, Note_on_c, 0, 43, 34
1, 802249, Note_off_c, 0, 43, 61
1, 802280, Note_on_c, 0, 34, 57
1, 802286, Note_on_c, 0, 42, 54
1, 802312, Note_off_c, 0, 34, 61
1, 802357, Note_off_c, 0, 42, 57
1, 802397, Note_on_c, 0, 39, 41
1, 802503, Note_off_c, 0, 39, 59
1, 802508, Note_on_c, 0, 30, 51
1, 802544, Note_off_c, 0, 30, 61
1, 802771, Note_on_c, 0, 29, 56
1, 802806, Note_off_c, 0, 29, 52
1, 803069, Note_on_c, 0, 54, 57
1, 803078, Note_on_c, 0, 57, 36
1, 803078, Note_on_c, 0, 66, 46
1, 803103, Note_off_c, 0, 54, 66
1, 803108, Note_on_c, 0, 62, 15
1, 803110, Note_off_c, 0, 57, 48
1, 803130, Note_off_c, 0, 66, 58
1, 803136, Note_off_c, 0, 62, 43
1, 803242, Note_on_c, 0, 67, 60
1, 803257, Note_on_c, 0, 64, 49
1, 803273, Note_off_c, 0, 67, 65
1, 803287, Note_off_c, 0, 64, 64
1, 803293, Note_on_c, 0, 57, 58
1, 803311, Note_on_c, 0, 54, 50
1, 803324, Note_on_c, 0, 69, 75
1, 803325, Note_off_c, 0, 57, 66
1, 803328, Note_on_c, 0, 45, 59
1, 803332, Note_on_c, 0, 66, 59
1, 803338, Control_c, 0, 64, 48
1, 803340, Note_off_c, 0, 54, 63
1, 803353, Note_on_c, 0, 62, 46
1, 803353, Control_c, 0, 64, 60
1, 803356, Note_off_c, 0, 45, 65
1, 803362, Poly_aftertouch_c, 0, 50, 0
1, 803368, Control_c, 0, 64, 62
1, 803383, Control_c, 0, 64, 64
1, 803398, Control_c, 0, 64, 65
1, 803420, Control_c, 0, 64, 67
1, 803435, Control_c, 0, 64, 71
1, 803450, Control_c, 0, 64, 80
1, 803465, Control_c, 0, 64, 94
1, 803480, Control_c, 0, 64, 127
1, 803549, Note_off_c, 0, 69, 60
1, 803555, Note_off_c, 0, 66, 60
1, 803610, Note_on_c, 0, 38, 42
1, 803612, Note_on_c, 0, 36, 32
1, 803645, Note_off_c, 0, 62, 59
1, 803646, Note_off_c, 0, 38, 51
1, 803654, Note_off_c, 0, 36, 51
1, 803806, Control_c, 0, 64, 79
1, 803820, Control_c, 0, 64, 57
1, 803835, Control_c, 0, 64, 28
1, 803850, Control_c, 0, 64, 36
1, 803865, Control_c, 0, 64, 52
1, 803868, Note_on_c, 0, 70, 69
1, 803880, Control_c, 0, 64, 63
1, 803882, Note_on_c, 0, 65, 64
1, 803885, Note_on_c, 0, 56, 66
1, 803888, Note_on_c, 0, 53, 50
1, 803889, Note_on_c, 0, 58, 57
1, 803890, Note_on_c, 0, 44, 57
1, 803894, Control_c, 0, 64, 71
1, 803909, Control_c, 0, 64, 101
1, 803912, Note_on_c, 0, 62, 32
1, 803915, Note_off_c, 0, 65, 64
1, 803917, Note_off_c, 0, 53, 61
1, 803923, Note_off_c, 0, 56, 62
1, 803924, Control_c, 0, 64, 127
1, 803925, Note_off_c, 0, 58, 64
1, 803931, Note_off_c, 0, 70, 62
1, 803948, Note_off_c, 0, 62, 44
1, 803949, Note_off_c, 0, 44, 60
1, 803950, Poly_aftertouch_c, 0, 50, 127
1, 803985, Poly_aftertouch_c, 0, 50, 0
1, 804101, Control_c, 0, 64, 105
1, 804117, Note_on_c, 0, 55, 72
1, 804117, Control_c, 0, 64, 69
1, 804123, Note_on_c, 0, 64, 61
1, 804125, Note_on_c, 0, 52, 48
1, 804129, Note_on_c, 0, 60, 60
1, 804132, Control_c, 0, 64, 38
1, 804147, Note_off_c, 0, 55, 63
1, 804147, Control_c, 0, 64, 0
1, 804152, Note_off_c, 0, 52, 58
1, 804157, Note_off_c, 0, 60, 67
1, 804158, Note_off_c, 0, 64, 64
1, 804282, Note_on_c, 0, 65, 69
1, 804291, Note_on_c, 0, 62, 59
1, 804311, Note_off_c, 0, 65, 66
1, 804321, Note_off_c, 0, 62, 65
1, 804323, Note_on_c, 0, 55, 57
1, 804359, Note_on_c, 0, 43, 60
1, 804360, Note_on_c, 0, 67, 75
1, 804362, Note_on_c, 0, 64, 72
1, 804368, Note_on_c, 0, 60, 65
1, 804370, Note_off_c, 0, 55, 62
1, 804391, Control_c, 0, 64, 59
1, 804402, Note_off_c, 0, 43, 64
1, 804406, Control_c, 0, 64, 71
1, 804421, Control_c, 0, 64, 80
1, 804436, Control_c, 0, 64, 89
1, 804450, Control_c, 0, 64, 95
1, 804465, Control_c, 0, 64, 102
1, 804480, Control_c, 0, 64, 127
1, 804539, Note_off_c, 0, 67, 57
1, 804620, Note_on_c, 0, 38, 62
1, 804628, Note_off_c, 0, 64, 63
1, 804649, Note_off_c, 0, 38, 63
1, 804672, Note_off_c, 0, 60, 63
1, 804821, Control_c, 0, 64, 101
1, 804836, Control_c, 0, 64, 66
1, 804850, Control_c, 0, 64, 35
1, 804865, Control_c, 0, 64, 0
1, 804878, Note_on_c, 0, 69, 64
1, 804880, Control_c, 0, 64, 20
1, 804881, Note_on_c, 0, 54, 69
1, 804885, Note_on_c, 0, 51, 63
1, 804886, Note_on_c, 0, 63, 66
1, 804891, Note_on_c, 0, 42, 49
1, 804894, Control_c, 0, 64, 47
1, 804900, Note_on_c, 0, 60, 47
1, 804903, Note_on_c, 0, 57, 51
1, 804918, Note_off_c, 0, 69, 66
1, 804918, Control_c, 0, 64, 62
1, 804927, Note_off_c, 0, 54, 60
1, 804928, Note_off_c, 0, 63, 64
1, 804933, Note_off_c, 0, 51, 64
1, 804933, Control_c, 0, 64, 71
1, 804939, Note_off_c, 0, 42, 64
1, 804945, Note_off_c, 0, 57, 65
1, 804947, Note_off_c, 0, 60, 63
1, 804947, Control_c, 0, 64, 88
1, 804962, Control_c, 0, 64, 127
1, 805117, Note_on_c, 0, 53, 55
1, 805118, Note_on_c, 0, 62, 61
1, 805119, Note_on_c, 0, 50, 58
1, 805120, Note_on_c, 0, 46, 60
1, 805123, Note_on_c, 0, 58, 74
1, 805125, Control_c, 0, 64, 76
1, 805140, Control_c, 0, 64, 55
1, 805141, Note_off_c, 0, 53, 58
1, 805142, Note_off_c, 0, 50, 61
1, 805150, Note_off_c, 0, 46, 63
1, 805155, Control_c, 0, 64, 0
1, 805158, Note_off_c, 0, 62, 61
1, 805181, Note_off_c, 0, 58, 56
1, 805299, Note_on_c, 0, 54, 62
1, 805308, Note_on_c, 0, 63, 45
1, 805313, Note_on_c, 0, 60, 51
1, 805321, Note_off_c, 0, 54, 61
1, 805333, Note_off_c, 0, 63, 58
1, 805337, Note_on_c, 0, 50, 10
1, 805350, Note_on_c, 0, 65, 72
1, 805362, Note_on_c, 0, 62, 74
1, 805369, Note_off_c, 0, 60, 60
1, 805373, Note_on_c, 0, 46, 70
1, 805388, Note_off_c, 0, 50, 64
1, 805390, Note_off_c, 0, 62, 67
1, 805401, Note_off_c, 0, 65, 64
1, 805410, Note_off_c, 0, 46, 63
1, 805608, Note_on_c, 0, 49, 64
1, 805608, Note_on_c, 0, 52, 61
1, 805608, Note_on_c, 0, 61, 70
1, 805613, Note_on_c, 0, 67, 62
1, 805615, Note_on_c, 0, 58, 59
1, 805630, Note_off_c, 0, 52, 63
1, 805637, Note_off_c, 0, 61, 67
1, 805642, Note_off_c, 0, 58, 63
1, 805645, Note_off_c, 0, 67, 66
1, 805647, Note_off_c, 0, 49, 64
1, 805937, Note_on_c, 0, 67, 57
1, 805943, Note_on_c, 0, 60, 48
1, 805949, Note_on_c, 0, 39, 33
1, 805955, Note_on_c, 0, 45, 24
1, 805957, Note_on_c, 0, 51, 35
1, 805970, Note_on_c, 0, 55, 45
1, 805976, Note_on_c, 0, 57, 45
1, 805979, Control_c, 0, 64, 48
1, 805994, Control_c, 0, 64, 54
1, 806009, Control_c, 0, 64, 57
1, 806023, Control_c, 0, 64, 59
1, 806038, Control_c, 0, 64, 61
1, 806053, Control_c, 0, 64, 64
1, 806068, Control_c, 0, 64, 66
1, 806083, Control_c, 0, 64, 69
1, 806097, Control_c, 0, 64, 73
1, 806112, Control_c, 0, 64, 77
1, 806120, Note_off_c, 0, 45, 57
1, 806127, Control_c, 0, 64, 82
1, 806137, Note_off_c, 0, 57, 59
1, 806141, Note_off_c, 0, 55, 62
1, 806141, Control_c, 0, 64, 87
1, 806156, Control_c, 0, 64, 92
1, 806171, Control_c, 0, 64, 98
1, 806173, Note_off_c, 0, 51, 58
1, 806178, Note_off_c, 0, 60, 65
1, 806181, Note_off_c, 0, 67, 64
1, 806186, Control_c, 0, 64, 104
1, 806201, Control_c, 0, 64, 114
1, 806202, Note_off_c, 0, 39, 46
1, 806215, Control_c, 0, 64, 127
1, 806385, Note_on_c, 0, 38, 45
1, 806393, Control_c, 0, 64, 82
1, 806408, Control_c, 0, 64, 65
1, 806430, Control_c, 0, 64, 50
1, 806445, Control_c, 0, 64, 48
1, 806453, Note_off_c, 0, 38, 61
1, 806460, Control_c, 0, 64, 52
1, 806469, Note_on_c, 0, 45, 42
1, 806475, Control_c, 0, 64, 58
1, 806490, Control_c, 0, 64, 62
1, 806493, Note_on_c, 0, 69, 71
1, 806499, Note_on_c, 0, 57, 63
1, 806505, Control_c, 0, 64, 66
1, 806506, Note_off_c, 0, 45, 64
1, 806517, Note_on_c, 0, 66, 61
1, 806520, Note_on_c, 0, 62, 45
1, 806521, Control_c, 0, 64, 71
1, 806521, Note_on_c, 0, 54, 67
1, 806527, Note_off_c, 0, 57, 67
1, 806536, Control_c, 0, 64, 79
1, 806545, Note_off_c, 0, 69, 63
1, 806549, Note_off_c, 0, 62, 63
1, 806550, Note_off_c, 0, 66, 65
1, 806551, Control_c, 0, 64, 92
1, 806554, Note_off_c, 0, 54, 66
1, 806565, Control_c, 0, 64, 127
1, 806688, Note_on_c, 0, 61, 12
1, 806753, Note_off_c, 0, 61, 40
1, 806798, Note_on_c, 0, 63, 65
1, 806817, Control_c, 0, 64, 104
1, 806831, Control_c, 0, 64, 68
1, 806838, Note_on_c, 0, 78, 89
1, 806843, Note_on_c, 0, 66, 85
1, 806845, Note_on_c, 0, 75, 90
1, 806846, Control_c, 0, 64, 41
1, 806861, Control_c, 0, 64, 0
1, 806876, Control_c, 0, 64, 36
1, 806891, Control_c, 0, 64, 59
1, 806906, Control_c, 0, 64, 69
1, 806912, Note_off_c, 0, 63, 63
1, 806916, Note_on_c, 0, 62, 75
1, 806920, Control_c, 0, 64, 86
1, 806935, Control_c, 0, 64, 127
1, 806989, Note_off_c, 0, 62, 62
1, 807010, Note_on_c, 0, 61, 75
1, 807034, Note_off_c, 0, 78, 62
1, 807067, Note_off_c, 0, 61, 62
1, 807072, Note_off_c, 0, 75, 63
1, 807077, Note_on_c, 0, 60, 78
1, 807088, Note_off_c, 0, 66, 62
1, 807129, Note_on_c, 0, 59, 71
1, 807132, Note_off_c, 0, 60, 59
1, 807204, Note_off_c, 0, 59, 61
1, 807208, Note_on_c, 0, 58, 81
1, 807257, Note_off_c, 0, 58, 63
1, 807312, Control_c, 0, 64, 95
1, 807315, Note_on_c, 0, 57, 87
1, 807329, Control_c, 0, 64, 62
1, 807329, Note_on_c, 0, 66, 75
1, 807332, Note_on_c, 0, 62, 74
1, 807338, Note_on_c, 0, 45, 65
1, 807339, Note_off_c, 0, 57, 70
1, 807343, Control_c, 0, 64, 0
1, 807356, Note_off_c, 0, 62, 70
1, 807362, Note_off_c, 0, 45, 61
1, 807382, Note_off_c, 0, 66, 62
1, 807524, Note_on_c, 0, 67, 67
1, 807531, Note_on_c, 0, 64, 65
1, 807551, Note_off_c, 0, 67, 67
1, 807559, Note_on_c, 0, 57, 52
1, 807559, Note_off_c, 0, 64, 67
1, 807565, Note_on_c, 0, 54, 44
1, 807594, Note_on_c, 0, 69, 89
1, 807600, Note_on_c, 0, 45, 68
1, 807607, Note_on_c, 0, 66, 75
1, 807611, Note_on_c, 0, 62, 70
1, 807612, Note_off_c, 0, 57, 64
1, 807614, Note_off_c, 0, 54, 65
1, 807642, Note_off_c, 0, 45, 65
1, 807654, Control_c, 0, 64, 57
1, 807669, Control_c, 0, 64, 65
1, 807684, Control_c, 0, 64, 68
1, 807699, Control_c, 0, 64, 70
1, 807714, Control_c, 0, 64, 72
1, 807729, Control_c, 0, 64, 78
1, 807743, Control_c, 0, 64, 88
1, 807758, Control_c, 0, 64, 112
1, 807773, Note_off_c, 0, 69, 62
1, 807773, Control_c, 0, 64, 127
1, 807793, Note_off_c, 0, 62, 61
1, 807854, Note_off_c, 0, 66, 64
1, 807857, Note_on_c, 0, 38, 68
1, 807887, Note_off_c, 0, 38, 64
1, 808072, Note_on_c, 0, 59, 69
1, 808119, Note_on_c, 0, 61, 61
1, 808134, Note_on_c, 0, 65, 58
1, 808137, Control_c, 0, 64, 74
1, 808152, Control_c, 0, 64, 50
1, 808158, Note_off_c, 0, 59, 63
1, 808166, Control_c, 0, 64, 0
1, 808170, Note_on_c, 0, 44, 53
1, 808174, Note_on_c, 0, 56, 62
1, 808178, Note_on_c, 0, 49, 46
1, 808185, Note_on_c, 0, 71, 81
1, 808186, Note_on_c, 0, 53, 41
1, 808196, Control_c, 0, 64, 25
1, 808211, Control_c, 0, 64, 57
1, 808219, Note_off_c, 0, 65, 65
1, 808224, Note_off_c, 0, 61, 64
1, 808225, Control_c, 0, 64, 67
1, 808236, Note_off_c, 0, 49, 62
1, 808236, Note_off_c, 0, 71, 65
1, 808237, Note_off_c, 0, 53, 63
1, 808240, Control_c, 0, 64, 82
1, 808255, Control_c, 0, 64, 127
1, 808256, Note_off_c, 0, 44, 62
1, 808259, Note_off_c, 0, 56, 63
1, 808447, Control_c, 0, 64, 76
1, 808451, Note_on_c, 0, 55, 78
1, 808456, Note_on_c, 0, 64, 71
1, 808462, Note_on_c, 0, 52, 55
1, 808462, Control_c, 0, 64, 51
1, 808468, Note_on_c, 0, 60, 54
1, 808477, Control_c, 0, 64, 0
1, 808478, Note_off_c, 0, 55, 67
1, 808486, Note_off_c, 0, 52, 63
1, 808486, Note_off_c, 0, 64, 64
1, 808494, Note_off_c, 0, 60, 64
1, 808622, Note_on_c, 0, 65, 68
1, 808637, Note_on_c, 0, 62, 48
1, 808650, Note_off_c, 0, 65, 66
1, 808662, Note_on_c, 0, 55, 56
1, 808669, Note_off_c, 0, 62, 57
1, 808701, Note_on_c, 0, 67, 76
1, 808705, Note_on_c, 0, 64, 76
1, 808706, Note_on_c, 0, 43, 66
1, 808712, Note_on_c, 0, 60, 62
1, 808731, Note_off_c, 0, 55, 63
1, 808736, Control_c, 0, 64, 61
1, 808751, Control_c, 0, 64, 73
1, 808762, Note_off_c, 0, 43, 63
1, 808766, Control_c, 0, 64, 85
1, 808781, Control_c, 0, 64, 94
1, 808796, Control_c, 0, 64, 101
1, 808810, Control_c, 0, 64, 110
1, 808825, Control_c, 0, 64, 127
1, 808912, Note_off_c, 0, 67, 60
1, 808948, Note_off_c, 0, 64, 63
1, 808951, Note_off_c, 0, 60, 63
1, 808957, Note_on_c, 0, 38, 57
1, 808986, Note_off_c, 0, 38, 55
1, 809195, Control_c, 0, 64, 85
1, 809207, Note_on_c, 0, 69, 70
1, 809210, Control_c, 0, 64, 55
1, 809212, Note_on_c, 0, 63, 68
1, 809225, Control_c, 0, 64, 0
1, 809227, Note_on_c, 0, 42, 62
1, 809228, Note_on_c, 0, 54, 68
1, 809231, Note_on_c, 0, 57, 66
1, 809231, Note_on_c, 0, 51, 58
1, 809243, Note_on_c, 0, 48, 38
1, 809258, Note_on_c, 0, 60, 46
1, 809270, Control_c, 0, 64, 28
1, 809273, Note_off_c, 0, 48, 51
1, 809279, Note_off_c, 0, 51, 62
1, 809285, Control_c, 0, 64, 59
1, 809290, Note_off_c, 0, 69, 64
1, 809297, Note_off_c, 0, 42, 63
1, 809300, Control_c, 0, 64, 68
1, 809301, Note_off_c, 0, 63, 62
1, 809303, Note_off_c, 0, 54, 65
1, 809306, Note_off_c, 0, 60, 59
1, 809314, Control_c, 0, 64, 88
1, 809314, Note_off_c, 0, 57, 63
1, 809329, Control_c, 0, 64, 127
1, 809475, Note_on_c, 0, 53, 67
1, 809476, Note_on_c, 0, 50, 67
1, 809477, Note_on_c, 0, 62, 72
1, 809481, Note_on_c, 0, 46, 68
1, 809484, Control_c, 0, 64, 76
1, 809487, Note_on_c, 0, 58, 80
1, 809496, Note_off_c, 0, 53, 63
1, 809499, Control_c, 0, 64, 29
1, 809506, Note_off_c, 0, 50, 66
1, 809514, Note_off_c, 0, 46, 66
1, 809514, Control_c, 0, 64, 0
1, 809522, Note_off_c, 0, 58, 61
1, 809541, Note_off_c, 0, 62, 58
1, 809651, Note_on_c, 0, 54, 78
1, 809655, Note_on_c, 0, 58, 70
1, 809657, Note_on_c, 0, 63, 56
1, 809666, Note_on_c, 0, 60, 54
1, 809673, Note_off_c, 0, 54, 69
1, 809689, Note_off_c, 0, 58, 68
1, 809690, Note_off_c, 0, 63, 65
1, 809720, Note_on_c, 0, 65, 83
1, 809720, Note_on_c, 0, 46, 61
1, 809721, Note_on_c, 0, 62, 78
1, 809732, Note_on_c, 0, 53, 62
1, 809738, Note_on_c, 0, 50, 45
1, 809739, Note_off_c, 0, 60, 56
1, 809748, Note_on_c, 0, 41, 55
1, 809750, Note_on_c, 0, 52, 51
1, 809755, Note_off_c, 0, 53, 61
1, 809761, Note_off_c, 0, 65, 59
1, 809768, Note_off_c, 0, 50, 51
1, 809771, Note_off_c, 0, 62, 63
1, 809771, Note_off_c, 0, 46, 62
1, 809776, Note_off_c, 0, 52, 38
1, 809779, Note_off_c, 0, 41, 54
1, 809967, Note_on_c, 0, 67, 76
1, 809969, Note_on_c, 0, 58, 79
1, 809971, Note_on_c, 0, 49, 69
1, 809972, Note_on_c, 0, 61, 77
1, 809987, Note_on_c, 0, 52, 49
1, 809988, Note_off_c, 0, 52, 127
1, 809992, Note_off_c, 0, 58, 67
1, 809994, Note_off_c, 0, 61, 70
1, 809997, Note_off_c, 0, 49, 66
1, 810000, Note_off_c, 0, 67, 65
1, 810006, Note_on_c, 0, 45, 8
1, 810007, Note_off_c, 0, 45, 127
1, 810332, Note_on_c, 0, 45, 27
1, 810349, Note_on_c, 0, 51, 51
1, 810351, Note_on_c, 0, 39, 41
1, 810365, Note_on_c, 0, 67, 82
1, 810383, Note_on_c, 0, 60, 62
1, 810384, Note_on_c, 0, 55, 62
1, 810388, Note_on_c, 0, 57, 67
1, 810426, Control_c, 0, 64, 33
1, 810441, Control_c, 0, 64, 49
1, 810456, Control_c, 0, 64, 58
1, 810467, Note_off_c, 0, 45, 60
1, 810470, Control_c, 0, 64, 64
1, 810485, Control_c, 0, 64, 69
1, 810497, Note_off_c, 0, 57, 63
1, 810500, Control_c, 0, 64, 78
1, 810501, Note_off_c, 0, 55, 63
1, 810516, Control_c, 0, 64, 92
1, 810531, Control_c, 0, 64, 112
1, 810538, Note_off_c, 0, 39, 39
1, 810541, Note_off_c, 0, 67, 64
1, 810542, Note_off_c, 0, 51, 64
1, 810543, Note_off_c, 0, 60, 63
1, 810546, Control_c, 0, 64, 127
1, 810695, Note_on_c, 0, 38, 76
1, 810720, Note_off_c, 0, 38, 65
1, 810967, Control_c, 0, 64, 112
1, 810982, Control_c, 0, 64, 66
1, 810983, Note_on_c, 0, 62, 65
1, 810997, Control_c, 0, 64, 0
1, 811000, Note_on_c, 0, 66, 69
1, 811030, Note_on_c, 0, 78, 82
1, 811043, Note_on_c, 0, 74, 73
1, 811056, Control_c, 0, 64, 47
1, 811071, Control_c, 0, 64, 62
1, 811085, Control_c, 0, 64, 70
1, 811100, Control_c, 0, 64, 78
1, 811115, Control_c, 0, 64, 88
1, 811130, Control_c, 0, 64, 101
1, 811132, Note_on_c, 0, 73, 76
1, 811132, Note_off_c, 0, 62, 64
1, 811145, Control_c, 0, 64, 127
1, 811178, Note_off_c, 0, 66, 64
1, 811210, Note_on_c, 0, 72, 76
1, 811221, Note_off_c, 0, 74, 61
1, 811231, Note_off_c, 0, 78, 63
1, 811257, Note_off_c, 0, 72, 66
1, 811265, Note_off_c, 0, 73, 63
1, 811285, Note_on_c, 0, 61, 59
1, 811287, Note_on_c, 0, 76, 85
1, 811290, Note_on_c, 0, 79, 79
1, 811296, Note_on_c, 0, 64, 66
1, 811315, Note_on_c, 0, 67, 66
1, 811318, Note_off_c, 0, 61, 64
1, 811328, Note_off_c, 0, 64, 65
1, 811344, Note_off_c, 0, 76, 65
1, 811365, Note_on_c, 0, 71, 88
1, 811371, Note_off_c, 0, 79, 63
1, 811372, Note_off_c, 0, 67, 62
1, 811443, Note_on_c, 0, 70, 72
1, 811467, Note_off_c, 0, 71, 61
1, 811484, Note_on_c, 0, 69, 82
1, 811487, Control_c, 0, 64, 76
1, 811501, Control_c, 0, 64, 54
1, 811506, Note_on_c, 0, 78, 87
1, 811509, Note_on_c, 0, 63, 45
1, 811509, Note_on_c, 0, 81, 71
1, 811511, Note_on_c, 0, 75, 74
1, 811515, Note_off_c, 0, 70, 60
1, 811516, Control_c, 0, 64, 0
1, 811546, Note_off_c, 0, 69, 63
1, 811548, Note_off_c, 0, 63, 64
1, 811560, Control_c, 0, 64, 38
1, 811568, Note_off_c, 0, 81, 62
1, 811569, Note_off_c, 0, 75, 58
1, 811570, Note_on_c, 0, 68, 75
1, 811575, Control_c, 0, 64, 58
1, 811590, Control_c, 0, 64, 64
1, 811605, Control_c, 0, 64, 68
1, 811620, Control_c, 0, 64, 72
1, 811624, Note_off_c, 0, 68, 61
1, 811634, Control_c, 0, 64, 75
1, 811648, Note_on_c, 0, 67, 72
1, 811649, Control_c, 0, 64, 79
1, 811672, Control_c, 0, 64, 86
1, 811677, Note_on_c, 0, 58, 64
1, 811687, Control_c, 0, 64, 100
1, 811690, Note_off_c, 0, 67, 62
1, 811702, Control_c, 0, 64, 127
1, 811713, Note_on_c, 0, 76, 7
1, 811724, Note_on_c, 0, 70, 78
1, 811732, Note_on_c, 0, 82, 83
1, 811735, Note_off_c, 0, 58, 38
1, 811747, Note_on_c, 0, 73, 87
1, 811750, Note_off_c, 0, 76, 44
1, 811756, Note_off_c, 0, 78, 61
1, 811785, Note_on_c, 0, 66, 70
1, 811792, Poly_aftertouch_c, 0, 79, 0
1, 811801, Note_off_c, 0, 82, 64
1, 811802, Poly_aftertouch_c, 0, 57, 0
1, 811812, Note_off_c, 0, 70, 62
1, 811815, Note_on_c, 0, 62, 67
1, 811840, Note_off_c, 0, 66, 63
1, 811843, Note_off_c, 0, 62, 65
1, 811956, Note_on_c, 0, 38, 70
1, 811968, Note_on_c, 0, 78, 87
1, 811982, Note_on_c, 0, 74, 78
1, 811987, Note_off_c, 0, 38, 61
1, 811988, Note_off_c, 0, 73, 63
1, 811994, Note_on_c, 0, 75, 64
1, 812067, Note_on_c, 0, 73, 81
1, 812135, Note_off_c, 0, 78, 63
1, 812137, Note_off_c, 0, 74, 58
1, 812138, Note_on_c, 0, 72, 67
1, 812144, Note_off_c, 0, 75, 18
1, 812164, Note_on_c, 0, 67, 71
1, 812168, Note_on_c, 0, 61, 61
1, 812176, Control_c, 0, 64, 73
1, 812179, Note_on_c, 0, 64, 52
1, 812191, Control_c, 0, 64, 54
1, 812193, Note_on_c, 0, 79, 84
1, 812196, Note_on_c, 0, 76, 81
1, 812202, Note_off_c, 0, 61, 65
1, 812206, Control_c, 0, 64, 50
1, 812209, Note_off_c, 0, 72, 65
1, 812210, Note_off_c, 0, 73, 59
1, 812220, Note_off_c, 0, 64, 65
1, 812221, Control_c, 0, 64, 55
1, 812236, Control_c, 0, 64, 61
1, 812250, Control_c, 0, 64, 66
1, 812254, Note_off_c, 0, 67, 60
1, 812265, Control_c, 0, 64, 74
1, 812269, Note_off_c, 0, 76, 65
1, 812280, Control_c, 0, 64, 89
1, 812294, Note_on_c, 0, 71, 84
1, 812295, Note_off_c, 0, 79, 62
1, 812295, Control_c, 0, 64, 119
1, 812310, Control_c, 0, 64, 127
1, 812313, Note_on_c, 0, 63, 52
1, 812358, Note_on_c, 0, 69, 78
1, 812371, Note_on_c, 0, 70, 63
1, 812373, Note_off_c, 0, 63, 57
1, 812416, Note_on_c, 0, 75, 74
1, 812419, Note_off_c, 0, 69, 61
1, 812424, Note_on_c, 0, 81, 57
1, 812426, Note_on_c, 0, 78, 85
1, 812430, Note_on_c, 0, 83, 67
1, 812435, Note_off_c, 0, 70, 64
1, 812436, Note_on_c, 0, 68, 70
1, 812445, Note_off_c, 0, 71, 61
1, 812456, Note_off_c, 0, 83, 66
1, 812468, Note_off_c, 0, 68, 63
1, 812477, Note_off_c, 0, 81, 65
1, 812480, Note_off_c, 0, 75, 61
1, 812501, Note_on_c, 0, 58, 60
1, 812514, Note_on_c, 0, 67, 73
1, 812564, Note_off_c, 0, 67, 61
1, 812570, Note_on_c, 0, 66, 66
1, 812593, Poly_aftertouch_c, 0, 79, 127
1, 812598, Control_c, 0, 64, 81
1, 812613, Control_c, 0, 64, 62
1, 812616, Note_on_c, 0, 82, 78
1, 812617, Note_on_c, 0, 77, 27
1, 812626, Note_on_c, 0, 70, 72
1, 812628, Control_c, 0, 64, 43
1, 812638, Note_on_c, 0, 73, 80
1, 812641, Note_off_c, 0, 66, 63
1, 812643, Note_off_c, 0, 77, 53
1, 812643, Control_c, 0, 64, 45
1, 812647, Note_off_c, 0, 78, 55
1, 812657, Control_c, 0, 64, 55
1, 812659, Note_off_c, 0, 58, 61
1, 812665, Poly_aftertouch_c, 0, 79, 0
1, 812672, Control_c, 0, 64, 64
1, 812687, Control_c, 0, 64, 72
1, 812695, Note_off_c, 0, 82, 64
1, 812702, Control_c, 0, 64, 89
1, 812711, Note_on_c, 0, 60, 25
1, 812713, Note_on_c, 0, 63, 75
1, 812717, Control_c, 0, 64, 127
1, 812728, Note_off_c, 0, 73, 64
1, 812737, Note_off_c, 0, 70, 60
1, 812790, Note_off_c, 0, 63, 62
1, 812797, Note_off_c, 0, 60, 63
1, 812860, Note_on_c, 0, 75, 76
1, 812862, Note_on_c, 0, 72, 68
1, 812892, Note_on_c, 0, 73, 33
1, 812912, Note_on_c, 0, 38, 61
1, 812929, Note_off_c, 0, 73, 31
1, 812939, Note_off_c, 0, 38, 57
1, 812957, Note_off_c, 0, 75, 62
1, 812961, Note_on_c, 0, 71, 70
1, 812963, Note_off_c, 0, 72, 64
1, 813047, Note_on_c, 0, 70, 73
1, 813050, Note_off_c, 0, 71, 59
1, 813118, Control_c, 0, 64, 74
1, 813131, Note_on_c, 0, 77, 81
1, 813133, Control_c, 0, 64, 57
1, 813137, Note_on_c, 0, 67, 46
1, 813144, Note_on_c, 0, 65, 60
1, 813155, Control_c, 0, 64, 45
1, 813169, Note_on_c, 0, 76, 56
1, 813170, Control_c, 0, 64, 50
1, 813172, Note_on_c, 0, 74, 60
1, 813185, Control_c, 0, 64, 57
1, 813190, Note_off_c, 0, 67, 64
1, 813200, Control_c, 0, 64, 64
1, 813204, Note_off_c, 0, 65, 62
1, 813214, Control_c, 0, 64, 70
1, 813229, Control_c, 0, 64, 82
1, 813238, Note_off_c, 0, 74, 60
1, 813239, Note_off_c, 0, 76, 62
1, 813243, Note_off_c, 0, 70, 39
1, 813244, Control_c, 0, 64, 99
1, 813255, Note_on_c, 0, 69, 69
1, 813259, Control_c, 0, 64, 127
1, 813262, Note_off_c, 0, 77, 60
1, 813264, Note_on_c, 0, 61, 58
1, 813307, Note_off_c, 0, 61, 60
1, 813325, Note_on_c, 0, 67, 69
1, 813327, Note_off_c, 0, 69, 62
1, 813357, Note_on_c, 0, 79, 79
1, 813363, Note_on_c, 0, 73, 70
1, 813383, Note_off_c, 0, 67, 60
1, 813416, Note_off_c, 0, 73, 64
1, 813429, Note_on_c, 0, 66, 51
1, 813441, Note_off_c, 0, 79, 64
1, 813462, Note_on_c, 0, 56, 38
1, 813472, Note_off_c, 0, 66, 61
1, 813532, Note_on_c, 0, 64, 53
1, 813569, Control_c, 0, 64, 91
1, 813577, Note_on_c, 0, 80, 75
1, 813577, Note_off_c, 0, 64, 55
1, 813584, Control_c, 0, 64, 69
1, 813588, Note_on_c, 0, 68, 66
1, 813589, Note_on_c, 0, 72, 61
1, 813592, Note_off_c, 0, 56, 51
1, 813598, Control_c, 0, 64, 59
1, 813613, Control_c, 0, 64, 59
1, 813628, Control_c, 0, 64, 63
1, 813637, Note_on_c, 0, 60, 40
1, 813643, Control_c, 0, 64, 67
1, 813647, Note_off_c, 0, 80, 64
1, 813649, Note_on_c, 0, 63, 63
1, 813658, Control_c, 0, 64, 75
1, 813673, Control_c, 0, 64, 88
1, 813680, Note_off_c, 0, 60, 66
1, 813680, Note_off_c, 0, 63, 67
1, 813681, Note_off_c, 0, 72, 61
1, 813687, Control_c, 0, 64, 108
1, 813703, Control_c, 0, 64, 122
1, 813718, Control_c, 0, 64, 125
1, 813744, Note_off_c, 0, 68, 63
1, 813748, Control_c, 0, 64, 127
1, 813805, Note_on_c, 0, 38, 60
1, 813827, Note_on_c, 0, 75, 72
1, 813832, Note_off_c, 0, 38, 59
1, 813833, Note_on_c, 0, 72, 63
1, 813922, Note_off_c, 0, 75, 63
1, 813923, Note_off_c, 0, 72, 64
1, 813941, Note_on_c, 0, 71, 70
1, 814017, Note_off_c, 0, 71, 60
1, 814023, Note_on_c, 0, 70, 67
1, 814039, Note_on_c, 0, 63, 16
1, 814051, Control_c, 0, 64, 94
1, 814066, Control_c, 0, 64, 66
1, 814067, Note_on_c, 0, 67, 61
1, 814076, Note_off_c, 0, 63, 41
1, 814081, Control_c, 0, 64, 51
1, 814085, Note_on_c, 0, 79, 61
1, 814096, Control_c, 0, 64, 52
1, 814100, Note_on_c, 0, 77, 65
1, 814105, Note_on_c, 0, 76, 54
1, 814111, Control_c, 0, 64, 57
1, 814116, Note_on_c, 0, 73, 52
1, 814124, Note_off_c, 0, 77, 51
1, 814126, Control_c, 0, 64, 63
1, 814130, Note_off_c, 0, 70, 56
1, 814132, Note_off_c, 0, 67, 62
1, 814141, Control_c, 0, 64, 68
1, 814155, Control_c, 0, 64, 79
1, 814170, Control_c, 0, 64, 94
1, 814176, Note_off_c, 0, 76, 44
1, 814185, Control_c, 0, 64, 117
1, 814193, Note_on_c, 0, 69, 67
1, 814200, Control_c, 0, 64, 127
1, 814203, Note_off_c, 0, 79, 45
1, 814220, Note_off_c, 0, 73, 62
1, 814251, Note_off_c, 0, 69, 63
1, 814251, Note_on_c, 0, 67, 74
1, 814278, Note_off_c, 0, 67, 61
1, 814479, Note_on_c, 0, 64, 41
1, 814506, Note_on_c, 0, 80, 62
1, 814507, Note_on_c, 0, 72, 62
1, 814516, Note_on_c, 0, 68, 67
1, 814522, Note_off_c, 0, 64, 61
1, 814539, Note_off_c, 0, 72, 66
1, 814552, Note_off_c, 0, 80, 61
1, 814589, Note_off_c, 0, 68, 63
1, 814704, Note_on_c, 0, 58, 36
1, 814704, Note_on_c, 0, 62, 49
1, 814727, Control_c, 0, 64, 108
1, 814741, Control_c, 0, 64, 77
1, 814743, Note_on_c, 0, 74, 70
1, 814756, Control_c, 0, 64, 66
1, 814759, Note_on_c, 0, 70, 66
1, 814771, Control_c, 0, 64, 64
1, 814786, Control_c, 0, 64, 66
1, 814801, Control_c, 0, 64, 72
1, 814804, Note_off_c, 0, 62, 64
1, 814814, Note_off_c, 0, 58, 64
1, 814815, Control_c, 0, 64, 82
1, 814830, Control_c, 0, 64, 101
1, 814834, Note_off_c, 0, 70, 64
1, 814836, Note_off_c, 0, 74, 60
1, 814845, Control_c, 0, 64, 127
1, 814856, Note_on_c, 0, 69, 66
1, 814919, Note_on_c, 0, 38, 55
1, 814942, Note_off_c, 0, 69, 60
1, 814948, Note_off_c, 0, 38, 54
1, 815044, Note_on_c, 0, 75, 76
1, 815084, Note_on_c, 0, 60, 49
1, 815112, Note_off_c, 0, 75, 64
1, 815128, Note_on_c, 0, 67, 63
1, 815244, Control_c, 0, 64, 97
1, 815246, Note_off_c, 0, 67, 0
1, 815258, Note_off_c, 0, 60, 59
1, 815259, Control_c, 0, 64, 81
1, 815267, Note_on_c, 0, 77, 78
1, 815274, Control_c, 0, 64, 81
1, 815275, Note_on_c, 0, 65, 63
1, 815276, Note_on_c, 0, 70, 67
1, 815282, Note_on_c, 0, 67, 7
1, 815287, Note_on_c, 0, 56, 49
1, 815289, Control_c, 0, 64, 85
1, 815305, Control_c, 0, 64, 93
1, 815306, Note_off_c, 0, 70, 68
1, 815320, Control_c, 0, 64, 116
1, 815324, Note_off_c, 0, 67, 61
1, 815335, Control_c, 0, 64, 127
1, 815344, Note_off_c, 0, 77, 61
1, 815348, Note_off_c, 0, 65, 60
1, 815372, Note_on_c, 0, 64, 51
1, 815410, Note_off_c, 0, 64, 63
1, 815428, Note_off_c, 0, 56, 56
1, 815476, Note_on_c, 0, 62, 67
1, 815501, Note_on_c, 0, 79, 76
1, 815505, Control_c, 0, 64, 83
1, 815510, Note_off_c, 0, 62, 64
1, 815513, Note_on_c, 0, 71, 65
1, 815514, Note_on_c, 0, 67, 59
1, 815520, Control_c, 0, 64, 65
1, 815535, Control_c, 0, 64, 55
1, 815549, Control_c, 0, 64, 58
1, 815564, Control_c, 0, 64, 62
1, 815579, Control_c, 0, 64, 68
1, 815581, Note_off_c, 0, 71, 63
1, 815581, Note_off_c, 0, 79, 65
1, 815594, Control_c, 0, 64, 79
1, 815608, Control_c, 0, 64, 107
1, 815623, Control_c, 0, 64, 127
1, 815628, Note_on_c, 0, 60, 57
1, 815636, Poly_aftertouch_c, 0, 61, 127
1, 815655, Note_off_c, 0, 60, 52
1, 815667, Poly_aftertouch_c, 0, 61, 0
1, 815702, Note_on_c, 0, 58, 62
1, 815753, Note_off_c, 0, 58, 62
1, 815781, Note_on_c, 0, 74, 60
1, 815781, Note_off_c, 0, 67, 64
1, 815797, Note_on_c, 0, 70, 62
1, 815857, Note_off_c, 0, 74, 60
1, 815862, Note_off_c, 0, 70, 62
1, 815892, Note_on_c, 0, 40, 38
1, 815893, Note_on_c, 0, 69, 67
1, 815932, Note_off_c, 0, 40, 50
1, 815973, Note_off_c, 0, 69, 61
1, 816007, Note_on_c, 0, 68, 42
1, 816008, Control_c, 0, 64, 105
1, 816023, Control_c, 0, 64, 76
1, 816038, Control_c, 0, 64, 64
1, 816053, Control_c, 0, 64, 62
1, 816062, Note_on_c, 0, 60, 52
1, 816063, Note_on_c, 0, 72, 31
1, 816066, Note_on_c, 0, 75, 73
1, 816068, Control_c, 0, 64, 63
1, 816082, Control_c, 0, 64, 66
1, 816093, Note_off_c, 0, 72, 55
1, 816098, Control_c, 0, 64, 71
1, 816113, Control_c, 0, 64, 82
1, 816124, Note_on_c, 0, 56, 29
1, 816128, Control_c, 0, 64, 96
1, 816135, Note_off_c, 0, 68, 62
1, 816150, Note_on_c, 0, 67, 61
1, 816150, Control_c, 0, 64, 125
1, 816162, Note_off_c, 0, 75, 64
1, 816165, Control_c, 0, 64, 127
1, 816213, Note_on_c, 0, 65, 9
1, 816260, Note_off_c, 0, 65, 49
1, 816280, Note_on_c, 0, 66, 39
1, 816284, Note_off_c, 0, 60, 21
1, 816287, Note_off_c, 0, 67, 0
1, 816290, Note_on_c, 0, 64, 45
1, 816311, Note_off_c, 0, 66, 54
1, 816313, Note_on_c, 0, 77, 65
1, 816320, Note_on_c, 0, 70, 68
1, 816323, Poly_aftertouch_c, 0, 67, 127
1, 816337, Note_off_c, 0, 64, 62
1, 816349, Note_off_c, 0, 70, 69
1, 816358, Note_off_c, 0, 56, 40
1, 816375, Note_off_c, 0, 77, 63
1, 816388, Poly_aftertouch_c, 0, 67, 0
1, 816404, Note_on_c, 0, 62, 60
1, 816464, Note_off_c, 0, 62, 60
1, 816528, Note_on_c, 0, 61, 56
1, 816546, Note_on_c, 0, 55, 35
1, 816566, Control_c, 0, 64, 80
1, 816571, Note_on_c, 0, 79, 64
1, 816576, Note_on_c, 0, 67, 39
1, 816580, Control_c, 0, 64, 66
1, 816594, Note_on_c, 0, 71, 53
1, 816595, Control_c, 0, 64, 60
1, 816605, Note_off_c, 0, 55, 57
1, 816610, Control_c, 0, 64, 61
1, 816624, Note_off_c, 0, 61, 58
1, 816624, Control_c, 0, 64, 64
1, 816639, Control_c, 0, 64, 68
1, 816654, Control_c, 0, 64, 75
1, 816657, Note_on_c, 0, 60, 50
1, 816669, Control_c, 0, 64, 88
1, 816683, Note_off_c, 0, 71, 64
1, 816684, Control_c, 0, 64, 99
1, 816695, Note_off_c, 0, 79, 65
1, 816698, Control_c, 0, 64, 106
1, 816713, Control_c, 0, 64, 107
1, 816743, Control_c, 0, 64, 108
1, 816758, Control_c, 0, 64, 115
1, 816773, Control_c, 0, 64, 127
1, 816773, Note_off_c, 0, 60, 46
1, 816839, Note_on_c, 0, 54, 48
1, 816912, Note_on_c, 0, 72, 57
1, 816929, Control_c, 0, 64, 85
1, 816944, Control_c, 0, 64, 66
1, 816957, Note_on_c, 0, 68, 54
1, 816959, Control_c, 0, 64, 57
1, 816960, Note_off_c, 0, 67, 60
1, 816974, Control_c, 0, 64, 55
1, 816989, Control_c, 0, 64, 59
1, 817003, Control_c, 0, 64, 63
1, 817018, Control_c, 0, 64, 67
1, 817033, Control_c, 0, 64, 71
1, 817047, Control_c, 0, 64, 78
1, 817050, Note_on_c, 0, 61, 30
1, 817062, Control_c, 0, 64, 82
1, 817077, Control_c, 0, 64, 85
1, 817083, Note_off_c, 0, 54, 54
1, 817092, Control_c, 0, 64, 87
1, 817107, Control_c, 0, 64, 89
1, 817112, Note_off_c, 0, 72, 62
1, 817121, Control_c, 0, 64, 91
1, 817130, Note_on_c, 0, 62, 47
1, 817135, Note_off_c, 0, 68, 60
1, 817136, Control_c, 0, 64, 94
1, 817151, Control_c, 0, 64, 98
1, 817166, Control_c, 0, 64, 101
1, 817169, Note_on_c, 0, 57, 54
1, 817181, Control_c, 0, 64, 105
1, 817193, Note_on_c, 0, 73, 70
1, 817196, Control_c, 0, 64, 109
1, 817205, Note_off_c, 0, 62, 58
1, 817210, Note_on_c, 0, 53, 44
1, 817211, Control_c, 0, 64, 119
1, 817219, Note_off_c, 0, 61, 40
1, 817226, Control_c, 0, 64, 127
1, 817244, Note_off_c, 0, 57, 61
1, 817255, Poly_aftertouch_c, 0, 69, 127
1, 817259, Note_off_c, 0, 53, 59
1, 817291, Poly_aftertouch_c, 0, 69, 0
1, 817297, Note_on_c, 0, 61, 57
1, 817336, Note_on_c, 0, 62, 49
1, 817402, Note_off_c, 0, 61, 45
1, 817417, Control_c, 0, 64, 95
1, 817432, Control_c, 0, 64, 72
1, 817436, Note_on_c, 0, 70, 53
1, 817437, Note_on_c, 0, 58, 43
1, 817442, Note_on_c, 0, 74, 71
1, 817446, Control_c, 0, 64, 60
1, 817452, Note_off_c, 0, 73, 63
1, 817456, Note_on_c, 0, 52, 44
1, 817461, Control_c, 0, 64, 52
1, 817470, Note_off_c, 0, 62, 55
1, 817476, Control_c, 0, 64, 55
1, 817491, Control_c, 0, 64, 61
1, 817506, Control_c, 0, 64, 66
1, 817507, Note_off_c, 0, 70, 64
1, 817521, Control_c, 0, 64, 71
1, 817522, Note_off_c, 0, 52, 62
1, 817536, Control_c, 0, 64, 78
1, 817550, Note_on_c, 0, 61, 55
1, 817551, Control_c, 0, 64, 84
1, 817556, Note_off_c, 0, 58, 54
1, 817566, Control_c, 0, 64, 90
1, 817580, Control_c, 0, 64, 96
1, 817592, Note_on_c, 0, 62, 47
1, 817595, Control_c, 0, 64, 104
1, 817610, Control_c, 0, 64, 122
1, 817625, Control_c, 0, 64, 127
1, 817662, Note_off_c, 0, 74, 34
1, 817712, Note_on_c, 0, 51, 48
1, 817717, Note_on_c, 0, 63, 53
1, 817722, Control_c, 0, 64, 90
1, 817727, Note_off_c, 0, 62, 58
1, 817728, Note_on_c, 0, 67, 52
1, 817736, Note_off_c, 0, 61, 33
1, 817737, Control_c, 0, 64, 71
1, 817741, Note_on_c, 0, 55, 35
1, 817751, Control_c, 0, 64, 64
1, 817763, Note_off_c, 0, 63, 57
1, 817781, Control_c, 0, 64, 67
1, 817796, Control_c, 0, 64, 73
1, 817804, Note_off_c, 0, 55, 58
1, 817811, Control_c, 0, 64, 84
1, 817822, Note_off_c, 0, 51, 61
1, 817825, Control_c, 0, 64, 100
1, 817838, Note_on_c, 0, 61, 53
1, 817840, Control_c, 0, 64, 127
1, 817872, Note_on_c, 0, 62, 39
1, 817965, Note_off_c, 0, 67, 62
1, 817983, Note_off_c, 0, 62, 52
1, 817989, Note_off_c, 0, 61, 33
1, 817990, Note_on_c, 0, 68, 59
1, 818004, Note_on_c, 0, 65, 32
1, 818010, Note_on_c, 0, 57, 28
1, 818016, Note_on_c, 0, 53, 27
1, 818033, Control_c, 0, 64, 95
1, 818048, Control_c, 0, 64, 72
1, 818063, Note_off_c, 0, 65, 41
1, 818063, Control_c, 0, 64, 64
1, 818067, Note_off_c, 0, 53, 53
1, 818073, Note_off_c, 0, 57, 55
1, 818077, Control_c, 0, 64, 66
1, 818084, Note_on_c, 0, 61, 56
1, 818092, Poly_aftertouch_c, 0, 50, 0
1, 818092, Control_c, 0, 64, 69
1, 818107, Control_c, 0, 64, 78
1, 818122, Control_c, 0, 64, 94
1, 818137, Control_c, 0, 64, 127
1, 818151, Note_on_c, 0, 62, 37
1, 818278, Note_on_c, 0, 49, 36
1, 818328, Note_on_c, 0, 54, 42
1, 818329, Control_c, 0, 64, 92
1, 818332, Note_on_c, 0, 57, 36
1, 818344, Control_c, 0, 64, 67
1, 818359, Control_c, 0, 64, 53
1, 818362, Note_off_c, 0, 61, 33
1, 818364, Note_off_c, 0, 68, 59
1, 818370, Note_on_c, 0, 69, 58
1, 818373, Control_c, 0, 64, 39
1, 818386, Note_on_c, 0, 66, 34
1, 818388, Control_c, 0, 64, 43
1, 818410, Control_c, 0, 64, 55
1, 818425, Control_c, 0, 64, 63
1, 818438, Note_off_c, 0, 62, 47
1, 818440, Control_c, 0, 64, 70
1, 818455, Control_c, 0, 64, 76
1, 818470, Control_c, 0, 64, 81
1, 818484, Control_c, 0, 64, 85
1, 818496, Note_off_c, 0, 54, 57
1, 818498, Note_off_c, 0, 57, 63
1, 818500, Control_c, 0, 64, 89
1, 818515, Control_c, 0, 64, 94
1, 818521, Note_on_c, 0, 61, 50
1, 818530, Control_c, 0, 64, 106
1, 818534, Note_off_c, 0, 49, 36
1, 818545, Control_c, 0, 64, 127
1, 818590, Note_on_c, 0, 62, 44
1, 818596, Note_off_c, 0, 66, 39
1, 818728, Note_off_c, 0, 61, 23
1, 818784, Note_on_c, 0, 53, 39
1, 818816, Note_on_c, 0, 56, 33
1, 818821, Note_on_c, 0, 48, 28
1, 818824, Note_on_c, 0, 65, 50
1, 818841, Control_c, 0, 64, 89
1, 818856, Control_c, 0, 64, 64
1, 818871, Control_c, 0, 64, 0
1, 818890, Note_off_c, 0, 62, 58
1, 818960, Control_c, 0, 64, 53
1, 818974, Control_c, 0, 64, 60
1, 818989, Control_c, 0, 64, 62
1, 818999, Note_on_c, 0, 61, 46
1, 819004, Control_c, 0, 64, 62
1, 819016, Note_off_c, 0, 48, 40
1, 819018, Control_c, 0, 64, 64
1, 819033, Control_c, 0, 64, 66
1, 819048, Control_c, 0, 64, 71
1, 819058, Note_off_c, 0, 53, 51
1, 819063, Control_c, 0, 64, 79
1, 819078, Control_c, 0, 64, 92
1, 819092, Control_c, 0, 64, 113
1, 819107, Control_c, 0, 64, 127
1, 819132, Note_off_c, 0, 56, 42
1, 819160, Note_off_c, 0, 61, 34
1, 819161, Note_on_c, 0, 62, 44
1, 819395, Note_on_c, 0, 47, 31
1, 819442, Control_c, 0, 64, 111
1, 819454, Note_on_c, 0, 54, 35
1, 819456, Control_c, 0, 64, 77
1, 819471, Control_c, 0, 64, 66
1, 819486, Control_c, 0, 64, 62
1, 819487, Note_on_c, 0, 66, 48
1, 819501, Control_c, 0, 64, 64
1, 819516, Control_c, 0, 64, 67
1, 819520, Poly_aftertouch_c, 0, 57, 127
1, 819530, Control_c, 0, 64, 72
1, 819545, Control_c, 0, 64, 84
1, 819560, Control_c, 0, 64, 98
1, 819575, Control_c, 0, 64, 119
1, 819590, Control_c, 0, 64, 127
1, 819591, Note_off_c, 0, 62, 46
1, 819594, Note_off_c, 0, 69, 59
1, 819601, Note_off_c, 0, 47, 41
1, 819683, Note_off_c, 0, 65, 37
1, 819730, Note_on_c, 0, 61, 44
1, 819811, Note_off_c, 0, 61, 58
1, 819867, Poly_aftertouch_c, 0, 57, 0
1, 819867, Note_off_c, 0, 66, 52
1, 819927, Note_off_c, 0, 54, 43
1, 820147, Note_on_c, 0, 62, 42
1, 820331, Note_off_c, 0, 62, 35
1, 820949, Note_on_c, 0, 27, 15
1, 820961, Note_on_c, 0, 39, 19
1, 820995, Note_on_c, 0, 67, 54
1, 821013, Control_c, 0, 64, 102
1, 821028, Control_c, 0, 64, 74
1, 821032, Note_on_c, 0, 56, 38
1, 821042, Control_c, 0, 64, 59
1, 821057, Control_c, 0, 64, 49
1, 821058, Note_on_c, 0, 62, 23
1, 821072, Control_c, 0, 64, 51
1, 821086, Control_c, 0, 64, 57
1, 821101, Control_c, 0, 64, 64
1, 821116, Control_c, 0, 64, 70
1, 821131, Control_c, 0, 64, 87
1, 821146, Control_c, 0, 64, 127
1, 821210, Note_off_c, 0, 27, 41
1, 821263, Note_off_c, 0, 39, 40
1, 821280, Note_off_c, 0, 56, 42
1, 821322, Note_off_c, 0, 62, 38
1, 821697, Note_on_c, 0, 46, 25
1, 821724, Note_on_c, 0, 62, 38
1, 821745, Note_off_c, 0, 67, 60
1, 821781, Note_on_c, 0, 64, 15
1, 821786, Note_off_c, 0, 62, 61
1, 821823, Note_off_c, 0, 64, 42
1, 821896, Note_off_c, 0, 46, 41
1, 822196, Note_on_c, 0, 63, 28
1, 822201, Note_on_c, 0, 56, 32
1, 822301, Note_on_c, 0, 79, 69
1, 822336, Note_off_c, 0, 63, 51
1, 822413, Note_on_c, 0, 67, 24
1, 822413, Poly_aftertouch_c, 0, 72, 127
1, 822505, Poly_aftertouch_c, 0, 72, 0
1, 822518, Note_off_c, 0, 79, 66
1, 822579, Note_off_c, 0, 67, 57
1, 822758, Note_on_c, 0, 46, 26
1, 822797, Note_off_c, 0, 46, 52
1, 822837, Note_on_c, 0, 71, 44
1, 822852, Note_on_c, 0, 67, 25
1, 822870, Note_off_c, 0, 56, 29
1, 822988, Note_off_c, 0, 71, 57
1, 822997, Note_off_c, 0, 67, 35
1, 823026, Note_on_c, 0, 56, 40
1, 823068, Note_off_c, 0, 56, 64
1, 823095, Note_on_c, 0, 71, 42
1, 823129, Note_off_c, 0, 71, 64
1, 823152, Note_on_c, 0, 67, 15
1, 823228, Note_off_c, 0, 67, 35
1, 823295, Note_on_c, 0, 70, 64
1, 823354, Poly_aftertouch_c, 0, 39, 127
1, 823355, Note_on_c, 0, 63, 32
1, 823393, Poly_aftertouch_c, 0, 39, 0
1, 823396, Note_off_c, 0, 63, 48
1, 823414, Note_off_c, 0, 70, 59
1, 823448, Poly_aftertouch_c, 0, 67, 127
1, 823536, Note_on_c, 0, 70, 67
1, 823555, Control_c, 0, 64, 95
1, 823558, Note_on_c, 0, 61, 28
1, 823570, Control_c, 0, 64, 72
1, 823582, Note_on_c, 0, 55, 43
1, 823585, Control_c, 0, 64, 64
1, 823597, Note_on_c, 0, 63, 39
1, 823600, Control_c, 0, 64, 62
1, 823615, Control_c, 0, 64, 64
1, 823637, Control_c, 0, 64, 66
1, 823646, Note_off_c, 0, 63, 62
1, 823652, Control_c, 0, 64, 71
1, 823653, Poly_aftertouch_c, 0, 67, 0
1, 823667, Control_c, 0, 64, 78
1, 823682, Control_c, 0, 64, 88
1, 823696, Control_c, 0, 64, 100
1, 823711, Control_c, 0, 64, 116
1, 823726, Control_c, 0, 64, 127
1, 823743, Note_off_c, 0, 61, 37
1, 823819, Note_off_c, 0, 70, 60
1, 823822, Note_on_c, 0, 69, 54
1, 823839, Note_off_c, 0, 55, 59
1, 823856, Note_on_c, 0, 46, 26
1, 823881, Poly_aftertouch_c, 0, 60, 127
1, 823918, Note_off_c, 0, 46, 44
1, 823921, Poly_aftertouch_c, 0, 60, 0
1, 823945, Poly_aftertouch_c, 0, 63, 0
1, 823951, Note_off_c, 0, 69, 55
1, 824135, Note_on_c, 0, 54, 44
1, 824184, Note_on_c, 0, 60, 10
1, 824201, Control_c, 0, 64, 96
1, 824216, Control_c, 0, 64, 72
1, 824223, Note_on_c, 0, 75, 54
1, 824231, Control_c, 0, 64, 62
1, 824239, Note_on_c, 0, 69, 39
1, 824246, Control_c, 0, 64, 61
1, 824253, Note_on_c, 0, 63, 24
1, 824260, Control_c, 0, 64, 63
1, 824275, Control_c, 0, 64, 66
1, 824283, Note_off_c, 0, 60, 58
1, 824290, Control_c, 0, 64, 74
1, 824304, Control_c, 0, 64, 99
1, 824319, Control_c, 0, 64, 127
1, 824324, Note_off_c, 0, 54, 64
1, 824328, Note_off_c, 0, 69, 63
1, 824342, Note_off_c, 0, 75, 63
1, 824416, Note_off_c, 0, 63, 56
1, 824600, Note_on_c, 0, 39, 27
1, 824645, Note_off_c, 0, 39, 49
1, 824646, Note_on_c, 0, 68, 37
1, 824654, Note_on_c, 0, 63, 19
1, 824657, Note_on_c, 0, 59, 36
1, 824764, Note_off_c, 0, 59, 54
1, 824809, Note_off_c, 0, 68, 32
1, 824836, Note_off_c, 0, 63, 37
1, 824896, Note_on_c, 0, 68, 43
1, 824910, Note_on_c, 0, 59, 38
1, 824911, Note_on_c, 0, 63, 24
1, 824935, Note_on_c, 0, 55, 50
1, 824939, Note_off_c, 0, 59, 54
1, 824973, Note_off_c, 0, 63, 54
1, 825023, Note_off_c, 0, 68, 52
1, 825081, Note_off_c, 0, 55, 37
1, 825152, Note_on_c, 0, 67, 60
1, 825162, Note_on_c, 0, 46, 44
1, 825178, Note_on_c, 0, 63, 42
1, 825206, Note_off_c, 0, 46, 63
1, 825209, Note_off_c, 0, 63, 59
1, 825215, Note_off_c, 0, 67, 62
1, 825241, Poly_aftertouch_c, 0, 58, 0
1, 825299, Note_on_c, 0, 62, 50
1, 825423, Note_on_c, 0, 67, 63
1, 825620, Note_on_c, 0, 39, 44
1, 825635, Note_on_c, 0, 27, 44
1, 825668, Control_c, 0, 64, 84
1, 825683, Control_c, 0, 64, 63
1, 825698, Control_c, 0, 64, 48
1, 825713, Control_c, 0, 64, 52
1, 825721, Note_on_c, 0, 74, 80
1, 825728, Control_c, 0, 64, 59
1, 825743, Control_c, 0, 64, 66
1, 825757, Control_c, 0, 64, 78
1, 825772, Control_c, 0, 64, 127
1, 825835, Note_off_c, 0, 27, 48
1, 825841, Note_off_c, 0, 67, 64
1, 825844, Note_off_c, 0, 74, 64
1, 825850, Note_off_c, 0, 39, 60
1, 825915, Note_off_c, 0, 62, 64
1, 826142, Note_on_c, 0, 47, 41
1, 826143, Note_on_c, 0, 67, 52
1, 826151, Note_on_c, 0, 62, 41
1, 826246, Poly_aftertouch_c, 0, 59, 127
1, 826266, Note_off_c, 0, 67, 57
1, 826293, Poly_aftertouch_c, 0, 59, 0
1, 826309, Note_off_c, 0, 62, 49
1, 826383, Note_on_c, 0, 59, 43
1, 826385, Note_on_c, 0, 67, 57
1, 826396, Note_off_c, 0, 47, 52
1, 826397, Note_on_c, 0, 62, 27
1, 826420, Note_off_c, 0, 67, 65
1, 826448, Note_off_c, 0, 59, 57
1, 826529, Note_on_c, 0, 66, 60
1, 826546, Note_on_c, 0, 58, 60
1, 826547, Note_off_c, 0, 62, 46
1, 826550, Note_on_c, 0, 47, 51
1, 826583, Note_off_c, 0, 66, 54
1, 826609, Note_off_c, 0, 58, 61
1, 826610, Note_off_c, 0, 47, 61
1, 826635, Note_on_c, 0, 62, 57
1, 826664, Note_on_c, 0, 66, 66
1, 826735, Note_on_c, 0, 58, 63
1, 826757, Note_off_c, 0, 66, 63
1, 826785, Note_on_c, 0, 71, 82
1, 826818, Note_off_c, 0, 58, 62
1, 826823, Note_on_c, 0, 53, 6
1, 826899, Note_on_c, 0, 47, 58
1, 826943, Note_off_c, 0, 47, 62
1, 826965, Note_off_c, 0, 53, 25
1, 826973, Note_on_c, 0, 65, 66
1, 826979, Note_on_c, 0, 57, 51
1, 827119, Note_off_c, 0, 71, 53
1, 827247, Note_on_c, 0, 39, 52
1, 827317, Note_on_c, 0, 71, 75
1, 827329, Control_c, 0, 64, 119
1, 827344, Control_c, 0, 64, 70
1, 827359, Control_c, 0, 64, 23
1, 827382, Control_c, 0, 64, 0
1, 827435, Note_off_c, 0, 65, 61
1, 827441, Control_c, 0, 64, 52
1, 827456, Control_c, 0, 64, 63
1, 827462, Note_off_c, 0, 57, 47
1, 827471, Control_c, 0, 64, 70
1, 827485, Control_c, 0, 64, 77
1, 827488, Note_off_c, 0, 62, 63
1, 827490, Note_off_c, 0, 39, 63
1, 827500, Control_c, 0, 64, 87
1, 827515, Control_c, 0, 64, 116
1, 827529, Control_c, 0, 64, 127
1, 827675, Note_on_c, 0, 65, 53
1, 827739, Note_off_c, 0, 71, 61
1, 827754, Poly_aftertouch_c, 0, 61, 127
1, 827760, Note_on_c, 0, 46, 31
1, 827762, Note_off_c, 0, 65, 59
1, 827792, Poly_aftertouch_c, 0, 61, 0
1, 827910, Note_on_c, 0, 65, 44
1, 827920, Note_on_c, 0, 57, 36
1, 827966, Note_off_c, 0, 65, 54
1, 827968, Note_off_c, 0, 57, 60
1, 827970, Note_off_c, 0, 46, 22
1, 828108, Control_c, 0, 64, 106
1, 828130, Control_c, 0, 64, 73
1, 828136, Note_on_c, 0, 46, 24
1, 828145, Control_c, 0, 64, 61
1, 828160, Control_c, 0, 64, 58
1, 828163, Note_on_c, 0, 61, 30
1, 828165, Note_on_c, 0, 64, 43
1, 828175, Control_c, 0, 64, 61
1, 828178, Note_on_c, 0, 56, 31
1, 828190, Control_c, 0, 64, 66
1, 828204, Control_c, 0, 64, 74
1, 828219, Control_c, 0, 64, 98
1, 828234, Control_c, 0, 64, 127
1, 828334, Note_off_c, 0, 56, 43
1, 828359, Note_off_c, 0, 64, 50
1, 828431, Note_off_c, 0, 61, 28
1, 828508, Note_off_c, 0, 46, 35
1, 828560, Note_on_c, 0, 56, 25
1, 828574, Note_on_c, 0, 64, 33
1, 828589, Control_c, 0, 64, 98
1, 828600, Note_on_c, 0, 67, 54
1, 828604, Control_c, 0, 64, 72
1, 828619, Control_c, 0, 64, 59
1, 828634, Control_c, 0, 64, 45
1, 828649, Poly_aftertouch_c, 0, 61, 127
1, 828649, Control_c, 0, 64, 45
1, 828663, Control_c, 0, 64, 53
1, 828678, Control_c, 0, 64, 62
1, 828693, Control_c, 0, 64, 67
1, 828708, Control_c, 0, 64, 72
1, 828723, Control_c, 0, 64, 80
1, 828723, Note_off_c, 0, 64, 59
1, 828738, Control_c, 0, 64, 88
1, 828752, Control_c, 0, 64, 100
1, 828767, Control_c, 0, 64, 127
1, 828801, Poly_aftertouch_c, 0, 61, 0
1, 828802, Note_off_c, 0, 56, 42
1, 828929, Note_on_c, 0, 46, 39
1, 829018, Note_on_c, 0, 61, 5
1, 829040, Note_off_c, 0, 46, 57
1, 829046, Note_on_c, 0, 63, 29
1, 829051, Note_on_c, 0, 55, 25
1, 829227, Note_off_c, 0, 55, 44
1, 829346, Note_off_c, 0, 61, 40
1, 829403, Note_off_c, 0, 63, 51
1, 829720, Note_off_c, 0, 67, 56
1, 829734, Note_on_c, 0, 44, 40
1, 829755, Note_on_c, 0, 32, 30
1, 829761, Control_c, 0, 64, 98
1, 829776, Control_c, 0, 64, 71
1, 829791, Control_c, 0, 64, 45
1, 829805, Control_c, 0, 64, 0
1, 829850, Control_c, 0, 64, 45
1, 829865, Control_c, 0, 64, 60
1, 829880, Control_c, 0, 64, 66
1, 829895, Control_c, 0, 64, 73
1, 829910, Control_c, 0, 64, 82
1, 829914, Note_off_c, 0, 32, 53
1, 829924, Control_c, 0, 64, 96
1, 829939, Control_c, 0, 64, 127
1, 829963, Note_off_c, 0, 44, 52
1, 830413, Note_on_c, 0, 51, 23
1, 830418, Note_on_c, 0, 60, 38
1, 830740, Note_off_c, 0, 51, 39
1, 830771, Note_on_c, 0, 58, 37
1, 830790, Note_on_c, 0, 63, 15
1, 830860, Note_on_c, 0, 70, 61
1, 830894, Note_on_c, 0, 67, 35
1, 830971, Note_off_c, 0, 60, 55
1, 831017, Note_off_c, 0, 67, 60
1, 831089, Note_off_c, 0, 58, 52
1, 831135, Note_on_c, 0, 60, 44
1, 831140, Note_on_c, 0, 51, 44
1, 831198, Note_off_c, 0, 63, 32
1, 831328, Note_on_c, 0, 59, 48
1, 831341, Note_off_c, 0, 51, 36
1, 831362, Note_on_c, 0, 68, 71
1, 831368, Note_on_c, 0, 65, 33
1, 831369, Poly_aftertouch_c, 0, 63, 0
1, 831401, Note_off_c, 0, 60, 51
1, 831507, Note_off_c, 0, 65, 35
1, 831510, Note_off_c, 0, 59, 58
1, 831510, Note_off_c, 0, 70, 64
1, 831513, Note_off_c, 0, 68, 60
1, 831516, Note_on_c, 0, 51, 58
1, 831543, Note_on_c, 0, 60, 59
1, 831559, Note_off_c, 0, 51, 63
1, 831624, Note_off_c, 0, 60, 59
1, 831695, Note_on_c, 0, 67, 77
1, 831702, Control_c, 0, 64, 86
1, 831707, Note_on_c, 0, 57, 54
1, 831717, Control_c, 0, 64, 71
1, 831724, Note_on_c, 0, 63, 28
1, 831732, Control_c, 0, 64, 67
1, 831747, Control_c, 0, 64, 68
1, 831762, Control_c, 0, 64, 70
1, 831776, Control_c, 0, 64, 75
1, 831791, Control_c, 0, 64, 84
1, 831806, Control_c, 0, 64, 96
1, 831821, Control_c, 0, 64, 110
1, 831834, Note_off_c, 0, 63, 0
1, 831836, Control_c, 0, 64, 127
1, 831848, Note_on_c, 0, 58, 65
1, 831862, Note_off_c, 0, 57, 64
1, 831866, Note_on_c, 0, 48, 51
1, 831878, Poly_aftertouch_c, 0, 63, 127
1, 831902, Note_off_c, 0, 48, 62
1, 831913, Poly_aftertouch_c, 0, 63, 0
1, 831929, Note_off_c, 0, 58, 60
1, 832074, Note_on_c, 0, 56, 62
1, 832123, Note_on_c, 0, 65, 81
1, 832155, Control_c, 0, 64, 90
1, 832160, Note_on_c, 0, 63, 49
1, 832170, Control_c, 0, 64, 64
1, 832185, Control_c, 0, 64, 0
1, 832244, Control_c, 0, 64, 39
1, 832259, Control_c, 0, 64, 58
1, 832263, Note_off_c, 0, 67, 54
1, 832273, Control_c, 0, 64, 64
1, 832288, Control_c, 0, 64, 68
1, 832303, Control_c, 0, 64, 73
1, 832316, Note_on_c, 0, 47, 52
1, 832318, Note_on_c, 0, 57, 54
1, 832318, Control_c, 0, 64, 79
1, 832333, Control_c, 0, 64, 87
1, 832348, Control_c, 0, 64, 100
1, 832350, Note_off_c, 0, 56, 54
1, 832363, Control_c, 0, 64, 127
1, 832372, Note_off_c, 0, 63, 59
1, 832498, Note_off_c, 0, 57, 56
1, 832543, Note_on_c, 0, 55, 60
1, 832568, Note_on_c, 0, 67, 84
1, 832599, Control_c, 0, 64, 86
1, 832614, Control_c, 0, 64, 68
1, 832634, Note_off_c, 0, 47, 60
1, 832637, Control_c, 0, 64, 63
1, 832646, Note_off_c, 0, 65, 58
1, 832652, Control_c, 0, 64, 64
1, 832667, Control_c, 0, 64, 68
1, 832681, Control_c, 0, 64, 81
1, 832696, Control_c, 0, 64, 127
1, 832759, Note_off_c, 0, 55, 63
1, 832780, Note_on_c, 0, 46, 52
1, 832835, Note_off_c, 0, 46, 63
1, 832878, Note_on_c, 0, 62, 55
1, 832918, Poly_aftertouch_c, 0, 56, 127
1, 833105, Poly_aftertouch_c, 0, 56, 0
1, 833145, Note_on_c, 0, 27, 52
1, 833166, Note_on_c, 0, 39, 47
1, 833197, Poly_aftertouch_c, 0, 64, 127
1, 833221, Poly_aftertouch_c, 0, 65, 127
1, 833230, Control_c, 0, 64, 73
1, 833242, Note_on_c, 0, 58, 69
1, 833242, Note_on_c, 0, 56, 23
1, 833245, Control_c, 0, 64, 31
1, 833260, Control_c, 0, 64, 0
1, 833296, Poly_aftertouch_c, 0, 65, 0
1, 833304, Control_c, 0, 64, 34
1, 833319, Control_c, 0, 64, 59
1, 833334, Control_c, 0, 64, 69
1, 833335, Note_off_c, 0, 27, 62
1, 833348, Control_c, 0, 64, 79
1, 833363, Control_c, 0, 64, 99
1, 833374, Note_off_c, 0, 39, 64
1, 833385, Control_c, 0, 64, 127
1, 833413, Note_off_c, 0, 56, 46
1, 833415, Note_off_c, 0, 67, 50
1, 833427, Note_off_c, 0, 62, 58
1, 833432, Poly_aftertouch_c, 0, 64, 0
1, 833554, Note_on_c, 0, 62, 61
1, 833570, Note_off_c, 0, 58, 65
1, 833572, Note_on_c, 0, 56, 43
1, 833604, Note_on_c, 0, 46, 49
1, 833644, Note_off_c, 0, 46, 63
1, 833657, Note_on_c, 0, 67, 67
1, 833667, Note_off_c, 0, 56, 64
1, 833676, Note_off_c, 0, 62, 62
1, 833700, Note_off_c, 0, 67, 62
1, 833867, Note_on_c, 0, 62, 53
1, 833891, Note_on_c, 0, 67, 52
1, 833912, Note_on_c, 0, 56, 46
1, 833964, Control_c, 0, 64, 83
1, 833978, Control_c, 0, 64, 69
1, 833980, Note_on_c, 0, 79, 87
1, 833990, Note_on_c, 0, 72, 56
1, 833993, Control_c, 0, 64, 67
1, 834008, Control_c, 0, 64, 70
1, 834023, Control_c, 0, 64, 76
1, 834038, Control_c, 0, 64, 89
1, 834053, Control_c, 0, 64, 127
1, 834172, Note_off_c, 0, 72, 63
1, 834181, Note_off_c, 0, 62, 59
1, 834204, Note_on_c, 0, 71, 60
1, 834253, Note_on_c, 0, 65, 44
1, 834253, Note_off_c, 0, 67, 62
1, 834265, Note_off_c, 0, 71, 63
1, 834333, Note_on_c, 0, 70, 60
1, 834454, Note_off_c, 0, 65, 34
1, 834455, Note_on_c, 0, 63, 54
1, 834460, Control_c, 0, 64, 120
1, 834468, Note_off_c, 0, 70, 63
1, 834474, Note_on_c, 0, 69, 70
1, 834476, Control_c, 0, 64, 78
1, 834491, Control_c, 0, 64, 64
1, 834506, Control_c, 0, 64, 58
1, 834521, Control_c, 0, 64, 60
1, 834535, Control_c, 0, 64, 63
1, 834549, Control_c, 0, 64, 68
1, 834557, Note_off_c, 0, 63, 62
1, 834564, Control_c, 0, 64, 75
1, 834579, Control_c, 0, 64, 86
1, 834593, Control_c, 0, 64, 96
1, 834608, Control_c, 0, 64, 102
1, 834615, Note_on_c, 0, 68, 64
1, 834623, Control_c, 0, 64, 103
1, 834633, Note_on_c, 0, 62, 48
1, 834645, Note_off_c, 0, 69, 48
1, 834653, Control_c, 0, 64, 104
1, 834666, Note_on_c, 0, 77, 19
1, 834667, Control_c, 0, 64, 111
1, 834682, Control_c, 0, 64, 127
1, 834684, Note_off_c, 0, 79, 60
1, 834706, Note_off_c, 0, 77, 40
1, 834748, Note_on_c, 0, 70, 75
1, 834799, Note_off_c, 0, 62, 37
1, 834870, Note_off_c, 0, 68, 53
1, 834904, Note_off_c, 0, 70, 60
1, 834909, Note_on_c, 0, 65, 25
1, 834957, Note_on_c, 0, 60, 30
1, 835035, Note_off_c, 0, 65, 50
1, 835037, Note_on_c, 0, 70, 61
1, 835045, Note_on_c, 0, 63, 31
1, 835046, Control_c, 0, 64, 112
1, 835061, Control_c, 0, 64, 78
1, 835075, Control_c, 0, 64, 63
1, 835079, Note_on_c, 0, 68, 41
1, 835090, Control_c, 0, 64, 50
1, 835105, Control_c, 0, 64, 47
1, 835119, Control_c, 0, 64, 52
1, 835134, Control_c, 0, 64, 59
1, 835149, Control_c, 0, 64, 64
1, 835164, Control_c, 0, 64, 69
1, 835165, Note_off_c, 0, 68, 58
1, 835179, Control_c, 0, 64, 74
1, 835189, Note_off_c, 0, 56, 53
1, 835193, Control_c, 0, 64, 80
1, 835208, Control_c, 0, 64, 86
1, 835213, Note_off_c, 0, 60, 57
1, 835223, Control_c, 0, 64, 92
1, 835235, Note_on_c, 0, 67, 39
1, 835238, Control_c, 0, 64, 98
1, 835253, Control_c, 0, 64, 108
1, 835269, Control_c, 0, 64, 127
1, 835271, Note_on_c, 0, 59, 50
1, 835376, Note_on_c, 0, 66, 43
1, 835391, Note_off_c, 0, 67, 35
1, 835402, Note_off_c, 0, 59, 59
1, 835576, Note_on_c, 0, 58, 43
1, 835579, Control_c, 0, 64, 99
1, 835594, Control_c, 0, 64, 77
1, 835609, Control_c, 0, 64, 67
1, 835631, Control_c, 0, 64, 65
1, 835646, Control_c, 0, 64, 66
1, 835661, Note_on_c, 0, 75, 59
1, 835661, Control_c, 0, 64, 71
1, 835675, Note_on_c, 0, 67, 37
1, 835676, Control_c, 0, 64, 78
1, 835682, Note_off_c, 0, 66, 59
1, 835684, Note_off_c, 0, 70, 55
1, 835690, Control_c, 0, 64, 89
1, 835705, Control_c, 0, 64, 99
1, 835710, Note_off_c, 0, 63, 53
1, 835720, Control_c, 0, 64, 105
1, 835735, Control_c, 0, 64, 109
1, 835749, Control_c, 0, 64, 115
1, 835756, Note_off_c, 0, 58, 63
1, 835764, Control_c, 0, 64, 127
1, 835859, Note_off_c, 0, 67, 37
1, 835880, Note_on_c, 0, 70, 64
1, 835939, Note_on_c, 0, 55, 54
1, 835941, Note_off_c, 0, 75, 57
1, 836053, Note_on_c, 0, 63, 67
1, 836067, Note_off_c, 0, 70, 62
1, 836096, Note_off_c, 0, 55, 37
1, 836138, Note_on_c, 0, 46, 63
1, 836187, Note_off_c, 0, 63, 60
1, 836245, Note_on_c, 0, 58, 79
1, 836402, Note_off_c, 0, 58, 61
1, 836435, Note_on_c, 0, 63, 82
1, 836438, Note_on_c, 0, 39, 66
1, 836448, Note_off_c, 0, 46, 48
1, 836456, Poly_aftertouch_c, 0, 68, 127
1, 836508, Note_off_c, 0, 39, 64
1, 836548, Poly_aftertouch_c, 0, 68, 0
1, 836602, Note_off_c, 0, 63, 61
1, 836637, Note_on_c, 0, 55, 94
1, 836672, Note_on_c, 0, 59, 29
1, 836678, Note_off_c, 0, 55, 66
1, 836709, Note_off_c, 0, 59, 43
1, 837150, Note_on_c, 0, 74, 91
1, 837156, Note_on_c, 0, 67, 81
1, 837156, Note_on_c, 0, 70, 84
1, 837159, Control_c, 0, 64, 98
1, 837168, Note_on_c, 0, 31, 61
1, 837169, Note_on_c, 0, 43, 62
1, 837174, Control_c, 0, 64, 62
1, 837189, Control_c, 0, 64, 0
1, 837234, Control_c, 0, 64, 33
1, 837248, Control_c, 0, 64, 63
1, 837263, Control_c, 0, 64, 73
1, 837278, Control_c, 0, 64, 87
1, 837293, Control_c, 0, 64, 107
1, 837297, Note_off_c, 0, 31, 62
1, 837308, Control_c, 0, 64, 127
1, 837324, Note_off_c, 0, 43, 63
1, 837348, Note_off_c, 0, 67, 63
1, 837368, Note_off_c, 0, 70, 56
1, 837637, Note_on_c, 0, 75, 89
1, 837648, Note_on_c, 0, 50, 64
1, 837653, Note_on_c, 0, 66, 85
1, 837666, Note_off_c, 0, 74, 62
1, 837748, Note_off_c, 0, 66, 58
1, 837937, Note_on_c, 0, 61, 57
1, 837943, Note_on_c, 0, 57, 57
1, 837982, Control_c, 0, 64, 74
1, 837997, Control_c, 0, 64, 56
1, 838012, Control_c, 0, 64, 29
1, 838024, Note_on_c, 0, 65, 69
1, 838027, Note_on_c, 0, 73, 84
1, 838027, Control_c, 0, 64, 31
1, 838041, Control_c, 0, 64, 45
1, 838056, Control_c, 0, 64, 60
1, 838071, Control_c, 0, 64, 67
1, 838086, Control_c, 0, 64, 79
1, 838101, Control_c, 0, 64, 104
1, 838116, Control_c, 0, 64, 127
1, 838116, Note_off_c, 0, 75, 64
1, 838136, Note_off_c, 0, 65, 62
1, 838193, Note_off_c, 0, 61, 62
1, 838205, Note_off_c, 0, 50, 64
1, 838211, Note_off_c, 0, 57, 65
1, 838348, Note_on_c, 0, 64, 75
1, 838514, Note_on_c, 0, 43, 77
1, 838515, Control_c, 0, 64, 80
1, 838530, Control_c, 0, 64, 65
1, 838545, Control_c, 0, 64, 62
1, 838560, Control_c, 0, 64, 63
1, 838575, Control_c, 0, 64, 67
1, 838590, Control_c, 0, 64, 75
1, 838612, Control_c, 0, 64, 92
1, 838627, Control_c, 0, 64, 127
1, 838649, Note_off_c, 0, 43, 55
1, 838709, Note_on_c, 0, 74, 84
1, 838726, Note_on_c, 0, 65, 66
1, 838727, Note_on_c, 0, 50, 67
1, 838727, Note_off_c, 0, 73, 66
1, 838876, Note_off_c, 0, 64, 53
1, 839039, Note_on_c, 0, 60, 43
1, 839043, Note_on_c, 0, 56, 60
1, 839087, Control_c, 0, 64, 84
1, 839088, Note_off_c, 0, 65, 33
1, 839098, Note_on_c, 0, 64, 59
1, 839099, Note_on_c, 0, 72, 76
1, 839102, Control_c, 0, 64, 55
1, 839116, Control_c, 0, 64, 0
1, 839129, Note_on_c, 0, 68, 50
1, 839155, Note_off_c, 0, 74, 63
1, 839190, Control_c, 0, 64, 20
1, 839205, Control_c, 0, 64, 59
1, 839220, Control_c, 0, 64, 65
1, 839234, Control_c, 0, 64, 69
1, 839249, Control_c, 0, 64, 71
1, 839265, Control_c, 0, 64, 73
1, 839280, Control_c, 0, 64, 77
1, 839295, Control_c, 0, 64, 83
1, 839310, Control_c, 0, 64, 94
1, 839311, Note_off_c, 0, 56, 63
1, 839324, Note_off_c, 0, 60, 37
1, 839325, Control_c, 0, 64, 119
1, 839339, Control_c, 0, 64, 127
1, 839364, Note_off_c, 0, 64, 58
1, 839384, Note_on_c, 0, 63, 42
1, 839539, Control_c, 0, 64, 104
1, 839550, Note_on_c, 0, 43, 53
1, 839554, Control_c, 0, 64, 78
1, 839569, Control_c, 0, 64, 67
1, 839584, Control_c, 0, 64, 66
1, 839598, Control_c, 0, 64, 68
1, 839613, Control_c, 0, 64, 72
1, 839628, Control_c, 0, 64, 81
1, 839629, Note_off_c, 0, 50, 34
1, 839643, Control_c, 0, 64, 97
1, 839657, Control_c, 0, 64, 127
1, 839677, Note_off_c, 0, 43, 38
1, 839724, Note_on_c, 0, 50, 43
1, 839726, Note_on_c, 0, 74, 67
1, 839726, Note_on_c, 0, 64, 58
1, 839750, Note_off_c, 0, 68, 41
1, 839756, Note_off_c, 0, 63, 34
1, 839757, Note_off_c, 0, 72, 63
1, 839877, Note_off_c, 0, 74, 44
1, 840013, Control_c, 0, 64, 96
1, 840028, Control_c, 0, 64, 69
1, 840031, Note_on_c, 0, 55, 41
1, 840041, Note_off_c, 0, 64, 58
1, 840043, Control_c, 0, 64, 57
1, 840045, Note_on_c, 0, 63, 42
1, 840046, Note_on_c, 0, 58, 32
1, 840050, Note_on_c, 0, 70, 57
1, 840059, Control_c, 0, 64, 46
1, 840074, Control_c, 0, 64, 48
1, 840082, Note_off_c, 0, 50, 37
1, 840088, Control_c, 0, 64, 55
1, 840103, Control_c, 0, 64, 62
1, 840125, Control_c, 0, 64, 67
1, 840140, Control_c, 0, 64, 73
1, 840155, Control_c, 0, 64, 80
1, 840170, Control_c, 0, 64, 88
1, 840185, Control_c, 0, 64, 100
1, 840200, Control_c, 0, 64, 127
1, 840205, Note_off_c, 0, 58, 61
1, 840229, Note_off_c, 0, 55, 51
1, 840411, Note_on_c, 0, 62, 40
1, 840459, Note_off_c, 0, 63, 31
1, 840833, Note_on_c, 0, 34, 42
1, 840836, Control_c, 0, 64, 80
1, 840851, Control_c, 0, 64, 64
1, 840874, Control_c, 0, 64, 46
1, 840889, Control_c, 0, 64, 44
1, 840904, Control_c, 0, 64, 49
1, 840918, Control_c, 0, 64, 57
1, 840933, Control_c, 0, 64, 63
1, 840948, Control_c, 0, 64, 67
1, 840957, Note_off_c, 0, 34, 57
1, 840963, Control_c, 0, 64, 74
1, 840978, Control_c, 0, 64, 81
1, 840993, Control_c, 0, 64, 91
1, 841007, Control_c, 0, 64, 105
1, 841022, Control_c, 0, 64, 127
1, 841073, Note_off_c, 0, 62, 26
1, 841270, Note_on_c, 0, 62, 42
1, 841272, Note_on_c, 0, 41, 32
1, 841276, Note_on_c, 0, 58, 25
1, 841525, Note_off_c, 0, 41, 39
1, 841529, Note_on_c, 0, 57, 40
1, 841555, Note_on_c, 0, 50, 23
1, 841571, Note_on_c, 0, 46, 29
1, 841650, Note_on_c, 0, 65, 65
1, 841687, Note_off_c, 0, 58, 0
1, 841725, Poly_aftertouch_c, 0, 58, 127
1, 841769, Note_off_c, 0, 57, 54
1, 841771, Note_off_c, 0, 62, 28
1, 841780, Poly_aftertouch_c, 0, 58, 0
1, 841815, Note_off_c, 0, 70, 39
1, 841852, Note_on_c, 0, 62, 43
1, 841869, Note_on_c, 0, 41, 53
1, 841875, Note_off_c, 0, 46, 41
1, 841887, Note_on_c, 0, 58, 51
1, 841942, Note_off_c, 0, 50, 47
1, 842018, Note_on_c, 0, 70, 85
1, 842030, Note_off_c, 0, 41, 56
1, 842047, Note_on_c, 0, 50, 54
1, 842051, Note_on_c, 0, 56, 46
1, 842054, Note_on_c, 0, 46, 44
1, 842077, Note_on_c, 0, 67, 39
1, 842099, Note_off_c, 0, 56, 64
1, 842119, Note_off_c, 0, 62, 47
1, 842160, Note_off_c, 0, 50, 63
1, 842168, Note_on_c, 0, 41, 50
1, 842170, Note_off_c, 0, 46, 59
1, 842191, Note_on_c, 0, 62, 46
1, 842194, Note_off_c, 0, 67, 60
1, 842199, Note_off_c, 0, 41, 57
1, 842202, Note_off_c, 0, 58, 56
1, 842215, Note_off_c, 0, 70, 62
1, 842226, Note_off_c, 0, 65, 62
1, 842480, Note_on_c, 0, 34, 49
1, 842549, Control_c, 0, 64, 122
1, 842563, Note_on_c, 0, 72, 77
1, 842563, Control_c, 0, 64, 73
1, 842578, Control_c, 0, 64, 58
1, 842593, Control_c, 0, 64, 47
1, 842607, Control_c, 0, 64, 51
1, 842622, Control_c, 0, 64, 57
1, 842637, Control_c, 0, 64, 65
1, 842652, Control_c, 0, 64, 74
1, 842667, Control_c, 0, 64, 92
1, 842681, Control_c, 0, 64, 127
1, 842696, Note_off_c, 0, 34, 60
1, 842724, Note_off_c, 0, 62, 64
1, 842939, Poly_aftertouch_c, 0, 68, 127
1, 842941, Note_on_c, 0, 41, 43
1, 842977, Note_on_c, 0, 61, 52
1, 843017, Note_on_c, 0, 58, 21
1, 843090, Note_off_c, 0, 58, 37
1, 843178, Note_off_c, 0, 41, 37
1, 843185, Note_on_c, 0, 49, 42
1, 843198, Note_on_c, 0, 55, 36
1, 843199, Note_on_c, 0, 65, 56
1, 843225, Note_off_c, 0, 72, 42
1, 843229, Note_on_c, 0, 46, 22
1, 843326, Note_on_c, 0, 41, 61
1, 843326, Note_off_c, 0, 61, 0
1, 843336, Note_off_c, 0, 46, 37
1, 843343, Note_on_c, 0, 61, 30
1, 843356, Note_off_c, 0, 55, 34
1, 843366, Note_off_c, 0, 49, 51
1, 843366, Poly_aftertouch_c, 0, 68, 0
1, 843397, Note_on_c, 0, 58, 31
1, 843425, Note_off_c, 0, 41, 59
1, 843516, Note_on_c, 0, 70, 78
1, 843523, Note_on_c, 0, 49, 54
1, 843535, Note_on_c, 0, 56, 41
1, 843548, Note_off_c, 0, 65, 56
1, 843550, Note_on_c, 0, 46, 43
1, 843565, Note_off_c, 0, 56, 55
1, 843573, Note_off_c, 0, 58, 40
1, 843592, Note_off_c, 0, 61, 48
1, 843600, Note_off_c, 0, 46, 62
1, 843607, Note_off_c, 0, 49, 62
1, 843673, Note_on_c, 0, 58, 49
1, 843678, Note_on_c, 0, 65, 63
1, 843699, Note_on_c, 0, 62, 51
1, 843786, Control_c, 0, 64, 84
1, 843801, Control_c, 0, 64, 64
1, 843809, Note_on_c, 0, 34, 63
1, 843816, Control_c, 0, 64, 53
1, 843830, Control_c, 0, 64, 54
1, 843845, Control_c, 0, 64, 58
1, 843848, Note_off_c, 0, 62, 59
1, 843848, Note_off_c, 0, 65, 57
1, 843868, Control_c, 0, 64, 64
1, 843870, Note_off_c, 0, 34, 61
1, 843876, Note_off_c, 0, 58, 59
1, 843878, Poly_aftertouch_c, 0, 67, 127
1, 843883, Control_c, 0, 64, 70
1, 843898, Control_c, 0, 64, 79
1, 843912, Control_c, 0, 64, 95
1, 843927, Control_c, 0, 64, 127
1, 843984, Note_on_c, 0, 62, 66
1, 843985, Note_on_c, 0, 65, 68
1, 844002, Note_on_c, 0, 41, 65
1, 844009, Note_on_c, 0, 58, 50
1, 844031, Note_off_c, 0, 70, 60
1, 844167, Note_off_c, 0, 58, 32
1, 844224, Note_on_c, 0, 50, 41
1, 844230, Note_on_c, 0, 57, 45
1, 844243, Note_on_c, 0, 69, 85
1, 844257, Note_on_c, 0, 46, 45
1, 844276, Poly_aftertouch_c, 0, 67, 0
1, 844313, Note_off_c, 0, 41, 48
1, 844313, Poly_aftertouch_c, 0, 67, 127
1, 844340, Note_off_c, 0, 65, 57
1, 844382, Note_off_c, 0, 57, 63
1, 844383, Note_on_c, 0, 58, 67
1, 844400, Note_off_c, 0, 62, 55
1, 844419, Note_off_c, 0, 46, 62
1, 844422, Note_on_c, 0, 41, 73
1, 844517, Note_off_c, 0, 50, 0
1, 844526, Poly_aftertouch_c, 0, 67, 0
1, 844527, Note_off_c, 0, 41, 59
1, 844539, Note_on_c, 0, 50, 28
1, 844539, Note_off_c, 0, 69, 63
1, 844549, Note_on_c, 0, 65, 76
1, 844550, Note_on_c, 0, 62, 78
1, 844560, Note_on_c, 0, 46, 60
1, 844567, Note_off_c, 0, 58, 56
1, 844675, Note_on_c, 0, 41, 58
1, 844709, Note_off_c, 0, 50, 56
1, 844710, Note_off_c, 0, 46, 60
1, 844713, Note_on_c, 0, 70, 92
1, 844719, Note_off_c, 0, 41, 65
1, 844725, Note_on_c, 0, 58, 81
1, 844752, Note_off_c, 0, 65, 59
1, 844769, Note_off_c, 0, 62, 62
1, 844897, Note_off_c, 0, 70, 55
1, 844925, Note_off_c, 0, 58, 35
1, 844943, Note_on_c, 0, 61, 40
1, 844944, Note_on_c, 0, 65, 38
1, 844945, Poly_aftertouch_c, 0, 67, 127
1, 844947, Note_on_c, 0, 37, 59
1, 845002, Poly_aftertouch_c, 0, 66, 127
1, 845003, Control_c, 0, 64, 77
1, 845017, Control_c, 0, 64, 56
1, 845032, Control_c, 0, 64, 32
1, 845036, Note_on_c, 0, 70, 80
1, 845045, Note_on_c, 0, 58, 63
1, 845047, Control_c, 0, 64, 38
1, 845061, Control_c, 0, 64, 54
1, 845076, Control_c, 0, 64, 64
1, 845091, Control_c, 0, 64, 74
1, 845091, Note_off_c, 0, 37, 62
1, 845106, Control_c, 0, 64, 105
1, 845121, Control_c, 0, 64, 127
1, 845160, Note_off_c, 0, 58, 61
1, 845219, Note_off_c, 0, 70, 62
1, 845273, Note_on_c, 0, 43, 62
1, 845300, Note_on_c, 0, 69, 82
1, 845315, Note_on_c, 0, 57, 58
1, 845343, Note_off_c, 0, 43, 61
1, 845393, Note_off_c, 0, 57, 62
1, 845394, Note_off_c, 0, 69, 61
1, 845407, Note_off_c, 0, 61, 62
1, 845419, Poly_aftertouch_c, 0, 67, 0
1, 845423, Poly_aftertouch_c, 0, 66, 0
1, 845432, Note_off_c, 0, 65, 49
1, 845468, Note_on_c, 0, 58, 68
1, 845471, Note_on_c, 0, 69, 81
1, 845476, Note_on_c, 0, 53, 45
1, 845497, Note_on_c, 0, 61, 66
1, 845500, Note_on_c, 0, 49, 40
1, 845508, Note_on_c, 0, 65, 56
1, 845529, Note_off_c, 0, 69, 61
1, 845534, Note_off_c, 0, 58, 63
1, 845631, Note_on_c, 0, 68, 79
1, 845632, Note_on_c, 0, 43, 64
1, 845635, Note_off_c, 0, 65, 61
1, 845639, Note_off_c, 0, 53, 54
1, 845646, Control_c, 0, 64, 99
1, 845657, Note_off_c, 0, 49, 35
1, 845662, Control_c, 0, 64, 71
1, 845667, Note_on_c, 0, 56, 63
1, 845677, Control_c, 0, 64, 62
1, 845678, Note_off_c, 0, 61, 57
1, 845692, Control_c, 0, 64, 61
1, 845706, Control_c, 0, 64, 64
1, 845721, Control_c, 0, 64, 68
1, 845736, Control_c, 0, 64, 77
1, 845746, Note_off_c, 0, 68, 61
1, 845747, Note_off_c, 0, 56, 56
1, 845751, Control_c, 0, 64, 96
1, 845764, Note_off_c, 0, 43, 53
1, 845766, Control_c, 0, 64, 127
1, 845779, Poly_aftertouch_c, 0, 46, 127
1, 845789, Note_on_c, 0, 65, 43
1, 845801, Note_on_c, 0, 53, 52
1, 845806, Note_on_c, 0, 49, 58
1, 845822, Note_on_c, 0, 61, 58
1, 845826, Poly_aftertouch_c, 0, 46, 0
1, 845833, Note_on_c, 0, 68, 78
1, 845849, Note_on_c, 0, 56, 68
1, 845868, Note_off_c, 0, 65, 53
1, 845926, Note_on_c, 0, 43, 55
1, 845932, Note_off_c, 0, 53, 62
1, 845938, Note_off_c, 0, 56, 63
1, 845942, Note_off_c, 0, 68, 58
1, 845949, Note_off_c, 0, 49, 62
1, 845958, Note_off_c, 0, 43, 64
1, 846013, Note_on_c, 0, 67, 69
1, 846028, Note_on_c, 0, 55, 56
1, 846067, Note_off_c, 0, 61, 61
1, 846136, Note_off_c, 0, 55, 61
1, 846158, Control_c, 0, 64, 73
1, 846173, Control_c, 0, 64, 53
1, 846188, Control_c, 0, 64, 31
1, 846203, Note_on_c, 0, 36, 70
1, 846203, Control_c, 0, 64, 37
1, 846218, Control_c, 0, 64, 51
1, 846232, Control_c, 0, 64, 63
1, 846247, Control_c, 0, 64, 70
1, 846254, Note_off_c, 0, 67, 64
1, 846262, Control_c, 0, 64, 85
1, 846263, Note_off_c, 0, 36, 62
1, 846277, Control_c, 0, 64, 127
1, 846385, Note_on_c, 0, 64, 71
1, 846397, Note_on_c, 0, 60, 56
1, 846401, Note_on_c, 0, 43, 62
1, 846447, Note_off_c, 0, 60, 55
1, 846505, Note_off_c, 0, 43, 57
1, 846517, Note_off_c, 0, 64, 63
1, 846549, Note_on_c, 0, 59, 68
1, 846558, Note_on_c, 0, 67, 94
1, 846563, Note_on_c, 0, 52, 60
1, 846633, Note_off_c, 0, 59, 61
1, 846662, Poly_aftertouch_c, 0, 48, 127
1, 846668, Note_on_c, 0, 43, 73
1, 846700, Note_on_c, 0, 64, 47
1, 846709, Note_on_c, 0, 60, 44
1, 846713, Poly_aftertouch_c, 0, 48, 0
1, 846752, Note_off_c, 0, 43, 60
1, 846803, Poly_aftertouch_c, 0, 45, 127
1, 846813, Note_on_c, 0, 58, 69
1, 846832, Poly_aftertouch_c, 0, 48, 127
1, 846832, Poly_aftertouch_c, 0, 45, 0
1, 846849, Note_on_c, 0, 72, 97
1, 846865, Note_off_c, 0, 67, 36
1, 846877, Note_off_c, 0, 58, 65
1, 846913, Note_off_c, 0, 64, 63
1, 846925, Note_off_c, 0, 52, 59
1, 846929, Note_on_c, 0, 43, 62
1, 846929, Poly_aftertouch_c, 0, 48, 0
1, 846959, Note_off_c, 0, 43, 63
1, 846997, Note_on_c, 0, 64, 70
1, 847011, Note_off_c, 0, 72, 64
1, 847117, Poly_aftertouch_c, 0, 48, 127
1, 847135, Note_on_c, 0, 36, 79
1, 847142, Poly_aftertouch_c, 0, 48, 0
1, 847159, Control_c, 0, 64, 82
1, 847173, Control_c, 0, 64, 58
1, 847181, Note_on_c, 0, 38, 21
1, 847188, Control_c, 0, 64, 12
1, 847203, Control_c, 0, 64, 15
1, 847217, Note_on_c, 0, 73, 99
1, 847218, Control_c, 0, 64, 39
1, 847229, Note_off_c, 0, 38, 39
1, 847233, Control_c, 0, 64, 60
1, 847235, Note_off_c, 0, 36, 64
1, 847249, Control_c, 0, 64, 69
1, 847258, Note_off_c, 0, 64, 64
1, 847264, Control_c, 0, 64, 86
1, 847279, Control_c, 0, 64, 127
1, 847358, Note_off_c, 0, 60, 0
1, 847380, Note_off_c, 0, 73, 63
1, 847395, Note_on_c, 0, 63, 77
1, 847395, Poly_aftertouch_c, 0, 60, 127
1, 847409, Note_on_c, 0, 55, 45
1, 847425, Note_on_c, 0, 43, 30
1, 847428, Note_on_c, 0, 45, 27
1, 847463, Note_off_c, 0, 43, 49
1, 847468, Note_off_c, 0, 45, 51
1, 847518, Note_off_c, 0, 63, 53
1, 847521, Note_on_c, 0, 51, 73
1, 847531, Note_on_c, 0, 67, 86
1, 847547, Poly_aftertouch_c, 0, 60, 0
1, 847584, Poly_aftertouch_c, 0, 60, 127
1, 847618, Poly_aftertouch_c, 0, 60, 0
1, 847663, Note_on_c, 0, 63, 85
1, 847680, Note_on_c, 0, 60, 58
1, 847691, Note_off_c, 0, 51, 63
1, 847737, Note_on_c, 0, 58, 72
1, 847775, Note_on_c, 0, 51, 69
1, 847788, Note_off_c, 0, 67, 62
1, 847798, Note_off_c, 0, 58, 64
1, 847811, Note_on_c, 0, 72, 94
1, 847813, Note_off_c, 0, 55, 53
1, 847824, Note_off_c, 0, 51, 64
1, 847870, Note_off_c, 0, 63, 61
1, 847942, Note_on_c, 0, 63, 69
1, 847977, Note_on_c, 0, 67, 61
1, 847983, Note_on_c, 0, 69, 29
1, 848012, Control_c, 0, 64, 96
1, 848027, Control_c, 0, 64, 73
1, 848033, Note_on_c, 0, 36, 84
1, 848042, Control_c, 0, 64, 68
1, 848057, Control_c, 0, 64, 70
1, 848072, Control_c, 0, 64, 78
1, 848084, Note_off_c, 0, 36, 64
1, 848087, Control_c, 0, 64, 112
1, 848100, Note_off_c, 0, 72, 59
1, 848102, Control_c, 0, 64, 127
1, 848108, Note_off_c, 0, 63, 58
1, 848128, Note_off_c, 0, 67, 62
1, 848153, Note_off_c, 0, 69, 52
1, 848162, Note_off_c, 0, 60, 59
1, 848195, Note_on_c, 0, 64, 84
1, 848209, Note_on_c, 0, 67, 72
1, 848222, Note_on_c, 0, 60, 28
1, 848252, Note_off_c, 0, 60, 49
1, 848259, Note_off_c, 0, 67, 63
1, 848272, Note_off_c, 0, 64, 63
1, 848306, Poly_aftertouch_c, 0, 66, 0
1, 848361, Note_on_c, 0, 71, 109
1, 848365, Note_on_c, 0, 57, 80
1, 848369, Poly_aftertouch_c, 0, 52, 127
1, 848375, Note_on_c, 0, 48, 8
1, 848474, Note_off_c, 0, 57, 59
1, 848483, Note_on_c, 0, 43, 53
1, 848491, Note_on_c, 0, 60, 80
1, 848504, Poly_aftertouch_c, 0, 44, 127
1, 848520, Note_on_c, 0, 67, 67
1, 848531, Poly_aftertouch_c, 0, 44, 0
1, 848536, Note_on_c, 0, 64, 68
1, 848542, Note_on_c, 0, 52, 3
1, 848543, Note_off_c, 0, 43, 59
1, 848554, Note_off_c, 0, 71, 54
1, 848580, Note_off_c, 0, 60, 62
1, 848634, Note_off_c, 0, 67, 64
1, 848676, Note_on_c, 0, 59, 90
1, 848689, Note_on_c, 0, 72, 100
1, 848705, Note_off_c, 0, 59, 70
1, 848744, Note_off_c, 0, 64, 65
1, 848752, Note_on_c, 0, 60, 6
1, 848793, Note_off_c, 0, 60, 41
1, 848846, Note_on_c, 0, 43, 77
1, 848850, Note_on_c, 0, 60, 66
1, 848867, Note_on_c, 0, 63, 87
1, 848868, Note_on_c, 0, 67, 77
1, 848870, Note_off_c, 0, 48, 54
1, 848870, Note_off_c, 0, 52, 60
1, 848880, Note_off_c, 0, 43, 66
1, 848936, Poly_aftertouch_c, 0, 69, 127
1, 848967, Note_off_c, 0, 72, 54
1, 849004, Note_off_c, 0, 63, 60
1, 849022, Note_off_c, 0, 60, 59
1, 849172, Note_on_c, 0, 33, 87
1, 849243, Control_c, 0, 64, 76
1, 849247, Note_on_c, 0, 72, 88
1, 849251, Note_on_c, 0, 63, 90
1, 849253, Note_on_c, 0, 60, 88
1, 849257, Control_c, 0, 64, 0
1, 849302, Control_c, 0, 64, 20
1, 849317, Control_c, 0, 64, 63
1, 849331, Control_c, 0, 64, 80
1, 849346, Control_c, 0, 64, 127
1, 849357, Note_off_c, 0, 33, 63
1, 849394, Note_off_c, 0, 60, 62
1, 849403, Note_off_c, 0, 72, 63
1, 849501, Poly_aftertouch_c, 0, 69, 0
1, 849554, Note_on_c, 0, 71, 96
1, 849558, Note_on_c, 0, 45, 74
1, 849563, Note_on_c, 0, 59, 96
1, 849598, Note_off_c, 0, 67, 57
1, 849622, Note_off_c, 0, 63, 59
1, 849664, Note_off_c, 0, 45, 62
1, 849676, Note_on_c, 0, 52, 47
1, 849688, Note_off_c, 0, 59, 62
1, 849689, Note_off_c, 0, 71, 62
1, 849750, Poly_aftertouch_c, 0, 55, 127
1, 849755, Note_on_c, 0, 55, 32
1, 849759, Note_on_c, 0, 71, 92
1, 849764, Note_on_c, 0, 67, 85
1, 849768, Note_on_c, 0, 63, 91
1, 849779, Note_on_c, 0, 61, 81
1, 849818, Note_off_c, 0, 71, 63
1, 849831, Note_off_c, 0, 61, 62
1, 849893, Note_off_c, 0, 63, 60
1, 849896, Note_off_c, 0, 67, 51
1, 849912, Note_on_c, 0, 70, 89
1, 849923, Note_on_c, 0, 45, 77
1, 849936, Note_on_c, 0, 58, 89
1, 849940, Note_on_c, 0, 47, 74
1, 849941, Note_off_c, 0, 52, 51
1, 849959, Note_off_c, 0, 55, 59
1, 849998, Note_off_c, 0, 70, 62
1, 849999, Note_off_c, 0, 58, 61
1, 850012, Note_off_c, 0, 45, 61
1, 850016, Note_off_c, 0, 47, 57
1, 850069, Poly_aftertouch_c, 0, 68, 0
1, 850069, Note_on_c, 0, 55, 81
1, 850075, Note_on_c, 0, 64, 94
1, 850081, Note_on_c, 0, 52, 64
1, 850086, Note_on_c, 0, 70, 93
1, 850096, Poly_aftertouch_c, 0, 68, 0
1, 850173, Note_off_c, 0, 70, 63
1, 850195, Poly_aftertouch_c, 0, 53, 0
1, 850202, Note_on_c, 0, 47, 74
1, 850206, Note_off_c, 0, 52, 65
1, 850212, Note_off_c, 0, 55, 65
1, 850227, Note_off_c, 0, 47, 67
1, 850232, Note_on_c, 0, 69, 98
1, 850236, Note_on_c, 0, 57, 96
1, 850275, Note_off_c, 0, 57, 67
1, 850280, Note_off_c, 0, 64, 63
1, 850290, Note_off_c, 0, 69, 67
1, 850302, Poly_aftertouch_c, 0, 63, 0
1, 850364, Note_on_c, 0, 42, 40
1, 850406, Note_off_c, 0, 42, 60
1, 850445, Note_on_c, 0, 38, 91
1, 850452, Control_c, 0, 64, 70
1, 850467, Control_c, 0, 64, 0
1, 850511, Control_c, 0, 64, 50
1, 850526, Control_c, 0, 64, 70
1, 850541, Control_c, 0, 64, 90
1, 850546, Note_off_c, 0, 38, 63
1, 850556, Control_c, 0, 64, 127
1, 850648, Note_on_c, 0, 66, 90
1, 850657, Note_on_c, 0, 51, 71
1, 850659, Note_on_c, 0, 62, 71
1, 850685, Note_off_c, 0, 62, 67
1, 850703, Note_off_c, 0, 66, 65
1, 850719, Note_on_c, 0, 54, 59
1, 850835, Note_off_c, 0, 51, 29
1, 850836, Note_on_c, 0, 61, 90
1, 850842, Note_on_c, 0, 69, 108
1, 850872, Note_on_c, 0, 50, 34
1, 850901, Note_off_c, 0, 61, 64
1, 850927, Note_off_c, 0, 54, 61
1, 850979, Note_on_c, 0, 66, 81
1, 850982, Note_on_c, 0, 45, 75
1, 850987, Note_on_c, 0, 62, 76
1, 850990, Note_on_c, 0, 54, 76
1, 850993, Control_c, 0, 64, 104
1, 851008, Control_c, 0, 64, 94
1, 851023, Control_c, 0, 64, 102
1, 851038, Control_c, 0, 64, 127
1, 851044, Note_on_c, 0, 47, 4
1, 851045, Note_off_c, 0, 69, 58
1, 851071, Poly_aftertouch_c, 0, 71, 0
1, 851072, Note_off_c, 0, 45, 57
1, 851099, Note_off_c, 0, 62, 59
1, 851101, Note_off_c, 0, 47, 32
1, 851108, Note_off_c, 0, 66, 63
1, 851135, Note_on_c, 0, 74, 100
1, 851137, Note_on_c, 0, 60, 98
1, 851170, Note_off_c, 0, 54, 64
1, 851225, Note_off_c, 0, 60, 65
1, 851246, Note_on_c, 0, 62, 55
1, 851261, Note_on_c, 0, 66, 79
1, 851268, Note_off_c, 0, 74, 65
1, 851269, Note_on_c, 0, 54, 100
1, 851271, Note_off_c, 0, 62, 66
1, 851278, Note_on_c, 0, 45, 79
1, 851292, Note_off_c, 0, 66, 59
1, 851300, Note_off_c, 0, 45, 70
1, 851301, Note_off_c, 0, 50, 55
1, 851305, Note_off_c, 0, 54, 67
1, 851488, Note_on_c, 0, 75, 94
1, 851491, Control_c, 0, 64, 73
1, 851506, Control_c, 0, 64, 53
1, 851520, Control_c, 0, 64, 49
1, 851525, Note_on_c, 0, 73, 47
1, 851535, Control_c, 0, 64, 59
1, 851547, Note_on_c, 0, 63, 28
1, 851550, Note_off_c, 0, 73, 38
1, 851550, Control_c, 0, 64, 69
1, 851565, Control_c, 0, 64, 100
1, 851580, Control_c, 0, 64, 127
1, 851587, Note_off_c, 0, 63, 33
1, 851643, Note_on_c, 0, 68, 80
1, 851653, Note_on_c, 0, 63, 77
1, 851656, Note_on_c, 0, 56, 75
1, 851658, Note_on_c, 0, 60, 77
1, 851733, Note_off_c, 0, 63, 62
1, 851760, Note_on_c, 0, 65, 89
1, 851780, Note_on_c, 0, 72, 90
1, 851786, Note_off_c, 0, 56, 56
1, 851799, Note_off_c, 0, 75, 62
1, 851817, Note_off_c, 0, 68, 62
1, 851820, Note_off_c, 0, 60, 59
1, 851823, Note_off_c, 0, 65, 63
1, 851882, Note_on_c, 0, 60, 75
1, 851887, Note_on_c, 0, 50, 80
1, 851891, Note_on_c, 0, 56, 83
1, 851896, Note_on_c, 0, 68, 90
1, 851901, Note_on_c, 0, 63, 75
1, 851926, Note_off_c, 0, 50, 62
1, 851927, Note_off_c, 0, 63, 65
1, 851946, Note_off_c, 0, 72, 60
1, 851992, Note_off_c, 0, 68, 60
1, 852016, Note_off_c, 0, 56, 63
1, 852058, Note_on_c, 0, 66, 100
1, 852102, Note_on_c, 0, 76, 112
1, 852133, Note_off_c, 0, 66, 69
1, 852201, Note_on_c, 0, 56, 82
1, 852220, Note_off_c, 0, 60, 66
1, 852225, Note_on_c, 0, 54, 43
1, 852228, Note_on_c, 0, 64, 67
1, 852228, Note_on_c, 0, 72, 74
1, 852231, Note_on_c, 0, 68, 87
1, 852240, Note_off_c, 0, 56, 67
1, 852257, Note_off_c, 0, 54, 55
1, 852257, Note_off_c, 0, 64, 68
1, 852258, Note_off_c, 0, 76, 65
1, 852275, Note_off_c, 0, 72, 66
1, 852284, Note_off_c, 0, 68, 62
1, 852447, Control_c, 0, 64, 97
1, 852448, Note_on_c, 0, 43, 93
1, 852451, Note_on_c, 0, 31, 86
1, 852462, Control_c, 0, 64, 59
1, 852476, Control_c, 0, 64, 0
1, 852500, Note_on_c, 0, 77, 105
1, 852505, Note_off_c, 0, 31, 63
1, 852505, Control_c, 0, 64, 34
1, 852511, Note_on_c, 0, 71, 78
1, 852520, Control_c, 0, 64, 65
1, 852528, Note_off_c, 0, 43, 64
1, 852535, Control_c, 0, 64, 84
1, 852549, Control_c, 0, 64, 127
1, 852572, Poly_aftertouch_c, 0, 38, 0
1, 852594, Note_off_c, 0, 71, 56
1, 852653, Note_on_c, 0, 65, 70
1, 852676, Note_on_c, 0, 71, 63
1, 852690, Note_on_c, 0, 74, 68
1, 852693, Note_on_c, 0, 50, 79
1, 852693, Poly_aftertouch_c, 0, 76, 0
1, 852714, Note_off_c, 0, 77, 59
1, 852733, Note_off_c, 0, 65, 61
1, 852789, Note_on_c, 0, 53, 79
1, 852796, Note_off_c, 0, 50, 64
1, 852842, Note_off_c, 0, 53, 63
1, 852846, Note_off_c, 0, 74, 60
1, 852892, Note_on_c, 0, 78, 101
1, 852923, Note_on_c, 0, 66, 71
1, 852929, Note_on_c, 0, 59, 89
1, 852952, Note_off_c, 0, 71, 43
1, 853002, Note_on_c, 0, 71, 55
1, 853005, Note_off_c, 0, 59, 64
1, 853006, Note_on_c, 0, 74, 64
1, 853017, Note_on_c, 0, 60, 91
1, 853027, Note_off_c, 0, 66, 63
1, 853036, Note_off_c, 0, 78, 60
1, 853066, Note_off_c, 0, 71, 65
1, 853071, Note_off_c, 0, 74, 63
1, 853103, Note_on_c, 0, 63, 94
1, 853107, Note_off_c, 0, 60, 58
1, 853181, Note_on_c, 0, 64, 94
1, 853254, Note_off_c, 0, 63, 57
1, 853265, Note_on_c, 0, 65, 95
1, 853266, Note_off_c, 0, 64, 58
1, 853271, Note_on_c, 0, 79, 113
1, 853286, Note_on_c, 0, 67, 48
1, 853310, Note_off_c, 0, 67, 37
1, 853360, Note_off_c, 0, 65, 63
1, 853363, Note_on_c, 0, 66, 68
1, 853379, Note_off_c, 0, 66, 68
1, 853416, Note_on_c, 0, 75, 56
1, 853423, Note_on_c, 0, 67, 65
1, 853468, Note_on_c, 0, 70, 69
1, 853505, Control_c, 0, 64, 97
1, 853520, Control_c, 0, 64, 63
1, 853535, Control_c, 0, 64, 42
1, 853542, Note_off_c, 0, 75, 63
1, 853550, Note_on_c, 0, 36, 96
1, 853550, Control_c, 0, 64, 55
1, 853563, Note_off_c, 0, 79, 57
1, 853564, Control_c, 0, 64, 66
1, 853579, Control_c, 0, 64, 88
1, 853602, Control_c, 0, 64, 127
1, 853611, Note_off_c, 0, 36, 65
1, 853617, Note_on_c, 0, 74, 45
1, 853658, Note_on_c, 0, 76, 85
1, 853682, Note_off_c, 0, 74, 33
1, 853697, Note_off_c, 0, 67, 63
1, 853697, Note_off_c, 0, 70, 63
1, 853728, Note_on_c, 0, 55, 93
1, 853733, Note_off_c, 0, 76, 66
1, 853900, Note_on_c, 0, 82, 102
1, 853923, Note_on_c, 0, 83, 67
1, 853936, Note_on_c, 0, 84, 49
1, 853959, Note_off_c, 0, 84, 58
1, 853963, Note_off_c, 0, 83, 0
1, 853963, Note_on_c, 0, 83, 57
1, 853974, Note_off_c, 0, 55, 63
1, 854004, Note_off_c, 0, 83, 58
1, 854028, Note_on_c, 0, 58, 89
1, 854091, Note_on_c, 0, 73, 82
1, 854092, Note_on_c, 0, 70, 89
1, 854164, Note_on_c, 0, 61, 93
1, 854216, Note_off_c, 0, 58, 61
1, 854265, Note_on_c, 0, 64, 93
1, 854271, Note_off_c, 0, 82, 61
1, 854293, Note_off_c, 0, 61, 62
1, 854344, Note_on_c, 0, 76, 50
1, 854377, Note_on_c, 0, 65, 98
1, 854389, Note_off_c, 0, 64, 65
1, 854503, Note_on_c, 0, 66, 92
1, 854535, Note_off_c, 0, 65, 61
1, 854617, Note_on_c, 0, 67, 92
1, 854639, Note_off_c, 0, 70, 62
1, 854656, Note_off_c, 0, 66, 53
1, 854831, Note_on_c, 0, 68, 89
1, 854865, Note_off_c, 0, 76, 41
1, 854885, Control_c, 0, 64, 87
1, 854896, Note_on_c, 0, 80, 97
1, 854900, Control_c, 0, 64, 64
1, 854915, Control_c, 0, 64, 54
1, 854930, Control_c, 0, 64, 60
1, 854944, Control_c, 0, 64, 65
1, 854959, Control_c, 0, 64, 76
1, 854961, Note_off_c, 0, 73, 65
1, 854974, Control_c, 0, 64, 127
1, 854997, Note_off_c, 0, 67, 53
1, 855134, Note_off_c, 0, 68, 60
1, 855140, Note_on_c, 0, 60, 67
1, 855186, Note_on_c, 0, 72, 72
1, 855199, Note_on_c, 0, 68, 62
1, 855220, Note_on_c, 0, 75, 74
1, 855294, Note_on_c, 0, 58, 66
1, 855304, Note_off_c, 0, 60, 55
1, 855311, Note_off_c, 0, 68, 61
1, 855325, Note_off_c, 0, 58, 67
1, 855390, Note_off_c, 0, 80, 63
1, 855757, Note_on_c, 0, 41, 51
1, 855775, Note_on_c, 0, 29, 51
1, 855806, Note_on_c, 0, 79, 89
1, 855826, Control_c, 0, 64, 78
1, 855828, Note_on_c, 0, 71, 73
1, 855848, Control_c, 0, 64, 60
1, 855863, Control_c, 0, 64, 56
1, 855876, Note_off_c, 0, 75, 62
1, 855878, Control_c, 0, 64, 59
1, 855892, Control_c, 0, 64, 64
1, 855907, Control_c, 0, 64, 75
1, 855922, Control_c, 0, 64, 127
1, 855927, Note_off_c, 0, 71, 62
1, 855928, Note_off_c, 0, 72, 63
1, 855941, Note_off_c, 0, 29, 60
1, 855970, Note_off_c, 0, 41, 64
1, 856201, Note_on_c, 0, 67, 54
1, 856201, Note_on_c, 0, 71, 56
1, 856215, Note_on_c, 0, 75, 58
1, 856229, Note_on_c, 0, 51, 64
1, 856240, Note_off_c, 0, 71, 64
1, 856253, Note_off_c, 0, 75, 61
1, 856287, Note_off_c, 0, 79, 60
1, 856333, Note_on_c, 0, 63, 68
1, 856466, Note_on_c, 0, 70, 58
1, 856466, Note_on_c, 0, 77, 88
1, 856489, Note_on_c, 0, 73, 69
1, 856535, Note_off_c, 0, 67, 63
1, 856544, Note_off_c, 0, 70, 61
1, 856545, Note_off_c, 0, 63, 62
1, 856639, Note_off_c, 0, 51, 62
1, 856667, Note_on_c, 0, 59, 61
1, 856675, Note_on_c, 0, 70, 74
1, 856681, Poly_aftertouch_c, 0, 75, 127
1, 856693, Note_on_c, 0, 65, 66
1, 856696, Note_off_c, 0, 59, 66
1, 856704, Note_off_c, 0, 73, 63
1, 856720, Poly_aftertouch_c, 0, 75, 0
1, 856749, Note_on_c, 0, 59, 85
1, 856755, Note_off_c, 0, 70, 63
1, 856764, Note_off_c, 0, 77, 60
1, 856866, Note_on_c, 0, 71, 91
1, 856872, Note_off_c, 0, 65, 62
1, 856914, Note_on_c, 0, 73, 34
1, 856927, Note_on_c, 0, 51, 68
1, 856935, Note_off_c, 0, 59, 59
1, 856960, Note_off_c, 0, 73, 42
1, 857009, Note_on_c, 0, 73, 33
1, 857011, Note_on_c, 0, 63, 65
1, 857025, Note_on_c, 0, 68, 76
1, 857045, Note_on_c, 0, 41, 78
1, 857063, Note_off_c, 0, 73, 63
1, 857069, Note_off_c, 0, 63, 64
1, 857072, Note_off_c, 0, 51, 64
1, 857080, Note_off_c, 0, 71, 65
1, 857090, Note_off_c, 0, 41, 64
1, 857114, Note_off_c, 0, 68, 62
1, 857315, Note_on_c, 0, 43, 76
1, 857319, Note_on_c, 0, 31, 74
1, 857390, Control_c, 0, 64, 101
1, 857405, Control_c, 0, 64, 64
1, 857411, Note_on_c, 0, 79, 91
1, 857417, Note_on_c, 0, 71, 81
1, 857420, Control_c, 0, 64, 34
1, 857421, Note_on_c, 0, 75, 64
1, 857435, Control_c, 0, 64, 36
1, 857450, Control_c, 0, 64, 56
1, 857450, Note_off_c, 0, 75, 66
1, 857464, Control_c, 0, 64, 67
1, 857479, Control_c, 0, 64, 86
1, 857488, Note_off_c, 0, 31, 63
1, 857494, Control_c, 0, 64, 127
1, 857516, Note_off_c, 0, 43, 64
1, 857676, Note_on_c, 0, 70, 75
1, 857694, Note_off_c, 0, 79, 65
1, 857719, Note_on_c, 0, 52, 45
1, 857720, Note_off_c, 0, 71, 63
1, 857741, Note_off_c, 0, 70, 62
1, 857785, Note_on_c, 0, 61, 85
1, 857790, Note_on_c, 0, 70, 39
1, 857887, Poly_aftertouch_c, 0, 73, 0
1, 857908, Note_on_c, 0, 68, 85
1, 857918, Note_off_c, 0, 61, 61
1, 857921, Note_on_c, 0, 75, 86
1, 857956, Note_off_c, 0, 70, 40
1, 857989, Note_on_c, 0, 59, 79
1, 858005, Note_off_c, 0, 52, 60
1, 858024, Note_off_c, 0, 59, 63
1, 858037, Note_off_c, 0, 68, 61
1, 858110, Note_on_c, 0, 70, 67
1, 858111, Note_on_c, 0, 67, 69
1, 858118, Note_on_c, 0, 58, 89
1, 858162, Note_off_c, 0, 58, 64
1, 858183, Note_off_c, 0, 70, 63
1, 858224, Note_on_c, 0, 58, 89
1, 858247, Note_on_c, 0, 70, 57
1, 858248, Note_off_c, 0, 67, 60
1, 858318, Note_on_c, 0, 63, 71
1, 858318, Note_off_c, 0, 58, 63
1, 858320, Note_on_c, 0, 51, 76
1, 858368, Note_on_c, 0, 67, 55
1, 858377, Note_on_c, 0, 44, 84
1, 858380, Note_off_c, 0, 63, 64
1, 858383, Note_off_c, 0, 70, 64
1, 858391, Note_off_c, 0, 75, 61
1, 858400, Note_off_c, 0, 51, 64
1, 858400, Note_off_c, 0, 67, 65
1, 858423, Note_off_c, 0, 44, 62
1, 858576, Note_on_c, 0, 44, 67
1, 858582, Note_on_c, 0, 32, 66
1, 858630, Control_c, 0, 64, 75
1, 858645, Control_c, 0, 64, 61
1, 858651, Note_on_c, 0, 79, 96
1, 858657, Note_on_c, 0, 67, 88
1, 858658, Note_on_c, 0, 70, 89
1, 858659, Note_on_c, 0, 73, 87
1, 858659, Control_c, 0, 64, 61
1, 858674, Control_c, 0, 64, 68
1, 858681, Note_off_c, 0, 32, 64
1, 858689, Control_c, 0, 64, 87
1, 858703, Control_c, 0, 64, 127
1, 858708, Note_off_c, 0, 44, 63
1, 858729, Note_off_c, 0, 73, 65
1, 858751, Note_off_c, 0, 70, 64
1, 858757, Note_off_c, 0, 79, 63
1, 858871, Note_on_c, 0, 52, 57
1, 858911, Note_off_c, 0, 67, 61
1, 858931, Note_on_c, 0, 68, 73
1, 858932, Note_on_c, 0, 51, 9
1, 858933, Note_off_c, 0, 51, 127
1, 858939, Poly_aftertouch_c, 0, 71, 127
1, 858973, Note_on_c, 0, 61, 85
1, 859039, Poly_aftertouch_c, 0, 71, 0
1, 859060, Note_on_c, 0, 74, 90
1, 859064, Note_off_c, 0, 61, 62
1, 859075, Note_off_c, 0, 68, 63
1, 859107, Note_off_c, 0, 52, 64
1, 859152, Note_on_c, 0, 59, 82
1, 859173, Note_on_c, 0, 68, 79
1, 859175, Note_off_c, 0, 59, 69
1, 859194, Note_on_c, 0, 62, 74
1, 859256, Note_off_c, 0, 74, 63
1, 859260, Note_on_c, 0, 58, 89
1, 859289, Note_on_c, 0, 67, 31
1, 859316, Note_off_c, 0, 62, 64
1, 859339, Note_on_c, 0, 70, 94
1, 859367, Note_on_c, 0, 53, 89
1, 859374, Note_off_c, 0, 67, 63
1, 859376, Note_off_c, 0, 58, 64
1, 859380, Note_off_c, 0, 68, 60
1, 859473, Note_on_c, 0, 44, 87
1, 859477, Note_on_c, 0, 63, 69
1, 859488, Note_on_c, 0, 67, 79
1, 859493, Note_off_c, 0, 53, 64
1, 859494, Note_off_c, 0, 70, 65
1, 859511, Note_off_c, 0, 63, 65
1, 859512, Note_on_c, 0, 66, 46
1, 859534, Note_off_c, 0, 44, 63
1, 859536, Note_off_c, 0, 67, 64
1, 859537, Note_off_c, 0, 66, 57
1, 859602, Poly_aftertouch_c, 0, 46, 0
1, 859705, Note_on_c, 0, 34, 81
1, 859770, Note_on_c, 0, 79, 94
1, 859770, Control_c, 0, 64, 76
1, 859778, Note_on_c, 0, 67, 79
1, 859779, Note_on_c, 0, 68, 79
1, 859785, Control_c, 0, 64, 21
1, 859800, Control_c, 0, 64, 0
1, 859804, Note_on_c, 0, 69, 59
1, 859805, Note_on_c, 0, 70, 55
1, 859826, Note_off_c, 0, 69, 40
1, 859826, Note_off_c, 0, 70, 58
1, 859844, Control_c, 0, 64, 60
1, 859859, Control_c, 0, 64, 76
1, 859874, Control_c, 0, 64, 115
1, 859888, Control_c, 0, 64, 127
1, 859901, Poly_aftertouch_c, 0, 41, 127
1, 859920, Note_on_c, 0, 46, 89
1, 859939, Note_off_c, 0, 34, 61
1, 859951, Poly_aftertouch_c, 0, 41, 0
1, 859957, Note_off_c, 0, 79, 51
1, 859959, Note_off_c, 0, 46, 62
1, 859976, Note_on_c, 0, 71, 61
1, 860015, Note_off_c, 0, 67, 64
1, 860020, Note_off_c, 0, 71, 63
1, 860032, Note_off_c, 0, 68, 27
1, 860095, Note_on_c, 0, 54, 67
1, 860097, Note_on_c, 0, 56, 65
1, 860158, Note_off_c, 0, 54, 65
1, 860292, Poly_aftertouch_c, 0, 55, 127
1, 860302, Note_on_c, 0, 63, 70
1, 860390, Note_on_c, 0, 72, 93
1, 860392, Note_on_c, 0, 70, 85
1, 860398, Note_on_c, 0, 60, 82
1, 860401, Control_c, 0, 64, 85
1, 860416, Control_c, 0, 64, 52
1, 860424, Note_on_c, 0, 67, 55
1, 860430, Control_c, 0, 64, 0
1, 860443, Note_on_c, 0, 66, 38
1, 860445, Control_c, 0, 64, 33
1, 860460, Control_c, 0, 64, 55
1, 860475, Control_c, 0, 64, 68
1, 860490, Control_c, 0, 64, 91
1, 860504, Control_c, 0, 64, 127
1, 860505, Note_off_c, 0, 67, 57
1, 860509, Note_off_c, 0, 66, 37
1, 860527, Note_off_c, 0, 70, 67
1, 860596, Poly_aftertouch_c, 0, 55, 0
1, 860604, Note_on_c, 0, 58, 79
1, 860612, Note_off_c, 0, 56, 61
1, 860629, Note_off_c, 0, 63, 61
1, 860646, Note_on_c, 0, 69, 70
1, 860666, Note_on_c, 0, 66, 57
1, 860711, Note_off_c, 0, 69, 63
1, 860724, Note_off_c, 0, 58, 62
1, 860726, Note_off_c, 0, 66, 62
1, 860730, Note_on_c, 0, 57, 83
1, 860831, Control_c, 0, 64, 96
1, 860846, Control_c, 0, 64, 66
1, 860860, Control_c, 0, 64, 55
1, 860875, Control_c, 0, 64, 58
1, 860879, Note_on_c, 0, 56, 89
1, 860890, Control_c, 0, 64, 65
1, 860901, Note_on_c, 0, 68, 82
1, 860902, Note_off_c, 0, 57, 65
1, 860905, Control_c, 0, 64, 80
1, 860908, Note_on_c, 0, 65, 63
1, 860920, Control_c, 0, 64, 127
1, 860926, Note_off_c, 0, 56, 67
1, 860988, Note_off_c, 0, 72, 47
1, 861000, Note_off_c, 0, 65, 62
1, 861044, Note_off_c, 0, 68, 63
1, 861054, Note_off_c, 0, 60, 63
1, 861068, Note_on_c, 0, 67, 63
1, 861097, Note_on_c, 0, 64, 71
1, 861197, Note_on_c, 0, 46, 88
1, 861224, Note_on_c, 0, 71, 94
1, 861227, Note_off_c, 0, 46, 64
1, 861243, Note_on_c, 0, 59, 92
1, 861257, Note_off_c, 0, 67, 62
1, 861272, Note_off_c, 0, 64, 63
1, 861324, Note_on_c, 0, 27, 78
1, 861339, Note_on_c, 0, 66, 63
1, 861346, Note_on_c, 0, 63, 72
1, 861359, Note_off_c, 0, 59, 64
1, 861359, Note_off_c, 0, 71, 59
1, 861376, Note_off_c, 0, 66, 62
1, 861384, Note_on_c, 0, 39, 69
1, 861397, Note_off_c, 0, 27, 59
1, 861407, Note_off_c, 0, 63, 52
1, 861412, Note_off_c, 0, 39, 64
1, 861564, Poly_aftertouch_c, 0, 70, 127
1, 861579, Poly_aftertouch_c, 0, 70, 0
1, 861585, Poly_aftertouch_c, 0, 46, 127
1, 861602, Poly_aftertouch_c, 0, 70, 0
1, 861608, Control_c, 0, 64, 66
1, 861624, Control_c, 0, 64, 33
1, 861639, Control_c, 0, 64, 47
1, 861644, Note_on_c, 0, 70, 81
1, 861647, Note_on_c, 0, 62, 76
1, 861650, Note_on_c, 0, 56, 87
1, 861654, Note_on_c, 0, 65, 71
1, 861654, Control_c, 0, 64, 62
1, 861669, Control_c, 0, 64, 79
1, 861683, Control_c, 0, 64, 127
1, 861689, Note_off_c, 0, 56, 66
1, 861695, Poly_aftertouch_c, 0, 46, 0
1, 861713, Note_off_c, 0, 70, 65
1, 861717, Note_off_c, 0, 62, 65
1, 861723, Note_off_c, 0, 65, 63
1, 862000, Note_on_c, 0, 56, 68
1, 862003, Note_on_c, 0, 63, 67
1, 862008, Note_on_c, 0, 72, 82
1, 862011, Note_on_c, 0, 84, 88
1, 862022, Note_on_c, 0, 79, 66
1, 862029, Note_off_c, 0, 72, 72
1, 862029, Note_off_c, 0, 56, 68
1, 862033, Note_off_c, 0, 63, 66
1, 862038, Note_off_c, 0, 79, 66
1, 862048, Note_off_c, 0, 84, 61
1, 862354, Note_on_c, 0, 72, 71
1, 862361, Note_on_c, 0, 68, 70
1, 862367, Note_on_c, 0, 63, 68
1, 862410, Note_on_c, 0, 91, 94
1, 862417, Note_on_c, 0, 79, 95
1, 862418, Note_on_c, 0, 84, 91
1, 862437, Note_off_c, 0, 72, 64
1, 862458, Note_off_c, 0, 79, 69
1, 862462, Note_off_c, 0, 91, 68
1, 862466, Note_off_c, 0, 63, 63
1, 862466, Note_off_c, 0, 68, 62
1, 862468, Note_off_c, 0, 84, 69
1, 862707, Note_on_c, 0, 56, 63
1, 862719, Note_on_c, 0, 63, 67
1, 862753, Note_off_c, 0, 63, 62
1, 862764, Note_on_c, 0, 71, 76
1, 862764, Note_off_c, 0, 56, 63
1, 862770, Note_on_c, 0, 80, 72
1, 862773, Note_on_c, 0, 83, 62
1, 862851, Note_off_c, 0, 71, 59
1, 862861, Note_off_c, 0, 83, 55
1, 862878, Note_off_c, 0, 80, 53
1, 862930, Note_on_c, 0, 68, 64
1, 862932, Note_on_c, 0, 63, 65
1, 862952, Note_on_c, 0, 71, 82
1, 862953, Note_on_c, 0, 83, 69
1, 862955, Note_on_c, 0, 80, 69
1, 862957, Note_off_c, 0, 68, 67
1, 862960, Note_off_c, 0, 63, 65
1, 863010, Note_off_c, 0, 83, 61
1, 863020, Note_off_c, 0, 71, 60
1, 863050, Poly_aftertouch_c, 0, 76, 127
1, 863081, Note_on_c, 0, 79, 55
1, 863099, Note_off_c, 0, 80, 62
1, 863125, Note_on_c, 0, 82, 93
1, 863126, Note_on_c, 0, 62, 70
1, 863140, Note_on_c, 0, 70, 91
1, 863146, Note_on_c, 0, 56, 59
1, 863153, Note_off_c, 0, 62, 67
1, 863165, Note_off_c, 0, 56, 63
1, 863171, Poly_aftertouch_c, 0, 76, 0
1, 863239, Note_off_c, 0, 70, 62
1, 863264, Note_off_c, 0, 82, 58
1, 863406, Note_on_c, 0, 39, 65
1, 863410, Note_on_c, 0, 46, 65
1, 863440, Control_c, 0, 64, 99
1, 863449, Note_on_c, 0, 82, 88
1, 863454, Control_c, 0, 64, 62
1, 863456, Note_on_c, 0, 70, 78
1, 863469, Control_c, 0, 64, 0
1, 863471, Note_on_c, 0, 75, 71
1, 863479, Note_on_c, 0, 80, 25
1, 863484, Note_on_c, 0, 81, 38
1, 863499, Control_c, 0, 64, 22
1, 863514, Control_c, 0, 64, 59
1, 863520, Note_off_c, 0, 81, 50
1, 863525, Note_off_c, 0, 79, 60
1, 863525, Note_off_c, 0, 39, 63
1, 863528, Control_c, 0, 64, 72
1, 863534, Note_off_c, 0, 46, 64
1, 863543, Control_c, 0, 64, 127
1, 863575, Note_off_c, 0, 80, 37
1, 863608, Note_off_c, 0, 70, 64
1, 863614, Note_off_c, 0, 82, 66
1, 863709, Note_on_c, 0, 81, 59
1, 863720, Note_on_c, 0, 54, 49
1, 863737, Note_off_c, 0, 81, 67
1, 863740, Note_off_c, 0, 75, 59
1, 863743, Note_on_c, 0, 63, 52
1, 863744, Note_on_c, 0, 60, 48
1, 863841, Note_off_c, 0, 54, 57
1, 863967, Note_on_c, 0, 69, 59
1, 863987, Note_off_c, 0, 63, 0
1, 863987, Note_on_c, 0, 63, 3
1, 864002, Control_c, 0, 64, 92
1, 864018, Control_c, 0, 64, 71
1, 864033, Control_c, 0, 64, 66
1, 864048, Control_c, 0, 64, 69
1, 864062, Note_on_c, 0, 87, 81
1, 864063, Control_c, 0, 64, 77
1, 864064, Note_on_c, 0, 81, 41
1, 864077, Note_on_c, 0, 75, 68
1, 864085, Control_c, 0, 64, 104
1, 864100, Control_c, 0, 64, 127
1, 864125, Note_off_c, 0, 69, 55
1, 864133, Note_off_c, 0, 60, 57
1, 864145, Note_off_c, 0, 81, 65
1, 864147, Note_off_c, 0, 87, 65
1, 864181, Note_off_c, 0, 75, 63
1, 864317, Note_on_c, 0, 54, 52
1, 864342, Note_on_c, 0, 80, 63
1, 864342, Note_on_c, 0, 75, 60
1, 864375, Note_on_c, 0, 59, 35
1, 864390, Note_off_c, 0, 54, 60
1, 864432, Note_off_c, 0, 80, 59
1, 864451, Note_off_c, 0, 75, 48
1, 864459, Note_off_c, 0, 63, 40
1, 864539, Note_on_c, 0, 68, 61
1, 864544, Note_on_c, 0, 75, 53
1, 864547, Note_on_c, 0, 80, 70
1, 864579, Note_on_c, 0, 63, 51
1, 864613, Note_off_c, 0, 68, 58
1, 864655, Note_off_c, 0, 80, 64
1, 864694, Note_off_c, 0, 59, 41
1, 864738, Note_off_c, 0, 75, 0
1, 864750, Note_on_c, 0, 75, 33
1, 864772, Note_on_c, 0, 58, 56
1, 864786, Note_on_c, 0, 79, 65
1, 864790, Note_on_c, 0, 67, 61
1, 864801, Note_off_c, 0, 63, 62
1, 864843, Note_off_c, 0, 67, 61
1, 864846, Note_off_c, 0, 58, 63
1, 864866, Note_off_c, 0, 75, 62
1, 864881, Note_off_c, 0, 79, 64
1, 865267, Note_on_c, 0, 39, 45
1, 865270, Note_on_c, 0, 27, 44
1, 865308, Control_c, 0, 64, 89
1, 865310, Note_on_c, 0, 86, 79
1, 865323, Control_c, 0, 64, 65
1, 865335, Note_on_c, 0, 74, 58
1, 865338, Control_c, 0, 64, 54
1, 865347, Note_on_c, 0, 81, 36
1, 865352, Control_c, 0, 64, 57
1, 865367, Control_c, 0, 64, 62
1, 865382, Control_c, 0, 64, 69
1, 865393, Poly_aftertouch_c, 0, 80, 127
1, 865397, Control_c, 0, 64, 83
1, 865409, Note_off_c, 0, 81, 66
1, 865412, Control_c, 0, 64, 127
1, 865422, Note_off_c, 0, 27, 52
1, 865429, Poly_aftertouch_c, 0, 80, 0
1, 865451, Note_off_c, 0, 39, 60
1, 865454, Note_off_c, 0, 86, 64
1, 865516, Note_off_c, 0, 74, 64
1, 865730, Note_on_c, 0, 79, 66
1, 865732, Note_on_c, 0, 74, 41
1, 865736, Note_on_c, 0, 59, 47
1, 865758, Note_on_c, 0, 67, 52
1, 865861, Note_off_c, 0, 59, 62
1, 865893, Note_off_c, 0, 79, 64
1, 865924, Note_off_c, 0, 74, 0
1, 865942, Note_on_c, 0, 62, 45
1, 865961, Poly_aftertouch_c, 0, 74, 127
1, 865983, Note_on_c, 0, 79, 58
1, 866035, Note_off_c, 0, 67, 57
1, 866073, Note_off_c, 0, 79, 61
1, 866119, Note_on_c, 0, 58, 56
1, 866142, Note_on_c, 0, 78, 60
1, 866143, Note_off_c, 0, 62, 34
1, 866173, Note_on_c, 0, 66, 57
1, 866193, Poly_aftertouch_c, 0, 74, 0
1, 866204, Note_off_c, 0, 58, 61
1, 866220, Note_off_c, 0, 78, 63
1, 866241, Note_on_c, 0, 74, 44
1, 866249, Note_off_c, 0, 66, 61
1, 866306, Note_on_c, 0, 78, 69
1, 866366, Note_on_c, 0, 62, 55
1, 866416, Note_off_c, 0, 78, 64
1, 866465, Note_on_c, 0, 83, 84
1, 866541, Note_off_c, 0, 74, 61
1, 866570, Note_off_c, 0, 83, 56
1, 866599, Note_on_c, 0, 57, 55
1, 866636, Note_off_c, 0, 62, 61
1, 866651, Note_off_c, 0, 57, 63
1, 866664, Note_on_c, 0, 77, 61
1, 866670, Note_on_c, 0, 65, 59
1, 866691, Note_on_c, 0, 74, 50
1, 866749, Note_off_c, 0, 65, 61
1, 866909, Control_c, 0, 64, 91
1, 866915, Note_on_c, 0, 39, 52
1, 866924, Control_c, 0, 64, 68
1, 866938, Control_c, 0, 64, 61
1, 866953, Control_c, 0, 64, 63
1, 866968, Control_c, 0, 64, 66
1, 866978, Note_on_c, 0, 83, 73
1, 866983, Control_c, 0, 64, 73
1, 866998, Control_c, 0, 64, 91
1, 867013, Control_c, 0, 64, 127
1, 867024, Note_off_c, 0, 39, 62
1, 867037, Note_on_c, 0, 79, 30
1, 867050, Note_off_c, 0, 83, 64
1, 867055, Note_off_c, 0, 77, 63
1, 867069, Note_off_c, 0, 74, 63
1, 867075, Note_off_c, 0, 79, 49
1, 867326, Note_on_c, 0, 77, 53
1, 867337, Note_on_c, 0, 65, 37
1, 867338, Note_on_c, 0, 57, 24
1, 867360, Note_on_c, 0, 73, 29
1, 867379, Note_off_c, 0, 77, 53
1, 867380, Note_on_c, 0, 69, 12
1, 867383, Note_off_c, 0, 65, 44
1, 867398, Note_off_c, 0, 73, 50
1, 867430, Note_off_c, 0, 69, 52
1, 867501, Note_off_c, 0, 57, 42
1, 867509, Note_on_c, 0, 61, 50
1, 867512, Note_on_c, 0, 77, 64
1, 867523, Note_on_c, 0, 65, 51
1, 867526, Note_on_c, 0, 73, 41
1, 867575, Note_off_c, 0, 73, 58
1, 867579, Note_off_c, 0, 77, 61
1, 867581, Note_off_c, 0, 65, 60
1, 867618, Note_off_c, 0, 61, 58
1, 867648, Note_on_c, 0, 76, 59
1, 867669, Note_on_c, 0, 56, 53
1, 867710, Note_on_c, 0, 64, 53
1, 867734, Note_off_c, 0, 56, 52
1, 867779, Note_off_c, 0, 64, 62
1, 867779, Note_on_c, 0, 73, 62
1, 867804, Note_off_c, 0, 76, 61
1, 867844, Note_on_c, 0, 79, 75
1, 867889, Note_on_c, 0, 62, 51
1, 867904, Note_off_c, 0, 79, 63
1, 867907, Note_off_c, 0, 73, 64
1, 868040, Note_off_c, 0, 62, 51
1, 868063, Note_on_c, 0, 56, 45
1, 868067, Note_on_c, 0, 75, 63
1, 868097, Note_off_c, 0, 56, 63
1, 868179, Poly_aftertouch_c, 0, 63, 0
1, 868222, Note_off_c, 0, 75, 61
1, 868378, Note_on_c, 0, 39, 47
1, 868414, Note_on_c, 0, 79, 67
1, 868422, Control_c, 0, 64, 82
1, 868437, Control_c, 0, 64, 63
1, 868451, Control_c, 0, 64, 46
1, 868466, Control_c, 0, 64, 48
1, 868481, Control_c, 0, 64, 56
1, 868496, Control_c, 0, 64, 64
1, 868510, Control_c, 0, 64, 73
1, 868525, Control_c, 0, 64, 103
1, 868532, Note_off_c, 0, 39, 62
1, 868540, Control_c, 0, 64, 127
1, 868721, Note_on_c, 0, 75, 50
1, 868758, Note_on_c, 0, 67, 42
1, 868763, Note_on_c, 0, 72, 33
1, 868772, Note_off_c, 0, 75, 60
1, 868793, Note_off_c, 0, 72, 53
1, 868805, Note_on_c, 0, 60, 21
1, 868817, Note_off_c, 0, 79, 62
1, 868859, Note_off_c, 0, 67, 55
1, 868931, Note_off_c, 0, 60, 0
1, 868937, Note_on_c, 0, 67, 27
1, 868961, Note_on_c, 0, 75, 61
1, 868966, Note_on_c, 0, 60, 3
1, 868977, Note_off_c, 0, 67, 50
1, 868996, Note_on_c, 0, 56, 32
1, 869078, Note_off_c, 0, 75, 62
1, 869088, Note_off_c, 0, 56, 49
1, 869141, Note_on_c, 0, 51, 57
1, 869144, Note_on_c, 0, 66, 31
1, 869167, Note_on_c, 0, 68, 25
1, 869174, Note_on_c, 0, 72, 37
1, 869208, Note_off_c, 0, 66, 39
1, 869210, Note_off_c, 0, 51, 53
1, 869212, Note_off_c, 0, 60, 38
1, 869329, Note_on_c, 0, 75, 71
1, 869359, Note_on_c, 0, 56, 35
1, 869360, Note_on_c, 0, 60, 45
1, 869421, Note_off_c, 0, 68, 39
1, 869425, Note_off_c, 0, 72, 42
1, 869471, Note_off_c, 0, 60, 55
1, 869481, Note_on_c, 0, 51, 33
1, 869508, Note_off_c, 0, 56, 36
1, 869517, Note_off_c, 0, 51, 45
1, 869521, Note_on_c, 0, 65, 29
1, 869553, Note_on_c, 0, 72, 52
1, 869561, Note_on_c, 0, 68, 44
1, 869612, Note_off_c, 0, 75, 56
1, 869803, Note_on_c, 0, 39, 43
1, 869889, Control_c, 0, 64, 77
1, 869904, Control_c, 0, 64, 62
1, 869919, Control_c, 0, 64, 53
1, 869931, Note_on_c, 0, 75, 57
1, 869934, Control_c, 0, 64, 56
1, 869949, Control_c, 0, 64, 61
1, 869964, Control_c, 0, 64, 66
1, 869979, Control_c, 0, 64, 74
1, 869994, Control_c, 0, 64, 89
1, 870008, Control_c, 0, 64, 127
1, 870034, Note_off_c, 0, 65, 49
1, 870044, Note_off_c, 0, 72, 59
1, 870047, Note_off_c, 0, 39, 38
1, 870129, Note_off_c, 0, 68, 31
1, 870247, Note_on_c, 0, 68, 35
1, 870276, Note_on_c, 0, 64, 22
1, 870288, Note_on_c, 0, 53, 23
1, 870288, Note_on_c, 0, 56, 31
1, 870337, Note_off_c, 0, 56, 55
1, 870369, Note_off_c, 0, 53, 36
1, 870422, Note_off_c, 0, 64, 29
1, 870468, Note_on_c, 0, 63, 40
1, 870479, Note_on_c, 0, 71, 49
1, 870486, Note_on_c, 0, 53, 20
1, 870496, Note_on_c, 0, 56, 44
1, 870515, Note_off_c, 0, 68, 32
1, 870519, Note_off_c, 0, 63, 59
1, 870609, Note_off_c, 0, 53, 30
1, 870676, Note_off_c, 0, 56, 0
1, 870713, Poly_aftertouch_c, 0, 56, 127
1, 870736, Note_on_c, 0, 68, 48
1, 870751, Note_on_c, 0, 64, 9
1, 870760, Note_on_c, 0, 53, 15
1, 870773, Poly_aftertouch_c, 0, 74, 127
1, 870816, Note_off_c, 0, 64, 45
1, 870871, Note_off_c, 0, 53, 37
1, 870879, Note_off_c, 0, 71, 33
1, 870908, Note_off_c, 0, 68, 53
1, 870916, Poly_aftertouch_c, 0, 56, 0
1, 870926, Poly_aftertouch_c, 0, 74, 0
1, 871127, Note_on_c, 0, 56, 21
1, 871138, Note_on_c, 0, 53, 30
1, 871144, Poly_aftertouch_c, 0, 74, 127
1, 871145, Note_on_c, 0, 62, 23
1, 871179, Control_c, 0, 64, 109
1, 871189, Note_on_c, 0, 71, 56
1, 871194, Control_c, 0, 64, 79
1, 871209, Control_c, 0, 64, 66
1, 871225, Control_c, 0, 64, 63
1, 871240, Control_c, 0, 64, 65
1, 871255, Control_c, 0, 64, 69
1, 871269, Control_c, 0, 64, 78
1, 871284, Control_c, 0, 64, 96
1, 871299, Control_c, 0, 64, 127
1, 871398, Note_off_c, 0, 53, 38
1, 871398, Note_off_c, 0, 62, 41
1, 871417, Note_off_c, 0, 56, 42
1, 871544, Note_on_c, 0, 53, 24
1, 871576, Poly_aftertouch_c, 0, 74, 0
1, 871578, Note_on_c, 0, 56, 28
1, 871591, Note_on_c, 0, 47, 32
1, 871612, Note_on_c, 0, 68, 39
1, 871663, Note_on_c, 0, 63, 27
1, 871682, Note_off_c, 0, 53, 36
1, 871711, Note_off_c, 0, 47, 32
1, 871723, Note_off_c, 0, 56, 35
1, 871840, Note_off_c, 0, 63, 40
1, 871961, Poly_aftertouch_c, 0, 73, 127
1, 872048, Note_off_c, 0, 75, 38
1, 872176, Poly_aftertouch_c, 0, 73, 0
1, 872192, Note_off_c, 0, 71, 36
1, 872220, Note_off_c, 0, 68, 31
1, 872440, Control_c, 0, 64, 102
1, 872451, Note_on_c, 0, 39, 37
1, 872455, Control_c, 0, 64, 73
1, 872470, Control_c, 0, 64, 59
1, 872484, Control_c, 0, 64, 52
1, 872499, Control_c, 0, 64, 57
1, 872514, Control_c, 0, 64, 63
1, 872529, Control_c, 0, 64, 71
1, 872544, Control_c, 0, 64, 88
1, 872558, Control_c, 0, 64, 127
1, 872617, Note_off_c, 0, 39, 35
1, 872902, Note_on_c, 0, 54, 43
1, 873233, Note_off_c, 0, 54, 42
1, 873258, Note_on_c, 0, 55, 39
1, 873276, Note_on_c, 0, 63, 43
1, 873367, Control_c, 0, 64, 81
1, 873381, Control_c, 0, 64, 69
1, 873396, Control_c, 0, 64, 67
1, 873403, Note_on_c, 0, 76, 30
1, 873411, Control_c, 0, 64, 69
1, 873421, Note_on_c, 0, 70, 67
1, 873426, Poly_aftertouch_c, 0, 75, 127
1, 873426, Control_c, 0, 64, 73
1, 873440, Control_c, 0, 64, 84
1, 873453, Note_off_c, 0, 63, 50
1, 873455, Control_c, 0, 64, 117
1, 873469, Control_c, 0, 64, 127
1, 873499, Note_on_c, 0, 67, 12
1, 873651, Note_on_c, 0, 46, 30
1, 873684, Note_off_c, 0, 46, 58
1, 873715, Note_off_c, 0, 76, 48
1, 873716, Poly_aftertouch_c, 0, 75, 0
1, 873740, Note_off_c, 0, 70, 61
1, 873748, Note_on_c, 0, 79, 34
1, 873779, Note_off_c, 0, 79, 53
1, 873779, Note_off_c, 0, 67, 61
1, 873908, Note_on_c, 0, 51, 48
1, 873915, Note_on_c, 0, 62, 28
1, 873951, Note_off_c, 0, 62, 48
1, 873958, Note_off_c, 0, 51, 64
1, 873964, Note_off_c, 0, 55, 47
1, 874021, Note_on_c, 0, 67, 62
1, 874051, Note_on_c, 0, 63, 44
1, 874134, Note_off_c, 0, 63, 44
1, 874199, Note_on_c, 0, 39, 50
1, 874244, Note_off_c, 0, 39, 62
1, 874331, Note_on_c, 0, 71, 47
1, 874516, Control_c, 0, 64, 115
1, 874531, Control_c, 0, 64, 82
1, 874533, Note_on_c, 0, 51, 46
1, 874546, Control_c, 0, 64, 71
1, 874549, Note_on_c, 0, 61, 27
1, 874567, Control_c, 0, 64, 69
1, 874582, Control_c, 0, 64, 72
1, 874593, Note_on_c, 0, 63, 34
1, 874597, Control_c, 0, 64, 77
1, 874605, Poly_aftertouch_c, 0, 49, 127
1, 874612, Control_c, 0, 64, 84
1, 874627, Control_c, 0, 64, 87
1, 874631, Note_off_c, 0, 67, 25
1, 874671, Control_c, 0, 64, 89
1, 874686, Control_c, 0, 64, 96
1, 874698, Note_off_c, 0, 51, 61
1, 874701, Control_c, 0, 64, 115
1, 874715, Control_c, 0, 64, 127
1, 874730, Poly_aftertouch_c, 0, 49, 0
1, 874732, Note_off_c, 0, 61, 43
1, 874747, Note_on_c, 0, 55, 46
1, 874929, Note_off_c, 0, 55, 61
1, 875051, Note_on_c, 0, 51, 17
1, 875127, Note_on_c, 0, 59, 41
1, 875145, Control_c, 0, 64, 85
1, 875157, Note_on_c, 0, 47, 32
1, 875160, Control_c, 0, 64, 71
1, 875175, Control_c, 0, 64, 66
1, 875189, Control_c, 0, 64, 67
1, 875205, Control_c, 0, 64, 69
1, 875220, Control_c, 0, 64, 77
1, 875234, Control_c, 0, 64, 87
1, 875249, Control_c, 0, 64, 102
1, 875256, Note_on_c, 0, 67, 58
1, 875264, Control_c, 0, 64, 125
1, 875271, Note_off_c, 0, 59, 63
1, 875279, Control_c, 0, 64, 127
1, 875280, Note_off_c, 0, 51, 51
1, 875306, Note_off_c, 0, 47, 54
1, 875350, Note_off_c, 0, 63, 50
1, 875486, Note_on_c, 0, 39, 41
1, 875542, Note_off_c, 0, 39, 58
1, 875571, Note_on_c, 0, 75, 48
1, 875595, Note_on_c, 0, 63, 39
1, 875637, Note_off_c, 0, 63, 60
1, 875638, Note_off_c, 0, 75, 48
1, 875669, Note_off_c, 0, 71, 39
1, 875775, Control_c, 0, 64, 109
1, 875782, Note_on_c, 0, 58, 35
1, 875790, Control_c, 0, 64, 78
1, 875804, Note_on_c, 0, 60, 53
1, 875805, Control_c, 0, 64, 65
1, 875820, Control_c, 0, 64, 62
1, 875824, Note_on_c, 0, 54, 41
1, 875834, Control_c, 0, 64, 63
1, 875849, Control_c, 0, 64, 65
1, 875864, Note_off_c, 0, 67, 30
1, 875864, Control_c, 0, 64, 70
1, 875879, Control_c, 0, 64, 79
1, 875894, Control_c, 0, 64, 88
1, 875908, Control_c, 0, 64, 97
1, 875923, Control_c, 0, 64, 103
1, 875938, Control_c, 0, 64, 108
1, 875953, Control_c, 0, 64, 110
1, 875968, Control_c, 0, 64, 111
1, 875982, Control_c, 0, 64, 115
1, 875998, Control_c, 0, 64, 127
1, 876002, Note_on_c, 0, 46, 21
1, 876003, Note_off_c, 0, 58, 37
1, 876016, Note_on_c, 0, 70, 52
1, 876054, Note_off_c, 0, 54, 37
1, 876060, Note_off_c, 0, 46, 45
1, 876124, Note_off_c, 0, 70, 57
1, 876266, Note_on_c, 0, 63, 56
1, 876268, Note_off_c, 0, 60, 61
1, 876272, Control_c, 0, 64, 110
1, 876273, Note_on_c, 0, 54, 42
1, 876287, Control_c, 0, 64, 78
1, 876294, Note_on_c, 0, 57, 24
1, 876302, Control_c, 0, 64, 63
1, 876304, Note_on_c, 0, 47, 38
1, 876317, Control_c, 0, 64, 55
1, 876331, Control_c, 0, 64, 57
1, 876346, Control_c, 0, 64, 62
1, 876358, Note_off_c, 0, 57, 62
1, 876361, Control_c, 0, 64, 65
1, 876367, Note_off_c, 0, 54, 61
1, 876376, Control_c, 0, 64, 67
1, 876379, Note_off_c, 0, 47, 63
1, 876391, Control_c, 0, 64, 70
1, 876406, Control_c, 0, 64, 73
1, 876421, Control_c, 0, 64, 78
1, 876435, Control_c, 0, 64, 90
1, 876450, Control_c, 0, 64, 114
1, 876464, Control_c, 0, 64, 127
1, 876585, Note_on_c, 0, 71, 43
1, 876613, Note_on_c, 0, 59, 26
1, 876623, Note_on_c, 0, 39, 35
1, 876623, Note_off_c, 0, 71, 62
1, 876628, Note_off_c, 0, 63, 56
1, 876650, Note_off_c, 0, 59, 45
1, 876666, Note_off_c, 0, 39, 51
1, 876991, Control_c, 0, 64, 114
1, 876996, Note_on_c, 0, 51, 41
1, 877006, Control_c, 0, 64, 78
1, 877008, Note_on_c, 0, 48, 28
1, 877009, Note_on_c, 0, 56, 32
1, 877021, Control_c, 0, 64, 64
1, 877035, Control_c, 0, 64, 59
1, 877050, Control_c, 0, 64, 61
1, 877065, Control_c, 0, 64, 64
1, 877079, Control_c, 0, 64, 70
1, 877094, Control_c, 0, 64, 82
1, 877109, Control_c, 0, 64, 97
1, 877124, Control_c, 0, 64, 127
1, 877283, Note_off_c, 0, 51, 34
1, 877407, Note_on_c, 0, 66, 38
1, 877422, Note_on_c, 0, 45, 28
1, 877431, Note_off_c, 0, 48, 30
1, 877441, Note_off_c, 0, 56, 29
1, 877720, Note_off_c, 0, 45, 41
1, 877843, Note_on_c, 0, 58, 43
1, 877889, Control_c, 0, 64, 93
1, 877890, Note_on_c, 0, 46, 29
1, 877903, Control_c, 0, 64, 70
1, 877914, Note_on_c, 0, 55, 18
1, 877918, Control_c, 0, 64, 58
1, 877933, Control_c, 0, 64, 50
1, 877948, Control_c, 0, 64, 53
1, 877963, Control_c, 0, 64, 60
1, 877977, Control_c, 0, 64, 66
1, 877992, Control_c, 0, 64, 72
1, 878007, Control_c, 0, 64, 83
1, 878022, Control_c, 0, 64, 100
1, 878036, Control_c, 0, 64, 127
1, 878043, Note_off_c, 0, 55, 36
1, 878070, Note_off_c, 0, 46, 41
1, 878076, Note_off_c, 0, 66, 26
1, 878195, Note_off_c, 0, 58, 50
1, 878440, Note_on_c, 0, 39, 17
1, 878495, Note_on_c, 0, 63, 37
1, 878504, Note_on_c, 0, 55, 25
1, 878521, Note_on_c, 0, 67, 33
1, 878579, Note_off_c, 0, 39, 41
1, 878815, Note_off_c, 0, 55, 43
1, 879282, Control_c, 0, 64, 115
1, 879297, Control_c, 0, 64, 70
1, 879306, Note_on_c, 0, 43, 109
1, 879309, Note_on_c, 0, 31, 79
1, 879312, Control_c, 0, 64, 44
1, 879327, Control_c, 0, 64, 0
1, 879342, Control_c, 0, 64, 21
1, 879343, Note_off_c, 0, 31, 66
1, 879346, Note_off_c, 0, 67, 65
1, 879356, Note_off_c, 0, 63, 64
1, 879357, Control_c, 0, 64, 50
1, 879357, Note_off_c, 0, 43, 67
1, 879372, Control_c, 0, 64, 65
1, 879387, Control_c, 0, 64, 82
1, 879401, Control_c, 0, 64, 127
1, 879700, Note_on_c, 0, 55, 77
1, 879704, Note_on_c, 0, 79, 99
1, 879707, Note_on_c, 0, 91, 87
1, 879725, Note_off_c, 0, 91, 71
1, 879740, Note_off_c, 0, 79, 68
1, 879864, Poly_aftertouch_c, 0, 60, 127
1, 879868, Control_c, 0, 64, 82
1, 879880, Note_on_c, 0, 60, 42
1, 879882, Control_c, 0, 64, 0
1, 879883, Poly_aftertouch_c, 0, 82, 0
1, 879888, Note_on_c, 0, 75, 115
1, 879890, Note_on_c, 0, 87, 93
1, 879890, Note_on_c, 0, 51, 89
1, 879890, Note_on_c, 0, 57, 69
1, 879890, Note_on_c, 0, 63, 99
1, 879914, Note_on_c, 0, 85, 54
1, 879927, Control_c, 0, 64, 21
1, 879929, Poly_aftertouch_c, 0, 82, 0
1, 879937, Note_off_c, 0, 85, 56
1, 879942, Control_c, 0, 64, 65
1, 879950, Note_off_c, 0, 75, 66
1, 879956, Control_c, 0, 64, 95
1, 879971, Control_c, 0, 64, 127
1, 879981, Note_off_c, 0, 55, 61
1, 879988, Note_off_c, 0, 87, 65
1, 880011, Note_off_c, 0, 63, 61
1, 880011, Note_off_c, 0, 51, 62
1, 880016, Note_off_c, 0, 57, 63
1, 880024, Note_on_c, 0, 84, 82
1, 880054, Note_off_c, 0, 60, 60
1, 880093, Note_off_c, 0, 84, 64
1, 880096, Note_on_c, 0, 79, 88
1, 880132, Note_off_c, 0, 79, 68
1, 880203, Note_on_c, 0, 78, 52
1, 880204, Note_off_c, 0, 78, 127
1, 880218, Note_on_c, 0, 77, 63
1, 880259, Note_off_c, 0, 77, 60
1, 880278, Note_on_c, 0, 75, 5
1, 880281, Note_on_c, 0, 74, 47
1, 880298, Note_on_c, 0, 72, 76
1, 880304, Note_off_c, 0, 74, 56
1, 880309, Note_on_c, 0, 71, 51
1, 880326, Note_off_c, 0, 72, 69
1, 880329, Note_off_c, 0, 75, 39
1, 880339, Note_off_c, 0, 71, 53
1, 880352, Note_on_c, 0, 69, 80
1, 880393, Note_off_c, 0, 69, 61
1, 880409, Note_on_c, 0, 66, 83
1, 880433, Note_on_c, 0, 67, 67
1, 880441, Note_on_c, 0, 63, 74
1, 880469, Note_off_c, 0, 67, 58
1, 880475, Note_off_c, 0, 66, 63
1, 880482, Note_on_c, 0, 60, 82
1, 880497, Note_off_c, 0, 63, 63
1, 880522, Note_on_c, 0, 57, 84
1, 880526, Note_off_c, 0, 60, 66
1, 880594, Note_on_c, 0, 54, 80
1, 880596, Note_off_c, 0, 57, 65
1, 880625, Note_on_c, 0, 51, 80
1, 880638, Note_off_c, 0, 54, 65
1, 880650, Note_off_c, 0, 51, 66
1, 880675, Control_c, 0, 64, 98
1, 880685, Note_on_c, 0, 50, 86
1, 880690, Control_c, 0, 64, 66
1, 880704, Control_c, 0, 64, 0
1, 880716, Note_off_c, 0, 50, 67
1, 880770, Note_on_c, 0, 45, 55
1, 880773, Note_on_c, 0, 47, 56
1, 880799, Note_off_c, 0, 47, 56
1, 880801, Note_on_c, 0, 42, 61
1, 880815, Note_off_c, 0, 45, 66
1, 880850, Note_off_c, 0, 42, 64
1, 880862, Note_on_c, 0, 43, 102
1, 880872, Note_on_c, 0, 36, 77
1, 880874, Note_on_c, 0, 60, 97
1, 880875, Note_on_c, 0, 52, 99
1, 880876, Note_on_c, 0, 64, 88
1, 880892, Note_on_c, 0, 61, 72
1, 880894, Note_off_c, 0, 43, 66
1, 880896, Note_off_c, 0, 36, 66
1, 880896, Note_off_c, 0, 52, 72
1, 880898, Control_c, 0, 64, 83
1, 880903, Note_off_c, 0, 64, 68
1, 880907, Note_off_c, 0, 60, 69
1, 880910, Note_off_c, 0, 61, 64
1, 880913, Control_c, 0, 64, 127
1, 880943, Control_c, 0, 64, 59
1, 880958, Control_c, 0, 64, 0
1, 881442, Note_on_c, 0, 52, 103
1, 881443, Note_on_c, 0, 43, 98
1, 881444, Note_on_c, 0, 64, 90
1, 881445, Note_on_c, 0, 36, 84
1, 881448, Note_on_c, 0, 60, 81
1, 881467, Note_off_c, 0, 43, 70
1, 881467, Note_off_c, 0, 60, 72
1, 881469, Note_off_c, 0, 52, 68
1, 881473, Note_off_c, 0, 36, 70
1, 881479, Note_off_c, 0, 64, 66
1, 881869, Note_on_c, 0, 43, 85
1, 881878, Note_on_c, 0, 52, 91
1, 881880, Note_on_c, 0, 36, 71
1, 881887, Note_on_c, 0, 60, 72
1, 881891, Note_on_c, 0, 64, 68
1, 881900, Note_off_c, 0, 43, 67
1, 881908, Note_off_c, 0, 36, 64
1, 881909, Note_off_c, 0, 52, 68
1, 881912, Note_off_c, 0, 60, 67
1, 881918, Note_off_c, 0, 64, 67
1, 881968, Note_on_c, 0, 60, 83
1, 881970, Note_on_c, 0, 43, 92
1, 881971, Note_on_c, 0, 52, 95
1, 881975, Note_on_c, 0, 36, 69
1, 881977, Note_on_c, 0, 64, 62
1, 881996, Note_off_c, 0, 60, 67
1, 881997, Note_off_c, 0, 52, 69
1, 882000, Note_off_c, 0, 43, 68
1, 882003, Note_off_c, 0, 36, 65
1, 882006, Note_off_c, 0, 64, 64
1, 882063, Note_on_c, 0, 52, 102
1, 882063, Note_on_c, 0, 64, 101
1, 882063, Note_on_c, 0, 43, 103
1, 882064, Note_on_c, 0, 36, 89
1, 882089, Note_off_c, 0, 52, 68
1, 882093, Note_on_c, 0, 60, 44
1, 882094, Note_off_c, 0, 60, 127
1, 882096, Note_off_c, 0, 64, 66
1, 882104, Note_off_c, 0, 43, 67
1, 882106, Note_off_c, 0, 36, 61
1, 882224, Note_on_c, 0, 39, 35
1, 882275, Note_off_c, 0, 39, 52
1, 882306, Note_on_c, 0, 43, 103
1, 882310, Note_on_c, 0, 31, 84
1, 882337, Control_c, 0, 64, 38
1, 882338, Note_off_c, 0, 31, 68
1, 882342, Note_off_c, 0, 43, 68
1, 882351, Control_c, 0, 64, 127
1, 882561, Note_on_c, 0, 91, 85
1, 882565, Note_on_c, 0, 79, 95
1, 882569, Note_on_c, 0, 54, 79
1, 882592, Note_on_c, 0, 81, 50
1, 882593, Note_off_c, 0, 81, 127
1, 882604, Note_on_c, 0, 55, 71
1, 882608, Note_off_c, 0, 79, 67
1, 882615, Note_off_c, 0, 91, 64
1, 882634, Note_off_c, 0, 54, 63
1, 882672, Poly_aftertouch_c, 0, 60, 127
1, 882707, Control_c, 0, 64, 66
1, 882717, Poly_aftertouch_c, 0, 60, 0
1, 882722, Control_c, 0, 64, 0
1, 882730, Note_on_c, 0, 60, 63
1, 882738, Note_on_c, 0, 75, 108
1, 882739, Note_on_c, 0, 63, 107
1, 882743, Note_on_c, 0, 87, 102
1, 882744, Note_on_c, 0, 57, 65
1, 882747, Note_on_c, 0, 51, 87
1, 882782, Control_c, 0, 64, 59
1, 882785, Note_off_c, 0, 75, 68
1, 882802, Note_off_c, 0, 87, 66
1, 882804, Control_c, 0, 64, 110
1, 882819, Control_c, 0, 64, 127
1, 882844, Note_on_c, 0, 84, 67
1, 882922, Note_on_c, 0, 79, 87
1, 882926, Note_off_c, 0, 84, 65
1, 882941, Note_off_c, 0, 55, 0
1, 882941, Note_off_c, 0, 63, 60
1, 882965, Note_off_c, 0, 79, 66
1, 882978, Poly_aftertouch_c, 0, 55, 127
1, 882990, Note_off_c, 0, 51, 63
1, 883009, Note_on_c, 0, 78, 83
1, 883035, Note_off_c, 0, 60, 64
1, 883044, Note_off_c, 0, 57, 63
1, 883053, Note_on_c, 0, 75, 74
1, 883065, Poly_aftertouch_c, 0, 55, 0
1, 883099, Note_on_c, 0, 72, 83
1, 883106, Note_off_c, 0, 78, 63
1, 883122, Note_off_c, 0, 75, 64
1, 883142, Note_off_c, 0, 72, 64
1, 883154, Note_on_c, 0, 69, 79
1, 883179, Note_off_c, 0, 69, 67
1, 883213, Note_on_c, 0, 66, 86
1, 883220, Control_c, 0, 64, 96
1, 883235, Control_c, 0, 64, 71
1, 883242, Note_on_c, 0, 63, 66
1, 883250, Control_c, 0, 64, 60
1, 883258, Poly_aftertouch_c, 0, 51, 0
1, 883264, Control_c, 0, 64, 43
1, 883279, Control_c, 0, 64, 21
1, 883285, Note_off_c, 0, 66, 62
1, 883289, Note_off_c, 0, 63, 63
1, 883293, Note_on_c, 0, 60, 64
1, 883294, Control_c, 0, 64, 0
1, 883297, Note_on_c, 0, 62, 66
1, 883305, Note_on_c, 0, 57, 76
1, 883321, Note_off_c, 0, 62, 66
1, 883334, Note_off_c, 0, 60, 66
1, 883354, Note_on_c, 0, 54, 72
1, 883363, Note_off_c, 0, 57, 62
1, 883400, Note_on_c, 0, 51, 83
1, 883421, Note_off_c, 0, 54, 65
1, 883434, Note_off_c, 0, 51, 65
1, 883491, Note_on_c, 0, 50, 50
1, 883511, Note_on_c, 0, 48, 41
1, 883518, Note_off_c, 0, 50, 59
1, 883551, Note_off_c, 0, 48, 34
1, 883558, Note_on_c, 0, 45, 70
1, 883599, Note_off_c, 0, 45, 61
1, 883608, Note_on_c, 0, 42, 42
1, 883612, Control_c, 0, 64, 42
1, 883627, Control_c, 0, 64, 71
1, 883638, Note_on_c, 0, 43, 100
1, 883640, Note_off_c, 0, 42, 51
1, 883642, Control_c, 0, 64, 127
1, 883645, Note_on_c, 0, 60, 96
1, 883646, Note_on_c, 0, 51, 98
1, 883646, Note_on_c, 0, 63, 89
1, 883649, Note_on_c, 0, 36, 79
1, 883664, Note_off_c, 0, 43, 68
1, 883666, Note_off_c, 0, 51, 70
1, 883677, Note_off_c, 0, 36, 65
1, 883680, Note_off_c, 0, 60, 69
1, 883689, Note_off_c, 0, 63, 63
1, 883730, Control_c, 0, 64, 81
1, 883745, Control_c, 0, 64, 51
1, 883760, Control_c, 0, 64, 0
1, 884036, Note_on_c, 0, 67, 71
1, 884041, Note_on_c, 0, 55, 77
1, 884047, Note_on_c, 0, 60, 70
1, 884055, Note_on_c, 0, 42, 68
1, 884056, Note_on_c, 0, 63, 42
1, 884061, Note_off_c, 0, 67, 68
1, 884082, Note_off_c, 0, 55, 63
1, 884082, Note_off_c, 0, 63, 52
1, 884090, Note_off_c, 0, 60, 63
1, 884156, Note_on_c, 0, 36, 68
1, 884165, Note_on_c, 0, 43, 90
1, 884169, Note_on_c, 0, 60, 96
1, 884171, Note_on_c, 0, 63, 77
1, 884172, Note_off_c, 0, 42, 59
1, 884173, Note_on_c, 0, 51, 95
1, 884193, Note_off_c, 0, 36, 66
1, 884193, Note_off_c, 0, 43, 68
1, 884198, Note_off_c, 0, 51, 65
1, 884206, Control_c, 0, 64, 65
1, 884213, Note_off_c, 0, 60, 66
1, 884219, Note_off_c, 0, 63, 58
1, 884220, Control_c, 0, 64, 127
1, 884250, Control_c, 0, 64, 56
1, 884265, Control_c, 0, 64, 0
1, 884514, Note_on_c, 0, 55, 87
1, 884514, Note_on_c, 0, 67, 77
1, 884518, Note_on_c, 0, 60, 83
1, 884523, Note_on_c, 0, 42, 86
1, 884529, Note_on_c, 0, 63, 57
1, 884541, Note_off_c, 0, 67, 66
1, 884549, Note_off_c, 0, 63, 62
1, 884553, Note_on_c, 0, 36, 47
1, 884561, Note_off_c, 0, 55, 64
1, 884567, Note_off_c, 0, 60, 65
1, 884570, Note_on_c, 0, 43, 20
1, 884587, Note_off_c, 0, 36, 61
1, 884612, Note_off_c, 0, 42, 63
1, 884614, Note_off_c, 0, 43, 31
1, 884642, Note_on_c, 0, 43, 93
1, 884647, Note_on_c, 0, 60, 99
1, 884648, Note_on_c, 0, 51, 103
1, 884649, Note_on_c, 0, 36, 91
1, 884649, Note_on_c, 0, 63, 80
1, 884657, Control_c, 0, 64, 84
1, 884672, Control_c, 0, 64, 127
1, 884675, Note_off_c, 0, 63, 67
1, 884679, Note_off_c, 0, 36, 65
1, 884683, Note_off_c, 0, 43, 67
1, 884687, Note_off_c, 0, 51, 65
1, 884694, Note_off_c, 0, 60, 64
1, 884760, Control_c, 0, 64, 91
1, 884775, Control_c, 0, 64, 52
1, 884791, Control_c, 0, 64, 0
1, 884980, Note_on_c, 0, 60, 87
1, 884981, Note_on_c, 0, 55, 92
1, 884982, Note_on_c, 0, 67, 79
1, 884985, Note_on_c, 0, 43, 91
1, 884987, Note_on_c, 0, 31, 79
1, 884989, Note_on_c, 0, 63, 71
1, 885009, Note_off_c, 0, 67, 66
1, 885016, Note_off_c, 0, 63, 67
1, 885023, Note_off_c, 0, 60, 66
1, 885030, Note_off_c, 0, 55, 65
1, 885043, Note_on_c, 0, 38, 38
1, 885046, Note_off_c, 0, 43, 65
1, 885052, Note_off_c, 0, 31, 64
1, 885113, Note_on_c, 0, 36, 13
1, 885165, Note_off_c, 0, 36, 53
1, 885166, Note_on_c, 0, 59, 91
1, 885167, Note_on_c, 0, 51, 103
1, 885167, Note_on_c, 0, 44, 121
1, 885175, Note_on_c, 0, 63, 82
1, 885177, Note_on_c, 0, 32, 78
1, 885183, Control_c, 0, 64, 58
1, 885185, Note_on_c, 0, 61, 66
1, 885190, Note_on_c, 0, 58, 30
1, 885195, Note_off_c, 0, 51, 65
1, 885197, Note_off_c, 0, 63, 67
1, 885198, Note_off_c, 0, 32, 66
1, 885198, Note_off_c, 0, 38, 55
1, 885198, Control_c, 0, 64, 127
1, 885205, Note_off_c, 0, 59, 65
1, 885210, Note_off_c, 0, 44, 66
1, 885214, Note_off_c, 0, 61, 65
1, 885225, Note_off_c, 0, 58, 53
1, 885450, Control_c, 0, 64, 65
1, 885462, Note_on_c, 0, 59, 82
1, 885465, Control_c, 0, 64, 0
1, 885468, Note_on_c, 0, 68, 93
1, 885470, Note_on_c, 0, 63, 102
1, 885470, Note_on_c, 0, 71, 72
1, 885471, Note_on_c, 0, 75, 90
1, 885476, Note_on_c, 0, 51, 81
1, 885509, Control_c, 0, 64, 60
1, 885521, Note_on_c, 0, 76, 30
1, 885524, Control_c, 0, 64, 82
1, 885528, Note_on_c, 0, 74, 21
1, 885539, Control_c, 0, 64, 127
1, 885549, Note_off_c, 0, 51, 63
1, 885551, Note_off_c, 0, 76, 35
1, 885553, Note_off_c, 0, 63, 60
1, 885578, Note_off_c, 0, 74, 43
1, 885604, Note_off_c, 0, 59, 60
1, 885643, Note_on_c, 0, 62, 98
1, 885645, Note_on_c, 0, 50, 86
1, 885672, Note_on_c, 0, 52, 45
1, 885685, Note_off_c, 0, 62, 69
1, 885694, Note_off_c, 0, 50, 65
1, 885695, Note_off_c, 0, 75, 60
1, 885700, Note_off_c, 0, 71, 38
1, 885701, Note_off_c, 0, 52, 55
1, 885712, Note_off_c, 0, 68, 59
1, 885778, Note_on_c, 0, 61, 105
1, 885791, Note_on_c, 0, 49, 87
1, 885813, Note_off_c, 0, 49, 69
1, 885822, Note_off_c, 0, 61, 66
1, 885828, Control_c, 0, 64, 115
1, 885843, Control_c, 0, 64, 71
1, 885858, Control_c, 0, 64, 51
1, 885873, Control_c, 0, 64, 0
1, 885897, Note_on_c, 0, 59, 100
1, 885899, Note_on_c, 0, 56, 103
1, 885903, Note_on_c, 0, 63, 84
1, 885906, Note_on_c, 0, 47, 80
1, 885925, Note_off_c, 0, 63, 66
1, 885931, Note_off_c, 0, 47, 67
1, 885933, Note_off_c, 0, 59, 68
1, 885934, Note_off_c, 0, 56, 62
1, 886005, Note_on_c, 0, 59, 100
1, 886015, Note_on_c, 0, 47, 84
1, 886018, Note_on_c, 0, 63, 95
1, 886020, Note_on_c, 0, 56, 100
1, 886043, Note_off_c, 0, 47, 66
1, 886051, Control_c, 0, 64, 57
1, 886063, Note_off_c, 0, 59, 56
1, 886065, Control_c, 0, 64, 125
1, 886080, Control_c, 0, 64, 127
1, 886116, Note_on_c, 0, 51, 93
1, 886120, Note_on_c, 0, 53, 37
1, 886140, Poly_aftertouch_c, 0, 49, 127
1, 886153, Note_off_c, 0, 53, 56
1, 886166, Note_off_c, 0, 63, 60
1, 886173, Note_off_c, 0, 51, 66
1, 886192, Note_off_c, 0, 56, 62
1, 886193, Poly_aftertouch_c, 0, 49, 0
1, 886229, Note_on_c, 0, 48, 98
1, 886261, Note_on_c, 0, 36, 57
1, 886265, Note_off_c, 0, 48, 69
1, 886290, Note_off_c, 0, 36, 55
1, 886336, Note_on_c, 0, 49, 98
1, 886337, Note_on_c, 0, 44, 104
1, 886339, Note_on_c, 0, 51, 101
1, 886362, Note_off_c, 0, 51, 67
1, 886366, Note_off_c, 0, 44, 61
1, 886381, Note_off_c, 0, 49, 63
1, 886413, Note_on_c, 0, 35, 3
1, 886416, Note_on_c, 0, 49, 85
1, 886427, Note_on_c, 0, 44, 104
1, 886432, Note_on_c, 0, 51, 98
1, 886455, Note_off_c, 0, 51, 64
1, 886461, Note_off_c, 0, 35, 46
1, 886463, Note_off_c, 0, 49, 68
1, 886474, Note_off_c, 0, 44, 65
1, 886479, Note_on_c, 0, 39, 71
1, 886512, Note_off_c, 0, 39, 65
1, 886553, Poly_aftertouch_c, 0, 52, 0
1, 886569, Poly_aftertouch_c, 0, 38, 127
1, 886609, Poly_aftertouch_c, 0, 38, 0
1, 886615, Note_on_c, 0, 56, 37
1, 886651, Note_off_c, 0, 56, 64
1, 886651, Control_c, 0, 64, 64
1, 886666, Control_c, 0, 64, 0
1, 886674, Note_on_c, 0, 35, 103
1, 886675, Note_on_c, 0, 59, 91
1, 886678, Note_on_c, 0, 47, 104
1, 886681, Note_on_c, 0, 23, 81
1, 886687, Note_on_c, 0, 29, 52
1, 886708, Note_off_c, 0, 23, 62
1, 886716, Note_off_c, 0, 47, 68
1, 886719, Note_off_c, 0, 35, 65
1, 886723, Note_off_c, 0, 29, 50
1, 886724, Note_on_c, 0, 51, 17
1, 886725, Note_off_c, 0, 51, 127
1, 886725, Note_on_c, 0, 52, 7
1, 886726, Control_c, 0, 64, 56
1, 886737, Note_on_c, 0, 56, 8
1, 886737, Note_off_c, 0, 59, 67
1, 886740, Control_c, 0, 64, 77
1, 886755, Control_c, 0, 64, 127
1, 886768, Note_off_c, 0, 52, 38
1, 886788, Note_off_c, 0, 56, 53
1, 887028, Note_on_c, 0, 59, 75
1, 887088, Note_on_c, 0, 83, 106
1, 887091, Note_on_c, 0, 95, 105
1, 887123, Note_off_c, 0, 83, 69
1, 887124, Note_off_c, 0, 95, 66
1, 887199, Control_c, 0, 64, 102
1, 887203, Note_off_c, 0, 59, 63
1, 887214, Control_c, 0, 64, 57
1, 887215, Note_on_c, 0, 55, 81
1, 887216, Note_on_c, 0, 67, 97
1, 887220, Note_on_c, 0, 61, 90
1, 887221, Note_on_c, 0, 64, 75
1, 887223, Note_on_c, 0, 91, 111
1, 887223, Note_on_c, 0, 79, 104
1, 887229, Control_c, 0, 64, 0
1, 887247, Note_on_c, 0, 81, 62
1, 887253, Note_off_c, 0, 67, 68
1, 887256, Note_off_c, 0, 55, 64
1, 887259, Control_c, 0, 64, 59
1, 887264, Note_off_c, 0, 81, 42
1, 887273, Note_off_c, 0, 61, 65
1, 887274, Control_c, 0, 64, 86
1, 887275, Note_off_c, 0, 64, 65
1, 887296, Control_c, 0, 64, 127
1, 887369, Note_on_c, 0, 85, 76
1, 887386, Note_off_c, 0, 79, 62
1, 887398, Note_off_c, 0, 91, 57
1, 887408, Note_on_c, 0, 82, 90
1, 887434, Note_off_c, 0, 85, 65
1, 887465, Note_off_c, 0, 82, 67
1, 887465, Poly_aftertouch_c, 0, 66, 127
1, 887465, Note_on_c, 0, 79, 96
1, 887500, Note_off_c, 0, 79, 68
1, 887510, Note_on_c, 0, 72, 74
1, 887512, Poly_aftertouch_c, 0, 66, 0
1, 887533, Note_on_c, 0, 71, 54
1, 887557, Note_on_c, 0, 70, 77
1, 887569, Note_off_c, 0, 72, 61
1, 887570, Note_off_c, 0, 71, 48
1, 887603, Note_on_c, 0, 67, 81
1, 887629, Note_off_c, 0, 70, 66
1, 887641, Note_off_c, 0, 67, 69
1, 887711, Note_on_c, 0, 61, 92
1, 887740, Note_on_c, 0, 58, 83
1, 887782, Note_off_c, 0, 61, 61
1, 887784, Note_on_c, 0, 55, 87
1, 887821, Note_off_c, 0, 58, 62
1, 887836, Note_on_c, 0, 52, 92
1, 887855, Note_off_c, 0, 55, 63
1, 887900, Note_on_c, 0, 49, 75
1, 887915, Note_off_c, 0, 52, 62
1, 887941, Note_on_c, 0, 46, 79
1, 887953, Note_off_c, 0, 49, 65
1, 887966, Note_off_c, 0, 46, 67
1, 888010, Note_on_c, 0, 43, 86
1, 888056, Note_on_c, 0, 39, 75
1, 888067, Note_off_c, 0, 43, 63
1, 888079, Note_off_c, 0, 39, 61
1, 888081, Note_on_c, 0, 40, 77
1, 888120, Note_off_c, 0, 40, 64
1, 888128, Note_on_c, 0, 38, 52
1, 888158, Note_off_c, 0, 38, 53
1, 888163, Control_c, 0, 64, 109
1, 888178, Control_c, 0, 64, 60
1, 888190, Note_on_c, 0, 40, 97
1, 888192, Control_c, 0, 64, 0
1, 888198, Note_on_c, 0, 28, 94
1, 888252, Control_c, 0, 64, 60
1, 888267, Control_c, 0, 64, 87
1, 888270, Note_off_c, 0, 28, 63
1, 888282, Control_c, 0, 64, 127
1, 888296, Note_off_c, 0, 40, 66
1, 888508, Poly_aftertouch_c, 0, 54, 127
1, 888535, Note_on_c, 0, 48, 83
1, 888537, Note_on_c, 0, 76, 104
1, 888546, Poly_aftertouch_c, 0, 54, 0
1, 888571, Note_on_c, 0, 72, 48
1, 888578, Note_on_c, 0, 74, 50
1, 888595, Note_off_c, 0, 72, 57
1, 888598, Note_off_c, 0, 74, 58
1, 888640, Note_off_c, 0, 76, 65
1, 888687, Note_on_c, 0, 76, 99
1, 888688, Note_on_c, 0, 72, 100
1, 888689, Note_on_c, 0, 84, 105
1, 888690, Note_on_c, 0, 57, 95
1, 888690, Note_on_c, 0, 60, 99
1, 888698, Note_on_c, 0, 81, 91
1, 888713, Note_on_c, 0, 52, 72
1, 888717, Note_off_c, 0, 48, 58
1, 888772, Note_off_c, 0, 81, 64
1, 888789, Note_off_c, 0, 60, 65
1, 888794, Note_off_c, 0, 76, 64
1, 888797, Note_off_c, 0, 84, 64
1, 888829, Note_on_c, 0, 48, 86
1, 888833, Note_off_c, 0, 57, 65
1, 888836, Note_off_c, 0, 52, 63
1, 888857, Note_off_c, 0, 48, 67
1, 888950, Note_on_c, 0, 40, 94
1, 888952, Note_off_c, 0, 72, 58
1, 889024, Note_on_c, 0, 76, 102
1, 889030, Note_off_c, 0, 40, 61
1, 889042, Note_on_c, 0, 28, 81
1, 889120, Control_c, 0, 64, 113
1, 889134, Control_c, 0, 64, 62
1, 889149, Control_c, 0, 64, 0
1, 889153, Note_on_c, 0, 71, 110
1, 889153, Note_on_c, 0, 83, 96
1, 889157, Note_on_c, 0, 40, 90
1, 889157, Note_on_c, 0, 72, 95
1, 889171, Note_on_c, 0, 79, 65
1, 889176, Note_on_c, 0, 73, 47
1, 889179, Note_off_c, 0, 28, 63
1, 889182, Note_off_c, 0, 76, 63
1, 889194, Control_c, 0, 64, 54
1, 889199, Note_off_c, 0, 40, 66
1, 889205, Note_off_c, 0, 73, 35
1, 889209, Control_c, 0, 64, 72
1, 889224, Control_c, 0, 64, 127
1, 889266, Poly_aftertouch_c, 0, 35, 0
1, 889319, Note_off_c, 0, 83, 51
1, 889334, Note_on_c, 0, 48, 85
1, 889373, Note_on_c, 0, 50, 42
1, 889404, Note_off_c, 0, 50, 55
1, 889412, Note_off_c, 0, 48, 62
1, 889427, Note_off_c, 0, 79, 12
1, 889439, Note_on_c, 0, 57, 87
1, 889439, Note_on_c, 0, 60, 95
1, 889455, Note_on_c, 0, 52, 67
1, 889459, Note_off_c, 0, 72, 57
1, 889516, Note_off_c, 0, 60, 68
1, 889534, Note_off_c, 0, 71, 56
1, 889540, Note_on_c, 0, 48, 93
1, 889546, Note_off_c, 0, 52, 65
1, 889572, Note_on_c, 0, 76, 98
1, 889572, Note_off_c, 0, 57, 65
1, 889602, Note_off_c, 0, 48, 65
1, 889706, Note_on_c, 0, 81, 97
1, 889706, Control_c, 0, 64, 72
1, 889707, Note_on_c, 0, 72, 100
1, 889709, Note_on_c, 0, 69, 101
1, 889717, Note_on_c, 0, 40, 88
1, 889721, Control_c, 0, 64, 18
1, 889735, Note_on_c, 0, 77, 60
1, 889736, Control_c, 0, 64, 0
1, 889765, Control_c, 0, 64, 50
1, 889780, Control_c, 0, 64, 68
1, 889787, Note_off_c, 0, 76, 55
1, 889795, Control_c, 0, 64, 90
1, 889808, Note_off_c, 0, 40, 62
1, 889810, Control_c, 0, 64, 127
1, 889818, Note_off_c, 0, 77, 59
1, 889826, Note_on_c, 0, 28, 78
1, 889862, Note_off_c, 0, 81, 63
1, 889865, Note_off_c, 0, 72, 61
1, 889909, Note_on_c, 0, 40, 86
1, 889921, Note_off_c, 0, 28, 61
1, 889930, Poly_aftertouch_c, 0, 35, 127
1, 889945, Note_off_c, 0, 40, 66
1, 889979, Poly_aftertouch_c, 0, 35, 0
1, 889984, Note_off_c, 0, 69, 62
1, 890025, Note_on_c, 0, 72, 89
1, 890052, Note_on_c, 0, 48, 68
1, 890097, Note_off_c, 0, 72, 64
1, 890118, Note_off_c, 0, 48, 62
1, 890136, Note_on_c, 0, 79, 94
1, 890140, Note_on_c, 0, 69, 98
1, 890142, Note_on_c, 0, 67, 97
1, 890148, Note_on_c, 0, 60, 81
1, 890155, Note_on_c, 0, 57, 74
1, 890169, Note_off_c, 0, 60, 73
1, 890213, Note_on_c, 0, 52, 31
1, 890220, Note_off_c, 0, 57, 65
1, 890227, Note_on_c, 0, 48, 61
1, 890246, Poly_aftertouch_c, 0, 58, 0
1, 890249, Note_off_c, 0, 52, 53
1, 890265, Note_off_c, 0, 48, 50
1, 890335, Note_on_c, 0, 40, 86
1, 890342, Note_off_c, 0, 79, 55
1, 890407, Note_off_c, 0, 40, 63
1, 890423, Note_off_c, 0, 67, 61
1, 890430, Note_on_c, 0, 28, 78
1, 890431, Note_off_c, 0, 69, 60
1, 890461, Note_on_c, 0, 72, 86
1, 890487, Note_on_c, 0, 71, 51
1, 890488, Note_off_c, 0, 71, 127
1, 890603, Control_c, 0, 64, 60
1, 890606, Note_on_c, 0, 69, 98
1, 890608, Note_on_c, 0, 77, 90
1, 890613, Note_on_c, 0, 65, 93
1, 890618, Control_c, 0, 64, 0
1, 890619, Note_on_c, 0, 79, 58
1, 890620, Note_off_c, 0, 79, 127
1, 890625, Note_on_c, 0, 40, 81
1, 890629, Note_on_c, 0, 67, 63
1, 890630, Note_off_c, 0, 67, 127
1, 890637, Note_on_c, 0, 74, 58
1, 890653, Note_off_c, 0, 28, 63
1, 890656, Note_off_c, 0, 72, 59
1, 890677, Control_c, 0, 64, 21
1, 890678, Note_off_c, 0, 74, 49
1, 890681, Note_off_c, 0, 40, 64
1, 890691, Control_c, 0, 64, 62
1, 890706, Control_c, 0, 64, 72
1, 890721, Control_c, 0, 64, 80
1, 890735, Control_c, 0, 64, 84
1, 890765, Control_c, 0, 64, 86
1, 890780, Control_c, 0, 64, 94
1, 890794, Control_c, 0, 64, 127
1, 890795, Note_off_c, 0, 77, 60
1, 890797, Note_on_c, 0, 48, 80
1, 890812, Note_off_c, 0, 65, 60
1, 890829, Note_off_c, 0, 69, 64
1, 890873, Note_off_c, 0, 48, 62
1, 890878, Note_on_c, 0, 60, 69
1, 890894, Note_on_c, 0, 57, 65
1, 890907, Note_on_c, 0, 52, 57
1, 890909, Note_off_c, 0, 60, 68
1, 890991, Note_on_c, 0, 48, 71
1, 890997, Note_on_c, 0, 72, 102
1, 890997, Note_off_c, 0, 52, 64
1, 890999, Note_off_c, 0, 57, 64
1, 891039, Note_off_c, 0, 48, 64
1, 891178, Note_on_c, 0, 76, 94
1, 891182, Note_on_c, 0, 69, 83
1, 891197, Note_on_c, 0, 64, 82
1, 891206, Note_on_c, 0, 40, 51
1, 891215, Note_off_c, 0, 72, 57
1, 891218, Control_c, 0, 64, 78
1, 891233, Control_c, 0, 64, 47
1, 891248, Control_c, 0, 64, 0
1, 891298, Note_off_c, 0, 40, 58
1, 891307, Control_c, 0, 64, 49
1, 891322, Control_c, 0, 64, 62
1, 891325, Note_off_c, 0, 69, 60
1, 891333, Note_on_c, 0, 28, 66
1, 891337, Control_c, 0, 64, 68
1, 891349, Note_off_c, 0, 76, 66
1, 891352, Control_c, 0, 64, 72
1, 891366, Control_c, 0, 64, 78
1, 891381, Control_c, 0, 64, 84
1, 891383, Note_off_c, 0, 64, 65
1, 891396, Control_c, 0, 64, 90
1, 891398, Note_off_c, 0, 28, 63
1, 891410, Control_c, 0, 64, 97
1, 891412, Note_on_c, 0, 40, 59
1, 891425, Control_c, 0, 64, 107
1, 891440, Control_c, 0, 64, 115
1, 891446, Note_off_c, 0, 40, 52
1, 891455, Control_c, 0, 64, 127
1, 891536, Note_on_c, 0, 48, 59
1, 891549, Note_on_c, 0, 60, 69
1, 891611, Note_on_c, 0, 56, 61
1, 891617, Control_c, 0, 64, 95
1, 891632, Control_c, 0, 64, 67
1, 891647, Control_c, 0, 64, 39
1, 891662, Control_c, 0, 64, 0
1, 891666, Note_on_c, 0, 72, 75
1, 891669, Note_off_c, 0, 56, 61
1, 891676, Note_on_c, 0, 70, 69
1, 891692, Control_c, 0, 64, 36
1, 891705, Note_off_c, 0, 48, 58
1, 891707, Note_on_c, 0, 49, 55
1, 891707, Control_c, 0, 64, 59
1, 891722, Control_c, 0, 64, 65
1, 891725, Note_off_c, 0, 60, 57
1, 891736, Control_c, 0, 64, 68
1, 891751, Control_c, 0, 64, 69
1, 891763, Note_off_c, 0, 70, 62
1, 891773, Note_on_c, 0, 61, 76
1, 891788, Control_c, 0, 64, 70
1, 891803, Control_c, 0, 64, 71
1, 891805, Note_off_c, 0, 49, 64
1, 891810, Note_off_c, 0, 72, 63
1, 891817, Control_c, 0, 64, 73
1, 891832, Note_on_c, 0, 48, 66
1, 891832, Control_c, 0, 64, 76
1, 891841, Note_off_c, 0, 61, 63
1, 891847, Control_c, 0, 64, 84
1, 891855, Note_off_c, 0, 48, 62
1, 891862, Control_c, 0, 64, 104
1, 891869, Note_on_c, 0, 69, 73
1, 891877, Control_c, 0, 64, 127
1, 891918, Poly_aftertouch_c, 0, 66, 127
1, 891933, Note_on_c, 0, 60, 43
1, 891933, Note_off_c, 0, 69, 63
1, 891956, Poly_aftertouch_c, 0, 66, 0
1, 891963, Note_off_c, 0, 60, 54
1, 892026, Control_c, 0, 64, 88
1, 892040, Control_c, 0, 64, 63
1, 892055, Control_c, 0, 64, 0
1, 892063, Note_on_c, 0, 69, 75
1, 892079, Note_on_c, 0, 29, 55
1, 892089, Note_on_c, 0, 81, 90
1, 892089, Note_off_c, 0, 69, 68
1, 892100, Control_c, 0, 64, 49
1, 892107, Note_off_c, 0, 81, 73
1, 892113, Note_off_c, 0, 29, 59
1, 892115, Control_c, 0, 64, 64
1, 892130, Control_c, 0, 64, 74
1, 892145, Control_c, 0, 64, 92
1, 892159, Control_c, 0, 64, 127
1, 892243, Note_on_c, 0, 49, 55
1, 892292, Note_on_c, 0, 60, 46
1, 892328, Note_off_c, 0, 49, 61
1, 892378, Note_on_c, 0, 72, 72
1, 892386, Note_on_c, 0, 49, 42
1, 892394, Poly_aftertouch_c, 0, 56, 0
1, 892399, Note_on_c, 0, 71, 60
1, 892426, Control_c, 0, 64, 115
1, 892441, Control_c, 0, 64, 94
1, 892449, Note_off_c, 0, 60, 62
1, 892452, Note_off_c, 0, 71, 0
1, 892455, Note_on_c, 0, 61, 74
1, 892456, Control_c, 0, 64, 88
1, 892464, Note_on_c, 0, 71, 19
1, 892471, Control_c, 0, 64, 87
1, 892486, Control_c, 0, 64, 88
1, 892494, Note_off_c, 0, 72, 63
1, 892494, Note_off_c, 0, 49, 63
1, 892500, Control_c, 0, 64, 89
1, 892501, Note_off_c, 0, 71, 51
1, 892510, Note_on_c, 0, 48, 72
1, 892538, Control_c, 0, 64, 89
1, 892548, Note_off_c, 0, 48, 66
1, 892553, Control_c, 0, 64, 87
1, 892559, Note_off_c, 0, 61, 60
1, 892565, Note_on_c, 0, 68, 81
1, 892567, Control_c, 0, 64, 86
1, 892582, Control_c, 0, 64, 87
1, 892597, Control_c, 0, 64, 89
1, 892612, Control_c, 0, 64, 91
1, 892627, Control_c, 0, 64, 97
1, 892628, Note_off_c, 0, 68, 64
1, 892637, Note_on_c, 0, 60, 58
1, 892641, Control_c, 0, 64, 110
1, 892656, Control_c, 0, 64, 127
1, 892658, Note_off_c, 0, 60, 62
1, 892663, Poly_aftertouch_c, 0, 65, 0
1, 892730, Control_c, 0, 64, 115
1, 892745, Control_c, 0, 64, 73
1, 892759, Control_c, 0, 64, 52
1, 892764, Note_on_c, 0, 29, 65
1, 892764, Note_on_c, 0, 68, 88
1, 892774, Control_c, 0, 64, 0
1, 892791, Note_off_c, 0, 68, 67
1, 892796, Note_off_c, 0, 29, 59
1, 892805, Control_c, 0, 64, 19
1, 892820, Control_c, 0, 64, 58
1, 892825, Note_on_c, 0, 80, 59
1, 892835, Control_c, 0, 64, 67
1, 892845, Note_off_c, 0, 80, 40
1, 892849, Control_c, 0, 64, 77
1, 892864, Control_c, 0, 64, 91
1, 892879, Control_c, 0, 64, 108
1, 892894, Control_c, 0, 64, 127
1, 892944, Note_on_c, 0, 49, 32
1, 892961, Note_on_c, 0, 60, 55
1, 893028, Note_on_c, 0, 54, 18
1, 893039, Note_off_c, 0, 49, 0
1, 893039, Note_on_c, 0, 49, 19
1, 893046, Note_on_c, 0, 72, 76
1, 893062, Note_on_c, 0, 68, 53
1, 893072, Note_off_c, 0, 54, 44
1, 893072, Note_on_c, 0, 65, 34
1, 893093, Note_off_c, 0, 68, 61
1, 893104, Note_off_c, 0, 65, 50
1, 893105, Note_off_c, 0, 72, 65
1, 893165, Note_on_c, 0, 61, 70
1, 893173, Note_off_c, 0, 49, 61
1, 893226, Note_off_c, 0, 60, 40
1, 893227, Note_off_c, 0, 61, 61
1, 893235, Note_on_c, 0, 64, 61
1, 893236, Poly_aftertouch_c, 0, 50, 127
1, 893260, Poly_aftertouch_c, 0, 50, 0
1, 893270, Note_on_c, 0, 69, 55
1, 893275, Poly_aftertouch_c, 0, 48, 0
1, 893286, Note_on_c, 0, 67, 48
1, 893288, Note_off_c, 0, 64, 62
1, 893314, Note_off_c, 0, 67, 63
1, 893316, Note_off_c, 0, 69, 65
1, 893322, Note_on_c, 0, 60, 63
1, 893351, Note_off_c, 0, 60, 66
1, 893420, Control_c, 0, 64, 87
1, 893435, Control_c, 0, 64, 65
1, 893450, Control_c, 0, 64, 46
1, 893456, Note_on_c, 0, 67, 79
1, 893458, Note_on_c, 0, 29, 53
1, 893464, Control_c, 0, 64, 42
1, 893479, Control_c, 0, 64, 52
1, 893490, Note_off_c, 0, 67, 65
1, 893494, Note_off_c, 0, 29, 57
1, 893494, Control_c, 0, 64, 63
1, 893500, Note_on_c, 0, 79, 80
1, 893508, Control_c, 0, 64, 72
1, 893521, Note_off_c, 0, 79, 71
1, 893523, Control_c, 0, 64, 93
1, 893538, Control_c, 0, 64, 127
1, 893652, Note_on_c, 0, 49, 42
1, 893683, Note_on_c, 0, 60, 66
1, 893757, Note_on_c, 0, 54, 38
1, 893764, Note_off_c, 0, 49, 0
1, 893766, Note_on_c, 0, 72, 75
1, 893771, Note_off_c, 0, 60, 51
1, 893772, Note_on_c, 0, 67, 72
1, 893788, Note_on_c, 0, 49, 11
1, 893790, Note_off_c, 0, 54, 59
1, 893835, Control_c, 0, 64, 89
1, 893840, Note_off_c, 0, 67, 61
1, 893846, Note_off_c, 0, 72, 62
1, 893850, Control_c, 0, 64, 73
1, 893865, Control_c, 0, 64, 64
1, 893880, Control_c, 0, 64, 54
1, 893883, Note_on_c, 0, 59, 64
1, 893891, Note_on_c, 0, 60, 49
1, 893895, Control_c, 0, 64, 37
1, 893905, Note_off_c, 0, 59, 64
1, 893910, Control_c, 0, 64, 0
1, 893911, Note_off_c, 0, 60, 63
1, 893917, Note_off_c, 0, 49, 55
1, 893936, Note_on_c, 0, 48, 39
1, 893958, Note_on_c, 0, 66, 71
1, 893981, Note_on_c, 0, 63, 39
1, 893984, Note_off_c, 0, 48, 63
1, 894007, Note_off_c, 0, 63, 55
1, 894011, Note_off_c, 0, 66, 59
1, 894066, Note_on_c, 0, 58, 77
1, 894119, Note_off_c, 0, 58, 58
1, 894190, Note_on_c, 0, 53, 83
1, 894205, Note_on_c, 0, 29, 56
1, 894208, Note_on_c, 0, 41, 67
1, 894213, Control_c, 0, 64, 61
1, 894214, Note_off_c, 0, 53, 70
1, 894228, Control_c, 0, 64, 95
1, 894237, Note_off_c, 0, 41, 66
1, 894242, Note_off_c, 0, 29, 52
1, 894243, Control_c, 0, 64, 127
1, 894497, Note_on_c, 0, 48, 47
1, 894505, Note_on_c, 0, 84, 94
1, 894515, Note_on_c, 0, 57, 64
1, 894515, Note_on_c, 0, 72, 86
1, 894520, Note_on_c, 0, 74, 84
1, 894536, Note_off_c, 0, 48, 61
1, 894539, Note_off_c, 0, 74, 72
1, 894546, Note_off_c, 0, 72, 63
1, 894558, Note_off_c, 0, 84, 64
1, 894595, Note_off_c, 0, 57, 63
1, 894628, Note_on_c, 0, 60, 70
1, 894634, Note_on_c, 0, 81, 95
1, 894643, Note_on_c, 0, 72, 92
1, 894665, Note_off_c, 0, 72, 70
1, 894674, Note_off_c, 0, 81, 67
1, 894703, Note_off_c, 0, 60, 63
1, 894735, Note_on_c, 0, 63, 74
1, 894799, Note_on_c, 0, 66, 70
1, 894800, Note_off_c, 0, 63, 62
1, 894825, Note_off_c, 0, 66, 67
1, 894845, Note_on_c, 0, 69, 82
1, 894883, Note_on_c, 0, 72, 72
1, 894907, Note_off_c, 0, 69, 64
1, 894930, Note_on_c, 0, 75, 80
1, 894939, Note_off_c, 0, 72, 66
1, 894947, Control_c, 0, 64, 85
1, 894952, Note_off_c, 0, 75, 68
1, 894962, Control_c, 0, 64, 53
1, 894977, Control_c, 0, 64, 0
1, 894992, Control_c, 0, 64, 43
1, 894998, Note_on_c, 0, 54, 44
1, 895006, Note_on_c, 0, 66, 92
1, 895006, Note_on_c, 0, 78, 104
1, 895006, Control_c, 0, 64, 63
1, 895012, Note_on_c, 0, 90, 93
1, 895021, Control_c, 0, 64, 91
1, 895030, Note_off_c, 0, 54, 64
1, 895033, Note_off_c, 0, 90, 67
1, 895036, Control_c, 0, 64, 127
1, 895038, Note_off_c, 0, 78, 62
1, 895055, Note_off_c, 0, 66, 63
1, 895210, Note_on_c, 0, 59, 67
1, 895218, Note_on_c, 0, 69, 76
1, 895227, Note_on_c, 0, 63, 70
1, 895252, Note_off_c, 0, 69, 0
1, 895254, Note_on_c, 0, 71, 87
1, 895257, Note_on_c, 0, 83, 88
1, 895286, Note_off_c, 0, 63, 65
1, 895290, Poly_aftertouch_c, 0, 69, 127
1, 895302, Poly_aftertouch_c, 0, 69, 0
1, 895305, Note_off_c, 0, 71, 63
1, 895309, Note_off_c, 0, 59, 61
1, 895328, Note_on_c, 0, 75, 79
1, 895339, Note_off_c, 0, 83, 56
1, 895352, Note_off_c, 0, 75, 51
1, 895364, Note_on_c, 0, 74, 55
1, 895389, Note_off_c, 0, 74, 63
1, 895402, Note_on_c, 0, 71, 79
1, 895421, Note_off_c, 0, 71, 73
1, 895488, Note_on_c, 0, 70, 86
1, 895531, Note_off_c, 0, 70, 55
1, 895615, Note_on_c, 0, 69, 77
1, 895663, Note_on_c, 0, 66, 64
1, 895683, Note_off_c, 0, 69, 58
1, 895695, Note_on_c, 0, 63, 66
1, 895724, Control_c, 0, 64, 88
1, 895734, Note_on_c, 0, 59, 57
1, 895739, Control_c, 0, 64, 61
1, 895740, Note_off_c, 0, 66, 59
1, 895754, Control_c, 0, 64, 0
1, 895756, Note_off_c, 0, 63, 58
1, 895777, Note_on_c, 0, 29, 64
1, 895779, Note_on_c, 0, 41, 71
1, 895782, Note_on_c, 0, 53, 77
1, 895798, Control_c, 0, 64, 31
1, 895800, Note_on_c, 0, 55, 51
1, 895808, Note_off_c, 0, 59, 64
1, 895809, Note_off_c, 0, 29, 60
1, 895811, Note_off_c, 0, 53, 67
1, 895813, Control_c, 0, 64, 59
1, 895819, Note_off_c, 0, 41, 64
1, 895828, Control_c, 0, 64, 67
1, 895829, Note_off_c, 0, 55, 35
1, 895843, Control_c, 0, 64, 76
1, 895857, Control_c, 0, 64, 92
1, 895872, Control_c, 0, 64, 122
1, 895887, Control_c, 0, 64, 127
1, 895996, Note_on_c, 0, 57, 73
1, 896000, Note_on_c, 0, 72, 86
1, 896016, Note_on_c, 0, 48, 53
1, 896049, Note_off_c, 0, 72, 63
1, 896066, Control_c, 0, 64, 112
1, 896081, Control_c, 0, 64, 72
1, 896088, Note_on_c, 0, 69, 88
1, 896096, Control_c, 0, 64, 61
1, 896100, Poly_aftertouch_c, 0, 63, 0
1, 896103, Note_on_c, 0, 60, 78
1, 896111, Control_c, 0, 64, 57
1, 896126, Control_c, 0, 64, 61
1, 896136, Note_off_c, 0, 57, 47
1, 896141, Control_c, 0, 64, 66
1, 896148, Note_on_c, 0, 66, 79
1, 896155, Control_c, 0, 64, 74
1, 896163, Note_off_c, 0, 69, 66
1, 896170, Control_c, 0, 64, 97
1, 896172, Note_off_c, 0, 60, 59
1, 896185, Control_c, 0, 64, 127
1, 896187, Note_on_c, 0, 63, 84
1, 896192, Note_off_c, 0, 66, 64
1, 896202, Note_off_c, 0, 48, 54
1, 896232, Note_off_c, 0, 63, 65
1, 896247, Note_on_c, 0, 61, 83
1, 896260, Note_on_c, 0, 57, 65
1, 896260, Note_on_c, 0, 60, 59
1, 896304, Note_off_c, 0, 61, 62
1, 896325, Note_off_c, 0, 60, 65
1, 896328, Note_on_c, 0, 56, 84
1, 896341, Note_off_c, 0, 57, 65
1, 896354, Note_off_c, 0, 56, 69
1, 896399, Control_c, 0, 64, 78
1, 896410, Note_on_c, 0, 63, 94
1, 896414, Control_c, 0, 64, 61
1, 896419, Note_on_c, 0, 51, 99
1, 896429, Control_c, 0, 64, 51
1, 896444, Control_c, 0, 64, 55
1, 896456, Note_on_c, 0, 49, 38
1, 896459, Control_c, 0, 64, 64
1, 896470, Note_on_c, 0, 59, 54
1, 896473, Control_c, 0, 64, 73
1, 896481, Note_off_c, 0, 51, 64
1, 896482, Note_off_c, 0, 63, 63
1, 896488, Control_c, 0, 64, 93
1, 896492, Note_off_c, 0, 49, 31
1, 896503, Control_c, 0, 64, 127
1, 896510, Note_on_c, 0, 47, 75
1, 896523, Note_on_c, 0, 58, 88
1, 896552, Note_off_c, 0, 59, 64
1, 896574, Note_off_c, 0, 58, 65
1, 896580, Note_on_c, 0, 55, 90
1, 896589, Note_on_c, 0, 46, 81
1, 896591, Poly_aftertouch_c, 0, 61, 127
1, 896610, Note_off_c, 0, 47, 64
1, 896618, Note_on_c, 0, 44, 75
1, 896619, Poly_aftertouch_c, 0, 61, 0
1, 896623, Note_off_c, 0, 55, 65
1, 896635, Note_off_c, 0, 46, 64
1, 896645, Note_off_c, 0, 44, 65
1, 896651, Note_on_c, 0, 54, 87
1, 896683, Note_on_c, 0, 51, 81
1, 896708, Note_off_c, 0, 54, 66
1, 896734, Note_on_c, 0, 50, 51
1, 896734, Note_off_c, 0, 51, 65
1, 896746, Note_on_c, 0, 48, 86
1, 896761, Note_off_c, 0, 50, 59
1, 896801, Note_off_c, 0, 48, 0
1, 896815, Note_on_c, 0, 46, 88
1, 896838, Poly_aftertouch_c, 0, 48, 127
1, 896843, Note_on_c, 0, 45, 94
1, 896845, Control_c, 0, 64, 120
1, 896860, Note_on_c, 0, 48, 2
1, 896861, Note_off_c, 0, 48, 50
1, 896861, Control_c, 0, 64, 63
1, 896866, Note_off_c, 0, 46, 67
1, 896875, Control_c, 0, 64, 0
1, 896888, Note_off_c, 0, 45, 68
1, 896894, Note_on_c, 0, 41, 109
1, 896899, Note_on_c, 0, 29, 82
1, 896919, Control_c, 0, 64, 26
1, 896927, Note_off_c, 0, 29, 65
1, 896934, Control_c, 0, 64, 66
1, 896941, Note_off_c, 0, 41, 68
1, 896949, Control_c, 0, 64, 91
1, 896963, Control_c, 0, 64, 127
1, 897180, Note_on_c, 0, 49, 81
1, 897203, Note_on_c, 0, 77, 117
1, 897298, Note_off_c, 0, 77, 63
1, 897362, Note_on_c, 0, 61, 102
1, 897364, Note_on_c, 0, 85, 105
1, 897368, Note_on_c, 0, 77, 86
1, 897369, Note_on_c, 0, 73, 106
1, 897372, Note_on_c, 0, 58, 93
1, 897380, Note_off_c, 0, 49, 63
1, 897382, Note_on_c, 0, 53, 54
1, 897384, Note_on_c, 0, 82, 82
1, 897432, Note_off_c, 0, 77, 60
1, 897433, Note_off_c, 0, 61, 60
1, 897454, Note_off_c, 0, 82, 63
1, 897473, Note_off_c, 0, 85, 63
1, 897490, Note_on_c, 0, 49, 84
1, 897496, Note_off_c, 0, 58, 62
1, 897504, Note_off_c, 0, 73, 61
1, 897514, Note_off_c, 0, 53, 61
1, 897538, Note_off_c, 0, 49, 64
1, 897608, Note_on_c, 0, 41, 95
1, 897682, Note_off_c, 0, 41, 64
1, 897691, Note_on_c, 0, 77, 102
1, 897695, Note_on_c, 0, 29, 88
1, 897808, Control_c, 0, 64, 100
1, 897823, Control_c, 0, 64, 61
1, 897837, Note_on_c, 0, 41, 102
1, 897838, Note_on_c, 0, 72, 106
1, 897838, Note_on_c, 0, 84, 102
1, 897838, Control_c, 0, 64, 0
1, 897841, Note_on_c, 0, 73, 100
1, 897845, Note_off_c, 0, 77, 36
1, 897847, Note_on_c, 0, 80, 76
1, 897857, Note_off_c, 0, 29, 61
1, 897869, Note_off_c, 0, 80, 72
1, 897881, Note_off_c, 0, 41, 66
1, 897882, Control_c, 0, 64, 43
1, 897897, Control_c, 0, 64, 64
1, 897912, Control_c, 0, 64, 77
1, 897926, Note_off_c, 0, 84, 61
1, 897926, Control_c, 0, 64, 116
1, 897941, Control_c, 0, 64, 127
1, 897954, Note_off_c, 0, 73, 63
1, 898004, Note_on_c, 0, 49, 84
1, 898072, Note_off_c, 0, 72, 60
1, 898083, Note_off_c, 0, 49, 57
1, 898084, Note_on_c, 0, 61, 95
1, 898090, Note_on_c, 0, 53, 60
1, 898164, Note_on_c, 0, 58, 78
1, 898169, Note_off_c, 0, 61, 64
1, 898193, Note_on_c, 0, 49, 85
1, 898196, Note_on_c, 0, 73, 94
1, 898210, Note_off_c, 0, 58, 65
1, 898213, Note_off_c, 0, 53, 64
1, 898222, Note_on_c, 0, 48, 62
1, 898234, Note_on_c, 0, 70, 40
1, 898245, Note_off_c, 0, 48, 60
1, 898247, Note_off_c, 0, 49, 63
1, 898262, Note_off_c, 0, 70, 56
1, 898294, Note_off_c, 0, 73, 64
1, 898326, Control_c, 0, 64, 107
1, 898337, Note_on_c, 0, 70, 109
1, 898340, Note_on_c, 0, 82, 100
1, 898341, Control_c, 0, 64, 64
1, 898356, Control_c, 0, 64, 0
1, 898357, Note_on_c, 0, 41, 76
1, 898371, Note_on_c, 0, 80, 55
1, 898401, Control_c, 0, 64, 31
1, 898406, Note_on_c, 0, 37, 15
1, 898415, Note_off_c, 0, 80, 0
1, 898416, Control_c, 0, 64, 63
1, 898427, Note_off_c, 0, 41, 63
1, 898431, Control_c, 0, 64, 73
1, 898432, Note_on_c, 0, 80, 22
1, 898446, Control_c, 0, 64, 89
1, 898461, Control_c, 0, 64, 117
1, 898464, Note_off_c, 0, 82, 60
1, 898475, Control_c, 0, 64, 127
1, 898476, Note_on_c, 0, 29, 64
1, 898476, Note_on_c, 0, 31, 56
1, 898482, Note_off_c, 0, 37, 37
1, 898525, Note_off_c, 0, 31, 62
1, 898551, Note_on_c, 0, 41, 72
1, 898551, Note_off_c, 0, 29, 61
1, 898561, Note_on_c, 0, 40, 62
1, 898574, Note_off_c, 0, 80, 38
1, 898584, Note_off_c, 0, 41, 64
1, 898590, Note_off_c, 0, 40, 61
1, 898624, Note_off_c, 0, 70, 59
1, 898652, Note_on_c, 0, 73, 96
1, 898688, Note_on_c, 0, 49, 59
1, 898749, Control_c, 0, 64, 84
1, 898756, Note_off_c, 0, 49, 60
1, 898764, Control_c, 0, 64, 61
1, 898772, Note_on_c, 0, 61, 78
1, 898774, Note_on_c, 0, 70, 91
1, 898779, Control_c, 0, 64, 27
1, 898780, Note_on_c, 0, 78, 78
1, 898785, Note_on_c, 0, 68, 90
1, 898792, Note_on_c, 0, 58, 71
1, 898792, Note_on_c, 0, 79, 79
1, 898793, Control_c, 0, 64, 36
1, 898801, Note_on_c, 0, 53, 24
1, 898801, Note_off_c, 0, 73, 56
1, 898808, Control_c, 0, 64, 53
1, 898823, Control_c, 0, 64, 65
1, 898838, Control_c, 0, 64, 75
1, 898849, Note_off_c, 0, 61, 62
1, 898853, Control_c, 0, 64, 108
1, 898862, Poly_aftertouch_c, 0, 76, 127
1, 898867, Control_c, 0, 64, 127
1, 898871, Note_on_c, 0, 49, 68
1, 898886, Note_off_c, 0, 58, 63
1, 898886, Note_off_c, 0, 79, 46
1, 898898, Note_off_c, 0, 53, 52
1, 898903, Poly_aftertouch_c, 0, 67, 0
1, 898922, Poly_aftertouch_c, 0, 76, 0
1, 898922, Note_off_c, 0, 49, 63
1, 898931, Note_off_c, 0, 68, 60
1, 898959, Poly_aftertouch_c, 0, 76, 127
1, 898966, Note_off_c, 0, 78, 52
1, 898989, Note_on_c, 0, 43, 83
1, 899018, Poly_aftertouch_c, 0, 76, 0
1, 899049, Note_on_c, 0, 37, 24
1, 899061, Note_off_c, 0, 70, 59
1, 899065, Note_off_c, 0, 43, 61
1, 899085, Note_on_c, 0, 73, 88
1, 899109, Note_on_c, 0, 31, 56
1, 899116, Note_off_c, 0, 37, 40
1, 899165, Control_c, 0, 64, 78
1, 899180, Control_c, 0, 64, 13
1, 899195, Control_c, 0, 64, 0
1, 899211, Note_on_c, 0, 70, 82
1, 899213, Note_on_c, 0, 78, 84
1, 899216, Note_on_c, 0, 41, 77
1, 899217, Note_off_c, 0, 31, 62
1, 899219, Note_on_c, 0, 66, 90
1, 899239, Control_c, 0, 64, 55
1, 899248, Note_off_c, 0, 41, 65
1, 899250, Note_off_c, 0, 73, 60
1, 899254, Control_c, 0, 64, 66
1, 899276, Control_c, 0, 64, 73
1, 899291, Control_c, 0, 64, 84
1, 899305, Control_c, 0, 64, 100
1, 899320, Control_c, 0, 64, 127
1, 899363, Note_on_c, 0, 49, 65
1, 899365, Note_off_c, 0, 66, 60
1, 899384, Note_off_c, 0, 78, 64
1, 899427, Note_off_c, 0, 49, 62
1, 899448, Note_on_c, 0, 61, 69
1, 899466, Note_on_c, 0, 58, 65
1, 899466, Note_off_c, 0, 70, 61
1, 899487, Note_on_c, 0, 53, 37
1, 899494, Note_on_c, 0, 73, 73
1, 899494, Note_off_c, 0, 61, 58
1, 899538, Note_on_c, 0, 49, 73
1, 899540, Note_off_c, 0, 58, 63
1, 899540, Note_off_c, 0, 53, 60
1, 899566, Note_off_c, 0, 49, 67
1, 899633, Note_on_c, 0, 77, 85
1, 899641, Note_on_c, 0, 70, 69
1, 899657, Note_on_c, 0, 65, 72
1, 899661, Control_c, 0, 64, 78
1, 899674, Note_on_c, 0, 41, 66
1, 899677, Control_c, 0, 64, 51
1, 899691, Control_c, 0, 64, 0
1, 899751, Control_c, 0, 64, 14
1, 899764, Note_off_c, 0, 73, 58
1, 899765, Control_c, 0, 64, 54
1, 899773, Note_off_c, 0, 77, 65
1, 899780, Control_c, 0, 64, 61
1, 899786, Note_off_c, 0, 41, 57
1, 899787, Note_off_c, 0, 65, 61
1, 899795, Control_c, 0, 64, 63
1, 899800, Note_on_c, 0, 29, 66
1, 899810, Control_c, 0, 64, 65
1, 899818, Note_off_c, 0, 70, 62
1, 899824, Control_c, 0, 64, 67
1, 899839, Control_c, 0, 64, 70
1, 899854, Control_c, 0, 64, 79
1, 899869, Control_c, 0, 64, 99
1, 899871, Note_off_c, 0, 29, 62
1, 899884, Control_c, 0, 64, 127
1, 899913, Note_on_c, 0, 41, 24
1, 899952, Note_off_c, 0, 41, 50
1, 899976, Poly_aftertouch_c, 0, 73, 127
1, 899996, Note_on_c, 0, 61, 72
1, 900032, Poly_aftertouch_c, 0, 73, 0
1, 900033, Note_on_c, 0, 49, 60
1, 900134, Note_off_c, 0, 61, 61
1, 900140, Note_on_c, 0, 73, 80
1, 900142, Note_on_c, 0, 68, 51
1, 900144, Control_c, 0, 64, 81
1, 900159, Control_c, 0, 64, 63
1, 900169, Note_on_c, 0, 59, 55
1, 900174, Control_c, 0, 64, 35
1, 900189, Control_c, 0, 64, 27
1, 900203, Control_c, 0, 64, 37
1, 900205, Note_off_c, 0, 59, 64
1, 900218, Control_c, 0, 64, 52
1, 900220, Note_off_c, 0, 68, 61
1, 900233, Control_c, 0, 64, 60
1, 900247, Control_c, 0, 64, 63
1, 900254, Note_off_c, 0, 49, 56
1, 900255, Note_on_c, 0, 62, 62
1, 900262, Note_on_c, 0, 50, 57
1, 900262, Control_c, 0, 64, 66
1, 900277, Control_c, 0, 64, 67
1, 900292, Control_c, 0, 64, 69
1, 900307, Control_c, 0, 64, 72
1, 900312, Note_off_c, 0, 62, 63
1, 900321, Control_c, 0, 64, 80
1, 900329, Note_off_c, 0, 50, 61
1, 900336, Control_c, 0, 64, 96
1, 900338, Note_on_c, 0, 70, 85
1, 900341, Note_on_c, 0, 67, 65
1, 900351, Note_off_c, 0, 73, 63
1, 900351, Control_c, 0, 64, 127
1, 900365, Note_on_c, 0, 42, 63
1, 900375, Note_off_c, 0, 67, 64
1, 900391, Note_off_c, 0, 42, 61
1, 900420, Note_off_c, 0, 70, 59
1, 900449, Poly_aftertouch_c, 0, 49, 0
1, 900529, Control_c, 0, 64, 79
1, 900544, Control_c, 0, 64, 50
1, 900554, Poly_aftertouch_c, 0, 30, 0
1, 900558, Control_c, 0, 64, 0
1, 900559, Note_on_c, 0, 70, 67
1, 900569, Note_on_c, 0, 30, 50
1, 900579, Note_on_c, 0, 82, 80
1, 900580, Note_off_c, 0, 70, 72
1, 900588, Control_c, 0, 64, 39
1, 900600, Note_off_c, 0, 82, 71
1, 900603, Control_c, 0, 64, 61
1, 900612, Note_off_c, 0, 30, 64
1, 900618, Control_c, 0, 64, 70
1, 900632, Control_c, 0, 64, 93
1, 900647, Control_c, 0, 64, 127
1, 900737, Note_on_c, 0, 61, 64
1, 900800, Note_on_c, 0, 49, 18
1, 900814, Note_on_c, 0, 57, 61
1, 900833, Note_off_c, 0, 61, 56
1, 900835, Note_on_c, 0, 73, 78
1, 900846, Note_off_c, 0, 57, 65
1, 900848, Note_on_c, 0, 70, 58
1, 900848, Note_off_c, 0, 49, 49
1, 900853, Note_on_c, 0, 67, 55
1, 900878, Note_on_c, 0, 50, 64
1, 900888, Note_off_c, 0, 70, 60
1, 900911, Note_off_c, 0, 67, 60
1, 900926, Note_on_c, 0, 62, 71
1, 900984, Note_off_c, 0, 62, 64
1, 901015, Note_on_c, 0, 49, 60
1, 901020, Note_off_c, 0, 50, 31
1, 901021, Note_on_c, 0, 66, 73
1, 901022, Note_on_c, 0, 69, 72
1, 901028, Note_on_c, 0, 68, 12
1, 901029, Note_off_c, 0, 73, 61
1, 901047, Note_on_c, 0, 41, 44
1, 901047, Note_off_c, 0, 49, 65
1, 901066, Note_off_c, 0, 66, 60
1, 901067, Note_off_c, 0, 69, 59
1, 901076, Note_off_c, 0, 68, 39
1, 901079, Note_off_c, 0, 41, 54
1, 901203, Control_c, 0, 64, 84
1, 901217, Poly_aftertouch_c, 0, 30, 127
1, 901218, Control_c, 0, 64, 61
1, 901232, Note_on_c, 0, 69, 73
1, 901233, Control_c, 0, 64, 0
1, 901247, Note_on_c, 0, 81, 83
1, 901254, Note_on_c, 0, 30, 3
1, 901257, Note_off_c, 0, 69, 66
1, 901268, Note_off_c, 0, 81, 69
1, 901277, Control_c, 0, 64, 52
1, 901278, Note_off_c, 0, 30, 59
1, 901292, Control_c, 0, 64, 66
1, 901307, Control_c, 0, 64, 76
1, 901322, Control_c, 0, 64, 96
1, 901336, Control_c, 0, 64, 127
1, 901412, Note_on_c, 0, 61, 58
1, 901427, Note_on_c, 0, 49, 36
1, 901481, Note_off_c, 0, 49, 64
1, 901493, Note_on_c, 0, 66, 65
1, 901495, Note_off_c, 0, 61, 59
1, 901502, Note_on_c, 0, 73, 69
1, 901505, Note_on_c, 0, 50, 59
1, 901551, Control_c, 0, 64, 81
1, 901555, Note_off_c, 0, 66, 55
1, 901567, Control_c, 0, 64, 67
1, 901582, Control_c, 0, 64, 63
1, 901593, Note_on_c, 0, 62, 59
1, 901597, Control_c, 0, 64, 65
1, 901611, Control_c, 0, 64, 69
1, 901619, Note_off_c, 0, 50, 37
1, 901626, Control_c, 0, 64, 75
1, 901633, Note_off_c, 0, 62, 62
1, 901641, Control_c, 0, 64, 84
1, 901651, Note_on_c, 0, 49, 48
1, 901656, Control_c, 0, 64, 90
1, 901671, Control_c, 0, 64, 91
1, 901675, Note_off_c, 0, 73, 64
1, 901675, Note_on_c, 0, 68, 67
1, 901685, Note_on_c, 0, 65, 53
1, 901685, Control_c, 0, 64, 92
1, 901693, Note_off_c, 0, 49, 64
1, 901700, Control_c, 0, 64, 98
1, 901711, Note_on_c, 0, 41, 42
1, 901715, Control_c, 0, 64, 127
1, 901720, Note_off_c, 0, 65, 65
1, 901745, Note_off_c, 0, 41, 52
1, 901758, Note_off_c, 0, 68, 55
1, 901759, Note_on_c, 0, 61, 68
1, 901789, Note_off_c, 0, 61, 65
1, 901863, Control_c, 0, 64, 85
1, 901878, Control_c, 0, 64, 64
1, 901892, Control_c, 0, 64, 42
1, 901901, Note_on_c, 0, 68, 80
1, 901907, Control_c, 0, 64, 15
1, 901912, Note_on_c, 0, 30, 36
1, 901922, Control_c, 0, 64, 22
1, 901929, Note_off_c, 0, 68, 67
1, 901934, Note_on_c, 0, 80, 61
1, 901937, Control_c, 0, 64, 50
1, 901949, Note_off_c, 0, 30, 62
1, 901952, Note_off_c, 0, 80, 64
1, 901952, Control_c, 0, 64, 62
1, 901967, Control_c, 0, 64, 68
1, 901982, Control_c, 0, 64, 75
1, 901997, Control_c, 0, 64, 83
1, 902011, Control_c, 0, 64, 90
1, 902026, Control_c, 0, 64, 94
1, 902041, Control_c, 0, 64, 95
1, 902056, Control_c, 0, 64, 97
1, 902071, Control_c, 0, 64, 104
1, 902085, Control_c, 0, 64, 127
1, 902098, Note_on_c, 0, 61, 58
1, 902114, Note_on_c, 0, 49, 40
1, 902146, Note_off_c, 0, 61, 56
1, 902167, Note_off_c, 0, 49, 63
1, 902179, Note_on_c, 0, 73, 71
1, 902189, Control_c, 0, 64, 82
1, 902202, Note_on_c, 0, 50, 62
1, 902204, Control_c, 0, 64, 63
1, 902206, Note_on_c, 0, 65, 43
1, 902217, Note_on_c, 0, 68, 31
1, 902218, Control_c, 0, 64, 0
1, 902239, Note_off_c, 0, 73, 65
1, 902247, Note_off_c, 0, 65, 65
1, 902250, Note_off_c, 0, 68, 46
1, 902276, Note_off_c, 0, 50, 49
1, 902279, Note_on_c, 0, 60, 76
1, 902307, Note_off_c, 0, 60, 65
1, 902350, Note_on_c, 0, 49, 25
1, 902378, Note_on_c, 0, 64, 50
1, 902383, Note_off_c, 0, 49, 46
1, 902384, Note_on_c, 0, 41, 66
1, 902401, Note_off_c, 0, 64, 60
1, 902416, Note_off_c, 0, 41, 64
1, 902474, Note_on_c, 0, 59, 58
1, 902515, Note_off_c, 0, 59, 60
1, 902575, Note_on_c, 0, 54, 80
1, 902587, Note_on_c, 0, 42, 50
1, 902596, Note_on_c, 0, 30, 55
1, 902597, Control_c, 0, 64, 48
1, 902601, Note_off_c, 0, 54, 68
1, 902612, Control_c, 0, 64, 93
1, 902626, Note_off_c, 0, 42, 65
1, 902627, Control_c, 0, 64, 127
1, 902632, Note_off_c, 0, 30, 59
1, 902876, Note_on_c, 0, 51, 67
1, 902878, Note_on_c, 0, 73, 86
1, 902881, Note_on_c, 0, 85, 74
1, 902899, Note_off_c, 0, 73, 69
1, 902903, Note_off_c, 0, 85, 71
1, 902987, Note_off_c, 0, 51, 61
1, 902995, Note_on_c, 0, 58, 61
1, 902998, Note_on_c, 0, 70, 91
1, 903009, Note_on_c, 0, 82, 80
1, 903030, Note_off_c, 0, 82, 71
1, 903040, Note_on_c, 0, 61, 67
1, 903040, Note_off_c, 0, 70, 64
1, 903059, Note_off_c, 0, 58, 53
1, 903108, Note_off_c, 0, 61, 60
1, 903112, Note_on_c, 0, 64, 82
1, 903181, Note_on_c, 0, 67, 83
1, 903186, Note_off_c, 0, 64, 60
1, 903218, Note_on_c, 0, 70, 83
1, 903241, Note_off_c, 0, 67, 63
1, 903258, Note_on_c, 0, 73, 92
1, 903261, Note_off_c, 0, 70, 66
1, 903278, Note_off_c, 0, 73, 72
1, 903331, Control_c, 0, 64, 84
1, 903335, Poly_aftertouch_c, 0, 57, 127
1, 903345, Note_on_c, 0, 67, 89
1, 903346, Control_c, 0, 64, 48
1, 903347, Note_on_c, 0, 55, 78
1, 903355, Note_on_c, 0, 79, 97
1, 903355, Poly_aftertouch_c, 0, 57, 0
1, 903361, Control_c, 0, 64, 0
1, 903362, Note_on_c, 0, 93, 91
1, 903363, Note_on_c, 0, 91, 87
1, 903378, Note_on_c, 0, 81, 57
1, 903379, Note_off_c, 0, 81, 127
1, 903379, Note_off_c, 0, 93, 76
1, 903383, Note_off_c, 0, 55, 65
1, 903383, Note_off_c, 0, 79, 69
1, 903383, Note_off_c, 0, 91, 70
1, 903391, Control_c, 0, 64, 43
1, 903400, Note_off_c, 0, 67, 65
1, 903405, Control_c, 0, 64, 65
1, 903421, Control_c, 0, 64, 85
1, 903436, Control_c, 0, 64, 127
1, 903570, Note_on_c, 0, 60, 72
1, 903583, Note_on_c, 0, 70, 89
1, 903588, Note_on_c, 0, 64, 67
1, 903612, Note_on_c, 0, 72, 98
1, 903615, Note_on_c, 0, 84, 94
1, 903638, Note_off_c, 0, 70, 67
1, 903648, Note_on_c, 0, 83, 46
1, 903649, Note_off_c, 0, 83, 56
1, 903660, Note_off_c, 0, 72, 64
1, 903684, Note_on_c, 0, 76, 64
1, 903686, Note_off_c, 0, 84, 62
1, 903740, Note_off_c, 0, 60, 65
1, 903749, Note_off_c, 0, 64, 63
1, 903753, Note_off_c, 0, 76, 60
1, 903770, Note_on_c, 0, 72, 82
1, 903794, Note_off_c, 0, 72, 69
1, 903858, Note_on_c, 0, 72, 75
1, 903928, Note_off_c, 0, 72, 38
1, 903934, Note_on_c, 0, 70, 75
1, 903999, Note_on_c, 0, 67, 64
1, 904012, Note_on_c, 0, 64, 81
1, 904031, Note_off_c, 0, 70, 53
1, 904051, Control_c, 0, 64, 78
1, 904065, Note_off_c, 0, 67, 38
1, 904066, Control_c, 0, 64, 22
1, 904079, Note_on_c, 0, 42, 91
1, 904081, Control_c, 0, 64, 0
1, 904084, Note_on_c, 0, 30, 71
1, 904085, Note_on_c, 0, 56, 83
1, 904103, Note_on_c, 0, 55, 73
1, 904110, Control_c, 0, 64, 42
1, 904113, Note_off_c, 0, 64, 58
1, 904116, Note_off_c, 0, 30, 64
1, 904122, Note_off_c, 0, 55, 64
1, 904125, Control_c, 0, 64, 67
1, 904131, Note_off_c, 0, 42, 63
1, 904137, Note_off_c, 0, 56, 63
1, 904140, Control_c, 0, 64, 90
1, 904155, Control_c, 0, 64, 127
1, 904257, Note_on_c, 0, 73, 79
1, 904263, Note_on_c, 0, 58, 83
1, 904307, Note_off_c, 0, 73, 65
1, 904310, Note_on_c, 0, 64, 17
1, 904338, Note_on_c, 0, 70, 74
1, 904340, Note_off_c, 0, 58, 60
1, 904349, Note_off_c, 0, 64, 51
1, 904358, Note_on_c, 0, 61, 85
1, 904368, Note_on_c, 0, 67, 65
1, 904396, Note_off_c, 0, 70, 66
1, 904414, Note_on_c, 0, 64, 88
1, 904429, Note_off_c, 0, 67, 63
1, 904465, Note_off_c, 0, 64, 58
1, 904476, Note_on_c, 0, 58, 72
1, 904484, Note_on_c, 0, 62, 80
1, 904499, Note_off_c, 0, 61, 62
1, 904501, Note_on_c, 0, 55, 66
1, 904556, Note_off_c, 0, 55, 64
1, 904557, Note_off_c, 0, 58, 64
1, 904562, Note_off_c, 0, 62, 60
1, 904621, Control_c, 0, 64, 107
1, 904631, Note_on_c, 0, 53, 98
1, 904636, Control_c, 0, 64, 69
1, 904651, Note_on_c, 0, 64, 93
1, 904651, Control_c, 0, 64, 47
1, 904666, Control_c, 0, 64, 41
1, 904674, Note_on_c, 0, 52, 33
1, 904675, Note_off_c, 0, 52, 127
1, 904681, Control_c, 0, 64, 49
1, 904695, Control_c, 0, 64, 60
1, 904699, Note_off_c, 0, 53, 63
1, 904710, Control_c, 0, 64, 68
1, 904725, Control_c, 0, 64, 79
1, 904735, Note_off_c, 0, 64, 68
1, 904736, Note_on_c, 0, 49, 60
1, 904740, Control_c, 0, 64, 127
1, 904744, Note_on_c, 0, 60, 64
1, 904747, Note_on_c, 0, 62, 73
1, 904760, Note_off_c, 0, 49, 38
1, 904764, Note_on_c, 0, 48, 70
1, 904774, Note_off_c, 0, 62, 68
1, 904790, Note_on_c, 0, 47, 69
1, 904802, Note_off_c, 0, 60, 65
1, 904811, Note_on_c, 0, 57, 84
1, 904836, Note_off_c, 0, 57, 69
1, 904856, Note_on_c, 0, 46, 80
1, 904868, Note_off_c, 0, 48, 62
1, 904869, Note_on_c, 0, 58, 79
1, 904876, Note_off_c, 0, 47, 64
1, 904898, Note_off_c, 0, 46, 65
1, 904909, Note_on_c, 0, 55, 72
1, 904937, Note_off_c, 0, 58, 65
1, 904955, Note_off_c, 0, 55, 65
1, 904972, Note_on_c, 0, 52, 38
1, 904981, Note_on_c, 0, 50, 77
1, 905002, Note_off_c, 0, 52, 54
1, 905006, Note_off_c, 0, 50, 67
1, 905047, Note_on_c, 0, 47, 74
1, 905097, Note_on_c, 0, 46, 98
1, 905111, Note_off_c, 0, 47, 63
1, 905111, Control_c, 0, 64, 62
1, 905126, Control_c, 0, 64, 0
1, 905146, Note_off_c, 0, 46, 66
1, 905154, Note_on_c, 0, 42, 109
1, 905171, Control_c, 0, 64, 60
1, 905185, Control_c, 0, 64, 83
1, 905198, Note_off_c, 0, 42, 66
1, 905200, Control_c, 0, 64, 127
1, 905447, Note_on_c, 0, 50, 83
1, 905470, Note_on_c, 0, 78, 96
1, 905540, Note_off_c, 0, 78, 63
1, 905604, Note_off_c, 0, 50, 64
1, 905604, Note_on_c, 0, 62, 94
1, 905604, Note_on_c, 0, 74, 101
1, 905604, Note_on_c, 0, 78, 104
1, 905605, Note_on_c, 0, 59, 95
1, 905606, Note_on_c, 0, 54, 83
1, 905607, Note_on_c, 0, 86, 105
1, 905660, Note_off_c, 0, 62, 64
1, 905689, Note_off_c, 0, 86, 61
1, 905702, Note_off_c, 0, 78, 60
1, 905711, Note_on_c, 0, 50, 89
1, 905717, Note_off_c, 0, 59, 62
1, 905738, Note_off_c, 0, 54, 63
1, 905747, Note_off_c, 0, 50, 68
1, 905827, Note_on_c, 0, 42, 101
1, 905879, Note_off_c, 0, 74, 54
1, 905923, Note_on_c, 0, 78, 91
1, 905929, Note_on_c, 0, 30, 89
1, 905948, Note_off_c, 0, 42, 56
1, 905970, Note_on_c, 0, 29, 42
1, 905994, Note_on_c, 0, 36, 10
1, 906014, Control_c, 0, 64, 85
1, 906022, Note_off_c, 0, 29, 48
1, 906029, Control_c, 0, 64, 55
1, 906044, Control_c, 0, 64, 13
1, 906051, Note_on_c, 0, 74, 88
1, 906057, Note_on_c, 0, 42, 108
1, 906059, Control_c, 0, 64, 54
1, 906062, Note_on_c, 0, 85, 94
1, 906064, Note_on_c, 0, 73, 110
1, 906074, Control_c, 0, 64, 73
1, 906076, Note_off_c, 0, 30, 61
1, 906088, Note_on_c, 0, 81, 52
1, 906089, Control_c, 0, 64, 127
1, 906097, Note_off_c, 0, 78, 64
1, 906101, Note_off_c, 0, 42, 66
1, 906106, Note_off_c, 0, 36, 39
1, 906107, Note_off_c, 0, 81, 62
1, 906207, Note_off_c, 0, 85, 61
1, 906239, Note_on_c, 0, 50, 86
1, 906271, Note_off_c, 0, 73, 61
1, 906332, Note_off_c, 0, 50, 62
1, 906349, Note_on_c, 0, 59, 84
1, 906349, Note_on_c, 0, 62, 90
1, 906350, Note_on_c, 0, 54, 79
1, 906419, Note_off_c, 0, 74, 57
1, 906438, Note_on_c, 0, 50, 91
1, 906445, Note_off_c, 0, 62, 67
1, 906471, Note_off_c, 0, 59, 66
1, 906487, Note_on_c, 0, 78, 99
1, 906494, Note_off_c, 0, 54, 64
1, 906502, Note_off_c, 0, 50, 66
1, 906593, Control_c, 0, 64, 67
1, 906605, Note_on_c, 0, 74, 81
1, 906608, Control_c, 0, 64, 23
1, 906611, Note_on_c, 0, 83, 95
1, 906612, Note_on_c, 0, 42, 103
1, 906617, Note_on_c, 0, 71, 106
1, 906623, Control_c, 0, 64, 34
1, 906635, Note_on_c, 0, 79, 72
1, 906638, Control_c, 0, 64, 59
1, 906648, Note_off_c, 0, 78, 60
1, 906653, Control_c, 0, 64, 77
1, 906661, Note_off_c, 0, 79, 68
1, 906668, Control_c, 0, 64, 127
1, 906706, Note_off_c, 0, 42, 63
1, 906718, Note_off_c, 0, 74, 64
1, 906724, Note_on_c, 0, 30, 86
1, 906736, Note_off_c, 0, 83, 62
1, 906742, Note_on_c, 0, 36, 19
1, 906745, Note_on_c, 0, 29, 72
1, 906802, Note_off_c, 0, 29, 53
1, 906819, Note_on_c, 0, 42, 96
1, 906829, Note_off_c, 0, 30, 62
1, 906873, Note_off_c, 0, 42, 64
1, 906875, Note_off_c, 0, 36, 41
1, 906895, Note_off_c, 0, 71, 59
1, 906939, Note_on_c, 0, 74, 88
1, 906954, Note_on_c, 0, 50, 77
1, 907025, Note_off_c, 0, 74, 61
1, 907045, Control_c, 0, 64, 87
1, 907048, Note_off_c, 0, 50, 63
1, 907049, Note_on_c, 0, 71, 95
1, 907051, Note_on_c, 0, 74, 62
1, 907056, Note_on_c, 0, 81, 94
1, 907057, Note_on_c, 0, 69, 102
1, 907057, Note_on_c, 0, 78, 93
1, 907060, Note_on_c, 0, 54, 83
1, 907060, Control_c, 0, 64, 67
1, 907061, Note_on_c, 0, 62, 96
1, 907064, Note_on_c, 0, 59, 83
1, 907074, Control_c, 0, 64, 66
1, 907089, Control_c, 0, 64, 71
1, 907104, Control_c, 0, 64, 87
1, 907118, Note_off_c, 0, 62, 66
1, 907119, Control_c, 0, 64, 127
1, 907145, Note_on_c, 0, 50, 88
1, 907148, Note_off_c, 0, 59, 65
1, 907171, Note_off_c, 0, 54, 64
1, 907176, Note_off_c, 0, 50, 67
1, 907191, Note_off_c, 0, 74, 29
1, 907234, Note_off_c, 0, 81, 37
1, 907249, Note_on_c, 0, 42, 103
1, 907258, Note_off_c, 0, 71, 48
1, 907294, Note_off_c, 0, 78, 61
1, 907297, Note_off_c, 0, 69, 61
1, 907340, Note_off_c, 0, 42, 64
1, 907347, Note_on_c, 0, 74, 92
1, 907353, Note_on_c, 0, 30, 86
1, 907397, Note_on_c, 0, 36, 9
1, 907432, Control_c, 0, 64, 76
1, 907447, Control_c, 0, 64, 56
1, 907458, Note_on_c, 0, 42, 106
1, 907459, Note_on_c, 0, 71, 90
1, 907461, Control_c, 0, 64, 50
1, 907466, Note_on_c, 0, 79, 90
1, 907470, Note_on_c, 0, 67, 92
1, 907476, Control_c, 0, 64, 60
1, 907481, Note_off_c, 0, 30, 64
1, 907483, Note_off_c, 0, 74, 60
1, 907491, Control_c, 0, 64, 71
1, 907509, Note_off_c, 0, 36, 41
1, 907511, Note_off_c, 0, 42, 65
1, 907513, Control_c, 0, 64, 127
1, 907600, Note_off_c, 0, 79, 60
1, 907630, Note_on_c, 0, 50, 84
1, 907656, Note_off_c, 0, 67, 58
1, 907673, Note_on_c, 0, 52, 34
1, 907674, Note_off_c, 0, 52, 127
1, 907715, Note_off_c, 0, 50, 65
1, 907717, Note_off_c, 0, 71, 55
1, 907718, Note_on_c, 0, 64, 82
1, 907720, Note_on_c, 0, 54, 76
1, 907724, Note_on_c, 0, 59, 75
1, 907768, Note_off_c, 0, 64, 64
1, 907781, Note_on_c, 0, 74, 86
1, 907820, Note_on_c, 0, 50, 90
1, 907833, Note_off_c, 0, 59, 64
1, 907868, Note_off_c, 0, 54, 64
1, 907871, Note_off_c, 0, 50, 65
1, 907904, Note_on_c, 0, 78, 96
1, 907908, Note_on_c, 0, 71, 95
1, 907911, Note_on_c, 0, 66, 104
1, 907925, Note_off_c, 0, 74, 58
1, 907941, Note_off_c, 0, 78, 69
1, 907944, Note_off_c, 0, 66, 68
1, 907946, Note_off_c, 0, 71, 67
1, 907951, Note_on_c, 0, 70, 34
1, 907952, Note_off_c, 0, 70, 127
1, 907961, Note_on_c, 0, 39, 74
1, 907993, Note_off_c, 0, 39, 62
1, 908066, Note_on_c, 0, 26, 81
1, 908099, Poly_aftertouch_c, 0, 40, 0
1, 908209, Control_c, 0, 64, 84
1, 908220, Note_on_c, 0, 38, 98
1, 908224, Note_on_c, 0, 58, 105
1, 908224, Control_c, 0, 64, 40
1, 908225, Note_on_c, 0, 53, 104
1, 908225, Note_on_c, 0, 65, 93
1, 908228, Note_on_c, 0, 62, 47
1, 908239, Control_c, 0, 64, 0
1, 908245, Note_off_c, 0, 26, 65
1, 908266, Note_off_c, 0, 53, 68
1, 908266, Note_off_c, 0, 38, 69
1, 908276, Control_c, 0, 64, 35
1, 908279, Note_off_c, 0, 62, 66
1, 908280, Note_off_c, 0, 65, 66
1, 908283, Note_off_c, 0, 58, 68
1, 908291, Control_c, 0, 64, 65
1, 908306, Control_c, 0, 64, 83
1, 908321, Control_c, 0, 64, 127
1, 908507, Note_on_c, 0, 46, 83
1, 908531, Note_on_c, 0, 77, 103
1, 908600, Note_on_c, 0, 50, 42
1, 908628, Note_off_c, 0, 77, 64
1, 908635, Note_off_c, 0, 46, 62
1, 908664, Note_off_c, 0, 50, 63
1, 908668, Note_on_c, 0, 53, 26
1, 908684, Note_on_c, 0, 58, 100
1, 908685, Note_on_c, 0, 77, 99
1, 908686, Note_on_c, 0, 62, 91
1, 908686, Note_on_c, 0, 86, 102
1, 908689, Note_on_c, 0, 74, 104
1, 908692, Note_on_c, 0, 82, 94
1, 908728, Note_off_c, 0, 62, 65
1, 908763, Note_off_c, 0, 86, 61
1, 908781, Note_off_c, 0, 82, 61
1, 908793, Note_on_c, 0, 46, 93
1, 908798, Note_off_c, 0, 58, 62
1, 908801, Note_off_c, 0, 77, 57
1, 908805, Note_off_c, 0, 53, 63
1, 908810, Poly_aftertouch_c, 0, 83, 0
1, 908835, Note_off_c, 0, 46, 67
1, 908913, Note_off_c, 0, 74, 58
1, 908928, Note_on_c, 0, 38, 87
1, 908951, Note_on_c, 0, 36, 55
1, 908977, Note_on_c, 0, 27, 32
1, 908982, Note_off_c, 0, 36, 57
1, 909011, Note_off_c, 0, 38, 61
1, 909022, Note_on_c, 0, 26, 85
1, 909022, Note_off_c, 0, 27, 53
1, 909024, Note_on_c, 0, 77, 104
1, 909027, Poly_aftertouch_c, 0, 32, 127
1, 909070, Poly_aftertouch_c, 0, 32, 0
1, 909099, Control_c, 0, 64, 93
1, 909114, Control_c, 0, 64, 41
1, 909127, Note_on_c, 0, 38, 99
1, 909129, Control_c, 0, 64, 0
1, 909134, Note_on_c, 0, 72, 113
1, 909134, Note_on_c, 0, 74, 101
1, 909134, Note_on_c, 0, 84, 101
1, 909144, Control_c, 0, 64, 30
1, 909148, Note_off_c, 0, 77, 68
1, 909153, Note_off_c, 0, 26, 63
1, 909157, Note_on_c, 0, 33, 25
1, 909158, Control_c, 0, 64, 64
1, 909164, Note_off_c, 0, 38, 64
1, 909173, Control_c, 0, 64, 125
1, 909176, Note_on_c, 0, 79, 28
1, 909179, Note_on_c, 0, 81, 16
1, 909188, Control_c, 0, 64, 127
1, 909201, Note_off_c, 0, 33, 53
1, 909210, Note_off_c, 0, 79, 37
1, 909214, Note_off_c, 0, 81, 56
1, 909285, Note_on_c, 0, 46, 78
1, 909288, Note_off_c, 0, 84, 42
1, 909305, Note_off_c, 0, 72, 59
1, 909342, Note_on_c, 0, 49, 11
1, 909359, Note_on_c, 0, 53, 72
1, 909361, Note_off_c, 0, 46, 63
1, 909370, Note_on_c, 0, 62, 94
1, 909386, Note_off_c, 0, 49, 38
1, 909392, Note_on_c, 0, 54, 56
1, 909399, Poly_aftertouch_c, 0, 79, 0
1, 909402, Note_on_c, 0, 58, 83
1, 909422, Note_off_c, 0, 54, 35
1, 909428, Note_off_c, 0, 62, 64
1, 909430, Note_off_c, 0, 74, 58
1, 909465, Note_on_c, 0, 46, 95
1, 909469, Note_on_c, 0, 77, 89
1, 909470, Note_off_c, 0, 58, 65
1, 909473, Note_off_c, 0, 53, 62
1, 909475, Poly_aftertouch_c, 0, 60, 0
1, 909503, Note_off_c, 0, 46, 68
1, 909571, Note_on_c, 0, 74, 102
1, 909578, Note_on_c, 0, 82, 101
1, 909588, Note_on_c, 0, 70, 95
1, 909595, Note_on_c, 0, 38, 95
1, 909606, Note_on_c, 0, 78, 52
1, 909606, Note_off_c, 0, 77, 61
1, 909619, Control_c, 0, 64, 71
1, 909631, Note_off_c, 0, 78, 55
1, 909634, Control_c, 0, 64, 0
1, 909663, Control_c, 0, 64, 29
1, 909678, Control_c, 0, 64, 62
1, 909680, Note_off_c, 0, 38, 61
1, 909693, Control_c, 0, 64, 81
1, 909698, Note_on_c, 0, 26, 88
1, 909702, Note_off_c, 0, 74, 62
1, 909707, Control_c, 0, 64, 127
1, 909715, Note_off_c, 0, 82, 61
1, 909766, Note_off_c, 0, 70, 66
1, 909791, Note_on_c, 0, 38, 97
1, 909812, Note_off_c, 0, 26, 61
1, 909831, Note_off_c, 0, 38, 69
1, 909885, Note_on_c, 0, 74, 108
1, 909938, Note_on_c, 0, 46, 73
1, 909977, Note_off_c, 0, 74, 65
1, 909997, Note_off_c, 0, 46, 63
1, 910043, Note_on_c, 0, 62, 91
1, 910047, Note_on_c, 0, 58, 94
1, 910047, Note_on_c, 0, 81, 100
1, 910048, Note_on_c, 0, 69, 105
1, 910052, Note_on_c, 0, 70, 98
1, 910060, Note_on_c, 0, 79, 78
1, 910070, Note_on_c, 0, 53, 50
1, 910078, Note_off_c, 0, 62, 64
1, 910079, Note_on_c, 0, 54, 20
1, 910106, Note_off_c, 0, 79, 0
1, 910111, Note_on_c, 0, 79, 39
1, 910124, Note_off_c, 0, 58, 65
1, 910126, Note_off_c, 0, 54, 53
1, 910141, Note_off_c, 0, 53, 62
1, 910149, Note_on_c, 0, 46, 73
1, 910170, Note_off_c, 0, 79, 0
1, 910176, Note_off_c, 0, 46, 68
1, 910206, Poly_aftertouch_c, 0, 79, 127
1, 910209, Note_off_c, 0, 81, 51
1, 910230, Note_off_c, 0, 69, 60
1, 910232, Poly_aftertouch_c, 0, 79, 0
1, 910251, Note_off_c, 0, 70, 58
1, 910252, Note_on_c, 0, 38, 92
1, 910280, Note_on_c, 0, 27, 59
1, 910295, Poly_aftertouch_c, 0, 74, 0
1, 910310, Note_off_c, 0, 27, 59
1, 910332, Note_off_c, 0, 38, 60
1, 910349, Note_on_c, 0, 26, 87
1, 910358, Note_on_c, 0, 74, 107
1, 910477, Note_off_c, 0, 74, 65
1, 910508, Control_c, 0, 64, 77
1, 910522, Note_on_c, 0, 38, 94
1, 910522, Note_on_c, 0, 79, 97
1, 910523, Control_c, 0, 64, 28
1, 910526, Note_on_c, 0, 70, 104
1, 910527, Note_on_c, 0, 67, 102
1, 910533, Note_on_c, 0, 33, 21
1, 910537, Control_c, 0, 64, 0
1, 910542, Note_off_c, 0, 26, 63
1, 910552, Note_on_c, 0, 69, 62
1, 910553, Note_off_c, 0, 69, 127
1, 910567, Control_c, 0, 64, 29
1, 910569, Note_off_c, 0, 33, 47
1, 910570, Note_off_c, 0, 38, 64
1, 910582, Control_c, 0, 64, 64
1, 910597, Control_c, 0, 64, 83
1, 910612, Control_c, 0, 64, 127
1, 910688, Note_on_c, 0, 46, 70
1, 910716, Note_off_c, 0, 46, 63
1, 910739, Note_off_c, 0, 79, 59
1, 910749, Note_on_c, 0, 62, 90
1, 910773, Note_off_c, 0, 67, 59
1, 910778, Note_on_c, 0, 58, 74
1, 910784, Note_off_c, 0, 62, 65
1, 910788, Note_off_c, 0, 70, 57
1, 910793, Note_on_c, 0, 53, 49
1, 910819, Poly_aftertouch_c, 0, 54, 127
1, 910825, Note_off_c, 0, 58, 63
1, 910831, Note_off_c, 0, 53, 64
1, 910840, Note_on_c, 0, 74, 92
1, 910853, Poly_aftertouch_c, 0, 54, 0
1, 910991, Note_on_c, 0, 77, 98
1, 910993, Note_on_c, 0, 70, 91
1, 910998, Control_c, 0, 64, 119
1, 911002, Note_on_c, 0, 65, 95
1, 911005, Note_on_c, 0, 38, 70
1, 911012, Control_c, 0, 64, 65
1, 911026, Note_on_c, 0, 76, 56
1, 911027, Control_c, 0, 64, 0
1, 911101, Control_c, 0, 64, 30
1, 911107, Note_off_c, 0, 38, 58
1, 911116, Control_c, 0, 64, 60
1, 911130, Control_c, 0, 64, 67
1, 911142, Note_on_c, 0, 26, 68
1, 911146, Control_c, 0, 64, 74
1, 911151, Note_off_c, 0, 74, 61
1, 911154, Note_off_c, 0, 65, 63
1, 911160, Note_off_c, 0, 76, 64
1, 911161, Control_c, 0, 64, 88
1, 911176, Control_c, 0, 64, 117
1, 911180, Note_off_c, 0, 77, 65
1, 911184, Note_off_c, 0, 70, 66
1, 911191, Control_c, 0, 64, 127
1, 911205, Note_on_c, 0, 38, 74
1, 911213, Note_off_c, 0, 26, 62
1, 911232, Note_off_c, 0, 38, 66
1, 911406, Control_c, 0, 64, 79
1, 911421, Control_c, 0, 64, 58
1, 911428, Note_on_c, 0, 66, 42
1, 911435, Note_on_c, 0, 54, 50
1, 911435, Control_c, 0, 64, 0
1, 911479, Control_c, 0, 64, 41
1, 911485, Note_off_c, 0, 66, 60
1, 911494, Control_c, 0, 64, 60
1, 911497, Note_on_c, 0, 72, 56
1, 911498, Note_on_c, 0, 76, 49
1, 911509, Control_c, 0, 64, 66
1, 911519, Note_off_c, 0, 54, 63
1, 911524, Note_on_c, 0, 64, 24
1, 911524, Control_c, 0, 64, 72
1, 911539, Control_c, 0, 64, 80
1, 911547, Note_off_c, 0, 72, 60
1, 911553, Control_c, 0, 64, 83
1, 911566, Note_off_c, 0, 76, 60
1, 911568, Note_on_c, 0, 81, 58
1, 911568, Control_c, 0, 64, 84
1, 911613, Control_c, 0, 64, 84
1, 911622, Note_on_c, 0, 67, 48
1, 911628, Control_c, 0, 64, 86
1, 911643, Control_c, 0, 64, 90
1, 911655, Note_on_c, 0, 65, 56
1, 911657, Control_c, 0, 64, 95
1, 911661, Note_off_c, 0, 67, 45
1, 911671, Control_c, 0, 64, 99
1, 911680, Note_on_c, 0, 73, 67
1, 911682, Note_off_c, 0, 81, 40
1, 911685, Note_on_c, 0, 57, 14
1, 911686, Control_c, 0, 64, 100
1, 911695, Note_on_c, 0, 77, 65
1, 911697, Note_off_c, 0, 65, 61
1, 911701, Control_c, 0, 64, 98
1, 911716, Control_c, 0, 64, 98
1, 911729, Note_off_c, 0, 57, 54
1, 911745, Control_c, 0, 64, 98
1, 911753, Note_on_c, 0, 81, 74
1, 911754, Note_off_c, 0, 77, 63
1, 911760, Control_c, 0, 64, 99
1, 911762, Note_off_c, 0, 73, 58
1, 911775, Control_c, 0, 64, 100
1, 911783, Note_on_c, 0, 69, 65
1, 911814, Note_off_c, 0, 81, 62
1, 911819, Note_on_c, 0, 71, 23
1, 911819, Control_c, 0, 64, 99
1, 911826, Note_on_c, 0, 74, 69
1, 911833, Note_on_c, 0, 67, 52
1, 911834, Control_c, 0, 64, 97
1, 911837, Note_on_c, 0, 58, 47
1, 911840, Note_on_c, 0, 78, 82
1, 911849, Note_off_c, 0, 69, 63
1, 911849, Control_c, 0, 64, 95
1, 911860, Note_off_c, 0, 71, 30
1, 911864, Control_c, 0, 64, 94
1, 911878, Control_c, 0, 64, 95
1, 911883, Note_off_c, 0, 67, 0
1, 911883, Note_on_c, 0, 67, 26
1, 911887, Note_on_c, 0, 81, 71
1, 911893, Control_c, 0, 64, 99
1, 911896, Note_off_c, 0, 58, 40
1, 911908, Control_c, 0, 64, 127
1, 911911, Note_off_c, 0, 67, 55
1, 911917, Note_off_c, 0, 78, 54
1, 911926, Note_off_c, 0, 74, 59
1, 911936, Note_on_c, 0, 70, 87
1, 911957, Note_off_c, 0, 81, 63
1, 912003, Note_on_c, 0, 74, 64
1, 912011, Note_off_c, 0, 70, 63
1, 912019, Note_on_c, 0, 78, 78
1, 912048, Note_on_c, 0, 68, 62
1, 912054, Note_on_c, 0, 59, 60
1, 912063, Note_off_c, 0, 74, 63
1, 912075, Note_off_c, 0, 64, 41
1, 912076, Note_on_c, 0, 82, 64
1, 912076, Note_off_c, 0, 78, 64
1, 912078, Note_off_c, 0, 68, 64
1, 912079, Note_on_c, 0, 71, 87
1, 912089, Note_off_c, 0, 59, 66
1, 912102, Note_off_c, 0, 82, 67
1, 912120, Note_on_c, 0, 74, 67
1, 912149, Note_on_c, 0, 78, 71
1, 912159, Note_off_c, 0, 71, 61
1, 912169, Control_c, 0, 64, 72
1, 912174, Note_off_c, 0, 78, 69
1, 912176, Note_on_c, 0, 83, 85
1, 912183, Control_c, 0, 64, 0
1, 912189, Note_off_c, 0, 74, 64
1, 912204, Note_off_c, 0, 83, 67
1, 912331, Control_c, 0, 64, 37
1, 912346, Control_c, 0, 64, 61
1, 912361, Control_c, 0, 64, 66
1, 912373, Note_on_c, 0, 40, 59
1, 912376, Control_c, 0, 64, 69
1, 912385, Note_on_c, 0, 47, 48
1, 912391, Control_c, 0, 64, 72
1, 912403, Note_off_c, 0, 40, 65
1, 912406, Control_c, 0, 64, 78
1, 912412, Note_off_c, 0, 47, 59
1, 912421, Control_c, 0, 64, 84
1, 912436, Control_c, 0, 64, 95
1, 912450, Control_c, 0, 64, 115
1, 912465, Control_c, 0, 64, 127
1, 912532, Note_on_c, 0, 69, 65
1, 912604, Note_on_c, 0, 56, 34
1, 912615, Note_on_c, 0, 74, 58
1, 912624, Note_on_c, 0, 78, 62
1, 912628, Note_off_c, 0, 69, 61
1, 912636, Note_on_c, 0, 66, 56
1, 912639, Note_off_c, 0, 56, 55
1, 912671, Note_off_c, 0, 74, 60
1, 912674, Note_on_c, 0, 83, 73
1, 912696, Note_off_c, 0, 66, 58
1, 912696, Note_off_c, 0, 78, 63
1, 912706, Note_on_c, 0, 57, 34
1, 912758, Note_on_c, 0, 69, 55
1, 912769, Note_on_c, 0, 71, 51
1, 912773, Note_off_c, 0, 83, 62
1, 912799, Note_on_c, 0, 75, 68
1, 912820, Note_off_c, 0, 69, 56
1, 912824, Note_off_c, 0, 71, 42
1, 912826, Note_off_c, 0, 57, 63
1, 912827, Note_on_c, 0, 79, 58
1, 912832, Note_on_c, 0, 67, 63
1, 912864, Note_on_c, 0, 83, 79
1, 912878, Note_off_c, 0, 67, 53
1, 912886, Note_off_c, 0, 75, 60
1, 912899, Note_off_c, 0, 79, 64
1, 912932, Note_on_c, 0, 71, 68
1, 912938, Note_on_c, 0, 72, 66
1, 912940, Note_off_c, 0, 83, 63
1, 912943, Note_on_c, 0, 60, 64
1, 912985, Note_on_c, 0, 76, 82
1, 912990, Note_on_c, 0, 79, 77
1, 912990, Note_off_c, 0, 71, 62
1, 912992, Control_c, 0, 64, 107
1, 913000, Note_off_c, 0, 72, 62
1, 913006, Control_c, 0, 64, 95
1, 913015, Note_off_c, 0, 60, 64
1, 913017, Note_on_c, 0, 69, 75
1, 913021, Control_c, 0, 64, 96
1, 913036, Control_c, 0, 64, 101
1, 913049, Note_on_c, 0, 84, 83
1, 913051, Control_c, 0, 64, 111
1, 913066, Control_c, 0, 64, 127
1, 913077, Note_off_c, 0, 69, 60
1, 913079, Note_off_c, 0, 76, 63
1, 913083, Note_off_c, 0, 79, 64
1, 913099, Note_on_c, 0, 60, 75
1, 913102, Note_on_c, 0, 72, 78
1, 913110, Note_on_c, 0, 74, 66
1, 913142, Note_off_c, 0, 84, 57
1, 913168, Note_on_c, 0, 76, 79
1, 913169, Note_off_c, 0, 74, 45
1, 913169, Note_on_c, 0, 79, 75
1, 913169, Note_off_c, 0, 72, 65
1, 913176, Note_off_c, 0, 60, 0
1, 913192, Note_on_c, 0, 84, 49
1, 913213, Poly_aftertouch_c, 0, 60, 127
1, 913242, Note_off_c, 0, 76, 60
1, 913251, Poly_aftertouch_c, 0, 64, 127
1, 913259, Note_off_c, 0, 84, 62
1, 913260, Note_off_c, 0, 79, 65
1, 913262, Note_on_c, 0, 73, 89
1, 913267, Poly_aftertouch_c, 0, 67, 127
1, 913273, Note_on_c, 0, 70, 46
1, 913296, Note_on_c, 0, 60, 23
1, 913300, Note_off_c, 0, 70, 57
1, 913306, Poly_aftertouch_c, 0, 67, 0
1, 913324, Poly_aftertouch_c, 0, 64, 0
1, 913333, Note_off_c, 0, 60, 66
1, 913343, Note_off_c, 0, 73, 63
1, 913347, Note_on_c, 0, 76, 75
1, 913347, Control_c, 0, 64, 106
1, 913351, Note_on_c, 0, 79, 73
1, 913362, Control_c, 0, 64, 69
1, 913377, Control_c, 0, 64, 31
1, 913391, Control_c, 0, 64, 0
1, 913408, Note_on_c, 0, 85, 80
1, 913417, Note_off_c, 0, 79, 67
1, 913427, Note_off_c, 0, 76, 65
1, 913437, Note_off_c, 0, 85, 66
1, 913592, Control_c, 0, 64, 51
1, 913607, Control_c, 0, 64, 60
1, 913622, Control_c, 0, 64, 63
1, 913630, Note_on_c, 0, 30, 46
1, 913637, Control_c, 0, 64, 64
1, 913646, Note_on_c, 0, 42, 53
1, 913652, Control_c, 0, 64, 65
1, 913667, Control_c, 0, 64, 67
1, 913672, Note_off_c, 0, 30, 62
1, 913682, Control_c, 0, 64, 70
1, 913696, Control_c, 0, 64, 75
1, 913697, Note_off_c, 0, 42, 63
1, 913711, Control_c, 0, 64, 83
1, 913726, Control_c, 0, 64, 95
1, 913741, Control_c, 0, 64, 120
1, 913755, Control_c, 0, 64, 127
1, 913836, Note_on_c, 0, 61, 55
1, 913861, Note_on_c, 0, 50, 51
1, 913901, Note_on_c, 0, 73, 59
1, 913924, Note_on_c, 0, 69, 62
1, 913932, Note_off_c, 0, 61, 58
1, 913944, Note_on_c, 0, 57, 47
1, 913947, Note_off_c, 0, 50, 58
1, 913981, Note_on_c, 0, 43, 50
1, 914001, Note_off_c, 0, 57, 63
1, 914010, Note_off_c, 0, 69, 59
1, 914010, Note_off_c, 0, 73, 60
1, 914016, Note_off_c, 0, 43, 60
1, 914037, Note_on_c, 0, 62, 53
1, 914073, Note_on_c, 0, 50, 23
1, 914110, Note_off_c, 0, 62, 55
1, 914114, Note_on_c, 0, 74, 50
1, 914124, Note_on_c, 0, 58, 70
1, 914125, Note_on_c, 0, 70, 72
1, 914134, Poly_aftertouch_c, 0, 67, 127
1, 914140, Control_c, 0, 64, 90
1, 914151, Note_off_c, 0, 58, 64
1, 914155, Control_c, 0, 64, 66
1, 914170, Control_c, 0, 64, 18
1, 914180, Note_off_c, 0, 50, 39
1, 914185, Control_c, 0, 64, 0
1, 914191, Note_on_c, 0, 43, 11
1, 914210, Note_on_c, 0, 62, 52
1, 914210, Note_off_c, 0, 70, 63
1, 914230, Note_off_c, 0, 74, 53
1, 914238, Poly_aftertouch_c, 0, 67, 0
1, 914250, Note_off_c, 0, 43, 28
1, 914252, Note_off_c, 0, 62, 65
1, 914341, Control_c, 0, 64, 26
1, 914356, Control_c, 0, 64, 44
1, 914370, Control_c, 0, 64, 54
1, 914385, Control_c, 0, 64, 60
1, 914393, Note_on_c, 0, 31, 47
1, 914393, Note_on_c, 0, 43, 51
1, 914400, Control_c, 0, 64, 63
1, 914415, Control_c, 0, 64, 65
1, 914427, Note_off_c, 0, 31, 51
1, 914429, Note_off_c, 0, 43, 63
1, 914430, Control_c, 0, 64, 66
1, 914445, Control_c, 0, 64, 68
1, 914460, Control_c, 0, 64, 69
1, 914475, Control_c, 0, 64, 71
1, 914489, Control_c, 0, 64, 74
1, 914504, Control_c, 0, 64, 78
1, 914518, Note_on_c, 0, 62, 62
1, 914519, Control_c, 0, 64, 84
1, 914534, Control_c, 0, 64, 91
1, 914549, Control_c, 0, 64, 101
1, 914563, Control_c, 0, 64, 115
1, 914565, Note_on_c, 0, 50, 53
1, 914578, Control_c, 0, 64, 127
1, 914609, Note_on_c, 0, 74, 68
1, 914617, Note_on_c, 0, 70, 79
1, 914629, Note_on_c, 0, 58, 63
1, 914633, Note_off_c, 0, 62, 62
1, 914642, Note_off_c, 0, 50, 62
1, 914659, Note_off_c, 0, 58, 66
1, 914696, Note_on_c, 0, 62, 67
1, 914701, Note_off_c, 0, 74, 60
1, 914704, Note_off_c, 0, 70, 60
1, 914708, Note_on_c, 0, 43, 56
1, 914757, Note_off_c, 0, 62, 63
1, 914765, Note_on_c, 0, 59, 70
1, 914767, Note_on_c, 0, 51, 67
1, 914788, Note_on_c, 0, 71, 77
1, 914794, Note_off_c, 0, 59, 65
1, 914797, Note_on_c, 0, 45, 26
1, 914798, Note_on_c, 0, 75, 76
1, 914803, Note_off_c, 0, 51, 65
1, 914810, Note_off_c, 0, 43, 64
1, 914835, Note_off_c, 0, 45, 48
1, 914876, Note_on_c, 0, 63, 75
1, 914895, Note_off_c, 0, 71, 60
1, 914949, Control_c, 0, 64, 76
1, 914954, Note_off_c, 0, 75, 53
1, 914958, Note_off_c, 0, 63, 61
1, 914964, Control_c, 0, 64, 55
1, 914979, Control_c, 0, 64, 0
1, 915004, Note_on_c, 0, 32, 55
1, 915017, Note_on_c, 0, 44, 65
1, 915031, Control_c, 0, 64, 45
1, 915036, Note_off_c, 0, 32, 62
1, 915045, Control_c, 0, 64, 62
1, 915049, Note_off_c, 0, 44, 66
1, 915060, Control_c, 0, 64, 68
1, 915075, Control_c, 0, 64, 76
1, 915090, Control_c, 0, 64, 82
1, 915104, Control_c, 0, 64, 86
1, 915119, Control_c, 0, 64, 88
1, 915127, Note_on_c, 0, 64, 63
1, 915150, Control_c, 0, 64, 88
1, 915165, Control_c, 0, 64, 90
1, 915180, Control_c, 0, 64, 94
1, 915194, Control_c, 0, 64, 100
1, 915206, Note_on_c, 0, 76, 74
1, 915209, Control_c, 0, 64, 115
1, 915210, Note_on_c, 0, 62, 67
1, 915217, Note_on_c, 0, 73, 72
1, 915223, Note_off_c, 0, 64, 60
1, 915224, Control_c, 0, 64, 127
1, 915261, Note_off_c, 0, 62, 59
1, 915291, Note_on_c, 0, 61, 61
1, 915303, Note_off_c, 0, 76, 62
1, 915306, Note_on_c, 0, 64, 67
1, 915319, Note_off_c, 0, 61, 65
1, 915324, Note_off_c, 0, 73, 61
1, 915349, Note_off_c, 0, 64, 58
1, 915386, Note_on_c, 0, 60, 53
1, 915404, Note_on_c, 0, 74, 79
1, 915404, Note_on_c, 0, 77, 83
1, 915408, Note_off_c, 0, 60, 60
1, 915429, Note_on_c, 0, 59, 48
1, 915437, Note_on_c, 0, 58, 71
1, 915460, Note_off_c, 0, 59, 65
1, 915474, Note_on_c, 0, 65, 81
1, 915481, Note_off_c, 0, 58, 65
1, 915487, Note_off_c, 0, 77, 63
1, 915512, Note_on_c, 0, 57, 69
1, 915514, Note_off_c, 0, 74, 62
1, 915536, Note_off_c, 0, 65, 63
1, 915567, Note_off_c, 0, 57, 63
1, 915590, Note_on_c, 0, 76, 93
1, 915597, Note_on_c, 0, 56, 75
1, 915597, Note_on_c, 0, 73, 91
1, 915657, Note_off_c, 0, 56, 64
1, 915676, Note_on_c, 0, 64, 73
1, 915684, Note_off_c, 0, 76, 61
1, 915687, Note_off_c, 0, 73, 60
1, 915714, Note_on_c, 0, 55, 38
1, 915716, Note_on_c, 0, 53, 45
1, 915731, Note_off_c, 0, 64, 64
1, 915753, Note_off_c, 0, 53, 55
1, 915756, Note_off_c, 0, 55, 53
1, 915787, Note_on_c, 0, 77, 86
1, 915792, Note_on_c, 0, 74, 65
1, 915796, Note_on_c, 0, 73, 46
1, 915812, Note_on_c, 0, 50, 48
1, 915823, Note_on_c, 0, 72, 44
1, 915834, Note_off_c, 0, 74, 62
1, 915838, Note_on_c, 0, 65, 75
1, 915847, Note_off_c, 0, 50, 64
1, 915852, Note_off_c, 0, 72, 37
1, 915858, Note_off_c, 0, 77, 64
1, 915858, Note_off_c, 0, 73, 63
1, 915876, Note_on_c, 0, 53, 51
1, 915891, Note_off_c, 0, 65, 62
1, 915912, Note_off_c, 0, 53, 64
1, 915958, Control_c, 0, 64, 94
1, 915973, Control_c, 0, 64, 66
1, 915974, Note_on_c, 0, 73, 79
1, 915988, Note_on_c, 0, 78, 74
1, 915988, Control_c, 0, 64, 47
1, 915992, Note_on_c, 0, 66, 70
1, 916002, Note_on_c, 0, 56, 71
1, 916003, Control_c, 0, 64, 45
1, 916017, Control_c, 0, 64, 53
1, 916032, Control_c, 0, 64, 63
1, 916034, Note_off_c, 0, 56, 68
1, 916046, Note_off_c, 0, 66, 63
1, 916047, Control_c, 0, 64, 72
1, 916062, Control_c, 0, 64, 91
1, 916069, Note_off_c, 0, 78, 63
1, 916071, Note_off_c, 0, 73, 55
1, 916073, Note_on_c, 0, 74, 75
1, 916077, Control_c, 0, 64, 127
1, 916107, Note_off_c, 0, 74, 62
1, 916183, Note_on_c, 0, 79, 84
1, 916183, Note_on_c, 0, 74, 91
1, 916213, Note_on_c, 0, 62, 50
1, 916216, Note_on_c, 0, 64, 46
1, 916292, Note_off_c, 0, 64, 59
1, 916293, Note_off_c, 0, 62, 59
1, 916298, Note_off_c, 0, 79, 66
1, 916299, Note_off_c, 0, 74, 62
1, 916304, Note_on_c, 0, 66, 71
1, 916311, Note_on_c, 0, 76, 47
1, 916321, Note_off_c, 0, 66, 66
1, 916332, Note_off_c, 0, 76, 56
1, 916353, Note_on_c, 0, 65, 37
1, 916371, Control_c, 0, 64, 73
1, 916386, Note_off_c, 0, 65, 51
1, 916386, Control_c, 0, 64, 60
1, 916389, Note_on_c, 0, 76, 96
1, 916390, Note_on_c, 0, 67, 78
1, 916391, Note_on_c, 0, 81, 94
1, 916401, Control_c, 0, 64, 56
1, 916415, Control_c, 0, 64, 61
1, 916430, Control_c, 0, 64, 67
1, 916445, Control_c, 0, 64, 79
1, 916458, Note_off_c, 0, 67, 59
1, 916460, Control_c, 0, 64, 127
1, 916464, Note_on_c, 0, 64, 21
1, 916475, Note_off_c, 0, 76, 65
1, 916482, Note_on_c, 0, 78, 81
1, 916492, Note_off_c, 0, 81, 65
1, 916532, Note_on_c, 0, 80, 24
1, 916541, Note_off_c, 0, 78, 65
1, 916555, Note_on_c, 0, 61, 75
1, 916567, Note_off_c, 0, 80, 31
1, 916571, Note_on_c, 0, 68, 30
1, 916586, Note_on_c, 0, 69, 28
1, 916595, Note_off_c, 0, 64, 58
1, 916597, Note_on_c, 0, 78, 95
1, 916597, Note_on_c, 0, 82, 93
1, 916600, Note_off_c, 0, 61, 63
1, 916606, Note_off_c, 0, 68, 45
1, 916619, Note_off_c, 0, 69, 52
1, 916674, Note_off_c, 0, 78, 60
1, 916693, Note_on_c, 0, 79, 77
1, 916710, Note_off_c, 0, 82, 63
1, 916738, Note_off_c, 0, 79, 64
1, 916779, Control_c, 0, 64, 80
1, 916794, Control_c, 0, 64, 59
1, 916806, Note_on_c, 0, 72, 84
1, 916809, Control_c, 0, 64, 37
1, 916820, Note_on_c, 0, 77, 58
1, 916824, Control_c, 0, 64, 42
1, 916833, Note_on_c, 0, 76, 47
1, 916834, Note_on_c, 0, 52, 50
1, 916838, Note_off_c, 0, 77, 61
1, 916839, Control_c, 0, 64, 57
1, 916854, Control_c, 0, 64, 66
1, 916856, Note_off_c, 0, 76, 37
1, 916862, Note_off_c, 0, 52, 64
1, 916868, Control_c, 0, 64, 78
1, 916870, Note_off_c, 0, 72, 0
1, 916871, Note_on_c, 0, 45, 3
1, 916878, Note_on_c, 0, 55, 76
1, 916882, Note_on_c, 0, 78, 83
1, 916883, Control_c, 0, 64, 127
1, 916895, Note_on_c, 0, 73, 85
1, 916898, Poly_aftertouch_c, 0, 72, 0
1, 916910, Note_off_c, 0, 45, 37
1, 916939, Note_off_c, 0, 55, 64
1, 916957, Note_off_c, 0, 73, 66
1, 916964, Note_off_c, 0, 78, 61
1, 916980, Note_on_c, 0, 74, 61
1, 917006, Note_on_c, 0, 76, 87
1, 917012, Note_on_c, 0, 58, 45
1, 917014, Note_on_c, 0, 79, 91
1, 917048, Note_on_c, 0, 75, 84
1, 917054, Note_off_c, 0, 58, 59
1, 917059, Note_off_c, 0, 74, 64
1, 917077, Note_off_c, 0, 76, 65
1, 917084, Note_on_c, 0, 60, 15
1, 917092, Note_on_c, 0, 62, 35
1, 917120, Note_off_c, 0, 75, 64
1, 917123, Note_off_c, 0, 79, 64
1, 917125, Note_off_c, 0, 60, 51
1, 917175, Note_off_c, 0, 62, 0
1, 917194, Control_c, 0, 64, 75
1, 917195, Note_on_c, 0, 81, 102
1, 917197, Note_on_c, 0, 77, 102
1, 917198, Note_on_c, 0, 66, 84
1, 917209, Control_c, 0, 64, 63
1, 917212, Note_on_c, 0, 58, 41
1, 917212, Poly_aftertouch_c, 0, 62, 127
1, 917215, Note_on_c, 0, 57, 76
1, 917224, Control_c, 0, 64, 65
1, 917227, Note_off_c, 0, 66, 66
1, 917246, Control_c, 0, 64, 73
1, 917247, Poly_aftertouch_c, 0, 62, 0
1, 917253, Note_off_c, 0, 57, 68
1, 917261, Control_c, 0, 64, 110
1, 917262, Note_off_c, 0, 58, 63
1, 917276, Control_c, 0, 64, 127
1, 917322, Note_off_c, 0, 77, 64
1, 917328, Note_on_c, 0, 78, 55
1, 917334, Note_off_c, 0, 81, 63
1, 917357, Note_on_c, 0, 79, 24
1, 917360, Note_off_c, 0, 78, 52
1, 917390, Note_off_c, 0, 79, 54
1, 917394, Control_c, 0, 64, 90
1, 917409, Control_c, 0, 64, 63
1, 917424, Control_c, 0, 64, 55
1, 917439, Control_c, 0, 64, 60
1, 917440, Note_on_c, 0, 46, 85
1, 917444, Note_on_c, 0, 70, 79
1, 917449, Note_on_c, 0, 74, 71
1, 917453, Control_c, 0, 64, 66
1, 917462, Note_on_c, 0, 34, 44
1, 917468, Control_c, 0, 64, 79
1, 917472, Note_off_c, 0, 46, 62
1, 917472, Note_off_c, 0, 70, 67
1, 917478, Note_off_c, 0, 74, 65
1, 917483, Control_c, 0, 64, 127
1, 917500, Note_off_c, 0, 34, 53
1, 917540, Note_on_c, 0, 76, 58
1, 917555, Note_on_c, 0, 77, 57
1, 917559, Note_off_c, 0, 76, 65
1, 917575, Note_off_c, 0, 77, 61
1, 917602, Note_on_c, 0, 74, 74
1, 917639, Note_off_c, 0, 74, 64
1, 917646, Note_on_c, 0, 76, 27
1, 917647, Note_off_c, 0, 76, 127
1, 917678, Note_on_c, 0, 76, 64
1, 917682, Note_on_c, 0, 79, 91
1, 917706, Control_c, 0, 64, 77
1, 917721, Control_c, 0, 64, 55
1, 917727, Note_off_c, 0, 79, 65
1, 917736, Note_off_c, 0, 76, 65
1, 917736, Control_c, 0, 64, 0
1, 917773, Note_on_c, 0, 81, 97
1, 917781, Note_on_c, 0, 78, 104
1, 917781, Control_c, 0, 64, 36
1, 917795, Control_c, 0, 64, 66
1, 917802, Note_on_c, 0, 76, 36
1, 917810, Control_c, 0, 64, 93
1, 917825, Control_c, 0, 64, 127
1, 917830, Note_off_c, 0, 76, 49
1, 917840, Note_off_c, 0, 78, 66
1, 917852, Note_off_c, 0, 81, 65
1, 917869, Note_on_c, 0, 71, 87
1, 917912, Note_off_c, 0, 71, 58
1, 917979, Note_on_c, 0, 80, 75
1, 917997, Note_on_c, 0, 70, 102
1, 917998, Note_on_c, 0, 49, 91
1, 918002, Note_on_c, 0, 82, 85
1, 918021, Note_off_c, 0, 49, 69
1, 918054, Note_off_c, 0, 80, 62
1, 918058, Note_off_c, 0, 70, 60
1, 918065, Note_off_c, 0, 82, 64
1, 918113, Note_on_c, 0, 83, 81
1, 918117, Note_on_c, 0, 79, 66
1, 918117, Note_on_c, 0, 71, 80
1, 918142, Note_off_c, 0, 71, 69
1, 918143, Control_c, 0, 64, 91
1, 918144, Note_off_c, 0, 83, 63
1, 918144, Note_off_c, 0, 79, 67
1, 918147, Note_on_c, 0, 78, 40
1, 918158, Control_c, 0, 64, 67
1, 918173, Note_off_c, 0, 78, 37
1, 918173, Control_c, 0, 64, 60
1, 918187, Control_c, 0, 64, 62
1, 918194, Poly_aftertouch_c, 0, 78, 0
1, 918199, Note_on_c, 0, 71, 96
1, 918199, Note_on_c, 0, 78, 89
1, 918202, Control_c, 0, 64, 66
1, 918204, Note_on_c, 0, 83, 83
1, 918217, Control_c, 0, 64, 77
1, 918228, Note_off_c, 0, 83, 67
1, 918230, Note_off_c, 0, 71, 62
1, 918232, Control_c, 0, 64, 127
1, 918250, Note_off_c, 0, 78, 62
1, 918251, Note_on_c, 0, 64, 65
1, 918265, Poly_aftertouch_c, 0, 55, 127
1, 918287, Poly_aftertouch_c, 0, 55, 0
1, 918291, Note_on_c, 0, 71, 90
1, 918299, Note_on_c, 0, 76, 77
1, 918302, Note_on_c, 0, 83, 73
1, 918314, Note_off_c, 0, 71, 66
1, 918314, Note_on_c, 0, 78, 29
1, 918318, Note_off_c, 0, 83, 65
1, 918323, Note_off_c, 0, 76, 70
1, 918337, Note_off_c, 0, 64, 32
1, 918349, Note_off_c, 0, 78, 43
1, 918360, Note_on_c, 0, 55, 64
1, 918374, Note_on_c, 0, 58, 81
1, 918377, Note_on_c, 0, 71, 99
1, 918377, Note_on_c, 0, 83, 89
1, 918386, Note_on_c, 0, 77, 84
1, 918387, Note_on_c, 0, 76, 83
1, 918402, Note_off_c, 0, 55, 64
1, 918405, Note_on_c, 0, 64, 60
1, 918415, Note_off_c, 0, 77, 61
1, 918417, Note_off_c, 0, 71, 66
1, 918419, Note_off_c, 0, 76, 59
1, 918431, Note_off_c, 0, 58, 64
1, 918466, Note_off_c, 0, 64, 64
1, 918486, Note_off_c, 0, 83, 63
1, 918569, Note_on_c, 0, 63, 86
1, 918572, Note_on_c, 0, 74, 102
1, 918586, Note_on_c, 0, 85, 106
1, 918587, Note_on_c, 0, 94, 101
1, 918598, Note_on_c, 0, 97, 70
1, 918601, Note_on_c, 0, 90, 65
1, 918602, Note_off_c, 0, 90, 127
1, 918602, Note_on_c, 0, 68, 51
1, 918606, Note_on_c, 0, 96, 56
1, 918613, Note_off_c, 0, 74, 67
1, 918614, Note_off_c, 0, 97, 66
1, 918615, Note_off_c, 0, 85, 62
1, 918624, Note_on_c, 0, 95, 30
1, 918627, Note_off_c, 0, 96, 63
1, 918629, Note_off_c, 0, 94, 57
1, 918630, Note_off_c, 0, 68, 54
1, 918654, Note_off_c, 0, 95, 49
1, 918655, Note_off_c, 0, 63, 61
1, 918671, Poly_aftertouch_c, 0, 91, 0
1, 918686, Note_on_c, 0, 94, 108
1, 918687, Note_on_c, 0, 85, 99
1, 918690, Note_on_c, 0, 90, 89
1, 918690, Note_on_c, 0, 97, 88
1, 918692, Note_on_c, 0, 73, 93
1, 918716, Note_on_c, 0, 61, 46
1, 918722, Note_off_c, 0, 97, 60
1, 918725, Note_off_c, 0, 85, 66
1, 918741, Note_off_c, 0, 90, 63
1, 918743, Note_off_c, 0, 73, 64
1, 918745, Note_off_c, 0, 94, 63
1, 918753, Note_off_c, 0, 61, 63
1, 918758, Note_on_c, 0, 66, 8
1, 918797, Note_on_c, 0, 94, 104
1, 918798, Note_on_c, 0, 85, 98
1, 918799, Note_on_c, 0, 63, 42
1, 918800, Note_on_c, 0, 90, 85
1, 918806, Note_on_c, 0, 97, 91
1, 918810, Poly_aftertouch_c, 0, 72, 0
1, 918821, Note_off_c, 0, 66, 40
1, 918827, Note_off_c, 0, 97, 69
1, 918832, Note_off_c, 0, 85, 67
1, 918832, Note_off_c, 0, 90, 58
1, 918838, Note_on_c, 0, 61, 34
1, 918838, Note_off_c, 0, 94, 63
1, 918840, Note_on_c, 0, 59, 65
1, 918845, Note_on_c, 0, 60, 46
1, 918849, Note_off_c, 0, 63, 63
1, 918861, Note_off_c, 0, 59, 62
1, 918869, Note_off_c, 0, 61, 53
1, 918871, Note_off_c, 0, 60, 56
1, 918895, Note_on_c, 0, 85, 85
1, 918895, Note_on_c, 0, 90, 82
1, 918909, Note_on_c, 0, 92, 57
1, 918915, Note_on_c, 0, 94, 37
1, 918916, Note_off_c, 0, 94, 127
1, 918916, Note_off_c, 0, 90, 69
1, 918918, Note_off_c, 0, 85, 71
1, 918922, Note_on_c, 0, 83, 60
1, 918930, Note_off_c, 0, 92, 60
1, 918931, Note_on_c, 0, 84, 41
1, 918940, Note_off_c, 0, 83, 64
1, 918955, Note_off_c, 0, 84, 55
1, 918969, Note_on_c, 0, 42, 56
1, 919051, Note_on_c, 0, 49, 82
1, 919056, Control_c, 0, 64, 64
1, 919071, Control_c, 0, 64, 0
1, 919076, Note_off_c, 0, 42, 59
1, 919079, Note_on_c, 0, 70, 87
1, 919080, Note_on_c, 0, 38, 22
1, 919081, Note_off_c, 0, 38, 127
1, 919084, Note_on_c, 0, 82, 78
1, 919086, Note_on_c, 0, 77, 70
1, 919100, Control_c, 0, 64, 35
1, 919101, Note_off_c, 0, 49, 63
1, 919115, Control_c, 0, 64, 59
1, 919131, Control_c, 0, 64, 69
1, 919146, Control_c, 0, 64, 83
1, 919160, Control_c, 0, 64, 127
1, 919179, Note_off_c, 0, 70, 63
1, 919185, Note_off_c, 0, 82, 63
1, 919194, Note_on_c, 0, 78, 77
1, 919197, Note_off_c, 0, 77, 56
1, 919228, Note_on_c, 0, 61, 73
1, 919256, Note_off_c, 0, 78, 63
1, 919266, Note_on_c, 0, 83, 96
1, 919268, Note_on_c, 0, 71, 101
1, 919276, Note_on_c, 0, 78, 71
1, 919278, Note_off_c, 0, 61, 60
1, 919307, Note_on_c, 0, 67, 76
1, 919319, Note_off_c, 0, 71, 63
1, 919328, Note_off_c, 0, 83, 64
1, 919346, Note_off_c, 0, 78, 64
1, 919369, Note_off_c, 0, 67, 62
1, 919451, Note_on_c, 0, 73, 103
1, 919457, Note_on_c, 0, 85, 96
1, 919469, Note_on_c, 0, 61, 46
1, 919470, Note_off_c, 0, 61, 127
1, 919474, Note_on_c, 0, 70, 86
1, 919498, Note_on_c, 0, 62, 66
1, 919500, Note_on_c, 0, 80, 39
1, 919506, Note_on_c, 0, 65, 66
1, 919507, Note_on_c, 0, 66, 39
1, 919520, Note_off_c, 0, 70, 66
1, 919530, Note_off_c, 0, 73, 64
1, 919537, Note_on_c, 0, 82, 18
1, 919537, Note_off_c, 0, 65, 67
1, 919540, Note_off_c, 0, 66, 54
1, 919548, Note_off_c, 0, 62, 64
1, 919553, Note_off_c, 0, 85, 64
1, 919557, Note_off_c, 0, 80, 41
1, 919577, Note_off_c, 0, 82, 50
1, 919627, Note_on_c, 0, 81, 96
1, 919633, Note_on_c, 0, 74, 104
1, 919633, Note_on_c, 0, 86, 99
1, 919659, Note_on_c, 0, 84, 55
1, 919674, Note_off_c, 0, 84, 48
1, 919732, Note_off_c, 0, 86, 64
1, 919739, Note_off_c, 0, 81, 62
1, 919741, Note_off_c, 0, 74, 63
1, 919768, Poly_aftertouch_c, 0, 40, 127
1, 919820, Control_c, 0, 64, 71
1, 919820, Note_on_c, 0, 38, 90
1, 919820, Note_on_c, 0, 50, 102
1, 919823, Poly_aftertouch_c, 0, 40, 0
1, 919834, Control_c, 0, 64, 0
1, 919850, Note_on_c, 0, 48, 52
1, 919851, Note_off_c, 0, 48, 127
1, 919864, Control_c, 0, 64, 13
1, 919876, Note_on_c, 0, 64, 102
1, 919879, Control_c, 0, 64, 53
1, 919879, Note_on_c, 0, 66, 93
1, 919885, Note_on_c, 0, 76, 82
1, 919888, Note_off_c, 0, 38, 64
1, 919888, Note_on_c, 0, 74, 80
1, 919893, Control_c, 0, 64, 69
1, 919907, Note_off_c, 0, 50, 66
1, 919908, Control_c, 0, 64, 113
1, 919912, Note_off_c, 0, 74, 62
1, 919915, Note_off_c, 0, 64, 68
1, 919923, Control_c, 0, 64, 127
1, 919925, Note_off_c, 0, 66, 63
1, 919933, Note_off_c, 0, 76, 59
1, 920024, Note_on_c, 0, 54, 65
1, 920032, Note_on_c, 0, 60, 59
1, 920061, Note_on_c, 0, 63, 69
1, 920064, Note_off_c, 0, 54, 65
1, 920069, Note_on_c, 0, 62, 91
1, 920075, Note_on_c, 0, 66, 84
1, 920076, Note_on_c, 0, 75, 111
1, 920078, Note_on_c, 0, 79, 97
1, 920080, Note_off_c, 0, 60, 57
1, 920082, Note_on_c, 0, 85, 94
1, 920089, Note_off_c, 0, 62, 72
1, 920091, Note_off_c, 0, 66, 73
1, 920096, Note_off_c, 0, 63, 63
1, 920130, Note_on_c, 0, 86, 20
1, 920131, Note_off_c, 0, 86, 127
1, 920148, Note_off_c, 0, 85, 63
1, 920149, Note_off_c, 0, 75, 62
1, 920187, Note_on_c, 0, 80, 84
1, 920210, Note_off_c, 0, 79, 51
1, 920258, Control_c, 0, 64, 72
1, 920267, Note_off_c, 0, 80, 63
1, 920272, Control_c, 0, 64, 0
1, 920277, Note_on_c, 0, 51, 102
1, 920282, Note_on_c, 0, 84, 96
1, 920289, Note_on_c, 0, 72, 101
1, 920289, Note_on_c, 0, 79, 86
1, 920304, Note_on_c, 0, 78, 31
1, 920314, Note_off_c, 0, 51, 67
1, 920332, Control_c, 0, 64, 45
1, 920346, Control_c, 0, 64, 70
1, 920361, Control_c, 0, 64, 100
1, 920376, Control_c, 0, 64, 127
1, 920392, Note_off_c, 0, 84, 63
1, 920398, Note_on_c, 0, 60, 86
1, 920416, Note_on_c, 0, 80, 85
1, 920420, Note_off_c, 0, 79, 66
1, 920425, Note_off_c, 0, 72, 58
1, 920452, Note_off_c, 0, 78, 40
1, 920474, Note_off_c, 0, 80, 64
1, 920499, Note_on_c, 0, 63, 92
1, 920523, Note_off_c, 0, 60, 65
1, 920524, Note_on_c, 0, 73, 117
1, 920531, Note_on_c, 0, 80, 96
1, 920533, Note_on_c, 0, 85, 100
1, 920606, Note_off_c, 0, 63, 67
1, 920630, Note_off_c, 0, 73, 60
1, 920658, Note_off_c, 0, 85, 64
1, 920661, Note_off_c, 0, 80, 63
1, 920665, Note_on_c, 0, 66, 69
1, 920680, Note_on_c, 0, 67, 79
1, 920696, Note_off_c, 0, 66, 62
1, 920712, Note_on_c, 0, 68, 20
1, 920727, Note_off_c, 0, 68, 45
1, 920746, Note_on_c, 0, 75, 120
1, 920749, Note_on_c, 0, 87, 100
1, 920749, Note_off_c, 0, 67, 63
1, 920764, Note_on_c, 0, 85, 83
1, 920777, Note_off_c, 0, 85, 72
1, 920792, Note_on_c, 0, 82, 28
1, 920796, Note_on_c, 0, 71, 75
1, 920829, Note_off_c, 0, 82, 51
1, 920834, Poly_aftertouch_c, 0, 70, 127
1, 920847, Note_on_c, 0, 85, 58
1, 920870, Note_off_c, 0, 75, 60
1, 920879, Note_off_c, 0, 87, 64
1, 920898, Note_on_c, 0, 84, 43
1, 920898, Poly_aftertouch_c, 0, 70, 0
1, 920903, Note_off_c, 0, 71, 62
1, 920917, Note_off_c, 0, 85, 64
1, 920926, Note_off_c, 0, 84, 52
1, 920943, Note_on_c, 0, 67, 60
1, 920954, Note_on_c, 0, 64, 90
1, 920957, Note_on_c, 0, 73, 107
1, 920958, Note_on_c, 0, 88, 103
1, 920960, Note_on_c, 0, 76, 109
1, 920964, Note_on_c, 0, 84, 89
1, 920991, Note_off_c, 0, 73, 71
1, 921010, Note_off_c, 0, 67, 65
1, 921015, Note_off_c, 0, 64, 67
1, 921045, Poly_aftertouch_c, 0, 68, 0
1, 921084, Note_off_c, 0, 88, 67
1, 921092, Note_off_c, 0, 76, 67
1, 921095, Note_off_c, 0, 84, 65
1, 921106, Note_on_c, 0, 85, 44
1, 921129, Note_off_c, 0, 85, 56
1, 921182, Note_on_c, 0, 46, 32
1, 921235, Note_off_c, 0, 46, 46
1, 921244, Control_c, 0, 64, 100
1, 921256, Poly_aftertouch_c, 0, 42, 127
1, 921259, Control_c, 0, 64, 60
1, 921263, Note_on_c, 0, 40, 85
1, 921268, Note_on_c, 0, 52, 94
1, 921274, Note_on_c, 0, 50, 90
1, 921274, Control_c, 0, 64, 0
1, 921281, Poly_aftertouch_c, 0, 42, 0
1, 921292, Note_on_c, 0, 76, 102
1, 921294, Note_on_c, 0, 64, 107
1, 921298, Note_on_c, 0, 66, 99
1, 921304, Note_off_c, 0, 50, 55
1, 921321, Note_off_c, 0, 40, 63
1, 921332, Control_c, 0, 64, 62
1, 921335, Note_off_c, 0, 52, 67
1, 921347, Control_c, 0, 64, 84
1, 921362, Control_c, 0, 64, 127
1, 921408, Note_off_c, 0, 64, 64
1, 921414, Note_on_c, 0, 73, 66
1, 921418, Note_off_c, 0, 76, 66
1, 921429, Note_off_c, 0, 66, 64
1, 921441, Note_off_c, 0, 73, 67
1, 921463, Note_on_c, 0, 56, 93
1, 921612, Note_on_c, 0, 62, 44
1, 921689, Control_c, 0, 64, 87
1, 921703, Control_c, 0, 64, 50
1, 921710, Note_on_c, 0, 68, 97
1, 921712, Note_on_c, 0, 64, 75
1, 921713, Note_on_c, 0, 84, 100
1, 921715, Note_on_c, 0, 77, 100
1, 921715, Note_on_c, 0, 83, 96
1, 921718, Note_on_c, 0, 89, 99
1, 921718, Control_c, 0, 64, 0
1, 921737, Note_on_c, 0, 88, 82
1, 921757, Note_on_c, 0, 76, 33
1, 921758, Note_off_c, 0, 76, 127
1, 921778, Note_off_c, 0, 88, 0
1, 921786, Note_on_c, 0, 88, 45
1, 921790, Note_on_c, 0, 86, 1
1, 921791, Note_off_c, 0, 86, 51
1, 921800, Control_c, 0, 64, 62
1, 921815, Control_c, 0, 64, 78
1, 921823, Note_off_c, 0, 83, 62
1, 921828, Note_off_c, 0, 88, 45
1, 921830, Control_c, 0, 64, 127
1, 921977, Note_off_c, 0, 77, 62
1, 921983, Note_on_c, 0, 83, 101
1, 922012, Note_off_c, 0, 84, 67
1, 922019, Note_off_c, 0, 83, 72
1, 922019, Note_off_c, 0, 89, 64
1, 922028, Note_off_c, 0, 62, 59
1, 922066, Poly_aftertouch_c, 0, 86, 0
1, 922073, Note_off_c, 0, 68, 64
1, 922082, Note_off_c, 0, 64, 55
1, 922094, Note_off_c, 0, 56, 56
1, 922264, Note_on_c, 0, 57, 70
1, 922305, Note_on_c, 0, 64, 59
1, 922322, Note_off_c, 0, 57, 65
1, 922337, Note_off_c, 0, 64, 65
1, 922348, Note_on_c, 0, 93, 70
1, 922364, Control_c, 0, 64, 95
1, 922366, Note_on_c, 0, 73, 73
1, 922378, Control_c, 0, 64, 64
1, 922391, Note_off_c, 0, 73, 69
1, 922393, Control_c, 0, 64, 0
1, 922410, Note_on_c, 0, 88, 77
1, 922416, Note_off_c, 0, 93, 64
1, 922472, Note_off_c, 0, 88, 62
1, 922495, Note_on_c, 0, 74, 71
1, 922499, Note_on_c, 0, 100, 76
1, 922531, Note_on_c, 0, 69, 26
1, 922535, Note_off_c, 0, 74, 61
1, 922555, Note_on_c, 0, 93, 77
1, 922562, Note_on_c, 0, 73, 68
1, 922565, Note_off_c, 0, 69, 41
1, 922591, Note_off_c, 0, 73, 67
1, 922600, Note_off_c, 0, 100, 64
1, 922601, Note_off_c, 0, 93, 64
1, 922613, Note_on_c, 0, 76, 32
1, 922625, Note_on_c, 0, 88, 75
1, 922641, Note_off_c, 0, 76, 34
1, 922648, Note_off_c, 0, 88, 71
1, 922697, Control_c, 0, 64, 37
1, 922699, Note_on_c, 0, 93, 81
1, 922712, Control_c, 0, 64, 60
1, 922726, Note_on_c, 0, 65, 42
1, 922727, Control_c, 0, 64, 64
1, 922741, Control_c, 0, 64, 67
1, 922750, Note_on_c, 0, 77, 47
1, 922756, Note_on_c, 0, 69, 67
1, 922756, Control_c, 0, 64, 69
1, 922759, Note_off_c, 0, 65, 64
1, 922761, Note_on_c, 0, 89, 90
1, 922768, Note_off_c, 0, 93, 64
1, 922771, Control_c, 0, 64, 70
1, 922775, Note_off_c, 0, 77, 38
1, 922784, Note_off_c, 0, 69, 67
1, 922786, Control_c, 0, 64, 71
1, 922830, Control_c, 0, 64, 71
1, 922833, Note_off_c, 0, 89, 63
1, 922844, Note_on_c, 0, 81, 78
1, 922875, Note_on_c, 0, 93, 79
1, 922878, Note_off_c, 0, 81, 64
1, 922881, Note_on_c, 0, 57, 65
1, 922890, Control_c, 0, 64, 70
1, 922904, Note_on_c, 0, 62, 49
1, 922905, Control_c, 0, 64, 68
1, 922914, Note_off_c, 0, 57, 65
1, 922920, Control_c, 0, 64, 64
1, 922920, Note_off_c, 0, 93, 67
1, 922926, Note_off_c, 0, 62, 59
1, 922934, Control_c, 0, 64, 57
1, 922949, Control_c, 0, 64, 48
1, 922961, Note_on_c, 0, 93, 78
1, 922964, Control_c, 0, 64, 33
1, 922978, Control_c, 0, 64, 0
1, 923015, Note_off_c, 0, 93, 63
1, 923039, Note_on_c, 0, 88, 73
1, 923089, Note_off_c, 0, 88, 63
1, 923107, Note_on_c, 0, 100, 85
1, 923120, Note_on_c, 0, 73, 60
1, 923124, Poly_aftertouch_c, 0, 67, 0
1, 923138, Note_on_c, 0, 76, 41
1, 923141, Note_on_c, 0, 71, 51
1, 923146, Note_on_c, 0, 74, 36
1, 923157, Control_c, 0, 64, 25
1, 923158, Note_off_c, 0, 73, 67
1, 923161, Note_on_c, 0, 93, 85
1, 923162, Note_off_c, 0, 76, 36
1, 923163, Note_off_c, 0, 71, 59
1, 923172, Note_off_c, 0, 74, 36
1, 923172, Control_c, 0, 64, 64
1, 923187, Control_c, 0, 64, 68
1, 923200, Note_off_c, 0, 100, 58
1, 923201, Control_c, 0, 64, 70
1, 923203, Note_off_c, 0, 93, 66
1, 923216, Control_c, 0, 64, 70
1, 923242, Note_on_c, 0, 88, 79
1, 923247, Note_on_c, 0, 61, 71
1, 923254, Control_c, 0, 64, 71
1, 923263, Note_off_c, 0, 88, 71
1, 923268, Control_c, 0, 64, 76
1, 923283, Control_c, 0, 64, 84
1, 923295, Note_off_c, 0, 61, 51
1, 923298, Control_c, 0, 64, 98
1, 923313, Control_c, 0, 64, 127
1, 923322, Note_on_c, 0, 93, 80
1, 923343, Note_on_c, 0, 76, 69
1, 923343, Note_on_c, 0, 88, 78
1, 923355, Note_on_c, 0, 70, 59
1, 923360, Note_off_c, 0, 76, 67
1, 923385, Note_off_c, 0, 70, 66
1, 923407, Note_off_c, 0, 93, 65
1, 923416, Note_off_c, 0, 88, 64
1, 923432, Note_on_c, 0, 81, 81
1, 923461, Control_c, 0, 64, 90
1, 923468, Note_on_c, 0, 55, 59
1, 923476, Control_c, 0, 64, 67
1, 923479, Note_on_c, 0, 57, 62
1, 923479, Note_off_c, 0, 81, 66
1, 923490, Control_c, 0, 64, 49
1, 923505, Control_c, 0, 64, 33
1, 923507, Note_on_c, 0, 93, 75
1, 923520, Control_c, 0, 64, 38
1, 923535, Control_c, 0, 64, 53
1, 923546, Note_on_c, 0, 69, 77
1, 923550, Control_c, 0, 64, 64
1, 923560, Note_off_c, 0, 55, 61
1, 923564, Control_c, 0, 64, 71
1, 923579, Control_c, 0, 64, 80
1, 923585, Note_on_c, 0, 81, 69
1, 923589, Note_off_c, 0, 69, 61
1, 923594, Control_c, 0, 64, 89
1, 923595, Note_off_c, 0, 57, 58
1, 923608, Control_c, 0, 64, 100
1, 923614, Note_off_c, 0, 81, 65
1, 923623, Control_c, 0, 64, 114
1, 923638, Control_c, 0, 64, 127
1, 923650, Poly_aftertouch_c, 0, 65, 127
1, 923663, Note_on_c, 0, 71, 79
1, 923677, Poly_aftertouch_c, 0, 65, 0
1, 923691, Note_off_c, 0, 93, 65
1, 923695, Note_on_c, 0, 81, 80
1, 923718, Note_off_c, 0, 71, 63
1, 923736, Note_off_c, 0, 81, 63
1, 923766, Note_on_c, 0, 65, 73
1, 923787, Control_c, 0, 64, 78
1, 923787, Note_on_c, 0, 88, 86
1, 923793, Note_on_c, 0, 73, 75
1, 923801, Control_c, 0, 64, 62
1, 923816, Control_c, 0, 64, 52
1, 923831, Control_c, 0, 64, 56
1, 923844, Note_off_c, 0, 88, 64
1, 923846, Control_c, 0, 64, 62
1, 923861, Control_c, 0, 64, 68
1, 923875, Control_c, 0, 64, 78
1, 923884, Note_on_c, 0, 76, 23
1, 923890, Control_c, 0, 64, 96
1, 923905, Control_c, 0, 64, 127
1, 923906, Note_on_c, 0, 74, 71
1, 923922, Note_off_c, 0, 76, 0
1, 923922, Note_on_c, 0, 76, 20
1, 923924, Note_off_c, 0, 65, 61
1, 923933, Note_on_c, 0, 88, 55
1, 923940, Note_on_c, 0, 69, 66
1, 923943, Note_off_c, 0, 73, 58
1, 923958, Note_off_c, 0, 76, 65
1, 923960, Note_off_c, 0, 74, 62
1, 923987, Control_c, 0, 64, 79
1, 923998, Note_off_c, 0, 88, 66
1, 924002, Control_c, 0, 64, 66
1, 924014, Note_off_c, 0, 69, 63
1, 924017, Control_c, 0, 64, 63
1, 924029, Note_on_c, 0, 73, 74
1, 924032, Control_c, 0, 64, 67
1, 924039, Note_on_c, 0, 76, 80
1, 924046, Control_c, 0, 64, 75
1, 924061, Control_c, 0, 64, 94
1, 924076, Control_c, 0, 64, 127
1, 924086, Note_off_c, 0, 76, 65
1, 924094, Note_on_c, 0, 65, 63
1, 924102, Note_off_c, 0, 73, 64
1, 924122, Note_on_c, 0, 93, 79
1, 924135, Note_off_c, 0, 65, 64
1, 924180, Note_off_c, 0, 93, 54
1, 924183, Note_on_c, 0, 95, 88
1, 924240, Note_on_c, 0, 97, 83
1, 924255, Note_off_c, 0, 95, 63
1, 924294, Note_on_c, 0, 93, 87
1, 924296, Note_off_c, 0, 97, 64
1, 924318, Note_on_c, 0, 69, 73
1, 924360, Note_off_c, 0, 93, 66
1, 924361, Note_on_c, 0, 64, 35
1, 924369, Note_on_c, 0, 100, 72
1, 924371, Note_on_c, 0, 95, 62
1, 924389, Note_off_c, 0, 69, 61
1, 924392, Note_on_c, 0, 96, 34
1, 924401, Note_off_c, 0, 64, 61
1, 924407, Note_on_c, 0, 57, 82
1, 924407, Note_off_c, 0, 95, 57
1, 924411, Note_on_c, 0, 98, 28
1, 924417, Control_c, 0, 64, 105
1, 924419, Note_off_c, 0, 96, 0
1, 924419, Note_on_c, 0, 96, 12
1, 924431, Control_c, 0, 64, 69
1, 924436, Note_off_c, 0, 100, 66
1, 924446, Control_c, 0, 64, 48
1, 924458, Note_off_c, 0, 96, 63
1, 924458, Note_off_c, 0, 98, 66
1, 924461, Control_c, 0, 64, 38
1, 924469, Note_off_c, 0, 57, 63
1, 924476, Control_c, 0, 64, 52
1, 924484, Note_on_c, 0, 93, 77
1, 924491, Control_c, 0, 64, 64
1, 924506, Control_c, 0, 64, 74
1, 924520, Control_c, 0, 64, 100
1, 924535, Control_c, 0, 64, 127
1, 924536, Note_on_c, 0, 101, 82
1, 924551, Note_off_c, 0, 93, 61
1, 924557, Note_on_c, 0, 71, 43
1, 924559, Note_on_c, 0, 98, 82
1, 924569, Note_on_c, 0, 100, 66
1, 924584, Note_off_c, 0, 71, 54
1, 924607, Note_on_c, 0, 66, 66
1, 924614, Note_off_c, 0, 98, 62
1, 924622, Note_off_c, 0, 101, 49
1, 924623, Note_off_c, 0, 100, 65
1, 924643, Note_on_c, 0, 93, 79
1, 924655, Note_on_c, 0, 95, 71
1, 924666, Note_off_c, 0, 66, 61
1, 924675, Note_off_c, 0, 95, 55
1, 924690, Note_on_c, 0, 74, 60
1, 924694, Note_on_c, 0, 105, 85
1, 924717, Note_off_c, 0, 105, 69
1, 924729, Note_off_c, 0, 74, 64
1, 924735, Note_off_c, 0, 93, 62
1, 924750, Note_on_c, 0, 67, 48
1, 924752, Note_on_c, 0, 62, 66
1, 924777, Note_on_c, 0, 95, 83
1, 924780, Note_off_c, 0, 67, 63
1, 924788, Note_off_c, 0, 62, 64
1, 924828, Note_off_c, 0, 95, 67
1, 924846, Note_on_c, 0, 91, 85
1, 924892, Note_on_c, 0, 97, 87
1, 924908, Note_on_c, 0, 93, 82
1, 924911, Note_off_c, 0, 91, 66
1, 924946, Poly_aftertouch_c, 0, 67, 0
1, 924947, Note_off_c, 0, 93, 66
1, 924947, Note_off_c, 0, 97, 65
1, 924961, Note_on_c, 0, 95, 73
1, 924974, Poly_aftertouch_c, 0, 55, 0
1, 924976, Poly_aftertouch_c, 0, 65, 0
1, 924979, Note_on_c, 0, 98, 79
1, 924986, Note_off_c, 0, 95, 68
1, 925001, Note_on_c, 0, 91, 89
1, 925002, Note_off_c, 0, 98, 69
1, 925061, Note_on_c, 0, 97, 85
1, 925070, Note_on_c, 0, 100, 85
1, 925070, Note_off_c, 0, 91, 66
1, 925087, Note_on_c, 0, 70, 76
1, 925092, Control_c, 0, 64, 73
1, 925107, Note_on_c, 0, 98, 43
1, 925107, Control_c, 0, 64, 52
1, 925110, Note_on_c, 0, 64, 54
1, 925112, Note_on_c, 0, 67, 51
1, 925122, Control_c, 0, 64, 38
1, 925126, Note_off_c, 0, 97, 59
1, 925136, Control_c, 0, 64, 52
1, 925143, Note_off_c, 0, 100, 65
1, 925151, Control_c, 0, 64, 64
1, 925152, Note_off_c, 0, 67, 63
1, 925159, Note_on_c, 0, 91, 97
1, 925166, Control_c, 0, 64, 78
1, 925171, Note_off_c, 0, 98, 67
1, 925180, Control_c, 0, 64, 127
1, 925181, Note_off_c, 0, 70, 63
1, 925235, Note_on_c, 0, 103, 96
1, 925243, Note_off_c, 0, 91, 63
1, 925269, Note_off_c, 0, 103, 67
1, 925276, Note_off_c, 0, 64, 37
1, 925292, Note_on_c, 0, 72, 64
1, 925323, Note_off_c, 0, 72, 67
1, 925325, Note_on_c, 0, 69, 58
1, 925334, Note_on_c, 0, 89, 76
1, 925339, Note_on_c, 0, 93, 84
1, 925362, Note_off_c, 0, 89, 65
1, 925380, Note_on_c, 0, 65, 38
1, 925388, Control_c, 0, 64, 90
1, 925394, Note_off_c, 0, 93, 63
1, 925400, Note_off_c, 0, 69, 63
1, 925402, Note_on_c, 0, 62, 61
1, 925403, Control_c, 0, 64, 61
1, 925418, Control_c, 0, 64, 0
1, 925444, Note_off_c, 0, 65, 57
1, 925447, Note_on_c, 0, 94, 90
1, 925457, Note_on_c, 0, 91, 80
1, 925495, Note_off_c, 0, 94, 65
1, 925497, Note_off_c, 0, 91, 63
1, 925505, Note_off_c, 0, 62, 64
1, 925553, Note_on_c, 0, 93, 97
1, 925558, Note_on_c, 0, 96, 92
1, 925564, Note_on_c, 0, 65, 70
1, 925584, Note_off_c, 0, 93, 65
1, 925599, Note_off_c, 0, 96, 64
1, 925618, Note_off_c, 0, 65, 58
1, 925674, Note_on_c, 0, 58, 40
1, 925687, Note_on_c, 0, 98, 58
1, 925708, Note_off_c, 0, 58, 57
1, 925709, Note_on_c, 0, 97, 24
1, 925718, Note_off_c, 0, 98, 56
1, 925724, Note_on_c, 0, 96, 33
1, 925749, Note_off_c, 0, 97, 30
1, 925757, Note_off_c, 0, 96, 37
1, 925787, Note_on_c, 0, 100, 94
1, 925792, Note_on_c, 0, 88, 93
1, 925793, Note_on_c, 0, 93, 83
1, 925793, Note_on_c, 0, 64, 76
1, 925796, Note_on_c, 0, 57, 78
1, 925796, Control_c, 0, 64, 46
1, 925802, Note_on_c, 0, 97, 81
1, 925807, Note_off_c, 0, 88, 75
1, 925811, Note_off_c, 0, 93, 73
1, 925811, Control_c, 0, 64, 89
1, 925814, Note_off_c, 0, 100, 64
1, 925816, Note_off_c, 0, 64, 71
1, 925817, Note_off_c, 0, 97, 68
1, 925826, Control_c, 0, 64, 127
1, 925828, Note_off_c, 0, 57, 67
1, 926122, Control_c, 0, 64, 115
1, 926137, Control_c, 0, 64, 68
1, 926151, Control_c, 0, 64, 0
1, 926277, Control_c, 0, 64, 58
1, 926282, Note_on_c, 0, 77, 100
1, 926284, Note_on_c, 0, 65, 99
1, 926288, Note_on_c, 0, 53, 86
1, 926292, Control_c, 0, 64, 77
1, 926295, Note_on_c, 0, 41, 62
1, 926307, Control_c, 0, 64, 127
1, 926315, Note_off_c, 0, 65, 65
1, 926321, Note_off_c, 0, 41, 62
1, 926324, Note_off_c, 0, 77, 67
1, 926329, Note_on_c, 0, 75, 28
1, 926339, Note_off_c, 0, 53, 63
1, 926363, Note_off_c, 0, 75, 46
1, 926399, Poly_aftertouch_c, 0, 43, 0
1, 926555, Note_on_c, 0, 48, 47
1, 926559, Note_on_c, 0, 57, 68
1, 926573, Note_on_c, 0, 84, 87
1, 926583, Note_on_c, 0, 72, 73
1, 926585, Note_off_c, 0, 48, 61
1, 926586, Note_on_c, 0, 74, 72
1, 926607, Note_off_c, 0, 72, 70
1, 926613, Note_off_c, 0, 74, 64
1, 926613, Note_off_c, 0, 84, 62
1, 926619, Note_on_c, 0, 75, 16
1, 926626, Note_off_c, 0, 57, 64
1, 926645, Note_off_c, 0, 75, 0
1, 926655, Note_on_c, 0, 60, 69
1, 926655, Note_on_c, 0, 75, 47
1, 926663, Note_on_c, 0, 72, 93
1, 926668, Note_on_c, 0, 83, 69
1, 926670, Note_on_c, 0, 81, 68
1, 926688, Note_off_c, 0, 75, 66
1, 926688, Note_on_c, 0, 74, 44
1, 926693, Note_off_c, 0, 83, 69
1, 926695, Note_off_c, 0, 60, 63
1, 926695, Note_off_c, 0, 81, 69
1, 926701, Note_off_c, 0, 72, 62
1, 926710, Note_off_c, 0, 74, 39
1, 926750, Note_on_c, 0, 64, 53
1, 926769, Note_on_c, 0, 68, 82
1, 926772, Note_off_c, 0, 64, 60
1, 926790, Note_off_c, 0, 68, 70
1, 926810, Poly_aftertouch_c, 0, 63, 0
1, 926811, Note_on_c, 0, 69, 79
1, 926843, Note_on_c, 0, 72, 77
1, 926866, Note_off_c, 0, 69, 62
1, 926882, Note_on_c, 0, 75, 84
1, 926898, Note_off_c, 0, 72, 66
1, 926902, Poly_aftertouch_c, 0, 71, 0
1, 926915, Control_c, 0, 64, 86
1, 926927, Note_off_c, 0, 75, 60
1, 926930, Control_c, 0, 64, 62
1, 926944, Control_c, 0, 64, 48
1, 926959, Control_c, 0, 64, 60
1, 926979, Note_on_c, 0, 66, 100
1, 926981, Note_on_c, 0, 54, 72
1, 926982, Control_c, 0, 64, 75
1, 926984, Note_on_c, 0, 78, 91
1, 926987, Note_on_c, 0, 90, 90
1, 926997, Control_c, 0, 64, 127
1, 927003, Note_off_c, 0, 78, 71
1, 927007, Note_off_c, 0, 90, 68
1, 927009, Note_off_c, 0, 54, 67
1, 927012, Note_on_c, 0, 80, 43
1, 927013, Note_off_c, 0, 80, 127
1, 927026, Note_off_c, 0, 66, 64
1, 927197, Note_on_c, 0, 59, 69
1, 927202, Note_on_c, 0, 69, 83
1, 927210, Note_on_c, 0, 63, 78
1, 927222, Note_off_c, 0, 69, 72
1, 927227, Note_on_c, 0, 83, 87
1, 927232, Note_on_c, 0, 71, 88
1, 927238, Note_off_c, 0, 59, 63
1, 927249, Note_off_c, 0, 63, 61
1, 927275, Note_off_c, 0, 71, 62
1, 927295, Note_on_c, 0, 75, 81
1, 927322, Note_off_c, 0, 83, 53
1, 927359, Note_on_c, 0, 71, 78
1, 927359, Note_off_c, 0, 75, 62
1, 927377, Note_off_c, 0, 71, 74
1, 927441, Note_on_c, 0, 70, 84
1, 927482, Note_off_c, 0, 70, 62
1, 927549, Note_on_c, 0, 69, 76
1, 927597, Note_on_c, 0, 66, 74
1, 927618, Note_off_c, 0, 69, 59
1, 927629, Note_on_c, 0, 63, 69
1, 927662, Note_on_c, 0, 59, 69
1, 927676, Note_off_c, 0, 66, 61
1, 927704, Note_off_c, 0, 63, 61
1, 927708, Control_c, 0, 64, 71
1, 927730, Control_c, 0, 64, 11
1, 927738, Note_on_c, 0, 53, 92
1, 927745, Control_c, 0, 64, 0
1, 927751, Note_on_c, 0, 41, 84
1, 927759, Note_on_c, 0, 29, 55
1, 927781, Note_off_c, 0, 53, 67
1, 927788, Note_off_c, 0, 59, 64
1, 927789, Control_c, 0, 64, 35
1, 927790, Note_off_c, 0, 41, 66
1, 927792, Note_off_c, 0, 29, 58
1, 927804, Control_c, 0, 64, 62
1, 927819, Control_c, 0, 64, 72
1, 927834, Control_c, 0, 64, 99
1, 927848, Control_c, 0, 64, 127
1, 927991, Note_on_c, 0, 57, 72
1, 928001, Note_on_c, 0, 72, 92
1, 928014, Note_on_c, 0, 48, 47
1, 928024, Note_on_c, 0, 63, 60
1, 928042, Note_off_c, 0, 57, 61
1, 928045, Note_off_c, 0, 63, 64
1, 928047, Note_off_c, 0, 72, 61
1, 928059, Note_off_c, 0, 48, 0
1, 928071, Note_on_c, 0, 48, 44
1, 928086, Control_c, 0, 64, 84
1, 928088, Note_on_c, 0, 69, 92
1, 928093, Note_on_c, 0, 72, 65
1, 928094, Note_on_c, 0, 60, 86
1, 928101, Control_c, 0, 64, 59
1, 928116, Control_c, 0, 64, 24
1, 928121, Note_off_c, 0, 72, 65
1, 928131, Control_c, 0, 64, 23
1, 928145, Control_c, 0, 64, 48
1, 928148, Note_on_c, 0, 66, 77
1, 928160, Control_c, 0, 64, 63
1, 928163, Note_off_c, 0, 69, 66
1, 928175, Control_c, 0, 64, 74
1, 928188, Note_on_c, 0, 63, 76
1, 928190, Note_off_c, 0, 48, 55
1, 928190, Note_off_c, 0, 66, 62
1, 928190, Control_c, 0, 64, 98
1, 928194, Note_off_c, 0, 60, 48
1, 928205, Control_c, 0, 64, 127
1, 928229, Note_off_c, 0, 63, 67
1, 928237, Note_on_c, 0, 57, 59
1, 928253, Note_on_c, 0, 61, 86
1, 928268, Note_on_c, 0, 60, 28
1, 928301, Note_off_c, 0, 61, 60
1, 928302, Note_on_c, 0, 56, 84
1, 928305, Note_off_c, 0, 60, 65
1, 928315, Note_off_c, 0, 57, 65
1, 928330, Note_off_c, 0, 56, 68
1, 928397, Note_on_c, 0, 51, 99
1, 928397, Control_c, 0, 64, 73
1, 928405, Note_on_c, 0, 63, 92
1, 928412, Control_c, 0, 64, 58
1, 928427, Control_c, 0, 64, 54
1, 928442, Control_c, 0, 64, 61
1, 928457, Control_c, 0, 64, 69
1, 928479, Note_on_c, 0, 59, 63
1, 928479, Note_off_c, 0, 51, 61
1, 928479, Control_c, 0, 64, 96
1, 928494, Control_c, 0, 64, 127
1, 928497, Note_on_c, 0, 47, 75
1, 928499, Note_off_c, 0, 63, 58
1, 928533, Note_on_c, 0, 58, 86
1, 928573, Note_off_c, 0, 59, 63
1, 928580, Note_on_c, 0, 46, 79
1, 928586, Note_on_c, 0, 55, 87
1, 928589, Note_off_c, 0, 58, 63
1, 928589, Poly_aftertouch_c, 0, 61, 0
1, 928614, Note_off_c, 0, 47, 63
1, 928617, Note_on_c, 0, 44, 74
1, 928637, Note_off_c, 0, 46, 64
1, 928641, Note_off_c, 0, 55, 61
1, 928643, Note_off_c, 0, 44, 66
1, 928661, Note_on_c, 0, 54, 89
1, 928712, Note_on_c, 0, 51, 88
1, 928754, Note_off_c, 0, 54, 65
1, 928784, Note_off_c, 0, 51, 65
1, 928785, Note_on_c, 0, 48, 87
1, 928862, Note_on_c, 0, 46, 87
1, 928896, Note_off_c, 0, 48, 59
1, 928953, Note_on_c, 0, 45, 87
1, 928997, Note_off_c, 0, 46, 62
1, 929004, Poly_aftertouch_c, 0, 49, 0
1, 929098, Note_off_c, 0, 45, 66
1, 929125, Note_on_c, 0, 41, 94
1, 929129, Note_on_c, 0, 29, 88
1, 929190, Control_c, 0, 64, 79
1, 929205, Control_c, 0, 64, 36
1, 929227, Control_c, 0, 64, 0
1, 929316, Control_c, 0, 64, 60
1, 929331, Control_c, 0, 64, 71
1, 929346, Control_c, 0, 64, 82
1, 929361, Control_c, 0, 64, 98
1, 929375, Control_c, 0, 64, 127
1, 929519, Note_off_c, 0, 29, 48
1, 929660, Note_on_c, 0, 65, 81
1, 929665, Note_on_c, 0, 63, 80
1, 929667, Note_on_c, 0, 57, 79
1, 929683, Note_off_c, 0, 41, 61
1, 929779, Note_off_c, 0, 65, 60
1, 929823, Note_off_c, 0, 63, 63
1, 929859, Note_on_c, 0, 41, 81
1, 929884, Note_off_c, 0, 57, 61
1, 930041, Note_on_c, 0, 67, 87
1, 930044, Note_on_c, 0, 58, 91
1, 930049, Note_on_c, 0, 48, 78
1, 930055, Note_on_c, 0, 63, 56
1, 930079, Note_off_c, 0, 41, 60
1, 930093, Note_off_c, 0, 63, 58
1, 930157, Note_off_c, 0, 58, 63
1, 930176, Note_on_c, 0, 41, 76
1, 930223, Note_off_c, 0, 48, 57
1, 930257, Control_c, 0, 64, 102
1, 930272, Control_c, 0, 64, 67
1, 930275, Note_on_c, 0, 69, 87
1, 930285, Note_on_c, 0, 57, 92
1, 930285, Note_on_c, 0, 63, 84
1, 930287, Control_c, 0, 64, 57
1, 930297, Note_on_c, 0, 50, 85
1, 930302, Control_c, 0, 64, 58
1, 930318, Control_c, 0, 64, 60
1, 930330, Note_off_c, 0, 67, 55
1, 930333, Control_c, 0, 64, 65
1, 930347, Control_c, 0, 64, 76
1, 930356, Note_off_c, 0, 41, 59
1, 930361, Note_off_c, 0, 69, 63
1, 930362, Control_c, 0, 64, 105
1, 930374, Note_off_c, 0, 57, 63
1, 930378, Control_c, 0, 64, 127
1, 930407, Note_on_c, 0, 41, 70
1, 930416, Note_off_c, 0, 63, 54
1, 930417, Note_off_c, 0, 50, 61
1, 930542, Note_on_c, 0, 70, 89
1, 930542, Note_on_c, 0, 63, 89
1, 930544, Note_on_c, 0, 58, 96
1, 930547, Poly_aftertouch_c, 0, 43, 127
1, 930559, Note_on_c, 0, 51, 94
1, 930589, Poly_aftertouch_c, 0, 45, 127
1, 930598, Note_off_c, 0, 58, 63
1, 930624, Note_off_c, 0, 63, 60
1, 930625, Note_off_c, 0, 70, 64
1, 930630, Poly_aftertouch_c, 0, 48, 127
1, 930631, Note_off_c, 0, 41, 61
1, 930666, Note_on_c, 0, 41, 58
1, 930682, Note_off_c, 0, 51, 64
1, 930785, Note_on_c, 0, 72, 89
1, 930786, Note_on_c, 0, 60, 93
1, 930795, Note_on_c, 0, 54, 97
1, 930843, Note_off_c, 0, 41, 63
1, 930847, Note_off_c, 0, 60, 63
1, 930858, Note_off_c, 0, 72, 59
1, 930876, Note_off_c, 0, 54, 65
1, 930895, Note_on_c, 0, 41, 79
1, 930917, Poly_aftertouch_c, 0, 45, 0
1, 930963, Poly_aftertouch_c, 0, 48, 0
1, 930992, Control_c, 0, 64, 122
1, 931007, Control_c, 0, 64, 67
1, 931014, Note_on_c, 0, 74, 92
1, 931016, Note_on_c, 0, 67, 88
1, 931017, Note_on_c, 0, 62, 96
1, 931022, Note_on_c, 0, 55, 101
1, 931022, Control_c, 0, 64, 36
1, 931023, Note_on_c, 0, 70, 82
1, 931037, Control_c, 0, 64, 27
1, 931052, Control_c, 0, 64, 44
1, 931066, Control_c, 0, 64, 62
1, 931067, Note_off_c, 0, 41, 64
1, 931079, Note_on_c, 0, 48, 10
1, 931081, Control_c, 0, 64, 78
1, 931082, Note_off_c, 0, 74, 64
1, 931096, Control_c, 0, 64, 127
1, 931109, Note_off_c, 0, 62, 65
1, 931123, Note_off_c, 0, 70, 61
1, 931141, Note_off_c, 0, 67, 52
1, 931150, Note_on_c, 0, 41, 86
1, 931157, Poly_aftertouch_c, 0, 43, 0
1, 931168, Note_off_c, 0, 55, 58
1, 931194, Poly_aftertouch_c, 0, 43, 127
1, 931203, Note_off_c, 0, 48, 0
1, 931204, Poly_aftertouch_c, 0, 45, 127
1, 931239, Poly_aftertouch_c, 0, 48, 127
1, 931240, Note_on_c, 0, 48, 3
1, 931256, Note_on_c, 0, 67, 43
1, 931266, Note_off_c, 0, 41, 62
1, 931272, Note_on_c, 0, 63, 102
1, 931272, Note_on_c, 0, 75, 94
1, 931274, Poly_aftertouch_c, 0, 43, 0
1, 931280, Note_on_c, 0, 58, 99
1, 931292, Poly_aftertouch_c, 0, 45, 0
1, 931307, Note_on_c, 0, 66, 27
1, 931308, Note_off_c, 0, 66, 127
1, 931308, Note_off_c, 0, 67, 65
1, 931313, Note_off_c, 0, 63, 74
1, 931320, Note_on_c, 0, 76, 37
1, 931330, Note_off_c, 0, 58, 64
1, 931347, Note_off_c, 0, 75, 61
1, 931347, Note_off_c, 0, 76, 38
1, 931391, Note_on_c, 0, 41, 87
1, 931446, Note_off_c, 0, 48, 41
1, 931454, Note_off_c, 0, 41, 64
1, 931541, Note_on_c, 0, 71, 97
1, 931545, Note_on_c, 0, 67, 99
1, 931546, Note_on_c, 0, 75, 97
1, 931548, Note_on_c, 0, 79, 74
1, 931552, Note_on_c, 0, 77, 85
1, 931555, Note_on_c, 0, 59, 102
1, 931558, Note_on_c, 0, 51, 104
1, 931568, Note_on_c, 0, 70, 52
1, 931573, Note_off_c, 0, 70, 54
1, 931587, Note_off_c, 0, 59, 69
1, 931590, Note_off_c, 0, 67, 67
1, 931592, Note_off_c, 0, 71, 64
1, 931601, Note_off_c, 0, 51, 65
1, 931605, Note_off_c, 0, 77, 58
1, 931609, Note_off_c, 0, 79, 64
1, 931629, Note_off_c, 0, 75, 60
1, 931703, Note_on_c, 0, 41, 81
1, 931729, Note_on_c, 0, 43, 52
1, 931734, Note_off_c, 0, 41, 64
1, 931752, Note_off_c, 0, 43, 61
1, 931830, Control_c, 0, 64, 82
1, 931845, Control_c, 0, 64, 64
1, 931853, Note_on_c, 0, 81, 92
1, 931855, Note_on_c, 0, 75, 103
1, 931856, Note_on_c, 0, 69, 119
1, 931860, Control_c, 0, 64, 62
1, 931864, Note_on_c, 0, 51, 98
1, 931865, Note_on_c, 0, 62, 95
1, 931875, Control_c, 0, 64, 68
1, 931879, Note_on_c, 0, 60, 74
1, 931889, Control_c, 0, 64, 84
1, 931891, Note_off_c, 0, 62, 65
1, 931896, Note_off_c, 0, 60, 41
1, 931904, Control_c, 0, 64, 127
1, 931921, Note_off_c, 0, 51, 63
1, 931985, Note_off_c, 0, 81, 65
1, 931986, Note_off_c, 0, 69, 56
1, 932058, Note_on_c, 0, 41, 101
1, 932069, Note_off_c, 0, 75, 57
1, 932119, Note_off_c, 0, 41, 65
1, 932163, Note_on_c, 0, 79, 26
1, 932205, Note_off_c, 0, 79, 47
1, 932256, Note_on_c, 0, 75, 100
1, 932259, Note_on_c, 0, 82, 100
1, 932260, Note_on_c, 0, 70, 109
1, 932261, Note_on_c, 0, 79, 82
1, 932277, Note_on_c, 0, 60, 92
1, 932278, Note_on_c, 0, 51, 100
1, 932295, Note_off_c, 0, 60, 70
1, 932324, Note_off_c, 0, 51, 64
1, 932408, Note_off_c, 0, 70, 58
1, 932436, Note_off_c, 0, 82, 63
1, 932464, Note_off_c, 0, 79, 52
1, 932488, Note_on_c, 0, 43, 91
1, 932495, Note_on_c, 0, 41, 89
1, 932516, Note_off_c, 0, 41, 71
1, 932518, Note_off_c, 0, 43, 67
1, 932551, Note_off_c, 0, 75, 49
1, 932623, Note_on_c, 0, 54, 61
1, 932643, Poly_aftertouch_c, 0, 81, 127
1, 932650, Note_off_c, 0, 54, 55
1, 932678, Poly_aftertouch_c, 0, 81, 0
1, 932715, Note_on_c, 0, 58, 109
1, 932715, Note_on_c, 0, 78, 110
1, 932717, Note_on_c, 0, 72, 113
1, 932717, Note_on_c, 0, 75, 106
1, 932718, Note_on_c, 0, 84, 98
1, 932721, Note_on_c, 0, 54, 91
1, 932726, Note_on_c, 0, 51, 87
1, 932748, Note_off_c, 0, 58, 68
1, 932754, Note_on_c, 0, 53, 42
1, 932765, Note_off_c, 0, 51, 67
1, 932773, Note_off_c, 0, 54, 63
1, 932789, Note_off_c, 0, 53, 51
1, 932840, Poly_aftertouch_c, 0, 52, 0
1, 933034, Note_on_c, 0, 41, 111
1, 933045, Note_on_c, 0, 40, 75
1, 933068, Note_off_c, 0, 41, 68
1, 933070, Note_off_c, 0, 40, 62
1, 933481, Poly_aftertouch_c, 0, 26, 127
1, 933487, Note_off_c, 0, 72, 52
1, 933505, Control_c, 0, 64, 66
1, 933516, Poly_aftertouch_c, 0, 26, 0
1, 933521, Control_c, 0, 64, 0
1, 933550, Note_on_c, 0, 34, 113
1, 933555, Note_on_c, 0, 22, 85
1, 933561, Note_on_c, 0, 29, 17
1, 933563, Note_off_c, 0, 84, 68
1, 933565, Control_c, 0, 64, 63
1, 933580, Control_c, 0, 64, 127
1, 933582, Note_off_c, 0, 22, 67
1, 933586, Note_off_c, 0, 75, 69
1, 933590, Note_off_c, 0, 78, 70
1, 933597, Note_off_c, 0, 34, 65
1, 933604, Note_off_c, 0, 29, 40
1, 933642, Poly_aftertouch_c, 0, 30, 127
1, 933651, Poly_aftertouch_c, 0, 81, 0
1, 933672, Poly_aftertouch_c, 0, 30, 0
1, 933882, Note_on_c, 0, 41, 73
1, 933892, Note_on_c, 0, 63, 96
1, 933893, Note_on_c, 0, 51, 90
1, 933896, Note_on_c, 0, 65, 88
1, 933913, Note_on_c, 0, 53, 94
1, 933928, Note_off_c, 0, 65, 65
1, 933932, Note_off_c, 0, 41, 64
1, 933933, Note_off_c, 0, 63, 66
1, 933955, Note_off_c, 0, 51, 64
1, 933957, Note_off_c, 0, 53, 67
1, 934126, Note_on_c, 0, 59, 78
1, 934229, Note_on_c, 0, 63, 76
1, 934232, Note_off_c, 0, 59, 63
1, 934235, Poly_aftertouch_c, 0, 61, 127
1, 934274, Poly_aftertouch_c, 0, 61, 0
1, 934307, Note_on_c, 0, 69, 103
1, 934309, Note_on_c, 0, 74, 107
1, 934311, Note_on_c, 0, 86, 103
1, 934313, Note_on_c, 0, 77, 103
1, 934330, Note_on_c, 0, 57, 71
1, 934337, Note_off_c, 0, 69, 71
1, 934354, Note_off_c, 0, 57, 66
1, 934358, Note_on_c, 0, 76, 22
1, 934359, Note_off_c, 0, 76, 127
1, 934364, Note_off_c, 0, 63, 65
1, 934407, Note_off_c, 0, 86, 66
1, 934412, Note_off_c, 0, 77, 66
1, 934423, Poly_aftertouch_c, 0, 64, 0
1, 934441, Note_off_c, 0, 74, 66
1, 934601, Note_on_c, 0, 64, 85
1, 934604, Note_on_c, 0, 40, 71
1, 934604, Note_on_c, 0, 49, 89
1, 934611, Note_on_c, 0, 61, 80
1, 934630, Note_off_c, 0, 40, 65
1, 934635, Note_off_c, 0, 61, 69
1, 934635, Note_off_c, 0, 64, 60
1, 934650, Note_off_c, 0, 49, 65
1, 934768, Note_on_c, 0, 63, 102
1, 934770, Note_on_c, 0, 60, 88
1, 934778, Note_on_c, 0, 75, 86
1, 934789, Note_off_c, 0, 60, 71
1, 934802, Note_on_c, 0, 73, 50
1, 934816, Note_off_c, 0, 63, 62
1, 934825, Note_off_c, 0, 73, 59
1, 934828, Note_off_c, 0, 75, 61
1, 934903, Note_on_c, 0, 69, 29
1, 934948, Note_on_c, 0, 53, 95
1, 934950, Note_on_c, 0, 63, 101
1, 934954, Note_on_c, 0, 65, 107
1, 934955, Note_on_c, 0, 77, 103
1, 934974, Note_off_c, 0, 63, 64
1, 934988, Note_off_c, 0, 53, 66
1, 934989, Note_off_c, 0, 69, 64
1, 935088, Note_off_c, 0, 77, 55
1, 935093, Note_off_c, 0, 65, 47
1, 935249, Control_c, 0, 64, 84
1, 935264, Control_c, 0, 64, 38
1, 935275, Note_on_c, 0, 34, 95
1, 935278, Note_on_c, 0, 77, 99
1, 935278, Control_c, 0, 64, 0
1, 935279, Note_on_c, 0, 70, 102
1, 935281, Note_on_c, 0, 65, 106
1, 935302, Note_on_c, 0, 74, 63
1, 935308, Control_c, 0, 64, 54
1, 935317, Note_off_c, 0, 34, 64
1, 935319, Note_off_c, 0, 74, 64
1, 935323, Control_c, 0, 64, 81
1, 935324, Note_off_c, 0, 77, 66
1, 935338, Control_c, 0, 64, 127
1, 935344, Note_off_c, 0, 65, 61
1, 935347, Note_off_c, 0, 70, 65
1, 935522, Note_on_c, 0, 62, 76
1, 935523, Note_on_c, 0, 53, 81
1, 935526, Note_on_c, 0, 70, 79
1, 935546, Note_off_c, 0, 62, 68
1, 935547, Note_on_c, 0, 47, 39
1, 935550, Note_off_c, 0, 53, 68
1, 935564, Note_off_c, 0, 70, 58
1, 935582, Note_off_c, 0, 47, 47
1, 935749, Note_on_c, 0, 62, 75
1, 935761, Note_on_c, 0, 58, 75
1, 935767, Note_on_c, 0, 70, 103
1, 935770, Note_on_c, 0, 82, 84
1, 935791, Note_off_c, 0, 82, 70
1, 935796, Note_off_c, 0, 70, 69
1, 935818, Note_off_c, 0, 58, 64
1, 935868, Note_off_c, 0, 62, 57
1, 935975, Note_on_c, 0, 70, 89
1, 935976, Note_on_c, 0, 53, 77
1, 935985, Note_on_c, 0, 63, 69
1, 935987, Poly_aftertouch_c, 0, 56, 0
1, 936008, Note_on_c, 0, 60, 35
1, 936037, Note_off_c, 0, 63, 53
1, 936040, Note_off_c, 0, 60, 50
1, 936080, Note_off_c, 0, 70, 61
1, 936137, Note_on_c, 0, 62, 89
1, 936139, Note_on_c, 0, 74, 98
1, 936140, Note_on_c, 0, 58, 82
1, 936148, Note_on_c, 0, 65, 76
1, 936148, Note_off_c, 0, 53, 63
1, 936246, Note_off_c, 0, 65, 57
1, 936301, Note_on_c, 0, 53, 92
1, 936311, Note_on_c, 0, 65, 91
1, 936312, Note_on_c, 0, 70, 91
1, 936325, Note_off_c, 0, 58, 63
1, 936336, Note_off_c, 0, 53, 66
1, 936339, Note_off_c, 0, 74, 64
1, 936343, Note_off_c, 0, 62, 67
1, 936346, Note_on_c, 0, 71, 51
1, 936358, Note_off_c, 0, 65, 64
1, 936366, Note_off_c, 0, 70, 70
1, 936369, Note_off_c, 0, 71, 58
1, 936622, Note_on_c, 0, 34, 85
1, 936635, Control_c, 0, 64, 69
1, 936650, Control_c, 0, 64, 41
1, 936658, Note_on_c, 0, 69, 102
1, 936659, Note_on_c, 0, 72, 97
1, 936660, Note_on_c, 0, 81, 91
1, 936661, Note_on_c, 0, 75, 98
1, 936665, Control_c, 0, 64, 51
1, 936679, Control_c, 0, 64, 64
1, 936694, Control_c, 0, 64, 88
1, 936717, Control_c, 0, 64, 127
1, 936722, Note_off_c, 0, 34, 62
1, 936793, Note_off_c, 0, 69, 62
1, 936894, Note_off_c, 0, 81, 63
1, 936940, Note_on_c, 0, 51, 52
1, 936960, Note_on_c, 0, 60, 64
1, 936973, Note_off_c, 0, 72, 61
1, 936985, Note_off_c, 0, 75, 61
1, 937044, Note_on_c, 0, 66, 100
1, 937080, Note_on_c, 0, 54, 40
1, 937083, Note_off_c, 0, 60, 65
1, 937088, Note_off_c, 0, 51, 64
1, 937112, Note_off_c, 0, 54, 54
1, 937112, Note_off_c, 0, 66, 63
1, 937204, Poly_aftertouch_c, 0, 64, 127
1, 937217, Note_on_c, 0, 63, 97
1, 937226, Note_on_c, 0, 68, 83
1, 937266, Note_off_c, 0, 63, 66
1, 937275, Poly_aftertouch_c, 0, 64, 0
1, 937280, Note_off_c, 0, 68, 64
1, 937315, Note_on_c, 0, 54, 75
1, 937334, Note_on_c, 0, 60, 75
1, 937347, Note_on_c, 0, 63, 87
1, 937401, Note_off_c, 0, 54, 65
1, 937407, Note_off_c, 0, 60, 63
1, 937409, Note_on_c, 0, 69, 97
1, 937422, Note_off_c, 0, 63, 67
1, 937526, Note_off_c, 0, 69, 58
1, 937553, Note_on_c, 0, 68, 99
1, 937556, Note_on_c, 0, 78, 102
1, 937612, Note_on_c, 0, 56, 74
1, 937674, Note_on_c, 0, 63, 55
1, 937700, Note_off_c, 0, 56, 63
1, 937708, Note_on_c, 0, 67, 65
1, 937721, Note_on_c, 0, 71, 39
1, 937725, Note_on_c, 0, 72, 95
1, 937741, Note_off_c, 0, 72, 76
1, 937749, Note_off_c, 0, 63, 56
1, 937752, Note_off_c, 0, 68, 65
1, 937755, Note_on_c, 0, 64, 57
1, 937765, Note_off_c, 0, 67, 64
1, 937765, Poly_aftertouch_c, 0, 74, 127
1, 937779, Note_off_c, 0, 64, 63
1, 937890, Note_off_c, 0, 78, 59
1, 937934, Note_on_c, 0, 78, 82
1, 937936, Note_on_c, 0, 66, 82
1, 937941, Note_on_c, 0, 68, 95
1, 937950, Note_on_c, 0, 34, 91
1, 937954, Control_c, 0, 64, 104
1, 937969, Control_c, 0, 64, 58
1, 937984, Control_c, 0, 64, 0
1, 937994, Note_off_c, 0, 34, 62
1, 937999, Control_c, 0, 64, 34
1, 938013, Control_c, 0, 64, 59
1, 938028, Control_c, 0, 64, 76
1, 938043, Control_c, 0, 64, 127
1, 938057, Note_off_c, 0, 71, 57
1, 938060, Poly_aftertouch_c, 0, 74, 0
1, 938066, Note_off_c, 0, 78, 65
1, 938117, Note_off_c, 0, 68, 60
1, 938125, Note_off_c, 0, 66, 65
1, 938140, Note_on_c, 0, 53, 69
1, 938194, Note_on_c, 0, 56, 74
1, 938264, Note_on_c, 0, 63, 87
1, 938367, Note_on_c, 0, 62, 85
1, 938367, Note_on_c, 0, 64, 85
1, 938383, Note_off_c, 0, 53, 64
1, 938384, Note_off_c, 0, 56, 66
1, 938474, Note_off_c, 0, 62, 65
1, 938490, Note_off_c, 0, 63, 52
1, 938505, Note_off_c, 0, 64, 65
1, 938537, Note_on_c, 0, 56, 76
1, 938560, Note_on_c, 0, 58, 79
1, 938604, Note_on_c, 0, 59, 76
1, 938606, Note_off_c, 0, 58, 64
1, 938644, Control_c, 0, 64, 85
1, 938655, Note_on_c, 0, 65, 89
1, 938659, Control_c, 0, 64, 68
1, 938674, Control_c, 0, 64, 64
1, 938688, Control_c, 0, 64, 67
1, 938703, Control_c, 0, 64, 73
1, 938718, Control_c, 0, 64, 95
1, 938733, Control_c, 0, 64, 127
1, 938824, Note_off_c, 0, 65, 59
1, 938867, Note_on_c, 0, 74, 93
1, 938869, Note_on_c, 0, 67, 73
1, 938876, Note_on_c, 0, 65, 75
1, 938945, Note_off_c, 0, 56, 60
1, 939015, Note_off_c, 0, 59, 62
1, 939016, Note_off_c, 0, 65, 61
1, 939200, Control_c, 0, 64, 96
1, 939210, Note_on_c, 0, 59, 77
1, 939210, Note_on_c, 0, 68, 80
1, 939214, Note_on_c, 0, 62, 61
1, 939215, Control_c, 0, 64, 68
1, 939230, Control_c, 0, 64, 59
1, 939245, Control_c, 0, 64, 61
1, 939259, Control_c, 0, 64, 66
1, 939274, Control_c, 0, 64, 78
1, 939289, Control_c, 0, 64, 127
1, 939301, Note_off_c, 0, 68, 63
1, 939321, Note_off_c, 0, 62, 64
1, 939337, Note_off_c, 0, 59, 63
1, 939714, Note_on_c, 0, 39, 82
1, 939755, Control_c, 0, 64, 82
1, 939770, Control_c, 0, 64, 56
1, 939784, Control_c, 0, 64, 0
1, 939829, Control_c, 0, 64, 19
1, 939843, Control_c, 0, 64, 61
1, 939858, Control_c, 0, 64, 72
1, 939865, Note_off_c, 0, 39, 61
1, 939873, Control_c, 0, 64, 100
1, 939881, Note_off_c, 0, 67, 53
1, 939888, Control_c, 0, 64, 127
1, 940078, Note_on_c, 0, 70, 78
1, 940081, Note_on_c, 0, 62, 61
1, 940090, Note_on_c, 0, 55, 64
1, 940102, Note_on_c, 0, 67, 58
1, 940107, Note_off_c, 0, 74, 62
1, 940111, Note_on_c, 0, 46, 46
1, 940176, Note_off_c, 0, 62, 58
1, 940249, Poly_aftertouch_c, 0, 49, 127
1, 940315, Note_off_c, 0, 46, 33
1, 940325, Note_on_c, 0, 61, 64
1, 940398, Note_on_c, 0, 77, 95
1, 940529, Note_on_c, 0, 76, 11
1, 940529, Note_off_c, 0, 67, 51
1, 940538, Note_off_c, 0, 77, 59
1, 940570, Note_off_c, 0, 61, 37
1, 940570, Note_on_c, 0, 46, 58
1, 940573, Note_off_c, 0, 76, 36
1, 940606, Note_on_c, 0, 62, 72
1, 940625, Note_on_c, 0, 67, 71
1, 940647, Note_off_c, 0, 70, 59
1, 940662, Note_off_c, 0, 46, 64
1, 940663, Note_off_c, 0, 55, 55
1, 940665, Note_off_c, 0, 62, 62
1, 940713, Note_on_c, 0, 62, 57
1, 940734, Note_on_c, 0, 55, 59
1, 940769, Note_on_c, 0, 75, 91
1, 940772, Note_on_c, 0, 70, 82
1, 940774, Note_off_c, 0, 62, 61
1, 940785, Poly_aftertouch_c, 0, 49, 0
1, 940786, Note_on_c, 0, 63, 92
1, 940841, Note_off_c, 0, 67, 57
1, 940843, Note_on_c, 0, 73, 31
1, 940877, Note_off_c, 0, 73, 43
1, 940882, Note_on_c, 0, 44, 75
1, 940890, Note_off_c, 0, 63, 64
1, 940905, Note_off_c, 0, 75, 65
1, 940916, Note_on_c, 0, 67, 66
1, 940918, Note_off_c, 0, 55, 62
1, 940975, Note_off_c, 0, 70, 60
1, 940996, Note_off_c, 0, 44, 58
1, 941023, Control_c, 0, 64, 82
1, 941038, Control_c, 0, 64, 68
1, 941047, Note_on_c, 0, 58, 86
1, 941049, Note_on_c, 0, 74, 96
1, 941050, Note_on_c, 0, 50, 72
1, 941053, Control_c, 0, 64, 66
1, 941054, Note_on_c, 0, 62, 94
1, 941054, Note_on_c, 0, 70, 89
1, 941056, Poly_aftertouch_c, 0, 47, 0
1, 941067, Control_c, 0, 64, 69
1, 941074, Note_off_c, 0, 67, 60
1, 941082, Control_c, 0, 64, 76
1, 941097, Control_c, 0, 64, 101
1, 941112, Control_c, 0, 64, 127
1, 941122, Note_off_c, 0, 58, 62
1, 941166, Note_off_c, 0, 74, 55
1, 941181, Note_off_c, 0, 62, 59
1, 941188, Note_on_c, 0, 42, 78
1, 941208, Note_on_c, 0, 64, 63
1, 941210, Note_off_c, 0, 50, 61
1, 941215, Note_on_c, 0, 52, 68
1, 941221, Note_off_c, 0, 70, 63
1, 941237, Note_off_c, 0, 64, 67
1, 941273, Note_off_c, 0, 42, 62
1, 941404, Note_on_c, 0, 58, 94
1, 941407, Note_on_c, 0, 48, 85
1, 941430, Note_on_c, 0, 72, 100
1, 941430, Control_c, 0, 64, 78
1, 941434, Note_on_c, 0, 60, 98
1, 941440, Note_on_c, 0, 70, 85
1, 941445, Control_c, 0, 64, 58
1, 941446, Note_off_c, 0, 52, 65
1, 941460, Control_c, 0, 64, 39
1, 941474, Control_c, 0, 64, 48
1, 941489, Control_c, 0, 64, 60
1, 941505, Control_c, 0, 64, 73
1, 941520, Control_c, 0, 64, 102
1, 941525, Note_off_c, 0, 58, 64
1, 941535, Control_c, 0, 64, 127
1, 941603, Note_on_c, 0, 51, 88
1, 941607, Note_off_c, 0, 48, 62
1, 941610, Note_on_c, 0, 42, 76
1, 941610, Note_on_c, 0, 63, 76
1, 941628, Note_off_c, 0, 72, 60
1, 941646, Note_off_c, 0, 60, 59
1, 941659, Note_off_c, 0, 70, 58
1, 941688, Note_off_c, 0, 42, 63
1, 941756, Note_off_c, 0, 63, 62
1, 941798, Note_on_c, 0, 50, 81
1, 941800, Note_on_c, 0, 57, 89
1, 941802, Control_c, 0, 64, 92
1, 941817, Control_c, 0, 64, 83
1, 941819, Note_on_c, 0, 74, 97
1, 941824, Note_on_c, 0, 62, 105
1, 941828, Note_off_c, 0, 51, 63
1, 941831, Note_on_c, 0, 69, 78
1, 941832, Control_c, 0, 64, 97
1, 941846, Control_c, 0, 64, 127
1, 941854, Note_off_c, 0, 50, 67
1, 941920, Poly_aftertouch_c, 0, 71, 127
1, 941989, Note_off_c, 0, 57, 59
1, 942002, Note_on_c, 0, 51, 85
1, 942013, Note_on_c, 0, 63, 87
1, 942023, Note_on_c, 0, 41, 71
1, 942024, Note_off_c, 0, 69, 64
1, 942034, Note_off_c, 0, 74, 66
1, 942043, Poly_aftertouch_c, 0, 71, 0
1, 942044, Note_off_c, 0, 51, 66
1, 942049, Note_off_c, 0, 62, 67
1, 942058, Note_off_c, 0, 41, 65
1, 942059, Note_off_c, 0, 63, 65
1, 942283, Note_on_c, 0, 34, 89
1, 942283, Note_on_c, 0, 41, 94
1, 942299, Control_c, 0, 64, 70
1, 942314, Control_c, 0, 64, 0
1, 942315, Note_on_c, 0, 53, 101
1, 942318, Note_on_c, 0, 57, 89
1, 942318, Note_on_c, 0, 65, 89
1, 942321, Note_on_c, 0, 63, 93
1, 942343, Control_c, 0, 64, 47
1, 942358, Control_c, 0, 64, 71
1, 942372, Note_off_c, 0, 41, 65
1, 942372, Note_off_c, 0, 53, 66
1, 942373, Control_c, 0, 64, 127
1, 942375, Note_off_c, 0, 34, 62
1, 942388, Note_off_c, 0, 65, 60
1, 942396, Note_off_c, 0, 57, 67
1, 942418, Note_off_c, 0, 63, 64
1, 942515, Note_on_c, 0, 51, 75
1, 942567, Note_on_c, 0, 74, 87
1, 942570, Note_on_c, 0, 67, 66
1, 942573, Note_off_c, 0, 51, 65
1, 942591, Note_on_c, 0, 57, 78
1, 942597, Note_off_c, 0, 67, 66
1, 942611, Note_off_c, 0, 74, 66
1, 942619, Note_off_c, 0, 57, 68
1, 942752, Note_on_c, 0, 57, 74
1, 942807, Note_on_c, 0, 63, 82
1, 942883, Note_on_c, 0, 69, 103
1, 942884, Note_on_c, 0, 86, 93
1, 942886, Note_on_c, 0, 77, 104
1, 942888, Note_on_c, 0, 74, 103
1, 942919, Note_off_c, 0, 69, 69
1, 942924, Note_off_c, 0, 74, 70
1, 942929, Note_off_c, 0, 86, 69
1, 942937, Note_off_c, 0, 77, 71
1, 942938, Note_off_c, 0, 57, 65
1, 942941, Note_off_c, 0, 63, 64
1, 942993, Poly_aftertouch_c, 0, 60, 0
1, 943179, Note_on_c, 0, 41, 64
1, 943200, Note_on_c, 0, 50, 64
1, 943209, Note_off_c, 0, 41, 65
1, 943211, Note_on_c, 0, 51, 10
1, 943212, Note_off_c, 0, 51, 127
1, 943217, Note_on_c, 0, 65, 86
1, 943229, Note_on_c, 0, 67, 71
1, 943232, Note_off_c, 0, 50, 65
1, 943237, Note_on_c, 0, 79, 53
1, 943240, Note_on_c, 0, 76, 53
1, 943243, Note_on_c, 0, 77, 57
1, 943278, Note_off_c, 0, 79, 46
1, 943309, Note_off_c, 0, 67, 0
1, 943315, Note_off_c, 0, 65, 61
1, 943318, Note_off_c, 0, 77, 59
1, 943324, Note_off_c, 0, 76, 62
1, 943350, Poly_aftertouch_c, 0, 75, 0
1, 943357, Poly_aftertouch_c, 0, 67, 0
1, 943392, Note_on_c, 0, 55, 74
1, 943399, Note_on_c, 0, 60, 64
1, 943401, Note_on_c, 0, 64, 94
1, 943401, Note_on_c, 0, 59, 70
1, 943416, Note_on_c, 0, 76, 80
1, 943419, Note_on_c, 0, 77, 77
1, 943426, Note_off_c, 0, 59, 67
1, 943428, Note_on_c, 0, 69, 37
1, 943428, Note_off_c, 0, 60, 66
1, 943455, Note_off_c, 0, 64, 66
1, 943455, Note_off_c, 0, 77, 60
1, 943457, Note_on_c, 0, 68, 47
1, 943457, Note_off_c, 0, 55, 63
1, 943469, Note_off_c, 0, 76, 60
1, 943474, Note_off_c, 0, 69, 44
1, 943485, Note_off_c, 0, 68, 54
1, 943567, Note_on_c, 0, 55, 75
1, 943575, Note_on_c, 0, 52, 87
1, 943577, Note_on_c, 0, 69, 68
1, 943577, Note_on_c, 0, 63, 105
1, 943586, Note_on_c, 0, 77, 89
1, 943592, Note_off_c, 0, 55, 68
1, 943600, Note_off_c, 0, 52, 71
1, 943602, Note_on_c, 0, 68, 48
1, 943603, Note_off_c, 0, 68, 127
1, 943613, Note_on_c, 0, 76, 57
1, 943622, Note_off_c, 0, 69, 62
1, 943627, Note_off_c, 0, 63, 66
1, 943630, Note_off_c, 0, 76, 65
1, 943654, Note_off_c, 0, 77, 59
1, 943730, Poly_aftertouch_c, 0, 74, 127
1, 943761, Poly_aftertouch_c, 0, 74, 0
1, 943781, Control_c, 0, 64, 74
1, 943792, Note_on_c, 0, 34, 92
1, 943794, Note_on_c, 0, 62, 95
1, 943795, Note_on_c, 0, 70, 56
1, 943796, Control_c, 0, 64, 25
1, 943800, Note_on_c, 0, 77, 92
1, 943811, Control_c, 0, 64, 0
1, 943819, Note_on_c, 0, 76, 67
1, 943825, Control_c, 0, 64, 36
1, 943831, Note_off_c, 0, 34, 66
1, 943840, Control_c, 0, 64, 67
1, 943843, Note_off_c, 0, 76, 51
1, 943854, Note_on_c, 0, 74, 29
1, 943855, Control_c, 0, 64, 127
1, 943856, Note_off_c, 0, 70, 63
1, 943887, Note_off_c, 0, 74, 34
1, 943989, Note_off_c, 0, 62, 66
1, 943991, Note_on_c, 0, 74, 67
1, 943994, Note_on_c, 0, 53, 80
1, 943995, Note_on_c, 0, 70, 86
1, 943998, Note_on_c, 0, 46, 61
1, 944019, Note_off_c, 0, 74, 66
1, 944022, Note_off_c, 0, 53, 67
1, 944027, Note_off_c, 0, 46, 62
1, 944027, Note_off_c, 0, 77, 63
1, 944044, Note_off_c, 0, 70, 66
1, 944180, Note_on_c, 0, 62, 75
1, 944185, Note_on_c, 0, 58, 75
1, 944190, Note_on_c, 0, 70, 100
1, 944211, Note_on_c, 0, 80, 69
1, 944216, Note_off_c, 0, 62, 66
1, 944219, Note_off_c, 0, 58, 69
1, 944228, Note_off_c, 0, 70, 66
1, 944228, Note_off_c, 0, 80, 41
1, 944285, Poly_aftertouch_c, 0, 60, 0
1, 944404, Note_on_c, 0, 41, 84
1, 944423, Note_on_c, 0, 64, 101
1, 944426, Note_on_c, 0, 48, 50
1, 944427, Note_on_c, 0, 58, 93
1, 944447, Note_off_c, 0, 41, 65
1, 944454, Note_off_c, 0, 48, 54
1, 944475, Note_on_c, 0, 55, 39
1, 944493, Note_on_c, 0, 57, 20
1, 944511, Note_off_c, 0, 55, 52
1, 944523, Note_off_c, 0, 58, 54
1, 944540, Note_off_c, 0, 57, 54
1, 944582, Note_on_c, 0, 58, 32
1, 944602, Note_off_c, 0, 58, 63
1, 944628, Note_on_c, 0, 62, 32
1, 944672, Note_on_c, 0, 63, 105
1, 944679, Note_on_c, 0, 54, 79
1, 944699, Note_on_c, 0, 53, 69
1, 944707, Note_off_c, 0, 63, 63
1, 944719, Note_off_c, 0, 54, 62
1, 944728, Note_off_c, 0, 53, 62
1, 944773, Note_off_c, 0, 62, 23
1, 944954, Note_on_c, 0, 62, 91
1, 944956, Note_on_c, 0, 58, 104
1, 944961, Note_on_c, 0, 34, 103
1, 944975, Note_off_c, 0, 64, 66
1, 945002, Note_off_c, 0, 58, 67
1, 945004, Note_off_c, 0, 62, 67
1, 945022, Note_off_c, 0, 34, 61
1, 945443, Control_c, 0, 64, 67
1, 945454, Note_on_c, 0, 26, 83
1, 945455, Note_on_c, 0, 74, 94
1, 945456, Note_on_c, 0, 38, 85
1, 945458, Control_c, 0, 64, 0
1, 945458, Note_on_c, 0, 69, 101
1, 945458, Note_on_c, 0, 77, 97
1, 945458, Note_on_c, 0, 81, 91
1, 945487, Control_c, 0, 64, 44
1, 945503, Control_c, 0, 64, 69
1, 945507, Note_on_c, 0, 79, 49
1, 945517, Note_off_c, 0, 26, 63
1, 945518, Control_c, 0, 64, 127
1, 945541, Note_off_c, 0, 38, 65
1, 945640, Note_off_c, 0, 81, 60
1, 945740, Note_off_c, 0, 69, 63
1, 945748, Note_off_c, 0, 74, 59
1, 945846, Note_on_c, 0, 45, 79
1, 945853, Note_on_c, 0, 53, 84
1, 945893, Note_off_c, 0, 79, 0
1, 945894, Note_on_c, 0, 82, 90
1, 945898, Note_off_c, 0, 45, 65
1, 945902, Note_on_c, 0, 73, 94
1, 945905, Note_on_c, 0, 70, 99
1, 945917, Note_off_c, 0, 53, 64
1, 945926, Note_off_c, 0, 77, 56
1, 945930, Poly_aftertouch_c, 0, 79, 127
1, 946019, Note_off_c, 0, 73, 61
1, 946056, Note_off_c, 0, 82, 62
1, 946093, Note_off_c, 0, 70, 60
1, 946096, Poly_aftertouch_c, 0, 79, 0
1, 946102, Note_on_c, 0, 76, 34
1, 946129, Note_on_c, 0, 56, 88
1, 946130, Note_on_c, 0, 60, 79
1, 946137, Note_on_c, 0, 64, 88
1, 946143, Note_on_c, 0, 72, 98
1, 946145, Note_on_c, 0, 68, 101
1, 946145, Note_on_c, 0, 80, 93
1, 946147, Control_c, 0, 64, 108
1, 946162, Control_c, 0, 64, 109
1, 946174, Note_on_c, 0, 62, 36
1, 946175, Note_off_c, 0, 62, 127
1, 946177, Control_c, 0, 64, 127
1, 946272, Note_off_c, 0, 72, 57
1, 946273, Note_off_c, 0, 56, 61
1, 946312, Note_off_c, 0, 64, 64
1, 946329, Note_on_c, 0, 59, 73
1, 946344, Note_off_c, 0, 60, 65
1, 946351, Note_off_c, 0, 59, 64
1, 946362, Note_off_c, 0, 80, 64
1, 946366, Note_off_c, 0, 68, 59
1, 946368, Note_on_c, 0, 71, 88
1, 946382, Poly_aftertouch_c, 0, 78, 127
1, 946537, Note_on_c, 0, 45, 94
1, 946543, Note_on_c, 0, 38, 86
1, 946555, Control_c, 0, 64, 85
1, 946570, Control_c, 0, 64, 0
1, 946592, Note_off_c, 0, 71, 60
1, 946594, Poly_aftertouch_c, 0, 75, 127
1, 946598, Note_on_c, 0, 69, 49
1, 946624, Note_off_c, 0, 69, 58
1, 946630, Control_c, 0, 64, 59
1, 946644, Control_c, 0, 64, 84
1, 946659, Control_c, 0, 64, 127
1, 946685, Note_off_c, 0, 38, 60
1, 946691, Poly_aftertouch_c, 0, 78, 0
1, 946696, Note_on_c, 0, 81, 93
1, 946698, Note_on_c, 0, 53, 82
1, 946698, Note_on_c, 0, 69, 93
1, 946698, Note_on_c, 0, 72, 93
1, 946704, Note_off_c, 0, 45, 63
1, 946722, Note_off_c, 0, 76, 50
1, 946725, Note_off_c, 0, 53, 67
1, 946737, Poly_aftertouch_c, 0, 75, 0
1, 946780, Note_off_c, 0, 81, 58
1, 946795, Note_off_c, 0, 72, 57
1, 946832, Note_off_c, 0, 69, 60
1, 946936, Note_on_c, 0, 59, 57
1, 946951, Note_on_c, 0, 55, 76
1, 946954, Note_on_c, 0, 63, 87
1, 946979, Note_on_c, 0, 79, 93
1, 946980, Note_on_c, 0, 71, 92
1, 946985, Control_c, 0, 64, 82
1, 946985, Note_on_c, 0, 67, 94
1, 946986, Note_on_c, 0, 75, 92
1, 946999, Control_c, 0, 64, 51
1, 947014, Control_c, 0, 64, 0
1, 947044, Control_c, 0, 64, 41
1, 947056, Note_off_c, 0, 59, 64
1, 947059, Control_c, 0, 64, 63
1, 947074, Control_c, 0, 64, 74
1, 947089, Control_c, 0, 64, 108
1, 947100, Note_off_c, 0, 71, 62
1, 947104, Control_c, 0, 64, 127
1, 947153, Poly_aftertouch_c, 0, 77, 127
1, 947167, Note_off_c, 0, 63, 64
1, 947183, Note_on_c, 0, 58, 81
1, 947198, Note_off_c, 0, 55, 61
1, 947214, Note_off_c, 0, 58, 67
1, 947249, Note_on_c, 0, 70, 72
1, 947310, Note_off_c, 0, 79, 50
1, 947393, Control_c, 0, 64, 83
1, 947396, Note_on_c, 0, 45, 80
1, 947402, Note_on_c, 0, 38, 77
1, 947403, Note_off_c, 0, 70, 64
1, 947408, Control_c, 0, 64, 61
1, 947423, Control_c, 0, 64, 46
1, 947438, Control_c, 0, 64, 50
1, 947453, Control_c, 0, 64, 56
1, 947458, Note_off_c, 0, 67, 62
1, 947467, Control_c, 0, 64, 64
1, 947482, Control_c, 0, 64, 73
1, 947497, Control_c, 0, 64, 90
1, 947512, Control_c, 0, 64, 127
1, 947528, Note_off_c, 0, 38, 61
1, 947549, Note_on_c, 0, 53, 89
1, 947552, Note_on_c, 0, 72, 79
1, 947553, Note_on_c, 0, 81, 91
1, 947553, Note_off_c, 0, 45, 63
1, 947559, Note_on_c, 0, 69, 98
1, 947579, Note_off_c, 0, 75, 62
1, 947594, Note_off_c, 0, 53, 63
1, 947610, Note_off_c, 0, 72, 64
1, 947637, Note_off_c, 0, 81, 65
1, 947646, Poly_aftertouch_c, 0, 77, 0
1, 947671, Note_off_c, 0, 69, 62
1, 947805, Note_on_c, 0, 53, 58
1, 947807, Note_on_c, 0, 61, 65
1, 947816, Note_on_c, 0, 58, 64
1, 947846, Note_on_c, 0, 77, 93
1, 947852, Control_c, 0, 64, 88
1, 947861, Note_on_c, 0, 65, 81
1, 947866, Control_c, 0, 64, 64
1, 947881, Control_c, 0, 64, 43
1, 947882, Note_on_c, 0, 70, 66
1, 947897, Control_c, 0, 64, 41
1, 947912, Control_c, 0, 64, 55
1, 947926, Note_off_c, 0, 58, 60
1, 947926, Control_c, 0, 64, 66
1, 947948, Control_c, 0, 64, 87
1, 947963, Control_c, 0, 64, 127
1, 948019, Poly_aftertouch_c, 0, 73, 0
1, 948030, Note_off_c, 0, 70, 61
1, 948067, Note_on_c, 0, 62, 64
1, 948091, Note_on_c, 0, 57, 65
1, 948092, Note_off_c, 0, 61, 61
1, 948099, Note_off_c, 0, 62, 67
1, 948120, Note_off_c, 0, 53, 63
1, 948122, Note_off_c, 0, 57, 66
1, 948136, Note_on_c, 0, 69, 65
1, 948137, Note_off_c, 0, 65, 65
1, 948164, Note_on_c, 0, 74, 66
1, 948319, Note_off_c, 0, 77, 62
1, 948421, Control_c, 0, 64, 100
1, 948436, Control_c, 0, 64, 67
1, 948443, Note_on_c, 0, 29, 79
1, 948451, Control_c, 0, 64, 42
1, 948466, Control_c, 0, 64, 36
1, 948468, Note_off_c, 0, 74, 58
1, 948481, Note_off_c, 0, 69, 65
1, 948481, Control_c, 0, 64, 48
1, 948496, Control_c, 0, 64, 63
1, 948511, Control_c, 0, 64, 75
1, 948526, Control_c, 0, 64, 110
1, 948540, Control_c, 0, 64, 127
1, 948557, Note_off_c, 0, 29, 61
1, 948782, Note_on_c, 0, 65, 68
1, 948785, Note_on_c, 0, 69, 57
1, 948789, Note_on_c, 0, 48, 64
1, 948789, Note_on_c, 0, 51, 71
1, 948792, Note_on_c, 0, 60, 52
1, 948876, Note_off_c, 0, 60, 34
1, 948953, Note_on_c, 0, 45, 20
1, 949027, Note_on_c, 0, 57, 76
1, 949058, Note_off_c, 0, 69, 47
1, 949081, Note_on_c, 0, 72, 95
1, 949085, Note_off_c, 0, 51, 62
1, 949184, Note_off_c, 0, 65, 50
1, 949216, Note_off_c, 0, 57, 62
1, 949217, Note_on_c, 0, 51, 72
1, 949220, Note_on_c, 0, 41, 61
1, 949223, Note_on_c, 0, 60, 48
1, 949227, Note_off_c, 0, 48, 61
1, 949233, Note_on_c, 0, 65, 49
1, 949237, Note_off_c, 0, 45, 41
1, 949242, Note_off_c, 0, 41, 61
1, 949244, Note_on_c, 0, 69, 65
1, 949256, Note_off_c, 0, 60, 65
1, 949272, Note_off_c, 0, 72, 59
1, 949283, Note_off_c, 0, 51, 63
1, 949295, Note_off_c, 0, 65, 62
1, 949299, Note_off_c, 0, 69, 63
1, 949387, Note_on_c, 0, 77, 99
1, 949390, Note_on_c, 0, 63, 80
1, 949457, Note_off_c, 0, 63, 64
1, 949502, Note_on_c, 0, 57, 61
1, 949527, Note_on_c, 0, 72, 60
1, 949531, Note_off_c, 0, 57, 66
1, 949532, Note_on_c, 0, 48, 58
1, 949541, Note_on_c, 0, 65, 75
1, 949542, Note_on_c, 0, 69, 68
1, 949555, Note_off_c, 0, 48, 61
1, 949555, Note_off_c, 0, 77, 59
1, 949566, Note_off_c, 0, 72, 66
1, 949576, Note_off_c, 0, 69, 64
1, 949771, Note_on_c, 0, 29, 83
1, 949772, Control_c, 0, 64, 100
1, 949787, Control_c, 0, 64, 68
1, 949801, Control_c, 0, 64, 54
1, 949816, Control_c, 0, 64, 57
1, 949826, Note_on_c, 0, 73, 22
1, 949831, Control_c, 0, 64, 64
1, 949832, Note_on_c, 0, 79, 95
1, 949846, Control_c, 0, 64, 75
1, 949860, Control_c, 0, 64, 127
1, 949863, Note_off_c, 0, 73, 65
1, 949873, Note_off_c, 0, 29, 61
1, 949883, Note_off_c, 0, 65, 63
1, 949892, Note_off_c, 0, 79, 68
1, 950092, Note_on_c, 0, 68, 63
1, 950097, Note_on_c, 0, 60, 62
1, 950101, Note_on_c, 0, 51, 67
1, 950108, Note_on_c, 0, 63, 47
1, 950112, Note_on_c, 0, 48, 20
1, 950216, Note_off_c, 0, 51, 62
1, 950218, Note_off_c, 0, 68, 59
1, 950225, Note_off_c, 0, 60, 33
1, 950237, Note_on_c, 0, 56, 72
1, 950259, Note_on_c, 0, 72, 82
1, 950307, Note_off_c, 0, 48, 36
1, 950308, Note_off_c, 0, 56, 64
1, 950308, Note_off_c, 0, 63, 52
1, 950317, Note_on_c, 0, 45, 10
1, 950369, Note_on_c, 0, 60, 42
1, 950373, Note_on_c, 0, 51, 78
1, 950374, Note_on_c, 0, 48, 31
1, 950377, Note_on_c, 0, 41, 40
1, 950378, Note_off_c, 0, 45, 60
1, 950379, Note_on_c, 0, 68, 73
1, 950389, Note_on_c, 0, 63, 65
1, 950389, Note_off_c, 0, 72, 61
1, 950392, Note_off_c, 0, 60, 62
1, 950406, Note_off_c, 0, 48, 54
1, 950410, Note_off_c, 0, 41, 53
1, 950416, Note_off_c, 0, 63, 68
1, 950434, Note_off_c, 0, 51, 64
1, 950441, Note_off_c, 0, 68, 62
1, 950535, Note_on_c, 0, 77, 97
1, 950538, Note_on_c, 0, 63, 83
1, 950569, Note_on_c, 0, 54, 65
1, 950574, Note_off_c, 0, 63, 62
1, 950582, Note_on_c, 0, 65, 31
1, 950608, Note_off_c, 0, 54, 66
1, 950617, Note_off_c, 0, 65, 50
1, 950676, Note_on_c, 0, 68, 77
1, 950684, Note_on_c, 0, 65, 68
1, 950693, Poly_aftertouch_c, 0, 56, 0
1, 950695, Note_on_c, 0, 72, 52
1, 950784, Poly_aftertouch_c, 0, 74, 127
1, 950787, Control_c, 0, 64, 73
1, 950802, Control_c, 0, 64, 50
1, 950816, Note_on_c, 0, 29, 84
1, 950816, Control_c, 0, 64, 30
1, 950831, Control_c, 0, 64, 38
1, 950846, Control_c, 0, 64, 55
1, 950861, Control_c, 0, 64, 66
1, 950869, Note_off_c, 0, 68, 58
1, 950875, Note_off_c, 0, 29, 63
1, 950876, Control_c, 0, 64, 80
1, 950890, Control_c, 0, 64, 127
1, 950895, Note_off_c, 0, 72, 60
1, 950954, Note_off_c, 0, 65, 0
1, 950966, Note_on_c, 0, 65, 49
1, 950975, Note_on_c, 0, 72, 76
1, 950978, Note_on_c, 0, 69, 82
1, 951003, Note_off_c, 0, 77, 58
1, 951016, Note_off_c, 0, 65, 61
1, 951024, Note_on_c, 0, 43, 56
1, 951028, Poly_aftertouch_c, 0, 74, 0
1, 951039, Note_off_c, 0, 72, 64
1, 951060, Note_off_c, 0, 69, 60
1, 951065, Note_on_c, 0, 49, 24
1, 951109, Note_off_c, 0, 43, 61
1, 951134, Note_on_c, 0, 52, 77
1, 951135, Note_on_c, 0, 57, 75
1, 951156, Note_off_c, 0, 49, 0
1, 951164, Note_on_c, 0, 76, 101
1, 951193, Poly_aftertouch_c, 0, 49, 127
1, 951215, Note_on_c, 0, 48, 32
1, 951276, Note_on_c, 0, 43, 77
1, 951277, Note_off_c, 0, 57, 39
1, 951280, Note_on_c, 0, 65, 65
1, 951286, Note_off_c, 0, 48, 58
1, 951292, Poly_aftertouch_c, 0, 49, 0
1, 951324, Note_off_c, 0, 43, 63
1, 951331, Note_off_c, 0, 52, 63
1, 951360, Note_on_c, 0, 72, 52
1, 951380, Note_on_c, 0, 74, 14
1, 951394, Note_off_c, 0, 72, 65
1, 951407, Note_off_c, 0, 74, 44
1, 951421, Note_off_c, 0, 65, 58
1, 951444, Note_off_c, 0, 76, 52
1, 951447, Note_on_c, 0, 63, 98
1, 951452, Note_on_c, 0, 72, 97
1, 951453, Note_on_c, 0, 69, 94
1, 951500, Note_off_c, 0, 63, 66
1, 951512, Note_on_c, 0, 57, 45
1, 951521, Note_on_c, 0, 53, 34
1, 951589, Note_on_c, 0, 48, 76
1, 951602, Note_off_c, 0, 57, 65
1, 951605, Note_off_c, 0, 53, 60
1, 951617, Note_on_c, 0, 77, 96
1, 951622, Note_on_c, 0, 65, 94
1, 951625, Note_off_c, 0, 72, 62
1, 951631, Note_off_c, 0, 48, 63
1, 951646, Note_off_c, 0, 69, 66
1, 951805, Poly_aftertouch_c, 0, 39, 127
1, 951842, Note_off_c, 0, 77, 51
1, 951853, Note_on_c, 0, 38, 87
1, 951872, Poly_aftertouch_c, 0, 39, 0
1, 951875, Note_off_c, 0, 65, 53
1, 951930, Control_c, 0, 64, 88
1, 951940, Note_on_c, 0, 77, 89
1, 951941, Note_on_c, 0, 65, 80
1, 951943, Note_on_c, 0, 68, 81
1, 951944, Note_on_c, 0, 72, 79
1, 951944, Control_c, 0, 64, 0
1, 952003, Control_c, 0, 64, 61
1, 952004, Note_off_c, 0, 38, 63
1, 952018, Control_c, 0, 64, 84
1, 952033, Control_c, 0, 64, 127
1, 952063, Note_off_c, 0, 77, 58
1, 952076, Note_off_c, 0, 65, 60
1, 952186, Note_on_c, 0, 50, 64
1, 952197, Note_on_c, 0, 76, 81
1, 952209, Note_on_c, 0, 64, 88
1, 952271, Note_off_c, 0, 68, 59
1, 952309, Note_off_c, 0, 64, 62
1, 952310, Note_off_c, 0, 76, 62
1, 952311, Note_off_c, 0, 72, 22
1, 952358, Note_on_c, 0, 59, 79
1, 952375, Note_on_c, 0, 72, 85
1, 952377, Note_on_c, 0, 76, 85
1, 952377, Note_on_c, 0, 64, 92
1, 952381, Note_on_c, 0, 68, 86
1, 952419, Note_off_c, 0, 59, 62
1, 952440, Note_off_c, 0, 76, 62
1, 952451, Note_off_c, 0, 64, 64
1, 952456, Note_off_c, 0, 50, 62
1, 952502, Note_on_c, 0, 44, 79
1, 952516, Note_off_c, 0, 72, 53
1, 952531, Note_on_c, 0, 75, 93
1, 952544, Note_on_c, 0, 63, 98
1, 952575, Note_off_c, 0, 68, 59
1, 952587, Note_off_c, 0, 44, 63
1, 952639, Note_off_c, 0, 63, 60
1, 952641, Note_off_c, 0, 75, 60
1, 952648, Note_on_c, 0, 72, 38
1, 952667, Poly_aftertouch_c, 0, 74, 0
1, 952677, Note_on_c, 0, 60, 77
1, 952683, Note_on_c, 0, 53, 82
1, 952708, Note_on_c, 0, 68, 86
1, 952714, Note_on_c, 0, 63, 96
1, 952717, Note_on_c, 0, 75, 84
1, 952720, Note_off_c, 0, 60, 63
1, 952808, Note_off_c, 0, 63, 64
1, 952812, Note_off_c, 0, 72, 55
1, 952821, Note_off_c, 0, 75, 63
1, 952872, Note_on_c, 0, 44, 78
1, 952872, Note_off_c, 0, 53, 63
1, 952883, Note_on_c, 0, 54, 48
1, 952887, Note_on_c, 0, 74, 94
1, 952890, Note_on_c, 0, 62, 89
1, 952903, Note_off_c, 0, 44, 65
1, 952909, Note_off_c, 0, 54, 57
1, 952936, Note_off_c, 0, 68, 60
1, 953064, Control_c, 0, 64, 86
1, 953078, Control_c, 0, 64, 57
1, 953080, Note_on_c, 0, 43, 100
1, 953083, Note_on_c, 0, 31, 82
1, 953093, Control_c, 0, 64, 0
1, 953123, Control_c, 0, 64, 40
1, 953128, Note_off_c, 0, 31, 63
1, 953138, Control_c, 0, 64, 64
1, 953145, Note_off_c, 0, 43, 65
1, 953153, Control_c, 0, 64, 89
1, 953160, Note_off_c, 0, 62, 60
1, 953167, Control_c, 0, 64, 127
1, 953215, Note_off_c, 0, 74, 58
1, 953258, Note_on_c, 0, 67, 84
1, 953260, Note_on_c, 0, 62, 81
1, 953278, Note_on_c, 0, 71, 60
1, 953286, Note_on_c, 0, 53, 73
1, 953296, Note_on_c, 0, 70, 44
1, 953304, Note_off_c, 0, 62, 61
1, 953319, Note_off_c, 0, 71, 63
1, 953323, Note_off_c, 0, 70, 50
1, 953340, Note_off_c, 0, 67, 62
1, 953403, Note_on_c, 0, 74, 101
1, 953414, Note_on_c, 0, 59, 72
1, 953421, Note_on_c, 0, 57, 79
1, 953423, Note_on_c, 0, 45, 71
1, 953528, Note_on_c, 0, 62, 69
1, 953528, Note_on_c, 0, 67, 76
1, 953534, Note_on_c, 0, 71, 72
1, 953535, Note_off_c, 0, 57, 55
1, 953548, Note_off_c, 0, 45, 62
1, 953554, Note_off_c, 0, 62, 67
1, 953557, Note_off_c, 0, 59, 62
1, 953563, Note_off_c, 0, 74, 59
1, 953582, Note_off_c, 0, 53, 62
1, 953596, Note_off_c, 0, 67, 61
1, 953599, Note_off_c, 0, 71, 64
1, 953668, Note_on_c, 0, 65, 90
1, 953679, Note_on_c, 0, 79, 93
1, 953686, Note_on_c, 0, 77, 94
1, 953686, Note_off_c, 0, 65, 71
1, 953705, Note_on_c, 0, 56, 41
1, 953718, Note_on_c, 0, 54, 46
1, 953734, Note_off_c, 0, 56, 55
1, 953748, Note_off_c, 0, 54, 55
1, 953785, Note_off_c, 0, 77, 53
1, 953790, Note_on_c, 0, 74, 73
1, 953793, Note_on_c, 0, 67, 83
1, 953796, Note_on_c, 0, 71, 77
1, 953820, Note_off_c, 0, 79, 59
1, 953922, Poly_aftertouch_c, 0, 43, 127
1, 953938, Control_c, 0, 64, 74
1, 953940, Note_off_c, 0, 74, 65
1, 953941, Note_on_c, 0, 31, 91
1, 953948, Note_off_c, 0, 67, 55
1, 953953, Control_c, 0, 64, 64
1, 953960, Poly_aftertouch_c, 0, 43, 0
1, 953967, Control_c, 0, 64, 66
1, 953980, Note_on_c, 0, 33, 39
1, 953982, Note_on_c, 0, 80, 94
1, 953982, Control_c, 0, 64, 72
1, 953997, Control_c, 0, 64, 107
1, 954000, Note_off_c, 0, 71, 65
1, 954012, Control_c, 0, 64, 127
1, 954013, Note_off_c, 0, 31, 63
1, 954019, Note_off_c, 0, 33, 52
1, 954033, Note_off_c, 0, 80, 65
1, 954153, Note_on_c, 0, 53, 68
1, 954163, Note_on_c, 0, 70, 58
1, 954165, Note_on_c, 0, 61, 81
1, 954169, Note_on_c, 0, 65, 69
1, 954173, Note_on_c, 0, 49, 60
1, 954242, Note_off_c, 0, 70, 63
1, 954281, Note_on_c, 0, 58, 86
1, 954281, Note_off_c, 0, 61, 54
1, 954307, Note_on_c, 0, 73, 104
1, 954350, Note_off_c, 0, 58, 65
1, 954358, Note_off_c, 0, 53, 0
1, 954358, Note_on_c, 0, 53, 16
1, 954405, Note_on_c, 0, 61, 79
1, 954410, Note_on_c, 0, 43, 78
1, 954420, Note_on_c, 0, 70, 85
1, 954440, Note_off_c, 0, 61, 64
1, 954446, Note_off_c, 0, 73, 60
1, 954448, Note_off_c, 0, 43, 63
1, 954450, Note_off_c, 0, 65, 63
1, 954458, Note_off_c, 0, 49, 53
1, 954478, Note_off_c, 0, 70, 68
1, 954480, Note_off_c, 0, 53, 56
1, 954613, Note_on_c, 0, 65, 86
1, 954625, Note_on_c, 0, 79, 109
1, 954638, Note_on_c, 0, 58, 82
1, 954647, Note_on_c, 0, 56, 39
1, 954650, Note_off_c, 0, 65, 63
1, 954654, Note_on_c, 0, 55, 66
1, 954665, Note_off_c, 0, 58, 67
1, 954686, Note_off_c, 0, 55, 60
1, 954689, Note_off_c, 0, 56, 33
1, 954766, Note_on_c, 0, 67, 85
1, 954774, Note_on_c, 0, 73, 82
1, 954776, Note_on_c, 0, 70, 85
1, 954878, Poly_aftertouch_c, 0, 76, 127
1, 954879, Control_c, 0, 64, 107
1, 954893, Note_on_c, 0, 31, 95
1, 954894, Control_c, 0, 64, 65
1, 954909, Control_c, 0, 64, 53
1, 954924, Control_c, 0, 64, 60
1, 954938, Control_c, 0, 64, 66
1, 954949, Note_off_c, 0, 79, 57
1, 954950, Note_off_c, 0, 70, 63
1, 954952, Note_off_c, 0, 31, 64
1, 954953, Control_c, 0, 64, 81
1, 954960, Note_off_c, 0, 73, 65
1, 954968, Control_c, 0, 64, 127
1, 954976, Note_off_c, 0, 67, 65
1, 955016, Poly_aftertouch_c, 0, 76, 0
1, 955048, Note_on_c, 0, 71, 82
1, 955060, Note_on_c, 0, 74, 54
1, 955078, Note_on_c, 0, 53, 76
1, 955085, Note_off_c, 0, 74, 59
1, 955096, Note_off_c, 0, 71, 65
1, 955152, Poly_aftertouch_c, 0, 66, 0
1, 955192, Note_on_c, 0, 59, 75
1, 955243, Note_on_c, 0, 78, 113
1, 955282, Note_on_c, 0, 45, 70
1, 955289, Note_on_c, 0, 50, 26
1, 955309, Note_off_c, 0, 59, 63
1, 955328, Note_off_c, 0, 50, 53
1, 955350, Note_off_c, 0, 45, 63
1, 955358, Note_off_c, 0, 53, 61
1, 955361, Note_on_c, 0, 66, 85
1, 955385, Note_on_c, 0, 74, 73
1, 955411, Note_off_c, 0, 78, 60
1, 955415, Note_off_c, 0, 66, 63
1, 955445, Note_off_c, 0, 74, 64
1, 955485, Poly_aftertouch_c, 0, 71, 0
1, 955557, Note_on_c, 0, 65, 92
1, 955632, Note_on_c, 0, 79, 118
1, 955702, Note_off_c, 0, 65, 62
1, 955787, Note_on_c, 0, 76, 24
1, 955790, Note_on_c, 0, 55, 81
1, 955792, Note_on_c, 0, 59, 85
1, 955805, Note_on_c, 0, 74, 72
1, 955815, Note_off_c, 0, 59, 68
1, 955818, Note_on_c, 0, 67, 67
1, 955821, Note_off_c, 0, 55, 67
1, 955835, Note_on_c, 0, 70, 63
1, 955878, Note_off_c, 0, 79, 50
1, 955886, Note_off_c, 0, 70, 60
1, 955990, Note_off_c, 0, 67, 52
1, 956082, Note_on_c, 0, 50, 2
1, 956094, Note_off_c, 0, 50, 0
1, 956098, Note_on_c, 0, 40, 86
1, 956103, Control_c, 0, 64, 92
1, 956112, Note_off_c, 0, 76, 59
1, 956118, Control_c, 0, 64, 57
1, 956120, Note_on_c, 0, 38, 46
1, 956121, Note_off_c, 0, 38, 127
1, 956121, Poly_aftertouch_c, 0, 50, 0
1, 956127, Note_on_c, 0, 79, 95
1, 956129, Note_on_c, 0, 70, 102
1, 956130, Note_on_c, 0, 67, 98
1, 956133, Control_c, 0, 64, 43
1, 956146, Note_on_c, 0, 76, 50
1, 956148, Control_c, 0, 64, 57
1, 956163, Control_c, 0, 64, 71
1, 956184, Control_c, 0, 64, 127
1, 956216, Note_off_c, 0, 40, 63
1, 956230, Poly_aftertouch_c, 0, 41, 0
1, 956267, Note_off_c, 0, 79, 64
1, 956276, Note_off_c, 0, 76, 26
1, 956284, Note_off_c, 0, 67, 62
1, 956377, Poly_aftertouch_c, 0, 51, 127
1, 956440, Note_on_c, 0, 46, 81
1, 956441, Poly_aftertouch_c, 0, 51, 0
1, 956446, Note_on_c, 0, 78, 93
1, 956452, Note_on_c, 0, 66, 105
1, 956458, Note_on_c, 0, 52, 75
1, 956478, Note_off_c, 0, 74, 59
1, 956482, Note_off_c, 0, 70, 61
1, 956539, Note_off_c, 0, 46, 63
1, 956544, Note_off_c, 0, 52, 60
1, 956570, Note_off_c, 0, 78, 61
1, 956571, Note_off_c, 0, 66, 58
1, 956646, Note_on_c, 0, 62, 83
1, 956646, Note_on_c, 0, 53, 77
1, 956648, Note_on_c, 0, 70, 84
1, 956652, Note_on_c, 0, 78, 99
1, 956653, Note_on_c, 0, 66, 109
1, 956675, Note_on_c, 0, 74, 22
1, 956699, Note_off_c, 0, 62, 63
1, 956730, Note_off_c, 0, 74, 0
1, 956730, Note_on_c, 0, 74, 20
1, 956735, Note_off_c, 0, 66, 68
1, 956744, Note_off_c, 0, 78, 68
1, 956747, Poly_aftertouch_c, 0, 76, 127
1, 956780, Poly_aftertouch_c, 0, 76, 0
1, 956815, Note_on_c, 0, 54, 84
1, 956816, Note_on_c, 0, 46, 71
1, 956827, Note_on_c, 0, 65, 102
1, 956827, Note_on_c, 0, 77, 100
1, 956857, Note_off_c, 0, 46, 64
1, 956860, Note_off_c, 0, 70, 64
1, 956877, Note_off_c, 0, 74, 52
1, 956890, Note_on_c, 0, 76, 18
1, 956911, Note_off_c, 0, 65, 63
1, 956923, Note_off_c, 0, 76, 50
1, 956935, Note_off_c, 0, 77, 63
1, 956962, Note_off_c, 0, 53, 23
1, 956994, Note_on_c, 0, 55, 86
1, 956999, Note_on_c, 0, 62, 84
1, 957023, Note_on_c, 0, 65, 105
1, 957023, Note_on_c, 0, 77, 104
1, 957025, Note_on_c, 0, 70, 101
1, 957030, Note_off_c, 0, 62, 62
1, 957072, Poly_aftertouch_c, 0, 53, 127
1, 957092, Note_off_c, 0, 65, 59
1, 957095, Note_off_c, 0, 54, 37
1, 957096, Note_off_c, 0, 77, 61
1, 957098, Poly_aftertouch_c, 0, 53, 0
1, 957130, Note_off_c, 0, 70, 58
1, 957203, Note_on_c, 0, 56, 92
1, 957214, Note_on_c, 0, 46, 79
1, 957217, Note_on_c, 0, 64, 103
1, 957217, Note_on_c, 0, 76, 102
1, 957236, Note_off_c, 0, 55, 64
1, 957239, Note_off_c, 0, 56, 68
1, 957244, Note_off_c, 0, 46, 67
1, 957248, Note_off_c, 0, 64, 70
1, 957254, Note_on_c, 0, 70, 38
1, 957255, Note_off_c, 0, 70, 127
1, 957265, Note_off_c, 0, 76, 67
1, 957574, Note_on_c, 0, 45, 101
1, 957578, Note_on_c, 0, 33, 92
1, 957602, Control_c, 0, 64, 76
1, 957617, Control_c, 0, 64, 0
1, 957669, Poly_aftertouch_c, 0, 40, 127
1, 957672, Note_on_c, 0, 81, 7
1, 957683, Poly_aftertouch_c, 0, 79, 127
1, 957698, Control_c, 0, 64, 14
1, 957698, Poly_aftertouch_c, 0, 76, 127
1, 957713, Control_c, 0, 64, 83
1, 957728, Control_c, 0, 64, 127
1, 957759, Note_off_c, 0, 33, 64
1, 957765, Poly_aftertouch_c, 0, 40, 0
1, 957778, Note_off_c, 0, 45, 66
1, 958034, Note_on_c, 0, 69, 57
1, 958038, Note_on_c, 0, 73, 62
1, 958050, Note_on_c, 0, 61, 64
1, 958136, Note_on_c, 0, 52, 13
1, 958152, Note_off_c, 0, 61, 51
1, 958161, Poly_aftertouch_c, 0, 55, 127
1, 958199, Poly_aftertouch_c, 0, 76, 0
1, 958220, Note_off_c, 0, 52, 41
1, 958220, Note_off_c, 0, 73, 54
1, 958244, Note_off_c, 0, 69, 51
1, 958287, Note_on_c, 0, 52, 47
1, 958295, Note_on_c, 0, 61, 61
1, 958348, Note_on_c, 0, 76, 70
1, 958348, Note_on_c, 0, 73, 76
1, 958370, Note_on_c, 0, 69, 61
1, 958427, Poly_aftertouch_c, 0, 55, 0
1, 958455, Note_off_c, 0, 81, 31
1, 958473, Note_off_c, 0, 52, 61
1, 958484, Note_off_c, 0, 73, 61
1, 958491, Note_off_c, 0, 61, 62
1, 958500, Note_off_c, 0, 69, 55
1, 958567, Note_on_c, 0, 74, 75
1, 958568, Note_on_c, 0, 69, 56
1, 958583, Note_on_c, 0, 57, 49
1, 958592, Note_on_c, 0, 62, 53
1, 958602, Note_on_c, 0, 53, 51
1, 958633, Note_off_c, 0, 62, 56
1, 958646, Note_off_c, 0, 57, 53
1, 958653, Note_off_c, 0, 69, 60
1, 958665, Note_off_c, 0, 74, 59
1, 958679, Poly_aftertouch_c, 0, 79, 0
1, 958693, Note_off_c, 0, 76, 63
1, 958709, Note_on_c, 0, 57, 53
1, 958713, Note_on_c, 0, 81, 80
1, 958714, Note_on_c, 0, 69, 73
1, 958720, Note_on_c, 0, 62, 62
1, 958721, Note_on_c, 0, 74, 64
1, 958730, Note_off_c, 0, 53, 59
1, 958750, Note_off_c, 0, 62, 65
1, 958760, Note_off_c, 0, 69, 62
1, 958766, Note_off_c, 0, 74, 62
1, 958781, Note_off_c, 0, 81, 63
1, 958801, Note_off_c, 0, 57, 60
1, 958864, Note_on_c, 0, 54, 75
1, 958867, Note_on_c, 0, 63, 77
1, 958869, Note_on_c, 0, 70, 74
1, 958870, Note_on_c, 0, 75, 78
1, 958881, Note_on_c, 0, 60, 59
1, 958926, Note_off_c, 0, 70, 61
1, 958926, Note_off_c, 0, 63, 61
1, 958934, Note_off_c, 0, 75, 61
1, 958944, Note_off_c, 0, 60, 58
1, 958947, Note_off_c, 0, 54, 58
1, 959024, Note_on_c, 0, 63, 82
1, 959025, Note_on_c, 0, 82, 88
1, 959027, Note_on_c, 0, 75, 85
1, 959029, Note_on_c, 0, 60, 61
1, 959032, Note_on_c, 0, 70, 87
1, 959073, Note_off_c, 0, 60, 62
1, 959078, Note_off_c, 0, 63, 64
1, 959086, Poly_aftertouch_c, 0, 54, 127
1, 959093, Note_off_c, 0, 70, 62
1, 959118, Note_off_c, 0, 75, 59
1, 959125, Poly_aftertouch_c, 0, 54, 0
1, 959158, Note_on_c, 0, 55, 70
1, 959158, Note_on_c, 0, 70, 80
1, 959161, Note_on_c, 0, 64, 78
1, 959184, Note_on_c, 0, 76, 66
1, 959197, Note_on_c, 0, 75, 19
1, 959216, Note_off_c, 0, 70, 65
1, 959218, Note_off_c, 0, 82, 61
1, 959218, Note_off_c, 0, 76, 64
1, 959219, Note_off_c, 0, 64, 61
1, 959229, Note_off_c, 0, 75, 47
1, 959284, Note_on_c, 0, 61, 59
1, 959292, Note_on_c, 0, 64, 77
1, 959295, Note_on_c, 0, 71, 87
1, 959296, Note_on_c, 0, 77, 80
1, 959339, Note_off_c, 0, 64, 64
1, 959343, Note_off_c, 0, 71, 64
1, 959346, Note_off_c, 0, 77, 62
1, 959353, Note_off_c, 0, 55, 51
1, 959367, Note_off_c, 0, 61, 62
1, 959423, Note_on_c, 0, 65, 91
1, 959433, Note_on_c, 0, 71, 99
1, 959438, Note_on_c, 0, 77, 93
1, 959440, Note_on_c, 0, 83, 89
1, 959445, Note_on_c, 0, 62, 62
1, 959461, Note_on_c, 0, 56, 40
1, 959480, Note_off_c, 0, 65, 62
1, 959484, Note_off_c, 0, 71, 64
1, 959485, Note_off_c, 0, 83, 65
1, 959491, Note_off_c, 0, 77, 63
1, 959493, Note_off_c, 0, 56, 33
1, 959543, Poly_aftertouch_c, 0, 55, 0
1, 959549, Note_off_c, 0, 62, 60
1, 959598, Note_on_c, 0, 65, 97
1, 959603, Note_on_c, 0, 71, 105
1, 959604, Note_on_c, 0, 77, 101
1, 959605, Note_on_c, 0, 62, 62
1, 959609, Note_on_c, 0, 57, 77
1, 959622, Note_on_c, 0, 84, 79
1, 959623, Note_on_c, 0, 83, 82
1, 959641, Note_off_c, 0, 65, 67
1, 959666, Note_off_c, 0, 57, 57
1, 959710, Note_off_c, 0, 84, 59
1, 959712, Note_on_c, 0, 57, 50
1, 959719, Note_off_c, 0, 83, 60
1, 959724, Note_on_c, 0, 66, 71
1, 959737, Note_off_c, 0, 62, 65
1, 959743, Note_off_c, 0, 66, 65
1, 959746, Note_off_c, 0, 57, 67
1, 959772, Note_on_c, 0, 78, 93
1, 959819, Note_on_c, 0, 82, 52
1, 959823, Note_off_c, 0, 77, 59
1, 959826, Note_off_c, 0, 71, 53
1, 959865, Note_off_c, 0, 82, 64
1, 959891, Control_c, 0, 64, 76
1, 959906, Control_c, 0, 64, 48
1, 959928, Control_c, 0, 64, 23
1, 959931, Note_on_c, 0, 50, 101
1, 959932, Note_on_c, 0, 84, 95
1, 959937, Note_on_c, 0, 72, 104
1, 959937, Note_on_c, 0, 38, 82
1, 959938, Note_on_c, 0, 74, 92
1, 959940, Note_on_c, 0, 71, 93
1, 959943, Control_c, 0, 64, 41
1, 959952, Note_on_c, 0, 45, 44
1, 959954, Note_on_c, 0, 48, 60
1, 959955, Note_off_c, 0, 48, 127
1, 959957, Control_c, 0, 64, 62
1, 959958, Note_on_c, 0, 83, 58
1, 959961, Note_off_c, 0, 78, 63
1, 959967, Note_off_c, 0, 38, 66
1, 959972, Control_c, 0, 64, 76
1, 959975, Note_off_c, 0, 50, 67
1, 959979, Note_off_c, 0, 83, 40
1, 959981, Note_off_c, 0, 45, 56
1, 959987, Control_c, 0, 64, 127
1, 959991, Note_off_c, 0, 71, 35
1, 960054, Note_off_c, 0, 84, 65
1, 960059, Note_on_c, 0, 81, 70
1, 960062, Note_off_c, 0, 72, 59
1, 960078, Note_off_c, 0, 74, 63
1, 960100, Note_off_c, 0, 81, 65
1, 960154, Note_on_c, 0, 69, 99
1, 960159, Note_on_c, 0, 61, 82
1, 960160, Note_on_c, 0, 66, 84
1, 960177, Note_on_c, 0, 57, 61
1, 960205, Note_off_c, 0, 57, 63
1, 960236, Note_off_c, 0, 69, 56
1, 960259, Note_off_c, 0, 61, 62
1, 960263, Note_off_c, 0, 66, 61
1, 960276, Poly_aftertouch_c, 0, 63, 0
1, 960321, Note_on_c, 0, 73, 118
1, 960327, Note_on_c, 0, 85, 105
1, 960333, Note_on_c, 0, 69, 104
1, 960338, Note_on_c, 0, 66, 90
1, 960338, Note_on_c, 0, 82, 83
1, 960339, Note_on_c, 0, 61, 97
1, 960349, Note_off_c, 0, 82, 74
1, 960357, Note_on_c, 0, 80, 42
1, 960358, Note_off_c, 0, 80, 127
1, 960365, Note_on_c, 0, 63, 52
1, 960378, Note_on_c, 0, 57, 37
1, 960388, Note_off_c, 0, 63, 62
1, 960397, Note_off_c, 0, 69, 61
1, 960407, Note_off_c, 0, 57, 56
1, 960494, Note_on_c, 0, 82, 56
1, 960524, Note_on_c, 0, 77, 36
1, 960527, Note_off_c, 0, 66, 57
1, 960537, Note_off_c, 0, 73, 59
1, 960542, Note_off_c, 0, 85, 59
1, 960552, Note_off_c, 0, 61, 44
1, 960567, Note_on_c, 0, 68, 108
1, 960574, Note_on_c, 0, 56, 96
1, 960649, Note_off_c, 0, 77, 63
1, 960689, Note_off_c, 0, 82, 65
1, 960704, Note_off_c, 0, 68, 52
1, 960715, Note_off_c, 0, 56, 60
1, 960806, Note_on_c, 0, 68, 125
1, 960806, Note_on_c, 0, 86, 102
1, 960807, Note_on_c, 0, 56, 100
1, 960807, Note_on_c, 0, 74, 113
1, 960844, Note_on_c, 0, 58, 46
1, 960846, Note_on_c, 0, 76, 46
1, 960863, Note_on_c, 0, 77, 17
1, 960870, Note_off_c, 0, 58, 57
1, 960870, Note_off_c, 0, 76, 51
1, 960902, Note_off_c, 0, 68, 61
1, 960902, Note_off_c, 0, 77, 33
1, 960932, Note_on_c, 0, 80, 29
1, 960959, Note_on_c, 0, 60, 3
1, 960962, Note_off_c, 0, 56, 61
1, 960965, Note_off_c, 0, 80, 50
1, 961022, Note_off_c, 0, 86, 55
1, 961028, Note_off_c, 0, 74, 52
1, 961071, Note_off_c, 0, 60, 33
1, 961074, Poly_aftertouch_c, 0, 81, 127
1, 961098, Poly_aftertouch_c, 0, 81, 0
1, 961107, Note_on_c, 0, 81, 78
1, 961108, Note_on_c, 0, 65, 97
1, 961110, Note_on_c, 0, 62, 89
1, 961110, Note_on_c, 0, 69, 104
1, 961111, Note_on_c, 0, 77, 104
1, 961114, Note_on_c, 0, 74, 105
1, 961135, Note_off_c, 0, 69, 72
1, 961138, Note_on_c, 0, 83, 66
1, 961148, Note_off_c, 0, 65, 71
1, 961152, Note_off_c, 0, 62, 69
1, 961162, Note_off_c, 0, 74, 65
1, 961211, Note_off_c, 0, 83, 58
1, 961212, Note_off_c, 0, 77, 64
1, 961230, Note_off_c, 0, 81, 65
1, 961633, Control_c, 0, 64, 105
1, 961642, Note_on_c, 0, 43, 103
1, 961644, Note_on_c, 0, 81, 102
1, 961645, Note_on_c, 0, 84, 102
1, 961646, Note_on_c, 0, 31, 89
1, 961647, Note_on_c, 0, 77, 110
1, 961648, Control_c, 0, 64, 63
1, 961649, Note_on_c, 0, 89, 95
1, 961662, Control_c, 0, 64, 0
1, 961668, Note_on_c, 0, 86, 73
1, 961691, Note_on_c, 0, 34, 37
1, 961692, Note_on_c, 0, 39, 27
1, 961692, Control_c, 0, 64, 44
1, 961707, Control_c, 0, 64, 69
1, 961722, Control_c, 0, 64, 127
1, 961731, Note_off_c, 0, 34, 32
1, 961740, Note_off_c, 0, 86, 59
1, 961774, Note_off_c, 0, 39, 0
1, 961774, Note_on_c, 0, 39, 10
1, 961788, Note_off_c, 0, 31, 63
1, 961821, Note_off_c, 0, 43, 65
1, 961823, Note_off_c, 0, 77, 62
1, 961826, Note_off_c, 0, 89, 64
1, 961829, Note_off_c, 0, 39, 39
1, 961853, Note_off_c, 0, 81, 66
1, 961853, Note_off_c, 0, 84, 63
1, 962181, Note_on_c, 0, 60, 81
1, 962184, Note_on_c, 0, 65, 98
1, 962185, Note_on_c, 0, 57, 73
1, 962191, Note_on_c, 0, 52, 78
1, 962211, Note_on_c, 0, 81, 99
1, 962215, Note_on_c, 0, 72, 99
1, 962219, Note_on_c, 0, 77, 92
1, 962258, Note_on_c, 0, 53, 14
1, 962273, Note_off_c, 0, 52, 65
1, 962279, Note_off_c, 0, 57, 64
1, 962295, Note_off_c, 0, 53, 29
1, 962303, Note_off_c, 0, 60, 65
1, 962323, Note_off_c, 0, 65, 62
1, 962481, Note_off_c, 0, 72, 60
1, 962491, Note_off_c, 0, 81, 63
1, 962499, Note_off_c, 0, 77, 61
1, 962537, Note_on_c, 0, 69, 103
1, 962540, Note_on_c, 0, 60, 80
1, 962542, Note_on_c, 0, 65, 83
1, 962544, Note_on_c, 0, 57, 85
1, 962546, Note_on_c, 0, 81, 99
1, 962550, Note_on_c, 0, 72, 98
1, 962553, Note_on_c, 0, 77, 84
1, 962581, Note_on_c, 0, 66, 30
1, 962582, Note_off_c, 0, 66, 127
1, 962644, Note_off_c, 0, 57, 61
1, 962667, Note_off_c, 0, 69, 58
1, 962703, Note_off_c, 0, 77, 60
1, 962801, Note_on_c, 0, 80, 96
1, 962804, Note_on_c, 0, 77, 102
1, 962812, Note_on_c, 0, 68, 108
1, 962817, Note_on_c, 0, 56, 84
1, 962827, Note_off_c, 0, 81, 63
1, 962829, Note_off_c, 0, 72, 64
1, 962872, Note_off_c, 0, 77, 67
1, 962890, Note_off_c, 0, 80, 64
1, 962902, Note_on_c, 0, 62, 42
1, 962959, Note_off_c, 0, 68, 56
1, 962966, Note_off_c, 0, 56, 62
1, 962996, Note_off_c, 0, 60, 24
1, 963047, Note_on_c, 0, 56, 85
1, 963049, Note_on_c, 0, 68, 102
1, 963088, Note_on_c, 0, 75, 115
1, 963090, Note_on_c, 0, 87, 92
1, 963116, Note_off_c, 0, 87, 62
1, 963132, Note_off_c, 0, 75, 62
1, 963138, Note_on_c, 0, 85, 25
1, 963170, Note_off_c, 0, 85, 45
1, 963175, Note_off_c, 0, 68, 64
1, 963210, Note_off_c, 0, 56, 55
1, 963316, Note_on_c, 0, 55, 78
1, 963320, Note_on_c, 0, 67, 96
1, 963321, Note_on_c, 0, 71, 95
1, 963321, Note_on_c, 0, 79, 89
1, 963325, Note_on_c, 0, 77, 97
1, 963338, Note_off_c, 0, 67, 72
1, 963356, Note_off_c, 0, 65, 66
1, 963363, Note_off_c, 0, 55, 64
1, 963365, Note_off_c, 0, 62, 57
1, 963381, Note_off_c, 0, 71, 63
1, 963427, Note_off_c, 0, 77, 63
1, 963428, Note_off_c, 0, 79, 67
1, 963745, Note_on_c, 0, 48, 98
1, 963749, Note_on_c, 0, 36, 87
1, 963775, Control_c, 0, 64, 89
1, 963783, Note_on_c, 0, 86, 97
1, 963790, Note_on_c, 0, 74, 105
1, 963790, Control_c, 0, 64, 57
1, 963801, Note_on_c, 0, 81, 53
1, 963805, Control_c, 0, 64, 23
1, 963815, Note_on_c, 0, 76, 59
1, 963819, Note_on_c, 0, 80, 51
1, 963819, Control_c, 0, 64, 48
1, 963825, Note_on_c, 0, 84, 62
1, 963834, Control_c, 0, 64, 66
1, 963835, Note_off_c, 0, 76, 41
1, 963842, Note_off_c, 0, 80, 37
1, 963842, Note_off_c, 0, 81, 67
1, 963849, Control_c, 0, 64, 111
1, 963864, Control_c, 0, 64, 127
1, 963867, Note_off_c, 0, 84, 56
1, 963901, Note_off_c, 0, 36, 64
1, 963910, Note_off_c, 0, 86, 66
1, 963929, Note_off_c, 0, 48, 64
1, 963952, Note_off_c, 0, 74, 65
1, 964110, Note_on_c, 0, 75, 81
1, 964113, Note_on_c, 0, 77, 81
1, 964118, Note_on_c, 0, 70, 68
1, 964127, Note_on_c, 0, 65, 40
1, 964129, Note_on_c, 0, 56, 75
1, 964131, Note_on_c, 0, 63, 83
1, 964144, Note_off_c, 0, 70, 69
1, 964155, Note_off_c, 0, 75, 60
1, 964156, Note_on_c, 0, 58, 65
1, 964156, Note_off_c, 0, 65, 54
1, 964162, Note_off_c, 0, 77, 65
1, 964319, Note_on_c, 0, 60, 83
1, 964328, Note_on_c, 0, 84, 97
1, 964330, Note_on_c, 0, 72, 102
1, 964368, Note_off_c, 0, 84, 68
1, 964369, Note_off_c, 0, 63, 59
1, 964383, Note_off_c, 0, 72, 68
1, 964539, Note_on_c, 0, 63, 76
1, 964540, Note_on_c, 0, 54, 72
1, 964554, Note_on_c, 0, 78, 74
1, 964557, Note_on_c, 0, 75, 82
1, 964561, Note_on_c, 0, 66, 90
1, 964561, Note_on_c, 0, 70, 79
1, 964567, Note_off_c, 0, 56, 35
1, 964574, Note_off_c, 0, 58, 60
1, 964634, Note_off_c, 0, 54, 64
1, 964683, Note_off_c, 0, 78, 63
1, 964685, Note_off_c, 0, 66, 63
1, 964703, Note_off_c, 0, 70, 63
1, 964714, Note_off_c, 0, 75, 64
1, 964718, Note_off_c, 0, 63, 52
1, 964830, Note_on_c, 0, 53, 72
1, 964837, Poly_aftertouch_c, 0, 57, 127
1, 964847, Note_on_c, 0, 63, 89
1, 964901, Note_off_c, 0, 63, 67
1, 964906, Note_on_c, 0, 75, 98
1, 964906, Note_off_c, 0, 60, 65
1, 964909, Note_on_c, 0, 68, 100
1, 964915, Note_on_c, 0, 70, 86
1, 964918, Poly_aftertouch_c, 0, 57, 0
1, 964922, Note_on_c, 0, 80, 80
1, 964933, Note_off_c, 0, 53, 65
1, 964938, Note_off_c, 0, 68, 64
1, 964938, Note_off_c, 0, 70, 69
1, 964950, Note_off_c, 0, 75, 61
1, 964965, Note_off_c, 0, 80, 64
1, 965139, Poly_aftertouch_c, 0, 39, 127
1, 965169, Control_c, 0, 64, 67
1, 965179, Poly_aftertouch_c, 0, 39, 0
1, 965180, Note_on_c, 0, 50, 103
1, 965183, Note_on_c, 0, 86, 103
1, 965184, Note_on_c, 0, 38, 85
1, 965184, Control_c, 0, 64, 61
1, 965187, Note_on_c, 0, 74, 109
1, 965190, Note_on_c, 0, 80, 62
1, 965199, Control_c, 0, 64, 70
1, 965209, Note_on_c, 0, 84, 70
1, 965214, Note_off_c, 0, 38, 63
1, 965214, Control_c, 0, 64, 112
1, 965219, Note_off_c, 0, 50, 68
1, 965221, Note_on_c, 0, 79, 55
1, 965222, Note_off_c, 0, 79, 127
1, 965222, Note_off_c, 0, 80, 67
1, 965224, Note_off_c, 0, 84, 65
1, 965228, Control_c, 0, 64, 127
1, 965241, Note_off_c, 0, 86, 69
1, 965251, Note_off_c, 0, 74, 66
1, 965406, Note_on_c, 0, 76, 69
1, 965412, Note_on_c, 0, 70, 66
1, 965420, Note_on_c, 0, 62, 82
1, 965427, Note_on_c, 0, 54, 73
1, 965435, Note_off_c, 0, 76, 68
1, 965440, Note_off_c, 0, 70, 67
1, 965572, Note_on_c, 0, 70, 102
1, 965573, Note_on_c, 0, 82, 82
1, 965577, Note_on_c, 0, 58, 85
1, 965607, Note_on_c, 0, 71, 48
1, 965618, Note_off_c, 0, 54, 61
1, 965618, Note_off_c, 0, 82, 63
1, 965630, Note_off_c, 0, 70, 58
1, 965634, Note_off_c, 0, 71, 60
1, 965678, Poly_aftertouch_c, 0, 60, 127
1, 965712, Note_off_c, 0, 62, 60
1, 965745, Note_on_c, 0, 70, 82
1, 965746, Note_on_c, 0, 77, 81
1, 965748, Note_on_c, 0, 65, 91
1, 965749, Note_on_c, 0, 74, 72
1, 965758, Note_on_c, 0, 53, 83
1, 965764, Note_on_c, 0, 62, 77
1, 965791, Note_off_c, 0, 58, 62
1, 965821, Note_off_c, 0, 77, 63
1, 965851, Poly_aftertouch_c, 0, 60, 0
1, 965857, Note_off_c, 0, 65, 61
1, 965859, Note_off_c, 0, 53, 62
1, 965883, Note_off_c, 0, 70, 62
1, 965985, Note_off_c, 0, 62, 63
1, 966027, Note_on_c, 0, 52, 85
1, 966027, Note_on_c, 0, 62, 67
1, 966029, Note_on_c, 0, 70, 95
1, 966034, Note_on_c, 0, 66, 86
1, 966038, Note_on_c, 0, 78, 91
1, 966051, Note_off_c, 0, 62, 66
1, 966055, Note_off_c, 0, 66, 70
1, 966056, Note_off_c, 0, 74, 62
1, 966062, Note_off_c, 0, 52, 65
1, 966065, Note_off_c, 0, 70, 69
1, 966080, Note_off_c, 0, 78, 62
1, 966214, Control_c, 0, 64, 103
1, 966229, Control_c, 0, 64, 66
1, 966241, Note_on_c, 0, 86, 95
1, 966242, Note_on_c, 0, 74, 99
1, 966244, Control_c, 0, 64, 62
1, 966246, Note_on_c, 0, 51, 106
1, 966251, Note_on_c, 0, 39, 76
1, 966259, Control_c, 0, 64, 71
1, 966272, Note_on_c, 0, 76, 54
1, 966274, Control_c, 0, 64, 127
1, 966280, Note_off_c, 0, 39, 64
1, 966288, Note_off_c, 0, 86, 67
1, 966289, Note_off_c, 0, 74, 67
1, 966291, Note_off_c, 0, 51, 67
1, 966292, Note_off_c, 0, 76, 60
1, 966436, Note_on_c, 0, 75, 80
1, 966452, Note_on_c, 0, 63, 54
1, 966458, Note_on_c, 0, 60, 71
1, 966460, Note_on_c, 0, 69, 26
1, 966462, Note_on_c, 0, 54, 74
1, 966471, Note_off_c, 0, 63, 62
1, 966492, Poly_aftertouch_c, 0, 68, 0
1, 966495, Note_off_c, 0, 75, 62
1, 966498, Note_off_c, 0, 69, 45
1, 966569, Note_off_c, 0, 54, 63
1, 966587, Note_on_c, 0, 69, 96
1, 966590, Note_on_c, 0, 57, 75
1, 966590, Note_on_c, 0, 81, 91
1, 966626, Note_off_c, 0, 81, 66
1, 966636, Note_off_c, 0, 69, 66
1, 966688, Note_off_c, 0, 60, 60
1, 966766, Note_on_c, 0, 53, 79
1, 966782, Note_on_c, 0, 69, 60
1, 966783, Note_on_c, 0, 76, 79
1, 966784, Note_off_c, 0, 57, 64
1, 966789, Note_on_c, 0, 60, 85
1, 966792, Note_on_c, 0, 64, 79
1, 966843, Note_off_c, 0, 53, 62
1, 966918, Note_off_c, 0, 76, 63
1, 966930, Note_off_c, 0, 64, 61
1, 966966, Note_off_c, 0, 69, 61
1, 966986, Note_off_c, 0, 60, 0
1, 967007, Note_on_c, 0, 51, 83
1, 967026, Poly_aftertouch_c, 0, 60, 0
1, 967043, Note_on_c, 0, 65, 79
1, 967043, Note_on_c, 0, 77, 97
1, 967046, Note_off_c, 0, 51, 65
1, 967051, Note_on_c, 0, 69, 69
1, 967067, Note_off_c, 0, 65, 69
1, 967074, Note_off_c, 0, 69, 65
1, 967100, Note_off_c, 0, 77, 65
1, 967174, Note_on_c, 0, 46, 13
1, 967215, Note_off_c, 0, 46, 49
1, 967216, Control_c, 0, 64, 100
1, 967224, Note_on_c, 0, 52, 99
1, 967226, Note_on_c, 0, 40, 89
1, 967231, Control_c, 0, 64, 67
1, 967246, Control_c, 0, 64, 59
1, 967250, Note_on_c, 0, 74, 103
1, 967250, Note_on_c, 0, 86, 102
1, 967260, Control_c, 0, 64, 64
1, 967275, Control_c, 0, 64, 74
1, 967283, Note_off_c, 0, 74, 69
1, 967287, Note_off_c, 0, 40, 64
1, 967287, Note_off_c, 0, 86, 67
1, 967290, Control_c, 0, 64, 127
1, 967308, Note_off_c, 0, 52, 67
1, 967463, Note_on_c, 0, 50, 69
1, 967469, Note_on_c, 0, 58, 82
1, 967481, Note_on_c, 0, 62, 61
1, 967485, Note_on_c, 0, 70, 67
1, 967493, Note_on_c, 0, 74, 54
1, 967496, Note_on_c, 0, 76, 57
1, 967501, Note_off_c, 0, 62, 66
1, 967515, Note_on_c, 0, 64, 31
1, 967526, Note_off_c, 0, 76, 65
1, 967527, Note_off_c, 0, 74, 64
1, 967538, Note_off_c, 0, 70, 65
1, 967550, Note_off_c, 0, 64, 50
1, 967642, Note_on_c, 0, 55, 82
1, 967644, Note_on_c, 0, 67, 100
1, 967644, Note_on_c, 0, 79, 99
1, 967654, Note_off_c, 0, 50, 63
1, 967677, Note_off_c, 0, 67, 68
1, 967679, Note_off_c, 0, 79, 69
1, 967692, Note_off_c, 0, 58, 61
1, 967836, Note_on_c, 0, 75, 82
1, 967837, Note_on_c, 0, 49, 64
1, 967847, Note_on_c, 0, 58, 76
1, 967848, Note_on_c, 0, 70, 67
1, 967849, Note_on_c, 0, 63, 78
1, 967877, Control_c, 0, 64, 97
1, 967892, Control_c, 0, 64, 64
1, 967907, Control_c, 0, 64, 47
1, 967921, Control_c, 0, 64, 53
1, 967936, Control_c, 0, 64, 61
1, 967951, Control_c, 0, 64, 73
1, 967962, Poly_aftertouch_c, 0, 73, 127
1, 967965, Control_c, 0, 64, 113
1, 967970, Note_off_c, 0, 49, 63
1, 967980, Control_c, 0, 64, 127
1, 968012, Note_off_c, 0, 63, 62
1, 968059, Note_off_c, 0, 75, 64
1, 968068, Note_off_c, 0, 58, 58
1, 968080, Note_on_c, 0, 71, 37
1, 968122, Note_off_c, 0, 70, 0
1, 968135, Note_on_c, 0, 70, 60
1, 968137, Note_on_c, 0, 58, 55
1, 968137, Note_off_c, 0, 71, 58
1, 968140, Note_off_c, 0, 55, 64
1, 968140, Note_on_c, 0, 76, 85
1, 968142, Note_on_c, 0, 48, 75
1, 968143, Note_on_c, 0, 64, 68
1, 968168, Note_off_c, 0, 64, 65
1, 968168, Note_off_c, 0, 76, 71
1, 968170, Note_off_c, 0, 58, 56
1, 968172, Note_off_c, 0, 70, 69
1, 968175, Note_off_c, 0, 48, 66
1, 968184, Poly_aftertouch_c, 0, 73, 0
1, 968493, Note_on_c, 0, 41, 42
1, 968508, Note_on_c, 0, 29, 44
1, 968521, Control_c, 0, 64, 80
1, 968534, Note_on_c, 0, 86, 71
1, 968536, Control_c, 0, 64, 61
1, 968551, Control_c, 0, 64, 41
1, 968560, Note_on_c, 0, 74, 56
1, 968565, Control_c, 0, 64, 44
1, 968579, Control_c, 0, 64, 56
1, 968594, Control_c, 0, 64, 66
1, 968609, Control_c, 0, 64, 81
1, 968624, Control_c, 0, 64, 127
1, 968641, Note_off_c, 0, 86, 64
1, 968665, Note_off_c, 0, 41, 64
1, 968678, Note_off_c, 0, 29, 36
1, 968718, Note_off_c, 0, 74, 61
1, 968866, Note_on_c, 0, 74, 54
1, 968879, Note_on_c, 0, 50, 51
1, 968882, Note_on_c, 0, 70, 45
1, 969013, Note_on_c, 0, 42, 53
1, 969032, Note_on_c, 0, 54, 54
1, 969038, Note_on_c, 0, 78, 73
1, 969043, Note_off_c, 0, 50, 63
1, 969046, Note_off_c, 0, 42, 64
1, 969055, Note_on_c, 0, 66, 65
1, 969064, Note_off_c, 0, 54, 64
1, 969079, Note_off_c, 0, 70, 41
1, 969086, Note_off_c, 0, 74, 58
1, 969164, Note_off_c, 0, 66, 62
1, 969207, Note_on_c, 0, 62, 59
1, 969210, Note_off_c, 0, 78, 64
1, 969218, Note_on_c, 0, 50, 60
1, 969219, Note_on_c, 0, 74, 63
1, 969225, Note_on_c, 0, 70, 52
1, 969227, Note_on_c, 0, 58, 66
1, 969294, Note_off_c, 0, 50, 61
1, 969301, Note_off_c, 0, 62, 58
1, 969306, Poly_aftertouch_c, 0, 76, 127
1, 969312, Note_off_c, 0, 58, 61
1, 969326, Poly_aftertouch_c, 0, 76, 0
1, 969331, Note_off_c, 0, 70, 63
1, 969356, Note_off_c, 0, 74, 61
1, 969422, Note_on_c, 0, 50, 71
1, 969433, Note_on_c, 0, 58, 58
1, 969451, Note_off_c, 0, 50, 68
1, 969452, Note_off_c, 0, 58, 63
1, 969469, Note_on_c, 0, 74, 82
1, 969482, Note_on_c, 0, 70, 57
1, 969490, Poly_aftertouch_c, 0, 62, 127
1, 969505, Note_off_c, 0, 70, 63
1, 969514, Poly_aftertouch_c, 0, 62, 0
1, 969520, Note_off_c, 0, 74, 63
1, 969610, Note_on_c, 0, 41, 84
1, 969619, Note_on_c, 0, 29, 64
1, 969621, Note_on_c, 0, 74, 93
1, 969621, Note_on_c, 0, 86, 83
1, 969642, Note_off_c, 0, 41, 67
1, 969642, Note_off_c, 0, 86, 72
1, 969658, Note_off_c, 0, 29, 60
1, 969669, Note_off_c, 0, 74, 62
1, 969778, Note_on_c, 0, 74, 63
1, 969790, Note_on_c, 0, 70, 70
1, 969798, Note_on_c, 0, 50, 62
1, 969801, Note_on_c, 0, 52, 70
1, 969855, Control_c, 0, 64, 111
1, 969870, Control_c, 0, 64, 114
1, 969884, Control_c, 0, 64, 127
1, 969902, Note_off_c, 0, 52, 62
1, 969914, Note_on_c, 0, 43, 72
1, 969920, Note_on_c, 0, 77, 98
1, 969921, Note_on_c, 0, 55, 87
1, 969928, Note_on_c, 0, 65, 91
1, 969950, Note_off_c, 0, 43, 64
1, 969951, Note_off_c, 0, 74, 62
1, 969958, Note_off_c, 0, 50, 63
1, 969964, Note_off_c, 0, 55, 61
1, 969964, Note_off_c, 0, 70, 62
1, 970080, Note_on_c, 0, 70, 85
1, 970080, Note_on_c, 0, 74, 78
1, 970082, Note_on_c, 0, 62, 87
1, 970086, Note_on_c, 0, 58, 84
1, 970091, Note_on_c, 0, 50, 70
1, 970134, Note_off_c, 0, 65, 60
1, 970137, Note_on_c, 0, 76, 19
1, 970147, Note_off_c, 0, 62, 59
1, 970147, Note_off_c, 0, 77, 62
1, 970153, Note_off_c, 0, 50, 63
1, 970167, Note_off_c, 0, 76, 50
1, 970179, Note_off_c, 0, 58, 64
1, 970181, Note_off_c, 0, 70, 62
1, 970199, Note_off_c, 0, 74, 60
1, 970252, Note_on_c, 0, 62, 84
1, 970257, Note_on_c, 0, 50, 85
1, 970259, Note_on_c, 0, 58, 77
1, 970275, Note_off_c, 0, 62, 67
1, 970282, Note_off_c, 0, 58, 67
1, 970298, Note_off_c, 0, 50, 67
1, 970315, Note_on_c, 0, 74, 81
1, 970330, Note_on_c, 0, 70, 79
1, 970351, Note_off_c, 0, 70, 71
1, 970377, Note_off_c, 0, 74, 64
1, 970433, Note_on_c, 0, 41, 95
1, 970447, Note_on_c, 0, 29, 69
1, 970459, Note_on_c, 0, 86, 96
1, 970462, Note_on_c, 0, 74, 106
1, 970474, Note_off_c, 0, 41, 67
1, 970477, Note_off_c, 0, 29, 63
1, 970492, Note_off_c, 0, 86, 66
1, 970501, Note_off_c, 0, 74, 68
1, 970512, Note_on_c, 0, 84, 17
1, 970513, Note_off_c, 0, 84, 127
1, 970605, Note_on_c, 0, 74, 92
1, 970613, Note_on_c, 0, 70, 86
1, 970615, Note_on_c, 0, 50, 78
1, 970661, Note_on_c, 0, 48, 37
1, 970742, Note_off_c, 0, 74, 63
1, 970751, Control_c, 0, 64, 96
1, 970758, Note_on_c, 0, 76, 96
1, 970759, Note_on_c, 0, 44, 78
1, 970763, Note_on_c, 0, 56, 102
1, 970765, Note_on_c, 0, 64, 100
1, 970766, Control_c, 0, 64, 62
1, 970772, Note_off_c, 0, 48, 58
1, 970781, Control_c, 0, 64, 49
1, 970796, Control_c, 0, 64, 53
1, 970797, Note_off_c, 0, 50, 65
1, 970802, Note_off_c, 0, 70, 62
1, 970808, Note_off_c, 0, 44, 62
1, 970811, Control_c, 0, 64, 60
1, 970814, Note_off_c, 0, 56, 66
1, 970824, Control_c, 0, 64, 75
1, 970839, Control_c, 0, 64, 127
1, 970906, Note_off_c, 0, 64, 60
1, 970942, Note_on_c, 0, 62, 93
1, 970946, Note_on_c, 0, 58, 87
1, 970951, Note_on_c, 0, 50, 82
1, 970952, Note_on_c, 0, 74, 87
1, 970954, Note_on_c, 0, 70, 95
1, 970971, Note_off_c, 0, 76, 61
1, 971017, Note_off_c, 0, 70, 65
1, 971023, Note_off_c, 0, 74, 66
1, 971025, Poly_aftertouch_c, 0, 54, 127
1, 971027, Note_off_c, 0, 62, 59
1, 971051, Poly_aftertouch_c, 0, 54, 0
1, 971075, Note_off_c, 0, 50, 61
1, 971095, Note_off_c, 0, 58, 61
1, 971106, Note_on_c, 0, 53, 15
1, 971160, Note_on_c, 0, 62, 91
1, 971162, Note_on_c, 0, 58, 84
1, 971169, Note_on_c, 0, 50, 83
1, 971177, Note_off_c, 0, 62, 75
1, 971186, Note_off_c, 0, 58, 68
1, 971209, Note_off_c, 0, 50, 65
1, 971211, Note_off_c, 0, 53, 30
1, 971218, Note_on_c, 0, 70, 104
1, 971218, Note_on_c, 0, 74, 108
1, 971237, Note_off_c, 0, 70, 66
1, 971255, Note_off_c, 0, 74, 66
1, 971380, Note_on_c, 0, 41, 103
1, 971386, Note_on_c, 0, 74, 107
1, 971386, Note_on_c, 0, 86, 104
1, 971387, Note_on_c, 0, 29, 79
1, 971412, Note_off_c, 0, 29, 65
1, 971417, Note_off_c, 0, 86, 70
1, 971419, Note_on_c, 0, 76, 47
1, 971420, Note_off_c, 0, 76, 127
1, 971422, Note_off_c, 0, 41, 68
1, 971424, Note_off_c, 0, 74, 70
1, 971452, Poly_aftertouch_c, 0, 36, 127
1, 971498, Poly_aftertouch_c, 0, 36, 0
1, 971550, Note_on_c, 0, 68, 28
1, 971585, Note_off_c, 0, 68, 45
1, 971593, Note_on_c, 0, 69, 84
1, 971593, Note_on_c, 0, 74, 77
1, 971596, Note_on_c, 0, 51, 97
1, 971796, Control_c, 0, 64, 93
1, 971811, Control_c, 0, 64, 63
1, 971818, Note_on_c, 0, 57, 101
1, 971821, Note_on_c, 0, 45, 87
1, 971821, Note_on_c, 0, 75, 94
1, 971824, Note_on_c, 0, 63, 105
1, 971826, Control_c, 0, 64, 58
1, 971841, Control_c, 0, 64, 69
1, 971851, Note_off_c, 0, 51, 66
1, 971856, Note_off_c, 0, 57, 70
1, 971857, Control_c, 0, 64, 127
1, 971861, Note_off_c, 0, 45, 66
1, 971946, Note_off_c, 0, 69, 58
1, 971963, Note_off_c, 0, 63, 62
1, 972059, Poly_aftertouch_c, 0, 71, 127
1, 972074, Note_off_c, 0, 75, 56
1, 972125, Poly_aftertouch_c, 0, 71, 0
1, 972128, Note_off_c, 0, 74, 0
1, 972140, Note_on_c, 0, 74, 48
1, 972149, Note_on_c, 0, 69, 90
1, 972150, Note_on_c, 0, 65, 95
1, 972152, Note_on_c, 0, 63, 104
1, 972154, Note_on_c, 0, 53, 85
1, 972158, Note_on_c, 0, 57, 77
1, 972299, Note_off_c, 0, 69, 62
1, 972305, Note_off_c, 0, 74, 64
1, 972332, Note_off_c, 0, 63, 62
1, 972433, Note_off_c, 0, 65, 63
1, 972510, Note_off_c, 0, 57, 51
1, 972533, Note_off_c, 0, 53, 57
1, 972605, Note_on_c, 0, 57, 86
1, 972608, Note_on_c, 0, 53, 79
1, 972616, Note_on_c, 0, 65, 81
1, 972617, Note_on_c, 0, 63, 87
1, 972619, Note_on_c, 0, 74, 74
1, 972626, Note_on_c, 0, 69, 73
1, 972626, Note_off_c, 0, 57, 67
1, 972632, Note_off_c, 0, 53, 67
1, 972675, Note_off_c, 0, 63, 65
1, 972712, Note_on_c, 0, 71, 24
1, 972719, Note_on_c, 0, 57, 8
1, 972772, Note_off_c, 0, 57, 51
1, 972834, Note_off_c, 0, 71, 25
1, 972924, Control_c, 0, 64, 80
1, 972939, Control_c, 0, 64, 50
1, 972942, Note_on_c, 0, 34, 111
1, 972945, Note_on_c, 0, 22, 79
1, 972953, Control_c, 0, 64, 19
1, 972955, Note_on_c, 0, 71, 73
1, 972968, Control_c, 0, 64, 48
1, 972971, Note_off_c, 0, 74, 66
1, 972974, Note_off_c, 0, 22, 65
1, 972977, Note_off_c, 0, 71, 70
1, 972978, Note_off_c, 0, 65, 65
1, 972983, Control_c, 0, 64, 68
1, 972989, Note_off_c, 0, 69, 66
1, 972993, Note_off_c, 0, 34, 63
1, 972998, Control_c, 0, 64, 106
1, 973013, Control_c, 0, 64, 127
1, 973274, Note_on_c, 0, 41, 74
1, 973306, Note_on_c, 0, 53, 88
1, 973368, Control_c, 0, 64, 93
1, 973383, Control_c, 0, 64, 68
1, 973406, Control_c, 0, 64, 57
1, 973409, Note_off_c, 0, 53, 51
1, 973413, Note_on_c, 0, 46, 64
1, 973421, Control_c, 0, 64, 58
1, 973426, Note_on_c, 0, 58, 85
1, 973431, Note_off_c, 0, 41, 59
1, 973435, Control_c, 0, 64, 62
1, 973446, Note_on_c, 0, 50, 71
1, 973450, Control_c, 0, 64, 69
1, 973466, Control_c, 0, 64, 81
1, 973481, Control_c, 0, 64, 112
1, 973488, Note_off_c, 0, 46, 62
1, 973496, Control_c, 0, 64, 127
1, 973510, Note_off_c, 0, 50, 64
1, 973512, Note_on_c, 0, 61, 66
1, 973519, Note_off_c, 0, 58, 62
1, 973536, Note_on_c, 0, 53, 73
1, 973541, Note_on_c, 0, 62, 76
1, 973553, Note_off_c, 0, 61, 66
1, 973566, Note_off_c, 0, 62, 69
1, 973574, Note_off_c, 0, 53, 62
1, 973619, Note_on_c, 0, 65, 81
1, 973627, Note_on_c, 0, 54, 69
1, 973667, Note_on_c, 0, 66, 74
1, 973684, Note_off_c, 0, 65, 63
1, 973696, Note_off_c, 0, 54, 65
1, 973703, Control_c, 0, 64, 110
1, 973713, Note_on_c, 0, 56, 70
1, 973718, Control_c, 0, 64, 72
1, 973720, Note_on_c, 0, 67, 83
1, 973721, Note_off_c, 0, 66, 54
1, 973732, Control_c, 0, 64, 49
1, 973747, Control_c, 0, 64, 36
1, 973762, Control_c, 0, 64, 45
1, 973765, Note_on_c, 0, 60, 79
1, 973769, Note_off_c, 0, 56, 63
1, 973775, Note_on_c, 0, 68, 70
1, 973777, Control_c, 0, 64, 59
1, 973792, Control_c, 0, 64, 68
1, 973807, Control_c, 0, 64, 80
1, 973822, Control_c, 0, 64, 127
1, 973826, Note_on_c, 0, 71, 77
1, 973840, Note_off_c, 0, 60, 63
1, 973842, Note_on_c, 0, 56, 51
1, 973846, Note_off_c, 0, 67, 0
1, 973866, Note_off_c, 0, 68, 63
1, 973883, Poly_aftertouch_c, 0, 67, 127
1, 973886, Note_on_c, 0, 53, 66
1, 973892, Note_off_c, 0, 71, 63
1, 973920, Poly_aftertouch_c, 0, 67, 0
1, 973921, Note_off_c, 0, 56, 62
1, 973939, Note_on_c, 0, 66, 81
1, 973954, Note_off_c, 0, 53, 64
1, 973983, Note_on_c, 0, 65, 75
1, 973986, Note_on_c, 0, 52, 86
1, 973994, Note_off_c, 0, 66, 66
1, 974032, Note_on_c, 0, 62, 81
1, 974048, Note_off_c, 0, 52, 66
1, 974052, Note_on_c, 0, 45, 69
1, 974058, Note_off_c, 0, 65, 63
1, 974069, Note_off_c, 0, 62, 65
1, 974082, Note_off_c, 0, 45, 66
1, 974085, Note_on_c, 0, 60, 75
1, 974117, Control_c, 0, 64, 86
1, 974120, Note_off_c, 0, 60, 67
1, 974132, Control_c, 0, 64, 64
1, 974150, Note_on_c, 0, 56, 83
1, 974155, Control_c, 0, 64, 28
1, 974170, Control_c, 0, 64, 0
1, 974195, Note_on_c, 0, 53, 79
1, 974212, Note_off_c, 0, 56, 64
1, 974231, Note_off_c, 0, 53, 66
1, 974259, Note_on_c, 0, 34, 91
1, 974284, Note_off_c, 0, 34, 70
1, 974289, Control_c, 0, 64, 56
1, 974304, Control_c, 0, 64, 85
1, 974319, Control_c, 0, 64, 127
1, 974448, Note_on_c, 0, 44, 58
1, 974449, Note_on_c, 0, 54, 83
1, 974504, Note_off_c, 0, 44, 57
1, 974507, Note_on_c, 0, 58, 80
1, 974513, Note_off_c, 0, 54, 65
1, 974532, Note_on_c, 0, 49, 52
1, 974556, Note_on_c, 0, 59, 59
1, 974570, Note_on_c, 0, 61, 79
1, 974576, Note_off_c, 0, 58, 62
1, 974576, Note_off_c, 0, 49, 65
1, 974588, Note_off_c, 0, 59, 65
1, 974591, Note_on_c, 0, 63, 79
1, 974596, Note_on_c, 0, 54, 77
1, 974615, Note_off_c, 0, 61, 65
1, 974634, Note_off_c, 0, 63, 61
1, 974636, Note_off_c, 0, 54, 61
1, 974668, Note_on_c, 0, 66, 78
1, 974709, Note_on_c, 0, 70, 80
1, 974729, Note_off_c, 0, 66, 61
1, 974732, Control_c, 0, 64, 81
1, 974747, Control_c, 0, 64, 54
1, 974749, Note_on_c, 0, 71, 80
1, 974758, Note_on_c, 0, 57, 50
1, 974762, Control_c, 0, 64, 0
1, 974785, Note_on_c, 0, 60, 64
1, 974792, Note_off_c, 0, 57, 65
1, 974806, Control_c, 0, 64, 22
1, 974812, Note_on_c, 0, 72, 59
1, 974821, Control_c, 0, 64, 54
1, 974825, Note_on_c, 0, 63, 80
1, 974836, Control_c, 0, 64, 64
1, 974851, Control_c, 0, 64, 68
1, 974852, Note_on_c, 0, 75, 89
1, 974852, Note_off_c, 0, 70, 63
1, 974860, Note_off_c, 0, 71, 64
1, 974865, Control_c, 0, 64, 71
1, 974869, Note_off_c, 0, 60, 50
1, 974876, Note_off_c, 0, 72, 61
1, 974880, Control_c, 0, 64, 74
1, 974881, Note_off_c, 0, 63, 62
1, 974903, Control_c, 0, 64, 77
1, 974918, Control_c, 0, 64, 84
1, 974920, Note_on_c, 0, 57, 56
1, 974926, Note_on_c, 0, 71, 78
1, 974932, Control_c, 0, 64, 115
1, 974947, Control_c, 0, 64, 127
1, 974959, Note_off_c, 0, 57, 63
1, 974965, Note_on_c, 0, 70, 86
1, 974991, Note_on_c, 0, 60, 71
1, 974993, Note_off_c, 0, 75, 54
1, 975008, Note_off_c, 0, 71, 62
1, 975018, Note_off_c, 0, 70, 66
1, 975022, Note_off_c, 0, 60, 66
1, 975023, Note_on_c, 0, 67, 84
1, 975025, Note_on_c, 0, 59, 67
1, 975051, Note_off_c, 0, 59, 67
1, 975066, Note_off_c, 0, 67, 63
1, 975094, Note_on_c, 0, 66, 81
1, 975134, Note_on_c, 0, 63, 80
1, 975175, Note_on_c, 0, 60, 81
1, 975178, Note_off_c, 0, 66, 63
1, 975195, Note_off_c, 0, 63, 63
1, 975215, Control_c, 0, 64, 81
1, 975223, Note_on_c, 0, 57, 86
1, 975229, Note_off_c, 0, 60, 65
1, 975229, Control_c, 0, 64, 25
1, 975244, Control_c, 0, 64, 0
1, 975263, Note_off_c, 0, 57, 65
1, 975266, Note_on_c, 0, 34, 88
1, 975303, Control_c, 0, 64, 54
1, 975309, Note_off_c, 0, 34, 61
1, 975319, Control_c, 0, 64, 67
1, 975334, Control_c, 0, 64, 72
1, 975348, Control_c, 0, 64, 78
1, 975363, Control_c, 0, 64, 79
1, 975408, Control_c, 0, 64, 81
1, 975422, Control_c, 0, 64, 83
1, 975437, Control_c, 0, 64, 86
1, 975464, Note_on_c, 0, 64, 64
1, 975465, Note_on_c, 0, 62, 64
1, 975467, Control_c, 0, 64, 84
1, 975470, Note_on_c, 0, 55, 65
1, 975482, Control_c, 0, 64, 82
1, 975483, Note_on_c, 0, 56, 6
1, 975498, Note_off_c, 0, 62, 63
1, 975500, Note_on_c, 0, 67, 79
1, 975504, Note_off_c, 0, 64, 59
1, 975512, Control_c, 0, 64, 83
1, 975527, Note_on_c, 0, 58, 75
1, 975527, Control_c, 0, 64, 85
1, 975533, Note_off_c, 0, 55, 63
1, 975534, Note_off_c, 0, 56, 48
1, 975541, Control_c, 0, 64, 87
1, 975556, Control_c, 0, 64, 90
1, 975559, Note_on_c, 0, 70, 78
1, 975571, Control_c, 0, 64, 96
1, 975578, Note_off_c, 0, 58, 61
1, 975586, Control_c, 0, 64, 105
1, 975592, Note_on_c, 0, 73, 83
1, 975597, Note_off_c, 0, 67, 64
1, 975601, Control_c, 0, 64, 127
1, 975622, Note_off_c, 0, 70, 67
1, 975635, Note_off_c, 0, 73, 67
1, 975664, Note_on_c, 0, 74, 83
1, 975668, Note_on_c, 0, 64, 22
1, 975706, Poly_aftertouch_c, 0, 62, 0
1, 975707, Note_on_c, 0, 77, 90
1, 975721, Note_off_c, 0, 64, 0
1, 975734, Note_on_c, 0, 64, 45
1, 975736, Note_off_c, 0, 74, 64
1, 975747, Poly_aftertouch_c, 0, 61, 127
1, 975757, Note_on_c, 0, 78, 88
1, 975781, Poly_aftertouch_c, 0, 61, 0
1, 975786, Control_c, 0, 64, 69
1, 975789, Note_on_c, 0, 79, 86
1, 975801, Note_off_c, 0, 64, 60
1, 975801, Control_c, 0, 64, 47
1, 975808, Note_on_c, 0, 69, 52
1, 975816, Control_c, 0, 64, 32
1, 975822, Note_on_c, 0, 67, 55
1, 975830, Control_c, 0, 64, 44
1, 975842, Note_off_c, 0, 67, 62
1, 975845, Control_c, 0, 64, 60
1, 975861, Control_c, 0, 64, 71
1, 975862, Note_off_c, 0, 78, 65
1, 975866, Note_off_c, 0, 77, 64
1, 975870, Note_on_c, 0, 82, 93
1, 975870, Note_off_c, 0, 69, 65
1, 975875, Control_c, 0, 64, 110
1, 975890, Control_c, 0, 64, 127
1, 975917, Note_on_c, 0, 65, 62
1, 975926, Note_on_c, 0, 78, 86
1, 975947, Note_off_c, 0, 65, 65
1, 975956, Note_on_c, 0, 77, 97
1, 975956, Note_off_c, 0, 79, 55
1, 975977, Poly_aftertouch_c, 0, 70, 0
1, 975985, Note_on_c, 0, 65, 64
1, 975996, Note_off_c, 0, 82, 63
1, 976002, Note_off_c, 0, 78, 65
1, 976004, Note_off_c, 0, 77, 63
1, 976010, Note_off_c, 0, 65, 66
1, 976014, Note_on_c, 0, 76, 88
1, 976035, Note_off_c, 0, 76, 72
1, 976072, Note_on_c, 0, 64, 59
1, 976078, Note_on_c, 0, 73, 94
1, 976081, Note_on_c, 0, 61, 83
1, 976104, Note_off_c, 0, 64, 65
1, 976115, Note_on_c, 0, 70, 83
1, 976120, Note_off_c, 0, 61, 63
1, 976144, Note_on_c, 0, 60, 13
1, 976145, Note_off_c, 0, 60, 127
1, 976153, Note_off_c, 0, 73, 61
1, 976157, Control_c, 0, 64, 96
1, 976159, Note_on_c, 0, 67, 83
1, 976171, Control_c, 0, 64, 66
1, 976186, Note_off_c, 0, 70, 65
1, 976186, Control_c, 0, 64, 23
1, 976187, Poly_aftertouch_c, 0, 60, 0
1, 976201, Control_c, 0, 64, 0
1, 976212, Note_on_c, 0, 64, 76
1, 976215, Note_off_c, 0, 67, 56
1, 976269, Note_off_c, 0, 64, 65
1, 976283, Note_on_c, 0, 34, 91
1, 976322, Note_off_c, 0, 34, 61
1, 976334, Control_c, 0, 64, 67
1, 976349, Control_c, 0, 64, 82
1, 976364, Control_c, 0, 64, 127
1, 976455, Note_on_c, 0, 66, 79
1, 976470, Note_on_c, 0, 54, 54
1, 976501, Note_on_c, 0, 70, 83
1, 976518, Note_off_c, 0, 66, 60
1, 976532, Note_off_c, 0, 54, 54
1, 976556, Note_on_c, 0, 62, 54
1, 976568, Note_on_c, 0, 73, 83
1, 976580, Note_on_c, 0, 75, 86
1, 976586, Note_off_c, 0, 70, 65
1, 976591, Note_off_c, 0, 62, 64
1, 976608, Note_off_c, 0, 73, 67
1, 976609, Note_on_c, 0, 66, 85
1, 976620, Note_off_c, 0, 75, 64
1, 976657, Note_on_c, 0, 78, 82
1, 976665, Note_off_c, 0, 66, 62
1, 976699, Note_on_c, 0, 82, 81
1, 976713, Control_c, 0, 64, 110
1, 976728, Control_c, 0, 64, 75
1, 976736, Note_off_c, 0, 78, 63
1, 976743, Control_c, 0, 64, 65
1, 976747, Note_on_c, 0, 69, 49
1, 976750, Note_on_c, 0, 83, 75
1, 976751, Note_on_c, 0, 84, 69
1, 976754, Note_on_c, 0, 73, 68
1, 976758, Control_c, 0, 64, 66
1, 976773, Control_c, 0, 64, 72
1, 976783, Note_off_c, 0, 73, 67
1, 976788, Control_c, 0, 64, 92
1, 976797, Note_off_c, 0, 69, 61
1, 976802, Note_on_c, 0, 72, 57
1, 976802, Control_c, 0, 64, 127
1, 976830, Note_on_c, 0, 75, 84
1, 976830, Note_on_c, 0, 87, 95
1, 976839, Note_off_c, 0, 82, 40
1, 976841, Note_off_c, 0, 72, 59
1, 976843, Note_off_c, 0, 83, 65
1, 976845, Note_off_c, 0, 84, 64
1, 976846, Poly_aftertouch_c, 0, 85, 127
1, 976865, Poly_aftertouch_c, 0, 85, 0
1, 976871, Note_off_c, 0, 75, 65
1, 976913, Note_on_c, 0, 83, 69
1, 976915, Note_on_c, 0, 84, 67
1, 976922, Note_on_c, 0, 69, 70
1, 976939, Note_on_c, 0, 82, 94
1, 976946, Note_off_c, 0, 69, 68
1, 976969, Note_off_c, 0, 87, 63
1, 976983, Note_off_c, 0, 84, 62
1, 976984, Note_on_c, 0, 72, 79
1, 976984, Note_off_c, 0, 83, 62
1, 977000, Note_off_c, 0, 82, 65
1, 977003, Note_on_c, 0, 79, 88
1, 977021, Note_off_c, 0, 72, 66
1, 977026, Note_off_c, 0, 79, 70
1, 977071, Note_on_c, 0, 78, 89
1, 977114, Note_on_c, 0, 75, 78
1, 977148, Note_off_c, 0, 78, 66
1, 977166, Note_on_c, 0, 72, 74
1, 977169, Note_on_c, 0, 71, 64
1, 977180, Control_c, 0, 64, 74
1, 977181, Note_off_c, 0, 75, 65
1, 977195, Control_c, 0, 64, 45
1, 977199, Note_off_c, 0, 71, 58
1, 977209, Control_c, 0, 64, 0
1, 977212, Note_off_c, 0, 72, 62
1, 977216, Note_on_c, 0, 67, 80
1, 977261, Note_on_c, 0, 34, 80
1, 977274, Note_off_c, 0, 67, 62
1, 977283, Control_c, 0, 64, 31
1, 977296, Note_off_c, 0, 34, 64
1, 977298, Control_c, 0, 64, 65
1, 977313, Control_c, 0, 64, 76
1, 977327, Control_c, 0, 64, 96
1, 977342, Control_c, 0, 64, 127
1, 977401, Note_on_c, 0, 76, 75
1, 977426, Note_on_c, 0, 71, 74
1, 977434, Note_on_c, 0, 60, 73
1, 977470, Note_off_c, 0, 60, 65
1, 977480, Note_off_c, 0, 76, 60
1, 977488, Note_on_c, 0, 65, 63
1, 977496, Note_off_c, 0, 71, 62
1, 977513, Note_on_c, 0, 64, 70
1, 977527, Note_off_c, 0, 65, 53
1, 977559, Note_off_c, 0, 64, 61
1, 977566, Control_c, 0, 64, 97
1, 977572, Note_on_c, 0, 73, 94
1, 977580, Control_c, 0, 64, 83
1, 977593, Note_on_c, 0, 79, 54
1, 977595, Control_c, 0, 64, 83
1, 977602, Note_on_c, 0, 63, 73
1, 977610, Control_c, 0, 64, 91
1, 977613, Note_off_c, 0, 79, 60
1, 977615, Note_on_c, 0, 77, 27
1, 977617, Note_off_c, 0, 73, 69
1, 977625, Control_c, 0, 64, 114
1, 977640, Control_c, 0, 64, 127
1, 977642, Note_off_c, 0, 77, 47
1, 977670, Note_on_c, 0, 68, 81
1, 977674, Note_off_c, 0, 63, 61
1, 977688, Note_on_c, 0, 62, 80
1, 977709, Note_off_c, 0, 68, 59
1, 977721, Poly_aftertouch_c, 0, 72, 0
1, 977726, Note_off_c, 0, 62, 61
1, 977729, Control_c, 0, 64, 101
1, 977743, Control_c, 0, 64, 75
1, 977744, Note_on_c, 0, 80, 94
1, 977758, Control_c, 0, 64, 66
1, 977763, Note_on_c, 0, 77, 58
1, 977766, Note_on_c, 0, 76, 60
1, 977773, Control_c, 0, 64, 67
1, 977783, Note_on_c, 0, 60, 45
1, 977788, Control_c, 0, 64, 73
1, 977803, Control_c, 0, 64, 89
1, 977807, Note_off_c, 0, 76, 65
1, 977810, Note_off_c, 0, 77, 62
1, 977817, Control_c, 0, 64, 127
1, 977831, Note_on_c, 0, 69, 69
1, 977831, Note_off_c, 0, 80, 63
1, 977846, Note_on_c, 0, 71, 55
1, 977858, Note_off_c, 0, 69, 65
1, 977867, Note_off_c, 0, 71, 61
1, 977867, Note_off_c, 0, 60, 55
1, 977882, Note_on_c, 0, 51, 72
1, 977908, Note_on_c, 0, 80, 97
1, 977916, Note_on_c, 0, 84, 81
1, 977948, Note_off_c, 0, 84, 61
1, 977950, Note_on_c, 0, 81, 40
1, 977955, Note_off_c, 0, 80, 66
1, 977972, Note_off_c, 0, 81, 59
1, 978046, Note_on_c, 0, 77, 95
1, 978048, Note_on_c, 0, 83, 91
1, 978056, Note_on_c, 0, 89, 81
1, 978065, Note_off_c, 0, 83, 75
1, 978078, Note_off_c, 0, 77, 61
1, 978078, Note_off_c, 0, 89, 70
1, 978090, Note_on_c, 0, 88, 25
1, 978091, Note_off_c, 0, 88, 127
1, 978113, Note_on_c, 0, 89, 97
1, 978117, Note_on_c, 0, 77, 98
1, 978128, Note_on_c, 0, 83, 88
1, 978140, Note_on_c, 0, 84, 74
1, 978153, Note_off_c, 0, 84, 68
1, 978154, Note_off_c, 0, 83, 64
1, 978157, Note_off_c, 0, 89, 68
1, 978164, Note_on_c, 0, 50, 76
1, 978172, Note_off_c, 0, 77, 67
1, 978188, Note_off_c, 0, 51, 58
1, 978199, Note_off_c, 0, 50, 66
1, 978270, Control_c, 0, 64, 87
1, 978284, Note_on_c, 0, 32, 82
1, 978285, Control_c, 0, 64, 68
1, 978293, Note_on_c, 0, 34, 75
1, 978300, Control_c, 0, 64, 67
1, 978315, Control_c, 0, 64, 73
1, 978316, Note_off_c, 0, 32, 66
1, 978317, Note_off_c, 0, 34, 64
1, 978329, Control_c, 0, 64, 91
1, 978341, Note_on_c, 0, 76, 13
1, 978344, Control_c, 0, 64, 127
1, 978405, Note_off_c, 0, 76, 0
1, 978405, Note_on_c, 0, 76, 18
1, 978424, Note_on_c, 0, 73, 88
1, 978431, Note_on_c, 0, 78, 79
1, 978433, Note_on_c, 0, 58, 70
1, 978438, Note_off_c, 0, 76, 62
1, 978450, Note_on_c, 0, 66, 84
1, 978465, Note_on_c, 0, 62, 69
1, 978468, Note_off_c, 0, 58, 61
1, 978506, Note_off_c, 0, 78, 61
1, 978511, Note_off_c, 0, 66, 65
1, 978515, Note_off_c, 0, 62, 64
1, 978516, Note_off_c, 0, 73, 61
1, 978527, Note_on_c, 0, 67, 80
1, 978552, Control_c, 0, 64, 98
1, 978566, Control_c, 0, 64, 66
1, 978581, Note_on_c, 0, 79, 86
1, 978581, Control_c, 0, 64, 53
1, 978582, Note_on_c, 0, 74, 90
1, 978585, Note_off_c, 0, 67, 62
1, 978596, Control_c, 0, 64, 53
1, 978611, Control_c, 0, 64, 60
1, 978617, Note_on_c, 0, 66, 70
1, 978626, Control_c, 0, 64, 68
1, 978645, Note_on_c, 0, 69, 79
1, 978648, Control_c, 0, 64, 82
1, 978650, Note_off_c, 0, 79, 66
1, 978654, Note_off_c, 0, 74, 64
1, 978663, Control_c, 0, 64, 127
1, 978667, Note_off_c, 0, 69, 71
1, 978672, Note_off_c, 0, 66, 63
1, 978709, Note_on_c, 0, 65, 75
1, 978737, Note_off_c, 0, 65, 61
1, 978742, Note_on_c, 0, 82, 100
1, 978759, Note_on_c, 0, 62, 70
1, 978777, Note_on_c, 0, 80, 59
1, 978778, Note_on_c, 0, 61, 55
1, 978779, Note_off_c, 0, 61, 127
1, 978781, Note_on_c, 0, 83, 42
1, 978794, Note_off_c, 0, 62, 65
1, 978806, Note_off_c, 0, 83, 58
1, 978812, Note_on_c, 0, 70, 97
1, 978814, Note_off_c, 0, 80, 64
1, 978827, Note_on_c, 0, 62, 76
1, 978841, Note_off_c, 0, 82, 60
1, 978856, Note_off_c, 0, 70, 67
1, 978887, Note_off_c, 0, 62, 61
1, 978916, Note_on_c, 0, 82, 99
1, 978918, Note_on_c, 0, 86, 89
1, 978919, Note_on_c, 0, 53, 78
1, 978920, Note_on_c, 0, 55, 75
1, 978940, Note_on_c, 0, 74, 94
1, 978955, Note_off_c, 0, 82, 67
1, 978974, Note_off_c, 0, 86, 64
1, 978975, Note_off_c, 0, 74, 63
1, 979030, Note_off_c, 0, 55, 63
1, 979102, Note_on_c, 0, 85, 107
1, 979103, Note_on_c, 0, 79, 108
1, 979116, Note_on_c, 0, 91, 82
1, 979127, Note_off_c, 0, 85, 66
1, 979131, Note_off_c, 0, 91, 70
1, 979131, Note_off_c, 0, 79, 70
1, 979168, Note_on_c, 0, 91, 108
1, 979170, Note_on_c, 0, 79, 104
1, 979170, Note_on_c, 0, 85, 101
1, 979216, Note_off_c, 0, 53, 64
1, 979222, Note_on_c, 0, 50, 78
1, 979229, Note_on_c, 0, 52, 78
1, 979253, Note_off_c, 0, 52, 55
1, 979271, Note_off_c, 0, 50, 65
1, 979330, Control_c, 0, 64, 85
1, 979345, Control_c, 0, 64, 50
1, 979360, Control_c, 0, 64, 0
1, 979396, Control_c, 0, 64, 37
1, 979397, Note_on_c, 0, 34, 97
1, 979403, Note_on_c, 0, 32, 78
1, 979411, Control_c, 0, 64, 72
1, 979421, Note_off_c, 0, 34, 71
1, 979426, Control_c, 0, 64, 127
1, 979436, Note_off_c, 0, 32, 64
1, 979438, Note_off_c, 0, 79, 66
1, 979459, Note_off_c, 0, 85, 65
1, 979462, Note_off_c, 0, 91, 64
1, 979606, Note_on_c, 0, 54, 79
1, 979645, Note_on_c, 0, 53, 50
1, 979650, Note_on_c, 0, 87, 95
1, 979650, Note_on_c, 0, 99, 92
1, 979664, Note_on_c, 0, 97, 79
1, 979670, Note_off_c, 0, 87, 67
1, 979671, Note_off_c, 0, 53, 57
1, 979679, Note_off_c, 0, 97, 66
1, 979692, Note_off_c, 0, 99, 65
1, 979716, Note_off_c, 0, 54, 63
1, 979718, Note_on_c, 0, 59, 61
1, 979726, Note_on_c, 0, 68, 103
1, 979736, Note_on_c, 0, 92, 110
1, 979742, Note_on_c, 0, 104, 103
1, 979764, Note_on_c, 0, 63, 56
1, 979779, Note_off_c, 0, 92, 67
1, 979780, Note_off_c, 0, 68, 64
1, 979787, Note_off_c, 0, 104, 64
1, 979858, Note_on_c, 0, 54, 73
1, 979923, Note_off_c, 0, 59, 63
1, 979924, Note_off_c, 0, 63, 62
1, 979934, Note_off_c, 0, 54, 65
1, 979946, Note_on_c, 0, 67, 92
1, 979961, Note_on_c, 0, 91, 103
1, 979961, Note_on_c, 0, 103, 100
1, 980001, Note_off_c, 0, 91, 69
1, 980007, Note_off_c, 0, 67, 63
1, 980007, Note_off_c, 0, 103, 66
1, 980109, Note_on_c, 0, 60, 74
1, 980114, Note_on_c, 0, 99, 80
1, 980117, Note_on_c, 0, 87, 80
1, 980144, Note_off_c, 0, 87, 71
1, 980144, Note_off_c, 0, 99, 65
1, 980152, Note_off_c, 0, 60, 63
1, 980163, Note_on_c, 0, 70, 97
1, 980183, Note_on_c, 0, 91, 94
1, 980186, Note_on_c, 0, 103, 97
1, 980203, Note_on_c, 0, 93, 58
1, 980204, Note_off_c, 0, 93, 127
1, 980204, Note_on_c, 0, 105, 52
1, 980205, Note_off_c, 0, 105, 127
1, 980223, Note_off_c, 0, 91, 68
1, 980223, Note_off_c, 0, 103, 66
1, 980255, Note_off_c, 0, 70, 59
1, 980272, Poly_aftertouch_c, 0, 68, 0
1, 980306, Note_on_c, 0, 58, 80
1, 980308, Note_on_c, 0, 56, 81
1, 980317, Note_on_c, 0, 87, 87
1, 980327, Note_on_c, 0, 99, 67
1, 980333, Note_off_c, 0, 56, 69
1, 980337, Note_off_c, 0, 87, 70
1, 980342, Note_off_c, 0, 99, 65
1, 980371, Note_on_c, 0, 71, 97
1, 980376, Note_off_c, 0, 58, 59
1, 980377, Note_on_c, 0, 102, 102
1, 980380, Note_on_c, 0, 90, 89
1, 980382, Note_on_c, 0, 63, 79
1, 980383, Note_on_c, 0, 65, 64
1, 980386, Note_on_c, 0, 92, 95
1, 980402, Note_off_c, 0, 92, 74
1, 980406, Note_on_c, 0, 103, 53
1, 980407, Note_off_c, 0, 103, 127
1, 980408, Note_on_c, 0, 66, 39
1, 980411, Poly_aftertouch_c, 0, 57, 127
1, 980416, Note_off_c, 0, 90, 67
1, 980423, Note_off_c, 0, 102, 65
1, 980425, Note_off_c, 0, 71, 63
1, 980435, Poly_aftertouch_c, 0, 57, 0
1, 980435, Note_off_c, 0, 66, 35
1, 980448, Note_off_c, 0, 63, 62
1, 980502, Note_on_c, 0, 56, 75
1, 980511, Note_off_c, 0, 65, 56
1, 980513, Note_on_c, 0, 85, 86
1, 980515, Note_on_c, 0, 97, 76
1, 980532, Note_off_c, 0, 85, 72
1, 980535, Note_off_c, 0, 97, 64
1, 980541, Note_on_c, 0, 65, 66
1, 980547, Note_on_c, 0, 63, 88
1, 980566, Note_off_c, 0, 65, 70
1, 980572, Note_on_c, 0, 90, 106
1, 980579, Note_on_c, 0, 101, 96
1, 980580, Note_off_c, 0, 63, 68
1, 980582, Note_on_c, 0, 99, 90
1, 980582, Note_off_c, 0, 56, 64
1, 980594, Note_on_c, 0, 100, 79
1, 980609, Note_off_c, 0, 100, 64
1, 980623, Note_off_c, 0, 101, 60
1, 980668, Note_off_c, 0, 99, 61
1, 980707, Note_on_c, 0, 99, 72
1, 980723, Control_c, 0, 64, 71
1, 980729, Note_off_c, 0, 90, 61
1, 980736, Note_on_c, 0, 89, 60
1, 980738, Control_c, 0, 64, 26
1, 980753, Control_c, 0, 64, 0
1, 980755, Note_off_c, 0, 89, 61
1, 980757, Note_on_c, 0, 46, 106
1, 980764, Note_on_c, 0, 100, 51
1, 980767, Control_c, 0, 64, 53
1, 980772, Note_on_c, 0, 34, 71
1, 980782, Control_c, 0, 64, 75
1, 980788, Note_off_c, 0, 46, 66
1, 980790, Note_off_c, 0, 99, 63
1, 980797, Control_c, 0, 64, 127
1, 980800, Note_off_c, 0, 34, 58
1, 980829, Note_off_c, 0, 100, 55
1, 980874, Poly_aftertouch_c, 0, 47, 0
1, 980880, Note_on_c, 0, 88, 71
1, 980898, Note_on_c, 0, 95, 77
1, 980903, Note_off_c, 0, 88, 68
1, 980918, Note_on_c, 0, 54, 80
1, 980931, Note_off_c, 0, 95, 65
1, 980943, Note_on_c, 0, 58, 52
1, 980961, Note_on_c, 0, 96, 66
1, 980967, Note_on_c, 0, 67, 92
1, 980970, Note_on_c, 0, 104, 77
1, 980971, Note_on_c, 0, 94, 84
1, 980972, Note_on_c, 0, 92, 92
1, 980977, Note_off_c, 0, 58, 57
1, 980980, Note_on_c, 0, 102, 83
1, 980980, Note_on_c, 0, 105, 81
1, 980985, Note_on_c, 0, 62, 70
1, 980988, Note_off_c, 0, 54, 65
1, 980993, Note_off_c, 0, 94, 68
1, 981004, Note_off_c, 0, 102, 69
1, 981004, Note_off_c, 0, 105, 64
1, 981017, Note_off_c, 0, 92, 65
1, 981017, Note_on_c, 0, 60, 43
1, 981017, Note_off_c, 0, 96, 59
1, 981020, Note_off_c, 0, 67, 62
1, 981022, Note_off_c, 0, 104, 63
1, 981032, Poly_aftertouch_c, 0, 56, 0
1, 981077, Note_off_c, 0, 62, 0
1, 981091, Note_off_c, 0, 60, 0
1, 981091, Note_on_c, 0, 60, 31
1, 981097, Note_on_c, 0, 54, 87
1, 981100, Note_on_c, 0, 94, 89
1, 981113, Note_on_c, 0, 95, 93
1, 981115, Poly_aftertouch_c, 0, 62, 127
1, 981139, Note_on_c, 0, 89, 22
1, 981140, Note_off_c, 0, 89, 127
1, 981140, Note_off_c, 0, 94, 59
1, 981142, Note_off_c, 0, 60, 65
1, 981153, Note_off_c, 0, 54, 65
1, 981162, Note_on_c, 0, 68, 100
1, 981164, Note_on_c, 0, 92, 111
1, 981164, Note_on_c, 0, 104, 99
1, 981174, Note_on_c, 0, 102, 93
1, 981183, Poly_aftertouch_c, 0, 62, 0
1, 981186, Note_off_c, 0, 95, 64
1, 981196, Note_off_c, 0, 102, 66
1, 981205, Note_off_c, 0, 92, 68
1, 981209, Note_off_c, 0, 68, 58
1, 981212, Note_off_c, 0, 104, 65
1, 981302, Note_on_c, 0, 65, 7
1, 981304, Note_on_c, 0, 87, 94
1, 981323, Note_on_c, 0, 59, 66
1, 981327, Note_off_c, 0, 87, 64
1, 981333, Note_on_c, 0, 99, 42
1, 981354, Note_off_c, 0, 65, 49
1, 981360, Note_on_c, 0, 60, 16
1, 981361, Note_off_c, 0, 60, 127
1, 981361, Note_off_c, 0, 99, 36
1, 981361, Note_on_c, 0, 71, 80
1, 981363, Note_on_c, 0, 64, 72
1, 981363, Note_on_c, 0, 69, 85
1, 981378, Note_on_c, 0, 67, 70
1, 981383, Note_off_c, 0, 59, 65
1, 981387, Note_on_c, 0, 91, 94
1, 981393, Note_on_c, 0, 103, 78
1, 981394, Note_on_c, 0, 105, 84
1, 981408, Note_on_c, 0, 93, 62
1, 981409, Note_off_c, 0, 93, 127
1, 981412, Note_off_c, 0, 71, 59
1, 981418, Note_off_c, 0, 105, 69
1, 981419, Note_off_c, 0, 103, 69
1, 981426, Note_off_c, 0, 91, 67
1, 981459, Note_off_c, 0, 69, 53
1, 981491, Note_off_c, 0, 67, 60
1, 981497, Note_on_c, 0, 59, 90
1, 981498, Note_off_c, 0, 64, 62
1, 981537, Note_on_c, 0, 87, 62
1, 981541, Note_on_c, 0, 85, 64
1, 981555, Note_off_c, 0, 87, 66
1, 981557, Note_off_c, 0, 85, 65
1, 981575, Note_on_c, 0, 69, 92
1, 981579, Note_off_c, 0, 59, 0
1, 981589, Note_on_c, 0, 90, 100
1, 981592, Note_on_c, 0, 102, 105
1, 981603, Note_on_c, 0, 92, 81
1, 981612, Poly_aftertouch_c, 0, 59, 0
1, 981617, Note_off_c, 0, 92, 69
1, 981626, Note_off_c, 0, 90, 68
1, 981640, Note_off_c, 0, 102, 64
1, 981640, Note_on_c, 0, 63, 27
1, 981642, Note_on_c, 0, 65, 36
1, 981673, Note_off_c, 0, 63, 49
1, 981700, Note_off_c, 0, 69, 62
1, 981728, Note_on_c, 0, 56, 80
1, 981739, Note_off_c, 0, 65, 37
1, 981741, Note_on_c, 0, 85, 90
1, 981755, Note_on_c, 0, 97, 63
1, 981757, Note_on_c, 0, 58, 49
1, 981758, Note_off_c, 0, 85, 73
1, 981775, Note_off_c, 0, 56, 67
1, 981775, Note_off_c, 0, 97, 40
1, 981787, Note_on_c, 0, 65, 86
1, 981793, Note_on_c, 0, 63, 85
1, 981804, Note_on_c, 0, 71, 79
1, 981804, Note_on_c, 0, 90, 109
1, 981805, Note_on_c, 0, 102, 101
1, 981807, Note_on_c, 0, 66, 61
1, 981817, Note_on_c, 0, 99, 84
1, 981819, Note_off_c, 0, 71, 67
1, 981827, Note_off_c, 0, 65, 67
1, 981829, Note_off_c, 0, 66, 42
1, 981837, Note_off_c, 0, 99, 70
1, 981838, Note_off_c, 0, 63, 66
1, 981858, Note_off_c, 0, 58, 34
1, 981859, Note_off_c, 0, 102, 67
1, 981884, Poly_aftertouch_c, 0, 61, 127
1, 981908, Poly_aftertouch_c, 0, 61, 0
1, 981916, Note_on_c, 0, 97, 25
1, 981947, Note_on_c, 0, 94, 27
1, 981951, Note_off_c, 0, 97, 47
1, 981957, Note_off_c, 0, 90, 56
1, 981987, Note_off_c, 0, 94, 48
1, 981995, Note_on_c, 0, 100, 93
1, 982013, Control_c, 0, 64, 103
1, 982021, Note_on_c, 0, 99, 48
1, 982022, Note_off_c, 0, 99, 127
1, 982028, Control_c, 0, 64, 54
1, 982043, Control_c, 0, 64, 0
1, 982053, Note_off_c, 0, 100, 70
1, 982055, Note_on_c, 0, 46, 117
1, 982063, Note_on_c, 0, 34, 89
1, 982083, Note_off_c, 0, 34, 67
1, 982087, Control_c, 0, 64, 70
1, 982092, Note_off_c, 0, 46, 68
1, 982102, Control_c, 0, 64, 127
1, 982193, Note_on_c, 0, 92, 39
1, 982206, Poly_aftertouch_c, 0, 34, 127
1, 982223, Note_off_c, 0, 92, 44
1, 982249, Poly_aftertouch_c, 0, 34, 0
1, 982302, Note_on_c, 0, 55, 73
1, 982309, Note_on_c, 0, 91, 84
1, 982324, Note_on_c, 0, 89, 73
1, 982328, Note_on_c, 0, 57, 49
1, 982341, Note_off_c, 0, 89, 66
1, 982356, Note_off_c, 0, 57, 36
1, 982356, Note_off_c, 0, 91, 64
1, 982401, Note_on_c, 0, 87, 89
1, 982404, Note_on_c, 0, 91, 72
1, 982413, Note_on_c, 0, 84, 64
1, 982426, Note_off_c, 0, 87, 64
1, 982427, Note_off_c, 0, 91, 67
1, 982428, Note_off_c, 0, 84, 65
1, 982430, Note_on_c, 0, 67, 76
1, 982475, Note_on_c, 0, 91, 95
1, 982476, Note_on_c, 0, 87, 83
1, 982476, Note_on_c, 0, 96, 87
1, 982477, Note_on_c, 0, 60, 33
1, 982478, Note_on_c, 0, 84, 93
1, 982497, Note_off_c, 0, 84, 69
1, 982502, Note_off_c, 0, 87, 64
1, 982502, Note_off_c, 0, 96, 64
1, 982504, Note_on_c, 0, 63, 34
1, 982514, Note_off_c, 0, 91, 65
1, 982520, Note_off_c, 0, 67, 59
1, 982521, Note_off_c, 0, 55, 63
1, 982552, Note_on_c, 0, 84, 103
1, 982552, Note_on_c, 0, 91, 92
1, 982553, Note_on_c, 0, 96, 95
1, 982556, Note_on_c, 0, 87, 101
1, 982571, Note_off_c, 0, 63, 53
1, 982579, Note_off_c, 0, 96, 65
1, 982585, Note_off_c, 0, 84, 67
1, 982597, Note_off_c, 0, 91, 68
1, 982598, Note_off_c, 0, 87, 68
1, 982627, Note_on_c, 0, 68, 105
1, 982631, Note_on_c, 0, 63, 91
1, 982637, Note_on_c, 0, 56, 93
1, 982649, Note_on_c, 0, 58, 72
1, 982656, Note_off_c, 0, 68, 69
1, 982677, Note_off_c, 0, 63, 66
1, 982677, Note_off_c, 0, 60, 60
1, 982681, Note_off_c, 0, 58, 67
1, 982692, Note_on_c, 0, 90, 106
1, 982693, Note_off_c, 0, 90, 127
1, 982696, Note_off_c, 0, 56, 66
1, 982701, Note_on_c, 0, 87, 82
1, 982703, Note_on_c, 0, 91, 91
1, 982705, Note_on_c, 0, 83, 88
1, 982711, Note_on_c, 0, 55, 9
1, 982712, Note_off_c, 0, 87, 72
1, 982713, Note_on_c, 0, 81, 66
1, 982718, Note_on_c, 0, 95, 65
1, 982723, Note_off_c, 0, 91, 71
1, 982729, Note_off_c, 0, 81, 65
1, 982733, Note_off_c, 0, 83, 56
1, 982749, Note_on_c, 0, 90, 46
1, 982750, Note_off_c, 0, 90, 127
1, 982750, Note_off_c, 0, 95, 0
1, 982758, Note_on_c, 0, 95, 81
1, 982761, Note_on_c, 0, 87, 85
1, 982761, Note_off_c, 0, 55, 51
1, 982761, Control_c, 0, 64, 72
1, 982762, Note_on_c, 0, 91, 94
1, 982776, Control_c, 0, 64, 0
1, 982782, Poly_aftertouch_c, 0, 83, 127
1, 982807, Control_c, 0, 64, 49
1, 982810, Note_on_c, 0, 46, 108
1, 982821, Control_c, 0, 64, 80
1, 982830, Note_on_c, 0, 44, 59
1, 982836, Control_c, 0, 64, 127
1, 982842, Note_off_c, 0, 46, 68
1, 982857, Note_off_c, 0, 44, 60
1, 982896, Poly_aftertouch_c, 0, 34, 127
1, 982929, Note_off_c, 0, 95, 63
1, 982936, Poly_aftertouch_c, 0, 83, 0
1, 982940, Poly_aftertouch_c, 0, 34, 0
1, 982954, Note_off_c, 0, 87, 63
1, 982961, Note_off_c, 0, 91, 65
1, 982976, Note_on_c, 0, 68, 112
1, 982987, Note_on_c, 0, 56, 88
1, 983017, Note_on_c, 0, 91, 84
1, 983020, Note_on_c, 0, 87, 87
1, 983023, Note_on_c, 0, 83, 86
1, 983030, Note_off_c, 0, 68, 59
1, 983031, Note_on_c, 0, 95, 77
1, 983038, Note_on_c, 0, 84, 62
1, 983042, Note_off_c, 0, 83, 72
1, 983042, Note_off_c, 0, 87, 72
1, 983045, Note_off_c, 0, 95, 69
1, 983045, Note_off_c, 0, 56, 62
1, 983047, Note_off_c, 0, 91, 65
1, 983057, Note_off_c, 0, 84, 45
1, 983092, Note_on_c, 0, 83, 97
1, 983092, Note_on_c, 0, 87, 100
1, 983092, Note_on_c, 0, 91, 91
1, 983093, Note_on_c, 0, 95, 96
1, 983104, Note_on_c, 0, 84, 84
1, 983116, Note_off_c, 0, 84, 71
1, 983128, Note_off_c, 0, 83, 67
1, 983129, Note_off_c, 0, 95, 63
1, 983156, Note_off_c, 0, 91, 66
1, 983156, Note_off_c, 0, 87, 65
1, 983176, Note_on_c, 0, 69, 108
1, 983184, Note_on_c, 0, 57, 85
1, 983188, Note_on_c, 0, 63, 79
1, 983211, Note_on_c, 0, 62, 47
1, 983222, Note_on_c, 0, 59, 38
1, 983232, Note_off_c, 0, 69, 0
1, 983238, Note_off_c, 0, 63, 0
1, 983250, Note_on_c, 0, 91, 94
1, 983251, Note_on_c, 0, 82, 111
1, 983251, Note_off_c, 0, 62, 0
1, 983252, Note_on_c, 0, 87, 98
1, 983252, Note_off_c, 0, 59, 59
1, 983253, Poly_aftertouch_c, 0, 60, 127
1, 983259, Note_on_c, 0, 94, 85
1, 983266, Note_on_c, 0, 62, 53
1, 983268, Poly_aftertouch_c, 0, 69, 0
1, 983271, Note_off_c, 0, 87, 70
1, 983273, Note_off_c, 0, 94, 71
1, 983275, Poly_aftertouch_c, 0, 63, 127
1, 983280, Note_off_c, 0, 82, 68
1, 983286, Note_off_c, 0, 91, 60
1, 983295, Note_off_c, 0, 62, 64
1, 983295, Poly_aftertouch_c, 0, 63, 0
1, 983298, Poly_aftertouch_c, 0, 60, 0
1, 983303, Note_off_c, 0, 57, 68
1, 983317, Note_on_c, 0, 82, 96
1, 983319, Note_on_c, 0, 91, 84
1, 983319, Note_on_c, 0, 94, 97
1, 983325, Note_on_c, 0, 87, 96
1, 983349, Control_c, 0, 64, 109
1, 983363, Control_c, 0, 64, 61
1, 983378, Control_c, 0, 64, 0
1, 983408, Note_on_c, 0, 46, 106
1, 983408, Control_c, 0, 64, 67
1, 983423, Control_c, 0, 64, 127
1, 983426, Note_on_c, 0, 34, 74
1, 983441, Note_off_c, 0, 46, 68
1, 983454, Note_off_c, 0, 34, 58
1, 983505, Note_off_c, 0, 94, 63
1, 983507, Note_off_c, 0, 82, 64
1, 983521, Note_off_c, 0, 87, 60
1, 983527, Note_off_c, 0, 91, 64
1, 983565, Note_on_c, 0, 69, 103
1, 983574, Note_on_c, 0, 56, 67
1, 983581, Note_on_c, 0, 63, 76
1, 983586, Note_on_c, 0, 57, 79
1, 983594, Note_off_c, 0, 56, 64
1, 983628, Note_off_c, 0, 57, 58
1, 983642, Note_on_c, 0, 82, 114
1, 983642, Note_on_c, 0, 87, 93
1, 983651, Note_on_c, 0, 94, 88
1, 983653, Note_off_c, 0, 69, 43
1, 983660, Note_off_c, 0, 87, 72
1, 983666, Poly_aftertouch_c, 0, 60, 127
1, 983670, Note_off_c, 0, 82, 69
1, 983672, Note_off_c, 0, 94, 70
1, 983675, Note_on_c, 0, 90, 38
1, 983676, Note_off_c, 0, 90, 127
1, 983712, Note_on_c, 0, 82, 97
1, 983712, Note_on_c, 0, 94, 96
1, 983718, Note_on_c, 0, 87, 97
1, 983745, Note_on_c, 0, 88, 43
1, 983748, Note_off_c, 0, 82, 68
1, 983752, Note_on_c, 0, 92, 46
1, 983757, Note_off_c, 0, 94, 64
1, 983763, Note_off_c, 0, 63, 31
1, 983768, Note_off_c, 0, 87, 64
1, 983771, Note_off_c, 0, 88, 54
1, 983773, Poly_aftertouch_c, 0, 60, 0
1, 983778, Note_off_c, 0, 92, 35
1, 983806, Note_on_c, 0, 70, 124
1, 983811, Note_on_c, 0, 58, 96
1, 983825, Note_on_c, 0, 63, 43
1, 983830, Note_on_c, 0, 62, 8
1, 983832, Note_on_c, 0, 60, 34
1, 983852, Note_on_c, 0, 57, 38
1, 983861, Note_off_c, 0, 63, 47
1, 983877, Note_off_c, 0, 57, 59
1, 983899, Note_on_c, 0, 87, 114
1, 983906, Note_on_c, 0, 81, 101
1, 983913, Note_on_c, 0, 90, 78
1, 983914, Note_off_c, 0, 90, 127
1, 983918, Note_on_c, 0, 93, 73
1, 983925, Note_off_c, 0, 87, 64
1, 983933, Note_off_c, 0, 93, 67
1, 983937, Note_on_c, 0, 63, 29
1, 983940, Note_off_c, 0, 58, 58
1, 983946, Note_off_c, 0, 81, 0
1, 983959, Note_off_c, 0, 70, 50
1, 983962, Note_on_c, 0, 87, 102
1, 983977, Note_on_c, 0, 90, 73
1, 983978, Note_on_c, 0, 93, 69
1, 983983, Poly_aftertouch_c, 0, 81, 127
1, 983992, Note_off_c, 0, 93, 67
1, 983995, Poly_aftertouch_c, 0, 81, 0
1, 984000, Note_off_c, 0, 90, 69
1, 984015, Note_off_c, 0, 87, 66
1, 984025, Note_off_c, 0, 63, 36
1, 984052, Note_on_c, 0, 71, 101
1, 984056, Note_on_c, 0, 63, 68
1, 984069, Note_on_c, 0, 59, 80
1, 984094, Note_on_c, 0, 61, 39
1, 984124, Note_on_c, 0, 87, 113
1, 984130, Note_on_c, 0, 80, 104
1, 984138, Note_off_c, 0, 61, 30
1, 984139, Note_on_c, 0, 90, 72
1, 984140, Note_off_c, 0, 90, 127
1, 984149, Note_off_c, 0, 80, 66
1, 984158, Note_off_c, 0, 87, 60
1, 984159, Note_off_c, 0, 71, 58
1, 984162, Note_on_c, 0, 92, 35
1, 984163, Note_off_c, 0, 92, 127
1, 984200, Note_on_c, 0, 87, 109
1, 984203, Note_on_c, 0, 80, 110
1, 984207, Poly_aftertouch_c, 0, 92, 0
1, 984213, Note_on_c, 0, 92, 60
1, 984222, Note_on_c, 0, 90, 46
1, 984228, Note_on_c, 0, 79, 64
1, 984236, Note_on_c, 0, 85, 50
1, 984236, Note_off_c, 0, 92, 56
1, 984244, Note_off_c, 0, 90, 58
1, 984246, Note_off_c, 0, 79, 66
1, 984251, Note_off_c, 0, 80, 64
1, 984255, Note_off_c, 0, 87, 69
1, 984268, Note_off_c, 0, 85, 53
1, 984271, Note_off_c, 0, 60, 58
1, 984276, Note_off_c, 0, 62, 54
1, 984294, Note_on_c, 0, 71, 68
1, 984296, Note_off_c, 0, 63, 62
1, 984306, Note_off_c, 0, 59, 58
1, 984310, Note_off_c, 0, 71, 69
1, 984343, Note_on_c, 0, 79, 100
1, 984348, Note_on_c, 0, 91, 96
1, 984362, Note_on_c, 0, 72, 102
1, 984363, Note_on_c, 0, 60, 97
1, 984369, Note_on_c, 0, 89, 74
1, 984371, Note_on_c, 0, 82, 57
1, 984383, Note_on_c, 0, 87, 51
1, 984384, Note_off_c, 0, 87, 127
1, 984385, Note_off_c, 0, 89, 47
1, 984389, Note_off_c, 0, 82, 65
1, 984391, Note_on_c, 0, 71, 25
1, 984392, Note_off_c, 0, 71, 127
1, 984399, Note_off_c, 0, 79, 67
1, 984399, Note_off_c, 0, 91, 66
1, 984429, Poly_aftertouch_c, 0, 71, 0
1, 984441, Note_off_c, 0, 60, 63
1, 984443, Note_off_c, 0, 72, 61
1, 984462, Note_on_c, 0, 66, 23
1, 984475, Note_on_c, 0, 70, 13
1, 984482, Poly_aftertouch_c, 0, 87, 0
1, 984505, Note_off_c, 0, 66, 45
1, 984512, Control_c, 0, 64, 66
1, 984520, Note_on_c, 0, 72, 112
1, 984523, Note_on_c, 0, 60, 101
1, 984524, Note_on_c, 0, 87, 90
1, 984526, Note_on_c, 0, 78, 106
1, 984526, Note_off_c, 0, 70, 38
1, 984527, Note_on_c, 0, 81, 90
1, 984527, Control_c, 0, 64, 0
1, 984529, Note_on_c, 0, 90, 94
1, 984541, Control_c, 0, 64, 37
1, 984556, Control_c, 0, 64, 58
1, 984571, Control_c, 0, 64, 73
1, 984586, Control_c, 0, 64, 127
1, 984606, Note_off_c, 0, 60, 68
1, 984618, Note_off_c, 0, 72, 58
1, 984621, Poly_aftertouch_c, 0, 69, 127
1, 984626, Note_off_c, 0, 78, 64
1, 984646, Note_off_c, 0, 90, 63
1, 984653, Note_on_c, 0, 65, 55
1, 984653, Note_off_c, 0, 87, 50
1, 984673, Note_off_c, 0, 81, 55
1, 984738, Note_on_c, 0, 77, 117
1, 984738, Note_on_c, 0, 81, 106
1, 984739, Note_on_c, 0, 61, 89
1, 984739, Note_on_c, 0, 85, 108
1, 984741, Note_on_c, 0, 73, 124
1, 984744, Note_on_c, 0, 89, 106
1, 984759, Note_on_c, 0, 63, 30
1, 984761, Note_on_c, 0, 87, 63
1, 984775, Note_off_c, 0, 65, 57
1, 984791, Note_off_c, 0, 89, 64
1, 984792, Note_off_c, 0, 63, 44
1, 984794, Note_off_c, 0, 87, 61
1, 984814, Note_off_c, 0, 61, 59
1, 984814, Note_off_c, 0, 77, 55
1, 984833, Note_off_c, 0, 73, 56
1, 984845, Note_off_c, 0, 81, 60
1, 984848, Note_off_c, 0, 85, 61
1, 984928, Poly_aftertouch_c, 0, 69, 0
1, 984944, Note_on_c, 0, 61, 82
1, 984965, Poly_aftertouch_c, 0, 69, 127
1, 984989, Note_on_c, 0, 66, 58
1, 985000, Note_on_c, 0, 69, 22
1, 985014, Note_on_c, 0, 73, 116
1, 985015, Note_on_c, 0, 81, 101
1, 985016, Note_on_c, 0, 60, 69
1, 985018, Note_on_c, 0, 85, 104
1, 985018, Note_on_c, 0, 88, 95
1, 985020, Note_on_c, 0, 76, 101
1, 985026, Note_on_c, 0, 77, 103
1, 985032, Note_off_c, 0, 60, 69
1, 985046, Note_off_c, 0, 73, 72
1, 985050, Note_on_c, 0, 72, 41
1, 985051, Note_off_c, 0, 72, 127
1, 985051, Note_off_c, 0, 69, 64
1, 985054, Note_off_c, 0, 61, 64
1, 985056, Note_on_c, 0, 70, 37
1, 985057, Note_off_c, 0, 70, 127
1, 985060, Note_off_c, 0, 66, 64
1, 985066, Note_on_c, 0, 86, 34
1, 985096, Note_off_c, 0, 86, 50
1, 985099, Note_off_c, 0, 77, 37
1, 985265, Poly_aftertouch_c, 0, 86, 127
1, 985326, Note_off_c, 0, 85, 34
1, 985367, Poly_aftertouch_c, 0, 34, 127
1, 985415, Control_c, 0, 64, 62
1, 985420, Poly_aftertouch_c, 0, 34, 0
1, 985430, Control_c, 0, 64, 0
1, 985435, Poly_aftertouch_c, 0, 28, 0
1, 985439, Note_on_c, 0, 34, 93
1, 985451, Note_on_c, 0, 22, 80
1, 985461, Control_c, 0, 64, 41
1, 985476, Control_c, 0, 64, 81
1, 985482, Note_off_c, 0, 22, 60
1, 985483, Note_off_c, 0, 34, 63
1, 985491, Control_c, 0, 64, 127
1, 985518, Note_off_c, 0, 88, 61
1, 985527, Poly_aftertouch_c, 0, 29, 127
1, 985560, Poly_aftertouch_c, 0, 29, 0
1, 985568, Note_off_c, 0, 81, 59
1, 985635, Note_off_c, 0, 76, 59
1, 985707, Poly_aftertouch_c, 0, 86, 0
1, 985734, Note_on_c, 0, 82, 106
1, 985735, Note_on_c, 0, 89, 101
1, 985736, Note_on_c, 0, 65, 93
1, 985737, Note_on_c, 0, 77, 110
1, 985739, Note_on_c, 0, 62, 84
1, 985745, Note_on_c, 0, 58, 87
1, 985755, Note_on_c, 0, 53, 72
1, 985758, Note_off_c, 0, 77, 68
1, 985761, Note_on_c, 0, 63, 35
1, 985766, Note_off_c, 0, 89, 68
1, 985772, Note_off_c, 0, 82, 70
1, 985784, Note_off_c, 0, 53, 65
1, 985793, Note_off_c, 0, 63, 47
1, 985796, Note_off_c, 0, 65, 60
1, 985857, Note_off_c, 0, 58, 52
1, 985949, Poly_aftertouch_c, 0, 53, 0
1, 985956, Note_off_c, 0, 62, 55
1, 985978, Note_on_c, 0, 53, 70
1, 985983, Note_on_c, 0, 62, 77
1, 985987, Note_on_c, 0, 65, 108
1, 985990, Note_on_c, 0, 58, 99
1, 986010, Note_off_c, 0, 53, 65
1, 986017, Note_off_c, 0, 65, 69
1, 986027, Note_on_c, 0, 91, 113
1, 986028, Note_off_c, 0, 58, 69
1, 986028, Note_off_c, 0, 62, 67
1, 986031, Note_on_c, 0, 94, 113
1, 986031, Note_on_c, 0, 103, 106
1, 986084, Note_off_c, 0, 94, 0
1, 986121, Poly_aftertouch_c, 0, 94, 127
1, 986446, Note_on_c, 0, 88, 101
1, 986447, Note_on_c, 0, 86, 93
1, 986449, Note_on_c, 0, 77, 93
1, 986452, Note_on_c, 0, 82, 87
1, 986452, Note_off_c, 0, 103, 62
1, 986464, Note_off_c, 0, 91, 64
1, 986474, Poly_aftertouch_c, 0, 94, 0
1, 986488, Note_on_c, 0, 84, 6
1, 986489, Note_off_c, 0, 84, 127
1, 986612, Note_off_c, 0, 88, 61
1, 986626, Note_off_c, 0, 82, 61
1, 986628, Note_off_c, 0, 77, 58
1, 986647, Note_off_c, 0, 86, 58
1, 986655, Note_on_c, 0, 89, 100
1, 986657, Note_on_c, 0, 98, 84
1, 986658, Note_on_c, 0, 94, 93
1, 986663, Note_on_c, 0, 96, 84
1, 986666, Note_on_c, 0, 101, 75
1, 986674, Note_on_c, 0, 100, 77
1, 986678, Note_on_c, 0, 93, 77
1, 986699, Note_off_c, 0, 93, 72
1, 986699, Note_off_c, 0, 100, 68
1, 986702, Note_off_c, 0, 96, 60
1, 986704, Note_off_c, 0, 89, 65
1, 986705, Note_off_c, 0, 98, 64
1, 986705, Note_off_c, 0, 94, 60
1, 986711, Note_off_c, 0, 101, 65
1, 986719, Note_on_c, 0, 88, 82
1, 986724, Note_on_c, 0, 86, 93
1, 986725, Note_on_c, 0, 82, 95
1, 986755, Note_off_c, 0, 88, 68
1, 986762, Note_off_c, 0, 86, 66
1, 986783, Note_off_c, 0, 82, 66
1, 986827, Note_on_c, 0, 93, 84
1, 986827, Note_on_c, 0, 100, 92
1, 986830, Note_on_c, 0, 89, 80
1, 986840, Note_on_c, 0, 88, 78
1, 986852, Note_on_c, 0, 98, 38
1, 986852, Note_off_c, 0, 93, 66
1, 986854, Note_off_c, 0, 88, 69
1, 986885, Note_off_c, 0, 100, 65
1, 986886, Note_off_c, 0, 89, 60
1, 986886, Note_off_c, 0, 98, 55
1, 986918, Note_on_c, 0, 85, 106
1, 986926, Note_on_c, 0, 74, 79
1, 986928, Note_on_c, 0, 82, 81
1, 986942, Note_on_c, 0, 76, 45
1, 986959, Note_on_c, 0, 77, 33
1, 986962, Note_off_c, 0, 85, 64
1, 986966, Note_off_c, 0, 76, 56
1, 986980, Note_off_c, 0, 74, 62
1, 986988, Note_on_c, 0, 86, 97
1, 986988, Note_off_c, 0, 77, 49
1, 986995, Note_on_c, 0, 98, 87
1, 986997, Note_on_c, 0, 89, 74
1, 986997, Note_on_c, 0, 94, 78
1, 987002, Note_off_c, 0, 82, 63
1, 987004, Note_on_c, 0, 88, 66
1, 987013, Note_off_c, 0, 89, 68
1, 987020, Note_off_c, 0, 98, 69
1, 987021, Note_off_c, 0, 94, 69
1, 987022, Note_off_c, 0, 88, 66
1, 987023, Note_off_c, 0, 86, 65
1, 987050, Note_on_c, 0, 85, 105
1, 987060, Note_on_c, 0, 74, 79
1, 987069, Note_on_c, 0, 82, 41
1, 987072, Note_on_c, 0, 76, 48
1, 987075, Note_on_c, 0, 77, 58
1, 987090, Note_off_c, 0, 74, 62
1, 987090, Note_off_c, 0, 85, 68
1, 987097, Note_on_c, 0, 86, 99
1, 987099, Note_off_c, 0, 82, 44
1, 987101, Note_off_c, 0, 76, 65
1, 987102, Note_on_c, 0, 98, 77
1, 987106, Note_off_c, 0, 77, 64
1, 987124, Note_on_c, 0, 96, 60
1, 987130, Note_off_c, 0, 98, 69
1, 987133, Note_off_c, 0, 86, 68
1, 987143, Note_off_c, 0, 96, 63
1, 987170, Note_on_c, 0, 81, 106
1, 987182, Note_on_c, 0, 75, 70
1, 987188, Note_on_c, 0, 70, 74
1, 987191, Note_on_c, 0, 77, 63
1, 987205, Note_off_c, 0, 81, 70
1, 987210, Note_off_c, 0, 70, 70
1, 987213, Note_off_c, 0, 75, 63
1, 987216, Note_off_c, 0, 77, 64
1, 987247, Note_on_c, 0, 82, 94
1, 987254, Note_on_c, 0, 94, 70
1, 987272, Note_on_c, 0, 77, 93
1, 987273, Note_off_c, 0, 82, 64
1, 987279, Note_on_c, 0, 81, 92
1, 987290, Note_on_c, 0, 79, 84
1, 987294, Note_on_c, 0, 70, 62
1, 987295, Note_off_c, 0, 94, 0
1, 987296, Note_off_c, 0, 81, 68
1, 987303, Note_off_c, 0, 79, 72
1, 987309, Note_on_c, 0, 82, 92
1, 987310, Note_on_c, 0, 75, 34
1, 987313, Note_off_c, 0, 70, 65
1, 987319, Note_off_c, 0, 77, 68
1, 987332, Poly_aftertouch_c, 0, 94, 127
1, 987337, Note_off_c, 0, 75, 54
1, 987345, Note_on_c, 0, 90, 46
1, 987351, Poly_aftertouch_c, 0, 94, 0
1, 987355, Note_off_c, 0, 82, 67
1, 987368, Note_off_c, 0, 90, 38
1, 987391, Note_on_c, 0, 76, 99
1, 987397, Note_on_c, 0, 74, 68
1, 987399, Note_on_c, 0, 75, 83
1, 987401, Note_on_c, 0, 67, 79
1, 987420, Note_off_c, 0, 75, 70
1, 987420, Note_off_c, 0, 74, 69
1, 987423, Note_off_c, 0, 76, 65
1, 987423, Note_off_c, 0, 67, 70
1, 987446, Note_on_c, 0, 77, 101
1, 987450, Note_on_c, 0, 82, 91
1, 987470, Note_on_c, 0, 86, 60
1, 987473, Note_off_c, 0, 82, 66
1, 987481, Note_off_c, 0, 77, 0
1, 987482, Note_on_c, 0, 76, 99
1, 987482, Note_on_c, 0, 89, 41
1, 987484, Note_on_c, 0, 70, 76
1, 987485, Note_on_c, 0, 75, 89
1, 987489, Note_off_c, 0, 86, 63
1, 987506, Poly_aftertouch_c, 0, 77, 0
1, 987507, Note_off_c, 0, 76, 66
1, 987513, Note_off_c, 0, 89, 50
1, 987524, Note_off_c, 0, 75, 58
1, 987534, Note_on_c, 0, 77, 93
1, 987538, Note_on_c, 0, 82, 88
1, 987540, Note_off_c, 0, 70, 64
1, 987542, Note_on_c, 0, 89, 67
1, 987562, Note_off_c, 0, 82, 67
1, 987569, Note_off_c, 0, 89, 68
1, 987571, Note_on_c, 0, 86, 33
1, 987571, Note_off_c, 0, 77, 67
1, 987600, Note_off_c, 0, 86, 49
1, 987604, Note_on_c, 0, 73, 106
1, 987606, Note_on_c, 0, 61, 88
1, 987621, Note_off_c, 0, 73, 67
1, 987638, Note_off_c, 0, 61, 65
1, 987641, Note_on_c, 0, 63, 38
1, 987647, Note_on_c, 0, 68, 24
1, 987659, Note_on_c, 0, 74, 101
1, 987666, Note_on_c, 0, 86, 95
1, 987667, Note_off_c, 0, 63, 55
1, 987674, Note_on_c, 0, 82, 69
1, 987674, Note_on_c, 0, 77, 70
1, 987686, Note_off_c, 0, 77, 71
1, 987688, Note_off_c, 0, 74, 69
1, 987689, Note_on_c, 0, 76, 45
1, 987690, Note_off_c, 0, 76, 127
1, 987690, Note_off_c, 0, 82, 66
1, 987691, Note_off_c, 0, 68, 0
1, 987705, Poly_aftertouch_c, 0, 68, 0
1, 987706, Note_off_c, 0, 86, 46
1, 987707, Note_on_c, 0, 73, 107
1, 987727, Note_on_c, 0, 61, 73
1, 987728, Note_on_c, 0, 68, 12
1, 987733, Note_on_c, 0, 65, 39
1, 987743, Note_off_c, 0, 73, 68
1, 987754, Note_on_c, 0, 74, 105
1, 987758, Note_off_c, 0, 61, 64
1, 987761, Note_off_c, 0, 65, 54
1, 987766, Note_on_c, 0, 84, 60
1, 987779, Poly_aftertouch_c, 0, 86, 127
1, 987783, Note_off_c, 0, 84, 66
1, 987784, Note_off_c, 0, 68, 29
1, 987785, Note_off_c, 0, 74, 69
1, 987790, Note_on_c, 0, 82, 29
1, 987791, Note_off_c, 0, 82, 127
1, 987791, Poly_aftertouch_c, 0, 86, 0
1, 987816, Note_on_c, 0, 69, 108
1, 987823, Note_on_c, 0, 58, 97
1, 987845, Note_on_c, 0, 67, 54
1, 987851, Note_on_c, 0, 61, 47
1, 987851, Note_off_c, 0, 69, 71
1, 987854, Note_off_c, 0, 58, 62
1, 987867, Note_off_c, 0, 67, 61
1, 987869, Note_off_c, 0, 61, 66
1, 987883, Note_on_c, 0, 70, 95
1, 987911, Note_on_c, 0, 82, 46
1, 987912, Note_off_c, 0, 70, 65
1, 987919, Note_on_c, 0, 69, 98
1, 987928, Note_on_c, 0, 65, 68
1, 987933, Note_off_c, 0, 69, 74
1, 987935, Note_on_c, 0, 61, 57
1, 987943, Note_on_c, 0, 70, 95
1, 987943, Note_on_c, 0, 62, 54
1, 987943, Note_off_c, 0, 82, 0
1, 987943, Note_on_c, 0, 82, 33
1, 987957, Note_off_c, 0, 65, 67
1, 987964, Note_off_c, 0, 61, 54
1, 987966, Note_on_c, 0, 80, 65
1, 987967, Note_off_c, 0, 62, 61
1, 987983, Note_off_c, 0, 80, 64
1, 987988, Note_off_c, 0, 70, 69
1, 987991, Note_off_c, 0, 82, 66
1, 988021, Note_on_c, 0, 62, 95
1, 988022, Note_on_c, 0, 64, 105
1, 988026, Note_on_c, 0, 58, 73
1, 988038, Note_on_c, 0, 53, 71
1, 988041, Note_on_c, 0, 55, 73
1, 988051, Note_off_c, 0, 64, 70
1, 988055, Note_off_c, 0, 58, 62
1, 988059, Note_off_c, 0, 62, 61
1, 988069, Note_off_c, 0, 53, 64
1, 988071, Note_on_c, 0, 65, 95
1, 988073, Note_off_c, 0, 55, 64
1, 988074, Note_on_c, 0, 70, 94
1, 988088, Note_on_c, 0, 74, 70
1, 988091, Note_on_c, 0, 77, 71
1, 988096, Note_off_c, 0, 70, 71
1, 988103, Note_off_c, 0, 74, 67
1, 988108, Note_off_c, 0, 65, 66
1, 988116, Note_on_c, 0, 62, 84
1, 988119, Note_on_c, 0, 58, 99
1, 988119, Note_off_c, 0, 77, 61
1, 988120, Note_on_c, 0, 64, 93
1, 988136, Note_off_c, 0, 62, 68
1, 988137, Note_off_c, 0, 64, 73
1, 988141, Note_on_c, 0, 55, 41
1, 988149, Note_on_c, 0, 65, 94
1, 988153, Note_on_c, 0, 70, 94
1, 988161, Note_on_c, 0, 74, 71
1, 988162, Note_off_c, 0, 58, 65
1, 988164, Note_off_c, 0, 55, 63
1, 988170, Poly_aftertouch_c, 0, 77, 127
1, 988183, Poly_aftertouch_c, 0, 77, 0
1, 988184, Note_off_c, 0, 65, 67
1, 988190, Note_off_c, 0, 74, 67
1, 988194, Note_off_c, 0, 70, 63
1, 988222, Note_on_c, 0, 61, 101
1, 988242, Control_c, 0, 64, 91
1, 988245, Note_on_c, 0, 50, 59
1, 988245, Note_on_c, 0, 58, 60
1, 988257, Control_c, 0, 64, 89
1, 988258, Note_on_c, 0, 52, 34
1, 988259, Note_off_c, 0, 61, 59
1, 988264, Note_off_c, 0, 58, 62
1, 988266, Note_on_c, 0, 62, 96
1, 988272, Control_c, 0, 64, 127
1, 988273, Note_off_c, 0, 50, 56
1, 988274, Note_on_c, 0, 74, 82
1, 988277, Note_on_c, 0, 65, 73
1, 988285, Note_off_c, 0, 52, 57
1, 988292, Note_on_c, 0, 53, 33
1, 988298, Note_off_c, 0, 62, 64
1, 988298, Note_off_c, 0, 65, 71
1, 988301, Note_off_c, 0, 74, 62
1, 988312, Note_on_c, 0, 61, 95
1, 988322, Note_on_c, 0, 50, 80
1, 988349, Note_on_c, 0, 58, 35
1, 988349, Note_on_c, 0, 62, 97
1, 988353, Note_off_c, 0, 53, 62
1, 988354, Note_off_c, 0, 61, 65
1, 988360, Note_off_c, 0, 50, 65
1, 988369, Note_off_c, 0, 58, 62
1, 988389, Note_off_c, 0, 62, 69
1, 988392, Poly_aftertouch_c, 0, 70, 127
1, 988423, Note_on_c, 0, 57, 105
1, 988434, Poly_aftertouch_c, 0, 70, 0
1, 988446, Note_on_c, 0, 46, 56
1, 988457, Note_on_c, 0, 51, 56
1, 988462, Note_on_c, 0, 45, 48
1, 988465, Note_off_c, 0, 57, 69
1, 988467, Note_on_c, 0, 58, 93
1, 988471, Note_on_c, 0, 55, 21
1, 988471, Note_off_c, 0, 46, 59
1, 988483, Note_off_c, 0, 51, 58
1, 988489, Note_off_c, 0, 45, 57
1, 988498, Note_off_c, 0, 58, 69
1, 988513, Note_off_c, 0, 55, 50
1, 988527, Note_on_c, 0, 57, 104
1, 988545, Note_on_c, 0, 53, 66
1, 988547, Note_on_c, 0, 70, 58
1, 988551, Note_on_c, 0, 58, 108
1, 988552, Note_on_c, 0, 50, 53
1, 988554, Note_on_c, 0, 54, 54
1, 988557, Note_off_c, 0, 57, 69
1, 988569, Note_on_c, 0, 68, 70
1, 988574, Note_off_c, 0, 50, 64
1, 988575, Note_on_c, 0, 48, 18
1, 988579, Note_off_c, 0, 54, 58
1, 988580, Note_off_c, 0, 53, 66
1, 988591, Note_off_c, 0, 58, 67
1, 988593, Note_off_c, 0, 70, 65
1, 988596, Note_off_c, 0, 68, 64
1, 988618, Note_off_c, 0, 48, 41
1, 988636, Note_on_c, 0, 51, 76
1, 988636, Note_on_c, 0, 53, 99
1, 988637, Note_on_c, 0, 52, 93
1, 988646, Note_on_c, 0, 50, 80
1, 988651, Note_on_c, 0, 46, 79
1, 988653, Note_on_c, 0, 41, 71
1, 988659, Note_on_c, 0, 43, 76
1, 988664, Note_off_c, 0, 51, 69
1, 988668, Note_off_c, 0, 52, 66
1, 988669, Note_off_c, 0, 53, 70
1, 988672, Note_off_c, 0, 50, 66
1, 988699, Note_on_c, 0, 53, 94
1, 988700, Note_off_c, 0, 43, 57
1, 988706, Note_on_c, 0, 58, 84
1, 988709, Note_off_c, 0, 41, 64
1, 988713, Note_on_c, 0, 62, 83
1, 988718, Note_off_c, 0, 46, 63
1, 988727, Note_off_c, 0, 58, 68
1, 988734, Note_on_c, 0, 65, 46
1, 988739, Note_on_c, 0, 67, 53
1, 988740, Poly_aftertouch_c, 0, 44, 127
1, 988741, Note_off_c, 0, 53, 66
1, 988741, Note_off_c, 0, 62, 65
1, 988762, Note_off_c, 0, 67, 60
1, 988777, Note_off_c, 0, 65, 0
1, 988779, Poly_aftertouch_c, 0, 44, 0
1, 988787, Note_on_c, 0, 53, 93
1, 988797, Note_on_c, 0, 58, 97
1, 988798, Note_on_c, 0, 62, 79
1, 988814, Poly_aftertouch_c, 0, 65, 127
1, 988814, Control_c, 0, 64, 95
1, 988828, Control_c, 0, 64, 53
1, 988843, Control_c, 0, 64, 0
1, 988850, Note_off_c, 0, 53, 65
1, 988857, Note_on_c, 0, 34, 111
1, 988868, Note_on_c, 0, 22, 84
1, 988873, Control_c, 0, 64, 60
1, 988874, Poly_aftertouch_c, 0, 65, 0
1, 988876, Note_on_c, 0, 32, 69
1, 988877, Note_off_c, 0, 32, 127
1, 988877, Note_off_c, 0, 62, 63
1, 988883, Note_off_c, 0, 58, 66
1, 988888, Control_c, 0, 64, 114
1, 988891, Note_off_c, 0, 22, 65
1, 988892, Note_off_c, 0, 34, 67
1, 988903, Control_c, 0, 64, 127
1, 989100, Poly_aftertouch_c, 0, 53, 127
1, 989104, Note_on_c, 0, 53, 8
1, 989108, Note_on_c, 0, 62, 99
1, 989109, Note_on_c, 0, 56, 113
1, 989109, Note_on_c, 0, 58, 105
1, 989110, Note_on_c, 0, 65, 89
1, 989111, Note_on_c, 0, 70, 88
1, 989116, Note_on_c, 0, 44, 88
1, 989147, Note_off_c, 0, 56, 69
1, 989153, Note_off_c, 0, 53, 58
1, 989167, Note_off_c, 0, 44, 65
1, 989168, Note_on_c, 0, 43, 61
1, 989175, Note_off_c, 0, 58, 59
1, 989192, Note_off_c, 0, 43, 61
1, 989201, Note_off_c, 0, 70, 69
1, 989213, Poly_aftertouch_c, 0, 67, 127
1, 989222, Poly_aftertouch_c, 0, 54, 0
1, 989264, Poly_aftertouch_c, 0, 67, 0
1, 989300, Note_on_c, 0, 29, 41
1, 989371, Note_off_c, 0, 29, 0
1, 989380, Note_on_c, 0, 34, 109
1, 989389, Note_on_c, 0, 29, 36
1, 989391, Note_on_c, 0, 22, 77
1, 989400, Note_off_c, 0, 62, 66
1, 989417, Note_off_c, 0, 65, 68
1, 989419, Note_off_c, 0, 34, 66
1, 989423, Note_off_c, 0, 22, 61
1, 989431, Note_off_c, 0, 29, 49
1, 989475, Poly_aftertouch_c, 0, 30, 127
1, 989502, Poly_aftertouch_c, 0, 30, 0
1, 989635, Note_on_c, 0, 57, 67
1, 989666, Note_on_c, 0, 63, 84
1, 989667, Note_on_c, 0, 66, 94
1, 989675, Note_on_c, 0, 69, 105
1, 989675, Note_on_c, 0, 78, 104
1, 989676, Note_on_c, 0, 75, 108
1, 989676, Note_on_c, 0, 82, 105
1, 989677, Note_on_c, 0, 70, 116
1, 989687, Note_off_c, 0, 57, 62
1, 989702, Note_off_c, 0, 69, 71
1, 989710, Note_off_c, 0, 66, 68
1, 989725, Note_off_c, 0, 63, 67
1, 989729, Note_on_c, 0, 80, 30
1, 989775, Note_off_c, 0, 70, 63
1, 990018, Note_on_c, 0, 34, 126
1, 990030, Note_on_c, 0, 22, 86
1, 990038, Note_on_c, 0, 29, 52
1, 990056, Note_off_c, 0, 22, 65
1, 990067, Note_off_c, 0, 29, 57
1, 990069, Note_off_c, 0, 34, 62
1, 990116, Note_off_c, 0, 80, 6
1, 990122, Note_off_c, 0, 82, 60
1, 990130, Note_off_c, 0, 75, 59
1, 990142, Note_off_c, 0, 78, 57
1, 990218, Poly_aftertouch_c, 0, 22, 0
1, 990331, Note_on_c, 0, 92, 27
1, 990342, Note_on_c, 0, 55, 74
1, 990373, Note_off_c, 0, 92, 60
1, 990381, Note_on_c, 0, 60, 76
1, 990420, Note_off_c, 0, 55, 63
1, 990426, Note_on_c, 0, 64, 77
1, 990450, Note_on_c, 0, 94, 97
1, 990452, Note_on_c, 0, 82, 119
1, 990455, Note_on_c, 0, 84, 104
1, 990456, Note_on_c, 0, 88, 94
1, 990458, Note_on_c, 0, 70, 120
1, 990478, Note_off_c, 0, 60, 61
1, 990483, Note_on_c, 0, 68, 54
1, 990492, Note_off_c, 0, 70, 73
1, 990494, Note_on_c, 0, 91, 38
1, 990494, Note_off_c, 0, 64, 65
1, 990500, Note_off_c, 0, 94, 65
1, 990502, Note_off_c, 0, 82, 66
1, 990506, Note_off_c, 0, 68, 43
1, 990516, Note_off_c, 0, 84, 64
1, 990518, Note_off_c, 0, 88, 68
1, 990522, Note_off_c, 0, 91, 47
1, 990917, Poly_aftertouch_c, 0, 55, 127
1, 990951, Poly_aftertouch_c, 0, 57, 127
1, 991032, Note_on_c, 0, 52, 27
1, 991059, Control_c, 0, 64, 80
1, 991074, Control_c, 0, 64, 42
1, 991087, Note_on_c, 0, 58, 91
1, 991089, Control_c, 0, 64, 33
1, 991092, Note_on_c, 0, 34, 117
1, 991092, Note_on_c, 0, 46, 111
1, 991100, Note_on_c, 0, 22, 87
1, 991104, Control_c, 0, 64, 62
1, 991105, Note_on_c, 0, 29, 34
1, 991111, Poly_aftertouch_c, 0, 57, 0
1, 991119, Control_c, 0, 64, 93
1, 991121, Note_off_c, 0, 22, 65
1, 991133, Note_on_c, 0, 56, 29
1, 991134, Note_off_c, 0, 56, 127
1, 991134, Control_c, 0, 64, 127
1, 991134, Note_off_c, 0, 34, 67
1, 991148, Poly_aftertouch_c, 0, 57, 127
1, 991154, Note_off_c, 0, 29, 38
1, 991164, Poly_aftertouch_c, 0, 55, 0
1, 991197, Note_off_c, 0, 46, 63
1, 991201, Poly_aftertouch_c, 0, 55, 127
1, 991228, Poly_aftertouch_c, 0, 57, 0
1, 991238, Note_off_c, 0, 52, 37
1, 991265, Poly_aftertouch_c, 0, 55, 0
1, 991291, Poly_aftertouch_c, 0, 22, 0
1, 991360, Note_off_c, 0, 58, 59
1, 991844, Note_on_c, 0, 50, 97
1, 991845, Note_on_c, 0, 53, 108
1, 991850, Note_on_c, 0, 70, 110
1, 991851, Note_on_c, 0, 46, 94
1, 991851, Note_on_c, 0, 74, 97
1, 991852, Note_on_c, 0, 82, 94
1, 991854, Note_on_c, 0, 77, 100
1, 991855, Note_on_c, 0, 41, 70
1, 991875, Note_off_c, 0, 53, 69
1, 991875, Note_on_c, 0, 79, 59
1, 991876, Note_off_c, 0, 46, 68
1, 991882, Note_off_c, 0, 41, 58
1, 991882, Note_off_c, 0, 50, 68
1, 991891, Note_off_c, 0, 70, 69
1, 991894, Note_off_c, 0, 79, 65
1, 991903, Note_off_c, 0, 74, 66
1, 991908, Note_off_c, 0, 82, 65
1, 991988, Note_off_c, 0, 77, 27
1, 992052, Note_on_c, 0, 65, 103
1, 992054, Note_on_c, 0, 70, 111
1, 992054, Note_on_c, 0, 82, 94
1, 992055, Note_on_c, 0, 74, 105
1, 992056, Note_on_c, 0, 62, 94
1, 992057, Note_on_c, 0, 58, 92
1, 992058, Note_on_c, 0, 77, 104
1, 992061, Note_on_c, 0, 53, 87
1, 992073, Note_off_c, 0, 65, 69
1, 992075, Note_off_c, 0, 62, 71
1, 992084, Note_on_c, 0, 69, 60
1, 992088, Note_off_c, 0, 70, 72
1, 992088, Note_off_c, 0, 82, 68
1, 992096, Note_off_c, 0, 58, 68
1, 992098, Note_off_c, 0, 53, 61
1, 992100, Note_off_c, 0, 77, 71
1, 992101, Note_on_c, 0, 80, 7
1, 992102, Note_off_c, 0, 74, 70
1, 992104, Note_off_c, 0, 69, 65
1, 992152, Note_off_c, 0, 80, 29
1, 993245, Control_c, 0, 64, 84
1, 993260, Control_c, 0, 64, 58
1, 993275, Control_c, 0, 64, 0
1, 993350, End_track
0, 0, End_of_file
