0, 0, Header, 0, 1, 384
1, 0, Start_track
1, 0, Title_t, "SchubLisztStaendchen--Mizumoto  "
1, 0, Text_t, "2011 ePiano Junior Competition"
1, 0, Text_t, "captured in spring and summer 2011"
1, 0, Text_t, "http://www.piano-e-competition.com/"
1, 0, Text_t, "standard-resolution version"
1, 0, Text_t, "File processed for distribution with software designed and coded by Dr. John Q. Walker, founder of Zenph Sound Innovations"
1, 0, Instrument_name_t, "Yamaha Disklavier Pro Mark IV concert grand piano, model DCFIIISM4PRO"
1, 0, Sequencer_specific, 39, 67, 113, 0, 1, 0, 1, 0, 83, 99, 104, 117, 98, 101, 114, 83, 116, 97, 110, 100, 99, 104, 101, 110, 87, 101, 115, 116, 111, 110, 32, 77, 105, 122, 117, 109, 111, 116, 111, 32
1, 0, Sequencer_specific, 6, 67, 113, 0, 0, 0, 69
1, 0, System_exclusive, 21, 67, 113, 126, 21, 0, 2, 2, 2, 5, 12, 8, 4, 14, 1, 3, 7, 10, 14, 14, 5, 247
1, 0, Sequencer_specific, 5, 67, 123, 12, 2, 1
1, 0, Tempo, 512820
1, 0, Time_signature, 4, 2, 24, 8
1, 0, System_exclusive, 5, 126, 127, 9, 1, 247
1, 1, System_exclusive, 8, 67, 16, 76, 0, 0, 126, 0, 247
1, 2, System_exclusive, 8, 67, 16, 76, 8, 9, 7, 1, 247
1, 3, Control_c, 0, 0, 108
1, 3, Control_c, 1, 0, 108
1, 3, Control_c, 2, 0, 0
1, 3, Control_c, 3, 0, 0
1, 3, Control_c, 4, 0, 0
1, 3, Control_c, 5, 0, 0
1, 3, Control_c, 6, 0, 0
1, 3, Control_c, 7, 0, 0
1, 3, Control_c, 8, 0, 0
1, 3, Control_c, 9, 0, 127
1, 3, Control_c, 10, 0, 0
1, 3, Control_c, 11, 0, 0
1, 3, Control_c, 12, 0, 0
1, 3, Control_c, 13, 0, 0
1, 3, Control_c, 14, 0, 0
1, 3, Control_c, 15, 0, 0
1, 4, Control_c, 0, 32, 0
1, 4, Control_c, 1, 32, 0
1, 4, Control_c, 2, 32, 0
1, 4, Control_c, 3, 32, 0
1, 4, Control_c, 4, 32, 0
1, 4, Control_c, 5, 32, 0
1, 4, Control_c, 6, 32, 0
1, 4, Control_c, 7, 32, 0
1, 4, Control_c, 8, 32, 0
1, 4, Control_c, 9, 32, 0
1, 4, Control_c, 10, 32, 0
1, 4, Control_c, 11, 32, 0
1, 4, Control_c, 12, 32, 0
1, 4, Control_c, 13, 32, 0
1, 4, Control_c, 14, 32, 0
1, 4, Control_c, 15, 32, 0
1, 5, Program_c, 0, 0
1, 5, Program_c, 1, 0
1, 5, Program_c, 2, 0
1, 5, Program_c, 3, 0
1, 5, Program_c, 4, 0
1, 5, Program_c, 5, 0
1, 5, Program_c, 6, 0
1, 5, Program_c, 7, 0
1, 5, Program_c, 8, 0
1, 5, Program_c, 9, 0
1, 5, Program_c, 10, 0
1, 5, Program_c, 11, 0
1, 5, Program_c, 12, 0
1, 5, Program_c, 13, 0
1, 5, Program_c, 14, 0
1, 5, Program_c, 15, 0
1, 6, Control_c, 0, 7, 100
1, 6, Control_c, 1, 7, 100
1, 6, Control_c, 2, 7, 100
1, 6, Control_c, 3, 7, 100
1, 6, Control_c, 4, 7, 100
1, 6, Control_c, 5, 7, 100
1, 6, Control_c, 6, 7, 100
1, 6, Control_c, 7, 7, 100
1, 6, Control_c, 8, 7, 100
1, 6, Control_c, 9, 7, 100
1, 6, Control_c, 10, 7, 100
1, 6, Control_c, 11, 7, 100
1, 6, Control_c, 12, 7, 100
1, 6, Control_c, 13, 7, 100
1, 6, Control_c, 14, 7, 100
1, 6, Control_c, 15, 7, 100
1, 380, Note_on_c, 0, 82, 79
1, 389, Note_on_c, 0, 74, 60
1, 395, Note_on_c, 0, 70, 63
1, 414, Note_off_c, 0, 74, 62
1, 416, Note_off_c, 0, 82, 65
1, 430, Note_off_c, 0, 70, 65
1, 711, Control_c, 0, 64, 45
1, 716, Note_on_c, 0, 81, 74
1, 718, Note_on_c, 0, 65, 59
1, 725, Control_c, 0, 64, 74
1, 727, Note_on_c, 0, 75, 60
1, 728, Note_on_c, 0, 77, 58
1, 731, Note_on_c, 0, 72, 57
1, 740, Note_off_c, 0, 81, 70
1, 740, Control_c, 0, 64, 97
1, 746, Note_off_c, 0, 75, 60
1, 747, Note_off_c, 0, 65, 65
1, 747, Note_off_c, 0, 77, 59
1, 755, Control_c, 0, 64, 127
1, 758, Note_off_c, 0, 72, 67
1, 1152, Note_on_c, 0, 84, 67
1, 1154, Note_on_c, 0, 99, 76
1, 1165, Note_on_c, 0, 77, 58
1, 1166, Note_on_c, 0, 87, 59
1, 1171, Note_on_c, 0, 93, 58
1, 1173, Note_on_c, 0, 89, 56
1, 1185, Note_off_c, 0, 87, 64
1, 1188, Note_off_c, 0, 99, 68
1, 1190, Note_off_c, 0, 93, 67
1, 1190, Note_off_c, 0, 84, 63
1, 1192, Note_off_c, 0, 89, 62
1, 1200, Note_off_c, 0, 77, 64
1, 1238, Note_on_c, 0, 99, 84
1, 1247, Note_on_c, 0, 93, 70
1, 1249, Note_on_c, 0, 87, 73
1, 1254, Note_on_c, 0, 84, 54
1, 1261, Note_off_c, 0, 99, 67
1, 1262, Note_on_c, 0, 89, 43
1, 1273, Note_off_c, 0, 93, 68
1, 1276, Note_off_c, 0, 87, 61
1, 1280, Note_on_c, 0, 77, 34
1, 1289, Note_off_c, 0, 89, 52
1, 1295, Note_off_c, 0, 84, 0
1, 1326, Note_on_c, 0, 89, 68
1, 1328, Note_on_c, 0, 99, 101
1, 1329, Note_on_c, 0, 93, 79
1, 1329, Poly_aftertouch_c, 0, 87, 0
1, 1339, Poly_aftertouch_c, 0, 84, 0
1, 1343, Note_off_c, 0, 93, 70
1, 1344, Note_off_c, 0, 99, 73
1, 1352, Note_off_c, 0, 77, 0
1, 1352, Note_on_c, 0, 77, 3
1, 1352, Note_off_c, 0, 89, 66
1, 1357, Note_off_c, 0, 77, 48
1, 1712, Control_c, 0, 64, 83
1, 1716, Note_on_c, 0, 75, 78
1, 1718, Note_on_c, 0, 72, 71
1, 1719, Note_on_c, 0, 81, 73
1, 1727, Control_c, 0, 64, 57
1, 1737, Note_off_c, 0, 72, 66
1, 1739, Note_off_c, 0, 75, 69
1, 1742, Control_c, 0, 64, 0
1, 1743, Note_off_c, 0, 81, 70
1, 1989, Note_on_c, 0, 82, 82
1, 1992, Note_on_c, 0, 74, 74
1, 2001, Control_c, 0, 64, 56
1, 2003, Note_on_c, 0, 65, 54
1, 2003, Note_on_c, 0, 70, 63
1, 2010, Note_on_c, 0, 77, 49
1, 2015, Control_c, 0, 64, 77
1, 2016, Note_off_c, 0, 74, 69
1, 2016, Note_off_c, 0, 82, 65
1, 2030, Control_c, 0, 64, 104
1, 2031, Note_off_c, 0, 70, 67
1, 2031, Note_off_c, 0, 65, 64
1, 2034, Note_off_c, 0, 77, 37
1, 2045, Control_c, 0, 64, 127
1, 2380, Note_on_c, 0, 65, 61
1, 2397, Note_on_c, 0, 62, 39
1, 2402, Note_on_c, 0, 53, 50
1, 2412, Note_off_c, 0, 65, 65
1, 2413, Note_on_c, 0, 58, 45
1, 2434, Note_off_c, 0, 53, 57
1, 2437, Note_off_c, 0, 62, 44
1, 2441, Note_off_c, 0, 58, 54
1, 2481, Note_on_c, 0, 65, 52
1, 2496, Note_on_c, 0, 53, 31
1, 2502, Note_off_c, 0, 65, 61
1, 2526, Poly_aftertouch_c, 0, 62, 127
1, 2531, Note_on_c, 0, 62, 29
1, 2541, Note_on_c, 0, 58, 24
1, 2544, Note_off_c, 0, 53, 0
1, 2557, Note_on_c, 0, 53, 45
1, 2575, Note_off_c, 0, 62, 63
1, 2576, Note_on_c, 0, 65, 40
1, 2600, Note_off_c, 0, 65, 57
1, 2660, Note_off_c, 0, 58, 58
1, 2752, Note_off_c, 0, 53, 64
1, 3016, Control_c, 0, 64, 110
1, 3030, Control_c, 0, 64, 104
1, 3042, Note_on_c, 0, 70, 69
1, 3045, Control_c, 0, 64, 102
1, 3060, Control_c, 0, 64, 101
1, 3065, Note_on_c, 0, 62, 45
1, 3075, Control_c, 0, 64, 92
1, 3090, Control_c, 0, 64, 72
1, 3104, Control_c, 0, 64, 56
1, 3119, Control_c, 0, 64, 0
1, 3122, Note_off_c, 0, 62, 58
1, 3179, Control_c, 0, 64, 27
1, 3194, Control_c, 0, 64, 51
1, 3209, Control_c, 0, 64, 58
1, 3223, Control_c, 0, 64, 59
1, 3238, Control_c, 0, 64, 60
1, 3253, Control_c, 0, 64, 61
1, 3271, Note_on_c, 0, 60, 49
1, 3277, Note_on_c, 0, 69, 66
1, 3280, Note_off_c, 0, 70, 64
1, 3283, Control_c, 0, 64, 55
1, 3297, Note_on_c, 0, 65, 7
1, 3298, Control_c, 0, 64, 40
1, 3313, Control_c, 0, 64, 21
1, 3328, Control_c, 0, 64, 9
1, 3358, Control_c, 0, 64, 25
1, 3373, Control_c, 0, 64, 44
1, 3387, Control_c, 0, 64, 53
1, 3409, Control_c, 0, 64, 56
1, 3424, Control_c, 0, 64, 58
1, 3439, Control_c, 0, 64, 59
1, 3450, Note_off_c, 0, 60, 65
1, 3454, Control_c, 0, 64, 61
1, 3468, Control_c, 0, 64, 63
1, 3471, Note_off_c, 0, 69, 64
1, 3483, Control_c, 0, 64, 65
1, 3484, Note_on_c, 0, 41, 61
1, 3489, Note_off_c, 0, 65, 56
1, 3498, Control_c, 0, 64, 66
1, 3513, Control_c, 0, 64, 69
1, 3516, Note_off_c, 0, 41, 65
1, 3528, Control_c, 0, 64, 71
1, 3542, Control_c, 0, 64, 73
1, 3557, Control_c, 0, 64, 76
1, 3572, Control_c, 0, 64, 77
1, 3587, Control_c, 0, 64, 79
1, 3598, Note_on_c, 0, 41, 56
1, 3602, Control_c, 0, 64, 80
1, 3632, Control_c, 0, 64, 78
1, 3647, Control_c, 0, 64, 70
1, 3661, Control_c, 0, 64, 53
1, 3666, Note_on_c, 0, 72, 75
1, 3674, Note_on_c, 0, 65, 16
1, 3676, Control_c, 0, 64, 0
1, 3680, Note_on_c, 0, 53, 60
1, 3688, Note_on_c, 0, 63, 57
1, 3769, Note_off_c, 0, 63, 61
1, 3795, Control_c, 0, 64, 12
1, 3809, Control_c, 0, 64, 28
1, 3824, Control_c, 0, 64, 37
1, 3839, Control_c, 0, 64, 46
1, 3853, Control_c, 0, 64, 52
1, 3868, Control_c, 0, 64, 57
1, 3883, Control_c, 0, 64, 60
1, 3886, Note_on_c, 0, 62, 63
1, 3888, Note_off_c, 0, 41, 64
1, 3892, Note_on_c, 0, 70, 77
1, 3895, Note_off_c, 0, 53, 62
1, 3898, Control_c, 0, 64, 62
1, 3913, Control_c, 0, 64, 64
1, 3927, Control_c, 0, 64, 67
1, 3940, Note_off_c, 0, 72, 60
1, 3942, Control_c, 0, 64, 70
1, 3957, Control_c, 0, 64, 75
1, 3972, Control_c, 0, 64, 81
1, 3982, Note_off_c, 0, 62, 64
1, 3987, Control_c, 0, 64, 88
1, 4001, Control_c, 0, 64, 94
1, 4007, Note_off_c, 0, 65, 55
1, 4016, Control_c, 0, 64, 98
1, 4028, Note_off_c, 0, 70, 65
1, 4031, Control_c, 0, 64, 99
1, 4064, Note_on_c, 0, 41, 69
1, 4095, Note_off_c, 0, 41, 63
1, 4106, Control_c, 0, 64, 98
1, 4121, Control_c, 0, 64, 97
1, 4136, Control_c, 0, 64, 95
1, 4158, Control_c, 0, 64, 93
1, 4171, Note_on_c, 0, 41, 73
1, 4173, Control_c, 0, 64, 91
1, 4188, Control_c, 0, 64, 90
1, 4203, Control_c, 0, 64, 88
1, 4218, Control_c, 0, 64, 86
1, 4233, Control_c, 0, 64, 85
1, 4247, Control_c, 0, 64, 84
1, 4306, Control_c, 0, 64, 85
1, 4330, Note_on_c, 0, 75, 78
1, 4336, Control_c, 0, 64, 84
1, 4343, Note_on_c, 0, 53, 51
1, 4351, Control_c, 0, 64, 74
1, 4357, Note_on_c, 0, 67, 55
1, 4365, Control_c, 0, 64, 58
1, 4380, Control_c, 0, 64, 0
1, 4434, Note_off_c, 0, 67, 52
1, 4443, Note_off_c, 0, 41, 62
1, 4455, Control_c, 0, 64, 41
1, 4469, Control_c, 0, 64, 60
1, 4484, Control_c, 0, 64, 64
1, 4499, Control_c, 0, 64, 66
1, 4529, Control_c, 0, 64, 66
1, 4544, Control_c, 0, 64, 67
1, 4558, Control_c, 0, 64, 69
1, 4573, Control_c, 0, 64, 73
1, 4588, Control_c, 0, 64, 78
1, 4593, Note_on_c, 0, 74, 74
1, 4602, Control_c, 0, 64, 81
1, 4611, Note_on_c, 0, 65, 59
1, 4617, Note_off_c, 0, 75, 61
1, 4617, Control_c, 0, 64, 82
1, 4630, Note_off_c, 0, 53, 57
1, 4678, Note_off_c, 0, 74, 64
1, 4736, Control_c, 0, 64, 82
1, 4738, Note_on_c, 0, 53, 39
1, 4745, Note_off_c, 0, 65, 63
1, 4750, Control_c, 0, 64, 81
1, 4766, Control_c, 0, 64, 81
1, 4781, Control_c, 0, 64, 80
1, 4796, Control_c, 0, 64, 79
1, 4810, Control_c, 0, 64, 77
1, 4825, Control_c, 0, 64, 75
1, 4840, Control_c, 0, 64, 72
1, 4856, Control_c, 0, 64, 68
1, 4869, Note_off_c, 0, 53, 58
1, 4871, Control_c, 0, 64, 64
1, 4883, Note_on_c, 0, 55, 48
1, 4886, Control_c, 0, 64, 57
1, 4908, Control_c, 0, 64, 44
1, 4923, Control_c, 0, 64, 0
1, 4946, Note_off_c, 0, 55, 62
1, 4947, Note_on_c, 0, 72, 60
1, 4955, Note_on_c, 0, 65, 41
1, 4958, Note_on_c, 0, 56, 55
1, 4962, Note_on_c, 0, 63, 52
1, 5003, Note_off_c, 0, 65, 59
1, 5005, Note_off_c, 0, 56, 65
1, 5008, Note_off_c, 0, 63, 60
1, 5050, Note_on_c, 0, 57, 51
1, 5083, Note_off_c, 0, 72, 57
1, 5137, Note_off_c, 0, 57, 59
1, 5173, Note_on_c, 0, 58, 51
1, 5191, Note_on_c, 0, 70, 48
1, 5193, Note_on_c, 0, 62, 40
1, 5218, Note_on_c, 0, 65, 23
1, 5219, Control_c, 0, 64, 44
1, 5227, Note_off_c, 0, 58, 63
1, 5234, Control_c, 0, 64, 67
1, 5236, Note_off_c, 0, 62, 64
1, 5249, Control_c, 0, 64, 71
1, 5252, Note_off_c, 0, 65, 60
1, 5263, Control_c, 0, 64, 76
1, 5270, Note_off_c, 0, 70, 64
1, 5278, Control_c, 0, 64, 82
1, 5293, Control_c, 0, 64, 93
1, 5307, Control_c, 0, 64, 127
1, 5544, Control_c, 0, 64, 116
1, 5559, Control_c, 0, 64, 70
1, 5566, Note_on_c, 0, 82, 76
1, 5573, Control_c, 0, 64, 0
1, 5577, Note_on_c, 0, 74, 57
1, 5580, Note_on_c, 0, 70, 56
1, 5596, Note_off_c, 0, 74, 61
1, 5607, Note_off_c, 0, 70, 65
1, 5609, Note_off_c, 0, 82, 63
1, 5878, Note_on_c, 0, 81, 76
1, 5882, Note_on_c, 0, 75, 63
1, 5883, Note_on_c, 0, 77, 63
1, 5891, Note_on_c, 0, 72, 66
1, 5893, Control_c, 0, 64, 57
1, 5898, Note_on_c, 0, 65, 45
1, 5900, Note_off_c, 0, 75, 63
1, 5902, Note_off_c, 0, 81, 70
1, 5903, Note_off_c, 0, 77, 66
1, 5908, Control_c, 0, 64, 101
1, 5918, Note_off_c, 0, 72, 67
1, 5922, Note_off_c, 0, 65, 59
1, 5923, Control_c, 0, 64, 127
1, 6281, Note_on_c, 0, 103, 79
1, 6286, Note_on_c, 0, 77, 63
1, 6288, Note_on_c, 0, 84, 67
1, 6290, Note_on_c, 0, 87, 64
1, 6293, Note_on_c, 0, 89, 73
1, 6300, Note_on_c, 0, 96, 54
1, 6309, Note_off_c, 0, 87, 65
1, 6313, Note_off_c, 0, 103, 65
1, 6316, Note_off_c, 0, 84, 65
1, 6318, Note_off_c, 0, 89, 62
1, 6320, Note_off_c, 0, 96, 61
1, 6321, Note_off_c, 0, 77, 63
1, 6356, Note_on_c, 0, 103, 76
1, 6368, Note_on_c, 0, 96, 68
1, 6368, Note_on_c, 0, 87, 74
1, 6371, Note_on_c, 0, 84, 56
1, 6374, Poly_aftertouch_c, 0, 77, 0
1, 6383, Note_off_c, 0, 87, 69
1, 6386, Poly_aftertouch_c, 0, 89, 0
1, 6388, Note_off_c, 0, 103, 66
1, 6402, Note_off_c, 0, 96, 67
1, 6407, Note_off_c, 0, 84, 59
1, 6441, Note_on_c, 0, 87, 85
1, 6449, Note_on_c, 0, 103, 96
1, 6459, Note_on_c, 0, 89, 78
1, 6461, Note_off_c, 0, 87, 72
1, 6464, Note_on_c, 0, 96, 70
1, 6465, Poly_aftertouch_c, 0, 84, 0
1, 6475, Note_off_c, 0, 89, 68
1, 6479, Note_off_c, 0, 96, 67
1, 6481, Note_off_c, 0, 103, 64
1, 6834, Control_c, 0, 64, 107
1, 6849, Control_c, 0, 64, 71
1, 6864, Note_on_c, 0, 81, 66
1, 6864, Control_c, 0, 64, 42
1, 6865, Note_on_c, 0, 75, 71
1, 6873, Note_on_c, 0, 72, 54
1, 6878, Control_c, 0, 64, 0
1, 6890, Note_off_c, 0, 75, 67
1, 6890, Note_on_c, 0, 65, 34
1, 6893, Note_off_c, 0, 81, 69
1, 6894, Note_off_c, 0, 72, 61
1, 6921, Note_off_c, 0, 65, 48
1, 7161, Note_on_c, 0, 82, 69
1, 7164, Note_on_c, 0, 74, 63
1, 7165, Note_on_c, 0, 70, 58
1, 7179, Note_on_c, 0, 65, 44
1, 7182, Control_c, 0, 64, 56
1, 7186, Note_on_c, 0, 77, 36
1, 7188, Note_off_c, 0, 82, 69
1, 7194, Note_off_c, 0, 74, 64
1, 7196, Note_off_c, 0, 70, 66
1, 7197, Control_c, 0, 64, 66
1, 7203, Note_off_c, 0, 65, 58
1, 7212, Control_c, 0, 64, 71
1, 7214, Note_off_c, 0, 77, 34
1, 7227, Control_c, 0, 64, 78
1, 7242, Control_c, 0, 64, 94
1, 7257, Control_c, 0, 64, 127
1, 7579, Note_on_c, 0, 65, 55
1, 7585, Note_on_c, 0, 58, 57
1, 7593, Note_on_c, 0, 53, 43
1, 7612, Note_off_c, 0, 58, 63
1, 7614, Note_off_c, 0, 65, 60
1, 7623, Note_off_c, 0, 53, 54
1, 7635, Poly_aftertouch_c, 0, 62, 127
1, 7662, Poly_aftertouch_c, 0, 65, 0
1, 7694, Note_on_c, 0, 58, 43
1, 7710, Poly_aftertouch_c, 0, 62, 0
1, 7734, Note_off_c, 0, 58, 43
1, 7749, Note_on_c, 0, 62, 47
1, 7766, Note_on_c, 0, 65, 54
1, 7772, Note_on_c, 0, 58, 44
1, 7782, Note_on_c, 0, 53, 31
1, 7782, Note_off_c, 0, 62, 65
1, 7796, Note_off_c, 0, 65, 64
1, 7901, Note_off_c, 0, 58, 61
1, 7960, Control_c, 0, 64, 123
1, 7975, Control_c, 0, 64, 113
1, 7989, Control_c, 0, 64, 107
1, 8004, Control_c, 0, 64, 103
1, 8019, Control_c, 0, 64, 99
1, 8033, Control_c, 0, 64, 96
1, 8050, Control_c, 0, 64, 93
1, 8064, Control_c, 0, 64, 90
1, 8079, Control_c, 0, 64, 88
1, 8094, Control_c, 0, 64, 86
1, 8109, Control_c, 0, 64, 85
1, 8123, Control_c, 0, 64, 84
1, 8130, Note_off_c, 0, 53, 57
1, 8138, Control_c, 0, 64, 83
1, 8153, Control_c, 0, 64, 82
1, 8168, Control_c, 0, 64, 81
1, 8183, Control_c, 0, 64, 80
1, 8197, Control_c, 0, 64, 78
1, 8212, Control_c, 0, 64, 77
1, 8227, Control_c, 0, 64, 76
1, 8242, Control_c, 0, 64, 75
1, 8257, Control_c, 0, 64, 75
1, 8271, Control_c, 0, 64, 74
1, 8286, Control_c, 0, 64, 74
1, 8301, Control_c, 0, 64, 73
1, 8316, Control_c, 0, 64, 72
1, 8330, Control_c, 0, 64, 71
1, 8334, Note_on_c, 0, 74, 64
1, 8345, Control_c, 0, 64, 71
1, 8360, Control_c, 0, 64, 70
1, 8375, Control_c, 0, 64, 69
1, 8378, Note_on_c, 0, 65, 42
1, 8390, Control_c, 0, 64, 68
1, 8404, Control_c, 0, 64, 67
1, 8419, Control_c, 0, 64, 67
1, 8434, Control_c, 0, 64, 66
1, 8449, Control_c, 0, 64, 65
1, 8464, Control_c, 0, 64, 65
1, 8473, Note_off_c, 0, 65, 55
1, 8494, Control_c, 0, 64, 64
1, 8538, Control_c, 0, 64, 64
1, 8583, Control_c, 0, 64, 63
1, 8598, Control_c, 0, 64, 63
1, 8613, Control_c, 0, 64, 60
1, 8614, Note_on_c, 0, 73, 64
1, 8628, Control_c, 0, 64, 45
1, 8649, Note_on_c, 0, 64, 46
1, 8649, Control_c, 0, 64, 0
1, 8655, Note_off_c, 0, 74, 63
1, 8738, Control_c, 0, 64, 23
1, 8753, Control_c, 0, 64, 51
1, 8768, Control_c, 0, 64, 58
1, 8783, Control_c, 0, 64, 60
1, 8798, Control_c, 0, 64, 61
1, 8813, Control_c, 0, 64, 62
1, 8828, Control_c, 0, 64, 63
1, 8842, Control_c, 0, 64, 65
1, 8858, Control_c, 0, 64, 67
1, 8873, Note_on_c, 0, 41, 3
1, 8873, Control_c, 0, 64, 71
1, 8887, Control_c, 0, 64, 75
1, 8902, Control_c, 0, 64, 78
1, 8917, Control_c, 0, 64, 80
1, 8947, Control_c, 0, 64, 79
1, 8962, Control_c, 0, 64, 79
1, 8977, Control_c, 0, 64, 78
1, 8992, Control_c, 0, 64, 78
1, 9006, Control_c, 0, 64, 77
1, 9021, Control_c, 0, 64, 75
1, 9036, Control_c, 0, 64, 67
1, 9047, Note_on_c, 0, 74, 63
1, 9051, Control_c, 0, 64, 50
1, 9066, Control_c, 0, 64, 0
1, 9068, Note_on_c, 0, 53, 37
1, 9077, Note_off_c, 0, 64, 58
1, 9081, Note_off_c, 0, 73, 65
1, 9106, Note_on_c, 0, 65, 39
1, 9110, Control_c, 0, 64, 33
1, 9125, Control_c, 0, 64, 53
1, 9140, Control_c, 0, 64, 61
1, 9154, Control_c, 0, 64, 64
1, 9169, Control_c, 0, 64, 66
1, 9184, Control_c, 0, 64, 67
1, 9199, Control_c, 0, 64, 69
1, 9214, Control_c, 0, 64, 71
1, 9228, Control_c, 0, 64, 74
1, 9243, Control_c, 0, 64, 77
1, 9258, Control_c, 0, 64, 78
1, 9272, Control_c, 0, 64, 72
1, 9287, Control_c, 0, 64, 64
1, 9302, Control_c, 0, 64, 55
1, 9307, Note_on_c, 0, 70, 59
1, 9316, Note_on_c, 0, 62, 43
1, 9317, Control_c, 0, 64, 53
1, 9332, Control_c, 0, 64, 55
1, 9341, Note_off_c, 0, 41, 54
1, 9346, Control_c, 0, 64, 60
1, 9361, Control_c, 0, 64, 64
1, 9376, Control_c, 0, 64, 68
1, 9385, Note_off_c, 0, 65, 34
1, 9399, Control_c, 0, 64, 72
1, 9403, Note_off_c, 0, 74, 64
1, 9414, Control_c, 0, 64, 74
1, 9428, Control_c, 0, 64, 76
1, 9443, Note_off_c, 0, 53, 39
1, 9443, Control_c, 0, 64, 77
1, 9458, Control_c, 0, 64, 78
1, 9472, Control_c, 0, 64, 79
1, 9487, Control_c, 0, 64, 80
1, 9502, Control_c, 0, 64, 81
1, 9517, Control_c, 0, 64, 83
1, 9532, Control_c, 0, 64, 85
1, 9536, Note_on_c, 0, 41, 52
1, 9546, Control_c, 0, 64, 88
1, 9561, Control_c, 0, 64, 91
1, 9567, Note_off_c, 0, 62, 62
1, 9571, Note_off_c, 0, 41, 63
1, 9576, Control_c, 0, 64, 92
1, 9591, Control_c, 0, 64, 93
1, 9606, Control_c, 0, 64, 94
1, 9620, Control_c, 0, 64, 98
1, 9635, Control_c, 0, 64, 102
1, 9651, Control_c, 0, 64, 105
1, 9666, Control_c, 0, 64, 104
1, 9668, Note_on_c, 0, 41, 51
1, 9681, Control_c, 0, 64, 91
1, 9695, Control_c, 0, 64, 74
1, 9710, Control_c, 0, 64, 61
1, 9725, Control_c, 0, 64, 47
1, 9740, Control_c, 0, 64, 42
1, 9755, Control_c, 0, 64, 44
1, 9770, Control_c, 0, 64, 53
1, 9784, Control_c, 0, 64, 61
1, 9799, Control_c, 0, 64, 65
1, 9802, Note_on_c, 0, 72, 59
1, 9814, Control_c, 0, 64, 68
1, 9818, Note_on_c, 0, 53, 47
1, 9823, Note_on_c, 0, 63, 42
1, 9829, Control_c, 0, 64, 72
1, 9844, Control_c, 0, 64, 75
1, 9855, Note_off_c, 0, 41, 55
1, 9859, Control_c, 0, 64, 78
1, 9874, Control_c, 0, 64, 81
1, 9889, Note_off_c, 0, 70, 58
1, 9889, Control_c, 0, 64, 84
1, 9897, Note_off_c, 0, 53, 53
1, 9903, Control_c, 0, 64, 87
1, 9918, Control_c, 0, 64, 90
1, 9924, Note_off_c, 0, 63, 58
1, 9933, Control_c, 0, 64, 93
1, 9948, Control_c, 0, 64, 97
1, 9963, Control_c, 0, 64, 98
1, 9992, Control_c, 0, 64, 98
1, 10007, Note_off_c, 0, 72, 52
1, 10007, Control_c, 0, 64, 97
1, 10022, Control_c, 0, 64, 97
1, 10037, Control_c, 0, 64, 96
1, 10051, Control_c, 0, 64, 95
1, 10066, Control_c, 0, 64, 95
1, 10081, Control_c, 0, 64, 94
1, 10095, Control_c, 0, 64, 92
1, 10110, Control_c, 0, 64, 91
1, 10125, Control_c, 0, 64, 88
1, 10148, Control_c, 0, 64, 86
1, 10163, Control_c, 0, 64, 84
1, 10177, Control_c, 0, 64, 83
1, 10192, Control_c, 0, 64, 82
1, 10207, Control_c, 0, 64, 80
1, 10222, Control_c, 0, 64, 73
1, 10237, Control_c, 0, 64, 61
1, 10246, Note_on_c, 0, 70, 48
1, 10249, Note_on_c, 0, 62, 40
1, 10251, Control_c, 0, 64, 0
1, 10264, Note_on_c, 0, 46, 26
1, 10266, Note_on_c, 0, 53, 33
1, 10355, Control_c, 0, 64, 26
1, 10369, Control_c, 0, 64, 51
1, 10378, Note_off_c, 0, 62, 61
1, 10384, Control_c, 0, 64, 60
1, 10399, Control_c, 0, 64, 64
1, 10414, Control_c, 0, 64, 66
1, 10419, Note_off_c, 0, 46, 58
1, 10428, Note_off_c, 0, 70, 63
1, 10429, Control_c, 0, 64, 71
1, 10439, Note_off_c, 0, 53, 56
1, 10445, Control_c, 0, 64, 78
1, 10460, Control_c, 0, 64, 95
1, 10474, Control_c, 0, 64, 127
1, 10995, Note_on_c, 0, 94, 54
1, 11009, Note_on_c, 0, 58, 38
1, 11026, Note_on_c, 0, 82, 19
1, 11042, Note_off_c, 0, 94, 58
1, 11045, Note_off_c, 0, 58, 57
1, 11063, Note_off_c, 0, 82, 39
1, 11063, Poly_aftertouch_c, 0, 65, 127
1, 11098, Poly_aftertouch_c, 0, 70, 0
1, 11141, Note_on_c, 0, 94, 51
1, 11150, Poly_aftertouch_c, 0, 65, 0
1, 11155, Note_on_c, 0, 82, 46
1, 11160, Note_on_c, 0, 70, 14
1, 11167, Note_on_c, 0, 58, 34
1, 11171, Note_off_c, 0, 94, 52
1, 11179, Note_off_c, 0, 82, 56
1, 11187, Poly_aftertouch_c, 0, 65, 127
1, 11198, Note_off_c, 0, 58, 53
1, 11203, Note_off_c, 0, 70, 44
1, 11232, Poly_aftertouch_c, 0, 65, 0
1, 11235, Poly_aftertouch_c, 0, 86, 0
1, 11293, Note_on_c, 0, 94, 56
1, 11296, Note_on_c, 0, 82, 47
1, 11310, Note_on_c, 0, 70, 38
1, 11323, Note_on_c, 0, 58, 42
1, 11331, Note_on_c, 0, 65, 25
1, 11336, Note_on_c, 0, 86, 38
1, 11340, Note_off_c, 0, 94, 62
1, 11342, Note_off_c, 0, 82, 65
1, 11364, Note_off_c, 0, 86, 49
1, 11484, Note_off_c, 0, 70, 50
1, 11675, Note_off_c, 0, 58, 26
1, 11715, Note_off_c, 0, 65, 41
1, 11882, Control_c, 0, 64, 80
1, 11897, Control_c, 0, 64, 59
1, 11912, Control_c, 0, 64, 0
1, 12054, Note_on_c, 0, 74, 69
1, 12063, Note_on_c, 0, 70, 45
1, 12089, Note_off_c, 0, 70, 55
1, 12159, Note_on_c, 0, 65, 64
1, 12187, Note_off_c, 0, 65, 64
1, 12274, Note_off_c, 0, 74, 58
1, 12342, Note_on_c, 0, 75, 68
1, 12372, Note_on_c, 0, 65, 58
1, 12379, Note_on_c, 0, 69, 42
1, 12424, Control_c, 0, 64, 62
1, 12434, Note_off_c, 0, 65, 63
1, 12439, Control_c, 0, 64, 84
1, 12445, Note_off_c, 0, 69, 62
1, 12453, Control_c, 0, 64, 127
1, 12488, Note_off_c, 0, 75, 64
1, 12802, Note_on_c, 0, 69, 81
1, 12808, Note_on_c, 0, 63, 64
1, 12819, Note_on_c, 0, 99, 69
1, 12829, Note_on_c, 0, 101, 42
1, 12830, Note_on_c, 0, 89, 54
1, 12830, Note_on_c, 0, 93, 54
1, 12832, Note_on_c, 0, 60, 42
1, 12840, Note_on_c, 0, 53, 38
1, 12851, Note_off_c, 0, 93, 61
1, 12851, Note_off_c, 0, 89, 59
1, 12852, Note_off_c, 0, 99, 65
1, 12852, Note_off_c, 0, 69, 62
1, 12854, Note_off_c, 0, 63, 54
1, 12861, Note_off_c, 0, 60, 53
1, 12861, Note_off_c, 0, 101, 47
1, 12877, Note_off_c, 0, 53, 49
1, 12908, Note_on_c, 0, 89, 61
1, 12911, Note_on_c, 0, 99, 67
1, 12922, Note_on_c, 0, 93, 47
1, 12939, Note_off_c, 0, 89, 59
1, 12947, Note_off_c, 0, 99, 61
1, 12949, Note_off_c, 0, 93, 54
1, 13032, Control_c, 0, 64, 70
1, 13047, Control_c, 0, 64, 29
1, 13054, Note_on_c, 0, 101, 59
1, 13054, Note_on_c, 0, 53, 60
1, 13056, Note_on_c, 0, 99, 74
1, 13060, Note_on_c, 0, 69, 68
1, 13061, Note_on_c, 0, 60, 60
1, 13061, Control_c, 0, 64, 0
1, 13063, Note_on_c, 0, 63, 61
1, 13066, Note_on_c, 0, 89, 49
1, 13078, Note_on_c, 0, 93, 38
1, 13090, Note_off_c, 0, 89, 57
1, 13092, Note_off_c, 0, 101, 65
1, 13108, Note_off_c, 0, 93, 65
1, 13112, Note_off_c, 0, 99, 64
1, 13121, Control_c, 0, 64, 46
1, 13144, Control_c, 0, 64, 63
1, 13159, Control_c, 0, 64, 70
1, 13174, Control_c, 0, 64, 77
1, 13189, Control_c, 0, 64, 86
1, 13203, Control_c, 0, 64, 104
1, 13218, Control_c, 0, 64, 127
1, 13220, Note_off_c, 0, 60, 65
1, 13240, Note_off_c, 0, 53, 63
1, 13266, Note_off_c, 0, 63, 62
1, 13396, Note_off_c, 0, 69, 62
1, 13486, Note_on_c, 0, 69, 76
1, 13504, Note_on_c, 0, 63, 67
1, 13567, Note_off_c, 0, 63, 52
1, 13575, Note_on_c, 0, 65, 63
1, 13615, Note_off_c, 0, 65, 64
1, 13722, Control_c, 0, 64, 88
1, 13737, Control_c, 0, 64, 60
1, 13752, Control_c, 0, 64, 0
1, 13761, Note_on_c, 0, 72, 71
1, 13768, Note_on_c, 0, 65, 43
1, 13784, Note_on_c, 0, 62, 51
1, 13827, Note_off_c, 0, 69, 59
1, 13841, Control_c, 0, 64, 40
1, 13856, Control_c, 0, 64, 66
1, 13865, Note_off_c, 0, 62, 64
1, 13871, Control_c, 0, 64, 76
1, 13892, Control_c, 0, 64, 95
1, 13898, Note_off_c, 0, 65, 63
1, 13907, Control_c, 0, 64, 127
1, 13919, Note_off_c, 0, 72, 66
1, 14196, Note_on_c, 0, 70, 75
1, 14211, Note_on_c, 0, 62, 61
1, 14214, Note_on_c, 0, 89, 69
1, 14215, Note_on_c, 0, 101, 60
1, 14218, Note_on_c, 0, 94, 59
1, 14222, Note_on_c, 0, 53, 39
1, 14230, Note_off_c, 0, 70, 57
1, 14231, Note_on_c, 0, 98, 44
1, 14238, Note_off_c, 0, 101, 62
1, 14244, Note_off_c, 0, 89, 66
1, 14247, Note_off_c, 0, 94, 64
1, 14254, Note_off_c, 0, 62, 58
1, 14256, Note_off_c, 0, 53, 52
1, 14257, Note_off_c, 0, 98, 51
1, 14309, Note_on_c, 0, 89, 68
1, 14322, Note_on_c, 0, 101, 52
1, 14330, Note_on_c, 0, 94, 49
1, 14339, Note_off_c, 0, 89, 64
1, 14342, Note_on_c, 0, 98, 44
1, 14348, Note_off_c, 0, 101, 54
1, 14352, Note_off_c, 0, 94, 57
1, 14369, Note_off_c, 0, 98, 51
1, 14438, Note_on_c, 0, 70, 62
1, 14441, Control_c, 0, 64, 101
1, 14450, Note_on_c, 0, 62, 38
1, 14456, Note_on_c, 0, 53, 17
1, 14456, Control_c, 0, 64, 62
1, 14464, Note_on_c, 0, 101, 66
1, 14471, Control_c, 0, 64, 0
1, 14473, Note_on_c, 0, 98, 48
1, 14476, Note_on_c, 0, 89, 60
1, 14482, Note_on_c, 0, 94, 41
1, 14503, Note_on_c, 0, 55, 9
1, 14530, Control_c, 0, 64, 46
1, 14545, Control_c, 0, 64, 63
1, 14557, Note_off_c, 0, 55, 51
1, 14558, Note_off_c, 0, 70, 64
1, 14560, Control_c, 0, 64, 70
1, 14560, Note_off_c, 0, 89, 64
1, 14563, Note_off_c, 0, 53, 60
1, 14572, Note_off_c, 0, 101, 65
1, 14572, Note_off_c, 0, 98, 59
1, 14575, Control_c, 0, 64, 79
1, 14588, Note_off_c, 0, 94, 63
1, 14590, Control_c, 0, 64, 96
1, 14598, Note_off_c, 0, 62, 51
1, 14605, Control_c, 0, 64, 127
1, 14803, Note_on_c, 0, 58, 56
1, 14846, Note_on_c, 0, 62, 42
1, 14849, Control_c, 0, 64, 94
1, 14853, Note_on_c, 0, 65, 71
1, 14854, Note_off_c, 0, 58, 62
1, 14864, Control_c, 0, 64, 64
1, 14873, Note_off_c, 0, 62, 56
1, 14873, Note_off_c, 0, 65, 64
1, 14879, Control_c, 0, 64, 0
1, 15099, Note_on_c, 0, 63, 55
1, 15099, Note_on_c, 0, 65, 65
1, 15100, Control_c, 0, 64, 22
1, 15108, Note_on_c, 0, 60, 52
1, 15115, Control_c, 0, 64, 64
1, 15130, Control_c, 0, 64, 73
1, 15139, Note_off_c, 0, 60, 65
1, 15139, Note_off_c, 0, 65, 64
1, 15140, Note_off_c, 0, 63, 65
1, 15145, Control_c, 0, 64, 83
1, 15159, Control_c, 0, 64, 91
1, 15174, Control_c, 0, 64, 101
1, 15189, Control_c, 0, 64, 121
1, 15204, Control_c, 0, 64, 127
1, 15318, Note_on_c, 0, 65, 61
1, 15341, Note_off_c, 0, 65, 59
1, 15405, Note_on_c, 0, 65, 79
1, 15455, Note_off_c, 0, 65, 0
1, 15479, Note_on_c, 0, 59, 50
1, 15479, Note_on_c, 0, 62, 57
1, 15479, Note_on_c, 0, 77, 82
1, 15492, Poly_aftertouch_c, 0, 65, 127
1, 15499, Poly_aftertouch_c, 0, 65, 0
1, 15502, Note_off_c, 0, 77, 69
1, 15504, Note_off_c, 0, 59, 57
1, 15508, Note_off_c, 0, 62, 63
1, 15676, Note_on_c, 0, 65, 79
1, 15682, Note_on_c, 0, 60, 69
1, 15687, Note_on_c, 0, 63, 68
1, 15687, Control_c, 0, 64, 83
1, 15693, Note_on_c, 0, 77, 81
1, 15702, Control_c, 0, 64, 56
1, 15716, Control_c, 0, 64, 0
1, 15718, Note_off_c, 0, 77, 67
1, 15781, Note_on_c, 0, 77, 84
1, 15790, Control_c, 0, 64, 55
1, 15805, Control_c, 0, 64, 64
1, 15814, Note_off_c, 0, 65, 61
1, 15820, Control_c, 0, 64, 66
1, 15862, Note_off_c, 0, 77, 62
1, 15864, Control_c, 0, 64, 67
1, 15871, Note_on_c, 0, 89, 88
1, 15879, Control_c, 0, 64, 68
1, 15894, Control_c, 0, 64, 72
1, 15908, Control_c, 0, 64, 78
1, 15913, Note_off_c, 0, 89, 64
1, 15923, Control_c, 0, 64, 89
1, 15931, Note_on_c, 0, 67, 88
1, 15938, Control_c, 0, 64, 118
1, 15953, Control_c, 0, 64, 127
1, 15955, Note_off_c, 0, 60, 64
1, 15962, Note_off_c, 0, 67, 63
1, 15967, Note_off_c, 0, 63, 62
1, 16029, Note_on_c, 0, 65, 95
1, 16048, Note_on_c, 0, 88, 69
1, 16050, Note_on_c, 0, 89, 75
1, 16053, Note_on_c, 0, 61, 46
1, 16059, Note_off_c, 0, 65, 61
1, 16073, Note_on_c, 0, 57, 21
1, 16074, Note_off_c, 0, 89, 68
1, 16076, Note_off_c, 0, 88, 68
1, 16077, Note_off_c, 0, 61, 57
1, 16114, Note_off_c, 0, 57, 44
1, 16140, Note_on_c, 0, 89, 81
1, 16187, Note_on_c, 0, 61, 33
1, 16223, Note_off_c, 0, 61, 49
1, 16281, Note_on_c, 0, 65, 74
1, 16284, Note_on_c, 0, 101, 87
1, 16292, Note_on_c, 0, 58, 70
1, 16292, Note_on_c, 0, 62, 65
1, 16317, Note_off_c, 0, 89, 61
1, 16317, Control_c, 0, 64, 70
1, 16332, Control_c, 0, 64, 0
1, 16375, Note_on_c, 0, 98, 76
1, 16384, Note_off_c, 0, 101, 64
1, 16388, Note_on_c, 0, 94, 70
1, 16406, Control_c, 0, 64, 34
1, 16420, Control_c, 0, 64, 65
1, 16435, Control_c, 0, 64, 73
1, 16447, Note_off_c, 0, 98, 66
1, 16450, Control_c, 0, 64, 84
1, 16459, Note_off_c, 0, 94, 62
1, 16465, Control_c, 0, 64, 94
1, 16480, Note_on_c, 0, 89, 67
1, 16480, Control_c, 0, 64, 104
1, 16494, Control_c, 0, 64, 127
1, 16501, Note_off_c, 0, 65, 64
1, 16505, Note_off_c, 0, 89, 64
1, 16510, Note_off_c, 0, 62, 64
1, 16517, Note_off_c, 0, 58, 64
1, 16565, Note_on_c, 0, 86, 73
1, 16598, Note_on_c, 0, 82, 61
1, 16619, Note_off_c, 0, 86, 56
1, 16632, Note_off_c, 0, 82, 66
1, 16682, Note_on_c, 0, 77, 28
1, 16712, Note_off_c, 0, 77, 35
1, 16721, Note_on_c, 0, 46, 56
1, 16749, Note_on_c, 0, 74, 44
1, 16766, Note_on_c, 0, 70, 64
1, 16775, Note_off_c, 0, 74, 53
1, 16781, Note_on_c, 0, 53, 47
1, 16790, Note_off_c, 0, 46, 49
1, 16805, Note_off_c, 0, 70, 59
1, 16854, Note_on_c, 0, 65, 60
1, 16927, Note_off_c, 0, 65, 61
1, 16962, Control_c, 0, 64, 92
1, 16977, Control_c, 0, 64, 72
1, 16992, Control_c, 0, 64, 68
1, 17007, Control_c, 0, 64, 69
1, 17010, Note_on_c, 0, 62, 65
1, 17022, Control_c, 0, 64, 72
1, 17025, Note_on_c, 0, 82, 66
1, 17036, Control_c, 0, 64, 77
1, 17040, Note_off_c, 0, 82, 68
1, 17051, Control_c, 0, 64, 86
1, 17066, Control_c, 0, 64, 99
1, 17081, Control_c, 0, 64, 105
1, 17096, Control_c, 0, 64, 104
1, 17103, Note_off_c, 0, 53, 63
1, 17110, Control_c, 0, 64, 104
1, 17155, Control_c, 0, 64, 106
1, 17169, Control_c, 0, 64, 113
1, 17184, Control_c, 0, 64, 127
1, 17208, Note_off_c, 0, 62, 65
1, 17362, Control_c, 0, 64, 102
1, 17377, Control_c, 0, 64, 76
1, 17392, Control_c, 0, 64, 55
1, 17407, Control_c, 0, 64, 0
1, 17415, Note_on_c, 0, 70, 58
1, 17415, Note_on_c, 0, 74, 61
1, 17433, Note_off_c, 0, 70, 64
1, 17451, Note_off_c, 0, 74, 63
1, 17666, Control_c, 0, 64, 48
1, 17670, Note_on_c, 0, 75, 62
1, 17674, Note_on_c, 0, 69, 49
1, 17679, Note_on_c, 0, 60, 48
1, 17681, Control_c, 0, 64, 66
1, 17696, Control_c, 0, 64, 71
1, 17702, Note_on_c, 0, 65, 26
1, 17703, Note_off_c, 0, 60, 62
1, 17703, Note_off_c, 0, 69, 64
1, 17711, Control_c, 0, 64, 77
1, 17726, Control_c, 0, 64, 84
1, 17737, Note_off_c, 0, 75, 62
1, 17740, Note_off_c, 0, 65, 31
1, 17740, Control_c, 0, 64, 94
1, 17755, Control_c, 0, 64, 127
1, 18068, Note_on_c, 0, 65, 76
1, 18072, Note_on_c, 0, 63, 67
1, 18075, Note_on_c, 0, 60, 54
1, 18082, Note_on_c, 0, 89, 68
1, 18083, Note_on_c, 0, 99, 68
1, 18087, Note_on_c, 0, 101, 53
1, 18093, Note_on_c, 0, 93, 50
1, 18095, Note_on_c, 0, 53, 43
1, 18108, Note_off_c, 0, 65, 60
1, 18109, Note_off_c, 0, 101, 59
1, 18110, Note_off_c, 0, 63, 57
1, 18110, Note_off_c, 0, 89, 66
1, 18113, Note_off_c, 0, 60, 63
1, 18114, Note_off_c, 0, 93, 58
1, 18115, Note_off_c, 0, 99, 64
1, 18124, Note_off_c, 0, 53, 54
1, 18167, Poly_aftertouch_c, 0, 89, 0
1, 18170, Note_on_c, 0, 93, 56
1, 18179, Note_on_c, 0, 99, 61
1, 18190, Note_off_c, 0, 93, 60
1, 18203, Note_off_c, 0, 99, 61
1, 18287, Control_c, 0, 64, 96
1, 18298, Note_on_c, 0, 53, 40
1, 18302, Control_c, 0, 64, 64
1, 18304, Note_on_c, 0, 65, 68
1, 18304, Note_on_c, 0, 60, 54
1, 18312, Note_on_c, 0, 101, 75
1, 18313, Note_on_c, 0, 99, 65
1, 18315, Note_on_c, 0, 63, 59
1, 18316, Control_c, 0, 64, 0
1, 18330, Note_on_c, 0, 93, 55
1, 18331, Note_on_c, 0, 89, 67
1, 18358, Note_off_c, 0, 101, 66
1, 18360, Note_off_c, 0, 89, 67
1, 18364, Note_off_c, 0, 93, 67
1, 18375, Note_off_c, 0, 99, 64
1, 18376, Control_c, 0, 64, 53
1, 18398, Control_c, 0, 64, 65
1, 18413, Control_c, 0, 64, 75
1, 18428, Control_c, 0, 64, 96
1, 18444, Control_c, 0, 64, 127
1, 18458, Note_off_c, 0, 60, 65
1, 18461, Note_off_c, 0, 53, 63
1, 18488, Note_off_c, 0, 63, 62
1, 18557, Note_off_c, 0, 65, 63
1, 18727, Note_on_c, 0, 69, 75
1, 18744, Note_on_c, 0, 63, 61
1, 18775, Note_off_c, 0, 63, 59
1, 18787, Note_off_c, 0, 69, 55
1, 18808, Note_on_c, 0, 65, 54
1, 18845, Note_off_c, 0, 65, 61
1, 18918, Control_c, 0, 64, 83
1, 18932, Control_c, 0, 64, 0
1, 18986, Note_on_c, 0, 70, 69
1, 18999, Note_on_c, 0, 62, 58
1, 19016, Note_on_c, 0, 65, 44
1, 19036, Control_c, 0, 64, 59
1, 19051, Control_c, 0, 64, 73
1, 19066, Control_c, 0, 64, 113
1, 19071, Note_off_c, 0, 62, 63
1, 19075, Note_off_c, 0, 65, 62
1, 19080, Control_c, 0, 64, 127
1, 19100, Note_off_c, 0, 70, 63
1, 19404, Note_on_c, 0, 74, 77
1, 19422, Note_on_c, 0, 70, 57
1, 19425, Note_on_c, 0, 89, 64
1, 19426, Note_off_c, 0, 74, 69
1, 19428, Note_on_c, 0, 98, 64
1, 19432, Note_on_c, 0, 94, 58
1, 19433, Note_on_c, 0, 101, 49
1, 19443, Note_off_c, 0, 70, 62
1, 19450, Note_off_c, 0, 89, 64
1, 19457, Note_off_c, 0, 101, 57
1, 19463, Note_off_c, 0, 98, 61
1, 19469, Note_off_c, 0, 94, 62
1, 19532, Note_on_c, 0, 89, 46
1, 19538, Poly_aftertouch_c, 0, 94, 0
1, 19544, Poly_aftertouch_c, 0, 98, 0
1, 19556, Note_off_c, 0, 89, 55
1, 19720, Note_on_c, 0, 62, 46
1, 19720, Note_on_c, 0, 65, 50
1, 19726, Note_on_c, 0, 101, 61
1, 19726, Control_c, 0, 64, 75
1, 19729, Note_on_c, 0, 53, 47
1, 19741, Control_c, 0, 64, 48
1, 19746, Note_on_c, 0, 94, 42
1, 19748, Note_on_c, 0, 89, 40
1, 19755, Control_c, 0, 64, 0
1, 19770, Note_on_c, 0, 98, 44
1, 19778, Note_off_c, 0, 89, 53
1, 19793, Note_off_c, 0, 94, 64
1, 19793, Note_off_c, 0, 101, 66
1, 19800, Control_c, 0, 64, 26
1, 19801, Note_off_c, 0, 98, 66
1, 19815, Control_c, 0, 64, 56
1, 19829, Control_c, 0, 64, 64
1, 19844, Control_c, 0, 64, 71
1, 19859, Control_c, 0, 64, 81
1, 19881, Control_c, 0, 64, 91
1, 19896, Control_c, 0, 64, 103
1, 19911, Control_c, 0, 64, 127
1, 19954, Note_off_c, 0, 62, 63
1, 19989, Note_off_c, 0, 65, 63
1, 20224, Note_on_c, 0, 65, 74
1, 20239, Note_on_c, 0, 58, 68
1, 20248, Note_on_c, 0, 62, 55
1, 20275, Note_off_c, 0, 53, 64
1, 20293, Note_off_c, 0, 58, 54
1, 20343, Note_off_c, 0, 65, 53
1, 20364, Note_off_c, 0, 62, 0
1, 20401, Poly_aftertouch_c, 0, 62, 127
1, 20457, Poly_aftertouch_c, 0, 62, 0
1, 20459, Control_c, 0, 64, 87
1, 20466, Note_on_c, 0, 65, 84
1, 20474, Control_c, 0, 64, 58
1, 20479, Note_on_c, 0, 60, 79
1, 20480, Note_on_c, 0, 63, 73
1, 20490, Control_c, 0, 64, 0
1, 20495, Poly_aftertouch_c, 0, 62, 127
1, 20535, Poly_aftertouch_c, 0, 62, 0
1, 20549, Control_c, 0, 64, 55
1, 20557, Note_off_c, 0, 60, 54
1, 20564, Control_c, 0, 64, 65
1, 20578, Control_c, 0, 64, 73
1, 20593, Control_c, 0, 64, 85
1, 20608, Control_c, 0, 64, 102
1, 20631, Control_c, 0, 64, 127
1, 20703, Note_on_c, 0, 53, 31
1, 20739, Note_off_c, 0, 53, 51
1, 20771, Note_on_c, 0, 53, 68
1, 20776, Note_off_c, 0, 63, 55
1, 20783, Note_off_c, 0, 65, 51
1, 20833, Note_on_c, 0, 65, 54
1, 20850, Note_off_c, 0, 53, 64
1, 20870, Note_on_c, 0, 62, 81
1, 21017, Note_off_c, 0, 65, 57
1, 21115, Note_on_c, 0, 65, 89
1, 21117, Note_on_c, 0, 63, 84
1, 21123, Note_on_c, 0, 60, 83
1, 21127, Note_on_c, 0, 41, 84
1, 21136, Control_c, 0, 64, 88
1, 21150, Control_c, 0, 64, 54
1, 21165, Control_c, 0, 64, 0
1, 21181, Note_off_c, 0, 62, 57
1, 21185, Note_off_c, 0, 41, 64
1, 21224, Control_c, 0, 64, 54
1, 21237, Note_on_c, 0, 41, 62
1, 21239, Control_c, 0, 64, 64
1, 21254, Control_c, 0, 64, 71
1, 21269, Note_off_c, 0, 60, 58
1, 21269, Control_c, 0, 64, 80
1, 21283, Control_c, 0, 64, 91
1, 21298, Control_c, 0, 64, 114
1, 21313, Control_c, 0, 64, 127
1, 21314, Note_on_c, 0, 53, 83
1, 21338, Note_off_c, 0, 53, 69
1, 21355, Note_off_c, 0, 41, 64
1, 21419, Note_on_c, 0, 67, 86
1, 21428, Note_off_c, 0, 65, 59
1, 21441, Note_off_c, 0, 63, 61
1, 21560, Note_on_c, 0, 65, 86
1, 21565, Note_on_c, 0, 29, 84
1, 21565, Note_on_c, 0, 57, 88
1, 21568, Note_on_c, 0, 61, 85
1, 21572, Control_c, 0, 64, 64
1, 21587, Control_c, 0, 64, 0
1, 21608, Note_off_c, 0, 29, 63
1, 21609, Note_off_c, 0, 67, 63
1, 21647, Control_c, 0, 64, 59
1, 21660, Note_off_c, 0, 57, 61
1, 21662, Control_c, 0, 64, 74
1, 21677, Control_c, 0, 64, 100
1, 21692, Control_c, 0, 64, 127
1, 21711, Note_off_c, 0, 61, 60
1, 21735, Note_off_c, 0, 65, 56
1, 21795, Note_on_c, 0, 53, 86
1, 21800, Note_on_c, 0, 65, 77
1, 21801, Note_on_c, 0, 62, 79
1, 21806, Note_on_c, 0, 58, 86
1, 21810, Control_c, 0, 64, 70
1, 21825, Note_off_c, 0, 53, 62
1, 21825, Control_c, 0, 64, 0
1, 21836, Note_on_c, 0, 55, 84
1, 21889, Note_off_c, 0, 55, 62
1, 21899, Control_c, 0, 64, 32
1, 21914, Control_c, 0, 64, 63
1, 21929, Control_c, 0, 64, 66
1, 21944, Control_c, 0, 64, 65
1, 21955, Note_on_c, 0, 52, 63
1, 21958, Control_c, 0, 64, 65
1, 21988, Control_c, 0, 64, 66
1, 22003, Control_c, 0, 64, 67
1, 22018, Control_c, 0, 64, 70
1, 22021, Note_off_c, 0, 52, 65
1, 22032, Control_c, 0, 64, 74
1, 22047, Control_c, 0, 64, 82
1, 22062, Control_c, 0, 64, 93
1, 22077, Control_c, 0, 64, 112
1, 22092, Control_c, 0, 64, 127
1, 22096, Note_off_c, 0, 62, 58
1, 22099, Note_off_c, 0, 58, 64
1, 22113, Note_on_c, 0, 46, 74
1, 22129, Note_off_c, 0, 65, 60
1, 22134, Poly_aftertouch_c, 0, 53, 0
1, 22153, Note_off_c, 0, 46, 63
1, 22215, Note_on_c, 0, 41, 75
1, 22218, Control_c, 0, 64, 95
1, 22232, Control_c, 0, 64, 65
1, 22247, Control_c, 0, 64, 0
1, 22304, Note_on_c, 0, 34, 77
1, 22321, Control_c, 0, 64, 55
1, 22336, Control_c, 0, 64, 65
1, 22339, Note_off_c, 0, 41, 63
1, 22350, Control_c, 0, 64, 70
1, 22354, Note_off_c, 0, 34, 62
1, 22365, Control_c, 0, 64, 76
1, 22380, Control_c, 0, 64, 83
1, 22395, Control_c, 0, 64, 92
1, 22410, Control_c, 0, 64, 111
1, 22426, Control_c, 0, 64, 127
1, 22436, Note_on_c, 0, 70, 84
1, 22437, Note_on_c, 0, 62, 69
1, 22458, Note_on_c, 0, 65, 32
1, 22465, Note_off_c, 0, 62, 66
1, 22467, Note_on_c, 0, 58, 56
1, 22483, Note_off_c, 0, 70, 63
1, 22489, Note_off_c, 0, 58, 60
1, 22493, Note_off_c, 0, 65, 47
1, 22644, Note_on_c, 0, 41, 79
1, 22648, Control_c, 0, 64, 71
1, 22662, Control_c, 0, 64, 43
1, 22677, Control_c, 0, 64, 0
1, 22678, Note_off_c, 0, 41, 65
1, 22722, Control_c, 0, 64, 50
1, 22736, Control_c, 0, 64, 64
1, 22751, Control_c, 0, 64, 69
1, 22766, Control_c, 0, 64, 73
1, 22780, Control_c, 0, 64, 76
1, 22795, Control_c, 0, 64, 77
1, 22810, Control_c, 0, 64, 78
1, 22825, Control_c, 0, 64, 81
1, 22833, Note_on_c, 0, 74, 85
1, 22840, Control_c, 0, 64, 92
1, 22842, Note_on_c, 0, 70, 71
1, 22843, Note_on_c, 0, 62, 70
1, 22844, Note_on_c, 0, 65, 62
1, 22854, Control_c, 0, 64, 127
1, 22864, Note_off_c, 0, 65, 63
1, 22866, Note_off_c, 0, 62, 64
1, 22866, Note_off_c, 0, 74, 63
1, 22868, Note_off_c, 0, 70, 68
1, 23069, Control_c, 0, 64, 97
1, 23084, Control_c, 0, 64, 65
1, 23099, Control_c, 0, 64, 0
1, 23102, Note_on_c, 0, 46, 64
1, 23143, Control_c, 0, 64, 9
1, 23152, Note_on_c, 0, 74, 68
1, 23154, Note_on_c, 0, 77, 70
1, 23155, Note_on_c, 0, 67, 68
1, 23158, Control_c, 0, 64, 56
1, 23170, Note_off_c, 0, 46, 63
1, 23173, Control_c, 0, 64, 65
1, 23182, Note_off_c, 0, 67, 67
1, 23187, Note_off_c, 0, 74, 66
1, 23187, Control_c, 0, 64, 72
1, 23202, Control_c, 0, 64, 79
1, 23217, Control_c, 0, 64, 85
1, 23233, Control_c, 0, 64, 88
1, 23240, Note_on_c, 0, 67, 82
1, 23241, Note_on_c, 0, 74, 70
1, 23248, Control_c, 0, 64, 91
1, 23263, Control_c, 0, 64, 95
1, 23276, Note_off_c, 0, 67, 58
1, 23277, Control_c, 0, 64, 101
1, 23292, Control_c, 0, 64, 111
1, 23293, Note_off_c, 0, 74, 60
1, 23307, Control_c, 0, 64, 127
1, 23339, Note_on_c, 0, 74, 61
1, 23352, Note_on_c, 0, 72, 50
1, 23358, Note_on_c, 0, 65, 52
1, 23367, Note_off_c, 0, 74, 67
1, 23375, Note_off_c, 0, 72, 59
1, 23437, Note_on_c, 0, 67, 79
1, 23439, Note_on_c, 0, 74, 75
1, 23513, Note_off_c, 0, 65, 28
1, 23522, Note_off_c, 0, 67, 61
1, 23523, Note_off_c, 0, 77, 64
1, 23525, Note_on_c, 0, 62, 71
1, 23527, Note_on_c, 0, 70, 82
1, 23541, Note_off_c, 0, 74, 64
1, 23550, Note_off_c, 0, 70, 69
1, 23560, Note_off_c, 0, 62, 64
1, 23789, Control_c, 0, 64, 105
1, 23795, Note_on_c, 0, 48, 66
1, 23803, Control_c, 0, 64, 68
1, 23818, Control_c, 0, 64, 0
1, 23863, Note_on_c, 0, 70, 81
1, 23865, Note_on_c, 0, 64, 76
1, 23869, Note_on_c, 0, 74, 79
1, 23873, Note_off_c, 0, 48, 64
1, 23877, Control_c, 0, 64, 48
1, 23892, Control_c, 0, 64, 63
1, 23905, Note_off_c, 0, 64, 60
1, 23907, Control_c, 0, 64, 70
1, 23917, Note_off_c, 0, 70, 63
1, 23922, Control_c, 0, 64, 81
1, 23936, Control_c, 0, 64, 97
1, 23951, Control_c, 0, 64, 127
1, 23962, Note_on_c, 0, 70, 67
1, 23970, Note_on_c, 0, 64, 69
1, 24020, Note_off_c, 0, 64, 61
1, 24024, Note_off_c, 0, 70, 63
1, 24084, Note_on_c, 0, 70, 82
1, 24090, Note_on_c, 0, 62, 74
1, 24113, Note_on_c, 0, 68, 54
1, 24131, Note_off_c, 0, 70, 64
1, 24137, Note_off_c, 0, 68, 59
1, 24186, Note_on_c, 0, 64, 75
1, 24193, Note_on_c, 0, 70, 78
1, 24274, Note_off_c, 0, 64, 64
1, 24275, Note_off_c, 0, 74, 63
1, 24310, Note_off_c, 0, 70, 64
1, 24331, Note_on_c, 0, 67, 83
1, 24334, Note_on_c, 0, 58, 78
1, 24360, Note_off_c, 0, 62, 52
1, 24366, Note_off_c, 0, 67, 66
1, 24400, Note_off_c, 0, 58, 65
1, 24711, Note_on_c, 0, 65, 81
1, 24716, Control_c, 0, 64, 72
1, 24722, Note_on_c, 0, 48, 57
1, 24725, Note_on_c, 0, 53, 60
1, 24731, Note_on_c, 0, 57, 64
1, 24731, Control_c, 0, 64, 0
1, 24735, Note_on_c, 0, 60, 59
1, 24744, Note_on_c, 0, 41, 54
1, 24805, Control_c, 0, 64, 51
1, 24820, Control_c, 0, 64, 67
1, 24835, Control_c, 0, 64, 81
1, 24838, Note_off_c, 0, 57, 65
1, 24850, Control_c, 0, 64, 127
1, 24851, Note_off_c, 0, 41, 64
1, 24856, Note_off_c, 0, 60, 65
1, 24863, Note_off_c, 0, 48, 63
1, 24866, Note_off_c, 0, 65, 65
1, 24878, Note_off_c, 0, 53, 63
1, 25279, Note_on_c, 0, 89, 84
1, 25284, Note_on_c, 0, 93, 78
1, 25287, Note_on_c, 0, 60, 60
1, 25288, Note_on_c, 0, 65, 61
1, 25290, Note_on_c, 0, 53, 57
1, 25292, Note_on_c, 0, 101, 69
1, 25300, Note_on_c, 0, 103, 55
1, 25307, Note_off_c, 0, 93, 70
1, 25315, Note_off_c, 0, 89, 62
1, 25321, Note_off_c, 0, 101, 67
1, 25321, Note_off_c, 0, 103, 59
1, 25329, Note_off_c, 0, 65, 59
1, 25338, Note_off_c, 0, 60, 59
1, 25339, Note_off_c, 0, 53, 59
1, 25403, Note_on_c, 0, 101, 83
1, 25414, Note_on_c, 0, 89, 77
1, 25420, Note_on_c, 0, 93, 66
1, 25437, Note_on_c, 0, 65, 54
1, 25444, Note_on_c, 0, 60, 45
1, 25446, Note_on_c, 0, 53, 49
1, 25448, Note_off_c, 0, 89, 61
1, 25448, Note_off_c, 0, 93, 68
1, 25465, Note_off_c, 0, 101, 65
1, 25475, Note_off_c, 0, 65, 60
1, 25483, Note_off_c, 0, 60, 58
1, 25499, Note_off_c, 0, 53, 51
1, 25542, Note_on_c, 0, 101, 94
1, 25547, Note_on_c, 0, 53, 51
1, 25552, Note_on_c, 0, 89, 78
1, 25556, Note_on_c, 0, 60, 44
1, 25556, Note_on_c, 0, 93, 70
1, 25562, Note_on_c, 0, 65, 53
1, 25582, Note_off_c, 0, 93, 70
1, 25585, Note_off_c, 0, 89, 64
1, 25598, Note_off_c, 0, 101, 65
1, 25745, Note_off_c, 0, 65, 60
1, 25918, Note_off_c, 0, 53, 63
1, 25920, Note_off_c, 0, 60, 63
1, 26227, Note_on_c, 0, 65, 69
1, 26243, Control_c, 0, 64, 79
1, 26258, Control_c, 0, 64, 67
1, 26272, Control_c, 0, 64, 65
1, 26287, Control_c, 0, 64, 67
1, 26302, Control_c, 0, 64, 73
1, 26317, Control_c, 0, 64, 86
1, 26332, Control_c, 0, 64, 127
1, 26429, Note_on_c, 0, 53, 50
1, 26437, Note_off_c, 0, 65, 58
1, 26477, Note_off_c, 0, 53, 59
1, 26807, Note_on_c, 0, 37, 34
1, 26858, Control_c, 0, 64, 96
1, 26873, Control_c, 0, 64, 67
1, 26886, Note_on_c, 0, 65, 59
1, 26888, Control_c, 0, 64, 35
1, 26902, Control_c, 0, 64, 0
1, 26910, Note_on_c, 0, 59, 27
1, 26932, Control_c, 0, 64, 22
1, 26939, Note_on_c, 0, 56, 42
1, 26946, Control_c, 0, 64, 56
1, 26951, Poly_aftertouch_c, 0, 62, 127
1, 26961, Control_c, 0, 64, 66
1, 26976, Control_c, 0, 64, 75
1, 26991, Control_c, 0, 64, 93
1, 27006, Control_c, 0, 64, 127
1, 27015, Poly_aftertouch_c, 0, 62, 0
1, 27032, Note_off_c, 0, 56, 62
1, 27059, Note_off_c, 0, 59, 53
1, 27076, Note_off_c, 0, 65, 60
1, 27084, Poly_aftertouch_c, 0, 62, 0
1, 27181, Note_on_c, 0, 49, 46
1, 27199, Note_off_c, 0, 37, 40
1, 27211, Note_off_c, 0, 49, 62
1, 27449, Note_on_c, 0, 65, 57
1, 27452, Note_on_c, 0, 89, 64
1, 27462, Note_on_c, 0, 80, 51
1, 27463, Note_on_c, 0, 56, 48
1, 27488, Note_on_c, 0, 59, 42
1, 27490, Note_off_c, 0, 80, 63
1, 27497, Note_off_c, 0, 89, 54
1, 27507, Note_off_c, 0, 65, 58
1, 27512, Poly_aftertouch_c, 0, 83, 0
1, 27519, Note_off_c, 0, 56, 60
1, 27548, Poly_aftertouch_c, 0, 83, 127
1, 27550, Note_off_c, 0, 59, 47
1, 27566, Note_on_c, 0, 89, 28
1, 27579, Note_on_c, 0, 80, 41
1, 27598, Note_off_c, 0, 89, 49
1, 27604, Note_off_c, 0, 80, 55
1, 27637, Poly_aftertouch_c, 0, 83, 0
1, 27679, Note_on_c, 0, 65, 64
1, 27679, Note_on_c, 0, 89, 77
1, 27686, Note_on_c, 0, 80, 71
1, 27690, Note_on_c, 0, 83, 40
1, 27697, Note_on_c, 0, 56, 60
1, 27700, Note_on_c, 0, 59, 38
1, 27705, Note_off_c, 0, 65, 69
1, 27708, Note_off_c, 0, 89, 67
1, 27718, Note_off_c, 0, 80, 64
1, 27718, Note_off_c, 0, 83, 63
1, 27728, Note_off_c, 0, 59, 55
1, 27729, Note_off_c, 0, 56, 66
1, 27903, Note_on_c, 0, 49, 62
1, 27939, Note_off_c, 0, 49, 62
1, 28001, Note_on_c, 0, 63, 75
1, 28006, Note_on_c, 0, 49, 53
1, 28025, Note_on_c, 0, 56, 43
1, 28044, Note_off_c, 0, 49, 62
1, 28060, Note_off_c, 0, 56, 51
1, 28104, Note_on_c, 0, 65, 82
1, 28131, Note_off_c, 0, 63, 35
1, 28136, Note_on_c, 0, 59, 42
1, 28141, Note_on_c, 0, 56, 58
1, 28167, Note_off_c, 0, 59, 56
1, 28188, Note_off_c, 0, 56, 55
1, 28203, Poly_aftertouch_c, 0, 37, 127
1, 28257, Poly_aftertouch_c, 0, 37, 0
1, 28338, Note_on_c, 0, 37, 42
1, 28387, Control_c, 0, 64, 76
1, 28401, Control_c, 0, 64, 44
1, 28412, Note_on_c, 0, 68, 82
1, 28414, Note_on_c, 0, 61, 53
1, 28416, Control_c, 0, 64, 0
1, 28434, Note_on_c, 0, 58, 55
1, 28461, Control_c, 0, 64, 15
1, 28475, Control_c, 0, 64, 57
1, 28490, Control_c, 0, 64, 67
1, 28501, Note_off_c, 0, 58, 63
1, 28505, Control_c, 0, 64, 78
1, 28517, Note_off_c, 0, 65, 52
1, 28520, Control_c, 0, 64, 115
1, 28535, Control_c, 0, 64, 127
1, 28538, Note_off_c, 0, 61, 62
1, 28567, Note_off_c, 0, 68, 64
1, 28644, Note_on_c, 0, 49, 65
1, 28662, Note_off_c, 0, 37, 60
1, 28674, Note_off_c, 0, 49, 65
1, 28870, Note_on_c, 0, 66, 78
1, 28891, Note_on_c, 0, 82, 72
1, 28892, Note_on_c, 0, 58, 56
1, 28893, Note_on_c, 0, 61, 59
1, 28902, Note_on_c, 0, 90, 64
1, 28917, Note_on_c, 0, 85, 39
1, 28919, Note_off_c, 0, 82, 65
1, 28929, Note_off_c, 0, 66, 61
1, 28931, Note_off_c, 0, 90, 67
1, 28946, Note_off_c, 0, 85, 52
1, 28949, Note_off_c, 0, 58, 60
1, 28954, Note_off_c, 0, 61, 50
1, 28986, Note_on_c, 0, 90, 75
1, 29012, Note_on_c, 0, 82, 39
1, 29014, Note_off_c, 0, 90, 64
1, 29040, Note_off_c, 0, 82, 49
1, 29081, Poly_aftertouch_c, 0, 85, 0
1, 29101, Note_on_c, 0, 90, 74
1, 29101, Note_on_c, 0, 61, 65
1, 29101, Note_on_c, 0, 66, 74
1, 29103, Note_on_c, 0, 82, 77
1, 29107, Note_on_c, 0, 85, 23
1, 29115, Note_on_c, 0, 58, 71
1, 29123, Note_off_c, 0, 90, 71
1, 29126, Note_off_c, 0, 82, 70
1, 29133, Note_off_c, 0, 66, 64
1, 29142, Note_off_c, 0, 61, 62
1, 29149, Note_off_c, 0, 85, 41
1, 29154, Note_off_c, 0, 58, 62
1, 29321, Note_on_c, 0, 49, 57
1, 29339, Note_on_c, 0, 51, 50
1, 29348, Note_off_c, 0, 49, 57
1, 29369, Note_off_c, 0, 51, 53
1, 29414, Note_on_c, 0, 49, 72
1, 29414, Note_on_c, 0, 68, 81
1, 29429, Note_on_c, 0, 61, 62
1, 29461, Note_off_c, 0, 61, 63
1, 29476, Note_off_c, 0, 68, 61
1, 29515, Note_on_c, 0, 70, 91
1, 29529, Note_on_c, 0, 61, 77
1, 29533, Note_on_c, 0, 37, 60
1, 29542, Note_off_c, 0, 49, 62
1, 29545, Note_on_c, 0, 66, 47
1, 29559, Note_off_c, 0, 61, 62
1, 29569, Note_off_c, 0, 66, 58
1, 29584, Note_off_c, 0, 37, 58
1, 29620, Note_off_c, 0, 70, 61
1, 29761, Note_on_c, 0, 37, 61
1, 29796, Note_on_c, 0, 71, 89
1, 29809, Control_c, 0, 64, 75
1, 29810, Note_on_c, 0, 61, 78
1, 29816, Note_on_c, 0, 65, 65
1, 29824, Control_c, 0, 64, 0
1, 29825, Note_on_c, 0, 68, 54
1, 29885, Note_off_c, 0, 61, 60
1, 29898, Control_c, 0, 64, 61
1, 29905, Note_off_c, 0, 65, 62
1, 29912, Control_c, 0, 64, 77
1, 29927, Control_c, 0, 64, 127
1, 29930, Note_off_c, 0, 68, 61
1, 29938, Note_off_c, 0, 71, 63
1, 30024, Note_on_c, 0, 49, 69
1, 30038, Note_off_c, 0, 37, 60
1, 30052, Note_off_c, 0, 49, 66
1, 30225, Note_on_c, 0, 71, 81
1, 30231, Note_on_c, 0, 95, 75
1, 30232, Note_on_c, 0, 61, 66
1, 30237, Note_on_c, 0, 85, 75
1, 30239, Note_on_c, 0, 92, 72
1, 30242, Note_on_c, 0, 89, 67
1, 30248, Note_on_c, 0, 65, 58
1, 30260, Note_off_c, 0, 95, 65
1, 30262, Note_off_c, 0, 85, 67
1, 30269, Note_off_c, 0, 92, 66
1, 30272, Note_off_c, 0, 89, 67
1, 30276, Note_off_c, 0, 71, 61
1, 30279, Note_off_c, 0, 61, 53
1, 30326, Note_on_c, 0, 85, 68
1, 30326, Note_on_c, 0, 92, 69
1, 30328, Note_on_c, 0, 95, 68
1, 30332, Note_on_c, 0, 89, 69
1, 30356, Note_off_c, 0, 85, 63
1, 30370, Note_off_c, 0, 89, 63
1, 30371, Note_off_c, 0, 95, 65
1, 30372, Note_off_c, 0, 92, 60
1, 30439, Note_off_c, 0, 65, 0
1, 30439, Note_on_c, 0, 65, 4
1, 30445, Note_on_c, 0, 95, 78
1, 30448, Note_on_c, 0, 89, 74
1, 30451, Note_on_c, 0, 71, 70
1, 30454, Note_on_c, 0, 85, 74
1, 30456, Note_on_c, 0, 92, 76
1, 30462, Note_on_c, 0, 61, 67
1, 30468, Note_off_c, 0, 95, 70
1, 30478, Note_off_c, 0, 71, 67
1, 30478, Note_off_c, 0, 89, 66
1, 30481, Note_off_c, 0, 92, 69
1, 30488, Note_off_c, 0, 65, 60
1, 30496, Note_off_c, 0, 85, 65
1, 30504, Note_off_c, 0, 61, 64
1, 30645, Note_on_c, 0, 49, 67
1, 30687, Note_off_c, 0, 49, 61
1, 30744, Note_on_c, 0, 73, 79
1, 30757, Note_on_c, 0, 61, 68
1, 30776, Note_on_c, 0, 49, 49
1, 30781, Note_on_c, 0, 65, 44
1, 30789, Note_off_c, 0, 61, 59
1, 30809, Note_on_c, 0, 37, 54
1, 30812, Note_off_c, 0, 73, 62
1, 30817, Note_off_c, 0, 65, 60
1, 30855, Note_off_c, 0, 37, 60
1, 30880, Note_on_c, 0, 61, 64
1, 30892, Note_on_c, 0, 72, 54
1, 30895, Note_on_c, 0, 71, 60
1, 30902, Note_off_c, 0, 49, 61
1, 30926, Note_off_c, 0, 61, 51
1, 30942, Poly_aftertouch_c, 0, 65, 127
1, 30946, Note_off_c, 0, 71, 56
1, 30949, Note_off_c, 0, 72, 61
1, 30975, Poly_aftertouch_c, 0, 65, 0
1, 31164, Note_on_c, 0, 42, 55
1, 31217, Note_on_c, 0, 70, 68
1, 31218, Control_c, 0, 64, 91
1, 31233, Control_c, 0, 64, 61
1, 31244, Note_on_c, 0, 61, 36
1, 31247, Control_c, 0, 64, 0
1, 31265, Note_on_c, 0, 66, 38
1, 31307, Control_c, 0, 64, 26
1, 31321, Control_c, 0, 64, 58
1, 31331, Note_off_c, 0, 61, 62
1, 31336, Control_c, 0, 64, 65
1, 31351, Control_c, 0, 64, 72
1, 31352, Note_off_c, 0, 66, 58
1, 31366, Control_c, 0, 64, 85
1, 31381, Control_c, 0, 64, 127
1, 31393, Note_off_c, 0, 70, 63
1, 31397, Poly_aftertouch_c, 0, 68, 0
1, 31450, Note_on_c, 0, 54, 59
1, 31466, Note_off_c, 0, 42, 62
1, 31483, Note_off_c, 0, 54, 65
1, 31555, Note_on_c, 0, 94, 26
1, 31590, Note_off_c, 0, 94, 43
1, 31659, Note_on_c, 0, 94, 80
1, 31661, Note_on_c, 0, 70, 71
1, 31670, Note_on_c, 0, 85, 57
1, 31677, Note_on_c, 0, 66, 44
1, 31677, Note_on_c, 0, 90, 50
1, 31682, Note_on_c, 0, 61, 48
1, 31689, Note_off_c, 0, 85, 64
1, 31693, Note_off_c, 0, 94, 61
1, 31694, Note_off_c, 0, 70, 62
1, 31699, Note_off_c, 0, 90, 58
1, 31715, Note_off_c, 0, 66, 60
1, 31721, Note_off_c, 0, 61, 62
1, 31752, Note_on_c, 0, 94, 66
1, 31764, Note_on_c, 0, 85, 54
1, 31783, Note_off_c, 0, 85, 62
1, 31783, Note_off_c, 0, 94, 65
1, 31855, Note_on_c, 0, 85, 71
1, 31855, Note_on_c, 0, 94, 84
1, 31871, Note_on_c, 0, 90, 51
1, 31872, Note_on_c, 0, 70, 60
1, 31885, Note_on_c, 0, 66, 47
1, 31886, Note_on_c, 0, 61, 64
1, 31890, Note_off_c, 0, 85, 69
1, 31897, Note_off_c, 0, 70, 69
1, 31900, Note_off_c, 0, 90, 64
1, 31900, Note_off_c, 0, 94, 60
1, 31920, Note_off_c, 0, 66, 63
1, 31941, Note_off_c, 0, 61, 60
1, 32095, Note_on_c, 0, 54, 82
1, 32126, Note_off_c, 0, 54, 64
1, 32184, Note_on_c, 0, 54, 69
1, 32257, Note_off_c, 0, 54, 60
1, 32283, Note_on_c, 0, 42, 74
1, 32286, Note_on_c, 0, 66, 79
1, 32286, Note_on_c, 0, 70, 84
1, 32287, Note_on_c, 0, 61, 82
1, 32335, Note_off_c, 0, 61, 63
1, 32339, Note_off_c, 0, 66, 62
1, 32347, Note_off_c, 0, 42, 60
1, 32381, Note_off_c, 0, 70, 60
1, 32552, Note_on_c, 0, 42, 75
1, 32596, Note_on_c, 0, 73, 89
1, 32600, Note_on_c, 0, 64, 83
1, 32603, Note_on_c, 0, 70, 82
1, 32612, Control_c, 0, 64, 61
1, 32627, Control_c, 0, 64, 0
1, 32679, Note_off_c, 0, 64, 64
1, 32686, Control_c, 0, 64, 56
1, 32701, Control_c, 0, 64, 69
1, 32715, Control_c, 0, 64, 99
1, 32727, Note_off_c, 0, 70, 63
1, 32730, Control_c, 0, 64, 127
1, 32748, Note_off_c, 0, 73, 64
1, 32824, Note_on_c, 0, 54, 78
1, 32842, Note_off_c, 0, 42, 63
1, 32857, Note_off_c, 0, 54, 65
1, 33029, Note_on_c, 0, 73, 83
1, 33032, Note_on_c, 0, 85, 89
1, 33034, Note_on_c, 0, 97, 79
1, 33035, Note_on_c, 0, 70, 71
1, 33037, Note_on_c, 0, 94, 81
1, 33043, Note_on_c, 0, 88, 66
1, 33061, Note_off_c, 0, 97, 64
1, 33070, Note_off_c, 0, 85, 62
1, 33070, Note_off_c, 0, 88, 69
1, 33075, Note_off_c, 0, 94, 57
1, 33077, Note_off_c, 0, 73, 61
1, 33092, Poly_aftertouch_c, 0, 64, 127
1, 33107, Note_off_c, 0, 70, 57
1, 33116, Note_on_c, 0, 85, 74
1, 33116, Note_on_c, 0, 94, 77
1, 33123, Note_on_c, 0, 88, 79
1, 33128, Poly_aftertouch_c, 0, 64, 0
1, 33129, Note_on_c, 0, 97, 76
1, 33153, Note_off_c, 0, 85, 62
1, 33156, Note_off_c, 0, 88, 57
1, 33158, Note_off_c, 0, 97, 66
1, 33169, Note_off_c, 0, 94, 63
1, 33217, Note_on_c, 0, 64, 76
1, 33220, Note_on_c, 0, 73, 87
1, 33223, Note_on_c, 0, 70, 80
1, 33223, Note_on_c, 0, 94, 85
1, 33226, Note_on_c, 0, 97, 79
1, 33227, Note_on_c, 0, 88, 83
1, 33229, Note_on_c, 0, 85, 87
1, 33240, Note_off_c, 0, 73, 72
1, 33247, Note_off_c, 0, 97, 70
1, 33251, Note_off_c, 0, 70, 68
1, 33253, Note_off_c, 0, 94, 64
1, 33256, Note_off_c, 0, 88, 66
1, 33268, Note_off_c, 0, 64, 66
1, 33269, Note_off_c, 0, 85, 67
1, 33429, Note_on_c, 0, 54, 79
1, 33471, Note_off_c, 0, 54, 63
1, 33500, Note_on_c, 0, 72, 86
1, 33521, Note_on_c, 0, 64, 60
1, 33526, Note_on_c, 0, 54, 69
1, 33551, Note_off_c, 0, 64, 66
1, 33579, Note_off_c, 0, 72, 57
1, 33598, Note_on_c, 0, 61, 91
1, 33599, Note_on_c, 0, 70, 89
1, 33631, Note_on_c, 0, 42, 71
1, 33640, Note_off_c, 0, 54, 64
1, 33640, Note_off_c, 0, 61, 62
1, 33653, Note_off_c, 0, 70, 66
1, 33685, Note_off_c, 0, 42, 62
1, 33700, Note_on_c, 0, 62, 79
1, 33787, Note_on_c, 0, 70, 77
1, 33881, Note_off_c, 0, 62, 48
1, 33893, Note_on_c, 0, 41, 88
1, 33894, Control_c, 0, 64, 62
1, 33898, Note_on_c, 0, 77, 98
1, 33909, Control_c, 0, 64, 0
1, 33921, Note_on_c, 0, 64, 36
1, 33949, Note_off_c, 0, 64, 53
1, 33983, Control_c, 0, 64, 60
1, 33998, Control_c, 0, 64, 76
1, 34013, Control_c, 0, 64, 127
1, 34043, Note_off_c, 0, 70, 64
1, 34070, Note_off_c, 0, 77, 63
1, 34140, Note_on_c, 0, 53, 81
1, 34156, Note_off_c, 0, 41, 64
1, 34165, Note_off_c, 0, 53, 69
1, 34341, Note_on_c, 0, 74, 76
1, 34352, Note_on_c, 0, 94, 78
1, 34356, Note_on_c, 0, 89, 74
1, 34356, Note_on_c, 0, 98, 70
1, 34361, Note_on_c, 0, 101, 61
1, 34366, Note_on_c, 0, 70, 46
1, 34370, Note_off_c, 0, 74, 65
1, 34377, Note_off_c, 0, 94, 68
1, 34382, Note_off_c, 0, 89, 69
1, 34382, Note_off_c, 0, 101, 65
1, 34386, Note_off_c, 0, 98, 68
1, 34395, Note_off_c, 0, 70, 55
1, 34407, Note_on_c, 0, 69, 34
1, 34441, Note_off_c, 0, 69, 53
1, 34442, Note_on_c, 0, 94, 84
1, 34445, Note_on_c, 0, 89, 81
1, 34446, Note_on_c, 0, 98, 78
1, 34462, Note_on_c, 0, 101, 56
1, 34469, Note_off_c, 0, 89, 65
1, 34484, Note_off_c, 0, 94, 62
1, 34484, Note_off_c, 0, 101, 61
1, 34490, Note_off_c, 0, 98, 62
1, 34539, Note_on_c, 0, 70, 81
1, 34543, Note_on_c, 0, 101, 92
1, 34545, Note_on_c, 0, 62, 69
1, 34546, Note_on_c, 0, 65, 47
1, 34546, Note_on_c, 0, 89, 91
1, 34547, Note_on_c, 0, 94, 89
1, 34551, Note_on_c, 0, 98, 69
1, 34559, Note_off_c, 0, 70, 73
1, 34569, Note_off_c, 0, 101, 64
1, 34574, Note_off_c, 0, 65, 61
1, 34583, Note_off_c, 0, 62, 64
1, 34583, Note_off_c, 0, 98, 68
1, 34584, Note_off_c, 0, 89, 64
1, 34596, Note_off_c, 0, 94, 63
1, 34741, Note_on_c, 0, 53, 69
1, 34774, Note_off_c, 0, 53, 65
1, 34832, Note_on_c, 0, 53, 78
1, 34904, Note_off_c, 0, 53, 55
1, 34939, Note_on_c, 0, 67, 87
1, 34952, Note_on_c, 0, 62, 71
1, 34958, Note_on_c, 0, 58, 76
1, 34961, Note_on_c, 0, 41, 66
1, 35043, Note_off_c, 0, 62, 51
1, 35045, Note_off_c, 0, 41, 54
1, 35048, Note_off_c, 0, 58, 62
1, 35182, Note_on_c, 0, 41, 81
1, 35210, Note_off_c, 0, 67, 56
1, 35214, Control_c, 0, 64, 68
1, 35226, Note_on_c, 0, 65, 78
1, 35229, Control_c, 0, 64, 0
1, 35238, Note_on_c, 0, 63, 68
1, 35240, Note_on_c, 0, 57, 62
1, 35258, Control_c, 0, 64, 20
1, 35266, Note_off_c, 0, 57, 66
1, 35273, Control_c, 0, 64, 50
1, 35288, Control_c, 0, 64, 65
1, 35303, Control_c, 0, 64, 78
1, 35318, Note_off_c, 0, 63, 64
1, 35318, Control_c, 0, 64, 127
1, 35321, Note_off_c, 0, 65, 64
1, 35401, Note_on_c, 0, 53, 67
1, 35402, Note_off_c, 0, 41, 63
1, 35431, Note_off_c, 0, 53, 64
1, 35525, Note_on_c, 0, 67, 96
1, 35574, Note_off_c, 0, 67, 63
1, 35624, Note_on_c, 0, 65, 63
1, 35639, Note_on_c, 0, 94, 82
1, 35641, Note_on_c, 0, 89, 82
1, 35643, Note_on_c, 0, 98, 75
1, 35647, Note_on_c, 0, 58, 81
1, 35665, Note_on_c, 0, 101, 39
1, 35668, Note_off_c, 0, 89, 64
1, 35672, Note_off_c, 0, 58, 69
1, 35675, Note_off_c, 0, 65, 65
1, 35678, Note_off_c, 0, 94, 61
1, 35698, Note_off_c, 0, 101, 34
1, 35721, Note_on_c, 0, 94, 79
1, 35727, Note_on_c, 0, 101, 72
1, 35733, Note_on_c, 0, 89, 76
1, 35758, Note_off_c, 0, 98, 61
1, 35786, Note_off_c, 0, 89, 62
1, 35796, Note_off_c, 0, 94, 63
1, 35858, Control_c, 0, 64, 79
1, 35870, Note_on_c, 0, 75, 85
1, 35873, Control_c, 0, 64, 46
1, 35874, Note_on_c, 0, 69, 65
1, 35877, Note_on_c, 0, 65, 62
1, 35888, Control_c, 0, 64, 0
1, 35903, Note_on_c, 0, 99, 89
1, 35903, Control_c, 0, 64, 42
1, 35906, Note_on_c, 0, 93, 75
1, 35912, Note_off_c, 0, 75, 65
1, 35918, Control_c, 0, 64, 63
1, 35920, Note_on_c, 0, 89, 87
1, 35922, Note_off_c, 0, 101, 64
1, 35925, Note_off_c, 0, 69, 65
1, 35933, Control_c, 0, 64, 80
1, 35936, Note_off_c, 0, 93, 66
1, 35945, Note_off_c, 0, 65, 63
1, 35947, Note_off_c, 0, 99, 65
1, 35948, Control_c, 0, 64, 127
1, 35959, Note_off_c, 0, 89, 65
1, 36102, Note_on_c, 0, 53, 61
1, 36137, Note_off_c, 0, 53, 63
1, 36171, Note_on_c, 0, 74, 75
1, 36202, Note_on_c, 0, 65, 40
1, 36224, Note_on_c, 0, 53, 62
1, 36230, Note_off_c, 0, 65, 54
1, 36249, Poly_aftertouch_c, 0, 46, 0
1, 36249, Note_off_c, 0, 74, 58
1, 36252, Note_on_c, 0, 41, 65
1, 36275, Note_off_c, 0, 53, 62
1, 36281, Note_off_c, 0, 41, 64
1, 36284, Note_on_c, 0, 72, 82
1, 36306, Note_on_c, 0, 63, 65
1, 36336, Note_off_c, 0, 63, 64
1, 36405, Note_off_c, 0, 72, 57
1, 36568, Note_on_c, 0, 46, 51
1, 36571, Note_on_c, 0, 74, 75
1, 36574, Note_on_c, 0, 70, 52
1, 36593, Control_c, 0, 64, 68
1, 36601, Note_on_c, 0, 62, 48
1, 36608, Control_c, 0, 64, 0
1, 36667, Control_c, 0, 64, 17
1, 36681, Control_c, 0, 64, 60
1, 36685, Note_off_c, 0, 62, 64
1, 36696, Control_c, 0, 64, 69
1, 36711, Control_c, 0, 64, 88
1, 36726, Control_c, 0, 64, 127
1, 36731, Note_off_c, 0, 70, 64
1, 36738, Note_off_c, 0, 74, 67
1, 36788, Note_on_c, 0, 53, 63
1, 36803, Note_off_c, 0, 46, 62
1, 36820, Note_off_c, 0, 53, 65
1, 36975, Note_on_c, 0, 70, 70
1, 36988, Note_on_c, 0, 101, 67
1, 36992, Note_on_c, 0, 89, 69
1, 36992, Note_on_c, 0, 98, 65
1, 36993, Note_on_c, 0, 94, 62
1, 36998, Note_off_c, 0, 70, 65
1, 37020, Note_off_c, 0, 94, 64
1, 37021, Note_off_c, 0, 89, 65
1, 37021, Note_off_c, 0, 101, 65
1, 37024, Note_off_c, 0, 98, 64
1, 37086, Note_on_c, 0, 89, 60
1, 37091, Note_on_c, 0, 98, 56
1, 37104, Note_on_c, 0, 94, 55
1, 37115, Note_off_c, 0, 89, 56
1, 37125, Note_off_c, 0, 98, 60
1, 37128, Note_off_c, 0, 94, 58
1, 37203, Note_on_c, 0, 101, 70
1, 37209, Note_on_c, 0, 89, 62
1, 37212, Note_on_c, 0, 94, 62
1, 37218, Note_on_c, 0, 46, 50
1, 37223, Note_on_c, 0, 98, 62
1, 37253, Note_off_c, 0, 98, 66
1, 37255, Note_off_c, 0, 89, 62
1, 37255, Note_off_c, 0, 101, 64
1, 37272, Note_off_c, 0, 94, 63
1, 37410, Note_on_c, 0, 53, 59
1, 37449, Note_off_c, 0, 53, 59
1, 37544, Note_on_c, 0, 53, 56
1, 37574, Note_off_c, 0, 53, 63
1, 37575, Note_off_c, 0, 46, 55
1, 37669, Note_on_c, 0, 70, 87
1, 37682, Note_on_c, 0, 62, 70
1, 37686, Note_on_c, 0, 65, 62
1, 37698, Note_on_c, 0, 64, 62
1, 37701, Note_off_c, 0, 62, 66
1, 37710, Note_on_c, 0, 58, 34
1, 37717, Note_off_c, 0, 64, 64
1, 37743, Note_off_c, 0, 58, 51
1, 37748, Note_off_c, 0, 65, 63
1, 37834, Note_off_c, 0, 70, 59
1, 38014, Note_on_c, 0, 42, 60
1, 38069, Note_on_c, 0, 73, 84
1, 38079, Note_on_c, 0, 61, 71
1, 38080, Note_on_c, 0, 64, 63
1, 38090, Control_c, 0, 64, 78
1, 38092, Note_on_c, 0, 70, 65
1, 38105, Control_c, 0, 64, 0
1, 38164, Control_c, 0, 64, 58
1, 38179, Control_c, 0, 64, 76
1, 38180, Note_off_c, 0, 61, 62
1, 38194, Control_c, 0, 64, 127
1, 38198, Note_off_c, 0, 64, 63
1, 38238, Note_off_c, 0, 70, 66
1, 38238, Note_off_c, 0, 73, 67
1, 38292, Note_on_c, 0, 54, 75
1, 38305, Note_off_c, 0, 42, 63
1, 38318, Note_off_c, 0, 54, 67
1, 38508, Note_on_c, 0, 73, 83
1, 38517, Note_on_c, 0, 85, 83
1, 38519, Note_on_c, 0, 70, 67
1, 38519, Note_on_c, 0, 97, 73
1, 38522, Note_on_c, 0, 88, 68
1, 38523, Note_on_c, 0, 94, 74
1, 38529, Note_on_c, 0, 64, 57
1, 38544, Note_off_c, 0, 85, 62
1, 38544, Note_off_c, 0, 97, 68
1, 38548, Note_off_c, 0, 88, 69
1, 38550, Note_off_c, 0, 94, 67
1, 38559, Note_off_c, 0, 73, 60
1, 38572, Note_off_c, 0, 70, 59
1, 38586, Note_off_c, 0, 64, 48
1, 38606, Note_on_c, 0, 85, 83
1, 38608, Note_on_c, 0, 97, 82
1, 38613, Note_on_c, 0, 88, 80
1, 38613, Note_on_c, 0, 94, 79
1, 38636, Note_off_c, 0, 97, 63
1, 38651, Note_off_c, 0, 85, 63
1, 38657, Note_off_c, 0, 88, 63
1, 38659, Note_off_c, 0, 94, 60
1, 38709, Note_on_c, 0, 64, 67
1, 38714, Note_on_c, 0, 94, 87
1, 38717, Note_on_c, 0, 88, 78
1, 38719, Note_on_c, 0, 85, 85
1, 38719, Note_on_c, 0, 97, 87
1, 38720, Note_on_c, 0, 73, 70
1, 38725, Note_on_c, 0, 70, 73
1, 38735, Note_off_c, 0, 73, 68
1, 38739, Note_off_c, 0, 97, 71
1, 38745, Note_off_c, 0, 70, 72
1, 38747, Note_off_c, 0, 94, 61
1, 38750, Note_off_c, 0, 88, 64
1, 38755, Note_off_c, 0, 64, 64
1, 38762, Note_off_c, 0, 85, 66
1, 38911, Note_on_c, 0, 54, 76
1, 38961, Note_off_c, 0, 54, 61
1, 38988, Note_on_c, 0, 73, 88
1, 38999, Note_on_c, 0, 64, 55
1, 39009, Note_on_c, 0, 54, 65
1, 39035, Note_off_c, 0, 64, 63
1, 39038, Note_off_c, 0, 73, 68
1, 39083, Note_on_c, 0, 70, 91
1, 39087, Note_on_c, 0, 61, 83
1, 39109, Note_off_c, 0, 61, 69
1, 39114, Note_on_c, 0, 42, 70
1, 39117, Note_off_c, 0, 54, 63
1, 39150, Note_off_c, 0, 70, 61
1, 39165, Note_off_c, 0, 42, 61
1, 39194, Note_on_c, 0, 62, 75
1, 39292, Note_on_c, 0, 70, 60
1, 39343, Control_c, 0, 64, 90
1, 39358, Note_off_c, 0, 62, 50
1, 39365, Control_c, 0, 64, 0
1, 39366, Note_on_c, 0, 41, 89
1, 39385, Note_on_c, 0, 77, 85
1, 39388, Note_on_c, 0, 79, 91
1, 39424, Control_c, 0, 64, 64
1, 39439, Control_c, 0, 64, 81
1, 39451, Note_off_c, 0, 79, 63
1, 39453, Control_c, 0, 64, 127
1, 39486, Note_off_c, 0, 70, 63
1, 39514, Note_off_c, 0, 77, 67
1, 39593, Note_on_c, 0, 53, 88
1, 39604, Note_off_c, 0, 41, 63
1, 39617, Note_off_c, 0, 53, 71
1, 39753, Poly_aftertouch_c, 0, 97, 0
1, 39792, Note_on_c, 0, 74, 87
1, 39802, Note_on_c, 0, 70, 81
1, 39805, Note_on_c, 0, 89, 87
1, 39805, Note_on_c, 0, 94, 84
1, 39809, Note_on_c, 0, 101, 76
1, 39809, Control_c, 0, 64, 87
1, 39811, Note_on_c, 0, 98, 76
1, 39824, Control_c, 0, 64, 66
1, 39825, Note_off_c, 0, 74, 65
1, 39835, Note_off_c, 0, 94, 65
1, 39839, Control_c, 0, 64, 63
1, 39840, Note_off_c, 0, 101, 66
1, 39840, Note_off_c, 0, 98, 68
1, 39841, Note_off_c, 0, 89, 63
1, 39853, Control_c, 0, 64, 68
1, 39868, Control_c, 0, 64, 81
1, 39883, Control_c, 0, 64, 127
1, 39889, Note_on_c, 0, 89, 72
1, 39890, Note_on_c, 0, 101, 65
1, 39892, Note_on_c, 0, 94, 87
1, 39892, Note_on_c, 0, 98, 84
1, 39901, Note_off_c, 0, 70, 59
1, 39924, Note_off_c, 0, 101, 67
1, 39929, Note_off_c, 0, 89, 61
1, 39929, Note_off_c, 0, 98, 64
1, 39939, Note_off_c, 0, 94, 64
1, 39995, Note_on_c, 0, 101, 90
1, 39996, Note_on_c, 0, 70, 90
1, 39996, Note_on_c, 0, 89, 97
1, 39999, Note_on_c, 0, 94, 95
1, 39999, Poly_aftertouch_c, 0, 65, 127
1, 40000, Note_on_c, 0, 62, 69
1, 40008, Note_on_c, 0, 98, 75
1, 40014, Note_off_c, 0, 70, 71
1, 40015, Note_off_c, 0, 101, 73
1, 40032, Note_off_c, 0, 98, 71
1, 40035, Note_off_c, 0, 89, 65
1, 40037, Poly_aftertouch_c, 0, 65, 0
1, 40047, Note_off_c, 0, 94, 64
1, 40048, Note_off_c, 0, 62, 63
1, 40213, Note_on_c, 0, 53, 83
1, 40255, Note_off_c, 0, 53, 62
1, 40315, Note_on_c, 0, 53, 83
1, 40413, Note_on_c, 0, 67, 94
1, 40420, Note_on_c, 0, 58, 92
1, 40422, Note_on_c, 0, 62, 79
1, 40427, Note_on_c, 0, 41, 86
1, 40456, Note_off_c, 0, 53, 57
1, 40497, Note_off_c, 0, 58, 61
1, 40509, Note_off_c, 0, 62, 57
1, 40551, Note_off_c, 0, 41, 52
1, 40646, Note_off_c, 0, 67, 57
1, 40676, Control_c, 0, 64, 75
1, 40679, Note_on_c, 0, 41, 90
1, 40691, Control_c, 0, 64, 0
1, 40695, Note_on_c, 0, 65, 89
1, 40696, Note_on_c, 0, 63, 92
1, 40698, Note_on_c, 0, 57, 95
1, 40721, Note_on_c, 0, 61, 54
1, 40732, Note_off_c, 0, 57, 67
1, 40745, Note_off_c, 0, 61, 39
1, 40750, Control_c, 0, 64, 62
1, 40765, Control_c, 0, 64, 79
1, 40771, Note_off_c, 0, 63, 66
1, 40774, Note_off_c, 0, 65, 65
1, 40780, Control_c, 0, 64, 127
1, 40891, Note_off_c, 0, 41, 64
1, 40899, Note_on_c, 0, 53, 76
1, 40930, Note_off_c, 0, 53, 65
1, 41032, Note_on_c, 0, 67, 95
1, 41084, Note_off_c, 0, 67, 63
1, 41123, Note_on_c, 0, 65, 82
1, 41134, Note_on_c, 0, 89, 85
1, 41134, Note_on_c, 0, 94, 80
1, 41140, Note_on_c, 0, 98, 72
1, 41141, Note_on_c, 0, 58, 85
1, 41167, Note_off_c, 0, 94, 62
1, 41172, Note_off_c, 0, 65, 65
1, 41177, Note_off_c, 0, 89, 62
1, 41181, Note_off_c, 0, 98, 60
1, 41182, Note_off_c, 0, 58, 64
1, 41223, Note_on_c, 0, 94, 82
1, 41227, Note_on_c, 0, 89, 80
1, 41227, Note_on_c, 0, 101, 80
1, 41243, Note_on_c, 0, 100, 77
1, 41275, Note_off_c, 0, 89, 64
1, 41290, Note_off_c, 0, 94, 64
1, 41307, Control_c, 0, 64, 83
1, 41322, Control_c, 0, 64, 50
1, 41337, Control_c, 0, 64, 12
1, 41342, Note_on_c, 0, 93, 91
1, 41343, Note_on_c, 0, 75, 90
1, 41347, Note_on_c, 0, 89, 92
1, 41348, Note_on_c, 0, 99, 97
1, 41351, Control_c, 0, 64, 54
1, 41356, Note_off_c, 0, 100, 22
1, 41358, Note_on_c, 0, 69, 58
1, 41358, Note_off_c, 0, 75, 73
1, 41360, Note_on_c, 0, 65, 68
1, 41366, Control_c, 0, 64, 73
1, 41367, Note_off_c, 0, 101, 66
1, 41374, Note_off_c, 0, 93, 66
1, 41381, Note_off_c, 0, 69, 63
1, 41381, Control_c, 0, 64, 127
1, 41387, Note_off_c, 0, 99, 66
1, 41388, Note_off_c, 0, 89, 65
1, 41389, Note_off_c, 0, 65, 67
1, 41398, Note_on_c, 0, 70, 3
1, 41438, Note_off_c, 0, 70, 50
1, 41551, Note_on_c, 0, 53, 88
1, 41552, Note_on_c, 0, 70, 31
1, 41606, Note_off_c, 0, 53, 64
1, 41609, Note_off_c, 0, 70, 45
1, 41641, Note_on_c, 0, 74, 83
1, 41649, Note_on_c, 0, 65, 80
1, 41679, Note_on_c, 0, 53, 82
1, 41687, Note_off_c, 0, 65, 60
1, 41695, Note_on_c, 0, 69, 18
1, 41714, Note_off_c, 0, 74, 63
1, 41744, Note_on_c, 0, 41, 93
1, 41752, Note_on_c, 0, 72, 95
1, 41757, Note_on_c, 0, 63, 94
1, 41759, Note_off_c, 0, 69, 42
1, 41761, Note_off_c, 0, 53, 67
1, 41774, Note_off_c, 0, 41, 67
1, 41778, Note_off_c, 0, 63, 67
1, 41791, Note_off_c, 0, 72, 68
1, 42041, Control_c, 0, 64, 91
1, 42056, Control_c, 0, 64, 44
1, 42066, Note_on_c, 0, 77, 95
1, 42067, Note_on_c, 0, 50, 80
1, 42067, Note_on_c, 0, 58, 95
1, 42068, Note_on_c, 0, 65, 97
1, 42071, Control_c, 0, 64, 0
1, 42071, Note_on_c, 0, 70, 94
1, 42081, Note_on_c, 0, 53, 76
1, 42115, Control_c, 0, 64, 61
1, 42119, Note_off_c, 0, 53, 65
1, 42121, Note_off_c, 0, 65, 65
1, 42123, Note_off_c, 0, 50, 64
1, 42130, Control_c, 0, 64, 91
1, 42136, Note_off_c, 0, 58, 65
1, 42145, Control_c, 0, 64, 127
1, 42147, Note_off_c, 0, 77, 67
1, 42148, Note_off_c, 0, 70, 65
1, 42369, Poly_aftertouch_c, 0, 73, 127
1, 42388, Poly_aftertouch_c, 0, 73, 0
1, 42450, Poly_aftertouch_c, 0, 73, 0
1, 42511, Poly_aftertouch_c, 0, 73, 0
1, 42565, Note_on_c, 0, 76, 88
1, 42569, Note_on_c, 0, 72, 75
1, 42573, Note_on_c, 0, 64, 64
1, 42575, Note_on_c, 0, 101, 87
1, 42577, Note_on_c, 0, 94, 89
1, 42580, Note_on_c, 0, 89, 90
1, 42582, Note_on_c, 0, 68, 57
1, 42595, Note_off_c, 0, 76, 63
1, 42604, Note_off_c, 0, 94, 65
1, 42604, Note_off_c, 0, 64, 64
1, 42607, Note_off_c, 0, 72, 61
1, 42608, Note_off_c, 0, 89, 62
1, 42611, Note_off_c, 0, 68, 64
1, 42618, Note_off_c, 0, 101, 66
1, 42653, Note_on_c, 0, 101, 80
1, 42655, Note_on_c, 0, 76, 90
1, 42661, Note_on_c, 0, 72, 70
1, 42661, Note_on_c, 0, 89, 84
1, 42664, Note_on_c, 0, 94, 92
1, 42679, Note_on_c, 0, 64, 58
1, 42684, Note_on_c, 0, 68, 54
1, 42687, Note_off_c, 0, 76, 63
1, 42691, Note_off_c, 0, 94, 64
1, 42699, Note_off_c, 0, 64, 64
1, 42700, Note_off_c, 0, 89, 64
1, 42703, Note_off_c, 0, 101, 66
1, 42709, Note_off_c, 0, 68, 61
1, 42714, Note_off_c, 0, 72, 62
1, 42757, Note_on_c, 0, 101, 97
1, 42763, Note_on_c, 0, 76, 93
1, 42763, Note_on_c, 0, 89, 93
1, 42763, Note_on_c, 0, 94, 108
1, 42767, Note_on_c, 0, 64, 72
1, 42781, Note_off_c, 0, 89, 72
1, 42782, Note_on_c, 0, 68, 60
1, 42783, Note_off_c, 0, 76, 73
1, 42792, Note_off_c, 0, 64, 69
1, 42795, Note_off_c, 0, 101, 64
1, 42800, Note_off_c, 0, 94, 65
1, 42807, Note_off_c, 0, 68, 56
1, 43211, Note_on_c, 0, 50, 87
1, 43211, Note_on_c, 0, 65, 90
1, 43216, Note_on_c, 0, 58, 96
1, 43217, Note_on_c, 0, 53, 89
1, 43221, Note_on_c, 0, 46, 76
1, 43225, Note_on_c, 0, 38, 56
1, 43233, Note_off_c, 0, 50, 70
1, 43236, Note_off_c, 0, 53, 72
1, 43244, Note_off_c, 0, 46, 66
1, 43254, Note_off_c, 0, 58, 67
1, 43254, Note_off_c, 0, 38, 57
1, 43256, Note_off_c, 0, 65, 66
1, 43466, Control_c, 0, 64, 88
1, 43481, Control_c, 0, 64, 36
1, 43492, Note_on_c, 0, 63, 99
1, 43492, Note_on_c, 0, 75, 98
1, 43493, Note_on_c, 0, 36, 76
1, 43493, Note_on_c, 0, 48, 93
1, 43495, Control_c, 0, 64, 0
1, 43495, Note_on_c, 0, 65, 85
1, 43496, Note_on_c, 0, 45, 83
1, 43503, Note_on_c, 0, 39, 74
1, 43525, Note_off_c, 0, 36, 66
1, 43525, Note_off_c, 0, 48, 67
1, 43533, Note_off_c, 0, 39, 66
1, 43540, Control_c, 0, 64, 28
1, 43541, Note_off_c, 0, 45, 64
1, 43554, Control_c, 0, 64, 74
1, 43566, Note_off_c, 0, 63, 64
1, 43569, Control_c, 0, 64, 127
1, 43581, Note_off_c, 0, 65, 63
1, 43606, Poly_aftertouch_c, 0, 73, 0
1, 43622, Note_off_c, 0, 75, 64
1, 43865, Poly_aftertouch_c, 0, 92, 127
1, 43893, Poly_aftertouch_c, 0, 92, 0
1, 43894, Poly_aftertouch_c, 0, 70, 0
1, 43978, Note_on_c, 0, 77, 91
1, 43981, Note_on_c, 0, 75, 84
1, 43985, Note_on_c, 0, 65, 68
1, 43991, Note_on_c, 0, 93, 83
1, 43994, Note_on_c, 0, 99, 83
1, 43998, Note_on_c, 0, 89, 81
1, 43999, Note_on_c, 0, 69, 64
1, 44014, Note_off_c, 0, 77, 62
1, 44015, Note_on_c, 0, 101, 51
1, 44015, Note_off_c, 0, 93, 69
1, 44019, Note_off_c, 0, 99, 67
1, 44020, Note_off_c, 0, 89, 70
1, 44021, Note_off_c, 0, 75, 59
1, 44028, Note_off_c, 0, 65, 58
1, 44029, Note_off_c, 0, 69, 66
1, 44040, Note_off_c, 0, 101, 55
1, 44065, Note_on_c, 0, 77, 89
1, 44068, Note_on_c, 0, 75, 78
1, 44074, Note_on_c, 0, 89, 89
1, 44074, Note_on_c, 0, 93, 83
1, 44076, Note_on_c, 0, 101, 71
1, 44079, Note_on_c, 0, 99, 82
1, 44090, Poly_aftertouch_c, 0, 65, 127
1, 44100, Note_off_c, 0, 93, 66
1, 44101, Note_off_c, 0, 89, 62
1, 44102, Note_off_c, 0, 77, 66
1, 44103, Note_off_c, 0, 99, 66
1, 44106, Note_on_c, 0, 69, 41
1, 44107, Note_off_c, 0, 101, 67
1, 44116, Poly_aftertouch_c, 0, 65, 0
1, 44117, Note_off_c, 0, 75, 61
1, 44127, Note_off_c, 0, 69, 60
1, 44160, Note_on_c, 0, 65, 84
1, 44161, Note_on_c, 0, 77, 98
1, 44164, Note_on_c, 0, 75, 81
1, 44167, Note_on_c, 0, 101, 101
1, 44169, Note_on_c, 0, 99, 105
1, 44170, Note_on_c, 0, 89, 103
1, 44182, Note_on_c, 0, 93, 72
1, 44190, Note_off_c, 0, 101, 67
1, 44192, Note_off_c, 0, 77, 66
1, 44195, Note_off_c, 0, 89, 65
1, 44198, Note_off_c, 0, 93, 67
1, 44202, Note_on_c, 0, 69, 39
1, 44212, Note_off_c, 0, 75, 65
1, 44213, Note_off_c, 0, 99, 65
1, 44226, Note_off_c, 0, 65, 64
1, 44233, Note_off_c, 0, 69, 55
1, 44597, Note_on_c, 0, 48, 91
1, 44599, Note_on_c, 0, 45, 83
1, 44605, Note_on_c, 0, 36, 71
1, 44607, Note_on_c, 0, 53, 94
1, 44609, Note_on_c, 0, 57, 83
1, 44610, Note_on_c, 0, 63, 92
1, 44610, Note_on_c, 0, 65, 80
1, 44619, Note_off_c, 0, 48, 67
1, 44622, Note_off_c, 0, 45, 70
1, 44631, Note_on_c, 0, 56, 51
1, 44633, Note_off_c, 0, 53, 67
1, 44638, Note_off_c, 0, 36, 63
1, 44649, Note_off_c, 0, 57, 65
1, 44658, Note_off_c, 0, 56, 41
1, 44661, Note_off_c, 0, 65, 63
1, 44673, Note_off_c, 0, 63, 64
1, 44763, Poly_aftertouch_c, 0, 48, 0
1, 44917, Control_c, 0, 64, 80
1, 44932, Control_c, 0, 64, 13
1, 44942, Note_on_c, 0, 47, 95
1, 44944, Note_on_c, 0, 35, 80
1, 44944, Note_on_c, 0, 44, 90
1, 44947, Control_c, 0, 64, 0
1, 44949, Note_on_c, 0, 74, 96
1, 44952, Note_on_c, 0, 62, 100
1, 44952, Note_on_c, 0, 65, 92
1, 44974, Note_off_c, 0, 47, 67
1, 44975, Note_off_c, 0, 35, 67
1, 44991, Note_off_c, 0, 44, 65
1, 44992, Control_c, 0, 64, 64
1, 44997, Note_on_c, 0, 71, 37
1, 45007, Control_c, 0, 64, 127
1, 45025, Note_off_c, 0, 71, 51
1, 45031, Note_off_c, 0, 62, 62
1, 45071, Note_off_c, 0, 65, 62
1, 45101, Note_off_c, 0, 74, 66
1, 45308, Poly_aftertouch_c, 0, 74, 127
1, 45320, Poly_aftertouch_c, 0, 68, 0
1, 45344, Poly_aftertouch_c, 0, 74, 0
1, 45453, Note_on_c, 0, 74, 82
1, 45457, Note_on_c, 0, 77, 86
1, 45466, Note_on_c, 0, 65, 59
1, 45469, Note_on_c, 0, 68, 57
1, 45469, Note_on_c, 0, 92, 81
1, 45472, Note_on_c, 0, 88, 72
1, 45472, Note_on_c, 0, 89, 76
1, 45477, Note_on_c, 0, 98, 67
1, 45478, Note_on_c, 0, 101, 68
1, 45479, Note_off_c, 0, 77, 66
1, 45493, Note_off_c, 0, 92, 70
1, 45494, Note_off_c, 0, 98, 64
1, 45495, Note_off_c, 0, 101, 65
1, 45496, Note_off_c, 0, 65, 59
1, 45496, Note_off_c, 0, 74, 61
1, 45496, Note_off_c, 0, 88, 69
1, 45496, Note_off_c, 0, 89, 69
1, 45501, Note_off_c, 0, 68, 64
1, 45537, Note_on_c, 0, 74, 75
1, 45543, Note_on_c, 0, 77, 90
1, 45545, Poly_aftertouch_c, 0, 65, 0
1, 45548, Note_on_c, 0, 89, 89
1, 45554, Note_on_c, 0, 98, 80
1, 45556, Note_on_c, 0, 101, 72
1, 45558, Note_on_c, 0, 92, 77
1, 45564, Note_on_c, 0, 68, 57
1, 45565, Note_off_c, 0, 77, 69
1, 45573, Note_off_c, 0, 89, 60
1, 45573, Note_off_c, 0, 101, 68
1, 45579, Note_off_c, 0, 98, 69
1, 45582, Note_off_c, 0, 92, 70
1, 45591, Note_off_c, 0, 68, 56
1, 45591, Note_off_c, 0, 74, 65
1, 45636, Note_on_c, 0, 77, 99
1, 45637, Note_on_c, 0, 74, 86
1, 45641, Note_on_c, 0, 101, 98
1, 45642, Note_on_c, 0, 65, 81
1, 45644, Note_on_c, 0, 89, 104
1, 45649, Note_on_c, 0, 98, 90
1, 45650, Note_on_c, 0, 92, 104
1, 45654, Note_off_c, 0, 77, 71
1, 45655, Note_on_c, 0, 68, 83
1, 45673, Note_off_c, 0, 89, 69
1, 45674, Note_off_c, 0, 98, 68
1, 45677, Note_off_c, 0, 101, 66
1, 45678, Note_off_c, 0, 74, 67
1, 45687, Note_off_c, 0, 92, 67
1, 45689, Note_off_c, 0, 65, 66
1, 45697, Note_off_c, 0, 68, 65
1, 46022, Poly_aftertouch_c, 0, 62, 0
1, 46043, Poly_aftertouch_c, 0, 62, 0
1, 46062, Note_on_c, 0, 47, 86
1, 46065, Note_on_c, 0, 44, 88
1, 46068, Note_on_c, 0, 35, 71
1, 46068, Note_on_c, 0, 74, 95
1, 46070, Note_on_c, 0, 62, 81
1, 46071, Note_on_c, 0, 65, 95
1, 46083, Note_off_c, 0, 47, 67
1, 46095, Note_off_c, 0, 44, 70
1, 46104, Note_off_c, 0, 35, 63
1, 46114, Note_off_c, 0, 62, 66
1, 46116, Note_off_c, 0, 65, 67
1, 46125, Note_off_c, 0, 74, 65
1, 46416, Control_c, 0, 64, 94
1, 46431, Note_on_c, 0, 67, 88
1, 46431, Control_c, 0, 64, 55
1, 46432, Note_on_c, 0, 75, 89
1, 46436, Note_on_c, 0, 43, 80
1, 46437, Note_on_c, 0, 48, 85
1, 46438, Note_on_c, 0, 63, 96
1, 46442, Note_on_c, 0, 36, 78
1, 46445, Control_c, 0, 64, 0
1, 46490, Control_c, 0, 64, 52
1, 46505, Control_c, 0, 64, 75
1, 46519, Note_off_c, 0, 67, 64
1, 46519, Control_c, 0, 64, 127
1, 46546, Note_off_c, 0, 36, 57
1, 46552, Note_off_c, 0, 63, 65
1, 46564, Note_off_c, 0, 75, 61
1, 46575, Note_off_c, 0, 48, 62
1, 46578, Note_off_c, 0, 43, 61
1, 46735, Note_on_c, 0, 74, 79
1, 46736, Note_on_c, 0, 50, 82
1, 46738, Note_on_c, 0, 65, 83
1, 46742, Note_on_c, 0, 62, 86
1, 46748, Note_on_c, 0, 42, 75
1, 46754, Note_on_c, 0, 38, 40
1, 46760, Note_off_c, 0, 65, 68
1, 46764, Note_off_c, 0, 50, 68
1, 46767, Note_off_c, 0, 74, 61
1, 46769, Note_off_c, 0, 62, 66
1, 46789, Note_off_c, 0, 38, 51
1, 46792, Note_off_c, 0, 42, 62
1, 46831, Control_c, 0, 64, 64
1, 46841, Note_on_c, 0, 72, 93
1, 46849, Note_on_c, 0, 60, 93
1, 46850, Note_on_c, 0, 51, 90
1, 46853, Control_c, 0, 64, 0
1, 46857, Note_on_c, 0, 63, 86
1, 46873, Note_on_c, 0, 39, 67
1, 46898, Control_c, 0, 64, 53
1, 46913, Control_c, 0, 64, 72
1, 46927, Control_c, 0, 64, 127
1, 46970, Note_off_c, 0, 39, 59
1, 46977, Note_off_c, 0, 51, 64
1, 47028, Note_off_c, 0, 63, 59
1, 47031, Note_off_c, 0, 72, 61
1, 47037, Note_off_c, 0, 60, 62
1, 47117, Note_on_c, 0, 72, 91
1, 47120, Control_c, 0, 64, 70
1, 47121, Note_on_c, 0, 41, 78
1, 47121, Note_on_c, 0, 60, 95
1, 47122, Note_on_c, 0, 53, 80
1, 47123, Note_on_c, 0, 63, 89
1, 47135, Control_c, 0, 64, 0
1, 47210, Control_c, 0, 64, 56
1, 47225, Control_c, 0, 64, 80
1, 47227, Note_off_c, 0, 72, 60
1, 47239, Control_c, 0, 64, 127
1, 47250, Note_off_c, 0, 63, 59
1, 47286, Note_off_c, 0, 60, 54
1, 47341, Note_off_c, 0, 41, 62
1, 47374, Note_off_c, 0, 53, 59
1, 47431, Note_on_c, 0, 70, 81
1, 47436, Note_on_c, 0, 58, 94
1, 47443, Note_on_c, 0, 62, 61
1, 47460, Note_on_c, 0, 53, 81
1, 47460, Control_c, 0, 64, 80
1, 47462, Note_on_c, 0, 41, 54
1, 47467, Note_off_c, 0, 62, 63
1, 47474, Note_off_c, 0, 70, 64
1, 47475, Note_off_c, 0, 58, 67
1, 47475, Control_c, 0, 64, 50
1, 47486, Note_off_c, 0, 53, 67
1, 47489, Note_off_c, 0, 41, 55
1, 47490, Control_c, 0, 64, 0
1, 47527, Note_on_c, 0, 57, 94
1, 47532, Note_on_c, 0, 60, 81
1, 47532, Note_on_c, 0, 69, 80
1, 47535, Control_c, 0, 64, 55
1, 47538, Note_on_c, 0, 53, 85
1, 47544, Note_on_c, 0, 41, 78
1, 47547, Note_off_c, 0, 57, 71
1, 47550, Control_c, 0, 64, 67
1, 47552, Note_off_c, 0, 60, 71
1, 47553, Note_off_c, 0, 69, 71
1, 47564, Control_c, 0, 64, 80
1, 47578, Note_off_c, 0, 41, 66
1, 47579, Control_c, 0, 64, 127
1, 47619, Note_off_c, 0, 53, 63
1, 47897, Note_on_c, 0, 77, 95
1, 47898, Control_c, 0, 64, 94
1, 47906, Note_on_c, 0, 65, 87
1, 47910, Note_on_c, 0, 50, 69
1, 47912, Note_on_c, 0, 58, 74
1, 47912, Control_c, 0, 64, 50
1, 47913, Note_on_c, 0, 70, 75
1, 47927, Control_c, 0, 64, 0
1, 47932, Note_on_c, 0, 53, 59
1, 48003, Control_c, 0, 64, 63
1, 48012, Note_off_c, 0, 50, 64
1, 48016, Note_off_c, 0, 53, 63
1, 48017, Control_c, 0, 64, 97
1, 48029, Note_off_c, 0, 65, 65
1, 48032, Control_c, 0, 64, 127
1, 48038, Note_off_c, 0, 58, 64
1, 48065, Note_off_c, 0, 70, 63
1, 48066, Note_off_c, 0, 77, 64
1, 48453, Note_on_c, 0, 101, 78
1, 48455, Note_on_c, 0, 89, 80
1, 48462, Note_on_c, 0, 77, 68
1, 48465, Note_on_c, 0, 74, 59
1, 48468, Note_on_c, 0, 70, 56
1, 48477, Note_off_c, 0, 101, 69
1, 48479, Note_off_c, 0, 89, 69
1, 48480, Note_on_c, 0, 65, 28
1, 48489, Note_off_c, 0, 77, 64
1, 48498, Note_off_c, 0, 74, 64
1, 48501, Note_off_c, 0, 70, 64
1, 48536, Note_on_c, 0, 101, 78
1, 48539, Note_on_c, 0, 89, 81
1, 48541, Note_on_c, 0, 77, 78
1, 48547, Note_on_c, 0, 94, 59
1, 48554, Note_on_c, 0, 74, 64
1, 48560, Note_off_c, 0, 101, 66
1, 48566, Note_off_c, 0, 94, 60
1, 48568, Note_off_c, 0, 89, 62
1, 48569, Note_on_c, 0, 70, 49
1, 48570, Note_off_c, 0, 77, 62
1, 48591, Note_off_c, 0, 74, 62
1, 48602, Note_off_c, 0, 70, 63
1, 48631, Note_off_c, 0, 65, 0
1, 48643, Note_on_c, 0, 101, 92
1, 48646, Note_on_c, 0, 65, 38
1, 48647, Note_on_c, 0, 94, 79
1, 48652, Note_on_c, 0, 77, 79
1, 48658, Note_on_c, 0, 89, 69
1, 48664, Note_on_c, 0, 74, 69
1, 48667, Note_off_c, 0, 101, 65
1, 48669, Note_on_c, 0, 70, 63
1, 48673, Note_off_c, 0, 89, 67
1, 48673, Note_off_c, 0, 94, 68
1, 48677, Note_off_c, 0, 77, 69
1, 48702, Note_off_c, 0, 74, 58
1, 48735, Note_off_c, 0, 70, 62
1, 48735, Note_off_c, 0, 65, 61
1, 49106, Note_on_c, 0, 65, 78
1, 49110, Note_on_c, 0, 53, 64
1, 49111, Note_on_c, 0, 58, 67
1, 49114, Note_on_c, 0, 50, 59
1, 49149, Note_off_c, 0, 53, 63
1, 49153, Note_off_c, 0, 50, 62
1, 49159, Note_off_c, 0, 65, 63
1, 49198, Note_on_c, 0, 65, 68
1, 49201, Note_off_c, 0, 58, 32
1, 49231, Note_on_c, 0, 53, 58
1, 49237, Note_on_c, 0, 50, 53
1, 49239, Note_off_c, 0, 65, 64
1, 49271, Note_off_c, 0, 50, 64
1, 49272, Note_off_c, 0, 53, 60
1, 49406, Note_on_c, 0, 53, 37
1, 49410, Note_on_c, 0, 48, 45
1, 49411, Note_on_c, 0, 75, 87
1, 49417, Note_on_c, 0, 65, 37
1, 49423, Note_on_c, 0, 57, 58
1, 49425, Control_c, 0, 64, 69
1, 49431, Note_on_c, 0, 63, 66
1, 49439, Control_c, 0, 64, 0
1, 49505, Note_off_c, 0, 48, 64
1, 49507, Note_off_c, 0, 57, 66
1, 49514, Control_c, 0, 64, 55
1, 49520, Note_off_c, 0, 53, 60
1, 49527, Note_off_c, 0, 63, 62
1, 49529, Control_c, 0, 64, 70
1, 49540, Note_off_c, 0, 65, 63
1, 49544, Control_c, 0, 64, 95
1, 49558, Control_c, 0, 64, 127
1, 49579, Note_off_c, 0, 75, 64
1, 49953, Note_on_c, 0, 77, 59
1, 49953, Note_on_c, 0, 89, 64
1, 49955, Note_on_c, 0, 81, 63
1, 49955, Note_on_c, 0, 99, 58
1, 49962, Note_on_c, 0, 93, 48
1, 49965, Note_on_c, 0, 72, 45
1, 49973, Note_off_c, 0, 89, 64
1, 49979, Note_off_c, 0, 99, 64
1, 49984, Note_off_c, 0, 81, 67
1, 49984, Note_off_c, 0, 93, 57
1, 49988, Note_off_c, 0, 77, 60
1, 49995, Note_off_c, 0, 72, 56
1, 50044, Note_on_c, 0, 93, 60
1, 50046, Note_on_c, 0, 81, 72
1, 50051, Poly_aftertouch_c, 0, 101, 127
1, 50053, Note_on_c, 0, 99, 55
1, 50054, Note_on_c, 0, 89, 50
1, 50068, Note_off_c, 0, 93, 56
1, 50069, Poly_aftertouch_c, 0, 101, 0
1, 50074, Note_off_c, 0, 81, 65
1, 50076, Poly_aftertouch_c, 0, 77, 0
1, 50077, Note_off_c, 0, 89, 56
1, 50079, Note_off_c, 0, 99, 56
1, 50145, Note_on_c, 0, 81, 69
1, 50149, Note_on_c, 0, 72, 31
1, 50149, Note_on_c, 0, 89, 73
1, 50153, Note_on_c, 0, 101, 63
1, 50155, Note_on_c, 0, 77, 63
1, 50161, Note_on_c, 0, 99, 59
1, 50162, Note_on_c, 0, 93, 43
1, 50170, Note_off_c, 0, 81, 70
1, 50173, Note_off_c, 0, 101, 62
1, 50177, Note_off_c, 0, 89, 68
1, 50185, Note_off_c, 0, 93, 58
1, 50185, Note_off_c, 0, 99, 64
1, 50196, Note_off_c, 0, 77, 64
1, 50200, Note_off_c, 0, 72, 64
1, 50608, Note_on_c, 0, 53, 52
1, 50620, Note_on_c, 0, 65, 54
1, 50635, Note_on_c, 0, 57, 44
1, 50648, Note_on_c, 0, 48, 38
1, 50659, Note_off_c, 0, 53, 60
1, 50671, Note_off_c, 0, 57, 61
1, 50673, Note_off_c, 0, 65, 59
1, 50735, Note_on_c, 0, 65, 46
1, 50772, Note_off_c, 0, 48, 53
1, 50777, Note_off_c, 0, 65, 63
1, 50779, Note_on_c, 0, 53, 35
1, 50804, Poly_aftertouch_c, 0, 57, 127
1, 50816, Note_off_c, 0, 53, 48
1, 50837, Poly_aftertouch_c, 0, 57, 0
1, 51039, Note_on_c, 0, 74, 55
1, 51048, Note_on_c, 0, 47, 35
1, 51065, Note_on_c, 0, 56, 39
1, 51067, Note_on_c, 0, 53, 39
1, 51070, Control_c, 0, 64, 74
1, 51075, Note_on_c, 0, 62, 38
1, 51082, Note_on_c, 0, 65, 31
1, 51085, Control_c, 0, 64, 43
1, 51100, Control_c, 0, 64, 0
1, 51174, Control_c, 0, 64, 56
1, 51189, Control_c, 0, 64, 66
1, 51192, Note_off_c, 0, 47, 58
1, 51204, Control_c, 0, 64, 72
1, 51207, Note_off_c, 0, 56, 64
1, 51210, Note_off_c, 0, 53, 58
1, 51210, Note_off_c, 0, 62, 64
1, 51219, Control_c, 0, 64, 82
1, 51225, Note_off_c, 0, 65, 61
1, 51234, Control_c, 0, 64, 99
1, 51249, Control_c, 0, 64, 127
1, 51271, Note_off_c, 0, 74, 64
1, 51738, Note_on_c, 0, 101, 54
1, 51741, Note_on_c, 0, 89, 52
1, 51753, Note_on_c, 0, 71, 47
1, 51756, Note_on_c, 0, 77, 48
1, 51756, Note_on_c, 0, 98, 42
1, 51759, Note_on_c, 0, 92, 40
1, 51772, Note_on_c, 0, 80, 33
1, 51772, Note_off_c, 0, 89, 50
1, 51784, Note_off_c, 0, 101, 57
1, 51785, Note_off_c, 0, 92, 54
1, 51785, Note_off_c, 0, 98, 57
1, 51804, Note_off_c, 0, 71, 58
1, 51811, Note_off_c, 0, 80, 49
1, 51816, Note_off_c, 0, 77, 55
1, 51880, Note_on_c, 0, 92, 46
1, 51883, Note_on_c, 0, 98, 48
1, 51885, Note_on_c, 0, 89, 46
1, 51888, Note_on_c, 0, 101, 46
1, 51897, Note_on_c, 0, 77, 27
1, 51904, Note_on_c, 0, 80, 36
1, 51913, Note_on_c, 0, 71, 18
1, 51914, Note_off_c, 0, 89, 52
1, 51916, Note_off_c, 0, 98, 57
1, 51917, Note_off_c, 0, 92, 61
1, 51920, Note_off_c, 0, 101, 54
1, 51933, Note_off_c, 0, 80, 49
1, 51960, Note_off_c, 0, 71, 39
1, 52009, Note_off_c, 0, 77, 0
1, 52021, Note_on_c, 0, 77, 34
1, 52021, Note_on_c, 0, 101, 61
1, 52025, Note_on_c, 0, 80, 56
1, 52030, Note_on_c, 0, 71, 37
1, 52030, Note_on_c, 0, 89, 46
1, 52037, Note_on_c, 0, 92, 42
1, 52053, Note_on_c, 0, 98, 23
1, 52062, Note_off_c, 0, 80, 66
1, 52068, Note_off_c, 0, 71, 63
1, 52069, Note_off_c, 0, 77, 62
1, 52085, Note_off_c, 0, 101, 63
1, 52086, Note_off_c, 0, 89, 63
1, 52090, Note_off_c, 0, 98, 50
1, 52092, Note_off_c, 0, 92, 65
1, 52612, Control_c, 0, 64, 117
1, 52627, Control_c, 0, 64, 111
1, 52642, Control_c, 0, 64, 106
1, 52656, Control_c, 0, 64, 102
1, 52671, Control_c, 0, 64, 99
1, 52686, Control_c, 0, 64, 95
1, 52701, Control_c, 0, 64, 91
1, 52716, Control_c, 0, 64, 88
1, 52730, Control_c, 0, 64, 84
1, 52745, Control_c, 0, 64, 81
1, 52756, Note_on_c, 0, 74, 55
1, 52760, Control_c, 0, 64, 76
1, 52770, Note_on_c, 0, 47, 37
1, 52774, Note_on_c, 0, 56, 41
1, 52776, Control_c, 0, 64, 71
1, 52781, Note_on_c, 0, 65, 42
1, 52791, Control_c, 0, 64, 65
1, 52799, Note_off_c, 0, 74, 63
1, 52805, Note_off_c, 0, 47, 59
1, 52805, Control_c, 0, 64, 56
1, 52814, Note_off_c, 0, 65, 63
1, 52820, Control_c, 0, 64, 24
1, 52835, Note_off_c, 0, 56, 58
1, 52843, Control_c, 0, 64, 0
1, 53099, Note_on_c, 0, 67, 44
1, 53108, Note_on_c, 0, 63, 37
1, 53109, Control_c, 0, 64, 35
1, 53112, Note_on_c, 0, 55, 33
1, 53124, Control_c, 0, 64, 51
1, 53134, Note_on_c, 0, 48, 30
1, 53139, Control_c, 0, 64, 59
1, 53154, Control_c, 0, 64, 62
1, 53169, Control_c, 0, 64, 65
1, 53183, Control_c, 0, 64, 67
1, 53198, Control_c, 0, 64, 70
1, 53213, Control_c, 0, 64, 73
1, 53228, Control_c, 0, 64, 77
1, 53243, Control_c, 0, 64, 82
1, 53258, Control_c, 0, 64, 88
1, 53273, Control_c, 0, 64, 94
1, 53287, Control_c, 0, 64, 104
1, 53302, Control_c, 0, 64, 113
1, 53314, Note_off_c, 0, 48, 57
1, 53317, Control_c, 0, 64, 119
1, 53339, Poly_aftertouch_c, 0, 71, 127
1, 53340, Note_off_c, 0, 55, 54
1, 53341, Note_on_c, 0, 75, 80
1, 53347, Control_c, 0, 64, 118
1, 53351, Poly_aftertouch_c, 0, 70, 127
1, 53361, Control_c, 0, 64, 116
1, 53375, Note_off_c, 0, 63, 63
1, 53376, Control_c, 0, 64, 115
1, 53391, Control_c, 0, 64, 114
1, 53408, Note_off_c, 0, 67, 56
1, 53447, Note_off_c, 0, 75, 58
1, 53524, Poly_aftertouch_c, 0, 58, 0
1, 53553, Control_c, 0, 64, 108
1, 53562, Poly_aftertouch_c, 0, 71, 0
1, 53564, Note_on_c, 0, 52, 56
1, 53565, Note_on_c, 0, 74, 72
1, 53567, Poly_aftertouch_c, 0, 70, 0
1, 53568, Control_c, 0, 64, 86
1, 53570, Note_on_c, 0, 67, 58
1, 53582, Note_on_c, 0, 58, 54
1, 53592, Control_c, 0, 64, 67
1, 53598, Note_off_c, 0, 52, 63
1, 53607, Control_c, 0, 64, 32
1, 53611, Note_off_c, 0, 67, 64
1, 53622, Control_c, 0, 64, 0
1, 53622, Note_off_c, 0, 58, 65
1, 53622, Note_off_c, 0, 74, 55
1, 53887, Note_on_c, 0, 53, 33
1, 53892, Note_on_c, 0, 72, 55
1, 53904, Note_on_c, 0, 65, 44
1, 53905, Note_on_c, 0, 63, 27
1, 53911, Note_on_c, 0, 58, 41
1, 53932, Control_c, 0, 64, 44
1, 53947, Control_c, 0, 64, 56
1, 53962, Control_c, 0, 64, 60
1, 53976, Control_c, 0, 64, 63
1, 53991, Control_c, 0, 64, 66
1, 54006, Control_c, 0, 64, 70
1, 54021, Control_c, 0, 64, 76
1, 54036, Control_c, 0, 64, 87
1, 54051, Control_c, 0, 64, 98
1, 54066, Control_c, 0, 64, 108
1, 54081, Control_c, 0, 64, 114
1, 54095, Control_c, 0, 64, 115
1, 54098, Note_off_c, 0, 58, 62
1, 54110, Control_c, 0, 64, 114
1, 54123, Poly_aftertouch_c, 0, 70, 127
1, 54125, Control_c, 0, 64, 113
1, 54138, Note_on_c, 0, 57, 61
1, 54140, Control_c, 0, 64, 111
1, 54145, Note_off_c, 0, 53, 0
1, 54154, Control_c, 0, 64, 109
1, 54169, Control_c, 0, 64, 105
1, 54174, Note_off_c, 0, 63, 36
1, 54181, Note_off_c, 0, 57, 60
1, 54182, Poly_aftertouch_c, 0, 53, 127
1, 54184, Control_c, 0, 64, 100
1, 54197, Note_off_c, 0, 72, 54
1, 54199, Control_c, 0, 64, 94
1, 54214, Control_c, 0, 64, 87
1, 54228, Control_c, 0, 64, 80
1, 54231, Poly_aftertouch_c, 0, 53, 0
1, 54239, Note_on_c, 0, 74, 64
1, 54243, Control_c, 0, 64, 75
1, 54258, Control_c, 0, 64, 70
1, 54263, Poly_aftertouch_c, 0, 70, 0
1, 54273, Note_off_c, 0, 65, 35
1, 54273, Control_c, 0, 64, 66
1, 54288, Control_c, 0, 64, 59
1, 54302, Control_c, 0, 64, 21
1, 54317, Control_c, 0, 64, 0
1, 54319, Note_off_c, 0, 74, 36
1, 54329, Note_on_c, 0, 72, 71
1, 54336, Note_on_c, 0, 63, 65
1, 54344, Note_on_c, 0, 57, 61
1, 54365, Note_off_c, 0, 63, 66
1, 54367, Note_off_c, 0, 57, 63
1, 54374, Note_off_c, 0, 72, 62
1, 54420, Poly_aftertouch_c, 0, 65, 0
1, 54695, Note_on_c, 0, 70, 58
1, 54713, Note_on_c, 0, 58, 40
1, 54713, Note_on_c, 0, 65, 44
1, 54728, Note_on_c, 0, 62, 43
1, 54729, Note_on_c, 0, 46, 34
1, 54737, Note_on_c, 0, 53, 29
1, 54740, Control_c, 0, 64, 55
1, 54755, Control_c, 0, 64, 66
1, 54756, Note_off_c, 0, 62, 53
1, 54759, Note_off_c, 0, 65, 65
1, 54770, Control_c, 0, 64, 69
1, 54772, Note_off_c, 0, 70, 64
1, 54784, Control_c, 0, 64, 71
1, 54799, Control_c, 0, 64, 72
1, 54805, Note_off_c, 0, 46, 62
1, 54814, Control_c, 0, 64, 75
1, 54816, Note_off_c, 0, 53, 57
1, 54829, Control_c, 0, 64, 80
1, 54831, Note_off_c, 0, 58, 58
1, 54844, Control_c, 0, 64, 92
1, 54859, Control_c, 0, 64, 127
1, 55136, Note_on_c, 0, 65, 43
1, 55178, Control_c, 0, 64, 85
1, 55193, Control_c, 0, 64, 63
1, 55195, Note_on_c, 0, 77, 56
1, 55200, Note_on_c, 0, 72, 37
1, 55208, Control_c, 0, 64, 27
1, 55223, Control_c, 0, 64, 0
1, 55237, Note_on_c, 0, 81, 57
1, 55237, Control_c, 0, 64, 33
1, 55242, Note_off_c, 0, 65, 63
1, 55247, Note_on_c, 0, 75, 48
1, 55251, Note_off_c, 0, 77, 61
1, 55252, Control_c, 0, 64, 59
1, 55254, Note_off_c, 0, 72, 65
1, 55267, Control_c, 0, 64, 67
1, 55268, Note_off_c, 0, 75, 57
1, 55276, Note_on_c, 0, 89, 75
1, 55282, Control_c, 0, 64, 76
1, 55297, Note_off_c, 0, 81, 65
1, 55297, Control_c, 0, 64, 94
1, 55302, Note_off_c, 0, 89, 68
1, 55312, Control_c, 0, 64, 127
1, 55464, Note_on_c, 0, 58, 54
1, 55475, Control_c, 0, 64, 94
1, 55490, Control_c, 0, 64, 66
1, 55505, Control_c, 0, 64, 39
1, 55510, Note_on_c, 0, 65, 50
1, 55520, Control_c, 0, 64, 28
1, 55535, Control_c, 0, 64, 47
1, 55549, Control_c, 0, 64, 61
1, 55564, Control_c, 0, 64, 70
1, 55565, Note_on_c, 0, 70, 59
1, 55568, Note_off_c, 0, 58, 63
1, 55572, Note_off_c, 0, 65, 60
1, 55579, Control_c, 0, 64, 85
1, 55594, Control_c, 0, 64, 127
1, 55598, Note_off_c, 0, 70, 65
1, 55605, Note_on_c, 0, 74, 62
1, 55660, Note_on_c, 0, 77, 59
1, 55695, Note_on_c, 0, 82, 60
1, 55698, Note_off_c, 0, 77, 62
1, 55752, Note_on_c, 0, 86, 70
1, 55758, Note_off_c, 0, 82, 64
1, 55768, Note_off_c, 0, 74, 50
1, 55850, Note_on_c, 0, 94, 84
1, 55871, Note_off_c, 0, 94, 70
1, 56001, Note_off_c, 0, 86, 62
1, 56343, Control_c, 0, 64, 97
1, 56358, Control_c, 0, 64, 84
1, 56372, Control_c, 0, 64, 74
1, 56387, Control_c, 0, 64, 63
1, 56402, Control_c, 0, 64, 0
1, 56406, Note_on_c, 0, 74, 63
1, 56442, Note_off_c, 0, 74, 61
1, 56507, Note_on_c, 0, 70, 53
1, 56550, Note_off_c, 0, 70, 61
1, 56622, Note_on_c, 0, 75, 72
1, 56629, Note_on_c, 0, 46, 57
1, 56637, Note_on_c, 0, 60, 52
1, 56647, Note_on_c, 0, 69, 35
1, 56655, Note_off_c, 0, 46, 57
1, 56661, Note_off_c, 0, 60, 38
1, 56676, Control_c, 0, 64, 71
1, 56687, Note_on_c, 0, 53, 4
1, 56688, Note_off_c, 0, 53, 127
1, 56691, Control_c, 0, 64, 127
1, 56710, Note_off_c, 0, 75, 55
1, 56719, Note_off_c, 0, 69, 42
1, 56734, Note_on_c, 0, 70, 65
1, 56806, Note_off_c, 0, 70, 62
1, 56840, Note_on_c, 0, 69, 58
1, 56863, Note_off_c, 0, 69, 60
1, 56915, Note_on_c, 0, 67, 59
1, 56947, Note_off_c, 0, 67, 64
1, 56973, Control_c, 0, 64, 88
1, 56988, Control_c, 0, 64, 63
1, 57002, Control_c, 0, 64, 0
1, 57024, Note_on_c, 0, 69, 72
1, 57028, Note_on_c, 0, 81, 59
1, 57034, Note_on_c, 0, 89, 70
1, 57045, Note_on_c, 0, 87, 46
1, 57051, Note_on_c, 0, 65, 34
1, 57058, Note_off_c, 0, 89, 64
1, 57060, Note_off_c, 0, 81, 66
1, 57067, Note_off_c, 0, 69, 60
1, 57068, Note_off_c, 0, 87, 58
1, 57082, Note_off_c, 0, 65, 46
1, 57118, Note_on_c, 0, 64, 69
1, 57128, Note_on_c, 0, 89, 59
1, 57149, Note_off_c, 0, 89, 61
1, 57154, Note_off_c, 0, 64, 64
1, 57167, Note_on_c, 0, 87, 15
1, 57178, Note_off_c, 0, 87, 38
1, 57213, Note_on_c, 0, 81, 15
1, 57216, Note_on_c, 0, 69, 78
1, 57217, Note_on_c, 0, 89, 76
1, 57221, Note_on_c, 0, 87, 51
1, 57231, Note_off_c, 0, 89, 68
1, 57240, Control_c, 0, 64, 26
1, 57243, Note_off_c, 0, 81, 60
1, 57247, Note_off_c, 0, 87, 66
1, 57255, Control_c, 0, 64, 78
1, 57264, Note_on_c, 0, 65, 4
1, 57270, Control_c, 0, 64, 127
1, 57281, Note_off_c, 0, 69, 54
1, 57333, Note_off_c, 0, 65, 45
1, 57349, Note_on_c, 0, 67, 38
1, 57427, Note_on_c, 0, 65, 64
1, 57482, Note_off_c, 0, 65, 53
1, 57487, Note_off_c, 0, 67, 20
1, 57522, Note_on_c, 0, 64, 61
1, 57574, Note_off_c, 0, 64, 57
1, 57574, Control_c, 0, 64, 108
1, 57589, Control_c, 0, 64, 67
1, 57604, Control_c, 0, 64, 0
1, 57605, Note_on_c, 0, 69, 69
1, 57609, Note_on_c, 0, 60, 69
1, 57634, Note_off_c, 0, 60, 66
1, 57649, Note_on_c, 0, 53, 24
1, 57693, Note_off_c, 0, 53, 39
1, 57696, Note_off_c, 0, 69, 58
1, 57717, Note_on_c, 0, 65, 54
1, 57766, Note_off_c, 0, 65, 54
1, 57809, Note_on_c, 0, 70, 75
1, 57816, Note_on_c, 0, 62, 71
1, 57832, Note_on_c, 0, 58, 46
1, 57856, Control_c, 0, 64, 71
1, 57858, Note_off_c, 0, 58, 39
1, 57867, Note_off_c, 0, 62, 61
1, 57871, Control_c, 0, 64, 127
1, 57914, Note_on_c, 0, 63, 63
1, 57950, Note_off_c, 0, 63, 64
1, 57967, Note_off_c, 0, 70, 58
1, 58000, Note_on_c, 0, 64, 71
1, 58029, Note_off_c, 0, 64, 65
1, 58097, Note_on_c, 0, 65, 62
1, 58129, Note_off_c, 0, 65, 64
1, 58134, Note_on_c, 0, 67, 26
1, 58146, Control_c, 0, 64, 97
1, 58160, Control_c, 0, 64, 65
1, 58175, Control_c, 0, 64, 0
1, 58177, Note_off_c, 0, 67, 64
1, 58183, Note_on_c, 0, 89, 77
1, 58188, Note_on_c, 0, 65, 68
1, 58189, Note_on_c, 0, 86, 62
1, 58190, Note_on_c, 0, 82, 54
1, 58207, Note_off_c, 0, 89, 69
1, 58210, Note_off_c, 0, 82, 62
1, 58221, Note_off_c, 0, 86, 66
1, 58227, Note_off_c, 0, 65, 63
1, 58276, Note_on_c, 0, 64, 71
1, 58288, Note_on_c, 0, 82, 55
1, 58291, Note_on_c, 0, 89, 64
1, 58296, Note_on_c, 0, 86, 63
1, 58308, Note_off_c, 0, 82, 63
1, 58308, Note_off_c, 0, 89, 64
1, 58317, Note_off_c, 0, 64, 62
1, 58326, Note_off_c, 0, 86, 66
1, 58367, Note_on_c, 0, 89, 85
1, 58370, Note_on_c, 0, 65, 76
1, 58375, Note_on_c, 0, 82, 77
1, 58376, Note_on_c, 0, 86, 75
1, 58383, Note_off_c, 0, 89, 69
1, 58398, Note_off_c, 0, 82, 70
1, 58400, Note_off_c, 0, 86, 70
1, 58413, Control_c, 0, 64, 64
1, 58428, Control_c, 0, 64, 97
1, 58439, Note_off_c, 0, 65, 58
1, 58443, Control_c, 0, 64, 127
1, 58473, Note_on_c, 0, 62, 69
1, 58531, Note_off_c, 0, 62, 61
1, 58567, Note_on_c, 0, 58, 76
1, 58626, Note_off_c, 0, 58, 63
1, 58653, Note_on_c, 0, 57, 70
1, 58704, Note_off_c, 0, 57, 62
1, 58716, Note_on_c, 0, 65, 65
1, 58719, Note_on_c, 0, 58, 45
1, 58724, Control_c, 0, 64, 104
1, 58729, Note_on_c, 0, 62, 67
1, 58739, Control_c, 0, 64, 66
1, 58744, Note_off_c, 0, 58, 60
1, 58744, Note_off_c, 0, 65, 66
1, 58753, Note_off_c, 0, 62, 64
1, 58754, Control_c, 0, 64, 0
1, 58808, Note_on_c, 0, 67, 54
1, 58832, Note_on_c, 0, 65, 54
1, 58836, Note_off_c, 0, 67, 62
1, 58874, Note_off_c, 0, 65, 65
1, 58904, Note_on_c, 0, 67, 60
1, 58924, Note_off_c, 0, 67, 62
1, 58931, Note_on_c, 0, 65, 66
1, 58941, Note_on_c, 0, 60, 72
1, 58952, Note_on_c, 0, 63, 72
1, 58997, Note_off_c, 0, 65, 58
1, 58998, Control_c, 0, 64, 58
1, 59013, Control_c, 0, 64, 89
1, 59027, Control_c, 0, 64, 127
1, 59040, Note_on_c, 0, 64, 66
1, 59073, Note_off_c, 0, 64, 66
1, 59109, Note_on_c, 0, 65, 68
1, 59138, Note_off_c, 0, 65, 66
1, 59212, Note_on_c, 0, 79, 76
1, 59236, Note_off_c, 0, 79, 71
1, 59249, Note_on_c, 0, 77, 77
1, 59250, Note_off_c, 0, 60, 61
1, 59250, Control_c, 0, 64, 79
1, 59265, Control_c, 0, 64, 60
1, 59280, Control_c, 0, 64, 0
1, 59281, Note_on_c, 0, 65, 83
1, 59283, Note_on_c, 0, 59, 58
1, 59285, Note_on_c, 0, 62, 66
1, 59298, Note_off_c, 0, 63, 63
1, 59300, Note_off_c, 0, 65, 72
1, 59312, Note_off_c, 0, 59, 64
1, 59315, Note_off_c, 0, 62, 67
1, 59315, Note_off_c, 0, 77, 56
1, 59339, Note_on_c, 0, 76, 81
1, 59389, Note_off_c, 0, 76, 64
1, 59442, Note_on_c, 0, 77, 79
1, 59464, Note_on_c, 0, 60, 55
1, 59468, Note_on_c, 0, 65, 84
1, 59476, Note_on_c, 0, 63, 74
1, 59479, Note_off_c, 0, 77, 66
1, 59532, Control_c, 0, 64, 56
1, 59547, Control_c, 0, 64, 82
1, 59562, Control_c, 0, 64, 127
1, 59594, Note_on_c, 0, 91, 58
1, 59598, Note_on_c, 0, 93, 54
1, 59605, Note_on_c, 0, 89, 58
1, 59618, Note_off_c, 0, 93, 60
1, 59622, Note_off_c, 0, 65, 58
1, 59627, Note_off_c, 0, 91, 65
1, 59664, Note_off_c, 0, 89, 62
1, 59697, Note_on_c, 0, 88, 67
1, 59711, Note_off_c, 0, 60, 62
1, 59712, Note_on_c, 0, 67, 88
1, 59712, Note_on_c, 0, 91, 45
1, 59732, Note_off_c, 0, 63, 46
1, 59750, Note_off_c, 0, 91, 46
1, 59753, Note_off_c, 0, 67, 64
1, 59756, Note_off_c, 0, 88, 63
1, 59773, Note_on_c, 0, 89, 76
1, 59799, Note_off_c, 0, 89, 67
1, 59808, Note_on_c, 0, 65, 80
1, 59816, Note_on_c, 0, 57, 69
1, 59829, Note_on_c, 0, 61, 57
1, 59831, Note_off_c, 0, 65, 68
1, 59844, Note_off_c, 0, 57, 66
1, 59850, Note_off_c, 0, 61, 60
1, 59905, Note_on_c, 0, 100, 82
1, 59976, Note_off_c, 0, 100, 64
1, 60001, Note_on_c, 0, 65, 67
1, 60010, Note_on_c, 0, 58, 79
1, 60013, Note_on_c, 0, 101, 93
1, 60015, Control_c, 0, 64, 75
1, 60016, Note_on_c, 0, 62, 58
1, 60029, Control_c, 0, 64, 35
1, 60044, Control_c, 0, 64, 0
1, 60103, Control_c, 0, 64, 42
1, 60105, Note_on_c, 0, 98, 74
1, 60112, Note_on_c, 0, 94, 80
1, 60113, Note_off_c, 0, 101, 64
1, 60118, Control_c, 0, 64, 64
1, 60133, Control_c, 0, 64, 70
1, 60147, Control_c, 0, 64, 76
1, 60159, Note_off_c, 0, 98, 66
1, 60162, Control_c, 0, 64, 78
1, 60176, Note_off_c, 0, 94, 63
1, 60177, Control_c, 0, 64, 79
1, 60186, Note_on_c, 0, 89, 83
1, 60187, Note_off_c, 0, 65, 64
1, 60192, Control_c, 0, 64, 84
1, 60193, Note_off_c, 0, 62, 64
1, 60207, Control_c, 0, 64, 95
1, 60208, Note_off_c, 0, 89, 69
1, 60209, Note_off_c, 0, 58, 64
1, 60221, Control_c, 0, 64, 127
1, 60266, Note_on_c, 0, 86, 83
1, 60296, Note_on_c, 0, 82, 53
1, 60336, Note_off_c, 0, 86, 61
1, 60341, Note_off_c, 0, 82, 52
1, 60374, Note_on_c, 0, 77, 74
1, 60399, Note_off_c, 0, 77, 69
1, 60446, Note_on_c, 0, 46, 45
1, 60462, Note_on_c, 0, 74, 59
1, 60480, Note_on_c, 0, 70, 70
1, 60484, Note_on_c, 0, 53, 53
1, 60492, Note_off_c, 0, 74, 64
1, 60495, Note_off_c, 0, 46, 61
1, 60511, Note_off_c, 0, 70, 63
1, 60537, Note_off_c, 0, 53, 61
1, 60549, Note_on_c, 0, 65, 69
1, 60583, Note_off_c, 0, 65, 61
1, 60629, Control_c, 0, 64, 121
1, 60644, Control_c, 0, 64, 127
1, 60656, Note_on_c, 0, 62, 59
1, 60662, Note_on_c, 0, 82, 75
1, 60678, Note_off_c, 0, 62, 60
1, 60686, Note_off_c, 0, 82, 67
1, 60846, Note_on_c, 0, 81, 72
1, 60894, Note_off_c, 0, 81, 60
1, 60918, Poly_aftertouch_c, 0, 74, 127
1, 60940, Control_c, 0, 64, 111
1, 60942, Note_on_c, 0, 80, 74
1, 60955, Control_c, 0, 64, 85
1, 60962, Poly_aftertouch_c, 0, 74, 0
1, 60969, Control_c, 0, 64, 71
1, 60984, Control_c, 0, 64, 60
1, 60999, Control_c, 0, 64, 31
1, 61001, Note_off_c, 0, 80, 62
1, 61014, Control_c, 0, 64, 0
1, 61032, Note_on_c, 0, 86, 86
1, 61039, Note_on_c, 0, 82, 78
1, 61056, Note_on_c, 0, 79, 68
1, 61074, Note_off_c, 0, 86, 65
1, 61076, Note_off_c, 0, 82, 59
1, 61123, Note_off_c, 0, 79, 60
1, 61155, Note_on_c, 0, 78, 79
1, 61218, Note_off_c, 0, 78, 63
1, 61262, Note_on_c, 0, 81, 86
1, 61280, Note_on_c, 0, 87, 76
1, 61280, Note_off_c, 0, 81, 72
1, 61281, Note_on_c, 0, 77, 70
1, 61302, Note_off_c, 0, 87, 70
1, 61302, Control_c, 0, 64, 67
1, 61317, Control_c, 0, 64, 90
1, 61319, Note_on_c, 0, 69, 37
1, 61332, Control_c, 0, 64, 127
1, 61350, Note_off_c, 0, 69, 55
1, 61385, Note_on_c, 0, 68, 72
1, 61435, Note_off_c, 0, 77, 51
1, 61462, Note_off_c, 0, 68, 61
1, 61481, Note_on_c, 0, 67, 74
1, 61512, Note_off_c, 0, 67, 61
1, 61592, Note_on_c, 0, 68, 26
1, 61621, Note_off_c, 0, 68, 54
1, 61647, Note_on_c, 0, 65, 75
1, 61658, Control_c, 0, 64, 87
1, 61659, Note_on_c, 0, 57, 81
1, 61664, Note_on_c, 0, 46, 70
1, 61674, Control_c, 0, 64, 60
1, 61683, Note_on_c, 0, 53, 48
1, 61684, Note_off_c, 0, 57, 70
1, 61689, Control_c, 0, 64, 0
1, 61691, Note_off_c, 0, 65, 59
1, 61700, Note_off_c, 0, 46, 65
1, 61710, Note_off_c, 0, 53, 57
1, 61742, Note_on_c, 0, 64, 60
1, 61755, Note_on_c, 0, 57, 67
1, 61774, Note_on_c, 0, 46, 49
1, 61777, Note_off_c, 0, 64, 62
1, 61785, Note_on_c, 0, 53, 41
1, 61786, Note_off_c, 0, 57, 65
1, 61803, Note_off_c, 0, 46, 56
1, 61855, Note_off_c, 0, 53, 0
1, 61862, Note_on_c, 0, 57, 60
1, 61874, Note_on_c, 0, 53, 31
1, 61876, Note_on_c, 0, 46, 62
1, 61879, Note_on_c, 0, 63, 65
1, 61904, Control_c, 0, 64, 38
1, 61918, Control_c, 0, 64, 55
1, 61933, Control_c, 0, 64, 60
1, 61948, Control_c, 0, 64, 61
1, 61960, Note_on_c, 0, 75, 71
1, 61963, Control_c, 0, 64, 62
1, 61978, Control_c, 0, 64, 62
1, 61987, Note_off_c, 0, 46, 64
1, 61992, Control_c, 0, 64, 64
1, 61993, Note_off_c, 0, 53, 60
1, 61995, Note_off_c, 0, 57, 66
1, 61999, Note_off_c, 0, 63, 61
1, 62007, Control_c, 0, 64, 65
1, 62022, Control_c, 0, 64, 66
1, 62027, Note_off_c, 0, 75, 62
1, 62037, Control_c, 0, 64, 69
1, 62052, Control_c, 0, 64, 75
1, 62067, Control_c, 0, 64, 89
1, 62069, Note_on_c, 0, 74, 77
1, 62081, Control_c, 0, 64, 127
1, 62162, Note_on_c, 0, 73, 75
1, 62165, Note_off_c, 0, 74, 60
1, 62215, Control_c, 0, 64, 110
1, 62219, Note_off_c, 0, 73, 64
1, 62230, Control_c, 0, 64, 69
1, 62239, Note_on_c, 0, 81, 83
1, 62241, Note_on_c, 0, 75, 72
1, 62244, Control_c, 0, 64, 34
1, 62259, Control_c, 0, 64, 0
1, 62260, Note_off_c, 0, 81, 72
1, 62271, Note_off_c, 0, 75, 57
1, 62274, Note_on_c, 0, 72, 69
1, 62343, Note_off_c, 0, 72, 61
1, 62368, Note_on_c, 0, 71, 69
1, 62436, Note_off_c, 0, 71, 61
1, 62479, Note_on_c, 0, 74, 77
1, 62484, Note_on_c, 0, 82, 75
1, 62497, Control_c, 0, 64, 25
1, 62508, Note_on_c, 0, 70, 54
1, 62512, Control_c, 0, 64, 64
1, 62519, Note_off_c, 0, 82, 66
1, 62525, Note_off_c, 0, 74, 64
1, 62527, Control_c, 0, 64, 72
1, 62541, Control_c, 0, 64, 86
1, 62549, Note_off_c, 0, 70, 64
1, 62556, Control_c, 0, 64, 127
1, 62616, Note_on_c, 0, 63, 60
1, 62667, Note_off_c, 0, 63, 59
1, 62713, Note_on_c, 0, 62, 64
1, 62799, Note_on_c, 0, 61, 72
1, 62853, Note_off_c, 0, 61, 60
1, 62853, Note_off_c, 0, 62, 25
1, 62874, Control_c, 0, 64, 96
1, 62877, Note_on_c, 0, 53, 83
1, 62883, Note_on_c, 0, 46, 77
1, 62889, Control_c, 0, 64, 63
1, 62896, Note_on_c, 0, 62, 33
1, 62901, Note_on_c, 0, 60, 57
1, 62904, Note_off_c, 0, 53, 69
1, 62904, Control_c, 0, 64, 0
1, 62907, Note_on_c, 0, 65, 40
1, 62913, Note_off_c, 0, 46, 66
1, 62947, Note_off_c, 0, 60, 64
1, 62953, Note_off_c, 0, 62, 53
1, 62966, Note_off_c, 0, 65, 0
1, 62976, Note_on_c, 0, 59, 78
1, 62982, Note_on_c, 0, 53, 82
1, 62988, Note_on_c, 0, 46, 63
1, 63003, Poly_aftertouch_c, 0, 65, 127
1, 63008, Note_off_c, 0, 53, 69
1, 63014, Note_off_c, 0, 46, 63
1, 63014, Poly_aftertouch_c, 0, 65, 0
1, 63034, Note_off_c, 0, 59, 62
1, 63074, Note_on_c, 0, 58, 69
1, 63077, Note_on_c, 0, 53, 88
1, 63079, Note_on_c, 0, 46, 77
1, 63101, Note_off_c, 0, 58, 67
1, 63141, Control_c, 0, 64, 59
1, 63156, Control_c, 0, 64, 66
1, 63172, Control_c, 0, 64, 67
1, 63173, Note_on_c, 0, 70, 80
1, 63174, Note_on_c, 0, 58, 77
1, 63202, Control_c, 0, 64, 68
1, 63217, Control_c, 0, 64, 69
1, 63218, Note_off_c, 0, 58, 62
1, 63224, Note_off_c, 0, 70, 53
1, 63231, Control_c, 0, 64, 73
1, 63246, Control_c, 0, 64, 78
1, 63261, Control_c, 0, 64, 88
1, 63266, Note_on_c, 0, 69, 80
1, 63276, Control_c, 0, 64, 99
1, 63277, Note_on_c, 0, 57, 77
1, 63290, Control_c, 0, 64, 117
1, 63301, Note_off_c, 0, 57, 68
1, 63305, Control_c, 0, 64, 127
1, 63324, Note_off_c, 0, 69, 61
1, 63357, Note_off_c, 0, 46, 63
1, 63373, Note_on_c, 0, 68, 84
1, 63381, Note_on_c, 0, 56, 76
1, 63408, Note_off_c, 0, 68, 53
1, 63411, Note_off_c, 0, 56, 68
1, 63454, Note_on_c, 0, 50, 81
1, 63465, Note_off_c, 0, 53, 39
1, 63469, Note_on_c, 0, 45, 72
1, 63470, Note_on_c, 0, 67, 86
1, 63476, Control_c, 0, 64, 117
1, 63479, Note_on_c, 0, 55, 76
1, 63490, Control_c, 0, 64, 106
1, 63505, Note_off_c, 0, 55, 68
1, 63505, Control_c, 0, 64, 104
1, 63515, Note_off_c, 0, 67, 61
1, 63535, Control_c, 0, 64, 105
1, 63550, Control_c, 0, 64, 107
1, 63557, Note_on_c, 0, 66, 85
1, 63564, Control_c, 0, 64, 113
1, 63566, Note_off_c, 0, 50, 56
1, 63578, Note_on_c, 0, 54, 56
1, 63579, Control_c, 0, 64, 127
1, 63599, Note_off_c, 0, 66, 63
1, 63601, Note_on_c, 0, 48, 51
1, 63602, Note_off_c, 0, 54, 62
1, 63624, Control_c, 0, 64, 114
1, 63638, Control_c, 0, 64, 74
1, 63639, Note_off_c, 0, 48, 65
1, 63653, Control_c, 0, 64, 47
1, 63654, Note_off_c, 0, 45, 37
1, 63661, Note_on_c, 0, 65, 90
1, 63668, Control_c, 0, 64, 0
1, 63671, Note_on_c, 0, 53, 74
1, 63688, Note_on_c, 0, 55, 67
1, 63709, Note_off_c, 0, 55, 40
1, 63727, Control_c, 0, 64, 36
1, 63733, Note_on_c, 0, 46, 52
1, 63742, Control_c, 0, 64, 62
1, 63757, Control_c, 0, 64, 69
1, 63759, Note_on_c, 0, 44, 36
1, 63767, Note_off_c, 0, 46, 54
1, 63768, Note_on_c, 0, 54, 77
1, 63772, Control_c, 0, 64, 78
1, 63784, Note_off_c, 0, 53, 56
1, 63786, Control_c, 0, 64, 88
1, 63795, Note_off_c, 0, 44, 44
1, 63801, Control_c, 0, 64, 98
1, 63816, Control_c, 0, 64, 102
1, 63829, Note_on_c, 0, 43, 68
1, 63831, Control_c, 0, 64, 100
1, 63831, Note_off_c, 0, 54, 64
1, 63846, Control_c, 0, 64, 94
1, 63850, Note_off_c, 0, 65, 43
1, 63861, Control_c, 0, 64, 87
1, 63875, Note_on_c, 0, 55, 82
1, 63876, Control_c, 0, 64, 82
1, 63890, Control_c, 0, 64, 82
1, 63896, Note_on_c, 0, 65, 41
1, 63905, Control_c, 0, 64, 83
1, 63917, Note_off_c, 0, 43, 63
1, 63920, Control_c, 0, 64, 86
1, 63923, Note_on_c, 0, 42, 63
1, 63935, Control_c, 0, 64, 88
1, 63938, Note_off_c, 0, 65, 56
1, 63950, Control_c, 0, 64, 90
1, 63965, Note_on_c, 0, 56, 83
1, 63965, Control_c, 0, 64, 94
1, 63975, Note_off_c, 0, 55, 56
1, 63980, Control_c, 0, 64, 101
1, 63995, Control_c, 0, 64, 111
1, 64010, Control_c, 0, 64, 105
1, 64018, Note_off_c, 0, 56, 63
1, 64022, Note_off_c, 0, 42, 60
1, 64025, Control_c, 0, 64, 89
1, 64030, Note_on_c, 0, 41, 57
1, 64034, Note_on_c, 0, 40, 57
1, 64040, Control_c, 0, 64, 77
1, 64053, Note_on_c, 0, 57, 91
1, 64055, Note_on_c, 0, 63, 85
1, 64055, Note_on_c, 0, 65, 78
1, 64055, Control_c, 0, 64, 72
1, 64060, Note_off_c, 0, 41, 65
1, 64070, Note_off_c, 0, 40, 55
1, 64076, Control_c, 0, 64, 74
1, 64091, Control_c, 0, 64, 80
1, 64106, Control_c, 0, 64, 98
1, 64120, Control_c, 0, 64, 127
1, 64169, Note_on_c, 0, 58, 82
1, 64172, Note_off_c, 0, 57, 66
1, 64189, Note_off_c, 0, 63, 60
1, 64193, Note_off_c, 0, 65, 60
1, 64216, Note_off_c, 0, 58, 61
1, 64240, Control_c, 0, 64, 77
1, 64240, Note_on_c, 0, 53, 76
1, 64249, Note_on_c, 0, 65, 77
1, 64254, Control_c, 0, 64, 52
1, 64263, Note_on_c, 0, 59, 77
1, 64264, Note_on_c, 0, 57, 57
1, 64269, Control_c, 0, 64, 0
1, 64271, Note_on_c, 0, 60, 75
1, 64293, Note_off_c, 0, 59, 67
1, 64296, Note_off_c, 0, 60, 69
1, 64328, Control_c, 0, 64, 42
1, 64332, Note_off_c, 0, 57, 57
1, 64343, Control_c, 0, 64, 61
1, 64354, Note_on_c, 0, 60, 89
1, 64358, Control_c, 0, 64, 67
1, 64366, Note_off_c, 0, 65, 53
1, 64373, Control_c, 0, 64, 76
1, 64387, Control_c, 0, 64, 87
1, 64402, Control_c, 0, 64, 106
1, 64407, Note_on_c, 0, 58, 76
1, 64417, Control_c, 0, 64, 127
1, 64431, Note_on_c, 0, 61, 83
1, 64442, Note_off_c, 0, 60, 64
1, 64478, Note_off_c, 0, 61, 65
1, 64515, Note_on_c, 0, 67, 97
1, 64551, Note_off_c, 0, 58, 60
1, 64561, Note_off_c, 0, 67, 65
1, 64565, Control_c, 0, 64, 77
1, 64573, Note_on_c, 0, 60, 66
1, 64580, Control_c, 0, 64, 67
1, 64594, Control_c, 0, 64, 69
1, 64600, Note_off_c, 0, 60, 69
1, 64605, Note_on_c, 0, 65, 94
1, 64609, Control_c, 0, 64, 79
1, 64624, Control_c, 0, 64, 127
1, 64627, Note_on_c, 0, 63, 68
1, 64638, Note_on_c, 0, 57, 78
1, 64654, Note_off_c, 0, 53, 63
1, 64664, Note_off_c, 0, 57, 67
1, 64718, Note_off_c, 0, 63, 60
1, 64720, Note_off_c, 0, 65, 62
1, 64722, Note_on_c, 0, 60, 65
1, 64743, Note_off_c, 0, 60, 72
1, 64854, Control_c, 0, 64, 82
1, 64859, Note_on_c, 0, 65, 105
1, 64869, Control_c, 0, 64, 50
1, 64874, Note_on_c, 0, 58, 73
1, 64884, Control_c, 0, 64, 0
1, 64898, Note_off_c, 0, 58, 65
1, 64958, Control_c, 0, 64, 57
1, 64964, Note_on_c, 0, 58, 81
1, 64973, Control_c, 0, 64, 65
1, 64985, Note_on_c, 0, 53, 60
1, 64988, Control_c, 0, 64, 68
1, 65003, Control_c, 0, 64, 69
1, 65017, Control_c, 0, 64, 71
1, 65021, Note_off_c, 0, 58, 64
1, 65032, Control_c, 0, 64, 73
1, 65047, Control_c, 0, 64, 77
1, 65061, Control_c, 0, 64, 86
1, 65076, Control_c, 0, 64, 111
1, 65077, Note_on_c, 0, 46, 68
1, 65090, Note_off_c, 0, 65, 55
1, 65091, Control_c, 0, 64, 127
1, 65106, Note_off_c, 0, 53, 63
1, 65120, Note_on_c, 0, 58, 78
1, 65146, Note_off_c, 0, 58, 65
1, 65175, Note_off_c, 0, 46, 63
1, 65186, Note_on_c, 0, 62, 70
1, 65203, Note_on_c, 0, 59, 3
1, 65214, Note_off_c, 0, 62, 66
1, 65241, Note_off_c, 0, 59, 37
1, 65283, Note_on_c, 0, 65, 71
1, 65353, Note_off_c, 0, 65, 60
1, 65357, Note_on_c, 0, 70, 64
1, 65372, Control_c, 0, 64, 101
1, 65378, Note_on_c, 0, 62, 100
1, 65387, Control_c, 0, 64, 63
1, 65389, Note_off_c, 0, 70, 68
1, 65398, Note_on_c, 0, 74, 65
1, 65402, Control_c, 0, 64, 0
1, 65426, Note_off_c, 0, 74, 66
1, 65462, Control_c, 0, 64, 22
1, 65477, Control_c, 0, 64, 62
1, 65492, Control_c, 0, 64, 74
1, 65499, Note_on_c, 0, 77, 81
1, 65506, Control_c, 0, 64, 91
1, 65521, Control_c, 0, 64, 127
1, 65574, Note_on_c, 0, 82, 73
1, 65584, Note_off_c, 0, 77, 62
1, 65613, Note_on_c, 0, 86, 64
1, 65616, Note_off_c, 0, 62, 59
1, 65620, Note_off_c, 0, 82, 64
1, 65643, Note_off_c, 0, 86, 67
1, 65646, Note_on_c, 0, 53, 40
1, 65658, Note_on_c, 0, 58, 64
1, 65693, Note_off_c, 0, 53, 63
1, 65694, Note_off_c, 0, 58, 66
1, 65719, Note_on_c, 0, 62, 77
1, 65721, Note_on_c, 0, 89, 90
1, 65743, Note_off_c, 0, 62, 66
1, 65766, Note_on_c, 0, 98, 58
1, 65772, Note_on_c, 0, 94, 71
1, 65776, Note_on_c, 0, 100, 50
1, 65780, Note_off_c, 0, 89, 64
1, 65793, Note_off_c, 0, 98, 69
1, 65802, Note_off_c, 0, 94, 67
1, 65802, Note_off_c, 0, 100, 36
1, 65871, Note_on_c, 0, 46, 45
1, 65891, Note_on_c, 0, 55, 65
1, 65903, Note_off_c, 0, 46, 64
1, 65930, Note_off_c, 0, 55, 66
1, 65949, Note_on_c, 0, 98, 67
1, 65976, Note_on_c, 0, 101, 85
1, 65977, Note_on_c, 0, 65, 87
1, 66007, Note_on_c, 0, 91, 76
1, 66008, Note_off_c, 0, 65, 62
1, 66009, Note_off_c, 0, 98, 67
1, 66028, Note_off_c, 0, 101, 65
1, 66075, Note_off_c, 0, 91, 65
1, 66177, Note_on_c, 0, 98, 67
1, 66179, Note_on_c, 0, 62, 96
1, 66181, Control_c, 0, 64, 79
1, 66184, Note_on_c, 0, 94, 45
1, 66196, Control_c, 0, 64, 60
1, 66210, Note_off_c, 0, 94, 54
1, 66211, Control_c, 0, 64, 51
1, 66214, Note_on_c, 0, 88, 67
1, 66226, Control_c, 0, 64, 58
1, 66240, Control_c, 0, 64, 64
1, 66251, Note_off_c, 0, 98, 62
1, 66255, Note_off_c, 0, 88, 64
1, 66255, Control_c, 0, 64, 74
1, 66270, Control_c, 0, 64, 105
1, 66284, Control_c, 0, 64, 127
1, 66369, Note_on_c, 0, 94, 79
1, 66385, Note_on_c, 0, 55, 87
1, 66385, Note_on_c, 0, 58, 93
1, 66392, Note_on_c, 0, 86, 81
1, 66393, Note_off_c, 0, 62, 61
1, 66413, Note_off_c, 0, 94, 62
1, 66425, Note_off_c, 0, 58, 66
1, 66427, Note_off_c, 0, 55, 65
1, 66442, Note_off_c, 0, 86, 63
1, 66574, Note_on_c, 0, 48, 72
1, 66575, Control_c, 0, 64, 85
1, 66589, Note_on_c, 0, 94, 69
1, 66589, Control_c, 0, 64, 53
1, 66594, Note_on_c, 0, 98, 79
1, 66603, Note_on_c, 0, 55, 53
1, 66604, Control_c, 0, 64, 0
1, 66609, Note_on_c, 0, 62, 97
1, 66630, Note_on_c, 0, 88, 77
1, 66634, Note_off_c, 0, 94, 59
1, 66649, Control_c, 0, 64, 58
1, 66663, Control_c, 0, 64, 73
1, 66664, Note_off_c, 0, 98, 62
1, 66666, Note_off_c, 0, 62, 65
1, 66678, Control_c, 0, 64, 127
1, 66684, Note_off_c, 0, 88, 64
1, 66715, Note_off_c, 0, 48, 64
1, 66782, Note_on_c, 0, 88, 36
1, 66792, Note_on_c, 0, 58, 98
1, 66792, Note_on_c, 0, 94, 86
1, 66808, Note_off_c, 0, 88, 57
1, 66809, Note_on_c, 0, 86, 83
1, 66820, Note_off_c, 0, 94, 65
1, 66829, Note_off_c, 0, 55, 62
1, 66842, Note_off_c, 0, 86, 62
1, 66866, Note_off_c, 0, 58, 55
1, 66953, Note_on_c, 0, 88, 26
1, 66989, Note_on_c, 0, 52, 87
1, 66993, Note_on_c, 0, 55, 83
1, 67012, Note_on_c, 0, 91, 76
1, 67012, Note_off_c, 0, 52, 72
1, 67017, Note_off_c, 0, 55, 66
1, 67020, Note_on_c, 0, 82, 91
1, 67024, Note_off_c, 0, 88, 51
1, 67036, Note_off_c, 0, 91, 68
1, 67074, Note_off_c, 0, 82, 64
1, 67206, Control_c, 0, 64, 67
1, 67220, Control_c, 0, 64, 0
1, 67223, Note_on_c, 0, 53, 99
1, 67235, Note_on_c, 0, 77, 100
1, 67237, Note_on_c, 0, 81, 90
1, 67238, Note_on_c, 0, 84, 89
1, 67239, Note_on_c, 0, 89, 86
1, 67240, Note_on_c, 0, 41, 57
1, 67240, Note_on_c, 0, 48, 53
1, 67261, Note_off_c, 0, 53, 67
1, 67265, Note_on_c, 0, 86, 45
1, 67267, Note_off_c, 0, 41, 56
1, 67267, Note_off_c, 0, 48, 58
1, 67278, Note_off_c, 0, 77, 66
1, 67280, Note_off_c, 0, 81, 65
1, 67280, Control_c, 0, 64, 66
1, 67286, Note_off_c, 0, 89, 61
1, 67289, Note_off_c, 0, 86, 36
1, 67294, Control_c, 0, 64, 118
1, 67306, Note_off_c, 0, 84, 55
1, 67309, Control_c, 0, 64, 127
1, 67340, Note_on_c, 0, 84, 66
1, 67340, Note_on_c, 0, 89, 81
1, 67344, Note_on_c, 0, 77, 99
1, 67348, Note_on_c, 0, 81, 81
1, 67367, Note_on_c, 0, 86, 55
1, 67387, Note_off_c, 0, 86, 62
1, 67391, Note_off_c, 0, 89, 64
1, 67397, Note_off_c, 0, 84, 65
1, 67399, Note_off_c, 0, 77, 65
1, 67400, Note_off_c, 0, 81, 65
1, 67448, Note_on_c, 0, 72, 97
1, 67482, Note_off_c, 0, 72, 67
1, 67533, Note_on_c, 0, 72, 97
1, 67564, Note_off_c, 0, 72, 69
1, 67640, Note_on_c, 0, 69, 99
1, 67644, Note_on_c, 0, 72, 84
1, 67650, Note_on_c, 0, 81, 70
1, 67655, Note_on_c, 0, 77, 68
1, 67663, Note_off_c, 0, 72, 70
1, 67667, Note_off_c, 0, 81, 64
1, 67675, Note_off_c, 0, 77, 64
1, 67675, Note_off_c, 0, 69, 68
1, 67730, Note_on_c, 0, 81, 83
1, 67745, Note_on_c, 0, 69, 100
1, 67748, Note_on_c, 0, 72, 83
1, 67750, Note_on_c, 0, 77, 74
1, 67781, Note_off_c, 0, 77, 64
1, 67793, Note_off_c, 0, 72, 65
1, 67795, Note_off_c, 0, 81, 65
1, 67802, Note_off_c, 0, 69, 67
1, 67830, Note_on_c, 0, 65, 95
1, 67846, Note_on_c, 0, 57, 67
1, 67853, Note_on_c, 0, 60, 57
1, 67867, Note_off_c, 0, 65, 69
1, 67869, Note_on_c, 0, 61, 45
1, 67873, Note_off_c, 0, 57, 67
1, 67882, Note_off_c, 0, 60, 66
1, 67898, Note_off_c, 0, 61, 54
1, 67917, Poly_aftertouch_c, 0, 53, 127
1, 67918, Note_on_c, 0, 65, 94
1, 67932, Note_on_c, 0, 57, 65
1, 67947, Note_on_c, 0, 60, 59
1, 67949, Note_off_c, 0, 65, 68
1, 67966, Note_off_c, 0, 57, 64
1, 67966, Note_off_c, 0, 60, 64
1, 67990, Poly_aftertouch_c, 0, 53, 0
1, 68025, Note_on_c, 0, 60, 94
1, 68030, Note_on_c, 0, 64, 82
1, 68049, Note_on_c, 0, 72, 44
1, 68052, Note_on_c, 0, 71, 49
1, 68053, Note_off_c, 0, 64, 69
1, 68065, Note_off_c, 0, 60, 66
1, 68071, Note_off_c, 0, 72, 60
1, 68073, Note_off_c, 0, 71, 59
1, 68115, Note_on_c, 0, 60, 86
1, 68115, Note_on_c, 0, 72, 83
1, 68118, Note_on_c, 0, 69, 64
1, 68122, Note_on_c, 0, 65, 79
1, 68172, Note_off_c, 0, 72, 64
1, 68183, Note_off_c, 0, 69, 64
1, 68184, Note_off_c, 0, 60, 67
1, 68192, Note_off_c, 0, 65, 63
1, 68195, Note_on_c, 0, 57, 89
1, 68208, Note_on_c, 0, 48, 66
1, 68211, Note_on_c, 0, 55, 57
1, 68221, Note_on_c, 0, 52, 52
1, 68221, Note_on_c, 0, 53, 47
1, 68225, Note_off_c, 0, 57, 66
1, 68231, Note_on_c, 0, 45, 40
1, 68233, Note_off_c, 0, 55, 62
1, 68239, Note_off_c, 0, 48, 65
1, 68245, Note_off_c, 0, 52, 59
1, 68252, Note_off_c, 0, 53, 53
1, 68274, Note_off_c, 0, 45, 0
1, 68282, Note_on_c, 0, 57, 95
1, 68286, Note_on_c, 0, 45, 60
1, 68288, Note_on_c, 0, 54, 70
1, 68306, Note_on_c, 0, 53, 74
1, 68306, Note_off_c, 0, 57, 68
1, 68310, Note_on_c, 0, 48, 45
1, 68310, Note_off_c, 0, 54, 66
1, 68323, Note_on_c, 0, 50, 41
1, 68331, Note_off_c, 0, 53, 66
1, 68343, Note_off_c, 0, 45, 63
1, 68345, Note_off_c, 0, 48, 53
1, 68353, Note_off_c, 0, 50, 54
1, 68389, Note_on_c, 0, 53, 102
1, 68393, Note_on_c, 0, 57, 85
1, 68399, Note_on_c, 0, 60, 72
1, 68404, Note_on_c, 0, 65, 74
1, 68414, Control_c, 0, 64, 74
1, 68419, Note_off_c, 0, 57, 67
1, 68422, Note_off_c, 0, 53, 62
1, 68425, Note_off_c, 0, 60, 68
1, 68426, Note_off_c, 0, 65, 63
1, 68428, Control_c, 0, 64, 58
1, 68443, Control_c, 0, 64, 56
1, 68458, Control_c, 0, 64, 63
1, 68468, Note_on_c, 0, 65, 83
1, 68473, Control_c, 0, 64, 74
1, 68476, Note_on_c, 0, 53, 91
1, 68476, Note_on_c, 0, 57, 85
1, 68481, Note_on_c, 0, 60, 86
1, 68487, Control_c, 0, 64, 127
1, 68529, Note_off_c, 0, 65, 64
1, 68542, Note_off_c, 0, 53, 66
1, 68543, Note_off_c, 0, 60, 64
1, 68548, Note_off_c, 0, 57, 65
1, 68586, Note_on_c, 0, 48, 97
1, 68596, Note_on_c, 0, 36, 68
1, 68622, Note_off_c, 0, 48, 65
1, 68625, Note_off_c, 0, 36, 64
1, 68660, Note_on_c, 0, 48, 90
1, 68678, Note_on_c, 0, 36, 78
1, 68693, Note_off_c, 0, 48, 65
1, 68705, Note_off_c, 0, 36, 66
1, 68765, Note_on_c, 0, 45, 94
1, 68770, Note_on_c, 0, 57, 79
1, 68771, Note_on_c, 0, 48, 81
1, 68784, Note_on_c, 0, 53, 56
1, 68791, Note_off_c, 0, 45, 66
1, 68792, Note_off_c, 0, 48, 70
1, 68793, Note_off_c, 0, 57, 68
1, 68800, Note_off_c, 0, 53, 70
1, 68845, Note_on_c, 0, 57, 90
1, 68849, Note_on_c, 0, 45, 87
1, 68851, Note_on_c, 0, 48, 75
1, 68869, Note_on_c, 0, 53, 56
1, 68921, Note_off_c, 0, 53, 52
1, 68943, Note_off_c, 0, 45, 65
1, 68955, Note_off_c, 0, 48, 64
1, 68958, Note_on_c, 0, 41, 103
1, 68962, Note_on_c, 0, 29, 87
1, 68962, Note_on_c, 0, 36, 86
1, 68970, Control_c, 0, 64, 64
1, 68977, Note_on_c, 0, 33, 74
1, 68983, Note_off_c, 0, 57, 66
1, 68985, Control_c, 0, 64, 0
1, 69045, Control_c, 0, 64, 62
1, 69059, Control_c, 0, 64, 84
1, 69074, Control_c, 0, 64, 127
1, 69113, Note_off_c, 0, 33, 61
1, 69122, Note_off_c, 0, 29, 62
1, 69150, Note_off_c, 0, 36, 62
1, 69164, Note_off_c, 0, 41, 65
1, 69215, Note_on_c, 0, 57, 90
1, 69216, Note_on_c, 0, 65, 91
1, 69217, Note_on_c, 0, 53, 88
1, 69218, Note_on_c, 0, 60, 91
1, 69239, Note_off_c, 0, 53, 72
1, 69259, Note_off_c, 0, 60, 69
1, 69259, Note_off_c, 0, 57, 67
1, 69275, Note_off_c, 0, 65, 64
1, 69336, Poly_aftertouch_c, 0, 62, 0
1, 69381, Note_on_c, 0, 53, 94
1, 69386, Note_on_c, 0, 48, 70
1, 69388, Note_on_c, 0, 41, 68
1, 69410, Note_off_c, 0, 48, 66
1, 69414, Note_off_c, 0, 41, 64
1, 69415, Note_off_c, 0, 53, 65
1, 69519, Note_on_c, 0, 69, 96
1, 69520, Note_on_c, 0, 65, 86
1, 69523, Note_on_c, 0, 72, 90
1, 69523, Note_on_c, 0, 77, 94
1, 69542, Note_off_c, 0, 65, 68
1, 69560, Note_off_c, 0, 69, 68
1, 69565, Note_off_c, 0, 72, 66
1, 69579, Note_off_c, 0, 77, 66
1, 69650, Note_on_c, 0, 60, 82
1, 69650, Note_on_c, 0, 65, 98
1, 69652, Note_on_c, 0, 53, 77
1, 69678, Note_off_c, 0, 53, 66
1, 69682, Note_off_c, 0, 65, 64
1, 69686, Note_off_c, 0, 60, 66
1, 69748, Poly_aftertouch_c, 0, 57, 0
1, 69802, Note_on_c, 0, 81, 102
1, 69802, Note_on_c, 0, 89, 96
1, 69802, Note_on_c, 0, 77, 97
1, 69805, Note_on_c, 0, 84, 97
1, 69820, Note_off_c, 0, 77, 72
1, 69837, Note_off_c, 0, 81, 71
1, 69837, Note_off_c, 0, 84, 71
1, 69838, Note_off_c, 0, 89, 67
1, 69954, Note_on_c, 0, 77, 101
1, 69955, Note_on_c, 0, 65, 85
1, 69955, Note_on_c, 0, 72, 86
1, 69960, Note_on_c, 0, 69, 80
1, 70186, Control_c, 0, 64, 121
1, 70201, Control_c, 0, 64, 61
1, 70206, Note_on_c, 0, 93, 93
1, 70207, Note_on_c, 0, 96, 102
1, 70209, Note_on_c, 0, 89, 93
1, 70209, Note_on_c, 0, 101, 104
1, 70216, Control_c, 0, 64, 0
1, 70276, Control_c, 0, 64, 63
1, 70290, Control_c, 0, 64, 95
1, 70291, Note_off_c, 0, 77, 65
1, 70305, Control_c, 0, 64, 127
1, 70362, Note_off_c, 0, 72, 63
1, 70374, Note_off_c, 0, 69, 63
1, 70387, Note_off_c, 0, 65, 60
1, 70420, Note_off_c, 0, 101, 65
1, 70430, Note_off_c, 0, 89, 64
1, 70449, Note_off_c, 0, 96, 66
1, 70452, Note_off_c, 0, 93, 67
1, 70770, Note_on_c, 0, 77, 98
1, 70774, Note_on_c, 0, 89, 95
1, 70774, Note_on_c, 0, 53, 73
1, 70779, Note_on_c, 0, 65, 76
1, 70797, Note_off_c, 0, 89, 65
1, 70812, Note_off_c, 0, 65, 65
1, 70812, Note_off_c, 0, 77, 64
1, 70823, Note_off_c, 0, 53, 63
1, 70861, Note_on_c, 0, 77, 92
1, 70863, Note_on_c, 0, 89, 89
1, 70873, Note_on_c, 0, 53, 73
1, 70873, Note_on_c, 0, 65, 79
1, 70901, Note_off_c, 0, 89, 64
1, 70902, Note_off_c, 0, 77, 67
1, 70905, Note_off_c, 0, 53, 65
1, 70906, Note_off_c, 0, 65, 62
1, 70950, Control_c, 0, 64, 83
1, 70956, Note_on_c, 0, 89, 98
1, 70959, Note_on_c, 0, 53, 79
1, 70959, Note_on_c, 0, 77, 105
1, 70962, Note_on_c, 0, 65, 85
1, 70964, Control_c, 0, 64, 62
1, 70979, Control_c, 0, 64, 45
1, 70994, Control_c, 0, 64, 51
1, 71009, Control_c, 0, 64, 59
1, 71024, Control_c, 0, 64, 67
1, 71039, Control_c, 0, 64, 78
1, 71054, Control_c, 0, 64, 112
1, 71055, Note_off_c, 0, 65, 63
1, 71069, Control_c, 0, 64, 127
1, 71122, Note_off_c, 0, 53, 64
1, 71127, Note_off_c, 0, 89, 66
1, 71134, Note_off_c, 0, 77, 65
1, 71481, Note_on_c, 0, 77, 91
1, 71486, Note_on_c, 0, 65, 92
1, 71492, Note_on_c, 0, 41, 73
1, 71493, Note_on_c, 0, 53, 75
1, 71515, Note_off_c, 0, 65, 62
1, 71517, Note_off_c, 0, 77, 62
1, 71520, Note_off_c, 0, 53, 66
1, 71529, Note_off_c, 0, 41, 66
1, 71569, Note_on_c, 0, 77, 80
1, 71573, Note_on_c, 0, 65, 85
1, 71589, Note_on_c, 0, 53, 82
1, 71596, Note_on_c, 0, 41, 66
1, 71607, Note_off_c, 0, 77, 66
1, 71612, Note_off_c, 0, 65, 66
1, 71623, Control_c, 0, 64, 98
1, 71624, Note_off_c, 0, 53, 60
1, 71630, Note_off_c, 0, 41, 63
1, 71638, Control_c, 0, 64, 62
1, 71653, Control_c, 0, 64, 0
1, 71666, Note_on_c, 0, 77, 97
1, 71672, Note_on_c, 0, 65, 97
1, 71676, Note_on_c, 0, 53, 78
1, 71678, Note_on_c, 0, 41, 79
1, 71683, Control_c, 0, 64, 9
1, 71698, Control_c, 0, 64, 56
1, 71712, Control_c, 0, 64, 70
1, 71727, Control_c, 0, 64, 117
1, 71742, Control_c, 0, 64, 127
1, 71743, Note_off_c, 0, 53, 64
1, 71763, Note_off_c, 0, 77, 66
1, 71766, Note_off_c, 0, 65, 66
1, 71791, Note_off_c, 0, 41, 64
1, 72079, Note_on_c, 0, 53, 87
1, 72080, Note_on_c, 0, 65, 76
1, 72095, Note_on_c, 0, 41, 60
1, 72098, Note_on_c, 0, 29, 58
1, 72103, Note_off_c, 0, 53, 68
1, 72103, Note_off_c, 0, 65, 69
1, 72126, Note_off_c, 0, 41, 64
1, 72133, Note_off_c, 0, 29, 62
1, 72157, Note_on_c, 0, 65, 77
1, 72158, Note_on_c, 0, 53, 81
1, 72178, Note_off_c, 0, 65, 68
1, 72185, Note_off_c, 0, 53, 62
1, 72248, Note_on_c, 0, 65, 85
1, 72252, Note_on_c, 0, 53, 90
1, 72253, Note_on_c, 0, 41, 39
1, 72256, Note_on_c, 0, 29, 58
1, 72276, Control_c, 0, 64, 94
1, 72291, Control_c, 0, 64, 56
1, 72313, Control_c, 0, 64, 0
1, 72387, Control_c, 0, 64, 61
1, 72397, Note_off_c, 0, 53, 65
1, 72398, Note_off_c, 0, 65, 63
1, 72401, Control_c, 0, 64, 71
1, 72416, Control_c, 0, 64, 87
1, 72431, Control_c, 0, 64, 127
1, 72494, Note_on_c, 0, 65, 86
1, 72500, Note_on_c, 0, 53, 79
1, 72598, Note_off_c, 0, 41, 56
1, 72628, Note_off_c, 0, 53, 60
1, 72638, Note_off_c, 0, 65, 61
1, 72643, Note_off_c, 0, 29, 51
1, 72727, Control_c, 0, 64, 82
1, 72729, Note_on_c, 0, 65, 72
1, 72742, Control_c, 0, 64, 58
1, 72743, Note_on_c, 0, 53, 60
1, 72758, Control_c, 0, 64, 0
1, 72803, Control_c, 0, 64, 37
1, 72818, Control_c, 0, 64, 61
1, 72832, Control_c, 0, 64, 69
1, 72847, Control_c, 0, 64, 85
1, 72862, Control_c, 0, 64, 127
1, 72863, Note_off_c, 0, 53, 58
1, 72883, Note_off_c, 0, 65, 58
1, 72951, Control_c, 0, 64, 101
1, 72966, Control_c, 0, 64, 70
1, 72981, Control_c, 0, 64, 54
1, 72982, Note_on_c, 0, 65, 54
1, 72995, Note_on_c, 0, 53, 50
1, 72996, Control_c, 0, 64, 47
1, 73011, Control_c, 0, 64, 55
1, 73025, Control_c, 0, 64, 64
1, 73040, Control_c, 0, 64, 73
1, 73063, Control_c, 0, 64, 91
1, 73078, Control_c, 0, 64, 127
1, 73115, Note_off_c, 0, 65, 55
1, 73116, Note_off_c, 0, 53, 52
1, 73255, Control_c, 0, 64, 87
1, 73260, Note_on_c, 0, 65, 55
1, 73270, Control_c, 0, 64, 67
1, 73285, Control_c, 0, 64, 59
1, 73296, Note_on_c, 0, 53, 23
1, 73299, Control_c, 0, 64, 60
1, 73314, Control_c, 0, 64, 66
1, 73329, Control_c, 0, 64, 74
1, 73344, Control_c, 0, 64, 92
1, 73358, Control_c, 0, 64, 127
1, 73388, Note_off_c, 0, 65, 55
1, 73437, Note_off_c, 0, 53, 36
1, 73597, Control_c, 0, 64, 89
1, 73612, Control_c, 0, 64, 67
1, 73626, Control_c, 0, 64, 51
1, 73641, Control_c, 0, 64, 42
1, 73647, Note_on_c, 0, 53, 28
1, 73647, Note_on_c, 0, 65, 37
1, 73656, Control_c, 0, 64, 51
1, 73671, Control_c, 0, 64, 62
1, 73686, Control_c, 0, 64, 71
1, 73701, Control_c, 0, 64, 83
1, 73716, Control_c, 0, 64, 107
1, 73725, Note_off_c, 0, 53, 59
1, 73730, Control_c, 0, 64, 127
1, 73851, Note_off_c, 0, 65, 51
1, 74264, Note_on_c, 0, 65, 48
1, 74270, Control_c, 0, 64, 83
1, 74285, Control_c, 0, 64, 64
1, 74300, Control_c, 0, 64, 43
1, 74303, Note_on_c, 0, 56, 36
1, 74315, Control_c, 0, 64, 32
1, 74330, Control_c, 0, 64, 40
1, 74345, Control_c, 0, 64, 57
1, 74360, Control_c, 0, 64, 65
1, 74375, Control_c, 0, 64, 71
1, 74378, Note_off_c, 0, 65, 60
1, 74390, Control_c, 0, 64, 79
1, 74402, Note_on_c, 0, 59, 22
1, 74404, Control_c, 0, 64, 88
1, 74419, Control_c, 0, 64, 95
1, 74434, Control_c, 0, 64, 100
1, 74436, Note_on_c, 0, 65, 28
1, 74449, Control_c, 0, 64, 103
1, 74464, Control_c, 0, 64, 106
1, 74477, Note_off_c, 0, 65, 60
1, 74479, Control_c, 0, 64, 111
1, 74494, Control_c, 0, 64, 127
1, 74497, Note_off_c, 0, 56, 39
1, 74499, Note_on_c, 0, 68, 54
1, 74554, Note_off_c, 0, 68, 61
1, 74582, Note_on_c, 0, 73, 43
1, 74609, Note_off_c, 0, 73, 50
1, 74610, Note_on_c, 0, 49, 42
1, 74619, Note_off_c, 0, 59, 33
1, 74666, Note_off_c, 0, 49, 57
1, 74673, Note_on_c, 0, 77, 39
1, 74703, Note_off_c, 0, 77, 51
1, 74724, Note_on_c, 0, 80, 56
1, 74747, Note_on_c, 0, 87, 52
1, 74808, Note_off_c, 0, 80, 62
1, 74818, Note_off_c, 0, 87, 64
1, 74822, Note_on_c, 0, 85, 60
1, 74841, Note_on_c, 0, 65, 67
1, 74849, Note_on_c, 0, 56, 47
1, 74851, Note_off_c, 0, 85, 66
1, 74864, Note_on_c, 0, 59, 50
1, 74894, Note_off_c, 0, 65, 59
1, 74899, Note_off_c, 0, 56, 60
1, 74914, Note_off_c, 0, 59, 55
1, 75059, Note_on_c, 0, 65, 73
1, 75070, Note_on_c, 0, 56, 64
1, 75082, Note_on_c, 0, 59, 58
1, 75157, Note_off_c, 0, 56, 59
1, 75178, Note_off_c, 0, 65, 58
1, 75185, Note_on_c, 0, 68, 60
1, 75226, Note_off_c, 0, 68, 61
1, 75242, Note_on_c, 0, 73, 55
1, 75263, Note_off_c, 0, 73, 63
1, 75270, Note_on_c, 0, 49, 63
1, 75348, Note_on_c, 0, 77, 54
1, 75351, Note_on_c, 0, 63, 77
1, 75368, Note_off_c, 0, 77, 62
1, 75369, Note_on_c, 0, 51, 24
1, 75378, Note_off_c, 0, 49, 63
1, 75381, Note_off_c, 0, 63, 65
1, 75393, Note_on_c, 0, 87, 67
1, 75413, Note_off_c, 0, 51, 53
1, 75439, Note_off_c, 0, 59, 0
1, 75459, Note_on_c, 0, 59, 39
1, 75460, Note_on_c, 0, 65, 82
1, 75463, Note_on_c, 0, 56, 69
1, 75497, Note_on_c, 0, 85, 68
1, 75500, Note_off_c, 0, 87, 63
1, 75510, Note_off_c, 0, 56, 59
1, 75516, Note_off_c, 0, 59, 64
1, 75519, Note_off_c, 0, 65, 61
1, 75524, Note_off_c, 0, 85, 69
1, 75767, Control_c, 0, 64, 94
1, 75768, Note_on_c, 0, 68, 74
1, 75770, Note_on_c, 0, 58, 70
1, 75774, Note_on_c, 0, 61, 63
1, 75782, Control_c, 0, 64, 66
1, 75797, Control_c, 0, 64, 34
1, 75812, Control_c, 0, 64, 0
1, 75826, Control_c, 0, 64, 27
1, 75841, Control_c, 0, 64, 57
1, 75856, Control_c, 0, 64, 69
1, 75871, Control_c, 0, 64, 89
1, 75879, Note_off_c, 0, 58, 64
1, 75884, Note_off_c, 0, 68, 0
1, 75886, Note_off_c, 0, 61, 62
1, 75886, Control_c, 0, 64, 127
1, 75898, Note_on_c, 0, 68, 40
1, 75967, Note_off_c, 0, 68, 59
1, 76023, Note_on_c, 0, 73, 55
1, 76026, Note_on_c, 0, 49, 64
1, 76051, Note_off_c, 0, 73, 60
1, 76068, Note_off_c, 0, 49, 65
1, 76118, Note_on_c, 0, 78, 63
1, 76150, Note_off_c, 0, 78, 61
1, 76190, Note_on_c, 0, 82, 39
1, 76202, Note_on_c, 0, 87, 55
1, 76250, Note_off_c, 0, 82, 60
1, 76262, Note_on_c, 0, 85, 72
1, 76268, Note_off_c, 0, 87, 64
1, 76271, Note_on_c, 0, 66, 74
1, 76280, Note_on_c, 0, 61, 63
1, 76282, Note_on_c, 0, 58, 62
1, 76290, Note_off_c, 0, 85, 68
1, 76315, Note_off_c, 0, 58, 65
1, 76324, Note_off_c, 0, 66, 61
1, 76326, Note_off_c, 0, 61, 57
1, 76485, Note_on_c, 0, 66, 75
1, 76494, Note_on_c, 0, 61, 71
1, 76495, Note_on_c, 0, 58, 64
1, 76509, Note_off_c, 0, 66, 69
1, 76522, Note_off_c, 0, 61, 67
1, 76524, Note_off_c, 0, 58, 65
1, 76587, Note_on_c, 0, 66, 67
1, 76648, Note_off_c, 0, 66, 60
1, 76653, Note_on_c, 0, 70, 47
1, 76678, Note_on_c, 0, 49, 68
1, 76681, Note_off_c, 0, 70, 64
1, 76703, Note_on_c, 0, 73, 25
1, 76709, Note_off_c, 0, 49, 65
1, 76741, Note_off_c, 0, 73, 44
1, 76798, Note_on_c, 0, 68, 87
1, 76819, Note_on_c, 0, 87, 74
1, 76849, Note_off_c, 0, 68, 57
1, 76895, Note_on_c, 0, 66, 80
1, 76906, Note_on_c, 0, 70, 87
1, 76914, Note_off_c, 0, 87, 56
1, 76946, Note_on_c, 0, 85, 69
1, 76947, Note_off_c, 0, 66, 61
1, 76972, Note_off_c, 0, 70, 63
1, 76976, Note_off_c, 0, 85, 68
1, 77192, Control_c, 0, 64, 71
1, 77201, Note_on_c, 0, 71, 83
1, 77207, Control_c, 0, 64, 28
1, 77213, Note_on_c, 0, 65, 58
1, 77218, Note_on_c, 0, 68, 63
1, 77221, Control_c, 0, 64, 0
1, 77228, Note_on_c, 0, 61, 60
1, 77266, Control_c, 0, 64, 55
1, 77281, Control_c, 0, 64, 68
1, 77296, Control_c, 0, 64, 90
1, 77296, Note_off_c, 0, 71, 64
1, 77311, Control_c, 0, 64, 127
1, 77317, Note_off_c, 0, 65, 63
1, 77320, Note_off_c, 0, 68, 61
1, 77326, Note_off_c, 0, 61, 62
1, 77351, Note_on_c, 0, 71, 58
1, 77390, Note_off_c, 0, 71, 61
1, 77395, Note_on_c, 0, 73, 66
1, 77452, Note_on_c, 0, 80, 66
1, 77454, Note_off_c, 0, 73, 64
1, 77464, Note_on_c, 0, 49, 48
1, 77482, Note_off_c, 0, 80, 65
1, 77493, Note_off_c, 0, 49, 54
1, 77549, Note_on_c, 0, 83, 69
1, 77591, Note_off_c, 0, 83, 53
1, 77603, Note_on_c, 0, 94, 75
1, 77666, Note_on_c, 0, 92, 74
1, 77673, Note_off_c, 0, 94, 63
1, 77675, Note_on_c, 0, 71, 84
1, 77689, Note_on_c, 0, 68, 69
1, 77692, Note_off_c, 0, 92, 68
1, 77694, Note_on_c, 0, 65, 59
1, 77703, Note_on_c, 0, 61, 51
1, 77719, Note_off_c, 0, 71, 64
1, 77726, Note_off_c, 0, 65, 66
1, 77736, Note_off_c, 0, 61, 63
1, 77750, Note_off_c, 0, 68, 60
1, 77898, Note_on_c, 0, 71, 83
1, 77911, Note_on_c, 0, 68, 70
1, 77921, Note_off_c, 0, 71, 70
1, 77934, Note_off_c, 0, 68, 69
1, 77948, Note_on_c, 0, 61, 12
1, 77991, Note_on_c, 0, 71, 55
1, 77996, Note_off_c, 0, 61, 41
1, 78008, Note_off_c, 0, 71, 67
1, 78023, Note_on_c, 0, 73, 58
1, 78056, Note_off_c, 0, 73, 66
1, 78071, Note_on_c, 0, 80, 66
1, 78101, Note_off_c, 0, 80, 67
1, 78121, Note_on_c, 0, 49, 53
1, 78145, Note_off_c, 0, 49, 58
1, 78215, Note_on_c, 0, 94, 73
1, 78248, Note_on_c, 0, 73, 80
1, 78306, Note_off_c, 0, 73, 61
1, 78346, Note_off_c, 0, 94, 52
1, 78375, Note_on_c, 0, 92, 61
1, 78389, Note_on_c, 0, 71, 81
1, 78408, Note_off_c, 0, 92, 66
1, 78439, Note_off_c, 0, 71, 62
1, 78685, Note_on_c, 0, 70, 69
1, 78697, Note_on_c, 0, 66, 61
1, 78703, Note_on_c, 0, 61, 59
1, 78705, Control_c, 0, 64, 90
1, 78719, Control_c, 0, 64, 60
1, 78734, Control_c, 0, 64, 0
1, 78778, Control_c, 0, 64, 40
1, 78793, Control_c, 0, 64, 61
1, 78794, Note_off_c, 0, 61, 63
1, 78796, Note_off_c, 0, 66, 62
1, 78808, Control_c, 0, 64, 71
1, 78823, Control_c, 0, 64, 90
1, 78837, Control_c, 0, 64, 127
1, 78881, Note_on_c, 0, 73, 55
1, 78886, Note_off_c, 0, 70, 54
1, 78921, Note_off_c, 0, 73, 65
1, 78938, Note_on_c, 0, 78, 56
1, 78959, Note_off_c, 0, 78, 63
1, 78968, Note_on_c, 0, 54, 41
1, 78999, Note_off_c, 0, 54, 54
1, 79031, Note_on_c, 0, 82, 59
1, 79085, Note_off_c, 0, 82, 58
1, 79113, Note_on_c, 0, 87, 55
1, 79118, Note_on_c, 0, 92, 57
1, 79172, Note_on_c, 0, 90, 74
1, 79177, Note_off_c, 0, 92, 65
1, 79180, Note_off_c, 0, 87, 63
1, 79190, Note_on_c, 0, 66, 64
1, 79192, Note_on_c, 0, 70, 66
1, 79199, Note_off_c, 0, 90, 66
1, 79222, Note_off_c, 0, 70, 65
1, 79236, Note_off_c, 0, 66, 56
1, 79261, Poly_aftertouch_c, 0, 61, 127
1, 79307, Poly_aftertouch_c, 0, 61, 0
1, 79407, Note_on_c, 0, 70, 73
1, 79410, Note_on_c, 0, 66, 73
1, 79429, Note_off_c, 0, 70, 70
1, 79439, Note_on_c, 0, 61, 22
1, 79440, Note_off_c, 0, 66, 67
1, 79480, Note_off_c, 0, 61, 50
1, 79510, Note_on_c, 0, 73, 67
1, 79564, Note_on_c, 0, 78, 67
1, 79574, Note_off_c, 0, 73, 63
1, 79621, Note_on_c, 0, 82, 64
1, 79621, Note_on_c, 0, 54, 80
1, 79624, Note_off_c, 0, 78, 62
1, 79648, Note_off_c, 0, 54, 70
1, 79648, Note_off_c, 0, 82, 66
1, 79712, Note_on_c, 0, 85, 63
1, 79757, Note_on_c, 0, 90, 68
1, 79761, Note_off_c, 0, 85, 58
1, 79765, Note_on_c, 0, 95, 68
1, 79845, Note_on_c, 0, 66, 72
1, 79852, Note_on_c, 0, 70, 94
1, 79855, Note_on_c, 0, 94, 92
1, 79861, Note_off_c, 0, 90, 61
1, 79865, Note_off_c, 0, 95, 65
1, 79865, Note_on_c, 0, 61, 59
1, 79894, Note_off_c, 0, 61, 62
1, 79895, Note_off_c, 0, 66, 62
1, 79898, Note_off_c, 0, 94, 65
1, 79910, Note_off_c, 0, 70, 63
1, 79927, Poly_aftertouch_c, 0, 65, 0
1, 80178, Note_on_c, 0, 73, 87
1, 80181, Note_on_c, 0, 70, 79
1, 80182, Note_on_c, 0, 64, 78
1, 80187, Control_c, 0, 64, 70
1, 80202, Control_c, 0, 64, 0
1, 80246, Control_c, 0, 64, 60
1, 80261, Control_c, 0, 64, 80
1, 80266, Note_off_c, 0, 73, 66
1, 80276, Note_off_c, 0, 70, 67
1, 80276, Control_c, 0, 64, 127
1, 80286, Note_off_c, 0, 64, 66
1, 80321, Note_on_c, 0, 76, 66
1, 80377, Note_on_c, 0, 82, 65
1, 80387, Note_off_c, 0, 76, 64
1, 80416, Note_on_c, 0, 54, 69
1, 80416, Note_on_c, 0, 85, 70
1, 80432, Note_off_c, 0, 82, 64
1, 80441, Note_off_c, 0, 85, 70
1, 80444, Note_off_c, 0, 54, 67
1, 80508, Note_on_c, 0, 88, 71
1, 80573, Note_on_c, 0, 99, 66
1, 80576, Note_on_c, 0, 94, 70
1, 80579, Note_off_c, 0, 88, 64
1, 80636, Note_off_c, 0, 94, 63
1, 80638, Note_on_c, 0, 97, 78
1, 80643, Note_on_c, 0, 73, 97
1, 80644, Note_on_c, 0, 70, 87
1, 80644, Note_off_c, 0, 99, 65
1, 80655, Note_on_c, 0, 64, 62
1, 80662, Note_off_c, 0, 97, 69
1, 80684, Note_off_c, 0, 73, 65
1, 80691, Note_off_c, 0, 64, 63
1, 80706, Note_off_c, 0, 70, 61
1, 80857, Note_on_c, 0, 73, 98
1, 80858, Note_on_c, 0, 70, 91
1, 80869, Note_on_c, 0, 64, 33
1, 80885, Note_off_c, 0, 73, 65
1, 80892, Note_off_c, 0, 70, 69
1, 80903, Note_off_c, 0, 64, 52
1, 80938, Note_on_c, 0, 73, 58
1, 80977, Note_off_c, 0, 73, 45
1, 81063, Note_on_c, 0, 54, 81
1, 81087, Note_off_c, 0, 54, 71
1, 81166, Note_on_c, 0, 72, 93
1, 81189, Note_on_c, 0, 96, 78
1, 81196, Note_off_c, 0, 72, 69
1, 81300, Note_on_c, 0, 70, 103
1, 81316, Note_on_c, 0, 94, 92
1, 81321, Note_off_c, 0, 96, 67
1, 81335, Note_off_c, 0, 70, 67
1, 81338, Note_off_c, 0, 94, 68
1, 81607, Note_on_c, 0, 77, 98
1, 81610, Note_on_c, 0, 74, 91
1, 81611, Control_c, 0, 64, 80
1, 81613, Note_on_c, 0, 65, 80
1, 81616, Note_on_c, 0, 70, 77
1, 81626, Control_c, 0, 64, 35
1, 81641, Control_c, 0, 64, 0
1, 81660, Note_off_c, 0, 77, 68
1, 81670, Control_c, 0, 64, 54
1, 81672, Note_off_c, 0, 74, 67
1, 81683, Note_off_c, 0, 70, 65
1, 81685, Control_c, 0, 64, 73
1, 81694, Note_off_c, 0, 65, 64
1, 81700, Control_c, 0, 64, 127
1, 81758, Note_on_c, 0, 77, 70
1, 81822, Note_on_c, 0, 82, 61
1, 81834, Note_off_c, 0, 77, 62
1, 81837, Note_on_c, 0, 51, 35
1, 81875, Note_on_c, 0, 52, 56
1, 81875, Note_on_c, 0, 86, 49
1, 81881, Note_off_c, 0, 51, 64
1, 81881, Note_off_c, 0, 82, 64
1, 81883, Note_on_c, 0, 53, 58
1, 81897, Note_off_c, 0, 52, 62
1, 81897, Note_off_c, 0, 86, 57
1, 81906, Note_off_c, 0, 53, 60
1, 82008, Note_on_c, 0, 99, 68
1, 82024, Note_on_c, 0, 89, 30
1, 82059, Note_off_c, 0, 99, 58
1, 82064, Note_off_c, 0, 89, 43
1, 82067, Note_on_c, 0, 94, 36
1, 82086, Note_on_c, 0, 74, 82
1, 82092, Control_c, 0, 64, 72
1, 82097, Note_off_c, 0, 94, 54
1, 82103, Note_on_c, 0, 70, 85
1, 82107, Note_on_c, 0, 98, 78
1, 82107, Control_c, 0, 64, 59
1, 82122, Control_c, 0, 64, 61
1, 82131, Note_on_c, 0, 65, 39
1, 82136, Note_off_c, 0, 74, 65
1, 82137, Control_c, 0, 64, 66
1, 82146, Note_off_c, 0, 98, 64
1, 82152, Control_c, 0, 64, 80
1, 82161, Note_off_c, 0, 65, 55
1, 82167, Control_c, 0, 64, 127
1, 82190, Note_off_c, 0, 70, 64
1, 82322, Note_on_c, 0, 70, 82
1, 82328, Note_on_c, 0, 65, 45
1, 82330, Note_on_c, 0, 62, 67
1, 82350, Note_off_c, 0, 70, 63
1, 82360, Note_off_c, 0, 65, 63
1, 82362, Note_off_c, 0, 62, 67
1, 82406, Note_on_c, 0, 74, 64
1, 82455, Note_on_c, 0, 77, 51
1, 82465, Note_off_c, 0, 74, 62
1, 82501, Note_off_c, 0, 77, 64
1, 82507, Note_on_c, 0, 82, 61
1, 82535, Note_off_c, 0, 82, 67
1, 82545, Note_on_c, 0, 53, 58
1, 82568, Note_off_c, 0, 53, 58
1, 82617, Note_on_c, 0, 86, 50
1, 82630, Note_on_c, 0, 94, 73
1, 82656, Note_off_c, 0, 86, 64
1, 82740, Note_off_c, 0, 94, 62
1, 82744, Note_on_c, 0, 91, 66
1, 82757, Note_on_c, 0, 67, 74
1, 82763, Note_on_c, 0, 62, 59
1, 82766, Note_on_c, 0, 58, 70
1, 82778, Note_off_c, 0, 91, 64
1, 82821, Note_off_c, 0, 67, 64
1, 82828, Note_off_c, 0, 62, 63
1, 82833, Note_off_c, 0, 58, 63
1, 83017, Control_c, 0, 64, 90
1, 83031, Note_on_c, 0, 57, 66
1, 83032, Control_c, 0, 64, 59
1, 83037, Note_on_c, 0, 63, 70
1, 83040, Note_on_c, 0, 65, 72
1, 83047, Control_c, 0, 64, 0
1, 83091, Control_c, 0, 64, 39
1, 83102, Note_off_c, 0, 57, 64
1, 83106, Control_c, 0, 64, 62
1, 83121, Control_c, 0, 64, 71
1, 83137, Control_c, 0, 64, 91
1, 83152, Control_c, 0, 64, 127
1, 83180, Note_on_c, 0, 75, 62
1, 83183, Poly_aftertouch_c, 0, 67, 127
1, 83214, Poly_aftertouch_c, 0, 67, 0
1, 83216, Note_off_c, 0, 65, 60
1, 83225, Note_off_c, 0, 63, 63
1, 83243, Note_off_c, 0, 75, 63
1, 83246, Note_on_c, 0, 53, 84
1, 83298, Note_off_c, 0, 53, 61
1, 83327, Note_on_c, 0, 67, 81
1, 83356, Note_on_c, 0, 91, 76
1, 83368, Note_off_c, 0, 67, 63
1, 83428, Note_on_c, 0, 65, 85
1, 83430, Note_off_c, 0, 91, 59
1, 83463, Note_on_c, 0, 89, 80
1, 83463, Note_off_c, 0, 65, 64
1, 83520, Note_off_c, 0, 89, 57
1, 83678, Control_c, 0, 64, 73
1, 83686, Note_on_c, 0, 75, 90
1, 83693, Control_c, 0, 64, 45
1, 83699, Note_on_c, 0, 69, 73
1, 83704, Note_on_c, 0, 65, 60
1, 83707, Control_c, 0, 64, 18
1, 83722, Control_c, 0, 64, 42
1, 83737, Control_c, 0, 64, 62
1, 83738, Note_off_c, 0, 75, 65
1, 83741, Note_off_c, 0, 69, 65
1, 83752, Note_off_c, 0, 65, 63
1, 83752, Control_c, 0, 64, 75
1, 83766, Control_c, 0, 64, 127
1, 83783, Note_on_c, 0, 77, 55
1, 83863, Note_off_c, 0, 77, 62
1, 83890, Note_on_c, 0, 87, 38
1, 83896, Note_on_c, 0, 89, 46
1, 83917, Note_off_c, 0, 87, 63
1, 83920, Note_off_c, 0, 89, 58
1, 83925, Note_on_c, 0, 52, 37
1, 83934, Note_on_c, 0, 53, 48
1, 83957, Note_off_c, 0, 52, 54
1, 83962, Note_off_c, 0, 53, 55
1, 84003, Note_on_c, 0, 89, 54
1, 84037, Note_on_c, 0, 74, 72
1, 84050, Note_off_c, 0, 89, 39
1, 84075, Note_off_c, 0, 74, 58
1, 84113, Note_on_c, 0, 101, 60
1, 84134, Note_on_c, 0, 72, 78
1, 84158, Note_on_c, 0, 63, 66
1, 84187, Note_off_c, 0, 101, 65
1, 84201, Note_off_c, 0, 72, 64
1, 84218, Note_off_c, 0, 63, 61
1, 84456, Note_on_c, 0, 62, 64
1, 84456, Note_on_c, 0, 74, 63
1, 84468, Note_on_c, 0, 70, 66
1, 84471, Control_c, 0, 64, 76
1, 84485, Note_on_c, 0, 65, 47
1, 84486, Control_c, 0, 64, 33
1, 84501, Control_c, 0, 64, 0
1, 84545, Control_c, 0, 64, 55
1, 84560, Control_c, 0, 64, 67
1, 84566, Note_off_c, 0, 74, 65
1, 84568, Note_off_c, 0, 62, 64
1, 84575, Note_off_c, 0, 65, 63
1, 84575, Control_c, 0, 64, 84
1, 84581, Note_off_c, 0, 70, 65
1, 84590, Control_c, 0, 64, 127
1, 84594, Note_on_c, 0, 77, 61
1, 84660, Note_on_c, 0, 82, 56
1, 84660, Note_off_c, 0, 77, 61
1, 84701, Note_off_c, 0, 82, 64
1, 84703, Note_on_c, 0, 58, 62
1, 84833, Note_on_c, 0, 89, 32
1, 84845, Note_on_c, 0, 99, 65
1, 84862, Note_on_c, 0, 65, 49
1, 84870, Note_off_c, 0, 89, 50
1, 84873, Note_off_c, 0, 58, 59
1, 84877, Note_on_c, 0, 70, 67
1, 84891, Note_off_c, 0, 99, 60
1, 84903, Note_off_c, 0, 70, 69
1, 84909, Note_off_c, 0, 65, 63
1, 84912, Note_on_c, 0, 98, 82
1, 84946, Note_off_c, 0, 98, 65
1, 85123, Note_on_c, 0, 62, 81
1, 85126, Note_on_c, 0, 53, 61
1, 85130, Note_on_c, 0, 58, 75
1, 85151, Note_off_c, 0, 62, 67
1, 85168, Note_off_c, 0, 53, 65
1, 85169, Note_off_c, 0, 58, 61
1, 85219, Note_on_c, 0, 62, 63
1, 85264, Note_on_c, 0, 65, 54
1, 85280, Note_off_c, 0, 62, 60
1, 85306, Note_off_c, 0, 65, 65
1, 85313, Note_on_c, 0, 70, 75
1, 85318, Note_on_c, 0, 46, 79
1, 85338, Note_off_c, 0, 70, 69
1, 85386, Note_on_c, 0, 72, 79
1, 85440, Note_off_c, 0, 72, 63
1, 85471, Note_on_c, 0, 77, 73
1, 85497, Note_on_c, 0, 53, 48
1, 85520, Note_off_c, 0, 77, 65
1, 85522, Note_on_c, 0, 82, 92
1, 85536, Note_on_c, 0, 58, 85
1, 85541, Note_on_c, 0, 70, 79
1, 85553, Note_on_c, 0, 50, 9
1, 85557, Note_off_c, 0, 46, 62
1, 85560, Note_off_c, 0, 70, 71
1, 85561, Note_off_c, 0, 82, 67
1, 85569, Note_off_c, 0, 53, 64
1, 85583, Note_off_c, 0, 58, 63
1, 85613, Note_off_c, 0, 50, 49
1, 85812, Note_on_c, 0, 52, 59
1, 85831, Note_on_c, 0, 61, 68
1, 85838, Note_on_c, 0, 58, 67
1, 85865, Control_c, 0, 64, 95
1, 85880, Control_c, 0, 64, 58
1, 85886, Note_on_c, 0, 85, 87
1, 85895, Control_c, 0, 64, 0
1, 85899, Note_on_c, 0, 73, 91
1, 85924, Control_c, 0, 64, 40
1, 85939, Control_c, 0, 64, 66
1, 85946, Note_off_c, 0, 61, 64
1, 85954, Control_c, 0, 64, 92
1, 85955, Note_off_c, 0, 52, 66
1, 85959, Note_off_c, 0, 58, 64
1, 85969, Control_c, 0, 64, 127
1, 85998, Note_on_c, 0, 76, 53
1, 86021, Note_off_c, 0, 85, 63
1, 86033, Note_off_c, 0, 73, 63
1, 86054, Note_on_c, 0, 82, 75
1, 86064, Note_off_c, 0, 76, 64
1, 86090, Note_off_c, 0, 82, 65
1, 86107, Note_on_c, 0, 42, 68
1, 86135, Note_off_c, 0, 42, 65
1, 86158, Note_on_c, 0, 85, 70
1, 86200, Note_on_c, 0, 88, 66
1, 86205, Note_off_c, 0, 85, 60
1, 86239, Note_on_c, 0, 99, 86
1, 86270, Note_off_c, 0, 88, 61
1, 86309, Note_on_c, 0, 97, 86
1, 86312, Note_on_c, 0, 85, 96
1, 86315, Note_on_c, 0, 61, 82
1, 86322, Note_off_c, 0, 99, 64
1, 86324, Note_on_c, 0, 58, 78
1, 86332, Note_on_c, 0, 52, 57
1, 86332, Note_off_c, 0, 85, 69
1, 86332, Note_off_c, 0, 97, 69
1, 86359, Note_off_c, 0, 61, 60
1, 86361, Note_off_c, 0, 52, 61
1, 86388, Note_off_c, 0, 58, 59
1, 86536, Note_on_c, 0, 61, 81
1, 86537, Note_on_c, 0, 58, 83
1, 86554, Note_off_c, 0, 61, 72
1, 86556, Note_on_c, 0, 73, 100
1, 86562, Note_on_c, 0, 85, 85
1, 86562, Note_off_c, 0, 58, 68
1, 86569, Note_on_c, 0, 52, 40
1, 86608, Note_off_c, 0, 52, 53
1, 86635, Note_on_c, 0, 76, 64
1, 86637, Note_off_c, 0, 73, 61
1, 86637, Note_off_c, 0, 85, 65
1, 86688, Note_on_c, 0, 82, 79
1, 86690, Note_off_c, 0, 76, 65
1, 86728, Note_off_c, 0, 82, 64
1, 86751, Note_on_c, 0, 42, 81
1, 86784, Note_off_c, 0, 42, 67
1, 86787, Note_on_c, 0, 85, 77
1, 86817, Note_off_c, 0, 85, 63
1, 86841, Note_on_c, 0, 88, 55
1, 86872, Note_on_c, 0, 60, 85
1, 86876, Note_on_c, 0, 96, 98
1, 86911, Note_off_c, 0, 60, 65
1, 86938, Note_off_c, 0, 96, 62
1, 86942, Note_off_c, 0, 88, 66
1, 86960, Note_on_c, 0, 52, 43
1, 86966, Note_on_c, 0, 94, 96
1, 86973, Note_on_c, 0, 82, 101
1, 86978, Note_on_c, 0, 58, 95
1, 86991, Note_off_c, 0, 52, 64
1, 87005, Note_off_c, 0, 82, 60
1, 87005, Note_off_c, 0, 94, 67
1, 87014, Note_off_c, 0, 58, 63
1, 87222, Control_c, 0, 64, 88
1, 87225, Note_on_c, 0, 65, 93
1, 87231, Note_on_c, 0, 62, 82
1, 87234, Note_on_c, 0, 58, 76
1, 87237, Control_c, 0, 64, 52
1, 87246, Note_on_c, 0, 53, 70
1, 87250, Note_off_c, 0, 65, 68
1, 87252, Control_c, 0, 64, 0
1, 87260, Note_off_c, 0, 62, 68
1, 87264, Note_on_c, 0, 89, 94
1, 87267, Note_on_c, 0, 77, 95
1, 87267, Note_off_c, 0, 58, 65
1, 87286, Note_off_c, 0, 53, 68
1, 87288, Control_c, 0, 64, 54
1, 87303, Control_c, 0, 64, 72
1, 87318, Control_c, 0, 64, 127
1, 87355, Note_on_c, 0, 82, 82
1, 87375, Note_off_c, 0, 77, 57
1, 87376, Note_off_c, 0, 89, 63
1, 87407, Note_on_c, 0, 86, 77
1, 87418, Note_off_c, 0, 82, 66
1, 87438, Note_on_c, 0, 42, 35
1, 87443, Note_off_c, 0, 86, 62
1, 87470, Note_off_c, 0, 42, 60
1, 87482, Note_on_c, 0, 41, 59
1, 87513, Note_off_c, 0, 41, 65
1, 87516, Note_on_c, 0, 89, 83
1, 87553, Note_on_c, 0, 94, 78
1, 87568, Note_off_c, 0, 89, 57
1, 87600, Note_off_c, 0, 94, 65
1, 87613, Note_on_c, 0, 101, 55
1, 87637, Note_off_c, 0, 101, 39
1, 87669, Note_on_c, 0, 62, 87
1, 87675, Note_on_c, 0, 98, 96
1, 87679, Note_on_c, 0, 58, 84
1, 87679, Note_on_c, 0, 86, 100
1, 87703, Note_off_c, 0, 86, 66
1, 87704, Note_off_c, 0, 62, 64
1, 87710, Note_on_c, 0, 53, 17
1, 87712, Note_off_c, 0, 98, 65
1, 87744, Note_off_c, 0, 58, 63
1, 87748, Note_off_c, 0, 53, 54
1, 87881, Control_c, 0, 64, 115
1, 87896, Control_c, 0, 64, 70
1, 87903, Note_on_c, 0, 58, 88
1, 87907, Note_on_c, 0, 50, 75
1, 87911, Control_c, 0, 64, 63
1, 87914, Note_on_c, 0, 53, 51
1, 87917, Note_on_c, 0, 82, 80
1, 87923, Note_on_c, 0, 70, 96
1, 87927, Control_c, 0, 64, 70
1, 87938, Note_off_c, 0, 58, 62
1, 87941, Note_off_c, 0, 50, 68
1, 87941, Note_off_c, 0, 53, 58
1, 87942, Control_c, 0, 64, 88
1, 87957, Control_c, 0, 64, 127
1, 87993, Note_off_c, 0, 82, 65
1, 87995, Note_off_c, 0, 70, 66
1, 88006, Note_on_c, 0, 74, 77
1, 88042, Note_on_c, 0, 78, 42
1, 88066, Note_off_c, 0, 74, 66
1, 88075, Note_off_c, 0, 78, 54
1, 88123, Note_on_c, 0, 41, 77
1, 88149, Note_off_c, 0, 41, 66
1, 88160, Note_on_c, 0, 82, 85
1, 88239, Note_on_c, 0, 94, 85
1, 88269, Note_off_c, 0, 82, 64
1, 88276, Note_off_c, 0, 94, 62
1, 88328, Note_on_c, 0, 50, 56
1, 88334, Note_on_c, 0, 55, 74
1, 88335, Note_on_c, 0, 91, 100
1, 88338, Note_on_c, 0, 79, 94
1, 88344, Note_on_c, 0, 46, 75
1, 88355, Note_on_c, 0, 81, 67
1, 88361, Note_off_c, 0, 79, 69
1, 88368, Note_off_c, 0, 91, 67
1, 88373, Note_off_c, 0, 81, 43
1, 88394, Note_off_c, 0, 55, 63
1, 88397, Note_off_c, 0, 50, 64
1, 88421, Note_off_c, 0, 46, 62
1, 88594, Note_on_c, 0, 45, 81
1, 88597, Note_on_c, 0, 53, 93
1, 88600, Note_on_c, 0, 51, 85
1, 88602, Control_c, 0, 64, 66
1, 88617, Control_c, 0, 64, 0
1, 88619, Note_on_c, 0, 77, 84
1, 88625, Note_on_c, 0, 65, 93
1, 88676, Note_off_c, 0, 77, 62
1, 88676, Control_c, 0, 64, 53
1, 88679, Poly_aftertouch_c, 0, 48, 0
1, 88691, Note_off_c, 0, 45, 60
1, 88691, Control_c, 0, 64, 70
1, 88697, Note_on_c, 0, 69, 76
1, 88705, Control_c, 0, 64, 91
1, 88711, Note_off_c, 0, 65, 57
1, 88721, Control_c, 0, 64, 127
1, 88748, Note_on_c, 0, 75, 77
1, 88755, Note_off_c, 0, 69, 65
1, 88778, Note_off_c, 0, 75, 70
1, 88790, Note_off_c, 0, 51, 63
1, 88817, Note_off_c, 0, 53, 62
1, 88829, Note_on_c, 0, 41, 83
1, 88854, Note_on_c, 0, 77, 87
1, 88866, Note_off_c, 0, 41, 63
1, 88910, Note_on_c, 0, 55, 89
1, 88920, Note_off_c, 0, 77, 64
1, 88921, Note_on_c, 0, 91, 79
1, 88927, Note_on_c, 0, 89, 85
1, 88957, Note_off_c, 0, 55, 64
1, 88995, Note_on_c, 0, 88, 86
1, 88996, Note_on_c, 0, 53, 93
1, 88998, Note_on_c, 0, 77, 95
1, 89022, Note_off_c, 0, 91, 65
1, 89026, Note_on_c, 0, 51, 53
1, 89030, Note_off_c, 0, 89, 58
1, 89036, Note_off_c, 0, 53, 64
1, 89036, Note_off_c, 0, 77, 68
1, 89041, Note_off_c, 0, 88, 61
1, 89060, Note_off_c, 0, 51, 53
1, 89202, Control_c, 0, 64, 93
1, 89215, Note_on_c, 0, 63, 99
1, 89217, Control_c, 0, 64, 57
1, 89223, Note_on_c, 0, 53, 75
1, 89223, Note_on_c, 0, 57, 75
1, 89227, Note_on_c, 0, 75, 107
1, 89232, Control_c, 0, 64, 0
1, 89233, Note_on_c, 0, 87, 76
1, 89249, Note_off_c, 0, 57, 68
1, 89252, Note_off_c, 0, 63, 62
1, 89261, Control_c, 0, 64, 30
1, 89262, Note_off_c, 0, 53, 65
1, 89267, Note_on_c, 0, 85, 48
1, 89271, Note_off_c, 0, 87, 64
1, 89276, Control_c, 0, 64, 63
1, 89284, Note_on_c, 0, 77, 71
1, 89291, Control_c, 0, 64, 84
1, 89293, Note_off_c, 0, 85, 60
1, 89294, Note_off_c, 0, 75, 64
1, 89306, Control_c, 0, 64, 127
1, 89332, Note_on_c, 0, 81, 73
1, 89358, Note_off_c, 0, 77, 66
1, 89369, Note_off_c, 0, 81, 64
1, 89422, Note_on_c, 0, 41, 82
1, 89460, Note_off_c, 0, 41, 65
1, 89473, Note_on_c, 0, 87, 80
1, 89530, Note_on_c, 0, 98, 81
1, 89534, Note_off_c, 0, 87, 60
1, 89560, Note_on_c, 0, 62, 75
1, 89593, Note_off_c, 0, 62, 64
1, 89595, Note_off_c, 0, 98, 66
1, 89630, Note_on_c, 0, 96, 106
1, 89649, Note_on_c, 0, 60, 91
1, 89652, Note_on_c, 0, 59, 80
1, 89669, Note_off_c, 0, 59, 67
1, 89673, Note_off_c, 0, 96, 68
1, 89702, Note_off_c, 0, 60, 61
1, 89835, Note_on_c, 0, 50, 77
1, 89838, Note_on_c, 0, 53, 41
1, 89917, Note_on_c, 0, 58, 83
1, 89950, Control_c, 0, 64, 80
1, 89965, Control_c, 0, 64, 0
1, 89974, Note_on_c, 0, 101, 100
1, 89979, Note_on_c, 0, 65, 99
1, 89979, Note_on_c, 0, 89, 100
1, 89982, Note_on_c, 0, 94, 103
1, 90024, Control_c, 0, 64, 63
1, 90039, Note_off_c, 0, 89, 64
1, 90039, Control_c, 0, 64, 105
1, 90050, Note_off_c, 0, 101, 66
1, 90054, Control_c, 0, 64, 127
1, 90071, Note_off_c, 0, 94, 65
1, 90090, Note_off_c, 0, 65, 65
1, 90153, Note_off_c, 0, 58, 63
1, 90161, Note_off_c, 0, 50, 63
1, 90183, Note_off_c, 0, 53, 39
1, 90442, Note_on_c, 0, 50, 81
1, 90451, Note_on_c, 0, 46, 70
1, 90452, Note_on_c, 0, 65, 80
1, 90454, Note_on_c, 0, 53, 83
1, 90455, Note_on_c, 0, 58, 73
1, 90471, Note_off_c, 0, 65, 72
1, 90474, Note_off_c, 0, 50, 66
1, 90475, Note_on_c, 0, 38, 35
1, 90475, Note_off_c, 0, 58, 62
1, 90480, Note_off_c, 0, 53, 66
1, 90481, Note_off_c, 0, 46, 65
1, 90526, Note_on_c, 0, 53, 94
1, 90527, Note_on_c, 0, 58, 92
1, 90531, Note_on_c, 0, 65, 84
1, 90533, Note_off_c, 0, 38, 0
1, 90539, Note_on_c, 0, 50, 76
1, 90540, Note_on_c, 0, 46, 77
1, 90546, Note_on_c, 0, 38, 39
1, 90553, Note_off_c, 0, 65, 69
1, 90562, Note_off_c, 0, 53, 65
1, 90563, Note_off_c, 0, 50, 67
1, 90563, Note_off_c, 0, 58, 62
1, 90579, Note_off_c, 0, 46, 62
1, 90600, Note_off_c, 0, 38, 0
1, 90606, Note_on_c, 0, 50, 94
1, 90610, Note_on_c, 0, 46, 81
1, 90612, Note_on_c, 0, 38, 60
1, 90614, Note_on_c, 0, 53, 85
1, 90615, Note_on_c, 0, 65, 95
1, 90618, Note_on_c, 0, 58, 84
1, 90627, Poly_aftertouch_c, 0, 41, 127
1, 90631, Note_off_c, 0, 53, 75
1, 90643, Note_off_c, 0, 38, 63
1, 90644, Poly_aftertouch_c, 0, 41, 0
1, 90647, Note_off_c, 0, 50, 66
1, 90653, Note_off_c, 0, 58, 63
1, 90656, Note_off_c, 0, 65, 67
1, 90661, Note_off_c, 0, 46, 63
1, 90670, Poly_aftertouch_c, 0, 41, 0
1, 90811, Note_on_c, 0, 73, 3
1, 90842, Note_on_c, 0, 65, 89
1, 90844, Note_on_c, 0, 58, 81
1, 90844, Note_on_c, 0, 62, 87
1, 90844, Note_on_c, 0, 77, 100
1, 90850, Note_off_c, 0, 73, 35
1, 90851, Note_on_c, 0, 69, 83
1, 90853, Note_on_c, 0, 50, 49
1, 90859, Note_off_c, 0, 65, 74
1, 90867, Note_off_c, 0, 62, 69
1, 90871, Note_off_c, 0, 69, 72
1, 90873, Note_off_c, 0, 50, 63
1, 90876, Note_off_c, 0, 58, 65
1, 90884, Note_off_c, 0, 77, 69
1, 91059, Note_on_c, 0, 77, 97
1, 91063, Note_on_c, 0, 89, 98
1, 91066, Note_on_c, 0, 74, 98
1, 91070, Note_on_c, 0, 62, 76
1, 91077, Note_on_c, 0, 81, 85
1, 91079, Note_on_c, 0, 70, 82
1, 91081, Note_off_c, 0, 77, 69
1, 91096, Note_off_c, 0, 81, 73
1, 91098, Note_off_c, 0, 62, 68
1, 91098, Note_off_c, 0, 89, 67
1, 91106, Note_off_c, 0, 74, 64
1, 91139, Note_off_c, 0, 70, 63
1, 91225, Note_on_c, 0, 60, 79
1, 91282, Note_on_c, 0, 65, 50
1, 91315, Note_on_c, 0, 69, 77
1, 91345, Control_c, 0, 64, 117
1, 91360, Control_c, 0, 64, 58
1, 91375, Control_c, 0, 64, 0
1, 91376, Note_on_c, 0, 75, 101
1, 91380, Note_on_c, 0, 101, 101
1, 91381, Note_on_c, 0, 89, 98
1, 91384, Note_on_c, 0, 93, 94
1, 91385, Note_on_c, 0, 99, 105
1, 91463, Control_c, 0, 64, 69
1, 91465, Note_off_c, 0, 75, 66
1, 91470, Note_off_c, 0, 89, 65
1, 91473, Note_off_c, 0, 101, 65
1, 91478, Control_c, 0, 64, 127
1, 91492, Note_off_c, 0, 93, 69
1, 91497, Note_off_c, 0, 99, 66
1, 91514, Note_off_c, 0, 69, 65
1, 91523, Note_off_c, 0, 65, 50
1, 91535, Note_off_c, 0, 60, 64
1, 91819, Note_on_c, 0, 48, 81
1, 91829, Note_on_c, 0, 45, 66
1, 91840, Note_on_c, 0, 53, 91
1, 91841, Note_on_c, 0, 36, 46
1, 91849, Note_on_c, 0, 63, 67
1, 91851, Note_on_c, 0, 41, 37
1, 91852, Note_off_c, 0, 48, 64
1, 91856, Note_on_c, 0, 57, 62
1, 91858, Note_on_c, 0, 65, 55
1, 91863, Note_off_c, 0, 45, 62
1, 91865, Note_off_c, 0, 53, 67
1, 91868, Note_off_c, 0, 63, 65
1, 91874, Note_off_c, 0, 36, 57
1, 91877, Note_off_c, 0, 57, 63
1, 91877, Note_off_c, 0, 65, 63
1, 91911, Note_on_c, 0, 48, 79
1, 91911, Note_on_c, 0, 53, 84
1, 91915, Note_on_c, 0, 45, 75
1, 91923, Note_on_c, 0, 36, 51
1, 91925, Note_off_c, 0, 41, 0
1, 91930, Note_on_c, 0, 57, 68
1, 91931, Note_on_c, 0, 63, 67
1, 91936, Note_off_c, 0, 48, 69
1, 91947, Note_off_c, 0, 53, 60
1, 91956, Note_off_c, 0, 57, 65
1, 91959, Note_off_c, 0, 63, 63
1, 91962, Poly_aftertouch_c, 0, 41, 127
1, 91965, Note_off_c, 0, 45, 0
1, 91990, Note_on_c, 0, 53, 73
1, 91993, Note_on_c, 0, 48, 93
1, 91999, Note_on_c, 0, 63, 89
1, 92000, Note_on_c, 0, 57, 78
1, 92003, Poly_aftertouch_c, 0, 45, 127
1, 92006, Note_on_c, 0, 65, 73
1, 92013, Note_off_c, 0, 36, 65
1, 92015, Note_off_c, 0, 53, 67
1, 92020, Poly_aftertouch_c, 0, 41, 0
1, 92021, Note_off_c, 0, 57, 72
1, 92027, Poly_aftertouch_c, 0, 45, 0
1, 92032, Note_off_c, 0, 48, 62
1, 92033, Note_off_c, 0, 65, 66
1, 92047, Note_off_c, 0, 63, 64
1, 92212, Note_on_c, 0, 57, 81
1, 92215, Note_on_c, 0, 65, 83
1, 92218, Note_on_c, 0, 60, 86
1, 92218, Note_on_c, 0, 77, 90
1, 92222, Note_on_c, 0, 69, 83
1, 92224, Note_on_c, 0, 75, 91
1, 92230, Note_on_c, 0, 48, 45
1, 92237, Note_off_c, 0, 57, 67
1, 92241, Note_off_c, 0, 65, 67
1, 92244, Note_off_c, 0, 60, 63
1, 92246, Note_off_c, 0, 69, 68
1, 92249, Note_off_c, 0, 48, 63
1, 92260, Note_off_c, 0, 77, 66
1, 92273, Note_off_c, 0, 75, 64
1, 92443, Note_on_c, 0, 69, 79
1, 92444, Note_on_c, 0, 81, 93
1, 92445, Note_on_c, 0, 89, 91
1, 92447, Note_on_c, 0, 77, 93
1, 92452, Note_on_c, 0, 72, 92
1, 92453, Note_on_c, 0, 87, 95
1, 92466, Note_off_c, 0, 77, 72
1, 92477, Note_off_c, 0, 81, 70
1, 92481, Note_off_c, 0, 89, 63
1, 92493, Note_off_c, 0, 87, 68
1, 92497, Note_off_c, 0, 69, 64
1, 92521, Note_off_c, 0, 72, 59
1, 92540, Note_on_c, 0, 65, 20
1, 92616, Note_on_c, 0, 59, 77
1, 92617, Note_off_c, 0, 65, 57
1, 92687, Note_on_c, 0, 65, 51
1, 92735, Note_on_c, 0, 68, 80
1, 92784, Control_c, 0, 64, 68
1, 92797, Note_on_c, 0, 74, 95
1, 92799, Control_c, 0, 64, 0
1, 92803, Note_on_c, 0, 101, 99
1, 92809, Note_on_c, 0, 89, 96
1, 92810, Note_on_c, 0, 92, 94
1, 92813, Note_on_c, 0, 98, 89
1, 92873, Control_c, 0, 64, 71
1, 92877, Note_off_c, 0, 74, 67
1, 92878, Note_off_c, 0, 89, 65
1, 92878, Note_off_c, 0, 101, 67
1, 92879, Note_off_c, 0, 98, 66
1, 92888, Control_c, 0, 64, 127
1, 92898, Note_off_c, 0, 92, 66
1, 92920, Note_off_c, 0, 68, 64
1, 92921, Note_off_c, 0, 65, 63
1, 92930, Note_off_c, 0, 59, 64
1, 93192, Note_on_c, 0, 47, 78
1, 93206, Note_on_c, 0, 44, 62
1, 93210, Note_on_c, 0, 63, 37
1, 93212, Note_on_c, 0, 53, 69
1, 93212, Note_on_c, 0, 56, 64
1, 93219, Note_on_c, 0, 35, 39
1, 93223, Note_off_c, 0, 47, 64
1, 93238, Note_off_c, 0, 44, 64
1, 93238, Note_on_c, 0, 62, 41
1, 93240, Note_off_c, 0, 63, 56
1, 93243, Note_off_c, 0, 53, 65
1, 93243, Note_off_c, 0, 56, 66
1, 93277, Note_off_c, 0, 35, 0
1, 93286, Note_on_c, 0, 47, 77
1, 93287, Note_on_c, 0, 65, 39
1, 93288, Note_on_c, 0, 53, 76
1, 93293, Note_on_c, 0, 56, 79
1, 93299, Note_on_c, 0, 35, 27
1, 93303, Note_off_c, 0, 62, 0
1, 93303, Note_on_c, 0, 62, 12
1, 93311, Note_off_c, 0, 47, 65
1, 93314, Note_off_c, 0, 53, 65
1, 93318, Note_off_c, 0, 56, 69
1, 93318, Note_off_c, 0, 65, 59
1, 93320, Note_on_c, 0, 44, 32
1, 93348, Note_off_c, 0, 62, 0
1, 93352, Note_off_c, 0, 35, 0
1, 93352, Note_on_c, 0, 35, 42
1, 93357, Note_on_c, 0, 47, 93
1, 93359, Note_off_c, 0, 44, 0
1, 93359, Note_on_c, 0, 44, 57
1, 93363, Note_on_c, 0, 62, 69
1, 93364, Note_on_c, 0, 41, 26
1, 93366, Note_on_c, 0, 53, 71
1, 93367, Note_on_c, 0, 65, 74
1, 93369, Note_on_c, 0, 56, 80
1, 93380, Note_off_c, 0, 53, 72
1, 93384, Note_off_c, 0, 35, 57
1, 93392, Note_off_c, 0, 56, 68
1, 93395, Note_off_c, 0, 47, 66
1, 93402, Note_off_c, 0, 65, 64
1, 93403, Note_off_c, 0, 41, 46
1, 93404, Note_off_c, 0, 44, 64
1, 93405, Note_off_c, 0, 62, 66
1, 93527, Poly_aftertouch_c, 0, 53, 0
1, 93567, Note_on_c, 0, 59, 85
1, 93571, Note_on_c, 0, 65, 84
1, 93575, Note_on_c, 0, 77, 89
1, 93576, Note_on_c, 0, 47, 73
1, 93577, Note_on_c, 0, 56, 77
1, 93577, Note_on_c, 0, 68, 81
1, 93577, Note_on_c, 0, 74, 77
1, 93588, Note_off_c, 0, 59, 71
1, 93589, Note_off_c, 0, 65, 71
1, 93601, Note_off_c, 0, 56, 66
1, 93603, Note_off_c, 0, 68, 67
1, 93605, Note_on_c, 0, 54, 8
1, 93606, Note_off_c, 0, 54, 127
1, 93606, Note_off_c, 0, 47, 64
1, 93610, Note_off_c, 0, 74, 64
1, 93621, Note_off_c, 0, 77, 67
1, 93649, Poly_aftertouch_c, 0, 54, 0
1, 93787, Note_on_c, 0, 47, 83
1, 93788, Note_on_c, 0, 77, 81
1, 93791, Note_on_c, 0, 89, 93
1, 93792, Note_on_c, 0, 80, 98
1, 93793, Note_on_c, 0, 44, 84
1, 93796, Note_on_c, 0, 35, 60
1, 93806, Note_off_c, 0, 47, 72
1, 93816, Note_off_c, 0, 44, 67
1, 93824, Note_on_c, 0, 41, 24
1, 93830, Note_off_c, 0, 89, 66
1, 93835, Note_off_c, 0, 77, 65
1, 93836, Note_off_c, 0, 35, 50
1, 93846, Note_off_c, 0, 80, 66
1, 93860, Note_off_c, 0, 41, 52
1, 93902, Poly_aftertouch_c, 0, 40, 0
1, 94112, Note_on_c, 0, 79, 97
1, 94112, Note_on_c, 0, 87, 93
1, 94116, Note_on_c, 0, 75, 104
1, 94117, Control_c, 0, 64, 89
1, 94120, Note_on_c, 0, 43, 82
1, 94123, Note_on_c, 0, 48, 90
1, 94125, Note_on_c, 0, 36, 81
1, 94131, Control_c, 0, 64, 51
1, 94146, Control_c, 0, 64, 0
1, 94163, Note_on_c, 0, 85, 35
1, 94183, Note_off_c, 0, 79, 66
1, 94203, Note_off_c, 0, 85, 54
1, 94205, Control_c, 0, 64, 44
1, 94220, Control_c, 0, 64, 75
1, 94221, Note_off_c, 0, 87, 63
1, 94235, Control_c, 0, 64, 127
1, 94239, Note_off_c, 0, 75, 64
1, 94272, Note_off_c, 0, 36, 60
1, 94290, Note_off_c, 0, 48, 55
1, 94313, Note_off_c, 0, 43, 61
1, 94427, Note_on_c, 0, 50, 75
1, 94427, Note_on_c, 0, 77, 85
1, 94433, Note_on_c, 0, 74, 88
1, 94435, Note_on_c, 0, 42, 72
1, 94435, Note_on_c, 0, 86, 68
1, 94445, Note_on_c, 0, 38, 36
1, 94452, Note_off_c, 0, 50, 66
1, 94455, Note_off_c, 0, 86, 65
1, 94458, Note_off_c, 0, 77, 64
1, 94459, Note_off_c, 0, 74, 66
1, 94473, Note_off_c, 0, 42, 64
1, 94483, Note_off_c, 0, 38, 50
1, 94515, Note_on_c, 0, 84, 92
1, 94517, Note_on_c, 0, 72, 98
1, 94522, Note_on_c, 0, 51, 98
1, 94524, Note_on_c, 0, 75, 91
1, 94530, Poly_aftertouch_c, 0, 81, 0
1, 94534, Note_on_c, 0, 80, 62
1, 94545, Note_on_c, 0, 39, 63
1, 94570, Note_on_c, 0, 52, 32
1, 94574, Note_off_c, 0, 51, 60
1, 94575, Note_off_c, 0, 39, 62
1, 94605, Note_off_c, 0, 52, 51
1, 94618, Note_off_c, 0, 80, 53
1, 94651, Note_off_c, 0, 75, 60
1, 94674, Note_off_c, 0, 72, 57
1, 94690, Note_off_c, 0, 84, 61
1, 94773, Note_on_c, 0, 84, 103
1, 94776, Note_on_c, 0, 72, 100
1, 94776, Note_on_c, 0, 75, 98
1, 94777, Note_on_c, 0, 41, 82
1, 94779, Note_on_c, 0, 53, 85
1, 94798, Note_on_c, 0, 81, 4
1, 94821, Control_c, 0, 64, 75
1, 94836, Control_c, 0, 64, 0
1, 94844, Note_off_c, 0, 81, 46
1, 94892, Note_off_c, 0, 84, 63
1, 94910, Control_c, 0, 64, 45
1, 94915, Note_off_c, 0, 75, 64
1, 94925, Control_c, 0, 64, 70
1, 94940, Control_c, 0, 64, 88
1, 94953, Note_off_c, 0, 72, 62
1, 94954, Control_c, 0, 64, 127
1, 95018, Note_off_c, 0, 41, 62
1, 95029, Note_off_c, 0, 53, 55
1, 95080, Note_on_c, 0, 82, 79
1, 95084, Note_on_c, 0, 53, 78
1, 95085, Note_on_c, 0, 70, 90
1, 95097, Note_on_c, 0, 41, 50
1, 95101, Note_on_c, 0, 74, 50
1, 95117, Note_off_c, 0, 82, 63
1, 95118, Control_c, 0, 64, 102
1, 95119, Note_off_c, 0, 70, 60
1, 95125, Note_off_c, 0, 74, 58
1, 95126, Note_off_c, 0, 41, 64
1, 95131, Note_off_c, 0, 53, 63
1, 95133, Control_c, 0, 64, 65
1, 95148, Control_c, 0, 64, 40
1, 95163, Control_c, 0, 64, 44
1, 95167, Note_on_c, 0, 69, 93
1, 95171, Note_on_c, 0, 72, 90
1, 95172, Note_on_c, 0, 81, 86
1, 95177, Control_c, 0, 64, 55
1, 95178, Note_on_c, 0, 53, 80
1, 95178, Note_on_c, 0, 41, 80
1, 95185, Note_off_c, 0, 69, 72
1, 95188, Note_off_c, 0, 72, 73
1, 95191, Note_off_c, 0, 81, 73
1, 95192, Control_c, 0, 64, 64
1, 95206, Note_off_c, 0, 41, 66
1, 95207, Control_c, 0, 64, 79
1, 95214, Note_on_c, 0, 52, 34
1, 95215, Note_off_c, 0, 52, 127
1, 95220, Note_off_c, 0, 53, 63
1, 95222, Control_c, 0, 64, 127
1, 95245, Poly_aftertouch_c, 0, 52, 0
1, 95411, Note_on_c, 0, 50, 66
1, 95494, Note_on_c, 0, 58, 65
1, 95509, Note_on_c, 0, 89, 100
1, 95523, Note_on_c, 0, 77, 94
1, 95526, Control_c, 0, 64, 71
1, 95529, Note_on_c, 0, 65, 82
1, 95530, Note_on_c, 0, 82, 85
1, 95541, Control_c, 0, 64, 0
1, 95600, Control_c, 0, 64, 38
1, 95611, Note_off_c, 0, 50, 65
1, 95615, Control_c, 0, 64, 68
1, 95630, Control_c, 0, 64, 94
1, 95639, Note_off_c, 0, 58, 63
1, 95642, Note_off_c, 0, 77, 66
1, 95643, Note_off_c, 0, 65, 62
1, 95644, Control_c, 0, 64, 127
1, 95673, Note_off_c, 0, 82, 64
1, 95677, Note_off_c, 0, 89, 67
1, 95941, Note_on_c, 0, 82, 58
1, 95943, Note_on_c, 0, 77, 62
1, 95943, Note_on_c, 0, 89, 83
1, 95947, Note_on_c, 0, 94, 72
1, 95950, Note_on_c, 0, 74, 42
1, 95961, Note_off_c, 0, 82, 62
1, 95965, Note_off_c, 0, 94, 66
1, 95965, Note_off_c, 0, 89, 67
1, 95966, Note_on_c, 0, 101, 48
1, 95975, Note_off_c, 0, 77, 63
1, 95975, Note_off_c, 0, 74, 51
1, 96004, Note_off_c, 0, 101, 0
1, 96004, Note_on_c, 0, 101, 63
1, 96016, Note_on_c, 0, 82, 82
1, 96017, Note_on_c, 0, 94, 89
1, 96021, Note_on_c, 0, 89, 73
1, 96037, Note_off_c, 0, 94, 71
1, 96039, Note_off_c, 0, 82, 71
1, 96043, Note_off_c, 0, 101, 67
1, 96045, Note_off_c, 0, 89, 69
1, 96059, Note_on_c, 0, 77, 17
1, 96080, Note_on_c, 0, 74, 19
1, 96082, Note_on_c, 0, 82, 79
1, 96093, Note_on_c, 0, 89, 97
1, 96097, Note_on_c, 0, 101, 68
1, 96102, Note_on_c, 0, 94, 77
1, 96102, Note_off_c, 0, 82, 72
1, 96116, Note_off_c, 0, 101, 65
1, 96117, Note_off_c, 0, 77, 64
1, 96123, Note_off_c, 0, 74, 63
1, 96126, Note_off_c, 0, 89, 61
1, 96126, Note_off_c, 0, 94, 69
1, 96317, Note_on_c, 0, 89, 82
1, 96322, Note_on_c, 0, 77, 75
1, 96323, Note_on_c, 0, 82, 77
1, 96326, Note_on_c, 0, 63, 63
1, 96327, Note_on_c, 0, 70, 62
1, 96339, Note_off_c, 0, 89, 69
1, 96344, Note_off_c, 0, 82, 70
1, 96346, Note_off_c, 0, 77, 69
1, 96347, Note_off_c, 0, 70, 65
1, 96356, Note_on_c, 0, 65, 33
1, 96360, Note_off_c, 0, 63, 66
1, 96391, Note_off_c, 0, 65, 50
1, 96567, Note_on_c, 0, 50, 68
1, 96570, Note_on_c, 0, 65, 81
1, 96572, Note_on_c, 0, 53, 69
1, 96581, Note_on_c, 0, 58, 78
1, 96657, Note_off_c, 0, 58, 63
1, 96688, Note_off_c, 0, 65, 63
1, 96736, Note_off_c, 0, 53, 61
1, 96923, Note_off_c, 0, 50, 14
1, 96929, Note_on_c, 0, 57, 52
1, 96940, Note_on_c, 0, 75, 80
1, 96940, Note_on_c, 0, 53, 51
1, 96942, Note_on_c, 0, 48, 48
1, 96951, Note_on_c, 0, 65, 64
1, 96955, Note_on_c, 0, 63, 66
1, 96956, Control_c, 0, 64, 77
1, 96971, Control_c, 0, 64, 0
1, 97050, Note_off_c, 0, 63, 63
1, 97053, Control_c, 0, 64, 27
1, 97053, Note_off_c, 0, 48, 64
1, 97056, Note_off_c, 0, 57, 66
1, 97056, Note_off_c, 0, 65, 63
1, 97062, Note_off_c, 0, 53, 64
1, 97068, Control_c, 0, 64, 67
1, 97083, Control_c, 0, 64, 86
1, 97097, Control_c, 0, 64, 127
1, 97098, Note_off_c, 0, 75, 64
1, 97413, Note_on_c, 0, 93, 63
1, 97415, Note_on_c, 0, 89, 60
1, 97417, Note_on_c, 0, 99, 64
1, 97420, Note_on_c, 0, 77, 54
1, 97426, Note_on_c, 0, 81, 45
1, 97427, Note_on_c, 0, 72, 42
1, 97430, Note_on_c, 0, 101, 26
1, 97435, Note_off_c, 0, 89, 62
1, 97444, Note_off_c, 0, 93, 66
1, 97448, Note_off_c, 0, 99, 66
1, 97450, Note_off_c, 0, 81, 59
1, 97483, Note_off_c, 0, 72, 0
1, 97485, Note_off_c, 0, 101, 29
1, 97499, Note_on_c, 0, 81, 54
1, 97501, Note_on_c, 0, 72, 31
1, 97501, Note_on_c, 0, 89, 49
1, 97501, Note_on_c, 0, 93, 56
1, 97515, Note_on_c, 0, 99, 45
1, 97518, Note_off_c, 0, 81, 63
1, 97521, Note_off_c, 0, 93, 64
1, 97525, Note_off_c, 0, 89, 56
1, 97526, Note_off_c, 0, 77, 58
1, 97542, Note_off_c, 0, 99, 54
1, 97563, Note_off_c, 0, 72, 0
1, 97571, Note_on_c, 0, 89, 78
1, 97573, Note_on_c, 0, 81, 67
1, 97575, Note_on_c, 0, 72, 48
1, 97575, Note_on_c, 0, 77, 62
1, 97579, Note_on_c, 0, 99, 47
1, 97590, Note_off_c, 0, 81, 68
1, 97597, Note_off_c, 0, 89, 67
1, 97604, Note_off_c, 0, 72, 65
1, 97605, Note_off_c, 0, 77, 66
1, 97605, Note_off_c, 0, 99, 55
1, 97616, Note_on_c, 0, 93, 11
1, 97657, Note_off_c, 0, 93, 33
1, 97827, Note_on_c, 0, 77, 66
1, 97830, Note_on_c, 0, 81, 44
1, 97835, Note_on_c, 0, 69, 59
1, 97846, Note_on_c, 0, 65, 51
1, 97848, Note_off_c, 0, 77, 64
1, 97849, Note_on_c, 0, 60, 55
1, 97849, Note_on_c, 0, 87, 39
1, 97853, Note_off_c, 0, 81, 58
1, 97857, Note_off_c, 0, 69, 64
1, 97871, Note_off_c, 0, 60, 60
1, 97872, Note_off_c, 0, 65, 56
1, 97878, Note_off_c, 0, 87, 47
1, 98125, Note_on_c, 0, 65, 58
1, 98131, Note_on_c, 0, 57, 42
1, 98134, Note_on_c, 0, 53, 49
1, 98140, Note_on_c, 0, 48, 40
1, 98144, Note_on_c, 0, 63, 51
1, 98183, Note_off_c, 0, 48, 63
1, 98197, Note_off_c, 0, 57, 59
1, 98222, Note_off_c, 0, 63, 61
1, 98228, Note_off_c, 0, 53, 55
1, 98237, Note_off_c, 0, 65, 63
1, 98577, Note_on_c, 0, 47, 39
1, 98579, Note_on_c, 0, 74, 52
1, 98586, Note_on_c, 0, 53, 34
1, 98601, Note_on_c, 0, 62, 37
1, 98601, Note_on_c, 0, 65, 41
1, 98609, Control_c, 0, 64, 89
1, 98617, Note_on_c, 0, 56, 37
1, 98624, Control_c, 0, 64, 62
1, 98639, Control_c, 0, 64, 0
1, 98713, Control_c, 0, 64, 47
1, 98728, Control_c, 0, 64, 66
1, 98742, Note_off_c, 0, 47, 58
1, 98743, Control_c, 0, 64, 81
1, 98747, Note_off_c, 0, 62, 64
1, 98755, Note_off_c, 0, 56, 58
1, 98756, Note_off_c, 0, 53, 57
1, 98758, Control_c, 0, 64, 127
1, 98767, Note_off_c, 0, 65, 63
1, 98800, Note_off_c, 0, 74, 65
1, 99125, Note_on_c, 0, 89, 58
1, 99126, Note_on_c, 0, 92, 60
1, 99134, Note_on_c, 0, 71, 48
1, 99135, Note_on_c, 0, 80, 48
1, 99136, Note_on_c, 0, 98, 50
1, 99137, Note_on_c, 0, 101, 37
1, 99138, Note_on_c, 0, 77, 51
1, 99145, Note_off_c, 0, 89, 60
1, 99151, Note_off_c, 0, 92, 64
1, 99157, Note_off_c, 0, 80, 59
1, 99164, Note_off_c, 0, 98, 55
1, 99189, Note_off_c, 0, 77, 0
1, 99194, Note_off_c, 0, 101, 0
1, 99212, Note_on_c, 0, 89, 47
1, 99212, Note_on_c, 0, 101, 17
1, 99212, Note_on_c, 0, 92, 62
1, 99212, Note_on_c, 0, 98, 48
1, 99224, Note_on_c, 0, 80, 60
1, 99226, Poly_aftertouch_c, 0, 77, 127
1, 99231, Note_off_c, 0, 92, 62
1, 99237, Note_off_c, 0, 89, 54
1, 99241, Note_off_c, 0, 80, 65
1, 99250, Note_off_c, 0, 98, 62
1, 99252, Poly_aftertouch_c, 0, 77, 0
1, 99253, Note_off_c, 0, 101, 48
1, 99267, Note_off_c, 0, 71, 49
1, 99317, Note_on_c, 0, 80, 66
1, 99319, Note_on_c, 0, 92, 66
1, 99321, Note_on_c, 0, 71, 45
1, 99326, Note_on_c, 0, 89, 65
1, 99335, Note_off_c, 0, 80, 65
1, 99336, Note_on_c, 0, 77, 46
1, 99349, Note_on_c, 0, 98, 37
1, 99352, Note_off_c, 0, 71, 65
1, 99352, Note_off_c, 0, 92, 65
1, 99355, Note_off_c, 0, 89, 66
1, 99361, Note_off_c, 0, 77, 36
1, 99385, Note_off_c, 0, 98, 43
1, 99665, Note_on_c, 0, 89, 61
1, 99683, Note_on_c, 0, 77, 48
1, 99689, Note_on_c, 0, 66, 43
1, 99690, Note_on_c, 0, 80, 40
1, 99692, Note_off_c, 0, 89, 64
1, 99694, Note_on_c, 0, 86, 37
1, 99704, Note_off_c, 0, 77, 57
1, 99717, Note_off_c, 0, 66, 55
1, 99717, Note_off_c, 0, 80, 53
1, 99725, Note_off_c, 0, 86, 46
1, 100112, Note_on_c, 0, 77, 50
1, 100118, Note_on_c, 0, 65, 40
1, 100136, Note_on_c, 0, 68, 37
1, 100137, Control_c, 0, 64, 77
1, 100139, Note_on_c, 0, 74, 41
1, 100144, Note_on_c, 0, 47, 37
1, 100144, Note_on_c, 0, 53, 32
1, 100148, Note_on_c, 0, 56, 31
1, 100152, Control_c, 0, 64, 60
1, 100166, Control_c, 0, 64, 28
1, 100181, Control_c, 0, 64, 18
1, 100196, Control_c, 0, 64, 39
1, 100211, Control_c, 0, 64, 57
1, 100226, Control_c, 0, 64, 66
1, 100240, Control_c, 0, 64, 74
1, 100255, Control_c, 0, 64, 85
1, 100270, Control_c, 0, 64, 99
1, 100285, Control_c, 0, 64, 119
1, 100297, Note_off_c, 0, 47, 51
1, 100298, Note_off_c, 0, 56, 51
1, 100300, Control_c, 0, 64, 127
1, 100306, Note_off_c, 0, 53, 51
1, 100326, Note_off_c, 0, 65, 57
1, 100332, Note_off_c, 0, 74, 53
1, 100348, Note_off_c, 0, 68, 44
1, 100356, Note_off_c, 0, 77, 60
1, 100684, Control_c, 0, 64, 86
1, 100699, Control_c, 0, 64, 67
1, 100716, Control_c, 0, 64, 40
1, 100730, Control_c, 0, 64, 0
1, 101093, Control_c, 0, 64, 23
1, 101107, Control_c, 0, 64, 39
1, 101122, Control_c, 0, 64, 49
1, 101137, Control_c, 0, 64, 54
1, 101152, Control_c, 0, 64, 58
1, 101167, Control_c, 0, 64, 60
1, 101182, Control_c, 0, 64, 62
1, 101197, Control_c, 0, 64, 64
1, 101198, Note_on_c, 0, 89, 51
1, 101203, Note_on_c, 0, 71, 33
1, 101212, Control_c, 0, 64, 65
1, 101212, Note_on_c, 0, 77, 33
1, 101212, Note_on_c, 0, 86, 50
1, 101227, Control_c, 0, 64, 68
1, 101238, Note_on_c, 0, 80, 32
1, 101242, Control_c, 0, 64, 72
1, 101245, Note_off_c, 0, 89, 64
1, 101250, Note_off_c, 0, 86, 65
1, 101252, Note_off_c, 0, 77, 64
1, 101256, Control_c, 0, 64, 78
1, 101260, Note_off_c, 0, 71, 64
1, 101271, Note_off_c, 0, 80, 61
1, 101271, Control_c, 0, 64, 86
1, 101286, Control_c, 0, 64, 102
1, 101300, Control_c, 0, 64, 127
1, 101574, Note_on_c, 0, 77, 63
1, 101587, Note_on_c, 0, 59, 52
1, 101591, Note_on_c, 0, 74, 33
1, 101594, Note_on_c, 0, 68, 57
1, 101604, Note_off_c, 0, 77, 66
1, 101608, Note_on_c, 0, 65, 13
1, 101614, Note_off_c, 0, 59, 63
1, 101621, Note_off_c, 0, 74, 44
1, 101627, Note_off_c, 0, 68, 64
1, 101653, Note_off_c, 0, 65, 40
1, 101853, Note_on_c, 0, 56, 48
1, 101854, Note_on_c, 0, 65, 59
1, 101862, Note_on_c, 0, 62, 54
1, 101867, Note_on_c, 0, 53, 42
1, 101871, Note_on_c, 0, 47, 23
1, 101879, Note_off_c, 0, 56, 56
1, 101889, Note_off_c, 0, 65, 65
1, 101890, Note_off_c, 0, 62, 63
1, 101897, Note_off_c, 0, 53, 53
1, 101912, Note_off_c, 0, 47, 42
1, 102079, Control_c, 0, 64, 78
1, 102094, Control_c, 0, 64, 51
1, 102108, Note_on_c, 0, 90, 84
1, 102109, Control_c, 0, 64, 45
1, 102116, Note_on_c, 0, 78, 80
1, 102122, Note_on_c, 0, 87, 58
1, 102123, Control_c, 0, 64, 55
1, 102127, Note_on_c, 0, 83, 63
1, 102128, Note_on_c, 0, 71, 63
1, 102138, Control_c, 0, 64, 65
1, 102139, Note_off_c, 0, 78, 70
1, 102151, Note_off_c, 0, 83, 67
1, 102152, Note_off_c, 0, 87, 66
1, 102153, Control_c, 0, 64, 81
1, 102155, Note_off_c, 0, 71, 67
1, 102165, Note_off_c, 0, 90, 64
1, 102168, Control_c, 0, 64, 127
1, 102372, Note_on_c, 0, 66, 62
1, 102372, Note_on_c, 0, 78, 71
1, 102376, Note_on_c, 0, 71, 63
1, 102402, Note_off_c, 0, 66, 64
1, 102402, Note_off_c, 0, 78, 68
1, 102403, Note_off_c, 0, 71, 68
1, 102410, Note_on_c, 0, 59, 9
1, 102453, Note_off_c, 0, 59, 39
1, 102609, Note_on_c, 0, 66, 55
1, 102618, Note_on_c, 0, 54, 55
1, 102619, Note_on_c, 0, 47, 38
1, 102638, Note_on_c, 0, 63, 30
1, 102646, Note_off_c, 0, 54, 64
1, 102654, Note_off_c, 0, 47, 46
1, 102655, Note_off_c, 0, 66, 62
1, 102671, Poly_aftertouch_c, 0, 59, 0
1, 102672, Note_off_c, 0, 63, 44
1, 102690, Poly_aftertouch_c, 0, 59, 0
1, 102857, Control_c, 0, 64, 95
1, 102872, Control_c, 0, 64, 63
1, 102887, Control_c, 0, 64, 23
1, 102901, Note_on_c, 0, 90, 80
1, 102902, Control_c, 0, 64, 25
1, 102911, Note_on_c, 0, 82, 56
1, 102917, Control_c, 0, 64, 49
1, 102920, Note_on_c, 0, 78, 57
1, 102921, Note_on_c, 0, 75, 64
1, 102932, Control_c, 0, 64, 68
1, 102944, Note_off_c, 0, 82, 67
1, 102947, Control_c, 0, 64, 101
1, 102952, Note_off_c, 0, 75, 65
1, 102954, Note_off_c, 0, 78, 66
1, 102958, Note_off_c, 0, 90, 64
1, 102961, Control_c, 0, 64, 127
1, 103191, Note_on_c, 0, 78, 62
1, 103194, Note_on_c, 0, 70, 58
1, 103209, Note_on_c, 0, 66, 41
1, 103209, Note_on_c, 0, 63, 39
1, 103211, Note_on_c, 0, 75, 23
1, 103223, Note_off_c, 0, 70, 65
1, 103223, Note_off_c, 0, 78, 66
1, 103238, Note_off_c, 0, 66, 53
1, 103239, Note_off_c, 0, 63, 49
1, 103248, Note_off_c, 0, 75, 39
1, 103467, Note_on_c, 0, 54, 53
1, 103477, Note_on_c, 0, 66, 55
1, 103477, Note_on_c, 0, 58, 31
1, 103481, Note_on_c, 0, 51, 41
1, 103486, Note_on_c, 0, 63, 33
1, 103505, Note_off_c, 0, 54, 64
1, 103513, Note_off_c, 0, 58, 44
1, 103516, Note_off_c, 0, 51, 46
1, 103516, Note_off_c, 0, 63, 52
1, 103519, Note_off_c, 0, 66, 63
1, 103790, Control_c, 0, 64, 102
1, 103805, Control_c, 0, 64, 69
1, 103820, Control_c, 0, 64, 54
1, 103823, Note_on_c, 0, 90, 73
1, 103835, Note_on_c, 0, 78, 57
1, 103835, Control_c, 0, 64, 54
1, 103839, Note_on_c, 0, 81, 61
1, 103844, Note_on_c, 0, 84, 54
1, 103845, Note_on_c, 0, 75, 51
1, 103850, Control_c, 0, 64, 60
1, 103865, Control_c, 0, 64, 68
1, 103866, Note_off_c, 0, 84, 56
1, 103880, Control_c, 0, 64, 81
1, 103881, Note_off_c, 0, 81, 65
1, 103885, Note_off_c, 0, 75, 64
1, 103892, Note_off_c, 0, 78, 63
1, 103893, Note_off_c, 0, 90, 62
1, 103895, Control_c, 0, 64, 127
1, 104160, Note_on_c, 0, 78, 59
1, 104166, Note_on_c, 0, 66, 45
1, 104169, Note_on_c, 0, 63, 44
1, 104169, Note_on_c, 0, 72, 43
1, 104172, Note_on_c, 0, 69, 52
1, 104194, Note_off_c, 0, 63, 58
1, 104195, Note_off_c, 0, 78, 66
1, 104196, Note_off_c, 0, 72, 61
1, 104196, Note_off_c, 0, 66, 62
1, 104202, Note_off_c, 0, 69, 65
1, 104452, Note_on_c, 0, 54, 48
1, 104452, Note_on_c, 0, 51, 51
1, 104461, Note_on_c, 0, 57, 36
1, 104462, Note_on_c, 0, 66, 52
1, 104468, Note_on_c, 0, 60, 34
1, 104493, Note_off_c, 0, 51, 63
1, 104493, Note_off_c, 0, 57, 51
1, 104494, Note_off_c, 0, 54, 62
1, 104512, Note_off_c, 0, 60, 64
1, 104543, Note_off_c, 0, 66, 60
1, 104822, Control_c, 0, 64, 78
1, 104836, Note_on_c, 0, 89, 59
1, 104837, Control_c, 0, 64, 59
1, 104847, Note_on_c, 0, 77, 47
1, 104851, Control_c, 0, 64, 44
1, 104858, Note_on_c, 0, 75, 42
1, 104858, Note_on_c, 0, 84, 45
1, 104866, Control_c, 0, 64, 48
1, 104869, Note_on_c, 0, 81, 56
1, 104881, Control_c, 0, 64, 57
1, 104896, Control_c, 0, 64, 65
1, 104911, Control_c, 0, 64, 73
1, 104914, Note_off_c, 0, 77, 63
1, 104919, Note_off_c, 0, 75, 62
1, 104922, Note_off_c, 0, 89, 64
1, 104922, Note_off_c, 0, 84, 63
1, 104923, Note_off_c, 0, 81, 65
1, 104926, Control_c, 0, 64, 89
1, 104941, Control_c, 0, 64, 127
1, 105216, Note_on_c, 0, 63, 53
1, 105218, Note_on_c, 0, 77, 56
1, 105232, Note_on_c, 0, 72, 41
1, 105234, Note_on_c, 0, 65, 46
1, 105237, Note_on_c, 0, 69, 46
1, 105268, Note_off_c, 0, 77, 62
1, 105274, Note_off_c, 0, 63, 61
1, 105275, Note_off_c, 0, 69, 63
1, 105276, Note_off_c, 0, 65, 65
1, 105276, Note_off_c, 0, 72, 65
1, 105762, Note_on_c, 0, 65, 47
1, 105772, Note_on_c, 0, 53, 31
1, 105778, Control_c, 0, 64, 86
1, 105790, Note_on_c, 0, 60, 35
1, 105793, Control_c, 0, 64, 65
1, 105805, Note_on_c, 0, 57, 33
1, 105808, Control_c, 0, 64, 37
1, 105823, Control_c, 0, 64, 0
1, 105826, Note_on_c, 0, 51, 24
1, 105838, Control_c, 0, 64, 21
1, 105852, Control_c, 0, 64, 46
1, 105867, Control_c, 0, 64, 61
1, 105882, Control_c, 0, 64, 66
1, 105897, Control_c, 0, 64, 74
1, 105900, Note_off_c, 0, 57, 62
1, 105912, Control_c, 0, 64, 81
1, 105917, Note_off_c, 0, 60, 56
1, 105920, Note_off_c, 0, 65, 61
1, 105926, Control_c, 0, 64, 89
1, 105941, Control_c, 0, 64, 95
1, 105956, Control_c, 0, 64, 100
1, 105963, Note_off_c, 0, 53, 53
1, 105970, Control_c, 0, 64, 104
1, 105974, Note_off_c, 0, 51, 38
1, 105985, Control_c, 0, 64, 116
1, 106008, Control_c, 0, 64, 127
1, 106379, Control_c, 0, 64, 80
1, 106394, Control_c, 0, 64, 64
1, 106408, Control_c, 0, 64, 56
1, 106409, Note_on_c, 0, 46, 38
1, 106423, Control_c, 0, 64, 57
1, 106438, Control_c, 0, 64, 61
1, 106453, Control_c, 0, 64, 66
1, 106468, Control_c, 0, 64, 75
1, 106482, Control_c, 0, 64, 88
1, 106497, Control_c, 0, 64, 105
1, 106501, Note_off_c, 0, 46, 56
1, 106508, Note_on_c, 0, 53, 47
1, 106512, Control_c, 0, 64, 127
1, 106558, Note_off_c, 0, 53, 59
1, 106571, Note_on_c, 0, 58, 54
1, 106627, Note_off_c, 0, 58, 57
1, 106647, Note_on_c, 0, 77, 43
1, 106649, Note_on_c, 0, 62, 47
1, 106674, Note_on_c, 0, 82, 62
1, 106703, Note_off_c, 0, 77, 59
1, 106709, Note_off_c, 0, 82, 63
1, 106718, Note_off_c, 0, 62, 60
1, 106749, Note_on_c, 0, 86, 52
1, 106758, Note_on_c, 0, 89, 74
1, 106788, Note_off_c, 0, 86, 64
1, 106804, Note_off_c, 0, 89, 62
1, 107485, Note_on_c, 0, 58, 38
1, 107485, Note_on_c, 0, 74, 39
1, 107487, Note_on_c, 0, 77, 43
1, 107504, Note_on_c, 0, 70, 30
1, 107528, Note_on_c, 0, 65, 16
1, 107534, Note_on_c, 0, 62, 13
1, 107541, Note_off_c, 0, 77, 58
1, 107543, Note_off_c, 0, 70, 50
1, 107545, Note_off_c, 0, 74, 56
1, 107572, Note_off_c, 0, 58, 51
1, 107579, Note_off_c, 0, 65, 45
1, 107589, Note_off_c, 0, 62, 45
1, 107654, Note_on_c, 0, 58, 6
1, 107659, Note_on_c, 0, 74, 27
1, 107674, Note_on_c, 0, 77, 22
1, 107675, Note_on_c, 0, 70, 14
1, 107681, Note_on_c, 0, 62, 15
1, 107701, Poly_aftertouch_c, 0, 65, 127
1, 107703, Note_off_c, 0, 74, 46
1, 107707, Note_off_c, 0, 58, 53
1, 107710, Note_off_c, 0, 77, 45
1, 107722, Note_off_c, 0, 70, 37
1, 107746, Poly_aftertouch_c, 0, 65, 0
1, 107796, Note_off_c, 0, 62, 0
1, 107822, Note_on_c, 0, 62, 7
1, 107832, Note_on_c, 0, 74, 34
1, 107847, Note_on_c, 0, 70, 43
1, 107847, Note_on_c, 0, 77, 35
1, 107859, Poly_aftertouch_c, 0, 65, 127
1, 107882, Note_on_c, 0, 58, 24
1, 107932, Note_off_c, 0, 77, 50
1, 107943, Note_off_c, 0, 70, 55
1, 107951, Note_off_c, 0, 74, 60
1, 107974, Poly_aftertouch_c, 0, 65, 0
1, 107987, Note_off_c, 0, 62, 50
1, 108028, Note_off_c, 0, 58, 35
1, 108730, Control_c, 0, 64, 86
1, 108744, Control_c, 0, 64, 68
1, 108759, Control_c, 0, 64, 62
1, 108767, Note_on_c, 0, 43, 36
1, 108788, Control_c, 0, 64, 63
1, 108801, Note_off_c, 0, 43, 56
1, 108803, Control_c, 0, 64, 66
1, 108818, Control_c, 0, 64, 72
1, 108833, Control_c, 0, 64, 81
1, 108840, Note_on_c, 0, 50, 49
1, 108843, Note_on_c, 0, 79, 47
1, 108848, Control_c, 0, 64, 95
1, 108863, Control_c, 0, 64, 127
1, 108903, Note_on_c, 0, 86, 56
1, 108936, Note_off_c, 0, 79, 50
1, 108938, Note_on_c, 0, 55, 32
1, 108953, Note_off_c, 0, 50, 50
1, 108965, Note_on_c, 0, 91, 74
1, 108998, Note_off_c, 0, 86, 64
1, 109001, Note_off_c, 0, 91, 67
1, 109003, Note_on_c, 0, 58, 45
1, 109003, Note_off_c, 0, 55, 63
1, 109031, Note_off_c, 0, 58, 56
1, 109326, Note_on_c, 0, 58, 47
1, 109327, Note_on_c, 0, 79, 52
1, 109338, Note_on_c, 0, 70, 45
1, 109356, Note_on_c, 0, 74, 31
1, 109356, Note_on_c, 0, 62, 35
1, 109369, Note_off_c, 0, 79, 62
1, 109372, Note_off_c, 0, 70, 58
1, 109379, Note_off_c, 0, 58, 61
1, 109392, Note_off_c, 0, 74, 48
1, 109403, Note_off_c, 0, 62, 45
1, 109465, Note_on_c, 0, 79, 56
1, 109470, Note_on_c, 0, 70, 51
1, 109481, Note_on_c, 0, 74, 42
1, 109487, Note_on_c, 0, 62, 37
1, 109487, Poly_aftertouch_c, 0, 67, 0
1, 109504, Note_off_c, 0, 79, 63
1, 109513, Note_off_c, 0, 70, 59
1, 109517, Note_on_c, 0, 58, 19
1, 109548, Poly_aftertouch_c, 0, 67, 0
1, 109548, Note_off_c, 0, 74, 52
1, 109555, Note_off_c, 0, 58, 45
1, 109645, Note_on_c, 0, 79, 59
1, 109649, Note_on_c, 0, 70, 36
1, 109658, Note_on_c, 0, 67, 49
1, 109665, Note_on_c, 0, 58, 44
1, 109666, Note_off_c, 0, 62, 23
1, 109675, Note_off_c, 0, 79, 67
1, 109680, Note_off_c, 0, 70, 51
1, 109681, Note_off_c, 0, 67, 58
1, 109696, Note_off_c, 0, 58, 64
1, 110013, Note_on_c, 0, 79, 51
1, 110050, Note_on_c, 0, 39, 44
1, 110062, Note_off_c, 0, 79, 41
1, 110078, Control_c, 0, 64, 92
1, 110092, Control_c, 0, 64, 69
1, 110098, Note_on_c, 0, 82, 32
1, 110104, Note_on_c, 0, 87, 56
1, 110107, Control_c, 0, 64, 62
1, 110120, Note_off_c, 0, 39, 56
1, 110122, Control_c, 0, 64, 62
1, 110131, Note_off_c, 0, 82, 54
1, 110137, Control_c, 0, 64, 65
1, 110151, Note_on_c, 0, 46, 40
1, 110152, Control_c, 0, 64, 70
1, 110166, Control_c, 0, 64, 81
1, 110172, Note_on_c, 0, 94, 70
1, 110181, Control_c, 0, 64, 110
1, 110190, Note_on_c, 0, 51, 52
1, 110196, Control_c, 0, 64, 127
1, 110206, Note_off_c, 0, 87, 64
1, 110208, Note_off_c, 0, 94, 62
1, 110214, Note_off_c, 0, 46, 55
1, 110235, Note_off_c, 0, 51, 60
1, 110242, Note_on_c, 0, 55, 43
1, 110273, Note_off_c, 0, 55, 58
1, 110733, Note_on_c, 0, 58, 35
1, 110736, Note_on_c, 0, 70, 30
1, 110738, Note_on_c, 0, 82, 33
1, 110740, Note_on_c, 0, 79, 43
1, 110761, Note_on_c, 0, 63, 25
1, 110769, Note_on_c, 0, 67, 14
1, 110777, Note_on_c, 0, 75, 6
1, 110794, Note_off_c, 0, 82, 45
1, 110798, Note_off_c, 0, 58, 56
1, 110801, Note_off_c, 0, 63, 51
1, 110803, Note_off_c, 0, 79, 57
1, 110812, Note_off_c, 0, 70, 40
1, 110813, Note_off_c, 0, 67, 49
1, 110822, Note_off_c, 0, 75, 37
1, 110936, Note_on_c, 0, 70, 43
1, 110944, Note_on_c, 0, 63, 33
1, 110948, Note_on_c, 0, 82, 29
1, 110949, Note_on_c, 0, 79, 42
1, 110953, Note_on_c, 0, 75, 28
1, 110968, Note_on_c, 0, 58, 21
1, 111020, Note_off_c, 0, 58, 48
1, 111020, Note_off_c, 0, 79, 56
1, 111022, Note_off_c, 0, 75, 43
1, 111025, Note_off_c, 0, 70, 50
1, 111031, Note_off_c, 0, 82, 40
1, 111034, Note_off_c, 0, 63, 51
1, 111189, Note_on_c, 0, 82, 9
1, 111200, Note_on_c, 0, 70, 28
1, 111201, Note_on_c, 0, 63, 12
1, 111204, Note_on_c, 0, 58, 31
1, 111204, Note_on_c, 0, 79, 31
1, 111231, Note_on_c, 0, 75, 27
1, 111258, Note_off_c, 0, 63, 48
1, 111287, Note_off_c, 0, 58, 60
1, 111451, Note_off_c, 0, 70, 39
1, 111486, Note_off_c, 0, 82, 44
1, 111541, Note_off_c, 0, 79, 40
1, 112210, Note_on_c, 0, 34, 43
1, 112250, Control_c, 0, 64, 85
1, 112265, Control_c, 0, 64, 66
1, 112271, Note_off_c, 0, 75, 48
1, 112280, Control_c, 0, 64, 51
1, 112295, Control_c, 0, 64, 46
1, 112310, Control_c, 0, 64, 51
1, 112325, Control_c, 0, 64, 61
1, 112339, Control_c, 0, 64, 67
1, 112354, Control_c, 0, 64, 76
1, 112369, Control_c, 0, 64, 89
1, 112384, Control_c, 0, 64, 108
1, 112399, Control_c, 0, 64, 127
1, 112606, Note_on_c, 0, 41, 36
1, 112791, Note_on_c, 0, 46, 37
1, 112895, Note_on_c, 0, 50, 44
1, 112949, Note_off_c, 0, 50, 56
1, 112983, Note_on_c, 0, 53, 42
1, 113053, Note_off_c, 0, 53, 60
1, 113081, Note_on_c, 0, 58, 57
1, 113120, Note_off_c, 0, 58, 65
1, 113201, Note_on_c, 0, 62, 45
1, 113237, Note_off_c, 0, 62, 53
1, 113275, Note_on_c, 0, 65, 51
1, 113352, Note_off_c, 0, 65, 61
1, 113383, Note_on_c, 0, 70, 55
1, 113409, Note_off_c, 0, 70, 65
1, 113466, Note_on_c, 0, 74, 66
1, 113553, Note_off_c, 0, 74, 56
1, 113553, Note_on_c, 0, 77, 67
1, 113624, Note_off_c, 0, 77, 63
1, 113650, Note_on_c, 0, 82, 59
1, 113676, Note_off_c, 0, 82, 67
1, 113747, Note_on_c, 0, 84, 42
1, 113749, Note_on_c, 0, 86, 57
1, 113788, Note_off_c, 0, 84, 56
1, 113791, Note_off_c, 0, 86, 58
1, 113841, Note_on_c, 0, 89, 41
1, 113845, Note_on_c, 0, 88, 16
1, 113867, Note_off_c, 0, 89, 51
1, 113870, Note_off_c, 0, 88, 48
1, 114036, Note_on_c, 0, 98, 65
1, 114080, Note_off_c, 0, 98, 64
1, 114353, Note_off_c, 0, 34, 40
1, 114378, Note_off_c, 0, 41, 39
1, 114396, Note_off_c, 0, 46, 39
1, 115377, Note_on_c, 0, 86, 43
1, 115386, Note_on_c, 0, 46, 29
1, 115386, Note_on_c, 0, 53, 32
1, 115386, Note_on_c, 0, 58, 27
1, 115389, Note_on_c, 0, 74, 19
1, 115400, Note_on_c, 0, 82, 13
1, 115419, Note_off_c, 0, 86, 56
1, 115430, Note_off_c, 0, 74, 46
1, 115444, Note_off_c, 0, 82, 40
1, 115448, Note_off_c, 0, 58, 46
1, 115457, Note_off_c, 0, 53, 48
1, 115458, Note_off_c, 0, 46, 41
1, 115535, Note_on_c, 0, 74, 41
1, 115537, Note_on_c, 0, 86, 46
1, 115551, Note_on_c, 0, 82, 40
1, 115556, Note_on_c, 0, 46, 25
1, 115565, Note_on_c, 0, 77, 40
1, 115573, Note_on_c, 0, 53, 22
1, 115574, Note_on_c, 0, 58, 21
1, 115589, Note_off_c, 0, 86, 59
1, 115590, Note_off_c, 0, 82, 50
1, 115591, Note_off_c, 0, 77, 55
1, 115592, Note_off_c, 0, 74, 55
1, 115627, Note_off_c, 0, 58, 46
1, 115630, Note_off_c, 0, 46, 41
1, 115639, Note_off_c, 0, 53, 41
1, 115721, Note_on_c, 0, 74, 46
1, 115723, Note_on_c, 0, 82, 37
1, 115735, Note_on_c, 0, 77, 37
1, 115737, Note_on_c, 0, 86, 48
1, 115776, Note_off_c, 0, 74, 58
1, 115780, Note_off_c, 0, 77, 62
1, 115785, Note_on_c, 0, 58, 3
1, 115785, Note_off_c, 0, 82, 58
1, 115805, Note_off_c, 0, 86, 54
1, 115824, Note_off_c, 0, 58, 34
1, 117185, Note_on_c, 0, 94, 37
1, 117187, Note_on_c, 0, 89, 29
1, 117195, Note_on_c, 0, 34, 33
1, 117195, Note_on_c, 0, 98, 37
1, 117198, Note_on_c, 0, 101, 27
1, 117205, Note_on_c, 0, 41, 20
1, 117260, Note_off_c, 0, 94, 55
1, 117267, Note_off_c, 0, 98, 49
1, 117276, Note_off_c, 0, 41, 47
1, 117280, Note_off_c, 0, 101, 39
1, 117285, Note_off_c, 0, 89, 37
1, 117302, Note_off_c, 0, 34, 37
1, 117423, Note_on_c, 0, 89, 37
1, 117429, Note_on_c, 0, 94, 40
1, 117429, Note_on_c, 0, 101, 29
1, 117435, Note_on_c, 0, 98, 36
1, 117453, Note_on_c, 0, 34, 21
1, 117461, Note_on_c, 0, 41, 13
1, 117502, Note_off_c, 0, 94, 53
1, 117519, Note_off_c, 0, 41, 46
1, 117523, Note_off_c, 0, 101, 39
1, 117524, Note_off_c, 0, 98, 37
1, 117526, Note_off_c, 0, 34, 41
1, 117526, Note_off_c, 0, 89, 40
1, 117727, Note_on_c, 0, 89, 34
1, 117728, Note_on_c, 0, 94, 36
1, 117739, Note_on_c, 0, 101, 22
1, 117742, Note_on_c, 0, 41, 15
1, 117747, Note_on_c, 0, 34, 14
1, 117748, Note_on_c, 0, 98, 27
1, 117784, Note_off_c, 0, 94, 56
1, 117787, Note_off_c, 0, 98, 50
1, 117790, Note_off_c, 0, 101, 47
1, 117800, Note_off_c, 0, 41, 48
1, 117808, Note_off_c, 0, 34, 45
1, 117811, Note_off_c, 0, 89, 38
1, 118462, Control_c, 0, 64, 123
1, 118477, Control_c, 0, 64, 121
1, 118492, Control_c, 0, 64, 119
1, 118507, Control_c, 0, 64, 118
1, 118522, Control_c, 0, 64, 116
1, 118536, Control_c, 0, 64, 114
1, 118551, Control_c, 0, 64, 112
1, 118566, Control_c, 0, 64, 110
1, 118581, Control_c, 0, 64, 109
1, 118596, Control_c, 0, 64, 108
1, 118611, Control_c, 0, 64, 108
1, 118641, Control_c, 0, 64, 107
1, 118670, Control_c, 0, 64, 107
1, 118700, Control_c, 0, 64, 106
1, 118715, Control_c, 0, 64, 105
1, 118736, Control_c, 0, 64, 104
1, 118751, Control_c, 0, 64, 104
1, 118766, Control_c, 0, 64, 103
1, 118781, Control_c, 0, 64, 102
1, 118811, Control_c, 0, 64, 102
1, 118826, Control_c, 0, 64, 101
1, 118855, Control_c, 0, 64, 100
1, 118870, Control_c, 0, 64, 100
1, 118885, Control_c, 0, 64, 99
1, 118900, Control_c, 0, 64, 98
1, 118915, Control_c, 0, 64, 97
1, 118929, Control_c, 0, 64, 96
1, 118944, Control_c, 0, 64, 96
1, 118959, Control_c, 0, 64, 95
1, 118974, Control_c, 0, 64, 94
1, 119003, Control_c, 0, 64, 94
1, 119033, Control_c, 0, 64, 93
1, 119048, Control_c, 0, 64, 93
1, 119062, Control_c, 0, 64, 92
1, 119078, Control_c, 0, 64, 92
1, 119093, Control_c, 0, 64, 91
1, 119123, Control_c, 0, 64, 90
1, 119138, Control_c, 0, 64, 90
1, 119152, Control_c, 0, 64, 89
1, 119167, Control_c, 0, 64, 89
1, 119182, Control_c, 0, 64, 88
1, 119212, Control_c, 0, 64, 88
1, 119226, Control_c, 0, 64, 87
1, 119241, Control_c, 0, 64, 87
1, 119256, Control_c, 0, 64, 86
1, 119271, Control_c, 0, 64, 86
1, 119285, Control_c, 0, 64, 85
1, 119300, Control_c, 0, 64, 85
1, 119330, Control_c, 0, 64, 84
1, 119345, Control_c, 0, 64, 84
1, 119359, Control_c, 0, 64, 83
1, 119374, Control_c, 0, 64, 83
1, 119389, Control_c, 0, 64, 82
1, 119404, Control_c, 0, 64, 81
1, 119419, Control_c, 0, 64, 81
1, 119434, Control_c, 0, 64, 80
1, 119449, Control_c, 0, 64, 80
1, 119464, Control_c, 0, 64, 79
1, 119485, Control_c, 0, 64, 79
1, 119500, Control_c, 0, 64, 78
1, 119515, Control_c, 0, 64, 78
1, 119530, Control_c, 0, 64, 77
1, 119545, Control_c, 0, 64, 77
1, 119559, Control_c, 0, 64, 76
1, 119574, Control_c, 0, 64, 75
1, 119589, Control_c, 0, 64, 74
1, 119604, Control_c, 0, 64, 73
1, 119619, Control_c, 0, 64, 72
1, 119634, Control_c, 0, 64, 70
1, 119649, Control_c, 0, 64, 68
1, 119664, Control_c, 0, 64, 65
1, 119678, Control_c, 0, 64, 59
1, 119693, Control_c, 0, 64, 44
1, 119708, Control_c, 0, 64, 0
1, 119783, End_track
0, 0, End_of_file
