0, 0, Header, 0, 1, 384
1, 0, Start_track
1, 0, Title_t, "Sonata No. 2--Serhii Morozov    "
1, 0, Text_t, "2006 International Piano-e-Competition Recital Round"
1, 0, Text_t, "St. Paul, Minnesota, July 2006"
1, 0, Text_t, "http://www.piano-e-competition.com/"
1, 0, Instrument_name_t, "Yamaha Disklavier Pro Mark IV concert grand piano"
1, 0, Sequencer_specific, 39, 67, 113, 0, 1, 0, 1, 0, 83, 111, 110, 97, 116, 97, 32, 78, 111, 46, 32, 50, 32, 32, 32, 32, 83, 101, 114, 104, 105, 105, 32, 77, 111, 114, 111, 122, 111, 118, 32, 32
1, 0, Sequencer_specific, 6, 67, 113, 0, 0, 0, 69
1, 0, System_exclusive, 21, 67, 113, 126, 21, 0, 2, 2, 0, 10, 10, 12, 4, 4, 10, 13, 10, 4, 0, 0, 1, 247
1, 0, Sequencer_specific, 5, 67, 123, 12, 2, 1
1, 0, Tempo, 512820
1, 0, Time_signature, 4, 2, 24, 8
1, 0, System_exclusive, 5, 126, 127, 9, 1, 247
1, 1, System_exclusive, 8, 67, 16, 76, 0, 0, 126, 0, 247
1, 2, System_exclusive, 8, 67, 16, 76, 8, 9, 7, 1, 247
1, 3, Control_c, 0, 0, 0
1, 4, Control_c, 0, 32, 0
1, 5, Program_c, 0, 0
1, 6, Control_c, 0, 7, 100
1, 95, Control_c, 0, 67, 15
1, 184, Control_c, 0, 67, 31
1, 273, Control_c, 0, 67, 46
1, 362, Control_c, 0, 67, 63
1, 452, Control_c, 0, 67, 77
1, 541, Control_c, 0, 67, 94
1, 630, Control_c, 0, 67, 108
1, 719, Control_c, 0, 67, 126
1, 906, Control_c, 0, 64, 56
1, 908, Note_on_c, 0, 32, 38
1, 921, Note_on_c, 0, 44, 37
1, 921, Control_c, 0, 64, 58
1, 925, Note_on_c, 0, 56, 41
1, 935, Note_on_c, 0, 51, 43
1, 936, Note_on_c, 0, 63, 47
1, 936, Control_c, 0, 64, 62
1, 941, Note_off_c, 0, 32, 48
1, 951, Control_c, 0, 64, 68
1, 952, Note_off_c, 0, 44, 55
1, 966, Control_c, 0, 64, 85
1, 980, Control_c, 0, 64, 127
1, 1019, Note_off_c, 0, 51, 58
1, 1083, Note_on_c, 0, 51, 32
1, 1095, Note_on_c, 0, 39, 48
1, 1155, Note_off_c, 0, 56, 34
1, 1166, Note_off_c, 0, 63, 57
1, 1244, Note_off_c, 0, 39, 25
1, 1278, Note_off_c, 0, 51, 18
1, 1622, Note_on_c, 0, 75, 61
1, 1628, Note_on_c, 0, 39, 37
1, 1636, Note_on_c, 0, 63, 46
1, 1650, Note_on_c, 0, 51, 32
1, 1662, Note_off_c, 0, 75, 56
1, 1665, Note_off_c, 0, 39, 50
1, 1686, Note_off_c, 0, 63, 60
1, 1690, Note_off_c, 0, 51, 51
1, 1987, Note_on_c, 0, 68, 59
1, 1996, Note_on_c, 0, 65, 45
1, 1999, Note_on_c, 0, 56, 44
1, 2009, Note_on_c, 0, 63, 42
1, 2020, Note_on_c, 0, 47, 22
1, 2023, Note_on_c, 0, 59, 23
1, 2187, Note_off_c, 0, 56, 34
1, 2219, Note_off_c, 0, 68, 37
1, 2285, Note_off_c, 0, 47, 44
1, 2288, Note_off_c, 0, 59, 52
1, 2392, Note_on_c, 0, 68, 46
1, 2419, Note_on_c, 0, 56, 28
1, 2462, Note_off_c, 0, 56, 49
1, 2485, Note_off_c, 0, 68, 45
1, 2757, Note_on_c, 0, 68, 38
1, 2793, Note_on_c, 0, 56, 29
1, 2833, Note_off_c, 0, 56, 46
1, 2956, Note_off_c, 0, 68, 37
1, 3096, Note_off_c, 0, 65, 36
1, 3123, Note_off_c, 0, 63, 41
1, 3916, Control_c, 0, 64, 94
1, 3930, Control_c, 0, 64, 76
1, 3945, Control_c, 0, 64, 63
1, 3960, Control_c, 0, 64, 53
1, 3975, Control_c, 0, 64, 50
1, 3984, Note_on_c, 0, 63, 52
1, 3984, Note_on_c, 0, 34, 39
1, 3987, Note_on_c, 0, 46, 49
1, 3990, Control_c, 0, 64, 51
1, 3999, Note_on_c, 0, 61, 47
1, 3999, Note_on_c, 0, 51, 45
1, 4005, Control_c, 0, 64, 57
1, 4007, Note_on_c, 0, 55, 36
1, 4016, Note_off_c, 0, 34, 58
1, 4017, Note_off_c, 0, 46, 62
1, 4020, Control_c, 0, 64, 64
1, 4041, Control_c, 0, 64, 77
1, 4047, Note_off_c, 0, 51, 60
1, 4057, Control_c, 0, 64, 114
1, 4072, Control_c, 0, 64, 127
1, 4103, Note_off_c, 0, 55, 32
1, 4133, Note_on_c, 0, 39, 60
1, 4137, Note_on_c, 0, 51, 60
1, 4170, Note_off_c, 0, 51, 61
1, 4172, Note_off_c, 0, 39, 60
1, 4255, Note_off_c, 0, 63, 57
1, 4278, Note_off_c, 0, 61, 56
1, 4673, Note_on_c, 0, 75, 61
1, 4687, Note_on_c, 0, 63, 55
1, 4700, Note_on_c, 0, 39, 28
1, 4702, Note_on_c, 0, 51, 35
1, 4708, Note_off_c, 0, 75, 64
1, 4721, Note_off_c, 0, 63, 65
1, 4732, Note_off_c, 0, 39, 47
1, 4739, Note_off_c, 0, 51, 46
1, 5068, Note_on_c, 0, 63, 50
1, 5070, Note_on_c, 0, 67, 56
1, 5078, Note_on_c, 0, 61, 50
1, 5078, Note_on_c, 0, 55, 46
1, 5081, Note_on_c, 0, 49, 50
1, 5150, Note_off_c, 0, 49, 55
1, 5156, Note_off_c, 0, 61, 57
1, 5288, Note_off_c, 0, 55, 36
1, 5344, Note_off_c, 0, 67, 34
1, 5561, Note_on_c, 0, 55, 46
1, 5567, Note_on_c, 0, 67, 49
1, 5610, Note_off_c, 0, 55, 55
1, 5651, Note_off_c, 0, 67, 51
1, 6017, Note_on_c, 0, 67, 34
1, 6022, Note_on_c, 0, 55, 27
1, 6089, Control_c, 0, 67, 118
1, 6104, Control_c, 0, 67, 104
1, 6118, Control_c, 0, 67, 90
1, 6133, Control_c, 0, 67, 77
1, 6142, Note_off_c, 0, 55, 39
1, 6148, Control_c, 0, 67, 65
1, 6163, Control_c, 0, 67, 53
1, 6178, Control_c, 0, 67, 42
1, 6193, Control_c, 0, 67, 32
1, 6208, Control_c, 0, 67, 22
1, 6223, Control_c, 0, 67, 0
1, 6387, Note_off_c, 0, 67, 28
1, 6523, Note_off_c, 0, 63, 61
1, 6838, Control_c, 0, 67, 19
1, 6867, Control_c, 0, 67, 21
1, 6912, Control_c, 0, 67, 23
1, 7001, Control_c, 0, 64, 98
1, 7016, Control_c, 0, 64, 83
1, 7016, Control_c, 0, 67, 26
1, 7038, Control_c, 0, 64, 70
1, 7038, Control_c, 0, 67, 28
1, 7052, Control_c, 0, 64, 61
1, 7052, Control_c, 0, 67, 31
1, 7067, Control_c, 0, 64, 50
1, 7067, Control_c, 0, 67, 34
1, 7082, Control_c, 0, 64, 38
1, 7082, Control_c, 0, 67, 37
1, 7097, Control_c, 0, 64, 0
1, 7097, Control_c, 0, 67, 40
1, 7111, Control_c, 0, 67, 43
1, 7126, Control_c, 0, 67, 49
1, 7141, Control_c, 0, 67, 56
1, 7156, Control_c, 0, 67, 63
1, 7171, Control_c, 0, 67, 69
1, 7186, Control_c, 0, 67, 76
1, 7200, Control_c, 0, 67, 81
1, 7215, Control_c, 0, 67, 86
1, 7230, Control_c, 0, 67, 90
1, 7245, Control_c, 0, 67, 93
1, 7261, Control_c, 0, 67, 97
1, 7276, Control_c, 0, 67, 102
1, 7290, Control_c, 0, 67, 106
1, 7305, Control_c, 0, 67, 109
1, 7320, Control_c, 0, 67, 111
1, 7350, Control_c, 0, 67, 114
1, 7379, Control_c, 0, 64, 39
1, 7379, Control_c, 0, 67, 117
1, 7394, Control_c, 0, 64, 57
1, 7394, Control_c, 0, 67, 122
1, 7398, Note_on_c, 0, 68, 53
1, 7399, Note_on_c, 0, 35, 22
1, 7407, Note_on_c, 0, 47, 32
1, 7409, Control_c, 0, 64, 66
1, 7409, Control_c, 0, 67, 127
1, 7410, Note_on_c, 0, 64, 37
1, 7415, Note_on_c, 0, 56, 41
1, 7423, Control_c, 0, 64, 74
1, 7438, Control_c, 0, 64, 88
1, 7442, Note_off_c, 0, 35, 28
1, 7444, Note_off_c, 0, 47, 41
1, 7453, Control_c, 0, 64, 107
1, 7468, Control_c, 0, 64, 127
1, 7549, Note_on_c, 0, 52, 51
1, 7559, Note_off_c, 0, 56, 39
1, 7569, Note_on_c, 0, 40, 23
1, 7576, Note_off_c, 0, 52, 56
1, 7609, Note_off_c, 0, 40, 40
1, 7794, Note_off_c, 0, 64, 38
1, 7794, Note_off_c, 0, 68, 40
1, 8008, Control_c, 0, 64, 107
1, 8023, Control_c, 0, 64, 79
1, 8038, Control_c, 0, 64, 66
1, 8039, Note_on_c, 0, 70, 64
1, 8041, Note_on_c, 0, 37, 64
1, 8043, Note_on_c, 0, 49, 64
1, 8052, Note_on_c, 0, 58, 51
1, 8053, Control_c, 0, 64, 67
1, 8057, Note_on_c, 0, 64, 47
1, 8065, Note_on_c, 0, 68, 48
1, 8068, Control_c, 0, 64, 75
1, 8074, Note_off_c, 0, 49, 65
1, 8076, Note_off_c, 0, 37, 63
1, 8083, Control_c, 0, 64, 92
1, 8098, Control_c, 0, 64, 127
1, 8181, Note_on_c, 0, 56, 68
1, 8184, Note_on_c, 0, 44, 60
1, 8211, Note_off_c, 0, 56, 63
1, 8214, Note_off_c, 0, 44, 65
1, 8232, Note_off_c, 0, 58, 43
1, 8338, Note_off_c, 0, 64, 33
1, 8443, Note_off_c, 0, 70, 38
1, 8528, Note_off_c, 0, 68, 44
1, 8609, Control_c, 0, 64, 94
1, 8623, Control_c, 0, 64, 63
1, 8635, Note_on_c, 0, 39, 68
1, 8637, Note_on_c, 0, 51, 67
1, 8638, Control_c, 0, 64, 42
1, 8644, Note_on_c, 0, 68, 64
1, 8646, Note_on_c, 0, 71, 73
1, 8656, Note_on_c, 0, 59, 62
1, 8668, Control_c, 0, 64, 55
1, 8673, Note_off_c, 0, 39, 63
1, 8674, Note_off_c, 0, 51, 63
1, 8682, Control_c, 0, 64, 66
1, 8697, Control_c, 0, 64, 80
1, 8712, Control_c, 0, 64, 127
1, 8768, Note_on_c, 0, 56, 73
1, 8775, Note_on_c, 0, 44, 66
1, 8820, Note_off_c, 0, 56, 49
1, 8856, Note_off_c, 0, 44, 62
1, 8892, Note_off_c, 0, 71, 61
1, 8950, Note_off_c, 0, 68, 62
1, 8958, Note_off_c, 0, 59, 60
1, 9187, Control_c, 0, 64, 104
1, 9202, Control_c, 0, 64, 68
1, 9216, Note_on_c, 0, 40, 65
1, 9217, Control_c, 0, 64, 46
1, 9219, Note_on_c, 0, 52, 68
1, 9219, Note_on_c, 0, 68, 76
1, 9224, Note_on_c, 0, 61, 65
1, 9228, Note_on_c, 0, 56, 67
1, 9232, Control_c, 0, 64, 30
1, 9246, Control_c, 0, 64, 42
1, 9261, Control_c, 0, 64, 60
1, 9275, Note_off_c, 0, 52, 61
1, 9278, Note_off_c, 0, 40, 60
1, 9284, Control_c, 0, 64, 72
1, 9295, Note_off_c, 0, 56, 54
1, 9299, Control_c, 0, 64, 98
1, 9313, Control_c, 0, 64, 127
1, 9382, Note_on_c, 0, 44, 58
1, 9384, Note_on_c, 0, 56, 65
1, 9460, Note_off_c, 0, 61, 59
1, 9497, Note_off_c, 0, 68, 62
1, 9500, Note_off_c, 0, 44, 55
1, 9567, Note_off_c, 0, 56, 38
1, 9820, Note_on_c, 0, 80, 88
1, 9833, Note_on_c, 0, 68, 68
1, 9844, Note_on_c, 0, 56, 50
1, 9845, Note_on_c, 0, 44, 35
1, 9858, Note_off_c, 0, 68, 68
1, 9864, Note_off_c, 0, 80, 61
1, 9880, Note_off_c, 0, 56, 60
1, 9886, Note_off_c, 0, 44, 48
1, 10178, Note_on_c, 0, 73, 79
1, 10190, Note_on_c, 0, 64, 49
1, 10193, Note_on_c, 0, 61, 58
1, 10193, Note_on_c, 0, 68, 59
1, 10194, Note_on_c, 0, 58, 49
1, 10196, Control_c, 0, 64, 122
1, 10198, Note_on_c, 0, 70, 57
1, 10201, Note_on_c, 0, 52, 48
1, 10210, Control_c, 0, 64, 96
1, 10225, Control_c, 0, 64, 94
1, 10240, Control_c, 0, 64, 97
1, 10255, Control_c, 0, 64, 127
1, 10297, Note_off_c, 0, 68, 0
1, 10297, Note_on_c, 0, 68, 3
1, 10379, Note_off_c, 0, 61, 39
1, 10404, Note_off_c, 0, 73, 37
1, 10617, Note_on_c, 0, 73, 58
1, 10629, Note_on_c, 0, 61, 37
1, 10667, Note_off_c, 0, 61, 48
1, 10693, Note_off_c, 0, 73, 52
1, 10965, Note_on_c, 0, 73, 46
1, 10971, Note_on_c, 0, 61, 39
1, 11045, Note_off_c, 0, 61, 36
1, 11122, Note_off_c, 0, 64, 34
1, 11298, Note_off_c, 0, 73, 43
1, 11386, Note_off_c, 0, 68, 42
1, 11410, Note_off_c, 0, 58, 50
1, 11413, Note_off_c, 0, 70, 41
1, 11419, Note_off_c, 0, 52, 56
1, 11797, Control_c, 0, 64, 122
1, 11812, Control_c, 0, 64, 94
1, 11827, Control_c, 0, 64, 77
1, 11842, Control_c, 0, 64, 66
1, 11856, Control_c, 0, 64, 55
1, 11871, Control_c, 0, 64, 41
1, 11886, Control_c, 0, 64, 0
1, 12257, Control_c, 0, 64, 46
1, 12272, Note_on_c, 0, 37, 50
1, 12275, Note_on_c, 0, 70, 50
1, 12279, Control_c, 0, 64, 60
1, 12283, Note_on_c, 0, 64, 37
1, 12283, Note_on_c, 0, 58, 47
1, 12284, Note_on_c, 0, 49, 51
1, 12284, Note_on_c, 0, 68, 41
1, 12294, Control_c, 0, 64, 68
1, 12309, Note_off_c, 0, 37, 61
1, 12309, Control_c, 0, 64, 76
1, 12320, Note_off_c, 0, 49, 64
1, 12323, Control_c, 0, 64, 94
1, 12338, Control_c, 0, 64, 127
1, 12454, Note_on_c, 0, 56, 55
1, 12466, Note_on_c, 0, 44, 36
1, 12487, Note_off_c, 0, 56, 61
1, 12504, Note_off_c, 0, 44, 53
1, 12513, Note_off_c, 0, 58, 36
1, 12803, Note_off_c, 0, 70, 35
1, 12864, Note_off_c, 0, 64, 20
1, 12866, Note_off_c, 0, 68, 28
1, 12947, Control_c, 0, 64, 82
1, 12962, Control_c, 0, 64, 65
1, 12969, Note_on_c, 0, 39, 65
1, 12974, Note_on_c, 0, 51, 63
1, 12977, Control_c, 0, 64, 57
1, 12980, Note_on_c, 0, 71, 66
1, 12981, Note_on_c, 0, 68, 64
1, 12983, Note_on_c, 0, 59, 58
1, 12992, Control_c, 0, 64, 60
1, 13007, Note_off_c, 0, 39, 62
1, 13007, Control_c, 0, 64, 67
1, 13009, Note_off_c, 0, 51, 66
1, 13028, Control_c, 0, 64, 77
1, 13043, Control_c, 0, 64, 99
1, 13058, Control_c, 0, 64, 127
1, 13109, Note_on_c, 0, 56, 70
1, 13117, Note_on_c, 0, 44, 64
1, 13143, Note_off_c, 0, 56, 57
1, 13163, Note_off_c, 0, 44, 59
1, 13180, Note_off_c, 0, 71, 58
1, 13233, Note_off_c, 0, 68, 61
1, 13246, Note_off_c, 0, 59, 56
1, 13487, Control_c, 0, 64, 91
1, 13502, Control_c, 0, 64, 63
1, 13513, Note_on_c, 0, 40, 65
1, 13517, Control_c, 0, 64, 47
1, 13518, Note_on_c, 0, 68, 76
1, 13520, Note_on_c, 0, 52, 70
1, 13526, Note_on_c, 0, 61, 59
1, 13527, Note_on_c, 0, 56, 61
1, 13532, Control_c, 0, 64, 51
1, 13547, Control_c, 0, 64, 61
1, 13552, Note_off_c, 0, 52, 66
1, 13553, Note_off_c, 0, 40, 63
1, 13562, Control_c, 0, 64, 73
1, 13577, Control_c, 0, 64, 101
1, 13579, Note_off_c, 0, 56, 55
1, 13592, Control_c, 0, 64, 127
1, 13660, Note_on_c, 0, 56, 70
1, 13666, Note_on_c, 0, 44, 60
1, 13729, Note_off_c, 0, 56, 56
1, 13741, Note_off_c, 0, 44, 61
1, 13841, Note_off_c, 0, 61, 56
1, 13881, Note_off_c, 0, 68, 63
1, 14059, Control_c, 0, 64, 92
1, 14074, Control_c, 0, 64, 61
1, 14080, Note_on_c, 0, 68, 77
1, 14086, Note_on_c, 0, 40, 58
1, 14088, Control_c, 0, 64, 0
1, 14091, Note_on_c, 0, 52, 63
1, 14095, Note_on_c, 0, 56, 58
1, 14099, Note_on_c, 0, 62, 57
1, 14117, Note_off_c, 0, 40, 63
1, 14118, Control_c, 0, 64, 52
1, 14125, Note_off_c, 0, 52, 63
1, 14133, Control_c, 0, 64, 69
1, 14135, Note_off_c, 0, 56, 60
1, 14148, Control_c, 0, 64, 94
1, 14161, Control_c, 0, 64, 127
1, 14258, Note_on_c, 0, 58, 71
1, 14263, Note_on_c, 0, 46, 65
1, 14491, Note_off_c, 0, 58, 58
1, 14767, Note_on_c, 0, 70, 76
1, 14776, Note_on_c, 0, 58, 59
1, 14800, Note_off_c, 0, 68, 56
1, 14810, Note_off_c, 0, 58, 64
1, 14858, Note_off_c, 0, 70, 61
1, 14867, Note_off_c, 0, 62, 52
1, 15421, Note_off_c, 0, 46, 54
1, 15462, Note_on_c, 0, 62, 54
1, 15470, Note_on_c, 0, 56, 46
1, 15473, Note_on_c, 0, 52, 40
1, 15478, Note_on_c, 0, 50, 42
1, 15483, Note_on_c, 0, 40, 44
1, 15497, Control_c, 0, 64, 92
1, 15512, Control_c, 0, 64, 73
1, 15527, Control_c, 0, 64, 60
1, 15541, Control_c, 0, 64, 48
1, 15556, Control_c, 0, 64, 38
1, 15571, Control_c, 0, 64, 34
1, 15586, Control_c, 0, 64, 31
1, 15616, Control_c, 0, 64, 35
1, 15630, Control_c, 0, 64, 43
1, 15645, Control_c, 0, 64, 55
1, 15660, Control_c, 0, 64, 63
1, 15675, Control_c, 0, 64, 69
1, 15690, Control_c, 0, 64, 76
1, 15705, Control_c, 0, 64, 84
1, 15720, Control_c, 0, 64, 92
1, 15721, Note_off_c, 0, 52, 36
1, 15735, Control_c, 0, 64, 107
1, 15749, Control_c, 0, 64, 127
1, 15750, Note_off_c, 0, 62, 55
1, 15794, Note_off_c, 0, 50, 37
1, 15869, Note_off_c, 0, 56, 37
1, 16190, Note_on_c, 0, 63, 47
1, 16203, Note_on_c, 0, 51, 43
1, 16203, Note_off_c, 0, 40, 52
1, 16206, Note_on_c, 0, 55, 42
1, 16221, Note_on_c, 0, 39, 44
1, 16246, Control_c, 0, 64, 100
1, 16261, Control_c, 0, 64, 80
1, 16276, Control_c, 0, 64, 67
1, 16290, Control_c, 0, 64, 54
1, 16305, Control_c, 0, 64, 35
1, 16320, Control_c, 0, 64, 0
1, 16409, Control_c, 0, 64, 40
1, 16423, Control_c, 0, 64, 54
1, 16438, Control_c, 0, 64, 62
1, 16453, Control_c, 0, 64, 66
1, 16468, Control_c, 0, 64, 70
1, 16483, Control_c, 0, 64, 74
1, 16498, Control_c, 0, 64, 80
1, 16513, Control_c, 0, 64, 86
1, 16528, Control_c, 0, 64, 92
1, 16543, Control_c, 0, 64, 98
1, 16558, Control_c, 0, 64, 102
1, 16571, Note_off_c, 0, 51, 52
1, 16572, Control_c, 0, 64, 104
1, 16596, Note_off_c, 0, 55, 38
1, 16602, Control_c, 0, 64, 106
1, 16686, Note_on_c, 0, 49, 43
1, 16691, Note_on_c, 0, 37, 47
1, 16720, Control_c, 0, 64, 108
1, 16722, Note_off_c, 0, 39, 31
1, 16847, Control_c, 0, 64, 113
1, 16862, Note_off_c, 0, 63, 34
1, 16862, Control_c, 0, 64, 127
1, 16987, Note_off_c, 0, 49, 41
1, 16995, Control_c, 0, 64, 88
1, 17005, Note_on_c, 0, 64, 46
1, 17010, Control_c, 0, 64, 72
1, 17023, Note_on_c, 0, 56, 36
1, 17025, Control_c, 0, 64, 63
1, 17026, Note_on_c, 0, 52, 33
1, 17039, Control_c, 0, 64, 59
1, 17069, Control_c, 0, 64, 61
1, 17084, Control_c, 0, 64, 64
1, 17099, Control_c, 0, 64, 69
1, 17113, Control_c, 0, 64, 75
1, 17128, Control_c, 0, 64, 82
1, 17143, Control_c, 0, 64, 89
1, 17158, Control_c, 0, 64, 97
1, 17173, Control_c, 0, 64, 105
1, 17184, Note_off_c, 0, 37, 49
1, 17187, Note_on_c, 0, 47, 44
1, 17187, Control_c, 0, 64, 111
1, 17202, Note_on_c, 0, 35, 38
1, 17202, Control_c, 0, 64, 120
1, 17217, Control_c, 0, 64, 127
1, 17227, Note_off_c, 0, 47, 62
1, 17249, Note_off_c, 0, 52, 40
1, 17298, Note_off_c, 0, 64, 56
1, 17302, Note_off_c, 0, 56, 50
1, 17374, Note_off_c, 0, 35, 39
1, 17376, Note_on_c, 0, 46, 45
1, 17378, Note_on_c, 0, 34, 45
1, 17500, Note_off_c, 0, 46, 58
1, 17525, Note_off_c, 0, 34, 54
1, 17586, Note_on_c, 0, 68, 67
1, 17595, Note_on_c, 0, 64, 54
1, 17600, Note_on_c, 0, 56, 52
1, 17603, Note_on_c, 0, 47, 48
1, 17610, Control_c, 0, 64, 100
1, 17611, Note_on_c, 0, 35, 51
1, 17625, Control_c, 0, 64, 77
1, 17640, Control_c, 0, 64, 65
1, 17655, Control_c, 0, 64, 56
1, 17669, Control_c, 0, 64, 54
1, 17684, Control_c, 0, 64, 56
1, 17699, Control_c, 0, 64, 60
1, 17714, Control_c, 0, 64, 64
1, 17729, Control_c, 0, 64, 69
1, 17744, Control_c, 0, 64, 77
1, 17759, Control_c, 0, 64, 89
1, 17774, Control_c, 0, 64, 106
1, 17783, Note_off_c, 0, 47, 62
1, 17789, Control_c, 0, 64, 127
1, 17893, Note_off_c, 0, 56, 54
1, 17906, Note_off_c, 0, 35, 53
1, 17929, Note_on_c, 0, 32, 56
1, 17938, Note_on_c, 0, 44, 53
1, 17958, Note_off_c, 0, 32, 56
1, 17966, Note_off_c, 0, 44, 60
1, 17981, Note_off_c, 0, 64, 59
1, 17991, Note_off_c, 0, 68, 32
1, 18165, Note_on_c, 0, 70, 70
1, 18166, Note_on_c, 0, 51, 59
1, 18176, Note_on_c, 0, 39, 59
1, 18178, Note_on_c, 0, 67, 49
1, 18181, Note_on_c, 0, 63, 51
1, 18182, Note_on_c, 0, 58, 50
1, 18188, Control_c, 0, 64, 93
1, 18203, Control_c, 0, 64, 69
1, 18218, Control_c, 0, 64, 53
1, 18233, Control_c, 0, 64, 36
1, 18248, Control_c, 0, 64, 0
1, 18284, Control_c, 0, 64, 31
1, 18299, Control_c, 0, 64, 45
1, 18314, Control_c, 0, 64, 58
1, 18329, Control_c, 0, 64, 66
1, 18343, Control_c, 0, 64, 74
1, 18349, Note_off_c, 0, 51, 59
1, 18358, Control_c, 0, 64, 83
1, 18373, Control_c, 0, 64, 93
1, 18388, Control_c, 0, 64, 118
1, 18403, Control_c, 0, 64, 127
1, 18459, Note_off_c, 0, 67, 57
1, 18487, Note_off_c, 0, 39, 51
1, 18515, Note_on_c, 0, 49, 62
1, 18516, Note_on_c, 0, 37, 61
1, 18538, Note_off_c, 0, 63, 51
1, 18547, Note_off_c, 0, 58, 55
1, 18646, Note_off_c, 0, 70, 44
1, 18683, Note_off_c, 0, 49, 62
1, 18715, Control_c, 0, 64, 81
1, 18721, Note_on_c, 0, 68, 63
1, 18721, Note_on_c, 0, 71, 71
1, 18722, Note_on_c, 0, 59, 62
1, 18729, Note_on_c, 0, 64, 56
1, 18730, Control_c, 0, 64, 64
1, 18745, Control_c, 0, 64, 55
1, 18759, Control_c, 0, 64, 56
1, 18774, Control_c, 0, 64, 62
1, 18789, Control_c, 0, 64, 69
1, 18803, Control_c, 0, 64, 79
1, 18818, Control_c, 0, 64, 93
1, 18833, Control_c, 0, 64, 117
1, 18848, Control_c, 0, 64, 127
1, 18877, Note_off_c, 0, 37, 57
1, 18885, Note_on_c, 0, 47, 67
1, 18889, Note_on_c, 0, 35, 66
1, 18905, Note_off_c, 0, 59, 61
1, 18940, Note_off_c, 0, 47, 62
1, 18945, Note_off_c, 0, 64, 61
1, 18970, Note_off_c, 0, 71, 63
1, 18980, Note_off_c, 0, 68, 63
1, 19036, Note_off_c, 0, 35, 59
1, 19056, Note_on_c, 0, 46, 66
1, 19059, Note_on_c, 0, 34, 61
1, 19154, Note_off_c, 0, 46, 60
1, 19187, Note_off_c, 0, 34, 51
1, 19254, Note_on_c, 0, 35, 53
1, 19258, Note_on_c, 0, 47, 52
1, 19261, Note_on_c, 0, 76, 81
1, 19264, Note_on_c, 0, 68, 70
1, 19270, Note_on_c, 0, 64, 66
1, 19315, Control_c, 0, 64, 84
1, 19330, Control_c, 0, 64, 62
1, 19345, Control_c, 0, 64, 32
1, 19360, Control_c, 0, 64, 0
1, 19434, Control_c, 0, 64, 37
1, 19449, Control_c, 0, 64, 56
1, 19458, Note_off_c, 0, 47, 63
1, 19464, Control_c, 0, 64, 66
1, 19479, Control_c, 0, 64, 72
1, 19494, Control_c, 0, 64, 81
1, 19508, Control_c, 0, 64, 88
1, 19523, Control_c, 0, 64, 99
1, 19538, Control_c, 0, 64, 116
1, 19552, Control_c, 0, 64, 127
1, 19581, Note_off_c, 0, 35, 52
1, 19610, Note_on_c, 0, 32, 57
1, 19611, Note_on_c, 0, 44, 57
1, 19638, Note_off_c, 0, 44, 64
1, 19640, Note_off_c, 0, 32, 55
1, 19892, Note_on_c, 0, 37, 61
1, 19893, Note_on_c, 0, 49, 58
1, 19901, Control_c, 0, 64, 122
1, 19915, Control_c, 0, 64, 81
1, 19930, Control_c, 0, 64, 65
1, 19945, Control_c, 0, 64, 54
1, 19959, Control_c, 0, 64, 51
1, 19974, Control_c, 0, 64, 54
1, 19983, Note_off_c, 0, 49, 64
1, 19989, Control_c, 0, 64, 60
1, 20004, Control_c, 0, 64, 64
1, 20019, Control_c, 0, 64, 70
1, 20035, Control_c, 0, 64, 77
1, 20050, Control_c, 0, 64, 85
1, 20061, Note_off_c, 0, 37, 60
1, 20064, Control_c, 0, 64, 92
1, 20079, Control_c, 0, 64, 100
1, 20080, Note_on_c, 0, 35, 64
1, 20084, Note_on_c, 0, 47, 59
1, 20094, Control_c, 0, 64, 112
1, 20109, Control_c, 0, 64, 127
1, 20123, Note_off_c, 0, 47, 64
1, 20179, Note_off_c, 0, 35, 55
1, 20217, Note_on_c, 0, 46, 69
1, 20224, Note_on_c, 0, 34, 64
1, 20263, Note_off_c, 0, 64, 52
1, 20299, Note_off_c, 0, 68, 49
1, 20308, Note_off_c, 0, 76, 57
1, 20317, Note_off_c, 0, 46, 61
1, 20364, Note_off_c, 0, 34, 60
1, 20401, Note_on_c, 0, 47, 56
1, 20405, Note_on_c, 0, 35, 66
1, 20406, Control_c, 0, 64, 77
1, 20409, Note_on_c, 0, 64, 56
1, 20412, Note_on_c, 0, 68, 68
1, 20413, Note_on_c, 0, 76, 81
1, 20421, Control_c, 0, 64, 59
1, 20436, Control_c, 0, 64, 42
1, 20451, Control_c, 0, 64, 39
1, 20465, Control_c, 0, 64, 45
1, 20480, Control_c, 0, 64, 57
1, 20495, Control_c, 0, 64, 64
1, 20517, Control_c, 0, 64, 73
1, 20531, Control_c, 0, 64, 90
1, 20546, Control_c, 0, 64, 127
1, 20596, Note_off_c, 0, 47, 62
1, 20663, Note_off_c, 0, 35, 59
1, 20717, Note_on_c, 0, 32, 64
1, 20722, Note_on_c, 0, 44, 74
1, 20746, Note_off_c, 0, 32, 64
1, 20767, Note_off_c, 0, 44, 62
1, 20783, Control_c, 0, 67, 116
1, 20798, Control_c, 0, 67, 94
1, 20813, Control_c, 0, 67, 66
1, 20829, Control_c, 0, 67, 37
1, 20844, Control_c, 0, 67, 0
1, 20847, Note_off_c, 0, 64, 60
1, 20856, Note_off_c, 0, 68, 62
1, 20856, Note_off_c, 0, 76, 59
1, 20918, Note_on_c, 0, 49, 72
1, 20918, Control_c, 0, 64, 81
1, 20920, Note_on_c, 0, 76, 73
1, 20922, Note_on_c, 0, 69, 74
1, 20927, Note_on_c, 0, 37, 64
1, 20933, Note_on_c, 0, 64, 59
1, 20933, Control_c, 0, 64, 59
1, 20948, Control_c, 0, 64, 37
1, 20962, Control_c, 0, 64, 36
1, 20977, Control_c, 0, 64, 48
1, 20992, Control_c, 0, 64, 62
1, 21006, Control_c, 0, 64, 74
1, 21021, Control_c, 0, 64, 106
1, 21036, Control_c, 0, 64, 127
1, 21059, Note_off_c, 0, 49, 62
1, 21125, Note_off_c, 0, 37, 59
1, 21225, Note_on_c, 0, 32, 59
1, 21225, Note_on_c, 0, 44, 69
1, 21260, Note_off_c, 0, 44, 66
1, 21264, Note_off_c, 0, 32, 62
1, 21343, Note_off_c, 0, 64, 53
1, 21354, Note_off_c, 0, 76, 55
1, 21366, Note_off_c, 0, 69, 60
1, 21434, Note_on_c, 0, 50, 72
1, 21439, Note_on_c, 0, 38, 69
1, 21440, Note_on_c, 0, 76, 86
1, 21442, Note_on_c, 0, 70, 73
1, 21443, Control_c, 0, 64, 75
1, 21448, Note_on_c, 0, 64, 71
1, 21458, Control_c, 0, 64, 54
1, 21473, Control_c, 0, 64, 31
1, 21488, Control_c, 0, 64, 33
1, 21503, Control_c, 0, 64, 47
1, 21518, Control_c, 0, 64, 60
1, 21532, Control_c, 0, 64, 70
1, 21547, Control_c, 0, 64, 87
1, 21562, Control_c, 0, 64, 127
1, 21579, Note_off_c, 0, 50, 59
1, 21604, Note_off_c, 0, 38, 62
1, 21750, Note_on_c, 0, 44, 75
1, 21754, Note_on_c, 0, 32, 69
1, 21773, Note_off_c, 0, 76, 60
1, 21782, Note_off_c, 0, 44, 66
1, 21786, Note_off_c, 0, 32, 63
1, 21826, Note_off_c, 0, 64, 58
1, 22013, Control_c, 0, 64, 76
1, 22017, Note_on_c, 0, 75, 77
1, 22021, Note_on_c, 0, 51, 74
1, 22025, Note_on_c, 0, 39, 69
1, 22025, Note_on_c, 0, 63, 67
1, 22028, Control_c, 0, 64, 53
1, 22028, Note_on_c, 0, 67, 60
1, 22042, Control_c, 0, 64, 0
1, 22055, Note_off_c, 0, 70, 34
1, 22102, Control_c, 0, 64, 48
1, 22117, Control_c, 0, 64, 65
1, 22132, Control_c, 0, 64, 78
1, 22138, Note_off_c, 0, 51, 62
1, 22147, Control_c, 0, 64, 127
1, 22181, Note_off_c, 0, 39, 60
1, 22353, Control_c, 0, 64, 93
1, 22368, Control_c, 0, 64, 68
1, 22371, Note_on_c, 0, 27, 78
1, 22372, Note_on_c, 0, 39, 76
1, 22383, Control_c, 0, 64, 57
1, 22399, Control_c, 0, 64, 62
1, 22414, Control_c, 0, 64, 71
1, 22430, Control_c, 0, 64, 89
1, 22434, Note_off_c, 0, 27, 63
1, 22445, Control_c, 0, 64, 127
1, 22445, Note_off_c, 0, 39, 62
1, 22525, Note_off_c, 0, 67, 64
1, 22525, Note_off_c, 0, 75, 63
1, 22526, Note_off_c, 0, 63, 61
1, 22607, Control_c, 0, 67, 19
1, 22637, Control_c, 0, 67, 22
1, 22666, Control_c, 0, 67, 25
1, 22681, Control_c, 0, 67, 28
1, 22696, Control_c, 0, 67, 31
1, 22711, Control_c, 0, 67, 35
1, 22725, Control_c, 0, 67, 40
1, 22740, Control_c, 0, 67, 48
1, 22763, Control_c, 0, 67, 58
1, 22777, Control_c, 0, 67, 68
1, 22792, Control_c, 0, 67, 78
1, 22807, Control_c, 0, 67, 86
1, 22822, Control_c, 0, 67, 93
1, 22837, Control_c, 0, 67, 99
1, 22851, Control_c, 0, 67, 105
1, 22866, Control_c, 0, 67, 111
1, 22881, Control_c, 0, 67, 116
1, 22896, Control_c, 0, 67, 120
1, 22911, Control_c, 0, 67, 124
1, 22925, Control_c, 0, 67, 127
1, 23044, Control_c, 0, 64, 89
1, 23059, Control_c, 0, 64, 71
1, 23074, Control_c, 0, 64, 54
1, 23089, Control_c, 0, 64, 0
1, 24194, Control_c, 0, 64, 31
1, 24195, Note_on_c, 0, 39, 46
1, 24199, Note_on_c, 0, 70, 51
1, 24208, Note_on_c, 0, 63, 37
1, 24209, Note_on_c, 0, 51, 38
1, 24209, Control_c, 0, 64, 50
1, 24218, Note_on_c, 0, 58, 43
1, 24223, Control_c, 0, 64, 65
1, 24228, Note_off_c, 0, 39, 60
1, 24238, Control_c, 0, 64, 82
1, 24254, Note_off_c, 0, 51, 63
1, 24260, Control_c, 0, 64, 127
1, 24278, Note_off_c, 0, 58, 57
1, 24386, Note_on_c, 0, 58, 49
1, 24401, Note_on_c, 0, 46, 39
1, 24438, Note_off_c, 0, 63, 52
1, 24460, Note_off_c, 0, 70, 60
1, 24475, Note_off_c, 0, 58, 0
1, 24512, Poly_aftertouch_c, 0, 58, 127
1, 24614, Poly_aftertouch_c, 0, 58, 0
1, 24630, Note_off_c, 0, 46, 41
1, 24925, Note_on_c, 0, 82, 78
1, 24932, Note_on_c, 0, 46, 49
1, 24946, Note_on_c, 0, 58, 36
1, 24949, Note_on_c, 0, 70, 52
1, 24959, Note_off_c, 0, 46, 60
1, 24976, Note_off_c, 0, 58, 58
1, 24979, Note_off_c, 0, 82, 61
1, 24982, Note_off_c, 0, 70, 63
1, 25244, Note_on_c, 0, 75, 64
1, 25257, Note_on_c, 0, 63, 54
1, 25260, Note_on_c, 0, 72, 56
1, 25262, Note_on_c, 0, 54, 54
1, 25262, Note_on_c, 0, 70, 46
1, 25265, Note_on_c, 0, 66, 47
1, 25428, Note_off_c, 0, 75, 51
1, 25434, Note_off_c, 0, 63, 35
1, 25652, Note_on_c, 0, 75, 49
1, 25661, Note_on_c, 0, 63, 42
1, 25709, Note_off_c, 0, 63, 49
1, 25724, Note_off_c, 0, 75, 51
1, 26007, Note_on_c, 0, 75, 39
1, 26022, Note_on_c, 0, 63, 23
1, 26091, Note_off_c, 0, 63, 37
1, 26129, Note_off_c, 0, 66, 52
1, 26174, Note_off_c, 0, 75, 40
1, 26223, Note_off_c, 0, 54, 59
1, 26340, Note_off_c, 0, 72, 40
1, 26344, Note_off_c, 0, 70, 42
1, 26877, Control_c, 0, 64, 106
1, 26892, Control_c, 0, 64, 90
1, 26907, Control_c, 0, 64, 77
1, 26922, Control_c, 0, 64, 68
1, 26937, Control_c, 0, 64, 59
1, 26951, Control_c, 0, 64, 50
1, 26966, Control_c, 0, 64, 40
1, 26981, Control_c, 0, 64, 0
1, 27180, Note_on_c, 0, 41, 45
1, 27187, Note_on_c, 0, 70, 49
1, 27188, Note_on_c, 0, 53, 45
1, 27188, Control_c, 0, 64, 48
1, 27190, Note_on_c, 0, 62, 41
1, 27197, Note_on_c, 0, 58, 46
1, 27197, Note_on_c, 0, 68, 45
1, 27203, Control_c, 0, 64, 65
1, 27208, Note_off_c, 0, 41, 52
1, 27219, Control_c, 0, 64, 80
1, 27220, Note_off_c, 0, 53, 63
1, 27234, Control_c, 0, 64, 127
1, 27237, Note_off_c, 0, 58, 57
1, 27340, Note_on_c, 0, 58, 53
1, 27353, Note_on_c, 0, 46, 40
1, 27381, Note_off_c, 0, 62, 41
1, 27384, Note_off_c, 0, 58, 54
1, 27408, Note_off_c, 0, 46, 42
1, 27452, Note_off_c, 0, 70, 59
1, 27473, Note_off_c, 0, 68, 61
1, 27843, Note_on_c, 0, 82, 69
1, 27853, Note_on_c, 0, 46, 43
1, 27853, Note_on_c, 0, 70, 66
1, 27866, Note_on_c, 0, 58, 41
1, 27882, Note_off_c, 0, 46, 56
1, 27888, Note_off_c, 0, 70, 60
1, 27891, Note_off_c, 0, 82, 61
1, 27895, Note_off_c, 0, 58, 59
1, 28211, Note_on_c, 0, 74, 61
1, 28224, Note_on_c, 0, 70, 53
1, 28225, Note_on_c, 0, 62, 50
1, 28228, Note_on_c, 0, 56, 47
1, 28234, Note_on_c, 0, 68, 41
1, 28271, Note_off_c, 0, 56, 57
1, 28272, Note_off_c, 0, 68, 51
1, 28365, Note_off_c, 0, 62, 34
1, 28426, Note_off_c, 0, 74, 40
1, 28702, Note_on_c, 0, 74, 45
1, 28711, Note_on_c, 0, 62, 40
1, 28767, Control_c, 0, 67, 124
1, 28779, Note_off_c, 0, 62, 51
1, 28782, Control_c, 0, 67, 114
1, 28797, Control_c, 0, 67, 103
1, 28803, Note_off_c, 0, 74, 53
1, 28812, Control_c, 0, 67, 91
1, 28827, Control_c, 0, 67, 79
1, 28842, Control_c, 0, 67, 69
1, 28857, Control_c, 0, 67, 60
1, 28872, Control_c, 0, 67, 51
1, 28887, Control_c, 0, 67, 42
1, 28901, Control_c, 0, 67, 33
1, 28916, Control_c, 0, 67, 23
1, 28931, Control_c, 0, 67, 0
1, 29165, Note_on_c, 0, 74, 39
1, 29173, Note_on_c, 0, 62, 27
1, 29323, Note_off_c, 0, 62, 41
1, 29358, Note_off_c, 0, 74, 34
1, 29636, Control_c, 0, 67, 19
1, 29665, Control_c, 0, 67, 21
1, 29724, Control_c, 0, 67, 23
1, 29743, Note_off_c, 0, 70, 34
1, 29754, Control_c, 0, 67, 27
1, 29769, Control_c, 0, 67, 30
1, 29784, Control_c, 0, 67, 32
1, 29799, Control_c, 0, 67, 34
1, 29814, Control_c, 0, 67, 36
1, 29829, Control_c, 0, 67, 39
1, 29843, Control_c, 0, 67, 42
1, 29858, Control_c, 0, 67, 46
1, 29873, Control_c, 0, 67, 50
1, 29887, Control_c, 0, 67, 54
1, 29902, Control_c, 0, 67, 58
1, 29917, Control_c, 0, 67, 62
1, 29932, Control_c, 0, 67, 66
1, 29947, Control_c, 0, 67, 71
1, 29961, Control_c, 0, 67, 75
1, 29976, Control_c, 0, 67, 81
1, 29991, Control_c, 0, 67, 86
1, 30006, Control_c, 0, 67, 91
1, 30021, Control_c, 0, 67, 95
1, 30035, Control_c, 0, 67, 99
1, 30050, Control_c, 0, 67, 103
1, 30065, Control_c, 0, 67, 106
1, 30080, Control_c, 0, 67, 110
1, 30094, Control_c, 0, 67, 113
1, 30109, Control_c, 0, 64, 109
1, 30109, Control_c, 0, 67, 117
1, 30124, Control_c, 0, 64, 87
1, 30124, Control_c, 0, 67, 119
1, 30139, Control_c, 0, 64, 73
1, 30139, Control_c, 0, 67, 122
1, 30154, Control_c, 0, 64, 60
1, 30154, Control_c, 0, 67, 124
1, 30168, Control_c, 0, 64, 46
1, 30183, Control_c, 0, 64, 0
1, 30183, Control_c, 0, 67, 127
1, 30749, Note_on_c, 0, 42, 31
1, 31044, Control_c, 0, 64, 32
1, 31059, Control_c, 0, 64, 35
1, 31074, Control_c, 0, 64, 38
1, 31089, Control_c, 0, 64, 41
1, 31104, Control_c, 0, 64, 45
1, 31118, Control_c, 0, 64, 48
1, 31133, Control_c, 0, 64, 51
1, 31148, Control_c, 0, 64, 53
1, 31163, Control_c, 0, 64, 55
1, 31164, Note_on_c, 0, 75, 46
1, 31176, Note_on_c, 0, 71, 38
1, 31178, Control_c, 0, 64, 57
1, 31188, Note_on_c, 0, 66, 33
1, 31192, Control_c, 0, 64, 60
1, 31195, Note_on_c, 0, 47, 23
1, 31207, Control_c, 0, 64, 62
1, 31223, Control_c, 0, 64, 65
1, 31238, Control_c, 0, 64, 70
1, 31253, Control_c, 0, 64, 80
1, 31267, Control_c, 0, 64, 97
1, 31282, Control_c, 0, 64, 127
1, 31379, Note_off_c, 0, 42, 41
1, 31444, Note_off_c, 0, 71, 42
1, 31474, Note_off_c, 0, 47, 41
1, 31507, Note_on_c, 0, 54, 38
1, 31519, Note_off_c, 0, 66, 57
1, 31547, Note_off_c, 0, 54, 60
1, 31766, Note_on_c, 0, 73, 57
1, 31780, Note_on_c, 0, 64, 41
1, 31781, Note_on_c, 0, 66, 40
1, 31790, Note_off_c, 0, 75, 36
1, 31797, Note_on_c, 0, 47, 33
1, 31977, Note_off_c, 0, 64, 52
1, 32000, Note_on_c, 0, 54, 48
1, 32016, Note_off_c, 0, 66, 40
1, 32183, Note_on_c, 0, 71, 56
1, 32188, Note_off_c, 0, 54, 35
1, 32193, Note_on_c, 0, 63, 51
1, 32198, Note_on_c, 0, 59, 39
1, 32201, Note_on_c, 0, 66, 36
1, 32206, Note_off_c, 0, 47, 24
1, 32219, Note_off_c, 0, 73, 24
1, 32237, Note_off_c, 0, 63, 59
1, 32271, Note_off_c, 0, 59, 43
1, 32274, Note_off_c, 0, 66, 40
1, 32359, Note_off_c, 0, 71, 36
1, 32372, Note_on_c, 0, 70, 65
1, 32383, Note_on_c, 0, 54, 44
1, 32383, Note_on_c, 0, 66, 37
1, 32387, Note_on_c, 0, 61, 43
1, 32419, Note_off_c, 0, 61, 54
1, 32449, Note_off_c, 0, 66, 45
1, 32564, Note_on_c, 0, 71, 68
1, 32573, Note_on_c, 0, 59, 41
1, 32594, Note_on_c, 0, 63, 32
1, 32595, Note_off_c, 0, 70, 30
1, 32595, Note_off_c, 0, 59, 61
1, 32597, Note_off_c, 0, 54, 60
1, 32647, Note_off_c, 0, 63, 46
1, 32739, Note_off_c, 0, 71, 58
1, 32741, Note_on_c, 0, 66, 48
1, 32765, Note_off_c, 0, 66, 56
1, 32956, Note_on_c, 0, 75, 60
1, 32976, Note_on_c, 0, 71, 48
1, 32977, Note_on_c, 0, 44, 45
1, 32981, Note_on_c, 0, 63, 36
1, 33017, Control_c, 0, 64, 109
1, 33031, Control_c, 0, 64, 80
1, 33046, Control_c, 0, 64, 62
1, 33061, Control_c, 0, 64, 47
1, 33076, Control_c, 0, 64, 35
1, 33091, Control_c, 0, 64, 31
1, 33120, Control_c, 0, 64, 35
1, 33135, Control_c, 0, 64, 46
1, 33150, Control_c, 0, 64, 57
1, 33157, Note_on_c, 0, 51, 45
1, 33165, Control_c, 0, 64, 66
1, 33179, Control_c, 0, 64, 78
1, 33194, Control_c, 0, 64, 116
1, 33209, Control_c, 0, 64, 127
1, 33219, Note_off_c, 0, 44, 46
1, 33342, Note_on_c, 0, 59, 44
1, 33379, Note_off_c, 0, 75, 52
1, 33382, Note_off_c, 0, 71, 42
1, 33382, Note_off_c, 0, 63, 46
1, 33435, Note_off_c, 0, 51, 34
1, 33513, Note_off_c, 0, 59, 42
1, 33522, Note_on_c, 0, 75, 65
1, 33549, Note_on_c, 0, 53, 34
1, 33810, Note_off_c, 0, 75, 51
1, 33841, Note_on_c, 0, 63, 52
1, 33856, Note_on_c, 0, 59, 34
1, 33899, Note_off_c, 0, 59, 59
1, 33942, Note_off_c, 0, 53, 39
1, 34033, Note_off_c, 0, 63, 56
1, 34115, Note_on_c, 0, 63, 47
1, 34172, Note_off_c, 0, 63, 56
1, 34300, Note_on_c, 0, 63, 41
1, 34333, Note_off_c, 0, 63, 52
1, 34334, Note_on_c, 0, 59, 29
1, 34479, Note_off_c, 0, 59, 41
1, 34502, Note_on_c, 0, 51, 40
1, 34735, Note_off_c, 0, 51, 39
1, 34738, Note_on_c, 0, 44, 40
1, 35010, Control_c, 0, 64, 106
1, 35012, Note_on_c, 0, 46, 46
1, 35025, Control_c, 0, 64, 79
1, 35040, Control_c, 0, 64, 60
1, 35051, Note_off_c, 0, 44, 36
1, 35055, Control_c, 0, 64, 40
1, 35070, Control_c, 0, 64, 0
1, 35307, Control_c, 0, 64, 37
1, 35312, Note_on_c, 0, 78, 65
1, 35322, Control_c, 0, 64, 52
1, 35336, Note_on_c, 0, 75, 40
1, 35337, Control_c, 0, 64, 61
1, 35340, Note_on_c, 0, 70, 44
1, 35352, Control_c, 0, 64, 65
1, 35358, Note_on_c, 0, 51, 29
1, 35367, Control_c, 0, 64, 70
1, 35382, Control_c, 0, 64, 78
1, 35397, Control_c, 0, 64, 92
1, 35409, Note_off_c, 0, 46, 37
1, 35412, Control_c, 0, 64, 127
1, 35577, Note_off_c, 0, 51, 50
1, 35589, Note_off_c, 0, 75, 51
1, 35609, Note_on_c, 0, 58, 39
1, 35650, Note_off_c, 0, 70, 36
1, 35657, Note_off_c, 0, 58, 58
1, 35792, Note_off_c, 0, 78, 61
1, 35799, Note_on_c, 0, 77, 61
1, 35817, Note_on_c, 0, 68, 53
1, 35829, Note_on_c, 0, 51, 35
1, 35881, Poly_aftertouch_c, 0, 70, 127
1, 35993, Note_off_c, 0, 68, 60
1, 36004, Note_on_c, 0, 58, 50
1, 36043, Poly_aftertouch_c, 0, 70, 0
1, 36115, Note_off_c, 0, 51, 36
1, 36158, Note_off_c, 0, 58, 59
1, 36174, Note_off_c, 0, 77, 56
1, 36181, Note_on_c, 0, 75, 58
1, 36190, Note_on_c, 0, 66, 43
1, 36203, Note_on_c, 0, 63, 28
1, 36204, Note_on_c, 0, 70, 25
1, 36246, Note_off_c, 0, 66, 58
1, 36309, Note_off_c, 0, 75, 57
1, 36330, Note_off_c, 0, 63, 34
1, 36349, Note_off_c, 0, 70, 0
1, 36357, Note_on_c, 0, 74, 68
1, 36360, Note_on_c, 0, 58, 43
1, 36366, Note_on_c, 0, 65, 55
1, 36386, Poly_aftertouch_c, 0, 70, 127
1, 36396, Note_off_c, 0, 65, 60
1, 36415, Poly_aftertouch_c, 0, 70, 0
1, 36485, Note_off_c, 0, 74, 62
1, 36538, Note_on_c, 0, 75, 70
1, 36545, Note_on_c, 0, 63, 38
1, 36559, Note_on_c, 0, 66, 42
1, 36563, Note_off_c, 0, 58, 59
1, 36575, Note_off_c, 0, 63, 55
1, 36610, Note_off_c, 0, 66, 41
1, 36693, Note_off_c, 0, 75, 54
1, 36707, Note_on_c, 0, 70, 66
1, 36747, Note_off_c, 0, 70, 54
1, 36920, Note_on_c, 0, 78, 76
1, 36933, Note_on_c, 0, 47, 51
1, 36934, Note_on_c, 0, 69, 58
1, 36935, Note_on_c, 0, 63, 59
1, 36938, Control_c, 0, 64, 119
1, 36953, Control_c, 0, 64, 80
1, 36968, Control_c, 0, 64, 63
1, 36990, Control_c, 0, 64, 48
1, 37004, Control_c, 0, 64, 41
1, 37019, Control_c, 0, 64, 42
1, 37034, Control_c, 0, 64, 48
1, 37049, Control_c, 0, 64, 57
1, 37064, Control_c, 0, 64, 65
1, 37078, Control_c, 0, 64, 75
1, 37084, Note_off_c, 0, 47, 58
1, 37093, Control_c, 0, 64, 102
1, 37108, Control_c, 0, 64, 127
1, 37111, Note_on_c, 0, 54, 61
1, 37153, Note_off_c, 0, 63, 53
1, 37237, Note_off_c, 0, 69, 58
1, 37244, Note_off_c, 0, 54, 62
1, 37281, Note_on_c, 0, 63, 59
1, 37295, Note_off_c, 0, 78, 60
1, 37422, Note_off_c, 0, 63, 51
1, 37466, Note_on_c, 0, 78, 76
1, 37485, Note_on_c, 0, 59, 38
1, 37776, Note_off_c, 0, 59, 60
1, 37778, Note_on_c, 0, 71, 59
1, 37793, Note_on_c, 0, 63, 46
1, 37871, Note_off_c, 0, 78, 36
1, 37910, Note_off_c, 0, 71, 59
1, 37935, Note_off_c, 0, 63, 33
1, 37998, Note_on_c, 0, 71, 56
1, 38079, Note_off_c, 0, 71, 59
1, 38153, Note_on_c, 0, 63, 53
1, 38158, Note_on_c, 0, 71, 49
1, 38226, Note_off_c, 0, 63, 60
1, 38229, Note_off_c, 0, 71, 60
1, 38318, Note_on_c, 0, 54, 59
1, 38490, Note_off_c, 0, 54, 58
1, 38496, Note_on_c, 0, 47, 58
1, 38529, Note_off_c, 0, 47, 65
1, 38733, Note_on_c, 0, 80, 81
1, 38734, Note_on_c, 0, 40, 66
1, 38753, Note_on_c, 0, 64, 45
1, 38755, Control_c, 0, 64, 88
1, 38756, Note_on_c, 0, 71, 39
1, 38770, Control_c, 0, 64, 66
1, 38784, Control_c, 0, 64, 52
1, 38799, Control_c, 0, 64, 45
1, 38814, Control_c, 0, 64, 49
1, 38829, Control_c, 0, 64, 57
1, 38844, Control_c, 0, 64, 63
1, 38858, Control_c, 0, 64, 70
1, 38873, Control_c, 0, 64, 91
1, 38887, Control_c, 0, 64, 127
1, 38922, Note_off_c, 0, 40, 60
1, 38947, Note_on_c, 0, 47, 55
1, 38995, Note_off_c, 0, 47, 63
1, 39036, Poly_aftertouch_c, 0, 73, 127
1, 39119, Note_on_c, 0, 59, 53
1, 39156, Note_off_c, 0, 64, 39
1, 39200, Poly_aftertouch_c, 0, 73, 0
1, 39211, Note_off_c, 0, 80, 46
1, 39244, Note_off_c, 0, 59, 53
1, 39245, Note_off_c, 0, 71, 41
1, 39313, Note_on_c, 0, 80, 82
1, 39326, Note_on_c, 0, 47, 46
1, 39332, Note_on_c, 0, 76, 61
1, 39343, Note_on_c, 0, 71, 23
1, 39384, Note_off_c, 0, 71, 51
1, 39573, Note_off_c, 0, 47, 43
1, 39573, Note_off_c, 0, 80, 39
1, 39578, Note_on_c, 0, 68, 69
1, 39594, Note_off_c, 0, 76, 60
1, 39600, Note_on_c, 0, 52, 47
1, 39698, Note_off_c, 0, 52, 49
1, 39704, Note_off_c, 0, 68, 61
1, 39789, Note_on_c, 0, 68, 58
1, 39798, Note_on_c, 0, 64, 44
1, 39843, Note_off_c, 0, 68, 57
1, 39904, Note_off_c, 0, 64, 54
1, 39956, Note_on_c, 0, 68, 50
1, 39963, Note_on_c, 0, 52, 45
1, 40014, Note_off_c, 0, 68, 54
1, 40041, Note_off_c, 0, 52, 51
1, 40144, Note_on_c, 0, 59, 47
1, 40175, Note_off_c, 0, 59, 65
1, 40322, Note_on_c, 0, 71, 50
1, 40369, Note_off_c, 0, 71, 49
1, 40581, Note_on_c, 0, 79, 66
1, 40586, Note_on_c, 0, 37, 48
1, 40593, Control_c, 0, 64, 90
1, 40602, Note_on_c, 0, 71, 46
1, 40608, Control_c, 0, 64, 67
1, 40622, Control_c, 0, 64, 54
1, 40624, Note_on_c, 0, 64, 7
1, 40637, Control_c, 0, 64, 44
1, 40652, Control_c, 0, 64, 41
1, 40667, Control_c, 0, 64, 42
1, 40682, Control_c, 0, 64, 47
1, 40697, Control_c, 0, 64, 55
1, 40712, Control_c, 0, 64, 64
1, 40734, Control_c, 0, 64, 73
1, 40746, Note_off_c, 0, 37, 53
1, 40749, Control_c, 0, 64, 94
1, 40763, Control_c, 0, 64, 127
1, 40785, Note_on_c, 0, 52, 50
1, 40869, Note_off_c, 0, 64, 40
1, 40889, Note_off_c, 0, 52, 55
1, 40959, Note_off_c, 0, 79, 49
1, 40993, Note_on_c, 0, 59, 43
1, 41064, Note_off_c, 0, 71, 32
1, 41195, Note_off_c, 0, 59, 34
1, 41205, Note_on_c, 0, 79, 61
1, 41216, Note_on_c, 0, 76, 53
1, 41221, Note_on_c, 0, 49, 40
1, 41415, Note_off_c, 0, 76, 55
1, 41428, Note_off_c, 0, 79, 50
1, 41490, Note_on_c, 0, 67, 51
1, 41496, Note_off_c, 0, 49, 43
1, 41516, Note_on_c, 0, 59, 35
1, 41624, Note_off_c, 0, 67, 56
1, 41718, Note_off_c, 0, 59, 40
1, 41744, Note_on_c, 0, 67, 39
1, 41773, Note_on_c, 0, 64, 20
1, 41803, Note_off_c, 0, 67, 41
1, 41904, Note_off_c, 0, 64, 36
1, 41937, Note_on_c, 0, 67, 44
1, 41954, Note_on_c, 0, 59, 25
1, 41963, Note_off_c, 0, 67, 58
1, 42187, Note_on_c, 0, 64, 28
1, 42233, Note_off_c, 0, 64, 51
1, 42283, Note_off_c, 0, 59, 41
1, 42501, Note_on_c, 0, 71, 41
1, 42584, Note_off_c, 0, 71, 50
1, 42816, Note_on_c, 0, 42, 56
1, 42840, Control_c, 0, 64, 120
1, 42855, Control_c, 0, 64, 79
1, 42869, Control_c, 0, 64, 61
1, 42884, Control_c, 0, 64, 44
1, 42899, Control_c, 0, 64, 37
1, 42914, Control_c, 0, 64, 38
1, 42929, Control_c, 0, 64, 45
1, 42943, Control_c, 0, 64, 56
1, 42958, Control_c, 0, 64, 64
1, 42980, Control_c, 0, 64, 73
1, 42995, Control_c, 0, 64, 89
1, 43010, Control_c, 0, 64, 127
1, 43025, Note_on_c, 0, 51, 56
1, 43028, Note_off_c, 0, 42, 58
1, 43157, Note_off_c, 0, 51, 60
1, 43191, Note_on_c, 0, 66, 59
1, 43209, Note_on_c, 0, 59, 35
1, 43287, Note_off_c, 0, 59, 53
1, 43311, Note_off_c, 0, 66, 57
1, 43350, Note_on_c, 0, 75, 69
1, 43365, Note_on_c, 0, 54, 56
1, 43464, Note_off_c, 0, 54, 51
1, 43505, Note_on_c, 0, 70, 69
1, 43514, Control_c, 0, 64, 106
1, 43529, Control_c, 0, 64, 100
1, 43535, Note_on_c, 0, 66, 49
1, 43559, Control_c, 0, 64, 103
1, 43573, Control_c, 0, 64, 127
1, 43652, Note_off_c, 0, 66, 47
1, 43656, Note_on_c, 0, 71, 75
1, 43681, Note_on_c, 0, 63, 51
1, 43752, Note_off_c, 0, 71, 57
1, 43757, Note_off_c, 0, 70, 37
1, 43776, Note_off_c, 0, 75, 48
1, 43788, Note_off_c, 0, 63, 54
1, 43806, Note_on_c, 0, 80, 84
1, 43818, Note_on_c, 0, 59, 42
1, 44041, Control_c, 0, 64, 112
1, 44049, Note_on_c, 0, 78, 77
1, 44056, Note_on_c, 0, 63, 49
1, 44056, Note_on_c, 0, 71, 50
1, 44056, Control_c, 0, 64, 83
1, 44071, Control_c, 0, 64, 72
1, 44082, Note_off_c, 0, 59, 41
1, 44086, Control_c, 0, 64, 71
1, 44101, Control_c, 0, 64, 77
1, 44115, Control_c, 0, 64, 90
1, 44130, Control_c, 0, 64, 127
1, 44140, Note_off_c, 0, 80, 31
1, 44164, Note_off_c, 0, 71, 60
1, 44179, Note_off_c, 0, 63, 60
1, 44262, Note_on_c, 0, 76, 73
1, 44322, Control_c, 0, 67, 112
1, 44328, Note_off_c, 0, 78, 50
1, 44337, Control_c, 0, 67, 96
1, 44352, Control_c, 0, 67, 79
1, 44367, Control_c, 0, 67, 61
1, 44382, Control_c, 0, 67, 45
1, 44396, Control_c, 0, 67, 27
1, 44411, Control_c, 0, 67, 0
1, 44492, Note_off_c, 0, 76, 59
1, 44512, Note_on_c, 0, 75, 73
1, 44542, Note_off_c, 0, 75, 61
1, 44620, Note_on_c, 0, 75, 64
1, 44656, Control_c, 0, 67, 19
1, 44670, Control_c, 0, 67, 22
1, 44700, Control_c, 0, 64, 78
1, 44700, Control_c, 0, 67, 24
1, 44715, Control_c, 0, 64, 58
1, 44730, Control_c, 0, 64, 34
1, 44730, Control_c, 0, 67, 26
1, 44745, Control_c, 0, 64, 0
1, 44760, Control_c, 0, 64, 31
1, 44760, Control_c, 0, 67, 31
1, 44775, Control_c, 0, 64, 43
1, 44775, Control_c, 0, 67, 36
1, 44778, Note_on_c, 0, 54, 50
1, 44790, Control_c, 0, 64, 54
1, 44790, Control_c, 0, 67, 40
1, 44805, Control_c, 0, 64, 63
1, 44805, Control_c, 0, 67, 47
1, 44819, Control_c, 0, 64, 73
1, 44819, Control_c, 0, 67, 53
1, 44834, Control_c, 0, 64, 92
1, 44834, Control_c, 0, 67, 61
1, 44848, Note_off_c, 0, 54, 56
1, 44849, Control_c, 0, 64, 127
1, 44849, Control_c, 0, 67, 69
1, 44864, Control_c, 0, 67, 76
1, 44879, Control_c, 0, 67, 82
1, 44894, Control_c, 0, 67, 87
1, 44909, Control_c, 0, 67, 92
1, 44918, Note_on_c, 0, 72, 74
1, 44924, Control_c, 0, 67, 97
1, 44930, Note_on_c, 0, 64, 48
1, 44938, Control_c, 0, 67, 103
1, 44953, Control_c, 0, 67, 107
1, 44968, Control_c, 0, 67, 112
1, 44980, Note_off_c, 0, 75, 62
1, 44983, Control_c, 0, 67, 115
1, 44998, Control_c, 0, 67, 117
1, 45012, Control_c, 0, 67, 119
1, 45016, Note_off_c, 0, 64, 60
1, 45042, Control_c, 0, 67, 122
1, 45058, Note_on_c, 0, 70, 59
1, 45071, Control_c, 0, 67, 124
1, 45206, Note_on_c, 0, 66, 52
1, 45206, Note_off_c, 0, 70, 37
1, 45345, Control_c, 0, 67, 126
1, 45347, Note_on_c, 0, 75, 74
1, 45353, Note_on_c, 0, 64, 41
1, 45385, Note_off_c, 0, 72, 61
1, 45399, Note_off_c, 0, 66, 31
1, 45420, Note_off_c, 0, 64, 59
1, 45600, Note_on_c, 0, 78, 54
1, 45620, Note_off_c, 0, 78, 62
1, 45834, Note_off_c, 0, 75, 59
1, 45846, Note_on_c, 0, 73, 62
1, 46030, Note_off_c, 0, 73, 54
1, 46037, Note_on_c, 0, 75, 59
1, 46332, Note_on_c, 0, 71, 51
1, 46336, Note_off_c, 0, 75, 52
1, 46348, Note_on_c, 0, 56, 42
1, 46349, Note_on_c, 0, 63, 37
1, 46376, Control_c, 0, 64, 112
1, 46392, Control_c, 0, 64, 81
1, 46407, Control_c, 0, 64, 68
1, 46422, Control_c, 0, 64, 61
1, 46436, Control_c, 0, 64, 56
1, 46466, Control_c, 0, 64, 57
1, 46481, Control_c, 0, 64, 60
1, 46496, Control_c, 0, 64, 64
1, 46510, Control_c, 0, 64, 69
1, 46525, Control_c, 0, 64, 76
1, 46540, Control_c, 0, 64, 84
1, 46545, Note_on_c, 0, 78, 66
1, 46555, Control_c, 0, 64, 93
1, 46570, Control_c, 0, 64, 101
1, 46585, Control_c, 0, 64, 110
1, 46599, Control_c, 0, 64, 127
1, 46619, Note_off_c, 0, 71, 53
1, 46714, Note_on_c, 0, 77, 67
1, 46720, Note_off_c, 0, 78, 62
1, 46745, Note_off_c, 0, 63, 36
1, 46887, Note_off_c, 0, 56, 55
1, 46907, Note_off_c, 0, 77, 59
1, 46913, Note_on_c, 0, 75, 61
1, 46917, Note_on_c, 0, 63, 33
1, 46917, Note_on_c, 0, 66, 38
1, 46918, Control_c, 0, 64, 122
1, 46923, Note_on_c, 0, 58, 40
1, 46932, Note_on_c, 0, 51, 37
1, 46933, Control_c, 0, 64, 83
1, 46948, Control_c, 0, 64, 67
1, 46963, Control_c, 0, 64, 58
1, 46978, Control_c, 0, 64, 52
1, 46992, Control_c, 0, 64, 51
1, 47007, Control_c, 0, 64, 53
1, 47022, Control_c, 0, 64, 55
1, 47033, Note_off_c, 0, 66, 44
1, 47036, Control_c, 0, 64, 59
1, 47051, Control_c, 0, 64, 64
1, 47066, Control_c, 0, 64, 71
1, 47081, Control_c, 0, 64, 80
1, 47085, Note_on_c, 0, 77, 74
1, 47096, Control_c, 0, 64, 94
1, 47109, Control_c, 0, 64, 107
1, 47124, Control_c, 0, 64, 127
1, 47188, Note_off_c, 0, 75, 32
1, 47228, Note_off_c, 0, 63, 61
1, 47242, Note_off_c, 0, 51, 51
1, 47248, Note_off_c, 0, 58, 61
1, 47250, Note_on_c, 0, 82, 74
1, 47254, Note_off_c, 0, 77, 60
1, 47491, Note_on_c, 0, 78, 56
1, 47523, Note_off_c, 0, 82, 53
1, 47562, Control_c, 0, 64, 101
1, 47577, Control_c, 0, 64, 83
1, 47592, Control_c, 0, 64, 68
1, 47607, Control_c, 0, 64, 58
1, 47622, Control_c, 0, 64, 43
1, 47636, Control_c, 0, 64, 0
1, 47723, Note_on_c, 0, 76, 56
1, 47774, Note_off_c, 0, 78, 55
1, 47814, Control_c, 0, 64, 34
1, 47829, Control_c, 0, 64, 50
1, 47844, Control_c, 0, 64, 60
1, 47858, Control_c, 0, 64, 65
1, 47873, Control_c, 0, 64, 69
1, 47888, Control_c, 0, 64, 75
1, 47903, Control_c, 0, 64, 80
1, 47918, Control_c, 0, 64, 85
1, 47932, Control_c, 0, 64, 90
1, 47947, Control_c, 0, 64, 96
1, 47962, Control_c, 0, 64, 102
1, 47977, Control_c, 0, 64, 110
1, 47988, Note_off_c, 0, 76, 61
1, 47993, Control_c, 0, 64, 127
1, 48008, Note_on_c, 0, 75, 61
1, 48046, Note_off_c, 0, 75, 61
1, 48127, Note_on_c, 0, 75, 61
1, 48267, Control_c, 0, 64, 103
1, 48282, Control_c, 0, 64, 80
1, 48296, Control_c, 0, 64, 64
1, 48311, Control_c, 0, 64, 54
1, 48325, Note_on_c, 0, 54, 44
1, 48326, Control_c, 0, 64, 49
1, 48341, Control_c, 0, 64, 50
1, 48356, Control_c, 0, 64, 55
1, 48370, Control_c, 0, 64, 60
1, 48385, Control_c, 0, 64, 64
1, 48400, Control_c, 0, 64, 70
1, 48414, Control_c, 0, 64, 77
1, 48422, Note_off_c, 0, 54, 55
1, 48429, Control_c, 0, 64, 87
1, 48432, Note_on_c, 0, 72, 66
1, 48444, Control_c, 0, 64, 101
1, 48459, Control_c, 0, 64, 127
1, 48460, Note_off_c, 0, 75, 59
1, 48498, Note_on_c, 0, 64, 46
1, 48596, Note_off_c, 0, 64, 61
1, 48645, Note_on_c, 0, 70, 53
1, 48800, Note_off_c, 0, 70, 50
1, 48801, Note_on_c, 0, 66, 53
1, 48903, Note_on_c, 0, 75, 65
1, 48933, Note_off_c, 0, 72, 58
1, 48999, Note_on_c, 0, 64, 31
1, 49028, Note_off_c, 0, 64, 50
1, 49043, Note_off_c, 0, 66, 36
1, 49301, Note_on_c, 0, 78, 62
1, 49342, Note_off_c, 0, 78, 63
1, 49727, Note_off_c, 0, 75, 55
1, 49755, Note_on_c, 0, 73, 46
1, 50044, Note_off_c, 0, 73, 47
1, 50059, Note_on_c, 0, 75, 43
1, 50420, Note_off_c, 0, 75, 63
1, 50442, Note_on_c, 0, 66, 53
1, 50465, Note_on_c, 0, 59, 39
1, 50468, Control_c, 0, 64, 101
1, 50471, Note_on_c, 0, 71, 49
1, 50480, Note_on_c, 0, 64, 43
1, 50483, Control_c, 0, 64, 76
1, 50498, Control_c, 0, 64, 63
1, 50513, Control_c, 0, 64, 52
1, 50528, Control_c, 0, 64, 45
1, 50543, Control_c, 0, 64, 42
1, 50557, Control_c, 0, 64, 41
1, 50572, Control_c, 0, 64, 41
1, 50587, Control_c, 0, 64, 46
1, 50602, Control_c, 0, 64, 53
1, 50616, Control_c, 0, 64, 61
1, 50631, Control_c, 0, 64, 68
1, 50646, Control_c, 0, 64, 80
1, 50661, Control_c, 0, 64, 98
1, 50676, Control_c, 0, 64, 127
1, 50960, Note_off_c, 0, 66, 48
1, 51165, Control_c, 0, 64, 110
1, 51172, Note_on_c, 0, 68, 46
1, 51181, Control_c, 0, 64, 77
1, 51185, Note_on_c, 0, 56, 37
1, 51196, Control_c, 0, 64, 65
1, 51218, Control_c, 0, 64, 61
1, 51233, Control_c, 0, 64, 63
1, 51247, Control_c, 0, 64, 67
1, 51262, Control_c, 0, 64, 76
1, 51277, Control_c, 0, 64, 100
1, 51292, Control_c, 0, 64, 127
1, 51357, Note_on_c, 0, 73, 50
1, 51361, Note_off_c, 0, 68, 58
1, 51408, Note_off_c, 0, 71, 30
1, 51416, Note_off_c, 0, 64, 55
1, 51449, Note_off_c, 0, 59, 40
1, 51469, Note_off_c, 0, 56, 51
1, 51527, Note_on_c, 0, 80, 60
1, 51558, Note_off_c, 0, 73, 50
1, 51722, Note_on_c, 0, 49, 45
1, 51726, Note_on_c, 0, 76, 57
1, 51736, Control_c, 0, 64, 94
1, 51750, Note_off_c, 0, 80, 35
1, 51750, Control_c, 0, 64, 80
1, 51765, Control_c, 0, 64, 76
1, 51780, Control_c, 0, 64, 77
1, 51795, Control_c, 0, 64, 80
1, 51810, Control_c, 0, 64, 88
1, 51825, Control_c, 0, 64, 103
1, 51840, Control_c, 0, 64, 127
1, 51875, Note_off_c, 0, 76, 58
1, 51887, Note_on_c, 0, 75, 60
1, 51928, Note_off_c, 0, 49, 60
1, 52014, Note_off_c, 0, 75, 57
1, 52042, Note_on_c, 0, 73, 56
1, 52181, Note_off_c, 0, 73, 54
1, 52226, Note_on_c, 0, 63, 60
1, 52233, Note_on_c, 0, 68, 52
1, 52236, Note_on_c, 0, 61, 49
1, 52245, Note_on_c, 0, 56, 46
1, 52248, Control_c, 0, 64, 106
1, 52263, Control_c, 0, 64, 81
1, 52278, Control_c, 0, 64, 65
1, 52293, Control_c, 0, 64, 57
1, 52308, Control_c, 0, 64, 55
1, 52322, Control_c, 0, 64, 56
1, 52337, Control_c, 0, 64, 60
1, 52352, Control_c, 0, 64, 64
1, 52367, Control_c, 0, 64, 70
1, 52381, Control_c, 0, 64, 79
1, 52396, Control_c, 0, 64, 90
1, 52411, Control_c, 0, 64, 103
1, 52426, Control_c, 0, 64, 127
1, 52454, Note_off_c, 0, 63, 62
1, 52685, Note_on_c, 0, 64, 61
1, 52692, Control_c, 0, 64, 94
1, 52695, Note_on_c, 0, 52, 52
1, 52714, Control_c, 0, 64, 75
1, 52729, Control_c, 0, 64, 66
1, 52744, Control_c, 0, 64, 65
1, 52759, Control_c, 0, 64, 68
1, 52774, Control_c, 0, 64, 77
1, 52790, Control_c, 0, 64, 91
1, 52804, Control_c, 0, 64, 127
1, 52846, Note_on_c, 0, 70, 61
1, 52870, Note_off_c, 0, 64, 61
1, 52908, Note_off_c, 0, 61, 60
1, 52926, Note_off_c, 0, 52, 60
1, 52926, Note_off_c, 0, 56, 60
1, 52994, Note_on_c, 0, 71, 64
1, 53053, Note_off_c, 0, 68, 34
1, 53226, Note_on_c, 0, 44, 50
1, 53253, Note_off_c, 0, 70, 40
1, 53264, Control_c, 0, 64, 85
1, 53267, Note_off_c, 0, 71, 36
1, 53270, Note_on_c, 0, 75, 53
1, 53279, Control_c, 0, 64, 65
1, 53294, Control_c, 0, 64, 54
1, 53309, Control_c, 0, 64, 46
1, 53323, Control_c, 0, 64, 45
1, 53338, Control_c, 0, 64, 46
1, 53353, Control_c, 0, 64, 51
1, 53368, Control_c, 0, 64, 57
1, 53383, Control_c, 0, 64, 63
1, 53397, Control_c, 0, 64, 69
1, 53412, Control_c, 0, 64, 78
1, 53427, Control_c, 0, 64, 87
1, 53442, Control_c, 0, 64, 94
1, 53464, Control_c, 0, 64, 97
1, 53470, Note_on_c, 0, 73, 63
1, 53479, Control_c, 0, 64, 101
1, 53494, Control_c, 0, 64, 105
1, 53498, Note_off_c, 0, 75, 53
1, 53509, Control_c, 0, 64, 110
1, 53524, Control_c, 0, 64, 117
1, 53538, Control_c, 0, 64, 127
1, 53590, Note_on_c, 0, 68, 63
1, 53661, Note_off_c, 0, 73, 49
1, 53677, Note_off_c, 0, 68, 60
1, 53702, Control_c, 0, 64, 107
1, 53717, Control_c, 0, 64, 80
1, 53723, Note_off_c, 0, 44, 56
1, 53732, Control_c, 0, 64, 67
1, 53739, Note_on_c, 0, 63, 61
1, 53747, Control_c, 0, 64, 60
1, 53753, Note_on_c, 0, 56, 41
1, 53755, Note_on_c, 0, 49, 39
1, 53761, Control_c, 0, 64, 59
1, 53776, Control_c, 0, 64, 62
1, 53791, Control_c, 0, 64, 65
1, 53806, Control_c, 0, 64, 70
1, 53821, Control_c, 0, 64, 77
1, 53835, Control_c, 0, 64, 84
1, 53849, Control_c, 0, 64, 88
1, 53864, Control_c, 0, 64, 89
1, 53872, Note_on_c, 0, 64, 67
1, 53879, Control_c, 0, 64, 90
1, 53894, Control_c, 0, 64, 91
1, 53908, Control_c, 0, 64, 93
1, 53923, Control_c, 0, 64, 95
1, 53938, Control_c, 0, 64, 97
1, 53953, Control_c, 0, 64, 99
1, 53956, Note_off_c, 0, 63, 37
1, 53968, Control_c, 0, 64, 101
1, 53996, Note_off_c, 0, 49, 41
1, 53998, Control_c, 0, 64, 103
1, 53999, Note_on_c, 0, 68, 74
1, 54011, Note_on_c, 0, 44, 50
1, 54011, Note_off_c, 0, 64, 31
1, 54027, Control_c, 0, 64, 106
1, 54042, Control_c, 0, 64, 109
1, 54057, Control_c, 0, 64, 116
1, 54072, Control_c, 0, 64, 127
1, 54135, Note_off_c, 0, 44, 59
1, 54146, Control_c, 0, 64, 94
1, 54160, Control_c, 0, 64, 71
1, 54171, Note_on_c, 0, 71, 69
1, 54175, Note_off_c, 0, 68, 58
1, 54175, Control_c, 0, 64, 58
1, 54177, Note_on_c, 0, 49, 50
1, 54190, Control_c, 0, 64, 46
1, 54212, Control_c, 0, 64, 41
1, 54227, Control_c, 0, 64, 40
1, 54242, Control_c, 0, 64, 43
1, 54257, Control_c, 0, 64, 51
1, 54272, Control_c, 0, 64, 60
1, 54286, Control_c, 0, 64, 66
1, 54301, Control_c, 0, 64, 74
1, 54316, Note_off_c, 0, 56, 60
1, 54316, Control_c, 0, 64, 84
1, 54331, Control_c, 0, 64, 95
1, 54346, Control_c, 0, 64, 106
1, 54360, Control_c, 0, 64, 127
1, 54421, Note_on_c, 0, 70, 70
1, 54485, Note_off_c, 0, 71, 38
1, 54613, Control_c, 0, 64, 95
1, 54621, Note_on_c, 0, 64, 51
1, 54628, Control_c, 0, 64, 71
1, 54630, Note_on_c, 0, 59, 45
1, 54643, Control_c, 0, 64, 59
1, 54657, Control_c, 0, 64, 53
1, 54672, Control_c, 0, 64, 56
1, 54687, Control_c, 0, 64, 60
1, 54702, Control_c, 0, 64, 65
1, 54717, Control_c, 0, 64, 73
1, 54731, Control_c, 0, 64, 89
1, 54746, Control_c, 0, 64, 127
1, 54801, Note_off_c, 0, 49, 50
1, 54847, Note_on_c, 0, 68, 66
1, 54862, Note_off_c, 0, 64, 58
1, 54875, Note_off_c, 0, 70, 58
1, 54958, Note_off_c, 0, 68, 64
1, 55115, Note_off_c, 0, 59, 58
1, 55119, Note_on_c, 0, 68, 61
1, 55136, Note_on_c, 0, 64, 38
1, 55143, Note_on_c, 0, 54, 40
1, 55154, Control_c, 0, 64, 96
1, 55169, Control_c, 0, 64, 72
1, 55184, Control_c, 0, 64, 60
1, 55199, Control_c, 0, 64, 47
1, 55214, Control_c, 0, 64, 32
1, 55229, Control_c, 0, 64, 0
1, 55332, Control_c, 0, 64, 47
1, 55347, Control_c, 0, 64, 60
1, 55362, Control_c, 0, 64, 67
1, 55377, Control_c, 0, 64, 71
1, 55392, Control_c, 0, 64, 77
1, 55406, Control_c, 0, 64, 84
1, 55421, Control_c, 0, 64, 93
1, 55436, Control_c, 0, 64, 101
1, 55451, Control_c, 0, 64, 110
1, 55466, Control_c, 0, 64, 127
1, 55612, Note_on_c, 0, 56, 47
1, 55640, Note_off_c, 0, 54, 37
1, 55643, Control_c, 0, 64, 88
1, 55658, Control_c, 0, 64, 66
1, 55673, Control_c, 0, 64, 55
1, 55688, Control_c, 0, 64, 49
1, 55710, Control_c, 0, 64, 50
1, 55724, Control_c, 0, 64, 54
1, 55739, Control_c, 0, 64, 58
1, 55754, Control_c, 0, 64, 62
1, 55769, Control_c, 0, 64, 68
1, 55784, Control_c, 0, 64, 74
1, 55798, Control_c, 0, 64, 80
1, 55813, Control_c, 0, 64, 82
1, 55828, Control_c, 0, 64, 84
1, 55843, Control_c, 0, 64, 85
1, 55858, Control_c, 0, 64, 86
1, 55873, Note_on_c, 0, 66, 49
1, 55873, Control_c, 0, 64, 87
1, 55876, Note_off_c, 0, 68, 58
1, 55902, Control_c, 0, 64, 88
1, 55932, Control_c, 0, 64, 88
1, 56215, Note_off_c, 0, 56, 46
1, 56215, Control_c, 0, 64, 87
1, 56227, Note_on_c, 0, 75, 48
1, 56230, Control_c, 0, 64, 83
1, 56240, Note_on_c, 0, 58, 33
1, 56245, Control_c, 0, 64, 76
1, 56260, Control_c, 0, 64, 68
1, 56270, Note_off_c, 0, 66, 33
1, 56275, Control_c, 0, 64, 61
1, 56290, Control_c, 0, 64, 54
1, 56304, Control_c, 0, 64, 50
1, 56319, Control_c, 0, 64, 48
1, 56334, Control_c, 0, 64, 49
1, 56348, Control_c, 0, 64, 50
1, 56363, Control_c, 0, 64, 53
1, 56378, Control_c, 0, 64, 57
1, 56393, Control_c, 0, 64, 62
1, 56408, Control_c, 0, 64, 67
1, 56422, Control_c, 0, 64, 73
1, 56437, Control_c, 0, 64, 81
1, 56460, Control_c, 0, 64, 92
1, 56474, Control_c, 0, 64, 102
1, 56489, Control_c, 0, 64, 125
1, 56500, Note_off_c, 0, 58, 53
1, 56504, Control_c, 0, 64, 127
1, 56507, Note_off_c, 0, 64, 62
1, 56534, Note_on_c, 0, 73, 53
1, 56576, Note_off_c, 0, 75, 34
1, 56777, Note_off_c, 0, 73, 53
1, 56786, Control_c, 0, 64, 99
1, 56787, Note_on_c, 0, 64, 40
1, 56794, Note_on_c, 0, 66, 51
1, 56795, Note_on_c, 0, 76, 53
1, 56801, Control_c, 0, 64, 72
1, 56803, Note_on_c, 0, 57, 45
1, 56807, Note_on_c, 0, 59, 34
1, 56816, Control_c, 0, 64, 58
1, 56831, Control_c, 0, 64, 48
1, 56846, Control_c, 0, 64, 50
1, 56860, Control_c, 0, 64, 57
1, 56875, Control_c, 0, 64, 64
1, 56890, Control_c, 0, 64, 75
1, 56904, Control_c, 0, 64, 114
1, 56919, Control_c, 0, 64, 127
1, 57079, Note_on_c, 0, 73, 55
1, 57080, Note_off_c, 0, 57, 58
1, 57138, Note_off_c, 0, 76, 34
1, 57177, Note_off_c, 0, 66, 52
1, 57401, Control_c, 0, 64, 125
1, 57416, Control_c, 0, 64, 88
1, 57417, Note_off_c, 0, 73, 37
1, 57425, Note_on_c, 0, 76, 56
1, 57429, Note_on_c, 0, 56, 39
1, 57430, Note_on_c, 0, 68, 39
1, 57431, Control_c, 0, 64, 71
1, 57445, Control_c, 0, 64, 60
1, 57460, Control_c, 0, 64, 42
1, 57475, Control_c, 0, 64, 0
1, 57638, Control_c, 0, 64, 43
1, 57653, Control_c, 0, 64, 57
1, 57667, Control_c, 0, 64, 63
1, 57682, Control_c, 0, 64, 67
1, 57694, Note_on_c, 0, 71, 49
1, 57697, Control_c, 0, 64, 73
1, 57712, Control_c, 0, 64, 82
1, 57723, Note_off_c, 0, 76, 60
1, 57727, Control_c, 0, 64, 97
1, 57731, Note_off_c, 0, 71, 65
1, 57742, Control_c, 0, 64, 127
1, 58123, Note_on_c, 0, 80, 61
1, 58183, Note_off_c, 0, 80, 63
1, 58254, Note_on_c, 0, 80, 52
1, 58554, Note_off_c, 0, 80, 59
1, 58570, Note_off_c, 0, 56, 35
1, 58587, Note_off_c, 0, 68, 58
1, 58609, Note_off_c, 0, 59, 41
1, 58618, Note_off_c, 0, 64, 54
1, 58950, Note_on_c, 0, 66, 25
1, 58954, Note_on_c, 0, 64, 34
1, 58958, Control_c, 0, 64, 107
1, 58963, Note_on_c, 0, 57, 36
1, 58973, Control_c, 0, 64, 84
1, 58977, Note_on_c, 0, 59, 25
1, 58988, Control_c, 0, 64, 70
1, 59003, Control_c, 0, 64, 61
1, 59017, Control_c, 0, 64, 52
1, 59032, Control_c, 0, 64, 48
1, 59047, Control_c, 0, 64, 47
1, 59076, Control_c, 0, 64, 48
1, 59091, Control_c, 0, 64, 50
1, 59106, Control_c, 0, 64, 53
1, 59121, Control_c, 0, 64, 57
1, 59131, Note_on_c, 0, 76, 51
1, 59136, Control_c, 0, 64, 62
1, 59150, Control_c, 0, 64, 67
1, 59166, Control_c, 0, 64, 74
1, 59181, Control_c, 0, 64, 81
1, 59196, Control_c, 0, 64, 87
1, 59211, Control_c, 0, 64, 94
1, 59226, Control_c, 0, 64, 106
1, 59238, Note_off_c, 0, 57, 54
1, 59240, Control_c, 0, 64, 127
1, 59247, Note_off_c, 0, 76, 59
1, 59292, Note_on_c, 0, 73, 45
1, 59327, Note_off_c, 0, 66, 41
1, 59465, Note_off_c, 0, 73, 43
1, 59544, Control_c, 0, 64, 125
1, 59552, Note_on_c, 0, 56, 26
1, 59557, Note_on_c, 0, 68, 37
1, 59559, Note_on_c, 0, 76, 47
1, 59559, Control_c, 0, 64, 90
1, 59573, Control_c, 0, 64, 75
1, 59588, Control_c, 0, 64, 64
1, 59603, Control_c, 0, 64, 56
1, 59618, Control_c, 0, 64, 50
1, 59633, Control_c, 0, 64, 47
1, 59647, Control_c, 0, 64, 44
1, 59677, Control_c, 0, 64, 46
1, 59692, Control_c, 0, 64, 51
1, 59706, Control_c, 0, 64, 58
1, 59721, Control_c, 0, 64, 64
1, 59736, Control_c, 0, 64, 69
1, 59751, Control_c, 0, 64, 78
1, 59766, Control_c, 0, 64, 85
1, 59775, Note_on_c, 0, 71, 43
1, 59781, Control_c, 0, 64, 93
1, 59796, Control_c, 0, 64, 107
1, 59810, Control_c, 0, 64, 127
1, 59827, Note_off_c, 0, 71, 50
1, 59829, Note_off_c, 0, 76, 50
1, 60103, Note_off_c, 0, 64, 60
1, 60109, Note_off_c, 0, 68, 49
1, 60136, Note_off_c, 0, 59, 42
1, 60170, Note_off_c, 0, 56, 41
1, 60277, Note_on_c, 0, 88, 56
1, 60420, Note_on_c, 0, 49, 31
1, 60470, Note_off_c, 0, 49, 47
1, 60504, Note_off_c, 0, 88, 38
1, 60520, Note_on_c, 0, 59, 36
1, 60729, Note_on_c, 0, 88, 54
1, 60740, Note_on_c, 0, 68, 29
1, 60774, Note_off_c, 0, 59, 41
1, 60776, Note_off_c, 0, 68, 54
1, 60857, Note_off_c, 0, 88, 63
1, 62086, Note_on_c, 0, 64, 48
1, 62095, Note_on_c, 0, 49, 38
1, 62109, Note_on_c, 0, 59, 35
1, 62146, Control_c, 0, 64, 125
1, 62160, Control_c, 0, 64, 114
1, 62175, Control_c, 0, 64, 107
1, 62190, Control_c, 0, 64, 102
1, 62205, Control_c, 0, 64, 98
1, 62219, Control_c, 0, 64, 95
1, 62234, Control_c, 0, 64, 91
1, 62249, Control_c, 0, 64, 89
1, 62264, Control_c, 0, 64, 86
1, 62279, Control_c, 0, 64, 85
1, 62294, Control_c, 0, 64, 84
1, 62308, Control_c, 0, 64, 83
1, 62323, Control_c, 0, 64, 82
1, 62338, Control_c, 0, 64, 80
1, 62353, Note_on_c, 0, 68, 66
1, 62353, Control_c, 0, 64, 80
1, 62369, Control_c, 0, 64, 79
1, 62398, Control_c, 0, 64, 78
1, 62428, Control_c, 0, 64, 78
1, 62465, Control_c, 0, 64, 77
1, 62495, Control_c, 0, 64, 77
1, 62524, Control_c, 0, 64, 76
1, 62539, Control_c, 0, 64, 75
1, 62554, Control_c, 0, 64, 75
1, 62555, Note_on_c, 0, 70, 71
1, 62569, Control_c, 0, 64, 74
1, 62584, Control_c, 0, 64, 73
1, 62598, Control_c, 0, 64, 73
1, 62613, Control_c, 0, 64, 72
1, 62618, Note_off_c, 0, 68, 58
1, 62628, Control_c, 0, 64, 71
1, 62642, Control_c, 0, 64, 69
1, 62657, Control_c, 0, 64, 67
1, 62672, Control_c, 0, 64, 65
1, 62687, Control_c, 0, 64, 64
1, 62702, Control_c, 0, 64, 62
1, 62717, Control_c, 0, 64, 61
1, 62732, Control_c, 0, 64, 61
1, 62747, Control_c, 0, 64, 60
1, 62762, Control_c, 0, 64, 60
1, 62776, Control_c, 0, 64, 59
1, 62787, Note_on_c, 0, 71, 68
1, 62806, Control_c, 0, 64, 59
1, 62818, Note_off_c, 0, 70, 61
1, 62835, Control_c, 0, 64, 58
1, 62850, Control_c, 0, 64, 58
1, 62880, Control_c, 0, 64, 57
1, 62895, Control_c, 0, 64, 56
1, 62909, Control_c, 0, 64, 56
1, 62939, Control_c, 0, 64, 55
1, 62983, Control_c, 0, 64, 55
1, 62998, Control_c, 0, 64, 54
1, 63028, Control_c, 0, 64, 53
1, 63042, Control_c, 0, 64, 53
1, 63057, Control_c, 0, 64, 52
1, 63072, Control_c, 0, 64, 52
1, 63087, Control_c, 0, 64, 51
1, 63102, Control_c, 0, 64, 51
1, 63116, Control_c, 0, 64, 50
1, 63131, Control_c, 0, 64, 50
1, 63162, Control_c, 0, 64, 49
1, 63197, Note_on_c, 0, 70, 59
1, 63198, Note_off_c, 0, 71, 56
1, 63244, Control_c, 0, 64, 50
1, 63273, Control_c, 0, 64, 50
1, 63288, Control_c, 0, 64, 51
1, 63303, Control_c, 0, 64, 51
1, 63318, Control_c, 0, 64, 52
1, 63333, Control_c, 0, 64, 53
1, 63347, Control_c, 0, 64, 53
1, 63362, Control_c, 0, 64, 54
1, 63377, Control_c, 0, 64, 56
1, 63392, Control_c, 0, 64, 58
1, 63407, Control_c, 0, 64, 60
1, 63421, Control_c, 0, 64, 63
1, 63436, Control_c, 0, 64, 65
1, 63451, Control_c, 0, 64, 68
1, 63465, Control_c, 0, 64, 71
1, 63480, Control_c, 0, 64, 75
1, 63495, Control_c, 0, 64, 78
1, 63510, Control_c, 0, 64, 81
1, 63525, Control_c, 0, 64, 83
1, 63540, Control_c, 0, 64, 86
1, 63554, Control_c, 0, 64, 88
1, 63570, Control_c, 0, 64, 92
1, 63584, Control_c, 0, 64, 96
1, 63599, Control_c, 0, 64, 101
1, 63614, Control_c, 0, 64, 108
1, 63629, Control_c, 0, 64, 127
1, 63656, Note_on_c, 0, 68, 58
1, 63674, Note_off_c, 0, 59, 62
1, 63700, Note_off_c, 0, 68, 59
1, 63702, Note_off_c, 0, 70, 35
1, 63946, Note_off_c, 0, 49, 42
1, 63981, Note_off_c, 0, 64, 38
1, 63987, Note_on_c, 0, 66, 45
1, 63993, Control_c, 0, 64, 91
1, 64004, Note_on_c, 0, 51, 38
1, 64008, Control_c, 0, 64, 73
1, 64009, Note_on_c, 0, 63, 39
1, 64022, Note_on_c, 0, 58, 29
1, 64023, Control_c, 0, 64, 62
1, 64037, Control_c, 0, 64, 52
1, 64052, Control_c, 0, 64, 47
1, 64067, Control_c, 0, 64, 45
1, 64080, Note_off_c, 0, 58, 53
1, 64082, Control_c, 0, 64, 44
1, 64097, Control_c, 0, 64, 47
1, 64112, Control_c, 0, 64, 52
1, 64127, Control_c, 0, 64, 59
1, 64142, Control_c, 0, 64, 65
1, 64157, Control_c, 0, 64, 73
1, 64171, Control_c, 0, 64, 83
1, 64186, Control_c, 0, 64, 95
1, 64201, Control_c, 0, 64, 107
1, 64215, Control_c, 0, 64, 127
1, 64401, Note_off_c, 0, 63, 37
1, 64421, Control_c, 0, 64, 105
1, 64427, Note_on_c, 0, 58, 41
1, 64429, Note_on_c, 0, 61, 45
1, 64436, Control_c, 0, 64, 81
1, 64439, Note_on_c, 0, 42, 39
1, 64440, Note_off_c, 0, 51, 57
1, 64451, Control_c, 0, 64, 66
1, 64457, Note_on_c, 0, 54, 24
1, 64466, Control_c, 0, 64, 56
1, 64480, Control_c, 0, 64, 49
1, 64495, Control_c, 0, 64, 46
1, 64525, Control_c, 0, 64, 50
1, 64540, Control_c, 0, 64, 55
1, 64554, Control_c, 0, 64, 61
1, 64569, Control_c, 0, 64, 65
1, 64584, Control_c, 0, 64, 69
1, 64599, Control_c, 0, 64, 72
1, 64613, Control_c, 0, 64, 75
1, 64628, Control_c, 0, 64, 77
1, 64638, Note_off_c, 0, 58, 38
1, 64643, Control_c, 0, 64, 78
1, 64658, Control_c, 0, 64, 80
1, 64673, Control_c, 0, 64, 80
1, 64695, Control_c, 0, 64, 81
1, 64710, Control_c, 0, 64, 80
1, 64725, Control_c, 0, 64, 76
1, 64739, Control_c, 0, 64, 69
1, 64754, Control_c, 0, 64, 62
1, 64769, Note_off_c, 0, 61, 54
1, 64771, Control_c, 0, 64, 54
1, 64785, Control_c, 0, 64, 48
1, 64797, Note_off_c, 0, 54, 49
1, 64800, Control_c, 0, 64, 43
1, 64802, Note_on_c, 0, 47, 40
1, 64802, Note_on_c, 0, 63, 38
1, 64815, Control_c, 0, 64, 41
1, 64825, Note_on_c, 0, 59, 13
1, 64830, Control_c, 0, 64, 43
1, 64833, Note_off_c, 0, 42, 43
1, 64844, Control_c, 0, 64, 48
1, 64859, Control_c, 0, 64, 57
1, 64874, Control_c, 0, 64, 63
1, 64889, Control_c, 0, 64, 69
1, 64904, Control_c, 0, 64, 74
1, 64918, Control_c, 0, 64, 79
1, 64933, Control_c, 0, 64, 82
1, 64948, Control_c, 0, 64, 84
1, 64963, Control_c, 0, 64, 85
1, 64978, Control_c, 0, 64, 86
1, 65022, Control_c, 0, 64, 87
1, 65059, Note_off_c, 0, 59, 41
1, 65062, Note_off_c, 0, 66, 39
1, 65090, Note_off_c, 0, 47, 56
1, 65091, Note_on_c, 0, 54, 54
1, 65096, Control_c, 0, 64, 86
1, 65103, Note_off_c, 0, 63, 61
1, 65140, Control_c, 0, 64, 86
1, 65155, Control_c, 0, 64, 85
1, 65185, Control_c, 0, 64, 85
1, 65200, Control_c, 0, 64, 84
1, 65215, Control_c, 0, 64, 83
1, 65229, Control_c, 0, 64, 82
1, 65244, Control_c, 0, 64, 81
1, 65259, Control_c, 0, 64, 80
1, 65274, Control_c, 0, 64, 80
1, 65280, Note_on_c, 0, 56, 62
1, 65289, Control_c, 0, 64, 79
1, 65304, Control_c, 0, 64, 79
1, 65312, Note_off_c, 0, 54, 63
1, 65318, Control_c, 0, 64, 78
1, 65333, Control_c, 0, 64, 78
1, 65348, Control_c, 0, 64, 77
1, 65362, Control_c, 0, 64, 75
1, 65377, Control_c, 0, 64, 74
1, 65392, Control_c, 0, 64, 72
1, 65407, Control_c, 0, 64, 70
1, 65422, Control_c, 0, 64, 65
1, 65424, Note_off_c, 0, 56, 57
1, 65444, Control_c, 0, 64, 62
1, 65450, Note_on_c, 0, 59, 64
1, 65459, Control_c, 0, 64, 58
1, 65474, Control_c, 0, 64, 57
1, 65489, Control_c, 0, 64, 56
1, 65518, Control_c, 0, 64, 56
1, 65533, Control_c, 0, 64, 57
1, 65548, Control_c, 0, 64, 58
1, 65564, Control_c, 0, 64, 60
1, 65579, Control_c, 0, 64, 62
1, 65593, Control_c, 0, 64, 65
1, 65608, Control_c, 0, 64, 67
1, 65608, Note_on_c, 0, 61, 69
1, 65615, Note_off_c, 0, 59, 56
1, 65623, Control_c, 0, 64, 69
1, 65638, Control_c, 0, 64, 70
1, 65697, Control_c, 0, 64, 69
1, 65727, Control_c, 0, 64, 69
1, 65739, Note_off_c, 0, 61, 61
1, 65741, Control_c, 0, 64, 68
1, 65754, Note_on_c, 0, 64, 61
1, 65756, Control_c, 0, 64, 68
1, 65816, Control_c, 0, 64, 68
1, 65846, Control_c, 0, 64, 69
1, 65964, Control_c, 0, 64, 68
1, 65978, Control_c, 0, 64, 68
1, 65993, Control_c, 0, 64, 67
1, 66008, Control_c, 0, 64, 66
1, 66023, Control_c, 0, 64, 64
1, 66030, Note_on_c, 0, 71, 65
1, 66038, Control_c, 0, 64, 62
1, 66040, Note_on_c, 0, 66, 42
1, 66044, Note_on_c, 0, 59, 43
1, 66048, Note_off_c, 0, 64, 59
1, 66052, Control_c, 0, 64, 60
1, 66067, Control_c, 0, 64, 57
1, 66082, Control_c, 0, 64, 54
1, 66097, Control_c, 0, 64, 50
1, 66112, Control_c, 0, 64, 47
1, 66127, Control_c, 0, 64, 46
1, 66142, Control_c, 0, 64, 45
1, 66157, Control_c, 0, 64, 46
1, 66172, Control_c, 0, 64, 47
1, 66193, Control_c, 0, 64, 48
1, 66199, Note_off_c, 0, 66, 53
1, 66208, Control_c, 0, 64, 51
1, 66223, Control_c, 0, 64, 55
1, 66234, Note_on_c, 0, 64, 39
1, 66238, Control_c, 0, 64, 59
1, 66253, Control_c, 0, 64, 62
1, 66267, Control_c, 0, 64, 64
1, 66282, Control_c, 0, 64, 66
1, 66297, Control_c, 0, 64, 68
1, 66312, Control_c, 0, 64, 70
1, 66327, Control_c, 0, 64, 73
1, 66342, Control_c, 0, 64, 75
1, 66357, Control_c, 0, 64, 77
1, 66372, Control_c, 0, 64, 80
1, 66387, Control_c, 0, 64, 82
1, 66402, Control_c, 0, 64, 84
1, 66405, Note_on_c, 0, 66, 45
1, 66416, Control_c, 0, 64, 85
1, 66431, Control_c, 0, 64, 86
1, 66476, Control_c, 0, 64, 86
1, 66479, Note_off_c, 0, 66, 48
1, 66669, Control_c, 0, 64, 85
1, 66678, Note_on_c, 0, 68, 45
1, 66683, Control_c, 0, 64, 82
1, 66690, Note_on_c, 0, 56, 43
1, 66698, Control_c, 0, 64, 77
1, 66713, Control_c, 0, 64, 70
1, 66728, Control_c, 0, 64, 65
1, 66743, Control_c, 0, 64, 60
1, 66757, Control_c, 0, 64, 56
1, 66772, Control_c, 0, 64, 53
1, 66787, Control_c, 0, 64, 50
1, 66801, Control_c, 0, 64, 50
1, 66816, Control_c, 0, 64, 52
1, 66831, Control_c, 0, 64, 55
1, 66846, Control_c, 0, 64, 59
1, 66851, Note_on_c, 0, 73, 55
1, 66861, Control_c, 0, 64, 64
1, 66875, Control_c, 0, 64, 69
1, 66890, Control_c, 0, 64, 77
1, 66905, Control_c, 0, 64, 85
1, 66920, Control_c, 0, 64, 92
1, 66922, Note_off_c, 0, 68, 56
1, 66942, Control_c, 0, 64, 97
1, 66957, Control_c, 0, 64, 100
1, 66971, Note_off_c, 0, 64, 62
1, 66978, Note_off_c, 0, 71, 37
1, 66987, Control_c, 0, 64, 102
1, 66994, Note_off_c, 0, 59, 51
1, 67012, Note_off_c, 0, 73, 61
1, 67017, Note_off_c, 0, 56, 62
1, 67030, Note_on_c, 0, 82, 58
1, 67136, Note_on_c, 0, 80, 58
1, 67210, Control_c, 0, 64, 99
1, 67225, Control_c, 0, 64, 88
1, 67229, Note_off_c, 0, 82, 36
1, 67239, Control_c, 0, 64, 78
1, 67254, Note_off_c, 0, 80, 60
1, 67254, Control_c, 0, 64, 71
1, 67265, Note_on_c, 0, 49, 47
1, 67269, Control_c, 0, 64, 67
1, 67284, Control_c, 0, 64, 67
1, 67296, Note_on_c, 0, 76, 54
1, 67299, Control_c, 0, 64, 68
1, 67313, Control_c, 0, 64, 70
1, 67328, Control_c, 0, 64, 73
1, 67343, Control_c, 0, 64, 76
1, 67358, Control_c, 0, 64, 79
1, 67373, Control_c, 0, 64, 80
1, 67388, Control_c, 0, 64, 80
1, 67430, Note_off_c, 0, 76, 40
1, 67447, Control_c, 0, 64, 81
1, 67449, Note_on_c, 0, 75, 59
1, 67462, Control_c, 0, 64, 81
1, 67477, Control_c, 0, 64, 82
1, 67506, Control_c, 0, 64, 83
1, 67513, Note_off_c, 0, 49, 60
1, 67518, Note_on_c, 0, 56, 67
1, 67571, Note_off_c, 0, 75, 59
1, 67583, Note_on_c, 0, 73, 59
1, 67706, Control_c, 0, 64, 83
1, 67736, Control_c, 0, 64, 83
1, 67751, Control_c, 0, 64, 78
1, 67754, Note_off_c, 0, 73, 59
1, 67755, Note_on_c, 0, 63, 65
1, 67764, Note_on_c, 0, 68, 64
1, 67765, Control_c, 0, 64, 71
1, 67780, Control_c, 0, 64, 64
1, 67795, Control_c, 0, 64, 59
1, 67810, Control_c, 0, 64, 56
1, 67825, Control_c, 0, 64, 55
1, 67839, Control_c, 0, 64, 56
1, 67854, Control_c, 0, 64, 57
1, 67869, Control_c, 0, 64, 59
1, 67884, Control_c, 0, 64, 63
1, 67899, Control_c, 0, 64, 66
1, 67902, Note_on_c, 0, 61, 68
1, 67903, Note_off_c, 0, 63, 56
1, 67913, Control_c, 0, 64, 71
1, 67928, Control_c, 0, 64, 77
1, 67943, Control_c, 0, 64, 80
1, 67959, Control_c, 0, 64, 83
1, 67974, Control_c, 0, 64, 85
1, 67988, Control_c, 0, 64, 88
1, 68003, Control_c, 0, 64, 91
1, 68018, Control_c, 0, 64, 93
1, 68029, Note_on_c, 0, 63, 67
1, 68033, Control_c, 0, 64, 94
1, 68048, Control_c, 0, 64, 95
1, 68077, Control_c, 0, 64, 95
1, 68107, Note_off_c, 0, 63, 61
1, 68121, Control_c, 0, 64, 96
1, 68151, Control_c, 0, 64, 99
1, 68166, Control_c, 0, 64, 102
1, 68201, Note_on_c, 0, 52, 54
1, 68202, Note_on_c, 0, 64, 61
1, 68210, Control_c, 0, 64, 87
1, 68225, Control_c, 0, 64, 70
1, 68240, Control_c, 0, 64, 59
1, 68254, Control_c, 0, 64, 49
1, 68269, Control_c, 0, 64, 48
1, 68284, Control_c, 0, 64, 51
1, 68299, Control_c, 0, 64, 56
1, 68314, Control_c, 0, 64, 61
1, 68328, Note_off_c, 0, 68, 58
1, 68328, Control_c, 0, 64, 67
1, 68337, Note_on_c, 0, 67, 56
1, 68343, Control_c, 0, 64, 74
1, 68358, Control_c, 0, 64, 83
1, 68372, Control_c, 0, 64, 88
1, 68387, Control_c, 0, 64, 90
1, 68392, Note_off_c, 0, 64, 61
1, 68402, Control_c, 0, 64, 91
1, 68417, Control_c, 0, 64, 92
1, 68437, Note_off_c, 0, 61, 60
1, 68451, Note_on_c, 0, 68, 67
1, 68454, Control_c, 0, 64, 92
1, 68473, Note_off_c, 0, 52, 62
1, 68485, Note_off_c, 0, 56, 62
1, 68513, Control_c, 0, 64, 93
1, 68559, Note_on_c, 0, 70, 67
1, 68601, Note_off_c, 0, 68, 35
1, 68602, Control_c, 0, 64, 93
1, 68617, Control_c, 0, 64, 94
1, 68625, Note_off_c, 0, 67, 39
1, 68632, Control_c, 0, 64, 96
1, 68647, Control_c, 0, 64, 99
1, 68661, Control_c, 0, 64, 105
1, 68665, Note_on_c, 0, 71, 64
1, 68676, Control_c, 0, 64, 116
1, 68679, Note_off_c, 0, 70, 59
1, 68691, Control_c, 0, 64, 127
1, 68720, Control_c, 0, 64, 105
1, 68735, Control_c, 0, 64, 87
1, 68751, Control_c, 0, 64, 73
1, 68766, Control_c, 0, 64, 64
1, 68781, Control_c, 0, 64, 59
1, 68783, Note_off_c, 0, 71, 61
1, 68785, Note_on_c, 0, 44, 45
1, 68796, Control_c, 0, 64, 58
1, 68811, Control_c, 0, 64, 60
1, 68826, Control_c, 0, 64, 62
1, 68834, Note_on_c, 0, 75, 52
1, 68841, Control_c, 0, 64, 64
1, 68856, Control_c, 0, 64, 68
1, 68871, Control_c, 0, 64, 72
1, 68885, Control_c, 0, 64, 75
1, 68900, Control_c, 0, 64, 77
1, 68915, Control_c, 0, 64, 78
1, 68930, Control_c, 0, 64, 79
1, 68945, Control_c, 0, 64, 80
1, 68953, Note_on_c, 0, 73, 71
1, 68956, Note_off_c, 0, 75, 63
1, 68959, Control_c, 0, 64, 81
1, 68974, Control_c, 0, 64, 82
1, 68989, Control_c, 0, 64, 82
1, 69018, Control_c, 0, 64, 83
1, 69063, Control_c, 0, 64, 83
1, 69069, Note_on_c, 0, 68, 70
1, 69074, Note_off_c, 0, 73, 40
1, 69108, Control_c, 0, 64, 84
1, 69122, Control_c, 0, 64, 84
1, 69152, Control_c, 0, 64, 85
1, 69167, Control_c, 0, 64, 87
1, 69170, Note_off_c, 0, 68, 62
1, 69189, Control_c, 0, 64, 89
1, 69203, Control_c, 0, 64, 90
1, 69218, Control_c, 0, 64, 88
1, 69230, Note_on_c, 0, 63, 61
1, 69231, Note_off_c, 0, 44, 56
1, 69233, Control_c, 0, 64, 81
1, 69248, Control_c, 0, 64, 73
1, 69253, Note_on_c, 0, 56, 45
1, 69254, Note_on_c, 0, 49, 48
1, 69263, Control_c, 0, 64, 66
1, 69278, Control_c, 0, 64, 61
1, 69293, Control_c, 0, 64, 59
1, 69308, Control_c, 0, 64, 60
1, 69323, Control_c, 0, 64, 62
1, 69337, Control_c, 0, 64, 64
1, 69340, Note_on_c, 0, 64, 61
1, 69352, Control_c, 0, 64, 66
1, 69367, Control_c, 0, 64, 69
1, 69377, Note_off_c, 0, 63, 37
1, 69382, Control_c, 0, 64, 70
1, 69397, Control_c, 0, 64, 71
1, 69404, Note_off_c, 0, 64, 61
1, 69445, Note_on_c, 0, 66, 62
1, 69492, Note_off_c, 0, 49, 45
1, 69503, Note_off_c, 0, 66, 62
1, 69523, Note_on_c, 0, 44, 47
1, 69529, Note_on_c, 0, 64, 64
1, 69600, Note_on_c, 0, 68, 70
1, 69605, Control_c, 0, 64, 72
1, 69620, Control_c, 0, 64, 73
1, 69634, Control_c, 0, 64, 75
1, 69649, Control_c, 0, 64, 78
1, 69664, Control_c, 0, 64, 79
1, 69688, Note_off_c, 0, 44, 60
1, 69694, Control_c, 0, 64, 76
1, 69708, Control_c, 0, 64, 66
1, 69723, Control_c, 0, 64, 57
1, 69729, Note_off_c, 0, 68, 59
1, 69734, Note_on_c, 0, 71, 70
1, 69738, Control_c, 0, 64, 48
1, 69741, Note_on_c, 0, 49, 51
1, 69752, Control_c, 0, 64, 44
1, 69767, Control_c, 0, 64, 43
1, 69782, Control_c, 0, 64, 47
1, 69797, Control_c, 0, 64, 52
1, 69812, Control_c, 0, 64, 59
1, 69826, Control_c, 0, 64, 65
1, 69841, Control_c, 0, 64, 71
1, 69856, Control_c, 0, 64, 79
1, 69871, Control_c, 0, 64, 86
1, 69886, Control_c, 0, 64, 86
1, 69891, Note_off_c, 0, 56, 60
1, 69901, Control_c, 0, 64, 79
1, 69916, Control_c, 0, 64, 68
1, 69938, Control_c, 0, 64, 62
1, 69947, Note_off_c, 0, 71, 57
1, 69952, Note_on_c, 0, 70, 65
1, 69953, Control_c, 0, 64, 60
1, 69960, Note_on_c, 0, 58, 54
1, 69967, Control_c, 0, 64, 61
1, 69982, Control_c, 0, 64, 64
1, 69997, Control_c, 0, 64, 68
1, 70012, Control_c, 0, 64, 78
1, 70027, Control_c, 0, 64, 92
1, 70041, Control_c, 0, 64, 102
1, 70071, Control_c, 0, 64, 86
1, 70086, Control_c, 0, 64, 71
1, 70101, Control_c, 0, 64, 60
1, 70110, Note_off_c, 0, 49, 52
1, 70115, Control_c, 0, 64, 51
1, 70130, Control_c, 0, 64, 50
1, 70134, Note_on_c, 0, 59, 49
1, 70145, Control_c, 0, 64, 55
1, 70157, Note_off_c, 0, 58, 57
1, 70160, Control_c, 0, 64, 62
1, 70175, Control_c, 0, 64, 70
1, 70190, Control_c, 0, 64, 85
1, 70205, Control_c, 0, 64, 107
1, 70220, Control_c, 0, 64, 101
1, 70234, Control_c, 0, 64, 83
1, 70249, Control_c, 0, 64, 69
1, 70264, Control_c, 0, 64, 61
1, 70276, Note_on_c, 0, 49, 32
1, 70278, Control_c, 0, 64, 58
1, 70293, Control_c, 0, 64, 60
1, 70297, Note_on_c, 0, 68, 72
1, 70308, Control_c, 0, 64, 64
1, 70323, Control_c, 0, 64, 71
1, 70338, Control_c, 0, 64, 81
1, 70345, Note_off_c, 0, 59, 36
1, 70348, Note_off_c, 0, 70, 63
1, 70354, Control_c, 0, 64, 93
1, 70364, Note_off_c, 0, 68, 64
1, 70369, Control_c, 0, 64, 107
1, 70383, Control_c, 0, 64, 127
1, 70552, Note_on_c, 0, 68, 69
1, 70566, Note_off_c, 0, 49, 41
1, 70568, Note_on_c, 0, 59, 44
1, 70570, Note_on_c, 0, 54, 47
1, 70575, Control_c, 0, 64, 100
1, 70590, Control_c, 0, 64, 75
1, 70605, Control_c, 0, 64, 60
1, 70619, Note_off_c, 0, 54, 52
1, 70620, Control_c, 0, 64, 50
1, 70635, Control_c, 0, 64, 46
1, 70649, Control_c, 0, 64, 45
1, 70664, Control_c, 0, 64, 47
1, 70687, Control_c, 0, 64, 53
1, 70702, Control_c, 0, 64, 60
1, 70717, Control_c, 0, 64, 68
1, 70731, Control_c, 0, 64, 80
1, 70746, Control_c, 0, 64, 98
1, 70761, Control_c, 0, 64, 127
1, 70771, Poly_aftertouch_c, 0, 54, 127
1, 70782, Note_off_c, 0, 64, 61
1, 70834, Note_off_c, 0, 59, 0
1, 70870, Poly_aftertouch_c, 0, 59, 127
1, 70968, Control_c, 0, 64, 88
1, 70983, Poly_aftertouch_c, 0, 54, 0
1, 70983, Control_c, 0, 64, 74
1, 70983, Note_on_c, 0, 64, 46
1, 70998, Control_c, 0, 64, 71
1, 71003, Note_on_c, 0, 56, 32
1, 71013, Control_c, 0, 64, 74
1, 71028, Control_c, 0, 64, 78
1, 71043, Control_c, 0, 64, 83
1, 71057, Control_c, 0, 64, 91
1, 71072, Control_c, 0, 64, 100
1, 71087, Control_c, 0, 64, 108
1, 71102, Control_c, 0, 64, 113
1, 71117, Control_c, 0, 64, 115
1, 71139, Note_on_c, 0, 66, 56
1, 71150, Note_off_c, 0, 68, 53
1, 71162, Control_c, 0, 64, 118
1, 71199, Poly_aftertouch_c, 0, 59, 0
1, 71206, Control_c, 0, 64, 120
1, 71214, Note_off_c, 0, 56, 39
1, 71221, Control_c, 0, 64, 122
1, 71236, Control_c, 0, 64, 127
1, 71293, Note_on_c, 0, 65, 62
1, 71331, Note_off_c, 0, 64, 54
1, 71331, Note_off_c, 0, 65, 64
1, 71370, Note_off_c, 0, 66, 48
1, 71478, Note_on_c, 0, 58, 48
1, 71525, Control_c, 0, 64, 111
1, 71526, Note_on_c, 0, 64, 39
1, 71540, Control_c, 0, 64, 81
1, 71555, Control_c, 0, 64, 66
1, 71570, Control_c, 0, 64, 59
1, 71585, Control_c, 0, 64, 57
1, 71590, Note_on_c, 0, 66, 49
1, 71599, Control_c, 0, 64, 59
1, 71614, Control_c, 0, 64, 62
1, 71629, Control_c, 0, 64, 66
1, 71644, Control_c, 0, 64, 72
1, 71659, Control_c, 0, 64, 84
1, 71673, Control_c, 0, 64, 103
1, 71688, Control_c, 0, 64, 127
1, 71724, Note_off_c, 0, 66, 50
1, 71725, Note_on_c, 0, 78, 59
1, 71762, Control_c, 0, 64, 105
1, 71777, Control_c, 0, 64, 81
1, 71792, Control_c, 0, 64, 70
1, 71806, Control_c, 0, 64, 65
1, 71821, Control_c, 0, 64, 66
1, 71829, Note_on_c, 0, 77, 56
1, 71836, Control_c, 0, 64, 69
1, 71850, Control_c, 0, 64, 73
1, 71865, Control_c, 0, 64, 78
1, 71874, Note_on_c, 0, 66, 48
1, 71880, Control_c, 0, 64, 84
1, 71885, Note_off_c, 0, 78, 28
1, 71895, Control_c, 0, 64, 88
1, 71901, Note_off_c, 0, 77, 64
1, 71910, Control_c, 0, 64, 90
1, 71923, Note_on_c, 0, 76, 59
1, 71925, Control_c, 0, 64, 90
1, 71950, Note_off_c, 0, 58, 62
1, 71955, Control_c, 0, 64, 91
1, 71970, Control_c, 0, 64, 92
1, 71985, Control_c, 0, 64, 94
1, 72000, Control_c, 0, 64, 96
1, 72006, Note_off_c, 0, 76, 63
1, 72015, Control_c, 0, 64, 98
1, 72028, Note_on_c, 0, 75, 54
1, 72029, Control_c, 0, 64, 100
1, 72038, Note_off_c, 0, 64, 37
1, 72044, Note_off_c, 0, 66, 32
1, 72059, Control_c, 0, 64, 102
1, 72074, Note_off_c, 0, 75, 61
1, 72134, Note_on_c, 0, 73, 51
1, 72134, Control_c, 0, 64, 104
1, 72185, Control_c, 0, 64, 106
1, 72215, Control_c, 0, 64, 109
1, 72244, Control_c, 0, 64, 112
1, 72318, Control_c, 0, 64, 100
1, 72333, Control_c, 0, 64, 88
1, 72345, Note_on_c, 0, 64, 37
1, 72345, Note_on_c, 0, 66, 38
1, 72348, Control_c, 0, 64, 77
1, 72348, Note_off_c, 0, 73, 37
1, 72354, Note_on_c, 0, 76, 47
1, 72355, Note_on_c, 0, 57, 32
1, 72362, Note_on_c, 0, 59, 29
1, 72363, Control_c, 0, 64, 67
1, 72378, Control_c, 0, 64, 60
1, 72393, Control_c, 0, 64, 51
1, 72408, Control_c, 0, 64, 43
1, 72422, Control_c, 0, 64, 37
1, 72437, Control_c, 0, 64, 33
1, 72452, Control_c, 0, 64, 32
1, 72467, Control_c, 0, 64, 36
1, 72472, Note_off_c, 0, 76, 61
1, 72481, Control_c, 0, 64, 44
1, 72490, Note_on_c, 0, 75, 47
1, 72496, Control_c, 0, 64, 54
1, 72511, Control_c, 0, 64, 62
1, 72526, Control_c, 0, 64, 67
1, 72541, Control_c, 0, 64, 71
1, 72542, Note_off_c, 0, 75, 54
1, 72554, Control_c, 0, 64, 75
1, 72569, Control_c, 0, 64, 78
1, 72584, Control_c, 0, 64, 80
1, 72586, Note_on_c, 0, 78, 55
1, 72599, Control_c, 0, 64, 83
1, 72614, Control_c, 0, 64, 86
1, 72628, Control_c, 0, 64, 91
1, 72643, Control_c, 0, 64, 95
1, 72658, Control_c, 0, 64, 99
1, 72663, Note_off_c, 0, 57, 42
1, 72665, Note_on_c, 0, 76, 61
1, 72673, Control_c, 0, 64, 102
1, 72688, Control_c, 0, 64, 105
1, 72694, Note_off_c, 0, 78, 49
1, 72703, Control_c, 0, 64, 109
1, 72707, Note_off_c, 0, 76, 61
1, 72712, Note_off_c, 0, 66, 56
1, 72718, Control_c, 0, 64, 114
1, 72733, Control_c, 0, 64, 122
1, 72748, Note_on_c, 0, 73, 58
1, 72748, Control_c, 0, 64, 127
1, 72777, Note_off_c, 0, 73, 64
1, 72882, Control_c, 0, 64, 107
1, 72884, Note_on_c, 0, 76, 58
1, 72894, Note_on_c, 0, 68, 43
1, 72896, Control_c, 0, 64, 84
1, 72898, Note_on_c, 0, 56, 48
1, 72911, Control_c, 0, 64, 71
1, 72933, Control_c, 0, 64, 61
1, 72948, Control_c, 0, 64, 48
1, 72963, Control_c, 0, 64, 32
1, 72971, Note_off_c, 0, 76, 59
1, 72977, Control_c, 0, 64, 0
1, 72987, Note_on_c, 0, 75, 52
1, 73052, Note_off_c, 0, 75, 55
1, 73061, Note_on_c, 0, 73, 53
1, 73126, Control_c, 0, 64, 44
1, 73141, Control_c, 0, 64, 57
1, 73147, Note_off_c, 0, 73, 60
1, 73156, Control_c, 0, 64, 64
1, 73170, Control_c, 0, 64, 68
1, 73185, Control_c, 0, 64, 73
1, 73200, Note_on_c, 0, 71, 50
1, 73200, Control_c, 0, 64, 81
1, 73215, Control_c, 0, 64, 91
1, 73223, Note_off_c, 0, 71, 63
1, 73230, Control_c, 0, 64, 101
1, 73244, Control_c, 0, 64, 114
1, 73259, Control_c, 0, 64, 127
1, 73733, Note_on_c, 0, 80, 48
1, 73758, Note_off_c, 0, 80, 57
1, 73809, Note_on_c, 0, 80, 69
1, 74099, Note_off_c, 0, 56, 49
1, 74130, Note_off_c, 0, 80, 62
1, 74169, Note_off_c, 0, 68, 59
1, 74192, Note_off_c, 0, 59, 41
1, 74250, Note_off_c, 0, 64, 37
1, 74532, Note_on_c, 0, 64, 39
1, 74536, Control_c, 0, 64, 95
1, 74537, Note_on_c, 0, 66, 35
1, 74550, Control_c, 0, 64, 78
1, 74551, Note_on_c, 0, 59, 26
1, 74555, Note_on_c, 0, 57, 37
1, 74565, Control_c, 0, 64, 67
1, 74580, Control_c, 0, 64, 59
1, 74595, Control_c, 0, 64, 54
1, 74610, Control_c, 0, 64, 53
1, 74624, Control_c, 0, 64, 54
1, 74639, Control_c, 0, 64, 56
1, 74654, Control_c, 0, 64, 59
1, 74656, Note_on_c, 0, 76, 48
1, 74669, Control_c, 0, 64, 62
1, 74683, Control_c, 0, 64, 66
1, 74698, Control_c, 0, 64, 72
1, 74713, Control_c, 0, 64, 76
1, 74724, Note_off_c, 0, 76, 60
1, 74728, Control_c, 0, 64, 78
1, 74734, Note_on_c, 0, 73, 53
1, 74742, Control_c, 0, 64, 81
1, 74757, Control_c, 0, 64, 83
1, 74772, Control_c, 0, 64, 85
1, 74783, Note_off_c, 0, 73, 54
1, 74787, Control_c, 0, 64, 86
1, 74789, Note_off_c, 0, 57, 57
1, 74802, Control_c, 0, 64, 87
1, 74810, Note_on_c, 0, 80, 64
1, 74816, Control_c, 0, 64, 88
1, 74863, Note_on_c, 0, 78, 57
1, 74891, Note_off_c, 0, 66, 52
1, 74891, Control_c, 0, 64, 88
1, 74898, Note_off_c, 0, 80, 45
1, 74920, Note_on_c, 0, 76, 68
1, 74950, Control_c, 0, 64, 89
1, 74953, Note_off_c, 0, 78, 62
1, 74959, Note_off_c, 0, 76, 61
1, 74965, Control_c, 0, 64, 90
1, 74980, Control_c, 0, 64, 93
1, 74995, Control_c, 0, 64, 96
1, 74999, Note_on_c, 0, 73, 56
1, 75010, Control_c, 0, 64, 100
1, 75024, Control_c, 0, 64, 103
1, 75030, Note_off_c, 0, 73, 65
1, 75039, Control_c, 0, 64, 105
1, 75082, Note_on_c, 0, 76, 58
1, 75090, Note_on_c, 0, 56, 43
1, 75094, Note_on_c, 0, 68, 40
1, 75098, Control_c, 0, 64, 102
1, 75113, Control_c, 0, 64, 95
1, 75128, Control_c, 0, 64, 88
1, 75144, Control_c, 0, 64, 79
1, 75150, Note_on_c, 0, 75, 56
1, 75159, Control_c, 0, 64, 71
1, 75180, Control_c, 0, 64, 65
1, 75186, Note_off_c, 0, 76, 54
1, 75195, Control_c, 0, 64, 59
1, 75210, Control_c, 0, 64, 55
1, 75225, Control_c, 0, 64, 50
1, 75226, Note_off_c, 0, 75, 61
1, 75239, Note_on_c, 0, 74, 44
1, 75240, Control_c, 0, 64, 44
1, 75255, Control_c, 0, 64, 35
1, 75266, Note_off_c, 0, 74, 51
1, 75269, Control_c, 0, 64, 0
1, 75302, Note_on_c, 0, 76, 60
1, 75357, Note_off_c, 0, 76, 59
1, 75376, Note_on_c, 0, 73, 53
1, 75418, Note_off_c, 0, 73, 63
1, 75441, Note_on_c, 0, 72, 47
1, 75546, Note_off_c, 0, 72, 57
1, 75587, Note_on_c, 0, 71, 39
1, 75654, Control_c, 0, 64, 38
1, 75669, Control_c, 0, 64, 55
1, 75684, Control_c, 0, 64, 64
1, 75689, Note_off_c, 0, 68, 55
1, 75699, Control_c, 0, 64, 73
1, 75714, Control_c, 0, 64, 84
1, 75728, Control_c, 0, 64, 107
1, 75743, Control_c, 0, 64, 127
1, 75761, Note_off_c, 0, 64, 47
1, 75812, Note_off_c, 0, 59, 43
1, 75820, Note_off_c, 0, 56, 61
1, 75901, Note_off_c, 0, 71, 42
1, 76165, Note_on_c, 0, 88, 65
1, 76250, Note_on_c, 0, 49, 36
1, 76340, Note_off_c, 0, 49, 54
1, 76370, Note_on_c, 0, 59, 22
1, 76469, Note_off_c, 0, 88, 38
1, 76578, Note_on_c, 0, 88, 60
1, 76596, Note_on_c, 0, 68, 39
1, 76641, Note_off_c, 0, 68, 50
1, 76647, Note_off_c, 0, 59, 41
1, 76870, Control_c, 0, 67, 114
1, 76885, Control_c, 0, 67, 102
1, 76900, Control_c, 0, 67, 88
1, 76915, Control_c, 0, 67, 76
1, 76930, Control_c, 0, 67, 65
1, 76945, Control_c, 0, 67, 54
1, 76960, Control_c, 0, 67, 44
1, 76975, Control_c, 0, 67, 34
1, 76989, Control_c, 0, 67, 23
1, 77004, Control_c, 0, 67, 0
1, 77497, Note_off_c, 0, 88, 52
1, 77872, Control_c, 0, 67, 19
1, 77916, Control_c, 0, 67, 22
1, 77931, Control_c, 0, 64, 113
1, 77946, Control_c, 0, 64, 89
1, 77946, Control_c, 0, 67, 24
1, 77960, Control_c, 0, 64, 74
1, 77975, Control_c, 0, 64, 62
1, 77975, Control_c, 0, 67, 27
1, 77990, Control_c, 0, 64, 48
1, 77990, Control_c, 0, 67, 29
1, 78005, Control_c, 0, 64, 37
1, 78005, Control_c, 0, 67, 31
1, 78019, Control_c, 0, 64, 0
1, 78019, Control_c, 0, 67, 37
1, 78034, Control_c, 0, 67, 44
1, 78049, Control_c, 0, 67, 53
1, 78064, Control_c, 0, 67, 64
1, 78079, Control_c, 0, 67, 76
1, 78093, Control_c, 0, 67, 85
1, 78108, Control_c, 0, 67, 90
1, 78123, Control_c, 0, 67, 94
1, 78138, Control_c, 0, 67, 96
1, 78153, Control_c, 0, 67, 98
1, 78175, Control_c, 0, 67, 100
1, 78205, Control_c, 0, 67, 102
1, 78234, Control_c, 0, 67, 104
1, 78279, Control_c, 0, 67, 107
1, 78308, Control_c, 0, 67, 110
1, 78338, Control_c, 0, 67, 113
1, 78384, Control_c, 0, 67, 116
1, 78413, Control_c, 0, 67, 118
1, 78442, Control_c, 0, 67, 122
1, 78472, Control_c, 0, 67, 124
1, 78491, Note_on_c, 0, 68, 43
1, 78516, Control_c, 0, 67, 126
1, 78757, Note_on_c, 0, 70, 66
1, 78806, Note_off_c, 0, 68, 55
1, 78982, Note_on_c, 0, 71, 61
1, 79025, Note_off_c, 0, 70, 60
1, 79380, Note_on_c, 0, 70, 51
1, 79416, Note_off_c, 0, 71, 55
1, 79620, Control_c, 0, 64, 29
1, 79687, Control_c, 0, 64, 31
1, 79717, Control_c, 0, 64, 32
1, 79879, Control_c, 0, 64, 32
1, 79924, Control_c, 0, 64, 33
1, 79935, Note_on_c, 0, 68, 49
1, 79940, Control_c, 0, 64, 33
1, 79955, Control_c, 0, 64, 34
1, 79969, Control_c, 0, 64, 34
1, 79984, Control_c, 0, 64, 35
1, 79999, Control_c, 0, 64, 36
1, 80013, Control_c, 0, 64, 36
1, 80014, Note_off_c, 0, 70, 49
1, 80028, Control_c, 0, 64, 37
1, 80043, Control_c, 0, 64, 37
1, 80058, Control_c, 0, 64, 38
1, 80073, Control_c, 0, 64, 38
1, 80102, Control_c, 0, 64, 39
1, 80117, Control_c, 0, 64, 39
1, 80147, Control_c, 0, 64, 40
1, 80191, Control_c, 0, 64, 40
1, 80206, Control_c, 0, 64, 41
1, 80221, Control_c, 0, 64, 41
1, 80236, Control_c, 0, 64, 42
1, 80251, Note_off_c, 0, 68, 61
1, 80254, Note_on_c, 0, 61, 48
1, 80265, Control_c, 0, 64, 42
1, 80280, Control_c, 0, 64, 43
1, 80295, Control_c, 0, 64, 44
1, 80325, Control_c, 0, 64, 44
1, 80340, Control_c, 0, 64, 45
1, 80354, Control_c, 0, 64, 45
1, 80384, Control_c, 0, 64, 46
1, 80399, Control_c, 0, 64, 46
1, 80420, Control_c, 0, 64, 47
1, 80435, Control_c, 0, 64, 48
1, 80450, Control_c, 0, 64, 49
1, 80465, Control_c, 0, 64, 50
1, 80471, Note_on_c, 0, 56, 60
1, 80480, Control_c, 0, 64, 52
1, 80495, Control_c, 0, 64, 53
1, 80510, Control_c, 0, 64, 55
1, 80525, Control_c, 0, 64, 57
1, 80539, Control_c, 0, 64, 60
1, 80554, Control_c, 0, 64, 62
1, 80569, Control_c, 0, 64, 65
1, 80584, Control_c, 0, 64, 68
1, 80599, Control_c, 0, 64, 70
1, 80613, Control_c, 0, 64, 73
1, 80628, Control_c, 0, 64, 77
1, 80643, Control_c, 0, 64, 81
1, 80658, Control_c, 0, 64, 85
1, 80667, Note_on_c, 0, 58, 68
1, 80673, Control_c, 0, 64, 88
1, 80679, Note_off_c, 0, 56, 60
1, 80687, Control_c, 0, 64, 90
1, 80702, Control_c, 0, 64, 91
1, 80733, Control_c, 0, 64, 92
1, 80896, Control_c, 0, 64, 91
1, 80903, Note_off_c, 0, 58, 59
1, 80910, Control_c, 0, 64, 90
1, 80915, Note_on_c, 0, 59, 59
1, 80922, Note_on_c, 0, 52, 48
1, 80925, Control_c, 0, 64, 87
1, 80927, Note_on_c, 0, 42, 48
1, 80940, Control_c, 0, 64, 84
1, 80955, Control_c, 0, 64, 80
1, 80970, Control_c, 0, 64, 74
1, 80984, Control_c, 0, 64, 68
1, 80999, Control_c, 0, 64, 63
1, 81014, Control_c, 0, 64, 57
1, 81029, Control_c, 0, 64, 52
1, 81043, Control_c, 0, 64, 47
1, 81058, Control_c, 0, 64, 42
1, 81073, Control_c, 0, 64, 39
1, 81088, Control_c, 0, 64, 38
1, 81118, Control_c, 0, 64, 39
1, 81133, Control_c, 0, 64, 39
1, 81148, Control_c, 0, 64, 40
1, 81169, Control_c, 0, 64, 41
1, 81184, Control_c, 0, 64, 42
1, 81199, Control_c, 0, 64, 42
1, 81214, Control_c, 0, 64, 43
1, 81229, Control_c, 0, 64, 44
1, 81243, Control_c, 0, 64, 44
1, 81258, Control_c, 0, 64, 45
1, 81288, Control_c, 0, 64, 45
1, 81318, Control_c, 0, 64, 46
1, 81328, Note_on_c, 0, 58, 54
1, 81333, Control_c, 0, 64, 46
1, 81339, Note_off_c, 0, 59, 52
1, 81347, Control_c, 0, 64, 47
1, 81377, Control_c, 0, 64, 47
1, 81407, Control_c, 0, 64, 48
1, 81466, Control_c, 0, 64, 48
1, 81556, Control_c, 0, 64, 49
1, 81734, Control_c, 0, 64, 48
1, 81778, Control_c, 0, 64, 48
1, 81869, Note_off_c, 0, 58, 60
1, 81886, Note_on_c, 0, 56, 43
1, 81893, Note_off_c, 0, 42, 46
1, 81899, Note_on_c, 0, 44, 29
1, 81949, Control_c, 0, 64, 48
1, 81964, Control_c, 0, 64, 49
1, 81979, Control_c, 0, 64, 52
1, 81993, Control_c, 0, 64, 56
1, 82008, Control_c, 0, 64, 61
1, 82023, Control_c, 0, 64, 65
1, 82038, Control_c, 0, 64, 69
1, 82053, Control_c, 0, 64, 74
1, 82067, Control_c, 0, 64, 78
1, 82082, Control_c, 0, 64, 83
1, 82097, Control_c, 0, 64, 87
1, 82112, Control_c, 0, 64, 93
1, 82127, Control_c, 0, 64, 101
1, 82128, Note_off_c, 0, 44, 42
1, 82134, Note_off_c, 0, 56, 59
1, 82141, Control_c, 0, 64, 116
1, 82156, Control_c, 0, 64, 127
1, 82230, Control_c, 0, 64, 112
1, 82245, Control_c, 0, 64, 88
1, 82249, Note_on_c, 0, 44, 45
1, 82260, Control_c, 0, 64, 77
1, 82275, Control_c, 0, 64, 71
1, 82289, Control_c, 0, 64, 71
1, 82304, Control_c, 0, 64, 72
1, 82319, Control_c, 0, 64, 73
1, 82335, Control_c, 0, 64, 75
1, 82350, Control_c, 0, 64, 78
1, 82364, Control_c, 0, 64, 79
1, 82379, Control_c, 0, 64, 79
1, 82478, Note_on_c, 0, 68, 61
1, 82528, Control_c, 0, 64, 79
1, 82572, Control_c, 0, 64, 78
1, 82691, Note_on_c, 0, 70, 73
1, 82722, Note_off_c, 0, 68, 60
1, 82799, Note_off_c, 0, 52, 36
1, 82905, Control_c, 0, 64, 78
1, 82920, Control_c, 0, 64, 76
1, 82934, Control_c, 0, 64, 75
1, 82949, Control_c, 0, 64, 72
1, 82963, Note_on_c, 0, 73, 71
1, 82964, Control_c, 0, 64, 67
1, 82973, Note_on_c, 0, 37, 41
1, 82979, Control_c, 0, 64, 62
1, 82983, Note_off_c, 0, 70, 55
1, 82994, Note_off_c, 0, 44, 43
1, 82994, Control_c, 0, 64, 56
1, 83008, Control_c, 0, 64, 48
1, 83023, Control_c, 0, 64, 38
1, 83038, Control_c, 0, 64, 0
1, 83142, Control_c, 0, 64, 31
1, 83157, Control_c, 0, 64, 50
1, 83172, Control_c, 0, 64, 62
1, 83187, Control_c, 0, 64, 67
1, 83202, Control_c, 0, 64, 71
1, 83217, Control_c, 0, 64, 75
1, 83231, Control_c, 0, 64, 80
1, 83246, Control_c, 0, 64, 86
1, 83261, Control_c, 0, 64, 94
1, 83276, Control_c, 0, 64, 100
1, 83291, Control_c, 0, 64, 106
1, 83305, Control_c, 0, 64, 112
1, 83309, Note_off_c, 0, 37, 45
1, 83320, Control_c, 0, 64, 119
1, 83335, Control_c, 0, 64, 127
1, 83362, Note_on_c, 0, 71, 71
1, 83422, Note_off_c, 0, 73, 40
1, 83453, Note_off_c, 0, 71, 60
1, 83623, Note_on_c, 0, 71, 62
1, 83683, Control_c, 0, 64, 118
1, 83698, Control_c, 0, 64, 109
1, 83712, Control_c, 0, 64, 103
1, 83727, Control_c, 0, 64, 99
1, 83742, Control_c, 0, 64, 96
1, 83756, Control_c, 0, 64, 94
1, 83771, Control_c, 0, 64, 92
1, 83787, Control_c, 0, 64, 90
1, 83802, Control_c, 0, 64, 88
1, 83817, Control_c, 0, 64, 86
1, 83820, Note_on_c, 0, 70, 70
1, 83831, Control_c, 0, 64, 84
1, 83833, Note_off_c, 0, 71, 57
1, 83846, Control_c, 0, 64, 82
1, 83861, Control_c, 0, 64, 79
1, 83876, Control_c, 0, 64, 78
1, 83891, Control_c, 0, 64, 76
1, 83905, Control_c, 0, 64, 74
1, 83920, Control_c, 0, 64, 72
1, 83936, Control_c, 0, 64, 71
1, 83951, Control_c, 0, 64, 70
1, 83966, Control_c, 0, 64, 68
1, 83978, Note_off_c, 0, 61, 40
1, 83980, Control_c, 0, 64, 67
1, 83985, Note_on_c, 0, 68, 64
1, 83995, Control_c, 0, 64, 67
1, 84010, Control_c, 0, 64, 66
1, 84025, Control_c, 0, 64, 65
1, 84040, Control_c, 0, 64, 64
1, 84054, Control_c, 0, 64, 62
1, 84069, Control_c, 0, 64, 61
1, 84075, Note_off_c, 0, 70, 54
1, 84084, Control_c, 0, 64, 60
1, 84099, Control_c, 0, 64, 59
1, 84114, Control_c, 0, 64, 58
1, 84129, Control_c, 0, 64, 57
1, 84144, Control_c, 0, 64, 56
1, 84180, Control_c, 0, 64, 56
1, 84195, Note_on_c, 0, 61, 65
1, 84202, Note_off_c, 0, 68, 58
1, 84225, Control_c, 0, 64, 55
1, 84269, Control_c, 0, 64, 55
1, 84284, Control_c, 0, 64, 54
1, 84314, Control_c, 0, 64, 54
1, 84328, Control_c, 0, 64, 53
1, 84358, Control_c, 0, 64, 53
1, 84367, Note_on_c, 0, 56, 62
1, 84388, Control_c, 0, 64, 53
1, 84403, Control_c, 0, 64, 54
1, 84418, Control_c, 0, 64, 55
1, 84433, Control_c, 0, 64, 57
1, 84448, Control_c, 0, 64, 61
1, 84462, Control_c, 0, 64, 65
1, 84477, Control_c, 0, 64, 70
1, 84492, Control_c, 0, 64, 74
1, 84506, Control_c, 0, 64, 77
1, 84521, Control_c, 0, 64, 81
1, 84526, Note_off_c, 0, 56, 60
1, 84536, Control_c, 0, 64, 86
1, 84543, Note_on_c, 0, 58, 66
1, 84551, Control_c, 0, 64, 92
1, 84566, Control_c, 0, 64, 102
1, 84580, Control_c, 0, 64, 117
1, 84595, Control_c, 0, 64, 127
1, 84657, Note_off_c, 0, 61, 53
1, 84766, Note_on_c, 0, 52, 50
1, 84769, Note_on_c, 0, 61, 70
1, 84775, Note_on_c, 0, 42, 46
1, 84796, Note_off_c, 0, 58, 58
1, 84803, Control_c, 0, 64, 109
1, 84818, Control_c, 0, 64, 89
1, 84833, Control_c, 0, 64, 75
1, 84848, Control_c, 0, 64, 65
1, 84863, Control_c, 0, 64, 54
1, 84877, Control_c, 0, 64, 44
1, 84892, Control_c, 0, 64, 34
1, 84915, Control_c, 0, 64, 0
1, 85223, Note_on_c, 0, 59, 55
1, 85300, Control_c, 0, 64, 41
1, 85315, Control_c, 0, 64, 55
1, 85329, Control_c, 0, 64, 61
1, 85344, Control_c, 0, 64, 63
1, 85359, Control_c, 0, 64, 65
1, 85374, Control_c, 0, 64, 66
1, 85389, Control_c, 0, 64, 67
1, 85393, Note_off_c, 0, 59, 62
1, 85403, Control_c, 0, 64, 67
1, 85482, Note_on_c, 0, 59, 47
1, 85612, Control_c, 0, 64, 68
1, 85675, Note_off_c, 0, 59, 58
1, 85691, Note_on_c, 0, 58, 48
1, 85738, Control_c, 0, 64, 67
1, 85752, Control_c, 0, 64, 66
1, 85767, Control_c, 0, 64, 64
1, 85782, Control_c, 0, 64, 61
1, 85797, Control_c, 0, 64, 58
1, 85810, Note_off_c, 0, 42, 47
1, 85812, Control_c, 0, 64, 55
1, 85826, Control_c, 0, 64, 55
1, 85840, Note_off_c, 0, 58, 60
1, 85841, Control_c, 0, 64, 56
1, 85856, Control_c, 0, 64, 57
1, 85871, Control_c, 0, 64, 59
1, 85886, Control_c, 0, 64, 61
1, 85892, Note_on_c, 0, 56, 42
1, 85899, Note_on_c, 0, 44, 42
1, 85901, Control_c, 0, 64, 64
1, 85915, Control_c, 0, 64, 66
1, 85930, Control_c, 0, 64, 68
1, 85945, Control_c, 0, 64, 70
1, 85959, Control_c, 0, 64, 73
1, 85974, Control_c, 0, 64, 75
1, 85989, Control_c, 0, 64, 77
1, 86004, Control_c, 0, 64, 79
1, 86019, Control_c, 0, 64, 82
1, 86033, Control_c, 0, 64, 85
1, 86048, Control_c, 0, 64, 89
1, 86049, Note_off_c, 0, 56, 50
1, 86063, Control_c, 0, 64, 94
1, 86078, Control_c, 0, 64, 98
1, 86093, Control_c, 0, 64, 100
1, 86123, Control_c, 0, 64, 91
1, 86138, Control_c, 0, 64, 74
1, 86152, Control_c, 0, 64, 57
1, 86167, Control_c, 0, 64, 39
1, 86174, Note_off_c, 0, 44, 38
1, 86176, Note_off_c, 0, 52, 54
1, 86177, Note_on_c, 0, 40, 48
1, 86182, Control_c, 0, 64, 33
1, 86197, Control_c, 0, 64, 40
1, 86212, Control_c, 0, 64, 53
1, 86226, Control_c, 0, 64, 62
1, 86241, Control_c, 0, 64, 68
1, 86255, Note_off_c, 0, 40, 61
1, 86256, Control_c, 0, 64, 78
1, 86270, Control_c, 0, 64, 88
1, 86285, Control_c, 0, 64, 96
1, 86300, Control_c, 0, 64, 107
1, 86315, Control_c, 0, 64, 127
1, 86437, Note_on_c, 0, 56, 48
1, 86445, Note_on_c, 0, 68, 55
1, 86448, Note_off_c, 0, 61, 37
1, 86621, Note_off_c, 0, 56, 44
1, 86630, Note_on_c, 0, 70, 59
1, 86636, Note_on_c, 0, 49, 46
1, 86785, Note_off_c, 0, 68, 29
1, 86812, Control_c, 0, 64, 112
1, 86815, Note_on_c, 0, 61, 52
1, 86827, Control_c, 0, 64, 88
1, 86840, Note_on_c, 0, 71, 50
1, 86842, Control_c, 0, 64, 78
1, 86856, Control_c, 0, 64, 75
1, 86869, Note_off_c, 0, 70, 37
1, 86886, Control_c, 0, 64, 76
1, 86901, Control_c, 0, 64, 80
1, 86914, Note_off_c, 0, 49, 43
1, 86916, Control_c, 0, 64, 85
1, 86919, Note_off_c, 0, 61, 60
1, 86931, Control_c, 0, 64, 93
1, 86946, Control_c, 0, 64, 100
1, 86961, Control_c, 0, 64, 103
1, 86999, Note_on_c, 0, 70, 59
1, 87032, Note_off_c, 0, 71, 30
1, 87156, Note_on_c, 0, 68, 62
1, 87178, Note_off_c, 0, 70, 37
1, 87265, Control_c, 0, 64, 105
1, 87279, Control_c, 0, 64, 112
1, 87294, Control_c, 0, 64, 122
1, 87309, Control_c, 0, 64, 118
1, 87324, Control_c, 0, 64, 94
1, 87327, Note_on_c, 0, 59, 42
1, 87339, Control_c, 0, 64, 73
1, 87342, Note_on_c, 0, 63, 56
1, 87348, Note_off_c, 0, 68, 57
1, 87354, Control_c, 0, 64, 56
1, 87369, Control_c, 0, 64, 42
1, 87384, Control_c, 0, 64, 39
1, 87398, Control_c, 0, 64, 44
1, 87413, Control_c, 0, 64, 53
1, 87428, Control_c, 0, 64, 61
1, 87440, Note_off_c, 0, 59, 49
1, 87443, Control_c, 0, 64, 67
1, 87458, Control_c, 0, 64, 76
1, 87472, Control_c, 0, 64, 84
1, 87487, Control_c, 0, 64, 90
1, 87502, Control_c, 0, 64, 97
1, 87506, Note_on_c, 0, 51, 47
1, 87517, Control_c, 0, 64, 106
1, 87531, Control_c, 0, 64, 114
1, 87546, Control_c, 0, 64, 122
1, 87561, Control_c, 0, 64, 127
1, 87642, Note_off_c, 0, 51, 36
1, 87648, Note_on_c, 0, 44, 51
1, 87879, Note_on_c, 0, 40, 46
1, 87887, Note_off_c, 0, 63, 54
1, 87887, Control_c, 0, 64, 116
1, 87888, Note_on_c, 0, 61, 55
1, 87888, Note_off_c, 0, 44, 37
1, 87909, Control_c, 0, 64, 87
1, 87925, Control_c, 0, 64, 69
1, 87940, Control_c, 0, 64, 57
1, 87954, Control_c, 0, 64, 45
1, 87969, Control_c, 0, 64, 44
1, 87984, Control_c, 0, 64, 47
1, 87999, Control_c, 0, 64, 53
1, 88014, Control_c, 0, 64, 59
1, 88018, Note_off_c, 0, 40, 60
1, 88028, Control_c, 0, 64, 65
1, 88043, Control_c, 0, 64, 71
1, 88058, Control_c, 0, 64, 78
1, 88059, Note_on_c, 0, 44, 41
1, 88073, Control_c, 0, 64, 83
1, 88088, Control_c, 0, 64, 86
1, 88102, Control_c, 0, 64, 90
1, 88117, Control_c, 0, 64, 94
1, 88132, Control_c, 0, 64, 97
1, 88144, Note_on_c, 0, 68, 56
1, 88146, Note_off_c, 0, 44, 59
1, 88147, Control_c, 0, 64, 102
1, 88162, Control_c, 0, 64, 106
1, 88177, Control_c, 0, 64, 110
1, 88181, Note_off_c, 0, 61, 36
1, 88192, Control_c, 0, 64, 114
1, 88201, Note_on_c, 0, 56, 48
1, 88207, Control_c, 0, 64, 119
1, 88221, Control_c, 0, 64, 125
1, 88236, Control_c, 0, 64, 127
1, 88276, Note_on_c, 0, 70, 61
1, 88283, Note_off_c, 0, 56, 47
1, 88325, Note_on_c, 0, 44, 53
1, 88399, Control_c, 0, 64, 114
1, 88414, Control_c, 0, 64, 85
1, 88415, Note_off_c, 0, 44, 56
1, 88425, Note_off_c, 0, 68, 40
1, 88428, Control_c, 0, 64, 74
1, 88442, Note_on_c, 0, 71, 61
1, 88443, Control_c, 0, 64, 70
1, 88449, Note_on_c, 0, 49, 48
1, 88457, Note_off_c, 0, 70, 57
1, 88458, Control_c, 0, 64, 72
1, 88472, Control_c, 0, 64, 75
1, 88487, Control_c, 0, 64, 81
1, 88502, Control_c, 0, 64, 91
1, 88517, Control_c, 0, 64, 106
1, 88532, Control_c, 0, 64, 127
1, 88536, Note_off_c, 0, 49, 62
1, 88564, Note_on_c, 0, 61, 50
1, 88591, Note_on_c, 0, 70, 64
1, 88646, Note_off_c, 0, 61, 39
1, 88653, Note_off_c, 0, 71, 36
1, 88679, Note_on_c, 0, 49, 51
1, 88731, Note_on_c, 0, 68, 74
1, 88764, Note_off_c, 0, 70, 59
1, 88773, Note_on_c, 0, 44, 57
1, 88820, Note_off_c, 0, 49, 32
1, 88855, Note_off_c, 0, 44, 58
1, 88866, Control_c, 0, 64, 99
1, 88881, Control_c, 0, 64, 70
1, 88890, Note_on_c, 0, 51, 58
1, 88895, Control_c, 0, 64, 52
1, 88903, Note_on_c, 0, 66, 63
1, 88908, Note_off_c, 0, 68, 60
1, 88910, Control_c, 0, 64, 32
1, 88925, Control_c, 0, 64, 0
1, 88940, Control_c, 0, 64, 32
1, 88955, Control_c, 0, 64, 46
1, 88964, Note_off_c, 0, 51, 60
1, 88970, Control_c, 0, 64, 57
1, 88985, Control_c, 0, 64, 65
1, 88995, Note_on_c, 0, 59, 54
1, 88999, Control_c, 0, 64, 72
1, 89014, Control_c, 0, 64, 81
1, 89030, Control_c, 0, 64, 87
1, 89044, Control_c, 0, 64, 95
1, 89059, Control_c, 0, 64, 105
1, 89068, Note_off_c, 0, 59, 55
1, 89074, Control_c, 0, 64, 119
1, 89089, Control_c, 0, 64, 127
1, 89107, Note_on_c, 0, 51, 55
1, 89138, Note_off_c, 0, 51, 64
1, 89250, Note_on_c, 0, 44, 45
1, 89429, Note_off_c, 0, 44, 44
1, 89452, Note_on_c, 0, 32, 52
1, 89467, Control_c, 0, 64, 106
1, 89482, Control_c, 0, 64, 80
1, 89496, Control_c, 0, 64, 63
1, 89511, Control_c, 0, 64, 49
1, 89527, Control_c, 0, 64, 41
1, 89542, Control_c, 0, 64, 44
1, 89557, Control_c, 0, 64, 54
1, 89572, Control_c, 0, 64, 62
1, 89587, Control_c, 0, 64, 69
1, 89601, Control_c, 0, 64, 80
1, 89605, Note_off_c, 0, 32, 52
1, 89616, Control_c, 0, 64, 95
1, 89631, Control_c, 0, 64, 115
1, 89646, Control_c, 0, 64, 127
1, 89657, Note_on_c, 0, 44, 42
1, 89688, Note_off_c, 0, 44, 54
1, 89777, Note_on_c, 0, 68, 48
1, 89820, Note_off_c, 0, 66, 35
1, 89911, Note_on_c, 0, 59, 44
1, 89978, Note_off_c, 0, 68, 57
1, 90001, Note_on_c, 0, 75, 51
1, 90084, Note_off_c, 0, 59, 37
1, 90121, Note_on_c, 0, 51, 38
1, 90180, Note_on_c, 0, 71, 45
1, 90223, Note_off_c, 0, 75, 39
1, 90249, Note_on_c, 0, 44, 47
1, 90269, Note_off_c, 0, 51, 36
1, 90290, Note_off_c, 0, 44, 63
1, 90395, Control_c, 0, 64, 86
1, 90403, Note_off_c, 0, 71, 57
1, 90409, Control_c, 0, 64, 66
1, 90424, Control_c, 0, 64, 52
1, 90430, Note_on_c, 0, 64, 49
1, 90439, Control_c, 0, 64, 48
1, 90454, Control_c, 0, 64, 53
1, 90454, Note_on_c, 0, 37, 46
1, 90468, Control_c, 0, 64, 60
1, 90483, Control_c, 0, 64, 65
1, 90498, Control_c, 0, 64, 73
1, 90508, Note_off_c, 0, 37, 56
1, 90513, Control_c, 0, 64, 85
1, 90528, Control_c, 0, 64, 102
1, 90542, Control_c, 0, 64, 127
1, 90568, Note_on_c, 0, 44, 54
1, 90595, Note_off_c, 0, 44, 62
1, 90701, Note_on_c, 0, 59, 56
1, 90777, Note_off_c, 0, 59, 61
1, 90824, Note_on_c, 0, 52, 53
1, 90851, Note_off_c, 0, 52, 57
1, 90943, Note_on_c, 0, 44, 64
1, 91015, Note_off_c, 0, 44, 47
1, 91053, Control_c, 0, 64, 100
1, 91068, Control_c, 0, 64, 71
1, 91080, Note_on_c, 0, 32, 62
1, 91083, Control_c, 0, 64, 57
1, 91090, Note_on_c, 0, 66, 67
1, 91094, Note_off_c, 0, 64, 64
1, 91098, Control_c, 0, 64, 50
1, 91113, Control_c, 0, 64, 55
1, 91128, Control_c, 0, 64, 62
1, 91143, Control_c, 0, 64, 69
1, 91152, Note_off_c, 0, 32, 59
1, 91158, Control_c, 0, 64, 81
1, 91173, Control_c, 0, 64, 101
1, 91184, Note_on_c, 0, 44, 63
1, 91187, Control_c, 0, 64, 127
1, 91213, Note_off_c, 0, 44, 66
1, 91334, Note_on_c, 0, 59, 64
1, 91408, Note_off_c, 0, 66, 58
1, 91420, Note_on_c, 0, 68, 75
1, 91485, Note_off_c, 0, 59, 36
1, 91518, Note_on_c, 0, 51, 55
1, 91581, Note_on_c, 0, 66, 78
1, 91614, Note_on_c, 0, 44, 60
1, 91614, Note_off_c, 0, 68, 58
1, 91620, Note_off_c, 0, 51, 59
1, 91654, Note_off_c, 0, 44, 64
1, 91772, Control_c, 0, 64, 73
1, 91787, Control_c, 0, 64, 51
1, 91802, Note_off_c, 0, 66, 62
1, 91802, Control_c, 0, 64, 0
1, 91814, Note_on_c, 0, 25, 67
1, 91818, Note_on_c, 0, 37, 58
1, 91820, Note_on_c, 0, 64, 66
1, 91831, Control_c, 0, 64, 42
1, 91844, Note_off_c, 0, 25, 63
1, 91846, Control_c, 0, 64, 58
1, 91857, Note_off_c, 0, 37, 63
1, 91861, Control_c, 0, 64, 68
1, 91876, Control_c, 0, 64, 82
1, 91891, Control_c, 0, 64, 127
1, 92000, Note_on_c, 0, 44, 66
1, 92050, Note_off_c, 0, 44, 59
1, 92073, Note_on_c, 0, 68, 64
1, 92083, Note_off_c, 0, 64, 60
1, 92094, Note_on_c, 0, 52, 57
1, 92135, Note_off_c, 0, 52, 62
1, 92188, Note_on_c, 0, 44, 62
1, 92188, Control_c, 0, 67, 115
1, 92203, Control_c, 0, 67, 102
1, 92218, Control_c, 0, 67, 86
1, 92233, Control_c, 0, 67, 69
1, 92247, Control_c, 0, 67, 51
1, 92248, Note_off_c, 0, 68, 61
1, 92257, Note_on_c, 0, 76, 74
1, 92261, Note_off_c, 0, 44, 56
1, 92262, Control_c, 0, 67, 31
1, 92277, Control_c, 0, 67, 0
1, 92283, Note_on_c, 0, 52, 60
1, 92317, Note_off_c, 0, 52, 63
1, 92365, Note_on_c, 0, 59, 53
1, 92417, Note_off_c, 0, 59, 57
1, 92474, Note_on_c, 0, 49, 63
1, 92483, Note_off_c, 0, 76, 63
1, 92488, Note_on_c, 0, 71, 73
1, 92521, Control_c, 0, 64, 119
1, 92536, Control_c, 0, 64, 110
1, 92551, Control_c, 0, 64, 113
1, 92556, Note_off_c, 0, 49, 55
1, 92566, Control_c, 0, 64, 127
1, 92568, Note_on_c, 0, 56, 60
1, 92636, Note_off_c, 0, 56, 59
1, 92680, Note_on_c, 0, 64, 53
1, 92699, Note_on_c, 0, 73, 82
1, 92742, Note_off_c, 0, 64, 53
1, 92745, Note_off_c, 0, 71, 61
1, 92793, Note_on_c, 0, 59, 61
1, 92833, Control_c, 0, 67, 20
1, 92848, Control_c, 0, 67, 22
1, 92862, Control_c, 0, 67, 24
1, 92877, Control_c, 0, 67, 26
1, 92892, Control_c, 0, 67, 28
1, 92907, Control_c, 0, 67, 30
1, 92922, Control_c, 0, 67, 33
1, 92936, Control_c, 0, 67, 38
1, 92951, Control_c, 0, 67, 43
1, 92959, Note_off_c, 0, 59, 55
1, 92966, Control_c, 0, 67, 49
1, 92968, Note_on_c, 0, 82, 91
1, 92970, Note_on_c, 0, 61, 52
1, 92979, Note_off_c, 0, 73, 63
1, 92981, Control_c, 0, 67, 56
1, 92995, Control_c, 0, 67, 63
1, 93010, Control_c, 0, 67, 68
1, 93025, Control_c, 0, 67, 72
1, 93027, Note_off_c, 0, 82, 61
1, 93040, Control_c, 0, 67, 76
1, 93055, Control_c, 0, 67, 79
1, 93069, Control_c, 0, 67, 81
1, 93084, Control_c, 0, 67, 83
1, 93099, Control_c, 0, 67, 84
1, 93113, Note_on_c, 0, 64, 53
1, 93114, Control_c, 0, 67, 84
1, 93117, Note_off_c, 0, 61, 56
1, 93129, Control_c, 0, 67, 85
1, 93142, Note_off_c, 0, 64, 64
1, 93225, Control_c, 0, 67, 85
1, 93240, Control_c, 0, 67, 86
1, 93255, Control_c, 0, 67, 86
1, 93266, Note_on_c, 0, 80, 83
1, 93269, Note_on_c, 0, 70, 63
1, 93269, Control_c, 0, 67, 89
1, 93272, Note_on_c, 0, 64, 42
1, 93284, Control_c, 0, 67, 93
1, 93299, Control_c, 0, 67, 97
1, 93314, Control_c, 0, 64, 91
1, 93314, Control_c, 0, 67, 99
1, 93319, Poly_aftertouch_c, 0, 73, 127
1, 93329, Control_c, 0, 64, 64
1, 93343, Control_c, 0, 64, 48
1, 93343, Control_c, 0, 67, 102
1, 93358, Poly_aftertouch_c, 0, 73, 0
1, 93358, Control_c, 0, 64, 46
1, 93358, Control_c, 0, 67, 104
1, 93373, Control_c, 0, 64, 55
1, 93373, Control_c, 0, 67, 108
1, 93388, Control_c, 0, 64, 63
1, 93388, Control_c, 0, 67, 115
1, 93402, Control_c, 0, 64, 71
1, 93402, Control_c, 0, 67, 122
1, 93408, Note_on_c, 0, 30, 61
1, 93417, Control_c, 0, 64, 93
1, 93417, Control_c, 0, 67, 127
1, 93419, Note_on_c, 0, 42, 66
1, 93432, Control_c, 0, 64, 127
1, 93442, Note_off_c, 0, 30, 62
1, 93452, Note_off_c, 0, 42, 65
1, 93453, Note_off_c, 0, 80, 61
1, 93591, Note_on_c, 0, 78, 78
1, 93611, Note_on_c, 0, 58, 69
1, 93742, Note_on_c, 0, 52, 61
1, 93743, Note_off_c, 0, 58, 58
1, 93762, Note_off_c, 0, 64, 44
1, 93876, Note_off_c, 0, 52, 61
1, 93906, Note_on_c, 0, 75, 72
1, 93906, Note_on_c, 0, 54, 58
1, 93984, Note_off_c, 0, 78, 40
1, 94028, Note_off_c, 0, 70, 45
1, 94061, Note_off_c, 0, 75, 61
1, 94078, Note_on_c, 0, 66, 56
1, 94103, Note_off_c, 0, 66, 63
1, 94135, Note_off_c, 0, 54, 63
1, 94398, Note_on_c, 0, 23, 68
1, 94398, Note_on_c, 0, 35, 65
1, 94404, Control_c, 0, 64, 85
1, 94406, Note_on_c, 0, 73, 69
1, 94417, Note_on_c, 0, 63, 52
1, 94419, Control_c, 0, 64, 63
1, 94434, Control_c, 0, 64, 37
1, 94449, Control_c, 0, 64, 0
1, 94478, Control_c, 0, 64, 37
1, 94493, Control_c, 0, 64, 52
1, 94503, Note_off_c, 0, 23, 64
1, 94508, Control_c, 0, 64, 62
1, 94523, Control_c, 0, 64, 72
1, 94535, Note_off_c, 0, 35, 62
1, 94538, Control_c, 0, 64, 85
1, 94553, Control_c, 0, 64, 102
1, 94568, Control_c, 0, 64, 127
1, 94711, Note_on_c, 0, 42, 51
1, 94773, Note_off_c, 0, 42, 46
1, 94789, Note_off_c, 0, 63, 55
1, 94809, Note_on_c, 0, 70, 66
1, 94818, Note_on_c, 0, 66, 53
1, 94830, Note_on_c, 0, 54, 55
1, 94900, Note_off_c, 0, 54, 34
1, 94921, Note_off_c, 0, 73, 35
1, 95004, Control_c, 0, 64, 95
1, 95019, Control_c, 0, 64, 78
1, 95024, Note_on_c, 0, 51, 52
1, 95033, Control_c, 0, 64, 73
1, 95034, Note_on_c, 0, 71, 65
1, 95044, Note_off_c, 0, 66, 31
1, 95063, Control_c, 0, 64, 74
1, 95069, Note_on_c, 0, 59, 14
1, 95072, Note_off_c, 0, 51, 62
1, 95078, Control_c, 0, 64, 77
1, 95093, Control_c, 0, 64, 81
1, 95107, Note_off_c, 0, 70, 34
1, 95109, Control_c, 0, 64, 87
1, 95112, Note_off_c, 0, 59, 38
1, 95124, Control_c, 0, 64, 92
1, 95127, Note_on_c, 0, 56, 55
1, 95138, Control_c, 0, 64, 95
1, 95153, Control_c, 0, 64, 96
1, 95170, Note_off_c, 0, 56, 56
1, 95182, Control_c, 0, 64, 99
1, 95197, Control_c, 0, 64, 103
1, 95212, Control_c, 0, 64, 109
1, 95227, Control_c, 0, 64, 113
1, 95253, Note_off_c, 0, 71, 58
1, 95257, Control_c, 0, 64, 101
1, 95258, Note_on_c, 0, 54, 57
1, 95271, Control_c, 0, 64, 89
1, 95280, Note_on_c, 0, 73, 64
1, 95286, Control_c, 0, 64, 79
1, 95301, Control_c, 0, 64, 73
1, 95316, Control_c, 0, 64, 72
1, 95322, Note_off_c, 0, 54, 55
1, 95331, Control_c, 0, 64, 74
1, 95346, Control_c, 0, 64, 76
1, 95361, Control_c, 0, 64, 81
1, 95373, Note_on_c, 0, 54, 38
1, 95376, Control_c, 0, 64, 86
1, 95397, Control_c, 0, 64, 91
1, 95412, Control_c, 0, 64, 96
1, 95427, Control_c, 0, 64, 100
1, 95438, Note_off_c, 0, 73, 60
1, 95441, Note_off_c, 0, 54, 58
1, 95442, Control_c, 0, 64, 102
1, 95471, Control_c, 0, 64, 99
1, 95486, Control_c, 0, 64, 88
1, 95499, Note_on_c, 0, 66, 46
1, 95501, Control_c, 0, 64, 78
1, 95510, Note_on_c, 0, 71, 63
1, 95516, Control_c, 0, 64, 72
1, 95531, Control_c, 0, 64, 68
1, 95538, Note_off_c, 0, 66, 48
1, 95560, Control_c, 0, 64, 69
1, 95575, Control_c, 0, 64, 71
1, 95590, Control_c, 0, 64, 74
1, 95605, Control_c, 0, 64, 77
1, 95617, Note_on_c, 0, 61, 54
1, 95620, Control_c, 0, 64, 78
1, 95635, Control_c, 0, 64, 78
1, 95664, Control_c, 0, 64, 79
1, 95671, Note_off_c, 0, 61, 54
1, 95679, Control_c, 0, 64, 79
1, 95694, Control_c, 0, 64, 81
1, 95704, Note_off_c, 0, 71, 60
1, 95709, Control_c, 0, 64, 83
1, 95724, Control_c, 0, 64, 86
1, 95738, Control_c, 0, 64, 86
1, 95739, Note_on_c, 0, 63, 39
1, 95751, Note_on_c, 0, 68, 58
1, 95768, Control_c, 0, 64, 82
1, 95782, Control_c, 0, 64, 76
1, 95797, Control_c, 0, 64, 72
1, 95805, Note_off_c, 0, 63, 51
1, 95812, Control_c, 0, 64, 71
1, 95842, Control_c, 0, 64, 72
1, 95856, Control_c, 0, 64, 75
1, 95871, Note_on_c, 0, 71, 54
1, 95871, Control_c, 0, 64, 79
1, 95886, Control_c, 0, 64, 82
1, 95901, Control_c, 0, 64, 83
1, 95909, Note_off_c, 0, 71, 66
1, 95917, Control_c, 0, 64, 83
1, 96079, Control_c, 0, 64, 84
1, 96094, Control_c, 0, 64, 84
1, 96121, Note_off_c, 0, 68, 58
1, 96139, Note_on_c, 0, 66, 61
1, 96161, Control_c, 0, 64, 81
1, 96176, Control_c, 0, 64, 76
1, 96191, Control_c, 0, 64, 71
1, 96206, Control_c, 0, 64, 68
1, 96220, Control_c, 0, 64, 67
1, 96250, Control_c, 0, 64, 68
1, 96265, Control_c, 0, 64, 69
1, 96280, Control_c, 0, 64, 70
1, 96294, Control_c, 0, 64, 72
1, 96305, Note_on_c, 0, 61, 43
1, 96309, Control_c, 0, 64, 73
1, 96324, Control_c, 0, 64, 75
1, 96397, Note_off_c, 0, 61, 59
1, 96413, Control_c, 0, 64, 75
1, 96443, Control_c, 0, 64, 76
1, 96461, Note_on_c, 0, 63, 52
1, 96465, Note_on_c, 0, 59, 38
1, 96487, Control_c, 0, 64, 76
1, 96498, Note_off_c, 0, 63, 63
1, 96517, Control_c, 0, 64, 78
1, 96522, Note_off_c, 0, 59, 47
1, 96532, Control_c, 0, 64, 79
1, 96547, Control_c, 0, 64, 81
1, 96562, Control_c, 0, 64, 83
1, 96573, Note_off_c, 0, 66, 48
1, 96575, Note_on_c, 0, 56, 41
1, 96577, Control_c, 0, 64, 83
1, 96592, Control_c, 0, 64, 82
1, 96605, Note_on_c, 0, 75, 68
1, 96606, Control_c, 0, 64, 77
1, 96621, Control_c, 0, 64, 69
1, 96636, Control_c, 0, 64, 63
1, 96651, Control_c, 0, 64, 59
1, 96680, Control_c, 0, 64, 61
1, 96695, Control_c, 0, 64, 64
1, 96708, Note_off_c, 0, 56, 36
1, 96711, Control_c, 0, 64, 67
1, 96726, Control_c, 0, 64, 74
1, 96741, Control_c, 0, 64, 80
1, 96748, Note_on_c, 0, 59, 30
1, 96750, Note_on_c, 0, 54, 46
1, 96756, Control_c, 0, 64, 83
1, 96771, Control_c, 0, 64, 84
1, 96777, Note_off_c, 0, 54, 57
1, 96781, Note_off_c, 0, 59, 45
1, 96785, Control_c, 0, 64, 84
1, 96967, Note_on_c, 0, 42, 49
1, 97118, Control_c, 0, 64, 84
1, 97192, Control_c, 0, 64, 84
1, 97222, Control_c, 0, 64, 86
1, 97236, Control_c, 0, 64, 87
1, 97251, Control_c, 0, 64, 86
1, 97266, Control_c, 0, 64, 77
1, 97280, Control_c, 0, 64, 66
1, 97295, Control_c, 0, 64, 55
1, 97298, Note_off_c, 0, 75, 63
1, 97310, Note_on_c, 0, 76, 61
1, 97310, Control_c, 0, 64, 42
1, 97315, Note_on_c, 0, 35, 45
1, 97325, Control_c, 0, 64, 37
1, 97340, Control_c, 0, 64, 40
1, 97354, Control_c, 0, 64, 51
1, 97369, Control_c, 0, 64, 61
1, 97380, Note_off_c, 0, 35, 62
1, 97384, Control_c, 0, 64, 70
1, 97399, Control_c, 0, 64, 90
1, 97402, Note_off_c, 0, 42, 63
1, 97414, Control_c, 0, 64, 127
1, 97605, Note_on_c, 0, 54, 48
1, 97709, Note_off_c, 0, 54, 48
1, 97716, Note_on_c, 0, 80, 56
1, 97728, Note_on_c, 0, 64, 42
1, 97790, Note_off_c, 0, 64, 52
1, 97838, Note_on_c, 0, 59, 33
1, 97856, Note_off_c, 0, 76, 57
1, 97903, Note_off_c, 0, 80, 60
1, 97909, Note_on_c, 0, 88, 77
1, 97927, Note_off_c, 0, 59, 38
1, 97936, Note_on_c, 0, 61, 45
1, 97984, Note_off_c, 0, 61, 61
1, 98002, Note_on_c, 0, 68, 58
1, 98035, Note_off_c, 0, 68, 65
1, 98087, Note_off_c, 0, 88, 63
1, 98102, Note_on_c, 0, 83, 69
1, 98178, Note_on_c, 0, 68, 60
1, 98220, Note_off_c, 0, 68, 55
1, 98294, Note_off_c, 0, 83, 61
1, 98300, Note_on_c, 0, 76, 33
1, 98306, Note_on_c, 0, 85, 63
1, 98345, Note_off_c, 0, 76, 48
1, 98391, Note_on_c, 0, 71, 33
1, 98465, Note_off_c, 0, 71, 40
1, 98512, Note_on_c, 0, 73, 45
1, 98537, Note_on_c, 0, 92, 67
1, 98541, Note_off_c, 0, 85, 61
1, 98562, Note_off_c, 0, 92, 67
1, 98619, Note_off_c, 0, 73, 58
1, 98661, Note_on_c, 0, 80, 44
1, 98687, Note_off_c, 0, 80, 58
1, 98896, Control_c, 0, 64, 114
1, 98911, Control_c, 0, 64, 85
1, 98916, Note_on_c, 0, 75, 64
1, 98926, Control_c, 0, 64, 78
1, 98935, Note_on_c, 0, 70, 35
1, 98941, Control_c, 0, 64, 78
1, 98956, Control_c, 0, 64, 84
1, 98971, Control_c, 0, 64, 97
1, 98985, Control_c, 0, 64, 127
1, 99114, Note_on_c, 0, 78, 54
1, 99140, Note_off_c, 0, 75, 59
1, 99196, Note_on_c, 0, 64, 40
1, 99197, Note_off_c, 0, 70, 35
1, 99214, Note_off_c, 0, 78, 61
1, 99220, Note_off_c, 0, 64, 58
1, 99247, Note_on_c, 0, 90, 62
1, 99301, Note_off_c, 0, 90, 47
1, 99358, Note_on_c, 0, 76, 67
1, 99360, Note_on_c, 0, 80, 63
1, 99382, Note_on_c, 0, 54, 44
1, 99433, Note_off_c, 0, 54, 50
1, 99498, Note_off_c, 0, 76, 60
1, 99513, Note_on_c, 0, 82, 58
1, 99551, Note_on_c, 0, 42, 38
1, 99563, Note_off_c, 0, 80, 49
1, 99615, Note_on_c, 0, 85, 54
1, 99619, Note_off_c, 0, 82, 58
1, 99788, Note_off_c, 0, 85, 63
1, 99812, Note_on_c, 0, 78, 70
1, 99820, Note_on_c, 0, 35, 46
1, 99823, Control_c, 0, 64, 101
1, 99838, Control_c, 0, 64, 76
1, 99853, Control_c, 0, 64, 62
1, 99868, Control_c, 0, 64, 53
1, 99890, Control_c, 0, 64, 52
1, 99907, Control_c, 0, 64, 56
1, 99921, Control_c, 0, 64, 61
1, 99936, Control_c, 0, 64, 66
1, 99951, Control_c, 0, 64, 75
1, 99957, Note_off_c, 0, 35, 50
1, 99966, Control_c, 0, 64, 91
1, 99980, Control_c, 0, 64, 127
1, 100026, Note_on_c, 0, 82, 50
1, 100100, Note_off_c, 0, 78, 58
1, 100136, Note_off_c, 0, 82, 55
1, 100149, Note_on_c, 0, 90, 51
1, 100150, Note_on_c, 0, 54, 36
1, 100150, Note_off_c, 0, 42, 50
1, 100182, Note_off_c, 0, 54, 50
1, 100211, Note_off_c, 0, 90, 59
1, 100238, Note_on_c, 0, 80, 62
1, 100245, Note_on_c, 0, 83, 60
1, 100324, Note_off_c, 0, 80, 54
1, 100335, Note_on_c, 0, 85, 64
1, 100341, Note_on_c, 0, 63, 57
1, 100345, Note_off_c, 0, 83, 54
1, 100424, Note_on_c, 0, 87, 62
1, 100452, Note_off_c, 0, 85, 38
1, 100493, Note_off_c, 0, 63, 36
1, 100512, Note_on_c, 0, 82, 68
1, 100513, Note_on_c, 0, 75, 47
1, 100522, Note_on_c, 0, 66, 49
1, 100524, Note_off_c, 0, 87, 52
1, 100587, Note_off_c, 0, 75, 40
1, 100619, Note_off_c, 0, 82, 54
1, 100654, Note_on_c, 0, 90, 57
1, 100757, Note_off_c, 0, 90, 51
1, 100758, Note_on_c, 0, 63, 54
1, 100761, Note_on_c, 0, 85, 63
1, 100771, Note_off_c, 0, 66, 58
1, 100792, Note_off_c, 0, 63, 64
1, 100845, Note_off_c, 0, 85, 63
1, 100853, Note_on_c, 0, 83, 70
1, 100928, Note_off_c, 0, 83, 63
1, 100949, Note_on_c, 0, 78, 70
1, 100975, Note_off_c, 0, 78, 65
1, 100978, Note_on_c, 0, 54, 41
1, 101030, Note_on_c, 0, 75, 53
1, 101031, Note_off_c, 0, 54, 0
1, 101031, Note_on_c, 0, 54, 8
1, 101051, Note_off_c, 0, 75, 63
1, 101138, Note_on_c, 0, 78, 67
1, 101141, Note_off_c, 0, 54, 38
1, 101156, Note_on_c, 0, 56, 51
1, 101219, Note_off_c, 0, 56, 47
1, 101266, Note_on_c, 0, 63, 38
1, 101299, Note_off_c, 0, 63, 54
1, 101315, Note_on_c, 0, 54, 41
1, 101342, Note_off_c, 0, 54, 61
1, 101345, Note_on_c, 0, 70, 63
1, 101397, Note_off_c, 0, 70, 56
1, 101401, Note_off_c, 0, 78, 60
1, 101445, Note_on_c, 0, 75, 69
1, 101448, Note_on_c, 0, 47, 45
1, 101459, Note_on_c, 0, 66, 51
1, 101481, Note_off_c, 0, 66, 60
1, 101539, Note_off_c, 0, 47, 38
1, 101558, Note_on_c, 0, 68, 60
1, 101580, Note_on_c, 0, 42, 43
1, 101604, Note_off_c, 0, 68, 51
1, 101645, Note_on_c, 0, 71, 68
1, 101674, Note_off_c, 0, 75, 61
1, 101730, Control_c, 0, 64, 94
1, 101745, Control_c, 0, 64, 68
1, 101759, Control_c, 0, 64, 52
1, 101762, Note_off_c, 0, 71, 62
1, 101774, Control_c, 0, 64, 48
1, 101784, Note_on_c, 0, 76, 73
1, 101786, Note_on_c, 0, 35, 56
1, 101789, Control_c, 0, 64, 56
1, 101790, Note_off_c, 0, 42, 39
1, 101804, Control_c, 0, 64, 65
1, 101819, Control_c, 0, 64, 74
1, 101833, Control_c, 0, 64, 95
1, 101841, Note_off_c, 0, 35, 62
1, 101848, Control_c, 0, 64, 127
1, 101940, Note_on_c, 0, 68, 50
1, 101942, Note_off_c, 0, 76, 56
1, 101998, Note_off_c, 0, 68, 53
1, 102066, Note_on_c, 0, 76, 52
1, 102077, Note_on_c, 0, 54, 37
1, 102100, Note_on_c, 0, 71, 54
1, 102148, Note_off_c, 0, 76, 58
1, 102177, Note_off_c, 0, 71, 59
1, 102178, Note_on_c, 0, 73, 65
1, 102207, Note_off_c, 0, 54, 42
1, 102226, Note_on_c, 0, 64, 48
1, 102253, Note_on_c, 0, 75, 58
1, 102290, Note_off_c, 0, 73, 57
1, 102342, Note_on_c, 0, 80, 57
1, 102342, Note_off_c, 0, 75, 63
1, 102392, Note_off_c, 0, 64, 53
1, 102417, Note_off_c, 0, 80, 62
1, 102449, Note_on_c, 0, 73, 57
1, 102464, Note_on_c, 0, 59, 28
1, 102466, Note_on_c, 0, 56, 46
1, 102474, Note_off_c, 0, 73, 65
1, 102575, Note_off_c, 0, 59, 40
1, 102613, Note_on_c, 0, 92, 55
1, 102700, Note_on_c, 0, 61, 43
1, 102706, Note_on_c, 0, 85, 64
1, 102713, Note_on_c, 0, 49, 37
1, 102741, Note_off_c, 0, 92, 59
1, 102742, Note_off_c, 0, 61, 55
1, 102750, Note_off_c, 0, 49, 51
1, 102762, Note_off_c, 0, 85, 53
1, 102778, Note_off_c, 0, 56, 19
1, 102801, Note_on_c, 0, 90, 65
1, 102908, Note_on_c, 0, 88, 65
1, 102914, Note_on_c, 0, 68, 45
1, 102915, Note_on_c, 0, 59, 42
1, 102920, Note_off_c, 0, 90, 55
1, 102977, Note_off_c, 0, 68, 35
1, 102980, Note_off_c, 0, 88, 64
1, 103008, Note_on_c, 0, 80, 55
1, 103029, Note_off_c, 0, 80, 64
1, 103227, Control_c, 0, 64, 97
1, 103230, Note_off_c, 0, 59, 56
1, 103242, Control_c, 0, 64, 73
1, 103245, Note_on_c, 0, 58, 49
1, 103249, Note_on_c, 0, 75, 64
1, 103257, Control_c, 0, 64, 62
1, 103260, Note_on_c, 0, 66, 32
1, 103272, Control_c, 0, 64, 57
1, 103287, Control_c, 0, 64, 58
1, 103302, Control_c, 0, 64, 60
1, 103317, Control_c, 0, 64, 61
1, 103331, Control_c, 0, 64, 64
1, 103346, Control_c, 0, 64, 69
1, 103361, Control_c, 0, 64, 76
1, 103376, Control_c, 0, 64, 84
1, 103391, Control_c, 0, 64, 90
1, 103405, Control_c, 0, 64, 95
1, 103409, Note_on_c, 0, 64, 43
1, 103420, Control_c, 0, 64, 98
1, 103426, Note_off_c, 0, 66, 37
1, 103435, Control_c, 0, 64, 101
1, 103450, Control_c, 0, 64, 104
1, 103465, Control_c, 0, 64, 107
1, 103479, Control_c, 0, 64, 109
1, 103494, Control_c, 0, 64, 113
1, 103509, Control_c, 0, 64, 116
1, 103513, Note_off_c, 0, 75, 54
1, 103519, Note_on_c, 0, 54, 48
1, 103523, Control_c, 0, 64, 119
1, 103534, Note_off_c, 0, 58, 58
1, 103544, Note_on_c, 0, 70, 47
1, 103549, Note_off_c, 0, 54, 62
1, 103604, Note_off_c, 0, 64, 38
1, 103660, Note_on_c, 0, 66, 43
1, 103764, Note_off_c, 0, 70, 25
1, 103787, Note_off_c, 0, 66, 40
1, 103797, Note_on_c, 0, 68, 45
1, 103804, Note_on_c, 0, 42, 38
1, 103812, Control_c, 0, 64, 117
1, 103871, Control_c, 0, 64, 114
1, 103887, Note_off_c, 0, 68, 49
1, 103897, Note_on_c, 0, 70, 44
1, 104006, Control_c, 0, 64, 119
1, 104020, Control_c, 0, 64, 127
1, 104080, Control_c, 0, 64, 93
1, 104095, Control_c, 0, 64, 71
1, 104107, Note_off_c, 0, 70, 55
1, 104110, Control_c, 0, 64, 59
1, 104125, Control_c, 0, 64, 50
1, 104125, Note_on_c, 0, 71, 52
1, 104132, Note_on_c, 0, 63, 25
1, 104133, Note_on_c, 0, 35, 41
1, 104139, Control_c, 0, 64, 50
1, 104154, Control_c, 0, 64, 53
1, 104169, Control_c, 0, 64, 58
1, 104184, Control_c, 0, 64, 63
1, 104190, Note_off_c, 0, 42, 39
1, 104199, Control_c, 0, 64, 69
1, 104214, Control_c, 0, 64, 76
1, 104228, Control_c, 0, 64, 85
1, 104230, Note_off_c, 0, 71, 63
1, 104243, Control_c, 0, 64, 91
1, 104258, Control_c, 0, 64, 96
1, 104265, Note_off_c, 0, 63, 55
1, 104272, Control_c, 0, 64, 102
1, 104287, Control_c, 0, 64, 105
1, 104332, Control_c, 0, 64, 108
1, 104399, Control_c, 0, 64, 110
1, 104412, Note_on_c, 0, 54, 46
1, 104428, Control_c, 0, 64, 112
1, 104458, Control_c, 0, 64, 115
1, 104472, Control_c, 0, 64, 118
1, 104487, Control_c, 0, 64, 122
1, 104502, Control_c, 0, 64, 127
1, 104524, Note_off_c, 0, 54, 36
1, 104535, Note_off_c, 0, 35, 40
1, 104552, Note_on_c, 0, 42, 45
1, 104576, Note_on_c, 0, 66, 51
1, 104676, Note_on_c, 0, 61, 46
1, 104751, Note_on_c, 0, 54, 56
1, 104755, Note_off_c, 0, 42, 63
1, 104772, Note_off_c, 0, 61, 38
1, 104774, Note_on_c, 0, 63, 46
1, 104781, Note_off_c, 0, 66, 32
1, 104787, Note_off_c, 0, 54, 65
1, 104854, Note_off_c, 0, 63, 49
1, 104867, Note_on_c, 0, 68, 55
1, 105043, Note_on_c, 0, 59, 36
1, 105043, Note_on_c, 0, 66, 49
1, 105051, Note_on_c, 0, 51, 38
1, 105055, Note_on_c, 0, 63, 32
1, 105083, Note_off_c, 0, 66, 59
1, 105094, Note_off_c, 0, 68, 40
1, 105207, Note_on_c, 0, 66, 51
1, 105318, Note_off_c, 0, 66, 39
1, 105342, Note_on_c, 0, 78, 63
1, 105436, Note_on_c, 0, 73, 65
1, 105442, Note_off_c, 0, 63, 37
1, 105543, Note_off_c, 0, 73, 52
1, 105561, Note_off_c, 0, 78, 24
1, 105567, Note_on_c, 0, 75, 50
1, 105619, Note_off_c, 0, 75, 55
1, 105635, Note_on_c, 0, 80, 66
1, 105725, Control_c, 0, 64, 113
1, 105740, Control_c, 0, 64, 85
1, 105755, Control_c, 0, 64, 73
1, 105763, Note_on_c, 0, 54, 69
1, 105770, Note_on_c, 0, 78, 57
1, 105770, Control_c, 0, 64, 68
1, 105785, Control_c, 0, 64, 69
1, 105800, Control_c, 0, 64, 73
1, 105804, Note_off_c, 0, 51, 47
1, 105805, Note_off_c, 0, 80, 32
1, 105811, Note_off_c, 0, 59, 55
1, 105815, Control_c, 0, 64, 77
1, 105830, Control_c, 0, 64, 84
1, 105844, Control_c, 0, 64, 96
1, 105859, Control_c, 0, 64, 125
1, 105881, Control_c, 0, 64, 127
1, 105895, Note_on_c, 0, 75, 41
1, 105954, Note_off_c, 0, 78, 57
1, 105966, Note_off_c, 0, 75, 60
1, 106018, Note_on_c, 0, 71, 40
1, 106045, Note_off_c, 0, 71, 54
1, 106163, Note_on_c, 0, 63, 73
1, 106172, Note_on_c, 0, 68, 63
1, 106192, Note_off_c, 0, 63, 65
1, 106210, Note_off_c, 0, 54, 62
1, 106309, Note_off_c, 0, 68, 61
1, 106339, Note_on_c, 0, 66, 50
1, 106363, Note_off_c, 0, 66, 61
1, 106473, Note_on_c, 0, 54, 56
1, 106689, Control_c, 0, 64, 91
1, 106704, Control_c, 0, 64, 67
1, 106711, Note_on_c, 0, 64, 68
1, 106718, Note_on_c, 0, 42, 47
1, 106719, Control_c, 0, 64, 52
1, 106724, Note_on_c, 0, 35, 46
1, 106730, Note_off_c, 0, 54, 60
1, 106734, Control_c, 0, 64, 48
1, 106748, Control_c, 0, 64, 54
1, 106763, Control_c, 0, 64, 62
1, 106778, Control_c, 0, 64, 67
1, 106793, Control_c, 0, 64, 83
1, 106808, Control_c, 0, 64, 127
1, 106821, Note_off_c, 0, 64, 63
1, 106833, Note_off_c, 0, 35, 59
1, 106876, Note_off_c, 0, 42, 61
1, 107048, Note_on_c, 0, 80, 64
1, 107153, Note_off_c, 0, 80, 60
1, 107196, Note_on_c, 0, 88, 62
1, 107198, Note_on_c, 0, 68, 49
1, 107240, Note_off_c, 0, 88, 64
1, 107302, Note_on_c, 0, 83, 61
1, 107335, Note_off_c, 0, 83, 64
1, 107380, Note_on_c, 0, 85, 67
1, 107406, Note_on_c, 0, 76, 52
1, 107428, Note_off_c, 0, 85, 61
1, 107442, Note_off_c, 0, 68, 52
1, 107445, Note_off_c, 0, 76, 44
1, 107464, Note_on_c, 0, 92, 67
1, 107481, Note_off_c, 0, 92, 66
1, 107548, Note_on_c, 0, 80, 65
1, 107555, Note_on_c, 0, 71, 47
1, 107575, Note_on_c, 0, 68, 62
1, 107582, Note_off_c, 0, 80, 57
1, 107611, Note_off_c, 0, 71, 43
1, 107642, Note_on_c, 0, 95, 63
1, 107730, Note_off_c, 0, 95, 63
1, 107758, Note_on_c, 0, 88, 63
1, 107764, Note_on_c, 0, 61, 49
1, 107776, Note_off_c, 0, 68, 39
1, 107780, Note_on_c, 0, 73, 49
1, 107791, Note_off_c, 0, 61, 58
1, 107801, Note_off_c, 0, 88, 63
1, 107815, Note_off_c, 0, 73, 61
1, 107877, Note_on_c, 0, 94, 66
1, 107988, Note_off_c, 0, 94, 52
1, 108013, Note_on_c, 0, 71, 31
1, 108017, Note_on_c, 0, 80, 42
1, 108042, Note_off_c, 0, 80, 56
1, 108050, Note_on_c, 0, 92, 47
1, 108059, Note_off_c, 0, 71, 45
1, 108170, Note_off_c, 0, 92, 53
1, 108189, Note_on_c, 0, 85, 55
1, 108225, Note_off_c, 0, 85, 63
1, 108453, Control_c, 0, 64, 83
1, 108459, Note_on_c, 0, 63, 64
1, 108468, Control_c, 0, 64, 64
1, 108476, Note_on_c, 0, 58, 54
1, 108483, Note_on_c, 0, 52, 48
1, 108483, Control_c, 0, 64, 48
1, 108498, Control_c, 0, 64, 47
1, 108507, Note_on_c, 0, 70, 44
1, 108512, Control_c, 0, 64, 51
1, 108527, Control_c, 0, 64, 58
1, 108542, Control_c, 0, 64, 63
1, 108557, Control_c, 0, 64, 69
1, 108572, Control_c, 0, 64, 79
1, 108586, Control_c, 0, 64, 95
1, 108599, Note_off_c, 0, 52, 58
1, 108601, Control_c, 0, 64, 112
1, 108616, Control_c, 0, 64, 127
1, 108622, Note_off_c, 0, 63, 62
1, 108634, Note_off_c, 0, 58, 62
1, 108662, Note_off_c, 0, 70, 56
1, 108703, Note_on_c, 0, 78, 62
1, 108787, Note_off_c, 0, 78, 61
1, 108796, Note_on_c, 0, 42, 54
1, 108822, Note_off_c, 0, 42, 61
1, 108885, Note_on_c, 0, 90, 66
1, 108926, Note_off_c, 0, 90, 50
1, 108972, Note_on_c, 0, 64, 72
1, 108995, Note_on_c, 0, 80, 64
1, 109071, Note_off_c, 0, 80, 55
1, 109093, Note_on_c, 0, 82, 64
1, 109145, Note_off_c, 0, 64, 55
1, 109184, Note_on_c, 0, 85, 66
1, 109188, Note_off_c, 0, 82, 56
1, 109276, Control_c, 0, 64, 76
1, 109291, Control_c, 0, 64, 57
1, 109297, Note_off_c, 0, 85, 60
1, 109306, Control_c, 0, 64, 42
1, 109314, Note_on_c, 0, 66, 72
1, 109314, Note_on_c, 0, 54, 56
1, 109321, Control_c, 0, 64, 47
1, 109323, Note_on_c, 0, 59, 54
1, 109332, Note_on_c, 0, 51, 60
1, 109332, Note_on_c, 0, 75, 56
1, 109332, Note_on_c, 0, 78, 63
1, 109336, Control_c, 0, 64, 59
1, 109350, Control_c, 0, 64, 67
1, 109365, Control_c, 0, 64, 79
1, 109380, Control_c, 0, 64, 127
1, 109381, Note_off_c, 0, 66, 61
1, 109399, Note_off_c, 0, 59, 60
1, 109412, Note_off_c, 0, 54, 59
1, 109444, Note_off_c, 0, 51, 60
1, 109488, Note_off_c, 0, 75, 52
1, 109538, Note_on_c, 0, 82, 65
1, 109545, Note_off_c, 0, 78, 59
1, 109632, Note_on_c, 0, 35, 68
1, 109633, Note_on_c, 0, 42, 67
1, 109647, Note_off_c, 0, 82, 61
1, 109660, Note_off_c, 0, 35, 61
1, 109666, Note_off_c, 0, 42, 63
1, 109723, Note_on_c, 0, 90, 70
1, 109838, Note_on_c, 0, 68, 81
1, 109857, Note_on_c, 0, 83, 62
1, 109935, Note_off_c, 0, 90, 48
1, 109962, Note_on_c, 0, 85, 72
1, 109996, Note_off_c, 0, 83, 54
1, 109999, Note_off_c, 0, 68, 35
1, 110068, Note_on_c, 0, 87, 68
1, 110098, Note_on_c, 0, 54, 63
1, 110123, Note_on_c, 0, 63, 63
1, 110188, Control_c, 0, 64, 103
1, 110200, Note_on_c, 0, 70, 85
1, 110203, Note_off_c, 0, 85, 33
1, 110203, Control_c, 0, 64, 78
1, 110218, Control_c, 0, 64, 68
1, 110232, Control_c, 0, 64, 68
1, 110247, Control_c, 0, 64, 72
1, 110262, Control_c, 0, 64, 78
1, 110277, Control_c, 0, 64, 86
1, 110292, Note_off_c, 0, 87, 45
1, 110293, Control_c, 0, 64, 99
1, 110307, Control_c, 0, 64, 127
1, 110378, Note_on_c, 0, 90, 59
1, 110477, Note_on_c, 0, 85, 70
1, 110492, Note_off_c, 0, 90, 37
1, 110499, Note_off_c, 0, 54, 59
1, 110533, Note_off_c, 0, 70, 62
1, 110552, Control_c, 0, 64, 102
1, 110567, Control_c, 0, 64, 95
1, 110569, Note_on_c, 0, 71, 74
1, 110582, Control_c, 0, 64, 96
1, 110584, Note_off_c, 0, 85, 62
1, 110593, Note_on_c, 0, 83, 57
1, 110596, Control_c, 0, 64, 98
1, 110599, Note_off_c, 0, 63, 38
1, 110611, Control_c, 0, 64, 106
1, 110626, Control_c, 0, 64, 127
1, 110709, Note_on_c, 0, 78, 65
1, 110716, Note_off_c, 0, 71, 61
1, 110812, Note_on_c, 0, 75, 60
1, 110848, Note_off_c, 0, 83, 52
1, 110918, Note_off_c, 0, 78, 20
1, 110948, Note_on_c, 0, 66, 70
1, 110972, Note_off_c, 0, 75, 57
1, 111011, Control_c, 0, 64, 108
1, 111026, Control_c, 0, 64, 88
1, 111040, Control_c, 0, 64, 81
1, 111055, Control_c, 0, 64, 80
1, 111070, Control_c, 0, 64, 80
1, 111086, Note_on_c, 0, 75, 62
1, 111086, Control_c, 0, 64, 83
1, 111101, Control_c, 0, 64, 89
1, 111124, Control_c, 0, 64, 97
1, 111138, Control_c, 0, 64, 108
1, 111153, Control_c, 0, 64, 122
1, 111168, Control_c, 0, 64, 127
1, 111228, Note_on_c, 0, 82, 66
1, 111255, Note_off_c, 0, 75, 38
1, 111365, Note_on_c, 0, 63, 68
1, 111370, Note_on_c, 0, 78, 65
1, 111381, Note_off_c, 0, 66, 54
1, 111404, Control_c, 0, 64, 98
1, 111415, Note_off_c, 0, 82, 54
1, 111419, Control_c, 0, 64, 83
1, 111434, Control_c, 0, 64, 77
1, 111449, Control_c, 0, 64, 76
1, 111464, Control_c, 0, 64, 79
1, 111478, Control_c, 0, 64, 84
1, 111493, Note_on_c, 0, 80, 56
1, 111493, Control_c, 0, 64, 91
1, 111508, Control_c, 0, 64, 98
1, 111523, Control_c, 0, 64, 103
1, 111531, Note_off_c, 0, 78, 38
1, 111538, Control_c, 0, 64, 107
1, 111553, Control_c, 0, 64, 109
1, 111568, Control_c, 0, 64, 112
1, 111582, Control_c, 0, 64, 114
1, 111612, Control_c, 0, 64, 118
1, 111630, Note_on_c, 0, 83, 61
1, 111636, Note_off_c, 0, 80, 62
1, 111651, Note_off_c, 0, 83, 64
1, 111671, Control_c, 0, 64, 120
1, 111701, Control_c, 0, 64, 125
1, 111716, Control_c, 0, 64, 127
1, 111902, Control_c, 0, 64, 88
1, 111904, Note_off_c, 0, 63, 62
1, 111917, Control_c, 0, 64, 66
1, 111923, Note_on_c, 0, 78, 60
1, 111930, Note_on_c, 0, 64, 59
1, 111932, Control_c, 0, 64, 51
1, 111935, Note_on_c, 0, 71, 48
1, 111941, Note_on_c, 0, 66, 46
1, 111946, Control_c, 0, 64, 44
1, 111961, Control_c, 0, 64, 47
1, 111976, Control_c, 0, 64, 57
1, 111983, Note_off_c, 0, 66, 62
1, 111991, Control_c, 0, 64, 64
1, 111995, Note_off_c, 0, 71, 64
1, 112006, Control_c, 0, 64, 71
1, 112020, Control_c, 0, 64, 86
1, 112027, Note_off_c, 0, 78, 64
1, 112035, Control_c, 0, 64, 114
1, 112050, Control_c, 0, 64, 127
1, 112226, Note_on_c, 0, 83, 56
1, 112295, Note_off_c, 0, 64, 36
1, 112334, Note_off_c, 0, 83, 60
1, 112336, Note_on_c, 0, 54, 26
1, 112363, Note_on_c, 0, 80, 49
1, 112444, Note_off_c, 0, 80, 57
1, 112473, Note_on_c, 0, 78, 43
1, 112478, Note_off_c, 0, 54, 42
1, 112506, Note_on_c, 0, 47, 46
1, 112530, Note_off_c, 0, 78, 62
1, 112551, Note_off_c, 0, 47, 60
1, 112578, Note_on_c, 0, 73, 59
1, 112662, Note_off_c, 0, 73, 61
1, 112675, Note_on_c, 0, 63, 61
1, 112718, Note_off_c, 0, 63, 57
1, 112740, Note_on_c, 0, 68, 46
1, 112933, Note_off_c, 0, 68, 59
1, 112976, Control_c, 0, 64, 81
1, 112982, Note_on_c, 0, 61, 56
1, 112991, Control_c, 0, 64, 63
1, 113002, Note_on_c, 0, 78, 59
1, 113006, Control_c, 0, 64, 50
1, 113013, Note_on_c, 0, 71, 34
1, 113021, Control_c, 0, 64, 44
1, 113035, Control_c, 0, 64, 46
1, 113039, Note_on_c, 0, 64, 7
1, 113050, Control_c, 0, 64, 53
1, 113065, Control_c, 0, 64, 61
1, 113080, Control_c, 0, 64, 67
1, 113082, Note_off_c, 0, 64, 52
1, 113095, Control_c, 0, 64, 78
1, 113109, Control_c, 0, 64, 95
1, 113124, Control_c, 0, 64, 127
1, 113133, Note_off_c, 0, 71, 46
1, 113154, Note_off_c, 0, 78, 64
1, 113297, Note_on_c, 0, 87, 58
1, 113375, Note_off_c, 0, 61, 52
1, 113386, Note_off_c, 0, 87, 58
1, 113411, Note_on_c, 0, 80, 60
1, 113412, Note_on_c, 0, 54, 41
1, 113508, Note_off_c, 0, 80, 59
1, 113510, Note_on_c, 0, 78, 57
1, 113538, Note_off_c, 0, 78, 65
1, 113592, Note_off_c, 0, 54, 41
1, 113605, Note_on_c, 0, 71, 59
1, 113616, Note_on_c, 0, 47, 46
1, 113643, Note_off_c, 0, 71, 62
1, 113645, Note_off_c, 0, 47, 63
1, 113687, Note_on_c, 0, 68, 62
1, 113742, Note_off_c, 0, 68, 50
1, 113799, Control_c, 0, 64, 88
1, 113814, Control_c, 0, 64, 65
1, 113827, Note_on_c, 0, 63, 66
1, 113829, Control_c, 0, 64, 51
1, 113837, Note_on_c, 0, 66, 50
1, 113839, Note_on_c, 0, 78, 64
1, 113850, Note_on_c, 0, 70, 10
1, 113858, Control_c, 0, 64, 59
1, 113859, Note_off_c, 0, 66, 58
1, 113867, Note_off_c, 0, 70, 51
1, 113873, Control_c, 0, 64, 65
1, 113888, Control_c, 0, 64, 73
1, 113902, Note_off_c, 0, 78, 63
1, 113903, Control_c, 0, 64, 89
1, 113918, Control_c, 0, 64, 127
1, 114039, Note_on_c, 0, 90, 64
1, 114126, Note_off_c, 0, 63, 59
1, 114177, Note_on_c, 0, 87, 58
1, 114181, Note_on_c, 0, 54, 41
1, 114188, Note_off_c, 0, 90, 51
1, 114233, Note_off_c, 0, 87, 55
1, 114301, Note_on_c, 0, 83, 37
1, 114331, Note_off_c, 0, 83, 49
1, 114397, Note_off_c, 0, 54, 37
1, 114400, Note_on_c, 0, 47, 42
1, 114403, Note_on_c, 0, 82, 60
1, 114506, Note_on_c, 0, 78, 53
1, 114515, Note_off_c, 0, 82, 34
1, 114606, Note_off_c, 0, 47, 33
1, 114668, Note_on_c, 0, 59, 55
1, 114674, Note_on_c, 0, 83, 61
1, 114682, Control_c, 0, 64, 83
1, 114684, Note_on_c, 0, 66, 41
1, 114689, Note_on_c, 0, 75, 45
1, 114697, Control_c, 0, 64, 64
1, 114704, Note_off_c, 0, 78, 0
1, 114712, Control_c, 0, 64, 53
1, 114713, Note_off_c, 0, 66, 55
1, 114726, Control_c, 0, 64, 55
1, 114740, Poly_aftertouch_c, 0, 78, 0
1, 114741, Control_c, 0, 64, 62
1, 114756, Control_c, 0, 64, 70
1, 114766, Note_off_c, 0, 75, 63
1, 114771, Control_c, 0, 64, 81
1, 114786, Control_c, 0, 64, 110
1, 114800, Control_c, 0, 64, 127
1, 114803, Note_off_c, 0, 83, 60
1, 114938, Note_on_c, 0, 87, 64
1, 115043, Note_off_c, 0, 87, 56
1, 115045, Note_on_c, 0, 54, 29
1, 115059, Note_on_c, 0, 78, 49
1, 115083, Note_off_c, 0, 59, 37
1, 115124, Note_off_c, 0, 78, 54
1, 115148, Note_on_c, 0, 85, 59
1, 115250, Note_on_c, 0, 47, 37
1, 115251, Note_on_c, 0, 87, 62
1, 115262, Note_off_c, 0, 85, 53
1, 115286, Note_off_c, 0, 47, 53
1, 115303, Note_off_c, 0, 54, 37
1, 115327, Note_on_c, 0, 90, 60
1, 115359, Note_off_c, 0, 87, 49
1, 115384, Note_off_c, 0, 90, 55
1, 115443, Note_on_c, 0, 83, 64
1, 115463, Note_on_c, 0, 66, 49
1, 115468, Note_off_c, 0, 83, 70
1, 115521, Note_off_c, 0, 66, 46
1, 115553, Note_on_c, 0, 78, 56
1, 115637, Note_off_c, 0, 78, 60
1, 115670, Note_on_c, 0, 75, 46
1, 115678, Note_on_c, 0, 54, 36
1, 115703, Note_off_c, 0, 75, 58
1, 115756, Note_on_c, 0, 80, 60
1, 115791, Note_off_c, 0, 54, 37
1, 115869, Note_on_c, 0, 75, 46
1, 115877, Note_on_c, 0, 47, 36
1, 115911, Note_off_c, 0, 80, 34
1, 116003, Note_on_c, 0, 66, 22
1, 116009, Note_off_c, 0, 75, 49
1, 116047, Note_off_c, 0, 66, 48
1, 116061, Note_off_c, 0, 47, 51
1, 116105, Note_on_c, 0, 73, 54
1, 116129, Note_on_c, 0, 54, 34
1, 116254, Note_on_c, 0, 75, 46
1, 116265, Note_off_c, 0, 73, 36
1, 116355, Note_off_c, 0, 54, 41
1, 116361, Note_on_c, 0, 78, 35
1, 116375, Note_on_c, 0, 47, 34
1, 116424, Note_off_c, 0, 78, 49
1, 116445, Note_off_c, 0, 75, 42
1, 116484, Note_on_c, 0, 71, 40
1, 116512, Note_off_c, 0, 71, 51
1, 116664, Note_on_c, 0, 63, 49
1, 116693, Note_on_c, 0, 42, 30
1, 116694, Note_off_c, 0, 47, 41
1, 116701, Note_off_c, 0, 63, 55
1, 116839, Note_on_c, 0, 54, 47
1, 117156, Note_off_c, 0, 42, 42
1, 117172, Control_c, 0, 64, 89
1, 117176, Note_on_c, 0, 52, 59
1, 117187, Note_on_c, 0, 59, 35
1, 117187, Control_c, 0, 64, 66
1, 117188, Note_on_c, 0, 66, 39
1, 117202, Control_c, 0, 64, 52
1, 117217, Control_c, 0, 64, 43
1, 117247, Control_c, 0, 64, 48
1, 117261, Note_off_c, 0, 54, 44
1, 117261, Control_c, 0, 64, 56
1, 117276, Control_c, 0, 64, 62
1, 117291, Control_c, 0, 64, 69
1, 117306, Control_c, 0, 64, 80
1, 117318, Note_off_c, 0, 59, 60
1, 117321, Control_c, 0, 64, 92
1, 117335, Control_c, 0, 64, 104
1, 117350, Control_c, 0, 64, 127
1, 117352, Note_off_c, 0, 66, 61
1, 117551, Note_on_c, 0, 71, 45
1, 117678, Note_off_c, 0, 71, 48
1, 117697, Note_on_c, 0, 42, 33
1, 117700, Note_off_c, 0, 52, 35
1, 117722, Note_on_c, 0, 68, 47
1, 117838, Note_off_c, 0, 68, 46
1, 117872, Note_on_c, 0, 66, 38
1, 117888, Note_on_c, 0, 35, 46
1, 117908, Note_off_c, 0, 42, 39
1, 117916, Note_off_c, 0, 66, 51
1, 117952, Note_off_c, 0, 35, 55
1, 117992, Note_on_c, 0, 61, 44
1, 118029, Note_off_c, 0, 61, 51
1, 118048, Note_on_c, 0, 51, 65
1, 118123, Note_on_c, 0, 56, 55
1, 118144, Note_off_c, 0, 51, 58
1, 118382, Note_on_c, 0, 49, 61
1, 118388, Note_off_c, 0, 56, 41
1, 118397, Control_c, 0, 64, 109
1, 118412, Control_c, 0, 64, 77
1, 118416, Note_on_c, 0, 66, 45
1, 118420, Note_on_c, 0, 59, 28
1, 118427, Control_c, 0, 64, 61
1, 118433, Note_on_c, 0, 52, 25
1, 118441, Control_c, 0, 64, 46
1, 118456, Control_c, 0, 64, 42
1, 118460, Note_off_c, 0, 59, 0
1, 118460, Note_on_c, 0, 59, 6
1, 118471, Control_c, 0, 64, 43
1, 118486, Control_c, 0, 64, 46
1, 118500, Control_c, 0, 64, 53
1, 118515, Control_c, 0, 64, 61
1, 118530, Control_c, 0, 64, 69
1, 118545, Control_c, 0, 64, 83
1, 118558, Note_off_c, 0, 52, 45
1, 118560, Control_c, 0, 64, 102
1, 118574, Control_c, 0, 64, 127
1, 118611, Note_off_c, 0, 59, 54
1, 118646, Note_off_c, 0, 66, 62
1, 118785, Note_on_c, 0, 75, 53
1, 118858, Note_on_c, 0, 42, 42
1, 118869, Note_off_c, 0, 49, 57
1, 118872, Note_off_c, 0, 75, 57
1, 118907, Note_on_c, 0, 68, 57
1, 118997, Note_off_c, 0, 68, 57
1, 119004, Note_on_c, 0, 66, 55
1, 119028, Note_off_c, 0, 66, 63
1, 119059, Note_off_c, 0, 42, 44
1, 119062, Note_on_c, 0, 35, 49
1, 119098, Note_on_c, 0, 59, 54
1, 119102, Note_off_c, 0, 35, 61
1, 119127, Note_off_c, 0, 59, 64
1, 119175, Note_on_c, 0, 56, 62
1, 119217, Note_off_c, 0, 56, 56
1, 119250, Control_c, 0, 64, 83
1, 119265, Control_c, 0, 64, 65
1, 119279, Control_c, 0, 64, 57
1, 119292, Note_on_c, 0, 51, 67
1, 119294, Control_c, 0, 64, 60
1, 119297, Note_on_c, 0, 58, 40
1, 119306, Note_on_c, 0, 66, 60
1, 119309, Note_on_c, 0, 54, 51
1, 119309, Control_c, 0, 64, 64
1, 119323, Control_c, 0, 64, 70
1, 119332, Note_off_c, 0, 54, 59
1, 119336, Note_off_c, 0, 58, 65
1, 119338, Control_c, 0, 64, 84
1, 119360, Control_c, 0, 64, 110
1, 119375, Control_c, 0, 64, 127
1, 119383, Note_off_c, 0, 66, 62
1, 119507, Note_on_c, 0, 78, 60
1, 119568, Note_off_c, 0, 51, 59
1, 119621, Note_on_c, 0, 42, 46
1, 119628, Note_on_c, 0, 75, 54
1, 119643, Note_off_c, 0, 78, 54
1, 119682, Note_off_c, 0, 75, 58
1, 119721, Note_on_c, 0, 71, 55
1, 119743, Note_off_c, 0, 71, 62
1, 119851, Note_on_c, 0, 70, 51
1, 119852, Note_on_c, 0, 35, 49
1, 119866, Note_off_c, 0, 42, 43
1, 119887, Note_off_c, 0, 70, 48
1, 119932, Note_on_c, 0, 66, 56
1, 120053, Note_off_c, 0, 66, 36
1, 120072, Control_c, 0, 64, 98
1, 120087, Control_c, 0, 64, 72
1, 120092, Note_on_c, 0, 47, 60
1, 120101, Note_off_c, 0, 35, 35
1, 120110, Control_c, 0, 64, 58
1, 120120, Note_on_c, 0, 63, 45
1, 120121, Note_on_c, 0, 54, 62
1, 120125, Control_c, 0, 64, 49
1, 120129, Note_on_c, 0, 71, 58
1, 120140, Control_c, 0, 64, 55
1, 120149, Note_off_c, 0, 54, 63
1, 120154, Control_c, 0, 64, 62
1, 120169, Control_c, 0, 64, 69
1, 120184, Control_c, 0, 64, 83
1, 120195, Note_off_c, 0, 63, 62
1, 120199, Control_c, 0, 64, 127
1, 120221, Note_off_c, 0, 71, 59
1, 120411, Note_on_c, 0, 75, 18
1, 120451, Note_off_c, 0, 75, 52
1, 120465, Note_on_c, 0, 66, 43
1, 120467, Note_on_c, 0, 42, 40
1, 120475, Note_off_c, 0, 47, 51
1, 120525, Note_off_c, 0, 66, 60
1, 120556, Note_on_c, 0, 73, 60
1, 120642, Note_off_c, 0, 73, 49
1, 120651, Note_on_c, 0, 75, 57
1, 120659, Note_on_c, 0, 35, 38
1, 120696, Note_off_c, 0, 35, 44
1, 120707, Note_off_c, 0, 42, 43
1, 120745, Note_off_c, 0, 75, 49
1, 120753, Note_on_c, 0, 78, 50
1, 120784, Note_off_c, 0, 78, 55
1, 120838, Note_on_c, 0, 54, 69
1, 120850, Note_on_c, 0, 71, 58
1, 120884, Note_off_c, 0, 71, 66
1, 120964, Note_on_c, 0, 66, 50
1, 120973, Note_off_c, 0, 54, 61
1, 121031, Note_off_c, 0, 66, 60
1, 121071, Note_on_c, 0, 63, 46
1, 121089, Note_on_c, 0, 42, 38
1, 121104, Note_off_c, 0, 63, 61
1, 121158, Note_on_c, 0, 68, 58
1, 121246, Note_off_c, 0, 68, 58
1, 121262, Note_off_c, 0, 42, 44
1, 121277, Note_on_c, 0, 63, 48
1, 121286, Note_on_c, 0, 35, 47
1, 121327, Note_off_c, 0, 63, 63
1, 121379, Note_on_c, 0, 54, 49
1, 121408, Note_off_c, 0, 35, 36
1, 121524, Control_c, 0, 64, 110
1, 121539, Control_c, 0, 64, 75
1, 121554, Control_c, 0, 64, 58
1, 121560, Note_on_c, 0, 51, 58
1, 121569, Control_c, 0, 64, 46
1, 121575, Note_on_c, 0, 58, 42
1, 121575, Note_on_c, 0, 66, 59
1, 121584, Control_c, 0, 64, 47
1, 121597, Note_off_c, 0, 54, 48
1, 121606, Control_c, 0, 64, 55
1, 121621, Control_c, 0, 64, 62
1, 121636, Control_c, 0, 64, 70
1, 121646, Note_off_c, 0, 58, 63
1, 121651, Control_c, 0, 64, 86
1, 121666, Control_c, 0, 64, 127
1, 121675, Note_off_c, 0, 66, 62
1, 121831, Note_on_c, 0, 78, 61
1, 121878, Note_off_c, 0, 51, 59
1, 121932, Note_on_c, 0, 42, 37
1, 121952, Note_on_c, 0, 75, 53
1, 121953, Note_off_c, 0, 78, 57
1, 121989, Note_off_c, 0, 75, 61
1, 122076, Note_on_c, 0, 71, 29
1, 122111, Note_off_c, 0, 71, 48
1, 122141, Note_on_c, 0, 35, 41
1, 122155, Note_off_c, 0, 42, 41
1, 122192, Note_on_c, 0, 70, 38
1, 122290, Note_on_c, 0, 66, 43
1, 122295, Note_off_c, 0, 70, 27
1, 122386, Note_off_c, 0, 66, 30
1, 122430, Note_on_c, 0, 47, 52
1, 122430, Control_c, 0, 64, 97
1, 122443, Note_off_c, 0, 35, 35
1, 122445, Control_c, 0, 64, 73
1, 122448, Note_on_c, 0, 71, 49
1, 122457, Note_on_c, 0, 63, 44
1, 122460, Control_c, 0, 64, 60
1, 122468, Note_on_c, 0, 54, 44
1, 122474, Control_c, 0, 64, 52
1, 122489, Control_c, 0, 64, 56
1, 122497, Note_off_c, 0, 54, 52
1, 122504, Control_c, 0, 64, 62
1, 122519, Control_c, 0, 64, 68
1, 122534, Control_c, 0, 64, 84
1, 122543, Note_off_c, 0, 63, 62
1, 122548, Control_c, 0, 64, 122
1, 122563, Control_c, 0, 64, 127
1, 122564, Note_off_c, 0, 71, 62
1, 122716, Note_on_c, 0, 75, 42
1, 122779, Note_off_c, 0, 47, 50
1, 122785, Note_on_c, 0, 42, 33
1, 122789, Note_off_c, 0, 75, 63
1, 122815, Note_on_c, 0, 66, 43
1, 122880, Note_off_c, 0, 66, 59
1, 122901, Note_on_c, 0, 73, 59
1, 122975, Note_on_c, 0, 35, 38
1, 122995, Note_on_c, 0, 75, 56
1, 122997, Note_off_c, 0, 73, 53
1, 123015, Note_off_c, 0, 35, 43
1, 123021, Note_off_c, 0, 42, 42
1, 123091, Note_on_c, 0, 78, 58
1, 123096, Note_off_c, 0, 75, 55
1, 123114, Note_off_c, 0, 78, 62
1, 123170, Note_on_c, 0, 54, 64
1, 123183, Note_on_c, 0, 71, 52
1, 123217, Note_off_c, 0, 71, 66
1, 123280, Note_on_c, 0, 66, 53
1, 123281, Note_off_c, 0, 54, 61
1, 123355, Note_off_c, 0, 66, 54
1, 123377, Note_on_c, 0, 42, 40
1, 123377, Note_on_c, 0, 63, 52
1, 123411, Note_off_c, 0, 63, 64
1, 123466, Note_on_c, 0, 68, 65
1, 123497, Note_off_c, 0, 42, 59
1, 123557, Note_off_c, 0, 68, 58
1, 123575, Note_on_c, 0, 35, 48
1, 123581, Note_on_c, 0, 63, 55
1, 123647, Note_off_c, 0, 63, 60
1, 123687, Note_on_c, 0, 54, 41
1, 123706, Note_off_c, 0, 35, 36
1, 123884, Note_on_c, 0, 51, 63
1, 123888, Note_on_c, 0, 66, 59
1, 123906, Note_on_c, 0, 58, 45
1, 123912, Control_c, 0, 64, 120
1, 123927, Control_c, 0, 64, 90
1, 123942, Control_c, 0, 64, 75
1, 123957, Control_c, 0, 64, 64
1, 123971, Control_c, 0, 64, 54
1, 123986, Control_c, 0, 64, 45
1, 124001, Control_c, 0, 64, 39
1, 124016, Control_c, 0, 64, 34
1, 124031, Control_c, 0, 64, 32
1, 124045, Control_c, 0, 64, 32
1, 124060, Control_c, 0, 64, 36
1, 124075, Control_c, 0, 64, 44
1, 124090, Control_c, 0, 64, 55
1, 124105, Control_c, 0, 64, 63
1, 124119, Control_c, 0, 64, 70
1, 124134, Control_c, 0, 64, 78
1, 124149, Control_c, 0, 64, 86
1, 124150, Note_off_c, 0, 51, 57
1, 124164, Control_c, 0, 64, 95
1, 124179, Control_c, 0, 64, 102
1, 124180, Note_on_c, 0, 42, 43
1, 124193, Control_c, 0, 64, 107
1, 124208, Control_c, 0, 64, 116
1, 124223, Control_c, 0, 64, 127
1, 124314, Note_off_c, 0, 58, 60
1, 124319, Note_off_c, 0, 54, 41
1, 124362, Note_off_c, 0, 66, 60
1, 124416, Note_on_c, 0, 35, 43
1, 124432, Note_off_c, 0, 42, 42
1, 124567, Note_on_c, 0, 54, 46
1, 124627, Note_on_c, 0, 63, 47
1, 124693, Note_on_c, 0, 66, 43
1, 124749, Control_c, 0, 64, 117
1, 124763, Note_on_c, 0, 47, 46
1, 124764, Note_on_c, 0, 71, 51
1, 124764, Control_c, 0, 64, 106
1, 124779, Control_c, 0, 64, 95
1, 124794, Control_c, 0, 64, 83
1, 124809, Control_c, 0, 64, 72
1, 124824, Control_c, 0, 64, 62
1, 124839, Note_off_c, 0, 35, 31
1, 124839, Control_c, 0, 64, 50
1, 124854, Control_c, 0, 64, 36
1, 124868, Control_c, 0, 64, 0
1, 124942, Control_c, 0, 64, 31
1, 124957, Control_c, 0, 64, 44
1, 124973, Control_c, 0, 64, 55
1, 124987, Control_c, 0, 64, 61
1, 125002, Control_c, 0, 64, 64
1, 125017, Control_c, 0, 64, 66
1, 125032, Control_c, 0, 64, 69
1, 125047, Control_c, 0, 64, 72
1, 125061, Control_c, 0, 64, 75
1, 125062, Note_on_c, 0, 42, 33
1, 125076, Control_c, 0, 64, 79
1, 125091, Control_c, 0, 64, 84
1, 125106, Control_c, 0, 64, 90
1, 125121, Control_c, 0, 64, 99
1, 125135, Control_c, 0, 64, 108
1, 125150, Control_c, 0, 64, 127
1, 125165, Note_off_c, 0, 47, 34
1, 125264, Note_on_c, 0, 35, 46
1, 125265, Note_off_c, 0, 42, 44
1, 125297, Note_off_c, 0, 35, 56
1, 125516, Note_on_c, 0, 35, 50
1, 125745, Note_off_c, 0, 35, 50
1, 125775, Note_on_c, 0, 23, 44
1, 125885, Note_off_c, 0, 54, 3
1, 125995, Note_off_c, 0, 66, 38
1, 126016, Note_off_c, 0, 71, 40
1, 126019, Note_off_c, 0, 63, 37
1, 126043, Note_on_c, 0, 35, 43
1, 126134, Note_off_c, 0, 23, 30
1, 126153, Note_off_c, 0, 35, 47
1, 126435, Note_on_c, 0, 63, 36
1, 126443, Note_on_c, 0, 66, 38
1, 126443, Note_on_c, 0, 71, 53
1, 126448, Note_on_c, 0, 54, 35
1, 126460, Note_on_c, 0, 35, 41
1, 126514, Control_c, 0, 64, 100
1, 126529, Control_c, 0, 64, 86
1, 126544, Control_c, 0, 64, 76
1, 126559, Control_c, 0, 64, 70
1, 126574, Control_c, 0, 64, 68
1, 126603, Control_c, 0, 64, 68
1, 126618, Control_c, 0, 64, 70
1, 126632, Control_c, 0, 64, 73
1, 126647, Control_c, 0, 64, 76
1, 126662, Control_c, 0, 64, 80
1, 126677, Control_c, 0, 64, 84
1, 126692, Control_c, 0, 64, 87
1, 126706, Control_c, 0, 64, 91
1, 126721, Control_c, 0, 64, 94
1, 126736, Note_off_c, 0, 54, 39
1, 126736, Control_c, 0, 64, 98
1, 126751, Control_c, 0, 64, 103
1, 126765, Control_c, 0, 64, 109
1, 126780, Control_c, 0, 64, 113
1, 126795, Control_c, 0, 64, 116
1, 126810, Control_c, 0, 64, 120
1, 126825, Control_c, 0, 64, 125
1, 126847, Control_c, 0, 64, 127
1, 126887, Note_off_c, 0, 71, 35
1, 126942, Note_off_c, 0, 63, 40
1, 126960, Note_off_c, 0, 66, 37
1, 126982, Note_off_c, 0, 35, 34
1, 126983, Note_on_c, 0, 23, 34
1, 127152, Note_off_c, 0, 23, 38
1, 127188, Control_c, 0, 67, 107
1, 127203, Control_c, 0, 67, 85
1, 127219, Control_c, 0, 67, 56
1, 127234, Control_c, 0, 67, 30
1, 127249, Control_c, 0, 67, 0
1, 127396, Control_c, 0, 64, 119
1, 127411, Control_c, 0, 64, 113
1, 127426, Control_c, 0, 64, 108
1, 127441, Control_c, 0, 64, 104
1, 127456, Control_c, 0, 64, 98
1, 127471, Control_c, 0, 64, 91
1, 127486, Control_c, 0, 64, 84
1, 127501, Control_c, 0, 64, 75
1, 127516, Control_c, 0, 64, 67
1, 127530, Control_c, 0, 64, 60
1, 127545, Control_c, 0, 64, 51
1, 127560, Control_c, 0, 64, 41
1, 127575, Control_c, 0, 64, 0
1, 127849, Control_c, 0, 64, 33
1, 127859, Note_on_c, 0, 23, 50
1, 127864, Control_c, 0, 64, 56
1, 127870, Note_on_c, 0, 66, 54
1, 127873, Note_on_c, 0, 35, 57
1, 127878, Note_on_c, 0, 54, 39
1, 127879, Control_c, 0, 64, 66
1, 127880, Note_on_c, 0, 59, 30
1, 127889, Note_off_c, 0, 23, 48
1, 127894, Control_c, 0, 64, 75
1, 127906, Note_off_c, 0, 35, 63
1, 127908, Note_off_c, 0, 54, 49
1, 127909, Control_c, 0, 64, 98
1, 127924, Control_c, 0, 64, 127
1, 128042, Note_on_c, 0, 54, 39
1, 128062, Note_on_c, 0, 42, 25
1, 128075, Note_off_c, 0, 59, 39
1, 128106, Note_off_c, 0, 66, 62
1, 128131, Control_c, 0, 67, 19
1, 128146, Control_c, 0, 67, 21
1, 128160, Control_c, 0, 67, 23
1, 128175, Control_c, 0, 67, 26
1, 128190, Control_c, 0, 67, 29
1, 128204, Control_c, 0, 67, 34
1, 128219, Control_c, 0, 67, 43
1, 128234, Control_c, 0, 67, 58
1, 128249, Control_c, 0, 67, 73
1, 128264, Control_c, 0, 67, 87
1, 128279, Control_c, 0, 67, 99
1, 128294, Control_c, 0, 67, 110
1, 128309, Control_c, 0, 67, 120
1, 128324, Control_c, 0, 67, 127
1, 128340, Note_off_c, 0, 42, 39
1, 128371, Note_off_c, 0, 54, 39
1, 128528, Note_on_c, 0, 78, 72
1, 128533, Note_on_c, 0, 42, 40
1, 128538, Note_on_c, 0, 54, 48
1, 128541, Note_on_c, 0, 66, 58
1, 128566, Note_off_c, 0, 42, 54
1, 128567, Note_off_c, 0, 54, 61
1, 128574, Note_off_c, 0, 66, 65
1, 128577, Note_off_c, 0, 78, 61
1, 128778, Note_on_c, 0, 51, 43
1, 128833, Note_on_c, 0, 63, 55
1, 128833, Note_on_c, 0, 68, 61
1, 128836, Note_on_c, 0, 66, 47
1, 128844, Note_on_c, 0, 71, 63
1, 128847, Note_on_c, 0, 59, 51
1, 128847, Note_off_c, 0, 51, 53
1, 128874, Note_off_c, 0, 63, 62
1, 129015, Note_off_c, 0, 59, 38
1, 129044, Note_off_c, 0, 71, 52
1, 129247, Note_on_c, 0, 71, 50
1, 129253, Note_on_c, 0, 59, 28
1, 129281, Note_off_c, 0, 59, 54
1, 129316, Note_off_c, 0, 71, 49
1, 129476, Note_on_c, 0, 59, 39
1, 129478, Note_on_c, 0, 71, 32
1, 129502, Note_off_c, 0, 59, 56
1, 129508, Note_off_c, 0, 68, 60
1, 129511, Note_off_c, 0, 71, 49
1, 129520, Note_off_c, 0, 66, 60
1, 129877, Note_on_c, 0, 54, 54
1, 129894, Note_on_c, 0, 47, 32
1, 129898, Note_on_c, 0, 42, 32
1, 129918, Note_on_c, 0, 35, 34
1, 129947, Control_c, 0, 64, 94
1, 129962, Control_c, 0, 64, 81
1, 129977, Control_c, 0, 64, 76
1, 129991, Control_c, 0, 64, 76
1, 130006, Control_c, 0, 64, 77
1, 130021, Control_c, 0, 64, 81
1, 130036, Control_c, 0, 64, 92
1, 130051, Control_c, 0, 64, 127
1, 130163, Note_off_c, 0, 35, 52
1, 130192, Note_off_c, 0, 47, 56
1, 130205, Note_off_c, 0, 42, 47
1, 130206, Note_on_c, 0, 61, 65
1, 130374, Note_off_c, 0, 54, 36
1, 130449, Note_on_c, 0, 54, 68
1, 130472, Note_off_c, 0, 61, 45
1, 130647, Note_on_c, 0, 66, 68
1, 130747, Note_on_c, 0, 61, 63
1, 130822, Note_off_c, 0, 66, 61
1, 130826, Note_off_c, 0, 61, 56
1, 130842, Note_on_c, 0, 78, 79
1, 131135, Note_on_c, 0, 75, 67
1, 131137, Note_on_c, 0, 66, 52
1, 131143, Note_on_c, 0, 59, 42
1, 131148, Note_on_c, 0, 63, 45
1, 131169, Note_off_c, 0, 78, 58
1, 131170, Control_c, 0, 64, 100
1, 131185, Control_c, 0, 64, 78
1, 131200, Control_c, 0, 64, 67
1, 131215, Control_c, 0, 64, 66
1, 131230, Control_c, 0, 64, 70
1, 131245, Control_c, 0, 64, 77
1, 131260, Control_c, 0, 64, 89
1, 131275, Control_c, 0, 64, 127
1, 131413, Note_on_c, 0, 73, 60
1, 131436, Note_off_c, 0, 75, 53
1, 131616, Note_off_c, 0, 73, 32
1, 131622, Note_on_c, 0, 71, 53
1, 131644, Note_off_c, 0, 71, 62
1, 131731, Note_off_c, 0, 59, 52
1, 131747, Note_off_c, 0, 63, 48
1, 131772, Note_off_c, 0, 66, 35
1, 132062, Note_on_c, 0, 66, 45
1, 132067, Note_on_c, 0, 35, 39
1, 132068, Control_c, 0, 64, 103
1, 132069, Note_on_c, 0, 63, 42
1, 132081, Note_on_c, 0, 47, 38
1, 132085, Note_on_c, 0, 59, 27
1, 132090, Control_c, 0, 64, 79
1, 132095, Note_on_c, 0, 42, 37
1, 132104, Control_c, 0, 64, 68
1, 132119, Control_c, 0, 64, 62
1, 132134, Control_c, 0, 64, 60
1, 132149, Control_c, 0, 64, 61
1, 132164, Control_c, 0, 64, 63
1, 132178, Control_c, 0, 64, 66
1, 132193, Control_c, 0, 64, 72
1, 132208, Control_c, 0, 64, 81
1, 132223, Control_c, 0, 64, 91
1, 132238, Control_c, 0, 64, 100
1, 132252, Control_c, 0, 64, 113
1, 132267, Control_c, 0, 64, 127
1, 132276, Note_off_c, 0, 47, 61
1, 132345, Note_off_c, 0, 54, 37
1, 132358, Note_off_c, 0, 42, 41
1, 132365, Note_off_c, 0, 35, 51
1, 132384, Note_off_c, 0, 59, 41
1, 132428, Note_off_c, 0, 63, 39
1, 132433, Note_off_c, 0, 66, 31
1, 132655, Control_c, 0, 64, 75
1, 132670, Control_c, 0, 64, 56
1, 132684, Control_c, 0, 64, 38
1, 132699, Note_on_c, 0, 26, 49
1, 132699, Control_c, 0, 64, 44
1, 132702, Note_on_c, 0, 38, 66
1, 132706, Note_on_c, 0, 66, 64
1, 132708, Note_on_c, 0, 62, 57
1, 132714, Control_c, 0, 64, 59
1, 132716, Note_on_c, 0, 54, 49
1, 132728, Note_off_c, 0, 38, 65
1, 132728, Control_c, 0, 64, 71
1, 132738, Note_off_c, 0, 26, 42
1, 132743, Control_c, 0, 64, 100
1, 132747, Note_off_c, 0, 54, 59
1, 132758, Control_c, 0, 64, 127
1, 132846, Note_off_c, 0, 62, 60
1, 132859, Note_off_c, 0, 66, 60
1, 132868, Note_on_c, 0, 57, 65
1, 132871, Note_on_c, 0, 45, 66
1, 133017, Control_c, 0, 67, 125
1, 133032, Control_c, 0, 67, 110
1, 133047, Control_c, 0, 67, 94
1, 133062, Control_c, 0, 67, 77
1, 133076, Control_c, 0, 67, 64
1, 133091, Control_c, 0, 67, 52
1, 133106, Control_c, 0, 67, 44
1, 133121, Control_c, 0, 67, 36
1, 133135, Control_c, 0, 67, 31
1, 133150, Control_c, 0, 67, 29
1, 133165, Note_off_c, 0, 45, 58
1, 133165, Control_c, 0, 67, 27
1, 133168, Note_off_c, 0, 57, 58
1, 133180, Control_c, 0, 67, 24
1, 133195, Control_c, 0, 67, 19
1, 133209, Control_c, 0, 67, 0
1, 133267, Note_on_c, 0, 81, 73
1, 133273, Note_on_c, 0, 69, 62
1, 133277, Note_on_c, 0, 57, 65
1, 133281, Note_on_c, 0, 45, 42
1, 133292, Note_off_c, 0, 81, 67
1, 133299, Note_off_c, 0, 69, 65
1, 133308, Note_off_c, 0, 57, 65
1, 133316, Note_off_c, 0, 45, 55
1, 133463, Note_on_c, 0, 54, 62
1, 133517, Note_on_c, 0, 66, 67
1, 133530, Note_on_c, 0, 74, 77
1, 133533, Note_on_c, 0, 69, 57
1, 133540, Note_on_c, 0, 71, 52
1, 133544, Note_on_c, 0, 62, 56
1, 133544, Note_off_c, 0, 54, 60
1, 133546, Note_off_c, 0, 66, 59
1, 133707, Note_off_c, 0, 62, 42
1, 133732, Note_off_c, 0, 74, 56
1, 133838, Note_off_c, 0, 69, 0
1, 133838, Note_on_c, 0, 69, 9
1, 133846, Note_on_c, 0, 62, 59
1, 133848, Note_on_c, 0, 74, 70
1, 133885, Note_off_c, 0, 62, 59
1, 133966, Note_off_c, 0, 74, 39
1, 134026, Note_on_c, 0, 62, 62
1, 134029, Note_on_c, 0, 74, 51
1, 134043, Note_off_c, 0, 71, 63
1, 134052, Note_off_c, 0, 69, 54
1, 134055, Note_off_c, 0, 74, 56
1, 134057, Note_off_c, 0, 62, 63
1, 134196, Control_c, 0, 67, 20
1, 134212, Note_on_c, 0, 38, 42
1, 134225, Control_c, 0, 67, 22
1, 134256, Control_c, 0, 67, 25
1, 134282, Note_on_c, 0, 45, 43
1, 134285, Control_c, 0, 67, 27
1, 134300, Control_c, 0, 67, 29
1, 134306, Note_on_c, 0, 50, 50
1, 134307, Note_on_c, 0, 57, 71
1, 134337, Control_c, 0, 67, 32
1, 134352, Control_c, 0, 64, 82
1, 134352, Control_c, 0, 67, 35
1, 134367, Control_c, 0, 64, 66
1, 134367, Control_c, 0, 67, 38
1, 134381, Control_c, 0, 64, 59
1, 134381, Control_c, 0, 67, 40
1, 134396, Control_c, 0, 64, 60
1, 134396, Control_c, 0, 67, 44
1, 134411, Control_c, 0, 64, 63
1, 134411, Control_c, 0, 67, 48
1, 134426, Control_c, 0, 64, 67
1, 134426, Control_c, 0, 67, 51
1, 134441, Control_c, 0, 64, 74
1, 134441, Control_c, 0, 67, 56
1, 134455, Control_c, 0, 64, 87
1, 134455, Control_c, 0, 67, 60
1, 134470, Control_c, 0, 64, 125
1, 134470, Control_c, 0, 67, 63
1, 134485, Control_c, 0, 64, 127
1, 134485, Control_c, 0, 67, 64
1, 134500, Control_c, 0, 67, 65
1, 134556, Note_off_c, 0, 38, 48
1, 134570, Note_off_c, 0, 45, 63
1, 134575, Control_c, 0, 67, 64
1, 134580, Note_off_c, 0, 50, 62
1, 134589, Control_c, 0, 67, 64
1, 134597, Note_on_c, 0, 64, 74
1, 134619, Control_c, 0, 67, 63
1, 134634, Control_c, 0, 67, 63
1, 134702, Note_off_c, 0, 57, 56
1, 134752, Control_c, 0, 67, 63
1, 134767, Control_c, 0, 67, 64
1, 134811, Control_c, 0, 67, 64
1, 134816, Note_on_c, 0, 57, 73
1, 134816, Note_off_c, 0, 64, 55
1, 134914, Control_c, 0, 67, 64
1, 134944, Control_c, 0, 67, 63
1, 134959, Control_c, 0, 67, 63
1, 134984, Note_on_c, 0, 69, 69
1, 134989, Control_c, 0, 67, 62
1, 135110, Note_on_c, 0, 64, 61
1, 135195, Note_off_c, 0, 69, 59
1, 135196, Note_off_c, 0, 64, 61
1, 135221, Note_on_c, 0, 81, 76
1, 135234, Control_c, 0, 67, 62
1, 135382, Control_c, 0, 67, 63
1, 135560, Note_on_c, 0, 69, 54
1, 135570, Note_on_c, 0, 66, 49
1, 135573, Note_on_c, 0, 62, 37
1, 135576, Note_on_c, 0, 78, 64
1, 135618, Control_c, 0, 64, 98
1, 135633, Control_c, 0, 64, 77
1, 135647, Note_off_c, 0, 81, 39
1, 135648, Control_c, 0, 64, 67
1, 135663, Control_c, 0, 64, 63
1, 135677, Control_c, 0, 64, 63
1, 135692, Control_c, 0, 64, 65
1, 135707, Control_c, 0, 64, 68
1, 135722, Control_c, 0, 64, 73
1, 135722, Control_c, 0, 67, 64
1, 135737, Control_c, 0, 64, 82
1, 135752, Control_c, 0, 64, 91
1, 135752, Control_c, 0, 67, 64
1, 135767, Control_c, 0, 64, 98
1, 135782, Control_c, 0, 64, 107
1, 135782, Control_c, 0, 67, 65
1, 135796, Control_c, 0, 64, 119
1, 135811, Control_c, 0, 64, 127
1, 135833, Control_c, 0, 67, 65
1, 135849, Control_c, 0, 67, 66
1, 135879, Control_c, 0, 67, 66
1, 135894, Control_c, 0, 67, 67
1, 135907, Note_on_c, 0, 76, 49
1, 135908, Control_c, 0, 67, 67
1, 135923, Control_c, 0, 67, 68
1, 135938, Control_c, 0, 67, 73
1, 135943, Note_off_c, 0, 78, 36
1, 135952, Control_c, 0, 67, 78
1, 135967, Control_c, 0, 67, 82
1, 135982, Control_c, 0, 67, 86
1, 135997, Control_c, 0, 67, 88
1, 136012, Control_c, 0, 67, 90
1, 136026, Control_c, 0, 67, 92
1, 136041, Control_c, 0, 67, 93
1, 136056, Control_c, 0, 67, 94
1, 136071, Control_c, 0, 67, 96
1, 136083, Note_off_c, 0, 57, 60
1, 136086, Control_c, 0, 67, 98
1, 136116, Control_c, 0, 67, 101
1, 136124, Note_on_c, 0, 74, 57
1, 136124, Note_off_c, 0, 76, 37
1, 136129, Note_off_c, 0, 62, 52
1, 136145, Control_c, 0, 67, 103
1, 136148, Note_off_c, 0, 69, 37
1, 136151, Note_off_c, 0, 74, 66
1, 136160, Note_off_c, 0, 66, 50
1, 136205, Control_c, 0, 67, 105
1, 136490, Note_on_c, 0, 50, 61
1, 136582, Control_c, 0, 64, 80
1, 136597, Control_c, 0, 64, 64
1, 136612, Control_c, 0, 64, 53
1, 136626, Control_c, 0, 64, 51
1, 136641, Control_c, 0, 64, 55
1, 136657, Control_c, 0, 64, 61
1, 136672, Control_c, 0, 64, 66
1, 136687, Control_c, 0, 64, 77
1, 136701, Control_c, 0, 64, 94
1, 136716, Control_c, 0, 64, 127
1, 136807, Note_off_c, 0, 50, 56
1, 136898, Note_on_c, 0, 57, 68
1, 136948, Note_off_c, 0, 57, 52
1, 137013, Note_on_c, 0, 50, 47
1, 137025, Note_on_c, 0, 38, 43
1, 137038, Note_off_c, 0, 50, 58
1, 137060, Note_off_c, 0, 38, 55
1, 137132, Note_on_c, 0, 50, 53
1, 137145, Control_c, 0, 67, 103
1, 137175, Note_on_c, 0, 58, 59
1, 137323, Note_on_c, 0, 65, 60
1, 137328, Note_on_c, 0, 31, 56
1, 137332, Note_on_c, 0, 43, 54
1, 137360, Control_c, 0, 64, 88
1, 137374, Control_c, 0, 64, 66
1, 137389, Control_c, 0, 64, 53
1, 137404, Control_c, 0, 64, 43
1, 137414, Note_off_c, 0, 50, 24
1, 137418, Control_c, 0, 64, 41
1, 137433, Control_c, 0, 64, 44
1, 137450, Control_c, 0, 64, 50
1, 137465, Control_c, 0, 64, 57
1, 137479, Control_c, 0, 64, 64
1, 137494, Control_c, 0, 64, 72
1, 137509, Control_c, 0, 64, 87
1, 137523, Control_c, 0, 64, 127
1, 137591, Note_off_c, 0, 58, 61
1, 137627, Note_off_c, 0, 31, 51
1, 137658, Note_off_c, 0, 43, 48
1, 137702, Control_c, 0, 67, 101
1, 137740, Note_on_c, 0, 43, 46
1, 137755, Note_on_c, 0, 31, 61
1, 137779, Note_off_c, 0, 43, 61
1, 137788, Note_off_c, 0, 31, 62
1, 137924, Control_c, 0, 64, 100
1, 137939, Control_c, 0, 64, 81
1, 137944, Note_on_c, 0, 38, 65
1, 137945, Note_on_c, 0, 26, 62
1, 137954, Control_c, 0, 64, 74
1, 137969, Control_c, 0, 64, 75
1, 137984, Note_off_c, 0, 26, 62
1, 137984, Control_c, 0, 64, 81
1, 137998, Control_c, 0, 64, 89
1, 138000, Note_off_c, 0, 38, 56
1, 138013, Control_c, 0, 64, 105
1, 138028, Control_c, 0, 64, 127
1, 138109, Note_on_c, 0, 26, 51
1, 138110, Note_on_c, 0, 67, 69
1, 138124, Note_off_c, 0, 65, 61
1, 138146, Note_on_c, 0, 38, 39
1, 138148, Note_off_c, 0, 26, 60
1, 138185, Note_off_c, 0, 38, 51
1, 138247, Note_on_c, 0, 26, 46
1, 138270, Note_on_c, 0, 74, 69
1, 138274, Note_off_c, 0, 26, 56
1, 138280, Note_on_c, 0, 38, 41
1, 138281, Note_off_c, 0, 67, 61
1, 138298, Note_off_c, 0, 74, 65
1, 138312, Note_off_c, 0, 38, 53
1, 138445, Note_on_c, 0, 38, 49
1, 138459, Note_on_c, 0, 43, 66
1, 138483, Note_off_c, 0, 38, 64
1, 138509, Note_off_c, 0, 43, 61
1, 138531, Note_on_c, 0, 53, 54
1, 138539, Control_c, 0, 64, 85
1, 138554, Control_c, 0, 64, 71
1, 138560, Note_off_c, 0, 53, 63
1, 138569, Control_c, 0, 64, 71
1, 138584, Control_c, 0, 64, 79
1, 138599, Control_c, 0, 64, 93
1, 138602, Note_on_c, 0, 55, 81
1, 138611, Note_on_c, 0, 70, 73
1, 138614, Control_c, 0, 64, 127
1, 138622, Note_on_c, 0, 58, 57
1, 138622, Note_off_c, 0, 55, 71
1, 138629, Control_c, 0, 67, 99
1, 138658, Note_off_c, 0, 58, 62
1, 138703, Control_c, 0, 67, 97
1, 138720, Note_off_c, 0, 70, 55
1, 138747, Control_c, 0, 67, 96
1, 138762, Control_c, 0, 67, 95
1, 138777, Control_c, 0, 67, 94
1, 138791, Control_c, 0, 67, 92
1, 138806, Control_c, 0, 67, 90
1, 138807, Note_on_c, 0, 69, 70
1, 138828, Control_c, 0, 67, 85
1, 138843, Control_c, 0, 67, 73
1, 138858, Control_c, 0, 67, 57
1, 138873, Control_c, 0, 67, 40
1, 138877, Note_on_c, 0, 62, 78
1, 138888, Control_c, 0, 67, 27
1, 138900, Note_off_c, 0, 69, 61
1, 138903, Control_c, 0, 67, 0
1, 138956, Note_off_c, 0, 62, 60
1, 138970, Note_on_c, 0, 55, 68
1, 138971, Note_on_c, 0, 67, 69
1, 138977, Note_on_c, 0, 43, 57
1, 138995, Note_off_c, 0, 55, 69
1, 139002, Note_off_c, 0, 67, 57
1, 139007, Note_off_c, 0, 43, 63
1, 139087, Note_on_c, 0, 55, 72
1, 139137, Note_on_c, 0, 63, 68
1, 139209, Note_on_c, 0, 48, 69
1, 139210, Note_on_c, 0, 70, 86
1, 139210, Note_on_c, 0, 36, 66
1, 139244, Control_c, 0, 64, 90
1, 139259, Control_c, 0, 64, 63
1, 139274, Control_c, 0, 64, 0
1, 139362, Control_c, 0, 64, 50
1, 139377, Control_c, 0, 64, 64
1, 139392, Control_c, 0, 64, 76
1, 139407, Control_c, 0, 64, 96
1, 139413, Note_off_c, 0, 55, 60
1, 139421, Control_c, 0, 64, 127
1, 139443, Note_off_c, 0, 63, 61
1, 139465, Note_off_c, 0, 36, 57
1, 139483, Note_off_c, 0, 48, 57
1, 139565, Note_on_c, 0, 48, 59
1, 139575, Note_on_c, 0, 36, 56
1, 139592, Note_off_c, 0, 48, 69
1, 139608, Note_off_c, 0, 36, 62
1, 139726, Control_c, 0, 64, 100
1, 139740, Control_c, 0, 64, 78
1, 139753, Note_on_c, 0, 31, 64
1, 139755, Control_c, 0, 64, 74
1, 139758, Note_on_c, 0, 43, 60
1, 139770, Control_c, 0, 64, 80
1, 139785, Control_c, 0, 64, 99
1, 139786, Note_off_c, 0, 31, 62
1, 139800, Control_c, 0, 64, 127
1, 139812, Note_off_c, 0, 43, 54
1, 139888, Note_off_c, 0, 70, 57
1, 139900, Note_on_c, 0, 72, 75
1, 139903, Note_on_c, 0, 31, 51
1, 139914, Note_on_c, 0, 43, 56
1, 139939, Note_off_c, 0, 31, 61
1, 139952, Note_off_c, 0, 43, 60
1, 140047, Note_off_c, 0, 72, 60
1, 140054, Note_on_c, 0, 31, 39
1, 140063, Note_on_c, 0, 43, 53
1, 140064, Note_on_c, 0, 79, 76
1, 140087, Note_off_c, 0, 31, 0
1, 140093, Note_off_c, 0, 43, 55
1, 140105, Poly_aftertouch_c, 0, 31, 0
1, 140314, Note_on_c, 0, 58, 72
1, 140324, Note_on_c, 0, 43, 57
1, 140331, Note_on_c, 0, 48, 41
1, 140340, Note_on_c, 0, 75, 58
1, 140387, Control_c, 0, 64, 107
1, 140395, Note_on_c, 0, 63, 21
1, 140401, Control_c, 0, 64, 78
1, 140416, Control_c, 0, 64, 62
1, 140431, Control_c, 0, 64, 41
1, 140445, Control_c, 0, 64, 0
1, 140516, Note_off_c, 0, 79, 18
1, 140571, Note_off_c, 0, 63, 43
1, 140593, Control_c, 0, 64, 34
1, 140608, Control_c, 0, 64, 49
1, 140623, Control_c, 0, 64, 60
1, 140634, Note_on_c, 0, 74, 53
1, 140639, Control_c, 0, 64, 67
1, 140654, Control_c, 0, 64, 73
1, 140668, Control_c, 0, 64, 83
1, 140683, Control_c, 0, 64, 94
1, 140698, Control_c, 0, 64, 127
1, 140713, Note_off_c, 0, 75, 33
1, 140784, Note_on_c, 0, 72, 59
1, 140885, Note_off_c, 0, 58, 63
1, 140890, Note_off_c, 0, 72, 61
1, 140912, Note_off_c, 0, 74, 38
1, 140936, Note_on_c, 0, 67, 63
1, 140952, Note_off_c, 0, 43, 61
1, 140960, Note_off_c, 0, 48, 63
1, 140968, Note_off_c, 0, 67, 67
1, 141086, Note_on_c, 0, 60, 66
1, 141239, Control_c, 0, 67, 19
1, 141251, Note_on_c, 0, 67, 68
1, 141283, Control_c, 0, 67, 22
1, 141342, Control_c, 0, 67, 24
1, 141372, Control_c, 0, 67, 26
1, 141386, Control_c, 0, 67, 28
1, 141401, Control_c, 0, 67, 30
1, 141416, Control_c, 0, 67, 32
1, 141431, Control_c, 0, 67, 33
1, 141446, Control_c, 0, 67, 35
1, 141447, Note_on_c, 0, 31, 46
1, 141461, Control_c, 0, 67, 36
1, 141475, Note_on_c, 0, 43, 47
1, 141476, Control_c, 0, 64, 125
1, 141490, Control_c, 0, 64, 89
1, 141490, Control_c, 0, 67, 37
1, 141505, Control_c, 0, 64, 72
1, 141506, Note_on_c, 0, 63, 57
1, 141520, Control_c, 0, 64, 61
1, 141535, Control_c, 0, 64, 47
1, 141550, Control_c, 0, 64, 33
1, 141565, Control_c, 0, 64, 0
1, 141565, Control_c, 0, 67, 37
1, 141624, Control_c, 0, 67, 38
1, 141639, Control_c, 0, 64, 41
1, 141639, Control_c, 0, 67, 38
1, 141654, Control_c, 0, 64, 57
1, 141664, Note_off_c, 0, 60, 58
1, 141669, Control_c, 0, 64, 64
1, 141669, Control_c, 0, 67, 42
1, 141683, Control_c, 0, 64, 68
1, 141683, Control_c, 0, 67, 46
1, 141684, Note_off_c, 0, 67, 41
1, 141698, Control_c, 0, 64, 70
1, 141698, Control_c, 0, 67, 48
1, 141713, Control_c, 0, 64, 73
1, 141713, Control_c, 0, 67, 49
1, 141726, Note_off_c, 0, 63, 55
1, 141728, Control_c, 0, 64, 75
1, 141729, Note_on_c, 0, 62, 54
1, 141743, Control_c, 0, 64, 78
1, 141757, Control_c, 0, 64, 80
1, 141772, Control_c, 0, 64, 81
1, 141787, Control_c, 0, 64, 82
1, 141839, Control_c, 0, 64, 82
1, 141875, Note_off_c, 0, 62, 59
1, 141893, Note_on_c, 0, 60, 54
1, 141922, Note_off_c, 0, 60, 65
1, 141943, Control_c, 0, 64, 83
1, 142061, Control_c, 0, 64, 83
1, 142076, Control_c, 0, 64, 84
1, 142090, Control_c, 0, 64, 84
1, 142091, Note_off_c, 0, 43, 58
1, 142098, Note_off_c, 0, 31, 59
1, 142105, Control_c, 0, 64, 85
1, 142120, Control_c, 0, 64, 85
1, 142134, Control_c, 0, 64, 86
1, 142149, Control_c, 0, 64, 87
1, 142179, Control_c, 0, 64, 86
1, 142182, Note_on_c, 0, 48, 60
1, 142194, Control_c, 0, 64, 80
1, 142209, Control_c, 0, 64, 68
1, 142224, Control_c, 0, 64, 56
1, 142239, Control_c, 0, 64, 42
1, 142254, Control_c, 0, 64, 32
1, 142269, Control_c, 0, 64, 33
1, 142284, Control_c, 0, 64, 38
1, 142299, Control_c, 0, 64, 48
1, 142313, Control_c, 0, 64, 58
1, 142328, Control_c, 0, 64, 65
1, 142328, Control_c, 0, 67, 50
1, 142343, Control_c, 0, 64, 73
1, 142343, Control_c, 0, 67, 50
1, 142358, Control_c, 0, 64, 82
1, 142373, Control_c, 0, 64, 88
1, 142387, Control_c, 0, 64, 92
1, 142402, Control_c, 0, 64, 96
1, 142417, Control_c, 0, 64, 99
1, 142442, Note_off_c, 0, 48, 55
1, 142492, Control_c, 0, 64, 101
1, 142546, Note_on_c, 0, 55, 52
1, 142620, Note_off_c, 0, 55, 51
1, 142622, Note_on_c, 0, 48, 46
1, 142635, Note_on_c, 0, 36, 41
1, 142651, Note_off_c, 0, 48, 54
1, 142671, Note_off_c, 0, 36, 51
1, 142736, Note_on_c, 0, 48, 57
1, 142787, Note_on_c, 0, 56, 55
1, 142810, Control_c, 0, 67, 50
1, 142913, Note_on_c, 0, 63, 65
1, 142913, Control_c, 0, 64, 96
1, 142923, Note_on_c, 0, 29, 48
1, 142924, Note_on_c, 0, 41, 45
1, 142928, Control_c, 0, 64, 87
1, 142928, Control_c, 0, 67, 49
1, 142944, Control_c, 0, 64, 77
1, 142958, Control_c, 0, 64, 66
1, 142973, Control_c, 0, 64, 58
1, 142988, Control_c, 0, 64, 51
1, 143003, Control_c, 0, 64, 47
1, 143018, Control_c, 0, 64, 47
1, 143034, Control_c, 0, 64, 48
1, 143049, Control_c, 0, 64, 51
1, 143063, Control_c, 0, 64, 56
1, 143078, Control_c, 0, 64, 60
1, 143093, Control_c, 0, 64, 64
1, 143108, Control_c, 0, 64, 68
1, 143123, Control_c, 0, 64, 73
1, 143137, Control_c, 0, 64, 76
1, 143152, Control_c, 0, 64, 79
1, 143161, Note_off_c, 0, 48, 41
1, 143162, Note_off_c, 0, 56, 60
1, 143167, Control_c, 0, 64, 82
1, 143181, Control_c, 0, 64, 85
1, 143196, Control_c, 0, 64, 88
1, 143211, Control_c, 0, 64, 90
1, 143221, Note_off_c, 0, 29, 59
1, 143226, Control_c, 0, 64, 92
1, 143241, Control_c, 0, 64, 93
1, 143255, Control_c, 0, 64, 93
1, 143257, Note_off_c, 0, 41, 35
1, 143270, Control_c, 0, 64, 94
1, 143300, Control_c, 0, 64, 94
1, 143337, Control_c, 0, 64, 95
1, 143341, Note_on_c, 0, 41, 44
1, 143344, Note_on_c, 0, 29, 51
1, 143352, Control_c, 0, 64, 96
1, 143367, Control_c, 0, 64, 98
1, 143371, Note_off_c, 0, 41, 57
1, 143382, Control_c, 0, 64, 100
1, 143386, Note_off_c, 0, 29, 59
1, 143396, Control_c, 0, 64, 105
1, 143411, Control_c, 0, 64, 113
1, 143426, Control_c, 0, 64, 127
1, 143470, Control_c, 0, 64, 100
1, 143485, Control_c, 0, 64, 83
1, 143500, Control_c, 0, 64, 73
1, 143515, Control_c, 0, 64, 68
1, 143534, Note_on_c, 0, 24, 58
1, 143534, Note_on_c, 0, 36, 58
1, 143544, Control_c, 0, 64, 70
1, 143559, Control_c, 0, 64, 75
1, 143571, Note_off_c, 0, 24, 61
1, 143574, Control_c, 0, 64, 80
1, 143574, Control_c, 0, 67, 49
1, 143583, Note_off_c, 0, 36, 55
1, 143589, Control_c, 0, 64, 86
1, 143604, Control_c, 0, 64, 91
1, 143604, Control_c, 0, 67, 48
1, 143619, Control_c, 0, 64, 94
1, 143633, Control_c, 0, 64, 94
1, 143678, Note_on_c, 0, 65, 69
1, 143687, Note_on_c, 0, 24, 50
1, 143695, Note_on_c, 0, 36, 55
1, 143708, Control_c, 0, 64, 95
1, 143714, Note_off_c, 0, 63, 39
1, 143724, Note_off_c, 0, 24, 62
1, 143737, Control_c, 0, 64, 95
1, 143745, Note_off_c, 0, 36, 53
1, 143767, Control_c, 0, 64, 96
1, 143826, Control_c, 0, 64, 98
1, 143833, Note_on_c, 0, 24, 53
1, 143847, Note_off_c, 0, 65, 62
1, 143851, Note_on_c, 0, 36, 57
1, 143854, Note_on_c, 0, 72, 69
1, 143857, Control_c, 0, 64, 100
1, 143866, Note_off_c, 0, 24, 56
1, 143878, Note_off_c, 0, 36, 61
1, 143886, Control_c, 0, 64, 102
1, 143931, Control_c, 0, 64, 104
1, 144019, Control_c, 0, 67, 48
1, 144072, Control_c, 0, 67, 47
1, 144124, Note_on_c, 0, 51, 76
1, 144146, Control_c, 0, 67, 47
1, 144148, Note_on_c, 0, 36, 58
1, 144154, Note_on_c, 0, 41, 31
1, 144156, Note_on_c, 0, 68, 62
1, 144175, Control_c, 0, 64, 101
1, 144190, Control_c, 0, 64, 96
1, 144190, Control_c, 0, 67, 46
1, 144195, Note_off_c, 0, 72, 30
1, 144205, Control_c, 0, 64, 87
1, 144205, Control_c, 0, 67, 46
1, 144219, Control_c, 0, 64, 76
1, 144234, Control_c, 0, 64, 66
1, 144249, Control_c, 0, 64, 54
1, 144249, Control_c, 0, 67, 45
1, 144264, Control_c, 0, 64, 39
1, 144264, Control_c, 0, 67, 45
1, 144279, Control_c, 0, 64, 0
1, 144323, Control_c, 0, 67, 44
1, 144397, Control_c, 0, 64, 40
1, 144411, Control_c, 0, 64, 57
1, 144421, Note_on_c, 0, 67, 52
1, 144426, Control_c, 0, 64, 65
1, 144441, Control_c, 0, 64, 72
1, 144456, Control_c, 0, 64, 77
1, 144471, Control_c, 0, 64, 81
1, 144486, Control_c, 0, 64, 86
1, 144501, Control_c, 0, 64, 94
1, 144516, Control_c, 0, 64, 106
1, 144530, Control_c, 0, 64, 127
1, 144569, Note_on_c, 0, 65, 51
1, 144590, Control_c, 0, 67, 45
1, 144678, Note_off_c, 0, 65, 61
1, 144680, Control_c, 0, 67, 45
1, 144687, Note_off_c, 0, 68, 41
1, 144695, Control_c, 0, 67, 46
1, 144698, Note_off_c, 0, 67, 42
1, 144712, Note_off_c, 0, 51, 61
1, 144730, Note_on_c, 0, 60, 57
1, 144739, Control_c, 0, 67, 46
1, 144776, Note_off_c, 0, 60, 63
1, 144817, Note_off_c, 0, 41, 48
1, 144827, Note_off_c, 0, 36, 60
1, 144884, Note_on_c, 0, 53, 66
1, 144998, Control_c, 0, 67, 46
1, 145056, Note_on_c, 0, 60, 61
1, 145078, Note_off_c, 0, 53, 52
1, 145248, Note_on_c, 0, 24, 51
1, 145264, Note_on_c, 0, 36, 51
1, 145279, Control_c, 0, 64, 109
1, 145294, Control_c, 0, 64, 94
1, 145295, Note_on_c, 0, 56, 58
1, 145309, Control_c, 0, 64, 80
1, 145324, Control_c, 0, 64, 68
1, 145339, Control_c, 0, 64, 58
1, 145353, Control_c, 0, 64, 43
1, 145368, Control_c, 0, 64, 33
1, 145383, Control_c, 0, 64, 0
1, 145428, Control_c, 0, 64, 32
1, 145443, Control_c, 0, 64, 39
1, 145458, Control_c, 0, 64, 49
1, 145466, Note_off_c, 0, 60, 42
1, 145473, Control_c, 0, 64, 58
1, 145488, Control_c, 0, 64, 64
1, 145502, Control_c, 0, 64, 68
1, 145505, Note_on_c, 0, 55, 56
1, 145514, Note_off_c, 0, 56, 51
1, 145517, Control_c, 0, 64, 70
1, 145532, Control_c, 0, 64, 72
1, 145554, Control_c, 0, 64, 73
1, 145569, Control_c, 0, 64, 73
1, 145583, Control_c, 0, 64, 74
1, 145598, Control_c, 0, 64, 75
1, 145628, Control_c, 0, 64, 75
1, 145658, Control_c, 0, 64, 76
1, 145662, Note_off_c, 0, 55, 63
1, 145672, Control_c, 0, 64, 76
1, 145678, Note_on_c, 0, 53, 56
1, 145702, Control_c, 0, 64, 77
1, 145717, Control_c, 0, 64, 77
1, 145732, Control_c, 0, 64, 78
1, 145747, Control_c, 0, 64, 79
1, 145762, Control_c, 0, 64, 81
1, 145776, Control_c, 0, 64, 82
1, 145780, Note_off_c, 0, 24, 61
1, 145806, Control_c, 0, 64, 79
1, 145818, Note_off_c, 0, 36, 56
1, 145821, Control_c, 0, 64, 71
1, 145836, Control_c, 0, 64, 63
1, 145842, Note_off_c, 0, 53, 55
1, 145851, Control_c, 0, 64, 56
1, 145853, Note_on_c, 0, 48, 65
1, 145865, Control_c, 0, 64, 55
1, 145880, Control_c, 0, 64, 57
1, 145895, Control_c, 0, 64, 61
1, 145910, Control_c, 0, 64, 64
1, 145925, Control_c, 0, 64, 68
1, 145939, Control_c, 0, 64, 72
1, 145939, Control_c, 0, 67, 46
1, 145954, Control_c, 0, 64, 74
1, 145969, Control_c, 0, 64, 75
1, 145983, Control_c, 0, 64, 76
1, 145998, Control_c, 0, 64, 77
1, 146005, Note_off_c, 0, 48, 63
1, 146013, Control_c, 0, 64, 78
1, 146018, Note_on_c, 0, 29, 55
1, 146020, Note_on_c, 0, 41, 56
1, 146028, Control_c, 0, 64, 78
1, 146043, Control_c, 0, 64, 79
1, 146047, Note_off_c, 0, 29, 54
1, 146054, Note_off_c, 0, 41, 62
1, 146057, Control_c, 0, 64, 80
1, 146087, Control_c, 0, 64, 80
1, 146188, Note_on_c, 0, 48, 57
1, 146194, Note_on_c, 0, 36, 53
1, 146214, Note_off_c, 0, 48, 58
1, 146227, Note_off_c, 0, 36, 53
1, 146266, Control_c, 0, 64, 81
1, 146295, Control_c, 0, 64, 81
1, 146318, Control_c, 0, 64, 83
1, 146332, Control_c, 0, 64, 84
1, 146332, Control_c, 0, 67, 47
1, 146347, Control_c, 0, 64, 85
1, 146377, Control_c, 0, 64, 83
1, 146392, Control_c, 0, 64, 75
1, 146401, Note_on_c, 0, 32, 52
1, 146406, Control_c, 0, 64, 67
1, 146412, Note_on_c, 0, 44, 43
1, 146413, Note_on_c, 0, 60, 51
1, 146421, Control_c, 0, 64, 59
1, 146424, Note_on_c, 0, 51, 51
1, 146427, Note_on_c, 0, 63, 58
1, 146434, Note_on_c, 0, 56, 48
1, 146436, Control_c, 0, 64, 53
1, 146450, Note_off_c, 0, 44, 60
1, 146451, Control_c, 0, 64, 50
1, 146451, Control_c, 0, 67, 46
1, 146466, Control_c, 0, 64, 51
1, 146480, Control_c, 0, 64, 54
1, 146495, Control_c, 0, 64, 57
1, 146499, Note_off_c, 0, 32, 58
1, 146510, Control_c, 0, 64, 61
1, 146525, Control_c, 0, 64, 66
1, 146540, Control_c, 0, 64, 72
1, 146555, Control_c, 0, 64, 76
1, 146570, Control_c, 0, 64, 78
1, 146585, Control_c, 0, 64, 80
1, 146589, Note_on_c, 0, 43, 51
1, 146591, Note_on_c, 0, 31, 52
1, 146599, Control_c, 0, 64, 83
1, 146614, Control_c, 0, 64, 85
1, 146623, Note_off_c, 0, 43, 56
1, 146629, Note_off_c, 0, 31, 59
1, 146629, Control_c, 0, 64, 87
1, 146644, Control_c, 0, 64, 88
1, 146659, Control_c, 0, 64, 89
1, 146672, Note_off_c, 0, 51, 59
1, 146672, Note_off_c, 0, 60, 60
1, 146674, Control_c, 0, 67, 46
1, 146698, Note_off_c, 0, 56, 56
1, 146718, Control_c, 0, 64, 89
1, 146743, Note_on_c, 0, 29, 59
1, 146743, Note_on_c, 0, 41, 55
1, 146747, Note_off_c, 0, 63, 55
1, 146778, Note_off_c, 0, 41, 59
1, 146781, Note_off_c, 0, 29, 62
1, 146792, Control_c, 0, 64, 90
1, 146806, Control_c, 0, 64, 90
1, 146821, Control_c, 0, 64, 91
1, 146836, Control_c, 0, 64, 92
1, 146866, Control_c, 0, 64, 87
1, 146880, Control_c, 0, 64, 76
1, 146895, Control_c, 0, 64, 66
1, 146910, Control_c, 0, 64, 59
1, 146923, Note_on_c, 0, 24, 62
1, 146924, Note_on_c, 0, 65, 72
1, 146924, Control_c, 0, 64, 59
1, 146928, Note_on_c, 0, 60, 54
1, 146929, Note_on_c, 0, 56, 56
1, 146930, Note_on_c, 0, 53, 60
1, 146931, Note_on_c, 0, 36, 58
1, 146939, Control_c, 0, 64, 61
1, 146954, Control_c, 0, 64, 64
1, 146955, Note_off_c, 0, 24, 64
1, 146967, Note_off_c, 0, 36, 63
1, 146969, Control_c, 0, 64, 67
1, 146984, Control_c, 0, 64, 72
1, 146999, Control_c, 0, 64, 77
1, 147014, Control_c, 0, 64, 79
1, 147029, Control_c, 0, 64, 80
1, 147067, Control_c, 0, 64, 81
1, 147082, Note_on_c, 0, 29, 64
1, 147082, Note_on_c, 0, 41, 58
1, 147108, Note_off_c, 0, 41, 58
1, 147112, Note_off_c, 0, 29, 64
1, 147222, Note_on_c, 0, 48, 70
1, 147234, Note_on_c, 0, 36, 59
1, 147244, Control_c, 0, 64, 81
1, 147251, Note_off_c, 0, 48, 66
1, 147259, Control_c, 0, 64, 83
1, 147268, Note_off_c, 0, 36, 59
1, 147274, Control_c, 0, 64, 86
1, 147289, Control_c, 0, 64, 88
1, 147303, Control_c, 0, 64, 89
1, 147318, Control_c, 0, 64, 87
1, 147333, Control_c, 0, 64, 77
1, 147348, Control_c, 0, 64, 65
1, 147363, Control_c, 0, 64, 56
1, 147377, Control_c, 0, 64, 54
1, 147385, Note_on_c, 0, 32, 67
1, 147386, Note_on_c, 0, 44, 64
1, 147392, Control_c, 0, 64, 56
1, 147407, Control_c, 0, 64, 61
1, 147422, Control_c, 0, 64, 64
1, 147427, Note_off_c, 0, 44, 65
1, 147437, Control_c, 0, 64, 70
1, 147452, Note_off_c, 0, 32, 48
1, 147452, Control_c, 0, 64, 77
1, 147467, Control_c, 0, 64, 82
1, 147482, Control_c, 0, 64, 84
1, 147496, Control_c, 0, 64, 86
1, 147511, Control_c, 0, 64, 87
1, 147524, Note_on_c, 0, 31, 62
1, 147526, Control_c, 0, 64, 88
1, 147526, Control_c, 0, 67, 45
1, 147528, Note_on_c, 0, 43, 57
1, 147541, Control_c, 0, 64, 88
1, 147550, Note_off_c, 0, 53, 62
1, 147555, Note_off_c, 0, 31, 63
1, 147555, Control_c, 0, 64, 89
1, 147555, Control_c, 0, 67, 45
1, 147562, Note_off_c, 0, 43, 61
1, 147570, Control_c, 0, 64, 89
1, 147577, Note_off_c, 0, 56, 60
1, 147585, Control_c, 0, 64, 90
1, 147591, Note_off_c, 0, 65, 59
1, 147592, Note_off_c, 0, 60, 62
1, 147600, Control_c, 0, 64, 90
1, 147615, Control_c, 0, 64, 91
1, 147629, Control_c, 0, 64, 91
1, 147644, Control_c, 0, 64, 92
1, 147659, Control_c, 0, 64, 93
1, 147664, Note_on_c, 0, 41, 66
1, 147671, Note_on_c, 0, 29, 68
1, 147673, Control_c, 0, 64, 94
1, 147688, Control_c, 0, 64, 97
1, 147700, Note_off_c, 0, 41, 61
1, 147703, Note_off_c, 0, 29, 63
1, 147703, Control_c, 0, 64, 100
1, 147718, Control_c, 0, 64, 105
1, 147718, Control_c, 0, 67, 44
1, 147733, Control_c, 0, 64, 114
1, 147733, Control_c, 0, 67, 44
1, 147747, Control_c, 0, 64, 127
1, 147777, Control_c, 0, 67, 43
1, 147792, Control_c, 0, 67, 43
1, 147831, Control_c, 0, 64, 94
1, 147831, Control_c, 0, 67, 42
1, 147845, Control_c, 0, 64, 73
1, 147845, Control_c, 0, 67, 41
1, 147854, Note_on_c, 0, 65, 67
1, 147855, Note_on_c, 0, 24, 66
1, 147856, Note_on_c, 0, 68, 81
1, 147859, Note_on_c, 0, 36, 62
1, 147859, Note_on_c, 0, 56, 70
1, 147860, Note_on_c, 0, 63, 63
1, 147860, Control_c, 0, 64, 65
1, 147860, Control_c, 0, 67, 40
1, 147875, Control_c, 0, 64, 63
1, 147875, Control_c, 0, 67, 40
1, 147885, Note_off_c, 0, 24, 61
1, 147890, Control_c, 0, 64, 65
1, 147890, Control_c, 0, 67, 39
1, 147894, Note_off_c, 0, 36, 62
1, 147905, Control_c, 0, 64, 69
1, 147920, Control_c, 0, 64, 74
1, 147934, Control_c, 0, 64, 84
1, 147934, Control_c, 0, 67, 38
1, 147949, Control_c, 0, 64, 94
1, 147964, Control_c, 0, 64, 102
1, 147978, Control_c, 0, 64, 108
1, 147987, Note_off_c, 0, 56, 59
1, 147993, Control_c, 0, 64, 113
1, 147993, Control_c, 0, 67, 38
1, 147994, Note_on_c, 0, 41, 64
1, 148008, Control_c, 0, 64, 117
1, 148008, Control_c, 0, 67, 37
1, 148010, Note_on_c, 0, 29, 43
1, 148021, Note_off_c, 0, 41, 61
1, 148023, Control_c, 0, 64, 125
1, 148024, Note_off_c, 0, 68, 63
1, 148024, Note_off_c, 0, 65, 61
1, 148038, Note_off_c, 0, 63, 58
1, 148038, Control_c, 0, 64, 127
1, 148049, Note_off_c, 0, 29, 44
1, 148052, Control_c, 0, 67, 37
1, 148097, Poly_aftertouch_c, 0, 28, 0
1, 148128, Note_on_c, 0, 48, 71
1, 148155, Note_on_c, 0, 35, 44
1, 148155, Note_on_c, 0, 36, 34
1, 148159, Note_off_c, 0, 48, 66
1, 148188, Note_off_c, 0, 36, 53
1, 148191, Note_off_c, 0, 35, 51
1, 148246, Control_c, 0, 64, 80
1, 148246, Control_c, 0, 67, 36
1, 148260, Control_c, 0, 64, 64
1, 148260, Control_c, 0, 67, 36
1, 148275, Note_on_c, 0, 72, 84
1, 148275, Control_c, 0, 64, 57
1, 148275, Control_c, 0, 67, 35
1, 148278, Note_on_c, 0, 68, 68
1, 148281, Note_on_c, 0, 65, 69
1, 148286, Note_on_c, 0, 60, 74
1, 148290, Control_c, 0, 64, 59
1, 148290, Control_c, 0, 67, 35
1, 148293, Note_on_c, 0, 32, 67
1, 148293, Note_on_c, 0, 44, 61
1, 148305, Control_c, 0, 64, 63
1, 148305, Control_c, 0, 67, 34
1, 148319, Control_c, 0, 64, 68
1, 148319, Control_c, 0, 67, 33
1, 148328, Note_off_c, 0, 44, 64
1, 148334, Control_c, 0, 64, 79
1, 148334, Control_c, 0, 67, 30
1, 148336, Note_off_c, 0, 32, 55
1, 148349, Control_c, 0, 64, 92
1, 148349, Control_c, 0, 67, 25
1, 148364, Control_c, 0, 64, 110
1, 148364, Control_c, 0, 67, 20
1, 148379, Control_c, 0, 64, 127
1, 148379, Control_c, 0, 67, 0
1, 148388, Note_off_c, 0, 60, 61
1, 148415, Note_on_c, 0, 31, 64
1, 148418, Note_on_c, 0, 43, 63
1, 148424, Note_off_c, 0, 65, 62
1, 148440, Note_off_c, 0, 72, 57
1, 148449, Note_off_c, 0, 31, 61
1, 148454, Note_off_c, 0, 68, 64
1, 148454, Note_off_c, 0, 43, 62
1, 148540, Note_on_c, 0, 29, 74
1, 148542, Note_on_c, 0, 41, 68
1, 148580, Note_off_c, 0, 29, 65
1, 148598, Note_off_c, 0, 41, 59
1, 148669, Control_c, 0, 64, 96
1, 148683, Control_c, 0, 64, 70
1, 148698, Control_c, 0, 64, 57
1, 148705, Note_on_c, 0, 48, 73
1, 148712, Note_on_c, 0, 36, 61
1, 148713, Control_c, 0, 64, 53
1, 148714, Note_on_c, 0, 75, 81
1, 148719, Note_on_c, 0, 63, 77
1, 148720, Note_on_c, 0, 72, 69
1, 148722, Note_on_c, 0, 68, 74
1, 148728, Control_c, 0, 64, 60
1, 148740, Note_off_c, 0, 48, 65
1, 148743, Control_c, 0, 64, 66
1, 148748, Note_off_c, 0, 36, 63
1, 148758, Control_c, 0, 64, 75
1, 148773, Control_c, 0, 64, 92
1, 148787, Control_c, 0, 64, 127
1, 148806, Note_off_c, 0, 72, 61
1, 148814, Note_off_c, 0, 63, 61
1, 148845, Note_off_c, 0, 75, 64
1, 148847, Note_off_c, 0, 68, 56
1, 148872, Note_on_c, 0, 41, 72
1, 148876, Note_on_c, 0, 29, 69
1, 148907, Note_off_c, 0, 29, 64
1, 148908, Note_off_c, 0, 41, 61
1, 149061, Note_on_c, 0, 68, 69
1, 149062, Note_on_c, 0, 77, 83
1, 149063, Note_on_c, 0, 65, 82
1, 149066, Note_on_c, 0, 24, 75
1, 149066, Note_on_c, 0, 36, 69
1, 149066, Note_on_c, 0, 72, 70
1, 149069, Control_c, 0, 64, 75
1, 149083, Control_c, 0, 64, 48
1, 149098, Control_c, 0, 64, 0
1, 149102, Note_off_c, 0, 24, 65
1, 149114, Note_off_c, 0, 36, 60
1, 149127, Control_c, 0, 64, 45
1, 149142, Control_c, 0, 64, 64
1, 149157, Control_c, 0, 64, 81
1, 149172, Control_c, 0, 64, 127
1, 149318, Note_on_c, 0, 44, 72
1, 149446, Note_off_c, 0, 44, 61
1, 149491, Note_on_c, 0, 56, 66
1, 149568, Note_off_c, 0, 56, 52
1, 149604, Note_off_c, 0, 77, 60
1, 149681, Note_on_c, 0, 75, 77
1, 149688, Note_on_c, 0, 48, 68
1, 149701, Note_off_c, 0, 65, 57
1, 149768, Note_off_c, 0, 72, 38
1, 149784, Note_off_c, 0, 68, 50
1, 149940, Note_on_c, 0, 56, 68
1, 149942, Note_on_c, 0, 65, 81
1, 149998, Note_off_c, 0, 48, 38
1, 150001, Note_off_c, 0, 75, 61
1, 150079, Note_off_c, 0, 65, 61
1, 150123, Note_on_c, 0, 65, 65
1, 150125, Note_on_c, 0, 63, 65
1, 150131, Note_off_c, 0, 56, 58
1, 150187, Note_off_c, 0, 65, 62
1, 150208, Note_off_c, 0, 63, 60
1, 150257, Note_on_c, 0, 65, 66
1, 150272, Note_on_c, 0, 56, 60
1, 150285, Note_off_c, 0, 65, 66
1, 150388, Note_off_c, 0, 56, 56
1, 150412, Note_on_c, 0, 48, 75
1, 150469, Note_off_c, 0, 48, 66
1, 150564, Note_on_c, 0, 41, 80
1, 150699, Control_c, 0, 64, 79
1, 150714, Control_c, 0, 64, 60
1, 150728, Note_on_c, 0, 35, 79
1, 150729, Control_c, 0, 64, 50
1, 150733, Note_on_c, 0, 23, 63
1, 150744, Control_c, 0, 64, 58
1, 150746, Note_on_c, 0, 24, 51
1, 150757, Note_off_c, 0, 35, 64
1, 150759, Control_c, 0, 64, 66
1, 150767, Note_off_c, 0, 23, 50
1, 150773, Control_c, 0, 64, 77
1, 150788, Note_off_c, 0, 24, 32
1, 150788, Control_c, 0, 64, 108
1, 150811, Control_c, 0, 64, 127
1, 150835, Note_off_c, 0, 41, 60
1, 150912, Note_on_c, 0, 41, 77
1, 150959, Note_off_c, 0, 41, 63
1, 151092, Note_on_c, 0, 53, 75
1, 151285, Note_off_c, 0, 53, 61
1, 151292, Note_on_c, 0, 75, 82
1, 151308, Note_on_c, 0, 47, 63
1, 151535, Note_off_c, 0, 47, 58
1, 151551, Note_on_c, 0, 56, 69
1, 151557, Note_on_c, 0, 65, 84
1, 151598, Note_off_c, 0, 75, 61
1, 151692, Note_off_c, 0, 65, 63
1, 151736, Note_on_c, 0, 63, 69
1, 151751, Note_off_c, 0, 56, 58
1, 151753, Note_on_c, 0, 65, 72
1, 151807, Note_off_c, 0, 65, 63
1, 151814, Note_off_c, 0, 63, 61
1, 151891, Note_on_c, 0, 56, 66
1, 151899, Note_on_c, 0, 65, 76
1, 151925, Note_off_c, 0, 65, 67
1, 152011, Note_off_c, 0, 56, 58
1, 152052, Note_on_c, 0, 47, 76
1, 152107, Note_off_c, 0, 47, 66
1, 152226, Note_on_c, 0, 41, 77
1, 152303, Note_off_c, 0, 41, 60
1, 152441, Control_c, 0, 64, 82
1, 152456, Control_c, 0, 64, 53
1, 152469, Note_on_c, 0, 34, 85
1, 152469, Note_on_c, 0, 22, 88
1, 152470, Control_c, 0, 64, 0
1, 152515, Note_off_c, 0, 22, 62
1, 152515, Control_c, 0, 64, 55
1, 152523, Note_off_c, 0, 34, 63
1, 152530, Control_c, 0, 64, 72
1, 152544, Control_c, 0, 64, 118
1, 152559, Control_c, 0, 64, 127
1, 152786, Note_on_c, 0, 68, 87
1, 152788, Note_on_c, 0, 53, 74
1, 152792, Note_on_c, 0, 41, 66
1, 152800, Note_on_c, 0, 62, 73
1, 152860, Note_off_c, 0, 62, 59
1, 152984, Note_on_c, 0, 62, 68
1, 152991, Note_off_c, 0, 41, 56
1, 153009, Note_off_c, 0, 53, 57
1, 153029, Note_off_c, 0, 62, 60
1, 153114, Note_on_c, 0, 41, 66
1, 153128, Note_on_c, 0, 53, 75
1, 153138, Note_on_c, 0, 62, 73
1, 153146, Note_off_c, 0, 41, 63
1, 153165, Note_off_c, 0, 53, 61
1, 153217, Note_off_c, 0, 62, 55
1, 153294, Note_on_c, 0, 58, 76
1, 153301, Note_on_c, 0, 46, 70
1, 153332, Note_off_c, 0, 46, 65
1, 153333, Note_off_c, 0, 58, 57
1, 153447, Note_on_c, 0, 70, 86
1, 153456, Note_on_c, 0, 58, 66
1, 153467, Note_on_c, 0, 62, 60
1, 153472, Note_on_c, 0, 46, 54
1, 153477, Note_off_c, 0, 68, 48
1, 153494, Note_off_c, 0, 62, 60
1, 153504, Note_off_c, 0, 46, 62
1, 153521, Note_off_c, 0, 58, 50
1, 153599, Note_on_c, 0, 58, 64
1, 153601, Note_on_c, 0, 46, 62
1, 153607, Note_on_c, 0, 77, 77
1, 153624, Note_on_c, 0, 62, 51
1, 153636, Note_off_c, 0, 46, 63
1, 153651, Note_off_c, 0, 58, 56
1, 153652, Note_off_c, 0, 70, 62
1, 153658, Note_off_c, 0, 62, 62
1, 153708, Note_off_c, 0, 77, 58
1, 153778, Note_on_c, 0, 74, 82
1, 153783, Note_on_c, 0, 65, 75
1, 153788, Note_on_c, 0, 58, 59
1, 153801, Note_on_c, 0, 56, 58
1, 153801, Note_on_c, 0, 62, 60
1, 153833, Note_off_c, 0, 62, 63
1, 153843, Note_off_c, 0, 65, 61
1, 153852, Note_off_c, 0, 58, 55
1, 153853, Note_off_c, 0, 56, 47
1, 153902, Note_off_c, 0, 74, 51
1, 153938, Note_on_c, 0, 63, 76
1, 153948, Note_on_c, 0, 77, 75
1, 153953, Note_on_c, 0, 72, 52
1, 153962, Note_on_c, 0, 58, 58
1, 153969, Note_on_c, 0, 56, 51
1, 153976, Note_off_c, 0, 72, 60
1, 153976, Note_off_c, 0, 77, 65
1, 154001, Note_off_c, 0, 63, 61
1, 154003, Note_off_c, 0, 56, 61
1, 154004, Note_off_c, 0, 58, 59
1, 154109, Note_on_c, 0, 82, 82
1, 154114, Note_on_c, 0, 56, 58
1, 154117, Note_on_c, 0, 62, 57
1, 154126, Note_on_c, 0, 58, 39
1, 154129, Note_off_c, 0, 82, 70
1, 154143, Note_off_c, 0, 62, 68
1, 154147, Note_off_c, 0, 56, 62
1, 154151, Note_on_c, 0, 70, 11
1, 154151, Note_off_c, 0, 58, 59
1, 154195, Note_off_c, 0, 70, 40
1, 154340, Control_c, 0, 67, 23
1, 154355, Control_c, 0, 67, 32
1, 154370, Control_c, 0, 67, 46
1, 154385, Control_c, 0, 64, 87
1, 154385, Control_c, 0, 67, 64
1, 154400, Control_c, 0, 64, 66
1, 154400, Control_c, 0, 67, 85
1, 154414, Control_c, 0, 64, 40
1, 154414, Control_c, 0, 67, 113
1, 154429, Control_c, 0, 64, 0
1, 154429, Control_c, 0, 67, 127
1, 154570, Note_on_c, 0, 58, 29
1, 154582, Note_on_c, 0, 82, 57
1, 154600, Control_c, 0, 64, 45
1, 154615, Control_c, 0, 64, 60
1, 154629, Control_c, 0, 64, 65
1, 154644, Control_c, 0, 64, 71
1, 154659, Control_c, 0, 64, 81
1, 154673, Control_c, 0, 64, 101
1, 154688, Control_c, 0, 64, 127
1, 154728, Note_off_c, 0, 58, 46
1, 154735, Note_on_c, 0, 67, 32
1, 154767, Note_off_c, 0, 67, 48
1, 154827, Note_on_c, 0, 75, 51
1, 154845, Note_on_c, 0, 84, 57
1, 154857, Note_off_c, 0, 82, 50
1, 154923, Note_off_c, 0, 75, 58
1, 154938, Note_on_c, 0, 72, 51
1, 154979, Note_off_c, 0, 72, 61
1, 155025, Note_off_c, 0, 84, 60
1, 155036, Note_on_c, 0, 77, 47
1, 155051, Note_on_c, 0, 86, 53
1, 155099, Note_off_c, 0, 77, 58
1, 155133, Note_on_c, 0, 75, 46
1, 155167, Note_off_c, 0, 75, 56
1, 155215, Note_on_c, 0, 87, 66
1, 155216, Note_on_c, 0, 79, 48
1, 155237, Note_off_c, 0, 86, 36
1, 155270, Note_off_c, 0, 79, 43
1, 155317, Note_on_c, 0, 70, 49
1, 155362, Note_off_c, 0, 70, 59
1, 155409, Note_off_c, 0, 87, 62
1, 155413, Note_on_c, 0, 82, 58
1, 155420, Note_on_c, 0, 74, 46
1, 155440, Note_off_c, 0, 82, 65
1, 155489, Note_off_c, 0, 74, 45
1, 155542, Note_on_c, 0, 72, 54
1, 155563, Note_off_c, 0, 72, 63
1, 155673, Note_on_c, 0, 58, 79
1, 155683, Note_on_c, 0, 70, 74
1, 155728, Note_off_c, 0, 70, 47
1, 155730, Note_off_c, 0, 58, 62
1, 155804, Note_on_c, 0, 34, 85
1, 155812, Note_on_c, 0, 22, 73
1, 155832, Note_off_c, 0, 34, 66
1, 155839, Note_off_c, 0, 22, 61
1, 156043, Note_on_c, 0, 68, 87
1, 156050, Note_on_c, 0, 53, 80
1, 156052, Note_on_c, 0, 41, 78
1, 156052, Control_c, 0, 64, 125
1, 156054, Note_on_c, 0, 62, 75
1, 156067, Control_c, 0, 64, 79
1, 156082, Control_c, 0, 64, 68
1, 156097, Control_c, 0, 64, 69
1, 156112, Control_c, 0, 64, 79
1, 156121, Note_off_c, 0, 62, 56
1, 156126, Control_c, 0, 64, 98
1, 156141, Control_c, 0, 64, 127
1, 156245, Control_c, 0, 67, 125
1, 156248, Note_on_c, 0, 62, 64
1, 156258, Note_off_c, 0, 41, 57
1, 156260, Control_c, 0, 67, 115
1, 156275, Control_c, 0, 67, 104
1, 156277, Note_off_c, 0, 53, 55
1, 156283, Note_off_c, 0, 62, 63
1, 156290, Control_c, 0, 67, 88
1, 156305, Control_c, 0, 67, 72
1, 156319, Control_c, 0, 67, 57
1, 156334, Control_c, 0, 67, 43
1, 156349, Control_c, 0, 67, 26
1, 156364, Note_on_c, 0, 53, 61
1, 156364, Control_c, 0, 67, 0
1, 156368, Note_on_c, 0, 41, 60
1, 156378, Note_on_c, 0, 62, 72
1, 156394, Note_off_c, 0, 41, 62
1, 156404, Note_off_c, 0, 53, 63
1, 156437, Note_off_c, 0, 62, 60
1, 156533, Note_on_c, 0, 58, 74
1, 156545, Note_on_c, 0, 46, 62
1, 156562, Note_off_c, 0, 58, 63
1, 156576, Note_off_c, 0, 46, 64
1, 156628, Note_off_c, 0, 68, 59
1, 156669, Note_on_c, 0, 70, 86
1, 156674, Note_on_c, 0, 58, 64
1, 156686, Note_on_c, 0, 46, 57
1, 156693, Note_on_c, 0, 62, 60
1, 156720, Note_off_c, 0, 46, 62
1, 156720, Note_off_c, 0, 62, 62
1, 156732, Note_off_c, 0, 58, 52
1, 156830, Note_on_c, 0, 58, 66
1, 156830, Note_on_c, 0, 46, 60
1, 156836, Note_on_c, 0, 77, 70
1, 156862, Note_off_c, 0, 46, 65
1, 156865, Note_on_c, 0, 76, 49
1, 156866, Note_on_c, 0, 62, 28
1, 156880, Note_off_c, 0, 70, 56
1, 156886, Note_off_c, 0, 58, 60
1, 156891, Note_off_c, 0, 76, 56
1, 156903, Note_off_c, 0, 62, 43
1, 156939, Note_off_c, 0, 77, 59
1, 157003, Note_on_c, 0, 74, 84
1, 157009, Note_on_c, 0, 65, 74
1, 157014, Note_on_c, 0, 62, 58
1, 157016, Note_on_c, 0, 58, 59
1, 157017, Note_on_c, 0, 56, 63
1, 157043, Note_off_c, 0, 65, 63
1, 157048, Note_off_c, 0, 62, 63
1, 157060, Note_off_c, 0, 56, 54
1, 157069, Note_off_c, 0, 58, 59
1, 157111, Note_off_c, 0, 74, 53
1, 157153, Note_on_c, 0, 77, 73
1, 157154, Note_on_c, 0, 72, 54
1, 157156, Note_on_c, 0, 63, 61
1, 157167, Note_on_c, 0, 56, 61
1, 157167, Note_on_c, 0, 58, 60
1, 157175, Note_off_c, 0, 72, 64
1, 157176, Note_off_c, 0, 77, 68
1, 157198, Note_off_c, 0, 58, 61
1, 157200, Note_off_c, 0, 63, 58
1, 157208, Note_off_c, 0, 56, 57
1, 157305, Note_on_c, 0, 82, 80
1, 157313, Note_on_c, 0, 62, 60
1, 157316, Note_on_c, 0, 56, 51
1, 157326, Note_off_c, 0, 82, 70
1, 157330, Note_on_c, 0, 70, 34
1, 157346, Note_off_c, 0, 62, 64
1, 157348, Note_off_c, 0, 56, 59
1, 157361, Note_off_c, 0, 70, 52
1, 157639, Control_c, 0, 64, 84
1, 157654, Control_c, 0, 64, 64
1, 157669, Control_c, 0, 64, 40
1, 157684, Control_c, 0, 64, 0
1, 157700, Note_on_c, 0, 58, 44
1, 157725, Note_on_c, 0, 85, 58
1, 157802, Control_c, 0, 64, 47
1, 157817, Control_c, 0, 64, 62
1, 157817, Control_c, 0, 67, 19
1, 157832, Control_c, 0, 64, 69
1, 157846, Control_c, 0, 64, 80
1, 157861, Note_off_c, 0, 58, 45
1, 157861, Control_c, 0, 64, 101
1, 157876, Control_c, 0, 64, 127
1, 157890, Note_on_c, 0, 66, 38
1, 157891, Control_c, 0, 67, 21
1, 157921, Note_off_c, 0, 66, 47
1, 157966, Control_c, 0, 67, 23
1, 158029, Note_on_c, 0, 87, 59
1, 158042, Note_on_c, 0, 78, 42
1, 158118, Note_off_c, 0, 85, 38
1, 158122, Note_on_c, 0, 75, 48
1, 158159, Note_off_c, 0, 78, 35
1, 158192, Note_off_c, 0, 75, 58
1, 158224, Note_on_c, 0, 89, 59
1, 158225, Note_off_c, 0, 87, 56
1, 158241, Note_on_c, 0, 80, 45
1, 158308, Note_off_c, 0, 80, 53
1, 158334, Note_on_c, 0, 78, 40
1, 158376, Note_off_c, 0, 78, 58
1, 158389, Note_off_c, 0, 89, 63
1, 158408, Note_on_c, 0, 90, 65
1, 158432, Note_on_c, 0, 82, 45
1, 158448, Control_c, 0, 67, 21
1, 158481, Note_on_c, 0, 73, 50
1, 158497, Note_off_c, 0, 82, 48
1, 158575, Note_off_c, 0, 73, 53
1, 158604, Note_on_c, 0, 77, 49
1, 158619, Note_on_c, 0, 85, 64
1, 158632, Note_off_c, 0, 90, 62
1, 158646, Note_off_c, 0, 85, 67
1, 158742, Note_on_c, 0, 75, 58
1, 158756, Note_off_c, 0, 77, 37
1, 158774, Note_off_c, 0, 75, 67
1, 158906, Note_on_c, 0, 73, 60
1, 158914, Note_on_c, 0, 61, 63
1, 158935, Note_off_c, 0, 73, 67
1, 158937, Control_c, 0, 67, 19
1, 158945, Note_off_c, 0, 61, 63
1, 158952, Control_c, 0, 67, 0
1, 159227, Control_c, 0, 64, 75
1, 159241, Note_on_c, 0, 61, 81
1, 159241, Control_c, 0, 64, 56
1, 159244, Note_on_c, 0, 22, 72
1, 159244, Note_on_c, 0, 34, 81
1, 159248, Note_on_c, 0, 52, 64
1, 159250, Note_on_c, 0, 56, 73
1, 159256, Control_c, 0, 64, 49
1, 159267, Note_off_c, 0, 34, 67
1, 159271, Control_c, 0, 64, 60
1, 159271, Note_off_c, 0, 22, 61
1, 159286, Control_c, 0, 64, 69
1, 159301, Control_c, 0, 64, 94
1, 159316, Control_c, 0, 64, 127
1, 159382, Note_off_c, 0, 52, 55
1, 159423, Note_off_c, 0, 61, 61
1, 159447, Note_off_c, 0, 56, 61
1, 159569, Note_on_c, 0, 52, 58
1, 159693, Note_off_c, 0, 52, 61
1, 159704, Note_on_c, 0, 61, 72
1, 159810, Note_on_c, 0, 80, 90
1, 159829, Note_on_c, 0, 56, 68
1, 159839, Note_off_c, 0, 61, 56
1, 159959, Note_off_c, 0, 56, 61
1, 159969, Note_on_c, 0, 68, 64
1, 159976, Note_off_c, 0, 80, 65
1, 159981, Note_on_c, 0, 73, 87
1, 160060, Note_off_c, 0, 73, 60
1, 160061, Note_off_c, 0, 68, 61
1, 160095, Note_on_c, 0, 61, 70
1, 160107, Note_on_c, 0, 73, 78
1, 160158, Note_off_c, 0, 73, 63
1, 160194, Note_off_c, 0, 61, 57
1, 160198, Note_on_c, 0, 56, 63
1, 160201, Poly_aftertouch_c, 0, 75, 0
1, 160217, Note_on_c, 0, 73, 78
1, 160220, Poly_aftertouch_c, 0, 75, 0
1, 160237, Note_off_c, 0, 73, 69
1, 160297, Note_on_c, 0, 52, 54
1, 160307, Note_off_c, 0, 56, 60
1, 160327, Note_off_c, 0, 52, 64
1, 160508, Control_c, 0, 64, 96
1, 160518, Note_on_c, 0, 39, 87
1, 160518, Note_on_c, 0, 55, 66
1, 160520, Note_on_c, 0, 27, 85
1, 160529, Note_on_c, 0, 61, 81
1, 160529, Control_c, 0, 64, 69
1, 160544, Control_c, 0, 64, 56
1, 160546, Note_on_c, 0, 51, 49
1, 160550, Note_off_c, 0, 39, 67
1, 160553, Note_off_c, 0, 27, 66
1, 160559, Control_c, 0, 64, 57
1, 160560, Note_on_c, 0, 56, 34
1, 160574, Control_c, 0, 64, 64
1, 160581, Note_off_c, 0, 51, 56
1, 160589, Control_c, 0, 64, 73
1, 160591, Note_off_c, 0, 56, 35
1, 160605, Control_c, 0, 64, 93
1, 160620, Control_c, 0, 64, 127
1, 160647, Note_off_c, 0, 55, 60
1, 160648, Note_off_c, 0, 61, 62
1, 160680, Note_on_c, 0, 51, 70
1, 160720, Note_off_c, 0, 51, 62
1, 160810, Note_on_c, 0, 61, 70
1, 160816, Note_on_c, 0, 67, 58
1, 160857, Note_off_c, 0, 67, 54
1, 160866, Note_off_c, 0, 61, 61
1, 160901, Note_on_c, 0, 55, 76
1, 160953, Note_off_c, 0, 55, 64
1, 161021, Control_c, 0, 64, 89
1, 161035, Control_c, 0, 64, 58
1, 161050, Control_c, 0, 64, 0
1, 161055, Note_on_c, 0, 34, 66
1, 161057, Note_on_c, 0, 46, 80
1, 161057, Note_on_c, 0, 61, 86
1, 161061, Note_on_c, 0, 56, 73
1, 161062, Note_on_c, 0, 52, 68
1, 161086, Note_off_c, 0, 34, 63
1, 161091, Note_off_c, 0, 46, 66
1, 161095, Control_c, 0, 64, 47
1, 161109, Control_c, 0, 64, 62
1, 161124, Control_c, 0, 64, 76
1, 161139, Control_c, 0, 64, 127
1, 161166, Note_off_c, 0, 61, 63
1, 161170, Note_off_c, 0, 52, 57
1, 161195, Note_off_c, 0, 56, 58
1, 161295, Note_on_c, 0, 52, 72
1, 161414, Note_off_c, 0, 52, 35
1, 161424, Note_on_c, 0, 61, 70
1, 161552, Note_off_c, 0, 61, 60
1, 161555, Note_on_c, 0, 56, 64
1, 161555, Note_on_c, 0, 80, 88
1, 161775, Note_off_c, 0, 56, 61
1, 161799, Note_on_c, 0, 68, 59
1, 161819, Note_on_c, 0, 73, 83
1, 161932, Note_off_c, 0, 80, 58
1, 161951, Note_off_c, 0, 68, 56
1, 161985, Note_off_c, 0, 73, 61
1, 161987, Note_on_c, 0, 61, 55
1, 162063, Note_on_c, 0, 73, 65
1, 162110, Note_off_c, 0, 73, 57
1, 162151, Note_on_c, 0, 56, 52
1, 162176, Note_off_c, 0, 61, 56
1, 162191, Control_c, 0, 67, 19
1, 162222, Control_c, 0, 67, 23
1, 162224, Note_on_c, 0, 73, 57
1, 162237, Control_c, 0, 67, 25
1, 162243, Note_off_c, 0, 73, 63
1, 162252, Control_c, 0, 67, 28
1, 162267, Control_c, 0, 67, 31
1, 162281, Control_c, 0, 67, 35
1, 162296, Control_c, 0, 67, 39
1, 162311, Control_c, 0, 67, 43
1, 162318, Note_on_c, 0, 52, 50
1, 162325, Note_off_c, 0, 56, 61
1, 162325, Control_c, 0, 67, 48
1, 162340, Control_c, 0, 67, 52
1, 162343, Note_off_c, 0, 52, 58
1, 162355, Control_c, 0, 67, 56
1, 162370, Control_c, 0, 67, 59
1, 162385, Control_c, 0, 67, 61
1, 162399, Control_c, 0, 67, 62
1, 162414, Control_c, 0, 67, 65
1, 162429, Control_c, 0, 67, 68
1, 162444, Control_c, 0, 67, 72
1, 162459, Control_c, 0, 67, 77
1, 162473, Control_c, 0, 67, 82
1, 162488, Control_c, 0, 67, 87
1, 162503, Control_c, 0, 67, 91
1, 162518, Control_c, 0, 67, 96
1, 162532, Control_c, 0, 67, 100
1, 162547, Control_c, 0, 67, 103
1, 162562, Control_c, 0, 67, 105
1, 162670, Note_on_c, 0, 61, 60
1, 162672, Note_on_c, 0, 55, 44
1, 162687, Note_on_c, 0, 51, 65
1, 162692, Note_on_c, 0, 39, 62
1, 162704, Note_on_c, 0, 49, 30
1, 162740, Control_c, 0, 64, 88
1, 162755, Control_c, 0, 64, 70
1, 162770, Control_c, 0, 64, 59
1, 162792, Control_c, 0, 64, 46
1, 162807, Control_c, 0, 64, 37
1, 162822, Control_c, 0, 64, 29
1, 162836, Control_c, 0, 64, 0
1, 162851, Control_c, 0, 67, 107
1, 162896, Control_c, 0, 64, 29
1, 162911, Control_c, 0, 64, 43
1, 162911, Control_c, 0, 67, 109
1, 162926, Control_c, 0, 64, 56
1, 162926, Control_c, 0, 67, 116
1, 162940, Control_c, 0, 64, 64
1, 162940, Control_c, 0, 67, 124
1, 162955, Control_c, 0, 64, 70
1, 162955, Control_c, 0, 67, 127
1, 162970, Control_c, 0, 64, 76
1, 162985, Control_c, 0, 64, 84
1, 163000, Control_c, 0, 64, 95
1, 163015, Control_c, 0, 64, 127
1, 163103, Note_off_c, 0, 49, 43
1, 163265, Note_off_c, 0, 55, 33
1, 163267, Note_off_c, 0, 51, 25
1, 163268, Note_off_c, 0, 61, 59
1, 163728, Note_on_c, 0, 50, 37
1, 163729, Note_on_c, 0, 62, 43
1, 163734, Control_c, 0, 64, 122
1, 163736, Note_on_c, 0, 59, 39
1, 163743, Note_on_c, 0, 38, 45
1, 163743, Note_on_c, 0, 55, 35
1, 163749, Control_c, 0, 64, 90
1, 163764, Control_c, 0, 64, 76
1, 163771, Note_off_c, 0, 39, 35
1, 163778, Control_c, 0, 64, 66
1, 163793, Control_c, 0, 64, 56
1, 163809, Control_c, 0, 64, 49
1, 163824, Control_c, 0, 64, 43
1, 163839, Control_c, 0, 64, 37
1, 163853, Control_c, 0, 64, 32
1, 163883, Control_c, 0, 64, 32
1, 163898, Control_c, 0, 64, 39
1, 163912, Control_c, 0, 64, 49
1, 163926, Control_c, 0, 64, 60
1, 163941, Control_c, 0, 64, 67
1, 163956, Control_c, 0, 64, 73
1, 163971, Control_c, 0, 64, 81
1, 163985, Control_c, 0, 64, 94
1, 164000, Control_c, 0, 64, 116
1, 164014, Note_off_c, 0, 50, 39
1, 164015, Control_c, 0, 64, 127
1, 164045, Note_off_c, 0, 55, 61
1, 164063, Note_off_c, 0, 59, 61
1, 164079, Note_off_c, 0, 62, 60
1, 164243, Note_off_c, 0, 38, 54
1, 164282, Note_on_c, 0, 52, 31
1, 164285, Note_on_c, 0, 40, 34
1, 164393, Note_on_c, 0, 74, 64
1, 164417, Note_on_c, 0, 62, 39
1, 164421, Note_off_c, 0, 74, 66
1, 164446, Note_off_c, 0, 62, 52
1, 164488, Note_off_c, 0, 52, 51
1, 164713, Note_on_c, 0, 62, 60
1, 164729, Note_on_c, 0, 59, 51
1, 164729, Note_off_c, 0, 40, 49
1, 164735, Note_on_c, 0, 42, 48
1, 164746, Note_on_c, 0, 50, 33
1, 164749, Control_c, 0, 64, 94
1, 164754, Note_on_c, 0, 54, 38
1, 164764, Control_c, 0, 64, 75
1, 164779, Control_c, 0, 64, 64
1, 164794, Control_c, 0, 64, 62
1, 164808, Control_c, 0, 64, 64
1, 164823, Control_c, 0, 64, 67
1, 164838, Control_c, 0, 64, 72
1, 164853, Control_c, 0, 64, 79
1, 164868, Control_c, 0, 64, 88
1, 164878, Note_off_c, 0, 50, 40
1, 164882, Control_c, 0, 64, 101
1, 164897, Control_c, 0, 64, 122
1, 164899, Note_off_c, 0, 62, 48
1, 164912, Control_c, 0, 64, 127
1, 164955, Note_on_c, 0, 62, 41
1, 164979, Note_on_c, 0, 50, 44
1, 164989, Note_off_c, 0, 54, 60
1, 165015, Note_off_c, 0, 50, 52
1, 165029, Note_off_c, 0, 42, 63
1, 165053, Control_c, 0, 64, 115
1, 165059, Note_off_c, 0, 62, 57
1, 165068, Control_c, 0, 64, 86
1, 165076, Note_on_c, 0, 55, 51
1, 165080, Note_on_c, 0, 43, 51
1, 165082, Control_c, 0, 64, 76
1, 165097, Control_c, 0, 64, 75
1, 165112, Control_c, 0, 64, 79
1, 165126, Control_c, 0, 64, 87
1, 165130, Note_off_c, 0, 55, 56
1, 165141, Control_c, 0, 64, 105
1, 165156, Control_c, 0, 64, 127
1, 165158, Note_on_c, 0, 62, 64
1, 165176, Note_off_c, 0, 43, 59
1, 165340, Note_on_c, 0, 38, 62
1, 165343, Note_on_c, 0, 50, 61
1, 165349, Control_c, 0, 64, 91
1, 165364, Control_c, 0, 64, 69
1, 165379, Control_c, 0, 64, 58
1, 165394, Control_c, 0, 64, 59
1, 165410, Control_c, 0, 64, 64
1, 165424, Control_c, 0, 64, 73
1, 165429, Note_off_c, 0, 62, 50
1, 165439, Control_c, 0, 64, 90
1, 165454, Control_c, 0, 64, 127
1, 165473, Note_off_c, 0, 50, 59
1, 165531, Note_off_c, 0, 59, 41
1, 165573, Control_c, 0, 64, 100
1, 165577, Note_off_c, 0, 38, 62
1, 165588, Control_c, 0, 64, 76
1, 165603, Control_c, 0, 64, 66
1, 165618, Control_c, 0, 64, 65
1, 165630, Note_on_c, 0, 35, 57
1, 165632, Control_c, 0, 64, 70
1, 165633, Note_on_c, 0, 47, 50
1, 165647, Control_c, 0, 64, 80
1, 165662, Control_c, 0, 64, 95
1, 165676, Control_c, 0, 64, 127
1, 165723, Note_on_c, 0, 63, 64
1, 165739, Note_on_c, 0, 51, 52
1, 165752, Note_on_c, 0, 57, 35
1, 165782, Note_off_c, 0, 51, 61
1, 165794, Note_off_c, 0, 57, 53
1, 165806, Note_off_c, 0, 47, 58
1, 165832, Note_off_c, 0, 35, 56
1, 165899, Note_off_c, 0, 63, 56
1, 165936, Control_c, 0, 64, 104
1, 165949, Note_on_c, 0, 64, 57
1, 165950, Control_c, 0, 64, 73
1, 165951, Note_on_c, 0, 47, 45
1, 165960, Note_on_c, 0, 35, 53
1, 165964, Note_on_c, 0, 52, 45
1, 165965, Note_on_c, 0, 56, 43
1, 165965, Control_c, 0, 64, 56
1, 165980, Control_c, 0, 64, 47
1, 165995, Control_c, 0, 64, 49
1, 166010, Control_c, 0, 64, 57
1, 166013, Note_off_c, 0, 47, 60
1, 166024, Control_c, 0, 64, 65
1, 166030, Note_off_c, 0, 52, 59
1, 166039, Control_c, 0, 64, 76
1, 166054, Control_c, 0, 64, 112
1, 166069, Control_c, 0, 64, 127
1, 166080, Note_off_c, 0, 56, 60
1, 166098, Note_off_c, 0, 64, 62
1, 166172, Control_c, 0, 64, 95
1, 166187, Control_c, 0, 64, 78
1, 166191, Note_off_c, 0, 35, 54
1, 166202, Control_c, 0, 64, 73
1, 166209, Note_on_c, 0, 37, 66
1, 166211, Note_on_c, 0, 49, 60
1, 166217, Control_c, 0, 64, 76
1, 166232, Control_c, 0, 64, 92
1, 166247, Control_c, 0, 64, 127
1, 166315, Note_on_c, 0, 71, 74
1, 166332, Note_on_c, 0, 59, 50
1, 166338, Note_off_c, 0, 71, 69
1, 166358, Note_off_c, 0, 59, 64
1, 166368, Note_off_c, 0, 49, 60
1, 166536, Control_c, 0, 64, 100
1, 166546, Note_off_c, 0, 37, 60
1, 166551, Control_c, 0, 64, 71
1, 166557, Note_on_c, 0, 39, 62
1, 166560, Note_on_c, 0, 59, 62
1, 166564, Note_on_c, 0, 51, 47
1, 166566, Control_c, 0, 64, 56
1, 166569, Note_on_c, 0, 56, 58
1, 166575, Note_on_c, 0, 47, 50
1, 166580, Control_c, 0, 64, 45
1, 166595, Control_c, 0, 64, 47
1, 166610, Control_c, 0, 64, 54
1, 166625, Control_c, 0, 64, 61
1, 166640, Control_c, 0, 64, 69
1, 166654, Control_c, 0, 64, 84
1, 166661, Note_off_c, 0, 47, 48
1, 166669, Control_c, 0, 64, 127
1, 166683, Note_off_c, 0, 59, 57
1, 166728, Note_off_c, 0, 51, 54
1, 166755, Note_on_c, 0, 59, 55
1, 166765, Note_on_c, 0, 47, 51
1, 166772, Control_c, 0, 64, 85
1, 166787, Control_c, 0, 64, 68
1, 166789, Note_off_c, 0, 47, 59
1, 166792, Note_off_c, 0, 39, 62
1, 166802, Control_c, 0, 64, 59
1, 166817, Control_c, 0, 64, 59
1, 166821, Note_on_c, 0, 52, 48
1, 166822, Note_on_c, 0, 40, 59
1, 166825, Note_off_c, 0, 59, 57
1, 166832, Control_c, 0, 64, 63
1, 166846, Control_c, 0, 64, 68
1, 166861, Control_c, 0, 64, 76
1, 166862, Note_off_c, 0, 52, 62
1, 166876, Control_c, 0, 64, 90
1, 166891, Control_c, 0, 64, 101
1, 166893, Note_off_c, 0, 40, 61
1, 166898, Note_off_c, 0, 56, 0
1, 166898, Note_on_c, 0, 56, 15
1, 166905, Control_c, 0, 64, 113
1, 166917, Note_on_c, 0, 59, 59
1, 166920, Control_c, 0, 64, 127
1, 166931, Note_on_c, 0, 47, 23
1, 167046, Note_off_c, 0, 47, 0
1, 167055, Control_c, 0, 64, 87
1, 167066, Note_on_c, 0, 47, 19
1, 167069, Control_c, 0, 64, 62
1, 167084, Control_c, 0, 64, 43
1, 167094, Note_on_c, 0, 35, 45
1, 167099, Control_c, 0, 64, 31
1, 167106, Note_on_c, 0, 33, 34
1, 167114, Control_c, 0, 64, 35
1, 167119, Note_off_c, 0, 59, 50
1, 167129, Control_c, 0, 64, 50
1, 167144, Control_c, 0, 64, 62
1, 167145, Note_off_c, 0, 33, 41
1, 167159, Control_c, 0, 64, 71
1, 167174, Control_c, 0, 64, 91
1, 167188, Control_c, 0, 64, 127
1, 167219, Note_off_c, 0, 47, 56
1, 167231, Note_off_c, 0, 35, 58
1, 167239, Note_off_c, 0, 56, 41
1, 167373, Control_c, 0, 64, 84
1, 167388, Control_c, 0, 64, 66
1, 167403, Control_c, 0, 64, 55
1, 167418, Control_c, 0, 64, 54
1, 167433, Control_c, 0, 64, 58
1, 167439, Note_on_c, 0, 44, 52
1, 167447, Control_c, 0, 64, 64
1, 167462, Control_c, 0, 64, 71
1, 167477, Control_c, 0, 64, 85
1, 167492, Control_c, 0, 64, 100
1, 167507, Control_c, 0, 64, 125
1, 167516, Note_off_c, 0, 44, 59
1, 167521, Control_c, 0, 64, 127
1, 167534, Note_on_c, 0, 60, 59
1, 167543, Note_on_c, 0, 54, 44
1, 167555, Note_on_c, 0, 48, 33
1, 167573, Note_off_c, 0, 60, 64
1, 167591, Note_off_c, 0, 48, 53
1, 167604, Note_off_c, 0, 54, 50
1, 167743, Control_c, 0, 64, 96
1, 167758, Control_c, 0, 64, 74
1, 167773, Control_c, 0, 64, 60
1, 167788, Control_c, 0, 64, 51
1, 167804, Control_c, 0, 64, 48
1, 167807, Note_on_c, 0, 32, 46
1, 167813, Note_on_c, 0, 61, 57
1, 167815, Note_on_c, 0, 44, 36
1, 167818, Note_on_c, 0, 52, 40
1, 167818, Control_c, 0, 64, 51
1, 167832, Note_on_c, 0, 49, 37
1, 167833, Control_c, 0, 64, 56
1, 167848, Control_c, 0, 64, 61
1, 167863, Control_c, 0, 64, 69
1, 167877, Control_c, 0, 64, 82
1, 167892, Control_c, 0, 64, 122
1, 167907, Control_c, 0, 64, 127
1, 167910, Note_off_c, 0, 49, 58
1, 167938, Note_off_c, 0, 52, 59
1, 167974, Note_off_c, 0, 44, 37
1, 167976, Poly_aftertouch_c, 0, 54, 127
1, 167990, Note_off_c, 0, 61, 59
1, 168004, Poly_aftertouch_c, 0, 54, 0
1, 168018, Control_c, 0, 64, 108
1, 168033, Control_c, 0, 64, 92
1, 168048, Control_c, 0, 64, 88
1, 168063, Control_c, 0, 64, 89
1, 168077, Control_c, 0, 64, 97
1, 168092, Control_c, 0, 64, 114
1, 168103, Note_on_c, 0, 34, 51
1, 168107, Control_c, 0, 64, 127
1, 168114, Note_on_c, 0, 46, 47
1, 168126, Note_off_c, 0, 32, 36
1, 168202, Note_on_c, 0, 68, 72
1, 168203, Note_off_c, 0, 34, 61
1, 168217, Note_on_c, 0, 56, 64
1, 168227, Note_off_c, 0, 68, 69
1, 168236, Note_off_c, 0, 46, 56
1, 168245, Note_off_c, 0, 56, 64
1, 168449, Control_c, 0, 64, 99
1, 168464, Control_c, 0, 64, 72
1, 168467, Note_on_c, 0, 36, 65
1, 168478, Control_c, 0, 64, 59
1, 168482, Note_on_c, 0, 56, 62
1, 168492, Note_on_c, 0, 52, 55
1, 168493, Control_c, 0, 64, 49
1, 168495, Note_on_c, 0, 48, 40
1, 168502, Note_on_c, 0, 44, 55
1, 168508, Control_c, 0, 64, 49
1, 168523, Control_c, 0, 64, 53
1, 168538, Control_c, 0, 64, 58
1, 168552, Control_c, 0, 64, 63
1, 168567, Control_c, 0, 64, 70
1, 168582, Control_c, 0, 64, 81
1, 168594, Note_off_c, 0, 56, 60
1, 168596, Note_off_c, 0, 48, 61
1, 168598, Control_c, 0, 64, 98
1, 168599, Note_off_c, 0, 52, 61
1, 168613, Control_c, 0, 64, 127
1, 168618, Note_off_c, 0, 44, 35
1, 168683, Note_on_c, 0, 56, 64
1, 168691, Note_on_c, 0, 52, 52
1, 168701, Control_c, 0, 64, 92
1, 168709, Note_on_c, 0, 44, 43
1, 168716, Control_c, 0, 64, 78
1, 168731, Control_c, 0, 64, 72
1, 168731, Control_c, 0, 67, 125
1, 168732, Note_off_c, 0, 56, 49
1, 168742, Note_off_c, 0, 44, 54
1, 168743, Note_off_c, 0, 52, 59
1, 168746, Control_c, 0, 67, 117
1, 168749, Note_on_c, 0, 49, 62
1, 168751, Note_on_c, 0, 37, 63
1, 168761, Control_c, 0, 64, 78
1, 168761, Control_c, 0, 67, 105
1, 168762, Note_off_c, 0, 36, 34
1, 168783, Control_c, 0, 64, 85
1, 168783, Control_c, 0, 67, 89
1, 168798, Control_c, 0, 64, 95
1, 168798, Control_c, 0, 67, 76
1, 168813, Control_c, 0, 64, 111
1, 168813, Control_c, 0, 67, 62
1, 168828, Control_c, 0, 64, 127
1, 168828, Control_c, 0, 67, 50
1, 168843, Control_c, 0, 67, 38
1, 168845, Note_on_c, 0, 56, 65
1, 168852, Note_on_c, 0, 52, 51
1, 168857, Control_c, 0, 67, 26
1, 168872, Control_c, 0, 67, 0
1, 168878, Note_off_c, 0, 52, 57
1, 168903, Note_off_c, 0, 49, 59
1, 168929, Note_off_c, 0, 56, 59
1, 168946, Control_c, 0, 64, 98
1, 168961, Control_c, 0, 64, 69
1, 168971, Note_off_c, 0, 37, 55
1, 168975, Control_c, 0, 64, 58
1, 168990, Control_c, 0, 64, 56
1, 168997, Note_on_c, 0, 36, 59
1, 169001, Note_on_c, 0, 57, 66
1, 169002, Note_on_c, 0, 52, 51
1, 169005, Control_c, 0, 64, 62
1, 169009, Note_on_c, 0, 48, 46
1, 169019, Control_c, 0, 64, 71
1, 169022, Note_on_c, 0, 45, 45
1, 169028, Note_on_c, 0, 56, 37
1, 169034, Control_c, 0, 64, 91
1, 169049, Control_c, 0, 64, 127
1, 169055, Note_off_c, 0, 45, 54
1, 169068, Note_off_c, 0, 48, 61
1, 169070, Note_off_c, 0, 56, 46
1, 169072, Note_off_c, 0, 52, 60
1, 169085, Note_off_c, 0, 57, 62
1, 169123, Control_c, 0, 64, 100
1, 169138, Control_c, 0, 64, 76
1, 169145, Note_on_c, 0, 57, 55
1, 169148, Note_on_c, 0, 45, 62
1, 169148, Note_on_c, 0, 52, 59
1, 169153, Control_c, 0, 64, 67
1, 169164, Note_on_c, 0, 56, 56
1, 169183, Control_c, 0, 64, 74
1, 169190, Note_off_c, 0, 45, 63
1, 169198, Control_c, 0, 64, 86
1, 169201, Note_on_c, 0, 37, 68
1, 169202, Note_off_c, 0, 56, 57
1, 169211, Note_off_c, 0, 52, 59
1, 169212, Note_on_c, 0, 49, 57
1, 169213, Control_c, 0, 64, 104
1, 169214, Note_off_c, 0, 57, 61
1, 169215, Note_off_c, 0, 36, 52
1, 169227, Control_c, 0, 64, 127
1, 169288, Note_on_c, 0, 57, 62
1, 169291, Note_on_c, 0, 56, 60
1, 169296, Note_on_c, 0, 52, 55
1, 169303, Note_on_c, 0, 45, 55
1, 169331, Note_off_c, 0, 57, 60
1, 169332, Note_off_c, 0, 37, 60
1, 169333, Note_off_c, 0, 49, 62
1, 169352, Note_off_c, 0, 45, 43
1, 169374, Note_off_c, 0, 56, 56
1, 169395, Note_off_c, 0, 52, 54
1, 169465, Control_c, 0, 64, 72
1, 169469, Note_on_c, 0, 37, 61
1, 169476, Note_on_c, 0, 49, 59
1, 169480, Control_c, 0, 64, 50
1, 169485, Note_on_c, 0, 52, 52
1, 169488, Note_on_c, 0, 58, 66
1, 169491, Note_on_c, 0, 46, 60
1, 169495, Control_c, 0, 64, 0
1, 169499, Note_on_c, 0, 56, 63
1, 169546, Control_c, 0, 64, 41
1, 169553, Note_off_c, 0, 56, 58
1, 169561, Control_c, 0, 64, 61
1, 169565, Note_off_c, 0, 46, 54
1, 169565, Note_off_c, 0, 58, 61
1, 169566, Note_off_c, 0, 52, 60
1, 169576, Control_c, 0, 64, 72
1, 169591, Control_c, 0, 64, 90
1, 169606, Control_c, 0, 64, 127
1, 169616, Note_on_c, 0, 58, 63
1, 169624, Note_on_c, 0, 52, 51
1, 169639, Note_on_c, 0, 56, 60
1, 169642, Note_off_c, 0, 37, 37
1, 169642, Note_on_c, 0, 46, 5
1, 169664, Note_off_c, 0, 49, 36
1, 169685, Note_off_c, 0, 46, 54
1, 169693, Note_off_c, 0, 56, 49
1, 169693, Note_off_c, 0, 58, 61
1, 169699, Note_off_c, 0, 52, 48
1, 169713, Note_on_c, 0, 38, 71
1, 169719, Note_on_c, 0, 50, 69
1, 169746, Note_off_c, 0, 38, 64
1, 169750, Note_on_c, 0, 49, 26
1, 169770, Note_on_c, 0, 56, 68
1, 169773, Note_off_c, 0, 50, 62
1, 169785, Note_off_c, 0, 49, 57
1, 169788, Note_on_c, 0, 58, 59
1, 169802, Note_off_c, 0, 56, 65
1, 169818, Note_off_c, 0, 58, 64
1, 170035, Control_c, 0, 64, 94
1, 170036, Note_on_c, 0, 64, 50
1, 170050, Control_c, 0, 64, 81
1, 170050, Note_on_c, 0, 58, 71
1, 170050, Note_on_c, 0, 82, 91
1, 170056, Note_on_c, 0, 70, 73
1, 170059, Note_on_c, 0, 68, 72
1, 170062, Note_on_c, 0, 80, 72
1, 170065, Control_c, 0, 64, 84
1, 170080, Control_c, 0, 64, 99
1, 170080, Note_on_c, 0, 77, 44
1, 170085, Note_on_c, 0, 76, 53
1, 170095, Control_c, 0, 64, 127
1, 170113, Note_off_c, 0, 68, 63
1, 170118, Note_off_c, 0, 77, 62
1, 170120, Note_off_c, 0, 58, 61
1, 170125, Note_off_c, 0, 70, 60
1, 170149, Note_off_c, 0, 80, 61
1, 170149, Note_off_c, 0, 82, 62
1, 170155, Note_off_c, 0, 64, 62
1, 170199, Note_off_c, 0, 76, 0
1, 170213, Note_on_c, 0, 76, 49
1, 170215, Note_on_c, 0, 82, 82
1, 170216, Note_on_c, 0, 70, 57
1, 170220, Note_on_c, 0, 64, 38
1, 170227, Note_on_c, 0, 68, 75
1, 170227, Note_on_c, 0, 80, 66
1, 170229, Note_on_c, 0, 58, 60
1, 170253, Note_off_c, 0, 70, 46
1, 170256, Note_off_c, 0, 58, 55
1, 170283, Note_off_c, 0, 68, 57
1, 170307, Note_off_c, 0, 82, 61
1, 170309, Note_off_c, 0, 80, 60
1, 170324, Note_off_c, 0, 76, 52
1, 170348, Note_off_c, 0, 64, 0
1, 170357, Note_on_c, 0, 58, 76
1, 170361, Note_on_c, 0, 76, 47
1, 170362, Note_on_c, 0, 80, 73
1, 170366, Note_on_c, 0, 82, 66
1, 170366, Note_on_c, 0, 68, 81
1, 170386, Note_off_c, 0, 58, 67
1, 170386, Poly_aftertouch_c, 0, 64, 127
1, 170387, Note_off_c, 0, 76, 60
1, 170392, Note_off_c, 0, 82, 66
1, 170393, Note_off_c, 0, 68, 66
1, 170405, Note_off_c, 0, 80, 63
1, 170417, Poly_aftertouch_c, 0, 64, 0
1, 170656, Note_on_c, 0, 70, 75
1, 170657, Note_on_c, 0, 64, 44
1, 170663, Note_on_c, 0, 38, 56
1, 170668, Note_on_c, 0, 46, 56
1, 170677, Note_on_c, 0, 56, 48
1, 170695, Control_c, 0, 64, 92
1, 170710, Control_c, 0, 64, 66
1, 170725, Control_c, 0, 64, 42
1, 170739, Control_c, 0, 64, 0
1, 170813, Control_c, 0, 64, 41
1, 170828, Control_c, 0, 64, 58
1, 170841, Note_off_c, 0, 38, 61
1, 170843, Control_c, 0, 64, 66
1, 170858, Control_c, 0, 64, 73
1, 170873, Control_c, 0, 64, 81
1, 170888, Control_c, 0, 64, 90
1, 170903, Control_c, 0, 64, 102
1, 170918, Control_c, 0, 64, 127
1, 170920, Note_on_c, 0, 68, 58
1, 170995, Note_off_c, 0, 56, 35
1, 171072, Note_on_c, 0, 58, 59
1, 171085, Note_off_c, 0, 70, 34
1, 171123, Note_off_c, 0, 58, 60
1, 171191, Note_on_c, 0, 56, 50
1, 171194, Note_off_c, 0, 46, 57
1, 171202, Note_off_c, 0, 64, 54
1, 171207, Note_off_c, 0, 68, 61
1, 171229, Note_off_c, 0, 56, 58
1, 171341, Control_c, 0, 67, 20
1, 171356, Control_c, 0, 67, 22
1, 171385, Control_c, 0, 67, 26
1, 171400, Control_c, 0, 67, 28
1, 171414, Control_c, 0, 67, 31
1, 171429, Control_c, 0, 67, 36
1, 171444, Control_c, 0, 67, 42
1, 171459, Control_c, 0, 67, 49
1, 171474, Control_c, 0, 67, 55
1, 171488, Control_c, 0, 67, 61
1, 171503, Control_c, 0, 67, 65
1, 171518, Control_c, 0, 67, 69
1, 171533, Control_c, 0, 67, 72
1, 171548, Control_c, 0, 67, 74
1, 171562, Control_c, 0, 67, 75
1, 171577, Control_c, 0, 67, 76
1, 171592, Control_c, 0, 67, 77
1, 171607, Control_c, 0, 67, 77
1, 171621, Control_c, 0, 64, 94
1, 171621, Control_c, 0, 67, 78
1, 171633, Note_on_c, 0, 37, 52
1, 171633, Note_on_c, 0, 52, 38
1, 171633, Note_on_c, 0, 58, 48
1, 171636, Note_on_c, 0, 49, 51
1, 171636, Control_c, 0, 64, 75
1, 171636, Control_c, 0, 67, 78
1, 171640, Note_on_c, 0, 46, 38
1, 171649, Note_on_c, 0, 56, 40
1, 171651, Control_c, 0, 64, 61
1, 171666, Control_c, 0, 64, 50
1, 171666, Control_c, 0, 67, 79
1, 171681, Control_c, 0, 64, 42
1, 171696, Control_c, 0, 64, 40
1, 171711, Control_c, 0, 64, 42
1, 171726, Control_c, 0, 64, 48
1, 171726, Control_c, 0, 67, 79
1, 171740, Control_c, 0, 64, 55
1, 171740, Control_c, 0, 67, 80
1, 171755, Control_c, 0, 64, 62
1, 171777, Control_c, 0, 64, 68
1, 171777, Control_c, 0, 67, 81
1, 171793, Control_c, 0, 64, 77
1, 171793, Control_c, 0, 67, 84
1, 171808, Control_c, 0, 64, 87
1, 171808, Control_c, 0, 67, 88
1, 171809, Note_off_c, 0, 58, 60
1, 171811, Note_off_c, 0, 56, 58
1, 171815, Note_off_c, 0, 52, 60
1, 171823, Note_off_c, 0, 46, 45
1, 171823, Control_c, 0, 64, 96
1, 171823, Control_c, 0, 67, 93
1, 171837, Control_c, 0, 64, 106
1, 171837, Control_c, 0, 67, 98
1, 171852, Control_c, 0, 64, 127
1, 171852, Control_c, 0, 67, 101
1, 171867, Control_c, 0, 67, 105
1, 171882, Control_c, 0, 67, 108
1, 171897, Control_c, 0, 67, 111
1, 171899, Note_on_c, 0, 58, 57
1, 171903, Note_on_c, 0, 52, 46
1, 171911, Control_c, 0, 67, 115
1, 171914, Note_on_c, 0, 56, 41
1, 171914, Note_off_c, 0, 37, 60
1, 171926, Control_c, 0, 67, 120
1, 171928, Note_off_c, 0, 49, 37
1, 171941, Control_c, 0, 67, 123
1, 171965, Note_off_c, 0, 56, 48
1, 171970, Note_on_c, 0, 50, 60
1, 171971, Control_c, 0, 67, 125
1, 171973, Note_off_c, 0, 52, 49
1, 171973, Note_off_c, 0, 58, 57
1, 171982, Note_on_c, 0, 38, 58
1, 172056, Note_on_c, 0, 58, 58
1, 172073, Note_on_c, 0, 56, 56
1, 172074, Control_c, 0, 67, 123
1, 172104, Control_c, 0, 67, 121
1, 172114, Note_off_c, 0, 38, 59
1, 172114, Note_off_c, 0, 56, 57
1, 172137, Note_off_c, 0, 50, 37
1, 172149, Control_c, 0, 67, 119
1, 172155, Note_off_c, 0, 58, 62
1, 172179, Control_c, 0, 67, 117
1, 172193, Control_c, 0, 64, 100
1, 172208, Control_c, 0, 64, 71
1, 172208, Control_c, 0, 67, 114
1, 172223, Control_c, 0, 64, 55
1, 172227, Note_on_c, 0, 59, 59
1, 172235, Note_on_c, 0, 50, 58
1, 172237, Control_c, 0, 64, 42
1, 172237, Control_c, 0, 67, 112
1, 172239, Note_on_c, 0, 38, 61
1, 172250, Note_on_c, 0, 56, 38
1, 172252, Control_c, 0, 64, 44
1, 172253, Note_on_c, 0, 54, 42
1, 172267, Control_c, 0, 64, 53
1, 172267, Control_c, 0, 67, 110
1, 172282, Control_c, 0, 64, 60
1, 172297, Control_c, 0, 64, 66
1, 172297, Control_c, 0, 67, 107
1, 172311, Control_c, 0, 64, 74
1, 172319, Note_off_c, 0, 54, 52
1, 172326, Control_c, 0, 64, 84
1, 172331, Note_off_c, 0, 59, 57
1, 172341, Control_c, 0, 64, 94
1, 172355, Note_off_c, 0, 50, 56
1, 172356, Control_c, 0, 64, 104
1, 172370, Control_c, 0, 64, 127
1, 172378, Note_off_c, 0, 56, 0
1, 172390, Note_on_c, 0, 54, 49
1, 172391, Note_on_c, 0, 56, 41
1, 172394, Note_on_c, 0, 59, 51
1, 172415, Control_c, 0, 67, 110
1, 172420, Note_on_c, 0, 47, 49
1, 172444, Control_c, 0, 67, 112
1, 172447, Note_off_c, 0, 47, 57
1, 172463, Note_off_c, 0, 38, 62
1, 172464, Note_off_c, 0, 54, 57
1, 172465, Note_off_c, 0, 56, 56
1, 172471, Note_off_c, 0, 59, 60
1, 172477, Note_on_c, 0, 51, 68
1, 172482, Note_on_c, 0, 39, 64
1, 172552, Note_on_c, 0, 59, 57
1, 172556, Control_c, 0, 67, 110
1, 172559, Note_on_c, 0, 47, 43
1, 172563, Note_on_c, 0, 54, 52
1, 172566, Note_on_c, 0, 56, 53
1, 172602, Control_c, 0, 67, 108
1, 172603, Note_off_c, 0, 47, 50
1, 172623, Note_off_c, 0, 51, 61
1, 172631, Control_c, 0, 67, 104
1, 172635, Note_off_c, 0, 59, 62
1, 172646, Control_c, 0, 67, 96
1, 172656, Note_off_c, 0, 54, 55
1, 172660, Control_c, 0, 67, 83
1, 172675, Control_c, 0, 64, 102
1, 172675, Control_c, 0, 67, 65
1, 172690, Control_c, 0, 64, 71
1, 172690, Control_c, 0, 67, 44
1, 172696, Note_off_c, 0, 39, 50
1, 172699, Note_off_c, 0, 56, 0
1, 172705, Control_c, 0, 64, 57
1, 172705, Control_c, 0, 67, 24
1, 172714, Note_on_c, 0, 38, 64
1, 172720, Control_c, 0, 64, 51
1, 172720, Control_c, 0, 67, 0
1, 172724, Note_on_c, 0, 60, 70
1, 172724, Note_on_c, 0, 56, 27
1, 172727, Note_on_c, 0, 50, 58
1, 172727, Note_on_c, 0, 54, 33
1, 172734, Control_c, 0, 64, 56
1, 172739, Note_on_c, 0, 48, 49
1, 172749, Control_c, 0, 64, 64
1, 172764, Control_c, 0, 64, 70
1, 172778, Note_off_c, 0, 48, 64
1, 172779, Control_c, 0, 64, 82
1, 172793, Control_c, 0, 64, 100
1, 172800, Note_off_c, 0, 60, 62
1, 172805, Note_off_c, 0, 54, 58
1, 172808, Control_c, 0, 64, 127
1, 172813, Note_off_c, 0, 50, 61
1, 172860, Note_off_c, 0, 56, 0
1, 172872, Note_on_c, 0, 56, 47
1, 172877, Note_on_c, 0, 54, 50
1, 172881, Note_on_c, 0, 60, 64
1, 172883, Note_on_c, 0, 48, 58
1, 172924, Note_off_c, 0, 48, 64
1, 172926, Note_off_c, 0, 38, 62
1, 172930, Note_on_c, 0, 39, 67
1, 172935, Note_on_c, 0, 51, 63
1, 172936, Note_off_c, 0, 60, 62
1, 172951, Note_off_c, 0, 54, 57
1, 172956, Note_off_c, 0, 56, 56
1, 173013, Note_on_c, 0, 56, 51
1, 173019, Note_on_c, 0, 54, 45
1, 173025, Note_on_c, 0, 60, 66
1, 173026, Note_on_c, 0, 48, 57
1, 173031, Note_off_c, 0, 39, 59
1, 173043, Note_off_c, 0, 51, 60
1, 173055, Note_off_c, 0, 48, 64
1, 173058, Note_off_c, 0, 60, 60
1, 173073, Note_off_c, 0, 54, 56
1, 173097, Note_off_c, 0, 56, 55
1, 173180, Control_c, 0, 64, 77
1, 173188, Note_on_c, 0, 51, 62
1, 173190, Note_on_c, 0, 39, 66
1, 173194, Control_c, 0, 64, 55
1, 173195, Note_on_c, 0, 49, 72
1, 173195, Note_on_c, 0, 61, 77
1, 173204, Note_on_c, 0, 57, 56
1, 173209, Control_c, 0, 64, 0
1, 173254, Control_c, 0, 64, 47
1, 173268, Note_off_c, 0, 61, 60
1, 173276, Control_c, 0, 64, 60
1, 173285, Note_off_c, 0, 57, 61
1, 173290, Control_c, 0, 64, 69
1, 173305, Control_c, 0, 64, 80
1, 173314, Note_off_c, 0, 49, 0
1, 173320, Control_c, 0, 64, 93
1, 173335, Note_on_c, 0, 49, 29
1, 173335, Control_c, 0, 64, 107
1, 173336, Note_off_c, 0, 39, 60
1, 173338, Note_on_c, 0, 61, 71
1, 173339, Note_off_c, 0, 51, 54
1, 173350, Control_c, 0, 64, 127
1, 173355, Note_on_c, 0, 57, 42
1, 173385, Note_off_c, 0, 49, 52
1, 173413, Note_off_c, 0, 61, 60
1, 173419, Note_on_c, 0, 40, 73
1, 173422, Note_on_c, 0, 52, 66
1, 173436, Note_off_c, 0, 57, 55
1, 173452, Note_off_c, 0, 40, 64
1, 173488, Note_off_c, 0, 52, 60
1, 173492, Note_on_c, 0, 61, 75
1, 173531, Note_off_c, 0, 61, 60
1, 173740, Poly_aftertouch_c, 0, 68, 127
1, 173766, Control_c, 0, 64, 92
1, 173778, Poly_aftertouch_c, 0, 68, 0
1, 173781, Control_c, 0, 64, 70
1, 173792, Note_on_c, 0, 85, 87
1, 173796, Control_c, 0, 64, 62
1, 173797, Note_on_c, 0, 69, 58
1, 173802, Note_on_c, 0, 76, 74
1, 173802, Note_on_c, 0, 81, 78
1, 173803, Note_on_c, 0, 61, 62
1, 173806, Note_on_c, 0, 73, 82
1, 173810, Note_on_c, 0, 64, 60
1, 173810, Control_c, 0, 64, 64
1, 173825, Control_c, 0, 64, 72
1, 173840, Control_c, 0, 64, 85
1, 173855, Control_c, 0, 64, 127
1, 173868, Note_off_c, 0, 76, 59
1, 173874, Note_off_c, 0, 73, 60
1, 173887, Note_off_c, 0, 61, 57
1, 173895, Note_off_c, 0, 64, 58
1, 173902, Note_off_c, 0, 69, 60
1, 173905, Note_off_c, 0, 85, 62
1, 173917, Note_off_c, 0, 81, 59
1, 173972, Note_on_c, 0, 85, 91
1, 173976, Note_on_c, 0, 76, 73
1, 173982, Note_on_c, 0, 73, 85
1, 173985, Note_on_c, 0, 61, 56
1, 173985, Note_on_c, 0, 64, 58
1, 173986, Note_on_c, 0, 81, 63
1, 173989, Note_on_c, 0, 69, 54
1, 174025, Note_off_c, 0, 61, 59
1, 174034, Note_off_c, 0, 76, 53
1, 174042, Note_off_c, 0, 73, 61
1, 174059, Note_off_c, 0, 69, 58
1, 174060, Note_off_c, 0, 85, 63
1, 174068, Note_off_c, 0, 64, 49
1, 174071, Note_off_c, 0, 81, 61
1, 174123, Note_on_c, 0, 85, 79
1, 174124, Note_on_c, 0, 64, 22
1, 174125, Note_on_c, 0, 73, 83
1, 174127, Note_on_c, 0, 81, 60
1, 174128, Note_on_c, 0, 61, 75
1, 174142, Note_off_c, 0, 85, 73
1, 174145, Note_off_c, 0, 81, 63
1, 174150, Note_off_c, 0, 64, 59
1, 174154, Note_off_c, 0, 73, 60
1, 174167, Note_off_c, 0, 61, 59
1, 174428, Note_on_c, 0, 71, 80
1, 174435, Note_on_c, 0, 40, 54
1, 174444, Note_on_c, 0, 57, 53
1, 174454, Note_on_c, 0, 64, 39
1, 174462, Note_on_c, 0, 49, 46
1, 174470, Control_c, 0, 64, 92
1, 174485, Control_c, 0, 64, 67
1, 174500, Control_c, 0, 64, 47
1, 174514, Control_c, 0, 64, 0
1, 174519, Note_off_c, 0, 49, 0
1, 174519, Note_on_c, 0, 49, 12
1, 174541, Note_off_c, 0, 64, 0
1, 174541, Note_on_c, 0, 64, 15
1, 174588, Control_c, 0, 64, 45
1, 174603, Control_c, 0, 64, 61
1, 174618, Control_c, 0, 64, 69
1, 174626, Note_off_c, 0, 40, 60
1, 174632, Control_c, 0, 64, 78
1, 174647, Control_c, 0, 64, 95
1, 174662, Control_c, 0, 64, 127
1, 174725, Note_on_c, 0, 69, 59
1, 174767, Note_off_c, 0, 71, 57
1, 174776, Note_off_c, 0, 57, 43
1, 174876, Note_on_c, 0, 61, 52
1, 174919, Note_off_c, 0, 61, 56
1, 174975, Note_off_c, 0, 69, 54
1, 174990, Note_on_c, 0, 57, 40
1, 175004, Note_off_c, 0, 64, 51
1, 175021, Note_off_c, 0, 49, 45
1, 175025, Note_off_c, 0, 57, 50
1, 175100, Control_c, 0, 67, 19
1, 175145, Control_c, 0, 67, 22
1, 175174, Control_c, 0, 67, 25
1, 175189, Control_c, 0, 67, 28
1, 175219, Control_c, 0, 67, 31
1, 175234, Control_c, 0, 67, 32
1, 175249, Control_c, 0, 67, 33
1, 175263, Control_c, 0, 67, 34
1, 175278, Control_c, 0, 67, 34
1, 175293, Control_c, 0, 67, 35
1, 175308, Control_c, 0, 67, 36
1, 175323, Control_c, 0, 67, 37
1, 175337, Control_c, 0, 67, 40
1, 175352, Control_c, 0, 67, 42
1, 175367, Control_c, 0, 67, 44
1, 175381, Control_c, 0, 67, 45
1, 175411, Control_c, 0, 67, 45
1, 175426, Control_c, 0, 64, 98
1, 175426, Control_c, 0, 67, 46
1, 175430, Note_on_c, 0, 52, 41
1, 175435, Note_on_c, 0, 40, 43
1, 175441, Control_c, 0, 64, 69
1, 175443, Note_on_c, 0, 56, 37
1, 175446, Note_on_c, 0, 50, 41
1, 175449, Note_on_c, 0, 62, 49
1, 175455, Control_c, 0, 64, 53
1, 175470, Control_c, 0, 64, 33
1, 175485, Control_c, 0, 64, 0
1, 175500, Control_c, 0, 67, 46
1, 175523, Control_c, 0, 64, 29
1, 175537, Control_c, 0, 64, 41
1, 175537, Control_c, 0, 67, 47
1, 175552, Control_c, 0, 64, 55
1, 175567, Control_c, 0, 64, 64
1, 175567, Control_c, 0, 67, 48
1, 175581, Control_c, 0, 64, 74
1, 175581, Control_c, 0, 67, 50
1, 175596, Control_c, 0, 64, 89
1, 175596, Control_c, 0, 67, 53
1, 175611, Control_c, 0, 64, 127
1, 175611, Control_c, 0, 67, 54
1, 175613, Note_off_c, 0, 52, 58
1, 175655, Control_c, 0, 67, 54
1, 175679, Note_off_c, 0, 50, 54
1, 175690, Note_off_c, 0, 40, 56
1, 175700, Note_off_c, 0, 56, 57
1, 175700, Note_off_c, 0, 62, 55
1, 175798, Note_on_c, 0, 62, 46
1, 175805, Note_on_c, 0, 56, 43
1, 175811, Note_on_c, 0, 50, 39
1, 175848, Note_off_c, 0, 56, 49
1, 175849, Control_c, 0, 67, 54
1, 175851, Note_off_c, 0, 50, 49
1, 175860, Note_off_c, 0, 62, 48
1, 175872, Note_on_c, 0, 47, 49
1, 175880, Note_on_c, 0, 35, 55
1, 175909, Control_c, 0, 67, 53
1, 175939, Control_c, 0, 67, 53
1, 175954, Control_c, 0, 64, 125
1, 175954, Control_c, 0, 67, 52
1, 175968, Note_on_c, 0, 50, 41
1, 175968, Control_c, 0, 64, 95
1, 175976, Note_on_c, 0, 56, 37
1, 175980, Note_on_c, 0, 62, 52
1, 175983, Control_c, 0, 64, 89
1, 175995, Note_off_c, 0, 47, 59
1, 175998, Control_c, 0, 64, 90
1, 175998, Control_c, 0, 67, 52
1, 176006, Note_off_c, 0, 62, 60
1, 176007, Note_off_c, 0, 50, 43
1, 176012, Control_c, 0, 64, 93
1, 176014, Note_off_c, 0, 56, 49
1, 176027, Control_c, 0, 64, 105
1, 176042, Control_c, 0, 64, 127
1, 176087, Control_c, 0, 67, 52
1, 176146, Control_c, 0, 64, 90
1, 176161, Control_c, 0, 64, 69
1, 176165, Note_off_c, 0, 35, 50
1, 176176, Control_c, 0, 64, 57
1, 176176, Control_c, 0, 67, 52
1, 176177, Note_on_c, 0, 34, 54
1, 176189, Poly_aftertouch_c, 0, 61, 127
1, 176190, Note_on_c, 0, 46, 44
1, 176191, Control_c, 0, 64, 52
1, 176192, Note_on_c, 0, 68, 63
1, 176205, Control_c, 0, 64, 55
1, 176212, Note_on_c, 0, 56, 46
1, 176220, Control_c, 0, 64, 61
1, 176223, Note_on_c, 0, 62, 44
1, 176227, Note_off_c, 0, 46, 61
1, 176235, Control_c, 0, 64, 66
1, 176250, Control_c, 0, 64, 77
1, 176272, Control_c, 0, 64, 91
1, 176286, Control_c, 0, 64, 114
1, 176301, Control_c, 0, 64, 127
1, 176303, Poly_aftertouch_c, 0, 61, 0
1, 176307, Note_off_c, 0, 56, 55
1, 176317, Note_off_c, 0, 68, 60
1, 176318, Note_off_c, 0, 62, 57
1, 176347, Note_off_c, 0, 34, 61
1, 176390, Note_on_c, 0, 68, 64
1, 176409, Note_on_c, 0, 62, 47
1, 176411, Note_on_c, 0, 56, 50
1, 176420, Control_c, 0, 67, 51
1, 176448, Note_off_c, 0, 56, 59
1, 176450, Control_c, 0, 67, 51
1, 176456, Note_off_c, 0, 68, 61
1, 176460, Note_on_c, 0, 40, 63
1, 176462, Note_off_c, 0, 62, 49
1, 176465, Control_c, 0, 64, 110
1, 176465, Control_c, 0, 67, 50
1, 176472, Note_on_c, 0, 28, 47
1, 176479, Control_c, 0, 64, 83
1, 176479, Control_c, 0, 67, 50
1, 176483, Note_on_c, 0, 29, 50
1, 176494, Control_c, 0, 64, 73
1, 176509, Control_c, 0, 64, 71
1, 176521, Note_off_c, 0, 29, 48
1, 176524, Control_c, 0, 64, 74
1, 176538, Control_c, 0, 64, 82
1, 176551, Note_on_c, 0, 56, 57
1, 176553, Control_c, 0, 64, 97
1, 176557, Note_on_c, 0, 68, 66
1, 176564, Note_on_c, 0, 62, 55
1, 176568, Control_c, 0, 64, 127
1, 176588, Note_off_c, 0, 40, 58
1, 176593, Note_off_c, 0, 56, 58
1, 176613, Note_off_c, 0, 62, 55
1, 176664, Note_off_c, 0, 68, 58
1, 176665, Note_off_c, 0, 28, 57
1, 176703, Control_c, 0, 64, 104
1, 176716, Note_on_c, 0, 27, 73
1, 176717, Control_c, 0, 64, 74
1, 176719, Note_on_c, 0, 39, 65
1, 176732, Control_c, 0, 64, 59
1, 176732, Control_c, 0, 67, 49
1, 176733, Note_on_c, 0, 67, 62
1, 176741, Note_on_c, 0, 55, 55
1, 176742, Note_on_c, 0, 63, 56
1, 176747, Control_c, 0, 64, 54
1, 176761, Control_c, 0, 64, 58
1, 176776, Control_c, 0, 64, 64
1, 176785, Note_off_c, 0, 55, 60
1, 176791, Control_c, 0, 64, 73
1, 176802, Note_off_c, 0, 39, 60
1, 176806, Control_c, 0, 64, 83
1, 176815, Note_off_c, 0, 67, 62
1, 176820, Note_off_c, 0, 63, 58
1, 176821, Control_c, 0, 64, 127
1, 176876, Note_off_c, 0, 27, 61
1, 176880, Control_c, 0, 67, 49
1, 176893, Note_on_c, 0, 63, 53
1, 176895, Note_on_c, 0, 67, 60
1, 176903, Note_on_c, 0, 55, 58
1, 176909, Control_c, 0, 64, 108
1, 176924, Control_c, 0, 64, 80
1, 176932, Note_off_c, 0, 55, 57
1, 176939, Control_c, 0, 64, 68
1, 176945, Note_on_c, 0, 22, 71
1, 176946, Note_off_c, 0, 67, 58
1, 176950, Note_on_c, 0, 34, 60
1, 176950, Note_off_c, 0, 63, 57
1, 176954, Control_c, 0, 64, 68
1, 176969, Control_c, 0, 64, 73
1, 176974, Note_off_c, 0, 22, 61
1, 176981, Note_off_c, 0, 34, 65
1, 176984, Control_c, 0, 64, 84
1, 176999, Control_c, 0, 64, 105
1, 177021, Control_c, 0, 64, 127
1, 177058, Note_on_c, 0, 63, 60
1, 177059, Note_on_c, 0, 55, 50
1, 177065, Note_on_c, 0, 67, 56
1, 177079, Note_off_c, 0, 55, 63
1, 177085, Note_off_c, 0, 67, 66
1, 177198, Control_c, 0, 64, 102
1, 177208, Note_on_c, 0, 52, 74
1, 177209, Note_off_c, 0, 63, 37
1, 177213, Note_on_c, 0, 40, 67
1, 177213, Control_c, 0, 64, 72
1, 177213, Control_c, 0, 67, 48
1, 177228, Control_c, 0, 64, 56
1, 177228, Control_c, 0, 67, 48
1, 177243, Control_c, 0, 64, 45
1, 177243, Note_on_c, 0, 68, 67
1, 177249, Note_on_c, 0, 62, 53
1, 177258, Control_c, 0, 64, 48
1, 177266, Note_on_c, 0, 56, 48
1, 177273, Control_c, 0, 64, 56
1, 177288, Control_c, 0, 64, 63
1, 177303, Control_c, 0, 64, 72
1, 177317, Control_c, 0, 64, 92
1, 177318, Note_off_c, 0, 56, 56
1, 177326, Note_off_c, 0, 68, 58
1, 177332, Control_c, 0, 64, 127
1, 177339, Note_off_c, 0, 52, 59
1, 177345, Note_off_c, 0, 62, 59
1, 177365, Note_off_c, 0, 40, 61
1, 177377, Control_c, 0, 67, 47
1, 177392, Control_c, 0, 64, 118
1, 177392, Control_c, 0, 67, 47
1, 177407, Control_c, 0, 64, 86
1, 177407, Control_c, 0, 67, 46
1, 177419, Note_on_c, 0, 68, 68
1, 177422, Control_c, 0, 64, 74
1, 177422, Control_c, 0, 67, 46
1, 177422, Note_on_c, 0, 56, 56
1, 177428, Note_on_c, 0, 62, 48
1, 177437, Control_c, 0, 64, 72
1, 177451, Control_c, 0, 64, 77
1, 177461, Note_off_c, 0, 56, 47
1, 177466, Control_c, 0, 64, 85
1, 177468, Note_off_c, 0, 62, 60
1, 177471, Note_off_c, 0, 68, 54
1, 177481, Control_c, 0, 64, 102
1, 177481, Control_c, 0, 67, 45
1, 177484, Note_on_c, 0, 47, 73
1, 177488, Note_on_c, 0, 35, 76
1, 177496, Control_c, 0, 64, 127
1, 177496, Control_c, 0, 67, 45
1, 177558, Note_on_c, 0, 68, 63
1, 177567, Note_on_c, 0, 56, 43
1, 177581, Note_off_c, 0, 47, 62
1, 177590, Note_off_c, 0, 56, 57
1, 177591, Note_on_c, 0, 62, 16
1, 177599, Note_off_c, 0, 68, 56
1, 177630, Note_off_c, 0, 62, 48
1, 177644, Control_c, 0, 64, 76
1, 177658, Control_c, 0, 64, 62
1, 177658, Control_c, 0, 67, 44
1, 177665, Note_off_c, 0, 35, 56
1, 177673, Control_c, 0, 64, 55
1, 177688, Control_c, 0, 64, 57
1, 177701, Note_on_c, 0, 46, 74
1, 177702, Control_c, 0, 64, 63
1, 177705, Note_on_c, 0, 34, 69
1, 177711, Note_on_c, 0, 74, 75
1, 177713, Note_on_c, 0, 62, 67
1, 177717, Control_c, 0, 64, 69
1, 177722, Note_on_c, 0, 68, 58
1, 177732, Control_c, 0, 64, 83
1, 177747, Control_c, 0, 64, 108
1, 177770, Control_c, 0, 64, 127
1, 177771, Note_off_c, 0, 46, 63
1, 177772, Note_off_c, 0, 62, 55
1, 177774, Note_off_c, 0, 68, 55
1, 177789, Note_off_c, 0, 74, 60
1, 177820, Note_off_c, 0, 34, 60
1, 177854, Note_on_c, 0, 74, 66
1, 177858, Control_c, 0, 64, 93
1, 177859, Note_on_c, 0, 68, 66
1, 177862, Note_on_c, 0, 62, 65
1, 177873, Control_c, 0, 64, 80
1, 177888, Control_c, 0, 64, 78
1, 177888, Control_c, 0, 67, 44
1, 177903, Control_c, 0, 64, 81
1, 177912, Note_off_c, 0, 62, 60
1, 177914, Note_off_c, 0, 74, 61
1, 177917, Control_c, 0, 64, 93
1, 177919, Note_off_c, 0, 68, 59
1, 177922, Note_on_c, 0, 40, 71
1, 177924, Note_on_c, 0, 28, 77
1, 177932, Control_c, 0, 64, 127
1, 177932, Control_c, 0, 67, 43
1, 177977, Control_c, 0, 67, 42
1, 177991, Note_on_c, 0, 68, 75
1, 177996, Note_on_c, 0, 74, 71
1, 178000, Note_on_c, 0, 62, 65
1, 178031, Note_off_c, 0, 74, 57
1, 178033, Note_off_c, 0, 40, 58
1, 178036, Note_off_c, 0, 62, 63
1, 178096, Note_off_c, 0, 68, 56
1, 178096, Control_c, 0, 64, 86
1, 178100, Note_off_c, 0, 28, 60
1, 178110, Control_c, 0, 64, 64
1, 178125, Control_c, 0, 64, 47
1, 178139, Note_on_c, 0, 39, 75
1, 178139, Control_c, 0, 64, 36
1, 178143, Note_on_c, 0, 27, 77
1, 178154, Note_on_c, 0, 67, 70
1, 178154, Control_c, 0, 64, 40
1, 178156, Note_on_c, 0, 75, 75
1, 178166, Note_on_c, 0, 63, 59
1, 178169, Control_c, 0, 64, 52
1, 178185, Control_c, 0, 64, 62
1, 178200, Control_c, 0, 64, 72
1, 178200, Control_c, 0, 67, 43
1, 178207, Note_off_c, 0, 63, 60
1, 178214, Control_c, 0, 64, 90
1, 178228, Note_off_c, 0, 75, 57
1, 178229, Note_off_c, 0, 67, 56
1, 178229, Control_c, 0, 64, 102
1, 178235, Note_off_c, 0, 39, 61
1, 178244, Control_c, 0, 64, 89
1, 178259, Control_c, 0, 64, 75
1, 178273, Control_c, 0, 64, 66
1, 178288, Control_c, 0, 64, 64
1, 178290, Note_on_c, 0, 75, 63
1, 178295, Note_on_c, 0, 67, 46
1, 178299, Note_off_c, 0, 27, 63
1, 178303, Note_on_c, 0, 63, 55
1, 178303, Control_c, 0, 64, 66
1, 178318, Control_c, 0, 64, 72
1, 178333, Control_c, 0, 64, 85
1, 178343, Note_off_c, 0, 63, 62
1, 178347, Control_c, 0, 64, 107
1, 178357, Note_off_c, 0, 75, 60
1, 178358, Note_off_c, 0, 67, 48
1, 178361, Note_on_c, 0, 22, 76
1, 178362, Control_c, 0, 64, 127
1, 178365, Note_on_c, 0, 34, 75
1, 178389, Note_off_c, 0, 22, 62
1, 178394, Note_off_c, 0, 34, 65
1, 178433, Note_on_c, 0, 75, 67
1, 178441, Note_on_c, 0, 67, 58
1, 178442, Note_on_c, 0, 63, 59
1, 178510, Note_off_c, 0, 67, 46
1, 178514, Note_off_c, 0, 63, 59
1, 178547, Control_c, 0, 64, 102
1, 178547, Control_c, 0, 67, 42
1, 178554, Note_off_c, 0, 75, 59
1, 178562, Control_c, 0, 64, 71
1, 178562, Control_c, 0, 67, 41
1, 178577, Control_c, 0, 64, 56
1, 178591, Note_on_c, 0, 52, 81
1, 178592, Control_c, 0, 64, 51
1, 178592, Control_c, 0, 67, 41
1, 178596, Note_on_c, 0, 40, 73
1, 178606, Control_c, 0, 64, 57
1, 178619, Note_on_c, 0, 68, 70
1, 178621, Control_c, 0, 64, 64
1, 178622, Note_on_c, 0, 74, 69
1, 178629, Note_on_c, 0, 62, 64
1, 178636, Control_c, 0, 64, 73
1, 178651, Control_c, 0, 64, 86
1, 178666, Control_c, 0, 64, 105
1, 178678, Note_off_c, 0, 62, 55
1, 178680, Note_off_c, 0, 52, 58
1, 178680, Control_c, 0, 64, 127
1, 178680, Control_c, 0, 67, 40
1, 178686, Note_off_c, 0, 74, 61
1, 178689, Note_off_c, 0, 40, 61
1, 178690, Note_off_c, 0, 68, 60
1, 178695, Control_c, 0, 67, 40
1, 178710, Control_c, 0, 67, 39
1, 178725, Control_c, 0, 67, 38
1, 178764, Note_on_c, 0, 68, 70
1, 178775, Note_on_c, 0, 74, 68
1, 178781, Note_on_c, 0, 62, 65
1, 178784, Control_c, 0, 67, 38
1, 178799, Control_c, 0, 67, 37
1, 178810, Note_off_c, 0, 74, 56
1, 178812, Note_off_c, 0, 62, 63
1, 178814, Note_on_c, 0, 47, 79
1, 178814, Control_c, 0, 67, 36
1, 178815, Note_on_c, 0, 35, 84
1, 178820, Note_off_c, 0, 68, 62
1, 178829, Control_c, 0, 67, 33
1, 178844, Control_c, 0, 67, 31
1, 178859, Control_c, 0, 67, 29
1, 178883, Note_on_c, 0, 68, 76
1, 178901, Note_on_c, 0, 74, 72
1, 178903, Control_c, 0, 67, 27
1, 178904, Note_off_c, 0, 47, 60
1, 178906, Note_on_c, 0, 62, 64
1, 178922, Note_off_c, 0, 74, 65
1, 178927, Note_off_c, 0, 62, 64
1, 178942, Note_off_c, 0, 35, 60
1, 178983, Note_off_c, 0, 68, 57
1, 178993, Control_c, 0, 64, 93
1, 179008, Control_c, 0, 64, 66
1, 179022, Note_on_c, 0, 46, 89
1, 179023, Control_c, 0, 64, 44
1, 179026, Note_on_c, 0, 34, 82
1, 179037, Control_c, 0, 64, 36
1, 179044, Note_on_c, 0, 67, 68
1, 179047, Note_on_c, 0, 75, 77
1, 179052, Control_c, 0, 64, 43
1, 179055, Note_on_c, 0, 63, 70
1, 179067, Control_c, 0, 64, 55
1, 179082, Control_c, 0, 64, 63
1, 179097, Control_c, 0, 64, 71
1, 179097, Note_off_c, 0, 46, 64
1, 179098, Note_off_c, 0, 63, 58
1, 179111, Control_c, 0, 64, 84
1, 179112, Note_off_c, 0, 67, 60
1, 179118, Note_off_c, 0, 75, 60
1, 179126, Control_c, 0, 64, 107
1, 179132, Note_off_c, 0, 34, 63
1, 179141, Control_c, 0, 64, 127
1, 179178, Note_on_c, 0, 75, 68
1, 179192, Note_on_c, 0, 63, 58
1, 179192, Note_on_c, 0, 67, 54
1, 179228, Note_off_c, 0, 67, 48
1, 179230, Note_off_c, 0, 63, 61
1, 179234, Note_on_c, 0, 27, 86
1, 179238, Note_on_c, 0, 39, 87
1, 179253, Note_off_c, 0, 75, 60
1, 179273, Note_off_c, 0, 27, 67
1, 179275, Note_off_c, 0, 39, 66
1, 179326, Note_on_c, 0, 75, 70
1, 179330, Note_on_c, 0, 67, 68
1, 179333, Note_on_c, 0, 63, 60
1, 179421, Note_off_c, 0, 63, 60
1, 179428, Note_off_c, 0, 67, 49
1, 179459, Control_c, 0, 64, 96
1, 179473, Control_c, 0, 64, 67
1, 179476, Note_off_c, 0, 75, 40
1, 179488, Control_c, 0, 64, 48
1, 179491, Note_on_c, 0, 59, 83
1, 179497, Note_on_c, 0, 47, 84
1, 179503, Control_c, 0, 64, 29
1, 179521, Note_on_c, 0, 68, 72
1, 179521, Note_on_c, 0, 74, 77
1, 179531, Note_on_c, 0, 62, 68
1, 179533, Control_c, 0, 64, 45
1, 179548, Control_c, 0, 64, 58
1, 179556, Note_off_c, 0, 59, 62
1, 179562, Control_c, 0, 64, 66
1, 179576, Note_off_c, 0, 47, 60
1, 179577, Control_c, 0, 64, 76
1, 179587, Note_off_c, 0, 62, 56
1, 179592, Control_c, 0, 64, 90
1, 179604, Note_off_c, 0, 74, 59
1, 179607, Control_c, 0, 64, 110
1, 179610, Note_off_c, 0, 68, 58
1, 179622, Control_c, 0, 64, 127
1, 179677, Note_on_c, 0, 74, 77
1, 179682, Note_on_c, 0, 68, 69
1, 179685, Note_on_c, 0, 62, 74
1, 179711, Note_on_c, 0, 52, 86
1, 179713, Note_on_c, 0, 40, 85
1, 179716, Note_off_c, 0, 68, 56
1, 179720, Note_off_c, 0, 62, 59
1, 179732, Note_off_c, 0, 74, 62
1, 179741, Control_c, 0, 67, 25
1, 179768, Note_off_c, 0, 40, 60
1, 179770, Note_off_c, 0, 52, 61
1, 179800, Note_on_c, 0, 68, 83
1, 179800, Note_on_c, 0, 74, 72
1, 179809, Note_on_c, 0, 62, 74
1, 179844, Note_off_c, 0, 62, 65
1, 179845, Control_c, 0, 67, 23
1, 179849, Note_off_c, 0, 74, 59
1, 179911, Note_off_c, 0, 68, 55
1, 179934, Control_c, 0, 64, 82
1, 179949, Control_c, 0, 64, 58
1, 179950, Note_on_c, 0, 39, 82
1, 179953, Note_on_c, 0, 51, 89
1, 179964, Control_c, 0, 64, 0
1, 179970, Note_on_c, 0, 67, 74
1, 179971, Note_on_c, 0, 75, 79
1, 179977, Note_on_c, 0, 63, 75
1, 180015, Note_off_c, 0, 39, 63
1, 180015, Control_c, 0, 64, 31
1, 180030, Control_c, 0, 64, 55
1, 180034, Note_off_c, 0, 51, 58
1, 180045, Control_c, 0, 64, 67
1, 180060, Control_c, 0, 64, 77
1, 180069, Note_off_c, 0, 63, 58
1, 180075, Control_c, 0, 64, 90
1, 180078, Note_off_c, 0, 75, 61
1, 180079, Note_off_c, 0, 67, 61
1, 180090, Control_c, 0, 64, 99
1, 180104, Control_c, 0, 64, 106
1, 180119, Control_c, 0, 64, 115
1, 180132, Note_on_c, 0, 75, 73
1, 180134, Control_c, 0, 64, 125
1, 180138, Note_on_c, 0, 67, 65
1, 180139, Note_on_c, 0, 63, 69
1, 180149, Control_c, 0, 64, 127
1, 180183, Note_on_c, 0, 58, 86
1, 180191, Note_on_c, 0, 46, 78
1, 180199, Note_off_c, 0, 63, 55
1, 180201, Note_off_c, 0, 67, 57
1, 180211, Note_off_c, 0, 75, 60
1, 180241, Note_off_c, 0, 58, 63
1, 180257, Note_off_c, 0, 46, 61
1, 180265, Note_on_c, 0, 75, 72
1, 180271, Note_on_c, 0, 67, 68
1, 180273, Note_on_c, 0, 63, 66
1, 180349, Note_off_c, 0, 63, 57
1, 180358, Note_off_c, 0, 67, 60
1, 180365, Note_off_c, 0, 75, 61
1, 180385, Control_c, 0, 64, 84
1, 180400, Control_c, 0, 64, 70
1, 180407, Note_on_c, 0, 51, 81
1, 180408, Note_on_c, 0, 39, 85
1, 180415, Control_c, 0, 64, 65
1, 180426, Note_on_c, 0, 75, 73
1, 180430, Control_c, 0, 64, 66
1, 180433, Note_on_c, 0, 67, 71
1, 180442, Note_on_c, 0, 63, 69
1, 180445, Control_c, 0, 64, 71
1, 180460, Control_c, 0, 64, 76
1, 180460, Note_off_c, 0, 51, 63
1, 180468, Note_off_c, 0, 39, 62
1, 180474, Control_c, 0, 64, 84
1, 180483, Note_off_c, 0, 63, 55
1, 180489, Control_c, 0, 64, 94
1, 180502, Note_off_c, 0, 67, 60
1, 180504, Control_c, 0, 64, 105
1, 180504, Control_c, 0, 67, 21
1, 180513, Note_off_c, 0, 75, 60
1, 180519, Control_c, 0, 64, 110
1, 180564, Note_on_c, 0, 75, 73
1, 180577, Note_on_c, 0, 67, 66
1, 180581, Note_on_c, 0, 63, 72
1, 180632, Note_off_c, 0, 63, 50
1, 180645, Note_on_c, 0, 46, 82
1, 180649, Note_off_c, 0, 67, 57
1, 180652, Note_on_c, 0, 34, 72
1, 180656, Note_off_c, 0, 75, 59
1, 180688, Note_off_c, 0, 46, 62
1, 180691, Note_off_c, 0, 34, 62
1, 180731, Note_on_c, 0, 75, 78
1, 180742, Note_on_c, 0, 67, 69
1, 180743, Note_on_c, 0, 63, 73
1, 180764, Control_c, 0, 64, 112
1, 180779, Control_c, 0, 64, 116
1, 180794, Control_c, 0, 64, 127
1, 180859, Note_off_c, 0, 63, 54
1, 180877, Note_off_c, 0, 75, 59
1, 180894, Note_off_c, 0, 67, 59
1, 180942, Control_c, 0, 64, 76
1, 180957, Control_c, 0, 64, 56
1, 180960, Note_on_c, 0, 39, 87
1, 180961, Note_on_c, 0, 27, 87
1, 180967, Note_on_c, 0, 75, 91
1, 180972, Control_c, 0, 64, 34
1, 180973, Note_on_c, 0, 63, 81
1, 180974, Note_on_c, 0, 67, 75
1, 180987, Control_c, 0, 64, 35
1, 180987, Control_c, 0, 67, 23
1, 180993, Note_off_c, 0, 27, 68
1, 180996, Note_off_c, 0, 39, 61
1, 181001, Control_c, 0, 64, 52
1, 181016, Control_c, 0, 64, 65
1, 181031, Control_c, 0, 64, 80
1, 181031, Control_c, 0, 67, 25
1, 181046, Control_c, 0, 64, 127
1, 181084, Note_off_c, 0, 63, 61
1, 181095, Note_off_c, 0, 75, 62
1, 181099, Note_off_c, 0, 67, 63
1, 181105, Control_c, 0, 67, 22
1, 181134, Control_c, 0, 67, 20
1, 181136, Poly_aftertouch_c, 0, 67, 0
1, 181138, Note_on_c, 0, 75, 73
1, 181145, Note_on_c, 0, 67, 66
1, 181149, Note_on_c, 0, 63, 72
1, 181149, Control_c, 0, 67, 0
1, 181205, Note_off_c, 0, 63, 60
1, 181205, Note_off_c, 0, 75, 64
1, 181222, Note_off_c, 0, 67, 62
1, 181528, Control_c, 0, 64, 90
1, 181543, Control_c, 0, 64, 73
1, 181557, Control_c, 0, 64, 62
1, 181572, Control_c, 0, 64, 51
1, 181587, Control_c, 0, 64, 35
1, 181602, Control_c, 0, 64, 0
1, 181718, Note_on_c, 0, 44, 89
1, 181721, Note_on_c, 0, 32, 80
1, 181725, Note_on_c, 0, 56, 78
1, 181725, Note_on_c, 0, 63, 84
1, 181732, Note_on_c, 0, 51, 72
1, 181750, Note_off_c, 0, 32, 65
1, 181750, Note_off_c, 0, 44, 67
1, 181767, Note_off_c, 0, 51, 61
1, 181780, Control_c, 0, 64, 55
1, 181795, Control_c, 0, 64, 78
1, 181810, Control_c, 0, 64, 127
1, 181831, Note_on_c, 0, 51, 95
1, 181837, Note_off_c, 0, 56, 58
1, 181842, Note_on_c, 0, 39, 79
1, 181854, Note_off_c, 0, 51, 69
1, 181855, Note_off_c, 0, 63, 60
1, 181867, Note_off_c, 0, 39, 65
1, 182308, Note_on_c, 0, 51, 67
1, 182310, Note_on_c, 0, 87, 99
1, 182311, Note_on_c, 0, 63, 77
1, 182312, Note_on_c, 0, 75, 93
1, 182333, Note_off_c, 0, 51, 70
1, 182341, Note_off_c, 0, 75, 61
1, 182347, Note_off_c, 0, 87, 63
1, 182355, Note_off_c, 0, 63, 60
1, 182600, Note_on_c, 0, 71, 85
1, 182600, Note_on_c, 0, 80, 99
1, 182603, Note_on_c, 0, 59, 72
1, 182603, Note_on_c, 0, 65, 76
1, 182603, Note_on_c, 0, 68, 88
1, 182606, Note_on_c, 0, 77, 76
1, 182607, Note_on_c, 0, 75, 78
1, 182817, Note_off_c, 0, 71, 48
1, 182818, Note_off_c, 0, 59, 35
1, 182819, Note_off_c, 0, 65, 51
1, 182883, Note_off_c, 0, 75, 58
1, 182884, Note_off_c, 0, 80, 59
1, 182886, Note_off_c, 0, 68, 39
1, 182900, Note_off_c, 0, 77, 58
1, 182950, Note_on_c, 0, 80, 95
1, 182952, Note_on_c, 0, 77, 63
1, 182954, Note_on_c, 0, 65, 68
1, 182954, Note_on_c, 0, 75, 75
1, 182955, Note_on_c, 0, 59, 58
1, 182956, Note_on_c, 0, 68, 88
1, 182956, Note_on_c, 0, 71, 67
1, 183063, Note_off_c, 0, 59, 50
1, 183077, Note_off_c, 0, 65, 55
1, 183095, Note_off_c, 0, 71, 37
1, 183103, Note_off_c, 0, 68, 54
1, 183122, Note_off_c, 0, 80, 59
1, 183142, Note_off_c, 0, 75, 56
1, 183151, Note_off_c, 0, 77, 54
1, 183179, Note_on_c, 0, 80, 92
1, 183180, Note_on_c, 0, 77, 56
1, 183181, Note_on_c, 0, 75, 62
1, 183187, Note_on_c, 0, 59, 58
1, 183187, Note_on_c, 0, 68, 90
1, 183192, Note_on_c, 0, 65, 63
1, 183193, Note_on_c, 0, 71, 58
1, 183202, Note_off_c, 0, 59, 68
1, 183211, Note_off_c, 0, 65, 67
1, 183214, Note_off_c, 0, 71, 63
1, 183607, Note_off_c, 0, 80, 60
1, 183630, Note_off_c, 0, 77, 62
1, 183634, Note_off_c, 0, 68, 51
1, 183640, Note_off_c, 0, 75, 61
1, 183908, Control_c, 0, 64, 92
1, 183923, Control_c, 0, 64, 70
1, 183938, Control_c, 0, 64, 56
1, 183953, Control_c, 0, 64, 32
1, 183968, Control_c, 0, 64, 0
1, 184229, Note_on_c, 0, 63, 79
1, 184231, Note_on_c, 0, 46, 84
1, 184234, Note_on_c, 0, 61, 72
1, 184234, Control_c, 0, 64, 35
1, 184235, Note_on_c, 0, 34, 72
1, 184235, Note_on_c, 0, 55, 69
1, 184236, Note_on_c, 0, 51, 71
1, 184249, Control_c, 0, 64, 62
1, 184260, Note_off_c, 0, 34, 65
1, 184261, Note_off_c, 0, 46, 67
1, 184264, Control_c, 0, 64, 75
1, 184278, Control_c, 0, 64, 95
1, 184293, Control_c, 0, 64, 127
1, 184306, Note_off_c, 0, 51, 60
1, 184332, Note_off_c, 0, 55, 60
1, 184332, Note_on_c, 0, 51, 81
1, 184344, Note_on_c, 0, 39, 86
1, 184407, Note_off_c, 0, 63, 62
1, 184429, Note_off_c, 0, 61, 60
1, 184442, Note_off_c, 0, 39, 56
1, 184512, Note_off_c, 0, 51, 49
1, 184857, Note_on_c, 0, 63, 83
1, 184861, Note_on_c, 0, 51, 67
1, 184869, Note_on_c, 0, 75, 92
1, 184869, Note_on_c, 0, 87, 92
1, 184886, Note_off_c, 0, 87, 71
1, 184889, Note_off_c, 0, 51, 66
1, 184907, Note_off_c, 0, 63, 62
1, 184907, Note_off_c, 0, 75, 61
1, 185096, Poly_aftertouch_c, 0, 63, 127
1, 185143, Poly_aftertouch_c, 0, 63, 0
1, 185196, Note_on_c, 0, 73, 79
1, 185196, Note_on_c, 0, 79, 91
1, 185197, Note_on_c, 0, 67, 75
1, 185203, Note_on_c, 0, 75, 71
1, 185204, Note_on_c, 0, 61, 65
1, 185208, Note_on_c, 0, 63, 63
1, 185278, Note_off_c, 0, 73, 50
1, 185299, Note_off_c, 0, 61, 51
1, 185317, Note_off_c, 0, 63, 55
1, 185401, Note_off_c, 0, 79, 59
1, 185411, Note_off_c, 0, 67, 43
1, 185416, Note_off_c, 0, 75, 49
1, 185559, Note_on_c, 0, 79, 92
1, 185563, Note_on_c, 0, 73, 66
1, 185564, Note_on_c, 0, 75, 72
1, 185566, Note_on_c, 0, 67, 77
1, 185572, Note_on_c, 0, 63, 59
1, 185572, Note_on_c, 0, 61, 54
1, 185614, Note_off_c, 0, 73, 47
1, 185619, Note_off_c, 0, 61, 54
1, 185653, Note_off_c, 0, 63, 53
1, 185719, Note_off_c, 0, 67, 57
1, 185736, Note_off_c, 0, 79, 59
1, 185752, Note_off_c, 0, 75, 60
1, 185806, Note_on_c, 0, 73, 61
1, 185812, Note_on_c, 0, 63, 54
1, 185813, Note_on_c, 0, 79, 94
1, 185816, Note_on_c, 0, 61, 49
1, 185816, Note_on_c, 0, 75, 70
1, 185822, Note_on_c, 0, 67, 77
1, 185830, Note_off_c, 0, 73, 65
1, 185837, Note_off_c, 0, 61, 61
1, 185842, Note_off_c, 0, 63, 65
1, 186593, Note_off_c, 0, 67, 55
1, 186636, Note_off_c, 0, 79, 58
1, 186661, Note_off_c, 0, 75, 61
1, 186844, Control_c, 0, 64, 85
1, 186859, Control_c, 0, 64, 67
1, 186873, Control_c, 0, 64, 50
1, 186888, Control_c, 0, 64, 0
1, 187037, Control_c, 0, 67, 19
1, 187067, Control_c, 0, 67, 21
1, 187111, Control_c, 0, 67, 23
1, 187141, Control_c, 0, 67, 26
1, 187156, Control_c, 0, 67, 28
1, 187170, Control_c, 0, 67, 30
1, 187185, Control_c, 0, 67, 32
1, 187200, Control_c, 0, 67, 36
1, 187214, Control_c, 0, 67, 39
1, 187229, Control_c, 0, 67, 44
1, 187244, Control_c, 0, 67, 50
1, 187259, Control_c, 0, 67, 58
1, 187274, Control_c, 0, 67, 67
1, 187289, Control_c, 0, 67, 76
1, 187304, Control_c, 0, 67, 85
1, 187319, Control_c, 0, 67, 91
1, 187334, Control_c, 0, 67, 97
1, 187348, Control_c, 0, 67, 102
1, 187363, Control_c, 0, 67, 105
1, 187378, Control_c, 0, 67, 107
1, 187408, Control_c, 0, 67, 110
1, 187467, Control_c, 0, 67, 112
1, 187726, Control_c, 0, 67, 114
1, 187741, Control_c, 0, 67, 119
1, 187756, Control_c, 0, 67, 124
1, 187772, Control_c, 0, 67, 127
1, 188028, Note_on_c, 0, 47, 35
1, 188171, Control_c, 0, 64, 32
1, 188186, Control_c, 0, 64, 34
1, 188201, Control_c, 0, 64, 36
1, 188216, Control_c, 0, 64, 37
1, 188231, Control_c, 0, 64, 39
1, 188252, Control_c, 0, 64, 40
1, 188267, Control_c, 0, 64, 41
1, 188282, Control_c, 0, 64, 42
1, 188297, Control_c, 0, 64, 44
1, 188312, Control_c, 0, 64, 44
1, 188326, Control_c, 0, 64, 45
1, 188341, Control_c, 0, 64, 45
1, 188356, Control_c, 0, 64, 47
1, 188371, Control_c, 0, 64, 48
1, 188386, Control_c, 0, 64, 49
1, 188401, Control_c, 0, 64, 50
1, 188416, Control_c, 0, 64, 51
1, 188430, Note_on_c, 0, 80, 51
1, 188430, Control_c, 0, 64, 52
1, 188443, Note_on_c, 0, 76, 40
1, 188445, Control_c, 0, 64, 54
1, 188460, Note_on_c, 0, 71, 25
1, 188460, Control_c, 0, 64, 57
1, 188460, Note_on_c, 0, 52, 27
1, 188475, Control_c, 0, 64, 60
1, 188490, Control_c, 0, 64, 63
1, 188505, Control_c, 0, 64, 65
1, 188519, Control_c, 0, 64, 68
1, 188534, Control_c, 0, 64, 72
1, 188541, Note_off_c, 0, 47, 32
1, 188549, Control_c, 0, 64, 77
1, 188565, Control_c, 0, 64, 84
1, 188580, Control_c, 0, 64, 92
1, 188594, Control_c, 0, 64, 102
1, 188609, Control_c, 0, 64, 116
1, 188624, Control_c, 0, 64, 127
1, 188720, Note_off_c, 0, 76, 42
1, 188828, Note_off_c, 0, 52, 41
1, 188861, Note_on_c, 0, 59, 33
1, 188872, Note_off_c, 0, 71, 42
1, 189004, Note_off_c, 0, 59, 56
1, 189101, Note_off_c, 0, 80, 38
1, 189129, Note_on_c, 0, 78, 52
1, 189164, Note_on_c, 0, 71, 19
1, 189167, Note_on_c, 0, 69, 20
1, 189172, Note_on_c, 0, 52, 31
1, 189306, Note_off_c, 0, 69, 23
1, 189343, Note_off_c, 0, 71, 42
1, 189372, Note_on_c, 0, 59, 28
1, 189473, Note_off_c, 0, 78, 50
1, 189542, Note_off_c, 0, 59, 42
1, 189555, Note_on_c, 0, 76, 53
1, 189561, Note_on_c, 0, 68, 38
1, 189587, Note_on_c, 0, 71, 25
1, 189590, Note_on_c, 0, 64, 4
1, 189611, Note_off_c, 0, 68, 52
1, 189656, Note_off_c, 0, 71, 39
1, 189660, Note_off_c, 0, 52, 32
1, 189674, Note_off_c, 0, 76, 57
1, 189709, Note_off_c, 0, 64, 30
1, 189751, Note_on_c, 0, 75, 57
1, 189756, Note_on_c, 0, 71, 31
1, 189760, Note_on_c, 0, 59, 35
1, 189786, Note_on_c, 0, 66, 10
1, 189805, Note_off_c, 0, 71, 44
1, 189833, Note_off_c, 0, 66, 37
1, 189852, Note_off_c, 0, 59, 0
1, 189852, Note_on_c, 0, 59, 3
1, 189879, Note_off_c, 0, 75, 38
1, 189960, Note_on_c, 0, 76, 64
1, 189964, Note_on_c, 0, 64, 38
1, 189971, Note_on_c, 0, 68, 41
1, 189997, Note_off_c, 0, 64, 52
1, 190018, Note_off_c, 0, 59, 52
1, 190024, Note_off_c, 0, 68, 40
1, 190137, Note_on_c, 0, 71, 46
1, 190151, Note_off_c, 0, 76, 57
1, 190165, Note_off_c, 0, 71, 55
1, 190381, Note_on_c, 0, 80, 56
1, 190395, Note_on_c, 0, 49, 42
1, 190398, Note_on_c, 0, 76, 45
1, 190407, Note_on_c, 0, 68, 43
1, 190432, Control_c, 0, 64, 97
1, 190447, Control_c, 0, 64, 78
1, 190462, Control_c, 0, 64, 66
1, 190484, Control_c, 0, 64, 58
1, 190499, Control_c, 0, 64, 52
1, 190514, Control_c, 0, 64, 51
1, 190544, Control_c, 0, 64, 52
1, 190558, Control_c, 0, 64, 55
1, 190573, Control_c, 0, 64, 60
1, 190588, Control_c, 0, 64, 68
1, 190603, Control_c, 0, 64, 80
1, 190618, Control_c, 0, 64, 108
1, 190621, Note_on_c, 0, 56, 47
1, 190632, Control_c, 0, 64, 127
1, 190657, Note_off_c, 0, 49, 36
1, 190728, Note_off_c, 0, 56, 57
1, 190791, Note_on_c, 0, 64, 45
1, 190808, Note_off_c, 0, 80, 54
1, 190812, Note_off_c, 0, 76, 53
1, 190867, Note_off_c, 0, 64, 60
1, 190892, Note_off_c, 0, 68, 40
1, 190961, Note_on_c, 0, 80, 64
1, 190965, Note_on_c, 0, 56, 52
1, 191087, Note_off_c, 0, 56, 55
1, 191179, Note_off_c, 0, 80, 55
1, 191215, Note_on_c, 0, 68, 56
1, 191219, Note_on_c, 0, 64, 36
1, 191343, Note_off_c, 0, 68, 56
1, 191431, Note_on_c, 0, 68, 50
1, 191445, Note_on_c, 0, 71, 38
1, 191474, Note_off_c, 0, 71, 55
1, 191477, Note_off_c, 0, 64, 53
1, 191483, Note_off_c, 0, 68, 55
1, 191635, Note_on_c, 0, 68, 34
1, 191661, Note_on_c, 0, 64, 35
1, 191668, Note_off_c, 0, 68, 54
1, 191769, Note_off_c, 0, 64, 50
1, 191826, Note_on_c, 0, 56, 44
1, 192031, Note_off_c, 0, 56, 55
1, 192052, Note_on_c, 0, 49, 44
1, 192324, Control_c, 0, 64, 94
1, 192325, Note_on_c, 0, 51, 48
1, 192338, Control_c, 0, 64, 74
1, 192353, Control_c, 0, 64, 60
1, 192366, Control_c, 0, 64, 42
1, 192381, Control_c, 0, 64, 0
1, 192399, Note_off_c, 0, 49, 37
1, 192589, Control_c, 0, 64, 43
1, 192604, Control_c, 0, 64, 56
1, 192619, Control_c, 0, 64, 62
1, 192625, Note_on_c, 0, 83, 57
1, 192629, Note_on_c, 0, 80, 42
1, 192634, Control_c, 0, 64, 66
1, 192637, Note_on_c, 0, 56, 31
1, 192638, Note_on_c, 0, 75, 38
1, 192648, Control_c, 0, 64, 70
1, 192663, Control_c, 0, 64, 75
1, 192678, Control_c, 0, 64, 85
1, 192693, Control_c, 0, 64, 95
1, 192708, Control_c, 0, 64, 114
1, 192723, Control_c, 0, 64, 127
1, 192805, Note_off_c, 0, 51, 39
1, 192865, Note_off_c, 0, 56, 46
1, 192884, Note_off_c, 0, 80, 43
1, 192886, Note_on_c, 0, 63, 39
1, 192965, Note_off_c, 0, 75, 42
1, 192990, Note_off_c, 0, 63, 52
1, 193055, Note_off_c, 0, 83, 51
1, 193066, Note_on_c, 0, 82, 65
1, 193084, Note_on_c, 0, 73, 52
1, 193085, Note_on_c, 0, 56, 42
1, 193089, Note_on_c, 0, 75, 31
1, 193172, Note_off_c, 0, 75, 0
1, 193209, Poly_aftertouch_c, 0, 75, 127
1, 193261, Note_on_c, 0, 63, 52
1, 193263, Note_off_c, 0, 73, 62
1, 193337, Poly_aftertouch_c, 0, 75, 0
1, 193356, Note_off_c, 0, 82, 62
1, 193417, Note_off_c, 0, 63, 55
1, 193447, Note_off_c, 0, 56, 38
1, 193450, Note_on_c, 0, 80, 60
1, 193455, Note_on_c, 0, 68, 46
1, 193467, Note_on_c, 0, 71, 48
1, 193470, Note_on_c, 0, 75, 33
1, 193504, Note_off_c, 0, 71, 60
1, 193544, Note_off_c, 0, 80, 60
1, 193555, Note_off_c, 0, 75, 34
1, 193594, Note_off_c, 0, 68, 35
1, 193626, Note_on_c, 0, 63, 56
1, 193628, Note_on_c, 0, 79, 68
1, 193632, Note_on_c, 0, 70, 56
1, 193658, Note_on_c, 0, 75, 18
1, 193678, Note_off_c, 0, 70, 57
1, 193702, Note_off_c, 0, 75, 49
1, 193796, Note_on_c, 0, 80, 74
1, 193800, Note_off_c, 0, 79, 35
1, 193804, Note_on_c, 0, 68, 57
1, 193806, Note_on_c, 0, 71, 55
1, 193841, Note_off_c, 0, 71, 49
1, 193848, Note_off_c, 0, 68, 57
1, 193869, Note_off_c, 0, 63, 59
1, 193960, Note_on_c, 0, 75, 61
1, 193961, Note_off_c, 0, 80, 51
1, 194004, Note_off_c, 0, 75, 51
1, 194155, Note_on_c, 0, 83, 78
1, 194158, Note_on_c, 0, 74, 65
1, 194162, Control_c, 0, 64, 99
1, 194163, Note_on_c, 0, 68, 58
1, 194168, Note_on_c, 0, 52, 57
1, 194177, Control_c, 0, 64, 68
1, 194192, Control_c, 0, 64, 52
1, 194206, Control_c, 0, 64, 34
1, 194228, Control_c, 0, 64, 30
1, 194230, Note_off_c, 0, 68, 0
1, 194243, Control_c, 0, 64, 37
1, 194258, Control_c, 0, 64, 49
1, 194267, Poly_aftertouch_c, 0, 68, 127
1, 194273, Control_c, 0, 64, 60
1, 194288, Control_c, 0, 64, 70
1, 194303, Control_c, 0, 64, 100
1, 194316, Poly_aftertouch_c, 0, 68, 0
1, 194318, Control_c, 0, 64, 127
1, 194345, Note_off_c, 0, 52, 59
1, 194350, Note_on_c, 0, 59, 57
1, 194422, Note_off_c, 0, 74, 58
1, 194452, Note_off_c, 0, 59, 62
1, 194503, Note_on_c, 0, 68, 63
1, 194541, Note_off_c, 0, 68, 62
1, 194580, Note_off_c, 0, 83, 38
1, 194665, Note_on_c, 0, 83, 76
1, 194687, Note_on_c, 0, 64, 44
1, 194926, Note_on_c, 0, 76, 69
1, 194932, Note_on_c, 0, 68, 55
1, 194966, Note_off_c, 0, 64, 53
1, 195051, Note_off_c, 0, 76, 62
1, 195095, Note_off_c, 0, 68, 52
1, 195117, Note_on_c, 0, 76, 64
1, 195122, Note_on_c, 0, 74, 53
1, 195155, Note_off_c, 0, 83, 20
1, 195181, Note_off_c, 0, 76, 60
1, 195223, Note_off_c, 0, 74, 37
1, 195269, Note_on_c, 0, 76, 69
1, 195285, Note_on_c, 0, 68, 49
1, 195305, Note_off_c, 0, 68, 61
1, 195340, Note_off_c, 0, 76, 58
1, 195447, Note_on_c, 0, 59, 50
1, 195556, Note_off_c, 0, 59, 49
1, 195621, Note_on_c, 0, 52, 44
1, 195836, Note_off_c, 0, 52, 60
1, 195842, Note_on_c, 0, 85, 83
1, 195852, Note_on_c, 0, 45, 56
1, 195858, Note_on_c, 0, 76, 57
1, 195879, Note_on_c, 0, 69, 20
1, 195889, Control_c, 0, 64, 95
1, 195903, Control_c, 0, 64, 71
1, 195918, Control_c, 0, 64, 57
1, 195933, Control_c, 0, 64, 48
1, 195948, Control_c, 0, 64, 49
1, 195963, Control_c, 0, 64, 53
1, 195977, Control_c, 0, 64, 60
1, 195992, Control_c, 0, 64, 68
1, 196007, Control_c, 0, 64, 82
1, 196022, Control_c, 0, 64, 127
1, 196031, Note_off_c, 0, 45, 53
1, 196077, Note_on_c, 0, 52, 39
1, 196133, Note_off_c, 0, 52, 61
1, 196240, Note_on_c, 0, 64, 40
1, 196262, Note_off_c, 0, 69, 40
1, 196278, Note_off_c, 0, 85, 58
1, 196366, Note_off_c, 0, 64, 23
1, 196377, Note_off_c, 0, 76, 0
1, 196392, Note_on_c, 0, 85, 75
1, 196399, Note_on_c, 0, 76, 17
1, 196401, Note_on_c, 0, 81, 57
1, 196402, Note_on_c, 0, 52, 56
1, 196479, Note_off_c, 0, 76, 38
1, 196628, Note_off_c, 0, 85, 52
1, 196661, Note_on_c, 0, 73, 66
1, 196670, Note_off_c, 0, 52, 47
1, 196673, Note_on_c, 0, 57, 46
1, 196720, Note_off_c, 0, 81, 44
1, 196742, Note_off_c, 0, 57, 60
1, 196785, Note_off_c, 0, 73, 59
1, 196852, Note_on_c, 0, 73, 54
1, 196864, Note_on_c, 0, 69, 46
1, 196909, Note_off_c, 0, 73, 59
1, 196931, Note_off_c, 0, 69, 48
1, 197001, Note_on_c, 0, 57, 47
1, 197018, Note_on_c, 0, 73, 39
1, 197073, Note_off_c, 0, 57, 48
1, 197083, Note_off_c, 0, 73, 43
1, 197165, Note_on_c, 0, 64, 42
1, 197189, Note_off_c, 0, 64, 54
1, 197320, Note_on_c, 0, 76, 57
1, 197385, Note_off_c, 0, 76, 50
1, 197552, Note_on_c, 0, 42, 46
1, 197556, Note_on_c, 0, 84, 62
1, 197564, Control_c, 0, 64, 105
1, 197570, Note_on_c, 0, 76, 40
1, 197579, Control_c, 0, 64, 79
1, 197592, Note_on_c, 0, 69, 18
1, 197594, Control_c, 0, 64, 65
1, 197609, Control_c, 0, 64, 54
1, 197624, Control_c, 0, 64, 46
1, 197638, Control_c, 0, 64, 45
1, 197653, Control_c, 0, 64, 46
1, 197668, Control_c, 0, 64, 52
1, 197683, Control_c, 0, 64, 59
1, 197698, Control_c, 0, 64, 66
1, 197713, Control_c, 0, 64, 77
1, 197719, Note_off_c, 0, 42, 61
1, 197728, Control_c, 0, 64, 103
1, 197743, Control_c, 0, 64, 127
1, 197757, Note_on_c, 0, 52, 47
1, 197799, Note_off_c, 0, 52, 61
1, 197910, Note_off_c, 0, 69, 40
1, 197925, Note_on_c, 0, 64, 42
1, 198005, Note_off_c, 0, 84, 34
1, 198037, Note_off_c, 0, 64, 47
1, 198037, Note_off_c, 0, 76, 37
1, 198124, Note_on_c, 0, 84, 63
1, 198132, Note_on_c, 0, 52, 37
1, 198135, Note_on_c, 0, 81, 55
1, 198138, Note_on_c, 0, 76, 22
1, 198223, Note_off_c, 0, 76, 32
1, 198336, Note_off_c, 0, 81, 59
1, 198344, Note_off_c, 0, 84, 57
1, 198376, Note_off_c, 0, 52, 41
1, 198384, Note_on_c, 0, 72, 58
1, 198406, Note_on_c, 0, 57, 28
1, 198481, Note_off_c, 0, 57, 40
1, 198502, Note_off_c, 0, 72, 59
1, 198572, Note_on_c, 0, 72, 37
1, 198589, Note_on_c, 0, 69, 31
1, 198629, Note_off_c, 0, 72, 55
1, 198735, Note_off_c, 0, 69, 40
1, 198781, Note_on_c, 0, 72, 38
1, 198783, Note_on_c, 0, 57, 42
1, 198815, Note_off_c, 0, 72, 52
1, 198957, Note_off_c, 0, 57, 33
1, 199006, Note_on_c, 0, 64, 41
1, 199069, Note_off_c, 0, 64, 56
1, 199281, Note_on_c, 0, 76, 43
1, 199367, Note_off_c, 0, 76, 42
1, 199591, Note_on_c, 0, 47, 51
1, 199618, Control_c, 0, 64, 99
1, 199633, Control_c, 0, 64, 72
1, 199648, Control_c, 0, 64, 56
1, 199663, Control_c, 0, 64, 36
1, 199677, Control_c, 0, 64, 31
1, 199692, Control_c, 0, 64, 35
1, 199707, Control_c, 0, 64, 46
1, 199722, Control_c, 0, 64, 58
1, 199737, Control_c, 0, 64, 68
1, 199752, Control_c, 0, 64, 84
1, 199767, Control_c, 0, 64, 127
1, 199772, Note_off_c, 0, 47, 57
1, 199806, Note_on_c, 0, 56, 54
1, 199876, Note_off_c, 0, 56, 60
1, 199970, Note_on_c, 0, 71, 60
1, 199990, Note_on_c, 0, 64, 41
1, 200023, Note_off_c, 0, 64, 62
1, 200055, Note_off_c, 0, 71, 58
1, 200119, Note_on_c, 0, 80, 74
1, 200122, Note_on_c, 0, 59, 53
1, 200184, Note_off_c, 0, 59, 48
1, 200232, Note_off_c, 0, 80, 62
1, 200271, Note_on_c, 0, 75, 71
1, 200276, Note_on_c, 0, 71, 48
1, 200354, Note_off_c, 0, 71, 51
1, 200397, Note_on_c, 0, 76, 76
1, 200408, Note_on_c, 0, 68, 53
1, 200432, Note_off_c, 0, 75, 54
1, 200476, Note_off_c, 0, 76, 60
1, 200479, Note_off_c, 0, 68, 53
1, 200521, Note_on_c, 0, 85, 81
1, 200525, Note_on_c, 0, 64, 48
1, 200620, Note_off_c, 0, 64, 52
1, 200679, Control_c, 0, 64, 94
1, 200693, Control_c, 0, 64, 78
1, 200703, Note_on_c, 0, 76, 55
1, 200705, Note_off_c, 0, 85, 65
1, 200708, Control_c, 0, 64, 77
1, 200710, Note_on_c, 0, 68, 52
1, 200710, Note_on_c, 0, 83, 80
1, 200723, Control_c, 0, 64, 84
1, 200738, Control_c, 0, 64, 114
1, 200739, Note_off_c, 0, 76, 64
1, 200745, Note_off_c, 0, 68, 64
1, 200753, Control_c, 0, 64, 127
1, 200895, Note_on_c, 0, 81, 78
1, 200947, Note_off_c, 0, 83, 58
1, 201081, Note_off_c, 0, 81, 61
1, 201105, Note_on_c, 0, 80, 72
1, 201132, Note_off_c, 0, 80, 65
1, 201189, Note_on_c, 0, 80, 79
1, 201278, Control_c, 0, 64, 117
1, 201293, Control_c, 0, 64, 73
1, 201308, Control_c, 0, 64, 52
1, 201321, Note_on_c, 0, 59, 53
1, 201323, Control_c, 0, 64, 31
1, 201338, Control_c, 0, 64, 37
1, 201354, Control_c, 0, 64, 56
1, 201369, Control_c, 0, 64, 66
1, 201384, Control_c, 0, 64, 79
1, 201398, Control_c, 0, 64, 127
1, 201408, Note_off_c, 0, 59, 60
1, 201428, Control_c, 0, 67, 122
1, 201442, Note_on_c, 0, 77, 75
1, 201442, Control_c, 0, 67, 114
1, 201457, Note_on_c, 0, 69, 55
1, 201457, Control_c, 0, 67, 105
1, 201472, Control_c, 0, 67, 96
1, 201487, Control_c, 0, 67, 89
1, 201502, Control_c, 0, 67, 83
1, 201517, Control_c, 0, 67, 77
1, 201532, Control_c, 0, 67, 70
1, 201533, Note_off_c, 0, 69, 63
1, 201546, Control_c, 0, 67, 63
1, 201560, Note_off_c, 0, 80, 37
1, 201561, Control_c, 0, 67, 52
1, 201576, Control_c, 0, 67, 43
1, 201590, Note_on_c, 0, 75, 59
1, 201591, Control_c, 0, 67, 32
1, 201606, Control_c, 0, 67, 20
1, 201621, Control_c, 0, 67, 0
1, 201687, Note_off_c, 0, 75, 61
1, 201721, Note_on_c, 0, 71, 53
1, 201850, Note_on_c, 0, 80, 82
1, 201877, Note_on_c, 0, 69, 48
1, 201904, Note_off_c, 0, 71, 42
1, 201904, Note_off_c, 0, 77, 60
1, 201930, Note_off_c, 0, 69, 49
1, 202013, Control_c, 0, 67, 19
1, 202028, Control_c, 0, 67, 21
1, 202057, Control_c, 0, 67, 25
1, 202087, Control_c, 0, 67, 29
1, 202102, Control_c, 0, 67, 32
1, 202108, Note_on_c, 0, 81, 6
1, 202112, Note_on_c, 0, 83, 57
1, 202116, Control_c, 0, 67, 36
1, 202131, Control_c, 0, 67, 41
1, 202147, Control_c, 0, 67, 47
1, 202149, Note_off_c, 0, 83, 62
1, 202162, Control_c, 0, 67, 54
1, 202164, Note_off_c, 0, 81, 52
1, 202177, Control_c, 0, 67, 62
1, 202192, Control_c, 0, 67, 67
1, 202207, Control_c, 0, 67, 72
1, 202221, Control_c, 0, 67, 75
1, 202236, Control_c, 0, 67, 78
1, 202251, Control_c, 0, 67, 81
1, 202265, Control_c, 0, 67, 83
1, 202280, Control_c, 0, 67, 85
1, 202288, Note_on_c, 0, 78, 73
1, 202295, Control_c, 0, 67, 86
1, 202310, Control_c, 0, 67, 87
1, 202321, Note_off_c, 0, 80, 58
1, 202325, Control_c, 0, 67, 88
1, 202339, Control_c, 0, 67, 90
1, 202354, Control_c, 0, 67, 91
1, 202369, Control_c, 0, 67, 92
1, 202384, Control_c, 0, 67, 94
1, 202399, Control_c, 0, 67, 97
1, 202414, Control_c, 0, 67, 100
1, 202429, Control_c, 0, 67, 102
1, 202444, Note_on_c, 0, 80, 75
1, 202444, Control_c, 0, 67, 105
1, 202459, Control_c, 0, 67, 107
1, 202480, Control_c, 0, 67, 111
1, 202483, Note_off_c, 0, 78, 53
1, 202495, Control_c, 0, 67, 116
1, 202510, Control_c, 0, 67, 120
1, 202525, Control_c, 0, 67, 125
1, 202540, Control_c, 0, 67, 127
1, 202709, Note_on_c, 0, 61, 49
1, 202709, Note_on_c, 0, 76, 67
1, 202721, Note_on_c, 0, 68, 49
1, 202747, Control_c, 0, 64, 87
1, 202762, Control_c, 0, 64, 69
1, 202777, Control_c, 0, 64, 58
1, 202788, Note_off_c, 0, 80, 34
1, 202791, Control_c, 0, 64, 50
1, 202806, Control_c, 0, 64, 49
1, 202821, Control_c, 0, 64, 51
1, 202836, Control_c, 0, 64, 56
1, 202851, Control_c, 0, 64, 61
1, 202865, Control_c, 0, 64, 67
1, 202880, Control_c, 0, 64, 75
1, 202895, Control_c, 0, 64, 86
1, 202910, Control_c, 0, 64, 98
1, 202924, Note_on_c, 0, 83, 76
1, 202925, Control_c, 0, 64, 104
1, 202932, Note_off_c, 0, 76, 61
1, 202941, Control_c, 0, 64, 113
1, 202956, Control_c, 0, 64, 127
1, 203071, Note_on_c, 0, 82, 82
1, 203080, Note_off_c, 0, 83, 61
1, 203082, Note_off_c, 0, 68, 36
1, 203264, Note_off_c, 0, 61, 53
1, 203287, Note_on_c, 0, 80, 74
1, 203293, Note_on_c, 0, 71, 48
1, 203299, Note_on_c, 0, 68, 37
1, 203299, Note_on_c, 0, 56, 42
1, 203303, Note_off_c, 0, 82, 51
1, 203303, Control_c, 0, 64, 104
1, 203305, Note_on_c, 0, 63, 39
1, 203318, Control_c, 0, 64, 77
1, 203333, Control_c, 0, 64, 63
1, 203348, Control_c, 0, 64, 53
1, 203363, Control_c, 0, 64, 49
1, 203377, Control_c, 0, 64, 47
1, 203392, Control_c, 0, 64, 48
1, 203407, Control_c, 0, 64, 50
1, 203421, Control_c, 0, 64, 54
1, 203436, Control_c, 0, 64, 59
1, 203451, Control_c, 0, 64, 65
1, 203456, Note_off_c, 0, 71, 58
1, 203466, Control_c, 0, 64, 71
1, 203481, Control_c, 0, 64, 78
1, 203490, Note_on_c, 0, 82, 72
1, 203496, Control_c, 0, 64, 86
1, 203511, Control_c, 0, 64, 92
1, 203526, Control_c, 0, 64, 100
1, 203541, Note_off_c, 0, 80, 55
1, 203541, Control_c, 0, 64, 116
1, 203556, Control_c, 0, 64, 127
1, 203653, Note_off_c, 0, 82, 60
1, 203658, Note_on_c, 0, 87, 71
1, 203705, Note_off_c, 0, 56, 58
1, 203724, Note_off_c, 0, 63, 61
1, 203726, Note_off_c, 0, 68, 50
1, 203904, Note_on_c, 0, 83, 65
1, 203905, Note_off_c, 0, 87, 57
1, 204008, Control_c, 0, 64, 108
1, 204023, Control_c, 0, 64, 80
1, 204038, Control_c, 0, 64, 65
1, 204052, Control_c, 0, 64, 55
1, 204067, Control_c, 0, 64, 50
1, 204082, Control_c, 0, 64, 47
1, 204097, Control_c, 0, 64, 44
1, 204126, Control_c, 0, 64, 47
1, 204141, Control_c, 0, 64, 52
1, 204155, Note_on_c, 0, 81, 55
1, 204156, Control_c, 0, 64, 59
1, 204170, Control_c, 0, 64, 65
1, 204185, Control_c, 0, 64, 70
1, 204194, Note_off_c, 0, 83, 50
1, 204200, Control_c, 0, 64, 77
1, 204215, Control_c, 0, 64, 83
1, 204230, Control_c, 0, 64, 88
1, 204244, Control_c, 0, 64, 97
1, 204259, Control_c, 0, 64, 108
1, 204274, Control_c, 0, 64, 127
1, 204410, Note_off_c, 0, 81, 61
1, 204435, Note_on_c, 0, 80, 59
1, 204483, Note_off_c, 0, 80, 60
1, 204561, Note_on_c, 0, 80, 60
1, 204646, Control_c, 0, 64, 122
1, 204660, Control_c, 0, 64, 90
1, 204675, Control_c, 0, 64, 73
1, 204690, Control_c, 0, 64, 62
1, 204712, Control_c, 0, 64, 52
1, 204727, Control_c, 0, 64, 48
1, 204741, Note_on_c, 0, 59, 36
1, 204742, Control_c, 0, 64, 50
1, 204757, Control_c, 0, 64, 53
1, 204772, Control_c, 0, 64, 58
1, 204786, Control_c, 0, 64, 63
1, 204801, Control_c, 0, 64, 68
1, 204816, Control_c, 0, 64, 77
1, 204831, Control_c, 0, 64, 88
1, 204846, Control_c, 0, 64, 102
1, 204849, Note_off_c, 0, 59, 49
1, 204853, Note_on_c, 0, 77, 58
1, 204860, Control_c, 0, 64, 119
1, 204875, Control_c, 0, 64, 127
1, 204889, Note_off_c, 0, 80, 62
1, 204909, Note_on_c, 0, 69, 46
1, 204976, Note_off_c, 0, 69, 63
1, 205073, Note_on_c, 0, 75, 51
1, 205215, Note_off_c, 0, 75, 37
1, 205255, Note_on_c, 0, 71, 18
1, 205341, Note_on_c, 0, 80, 66
1, 205386, Note_off_c, 0, 77, 56
1, 205441, Note_on_c, 0, 69, 34
1, 205491, Note_off_c, 0, 69, 48
1, 205495, Note_off_c, 0, 71, 40
1, 205768, Note_on_c, 0, 83, 54
1, 205858, Note_off_c, 0, 83, 62
1, 206135, Note_off_c, 0, 80, 56
1, 206146, Note_on_c, 0, 78, 47
1, 206398, Note_off_c, 0, 78, 51
1, 206431, Note_on_c, 0, 80, 51
1, 206761, Note_off_c, 0, 80, 54
1, 206799, Note_on_c, 0, 76, 45
1, 206806, Note_on_c, 0, 71, 46
1, 206811, Note_on_c, 0, 64, 32
1, 206817, Control_c, 0, 64, 96
1, 206822, Note_on_c, 0, 69, 37
1, 206831, Control_c, 0, 64, 79
1, 206846, Control_c, 0, 64, 69
1, 206861, Control_c, 0, 64, 62
1, 206876, Control_c, 0, 64, 57
1, 206891, Control_c, 0, 64, 54
1, 206905, Control_c, 0, 64, 53
1, 206920, Control_c, 0, 64, 53
1, 206936, Control_c, 0, 64, 54
1, 206951, Control_c, 0, 64, 56
1, 206973, Control_c, 0, 64, 60
1, 206987, Control_c, 0, 64, 64
1, 207002, Control_c, 0, 64, 71
1, 207017, Control_c, 0, 64, 81
1, 207032, Control_c, 0, 64, 96
1, 207047, Control_c, 0, 64, 114
1, 207061, Control_c, 0, 64, 127
1, 207124, Note_off_c, 0, 64, 62
1, 207130, Note_off_c, 0, 69, 51
1, 207136, Note_off_c, 0, 71, 61
1, 207146, Note_on_c, 0, 73, 59
1, 207309, Note_off_c, 0, 73, 55
1, 207325, Note_on_c, 0, 64, 52
1, 207523, Note_on_c, 0, 69, 46
1, 207532, Note_on_c, 0, 61, 44
1, 207535, Control_c, 0, 64, 87
1, 207550, Control_c, 0, 64, 77
1, 207565, Control_c, 0, 64, 75
1, 207580, Control_c, 0, 64, 78
1, 207595, Control_c, 0, 64, 83
1, 207610, Control_c, 0, 64, 93
1, 207625, Control_c, 0, 64, 127
1, 207676, Note_off_c, 0, 64, 40
1, 207680, Note_on_c, 0, 78, 59
1, 207690, Note_off_c, 0, 61, 62
1, 207747, Note_off_c, 0, 76, 47
1, 207788, Note_off_c, 0, 69, 34
1, 207863, Note_on_c, 0, 85, 64
1, 207867, Note_off_c, 0, 78, 55
1, 208029, Note_on_c, 0, 54, 48
1, 208063, Control_c, 0, 64, 81
1, 208070, Note_on_c, 0, 81, 61
1, 208078, Control_c, 0, 64, 64
1, 208092, Control_c, 0, 64, 55
1, 208107, Control_c, 0, 64, 54
1, 208122, Control_c, 0, 64, 58
1, 208136, Control_c, 0, 64, 62
1, 208151, Control_c, 0, 64, 68
1, 208166, Control_c, 0, 64, 79
1, 208169, Note_off_c, 0, 54, 56
1, 208173, Note_off_c, 0, 85, 33
1, 208176, Note_on_c, 0, 61, 50
1, 208181, Control_c, 0, 64, 100
1, 208196, Control_c, 0, 64, 127
1, 208256, Note_off_c, 0, 61, 57
1, 208259, Note_on_c, 0, 80, 70
1, 208307, Note_off_c, 0, 81, 59
1, 208310, Note_on_c, 0, 69, 48
1, 208367, Note_off_c, 0, 69, 59
1, 208381, Note_on_c, 0, 78, 57
1, 208398, Note_off_c, 0, 80, 54
1, 208413, Note_off_c, 0, 78, 65
1, 208432, Note_on_c, 0, 76, 62
1, 208459, Note_off_c, 0, 76, 64
1, 208617, Note_on_c, 0, 73, 69
1, 208623, Note_on_c, 0, 68, 52
1, 208624, Note_on_c, 0, 66, 51
1, 208628, Note_on_c, 0, 61, 49
1, 208663, Control_c, 0, 64, 105
1, 208678, Control_c, 0, 64, 77
1, 208693, Control_c, 0, 64, 65
1, 208707, Control_c, 0, 64, 60
1, 208722, Control_c, 0, 64, 62
1, 208737, Control_c, 0, 64, 66
1, 208752, Control_c, 0, 64, 72
1, 208753, Note_off_c, 0, 68, 64
1, 208754, Note_off_c, 0, 61, 61
1, 208763, Note_off_c, 0, 66, 62
1, 208766, Control_c, 0, 64, 82
1, 208781, Control_c, 0, 64, 97
1, 208788, Note_on_c, 0, 69, 63
1, 208796, Control_c, 0, 64, 127
1, 208829, Note_off_c, 0, 69, 50
1, 208913, Note_on_c, 0, 61, 67
1, 209058, Note_on_c, 0, 66, 66
1, 209065, Note_on_c, 0, 57, 60
1, 209108, Control_c, 0, 64, 86
1, 209123, Control_c, 0, 64, 69
1, 209138, Control_c, 0, 64, 65
1, 209152, Control_c, 0, 64, 68
1, 209167, Control_c, 0, 64, 75
1, 209182, Control_c, 0, 64, 84
1, 209185, Note_off_c, 0, 66, 59
1, 209204, Control_c, 0, 64, 96
1, 209206, Note_on_c, 0, 75, 65
1, 209219, Note_off_c, 0, 57, 62
1, 209219, Control_c, 0, 64, 115
1, 209234, Control_c, 0, 64, 127
1, 209246, Note_off_c, 0, 61, 60
1, 209316, Note_off_c, 0, 73, 54
1, 209340, Note_off_c, 0, 75, 0
1, 209343, Note_on_c, 0, 76, 71
1, 209377, Poly_aftertouch_c, 0, 75, 127
1, 209514, Note_on_c, 0, 49, 53
1, 209518, Poly_aftertouch_c, 0, 75, 0
1, 209524, Note_off_c, 0, 76, 58
1, 209531, Control_c, 0, 64, 81
1, 209542, Note_on_c, 0, 80, 63
1, 209546, Control_c, 0, 64, 63
1, 209561, Control_c, 0, 64, 53
1, 209590, Control_c, 0, 64, 57
1, 209605, Control_c, 0, 64, 62
1, 209620, Control_c, 0, 64, 67
1, 209635, Control_c, 0, 64, 77
1, 209650, Control_c, 0, 64, 92
1, 209652, Note_on_c, 0, 57, 48
1, 209657, Note_off_c, 0, 49, 52
1, 209664, Control_c, 0, 64, 116
1, 209679, Control_c, 0, 64, 127
1, 209703, Note_on_c, 0, 78, 64
1, 209706, Note_off_c, 0, 57, 60
1, 209765, Note_on_c, 0, 64, 45
1, 209782, Note_off_c, 0, 80, 37
1, 209820, Note_on_c, 0, 73, 58
1, 209835, Note_off_c, 0, 64, 61
1, 209845, Note_off_c, 0, 78, 53
1, 209857, Note_off_c, 0, 73, 59
1, 209876, Note_on_c, 0, 69, 59
1, 209904, Note_off_c, 0, 69, 65
1, 210027, Note_on_c, 0, 68, 57
1, 210131, Control_c, 0, 64, 90
1, 210146, Control_c, 0, 64, 68
1, 210161, Note_on_c, 0, 69, 59
1, 210161, Control_c, 0, 64, 55
1, 210174, Note_on_c, 0, 42, 58
1, 210176, Control_c, 0, 64, 49
1, 210191, Control_c, 0, 64, 51
1, 210206, Control_c, 0, 64, 55
1, 210221, Control_c, 0, 64, 61
1, 210236, Control_c, 0, 64, 67
1, 210251, Control_c, 0, 64, 75
1, 210254, Note_off_c, 0, 68, 39
1, 210266, Control_c, 0, 64, 83
1, 210276, Note_off_c, 0, 69, 37
1, 210280, Control_c, 0, 64, 89
1, 210287, Note_off_c, 0, 42, 58
1, 210294, Note_on_c, 0, 73, 72
1, 210295, Control_c, 0, 64, 93
1, 210295, Note_on_c, 0, 49, 61
1, 210310, Control_c, 0, 64, 97
1, 210324, Control_c, 0, 64, 106
1, 210338, Control_c, 0, 64, 127
1, 210385, Note_off_c, 0, 49, 60
1, 210441, Note_on_c, 0, 57, 53
1, 210441, Note_on_c, 0, 76, 74
1, 210442, Control_c, 0, 64, 112
1, 210457, Control_c, 0, 64, 76
1, 210471, Control_c, 0, 64, 62
1, 210476, Note_off_c, 0, 73, 60
1, 210486, Control_c, 0, 64, 58
1, 210489, Note_off_c, 0, 57, 57
1, 210501, Control_c, 0, 64, 61
1, 210516, Control_c, 0, 64, 66
1, 210531, Control_c, 0, 64, 73
1, 210546, Control_c, 0, 64, 86
1, 210560, Note_on_c, 0, 49, 61
1, 210561, Control_c, 0, 64, 104
1, 210576, Control_c, 0, 64, 127
1, 210664, Note_on_c, 0, 75, 69
1, 210707, Note_off_c, 0, 76, 54
1, 210717, Note_on_c, 0, 57, 55
1, 210718, Note_off_c, 0, 49, 58
1, 210853, Note_off_c, 0, 57, 55
1, 210876, Note_on_c, 0, 64, 42
1, 210911, Note_off_c, 0, 64, 49
1, 211073, Control_c, 0, 64, 113
1, 211084, Note_on_c, 0, 47, 61
1, 211088, Control_c, 0, 64, 77
1, 211102, Control_c, 0, 64, 62
1, 211117, Control_c, 0, 64, 53
1, 211132, Control_c, 0, 64, 54
1, 211146, Control_c, 0, 64, 58
1, 211161, Control_c, 0, 64, 63
1, 211176, Control_c, 0, 64, 68
1, 211191, Note_on_c, 0, 73, 65
1, 211191, Control_c, 0, 64, 77
1, 211206, Control_c, 0, 64, 92
1, 211220, Control_c, 0, 64, 110
1, 211232, Note_off_c, 0, 47, 58
1, 211235, Control_c, 0, 64, 127
1, 211254, Note_on_c, 0, 57, 55
1, 211274, Note_off_c, 0, 75, 38
1, 211349, Note_off_c, 0, 73, 58
1, 211371, Note_off_c, 0, 57, 62
1, 211423, Note_on_c, 0, 64, 44
1, 211440, Note_on_c, 0, 73, 71
1, 211479, Control_c, 0, 64, 102
1, 211494, Control_c, 0, 64, 75
1, 211509, Control_c, 0, 64, 63
1, 211524, Control_c, 0, 64, 59
1, 211533, Note_on_c, 0, 54, 56
1, 211537, Note_off_c, 0, 64, 60
1, 211539, Control_c, 0, 64, 62
1, 211553, Control_c, 0, 64, 65
1, 211568, Control_c, 0, 64, 71
1, 211583, Control_c, 0, 64, 82
1, 211598, Control_c, 0, 64, 94
1, 211613, Control_c, 0, 64, 108
1, 211628, Control_c, 0, 64, 127
1, 211659, Note_on_c, 0, 61, 57
1, 211699, Note_off_c, 0, 54, 37
1, 211774, Note_off_c, 0, 61, 57
1, 211789, Note_on_c, 0, 63, 52
1, 211843, Note_off_c, 0, 63, 55
1, 211851, Control_c, 0, 64, 87
1, 211866, Control_c, 0, 64, 73
1, 211881, Control_c, 0, 64, 69
1, 211896, Control_c, 0, 64, 70
1, 211911, Control_c, 0, 64, 74
1, 211926, Control_c, 0, 64, 79
1, 211941, Control_c, 0, 64, 87
1, 211949, Note_on_c, 0, 57, 42
1, 211956, Control_c, 0, 64, 96
1, 211970, Control_c, 0, 64, 104
1, 211985, Control_c, 0, 64, 107
1, 212011, Note_on_c, 0, 71, 58
1, 212045, Note_off_c, 0, 57, 59
1, 212054, Note_off_c, 0, 73, 47
1, 212066, Note_on_c, 0, 59, 44
1, 212133, Control_c, 0, 64, 109
1, 212141, Note_off_c, 0, 71, 50
1, 212215, Control_c, 0, 64, 117
1, 212230, Control_c, 0, 64, 127
1, 212268, Note_off_c, 0, 59, 61
1, 212287, Note_on_c, 0, 80, 67
1, 212289, Control_c, 0, 64, 98
1, 212296, Note_on_c, 0, 61, 45
1, 212303, Control_c, 0, 64, 81
1, 212305, Note_on_c, 0, 69, 40
1, 212313, Note_on_c, 0, 71, 44
1, 212318, Control_c, 0, 64, 67
1, 212333, Control_c, 0, 64, 58
1, 212348, Control_c, 0, 64, 52
1, 212363, Control_c, 0, 64, 48
1, 212377, Control_c, 0, 64, 47
1, 212392, Control_c, 0, 64, 50
1, 212407, Control_c, 0, 64, 56
1, 212422, Control_c, 0, 64, 62
1, 212432, Note_off_c, 0, 61, 56
1, 212437, Control_c, 0, 64, 67
1, 212451, Control_c, 0, 64, 74
1, 212462, Note_on_c, 0, 64, 41
1, 212466, Control_c, 0, 64, 83
1, 212481, Control_c, 0, 64, 90
1, 212496, Control_c, 0, 64, 96
1, 212510, Control_c, 0, 64, 107
1, 212526, Control_c, 0, 64, 127
1, 212546, Note_on_c, 0, 78, 60
1, 212571, Note_off_c, 0, 80, 62
1, 212602, Note_off_c, 0, 64, 39
1, 212616, Note_on_c, 0, 63, 47
1, 212824, Note_off_c, 0, 63, 55
1, 212852, Control_c, 0, 64, 114
1, 212867, Control_c, 0, 64, 90
1, 212875, Note_on_c, 0, 81, 58
1, 212880, Note_on_c, 0, 62, 42
1, 212882, Control_c, 0, 64, 74
1, 212895, Note_off_c, 0, 78, 49
1, 212897, Control_c, 0, 64, 63
1, 212912, Control_c, 0, 64, 51
1, 212926, Control_c, 0, 64, 43
1, 212948, Control_c, 0, 64, 38
1, 212963, Control_c, 0, 64, 36
1, 212978, Control_c, 0, 64, 37
1, 212993, Control_c, 0, 64, 43
1, 213008, Control_c, 0, 64, 54
1, 213023, Control_c, 0, 64, 62
1, 213038, Control_c, 0, 64, 68
1, 213052, Control_c, 0, 64, 74
1, 213067, Control_c, 0, 64, 79
1, 213082, Control_c, 0, 64, 83
1, 213089, Note_off_c, 0, 62, 45
1, 213097, Control_c, 0, 64, 87
1, 213110, Note_on_c, 0, 52, 41
1, 213112, Control_c, 0, 64, 96
1, 213126, Control_c, 0, 64, 109
1, 213141, Control_c, 0, 64, 127
1, 213188, Note_on_c, 0, 78, 53
1, 213196, Note_off_c, 0, 81, 38
1, 213252, Note_off_c, 0, 69, 36
1, 213259, Note_off_c, 0, 71, 38
1, 213269, Note_on_c, 0, 64, 44
1, 213282, Note_off_c, 0, 52, 33
1, 213431, Note_off_c, 0, 78, 51
1, 213453, Control_c, 0, 64, 87
1, 213461, Note_off_c, 0, 64, 41
1, 213468, Control_c, 0, 64, 68
1, 213476, Note_on_c, 0, 81, 52
1, 213482, Control_c, 0, 64, 56
1, 213487, Note_on_c, 0, 73, 38
1, 213488, Note_on_c, 0, 69, 28
1, 213490, Note_on_c, 0, 61, 32
1, 213497, Control_c, 0, 64, 48
1, 213512, Control_c, 0, 64, 45
1, 213527, Control_c, 0, 64, 45
1, 213542, Control_c, 0, 64, 50
1, 213557, Control_c, 0, 64, 56
1, 213571, Control_c, 0, 64, 63
1, 213586, Control_c, 0, 64, 70
1, 213601, Control_c, 0, 64, 84
1, 213616, Control_c, 0, 64, 105
1, 213631, Control_c, 0, 64, 127
1, 213679, Note_off_c, 0, 69, 53
1, 213729, Note_off_c, 0, 61, 40
1, 213735, Note_on_c, 0, 52, 30
1, 213740, Note_on_c, 0, 76, 50
1, 213740, Note_off_c, 0, 73, 52
1, 213769, Note_off_c, 0, 76, 64
1, 213803, Note_off_c, 0, 81, 36
1, 213937, Note_on_c, 0, 57, 31
1, 213986, Note_off_c, 0, 52, 35
1, 214009, Note_on_c, 0, 85, 67
1, 214045, Note_off_c, 0, 85, 55
1, 214083, Note_off_c, 0, 57, 35
1, 214147, Note_on_c, 0, 64, 33
1, 214150, Note_on_c, 0, 85, 60
1, 214222, Note_off_c, 0, 64, 54
1, 214335, Note_on_c, 0, 69, 26
1, 214368, Note_off_c, 0, 69, 48
1, 214521, Note_off_c, 0, 85, 60
1, 214553, Note_on_c, 0, 76, 51
1, 214865, Note_on_c, 0, 69, 40
1, 214865, Note_on_c, 0, 71, 42
1, 214866, Note_on_c, 0, 62, 42
1, 214876, Control_c, 0, 64, 95
1, 214890, Control_c, 0, 64, 73
1, 214905, Control_c, 0, 64, 60
1, 214921, Control_c, 0, 64, 52
1, 214932, Note_off_c, 0, 76, 37
1, 214936, Control_c, 0, 64, 50
1, 214951, Control_c, 0, 64, 51
1, 214966, Control_c, 0, 64, 53
1, 214981, Control_c, 0, 64, 57
1, 214995, Control_c, 0, 64, 63
1, 215010, Control_c, 0, 64, 68
1, 215025, Control_c, 0, 64, 76
1, 215039, Control_c, 0, 64, 85
1, 215054, Control_c, 0, 64, 94
1, 215069, Control_c, 0, 64, 104
1, 215074, Note_on_c, 0, 81, 63
1, 215081, Note_off_c, 0, 62, 39
1, 215084, Control_c, 0, 64, 127
1, 215096, Note_on_c, 0, 52, 32
1, 215253, Note_on_c, 0, 78, 65
1, 215263, Note_on_c, 0, 64, 41
1, 215268, Note_off_c, 0, 81, 38
1, 215305, Note_off_c, 0, 71, 36
1, 215307, Note_off_c, 0, 52, 31
1, 215317, Note_off_c, 0, 69, 32
1, 215446, Note_off_c, 0, 64, 42
1, 215473, Note_off_c, 0, 78, 53
1, 215499, Note_on_c, 0, 69, 32
1, 215501, Note_on_c, 0, 81, 56
1, 215506, Control_c, 0, 64, 102
1, 215509, Note_on_c, 0, 73, 38
1, 215517, Note_on_c, 0, 61, 38
1, 215521, Control_c, 0, 64, 77
1, 215536, Control_c, 0, 64, 63
1, 215551, Control_c, 0, 64, 53
1, 215566, Control_c, 0, 64, 48
1, 215581, Control_c, 0, 64, 47
1, 215595, Control_c, 0, 64, 50
1, 215610, Control_c, 0, 64, 55
1, 215625, Control_c, 0, 64, 62
1, 215640, Control_c, 0, 64, 69
1, 215654, Control_c, 0, 64, 81
1, 215669, Control_c, 0, 64, 101
1, 215684, Control_c, 0, 64, 127
1, 215716, Note_off_c, 0, 69, 53
1, 215786, Note_on_c, 0, 52, 35
1, 215786, Note_off_c, 0, 61, 39
1, 215793, Note_on_c, 0, 76, 51
1, 215796, Note_off_c, 0, 73, 55
1, 215879, Note_off_c, 0, 76, 61
1, 215892, Note_off_c, 0, 81, 59
1, 216122, Note_on_c, 0, 57, 14
1, 216185, Note_off_c, 0, 52, 27
1, 216214, Note_on_c, 0, 93, 65
1, 216278, Note_off_c, 0, 93, 58
1, 216309, Note_off_c, 0, 57, 41
1, 216365, Note_on_c, 0, 93, 50
1, 216384, Note_on_c, 0, 64, 29
1, 216449, Note_off_c, 0, 64, 59
1, 216666, Note_on_c, 0, 73, 48
1, 216715, Note_off_c, 0, 73, 61
1, 217041, Note_on_c, 0, 85, 48
1, 217071, Note_off_c, 0, 93, 38
1, 217216, Note_off_c, 0, 85, 55
1, 217673, Note_on_c, 0, 42, 46
1, 217724, Control_c, 0, 64, 122
1, 217739, Control_c, 0, 64, 95
1, 217754, Control_c, 0, 64, 80
1, 217769, Control_c, 0, 64, 68
1, 217783, Control_c, 0, 64, 60
1, 217798, Control_c, 0, 64, 53
1, 217813, Control_c, 0, 64, 51
1, 217842, Control_c, 0, 64, 53
1, 217857, Control_c, 0, 64, 58
1, 217872, Control_c, 0, 64, 63
1, 217887, Control_c, 0, 64, 71
1, 217902, Control_c, 0, 64, 84
1, 217916, Control_c, 0, 64, 103
1, 217931, Control_c, 0, 64, 127
1, 218064, Note_on_c, 0, 73, 68
1, 218074, Note_on_c, 0, 49, 46
1, 218094, Note_off_c, 0, 42, 55
1, 218272, Note_on_c, 0, 75, 69
1, 218279, Note_on_c, 0, 57, 49
1, 218337, Note_off_c, 0, 57, 55
1, 218338, Note_off_c, 0, 49, 61
1, 218402, Note_off_c, 0, 73, 33
1, 218452, Note_on_c, 0, 76, 77
1, 218462, Note_on_c, 0, 66, 53
1, 218487, Note_off_c, 0, 75, 59
1, 218502, Control_c, 0, 64, 99
1, 218517, Control_c, 0, 64, 80
1, 218532, Control_c, 0, 64, 74
1, 218547, Control_c, 0, 64, 76
1, 218561, Control_c, 0, 64, 81
1, 218576, Control_c, 0, 64, 90
1, 218584, Note_off_c, 0, 66, 35
1, 218590, Control_c, 0, 64, 120
1, 218605, Control_c, 0, 64, 127
1, 218615, Note_on_c, 0, 64, 50
1, 218694, Note_on_c, 0, 75, 74
1, 218735, Note_off_c, 0, 76, 61
1, 218763, Note_on_c, 0, 54, 49
1, 218778, Note_off_c, 0, 64, 38
1, 218812, Note_off_c, 0, 54, 62
1, 218921, Note_on_c, 0, 69, 64
1, 218987, Note_off_c, 0, 69, 60
1, 219076, Note_on_c, 0, 57, 60
1, 219252, Note_on_c, 0, 73, 70
1, 219258, Note_off_c, 0, 57, 51
1, 219268, Note_on_c, 0, 44, 52
1, 219340, Control_c, 0, 64, 119
1, 219355, Control_c, 0, 64, 113
1, 219369, Control_c, 0, 64, 109
1, 219384, Control_c, 0, 64, 107
1, 219399, Control_c, 0, 64, 105
1, 219414, Control_c, 0, 64, 101
1, 219429, Control_c, 0, 64, 94
1, 219444, Control_c, 0, 64, 85
1, 219446, Note_off_c, 0, 75, 20
1, 219459, Control_c, 0, 64, 74
1, 219474, Control_c, 0, 64, 64
1, 219488, Control_c, 0, 64, 54
1, 219495, Note_on_c, 0, 71, 61
1, 219503, Control_c, 0, 64, 47
1, 219504, Note_on_c, 0, 51, 46
1, 219509, Note_off_c, 0, 73, 63
1, 219518, Control_c, 0, 64, 43
1, 219532, Control_c, 0, 64, 41
1, 219547, Control_c, 0, 64, 41
1, 219562, Control_c, 0, 64, 44
1, 219574, Note_off_c, 0, 44, 59
1, 219577, Control_c, 0, 64, 50
1, 219592, Control_c, 0, 64, 59
1, 219606, Control_c, 0, 64, 65
1, 219621, Control_c, 0, 64, 72
1, 219636, Control_c, 0, 64, 79
1, 219651, Control_c, 0, 64, 84
1, 219666, Control_c, 0, 64, 86
1, 219673, Note_on_c, 0, 59, 44
1, 219688, Control_c, 0, 64, 88
1, 219703, Control_c, 0, 64, 88
1, 219837, Control_c, 0, 64, 88
1, 219867, Control_c, 0, 64, 87
1, 219874, Note_on_c, 0, 66, 45
1, 219881, Note_on_c, 0, 63, 38
1, 219881, Note_off_c, 0, 51, 30
1, 219882, Control_c, 0, 64, 87
1, 219886, Note_on_c, 0, 47, 36
1, 219911, Control_c, 0, 64, 86
1, 219941, Control_c, 0, 64, 86
1, 219971, Control_c, 0, 64, 85
1, 220015, Control_c, 0, 64, 85
1, 220030, Note_off_c, 0, 63, 39
1, 220059, Control_c, 0, 64, 84
1, 220133, Control_c, 0, 64, 84
1, 220148, Control_c, 0, 64, 82
1, 220162, Control_c, 0, 64, 77
1, 220171, Note_off_c, 0, 66, 55
1, 220177, Control_c, 0, 64, 70
1, 220192, Control_c, 0, 64, 63
1, 220198, Note_off_c, 0, 59, 36
1, 220205, Note_on_c, 0, 52, 32
1, 220207, Control_c, 0, 64, 58
1, 220212, Note_on_c, 0, 68, 41
1, 220222, Control_c, 0, 64, 54
1, 220231, Note_on_c, 0, 64, 21
1, 220237, Control_c, 0, 64, 50
1, 220252, Control_c, 0, 64, 47
1, 220267, Control_c, 0, 64, 47
1, 220281, Control_c, 0, 64, 51
1, 220282, Note_off_c, 0, 47, 39
1, 220296, Control_c, 0, 64, 56
1, 220311, Control_c, 0, 64, 61
1, 220326, Control_c, 0, 64, 67
1, 220341, Control_c, 0, 64, 74
1, 220341, Control_c, 0, 67, 118
1, 220356, Control_c, 0, 64, 83
1, 220356, Control_c, 0, 67, 105
1, 220370, Control_c, 0, 64, 90
1, 220370, Control_c, 0, 67, 93
1, 220385, Control_c, 0, 64, 98
1, 220385, Control_c, 0, 67, 79
1, 220400, Control_c, 0, 64, 109
1, 220400, Control_c, 0, 67, 64
1, 220415, Control_c, 0, 64, 127
1, 220415, Control_c, 0, 67, 45
1, 220430, Control_c, 0, 67, 27
1, 220442, Note_off_c, 0, 71, 57
1, 220451, Control_c, 0, 67, 0
1, 220459, Note_off_c, 0, 64, 45
1, 220498, Note_on_c, 0, 59, 49
1, 220514, Note_off_c, 0, 68, 60
1, 220668, Note_off_c, 0, 59, 61
1, 220674, Note_off_c, 0, 52, 40
1, 220703, Note_on_c, 0, 61, 61
1, 220720, Control_c, 0, 64, 116
1, 220734, Control_c, 0, 64, 106
1, 220749, Control_c, 0, 64, 100
1, 220764, Control_c, 0, 64, 96
1, 220779, Control_c, 0, 64, 92
1, 220793, Control_c, 0, 64, 87
1, 220793, Control_c, 0, 67, 20
1, 220808, Control_c, 0, 64, 84
1, 220821, Control_c, 0, 64, 81
1, 220821, Control_c, 0, 67, 23
1, 220836, Control_c, 0, 64, 79
1, 220836, Control_c, 0, 67, 25
1, 220851, Control_c, 0, 64, 77
1, 220851, Control_c, 0, 67, 28
1, 220866, Control_c, 0, 64, 74
1, 220866, Control_c, 0, 67, 31
1, 220871, Note_on_c, 0, 64, 65
1, 220872, Note_off_c, 0, 61, 55
1, 220881, Control_c, 0, 64, 71
1, 220881, Control_c, 0, 67, 35
1, 220896, Control_c, 0, 64, 67
1, 220896, Control_c, 0, 67, 40
1, 220910, Control_c, 0, 64, 64
1, 220910, Control_c, 0, 67, 46
1, 220925, Control_c, 0, 64, 61
1, 220925, Control_c, 0, 67, 54
1, 220940, Control_c, 0, 64, 59
1, 220940, Control_c, 0, 67, 61
1, 220955, Control_c, 0, 64, 58
1, 220955, Control_c, 0, 67, 68
1, 220970, Control_c, 0, 64, 56
1, 220970, Control_c, 0, 67, 74
1, 220984, Control_c, 0, 64, 53
1, 220984, Control_c, 0, 67, 79
1, 220999, Control_c, 0, 64, 50
1, 220999, Control_c, 0, 67, 83
1, 221000, Note_off_c, 0, 64, 62
1, 221014, Control_c, 0, 64, 48
1, 221014, Control_c, 0, 67, 87
1, 221020, Note_on_c, 0, 66, 66
1, 221029, Control_c, 0, 64, 45
1, 221029, Control_c, 0, 67, 90
1, 221044, Control_c, 0, 64, 42
1, 221044, Control_c, 0, 67, 94
1, 221058, Control_c, 0, 64, 39
1, 221058, Control_c, 0, 67, 97
1, 221073, Control_c, 0, 64, 34
1, 221073, Control_c, 0, 67, 100
1, 221088, Control_c, 0, 64, 0
1, 221088, Control_c, 0, 67, 102
1, 221103, Control_c, 0, 67, 105
1, 221118, Control_c, 0, 67, 108
1, 221127, Note_off_c, 0, 66, 63
1, 221132, Control_c, 0, 67, 112
1, 221147, Control_c, 0, 67, 116
1, 221158, Note_on_c, 0, 69, 68
1, 221162, Control_c, 0, 67, 120
1, 221177, Control_c, 0, 67, 125
1, 221199, Control_c, 0, 67, 127
1, 221343, Note_off_c, 0, 69, 54
1, 221354, Note_on_c, 0, 76, 62
1, 221369, Note_on_c, 0, 71, 46
1, 221457, Note_off_c, 0, 71, 62
1, 221511, Control_c, 0, 64, 32
1, 221515, Note_on_c, 0, 73, 52
1, 221526, Control_c, 0, 64, 35
1, 221541, Control_c, 0, 64, 39
1, 221555, Control_c, 0, 64, 43
1, 221571, Control_c, 0, 64, 47
1, 221586, Control_c, 0, 64, 52
1, 221601, Control_c, 0, 64, 56
1, 221612, Note_on_c, 0, 64, 38
1, 221615, Control_c, 0, 64, 59
1, 221622, Note_off_c, 0, 73, 60
1, 221630, Control_c, 0, 64, 61
1, 221631, Note_on_c, 0, 71, 48
1, 221645, Control_c, 0, 64, 63
1, 221660, Control_c, 0, 64, 66
1, 221675, Control_c, 0, 64, 68
1, 221681, Note_off_c, 0, 71, 62
1, 221689, Control_c, 0, 64, 70
1, 221704, Control_c, 0, 64, 72
1, 221719, Control_c, 0, 64, 75
1, 221733, Control_c, 0, 64, 77
1, 221739, Note_off_c, 0, 64, 40
1, 221748, Control_c, 0, 64, 79
1, 221751, Note_on_c, 0, 61, 36
1, 221754, Note_on_c, 0, 69, 37
1, 221763, Control_c, 0, 64, 80
1, 221778, Control_c, 0, 64, 82
1, 221783, Note_off_c, 0, 69, 48
1, 221793, Control_c, 0, 64, 83
1, 221808, Control_c, 0, 64, 84
1, 221823, Control_c, 0, 64, 86
1, 221837, Control_c, 0, 64, 90
1, 221852, Control_c, 0, 64, 94
1, 221867, Control_c, 0, 64, 100
1, 221882, Control_c, 0, 64, 104
1, 221912, Control_c, 0, 64, 101
1, 221927, Control_c, 0, 64, 93
1, 221948, Control_c, 0, 64, 83
1, 221958, Note_off_c, 0, 61, 39
1, 221963, Control_c, 0, 64, 76
1, 221969, Note_on_c, 0, 54, 44
1, 221969, Note_on_c, 0, 64, 40
1, 221978, Control_c, 0, 64, 72
1, 221981, Note_off_c, 0, 76, 0
1, 221993, Control_c, 0, 64, 72
1, 221995, Note_on_c, 0, 76, 44
1, 222022, Control_c, 0, 64, 74
1, 222037, Control_c, 0, 64, 77
1, 222052, Control_c, 0, 64, 83
1, 222067, Control_c, 0, 64, 89
1, 222082, Control_c, 0, 64, 97
1, 222097, Control_c, 0, 64, 105
1, 222112, Control_c, 0, 64, 115
1, 222127, Control_c, 0, 64, 127
1, 222140, Note_off_c, 0, 76, 50
1, 222163, Note_on_c, 0, 78, 69
1, 222311, Note_off_c, 0, 78, 61
1, 222331, Note_on_c, 0, 87, 77
1, 222443, Note_on_c, 0, 85, 73
1, 222489, Note_off_c, 0, 87, 57
1, 222514, Note_off_c, 0, 85, 64
1, 222550, Note_on_c, 0, 81, 74
1, 222553, Note_off_c, 0, 64, 57
1, 222664, Note_on_c, 0, 61, 41
1, 222666, Note_off_c, 0, 54, 54
1, 222693, Note_off_c, 0, 81, 50
1, 222719, Note_on_c, 0, 80, 62
1, 222756, Note_off_c, 0, 61, 59
1, 222815, Note_on_c, 0, 69, 46
1, 222833, Note_on_c, 0, 78, 62
1, 222838, Note_off_c, 0, 80, 58
1, 222841, Note_off_c, 0, 69, 63
1, 222862, Note_off_c, 0, 78, 67
1, 222930, Note_on_c, 0, 76, 56
1, 222958, Note_off_c, 0, 76, 65
1, 223118, Note_on_c, 0, 73, 68
1, 223122, Note_on_c, 0, 68, 53
1, 223167, Note_off_c, 0, 68, 53
1, 223187, Control_c, 0, 64, 87
1, 223202, Control_c, 0, 64, 71
1, 223217, Control_c, 0, 64, 64
1, 223228, Note_on_c, 0, 69, 60
1, 223232, Control_c, 0, 64, 62
1, 223247, Control_c, 0, 64, 63
1, 223261, Control_c, 0, 64, 66
1, 223276, Control_c, 0, 64, 71
1, 223291, Control_c, 0, 64, 78
1, 223302, Note_on_c, 0, 64, 54
1, 223305, Control_c, 0, 64, 86
1, 223307, Note_off_c, 0, 69, 55
1, 223320, Control_c, 0, 64, 94
1, 223322, Note_on_c, 0, 68, 58
1, 223335, Control_c, 0, 64, 104
1, 223350, Control_c, 0, 64, 115
1, 223355, Note_off_c, 0, 64, 59
1, 223365, Control_c, 0, 64, 125
1, 223366, Note_off_c, 0, 68, 63
1, 223394, Control_c, 0, 64, 127
1, 223411, Note_on_c, 0, 57, 59
1, 223412, Note_on_c, 0, 66, 51
1, 223444, Note_off_c, 0, 66, 57
1, 223518, Note_off_c, 0, 57, 59
1, 223565, Control_c, 0, 64, 94
1, 223566, Note_on_c, 0, 61, 52
1, 223572, Note_on_c, 0, 49, 54
1, 223579, Control_c, 0, 64, 72
1, 223594, Control_c, 0, 64, 63
1, 223609, Control_c, 0, 64, 60
1, 223624, Control_c, 0, 64, 62
1, 223639, Control_c, 0, 64, 65
1, 223654, Control_c, 0, 64, 69
1, 223659, Note_off_c, 0, 73, 61
1, 223668, Control_c, 0, 64, 75
1, 223683, Control_c, 0, 64, 83
1, 223686, Note_on_c, 0, 72, 64
1, 223698, Control_c, 0, 64, 86
1, 223714, Control_c, 0, 64, 86
1, 223774, Note_on_c, 0, 73, 75
1, 223832, Control_c, 0, 64, 87
1, 223847, Control_c, 0, 64, 87
1, 223862, Control_c, 0, 64, 88
1, 223870, Note_on_c, 0, 75, 71
1, 223873, Note_off_c, 0, 72, 30
1, 223873, Note_off_c, 0, 73, 58
1, 223877, Control_c, 0, 64, 90
1, 223891, Control_c, 0, 64, 91
1, 223906, Control_c, 0, 64, 93
1, 223921, Control_c, 0, 64, 94
1, 223936, Control_c, 0, 64, 97
1, 223938, Note_off_c, 0, 61, 40
1, 223951, Control_c, 0, 64, 102
1, 223954, Note_on_c, 0, 76, 76
1, 223966, Control_c, 0, 64, 120
1, 223969, Note_off_c, 0, 75, 60
1, 223981, Control_c, 0, 64, 127
1, 224055, Control_c, 0, 64, 96
1, 224055, Note_off_c, 0, 76, 59
1, 224063, Note_on_c, 0, 80, 83
1, 224070, Control_c, 0, 64, 73
1, 224084, Control_c, 0, 64, 66
1, 224099, Control_c, 0, 64, 66
1, 224114, Control_c, 0, 64, 71
1, 224128, Control_c, 0, 64, 77
1, 224143, Control_c, 0, 64, 88
1, 224151, Note_off_c, 0, 49, 59
1, 224158, Control_c, 0, 64, 112
1, 224165, Note_on_c, 0, 57, 57
1, 224180, Control_c, 0, 64, 127
1, 224209, Note_on_c, 0, 78, 69
1, 224209, Note_off_c, 0, 57, 64
1, 224270, Note_on_c, 0, 64, 52
1, 224304, Note_off_c, 0, 64, 65
1, 224325, Note_on_c, 0, 73, 66
1, 224354, Note_off_c, 0, 80, 52
1, 224358, Note_off_c, 0, 73, 61
1, 224380, Note_off_c, 0, 78, 61
1, 224386, Note_on_c, 0, 69, 63
1, 224479, Note_on_c, 0, 76, 65
1, 224500, Note_off_c, 0, 76, 65
1, 224502, Note_off_c, 0, 69, 58
1, 224696, Note_on_c, 0, 68, 56
1, 224702, Note_on_c, 0, 42, 61
1, 224729, Control_c, 0, 64, 92
1, 224744, Control_c, 0, 64, 69
1, 224759, Control_c, 0, 64, 53
1, 224774, Control_c, 0, 64, 48
1, 224789, Control_c, 0, 64, 52
1, 224803, Control_c, 0, 64, 56
1, 224816, Note_on_c, 0, 69, 59
1, 224818, Control_c, 0, 64, 61
1, 224833, Control_c, 0, 64, 66
1, 224848, Control_c, 0, 64, 73
1, 224850, Note_off_c, 0, 42, 61
1, 224863, Control_c, 0, 64, 83
1, 224871, Note_on_c, 0, 49, 60
1, 224878, Control_c, 0, 64, 87
1, 224893, Control_c, 0, 64, 89
1, 224896, Note_off_c, 0, 69, 59
1, 224907, Control_c, 0, 64, 90
1, 224910, Note_on_c, 0, 71, 64
1, 224912, Note_off_c, 0, 68, 37
1, 224922, Control_c, 0, 64, 91
1, 224944, Control_c, 0, 64, 91
1, 224970, Note_off_c, 0, 71, 63
1, 224980, Note_off_c, 0, 49, 64
1, 225003, Control_c, 0, 64, 92
1, 225014, Note_on_c, 0, 61, 59
1, 225015, Note_on_c, 0, 69, 66
1, 225018, Control_c, 0, 64, 93
1, 225033, Control_c, 0, 64, 95
1, 225048, Control_c, 0, 64, 100
1, 225063, Control_c, 0, 64, 110
1, 225069, Note_off_c, 0, 61, 47
1, 225077, Control_c, 0, 64, 127
1, 225096, Note_on_c, 0, 73, 65
1, 225111, Note_off_c, 0, 69, 50
1, 225119, Note_on_c, 0, 49, 60
1, 225137, Control_c, 0, 64, 87
1, 225151, Control_c, 0, 64, 71
1, 225166, Control_c, 0, 64, 63
1, 225185, Note_on_c, 0, 76, 76
1, 225196, Control_c, 0, 64, 67
1, 225207, Note_off_c, 0, 73, 61
1, 225211, Control_c, 0, 64, 73
1, 225218, Note_on_c, 0, 57, 59
1, 225225, Control_c, 0, 64, 83
1, 225240, Control_c, 0, 64, 99
1, 225255, Control_c, 0, 64, 127
1, 225263, Note_off_c, 0, 49, 61
1, 225293, Note_on_c, 0, 64, 63
1, 225307, Note_off_c, 0, 57, 58
1, 225366, Note_off_c, 0, 64, 56
1, 225400, Note_on_c, 0, 75, 74
1, 225423, Note_on_c, 0, 54, 64
1, 225480, Note_off_c, 0, 76, 36
1, 225483, Note_off_c, 0, 54, 56
1, 225518, Note_on_c, 0, 64, 58
1, 225560, Note_off_c, 0, 64, 55
1, 225610, Note_on_c, 0, 69, 68
1, 225704, Note_off_c, 0, 69, 52
1, 225739, Note_on_c, 0, 64, 57
1, 225784, Note_off_c, 0, 64, 56
1, 225815, Note_on_c, 0, 73, 78
1, 225851, Note_on_c, 0, 54, 57
1, 225871, Note_off_c, 0, 75, 53
1, 225983, Note_off_c, 0, 73, 62
1, 226031, Note_on_c, 0, 47, 59
1, 226038, Note_off_c, 0, 54, 35
1, 226047, Note_on_c, 0, 73, 72
1, 226048, Control_c, 0, 64, 91
1, 226063, Control_c, 0, 64, 65
1, 226078, Control_c, 0, 64, 50
1, 226093, Control_c, 0, 64, 41
1, 226109, Control_c, 0, 64, 42
1, 226123, Control_c, 0, 64, 49
1, 226132, Note_off_c, 0, 47, 60
1, 226138, Control_c, 0, 64, 56
1, 226151, Note_on_c, 0, 57, 55
1, 226153, Control_c, 0, 64, 62
1, 226168, Control_c, 0, 64, 69
1, 226183, Control_c, 0, 64, 78
1, 226197, Control_c, 0, 64, 87
1, 226212, Control_c, 0, 64, 94
1, 226218, Note_off_c, 0, 57, 63
1, 226227, Control_c, 0, 64, 101
1, 226242, Control_c, 0, 64, 118
1, 226249, Note_on_c, 0, 64, 58
1, 226257, Control_c, 0, 64, 127
1, 226315, Note_off_c, 0, 64, 57
1, 226345, Control_c, 0, 64, 88
1, 226348, Note_on_c, 0, 54, 65
1, 226360, Control_c, 0, 64, 75
1, 226375, Control_c, 0, 64, 74
1, 226390, Control_c, 0, 64, 78
1, 226404, Control_c, 0, 64, 88
1, 226427, Control_c, 0, 64, 122
1, 226442, Control_c, 0, 64, 127
1, 226455, Note_on_c, 0, 61, 60
1, 226538, Note_off_c, 0, 61, 57
1, 226545, Control_c, 0, 64, 110
1, 226546, Note_on_c, 0, 63, 64
1, 226560, Control_c, 0, 64, 100
1, 226562, Note_off_c, 0, 54, 37
1, 226590, Control_c, 0, 64, 102
1, 226604, Note_off_c, 0, 63, 60
1, 226604, Control_c, 0, 64, 109
1, 226619, Control_c, 0, 64, 127
1, 226658, Note_on_c, 0, 71, 66
1, 226681, Note_on_c, 0, 57, 55
1, 226719, Note_off_c, 0, 73, 50
1, 226729, Note_off_c, 0, 71, 63
1, 226763, Note_off_c, 0, 57, 61
1, 226774, Note_on_c, 0, 59, 53
1, 226896, Note_off_c, 0, 59, 55
1, 226944, Note_on_c, 0, 80, 71
1, 226962, Control_c, 0, 64, 110
1, 226969, Note_on_c, 0, 71, 46
1, 226970, Note_on_c, 0, 69, 40
1, 226977, Control_c, 0, 64, 83
1, 226991, Control_c, 0, 64, 67
1, 227006, Control_c, 0, 64, 56
1, 227021, Control_c, 0, 64, 49
1, 227036, Control_c, 0, 64, 47
1, 227051, Control_c, 0, 64, 49
1, 227066, Control_c, 0, 64, 53
1, 227081, Control_c, 0, 64, 58
1, 227095, Control_c, 0, 64, 63
1, 227096, Note_on_c, 0, 61, 50
1, 227110, Control_c, 0, 64, 67
1, 227125, Control_c, 0, 64, 74
1, 227140, Control_c, 0, 64, 79
1, 227154, Control_c, 0, 64, 82
1, 227176, Control_c, 0, 64, 83
1, 227191, Control_c, 0, 64, 83
1, 227219, Note_off_c, 0, 61, 54
1, 227221, Control_c, 0, 64, 84
1, 227236, Control_c, 0, 64, 84
1, 227241, Note_on_c, 0, 78, 69
1, 227251, Control_c, 0, 64, 86
1, 227257, Note_on_c, 0, 64, 46
1, 227266, Control_c, 0, 64, 89
1, 227280, Control_c, 0, 64, 92
1, 227295, Control_c, 0, 64, 95
1, 227307, Note_off_c, 0, 80, 54
1, 227310, Control_c, 0, 64, 97
1, 227354, Control_c, 0, 64, 99
1, 227377, Note_off_c, 0, 64, 56
1, 227397, Note_off_c, 0, 69, 36
1, 227406, Note_on_c, 0, 63, 46
1, 227421, Note_off_c, 0, 71, 36
1, 227458, Control_c, 0, 64, 101
1, 227473, Control_c, 0, 64, 103
1, 227487, Control_c, 0, 64, 107
1, 227502, Control_c, 0, 64, 116
1, 227517, Control_c, 0, 64, 127
1, 227591, Control_c, 0, 64, 116
1, 227603, Note_off_c, 0, 63, 56
1, 227606, Control_c, 0, 64, 87
1, 227621, Control_c, 0, 64, 71
1, 227626, Note_off_c, 0, 78, 53
1, 227630, Note_on_c, 0, 81, 56
1, 227635, Control_c, 0, 64, 61
1, 227648, Note_on_c, 0, 62, 40
1, 227650, Control_c, 0, 64, 55
1, 227654, Note_on_c, 0, 71, 40
1, 227655, Note_on_c, 0, 69, 35
1, 227665, Control_c, 0, 64, 53
1, 227680, Control_c, 0, 64, 55
1, 227695, Control_c, 0, 64, 58
1, 227710, Control_c, 0, 64, 61
1, 227725, Control_c, 0, 64, 65
1, 227740, Control_c, 0, 64, 69
1, 227755, Control_c, 0, 64, 75
1, 227769, Control_c, 0, 64, 79
1, 227784, Control_c, 0, 64, 81
1, 227793, Note_off_c, 0, 81, 64
1, 227799, Control_c, 0, 64, 83
1, 227814, Control_c, 0, 64, 85
1, 227829, Control_c, 0, 64, 86
1, 227835, Note_on_c, 0, 80, 60
1, 227844, Control_c, 0, 64, 87
1, 227859, Control_c, 0, 64, 88
1, 227889, Control_c, 0, 64, 88
1, 227903, Control_c, 0, 64, 89
1, 227924, Note_on_c, 0, 52, 46
1, 227924, Note_off_c, 0, 62, 36
1, 227925, Control_c, 0, 64, 90
1, 227940, Control_c, 0, 64, 91
1, 227955, Control_c, 0, 64, 92
1, 227964, Note_off_c, 0, 80, 57
1, 227970, Control_c, 0, 64, 92
1, 227984, Control_c, 0, 64, 93
1, 227999, Note_on_c, 0, 83, 57
1, 227999, Control_c, 0, 64, 93
1, 228029, Control_c, 0, 64, 94
1, 228050, Note_off_c, 0, 69, 32
1, 228070, Note_off_c, 0, 71, 37
1, 228082, Note_off_c, 0, 83, 53
1, 228111, Note_on_c, 0, 59, 37
1, 228113, Note_off_c, 0, 52, 34
1, 228138, Note_on_c, 0, 81, 49
1, 228177, Control_c, 0, 64, 94
1, 228192, Control_c, 0, 64, 96
1, 228207, Control_c, 0, 64, 99
1, 228220, Note_off_c, 0, 81, 38
1, 228222, Control_c, 0, 64, 103
1, 228223, Note_on_c, 0, 78, 62
1, 228237, Control_c, 0, 64, 112
1, 228248, Note_off_c, 0, 59, 58
1, 228251, Control_c, 0, 64, 127
1, 228293, Note_off_c, 0, 78, 59
1, 228296, Note_on_c, 0, 64, 40
1, 228340, Control_c, 0, 64, 86
1, 228355, Control_c, 0, 64, 68
1, 228370, Control_c, 0, 64, 59
1, 228377, Note_on_c, 0, 73, 49
1, 228384, Control_c, 0, 64, 59
1, 228387, Note_on_c, 0, 81, 60
1, 228397, Note_on_c, 0, 69, 19
1, 228399, Control_c, 0, 64, 62
1, 228414, Control_c, 0, 64, 65
1, 228419, Note_off_c, 0, 64, 37
1, 228428, Control_c, 0, 64, 70
1, 228443, Control_c, 0, 64, 78
1, 228446, Note_on_c, 0, 61, 33
1, 228451, Note_off_c, 0, 73, 59
1, 228458, Control_c, 0, 64, 91
1, 228473, Control_c, 0, 64, 100
1, 228488, Control_c, 0, 64, 109
1, 228504, Control_c, 0, 64, 127
1, 228524, Note_on_c, 0, 80, 64
1, 228548, Note_off_c, 0, 69, 39
1, 228577, Note_off_c, 0, 81, 38
1, 228595, Note_off_c, 0, 61, 35
1, 228613, Note_on_c, 0, 52, 40
1, 228622, Note_off_c, 0, 80, 56
1, 228634, Note_on_c, 0, 78, 62
1, 228745, Note_off_c, 0, 78, 55
1, 228752, Note_on_c, 0, 76, 51
1, 228768, Note_on_c, 0, 57, 42
1, 228771, Note_off_c, 0, 52, 36
1, 228774, Note_off_c, 0, 76, 58
1, 228862, Note_off_c, 0, 57, 58
1, 228926, Note_on_c, 0, 64, 41
1, 228973, Note_on_c, 0, 85, 62
1, 228992, Note_off_c, 0, 85, 66
1, 229012, Note_off_c, 0, 64, 56
1, 229060, Note_on_c, 0, 85, 78
1, 229071, Note_on_c, 0, 69, 58
1, 229124, Note_off_c, 0, 69, 47
1, 229209, Note_on_c, 0, 64, 47
1, 229352, Note_off_c, 0, 64, 60
1, 229376, Note_on_c, 0, 69, 49
1, 229400, Note_off_c, 0, 69, 56
1, 229492, Note_off_c, 0, 85, 60
1, 229534, Note_on_c, 0, 76, 59
1, 229793, Control_c, 0, 64, 113
1, 229808, Control_c, 0, 64, 85
1, 229817, Note_off_c, 0, 76, 50
1, 229823, Control_c, 0, 64, 68
1, 229832, Note_on_c, 0, 62, 44
1, 229838, Control_c, 0, 64, 57
1, 229838, Note_on_c, 0, 69, 43
1, 229844, Note_on_c, 0, 71, 47
1, 229853, Control_c, 0, 64, 51
1, 229867, Control_c, 0, 64, 53
1, 229882, Control_c, 0, 64, 57
1, 229897, Control_c, 0, 64, 61
1, 229912, Control_c, 0, 64, 66
1, 229927, Control_c, 0, 64, 76
1, 229941, Control_c, 0, 64, 91
1, 229956, Control_c, 0, 64, 119
1, 229971, Control_c, 0, 64, 127
1, 230018, Note_off_c, 0, 69, 54
1, 230023, Note_on_c, 0, 81, 60
1, 230053, Note_off_c, 0, 71, 38
1, 230072, Note_off_c, 0, 62, 36
1, 230091, Note_on_c, 0, 52, 35
1, 230106, Note_off_c, 0, 81, 62
1, 230151, Note_on_c, 0, 78, 63
1, 230231, Note_off_c, 0, 78, 58
1, 230270, Note_on_c, 0, 85, 61
1, 230280, Note_on_c, 0, 59, 35
1, 230291, Note_off_c, 0, 52, 37
1, 230306, Note_off_c, 0, 85, 59
1, 230359, Note_on_c, 0, 83, 63
1, 230377, Note_off_c, 0, 59, 59
1, 230425, Note_off_c, 0, 83, 62
1, 230446, Note_on_c, 0, 64, 32
1, 230449, Note_on_c, 0, 81, 51
1, 230521, Note_off_c, 0, 81, 51
1, 230529, Note_on_c, 0, 78, 69
1, 230554, Note_off_c, 0, 78, 69
1, 230686, Note_off_c, 0, 64, 36
1, 230695, Note_on_c, 0, 81, 64
1, 230702, Note_on_c, 0, 61, 48
1, 230705, Control_c, 0, 64, 84
1, 230710, Note_on_c, 0, 69, 37
1, 230720, Control_c, 0, 64, 68
1, 230735, Control_c, 0, 64, 59
1, 230750, Control_c, 0, 64, 57
1, 230764, Control_c, 0, 64, 58
1, 230779, Control_c, 0, 64, 61
1, 230780, Note_off_c, 0, 69, 63
1, 230794, Control_c, 0, 64, 64
1, 230795, Note_on_c, 0, 80, 60
1, 230809, Control_c, 0, 64, 70
1, 230823, Control_c, 0, 64, 80
1, 230838, Control_c, 0, 64, 91
1, 230853, Control_c, 0, 64, 98
1, 230855, Note_off_c, 0, 80, 65
1, 230868, Control_c, 0, 64, 104
1, 230883, Control_c, 0, 64, 110
1, 230896, Note_off_c, 0, 81, 30
1, 230899, Control_c, 0, 64, 113
1, 230903, Note_off_c, 0, 61, 37
1, 230906, Note_on_c, 0, 52, 42
1, 230935, Note_on_c, 0, 79, 61
1, 230935, Control_c, 0, 64, 117
1, 230950, Control_c, 0, 64, 122
1, 230965, Control_c, 0, 64, 127
1, 230983, Note_off_c, 0, 79, 57
1, 231014, Note_on_c, 0, 81, 54
1, 231114, Note_off_c, 0, 81, 47
1, 231119, Note_off_c, 0, 52, 34
1, 231131, Note_on_c, 0, 78, 54
1, 231154, Note_on_c, 0, 57, 35
1, 231216, Note_off_c, 0, 78, 63
1, 231247, Note_on_c, 0, 77, 45
1, 231319, Note_off_c, 0, 57, 36
1, 231352, Note_off_c, 0, 77, 61
1, 231398, Note_on_c, 0, 76, 50
1, 231412, Note_on_c, 0, 64, 34
1, 231420, Note_off_c, 0, 76, 60
1, 231499, Note_off_c, 0, 64, 63
1, 231636, Note_on_c, 0, 93, 63
1, 231691, Note_off_c, 0, 93, 59
1, 231771, Note_on_c, 0, 73, 40
1, 231794, Note_on_c, 0, 93, 54
1, 231951, Note_off_c, 0, 73, 41
1, 232008, Note_on_c, 0, 64, 35
1, 232297, Note_on_c, 0, 73, 39
1, 232351, Note_off_c, 0, 73, 56
1, 232369, Note_off_c, 0, 64, 39
1, 232696, Note_off_c, 0, 93, 35
1, 232748, Note_on_c, 0, 85, 46
1, 232982, Note_off_c, 0, 85, 37
1, 233099, Control_c, 0, 64, 125
1, 233129, Control_c, 0, 64, 122
1, 233144, Control_c, 0, 64, 120
1, 233225, Control_c, 0, 64, 118
1, 233270, Control_c, 0, 64, 116
1, 233345, Control_c, 0, 64, 114
1, 233404, Control_c, 0, 64, 112
1, 233478, Control_c, 0, 64, 110
1, 233505, Note_on_c, 0, 42, 42
1, 233523, Control_c, 0, 64, 107
1, 233538, Control_c, 0, 64, 103
1, 233552, Control_c, 0, 64, 97
1, 233567, Control_c, 0, 64, 89
1, 233582, Control_c, 0, 64, 80
1, 233597, Control_c, 0, 64, 71
1, 233612, Control_c, 0, 64, 63
1, 233627, Control_c, 0, 64, 55
1, 233641, Control_c, 0, 64, 38
1, 233656, Control_c, 0, 64, 0
1, 233775, Control_c, 0, 64, 38
1, 233789, Control_c, 0, 64, 56
1, 233804, Control_c, 0, 64, 65
1, 233819, Control_c, 0, 64, 73
1, 233833, Control_c, 0, 64, 86
1, 233848, Control_c, 0, 64, 105
1, 233863, Control_c, 0, 64, 127
1, 233934, Note_on_c, 0, 49, 42
1, 234003, Note_off_c, 0, 42, 44
1, 234080, Note_on_c, 0, 73, 62
1, 234150, Note_off_c, 0, 49, 38
1, 234192, Note_on_c, 0, 57, 36
1, 234280, Note_off_c, 0, 57, 54
1, 234290, Note_on_c, 0, 75, 68
1, 234356, Note_on_c, 0, 49, 47
1, 234487, Note_on_c, 0, 57, 43
1, 234493, Note_off_c, 0, 73, 32
1, 234496, Note_on_c, 0, 76, 77
1, 234546, Note_off_c, 0, 75, 58
1, 234602, Note_on_c, 0, 64, 47
1, 234605, Note_off_c, 0, 49, 41
1, 234634, Note_off_c, 0, 57, 54
1, 234679, Control_c, 0, 67, 118
1, 234694, Control_c, 0, 67, 106
1, 234709, Control_c, 0, 67, 93
1, 234724, Control_c, 0, 67, 79
1, 234728, Note_off_c, 0, 64, 24
1, 234730, Note_on_c, 0, 75, 70
1, 234739, Control_c, 0, 67, 65
1, 234751, Note_on_c, 0, 54, 45
1, 234754, Control_c, 0, 67, 52
1, 234769, Control_c, 0, 67, 40
1, 234772, Note_off_c, 0, 76, 60
1, 234784, Control_c, 0, 67, 26
1, 234798, Control_c, 0, 67, 0
1, 234845, Note_on_c, 0, 64, 49
1, 234885, Note_off_c, 0, 64, 51
1, 234918, Control_c, 0, 64, 108
1, 234933, Control_c, 0, 64, 86
1, 234947, Control_c, 0, 64, 81
1, 234960, Note_on_c, 0, 69, 52
1, 234977, Control_c, 0, 64, 83
1, 234992, Control_c, 0, 64, 90
1, 235007, Control_c, 0, 64, 105
1, 235021, Control_c, 0, 64, 127
1, 235034, Note_off_c, 0, 54, 52
1, 235100, Note_off_c, 0, 69, 37
1, 235113, Note_on_c, 0, 64, 42
1, 235153, Note_off_c, 0, 64, 45
1, 235153, Control_c, 0, 67, 19
1, 235183, Control_c, 0, 67, 23
1, 235198, Control_c, 0, 67, 25
1, 235201, Note_on_c, 0, 73, 70
1, 235212, Control_c, 0, 67, 27
1, 235216, Note_off_c, 0, 75, 52
1, 235227, Control_c, 0, 67, 29
1, 235242, Control_c, 0, 67, 32
1, 235257, Control_c, 0, 67, 35
1, 235264, Note_on_c, 0, 54, 41
1, 235272, Control_c, 0, 67, 38
1, 235286, Control_c, 0, 67, 41
1, 235301, Control_c, 0, 67, 43
1, 235316, Control_c, 0, 67, 46
1, 235321, Note_off_c, 0, 54, 52
1, 235331, Control_c, 0, 67, 48
1, 235346, Control_c, 0, 67, 52
1, 235360, Control_c, 0, 67, 55
1, 235375, Control_c, 0, 67, 59
1, 235390, Control_c, 0, 67, 63
1, 235412, Control_c, 0, 67, 66
1, 235427, Control_c, 0, 67, 69
1, 235439, Note_off_c, 0, 73, 61
1, 235441, Note_on_c, 0, 66, 65
1, 235442, Control_c, 0, 67, 72
1, 235457, Control_c, 0, 67, 75
1, 235472, Control_c, 0, 64, 95
1, 235472, Control_c, 0, 67, 79
1, 235486, Control_c, 0, 64, 72
1, 235486, Control_c, 0, 67, 83
1, 235501, Control_c, 0, 64, 57
1, 235501, Control_c, 0, 67, 86
1, 235516, Control_c, 0, 64, 40
1, 235516, Control_c, 0, 67, 89
1, 235531, Control_c, 0, 64, 35
1, 235531, Control_c, 0, 67, 92
1, 235545, Control_c, 0, 64, 38
1, 235545, Control_c, 0, 67, 95
1, 235554, Note_on_c, 0, 47, 44
1, 235560, Control_c, 0, 64, 47
1, 235560, Control_c, 0, 67, 100
1, 235575, Control_c, 0, 64, 56
1, 235575, Control_c, 0, 67, 106
1, 235590, Control_c, 0, 64, 61
1, 235590, Control_c, 0, 67, 115
1, 235605, Control_c, 0, 64, 66
1, 235605, Control_c, 0, 67, 121
1, 235619, Control_c, 0, 64, 73
1, 235619, Control_c, 0, 67, 124
1, 235634, Control_c, 0, 64, 83
1, 235634, Control_c, 0, 67, 126
1, 235639, Note_on_c, 0, 61, 59
1, 235649, Control_c, 0, 64, 91
1, 235659, Note_on_c, 0, 57, 41
1, 235664, Control_c, 0, 64, 99
1, 235679, Control_c, 0, 64, 113
1, 235695, Control_c, 0, 64, 127
1, 235750, Note_off_c, 0, 57, 36
1, 235752, Note_off_c, 0, 47, 35
1, 235768, Note_on_c, 0, 54, 57
1, 235785, Note_on_c, 0, 63, 68
1, 235794, Note_off_c, 0, 54, 63
1, 235931, Note_off_c, 0, 61, 23
1, 236039, Note_off_c, 0, 63, 60
1, 236055, Note_on_c, 0, 69, 49
1, 236084, Note_on_c, 0, 64, 59
1, 236095, Control_c, 0, 64, 116
1, 236109, Control_c, 0, 64, 82
1, 236124, Control_c, 0, 64, 66
1, 236139, Control_c, 0, 64, 63
1, 236154, Control_c, 0, 64, 67
1, 236170, Note_off_c, 0, 69, 62
1, 236176, Control_c, 0, 64, 74
1, 236191, Control_c, 0, 64, 84
1, 236205, Control_c, 0, 64, 100
1, 236220, Control_c, 0, 64, 127
1, 236442, Control_c, 0, 64, 103
1, 236457, Control_c, 0, 64, 91
1, 236462, Note_on_c, 0, 63, 54
1, 236472, Control_c, 0, 64, 87
1, 236477, Note_off_c, 0, 64, 55
1, 236503, Control_c, 0, 64, 88
1, 236518, Control_c, 0, 64, 90
1, 236532, Control_c, 0, 64, 94
1, 236547, Control_c, 0, 64, 96
1, 236680, Control_c, 0, 64, 96
1, 236695, Control_c, 0, 64, 94
1, 236710, Control_c, 0, 64, 92
1, 236725, Control_c, 0, 64, 90
1, 236739, Control_c, 0, 64, 90
1, 236848, Note_off_c, 0, 63, 50
1, 236852, Note_on_c, 0, 49, 38
1, 236869, Note_on_c, 0, 57, 28
1, 236873, Note_on_c, 0, 61, 40
1, 236996, Note_off_c, 0, 61, 49
1, 237004, Note_off_c, 0, 57, 41
1, 237013, Control_c, 0, 64, 90
1, 237028, Control_c, 0, 64, 91
1, 237043, Control_c, 0, 64, 94
1, 237058, Control_c, 0, 64, 98
1, 237073, Control_c, 0, 64, 105
1, 237088, Control_c, 0, 64, 112
1, 237118, Control_c, 0, 64, 103
1, 237128, Note_on_c, 0, 42, 60
1, 237132, Control_c, 0, 64, 81
1, 237140, Note_off_c, 0, 49, 42
1, 237147, Control_c, 0, 64, 66
1, 237162, Control_c, 0, 64, 55
1, 237177, Control_c, 0, 64, 52
1, 237191, Control_c, 0, 64, 56
1, 237192, Note_off_c, 0, 66, 61
1, 237206, Control_c, 0, 64, 62
1, 237221, Control_c, 0, 64, 69
1, 237236, Control_c, 0, 64, 78
1, 237251, Control_c, 0, 64, 90
1, 237265, Control_c, 0, 64, 96
1, 237281, Control_c, 0, 64, 99
1, 237296, Control_c, 0, 64, 101
1, 237328, Note_on_c, 0, 49, 52
1, 237370, Note_off_c, 0, 42, 52
1, 237407, Note_on_c, 0, 73, 75
1, 237440, Note_off_c, 0, 49, 62
1, 237475, Control_c, 0, 64, 103
1, 237484, Note_on_c, 0, 57, 55
1, 237489, Control_c, 0, 64, 106
1, 237504, Control_c, 0, 64, 112
1, 237519, Control_c, 0, 64, 125
1, 237533, Control_c, 0, 64, 127
1, 237538, Note_off_c, 0, 57, 54
1, 237563, Control_c, 0, 64, 109
1, 237571, Note_on_c, 0, 75, 77
1, 237578, Control_c, 0, 64, 93
1, 237593, Control_c, 0, 64, 83
1, 237604, Note_on_c, 0, 49, 60
1, 237607, Control_c, 0, 64, 80
1, 237622, Control_c, 0, 64, 81
1, 237637, Control_c, 0, 64, 86
1, 237652, Control_c, 0, 64, 97
1, 237675, Control_c, 0, 64, 127
1, 237710, Note_off_c, 0, 73, 39
1, 237715, Note_on_c, 0, 57, 55
1, 237743, Note_on_c, 0, 78, 83
1, 237770, Note_off_c, 0, 75, 63
1, 237778, Control_c, 0, 64, 114
1, 237794, Note_off_c, 0, 49, 62
1, 237813, Note_off_c, 0, 57, 60
1, 237815, Note_on_c, 0, 64, 52
1, 237822, Control_c, 0, 64, 116
1, 237837, Control_c, 0, 64, 127
1, 237897, Note_off_c, 0, 64, 33
1, 237931, Note_on_c, 0, 54, 57
1, 238011, Note_off_c, 0, 78, 50
1, 238023, Note_on_c, 0, 76, 84
1, 238024, Note_on_c, 0, 64, 62
1, 238141, Note_off_c, 0, 76, 61
1, 238180, Note_off_c, 0, 64, 54
1, 238209, Control_c, 0, 64, 97
1, 238222, Note_on_c, 0, 76, 78
1, 238224, Control_c, 0, 64, 76
1, 238226, Note_on_c, 0, 69, 61
1, 238238, Control_c, 0, 64, 67
1, 238247, Note_off_c, 0, 54, 60
1, 238253, Control_c, 0, 64, 64
1, 238268, Control_c, 0, 64, 66
1, 238283, Control_c, 0, 64, 70
1, 238298, Control_c, 0, 64, 74
1, 238312, Control_c, 0, 64, 79
1, 238327, Control_c, 0, 64, 83
1, 238342, Control_c, 0, 64, 84
1, 238356, Control_c, 0, 64, 84
1, 238365, Note_on_c, 0, 64, 42
1, 238371, Control_c, 0, 64, 85
1, 238373, Note_off_c, 0, 69, 35
1, 238380, Note_on_c, 0, 75, 75
1, 238386, Control_c, 0, 64, 85
1, 238408, Control_c, 0, 64, 86
1, 238425, Note_off_c, 0, 76, 60
1, 238480, Note_off_c, 0, 64, 26
1, 238518, Note_on_c, 0, 54, 51
1, 238530, Note_on_c, 0, 73, 74
1, 238546, Note_off_c, 0, 75, 57
1, 238577, Note_off_c, 0, 54, 56
1, 238616, Control_c, 0, 64, 86
1, 238645, Control_c, 0, 64, 88
1, 238652, Note_off_c, 0, 73, 62
1, 238660, Control_c, 0, 64, 90
1, 238675, Note_on_c, 0, 66, 71
1, 238675, Control_c, 0, 64, 92
1, 238689, Control_c, 0, 64, 93
1, 238704, Control_c, 0, 64, 89
1, 238719, Control_c, 0, 64, 75
1, 238734, Control_c, 0, 64, 63
1, 238749, Control_c, 0, 64, 51
1, 238763, Control_c, 0, 64, 42
1, 238786, Note_on_c, 0, 47, 48
1, 238793, Control_c, 0, 64, 47
1, 238808, Control_c, 0, 64, 55
1, 238823, Control_c, 0, 64, 62
1, 238838, Control_c, 0, 64, 67
1, 238849, Note_on_c, 0, 61, 70
1, 238852, Control_c, 0, 64, 74
1, 238867, Control_c, 0, 64, 81
1, 238882, Note_on_c, 0, 57, 49
1, 238883, Control_c, 0, 64, 87
1, 238898, Control_c, 0, 64, 94
1, 238913, Control_c, 0, 64, 104
1, 238918, Note_off_c, 0, 47, 36
1, 238927, Control_c, 0, 64, 118
1, 238940, Note_off_c, 0, 57, 55
1, 238942, Control_c, 0, 64, 127
1, 238984, Note_on_c, 0, 54, 39
1, 238991, Note_on_c, 0, 63, 74
1, 239014, Note_off_c, 0, 54, 50
1, 239060, Note_off_c, 0, 66, 37
1, 239120, Note_off_c, 0, 61, 35
1, 239232, Note_on_c, 0, 69, 55
1, 239256, Note_on_c, 0, 66, 68
1, 239261, Control_c, 0, 64, 117
1, 239276, Control_c, 0, 64, 82
1, 239283, Note_off_c, 0, 63, 58
1, 239291, Control_c, 0, 64, 67
1, 239305, Control_c, 0, 64, 61
1, 239309, Note_off_c, 0, 69, 63
1, 239320, Control_c, 0, 64, 64
1, 239335, Control_c, 0, 64, 70
1, 239350, Control_c, 0, 64, 78
1, 239365, Control_c, 0, 64, 92
1, 239379, Control_c, 0, 64, 115
1, 239394, Control_c, 0, 64, 127
1, 239636, Note_on_c, 0, 64, 57
1, 239789, Note_off_c, 0, 64, 59
1, 239795, Control_c, 0, 64, 120
1, 239809, Control_c, 0, 64, 108
1, 239824, Control_c, 0, 64, 104
1, 239854, Control_c, 0, 64, 102
1, 239891, Note_on_c, 0, 64, 49
1, 239965, Control_c, 0, 64, 100
1, 240009, Control_c, 0, 64, 98
1, 240039, Control_c, 0, 64, 95
1, 240054, Control_c, 0, 64, 95
1, 240069, Control_c, 0, 64, 94
1, 240076, Note_off_c, 0, 64, 56
1, 240084, Control_c, 0, 64, 94
1, 240103, Note_on_c, 0, 63, 50
1, 240217, Control_c, 0, 64, 91
1, 240232, Control_c, 0, 64, 86
1, 240247, Control_c, 0, 64, 80
1, 240262, Control_c, 0, 64, 75
1, 240266, Note_on_c, 0, 49, 39
1, 240274, Note_on_c, 0, 57, 33
1, 240276, Control_c, 0, 64, 72
1, 240291, Control_c, 0, 64, 72
1, 240321, Control_c, 0, 64, 73
1, 240325, Note_off_c, 0, 63, 55
1, 240335, Control_c, 0, 64, 75
1, 240349, Note_on_c, 0, 61, 42
1, 240350, Control_c, 0, 64, 78
1, 240365, Control_c, 0, 64, 80
1, 240380, Control_c, 0, 64, 82
1, 240395, Control_c, 0, 64, 83
1, 240407, Note_off_c, 0, 61, 61
1, 240409, Control_c, 0, 64, 84
1, 240424, Control_c, 0, 64, 84
1, 240439, Control_c, 0, 64, 85
1, 240453, Control_c, 0, 64, 86
1, 240468, Control_c, 0, 64, 86
1, 240499, Control_c, 0, 64, 87
1, 240514, Control_c, 0, 64, 88
1, 240529, Control_c, 0, 64, 90
1, 240544, Control_c, 0, 64, 92
1, 240558, Control_c, 0, 64, 93
1, 240573, Control_c, 0, 64, 93
1, 240584, Note_off_c, 0, 57, 53
1, 240588, Control_c, 0, 64, 87
1, 240603, Note_off_c, 0, 49, 41
1, 240603, Control_c, 0, 64, 75
1, 240615, Note_on_c, 0, 45, 44
1, 240618, Control_c, 0, 64, 65
1, 240632, Control_c, 0, 64, 55
1, 240647, Control_c, 0, 64, 49
1, 240670, Control_c, 0, 64, 48
1, 240685, Control_c, 0, 64, 52
1, 240700, Control_c, 0, 64, 58
1, 240714, Control_c, 0, 64, 65
1, 240729, Control_c, 0, 64, 74
1, 240744, Control_c, 0, 64, 88
1, 240758, Control_c, 0, 64, 106
1, 240773, Control_c, 0, 64, 120
1, 240788, Control_c, 0, 64, 127
1, 240814, Note_off_c, 0, 45, 50
1, 240864, Note_on_c, 0, 49, 31
1, 240919, Note_off_c, 0, 49, 45
1, 240936, Note_on_c, 0, 73, 51
1, 240958, Note_off_c, 0, 66, 45
1, 241005, Note_on_c, 0, 61, 36
1, 241087, Note_off_c, 0, 61, 45
1, 241091, Note_on_c, 0, 75, 53
1, 241120, Note_on_c, 0, 49, 46
1, 241164, Note_off_c, 0, 73, 33
1, 241195, Note_off_c, 0, 49, 54
1, 241260, Note_on_c, 0, 54, 43
1, 241261, Note_off_c, 0, 75, 51
1, 241273, Note_on_c, 0, 76, 54
1, 241334, Note_off_c, 0, 54, 58
1, 241362, Note_on_c, 0, 66, 46
1, 241420, Note_off_c, 0, 66, 42
1, 241442, Note_on_c, 0, 75, 60
1, 241484, Note_on_c, 0, 54, 48
1, 241500, Note_off_c, 0, 76, 36
1, 241553, Note_on_c, 0, 73, 72
1, 241564, Note_off_c, 0, 75, 50
1, 241577, Note_off_c, 0, 54, 55
1, 241583, Note_on_c, 0, 49, 50
1, 241686, Note_off_c, 0, 49, 56
1, 241700, Control_c, 0, 64, 106
1, 241708, Note_on_c, 0, 68, 67
1, 241714, Control_c, 0, 64, 76
1, 241719, Note_off_c, 0, 73, 58
1, 241728, Note_on_c, 0, 56, 43
1, 241729, Control_c, 0, 64, 65
1, 241744, Control_c, 0, 64, 63
1, 241759, Control_c, 0, 64, 66
1, 241774, Control_c, 0, 64, 71
1, 241789, Control_c, 0, 64, 80
1, 241795, Note_off_c, 0, 56, 55
1, 241802, Note_on_c, 0, 64, 54
1, 241804, Control_c, 0, 64, 99
1, 241818, Control_c, 0, 64, 127
1, 241884, Note_off_c, 0, 64, 56
1, 241928, Note_on_c, 0, 56, 49
1, 241988, Note_off_c, 0, 56, 52
1, 242030, Note_on_c, 0, 49, 46
1, 242215, Note_on_c, 0, 45, 51
1, 242222, Note_off_c, 0, 49, 41
1, 242230, Note_off_c, 0, 68, 57
1, 242236, Note_on_c, 0, 66, 57
1, 242242, Control_c, 0, 64, 100
1, 242257, Control_c, 0, 64, 75
1, 242272, Control_c, 0, 64, 62
1, 242286, Control_c, 0, 64, 54
1, 242301, Control_c, 0, 64, 55
1, 242316, Control_c, 0, 64, 59
1, 242330, Control_c, 0, 64, 64
1, 242345, Control_c, 0, 64, 69
1, 242352, Note_off_c, 0, 45, 64
1, 242360, Control_c, 0, 64, 80
1, 242375, Control_c, 0, 64, 93
1, 242390, Control_c, 0, 64, 100
1, 242404, Control_c, 0, 64, 102
1, 242413, Note_on_c, 0, 49, 48
1, 242419, Control_c, 0, 64, 105
1, 242434, Control_c, 0, 64, 107
1, 242449, Control_c, 0, 64, 110
1, 242464, Control_c, 0, 64, 115
1, 242476, Note_off_c, 0, 49, 63
1, 242478, Control_c, 0, 64, 127
1, 242492, Note_on_c, 0, 73, 68
1, 242496, Note_off_c, 0, 66, 49
1, 242522, Note_on_c, 0, 61, 51
1, 242602, Note_off_c, 0, 61, 48
1, 242641, Note_on_c, 0, 75, 76
1, 242647, Note_on_c, 0, 49, 60
1, 242731, Note_off_c, 0, 49, 56
1, 242746, Control_c, 0, 64, 102
1, 242760, Control_c, 0, 64, 93
1, 242769, Note_on_c, 0, 54, 54
1, 242775, Control_c, 0, 64, 92
1, 242790, Control_c, 0, 64, 92
1, 242805, Control_c, 0, 64, 97
1, 242811, Note_off_c, 0, 73, 36
1, 242812, Note_on_c, 0, 76, 80
1, 242820, Control_c, 0, 64, 107
1, 242827, Note_off_c, 0, 75, 58
1, 242835, Control_c, 0, 64, 127
1, 242856, Note_off_c, 0, 54, 61
1, 242868, Note_on_c, 0, 66, 54
1, 242949, Note_off_c, 0, 66, 49
1, 242965, Note_on_c, 0, 75, 74
1, 242993, Note_on_c, 0, 54, 55
1, 243063, Note_off_c, 0, 76, 35
1, 243074, Note_on_c, 0, 73, 79
1, 243076, Note_off_c, 0, 54, 56
1, 243080, Note_on_c, 0, 49, 58
1, 243132, Note_off_c, 0, 75, 52
1, 243139, Control_c, 0, 64, 111
1, 243154, Control_c, 0, 64, 80
1, 243163, Note_off_c, 0, 49, 59
1, 243169, Control_c, 0, 64, 66
1, 243184, Control_c, 0, 64, 60
1, 243197, Note_on_c, 0, 56, 56
1, 243199, Control_c, 0, 64, 61
1, 243205, Note_on_c, 0, 71, 76
1, 243214, Control_c, 0, 64, 64
1, 243228, Control_c, 0, 64, 69
1, 243234, Note_off_c, 0, 73, 63
1, 243243, Control_c, 0, 64, 78
1, 243252, Note_off_c, 0, 56, 54
1, 243258, Control_c, 0, 64, 93
1, 243273, Control_c, 0, 64, 113
1, 243279, Note_on_c, 0, 64, 59
1, 243286, Control_c, 0, 64, 127
1, 243342, Note_off_c, 0, 64, 58
1, 243383, Note_on_c, 0, 56, 60
1, 243413, Note_off_c, 0, 56, 63
1, 243503, Note_on_c, 0, 49, 56
1, 243637, Note_off_c, 0, 49, 56
1, 243642, Control_c, 0, 64, 94
1, 243664, Control_c, 0, 64, 65
1, 243667, Note_on_c, 0, 37, 70
1, 243680, Control_c, 0, 64, 42
1, 243695, Control_c, 0, 64, 0
1, 243709, Control_c, 0, 64, 39
1, 243724, Control_c, 0, 64, 57
1, 243739, Control_c, 0, 64, 67
1, 243754, Control_c, 0, 64, 81
1, 243769, Control_c, 0, 64, 127
1, 243799, Note_off_c, 0, 37, 53
1, 243816, Note_on_c, 0, 49, 61
1, 243828, Control_c, 0, 67, 115
1, 243843, Control_c, 0, 67, 91
1, 243848, Note_off_c, 0, 49, 66
1, 243857, Control_c, 0, 67, 67
1, 243872, Control_c, 0, 67, 45
1, 243887, Control_c, 0, 67, 25
1, 243902, Control_c, 0, 67, 0
1, 243908, Note_on_c, 0, 73, 71
1, 243974, Note_off_c, 0, 71, 37
1, 244034, Note_on_c, 0, 64, 56
1, 244124, Control_c, 0, 67, 21
1, 244139, Control_c, 0, 67, 23
1, 244154, Control_c, 0, 67, 25
1, 244164, Note_off_c, 0, 73, 59
1, 244166, Note_on_c, 0, 80, 72
1, 244169, Control_c, 0, 67, 27
1, 244198, Control_c, 0, 67, 29
1, 244206, Note_off_c, 0, 64, 42
1, 244213, Control_c, 0, 67, 31
1, 244227, Control_c, 0, 67, 34
1, 244240, Note_on_c, 0, 56, 48
1, 244242, Control_c, 0, 67, 39
1, 244257, Control_c, 0, 67, 44
1, 244272, Control_c, 0, 67, 48
1, 244287, Control_c, 0, 67, 52
1, 244302, Control_c, 0, 67, 56
1, 244316, Control_c, 0, 67, 58
1, 244327, Note_on_c, 0, 76, 72
1, 244330, Note_off_c, 0, 80, 59
1, 244331, Control_c, 0, 67, 60
1, 244346, Control_c, 0, 67, 62
1, 244351, Note_on_c, 0, 49, 53
1, 244360, Note_off_c, 0, 56, 53
1, 244361, Control_c, 0, 67, 63
1, 244376, Control_c, 0, 67, 63
1, 244391, Control_c, 0, 67, 64
1, 244391, Note_off_c, 0, 49, 63
1, 244457, Control_c, 0, 67, 64
1, 244500, Note_off_c, 0, 76, 63
1, 244503, Control_c, 0, 64, 103
1, 244518, Control_c, 0, 64, 72
1, 244527, Note_on_c, 0, 69, 66
1, 244532, Control_c, 0, 64, 56
1, 244535, Note_on_c, 0, 42, 66
1, 244547, Control_c, 0, 64, 48
1, 244562, Control_c, 0, 64, 53
1, 244577, Control_c, 0, 64, 62
1, 244577, Control_c, 0, 67, 65
1, 244592, Control_c, 0, 64, 68
1, 244592, Control_c, 0, 67, 66
1, 244600, Note_off_c, 0, 42, 54
1, 244606, Control_c, 0, 64, 84
1, 244606, Control_c, 0, 67, 67
1, 244621, Control_c, 0, 64, 127
1, 244621, Control_c, 0, 67, 71
1, 244636, Control_c, 0, 67, 73
1, 244651, Control_c, 0, 67, 73
1, 244656, Note_on_c, 0, 49, 58
1, 244686, Note_off_c, 0, 49, 65
1, 244777, Note_on_c, 0, 64, 65
1, 244865, Note_off_c, 0, 64, 60
1, 244912, Note_on_c, 0, 57, 51
1, 244936, Note_off_c, 0, 57, 61
1, 245034, Note_on_c, 0, 49, 58
1, 245207, Control_c, 0, 64, 90
1, 245207, Control_c, 0, 67, 73
1, 245208, Note_off_c, 0, 49, 35
1, 245220, Note_on_c, 0, 37, 55
1, 245222, Control_c, 0, 64, 69
1, 245223, Note_on_c, 0, 71, 66
1, 245237, Control_c, 0, 64, 59
1, 245245, Note_off_c, 0, 69, 60
1, 245251, Control_c, 0, 64, 60
1, 245251, Control_c, 0, 67, 72
1, 245266, Control_c, 0, 64, 64
1, 245282, Control_c, 0, 64, 71
1, 245297, Control_c, 0, 64, 83
1, 245309, Note_off_c, 0, 37, 60
1, 245312, Control_c, 0, 64, 100
1, 245327, Control_c, 0, 64, 127
1, 245327, Note_on_c, 0, 49, 62
1, 245357, Note_off_c, 0, 49, 66
1, 245401, Control_c, 0, 67, 72
1, 245485, Note_on_c, 0, 64, 54
1, 245578, Control_c, 0, 67, 72
1, 245593, Control_c, 0, 67, 73
1, 245595, Note_off_c, 0, 64, 40
1, 245608, Control_c, 0, 67, 73
1, 245611, Note_on_c, 0, 73, 66
1, 245613, Note_off_c, 0, 71, 56
1, 245622, Control_c, 0, 67, 74
1, 245637, Control_c, 0, 67, 75
1, 245652, Control_c, 0, 67, 76
1, 245667, Control_c, 0, 67, 81
1, 245682, Control_c, 0, 67, 89
1, 245687, Note_on_c, 0, 56, 42
1, 245697, Control_c, 0, 67, 98
1, 245712, Control_c, 0, 67, 103
1, 245726, Control_c, 0, 67, 107
1, 245741, Control_c, 0, 67, 109
1, 245756, Control_c, 0, 67, 111
1, 245786, Control_c, 0, 67, 113
1, 245808, Note_off_c, 0, 56, 52
1, 245810, Note_on_c, 0, 49, 54
1, 245812, Note_on_c, 0, 71, 65
1, 245823, Note_off_c, 0, 73, 58
1, 245830, Control_c, 0, 67, 115
1, 245845, Note_off_c, 0, 49, 64
1, 246045, Control_c, 0, 64, 81
1, 246060, Control_c, 0, 64, 63
1, 246075, Control_c, 0, 64, 51
1, 246078, Note_on_c, 0, 30, 58
1, 246086, Note_off_c, 0, 71, 62
1, 246090, Control_c, 0, 64, 52
1, 246092, Note_on_c, 0, 42, 47
1, 246102, Note_on_c, 0, 69, 54
1, 246105, Control_c, 0, 64, 58
1, 246120, Control_c, 0, 64, 66
1, 246120, Note_off_c, 0, 30, 61
1, 246135, Control_c, 0, 64, 76
1, 246150, Control_c, 0, 64, 102
1, 246154, Note_off_c, 0, 42, 63
1, 246165, Control_c, 0, 64, 127
1, 246289, Note_on_c, 0, 49, 54
1, 246324, Note_off_c, 0, 49, 64
1, 246327, Control_c, 0, 67, 113
1, 246382, Note_on_c, 0, 57, 51
1, 246398, Note_on_c, 0, 73, 62
1, 246403, Note_off_c, 0, 69, 59
1, 246430, Note_off_c, 0, 57, 59
1, 246487, Note_on_c, 0, 49, 58
1, 246558, Note_off_c, 0, 49, 50
1, 246572, Note_off_c, 0, 73, 62
1, 246582, Note_on_c, 0, 57, 60
1, 246582, Note_on_c, 0, 81, 81
1, 246617, Note_off_c, 0, 57, 64
1, 246672, Note_on_c, 0, 64, 53
1, 246743, Note_off_c, 0, 64, 50
1, 246776, Note_on_c, 0, 54, 63
1, 246777, Note_off_c, 0, 81, 63
1, 246788, Note_on_c, 0, 76, 78
1, 246862, Note_off_c, 0, 54, 60
1, 246877, Note_on_c, 0, 61, 63
1, 246950, Note_off_c, 0, 61, 61
1, 246978, Note_on_c, 0, 69, 60
1, 246999, Note_on_c, 0, 78, 84
1, 247026, Note_off_c, 0, 76, 61
1, 247050, Note_off_c, 0, 69, 55
1, 247061, Control_c, 0, 67, 115
1, 247104, Note_on_c, 0, 64, 56
1, 247209, Control_c, 0, 67, 117
1, 247253, Control_c, 0, 67, 122
1, 247257, Note_on_c, 0, 87, 88
1, 247261, Note_on_c, 0, 66, 54
1, 247268, Control_c, 0, 67, 125
1, 247271, Note_off_c, 0, 78, 64
1, 247301, Note_off_c, 0, 64, 49
1, 247316, Note_off_c, 0, 87, 63
1, 247378, Note_off_c, 0, 66, 56
1, 247389, Note_on_c, 0, 69, 60
1, 247423, Note_off_c, 0, 69, 67
1, 247565, Note_on_c, 0, 85, 86
1, 247568, Note_on_c, 0, 75, 58
1, 247579, Note_on_c, 0, 69, 51
1, 247601, Control_c, 0, 64, 115
1, 247616, Control_c, 0, 64, 75
1, 247631, Control_c, 0, 64, 59
1, 247646, Control_c, 0, 64, 49
1, 247661, Control_c, 0, 64, 55
1, 247676, Control_c, 0, 64, 64
1, 247691, Control_c, 0, 64, 75
1, 247703, Note_on_c, 0, 35, 60
1, 247706, Control_c, 0, 64, 120
1, 247715, Note_on_c, 0, 47, 62
1, 247721, Control_c, 0, 64, 127
1, 247730, Note_off_c, 0, 35, 58
1, 247747, Note_off_c, 0, 47, 66
1, 247750, Note_off_c, 0, 85, 65
1, 247885, Note_on_c, 0, 83, 78
1, 247896, Note_off_c, 0, 69, 37
1, 247899, Control_c, 0, 67, 123
1, 247912, Note_on_c, 0, 63, 56
1, 248017, Control_c, 0, 67, 121
1, 248046, Note_on_c, 0, 57, 64
1, 248059, Note_off_c, 0, 63, 40
1, 248076, Control_c, 0, 67, 119
1, 248201, Note_off_c, 0, 57, 55
1, 248212, Note_on_c, 0, 80, 72
1, 248215, Note_on_c, 0, 59, 53
1, 248257, Note_off_c, 0, 83, 58
1, 248317, Note_off_c, 0, 75, 56
1, 248346, Note_off_c, 0, 80, 58
1, 248393, Note_on_c, 0, 71, 53
1, 248409, Control_c, 0, 67, 121
1, 248417, Note_off_c, 0, 71, 65
1, 248454, Note_off_c, 0, 59, 63
1, 248721, Control_c, 0, 67, 119
1, 248736, Control_c, 0, 64, 88
1, 248747, Note_on_c, 0, 28, 57
1, 248747, Note_on_c, 0, 78, 66
1, 248748, Note_on_c, 0, 40, 56
1, 248751, Control_c, 0, 64, 65
1, 248755, Note_on_c, 0, 68, 55
1, 248765, Control_c, 0, 64, 48
1, 248780, Control_c, 0, 64, 38
1, 248795, Control_c, 0, 64, 41
1, 248809, Control_c, 0, 64, 50
1, 248824, Control_c, 0, 64, 60
1, 248839, Control_c, 0, 64, 68
1, 248844, Note_off_c, 0, 28, 61
1, 248854, Control_c, 0, 64, 82
1, 248869, Control_c, 0, 64, 118
1, 248884, Control_c, 0, 64, 127
1, 248894, Note_off_c, 0, 40, 61
1, 249097, Note_on_c, 0, 47, 46
1, 249188, Note_off_c, 0, 47, 61
1, 249210, Note_off_c, 0, 68, 61
1, 249211, Note_on_c, 0, 75, 66
1, 249212, Note_on_c, 0, 59, 52
1, 249231, Note_on_c, 0, 71, 38
1, 249297, Note_off_c, 0, 78, 37
1, 249309, Note_off_c, 0, 59, 41
1, 249339, Note_on_c, 0, 54, 49
1, 249420, Note_off_c, 0, 71, 37
1, 249422, Note_off_c, 0, 54, 61
1, 249430, Note_off_c, 0, 75, 0
1, 249438, Note_on_c, 0, 56, 55
1, 249446, Note_on_c, 0, 76, 64
1, 249456, Note_on_c, 0, 64, 36
1, 249467, Poly_aftertouch_c, 0, 75, 127
1, 249486, Note_off_c, 0, 64, 52
1, 249496, Note_off_c, 0, 56, 60
1, 249533, Poly_aftertouch_c, 0, 75, 0
1, 249536, Note_on_c, 0, 61, 59
1, 249575, Note_off_c, 0, 61, 62
1, 249674, Note_on_c, 0, 59, 47
1, 249684, Note_on_c, 0, 78, 71
1, 249694, Note_off_c, 0, 76, 61
1, 249703, Note_off_c, 0, 59, 53
1, 249780, Note_on_c, 0, 59, 37
1, 249810, Note_off_c, 0, 59, 53
1, 249819, Note_off_c, 0, 78, 61
1, 249876, Note_on_c, 0, 71, 52
1, 249895, Note_on_c, 0, 76, 62
1, 249906, Note_off_c, 0, 71, 59
1, 249995, Note_on_c, 0, 66, 46
1, 250039, Note_off_c, 0, 66, 45
1, 250067, Note_off_c, 0, 76, 59
1, 250084, Note_on_c, 0, 68, 54
1, 250097, Note_on_c, 0, 73, 63
1, 250116, Note_off_c, 0, 68, 57
1, 250243, Note_on_c, 0, 76, 17
1, 250286, Note_off_c, 0, 76, 37
1, 250418, Note_off_c, 0, 73, 53
1, 250433, Note_on_c, 0, 71, 46
1, 250448, Control_c, 0, 67, 117
1, 250597, Note_on_c, 0, 66, 42
1, 250662, Note_off_c, 0, 66, 54
1, 250730, Control_c, 0, 67, 119
1, 250742, Note_on_c, 0, 64, 40
1, 250763, Note_on_c, 0, 68, 31
1, 250779, Note_off_c, 0, 64, 48
1, 250793, Note_off_c, 0, 68, 49
1, 250818, Control_c, 0, 64, 97
1, 250826, Note_off_c, 0, 71, 42
1, 250833, Control_c, 0, 64, 90
1, 250848, Control_c, 0, 64, 91
1, 250851, Note_on_c, 0, 80, 72
1, 250864, Control_c, 0, 64, 102
1, 250864, Control_c, 0, 67, 121
1, 250879, Control_c, 0, 64, 127
1, 250891, Note_on_c, 0, 61, 24
1, 251041, Note_off_c, 0, 61, 34
1, 251067, Note_on_c, 0, 59, 41
1, 251077, Note_on_c, 0, 64, 14
1, 251098, Note_off_c, 0, 59, 63
1, 251115, Note_off_c, 0, 64, 38
1, 251374, Poly_aftertouch_c, 0, 47, 0
1, 251548, Note_on_c, 0, 28, 53
1, 251582, Control_c, 0, 64, 87
1, 251591, Note_off_c, 0, 28, 59
1, 251597, Control_c, 0, 64, 70
1, 251611, Control_c, 0, 64, 69
1, 251626, Control_c, 0, 64, 83
1, 251629, Note_on_c, 0, 40, 45
1, 251641, Control_c, 0, 64, 127
1, 251699, Note_off_c, 0, 40, 58
1, 251777, Note_off_c, 0, 80, 62
1, 251783, Note_on_c, 0, 81, 64
1, 251787, Note_on_c, 0, 47, 46
1, 251844, Note_off_c, 0, 47, 61
1, 252108, Note_on_c, 0, 59, 42
1, 252230, Note_off_c, 0, 59, 56
1, 252234, Note_on_c, 0, 69, 40
1, 252246, Note_on_c, 0, 85, 56
1, 252297, Note_off_c, 0, 69, 48
1, 252351, Note_on_c, 0, 64, 28
1, 252363, Note_off_c, 0, 81, 59
1, 252392, Note_off_c, 0, 64, 52
1, 252421, Note_on_c, 0, 66, 47
1, 252433, Note_off_c, 0, 85, 63
1, 252436, Note_on_c, 0, 93, 65
1, 252497, Note_off_c, 0, 66, 59
1, 252522, Note_on_c, 0, 73, 57
1, 252556, Note_off_c, 0, 73, 64
1, 252601, Note_off_c, 0, 93, 64
1, 252615, Note_on_c, 0, 88, 71
1, 252716, Note_on_c, 0, 73, 61
1, 252773, Note_off_c, 0, 73, 50
1, 252827, Note_on_c, 0, 90, 61
1, 252828, Note_off_c, 0, 88, 57
1, 252832, Note_on_c, 0, 81, 31
1, 252907, Note_off_c, 0, 81, 40
1, 252917, Note_on_c, 0, 76, 53
1, 253000, Note_off_c, 0, 76, 62
1, 253055, Note_on_c, 0, 78, 41
1, 253060, Note_on_c, 0, 97, 58
1, 253072, Note_off_c, 0, 90, 63
1, 253089, Note_off_c, 0, 97, 67
1, 253171, Note_off_c, 0, 78, 55
1, 253197, Note_on_c, 0, 85, 54
1, 253224, Note_off_c, 0, 85, 65
1, 253414, Control_c, 0, 67, 119
1, 253424, Note_on_c, 0, 80, 78
1, 253429, Control_c, 0, 64, 105
1, 253432, Note_on_c, 0, 75, 61
1, 253444, Control_c, 0, 64, 84
1, 253459, Control_c, 0, 64, 79
1, 253474, Control_c, 0, 64, 85
1, 253489, Control_c, 0, 64, 108
1, 253504, Control_c, 0, 64, 127
1, 253605, Note_on_c, 0, 83, 47
1, 253610, Note_off_c, 0, 80, 63
1, 253649, Note_on_c, 0, 84, 17
1, 253677, Note_off_c, 0, 83, 61
1, 253688, Note_off_c, 0, 75, 57
1, 253691, Note_off_c, 0, 84, 52
1, 253696, Note_on_c, 0, 69, 46
1, 253721, Note_off_c, 0, 69, 62
1, 253742, Note_on_c, 0, 95, 59
1, 253863, Note_off_c, 0, 95, 37
1, 253870, Note_on_c, 0, 81, 66
1, 253870, Note_on_c, 0, 85, 75
1, 253881, Note_on_c, 0, 59, 46
1, 253927, Note_off_c, 0, 59, 48
1, 254034, Note_on_c, 0, 87, 68
1, 254038, Note_on_c, 0, 47, 47
1, 254071, Note_off_c, 0, 47, 65
1, 254115, Note_off_c, 0, 81, 39
1, 254183, Note_on_c, 0, 90, 68
1, 254188, Note_off_c, 0, 85, 37
1, 254221, Note_on_c, 0, 28, 52
1, 254252, Note_off_c, 0, 28, 57
1, 254277, Note_off_c, 0, 87, 38
1, 254293, Note_on_c, 0, 40, 51
1, 254311, Control_c, 0, 67, 117
1, 254323, Note_off_c, 0, 40, 64
1, 254432, Note_on_c, 0, 47, 53
1, 254432, Note_on_c, 0, 83, 77
1, 254526, Note_off_c, 0, 90, 47
1, 254599, Note_on_c, 0, 87, 58
1, 254659, Note_off_c, 0, 83, 59
1, 254690, Note_off_c, 0, 47, 64
1, 254705, Note_off_c, 0, 87, 53
1, 254708, Note_on_c, 0, 56, 44
1, 254723, Note_on_c, 0, 95, 59
1, 254735, Note_off_c, 0, 56, 54
1, 254761, Note_off_c, 0, 95, 64
1, 254806, Note_on_c, 0, 88, 71
1, 254813, Note_on_c, 0, 85, 63
1, 254860, Control_c, 0, 67, 115
1, 254896, Note_on_c, 0, 64, 58
1, 254896, Note_off_c, 0, 85, 59
1, 254905, Note_on_c, 0, 90, 66
1, 254934, Note_off_c, 0, 64, 54
1, 254963, Note_off_c, 0, 88, 54
1, 254988, Note_on_c, 0, 92, 65
1, 255045, Control_c, 0, 67, 117
1, 255073, Note_off_c, 0, 90, 36
1, 255104, Note_on_c, 0, 87, 64
1, 255118, Note_on_c, 0, 71, 59
1, 255130, Note_on_c, 0, 80, 49
1, 255163, Note_off_c, 0, 80, 50
1, 255167, Note_off_c, 0, 87, 60
1, 255233, Note_off_c, 0, 92, 26
1, 255268, Note_on_c, 0, 95, 58
1, 255319, Note_off_c, 0, 95, 59
1, 255385, Note_on_c, 0, 68, 63
1, 255391, Note_off_c, 0, 71, 43
1, 255394, Note_on_c, 0, 90, 65
1, 255418, Note_off_c, 0, 68, 64
1, 255459, Note_off_c, 0, 90, 61
1, 255480, Note_on_c, 0, 88, 79
1, 255572, Note_on_c, 0, 83, 72
1, 255576, Note_off_c, 0, 88, 64
1, 255589, Note_on_c, 0, 59, 45
1, 255617, Note_off_c, 0, 83, 65
1, 255623, Control_c, 0, 67, 115
1, 255659, Note_on_c, 0, 80, 60
1, 255677, Note_off_c, 0, 80, 65
1, 255765, Note_off_c, 0, 59, 51
1, 255771, Note_on_c, 0, 83, 79
1, 255795, Note_on_c, 0, 61, 50
1, 255862, Note_off_c, 0, 61, 59
1, 255888, Note_on_c, 0, 68, 57
1, 255926, Note_on_c, 0, 59, 52
1, 255940, Note_off_c, 0, 68, 47
1, 255963, Note_on_c, 0, 75, 63
1, 256025, Note_off_c, 0, 75, 62
1, 256038, Note_off_c, 0, 59, 48
1, 256060, Note_on_c, 0, 80, 76
1, 256077, Note_on_c, 0, 71, 57
1, 256085, Note_on_c, 0, 52, 38
1, 256118, Note_off_c, 0, 71, 58
1, 256121, Note_off_c, 0, 83, 43
1, 256134, Note_off_c, 0, 52, 61
1, 256144, Note_on_c, 0, 47, 52
1, 256170, Note_on_c, 0, 73, 65
1, 256173, Note_off_c, 0, 47, 64
1, 256267, Note_on_c, 0, 76, 73
1, 256304, Note_on_c, 0, 28, 64
1, 256321, Note_off_c, 0, 73, 56
1, 256341, Note_off_c, 0, 28, 60
1, 256395, Control_c, 0, 64, 114
1, 256401, Note_on_c, 0, 40, 53
1, 256409, Control_c, 0, 64, 77
1, 256410, Note_off_c, 0, 80, 55
1, 256424, Control_c, 0, 64, 67
1, 256439, Control_c, 0, 64, 70
1, 256451, Note_off_c, 0, 40, 60
1, 256454, Control_c, 0, 64, 92
1, 256470, Control_c, 0, 64, 127
1, 256479, Note_off_c, 0, 76, 62
1, 256506, Note_on_c, 0, 81, 85
1, 256518, Note_on_c, 0, 47, 54
1, 256558, Note_off_c, 0, 47, 64
1, 256653, Note_on_c, 0, 73, 58
1, 256666, Note_off_c, 0, 81, 57
1, 256715, Note_off_c, 0, 73, 58
1, 256771, Note_on_c, 0, 81, 65
1, 256776, Note_on_c, 0, 59, 47
1, 256816, Note_on_c, 0, 76, 48
1, 256854, Note_off_c, 0, 81, 62
1, 256875, Note_on_c, 0, 78, 64
1, 256883, Note_off_c, 0, 76, 56
1, 256906, Note_off_c, 0, 59, 60
1, 256932, Note_on_c, 0, 80, 75
1, 256934, Note_on_c, 0, 69, 50
1, 257011, Note_off_c, 0, 78, 49
1, 257019, Note_on_c, 0, 85, 63
1, 257051, Note_off_c, 0, 80, 62
1, 257082, Note_off_c, 0, 69, 53
1, 257105, Note_off_c, 0, 85, 59
1, 257137, Note_on_c, 0, 64, 43
1, 257141, Note_on_c, 0, 78, 62
1, 257163, Note_off_c, 0, 78, 61
1, 257169, Note_on_c, 0, 61, 47
1, 257301, Note_on_c, 0, 97, 62
1, 257308, Note_off_c, 0, 64, 36
1, 257366, Note_on_c, 0, 54, 49
1, 257379, Note_on_c, 0, 66, 40
1, 257393, Note_off_c, 0, 54, 59
1, 257396, Note_on_c, 0, 90, 66
1, 257424, Note_off_c, 0, 66, 62
1, 257448, Note_off_c, 0, 61, 21
1, 257461, Note_off_c, 0, 97, 38
1, 257473, Note_off_c, 0, 90, 58
1, 257477, Note_on_c, 0, 95, 58
1, 257548, Note_on_c, 0, 64, 39
1, 257567, Note_on_c, 0, 93, 55
1, 257578, Note_on_c, 0, 73, 50
1, 257597, Note_off_c, 0, 95, 60
1, 257637, Note_off_c, 0, 93, 64
1, 257647, Note_off_c, 0, 73, 57
1, 257653, Note_on_c, 0, 85, 61
1, 257680, Note_off_c, 0, 85, 67
1, 257878, Control_c, 0, 64, 99
1, 257893, Control_c, 0, 64, 76
1, 257894, Note_off_c, 0, 64, 51
1, 257898, Note_on_c, 0, 63, 53
1, 257900, Note_on_c, 0, 80, 73
1, 257907, Control_c, 0, 64, 66
1, 257909, Note_on_c, 0, 71, 43
1, 257922, Control_c, 0, 64, 66
1, 257937, Control_c, 0, 64, 72
1, 257952, Control_c, 0, 64, 88
1, 257967, Control_c, 0, 64, 127
1, 257978, Note_off_c, 0, 71, 63
1, 257981, Control_c, 0, 67, 117
1, 257999, Note_off_c, 0, 63, 59
1, 258054, Note_on_c, 0, 69, 45
1, 258124, Note_off_c, 0, 80, 55
1, 258166, Note_on_c, 0, 75, 49
1, 258278, Note_on_c, 0, 71, 47
1, 258335, Note_off_c, 0, 75, 37
1, 258353, Note_off_c, 0, 71, 61
1, 258365, Note_off_c, 0, 69, 39
1, 258374, Note_on_c, 0, 73, 53
1, 258452, Note_off_c, 0, 73, 55
1, 258471, Note_on_c, 0, 75, 43
1, 258604, Control_c, 0, 64, 100
1, 258619, Control_c, 0, 64, 71
1, 258641, Control_c, 0, 64, 56
1, 258655, Note_on_c, 0, 28, 51
1, 258655, Control_c, 0, 64, 48
1, 258658, Note_off_c, 0, 75, 63
1, 258663, Note_on_c, 0, 40, 43
1, 258663, Note_on_c, 0, 76, 54
1, 258670, Note_on_c, 0, 68, 25
1, 258670, Control_c, 0, 64, 54
1, 258685, Control_c, 0, 64, 62
1, 258700, Control_c, 0, 64, 68
1, 258715, Control_c, 0, 64, 84
1, 258729, Control_c, 0, 64, 127
1, 258732, Note_off_c, 0, 28, 61
1, 258771, Note_off_c, 0, 40, 60
1, 258771, Note_off_c, 0, 76, 63
1, 258792, Note_off_c, 0, 68, 57
1, 258926, Note_on_c, 0, 59, 40
1, 258938, Control_c, 0, 67, 115
1, 258975, Note_off_c, 0, 59, 51
1, 259047, Note_on_c, 0, 47, 45
1, 259082, Note_on_c, 0, 71, 14
1, 259132, Note_off_c, 0, 71, 47
1, 259139, Note_on_c, 0, 66, 50
1, 259193, Note_off_c, 0, 47, 61
1, 259215, Note_off_c, 0, 66, 47
1, 259219, Note_on_c, 0, 59, 44
1, 259236, Note_on_c, 0, 68, 56
1, 259246, Note_off_c, 0, 59, 63
1, 259325, Note_off_c, 0, 68, 51
1, 259346, Note_on_c, 0, 73, 57
1, 259464, Control_c, 0, 67, 117
1, 259496, Note_on_c, 0, 68, 43
1, 259497, Note_on_c, 0, 64, 44
1, 259507, Note_on_c, 0, 56, 49
1, 259507, Note_on_c, 0, 71, 58
1, 259510, Note_off_c, 0, 73, 36
1, 259567, Note_off_c, 0, 71, 62
1, 259662, Note_on_c, 0, 71, 59
1, 259736, Note_off_c, 0, 71, 52
1, 259774, Note_on_c, 0, 83, 70
1, 259811, Note_off_c, 0, 68, 44
1, 259868, Note_on_c, 0, 78, 70
1, 259879, Note_off_c, 0, 83, 62
1, 259944, Note_off_c, 0, 78, 60
1, 259954, Note_on_c, 0, 80, 73
1, 260019, Note_off_c, 0, 80, 60
1, 260050, Note_off_c, 0, 56, 60
1, 260058, Note_on_c, 0, 85, 61
1, 260157, Note_off_c, 0, 64, 54
1, 260164, Note_off_c, 0, 85, 64
1, 260190, Note_on_c, 0, 59, 68
1, 260198, Control_c, 0, 64, 115
1, 260211, Note_on_c, 0, 83, 63
1, 260213, Control_c, 0, 64, 107
1, 260227, Control_c, 0, 64, 110
1, 260242, Control_c, 0, 64, 127
1, 260288, Note_off_c, 0, 59, 62
1, 260315, Note_off_c, 0, 83, 59
1, 260335, Note_on_c, 0, 80, 55
1, 260422, Note_off_c, 0, 80, 58
1, 260480, Note_on_c, 0, 76, 57
1, 260507, Note_off_c, 0, 76, 65
1, 260585, Control_c, 0, 67, 115
1, 260637, Note_on_c, 0, 68, 72
1, 260649, Note_on_c, 0, 73, 68
1, 260745, Note_off_c, 0, 73, 54
1, 260792, Note_on_c, 0, 71, 44
1, 260860, Note_off_c, 0, 71, 52
1, 260942, Note_on_c, 0, 59, 59
1, 261017, Note_on_c, 0, 28, 56
1, 261021, Control_c, 0, 64, 92
1, 261036, Control_c, 0, 64, 66
1, 261036, Control_c, 0, 67, 113
1, 261051, Control_c, 0, 64, 59
1, 261059, Note_off_c, 0, 28, 60
1, 261066, Control_c, 0, 64, 65
1, 261081, Control_c, 0, 64, 81
1, 261087, Note_on_c, 0, 40, 52
1, 261096, Control_c, 0, 64, 127
1, 261140, Control_c, 0, 67, 115
1, 261151, Note_off_c, 0, 40, 58
1, 261179, Note_off_c, 0, 59, 61
1, 261193, Note_off_c, 0, 68, 41
1, 261230, Note_on_c, 0, 69, 73
1, 261234, Note_on_c, 0, 47, 51
1, 261286, Note_off_c, 0, 47, 59
1, 261329, Note_off_c, 0, 69, 57
1, 261348, Control_c, 0, 67, 113
1, 261606, Note_on_c, 0, 85, 51
1, 261667, Note_off_c, 0, 85, 50
1, 261725, Note_on_c, 0, 73, 51
1, 261733, Note_on_c, 0, 93, 59
1, 261779, Note_off_c, 0, 93, 62
1, 261829, Note_on_c, 0, 88, 65
1, 261863, Note_off_c, 0, 88, 65
1, 261898, Note_off_c, 0, 73, 51
1, 261908, Note_on_c, 0, 81, 47
1, 261913, Note_on_c, 0, 90, 63
1, 261949, Note_off_c, 0, 90, 61
1, 261993, Note_on_c, 0, 97, 60
1, 261999, Note_off_c, 0, 81, 35
1, 262014, Note_off_c, 0, 97, 64
1, 262071, Note_on_c, 0, 85, 65
1, 262076, Note_on_c, 0, 76, 47
1, 262098, Note_on_c, 0, 73, 54
1, 262102, Note_off_c, 0, 85, 62
1, 262163, Note_off_c, 0, 76, 38
1, 262187, Note_on_c, 0, 100, 43
1, 262259, Note_off_c, 0, 100, 51
1, 262262, Note_on_c, 0, 93, 54
1, 262284, Note_on_c, 0, 66, 35
1, 262284, Note_on_c, 0, 78, 44
1, 262286, Note_off_c, 0, 73, 34
1, 262314, Note_off_c, 0, 66, 48
1, 262319, Note_off_c, 0, 78, 53
1, 262321, Note_off_c, 0, 93, 63
1, 262379, Note_on_c, 0, 99, 61
1, 262492, Note_off_c, 0, 99, 57
1, 262524, Note_on_c, 0, 85, 53
1, 262525, Note_on_c, 0, 97, 55
1, 262527, Note_on_c, 0, 76, 51
1, 262551, Note_off_c, 0, 85, 66
1, 262568, Note_off_c, 0, 76, 59
1, 262639, Note_off_c, 0, 97, 57
1, 262657, Note_on_c, 0, 90, 60
1, 262684, Note_off_c, 0, 90, 67
1, 262829, Control_c, 0, 67, 111
1, 262919, Control_c, 0, 64, 79
1, 262922, Note_on_c, 0, 68, 67
1, 262924, Note_on_c, 0, 83, 68
1, 262929, Note_on_c, 0, 63, 61
1, 262934, Control_c, 0, 64, 62
1, 262940, Note_on_c, 0, 57, 50
1, 262949, Control_c, 0, 64, 60
1, 262964, Control_c, 0, 64, 65
1, 262979, Control_c, 0, 64, 74
1, 262993, Control_c, 0, 64, 97
1, 263008, Control_c, 0, 64, 127
1, 263028, Note_off_c, 0, 83, 61
1, 263043, Note_off_c, 0, 68, 63
1, 263084, Note_off_c, 0, 57, 62
1, 263093, Note_off_c, 0, 63, 62
1, 263196, Note_on_c, 0, 83, 60
1, 263282, Control_c, 0, 67, 109
1, 263287, Note_on_c, 0, 47, 49
1, 263312, Control_c, 0, 67, 105
1, 263314, Note_off_c, 0, 47, 60
1, 263326, Control_c, 0, 67, 101
1, 263338, Note_off_c, 0, 83, 62
1, 263341, Control_c, 0, 67, 99
1, 263374, Note_on_c, 0, 95, 63
1, 263433, Note_off_c, 0, 95, 55
1, 263468, Note_on_c, 0, 69, 67
1, 263480, Note_on_c, 0, 85, 67
1, 263555, Note_off_c, 0, 85, 64
1, 263585, Note_on_c, 0, 87, 68
1, 263610, Note_off_c, 0, 69, 59
1, 263686, Note_off_c, 0, 87, 54
1, 263699, Note_on_c, 0, 90, 46
1, 263726, Note_off_c, 0, 90, 57
1, 263757, Control_c, 0, 64, 97
1, 263772, Control_c, 0, 64, 69
1, 263787, Control_c, 0, 64, 56
1, 263791, Note_on_c, 0, 71, 74
1, 263796, Note_on_c, 0, 64, 60
1, 263802, Note_on_c, 0, 59, 50
1, 263802, Control_c, 0, 64, 53
1, 263806, Note_on_c, 0, 56, 64
1, 263807, Note_on_c, 0, 80, 57
1, 263809, Note_on_c, 0, 83, 69
1, 263816, Control_c, 0, 64, 60
1, 263831, Control_c, 0, 64, 70
1, 263846, Control_c, 0, 64, 89
1, 263848, Note_off_c, 0, 71, 63
1, 263868, Control_c, 0, 64, 127
1, 263871, Note_off_c, 0, 64, 61
1, 263880, Note_off_c, 0, 59, 61
1, 263883, Control_c, 0, 67, 101
1, 263913, Note_off_c, 0, 56, 60
1, 263937, Note_off_c, 0, 80, 60
1, 263980, Note_off_c, 0, 83, 38
1, 263993, Note_on_c, 0, 87, 66
1, 264016, Control_c, 0, 67, 99
1, 264065, Note_on_c, 0, 40, 70
1, 264082, Note_on_c, 0, 47, 52
1, 264090, Control_c, 0, 67, 97
1, 264091, Note_off_c, 0, 40, 66
1, 264102, Note_off_c, 0, 87, 63
1, 264115, Note_off_c, 0, 47, 65
1, 264120, Control_c, 0, 67, 96
1, 264135, Control_c, 0, 67, 94
1, 264139, Note_on_c, 0, 95, 65
1, 264149, Control_c, 0, 67, 89
1, 264164, Control_c, 0, 67, 86
1, 264179, Control_c, 0, 67, 85
1, 264193, Control_c, 0, 67, 85
1, 264238, Control_c, 0, 67, 85
1, 264253, Control_c, 0, 67, 86
1, 264266, Note_on_c, 0, 88, 72
1, 264267, Control_c, 0, 67, 86
1, 264274, Note_on_c, 0, 73, 81
1, 264282, Control_c, 0, 67, 87
1, 264297, Control_c, 0, 67, 87
1, 264348, Note_off_c, 0, 73, 60
1, 264367, Note_off_c, 0, 88, 63
1, 264385, Note_on_c, 0, 90, 66
1, 264392, Note_off_c, 0, 95, 40
1, 264415, Control_c, 0, 67, 87
1, 264430, Control_c, 0, 67, 86
1, 264446, Control_c, 0, 67, 86
1, 264476, Control_c, 0, 67, 85
1, 264476, Note_on_c, 0, 92, 66
1, 264490, Control_c, 0, 67, 85
1, 264512, Note_on_c, 0, 59, 64
1, 264551, Note_on_c, 0, 68, 52
1, 264573, Note_off_c, 0, 90, 37
1, 264624, Note_off_c, 0, 92, 65
1, 264628, Note_on_c, 0, 75, 82
1, 264631, Control_c, 0, 64, 83
1, 264631, Control_c, 0, 67, 85
1, 264646, Control_c, 0, 64, 71
1, 264661, Control_c, 0, 64, 69
1, 264676, Control_c, 0, 64, 74
1, 264690, Control_c, 0, 64, 82
1, 264705, Control_c, 0, 64, 94
1, 264720, Control_c, 0, 64, 127
1, 264720, Control_c, 0, 67, 86
1, 264763, Note_on_c, 0, 95, 64
1, 264823, Control_c, 0, 67, 85
1, 264828, Note_off_c, 0, 59, 61
1, 264858, Note_off_c, 0, 95, 38
1, 264858, Note_off_c, 0, 75, 62
1, 264873, Note_on_c, 0, 90, 66
1, 264920, Note_off_c, 0, 68, 58
1, 264947, Note_on_c, 0, 76, 78
1, 264965, Note_on_c, 0, 88, 74
1, 264966, Note_off_c, 0, 90, 55
1, 264971, Control_c, 0, 67, 86
1, 265054, Note_off_c, 0, 76, 57
1, 265081, Note_on_c, 0, 83, 62
1, 265176, Note_on_c, 0, 80, 64
1, 265269, Note_off_c, 0, 88, 49
1, 265282, Note_off_c, 0, 80, 53
1, 265298, Note_on_c, 0, 71, 71
1, 265344, Control_c, 0, 64, 100
1, 265366, Control_c, 0, 64, 85
1, 265381, Control_c, 0, 64, 81
1, 265389, Note_off_c, 0, 83, 38
1, 265395, Control_c, 0, 64, 81
1, 265410, Control_c, 0, 64, 84
1, 265425, Control_c, 0, 64, 89
1, 265437, Note_on_c, 0, 80, 64
1, 265439, Control_c, 0, 64, 102
1, 265454, Control_c, 0, 64, 127
1, 265576, Note_on_c, 0, 87, 72
1, 265653, Note_off_c, 0, 80, 36
1, 265692, Control_c, 0, 64, 106
1, 265707, Control_c, 0, 64, 91
1, 265708, Note_on_c, 0, 83, 60
1, 265711, Note_on_c, 0, 68, 61
1, 265721, Control_c, 0, 64, 88
1, 265722, Note_off_c, 0, 87, 53
1, 265736, Control_c, 0, 64, 90
1, 265751, Note_off_c, 0, 71, 37
1, 265751, Control_c, 0, 64, 94
1, 265765, Control_c, 0, 64, 105
1, 265780, Control_c, 0, 64, 127
1, 265826, Note_off_c, 0, 83, 61
1, 265840, Note_on_c, 0, 85, 61
1, 265869, Control_c, 0, 67, 86
1, 265884, Control_c, 0, 67, 87
1, 265899, Control_c, 0, 67, 88
1, 265913, Control_c, 0, 67, 89
1, 265928, Control_c, 0, 67, 91
1, 265943, Control_c, 0, 67, 94
1, 265958, Control_c, 0, 67, 96
1, 265967, Note_off_c, 0, 85, 52
1, 265973, Control_c, 0, 67, 98
1, 265982, Note_on_c, 0, 88, 64
1, 265988, Control_c, 0, 67, 100
1, 266003, Control_c, 0, 67, 106
1, 266017, Control_c, 0, 67, 114
1, 266033, Control_c, 0, 67, 123
1, 266048, Control_c, 0, 67, 127
1, 266140, Note_off_c, 0, 68, 52
1, 266162, Note_off_c, 0, 88, 57
1, 266188, Control_c, 0, 64, 106
1, 266190, Note_on_c, 0, 69, 64
1, 266202, Note_on_c, 0, 83, 68
1, 266203, Control_c, 0, 64, 72
1, 266210, Note_on_c, 0, 76, 52
1, 266218, Control_c, 0, 64, 52
1, 266233, Control_c, 0, 64, 41
1, 266248, Control_c, 0, 64, 42
1, 266262, Control_c, 0, 64, 50
1, 266277, Control_c, 0, 64, 59
1, 266292, Control_c, 0, 64, 67
1, 266307, Control_c, 0, 64, 85
1, 266322, Control_c, 0, 64, 127
1, 266368, Note_off_c, 0, 69, 61
1, 266370, Note_off_c, 0, 76, 57
1, 266396, Note_off_c, 0, 83, 63
1, 266408, Note_on_c, 0, 88, 58
1, 266441, Note_on_c, 0, 59, 46
1, 266474, Note_off_c, 0, 59, 65
1, 266509, Note_on_c, 0, 87, 62
1, 266511, Note_off_c, 0, 88, 48
1, 266590, Note_on_c, 0, 85, 55
1, 266614, Note_off_c, 0, 87, 53
1, 266657, Note_on_c, 0, 52, 50
1, 266657, Note_on_c, 0, 83, 59
1, 266678, Note_off_c, 0, 85, 54
1, 266693, Note_off_c, 0, 83, 63
1, 266735, Note_on_c, 0, 80, 69
1, 266740, Note_off_c, 0, 52, 58
1, 266759, Note_off_c, 0, 80, 68
1, 266772, Note_on_c, 0, 47, 43
1, 266824, Note_off_c, 0, 47, 58
1, 266840, Note_on_c, 0, 78, 62
1, 266870, Note_on_c, 0, 40, 52
1, 266901, Note_off_c, 0, 40, 61
1, 266933, Note_on_c, 0, 76, 62
1, 266944, Note_off_c, 0, 78, 61
1, 266974, Note_off_c, 0, 76, 47
1, 266998, Note_on_c, 0, 73, 62
1, 267070, Note_on_c, 0, 68, 63
1, 267148, Note_on_c, 0, 76, 57
1, 267165, Note_off_c, 0, 73, 22
1, 267168, Note_on_c, 0, 66, 65
1, 267179, Note_on_c, 0, 85, 68
1, 267180, Note_off_c, 0, 76, 60
1, 267188, Poly_aftertouch_c, 0, 69, 127
1, 267211, Note_off_c, 0, 68, 51
1, 267216, Poly_aftertouch_c, 0, 69, 0
1, 267248, Note_off_c, 0, 85, 65
1, 267350, Note_on_c, 0, 88, 68
1, 267372, Note_off_c, 0, 66, 53
1, 267383, Note_on_c, 0, 59, 46
1, 267439, Note_off_c, 0, 59, 60
1, 267460, Note_on_c, 0, 87, 53
1, 267463, Note_off_c, 0, 88, 52
1, 267509, Note_on_c, 0, 85, 53
1, 267523, Note_off_c, 0, 87, 60
1, 267574, Note_on_c, 0, 52, 52
1, 267578, Note_on_c, 0, 81, 60
1, 267586, Note_off_c, 0, 85, 62
1, 267619, Note_off_c, 0, 81, 60
1, 267650, Note_off_c, 0, 52, 59
1, 267659, Note_on_c, 0, 80, 66
1, 267681, Note_off_c, 0, 80, 67
1, 267707, Note_on_c, 0, 47, 41
1, 267749, Note_off_c, 0, 47, 60
1, 267755, Note_on_c, 0, 78, 66
1, 267791, Note_on_c, 0, 40, 51
1, 267824, Note_off_c, 0, 40, 60
1, 267845, Note_on_c, 0, 76, 55
1, 267869, Note_off_c, 0, 76, 64
1, 267873, Note_off_c, 0, 78, 60
1, 267906, Note_on_c, 0, 73, 46
1, 267998, Control_c, 0, 64, 78
1, 268002, Note_off_c, 0, 73, 38
1, 268013, Control_c, 0, 64, 60
1, 268021, Note_on_c, 0, 75, 64
1, 268024, Note_on_c, 0, 69, 49
1, 268024, Note_on_c, 0, 83, 74
1, 268027, Note_on_c, 0, 68, 71
1, 268028, Control_c, 0, 64, 57
1, 268042, Control_c, 0, 64, 64
1, 268046, Note_off_c, 0, 69, 59
1, 268048, Note_off_c, 0, 75, 68
1, 268057, Control_c, 0, 64, 73
1, 268072, Control_c, 0, 64, 88
1, 268087, Control_c, 0, 64, 127
1, 268092, Note_off_c, 0, 83, 63
1, 268161, Note_off_c, 0, 68, 56
1, 268196, Note_on_c, 0, 88, 69
1, 268273, Note_on_c, 0, 59, 33
1, 268287, Note_on_c, 0, 87, 66
1, 268298, Note_off_c, 0, 88, 56
1, 268323, Note_off_c, 0, 59, 63
1, 268351, Note_on_c, 0, 85, 55
1, 268390, Note_off_c, 0, 87, 60
1, 268441, Note_on_c, 0, 83, 56
1, 268462, Note_off_c, 0, 85, 38
1, 268469, Note_off_c, 0, 83, 67
1, 268498, Note_on_c, 0, 52, 29
1, 268505, Note_on_c, 0, 80, 65
1, 268530, Note_off_c, 0, 80, 67
1, 268564, Note_off_c, 0, 52, 57
1, 268601, Note_on_c, 0, 47, 45
1, 268614, Note_on_c, 0, 76, 65
1, 268659, Note_off_c, 0, 47, 57
1, 268667, Note_off_c, 0, 76, 53
1, 268703, Note_on_c, 0, 75, 45
1, 268730, Note_on_c, 0, 40, 43
1, 268739, Note_off_c, 0, 75, 59
1, 268763, Note_off_c, 0, 40, 62
1, 268801, Note_on_c, 0, 71, 53
1, 268845, Note_off_c, 0, 71, 54
1, 268998, Control_c, 0, 64, 93
1, 269013, Note_on_c, 0, 64, 55
1, 269013, Control_c, 0, 64, 71
1, 269018, Note_on_c, 0, 88, 69
1, 269028, Control_c, 0, 64, 64
1, 269043, Note_on_c, 0, 83, 24
1, 269043, Control_c, 0, 64, 66
1, 269057, Control_c, 0, 64, 72
1, 269072, Control_c, 0, 64, 82
1, 269076, Note_off_c, 0, 83, 54
1, 269087, Control_c, 0, 64, 101
1, 269109, Control_c, 0, 64, 127
1, 269118, Note_off_c, 0, 88, 64
1, 269220, Note_off_c, 0, 64, 60
1, 269231, Note_on_c, 0, 92, 68
1, 269298, Note_off_c, 0, 92, 61
1, 269302, Note_on_c, 0, 59, 38
1, 269329, Note_off_c, 0, 59, 60
1, 269332, Note_on_c, 0, 83, 51
1, 269402, Note_on_c, 0, 90, 64
1, 269448, Note_off_c, 0, 83, 35
1, 269458, Note_on_c, 0, 52, 35
1, 269469, Note_off_c, 0, 90, 56
1, 269473, Note_on_c, 0, 92, 65
1, 269542, Note_off_c, 0, 52, 38
1, 269547, Note_on_c, 0, 95, 48
1, 269556, Note_off_c, 0, 92, 64
1, 269564, Note_on_c, 0, 47, 39
1, 269606, Note_on_c, 0, 88, 62
1, 269613, Note_off_c, 0, 95, 62
1, 269618, Note_off_c, 0, 47, 57
1, 269636, Note_off_c, 0, 88, 68
1, 269662, Note_on_c, 0, 40, 42
1, 269683, Note_on_c, 0, 83, 60
1, 269704, Note_off_c, 0, 83, 60
1, 269744, Note_off_c, 0, 40, 52
1, 269752, Note_on_c, 0, 80, 68
1, 269776, Note_on_c, 0, 47, 30
1, 269809, Note_off_c, 0, 47, 52
1, 269809, Note_off_c, 0, 80, 63
1, 269845, Note_on_c, 0, 85, 63
1, 269872, Note_on_c, 0, 52, 36
1, 269893, Note_off_c, 0, 85, 56
1, 269905, Note_off_c, 0, 52, 48
1, 269934, Note_on_c, 0, 80, 57
1, 270014, Note_on_c, 0, 52, 37
1, 270014, Note_on_c, 0, 71, 53
1, 270042, Note_off_c, 0, 80, 57
1, 270058, Note_off_c, 0, 71, 57
1, 270090, Note_on_c, 0, 78, 61
1, 270104, Note_on_c, 0, 59, 29
1, 270123, Note_off_c, 0, 52, 26
1, 270167, Note_on_c, 0, 80, 48
1, 270194, Note_off_c, 0, 78, 60
1, 270200, Note_on_c, 0, 64, 37
1, 270215, Note_on_c, 0, 83, 58
1, 270229, Note_off_c, 0, 64, 59
1, 270250, Note_off_c, 0, 59, 40
1, 270250, Note_off_c, 0, 80, 63
1, 270278, Note_off_c, 0, 83, 59
1, 270292, Note_on_c, 0, 76, 60
1, 270320, Note_off_c, 0, 76, 64
1, 270358, Note_on_c, 0, 71, 56
1, 270399, Note_off_c, 0, 71, 50
1, 270442, Note_on_c, 0, 68, 61
1, 270500, Note_off_c, 0, 68, 63
1, 270519, Note_on_c, 0, 73, 64
1, 270590, Note_off_c, 0, 73, 51
1, 270647, Note_on_c, 0, 68, 48
1, 270737, Note_on_c, 0, 59, 26
1, 270781, Note_off_c, 0, 59, 47
1, 270781, Note_off_c, 0, 68, 34
1, 270820, Note_on_c, 0, 66, 50
1, 270930, Note_on_c, 0, 68, 40
1, 270968, Note_off_c, 0, 66, 31
1, 270978, Note_on_c, 0, 71, 49
1, 271017, Note_off_c, 0, 68, 49
1, 271099, Note_on_c, 0, 64, 51
1, 271108, Note_off_c, 0, 71, 43
1, 271147, Note_off_c, 0, 64, 59
1, 271206, Note_on_c, 0, 59, 38
1, 271317, Note_on_c, 0, 56, 52
1, 271320, Note_off_c, 0, 59, 54
1, 271362, Note_off_c, 0, 56, 62
1, 271600, Note_on_c, 0, 57, 67
1, 271613, Note_on_c, 0, 59, 40
1, 271639, Control_c, 0, 64, 89
1, 271654, Control_c, 0, 64, 67
1, 271669, Control_c, 0, 64, 55
1, 271683, Control_c, 0, 64, 51
1, 271698, Control_c, 0, 64, 55
1, 271710, Note_off_c, 0, 59, 57
1, 271713, Control_c, 0, 64, 61
1, 271722, Note_on_c, 0, 64, 43
1, 271728, Control_c, 0, 64, 67
1, 271742, Control_c, 0, 64, 76
1, 271757, Control_c, 0, 64, 97
1, 271772, Control_c, 0, 64, 127
1, 271796, Note_off_c, 0, 64, 58
1, 271806, Note_off_c, 0, 57, 53
1, 271832, Note_on_c, 0, 71, 41
1, 271854, Note_on_c, 0, 47, 48
1, 271860, Note_off_c, 0, 71, 55
1, 271912, Note_on_c, 0, 71, 41
1, 271957, Note_off_c, 0, 71, 58
1, 271964, Note_off_c, 0, 47, 57
1, 271978, Note_on_c, 0, 40, 41
1, 271998, Note_on_c, 0, 76, 53
1, 272027, Note_off_c, 0, 40, 61
1, 272063, Note_on_c, 0, 75, 52
1, 272077, Note_off_c, 0, 76, 40
1, 272131, Note_on_c, 0, 73, 51
1, 272134, Note_off_c, 0, 75, 61
1, 272140, Note_on_c, 0, 40, 41
1, 272155, Note_off_c, 0, 73, 58
1, 272187, Note_on_c, 0, 71, 62
1, 272215, Note_off_c, 0, 71, 67
1, 272241, Note_on_c, 0, 28, 51
1, 272260, Note_on_c, 0, 68, 64
1, 272275, Note_off_c, 0, 28, 62
1, 272295, Note_off_c, 0, 40, 59
1, 272304, Note_off_c, 0, 68, 46
1, 272311, Note_on_c, 0, 66, 48
1, 272368, Note_on_c, 0, 64, 59
1, 272436, Note_on_c, 0, 61, 53
1, 272436, Note_off_c, 0, 64, 61
1, 272447, Note_off_c, 0, 66, 35
1, 272455, Note_on_c, 0, 56, 69
1, 272462, Note_off_c, 0, 61, 62
1, 272582, Note_off_c, 0, 56, 61
1, 272614, Note_on_c, 0, 54, 73
1, 272623, Control_c, 0, 64, 85
1, 272638, Control_c, 0, 64, 65
1, 272653, Control_c, 0, 64, 54
1, 272668, Control_c, 0, 64, 53
1, 272683, Control_c, 0, 64, 58
1, 272686, Note_on_c, 0, 61, 41
1, 272698, Control_c, 0, 64, 64
1, 272713, Control_c, 0, 64, 70
1, 272727, Control_c, 0, 64, 81
1, 272742, Control_c, 0, 64, 102
1, 272755, Note_off_c, 0, 61, 59
1, 272757, Control_c, 0, 64, 127
1, 272760, Note_on_c, 0, 69, 59
1, 272799, Note_off_c, 0, 54, 60
1, 272812, Note_on_c, 0, 47, 43
1, 272823, Note_on_c, 0, 73, 65
1, 272852, Note_off_c, 0, 69, 57
1, 272903, Note_off_c, 0, 47, 60
1, 272905, Note_off_c, 0, 73, 59
1, 272908, Note_on_c, 0, 76, 59
1, 272917, Note_on_c, 0, 40, 49
1, 272960, Note_on_c, 0, 75, 64
1, 272960, Note_off_c, 0, 40, 61
1, 273005, Note_off_c, 0, 76, 61
1, 273024, Note_on_c, 0, 73, 67
1, 273040, Note_off_c, 0, 75, 63
1, 273058, Note_off_c, 0, 73, 60
1, 273059, Note_on_c, 0, 40, 47
1, 273094, Note_on_c, 0, 69, 63
1, 273122, Note_off_c, 0, 69, 67
1, 273165, Note_on_c, 0, 68, 73
1, 273166, Note_on_c, 0, 28, 56
1, 273201, Note_off_c, 0, 28, 62
1, 273222, Note_on_c, 0, 66, 48
1, 273226, Note_off_c, 0, 40, 49
1, 273261, Note_off_c, 0, 68, 54
1, 273274, Note_on_c, 0, 64, 56
1, 273333, Note_on_c, 0, 61, 60
1, 273333, Note_off_c, 0, 64, 59
1, 273336, Note_off_c, 0, 66, 55
1, 273377, Note_off_c, 0, 61, 58
1, 273410, Note_on_c, 0, 56, 79
1, 273416, Note_on_c, 0, 59, 63
1, 273418, Control_c, 0, 64, 82
1, 273433, Control_c, 0, 64, 61
1, 273448, Control_c, 0, 64, 42
1, 273462, Control_c, 0, 64, 37
1, 273477, Control_c, 0, 64, 42
1, 273478, Note_off_c, 0, 59, 55
1, 273492, Control_c, 0, 64, 54
1, 273504, Note_on_c, 0, 63, 63
1, 273506, Control_c, 0, 64, 62
1, 273521, Control_c, 0, 64, 69
1, 273536, Control_c, 0, 64, 81
1, 273542, Note_off_c, 0, 63, 63
1, 273551, Control_c, 0, 64, 99
1, 273566, Control_c, 0, 64, 116
1, 273568, Note_off_c, 0, 56, 58
1, 273578, Note_on_c, 0, 71, 58
1, 273580, Control_c, 0, 64, 127
1, 273587, Note_on_c, 0, 47, 49
1, 273607, Note_off_c, 0, 71, 63
1, 273684, Note_on_c, 0, 71, 43
1, 273686, Note_off_c, 0, 47, 54
1, 273705, Note_off_c, 0, 71, 59
1, 273711, Note_on_c, 0, 40, 53
1, 273738, Note_on_c, 0, 76, 61
1, 273766, Note_off_c, 0, 40, 60
1, 273785, Note_off_c, 0, 76, 0
1, 273785, Note_on_c, 0, 76, 19
1, 273794, Note_on_c, 0, 75, 58
1, 273827, Note_off_c, 0, 76, 54
1, 273854, Note_off_c, 0, 75, 63
1, 273857, Note_on_c, 0, 73, 56
1, 273874, Note_on_c, 0, 40, 36
1, 273878, Note_off_c, 0, 73, 62
1, 273911, Note_on_c, 0, 71, 53
1, 273932, Note_off_c, 0, 71, 62
1, 273982, Note_on_c, 0, 68, 56
1, 274017, Note_off_c, 0, 68, 50
1, 274028, Note_on_c, 0, 28, 40
1, 274079, Note_on_c, 0, 64, 47
1, 274087, Note_off_c, 0, 28, 58
1, 274120, Note_off_c, 0, 64, 57
1, 274124, Note_off_c, 0, 40, 59
1, 274149, Note_on_c, 0, 63, 44
1, 274180, Note_off_c, 0, 63, 60
1, 274225, Note_on_c, 0, 59, 55
1, 274301, Note_off_c, 0, 59, 53
1, 274428, Note_on_c, 0, 52, 65
1, 274441, Control_c, 0, 64, 107
1, 274455, Control_c, 0, 64, 82
1, 274463, Note_on_c, 0, 76, 69
1, 274465, Note_on_c, 0, 68, 43
1, 274470, Control_c, 0, 64, 64
1, 274474, Note_on_c, 0, 71, 33
1, 274485, Control_c, 0, 64, 48
1, 274500, Control_c, 0, 64, 32
1, 274515, Control_c, 0, 64, 29
1, 274529, Control_c, 0, 64, 33
1, 274544, Control_c, 0, 64, 43
1, 274559, Control_c, 0, 64, 56
1, 274574, Control_c, 0, 64, 65
1, 274589, Control_c, 0, 64, 74
1, 274591, Note_off_c, 0, 68, 62
1, 274603, Control_c, 0, 64, 88
1, 274618, Note_off_c, 0, 71, 42
1, 274618, Control_c, 0, 64, 102
1, 274628, Note_off_c, 0, 76, 62
1, 274633, Control_c, 0, 64, 127
1, 274748, Note_on_c, 0, 80, 63
1, 274787, Note_on_c, 0, 47, 38
1, 274795, Note_off_c, 0, 52, 53
1, 274852, Note_on_c, 0, 71, 46
1, 274853, Note_off_c, 0, 80, 40
1, 274881, Note_off_c, 0, 47, 53
1, 274896, Note_off_c, 0, 71, 45
1, 274909, Note_on_c, 0, 40, 41
1, 274930, Note_on_c, 0, 78, 56
1, 274948, Note_off_c, 0, 40, 61
1, 274985, Note_on_c, 0, 80, 54
1, 275013, Note_off_c, 0, 78, 37
1, 275046, Note_on_c, 0, 40, 47
1, 275059, Note_on_c, 0, 83, 52
1, 275066, Note_off_c, 0, 80, 61
1, 275115, Note_off_c, 0, 83, 49
1, 275131, Note_on_c, 0, 76, 58
1, 275148, Note_off_c, 0, 40, 30
1, 275151, Note_off_c, 0, 76, 63
1, 275170, Note_on_c, 0, 28, 50
1, 275205, Note_on_c, 0, 71, 37
1, 275211, Note_off_c, 0, 28, 60
1, 275233, Note_off_c, 0, 71, 51
1, 275269, Note_on_c, 0, 68, 61
1, 275273, Note_on_c, 0, 40, 42
1, 275304, Note_off_c, 0, 40, 62
1, 275323, Note_off_c, 0, 68, 64
1, 275357, Note_on_c, 0, 73, 64
1, 275437, Note_off_c, 0, 73, 50
1, 275453, Note_on_c, 0, 68, 56
1, 275543, Poly_aftertouch_c, 0, 40, 0
1, 275544, Note_on_c, 0, 59, 38
1, 275546, Note_on_c, 0, 47, 44
1, 275585, Note_off_c, 0, 59, 49
1, 275599, Note_off_c, 0, 68, 36
1, 275640, Note_on_c, 0, 66, 50
1, 275674, Note_on_c, 0, 56, 44
1, 275684, Note_off_c, 0, 47, 59
1, 275728, Note_off_c, 0, 66, 37
1, 275729, Note_off_c, 0, 56, 55
1, 275736, Note_on_c, 0, 68, 52
1, 275792, Note_on_c, 0, 71, 49
1, 275827, Note_off_c, 0, 68, 62
1, 275893, Note_off_c, 0, 71, 48
1, 275904, Note_on_c, 0, 64, 46
1, 275931, Note_off_c, 0, 64, 60
1, 276004, Note_on_c, 0, 59, 32
1, 276090, Note_on_c, 0, 56, 54
1, 276107, Note_off_c, 0, 59, 36
1, 276117, Note_off_c, 0, 56, 61
1, 276287, Note_on_c, 0, 56, 72
1, 276295, Control_c, 0, 64, 85
1, 276308, Note_on_c, 0, 59, 44
1, 276309, Control_c, 0, 64, 66
1, 276324, Control_c, 0, 64, 54
1, 276339, Control_c, 0, 64, 50
1, 276354, Control_c, 0, 64, 53
1, 276358, Note_off_c, 0, 59, 46
1, 276369, Control_c, 0, 64, 59
1, 276383, Note_on_c, 0, 63, 44
1, 276383, Control_c, 0, 64, 65
1, 276398, Control_c, 0, 64, 72
1, 276413, Control_c, 0, 64, 83
1, 276427, Note_off_c, 0, 63, 57
1, 276429, Control_c, 0, 64, 95
1, 276441, Note_off_c, 0, 56, 59
1, 276443, Control_c, 0, 64, 103
1, 276458, Control_c, 0, 64, 111
1, 276464, Note_on_c, 0, 71, 58
1, 276473, Control_c, 0, 64, 120
1, 276483, Note_off_c, 0, 71, 64
1, 276488, Control_c, 0, 64, 127
1, 276494, Note_on_c, 0, 47, 47
1, 276577, Note_on_c, 0, 71, 35
1, 276614, Note_off_c, 0, 71, 51
1, 276641, Note_on_c, 0, 40, 42
1, 276643, Note_off_c, 0, 47, 37
1, 276650, Note_on_c, 0, 76, 38
1, 276698, Note_on_c, 0, 75, 53
1, 276711, Note_off_c, 0, 40, 59
1, 276725, Note_off_c, 0, 76, 37
1, 276761, Note_on_c, 0, 73, 62
1, 276771, Note_off_c, 0, 75, 63
1, 276779, Note_off_c, 0, 73, 64
1, 276825, Note_on_c, 0, 40, 35
1, 276829, Note_on_c, 0, 71, 60
1, 276859, Note_off_c, 0, 71, 66
1, 276918, Note_on_c, 0, 68, 50
1, 276951, Note_off_c, 0, 68, 50
1, 276973, Note_on_c, 0, 28, 36
1, 277001, Note_on_c, 0, 64, 47
1, 277022, Note_off_c, 0, 28, 58
1, 277041, Note_off_c, 0, 64, 49
1, 277077, Note_on_c, 0, 63, 48
1, 277087, Note_off_c, 0, 40, 39
1, 277101, Control_c, 0, 64, 125
1, 277115, Note_off_c, 0, 63, 64
1, 277130, Control_c, 0, 64, 122
1, 277145, Control_c, 0, 64, 120
1, 277164, Note_on_c, 0, 59, 47
1, 277205, Control_c, 0, 64, 118
1, 277212, Note_off_c, 0, 59, 41
1, 277372, Note_on_c, 0, 52, 59
1, 277376, Control_c, 0, 64, 105
1, 277391, Control_c, 0, 64, 82
1, 277406, Control_c, 0, 64, 66
1, 277418, Note_on_c, 0, 68, 32
1, 277419, Note_on_c, 0, 71, 35
1, 277420, Control_c, 0, 64, 54
1, 277422, Note_on_c, 0, 76, 60
1, 277435, Control_c, 0, 64, 46
1, 277450, Control_c, 0, 64, 45
1, 277465, Control_c, 0, 64, 49
1, 277479, Control_c, 0, 64, 57
1, 277494, Control_c, 0, 64, 64
1, 277509, Control_c, 0, 64, 72
1, 277512, Note_off_c, 0, 68, 59
1, 277521, Note_off_c, 0, 71, 50
1, 277524, Control_c, 0, 64, 82
1, 277539, Control_c, 0, 64, 92
1, 277545, Note_off_c, 0, 76, 66
1, 277554, Control_c, 0, 64, 100
1, 277568, Control_c, 0, 64, 110
1, 277583, Control_c, 0, 64, 127
1, 277696, Note_on_c, 0, 80, 60
1, 277740, Note_on_c, 0, 47, 38
1, 277766, Note_off_c, 0, 52, 52
1, 277770, Note_off_c, 0, 80, 59
1, 277809, Note_on_c, 0, 71, 41
1, 277843, Note_off_c, 0, 71, 49
1, 277887, Note_on_c, 0, 78, 60
1, 277887, Note_off_c, 0, 47, 40
1, 277892, Note_on_c, 0, 40, 32
1, 277929, Note_off_c, 0, 40, 60
1, 277944, Note_off_c, 0, 78, 52
1, 277956, Note_on_c, 0, 80, 54
1, 278018, Note_on_c, 0, 83, 60
1, 278024, Note_on_c, 0, 40, 55
1, 278028, Note_off_c, 0, 80, 60
1, 278086, Note_off_c, 0, 83, 60
1, 278109, Note_on_c, 0, 76, 52
1, 278131, Note_off_c, 0, 76, 59
1, 278145, Note_off_c, 0, 40, 46
1, 278172, Note_on_c, 0, 28, 39
1, 278183, Note_on_c, 0, 71, 46
1, 278208, Note_off_c, 0, 71, 57
1, 278229, Note_off_c, 0, 28, 56
1, 278264, Note_on_c, 0, 68, 59
1, 278283, Note_on_c, 0, 40, 45
1, 278320, Note_off_c, 0, 68, 64
1, 278322, Note_off_c, 0, 40, 62
1, 278358, Note_on_c, 0, 73, 62
1, 278442, Note_on_c, 0, 40, 32
1, 278460, Note_on_c, 0, 68, 58
1, 278492, Note_off_c, 0, 73, 32
1, 278540, Note_off_c, 0, 40, 52
1, 278553, Note_on_c, 0, 59, 52
1, 278575, Note_on_c, 0, 47, 32
1, 278614, Note_off_c, 0, 59, 47
1, 278617, Note_off_c, 0, 68, 35
1, 278643, Note_on_c, 0, 66, 49
1, 278738, Note_on_c, 0, 68, 54
1, 278738, Note_off_c, 0, 66, 55
1, 278745, Note_on_c, 0, 56, 41
1, 278764, Note_off_c, 0, 47, 40
1, 278789, Note_off_c, 0, 56, 53
1, 278807, Note_on_c, 0, 71, 45
1, 278811, Note_off_c, 0, 68, 62
1, 278874, Note_off_c, 0, 71, 51
1, 278909, Note_on_c, 0, 64, 43
1, 278943, Note_off_c, 0, 64, 60
1, 279010, Note_on_c, 0, 59, 31
1, 279118, Note_off_c, 0, 59, 37
1, 279119, Note_on_c, 0, 56, 38
1, 279151, Note_off_c, 0, 56, 51
1, 279309, Note_on_c, 0, 56, 66
1, 279334, Note_on_c, 0, 59, 44
1, 279348, Control_c, 0, 64, 90
1, 279362, Control_c, 0, 64, 71
1, 279377, Control_c, 0, 64, 61
1, 279392, Control_c, 0, 64, 59
1, 279407, Control_c, 0, 64, 62
1, 279415, Note_off_c, 0, 59, 56
1, 279422, Control_c, 0, 64, 66
1, 279426, Note_on_c, 0, 63, 46
1, 279436, Control_c, 0, 64, 73
1, 279451, Control_c, 0, 64, 86
1, 279466, Control_c, 0, 64, 119
1, 279481, Control_c, 0, 64, 127
1, 279490, Note_off_c, 0, 63, 61
1, 279508, Note_on_c, 0, 71, 48
1, 279508, Note_off_c, 0, 56, 58
1, 279533, Note_off_c, 0, 71, 59
1, 279548, Note_on_c, 0, 47, 43
1, 279605, Note_on_c, 0, 71, 59
1, 279639, Note_off_c, 0, 71, 63
1, 279674, Note_off_c, 0, 47, 51
1, 279681, Note_on_c, 0, 76, 61
1, 279700, Note_on_c, 0, 40, 45
1, 279747, Note_on_c, 0, 75, 57
1, 279757, Note_off_c, 0, 76, 59
1, 279780, Note_off_c, 0, 40, 59
1, 279813, Note_off_c, 0, 75, 62
1, 279814, Note_on_c, 0, 73, 63
1, 279832, Note_off_c, 0, 73, 64
1, 279869, Note_on_c, 0, 71, 63
1, 279880, Note_on_c, 0, 40, 37
1, 279897, Note_off_c, 0, 71, 68
1, 279953, Note_on_c, 0, 68, 63
1, 279984, Note_off_c, 0, 68, 56
1, 280047, Note_on_c, 0, 64, 47
1, 280061, Note_on_c, 0, 28, 43
1, 280103, Note_off_c, 0, 64, 59
1, 280106, Note_off_c, 0, 28, 60
1, 280129, Note_on_c, 0, 63, 46
1, 280163, Note_off_c, 0, 40, 59
1, 280165, Note_off_c, 0, 63, 63
1, 280221, Note_on_c, 0, 59, 41
1, 280319, Note_off_c, 0, 59, 27
1, 280451, Note_on_c, 0, 52, 66
1, 280478, Note_on_c, 0, 71, 41
1, 280488, Note_on_c, 0, 76, 56
1, 280490, Note_on_c, 0, 68, 44
1, 280505, Control_c, 0, 64, 89
1, 280520, Control_c, 0, 64, 71
1, 280534, Control_c, 0, 64, 60
1, 280549, Control_c, 0, 64, 52
1, 280564, Control_c, 0, 64, 48
1, 280579, Control_c, 0, 64, 51
1, 280594, Control_c, 0, 64, 56
1, 280609, Control_c, 0, 64, 62
1, 280622, Note_off_c, 0, 68, 55
1, 280623, Control_c, 0, 64, 70
1, 280636, Note_off_c, 0, 71, 52
1, 280638, Control_c, 0, 64, 83
1, 280653, Control_c, 0, 64, 109
1, 280666, Note_off_c, 0, 76, 63
1, 280668, Control_c, 0, 64, 127
1, 280788, Note_on_c, 0, 80, 64
1, 280830, Note_on_c, 0, 47, 31
1, 280847, Note_off_c, 0, 80, 60
1, 280859, Note_off_c, 0, 52, 54
1, 280901, Note_on_c, 0, 71, 37
1, 280940, Note_off_c, 0, 71, 48
1, 280958, Note_on_c, 0, 40, 40
1, 280972, Note_on_c, 0, 78, 57
1, 280978, Note_off_c, 0, 47, 35
1, 281010, Note_off_c, 0, 40, 59
1, 281017, Note_off_c, 0, 78, 52
1, 281059, Note_on_c, 0, 80, 42
1, 281115, Note_on_c, 0, 83, 54
1, 281126, Note_on_c, 0, 40, 40
1, 281152, Note_off_c, 0, 80, 46
1, 281186, Note_off_c, 0, 83, 60
1, 281210, Note_on_c, 0, 76, 45
1, 281236, Note_off_c, 0, 76, 51
1, 281255, Note_on_c, 0, 28, 38
1, 281265, Note_off_c, 0, 40, 34
1, 281291, Note_on_c, 0, 71, 40
1, 281315, Note_off_c, 0, 28, 55
1, 281317, Note_off_c, 0, 71, 54
1, 281376, Note_on_c, 0, 40, 37
1, 281423, Note_off_c, 0, 40, 60
1, 281475, Note_on_c, 0, 73, 64
1, 281560, Note_off_c, 0, 73, 53
1, 281586, Note_on_c, 0, 68, 45
1, 281608, Poly_aftertouch_c, 0, 40, 127
1, 281641, Poly_aftertouch_c, 0, 40, 0
1, 281652, Note_on_c, 0, 47, 43
1, 281679, Note_on_c, 0, 59, 40
1, 281706, Note_off_c, 0, 68, 57
1, 281747, Note_off_c, 0, 59, 55
1, 281748, Note_on_c, 0, 66, 56
1, 281781, Note_on_c, 0, 56, 48
1, 281809, Note_off_c, 0, 47, 54
1, 281826, Note_off_c, 0, 56, 58
1, 281843, Note_on_c, 0, 68, 57
1, 281851, Note_off_c, 0, 66, 56
1, 281910, Note_on_c, 0, 71, 44
1, 281930, Note_off_c, 0, 68, 63
1, 281980, Note_off_c, 0, 71, 61
1, 281997, Note_on_c, 0, 64, 48
1, 282028, Note_off_c, 0, 64, 62
1, 282103, Note_on_c, 0, 59, 30
1, 282144, Note_off_c, 0, 59, 46
1, 282189, Note_on_c, 0, 56, 58
1, 282315, Note_off_c, 0, 56, 60
1, 282368, Note_on_c, 0, 61, 56
1, 282378, Note_on_c, 0, 40, 39
1, 282382, Note_on_c, 0, 28, 44
1, 282418, Control_c, 0, 64, 102
1, 282433, Control_c, 0, 64, 84
1, 282448, Control_c, 0, 64, 75
1, 282462, Control_c, 0, 64, 71
1, 282477, Control_c, 0, 64, 72
1, 282492, Control_c, 0, 64, 72
1, 282507, Control_c, 0, 64, 74
1, 282522, Control_c, 0, 64, 77
1, 282528, Note_on_c, 0, 56, 55
1, 282536, Control_c, 0, 64, 81
1, 282551, Control_c, 0, 64, 84
1, 282566, Control_c, 0, 64, 86
1, 282579, Note_off_c, 0, 61, 54
1, 282588, Control_c, 0, 64, 88
1, 282618, Control_c, 0, 64, 88
1, 282621, Note_on_c, 0, 47, 56
1, 282663, Note_off_c, 0, 56, 51
1, 282670, Note_off_c, 0, 47, 56
1, 282711, Note_on_c, 0, 54, 55
1, 282737, Control_c, 0, 64, 89
1, 282751, Control_c, 0, 64, 90
1, 282766, Control_c, 0, 64, 93
1, 282774, Note_off_c, 0, 54, 56
1, 282781, Control_c, 0, 64, 95
1, 282796, Note_on_c, 0, 56, 56
1, 282810, Control_c, 0, 64, 94
1, 282826, Control_c, 0, 64, 88
1, 282839, Note_on_c, 0, 59, 57
1, 282841, Control_c, 0, 64, 81
1, 282850, Note_off_c, 0, 56, 51
1, 282856, Control_c, 0, 64, 75
1, 282871, Control_c, 0, 64, 72
1, 282885, Control_c, 0, 64, 71
1, 282900, Control_c, 0, 64, 72
1, 282904, Note_off_c, 0, 59, 58
1, 282915, Control_c, 0, 64, 73
1, 282930, Control_c, 0, 64, 76
1, 282939, Note_on_c, 0, 52, 49
1, 282945, Control_c, 0, 64, 78
1, 282959, Control_c, 0, 64, 79
1, 282971, Note_off_c, 0, 52, 50
1, 282974, Control_c, 0, 64, 80
1, 282989, Control_c, 0, 64, 80
1, 283021, Note_on_c, 0, 59, 46
1, 283033, Control_c, 0, 64, 81
1, 283048, Control_c, 0, 64, 82
1, 283063, Control_c, 0, 64, 83
1, 283071, Note_off_c, 0, 59, 61
1, 283078, Control_c, 0, 64, 85
1, 283089, Note_on_c, 0, 56, 58
1, 283092, Control_c, 0, 64, 86
1, 283107, Control_c, 0, 64, 86
1, 283121, Note_off_c, 0, 56, 65
1, 283122, Control_c, 0, 64, 87
1, 283167, Control_c, 0, 64, 83
1, 283173, Note_on_c, 0, 61, 63
1, 283181, Control_c, 0, 64, 77
1, 283196, Control_c, 0, 64, 71
1, 283211, Control_c, 0, 64, 68
1, 283226, Control_c, 0, 64, 66
1, 283241, Control_c, 0, 64, 67
1, 283247, Note_off_c, 0, 61, 56
1, 283256, Control_c, 0, 64, 68
1, 283267, Note_on_c, 0, 56, 48
1, 283271, Control_c, 0, 64, 69
1, 283285, Control_c, 0, 64, 70
1, 283300, Control_c, 0, 64, 71
1, 283315, Control_c, 0, 64, 71
1, 283369, Note_on_c, 0, 47, 47
1, 283371, Note_off_c, 0, 56, 56
1, 283381, Control_c, 0, 64, 71
1, 283396, Control_c, 0, 64, 70
1, 283411, Control_c, 0, 64, 69
1, 283417, Note_off_c, 0, 47, 44
1, 283426, Control_c, 0, 64, 68
1, 283441, Control_c, 0, 64, 67
1, 283456, Control_c, 0, 64, 66
1, 283458, Note_on_c, 0, 54, 49
1, 283485, Control_c, 0, 64, 67
1, 283500, Control_c, 0, 64, 67
1, 283515, Control_c, 0, 64, 68
1, 283524, Note_off_c, 0, 54, 57
1, 283530, Control_c, 0, 64, 68
1, 283544, Control_c, 0, 64, 69
1, 283559, Note_on_c, 0, 56, 44
1, 283559, Control_c, 0, 64, 69
1, 283574, Control_c, 0, 64, 70
1, 283589, Control_c, 0, 64, 70
1, 283602, Note_off_c, 0, 56, 60
1, 283604, Control_c, 0, 64, 71
1, 283620, Control_c, 0, 64, 71
1, 283620, Note_on_c, 0, 59, 44
1, 283634, Control_c, 0, 64, 72
1, 283649, Control_c, 0, 64, 73
1, 283664, Control_c, 0, 64, 74
1, 283679, Control_c, 0, 64, 75
1, 283694, Control_c, 0, 64, 75
1, 283708, Note_off_c, 0, 59, 54
1, 283709, Control_c, 0, 64, 76
1, 283723, Control_c, 0, 64, 75
1, 283730, Note_on_c, 0, 52, 52
1, 283738, Control_c, 0, 64, 74
1, 283753, Control_c, 0, 64, 70
1, 283768, Control_c, 0, 64, 66
1, 283783, Control_c, 0, 64, 63
1, 283797, Control_c, 0, 64, 62
1, 283812, Control_c, 0, 64, 63
1, 283821, Note_off_c, 0, 52, 51
1, 283827, Control_c, 0, 64, 64
1, 283834, Note_on_c, 0, 56, 49
1, 283841, Control_c, 0, 64, 65
1, 283856, Control_c, 0, 64, 68
1, 283871, Control_c, 0, 64, 70
1, 283886, Control_c, 0, 64, 72
1, 283898, Note_off_c, 0, 56, 55
1, 283901, Control_c, 0, 64, 73
1, 283930, Note_on_c, 0, 47, 39
1, 283930, Control_c, 0, 64, 73
1, 284034, Note_off_c, 0, 47, 29
1, 284049, Control_c, 0, 64, 74
1, 284053, Note_on_c, 0, 54, 46
1, 284086, Control_c, 0, 64, 74
1, 284130, Control_c, 0, 64, 73
1, 284145, Note_off_c, 0, 54, 51
1, 284145, Control_c, 0, 64, 70
1, 284159, Control_c, 0, 64, 66
1, 284168, Note_on_c, 0, 56, 47
1, 284174, Control_c, 0, 64, 64
1, 284189, Control_c, 0, 64, 62
1, 284219, Control_c, 0, 64, 63
1, 284234, Control_c, 0, 64, 64
1, 284249, Control_c, 0, 64, 65
1, 284264, Control_c, 0, 64, 66
1, 284271, Note_off_c, 0, 56, 54
1, 284278, Note_on_c, 0, 59, 37
1, 284278, Control_c, 0, 64, 68
1, 284293, Control_c, 0, 64, 70
1, 284308, Control_c, 0, 64, 71
1, 284323, Control_c, 0, 64, 72
1, 284403, Note_off_c, 0, 59, 48
1, 284412, Note_on_c, 0, 52, 38
1, 284442, Control_c, 0, 64, 72
1, 284531, Control_c, 0, 64, 72
1, 284545, Note_off_c, 0, 52, 51
1, 284546, Control_c, 0, 64, 71
1, 284551, Note_on_c, 0, 56, 40
1, 284561, Control_c, 0, 64, 71
1, 284576, Control_c, 0, 64, 70
1, 284663, Note_off_c, 0, 56, 53
1, 284679, Control_c, 0, 64, 70
1, 284691, Note_on_c, 0, 47, 37
1, 284850, Control_c, 0, 64, 69
1, 284872, Note_on_c, 0, 54, 43
1, 285036, Note_on_c, 0, 56, 33
1, 285054, Note_off_c, 0, 54, 33
1, 285086, Control_c, 0, 67, 122
1, 285101, Control_c, 0, 67, 117
1, 285116, Control_c, 0, 67, 112
1, 285131, Control_c, 0, 67, 107
1, 285146, Control_c, 0, 67, 101
1, 285161, Control_c, 0, 67, 95
1, 285176, Control_c, 0, 67, 89
1, 285190, Control_c, 0, 67, 82
1, 285196, Note_off_c, 0, 56, 50
1, 285206, Control_c, 0, 67, 75
1, 285207, Note_on_c, 0, 59, 37
1, 285220, Control_c, 0, 67, 69
1, 285235, Control_c, 0, 67, 62
1, 285250, Control_c, 0, 67, 55
1, 285265, Control_c, 0, 67, 48
1, 285280, Control_c, 0, 67, 41
1, 285295, Control_c, 0, 67, 33
1, 285310, Control_c, 0, 67, 27
1, 285325, Control_c, 0, 67, 21
1, 285340, Control_c, 0, 67, 0
1, 285517, Control_c, 0, 64, 68
1, 285529, Note_on_c, 0, 52, 41
1, 285531, Control_c, 0, 64, 67
1, 285546, Control_c, 0, 64, 64
1, 285561, Control_c, 0, 64, 61
1, 285584, Control_c, 0, 64, 57
1, 285599, Control_c, 0, 64, 54
1, 285613, Control_c, 0, 64, 53
1, 285628, Control_c, 0, 64, 52
1, 285658, Control_c, 0, 64, 53
1, 285673, Control_c, 0, 64, 54
1, 285687, Control_c, 0, 64, 56
1, 285702, Control_c, 0, 64, 59
1, 285717, Control_c, 0, 64, 61
1, 285732, Control_c, 0, 64, 64
1, 285746, Control_c, 0, 64, 66
1, 285761, Control_c, 0, 64, 69
1, 285776, Control_c, 0, 64, 72
1, 285791, Control_c, 0, 64, 75
1, 285805, Control_c, 0, 64, 78
1, 285820, Control_c, 0, 64, 80
1, 285835, Control_c, 0, 64, 83
1, 285850, Control_c, 0, 64, 85
1, 285865, Control_c, 0, 64, 88
1, 285879, Control_c, 0, 64, 91
1, 285894, Control_c, 0, 64, 94
1, 285909, Control_c, 0, 64, 97
1, 285914, Poly_aftertouch_c, 0, 31, 127
1, 285924, Control_c, 0, 64, 99
1, 285954, Control_c, 0, 64, 102
1, 285969, Control_c, 0, 64, 104
1, 285984, Control_c, 0, 64, 107
1, 285999, Control_c, 0, 64, 110
1, 286015, Control_c, 0, 64, 117
1, 286029, Control_c, 0, 64, 127
1, 286057, Note_off_c, 0, 47, 38
1, 286118, Control_c, 0, 67, 19
1, 286162, Control_c, 0, 67, 22
1, 286207, Control_c, 0, 67, 24
1, 286229, Note_off_c, 0, 59, 34
1, 286237, Control_c, 0, 67, 26
1, 286267, Control_c, 0, 67, 29
1, 286282, Control_c, 0, 67, 31
1, 286297, Control_c, 0, 67, 32
1, 286311, Control_c, 0, 67, 34
1, 286333, Control_c, 0, 67, 35
1, 286348, Control_c, 0, 67, 36
1, 286360, Note_off_c, 0, 52, 40
1, 286362, Control_c, 0, 67, 37
1, 286377, Control_c, 0, 67, 38
1, 286392, Control_c, 0, 67, 39
1, 286407, Control_c, 0, 67, 41
1, 286422, Control_c, 0, 67, 42
1, 286437, Control_c, 0, 67, 44
1, 286452, Control_c, 0, 67, 45
1, 286466, Control_c, 0, 67, 47
1, 286481, Control_c, 0, 67, 48
1, 286496, Control_c, 0, 67, 50
1, 286511, Control_c, 0, 67, 52
1, 286526, Control_c, 0, 67, 55
1, 286541, Control_c, 0, 67, 58
1, 286556, Control_c, 0, 67, 61
1, 286562, Note_off_c, 0, 28, 34
1, 286570, Control_c, 0, 67, 63
1, 286585, Control_c, 0, 67, 66
1, 286586, Poly_aftertouch_c, 0, 31, 0
1, 286595, Note_off_c, 0, 40, 52
1, 286600, Control_c, 0, 67, 68
1, 286615, Control_c, 0, 67, 70
1, 286630, Control_c, 0, 67, 74
1, 286644, Control_c, 0, 67, 77
1, 286659, Control_c, 0, 64, 113
1, 286659, Control_c, 0, 67, 79
1, 286674, Control_c, 0, 64, 102
1, 286674, Control_c, 0, 67, 82
1, 286688, Control_c, 0, 64, 93
1, 286688, Control_c, 0, 67, 84
1, 286703, Control_c, 0, 64, 84
1, 286703, Control_c, 0, 67, 87
1, 286718, Control_c, 0, 64, 76
1, 286718, Control_c, 0, 67, 89
1, 286733, Control_c, 0, 64, 68
1, 286733, Control_c, 0, 67, 92
1, 286748, Control_c, 0, 64, 61
1, 286748, Control_c, 0, 67, 94
1, 286762, Control_c, 0, 64, 56
1, 286762, Control_c, 0, 67, 96
1, 286777, Control_c, 0, 64, 52
1, 286777, Control_c, 0, 67, 99
1, 286792, Control_c, 0, 64, 47
1, 286792, Control_c, 0, 67, 102
1, 286808, Control_c, 0, 64, 38
1, 286808, Control_c, 0, 67, 106
1, 286823, Control_c, 0, 64, 0
1, 286823, Control_c, 0, 67, 113
1, 286838, Control_c, 0, 67, 120
1, 286852, Control_c, 0, 67, 127
1, 287154, Note_on_c, 0, 59, 45
1, 287158, Note_on_c, 0, 28, 26
1, 287164, Note_on_c, 0, 40, 32
1, 287167, Note_on_c, 0, 52, 38
1, 287171, Control_c, 0, 64, 42
1, 287181, Note_on_c, 0, 47, 10
1, 287185, Note_off_c, 0, 28, 43
1, 287185, Control_c, 0, 64, 57
1, 287200, Control_c, 0, 64, 65
1, 287215, Control_c, 0, 64, 71
1, 287221, Note_off_c, 0, 40, 62
1, 287227, Note_off_c, 0, 47, 37
1, 287230, Control_c, 0, 64, 78
1, 287245, Control_c, 0, 64, 90
1, 287259, Control_c, 0, 64, 127
1, 287324, Note_on_c, 0, 47, 53
1, 287395, Note_off_c, 0, 52, 40
1, 287434, Note_off_c, 0, 59, 63
1, 287469, Note_off_c, 0, 47, 61
1, 287980, Note_on_c, 0, 83, 71
1, 287995, Note_on_c, 0, 71, 59
1, 287998, Note_on_c, 0, 47, 34
1, 288000, Note_on_c, 0, 59, 41
1, 288013, Note_off_c, 0, 83, 57
1, 288013, Note_off_c, 0, 71, 64
1, 288026, Note_off_c, 0, 59, 56
1, 288031, Note_off_c, 0, 47, 54
1, 288270, Note_on_c, 0, 56, 52
1, 288298, Note_on_c, 0, 73, 59
1, 288309, Note_on_c, 0, 71, 51
1, 288311, Note_on_c, 0, 76, 72
1, 288315, Note_on_c, 0, 68, 54
1, 288329, Note_on_c, 0, 64, 46
1, 288368, Note_off_c, 0, 64, 51
1, 288388, Note_off_c, 0, 56, 57
1, 288401, Note_off_c, 0, 68, 53
1, 288528, Note_off_c, 0, 73, 34
1, 288607, Note_off_c, 0, 76, 52
1, 288821, Note_on_c, 0, 76, 48
1, 288841, Note_on_c, 0, 64, 22
1, 288877, Note_off_c, 0, 64, 50
1, 288951, Note_off_c, 0, 76, 34
1, 289251, Note_on_c, 0, 76, 43
1, 289261, Note_on_c, 0, 64, 4
1, 289368, Note_off_c, 0, 64, 36
1, 289516, Note_off_c, 0, 76, 25
1, 289778, Note_off_c, 0, 71, 53
1, 290255, Control_c, 0, 64, 118
1, 290270, Control_c, 0, 64, 99
1, 290285, Control_c, 0, 64, 88
1, 290300, Control_c, 0, 64, 80
1, 290315, Control_c, 0, 64, 72
1, 290329, Control_c, 0, 64, 66
1, 290344, Control_c, 0, 64, 59
1, 290359, Control_c, 0, 64, 53
1, 290374, Control_c, 0, 64, 48
1, 290389, Control_c, 0, 64, 42
1, 290403, Control_c, 0, 64, 34
1, 290418, Control_c, 0, 64, 0
1, 290857, Control_c, 0, 64, 29
1, 290862, Note_on_c, 0, 59, 39
1, 290868, Note_on_c, 0, 52, 35
1, 290872, Control_c, 0, 64, 40
1, 290874, Note_on_c, 0, 28, 34
1, 290886, Note_on_c, 0, 40, 28
1, 290886, Control_c, 0, 64, 52
1, 290890, Note_on_c, 0, 47, 19
1, 290901, Control_c, 0, 64, 60
1, 290908, Note_off_c, 0, 28, 55
1, 290916, Control_c, 0, 64, 65
1, 290931, Control_c, 0, 64, 71
1, 290941, Note_off_c, 0, 47, 63
1, 290946, Control_c, 0, 64, 85
1, 290960, Control_c, 0, 64, 127
1, 290977, Note_off_c, 0, 40, 59
1, 291061, Note_on_c, 0, 47, 47
1, 291235, Note_off_c, 0, 52, 38
1, 291240, Note_off_c, 0, 47, 61
1, 291307, Note_off_c, 0, 59, 34
1, 291847, Note_on_c, 0, 83, 61
1, 291856, Note_on_c, 0, 47, 41
1, 291864, Note_on_c, 0, 71, 50
1, 291881, Note_on_c, 0, 59, 18
1, 291889, Note_off_c, 0, 71, 63
1, 291896, Note_off_c, 0, 47, 57
1, 291929, Note_off_c, 0, 59, 47
1, 291939, Note_off_c, 0, 83, 56
1, 292490, Note_on_c, 0, 73, 38
1, 292491, Note_on_c, 0, 76, 55
1, 292503, Note_on_c, 0, 71, 47
1, 292506, Note_on_c, 0, 64, 35
1, 292509, Note_on_c, 0, 56, 41
1, 292513, Note_on_c, 0, 68, 37
1, 292579, Note_off_c, 0, 73, 37
1, 292681, Note_off_c, 0, 64, 38
1, 292736, Note_off_c, 0, 76, 31
1, 293217, Note_on_c, 0, 76, 46
1, 293241, Note_on_c, 0, 64, 35
1, 293296, Note_off_c, 0, 64, 47
1, 293400, Note_off_c, 0, 76, 33
1, 294317, Note_on_c, 0, 76, 38
1, 294330, Note_on_c, 0, 64, 24
1, 295445, Note_off_c, 0, 64, 40
1, 297054, Note_off_c, 0, 71, 27
1, 297316, Note_off_c, 0, 76, 37
1, 297424, Control_c, 0, 67, 124
1, 297439, Control_c, 0, 67, 119
1, 297454, Control_c, 0, 67, 114
1, 297469, Control_c, 0, 67, 108
1, 297484, Control_c, 0, 67, 102
1, 297499, Control_c, 0, 67, 96
1, 297503, Note_off_c, 0, 68, 46
1, 297513, Note_off_c, 0, 56, 57
1, 297513, Control_c, 0, 67, 89
1, 297528, Control_c, 0, 67, 83
1, 297543, Control_c, 0, 67, 76
1, 297564, Control_c, 0, 67, 69
1, 297579, Control_c, 0, 67, 62
1, 297594, Control_c, 0, 67, 52
1, 297609, Control_c, 0, 67, 41
1, 297624, Control_c, 0, 67, 27
1, 297639, Control_c, 0, 64, 96
1, 297639, Control_c, 0, 67, 0
1, 297654, Control_c, 0, 64, 79
1, 297669, Control_c, 0, 64, 66
1, 297684, Control_c, 0, 64, 56
1, 297698, Control_c, 0, 64, 47
1, 297713, Control_c, 0, 64, 38
1, 297728, Control_c, 0, 64, 30
1, 297743, Control_c, 0, 64, 0
1, 298535, Control_c, 0, 67, 19
1, 298565, Control_c, 0, 67, 22
1, 298580, Control_c, 0, 67, 25
1, 298594, Control_c, 0, 67, 28
1, 298609, Control_c, 0, 67, 32
1, 298624, Control_c, 0, 67, 38
1, 298639, Control_c, 0, 67, 46
1, 298654, Control_c, 0, 67, 53
1, 298668, Control_c, 0, 67, 62
1, 298683, Control_c, 0, 67, 71
1, 298699, Control_c, 0, 67, 80
1, 298713, Control_c, 0, 67, 88
1, 298728, Control_c, 0, 67, 96
1, 298743, Control_c, 0, 67, 105
1, 298758, Control_c, 0, 67, 112
1, 298773, Control_c, 0, 67, 119
1, 298789, Control_c, 0, 67, 125
1, 298804, Control_c, 0, 67, 127
1, 298937, Control_c, 0, 64, 29
1, 298952, Control_c, 0, 64, 33
1, 298966, Control_c, 0, 64, 37
1, 298981, Control_c, 0, 64, 42
1, 298985, Note_on_c, 0, 51, 39
1, 298993, Note_on_c, 0, 39, 38
1, 298996, Control_c, 0, 64, 49
1, 299010, Control_c, 0, 64, 58
1, 299019, Note_off_c, 0, 51, 54
1, 299025, Control_c, 0, 64, 61
1, 299031, Note_off_c, 0, 39, 53
1, 299040, Control_c, 0, 64, 63
1, 299063, Control_c, 0, 64, 64
1, 299071, Note_on_c, 0, 56, 51
1, 299078, Control_c, 0, 64, 65
1, 299092, Control_c, 0, 64, 65
1, 299135, Note_on_c, 0, 51, 50
1, 299136, Note_off_c, 0, 56, 55
1, 299193, Note_off_c, 0, 51, 58
1, 299196, Control_c, 0, 64, 65
1, 299207, Note_on_c, 0, 37, 43
1, 299210, Control_c, 0, 64, 64
1, 299212, Note_on_c, 0, 55, 45
1, 299225, Control_c, 0, 64, 63
1, 299228, Note_on_c, 0, 49, 20
1, 299240, Control_c, 0, 64, 63
1, 299241, Note_off_c, 0, 37, 52
1, 299255, Control_c, 0, 64, 61
1, 299258, Note_on_c, 0, 56, 59
1, 299260, Note_off_c, 0, 55, 57
1, 299270, Control_c, 0, 64, 60
1, 299272, Note_off_c, 0, 49, 47
1, 299284, Control_c, 0, 64, 59
1, 299299, Control_c, 0, 64, 58
1, 299314, Control_c, 0, 64, 57
1, 299323, Note_off_c, 0, 56, 61
1, 299337, Note_on_c, 0, 59, 54
1, 299365, Note_off_c, 0, 59, 62
1, 299374, Control_c, 0, 64, 58
1, 299382, Note_on_c, 0, 58, 61
1, 299389, Control_c, 0, 64, 59
1, 299389, Note_on_c, 0, 39, 50
1, 299401, Note_on_c, 0, 51, 17
1, 299404, Control_c, 0, 64, 61
1, 299418, Control_c, 0, 64, 63
1, 299421, Note_off_c, 0, 39, 62
1, 299423, Note_off_c, 0, 58, 62
1, 299433, Control_c, 0, 64, 65
1, 299448, Control_c, 0, 64, 66
1, 299456, Note_off_c, 0, 51, 0
1, 299456, Note_on_c, 0, 51, 21
1, 299463, Control_c, 0, 64, 66
1, 299506, Note_off_c, 0, 51, 49
1, 299533, Note_on_c, 0, 56, 57
1, 299591, Note_off_c, 0, 56, 54
1, 299601, Note_on_c, 0, 58, 50
1, 299614, Note_on_c, 0, 37, 48
1, 299621, Note_on_c, 0, 49, 40
1, 299650, Note_on_c, 0, 63, 53
1, 299654, Note_off_c, 0, 37, 51
1, 299657, Note_off_c, 0, 58, 56
1, 299663, Note_off_c, 0, 49, 49
1, 299687, Note_off_c, 0, 63, 65
1, 299729, Note_on_c, 0, 55, 63
1, 299763, Note_off_c, 0, 55, 63
1, 299774, Control_c, 0, 64, 64
1, 299789, Control_c, 0, 64, 61
1, 299812, Control_c, 0, 64, 57
1, 299812, Note_on_c, 0, 51, 49
1, 299818, Note_on_c, 0, 39, 51
1, 299827, Control_c, 0, 64, 54
1, 299833, Note_on_c, 0, 59, 46
1, 299841, Control_c, 0, 64, 55
1, 299843, Note_off_c, 0, 51, 60
1, 299856, Control_c, 0, 64, 56
1, 299868, Note_off_c, 0, 39, 55
1, 299871, Control_c, 0, 64, 59
1, 299885, Note_off_c, 0, 59, 59
1, 299886, Control_c, 0, 64, 61
1, 299898, Note_on_c, 0, 63, 44
1, 299901, Control_c, 0, 64, 64
1, 299915, Control_c, 0, 64, 66
1, 299930, Control_c, 0, 64, 68
1, 299932, Note_off_c, 0, 63, 64
1, 299939, Note_on_c, 0, 67, 52
1, 299945, Control_c, 0, 64, 68
1, 299959, Control_c, 0, 64, 69
1, 299970, Note_off_c, 0, 67, 58
1, 300010, Note_on_c, 0, 58, 65
1, 300017, Note_on_c, 0, 37, 45
1, 300019, Note_on_c, 0, 49, 50
1, 300049, Note_off_c, 0, 58, 59
1, 300052, Note_off_c, 0, 49, 65
1, 300053, Note_off_c, 0, 37, 63
1, 300074, Note_on_c, 0, 63, 50
1, 300137, Note_on_c, 0, 70, 68
1, 300145, Note_off_c, 0, 63, 63
1, 300152, Control_c, 0, 64, 68
1, 300167, Control_c, 0, 64, 65
1, 300168, Note_off_c, 0, 70, 65
1, 300182, Control_c, 0, 64, 61
1, 300196, Control_c, 0, 64, 55
1, 300211, Control_c, 0, 64, 52
1, 300214, Note_on_c, 0, 56, 66
1, 300224, Note_on_c, 0, 52, 52
1, 300226, Control_c, 0, 64, 51
1, 300227, Note_on_c, 0, 40, 54
1, 300241, Control_c, 0, 64, 53
1, 300249, Note_off_c, 0, 52, 60
1, 300256, Control_c, 0, 64, 56
1, 300261, Note_off_c, 0, 40, 64
1, 300262, Note_off_c, 0, 56, 57
1, 300271, Control_c, 0, 64, 59
1, 300277, Note_on_c, 0, 68, 65
1, 300285, Control_c, 0, 64, 62
1, 300293, Note_on_c, 0, 64, 45
1, 300300, Control_c, 0, 64, 64
1, 300315, Control_c, 0, 64, 65
1, 300328, Note_off_c, 0, 64, 49
1, 300331, Note_off_c, 0, 68, 51
1, 300340, Note_on_c, 0, 56, 68
1, 300359, Control_c, 0, 64, 64
1, 300387, Note_on_c, 0, 64, 51
1, 300395, Note_off_c, 0, 56, 58
1, 300414, Note_on_c, 0, 47, 63
1, 300416, Note_on_c, 0, 67, 61
1, 300417, Note_on_c, 0, 35, 59
1, 300448, Note_off_c, 0, 35, 62
1, 300452, Note_off_c, 0, 47, 64
1, 300458, Note_off_c, 0, 64, 60
1, 300470, Note_on_c, 0, 68, 72
1, 300508, Note_off_c, 0, 67, 64
1, 300509, Control_c, 0, 64, 63
1, 300524, Control_c, 0, 64, 61
1, 300536, Note_on_c, 0, 71, 67
1, 300538, Control_c, 0, 64, 56
1, 300544, Note_off_c, 0, 68, 63
1, 300560, Control_c, 0, 64, 51
1, 300575, Control_c, 0, 64, 47
1, 300578, Note_off_c, 0, 71, 60
1, 300590, Control_c, 0, 64, 46
1, 300605, Control_c, 0, 64, 50
1, 300617, Note_on_c, 0, 70, 83
1, 300620, Control_c, 0, 64, 54
1, 300624, Note_on_c, 0, 52, 64
1, 300626, Note_on_c, 0, 40, 63
1, 300635, Control_c, 0, 64, 59
1, 300650, Control_c, 0, 64, 62
1, 300656, Note_off_c, 0, 52, 64
1, 300659, Note_off_c, 0, 40, 65
1, 300664, Note_off_c, 0, 70, 64
1, 300664, Control_c, 0, 64, 64
1, 300679, Control_c, 0, 64, 64
1, 300696, Note_on_c, 0, 56, 69
1, 300709, Control_c, 0, 64, 64
1, 300724, Control_c, 0, 64, 63
1, 300738, Control_c, 0, 64, 62
1, 300753, Control_c, 0, 64, 62
1, 300768, Note_off_c, 0, 56, 39
1, 300768, Control_c, 0, 64, 61
1, 300771, Note_on_c, 0, 68, 63
1, 300782, Control_c, 0, 64, 60
1, 300812, Control_c, 0, 64, 60
1, 300827, Control_c, 0, 64, 59
1, 300829, Note_on_c, 0, 47, 58
1, 300830, Note_on_c, 0, 35, 62
1, 300841, Note_off_c, 0, 68, 65
1, 300842, Control_c, 0, 64, 59
1, 300846, Note_on_c, 0, 66, 63
1, 300856, Control_c, 0, 64, 58
1, 300861, Note_off_c, 0, 35, 63
1, 300862, Note_off_c, 0, 47, 66
1, 300871, Control_c, 0, 64, 57
1, 300886, Control_c, 0, 64, 57
1, 300888, Note_on_c, 0, 56, 62
1, 300901, Control_c, 0, 64, 56
1, 300915, Control_c, 0, 64, 55
1, 300930, Control_c, 0, 64, 53
1, 300945, Note_off_c, 0, 66, 60
1, 300946, Control_c, 0, 64, 51
1, 300961, Control_c, 0, 64, 49
1, 300966, Note_off_c, 0, 56, 47
1, 300970, Note_on_c, 0, 64, 54
1, 300976, Control_c, 0, 64, 47
1, 301005, Control_c, 0, 64, 49
1, 301020, Control_c, 0, 64, 51
1, 301035, Control_c, 0, 64, 54
1, 301041, Note_on_c, 0, 63, 69
1, 301044, Note_on_c, 0, 40, 55
1, 301046, Note_on_c, 0, 52, 52
1, 301050, Control_c, 0, 64, 58
1, 301053, Note_off_c, 0, 64, 61
1, 301064, Control_c, 0, 64, 61
1, 301070, Note_off_c, 0, 52, 59
1, 301077, Note_off_c, 0, 40, 64
1, 301096, Note_off_c, 0, 63, 61
1, 301109, Control_c, 0, 64, 60
1, 301124, Control_c, 0, 64, 60
1, 301124, Note_on_c, 0, 56, 53
1, 301138, Control_c, 0, 64, 59
1, 301153, Control_c, 0, 64, 58
1, 301168, Control_c, 0, 64, 58
1, 301171, Note_off_c, 0, 56, 55
1, 301199, Control_c, 0, 64, 57
1, 301209, Note_on_c, 0, 63, 60
1, 301243, Control_c, 0, 64, 57
1, 301258, Control_c, 0, 64, 56
1, 301259, Note_on_c, 0, 47, 50
1, 301261, Note_on_c, 0, 35, 58
1, 301261, Note_on_c, 0, 61, 57
1, 301266, Note_off_c, 0, 63, 56
1, 301300, Note_off_c, 0, 35, 60
1, 301312, Note_off_c, 0, 47, 59
1, 301326, Note_off_c, 0, 61, 58
1, 301337, Note_on_c, 0, 56, 48
1, 301339, Control_c, 0, 64, 56
1, 301354, Control_c, 0, 64, 55
1, 301369, Control_c, 0, 64, 53
1, 301384, Control_c, 0, 64, 51
1, 301389, Note_off_c, 0, 56, 55
1, 301399, Control_c, 0, 64, 48
1, 301406, Note_on_c, 0, 61, 58
1, 301413, Control_c, 0, 64, 47
1, 301428, Control_c, 0, 64, 46
1, 301443, Control_c, 0, 64, 48
1, 301458, Control_c, 0, 64, 50
1, 301460, Note_off_c, 0, 61, 50
1, 301473, Control_c, 0, 64, 53
1, 301474, Note_on_c, 0, 47, 59
1, 301478, Note_on_c, 0, 35, 56
1, 301487, Control_c, 0, 64, 57
1, 301502, Control_c, 0, 64, 60
1, 301505, Note_off_c, 0, 47, 65
1, 301511, Note_off_c, 0, 35, 63
1, 301517, Control_c, 0, 64, 61
1, 301562, Control_c, 0, 64, 61
1, 301571, Note_on_c, 0, 56, 47
1, 301575, Note_on_c, 0, 61, 55
1, 301577, Control_c, 0, 64, 60
1, 301592, Control_c, 0, 64, 60
1, 301606, Control_c, 0, 64, 59
1, 301614, Note_off_c, 0, 61, 45
1, 301618, Note_on_c, 0, 52, 61
1, 301621, Control_c, 0, 64, 59
1, 301645, Note_off_c, 0, 56, 0
1, 301651, Control_c, 0, 64, 58
1, 301669, Note_on_c, 0, 56, 18
1, 301674, Note_off_c, 0, 52, 54
1, 301680, Control_c, 0, 64, 58
1, 301684, Note_on_c, 0, 34, 44
1, 301684, Note_on_c, 0, 60, 52
1, 301689, Note_on_c, 0, 46, 46
1, 301724, Control_c, 0, 64, 57
1, 301727, Note_off_c, 0, 46, 58
1, 301729, Note_off_c, 0, 56, 46
1, 301747, Note_on_c, 0, 61, 67
1, 301753, Control_c, 0, 64, 56
1, 301767, Note_off_c, 0, 60, 62
1, 301768, Control_c, 0, 64, 55
1, 301776, Note_off_c, 0, 34, 59
1, 301783, Control_c, 0, 64, 53
1, 301798, Control_c, 0, 64, 51
1, 301812, Note_off_c, 0, 61, 63
1, 301812, Control_c, 0, 64, 49
1, 301821, Note_on_c, 0, 64, 62
1, 301827, Control_c, 0, 64, 48
1, 301857, Control_c, 0, 64, 49
1, 301872, Control_c, 0, 64, 51
1, 301887, Control_c, 0, 64, 53
1, 301889, Note_on_c, 0, 47, 52
1, 301892, Note_on_c, 0, 35, 53
1, 301896, Note_off_c, 0, 64, 64
1, 301902, Control_c, 0, 64, 57
1, 301915, Note_on_c, 0, 63, 69
1, 301916, Control_c, 0, 64, 59
1, 301926, Note_off_c, 0, 47, 64
1, 301931, Control_c, 0, 64, 61
1, 301934, Note_off_c, 0, 35, 59
1, 301957, Note_off_c, 0, 63, 61
1, 301961, Control_c, 0, 64, 60
1, 301967, Note_on_c, 0, 52, 59
1, 301976, Control_c, 0, 64, 60
1, 302005, Note_off_c, 0, 52, 64
1, 302006, Control_c, 0, 64, 59
1, 302021, Control_c, 0, 64, 59
1, 302043, Note_on_c, 0, 56, 61
1, 302088, Control_c, 0, 64, 59
1, 302102, Note_on_c, 0, 46, 56
1, 302107, Note_on_c, 0, 34, 47
1, 302116, Note_off_c, 0, 56, 61
1, 302123, Note_on_c, 0, 61, 63
1, 302156, Note_off_c, 0, 46, 60
1, 302161, Note_off_c, 0, 34, 63
1, 302161, Control_c, 0, 64, 60
1, 302186, Note_off_c, 0, 61, 62
1, 302191, Control_c, 0, 64, 60
1, 302197, Note_on_c, 0, 68, 62
1, 302225, Note_off_c, 0, 68, 68
1, 302235, Control_c, 0, 64, 60
1, 302250, Control_c, 0, 64, 59
1, 302255, Note_on_c, 0, 56, 63
1, 302265, Control_c, 0, 64, 57
1, 302280, Control_c, 0, 64, 55
1, 302298, Note_on_c, 0, 47, 58
1, 302303, Note_on_c, 0, 35, 56
1, 302310, Control_c, 0, 64, 56
1, 302313, Note_off_c, 0, 56, 60
1, 302316, Note_on_c, 0, 63, 75
1, 302325, Control_c, 0, 64, 57
1, 302340, Control_c, 0, 64, 58
1, 302340, Note_off_c, 0, 47, 63
1, 302350, Note_off_c, 0, 35, 57
1, 302355, Control_c, 0, 64, 60
1, 302369, Control_c, 0, 64, 61
1, 302384, Control_c, 0, 64, 62
1, 302390, Note_on_c, 0, 64, 58
1, 302399, Control_c, 0, 64, 62
1, 302423, Note_off_c, 0, 63, 57
1, 302445, Note_on_c, 0, 68, 68
1, 302450, Note_off_c, 0, 64, 64
1, 302470, Note_off_c, 0, 68, 69
1, 302473, Control_c, 0, 64, 62
1, 302498, Note_on_c, 0, 34, 58
1, 302498, Note_on_c, 0, 46, 64
1, 302507, Note_on_c, 0, 61, 71
1, 302528, Note_off_c, 0, 46, 64
1, 302529, Note_off_c, 0, 34, 63
1, 302536, Note_off_c, 0, 61, 63
1, 302573, Note_on_c, 0, 68, 69
1, 302576, Control_c, 0, 64, 61
1, 302591, Control_c, 0, 64, 60
1, 302606, Control_c, 0, 64, 59
1, 302621, Control_c, 0, 64, 57
1, 302635, Control_c, 0, 64, 55
1, 302636, Note_on_c, 0, 73, 72
1, 302650, Control_c, 0, 64, 53
1, 302653, Note_off_c, 0, 68, 56
1, 302665, Control_c, 0, 64, 52
1, 302680, Control_c, 0, 64, 53
1, 302692, Note_off_c, 0, 73, 64
1, 302694, Control_c, 0, 64, 55
1, 302709, Control_c, 0, 64, 58
1, 302712, Note_on_c, 0, 49, 74
1, 302714, Note_on_c, 0, 59, 74
1, 302718, Note_on_c, 0, 37, 70
1, 302724, Control_c, 0, 64, 61
1, 302739, Note_off_c, 0, 49, 66
1, 302739, Control_c, 0, 64, 63
1, 302750, Note_on_c, 0, 60, 32
1, 302750, Note_off_c, 0, 60, 127
1, 302752, Note_off_c, 0, 37, 63
1, 302754, Control_c, 0, 64, 64
1, 302763, Note_off_c, 0, 59, 62
1, 302784, Control_c, 0, 64, 63
1, 302790, Note_on_c, 0, 73, 68
1, 302807, Note_on_c, 0, 71, 37
1, 302807, Control_c, 0, 64, 63
1, 302822, Note_off_c, 0, 73, 68
1, 302822, Control_c, 0, 64, 62
1, 302835, Note_off_c, 0, 71, 50
1, 302837, Control_c, 0, 64, 61
1, 302852, Control_c, 0, 64, 60
1, 302866, Control_c, 0, 64, 60
1, 302872, Note_on_c, 0, 64, 67
1, 302881, Control_c, 0, 64, 59
1, 302896, Control_c, 0, 64, 58
1, 302897, Note_off_c, 0, 64, 66
1, 302910, Control_c, 0, 64, 58
1, 302921, Note_on_c, 0, 32, 59
1, 302924, Note_on_c, 0, 44, 66
1, 302924, Note_on_c, 0, 71, 64
1, 302925, Control_c, 0, 64, 57
1, 302930, Note_on_c, 0, 72, 69
1, 302951, Note_off_c, 0, 44, 66
1, 302954, Note_off_c, 0, 32, 64
1, 302955, Control_c, 0, 64, 57
1, 302970, Control_c, 0, 64, 56
1, 302984, Control_c, 0, 64, 55
1, 302987, Note_on_c, 0, 73, 85
1, 302999, Control_c, 0, 64, 53
1, 303011, Note_off_c, 0, 71, 58
1, 303014, Control_c, 0, 64, 51
1, 303016, Note_off_c, 0, 72, 61
1, 303029, Control_c, 0, 64, 49
1, 303044, Control_c, 0, 64, 48
1, 303058, Control_c, 0, 64, 48
1, 303070, Note_on_c, 0, 76, 80
1, 303073, Control_c, 0, 64, 49
1, 303075, Note_off_c, 0, 73, 63
1, 303088, Control_c, 0, 64, 51
1, 303103, Control_c, 0, 64, 53
1, 303118, Control_c, 0, 64, 55
1, 303124, Note_on_c, 0, 49, 72
1, 303131, Note_on_c, 0, 75, 86
1, 303133, Control_c, 0, 64, 56
1, 303135, Note_on_c, 0, 37, 56
1, 303137, Note_off_c, 0, 76, 66
1, 303148, Control_c, 0, 64, 57
1, 303149, Note_off_c, 0, 49, 66
1, 303166, Note_off_c, 0, 37, 63
1, 303175, Note_off_c, 0, 75, 65
1, 303177, Control_c, 0, 64, 56
1, 303192, Control_c, 0, 64, 56
1, 303207, Control_c, 0, 64, 55
1, 303219, Note_on_c, 0, 64, 58
1, 303237, Control_c, 0, 64, 55
1, 303252, Note_off_c, 0, 64, 63
1, 303267, Control_c, 0, 64, 54
1, 303274, Note_on_c, 0, 73, 79
1, 303311, Control_c, 0, 64, 54
1, 303341, Note_on_c, 0, 44, 65
1, 303341, Note_on_c, 0, 32, 60
1, 303346, Note_on_c, 0, 71, 64
1, 303359, Note_off_c, 0, 73, 57
1, 303371, Control_c, 0, 64, 53
1, 303377, Note_off_c, 0, 44, 65
1, 303378, Note_off_c, 0, 32, 62
1, 303388, Note_on_c, 0, 64, 58
1, 303415, Control_c, 0, 64, 53
1, 303422, Note_off_c, 0, 71, 59
1, 303430, Control_c, 0, 64, 52
1, 303445, Control_c, 0, 64, 52
1, 303446, Note_off_c, 0, 64, 57
1, 303459, Control_c, 0, 64, 51
1, 303474, Control_c, 0, 64, 51
1, 303475, Note_on_c, 0, 70, 69
1, 303489, Control_c, 0, 64, 51
1, 303503, Control_c, 0, 64, 52
1, 303518, Control_c, 0, 64, 53
1, 303533, Control_c, 0, 64, 55
1, 303545, Note_on_c, 0, 68, 66
1, 303548, Control_c, 0, 64, 58
1, 303549, Note_on_c, 0, 49, 54
1, 303560, Note_on_c, 0, 37, 51
1, 303568, Note_off_c, 0, 70, 63
1, 303571, Control_c, 0, 64, 60
1, 303586, Control_c, 0, 64, 60
1, 303589, Note_off_c, 0, 49, 64
1, 303599, Note_off_c, 0, 37, 62
1, 303601, Control_c, 0, 64, 61
1, 303607, Note_off_c, 0, 68, 62
1, 303626, Note_on_c, 0, 64, 54
1, 303660, Note_off_c, 0, 64, 63
1, 303702, Note_on_c, 0, 68, 67
1, 303705, Control_c, 0, 64, 60
1, 303768, Note_on_c, 0, 32, 52
1, 303770, Note_off_c, 0, 68, 61
1, 303775, Note_on_c, 0, 64, 57
1, 303782, Note_on_c, 0, 44, 42
1, 303813, Note_on_c, 0, 61, 53
1, 303817, Note_off_c, 0, 44, 60
1, 303818, Note_off_c, 0, 64, 60
1, 303823, Control_c, 0, 64, 61
1, 303836, Note_off_c, 0, 32, 55
1, 303853, Control_c, 0, 64, 61
1, 303854, Note_off_c, 0, 61, 55
1, 303881, Note_on_c, 0, 64, 54
1, 303882, Control_c, 0, 64, 62
1, 303897, Control_c, 0, 64, 63
1, 303912, Control_c, 0, 64, 63
1, 303919, Note_off_c, 0, 64, 63
1, 303956, Control_c, 0, 64, 62
1, 303970, Note_on_c, 0, 47, 67
1, 303971, Control_c, 0, 64, 61
1, 303986, Control_c, 0, 64, 59
1, 303988, Note_on_c, 0, 35, 57
1, 304000, Control_c, 0, 64, 58
1, 304015, Control_c, 0, 64, 57
1, 304021, Note_off_c, 0, 47, 61
1, 304030, Control_c, 0, 64, 58
1, 304047, Note_off_c, 0, 35, 59
1, 304060, Control_c, 0, 64, 59
1, 304062, Note_on_c, 0, 64, 62
1, 304068, Note_on_c, 0, 59, 50
1, 304075, Control_c, 0, 64, 60
1, 304090, Control_c, 0, 64, 62
1, 304103, Note_off_c, 0, 59, 64
1, 304114, Note_off_c, 0, 64, 63
1, 304134, Control_c, 0, 64, 61
1, 304140, Note_on_c, 0, 52, 70
1, 304149, Control_c, 0, 64, 61
1, 304164, Control_c, 0, 64, 60
1, 304173, Note_on_c, 0, 32, 44
1, 304173, Note_off_c, 0, 52, 65
1, 304179, Control_c, 0, 64, 59
1, 304185, Note_on_c, 0, 59, 58
1, 304189, Note_on_c, 0, 44, 28
1, 304194, Control_c, 0, 64, 58
1, 304208, Note_off_c, 0, 32, 58
1, 304208, Control_c, 0, 64, 57
1, 304212, Note_on_c, 0, 63, 55
1, 304223, Control_c, 0, 64, 56
1, 304227, Note_off_c, 0, 44, 47
1, 304238, Control_c, 0, 64, 55
1, 304248, Note_off_c, 0, 59, 63
1, 304252, Control_c, 0, 64, 54
1, 304266, Note_on_c, 0, 64, 63
1, 304267, Control_c, 0, 64, 54
1, 304297, Control_c, 0, 64, 54
1, 304298, Note_off_c, 0, 64, 64
1, 304310, Note_off_c, 0, 63, 63
1, 304319, Control_c, 0, 64, 55
1, 304334, Control_c, 0, 64, 57
1, 304337, Note_on_c, 0, 71, 62
1, 304349, Control_c, 0, 64, 58
1, 304364, Control_c, 0, 64, 59
1, 304378, Note_off_c, 0, 71, 64
1, 304379, Control_c, 0, 64, 59
1, 304394, Control_c, 0, 64, 60
1, 304400, Note_on_c, 0, 47, 61
1, 304414, Note_on_c, 0, 35, 55
1, 304417, Note_on_c, 0, 66, 73
1, 304459, Note_off_c, 0, 47, 62
1, 304467, Note_off_c, 0, 66, 63
1, 304468, Control_c, 0, 64, 59
1, 304499, Note_on_c, 0, 52, 68
1, 304503, Note_off_c, 0, 35, 61
1, 304546, Note_off_c, 0, 52, 62
1, 304555, Note_on_c, 0, 59, 63
1, 304617, Note_on_c, 0, 32, 51
1, 304621, Note_on_c, 0, 44, 50
1, 304622, Note_off_c, 0, 59, 63
1, 304639, Note_on_c, 0, 64, 37
1, 304656, Note_off_c, 0, 32, 59
1, 304665, Note_off_c, 0, 44, 63
1, 304665, Note_off_c, 0, 64, 60
1, 304677, Note_on_c, 0, 71, 73
1, 304690, Control_c, 0, 64, 60
1, 304720, Control_c, 0, 64, 61
1, 304735, Control_c, 0, 64, 61
1, 304749, Control_c, 0, 64, 62
1, 304755, Note_on_c, 0, 59, 50
1, 304764, Control_c, 0, 64, 61
1, 304765, Note_off_c, 0, 71, 61
1, 304779, Control_c, 0, 64, 59
1, 304794, Control_c, 0, 64, 55
1, 304809, Control_c, 0, 64, 52
1, 304814, Note_on_c, 0, 47, 62
1, 304815, Note_on_c, 0, 66, 59
1, 304823, Note_off_c, 0, 59, 63
1, 304823, Control_c, 0, 64, 49
1, 304834, Note_on_c, 0, 35, 50
1, 304838, Control_c, 0, 64, 49
1, 304853, Control_c, 0, 64, 50
1, 304862, Note_off_c, 0, 47, 62
1, 304868, Control_c, 0, 64, 53
1, 304872, Note_on_c, 0, 68, 60
1, 304882, Control_c, 0, 64, 56
1, 304887, Note_off_c, 0, 66, 60
1, 304897, Control_c, 0, 64, 59
1, 304912, Control_c, 0, 64, 61
1, 304927, Control_c, 0, 64, 61
1, 304938, Note_on_c, 0, 71, 64
1, 304945, Note_off_c, 0, 68, 62
1, 304957, Control_c, 0, 64, 61
1, 304967, Note_off_c, 0, 71, 64
1, 304968, Note_off_c, 0, 35, 50
1, 304987, Control_c, 0, 64, 60
1, 305020, Note_on_c, 0, 32, 48
1, 305022, Note_on_c, 0, 64, 57
1, 305032, Note_on_c, 0, 44, 49
1, 305059, Note_off_c, 0, 64, 66
1, 305064, Note_off_c, 0, 32, 62
1, 305066, Note_off_c, 0, 44, 60
1, 305082, Note_on_c, 0, 71, 64
1, 305097, Control_c, 0, 64, 61
1, 305127, Control_c, 0, 64, 61
1, 305132, Note_off_c, 0, 71, 61
1, 305142, Control_c, 0, 64, 62
1, 305147, Note_on_c, 0, 76, 64
1, 305163, Note_off_c, 0, 76, 65
1, 305172, Control_c, 0, 64, 61
1, 305187, Control_c, 0, 64, 58
1, 305202, Control_c, 0, 64, 54
1, 305217, Control_c, 0, 64, 51
1, 305231, Note_on_c, 0, 47, 59
1, 305231, Note_on_c, 0, 35, 62
1, 305232, Control_c, 0, 64, 48
1, 305247, Control_c, 0, 64, 48
1, 305261, Control_c, 0, 64, 49
1, 305276, Control_c, 0, 64, 52
1, 305291, Control_c, 0, 64, 56
1, 305294, Note_off_c, 0, 47, 63
1, 305306, Control_c, 0, 64, 59
1, 305319, Note_off_c, 0, 35, 57
1, 305320, Note_on_c, 0, 59, 62
1, 305321, Control_c, 0, 64, 61
1, 305323, Note_on_c, 0, 63, 65
1, 305371, Note_off_c, 0, 59, 64
1, 305384, Note_off_c, 0, 63, 62
1, 305393, Note_on_c, 0, 54, 66
1, 305410, Control_c, 0, 64, 61
1, 305443, Note_on_c, 0, 33, 67
1, 305443, Note_off_c, 0, 54, 57
1, 305444, Note_on_c, 0, 59, 67
1, 305448, Note_on_c, 0, 45, 56
1, 305475, Note_off_c, 0, 33, 64
1, 305482, Note_off_c, 0, 45, 60
1, 305497, Control_c, 0, 64, 60
1, 305502, Note_on_c, 0, 63, 63
1, 305511, Control_c, 0, 64, 58
1, 305526, Note_off_c, 0, 59, 61
1, 305526, Control_c, 0, 64, 56
1, 305540, Note_on_c, 0, 61, 22
1, 305541, Control_c, 0, 64, 54
1, 305556, Control_c, 0, 64, 53
1, 305573, Note_on_c, 0, 66, 74
1, 305579, Note_off_c, 0, 63, 65
1, 305580, Note_off_c, 0, 61, 38
1, 305586, Control_c, 0, 64, 53
1, 305601, Control_c, 0, 64, 54
1, 305616, Control_c, 0, 64, 55
1, 305631, Control_c, 0, 64, 57
1, 305636, Note_on_c, 0, 47, 65
1, 305638, Note_on_c, 0, 35, 63
1, 305642, Note_on_c, 0, 64, 64
1, 305645, Control_c, 0, 64, 58
1, 305646, Note_off_c, 0, 66, 64
1, 305660, Control_c, 0, 64, 60
1, 305672, Note_off_c, 0, 47, 63
1, 305675, Control_c, 0, 64, 60
1, 305678, Note_on_c, 0, 54, 73
1, 305690, Control_c, 0, 67, 119
1, 305696, Note_off_c, 0, 35, 55
1, 305704, Control_c, 0, 67, 108
1, 305719, Control_c, 0, 67, 96
1, 305731, Note_off_c, 0, 64, 62
1, 305733, Note_off_c, 0, 54, 62
1, 305734, Control_c, 0, 64, 61
1, 305734, Control_c, 0, 67, 85
1, 305749, Control_c, 0, 64, 60
1, 305749, Control_c, 0, 67, 74
1, 305759, Note_on_c, 0, 59, 62
1, 305764, Control_c, 0, 67, 64
1, 305778, Control_c, 0, 67, 54
1, 305801, Control_c, 0, 64, 60
1, 305801, Control_c, 0, 67, 44
1, 305815, Control_c, 0, 67, 33
1, 305825, Note_off_c, 0, 59, 54
1, 305830, Control_c, 0, 67, 25
1, 305835, Note_on_c, 0, 33, 62
1, 305839, Note_on_c, 0, 63, 73
1, 305841, Note_on_c, 0, 45, 63
1, 305845, Control_c, 0, 67, 0
1, 305872, Note_off_c, 0, 33, 62
1, 305890, Control_c, 0, 64, 60
1, 305893, Note_off_c, 0, 45, 60
1, 305911, Note_on_c, 0, 71, 72
1, 305913, Note_off_c, 0, 63, 63
1, 305919, Control_c, 0, 64, 61
1, 305934, Control_c, 0, 64, 61
1, 305964, Control_c, 0, 64, 60
1, 305971, Note_off_c, 0, 71, 59
1, 305977, Note_on_c, 0, 59, 53
1, 305979, Control_c, 0, 64, 57
1, 305994, Control_c, 0, 64, 54
1, 306009, Control_c, 0, 64, 50
1, 306011, Note_off_c, 0, 59, 65
1, 306015, Note_on_c, 0, 47, 59
1, 306022, Note_on_c, 0, 35, 63
1, 306024, Control_c, 0, 64, 49
1, 306039, Control_c, 0, 64, 50
1, 306045, Note_on_c, 0, 64, 67
1, 306054, Control_c, 0, 64, 52
1, 306068, Note_off_c, 0, 47, 58
1, 306069, Control_c, 0, 64, 55
1, 306083, Control_c, 0, 64, 58
1, 306095, Note_off_c, 0, 35, 56
1, 306098, Control_c, 0, 64, 60
1, 306099, Note_on_c, 0, 66, 60
1, 306102, Note_off_c, 0, 64, 62
1, 306113, Control_c, 0, 64, 62
1, 306145, Note_off_c, 0, 66, 61
1, 306150, Note_on_c, 0, 71, 60
1, 306185, Note_off_c, 0, 71, 66
1, 306206, Note_on_c, 0, 33, 62
1, 306218, Note_on_c, 0, 45, 53
1, 306224, Note_on_c, 0, 63, 64
1, 306232, Control_c, 0, 64, 62
1, 306247, Control_c, 0, 67, 20
1, 306250, Note_off_c, 0, 33, 60
1, 306254, Note_off_c, 0, 45, 64
1, 306273, Note_off_c, 0, 63, 54
1, 306276, Control_c, 0, 67, 22
1, 306289, Note_on_c, 0, 66, 39
1, 306291, Control_c, 0, 64, 62
1, 306306, Control_c, 0, 64, 61
1, 306306, Control_c, 0, 67, 24
1, 306320, Control_c, 0, 64, 59
1, 306322, Note_off_c, 0, 66, 34
1, 306335, Control_c, 0, 64, 57
1, 306335, Control_c, 0, 67, 27
1, 306350, Control_c, 0, 64, 53
1, 306361, Note_on_c, 0, 75, 46
1, 306365, Control_c, 0, 64, 50
1, 306380, Control_c, 0, 64, 45
1, 306394, Control_c, 0, 64, 41
1, 306394, Control_c, 0, 67, 29
1, 306409, Control_c, 0, 64, 40
1, 306420, Note_on_c, 0, 34, 54
1, 306423, Note_off_c, 0, 75, 63
1, 306424, Control_c, 0, 64, 41
1, 306424, Control_c, 0, 67, 33
1, 306437, Note_on_c, 0, 46, 62
1, 306439, Control_c, 0, 64, 44
1, 306439, Control_c, 0, 67, 38
1, 306453, Control_c, 0, 64, 50
1, 306453, Control_c, 0, 67, 43
1, 306456, Note_off_c, 0, 34, 64
1, 306459, Note_on_c, 0, 63, 50
1, 306468, Control_c, 0, 64, 58
1, 306468, Control_c, 0, 67, 50
1, 306470, Note_off_c, 0, 46, 64
1, 306483, Control_c, 0, 64, 62
1, 306483, Control_c, 0, 67, 60
1, 306498, Control_c, 0, 64, 65
1, 306498, Control_c, 0, 67, 68
1, 306509, Note_off_c, 0, 63, 56
1, 306513, Control_c, 0, 64, 67
1, 306513, Control_c, 0, 67, 76
1, 306528, Control_c, 0, 64, 68
1, 306528, Control_c, 0, 67, 80
1, 306550, Control_c, 0, 64, 70
1, 306550, Control_c, 0, 67, 83
1, 306565, Control_c, 0, 64, 71
1, 306565, Control_c, 0, 67, 85
1, 306567, Note_on_c, 0, 75, 43
1, 306580, Note_on_c, 0, 73, 45
1, 306580, Control_c, 0, 64, 72
1, 306580, Control_c, 0, 67, 86
1, 306595, Control_c, 0, 64, 73
1, 306595, Control_c, 0, 67, 87
1, 306609, Control_c, 0, 64, 73
1, 306609, Control_c, 0, 67, 88
1, 306624, Control_c, 0, 67, 89
1, 306650, Note_on_c, 0, 71, 56
1, 306650, Note_off_c, 0, 75, 53
1, 306653, Control_c, 0, 64, 70
1, 306653, Control_c, 0, 67, 90
1, 306658, Note_on_c, 0, 51, 62
1, 306668, Control_c, 0, 64, 65
1, 306672, Note_on_c, 0, 46, 56
1, 306683, Control_c, 0, 64, 61
1, 306698, Control_c, 0, 64, 60
1, 306701, Note_off_c, 0, 73, 57
1, 306713, Control_c, 0, 64, 61
1, 306724, Note_on_c, 0, 68, 48
1, 306724, Note_off_c, 0, 71, 63
1, 306728, Control_c, 0, 64, 62
1, 306743, Control_c, 0, 64, 64
1, 306743, Control_c, 0, 67, 90
1, 306756, Note_off_c, 0, 68, 64
1, 306757, Control_c, 0, 64, 66
1, 306773, Control_c, 0, 64, 68
1, 306773, Control_c, 0, 67, 91
1, 306779, Note_on_c, 0, 66, 57
1, 306788, Control_c, 0, 64, 69
1, 306788, Control_c, 0, 67, 93
1, 306803, Control_c, 0, 64, 68
1, 306803, Control_c, 0, 67, 95
1, 306813, Note_off_c, 0, 66, 64
1, 306818, Control_c, 0, 64, 65
1, 306818, Control_c, 0, 67, 96
1, 306832, Control_c, 0, 64, 61
1, 306847, Control_c, 0, 64, 56
1, 306853, Note_on_c, 0, 53, 74
1, 306853, Note_on_c, 0, 70, 76
1, 306862, Control_c, 0, 64, 52
1, 306877, Control_c, 0, 64, 49
1, 306877, Note_off_c, 0, 51, 61
1, 306892, Control_c, 0, 64, 49
1, 306906, Control_c, 0, 64, 52
1, 306921, Control_c, 0, 64, 56
1, 306921, Control_c, 0, 67, 98
1, 306929, Note_on_c, 0, 65, 32
1, 306936, Control_c, 0, 64, 61
1, 306936, Control_c, 0, 67, 100
1, 306951, Note_off_c, 0, 70, 61
1, 306951, Control_c, 0, 64, 64
1, 306951, Control_c, 0, 67, 103
1, 306966, Note_off_c, 0, 65, 63
1, 306966, Control_c, 0, 64, 66
1, 306981, Control_c, 0, 67, 105
1, 306991, Note_on_c, 0, 63, 56
1, 306996, Control_c, 0, 64, 65
1, 307011, Control_c, 0, 64, 62
1, 307015, Note_off_c, 0, 63, 64
1, 307025, Control_c, 0, 64, 59
1, 307040, Control_c, 0, 64, 57
1, 307044, Note_off_c, 0, 53, 57
1, 307055, Control_c, 0, 64, 56
1, 307062, Note_on_c, 0, 54, 71
1, 307070, Control_c, 0, 64, 57
1, 307070, Note_on_c, 0, 66, 72
1, 307084, Control_c, 0, 64, 59
1, 307084, Control_c, 0, 67, 107
1, 307099, Control_c, 0, 64, 61
1, 307099, Control_c, 0, 67, 109
1, 307114, Control_c, 0, 64, 63
1, 307114, Control_c, 0, 67, 112
1, 307129, Control_c, 0, 64, 65
1, 307129, Control_c, 0, 67, 115
1, 307133, Note_on_c, 0, 59, 51
1, 307144, Control_c, 0, 64, 67
1, 307144, Control_c, 0, 67, 117
1, 307146, Note_off_c, 0, 46, 57
1, 307158, Control_c, 0, 64, 67
1, 307158, Control_c, 0, 67, 120
1, 307173, Control_c, 0, 64, 68
1, 307173, Control_c, 0, 67, 122
1, 307188, Control_c, 0, 64, 68
1, 307197, Note_off_c, 0, 59, 60
1, 307203, Control_c, 0, 64, 69
1, 307203, Control_c, 0, 67, 124
1, 307207, Note_off_c, 0, 66, 58
1, 307208, Note_on_c, 0, 58, 54
1, 307218, Control_c, 0, 64, 69
1, 307231, Note_off_c, 0, 58, 63
1, 307232, Control_c, 0, 64, 70
1, 307232, Control_c, 0, 67, 126
1, 307247, Control_c, 0, 64, 71
1, 307262, Control_c, 0, 64, 72
1, 307276, Control_c, 0, 64, 73
1, 307299, Control_c, 0, 64, 71
1, 307313, Note_off_c, 0, 54, 58
1, 307314, Control_c, 0, 64, 66
1, 307329, Control_c, 0, 64, 60
1, 307330, Note_on_c, 0, 66, 75
1, 307330, Note_on_c, 0, 58, 65
1, 307344, Control_c, 0, 64, 53
1, 307348, Note_on_c, 0, 46, 64
1, 307358, Control_c, 0, 64, 47
1, 307373, Control_c, 0, 64, 41
1, 307388, Control_c, 0, 64, 41
1, 307400, Note_off_c, 0, 58, 62
1, 307403, Control_c, 0, 64, 42
1, 307418, Control_c, 0, 64, 47
1, 307432, Control_c, 0, 64, 53
1, 307434, Note_on_c, 0, 62, 57
1, 307447, Control_c, 0, 64, 60
1, 307462, Control_c, 0, 64, 64
1, 307476, Control_c, 0, 64, 68
1, 307491, Control_c, 0, 64, 71
1, 307506, Control_c, 0, 64, 73
1, 307510, Note_off_c, 0, 66, 61
1, 307515, Note_off_c, 0, 62, 60
1, 307521, Control_c, 0, 64, 75
1, 307530, Note_on_c, 0, 56, 16
1, 307536, Control_c, 0, 64, 76
1, 307550, Control_c, 0, 64, 76
1, 307565, Control_c, 0, 64, 77
1, 307571, Note_off_c, 0, 56, 39
1, 307574, Note_on_c, 0, 64, 65
1, 307581, Control_c, 0, 64, 78
1, 307596, Control_c, 0, 64, 78
1, 307626, Control_c, 0, 64, 79
1, 307635, Note_on_c, 0, 62, 56
1, 307641, Control_c, 0, 64, 79
1, 307655, Control_c, 0, 64, 80
1, 307662, Note_off_c, 0, 64, 62
1, 307670, Control_c, 0, 64, 81
1, 307685, Control_c, 0, 64, 82
1, 307699, Control_c, 0, 64, 83
1, 307700, Note_on_c, 0, 56, 54
1, 307700, Note_off_c, 0, 62, 60
1, 307729, Control_c, 0, 64, 77
1, 307744, Control_c, 0, 64, 68
1, 307749, Note_off_c, 0, 56, 60
1, 307759, Control_c, 0, 64, 59
1, 307774, Control_c, 0, 64, 47
1, 307789, Control_c, 0, 64, 37
1, 307790, Note_on_c, 0, 63, 66
1, 307792, Note_on_c, 0, 39, 59
1, 307801, Note_on_c, 0, 51, 52
1, 307804, Control_c, 0, 64, 32
1, 307818, Control_c, 0, 64, 33
1, 307833, Control_c, 0, 64, 40
1, 307848, Control_c, 0, 64, 50
1, 307854, Note_off_c, 0, 39, 58
1, 307863, Control_c, 0, 64, 59
1, 307877, Note_off_c, 0, 46, 63
1, 307878, Control_c, 0, 64, 66
1, 307892, Control_c, 0, 64, 71
1, 307898, Note_off_c, 0, 51, 62
1, 307899, Note_on_c, 0, 55, 55
1, 307907, Control_c, 0, 64, 76
1, 307913, Note_on_c, 0, 58, 58
1, 307922, Note_off_c, 0, 55, 60
1, 307922, Control_c, 0, 64, 80
1, 307934, Note_off_c, 0, 63, 62
1, 307937, Control_c, 0, 64, 84
1, 307946, Note_off_c, 0, 58, 66
1, 307952, Control_c, 0, 64, 90
1, 307966, Control_c, 0, 64, 102
1, 307981, Control_c, 0, 64, 127
1, 308025, Control_c, 0, 64, 114
1, 308048, Control_c, 0, 64, 84
1, 308063, Control_c, 0, 64, 67
1, 308067, Note_on_c, 0, 59, 70
1, 308078, Control_c, 0, 64, 55
1, 308084, Note_on_c, 0, 75, 65
1, 308093, Control_c, 0, 64, 51
1, 308107, Control_c, 0, 64, 52
1, 308122, Control_c, 0, 64, 54
1, 308137, Control_c, 0, 64, 59
1, 308150, Note_on_c, 0, 73, 58
1, 308152, Control_c, 0, 64, 63
1, 308167, Control_c, 0, 64, 68
1, 308181, Control_c, 0, 64, 74
1, 308191, Note_off_c, 0, 75, 61
1, 308196, Control_c, 0, 64, 79
1, 308211, Control_c, 0, 64, 82
1, 308225, Control_c, 0, 64, 82
1, 308233, Note_on_c, 0, 68, 61
1, 308240, Control_c, 0, 64, 81
1, 308247, Note_off_c, 0, 73, 62
1, 308255, Control_c, 0, 64, 73
1, 308263, Note_off_c, 0, 68, 66
1, 308270, Control_c, 0, 64, 62
1, 308285, Control_c, 0, 64, 53
1, 308291, Note_on_c, 0, 58, 67
1, 308299, Control_c, 0, 64, 50
1, 308300, Note_on_c, 0, 75, 69
1, 308312, Note_off_c, 0, 59, 49
1, 308314, Control_c, 0, 64, 51
1, 308329, Control_c, 0, 64, 55
1, 308344, Control_c, 0, 64, 61
1, 308359, Control_c, 0, 64, 65
1, 308360, Note_on_c, 0, 73, 67
1, 308375, Control_c, 0, 64, 71
1, 308382, Note_off_c, 0, 75, 62
1, 308390, Control_c, 0, 64, 75
1, 308404, Control_c, 0, 64, 76
1, 308421, Note_off_c, 0, 73, 62
1, 308424, Note_on_c, 0, 67, 54
1, 308434, Control_c, 0, 64, 75
1, 308448, Control_c, 0, 64, 70
1, 308457, Note_off_c, 0, 67, 56
1, 308463, Control_c, 0, 64, 64
1, 308478, Control_c, 0, 64, 55
1, 308492, Note_on_c, 0, 56, 60
1, 308493, Control_c, 0, 64, 48
1, 308495, Note_on_c, 0, 73, 69
1, 308508, Control_c, 0, 64, 40
1, 308522, Control_c, 0, 64, 36
1, 308524, Note_off_c, 0, 58, 56
1, 308537, Control_c, 0, 64, 37
1, 308552, Control_c, 0, 64, 43
1, 308567, Control_c, 0, 64, 53
1, 308580, Note_off_c, 0, 73, 59
1, 308582, Control_c, 0, 64, 61
1, 308590, Note_on_c, 0, 70, 44
1, 308597, Control_c, 0, 64, 65
1, 308612, Control_c, 0, 64, 67
1, 308618, Note_off_c, 0, 70, 60
1, 308626, Control_c, 0, 64, 69
1, 308639, Note_on_c, 0, 64, 47
1, 308641, Control_c, 0, 64, 72
1, 308656, Control_c, 0, 64, 74
1, 308686, Control_c, 0, 64, 71
1, 308688, Note_off_c, 0, 64, 51
1, 308701, Control_c, 0, 64, 65
1, 308714, Note_off_c, 0, 56, 53
1, 308715, Control_c, 0, 64, 57
1, 308723, Note_on_c, 0, 70, 55
1, 308730, Control_c, 0, 64, 47
1, 308736, Note_on_c, 0, 55, 48
1, 308745, Control_c, 0, 64, 41
1, 308760, Control_c, 0, 64, 39
1, 308775, Control_c, 0, 64, 43
1, 308796, Control_c, 0, 64, 51
1, 308811, Control_c, 0, 64, 59
1, 308826, Control_c, 0, 64, 64
1, 308836, Note_on_c, 0, 64, 46
1, 308841, Control_c, 0, 64, 68
1, 308847, Note_off_c, 0, 70, 63
1, 308856, Control_c, 0, 64, 72
1, 308871, Control_c, 0, 64, 73
1, 308878, Note_off_c, 0, 64, 62
1, 308886, Control_c, 0, 64, 72
1, 308901, Control_c, 0, 64, 68
1, 308908, Note_on_c, 0, 61, 46
1, 308916, Control_c, 0, 64, 62
1, 308930, Control_c, 0, 64, 56
1, 308939, Note_off_c, 0, 61, 54
1, 308945, Control_c, 0, 64, 53
1, 308974, Note_on_c, 0, 70, 54
1, 308975, Control_c, 0, 64, 55
1, 308990, Control_c, 0, 64, 59
1, 309004, Control_c, 0, 64, 63
1, 309011, Note_off_c, 0, 55, 64
1, 309019, Control_c, 0, 64, 67
1, 309023, Note_on_c, 0, 63, 44
1, 309034, Control_c, 0, 64, 71
1, 309048, Control_c, 0, 64, 72
1, 309063, Control_c, 0, 64, 73
1, 309094, Note_off_c, 0, 70, 47
1, 309101, Note_off_c, 0, 63, 61
1, 309106, Note_on_c, 0, 61, 48
1, 309132, Note_off_c, 0, 61, 56
1, 309152, Control_c, 0, 64, 74
1, 309198, Control_c, 0, 64, 73
1, 309213, Control_c, 0, 64, 69
1, 309226, Note_on_c, 0, 56, 60
1, 309227, Control_c, 0, 64, 64
1, 309238, Note_on_c, 0, 44, 53
1, 309242, Control_c, 0, 64, 59
1, 309257, Control_c, 0, 64, 56
1, 309267, Note_off_c, 0, 56, 56
1, 309271, Control_c, 0, 64, 55
1, 309286, Control_c, 0, 64, 56
1, 309296, Note_off_c, 0, 44, 57
1, 309301, Control_c, 0, 64, 58
1, 309316, Control_c, 0, 64, 60
1, 309318, Note_on_c, 0, 61, 50
1, 309331, Control_c, 0, 64, 62
1, 309345, Control_c, 0, 64, 63
1, 309360, Control_c, 0, 64, 63
1, 309370, Note_on_c, 0, 56, 60
1, 309375, Control_c, 0, 64, 62
1, 309390, Note_off_c, 0, 61, 60
1, 309390, Control_c, 0, 64, 59
1, 309405, Control_c, 0, 64, 54
1, 309407, Note_off_c, 0, 56, 61
1, 309419, Control_c, 0, 64, 47
1, 309434, Control_c, 0, 64, 40
1, 309435, Note_on_c, 0, 42, 58
1, 309436, Note_on_c, 0, 54, 58
1, 309445, Note_on_c, 0, 60, 56
1, 309449, Control_c, 0, 64, 38
1, 309464, Control_c, 0, 64, 41
1, 309464, Note_off_c, 0, 42, 64
1, 309468, Note_off_c, 0, 54, 63
1, 309479, Control_c, 0, 64, 48
1, 309494, Control_c, 0, 64, 54
1, 309503, Note_on_c, 0, 61, 61
1, 309506, Note_off_c, 0, 60, 61
1, 309509, Control_c, 0, 64, 57
1, 309524, Control_c, 0, 64, 56
1, 309545, Control_c, 0, 64, 52
1, 309560, Control_c, 0, 64, 49
1, 309571, Note_on_c, 0, 64, 62
1, 309573, Note_off_c, 0, 61, 60
1, 309575, Control_c, 0, 64, 43
1, 309590, Control_c, 0, 64, 39
1, 309604, Control_c, 0, 64, 36
1, 309619, Control_c, 0, 64, 37
1, 309622, Note_off_c, 0, 64, 62
1, 309630, Note_on_c, 0, 44, 62
1, 309630, Note_on_c, 0, 56, 50
1, 309630, Note_on_c, 0, 63, 61
1, 309634, Control_c, 0, 64, 40
1, 309649, Control_c, 0, 64, 47
1, 309654, Note_off_c, 0, 56, 57
1, 309659, Note_off_c, 0, 44, 65
1, 309664, Control_c, 0, 64, 55
1, 309665, Note_off_c, 0, 63, 62
1, 309679, Control_c, 0, 64, 58
1, 309693, Note_on_c, 0, 56, 72
1, 309694, Control_c, 0, 64, 59
1, 309738, Control_c, 0, 64, 58
1, 309742, Note_off_c, 0, 56, 60
1, 309753, Control_c, 0, 64, 57
1, 309768, Control_c, 0, 64, 53
1, 309769, Note_on_c, 0, 61, 75
1, 309783, Control_c, 0, 64, 50
1, 309797, Control_c, 0, 64, 49
1, 309812, Control_c, 0, 64, 50
1, 309825, Note_on_c, 0, 63, 69
1, 309827, Control_c, 0, 64, 52
1, 309828, Note_on_c, 0, 42, 62
1, 309828, Note_on_c, 0, 54, 68
1, 309842, Control_c, 0, 64, 54
1, 309843, Note_off_c, 0, 61, 60
1, 309857, Control_c, 0, 64, 57
1, 309864, Note_off_c, 0, 54, 61
1, 309865, Note_off_c, 0, 42, 64
1, 309871, Control_c, 0, 64, 59
1, 309887, Note_on_c, 0, 68, 72
1, 309901, Control_c, 0, 64, 58
1, 309905, Note_off_c, 0, 63, 62
1, 309916, Control_c, 0, 64, 57
1, 309931, Control_c, 0, 64, 55
1, 309937, Note_off_c, 0, 68, 63
1, 309945, Control_c, 0, 64, 51
1, 309959, Note_on_c, 0, 60, 77
1, 309960, Control_c, 0, 64, 47
1, 309976, Control_c, 0, 64, 45
1, 309991, Control_c, 0, 64, 46
1, 309993, Note_on_c, 0, 56, 74
1, 309998, Note_off_c, 0, 60, 64
1, 310003, Note_on_c, 0, 44, 67
1, 310006, Control_c, 0, 64, 49
1, 310021, Control_c, 0, 64, 53
1, 310030, Note_off_c, 0, 56, 60
1, 310031, Note_on_c, 0, 64, 71
1, 310036, Control_c, 0, 64, 57
1, 310050, Control_c, 0, 64, 60
1, 310056, Note_off_c, 0, 44, 58
1, 310065, Control_c, 0, 64, 61
1, 310080, Note_on_c, 0, 68, 73
1, 310080, Control_c, 0, 64, 60
1, 310094, Control_c, 0, 64, 58
1, 310099, Note_off_c, 0, 64, 63
1, 310109, Control_c, 0, 64, 55
1, 310124, Control_c, 0, 64, 52
1, 310139, Control_c, 0, 64, 50
1, 310147, Note_off_c, 0, 68, 65
1, 310149, Note_on_c, 0, 72, 67
1, 310154, Control_c, 0, 64, 51
1, 310168, Control_c, 0, 64, 53
1, 310183, Control_c, 0, 64, 55
1, 310188, Note_off_c, 0, 72, 65
1, 310193, Note_on_c, 0, 54, 77
1, 310194, Note_on_c, 0, 42, 69
1, 310198, Control_c, 0, 64, 56
1, 310212, Control_c, 0, 64, 57
1, 310218, Note_on_c, 0, 63, 71
1, 310227, Control_c, 0, 64, 58
1, 310230, Note_off_c, 0, 42, 66
1, 310236, Note_off_c, 0, 54, 61
1, 310242, Control_c, 0, 64, 59
1, 310257, Control_c, 0, 64, 60
1, 310269, Note_off_c, 0, 63, 51
1, 310272, Control_c, 0, 64, 61
1, 310277, Note_on_c, 0, 68, 72
1, 310309, Control_c, 0, 64, 60
1, 310324, Control_c, 0, 64, 59
1, 310339, Control_c, 0, 64, 57
1, 310352, Note_on_c, 0, 75, 78
1, 310354, Control_c, 0, 64, 53
1, 310368, Control_c, 0, 64, 48
1, 310374, Note_off_c, 0, 68, 63
1, 310383, Control_c, 0, 64, 41
1, 310395, Note_off_c, 0, 75, 64
1, 310398, Control_c, 0, 64, 34
1, 310410, Note_on_c, 0, 57, 75
1, 310413, Note_on_c, 0, 45, 71
1, 310413, Control_c, 0, 64, 31
1, 310422, Note_on_c, 0, 61, 76
1, 310427, Control_c, 0, 64, 33
1, 310438, Note_off_c, 0, 57, 67
1, 310442, Control_c, 0, 64, 40
1, 310449, Note_off_c, 0, 45, 66
1, 310457, Control_c, 0, 64, 51
1, 310472, Control_c, 0, 64, 60
1, 310481, Note_off_c, 0, 61, 60
1, 310483, Note_on_c, 0, 73, 68
1, 310487, Control_c, 0, 64, 64
1, 310495, Note_on_c, 0, 69, 60
1, 310501, Control_c, 0, 64, 66
1, 310516, Control_c, 0, 64, 66
1, 310531, Control_c, 0, 64, 66
1, 310546, Control_c, 0, 64, 65
1, 310558, Note_on_c, 0, 61, 70
1, 310561, Note_off_c, 0, 73, 50
1, 310561, Control_c, 0, 64, 64
1, 310576, Control_c, 0, 64, 62
1, 310591, Control_c, 0, 64, 61
1, 310606, Control_c, 0, 64, 60
1, 310607, Note_on_c, 0, 72, 63
1, 310615, Note_off_c, 0, 61, 60
1, 310621, Note_on_c, 0, 52, 74
1, 310622, Note_off_c, 0, 69, 0
1, 310625, Note_on_c, 0, 40, 67
1, 310647, Note_off_c, 0, 52, 67
1, 310650, Control_c, 0, 64, 60
1, 310655, Note_off_c, 0, 40, 63
1, 310665, Control_c, 0, 64, 61
1, 310680, Control_c, 0, 64, 62
1, 310681, Note_on_c, 0, 73, 78
1, 310683, Poly_aftertouch_c, 0, 69, 0
1, 310694, Control_c, 0, 64, 63
1, 310709, Control_c, 0, 64, 63
1, 310721, Note_off_c, 0, 72, 62
1, 310724, Control_c, 0, 64, 63
1, 310738, Control_c, 0, 64, 62
1, 310753, Control_c, 0, 64, 60
1, 310755, Note_on_c, 0, 76, 72
1, 310762, Note_off_c, 0, 73, 62
1, 310770, Control_c, 0, 64, 54
1, 310785, Control_c, 0, 64, 46
1, 310799, Control_c, 0, 64, 36
1, 310809, Note_off_c, 0, 76, 62
1, 310814, Control_c, 0, 64, 29
1, 310820, Note_on_c, 0, 75, 79
1, 310833, Note_on_c, 0, 45, 67
1, 310833, Note_on_c, 0, 57, 63
1, 310843, Control_c, 0, 64, 35
1, 310854, Note_off_c, 0, 57, 64
1, 310857, Note_off_c, 0, 75, 62
1, 310858, Control_c, 0, 64, 46
1, 310862, Note_off_c, 0, 45, 65
1, 310873, Control_c, 0, 64, 56
1, 310888, Control_c, 0, 64, 61
1, 310902, Note_on_c, 0, 61, 58
1, 310903, Control_c, 0, 64, 62
1, 310932, Control_c, 0, 64, 61
1, 310947, Control_c, 0, 64, 61
1, 310962, Control_c, 0, 64, 60
1, 310973, Note_on_c, 0, 73, 71
1, 310977, Control_c, 0, 64, 59
1, 310991, Note_off_c, 0, 61, 50
1, 310991, Control_c, 0, 64, 58
1, 311006, Control_c, 0, 64, 57
1, 311036, Control_c, 0, 64, 58
1, 311037, Note_on_c, 0, 71, 68
1, 311046, Note_on_c, 0, 40, 61
1, 311050, Note_on_c, 0, 52, 59
1, 311078, Note_off_c, 0, 40, 64
1, 311079, Note_off_c, 0, 73, 62
1, 311080, Note_off_c, 0, 52, 62
1, 311089, Note_on_c, 0, 61, 50
1, 311158, Note_off_c, 0, 71, 64
1, 311162, Control_c, 0, 64, 56
1, 311169, Note_on_c, 0, 69, 62
1, 311177, Note_off_c, 0, 61, 51
1, 311177, Control_c, 0, 64, 53
1, 311191, Control_c, 0, 64, 49
1, 311206, Control_c, 0, 64, 46
1, 311221, Control_c, 0, 64, 45
1, 311236, Control_c, 0, 64, 47
1, 311250, Control_c, 0, 64, 50
1, 311258, Note_on_c, 0, 68, 67
1, 311262, Note_on_c, 0, 57, 56
1, 311265, Control_c, 0, 64, 54
1, 311268, Note_on_c, 0, 45, 49
1, 311268, Note_off_c, 0, 69, 61
1, 311280, Control_c, 0, 64, 59
1, 311287, Note_off_c, 0, 57, 60
1, 311291, Note_off_c, 0, 68, 61
1, 311295, Control_c, 0, 64, 63
1, 311297, Note_off_c, 0, 45, 63
1, 311310, Control_c, 0, 64, 64
1, 311324, Control_c, 0, 64, 65
1, 311325, Note_on_c, 0, 61, 57
1, 311387, Note_off_c, 0, 61, 50
1, 311399, Control_c, 0, 64, 65
1, 311408, Note_on_c, 0, 68, 64
1, 311429, Control_c, 0, 64, 64
1, 311476, Note_off_c, 0, 68, 60
1, 311478, Note_on_c, 0, 40, 56
1, 311483, Note_on_c, 0, 66, 59
1, 311485, Note_on_c, 0, 52, 47
1, 311488, Control_c, 0, 64, 64
1, 311516, Note_off_c, 0, 40, 61
1, 311519, Note_off_c, 0, 52, 52
1, 311534, Note_off_c, 0, 66, 53
1, 311547, Note_on_c, 0, 61, 51
1, 311593, Note_off_c, 0, 61, 59
1, 311593, Control_c, 0, 64, 64
1, 311621, Note_on_c, 0, 66, 52
1, 311622, Control_c, 0, 64, 65
1, 311652, Control_c, 0, 64, 64
1, 311659, Note_off_c, 0, 66, 60
1, 311667, Control_c, 0, 64, 61
1, 311682, Control_c, 0, 64, 55
1, 311697, Control_c, 0, 64, 49
1, 311712, Note_on_c, 0, 52, 63
1, 311712, Control_c, 0, 64, 45
1, 311718, Note_on_c, 0, 40, 55
1, 311727, Control_c, 0, 64, 44
1, 311741, Control_c, 0, 64, 46
1, 311747, Note_off_c, 0, 40, 62
1, 311748, Note_off_c, 0, 52, 62
1, 311756, Control_c, 0, 64, 51
1, 311771, Control_c, 0, 64, 56
1, 311777, Note_on_c, 0, 66, 60
1, 311785, Note_on_c, 0, 61, 53
1, 311786, Control_c, 0, 64, 61
1, 311807, Control_c, 0, 64, 64
1, 311822, Control_c, 0, 64, 66
1, 311837, Control_c, 0, 64, 67
1, 311852, Note_on_c, 0, 57, 61
1, 311853, Note_off_c, 0, 61, 46
1, 311855, Note_off_c, 0, 66, 58
1, 311903, Note_off_c, 0, 57, 50
1, 311918, Note_on_c, 0, 65, 47
1, 311920, Note_on_c, 0, 39, 53
1, 311923, Note_on_c, 0, 51, 47
1, 311954, Poly_aftertouch_c, 0, 61, 127
1, 311962, Note_off_c, 0, 51, 61
1, 311975, Poly_aftertouch_c, 0, 61, 0
1, 311978, Note_on_c, 0, 66, 67
1, 312001, Note_off_c, 0, 39, 55
1, 312017, Note_off_c, 0, 65, 47
1, 312030, Control_c, 0, 64, 68
1, 312045, Control_c, 0, 64, 69
1, 312047, Note_on_c, 0, 69, 63
1, 312047, Note_off_c, 0, 66, 62
1, 312060, Control_c, 0, 64, 71
1, 312074, Control_c, 0, 64, 72
1, 312089, Control_c, 0, 64, 71
1, 312104, Control_c, 0, 64, 67
1, 312119, Control_c, 0, 64, 61
1, 312126, Note_on_c, 0, 68, 76
1, 312127, Note_off_c, 0, 69, 63
1, 312134, Control_c, 0, 64, 55
1, 312138, Note_on_c, 0, 40, 57
1, 312138, Note_on_c, 0, 52, 60
1, 312148, Control_c, 0, 64, 53
1, 312163, Control_c, 0, 64, 55
1, 312174, Note_off_c, 0, 68, 60
1, 312177, Control_c, 0, 64, 58
1, 312183, Note_off_c, 0, 52, 60
1, 312189, Note_off_c, 0, 40, 55
1, 312192, Control_c, 0, 64, 61
1, 312192, Note_on_c, 0, 57, 68
1, 312207, Control_c, 0, 64, 64
1, 312221, Control_c, 0, 64, 68
1, 312232, Note_off_c, 0, 57, 62
1, 312236, Control_c, 0, 64, 71
1, 312251, Control_c, 0, 64, 71
1, 312271, Note_on_c, 0, 61, 66
1, 312331, Note_on_c, 0, 51, 63
1, 312334, Note_on_c, 0, 39, 65
1, 312336, Note_on_c, 0, 66, 69
1, 312337, Note_off_c, 0, 61, 61
1, 312399, Note_off_c, 0, 66, 62
1, 312405, Note_off_c, 0, 51, 60
1, 312406, Note_on_c, 0, 73, 74
1, 312415, Note_off_c, 0, 39, 62
1, 312430, Control_c, 0, 64, 72
1, 312437, Note_off_c, 0, 73, 65
1, 312445, Control_c, 0, 64, 72
1, 312460, Control_c, 0, 64, 74
1, 312461, Note_on_c, 0, 61, 70
1, 312475, Control_c, 0, 64, 75
1, 312489, Control_c, 0, 64, 75
1, 312504, Control_c, 0, 64, 74
1, 312519, Control_c, 0, 64, 68
1, 312523, Note_on_c, 0, 68, 77
1, 312527, Note_on_c, 0, 40, 66
1, 312527, Note_on_c, 0, 52, 72
1, 312541, Note_off_c, 0, 61, 60
1, 312541, Control_c, 0, 64, 62
1, 312556, Control_c, 0, 64, 54
1, 312570, Control_c, 0, 64, 52
1, 312585, Control_c, 0, 64, 53
1, 312592, Note_off_c, 0, 52, 62
1, 312597, Note_off_c, 0, 40, 61
1, 312598, Note_on_c, 0, 69, 59
1, 312600, Control_c, 0, 64, 55
1, 312615, Control_c, 0, 64, 58
1, 312630, Control_c, 0, 64, 62
1, 312645, Control_c, 0, 64, 65
1, 312657, Note_off_c, 0, 68, 58
1, 312660, Control_c, 0, 64, 68
1, 312663, Note_on_c, 0, 73, 81
1, 312672, Note_off_c, 0, 69, 64
1, 312698, Note_off_c, 0, 73, 66
1, 312740, Note_on_c, 0, 51, 73
1, 312743, Note_on_c, 0, 66, 70
1, 312745, Note_on_c, 0, 39, 63
1, 312768, Note_off_c, 0, 66, 67
1, 312769, Note_off_c, 0, 51, 65
1, 312778, Control_c, 0, 64, 69
1, 312779, Note_off_c, 0, 39, 64
1, 312793, Control_c, 0, 64, 69
1, 312799, Note_on_c, 0, 73, 80
1, 312808, Control_c, 0, 64, 71
1, 312822, Control_c, 0, 64, 72
1, 312837, Control_c, 0, 64, 73
1, 312852, Control_c, 0, 64, 73
1, 312859, Note_on_c, 0, 78, 81
1, 312867, Control_c, 0, 64, 73
1, 312882, Control_c, 0, 64, 68
1, 312890, Note_off_c, 0, 73, 52
1, 312896, Control_c, 0, 64, 61
1, 312911, Control_c, 0, 64, 51
1, 312924, Note_off_c, 0, 78, 64
1, 312926, Control_c, 0, 64, 44
1, 312940, Control_c, 0, 64, 43
1, 312945, Note_on_c, 0, 54, 81
1, 312945, Note_on_c, 0, 64, 80
1, 312950, Note_on_c, 0, 42, 71
1, 312955, Control_c, 0, 64, 48
1, 312970, Control_c, 0, 64, 54
1, 312972, Note_off_c, 0, 54, 66
1, 312985, Note_off_c, 0, 42, 66
1, 312985, Control_c, 0, 64, 60
1, 312988, Note_off_c, 0, 64, 62
1, 313000, Control_c, 0, 64, 64
1, 313014, Control_c, 0, 64, 67
1, 313021, Note_on_c, 0, 78, 75
1, 313029, Control_c, 0, 64, 70
1, 313044, Note_off_c, 0, 78, 70
1, 313044, Control_c, 0, 64, 70
1, 313089, Control_c, 0, 64, 70
1, 313089, Note_on_c, 0, 69, 65
1, 313148, Note_on_c, 0, 37, 66
1, 313148, Note_on_c, 0, 49, 75
1, 313156, Note_on_c, 0, 76, 58
1, 313157, Note_on_c, 0, 77, 58
1, 313180, Note_off_c, 0, 49, 65
1, 313182, Note_off_c, 0, 37, 63
1, 313189, Note_off_c, 0, 69, 38
1, 313193, Control_c, 0, 64, 70
1, 313199, Note_on_c, 0, 74, 18
1, 313208, Control_c, 0, 64, 71
1, 313216, Note_on_c, 0, 78, 84
1, 313223, Control_c, 0, 64, 72
1, 313238, Control_c, 0, 64, 73
1, 313243, Note_off_c, 0, 74, 28
1, 313246, Note_off_c, 0, 76, 62
1, 313249, Note_off_c, 0, 77, 64
1, 313268, Control_c, 0, 64, 70
1, 313290, Control_c, 0, 64, 63
1, 313295, Note_on_c, 0, 81, 80
1, 313301, Note_off_c, 0, 78, 66
1, 313305, Control_c, 0, 64, 53
1, 313319, Control_c, 0, 64, 42
1, 313334, Control_c, 0, 64, 35
1, 313349, Control_c, 0, 64, 35
1, 313362, Note_on_c, 0, 80, 91
1, 313363, Note_on_c, 0, 54, 76
1, 313363, Control_c, 0, 64, 41
1, 313368, Note_off_c, 0, 81, 63
1, 313375, Note_on_c, 0, 42, 61
1, 313378, Control_c, 0, 64, 51
1, 313390, Note_off_c, 0, 54, 68
1, 313393, Control_c, 0, 64, 60
1, 313405, Note_off_c, 0, 42, 64
1, 313408, Control_c, 0, 64, 65
1, 313423, Note_off_c, 0, 80, 64
1, 313423, Control_c, 0, 64, 68
1, 313459, Note_on_c, 0, 69, 67
1, 313467, Control_c, 0, 64, 67
1, 313512, Control_c, 0, 64, 67
1, 313512, Note_on_c, 0, 78, 78
1, 313512, Note_off_c, 0, 69, 46
1, 313576, Note_on_c, 0, 76, 78
1, 313578, Note_on_c, 0, 37, 56
1, 313585, Note_on_c, 0, 49, 55
1, 313601, Control_c, 0, 64, 67
1, 313602, Note_off_c, 0, 78, 62
1, 313609, Note_off_c, 0, 37, 58
1, 313612, Note_off_c, 0, 49, 59
1, 313638, Note_on_c, 0, 69, 60
1, 313645, Control_c, 0, 64, 68
1, 313660, Control_c, 0, 64, 68
1, 313674, Note_off_c, 0, 76, 60
1, 313676, Control_c, 0, 64, 68
1, 313690, Note_off_c, 0, 69, 53
1, 313691, Control_c, 0, 64, 66
1, 313706, Control_c, 0, 64, 61
1, 313707, Note_on_c, 0, 75, 73
1, 313720, Control_c, 0, 64, 55
1, 313735, Control_c, 0, 64, 49
1, 313750, Control_c, 0, 64, 47
1, 313764, Control_c, 0, 64, 49
1, 313778, Note_on_c, 0, 54, 57
1, 313779, Control_c, 0, 64, 52
1, 313780, Note_on_c, 0, 73, 77
1, 313784, Note_on_c, 0, 42, 53
1, 313794, Control_c, 0, 64, 56
1, 313808, Note_off_c, 0, 54, 63
1, 313808, Note_off_c, 0, 75, 62
1, 313809, Control_c, 0, 64, 60
1, 313822, Note_off_c, 0, 42, 62
1, 313824, Control_c, 0, 64, 64
1, 313833, Note_off_c, 0, 73, 63
1, 313838, Control_c, 0, 64, 66
1, 313853, Control_c, 0, 64, 66
1, 313857, Note_on_c, 0, 69, 60
1, 313883, Control_c, 0, 64, 66
1, 313903, Note_off_c, 0, 69, 54
1, 313932, Note_on_c, 0, 73, 68
1, 313958, Control_c, 0, 64, 65
1, 314003, Note_on_c, 0, 37, 40
1, 314013, Note_on_c, 0, 69, 70
1, 314019, Note_off_c, 0, 73, 59
1, 314052, Note_off_c, 0, 37, 51
1, 314081, Note_off_c, 0, 69, 59
1, 314084, Note_on_c, 0, 66, 60
1, 314084, Control_c, 0, 64, 66
1, 314099, Control_c, 0, 64, 66
1, 314114, Control_c, 0, 64, 67
1, 314129, Control_c, 0, 64, 68
1, 314143, Control_c, 0, 64, 69
1, 314144, Note_off_c, 0, 66, 59
1, 314154, Note_on_c, 0, 69, 50
1, 314158, Control_c, 0, 64, 71
1, 314173, Control_c, 0, 64, 72
1, 314183, Note_off_c, 0, 69, 67
1, 314187, Control_c, 0, 64, 71
1, 314202, Control_c, 0, 64, 66
1, 314217, Control_c, 0, 64, 59
1, 314231, Note_on_c, 0, 52, 59
1, 314231, Note_on_c, 0, 40, 56
1, 314232, Control_c, 0, 64, 51
1, 314247, Control_c, 0, 64, 45
1, 314261, Control_c, 0, 64, 44
1, 314276, Control_c, 0, 64, 46
1, 314284, Note_off_c, 0, 40, 54
1, 314291, Note_off_c, 0, 52, 59
1, 314291, Control_c, 0, 64, 51
1, 314306, Control_c, 0, 64, 57
1, 314311, Note_on_c, 0, 69, 74
1, 314321, Control_c, 0, 64, 63
1, 314328, Note_on_c, 0, 64, 58
1, 314335, Control_c, 0, 64, 66
1, 314350, Control_c, 0, 64, 68
1, 314359, Note_off_c, 0, 64, 65
1, 314376, Note_off_c, 0, 69, 56
1, 314395, Control_c, 0, 64, 67
1, 314397, Note_on_c, 0, 57, 76
1, 314437, Note_on_c, 0, 64, 52
1, 314439, Control_c, 0, 64, 68
1, 314442, Note_off_c, 0, 57, 62
1, 314448, Note_on_c, 0, 37, 44
1, 314450, Note_on_c, 0, 49, 43
1, 314454, Control_c, 0, 64, 69
1, 314457, Note_on_c, 0, 68, 62
1, 314469, Control_c, 0, 64, 71
1, 314480, Note_off_c, 0, 49, 53
1, 314482, Note_off_c, 0, 37, 56
1, 314484, Control_c, 0, 64, 73
1, 314510, Note_off_c, 0, 64, 63
1, 314514, Control_c, 0, 64, 72
1, 314529, Control_c, 0, 64, 67
1, 314530, Note_on_c, 0, 69, 70
1, 314543, Control_c, 0, 64, 58
1, 314557, Note_off_c, 0, 69, 60
1, 314558, Control_c, 0, 64, 50
1, 314561, Note_off_c, 0, 68, 64
1, 314573, Control_c, 0, 64, 44
1, 314579, Note_on_c, 0, 76, 79
1, 314587, Control_c, 0, 64, 45
1, 314602, Control_c, 0, 64, 49
1, 314617, Control_c, 0, 64, 55
1, 314632, Control_c, 0, 64, 61
1, 314636, Note_off_c, 0, 76, 60
1, 314647, Note_on_c, 0, 52, 67
1, 314647, Control_c, 0, 64, 66
1, 314654, Note_on_c, 0, 40, 54
1, 314661, Control_c, 0, 64, 68
1, 314667, Note_on_c, 0, 71, 60
1, 314676, Control_c, 0, 64, 70
1, 314706, Note_off_c, 0, 52, 58
1, 314737, Note_on_c, 0, 57, 70
1, 314738, Note_off_c, 0, 40, 61
1, 314760, Note_off_c, 0, 57, 68
1, 314766, Control_c, 0, 64, 69
1, 314788, Control_c, 0, 64, 68
1, 314794, Note_on_c, 0, 64, 66
1, 314803, Control_c, 0, 64, 66
1, 314818, Control_c, 0, 64, 66
1, 314818, Control_c, 0, 67, 122
1, 314822, Note_off_c, 0, 71, 60
1, 314833, Control_c, 0, 67, 111
1, 314848, Control_c, 0, 67, 97
1, 314856, Note_on_c, 0, 37, 50
1, 314856, Note_on_c, 0, 49, 60
1, 314863, Control_c, 0, 64, 66
1, 314863, Control_c, 0, 67, 85
1, 314866, Note_off_c, 0, 64, 61
1, 314877, Control_c, 0, 67, 70
1, 314882, Note_on_c, 0, 69, 65
1, 314892, Control_c, 0, 64, 67
1, 314892, Control_c, 0, 67, 54
1, 314892, Note_off_c, 0, 49, 64
1, 314893, Note_off_c, 0, 37, 62
1, 314907, Control_c, 0, 67, 37
1, 314922, Control_c, 0, 64, 68
1, 314922, Control_c, 0, 67, 20
1, 314937, Control_c, 0, 64, 69
1, 314937, Control_c, 0, 67, 0
1, 314943, Note_on_c, 0, 76, 80
1, 314949, Note_off_c, 0, 69, 64
1, 314952, Control_c, 0, 64, 71
1, 314966, Control_c, 0, 64, 73
1, 314981, Control_c, 0, 64, 75
1, 314995, Note_off_c, 0, 76, 58
1, 315010, Control_c, 0, 64, 71
1, 315015, Note_on_c, 0, 64, 67
1, 315025, Control_c, 0, 64, 64
1, 315040, Control_c, 0, 64, 58
1, 315051, Note_on_c, 0, 52, 71
1, 315055, Control_c, 0, 64, 57
1, 315065, Note_off_c, 0, 64, 62
1, 315065, Note_on_c, 0, 40, 56
1, 315070, Control_c, 0, 64, 59
1, 315083, Note_on_c, 0, 71, 66
1, 315084, Control_c, 0, 64, 62
1, 315099, Control_c, 0, 64, 66
1, 315113, Note_off_c, 0, 52, 60
1, 315114, Control_c, 0, 64, 71
1, 315128, Note_on_c, 0, 73, 69
1, 315129, Control_c, 0, 64, 77
1, 315135, Note_off_c, 0, 40, 61
1, 315158, Note_off_c, 0, 71, 63
1, 315158, Control_c, 0, 64, 71
1, 315173, Control_c, 0, 64, 67
1, 315188, Control_c, 0, 64, 64
1, 315203, Control_c, 0, 64, 62
1, 315207, Note_on_c, 0, 76, 63
1, 315208, Note_off_c, 0, 73, 63
1, 315217, Control_c, 0, 64, 63
1, 315230, Note_off_c, 0, 76, 65
1, 315232, Control_c, 0, 64, 65
1, 315247, Control_c, 0, 64, 68
1, 315250, Note_on_c, 0, 37, 59
1, 315262, Control_c, 0, 64, 71
1, 315265, Note_on_c, 0, 49, 59
1, 315277, Note_on_c, 0, 69, 63
1, 315277, Control_c, 0, 64, 73
1, 315286, Note_off_c, 0, 37, 62
1, 315292, Control_c, 0, 67, 19
1, 315297, Note_off_c, 0, 69, 65
1, 315301, Note_off_c, 0, 49, 64
1, 315326, Note_on_c, 0, 76, 65
1, 315336, Control_c, 0, 67, 22
1, 315380, Note_on_c, 0, 81, 76
1, 315381, Control_c, 0, 67, 24
1, 315381, Note_off_c, 0, 76, 64
1, 315396, Control_c, 0, 64, 73
1, 315402, Note_off_c, 0, 81, 70
1, 315410, Control_c, 0, 64, 74
1, 315425, Control_c, 0, 64, 74
1, 315425, Control_c, 0, 67, 27
1, 315440, Control_c, 0, 64, 73
1, 315455, Control_c, 0, 64, 66
1, 315470, Control_c, 0, 64, 58
1, 315470, Control_c, 0, 67, 29
1, 315477, Note_on_c, 0, 52, 72
1, 315478, Note_on_c, 0, 40, 66
1, 315484, Control_c, 0, 64, 46
1, 315499, Control_c, 0, 64, 36
1, 315499, Control_c, 0, 67, 31
1, 315514, Control_c, 0, 64, 33
1, 315514, Control_c, 0, 67, 32
1, 315536, Control_c, 0, 64, 35
1, 315536, Control_c, 0, 67, 34
1, 315551, Control_c, 0, 64, 43
1, 315551, Control_c, 0, 67, 35
1, 315551, Note_off_c, 0, 52, 59
1, 315558, Note_on_c, 0, 64, 68
1, 315562, Note_on_c, 0, 68, 75
1, 315566, Control_c, 0, 64, 53
1, 315566, Control_c, 0, 67, 36
1, 315568, Note_off_c, 0, 40, 57
1, 315581, Control_c, 0, 64, 61
1, 315581, Control_c, 0, 67, 38
1, 315596, Control_c, 0, 64, 65
1, 315596, Control_c, 0, 67, 39
1, 315609, Note_off_c, 0, 64, 55
1, 315611, Control_c, 0, 64, 68
1, 315611, Control_c, 0, 67, 39
1, 315626, Control_c, 0, 64, 69
1, 315626, Control_c, 0, 67, 40
1, 315633, Note_on_c, 0, 59, 56
1, 315635, Note_off_c, 0, 68, 62
1, 315641, Control_c, 0, 64, 70
1, 315641, Control_c, 0, 67, 41
1, 315655, Control_c, 0, 64, 71
1, 315655, Control_c, 0, 67, 43
1, 315670, Control_c, 0, 64, 72
1, 315670, Control_c, 0, 67, 44
1, 315685, Note_on_c, 0, 64, 75
1, 315685, Control_c, 0, 64, 73
1, 315685, Control_c, 0, 67, 45
1, 315691, Note_on_c, 0, 38, 70
1, 315696, Note_on_c, 0, 50, 64
1, 315697, Note_off_c, 0, 59, 52
1, 315700, Control_c, 0, 64, 74
1, 315700, Control_c, 0, 67, 46
1, 315715, Control_c, 0, 64, 74
1, 315715, Control_c, 0, 67, 48
1, 315730, Control_c, 0, 64, 74
1, 315730, Control_c, 0, 67, 49
1, 315734, Note_off_c, 0, 38, 60
1, 315736, Note_on_c, 0, 68, 60
1, 315745, Control_c, 0, 64, 69
1, 315745, Control_c, 0, 67, 50
1, 315750, Note_off_c, 0, 50, 53
1, 315759, Control_c, 0, 64, 64
1, 315759, Control_c, 0, 67, 50
1, 315765, Note_off_c, 0, 64, 63
1, 315774, Control_c, 0, 64, 59
1, 315774, Control_c, 0, 67, 51
1, 315789, Control_c, 0, 64, 55
1, 315789, Control_c, 0, 67, 51
1, 315804, Control_c, 0, 64, 53
1, 315804, Control_c, 0, 67, 52
1, 315828, Note_on_c, 0, 71, 78
1, 315833, Control_c, 0, 64, 55
1, 315833, Control_c, 0, 67, 53
1, 315834, Note_off_c, 0, 68, 65
1, 315848, Control_c, 0, 64, 58
1, 315848, Control_c, 0, 67, 53
1, 315863, Control_c, 0, 64, 61
1, 315863, Control_c, 0, 67, 54
1, 315878, Control_c, 0, 64, 64
1, 315878, Control_c, 0, 67, 55
1, 315885, Note_on_c, 0, 52, 70
1, 315885, Note_on_c, 0, 69, 74
1, 315887, Note_on_c, 0, 40, 69
1, 315893, Control_c, 0, 64, 65
1, 315893, Control_c, 0, 67, 55
1, 315907, Control_c, 0, 64, 67
1, 315913, Note_off_c, 0, 71, 64
1, 315922, Control_c, 0, 64, 68
1, 315937, Control_c, 0, 64, 70
1, 315937, Control_c, 0, 67, 56
1, 315942, Note_off_c, 0, 52, 59
1, 315952, Note_on_c, 0, 59, 69
1, 315952, Control_c, 0, 64, 71
1, 315952, Control_c, 0, 67, 56
1, 315966, Control_c, 0, 67, 58
1, 315969, Note_off_c, 0, 69, 64
1, 315978, Note_off_c, 0, 40, 52
1, 315981, Control_c, 0, 64, 71
1, 315981, Control_c, 0, 67, 60
1, 315996, Control_c, 0, 64, 68
1, 315996, Control_c, 0, 67, 62
1, 315999, Note_off_c, 0, 59, 63
1, 316011, Control_c, 0, 64, 65
1, 316016, Note_on_c, 0, 64, 67
1, 316026, Control_c, 0, 64, 62
1, 316040, Control_c, 0, 64, 62
1, 316055, Control_c, 0, 64, 63
1, 316070, Control_c, 0, 64, 64
1, 316085, Control_c, 0, 64, 67
1, 316085, Control_c, 0, 67, 62
1, 316096, Note_off_c, 0, 64, 60
1, 316097, Note_on_c, 0, 38, 68
1, 316097, Note_on_c, 0, 68, 84
1, 316099, Note_on_c, 0, 50, 76
1, 316100, Control_c, 0, 64, 70
1, 316100, Control_c, 0, 67, 63
1, 316115, Control_c, 0, 64, 72
1, 316115, Control_c, 0, 67, 64
1, 316129, Control_c, 0, 64, 73
1, 316129, Control_c, 0, 67, 65
1, 316153, Note_off_c, 0, 38, 59
1, 316168, Note_on_c, 0, 76, 78
1, 316168, Note_off_c, 0, 50, 59
1, 316176, Note_off_c, 0, 68, 64
1, 316204, Control_c, 0, 64, 74
1, 316204, Control_c, 0, 67, 65
1, 316219, Control_c, 0, 67, 66
1, 316225, Note_on_c, 0, 64, 70
1, 316233, Control_c, 0, 64, 73
1, 316242, Note_off_c, 0, 76, 53
1, 316248, Control_c, 0, 64, 68
1, 316248, Control_c, 0, 67, 67
1, 316263, Control_c, 0, 64, 64
1, 316276, Note_off_c, 0, 64, 63
1, 316284, Control_c, 0, 64, 61
1, 316287, Note_on_c, 0, 52, 79
1, 316305, Note_on_c, 0, 40, 60
1, 316308, Note_on_c, 0, 69, 75
1, 316314, Control_c, 0, 64, 62
1, 316329, Control_c, 0, 64, 64
1, 316344, Control_c, 0, 64, 67
1, 316352, Note_off_c, 0, 52, 60
1, 316360, Control_c, 0, 64, 70
1, 316360, Control_c, 0, 67, 67
1, 316369, Note_on_c, 0, 71, 66
1, 316375, Control_c, 0, 64, 72
1, 316375, Control_c, 0, 67, 68
1, 316377, Note_off_c, 0, 69, 58
1, 316389, Control_c, 0, 64, 71
1, 316389, Control_c, 0, 67, 68
1, 316400, Note_off_c, 0, 40, 50
1, 316404, Control_c, 0, 64, 68
1, 316411, Note_on_c, 0, 76, 81
1, 316415, Note_off_c, 0, 71, 64
1, 316419, Control_c, 0, 64, 63
1, 316434, Control_c, 0, 64, 58
1, 316449, Control_c, 0, 64, 57
1, 316455, Note_off_c, 0, 76, 62
1, 316463, Control_c, 0, 64, 58
1, 316478, Control_c, 0, 64, 60
1, 316478, Control_c, 0, 67, 69
1, 316483, Note_on_c, 0, 38, 70
1, 316490, Note_on_c, 0, 68, 76
1, 316493, Control_c, 0, 64, 63
1, 316493, Control_c, 0, 67, 69
1, 316494, Note_on_c, 0, 50, 68
1, 316508, Control_c, 0, 64, 66
1, 316508, Control_c, 0, 67, 72
1, 316523, Control_c, 0, 64, 70
1, 316523, Control_c, 0, 67, 76
1, 316538, Control_c, 0, 64, 72
1, 316538, Control_c, 0, 67, 79
1, 316543, Note_off_c, 0, 38, 63
1, 316543, Note_off_c, 0, 68, 63
1, 316550, Note_on_c, 0, 71, 69
1, 316552, Note_off_c, 0, 50, 61
1, 316553, Control_c, 0, 64, 73
1, 316553, Control_c, 0, 67, 80
1, 316568, Control_c, 0, 64, 73
1, 316568, Control_c, 0, 67, 81
1, 316582, Control_c, 0, 64, 74
1, 316582, Control_c, 0, 67, 84
1, 316597, Control_c, 0, 64, 75
1, 316597, Control_c, 0, 67, 88
1, 316612, Control_c, 0, 64, 78
1, 316612, Control_c, 0, 67, 95
1, 316617, Note_off_c, 0, 71, 65
1, 316618, Note_on_c, 0, 80, 79
1, 316627, Control_c, 0, 64, 80
1, 316627, Control_c, 0, 67, 101
1, 316642, Control_c, 0, 64, 81
1, 316642, Control_c, 0, 67, 105
1, 316656, Control_c, 0, 64, 80
1, 316668, Note_on_c, 0, 39, 75
1, 316671, Control_c, 0, 64, 70
1, 316671, Control_c, 0, 67, 108
1, 316686, Control_c, 0, 64, 56
1, 316701, Control_c, 0, 64, 0
1, 316712, Note_off_c, 0, 80, 61
1, 316716, Control_c, 0, 67, 111
1, 316752, Note_on_c, 0, 51, 77
1, 316756, Note_on_c, 0, 68, 63
1, 316760, Control_c, 0, 67, 113
1, 316775, Control_c, 0, 64, 33
1, 316775, Control_c, 0, 67, 117
1, 316789, Control_c, 0, 64, 53
1, 316789, Control_c, 0, 67, 122
1, 316804, Control_c, 0, 64, 65
1, 316804, Control_c, 0, 67, 125
1, 316809, Note_off_c, 0, 39, 61
1, 316819, Control_c, 0, 64, 71
1, 316834, Control_c, 0, 64, 77
1, 316849, Control_c, 0, 64, 80
1, 316852, Note_off_c, 0, 68, 62
1, 316859, Note_off_c, 0, 51, 62
1, 316863, Control_c, 0, 64, 82
1, 316865, Note_on_c, 0, 80, 67
1, 316878, Control_c, 0, 64, 83
1, 316893, Control_c, 0, 64, 84
1, 316907, Control_c, 0, 64, 84
1, 316922, Control_c, 0, 64, 85
1, 316922, Control_c, 0, 67, 127
1, 316937, Control_c, 0, 64, 87
1, 316941, Note_on_c, 0, 78, 45
1, 316952, Control_c, 0, 64, 88
1, 316982, Control_c, 0, 64, 87
1, 316984, Note_off_c, 0, 80, 57
1, 316993, Note_on_c, 0, 76, 61
1, 316997, Control_c, 0, 64, 81
1, 317002, Note_on_c, 0, 56, 77
1, 317010, Note_on_c, 0, 51, 66
1, 317012, Control_c, 0, 64, 75
1, 317034, Control_c, 0, 64, 71
1, 317040, Note_off_c, 0, 78, 57
1, 317049, Control_c, 0, 64, 71
1, 317063, Control_c, 0, 64, 71
1, 317078, Control_c, 0, 64, 73
1, 317093, Note_on_c, 0, 73, 56
1, 317093, Control_c, 0, 64, 77
1, 317102, Note_off_c, 0, 76, 60
1, 317107, Control_c, 0, 64, 82
1, 317122, Control_c, 0, 64, 86
1, 317125, Note_off_c, 0, 73, 66
1, 317137, Control_c, 0, 64, 86
1, 317152, Note_on_c, 0, 71, 53
1, 317153, Control_c, 0, 64, 85
1, 317168, Control_c, 0, 64, 77
1, 317183, Control_c, 0, 64, 67
1, 317192, Note_off_c, 0, 71, 62
1, 317198, Control_c, 0, 64, 59
1, 317212, Control_c, 0, 64, 52
1, 317213, Note_on_c, 0, 58, 82
1, 317215, Note_on_c, 0, 75, 75
1, 317227, Note_off_c, 0, 56, 62
1, 317227, Control_c, 0, 64, 53
1, 317242, Control_c, 0, 64, 56
1, 317257, Control_c, 0, 64, 61
1, 317272, Control_c, 0, 64, 65
1, 317286, Control_c, 0, 64, 70
1, 317300, Note_off_c, 0, 75, 63
1, 317301, Control_c, 0, 64, 76
1, 317303, Note_on_c, 0, 70, 45
1, 317316, Control_c, 0, 64, 82
1, 317331, Control_c, 0, 64, 88
1, 317331, Note_off_c, 0, 70, 63
1, 317345, Note_on_c, 0, 68, 62
1, 317346, Control_c, 0, 64, 91
1, 317358, Note_off_c, 0, 58, 63
1, 317361, Control_c, 0, 64, 90
1, 317367, Note_off_c, 0, 68, 66
1, 317375, Control_c, 0, 64, 83
1, 317390, Control_c, 0, 64, 71
1, 317391, Note_on_c, 0, 59, 78
1, 317405, Control_c, 0, 64, 61
1, 317420, Control_c, 0, 64, 54
1, 317427, Note_on_c, 0, 71, 70
1, 317435, Control_c, 0, 64, 55
1, 317450, Control_c, 0, 64, 60
1, 317465, Control_c, 0, 64, 65
1, 317480, Control_c, 0, 64, 70
1, 317494, Control_c, 0, 64, 77
1, 317496, Note_on_c, 0, 64, 42
1, 317496, Note_off_c, 0, 71, 60
1, 317509, Control_c, 0, 64, 80
1, 317521, Note_off_c, 0, 51, 29
1, 317524, Control_c, 0, 64, 81
1, 317538, Control_c, 0, 64, 82
1, 317549, Note_off_c, 0, 64, 59
1, 317553, Control_c, 0, 64, 84
1, 317561, Note_on_c, 0, 63, 50
1, 317568, Control_c, 0, 64, 88
1, 317583, Control_c, 0, 64, 95
1, 317587, Note_off_c, 0, 63, 57
1, 317598, Control_c, 0, 64, 103
1, 317612, Control_c, 0, 64, 110
1, 317627, Control_c, 0, 64, 112
1, 317657, Control_c, 0, 64, 102
1, 317671, Note_off_c, 0, 59, 59
1, 317672, Control_c, 0, 64, 85
1, 317677, Note_on_c, 0, 63, 64
1, 317681, Note_on_c, 0, 71, 65
1, 317686, Control_c, 0, 64, 70
1, 317697, Note_on_c, 0, 51, 65
1, 317701, Control_c, 0, 64, 60
1, 317716, Control_c, 0, 64, 50
1, 317730, Control_c, 0, 64, 47
1, 317745, Control_c, 0, 64, 49
1, 317760, Control_c, 0, 64, 54
1, 317769, Note_on_c, 0, 67, 53
1, 317783, Control_c, 0, 64, 59
1, 317785, Note_off_c, 0, 63, 63
1, 317798, Control_c, 0, 64, 64
1, 317807, Note_off_c, 0, 71, 46
1, 317812, Control_c, 0, 64, 69
1, 317827, Control_c, 0, 64, 75
1, 317842, Control_c, 0, 64, 79
1, 317857, Control_c, 0, 64, 81
1, 317872, Control_c, 0, 64, 83
1, 317886, Control_c, 0, 64, 85
1, 317889, Note_on_c, 0, 61, 42
1, 317901, Control_c, 0, 64, 86
1, 317902, Note_off_c, 0, 67, 53
1, 317916, Control_c, 0, 64, 87
1, 317931, Note_off_c, 0, 61, 46
1, 317945, Control_c, 0, 64, 88
1, 317946, Note_on_c, 0, 70, 70
1, 317961, Control_c, 0, 64, 88
1, 317976, Control_c, 0, 64, 89
1, 317991, Control_c, 0, 64, 89
1, 318006, Control_c, 0, 64, 90
1, 318021, Control_c, 0, 64, 91
1, 318025, Note_on_c, 0, 67, 51
1, 318035, Control_c, 0, 64, 94
1, 318050, Control_c, 0, 64, 98
1, 318058, Note_off_c, 0, 70, 62
1, 318065, Control_c, 0, 64, 105
1, 318080, Control_c, 0, 64, 110
1, 318097, Note_off_c, 0, 67, 56
1, 318109, Note_on_c, 0, 61, 35
1, 318109, Control_c, 0, 64, 96
1, 318124, Control_c, 0, 64, 75
1, 318139, Note_off_c, 0, 61, 50
1, 318139, Control_c, 0, 64, 55
1, 318153, Control_c, 0, 64, 0
1, 318179, Note_on_c, 0, 44, 47
1, 318182, Note_on_c, 0, 68, 65
1, 318228, Control_c, 0, 64, 36
1, 318243, Control_c, 0, 64, 59
1, 318255, Note_on_c, 0, 63, 55
1, 318258, Control_c, 0, 64, 69
1, 318273, Control_c, 0, 64, 80
1, 318282, Note_off_c, 0, 44, 63
1, 318288, Control_c, 0, 64, 91
1, 318302, Control_c, 0, 64, 94
1, 318303, Note_off_c, 0, 63, 56
1, 318314, Note_off_c, 0, 68, 52
1, 318317, Control_c, 0, 64, 97
1, 318321, Note_off_c, 0, 51, 60
1, 318330, Note_on_c, 0, 59, 45
1, 318332, Control_c, 0, 64, 100
1, 318347, Control_c, 0, 64, 106
1, 318354, Note_off_c, 0, 59, 57
1, 318361, Control_c, 0, 64, 115
1, 318376, Control_c, 0, 64, 127
1, 318472, Note_on_c, 0, 64, 69
1, 318479, Control_c, 0, 67, 125
1, 318481, Note_on_c, 0, 80, 78
1, 318494, Control_c, 0, 64, 102
1, 318494, Control_c, 0, 67, 120
1, 318509, Control_c, 0, 64, 77
1, 318509, Control_c, 0, 67, 107
1, 318532, Control_c, 0, 64, 66
1, 318532, Control_c, 0, 67, 88
1, 318547, Control_c, 0, 64, 65
1, 318547, Control_c, 0, 67, 66
1, 318561, Control_c, 0, 64, 70
1, 318561, Control_c, 0, 67, 41
1, 318576, Control_c, 0, 64, 79
1, 318576, Control_c, 0, 67, 0
1, 318588, Note_on_c, 0, 73, 44
1, 318591, Control_c, 0, 64, 98
1, 318606, Control_c, 0, 64, 127
1, 318619, Note_off_c, 0, 73, 53
1, 318641, Note_off_c, 0, 80, 54
1, 318660, Note_on_c, 0, 71, 57
1, 318665, Control_c, 0, 64, 107
1, 318679, Control_c, 0, 64, 76
1, 318683, Note_off_c, 0, 71, 60
1, 318694, Control_c, 0, 64, 63
1, 318709, Control_c, 0, 64, 59
1, 318710, Note_on_c, 0, 63, 50
1, 318716, Note_on_c, 0, 80, 73
1, 318724, Control_c, 0, 64, 63
1, 318739, Control_c, 0, 64, 70
1, 318746, Note_off_c, 0, 64, 47
1, 318755, Control_c, 0, 64, 80
1, 318770, Control_c, 0, 64, 95
1, 318777, Note_on_c, 0, 75, 57
1, 318784, Control_c, 0, 64, 127
1, 318801, Note_off_c, 0, 80, 59
1, 318821, Note_off_c, 0, 75, 57
1, 318845, Note_on_c, 0, 71, 50
1, 318858, Control_c, 0, 64, 114
1, 318873, Note_off_c, 0, 71, 63
1, 318873, Control_c, 0, 64, 83
1, 318888, Control_c, 0, 64, 70
1, 318902, Control_c, 0, 64, 66
1, 318918, Control_c, 0, 64, 68
1, 318926, Note_on_c, 0, 75, 64
1, 318927, Note_on_c, 0, 61, 46
1, 318931, Note_off_c, 0, 63, 49
1, 318933, Control_c, 0, 64, 75
1, 318948, Control_c, 0, 64, 81
1, 318963, Control_c, 0, 64, 88
1, 318977, Control_c, 0, 64, 94
1, 318992, Control_c, 0, 64, 98
1, 319003, Note_on_c, 0, 70, 43
1, 319007, Control_c, 0, 64, 100
1, 319022, Control_c, 0, 64, 102
1, 319033, Note_off_c, 0, 75, 54
1, 319037, Control_c, 0, 64, 105
1, 319037, Control_c, 0, 67, 19
1, 319039, Note_off_c, 0, 61, 56
1, 319051, Control_c, 0, 64, 111
1, 319063, Note_on_c, 0, 67, 47
1, 319066, Control_c, 0, 64, 114
1, 319072, Note_off_c, 0, 70, 37
1, 319081, Control_c, 0, 67, 22
1, 319092, Note_off_c, 0, 67, 58
1, 319096, Control_c, 0, 64, 94
1, 319110, Control_c, 0, 64, 76
1, 319110, Control_c, 0, 67, 25
1, 319114, Note_on_c, 0, 59, 55
1, 319125, Control_c, 0, 64, 63
1, 319139, Note_on_c, 0, 75, 54
1, 319140, Control_c, 0, 64, 57
1, 319140, Control_c, 0, 67, 28
1, 319155, Control_c, 0, 67, 32
1, 319170, Control_c, 0, 64, 61
1, 319170, Control_c, 0, 67, 37
1, 319185, Control_c, 0, 64, 65
1, 319185, Control_c, 0, 67, 45
1, 319200, Control_c, 0, 64, 72
1, 319200, Control_c, 0, 67, 53
1, 319209, Note_on_c, 0, 68, 47
1, 319215, Control_c, 0, 64, 81
1, 319215, Control_c, 0, 67, 63
1, 319230, Control_c, 0, 64, 97
1, 319230, Control_c, 0, 67, 70
1, 319244, Control_c, 0, 64, 114
1, 319244, Control_c, 0, 67, 77
1, 319259, Control_c, 0, 67, 84
1, 319281, Control_c, 0, 64, 97
1, 319281, Control_c, 0, 67, 90
1, 319296, Control_c, 0, 64, 78
1, 319296, Control_c, 0, 67, 95
1, 319301, Note_off_c, 0, 59, 35
1, 319310, Note_off_c, 0, 68, 48
1, 319310, Control_c, 0, 64, 65
1, 319310, Control_c, 0, 67, 97
1, 319313, Note_on_c, 0, 63, 32
1, 319325, Control_c, 0, 64, 58
1, 319332, Note_on_c, 0, 51, 38
1, 319340, Control_c, 0, 64, 59
1, 319340, Control_c, 0, 67, 100
1, 319355, Control_c, 0, 64, 63
1, 319355, Control_c, 0, 67, 103
1, 319370, Control_c, 0, 64, 67
1, 319370, Control_c, 0, 67, 108
1, 319385, Control_c, 0, 64, 75
1, 319385, Control_c, 0, 67, 115
1, 319396, Note_off_c, 0, 63, 37
1, 319399, Control_c, 0, 64, 83
1, 319399, Control_c, 0, 67, 121
1, 319414, Note_on_c, 0, 71, 42
1, 319414, Control_c, 0, 64, 89
1, 319414, Control_c, 0, 67, 127
1, 319429, Control_c, 0, 64, 91
1, 319444, Control_c, 0, 64, 93
1, 319459, Control_c, 0, 64, 93
1, 319466, Note_off_c, 0, 75, 31
1, 319485, Note_on_c, 0, 44, 36
1, 319503, Control_c, 0, 64, 94
1, 319504, Note_on_c, 0, 68, 36
1, 319533, Control_c, 0, 64, 94
1, 319540, Note_off_c, 0, 51, 41
1, 319548, Control_c, 0, 64, 95
1, 319551, Note_off_c, 0, 44, 61
1, 319563, Control_c, 0, 64, 96
1, 319629, Note_on_c, 0, 63, 38
1, 319657, Note_off_c, 0, 63, 52
1, 319697, Note_off_c, 0, 71, 43
1, 319701, Note_off_c, 0, 68, 44
1, 319888, Control_c, 0, 64, 94
1, 319903, Control_c, 0, 64, 86
1, 319918, Control_c, 0, 64, 74
1, 319932, Control_c, 0, 64, 62
1, 319933, Note_on_c, 0, 35, 35
1, 319943, Note_on_c, 0, 23, 40
1, 319947, Control_c, 0, 64, 46
1, 319962, Control_c, 0, 64, 0
1, 320006, Control_c, 0, 64, 37
1, 320028, Control_c, 0, 64, 51
1, 320043, Control_c, 0, 64, 63
1, 320058, Control_c, 0, 64, 72
1, 320062, Note_off_c, 0, 23, 62
1, 320073, Control_c, 0, 64, 86
1, 320088, Control_c, 0, 64, 107
1, 320103, Control_c, 0, 64, 127
1, 320106, Note_off_c, 0, 35, 51
1, 320223, Note_on_c, 0, 63, 46
1, 320309, Note_on_c, 0, 54, 42
1, 320332, Note_off_c, 0, 63, 55
1, 320370, Note_off_c, 0, 54, 47
1, 320401, Note_on_c, 0, 42, 52
1, 320404, Note_on_c, 0, 61, 47
1, 320477, Note_on_c, 0, 63, 43
1, 320499, Note_off_c, 0, 61, 50
1, 320522, Note_on_c, 0, 66, 55
1, 320569, Note_off_c, 0, 63, 58
1, 320591, Note_off_c, 0, 66, 60
1, 320594, Note_off_c, 0, 42, 55
1, 320596, Note_on_c, 0, 51, 52
1, 320596, Note_on_c, 0, 59, 52
1, 320637, Note_off_c, 0, 59, 60
1, 320668, Note_on_c, 0, 54, 40
1, 320694, Note_off_c, 0, 54, 55
1, 320709, Note_on_c, 0, 59, 46
1, 320743, Note_off_c, 0, 51, 61
1, 320760, Note_off_c, 0, 59, 50
1, 320783, Note_on_c, 0, 57, 59
1, 320820, Note_on_c, 0, 66, 43
1, 320845, Note_off_c, 0, 66, 58
1, 320848, Note_on_c, 0, 71, 53
1, 320883, Note_off_c, 0, 71, 65
1, 320888, Note_off_c, 0, 57, 61
1, 320935, Note_on_c, 0, 59, 54
1, 320973, Note_off_c, 0, 59, 60
1, 320978, Note_on_c, 0, 63, 59
1, 321006, Note_off_c, 0, 63, 64
1, 321016, Note_on_c, 0, 68, 63
1, 321072, Note_on_c, 0, 71, 63
1, 321091, Note_off_c, 0, 68, 64
1, 321105, Note_off_c, 0, 71, 62
1, 321141, Note_on_c, 0, 75, 66
1, 321163, Note_off_c, 0, 75, 66
1, 321198, Note_on_c, 0, 66, 60
1, 321231, Note_off_c, 0, 66, 64
1, 321256, Note_on_c, 0, 71, 67
1, 321316, Note_off_c, 0, 71, 63
1, 321328, Note_on_c, 0, 78, 68
1, 321397, Note_off_c, 0, 78, 55
1, 321400, Note_on_c, 0, 76, 70
1, 321406, Note_on_c, 0, 47, 62
1, 321471, Note_on_c, 0, 75, 61
1, 321495, Note_off_c, 0, 76, 62
1, 321535, Note_on_c, 0, 66, 67
1, 321553, Note_off_c, 0, 75, 62
1, 321569, Note_off_c, 0, 47, 56
1, 321600, Note_off_c, 0, 66, 58
1, 321611, Note_on_c, 0, 54, 60
1, 321627, Note_on_c, 0, 73, 70
1, 321668, Note_on_c, 0, 75, 70
1, 321684, Note_off_c, 0, 73, 61
1, 321729, Note_off_c, 0, 54, 62
1, 321747, Note_on_c, 0, 78, 76
1, 321763, Note_off_c, 0, 75, 63
1, 321779, Note_on_c, 0, 63, 64
1, 321784, Note_on_c, 0, 71, 68
1, 321793, Note_off_c, 0, 78, 64
1, 321836, Note_on_c, 0, 66, 69
1, 321840, Note_off_c, 0, 71, 65
1, 321847, Note_off_c, 0, 63, 58
1, 321863, Note_off_c, 0, 66, 67
1, 321909, Note_on_c, 0, 71, 64
1, 321915, Note_on_c, 0, 68, 62
1, 321960, Note_off_c, 0, 68, 65
1, 321968, Note_on_c, 0, 78, 68
1, 321972, Note_off_c, 0, 71, 60
1, 321987, Note_on_c, 0, 69, 46
1, 322024, Note_on_c, 0, 83, 70
1, 322036, Note_off_c, 0, 78, 60
1, 322043, Note_off_c, 0, 69, 0
1, 322043, Note_on_c, 0, 69, 28
1, 322056, Note_off_c, 0, 83, 62
1, 322077, Note_on_c, 0, 71, 77
1, 322109, Note_off_c, 0, 71, 59
1, 322123, Note_on_c, 0, 75, 59
1, 322146, Note_off_c, 0, 75, 66
1, 322155, Note_off_c, 0, 69, 61
1, 322159, Note_on_c, 0, 80, 73
1, 322193, Note_on_c, 0, 83, 73
1, 322198, Note_off_c, 0, 80, 64
1, 322241, Note_off_c, 0, 83, 63
1, 322246, Note_on_c, 0, 87, 89
1, 322278, Note_off_c, 0, 87, 64
1, 322344, Note_on_c, 0, 78, 48
1, 322368, Note_off_c, 0, 78, 56
1, 322383, Note_on_c, 0, 84, 66
1, 322400, Poly_aftertouch_c, 0, 80, 0
1, 322420, Note_on_c, 0, 83, 31
1, 322440, Note_on_c, 0, 90, 85
1, 322452, Note_off_c, 0, 83, 55
1, 322459, Note_off_c, 0, 84, 34
1, 322524, Note_on_c, 0, 40, 82
1, 322527, Control_c, 0, 64, 86
1, 322540, Note_off_c, 0, 90, 39
1, 322542, Control_c, 0, 64, 64
1, 322557, Control_c, 0, 64, 52
1, 322572, Control_c, 0, 64, 58
1, 322587, Control_c, 0, 64, 67
1, 322601, Control_c, 0, 64, 78
1, 322603, Note_off_c, 0, 40, 61
1, 322616, Control_c, 0, 64, 109
1, 322620, Note_on_c, 0, 90, 85
1, 322621, Note_on_c, 0, 47, 60
1, 322631, Control_c, 0, 64, 127
1, 322662, Note_off_c, 0, 47, 61
1, 322675, Note_on_c, 0, 83, 62
1, 322702, Note_on_c, 0, 57, 59
1, 322708, Note_off_c, 0, 90, 64
1, 322733, Note_on_c, 0, 75, 64
1, 322733, Note_off_c, 0, 83, 60
1, 322747, Note_off_c, 0, 57, 60
1, 322764, Note_off_c, 0, 75, 65
1, 322811, Note_on_c, 0, 45, 23
1, 322811, Note_on_c, 0, 87, 88
1, 322853, Note_off_c, 0, 45, 41
1, 322873, Note_off_c, 0, 87, 62
1, 322886, Note_on_c, 0, 78, 63
1, 322923, Note_on_c, 0, 63, 55
1, 322932, Note_off_c, 0, 78, 61
1, 322959, Note_on_c, 0, 71, 53
1, 322959, Note_off_c, 0, 63, 61
1, 322980, Note_off_c, 0, 71, 61
1, 323015, Note_on_c, 0, 85, 89
1, 323040, Note_on_c, 0, 59, 61
1, 323047, Poly_aftertouch_c, 0, 72, 0
1, 323097, Note_off_c, 0, 85, 64
1, 323098, Note_on_c, 0, 75, 69
1, 323168, Note_on_c, 0, 71, 73
1, 323173, Note_on_c, 0, 57, 72
1, 323177, Note_off_c, 0, 75, 62
1, 323215, Note_on_c, 0, 66, 67
1, 323227, Note_off_c, 0, 71, 63
1, 323228, Note_off_c, 0, 57, 62
1, 323239, Note_off_c, 0, 59, 52
1, 323245, Note_off_c, 0, 66, 64
1, 323261, Control_c, 0, 67, 125
1, 323290, Control_c, 0, 67, 122
1, 323304, Note_on_c, 0, 71, 75
1, 323305, Control_c, 0, 67, 119
1, 323314, Note_on_c, 0, 57, 71
1, 323321, Note_on_c, 0, 83, 72
1, 323352, Note_off_c, 0, 57, 58
1, 323361, Note_off_c, 0, 71, 62
1, 323387, Note_on_c, 0, 75, 63
1, 323400, Note_off_c, 0, 83, 61
1, 323432, Note_on_c, 0, 71, 75
1, 323445, Note_on_c, 0, 57, 69
1, 323482, Note_on_c, 0, 66, 55
1, 323483, Note_off_c, 0, 75, 60
1, 323507, Note_off_c, 0, 66, 56
1, 323509, Note_off_c, 0, 57, 61
1, 323516, Note_off_c, 0, 71, 58
1, 323528, Control_c, 0, 67, 117
1, 323549, Note_on_c, 0, 80, 82
1, 323616, Note_on_c, 0, 75, 65
1, 323662, Control_c, 0, 64, 77
1, 323670, Note_off_c, 0, 80, 57
1, 323677, Note_on_c, 0, 63, 71
1, 323677, Control_c, 0, 64, 57
1, 323680, Note_on_c, 0, 57, 63
1, 323680, Note_on_c, 0, 68, 81
1, 323691, Control_c, 0, 64, 42
1, 323706, Control_c, 0, 64, 47
1, 323710, Note_on_c, 0, 71, 64
1, 323721, Control_c, 0, 64, 60
1, 323722, Note_off_c, 0, 75, 57
1, 323736, Control_c, 0, 64, 67
1, 323751, Control_c, 0, 64, 80
1, 323753, Note_off_c, 0, 71, 60
1, 323772, Control_c, 0, 64, 127
1, 323772, Control_c, 0, 67, 119
1, 323776, Note_off_c, 0, 57, 61
1, 323786, Note_on_c, 0, 80, 79
1, 323820, Note_off_c, 0, 68, 62
1, 323834, Poly_aftertouch_c, 0, 61, 127
1, 323842, Note_off_c, 0, 63, 57
1, 323859, Note_on_c, 0, 75, 55
1, 323892, Control_c, 0, 64, 125
1, 323904, Note_off_c, 0, 80, 58
1, 323906, Control_c, 0, 64, 74
1, 323916, Note_on_c, 0, 68, 75
1, 323916, Note_on_c, 0, 56, 71
1, 323921, Note_on_c, 0, 63, 61
1, 323921, Control_c, 0, 64, 57
1, 323927, Note_off_c, 0, 75, 58
1, 323931, Note_on_c, 0, 71, 54
1, 323936, Control_c, 0, 64, 59
1, 323942, Note_off_c, 0, 68, 64
1, 323949, Poly_aftertouch_c, 0, 61, 0
1, 323951, Control_c, 0, 64, 67
1, 323951, Note_off_c, 0, 63, 65
1, 323954, Note_off_c, 0, 56, 60
1, 323966, Control_c, 0, 64, 78
1, 323968, Note_off_c, 0, 71, 61
1, 323980, Control_c, 0, 64, 114
1, 323995, Control_c, 0, 64, 127
1, 323995, Control_c, 0, 67, 121
1, 324008, Note_on_c, 0, 75, 71
1, 324079, Note_on_c, 0, 71, 61
1, 324084, Control_c, 0, 67, 119
1, 324098, Control_c, 0, 64, 83
1, 324112, Note_on_c, 0, 47, 48
1, 324113, Control_c, 0, 64, 60
1, 324118, Note_on_c, 0, 48, 50
1, 324124, Note_off_c, 0, 71, 63
1, 324128, Control_c, 0, 64, 55
1, 324132, Note_off_c, 0, 75, 57
1, 324143, Control_c, 0, 64, 63
1, 324145, Note_on_c, 0, 56, 44
1, 324154, Note_on_c, 0, 68, 59
1, 324159, Control_c, 0, 64, 75
1, 324166, Note_off_c, 0, 47, 55
1, 324166, Note_off_c, 0, 48, 51
1, 324172, Note_on_c, 0, 63, 70
1, 324173, Control_c, 0, 64, 101
1, 324177, Note_off_c, 0, 68, 66
1, 324188, Control_c, 0, 64, 127
1, 324206, Note_off_c, 0, 56, 57
1, 324208, Note_off_c, 0, 63, 61
1, 324232, Note_on_c, 0, 76, 71
1, 324277, Note_on_c, 0, 71, 41
1, 324285, Note_on_c, 0, 47, 57
1, 324306, Note_off_c, 0, 71, 53
1, 324306, Control_c, 0, 64, 93
1, 324317, Note_off_c, 0, 47, 65
1, 324321, Control_c, 0, 64, 65
1, 324334, Note_on_c, 0, 56, 54
1, 324336, Control_c, 0, 64, 55
1, 324343, Note_on_c, 0, 68, 54
1, 324352, Control_c, 0, 64, 59
1, 324367, Control_c, 0, 64, 66
1, 324378, Note_off_c, 0, 76, 51
1, 324381, Note_on_c, 0, 64, 61
1, 324382, Control_c, 0, 64, 75
1, 324396, Control_c, 0, 64, 95
1, 324399, Note_off_c, 0, 64, 61
1, 324411, Control_c, 0, 64, 127
1, 324434, Note_off_c, 0, 68, 63
1, 324442, Note_on_c, 0, 71, 70
1, 324530, Note_on_c, 0, 68, 54
1, 324582, Note_on_c, 0, 59, 69
1, 324583, Note_off_c, 0, 71, 53
1, 324586, Note_off_c, 0, 68, 60
1, 324593, Note_on_c, 0, 64, 42
1, 324596, Control_c, 0, 64, 88
1, 324611, Control_c, 0, 64, 67
1, 324611, Control_c, 0, 67, 117
1, 324614, Note_off_c, 0, 56, 43
1, 324616, Note_off_c, 0, 64, 57
1, 324626, Control_c, 0, 64, 56
1, 324641, Control_c, 0, 64, 59
1, 324655, Control_c, 0, 64, 64
1, 324670, Control_c, 0, 64, 70
1, 324673, Note_on_c, 0, 73, 63
1, 324685, Control_c, 0, 64, 79
1, 324700, Control_c, 0, 64, 95
1, 324715, Control_c, 0, 64, 127
1, 324747, Note_on_c, 0, 68, 50
1, 324793, Note_off_c, 0, 68, 60
1, 324807, Note_off_c, 0, 73, 58
1, 324841, Note_on_c, 0, 64, 43
1, 324848, Control_c, 0, 64, 110
1, 324850, Note_on_c, 0, 61, 56
1, 324863, Control_c, 0, 64, 76
1, 324876, Note_off_c, 0, 59, 46
1, 324878, Control_c, 0, 64, 62
1, 324881, Note_off_c, 0, 64, 62
1, 324893, Control_c, 0, 64, 56
1, 324908, Control_c, 0, 64, 59
1, 324922, Control_c, 0, 64, 65
1, 324932, Note_on_c, 0, 71, 46
1, 324937, Control_c, 0, 64, 73
1, 324952, Control_c, 0, 64, 87
1, 324967, Control_c, 0, 64, 116
1, 324981, Control_c, 0, 64, 127
1, 324995, Note_on_c, 0, 68, 50
1, 325018, Note_off_c, 0, 71, 36
1, 325072, Note_off_c, 0, 68, 57
1, 325080, Note_on_c, 0, 64, 42
1, 325085, Control_c, 0, 64, 85
1, 325100, Control_c, 0, 64, 70
1, 325113, Note_off_c, 0, 61, 58
1, 325114, Control_c, 0, 64, 65
1, 325128, Note_on_c, 0, 59, 45
1, 325129, Control_c, 0, 64, 68
1, 325145, Control_c, 0, 64, 73
1, 325159, Note_off_c, 0, 59, 63
1, 325160, Control_c, 0, 64, 79
1, 325175, Control_c, 0, 64, 88
1, 325187, Note_on_c, 0, 68, 48
1, 325190, Control_c, 0, 64, 98
1, 325205, Control_c, 0, 64, 109
1, 325219, Control_c, 0, 64, 117
1, 325234, Control_c, 0, 64, 125
1, 325249, Control_c, 0, 64, 127
1, 325280, Note_on_c, 0, 59, 46
1, 325325, Note_off_c, 0, 59, 63
1, 325374, Note_off_c, 0, 64, 39
1, 325383, Note_off_c, 0, 68, 59
1, 325508, Control_c, 0, 64, 87
1, 325523, Control_c, 0, 64, 64
1, 325525, Note_on_c, 0, 40, 50
1, 325528, Note_on_c, 0, 28, 51
1, 325538, Control_c, 0, 64, 48
1, 325552, Control_c, 0, 64, 41
1, 325567, Control_c, 0, 64, 47
1, 325582, Control_c, 0, 64, 59
1, 325597, Control_c, 0, 64, 66
1, 325612, Control_c, 0, 64, 80
1, 325621, Note_off_c, 0, 28, 62
1, 325627, Control_c, 0, 64, 127
1, 325663, Note_off_c, 0, 40, 60
1, 325746, Note_on_c, 0, 68, 58
1, 325834, Note_on_c, 0, 59, 44
1, 325849, Note_off_c, 0, 68, 60
1, 325878, Note_off_c, 0, 59, 61
1, 325909, Note_on_c, 0, 66, 52
1, 325911, Note_on_c, 0, 47, 46
1, 325938, Control_c, 0, 67, 115
1, 325977, Note_on_c, 0, 68, 59
1, 326026, Note_off_c, 0, 66, 48
1, 326056, Note_on_c, 0, 71, 55
1, 326089, Note_off_c, 0, 68, 52
1, 326102, Note_on_c, 0, 64, 58
1, 326110, Note_off_c, 0, 71, 60
1, 326118, Note_off_c, 0, 47, 54
1, 326123, Note_on_c, 0, 56, 62
1, 326160, Note_off_c, 0, 64, 63
1, 326179, Note_on_c, 0, 59, 61
1, 326213, Note_off_c, 0, 59, 65
1, 326238, Note_on_c, 0, 64, 61
1, 326271, Note_off_c, 0, 56, 62
1, 326301, Note_off_c, 0, 64, 60
1, 326302, Note_on_c, 0, 62, 65
1, 326316, Control_c, 0, 67, 113
1, 326317, Note_on_c, 0, 71, 68
1, 326331, Control_c, 0, 67, 111
1, 326380, Note_on_c, 0, 76, 80
1, 326385, Note_off_c, 0, 71, 64
1, 326408, Note_off_c, 0, 76, 66
1, 326422, Note_off_c, 0, 62, 60
1, 326455, Note_on_c, 0, 64, 66
1, 326484, Note_on_c, 0, 68, 75
1, 326508, Note_off_c, 0, 64, 61
1, 326508, Note_off_c, 0, 68, 70
1, 326527, Note_on_c, 0, 73, 79
1, 326572, Note_on_c, 0, 76, 72
1, 326594, Note_off_c, 0, 73, 62
1, 326646, Note_on_c, 0, 80, 81
1, 326655, Note_off_c, 0, 76, 63
1, 326669, Note_off_c, 0, 80, 66
1, 326673, Control_c, 0, 67, 108
1, 326702, Control_c, 0, 67, 104
1, 326703, Note_on_c, 0, 71, 73
1, 326717, Control_c, 0, 67, 100
1, 326732, Control_c, 0, 67, 96
1, 326738, Note_off_c, 0, 71, 64
1, 326747, Control_c, 0, 67, 92
1, 326770, Control_c, 0, 67, 91
1, 326780, Note_on_c, 0, 76, 70
1, 326785, Control_c, 0, 67, 90
1, 326820, Note_off_c, 0, 76, 60
1, 326834, Note_on_c, 0, 83, 77
1, 326899, Note_on_c, 0, 52, 74
1, 326905, Note_on_c, 0, 81, 76
1, 326922, Note_off_c, 0, 83, 61
1, 326970, Note_on_c, 0, 80, 75
1, 327004, Note_off_c, 0, 81, 61
1, 327043, Note_on_c, 0, 71, 72
1, 327046, Note_off_c, 0, 80, 62
1, 327092, Note_off_c, 0, 71, 63
1, 327105, Note_off_c, 0, 52, 56
1, 327108, Note_on_c, 0, 78, 77
1, 327110, Note_on_c, 0, 59, 62
1, 327154, Control_c, 0, 67, 91
1, 327155, Note_on_c, 0, 80, 76
1, 327176, Note_off_c, 0, 78, 61
1, 327183, Control_c, 0, 67, 91
1, 327222, Note_on_c, 0, 83, 67
1, 327233, Note_off_c, 0, 59, 61
1, 327245, Note_off_c, 0, 80, 63
1, 327257, Control_c, 0, 67, 92
1, 327265, Note_on_c, 0, 68, 63
1, 327269, Note_off_c, 0, 83, 66
1, 327278, Note_on_c, 0, 76, 78
1, 327332, Control_c, 0, 67, 91
1, 327334, Note_off_c, 0, 68, 62
1, 327334, Note_off_c, 0, 76, 61
1, 327344, Note_on_c, 0, 71, 67
1, 327347, Control_c, 0, 67, 91
1, 327361, Control_c, 0, 67, 90
1, 327368, Note_off_c, 0, 71, 70
1, 327376, Control_c, 0, 67, 90
1, 327395, Note_on_c, 0, 76, 76
1, 327422, Note_on_c, 0, 73, 63
1, 327448, Note_on_c, 0, 83, 75
1, 327454, Note_off_c, 0, 73, 65
1, 327462, Note_off_c, 0, 76, 59
1, 327475, Note_on_c, 0, 74, 65
1, 327495, Control_c, 0, 67, 90
1, 327530, Note_on_c, 0, 88, 81
1, 327531, Control_c, 0, 67, 91
1, 327540, Note_off_c, 0, 83, 65
1, 327562, Control_c, 0, 67, 91
1, 327563, Note_off_c, 0, 88, 63
1, 327590, Note_on_c, 0, 76, 80
1, 327633, Note_on_c, 0, 80, 74
1, 327636, Note_off_c, 0, 76, 62
1, 327636, Control_c, 0, 67, 92
1, 327651, Control_c, 0, 67, 93
1, 327657, Note_off_c, 0, 80, 69
1, 327661, Note_on_c, 0, 85, 90
1, 327666, Control_c, 0, 67, 94
1, 327675, Note_off_c, 0, 74, 63
1, 327680, Control_c, 0, 67, 94
1, 327702, Note_on_c, 0, 88, 64
1, 327716, Note_off_c, 0, 85, 65
1, 327771, Note_off_c, 0, 88, 64
1, 327774, Note_on_c, 0, 92, 76
1, 327797, Note_off_c, 0, 92, 70
1, 327814, Control_c, 0, 67, 94
1, 327829, Note_on_c, 0, 83, 78
1, 327829, Control_c, 0, 67, 93
1, 327844, Control_c, 0, 67, 92
1, 327859, Control_c, 0, 67, 92
1, 327868, Note_off_c, 0, 83, 61
1, 327873, Control_c, 0, 67, 90
1, 327895, Note_on_c, 0, 88, 76
1, 327957, Note_on_c, 0, 95, 83
1, 327958, Note_off_c, 0, 88, 55
1, 327977, Control_c, 0, 67, 91
1, 328006, Note_off_c, 0, 95, 60
1, 328006, Control_c, 0, 64, 91
1, 328006, Control_c, 0, 67, 91
1, 328021, Control_c, 0, 64, 62
1, 328026, Note_on_c, 0, 45, 82
1, 328036, Control_c, 0, 64, 35
1, 328051, Control_c, 0, 64, 38
1, 328065, Control_c, 0, 64, 59
1, 328080, Control_c, 0, 64, 74
1, 328080, Control_c, 0, 67, 91
1, 328095, Control_c, 0, 64, 110
1, 328110, Control_c, 0, 64, 127
1, 328122, Note_off_c, 0, 45, 59
1, 328136, Note_on_c, 0, 95, 76
1, 328139, Note_on_c, 0, 52, 68
1, 328193, Note_off_c, 0, 95, 64
1, 328195, Note_off_c, 0, 52, 59
1, 328199, Note_on_c, 0, 88, 73
1, 328223, Note_on_c, 0, 62, 53
1, 328250, Note_off_c, 0, 88, 64
1, 328265, Note_on_c, 0, 80, 69
1, 328280, Control_c, 0, 67, 90
1, 328295, Control_c, 0, 67, 89
1, 328300, Note_off_c, 0, 62, 54
1, 328309, Note_off_c, 0, 80, 60
1, 328310, Control_c, 0, 67, 88
1, 328315, Note_on_c, 0, 52, 72
1, 328324, Control_c, 0, 67, 85
1, 328327, Note_on_c, 0, 92, 90
1, 328341, Control_c, 0, 67, 80
1, 328345, Note_off_c, 0, 52, 68
1, 328356, Control_c, 0, 67, 75
1, 328370, Control_c, 0, 67, 72
1, 328385, Control_c, 0, 67, 71
1, 328395, Note_on_c, 0, 83, 64
1, 328396, Note_off_c, 0, 92, 65
1, 328438, Note_off_c, 0, 83, 64
1, 328444, Control_c, 0, 67, 71
1, 328451, Note_on_c, 0, 68, 59
1, 328455, Note_on_c, 0, 76, 69
1, 328485, Note_off_c, 0, 68, 64
1, 328493, Note_off_c, 0, 76, 60
1, 328521, Note_on_c, 0, 90, 90
1, 328548, Note_on_c, 0, 64, 35
1, 328578, Control_c, 0, 67, 70
1, 328585, Note_off_c, 0, 90, 65
1, 328586, Note_off_c, 0, 64, 0
1, 328586, Note_on_c, 0, 64, 7
1, 328586, Note_on_c, 0, 80, 77
1, 328607, Control_c, 0, 67, 69
1, 328667, Control_c, 0, 67, 69
1, 328672, Note_off_c, 0, 80, 63
1, 328686, Note_on_c, 0, 62, 77
1, 328692, Note_on_c, 0, 76, 80
1, 328711, Note_on_c, 0, 71, 68
1, 328711, Control_c, 0, 67, 68
1, 328742, Note_off_c, 0, 62, 60
1, 328742, Note_off_c, 0, 64, 38
1, 328746, Note_off_c, 0, 76, 62
1, 328747, Note_off_c, 0, 71, 60
1, 328787, Note_on_c, 0, 88, 73
1, 328826, Note_on_c, 0, 62, 71
1, 328828, Note_on_c, 0, 76, 74
1, 328863, Note_off_c, 0, 62, 45
1, 328879, Note_off_c, 0, 76, 58
1, 328880, Note_on_c, 0, 80, 64
1, 328888, Note_off_c, 0, 88, 54
1, 328944, Note_off_c, 0, 80, 63
1, 328948, Note_on_c, 0, 76, 74
1, 328952, Note_on_c, 0, 62, 73
1, 328986, Note_on_c, 0, 71, 46
1, 329019, Note_off_c, 0, 71, 57
1, 329027, Note_off_c, 0, 62, 53
1, 329034, Note_off_c, 0, 76, 60
1, 329053, Note_on_c, 0, 85, 82
1, 329129, Note_on_c, 0, 80, 69
1, 329133, Control_c, 0, 67, 69
1, 329164, Control_c, 0, 64, 87
1, 329178, Note_on_c, 0, 62, 57
1, 329179, Control_c, 0, 64, 64
1, 329182, Note_on_c, 0, 73, 74
1, 329186, Note_on_c, 0, 68, 68
1, 329190, Note_off_c, 0, 85, 57
1, 329193, Control_c, 0, 64, 53
1, 329208, Control_c, 0, 64, 58
1, 329209, Note_on_c, 0, 76, 65
1, 329223, Control_c, 0, 64, 65
1, 329237, Note_off_c, 0, 80, 60
1, 329237, Control_c, 0, 64, 74
1, 329252, Control_c, 0, 64, 89
1, 329252, Control_c, 0, 67, 69
1, 329254, Note_off_c, 0, 76, 55
1, 329255, Note_off_c, 0, 62, 60
1, 329267, Control_c, 0, 64, 127
1, 329267, Control_c, 0, 67, 70
1, 329282, Control_c, 0, 67, 70
1, 329287, Note_on_c, 0, 85, 84
1, 329309, Note_off_c, 0, 73, 60
1, 329326, Note_off_c, 0, 68, 58
1, 329352, Note_on_c, 0, 80, 56
1, 329352, Poly_aftertouch_c, 0, 66, 127
1, 329385, Control_c, 0, 67, 71
1, 329392, Note_off_c, 0, 85, 63
1, 329401, Control_c, 0, 64, 79
1, 329410, Note_on_c, 0, 68, 66
1, 329412, Note_on_c, 0, 73, 75
1, 329416, Note_off_c, 0, 80, 60
1, 329416, Control_c, 0, 64, 63
1, 329416, Control_c, 0, 67, 71
1, 329421, Note_on_c, 0, 76, 61
1, 329427, Note_on_c, 0, 61, 56
1, 329431, Control_c, 0, 64, 61
1, 329432, Note_off_c, 0, 73, 71
1, 329435, Note_off_c, 0, 68, 69
1, 329436, Poly_aftertouch_c, 0, 66, 0
1, 329445, Control_c, 0, 64, 69
1, 329452, Note_off_c, 0, 61, 60
1, 329457, Note_off_c, 0, 76, 62
1, 329460, Control_c, 0, 64, 82
1, 329475, Control_c, 0, 64, 127
1, 329475, Control_c, 0, 67, 72
1, 329490, Control_c, 0, 67, 72
1, 329493, Note_on_c, 0, 80, 75
1, 329505, Control_c, 0, 67, 73
1, 329549, Control_c, 0, 67, 72
1, 329564, Note_on_c, 0, 76, 64
1, 329564, Control_c, 0, 67, 71
1, 329579, Control_c, 0, 67, 70
1, 329580, Note_on_c, 0, 52, 49
1, 329594, Control_c, 0, 64, 113
1, 329609, Control_c, 0, 64, 76
1, 329609, Control_c, 0, 67, 69
1, 329612, Note_off_c, 0, 76, 63
1, 329624, Control_c, 0, 64, 65
1, 329628, Note_on_c, 0, 61, 47
1, 329636, Note_on_c, 0, 73, 65
1, 329638, Control_c, 0, 64, 69
1, 329642, Note_off_c, 0, 80, 52
1, 329653, Control_c, 0, 64, 85
1, 329662, Note_off_c, 0, 73, 69
1, 329668, Note_on_c, 0, 68, 77
1, 329668, Control_c, 0, 64, 127
1, 329689, Note_off_c, 0, 52, 46
1, 329703, Note_off_c, 0, 61, 59
1, 329704, Note_off_c, 0, 68, 61
1, 329712, Control_c, 0, 67, 70
1, 329720, Note_on_c, 0, 81, 73
1, 329784, Note_on_c, 0, 76, 50
1, 329791, Note_on_c, 0, 52, 62
1, 329810, Note_off_c, 0, 76, 62
1, 329824, Control_c, 0, 64, 82
1, 329829, Note_off_c, 0, 52, 62
1, 329836, Note_on_c, 0, 61, 56
1, 329838, Control_c, 0, 64, 67
1, 329838, Control_c, 0, 67, 70
1, 329843, Note_on_c, 0, 73, 51
1, 329853, Control_c, 0, 64, 66
1, 329853, Control_c, 0, 67, 69
1, 329868, Control_c, 0, 64, 75
1, 329879, Note_on_c, 0, 69, 71
1, 329883, Control_c, 0, 64, 99
1, 329883, Note_off_c, 0, 81, 52
1, 329898, Control_c, 0, 64, 127
1, 329907, Note_off_c, 0, 73, 52
1, 329923, Note_off_c, 0, 69, 60
1, 329927, Control_c, 0, 67, 70
1, 329937, Note_on_c, 0, 76, 60
1, 329958, Control_c, 0, 67, 70
1, 330024, Note_on_c, 0, 73, 58
1, 330061, Control_c, 0, 64, 109
1, 330076, Control_c, 0, 64, 75
1, 330091, Note_on_c, 0, 64, 63
1, 330091, Control_c, 0, 64, 60
1, 330092, Note_off_c, 0, 76, 60
1, 330094, Note_off_c, 0, 73, 51
1, 330106, Control_c, 0, 64, 58
1, 330107, Note_on_c, 0, 69, 38
1, 330121, Control_c, 0, 64, 62
1, 330135, Control_c, 0, 64, 68
1, 330139, Note_off_c, 0, 69, 50
1, 330150, Control_c, 0, 64, 77
1, 330165, Control_c, 0, 64, 96
1, 330165, Control_c, 0, 67, 71
1, 330180, Note_on_c, 0, 76, 66
1, 330180, Control_c, 0, 64, 127
1, 330180, Control_c, 0, 67, 72
1, 330194, Control_c, 0, 67, 72
1, 330209, Control_c, 0, 67, 73
1, 330248, Note_off_c, 0, 64, 51
1, 330253, Note_on_c, 0, 73, 60
1, 330283, Control_c, 0, 67, 74
1, 330285, Note_off_c, 0, 61, 59
1, 330298, Control_c, 0, 67, 75
1, 330313, Control_c, 0, 67, 76
1, 330328, Control_c, 0, 67, 77
1, 330350, Note_off_c, 0, 73, 50
1, 330353, Note_on_c, 0, 68, 47
1, 330372, Control_c, 0, 64, 102
1, 330376, Note_on_c, 0, 64, 59
1, 330379, Note_on_c, 0, 61, 52
1, 330385, Note_on_c, 0, 51, 52
1, 330387, Control_c, 0, 64, 72
1, 330399, Note_off_c, 0, 68, 49
1, 330402, Control_c, 0, 64, 54
1, 330402, Control_c, 0, 67, 77
1, 330417, Control_c, 0, 64, 44
1, 330417, Control_c, 0, 67, 79
1, 330432, Control_c, 0, 64, 42
1, 330432, Control_c, 0, 67, 81
1, 330433, Note_off_c, 0, 76, 63
1, 330447, Control_c, 0, 64, 45
1, 330447, Control_c, 0, 67, 83
1, 330461, Control_c, 0, 64, 51
1, 330461, Control_c, 0, 67, 88
1, 330465, Note_on_c, 0, 75, 53
1, 330476, Control_c, 0, 64, 57
1, 330476, Control_c, 0, 67, 94
1, 330491, Control_c, 0, 64, 64
1, 330491, Control_c, 0, 67, 100
1, 330512, Control_c, 0, 64, 71
1, 330512, Control_c, 0, 67, 106
1, 330527, Control_c, 0, 64, 80
1, 330527, Control_c, 0, 67, 115
1, 330538, Note_off_c, 0, 64, 61
1, 330542, Control_c, 0, 64, 90
1, 330542, Control_c, 0, 67, 122
1, 330557, Control_c, 0, 64, 99
1, 330557, Control_c, 0, 67, 127
1, 330572, Control_c, 0, 64, 119
1, 330582, Note_on_c, 0, 73, 51
1, 330587, Control_c, 0, 64, 127
1, 330664, Note_off_c, 0, 75, 37
1, 330674, Note_on_c, 0, 67, 40
1, 330676, Control_c, 0, 64, 118
1, 330691, Control_c, 0, 64, 79
1, 330706, Control_c, 0, 64, 62
1, 330712, Note_on_c, 0, 63, 48
1, 330715, Note_off_c, 0, 67, 48
1, 330720, Control_c, 0, 64, 59
1, 330725, Note_off_c, 0, 73, 42
1, 330736, Control_c, 0, 64, 63
1, 330751, Control_c, 0, 64, 69
1, 330766, Control_c, 0, 64, 79
1, 330781, Control_c, 0, 64, 101
1, 330783, Note_on_c, 0, 75, 52
1, 330787, Note_off_c, 0, 63, 62
1, 330795, Control_c, 0, 64, 127
1, 330836, Note_off_c, 0, 61, 61
1, 330864, Note_off_c, 0, 51, 62
1, 330906, Note_off_c, 0, 75, 52
1, 330924, Note_on_c, 0, 63, 47
1, 330956, Note_off_c, 0, 63, 63
1, 331188, Note_on_c, 0, 51, 52
1, 331193, Note_on_c, 0, 39, 56
1, 331224, Control_c, 0, 64, 113
1, 331231, Note_off_c, 0, 51, 57
1, 331238, Note_off_c, 0, 39, 57
1, 331239, Control_c, 0, 64, 88
1, 331261, Control_c, 0, 64, 76
1, 331276, Control_c, 0, 64, 68
1, 331290, Control_c, 0, 64, 63
1, 331305, Note_on_c, 0, 56, 56
1, 331305, Control_c, 0, 64, 61
1, 331320, Control_c, 0, 64, 60
1, 331335, Control_c, 0, 64, 59
1, 331365, Note_on_c, 0, 51, 52
1, 331365, Control_c, 0, 64, 59
1, 331380, Control_c, 0, 64, 58
1, 331395, Control_c, 0, 64, 58
1, 331401, Note_off_c, 0, 56, 58
1, 331424, Control_c, 0, 64, 57
1, 331433, Note_on_c, 0, 37, 53
1, 331435, Note_on_c, 0, 49, 49
1, 331453, Note_off_c, 0, 51, 55
1, 331460, Note_on_c, 0, 55, 48
1, 331466, Note_off_c, 0, 37, 60
1, 331472, Note_off_c, 0, 49, 59
1, 331483, Control_c, 0, 64, 58
1, 331518, Note_off_c, 0, 55, 56
1, 331542, Note_on_c, 0, 56, 52
1, 331544, Control_c, 0, 64, 58
1, 331558, Control_c, 0, 64, 59
1, 331573, Control_c, 0, 64, 59
1, 331587, Note_off_c, 0, 56, 60
1, 331588, Control_c, 0, 64, 61
1, 331603, Control_c, 0, 64, 63
1, 331604, Note_on_c, 0, 59, 45
1, 331618, Control_c, 0, 64, 63
1, 331627, Note_on_c, 0, 39, 54
1, 331632, Control_c, 0, 64, 63
1, 331636, Note_on_c, 0, 51, 22
1, 331645, Note_off_c, 0, 59, 63
1, 331648, Control_c, 0, 64, 62
1, 331660, Note_off_c, 0, 39, 63
1, 331663, Control_c, 0, 64, 62
1, 331668, Note_on_c, 0, 58, 43
1, 331678, Control_c, 0, 64, 61
1, 331694, Note_off_c, 0, 58, 57
1, 331695, Note_off_c, 0, 51, 0
1, 331708, Note_on_c, 0, 51, 49
1, 331754, Note_off_c, 0, 51, 62
1, 331793, Note_on_c, 0, 56, 58
1, 331860, Note_off_c, 0, 56, 57
1, 331863, Note_on_c, 0, 37, 46
1, 331863, Note_on_c, 0, 49, 49
1, 331865, Note_on_c, 0, 58, 52
1, 331898, Note_off_c, 0, 37, 57
1, 331900, Control_c, 0, 64, 61
1, 331914, Control_c, 0, 64, 60
1, 331915, Note_off_c, 0, 49, 52
1, 331923, Note_on_c, 0, 63, 49
1, 331941, Note_off_c, 0, 58, 59
1, 331944, Control_c, 0, 64, 60
1, 331951, Note_off_c, 0, 63, 60
1, 331958, Control_c, 0, 64, 59
1, 331988, Control_c, 0, 64, 58
1, 331990, Note_on_c, 0, 55, 67
1, 332011, Control_c, 0, 64, 59
1, 332036, Note_off_c, 0, 55, 62
1, 332040, Control_c, 0, 64, 59
1, 332044, Note_on_c, 0, 51, 49
1, 332050, Note_on_c, 0, 39, 54
1, 332055, Control_c, 0, 64, 60
1, 332070, Control_c, 0, 64, 61
1, 332074, Note_off_c, 0, 51, 63
1, 332085, Control_c, 0, 64, 61
1, 332087, Note_on_c, 0, 59, 51
1, 332092, Note_off_c, 0, 39, 59
1, 332100, Control_c, 0, 64, 62
1, 332131, Note_on_c, 0, 63, 55
1, 332135, Note_off_c, 0, 59, 59
1, 332158, Control_c, 0, 64, 61
1, 332190, Note_on_c, 0, 67, 60
1, 332196, Note_off_c, 0, 63, 63
1, 332225, Note_off_c, 0, 67, 61
1, 332256, Note_on_c, 0, 37, 51
1, 332258, Note_on_c, 0, 49, 61
1, 332260, Note_on_c, 0, 58, 70
1, 332287, Note_off_c, 0, 49, 65
1, 332289, Note_off_c, 0, 37, 61
1, 332292, Control_c, 0, 64, 61
1, 332302, Note_off_c, 0, 58, 55
1, 332307, Control_c, 0, 64, 60
1, 332322, Control_c, 0, 64, 59
1, 332325, Note_on_c, 0, 63, 63
1, 332337, Control_c, 0, 64, 58
1, 332352, Control_c, 0, 64, 57
1, 332367, Control_c, 0, 64, 56
1, 332382, Control_c, 0, 64, 55
1, 332384, Note_off_c, 0, 63, 61
1, 332387, Note_on_c, 0, 70, 68
1, 332396, Control_c, 0, 64, 56
1, 332411, Control_c, 0, 64, 57
1, 332417, Note_off_c, 0, 70, 63
1, 332426, Control_c, 0, 64, 58
1, 332441, Control_c, 0, 64, 60
1, 332443, Note_on_c, 0, 52, 69
1, 332450, Note_on_c, 0, 56, 77
1, 332452, Note_on_c, 0, 40, 56
1, 332456, Control_c, 0, 64, 63
1, 332471, Control_c, 0, 64, 64
1, 332471, Note_off_c, 0, 52, 67
1, 332484, Note_off_c, 0, 40, 64
1, 332501, Control_c, 0, 64, 64
1, 332508, Note_off_c, 0, 56, 58
1, 332515, Control_c, 0, 64, 63
1, 332521, Note_on_c, 0, 68, 65
1, 332529, Note_on_c, 0, 64, 53
1, 332530, Control_c, 0, 64, 62
1, 332560, Control_c, 0, 64, 62
1, 332577, Note_on_c, 0, 56, 62
1, 332581, Note_off_c, 0, 68, 58
1, 332619, Control_c, 0, 64, 61
1, 332634, Control_c, 0, 64, 60
1, 332635, Note_off_c, 0, 56, 60
1, 332644, Note_on_c, 0, 47, 71
1, 332649, Control_c, 0, 64, 59
1, 332650, Note_on_c, 0, 35, 65
1, 332650, Note_on_c, 0, 67, 57
1, 332663, Control_c, 0, 64, 58
1, 332672, Note_off_c, 0, 47, 65
1, 332678, Control_c, 0, 64, 57
1, 332680, Note_off_c, 0, 35, 62
1, 332693, Control_c, 0, 67, 124
1, 332706, Note_off_c, 0, 64, 55
1, 332707, Control_c, 0, 64, 57
1, 332707, Control_c, 0, 67, 116
1, 332709, Note_on_c, 0, 68, 70
1, 332722, Control_c, 0, 67, 105
1, 332737, Control_c, 0, 64, 56
1, 332737, Control_c, 0, 67, 92
1, 332760, Control_c, 0, 67, 78
1, 332762, Note_off_c, 0, 67, 61
1, 332775, Control_c, 0, 67, 63
1, 332776, Note_on_c, 0, 71, 73
1, 332789, Control_c, 0, 64, 57
1, 332789, Control_c, 0, 67, 50
1, 332790, Note_off_c, 0, 68, 64
1, 332804, Control_c, 0, 64, 57
1, 332804, Control_c, 0, 67, 37
1, 332819, Control_c, 0, 67, 23
1, 332834, Control_c, 0, 64, 58
1, 332834, Control_c, 0, 67, 0
1, 332843, Note_off_c, 0, 71, 65
1, 332849, Note_on_c, 0, 70, 80
1, 332849, Control_c, 0, 64, 58
1, 332855, Note_on_c, 0, 52, 72
1, 332859, Note_on_c, 0, 40, 66
1, 332876, Note_off_c, 0, 70, 66
1, 332882, Note_off_c, 0, 52, 67
1, 332888, Note_off_c, 0, 40, 66
1, 332893, Control_c, 0, 64, 58
1, 332936, Note_on_c, 0, 56, 58
1, 332937, Control_c, 0, 64, 57
1, 332952, Control_c, 0, 64, 57
1, 332967, Control_c, 0, 64, 56
1, 332978, Note_off_c, 0, 56, 56
1, 332981, Control_c, 0, 64, 55
1, 332996, Control_c, 0, 64, 53
1, 333011, Control_c, 0, 64, 51
1, 333021, Note_on_c, 0, 68, 65
1, 333026, Control_c, 0, 64, 49
1, 333041, Control_c, 0, 64, 47
1, 333055, Control_c, 0, 64, 46
1, 333076, Note_on_c, 0, 35, 51
1, 333079, Note_on_c, 0, 47, 40
1, 333089, Note_on_c, 0, 66, 49
1, 333091, Note_off_c, 0, 68, 63
1, 333106, Note_off_c, 0, 35, 52
1, 333109, Note_off_c, 0, 47, 56
1, 333127, Note_on_c, 0, 56, 51
1, 333130, Control_c, 0, 64, 47
1, 333145, Control_c, 0, 64, 48
1, 333160, Control_c, 0, 64, 48
1, 333175, Control_c, 0, 64, 49
1, 333190, Control_c, 0, 64, 50
1, 333203, Note_off_c, 0, 56, 45
1, 333204, Control_c, 0, 64, 52
1, 333204, Control_c, 0, 67, 19
1, 333215, Note_off_c, 0, 66, 54
1, 333219, Control_c, 0, 64, 54
1, 333219, Control_c, 0, 67, 21
1, 333221, Note_on_c, 0, 64, 49
1, 333234, Control_c, 0, 64, 56
1, 333234, Control_c, 0, 67, 24
1, 333249, Control_c, 0, 64, 57
1, 333249, Control_c, 0, 67, 26
1, 333264, Control_c, 0, 64, 57
1, 333264, Control_c, 0, 67, 29
1, 333279, Control_c, 0, 64, 58
1, 333279, Control_c, 0, 67, 33
1, 333282, Note_on_c, 0, 52, 47
1, 333293, Note_on_c, 0, 63, 63
1, 333293, Control_c, 0, 67, 38
1, 333295, Note_on_c, 0, 40, 24
1, 333295, Note_off_c, 0, 64, 62
1, 333308, Control_c, 0, 67, 43
1, 333310, Note_off_c, 0, 52, 56
1, 333323, Control_c, 0, 67, 50
1, 333335, Note_off_c, 0, 40, 41
1, 333337, Note_off_c, 0, 63, 57
1, 333338, Control_c, 0, 67, 56
1, 333353, Control_c, 0, 67, 62
1, 333358, Note_on_c, 0, 56, 59
1, 333368, Control_c, 0, 64, 57
1, 333368, Control_c, 0, 67, 69
1, 333383, Control_c, 0, 67, 74
1, 333398, Control_c, 0, 67, 78
1, 333400, Note_off_c, 0, 56, 59
1, 333412, Control_c, 0, 64, 57
1, 333412, Control_c, 0, 67, 81
1, 333427, Control_c, 0, 67, 82
1, 333442, Control_c, 0, 67, 83
1, 333454, Note_on_c, 0, 63, 57
1, 333457, Control_c, 0, 67, 84
1, 333507, Note_on_c, 0, 35, 43
1, 333508, Note_on_c, 0, 47, 34
1, 333514, Note_on_c, 0, 61, 53
1, 333524, Note_off_c, 0, 63, 56
1, 333540, Note_off_c, 0, 35, 56
1, 333541, Note_off_c, 0, 47, 47
1, 333562, Note_off_c, 0, 61, 58
1, 333577, Note_on_c, 0, 56, 41
1, 333583, Control_c, 0, 64, 56
1, 333583, Control_c, 0, 67, 83
1, 333598, Control_c, 0, 64, 55
1, 333598, Control_c, 0, 67, 83
1, 333612, Control_c, 0, 64, 54
1, 333612, Control_c, 0, 67, 82
1, 333627, Control_c, 0, 64, 52
1, 333627, Control_c, 0, 67, 82
1, 333634, Note_off_c, 0, 56, 44
1, 333642, Control_c, 0, 64, 51
1, 333657, Control_c, 0, 64, 51
1, 333657, Note_on_c, 0, 61, 50
1, 333686, Control_c, 0, 64, 52
1, 333692, Note_off_c, 0, 61, 61
1, 333701, Control_c, 0, 64, 54
1, 333716, Control_c, 0, 64, 56
1, 333726, Note_on_c, 0, 47, 54
1, 333728, Note_on_c, 0, 35, 54
1, 333730, Control_c, 0, 64, 60
1, 333745, Control_c, 0, 64, 63
1, 333760, Control_c, 0, 64, 66
1, 333761, Note_off_c, 0, 35, 63
1, 333762, Note_off_c, 0, 47, 65
1, 333775, Control_c, 0, 64, 67
1, 333802, Note_on_c, 0, 61, 52
1, 333804, Control_c, 0, 64, 66
1, 333816, Note_on_c, 0, 56, 38
1, 333819, Control_c, 0, 64, 66
1, 333834, Control_c, 0, 64, 65
1, 333849, Control_c, 0, 64, 65
1, 333850, Note_off_c, 0, 61, 60
1, 333857, Note_on_c, 0, 52, 60
1, 333863, Control_c, 0, 64, 64
1, 333893, Control_c, 0, 64, 64
1, 333899, Note_off_c, 0, 56, 0
1, 333902, Note_off_c, 0, 52, 58
1, 333908, Control_c, 0, 64, 63
1, 333914, Note_on_c, 0, 56, 30
1, 333917, Note_on_c, 0, 34, 49
1, 333922, Control_c, 0, 64, 63
1, 333924, Note_on_c, 0, 60, 47
1, 333947, Note_on_c, 0, 46, 19
1, 333952, Control_c, 0, 64, 62
1, 333964, Note_off_c, 0, 56, 50
1, 333967, Control_c, 0, 64, 61
1, 333982, Control_c, 0, 64, 60
1, 333989, Note_off_c, 0, 46, 47
1, 333993, Note_on_c, 0, 61, 56
1, 333997, Control_c, 0, 64, 58
1, 334012, Control_c, 0, 64, 57
1, 334012, Control_c, 0, 67, 81
1, 334018, Note_off_c, 0, 34, 60
1, 334019, Note_off_c, 0, 60, 63
1, 334027, Control_c, 0, 64, 55
1, 334042, Control_c, 0, 64, 53
1, 334042, Control_c, 0, 67, 81
1, 334046, Note_on_c, 0, 64, 58
1, 334049, Note_off_c, 0, 61, 61
1, 334057, Control_c, 0, 64, 52
1, 334071, Control_c, 0, 64, 51
1, 334086, Control_c, 0, 67, 80
1, 334101, Control_c, 0, 64, 52
1, 334116, Control_c, 0, 64, 54
1, 334120, Note_off_c, 0, 64, 63
1, 334131, Control_c, 0, 64, 56
1, 334132, Note_on_c, 0, 35, 52
1, 334134, Note_on_c, 0, 47, 48
1, 334134, Note_on_c, 0, 63, 59
1, 334145, Control_c, 0, 64, 59
1, 334160, Control_c, 0, 64, 62
1, 334172, Note_off_c, 0, 47, 64
1, 334175, Control_c, 0, 64, 63
1, 334179, Note_off_c, 0, 35, 58
1, 334198, Note_on_c, 0, 52, 58
1, 334217, Note_off_c, 0, 63, 58
1, 334235, Note_off_c, 0, 52, 64
1, 334286, Note_on_c, 0, 56, 60
1, 334316, Control_c, 0, 64, 63
1, 334340, Note_off_c, 0, 56, 60
1, 334343, Note_on_c, 0, 46, 55
1, 334344, Note_on_c, 0, 34, 54
1, 334346, Note_on_c, 0, 61, 61
1, 334375, Control_c, 0, 67, 80
1, 334393, Note_off_c, 0, 46, 58
1, 334417, Note_off_c, 0, 34, 62
1, 334417, Note_off_c, 0, 61, 62
1, 334423, Note_on_c, 0, 68, 63
1, 334434, Control_c, 0, 64, 62
1, 334449, Note_off_c, 0, 68, 66
1, 334449, Control_c, 0, 64, 61
1, 334464, Control_c, 0, 64, 60
1, 334467, Note_on_c, 0, 56, 69
1, 334478, Control_c, 0, 64, 58
1, 334493, Control_c, 0, 64, 56
1, 334508, Control_c, 0, 64, 54
1, 334508, Control_c, 0, 67, 79
1, 334528, Note_on_c, 0, 63, 73
1, 334530, Note_off_c, 0, 56, 61
1, 334533, Note_on_c, 0, 47, 65
1, 334535, Note_on_c, 0, 35, 65
1, 334538, Control_c, 0, 64, 55
1, 334552, Control_c, 0, 64, 57
1, 334567, Control_c, 0, 64, 59
1, 334567, Control_c, 0, 67, 79
1, 334582, Control_c, 0, 64, 60
1, 334588, Note_off_c, 0, 35, 60
1, 334588, Note_off_c, 0, 47, 63
1, 334597, Control_c, 0, 64, 61
1, 334612, Control_c, 0, 67, 78
1, 334626, Control_c, 0, 67, 78
1, 334640, Note_on_c, 0, 64, 39
1, 334646, Note_on_c, 0, 68, 77
1, 334646, Note_off_c, 0, 63, 60
1, 334665, Note_off_c, 0, 64, 49
1, 334671, Control_c, 0, 64, 60
1, 334671, Control_c, 0, 67, 77
1, 334678, Note_off_c, 0, 68, 66
1, 334700, Control_c, 0, 64, 61
1, 334721, Note_on_c, 0, 61, 67
1, 334731, Control_c, 0, 67, 78
1, 334732, Note_on_c, 0, 46, 74
1, 334733, Note_on_c, 0, 34, 65
1, 334752, Note_off_c, 0, 61, 64
1, 334761, Control_c, 0, 64, 60
1, 334764, Note_off_c, 0, 46, 67
1, 334766, Note_off_c, 0, 34, 63
1, 334775, Control_c, 0, 64, 60
1, 334784, Note_on_c, 0, 68, 71
1, 334790, Control_c, 0, 64, 59
1, 334805, Control_c, 0, 64, 57
1, 334820, Control_c, 0, 64, 55
1, 334835, Control_c, 0, 64, 53
1, 334838, Note_on_c, 0, 73, 77
1, 334849, Control_c, 0, 64, 51
1, 334864, Control_c, 0, 64, 50
1, 334869, Note_off_c, 0, 68, 60
1, 334894, Control_c, 0, 64, 51
1, 334894, Control_c, 0, 67, 77
1, 334900, Note_off_c, 0, 73, 63
1, 334909, Control_c, 0, 64, 55
1, 334909, Control_c, 0, 67, 77
1, 334923, Note_on_c, 0, 49, 78
1, 334923, Note_on_c, 0, 59, 79
1, 334924, Control_c, 0, 64, 59
1, 334929, Note_on_c, 0, 37, 68
1, 334939, Control_c, 0, 64, 62
1, 334952, Note_off_c, 0, 49, 67
1, 334954, Control_c, 0, 64, 63
1, 334963, Note_off_c, 0, 37, 63
1, 334967, Note_off_c, 0, 59, 62
1, 334996, Note_on_c, 0, 73, 72
1, 335020, Control_c, 0, 64, 62
1, 335028, Note_off_c, 0, 73, 69
1, 335050, Control_c, 0, 64, 62
1, 335075, Note_on_c, 0, 64, 61
1, 335079, Control_c, 0, 64, 61
1, 335099, Note_on_c, 0, 65, 52
1, 335109, Control_c, 0, 64, 61
1, 335125, Note_off_c, 0, 64, 54
1, 335127, Note_off_c, 0, 65, 55
1, 335134, Note_on_c, 0, 32, 62
1, 335136, Note_on_c, 0, 44, 66
1, 335142, Note_on_c, 0, 72, 58
1, 335148, Note_on_c, 0, 71, 58
1, 335154, Control_c, 0, 64, 60
1, 335154, Control_c, 0, 67, 76
1, 335168, Note_off_c, 0, 44, 66
1, 335168, Control_c, 0, 64, 59
1, 335173, Note_off_c, 0, 32, 63
1, 335183, Control_c, 0, 64, 58
1, 335191, Note_on_c, 0, 73, 80
1, 335198, Control_c, 0, 64, 56
1, 335213, Control_c, 0, 64, 54
1, 335219, Note_off_c, 0, 71, 60
1, 335224, Note_off_c, 0, 72, 64
1, 335228, Control_c, 0, 64, 52
1, 335242, Control_c, 0, 64, 51
1, 335264, Note_on_c, 0, 76, 82
1, 335268, Note_off_c, 0, 73, 65
1, 335272, Control_c, 0, 64, 52
1, 335287, Control_c, 0, 64, 54
1, 335302, Control_c, 0, 64, 57
1, 335316, Control_c, 0, 64, 60
1, 335327, Note_off_c, 0, 76, 56
1, 335329, Note_on_c, 0, 75, 82
1, 335331, Control_c, 0, 64, 63
1, 335340, Note_on_c, 0, 49, 73
1, 335346, Control_c, 0, 64, 65
1, 335347, Note_on_c, 0, 37, 60
1, 335370, Note_off_c, 0, 49, 68
1, 335373, Note_off_c, 0, 75, 64
1, 335376, Control_c, 0, 64, 64
1, 335386, Note_off_c, 0, 37, 62
1, 335390, Control_c, 0, 64, 63
1, 335390, Control_c, 0, 67, 76
1, 335405, Control_c, 0, 64, 62
1, 335420, Control_c, 0, 64, 62
1, 335420, Control_c, 0, 67, 75
1, 335434, Control_c, 0, 64, 61
1, 335449, Control_c, 0, 64, 61
1, 335452, Note_on_c, 0, 64, 27
1, 335464, Control_c, 0, 64, 60
1, 335464, Control_c, 0, 67, 76
1, 335479, Control_c, 0, 64, 60
1, 335479, Control_c, 0, 67, 76
1, 335484, Note_on_c, 0, 73, 74
1, 335487, Note_off_c, 0, 64, 42
1, 335494, Control_c, 0, 64, 59
1, 335508, Control_c, 0, 64, 59
1, 335524, Control_c, 0, 64, 58
1, 335539, Control_c, 0, 64, 58
1, 335539, Control_c, 0, 67, 76
1, 335545, Note_on_c, 0, 71, 68
1, 335554, Control_c, 0, 64, 57
1, 335554, Control_c, 0, 67, 75
1, 335559, Note_on_c, 0, 44, 64
1, 335563, Note_on_c, 0, 32, 53
1, 335569, Control_c, 0, 64, 57
1, 335582, Note_off_c, 0, 73, 58
1, 335584, Control_c, 0, 64, 56
1, 335595, Note_off_c, 0, 44, 65
1, 335598, Note_off_c, 0, 32, 61
1, 335598, Control_c, 0, 64, 55
1, 335613, Control_c, 0, 64, 54
1, 335616, Note_on_c, 0, 64, 61
1, 335628, Control_c, 0, 64, 53
1, 335647, Note_off_c, 0, 71, 58
1, 335663, Note_off_c, 0, 64, 56
1, 335672, Control_c, 0, 64, 54
1, 335685, Note_on_c, 0, 70, 61
1, 335687, Control_c, 0, 64, 55
1, 335702, Control_c, 0, 64, 57
1, 335717, Control_c, 0, 64, 59
1, 335732, Control_c, 0, 64, 60
1, 335754, Control_c, 0, 64, 61
1, 335754, Control_c, 0, 67, 76
1, 335757, Note_on_c, 0, 49, 60
1, 335760, Note_on_c, 0, 68, 65
1, 335767, Note_on_c, 0, 37, 54
1, 335777, Note_off_c, 0, 70, 65
1, 335784, Control_c, 0, 64, 61
1, 335790, Note_off_c, 0, 49, 63
1, 335799, Control_c, 0, 64, 60
1, 335804, Note_off_c, 0, 37, 63
1, 335804, Note_off_c, 0, 68, 62
1, 335813, Control_c, 0, 64, 60
1, 335823, Note_on_c, 0, 64, 64
1, 335828, Control_c, 0, 64, 59
1, 335828, Control_c, 0, 67, 76
1, 335857, Note_off_c, 0, 64, 64
1, 335858, Control_c, 0, 64, 59
1, 335858, Control_c, 0, 67, 77
1, 335873, Control_c, 0, 64, 58
1, 335907, Note_on_c, 0, 68, 70
1, 335961, Note_on_c, 0, 32, 56
1, 335961, Control_c, 0, 64, 59
1, 335973, Note_on_c, 0, 44, 44
1, 335974, Note_off_c, 0, 68, 58
1, 335976, Note_on_c, 0, 64, 57
1, 336002, Note_off_c, 0, 44, 59
1, 336009, Note_on_c, 0, 61, 58
1, 336021, Control_c, 0, 67, 76
1, 336023, Note_off_c, 0, 64, 58
1, 336036, Note_off_c, 0, 32, 57
1, 336050, Control_c, 0, 67, 76
1, 336065, Control_c, 0, 67, 75
1, 336075, Note_off_c, 0, 61, 45
1, 336080, Control_c, 0, 64, 58
1, 336090, Note_on_c, 0, 64, 43
1, 336095, Control_c, 0, 64, 58
1, 336110, Control_c, 0, 64, 57
1, 336123, Note_off_c, 0, 64, 66
1, 336125, Control_c, 0, 64, 56
1, 336139, Control_c, 0, 64, 54
1, 336154, Control_c, 0, 64, 53
1, 336169, Control_c, 0, 64, 54
1, 336184, Control_c, 0, 64, 55
1, 336188, Note_on_c, 0, 47, 75
1, 336193, Note_on_c, 0, 35, 74
1, 336198, Control_c, 0, 64, 57
1, 336198, Control_c, 0, 67, 75
1, 336213, Control_c, 0, 64, 60
1, 336228, Control_c, 0, 64, 63
1, 336239, Note_off_c, 0, 47, 63
1, 336243, Control_c, 0, 64, 65
1, 336256, Note_off_c, 0, 35, 59
1, 336257, Control_c, 0, 64, 66
1, 336259, Note_on_c, 0, 64, 57
1, 336272, Control_c, 0, 64, 65
1, 336272, Control_c, 0, 67, 74
1, 336277, Note_on_c, 0, 59, 53
1, 336287, Control_c, 0, 67, 74
1, 336302, Control_c, 0, 67, 73
1, 336312, Note_off_c, 0, 59, 66
1, 336317, Control_c, 0, 64, 65
1, 336317, Control_c, 0, 67, 72
1, 336333, Control_c, 0, 64, 64
1, 336333, Control_c, 0, 67, 70
1, 336346, Note_on_c, 0, 52, 73
1, 336347, Control_c, 0, 64, 64
1, 336347, Control_c, 0, 67, 66
1, 336362, Control_c, 0, 64, 63
1, 336362, Control_c, 0, 67, 61
1, 336370, Note_off_c, 0, 64, 33
1, 336377, Control_c, 0, 64, 62
1, 336377, Control_c, 0, 67, 53
1, 336392, Control_c, 0, 64, 61
1, 336392, Control_c, 0, 67, 43
1, 336395, Note_on_c, 0, 59, 51
1, 336397, Note_off_c, 0, 52, 63
1, 336399, Note_on_c, 0, 31, 64
1, 336406, Note_on_c, 0, 43, 65
1, 336407, Control_c, 0, 64, 60
1, 336407, Control_c, 0, 67, 31
1, 336421, Control_c, 0, 64, 58
1, 336421, Control_c, 0, 67, 19
1, 336426, Note_on_c, 0, 63, 57
1, 336436, Control_c, 0, 64, 56
1, 336436, Control_c, 0, 67, 0
1, 336451, Control_c, 0, 64, 54
1, 336453, Note_off_c, 0, 31, 48
1, 336453, Note_off_c, 0, 59, 63
1, 336466, Control_c, 0, 64, 54
1, 336468, Note_on_c, 0, 64, 60
1, 336476, Note_off_c, 0, 43, 58
1, 336480, Control_c, 0, 64, 54
1, 336503, Control_c, 0, 64, 55
1, 336517, Note_off_c, 0, 64, 64
1, 336518, Control_c, 0, 64, 57
1, 336525, Note_off_c, 0, 63, 63
1, 336533, Control_c, 0, 64, 59
1, 336548, Control_c, 0, 64, 60
1, 336552, Note_on_c, 0, 71, 58
1, 336562, Control_c, 0, 64, 61
1, 336565, Note_on_c, 0, 72, 54
1, 336577, Control_c, 0, 64, 62
1, 336589, Note_off_c, 0, 72, 40
1, 336601, Note_off_c, 0, 71, 63
1, 336607, Control_c, 0, 64, 61
1, 336614, Note_on_c, 0, 66, 78
1, 336626, Note_on_c, 0, 47, 61
1, 336635, Note_on_c, 0, 35, 59
1, 336666, Note_off_c, 0, 47, 61
1, 336666, Control_c, 0, 64, 61
1, 336671, Note_off_c, 0, 66, 62
1, 336705, Note_on_c, 0, 52, 75
1, 336721, Note_off_c, 0, 35, 48
1, 336750, Note_off_c, 0, 52, 62
1, 336757, Note_on_c, 0, 59, 63
1, 336823, Note_on_c, 0, 64, 59
1, 336832, Note_off_c, 0, 59, 62
1, 336833, Note_on_c, 0, 31, 67
1, 336833, Note_on_c, 0, 43, 65
1, 336874, Note_off_c, 0, 64, 63
1, 336885, Note_off_c, 0, 31, 57
1, 336894, Note_on_c, 0, 71, 72
1, 336903, Control_c, 0, 64, 61
1, 336914, Note_off_c, 0, 43, 61
1, 336933, Control_c, 0, 64, 61
1, 336948, Control_c, 0, 64, 59
1, 336963, Control_c, 0, 64, 57
1, 336966, Note_off_c, 0, 71, 51
1, 336978, Control_c, 0, 64, 54
1, 336990, Note_on_c, 0, 57, 59
1, 336990, Note_on_c, 0, 59, 48
1, 336993, Control_c, 0, 64, 54
1, 337008, Control_c, 0, 64, 54
1, 337013, Note_off_c, 0, 57, 63
1, 337018, Note_on_c, 0, 47, 72
1, 337023, Control_c, 0, 64, 56
1, 337030, Note_off_c, 0, 59, 64
1, 337034, Note_on_c, 0, 35, 59
1, 337034, Note_on_c, 0, 66, 64
1, 337037, Control_c, 0, 64, 58
1, 337052, Control_c, 0, 64, 60
1, 337066, Note_off_c, 0, 47, 59
1, 337067, Control_c, 0, 64, 62
1, 337081, Control_c, 0, 64, 63
1, 337091, Note_off_c, 0, 66, 60
1, 337094, Note_on_c, 0, 67, 68
1, 337096, Control_c, 0, 64, 64
1, 337111, Control_c, 0, 64, 63
1, 337136, Note_off_c, 0, 35, 44
1, 337157, Control_c, 0, 64, 63
1, 337158, Note_on_c, 0, 71, 75
1, 337163, Note_off_c, 0, 67, 64
1, 337198, Note_off_c, 0, 71, 63
1, 337226, Note_on_c, 0, 31, 70
1, 337228, Note_on_c, 0, 43, 64
1, 337231, Note_on_c, 0, 64, 75
1, 337252, Control_c, 0, 64, 63
1, 337270, Note_off_c, 0, 64, 66
1, 337300, Note_on_c, 0, 71, 63
1, 337300, Note_off_c, 0, 31, 50
1, 337312, Control_c, 0, 64, 62
1, 337315, Note_off_c, 0, 43, 56
1, 337327, Control_c, 0, 64, 60
1, 337342, Control_c, 0, 64, 57
1, 337356, Control_c, 0, 64, 54
1, 337358, Note_off_c, 0, 71, 64
1, 337367, Note_on_c, 0, 77, 63
1, 337371, Note_on_c, 0, 76, 63
1, 337371, Control_c, 0, 64, 53
1, 337384, Note_off_c, 0, 77, 67
1, 337386, Control_c, 0, 64, 54
1, 337390, Note_off_c, 0, 76, 62
1, 337401, Control_c, 0, 64, 56
1, 337416, Control_c, 0, 64, 59
1, 337431, Control_c, 0, 64, 62
1, 337437, Note_on_c, 0, 47, 77
1, 337445, Note_on_c, 0, 35, 69
1, 337446, Control_c, 0, 64, 66
1, 337460, Control_c, 0, 64, 70
1, 337467, Note_off_c, 0, 47, 67
1, 337475, Control_c, 0, 64, 72
1, 337491, Note_off_c, 0, 35, 62
1, 337519, Control_c, 0, 64, 72
1, 337542, Note_on_c, 0, 67, 70
1, 337546, Note_on_c, 0, 62, 63
1, 337578, Control_c, 0, 64, 72
1, 337592, Note_off_c, 0, 62, 57
1, 337597, Note_on_c, 0, 55, 71
1, 337620, Note_on_c, 0, 57, 49
1, 337622, Control_c, 0, 64, 71
1, 337637, Control_c, 0, 64, 70
1, 337647, Note_off_c, 0, 55, 61
1, 337647, Note_off_c, 0, 57, 59
1, 337652, Note_on_c, 0, 28, 71
1, 337652, Control_c, 0, 64, 68
1, 337654, Note_on_c, 0, 40, 74
1, 337658, Note_on_c, 0, 62, 58
1, 337666, Control_c, 0, 64, 64
1, 337669, Note_off_c, 0, 67, 48
1, 337678, Note_off_c, 0, 28, 64
1, 337680, Note_on_c, 0, 66, 80
1, 337681, Control_c, 0, 64, 62
1, 337686, Note_off_c, 0, 40, 65
1, 337696, Control_c, 0, 64, 61
1, 337710, Note_off_c, 0, 62, 63
1, 337711, Control_c, 0, 64, 60
1, 337726, Control_c, 0, 64, 61
1, 337741, Control_c, 0, 64, 61
1, 337745, Note_on_c, 0, 67, 66
1, 337756, Control_c, 0, 64, 62
1, 337770, Control_c, 0, 64, 62
1, 337785, Note_off_c, 0, 66, 62
1, 337785, Control_c, 0, 64, 63
1, 337800, Note_off_c, 0, 67, 65
1, 337815, Control_c, 0, 64, 63
1, 337827, Note_on_c, 0, 74, 63
1, 337829, Control_c, 0, 64, 64
1, 337833, Note_on_c, 0, 72, 67
1, 337842, Note_on_c, 0, 35, 71
1, 337844, Control_c, 0, 64, 65
1, 337845, Note_on_c, 0, 47, 61
1, 337866, Note_off_c, 0, 74, 66
1, 337869, Note_off_c, 0, 47, 61
1, 337869, Note_off_c, 0, 72, 66
1, 337872, Note_off_c, 0, 35, 63
1, 337874, Control_c, 0, 64, 65
1, 337884, Note_on_c, 0, 69, 61
1, 337889, Control_c, 0, 64, 65
1, 337926, Note_off_c, 0, 69, 64
1, 337934, Control_c, 0, 64, 64
1, 337958, Note_on_c, 0, 56, 79
1, 338000, Control_c, 0, 64, 65
1, 338009, Note_on_c, 0, 62, 68
1, 338025, Note_off_c, 0, 56, 61
1, 338045, Control_c, 0, 64, 64
1, 338060, Control_c, 0, 64, 63
1, 338075, Control_c, 0, 64, 62
1, 338078, Note_off_c, 0, 62, 60
1, 338088, Note_on_c, 0, 28, 61
1, 338090, Control_c, 0, 64, 61
1, 338093, Note_on_c, 0, 40, 68
1, 338096, Note_on_c, 0, 68, 80
1, 338120, Control_c, 0, 64, 62
1, 338122, Note_off_c, 0, 28, 63
1, 338134, Control_c, 0, 64, 62
1, 338134, Note_off_c, 0, 40, 62
1, 338160, Note_on_c, 0, 70, 15
1, 338160, Note_on_c, 0, 74, 83
1, 338164, Control_c, 0, 64, 63
1, 338173, Note_off_c, 0, 68, 64
1, 338203, Note_off_c, 0, 70, 29
1, 338225, Note_on_c, 0, 62, 72
1, 338238, Control_c, 0, 64, 62
1, 338241, Note_off_c, 0, 74, 40
1, 338254, Note_on_c, 0, 35, 71
1, 338259, Note_on_c, 0, 47, 60
1, 338282, Note_off_c, 0, 47, 59
1, 338283, Note_off_c, 0, 35, 62
1, 338283, Note_off_c, 0, 62, 62
1, 338292, Note_on_c, 0, 70, 77
1, 338297, Control_c, 0, 64, 63
1, 338312, Control_c, 0, 64, 63
1, 338326, Control_c, 0, 64, 64
1, 338341, Control_c, 0, 64, 64
1, 338343, Note_on_c, 0, 71, 74
1, 338349, Note_off_c, 0, 70, 62
1, 338356, Control_c, 0, 64, 65
1, 338371, Control_c, 0, 64, 64
1, 338386, Control_c, 0, 64, 64
1, 338400, Control_c, 0, 64, 63
1, 338411, Note_on_c, 0, 74, 88
1, 338423, Note_off_c, 0, 71, 64
1, 338447, Note_on_c, 0, 28, 64
1, 338450, Note_off_c, 0, 74, 65
1, 338459, Note_on_c, 0, 40, 72
1, 338459, Control_c, 0, 64, 64
1, 338480, Note_off_c, 0, 28, 64
1, 338491, Note_off_c, 0, 40, 64
1, 338492, Note_on_c, 0, 68, 83
1, 338554, Note_on_c, 0, 74, 78
1, 338557, Note_off_c, 0, 68, 58
1, 338579, Control_c, 0, 64, 64
1, 338623, Control_c, 0, 64, 65
1, 338633, Note_on_c, 0, 80, 81
1, 338635, Note_off_c, 0, 74, 63
1, 338638, Control_c, 0, 64, 65
1, 338652, Control_c, 0, 64, 66
1, 338682, Control_c, 0, 64, 65
1, 338683, Note_on_c, 0, 39, 70
1, 338697, Control_c, 0, 64, 61
1, 338712, Control_c, 0, 64, 52
1, 338728, Control_c, 0, 64, 36
1, 338749, Note_off_c, 0, 80, 61
1, 338749, Control_c, 0, 64, 0
1, 338769, Note_on_c, 0, 51, 76
1, 338783, Note_on_c, 0, 68, 78
1, 338794, Control_c, 0, 64, 41
1, 338809, Control_c, 0, 64, 56
1, 338811, Note_off_c, 0, 39, 61
1, 338823, Control_c, 0, 64, 65
1, 338838, Control_c, 0, 64, 71
1, 338853, Control_c, 0, 64, 77
1, 338862, Note_off_c, 0, 51, 62
1, 338868, Control_c, 0, 64, 81
1, 338883, Control_c, 0, 64, 83
1, 338889, Note_off_c, 0, 68, 60
1, 338897, Note_on_c, 0, 80, 76
1, 338898, Control_c, 0, 64, 85
1, 338912, Control_c, 0, 64, 86
1, 338927, Control_c, 0, 64, 88
1, 338942, Control_c, 0, 64, 90
1, 338952, Note_on_c, 0, 78, 56
1, 338957, Control_c, 0, 64, 92
1, 338987, Control_c, 0, 64, 89
1, 339002, Control_c, 0, 64, 80
1, 339012, Note_off_c, 0, 80, 58
1, 339014, Note_on_c, 0, 56, 77
1, 339017, Note_on_c, 0, 76, 73
1, 339017, Control_c, 0, 64, 72
1, 339019, Note_on_c, 0, 51, 65
1, 339031, Control_c, 0, 64, 69
1, 339061, Control_c, 0, 64, 70
1, 339075, Control_c, 0, 64, 73
1, 339084, Note_off_c, 0, 78, 61
1, 339085, Note_on_c, 0, 73, 67
1, 339090, Control_c, 0, 64, 77
1, 339091, Note_off_c, 0, 76, 62
1, 339105, Control_c, 0, 64, 83
1, 339120, Control_c, 0, 64, 88
1, 339132, Note_off_c, 0, 73, 61
1, 339136, Control_c, 0, 64, 89
1, 339141, Note_on_c, 0, 71, 69
1, 339150, Control_c, 0, 64, 88
1, 339165, Control_c, 0, 64, 79
1, 339180, Control_c, 0, 64, 70
1, 339191, Note_off_c, 0, 71, 62
1, 339195, Control_c, 0, 64, 64
1, 339206, Note_on_c, 0, 58, 76
1, 339207, Note_on_c, 0, 75, 77
1, 339210, Control_c, 0, 64, 62
1, 339211, Note_off_c, 0, 56, 60
1, 339224, Control_c, 0, 64, 63
1, 339239, Control_c, 0, 64, 65
1, 339254, Control_c, 0, 64, 68
1, 339268, Control_c, 0, 64, 73
1, 339276, Note_on_c, 0, 70, 50
1, 339283, Control_c, 0, 64, 79
1, 339296, Note_off_c, 0, 75, 62
1, 339298, Control_c, 0, 64, 85
1, 339310, Note_off_c, 0, 70, 62
1, 339313, Control_c, 0, 64, 90
1, 339318, Note_on_c, 0, 68, 72
1, 339328, Control_c, 0, 64, 92
1, 339340, Note_off_c, 0, 68, 70
1, 339351, Note_off_c, 0, 58, 62
1, 339357, Control_c, 0, 64, 86
1, 339372, Control_c, 0, 64, 75
1, 339387, Control_c, 0, 64, 65
1, 339390, Note_on_c, 0, 59, 64
1, 339394, Note_on_c, 0, 71, 82
1, 339401, Control_c, 0, 64, 59
1, 339416, Control_c, 0, 64, 58
1, 339431, Control_c, 0, 64, 59
1, 339446, Control_c, 0, 64, 63
1, 339454, Note_on_c, 0, 64, 58
1, 339461, Control_c, 0, 64, 68
1, 339476, Control_c, 0, 64, 74
1, 339480, Note_off_c, 0, 51, 54
1, 339498, Control_c, 0, 64, 82
1, 339507, Note_off_c, 0, 71, 57
1, 339513, Control_c, 0, 64, 90
1, 339524, Note_on_c, 0, 63, 67
1, 339529, Control_c, 0, 64, 99
1, 339537, Note_off_c, 0, 64, 61
1, 339544, Control_c, 0, 64, 117
1, 339552, Note_off_c, 0, 63, 67
1, 339559, Control_c, 0, 64, 127
1, 339618, Control_c, 0, 64, 95
1, 339632, Note_off_c, 0, 59, 62
1, 339633, Note_on_c, 0, 63, 61
1, 339633, Control_c, 0, 64, 76
1, 339637, Note_on_c, 0, 71, 66
1, 339647, Control_c, 0, 64, 63
1, 339654, Note_on_c, 0, 51, 59
1, 339662, Control_c, 0, 64, 50
1, 339677, Control_c, 0, 64, 44
1, 339692, Control_c, 0, 64, 43
1, 339705, Note_off_c, 0, 63, 62
1, 339706, Control_c, 0, 64, 47
1, 339706, Control_c, 0, 67, 19
1, 339711, Note_off_c, 0, 71, 61
1, 339721, Control_c, 0, 64, 54
1, 339721, Control_c, 0, 67, 22
1, 339731, Note_on_c, 0, 67, 53
1, 339736, Control_c, 0, 64, 60
1, 339751, Control_c, 0, 64, 66
1, 339751, Control_c, 0, 67, 25
1, 339765, Control_c, 0, 64, 73
1, 339765, Control_c, 0, 67, 27
1, 339780, Control_c, 0, 64, 79
1, 339780, Control_c, 0, 67, 29
1, 339795, Control_c, 0, 64, 83
1, 339795, Control_c, 0, 67, 32
1, 339801, Note_on_c, 0, 61, 55
1, 339810, Control_c, 0, 64, 86
1, 339810, Control_c, 0, 67, 34
1, 339825, Control_c, 0, 64, 89
1, 339825, Control_c, 0, 67, 38
1, 339831, Note_off_c, 0, 67, 53
1, 339840, Control_c, 0, 64, 92
1, 339840, Control_c, 0, 67, 43
1, 339848, Note_off_c, 0, 61, 42
1, 339854, Control_c, 0, 64, 93
1, 339854, Control_c, 0, 67, 48
1, 339869, Control_c, 0, 67, 55
1, 339871, Note_on_c, 0, 70, 63
1, 339884, Control_c, 0, 67, 60
1, 339899, Control_c, 0, 67, 65
1, 339914, Control_c, 0, 67, 68
1, 339929, Control_c, 0, 67, 71
1, 339944, Control_c, 0, 67, 73
1, 339959, Control_c, 0, 67, 75
1, 339961, Note_on_c, 0, 67, 45
1, 339973, Control_c, 0, 64, 93
1, 339973, Control_c, 0, 67, 76
1, 339988, Control_c, 0, 64, 94
1, 339988, Control_c, 0, 67, 78
1, 339992, Note_off_c, 0, 70, 58
1, 340003, Control_c, 0, 64, 96
1, 340003, Control_c, 0, 67, 80
1, 340017, Control_c, 0, 64, 99
1, 340017, Control_c, 0, 67, 81
1, 340030, Note_on_c, 0, 61, 37
1, 340032, Control_c, 0, 64, 102
1, 340032, Control_c, 0, 67, 81
1, 340047, Control_c, 0, 67, 82
1, 340054, Note_off_c, 0, 67, 41
1, 340062, Control_c, 0, 64, 100
1, 340066, Note_off_c, 0, 61, 54
1, 340077, Control_c, 0, 64, 85
1, 340091, Control_c, 0, 64, 69
1, 340091, Control_c, 0, 67, 82
1, 340106, Control_c, 0, 64, 57
1, 340121, Control_c, 0, 64, 46
1, 340126, Note_on_c, 0, 68, 59
1, 340129, Note_on_c, 0, 44, 50
1, 340136, Control_c, 0, 64, 41
1, 340136, Control_c, 0, 67, 83
1, 340151, Control_c, 0, 64, 41
1, 340165, Control_c, 0, 64, 46
1, 340165, Control_c, 0, 67, 83
1, 340180, Control_c, 0, 64, 54
1, 340180, Control_c, 0, 67, 84
1, 340195, Control_c, 0, 64, 61
1, 340195, Control_c, 0, 67, 86
1, 340202, Note_on_c, 0, 63, 41
1, 340210, Control_c, 0, 64, 67
1, 340210, Control_c, 0, 67, 89
1, 340224, Control_c, 0, 64, 76
1, 340224, Control_c, 0, 67, 91
1, 340225, Note_off_c, 0, 44, 64
1, 340247, Control_c, 0, 64, 86
1, 340247, Control_c, 0, 67, 91
1, 340259, Note_off_c, 0, 63, 45
1, 340262, Control_c, 0, 64, 99
1, 340277, Control_c, 0, 64, 117
1, 340282, Note_off_c, 0, 51, 60
1, 340292, Control_c, 0, 64, 127
1, 340299, Note_off_c, 0, 68, 60
1, 340346, Poly_aftertouch_c, 0, 59, 0
1, 340352, Control_c, 0, 67, 92
1, 340367, Control_c, 0, 67, 92
1, 340371, Poly_aftertouch_c, 0, 59, 0
1, 340411, Control_c, 0, 64, 92
1, 340421, Note_on_c, 0, 80, 89
1, 340426, Control_c, 0, 64, 71
1, 340426, Control_c, 0, 67, 93
1, 340430, Note_on_c, 0, 64, 64
1, 340441, Control_c, 0, 64, 62
1, 340441, Control_c, 0, 67, 95
1, 340455, Control_c, 0, 64, 61
1, 340455, Control_c, 0, 67, 97
1, 340470, Control_c, 0, 64, 64
1, 340470, Control_c, 0, 67, 99
1, 340485, Control_c, 0, 64, 69
1, 340500, Control_c, 0, 64, 78
1, 340500, Control_c, 0, 67, 102
1, 340508, Note_on_c, 0, 73, 54
1, 340515, Control_c, 0, 64, 93
1, 340515, Control_c, 0, 67, 104
1, 340529, Control_c, 0, 64, 127
1, 340559, Control_c, 0, 67, 106
1, 340576, Note_off_c, 0, 73, 58
1, 340585, Note_off_c, 0, 80, 61
1, 340605, Note_on_c, 0, 71, 55
1, 340618, Control_c, 0, 64, 87
1, 340630, Note_off_c, 0, 71, 58
1, 340633, Control_c, 0, 64, 70
1, 340647, Control_c, 0, 64, 63
1, 340658, Note_on_c, 0, 63, 59
1, 340660, Note_on_c, 0, 80, 81
1, 340662, Control_c, 0, 64, 63
1, 340670, Note_off_c, 0, 64, 53
1, 340677, Control_c, 0, 64, 65
1, 340692, Control_c, 0, 64, 69
1, 340707, Control_c, 0, 64, 76
1, 340722, Control_c, 0, 64, 85
1, 340722, Control_c, 0, 67, 108
1, 340732, Note_on_c, 0, 75, 59
1, 340737, Control_c, 0, 64, 100
1, 340752, Control_c, 0, 64, 127
1, 340752, Control_c, 0, 67, 111
1, 340761, Note_off_c, 0, 80, 61
1, 340767, Control_c, 0, 67, 114
1, 340791, Note_off_c, 0, 75, 62
1, 340793, Note_on_c, 0, 71, 50
1, 340796, Control_c, 0, 67, 116
1, 340832, Note_off_c, 0, 71, 61
1, 340840, Control_c, 0, 64, 93
1, 340855, Control_c, 0, 64, 71
1, 340861, Note_off_c, 0, 63, 54
1, 340870, Control_c, 0, 64, 63
1, 340879, Note_on_c, 0, 61, 42
1, 340885, Control_c, 0, 64, 61
1, 340893, Note_on_c, 0, 75, 66
1, 340900, Control_c, 0, 64, 62
1, 340915, Control_c, 0, 64, 64
1, 340929, Control_c, 0, 64, 68
1, 340944, Control_c, 0, 64, 74
1, 340959, Control_c, 0, 64, 84
1, 340970, Note_on_c, 0, 70, 44
1, 340973, Control_c, 0, 64, 93
1, 340973, Control_c, 0, 67, 118
1, 340996, Control_c, 0, 64, 100
1, 341008, Note_off_c, 0, 75, 59
1, 341011, Control_c, 0, 64, 114
1, 341026, Control_c, 0, 64, 127
1, 341037, Note_off_c, 0, 70, 50
1, 341038, Note_on_c, 0, 67, 50
1, 341045, Note_off_c, 0, 61, 60
1, 341070, Control_c, 0, 64, 101
1, 341080, Note_off_c, 0, 67, 60
1, 341085, Control_c, 0, 64, 77
1, 341100, Control_c, 0, 64, 64
1, 341115, Control_c, 0, 64, 57
1, 341116, Note_on_c, 0, 59, 42
1, 341130, Control_c, 0, 64, 57
1, 341134, Note_on_c, 0, 75, 51
1, 341145, Control_c, 0, 64, 59
1, 341160, Control_c, 0, 64, 64
1, 341175, Control_c, 0, 64, 69
1, 341190, Control_c, 0, 64, 78
1, 341205, Note_on_c, 0, 68, 45
1, 341205, Control_c, 0, 64, 92
1, 341219, Control_c, 0, 64, 110
1, 341234, Control_c, 0, 64, 127
1, 341284, Note_on_c, 0, 63, 46
1, 341292, Note_off_c, 0, 59, 35
1, 341293, Note_off_c, 0, 68, 48
1, 341293, Control_c, 0, 64, 88
1, 341308, Control_c, 0, 64, 72
1, 341312, Note_on_c, 0, 51, 42
1, 341323, Control_c, 0, 64, 64
1, 341338, Control_c, 0, 64, 62
1, 341352, Control_c, 0, 64, 64
1, 341367, Control_c, 0, 64, 67
1, 341372, Note_off_c, 0, 63, 39
1, 341381, Control_c, 0, 64, 73
1, 341384, Note_on_c, 0, 71, 49
1, 341396, Control_c, 0, 64, 81
1, 341410, Control_c, 0, 64, 88
1, 341425, Control_c, 0, 64, 90
1, 341440, Control_c, 0, 64, 91
1, 341455, Control_c, 0, 64, 94
1, 341462, Note_on_c, 0, 68, 45
1, 341470, Control_c, 0, 64, 96
1, 341470, Note_off_c, 0, 75, 29
1, 341473, Note_on_c, 0, 44, 51
1, 341485, Control_c, 0, 64, 100
1, 341491, Note_off_c, 0, 51, 56
1, 341500, Control_c, 0, 64, 107
1, 341508, Note_off_c, 0, 44, 65
1, 341515, Control_c, 0, 64, 127
1, 341553, Note_on_c, 0, 63, 52
1, 341581, Note_off_c, 0, 63, 61
1, 341603, Control_c, 0, 64, 103
1, 341618, Control_c, 0, 64, 75
1, 341618, Control_c, 0, 67, 116
1, 341633, Control_c, 0, 64, 65
1, 341648, Control_c, 0, 64, 64
1, 341662, Note_on_c, 0, 44, 80
1, 341662, Control_c, 0, 64, 68
1, 341663, Note_on_c, 0, 32, 77
1, 341677, Control_c, 0, 64, 76
1, 341687, Note_off_c, 0, 32, 66
1, 341691, Note_off_c, 0, 44, 69
1, 341692, Control_c, 0, 64, 87
1, 341707, Control_c, 0, 64, 103
1, 341722, Control_c, 0, 64, 127
1, 341769, Note_off_c, 0, 68, 36
1, 341771, Note_off_c, 0, 71, 38
1, 341774, Control_c, 0, 64, 116
1, 341789, Control_c, 0, 64, 110
1, 341828, Note_on_c, 0, 69, 67
1, 341833, Note_on_c, 0, 52, 76
1, 341841, Note_on_c, 0, 40, 68
1, 341863, Note_off_c, 0, 52, 66
1, 341863, Control_c, 0, 67, 114
1, 341870, Note_off_c, 0, 40, 63
1, 341895, Note_on_c, 0, 61, 64
1, 341902, Note_off_c, 0, 69, 60
1, 341907, Control_c, 0, 64, 112
1, 341923, Control_c, 0, 64, 114
1, 341938, Control_c, 0, 64, 120
1, 341953, Control_c, 0, 64, 127
1, 341953, Note_off_c, 0, 61, 54
1, 341963, Note_on_c, 0, 57, 83
1, 341963, Note_on_c, 0, 68, 62
1, 341973, Note_on_c, 0, 45, 76
1, 341994, Note_off_c, 0, 57, 64
1, 341999, Note_on_c, 0, 69, 58
1, 342001, Note_off_c, 0, 45, 65
1, 342057, Control_c, 0, 64, 110
1, 342061, Note_off_c, 0, 68, 40
1, 342070, Note_on_c, 0, 73, 72
1, 342072, Control_c, 0, 64, 73
1, 342078, Note_off_c, 0, 69, 59
1, 342087, Control_c, 0, 64, 58
1, 342101, Control_c, 0, 64, 52
1, 342108, Note_on_c, 0, 64, 80
1, 342112, Note_on_c, 0, 52, 81
1, 342116, Control_c, 0, 64, 59
1, 342117, Note_on_c, 0, 71, 66
1, 342132, Control_c, 0, 64, 67
1, 342141, Note_off_c, 0, 64, 64
1, 342144, Note_off_c, 0, 73, 64
1, 342144, Note_off_c, 0, 52, 66
1, 342147, Control_c, 0, 64, 77
1, 342162, Control_c, 0, 64, 115
1, 342171, Note_off_c, 0, 71, 61
1, 342176, Control_c, 0, 64, 127
1, 342176, Control_c, 0, 67, 112
1, 342185, Note_on_c, 0, 61, 64
1, 342206, Control_c, 0, 67, 110
1, 342215, Note_off_c, 0, 61, 64
1, 342220, Control_c, 0, 67, 108
1, 342221, Poly_aftertouch_c, 0, 54, 0
1, 342250, Control_c, 0, 67, 106
1, 342266, Note_on_c, 0, 69, 64
1, 342294, Control_c, 0, 67, 104
1, 342322, Note_on_c, 0, 73, 68
1, 342324, Control_c, 0, 67, 98
1, 342330, Note_on_c, 0, 64, 78
1, 342331, Note_on_c, 0, 57, 76
1, 342333, Note_on_c, 0, 52, 76
1, 342339, Control_c, 0, 64, 101
1, 342339, Control_c, 0, 67, 91
1, 342352, Note_off_c, 0, 69, 58
1, 342354, Control_c, 0, 64, 79
1, 342354, Control_c, 0, 67, 83
1, 342368, Control_c, 0, 64, 73
1, 342368, Control_c, 0, 67, 73
1, 342383, Control_c, 0, 64, 75
1, 342383, Control_c, 0, 67, 63
1, 342391, Note_on_c, 0, 76, 80
1, 342397, Note_off_c, 0, 64, 62
1, 342398, Control_c, 0, 64, 80
1, 342398, Control_c, 0, 67, 51
1, 342412, Control_c, 0, 64, 88
1, 342412, Control_c, 0, 67, 38
1, 342424, Note_off_c, 0, 73, 63
1, 342427, Control_c, 0, 64, 100
1, 342427, Control_c, 0, 67, 24
1, 342442, Control_c, 0, 64, 117
1, 342442, Control_c, 0, 67, 0
1, 342445, Note_on_c, 0, 64, 57
1, 342457, Control_c, 0, 64, 127
1, 342462, Note_off_c, 0, 76, 61
1, 342475, Note_on_c, 0, 65, 40
1, 342509, Note_off_c, 0, 64, 62
1, 342514, Note_off_c, 0, 65, 33
1, 342538, Note_on_c, 0, 71, 72
1, 342558, Note_on_c, 0, 73, 79
1, 342587, Note_off_c, 0, 52, 55
1, 342608, Note_off_c, 0, 71, 63
1, 342624, Note_on_c, 0, 76, 79
1, 342642, Note_off_c, 0, 73, 61
1, 342655, Note_off_c, 0, 57, 41
1, 342659, Note_off_c, 0, 76, 63
1, 342698, Note_on_c, 0, 69, 69
1, 342713, Note_on_c, 0, 52, 77
1, 342719, Note_on_c, 0, 57, 63
1, 342720, Note_on_c, 0, 64, 72
1, 342732, Note_off_c, 0, 69, 61
1, 342741, Note_off_c, 0, 64, 71
1, 342754, Note_off_c, 0, 57, 65
1, 342755, Note_on_c, 0, 73, 76
1, 342766, Note_off_c, 0, 52, 63
1, 342819, Note_on_c, 0, 81, 81
1, 342832, Note_off_c, 0, 73, 61
1, 342889, Note_off_c, 0, 81, 64
1, 342895, Control_c, 0, 64, 96
1, 342910, Control_c, 0, 64, 69
1, 342925, Control_c, 0, 64, 56
1, 342940, Note_on_c, 0, 80, 86
1, 342940, Control_c, 0, 64, 51
1, 342949, Note_on_c, 0, 73, 75
1, 342952, Note_on_c, 0, 32, 78
1, 342954, Note_on_c, 0, 44, 80
1, 342955, Control_c, 0, 64, 56
1, 342969, Control_c, 0, 64, 62
1, 342975, Note_off_c, 0, 32, 65
1, 342980, Note_off_c, 0, 44, 65
1, 342984, Control_c, 0, 64, 67
1, 342999, Control_c, 0, 64, 76
1, 343014, Control_c, 0, 64, 88
1, 343020, Note_off_c, 0, 80, 64
1, 343029, Control_c, 0, 64, 97
1, 343047, Note_on_c, 0, 70, 72
1, 343051, Note_on_c, 0, 80, 60
1, 343071, Note_off_c, 0, 73, 35
1, 343083, Note_off_c, 0, 70, 56
1, 343088, Control_c, 0, 64, 96
1, 343098, Note_on_c, 0, 52, 78
1, 343100, Note_on_c, 0, 40, 78
1, 343124, Note_on_c, 0, 73, 67
1, 343128, Note_off_c, 0, 40, 64
1, 343130, Note_off_c, 0, 52, 63
1, 343157, Note_on_c, 0, 78, 72
1, 343161, Note_off_c, 0, 80, 63
1, 343176, Control_c, 0, 64, 99
1, 343191, Control_c, 0, 64, 103
1, 343205, Note_off_c, 0, 73, 62
1, 343206, Control_c, 0, 64, 115
1, 343221, Control_c, 0, 64, 127
1, 343241, Note_on_c, 0, 79, 62
1, 343249, Note_on_c, 0, 58, 78
1, 343259, Note_on_c, 0, 46, 60
1, 343273, Note_off_c, 0, 58, 70
1, 343285, Note_off_c, 0, 46, 64
1, 343297, Note_off_c, 0, 78, 55
1, 343297, Note_off_c, 0, 79, 61
1, 343309, Note_on_c, 0, 82, 84
1, 343332, Control_c, 0, 64, 76
1, 343347, Control_c, 0, 64, 55
1, 343362, Control_c, 0, 64, 43
1, 343376, Control_c, 0, 64, 44
1, 343386, Note_on_c, 0, 64, 80
1, 343390, Note_on_c, 0, 80, 86
1, 343391, Control_c, 0, 64, 51
1, 343393, Note_on_c, 0, 58, 69
1, 343393, Note_on_c, 0, 52, 74
1, 343406, Control_c, 0, 64, 59
1, 343410, Note_off_c, 0, 64, 66
1, 343417, Note_off_c, 0, 82, 61
1, 343418, Note_off_c, 0, 58, 69
1, 343421, Note_off_c, 0, 52, 67
1, 343421, Control_c, 0, 64, 64
1, 343436, Control_c, 0, 64, 70
1, 343450, Control_c, 0, 64, 81
1, 343452, Note_off_c, 0, 80, 60
1, 343455, Note_on_c, 0, 70, 80
1, 343465, Control_c, 0, 64, 88
1, 343480, Control_c, 0, 64, 91
1, 343494, Note_off_c, 0, 70, 62
1, 343495, Control_c, 0, 64, 92
1, 343510, Control_c, 0, 64, 94
1, 343526, Control_c, 0, 64, 95
1, 343540, Control_c, 0, 64, 94
1, 343551, Note_on_c, 0, 79, 86
1, 343555, Control_c, 0, 64, 84
1, 343570, Control_c, 0, 64, 72
1, 343584, Control_c, 0, 64, 62
1, 343595, Note_on_c, 0, 64, 66
1, 343598, Note_on_c, 0, 58, 69
1, 343599, Control_c, 0, 64, 56
1, 343602, Note_on_c, 0, 52, 62
1, 343608, Note_on_c, 0, 76, 81
1, 343614, Control_c, 0, 64, 56
1, 343629, Control_c, 0, 64, 58
1, 343637, Note_off_c, 0, 79, 66
1, 343644, Control_c, 0, 64, 62
1, 343659, Control_c, 0, 64, 67
1, 343673, Control_c, 0, 64, 73
1, 343681, Note_on_c, 0, 67, 76
1, 343687, Note_off_c, 0, 76, 63
1, 343688, Control_c, 0, 64, 79
1, 343703, Control_c, 0, 64, 81
1, 343718, Control_c, 0, 64, 82
1, 343727, Note_off_c, 0, 67, 60
1, 343733, Control_c, 0, 64, 82
1, 343740, Note_on_c, 0, 75, 78
1, 343747, Control_c, 0, 64, 83
1, 343792, Control_c, 0, 64, 83
1, 343807, Control_c, 0, 64, 84
1, 343813, Note_on_c, 0, 73, 80
1, 343822, Control_c, 0, 64, 86
1, 343837, Control_c, 0, 64, 88
1, 343843, Note_off_c, 0, 75, 63
1, 343852, Control_c, 0, 64, 92
1, 343864, Note_off_c, 0, 73, 64
1, 343866, Control_c, 0, 64, 98
1, 343871, Note_off_c, 0, 52, 60
1, 343876, Note_on_c, 0, 67, 75
1, 343881, Control_c, 0, 64, 107
1, 343887, Note_off_c, 0, 64, 56
1, 343891, Note_off_c, 0, 58, 60
1, 343896, Control_c, 0, 64, 116
1, 343918, Note_off_c, 0, 67, 59
1, 343926, Control_c, 0, 64, 98
1, 343940, Control_c, 0, 64, 78
1, 343943, Note_on_c, 0, 73, 71
1, 343955, Control_c, 0, 64, 67
1, 343970, Control_c, 0, 64, 62
1, 343992, Control_c, 0, 64, 62
1, 344007, Note_on_c, 0, 75, 78
1, 344007, Control_c, 0, 64, 64
1, 344014, Note_on_c, 0, 52, 54
1, 344021, Note_on_c, 0, 64, 52
1, 344022, Control_c, 0, 64, 67
1, 344023, Note_on_c, 0, 58, 56
1, 344035, Note_off_c, 0, 73, 63
1, 344037, Control_c, 0, 64, 72
1, 344052, Control_c, 0, 64, 84
1, 344066, Control_c, 0, 64, 102
1, 344070, Note_off_c, 0, 75, 59
1, 344078, Note_off_c, 0, 52, 58
1, 344081, Control_c, 0, 64, 127
1, 344082, Note_on_c, 0, 67, 60
1, 344090, Note_off_c, 0, 64, 60
1, 344109, Note_off_c, 0, 67, 66
1, 344126, Control_c, 0, 64, 92
1, 344138, Note_on_c, 0, 75, 61
1, 344140, Control_c, 0, 64, 65
1, 344155, Control_c, 0, 64, 48
1, 344170, Control_c, 0, 64, 31
1, 344171, Note_off_c, 0, 58, 60
1, 344185, Control_c, 0, 64, 0
1, 344199, Control_c, 0, 64, 32
1, 344210, Note_off_c, 0, 75, 62
1, 344214, Control_c, 0, 64, 48
1, 344214, Control_c, 0, 67, 24
1, 344216, Note_on_c, 0, 71, 77
1, 344217, Note_on_c, 0, 63, 69
1, 344223, Note_on_c, 0, 68, 75
1, 344224, Note_on_c, 0, 51, 58
1, 344226, Note_on_c, 0, 56, 57
1, 344229, Control_c, 0, 64, 62
1, 344229, Control_c, 0, 67, 30
1, 344236, Note_off_c, 0, 71, 71
1, 344244, Note_off_c, 0, 68, 67
1, 344244, Control_c, 0, 64, 77
1, 344244, Control_c, 0, 67, 38
1, 344247, Note_off_c, 0, 63, 67
1, 344254, Note_off_c, 0, 51, 65
1, 344256, Note_off_c, 0, 56, 63
1, 344259, Control_c, 0, 64, 104
1, 344259, Control_c, 0, 67, 48
1, 344273, Control_c, 0, 64, 127
1, 344273, Control_c, 0, 67, 62
1, 344288, Control_c, 0, 67, 73
1, 344303, Control_c, 0, 67, 83
1, 344319, Control_c, 0, 67, 92
1, 344334, Control_c, 0, 67, 101
1, 344349, Control_c, 0, 67, 110
1, 344363, Control_c, 0, 67, 118
1, 344379, Control_c, 0, 67, 126
1, 344527, Control_c, 0, 64, 89
1, 344542, Control_c, 0, 64, 70
1, 344543, Note_on_c, 0, 57, 59
1, 344543, Note_on_c, 0, 69, 53
1, 344557, Control_c, 0, 64, 61
1, 344560, Note_on_c, 0, 54, 47
1, 344562, Note_on_c, 0, 49, 50
1, 344571, Control_c, 0, 64, 54
1, 344586, Control_c, 0, 64, 51
1, 344601, Control_c, 0, 64, 50
1, 344615, Control_c, 0, 64, 49
1, 344618, Note_on_c, 0, 64, 52
1, 344626, Note_off_c, 0, 57, 57
1, 344630, Control_c, 0, 64, 48
1, 344642, Note_off_c, 0, 54, 57
1, 344660, Control_c, 0, 64, 49
1, 344661, Note_off_c, 0, 69, 37
1, 344675, Control_c, 0, 64, 49
1, 344680, Note_off_c, 0, 64, 62
1, 344698, Note_on_c, 0, 66, 51
1, 344734, Control_c, 0, 64, 50
1, 344756, Note_off_c, 0, 49, 60
1, 344775, Note_on_c, 0, 68, 59
1, 344776, Note_on_c, 0, 59, 56
1, 344788, Note_off_c, 0, 66, 62
1, 344791, Note_on_c, 0, 56, 37
1, 344794, Note_on_c, 0, 44, 53
1, 344800, Note_on_c, 0, 51, 39
1, 344822, Note_off_c, 0, 56, 53
1, 344824, Note_on_c, 0, 63, 63
1, 344834, Note_off_c, 0, 59, 61
1, 344862, Note_off_c, 0, 63, 61
1, 344877, Note_off_c, 0, 68, 34
1, 344889, Note_on_c, 0, 64, 55
1, 344913, Note_off_c, 0, 44, 57
1, 344939, Note_off_c, 0, 51, 61
1, 344952, Note_on_c, 0, 49, 65
1, 344955, Note_on_c, 0, 54, 57
1, 344955, Note_off_c, 0, 64, 63
1, 344956, Note_on_c, 0, 57, 68
1, 344964, Control_c, 0, 64, 49
1, 344970, Note_on_c, 0, 69, 64
1, 344994, Note_off_c, 0, 57, 63
1, 344999, Note_off_c, 0, 54, 60
1, 345023, Control_c, 0, 64, 50
1, 345036, Note_on_c, 0, 63, 8
1, 345040, Note_on_c, 0, 64, 49
1, 345046, Note_off_c, 0, 63, 43
1, 345050, Note_off_c, 0, 69, 63
1, 345077, Note_off_c, 0, 64, 66
1, 345083, Note_on_c, 0, 66, 63
1, 345099, Note_off_c, 0, 49, 59
1, 345131, Note_on_c, 0, 51, 62
1, 345141, Note_on_c, 0, 68, 60
1, 345143, Control_c, 0, 64, 50
1, 345148, Note_on_c, 0, 44, 57
1, 345159, Note_on_c, 0, 59, 35
1, 345160, Note_on_c, 0, 56, 26
1, 345160, Note_off_c, 0, 66, 63
1, 345184, Note_off_c, 0, 59, 58
1, 345187, Control_c, 0, 64, 51
1, 345190, Note_on_c, 0, 63, 68
1, 345193, Note_off_c, 0, 56, 44
1, 345217, Control_c, 0, 64, 50
1, 345232, Note_off_c, 0, 44, 54
1, 345244, Note_on_c, 0, 64, 68
1, 345250, Note_off_c, 0, 63, 61
1, 345307, Note_off_c, 0, 64, 62
1, 345307, Note_off_c, 0, 51, 60
1, 345315, Note_on_c, 0, 49, 58
1, 345324, Note_on_c, 0, 57, 72
1, 345324, Note_off_c, 0, 68, 31
1, 345327, Note_on_c, 0, 69, 72
1, 345330, Note_on_c, 0, 54, 43
1, 345360, Note_off_c, 0, 57, 63
1, 345396, Note_off_c, 0, 54, 61
1, 345399, Note_on_c, 0, 64, 42
1, 345402, Note_off_c, 0, 69, 63
1, 345431, Note_on_c, 0, 66, 67
1, 345453, Control_c, 0, 64, 50
1, 345457, Note_off_c, 0, 64, 62
1, 345509, Note_on_c, 0, 59, 54
1, 345511, Note_on_c, 0, 68, 65
1, 345514, Note_on_c, 0, 51, 59
1, 345519, Note_on_c, 0, 56, 56
1, 345520, Control_c, 0, 64, 51
1, 345522, Note_on_c, 0, 44, 56
1, 345535, Control_c, 0, 64, 53
1, 345536, Note_off_c, 0, 49, 54
1, 345542, Note_off_c, 0, 59, 66
1, 345550, Control_c, 0, 64, 57
1, 345551, Note_off_c, 0, 51, 65
1, 345551, Note_off_c, 0, 56, 63
1, 345562, Note_off_c, 0, 44, 64
1, 345565, Control_c, 0, 64, 60
1, 345567, Note_off_c, 0, 66, 32
1, 345579, Control_c, 0, 64, 64
1, 345587, Note_off_c, 0, 68, 65
1, 345594, Control_c, 0, 64, 67
1, 345596, Note_on_c, 0, 71, 64
1, 345609, Control_c, 0, 64, 68
1, 345653, Control_c, 0, 64, 67
1, 345667, Note_off_c, 0, 71, 62
1, 345668, Control_c, 0, 64, 67
1, 345683, Control_c, 0, 64, 65
1, 345689, Note_on_c, 0, 70, 45
1, 345698, Control_c, 0, 64, 63
1, 345712, Control_c, 0, 64, 59
1, 345727, Control_c, 0, 64, 55
1, 345736, Note_on_c, 0, 68, 62
1, 345741, Note_on_c, 0, 51, 56
1, 345742, Control_c, 0, 64, 50
1, 345748, Note_on_c, 0, 39, 58
1, 345757, Control_c, 0, 64, 47
1, 345763, Note_off_c, 0, 70, 64
1, 345772, Control_c, 0, 64, 45
1, 345801, Control_c, 0, 64, 46
1, 345813, Note_off_c, 0, 68, 64
1, 345816, Control_c, 0, 64, 47
1, 345818, Note_on_c, 0, 64, 55
1, 345831, Control_c, 0, 64, 48
1, 345839, Note_off_c, 0, 64, 62
1, 345846, Control_c, 0, 64, 50
1, 345861, Control_c, 0, 64, 52
1, 345875, Control_c, 0, 64, 55
1, 345890, Note_on_c, 0, 63, 64
1, 345890, Control_c, 0, 64, 59
1, 345905, Control_c, 0, 64, 62
1, 345921, Control_c, 0, 64, 63
1, 345936, Note_off_c, 0, 63, 58
1, 345965, Control_c, 0, 64, 62
1, 345968, Note_on_c, 0, 61, 52
1, 345992, Note_off_c, 0, 39, 60
1, 346002, Note_off_c, 0, 61, 55
1, 346007, Note_off_c, 0, 51, 60
1, 346009, Control_c, 0, 64, 62
1, 346024, Control_c, 0, 64, 61
1, 346027, Note_on_c, 0, 68, 60
1, 346039, Control_c, 0, 64, 61
1, 346054, Control_c, 0, 64, 60
1, 346058, Note_on_c, 0, 66, 54
1, 346068, Control_c, 0, 64, 60
1, 346083, Control_c, 0, 64, 59
1, 346098, Control_c, 0, 64, 59
1, 346111, Note_off_c, 0, 68, 59
1, 346113, Control_c, 0, 64, 58
1, 346115, Note_on_c, 0, 39, 52
1, 346119, Note_on_c, 0, 51, 52
1, 346128, Control_c, 0, 64, 58
1, 346131, Note_on_c, 0, 64, 48
1, 346142, Control_c, 0, 64, 57
1, 346157, Control_c, 0, 64, 56
1, 346169, Note_off_c, 0, 66, 58
1, 346172, Control_c, 0, 64, 56
1, 346180, Note_off_c, 0, 64, 58
1, 346186, Control_c, 0, 64, 55
1, 346199, Note_on_c, 0, 61, 54
1, 346201, Control_c, 0, 64, 54
1, 346216, Control_c, 0, 64, 53
1, 346220, Note_off_c, 0, 39, 47
1, 346239, Note_off_c, 0, 61, 61
1, 346239, Control_c, 0, 64, 51
1, 346254, Note_on_c, 0, 59, 51
1, 346254, Control_c, 0, 64, 49
1, 346268, Control_c, 0, 64, 47
1, 346283, Control_c, 0, 64, 46
1, 346299, Note_off_c, 0, 59, 62
1, 346313, Control_c, 0, 64, 46
1, 346319, Note_on_c, 0, 44, 46
1, 346328, Control_c, 0, 64, 48
1, 346339, Note_on_c, 0, 63, 61
1, 346342, Control_c, 0, 64, 51
1, 346357, Control_c, 0, 64, 54
1, 346372, Control_c, 0, 64, 59
1, 346386, Control_c, 0, 64, 63
1, 346391, Note_off_c, 0, 51, 58
1, 346401, Control_c, 0, 64, 66
1, 346402, Note_on_c, 0, 58, 41
1, 346416, Control_c, 0, 64, 69
1, 346419, Note_off_c, 0, 63, 61
1, 346431, Control_c, 0, 64, 72
1, 346436, Note_off_c, 0, 58, 60
1, 346446, Control_c, 0, 64, 74
1, 346457, Note_on_c, 0, 56, 52
1, 346461, Control_c, 0, 64, 76
1, 346475, Control_c, 0, 64, 77
1, 346489, Note_off_c, 0, 56, 63
1, 346490, Control_c, 0, 64, 77
1, 346532, Note_on_c, 0, 59, 58
1, 346537, Note_off_c, 0, 44, 64
1, 346565, Note_off_c, 0, 59, 63
1, 346601, Note_on_c, 0, 52, 52
1, 346639, Control_c, 0, 64, 78
1, 346654, Control_c, 0, 64, 79
1, 346669, Control_c, 0, 64, 82
1, 346672, Note_on_c, 0, 51, 56
1, 346677, Note_off_c, 0, 52, 63
1, 346684, Control_c, 0, 64, 87
1, 346684, Control_c, 0, 67, 123
1, 346699, Control_c, 0, 64, 94
1, 346699, Control_c, 0, 67, 109
1, 346703, Note_off_c, 0, 51, 65
1, 346714, Control_c, 0, 64, 97
1, 346714, Control_c, 0, 67, 90
1, 346729, Control_c, 0, 64, 93
1, 346729, Control_c, 0, 67, 71
1, 346743, Control_c, 0, 64, 73
1, 346743, Control_c, 0, 67, 51
1, 346758, Control_c, 0, 64, 56
1, 346758, Control_c, 0, 67, 29
1, 346773, Control_c, 0, 64, 29
1, 346773, Control_c, 0, 67, 0
1, 346775, Note_on_c, 0, 33, 73
1, 346782, Note_on_c, 0, 45, 71
1, 346788, Control_c, 0, 64, 0
1, 346818, Control_c, 0, 64, 31
1, 346833, Control_c, 0, 64, 50
1, 346841, Note_off_c, 0, 33, 62
1, 346843, Note_off_c, 0, 45, 63
1, 346848, Control_c, 0, 64, 62
1, 346863, Control_c, 0, 64, 71
1, 346877, Control_c, 0, 64, 81
1, 346892, Control_c, 0, 64, 92
1, 346907, Control_c, 0, 64, 100
1, 346919, Note_on_c, 0, 35, 69
1, 346922, Control_c, 0, 64, 109
1, 346925, Note_on_c, 0, 47, 62
1, 346934, Note_on_c, 0, 63, 62
1, 346936, Control_c, 0, 64, 120
1, 346949, Note_off_c, 0, 35, 63
1, 346951, Control_c, 0, 64, 127
1, 346959, Note_off_c, 0, 47, 65
1, 347013, Note_on_c, 0, 54, 50
1, 347014, Note_off_c, 0, 63, 61
1, 347040, Note_off_c, 0, 54, 58
1, 347074, Note_on_c, 0, 54, 63
1, 347087, Note_on_c, 0, 42, 45
1, 347090, Note_on_c, 0, 61, 42
1, 347108, Note_on_c, 0, 63, 54
1, 347115, Note_off_c, 0, 54, 61
1, 347118, Note_off_c, 0, 42, 57
1, 347122, Note_off_c, 0, 61, 52
1, 347166, Control_c, 0, 64, 114
1, 347173, Note_on_c, 0, 66, 68
1, 347181, Control_c, 0, 64, 74
1, 347196, Control_c, 0, 64, 59
1, 347202, Note_on_c, 0, 59, 76
1, 347210, Control_c, 0, 64, 56
1, 347213, Note_on_c, 0, 47, 62
1, 347220, Note_on_c, 0, 64, 60
1, 347225, Control_c, 0, 64, 63
1, 347231, Note_off_c, 0, 59, 66
1, 347233, Note_off_c, 0, 66, 62
1, 347240, Control_c, 0, 64, 71
1, 347244, Note_off_c, 0, 47, 65
1, 347255, Control_c, 0, 64, 84
1, 347262, Note_off_c, 0, 63, 28
1, 347270, Control_c, 0, 64, 127
1, 347276, Note_on_c, 0, 54, 76
1, 347316, Note_off_c, 0, 54, 60
1, 347333, Note_off_c, 0, 64, 61
1, 347357, Note_on_c, 0, 59, 57
1, 347384, Note_off_c, 0, 59, 51
1, 347414, Note_on_c, 0, 54, 80
1, 347418, Note_on_c, 0, 47, 64
1, 347421, Note_on_c, 0, 63, 69
1, 347490, Note_off_c, 0, 63, 63
1, 347496, Note_on_c, 0, 71, 72
1, 347553, Note_on_c, 0, 59, 68
1, 347591, Note_off_c, 0, 59, 65
1, 347596, Note_off_c, 0, 71, 49
1, 347614, Note_on_c, 0, 64, 58
1, 347644, Note_off_c, 0, 47, 62
1, 347660, Note_on_c, 0, 66, 69
1, 347673, Note_off_c, 0, 64, 61
1, 347690, Note_off_c, 0, 54, 60
1, 347715, Note_on_c, 0, 71, 69
1, 347717, Note_off_c, 0, 66, 60
1, 347751, Note_off_c, 0, 71, 67
1, 347766, Note_on_c, 0, 47, 64
1, 347786, Note_on_c, 0, 63, 77
1, 347790, Note_on_c, 0, 54, 72
1, 347790, Note_on_c, 0, 59, 67
1, 347826, Note_off_c, 0, 59, 60
1, 347841, Note_off_c, 0, 63, 59
1, 347843, Note_on_c, 0, 66, 75
1, 347843, Note_off_c, 0, 54, 63
1, 347844, Note_off_c, 0, 47, 63
1, 347897, Note_on_c, 0, 75, 69
1, 347905, Note_off_c, 0, 66, 61
1, 347942, Note_off_c, 0, 75, 61
1, 347959, Control_c, 0, 64, 78
1, 347974, Control_c, 0, 64, 58
1, 347986, Note_on_c, 0, 46, 82
1, 347989, Note_on_c, 0, 34, 74
1, 347989, Control_c, 0, 64, 43
1, 348004, Control_c, 0, 64, 47
1, 348013, Note_off_c, 0, 46, 67
1, 348016, Note_off_c, 0, 34, 64
1, 348019, Control_c, 0, 64, 57
1, 348033, Control_c, 0, 64, 64
1, 348048, Control_c, 0, 64, 72
1, 348063, Control_c, 0, 64, 85
1, 348078, Control_c, 0, 64, 105
1, 348085, Note_on_c, 0, 70, 75
1, 348092, Note_on_c, 0, 75, 71
1, 348092, Control_c, 0, 64, 118
1, 348107, Control_c, 0, 64, 120
1, 348122, Note_on_c, 0, 54, 78
1, 348127, Note_on_c, 0, 42, 71
1, 348150, Note_on_c, 0, 66, 70
1, 348154, Note_off_c, 0, 54, 63
1, 348158, Note_off_c, 0, 42, 65
1, 348180, Control_c, 0, 64, 122
1, 348186, Note_off_c, 0, 70, 0
1, 348186, Note_on_c, 0, 70, 16
1, 348192, Note_off_c, 0, 75, 37
1, 348195, Control_c, 0, 64, 127
1, 348208, Note_off_c, 0, 66, 52
1, 348231, Note_on_c, 0, 74, 47
1, 348234, Note_on_c, 0, 58, 81
1, 348244, Note_on_c, 0, 46, 60
1, 348252, Note_on_c, 0, 75, 38
1, 348262, Note_off_c, 0, 58, 62
1, 348270, Note_off_c, 0, 46, 64
1, 348299, Note_off_c, 0, 70, 57
1, 348306, Note_on_c, 0, 76, 54
1, 348308, Note_off_c, 0, 74, 62
1, 348322, Note_on_c, 0, 78, 82
1, 348326, Note_off_c, 0, 75, 63
1, 348329, Note_off_c, 0, 76, 62
1, 348359, Control_c, 0, 64, 82
1, 348374, Control_c, 0, 64, 63
1, 348380, Note_on_c, 0, 66, 84
1, 348383, Note_on_c, 0, 54, 81
1, 348388, Control_c, 0, 64, 55
1, 348389, Note_off_c, 0, 78, 64
1, 348401, Note_on_c, 0, 77, 64
1, 348403, Control_c, 0, 64, 61
1, 348404, Note_off_c, 0, 66, 69
1, 348404, Note_on_c, 0, 76, 69
1, 348410, Note_off_c, 0, 54, 65
1, 348418, Control_c, 0, 64, 70
1, 348433, Note_off_c, 0, 76, 65
1, 348433, Control_c, 0, 64, 88
1, 348445, Note_on_c, 0, 66, 58
1, 348445, Note_off_c, 0, 77, 64
1, 348448, Control_c, 0, 64, 127
1, 348502, Note_off_c, 0, 66, 62
1, 348520, Note_on_c, 0, 70, 81
1, 348585, Note_on_c, 0, 75, 70
1, 348588, Note_on_c, 0, 66, 87
1, 348589, Note_on_c, 0, 54, 75
1, 348589, Note_off_c, 0, 70, 64
1, 348591, Note_on_c, 0, 63, 71
1, 348650, Note_on_c, 0, 82, 84
1, 348656, Note_off_c, 0, 75, 64
1, 348688, Note_off_c, 0, 82, 62
1, 348697, Note_on_c, 0, 70, 82
1, 348746, Note_off_c, 0, 70, 63
1, 348751, Note_on_c, 0, 77, 68
1, 348807, Note_on_c, 0, 78, 72
1, 348839, Note_off_c, 0, 54, 60
1, 348840, Note_off_c, 0, 77, 64
1, 348855, Note_off_c, 0, 66, 59
1, 348859, Note_on_c, 0, 82, 83
1, 348869, Note_off_c, 0, 78, 62
1, 348874, Note_off_c, 0, 63, 59
1, 348889, Note_off_c, 0, 82, 64
1, 348936, Note_on_c, 0, 75, 76
1, 348937, Note_on_c, 0, 66, 74
1, 348939, Note_on_c, 0, 63, 74
1, 348948, Note_on_c, 0, 54, 73
1, 348957, Note_off_c, 0, 66, 70
1, 348973, Note_off_c, 0, 63, 64
1, 348982, Note_off_c, 0, 75, 62
1, 348988, Note_on_c, 0, 82, 84
1, 348990, Note_off_c, 0, 54, 63
1, 349060, Note_on_c, 0, 87, 84
1, 349065, Note_off_c, 0, 82, 64
1, 349107, Control_c, 0, 64, 79
1, 349113, Note_off_c, 0, 87, 63
1, 349122, Control_c, 0, 64, 60
1, 349129, Note_on_c, 0, 46, 87
1, 349134, Note_on_c, 0, 34, 77
1, 349137, Control_c, 0, 64, 56
1, 349152, Control_c, 0, 64, 62
1, 349159, Note_off_c, 0, 46, 66
1, 349160, Note_off_c, 0, 34, 64
1, 349167, Control_c, 0, 64, 69
1, 349182, Control_c, 0, 64, 80
1, 349196, Control_c, 0, 64, 115
1, 349211, Control_c, 0, 64, 127
1, 349244, Note_on_c, 0, 75, 79
1, 349250, Note_on_c, 0, 80, 75
1, 349252, Note_on_c, 0, 54, 85
1, 349256, Note_on_c, 0, 42, 72
1, 349273, Note_off_c, 0, 54, 71
1, 349282, Note_off_c, 0, 42, 64
1, 349316, Note_off_c, 0, 80, 63
1, 349322, Note_on_c, 0, 71, 74
1, 349355, Note_on_c, 0, 56, 83
1, 349362, Note_on_c, 0, 44, 67
1, 349368, Note_off_c, 0, 71, 61
1, 349380, Note_off_c, 0, 56, 66
1, 349390, Note_off_c, 0, 44, 65
1, 349391, Note_on_c, 0, 79, 50
1, 349418, Note_on_c, 0, 80, 73
1, 349453, Note_on_c, 0, 47, 69
1, 349453, Note_on_c, 0, 59, 82
1, 349456, Note_off_c, 0, 75, 56
1, 349474, Note_off_c, 0, 47, 66
1, 349475, Note_on_c, 0, 83, 80
1, 349480, Note_off_c, 0, 59, 64
1, 349482, Note_off_c, 0, 79, 42
1, 349501, Note_off_c, 0, 80, 62
1, 349529, Control_c, 0, 64, 80
1, 349544, Control_c, 0, 64, 60
1, 349559, Control_c, 0, 64, 46
1, 349560, Note_off_c, 0, 83, 39
1, 349566, Note_on_c, 0, 82, 92
1, 349574, Control_c, 0, 64, 53
1, 349575, Note_on_c, 0, 54, 73
1, 349581, Note_on_c, 0, 66, 73
1, 349589, Control_c, 0, 64, 64
1, 349603, Control_c, 0, 64, 75
1, 349619, Control_c, 0, 64, 101
1, 349634, Control_c, 0, 64, 127
1, 349638, Note_off_c, 0, 82, 65
1, 349649, Poly_aftertouch_c, 0, 59, 127
1, 349651, Note_off_c, 0, 54, 53
1, 349660, Note_on_c, 0, 71, 58
1, 349678, Note_off_c, 0, 66, 57
1, 349683, Note_off_c, 0, 71, 57
1, 349688, Poly_aftertouch_c, 0, 59, 0
1, 349719, Note_on_c, 0, 75, 72
1, 349757, Note_on_c, 0, 66, 90
1, 349763, Note_on_c, 0, 59, 79
1, 349764, Note_on_c, 0, 54, 81
1, 349768, Note_on_c, 0, 56, 72
1, 349784, Note_on_c, 0, 80, 75
1, 349785, Note_off_c, 0, 75, 61
1, 349854, Note_off_c, 0, 80, 62
1, 349863, Note_on_c, 0, 87, 82
1, 349887, Note_off_c, 0, 87, 66
1, 349911, Note_on_c, 0, 75, 73
1, 349968, Note_off_c, 0, 75, 60
1, 349969, Note_off_c, 0, 66, 59
1, 349987, Note_on_c, 0, 82, 79
1, 350016, Note_off_c, 0, 59, 48
1, 350042, Note_on_c, 0, 83, 70
1, 350052, Note_off_c, 0, 56, 51
1, 350055, Note_off_c, 0, 54, 60
1, 350088, Note_off_c, 0, 82, 56
1, 350106, Note_on_c, 0, 87, 88
1, 350114, Note_off_c, 0, 83, 63
1, 350145, Note_off_c, 0, 87, 62
1, 350160, Control_c, 0, 64, 97
1, 350175, Control_c, 0, 64, 69
1, 350177, Note_on_c, 0, 56, 62
1, 350179, Note_on_c, 0, 65, 82
1, 350180, Note_on_c, 0, 53, 72
1, 350181, Note_on_c, 0, 80, 73
1, 350182, Note_on_c, 0, 59, 66
1, 350190, Control_c, 0, 64, 56
1, 350205, Control_c, 0, 64, 55
1, 350220, Control_c, 0, 64, 62
1, 350227, Note_off_c, 0, 53, 58
1, 350228, Note_off_c, 0, 80, 61
1, 350234, Control_c, 0, 64, 70
1, 350249, Control_c, 0, 64, 80
1, 350251, Note_on_c, 0, 87, 85
1, 350260, Note_off_c, 0, 56, 59
1, 350264, Note_off_c, 0, 59, 62
1, 350264, Control_c, 0, 64, 105
1, 350279, Control_c, 0, 64, 127
1, 350284, Note_off_c, 0, 65, 61
1, 350340, Note_on_c, 0, 92, 92
1, 350341, Note_off_c, 0, 87, 63
1, 350472, Control_c, 0, 64, 64
1, 350486, Control_c, 0, 64, 0
1, 350505, Note_on_c, 0, 63, 79
1, 350505, Note_on_c, 0, 56, 79
1, 350506, Note_on_c, 0, 95, 88
1, 350508, Note_on_c, 0, 59, 69
1, 350508, Note_on_c, 0, 68, 79
1, 350510, Note_on_c, 0, 87, 75
1, 350512, Note_on_c, 0, 83, 82
1, 350560, Control_c, 0, 64, 48
1, 350575, Control_c, 0, 64, 77
1, 350578, Note_off_c, 0, 56, 61
1, 350590, Control_c, 0, 64, 127
1, 350592, Note_off_c, 0, 68, 63
1, 350595, Note_off_c, 0, 59, 62
1, 350595, Note_off_c, 0, 95, 65
1, 350605, Note_off_c, 0, 63, 61
1, 350617, Note_off_c, 0, 92, 64
1, 350619, Note_off_c, 0, 87, 64
1, 350624, Note_off_c, 0, 83, 64
1, 350860, Note_on_c, 0, 83, 84
1, 350946, Note_on_c, 0, 80, 76
1, 350978, Note_off_c, 0, 83, 62
1, 351024, Note_on_c, 0, 77, 69
1, 351075, Note_off_c, 0, 80, 60
1, 351084, Note_on_c, 0, 75, 74
1, 351096, Note_off_c, 0, 77, 62
1, 351128, Note_off_c, 0, 75, 61
1, 351155, Note_on_c, 0, 71, 71
1, 351227, Note_off_c, 0, 71, 65
1, 351234, Note_on_c, 0, 77, 74
1, 351295, Note_on_c, 0, 75, 59
1, 351337, Note_off_c, 0, 77, 64
1, 351354, Control_c, 0, 67, 19
1, 351369, Control_c, 0, 67, 21
1, 351383, Control_c, 0, 67, 23
1, 351388, Note_on_c, 0, 71, 56
1, 351398, Control_c, 0, 67, 26
1, 351413, Control_c, 0, 67, 28
1, 351427, Control_c, 0, 67, 31
1, 351433, Note_off_c, 0, 75, 61
1, 351435, Note_off_c, 0, 71, 49
1, 351442, Control_c, 0, 67, 35
1, 351457, Note_on_c, 0, 68, 64
1, 351457, Control_c, 0, 67, 40
1, 351480, Control_c, 0, 67, 46
1, 351489, Note_off_c, 0, 68, 65
1, 351495, Control_c, 0, 67, 52
1, 351510, Control_c, 0, 67, 59
1, 351525, Control_c, 0, 67, 66
1, 351540, Control_c, 0, 67, 72
1, 351544, Note_on_c, 0, 65, 55
1, 351554, Control_c, 0, 67, 78
1, 351569, Control_c, 0, 67, 83
1, 351584, Control_c, 0, 67, 88
1, 351599, Control_c, 0, 67, 92
1, 351614, Control_c, 0, 67, 96
1, 351617, Note_off_c, 0, 65, 63
1, 351629, Control_c, 0, 67, 99
1, 351644, Control_c, 0, 67, 101
1, 351659, Control_c, 0, 67, 103
1, 351669, Note_on_c, 0, 70, 65
1, 351674, Control_c, 0, 67, 106
1, 351679, Note_on_c, 0, 46, 62
1, 351689, Control_c, 0, 67, 109
1, 351704, Control_c, 0, 64, 117
1, 351704, Control_c, 0, 67, 114
1, 351718, Control_c, 0, 64, 80
1, 351718, Control_c, 0, 67, 119
1, 351733, Control_c, 0, 64, 60
1, 351733, Control_c, 0, 67, 124
1, 351748, Control_c, 0, 64, 43
1, 351748, Control_c, 0, 67, 127
1, 351763, Control_c, 0, 64, 30
1, 351778, Control_c, 0, 64, 0
1, 351807, Control_c, 0, 64, 33
1, 351817, Note_on_c, 0, 66, 52
1, 351822, Control_c, 0, 64, 43
1, 351837, Control_c, 0, 64, 53
1, 351852, Control_c, 0, 64, 61
1, 351867, Control_c, 0, 64, 68
1, 351881, Control_c, 0, 64, 76
1, 351896, Control_c, 0, 64, 82
1, 351897, Note_on_c, 0, 62, 45
1, 351911, Control_c, 0, 64, 87
1, 351915, Note_off_c, 0, 70, 35
1, 351925, Control_c, 0, 64, 92
1, 351935, Note_off_c, 0, 62, 62
1, 351940, Control_c, 0, 64, 95
1, 351955, Control_c, 0, 64, 96
1, 351962, Note_off_c, 0, 66, 60
1, 351989, Note_on_c, 0, 56, 66
1, 352035, Note_off_c, 0, 56, 56
1, 352139, Note_on_c, 0, 59, 35
1, 352243, Note_on_c, 0, 58, 53
1, 352246, Note_off_c, 0, 59, 35
1, 352294, Note_off_c, 0, 58, 58
1, 352316, Note_off_c, 0, 46, 62
1, 352541, Control_c, 0, 64, 94
1, 352556, Note_on_c, 0, 66, 54
1, 352556, Control_c, 0, 64, 90
1, 352571, Control_c, 0, 64, 83
1, 352581, Note_on_c, 0, 58, 24
1, 352586, Control_c, 0, 64, 75
1, 352594, Note_on_c, 0, 54, 6
1, 352594, Note_on_c, 0, 63, 41
1, 352597, Note_on_c, 0, 46, 27
1, 352601, Control_c, 0, 64, 65
1, 352616, Control_c, 0, 64, 52
1, 352630, Control_c, 0, 64, 32
1, 352645, Control_c, 0, 64, 0
1, 352778, Control_c, 0, 64, 40
1, 352793, Control_c, 0, 64, 55
1, 352808, Control_c, 0, 64, 62
1, 352815, Note_on_c, 0, 51, 37
1, 352822, Control_c, 0, 64, 65
1, 352837, Control_c, 0, 64, 67
1, 352849, Note_off_c, 0, 46, 46
1, 352852, Control_c, 0, 64, 71
1, 352867, Control_c, 0, 64, 76
1, 352881, Control_c, 0, 64, 83
1, 352896, Control_c, 0, 64, 91
1, 352907, Note_off_c, 0, 51, 52
1, 352909, Note_on_c, 0, 39, 54
1, 352911, Control_c, 0, 64, 102
1, 352926, Control_c, 0, 64, 127
1, 352966, Note_off_c, 0, 39, 59
1, 352983, Note_off_c, 0, 54, 39
1, 353015, Note_on_c, 0, 46, 49
1, 353024, Note_off_c, 0, 63, 61
1, 353031, Note_off_c, 0, 58, 48
1, 353079, Note_off_c, 0, 46, 58
1, 353093, Note_on_c, 0, 51, 55
1, 353163, Note_off_c, 0, 51, 61
1, 353180, Note_on_c, 0, 58, 46
1, 353230, Note_off_c, 0, 58, 53
1, 353240, Note_on_c, 0, 65, 64
1, 353286, Note_on_c, 0, 46, 51
1, 353286, Note_on_c, 0, 54, 35
1, 353330, Note_off_c, 0, 46, 60
1, 353334, Note_off_c, 0, 54, 44
1, 353405, Note_on_c, 0, 51, 37
1, 353432, Note_off_c, 0, 51, 56
1, 353459, Note_on_c, 0, 39, 54
1, 353492, Note_on_c, 0, 63, 67
1, 353492, Note_off_c, 0, 39, 60
1, 353525, Note_on_c, 0, 46, 54
1, 353569, Note_off_c, 0, 46, 64
1, 353580, Note_on_c, 0, 51, 51
1, 353620, Note_off_c, 0, 51, 60
1, 353644, Note_on_c, 0, 58, 53
1, 353668, Note_off_c, 0, 58, 61
1, 353686, Note_off_c, 0, 65, 27
1, 353695, Note_on_c, 0, 62, 77
1, 353699, Note_off_c, 0, 66, 36
1, 353728, Note_on_c, 0, 46, 61
1, 353754, Note_off_c, 0, 63, 56
1, 353773, Note_off_c, 0, 46, 60
1, 353823, Note_on_c, 0, 51, 48
1, 353851, Note_off_c, 0, 51, 62
1, 353855, Note_on_c, 0, 39, 68
1, 353886, Note_on_c, 0, 63, 76
1, 353894, Note_off_c, 0, 39, 62
1, 353897, Note_off_c, 0, 62, 60
1, 353933, Note_on_c, 0, 46, 47
1, 353947, Note_off_c, 0, 63, 64
1, 353966, Note_off_c, 0, 46, 64
1, 353999, Note_on_c, 0, 51, 53
1, 354037, Note_on_c, 0, 58, 61
1, 354041, Note_off_c, 0, 51, 63
1, 354065, Note_off_c, 0, 58, 66
1, 354187, Control_c, 0, 64, 95
1, 354196, Note_on_c, 0, 65, 66
1, 354202, Control_c, 0, 64, 64
1, 354203, Note_on_c, 0, 56, 63
1, 354209, Note_on_c, 0, 47, 54
1, 354216, Note_on_c, 0, 63, 55
1, 354216, Control_c, 0, 64, 42
1, 354231, Control_c, 0, 64, 32
1, 354246, Control_c, 0, 64, 42
1, 354261, Control_c, 0, 64, 55
1, 354276, Control_c, 0, 64, 62
1, 354291, Note_on_c, 0, 35, 66
1, 354291, Control_c, 0, 64, 70
1, 354296, Note_off_c, 0, 47, 59
1, 354306, Control_c, 0, 64, 89
1, 354320, Control_c, 0, 64, 127
1, 354332, Note_off_c, 0, 56, 46
1, 354339, Note_off_c, 0, 35, 62
1, 354350, Control_c, 0, 67, 120
1, 354363, Note_on_c, 0, 47, 57
1, 354365, Control_c, 0, 67, 112
1, 354380, Control_c, 0, 67, 104
1, 354392, Note_off_c, 0, 47, 66
1, 354394, Control_c, 0, 67, 96
1, 354407, Note_on_c, 0, 66, 66
1, 354409, Control_c, 0, 67, 89
1, 354415, Note_off_c, 0, 63, 53
1, 354424, Control_c, 0, 67, 84
1, 354426, Note_on_c, 0, 48, 13
1, 354439, Control_c, 0, 67, 79
1, 354449, Note_off_c, 0, 65, 35
1, 354453, Control_c, 0, 67, 76
1, 354476, Control_c, 0, 67, 74
1, 354482, Note_off_c, 0, 48, 53
1, 354491, Control_c, 0, 67, 73
1, 354491, Note_on_c, 0, 51, 71
1, 354550, Note_off_c, 0, 51, 58
1, 354564, Note_on_c, 0, 63, 70
1, 354586, Note_off_c, 0, 66, 38
1, 354595, Control_c, 0, 67, 74
1, 354607, Note_off_c, 0, 63, 61
1, 354609, Control_c, 0, 67, 75
1, 354624, Control_c, 0, 67, 75
1, 354627, Note_on_c, 0, 56, 73
1, 354628, Note_on_c, 0, 68, 74
1, 354651, Note_off_c, 0, 56, 67
1, 354668, Note_off_c, 0, 68, 61
1, 354668, Control_c, 0, 67, 75
1, 354683, Control_c, 0, 67, 73
1, 354699, Control_c, 0, 67, 71
1, 354714, Note_on_c, 0, 68, 73
1, 354714, Control_c, 0, 67, 64
1, 354714, Note_on_c, 0, 65, 20
1, 354729, Control_c, 0, 67, 48
1, 354732, Note_on_c, 0, 63, 36
1, 354741, Note_on_c, 0, 56, 59
1, 354744, Control_c, 0, 64, 108
1, 354744, Control_c, 0, 67, 26
1, 354747, Note_on_c, 0, 47, 60
1, 354747, Note_on_c, 0, 58, 41
1, 354758, Control_c, 0, 67, 0
1, 354767, Note_off_c, 0, 56, 56
1, 354773, Control_c, 0, 64, 127
1, 354779, Note_off_c, 0, 58, 53
1, 354794, Note_off_c, 0, 47, 57
1, 354819, Note_on_c, 0, 35, 69
1, 354820, Poly_aftertouch_c, 0, 45, 0
1, 354848, Note_off_c, 0, 35, 63
1, 354860, Note_on_c, 0, 47, 60
1, 354862, Poly_aftertouch_c, 0, 45, 0
1, 354865, Note_off_c, 0, 63, 44
1, 354888, Note_off_c, 0, 47, 66
1, 354931, Note_off_c, 0, 65, 42
1, 354962, Note_off_c, 0, 68, 61
1, 354980, Poly_aftertouch_c, 0, 48, 0
1, 354980, Note_on_c, 0, 51, 69
1, 355025, Note_on_c, 0, 63, 62
1, 355033, Note_off_c, 0, 51, 57
1, 355055, Note_off_c, 0, 63, 66
1, 355071, Note_on_c, 0, 56, 62
1, 355095, Note_off_c, 0, 56, 62
1, 355173, Control_c, 0, 64, 80
1, 355178, Note_on_c, 0, 70, 78
1, 355182, Note_on_c, 0, 66, 67
1, 355188, Note_on_c, 0, 46, 67
1, 355188, Control_c, 0, 64, 62
1, 355203, Control_c, 0, 64, 60
1, 355203, Note_on_c, 0, 34, 57
1, 355225, Control_c, 0, 64, 68
1, 355230, Note_off_c, 0, 46, 51
1, 355240, Control_c, 0, 64, 88
1, 355243, Note_off_c, 0, 34, 63
1, 355255, Control_c, 0, 64, 127
1, 355259, Note_on_c, 0, 62, 59
1, 355268, Note_off_c, 0, 70, 63
1, 355287, Note_off_c, 0, 66, 60
1, 355303, Note_off_c, 0, 62, 61
1, 355322, Note_on_c, 0, 58, 65
1, 355326, Note_on_c, 0, 32, 72
1, 355330, Note_on_c, 0, 44, 61
1, 355350, Note_off_c, 0, 58, 68
1, 355354, Note_off_c, 0, 32, 64
1, 355354, Note_off_c, 0, 44, 60
1, 355421, Note_on_c, 0, 58, 74
1, 355449, Note_off_c, 0, 58, 66
1, 355492, Note_on_c, 0, 46, 67
1, 355517, Note_off_c, 0, 46, 65
1, 355549, Note_on_c, 0, 58, 73
1, 355555, Note_on_c, 0, 42, 74
1, 355559, Note_on_c, 0, 30, 62
1, 355573, Note_off_c, 0, 58, 67
1, 355611, Note_off_c, 0, 30, 59
1, 355627, Note_off_c, 0, 42, 59
1, 355715, Control_c, 0, 64, 76
1, 355722, Note_on_c, 0, 42, 82
1, 355726, Note_on_c, 0, 63, 79
1, 355726, Note_on_c, 0, 70, 76
1, 355730, Control_c, 0, 64, 55
1, 355731, Note_on_c, 0, 72, 78
1, 355745, Control_c, 0, 64, 33
1, 355760, Control_c, 0, 64, 36
1, 355774, Control_c, 0, 64, 50
1, 355789, Note_off_c, 0, 42, 61
1, 355789, Control_c, 0, 64, 61
1, 355804, Control_c, 0, 64, 72
1, 355818, Control_c, 0, 64, 96
1, 355833, Control_c, 0, 64, 127
1, 355838, Note_on_c, 0, 30, 71
1, 355869, Note_off_c, 0, 30, 63
1, 355885, Note_on_c, 0, 42, 64
1, 355913, Note_off_c, 0, 42, 65
1, 355948, Note_on_c, 0, 74, 78
1, 356005, Note_on_c, 0, 46, 69
1, 356038, Note_off_c, 0, 63, 60
1, 356039, Note_off_c, 0, 72, 57
1, 356059, Note_on_c, 0, 58, 63
1, 356060, Note_off_c, 0, 70, 56
1, 356066, Note_off_c, 0, 74, 57
1, 356093, Note_off_c, 0, 58, 65
1, 356105, Note_on_c, 0, 51, 64
1, 356118, Note_off_c, 0, 46, 34
1, 356119, Note_on_c, 0, 75, 76
1, 356133, Note_off_c, 0, 51, 65
1, 356140, Note_on_c, 0, 70, 43
1, 356142, Note_off_c, 0, 75, 68
1, 356148, Note_on_c, 0, 72, 49
1, 356169, Note_off_c, 0, 70, 53
1, 356172, Note_off_c, 0, 72, 53
1, 356192, Note_on_c, 0, 63, 30
1, 356196, Control_c, 0, 64, 94
1, 356199, Note_on_c, 0, 75, 91
1, 356206, Note_on_c, 0, 72, 65
1, 356208, Note_on_c, 0, 70, 66
1, 356208, Note_on_c, 0, 42, 78
1, 356211, Control_c, 0, 64, 73
1, 356226, Control_c, 0, 64, 73
1, 356240, Control_c, 0, 64, 83
1, 356255, Control_c, 0, 64, 110
1, 356270, Note_off_c, 0, 42, 62
1, 356270, Control_c, 0, 64, 127
1, 356292, Note_on_c, 0, 30, 70
1, 356320, Note_off_c, 0, 30, 67
1, 356330, Note_on_c, 0, 42, 70
1, 356355, Note_off_c, 0, 42, 67
1, 356452, Note_on_c, 0, 46, 71
1, 356473, Note_off_c, 0, 63, 52
1, 356475, Note_off_c, 0, 75, 62
1, 356479, Note_on_c, 0, 58, 72
1, 356500, Note_off_c, 0, 72, 57
1, 356514, Note_off_c, 0, 58, 65
1, 356536, Note_on_c, 0, 51, 52
1, 356550, Note_off_c, 0, 46, 61
1, 356557, Note_off_c, 0, 51, 63
1, 356587, Note_off_c, 0, 70, 24
1, 356640, Control_c, 0, 64, 92
1, 356654, Note_on_c, 0, 77, 85
1, 356655, Note_on_c, 0, 75, 84
1, 356655, Control_c, 0, 64, 66
1, 356661, Note_on_c, 0, 29, 78
1, 356663, Note_on_c, 0, 41, 70
1, 356670, Control_c, 0, 64, 53
1, 356685, Control_c, 0, 64, 58
1, 356691, Note_off_c, 0, 29, 64
1, 356700, Control_c, 0, 64, 71
1, 356701, Note_off_c, 0, 41, 63
1, 356722, Control_c, 0, 64, 112
1, 356737, Control_c, 0, 64, 127
1, 356770, Note_on_c, 0, 70, 67
1, 356801, Note_off_c, 0, 77, 65
1, 356810, Note_off_c, 0, 75, 64
1, 356826, Control_c, 0, 64, 99
1, 356834, Note_on_c, 0, 27, 74
1, 356834, Note_on_c, 0, 39, 73
1, 356841, Control_c, 0, 64, 89
1, 356848, Note_on_c, 0, 65, 70
1, 356855, Control_c, 0, 64, 93
1, 356857, Note_off_c, 0, 70, 63
1, 356866, Note_off_c, 0, 27, 65
1, 356866, Note_off_c, 0, 39, 65
1, 356870, Control_c, 0, 64, 125
1, 356879, Note_off_c, 0, 65, 66
1, 356885, Control_c, 0, 64, 127
1, 356899, Note_on_c, 0, 78, 86
1, 356904, Note_on_c, 0, 75, 81
1, 356964, Note_on_c, 0, 25, 74
1, 356967, Note_on_c, 0, 37, 66
1, 356981, Note_on_c, 0, 70, 74
1, 357002, Note_off_c, 0, 37, 61
1, 357021, Note_off_c, 0, 25, 61
1, 357050, Note_on_c, 0, 66, 39
1, 357052, Note_off_c, 0, 70, 64
1, 357070, Note_off_c, 0, 78, 56
1, 357078, Note_off_c, 0, 75, 61
1, 357079, Note_off_c, 0, 66, 51
1, 357124, Control_c, 0, 64, 97
1, 357139, Control_c, 0, 64, 60
1, 357153, Control_c, 0, 64, 0
1, 357163, Note_on_c, 0, 23, 76
1, 357176, Note_on_c, 0, 35, 87
1, 357179, Note_on_c, 0, 81, 87
1, 357182, Note_on_c, 0, 75, 82
1, 357184, Note_on_c, 0, 69, 80
1, 357198, Note_off_c, 0, 23, 67
1, 357198, Control_c, 0, 64, 35
1, 357213, Control_c, 0, 64, 59
1, 357227, Control_c, 0, 64, 75
1, 357230, Note_off_c, 0, 35, 63
1, 357242, Control_c, 0, 64, 127
1, 357266, Note_on_c, 0, 74, 64
1, 357287, Note_off_c, 0, 81, 64
1, 357302, Note_off_c, 0, 75, 60
1, 357305, Note_off_c, 0, 74, 60
1, 357314, Note_off_c, 0, 69, 55
1, 357423, Note_on_c, 0, 51, 68
1, 357483, Note_off_c, 0, 51, 61
1, 357486, Note_on_c, 0, 41, 71
1, 357511, Note_off_c, 0, 41, 65
1, 357587, Note_on_c, 0, 45, 66
1, 357627, Note_on_c, 0, 51, 69
1, 357644, Note_off_c, 0, 45, 63
1, 357707, Note_off_c, 0, 51, 64
1, 357707, Note_on_c, 0, 57, 62
1, 357739, Note_off_c, 0, 57, 68
1, 357755, Note_on_c, 0, 53, 76
1, 357819, Note_off_c, 0, 53, 51
1, 357826, Note_on_c, 0, 63, 74
1, 357860, Note_off_c, 0, 63, 57
1, 357881, Note_on_c, 0, 53, 51
1, 357916, Note_off_c, 0, 53, 61
1, 357961, Note_on_c, 0, 57, 65
1, 358009, Note_off_c, 0, 57, 60
1, 358015, Note_on_c, 0, 63, 70
1, 358083, Note_on_c, 0, 69, 64
1, 358086, Note_off_c, 0, 63, 63
1, 358127, Note_off_c, 0, 69, 65
1, 358169, Note_on_c, 0, 65, 71
1, 358199, Control_c, 0, 64, 92
1, 358220, Control_c, 0, 64, 80
1, 358227, Note_off_c, 0, 65, 58
1, 358235, Note_on_c, 0, 75, 68
1, 358235, Control_c, 0, 64, 80
1, 358250, Control_c, 0, 64, 88
1, 358264, Note_off_c, 0, 75, 64
1, 358265, Control_c, 0, 64, 112
1, 358280, Note_on_c, 0, 65, 68
1, 358280, Control_c, 0, 64, 127
1, 358318, Note_off_c, 0, 65, 65
1, 358372, Note_on_c, 0, 69, 49
1, 358397, Note_off_c, 0, 69, 60
1, 358422, Note_on_c, 0, 75, 67
1, 358439, Poly_aftertouch_c, 0, 71, 127
1, 358470, Poly_aftertouch_c, 0, 71, 0
1, 358499, Note_on_c, 0, 81, 80
1, 358510, Note_off_c, 0, 75, 62
1, 358531, Note_off_c, 0, 81, 63
1, 358635, Control_c, 0, 67, 21
1, 358650, Control_c, 0, 67, 27
1, 358665, Control_c, 0, 67, 35
1, 358680, Control_c, 0, 67, 49
1, 358696, Control_c, 0, 67, 67
1, 358711, Control_c, 0, 67, 85
1, 358725, Control_c, 0, 67, 101
1, 358740, Control_c, 0, 67, 116
1, 358755, Control_c, 0, 67, 127
1, 358770, Control_c, 0, 64, 91
1, 358785, Control_c, 0, 64, 67
1, 358799, Control_c, 0, 64, 39
1, 358814, Control_c, 0, 64, 0
1, 358862, Note_on_c, 0, 46, 49
1, 358863, Note_on_c, 0, 34, 38
1, 359099, Note_on_c, 0, 58, 54
1, 359167, Note_off_c, 0, 58, 36
1, 359176, Note_on_c, 0, 63, 53
1, 359218, Note_off_c, 0, 63, 61
1, 359221, Control_c, 0, 64, 32
1, 359236, Control_c, 0, 64, 48
1, 359251, Control_c, 0, 64, 58
1, 359263, Note_on_c, 0, 65, 37
1, 359266, Control_c, 0, 64, 62
1, 359281, Control_c, 0, 64, 63
1, 359289, Note_off_c, 0, 65, 51
1, 359296, Control_c, 0, 64, 64
1, 359302, Note_on_c, 0, 71, 63
1, 359311, Control_c, 0, 64, 66
1, 359325, Control_c, 0, 64, 67
1, 359339, Note_off_c, 0, 71, 59
1, 359340, Control_c, 0, 64, 70
1, 359355, Control_c, 0, 64, 73
1, 359369, Control_c, 0, 64, 76
1, 359384, Control_c, 0, 64, 79
1, 359391, Note_on_c, 0, 66, 62
1, 359399, Control_c, 0, 64, 81
1, 359414, Control_c, 0, 64, 82
1, 359416, Note_off_c, 0, 34, 57
1, 359429, Control_c, 0, 64, 83
1, 359440, Note_off_c, 0, 46, 63
1, 359443, Control_c, 0, 64, 84
1, 359458, Control_c, 0, 64, 85
1, 359470, Note_off_c, 0, 66, 56
1, 359473, Control_c, 0, 64, 86
1, 359489, Control_c, 0, 64, 87
1, 359504, Control_c, 0, 64, 88
1, 359519, Control_c, 0, 64, 90
1, 359531, Poly_aftertouch_c, 0, 70, 127
1, 359534, Control_c, 0, 64, 91
1, 359543, Note_on_c, 0, 58, 52
1, 359558, Poly_aftertouch_c, 0, 70, 0
1, 359563, Control_c, 0, 64, 91
1, 359578, Control_c, 0, 64, 85
1, 359584, Note_on_c, 0, 41, 50
1, 359591, Note_on_c, 0, 53, 38
1, 359592, Control_c, 0, 64, 74
1, 359606, Note_off_c, 0, 58, 42
1, 359607, Control_c, 0, 64, 66
1, 359609, Note_on_c, 0, 63, 51
1, 359622, Control_c, 0, 64, 61
1, 359637, Control_c, 0, 64, 59
1, 359650, Note_off_c, 0, 53, 42
1, 359652, Control_c, 0, 64, 61
1, 359663, Note_off_c, 0, 63, 61
1, 359666, Control_c, 0, 64, 63
1, 359681, Control_c, 0, 64, 66
1, 359695, Note_on_c, 0, 65, 36
1, 359696, Control_c, 0, 64, 70
1, 359719, Control_c, 0, 64, 74
1, 359725, Note_on_c, 0, 68, 61
1, 359734, Control_c, 0, 64, 78
1, 359748, Control_c, 0, 64, 80
1, 359765, Note_off_c, 0, 65, 43
1, 359774, Note_off_c, 0, 41, 55
1, 359778, Control_c, 0, 64, 79
1, 359792, Control_c, 0, 64, 74
1, 359800, Note_on_c, 0, 42, 64
1, 359806, Note_off_c, 0, 68, 60
1, 359807, Control_c, 0, 64, 70
1, 359812, Note_on_c, 0, 63, 58
1, 359822, Control_c, 0, 64, 67
1, 359852, Control_c, 0, 64, 67
1, 359866, Control_c, 0, 64, 69
1, 359877, Note_on_c, 0, 66, 64
1, 359877, Note_off_c, 0, 63, 63
1, 359881, Control_c, 0, 64, 71
1, 359896, Control_c, 0, 64, 73
1, 359911, Control_c, 0, 64, 75
1, 359926, Control_c, 0, 64, 77
1, 359939, Note_on_c, 0, 58, 62
1, 359940, Control_c, 0, 64, 79
1, 359955, Control_c, 0, 64, 81
1, 359958, Note_off_c, 0, 42, 63
1, 359970, Control_c, 0, 64, 81
1, 359974, Note_off_c, 0, 58, 64
1, 359985, Control_c, 0, 64, 81
1, 359999, Note_off_c, 0, 66, 58
1, 359999, Control_c, 0, 64, 77
1, 360008, Note_on_c, 0, 63, 67
1, 360012, Note_on_c, 0, 46, 63
1, 360013, Note_on_c, 0, 34, 62
1, 360014, Control_c, 0, 64, 70
1, 360029, Control_c, 0, 64, 64
1, 360044, Control_c, 0, 64, 57
1, 360059, Control_c, 0, 64, 50
1, 360063, Note_on_c, 0, 65, 63
1, 360074, Control_c, 0, 64, 43
1, 360080, Note_off_c, 0, 63, 63
1, 360089, Control_c, 0, 64, 39
1, 360104, Control_c, 0, 64, 40
1, 360118, Control_c, 0, 64, 45
1, 360133, Control_c, 0, 64, 51
1, 360134, Note_off_c, 0, 65, 65
1, 360143, Note_on_c, 0, 71, 75
1, 360148, Control_c, 0, 64, 58
1, 360163, Control_c, 0, 64, 63
1, 360178, Control_c, 0, 64, 66
1, 360186, Note_off_c, 0, 71, 63
1, 360192, Control_c, 0, 64, 68
1, 360207, Control_c, 0, 64, 70
1, 360222, Control_c, 0, 64, 71
1, 360230, Note_on_c, 0, 66, 74
1, 360237, Control_c, 0, 64, 72
1, 360252, Control_c, 0, 64, 72
1, 360266, Control_c, 0, 64, 73
1, 360297, Note_on_c, 0, 70, 79
1, 360297, Note_off_c, 0, 34, 63
1, 360320, Note_off_c, 0, 46, 63
1, 360362, Note_on_c, 0, 58, 58
1, 360369, Note_off_c, 0, 70, 61
1, 360371, Control_c, 0, 64, 73
1, 360419, Note_off_c, 0, 66, 21
1, 360429, Note_off_c, 0, 58, 48
1, 360430, Control_c, 0, 64, 70
1, 360432, Note_on_c, 0, 63, 67
1, 360442, Note_on_c, 0, 41, 53
1, 360445, Control_c, 0, 64, 64
1, 360467, Control_c, 0, 64, 58
1, 360482, Control_c, 0, 64, 52
1, 360485, Note_on_c, 0, 53, 16
1, 360497, Control_c, 0, 64, 48
1, 360508, Note_off_c, 0, 63, 62
1, 360512, Note_on_c, 0, 65, 57
1, 360512, Control_c, 0, 64, 49
1, 360515, Note_off_c, 0, 53, 46
1, 360527, Control_c, 0, 64, 52
1, 360542, Control_c, 0, 64, 55
1, 360555, Note_on_c, 0, 68, 69
1, 360557, Control_c, 0, 64, 59
1, 360565, Note_off_c, 0, 65, 62
1, 360571, Control_c, 0, 64, 62
1, 360586, Control_c, 0, 64, 64
1, 360601, Control_c, 0, 64, 66
1, 360630, Note_off_c, 0, 41, 61
1, 360630, Control_c, 0, 64, 63
1, 360635, Note_off_c, 0, 68, 60
1, 360645, Control_c, 0, 64, 57
1, 360649, Note_on_c, 0, 63, 63
1, 360655, Note_on_c, 0, 42, 58
1, 360658, Note_on_c, 0, 54, 40
1, 360660, Control_c, 0, 64, 52
1, 360675, Control_c, 0, 64, 49
1, 360686, Note_off_c, 0, 54, 54
1, 360689, Control_c, 0, 64, 50
1, 360704, Control_c, 0, 64, 53
1, 360719, Control_c, 0, 64, 57
1, 360724, Note_on_c, 0, 66, 53
1, 360727, Note_off_c, 0, 63, 61
1, 360734, Control_c, 0, 64, 61
1, 360748, Control_c, 0, 64, 64
1, 360763, Control_c, 0, 64, 67
1, 360778, Control_c, 0, 64, 68
1, 360792, Note_off_c, 0, 66, 61
1, 360793, Control_c, 0, 64, 70
1, 360808, Control_c, 0, 64, 72
1, 360812, Note_on_c, 0, 58, 53
1, 360822, Control_c, 0, 64, 73
1, 360826, Note_off_c, 0, 42, 63
1, 360837, Control_c, 0, 64, 74
1, 360867, Control_c, 0, 64, 71
1, 360882, Control_c, 0, 64, 65
1, 360894, Note_off_c, 0, 58, 56
1, 360897, Control_c, 0, 64, 56
1, 360909, Note_on_c, 0, 34, 51
1, 360912, Control_c, 0, 64, 48
1, 360916, Note_on_c, 0, 46, 50
1, 360926, Control_c, 0, 64, 41
1, 360932, Note_on_c, 0, 65, 57
1, 360941, Control_c, 0, 64, 37
1, 360956, Control_c, 0, 64, 40
1, 360971, Control_c, 0, 64, 47
1, 360975, Note_off_c, 0, 34, 60
1, 360986, Control_c, 0, 64, 57
1, 361001, Control_c, 0, 64, 64
1, 361009, Note_off_c, 0, 65, 61
1, 361015, Control_c, 0, 64, 70
1, 361022, Note_on_c, 0, 66, 58
1, 361030, Control_c, 0, 64, 77
1, 361045, Control_c, 0, 64, 84
1, 361051, Note_off_c, 0, 46, 60
1, 361060, Control_c, 0, 64, 88
1, 361075, Control_c, 0, 64, 91
1, 361087, Note_off_c, 0, 66, 57
1, 361090, Control_c, 0, 64, 93
1, 361105, Control_c, 0, 64, 94
1, 361109, Note_on_c, 0, 70, 34
1, 361140, Note_off_c, 0, 70, 46
1, 361147, Note_on_c, 0, 54, 60
1, 361157, Note_on_c, 0, 65, 52
1, 361168, Note_off_c, 0, 54, 62
1, 361231, Control_c, 0, 64, 95
1, 361237, Note_on_c, 0, 63, 56
1, 361245, Control_c, 0, 64, 99
1, 361260, Control_c, 0, 64, 106
1, 361271, Note_off_c, 0, 63, 66
1, 361275, Control_c, 0, 64, 127
1, 361280, Note_off_c, 0, 65, 48
1, 361296, Note_on_c, 0, 58, 66
1, 361350, Control_c, 0, 64, 94
1, 361357, Note_off_c, 0, 58, 60
1, 361359, Note_on_c, 0, 47, 70
1, 361362, Note_on_c, 0, 35, 69
1, 361364, Control_c, 0, 64, 70
1, 361376, Note_on_c, 0, 65, 65
1, 361379, Control_c, 0, 64, 57
1, 361394, Control_c, 0, 64, 53
1, 361402, Note_off_c, 0, 35, 60
1, 361409, Control_c, 0, 64, 58
1, 361424, Control_c, 0, 64, 64
1, 361438, Control_c, 0, 64, 70
1, 361447, Note_on_c, 0, 66, 66
1, 361453, Control_c, 0, 64, 79
1, 361457, Note_off_c, 0, 65, 61
1, 361468, Control_c, 0, 64, 89
1, 361468, Control_c, 0, 67, 125
1, 361469, Note_off_c, 0, 47, 62
1, 361483, Control_c, 0, 64, 97
1, 361483, Control_c, 0, 67, 116
1, 361498, Note_on_c, 0, 70, 65
1, 361498, Control_c, 0, 64, 100
1, 361498, Control_c, 0, 67, 107
1, 361511, Note_off_c, 0, 66, 62
1, 361512, Control_c, 0, 67, 98
1, 361527, Control_c, 0, 67, 89
1, 361542, Control_c, 0, 67, 83
1, 361555, Note_off_c, 0, 70, 58
1, 361557, Control_c, 0, 67, 77
1, 361570, Note_on_c, 0, 54, 59
1, 361571, Control_c, 0, 67, 73
1, 361581, Note_on_c, 0, 65, 58
1, 361586, Control_c, 0, 67, 67
1, 361591, Note_off_c, 0, 54, 60
1, 361601, Control_c, 0, 67, 62
1, 361616, Control_c, 0, 67, 56
1, 361631, Control_c, 0, 67, 49
1, 361633, Note_on_c, 0, 63, 67
1, 361645, Control_c, 0, 67, 41
1, 361660, Control_c, 0, 67, 32
1, 361669, Note_off_c, 0, 65, 35
1, 361675, Control_c, 0, 67, 20
1, 361684, Note_off_c, 0, 63, 60
1, 361690, Control_c, 0, 64, 106
1, 361690, Control_c, 0, 67, 0
1, 361699, Note_on_c, 0, 58, 70
1, 361705, Control_c, 0, 64, 117
1, 361719, Control_c, 0, 64, 127
1, 361762, Note_off_c, 0, 58, 61
1, 361764, Control_c, 0, 64, 105
1, 361765, Note_on_c, 0, 36, 74
1, 361771, Note_on_c, 0, 48, 79
1, 361773, Note_on_c, 0, 65, 70
1, 361779, Control_c, 0, 64, 74
1, 361794, Control_c, 0, 64, 60
1, 361809, Control_c, 0, 64, 50
1, 361824, Control_c, 0, 64, 51
1, 361833, Note_off_c, 0, 36, 63
1, 361838, Control_c, 0, 64, 57
1, 361845, Note_off_c, 0, 65, 63
1, 361853, Control_c, 0, 64, 63
1, 361854, Note_on_c, 0, 66, 60
1, 361868, Control_c, 0, 64, 68
1, 361883, Control_c, 0, 64, 76
1, 361898, Note_off_c, 0, 48, 60
1, 361898, Control_c, 0, 64, 84
1, 361901, Note_on_c, 0, 70, 65
1, 361913, Note_off_c, 0, 66, 61
1, 361913, Control_c, 0, 64, 88
1, 361928, Control_c, 0, 64, 91
1, 361943, Control_c, 0, 64, 94
1, 361965, Control_c, 0, 64, 96
1, 361970, Note_off_c, 0, 70, 56
1, 361982, Note_on_c, 0, 54, 64
1, 361985, Note_on_c, 0, 65, 59
1, 362003, Note_off_c, 0, 54, 62
1, 362044, Note_off_c, 0, 65, 41
1, 362054, Control_c, 0, 64, 98
1, 362059, Note_on_c, 0, 63, 58
1, 362098, Control_c, 0, 64, 101
1, 362100, Note_off_c, 0, 63, 62
1, 362113, Control_c, 0, 64, 107
1, 362124, Note_on_c, 0, 58, 61
1, 362128, Control_c, 0, 64, 127
1, 362187, Control_c, 0, 64, 114
1, 362197, Note_off_c, 0, 58, 56
1, 362202, Control_c, 0, 64, 84
1, 362204, Note_on_c, 0, 37, 64
1, 362206, Note_on_c, 0, 49, 65
1, 362211, Note_on_c, 0, 65, 51
1, 362217, Control_c, 0, 64, 68
1, 362232, Control_c, 0, 64, 58
1, 362247, Control_c, 0, 64, 53
1, 362261, Control_c, 0, 64, 54
1, 362276, Control_c, 0, 64, 58
1, 362291, Control_c, 0, 64, 64
1, 362293, Note_on_c, 0, 66, 58
1, 362306, Control_c, 0, 64, 69
1, 362318, Note_off_c, 0, 65, 56
1, 362320, Control_c, 0, 64, 78
1, 362335, Control_c, 0, 64, 87
1, 362342, Note_on_c, 0, 70, 72
1, 362342, Note_off_c, 0, 49, 63
1, 362349, Control_c, 0, 64, 89
1, 362352, Note_off_c, 0, 37, 62
1, 362354, Note_off_c, 0, 66, 60
1, 362364, Control_c, 0, 64, 83
1, 362379, Control_c, 0, 64, 69
1, 362393, Control_c, 0, 64, 59
1, 362405, Note_on_c, 0, 68, 72
1, 362408, Control_c, 0, 64, 52
1, 362414, Note_on_c, 0, 50, 66
1, 362421, Note_on_c, 0, 38, 63
1, 362423, Control_c, 0, 64, 53
1, 362438, Control_c, 0, 64, 58
1, 362453, Note_off_c, 0, 70, 32
1, 362453, Control_c, 0, 64, 63
1, 362468, Control_c, 0, 64, 70
1, 362477, Note_off_c, 0, 50, 62
1, 362482, Control_c, 0, 64, 83
1, 362491, Note_on_c, 0, 66, 61
1, 362497, Control_c, 0, 64, 103
1, 362512, Control_c, 0, 64, 127
1, 362518, Note_off_c, 0, 68, 61
1, 362539, Note_on_c, 0, 58, 62
1, 362542, Control_c, 0, 64, 98
1, 362557, Control_c, 0, 64, 77
1, 362558, Note_off_c, 0, 66, 60
1, 362572, Control_c, 0, 64, 64
1, 362575, Note_off_c, 0, 58, 63
1, 362586, Control_c, 0, 64, 60
1, 362587, Note_off_c, 0, 38, 59
1, 362593, Note_on_c, 0, 51, 64
1, 362596, Note_on_c, 0, 68, 83
1, 362599, Note_on_c, 0, 39, 59
1, 362601, Control_c, 0, 64, 62
1, 362616, Control_c, 0, 64, 67
1, 362631, Control_c, 0, 64, 73
1, 362646, Control_c, 0, 64, 82
1, 362660, Control_c, 0, 64, 94
1, 362666, Note_on_c, 0, 66, 71
1, 362675, Control_c, 0, 64, 122
1, 362688, Note_off_c, 0, 51, 61
1, 362691, Note_off_c, 0, 68, 63
1, 362691, Control_c, 0, 64, 127
1, 362731, Note_on_c, 0, 58, 63
1, 362737, Note_off_c, 0, 66, 62
1, 362743, Control_c, 0, 64, 106
1, 362748, Note_off_c, 0, 39, 62
1, 362758, Control_c, 0, 64, 76
1, 362772, Control_c, 0, 64, 62
1, 362787, Control_c, 0, 64, 55
1, 362796, Note_on_c, 0, 40, 61
1, 362797, Note_on_c, 0, 66, 85
1, 362798, Note_on_c, 0, 52, 61
1, 362801, Note_off_c, 0, 58, 46
1, 362802, Control_c, 0, 64, 56
1, 362816, Control_c, 0, 64, 62
1, 362831, Control_c, 0, 64, 68
1, 362846, Control_c, 0, 64, 80
1, 362861, Control_c, 0, 64, 103
1, 362876, Control_c, 0, 64, 127
1, 362879, Note_on_c, 0, 61, 63
1, 362911, Note_off_c, 0, 52, 49
1, 362945, Note_on_c, 0, 58, 67
1, 362950, Control_c, 0, 64, 114
1, 362950, Note_off_c, 0, 61, 60
1, 362965, Control_c, 0, 64, 79
1, 362976, Note_off_c, 0, 40, 57
1, 362977, Note_off_c, 0, 66, 41
1, 362980, Control_c, 0, 64, 60
1, 362995, Control_c, 0, 64, 46
1, 363006, Note_off_c, 0, 58, 60
1, 363009, Control_c, 0, 64, 39
1, 363010, Note_on_c, 0, 53, 66
1, 363014, Note_on_c, 0, 41, 60
1, 363023, Note_on_c, 0, 65, 85
1, 363024, Control_c, 0, 64, 44
1, 363039, Control_c, 0, 64, 54
1, 363054, Control_c, 0, 64, 62
1, 363069, Control_c, 0, 64, 69
1, 363083, Control_c, 0, 64, 82
1, 363091, Note_off_c, 0, 41, 59
1, 363098, Control_c, 0, 64, 98
1, 363105, Note_on_c, 0, 61, 61
1, 363113, Control_c, 0, 64, 119
1, 363128, Control_c, 0, 64, 127
1, 363131, Note_off_c, 0, 65, 61
1, 363163, Note_off_c, 0, 61, 62
1, 363169, Note_on_c, 0, 58, 62
1, 363196, Note_off_c, 0, 53, 37
1, 363198, Note_off_c, 0, 58, 65
1, 363285, Note_on_c, 0, 41, 51
1, 363350, Note_on_c, 0, 73, 88
1, 363350, Control_c, 0, 64, 117
1, 363352, Note_on_c, 0, 53, 55
1, 363365, Control_c, 0, 64, 87
1, 363380, Control_c, 0, 64, 71
1, 363395, Control_c, 0, 64, 62
1, 363409, Control_c, 0, 64, 54
1, 363424, Control_c, 0, 64, 45
1, 363433, Note_on_c, 0, 70, 65
1, 363439, Control_c, 0, 64, 32
1, 363461, Control_c, 0, 64, 0
1, 363536, Control_c, 0, 64, 36
1, 363551, Control_c, 0, 64, 51
1, 363556, Note_on_c, 0, 65, 53
1, 363565, Control_c, 0, 64, 61
1, 363580, Control_c, 0, 64, 66
1, 363595, Control_c, 0, 64, 70
1, 363610, Control_c, 0, 64, 74
1, 363625, Control_c, 0, 64, 78
1, 363634, Note_off_c, 0, 65, 61
1, 363635, Note_on_c, 0, 63, 62
1, 363639, Control_c, 0, 64, 84
1, 363654, Control_c, 0, 64, 91
1, 363669, Control_c, 0, 64, 98
1, 363684, Control_c, 0, 64, 106
1, 363699, Control_c, 0, 64, 112
1, 363709, Note_off_c, 0, 63, 56
1, 363711, Note_on_c, 0, 66, 61
1, 363714, Control_c, 0, 64, 119
1, 363728, Note_off_c, 0, 73, 37
1, 363728, Control_c, 0, 64, 127
1, 363790, Note_on_c, 0, 65, 57
1, 363797, Note_off_c, 0, 70, 32
1, 363800, Note_off_c, 0, 41, 40
1, 363813, Note_off_c, 0, 53, 47
1, 363880, Note_off_c, 0, 66, 47
1, 363918, Note_on_c, 0, 72, 72
1, 363920, Note_on_c, 0, 41, 43
1, 363921, Control_c, 0, 64, 108
1, 363929, Note_off_c, 0, 65, 57
1, 363936, Note_on_c, 0, 53, 37
1, 363936, Control_c, 0, 64, 86
1, 363951, Control_c, 0, 64, 70
1, 363965, Control_c, 0, 64, 59
1, 363980, Control_c, 0, 64, 41
1, 363995, Control_c, 0, 64, 0
1, 364043, Note_on_c, 0, 69, 54
1, 364054, Control_c, 0, 67, 20
1, 364069, Control_c, 0, 67, 24
1, 364083, Control_c, 0, 67, 28
1, 364098, Control_c, 0, 67, 33
1, 364113, Control_c, 0, 67, 41
1, 364126, Note_on_c, 0, 65, 55
1, 364128, Control_c, 0, 64, 44
1, 364128, Control_c, 0, 67, 55
1, 364143, Control_c, 0, 64, 57
1, 364143, Control_c, 0, 67, 66
1, 364158, Control_c, 0, 64, 62
1, 364158, Control_c, 0, 67, 75
1, 364173, Control_c, 0, 64, 64
1, 364173, Control_c, 0, 67, 84
1, 364188, Control_c, 0, 64, 66
1, 364188, Control_c, 0, 67, 91
1, 364210, Control_c, 0, 64, 69
1, 364210, Control_c, 0, 67, 95
1, 364225, Note_off_c, 0, 65, 61
1, 364225, Control_c, 0, 64, 74
1, 364225, Control_c, 0, 67, 98
1, 364232, Note_on_c, 0, 63, 51
1, 364239, Control_c, 0, 64, 79
1, 364239, Control_c, 0, 67, 100
1, 364254, Control_c, 0, 64, 86
1, 364254, Control_c, 0, 67, 104
1, 364269, Control_c, 0, 64, 91
1, 364269, Control_c, 0, 67, 108
1, 364285, Note_off_c, 0, 63, 54
1, 364285, Control_c, 0, 64, 97
1, 364285, Control_c, 0, 67, 112
1, 364300, Control_c, 0, 64, 103
1, 364300, Control_c, 0, 67, 114
1, 364315, Control_c, 0, 64, 109
1, 364330, Control_c, 0, 64, 119
1, 364332, Note_on_c, 0, 66, 52
1, 364344, Control_c, 0, 64, 127
1, 364349, Note_off_c, 0, 41, 40
1, 364402, Note_off_c, 0, 53, 52
1, 364422, Note_off_c, 0, 72, 58
1, 364442, Note_on_c, 0, 65, 57
1, 364488, Note_off_c, 0, 69, 36
1, 364511, Note_off_c, 0, 66, 40
1, 364526, Note_off_c, 0, 65, 49
1, 364684, Note_on_c, 0, 73, 60
1, 364692, Note_on_c, 0, 53, 44
1, 364700, Control_c, 0, 64, 98
1, 364704, Note_on_c, 0, 70, 51
1, 364709, Note_on_c, 0, 65, 25
1, 364709, Note_on_c, 0, 61, 46
1, 364715, Control_c, 0, 64, 81
1, 364730, Control_c, 0, 64, 68
1, 364745, Control_c, 0, 64, 57
1, 364760, Control_c, 0, 64, 45
1, 364775, Control_c, 0, 64, 30
1, 364789, Control_c, 0, 64, 0
1, 364839, Note_off_c, 0, 53, 58
1, 364849, Control_c, 0, 64, 35
1, 364861, Note_on_c, 0, 58, 41
1, 364863, Control_c, 0, 64, 45
1, 364878, Control_c, 0, 64, 58
1, 364893, Control_c, 0, 64, 66
1, 364893, Control_c, 0, 67, 116
1, 364907, Control_c, 0, 64, 73
1, 364922, Control_c, 0, 64, 81
1, 364937, Control_c, 0, 64, 91
1, 364960, Control_c, 0, 64, 107
1, 364966, Note_on_c, 0, 46, 55
1, 364975, Control_c, 0, 64, 127
1, 364980, Note_off_c, 0, 58, 58
1, 365013, Note_off_c, 0, 61, 36
1, 365052, Note_off_c, 0, 46, 62
1, 365085, Note_off_c, 0, 65, 42
1, 365087, Note_off_c, 0, 70, 55
1, 365090, Note_on_c, 0, 53, 21
1, 365123, Note_on_c, 0, 58, 59
1, 365145, Note_off_c, 0, 53, 41
1, 365153, Control_c, 0, 67, 114
1, 365206, Note_off_c, 0, 58, 62
1, 365226, Note_on_c, 0, 65, 49
1, 365259, Note_off_c, 0, 65, 51
1, 365272, Control_c, 0, 67, 112
1, 365299, Note_on_c, 0, 72, 67
1, 365317, Note_on_c, 0, 53, 49
1, 365337, Note_on_c, 0, 61, 44
1, 365375, Note_off_c, 0, 61, 49
1, 365390, Control_c, 0, 67, 110
1, 365401, Note_off_c, 0, 53, 58
1, 365414, Note_on_c, 0, 58, 53
1, 365478, Control_c, 0, 67, 108
1, 365486, Note_on_c, 0, 46, 55
1, 365489, Note_off_c, 0, 58, 61
1, 365532, Note_off_c, 0, 46, 63
1, 365538, Control_c, 0, 67, 106
1, 365550, Note_on_c, 0, 53, 60
1, 365553, Note_on_c, 0, 70, 72
1, 365568, Control_c, 0, 67, 104
1, 365598, Note_off_c, 0, 73, 12
1, 365612, Note_off_c, 0, 53, 53
1, 365621, Note_on_c, 0, 58, 54
1, 365641, Note_off_c, 0, 72, 32
1, 365674, Note_on_c, 0, 65, 69
1, 365684, Note_off_c, 0, 58, 63
1, 365717, Note_off_c, 0, 65, 61
1, 365761, Note_on_c, 0, 53, 54
1, 365764, Note_on_c, 0, 69, 71
1, 365782, Control_c, 0, 67, 102
1, 365812, Control_c, 0, 67, 98
1, 365827, Control_c, 0, 67, 96
1, 365842, Control_c, 0, 67, 95
1, 365856, Control_c, 0, 67, 94
1, 365869, Note_off_c, 0, 70, 37
1, 365870, Note_off_c, 0, 53, 37
1, 365872, Note_on_c, 0, 58, 61
1, 365899, Note_on_c, 0, 46, 49
1, 365910, Note_off_c, 0, 58, 63
1, 365927, Note_off_c, 0, 46, 65
1, 365940, Note_on_c, 0, 53, 47
1, 365961, Control_c, 0, 67, 95
1, 365970, Note_on_c, 0, 70, 79
1, 365976, Control_c, 0, 67, 95
1, 365980, Note_off_c, 0, 53, 60
1, 365982, Note_off_c, 0, 69, 60
1, 366006, Control_c, 0, 67, 96
1, 366007, Note_on_c, 0, 58, 68
1, 366063, Note_off_c, 0, 70, 58
1, 366076, Note_on_c, 0, 65, 67
1, 366093, Note_off_c, 0, 58, 63
1, 366095, Note_off_c, 0, 65, 64
1, 366198, Control_c, 0, 67, 95
1, 366227, Control_c, 0, 64, 82
1, 366227, Control_c, 0, 67, 95
1, 366241, Note_on_c, 0, 72, 73
1, 366242, Control_c, 0, 64, 59
1, 366242, Control_c, 0, 67, 94
1, 366255, Note_on_c, 0, 70, 59
1, 366257, Control_c, 0, 64, 36
1, 366259, Note_on_c, 0, 63, 59
1, 366272, Control_c, 0, 64, 37
1, 366272, Control_c, 0, 67, 94
1, 366286, Control_c, 0, 64, 50
1, 366301, Control_c, 0, 64, 60
1, 366316, Control_c, 0, 64, 68
1, 366316, Control_c, 0, 67, 93
1, 366323, Note_on_c, 0, 42, 63
1, 366331, Control_c, 0, 64, 85
1, 366331, Control_c, 0, 67, 93
1, 366346, Control_c, 0, 64, 127
1, 366346, Control_c, 0, 67, 92
1, 366361, Control_c, 0, 67, 89
1, 366369, Note_off_c, 0, 42, 64
1, 366376, Control_c, 0, 67, 81
1, 366381, Note_off_c, 0, 63, 60
1, 366390, Control_c, 0, 67, 74
1, 366405, Control_c, 0, 67, 68
1, 366410, Note_on_c, 0, 54, 48
1, 366420, Control_c, 0, 67, 63
1, 366429, Note_off_c, 0, 70, 59
1, 366435, Control_c, 0, 67, 60
1, 366436, Note_off_c, 0, 54, 56
1, 366457, Control_c, 0, 67, 58
1, 366458, Note_on_c, 0, 73, 72
1, 366470, Note_off_c, 0, 72, 36
1, 366472, Control_c, 0, 67, 57
1, 366486, Control_c, 0, 67, 57
1, 366516, Note_on_c, 0, 58, 73
1, 366560, Control_c, 0, 67, 57
1, 366575, Control_c, 0, 67, 58
1, 366583, Note_off_c, 0, 58, 60
1, 366589, Note_off_c, 0, 73, 56
1, 366590, Control_c, 0, 67, 59
1, 366599, Note_on_c, 0, 70, 52
1, 366605, Control_c, 0, 67, 60
1, 366620, Control_c, 0, 67, 61
1, 366621, Note_off_c, 0, 70, 64
1, 366631, Note_on_c, 0, 63, 74
1, 366635, Control_c, 0, 67, 62
1, 366656, Note_off_c, 0, 63, 69
1, 366673, Note_on_c, 0, 75, 63
1, 366698, Note_off_c, 0, 75, 66
1, 366709, Control_c, 0, 67, 61
1, 366724, Control_c, 0, 67, 60
1, 366739, Control_c, 0, 67, 58
1, 366741, Note_on_c, 0, 75, 84
1, 366746, Note_on_c, 0, 54, 79
1, 366749, Note_on_c, 0, 63, 73
1, 366754, Note_on_c, 0, 72, 48
1, 366754, Control_c, 0, 67, 57
1, 366768, Note_on_c, 0, 70, 49
1, 366769, Control_c, 0, 67, 56
1, 366784, Control_c, 0, 67, 53
1, 366799, Control_c, 0, 67, 47
1, 366805, Note_off_c, 0, 54, 61
1, 366814, Control_c, 0, 67, 40
1, 366829, Control_c, 0, 67, 32
1, 366830, Note_off_c, 0, 63, 60
1, 366836, Note_on_c, 0, 42, 66
1, 366843, Control_c, 0, 67, 24
1, 366857, Control_c, 0, 67, 0
1, 366869, Note_off_c, 0, 42, 64
1, 366885, Note_off_c, 0, 70, 56
1, 366894, Note_on_c, 0, 54, 70
1, 366919, Note_off_c, 0, 54, 69
1, 366939, Note_off_c, 0, 72, 56
1, 366978, Note_off_c, 0, 75, 60
1, 367002, Note_on_c, 0, 58, 66
1, 367040, Note_on_c, 0, 68, 64
1, 367075, Note_off_c, 0, 68, 65
1, 367100, Note_off_c, 0, 58, 60
1, 367116, Note_on_c, 0, 63, 20
1, 367156, Note_off_c, 0, 63, 50
1, 367198, Control_c, 0, 64, 74
1, 367220, Note_on_c, 0, 77, 80
1, 367220, Control_c, 0, 64, 59
1, 367222, Note_on_c, 0, 73, 72
1, 367228, Note_on_c, 0, 41, 75
1, 367229, Note_on_c, 0, 53, 75
1, 367235, Control_c, 0, 64, 60
1, 367250, Control_c, 0, 64, 68
1, 367258, Note_off_c, 0, 53, 67
1, 367263, Note_off_c, 0, 41, 63
1, 367264, Control_c, 0, 64, 84
1, 367279, Control_c, 0, 64, 127
1, 367317, Note_on_c, 0, 69, 57
1, 367317, Note_off_c, 0, 77, 61
1, 367339, Note_off_c, 0, 73, 61
1, 367356, Note_off_c, 0, 69, 60
1, 367375, Note_on_c, 0, 65, 65
1, 367389, Note_on_c, 0, 39, 68
1, 367401, Note_off_c, 0, 65, 67
1, 367404, Note_on_c, 0, 51, 44
1, 367418, Note_off_c, 0, 39, 62
1, 367435, Note_off_c, 0, 51, 53
1, 367468, Note_on_c, 0, 65, 72
1, 367520, Note_off_c, 0, 65, 62
1, 367549, Note_on_c, 0, 53, 72
1, 367586, Note_off_c, 0, 53, 63
1, 367591, Note_on_c, 0, 37, 65
1, 367601, Note_on_c, 0, 49, 74
1, 367608, Note_on_c, 0, 65, 73
1, 367631, Note_off_c, 0, 65, 71
1, 367692, Note_off_c, 0, 37, 51
1, 367707, Note_off_c, 0, 49, 56
1, 367799, Control_c, 0, 64, 82
1, 367814, Control_c, 0, 64, 57
1, 367821, Note_on_c, 0, 49, 75
1, 367821, Note_on_c, 0, 70, 73
1, 367824, Note_on_c, 0, 79, 82
1, 367824, Note_on_c, 0, 77, 74
1, 367829, Control_c, 0, 64, 0
1, 367873, Control_c, 0, 64, 40
1, 367888, Control_c, 0, 64, 58
1, 367893, Note_off_c, 0, 49, 60
1, 367903, Control_c, 0, 64, 72
1, 367918, Control_c, 0, 64, 105
1, 367932, Control_c, 0, 64, 127
1, 367965, Note_on_c, 0, 37, 65
1, 368012, Note_off_c, 0, 37, 62
1, 368033, Note_on_c, 0, 49, 68
1, 368062, Note_off_c, 0, 49, 66
1, 368068, Note_on_c, 0, 81, 83
1, 368152, Note_on_c, 0, 53, 72
1, 368164, Note_off_c, 0, 70, 61
1, 368173, Note_off_c, 0, 77, 57
1, 368179, Note_off_c, 0, 79, 63
1, 368180, Note_off_c, 0, 81, 60
1, 368209, Note_off_c, 0, 53, 59
1, 368233, Note_on_c, 0, 65, 57
1, 368255, Note_off_c, 0, 65, 62
1, 368274, Note_on_c, 0, 82, 74
1, 368277, Note_on_c, 0, 58, 59
1, 368297, Note_off_c, 0, 58, 63
1, 368298, Note_off_c, 0, 82, 68
1, 368300, Note_on_c, 0, 77, 33
1, 368313, Note_on_c, 0, 70, 14
1, 368315, Note_on_c, 0, 79, 11
1, 368338, Note_off_c, 0, 77, 0
1, 368345, Poly_aftertouch_c, 0, 77, 0
1, 368349, Note_off_c, 0, 70, 0
1, 368349, Note_on_c, 0, 70, 38
1, 368349, Note_on_c, 0, 82, 97
1, 368355, Note_on_c, 0, 77, 63
1, 368381, Note_on_c, 0, 49, 65
1, 368425, Note_off_c, 0, 49, 62
1, 368437, Note_on_c, 0, 37, 72
1, 368478, Note_off_c, 0, 37, 62
1, 368605, Note_on_c, 0, 53, 57
1, 368635, Note_on_c, 0, 52, 21
1, 368644, Note_on_c, 0, 65, 63
1, 368651, Note_off_c, 0, 53, 61
1, 368662, Note_off_c, 0, 70, 62
1, 368664, Note_off_c, 0, 65, 66
1, 368679, Note_off_c, 0, 52, 42
1, 368719, Note_on_c, 0, 58, 38
1, 368751, Note_off_c, 0, 77, 38
1, 368754, Note_off_c, 0, 58, 53
1, 368755, Note_off_c, 0, 79, 49
1, 368786, Note_off_c, 0, 82, 27
1, 368837, Note_on_c, 0, 36, 80
1, 368838, Note_on_c, 0, 82, 79
1, 368840, Note_on_c, 0, 48, 76
1, 368842, Note_on_c, 0, 84, 95
1, 368852, Control_c, 0, 64, 80
1, 368867, Control_c, 0, 64, 62
1, 368868, Note_off_c, 0, 36, 64
1, 368874, Note_off_c, 0, 48, 64
1, 368881, Control_c, 0, 64, 63
1, 368896, Control_c, 0, 64, 73
1, 368911, Control_c, 0, 64, 96
1, 368926, Control_c, 0, 64, 127
1, 368972, Note_off_c, 0, 84, 62
1, 368978, Note_on_c, 0, 77, 52
1, 368996, Note_off_c, 0, 82, 61
1, 369000, Control_c, 0, 64, 98
1, 369007, Note_on_c, 0, 46, 73
1, 369008, Note_on_c, 0, 34, 65
1, 369014, Control_c, 0, 64, 74
1, 369017, Note_on_c, 0, 72, 69
1, 369029, Control_c, 0, 64, 66
1, 369038, Note_off_c, 0, 46, 64
1, 369041, Note_off_c, 0, 34, 65
1, 369044, Control_c, 0, 64, 68
1, 369046, Note_off_c, 0, 77, 63
1, 369057, Note_off_c, 0, 72, 60
1, 369059, Control_c, 0, 64, 79
1, 369075, Control_c, 0, 64, 100
1, 369090, Control_c, 0, 64, 127
1, 369091, Note_on_c, 0, 85, 97
1, 369093, Note_on_c, 0, 82, 95
1, 369147, Note_on_c, 0, 32, 71
1, 369154, Note_on_c, 0, 44, 70
1, 369169, Note_on_c, 0, 77, 66
1, 369198, Note_off_c, 0, 44, 56
1, 369216, Note_off_c, 0, 32, 51
1, 369246, Note_on_c, 0, 73, 58
1, 369249, Note_off_c, 0, 77, 63
1, 369279, Note_off_c, 0, 85, 60
1, 369280, Note_off_c, 0, 73, 64
1, 369282, Note_off_c, 0, 82, 61
1, 369356, Control_c, 0, 64, 67
1, 369371, Control_c, 0, 64, 0
1, 369391, Note_on_c, 0, 30, 75
1, 369395, Note_on_c, 0, 88, 93
1, 369402, Note_on_c, 0, 76, 80
1, 369402, Note_on_c, 0, 82, 76
1, 369403, Note_on_c, 0, 42, 82
1, 369426, Note_off_c, 0, 30, 65
1, 369430, Control_c, 0, 64, 34
1, 369452, Note_off_c, 0, 42, 63
1, 369452, Control_c, 0, 64, 59
1, 369467, Control_c, 0, 64, 80
1, 369482, Control_c, 0, 64, 127
1, 369517, Note_off_c, 0, 88, 65
1, 369545, Note_off_c, 0, 82, 63
1, 369553, Note_off_c, 0, 76, 63
1, 369660, Note_on_c, 0, 58, 68
1, 369742, Note_on_c, 0, 49, 70
1, 369747, Note_off_c, 0, 58, 47
1, 369772, Note_off_c, 0, 49, 66
1, 369816, Note_on_c, 0, 52, 71
1, 369872, Note_off_c, 0, 52, 61
1, 369877, Note_on_c, 0, 58, 56
1, 369942, Note_off_c, 0, 58, 65
1, 369944, Note_on_c, 0, 64, 61
1, 369989, Note_off_c, 0, 64, 64
1, 370024, Note_on_c, 0, 58, 72
1, 370081, Note_on_c, 0, 70, 73
1, 370105, Note_off_c, 0, 58, 61
1, 370132, Note_off_c, 0, 70, 63
1, 370164, Note_on_c, 0, 61, 67
1, 370191, Note_off_c, 0, 61, 67
1, 370243, Note_on_c, 0, 64, 67
1, 370297, Note_on_c, 0, 70, 71
1, 370306, Note_off_c, 0, 64, 61
1, 370367, Note_on_c, 0, 76, 71
1, 370370, Note_off_c, 0, 70, 66
1, 370407, Note_off_c, 0, 76, 64
1, 370424, Note_on_c, 0, 70, 71
1, 370497, Note_on_c, 0, 82, 74
1, 370519, Note_off_c, 0, 70, 62
1, 370542, Note_off_c, 0, 82, 63
1, 370563, Note_on_c, 0, 73, 71
1, 370586, Note_off_c, 0, 73, 69
1, 370634, Note_on_c, 0, 76, 80
1, 370676, Note_on_c, 0, 82, 68
1, 370692, Note_off_c, 0, 76, 61
1, 370758, Note_on_c, 0, 88, 80
1, 370781, Note_off_c, 0, 82, 63
1, 370794, Note_off_c, 0, 88, 65
1, 371024, Control_c, 0, 64, 84
1, 371024, Control_c, 0, 67, 20
1, 371039, Control_c, 0, 64, 63
1, 371039, Control_c, 0, 67, 24
1, 371054, Control_c, 0, 64, 33
1, 371054, Control_c, 0, 67, 29
1, 371069, Control_c, 0, 64, 0
1, 371069, Control_c, 0, 67, 38
1, 371083, Control_c, 0, 67, 49
1, 371098, Control_c, 0, 67, 63
1, 371113, Control_c, 0, 67, 78
1, 371128, Control_c, 0, 67, 92
1, 371143, Control_c, 0, 67, 106
1, 371157, Control_c, 0, 67, 120
1, 371172, Control_c, 0, 67, 127
1, 371252, Note_on_c, 0, 78, 41
1, 371261, Note_on_c, 0, 87, 57
1, 371261, Control_c, 0, 64, 34
1, 371275, Note_on_c, 0, 75, 33
1, 371276, Control_c, 0, 64, 55
1, 371279, Note_on_c, 0, 30, 38
1, 371291, Control_c, 0, 64, 66
1, 371296, Note_on_c, 0, 42, 30
1, 371306, Control_c, 0, 64, 79
1, 371316, Note_off_c, 0, 30, 54
1, 371321, Control_c, 0, 64, 127
1, 371352, Note_off_c, 0, 42, 61
1, 371451, Note_off_c, 0, 87, 63
1, 371482, Note_off_c, 0, 78, 55
1, 371506, Note_off_c, 0, 75, 45
1, 371540, Note_on_c, 0, 56, 44
1, 371643, Note_off_c, 0, 56, 27
1, 371673, Note_on_c, 0, 51, 43
1, 371750, Note_off_c, 0, 51, 56
1, 371753, Note_on_c, 0, 78, 49
1, 371759, Note_on_c, 0, 80, 54
1, 371771, Note_on_c, 0, 68, 47
1, 371777, Note_on_c, 0, 54, 41
1, 371822, Note_off_c, 0, 54, 57
1, 371865, Note_on_c, 0, 59, 34
1, 371898, Note_off_c, 0, 59, 55
1, 371908, Note_off_c, 0, 68, 41
1, 371956, Note_on_c, 0, 66, 35
1, 371988, Note_off_c, 0, 66, 52
1, 372009, Note_on_c, 0, 63, 61
1, 372039, Note_off_c, 0, 63, 66
1, 372066, Note_off_c, 0, 78, 53
1, 372068, Note_on_c, 0, 66, 66
1, 372104, Note_off_c, 0, 66, 58
1, 372163, Note_on_c, 0, 63, 51
1, 372230, Note_on_c, 0, 66, 53
1, 372233, Note_off_c, 0, 80, 61
1, 372234, Note_on_c, 0, 78, 55
1, 372242, Note_on_c, 0, 70, 55
1, 372249, Note_on_c, 0, 82, 68
1, 372260, Note_off_c, 0, 63, 49
1, 372263, Note_off_c, 0, 70, 63
1, 372283, Note_off_c, 0, 66, 54
1, 372293, Note_on_c, 0, 71, 46
1, 372358, Note_off_c, 0, 71, 63
1, 372376, Note_on_c, 0, 75, 67
1, 372422, Note_off_c, 0, 75, 56
1, 372468, Note_on_c, 0, 71, 37
1, 372499, Note_off_c, 0, 71, 53
1, 372531, Note_off_c, 0, 78, 51
1, 372543, Note_on_c, 0, 66, 51
1, 372564, Note_on_c, 0, 63, 50
1, 372576, Note_off_c, 0, 66, 65
1, 372588, Note_off_c, 0, 63, 62
1, 372676, Note_on_c, 0, 78, 45
1, 372689, Note_on_c, 0, 83, 65
1, 372698, Note_on_c, 0, 71, 53
1, 372701, Note_off_c, 0, 82, 56
1, 372703, Note_on_c, 0, 59, 12
1, 372745, Note_off_c, 0, 59, 53
1, 372758, Note_on_c, 0, 54, 53
1, 372817, Note_off_c, 0, 54, 56
1, 372845, Note_on_c, 0, 51, 56
1, 372874, Note_off_c, 0, 51, 64
1, 372922, Note_off_c, 0, 71, 19
1, 372937, Note_off_c, 0, 78, 56
1, 372937, Note_off_c, 0, 83, 36
1, 373026, Control_c, 0, 64, 77
1, 373041, Control_c, 0, 64, 57
1, 373045, Note_on_c, 0, 30, 55
1, 373050, Note_on_c, 0, 83, 59
1, 373056, Control_c, 0, 64, 47
1, 373059, Note_on_c, 0, 42, 44
1, 373062, Note_on_c, 0, 71, 35
1, 373069, Note_on_c, 0, 79, 32
1, 373071, Control_c, 0, 64, 52
1, 373086, Control_c, 0, 64, 61
1, 373087, Note_off_c, 0, 30, 63
1, 373101, Control_c, 0, 64, 69
1, 373110, Note_off_c, 0, 42, 64
1, 373116, Control_c, 0, 64, 85
1, 373131, Control_c, 0, 64, 127
1, 373180, Note_off_c, 0, 83, 60
1, 373202, Note_off_c, 0, 71, 42
1, 373237, Note_off_c, 0, 79, 58
1, 373261, Note_on_c, 0, 55, 42
1, 373296, Note_off_c, 0, 55, 49
1, 373355, Note_on_c, 0, 42, 50
1, 373369, Note_on_c, 0, 85, 68
1, 373377, Note_on_c, 0, 73, 50
1, 373410, Note_off_c, 0, 73, 64
1, 373436, Note_on_c, 0, 50, 51
1, 373439, Note_off_c, 0, 42, 61
1, 373459, Note_off_c, 0, 85, 63
1, 373462, Note_off_c, 0, 50, 58
1, 373476, Note_on_c, 0, 55, 49
1, 373503, Note_off_c, 0, 55, 57
1, 373559, Note_on_c, 0, 79, 65
1, 373561, Note_on_c, 0, 74, 59
1, 373565, Note_on_c, 0, 86, 60
1, 373583, Note_off_c, 0, 74, 63
1, 373588, Note_off_c, 0, 86, 66
1, 373591, Note_off_c, 0, 79, 62
1, 373645, Note_on_c, 0, 86, 86
1, 373646, Note_on_c, 0, 67, 40
1, 373646, Note_on_c, 0, 71, 71
1, 373646, Note_on_c, 0, 79, 74
1, 373652, Note_on_c, 0, 74, 71
1, 373658, Note_on_c, 0, 62, 55
1, 373664, Note_off_c, 0, 86, 72
1, 373664, Note_off_c, 0, 71, 68
1, 373667, Note_off_c, 0, 79, 72
1, 373668, Note_off_c, 0, 74, 67
1, 373677, Note_off_c, 0, 67, 65
1, 373679, Note_off_c, 0, 62, 62
1, 373833, Note_on_c, 0, 71, 56
1, 373878, Note_on_c, 0, 66, 52
1, 373904, Note_off_c, 0, 66, 58
1, 373910, Note_off_c, 0, 71, 60
1, 373933, Note_on_c, 0, 67, 69
1, 373953, Note_on_c, 0, 42, 56
1, 373966, Note_off_c, 0, 67, 69
1, 374007, Note_on_c, 0, 71, 63
1, 374052, Note_on_c, 0, 74, 68
1, 374061, Note_off_c, 0, 71, 58
1, 374118, Note_on_c, 0, 66, 61
1, 374132, Note_off_c, 0, 74, 55
1, 374138, Note_off_c, 0, 42, 55
1, 374168, Note_on_c, 0, 50, 51
1, 374174, Note_off_c, 0, 66, 57
1, 374191, Note_on_c, 0, 67, 59
1, 374251, Note_on_c, 0, 64, 60
1, 374259, Note_off_c, 0, 67, 64
1, 374284, Note_off_c, 0, 64, 63
1, 374307, Note_off_c, 0, 50, 59
1, 374323, Note_on_c, 0, 66, 47
1, 374347, Note_off_c, 0, 66, 59
1, 374373, Note_on_c, 0, 67, 58
1, 374374, Note_on_c, 0, 55, 43
1, 374434, Note_off_c, 0, 67, 57
1, 374460, Note_on_c, 0, 71, 52
1, 374471, Note_on_c, 0, 72, 40
1, 374484, Note_off_c, 0, 71, 60
1, 374498, Note_off_c, 0, 72, 50
1, 374501, Note_off_c, 0, 55, 61
1, 374525, Note_on_c, 0, 62, 57
1, 374543, Note_on_c, 0, 59, 57
1, 374564, Note_off_c, 0, 62, 55
1, 374566, Note_off_c, 0, 59, 64
1, 374603, Note_on_c, 0, 67, 63
1, 374657, Note_off_c, 0, 67, 59
1, 374664, Note_on_c, 0, 61, 55
1, 374718, Note_off_c, 0, 61, 60
1, 374737, Note_on_c, 0, 62, 55
1, 374791, Note_off_c, 0, 62, 55
1, 374796, Note_on_c, 0, 67, 56
1, 374859, Note_off_c, 0, 67, 63
1, 374868, Note_on_c, 0, 59, 61
1, 374893, Note_off_c, 0, 59, 69
1, 375124, Control_c, 0, 64, 107
1, 375139, Control_c, 0, 64, 68
1, 375145, Note_on_c, 0, 88, 71
1, 375154, Control_c, 0, 64, 46
1, 375160, Note_on_c, 0, 79, 51
1, 375169, Control_c, 0, 64, 0
1, 375172, Note_on_c, 0, 30, 45
1, 375173, Note_on_c, 0, 76, 55
1, 375181, Note_on_c, 0, 42, 35
1, 375184, Control_c, 0, 64, 31
1, 375199, Control_c, 0, 64, 49
1, 375200, Note_off_c, 0, 30, 52
1, 375214, Control_c, 0, 64, 62
1, 375216, Note_off_c, 0, 42, 65
1, 375229, Control_c, 0, 64, 75
1, 375243, Control_c, 0, 64, 127
1, 375318, Note_off_c, 0, 88, 65
1, 375334, Note_off_c, 0, 79, 64
1, 375345, Note_off_c, 0, 76, 62
1, 375357, Note_on_c, 0, 55, 58
1, 375384, Note_off_c, 0, 55, 63
1, 375432, Note_on_c, 0, 52, 54
1, 375508, Note_off_c, 0, 52, 55
1, 375534, Note_on_c, 0, 79, 51
1, 375535, Note_on_c, 0, 55, 45
1, 375544, Note_on_c, 0, 81, 63
1, 375569, Note_on_c, 0, 69, 25
1, 375578, Note_off_c, 0, 55, 62
1, 375622, Note_on_c, 0, 60, 51
1, 375643, Note_off_c, 0, 69, 40
1, 375658, Note_off_c, 0, 60, 65
1, 375702, Note_on_c, 0, 67, 53
1, 375747, Note_off_c, 0, 67, 59
1, 375765, Note_on_c, 0, 64, 54
1, 375800, Note_off_c, 0, 64, 60
1, 375825, Note_on_c, 0, 67, 61
1, 375841, Note_off_c, 0, 79, 39
1, 375857, Note_off_c, 0, 67, 65
1, 375895, Note_on_c, 0, 64, 64
1, 375953, Note_on_c, 0, 79, 70
1, 375957, Note_off_c, 0, 64, 61
1, 375962, Note_on_c, 0, 83, 72
1, 375968, Note_on_c, 0, 71, 53
1, 375975, Note_off_c, 0, 81, 58
1, 375980, Note_on_c, 0, 67, 52
1, 375989, Note_off_c, 0, 71, 61
1, 376011, Note_off_c, 0, 67, 66
1, 376051, Note_on_c, 0, 72, 45
1, 376084, Note_off_c, 0, 72, 64
1, 376120, Note_on_c, 0, 76, 67
1, 376150, Note_off_c, 0, 76, 63
1, 376164, Note_off_c, 0, 79, 55
1, 376180, Note_on_c, 0, 72, 63
1, 376240, Note_off_c, 0, 72, 54
1, 376285, Note_on_c, 0, 67, 46
1, 376301, Note_on_c, 0, 64, 47
1, 376314, Note_off_c, 0, 67, 66
1, 376323, Note_off_c, 0, 64, 63
1, 376376, Note_on_c, 0, 79, 54
1, 376386, Note_on_c, 0, 84, 71
1, 376395, Note_on_c, 0, 72, 52
1, 376403, Note_on_c, 0, 60, 49
1, 376406, Note_off_c, 0, 83, 39
1, 376409, Note_off_c, 0, 79, 64
1, 376417, Note_off_c, 0, 72, 62
1, 376427, Note_off_c, 0, 60, 59
1, 376458, Note_off_c, 0, 84, 61
1, 376463, Note_on_c, 0, 55, 61
1, 376528, Note_off_c, 0, 55, 61
1, 376551, Note_on_c, 0, 52, 48
1, 376580, Note_off_c, 0, 52, 54
1, 376651, Control_c, 0, 64, 86
1, 376666, Control_c, 0, 64, 61
1, 376678, Note_on_c, 0, 85, 74
1, 376681, Note_on_c, 0, 73, 66
1, 376681, Control_c, 0, 64, 33
1, 376688, Note_on_c, 0, 82, 64
1, 376695, Control_c, 0, 64, 38
1, 376697, Note_on_c, 0, 30, 56
1, 376701, Note_on_c, 0, 42, 59
1, 376710, Control_c, 0, 64, 57
1, 376725, Control_c, 0, 64, 68
1, 376728, Note_off_c, 0, 30, 50
1, 376728, Note_off_c, 0, 42, 65
1, 376740, Control_c, 0, 64, 88
1, 376755, Control_c, 0, 64, 127
1, 376796, Note_off_c, 0, 73, 59
1, 376859, Note_on_c, 0, 52, 54
1, 376891, Note_off_c, 0, 52, 57
1, 376916, Note_on_c, 0, 42, 66
1, 376916, Note_on_c, 0, 74, 65
1, 376919, Note_on_c, 0, 86, 71
1, 376979, Note_off_c, 0, 85, 57
1, 376982, Note_off_c, 0, 74, 56
1, 376995, Note_on_c, 0, 49, 59
1, 376995, Note_off_c, 0, 42, 61
1, 377008, Note_off_c, 0, 82, 39
1, 377021, Note_on_c, 0, 52, 46
1, 377053, Note_off_c, 0, 49, 57
1, 377068, Note_off_c, 0, 86, 59
1, 377081, Note_off_c, 0, 52, 62
1, 377086, Note_on_c, 0, 55, 37
1, 377114, Note_off_c, 0, 55, 52
1, 377151, Note_on_c, 0, 76, 59
1, 377154, Note_on_c, 0, 82, 54
1, 377157, Note_on_c, 0, 88, 51
1, 377175, Note_off_c, 0, 82, 63
1, 377177, Note_off_c, 0, 88, 61
1, 377180, Note_off_c, 0, 76, 65
1, 377193, Control_c, 0, 64, 93
1, 377208, Control_c, 0, 64, 70
1, 377223, Control_c, 0, 64, 66
1, 377226, Note_on_c, 0, 70, 65
1, 377227, Note_on_c, 0, 88, 84
1, 377229, Note_on_c, 0, 61, 62
1, 377231, Note_on_c, 0, 82, 78
1, 377232, Note_on_c, 0, 64, 60
1, 377236, Note_on_c, 0, 76, 66
1, 377237, Control_c, 0, 64, 82
1, 377245, Note_off_c, 0, 70, 67
1, 377246, Note_off_c, 0, 88, 73
1, 377251, Note_off_c, 0, 82, 70
1, 377252, Note_off_c, 0, 76, 66
1, 377252, Control_c, 0, 64, 127
1, 377262, Note_off_c, 0, 61, 64
1, 377262, Note_off_c, 0, 64, 65
1, 377384, Note_on_c, 0, 76, 58
1, 377453, Note_on_c, 0, 72, 59
1, 377453, Note_off_c, 0, 76, 62
1, 377503, Note_on_c, 0, 42, 56
1, 377504, Note_off_c, 0, 72, 57
1, 377506, Note_on_c, 0, 73, 59
1, 377536, Note_off_c, 0, 73, 63
1, 377559, Note_on_c, 0, 76, 59
1, 377605, Note_off_c, 0, 76, 58
1, 377608, Note_on_c, 0, 79, 68
1, 377617, Note_off_c, 0, 42, 60
1, 377646, Note_off_c, 0, 79, 62
1, 377665, Note_on_c, 0, 72, 64
1, 377695, Note_on_c, 0, 52, 55
1, 377708, Note_off_c, 0, 72, 60
1, 377750, Note_on_c, 0, 73, 69
1, 377794, Note_off_c, 0, 73, 50
1, 377815, Note_on_c, 0, 71, 59
1, 377840, Note_off_c, 0, 71, 65
1, 377852, Control_c, 0, 64, 102
1, 377859, Note_off_c, 0, 52, 36
1, 377862, Note_on_c, 0, 72, 49
1, 377867, Control_c, 0, 64, 97
1, 377874, Note_on_c, 0, 58, 43
1, 377882, Control_c, 0, 64, 105
1, 377897, Note_off_c, 0, 72, 47
1, 377897, Control_c, 0, 64, 127
1, 377902, Note_off_c, 0, 58, 56
1, 377903, Note_on_c, 0, 73, 70
1, 377965, Note_off_c, 0, 73, 60
1, 377966, Note_on_c, 0, 76, 63
1, 378007, Note_off_c, 0, 76, 50
1, 378025, Note_on_c, 0, 69, 53
1, 378026, Note_on_c, 0, 64, 54
1, 378047, Note_off_c, 0, 64, 63
1, 378069, Note_on_c, 0, 70, 62
1, 378070, Note_off_c, 0, 69, 50
1, 378110, Note_off_c, 0, 70, 62
1, 378144, Note_on_c, 0, 73, 65
1, 378180, Note_off_c, 0, 73, 59
1, 378229, Note_on_c, 0, 65, 52
1, 378260, Note_off_c, 0, 65, 54
1, 378297, Note_on_c, 0, 66, 54
1, 378345, Note_off_c, 0, 66, 55
1, 378364, Note_on_c, 0, 70, 52
1, 378627, Note_off_c, 0, 70, 63
1, 378636, Note_on_c, 0, 71, 64
1, 378651, Note_on_c, 0, 67, 44
1, 378654, Note_on_c, 0, 62, 38
1, 378660, Note_on_c, 0, 50, 45
1, 378676, Control_c, 0, 64, 84
1, 378690, Control_c, 0, 64, 66
1, 378705, Control_c, 0, 64, 50
1, 378720, Control_c, 0, 64, 0
1, 378801, Note_off_c, 0, 50, 58
1, 378809, Control_c, 0, 64, 50
1, 378821, Note_on_c, 0, 53, 45
1, 378824, Control_c, 0, 64, 67
1, 378839, Control_c, 0, 64, 76
1, 378854, Control_c, 0, 64, 88
1, 378868, Control_c, 0, 64, 103
1, 378877, Note_off_c, 0, 53, 58
1, 378883, Control_c, 0, 64, 127
1, 378890, Note_on_c, 0, 43, 45
1, 378926, Note_off_c, 0, 43, 51
1, 378964, Note_on_c, 0, 50, 58
1, 379010, Note_off_c, 0, 62, 58
1, 379015, Note_off_c, 0, 50, 52
1, 379063, Note_on_c, 0, 53, 39
1, 379094, Note_off_c, 0, 53, 49
1, 379119, Note_on_c, 0, 59, 47
1, 379158, Note_off_c, 0, 59, 54
1, 379176, Note_off_c, 0, 67, 52
1, 379209, Note_on_c, 0, 62, 46
1, 379210, Note_on_c, 0, 69, 67
1, 379215, Note_on_c, 0, 50, 47
1, 379241, Note_off_c, 0, 71, 55
1, 379261, Control_c, 0, 64, 117
1, 379265, Note_off_c, 0, 50, 57
1, 379276, Control_c, 0, 64, 111
1, 379305, Control_c, 0, 64, 127
1, 379317, Note_on_c, 0, 53, 48
1, 379351, Note_off_c, 0, 53, 64
1, 379360, Note_on_c, 0, 43, 49
1, 379392, Note_off_c, 0, 43, 59
1, 379432, Note_on_c, 0, 50, 55
1, 379447, Note_off_c, 0, 69, 61
1, 379449, Note_on_c, 0, 67, 71
1, 379480, Note_off_c, 0, 50, 59
1, 379517, Note_on_c, 0, 53, 53
1, 379549, Note_off_c, 0, 53, 60
1, 379567, Note_on_c, 0, 59, 62
1, 379620, Note_off_c, 0, 59, 61
1, 379662, Note_on_c, 0, 69, 75
1, 379664, Note_on_c, 0, 50, 56
1, 379691, Control_c, 0, 64, 106
1, 379703, Note_off_c, 0, 67, 59
1, 379714, Note_off_c, 0, 50, 60
1, 379721, Control_c, 0, 64, 108
1, 379736, Control_c, 0, 64, 127
1, 379753, Note_on_c, 0, 53, 63
1, 379782, Note_on_c, 0, 43, 36
1, 379784, Note_on_c, 0, 45, 47
1, 379788, Note_off_c, 0, 53, 55
1, 379795, Control_c, 0, 67, 121
1, 379810, Control_c, 0, 67, 117
1, 379815, Note_off_c, 0, 45, 60
1, 379825, Note_off_c, 0, 43, 49
1, 379825, Control_c, 0, 67, 113
1, 379839, Control_c, 0, 67, 111
1, 379854, Note_on_c, 0, 50, 58
1, 379859, Note_on_c, 0, 71, 83
1, 379888, Note_off_c, 0, 50, 63
1, 379896, Note_off_c, 0, 69, 61
1, 379906, Note_off_c, 0, 62, 62
1, 379918, Note_on_c, 0, 54, 31
1, 379918, Note_off_c, 0, 54, 127
1, 379937, Note_off_c, 0, 71, 65
1, 379951, Note_on_c, 0, 53, 36
1, 379960, Poly_aftertouch_c, 0, 54, 0
1, 379989, Note_off_c, 0, 53, 47
1, 380000, Note_on_c, 0, 59, 58
1, 380029, Note_off_c, 0, 59, 58
1, 380122, Note_on_c, 0, 73, 82
1, 380123, Note_on_c, 0, 70, 72
1, 380125, Note_on_c, 0, 49, 62
1, 380127, Note_on_c, 0, 64, 65
1, 380128, Control_c, 0, 64, 86
1, 380143, Control_c, 0, 64, 66
1, 380143, Control_c, 0, 67, 109
1, 380157, Control_c, 0, 64, 58
1, 380172, Control_c, 0, 64, 61
1, 380172, Control_c, 0, 67, 104
1, 380187, Control_c, 0, 64, 67
1, 380187, Control_c, 0, 67, 97
1, 380199, Note_off_c, 0, 49, 62
1, 380202, Control_c, 0, 64, 74
1, 380202, Control_c, 0, 67, 88
1, 380217, Control_c, 0, 64, 91
1, 380217, Control_c, 0, 67, 78
1, 380232, Control_c, 0, 64, 127
1, 380232, Control_c, 0, 67, 64
1, 380237, Note_on_c, 0, 52, 45
1, 380246, Control_c, 0, 67, 52
1, 380262, Control_c, 0, 67, 41
1, 380277, Control_c, 0, 67, 29
1, 380280, Note_on_c, 0, 43, 61
1, 380292, Control_c, 0, 67, 0
1, 380312, Note_on_c, 0, 74, 82
1, 380331, Note_off_c, 0, 43, 60
1, 380339, Note_off_c, 0, 52, 45
1, 380367, Note_on_c, 0, 49, 61
1, 380415, Note_off_c, 0, 49, 62
1, 380423, Note_off_c, 0, 73, 49
1, 380427, Note_off_c, 0, 70, 51
1, 380437, Note_on_c, 0, 52, 68
1, 380439, Note_off_c, 0, 64, 60
1, 380440, Note_off_c, 0, 74, 60
1, 380478, Note_off_c, 0, 52, 60
1, 380508, Note_on_c, 0, 76, 75
1, 380514, Note_on_c, 0, 58, 42
1, 380533, Note_off_c, 0, 76, 66
1, 380541, Note_off_c, 0, 58, 56
1, 380582, Note_on_c, 0, 70, 79
1, 380584, Note_on_c, 0, 76, 84
1, 380587, Note_on_c, 0, 64, 71
1, 380592, Note_on_c, 0, 49, 57
1, 380603, Control_c, 0, 64, 85
1, 380618, Control_c, 0, 64, 64
1, 380629, Note_off_c, 0, 49, 62
1, 380633, Control_c, 0, 64, 60
1, 380648, Control_c, 0, 64, 65
1, 380663, Control_c, 0, 64, 72
1, 380668, Note_on_c, 0, 52, 55
1, 380685, Control_c, 0, 64, 86
1, 380700, Control_c, 0, 64, 127
1, 380718, Note_on_c, 0, 43, 60
1, 380732, Note_off_c, 0, 52, 61
1, 380752, Note_off_c, 0, 43, 58
1, 380796, Note_on_c, 0, 49, 63
1, 380833, Note_off_c, 0, 49, 65
1, 380866, Note_on_c, 0, 52, 62
1, 380904, Note_off_c, 0, 52, 61
1, 380913, Note_on_c, 0, 58, 54
1, 380945, Note_off_c, 0, 58, 65
1, 380999, Note_on_c, 0, 49, 68
1, 381056, Control_c, 0, 64, 80
1, 381071, Control_c, 0, 64, 61
1, 381077, Note_off_c, 0, 49, 59
1, 381085, Control_c, 0, 64, 43
1, 381089, Note_on_c, 0, 52, 56
1, 381100, Control_c, 0, 64, 37
1, 381115, Control_c, 0, 64, 42
1, 381129, Control_c, 0, 64, 52
1, 381144, Control_c, 0, 64, 60
1, 381144, Control_c, 0, 67, 21
1, 381152, Note_on_c, 0, 42, 68
1, 381159, Control_c, 0, 64, 67
1, 381159, Control_c, 0, 67, 25
1, 381162, Note_off_c, 0, 52, 56
1, 381174, Control_c, 0, 64, 76
1, 381174, Control_c, 0, 67, 28
1, 381189, Control_c, 0, 64, 91
1, 381189, Control_c, 0, 67, 33
1, 381203, Control_c, 0, 64, 113
1, 381203, Control_c, 0, 67, 42
1, 381218, Control_c, 0, 64, 127
1, 381218, Control_c, 0, 67, 53
1, 381226, Note_off_c, 0, 42, 59
1, 381233, Control_c, 0, 67, 68
1, 381241, Note_on_c, 0, 49, 66
1, 381248, Control_c, 0, 67, 86
1, 381263, Control_c, 0, 67, 100
1, 381277, Control_c, 0, 67, 114
1, 381292, Control_c, 0, 67, 127
1, 381329, Note_on_c, 0, 52, 59
1, 381386, Note_off_c, 0, 49, 32
1, 381418, Note_on_c, 0, 58, 43
1, 381441, Note_off_c, 0, 76, 59
1, 381457, Note_off_c, 0, 52, 59
1, 381459, Note_off_c, 0, 58, 64
1, 381517, Note_off_c, 0, 64, 56
1, 381536, Note_off_c, 0, 70, 50
1, 381744, Control_c, 0, 64, 87
1, 381748, Note_on_c, 0, 77, 61
1, 381753, Note_on_c, 0, 29, 54
1, 381754, Note_on_c, 0, 41, 44
1, 381759, Control_c, 0, 64, 65
1, 381766, Note_on_c, 0, 73, 43
1, 381772, Note_on_c, 0, 65, 44
1, 381773, Note_on_c, 0, 70, 31
1, 381774, Control_c, 0, 64, 45
1, 381789, Control_c, 0, 64, 0
1, 381849, Control_c, 0, 64, 41
1, 381864, Control_c, 0, 64, 57
1, 381878, Control_c, 0, 64, 67
1, 381893, Control_c, 0, 64, 76
1, 381896, Note_off_c, 0, 77, 64
1, 381908, Control_c, 0, 64, 86
1, 381921, Note_off_c, 0, 73, 63
1, 381923, Note_off_c, 0, 70, 64
1, 381923, Control_c, 0, 64, 92
1, 381930, Note_off_c, 0, 65, 64
1, 381938, Control_c, 0, 64, 96
1, 381952, Control_c, 0, 64, 99
1, 382109, Note_on_c, 0, 53, 50
1, 382182, Note_off_c, 0, 53, 51
1, 382187, Note_on_c, 0, 58, 56
1, 382230, Note_off_c, 0, 58, 61
1, 382260, Note_on_c, 0, 60, 60
1, 382271, Control_c, 0, 64, 91
1, 382285, Control_c, 0, 64, 76
1, 382295, Note_off_c, 0, 60, 68
1, 382300, Control_c, 0, 64, 64
1, 382315, Control_c, 0, 64, 54
1, 382330, Control_c, 0, 64, 53
1, 382335, Note_on_c, 0, 66, 44
1, 382345, Control_c, 0, 64, 57
1, 382359, Control_c, 0, 64, 62
1, 382374, Note_off_c, 0, 66, 48
1, 382374, Control_c, 0, 64, 66
1, 382389, Control_c, 0, 64, 71
1, 382398, Note_on_c, 0, 61, 62
1, 382404, Control_c, 0, 64, 76
1, 382419, Control_c, 0, 64, 79
1, 382428, Note_off_c, 0, 29, 63
1, 382434, Control_c, 0, 64, 80
1, 382447, Note_off_c, 0, 41, 62
1, 382467, Note_on_c, 0, 65, 69
1, 382490, Note_off_c, 0, 61, 56
1, 382544, Note_on_c, 0, 53, 57
1, 382576, Note_off_c, 0, 53, 64
1, 382583, Control_c, 0, 64, 81
1, 382603, Note_off_c, 0, 65, 55
1, 382604, Note_on_c, 0, 36, 54
1, 382613, Note_on_c, 0, 58, 49
1, 382613, Control_c, 0, 64, 80
1, 382615, Note_on_c, 0, 48, 36
1, 382627, Control_c, 0, 64, 76
1, 382642, Control_c, 0, 64, 69
1, 382649, Note_off_c, 0, 58, 61
1, 382652, Note_off_c, 0, 48, 44
1, 382657, Control_c, 0, 64, 62
1, 382666, Note_on_c, 0, 60, 67
1, 382672, Control_c, 0, 64, 56
1, 382687, Control_c, 0, 64, 55
1, 382702, Control_c, 0, 64, 56
1, 382717, Control_c, 0, 64, 59
1, 382717, Note_off_c, 0, 60, 58
1, 382732, Control_c, 0, 64, 62
1, 382747, Control_c, 0, 64, 65
1, 382749, Note_on_c, 0, 63, 63
1, 382750, Note_off_c, 0, 36, 58
1, 382762, Control_c, 0, 64, 67
1, 382776, Control_c, 0, 64, 69
1, 382781, Note_on_c, 0, 37, 61
1, 382791, Control_c, 0, 64, 70
1, 382804, Note_off_c, 0, 63, 63
1, 382806, Control_c, 0, 64, 71
1, 382820, Note_on_c, 0, 58, 36
1, 382821, Control_c, 0, 64, 71
1, 382880, Control_c, 0, 64, 71
1, 382885, Note_on_c, 0, 61, 66
1, 382888, Note_off_c, 0, 58, 62
1, 382894, Control_c, 0, 64, 69
1, 382909, Control_c, 0, 64, 67
1, 382931, Control_c, 0, 64, 66
1, 382946, Control_c, 0, 64, 65
1, 382949, Note_on_c, 0, 53, 66
1, 382950, Note_off_c, 0, 37, 62
1, 382954, Note_off_c, 0, 61, 55
1, 382961, Control_c, 0, 64, 64
1, 382976, Control_c, 0, 64, 64
1, 382989, Note_off_c, 0, 53, 62
1, 382991, Control_c, 0, 64, 63
1, 382992, Note_on_c, 0, 41, 68
1, 382996, Note_on_c, 0, 29, 67
1, 383006, Control_c, 0, 64, 63
1, 383019, Note_on_c, 0, 58, 69
1, 383021, Control_c, 0, 64, 61
1, 383036, Control_c, 0, 64, 59
1, 383051, Control_c, 0, 64, 56
1, 383065, Control_c, 0, 64, 52
1, 383080, Note_off_c, 0, 58, 64
1, 383080, Control_c, 0, 64, 47
1, 383081, Note_on_c, 0, 60, 70
1, 383095, Control_c, 0, 64, 41
1, 383109, Control_c, 0, 64, 36
1, 383124, Control_c, 0, 64, 35
1, 383139, Control_c, 0, 64, 36
1, 383150, Note_off_c, 0, 60, 66
1, 383152, Note_on_c, 0, 66, 83
1, 383154, Control_c, 0, 64, 42
1, 383169, Control_c, 0, 64, 51
1, 383183, Control_c, 0, 64, 59
1, 383198, Control_c, 0, 64, 64
1, 383207, Note_off_c, 0, 66, 61
1, 383213, Control_c, 0, 64, 68
1, 383227, Control_c, 0, 64, 69
1, 383236, Note_on_c, 0, 61, 69
1, 383242, Control_c, 0, 64, 70
1, 383286, Note_off_c, 0, 29, 63
1, 383301, Control_c, 0, 64, 69
1, 383306, Note_on_c, 0, 65, 68
1, 383313, Note_off_c, 0, 61, 61
1, 383316, Note_off_c, 0, 41, 63
1, 383331, Control_c, 0, 64, 69
1, 383373, Note_on_c, 0, 53, 53
1, 383405, Control_c, 0, 64, 68
1, 383409, Note_off_c, 0, 53, 62
1, 383420, Note_off_c, 0, 65, 40
1, 383420, Control_c, 0, 64, 66
1, 383435, Control_c, 0, 64, 63
1, 383444, Note_on_c, 0, 58, 56
1, 383446, Note_on_c, 0, 36, 52
1, 383451, Control_c, 0, 64, 58
1, 383453, Note_on_c, 0, 48, 44
1, 383466, Control_c, 0, 64, 54
1, 383480, Control_c, 0, 64, 50
1, 383485, Note_off_c, 0, 48, 58
1, 383486, Note_off_c, 0, 58, 63
1, 383495, Control_c, 0, 64, 48
1, 383502, Note_on_c, 0, 60, 66
1, 383510, Control_c, 0, 64, 47
1, 383578, Note_off_c, 0, 60, 58
1, 383582, Note_on_c, 0, 63, 58
1, 383609, Note_off_c, 0, 36, 57
1, 383653, Note_on_c, 0, 58, 44
1, 383655, Note_on_c, 0, 37, 46
1, 383656, Note_off_c, 0, 63, 56
1, 383710, Control_c, 0, 64, 48
1, 383733, Note_on_c, 0, 61, 53
1, 383739, Control_c, 0, 64, 48
1, 383740, Note_off_c, 0, 58, 64
1, 383769, Control_c, 0, 64, 48
1, 383784, Note_on_c, 0, 53, 57
1, 383799, Control_c, 0, 64, 47
1, 383805, Note_off_c, 0, 61, 50
1, 383814, Control_c, 0, 64, 44
1, 383829, Control_c, 0, 64, 42
1, 383835, Note_off_c, 0, 37, 61
1, 383844, Control_c, 0, 64, 39
1, 383852, Note_off_c, 0, 53, 59
1, 383858, Control_c, 0, 64, 38
1, 383887, Note_on_c, 0, 60, 58
1, 383888, Note_on_c, 0, 41, 55
1, 383888, Control_c, 0, 64, 39
1, 383888, Note_on_c, 0, 29, 51
1, 383903, Control_c, 0, 64, 42
1, 383918, Control_c, 0, 64, 47
1, 383932, Control_c, 0, 64, 53
1, 383947, Control_c, 0, 64, 60
1, 383959, Note_off_c, 0, 29, 50
1, 383962, Control_c, 0, 64, 65
1, 383970, Note_off_c, 0, 60, 62
1, 383973, Note_on_c, 0, 61, 54
1, 383977, Control_c, 0, 64, 70
1, 383992, Control_c, 0, 64, 74
1, 384006, Control_c, 0, 64, 78
1, 384007, Note_off_c, 0, 41, 58
1, 384021, Control_c, 0, 64, 80
1, 384036, Control_c, 0, 64, 82
1, 384047, Note_on_c, 0, 65, 51
1, 384050, Control_c, 0, 64, 84
1, 384052, Note_off_c, 0, 61, 60
1, 384065, Control_c, 0, 64, 86
1, 384080, Control_c, 0, 64, 87
1, 384097, Note_off_c, 0, 65, 57
1, 384120, Note_on_c, 0, 60, 45
1, 384124, Note_on_c, 0, 49, 61
1, 384153, Note_off_c, 0, 49, 65
1, 384197, Note_off_c, 0, 60, 64
1, 384202, Note_on_c, 0, 58, 58
1, 384228, Control_c, 0, 64, 88
1, 384238, Note_off_c, 0, 58, 66
1, 384243, Control_c, 0, 64, 89
1, 384259, Control_c, 0, 64, 93
1, 384273, Control_c, 0, 64, 101
1, 384277, Note_on_c, 0, 53, 64
1, 384288, Control_c, 0, 64, 127
1, 384313, Note_off_c, 0, 53, 64
1, 384344, Note_on_c, 0, 30, 74
1, 384344, Note_on_c, 0, 42, 74
1, 384346, Note_on_c, 0, 60, 63
1, 384347, Control_c, 0, 64, 101
1, 384362, Control_c, 0, 64, 72
1, 384377, Control_c, 0, 64, 56
1, 384392, Control_c, 0, 64, 39
1, 384407, Control_c, 0, 64, 37
1, 384409, Note_off_c, 0, 30, 62
1, 384429, Control_c, 0, 64, 45
1, 384430, Note_on_c, 0, 61, 71
1, 384440, Note_off_c, 0, 60, 60
1, 384444, Control_c, 0, 64, 55
1, 384459, Control_c, 0, 64, 62
1, 384474, Control_c, 0, 64, 67
1, 384476, Note_off_c, 0, 42, 63
1, 384488, Control_c, 0, 64, 74
1, 384500, Note_on_c, 0, 65, 62
1, 384503, Control_c, 0, 64, 78
1, 384518, Control_c, 0, 64, 80
1, 384519, Note_off_c, 0, 61, 61
1, 384533, Control_c, 0, 64, 81
1, 384555, Note_on_c, 0, 49, 72
1, 384558, Note_on_c, 0, 60, 69
1, 384562, Control_c, 0, 64, 81
1, 384574, Note_off_c, 0, 65, 58
1, 384583, Note_off_c, 0, 49, 67
1, 384633, Note_on_c, 0, 58, 70
1, 384633, Note_off_c, 0, 60, 61
1, 384673, Note_off_c, 0, 58, 63
1, 384681, Control_c, 0, 64, 82
1, 384696, Control_c, 0, 64, 83
1, 384702, Note_on_c, 0, 53, 70
1, 384711, Control_c, 0, 64, 85
1, 384726, Control_c, 0, 64, 90
1, 384737, Note_off_c, 0, 53, 65
1, 384741, Control_c, 0, 64, 98
1, 384755, Note_on_c, 0, 43, 79
1, 384755, Control_c, 0, 64, 109
1, 384756, Note_on_c, 0, 31, 77
1, 384768, Note_on_c, 0, 60, 62
1, 384770, Control_c, 0, 64, 122
1, 384785, Control_c, 0, 64, 118
1, 384799, Control_c, 0, 64, 90
1, 384814, Control_c, 0, 64, 70
1, 384829, Control_c, 0, 64, 53
1, 384831, Note_off_c, 0, 31, 61
1, 384840, Note_on_c, 0, 61, 68
1, 384844, Control_c, 0, 64, 36
1, 384851, Note_off_c, 0, 60, 63
1, 384859, Control_c, 0, 64, 32
1, 384873, Control_c, 0, 64, 35
1, 384888, Control_c, 0, 64, 45
1, 384899, Note_on_c, 0, 65, 58
1, 384903, Control_c, 0, 64, 56
1, 384909, Note_off_c, 0, 61, 62
1, 384911, Note_off_c, 0, 43, 64
1, 384918, Control_c, 0, 64, 62
1, 384933, Control_c, 0, 64, 66
1, 384947, Control_c, 0, 64, 69
1, 384962, Control_c, 0, 64, 72
1, 384963, Note_on_c, 0, 60, 67
1, 384972, Note_on_c, 0, 49, 68
1, 384976, Note_off_c, 0, 65, 47
1, 384977, Control_c, 0, 64, 74
1, 384992, Control_c, 0, 64, 76
1, 385000, Note_off_c, 0, 49, 64
1, 385006, Control_c, 0, 64, 78
1, 385021, Note_off_c, 0, 60, 61
1, 385021, Control_c, 0, 64, 79
1, 385030, Note_on_c, 0, 58, 68
1, 385036, Control_c, 0, 64, 80
1, 385067, Control_c, 0, 64, 80
1, 385082, Note_off_c, 0, 58, 63
1, 385096, Control_c, 0, 64, 81
1, 385102, Note_on_c, 0, 53, 66
1, 385126, Control_c, 0, 64, 82
1, 385141, Control_c, 0, 64, 83
1, 385153, Note_off_c, 0, 53, 62
1, 385156, Control_c, 0, 64, 84
1, 385166, Note_on_c, 0, 44, 65
1, 385167, Note_on_c, 0, 32, 72
1, 385178, Control_c, 0, 64, 84
1, 385183, Note_on_c, 0, 60, 63
1, 385193, Control_c, 0, 64, 83
1, 385208, Control_c, 0, 64, 72
1, 385223, Control_c, 0, 64, 62
1, 385238, Control_c, 0, 64, 52
1, 385250, Note_on_c, 0, 61, 67
1, 385252, Control_c, 0, 64, 50
1, 385252, Control_c, 0, 67, 124
1, 385257, Note_off_c, 0, 60, 62
1, 385267, Control_c, 0, 64, 53
1, 385267, Control_c, 0, 67, 120
1, 385282, Control_c, 0, 64, 59
1, 385282, Control_c, 0, 67, 116
1, 385297, Control_c, 0, 64, 64
1, 385297, Control_c, 0, 67, 112
1, 385311, Control_c, 0, 64, 71
1, 385311, Control_c, 0, 67, 108
1, 385315, Note_on_c, 0, 65, 64
1, 385315, Note_off_c, 0, 44, 64
1, 385316, Note_off_c, 0, 32, 63
1, 385320, Note_off_c, 0, 61, 61
1, 385326, Control_c, 0, 64, 75
1, 385326, Control_c, 0, 67, 105
1, 385341, Control_c, 0, 64, 74
1, 385341, Control_c, 0, 67, 103
1, 385356, Control_c, 0, 64, 68
1, 385356, Control_c, 0, 67, 100
1, 385369, Note_on_c, 0, 45, 74
1, 385371, Control_c, 0, 64, 60
1, 385371, Control_c, 0, 67, 95
1, 385376, Note_on_c, 0, 33, 74
1, 385377, Note_on_c, 0, 63, 73
1, 385385, Control_c, 0, 64, 54
1, 385385, Control_c, 0, 67, 90
1, 385394, Note_off_c, 0, 65, 50
1, 385400, Control_c, 0, 64, 56
1, 385400, Control_c, 0, 67, 84
1, 385415, Control_c, 0, 64, 61
1, 385415, Control_c, 0, 67, 78
1, 385429, Control_c, 0, 64, 66
1, 385429, Control_c, 0, 67, 72
1, 385442, Note_on_c, 0, 61, 71
1, 385444, Control_c, 0, 64, 73
1, 385444, Control_c, 0, 67, 67
1, 385447, Note_off_c, 0, 45, 62
1, 385459, Control_c, 0, 64, 85
1, 385459, Control_c, 0, 67, 64
1, 385474, Control_c, 0, 64, 96
1, 385474, Control_c, 0, 67, 61
1, 385479, Note_off_c, 0, 63, 62
1, 385489, Control_c, 0, 67, 61
1, 385504, Control_c, 0, 64, 91
1, 385504, Control_c, 0, 67, 60
1, 385514, Note_on_c, 0, 53, 63
1, 385519, Control_c, 0, 64, 79
1, 385519, Control_c, 0, 67, 58
1, 385526, Note_off_c, 0, 61, 60
1, 385534, Control_c, 0, 64, 68
1, 385534, Control_c, 0, 67, 55
1, 385540, Note_off_c, 0, 33, 56
1, 385549, Control_c, 0, 64, 63
1, 385549, Control_c, 0, 67, 52
1, 385556, Note_on_c, 0, 46, 78
1, 385557, Note_off_c, 0, 53, 61
1, 385561, Note_on_c, 0, 34, 69
1, 385564, Control_c, 0, 64, 62
1, 385564, Control_c, 0, 67, 51
1, 385576, Note_on_c, 0, 60, 70
1, 385578, Control_c, 0, 64, 63
1, 385578, Control_c, 0, 67, 48
1, 385593, Control_c, 0, 64, 65
1, 385593, Control_c, 0, 67, 44
1, 385608, Control_c, 0, 64, 69
1, 385608, Control_c, 0, 67, 38
1, 385622, Control_c, 0, 64, 73
1, 385622, Control_c, 0, 67, 29
1, 385637, Note_on_c, 0, 61, 70
1, 385637, Control_c, 0, 64, 78
1, 385637, Control_c, 0, 67, 23
1, 385652, Control_c, 0, 64, 82
1, 385652, Control_c, 0, 67, 0
1, 385667, Control_c, 0, 64, 85
1, 385670, Note_off_c, 0, 46, 62
1, 385670, Note_off_c, 0, 60, 63
1, 385683, Note_on_c, 0, 65, 67
1, 385696, Control_c, 0, 64, 78
1, 385706, Note_off_c, 0, 61, 61
1, 385711, Control_c, 0, 64, 68
1, 385726, Control_c, 0, 64, 60
1, 385741, Control_c, 0, 64, 55
1, 385743, Note_off_c, 0, 34, 58
1, 385746, Note_on_c, 0, 63, 75
1, 385751, Note_on_c, 0, 45, 76
1, 385753, Note_on_c, 0, 33, 75
1, 385756, Control_c, 0, 64, 56
1, 385770, Control_c, 0, 64, 58
1, 385785, Control_c, 0, 64, 62
1, 385800, Control_c, 0, 64, 68
1, 385806, Note_off_c, 0, 65, 37
1, 385814, Note_on_c, 0, 61, 73
1, 385815, Control_c, 0, 64, 76
1, 385829, Control_c, 0, 64, 88
1, 385845, Control_c, 0, 64, 110
1, 385849, Note_off_c, 0, 63, 64
1, 385859, Note_off_c, 0, 45, 62
1, 385860, Control_c, 0, 64, 127
1, 385888, Note_on_c, 0, 53, 70
1, 385907, Note_off_c, 0, 61, 61
1, 385921, Note_off_c, 0, 33, 62
1, 385927, Control_c, 0, 64, 90
1, 385938, Note_off_c, 0, 53, 58
1, 385942, Control_c, 0, 64, 71
1, 385957, Control_c, 0, 64, 63
1, 385962, Note_on_c, 0, 44, 78
1, 385969, Note_on_c, 0, 63, 82
1, 385972, Control_c, 0, 64, 60
1, 385976, Note_on_c, 0, 32, 64
1, 385987, Control_c, 0, 64, 62
1, 385999, Note_off_c, 0, 44, 61
1, 386001, Control_c, 0, 64, 66
1, 386005, Note_off_c, 0, 32, 64
1, 386016, Control_c, 0, 64, 70
1, 386031, Control_c, 0, 64, 75
1, 386046, Control_c, 0, 64, 80
1, 386052, Note_on_c, 0, 61, 69
1, 386060, Control_c, 0, 64, 83
1, 386075, Control_c, 0, 64, 87
1, 386090, Control_c, 0, 64, 91
1, 386091, Note_off_c, 0, 63, 62
1, 386105, Control_c, 0, 64, 97
1, 386120, Control_c, 0, 64, 106
1, 386131, Note_on_c, 0, 53, 70
1, 386134, Control_c, 0, 64, 127
1, 386168, Note_off_c, 0, 61, 38
1, 386169, Note_on_c, 0, 32, 69
1, 386235, Note_on_c, 0, 44, 71
1, 386238, Control_c, 0, 64, 102
1, 386252, Control_c, 0, 64, 77
1, 386255, Note_on_c, 0, 65, 88
1, 386267, Control_c, 0, 64, 63
1, 386282, Control_c, 0, 64, 48
1, 386292, Note_off_c, 0, 53, 57
1, 386297, Control_c, 0, 64, 0
1, 386366, Note_on_c, 0, 61, 78
1, 386386, Note_off_c, 0, 65, 62
1, 386386, Control_c, 0, 64, 41
1, 386401, Control_c, 0, 64, 60
1, 386416, Control_c, 0, 64, 68
1, 386431, Control_c, 0, 64, 74
1, 386445, Control_c, 0, 64, 82
1, 386452, Note_on_c, 0, 56, 75
1, 386460, Control_c, 0, 64, 90
1, 386475, Control_c, 0, 64, 100
1, 386490, Control_c, 0, 64, 113
1, 386494, Note_off_c, 0, 61, 60
1, 386505, Control_c, 0, 64, 127
1, 386526, Note_off_c, 0, 56, 55
1, 386543, Note_on_c, 0, 54, 73
1, 386603, Note_on_c, 0, 58, 72
1, 386622, Note_off_c, 0, 54, 50
1, 386641, Note_off_c, 0, 32, 57
1, 386676, Note_off_c, 0, 44, 60
1, 386678, Note_on_c, 0, 56, 77
1, 386721, Note_off_c, 0, 58, 61
1, 386757, Note_off_c, 0, 56, 57
1, 386762, Note_on_c, 0, 63, 84
1, 386768, Note_on_c, 0, 32, 68
1, 386774, Note_on_c, 0, 44, 71
1, 386795, Control_c, 0, 64, 83
1, 386810, Control_c, 0, 64, 63
1, 386824, Control_c, 0, 64, 43
1, 386839, Control_c, 0, 64, 0
1, 386845, Note_on_c, 0, 60, 72
1, 386928, Control_c, 0, 64, 36
1, 386943, Control_c, 0, 64, 53
1, 386947, Note_on_c, 0, 56, 69
1, 386957, Control_c, 0, 64, 63
1, 386972, Control_c, 0, 64, 67
1, 386987, Control_c, 0, 64, 69
1, 387002, Control_c, 0, 64, 72
1, 387017, Note_on_c, 0, 54, 73
1, 387017, Control_c, 0, 64, 75
1, 387025, Note_off_c, 0, 56, 62
1, 387031, Control_c, 0, 64, 81
1, 387046, Control_c, 0, 64, 87
1, 387061, Control_c, 0, 64, 97
1, 387075, Note_off_c, 0, 32, 60
1, 387075, Control_c, 0, 64, 113
1, 387090, Control_c, 0, 64, 127
1, 387099, Note_off_c, 0, 54, 60
1, 387111, Note_off_c, 0, 60, 53
1, 387114, Note_on_c, 0, 58, 62
1, 387126, Note_off_c, 0, 44, 61
1, 387138, Note_off_c, 0, 63, 62
1, 387149, Control_c, 0, 67, 19
1, 387194, Control_c, 0, 67, 21
1, 387197, Note_on_c, 0, 56, 75
1, 387254, Control_c, 0, 67, 23
1, 387296, Note_off_c, 0, 58, 36
1, 387325, Note_off_c, 0, 56, 50
1, 387372, Control_c, 0, 67, 21
1, 387387, Note_on_c, 0, 65, 85
1, 387393, Note_on_c, 0, 61, 68
1, 387395, Note_on_c, 0, 53, 73
1, 387400, Note_on_c, 0, 44, 69
1, 387401, Control_c, 0, 67, 19
1, 387424, Control_c, 0, 64, 92
1, 387424, Control_c, 0, 67, 0
1, 387439, Control_c, 0, 64, 67
1, 387454, Control_c, 0, 64, 43
1, 387469, Control_c, 0, 64, 0
1, 387588, Control_c, 0, 64, 47
1, 387595, Note_on_c, 0, 49, 63
1, 387603, Control_c, 0, 64, 61
1, 387607, Note_off_c, 0, 44, 59
1, 387617, Control_c, 0, 64, 66
1, 387632, Control_c, 0, 64, 70
1, 387647, Control_c, 0, 64, 74
1, 387662, Control_c, 0, 64, 79
1, 387673, Note_off_c, 0, 49, 62
1, 387677, Control_c, 0, 64, 85
1, 387687, Note_on_c, 0, 37, 74
1, 387692, Control_c, 0, 64, 94
1, 387706, Control_c, 0, 64, 104
1, 387721, Control_c, 0, 64, 125
1, 387735, Note_off_c, 0, 37, 60
1, 387736, Control_c, 0, 64, 127
1, 387781, Note_on_c, 0, 44, 67
1, 387829, Note_off_c, 0, 61, 55
1, 387861, Note_off_c, 0, 44, 63
1, 387865, Note_on_c, 0, 49, 64
1, 387881, Note_off_c, 0, 53, 55
1, 387947, Note_off_c, 0, 49, 63
1, 387951, Note_on_c, 0, 56, 57
1, 387981, Note_off_c, 0, 56, 63
1, 388014, Note_on_c, 0, 63, 77
1, 388017, Control_c, 0, 64, 90
1, 388025, Note_on_c, 0, 53, 61
1, 388032, Control_c, 0, 64, 77
1, 388047, Control_c, 0, 64, 74
1, 388050, Note_on_c, 0, 44, 60
1, 388062, Control_c, 0, 64, 75
1, 388077, Control_c, 0, 64, 77
1, 388091, Control_c, 0, 64, 83
1, 388106, Control_c, 0, 64, 90
1, 388121, Control_c, 0, 64, 99
1, 388124, Note_off_c, 0, 44, 61
1, 388136, Control_c, 0, 64, 108
1, 388151, Control_c, 0, 64, 117
1, 388173, Control_c, 0, 64, 125
1, 388185, Note_on_c, 0, 49, 27
1, 388188, Control_c, 0, 64, 127
1, 388190, Note_on_c, 0, 37, 70
1, 388226, Note_off_c, 0, 49, 54
1, 388234, Note_off_c, 0, 37, 62
1, 388261, Note_on_c, 0, 61, 81
1, 388277, Note_on_c, 0, 44, 61
1, 388321, Note_off_c, 0, 44, 63
1, 388338, Note_on_c, 0, 49, 62
1, 388397, Note_on_c, 0, 56, 63
1, 388401, Note_off_c, 0, 49, 63
1, 388437, Note_off_c, 0, 56, 60
1, 388450, Note_off_c, 0, 53, 59
1, 388452, Note_off_c, 0, 63, 55
1, 388462, Note_off_c, 0, 65, 40
1, 388477, Note_on_c, 0, 60, 76
1, 388485, Note_on_c, 0, 44, 69
1, 388485, Control_c, 0, 64, 86
1, 388500, Control_c, 0, 64, 71
1, 388515, Control_c, 0, 64, 69
1, 388530, Control_c, 0, 64, 71
1, 388542, Note_off_c, 0, 61, 50
1, 388545, Control_c, 0, 64, 76
1, 388545, Note_off_c, 0, 44, 64
1, 388559, Control_c, 0, 64, 82
1, 388574, Control_c, 0, 64, 92
1, 388583, Note_on_c, 0, 49, 56
1, 388589, Control_c, 0, 64, 110
1, 388602, Note_on_c, 0, 37, 58
1, 388604, Control_c, 0, 64, 127
1, 388622, Note_off_c, 0, 49, 55
1, 388639, Note_off_c, 0, 37, 63
1, 388673, Note_on_c, 0, 61, 80
1, 388680, Note_on_c, 0, 44, 65
1, 388685, Note_off_c, 0, 60, 59
1, 388729, Note_off_c, 0, 44, 62
1, 388756, Note_on_c, 0, 49, 60
1, 388800, Note_off_c, 0, 49, 60
1, 388825, Note_on_c, 0, 56, 55
1, 388855, Note_off_c, 0, 56, 60
1, 388885, Control_c, 0, 64, 101
1, 388893, Note_on_c, 0, 65, 87
1, 388899, Note_on_c, 0, 44, 70
1, 388900, Control_c, 0, 64, 71
1, 388922, Control_c, 0, 64, 61
1, 388937, Control_c, 0, 64, 61
1, 388938, Note_off_c, 0, 61, 58
1, 388952, Control_c, 0, 64, 67
1, 388967, Control_c, 0, 64, 76
1, 388969, Note_off_c, 0, 44, 63
1, 388981, Control_c, 0, 64, 87
1, 388996, Control_c, 0, 64, 114
1, 389005, Note_on_c, 0, 49, 56
1, 389011, Control_c, 0, 64, 127
1, 389045, Note_on_c, 0, 37, 63
1, 389051, Note_off_c, 0, 49, 56
1, 389090, Note_off_c, 0, 37, 58
1, 389141, Note_on_c, 0, 44, 56
1, 389192, Note_off_c, 0, 44, 61
1, 389213, Note_on_c, 0, 49, 60
1, 389254, Note_on_c, 0, 68, 78
1, 389281, Note_off_c, 0, 49, 62
1, 389288, Note_on_c, 0, 56, 54
1, 389317, Note_off_c, 0, 68, 62
1, 389325, Note_off_c, 0, 56, 61
1, 389368, Note_on_c, 0, 68, 77
1, 389372, Note_on_c, 0, 44, 67
1, 389382, Control_c, 0, 64, 84
1, 389382, Note_on_c, 0, 63, 72
1, 389396, Control_c, 0, 64, 68
1, 389397, Note_off_c, 0, 65, 60
1, 389411, Control_c, 0, 64, 65
1, 389426, Control_c, 0, 64, 70
1, 389428, Note_off_c, 0, 44, 62
1, 389433, Note_on_c, 0, 53, 58
1, 389441, Control_c, 0, 64, 78
1, 389456, Control_c, 0, 64, 89
1, 389469, Note_off_c, 0, 53, 63
1, 389470, Control_c, 0, 64, 110
1, 389485, Control_c, 0, 64, 127
1, 389519, Note_on_c, 0, 37, 72
1, 389548, Note_off_c, 0, 37, 63
1, 389584, Note_on_c, 0, 44, 68
1, 389593, Note_on_c, 0, 61, 71
1, 389638, Note_off_c, 0, 44, 63
1, 389662, Note_on_c, 0, 49, 67
1, 389727, Note_on_c, 0, 56, 69
1, 389741, Note_off_c, 0, 49, 61
1, 389785, Note_off_c, 0, 56, 61
1, 389786, Note_off_c, 0, 61, 58
1, 389789, Control_c, 0, 64, 110
1, 389803, Control_c, 0, 64, 78
1, 389814, Note_on_c, 0, 44, 70
1, 389818, Control_c, 0, 64, 66
1, 389823, Note_on_c, 0, 60, 66
1, 389833, Control_c, 0, 64, 64
1, 389849, Control_c, 0, 64, 70
1, 389864, Control_c, 0, 64, 78
1, 389879, Control_c, 0, 64, 90
1, 389880, Note_off_c, 0, 44, 63
1, 389885, Note_on_c, 0, 53, 62
1, 389893, Control_c, 0, 64, 127
1, 389951, Note_off_c, 0, 53, 54
1, 389966, Note_on_c, 0, 37, 65
1, 390020, Note_off_c, 0, 60, 62
1, 390028, Note_on_c, 0, 44, 70
1, 390028, Note_on_c, 0, 61, 65
1, 390030, Note_off_c, 0, 37, 60
1, 390055, Note_off_c, 0, 68, 60
1, 390056, Note_off_c, 0, 63, 60
1, 390059, Note_off_c, 0, 61, 64
1, 390115, Note_off_c, 0, 44, 61
1, 390119, Note_on_c, 0, 49, 64
1, 390175, Note_on_c, 0, 56, 65
1, 390202, Note_off_c, 0, 56, 63
1, 390208, Note_off_c, 0, 49, 63
1, 390353, Control_c, 0, 64, 82
1, 390365, Note_on_c, 0, 25, 85
1, 390366, Note_on_c, 0, 77, 83
1, 390368, Control_c, 0, 64, 58
1, 390371, Note_on_c, 0, 73, 72
1, 390372, Note_on_c, 0, 37, 79
1, 390378, Note_on_c, 0, 65, 74
1, 390383, Control_c, 0, 64, 0
1, 390393, Note_off_c, 0, 25, 64
1, 390399, Note_off_c, 0, 37, 63
1, 390434, Control_c, 0, 64, 53
1, 390449, Control_c, 0, 64, 67
1, 390464, Control_c, 0, 64, 83
1, 390479, Control_c, 0, 64, 127
1, 390623, Note_on_c, 0, 44, 72
1, 390641, Note_off_c, 0, 65, 54
1, 390694, Note_on_c, 0, 53, 59
1, 390707, Note_off_c, 0, 44, 61
1, 390747, Note_on_c, 0, 56, 69
1, 390752, Note_off_c, 0, 53, 62
1, 390777, Note_off_c, 0, 56, 64
1, 390818, Note_off_c, 0, 73, 36
1, 390821, Note_on_c, 0, 65, 67
1, 390846, Note_off_c, 0, 65, 69
1, 390926, Note_on_c, 0, 75, 78
1, 390927, Note_on_c, 0, 68, 76
1, 390936, Note_on_c, 0, 65, 72
1, 390985, Note_off_c, 0, 68, 61
1, 391002, Note_off_c, 0, 77, 44
1, 391018, Note_on_c, 0, 70, 52
1, 391080, Note_on_c, 0, 68, 68
1, 391081, Note_off_c, 0, 70, 62
1, 391130, Note_off_c, 0, 68, 60
1, 391168, Note_on_c, 0, 73, 81
1, 391194, Note_on_c, 0, 70, 59
1, 391233, Note_off_c, 0, 70, 53
1, 391243, Note_on_c, 0, 68, 71
1, 391293, Note_off_c, 0, 68, 58
1, 391299, Note_off_c, 0, 75, 43
1, 391329, Note_on_c, 0, 70, 60
1, 391373, Note_on_c, 0, 72, 79
1, 391373, Note_off_c, 0, 70, 50
1, 391388, Note_on_c, 0, 68, 76
1, 391402, Note_off_c, 0, 73, 60
1, 391427, Note_off_c, 0, 68, 56
1, 391485, Note_on_c, 0, 70, 49
1, 391507, Note_off_c, 0, 70, 59
1, 391540, Note_on_c, 0, 68, 66
1, 391583, Note_off_c, 0, 68, 55
1, 391612, Note_on_c, 0, 73, 79
1, 391627, Note_on_c, 0, 70, 50
1, 391638, Note_off_c, 0, 72, 60
1, 391683, Note_on_c, 0, 68, 65
1, 391686, Note_off_c, 0, 65, 55
1, 391692, Note_off_c, 0, 70, 38
1, 391735, Note_off_c, 0, 68, 58
1, 391765, Note_on_c, 0, 70, 37
1, 391820, Control_c, 0, 67, 20
1, 391835, Control_c, 0, 67, 22
1, 391836, Note_off_c, 0, 70, 48
1, 391843, Note_on_c, 0, 68, 61
1, 391853, Note_on_c, 0, 77, 80
1, 391864, Control_c, 0, 67, 25
1, 391866, Note_off_c, 0, 73, 57
1, 391879, Control_c, 0, 67, 27
1, 391885, Note_off_c, 0, 68, 55
1, 391894, Control_c, 0, 67, 29
1, 391916, Control_c, 0, 67, 32
1, 391931, Control_c, 0, 67, 35
1, 391934, Note_on_c, 0, 70, 56
1, 391946, Control_c, 0, 67, 40
1, 391961, Control_c, 0, 67, 46
1, 391976, Control_c, 0, 67, 52
1, 391990, Control_c, 0, 67, 58
1, 391999, Note_on_c, 0, 68, 63
1, 392005, Control_c, 0, 67, 64
1, 392008, Note_off_c, 0, 70, 42
1, 392020, Control_c, 0, 67, 68
1, 392035, Control_c, 0, 67, 71
1, 392050, Control_c, 0, 67, 72
1, 392053, Note_off_c, 0, 68, 58
1, 392064, Control_c, 0, 67, 73
1, 392079, Control_c, 0, 67, 74
1, 392086, Note_on_c, 0, 70, 53
1, 392109, Control_c, 0, 67, 75
1, 392123, Control_c, 0, 67, 75
1, 392138, Control_c, 0, 67, 76
1, 392152, Note_off_c, 0, 70, 52
1, 392153, Control_c, 0, 67, 76
1, 392160, Note_on_c, 0, 68, 62
1, 392168, Control_c, 0, 67, 77
1, 392183, Control_c, 0, 67, 78
1, 392197, Control_c, 0, 67, 80
1, 392204, Note_off_c, 0, 68, 52
1, 392212, Note_on_c, 0, 80, 81
1, 392212, Control_c, 0, 67, 81
1, 392227, Control_c, 0, 67, 82
1, 392243, Control_c, 0, 67, 84
1, 392249, Note_on_c, 0, 70, 50
1, 392258, Control_c, 0, 67, 84
1, 392273, Control_c, 0, 67, 85
1, 392287, Control_c, 0, 67, 86
1, 392296, Note_off_c, 0, 80, 61
1, 392302, Control_c, 0, 67, 86
1, 392317, Control_c, 0, 67, 87
1, 392324, Note_off_c, 0, 70, 53
1, 392336, Note_on_c, 0, 68, 57
1, 392347, Control_c, 0, 67, 87
1, 392363, Note_on_c, 0, 80, 71
1, 392364, Note_on_c, 0, 75, 67
1, 392376, Control_c, 0, 67, 88
1, 392391, Control_c, 0, 67, 89
1, 392393, Note_off_c, 0, 77, 58
1, 392397, Note_off_c, 0, 68, 55
1, 392406, Control_c, 0, 67, 91
1, 392420, Control_c, 0, 67, 93
1, 392432, Note_on_c, 0, 70, 54
1, 392435, Control_c, 0, 67, 96
1, 392450, Control_c, 0, 67, 98
1, 392465, Control_c, 0, 67, 100
1, 392494, Note_off_c, 0, 70, 51
1, 392494, Control_c, 0, 67, 103
1, 392512, Note_on_c, 0, 68, 60
1, 392524, Control_c, 0, 67, 106
1, 392539, Control_c, 0, 67, 108
1, 392554, Control_c, 0, 67, 110
1, 392555, Note_off_c, 0, 68, 51
1, 392584, Control_c, 0, 67, 112
1, 392592, Note_on_c, 0, 73, 67
1, 392600, Note_on_c, 0, 70, 47
1, 392637, Note_off_c, 0, 70, 46
1, 392679, Note_on_c, 0, 68, 60
1, 392709, Control_c, 0, 67, 114
1, 392724, Note_off_c, 0, 68, 55
1, 392763, Note_on_c, 0, 70, 49
1, 392806, Note_off_c, 0, 70, 48
1, 392824, Note_on_c, 0, 72, 61
1, 392840, Note_on_c, 0, 68, 52
1, 392858, Note_off_c, 0, 73, 36
1, 392873, Control_c, 0, 67, 119
1, 392887, Control_c, 0, 67, 123
1, 392891, Note_off_c, 0, 68, 48
1, 392917, Control_c, 0, 67, 125
1, 392930, Note_on_c, 0, 70, 48
1, 392990, Note_off_c, 0, 70, 54
1, 393016, Note_on_c, 0, 68, 50
1, 393067, Note_off_c, 0, 68, 48
1, 393069, Note_off_c, 0, 72, 51
1, 393074, Note_on_c, 0, 73, 60
1, 393120, Note_on_c, 0, 70, 45
1, 393126, Control_c, 0, 67, 127
1, 393126, Note_off_c, 0, 80, 59
1, 393140, Note_off_c, 0, 75, 55
1, 393142, Note_off_c, 0, 73, 57
1, 393188, Note_off_c, 0, 70, 35
1, 393267, Note_on_c, 0, 68, 52
1, 393289, Note_off_c, 0, 68, 63
1, 393770, Note_on_c, 0, 64, 51
1, 393790, Note_on_c, 0, 61, 44
1, 393794, Note_on_c, 0, 52, 32
1, 393800, Control_c, 0, 64, 103
1, 393801, Note_on_c, 0, 44, 40
1, 393815, Control_c, 0, 64, 80
1, 393830, Control_c, 0, 64, 66
1, 393845, Control_c, 0, 64, 55
1, 393859, Control_c, 0, 64, 47
1, 393874, Control_c, 0, 64, 44
1, 393889, Control_c, 0, 64, 44
1, 393904, Control_c, 0, 64, 47
1, 393919, Control_c, 0, 64, 51
1, 393934, Control_c, 0, 64, 55
1, 393940, Note_on_c, 0, 49, 33
1, 393949, Control_c, 0, 64, 61
1, 393964, Control_c, 0, 64, 66
1, 393976, Note_off_c, 0, 44, 49
1, 393978, Control_c, 0, 64, 76
1, 393993, Control_c, 0, 64, 85
1, 394008, Control_c, 0, 64, 93
1, 394023, Control_c, 0, 64, 101
1, 394038, Control_c, 0, 64, 118
1, 394047, Note_on_c, 0, 37, 47
1, 394052, Control_c, 0, 64, 127
1, 394079, Note_off_c, 0, 49, 38
1, 394096, Note_off_c, 0, 37, 60
1, 394152, Note_on_c, 0, 44, 40
1, 394154, Note_off_c, 0, 52, 39
1, 394217, Note_off_c, 0, 44, 54
1, 394247, Note_on_c, 0, 49, 53
1, 394285, Note_off_c, 0, 49, 62
1, 394313, Note_on_c, 0, 56, 51
1, 394351, Note_off_c, 0, 56, 61
1, 394359, Note_off_c, 0, 61, 37
1, 394390, Note_on_c, 0, 63, 60
1, 394396, Note_on_c, 0, 44, 57
1, 394399, Note_off_c, 0, 64, 37
1, 394401, Note_on_c, 0, 52, 46
1, 394444, Note_off_c, 0, 44, 60
1, 394445, Control_c, 0, 64, 105
1, 394459, Control_c, 0, 64, 90
1, 394474, Control_c, 0, 64, 88
1, 394504, Control_c, 0, 64, 91
1, 394518, Control_c, 0, 64, 98
1, 394524, Note_on_c, 0, 49, 45
1, 394527, Note_on_c, 0, 37, 59
1, 394533, Control_c, 0, 64, 114
1, 394548, Control_c, 0, 64, 127
1, 394557, Note_off_c, 0, 49, 54
1, 394564, Note_off_c, 0, 37, 63
1, 394629, Note_on_c, 0, 44, 43
1, 394631, Note_on_c, 0, 61, 66
1, 394646, Note_off_c, 0, 63, 57
1, 394656, Note_off_c, 0, 44, 59
1, 394687, Note_on_c, 0, 49, 55
1, 394724, Note_off_c, 0, 49, 62
1, 394740, Note_on_c, 0, 56, 53
1, 394778, Note_off_c, 0, 56, 61
1, 394813, Note_on_c, 0, 44, 60
1, 394828, Note_on_c, 0, 60, 70
1, 394856, Note_off_c, 0, 61, 50
1, 394861, Control_c, 0, 64, 118
1, 394872, Note_off_c, 0, 44, 63
1, 394876, Control_c, 0, 64, 84
1, 394890, Control_c, 0, 64, 72
1, 394912, Control_c, 0, 64, 70
1, 394927, Control_c, 0, 64, 73
1, 394934, Note_on_c, 0, 37, 58
1, 394934, Note_on_c, 0, 49, 52
1, 394942, Control_c, 0, 64, 79
1, 394956, Control_c, 0, 64, 89
1, 394971, Control_c, 0, 64, 117
1, 394978, Note_off_c, 0, 37, 62
1, 394980, Note_off_c, 0, 49, 48
1, 394986, Control_c, 0, 64, 127
1, 395024, Note_on_c, 0, 44, 55
1, 395052, Note_on_c, 0, 61, 68
1, 395061, Note_off_c, 0, 60, 60
1, 395074, Note_off_c, 0, 44, 60
1, 395091, Note_off_c, 0, 52, 60
1, 395095, Note_on_c, 0, 49, 58
1, 395147, Note_off_c, 0, 49, 58
1, 395159, Note_on_c, 0, 56, 58
1, 395207, Note_off_c, 0, 56, 60
1, 395255, Note_on_c, 0, 44, 57
1, 395282, Control_c, 0, 64, 93
1, 395283, Note_on_c, 0, 64, 69
1, 395298, Control_c, 0, 64, 69
1, 395313, Control_c, 0, 64, 55
1, 395328, Control_c, 0, 64, 49
1, 395337, Note_off_c, 0, 44, 60
1, 395342, Control_c, 0, 64, 53
1, 395357, Control_c, 0, 64, 59
1, 395371, Note_on_c, 0, 49, 51
1, 395372, Control_c, 0, 64, 65
1, 395387, Control_c, 0, 64, 74
1, 395393, Note_on_c, 0, 37, 54
1, 395402, Control_c, 0, 64, 87
1, 395404, Note_off_c, 0, 49, 54
1, 395413, Note_off_c, 0, 61, 31
1, 395416, Control_c, 0, 64, 104
1, 395432, Control_c, 0, 64, 114
1, 395447, Control_c, 0, 64, 127
1, 395458, Note_off_c, 0, 37, 61
1, 395487, Note_on_c, 0, 44, 50
1, 395559, Note_off_c, 0, 44, 60
1, 395573, Note_on_c, 0, 49, 51
1, 395639, Note_on_c, 0, 68, 68
1, 395647, Note_off_c, 0, 49, 62
1, 395678, Note_on_c, 0, 56, 47
1, 395706, Note_off_c, 0, 56, 53
1, 395714, Note_off_c, 0, 68, 57
1, 395790, Note_on_c, 0, 44, 44
1, 395810, Control_c, 0, 64, 97
1, 395817, Note_on_c, 0, 68, 62
1, 395818, Note_on_c, 0, 63, 51
1, 395825, Control_c, 0, 64, 74
1, 395839, Control_c, 0, 64, 61
1, 395850, Note_off_c, 0, 44, 57
1, 395854, Control_c, 0, 64, 53
1, 395869, Note_on_c, 0, 52, 43
1, 395883, Control_c, 0, 64, 56
1, 395898, Control_c, 0, 64, 61
1, 395913, Control_c, 0, 64, 66
1, 395928, Control_c, 0, 64, 73
1, 395934, Note_off_c, 0, 64, 35
1, 395943, Note_on_c, 0, 37, 53
1, 395943, Control_c, 0, 64, 83
1, 395958, Control_c, 0, 64, 92
1, 395967, Note_off_c, 0, 52, 33
1, 395973, Control_c, 0, 64, 98
1, 395982, Note_off_c, 0, 37, 50
1, 395988, Control_c, 0, 64, 101
1, 396003, Control_c, 0, 64, 103
1, 396019, Note_on_c, 0, 44, 53
1, 396032, Control_c, 0, 64, 106
1, 396043, Note_on_c, 0, 61, 53
1, 396072, Note_off_c, 0, 44, 58
1, 396104, Note_on_c, 0, 49, 53
1, 396150, Control_c, 0, 64, 108
1, 396157, Note_off_c, 0, 49, 59
1, 396164, Control_c, 0, 64, 114
1, 396177, Note_on_c, 0, 56, 56
1, 396179, Control_c, 0, 64, 127
1, 396213, Note_off_c, 0, 56, 62
1, 396228, Note_off_c, 0, 61, 56
1, 396271, Note_on_c, 0, 44, 52
1, 396277, Note_on_c, 0, 60, 44
1, 396284, Control_c, 0, 64, 81
1, 396299, Control_c, 0, 64, 66
1, 396307, Note_off_c, 0, 44, 59
1, 396313, Control_c, 0, 64, 59
1, 396328, Control_c, 0, 64, 60
1, 396343, Control_c, 0, 64, 64
1, 396358, Note_on_c, 0, 52, 32
1, 396358, Control_c, 0, 64, 68
1, 396373, Control_c, 0, 64, 75
1, 396387, Control_c, 0, 64, 85
1, 396393, Note_off_c, 0, 52, 52
1, 396410, Control_c, 0, 64, 98
1, 396416, Note_on_c, 0, 37, 49
1, 396425, Control_c, 0, 64, 119
1, 396440, Control_c, 0, 64, 127
1, 396450, Note_off_c, 0, 37, 54
1, 396491, Note_on_c, 0, 44, 52
1, 396505, Note_off_c, 0, 60, 42
1, 396506, Note_on_c, 0, 61, 46
1, 396539, Note_off_c, 0, 61, 61
1, 396539, Note_off_c, 0, 63, 55
1, 396559, Note_off_c, 0, 68, 47
1, 396560, Note_off_c, 0, 44, 60
1, 396582, Note_on_c, 0, 49, 44
1, 396662, Note_on_c, 0, 56, 52
1, 396680, Note_off_c, 0, 49, 54
1, 396685, Note_off_c, 0, 56, 57
1, 396795, Control_c, 0, 67, 120
1, 396810, Control_c, 0, 67, 114
1, 396825, Control_c, 0, 67, 105
1, 396840, Control_c, 0, 67, 99
1, 396854, Control_c, 0, 67, 92
1, 396869, Control_c, 0, 67, 85
1, 396884, Control_c, 0, 67, 78
1, 396898, Control_c, 0, 67, 71
1, 396913, Control_c, 0, 64, 103
1, 396913, Control_c, 0, 67, 65
1, 396917, Note_on_c, 0, 73, 45
1, 396918, Note_on_c, 0, 76, 60
1, 396925, Note_on_c, 0, 25, 59
1, 396928, Control_c, 0, 64, 72
1, 396928, Control_c, 0, 67, 58
1, 396936, Note_on_c, 0, 64, 40
1, 396943, Control_c, 0, 64, 58
1, 396943, Control_c, 0, 67, 52
1, 396955, Note_on_c, 0, 37, 43
1, 396958, Control_c, 0, 64, 49
1, 396958, Control_c, 0, 67, 47
1, 396973, Control_c, 0, 64, 53
1, 396973, Control_c, 0, 67, 41
1, 396980, Note_off_c, 0, 25, 62
1, 396987, Control_c, 0, 64, 60
1, 396987, Control_c, 0, 67, 34
1, 397002, Control_c, 0, 64, 66
1, 397002, Control_c, 0, 67, 26
1, 397013, Note_off_c, 0, 37, 61
1, 397017, Control_c, 0, 64, 79
1, 397017, Control_c, 0, 67, 0
1, 397033, Control_c, 0, 64, 127
1, 397266, Note_off_c, 0, 64, 36
1, 397274, Note_on_c, 0, 44, 29
1, 397329, Note_on_c, 0, 52, 51
1, 397344, Note_off_c, 0, 44, 54
1, 397366, Control_c, 0, 67, 19
1, 397396, Control_c, 0, 67, 22
1, 397404, Note_on_c, 0, 56, 49
1, 397405, Note_off_c, 0, 52, 56
1, 397410, Control_c, 0, 67, 24
1, 397440, Control_c, 0, 67, 28
1, 397443, Note_off_c, 0, 56, 62
1, 397454, Note_on_c, 0, 64, 45
1, 397470, Control_c, 0, 67, 31
1, 397477, Note_off_c, 0, 64, 58
1, 397484, Control_c, 0, 67, 33
1, 397496, Note_off_c, 0, 73, 42
1, 397499, Control_c, 0, 67, 35
1, 397511, Note_off_c, 0, 76, 36
1, 397514, Control_c, 0, 67, 37
1, 397529, Control_c, 0, 67, 40
1, 397544, Control_c, 0, 67, 42
1, 397559, Control_c, 0, 67, 44
1, 397574, Control_c, 0, 67, 44
1, 397575, Note_on_c, 0, 64, 39
1, 397581, Note_on_c, 0, 68, 63
1, 397589, Control_c, 0, 67, 45
1, 397593, Note_on_c, 0, 75, 53
1, 397633, Control_c, 0, 64, 110
1, 397638, Note_off_c, 0, 68, 53
1, 397648, Control_c, 0, 64, 95
1, 397662, Control_c, 0, 64, 94
1, 397672, Note_on_c, 0, 69, 50
1, 397677, Control_c, 0, 64, 97
1, 397692, Control_c, 0, 64, 104
1, 397707, Control_c, 0, 64, 127
1, 397722, Note_off_c, 0, 69, 57
1, 397750, Note_on_c, 0, 68, 52
1, 397776, Note_off_c, 0, 68, 58
1, 397781, Control_c, 0, 67, 44
1, 397796, Control_c, 0, 67, 44
1, 397824, Note_on_c, 0, 73, 69
1, 397833, Note_on_c, 0, 69, 49
1, 397859, Note_off_c, 0, 75, 37
1, 397871, Note_off_c, 0, 69, 47
1, 397890, Note_on_c, 0, 68, 49
1, 397931, Note_off_c, 0, 64, 54
1, 397935, Note_off_c, 0, 68, 56
1, 397937, Control_c, 0, 67, 44
1, 397952, Control_c, 0, 67, 45
1, 397967, Control_c, 0, 67, 46
1, 397982, Control_c, 0, 67, 46
1, 397997, Note_on_c, 0, 69, 33
1, 397997, Control_c, 0, 67, 47
1, 398012, Control_c, 0, 67, 49
1, 398026, Note_off_c, 0, 69, 54
1, 398027, Control_c, 0, 64, 119
1, 398027, Control_c, 0, 67, 54
1, 398033, Note_on_c, 0, 68, 62
1, 398040, Note_on_c, 0, 72, 68
1, 398041, Control_c, 0, 64, 98
1, 398041, Control_c, 0, 67, 61
1, 398056, Control_c, 0, 64, 94
1, 398056, Control_c, 0, 67, 68
1, 398071, Control_c, 0, 67, 74
1, 398079, Note_off_c, 0, 68, 52
1, 398085, Control_c, 0, 64, 97
1, 398085, Control_c, 0, 67, 80
1, 398094, Note_off_c, 0, 73, 38
1, 398100, Control_c, 0, 64, 103
1, 398100, Control_c, 0, 67, 84
1, 398115, Control_c, 0, 64, 117
1, 398115, Control_c, 0, 67, 88
1, 398130, Control_c, 0, 64, 127
1, 398130, Control_c, 0, 67, 91
1, 398134, Note_on_c, 0, 69, 36
1, 398145, Control_c, 0, 67, 95
1, 398159, Control_c, 0, 67, 98
1, 398164, Note_off_c, 0, 69, 55
1, 398174, Control_c, 0, 67, 100
1, 398189, Control_c, 0, 67, 103
1, 398197, Note_on_c, 0, 68, 45
1, 398204, Control_c, 0, 67, 106
1, 398219, Control_c, 0, 67, 108
1, 398220, Note_off_c, 0, 68, 58
1, 398248, Control_c, 0, 67, 110
1, 398265, Note_on_c, 0, 69, 46
1, 398275, Note_on_c, 0, 73, 70
1, 398285, Note_off_c, 0, 72, 50
1, 398321, Note_off_c, 0, 69, 40
1, 398328, Note_on_c, 0, 68, 39
1, 398375, Note_off_c, 0, 68, 48
1, 398382, Control_c, 0, 67, 112
1, 398427, Note_on_c, 0, 69, 38
1, 398441, Control_c, 0, 67, 116
1, 398456, Control_c, 0, 67, 118
1, 398471, Control_c, 0, 64, 100
1, 398478, Note_off_c, 0, 69, 51
1, 398486, Control_c, 0, 64, 87
1, 398495, Note_on_c, 0, 68, 54
1, 398501, Control_c, 0, 64, 82
1, 398501, Control_c, 0, 67, 120
1, 398520, Note_on_c, 0, 76, 68
1, 398530, Note_off_c, 0, 73, 62
1, 398531, Control_c, 0, 64, 83
1, 398531, Control_c, 0, 67, 123
1, 398535, Note_off_c, 0, 68, 59
1, 398545, Control_c, 0, 64, 86
1, 398545, Control_c, 0, 67, 125
1, 398560, Control_c, 0, 64, 93
1, 398560, Control_c, 0, 67, 127
1, 398575, Control_c, 0, 64, 102
1, 398590, Control_c, 0, 64, 110
1, 398605, Control_c, 0, 64, 112
1, 398605, Note_on_c, 0, 69, 44
1, 398661, Note_off_c, 0, 69, 45
1, 398682, Note_on_c, 0, 68, 50
1, 398716, Note_off_c, 0, 68, 53
1, 398808, Note_on_c, 0, 69, 7
1, 398848, Note_on_c, 0, 68, 46
1, 398860, Note_off_c, 0, 69, 36
1, 398877, Note_off_c, 0, 68, 53
1, 398882, Note_on_c, 0, 80, 69
1, 398957, Note_off_c, 0, 80, 57
1, 398963, Note_on_c, 0, 66, 23
1, 398969, Control_c, 0, 64, 115
1, 398983, Control_c, 0, 64, 127
1, 398999, Note_off_c, 0, 66, 52
1, 399028, Note_on_c, 0, 64, 46
1, 399057, Control_c, 0, 64, 93
1, 399064, Note_on_c, 0, 80, 64
1, 399071, Note_on_c, 0, 75, 50
1, 399072, Control_c, 0, 64, 79
1, 399087, Control_c, 0, 64, 73
1, 399100, Note_off_c, 0, 64, 62
1, 399101, Control_c, 0, 64, 72
1, 399116, Control_c, 0, 64, 76
1, 399127, Note_off_c, 0, 76, 36
1, 399131, Control_c, 0, 64, 81
1, 399146, Control_c, 0, 64, 91
1, 399161, Control_c, 0, 64, 103
1, 399168, Note_on_c, 0, 66, 38
1, 399175, Control_c, 0, 64, 127
1, 399200, Note_off_c, 0, 66, 51
1, 399237, Note_on_c, 0, 64, 33
1, 399273, Note_off_c, 0, 64, 51
1, 399304, Note_on_c, 0, 66, 51
1, 399329, Note_on_c, 0, 73, 55
1, 399340, Note_off_c, 0, 66, 50
1, 399388, Note_on_c, 0, 64, 28
1, 399426, Note_off_c, 0, 64, 54
1, 399455, Note_on_c, 0, 66, 48
1, 399487, Note_off_c, 0, 66, 48
1, 399511, Note_off_c, 0, 75, 32
1, 399517, Note_on_c, 0, 64, 33
1, 399563, Note_off_c, 0, 64, 45
1, 399595, Note_on_c, 0, 72, 47
1, 399604, Note_off_c, 0, 73, 39
1, 399610, Note_on_c, 0, 66, 22
1, 399643, Note_off_c, 0, 66, 43
1, 399648, Note_on_c, 0, 64, 25
1, 399702, Note_off_c, 0, 64, 45
1, 399737, Note_on_c, 0, 66, 27
1, 399776, Note_off_c, 0, 66, 44
1, 399781, Note_on_c, 0, 64, 22
1, 399827, Note_on_c, 0, 73, 48
1, 399849, Note_off_c, 0, 64, 40
1, 399914, Note_off_c, 0, 72, 38
1, 399955, Poly_aftertouch_c, 0, 64, 127
1, 399961, Poly_aftertouch_c, 0, 66, 0
1, 399971, Note_off_c, 0, 80, 49
1, 399994, Poly_aftertouch_c, 0, 64, 0
1, 399998, Note_off_c, 0, 73, 56
1, 400042, Poly_aftertouch_c, 0, 66, 127
1, 400070, Note_on_c, 0, 64, 23
1, 400073, Poly_aftertouch_c, 0, 66, 0
1, 400110, Note_off_c, 0, 64, 52
1, 400516, Note_on_c, 0, 44, 45
1, 400516, Note_on_c, 0, 68, 50
1, 400517, Note_on_c, 0, 64, 39
1, 400540, Control_c, 0, 64, 101
1, 400547, Note_on_c, 0, 56, 33
1, 400555, Control_c, 0, 64, 83
1, 400569, Control_c, 0, 64, 72
1, 400584, Control_c, 0, 64, 64
1, 400599, Control_c, 0, 64, 59
1, 400604, Note_off_c, 0, 44, 57
1, 400614, Control_c, 0, 64, 59
1, 400629, Control_c, 0, 64, 60
1, 400644, Control_c, 0, 64, 64
1, 400647, Note_on_c, 0, 52, 43
1, 400659, Control_c, 0, 64, 69
1, 400673, Control_c, 0, 64, 78
1, 400688, Control_c, 0, 64, 93
1, 400703, Control_c, 0, 64, 120
1, 400718, Control_c, 0, 64, 127
1, 400756, Note_off_c, 0, 52, 56
1, 400792, Note_on_c, 0, 38, 46
1, 400808, Note_off_c, 0, 64, 51
1, 400871, Note_off_c, 0, 38, 59
1, 400886, Note_on_c, 0, 44, 51
1, 400969, Note_off_c, 0, 56, 40
1, 400974, Note_off_c, 0, 44, 59
1, 400987, Note_on_c, 0, 52, 45
1, 401019, Note_on_c, 0, 59, 41
1, 401023, Note_off_c, 0, 52, 55
1, 401056, Note_off_c, 0, 59, 52
1, 401070, Note_off_c, 0, 68, 55
1, 401082, Control_c, 0, 64, 115
1, 401097, Control_c, 0, 64, 113
1, 401107, Note_on_c, 0, 44, 49
1, 401117, Note_on_c, 0, 66, 64
1, 401124, Note_on_c, 0, 56, 40
1, 401133, Note_off_c, 0, 44, 59
1, 401141, Control_c, 0, 64, 115
1, 401156, Control_c, 0, 64, 125
1, 401166, Note_on_c, 0, 52, 52
1, 401171, Control_c, 0, 64, 127
1, 401207, Note_off_c, 0, 52, 57
1, 401256, Note_on_c, 0, 38, 55
1, 401293, Note_off_c, 0, 38, 59
1, 401316, Note_off_c, 0, 56, 0
1, 401329, Note_on_c, 0, 64, 70
1, 401339, Note_on_c, 0, 44, 60
1, 401353, Poly_aftertouch_c, 0, 56, 127
1, 401360, Note_off_c, 0, 66, 29
1, 401395, Poly_aftertouch_c, 0, 56, 0
1, 401420, Note_on_c, 0, 52, 63
1, 401445, Note_on_c, 0, 59, 62
1, 401449, Note_off_c, 0, 44, 58
1, 401482, Note_off_c, 0, 59, 63
1, 401487, Note_off_c, 0, 52, 47
1, 401541, Control_c, 0, 64, 92
1, 401549, Note_on_c, 0, 66, 81
1, 401550, Note_on_c, 0, 44, 72
1, 401556, Control_c, 0, 64, 72
1, 401567, Note_on_c, 0, 56, 48
1, 401570, Control_c, 0, 64, 63
1, 401585, Control_c, 0, 64, 62
1, 401600, Control_c, 0, 64, 65
1, 401614, Control_c, 0, 64, 71
1, 401629, Control_c, 0, 64, 81
1, 401633, Note_on_c, 0, 37, 82
1, 401652, Control_c, 0, 64, 110
1, 401661, Note_off_c, 0, 44, 64
1, 401666, Control_c, 0, 64, 127
1, 401729, Note_off_c, 0, 37, 62
1, 401732, Note_on_c, 0, 44, 66
1, 401739, Note_off_c, 0, 64, 18
1, 401765, Note_on_c, 0, 52, 70
1, 401768, Note_on_c, 0, 68, 84
1, 401771, Control_c, 0, 64, 99
1, 401785, Control_c, 0, 64, 95
1, 401796, Note_off_c, 0, 56, 48
1, 401807, Note_off_c, 0, 66, 53
1, 401810, Note_off_c, 0, 52, 61
1, 401812, Note_off_c, 0, 44, 63
1, 401815, Control_c, 0, 64, 103
1, 401830, Control_c, 0, 64, 127
1, 401874, Note_on_c, 0, 61, 74
1, 401893, Note_off_c, 0, 68, 62
1, 401931, Note_off_c, 0, 61, 60
1, 401979, Control_c, 0, 64, 114
1, 401982, Note_on_c, 0, 26, 86
1, 401988, Note_on_c, 0, 38, 80
1, 401994, Control_c, 0, 64, 71
1, 401994, Control_c, 0, 67, 122
1, 402008, Control_c, 0, 64, 51
1, 402008, Control_c, 0, 67, 103
1, 402009, Note_off_c, 0, 26, 64
1, 402012, Note_off_c, 0, 38, 66
1, 402023, Control_c, 0, 64, 39
1, 402023, Control_c, 0, 67, 72
1, 402033, Note_on_c, 0, 28, 14
1, 402038, Control_c, 0, 64, 48
1, 402038, Control_c, 0, 67, 40
1, 402052, Control_c, 0, 64, 61
1, 402052, Control_c, 0, 67, 0
1, 402067, Control_c, 0, 64, 68
1, 402081, Note_off_c, 0, 28, 32
1, 402082, Control_c, 0, 64, 80
1, 402087, Note_on_c, 0, 71, 76
1, 402097, Control_c, 0, 64, 93
1, 402112, Control_c, 0, 64, 96
1, 402171, Control_c, 0, 64, 99
1, 402173, Note_off_c, 0, 71, 57
1, 402173, Note_on_c, 0, 69, 72
1, 402186, Control_c, 0, 64, 101
1, 402230, Control_c, 0, 64, 90
1, 402243, Note_on_c, 0, 52, 75
1, 402243, Note_on_c, 0, 68, 75
1, 402245, Control_c, 0, 64, 71
1, 402251, Note_off_c, 0, 69, 62
1, 402251, Note_on_c, 0, 40, 68
1, 402260, Control_c, 0, 64, 59
1, 402275, Control_c, 0, 64, 44
1, 402289, Control_c, 0, 64, 35
1, 402302, Note_off_c, 0, 68, 64
1, 402304, Control_c, 0, 64, 34
1, 402319, Control_c, 0, 64, 38
1, 402325, Note_on_c, 0, 64, 65
1, 402334, Control_c, 0, 64, 47
1, 402349, Control_c, 0, 64, 58
1, 402364, Control_c, 0, 64, 63
1, 402379, Note_off_c, 0, 64, 55
1, 402379, Control_c, 0, 64, 66
1, 402400, Control_c, 0, 64, 67
1, 402406, Note_on_c, 0, 61, 77
1, 402415, Control_c, 0, 64, 67
1, 402430, Control_c, 0, 64, 66
1, 402445, Control_c, 0, 64, 63
1, 402459, Control_c, 0, 64, 58
1, 402462, Note_off_c, 0, 61, 61
1, 402474, Control_c, 0, 64, 54
1, 402489, Control_c, 0, 64, 53
1, 402504, Control_c, 0, 64, 55
1, 402512, Note_on_c, 0, 59, 51
1, 402519, Control_c, 0, 64, 58
1, 402534, Control_c, 0, 64, 61
1, 402540, Note_off_c, 0, 59, 64
1, 402549, Control_c, 0, 64, 64
1, 402564, Note_on_c, 0, 68, 74
1, 402564, Control_c, 0, 64, 66
1, 402578, Control_c, 0, 64, 67
1, 402608, Control_c, 0, 64, 67
1, 402620, Note_off_c, 0, 40, 58
1, 402623, Control_c, 0, 67, 20
1, 402624, Note_off_c, 0, 52, 61
1, 402628, Note_on_c, 0, 66, 55
1, 402634, Note_off_c, 0, 68, 62
1, 402638, Control_c, 0, 64, 67
1, 402653, Control_c, 0, 64, 64
1, 402653, Control_c, 0, 67, 22
1, 402668, Control_c, 0, 64, 60
1, 402683, Control_c, 0, 64, 55
1, 402696, Note_on_c, 0, 64, 51
1, 402698, Control_c, 0, 64, 53
1, 402713, Control_c, 0, 64, 54
1, 402728, Control_c, 0, 64, 56
1, 402733, Note_on_c, 0, 52, 56
1, 402737, Note_off_c, 0, 66, 58
1, 402742, Note_on_c, 0, 40, 54
1, 402742, Note_off_c, 0, 64, 61
1, 402743, Control_c, 0, 64, 59
1, 402750, Note_on_c, 0, 61, 63
1, 402757, Control_c, 0, 64, 62
1, 402772, Control_c, 0, 64, 65
1, 402787, Control_c, 0, 64, 67
1, 402789, Note_off_c, 0, 61, 60
1, 402802, Control_c, 0, 64, 68
1, 402817, Note_on_c, 0, 59, 59
1, 402817, Control_c, 0, 64, 67
1, 402832, Control_c, 0, 64, 66
1, 402847, Control_c, 0, 64, 62
1, 402854, Note_off_c, 0, 59, 59
1, 402862, Control_c, 0, 64, 59
1, 402862, Control_c, 0, 67, 20
1, 402874, Note_on_c, 0, 64, 79
1, 402876, Control_c, 0, 64, 58
1, 402891, Control_c, 0, 64, 59
1, 402906, Control_c, 0, 64, 61
1, 402912, Note_off_c, 0, 64, 61
1, 402921, Control_c, 0, 64, 63
1, 402936, Control_c, 0, 64, 65
1, 402950, Control_c, 0, 64, 67
1, 402955, Note_on_c, 0, 57, 66
1, 402965, Control_c, 0, 64, 67
1, 402980, Control_c, 0, 64, 68
1, 402986, Note_off_c, 0, 57, 65
1, 402994, Control_c, 0, 64, 68
1, 402998, Note_off_c, 0, 52, 58
1, 403009, Control_c, 0, 64, 70
1, 403017, Note_on_c, 0, 56, 64
1, 403020, Note_off_c, 0, 40, 55
1, 403024, Control_c, 0, 64, 70
1, 403039, Control_c, 0, 64, 69
1, 403054, Control_c, 0, 64, 66
1, 403068, Control_c, 0, 64, 60
1, 403068, Control_c, 0, 67, 22
1, 403079, Note_off_c, 0, 56, 61
1, 403083, Control_c, 0, 64, 55
1, 403091, Note_on_c, 0, 59, 62
1, 403098, Control_c, 0, 64, 53
1, 403113, Control_c, 0, 64, 52
1, 403128, Control_c, 0, 64, 54
1, 403150, Control_c, 0, 64, 58
1, 403150, Control_c, 0, 67, 25
1, 403154, Note_on_c, 0, 54, 52
1, 403155, Note_off_c, 0, 59, 58
1, 403162, Note_on_c, 0, 40, 45
1, 403165, Control_c, 0, 64, 63
1, 403165, Control_c, 0, 67, 28
1, 403180, Control_c, 0, 64, 68
1, 403180, Control_c, 0, 67, 33
1, 403193, Note_off_c, 0, 54, 65
1, 403195, Control_c, 0, 64, 74
1, 403195, Control_c, 0, 67, 38
1, 403209, Control_c, 0, 64, 80
1, 403209, Control_c, 0, 67, 44
1, 403222, Note_on_c, 0, 52, 66
1, 403224, Control_c, 0, 64, 83
1, 403224, Control_c, 0, 67, 50
1, 403239, Control_c, 0, 64, 85
1, 403239, Control_c, 0, 67, 57
1, 403243, Note_off_c, 0, 52, 62
1, 403254, Control_c, 0, 64, 86
1, 403254, Control_c, 0, 67, 64
1, 403269, Control_c, 0, 64, 87
1, 403269, Control_c, 0, 67, 69
1, 403283, Control_c, 0, 64, 88
1, 403283, Control_c, 0, 67, 73
1, 403298, Control_c, 0, 67, 76
1, 403313, Control_c, 0, 67, 78
1, 403328, Control_c, 0, 67, 79
1, 403343, Control_c, 0, 67, 80
1, 403348, Note_off_c, 0, 40, 50
1, 403372, Control_c, 0, 64, 88
1, 403401, Control_c, 0, 67, 79
1, 403418, Control_c, 0, 64, 88
1, 403433, Control_c, 0, 64, 84
1, 403442, Note_on_c, 0, 68, 62
1, 403447, Control_c, 0, 64, 75
1, 403447, Control_c, 0, 67, 78
1, 403452, Note_on_c, 0, 44, 42
1, 403461, Note_on_c, 0, 56, 44
1, 403461, Note_on_c, 0, 64, 44
1, 403462, Control_c, 0, 64, 67
1, 403462, Control_c, 0, 67, 78
1, 403477, Control_c, 0, 64, 60
1, 403491, Control_c, 0, 64, 54
1, 403491, Control_c, 0, 67, 77
1, 403506, Control_c, 0, 64, 51
1, 403506, Control_c, 0, 67, 77
1, 403511, Note_off_c, 0, 44, 61
1, 403521, Control_c, 0, 64, 51
1, 403521, Control_c, 0, 67, 76
1, 403536, Control_c, 0, 64, 55
1, 403547, Note_on_c, 0, 52, 47
1, 403551, Control_c, 0, 64, 58
1, 403566, Control_c, 0, 64, 62
1, 403580, Control_c, 0, 64, 65
1, 403595, Control_c, 0, 64, 70
1, 403603, Note_off_c, 0, 52, 51
1, 403610, Control_c, 0, 64, 74
1, 403625, Control_c, 0, 64, 78
1, 403629, Note_on_c, 0, 38, 60
1, 403640, Control_c, 0, 64, 81
1, 403655, Control_c, 0, 64, 83
1, 403655, Control_c, 0, 67, 76
1, 403670, Control_c, 0, 64, 86
1, 403670, Control_c, 0, 67, 75
1, 403685, Control_c, 0, 64, 88
1, 403685, Note_off_c, 0, 38, 58
1, 403699, Control_c, 0, 64, 89
1, 403704, Note_on_c, 0, 44, 62
1, 403714, Control_c, 0, 64, 89
1, 403729, Control_c, 0, 64, 90
1, 403772, Note_off_c, 0, 44, 57
1, 403780, Note_off_c, 0, 56, 52
1, 403783, Note_on_c, 0, 52, 59
1, 403795, Note_off_c, 0, 64, 39
1, 403803, Control_c, 0, 64, 90
1, 403817, Control_c, 0, 64, 91
1, 403825, Note_off_c, 0, 52, 59
1, 403832, Control_c, 0, 64, 94
1, 403843, Note_on_c, 0, 59, 62
1, 403847, Control_c, 0, 64, 95
1, 403862, Control_c, 0, 64, 93
1, 403877, Note_off_c, 0, 68, 62
1, 403877, Control_c, 0, 64, 84
1, 403899, Control_c, 0, 64, 74
1, 403908, Note_off_c, 0, 59, 62
1, 403914, Control_c, 0, 64, 67
1, 403929, Control_c, 0, 64, 64
1, 403936, Note_on_c, 0, 44, 56
1, 403939, Note_on_c, 0, 66, 72
1, 403944, Control_c, 0, 64, 65
1, 403944, Note_on_c, 0, 56, 54
1, 403959, Control_c, 0, 64, 68
1, 403973, Control_c, 0, 64, 71
1, 403974, Note_off_c, 0, 44, 63
1, 403988, Control_c, 0, 64, 76
1, 403988, Control_c, 0, 67, 76
1, 403989, Note_on_c, 0, 52, 60
1, 404003, Control_c, 0, 64, 81
1, 404018, Control_c, 0, 64, 83
1, 404032, Control_c, 0, 64, 84
1, 404035, Note_off_c, 0, 52, 59
1, 404062, Control_c, 0, 67, 75
1, 404084, Note_on_c, 0, 38, 67
1, 404132, Note_off_c, 0, 38, 59
1, 404136, Control_c, 0, 64, 85
1, 404142, Note_off_c, 0, 56, 0
1, 404150, Note_on_c, 0, 44, 71
1, 404150, Control_c, 0, 64, 86
1, 404153, Note_on_c, 0, 64, 68
1, 404191, Note_off_c, 0, 66, 48
1, 404200, Poly_aftertouch_c, 0, 56, 0
1, 404240, Control_c, 0, 64, 86
1, 404245, Note_on_c, 0, 52, 67
1, 404255, Control_c, 0, 64, 87
1, 404270, Control_c, 0, 64, 89
1, 404277, Note_off_c, 0, 64, 0
1, 404283, Note_off_c, 0, 44, 62
1, 404284, Control_c, 0, 64, 93
1, 404287, Note_on_c, 0, 59, 70
1, 404292, Note_on_c, 0, 64, 35
1, 404299, Control_c, 0, 64, 101
1, 404299, Control_c, 0, 67, 76
1, 404312, Note_off_c, 0, 52, 55
1, 404313, Control_c, 0, 64, 119
1, 404325, Note_on_c, 0, 56, 22
1, 404328, Note_off_c, 0, 59, 61
1, 404328, Control_c, 0, 64, 127
1, 404332, Note_off_c, 0, 64, 63
1, 404358, Control_c, 0, 64, 106
1, 404367, Note_off_c, 0, 56, 43
1, 404373, Control_c, 0, 64, 79
1, 404374, Note_on_c, 0, 44, 72
1, 404388, Control_c, 0, 64, 64
1, 404391, Note_on_c, 0, 64, 83
1, 404393, Note_on_c, 0, 56, 61
1, 404403, Control_c, 0, 64, 54
1, 404403, Control_c, 0, 67, 75
1, 404418, Control_c, 0, 64, 50
1, 404433, Control_c, 0, 64, 52
1, 404447, Control_c, 0, 64, 57
1, 404459, Note_on_c, 0, 37, 72
1, 404462, Control_c, 0, 64, 62
1, 404477, Control_c, 0, 64, 68
1, 404491, Note_off_c, 0, 44, 62
1, 404492, Control_c, 0, 64, 77
1, 404507, Control_c, 0, 64, 91
1, 404521, Control_c, 0, 64, 108
1, 404536, Control_c, 0, 64, 127
1, 404547, Note_off_c, 0, 37, 62
1, 404563, Note_on_c, 0, 44, 41
1, 404565, Note_on_c, 0, 66, 79
1, 404566, Control_c, 0, 64, 110
1, 404580, Control_c, 0, 64, 87
1, 404584, Note_on_c, 0, 52, 74
1, 404595, Control_c, 0, 64, 73
1, 404610, Control_c, 0, 64, 67
1, 404615, Note_off_c, 0, 64, 60
1, 404625, Control_c, 0, 64, 65
1, 404647, Control_c, 0, 64, 69
1, 404656, Note_off_c, 0, 52, 62
1, 404660, Note_off_c, 0, 56, 53
1, 404662, Control_c, 0, 64, 75
1, 404677, Control_c, 0, 64, 81
1, 404680, Note_off_c, 0, 44, 64
1, 404692, Control_c, 0, 64, 88
1, 404707, Control_c, 0, 64, 97
1, 404711, Note_on_c, 0, 68, 81
1, 404721, Control_c, 0, 64, 112
1, 404736, Control_c, 0, 64, 127
1, 404749, Note_off_c, 0, 66, 60
1, 404757, Note_on_c, 0, 61, 70
1, 404784, Note_off_c, 0, 68, 61
1, 404820, Note_off_c, 0, 61, 61
1, 404840, Control_c, 0, 64, 74
1, 404844, Note_on_c, 0, 26, 91
1, 404846, Note_on_c, 0, 38, 93
1, 404854, Control_c, 0, 64, 61
1, 404869, Control_c, 0, 64, 56
1, 404869, Control_c, 0, 67, 75
1, 404871, Note_off_c, 0, 38, 70
1, 404872, Note_off_c, 0, 26, 67
1, 404884, Control_c, 0, 64, 58
1, 404884, Control_c, 0, 67, 74
1, 404899, Control_c, 0, 64, 63
1, 404899, Control_c, 0, 67, 74
1, 404914, Control_c, 0, 64, 67
1, 404928, Control_c, 0, 64, 73
1, 404943, Control_c, 0, 64, 81
1, 404957, Note_on_c, 0, 71, 76
1, 404958, Control_c, 0, 64, 83
1, 405018, Control_c, 0, 64, 83
1, 405030, Note_off_c, 0, 71, 60
1, 405034, Note_on_c, 0, 69, 68
1, 405062, Control_c, 0, 64, 81
1, 405077, Control_c, 0, 64, 76
1, 405091, Note_on_c, 0, 68, 76
1, 405092, Control_c, 0, 64, 69
1, 405098, Note_on_c, 0, 52, 79
1, 405100, Note_off_c, 0, 69, 62
1, 405105, Note_on_c, 0, 40, 74
1, 405106, Control_c, 0, 64, 63
1, 405106, Control_c, 0, 67, 73
1, 405121, Control_c, 0, 64, 56
1, 405121, Control_c, 0, 67, 72
1, 405136, Control_c, 0, 64, 49
1, 405136, Control_c, 0, 67, 72
1, 405148, Note_off_c, 0, 68, 63
1, 405151, Control_c, 0, 64, 45
1, 405151, Control_c, 0, 67, 71
1, 405165, Note_on_c, 0, 64, 70
1, 405166, Control_c, 0, 64, 43
1, 405181, Control_c, 0, 64, 44
1, 405195, Control_c, 0, 64, 47
1, 405199, Note_off_c, 0, 64, 65
1, 405210, Control_c, 0, 64, 52
1, 405225, Control_c, 0, 64, 56
1, 405240, Control_c, 0, 64, 58
1, 405251, Note_on_c, 0, 61, 81
1, 405255, Control_c, 0, 64, 59
1, 405269, Control_c, 0, 64, 61
1, 405284, Control_c, 0, 64, 62
1, 405284, Control_c, 0, 67, 71
1, 405297, Note_off_c, 0, 61, 63
1, 405299, Control_c, 0, 64, 63
1, 405314, Control_c, 0, 64, 65
1, 405322, Note_on_c, 0, 59, 68
1, 405329, Control_c, 0, 64, 67
1, 405343, Control_c, 0, 64, 69
1, 405358, Control_c, 0, 64, 71
1, 405373, Control_c, 0, 64, 73
1, 405373, Control_c, 0, 67, 71
1, 405376, Note_off_c, 0, 59, 62
1, 405395, Control_c, 0, 64, 74
1, 405400, Note_on_c, 0, 68, 79
1, 405410, Control_c, 0, 64, 76
1, 405425, Control_c, 0, 64, 77
1, 405440, Control_c, 0, 64, 78
1, 405441, Note_off_c, 0, 40, 61
1, 405447, Note_off_c, 0, 52, 62
1, 405455, Control_c, 0, 64, 80
1, 405469, Control_c, 0, 64, 81
1, 405471, Note_on_c, 0, 66, 61
1, 405472, Note_off_c, 0, 68, 63
1, 405484, Control_c, 0, 67, 72
1, 405499, Control_c, 0, 64, 77
1, 405514, Control_c, 0, 64, 69
1, 405529, Control_c, 0, 64, 61
1, 405543, Control_c, 0, 64, 56
1, 405545, Note_on_c, 0, 64, 54
1, 405548, Note_on_c, 0, 52, 58
1, 405553, Note_on_c, 0, 40, 54
1, 405558, Control_c, 0, 64, 53
1, 405588, Control_c, 0, 64, 55
1, 405593, Note_off_c, 0, 66, 59
1, 405599, Note_off_c, 0, 64, 58
1, 405602, Control_c, 0, 64, 58
1, 405607, Note_on_c, 0, 61, 68
1, 405617, Control_c, 0, 64, 61
1, 405632, Control_c, 0, 64, 64
1, 405645, Note_off_c, 0, 61, 60
1, 405647, Control_c, 0, 64, 67
1, 405662, Control_c, 0, 64, 69
1, 405676, Control_c, 0, 64, 70
1, 405683, Note_on_c, 0, 59, 61
1, 405691, Control_c, 0, 64, 71
1, 405706, Control_c, 0, 64, 72
1, 405720, Note_off_c, 0, 59, 61
1, 405721, Control_c, 0, 64, 73
1, 405736, Control_c, 0, 64, 74
1, 405750, Note_on_c, 0, 64, 45
1, 405750, Control_c, 0, 64, 74
1, 405765, Control_c, 0, 64, 76
1, 405778, Note_off_c, 0, 64, 51
1, 405781, Control_c, 0, 64, 77
1, 405786, Note_off_c, 0, 40, 55
1, 405795, Control_c, 0, 64, 79
1, 405807, Note_off_c, 0, 52, 60
1, 405809, Note_on_c, 0, 57, 65
1, 405810, Control_c, 0, 64, 81
1, 405826, Control_c, 0, 64, 84
1, 405840, Note_off_c, 0, 57, 66
1, 405841, Control_c, 0, 64, 87
1, 405856, Control_c, 0, 64, 88
1, 405871, Control_c, 0, 64, 88
1, 405872, Note_on_c, 0, 56, 69
1, 405886, Control_c, 0, 64, 86
1, 405900, Control_c, 0, 64, 77
1, 405900, Control_c, 0, 67, 71
1, 405915, Control_c, 0, 64, 67
1, 405930, Control_c, 0, 64, 57
1, 405930, Control_c, 0, 67, 71
1, 405935, Note_on_c, 0, 40, 55
1, 405943, Note_on_c, 0, 59, 67
1, 405945, Control_c, 0, 64, 51
1, 405949, Note_off_c, 0, 56, 61
1, 405960, Control_c, 0, 64, 48
1, 405960, Control_c, 0, 67, 70
1, 405974, Control_c, 0, 67, 70
1, 405989, Control_c, 0, 64, 52
1, 405989, Control_c, 0, 67, 68
1, 406004, Control_c, 0, 64, 57
1, 406004, Control_c, 0, 67, 66
1, 406008, Note_on_c, 0, 54, 52
1, 406019, Control_c, 0, 64, 61
1, 406019, Control_c, 0, 67, 63
1, 406033, Control_c, 0, 64, 66
1, 406033, Control_c, 0, 67, 55
1, 406039, Note_off_c, 0, 59, 60
1, 406048, Control_c, 0, 64, 72
1, 406048, Control_c, 0, 67, 41
1, 406063, Control_c, 0, 64, 80
1, 406063, Control_c, 0, 67, 25
1, 406064, Note_off_c, 0, 54, 63
1, 406073, Note_on_c, 0, 52, 71
1, 406078, Control_c, 0, 64, 86
1, 406078, Control_c, 0, 67, 0
1, 406093, Control_c, 0, 64, 92
1, 406100, Note_off_c, 0, 52, 67
1, 406108, Control_c, 0, 64, 102
1, 406123, Control_c, 0, 64, 127
1, 406190, Note_off_c, 0, 40, 55
1, 406341, Note_on_c, 0, 47, 67
1, 406345, Note_on_c, 0, 71, 81
1, 406349, Note_on_c, 0, 68, 71
1, 406350, Note_on_c, 0, 59, 63
1, 406367, Control_c, 0, 64, 97
1, 406382, Control_c, 0, 64, 73
1, 406397, Control_c, 0, 64, 58
1, 406412, Control_c, 0, 64, 34
1, 406426, Control_c, 0, 64, 0
1, 406470, Note_on_c, 0, 56, 62
1, 406485, Note_off_c, 0, 47, 59
1, 406515, Control_c, 0, 64, 46
1, 406522, Note_off_c, 0, 56, 58
1, 406529, Control_c, 0, 64, 62
1, 406543, Control_c, 0, 64, 68
1, 406558, Control_c, 0, 64, 74
1, 406573, Control_c, 0, 64, 77
1, 406588, Control_c, 0, 64, 80
1, 406591, Note_on_c, 0, 39, 60
1, 406603, Control_c, 0, 64, 84
1, 406619, Control_c, 0, 64, 90
1, 406634, Control_c, 0, 64, 100
1, 406636, Note_off_c, 0, 39, 57
1, 406648, Control_c, 0, 64, 127
1, 406669, Note_on_c, 0, 47, 50
1, 406748, Note_on_c, 0, 56, 62
1, 406748, Note_off_c, 0, 59, 55
1, 406754, Note_off_c, 0, 47, 62
1, 406790, Note_off_c, 0, 56, 58
1, 406809, Note_off_c, 0, 68, 53
1, 406814, Note_on_c, 0, 63, 61
1, 406844, Note_off_c, 0, 63, 67
1, 406844, Note_off_c, 0, 71, 59
1, 406893, Note_on_c, 0, 47, 58
1, 406895, Note_on_c, 0, 59, 47
1, 406900, Note_on_c, 0, 70, 77
1, 406978, Note_on_c, 0, 56, 56
1, 406984, Note_off_c, 0, 47, 61
1, 407005, Note_off_c, 0, 56, 62
1, 407078, Note_on_c, 0, 39, 63
1, 407119, Note_off_c, 0, 39, 62
1, 407121, Note_on_c, 0, 68, 85
1, 407145, Note_on_c, 0, 47, 60
1, 407163, Note_off_c, 0, 70, 55
1, 407240, Note_off_c, 0, 47, 61
1, 407241, Note_on_c, 0, 56, 64
1, 407265, Note_on_c, 0, 63, 78
1, 407277, Note_off_c, 0, 56, 62
1, 407282, Note_off_c, 0, 68, 58
1, 407303, Note_off_c, 0, 63, 61
1, 407348, Note_off_c, 0, 59, 0
1, 407358, Note_on_c, 0, 68, 88
1, 407361, Note_on_c, 0, 47, 64
1, 407361, Note_on_c, 0, 59, 46
1, 407463, Note_on_c, 0, 56, 62
1, 407473, Note_off_c, 0, 47, 61
1, 407494, Note_off_c, 0, 56, 63
1, 407551, Note_on_c, 0, 70, 88
1, 407576, Note_on_c, 0, 39, 68
1, 407596, Note_off_c, 0, 68, 61
1, 407638, Note_off_c, 0, 39, 55
1, 407664, Note_on_c, 0, 47, 60
1, 407688, Note_on_c, 0, 71, 76
1, 407698, Note_off_c, 0, 70, 62
1, 407716, Note_off_c, 0, 59, 40
1, 407727, Note_off_c, 0, 71, 65
1, 407734, Note_on_c, 0, 63, 74
1, 407746, Note_on_c, 0, 56, 57
1, 407756, Note_off_c, 0, 47, 61
1, 407783, Note_off_c, 0, 63, 61
1, 407786, Note_off_c, 0, 56, 61
1, 407847, Note_on_c, 0, 68, 78
1, 407849, Control_c, 0, 64, 107
1, 407852, Note_on_c, 0, 75, 86
1, 407858, Note_on_c, 0, 47, 74
1, 407864, Control_c, 0, 64, 75
1, 407879, Control_c, 0, 64, 62
1, 407894, Control_c, 0, 64, 60
1, 407908, Control_c, 0, 64, 65
1, 407923, Control_c, 0, 64, 72
1, 407938, Control_c, 0, 64, 80
1, 407940, Note_on_c, 0, 56, 74
1, 407953, Control_c, 0, 64, 90
1, 407959, Note_off_c, 0, 47, 63
1, 407966, Note_off_c, 0, 56, 65
1, 407968, Control_c, 0, 64, 127
1, 408036, Note_on_c, 0, 39, 77
1, 408087, Note_on_c, 0, 47, 65
1, 408090, Note_off_c, 0, 39, 60
1, 408096, Note_off_c, 0, 68, 62
1, 408168, Note_on_c, 0, 56, 69
1, 408193, Note_off_c, 0, 47, 60
1, 408210, Note_off_c, 0, 75, 60
1, 408220, Note_on_c, 0, 63, 73
1, 408231, Note_off_c, 0, 56, 58
1, 408254, Note_off_c, 0, 63, 62
1, 408297, Note_on_c, 0, 47, 68
1, 408310, Note_on_c, 0, 73, 86
1, 408323, Note_on_c, 0, 68, 67
1, 408338, Note_on_c, 0, 63, 50
1, 408365, Note_on_c, 0, 56, 62
1, 408366, Note_off_c, 0, 47, 63
1, 408373, Note_off_c, 0, 63, 49
1, 408401, Note_off_c, 0, 56, 62
1, 408482, Note_on_c, 0, 39, 71
1, 408512, Note_off_c, 0, 68, 58
1, 408528, Note_off_c, 0, 39, 60
1, 408549, Note_on_c, 0, 71, 79
1, 408550, Note_on_c, 0, 47, 62
1, 408608, Note_off_c, 0, 73, 50
1, 408628, Note_on_c, 0, 56, 67
1, 408665, Note_off_c, 0, 71, 62
1, 408671, Note_off_c, 0, 47, 45
1, 408682, Note_off_c, 0, 56, 59
1, 408696, Note_on_c, 0, 63, 72
1, 408720, Note_off_c, 0, 63, 69
1, 408758, Note_on_c, 0, 47, 59
1, 408787, Note_on_c, 0, 71, 81
1, 408793, Note_on_c, 0, 68, 76
1, 408798, Note_on_c, 0, 63, 77
1, 408816, Note_on_c, 0, 56, 61
1, 408839, Note_off_c, 0, 47, 63
1, 408849, Note_off_c, 0, 56, 64
1, 408946, Note_on_c, 0, 39, 64
1, 408948, Note_off_c, 0, 63, 54
1, 408970, Note_on_c, 0, 73, 82
1, 408981, Note_off_c, 0, 39, 64
1, 408988, Note_off_c, 0, 68, 56
1, 408994, Note_on_c, 0, 47, 54
1, 409081, Note_on_c, 0, 56, 73
1, 409092, Note_on_c, 0, 75, 80
1, 409092, Note_off_c, 0, 71, 58
1, 409109, Note_off_c, 0, 56, 64
1, 409109, Note_off_c, 0, 73, 56
1, 409120, Note_off_c, 0, 47, 63
1, 409178, Note_on_c, 0, 63, 71
1, 409215, Note_off_c, 0, 63, 60
1, 409248, Note_off_c, 0, 75, 58
1, 409348, Control_c, 0, 64, 92
1, 409362, Control_c, 0, 64, 64
1, 409371, Note_on_c, 0, 27, 81
1, 409375, Note_on_c, 0, 76, 93
1, 409376, Note_on_c, 0, 39, 84
1, 409377, Control_c, 0, 64, 33
1, 409385, Note_on_c, 0, 59, 64
1, 409385, Note_on_c, 0, 68, 65
1, 409387, Note_on_c, 0, 71, 64
1, 409392, Control_c, 0, 64, 0
1, 409396, Note_on_c, 0, 60, 45
1, 409403, Note_off_c, 0, 68, 66
1, 409407, Note_off_c, 0, 27, 66
1, 409408, Note_off_c, 0, 59, 65
1, 409410, Note_off_c, 0, 71, 66
1, 409422, Control_c, 0, 64, 50
1, 409423, Note_off_c, 0, 60, 58
1, 409427, Note_off_c, 0, 39, 63
1, 409436, Control_c, 0, 64, 60
1, 409451, Control_c, 0, 64, 67
1, 409466, Control_c, 0, 64, 75
1, 409481, Control_c, 0, 64, 82
1, 409496, Control_c, 0, 64, 85
1, 409510, Control_c, 0, 64, 86
1, 409522, Note_on_c, 0, 71, 66
1, 409531, Note_off_c, 0, 76, 57
1, 409601, Note_on_c, 0, 35, 75
1, 409604, Note_on_c, 0, 47, 77
1, 409611, Note_on_c, 0, 70, 76
1, 409629, Note_off_c, 0, 35, 64
1, 409639, Note_off_c, 0, 71, 63
1, 409643, Note_off_c, 0, 47, 63
1, 409703, Control_c, 0, 64, 87
1, 409704, Note_on_c, 0, 68, 73
1, 409718, Control_c, 0, 64, 88
1, 409719, Note_off_c, 0, 70, 61
1, 409748, Control_c, 0, 64, 82
1, 409753, Note_off_c, 0, 68, 64
1, 409762, Control_c, 0, 64, 72
1, 409777, Control_c, 0, 64, 65
1, 409778, Note_on_c, 0, 56, 87
1, 409785, Note_on_c, 0, 65, 60
1, 409786, Note_on_c, 0, 44, 65
1, 409792, Control_c, 0, 64, 64
1, 409804, Note_off_c, 0, 56, 67
1, 409807, Control_c, 0, 64, 66
1, 409810, Note_off_c, 0, 44, 64
1, 409810, Note_off_c, 0, 65, 67
1, 409822, Control_c, 0, 64, 70
1, 409837, Control_c, 0, 64, 76
1, 409852, Control_c, 0, 64, 87
1, 409858, Note_on_c, 0, 61, 68
1, 409867, Control_c, 0, 64, 97
1, 409889, Control_c, 0, 64, 95
1, 409904, Control_c, 0, 64, 79
1, 409907, Note_off_c, 0, 61, 58
1, 409919, Control_c, 0, 64, 61
1, 409933, Control_c, 0, 64, 43
1, 409936, Note_on_c, 0, 64, 83
1, 409939, Note_on_c, 0, 52, 76
1, 409943, Note_on_c, 0, 59, 70
1, 409948, Control_c, 0, 64, 32
1, 409957, Note_off_c, 0, 64, 69
1, 409963, Control_c, 0, 64, 37
1, 409965, Note_off_c, 0, 52, 69
1, 409978, Control_c, 0, 64, 51
1, 409992, Control_c, 0, 64, 62
1, 410007, Control_c, 0, 64, 70
1, 410012, Note_off_c, 0, 59, 57
1, 410022, Note_on_c, 0, 68, 79
1, 410022, Control_c, 0, 64, 78
1, 410037, Control_c, 0, 64, 82
1, 410052, Control_c, 0, 64, 83
1, 410067, Control_c, 0, 64, 84
1, 410080, Note_on_c, 0, 66, 67
1, 410082, Control_c, 0, 64, 85
1, 410111, Control_c, 0, 64, 82
1, 410119, Note_off_c, 0, 68, 64
1, 410126, Control_c, 0, 64, 72
1, 410141, Control_c, 0, 64, 61
1, 410141, Note_on_c, 0, 56, 82
1, 410146, Note_on_c, 0, 44, 73
1, 410155, Note_on_c, 0, 64, 49
1, 410156, Control_c, 0, 64, 47
1, 410171, Control_c, 0, 64, 38
1, 410200, Control_c, 0, 64, 44
1, 410210, Note_on_c, 0, 61, 72
1, 410215, Control_c, 0, 64, 54
1, 410219, Note_off_c, 0, 64, 61
1, 410228, Note_off_c, 0, 66, 63
1, 410230, Control_c, 0, 64, 59
1, 410233, Note_off_c, 0, 56, 58
1, 410245, Control_c, 0, 64, 61
1, 410266, Note_off_c, 0, 61, 62
1, 410288, Control_c, 0, 64, 60
1, 410289, Note_on_c, 0, 59, 62
1, 410325, Note_on_c, 0, 64, 78
1, 410329, Note_off_c, 0, 59, 64
1, 410362, Control_c, 0, 64, 61
1, 410392, Control_c, 0, 64, 62
1, 410396, Note_off_c, 0, 64, 62
1, 410398, Note_on_c, 0, 59, 59
1, 410406, Control_c, 0, 64, 63
1, 410421, Control_c, 0, 64, 65
1, 410436, Control_c, 0, 64, 66
1, 410437, Note_off_c, 0, 59, 65
1, 410451, Control_c, 0, 64, 66
1, 410458, Note_on_c, 0, 56, 75
1, 410466, Control_c, 0, 64, 64
1, 410481, Control_c, 0, 64, 60
1, 410493, Note_off_c, 0, 56, 58
1, 410496, Control_c, 0, 64, 56
1, 410510, Control_c, 0, 64, 55
1, 410525, Control_c, 0, 64, 55
1, 410526, Note_on_c, 0, 58, 74
1, 410532, Note_on_c, 0, 51, 71
1, 410534, Note_on_c, 0, 39, 72
1, 410540, Control_c, 0, 64, 57
1, 410544, Note_off_c, 0, 44, 62
1, 410555, Control_c, 0, 64, 59
1, 410558, Note_off_c, 0, 58, 67
1, 410570, Note_off_c, 0, 51, 63
1, 410570, Control_c, 0, 64, 61
1, 410584, Control_c, 0, 64, 63
1, 410590, Note_off_c, 0, 39, 63
1, 410599, Control_c, 0, 64, 63
1, 410615, Note_on_c, 0, 59, 61
1, 410615, Control_c, 0, 64, 64
1, 410637, Control_c, 0, 64, 64
1, 410662, Note_off_c, 0, 59, 62
1, 410682, Control_c, 0, 64, 63
1, 410696, Control_c, 0, 64, 61
1, 410698, Note_on_c, 0, 64, 64
1, 410711, Control_c, 0, 64, 54
1, 410726, Control_c, 0, 64, 45
1, 410740, Control_c, 0, 64, 39
1, 410751, Note_on_c, 0, 27, 79
1, 410751, Note_on_c, 0, 39, 86
1, 410755, Note_off_c, 0, 64, 62
1, 410762, Note_on_c, 0, 67, 65
1, 410770, Control_c, 0, 64, 45
1, 410772, Note_on_c, 0, 59, 60
1, 410774, Note_off_c, 0, 27, 65
1, 410777, Note_off_c, 0, 39, 64
1, 410785, Control_c, 0, 64, 53
1, 410800, Control_c, 0, 64, 59
1, 410814, Note_off_c, 0, 59, 62
1, 410815, Control_c, 0, 64, 63
1, 410830, Control_c, 0, 64, 65
1, 410850, Note_off_c, 0, 67, 64
1, 410851, Note_on_c, 0, 71, 66
1, 410857, Note_on_c, 0, 69, 65
1, 410860, Control_c, 0, 64, 64
1, 410874, Control_c, 0, 64, 64
1, 410884, Note_off_c, 0, 69, 65
1, 410896, Note_off_c, 0, 71, 64
1, 410912, Note_on_c, 0, 64, 53
1, 410926, Note_on_c, 0, 51, 77
1, 410930, Note_on_c, 0, 39, 66
1, 410933, Control_c, 0, 64, 64
1, 410952, Note_off_c, 0, 51, 67
1, 410955, Note_off_c, 0, 39, 63
1, 410967, Note_off_c, 0, 64, 65
1, 410993, Control_c, 0, 64, 65
1, 410997, Note_on_c, 0, 63, 53
1, 411021, Note_off_c, 0, 63, 60
1, 411038, Control_c, 0, 64, 65
1, 411053, Control_c, 0, 64, 66
1, 411061, Note_on_c, 0, 55, 82
1, 411063, Note_on_c, 0, 43, 77
1, 411068, Control_c, 0, 64, 66
1, 411068, Note_on_c, 0, 61, 69
1, 411082, Control_c, 0, 64, 67
1, 411089, Note_off_c, 0, 43, 65
1, 411091, Note_off_c, 0, 55, 65
1, 411112, Note_off_c, 0, 61, 61
1, 411112, Control_c, 0, 64, 66
1, 411127, Control_c, 0, 64, 63
1, 411134, Note_on_c, 0, 59, 56
1, 411141, Control_c, 0, 64, 58
1, 411156, Control_c, 0, 64, 49
1, 411162, Note_off_c, 0, 59, 66
1, 411171, Control_c, 0, 64, 38
1, 411186, Control_c, 0, 64, 0
1, 411207, Note_on_c, 0, 55, 72
1, 411207, Note_on_c, 0, 59, 80
1, 411209, Note_on_c, 0, 47, 73
1, 411215, Control_c, 0, 64, 31
1, 411227, Note_off_c, 0, 59, 72
1, 411229, Note_off_c, 0, 47, 67
1, 411230, Control_c, 0, 64, 42
1, 411232, Note_off_c, 0, 55, 67
1, 411245, Control_c, 0, 64, 52
1, 411259, Control_c, 0, 64, 59
1, 411274, Control_c, 0, 64, 63
1, 411289, Control_c, 0, 64, 64
1, 411305, Note_on_c, 0, 63, 75
1, 411349, Note_on_c, 0, 61, 68
1, 411389, Note_off_c, 0, 63, 59
1, 411401, Control_c, 0, 64, 64
1, 411417, Control_c, 0, 64, 63
1, 411427, Note_on_c, 0, 59, 56
1, 411432, Control_c, 0, 64, 63
1, 411438, Note_on_c, 0, 51, 60
1, 411441, Note_on_c, 0, 39, 72
1, 411446, Control_c, 0, 64, 62
1, 411461, Control_c, 0, 64, 60
1, 411476, Note_off_c, 0, 51, 63
1, 411476, Control_c, 0, 64, 59
1, 411491, Control_c, 0, 64, 58
1, 411493, Note_off_c, 0, 61, 61
1, 411498, Note_on_c, 0, 55, 66
1, 411506, Control_c, 0, 64, 57
1, 411509, Note_off_c, 0, 59, 63
1, 411535, Control_c, 0, 64, 57
1, 411550, Control_c, 0, 64, 58
1, 411566, Note_on_c, 0, 51, 69
1, 411579, Control_c, 0, 64, 58
1, 411592, Note_off_c, 0, 55, 57
1, 411594, Control_c, 0, 64, 58
1, 411624, Control_c, 0, 64, 57
1, 411632, Note_on_c, 0, 59, 60
1, 411634, Note_off_c, 0, 51, 60
1, 411638, Control_c, 0, 64, 56
1, 411653, Control_c, 0, 64, 55
1, 411668, Control_c, 0, 64, 53
1, 411682, Control_c, 0, 64, 52
1, 411697, Control_c, 0, 64, 52
1, 411712, Note_on_c, 0, 55, 60
1, 411712, Control_c, 0, 64, 52
1, 411744, Note_off_c, 0, 59, 61
1, 411750, Note_off_c, 0, 39, 58
1, 411757, Control_c, 0, 64, 51
1, 411772, Control_c, 0, 64, 49
1, 411772, Control_c, 0, 67, 20
1, 411775, Note_off_c, 0, 55, 62
1, 411787, Control_c, 0, 64, 47
1, 411787, Control_c, 0, 67, 23
1, 411801, Note_on_c, 0, 49, 56
1, 411802, Control_c, 0, 64, 42
1, 411802, Control_c, 0, 67, 27
1, 411816, Control_c, 0, 64, 30
1, 411816, Control_c, 0, 67, 31
1, 411825, Note_off_c, 0, 49, 61
1, 411831, Control_c, 0, 64, 0
1, 411831, Control_c, 0, 67, 36
1, 411846, Control_c, 0, 67, 40
1, 411861, Control_c, 0, 67, 44
1, 411875, Control_c, 0, 67, 47
1, 411876, Note_on_c, 0, 39, 61
1, 411878, Note_on_c, 0, 55, 55
1, 411890, Control_c, 0, 67, 49
1, 411891, Note_on_c, 0, 51, 41
1, 411905, Control_c, 0, 67, 53
1, 411915, Note_off_c, 0, 39, 60
1, 411920, Control_c, 0, 67, 56
1, 411925, Note_off_c, 0, 51, 56
1, 411935, Control_c, 0, 64, 29
1, 411935, Control_c, 0, 67, 59
1, 411949, Control_c, 0, 64, 47
1, 411949, Control_c, 0, 67, 60
1, 411952, Note_off_c, 0, 55, 51
1, 411964, Control_c, 0, 64, 58
1, 411964, Control_c, 0, 67, 60
1, 411975, Note_on_c, 0, 58, 56
1, 411979, Control_c, 0, 64, 63
1, 411979, Control_c, 0, 67, 61
1, 411994, Control_c, 0, 64, 65
1, 412009, Control_c, 0, 64, 66
1, 412009, Control_c, 0, 67, 62
1, 412024, Control_c, 0, 64, 67
1, 412024, Control_c, 0, 67, 63
1, 412038, Control_c, 0, 64, 69
1, 412053, Control_c, 0, 64, 69
1, 412053, Control_c, 0, 67, 63
1, 412056, Note_on_c, 0, 63, 46
1, 412062, Note_off_c, 0, 58, 62
1, 412068, Control_c, 0, 64, 70
1, 412068, Control_c, 0, 67, 64
1, 412082, Control_c, 0, 64, 71
1, 412082, Control_c, 0, 67, 65
1, 412087, Note_off_c, 0, 63, 59
1, 412097, Control_c, 0, 67, 69
1, 412112, Control_c, 0, 64, 72
1, 412112, Control_c, 0, 67, 75
1, 412135, Control_c, 0, 67, 79
1, 412150, Control_c, 0, 67, 81
1, 412164, Control_c, 0, 64, 70
1, 412164, Control_c, 0, 67, 83
1, 412179, Control_c, 0, 64, 65
1, 412179, Control_c, 0, 67, 85
1, 412189, Note_on_c, 0, 51, 39
1, 412192, Note_on_c, 0, 39, 49
1, 412194, Control_c, 0, 64, 59
1, 412194, Control_c, 0, 67, 87
1, 412210, Control_c, 0, 64, 53
1, 412210, Control_c, 0, 67, 90
1, 412224, Note_off_c, 0, 51, 55
1, 412225, Control_c, 0, 64, 53
1, 412225, Control_c, 0, 67, 94
1, 412240, Control_c, 0, 64, 55
1, 412240, Control_c, 0, 67, 99
1, 412244, Note_off_c, 0, 39, 56
1, 412255, Control_c, 0, 64, 57
1, 412255, Control_c, 0, 67, 105
1, 412263, Note_on_c, 0, 56, 54
1, 412269, Control_c, 0, 64, 60
1, 412269, Control_c, 0, 67, 110
1, 412284, Control_c, 0, 64, 63
1, 412284, Control_c, 0, 67, 116
1, 412299, Control_c, 0, 64, 64
1, 412299, Control_c, 0, 67, 120
1, 412313, Control_c, 0, 64, 63
1, 412313, Control_c, 0, 67, 124
1, 412317, Note_on_c, 0, 51, 64
1, 412328, Control_c, 0, 64, 60
1, 412343, Control_c, 0, 64, 56
1, 412343, Control_c, 0, 67, 126
1, 412346, Note_off_c, 0, 56, 58
1, 412358, Control_c, 0, 64, 50
1, 412371, Note_off_c, 0, 51, 55
1, 412373, Control_c, 0, 64, 46
1, 412384, Note_on_c, 0, 55, 48
1, 412387, Control_c, 0, 64, 44
1, 412396, Note_on_c, 0, 37, 48
1, 412402, Control_c, 0, 64, 47
1, 412413, Note_on_c, 0, 49, 26
1, 412417, Control_c, 0, 64, 53
1, 412432, Control_c, 0, 64, 57
1, 412436, Note_off_c, 0, 37, 57
1, 412447, Control_c, 0, 64, 60
1, 412453, Note_off_c, 0, 55, 58
1, 412454, Note_off_c, 0, 49, 50
1, 412458, Note_on_c, 0, 56, 56
1, 412461, Control_c, 0, 64, 60
1, 412476, Control_c, 0, 64, 59
1, 412491, Control_c, 0, 64, 58
1, 412505, Control_c, 0, 64, 56
1, 412520, Control_c, 0, 64, 54
1, 412526, Note_off_c, 0, 56, 61
1, 412535, Note_on_c, 0, 59, 53
1, 412535, Control_c, 0, 64, 53
1, 412550, Control_c, 0, 64, 53
1, 412565, Control_c, 0, 64, 53
1, 412575, Note_off_c, 0, 59, 63
1, 412580, Control_c, 0, 64, 55
1, 412585, Note_on_c, 0, 39, 53
1, 412591, Note_on_c, 0, 58, 52
1, 412594, Control_c, 0, 64, 56
1, 412603, Note_on_c, 0, 51, 4
1, 412609, Control_c, 0, 64, 57
1, 412621, Note_off_c, 0, 51, 0
1, 412624, Control_c, 0, 64, 59
1, 412626, Note_off_c, 0, 58, 65
1, 412630, Note_off_c, 0, 39, 57
1, 412639, Control_c, 0, 64, 61
1, 412654, Control_c, 0, 64, 63
1, 412657, Poly_aftertouch_c, 0, 51, 127
1, 412669, Control_c, 0, 64, 65
1, 412684, Control_c, 0, 64, 67
1, 412699, Control_c, 0, 64, 67
1, 412708, Poly_aftertouch_c, 0, 51, 0
1, 412713, Control_c, 0, 64, 68
1, 412725, Note_on_c, 0, 56, 60
1, 412772, Control_c, 0, 64, 67
1, 412799, Note_off_c, 0, 56, 57
1, 412802, Control_c, 0, 64, 67
1, 412807, Note_on_c, 0, 58, 56
1, 412809, Note_on_c, 0, 37, 50
1, 412817, Note_on_c, 0, 49, 47
1, 412817, Control_c, 0, 64, 66
1, 412832, Control_c, 0, 64, 66
1, 412850, Note_off_c, 0, 37, 51
1, 412861, Control_c, 0, 64, 65
1, 412865, Note_off_c, 0, 49, 63
1, 412868, Note_on_c, 0, 63, 50
1, 412887, Note_off_c, 0, 58, 61
1, 412898, Control_c, 0, 64, 65
1, 412910, Note_off_c, 0, 63, 65
1, 412913, Control_c, 0, 64, 64
1, 412928, Control_c, 0, 67, 124
1, 412937, Note_on_c, 0, 55, 60
1, 412990, Note_off_c, 0, 55, 62
1, 412997, Note_on_c, 0, 51, 55
1, 413005, Note_on_c, 0, 39, 57
1, 413012, Note_on_c, 0, 59, 59
1, 413018, Control_c, 0, 64, 63
1, 413018, Control_c, 0, 67, 122
1, 413033, Control_c, 0, 64, 61
1, 413040, Note_off_c, 0, 51, 58
1, 413048, Control_c, 0, 64, 55
1, 413062, Control_c, 0, 64, 46
1, 413062, Control_c, 0, 67, 120
1, 413077, Control_c, 0, 64, 38
1, 413079, Note_off_c, 0, 59, 62
1, 413080, Note_on_c, 0, 63, 61
1, 413083, Note_off_c, 0, 39, 53
1, 413092, Control_c, 0, 64, 37
1, 413107, Control_c, 0, 64, 45
1, 413122, Control_c, 0, 64, 53
1, 413122, Control_c, 0, 67, 118
1, 413127, Note_on_c, 0, 67, 62
1, 413134, Note_off_c, 0, 63, 63
1, 413136, Control_c, 0, 64, 58
1, 413151, Control_c, 0, 64, 63
1, 413159, Note_off_c, 0, 67, 64
1, 413166, Control_c, 0, 64, 67
1, 413166, Control_c, 0, 67, 116
1, 413181, Note_on_c, 0, 37, 58
1, 413181, Control_c, 0, 64, 69
1, 413182, Note_on_c, 0, 49, 60
1, 413200, Note_on_c, 0, 58, 65
1, 413210, Control_c, 0, 67, 113
1, 413217, Note_off_c, 0, 49, 65
1, 413218, Note_off_c, 0, 37, 64
1, 413225, Control_c, 0, 67, 111
1, 413234, Note_off_c, 0, 58, 63
1, 413254, Control_c, 0, 64, 68
1, 413259, Note_on_c, 0, 63, 59
1, 413300, Control_c, 0, 64, 67
1, 413313, Note_off_c, 0, 63, 60
1, 413315, Control_c, 0, 64, 64
1, 413319, Note_on_c, 0, 70, 66
1, 413329, Control_c, 0, 64, 58
1, 413344, Control_c, 0, 64, 47
1, 413347, Note_off_c, 0, 70, 66
1, 413359, Control_c, 0, 64, 32
1, 413374, Note_on_c, 0, 52, 77
1, 413374, Control_c, 0, 64, 0
1, 413375, Note_on_c, 0, 40, 71
1, 413384, Note_on_c, 0, 56, 75
1, 413403, Control_c, 0, 64, 36
1, 413408, Note_off_c, 0, 52, 65
1, 413416, Note_off_c, 0, 40, 63
1, 413418, Control_c, 0, 64, 49
1, 413433, Control_c, 0, 64, 58
1, 413443, Note_off_c, 0, 56, 60
1, 413447, Note_on_c, 0, 64, 53
1, 413448, Control_c, 0, 64, 64
1, 413450, Note_on_c, 0, 68, 69
1, 413462, Control_c, 0, 64, 67
1, 413477, Control_c, 0, 64, 68
1, 413510, Note_on_c, 0, 56, 61
1, 413523, Note_off_c, 0, 68, 55
1, 413551, Control_c, 0, 64, 67
1, 413560, Note_off_c, 0, 56, 59
1, 413566, Note_off_c, 0, 64, 0
1, 413566, Note_on_c, 0, 64, 23
1, 413566, Control_c, 0, 64, 66
1, 413581, Control_c, 0, 64, 63
1, 413581, Control_c, 0, 67, 109
1, 413584, Note_on_c, 0, 47, 74
1, 413590, Note_on_c, 0, 67, 58
1, 413591, Note_on_c, 0, 35, 62
1, 413596, Control_c, 0, 64, 61
1, 413611, Control_c, 0, 64, 59
1, 413611, Note_off_c, 0, 47, 68
1, 413631, Note_off_c, 0, 35, 63
1, 413633, Control_c, 0, 64, 58
1, 413648, Control_c, 0, 64, 58
1, 413651, Note_off_c, 0, 64, 60
1, 413654, Note_on_c, 0, 68, 69
1, 413662, Control_c, 0, 64, 57
1, 413677, Control_c, 0, 64, 55
1, 413692, Control_c, 0, 64, 52
1, 413700, Note_off_c, 0, 67, 63
1, 413707, Control_c, 0, 64, 45
1, 413722, Control_c, 0, 64, 33
1, 413723, Note_on_c, 0, 71, 68
1, 413727, Note_off_c, 0, 68, 64
1, 413736, Control_c, 0, 64, 0
1, 413783, Note_off_c, 0, 71, 62
1, 413792, Note_on_c, 0, 52, 65
1, 413793, Note_on_c, 0, 70, 69
1, 413796, Control_c, 0, 64, 29
1, 413797, Note_on_c, 0, 40, 59
1, 413812, Control_c, 0, 64, 46
1, 413823, Note_off_c, 0, 70, 64
1, 413823, Note_off_c, 0, 52, 65
1, 413827, Control_c, 0, 64, 58
1, 413828, Note_off_c, 0, 40, 65
1, 413841, Control_c, 0, 64, 61
1, 413865, Note_on_c, 0, 56, 61
1, 413871, Control_c, 0, 64, 62
1, 413900, Control_c, 0, 64, 61
1, 413903, Note_off_c, 0, 56, 59
1, 413930, Control_c, 0, 64, 61
1, 413955, Note_on_c, 0, 68, 65
1, 413960, Control_c, 0, 64, 60
1, 413975, Control_c, 0, 64, 60
1, 413989, Control_c, 0, 64, 59
1, 414001, Note_on_c, 0, 35, 56
1, 414002, Note_on_c, 0, 47, 57
1, 414004, Control_c, 0, 64, 58
1, 414016, Note_on_c, 0, 66, 60
1, 414019, Control_c, 0, 64, 58
1, 414028, Note_off_c, 0, 68, 64
1, 414029, Note_off_c, 0, 35, 60
1, 414034, Control_c, 0, 64, 57
1, 414034, Control_c, 0, 67, 107
1, 414043, Note_off_c, 0, 47, 64
1, 414049, Control_c, 0, 64, 56
1, 414064, Control_c, 0, 64, 55
1, 414076, Note_on_c, 0, 56, 42
1, 414078, Control_c, 0, 64, 54
1, 414093, Control_c, 0, 64, 52
1, 414108, Control_c, 0, 64, 49
1, 414123, Control_c, 0, 64, 45
1, 414138, Control_c, 0, 64, 41
1, 414141, Note_on_c, 0, 64, 55
1, 414142, Note_off_c, 0, 56, 52
1, 414152, Control_c, 0, 64, 37
1, 414159, Note_off_c, 0, 66, 53
1, 414167, Control_c, 0, 64, 36
1, 414182, Control_c, 0, 64, 39
1, 414197, Control_c, 0, 64, 46
1, 414204, Note_on_c, 0, 52, 57
1, 414205, Note_on_c, 0, 40, 56
1, 414212, Note_on_c, 0, 63, 65
1, 414212, Control_c, 0, 64, 52
1, 414219, Note_off_c, 0, 64, 59
1, 414226, Control_c, 0, 64, 58
1, 414232, Note_off_c, 0, 52, 62
1, 414241, Control_c, 0, 64, 62
1, 414242, Note_off_c, 0, 40, 62
1, 414256, Note_off_c, 0, 63, 60
1, 414256, Control_c, 0, 64, 63
1, 414282, Note_on_c, 0, 56, 57
1, 414332, Note_off_c, 0, 56, 54
1, 414369, Note_on_c, 0, 63, 60
1, 414397, Control_c, 0, 64, 63
1, 414434, Note_on_c, 0, 35, 53
1, 414437, Note_on_c, 0, 47, 49
1, 414438, Note_off_c, 0, 63, 60
1, 414439, Note_on_c, 0, 61, 54
1, 414478, Note_off_c, 0, 35, 56
1, 414486, Note_off_c, 0, 47, 52
1, 414487, Note_on_c, 0, 56, 51
1, 414489, Note_off_c, 0, 61, 55
1, 414559, Control_c, 0, 64, 62
1, 414562, Note_on_c, 0, 61, 51
1, 414565, Note_off_c, 0, 56, 57
1, 414574, Control_c, 0, 64, 58
1, 414589, Control_c, 0, 64, 53
1, 414605, Note_off_c, 0, 61, 59
1, 414605, Control_c, 0, 64, 48
1, 414635, Control_c, 0, 64, 51
1, 414649, Control_c, 0, 64, 55
1, 414651, Note_on_c, 0, 47, 59
1, 414660, Note_on_c, 0, 35, 55
1, 414664, Control_c, 0, 64, 59
1, 414679, Control_c, 0, 64, 62
1, 414688, Note_off_c, 0, 47, 63
1, 414693, Note_off_c, 0, 35, 62
1, 414694, Control_c, 0, 64, 64
1, 414708, Control_c, 0, 64, 65
1, 414723, Note_on_c, 0, 61, 56
1, 414734, Note_on_c, 0, 56, 38
1, 414738, Control_c, 0, 64, 64
1, 414769, Note_off_c, 0, 61, 58
1, 414780, Note_on_c, 0, 52, 56
1, 414782, Control_c, 0, 64, 64
1, 414825, Note_off_c, 0, 52, 56
1, 414843, Note_on_c, 0, 60, 51
1, 414861, Note_on_c, 0, 34, 50
1, 414871, Control_c, 0, 64, 63
1, 414872, Note_on_c, 0, 46, 38
1, 414896, Note_off_c, 0, 56, 48
1, 414914, Note_off_c, 0, 46, 51
1, 414915, Control_c, 0, 64, 63
1, 414920, Note_on_c, 0, 61, 62
1, 414930, Control_c, 0, 64, 62
1, 414930, Control_c, 0, 67, 105
1, 414934, Note_off_c, 0, 60, 60
1, 414945, Control_c, 0, 64, 60
1, 414952, Note_off_c, 0, 34, 62
1, 414960, Control_c, 0, 64, 57
1, 414974, Control_c, 0, 64, 54
1, 414974, Control_c, 0, 67, 98
1, 414979, Note_off_c, 0, 61, 62
1, 414985, Note_on_c, 0, 64, 58
1, 414989, Control_c, 0, 64, 50
1, 414989, Control_c, 0, 67, 92
1, 415004, Control_c, 0, 64, 46
1, 415004, Control_c, 0, 67, 87
1, 415019, Control_c, 0, 64, 45
1, 415019, Control_c, 0, 67, 82
1, 415034, Control_c, 0, 64, 46
1, 415034, Control_c, 0, 67, 77
1, 415048, Control_c, 0, 64, 49
1, 415048, Control_c, 0, 67, 73
1, 415056, Note_off_c, 0, 64, 65
1, 415057, Note_on_c, 0, 47, 55
1, 415059, Note_on_c, 0, 35, 59
1, 415063, Control_c, 0, 64, 53
1, 415063, Control_c, 0, 67, 69
1, 415064, Note_on_c, 0, 63, 69
1, 415078, Control_c, 0, 64, 57
1, 415078, Control_c, 0, 67, 66
1, 415093, Control_c, 0, 64, 62
1, 415093, Control_c, 0, 67, 64
1, 415104, Note_off_c, 0, 47, 63
1, 415107, Control_c, 0, 64, 63
1, 415107, Control_c, 0, 67, 63
1, 415125, Note_off_c, 0, 35, 59
1, 415130, Control_c, 0, 64, 64
1, 415130, Control_c, 0, 67, 61
1, 415133, Note_off_c, 0, 63, 53
1, 415143, Note_on_c, 0, 52, 57
1, 415145, Control_c, 0, 67, 61
1, 415160, Control_c, 0, 67, 59
1, 415173, Note_off_c, 0, 52, 55
1, 415175, Control_c, 0, 67, 58
1, 415189, Control_c, 0, 67, 56
1, 415204, Control_c, 0, 67, 55
1, 415212, Note_on_c, 0, 56, 62
1, 415219, Control_c, 0, 64, 63
1, 415219, Control_c, 0, 67, 53
1, 415233, Control_c, 0, 67, 52
1, 415248, Control_c, 0, 67, 50
1, 415259, Note_on_c, 0, 46, 59
1, 415263, Note_on_c, 0, 34, 56
1, 415263, Control_c, 0, 67, 48
1, 415274, Note_off_c, 0, 56, 62
1, 415277, Note_on_c, 0, 61, 55
1, 415278, Control_c, 0, 64, 63
1, 415278, Control_c, 0, 67, 45
1, 415293, Control_c, 0, 67, 40
1, 415307, Control_c, 0, 67, 32
1, 415322, Control_c, 0, 67, 23
1, 415337, Note_off_c, 0, 46, 58
1, 415337, Note_on_c, 0, 68, 71
1, 415337, Control_c, 0, 64, 63
1, 415337, Control_c, 0, 67, 0
1, 415343, Note_off_c, 0, 34, 62
1, 415346, Note_off_c, 0, 61, 62
1, 415366, Note_off_c, 0, 68, 65
1, 415367, Control_c, 0, 64, 64
1, 415382, Control_c, 0, 64, 64
1, 415404, Note_on_c, 0, 56, 64
1, 415412, Control_c, 0, 64, 63
1, 415427, Control_c, 0, 64, 61
1, 415442, Control_c, 0, 64, 58
1, 415457, Control_c, 0, 64, 55
1, 415464, Note_on_c, 0, 47, 60
1, 415465, Note_on_c, 0, 63, 69
1, 415467, Note_on_c, 0, 35, 63
1, 415471, Control_c, 0, 64, 54
1, 415474, Note_off_c, 0, 56, 61
1, 415486, Control_c, 0, 64, 56
1, 415501, Control_c, 0, 64, 58
1, 415517, Control_c, 0, 64, 61
1, 415526, Note_off_c, 0, 47, 63
1, 415531, Note_off_c, 0, 35, 60
1, 415531, Control_c, 0, 64, 63
1, 415546, Control_c, 0, 64, 65
1, 415547, Note_on_c, 0, 64, 55
1, 415561, Control_c, 0, 64, 65
1, 415584, Note_off_c, 0, 63, 63
1, 415588, Note_on_c, 0, 68, 72
1, 415599, Note_off_c, 0, 64, 62
1, 415605, Control_c, 0, 64, 65
1, 415631, Note_off_c, 0, 68, 64
1, 415635, Control_c, 0, 64, 64
1, 415659, Note_on_c, 0, 34, 61
1, 415659, Note_on_c, 0, 46, 65
1, 415669, Note_on_c, 0, 61, 65
1, 415693, Note_off_c, 0, 34, 63
1, 415700, Note_off_c, 0, 61, 63
1, 415702, Note_off_c, 0, 46, 58
1, 415736, Note_on_c, 0, 68, 69
1, 415754, Control_c, 0, 64, 63
1, 415769, Control_c, 0, 64, 61
1, 415784, Control_c, 0, 64, 57
1, 415784, Note_on_c, 0, 73, 69
1, 415798, Control_c, 0, 64, 52
1, 415813, Control_c, 0, 64, 46
1, 415828, Control_c, 0, 64, 42
1, 415830, Note_off_c, 0, 68, 52
1, 415847, Note_off_c, 0, 73, 63
1, 415857, Control_c, 0, 64, 45
1, 415876, Note_on_c, 0, 49, 66
1, 415879, Note_on_c, 0, 37, 64
1, 415879, Control_c, 0, 64, 51
1, 415881, Note_on_c, 0, 59, 70
1, 415894, Control_c, 0, 64, 57
1, 415909, Note_off_c, 0, 49, 66
1, 415909, Control_c, 0, 64, 62
1, 415915, Note_off_c, 0, 59, 62
1, 415924, Control_c, 0, 64, 65
1, 415927, Note_off_c, 0, 37, 57
1, 415939, Control_c, 0, 64, 67
1, 415945, Note_on_c, 0, 73, 73
1, 415954, Control_c, 0, 64, 68
1, 415966, Poly_aftertouch_c, 0, 68, 0
1, 415975, Note_off_c, 0, 73, 64
1, 415984, Control_c, 0, 64, 67
1, 416013, Control_c, 0, 64, 67
1, 416028, Control_c, 0, 64, 66
1, 416029, Note_on_c, 0, 64, 53
1, 416043, Control_c, 0, 64, 66
1, 416057, Control_c, 0, 64, 65
1, 416064, Note_on_c, 0, 65, 33
1, 416073, Note_on_c, 0, 44, 69
1, 416073, Note_on_c, 0, 32, 62
1, 416087, Control_c, 0, 64, 64
1, 416090, Note_off_c, 0, 64, 47
1, 416091, Note_on_c, 0, 71, 55
1, 416097, Note_on_c, 0, 72, 65
1, 416100, Note_off_c, 0, 65, 31
1, 416109, Note_off_c, 0, 32, 62
1, 416115, Note_off_c, 0, 44, 60
1, 416156, Note_on_c, 0, 73, 75
1, 416161, Control_c, 0, 64, 64
1, 416175, Control_c, 0, 64, 60
1, 416176, Note_off_c, 0, 71, 50
1, 416186, Note_off_c, 0, 72, 62
1, 416190, Control_c, 0, 64, 52
1, 416207, Control_c, 0, 64, 43
1, 416222, Control_c, 0, 64, 32
1, 416224, Note_on_c, 0, 76, 76
1, 416225, Note_off_c, 0, 73, 63
1, 416236, Control_c, 0, 64, 0
1, 416251, Control_c, 0, 64, 30
1, 416266, Control_c, 0, 64, 39
1, 416279, Note_on_c, 0, 49, 66
1, 416280, Control_c, 0, 64, 51
1, 416287, Note_on_c, 0, 37, 56
1, 416289, Note_off_c, 0, 76, 60
1, 416292, Note_on_c, 0, 75, 80
1, 416295, Control_c, 0, 64, 60
1, 416306, Note_off_c, 0, 49, 66
1, 416310, Control_c, 0, 64, 64
1, 416321, Note_off_c, 0, 37, 62
1, 416323, Note_off_c, 0, 75, 65
1, 416325, Control_c, 0, 64, 64
1, 416354, Control_c, 0, 64, 64
1, 416380, Note_on_c, 0, 64, 62
1, 416384, Control_c, 0, 64, 63
1, 416413, Note_off_c, 0, 64, 65
1, 416433, Note_on_c, 0, 73, 79
1, 416443, Control_c, 0, 64, 63
1, 416458, Control_c, 0, 64, 62
1, 416473, Control_c, 0, 64, 62
1, 416487, Note_on_c, 0, 32, 57
1, 416487, Control_c, 0, 64, 61
1, 416502, Note_on_c, 0, 71, 64
1, 416505, Note_on_c, 0, 44, 49
1, 416511, Note_off_c, 0, 73, 60
1, 416529, Note_off_c, 0, 32, 60
1, 416532, Control_c, 0, 64, 61
1, 416542, Note_off_c, 0, 44, 64
1, 416547, Control_c, 0, 64, 60
1, 416562, Control_c, 0, 64, 59
1, 416577, Control_c, 0, 64, 57
1, 416580, Note_off_c, 0, 71, 61
1, 416582, Note_on_c, 0, 64, 56
1, 416592, Control_c, 0, 64, 52
1, 416607, Control_c, 0, 64, 48
1, 416628, Control_c, 0, 64, 45
1, 416629, Note_off_c, 0, 64, 58
1, 416643, Control_c, 0, 64, 43
1, 416651, Note_on_c, 0, 70, 66
1, 416658, Control_c, 0, 64, 45
1, 416673, Control_c, 0, 64, 49
1, 416687, Control_c, 0, 64, 54
1, 416702, Control_c, 0, 64, 60
1, 416713, Note_on_c, 0, 37, 56
1, 416717, Control_c, 0, 64, 64
1, 416721, Note_on_c, 0, 68, 67
1, 416723, Note_on_c, 0, 49, 34
1, 416732, Control_c, 0, 64, 66
1, 416740, Note_off_c, 0, 70, 60
1, 416747, Control_c, 0, 64, 67
1, 416750, Note_off_c, 0, 37, 61
1, 416757, Note_off_c, 0, 49, 48
1, 416760, Note_off_c, 0, 68, 61
1, 416762, Control_c, 0, 64, 68
1, 416788, Note_on_c, 0, 64, 58
1, 416792, Control_c, 0, 64, 67
1, 416826, Note_off_c, 0, 64, 63
1, 416836, Control_c, 0, 64, 67
1, 416851, Control_c, 0, 64, 66
1, 416875, Note_on_c, 0, 68, 59
1, 416880, Control_c, 0, 64, 66
1, 416895, Control_c, 0, 64, 65
1, 416910, Note_on_c, 0, 32, 57
1, 416910, Control_c, 0, 64, 65
1, 416923, Note_on_c, 0, 44, 44
1, 416933, Note_off_c, 0, 68, 59
1, 416938, Note_on_c, 0, 64, 61
1, 416955, Note_off_c, 0, 44, 63
1, 416984, Control_c, 0, 64, 65
1, 416988, Note_off_c, 0, 64, 61
1, 416991, Note_off_c, 0, 32, 55
1, 416998, Note_on_c, 0, 61, 52
1, 417015, Control_c, 0, 64, 66
1, 417045, Control_c, 0, 64, 67
1, 417051, Note_off_c, 0, 61, 53
1, 417059, Control_c, 0, 64, 68
1, 417072, Note_on_c, 0, 64, 31
1, 417074, Control_c, 0, 64, 69
1, 417089, Control_c, 0, 64, 70
1, 417096, Note_off_c, 0, 64, 50
1, 417103, Control_c, 0, 64, 70
1, 417118, Control_c, 0, 64, 67
1, 417133, Control_c, 0, 64, 61
1, 417137, Note_on_c, 0, 47, 61
1, 417148, Control_c, 0, 64, 52
1, 417155, Note_on_c, 0, 35, 58
1, 417163, Control_c, 0, 64, 45
1, 417177, Control_c, 0, 64, 43
1, 417192, Control_c, 0, 64, 46
1, 417203, Note_off_c, 0, 47, 63
1, 417207, Control_c, 0, 64, 52
1, 417218, Note_on_c, 0, 58, 52
1, 417221, Control_c, 0, 64, 57
1, 417224, Note_on_c, 0, 64, 50
1, 417229, Note_off_c, 0, 35, 61
1, 417236, Control_c, 0, 64, 62
1, 417251, Note_off_c, 0, 58, 53
1, 417251, Control_c, 0, 64, 65
1, 417254, Note_on_c, 0, 59, 36
1, 417266, Control_c, 0, 64, 66
1, 417283, Note_off_c, 0, 59, 52
1, 417307, Note_off_c, 0, 64, 61
1, 417308, Note_on_c, 0, 52, 51
1, 417334, Note_off_c, 0, 52, 59
1, 417338, Note_on_c, 0, 32, 51
1, 417347, Note_on_c, 0, 53, 14
1, 417352, Note_on_c, 0, 44, 38
1, 417364, Note_on_c, 0, 59, 50
1, 417377, Control_c, 0, 64, 65
1, 417392, Control_c, 0, 64, 62
1, 417394, Note_off_c, 0, 32, 59
1, 417394, Note_off_c, 0, 44, 49
1, 417397, Note_on_c, 0, 63, 54
1, 417398, Note_off_c, 0, 53, 39
1, 417400, Note_off_c, 0, 59, 64
1, 417407, Control_c, 0, 64, 59
1, 417421, Control_c, 0, 64, 57
1, 417424, Note_on_c, 0, 64, 57
1, 417444, Note_off_c, 0, 64, 60
1, 417450, Note_off_c, 0, 63, 58
1, 417451, Control_c, 0, 64, 58
1, 417466, Control_c, 0, 64, 59
1, 417481, Control_c, 0, 64, 61
1, 417495, Control_c, 0, 64, 63
1, 417503, Note_on_c, 0, 71, 45
1, 417510, Control_c, 0, 64, 65
1, 417525, Control_c, 0, 64, 66
1, 417528, Note_off_c, 0, 71, 58
1, 417540, Control_c, 0, 64, 67
1, 417561, Note_on_c, 0, 47, 56
1, 417576, Note_on_c, 0, 35, 51
1, 417578, Note_on_c, 0, 66, 62
1, 417599, Control_c, 0, 64, 67
1, 417605, Note_off_c, 0, 66, 65
1, 417614, Control_c, 0, 64, 68
1, 417620, Note_off_c, 0, 47, 63
1, 417629, Control_c, 0, 64, 69
1, 417659, Control_c, 0, 64, 68
1, 417665, Note_on_c, 0, 52, 52
1, 417669, Poly_aftertouch_c, 0, 38, 127
1, 417674, Control_c, 0, 64, 66
1, 417677, Note_off_c, 0, 35, 56
1, 417689, Control_c, 0, 64, 65
1, 417689, Note_off_c, 0, 52, 59
1, 417701, Poly_aftertouch_c, 0, 38, 0
1, 417702, Note_on_c, 0, 59, 57
1, 417703, Control_c, 0, 64, 64
1, 417748, Control_c, 0, 64, 65
1, 417766, Note_on_c, 0, 32, 59
1, 417766, Note_off_c, 0, 59, 63
1, 417769, Note_on_c, 0, 44, 56
1, 417777, Note_on_c, 0, 64, 54
1, 417777, Control_c, 0, 64, 65
1, 417801, Note_off_c, 0, 64, 64
1, 417812, Note_off_c, 0, 32, 56
1, 417819, Note_off_c, 0, 44, 63
1, 417838, Note_on_c, 0, 71, 60
1, 417911, Note_on_c, 0, 59, 49
1, 417912, Control_c, 0, 64, 66
1, 417919, Note_off_c, 0, 71, 57
1, 417926, Control_c, 0, 64, 67
1, 417941, Control_c, 0, 64, 68
1, 417942, Note_on_c, 0, 60, 31
1, 417956, Control_c, 0, 64, 69
1, 417958, Note_off_c, 0, 59, 58
1, 417966, Note_on_c, 0, 66, 58
1, 417971, Note_on_c, 0, 47, 58
1, 417971, Control_c, 0, 64, 69
1, 417978, Note_off_c, 0, 60, 54
1, 417986, Control_c, 0, 64, 65
1, 417988, Note_on_c, 0, 35, 46
1, 418000, Control_c, 0, 64, 59
1, 418015, Control_c, 0, 64, 53
1, 418017, Note_off_c, 0, 47, 63
1, 418026, Note_on_c, 0, 68, 68
1, 418030, Control_c, 0, 64, 49
1, 418037, Note_off_c, 0, 66, 58
1, 418044, Control_c, 0, 64, 49
1, 418049, Note_off_c, 0, 35, 61
1, 418059, Control_c, 0, 64, 51
1, 418074, Control_c, 0, 64, 54
1, 418088, Note_on_c, 0, 71, 58
1, 418089, Control_c, 0, 64, 58
1, 418104, Control_c, 0, 64, 61
1, 418109, Note_off_c, 0, 68, 62
1, 418126, Control_c, 0, 64, 63
1, 418135, Note_off_c, 0, 71, 64
1, 418141, Control_c, 0, 64, 65
1, 418166, Note_on_c, 0, 32, 60
1, 418181, Note_on_c, 0, 44, 49
1, 418185, Note_on_c, 0, 64, 55
1, 418213, Note_off_c, 0, 32, 57
1, 418214, Note_off_c, 0, 64, 66
1, 418219, Note_off_c, 0, 44, 63
1, 418243, Note_on_c, 0, 71, 60
1, 418289, Control_c, 0, 64, 65
1, 418301, Note_off_c, 0, 71, 63
1, 418304, Control_c, 0, 64, 66
1, 418307, Note_on_c, 0, 76, 72
1, 418319, Control_c, 0, 64, 66
1, 418330, Note_off_c, 0, 76, 69
1, 418333, Control_c, 0, 64, 67
1, 418348, Control_c, 0, 64, 68
1, 418363, Control_c, 0, 64, 70
1, 418392, Control_c, 0, 64, 68
1, 418406, Note_on_c, 0, 47, 60
1, 418407, Note_on_c, 0, 35, 57
1, 418407, Control_c, 0, 64, 63
1, 418422, Control_c, 0, 64, 56
1, 418437, Control_c, 0, 64, 50
1, 418452, Control_c, 0, 64, 47
1, 418467, Control_c, 0, 64, 48
1, 418482, Control_c, 0, 64, 52
1, 418484, Note_off_c, 0, 47, 59
1, 418497, Control_c, 0, 64, 56
1, 418497, Note_on_c, 0, 59, 60
1, 418500, Note_on_c, 0, 63, 59
1, 418509, Note_off_c, 0, 35, 57
1, 418512, Control_c, 0, 64, 61
1, 418526, Control_c, 0, 64, 64
1, 418541, Note_off_c, 0, 59, 62
1, 418541, Control_c, 0, 64, 67
1, 418556, Control_c, 0, 64, 69
1, 418568, Note_on_c, 0, 54, 64
1, 418570, Control_c, 0, 64, 70
1, 418578, Note_off_c, 0, 63, 60
1, 418601, Control_c, 0, 64, 70
1, 418607, Note_off_c, 0, 54, 58
1, 418610, Note_on_c, 0, 59, 57
1, 418631, Note_on_c, 0, 45, 57
1, 418631, Control_c, 0, 64, 71
1, 418631, Note_on_c, 0, 33, 60
1, 418646, Control_c, 0, 64, 71
1, 418675, Control_c, 0, 64, 70
1, 418684, Note_on_c, 0, 61, 36
1, 418686, Note_on_c, 0, 63, 65
1, 418690, Control_c, 0, 64, 68
1, 418705, Control_c, 0, 64, 64
1, 418708, Note_off_c, 0, 59, 64
1, 418710, Note_off_c, 0, 33, 47
1, 418718, Note_off_c, 0, 45, 59
1, 418720, Control_c, 0, 64, 59
1, 418729, Note_off_c, 0, 61, 61
1, 418735, Control_c, 0, 64, 55
1, 418749, Control_c, 0, 64, 52
1, 418754, Note_off_c, 0, 63, 65
1, 418756, Note_on_c, 0, 66, 79
1, 418764, Control_c, 0, 64, 50
1, 418794, Control_c, 0, 64, 52
1, 418809, Control_c, 0, 64, 54
1, 418823, Control_c, 0, 64, 56
1, 418830, Note_on_c, 0, 64, 63
1, 418835, Note_off_c, 0, 66, 63
1, 418836, Note_on_c, 0, 47, 64
1, 418838, Control_c, 0, 64, 60
1, 418843, Note_on_c, 0, 35, 69
1, 418853, Control_c, 0, 64, 63
1, 418875, Control_c, 0, 64, 65
1, 418884, Note_on_c, 0, 54, 69
1, 418890, Control_c, 0, 64, 67
1, 418899, Note_off_c, 0, 47, 57
1, 418905, Control_c, 0, 64, 68
1, 418920, Control_c, 0, 64, 69
1, 418935, Control_c, 0, 64, 71
1, 418941, Note_off_c, 0, 54, 64
1, 418942, Note_off_c, 0, 64, 62
1, 418949, Control_c, 0, 64, 71
1, 418950, Note_on_c, 0, 59, 61
1, 418964, Note_off_c, 0, 35, 55
1, 418964, Control_c, 0, 64, 71
1, 418979, Control_c, 0, 64, 68
1, 418994, Control_c, 0, 64, 63
1, 419008, Control_c, 0, 64, 59
1, 419015, Note_off_c, 0, 59, 53
1, 419023, Control_c, 0, 64, 58
1, 419038, Control_c, 0, 64, 58
1, 419039, Note_on_c, 0, 63, 73
1, 419042, Note_on_c, 0, 33, 63
1, 419048, Note_on_c, 0, 45, 58
1, 419053, Control_c, 0, 64, 59
1, 419068, Control_c, 0, 64, 61
1, 419082, Control_c, 0, 64, 62
1, 419091, Note_off_c, 0, 33, 56
1, 419097, Control_c, 0, 64, 63
1, 419104, Note_on_c, 0, 71, 75
1, 419112, Control_c, 0, 64, 64
1, 419113, Note_off_c, 0, 45, 58
1, 419119, Note_off_c, 0, 63, 63
1, 419127, Control_c, 0, 64, 64
1, 419142, Control_c, 0, 64, 65
1, 419155, Note_off_c, 0, 71, 60
1, 419156, Control_c, 0, 64, 66
1, 419158, Note_on_c, 0, 59, 69
1, 419171, Control_c, 0, 64, 67
1, 419186, Control_c, 0, 64, 65
1, 419200, Control_c, 0, 64, 62
1, 419208, Note_on_c, 0, 47, 63
1, 419210, Note_off_c, 0, 59, 63
1, 419213, Note_on_c, 0, 35, 68
1, 419215, Control_c, 0, 64, 57
1, 419230, Control_c, 0, 64, 55
1, 419243, Note_on_c, 0, 64, 68
1, 419245, Control_c, 0, 64, 55
1, 419257, Note_off_c, 0, 47, 51
1, 419260, Control_c, 0, 64, 56
1, 419274, Control_c, 0, 64, 58
1, 419289, Control_c, 0, 64, 61
1, 419296, Note_on_c, 0, 66, 67
1, 419304, Control_c, 0, 64, 63
1, 419307, Note_off_c, 0, 64, 63
1, 419319, Control_c, 0, 64, 66
1, 419320, Note_off_c, 0, 35, 48
1, 419334, Control_c, 0, 64, 68
1, 419340, Note_on_c, 0, 71, 77
1, 419348, Control_c, 0, 64, 68
1, 419351, Note_off_c, 0, 66, 62
1, 419378, Control_c, 0, 64, 66
1, 419383, Note_off_c, 0, 71, 64
1, 419394, Control_c, 0, 64, 62
1, 419403, Note_on_c, 0, 33, 55
1, 419409, Control_c, 0, 64, 58
1, 419418, Note_on_c, 0, 63, 71
1, 419418, Note_on_c, 0, 45, 50
1, 419423, Control_c, 0, 64, 57
1, 419438, Control_c, 0, 64, 59
1, 419448, Note_off_c, 0, 63, 62
1, 419453, Control_c, 0, 64, 62
1, 419454, Note_off_c, 0, 33, 62
1, 419457, Note_off_c, 0, 45, 64
1, 419468, Control_c, 0, 64, 65
1, 419478, Note_on_c, 0, 66, 68
1, 419483, Control_c, 0, 64, 71
1, 419497, Control_c, 0, 64, 77
1, 419512, Control_c, 0, 64, 79
1, 419527, Control_c, 0, 64, 78
1, 419534, Note_off_c, 0, 66, 63
1, 419542, Control_c, 0, 64, 72
1, 419550, Note_on_c, 0, 75, 63
1, 419557, Control_c, 0, 64, 63
1, 419571, Control_c, 0, 64, 53
1, 419577, Note_on_c, 0, 34, 58
1, 419586, Control_c, 0, 64, 39
1, 419601, Control_c, 0, 64, 0
1, 419620, Note_off_c, 0, 75, 63
1, 419642, Note_on_c, 0, 46, 64
1, 419653, Control_c, 0, 64, 36
1, 419657, Note_on_c, 0, 63, 61
1, 419667, Note_off_c, 0, 34, 62
1, 419668, Control_c, 0, 64, 51
1, 419683, Control_c, 0, 64, 62
1, 419697, Control_c, 0, 64, 68
1, 419712, Control_c, 0, 64, 72
1, 419718, Note_off_c, 0, 46, 62
1, 419727, Control_c, 0, 64, 76
1, 419742, Control_c, 0, 64, 79
1, 419753, Note_off_c, 0, 63, 56
1, 419755, Note_on_c, 0, 75, 59
1, 419757, Control_c, 0, 64, 82
1, 419771, Control_c, 0, 64, 85
1, 419786, Control_c, 0, 64, 88
1, 419790, Note_on_c, 0, 73, 51
1, 419801, Control_c, 0, 64, 93
1, 419816, Control_c, 0, 64, 98
1, 419830, Control_c, 0, 64, 104
1, 419845, Control_c, 0, 64, 108
1, 419874, Note_on_c, 0, 71, 56
1, 419875, Control_c, 0, 64, 99
1, 419883, Note_on_c, 0, 51, 69
1, 419886, Note_on_c, 0, 46, 57
1, 419890, Control_c, 0, 64, 80
1, 419904, Control_c, 0, 64, 67
1, 419912, Note_off_c, 0, 75, 37
1, 419919, Control_c, 0, 64, 60
1, 419930, Note_off_c, 0, 73, 60
1, 419934, Control_c, 0, 64, 59
1, 419936, Note_on_c, 0, 68, 64
1, 419949, Control_c, 0, 64, 62
1, 419951, Note_off_c, 0, 71, 63
1, 419964, Control_c, 0, 64, 65
1, 419978, Control_c, 0, 64, 70
1, 419984, Note_off_c, 0, 68, 60
1, 419993, Control_c, 0, 64, 77
1, 419996, Note_on_c, 0, 66, 63
1, 420008, Control_c, 0, 64, 86
1, 420023, Control_c, 0, 64, 91
1, 420035, Note_off_c, 0, 66, 60
1, 420053, Control_c, 0, 64, 87
1, 420068, Control_c, 0, 64, 77
1, 420072, Note_on_c, 0, 70, 73
1, 420077, Note_on_c, 0, 53, 73
1, 420082, Control_c, 0, 64, 65
1, 420093, Note_off_c, 0, 51, 60
1, 420097, Control_c, 0, 64, 57
1, 420112, Control_c, 0, 64, 55
1, 420124, Note_on_c, 0, 65, 57
1, 420127, Control_c, 0, 64, 56
1, 420141, Control_c, 0, 64, 59
1, 420156, Control_c, 0, 64, 63
1, 420161, Note_off_c, 0, 70, 63
1, 420171, Control_c, 0, 64, 67
1, 420181, Note_off_c, 0, 65, 65
1, 420187, Control_c, 0, 64, 73
1, 420202, Control_c, 0, 64, 79
1, 420204, Note_on_c, 0, 63, 63
1, 420217, Control_c, 0, 64, 83
1, 420234, Note_off_c, 0, 63, 66
1, 420246, Control_c, 0, 64, 79
1, 420252, Note_on_c, 0, 54, 85
1, 420256, Note_off_c, 0, 53, 61
1, 420261, Control_c, 0, 64, 71
1, 420276, Control_c, 0, 64, 62
1, 420285, Note_on_c, 0, 66, 68
1, 420291, Control_c, 0, 64, 56
1, 420320, Control_c, 0, 64, 59
1, 420335, Control_c, 0, 64, 62
1, 420342, Note_on_c, 0, 59, 49
1, 420350, Control_c, 0, 64, 66
1, 420372, Control_c, 0, 64, 71
1, 420381, Note_off_c, 0, 46, 61
1, 420387, Control_c, 0, 64, 75
1, 420390, Note_off_c, 0, 66, 63
1, 420401, Control_c, 0, 64, 75
1, 420416, Control_c, 0, 64, 76
1, 420429, Note_off_c, 0, 59, 63
1, 420461, Control_c, 0, 64, 76
1, 420506, Control_c, 0, 64, 72
1, 420511, Note_off_c, 0, 54, 61
1, 420520, Control_c, 0, 64, 66
1, 420529, Note_on_c, 0, 58, 58
1, 420530, Note_on_c, 0, 66, 64
1, 420535, Control_c, 0, 64, 59
1, 420536, Note_on_c, 0, 46, 69
1, 420550, Control_c, 0, 64, 50
1, 420565, Control_c, 0, 64, 40
1, 420580, Control_c, 0, 64, 31
1, 420586, Note_off_c, 0, 58, 62
1, 420605, Note_on_c, 0, 62, 50
1, 420609, Control_c, 0, 64, 36
1, 420624, Control_c, 0, 64, 46
1, 420639, Control_c, 0, 64, 58
1, 420653, Control_c, 0, 64, 66
1, 420668, Control_c, 0, 64, 74
1, 420679, Note_on_c, 0, 56, 52
1, 420683, Control_c, 0, 64, 83
1, 420691, Note_off_c, 0, 62, 59
1, 420698, Control_c, 0, 64, 90
1, 420713, Control_c, 0, 64, 97
1, 420720, Note_off_c, 0, 56, 58
1, 420727, Control_c, 0, 64, 104
1, 420742, Control_c, 0, 64, 107
1, 420745, Note_on_c, 0, 64, 55
1, 420757, Control_c, 0, 64, 110
1, 420771, Control_c, 0, 64, 112
1, 420801, Note_on_c, 0, 62, 63
1, 420801, Control_c, 0, 64, 115
1, 420816, Control_c, 0, 64, 120
1, 420816, Control_c, 0, 67, 19
1, 420831, Control_c, 0, 64, 127
1, 420834, Note_off_c, 0, 64, 62
1, 420845, Note_off_c, 0, 66, 37
1, 420860, Control_c, 0, 67, 23
1, 420875, Control_c, 0, 67, 25
1, 420890, Note_off_c, 0, 62, 56
1, 420890, Control_c, 0, 67, 28
1, 420893, Note_on_c, 0, 56, 45
1, 420905, Control_c, 0, 67, 30
1, 420920, Control_c, 0, 67, 33
1, 420927, Note_off_c, 0, 56, 60
1, 420935, Control_c, 0, 67, 37
1, 420950, Control_c, 0, 67, 41
1, 420964, Control_c, 0, 67, 46
1, 420979, Control_c, 0, 64, 109
1, 420979, Control_c, 0, 67, 50
1, 420992, Note_on_c, 0, 63, 56
1, 420994, Note_off_c, 0, 46, 59
1, 420995, Control_c, 0, 64, 78
1, 420995, Control_c, 0, 67, 54
1, 421001, Note_on_c, 0, 39, 58
1, 421007, Note_on_c, 0, 51, 51
1, 421010, Control_c, 0, 64, 61
1, 421010, Control_c, 0, 67, 58
1, 421024, Control_c, 0, 64, 39
1, 421024, Control_c, 0, 67, 61
1, 421039, Control_c, 0, 64, 0
1, 421039, Control_c, 0, 67, 64
1, 421054, Control_c, 0, 67, 66
1, 421069, Control_c, 0, 67, 70
1, 421084, Control_c, 0, 67, 73
1, 421096, Note_on_c, 0, 55, 47
1, 421099, Control_c, 0, 67, 76
1, 421121, Control_c, 0, 64, 37
1, 421121, Control_c, 0, 67, 78
1, 421136, Control_c, 0, 64, 58
1, 421136, Control_c, 0, 67, 79
1, 421150, Control_c, 0, 64, 70
1, 421150, Control_c, 0, 67, 80
1, 421158, Note_off_c, 0, 55, 54
1, 421165, Control_c, 0, 64, 87
1, 421165, Control_c, 0, 67, 80
1, 421167, Note_off_c, 0, 39, 62
1, 421180, Control_c, 0, 64, 127
1, 421180, Control_c, 0, 67, 81
1, 421188, Note_on_c, 0, 58, 59
1, 421212, Note_off_c, 0, 51, 61
1, 421218, Note_off_c, 0, 58, 65
1, 421221, Note_off_c, 0, 63, 61
1, 421373, Note_on_c, 0, 59, 62
1, 421374, Note_on_c, 0, 75, 62
1, 421402, Control_c, 0, 64, 84
1, 421402, Control_c, 0, 67, 80
1, 421417, Control_c, 0, 64, 69
1, 421432, Control_c, 0, 64, 62
1, 421447, Control_c, 0, 64, 64
1, 421447, Control_c, 0, 67, 80
1, 421462, Control_c, 0, 64, 69
1, 421471, Note_on_c, 0, 73, 56
1, 421476, Control_c, 0, 64, 80
1, 421491, Control_c, 0, 64, 97
1, 421501, Note_off_c, 0, 75, 55
1, 421506, Control_c, 0, 64, 127
1, 421540, Note_on_c, 0, 68, 50
1, 421564, Note_off_c, 0, 73, 61
1, 421565, Control_c, 0, 64, 116
1, 421565, Control_c, 0, 67, 79
1, 421567, Note_off_c, 0, 68, 62
1, 421580, Control_c, 0, 64, 81
1, 421580, Control_c, 0, 67, 79
1, 421594, Control_c, 0, 64, 69
1, 421608, Note_on_c, 0, 75, 69
1, 421609, Note_on_c, 0, 58, 62
1, 421609, Control_c, 0, 64, 65
1, 421624, Control_c, 0, 64, 67
1, 421639, Control_c, 0, 64, 72
1, 421641, Note_off_c, 0, 59, 53
1, 421654, Control_c, 0, 64, 81
1, 421668, Control_c, 0, 64, 97
1, 421671, Note_on_c, 0, 73, 52
1, 421678, Note_off_c, 0, 75, 60
1, 421683, Control_c, 0, 64, 127
1, 421707, Note_off_c, 0, 73, 62
1, 421716, Note_on_c, 0, 67, 52
1, 421739, Note_off_c, 0, 67, 62
1, 421743, Control_c, 0, 64, 122
1, 421758, Control_c, 0, 64, 87
1, 421773, Control_c, 0, 64, 68
1, 421783, Note_on_c, 0, 73, 72
1, 421788, Control_c, 0, 64, 60
1, 421795, Note_on_c, 0, 56, 65
1, 421803, Control_c, 0, 64, 56
1, 421817, Control_c, 0, 64, 58
1, 421828, Note_off_c, 0, 58, 60
1, 421832, Control_c, 0, 64, 61
1, 421847, Control_c, 0, 64, 65
1, 421870, Control_c, 0, 64, 70
1, 421873, Note_off_c, 0, 73, 61
1, 421885, Control_c, 0, 64, 80
1, 421899, Control_c, 0, 64, 93
1, 421914, Control_c, 0, 64, 107
1, 421925, Note_on_c, 0, 64, 45
1, 421929, Control_c, 0, 64, 118
1, 421944, Control_c, 0, 64, 116
1, 421959, Control_c, 0, 64, 99
1, 421970, Note_off_c, 0, 64, 62
1, 421973, Control_c, 0, 64, 77
1, 421983, Poly_aftertouch_c, 0, 70, 0
1, 421988, Control_c, 0, 64, 64
1, 421988, Control_c, 0, 67, 78
1, 421997, Note_on_c, 0, 70, 40
1, 422003, Control_c, 0, 64, 52
1, 422003, Control_c, 0, 67, 78
1, 422017, Control_c, 0, 64, 47
1, 422026, Note_on_c, 0, 55, 53
1, 422032, Note_off_c, 0, 56, 56
1, 422032, Control_c, 0, 64, 50
1, 422047, Control_c, 0, 64, 56
1, 422062, Control_c, 0, 64, 63
1, 422077, Control_c, 0, 64, 72
1, 422092, Control_c, 0, 64, 87
1, 422092, Control_c, 0, 67, 78
1, 422096, Note_on_c, 0, 64, 49
1, 422106, Control_c, 0, 64, 122
1, 422112, Note_off_c, 0, 70, 63
1, 422121, Control_c, 0, 64, 127
1, 422151, Control_c, 0, 67, 78
1, 422155, Note_off_c, 0, 64, 56
1, 422164, Note_on_c, 0, 61, 45
1, 422166, Control_c, 0, 64, 88
1, 422166, Control_c, 0, 67, 77
1, 422181, Control_c, 0, 64, 67
1, 422181, Control_c, 0, 67, 77
1, 422196, Control_c, 0, 64, 56
1, 422205, Note_off_c, 0, 61, 49
1, 422210, Control_c, 0, 64, 53
1, 422210, Control_c, 0, 67, 76
1, 422223, Note_on_c, 0, 70, 55
1, 422225, Control_c, 0, 64, 57
1, 422240, Control_c, 0, 64, 62
1, 422255, Control_c, 0, 64, 67
1, 422259, Note_off_c, 0, 55, 64
1, 422270, Control_c, 0, 64, 74
1, 422284, Note_on_c, 0, 63, 48
1, 422285, Control_c, 0, 64, 81
1, 422285, Control_c, 0, 67, 77
1, 422299, Control_c, 0, 64, 86
1, 422314, Control_c, 0, 64, 90
1, 422325, Note_off_c, 0, 70, 55
1, 422329, Control_c, 0, 64, 94
1, 422341, Note_off_c, 0, 63, 59
1, 422343, Control_c, 0, 64, 98
1, 422358, Control_c, 0, 64, 101
1, 422363, Note_on_c, 0, 61, 39
1, 422373, Control_c, 0, 64, 107
1, 422388, Control_c, 0, 64, 112
1, 422396, Note_off_c, 0, 61, 47
1, 422403, Control_c, 0, 64, 117
1, 422432, Control_c, 0, 64, 114
1, 422447, Control_c, 0, 64, 97
1, 422462, Control_c, 0, 64, 80
1, 422472, Note_on_c, 0, 56, 59
1, 422477, Control_c, 0, 64, 64
1, 422482, Note_on_c, 0, 44, 53
1, 422491, Control_c, 0, 64, 53
1, 422506, Control_c, 0, 64, 46
1, 422506, Control_c, 0, 67, 76
1, 422508, Note_off_c, 0, 56, 61
1, 422521, Control_c, 0, 64, 42
1, 422536, Control_c, 0, 64, 40
1, 422537, Note_off_c, 0, 44, 58
1, 422540, Note_on_c, 0, 61, 50
1, 422551, Control_c, 0, 64, 36
1, 422566, Control_c, 0, 64, 30
1, 422580, Control_c, 0, 64, 0
1, 422596, Control_c, 0, 67, 76
1, 422619, Control_c, 0, 67, 75
1, 422621, Note_on_c, 0, 56, 46
1, 422636, Note_off_c, 0, 61, 58
1, 422648, Note_off_c, 0, 56, 57
1, 422677, Note_on_c, 0, 42, 54
1, 422680, Note_on_c, 0, 60, 53
1, 422684, Note_on_c, 0, 54, 48
1, 422710, Note_off_c, 0, 42, 65
1, 422713, Note_off_c, 0, 54, 57
1, 422722, Control_c, 0, 64, 31
1, 422737, Control_c, 0, 64, 42
1, 422737, Control_c, 0, 67, 75
1, 422741, Note_off_c, 0, 60, 57
1, 422744, Note_on_c, 0, 61, 52
1, 422752, Control_c, 0, 64, 48
1, 422766, Control_c, 0, 64, 51
1, 422781, Control_c, 0, 64, 52
1, 422790, Note_off_c, 0, 61, 58
1, 422796, Control_c, 0, 64, 51
1, 422802, Note_on_c, 0, 64, 50
1, 422811, Control_c, 0, 64, 51
1, 422826, Control_c, 0, 64, 50
1, 422840, Control_c, 0, 64, 48
1, 422840, Control_c, 0, 67, 74
1, 422846, Note_off_c, 0, 64, 62
1, 422854, Note_on_c, 0, 63, 62
1, 422855, Control_c, 0, 64, 47
1, 422855, Control_c, 0, 67, 74
1, 422861, Note_on_c, 0, 44, 55
1, 422870, Note_on_c, 0, 56, 30
1, 422870, Control_c, 0, 64, 46
1, 422870, Control_c, 0, 67, 73
1, 422885, Control_c, 0, 64, 47
1, 422885, Control_c, 0, 67, 73
1, 422887, Note_off_c, 0, 63, 64
1, 422890, Note_off_c, 0, 44, 64
1, 422900, Control_c, 0, 64, 50
1, 422914, Control_c, 0, 64, 53
1, 422914, Control_c, 0, 67, 72
1, 422924, Note_off_c, 0, 56, 0
1, 422924, Note_on_c, 0, 56, 39
1, 422929, Control_c, 0, 64, 56
1, 422929, Control_c, 0, 67, 72
1, 422944, Control_c, 0, 64, 56
1, 422944, Control_c, 0, 67, 71
1, 422962, Note_off_c, 0, 56, 61
1, 422974, Control_c, 0, 64, 55
1, 422989, Control_c, 0, 64, 52
1, 422989, Control_c, 0, 67, 70
1, 422995, Note_on_c, 0, 61, 62
1, 423004, Control_c, 0, 64, 48
1, 423019, Control_c, 0, 64, 47
1, 423019, Control_c, 0, 67, 70
1, 423033, Control_c, 0, 64, 48
1, 423048, Control_c, 0, 64, 49
1, 423060, Note_on_c, 0, 54, 61
1, 423060, Note_on_c, 0, 63, 62
1, 423061, Note_on_c, 0, 42, 58
1, 423063, Control_c, 0, 64, 52
1, 423067, Note_off_c, 0, 61, 58
1, 423078, Control_c, 0, 64, 54
1, 423093, Control_c, 0, 64, 57
1, 423099, Note_off_c, 0, 42, 60
1, 423100, Note_off_c, 0, 54, 59
1, 423107, Control_c, 0, 64, 58
1, 423122, Control_c, 0, 64, 59
1, 423124, Note_on_c, 0, 68, 57
1, 423133, Note_off_c, 0, 63, 60
1, 423159, Note_off_c, 0, 68, 65
1, 423166, Control_c, 0, 64, 59
1, 423181, Control_c, 0, 64, 58
1, 423188, Note_on_c, 0, 60, 65
1, 423196, Control_c, 0, 64, 56
1, 423211, Control_c, 0, 64, 54
1, 423226, Note_off_c, 0, 60, 66
1, 423226, Control_c, 0, 64, 52
1, 423226, Control_c, 0, 67, 69
1, 423244, Note_on_c, 0, 56, 66
1, 423248, Note_on_c, 0, 44, 66
1, 423255, Control_c, 0, 64, 54
1, 423266, Note_on_c, 0, 64, 53
1, 423270, Control_c, 0, 64, 56
1, 423285, Control_c, 0, 64, 58
1, 423290, Note_off_c, 0, 56, 54
1, 423300, Control_c, 0, 64, 61
1, 423314, Control_c, 0, 64, 63
1, 423323, Note_on_c, 0, 68, 60
1, 423328, Note_off_c, 0, 64, 61
1, 423329, Control_c, 0, 64, 66
1, 423335, Note_off_c, 0, 44, 58
1, 423344, Control_c, 0, 64, 66
1, 423366, Control_c, 0, 64, 67
1, 423373, Note_on_c, 0, 72, 63
1, 423375, Note_off_c, 0, 68, 64
1, 423381, Control_c, 0, 64, 66
1, 423381, Control_c, 0, 67, 69
1, 423397, Control_c, 0, 64, 65
1, 423397, Control_c, 0, 67, 68
1, 423412, Control_c, 0, 64, 64
1, 423412, Control_c, 0, 67, 67
1, 423416, Note_off_c, 0, 72, 64
1, 423427, Control_c, 0, 67, 67
1, 423442, Control_c, 0, 67, 65
1, 423451, Note_on_c, 0, 63, 72
1, 423457, Control_c, 0, 67, 60
1, 423457, Note_on_c, 0, 42, 63
1, 423460, Note_on_c, 0, 54, 61
1, 423471, Control_c, 0, 67, 53
1, 423486, Control_c, 0, 64, 65
1, 423486, Control_c, 0, 67, 45
1, 423494, Note_off_c, 0, 63, 55
1, 423501, Control_c, 0, 67, 35
1, 423510, Note_off_c, 0, 42, 61
1, 423510, Note_off_c, 0, 54, 61
1, 423516, Note_on_c, 0, 68, 65
1, 423516, Control_c, 0, 64, 65
1, 423516, Control_c, 0, 67, 23
1, 423531, Control_c, 0, 67, 0
1, 423545, Control_c, 0, 64, 66
1, 423570, Note_on_c, 0, 75, 65
1, 423575, Control_c, 0, 64, 64
1, 423589, Control_c, 0, 64, 60
1, 423600, Note_off_c, 0, 68, 52
1, 423604, Control_c, 0, 64, 52
1, 423609, Note_off_c, 0, 75, 62
1, 423619, Control_c, 0, 64, 42
1, 423634, Control_c, 0, 64, 34
1, 423643, Note_on_c, 0, 61, 71
1, 423649, Control_c, 0, 64, 35
1, 423657, Note_on_c, 0, 57, 67
1, 423660, Note_on_c, 0, 45, 64
1, 423664, Control_c, 0, 64, 41
1, 423679, Control_c, 0, 64, 49
1, 423688, Note_off_c, 0, 57, 66
1, 423694, Control_c, 0, 64, 56
1, 423701, Note_off_c, 0, 45, 61
1, 423704, Note_off_c, 0, 61, 58
1, 423709, Control_c, 0, 64, 61
1, 423712, Note_on_c, 0, 73, 68
1, 423722, Note_on_c, 0, 69, 55
1, 423723, Control_c, 0, 64, 65
1, 423738, Control_c, 0, 64, 67
1, 423754, Control_c, 0, 64, 68
1, 423769, Control_c, 0, 64, 69
1, 423783, Note_on_c, 0, 61, 63
1, 423784, Control_c, 0, 64, 69
1, 423791, Note_off_c, 0, 73, 60
1, 423798, Control_c, 0, 64, 70
1, 423813, Control_c, 0, 64, 71
1, 423817, Note_off_c, 0, 69, 0
1, 423824, Note_off_c, 0, 61, 59
1, 423828, Control_c, 0, 64, 72
1, 423843, Control_c, 0, 64, 72
1, 423848, Note_on_c, 0, 72, 57
1, 423854, Poly_aftertouch_c, 0, 69, 127
1, 423856, Note_on_c, 0, 69, 10
1, 423857, Control_c, 0, 64, 73
1, 423858, Note_on_c, 0, 52, 65
1, 423859, Note_on_c, 0, 40, 63
1, 423872, Control_c, 0, 64, 73
1, 423890, Note_off_c, 0, 40, 62
1, 423890, Note_off_c, 0, 52, 66
1, 423906, Note_on_c, 0, 73, 75
1, 423914, Note_off_c, 0, 69, 46
1, 423952, Note_off_c, 0, 72, 63
1, 423973, Note_on_c, 0, 76, 69
1, 423976, Control_c, 0, 64, 70
1, 423979, Note_off_c, 0, 73, 63
1, 423990, Control_c, 0, 64, 63
1, 424005, Control_c, 0, 64, 51
1, 424020, Control_c, 0, 64, 38
1, 424031, Note_off_c, 0, 76, 52
1, 424035, Control_c, 0, 64, 34
1, 424046, Note_on_c, 0, 75, 77
1, 424050, Control_c, 0, 64, 40
1, 424058, Note_on_c, 0, 57, 66
1, 424060, Note_on_c, 0, 45, 64
1, 424065, Control_c, 0, 64, 52
1, 424076, Note_off_c, 0, 75, 65
1, 424080, Control_c, 0, 64, 60
1, 424087, Note_off_c, 0, 57, 66
1, 424089, Note_off_c, 0, 45, 64
1, 424095, Control_c, 0, 64, 66
1, 424116, Control_c, 0, 64, 71
1, 424122, Note_on_c, 0, 61, 66
1, 424131, Control_c, 0, 64, 73
1, 424146, Control_c, 0, 64, 73
1, 424195, Note_on_c, 0, 73, 69
1, 424202, Note_off_c, 0, 61, 55
1, 424269, Note_on_c, 0, 40, 55
1, 424271, Note_on_c, 0, 52, 60
1, 424274, Note_on_c, 0, 71, 70
1, 424297, Note_off_c, 0, 40, 59
1, 424302, Note_off_c, 0, 73, 61
1, 424308, Note_off_c, 0, 52, 63
1, 424310, Note_on_c, 0, 61, 51
1, 424399, Control_c, 0, 64, 72
1, 424409, Note_off_c, 0, 71, 61
1, 424414, Control_c, 0, 64, 66
1, 424416, Note_on_c, 0, 69, 64
1, 424429, Control_c, 0, 64, 58
1, 424431, Note_off_c, 0, 61, 43
1, 424444, Control_c, 0, 64, 48
1, 424458, Control_c, 0, 64, 44
1, 424473, Control_c, 0, 64, 46
1, 424476, Note_on_c, 0, 45, 61
1, 424484, Note_on_c, 0, 57, 54
1, 424488, Note_on_c, 0, 68, 70
1, 424488, Control_c, 0, 64, 50
1, 424503, Control_c, 0, 64, 55
1, 424504, Note_off_c, 0, 69, 59
1, 424508, Note_off_c, 0, 57, 59
1, 424515, Note_off_c, 0, 45, 61
1, 424518, Control_c, 0, 64, 59
1, 424533, Control_c, 0, 64, 63
1, 424542, Note_off_c, 0, 68, 62
1, 424547, Control_c, 0, 64, 65
1, 424553, Note_on_c, 0, 61, 53
1, 424562, Control_c, 0, 64, 66
1, 424602, Note_off_c, 0, 61, 58
1, 424632, Note_on_c, 0, 68, 59
1, 424701, Note_on_c, 0, 40, 55
1, 424715, Note_on_c, 0, 66, 54
1, 424715, Note_off_c, 0, 68, 59
1, 424721, Note_on_c, 0, 52, 34
1, 424739, Control_c, 0, 64, 65
1, 424745, Note_off_c, 0, 40, 57
1, 424761, Note_off_c, 0, 66, 56
1, 424764, Note_off_c, 0, 52, 48
1, 424785, Note_on_c, 0, 61, 47
1, 424813, Note_off_c, 0, 61, 58
1, 424828, Control_c, 0, 64, 66
1, 424843, Control_c, 0, 64, 66
1, 424845, Note_on_c, 0, 66, 49
1, 424866, Control_c, 0, 64, 68
1, 424881, Control_c, 0, 64, 69
1, 424892, Note_off_c, 0, 66, 59
1, 424895, Control_c, 0, 64, 68
1, 424910, Control_c, 0, 64, 65
1, 424925, Control_c, 0, 64, 59
1, 424939, Control_c, 0, 64, 49
1, 424948, Note_on_c, 0, 52, 56
1, 424953, Note_on_c, 0, 40, 50
1, 424954, Control_c, 0, 64, 41
1, 424969, Control_c, 0, 64, 38
1, 424985, Control_c, 0, 64, 40
1, 425000, Control_c, 0, 64, 45
1, 425008, Note_off_c, 0, 40, 54
1, 425011, Note_off_c, 0, 52, 56
1, 425015, Control_c, 0, 64, 54
1, 425022, Note_on_c, 0, 66, 46
1, 425030, Control_c, 0, 64, 61
1, 425044, Control_c, 0, 64, 66
1, 425054, Note_on_c, 0, 61, 18
1, 425059, Control_c, 0, 64, 70
1, 425066, Note_off_c, 0, 66, 61
1, 425074, Control_c, 0, 64, 72
1, 425080, Note_on_c, 0, 57, 60
1, 425121, Note_off_c, 0, 57, 60
1, 425146, Note_on_c, 0, 39, 58
1, 425156, Note_on_c, 0, 51, 43
1, 425161, Note_on_c, 0, 65, 24
1, 425184, Note_off_c, 0, 61, 45
1, 425203, Note_on_c, 0, 66, 61
1, 425204, Note_off_c, 0, 51, 58
1, 425222, Control_c, 0, 64, 73
1, 425236, Note_off_c, 0, 65, 39
1, 425236, Control_c, 0, 64, 73
1, 425251, Control_c, 0, 64, 75
1, 425254, Note_off_c, 0, 39, 56
1, 425254, Note_off_c, 0, 66, 63
1, 425258, Note_on_c, 0, 69, 62
1, 425281, Control_c, 0, 64, 74
1, 425296, Control_c, 0, 64, 69
1, 425310, Control_c, 0, 64, 63
1, 425325, Control_c, 0, 64, 55
1, 425336, Note_off_c, 0, 69, 63
1, 425340, Control_c, 0, 64, 51
1, 425347, Note_on_c, 0, 68, 76
1, 425359, Note_on_c, 0, 40, 56
1, 425361, Note_on_c, 0, 52, 56
1, 425369, Control_c, 0, 64, 54
1, 425384, Control_c, 0, 64, 58
1, 425399, Control_c, 0, 64, 62
1, 425403, Note_off_c, 0, 52, 61
1, 425403, Note_off_c, 0, 68, 61
1, 425414, Control_c, 0, 64, 66
1, 425421, Note_off_c, 0, 40, 55
1, 425425, Note_on_c, 0, 57, 55
1, 425429, Control_c, 0, 64, 71
1, 425443, Control_c, 0, 64, 75
1, 425452, Note_off_c, 0, 57, 60
1, 425458, Control_c, 0, 64, 76
1, 425488, Note_on_c, 0, 61, 63
1, 425488, Control_c, 0, 64, 72
1, 425503, Control_c, 0, 64, 67
1, 425517, Control_c, 0, 64, 64
1, 425532, Control_c, 0, 64, 63
1, 425543, Note_on_c, 0, 39, 66
1, 425543, Note_on_c, 0, 51, 62
1, 425547, Note_off_c, 0, 61, 61
1, 425547, Control_c, 0, 64, 64
1, 425551, Note_on_c, 0, 66, 65
1, 425561, Control_c, 0, 64, 66
1, 425576, Control_c, 0, 64, 68
1, 425591, Control_c, 0, 64, 71
1, 425614, Control_c, 0, 64, 75
1, 425620, Note_off_c, 0, 66, 61
1, 425628, Note_on_c, 0, 73, 68
1, 425628, Note_off_c, 0, 51, 60
1, 425629, Control_c, 0, 64, 78
1, 425643, Control_c, 0, 64, 78
1, 425654, Note_off_c, 0, 73, 68
1, 425658, Control_c, 0, 64, 77
1, 425660, Note_off_c, 0, 39, 55
1, 425673, Control_c, 0, 64, 69
1, 425677, Note_on_c, 0, 61, 66
1, 425687, Control_c, 0, 64, 62
1, 425702, Control_c, 0, 64, 56
1, 425732, Control_c, 0, 64, 58
1, 425737, Note_on_c, 0, 68, 72
1, 425740, Note_on_c, 0, 40, 66
1, 425740, Note_on_c, 0, 52, 67
1, 425741, Note_off_c, 0, 61, 61
1, 425747, Control_c, 0, 64, 62
1, 425761, Control_c, 0, 64, 66
1, 425776, Control_c, 0, 64, 74
1, 425792, Control_c, 0, 64, 83
1, 425803, Note_off_c, 0, 52, 62
1, 425807, Control_c, 0, 64, 91
1, 425811, Note_off_c, 0, 40, 61
1, 425813, Note_on_c, 0, 69, 71
1, 425818, Note_on_c, 0, 70, 10
1, 425822, Control_c, 0, 64, 93
1, 425837, Control_c, 0, 64, 90
1, 425852, Control_c, 0, 64, 79
1, 425853, Note_off_c, 0, 68, 64
1, 425856, Note_on_c, 0, 73, 78
1, 425866, Control_c, 0, 64, 67
1, 425868, Note_off_c, 0, 69, 62
1, 425876, Note_off_c, 0, 70, 43
1, 425881, Control_c, 0, 64, 62
1, 425886, Note_off_c, 0, 73, 66
1, 425911, Control_c, 0, 64, 65
1, 425926, Control_c, 0, 64, 68
1, 425927, Note_on_c, 0, 66, 67
1, 425933, Note_on_c, 0, 39, 73
1, 425933, Note_on_c, 0, 51, 74
1, 425940, Control_c, 0, 64, 74
1, 425952, Note_off_c, 0, 66, 65
1, 425955, Control_c, 0, 64, 81
1, 425966, Note_off_c, 0, 39, 64
1, 425967, Note_off_c, 0, 51, 61
1, 425970, Control_c, 0, 64, 87
1, 425985, Control_c, 0, 64, 91
1, 425988, Note_on_c, 0, 73, 79
1, 426000, Control_c, 0, 64, 95
1, 426015, Control_c, 0, 64, 98
1, 426043, Note_on_c, 0, 78, 78
1, 426045, Control_c, 0, 64, 96
1, 426059, Control_c, 0, 64, 77
1, 426074, Control_c, 0, 64, 62
1, 426089, Control_c, 0, 64, 44
1, 426104, Control_c, 0, 64, 30
1, 426110, Note_off_c, 0, 78, 64
1, 426119, Control_c, 0, 64, 33
1, 426128, Note_on_c, 0, 54, 80
1, 426128, Note_on_c, 0, 42, 77
1, 426129, Note_on_c, 0, 64, 79
1, 426134, Control_c, 0, 64, 44
1, 426149, Control_c, 0, 64, 56
1, 426158, Note_off_c, 0, 54, 64
1, 426164, Control_c, 0, 64, 65
1, 426167, Note_off_c, 0, 42, 61
1, 426175, Note_off_c, 0, 64, 64
1, 426178, Control_c, 0, 64, 71
1, 426193, Control_c, 0, 64, 76
1, 426203, Note_on_c, 0, 78, 77
1, 426208, Control_c, 0, 64, 78
1, 426213, Note_off_c, 0, 73, 20
1, 426216, Note_on_c, 0, 76, 33
1, 426228, Note_off_c, 0, 78, 67
1, 426250, Note_off_c, 0, 76, 41
1, 426271, Note_on_c, 0, 69, 72
1, 426301, Note_on_c, 0, 75, 56
1, 426311, Control_c, 0, 64, 78
1, 426321, Note_off_c, 0, 75, 58
1, 426329, Note_on_c, 0, 76, 63
1, 426330, Note_on_c, 0, 37, 71
1, 426334, Note_on_c, 0, 49, 73
1, 426339, Note_on_c, 0, 77, 61
1, 426363, Control_c, 0, 64, 79
1, 426365, Note_on_c, 0, 74, 49
1, 426375, Note_off_c, 0, 37, 63
1, 426375, Note_off_c, 0, 49, 65
1, 426378, Control_c, 0, 64, 81
1, 426392, Note_off_c, 0, 74, 35
1, 426393, Control_c, 0, 64, 82
1, 426395, Note_on_c, 0, 78, 78
1, 426396, Note_off_c, 0, 69, 34
1, 426423, Control_c, 0, 64, 81
1, 426428, Note_off_c, 0, 76, 61
1, 426430, Note_off_c, 0, 77, 61
1, 426438, Control_c, 0, 64, 73
1, 426453, Control_c, 0, 64, 64
1, 426461, Note_on_c, 0, 81, 72
1, 426467, Control_c, 0, 64, 53
1, 426472, Note_off_c, 0, 78, 66
1, 426482, Control_c, 0, 64, 51
1, 426497, Control_c, 0, 64, 52
1, 426505, Note_off_c, 0, 81, 67
1, 426511, Control_c, 0, 64, 55
1, 426526, Control_c, 0, 64, 59
1, 426535, Note_on_c, 0, 54, 79
1, 426541, Note_on_c, 0, 80, 81
1, 426541, Control_c, 0, 64, 62
1, 426543, Note_on_c, 0, 42, 66
1, 426556, Control_c, 0, 64, 65
1, 426560, Note_off_c, 0, 54, 69
1, 426571, Control_c, 0, 64, 66
1, 426579, Note_off_c, 0, 42, 66
1, 426587, Note_off_c, 0, 80, 66
1, 426602, Control_c, 0, 64, 65
1, 426619, Note_on_c, 0, 69, 59
1, 426655, Note_off_c, 0, 69, 59
1, 426673, Note_on_c, 0, 78, 82
1, 426747, Note_on_c, 0, 37, 64
1, 426749, Note_on_c, 0, 76, 61
1, 426751, Note_on_c, 0, 49, 71
1, 426757, Note_off_c, 0, 78, 60
1, 426779, Control_c, 0, 64, 66
1, 426781, Note_off_c, 0, 37, 64
1, 426783, Note_on_c, 0, 69, 61
1, 426784, Note_off_c, 0, 49, 65
1, 426794, Control_c, 0, 64, 67
1, 426808, Control_c, 0, 64, 68
1, 426823, Control_c, 0, 64, 68
1, 426834, Note_off_c, 0, 69, 50
1, 426838, Control_c, 0, 64, 66
1, 426851, Note_off_c, 0, 76, 57
1, 426853, Control_c, 0, 64, 62
1, 426868, Control_c, 0, 64, 59
1, 426882, Note_on_c, 0, 75, 56
1, 426897, Control_c, 0, 64, 60
1, 426912, Control_c, 0, 64, 61
1, 426927, Note_on_c, 0, 73, 67
1, 426927, Control_c, 0, 64, 63
1, 426942, Control_c, 0, 64, 66
1, 426944, Note_on_c, 0, 54, 58
1, 426949, Note_on_c, 0, 42, 54
1, 426950, Note_off_c, 0, 75, 61
1, 426956, Control_c, 0, 64, 70
1, 426964, Note_off_c, 0, 73, 60
1, 426971, Control_c, 0, 64, 72
1, 426977, Note_off_c, 0, 54, 65
1, 426986, Control_c, 0, 64, 73
1, 426992, Note_off_c, 0, 42, 61
1, 427006, Note_on_c, 0, 69, 54
1, 427040, Note_off_c, 0, 69, 56
1, 427067, Note_on_c, 0, 73, 71
1, 427144, Note_on_c, 0, 69, 57
1, 427154, Note_off_c, 0, 73, 59
1, 427165, Note_on_c, 0, 37, 49
1, 427179, Note_on_c, 0, 49, 46
1, 427201, Control_c, 0, 64, 73
1, 427207, Note_off_c, 0, 69, 59
1, 427207, Note_on_c, 0, 66, 62
1, 427216, Note_off_c, 0, 37, 59
1, 427222, Note_off_c, 0, 49, 63
1, 427231, Control_c, 0, 64, 74
1, 427246, Control_c, 0, 64, 74
1, 427260, Control_c, 0, 64, 75
1, 427263, Note_off_c, 0, 66, 49
1, 427275, Control_c, 0, 64, 78
1, 427278, Note_on_c, 0, 69, 35
1, 427290, Control_c, 0, 64, 80
1, 427305, Control_c, 0, 64, 84
1, 427320, Control_c, 0, 64, 85
1, 427323, Note_off_c, 0, 69, 63
1, 427334, Control_c, 0, 64, 82
1, 427349, Control_c, 0, 64, 71
1, 427364, Control_c, 0, 64, 59
1, 427379, Control_c, 0, 64, 50
1, 427381, Note_on_c, 0, 40, 66
1, 427383, Note_on_c, 0, 52, 69
1, 427395, Control_c, 0, 64, 49
1, 427410, Control_c, 0, 64, 53
1, 427424, Control_c, 0, 64, 57
1, 427439, Control_c, 0, 64, 61
1, 427445, Note_off_c, 0, 52, 62
1, 427446, Note_off_c, 0, 40, 63
1, 427454, Control_c, 0, 64, 66
1, 427469, Note_on_c, 0, 69, 67
1, 427469, Control_c, 0, 64, 71
1, 427482, Note_on_c, 0, 64, 58
1, 427484, Control_c, 0, 64, 74
1, 427499, Control_c, 0, 64, 75
1, 427517, Note_off_c, 0, 64, 59
1, 427526, Note_off_c, 0, 69, 61
1, 427550, Note_on_c, 0, 57, 68
1, 427584, Note_on_c, 0, 37, 55
1, 427587, Control_c, 0, 64, 75
1, 427591, Note_off_c, 0, 57, 62
1, 427591, Note_on_c, 0, 49, 55
1, 427591, Note_on_c, 0, 64, 40
1, 427602, Control_c, 0, 64, 77
1, 427617, Control_c, 0, 64, 80
1, 427618, Note_on_c, 0, 68, 67
1, 427621, Note_off_c, 0, 49, 65
1, 427628, Note_off_c, 0, 37, 56
1, 427631, Control_c, 0, 64, 82
1, 427646, Control_c, 0, 64, 83
1, 427661, Control_c, 0, 64, 78
1, 427666, Note_off_c, 0, 64, 64
1, 427674, Note_on_c, 0, 69, 70
1, 427675, Control_c, 0, 64, 71
1, 427690, Control_c, 0, 64, 65
1, 427705, Control_c, 0, 64, 62
1, 427709, Note_off_c, 0, 68, 63
1, 427720, Note_off_c, 0, 69, 63
1, 427735, Control_c, 0, 64, 64
1, 427739, Note_on_c, 0, 76, 82
1, 427749, Control_c, 0, 64, 67
1, 427764, Control_c, 0, 64, 70
1, 427779, Control_c, 0, 64, 73
1, 427791, Note_off_c, 0, 76, 62
1, 427794, Control_c, 0, 64, 75
1, 427805, Note_on_c, 0, 52, 68
1, 427815, Note_on_c, 0, 72, 43
1, 427815, Note_on_c, 0, 40, 55
1, 427821, Note_on_c, 0, 71, 67
1, 427851, Note_off_c, 0, 72, 57
1, 427852, Note_off_c, 0, 71, 64
1, 427863, Note_off_c, 0, 52, 60
1, 427883, Note_off_c, 0, 40, 61
1, 427889, Note_on_c, 0, 57, 74
1, 427905, Control_c, 0, 64, 76
1, 427920, Control_c, 0, 64, 77
1, 427939, Note_off_c, 0, 57, 62
1, 427949, Note_on_c, 0, 64, 66
1, 427950, Control_c, 0, 64, 74
1, 427964, Control_c, 0, 64, 70
1, 427979, Control_c, 0, 64, 67
1, 427994, Control_c, 0, 64, 66
1, 428009, Note_on_c, 0, 37, 63
1, 428009, Control_c, 0, 64, 67
1, 428017, Note_off_c, 0, 64, 63
1, 428019, Note_on_c, 0, 49, 65
1, 428024, Control_c, 0, 64, 68
1, 428030, Note_on_c, 0, 69, 64
1, 428038, Control_c, 0, 64, 70
1, 428051, Note_off_c, 0, 49, 65
1, 428053, Control_c, 0, 64, 73
1, 428062, Note_off_c, 0, 37, 60
1, 428068, Control_c, 0, 64, 74
1, 428083, Control_c, 0, 64, 75
1, 428088, Note_off_c, 0, 69, 63
1, 428090, Note_on_c, 0, 76, 80
1, 428143, Control_c, 0, 64, 75
1, 428152, Note_on_c, 0, 64, 67
1, 428157, Control_c, 0, 64, 77
1, 428172, Control_c, 0, 64, 78
1, 428202, Control_c, 0, 64, 73
1, 428207, Note_off_c, 0, 76, 47
1, 428212, Note_on_c, 0, 52, 79
1, 428215, Note_off_c, 0, 64, 64
1, 428217, Control_c, 0, 64, 66
1, 428222, Note_on_c, 0, 71, 64
1, 428224, Note_on_c, 0, 40, 62
1, 428232, Control_c, 0, 64, 60
1, 428247, Control_c, 0, 64, 59
1, 428258, Note_on_c, 0, 73, 77
1, 428262, Control_c, 0, 64, 61
1, 428275, Note_off_c, 0, 52, 63
1, 428277, Control_c, 0, 64, 63
1, 428292, Control_c, 0, 64, 66
1, 428298, Note_off_c, 0, 71, 64
1, 428306, Control_c, 0, 64, 71
1, 428321, Control_c, 0, 64, 77
1, 428334, Note_on_c, 0, 76, 79
1, 428336, Control_c, 0, 64, 83
1, 428351, Control_c, 0, 64, 85
1, 428355, Note_off_c, 0, 73, 60
1, 428366, Control_c, 0, 64, 82
1, 428378, Note_off_c, 0, 76, 62
1, 428380, Note_off_c, 0, 40, 52
1, 428380, Control_c, 0, 64, 73
1, 428395, Control_c, 0, 64, 66
1, 428408, Note_on_c, 0, 69, 77
1, 428410, Control_c, 0, 64, 62
1, 428413, Note_on_c, 0, 37, 69
1, 428417, Note_on_c, 0, 49, 75
1, 428425, Control_c, 0, 64, 62
1, 428440, Control_c, 0, 64, 64
1, 428441, Note_off_c, 0, 69, 64
1, 428454, Note_off_c, 0, 37, 63
1, 428454, Control_c, 0, 64, 66
1, 428457, Note_off_c, 0, 49, 62
1, 428469, Control_c, 0, 64, 69
1, 428472, Note_on_c, 0, 76, 74
1, 428484, Control_c, 0, 64, 73
1, 428499, Control_c, 0, 64, 76
1, 428513, Control_c, 0, 64, 77
1, 428528, Control_c, 0, 64, 78
1, 428531, Note_on_c, 0, 81, 85
1, 428537, Note_off_c, 0, 76, 65
1, 428543, Control_c, 0, 64, 80
1, 428549, Note_off_c, 0, 81, 73
1, 428558, Control_c, 0, 64, 82
1, 428573, Control_c, 0, 64, 81
1, 428587, Control_c, 0, 64, 75
1, 428610, Control_c, 0, 64, 64
1, 428625, Control_c, 0, 64, 51
1, 428633, Note_on_c, 0, 40, 72
1, 428636, Note_on_c, 0, 52, 86
1, 428640, Control_c, 0, 64, 41
1, 428654, Control_c, 0, 64, 40
1, 428669, Control_c, 0, 64, 45
1, 428684, Control_c, 0, 64, 54
1, 428699, Control_c, 0, 64, 62
1, 428707, Note_off_c, 0, 52, 57
1, 428713, Control_c, 0, 64, 68
1, 428728, Control_c, 0, 64, 75
1, 428732, Note_on_c, 0, 64, 77
1, 428739, Note_on_c, 0, 68, 66
1, 428741, Note_off_c, 0, 40, 57
1, 428743, Control_c, 0, 64, 80
1, 428758, Control_c, 0, 64, 81
1, 428783, Note_off_c, 0, 64, 62
1, 428802, Control_c, 0, 64, 81
1, 428804, Note_on_c, 0, 59, 72
1, 428817, Control_c, 0, 64, 83
1, 428831, Control_c, 0, 64, 83
1, 428833, Note_off_c, 0, 68, 29
1, 428846, Control_c, 0, 64, 81
1, 428858, Note_off_c, 0, 59, 61
1, 428859, Note_on_c, 0, 64, 49
1, 428860, Note_on_c, 0, 38, 74
1, 428861, Control_c, 0, 64, 71
1, 428865, Note_on_c, 0, 50, 75
1, 428876, Control_c, 0, 64, 62
1, 428891, Control_c, 0, 64, 56
1, 428917, Note_on_c, 0, 68, 76
1, 428918, Note_off_c, 0, 38, 59
1, 428921, Control_c, 0, 64, 59
1, 428936, Control_c, 0, 64, 63
1, 428938, Note_off_c, 0, 50, 53
1, 428946, Note_off_c, 0, 64, 64
1, 428951, Control_c, 0, 64, 68
1, 428962, Note_on_c, 0, 66, 8
1, 428966, Control_c, 0, 64, 76
1, 428981, Control_c, 0, 64, 84
1, 428996, Control_c, 0, 64, 87
1, 428998, Note_on_c, 0, 71, 69
1, 429004, Note_off_c, 0, 68, 66
1, 429010, Note_off_c, 0, 66, 35
1, 429010, Control_c, 0, 64, 84
1, 429025, Control_c, 0, 64, 74
1, 429040, Control_c, 0, 64, 64
1, 429050, Note_on_c, 0, 69, 70
1, 429055, Control_c, 0, 64, 55
1, 429074, Note_on_c, 0, 52, 82
1, 429077, Note_off_c, 0, 71, 65
1, 429079, Note_on_c, 0, 40, 75
1, 429085, Control_c, 0, 64, 58
1, 429100, Control_c, 0, 64, 62
1, 429115, Control_c, 0, 64, 66
1, 429127, Note_on_c, 0, 59, 63
1, 429129, Note_off_c, 0, 52, 59
1, 429129, Control_c, 0, 64, 72
1, 429144, Control_c, 0, 64, 80
1, 429159, Control_c, 0, 64, 82
1, 429165, Note_off_c, 0, 59, 64
1, 429174, Note_off_c, 0, 69, 61
1, 429178, Note_off_c, 0, 40, 52
1, 429186, Note_on_c, 0, 64, 76
1, 429189, Control_c, 0, 64, 78
1, 429203, Control_c, 0, 64, 72
1, 429218, Control_c, 0, 64, 66
1, 429233, Control_c, 0, 64, 63
1, 429248, Control_c, 0, 64, 63
1, 429262, Control_c, 0, 64, 65
1, 429267, Note_off_c, 0, 64, 59
1, 429270, Note_on_c, 0, 50, 75
1, 429271, Note_on_c, 0, 68, 82
1, 429272, Note_on_c, 0, 38, 73
1, 429277, Control_c, 0, 64, 68
1, 429292, Control_c, 0, 64, 71
1, 429307, Control_c, 0, 64, 74
1, 429322, Control_c, 0, 64, 75
1, 429326, Note_off_c, 0, 38, 55
1, 429336, Control_c, 0, 64, 77
1, 429338, Note_on_c, 0, 76, 78
1, 429356, Note_off_c, 0, 68, 64
1, 429359, Control_c, 0, 64, 80
1, 429365, Note_off_c, 0, 50, 60
1, 429374, Control_c, 0, 64, 81
1, 429389, Control_c, 0, 64, 81
1, 429396, Note_off_c, 0, 76, 64
1, 429404, Control_c, 0, 64, 76
1, 429410, Note_on_c, 0, 64, 71
1, 429418, Control_c, 0, 64, 69
1, 429433, Control_c, 0, 64, 62
1, 429448, Note_off_c, 0, 64, 64
1, 429448, Control_c, 0, 64, 59
1, 429457, Note_on_c, 0, 52, 82
1, 429462, Control_c, 0, 64, 60
1, 429463, Note_on_c, 0, 40, 69
1, 429477, Control_c, 0, 64, 63
1, 429490, Note_on_c, 0, 69, 75
1, 429492, Control_c, 0, 64, 66
1, 429507, Control_c, 0, 64, 70
1, 429516, Note_off_c, 0, 52, 58
1, 429522, Control_c, 0, 64, 77
1, 429536, Control_c, 0, 64, 84
1, 429540, Note_on_c, 0, 71, 71
1, 429551, Control_c, 0, 64, 90
1, 429566, Control_c, 0, 64, 91
1, 429574, Note_off_c, 0, 69, 56
1, 429581, Control_c, 0, 64, 91
1, 429596, Control_c, 0, 64, 83
1, 429608, Note_on_c, 0, 76, 83
1, 429610, Control_c, 0, 64, 72
1, 429618, Note_off_c, 0, 71, 63
1, 429625, Control_c, 0, 64, 64
1, 429640, Control_c, 0, 64, 61
1, 429653, Note_off_c, 0, 76, 63
1, 429654, Control_c, 0, 64, 63
1, 429669, Control_c, 0, 64, 66
1, 429682, Note_on_c, 0, 38, 76
1, 429684, Control_c, 0, 64, 70
1, 429688, Note_on_c, 0, 68, 82
1, 429689, Note_on_c, 0, 50, 73
1, 429692, Note_off_c, 0, 40, 24
1, 429699, Control_c, 0, 64, 77
1, 429714, Control_c, 0, 64, 86
1, 429715, Note_off_c, 0, 50, 66
1, 429723, Note_off_c, 0, 38, 64
1, 429729, Control_c, 0, 64, 96
1, 429744, Control_c, 0, 64, 108
1, 429755, Note_on_c, 0, 71, 75
1, 429758, Control_c, 0, 64, 127
1, 429761, Note_off_c, 0, 68, 60
1, 429834, Note_on_c, 0, 80, 80
1, 429853, Note_off_c, 0, 71, 62
1, 429908, Control_c, 0, 64, 72
1, 429913, Note_off_c, 0, 80, 62
1, 429922, Control_c, 0, 64, 38
1, 429937, Control_c, 0, 64, 0
1, 429945, Note_on_c, 0, 26, 87
1, 429951, Note_on_c, 0, 38, 97
1, 429982, Control_c, 0, 64, 49
1, 429984, Note_off_c, 0, 26, 65
1, 429997, Control_c, 0, 64, 69
1, 429999, Note_off_c, 0, 38, 66
1, 430012, Control_c, 0, 64, 100
1, 430026, Control_c, 0, 64, 127
1, 430216, Note_on_c, 0, 56, 75
1, 430268, Note_off_c, 0, 56, 59
1, 430314, Note_on_c, 0, 47, 72
1, 430377, Note_off_c, 0, 47, 64
1, 430384, Note_on_c, 0, 52, 66
1, 430389, Note_on_c, 0, 92, 94
1, 430392, Note_on_c, 0, 88, 93
1, 430393, Note_on_c, 0, 80, 93
1, 430459, Note_off_c, 0, 52, 58
1, 430466, Note_on_c, 0, 56, 73
1, 430499, Note_off_c, 0, 56, 60
1, 430525, Note_on_c, 0, 64, 63
1, 430568, Note_off_c, 0, 64, 61
1, 430617, Note_on_c, 0, 59, 70
1, 430683, Note_off_c, 0, 59, 64
1, 430690, Note_on_c, 0, 68, 77
1, 430748, Note_off_c, 0, 80, 61
1, 430760, Note_off_c, 0, 68, 61
1, 430763, Note_on_c, 0, 59, 62
1, 430767, Note_off_c, 0, 92, 59
1, 430794, Note_off_c, 0, 88, 56
1, 430814, Note_off_c, 0, 59, 63
1, 430821, Note_on_c, 0, 64, 66
1, 430832, Note_on_c, 0, 92, 100
1, 430835, Note_on_c, 0, 88, 75
1, 430838, Note_on_c, 0, 80, 93
1, 430891, Note_on_c, 0, 68, 68
1, 430892, Note_off_c, 0, 64, 62
1, 430916, Note_off_c, 0, 80, 56
1, 430948, Note_off_c, 0, 68, 63
1, 430985, Note_on_c, 0, 76, 57
1, 431012, Note_off_c, 0, 76, 57
1, 431061, Note_on_c, 0, 71, 71
1, 431119, Note_off_c, 0, 88, 62
1, 431137, Note_off_c, 0, 71, 61
1, 431143, Note_on_c, 0, 80, 74
1, 431151, Note_off_c, 0, 92, 60
1, 431211, Note_off_c, 0, 80, 48
1, 431218, Note_on_c, 0, 71, 66
1, 431280, Note_on_c, 0, 92, 98
1, 431285, Note_on_c, 0, 83, 85
1, 431288, Note_on_c, 0, 76, 66
1, 431302, Note_off_c, 0, 71, 58
1, 431361, Note_on_c, 0, 80, 69
1, 431375, Note_off_c, 0, 76, 63
1, 431382, Note_off_c, 0, 80, 67
1, 431456, Note_on_c, 0, 88, 95
1, 431650, Control_c, 0, 64, 89
1, 431665, Control_c, 0, 64, 60
1, 431672, Note_on_c, 0, 26, 88
1, 431674, Note_on_c, 0, 38, 92
1, 431680, Control_c, 0, 64, 0
1, 431702, Note_off_c, 0, 26, 66
1, 431710, Control_c, 0, 64, 54
1, 431725, Control_c, 0, 64, 67
1, 431726, Note_off_c, 0, 38, 64
1, 431739, Control_c, 0, 64, 96
1, 431754, Control_c, 0, 64, 127
1, 431848, Note_off_c, 0, 92, 60
1, 431917, Note_on_c, 0, 56, 78
1, 431941, Note_off_c, 0, 56, 66
1, 431947, Note_off_c, 0, 88, 54
1, 431995, Note_off_c, 0, 83, 35
1, 432020, Note_on_c, 0, 47, 71
1, 432079, Note_off_c, 0, 47, 64
1, 432082, Note_on_c, 0, 95, 90
1, 432083, Note_on_c, 0, 92, 87
1, 432084, Note_on_c, 0, 83, 96
1, 432092, Note_on_c, 0, 52, 67
1, 432152, Note_off_c, 0, 52, 59
1, 432159, Note_on_c, 0, 56, 70
1, 432197, Note_off_c, 0, 56, 59
1, 432222, Note_on_c, 0, 64, 65
1, 432267, Note_off_c, 0, 64, 60
1, 432319, Note_on_c, 0, 59, 63
1, 432391, Note_on_c, 0, 68, 78
1, 432406, Note_off_c, 0, 59, 62
1, 432416, Note_off_c, 0, 83, 57
1, 432444, Note_off_c, 0, 95, 58
1, 432457, Note_off_c, 0, 68, 62
1, 432465, Note_off_c, 0, 92, 61
1, 432471, Note_on_c, 0, 59, 60
1, 432519, Note_on_c, 0, 64, 56
1, 432525, Note_off_c, 0, 59, 62
1, 432534, Note_on_c, 0, 95, 93
1, 432535, Note_on_c, 0, 83, 86
1, 432539, Note_on_c, 0, 92, 87
1, 432582, Note_off_c, 0, 64, 62
1, 432584, Note_on_c, 0, 68, 73
1, 432638, Note_off_c, 0, 68, 63
1, 432662, Note_on_c, 0, 76, 71
1, 432718, Note_off_c, 0, 76, 60
1, 432757, Note_on_c, 0, 71, 76
1, 432821, Note_off_c, 0, 83, 63
1, 432838, Note_off_c, 0, 71, 61
1, 432838, Note_off_c, 0, 95, 61
1, 432847, Note_off_c, 0, 92, 64
1, 432862, Note_on_c, 0, 80, 72
1, 432922, Note_on_c, 0, 71, 58
1, 432933, Note_off_c, 0, 80, 50
1, 432997, Note_on_c, 0, 95, 88
1, 432999, Note_on_c, 0, 83, 87
1, 432999, Note_on_c, 0, 92, 86
1, 433005, Note_off_c, 0, 71, 61
1, 433008, Note_on_c, 0, 76, 74
1, 433102, Note_on_c, 0, 80, 64
1, 433109, Note_off_c, 0, 76, 60
1, 433127, Note_off_c, 0, 80, 67
1, 433210, Note_on_c, 0, 88, 89
1, 433274, Note_off_c, 0, 83, 63
1, 433277, Note_off_c, 0, 95, 63
1, 433298, Note_off_c, 0, 88, 64
1, 433300, Note_off_c, 0, 92, 64
1, 433681, Control_c, 0, 67, 19
1, 433710, Control_c, 0, 67, 22
1, 433725, Control_c, 0, 67, 24
1, 433740, Control_c, 0, 67, 28
1, 433755, Control_c, 0, 67, 32
1, 433771, Control_c, 0, 67, 38
1, 433786, Control_c, 0, 67, 45
1, 433800, Control_c, 0, 67, 54
1, 433815, Control_c, 0, 67, 62
1, 433830, Control_c, 0, 67, 69
1, 433851, Control_c, 0, 67, 75
1, 433866, Control_c, 0, 64, 89
1, 433866, Control_c, 0, 67, 82
1, 433881, Control_c, 0, 64, 72
1, 433881, Control_c, 0, 67, 89
1, 433896, Control_c, 0, 64, 60
1, 433896, Control_c, 0, 67, 99
1, 433911, Control_c, 0, 64, 46
1, 433911, Control_c, 0, 67, 110
1, 433926, Control_c, 0, 64, 29
1, 433926, Control_c, 0, 67, 120
1, 433941, Control_c, 0, 64, 0
1, 433941, Control_c, 0, 67, 127
1, 434063, Note_on_c, 0, 71, 45
1, 434069, Note_on_c, 0, 59, 21
1, 434069, Note_on_c, 0, 68, 38
1, 434080, Note_on_c, 0, 51, 35
1, 434163, Control_c, 0, 64, 32
1, 434178, Control_c, 0, 64, 50
1, 434193, Control_c, 0, 64, 61
1, 434196, Note_off_c, 0, 51, 50
1, 434207, Control_c, 0, 64, 66
1, 434222, Control_c, 0, 64, 71
1, 434233, Note_on_c, 0, 39, 41
1, 434237, Control_c, 0, 64, 81
1, 434251, Control_c, 0, 64, 94
1, 434266, Control_c, 0, 64, 115
1, 434281, Control_c, 0, 64, 127
1, 434294, Note_off_c, 0, 39, 57
1, 434336, Note_on_c, 0, 51, 49
1, 434372, Note_off_c, 0, 51, 63
1, 434474, Note_on_c, 0, 56, 51
1, 434502, Note_off_c, 0, 59, 42
1, 434514, Note_off_c, 0, 56, 49
1, 434551, Note_on_c, 0, 64, 42
1, 434556, Note_off_c, 0, 68, 37
1, 434605, Note_off_c, 0, 64, 57
1, 434638, Note_on_c, 0, 63, 50
1, 434663, Note_off_c, 0, 63, 58
1, 434760, Note_off_c, 0, 71, 36
1, 434764, Note_on_c, 0, 70, 61
1, 434775, Note_on_c, 0, 59, 45
1, 434788, Note_on_c, 0, 51, 36
1, 434823, Control_c, 0, 64, 94
1, 434838, Control_c, 0, 64, 83
1, 434839, Note_off_c, 0, 51, 46
1, 434857, Note_on_c, 0, 39, 56
1, 434868, Control_c, 0, 64, 86
1, 434882, Control_c, 0, 64, 100
1, 434896, Note_off_c, 0, 39, 61
1, 434897, Control_c, 0, 64, 127
1, 434940, Note_on_c, 0, 51, 48
1, 434968, Note_off_c, 0, 51, 55
1, 435012, Note_on_c, 0, 68, 72
1, 435021, Note_off_c, 0, 70, 55
1, 435053, Note_on_c, 0, 56, 62
1, 435085, Note_off_c, 0, 56, 61
1, 435109, Note_on_c, 0, 64, 51
1, 435124, Note_off_c, 0, 59, 38
1, 435139, Note_off_c, 0, 64, 63
1, 435182, Note_on_c, 0, 63, 34
1, 435217, Note_off_c, 0, 68, 59
1, 435217, Note_off_c, 0, 63, 52
1, 435248, Note_on_c, 0, 67, 66
1, 435251, Note_on_c, 0, 59, 58
1, 435267, Control_c, 0, 64, 89
1, 435270, Note_on_c, 0, 51, 54
1, 435282, Control_c, 0, 64, 77
1, 435297, Control_c, 0, 64, 78
1, 435308, Note_off_c, 0, 51, 51
1, 435312, Control_c, 0, 64, 87
1, 435327, Control_c, 0, 64, 127
1, 435332, Note_on_c, 0, 39, 64
1, 435381, Note_off_c, 0, 59, 62
1, 435383, Note_off_c, 0, 39, 62
1, 435392, Note_on_c, 0, 51, 66
1, 435422, Note_off_c, 0, 51, 64
1, 435465, Note_on_c, 0, 68, 66
1, 435479, Note_off_c, 0, 67, 61
1, 435525, Note_off_c, 0, 68, 63
1, 435533, Note_on_c, 0, 56, 33
1, 435560, Note_off_c, 0, 56, 53
1, 435561, Note_on_c, 0, 64, 46
1, 435596, Note_off_c, 0, 64, 53
1, 435624, Note_on_c, 0, 63, 54
1, 435648, Note_off_c, 0, 63, 60
1, 435793, Control_c, 0, 64, 110
1, 435799, Note_on_c, 0, 52, 52
1, 435801, Note_on_c, 0, 70, 66
1, 435808, Control_c, 0, 64, 71
1, 435810, Note_on_c, 0, 61, 51
1, 435813, Note_on_c, 0, 68, 49
1, 435822, Control_c, 0, 64, 48
1, 435837, Control_c, 0, 64, 41
1, 435852, Control_c, 0, 64, 51
1, 435867, Control_c, 0, 64, 61
1, 435882, Control_c, 0, 64, 68
1, 435894, Note_off_c, 0, 52, 59
1, 435896, Control_c, 0, 64, 84
1, 435911, Control_c, 0, 64, 127
1, 435914, Note_on_c, 0, 39, 56
1, 435939, Note_off_c, 0, 61, 57
1, 435955, Note_off_c, 0, 39, 61
1, 435986, Control_c, 0, 67, 123
1, 436000, Control_c, 0, 67, 121
1, 436015, Control_c, 0, 67, 119
1, 436026, Note_on_c, 0, 71, 69
1, 436027, Note_off_c, 0, 68, 52
1, 436030, Control_c, 0, 67, 117
1, 436040, Note_on_c, 0, 52, 3
1, 436045, Control_c, 0, 67, 115
1, 436049, Note_off_c, 0, 52, 0
1, 436076, Poly_aftertouch_c, 0, 52, 0
1, 436104, Note_on_c, 0, 56, 75
1, 436151, Note_off_c, 0, 70, 53
1, 436158, Note_off_c, 0, 71, 53
1, 436170, Note_on_c, 0, 68, 66
1, 436184, Note_off_c, 0, 56, 58
1, 436187, Control_c, 0, 67, 117
1, 436197, Note_off_c, 0, 68, 66
1, 436218, Note_on_c, 0, 61, 61
1, 436240, Note_on_c, 0, 73, 80
1, 436248, Note_off_c, 0, 61, 64
1, 436268, Note_off_c, 0, 73, 64
1, 436305, Control_c, 0, 67, 115
1, 436326, Note_on_c, 0, 68, 24
1, 436328, Note_on_c, 0, 73, 80
1, 436331, Note_on_c, 0, 61, 71
1, 436334, Control_c, 0, 67, 112
1, 436337, Note_on_c, 0, 52, 59
1, 436338, Note_on_c, 0, 70, 67
1, 436349, Control_c, 0, 67, 105
1, 436364, Control_c, 0, 67, 95
1, 436379, Control_c, 0, 67, 84
1, 436383, Note_off_c, 0, 52, 45
1, 436394, Control_c, 0, 67, 73
1, 436400, Note_off_c, 0, 61, 55
1, 436409, Control_c, 0, 67, 64
1, 436420, Note_on_c, 0, 39, 66
1, 436424, Control_c, 0, 67, 57
1, 436439, Control_c, 0, 67, 51
1, 436445, Note_off_c, 0, 39, 64
1, 436453, Control_c, 0, 67, 44
1, 436468, Control_c, 0, 67, 39
1, 436478, Note_on_c, 0, 52, 58
1, 436483, Control_c, 0, 67, 35
1, 436498, Control_c, 0, 67, 32
1, 436501, Note_off_c, 0, 52, 61
1, 436513, Control_c, 0, 67, 32
1, 436514, Note_off_c, 0, 68, 54
1, 436548, Note_off_c, 0, 70, 62
1, 436563, Note_off_c, 0, 73, 60
1, 436588, Note_on_c, 0, 56, 67
1, 436631, Note_on_c, 0, 68, 63
1, 436640, Note_off_c, 0, 56, 49
1, 436676, Note_on_c, 0, 61, 61
1, 436677, Note_off_c, 0, 68, 62
1, 436706, Control_c, 0, 67, 29
1, 436714, Note_off_c, 0, 61, 61
1, 436720, Control_c, 0, 67, 0
1, 436750, Control_c, 0, 64, 102
1, 436764, Control_c, 0, 64, 69
1, 436779, Control_c, 0, 64, 59
1, 436782, Note_on_c, 0, 63, 70
1, 436787, Note_on_c, 0, 75, 72
1, 436787, Note_on_c, 0, 51, 73
1, 436794, Control_c, 0, 64, 63
1, 436796, Note_on_c, 0, 71, 57
1, 436809, Control_c, 0, 64, 76
1, 436814, Note_off_c, 0, 63, 62
1, 436817, Note_off_c, 0, 51, 64
1, 436824, Control_c, 0, 64, 127
1, 436875, Note_on_c, 0, 67, 58
1, 436886, Note_off_c, 0, 75, 59
1, 436901, Note_off_c, 0, 71, 63
1, 436902, Note_on_c, 0, 61, 73
1, 436914, Note_on_c, 0, 49, 71
1, 436925, Note_off_c, 0, 67, 63
1, 436925, Note_off_c, 0, 61, 69
1, 436939, Note_off_c, 0, 49, 66
1, 436940, Note_on_c, 0, 63, 71
1, 436963, Note_off_c, 0, 63, 70
1, 437068, Note_on_c, 0, 39, 77
1, 437068, Note_on_c, 0, 27, 75
1, 437069, Note_on_c, 0, 63, 72
1, 437092, Note_off_c, 0, 39, 63
1, 437092, Note_off_c, 0, 63, 68
1, 437097, Note_off_c, 0, 27, 61
1, 437122, Note_on_c, 0, 51, 71
1, 437149, Note_off_c, 0, 51, 64
1, 437166, Poly_aftertouch_c, 0, 30, 0
1, 437192, Note_on_c, 0, 63, 75
1, 437218, Note_off_c, 0, 63, 68
1, 437291, Note_on_c, 0, 47, 75
1, 437291, Note_on_c, 0, 59, 84
1, 437345, Note_off_c, 0, 47, 63
1, 437352, Note_off_c, 0, 59, 59
1, 437425, Control_c, 0, 64, 77
1, 437438, Note_on_c, 0, 47, 70
1, 437440, Control_c, 0, 64, 56
1, 437441, Note_on_c, 0, 59, 65
1, 437447, Note_on_c, 0, 75, 76
1, 437447, Note_on_c, 0, 77, 71
1, 437450, Note_on_c, 0, 68, 80
1, 437455, Control_c, 0, 64, 44
1, 437458, Note_off_c, 0, 59, 63
1, 437464, Note_off_c, 0, 47, 67
1, 437467, Note_on_c, 0, 57, 43
1, 437467, Note_off_c, 0, 57, 127
1, 437469, Control_c, 0, 64, 53
1, 437484, Control_c, 0, 64, 64
1, 437499, Control_c, 0, 64, 76
1, 437514, Control_c, 0, 64, 127
1, 437568, Note_on_c, 0, 39, 83
1, 437610, Note_on_c, 0, 47, 59
1, 437629, Note_off_c, 0, 39, 60
1, 437659, Note_off_c, 0, 47, 65
1, 437692, Note_on_c, 0, 79, 85
1, 437743, Note_on_c, 0, 51, 76
1, 437753, Note_off_c, 0, 75, 52
1, 437766, Note_off_c, 0, 77, 54
1, 437772, Note_off_c, 0, 68, 52
1, 437785, Note_on_c, 0, 63, 64
1, 437802, Note_off_c, 0, 79, 60
1, 437827, Note_off_c, 0, 63, 61
1, 437830, Note_off_c, 0, 51, 60
1, 437855, Note_on_c, 0, 56, 59
1, 437866, Note_on_c, 0, 80, 74
1, 437877, Note_on_c, 0, 75, 59
1, 437881, Note_on_c, 0, 68, 53
1, 437881, Note_off_c, 0, 56, 63
1, 437884, Note_on_c, 0, 77, 53
1, 437907, Note_off_c, 0, 68, 58
1, 437908, Note_off_c, 0, 80, 55
1, 437913, Note_off_c, 0, 75, 60
1, 437916, Note_off_c, 0, 77, 62
1, 437937, Control_c, 0, 64, 81
1, 437942, Note_on_c, 0, 59, 69
1, 437952, Control_c, 0, 64, 63
1, 437959, Note_on_c, 0, 57, 61
1, 437959, Note_on_c, 0, 80, 85
1, 437966, Note_on_c, 0, 45, 50
1, 437966, Note_off_c, 0, 59, 68
1, 437966, Control_c, 0, 64, 60
1, 437971, Note_on_c, 0, 68, 74
1, 437971, Note_on_c, 0, 47, 32
1, 437975, Note_on_c, 0, 77, 67
1, 437977, Note_on_c, 0, 75, 69
1, 437981, Note_off_c, 0, 57, 38
1, 437981, Control_c, 0, 64, 67
1, 437996, Control_c, 0, 64, 82
1, 437998, Note_off_c, 0, 45, 56
1, 438010, Control_c, 0, 64, 127
1, 438011, Note_off_c, 0, 47, 31
1, 438024, Note_off_c, 0, 68, 56
1, 438060, Note_on_c, 0, 39, 85
1, 438089, Note_off_c, 0, 39, 67
1, 438127, Note_on_c, 0, 47, 62
1, 438144, Note_off_c, 0, 75, 42
1, 438148, Note_off_c, 0, 47, 64
1, 438171, Note_off_c, 0, 80, 63
1, 438190, Note_off_c, 0, 77, 62
1, 438239, Note_on_c, 0, 51, 72
1, 438246, Note_on_c, 0, 63, 78
1, 438290, Note_off_c, 0, 63, 59
1, 438326, Note_on_c, 0, 56, 74
1, 438327, Note_off_c, 0, 51, 52
1, 438367, Note_off_c, 0, 56, 61
1, 438433, Control_c, 0, 64, 102
1, 438440, Note_on_c, 0, 58, 82
1, 438445, Note_on_c, 0, 80, 90
1, 438445, Note_on_c, 0, 82, 95
1, 438447, Note_on_c, 0, 46, 78
1, 438448, Control_c, 0, 64, 68
1, 438463, Control_c, 0, 64, 49
1, 438478, Control_c, 0, 64, 43
1, 438484, Note_off_c, 0, 46, 63
1, 438492, Control_c, 0, 64, 54
1, 438496, Note_off_c, 0, 58, 62
1, 438507, Control_c, 0, 64, 66
1, 438522, Control_c, 0, 64, 87
1, 438537, Control_c, 0, 64, 127
1, 438543, Note_on_c, 0, 75, 64
1, 438597, Note_off_c, 0, 82, 59
1, 438616, Note_on_c, 0, 56, 71
1, 438616, Note_off_c, 0, 75, 59
1, 438620, Note_off_c, 0, 80, 53
1, 438621, Note_on_c, 0, 70, 70
1, 438625, Note_on_c, 0, 44, 62
1, 438649, Note_off_c, 0, 70, 68
1, 438656, Note_off_c, 0, 56, 55
1, 438656, Control_c, 0, 64, 87
1, 438660, Note_off_c, 0, 44, 62
1, 438671, Control_c, 0, 64, 71
1, 438686, Control_c, 0, 64, 68
1, 438698, Note_on_c, 0, 80, 87
1, 438701, Note_on_c, 0, 83, 93
1, 438701, Control_c, 0, 64, 79
1, 438715, Control_c, 0, 64, 127
1, 438743, Note_on_c, 0, 54, 77
1, 438750, Note_on_c, 0, 42, 74
1, 438769, Note_off_c, 0, 54, 68
1, 438773, Note_on_c, 0, 75, 67
1, 438782, Note_off_c, 0, 42, 65
1, 438793, Note_off_c, 0, 83, 65
1, 438813, Note_off_c, 0, 80, 61
1, 438824, Note_on_c, 0, 71, 63
1, 438843, Note_off_c, 0, 71, 64
1, 438844, Note_off_c, 0, 75, 62
1, 438865, Poly_aftertouch_c, 0, 78, 0
1, 438982, Control_c, 0, 64, 68
1, 438997, Control_c, 0, 64, 0
1, 439005, Note_on_c, 0, 86, 84
1, 439010, Note_on_c, 0, 27, 88
1, 439011, Note_on_c, 0, 80, 82
1, 439011, Note_on_c, 0, 39, 95
1, 439015, Note_on_c, 0, 74, 86
1, 439035, Note_off_c, 0, 39, 69
1, 439040, Note_off_c, 0, 27, 68
1, 439056, Control_c, 0, 64, 54
1, 439071, Control_c, 0, 64, 70
1, 439093, Control_c, 0, 64, 127
1, 439126, Note_off_c, 0, 86, 64
1, 439130, Note_off_c, 0, 74, 54
1, 439167, Note_off_c, 0, 80, 62
1, 439256, Note_on_c, 0, 56, 70
1, 439285, Note_off_c, 0, 56, 65
1, 439318, Note_on_c, 0, 47, 71
1, 439390, Note_off_c, 0, 47, 64
1, 439394, Note_on_c, 0, 52, 74
1, 439421, Note_off_c, 0, 52, 65
1, 439445, Note_on_c, 0, 56, 73
1, 439489, Note_off_c, 0, 56, 62
1, 439502, Note_on_c, 0, 62, 70
1, 439545, Note_off_c, 0, 62, 66
1, 439589, Note_on_c, 0, 59, 75
1, 439646, Note_off_c, 0, 59, 60
1, 439667, Note_on_c, 0, 68, 65
1, 439709, Note_off_c, 0, 68, 61
1, 439742, Note_on_c, 0, 59, 72
1, 439796, Note_on_c, 0, 64, 67
1, 439807, Note_off_c, 0, 59, 63
1, 439826, Note_off_c, 0, 64, 66
1, 439869, Note_on_c, 0, 68, 80
1, 439913, Note_off_c, 0, 68, 67
1, 439935, Note_on_c, 0, 74, 69
1, 439974, Note_off_c, 0, 74, 66
1, 440023, Note_on_c, 0, 71, 76
1, 440064, Note_off_c, 0, 71, 63
1, 440099, Note_on_c, 0, 80, 70
1, 440129, Note_off_c, 0, 80, 60
1, 440174, Note_on_c, 0, 71, 75
1, 440236, Note_on_c, 0, 76, 73
1, 440252, Note_off_c, 0, 71, 62
1, 440259, Note_off_c, 0, 76, 68
1, 440286, Note_on_c, 0, 80, 74
1, 440362, Note_on_c, 0, 86, 81
1, 440373, Note_off_c, 0, 80, 57
1, 440461, Note_off_c, 0, 86, 64
1, 440480, Control_c, 0, 64, 68
1, 440494, Control_c, 0, 64, 0
1, 440501, Note_on_c, 0, 27, 84
1, 440505, Note_on_c, 0, 39, 87
1, 440505, Note_on_c, 0, 87, 97
1, 440509, Note_on_c, 0, 80, 83
1, 440511, Note_on_c, 0, 75, 83
1, 440534, Note_off_c, 0, 39, 68
1, 440537, Note_off_c, 0, 27, 66
1, 440538, Control_c, 0, 64, 49
1, 440553, Control_c, 0, 64, 64
1, 440568, Control_c, 0, 64, 85
1, 440591, Control_c, 0, 64, 127
1, 440600, Note_off_c, 0, 75, 53
1, 440607, Note_off_c, 0, 87, 64
1, 440636, Note_off_c, 0, 80, 60
1, 440719, Note_on_c, 0, 56, 68
1, 440757, Note_off_c, 0, 56, 57
1, 440804, Note_on_c, 0, 47, 56
1, 440859, Note_on_c, 0, 51, 75
1, 440863, Note_off_c, 0, 47, 65
1, 440891, Note_off_c, 0, 51, 65
1, 440920, Note_on_c, 0, 56, 73
1, 440949, Note_off_c, 0, 56, 65
1, 440999, Note_on_c, 0, 63, 72
1, 441033, Note_off_c, 0, 63, 64
1, 441076, Note_on_c, 0, 59, 78
1, 441125, Note_off_c, 0, 59, 63
1, 441167, Note_on_c, 0, 68, 69
1, 441208, Note_off_c, 0, 68, 60
1, 441229, Note_on_c, 0, 59, 73
1, 441283, Note_off_c, 0, 59, 64
1, 441289, Note_on_c, 0, 63, 73
1, 441315, Note_off_c, 0, 63, 67
1, 441342, Note_on_c, 0, 68, 77
1, 441389, Note_off_c, 0, 68, 63
1, 441420, Note_on_c, 0, 75, 71
1, 441459, Note_off_c, 0, 75, 66
1, 441507, Note_on_c, 0, 71, 74
1, 441556, Note_off_c, 0, 71, 64
1, 441587, Note_on_c, 0, 80, 73
1, 441631, Note_off_c, 0, 80, 59
1, 441657, Note_on_c, 0, 71, 76
1, 441705, Note_off_c, 0, 71, 66
1, 441708, Note_on_c, 0, 75, 63
1, 441733, Note_off_c, 0, 75, 66
1, 441765, Note_on_c, 0, 80, 76
1, 441832, Note_off_c, 0, 80, 61
1, 441848, Note_on_c, 0, 87, 83
1, 441948, Control_c, 0, 64, 120
1, 441963, Control_c, 0, 64, 68
1, 441977, Note_off_c, 0, 87, 55
1, 441978, Control_c, 0, 64, 0
1, 441991, Note_on_c, 0, 27, 86
1, 441991, Note_on_c, 0, 80, 75
1, 441991, Note_on_c, 0, 88, 94
1, 441992, Note_on_c, 0, 39, 96
1, 441999, Note_on_c, 0, 76, 81
1, 442021, Note_off_c, 0, 39, 64
1, 442022, Control_c, 0, 64, 44
1, 442024, Note_off_c, 0, 27, 67
1, 442037, Control_c, 0, 64, 62
1, 442052, Control_c, 0, 64, 81
1, 442067, Control_c, 0, 64, 127
1, 442086, Note_off_c, 0, 76, 55
1, 442087, Note_off_c, 0, 88, 65
1, 442118, Note_off_c, 0, 80, 62
1, 442213, Note_on_c, 0, 56, 69
1, 442250, Note_off_c, 0, 56, 60
1, 442281, Note_on_c, 0, 47, 75
1, 442327, Note_off_c, 0, 47, 61
1, 442342, Note_on_c, 0, 50, 67
1, 442379, Note_off_c, 0, 50, 62
1, 442413, Note_on_c, 0, 56, 67
1, 442460, Note_off_c, 0, 56, 61
1, 442472, Note_on_c, 0, 64, 67
1, 442514, Note_off_c, 0, 64, 66
1, 442550, Note_on_c, 0, 57, 68
1, 442589, Note_off_c, 0, 57, 63
1, 442623, Note_on_c, 0, 68, 72
1, 442656, Poly_aftertouch_c, 0, 58, 0
1, 442681, Note_off_c, 0, 68, 59
1, 442738, Note_on_c, 0, 59, 55
1, 442759, Note_off_c, 0, 59, 61
1, 442764, Note_on_c, 0, 62, 52
1, 442799, Note_off_c, 0, 62, 64
1, 442806, Note_on_c, 0, 68, 79
1, 442866, Note_off_c, 0, 68, 66
1, 442877, Note_on_c, 0, 76, 78
1, 442916, Note_off_c, 0, 76, 68
1, 442982, Note_on_c, 0, 71, 61
1, 443049, Note_off_c, 0, 71, 35
1, 443050, Note_on_c, 0, 80, 68
1, 443086, Note_off_c, 0, 80, 57
1, 443116, Note_on_c, 0, 71, 62
1, 443154, Note_on_c, 0, 74, 71
1, 443169, Note_off_c, 0, 71, 65
1, 443179, Note_off_c, 0, 74, 69
1, 443220, Note_on_c, 0, 80, 70
1, 443307, Note_on_c, 0, 88, 86
1, 443339, Note_off_c, 0, 80, 59
1, 443421, Note_off_c, 0, 88, 61
1, 443446, Control_c, 0, 64, 71
1, 443461, Control_c, 0, 64, 40
1, 443467, Note_on_c, 0, 27, 83
1, 443468, Note_on_c, 0, 39, 83
1, 443475, Note_on_c, 0, 80, 85
1, 443476, Control_c, 0, 64, 0
1, 443477, Note_on_c, 0, 88, 87
1, 443483, Note_on_c, 0, 76, 88
1, 443497, Note_off_c, 0, 27, 59
1, 443499, Note_off_c, 0, 39, 67
1, 443505, Control_c, 0, 64, 49
1, 443520, Control_c, 0, 64, 64
1, 443535, Control_c, 0, 64, 84
1, 443549, Control_c, 0, 64, 127
1, 443616, Note_off_c, 0, 76, 59
1, 443619, Note_off_c, 0, 88, 65
1, 443647, Note_off_c, 0, 80, 62
1, 443677, Note_on_c, 0, 52, 50
1, 443711, Note_off_c, 0, 52, 58
1, 443727, Note_on_c, 0, 47, 64
1, 443784, Note_off_c, 0, 47, 63
1, 443802, Note_on_c, 0, 49, 62
1, 443843, Note_off_c, 0, 49, 64
1, 443861, Note_on_c, 0, 54, 41
1, 443889, Note_off_c, 0, 54, 52
1, 443930, Note_on_c, 0, 61, 74
1, 443954, Note_off_c, 0, 61, 67
1, 444007, Note_on_c, 0, 59, 72
1, 444070, Note_off_c, 0, 59, 60
1, 444087, Note_on_c, 0, 64, 56
1, 444129, Note_off_c, 0, 64, 56
1, 444151, Note_on_c, 0, 59, 60
1, 444195, Note_off_c, 0, 59, 61
1, 444217, Note_on_c, 0, 61, 65
1, 444275, Note_off_c, 0, 61, 54
1, 444276, Note_on_c, 0, 68, 71
1, 444301, Note_off_c, 0, 68, 69
1, 444352, Note_on_c, 0, 73, 73
1, 444406, Note_off_c, 0, 73, 60
1, 444457, Poly_aftertouch_c, 0, 87, 127
1, 444498, Poly_aftertouch_c, 0, 87, 0
1, 444540, Note_on_c, 0, 87, 76
1, 444554, Note_on_c, 0, 46, 68
1, 444557, Note_on_c, 0, 75, 72
1, 444557, Note_on_c, 0, 79, 65
1, 444558, Control_c, 0, 64, 75
1, 444573, Control_c, 0, 64, 53
1, 444587, Control_c, 0, 64, 0
1, 444632, Control_c, 0, 64, 45
1, 444647, Control_c, 0, 64, 60
1, 444661, Control_c, 0, 64, 72
1, 444671, Note_off_c, 0, 87, 63
1, 444676, Control_c, 0, 64, 97
1, 444681, Note_on_c, 0, 51, 61
1, 444687, Note_off_c, 0, 79, 62
1, 444691, Control_c, 0, 64, 127
1, 444708, Note_off_c, 0, 75, 65
1, 444753, Note_off_c, 0, 46, 59
1, 444785, Note_on_c, 0, 61, 63
1, 444820, Note_off_c, 0, 61, 61
1, 444854, Note_off_c, 0, 51, 61
1, 444879, Note_on_c, 0, 63, 48
1, 444913, Control_c, 0, 67, 19
1, 444928, Control_c, 0, 67, 22
1, 444943, Control_c, 0, 67, 25
1, 444958, Control_c, 0, 67, 27
1, 444973, Control_c, 0, 67, 30
1, 444983, Note_on_c, 0, 67, 51
1, 444988, Control_c, 0, 67, 33
1, 444992, Note_off_c, 0, 63, 54
1, 445003, Control_c, 0, 67, 37
1, 445018, Control_c, 0, 67, 43
1, 445033, Control_c, 0, 67, 50
1, 445048, Control_c, 0, 67, 58
1, 445062, Control_c, 0, 67, 67
1, 445084, Control_c, 0, 67, 74
1, 445099, Control_c, 0, 67, 81
1, 445107, Note_on_c, 0, 75, 50
1, 445114, Control_c, 0, 67, 86
1, 445129, Control_c, 0, 67, 91
1, 445143, Control_c, 0, 67, 96
1, 445148, Note_off_c, 0, 67, 38
1, 445158, Control_c, 0, 67, 103
1, 445165, Note_off_c, 0, 75, 61
1, 445173, Control_c, 0, 67, 110
1, 445188, Control_c, 0, 67, 118
1, 445203, Control_c, 0, 67, 125
1, 445217, Control_c, 0, 67, 127
1, 445474, Note_on_c, 0, 71, 63
1, 445489, Note_on_c, 0, 68, 49
1, 445498, Note_on_c, 0, 51, 42
1, 445499, Control_c, 0, 64, 101
1, 445505, Note_on_c, 0, 59, 32
1, 445514, Control_c, 0, 64, 77
1, 445528, Control_c, 0, 64, 63
1, 445543, Control_c, 0, 64, 46
1, 445558, Control_c, 0, 64, 0
1, 445647, Control_c, 0, 64, 33
1, 445650, Note_on_c, 0, 56, 43
1, 445662, Control_c, 0, 64, 52
1, 445672, Note_off_c, 0, 51, 45
1, 445677, Control_c, 0, 64, 64
1, 445691, Control_c, 0, 64, 73
1, 445706, Control_c, 0, 64, 82
1, 445721, Control_c, 0, 64, 92
1, 445730, Note_off_c, 0, 56, 56
1, 445736, Control_c, 0, 64, 111
1, 445740, Note_on_c, 0, 44, 49
1, 445751, Control_c, 0, 64, 127
1, 445779, Note_off_c, 0, 44, 55
1, 445815, Note_on_c, 0, 51, 48
1, 445853, Note_off_c, 0, 59, 50
1, 445879, Note_off_c, 0, 51, 60
1, 445932, Note_on_c, 0, 56, 49
1, 445963, Note_off_c, 0, 56, 62
1, 445990, Note_on_c, 0, 63, 59
1, 445992, Note_off_c, 0, 68, 29
1, 446031, Note_off_c, 0, 63, 58
1, 446074, Note_off_c, 0, 71, 62
1, 446082, Note_on_c, 0, 70, 69
1, 446087, Note_on_c, 0, 51, 56
1, 446094, Note_on_c, 0, 59, 41
1, 446136, Note_off_c, 0, 51, 59
1, 446145, Control_c, 0, 64, 104
1, 446159, Control_c, 0, 64, 91
1, 446189, Control_c, 0, 64, 103
1, 446204, Control_c, 0, 64, 127
1, 446210, Note_on_c, 0, 56, 28
1, 446216, Note_on_c, 0, 44, 58
1, 446252, Note_off_c, 0, 56, 51
1, 446252, Note_off_c, 0, 44, 64
1, 446292, Note_on_c, 0, 51, 57
1, 446306, Note_on_c, 0, 68, 77
1, 446333, Note_off_c, 0, 51, 63
1, 446357, Note_on_c, 0, 56, 59
1, 446392, Note_off_c, 0, 56, 62
1, 446409, Note_on_c, 0, 63, 62
1, 446431, Note_off_c, 0, 70, 50
1, 446438, Note_off_c, 0, 63, 66
1, 446494, Note_on_c, 0, 51, 63
1, 446494, Note_on_c, 0, 67, 79
1, 446553, Note_off_c, 0, 51, 60
1, 446590, Note_off_c, 0, 68, 44
1, 446597, Note_on_c, 0, 56, 60
1, 446602, Note_on_c, 0, 44, 70
1, 446625, Note_off_c, 0, 56, 63
1, 446636, Note_off_c, 0, 44, 65
1, 446649, Note_off_c, 0, 67, 62
1, 446688, Note_on_c, 0, 51, 58
1, 446695, Note_on_c, 0, 68, 79
1, 446723, Note_off_c, 0, 51, 62
1, 446747, Note_on_c, 0, 56, 61
1, 446790, Note_off_c, 0, 56, 60
1, 446791, Note_on_c, 0, 63, 63
1, 446819, Note_off_c, 0, 63, 67
1, 446826, Note_off_c, 0, 59, 62
1, 446896, Note_off_c, 0, 68, 55
1, 446938, Control_c, 0, 64, 88
1, 446940, Note_on_c, 0, 71, 73
1, 446946, Note_on_c, 0, 50, 57
1, 446953, Control_c, 0, 64, 62
1, 446955, Note_on_c, 0, 68, 42
1, 446968, Control_c, 0, 64, 31
1, 446982, Control_c, 0, 64, 0
1, 446997, Control_c, 0, 64, 39
1, 447011, Note_off_c, 0, 50, 62
1, 447012, Control_c, 0, 64, 57
1, 447027, Note_on_c, 0, 59, 42
1, 447027, Control_c, 0, 64, 67
1, 447042, Control_c, 0, 64, 80
1, 447057, Control_c, 0, 64, 127
1, 447060, Note_off_c, 0, 59, 49
1, 447100, Note_on_c, 0, 44, 61
1, 447155, Note_off_c, 0, 44, 58
1, 447178, Note_on_c, 0, 50, 57
1, 447267, Note_on_c, 0, 59, 49
1, 447283, Note_off_c, 0, 50, 49
1, 447304, Note_on_c, 0, 76, 58
1, 447307, Note_off_c, 0, 59, 58
1, 447362, Note_on_c, 0, 64, 60
1, 447362, Note_off_c, 0, 68, 36
1, 447384, Note_off_c, 0, 76, 59
1, 447388, Note_off_c, 0, 71, 37
1, 447393, Note_off_c, 0, 64, 65
1, 447428, Note_on_c, 0, 50, 57
1, 447462, Note_on_c, 0, 76, 74
1, 447468, Note_on_c, 0, 70, 64
1, 447519, Note_on_c, 0, 59, 50
1, 447560, Note_off_c, 0, 50, 37
1, 447587, Note_off_c, 0, 59, 47
1, 447616, Note_on_c, 0, 44, 54
1, 447658, Note_off_c, 0, 44, 61
1, 447668, Note_on_c, 0, 68, 77
1, 447675, Note_on_c, 0, 50, 58
1, 447755, Note_off_c, 0, 50, 54
1, 447766, Note_on_c, 0, 59, 54
1, 447805, Note_off_c, 0, 68, 59
1, 447807, Note_off_c, 0, 59, 60
1, 447812, Note_on_c, 0, 64, 65
1, 447838, Note_off_c, 0, 70, 59
1, 447855, Note_off_c, 0, 64, 56
1, 447863, Control_c, 0, 67, 121
1, 447878, Control_c, 0, 67, 115
1, 447882, Note_on_c, 0, 67, 86
1, 447888, Note_on_c, 0, 50, 56
1, 447893, Control_c, 0, 67, 111
1, 447908, Control_c, 0, 67, 107
1, 447922, Control_c, 0, 67, 104
1, 447952, Control_c, 0, 67, 102
1, 447957, Note_off_c, 0, 50, 59
1, 447969, Note_on_c, 0, 59, 42
1, 448010, Note_off_c, 0, 59, 50
1, 448040, Note_on_c, 0, 44, 64
1, 448061, Note_off_c, 0, 76, 63
1, 448094, Note_on_c, 0, 50, 61
1, 448095, Note_off_c, 0, 44, 57
1, 448100, Note_on_c, 0, 68, 90
1, 448136, Note_off_c, 0, 67, 63
1, 448193, Note_on_c, 0, 59, 53
1, 448222, Note_off_c, 0, 59, 63
1, 448230, Note_off_c, 0, 50, 62
1, 448230, Note_off_c, 0, 68, 61
1, 448251, Note_on_c, 0, 64, 67
1, 448257, Control_c, 0, 67, 100
1, 448271, Control_c, 0, 67, 98
1, 448286, Control_c, 0, 67, 93
1, 448292, Note_off_c, 0, 64, 63
1, 448301, Control_c, 0, 67, 87
1, 448316, Control_c, 0, 67, 81
1, 448331, Control_c, 0, 67, 73
1, 448345, Control_c, 0, 67, 65
1, 448360, Control_c, 0, 67, 54
1, 448375, Control_c, 0, 67, 40
1, 448390, Control_c, 0, 67, 25
1, 448404, Control_c, 0, 67, 0
1, 448434, Control_c, 0, 64, 86
1, 448449, Control_c, 0, 64, 58
1, 448450, Note_on_c, 0, 44, 89
1, 448452, Note_on_c, 0, 32, 76
1, 448458, Note_on_c, 0, 71, 81
1, 448459, Note_on_c, 0, 68, 76
1, 448461, Note_on_c, 0, 59, 70
1, 448464, Control_c, 0, 64, 0
1, 448476, Note_off_c, 0, 32, 66
1, 448477, Note_off_c, 0, 44, 69
1, 448508, Control_c, 0, 64, 48
1, 448523, Control_c, 0, 64, 63
1, 448538, Control_c, 0, 64, 74
1, 448553, Control_c, 0, 64, 97
1, 448568, Control_c, 0, 64, 127
1, 448674, Note_off_c, 0, 59, 56
1, 448733, Note_on_c, 0, 51, 23
1, 448776, Note_off_c, 0, 51, 31
1, 448795, Note_on_c, 0, 59, 63
1, 448842, Note_off_c, 0, 59, 60
1, 448881, Note_on_c, 0, 63, 68
1, 448916, Note_off_c, 0, 68, 37
1, 448935, Note_off_c, 0, 63, 60
1, 448955, Note_on_c, 0, 64, 62
1, 449015, Note_on_c, 0, 70, 78
1, 449018, Note_off_c, 0, 64, 61
1, 449020, Control_c, 0, 64, 107
1, 449021, Note_on_c, 0, 63, 65
1, 449027, Note_on_c, 0, 59, 64
1, 449030, Note_off_c, 0, 71, 38
1, 449035, Control_c, 0, 64, 83
1, 449050, Control_c, 0, 64, 75
1, 449080, Note_off_c, 0, 63, 61
1, 449080, Control_c, 0, 64, 78
1, 449095, Control_c, 0, 64, 80
1, 449097, Note_on_c, 0, 64, 48
1, 449109, Control_c, 0, 64, 85
1, 449124, Control_c, 0, 64, 89
1, 449139, Control_c, 0, 64, 90
1, 449154, Control_c, 0, 64, 91
1, 449165, Note_off_c, 0, 64, 60
1, 449166, Note_on_c, 0, 63, 61
1, 449207, Note_off_c, 0, 63, 55
1, 449239, Note_on_c, 0, 64, 45
1, 449255, Note_on_c, 0, 68, 78
1, 449258, Control_c, 0, 64, 90
1, 449295, Note_off_c, 0, 64, 50
1, 449295, Note_off_c, 0, 70, 57
1, 449307, Note_on_c, 0, 63, 63
1, 449347, Note_off_c, 0, 63, 59
1, 449376, Control_c, 0, 64, 92
1, 449377, Note_on_c, 0, 64, 52
1, 449391, Control_c, 0, 64, 102
1, 449406, Control_c, 0, 64, 127
1, 449439, Note_on_c, 0, 63, 63
1, 449445, Note_off_c, 0, 64, 58
1, 449465, Control_c, 0, 64, 100
1, 449466, Note_on_c, 0, 67, 66
1, 449480, Control_c, 0, 64, 76
1, 449487, Note_off_c, 0, 63, 57
1, 449495, Control_c, 0, 64, 67
1, 449510, Control_c, 0, 64, 66
1, 449521, Note_on_c, 0, 64, 41
1, 449525, Control_c, 0, 64, 69
1, 449538, Note_off_c, 0, 68, 33
1, 449540, Control_c, 0, 64, 72
1, 449555, Control_c, 0, 64, 77
1, 449576, Control_c, 0, 64, 83
1, 449576, Control_c, 0, 67, 20
1, 449587, Note_off_c, 0, 64, 47
1, 449591, Control_c, 0, 64, 87
1, 449591, Control_c, 0, 67, 22
1, 449594, Note_on_c, 0, 63, 59
1, 449606, Control_c, 0, 64, 89
1, 449606, Control_c, 0, 67, 25
1, 449621, Control_c, 0, 67, 28
1, 449635, Control_c, 0, 67, 31
1, 449641, Note_off_c, 0, 63, 56
1, 449650, Control_c, 0, 67, 35
1, 449665, Control_c, 0, 67, 40
1, 449676, Note_on_c, 0, 64, 37
1, 449680, Control_c, 0, 67, 46
1, 449695, Control_c, 0, 67, 52
1, 449701, Note_on_c, 0, 68, 75
1, 449703, Note_off_c, 0, 67, 59
1, 449710, Note_off_c, 0, 59, 59
1, 449710, Control_c, 0, 67, 57
1, 449716, Note_off_c, 0, 64, 47
1, 449725, Control_c, 0, 67, 62
1, 449739, Note_on_c, 0, 63, 49
1, 449739, Control_c, 0, 67, 66
1, 449755, Control_c, 0, 67, 69
1, 449765, Note_off_c, 0, 63, 55
1, 449770, Control_c, 0, 67, 71
1, 449785, Control_c, 0, 67, 73
1, 449799, Control_c, 0, 67, 74
1, 449814, Note_on_c, 0, 64, 45
1, 449814, Control_c, 0, 67, 74
1, 449847, Note_off_c, 0, 64, 46
1, 449859, Control_c, 0, 64, 90
1, 449874, Control_c, 0, 64, 97
1, 449889, Control_c, 0, 64, 111
1, 449898, Note_on_c, 0, 63, 33
1, 449903, Control_c, 0, 64, 127
1, 449918, Control_c, 0, 64, 125
1, 449933, Control_c, 0, 64, 96
1, 449935, Note_off_c, 0, 63, 52
1, 449948, Control_c, 0, 64, 79
1, 449955, Note_on_c, 0, 71, 74
1, 449962, Control_c, 0, 64, 68
1, 449966, Note_on_c, 0, 64, 44
1, 449975, Note_off_c, 0, 68, 60
1, 449977, Control_c, 0, 64, 63
1, 449992, Control_c, 0, 64, 65
1, 449992, Control_c, 0, 67, 75
1, 450006, Control_c, 0, 64, 68
1, 450006, Control_c, 0, 67, 75
1, 450021, Control_c, 0, 64, 73
1, 450022, Note_off_c, 0, 64, 40
1, 450032, Note_on_c, 0, 63, 52
1, 450036, Control_c, 0, 64, 78
1, 450036, Control_c, 0, 67, 76
1, 450050, Control_c, 0, 64, 85
1, 450050, Control_c, 0, 67, 77
1, 450065, Control_c, 0, 64, 90
1, 450065, Control_c, 0, 67, 81
1, 450080, Control_c, 0, 67, 84
1, 450083, Note_off_c, 0, 63, 56
1, 450095, Control_c, 0, 67, 86
1, 450106, Note_on_c, 0, 64, 44
1, 450110, Control_c, 0, 67, 87
1, 450124, Control_c, 0, 67, 89
1, 450139, Control_c, 0, 67, 91
1, 450154, Control_c, 0, 67, 93
1, 450161, Note_off_c, 0, 64, 47
1, 450169, Control_c, 0, 67, 94
1, 450184, Control_c, 0, 67, 94
1, 450199, Control_c, 0, 67, 95
1, 450203, Note_on_c, 0, 63, 33
1, 450213, Control_c, 0, 64, 90
1, 450237, Note_off_c, 0, 63, 48
1, 450249, Note_on_c, 0, 64, 48
1, 450258, Control_c, 0, 64, 91
1, 450258, Control_c, 0, 67, 95
1, 450273, Control_c, 0, 64, 91
1, 450288, Control_c, 0, 64, 92
1, 450303, Control_c, 0, 64, 94
1, 450303, Control_c, 0, 67, 96
1, 450303, Note_off_c, 0, 64, 48
1, 450312, Note_on_c, 0, 75, 65
1, 450324, Control_c, 0, 64, 97
1, 450335, Note_on_c, 0, 63, 50
1, 450339, Control_c, 0, 64, 101
1, 450354, Control_c, 0, 64, 110
1, 450368, Control_c, 0, 64, 118
1, 450368, Control_c, 0, 67, 98
1, 450371, Note_off_c, 0, 63, 49
1, 450382, Note_off_c, 0, 75, 62
1, 450398, Control_c, 0, 64, 107
1, 450403, Note_on_c, 0, 64, 45
1, 450413, Control_c, 0, 64, 94
1, 450413, Control_c, 0, 67, 100
1, 450428, Control_c, 0, 64, 85
1, 450443, Control_c, 0, 64, 82
1, 450453, Note_off_c, 0, 64, 45
1, 450468, Note_on_c, 0, 63, 56
1, 450470, Note_on_c, 0, 75, 67
1, 450473, Control_c, 0, 64, 82
1, 450481, Note_on_c, 0, 70, 57
1, 450482, Note_off_c, 0, 71, 57
1, 450488, Control_c, 0, 64, 84
1, 450503, Control_c, 0, 64, 88
1, 450515, Note_off_c, 0, 63, 54
1, 450517, Control_c, 0, 64, 94
1, 450532, Control_c, 0, 64, 98
1, 450553, Note_on_c, 0, 64, 45
1, 450590, Note_off_c, 0, 64, 47
1, 450618, Note_on_c, 0, 63, 50
1, 450656, Note_off_c, 0, 63, 47
1, 450691, Note_on_c, 0, 68, 61
1, 450705, Note_on_c, 0, 64, 40
1, 450735, Note_off_c, 0, 64, 53
1, 450755, Note_on_c, 0, 63, 55
1, 450755, Control_c, 0, 64, 100
1, 450783, Note_off_c, 0, 63, 54
1, 450842, Note_on_c, 0, 64, 28
1, 450857, Note_off_c, 0, 68, 56
1, 450872, Note_off_c, 0, 64, 53
1, 450873, Control_c, 0, 64, 102
1, 450892, Note_on_c, 0, 63, 47
1, 450896, Note_on_c, 0, 67, 55
1, 450918, Control_c, 0, 64, 105
1, 450923, Note_off_c, 0, 63, 54
1, 450933, Control_c, 0, 64, 107
1, 450947, Control_c, 0, 64, 111
1, 450956, Note_on_c, 0, 64, 30
1, 450962, Control_c, 0, 64, 119
1, 450977, Control_c, 0, 64, 127
1, 450994, Note_off_c, 0, 64, 48
1, 451024, Note_on_c, 0, 63, 45
1, 451024, Note_off_c, 0, 67, 44
1, 451074, Note_off_c, 0, 63, 52
1, 451107, Note_off_c, 0, 70, 49
1, 451137, Note_on_c, 0, 68, 50
1, 451167, Note_off_c, 0, 75, 37
1, 451182, Poly_aftertouch_c, 0, 64, 0
1, 451227, Note_off_c, 0, 68, 62
1, 451232, Note_on_c, 0, 63, 45
1, 451236, Control_c, 0, 67, 98
1, 451261, Note_off_c, 0, 63, 56
1, 451281, Control_c, 0, 67, 96
1, 451296, Control_c, 0, 67, 95
1, 451310, Control_c, 0, 67, 95
1, 451325, Control_c, 0, 67, 94
1, 451341, Control_c, 0, 67, 94
1, 451356, Note_on_c, 0, 27, 61
1, 451372, Note_on_c, 0, 39, 56
1, 451396, Note_off_c, 0, 27, 63
1, 451406, Note_off_c, 0, 39, 63
1, 451519, Control_c, 0, 64, 83
1, 451531, Note_on_c, 0, 83, 69
1, 451532, Note_on_c, 0, 32, 60
1, 451534, Note_on_c, 0, 44, 52
1, 451534, Control_c, 0, 64, 60
1, 451537, Note_on_c, 0, 80, 61
1, 451549, Control_c, 0, 64, 0
1, 451549, Control_c, 0, 67, 93
1, 451561, Note_on_c, 0, 71, 43
1, 451579, Control_c, 0, 64, 35
1, 451580, Note_off_c, 0, 32, 62
1, 451594, Control_c, 0, 64, 53
1, 451598, Note_off_c, 0, 44, 64
1, 451609, Control_c, 0, 64, 63
1, 451623, Control_c, 0, 64, 73
1, 451638, Control_c, 0, 64, 96
1, 451638, Control_c, 0, 67, 93
1, 451653, Control_c, 0, 64, 127
1, 451653, Control_c, 0, 67, 92
1, 451683, Control_c, 0, 67, 92
1, 451697, Control_c, 0, 67, 91
1, 451712, Control_c, 0, 67, 91
1, 451727, Control_c, 0, 67, 90
1, 451829, Note_off_c, 0, 71, 41
1, 451839, Note_on_c, 0, 51, 57
1, 451926, Note_on_c, 0, 59, 43
1, 451933, Note_off_c, 0, 51, 53
1, 451972, Note_off_c, 0, 59, 61
1, 451975, Note_on_c, 0, 63, 56
1, 452011, Note_off_c, 0, 63, 64
1, 452025, Note_on_c, 0, 71, 51
1, 452047, Note_off_c, 0, 71, 61
1, 452057, Note_off_c, 0, 80, 55
1, 452059, Note_off_c, 0, 83, 58
1, 452120, Note_on_c, 0, 82, 68
1, 452126, Note_on_c, 0, 71, 58
1, 452130, Note_on_c, 0, 75, 61
1, 452180, Control_c, 0, 67, 91
1, 452183, Note_off_c, 0, 75, 54
1, 452215, Note_on_c, 0, 76, 55
1, 452273, Note_off_c, 0, 76, 59
1, 452289, Note_on_c, 0, 75, 51
1, 452327, Note_off_c, 0, 75, 48
1, 452327, Control_c, 0, 67, 90
1, 452357, Control_c, 0, 67, 90
1, 452361, Note_on_c, 0, 80, 74
1, 452372, Control_c, 0, 67, 89
1, 452381, Note_on_c, 0, 76, 43
1, 452390, Note_off_c, 0, 82, 58
1, 452410, Note_off_c, 0, 76, 55
1, 452425, Note_on_c, 0, 75, 55
1, 452464, Note_off_c, 0, 75, 54
1, 452491, Control_c, 0, 67, 89
1, 452503, Note_on_c, 0, 76, 54
1, 452552, Note_off_c, 0, 76, 54
1, 452573, Note_on_c, 0, 75, 51
1, 452591, Note_on_c, 0, 79, 71
1, 452620, Note_off_c, 0, 75, 53
1, 452661, Control_c, 0, 67, 89
1, 452668, Note_off_c, 0, 80, 25
1, 452676, Note_on_c, 0, 76, 28
1, 452713, Note_off_c, 0, 76, 41
1, 452721, Note_on_c, 0, 75, 49
1, 452735, Control_c, 0, 67, 90
1, 452750, Control_c, 0, 67, 90
1, 452757, Note_off_c, 0, 75, 49
1, 452803, Note_on_c, 0, 76, 50
1, 452824, Note_on_c, 0, 80, 68
1, 452831, Note_off_c, 0, 79, 61
1, 452849, Note_on_c, 0, 75, 56
1, 452850, Note_off_c, 0, 76, 42
1, 452893, Note_off_c, 0, 75, 57
1, 452913, Control_c, 0, 67, 90
1, 452932, Note_off_c, 0, 71, 62
1, 452953, Note_on_c, 0, 76, 51
1, 452977, Note_off_c, 0, 76, 55
1, 452987, Control_c, 0, 67, 89
1, 453061, Control_c, 0, 64, 81
1, 453066, Note_on_c, 0, 63, 56
1, 453076, Control_c, 0, 64, 71
1, 453084, Note_on_c, 0, 83, 70
1, 453091, Control_c, 0, 64, 72
1, 453103, Note_off_c, 0, 63, 65
1, 453106, Control_c, 0, 64, 80
1, 453121, Control_c, 0, 64, 92
1, 453135, Control_c, 0, 64, 127
1, 453135, Control_c, 0, 67, 90
1, 453150, Control_c, 0, 67, 91
1, 453152, Note_off_c, 0, 80, 34
1, 453165, Control_c, 0, 67, 91
1, 453180, Control_c, 0, 67, 92
1, 453183, Note_on_c, 0, 64, 45
1, 453194, Control_c, 0, 67, 92
1, 453218, Note_off_c, 0, 64, 47
1, 453224, Control_c, 0, 67, 93
1, 453239, Control_c, 0, 67, 94
1, 453254, Control_c, 0, 67, 96
1, 453269, Note_on_c, 0, 63, 39
1, 453284, Control_c, 0, 67, 99
1, 453296, Note_off_c, 0, 63, 57
1, 453321, Control_c, 0, 67, 101
1, 453343, Note_on_c, 0, 64, 45
1, 453365, Control_c, 0, 67, 103
1, 453380, Control_c, 0, 67, 106
1, 453394, Control_c, 0, 67, 116
1, 453397, Note_off_c, 0, 64, 40
1, 453407, Note_on_c, 0, 63, 47
1, 453409, Control_c, 0, 67, 121
1, 453424, Control_c, 0, 67, 123
1, 453448, Note_on_c, 0, 87, 71
1, 453449, Note_off_c, 0, 63, 58
1, 453454, Control_c, 0, 67, 125
1, 453501, Note_on_c, 0, 64, 31
1, 453505, Note_off_c, 0, 87, 63
1, 453535, Note_off_c, 0, 64, 47
1, 453568, Note_on_c, 0, 63, 44
1, 453595, Note_on_c, 0, 87, 69
1, 453597, Note_on_c, 0, 82, 60
1, 453605, Note_off_c, 0, 63, 51
1, 453631, Note_off_c, 0, 83, 47
1, 453647, Note_on_c, 0, 64, 43
1, 453697, Note_off_c, 0, 64, 43
1, 453713, Note_on_c, 0, 63, 49
1, 453766, Note_off_c, 0, 63, 56
1, 453800, Note_on_c, 0, 64, 35
1, 453823, Note_on_c, 0, 80, 58
1, 453846, Note_off_c, 0, 64, 45
1, 453867, Note_on_c, 0, 63, 44
1, 453910, Note_off_c, 0, 63, 49
1, 453944, Note_on_c, 0, 64, 24
1, 453987, Note_off_c, 0, 64, 46
1, 454008, Note_on_c, 0, 63, 45
1, 454044, Note_off_c, 0, 63, 50
1, 454074, Note_on_c, 0, 79, 48
1, 454081, Note_off_c, 0, 80, 40
1, 454157, Poly_aftertouch_c, 0, 64, 0
1, 454164, Note_on_c, 0, 63, 34
1, 454197, Note_off_c, 0, 63, 51
1, 454267, Note_on_c, 0, 80, 59
1, 454269, Note_off_c, 0, 79, 42
1, 454285, Poly_aftertouch_c, 0, 64, 0
1, 454308, Poly_aftertouch_c, 0, 64, 0
1, 454322, Note_off_c, 0, 87, 62
1, 454339, Note_off_c, 0, 82, 59
1, 454342, Note_off_c, 0, 80, 60
1, 454440, Control_c, 0, 67, 123
1, 454473, Note_on_c, 0, 27, 58
1, 454485, Control_c, 0, 67, 121
1, 454509, Note_off_c, 0, 27, 54
1, 454539, Poly_aftertouch_c, 0, 39, 0
1, 454566, Note_on_c, 0, 44, 63
1, 454571, Poly_aftertouch_c, 0, 39, 0
1, 454576, Note_on_c, 0, 32, 52
1, 454589, Control_c, 0, 64, 86
1, 454589, Note_off_c, 0, 44, 62
1, 454604, Control_c, 0, 64, 65
1, 454606, Note_off_c, 0, 32, 53
1, 454619, Control_c, 0, 64, 51
1, 454633, Control_c, 0, 64, 44
1, 454648, Control_c, 0, 64, 42
1, 454663, Control_c, 0, 64, 36
1, 454678, Control_c, 0, 64, 33
1, 454708, Control_c, 0, 64, 34
1, 454722, Control_c, 0, 64, 35
1, 454737, Control_c, 0, 64, 37
1, 454752, Control_c, 0, 64, 38
1, 454766, Control_c, 0, 64, 39
1, 454769, Note_on_c, 0, 51, 57
1, 454796, Control_c, 0, 67, 119
1, 454830, Note_off_c, 0, 51, 53
1, 454841, Note_on_c, 0, 27, 58
1, 454852, Note_on_c, 0, 56, 58
1, 454858, Note_on_c, 0, 39, 41
1, 454863, Control_c, 0, 64, 39
1, 454917, Note_on_c, 0, 58, 61
1, 454920, Note_off_c, 0, 56, 61
1, 454922, Control_c, 0, 64, 40
1, 454952, Control_c, 0, 64, 40
1, 454977, Note_off_c, 0, 58, 64
1, 454983, Note_on_c, 0, 64, 61
1, 455037, Note_off_c, 0, 64, 61
1, 455040, Control_c, 0, 64, 41
1, 455058, Note_on_c, 0, 59, 50
1, 455114, Note_off_c, 0, 59, 62
1, 455114, Control_c, 0, 64, 41
1, 455146, Note_on_c, 0, 63, 42
1, 455147, Note_off_c, 0, 27, 61
1, 455150, Note_off_c, 0, 39, 59
1, 455174, Control_c, 0, 64, 42
1, 455175, Note_off_c, 0, 63, 55
1, 455192, Note_on_c, 0, 51, 43
1, 455203, Control_c, 0, 64, 42
1, 455218, Control_c, 0, 64, 43
1, 455233, Control_c, 0, 64, 44
1, 455238, Note_off_c, 0, 51, 50
1, 455248, Control_c, 0, 64, 44
1, 455251, Note_on_c, 0, 56, 60
1, 455263, Control_c, 0, 64, 45
1, 455263, Control_c, 0, 67, 117
1, 455269, Note_on_c, 0, 27, 55
1, 455270, Note_on_c, 0, 39, 57
1, 455292, Control_c, 0, 64, 46
1, 455301, Note_off_c, 0, 27, 60
1, 455302, Note_off_c, 0, 39, 64
1, 455322, Note_off_c, 0, 56, 61
1, 455322, Control_c, 0, 64, 45
1, 455344, Note_on_c, 0, 58, 53
1, 455353, Control_c, 0, 64, 45
1, 455379, Note_on_c, 0, 61, 57
1, 455382, Control_c, 0, 64, 44
1, 455399, Note_off_c, 0, 58, 50
1, 455449, Note_off_c, 0, 61, 58
1, 455459, Note_on_c, 0, 56, 61
1, 455469, Note_on_c, 0, 32, 57
1, 455469, Note_on_c, 0, 44, 55
1, 455497, Note_off_c, 0, 44, 60
1, 455504, Note_off_c, 0, 32, 63
1, 455521, Note_off_c, 0, 56, 61
1, 455539, Note_on_c, 0, 59, 44
1, 455545, Control_c, 0, 64, 45
1, 455582, Control_c, 0, 64, 45
1, 455594, Note_off_c, 0, 59, 63
1, 455626, Note_on_c, 0, 51, 55
1, 455642, Control_c, 0, 64, 46
1, 455657, Note_off_c, 0, 51, 62
1, 455689, Note_on_c, 0, 39, 61
1, 455692, Note_on_c, 0, 27, 56
1, 455710, Note_on_c, 0, 56, 63
1, 455730, Control_c, 0, 64, 45
1, 455770, Note_on_c, 0, 58, 56
1, 455775, Control_c, 0, 64, 45
1, 455786, Note_off_c, 0, 56, 60
1, 455816, Note_off_c, 0, 58, 63
1, 455827, Note_on_c, 0, 64, 61
1, 455863, Control_c, 0, 64, 44
1, 455882, Note_off_c, 0, 64, 59
1, 455903, Note_on_c, 0, 59, 56
1, 455961, Note_off_c, 0, 59, 64
1, 455979, Note_on_c, 0, 63, 53
1, 455993, Note_off_c, 0, 27, 63
1, 455996, Control_c, 0, 64, 45
1, 455999, Note_off_c, 0, 39, 60
1, 456002, Note_off_c, 0, 63, 59
1, 456029, Note_on_c, 0, 51, 58
1, 456101, Note_off_c, 0, 51, 45
1, 456107, Note_on_c, 0, 39, 58
1, 456107, Note_on_c, 0, 27, 49
1, 456108, Note_on_c, 0, 56, 61
1, 456134, Note_off_c, 0, 39, 61
1, 456137, Note_off_c, 0, 27, 54
1, 456174, Note_off_c, 0, 56, 61
1, 456190, Note_on_c, 0, 58, 53
1, 456190, Control_c, 0, 64, 44
1, 456234, Note_on_c, 0, 61, 61
1, 456240, Note_off_c, 0, 58, 56
1, 456321, Note_on_c, 0, 32, 55
1, 456327, Note_off_c, 0, 61, 56
1, 456331, Note_on_c, 0, 44, 36
1, 456331, Note_on_c, 0, 56, 59
1, 456365, Note_off_c, 0, 32, 57
1, 456365, Note_off_c, 0, 44, 47
1, 456383, Note_off_c, 0, 56, 56
1, 456391, Note_on_c, 0, 59, 48
1, 456463, Note_off_c, 0, 59, 60
1, 456464, Note_on_c, 0, 51, 48
1, 456506, Note_off_c, 0, 51, 56
1, 456524, Control_c, 0, 64, 45
1, 456532, Note_on_c, 0, 56, 54
1, 456536, Note_on_c, 0, 27, 55
1, 456562, Note_on_c, 0, 39, 20
1, 456572, Note_off_c, 0, 27, 63
1, 456598, Control_c, 0, 64, 44
1, 456600, Note_off_c, 0, 56, 61
1, 456606, Note_off_c, 0, 39, 37
1, 456615, Note_on_c, 0, 58, 48
1, 456669, Note_off_c, 0, 58, 58
1, 456683, Note_on_c, 0, 61, 41
1, 456757, Note_off_c, 0, 61, 49
1, 456761, Note_on_c, 0, 56, 56
1, 456772, Note_on_c, 0, 32, 53
1, 456813, Note_off_c, 0, 32, 58
1, 456817, Note_off_c, 0, 56, 56
1, 456840, Note_on_c, 0, 59, 38
1, 456920, Note_on_c, 0, 51, 44
1, 456924, Control_c, 0, 64, 45
1, 456932, Note_off_c, 0, 59, 54
1, 456968, Note_off_c, 0, 51, 52
1, 456969, Control_c, 0, 67, 115
1, 456988, Note_on_c, 0, 56, 46
1, 457006, Note_on_c, 0, 27, 61
1, 457020, Note_on_c, 0, 39, 42
1, 457043, Control_c, 0, 67, 113
1, 457049, Note_off_c, 0, 27, 61
1, 457061, Note_off_c, 0, 39, 51
1, 457078, Note_off_c, 0, 56, 56
1, 457081, Control_c, 0, 67, 110
1, 457084, Note_on_c, 0, 58, 45
1, 457096, Control_c, 0, 64, 44
1, 457111, Control_c, 0, 67, 102
1, 457125, Control_c, 0, 67, 91
1, 457133, Note_off_c, 0, 58, 61
1, 457140, Control_c, 0, 67, 77
1, 457148, Note_on_c, 0, 61, 49
1, 457155, Control_c, 0, 67, 65
1, 457169, Control_c, 0, 67, 52
1, 457184, Control_c, 0, 64, 44
1, 457184, Control_c, 0, 67, 40
1, 457199, Control_c, 0, 67, 28
1, 457214, Control_c, 0, 67, 0
1, 457229, Control_c, 0, 64, 43
1, 457243, Control_c, 0, 64, 42
1, 457258, Control_c, 0, 64, 41
1, 457260, Note_off_c, 0, 61, 58
1, 457273, Control_c, 0, 64, 40
1, 457302, Control_c, 0, 64, 41
1, 457308, Note_on_c, 0, 59, 77
1, 457311, Note_on_c, 0, 32, 70
1, 457311, Note_on_c, 0, 51, 73
1, 457311, Note_on_c, 0, 44, 79
1, 457313, Note_on_c, 0, 56, 74
1, 457317, Control_c, 0, 64, 46
1, 457332, Control_c, 0, 64, 56
1, 457337, Note_off_c, 0, 32, 64
1, 457339, Note_off_c, 0, 44, 66
1, 457347, Control_c, 0, 64, 66
1, 457360, Note_off_c, 0, 56, 50
1, 457362, Control_c, 0, 64, 81
1, 457377, Control_c, 0, 64, 127
1, 457382, Note_off_c, 0, 51, 55
1, 457462, Note_off_c, 0, 59, 54
1, 457931, Note_on_c, 0, 80, 89
1, 457933, Note_on_c, 0, 75, 79
1, 457934, Note_on_c, 0, 59, 67
1, 457937, Note_on_c, 0, 63, 71
1, 457939, Note_on_c, 0, 68, 82
1, 457940, Note_on_c, 0, 51, 68
1, 459586, Note_off_c, 0, 68, 60
1, 459616, Note_off_c, 0, 75, 61
1, 459623, Note_off_c, 0, 80, 61
1, 459706, Note_off_c, 0, 51, 62
1, 459712, Note_off_c, 0, 59, 63
1, 459726, Note_off_c, 0, 63, 63
1, 459742, Control_c, 0, 64, 79
1, 459756, Control_c, 0, 64, 57
1, 459771, Control_c, 0, 64, 0
1, 459771, End_track
0, 0, End_of_file
