0, 0, Header, 0, 1, 384
1, 0, Start_track
1, 0, Title_t, "Etudes-Tableaux--Serhii Morozov "
1, 0, Text_t, "2006 International Piano-e-Competition Recital Round"
1, 0, Text_t, "St. Paul, Minnesota, July 2006"
1, 0, Text_t, "http://www.piano-e-competition.com/"
1, 0, Instrument_name_t, "Yamaha Disklavier Pro Mark IV concert grand piano"
1, 0, Sequencer_specific, 39, 67, 113, 0, 1, 0, 1, 0, 69, 116, 117, 100, 101, 115, 45, 84, 97, 98, 108, 101, 97, 117, 120, 32, 83, 101, 114, 104, 105, 105, 32, 77, 111, 114, 111, 122, 111, 118, 32, 32
1, 0, Sequencer_specific, 6, 67, 113, 0, 0, 0, 69
1, 0, System_exclusive, 21, 67, 113, 126, 21, 0, 2, 2, 0, 10, 10, 12, 4, 4, 10, 13, 10, 4, 0, 0, 1, 247
1, 0, Sequencer_specific, 5, 67, 123, 12, 2, 1
1, 0, Tempo, 512820
1, 0, Time_signature, 4, 2, 24, 8
1, 0, System_exclusive, 5, 126, 127, 9, 1, 247
1, 1, System_exclusive, 8, 67, 16, 76, 0, 0, 126, 0, 247
1, 2, System_exclusive, 8, 67, 16, 76, 8, 9, 7, 1, 247
1, 3, Control_c, 0, 0, 0
1, 4, Control_c, 0, 32, 0
1, 5, Program_c, 0, 0
1, 6, Control_c, 0, 7, 100
1, 95, Control_c, 0, 67, 2
1, 184, Control_c, 0, 67, 4
1, 273, Control_c, 0, 67, 6
1, 362, Control_c, 0, 67, 9
1, 452, Control_c, 0, 67, 10
1, 541, Control_c, 0, 67, 13
1, 630, Control_c, 0, 67, 14
1, 719, Control_c, 0, 67, 19
1, 900, Control_c, 0, 64, 59
1, 904, Note_on_c, 0, 86, 90
1, 909, Note_on_c, 0, 74, 89
1, 910, Note_on_c, 0, 62, 75
1, 911, Note_on_c, 0, 50, 74
1, 915, Control_c, 0, 64, 64
1, 930, Control_c, 0, 64, 71
1, 945, Control_c, 0, 64, 93
1, 959, Control_c, 0, 64, 127
1, 994, Note_off_c, 0, 50, 61
1, 1034, Note_off_c, 0, 62, 60
1, 1047, Note_off_c, 0, 86, 62
1, 1077, Note_off_c, 0, 74, 61
1, 1166, Control_c, 0, 67, 0
1, 1348, Note_on_c, 0, 82, 86
1, 1352, Note_on_c, 0, 70, 83
1, 1353, Note_on_c, 0, 73, 78
1, 1356, Note_on_c, 0, 79, 83
1, 1359, Note_on_c, 0, 55, 69
1, 1360, Note_on_c, 0, 67, 77
1, 1360, Note_on_c, 0, 76, 79
1, 1361, Note_on_c, 0, 64, 72
1, 1363, Note_on_c, 0, 61, 69
1, 1365, Note_on_c, 0, 58, 66
1, 1388, Note_off_c, 0, 67, 65
1, 1396, Note_off_c, 0, 70, 63
1, 1398, Note_off_c, 0, 64, 62
1, 1399, Note_off_c, 0, 82, 65
1, 1406, Note_off_c, 0, 79, 64
1, 1412, Note_off_c, 0, 61, 59
1, 1418, Note_off_c, 0, 76, 60
1, 1420, Note_off_c, 0, 58, 60
1, 1421, Note_off_c, 0, 73, 60
1, 1423, Note_off_c, 0, 55, 61
1, 1464, Control_c, 0, 67, 19
1, 1605, Control_c, 0, 67, 0
1, 1820, Note_on_c, 0, 26, 82
1, 1822, Note_on_c, 0, 38, 86
1, 1825, Note_on_c, 0, 50, 83
1, 1825, Note_on_c, 0, 62, 89
1, 1827, Control_c, 0, 64, 78
1, 1842, Control_c, 0, 64, 43
1, 1856, Control_c, 0, 64, 0
1, 1886, Control_c, 0, 64, 45
1, 1900, Control_c, 0, 64, 71
1, 1915, Control_c, 0, 64, 127
1, 1926, Note_off_c, 0, 26, 63
1, 1943, Note_off_c, 0, 50, 62
1, 1953, Note_off_c, 0, 38, 63
1, 1986, Note_off_c, 0, 62, 60
1, 2266, Note_on_c, 0, 77, 89
1, 2266, Note_on_c, 0, 46, 76
1, 2268, Note_on_c, 0, 73, 75
1, 2272, Note_on_c, 0, 58, 78
1, 2274, Note_on_c, 0, 65, 76
1, 2276, Note_on_c, 0, 55, 69
1, 2278, Note_on_c, 0, 49, 68
1, 2279, Note_on_c, 0, 70, 74
1, 2284, Note_on_c, 0, 53, 48
1, 2288, Note_on_c, 0, 67, 70
1, 2301, Note_off_c, 0, 65, 67
1, 2305, Note_off_c, 0, 67, 64
1, 2308, Note_off_c, 0, 46, 58
1, 2310, Note_off_c, 0, 70, 64
1, 2326, Note_off_c, 0, 49, 60
1, 2330, Note_off_c, 0, 77, 67
1, 2330, Note_off_c, 0, 73, 63
1, 2335, Note_off_c, 0, 55, 62
1, 2339, Note_off_c, 0, 53, 61
1, 2362, Note_off_c, 0, 58, 61
1, 2694, Control_c, 0, 64, 122
1, 2709, Control_c, 0, 64, 62
1, 2716, Note_on_c, 0, 86, 90
1, 2722, Note_on_c, 0, 50, 80
1, 2722, Note_on_c, 0, 74, 93
1, 2723, Control_c, 0, 64, 0
1, 2724, Note_on_c, 0, 62, 88
1, 2783, Control_c, 0, 64, 61
1, 2799, Control_c, 0, 64, 99
1, 2814, Control_c, 0, 64, 127
1, 2814, Control_c, 0, 67, 19
1, 2843, Control_c, 0, 67, 0
1, 2846, Note_off_c, 0, 86, 63
1, 2855, Note_off_c, 0, 50, 62
1, 2883, Note_off_c, 0, 74, 61
1, 2887, Note_off_c, 0, 62, 64
1, 3052, Poly_aftertouch_c, 0, 63, 127
1, 3142, Note_on_c, 0, 82, 91
1, 3143, Note_on_c, 0, 70, 89
1, 3143, Note_on_c, 0, 73, 82
1, 3146, Note_on_c, 0, 79, 81
1, 3150, Note_on_c, 0, 67, 82
1, 3150, Note_on_c, 0, 76, 79
1, 3154, Note_on_c, 0, 64, 75
1, 3164, Note_on_c, 0, 61, 69
1, 3165, Note_on_c, 0, 55, 66
1, 3170, Note_on_c, 0, 58, 62
1, 3177, Note_off_c, 0, 67, 65
1, 3182, Note_off_c, 0, 82, 66
1, 3185, Poly_aftertouch_c, 0, 63, 0
1, 3186, Note_off_c, 0, 70, 63
1, 3188, Note_off_c, 0, 64, 63
1, 3191, Note_off_c, 0, 79, 63
1, 3193, Note_off_c, 0, 61, 65
1, 3202, Note_off_c, 0, 58, 67
1, 3205, Note_off_c, 0, 76, 62
1, 3209, Note_off_c, 0, 55, 61
1, 3209, Note_off_c, 0, 73, 61
1, 3560, Note_on_c, 0, 26, 87
1, 3564, Note_on_c, 0, 50, 87
1, 3565, Note_on_c, 0, 38, 88
1, 3566, Note_on_c, 0, 62, 86
1, 3576, Control_c, 0, 64, 67
1, 3592, Control_c, 0, 64, 0
1, 3637, Control_c, 0, 64, 53
1, 3651, Control_c, 0, 64, 72
1, 3658, Note_off_c, 0, 26, 64
1, 3666, Control_c, 0, 64, 127
1, 3684, Note_off_c, 0, 50, 62
1, 3689, Note_off_c, 0, 38, 63
1, 3729, Note_off_c, 0, 62, 62
1, 3999, Note_on_c, 0, 77, 88
1, 4002, Note_on_c, 0, 58, 74
1, 4004, Note_on_c, 0, 53, 40
1, 4004, Note_on_c, 0, 73, 77
1, 4004, Note_on_c, 0, 46, 66
1, 4010, Note_on_c, 0, 55, 62
1, 4010, Note_on_c, 0, 65, 76
1, 4012, Note_on_c, 0, 70, 74
1, 4019, Note_on_c, 0, 49, 61
1, 4022, Note_on_c, 0, 67, 68
1, 4039, Note_off_c, 0, 65, 67
1, 4040, Note_off_c, 0, 67, 67
1, 4045, Note_off_c, 0, 55, 64
1, 4047, Note_off_c, 0, 70, 61
1, 4055, Note_off_c, 0, 58, 59
1, 4060, Note_off_c, 0, 77, 66
1, 4062, Note_off_c, 0, 73, 62
1, 4068, Note_off_c, 0, 53, 62
1, 4074, Note_off_c, 0, 49, 56
1, 4104, Note_off_c, 0, 46, 62
1, 4401, Control_c, 0, 64, 78
1, 4416, Control_c, 0, 64, 44
1, 4431, Control_c, 0, 64, 0
1, 4432, Note_on_c, 0, 42, 80
1, 4438, Note_on_c, 0, 54, 86
1, 4440, Note_on_c, 0, 78, 96
1, 4443, Note_on_c, 0, 66, 93
1, 4475, Control_c, 0, 64, 50
1, 4490, Control_c, 0, 64, 74
1, 4493, Note_off_c, 0, 42, 64
1, 4502, Note_off_c, 0, 78, 65
1, 4504, Note_off_c, 0, 66, 63
1, 4505, Control_c, 0, 64, 127
1, 4515, Note_off_c, 0, 54, 54
1, 4694, Note_on_c, 0, 50, 67
1, 4694, Note_on_c, 0, 58, 64
1, 4696, Note_on_c, 0, 74, 88
1, 4699, Note_on_c, 0, 52, 66
1, 4699, Note_on_c, 0, 70, 80
1, 4705, Note_on_c, 0, 62, 75
1, 4709, Note_on_c, 0, 64, 65
1, 4720, Note_off_c, 0, 58, 67
1, 4724, Note_off_c, 0, 70, 65
1, 4726, Note_off_c, 0, 64, 65
1, 4726, Note_off_c, 0, 62, 64
1, 4729, Note_off_c, 0, 52, 66
1, 4731, Note_off_c, 0, 74, 58
1, 4747, Note_off_c, 0, 50, 62
1, 5060, Control_c, 0, 64, 119
1, 5074, Control_c, 0, 64, 69
1, 5089, Control_c, 0, 64, 31
1, 5098, Note_on_c, 0, 26, 79
1, 5104, Control_c, 0, 64, 0
1, 5107, Note_on_c, 0, 38, 83
1, 5108, Note_on_c, 0, 50, 91
1, 5119, Control_c, 0, 64, 46
1, 5128, Note_off_c, 0, 26, 68
1, 5134, Control_c, 0, 64, 66
1, 5146, Note_off_c, 0, 38, 64
1, 5147, Note_off_c, 0, 50, 64
1, 5149, Control_c, 0, 64, 92
1, 5164, Control_c, 0, 64, 127
1, 5357, Note_on_c, 0, 70, 94
1, 5365, Note_on_c, 0, 58, 62
1, 5365, Note_on_c, 0, 65, 72
1, 5366, Note_on_c, 0, 53, 61
1, 5377, Note_on_c, 0, 46, 57
1, 5384, Note_off_c, 0, 70, 62
1, 5385, Note_off_c, 0, 65, 68
1, 5389, Note_off_c, 0, 58, 59
1, 5402, Note_off_c, 0, 53, 64
1, 5413, Note_off_c, 0, 46, 60
1, 5735, Control_c, 0, 64, 85
1, 5749, Control_c, 0, 64, 56
1, 5764, Control_c, 0, 64, 0
1, 5782, Note_on_c, 0, 42, 76
1, 5787, Note_on_c, 0, 54, 83
1, 5787, Note_on_c, 0, 78, 96
1, 5788, Note_on_c, 0, 66, 91
1, 5808, Control_c, 0, 64, 54
1, 5817, Note_off_c, 0, 66, 64
1, 5822, Note_off_c, 0, 78, 63
1, 5823, Control_c, 0, 64, 71
1, 5835, Note_off_c, 0, 42, 61
1, 5838, Control_c, 0, 64, 114
1, 5842, Note_off_c, 0, 54, 62
1, 5853, Control_c, 0, 64, 127
1, 6027, Note_on_c, 0, 74, 92
1, 6028, Note_on_c, 0, 58, 70
1, 6031, Note_on_c, 0, 70, 78
1, 6031, Note_on_c, 0, 50, 73
1, 6031, Note_on_c, 0, 52, 70
1, 6033, Note_on_c, 0, 62, 77
1, 6033, Note_on_c, 0, 64, 70
1, 6048, Note_off_c, 0, 74, 65
1, 6049, Note_off_c, 0, 64, 67
1, 6052, Note_off_c, 0, 70, 70
1, 6054, Note_off_c, 0, 58, 67
1, 6063, Note_off_c, 0, 62, 69
1, 6066, Note_off_c, 0, 52, 65
1, 6074, Note_off_c, 0, 50, 63
1, 6410, Control_c, 0, 64, 69
1, 6425, Control_c, 0, 64, 38
1, 6429, Note_on_c, 0, 26, 75
1, 6436, Note_on_c, 0, 50, 95
1, 6437, Note_on_c, 0, 38, 85
1, 6439, Control_c, 0, 64, 0
1, 6454, Control_c, 0, 64, 43
1, 6455, Note_off_c, 0, 26, 63
1, 6466, Note_off_c, 0, 38, 69
1, 6469, Control_c, 0, 64, 63
1, 6475, Note_off_c, 0, 50, 64
1, 6484, Control_c, 0, 64, 81
1, 6498, Control_c, 0, 64, 127
1, 6680, Note_on_c, 0, 46, 65
1, 6682, Note_on_c, 0, 53, 63
1, 6682, Note_on_c, 0, 58, 76
1, 6690, Note_on_c, 0, 70, 95
1, 6707, Note_on_c, 0, 65, 62
1, 6708, Note_off_c, 0, 46, 65
1, 6711, Note_off_c, 0, 70, 68
1, 6713, Note_off_c, 0, 53, 64
1, 6713, Note_off_c, 0, 58, 63
1, 6728, Note_off_c, 0, 65, 63
1, 6951, Control_c, 0, 64, 94
1, 6961, Note_on_c, 0, 74, 78
1, 6966, Control_c, 0, 64, 71
1, 6971, Note_on_c, 0, 86, 80
1, 6971, Note_on_c, 0, 98, 87
1, 6981, Control_c, 0, 64, 52
1, 6995, Control_c, 0, 64, 33
1, 6997, Note_off_c, 0, 98, 64
1, 6998, Note_off_c, 0, 86, 65
1, 7003, Note_off_c, 0, 74, 63
1, 7010, Control_c, 0, 64, 0
1, 7054, Note_on_c, 0, 74, 66
1, 7060, Note_on_c, 0, 86, 81
1, 7060, Note_on_c, 0, 98, 87
1, 7093, Note_off_c, 0, 98, 63
1, 7094, Note_off_c, 0, 86, 63
1, 7102, Note_off_c, 0, 74, 63
1, 7128, Control_c, 0, 64, 30
1, 7128, Control_c, 0, 67, 23
1, 7143, Control_c, 0, 64, 54
1, 7143, Control_c, 0, 67, 29
1, 7155, Note_on_c, 0, 74, 90
1, 7155, Note_on_c, 0, 98, 93
1, 7158, Note_on_c, 0, 86, 92
1, 7158, Control_c, 0, 64, 67
1, 7158, Control_c, 0, 67, 33
1, 7172, Note_off_c, 0, 74, 73
1, 7173, Control_c, 0, 64, 77
1, 7173, Control_c, 0, 67, 38
1, 7188, Control_c, 0, 64, 83
1, 7188, Control_c, 0, 67, 44
1, 7190, Note_off_c, 0, 86, 64
1, 7191, Note_off_c, 0, 98, 64
1, 7203, Control_c, 0, 64, 84
1, 7203, Control_c, 0, 67, 49
1, 7218, Control_c, 0, 67, 50
1, 7233, Control_c, 0, 67, 50
1, 7292, Control_c, 0, 64, 83
1, 7307, Control_c, 0, 64, 80
1, 7321, Control_c, 0, 64, 74
1, 7321, Control_c, 0, 67, 51
1, 7336, Control_c, 0, 64, 68
1, 7351, Control_c, 0, 64, 61
1, 7366, Control_c, 0, 64, 52
1, 7381, Control_c, 0, 64, 44
1, 7393, Note_on_c, 0, 67, 73
1, 7395, Control_c, 0, 64, 35
1, 7398, Note_on_c, 0, 74, 75
1, 7403, Note_on_c, 0, 70, 58
1, 7410, Control_c, 0, 64, 0
1, 7414, Note_off_c, 0, 74, 67
1, 7415, Note_off_c, 0, 67, 71
1, 7422, Note_off_c, 0, 70, 64
1, 7425, Control_c, 0, 67, 51
1, 7439, Control_c, 0, 67, 52
1, 7454, Control_c, 0, 67, 52
1, 7469, Control_c, 0, 67, 53
1, 7479, Note_on_c, 0, 74, 81
1, 7482, Note_on_c, 0, 67, 74
1, 7491, Note_on_c, 0, 70, 71
1, 7499, Control_c, 0, 67, 54
1, 7513, Note_off_c, 0, 67, 62
1, 7513, Control_c, 0, 67, 55
1, 7516, Note_off_c, 0, 70, 68
1, 7523, Note_off_c, 0, 74, 63
1, 7528, Control_c, 0, 67, 59
1, 7543, Control_c, 0, 67, 65
1, 7565, Control_c, 0, 67, 73
1, 7580, Control_c, 0, 64, 41
1, 7580, Control_c, 0, 67, 82
1, 7588, Note_on_c, 0, 74, 95
1, 7592, Note_on_c, 0, 67, 89
1, 7592, Note_on_c, 0, 70, 94
1, 7596, Control_c, 0, 64, 59
1, 7596, Control_c, 0, 67, 88
1, 7609, Note_off_c, 0, 67, 74
1, 7610, Note_off_c, 0, 70, 69
1, 7611, Control_c, 0, 64, 68
1, 7611, Control_c, 0, 67, 96
1, 7612, Note_off_c, 0, 74, 66
1, 7626, Control_c, 0, 64, 73
1, 7626, Control_c, 0, 67, 99
1, 7641, Control_c, 0, 64, 73
1, 7670, Control_c, 0, 64, 70
1, 7685, Control_c, 0, 64, 65
1, 7700, Control_c, 0, 64, 60
1, 7715, Control_c, 0, 64, 55
1, 7730, Control_c, 0, 64, 51
1, 7744, Control_c, 0, 64, 49
1, 7759, Control_c, 0, 64, 47
1, 7774, Control_c, 0, 64, 43
1, 7789, Control_c, 0, 64, 40
1, 7804, Control_c, 0, 64, 37
1, 7818, Control_c, 0, 64, 34
1, 7820, Note_on_c, 0, 67, 76
1, 7821, Note_on_c, 0, 60, 70
1, 7824, Note_on_c, 0, 63, 69
1, 7833, Control_c, 0, 64, 31
1, 7848, Control_c, 0, 64, 29
1, 7849, Note_off_c, 0, 67, 61
1, 7854, Note_off_c, 0, 60, 63
1, 7854, Note_off_c, 0, 63, 65
1, 7862, Control_c, 0, 64, 0
1, 7902, Note_on_c, 0, 67, 73
1, 7903, Note_on_c, 0, 63, 77
1, 7912, Note_on_c, 0, 60, 67
1, 7939, Note_off_c, 0, 60, 68
1, 7942, Note_off_c, 0, 67, 62
1, 7951, Note_off_c, 0, 63, 62
1, 7996, Control_c, 0, 64, 30
1, 7996, Control_c, 0, 67, 102
1, 8011, Control_c, 0, 64, 46
1, 8014, Note_on_c, 0, 67, 85
1, 8016, Note_on_c, 0, 60, 78
1, 8017, Note_on_c, 0, 63, 78
1, 8026, Control_c, 0, 64, 61
1, 8026, Control_c, 0, 67, 105
1, 8034, Note_off_c, 0, 67, 69
1, 8040, Control_c, 0, 64, 68
1, 8040, Control_c, 0, 67, 108
1, 8046, Note_off_c, 0, 63, 66
1, 8048, Note_off_c, 0, 60, 65
1, 8055, Control_c, 0, 64, 73
1, 8055, Control_c, 0, 67, 110
1, 8070, Control_c, 0, 64, 75
1, 8070, Control_c, 0, 67, 112
1, 8115, Control_c, 0, 64, 73
1, 8130, Control_c, 0, 64, 70
1, 8144, Control_c, 0, 64, 66
1, 8159, Control_c, 0, 64, 62
1, 8174, Control_c, 0, 64, 58
1, 8189, Control_c, 0, 64, 56
1, 8204, Control_c, 0, 64, 53
1, 8218, Control_c, 0, 64, 51
1, 8233, Control_c, 0, 64, 48
1, 8246, Note_on_c, 0, 61, 78
1, 8248, Note_on_c, 0, 55, 68
1, 8248, Control_c, 0, 64, 46
1, 8252, Note_on_c, 0, 58, 65
1, 8262, Control_c, 0, 64, 44
1, 8275, Note_off_c, 0, 55, 67
1, 8277, Control_c, 0, 64, 42
1, 8278, Note_off_c, 0, 61, 63
1, 8284, Note_off_c, 0, 58, 65
1, 8292, Control_c, 0, 64, 40
1, 8315, Control_c, 0, 64, 37
1, 8330, Control_c, 0, 64, 34
1, 8344, Control_c, 0, 64, 31
1, 8352, Note_on_c, 0, 58, 73
1, 8353, Note_on_c, 0, 61, 74
1, 8357, Note_on_c, 0, 55, 64
1, 8383, Note_off_c, 0, 58, 63
1, 8389, Note_off_c, 0, 55, 66
1, 8389, Control_c, 0, 64, 32
1, 8393, Note_off_c, 0, 61, 60
1, 8404, Control_c, 0, 64, 35
1, 8419, Control_c, 0, 64, 42
1, 8434, Control_c, 0, 64, 52
1, 8449, Control_c, 0, 64, 61
1, 8463, Note_on_c, 0, 61, 86
1, 8464, Control_c, 0, 64, 67
1, 8468, Note_on_c, 0, 55, 77
1, 8468, Note_on_c, 0, 58, 77
1, 8479, Control_c, 0, 64, 69
1, 8489, Note_off_c, 0, 58, 72
1, 8489, Note_off_c, 0, 61, 64
1, 8490, Note_off_c, 0, 55, 70
1, 8508, Control_c, 0, 64, 67
1, 8523, Control_c, 0, 64, 64
1, 8538, Control_c, 0, 64, 61
1, 8553, Control_c, 0, 64, 58
1, 8567, Control_c, 0, 64, 55
1, 8582, Control_c, 0, 64, 53
1, 8597, Control_c, 0, 64, 52
1, 8611, Control_c, 0, 64, 52
1, 8626, Control_c, 0, 64, 51
1, 8641, Control_c, 0, 64, 51
1, 8656, Control_c, 0, 64, 50
1, 8671, Control_c, 0, 64, 50
1, 8685, Control_c, 0, 64, 49
1, 8693, Note_on_c, 0, 54, 85
1, 8694, Note_on_c, 0, 26, 70
1, 8699, Note_on_c, 0, 38, 72
1, 8699, Note_on_c, 0, 45, 70
1, 8700, Control_c, 0, 64, 48
1, 8715, Control_c, 0, 64, 47
1, 8730, Note_off_c, 0, 45, 65
1, 8730, Control_c, 0, 64, 46
1, 8732, Note_off_c, 0, 26, 64
1, 8736, Note_off_c, 0, 38, 64
1, 8738, Note_off_c, 0, 54, 60
1, 8745, Control_c, 0, 64, 45
1, 8759, Control_c, 0, 64, 43
1, 8774, Control_c, 0, 64, 41
1, 8785, Note_on_c, 0, 38, 65
1, 8788, Note_on_c, 0, 54, 86
1, 8789, Control_c, 0, 64, 39
1, 8795, Note_on_c, 0, 45, 70
1, 8796, Note_on_c, 0, 26, 67
1, 8804, Control_c, 0, 64, 37
1, 8818, Control_c, 0, 64, 35
1, 8823, Note_off_c, 0, 45, 65
1, 8826, Note_off_c, 0, 26, 62
1, 8830, Note_off_c, 0, 38, 61
1, 8833, Control_c, 0, 64, 33
1, 8838, Note_off_c, 0, 54, 65
1, 8863, Control_c, 0, 67, 114
1, 8878, Control_c, 0, 64, 40
1, 8893, Control_c, 0, 64, 52
1, 8902, Note_on_c, 0, 26, 72
1, 8903, Note_on_c, 0, 54, 96
1, 8908, Control_c, 0, 64, 63
1, 8909, Note_on_c, 0, 38, 77
1, 8920, Note_on_c, 0, 45, 33
1, 8923, Control_c, 0, 64, 72
1, 8934, Note_off_c, 0, 38, 66
1, 8935, Note_off_c, 0, 26, 64
1, 8938, Control_c, 0, 64, 81
1, 8938, Note_off_c, 0, 54, 66
1, 8953, Control_c, 0, 64, 87
1, 8958, Note_off_c, 0, 45, 53
1, 8967, Control_c, 0, 64, 88
1, 8982, Control_c, 0, 67, 112
1, 8997, Control_c, 0, 64, 87
1, 9011, Control_c, 0, 64, 84
1, 9026, Control_c, 0, 64, 78
1, 9041, Control_c, 0, 64, 72
1, 9063, Control_c, 0, 64, 67
1, 9078, Control_c, 0, 64, 63
1, 9093, Control_c, 0, 64, 60
1, 9108, Control_c, 0, 64, 56
1, 9123, Control_c, 0, 64, 52
1, 9137, Control_c, 0, 64, 48
1, 9152, Control_c, 0, 64, 44
1, 9167, Control_c, 0, 64, 38
1, 9182, Control_c, 0, 64, 35
1, 9185, Note_on_c, 0, 74, 69
1, 9190, Note_on_c, 0, 58, 50
1, 9191, Note_on_c, 0, 67, 56
1, 9197, Note_on_c, 0, 64, 48
1, 9197, Control_c, 0, 64, 31
1, 9210, Note_off_c, 0, 74, 68
1, 9212, Control_c, 0, 64, 0
1, 9218, Note_off_c, 0, 58, 56
1, 9218, Note_off_c, 0, 64, 59
1, 9220, Note_off_c, 0, 67, 66
1, 9257, Control_c, 0, 67, 110
1, 9300, Note_on_c, 0, 74, 62
1, 9323, Note_off_c, 0, 74, 56
1, 9376, Control_c, 0, 64, 34
1, 9390, Control_c, 0, 64, 46
1, 9405, Control_c, 0, 64, 55
1, 9405, Control_c, 0, 67, 112
1, 9417, Note_on_c, 0, 66, 47
1, 9418, Note_on_c, 0, 62, 59
1, 9418, Note_on_c, 0, 74, 62
1, 9420, Control_c, 0, 64, 59
1, 9435, Control_c, 0, 64, 58
1, 9436, Note_off_c, 0, 74, 64
1, 9440, Note_off_c, 0, 66, 60
1, 9450, Control_c, 0, 64, 55
1, 9450, Note_off_c, 0, 62, 64
1, 9465, Control_c, 0, 64, 51
1, 9480, Control_c, 0, 64, 47
1, 9495, Control_c, 0, 64, 43
1, 9509, Control_c, 0, 64, 41
1, 9524, Control_c, 0, 64, 40
1, 9524, Control_c, 0, 67, 114
1, 9539, Control_c, 0, 64, 40
1, 9554, Control_c, 0, 64, 39
1, 9554, Control_c, 0, 67, 117
1, 9569, Control_c, 0, 64, 37
1, 9569, Control_c, 0, 67, 119
1, 9583, Control_c, 0, 64, 36
1, 9583, Control_c, 0, 67, 124
1, 9598, Control_c, 0, 64, 35
1, 9598, Control_c, 0, 67, 127
1, 9613, Control_c, 0, 64, 33
1, 9642, Control_c, 0, 64, 30
1, 9656, Note_on_c, 0, 57, 51
1, 9659, Note_on_c, 0, 74, 61
1, 9662, Note_on_c, 0, 65, 54
1, 9671, Note_on_c, 0, 63, 28
1, 9685, Note_off_c, 0, 65, 61
1, 9686, Note_off_c, 0, 57, 62
1, 9686, Note_off_c, 0, 74, 55
1, 9704, Note_off_c, 0, 63, 49
1, 9731, Control_c, 0, 64, 0
1, 9755, Note_on_c, 0, 74, 56
1, 9781, Note_off_c, 0, 74, 56
1, 9790, Control_c, 0, 64, 30
1, 9813, Control_c, 0, 64, 35
1, 9828, Control_c, 0, 64, 44
1, 9842, Control_c, 0, 64, 54
1, 9856, Note_on_c, 0, 62, 64
1, 9857, Control_c, 0, 64, 60
1, 9861, Note_on_c, 0, 74, 79
1, 9866, Note_on_c, 0, 69, 67
1, 9867, Note_on_c, 0, 66, 44
1, 9872, Control_c, 0, 64, 61
1, 9885, Note_off_c, 0, 62, 65
1, 9887, Control_c, 0, 64, 61
1, 9891, Note_off_c, 0, 69, 68
1, 9891, Note_off_c, 0, 74, 66
1, 9892, Note_off_c, 0, 66, 51
1, 9902, Control_c, 0, 64, 59
1, 9916, Control_c, 0, 64, 57
1, 9931, Control_c, 0, 64, 54
1, 9946, Control_c, 0, 64, 51
1, 9960, Control_c, 0, 64, 49
1, 9975, Control_c, 0, 64, 47
1, 9992, Control_c, 0, 64, 45
1, 10007, Control_c, 0, 64, 44
1, 10021, Control_c, 0, 64, 42
1, 10036, Control_c, 0, 64, 40
1, 10051, Control_c, 0, 64, 38
1, 10065, Control_c, 0, 64, 37
1, 10080, Control_c, 0, 64, 38
1, 10085, Note_on_c, 0, 58, 54
1, 10088, Note_on_c, 0, 54, 58
1, 10090, Note_on_c, 0, 62, 38
1, 10095, Note_on_c, 0, 74, 71
1, 10106, Note_on_c, 0, 64, 49
1, 10109, Note_on_c, 0, 70, 52
1, 10110, Control_c, 0, 64, 38
1, 10114, Note_off_c, 0, 58, 63
1, 10118, Note_off_c, 0, 62, 48
1, 10124, Note_off_c, 0, 54, 64
1, 10125, Control_c, 0, 64, 39
1, 10127, Note_off_c, 0, 64, 60
1, 10134, Note_off_c, 0, 70, 58
1, 10139, Control_c, 0, 64, 40
1, 10149, Note_off_c, 0, 74, 47
1, 10184, Control_c, 0, 64, 40
1, 10190, Note_on_c, 0, 73, 73
1, 10214, Control_c, 0, 64, 41
1, 10248, Note_off_c, 0, 73, 62
1, 10258, Control_c, 0, 64, 41
1, 10297, Note_on_c, 0, 70, 72
1, 10299, Note_on_c, 0, 46, 57
1, 10303, Control_c, 0, 64, 41
1, 10305, Note_on_c, 0, 53, 55
1, 10312, Note_on_c, 0, 62, 54
1, 10321, Note_on_c, 0, 58, 22
1, 10321, Note_off_c, 0, 70, 71
1, 10326, Note_off_c, 0, 46, 62
1, 10331, Note_off_c, 0, 53, 62
1, 10332, Control_c, 0, 64, 40
1, 10333, Note_off_c, 0, 62, 59
1, 10361, Note_off_c, 0, 58, 43
1, 10377, Control_c, 0, 64, 40
1, 10402, Note_on_c, 0, 69, 66
1, 10421, Control_c, 0, 64, 39
1, 10435, Note_off_c, 0, 69, 61
1, 10465, Control_c, 0, 64, 39
1, 10495, Control_c, 0, 64, 38
1, 10500, Note_on_c, 0, 39, 64
1, 10507, Note_on_c, 0, 67, 64
1, 10509, Note_on_c, 0, 61, 70
1, 10510, Control_c, 0, 64, 38
1, 10511, Note_on_c, 0, 55, 60
1, 10515, Note_on_c, 0, 46, 48
1, 10524, Control_c, 0, 64, 37
1, 10528, Note_off_c, 0, 39, 64
1, 10529, Note_off_c, 0, 55, 63
1, 10535, Note_off_c, 0, 61, 66
1, 10542, Note_off_c, 0, 46, 57
1, 10544, Note_off_c, 0, 67, 63
1, 10606, Control_c, 0, 64, 37
1, 10621, Control_c, 0, 64, 36
1, 10636, Control_c, 0, 64, 36
1, 10651, Control_c, 0, 64, 35
1, 10680, Control_c, 0, 64, 37
1, 10695, Control_c, 0, 64, 42
1, 10710, Control_c, 0, 64, 49
1, 10725, Control_c, 0, 64, 57
1, 10735, Note_on_c, 0, 50, 63
1, 10739, Control_c, 0, 64, 63
1, 10741, Note_on_c, 0, 57, 56
1, 10741, Note_on_c, 0, 74, 64
1, 10744, Note_on_c, 0, 66, 56
1, 10750, Note_on_c, 0, 62, 48
1, 10754, Control_c, 0, 64, 65
1, 10764, Note_off_c, 0, 66, 62
1, 10768, Note_off_c, 0, 50, 65
1, 10768, Note_off_c, 0, 74, 66
1, 10769, Note_off_c, 0, 57, 61
1, 10775, Note_off_c, 0, 62, 55
1, 10785, Control_c, 0, 64, 63
1, 10800, Control_c, 0, 64, 61
1, 10814, Control_c, 0, 64, 57
1, 10829, Control_c, 0, 64, 52
1, 10844, Control_c, 0, 64, 47
1, 10859, Control_c, 0, 64, 41
1, 10874, Control_c, 0, 64, 33
1, 10888, Control_c, 0, 64, 0
1, 10965, Note_on_c, 0, 69, 67
1, 10969, Note_on_c, 0, 46, 59
1, 10971, Note_on_c, 0, 57, 54
1, 10973, Note_on_c, 0, 74, 68
1, 10979, Note_on_c, 0, 53, 51
1, 10983, Note_on_c, 0, 62, 53
1, 10991, Note_off_c, 0, 69, 69
1, 10997, Note_off_c, 0, 74, 68
1, 11006, Note_off_c, 0, 62, 58
1, 11006, Note_off_c, 0, 57, 55
1, 11012, Note_off_c, 0, 46, 58
1, 11015, Note_off_c, 0, 53, 48
1, 11063, Note_on_c, 0, 74, 74
1, 11099, Note_off_c, 0, 74, 59
1, 11104, Note_on_c, 0, 62, 10
1, 11104, Note_off_c, 0, 62, 127
1, 11139, Control_c, 0, 64, 31
1, 11153, Control_c, 0, 64, 41
1, 11161, Poly_aftertouch_c, 0, 62, 0
1, 11165, Note_on_c, 0, 67, 81
1, 11168, Control_c, 0, 64, 55
1, 11169, Note_on_c, 0, 55, 59
1, 11170, Note_on_c, 0, 74, 77
1, 11170, Note_on_c, 0, 51, 61
1, 11174, Note_on_c, 0, 62, 42
1, 11183, Control_c, 0, 64, 61
1, 11185, Note_off_c, 0, 67, 72
1, 11190, Note_off_c, 0, 74, 70
1, 11197, Note_off_c, 0, 62, 57
1, 11198, Control_c, 0, 64, 64
1, 11199, Note_off_c, 0, 51, 64
1, 11207, Note_off_c, 0, 55, 61
1, 11212, Control_c, 0, 64, 65
1, 11227, Control_c, 0, 64, 65
1, 11242, Control_c, 0, 64, 65
1, 11257, Control_c, 0, 64, 64
1, 11272, Control_c, 0, 64, 62
1, 11287, Control_c, 0, 64, 60
1, 11309, Control_c, 0, 64, 57
1, 11324, Control_c, 0, 64, 54
1, 11339, Control_c, 0, 64, 52
1, 11354, Control_c, 0, 64, 50
1, 11368, Control_c, 0, 64, 47
1, 11383, Control_c, 0, 64, 44
1, 11389, Note_on_c, 0, 41, 64
1, 11389, Note_on_c, 0, 51, 40
1, 11394, Note_on_c, 0, 57, 60
1, 11398, Note_on_c, 0, 69, 70
1, 11398, Control_c, 0, 64, 39
1, 11403, Note_on_c, 0, 74, 74
1, 11412, Control_c, 0, 64, 31
1, 11415, Note_on_c, 0, 62, 53
1, 11421, Note_off_c, 0, 69, 69
1, 11425, Note_off_c, 0, 57, 65
1, 11426, Note_off_c, 0, 74, 69
1, 11427, Control_c, 0, 64, 0
1, 11438, Note_off_c, 0, 62, 57
1, 11442, Note_off_c, 0, 41, 59
1, 11460, Note_off_c, 0, 51, 53
1, 11500, Note_on_c, 0, 74, 67
1, 11516, Note_on_c, 0, 62, 40
1, 11519, Note_off_c, 0, 74, 60
1, 11540, Note_off_c, 0, 62, 41
1, 11591, Control_c, 0, 64, 49
1, 11595, Note_on_c, 0, 53, 69
1, 11600, Note_on_c, 0, 74, 75
1, 11600, Note_on_c, 0, 65, 76
1, 11601, Note_on_c, 0, 46, 63
1, 11606, Control_c, 0, 64, 63
1, 11615, Note_on_c, 0, 62, 59
1, 11620, Note_off_c, 0, 74, 66
1, 11621, Control_c, 0, 64, 68
1, 11623, Note_off_c, 0, 65, 71
1, 11629, Note_off_c, 0, 53, 65
1, 11630, Note_off_c, 0, 46, 65
1, 11635, Note_off_c, 0, 62, 61
1, 11635, Control_c, 0, 64, 70
1, 11696, Control_c, 0, 64, 69
1, 11740, Control_c, 0, 64, 69
1, 11755, Control_c, 0, 64, 68
1, 11770, Control_c, 0, 64, 65
1, 11784, Control_c, 0, 64, 61
1, 11799, Control_c, 0, 64, 56
1, 11814, Control_c, 0, 64, 50
1, 11817, Note_on_c, 0, 46, 45
1, 11821, Note_on_c, 0, 39, 64
1, 11823, Note_on_c, 0, 54, 70
1, 11829, Control_c, 0, 64, 42
1, 11831, Note_on_c, 0, 63, 82
1, 11836, Note_on_c, 0, 58, 69
1, 11844, Control_c, 0, 64, 30
1, 11856, Note_off_c, 0, 39, 64
1, 11859, Note_off_c, 0, 46, 63
1, 11859, Control_c, 0, 64, 0
1, 11866, Note_off_c, 0, 58, 66
1, 11877, Note_off_c, 0, 54, 58
1, 11881, Note_off_c, 0, 63, 63
1, 11931, Note_on_c, 0, 65, 75
1, 11966, Note_off_c, 0, 65, 60
1, 12010, Note_on_c, 0, 41, 51
1, 12020, Note_on_c, 0, 50, 64
1, 12025, Note_on_c, 0, 56, 67
1, 12032, Note_on_c, 0, 66, 71
1, 12033, Note_on_c, 0, 62, 68
1, 12038, Note_on_c, 0, 58, 59
1, 12059, Note_off_c, 0, 41, 61
1, 12065, Note_off_c, 0, 56, 62
1, 12066, Note_off_c, 0, 50, 64
1, 12069, Note_off_c, 0, 62, 67
1, 12077, Note_off_c, 0, 58, 50
1, 12094, Note_off_c, 0, 66, 62
1, 12135, Note_on_c, 0, 68, 84
1, 12193, Note_off_c, 0, 68, 61
1, 12233, Note_on_c, 0, 42, 72
1, 12238, Note_on_c, 0, 49, 70
1, 12241, Note_on_c, 0, 64, 68
1, 12241, Note_on_c, 0, 54, 68
1, 12242, Note_on_c, 0, 70, 83
1, 12247, Note_on_c, 0, 58, 60
1, 12264, Note_off_c, 0, 64, 70
1, 12266, Note_off_c, 0, 42, 67
1, 12267, Note_off_c, 0, 49, 66
1, 12269, Note_off_c, 0, 58, 62
1, 12269, Note_off_c, 0, 54, 67
1, 12282, Note_off_c, 0, 70, 64
1, 12366, Note_on_c, 0, 51, 32
1, 12372, Note_on_c, 0, 73, 47
1, 12399, Note_off_c, 0, 73, 58
1, 12402, Note_off_c, 0, 51, 43
1, 12445, Control_c, 0, 64, 40
1, 12449, Note_on_c, 0, 57, 77
1, 12449, Note_on_c, 0, 66, 85
1, 12451, Note_on_c, 0, 62, 74
1, 12451, Note_on_c, 0, 74, 90
1, 12455, Note_on_c, 0, 50, 70
1, 12459, Control_c, 0, 64, 60
1, 12467, Note_off_c, 0, 66, 72
1, 12467, Note_off_c, 0, 74, 72
1, 12473, Note_off_c, 0, 57, 70
1, 12474, Control_c, 0, 64, 69
1, 12476, Note_off_c, 0, 62, 68
1, 12484, Note_off_c, 0, 50, 64
1, 12489, Control_c, 0, 64, 76
1, 12504, Control_c, 0, 64, 82
1, 12519, Control_c, 0, 64, 86
1, 12533, Control_c, 0, 64, 88
1, 12548, Control_c, 0, 64, 89
1, 12577, Control_c, 0, 64, 86
1, 12592, Control_c, 0, 64, 76
1, 12607, Control_c, 0, 64, 64
1, 12622, Control_c, 0, 64, 49
1, 12637, Control_c, 0, 64, 0
1, 12667, Note_on_c, 0, 44, 69
1, 12684, Note_on_c, 0, 62, 66
1, 12685, Note_on_c, 0, 60, 66
1, 12703, Note_off_c, 0, 62, 64
1, 12709, Note_off_c, 0, 60, 66
1, 12729, Note_off_c, 0, 44, 57
1, 12765, Note_on_c, 0, 51, 63
1, 12765, Note_on_c, 0, 62, 68
1, 12778, Note_on_c, 0, 60, 49
1, 12809, Note_off_c, 0, 51, 62
1, 12811, Note_off_c, 0, 60, 59
1, 12825, Note_off_c, 0, 62, 59
1, 12874, Note_on_c, 0, 50, 59
1, 12879, Note_on_c, 0, 58, 62
1, 12880, Note_on_c, 0, 62, 62
1, 12908, Note_off_c, 0, 50, 62
1, 12923, Note_off_c, 0, 58, 63
1, 12978, Note_on_c, 0, 43, 60
1, 13034, Note_off_c, 0, 43, 61
1, 13068, Note_on_c, 0, 41, 60
1, 13080, Note_on_c, 0, 57, 72
1, 13115, Note_off_c, 0, 57, 62
1, 13117, Note_off_c, 0, 41, 62
1, 13168, Note_on_c, 0, 48, 68
1, 13198, Note_off_c, 0, 48, 66
1, 13271, Note_on_c, 0, 46, 67
1, 13281, Control_c, 0, 64, 45
1, 13294, Note_on_c, 0, 55, 49
1, 13296, Control_c, 0, 64, 57
1, 13306, Note_off_c, 0, 46, 65
1, 13311, Control_c, 0, 64, 63
1, 13317, Note_off_c, 0, 62, 62
1, 13320, Note_off_c, 0, 55, 54
1, 13326, Control_c, 0, 64, 64
1, 13341, Control_c, 0, 64, 65
1, 13382, Note_on_c, 0, 39, 61
1, 13454, Note_off_c, 0, 39, 61
1, 13460, Control_c, 0, 64, 64
1, 13474, Control_c, 0, 64, 63
1, 13483, Note_on_c, 0, 38, 66
1, 13487, Note_on_c, 0, 66, 66
1, 13489, Note_on_c, 0, 62, 50
1, 13489, Control_c, 0, 64, 61
1, 13499, Note_on_c, 0, 54, 49
1, 13504, Control_c, 0, 64, 58
1, 13513, Note_off_c, 0, 62, 61
1, 13514, Note_off_c, 0, 66, 66
1, 13519, Control_c, 0, 64, 53
1, 13526, Note_off_c, 0, 54, 54
1, 13533, Note_off_c, 0, 38, 58
1, 13534, Control_c, 0, 64, 49
1, 13555, Control_c, 0, 64, 44
1, 13570, Control_c, 0, 64, 41
1, 13578, Note_on_c, 0, 66, 63
1, 13585, Control_c, 0, 64, 37
1, 13597, Note_on_c, 0, 54, 46
1, 13600, Control_c, 0, 64, 35
1, 13601, Note_on_c, 0, 45, 47
1, 13614, Note_off_c, 0, 66, 60
1, 13615, Control_c, 0, 64, 35
1, 13625, Note_off_c, 0, 54, 51
1, 13631, Note_off_c, 0, 45, 49
1, 13645, Control_c, 0, 64, 35
1, 13659, Control_c, 0, 64, 36
1, 13683, Note_on_c, 0, 66, 67
1, 13692, Note_on_c, 0, 54, 67
1, 13704, Control_c, 0, 64, 36
1, 13704, Note_on_c, 0, 61, 48
1, 13724, Note_off_c, 0, 54, 65
1, 13725, Note_on_c, 0, 45, 25
1, 13734, Control_c, 0, 64, 37
1, 13749, Note_off_c, 0, 61, 61
1, 13763, Note_off_c, 0, 45, 42
1, 13794, Note_on_c, 0, 37, 64
1, 13822, Control_c, 0, 64, 37
1, 13831, Note_off_c, 0, 37, 67
1, 13867, Control_c, 0, 64, 38
1, 13878, Note_off_c, 0, 66, 0
1, 13894, Note_on_c, 0, 59, 66
1, 13899, Note_on_c, 0, 50, 58
1, 13904, Note_on_c, 0, 35, 67
1, 13916, Note_on_c, 0, 66, 10
1, 13922, Note_off_c, 0, 50, 61
1, 13940, Note_off_c, 0, 35, 62
1, 13955, Control_c, 0, 67, 125
1, 13969, Note_off_c, 0, 59, 59
1, 13971, Control_c, 0, 64, 37
1, 13981, Note_on_c, 0, 42, 69
1, 13986, Control_c, 0, 64, 37
1, 14001, Control_c, 0, 64, 36
1, 14014, Note_off_c, 0, 42, 66
1, 14045, Control_c, 0, 64, 37
1, 14060, Control_c, 0, 64, 39
1, 14060, Control_c, 0, 67, 121
1, 14075, Control_c, 0, 64, 43
1, 14075, Control_c, 0, 67, 114
1, 14083, Note_on_c, 0, 42, 69
1, 14090, Control_c, 0, 64, 49
1, 14090, Control_c, 0, 67, 108
1, 14099, Note_on_c, 0, 57, 67
1, 14100, Note_on_c, 0, 49, 63
1, 14103, Note_on_c, 0, 63, 34
1, 14104, Control_c, 0, 64, 56
1, 14104, Control_c, 0, 67, 100
1, 14119, Control_c, 0, 64, 61
1, 14119, Control_c, 0, 67, 90
1, 14124, Note_off_c, 0, 49, 63
1, 14129, Note_off_c, 0, 42, 55
1, 14134, Control_c, 0, 64, 64
1, 14134, Control_c, 0, 67, 77
1, 14136, Note_off_c, 0, 63, 50
1, 14144, Note_off_c, 0, 57, 62
1, 14148, Control_c, 0, 64, 65
1, 14148, Control_c, 0, 67, 68
1, 14163, Control_c, 0, 64, 66
1, 14163, Control_c, 0, 67, 59
1, 14178, Control_c, 0, 67, 50
1, 14191, Note_on_c, 0, 33, 67
1, 14193, Control_c, 0, 64, 67
1, 14193, Control_c, 0, 67, 43
1, 14196, Note_off_c, 0, 66, 57
1, 14208, Control_c, 0, 67, 35
1, 14223, Control_c, 0, 64, 67
1, 14223, Control_c, 0, 67, 26
1, 14224, Note_off_c, 0, 33, 66
1, 14238, Control_c, 0, 67, 0
1, 14282, Control_c, 0, 64, 67
1, 14304, Control_c, 0, 64, 66
1, 14318, Note_on_c, 0, 43, 57
1, 14319, Control_c, 0, 64, 65
1, 14321, Note_on_c, 0, 61, 71
1, 14329, Note_on_c, 0, 69, 69
1, 14334, Control_c, 0, 64, 63
1, 14348, Note_on_c, 0, 57, 36
1, 14349, Note_off_c, 0, 61, 66
1, 14349, Control_c, 0, 64, 60
1, 14353, Note_off_c, 0, 69, 68
1, 14363, Control_c, 0, 64, 57
1, 14366, Note_off_c, 0, 43, 65
1, 14378, Control_c, 0, 64, 54
1, 14387, Note_off_c, 0, 57, 49
1, 14393, Control_c, 0, 64, 50
1, 14408, Control_c, 0, 64, 44
1, 14411, Note_on_c, 0, 51, 53
1, 14423, Control_c, 0, 64, 35
1, 14434, Note_on_c, 0, 69, 66
1, 14437, Control_c, 0, 64, 0
1, 14454, Note_off_c, 0, 51, 47
1, 14466, Note_off_c, 0, 69, 62
1, 14497, Control_c, 0, 64, 29
1, 14512, Control_c, 0, 64, 38
1, 14517, Note_on_c, 0, 50, 63
1, 14521, Note_on_c, 0, 62, 69
1, 14523, Note_on_c, 0, 69, 72
1, 14527, Control_c, 0, 64, 50
1, 14534, Note_on_c, 0, 57, 53
1, 14542, Control_c, 0, 64, 59
1, 14554, Note_off_c, 0, 50, 65
1, 14556, Note_off_c, 0, 62, 60
1, 14556, Control_c, 0, 64, 65
1, 14559, Note_off_c, 0, 57, 59
1, 14571, Control_c, 0, 64, 66
1, 14579, Note_off_c, 0, 69, 62
1, 14586, Control_c, 0, 64, 67
1, 14601, Control_c, 0, 64, 68
1, 14616, Control_c, 0, 64, 68
1, 14622, Note_on_c, 0, 42, 70
1, 14656, Note_off_c, 0, 42, 65
1, 14676, Control_c, 0, 64, 67
1, 14691, Control_c, 0, 64, 65
1, 14705, Control_c, 0, 64, 62
1, 14720, Control_c, 0, 64, 59
1, 14731, Note_on_c, 0, 51, 58
1, 14733, Note_on_c, 0, 70, 76
1, 14735, Note_on_c, 0, 60, 65
1, 14735, Control_c, 0, 64, 56
1, 14737, Note_on_c, 0, 66, 57
1, 14749, Control_c, 0, 64, 53
1, 14754, Note_off_c, 0, 70, 70
1, 14758, Note_off_c, 0, 66, 62
1, 14764, Control_c, 0, 64, 51
1, 14765, Note_off_c, 0, 60, 66
1, 14766, Note_off_c, 0, 51, 62
1, 14780, Control_c, 0, 64, 49
1, 14795, Control_c, 0, 64, 46
1, 14810, Control_c, 0, 64, 41
1, 14825, Control_c, 0, 64, 35
1, 14834, Note_on_c, 0, 60, 63
1, 14840, Control_c, 0, 64, 0
1, 14844, Note_on_c, 0, 70, 66
1, 14863, Note_off_c, 0, 70, 66
1, 14876, Note_off_c, 0, 60, 59
1, 14928, Control_c, 0, 64, 30
1, 14930, Note_on_c, 0, 70, 78
1, 14932, Note_on_c, 0, 65, 77
1, 14943, Control_c, 0, 64, 46
1, 14945, Note_on_c, 0, 58, 66
1, 14953, Note_off_c, 0, 70, 70
1, 14955, Note_off_c, 0, 65, 70
1, 14958, Control_c, 0, 64, 58
1, 14972, Control_c, 0, 64, 63
1, 14987, Control_c, 0, 64, 65
1, 14990, Note_off_c, 0, 58, 52
1, 15002, Control_c, 0, 64, 66
1, 15040, Note_on_c, 0, 50, 70
1, 15069, Control_c, 0, 64, 65
1, 15084, Control_c, 0, 64, 63
1, 15099, Control_c, 0, 64, 62
1, 15105, Note_off_c, 0, 50, 62
1, 15114, Control_c, 0, 64, 60
1, 15128, Control_c, 0, 64, 58
1, 15143, Control_c, 0, 64, 56
1, 15151, Note_on_c, 0, 56, 67
1, 15152, Note_on_c, 0, 71, 74
1, 15156, Note_on_c, 0, 79, 75
1, 15158, Control_c, 0, 64, 54
1, 15170, Note_on_c, 0, 67, 48
1, 15172, Control_c, 0, 64, 52
1, 15174, Note_off_c, 0, 71, 70
1, 15180, Note_off_c, 0, 79, 70
1, 15187, Control_c, 0, 64, 49
1, 15188, Note_off_c, 0, 56, 61
1, 15194, Note_off_c, 0, 67, 59
1, 15202, Control_c, 0, 64, 46
1, 15217, Control_c, 0, 64, 42
1, 15232, Control_c, 0, 64, 34
1, 15246, Control_c, 0, 64, 0
1, 15250, Note_on_c, 0, 67, 62
1, 15251, Note_on_c, 0, 79, 72
1, 15258, Note_on_c, 0, 65, 68
1, 15279, Note_off_c, 0, 67, 66
1, 15285, Note_off_c, 0, 79, 65
1, 15330, Note_off_c, 0, 65, 56
1, 15335, Control_c, 0, 64, 29
1, 15347, Note_on_c, 0, 72, 80
1, 15350, Note_on_c, 0, 79, 89
1, 15350, Control_c, 0, 64, 48
1, 15365, Control_c, 0, 64, 60
1, 15367, Note_off_c, 0, 72, 72
1, 15376, Note_on_c, 0, 63, 70
1, 15379, Control_c, 0, 64, 65
1, 15393, Note_off_c, 0, 79, 67
1, 15394, Control_c, 0, 64, 68
1, 15409, Control_c, 0, 64, 70
1, 15424, Control_c, 0, 64, 72
1, 15439, Control_c, 0, 64, 75
1, 15454, Control_c, 0, 64, 77
1, 15454, Note_off_c, 0, 63, 63
1, 15462, Note_on_c, 0, 55, 69
1, 15469, Control_c, 0, 64, 79
1, 15481, Note_off_c, 0, 55, 65
1, 15484, Control_c, 0, 64, 81
1, 15498, Control_c, 0, 64, 83
1, 15513, Control_c, 0, 64, 84
1, 15528, Control_c, 0, 64, 85
1, 15588, Control_c, 0, 64, 83
1, 15603, Control_c, 0, 64, 74
1, 15608, Note_on_c, 0, 86, 89
1, 15612, Note_on_c, 0, 74, 87
1, 15618, Control_c, 0, 64, 64
1, 15627, Note_on_c, 0, 26, 80
1, 15633, Control_c, 0, 64, 50
1, 15636, Note_on_c, 0, 38, 77
1, 15648, Control_c, 0, 64, 0
1, 15652, Note_off_c, 0, 74, 67
1, 15660, Note_off_c, 0, 26, 66
1, 15662, Note_off_c, 0, 86, 64
1, 15690, Note_off_c, 0, 38, 0
1, 15716, Note_on_c, 0, 86, 88
1, 15717, Note_on_c, 0, 26, 70
1, 15719, Note_on_c, 0, 74, 90
1, 15728, Poly_aftertouch_c, 0, 38, 127
1, 15749, Poly_aftertouch_c, 0, 38, 0
1, 15752, Note_off_c, 0, 26, 66
1, 15755, Note_off_c, 0, 74, 64
1, 15761, Note_off_c, 0, 86, 65
1, 15833, Note_on_c, 0, 26, 69
1, 15836, Note_on_c, 0, 38, 84
1, 15839, Note_on_c, 0, 86, 101
1, 15840, Note_on_c, 0, 74, 99
1, 15847, Control_c, 0, 64, 37
1, 15862, Control_c, 0, 64, 60
1, 15865, Note_off_c, 0, 38, 68
1, 15866, Note_off_c, 0, 26, 57
1, 15877, Control_c, 0, 64, 70
1, 15878, Note_off_c, 0, 74, 65
1, 15882, Note_off_c, 0, 86, 65
1, 15892, Control_c, 0, 64, 81
1, 15907, Control_c, 0, 64, 94
1, 15922, Control_c, 0, 64, 110
1, 15936, Control_c, 0, 64, 127
1, 16080, Note_on_c, 0, 70, 77
1, 16084, Control_c, 0, 64, 79
1, 16086, Note_on_c, 0, 82, 78
1, 16086, Note_on_c, 0, 86, 87
1, 16087, Note_on_c, 0, 74, 83
1, 16094, Note_on_c, 0, 67, 60
1, 16096, Note_on_c, 0, 61, 63
1, 16099, Control_c, 0, 64, 59
1, 16110, Note_on_c, 0, 68, 24
1, 16112, Note_off_c, 0, 82, 64
1, 16114, Control_c, 0, 64, 0
1, 16129, Note_off_c, 0, 74, 59
1, 16130, Note_off_c, 0, 86, 64
1, 16138, Note_off_c, 0, 70, 62
1, 16139, Note_off_c, 0, 68, 42
1, 16140, Note_off_c, 0, 67, 61
1, 16186, Note_off_c, 0, 61, 49
1, 16189, Note_on_c, 0, 86, 83
1, 16190, Note_on_c, 0, 74, 75
1, 16230, Note_off_c, 0, 74, 61
1, 16234, Note_off_c, 0, 86, 63
1, 16292, Note_on_c, 0, 66, 70
1, 16293, Note_on_c, 0, 69, 66
1, 16294, Note_on_c, 0, 62, 64
1, 16298, Note_on_c, 0, 86, 91
1, 16301, Note_on_c, 0, 81, 90
1, 16304, Note_on_c, 0, 74, 86
1, 16321, Control_c, 0, 64, 56
1, 16323, Note_off_c, 0, 81, 66
1, 16327, Note_off_c, 0, 74, 66
1, 16331, Note_off_c, 0, 62, 65
1, 16332, Note_off_c, 0, 69, 60
1, 16336, Control_c, 0, 64, 67
1, 16340, Note_off_c, 0, 86, 62
1, 16351, Control_c, 0, 64, 77
1, 16354, Note_off_c, 0, 66, 61
1, 16366, Control_c, 0, 64, 92
1, 16381, Control_c, 0, 64, 127
1, 16512, Note_on_c, 0, 59, 57
1, 16515, Control_c, 0, 64, 82
1, 16515, Note_on_c, 0, 68, 62
1, 16517, Note_on_c, 0, 74, 84
1, 16518, Note_on_c, 0, 80, 84
1, 16521, Note_on_c, 0, 86, 84
1, 16525, Note_on_c, 0, 65, 56
1, 16530, Control_c, 0, 64, 61
1, 16550, Note_off_c, 0, 80, 66
1, 16551, Control_c, 0, 64, 0
1, 16554, Note_off_c, 0, 86, 66
1, 16557, Note_off_c, 0, 68, 63
1, 16560, Note_off_c, 0, 74, 61
1, 16590, Note_off_c, 0, 65, 60
1, 16599, Note_off_c, 0, 59, 57
1, 16625, Note_on_c, 0, 74, 81
1, 16628, Note_on_c, 0, 86, 90
1, 16668, Note_off_c, 0, 74, 63
1, 16675, Note_off_c, 0, 86, 64
1, 16727, Note_on_c, 0, 60, 69
1, 16730, Note_on_c, 0, 67, 64
1, 16739, Note_on_c, 0, 64, 57
1, 16745, Control_c, 0, 64, 53
1, 16746, Note_on_c, 0, 79, 95
1, 16748, Note_on_c, 0, 86, 92
1, 16754, Note_on_c, 0, 74, 80
1, 16759, Control_c, 0, 64, 67
1, 16770, Note_off_c, 0, 64, 65
1, 16772, Note_off_c, 0, 67, 60
1, 16774, Control_c, 0, 64, 79
1, 16777, Note_off_c, 0, 74, 67
1, 16779, Note_off_c, 0, 79, 65
1, 16781, Note_off_c, 0, 60, 64
1, 16789, Control_c, 0, 64, 114
1, 16790, Note_off_c, 0, 86, 63
1, 16804, Control_c, 0, 64, 127
1, 16937, Control_c, 0, 64, 86
1, 16941, Note_on_c, 0, 63, 72
1, 16942, Note_on_c, 0, 78, 85
1, 16945, Note_on_c, 0, 74, 76
1, 16951, Control_c, 0, 64, 61
1, 16953, Note_on_c, 0, 66, 61
1, 16956, Note_on_c, 0, 57, 66
1, 16957, Note_on_c, 0, 86, 66
1, 16962, Note_on_c, 0, 88, 61
1, 16964, Note_off_c, 0, 78, 66
1, 16966, Control_c, 0, 64, 0
1, 16970, Note_off_c, 0, 74, 67
1, 16975, Note_off_c, 0, 86, 65
1, 16982, Note_off_c, 0, 88, 40
1, 17010, Note_off_c, 0, 66, 60
1, 17031, Note_off_c, 0, 57, 61
1, 17052, Note_on_c, 0, 73, 75
1, 17054, Note_on_c, 0, 85, 82
1, 17056, Note_off_c, 0, 63, 62
1, 17072, Note_off_c, 0, 85, 73
1, 17073, Note_off_c, 0, 73, 70
1, 17154, Note_on_c, 0, 65, 66
1, 17157, Note_on_c, 0, 58, 70
1, 17157, Note_on_c, 0, 82, 89
1, 17158, Note_on_c, 0, 62, 53
1, 17161, Note_on_c, 0, 70, 74
1, 17184, Note_off_c, 0, 65, 68
1, 17186, Note_off_c, 0, 70, 69
1, 17189, Note_off_c, 0, 62, 63
1, 17195, Note_off_c, 0, 82, 65
1, 17198, Note_off_c, 0, 58, 62
1, 17249, Note_on_c, 0, 81, 75
1, 17263, Note_on_c, 0, 69, 56
1, 17282, Note_off_c, 0, 81, 61
1, 17295, Note_off_c, 0, 69, 64
1, 17364, Note_on_c, 0, 51, 67
1, 17368, Note_on_c, 0, 79, 94
1, 17371, Note_on_c, 0, 67, 81
1, 17371, Note_on_c, 0, 73, 84
1, 17373, Note_on_c, 0, 55, 65
1, 17374, Note_on_c, 0, 61, 65
1, 17390, Note_off_c, 0, 73, 73
1, 17392, Note_off_c, 0, 67, 70
1, 17401, Note_off_c, 0, 79, 67
1, 17409, Note_off_c, 0, 61, 63
1, 17445, Note_off_c, 0, 55, 58
1, 17464, Note_off_c, 0, 51, 60
1, 17581, Note_on_c, 0, 50, 67
1, 17584, Note_on_c, 0, 62, 74
1, 17586, Note_on_c, 0, 86, 92
1, 17589, Note_on_c, 0, 54, 72
1, 17589, Note_on_c, 0, 74, 86
1, 17592, Note_on_c, 0, 78, 82
1, 17597, Control_c, 0, 64, 51
1, 17605, Note_off_c, 0, 86, 70
1, 17607, Note_off_c, 0, 78, 71
1, 17608, Note_off_c, 0, 74, 73
1, 17612, Control_c, 0, 64, 64
1, 17615, Note_off_c, 0, 62, 63
1, 17625, Note_off_c, 0, 54, 61
1, 17627, Control_c, 0, 64, 73
1, 17630, Note_off_c, 0, 50, 60
1, 17642, Control_c, 0, 64, 89
1, 17656, Control_c, 0, 64, 127
1, 17789, Control_c, 0, 64, 107
1, 17790, Note_on_c, 0, 48, 69
1, 17803, Note_on_c, 0, 74, 84
1, 17804, Control_c, 0, 64, 74
1, 17806, Note_on_c, 0, 60, 66
1, 17810, Note_on_c, 0, 69, 71
1, 17814, Note_on_c, 0, 62, 64
1, 17819, Control_c, 0, 64, 55
1, 17830, Note_off_c, 0, 69, 67
1, 17831, Note_off_c, 0, 74, 60
1, 17834, Control_c, 0, 64, 0
1, 17835, Note_off_c, 0, 62, 63
1, 17852, Note_off_c, 0, 60, 58
1, 17857, Note_off_c, 0, 48, 63
1, 17892, Note_on_c, 0, 53, 68
1, 17901, Note_on_c, 0, 62, 75
1, 17906, Note_on_c, 0, 69, 55
1, 17909, Note_on_c, 0, 74, 77
1, 17913, Note_on_c, 0, 76, 71
1, 17925, Note_off_c, 0, 69, 63
1, 17931, Note_off_c, 0, 62, 62
1, 17931, Note_off_c, 0, 76, 65
1, 17946, Note_off_c, 0, 53, 61
1, 17946, Note_off_c, 0, 74, 63
1, 18005, Note_on_c, 0, 58, 68
1, 18006, Note_on_c, 0, 46, 73
1, 18010, Note_on_c, 0, 74, 87
1, 18017, Note_on_c, 0, 67, 82
1, 18023, Note_on_c, 0, 62, 77
1, 18050, Note_off_c, 0, 67, 65
1, 18050, Note_off_c, 0, 58, 64
1, 18053, Note_off_c, 0, 62, 70
1, 18073, Note_on_c, 0, 72, 5
1, 18073, Note_off_c, 0, 72, 127
1, 18098, Note_off_c, 0, 46, 55
1, 18122, Note_on_c, 0, 51, 63
1, 18208, Note_off_c, 0, 51, 61
1, 18228, Note_on_c, 0, 65, 63
1, 18231, Note_on_c, 0, 45, 67
1, 18232, Note_on_c, 0, 60, 66
1, 18234, Note_on_c, 0, 57, 68
1, 18248, Note_off_c, 0, 65, 62
1, 18261, Note_off_c, 0, 60, 70
1, 18287, Note_off_c, 0, 57, 59
1, 18295, Note_off_c, 0, 45, 61
1, 18329, Note_on_c, 0, 50, 58
1, 18375, Note_off_c, 0, 50, 59
1, 18407, Note_off_c, 0, 74, 61
1, 18429, Note_on_c, 0, 63, 77
1, 18432, Note_on_c, 0, 43, 68
1, 18435, Note_on_c, 0, 58, 73
1, 18438, Note_on_c, 0, 55, 63
1, 18469, Note_off_c, 0, 58, 64
1, 18472, Note_off_c, 0, 63, 61
1, 18497, Note_off_c, 0, 43, 63
1, 18501, Note_off_c, 0, 55, 63
1, 18537, Note_on_c, 0, 48, 60
1, 18604, Note_off_c, 0, 48, 64
1, 18632, Note_on_c, 0, 63, 72
1, 18636, Note_on_c, 0, 60, 61
1, 18638, Note_on_c, 0, 54, 67
1, 18646, Note_on_c, 0, 42, 65
1, 18646, Note_on_c, 0, 58, 51
1, 18668, Note_off_c, 0, 60, 63
1, 18679, Note_off_c, 0, 58, 65
1, 18700, Note_off_c, 0, 54, 60
1, 18709, Note_off_c, 0, 42, 59
1, 18719, Note_off_c, 0, 63, 62
1, 18732, Note_on_c, 0, 46, 57
1, 18742, Note_on_c, 0, 69, 64
1, 18761, Note_off_c, 0, 69, 65
1, 18816, Note_off_c, 0, 46, 63
1, 18844, Note_on_c, 0, 70, 74
1, 18846, Note_on_c, 0, 41, 64
1, 18850, Note_on_c, 0, 53, 64
1, 18855, Note_on_c, 0, 62, 60
1, 18886, Note_off_c, 0, 62, 65
1, 18890, Note_off_c, 0, 53, 63
1, 18898, Note_off_c, 0, 41, 57
1, 18914, Note_off_c, 0, 70, 63
1, 18952, Note_on_c, 0, 44, 63
1, 18952, Note_on_c, 0, 74, 68
1, 18988, Note_off_c, 0, 74, 62
1, 18992, Note_off_c, 0, 44, 66
1, 19052, Note_on_c, 0, 66, 75
1, 19061, Note_on_c, 0, 51, 47
1, 19063, Note_on_c, 0, 60, 52
1, 19067, Note_on_c, 0, 39, 55
1, 19091, Note_off_c, 0, 60, 59
1, 19110, Note_off_c, 0, 51, 56
1, 19111, Note_off_c, 0, 66, 61
1, 19120, Note_off_c, 0, 39, 55
1, 19140, Note_on_c, 0, 42, 59
1, 19147, Note_on_c, 0, 69, 63
1, 19173, Note_off_c, 0, 42, 64
1, 19186, Note_off_c, 0, 69, 58
1, 19261, Note_on_c, 0, 74, 86
1, 19266, Note_on_c, 0, 62, 68
1, 19267, Note_on_c, 0, 34, 56
1, 19267, Note_on_c, 0, 70, 64
1, 19272, Control_c, 0, 64, 46
1, 19272, Note_on_c, 0, 41, 47
1, 19272, Note_on_c, 0, 46, 46
1, 19278, Note_off_c, 0, 74, 72
1, 19283, Note_off_c, 0, 62, 66
1, 19284, Note_off_c, 0, 70, 65
1, 19287, Control_c, 0, 64, 62
1, 19295, Note_off_c, 0, 34, 58
1, 19302, Control_c, 0, 64, 74
1, 19302, Note_off_c, 0, 46, 54
1, 19303, Note_off_c, 0, 41, 49
1, 19317, Control_c, 0, 64, 99
1, 19332, Control_c, 0, 64, 127
1, 19450, Control_c, 0, 64, 122
1, 19464, Control_c, 0, 64, 75
1, 19479, Control_c, 0, 64, 53
1, 19484, Note_on_c, 0, 54, 71
1, 19485, Note_on_c, 0, 48, 63
1, 19494, Control_c, 0, 64, 0
1, 19509, Control_c, 0, 67, 19
1, 19524, Control_c, 0, 67, 23
1, 19546, Control_c, 0, 67, 28
1, 19551, Note_off_c, 0, 48, 59
1, 19560, Note_off_c, 0, 54, 62
1, 19561, Control_c, 0, 67, 32
1, 19577, Control_c, 0, 67, 37
1, 19591, Control_c, 0, 67, 42
1, 19595, Note_on_c, 0, 57, 54
1, 19600, Note_on_c, 0, 50, 55
1, 19606, Control_c, 0, 67, 48
1, 19621, Control_c, 0, 67, 54
1, 19636, Note_off_c, 0, 57, 61
1, 19636, Control_c, 0, 67, 62
1, 19648, Note_off_c, 0, 50, 57
1, 19651, Control_c, 0, 67, 67
1, 19666, Control_c, 0, 67, 71
1, 19681, Control_c, 0, 67, 75
1, 19695, Control_c, 0, 67, 79
1, 19710, Control_c, 0, 67, 82
1, 19711, Note_on_c, 0, 46, 60
1, 19716, Note_on_c, 0, 62, 59
1, 19717, Note_on_c, 0, 55, 53
1, 19725, Control_c, 0, 67, 85
1, 19733, Note_on_c, 0, 58, 25
1, 19740, Note_off_c, 0, 55, 58
1, 19740, Control_c, 0, 67, 87
1, 19755, Control_c, 0, 67, 89
1, 19756, Note_off_c, 0, 46, 62
1, 19761, Note_off_c, 0, 58, 48
1, 19769, Control_c, 0, 67, 91
1, 19784, Control_c, 0, 67, 93
1, 19799, Control_c, 0, 67, 95
1, 19804, Note_on_c, 0, 50, 51
1, 19814, Control_c, 0, 67, 97
1, 19843, Control_c, 0, 67, 99
1, 19853, Note_off_c, 0, 50, 56
1, 19922, Note_on_c, 0, 45, 58
1, 19928, Note_on_c, 0, 54, 51
1, 19931, Note_on_c, 0, 60, 47
1, 19952, Note_off_c, 0, 54, 59
1, 19965, Note_off_c, 0, 60, 55
1, 19970, Note_off_c, 0, 45, 59
1, 20007, Control_c, 0, 67, 97
1, 20014, Note_on_c, 0, 50, 48
1, 20066, Control_c, 0, 67, 96
1, 20069, Note_off_c, 0, 50, 51
1, 20126, Note_on_c, 0, 43, 52
1, 20136, Note_on_c, 0, 46, 47
1, 20136, Note_on_c, 0, 58, 49
1, 20141, Note_on_c, 0, 55, 47
1, 20164, Note_off_c, 0, 55, 55
1, 20170, Note_off_c, 0, 58, 64
1, 20173, Note_off_c, 0, 43, 64
1, 20176, Note_off_c, 0, 46, 64
1, 20235, Note_on_c, 0, 50, 52
1, 20270, Note_off_c, 0, 50, 60
1, 20283, Note_off_c, 0, 62, 64
1, 20349, Note_on_c, 0, 58, 66
1, 20360, Note_on_c, 0, 54, 42
1, 20362, Note_on_c, 0, 40, 41
1, 20363, Note_on_c, 0, 42, 54
1, 20389, Note_off_c, 0, 54, 55
1, 20393, Note_off_c, 0, 58, 60
1, 20402, Note_off_c, 0, 40, 53
1, 20444, Note_on_c, 0, 61, 66
1, 20455, Note_off_c, 0, 42, 60
1, 20501, Note_off_c, 0, 61, 58
1, 20552, Note_on_c, 0, 66, 74
1, 20554, Poly_aftertouch_c, 0, 46, 0
1, 20575, Note_on_c, 0, 54, 41
1, 20578, Note_on_c, 0, 38, 44
1, 20578, Note_on_c, 0, 59, 34
1, 20579, Note_on_c, 0, 42, 37
1, 20602, Note_off_c, 0, 54, 56
1, 20605, Note_off_c, 0, 59, 49
1, 20614, Note_off_c, 0, 42, 48
1, 20617, Note_off_c, 0, 38, 59
1, 20660, Note_on_c, 0, 47, 56
1, 20703, Note_off_c, 0, 47, 62
1, 20763, Note_on_c, 0, 37, 47
1, 20773, Note_on_c, 0, 64, 60
1, 20785, Note_on_c, 0, 58, 49
1, 20789, Note_on_c, 0, 42, 37
1, 20798, Note_on_c, 0, 54, 29
1, 20823, Note_off_c, 0, 58, 54
1, 20827, Note_off_c, 0, 37, 59
1, 20832, Note_off_c, 0, 54, 43
1, 20841, Note_off_c, 0, 42, 58
1, 20854, Note_on_c, 0, 49, 61
1, 20866, Note_off_c, 0, 64, 54
1, 20909, Note_off_c, 0, 49, 59
1, 20918, Control_c, 0, 67, 95
1, 20965, Note_on_c, 0, 42, 54
1, 20974, Note_on_c, 0, 35, 66
1, 20974, Note_on_c, 0, 62, 66
1, 20986, Note_on_c, 0, 59, 51
1, 20989, Note_on_c, 0, 54, 42
1, 20992, Control_c, 0, 64, 37
1, 21006, Note_off_c, 0, 59, 61
1, 21007, Control_c, 0, 64, 55
1, 21013, Note_off_c, 0, 62, 63
1, 21016, Note_off_c, 0, 66, 61
1, 21019, Note_off_c, 0, 54, 50
1, 21022, Control_c, 0, 64, 65
1, 21023, Note_off_c, 0, 35, 61
1, 21044, Control_c, 0, 64, 70
1, 21059, Control_c, 0, 64, 74
1, 21074, Control_c, 0, 64, 77
1, 21079, Note_on_c, 0, 50, 64
1, 21079, Note_off_c, 0, 42, 62
1, 21089, Control_c, 0, 64, 79
1, 21104, Control_c, 0, 64, 80
1, 21109, Note_off_c, 0, 50, 64
1, 21118, Control_c, 0, 64, 81
1, 21148, Control_c, 0, 64, 80
1, 21148, Control_c, 0, 67, 95
1, 21163, Control_c, 0, 64, 79
1, 21179, Control_c, 0, 64, 73
1, 21194, Control_c, 0, 64, 66
1, 21202, Note_on_c, 0, 62, 64
1, 21208, Note_on_c, 0, 58, 59
1, 21209, Control_c, 0, 64, 59
1, 21210, Note_on_c, 0, 44, 49
1, 21216, Note_on_c, 0, 53, 50
1, 21220, Note_on_c, 0, 46, 48
1, 21223, Control_c, 0, 64, 46
1, 21238, Control_c, 0, 64, 0
1, 21238, Control_c, 0, 67, 94
1, 21247, Note_off_c, 0, 58, 60
1, 21258, Note_off_c, 0, 53, 61
1, 21265, Note_off_c, 0, 62, 62
1, 21283, Note_off_c, 0, 44, 43
1, 21287, Note_off_c, 0, 46, 62
1, 21296, Note_on_c, 0, 65, 65
1, 21311, Note_on_c, 0, 50, 51
1, 21327, Control_c, 0, 67, 94
1, 21341, Control_c, 0, 67, 93
1, 21355, Note_off_c, 0, 65, 63
1, 21355, Note_off_c, 0, 50, 52
1, 21371, Control_c, 0, 67, 93
1, 21411, Note_on_c, 0, 54, 62
1, 21412, Note_on_c, 0, 66, 63
1, 21415, Control_c, 0, 64, 44
1, 21418, Note_on_c, 0, 42, 63
1, 21419, Note_on_c, 0, 58, 45
1, 21419, Note_on_c, 0, 70, 54
1, 21421, Note_on_c, 0, 63, 45
1, 21428, Note_on_c, 0, 46, 60
1, 21430, Control_c, 0, 64, 62
1, 21434, Note_off_c, 0, 66, 64
1, 21445, Control_c, 0, 64, 69
1, 21445, Control_c, 0, 67, 92
1, 21446, Note_off_c, 0, 58, 56
1, 21446, Note_off_c, 0, 70, 64
1, 21448, Note_off_c, 0, 63, 55
1, 21460, Control_c, 0, 64, 74
1, 21465, Note_off_c, 0, 42, 63
1, 21474, Note_off_c, 0, 54, 54
1, 21474, Control_c, 0, 64, 78
1, 21487, Note_off_c, 0, 46, 62
1, 21489, Control_c, 0, 64, 80
1, 21489, Control_c, 0, 67, 92
1, 21504, Control_c, 0, 64, 82
1, 21508, Note_on_c, 0, 51, 58
1, 21519, Control_c, 0, 64, 84
1, 21532, Note_off_c, 0, 51, 60
1, 21534, Control_c, 0, 64, 86
1, 21548, Control_c, 0, 64, 86
1, 21593, Control_c, 0, 64, 85
1, 21608, Control_c, 0, 64, 78
1, 21621, Note_on_c, 0, 57, 71
1, 21622, Control_c, 0, 64, 66
1, 21622, Control_c, 0, 67, 91
1, 21629, Note_on_c, 0, 66, 75
1, 21630, Note_on_c, 0, 48, 66
1, 21635, Note_on_c, 0, 50, 55
1, 21636, Note_on_c, 0, 62, 62
1, 21637, Control_c, 0, 64, 52
1, 21637, Control_c, 0, 67, 90
1, 21652, Control_c, 0, 64, 0
1, 21652, Control_c, 0, 67, 89
1, 21666, Control_c, 0, 67, 87
1, 21669, Note_off_c, 0, 48, 59
1, 21671, Note_off_c, 0, 57, 54
1, 21681, Control_c, 0, 67, 86
1, 21693, Note_off_c, 0, 62, 55
1, 21696, Control_c, 0, 67, 86
1, 21705, Note_off_c, 0, 66, 56
1, 21707, Note_on_c, 0, 54, 67
1, 21711, Control_c, 0, 67, 85
1, 21722, Note_on_c, 0, 69, 69
1, 21726, Control_c, 0, 67, 83
1, 21741, Control_c, 0, 67, 82
1, 21756, Control_c, 0, 67, 80
1, 21763, Note_off_c, 0, 50, 47
1, 21770, Control_c, 0, 67, 79
1, 21779, Note_off_c, 0, 69, 62
1, 21792, Control_c, 0, 67, 77
1, 21807, Control_c, 0, 67, 75
1, 21821, Note_off_c, 0, 54, 62
1, 21822, Control_c, 0, 67, 73
1, 21835, Note_on_c, 0, 70, 82
1, 21836, Note_on_c, 0, 62, 71
1, 21837, Control_c, 0, 67, 72
1, 21840, Note_on_c, 0, 67, 68
1, 21842, Note_on_c, 0, 58, 57
1, 21844, Note_on_c, 0, 46, 64
1, 21845, Note_on_c, 0, 74, 69
1, 21852, Control_c, 0, 67, 70
1, 21859, Note_off_c, 0, 67, 68
1, 21863, Note_off_c, 0, 62, 68
1, 21866, Note_on_c, 0, 50, 39
1, 21866, Control_c, 0, 64, 56
1, 21866, Control_c, 0, 67, 66
1, 21871, Note_off_c, 0, 74, 65
1, 21873, Note_off_c, 0, 70, 65
1, 21881, Control_c, 0, 64, 66
1, 21881, Control_c, 0, 67, 62
1, 21896, Control_c, 0, 64, 71
1, 21896, Control_c, 0, 67, 58
1, 21911, Control_c, 0, 64, 75
1, 21911, Control_c, 0, 67, 57
1, 21926, Control_c, 0, 64, 78
1, 21928, Note_on_c, 0, 55, 64
1, 21930, Note_off_c, 0, 46, 64
1, 21930, Note_off_c, 0, 58, 63
1, 21930, Note_off_c, 0, 50, 63
1, 21940, Control_c, 0, 64, 80
1, 21955, Note_off_c, 0, 55, 64
1, 21955, Control_c, 0, 64, 82
1, 21955, Control_c, 0, 67, 57
1, 21971, Control_c, 0, 64, 82
1, 21986, Control_c, 0, 64, 83
1, 22001, Control_c, 0, 64, 83
1, 22031, Control_c, 0, 67, 56
1, 22045, Control_c, 0, 64, 83
1, 22045, Control_c, 0, 67, 56
1, 22060, Control_c, 0, 64, 79
1, 22060, Control_c, 0, 67, 54
1, 22070, Note_on_c, 0, 62, 76
1, 22072, Note_on_c, 0, 71, 86
1, 22074, Note_on_c, 0, 67, 76
1, 22075, Note_on_c, 0, 53, 70
1, 22075, Control_c, 0, 64, 70
1, 22075, Control_c, 0, 67, 49
1, 22078, Note_on_c, 0, 55, 55
1, 22089, Control_c, 0, 64, 59
1, 22089, Control_c, 0, 67, 43
1, 22104, Control_c, 0, 64, 32
1, 22104, Control_c, 0, 67, 36
1, 22119, Control_c, 0, 64, 0
1, 22119, Control_c, 0, 67, 28
1, 22131, Note_off_c, 0, 67, 61
1, 22134, Control_c, 0, 67, 19
1, 22138, Note_on_c, 0, 59, 52
1, 22146, Note_off_c, 0, 71, 63
1, 22149, Control_c, 0, 67, 0
1, 22155, Note_off_c, 0, 53, 62
1, 22159, Note_off_c, 0, 62, 50
1, 22168, Note_on_c, 0, 74, 79
1, 22209, Note_off_c, 0, 59, 63
1, 22224, Note_off_c, 0, 74, 64
1, 22280, Note_on_c, 0, 75, 87
1, 22281, Note_on_c, 0, 72, 80
1, 22283, Note_on_c, 0, 63, 83
1, 22285, Note_on_c, 0, 79, 80
1, 22286, Note_on_c, 0, 67, 70
1, 22286, Note_on_c, 0, 60, 75
1, 22290, Note_on_c, 0, 51, 73
1, 22303, Note_off_c, 0, 63, 70
1, 22303, Note_off_c, 0, 72, 71
1, 22310, Note_off_c, 0, 60, 71
1, 22311, Note_off_c, 0, 67, 68
1, 22313, Control_c, 0, 64, 56
1, 22322, Note_off_c, 0, 51, 64
1, 22324, Note_off_c, 0, 55, 64
1, 22328, Control_c, 0, 64, 69
1, 22333, Note_off_c, 0, 79, 61
1, 22334, Note_off_c, 0, 75, 65
1, 22343, Control_c, 0, 64, 79
1, 22346, Note_on_c, 0, 61, 3
1, 22358, Control_c, 0, 64, 97
1, 22372, Control_c, 0, 64, 127
1, 22387, Note_off_c, 0, 61, 52
1, 22490, Control_c, 0, 64, 103
1, 22505, Control_c, 0, 64, 69
1, 22520, Control_c, 0, 64, 45
1, 22543, Control_c, 0, 64, 35
1, 22554, Note_on_c, 0, 40, 69
1, 22556, Note_on_c, 0, 45, 74
1, 22557, Note_on_c, 0, 33, 75
1, 22557, Note_on_c, 0, 81, 93
1, 22557, Control_c, 0, 64, 49
1, 22559, Note_on_c, 0, 73, 83
1, 22563, Note_on_c, 0, 69, 86
1, 22572, Control_c, 0, 64, 61
1, 22587, Control_c, 0, 64, 69
1, 22602, Control_c, 0, 64, 85
1, 22604, Note_off_c, 0, 45, 54
1, 22610, Note_off_c, 0, 73, 63
1, 22611, Note_off_c, 0, 69, 64
1, 22616, Control_c, 0, 64, 127
1, 22621, Note_off_c, 0, 81, 64
1, 22658, Note_off_c, 0, 33, 53
1, 22674, Note_off_c, 0, 40, 26
1, 22781, Control_c, 0, 64, 86
1, 22795, Control_c, 0, 64, 63
1, 22810, Control_c, 0, 64, 50
1, 22825, Control_c, 0, 64, 57
1, 22827, Note_on_c, 0, 33, 65
1, 22834, Note_on_c, 0, 40, 68
1, 22834, Note_on_c, 0, 81, 92
1, 22838, Note_on_c, 0, 69, 81
1, 22840, Note_on_c, 0, 73, 76
1, 22840, Control_c, 0, 64, 66
1, 22847, Note_on_c, 0, 45, 55
1, 22852, Note_off_c, 0, 81, 69
1, 22855, Note_off_c, 0, 73, 68
1, 22855, Control_c, 0, 64, 79
1, 22857, Note_off_c, 0, 69, 69
1, 22859, Note_off_c, 0, 33, 65
1, 22862, Note_off_c, 0, 40, 65
1, 22869, Control_c, 0, 64, 127
1, 22874, Note_off_c, 0, 45, 54
1, 23121, Control_c, 0, 64, 74
1, 23135, Note_on_c, 0, 41, 55
1, 23136, Control_c, 0, 64, 52
1, 23136, Control_c, 0, 67, 19
1, 23139, Note_on_c, 0, 61, 61
1, 23140, Note_on_c, 0, 69, 64
1, 23151, Control_c, 0, 64, 0
1, 23164, Note_off_c, 0, 61, 58
1, 23166, Control_c, 0, 67, 22
1, 23177, Note_off_c, 0, 69, 55
1, 23180, Control_c, 0, 67, 25
1, 23191, Note_off_c, 0, 41, 51
1, 23195, Control_c, 0, 67, 27
1, 23210, Control_c, 0, 67, 29
1, 23225, Control_c, 0, 67, 32
1, 23239, Control_c, 0, 67, 35
1, 23242, Note_on_c, 0, 60, 52
1, 23245, Note_on_c, 0, 48, 52
1, 23254, Control_c, 0, 67, 38
1, 23266, Note_off_c, 0, 60, 62
1, 23269, Control_c, 0, 67, 41
1, 23291, Note_off_c, 0, 48, 61
1, 23291, Control_c, 0, 67, 45
1, 23306, Control_c, 0, 67, 49
1, 23321, Control_c, 0, 67, 50
1, 23335, Control_c, 0, 67, 51
1, 23344, Note_on_c, 0, 64, 54
1, 23351, Note_on_c, 0, 45, 58
1, 23358, Note_on_c, 0, 69, 53
1, 23370, Note_on_c, 0, 61, 10
1, 23383, Note_off_c, 0, 64, 62
1, 23394, Note_off_c, 0, 69, 63
1, 23395, Note_off_c, 0, 45, 60
1, 23416, Note_off_c, 0, 61, 37
1, 23425, Control_c, 0, 67, 50
1, 23439, Note_on_c, 0, 60, 50
1, 23443, Note_on_c, 0, 52, 47
1, 23454, Control_c, 0, 67, 50
1, 23464, Note_off_c, 0, 60, 64
1, 23469, Control_c, 0, 67, 49
1, 23476, Note_off_c, 0, 52, 63
1, 23484, Control_c, 0, 67, 48
1, 23499, Control_c, 0, 67, 48
1, 23535, Note_on_c, 0, 65, 68
1, 23535, Note_on_c, 0, 48, 68
1, 23538, Note_on_c, 0, 61, 57
1, 23538, Note_on_c, 0, 69, 70
1, 23559, Control_c, 0, 67, 47
1, 23566, Note_off_c, 0, 61, 61
1, 23571, Note_off_c, 0, 65, 63
1, 23583, Note_off_c, 0, 69, 62
1, 23591, Note_off_c, 0, 48, 59
1, 23625, Note_on_c, 0, 60, 61
1, 23635, Note_on_c, 0, 53, 60
1, 23655, Note_off_c, 0, 60, 67
1, 23671, Note_off_c, 0, 53, 61
1, 23731, Note_on_c, 0, 66, 75
1, 23733, Note_on_c, 0, 69, 75
1, 23736, Control_c, 0, 67, 48
1, 23738, Note_on_c, 0, 61, 69
1, 23742, Note_on_c, 0, 49, 73
1, 23766, Note_off_c, 0, 61, 67
1, 23780, Note_off_c, 0, 66, 60
1, 23781, Control_c, 0, 67, 48
1, 23786, Note_off_c, 0, 69, 61
1, 23807, Note_off_c, 0, 49, 63
1, 23841, Note_on_c, 0, 54, 56
1, 23844, Note_on_c, 0, 60, 46
1, 23869, Note_off_c, 0, 60, 57
1, 23884, Control_c, 0, 67, 48
1, 23889, Note_off_c, 0, 54, 61
1, 23899, Control_c, 0, 67, 47
1, 23914, Control_c, 0, 67, 47
1, 23929, Control_c, 0, 67, 46
1, 23938, Note_on_c, 0, 65, 62
1, 23939, Note_on_c, 0, 69, 66
1, 23940, Note_on_c, 0, 48, 49
1, 23950, Note_on_c, 0, 61, 54
1, 23958, Control_c, 0, 67, 45
1, 23988, Control_c, 0, 67, 44
1, 23991, Note_off_c, 0, 61, 54
1, 23999, Note_off_c, 0, 48, 60
1, 24003, Control_c, 0, 67, 44
1, 24005, Note_off_c, 0, 65, 62
1, 24009, Note_off_c, 0, 69, 58
1, 24018, Control_c, 0, 67, 43
1, 24040, Control_c, 0, 67, 43
1, 24041, Note_on_c, 0, 60, 53
1, 24050, Note_on_c, 0, 53, 54
1, 24069, Control_c, 0, 67, 42
1, 24081, Note_off_c, 0, 60, 65
1, 24084, Note_off_c, 0, 53, 64
1, 24140, Note_on_c, 0, 64, 57
1, 24154, Note_on_c, 0, 61, 48
1, 24159, Note_on_c, 0, 69, 53
1, 24173, Control_c, 0, 67, 42
1, 24175, Note_on_c, 0, 45, 38
1, 24178, Note_off_c, 0, 64, 62
1, 24182, Note_off_c, 0, 61, 58
1, 24201, Note_off_c, 0, 69, 61
1, 24206, Note_off_c, 0, 45, 52
1, 24218, Control_c, 0, 67, 42
1, 24235, Note_on_c, 0, 60, 61
1, 24248, Note_on_c, 0, 52, 50
1, 24271, Note_off_c, 0, 60, 63
1, 24280, Note_off_c, 0, 52, 54
1, 24326, Note_on_c, 0, 41, 57
1, 24336, Control_c, 0, 67, 43
1, 24343, Note_on_c, 0, 61, 47
1, 24345, Note_on_c, 0, 69, 63
1, 24349, Note_on_c, 0, 65, 56
1, 24379, Note_off_c, 0, 61, 59
1, 24385, Note_off_c, 0, 65, 64
1, 24394, Note_off_c, 0, 41, 52
1, 24404, Note_off_c, 0, 69, 59
1, 24426, Note_on_c, 0, 48, 60
1, 24432, Note_on_c, 0, 60, 60
1, 24453, Note_off_c, 0, 48, 64
1, 24471, Control_c, 0, 67, 42
1, 24472, Note_off_c, 0, 60, 66
1, 24486, Control_c, 0, 67, 41
1, 24501, Control_c, 0, 67, 38
1, 24516, Control_c, 0, 67, 31
1, 24531, Control_c, 0, 64, 37
1, 24531, Control_c, 0, 67, 0
1, 24539, Note_on_c, 0, 57, 91
1, 24543, Note_on_c, 0, 33, 81
1, 24546, Control_c, 0, 64, 55
1, 24546, Note_on_c, 0, 45, 77
1, 24560, Control_c, 0, 64, 68
1, 24565, Note_off_c, 0, 33, 66
1, 24566, Note_off_c, 0, 57, 66
1, 24572, Note_off_c, 0, 45, 65
1, 24575, Control_c, 0, 64, 92
1, 24590, Control_c, 0, 64, 127
1, 24796, Note_on_c, 0, 81, 94
1, 24798, Note_on_c, 0, 73, 88
1, 24802, Note_on_c, 0, 69, 80
1, 24804, Note_on_c, 0, 77, 76
1, 24811, Note_on_c, 0, 67, 54
1, 24813, Note_on_c, 0, 65, 57
1, 24821, Note_on_c, 0, 55, 34
1, 24821, Note_on_c, 0, 58, 45
1, 24828, Note_off_c, 0, 73, 62
1, 24828, Note_off_c, 0, 77, 67
1, 24829, Note_on_c, 0, 53, 15
1, 24829, Note_off_c, 0, 69, 63
1, 24832, Note_off_c, 0, 81, 67
1, 24832, Note_off_c, 0, 67, 61
1, 24835, Note_off_c, 0, 65, 62
1, 24848, Note_off_c, 0, 58, 57
1, 24854, Note_off_c, 0, 55, 49
1, 24875, Note_off_c, 0, 53, 38
1, 25028, Note_on_c, 0, 69, 82
1, 25038, Note_on_c, 0, 57, 58
1, 25043, Note_on_c, 0, 55, 67
1, 25071, Note_off_c, 0, 55, 65
1, 25073, Note_off_c, 0, 57, 64
1, 25116, Note_on_c, 0, 65, 82
1, 25122, Note_off_c, 0, 69, 59
1, 25138, Note_on_c, 0, 53, 47
1, 25187, Note_off_c, 0, 53, 44
1, 25207, Note_off_c, 0, 65, 61
1, 25210, Note_on_c, 0, 61, 76
1, 25213, Note_on_c, 0, 49, 67
1, 25264, Note_off_c, 0, 61, 60
1, 25296, Note_off_c, 0, 49, 61
1, 25298, Note_on_c, 0, 58, 70
1, 25310, Note_on_c, 0, 46, 50
1, 25336, Note_off_c, 0, 58, 63
1, 25342, Note_off_c, 0, 46, 55
1, 25381, Control_c, 0, 64, 88
1, 25396, Control_c, 0, 64, 62
1, 25411, Control_c, 0, 64, 0
1, 25418, Note_on_c, 0, 53, 90
1, 25425, Note_on_c, 0, 29, 78
1, 25428, Note_on_c, 0, 41, 72
1, 25440, Control_c, 0, 64, 47
1, 25448, Note_off_c, 0, 53, 66
1, 25451, Note_off_c, 0, 29, 65
1, 25455, Control_c, 0, 64, 64
1, 25457, Note_off_c, 0, 41, 62
1, 25470, Control_c, 0, 64, 74
1, 25485, Control_c, 0, 64, 100
1, 25500, Control_c, 0, 64, 127
1, 25681, Note_on_c, 0, 73, 94
1, 25683, Note_on_c, 0, 61, 75
1, 25684, Note_on_c, 0, 68, 85
1, 25686, Note_on_c, 0, 56, 72
1, 25691, Note_on_c, 0, 49, 69
1, 25703, Note_off_c, 0, 68, 72
1, 25707, Note_off_c, 0, 61, 69
1, 25710, Note_off_c, 0, 73, 58
1, 25711, Note_off_c, 0, 56, 65
1, 25720, Note_off_c, 0, 49, 65
1, 26125, Note_on_c, 0, 65, 81
1, 26128, Note_on_c, 0, 89, 89
1, 26132, Note_on_c, 0, 77, 81
1, 26162, Note_off_c, 0, 65, 61
1, 26164, Note_off_c, 0, 77, 62
1, 26170, Note_off_c, 0, 89, 63
1, 26190, Control_c, 0, 64, 91
1, 26204, Control_c, 0, 64, 69
1, 26217, Note_on_c, 0, 89, 78
1, 26219, Control_c, 0, 64, 56
1, 26220, Note_on_c, 0, 77, 79
1, 26221, Note_on_c, 0, 65, 71
1, 26234, Control_c, 0, 64, 33
1, 26249, Control_c, 0, 64, 0
1, 26266, Note_off_c, 0, 65, 63
1, 26266, Note_off_c, 0, 77, 65
1, 26268, Note_off_c, 0, 89, 64
1, 26316, Control_c, 0, 64, 32
1, 26330, Control_c, 0, 64, 57
1, 26331, Note_on_c, 0, 65, 76
1, 26338, Note_on_c, 0, 77, 89
1, 26342, Note_on_c, 0, 89, 83
1, 26345, Control_c, 0, 64, 78
1, 26355, Note_off_c, 0, 65, 70
1, 26360, Control_c, 0, 64, 127
1, 26361, Note_off_c, 0, 89, 71
1, 26370, Note_off_c, 0, 77, 66
1, 26565, Note_on_c, 0, 37, 46
1, 26568, Note_on_c, 0, 65, 74
1, 26573, Note_on_c, 0, 57, 59
1, 26582, Control_c, 0, 64, 78
1, 26591, Note_on_c, 0, 61, 13
1, 26597, Control_c, 0, 64, 57
1, 26611, Control_c, 0, 64, 0
1, 26625, Note_off_c, 0, 57, 55
1, 26626, Note_off_c, 0, 37, 57
1, 26626, Note_off_c, 0, 65, 53
1, 26637, Note_on_c, 0, 44, 56
1, 26641, Note_off_c, 0, 61, 35
1, 26668, Note_on_c, 0, 56, 64
1, 26700, Note_off_c, 0, 56, 63
1, 26721, Note_off_c, 0, 44, 57
1, 26746, Note_on_c, 0, 41, 48
1, 26772, Note_on_c, 0, 57, 61
1, 26773, Note_on_c, 0, 60, 57
1, 26775, Control_c, 0, 67, 19
1, 26783, Note_on_c, 0, 65, 59
1, 26796, Note_off_c, 0, 41, 61
1, 26805, Control_c, 0, 67, 22
1, 26820, Note_off_c, 0, 60, 59
1, 26824, Note_off_c, 0, 57, 60
1, 26827, Note_off_c, 0, 65, 46
1, 26841, Note_on_c, 0, 48, 56
1, 26871, Note_on_c, 0, 56, 48
1, 26887, Note_off_c, 0, 48, 60
1, 26897, Note_off_c, 0, 56, 60
1, 26909, Control_c, 0, 67, 24
1, 26963, Note_on_c, 0, 44, 56
1, 26969, Note_on_c, 0, 61, 65
1, 26969, Note_on_c, 0, 57, 63
1, 26996, Note_on_c, 0, 65, 57
1, 27012, Note_off_c, 0, 57, 60
1, 27017, Note_off_c, 0, 44, 58
1, 27018, Note_off_c, 0, 65, 61
1, 27020, Note_off_c, 0, 61, 57
1, 27077, Note_on_c, 0, 49, 55
1, 27085, Note_on_c, 0, 56, 37
1, 27112, Note_off_c, 0, 49, 64
1, 27116, Note_off_c, 0, 56, 47
1, 27182, Note_on_c, 0, 62, 67
1, 27183, Control_c, 0, 67, 26
1, 27190, Note_on_c, 0, 45, 68
1, 27190, Note_on_c, 0, 65, 78
1, 27193, Note_on_c, 0, 57, 61
1, 27220, Note_off_c, 0, 62, 65
1, 27225, Note_off_c, 0, 65, 64
1, 27227, Control_c, 0, 67, 28
1, 27231, Note_off_c, 0, 57, 62
1, 27243, Note_off_c, 0, 45, 58
1, 27291, Note_on_c, 0, 50, 52
1, 27317, Note_on_c, 0, 56, 7
1, 27345, Note_off_c, 0, 50, 54
1, 27364, Note_off_c, 0, 56, 35
1, 27383, Note_on_c, 0, 61, 64
1, 27389, Note_on_c, 0, 57, 59
1, 27394, Note_on_c, 0, 44, 56
1, 27402, Note_on_c, 0, 65, 64
1, 27444, Note_off_c, 0, 61, 59
1, 27459, Note_off_c, 0, 65, 57
1, 27470, Note_off_c, 0, 44, 60
1, 27478, Note_off_c, 0, 57, 54
1, 27489, Note_on_c, 0, 49, 50
1, 27494, Control_c, 0, 67, 26
1, 27497, Note_on_c, 0, 56, 46
1, 27526, Note_off_c, 0, 49, 60
1, 27536, Note_off_c, 0, 56, 54
1, 27592, Note_on_c, 0, 60, 53
1, 27598, Note_on_c, 0, 57, 59
1, 27603, Note_on_c, 0, 65, 54
1, 27616, Note_on_c, 0, 41, 34
1, 27623, Note_on_c, 0, 40, 33
1, 27647, Note_off_c, 0, 65, 63
1, 27649, Note_off_c, 0, 57, 61
1, 27650, Note_off_c, 0, 41, 55
1, 27660, Note_off_c, 0, 40, 42
1, 27664, Note_off_c, 0, 60, 64
1, 27688, Note_on_c, 0, 56, 61
1, 27691, Note_on_c, 0, 48, 58
1, 27724, Note_off_c, 0, 56, 61
1, 27796, Note_on_c, 0, 61, 58
1, 27797, Note_off_c, 0, 48, 37
1, 27798, Note_on_c, 0, 57, 48
1, 27811, Note_on_c, 0, 37, 54
1, 27812, Note_on_c, 0, 65, 58
1, 27852, Note_off_c, 0, 57, 61
1, 27863, Note_off_c, 0, 65, 63
1, 27869, Note_off_c, 0, 61, 61
1, 27884, Note_off_c, 0, 37, 59
1, 27889, Note_on_c, 0, 56, 65
1, 27899, Note_on_c, 0, 44, 45
1, 27920, Note_off_c, 0, 56, 65
1, 27929, Note_off_c, 0, 44, 53
1, 27976, Control_c, 0, 67, 23
1, 28002, Note_on_c, 0, 53, 92
1, 28006, Control_c, 0, 64, 50
1, 28006, Control_c, 0, 67, 20
1, 28007, Note_on_c, 0, 41, 77
1, 28008, Note_on_c, 0, 29, 69
1, 28021, Control_c, 0, 64, 66
1, 28031, Note_off_c, 0, 53, 65
1, 28034, Note_off_c, 0, 41, 64
1, 28035, Control_c, 0, 64, 85
1, 28035, Control_c, 0, 67, 0
1, 28036, Note_off_c, 0, 29, 62
1, 28050, Control_c, 0, 64, 127
1, 28254, Note_on_c, 0, 61, 76
1, 28255, Note_on_c, 0, 77, 84
1, 28256, Note_on_c, 0, 49, 74
1, 28257, Note_on_c, 0, 69, 77
1, 28257, Note_on_c, 0, 73, 77
1, 28258, Note_on_c, 0, 57, 63
1, 28259, Note_on_c, 0, 54, 61
1, 28262, Note_on_c, 0, 65, 80
1, 28279, Note_off_c, 0, 61, 67
1, 28284, Note_off_c, 0, 69, 65
1, 28287, Note_off_c, 0, 65, 69
1, 28290, Note_off_c, 0, 57, 67
1, 28292, Note_off_c, 0, 54, 64
1, 28295, Note_off_c, 0, 73, 59
1, 28295, Note_off_c, 0, 77, 64
1, 28311, Note_off_c, 0, 49, 60
1, 28479, Note_on_c, 0, 53, 69
1, 28481, Note_on_c, 0, 65, 87
1, 28546, Note_off_c, 0, 53, 58
1, 28576, Note_off_c, 0, 65, 64
1, 28579, Note_on_c, 0, 49, 67
1, 28579, Note_on_c, 0, 61, 80
1, 28651, Control_c, 0, 64, 97
1, 28665, Control_c, 0, 64, 81
1, 28668, Note_off_c, 0, 49, 61
1, 28673, Note_on_c, 0, 45, 59
1, 28677, Note_on_c, 0, 57, 73
1, 28680, Control_c, 0, 64, 69
1, 28690, Note_off_c, 0, 61, 58
1, 28695, Control_c, 0, 64, 60
1, 28710, Control_c, 0, 64, 46
1, 28725, Control_c, 0, 64, 31
1, 28735, Note_off_c, 0, 57, 66
1, 28740, Control_c, 0, 64, 0
1, 28758, Note_off_c, 0, 45, 64
1, 28760, Note_on_c, 0, 54, 73
1, 28764, Note_on_c, 0, 42, 70
1, 28786, Note_off_c, 0, 42, 66
1, 28817, Note_off_c, 0, 54, 63
1, 28884, Note_on_c, 0, 49, 97
1, 28886, Note_on_c, 0, 25, 80
1, 28888, Control_c, 0, 64, 30
1, 28894, Note_on_c, 0, 37, 75
1, 28903, Control_c, 0, 64, 63
1, 28910, Note_off_c, 0, 25, 64
1, 28918, Control_c, 0, 64, 80
1, 28921, Note_off_c, 0, 37, 64
1, 28922, Note_off_c, 0, 49, 64
1, 28932, Control_c, 0, 64, 127
1, 29160, Note_on_c, 0, 45, 75
1, 29161, Note_on_c, 0, 69, 95
1, 29165, Note_on_c, 0, 57, 76
1, 29166, Note_on_c, 0, 64, 80
1, 29170, Note_on_c, 0, 52, 69
1, 29181, Note_off_c, 0, 69, 67
1, 29186, Note_off_c, 0, 64, 72
1, 29192, Note_off_c, 0, 45, 63
1, 29194, Note_off_c, 0, 57, 65
1, 29201, Note_off_c, 0, 52, 66
1, 29637, Control_c, 0, 64, 89
1, 29638, Note_on_c, 0, 73, 88
1, 29638, Note_on_c, 0, 85, 93
1, 29642, Note_on_c, 0, 61, 87
1, 29652, Control_c, 0, 64, 73
1, 29666, Note_off_c, 0, 73, 64
1, 29667, Note_off_c, 0, 61, 66
1, 29667, Control_c, 0, 64, 61
1, 29679, Note_off_c, 0, 85, 63
1, 29682, Control_c, 0, 64, 45
1, 29697, Control_c, 0, 64, 0
1, 29732, Note_on_c, 0, 73, 88
1, 29734, Note_on_c, 0, 85, 86
1, 29738, Note_on_c, 0, 61, 88
1, 29770, Note_off_c, 0, 61, 63
1, 29773, Note_off_c, 0, 73, 63
1, 29780, Note_off_c, 0, 85, 64
1, 29845, Control_c, 0, 64, 39
1, 29846, Note_on_c, 0, 61, 91
1, 29847, Note_on_c, 0, 85, 98
1, 29848, Note_on_c, 0, 73, 91
1, 29860, Control_c, 0, 64, 62
1, 29864, Note_off_c, 0, 61, 72
1, 29867, Note_off_c, 0, 73, 70
1, 29867, Note_off_c, 0, 85, 68
1, 29874, Control_c, 0, 64, 82
1, 29889, Control_c, 0, 64, 127
1, 30072, Note_on_c, 0, 37, 85
1, 30072, Note_on_c, 0, 49, 84
1, 30075, Control_c, 0, 64, 116
1, 30090, Control_c, 0, 64, 67
1, 30096, Note_off_c, 0, 49, 71
1, 30102, Note_off_c, 0, 37, 64
1, 30105, Control_c, 0, 64, 0
1, 30194, Control_c, 0, 67, 19
1, 30223, Control_c, 0, 67, 21
1, 30238, Control_c, 0, 67, 24
1, 30253, Control_c, 0, 67, 28
1, 30268, Control_c, 0, 67, 31
1, 30283, Control_c, 0, 67, 34
1, 30285, Note_on_c, 0, 61, 74
1, 30287, Note_on_c, 0, 53, 72
1, 30295, Note_on_c, 0, 47, 75
1, 30296, Note_on_c, 0, 56, 64
1, 30297, Note_on_c, 0, 35, 72
1, 30297, Control_c, 0, 67, 39
1, 30312, Control_c, 0, 67, 43
1, 30323, Note_off_c, 0, 47, 67
1, 30327, Note_off_c, 0, 35, 62
1, 30327, Control_c, 0, 67, 45
1, 30347, Note_off_c, 0, 53, 56
1, 30370, Note_off_c, 0, 56, 57
1, 30379, Note_off_c, 0, 61, 61
1, 30387, Note_on_c, 0, 65, 68
1, 30416, Note_off_c, 0, 65, 67
1, 30430, Control_c, 0, 67, 46
1, 30491, Note_on_c, 0, 45, 73
1, 30493, Note_on_c, 0, 33, 70
1, 30516, Note_off_c, 0, 45, 65
1, 30525, Note_off_c, 0, 33, 64
1, 30534, Control_c, 0, 67, 46
1, 30549, Control_c, 0, 67, 47
1, 30564, Control_c, 0, 67, 47
1, 30683, Control_c, 0, 67, 48
1, 30697, Control_c, 0, 67, 48
1, 30711, Note_on_c, 0, 44, 51
1, 30713, Note_on_c, 0, 32, 50
1, 30718, Note_on_c, 0, 54, 54
1, 30719, Note_on_c, 0, 61, 54
1, 30721, Note_on_c, 0, 63, 54
1, 30737, Note_off_c, 0, 44, 60
1, 30743, Note_off_c, 0, 32, 55
1, 30758, Control_c, 0, 67, 49
1, 30784, Note_off_c, 0, 54, 52
1, 30794, Control_c, 0, 67, 50
1, 30809, Control_c, 0, 67, 50
1, 30814, Note_on_c, 0, 66, 54
1, 30819, Note_off_c, 0, 61, 60
1, 30819, Note_off_c, 0, 63, 61
1, 30824, Control_c, 0, 67, 51
1, 30835, Note_off_c, 0, 66, 61
1, 30839, Control_c, 0, 67, 51
1, 30853, Control_c, 0, 67, 54
1, 30868, Control_c, 0, 67, 55
1, 30898, Control_c, 0, 67, 56
1, 30928, Control_c, 0, 67, 57
1, 30932, Note_on_c, 0, 30, 58
1, 30933, Note_on_c, 0, 42, 52
1, 30943, Control_c, 0, 67, 58
1, 30958, Control_c, 0, 67, 60
1, 30970, Note_off_c, 0, 42, 60
1, 30972, Control_c, 0, 67, 62
1, 30975, Note_off_c, 0, 30, 58
1, 30987, Control_c, 0, 67, 62
1, 31147, Note_on_c, 0, 28, 50
1, 31148, Note_on_c, 0, 40, 54
1, 31150, Control_c, 0, 67, 62
1, 31157, Note_on_c, 0, 64, 57
1, 31160, Note_on_c, 0, 56, 46
1, 31163, Note_on_c, 0, 61, 41
1, 31165, Control_c, 0, 64, 34
1, 31176, Note_off_c, 0, 28, 53
1, 31179, Control_c, 0, 64, 50
1, 31187, Note_off_c, 0, 40, 61
1, 31194, Control_c, 0, 64, 62
1, 31209, Control_c, 0, 64, 67
1, 31224, Control_c, 0, 64, 71
1, 31236, Note_off_c, 0, 56, 47
1, 31239, Control_c, 0, 64, 74
1, 31253, Control_c, 0, 64, 76
1, 31259, Note_on_c, 0, 68, 55
1, 31268, Control_c, 0, 64, 77
1, 31272, Note_off_c, 0, 64, 63
1, 31275, Note_off_c, 0, 61, 60
1, 31283, Note_off_c, 0, 68, 65
1, 31283, Control_c, 0, 64, 77
1, 31353, Note_on_c, 0, 37, 71
1, 31353, Note_on_c, 0, 49, 69
1, 31384, Note_off_c, 0, 49, 66
1, 31391, Note_off_c, 0, 37, 60
1, 31417, Control_c, 0, 64, 77
1, 31491, Control_c, 0, 64, 76
1, 31505, Control_c, 0, 64, 75
1, 31505, Control_c, 0, 67, 61
1, 31527, Control_c, 0, 64, 71
1, 31527, Control_c, 0, 67, 61
1, 31542, Control_c, 0, 64, 65
1, 31558, Control_c, 0, 64, 60
1, 31558, Control_c, 0, 67, 60
1, 31565, Note_on_c, 0, 47, 73
1, 31573, Control_c, 0, 64, 53
1, 31587, Note_on_c, 0, 35, 44
1, 31588, Control_c, 0, 64, 48
1, 31594, Note_off_c, 0, 47, 67
1, 31602, Control_c, 0, 64, 42
1, 31602, Control_c, 0, 67, 59
1, 31617, Control_c, 0, 64, 37
1, 31617, Control_c, 0, 67, 59
1, 31623, Note_off_c, 0, 35, 43
1, 31632, Control_c, 0, 64, 34
1, 31647, Control_c, 0, 64, 34
1, 31662, Control_c, 0, 67, 58
1, 31667, Note_on_c, 0, 45, 69
1, 31676, Note_on_c, 0, 33, 57
1, 31676, Control_c, 0, 64, 34
1, 31676, Control_c, 0, 67, 58
1, 31695, Note_off_c, 0, 45, 65
1, 31709, Note_off_c, 0, 33, 51
1, 31774, Note_on_c, 0, 64, 60
1, 31777, Note_on_c, 0, 61, 57
1, 31782, Note_on_c, 0, 32, 62
1, 31785, Note_on_c, 0, 44, 51
1, 31802, Note_off_c, 0, 64, 67
1, 31808, Note_off_c, 0, 61, 63
1, 31809, Note_off_c, 0, 32, 58
1, 31816, Note_off_c, 0, 44, 58
1, 31825, Control_c, 0, 64, 34
1, 31840, Control_c, 0, 64, 33
1, 31855, Control_c, 0, 64, 32
1, 31866, Note_on_c, 0, 30, 64
1, 31870, Note_on_c, 0, 64, 63
1, 31880, Note_on_c, 0, 61, 52
1, 31884, Control_c, 0, 64, 30
1, 31885, Note_on_c, 0, 42, 23
1, 31895, Note_off_c, 0, 30, 63
1, 31901, Note_off_c, 0, 64, 63
1, 31903, Note_off_c, 0, 61, 59
1, 31931, Note_off_c, 0, 42, 29
1, 31942, Control_c, 0, 67, 57
1, 31957, Control_c, 0, 67, 56
1, 31964, Note_on_c, 0, 41, 72
1, 31967, Note_on_c, 0, 29, 70
1, 31970, Note_on_c, 0, 64, 63
1, 31972, Note_on_c, 0, 61, 68
1, 31972, Control_c, 0, 67, 56
1, 31987, Control_c, 0, 67, 55
1, 31992, Note_off_c, 0, 41, 65
1, 31999, Note_off_c, 0, 29, 64
1, 32001, Control_c, 0, 67, 55
1, 32007, Note_off_c, 0, 61, 61
1, 32034, Note_off_c, 0, 64, 59
1, 32069, Note_on_c, 0, 69, 65
1, 32090, Control_c, 0, 67, 55
1, 32100, Note_off_c, 0, 69, 62
1, 32167, Note_on_c, 0, 62, 82
1, 32171, Note_on_c, 0, 42, 75
1, 32174, Note_on_c, 0, 30, 75
1, 32174, Note_on_c, 0, 59, 65
1, 32213, Note_off_c, 0, 59, 61
1, 32216, Note_off_c, 0, 62, 60
1, 32239, Control_c, 0, 64, 0
1, 32239, Control_c, 0, 67, 55
1, 32254, Control_c, 0, 67, 54
1, 32281, Note_on_c, 0, 68, 80
1, 32323, Note_off_c, 0, 68, 61
1, 32378, Note_on_c, 0, 61, 77
1, 32380, Control_c, 0, 67, 55
1, 32387, Note_on_c, 0, 57, 65
1, 32395, Control_c, 0, 67, 55
1, 32423, Note_off_c, 0, 57, 64
1, 32449, Note_off_c, 0, 61, 61
1, 32454, Control_c, 0, 67, 56
1, 32473, Note_off_c, 0, 42, 62
1, 32480, Note_on_c, 0, 66, 68
1, 32502, Note_off_c, 0, 30, 62
1, 32511, Note_off_c, 0, 66, 59
1, 32514, Control_c, 0, 67, 56
1, 32529, Control_c, 0, 67, 57
1, 32543, Control_c, 0, 67, 57
1, 32566, Note_on_c, 0, 44, 70
1, 32567, Note_on_c, 0, 32, 69
1, 32567, Note_on_c, 0, 60, 64
1, 32578, Note_on_c, 0, 56, 59
1, 32598, Note_off_c, 0, 32, 63
1, 32610, Note_off_c, 0, 44, 64
1, 32618, Note_off_c, 0, 56, 62
1, 32618, Control_c, 0, 64, 29
1, 32637, Note_off_c, 0, 60, 63
1, 32664, Note_on_c, 0, 64, 64
1, 32666, Note_on_c, 0, 45, 68
1, 32670, Note_on_c, 0, 33, 63
1, 32698, Note_off_c, 0, 33, 62
1, 32701, Note_off_c, 0, 45, 65
1, 32707, Control_c, 0, 67, 57
1, 32713, Note_off_c, 0, 64, 57
1, 32722, Control_c, 0, 64, 0
1, 32722, Control_c, 0, 67, 56
1, 32751, Control_c, 0, 67, 56
1, 32765, Note_on_c, 0, 47, 78
1, 32766, Control_c, 0, 67, 55
1, 32771, Note_on_c, 0, 35, 76
1, 32782, Note_on_c, 0, 59, 62
1, 32789, Note_on_c, 0, 55, 53
1, 32796, Control_c, 0, 67, 55
1, 32860, Note_off_c, 0, 59, 54
1, 32862, Note_off_c, 0, 55, 51
1, 32870, Control_c, 0, 67, 55
1, 32885, Note_on_c, 0, 64, 60
1, 32909, Note_off_c, 0, 64, 64
1, 32986, Note_on_c, 0, 57, 62
1, 32996, Note_on_c, 0, 54, 59
1, 33025, Control_c, 0, 67, 54
1, 33049, Note_off_c, 0, 54, 59
1, 33055, Control_c, 0, 67, 54
1, 33068, Note_off_c, 0, 57, 62
1, 33084, Control_c, 0, 67, 53
1, 33098, Note_on_c, 0, 63, 55
1, 33134, Note_off_c, 0, 63, 64
1, 33196, Note_on_c, 0, 55, 68
1, 33204, Control_c, 0, 64, 30
1, 33205, Note_on_c, 0, 52, 60
1, 33219, Control_c, 0, 64, 38
1, 33234, Control_c, 0, 64, 47
1, 33241, Note_off_c, 0, 47, 61
1, 33248, Control_c, 0, 64, 52
1, 33257, Note_off_c, 0, 52, 58
1, 33263, Control_c, 0, 64, 51
1, 33263, Control_c, 0, 67, 54
1, 33278, Control_c, 0, 64, 48
1, 33278, Control_c, 0, 67, 54
1, 33285, Note_on_c, 0, 64, 63
1, 33292, Note_off_c, 0, 55, 62
1, 33293, Control_c, 0, 64, 42
1, 33308, Control_c, 0, 64, 33
1, 33313, Note_off_c, 0, 64, 67
1, 33322, Control_c, 0, 64, 0
1, 33367, Control_c, 0, 67, 55
1, 33381, Control_c, 0, 67, 55
1, 33389, Note_off_c, 0, 35, 62
1, 33396, Control_c, 0, 67, 56
1, 33407, Note_on_c, 0, 33, 66
1, 33410, Note_on_c, 0, 45, 71
1, 33530, Control_c, 0, 67, 55
1, 33620, Note_on_c, 0, 54, 60
1, 33620, Note_on_c, 0, 51, 56
1, 33637, Note_on_c, 0, 59, 53
1, 33663, Control_c, 0, 64, 40
1, 33678, Control_c, 0, 64, 45
1, 33678, Control_c, 0, 67, 55
1, 33692, Control_c, 0, 64, 40
1, 33703, Note_off_c, 0, 51, 62
1, 33707, Control_c, 0, 64, 31
1, 33707, Control_c, 0, 67, 54
1, 33719, Note_off_c, 0, 54, 64
1, 33722, Note_off_c, 0, 59, 63
1, 33722, Control_c, 0, 64, 0
1, 33723, Note_off_c, 0, 45, 63
1, 33726, Note_on_c, 0, 63, 52
1, 33737, Control_c, 0, 67, 54
1, 33748, Note_off_c, 0, 63, 60
1, 33774, Control_c, 0, 67, 53
1, 33783, Note_off_c, 0, 33, 62
1, 33849, Note_on_c, 0, 31, 66
1, 33852, Note_on_c, 0, 43, 50
1, 33879, Note_off_c, 0, 31, 60
1, 33879, Note_off_c, 0, 43, 58
1, 33953, Control_c, 0, 67, 54
1, 33968, Control_c, 0, 67, 54
1, 33983, Control_c, 0, 67, 55
1, 33997, Control_c, 0, 67, 55
1, 34061, Note_on_c, 0, 52, 61
1, 34065, Note_on_c, 0, 30, 58
1, 34069, Note_on_c, 0, 42, 43
1, 34069, Note_on_c, 0, 61, 58
1, 34072, Note_on_c, 0, 59, 47
1, 34117, Note_off_c, 0, 42, 58
1, 34138, Note_off_c, 0, 52, 61
1, 34166, Note_on_c, 0, 64, 51
1, 34166, Note_off_c, 0, 59, 63
1, 34176, Note_off_c, 0, 30, 57
1, 34178, Note_off_c, 0, 61, 61
1, 34189, Note_off_c, 0, 64, 63
1, 34264, Note_on_c, 0, 28, 63
1, 34266, Note_on_c, 0, 40, 62
1, 34278, Control_c, 0, 67, 55
1, 34334, Note_off_c, 0, 40, 55
1, 34343, Note_off_c, 0, 28, 58
1, 34397, Control_c, 0, 67, 54
1, 34427, Control_c, 0, 67, 54
1, 34442, Control_c, 0, 67, 53
1, 34484, Note_on_c, 0, 26, 57
1, 34486, Control_c, 0, 64, 31
1, 34490, Note_on_c, 0, 38, 54
1, 34499, Note_on_c, 0, 62, 52
1, 34501, Note_on_c, 0, 59, 48
1, 34501, Control_c, 0, 64, 43
1, 34504, Note_on_c, 0, 54, 51
1, 34523, Control_c, 0, 64, 53
1, 34524, Note_off_c, 0, 26, 62
1, 34538, Control_c, 0, 64, 58
1, 34541, Note_off_c, 0, 38, 60
1, 34553, Control_c, 0, 64, 59
1, 34579, Note_off_c, 0, 54, 54
1, 34597, Control_c, 0, 67, 54
1, 34606, Note_off_c, 0, 59, 63
1, 34612, Control_c, 0, 64, 59
1, 34612, Control_c, 0, 67, 54
1, 34619, Note_on_c, 0, 66, 37
1, 34619, Note_off_c, 0, 62, 62
1, 34644, Note_off_c, 0, 66, 50
1, 34656, Control_c, 0, 67, 55
1, 34686, Control_c, 0, 64, 58
1, 34701, Control_c, 0, 64, 58
1, 34704, Note_on_c, 0, 47, 70
1, 34707, Note_on_c, 0, 35, 66
1, 34715, Control_c, 0, 64, 57
1, 34730, Control_c, 0, 64, 57
1, 34766, Note_off_c, 0, 35, 57
1, 34773, Note_off_c, 0, 47, 60
1, 34806, Control_c, 0, 64, 57
1, 34835, Control_c, 0, 64, 58
1, 34880, Control_c, 0, 64, 57
1, 34895, Control_c, 0, 64, 56
1, 34902, Note_on_c, 0, 45, 75
1, 34909, Note_on_c, 0, 33, 67
1, 34910, Control_c, 0, 64, 55
1, 34925, Control_c, 0, 64, 53
1, 34925, Control_c, 0, 67, 54
1, 34933, Note_off_c, 0, 45, 68
1, 34937, Note_off_c, 0, 33, 65
1, 34939, Control_c, 0, 64, 52
1, 34939, Control_c, 0, 67, 54
1, 34954, Control_c, 0, 64, 51
1, 34954, Control_c, 0, 67, 53
1, 34969, Control_c, 0, 67, 53
1, 34984, Control_c, 0, 67, 52
1, 34999, Control_c, 0, 67, 51
1, 35008, Note_on_c, 0, 31, 74
1, 35008, Note_on_c, 0, 43, 66
1, 35037, Note_off_c, 0, 31, 63
1, 35038, Note_off_c, 0, 43, 65
1, 35043, Control_c, 0, 64, 50
1, 35072, Control_c, 0, 64, 50
1, 35102, Control_c, 0, 64, 49
1, 35102, Control_c, 0, 67, 52
1, 35104, Note_on_c, 0, 62, 68
1, 35117, Control_c, 0, 64, 48
1, 35117, Control_c, 0, 67, 52
1, 35120, Note_on_c, 0, 59, 43
1, 35131, Note_off_c, 0, 62, 66
1, 35132, Control_c, 0, 64, 48
1, 35132, Control_c, 0, 67, 53
1, 35139, Note_on_c, 0, 30, 35
1, 35143, Note_off_c, 0, 59, 57
1, 35146, Control_c, 0, 64, 47
1, 35161, Control_c, 0, 64, 47
1, 35182, Note_off_c, 0, 30, 41
1, 35191, Control_c, 0, 64, 46
1, 35191, Control_c, 0, 67, 52
1, 35193, Note_on_c, 0, 28, 71
1, 35202, Note_on_c, 0, 62, 69
1, 35203, Note_on_c, 0, 40, 56
1, 35206, Control_c, 0, 67, 51
1, 35217, Note_on_c, 0, 59, 51
1, 35220, Note_off_c, 0, 28, 63
1, 35229, Note_off_c, 0, 62, 65
1, 35232, Note_off_c, 0, 40, 62
1, 35240, Note_off_c, 0, 59, 59
1, 35250, Control_c, 0, 67, 51
1, 35272, Control_c, 0, 64, 47
1, 35287, Control_c, 0, 64, 47
1, 35299, Note_on_c, 0, 27, 86
1, 35303, Note_on_c, 0, 39, 75
1, 35313, Note_on_c, 0, 62, 70
1, 35324, Note_on_c, 0, 59, 55
1, 35331, Note_off_c, 0, 27, 68
1, 35334, Note_off_c, 0, 39, 64
1, 35357, Note_off_c, 0, 59, 63
1, 35361, Control_c, 0, 67, 51
1, 35384, Note_off_c, 0, 62, 61
1, 35406, Control_c, 0, 64, 47
1, 35406, Control_c, 0, 67, 52
1, 35408, Note_on_c, 0, 67, 64
1, 35434, Note_off_c, 0, 67, 66
1, 35465, Control_c, 0, 67, 51
1, 35495, Control_c, 0, 67, 51
1, 35503, Note_on_c, 0, 40, 69
1, 35509, Note_on_c, 0, 60, 71
1, 35509, Control_c, 0, 67, 50
1, 35512, Note_on_c, 0, 28, 58
1, 35512, Note_on_c, 0, 57, 64
1, 35517, Note_on_c, 0, 26, 56
1, 35539, Control_c, 0, 67, 50
1, 35550, Note_off_c, 0, 26, 55
1, 35577, Note_off_c, 0, 57, 58
1, 35585, Note_off_c, 0, 60, 62
1, 35612, Note_on_c, 0, 66, 68
1, 35643, Control_c, 0, 67, 50
1, 35650, Note_off_c, 0, 66, 59
1, 35710, Note_on_c, 0, 60, 69
1, 35712, Note_on_c, 0, 57, 63
1, 35747, Control_c, 0, 64, 47
1, 35776, Note_off_c, 0, 57, 57
1, 35787, Note_off_c, 0, 40, 62
1, 35791, Control_c, 0, 64, 48
1, 35792, Note_off_c, 0, 60, 58
1, 35811, Note_on_c, 0, 66, 67
1, 35835, Control_c, 0, 67, 51
1, 35844, Note_off_c, 0, 66, 61
1, 35855, Note_off_c, 0, 28, 61
1, 35865, Control_c, 0, 67, 51
1, 35909, Control_c, 0, 64, 47
1, 35911, Note_on_c, 0, 30, 69
1, 35912, Note_on_c, 0, 42, 70
1, 35918, Note_on_c, 0, 59, 64
1, 35923, Note_on_c, 0, 55, 57
1, 35945, Note_off_c, 0, 30, 66
1, 35954, Control_c, 0, 64, 47
1, 35955, Note_off_c, 0, 42, 63
1, 35968, Note_off_c, 0, 55, 59
1, 35980, Note_off_c, 0, 59, 62
1, 35983, Control_c, 0, 64, 46
1, 35998, Control_c, 0, 64, 46
1, 36018, Note_on_c, 0, 64, 70
1, 36019, Note_on_c, 0, 31, 65
1, 36021, Control_c, 0, 64, 45
1, 36026, Note_on_c, 0, 43, 48
1, 36036, Control_c, 0, 64, 45
1, 36046, Note_off_c, 0, 31, 60
1, 36050, Control_c, 0, 64, 44
1, 36055, Note_off_c, 0, 43, 50
1, 36056, Note_off_c, 0, 64, 59
1, 36065, Control_c, 0, 64, 44
1, 36065, Control_c, 0, 67, 51
1, 36080, Control_c, 0, 64, 43
1, 36109, Control_c, 0, 64, 44
1, 36112, Note_on_c, 0, 33, 74
1, 36115, Note_on_c, 0, 45, 73
1, 36121, Note_on_c, 0, 59, 74
1, 36124, Control_c, 0, 67, 50
1, 36128, Note_on_c, 0, 55, 62
1, 36154, Control_c, 0, 64, 44
1, 36168, Control_c, 0, 64, 45
1, 36174, Note_off_c, 0, 55, 54
1, 36198, Control_c, 0, 64, 45
1, 36208, Note_off_c, 0, 59, 62
1, 36213, Control_c, 0, 67, 51
1, 36238, Note_on_c, 0, 64, 56
1, 36258, Control_c, 0, 67, 51
1, 36264, Note_off_c, 0, 64, 59
1, 36273, Control_c, 0, 64, 45
1, 36287, Control_c, 0, 64, 45
1, 36317, Control_c, 0, 67, 51
1, 36323, Note_on_c, 0, 57, 69
1, 36332, Control_c, 0, 64, 45
1, 36334, Note_on_c, 0, 54, 61
1, 36347, Control_c, 0, 67, 50
1, 36362, Control_c, 0, 64, 44
1, 36377, Control_c, 0, 64, 44
1, 36379, Note_off_c, 0, 54, 58
1, 36407, Control_c, 0, 64, 43
1, 36422, Control_c, 0, 64, 42
1, 36425, Note_off_c, 0, 57, 60
1, 36437, Control_c, 0, 64, 41
1, 36437, Note_on_c, 0, 62, 70
1, 36451, Control_c, 0, 64, 40
1, 36466, Control_c, 0, 64, 39
1, 36478, Note_off_c, 0, 62, 59
1, 36496, Control_c, 0, 64, 40
1, 36511, Control_c, 0, 64, 43
1, 36525, Control_c, 0, 64, 49
1, 36540, Control_c, 0, 64, 55
1, 36544, Note_on_c, 0, 57, 53
1, 36547, Note_on_c, 0, 54, 50
1, 36548, Note_off_c, 0, 33, 55
1, 36555, Control_c, 0, 64, 60
1, 36570, Control_c, 0, 64, 62
1, 36584, Note_off_c, 0, 54, 64
1, 36584, Control_c, 0, 64, 63
1, 36584, Control_c, 0, 67, 51
1, 36607, Note_off_c, 0, 57, 62
1, 36637, Note_on_c, 0, 62, 62
1, 36658, Control_c, 0, 67, 51
1, 36672, Note_off_c, 0, 62, 63
1, 36686, Note_off_c, 0, 45, 65
1, 36717, Control_c, 0, 67, 52
1, 36732, Control_c, 0, 64, 62
1, 36734, Note_on_c, 0, 47, 61
1, 36753, Note_on_c, 0, 52, 50
1, 36753, Note_on_c, 0, 55, 61
1, 36770, Control_c, 0, 64, 62
1, 36785, Control_c, 0, 64, 61
1, 36797, Note_off_c, 0, 52, 62
1, 36799, Control_c, 0, 64, 60
1, 36799, Control_c, 0, 67, 51
1, 36814, Control_c, 0, 64, 59
1, 36829, Control_c, 0, 64, 56
1, 36839, Note_off_c, 0, 47, 63
1, 36843, Control_c, 0, 64, 53
1, 36844, Note_on_c, 0, 49, 68
1, 36854, Note_off_c, 0, 55, 48
1, 36858, Control_c, 0, 64, 48
1, 36866, Note_on_c, 0, 57, 49
1, 36873, Control_c, 0, 64, 42
1, 36888, Control_c, 0, 64, 36
1, 36903, Control_c, 0, 64, 35
1, 36917, Control_c, 0, 64, 37
1, 36929, Note_off_c, 0, 49, 57
1, 36932, Control_c, 0, 64, 44
1, 36943, Note_on_c, 0, 54, 64
1, 36943, Note_off_c, 0, 57, 58
1, 36947, Control_c, 0, 64, 51
1, 36962, Control_c, 0, 64, 57
1, 36971, Note_on_c, 0, 50, 68
1, 36974, Note_on_c, 0, 45, 55
1, 36975, Note_on_c, 0, 38, 49
1, 36977, Control_c, 0, 64, 63
1, 36991, Control_c, 0, 64, 67
1, 37006, Control_c, 0, 64, 71
1, 37007, Note_off_c, 0, 38, 48
1, 37008, Note_off_c, 0, 45, 65
1, 37009, Note_off_c, 0, 54, 63
1, 37014, Note_off_c, 0, 50, 58
1, 37021, Control_c, 0, 64, 74
1, 37036, Control_c, 0, 64, 75
1, 37043, Note_on_c, 0, 57, 58
1, 37051, Control_c, 0, 64, 76
1, 37072, Note_off_c, 0, 57, 65
1, 37110, Control_c, 0, 64, 75
1, 37125, Control_c, 0, 64, 74
1, 37141, Control_c, 0, 64, 72
1, 37156, Control_c, 0, 64, 71
1, 37171, Control_c, 0, 64, 69
1, 37178, Note_on_c, 0, 64, 68
1, 37180, Note_on_c, 0, 52, 69
1, 37184, Note_on_c, 0, 60, 53
1, 37186, Control_c, 0, 64, 68
1, 37201, Control_c, 0, 64, 67
1, 37215, Control_c, 0, 64, 66
1, 37220, Note_off_c, 0, 60, 65
1, 37230, Control_c, 0, 64, 66
1, 37245, Control_c, 0, 64, 65
1, 37258, Note_off_c, 0, 52, 60
1, 37259, Note_on_c, 0, 54, 69
1, 37260, Control_c, 0, 64, 64
1, 37274, Note_on_c, 0, 69, 65
1, 37274, Control_c, 0, 64, 61
1, 37284, Note_off_c, 0, 64, 56
1, 37289, Control_c, 0, 64, 57
1, 37304, Control_c, 0, 64, 50
1, 37319, Control_c, 0, 64, 41
1, 37333, Note_off_c, 0, 54, 53
1, 37334, Control_c, 0, 64, 30
1, 37349, Control_c, 0, 64, 0
1, 37368, Note_on_c, 0, 50, 61
1, 37369, Note_on_c, 0, 55, 68
1, 37370, Note_on_c, 0, 43, 66
1, 37376, Note_on_c, 0, 62, 66
1, 37378, Control_c, 0, 64, 35
1, 37388, Note_off_c, 0, 69, 36
1, 37390, Note_on_c, 0, 59, 50
1, 37393, Control_c, 0, 64, 46
1, 37402, Note_off_c, 0, 43, 65
1, 37408, Control_c, 0, 64, 56
1, 37408, Control_c, 0, 67, 51
1, 37423, Control_c, 0, 64, 62
1, 37425, Note_off_c, 0, 59, 62
1, 37426, Note_off_c, 0, 50, 62
1, 37428, Note_off_c, 0, 55, 62
1, 37438, Control_c, 0, 64, 66
1, 37453, Control_c, 0, 64, 67
1, 37456, Note_off_c, 0, 62, 56
1, 37467, Control_c, 0, 64, 68
1, 37472, Note_on_c, 0, 69, 65
1, 37519, Control_c, 0, 64, 67
1, 37534, Control_c, 0, 64, 66
1, 37539, Note_off_c, 0, 69, 57
1, 37548, Control_c, 0, 64, 66
1, 37563, Control_c, 0, 64, 65
1, 37570, Note_on_c, 0, 57, 72
1, 37578, Control_c, 0, 64, 64
1, 37593, Note_on_c, 0, 62, 55
1, 37593, Control_c, 0, 64, 63
1, 37606, Note_on_c, 0, 60, 37
1, 37608, Control_c, 0, 64, 63
1, 37623, Control_c, 0, 64, 62
1, 37633, Note_off_c, 0, 60, 54
1, 37638, Control_c, 0, 64, 61
1, 37638, Control_c, 0, 67, 50
1, 37641, Note_off_c, 0, 57, 58
1, 37653, Control_c, 0, 64, 59
1, 37660, Note_on_c, 0, 59, 66
1, 37667, Control_c, 0, 64, 55
1, 37675, Note_on_c, 0, 67, 60
1, 37677, Note_off_c, 0, 62, 62
1, 37682, Control_c, 0, 64, 51
1, 37697, Control_c, 0, 64, 46
1, 37702, Note_off_c, 0, 67, 67
1, 37712, Control_c, 0, 64, 37
1, 37727, Control_c, 0, 64, 0
1, 37741, Control_c, 0, 67, 51
1, 37756, Control_c, 0, 67, 51
1, 37771, Control_c, 0, 67, 52
1, 37775, Note_on_c, 0, 49, 66
1, 37783, Note_on_c, 0, 61, 66
1, 37785, Note_on_c, 0, 56, 64
1, 37786, Control_c, 0, 67, 52
1, 37788, Note_off_c, 0, 59, 62
1, 37801, Control_c, 0, 67, 53
1, 37805, Note_off_c, 0, 49, 65
1, 37815, Control_c, 0, 64, 33
1, 37815, Control_c, 0, 67, 53
1, 37816, Note_off_c, 0, 56, 63
1, 37820, Note_off_c, 0, 61, 62
1, 37830, Control_c, 0, 64, 45
1, 37830, Control_c, 0, 67, 55
1, 37845, Control_c, 0, 64, 55
1, 37845, Control_c, 0, 67, 56
1, 37859, Control_c, 0, 64, 60
1, 37859, Control_c, 0, 67, 58
1, 37874, Control_c, 0, 64, 62
1, 37874, Control_c, 0, 67, 60
1, 37885, Note_on_c, 0, 66, 54
1, 37889, Control_c, 0, 67, 62
1, 37904, Control_c, 0, 64, 61
1, 37904, Control_c, 0, 67, 63
1, 37919, Note_off_c, 0, 66, 53
1, 37919, Control_c, 0, 64, 61
1, 37919, Control_c, 0, 67, 65
1, 37934, Control_c, 0, 64, 60
1, 37934, Control_c, 0, 67, 68
1, 37950, Control_c, 0, 64, 57
1, 37950, Control_c, 0, 67, 70
1, 37964, Control_c, 0, 64, 54
1, 37964, Control_c, 0, 67, 71
1, 37979, Control_c, 0, 64, 49
1, 37979, Control_c, 0, 67, 72
1, 37994, Control_c, 0, 64, 44
1, 37994, Control_c, 0, 67, 73
1, 37996, Note_on_c, 0, 63, 57
1, 37999, Note_on_c, 0, 71, 44
1, 38009, Control_c, 0, 64, 35
1, 38009, Control_c, 0, 67, 74
1, 38022, Note_on_c, 0, 73, 40
1, 38024, Control_c, 0, 64, 0
1, 38024, Control_c, 0, 67, 74
1, 38025, Note_off_c, 0, 71, 54
1, 38055, Note_off_c, 0, 73, 58
1, 38067, Note_off_c, 0, 63, 60
1, 38082, Note_on_c, 0, 80, 59
1, 38088, Note_on_c, 0, 65, 53
1, 38097, Control_c, 0, 67, 75
1, 38112, Control_c, 0, 67, 75
1, 38145, Note_off_c, 0, 80, 57
1, 38157, Control_c, 0, 67, 76
1, 38168, Note_off_c, 0, 65, 48
1, 38171, Control_c, 0, 67, 78
1, 38186, Control_c, 0, 67, 80
1, 38201, Control_c, 0, 64, 35
1, 38201, Control_c, 0, 67, 82
1, 38207, Note_on_c, 0, 61, 52
1, 38210, Note_on_c, 0, 78, 67
1, 38213, Note_on_c, 0, 69, 51
1, 38216, Control_c, 0, 64, 55
1, 38216, Control_c, 0, 67, 82
1, 38219, Note_on_c, 0, 54, 42
1, 38221, Note_on_c, 0, 66, 35
1, 38231, Control_c, 0, 64, 64
1, 38231, Control_c, 0, 67, 83
1, 38232, Note_off_c, 0, 61, 61
1, 38234, Note_off_c, 0, 78, 69
1, 38234, Note_off_c, 0, 69, 57
1, 38246, Control_c, 0, 64, 69
1, 38246, Control_c, 0, 67, 85
1, 38247, Note_off_c, 0, 54, 54
1, 38251, Note_off_c, 0, 66, 45
1, 38268, Control_c, 0, 64, 72
1, 38268, Control_c, 0, 67, 87
1, 38283, Control_c, 0, 64, 75
1, 38283, Control_c, 0, 67, 88
1, 38297, Control_c, 0, 64, 78
1, 38297, Control_c, 0, 67, 88
1, 38312, Control_c, 0, 64, 81
1, 38327, Control_c, 0, 64, 84
1, 38342, Control_c, 0, 64, 85
1, 38357, Control_c, 0, 64, 86
1, 38386, Control_c, 0, 64, 86
1, 38401, Control_c, 0, 64, 79
1, 38416, Control_c, 0, 64, 68
1, 38416, Control_c, 0, 67, 88
1, 38431, Control_c, 0, 64, 57
1, 38431, Control_c, 0, 67, 87
1, 38446, Control_c, 0, 64, 45
1, 38446, Control_c, 0, 67, 86
1, 38461, Control_c, 0, 64, 42
1, 38461, Control_c, 0, 67, 86
1, 38475, Control_c, 0, 64, 47
1, 38475, Control_c, 0, 67, 85
1, 38478, Note_on_c, 0, 40, 47
1, 38484, Note_on_c, 0, 47, 58
1, 38490, Control_c, 0, 64, 56
1, 38490, Control_c, 0, 67, 85
1, 38492, Note_on_c, 0, 55, 57
1, 38494, Note_on_c, 0, 79, 66
1, 38502, Note_on_c, 0, 76, 55
1, 38505, Control_c, 0, 64, 63
1, 38508, Note_off_c, 0, 40, 46
1, 38513, Note_off_c, 0, 47, 65
1, 38520, Note_off_c, 0, 79, 68
1, 38520, Control_c, 0, 64, 69
1, 38524, Note_off_c, 0, 76, 58
1, 38535, Control_c, 0, 64, 75
1, 38538, Note_off_c, 0, 55, 63
1, 38550, Control_c, 0, 64, 80
1, 38564, Control_c, 0, 64, 83
1, 38579, Control_c, 0, 64, 84
1, 38594, Control_c, 0, 64, 86
1, 38608, Control_c, 0, 64, 88
1, 38623, Control_c, 0, 64, 90
1, 38638, Control_c, 0, 64, 90
1, 38653, Control_c, 0, 64, 89
1, 38668, Control_c, 0, 64, 81
1, 38682, Control_c, 0, 64, 73
1, 38697, Control_c, 0, 64, 69
1, 38712, Control_c, 0, 64, 68
1, 38719, Note_on_c, 0, 66, 60
1, 38725, Note_on_c, 0, 76, 75
1, 38727, Control_c, 0, 64, 69
1, 38729, Note_on_c, 0, 79, 68
1, 38737, Note_on_c, 0, 62, 50
1, 38741, Note_off_c, 0, 76, 68
1, 38743, Control_c, 0, 64, 70
1, 38743, Control_c, 0, 67, 84
1, 38748, Note_off_c, 0, 79, 66
1, 38758, Control_c, 0, 64, 73
1, 38773, Control_c, 0, 64, 76
1, 38787, Control_c, 0, 64, 78
1, 38789, Note_off_c, 0, 62, 59
1, 38791, Note_off_c, 0, 66, 58
1, 38802, Control_c, 0, 64, 79
1, 38838, Note_on_c, 0, 67, 48
1, 38846, Control_c, 0, 67, 84
1, 38861, Control_c, 0, 64, 78
1, 38876, Control_c, 0, 64, 75
1, 38876, Control_c, 0, 67, 83
1, 38891, Control_c, 0, 64, 73
1, 38906, Control_c, 0, 64, 70
1, 38920, Control_c, 0, 64, 68
1, 38928, Note_off_c, 0, 67, 35
1, 38935, Control_c, 0, 64, 66
1, 38938, Note_on_c, 0, 79, 79
1, 38942, Note_on_c, 0, 74, 74
1, 38946, Note_on_c, 0, 78, 65
1, 38949, Note_on_c, 0, 59, 49
1, 38950, Control_c, 0, 64, 64
1, 38950, Control_c, 0, 67, 83
1, 38952, Note_on_c, 0, 62, 52
1, 38965, Control_c, 0, 64, 61
1, 38965, Control_c, 0, 67, 82
1, 38967, Note_off_c, 0, 74, 65
1, 38973, Note_off_c, 0, 78, 68
1, 38978, Note_off_c, 0, 79, 64
1, 38980, Control_c, 0, 64, 58
1, 38980, Control_c, 0, 67, 81
1, 38990, Note_off_c, 0, 59, 63
1, 38993, Note_off_c, 0, 62, 62
1, 38994, Control_c, 0, 64, 55
1, 39017, Control_c, 0, 64, 52
1, 39017, Control_c, 0, 67, 80
1, 39032, Control_c, 0, 64, 48
1, 39044, Note_on_c, 0, 79, 75
1, 39046, Note_on_c, 0, 78, 72
1, 39046, Control_c, 0, 64, 44
1, 39048, Note_on_c, 0, 74, 73
1, 39052, Note_on_c, 0, 67, 60
1, 39061, Control_c, 0, 64, 37
1, 39069, Note_off_c, 0, 78, 67
1, 39074, Note_off_c, 0, 74, 67
1, 39076, Control_c, 0, 64, 32
1, 39088, Note_off_c, 0, 79, 64
1, 39091, Control_c, 0, 64, 0
1, 39135, Control_c, 0, 64, 34
1, 39143, Note_off_c, 0, 67, 54
1, 39150, Control_c, 0, 64, 44
1, 39153, Note_on_c, 0, 78, 79
1, 39156, Note_on_c, 0, 61, 61
1, 39156, Note_on_c, 0, 64, 47
1, 39156, Note_on_c, 0, 74, 76
1, 39160, Note_on_c, 0, 79, 62
1, 39165, Control_c, 0, 64, 58
1, 39171, Note_off_c, 0, 74, 68
1, 39174, Note_off_c, 0, 78, 70
1, 39178, Note_off_c, 0, 79, 67
1, 39180, Control_c, 0, 64, 65
1, 39180, Control_c, 0, 67, 80
1, 39182, Note_off_c, 0, 64, 58
1, 39194, Control_c, 0, 64, 70
1, 39194, Control_c, 0, 67, 78
1, 39206, Note_off_c, 0, 61, 59
1, 39209, Control_c, 0, 64, 72
1, 39209, Control_c, 0, 67, 77
1, 39224, Control_c, 0, 64, 73
1, 39224, Control_c, 0, 67, 74
1, 39239, Control_c, 0, 67, 70
1, 39246, Note_on_c, 0, 67, 62
1, 39253, Control_c, 0, 67, 60
1, 39268, Control_c, 0, 67, 48
1, 39283, Control_c, 0, 64, 73
1, 39283, Control_c, 0, 67, 29
1, 39298, Control_c, 0, 67, 0
1, 39328, Note_off_c, 0, 67, 52
1, 39328, Control_c, 0, 64, 72
1, 39343, Control_c, 0, 64, 70
1, 39358, Control_c, 0, 64, 67
1, 39362, Note_on_c, 0, 61, 51
1, 39370, Note_on_c, 0, 57, 50
1, 39370, Note_on_c, 0, 79, 78
1, 39373, Control_c, 0, 64, 64
1, 39376, Note_on_c, 0, 73, 64
1, 39382, Note_on_c, 0, 76, 55
1, 39385, Control_c, 0, 64, 60
1, 39393, Note_off_c, 0, 73, 64
1, 39394, Note_off_c, 0, 79, 63
1, 39400, Control_c, 0, 64, 54
1, 39404, Note_off_c, 0, 76, 58
1, 39415, Control_c, 0, 64, 47
1, 39426, Note_off_c, 0, 61, 55
1, 39430, Control_c, 0, 64, 37
1, 39431, Note_off_c, 0, 57, 50
1, 39444, Control_c, 0, 64, 0
1, 39450, Note_on_c, 0, 67, 61
1, 39462, Note_on_c, 0, 79, 54
1, 39467, Note_on_c, 0, 73, 59
1, 39484, Note_on_c, 0, 76, 43
1, 39487, Note_off_c, 0, 73, 62
1, 39491, Note_off_c, 0, 79, 57
1, 39512, Note_off_c, 0, 76, 46
1, 39534, Control_c, 0, 64, 37
1, 39549, Control_c, 0, 64, 53
1, 39549, Control_c, 0, 67, 19
1, 39558, Note_off_c, 0, 67, 54
1, 39562, Note_on_c, 0, 79, 80
1, 39564, Control_c, 0, 64, 64
1, 39564, Control_c, 0, 67, 24
1, 39565, Note_on_c, 0, 62, 49
1, 39568, Note_on_c, 0, 73, 60
1, 39570, Note_on_c, 0, 59, 55
1, 39579, Control_c, 0, 64, 67
1, 39579, Control_c, 0, 67, 30
1, 39587, Note_off_c, 0, 79, 67
1, 39587, Note_off_c, 0, 73, 65
1, 39594, Control_c, 0, 64, 68
1, 39594, Control_c, 0, 67, 41
1, 39602, Note_off_c, 0, 62, 63
1, 39608, Control_c, 0, 64, 69
1, 39608, Control_c, 0, 67, 52
1, 39614, Note_off_c, 0, 59, 56
1, 39623, Control_c, 0, 64, 69
1, 39623, Control_c, 0, 67, 62
1, 39638, Control_c, 0, 67, 70
1, 39653, Control_c, 0, 67, 76
1, 39668, Control_c, 0, 67, 82
1, 39677, Note_on_c, 0, 67, 50
1, 39683, Control_c, 0, 64, 69
1, 39683, Control_c, 0, 67, 87
1, 39698, Control_c, 0, 64, 68
1, 39698, Control_c, 0, 67, 91
1, 39713, Control_c, 0, 64, 66
1, 39713, Control_c, 0, 67, 94
1, 39727, Control_c, 0, 64, 63
1, 39727, Control_c, 0, 67, 96
1, 39742, Control_c, 0, 64, 60
1, 39758, Note_off_c, 0, 67, 49
1, 39764, Control_c, 0, 64, 54
1, 39779, Control_c, 0, 64, 49
1, 39779, Control_c, 0, 67, 98
1, 39790, Note_on_c, 0, 55, 52
1, 39794, Note_on_c, 0, 71, 66
1, 39794, Control_c, 0, 64, 44
1, 39795, Note_on_c, 0, 74, 61
1, 39796, Note_on_c, 0, 79, 63
1, 39802, Note_on_c, 0, 59, 28
1, 39809, Control_c, 0, 64, 36
1, 39814, Note_off_c, 0, 74, 63
1, 39814, Note_off_c, 0, 79, 68
1, 39816, Note_off_c, 0, 71, 66
1, 39823, Control_c, 0, 64, 0
1, 39841, Note_off_c, 0, 55, 53
1, 39844, Note_off_c, 0, 59, 49
1, 39881, Note_on_c, 0, 67, 54
1, 39888, Note_on_c, 0, 71, 57
1, 39894, Note_on_c, 0, 74, 46
1, 39894, Note_on_c, 0, 79, 51
1, 39897, Control_c, 0, 67, 100
1, 39908, Note_off_c, 0, 71, 62
1, 39920, Note_off_c, 0, 79, 57
1, 39921, Note_off_c, 0, 74, 54
1, 39942, Control_c, 0, 67, 102
1, 39957, Control_c, 0, 64, 42
1, 39972, Control_c, 0, 64, 55
1, 39972, Control_c, 0, 67, 106
1, 39984, Note_off_c, 0, 67, 45
1, 39987, Control_c, 0, 64, 63
1, 39987, Control_c, 0, 67, 112
1, 39996, Note_on_c, 0, 61, 52
1, 39997, Note_on_c, 0, 79, 60
1, 39999, Note_on_c, 0, 74, 59
1, 40002, Note_on_c, 0, 57, 39
1, 40002, Control_c, 0, 64, 67
1, 40002, Control_c, 0, 67, 117
1, 40004, Note_on_c, 0, 71, 43
1, 40016, Note_off_c, 0, 79, 65
1, 40016, Control_c, 0, 64, 69
1, 40016, Control_c, 0, 67, 120
1, 40017, Note_off_c, 0, 74, 63
1, 40026, Note_off_c, 0, 61, 61
1, 40030, Note_off_c, 0, 71, 52
1, 40031, Control_c, 0, 64, 71
1, 40033, Note_off_c, 0, 57, 49
1, 40046, Control_c, 0, 64, 72
1, 40060, Control_c, 0, 64, 74
1, 40075, Control_c, 0, 64, 74
1, 40090, Control_c, 0, 64, 75
1, 40090, Control_c, 0, 67, 122
1, 40105, Control_c, 0, 64, 75
1, 40120, Control_c, 0, 64, 76
1, 40135, Control_c, 0, 64, 76
1, 40165, Control_c, 0, 64, 73
1, 40180, Control_c, 0, 64, 66
1, 40194, Control_c, 0, 64, 58
1, 40209, Control_c, 0, 64, 49
1, 40215, Note_on_c, 0, 52, 69
1, 40224, Control_c, 0, 64, 45
1, 40232, Note_on_c, 0, 67, 40
1, 40232, Note_on_c, 0, 73, 65
1, 40239, Control_c, 0, 64, 45
1, 40254, Control_c, 0, 64, 49
1, 40255, Note_on_c, 0, 69, 40
1, 40268, Control_c, 0, 64, 54
1, 40282, Note_off_c, 0, 69, 53
1, 40283, Control_c, 0, 64, 59
1, 40298, Control_c, 0, 64, 63
1, 40313, Control_c, 0, 64, 67
1, 40329, Control_c, 0, 64, 69
1, 40333, Note_off_c, 0, 67, 40
1, 40334, Note_on_c, 0, 71, 43
1, 40341, Note_on_c, 0, 61, 54
1, 40344, Note_off_c, 0, 73, 48
1, 40344, Control_c, 0, 64, 72
1, 40349, Note_on_c, 0, 74, 46
1, 40358, Control_c, 0, 64, 73
1, 40359, Note_off_c, 0, 71, 56
1, 40365, Note_off_c, 0, 52, 49
1, 40373, Control_c, 0, 64, 74
1, 40376, Note_off_c, 0, 74, 56
1, 40388, Control_c, 0, 64, 75
1, 40403, Control_c, 0, 64, 75
1, 40429, Note_off_c, 0, 61, 56
1, 40447, Control_c, 0, 64, 76
1, 40452, Note_on_c, 0, 71, 47
1, 40459, Note_on_c, 0, 74, 61
1, 40469, Note_on_c, 0, 69, 41
1, 40513, Note_off_c, 0, 69, 48
1, 40514, Control_c, 0, 64, 76
1, 40529, Control_c, 0, 64, 77
1, 40531, Note_off_c, 0, 71, 34
1, 40544, Control_c, 0, 64, 78
1, 40545, Note_off_c, 0, 74, 59
1, 40552, Note_on_c, 0, 61, 58
1, 40553, Note_on_c, 0, 73, 53
1, 40558, Control_c, 0, 64, 78
1, 40573, Control_c, 0, 64, 79
1, 40574, Note_on_c, 0, 76, 61
1, 40574, Note_off_c, 0, 73, 61
1, 40588, Control_c, 0, 64, 78
1, 40595, Note_off_c, 0, 76, 61
1, 40603, Control_c, 0, 64, 73
1, 40616, Note_off_c, 0, 61, 43
1, 40617, Control_c, 0, 64, 65
1, 40632, Control_c, 0, 64, 54
1, 40647, Control_c, 0, 64, 43
1, 40647, Control_c, 0, 67, 120
1, 40655, Note_on_c, 0, 54, 75
1, 40657, Note_on_c, 0, 73, 71
1, 40657, Note_on_c, 0, 67, 61
1, 40662, Control_c, 0, 64, 37
1, 40674, Note_on_c, 0, 76, 59
1, 40677, Control_c, 0, 64, 39
1, 40690, Note_off_c, 0, 73, 62
1, 40691, Control_c, 0, 64, 47
1, 40696, Note_on_c, 0, 77, 28
1, 40706, Control_c, 0, 64, 54
1, 40721, Control_c, 0, 64, 60
1, 40728, Note_off_c, 0, 67, 63
1, 40730, Note_off_c, 0, 77, 45
1, 40736, Control_c, 0, 64, 63
1, 40745, Note_off_c, 0, 76, 62
1, 40751, Control_c, 0, 64, 66
1, 40765, Note_on_c, 0, 61, 62
1, 40765, Note_on_c, 0, 74, 69
1, 40765, Control_c, 0, 64, 68
1, 40769, Note_on_c, 0, 78, 54
1, 40780, Control_c, 0, 64, 69
1, 40789, Note_off_c, 0, 74, 66
1, 40795, Control_c, 0, 64, 70
1, 40813, Note_off_c, 0, 78, 63
1, 40841, Note_off_c, 0, 61, 59
1, 40861, Note_on_c, 0, 78, 62
1, 40866, Note_on_c, 0, 69, 52
1, 40875, Note_on_c, 0, 74, 50
1, 40917, Note_off_c, 0, 74, 58
1, 40929, Control_c, 0, 64, 70
1, 40944, Control_c, 0, 64, 71
1, 40944, Note_off_c, 0, 69, 57
1, 40958, Note_on_c, 0, 61, 65
1, 40958, Control_c, 0, 64, 72
1, 40961, Note_on_c, 0, 79, 61
1, 40970, Note_on_c, 0, 76, 46
1, 40973, Control_c, 0, 64, 73
1, 40991, Note_off_c, 0, 54, 63
1, 40991, Note_off_c, 0, 78, 46
1, 40994, Note_off_c, 0, 76, 58
1, 41001, Note_off_c, 0, 79, 63
1, 41003, Control_c, 0, 64, 70
1, 41017, Control_c, 0, 64, 63
1, 41032, Control_c, 0, 64, 55
1, 41041, Note_off_c, 0, 61, 55
1, 41047, Control_c, 0, 64, 49
1, 41062, Control_c, 0, 64, 48
1, 41064, Note_on_c, 0, 67, 63
1, 41066, Note_on_c, 0, 55, 67
1, 41077, Note_on_c, 0, 76, 59
1, 41077, Control_c, 0, 64, 51
1, 41078, Note_on_c, 0, 79, 69
1, 41091, Control_c, 0, 64, 55
1, 41105, Note_off_c, 0, 76, 59
1, 41106, Control_c, 0, 64, 59
1, 41121, Control_c, 0, 64, 63
1, 41137, Control_c, 0, 64, 65
1, 41140, Note_off_c, 0, 67, 52
1, 41152, Control_c, 0, 64, 67
1, 41158, Note_off_c, 0, 79, 61
1, 41162, Note_on_c, 0, 78, 57
1, 41167, Control_c, 0, 64, 67
1, 41173, Note_on_c, 0, 61, 58
1, 41178, Note_on_c, 0, 81, 70
1, 41195, Note_off_c, 0, 78, 65
1, 41213, Note_off_c, 0, 81, 65
1, 41227, Note_off_c, 0, 61, 58
1, 41280, Note_on_c, 0, 78, 62
1, 41289, Note_on_c, 0, 69, 49
1, 41290, Note_on_c, 0, 81, 61
1, 41307, Note_off_c, 0, 78, 68
1, 41329, Note_off_c, 0, 69, 48
1, 41364, Note_on_c, 0, 61, 62
1, 41364, Note_off_c, 0, 55, 56
1, 41367, Control_c, 0, 64, 68
1, 41379, Note_on_c, 0, 83, 67
1, 41379, Note_off_c, 0, 81, 59
1, 41391, Note_on_c, 0, 79, 56
1, 41411, Control_c, 0, 64, 67
1, 41412, Note_off_c, 0, 79, 63
1, 41426, Control_c, 0, 64, 63
1, 41427, Note_off_c, 0, 83, 62
1, 41440, Control_c, 0, 64, 59
1, 41444, Note_off_c, 0, 61, 57
1, 41455, Control_c, 0, 64, 56
1, 41470, Control_c, 0, 64, 57
1, 41478, Note_on_c, 0, 79, 70
1, 41480, Note_on_c, 0, 83, 60
1, 41485, Control_c, 0, 64, 59
1, 41487, Note_on_c, 0, 57, 48
1, 41488, Note_on_c, 0, 67, 51
1, 41500, Control_c, 0, 64, 60
1, 41514, Control_c, 0, 64, 63
1, 41520, Note_off_c, 0, 79, 55
1, 41529, Control_c, 0, 64, 65
1, 41530, Note_off_c, 0, 67, 64
1, 41540, Note_off_c, 0, 57, 64
1, 41544, Control_c, 0, 64, 69
1, 41559, Control_c, 0, 64, 72
1, 41568, Note_on_c, 0, 61, 43
1, 41573, Note_off_c, 0, 83, 61
1, 41574, Control_c, 0, 64, 73
1, 41580, Note_on_c, 0, 81, 44
1, 41588, Note_on_c, 0, 85, 58
1, 41588, Control_c, 0, 64, 70
1, 41598, Note_off_c, 0, 61, 50
1, 41603, Control_c, 0, 64, 64
1, 41608, Note_off_c, 0, 81, 55
1, 41618, Control_c, 0, 64, 55
1, 41632, Note_off_c, 0, 85, 60
1, 41632, Control_c, 0, 64, 48
1, 41632, Control_c, 0, 67, 118
1, 41647, Control_c, 0, 64, 49
1, 41662, Control_c, 0, 64, 54
1, 41677, Control_c, 0, 64, 60
1, 41684, Note_on_c, 0, 42, 69
1, 41687, Note_on_c, 0, 81, 76
1, 41692, Note_on_c, 0, 85, 73
1, 41692, Control_c, 0, 64, 65
1, 41694, Note_on_c, 0, 49, 61
1, 41701, Note_off_c, 0, 81, 70
1, 41702, Note_on_c, 0, 57, 52
1, 41707, Control_c, 0, 64, 71
1, 41712, Note_off_c, 0, 42, 65
1, 41713, Note_off_c, 0, 85, 70
1, 41717, Note_off_c, 0, 49, 63
1, 41722, Control_c, 0, 64, 76
1, 41729, Note_off_c, 0, 57, 59
1, 41737, Control_c, 0, 64, 77
1, 41870, Control_c, 0, 64, 75
1, 41885, Control_c, 0, 64, 70
1, 41900, Control_c, 0, 64, 63
1, 41912, Note_on_c, 0, 57, 53
1, 41914, Control_c, 0, 64, 56
1, 41920, Note_on_c, 0, 81, 79
1, 41921, Note_on_c, 0, 66, 60
1, 41924, Note_on_c, 0, 62, 53
1, 41927, Note_on_c, 0, 78, 64
1, 41930, Control_c, 0, 64, 50
1, 41934, Note_off_c, 0, 81, 71
1, 41945, Control_c, 0, 64, 45
1, 41945, Note_off_c, 0, 78, 65
1, 41960, Control_c, 0, 64, 41
1, 41968, Note_off_c, 0, 62, 63
1, 41975, Control_c, 0, 64, 39
1, 41990, Control_c, 0, 64, 38
1, 41994, Note_off_c, 0, 66, 59
1, 42011, Control_c, 0, 64, 37
1, 42026, Note_on_c, 0, 69, 51
1, 42026, Control_c, 0, 64, 36
1, 42041, Control_c, 0, 64, 35
1, 42056, Control_c, 0, 64, 33
1, 42085, Control_c, 0, 64, 34
1, 42100, Control_c, 0, 64, 36
1, 42107, Note_off_c, 0, 69, 54
1, 42115, Control_c, 0, 64, 43
1, 42130, Control_c, 0, 64, 53
1, 42141, Note_on_c, 0, 78, 87
1, 42145, Note_on_c, 0, 81, 77
1, 42145, Control_c, 0, 64, 61
1, 42145, Note_on_c, 0, 64, 53
1, 42146, Note_on_c, 0, 67, 59
1, 42159, Note_off_c, 0, 81, 70
1, 42160, Note_off_c, 0, 78, 72
1, 42160, Control_c, 0, 64, 65
1, 42175, Control_c, 0, 64, 68
1, 42183, Note_off_c, 0, 64, 62
1, 42183, Note_off_c, 0, 67, 66
1, 42190, Control_c, 0, 64, 69
1, 42251, Note_on_c, 0, 69, 45
1, 42278, Control_c, 0, 64, 68
1, 42293, Control_c, 0, 64, 67
1, 42308, Control_c, 0, 64, 65
1, 42323, Control_c, 0, 64, 62
1, 42337, Control_c, 0, 64, 59
1, 42342, Note_off_c, 0, 69, 59
1, 42352, Control_c, 0, 64, 56
1, 42360, Note_on_c, 0, 81, 69
1, 42362, Note_on_c, 0, 79, 66
1, 42365, Note_on_c, 0, 61, 55
1, 42367, Control_c, 0, 64, 54
1, 42374, Note_on_c, 0, 76, 54
1, 42378, Note_off_c, 0, 81, 63
1, 42381, Control_c, 0, 64, 52
1, 42382, Note_off_c, 0, 79, 67
1, 42394, Note_off_c, 0, 76, 60
1, 42396, Control_c, 0, 64, 50
1, 42411, Control_c, 0, 64, 48
1, 42416, Note_on_c, 0, 64, 5
1, 42426, Control_c, 0, 64, 46
1, 42426, Control_c, 0, 67, 116
1, 42429, Note_off_c, 0, 61, 56
1, 42441, Control_c, 0, 64, 44
1, 42444, Note_on_c, 0, 81, 75
1, 42452, Note_off_c, 0, 64, 37
1, 42453, Note_on_c, 0, 79, 66
1, 42455, Control_c, 0, 64, 41
1, 42457, Note_on_c, 0, 76, 68
1, 42464, Note_on_c, 0, 69, 54
1, 42470, Control_c, 0, 64, 40
1, 42482, Note_off_c, 0, 79, 62
1, 42484, Note_off_c, 0, 76, 61
1, 42485, Control_c, 0, 64, 41
1, 42489, Note_off_c, 0, 81, 58
1, 42500, Control_c, 0, 64, 43
1, 42515, Control_c, 0, 64, 47
1, 42529, Control_c, 0, 64, 53
1, 42539, Note_off_c, 0, 69, 39
1, 42544, Control_c, 0, 64, 60
1, 42547, Note_on_c, 0, 66, 68
1, 42556, Note_on_c, 0, 62, 61
1, 42556, Note_on_c, 0, 81, 77
1, 42559, Control_c, 0, 64, 65
1, 42560, Note_on_c, 0, 76, 73
1, 42560, Note_on_c, 0, 79, 70
1, 42574, Control_c, 0, 64, 67
1, 42583, Note_off_c, 0, 79, 69
1, 42583, Note_off_c, 0, 76, 69
1, 42583, Note_off_c, 0, 81, 65
1, 42589, Control_c, 0, 64, 67
1, 42607, Note_off_c, 0, 62, 60
1, 42609, Note_off_c, 0, 66, 63
1, 42653, Note_on_c, 0, 69, 60
1, 42663, Control_c, 0, 64, 67
1, 42708, Control_c, 0, 64, 66
1, 42723, Control_c, 0, 64, 66
1, 42728, Note_off_c, 0, 69, 53
1, 42738, Control_c, 0, 64, 65
1, 42760, Control_c, 0, 64, 64
1, 42765, Note_on_c, 0, 62, 49
1, 42770, Note_on_c, 0, 59, 49
1, 42772, Note_on_c, 0, 78, 62
1, 42774, Note_on_c, 0, 74, 68
1, 42774, Note_on_c, 0, 81, 71
1, 42775, Control_c, 0, 64, 63
1, 42790, Control_c, 0, 64, 61
1, 42795, Note_off_c, 0, 78, 64
1, 42797, Note_off_c, 0, 81, 63
1, 42798, Note_off_c, 0, 74, 64
1, 42803, Note_off_c, 0, 62, 64
1, 42805, Control_c, 0, 64, 59
1, 42807, Note_off_c, 0, 59, 66
1, 42819, Control_c, 0, 64, 56
1, 42834, Control_c, 0, 64, 53
1, 42849, Control_c, 0, 64, 49
1, 42855, Note_on_c, 0, 69, 61
1, 42860, Note_on_c, 0, 81, 71
1, 42864, Control_c, 0, 64, 45
1, 42869, Note_on_c, 0, 74, 59
1, 42869, Note_on_c, 0, 78, 52
1, 42879, Control_c, 0, 64, 41
1, 42889, Note_off_c, 0, 74, 61
1, 42893, Note_off_c, 0, 78, 58
1, 42893, Control_c, 0, 64, 39
1, 42896, Note_off_c, 0, 81, 55
1, 42908, Control_c, 0, 64, 38
1, 42923, Control_c, 0, 64, 39
1, 42938, Note_off_c, 0, 69, 55
1, 42938, Control_c, 0, 64, 42
1, 42944, Note_on_c, 0, 61, 60
1, 42953, Control_c, 0, 64, 49
1, 42957, Note_on_c, 0, 78, 80
1, 42962, Note_on_c, 0, 74, 74
1, 42965, Note_on_c, 0, 81, 82
1, 42968, Control_c, 0, 64, 56
1, 42971, Note_on_c, 0, 64, 49
1, 42983, Control_c, 0, 64, 61
1, 42988, Note_off_c, 0, 74, 67
1, 42989, Note_off_c, 0, 81, 66
1, 42997, Control_c, 0, 64, 64
1, 43005, Note_off_c, 0, 78, 58
1, 43009, Note_off_c, 0, 64, 64
1, 43012, Control_c, 0, 64, 66
1, 43030, Note_off_c, 0, 57, 57
1, 43047, Note_off_c, 0, 61, 60
1, 43063, Note_on_c, 0, 69, 57
1, 43101, Control_c, 0, 64, 65
1, 43116, Control_c, 0, 64, 65
1, 43131, Control_c, 0, 64, 64
1, 43146, Control_c, 0, 64, 63
1, 43148, Note_off_c, 0, 69, 57
1, 43160, Control_c, 0, 64, 61
1, 43175, Control_c, 0, 64, 60
1, 43176, Note_on_c, 0, 73, 61
1, 43182, Note_on_c, 0, 57, 52
1, 43186, Note_on_c, 0, 61, 55
1, 43187, Note_on_c, 0, 81, 44
1, 43190, Control_c, 0, 64, 59
1, 43193, Note_on_c, 0, 76, 38
1, 43196, Note_off_c, 0, 73, 62
1, 43204, Control_c, 0, 64, 57
1, 43214, Note_off_c, 0, 81, 56
1, 43219, Control_c, 0, 64, 55
1, 43234, Control_c, 0, 64, 53
1, 43242, Note_off_c, 0, 61, 56
1, 43249, Control_c, 0, 64, 49
1, 43260, Note_off_c, 0, 76, 0
1, 43264, Control_c, 0, 64, 45
1, 43267, Note_on_c, 0, 73, 62
1, 43267, Note_on_c, 0, 81, 49
1, 43273, Note_on_c, 0, 76, 40
1, 43275, Note_on_c, 0, 69, 55
1, 43278, Control_c, 0, 64, 42
1, 43290, Note_off_c, 0, 73, 59
1, 43293, Control_c, 0, 64, 41
1, 43306, Note_off_c, 0, 81, 53
1, 43308, Note_off_c, 0, 76, 59
1, 43323, Control_c, 0, 64, 43
1, 43338, Control_c, 0, 64, 45
1, 43352, Control_c, 0, 64, 50
1, 43362, Note_off_c, 0, 69, 34
1, 43366, Note_off_c, 0, 57, 48
1, 43367, Control_c, 0, 64, 55
1, 43380, Note_on_c, 0, 73, 57
1, 43382, Note_on_c, 0, 59, 50
1, 43382, Control_c, 0, 64, 61
1, 43390, Note_on_c, 0, 81, 65
1, 43393, Note_on_c, 0, 62, 44
1, 43397, Control_c, 0, 64, 64
1, 43400, Note_off_c, 0, 73, 62
1, 43406, Note_off_c, 0, 81, 65
1, 43412, Control_c, 0, 64, 67
1, 43418, Note_off_c, 0, 62, 58
1, 43419, Note_off_c, 0, 59, 64
1, 43427, Control_c, 0, 64, 69
1, 43442, Control_c, 0, 64, 71
1, 43457, Control_c, 0, 64, 74
1, 43471, Control_c, 0, 64, 76
1, 43486, Control_c, 0, 64, 78
1, 43508, Control_c, 0, 64, 81
1, 43523, Control_c, 0, 64, 83
1, 43554, Control_c, 0, 64, 82
1, 43569, Control_c, 0, 64, 75
1, 43583, Control_c, 0, 64, 65
1, 43598, Control_c, 0, 64, 55
1, 43612, Note_on_c, 0, 69, 65
1, 43613, Note_on_c, 0, 54, 72
1, 43613, Control_c, 0, 64, 46
1, 43628, Control_c, 0, 64, 42
1, 43629, Note_on_c, 0, 74, 71
1, 43639, Note_on_c, 0, 71, 57
1, 43657, Control_c, 0, 64, 46
1, 43672, Control_c, 0, 64, 51
1, 43678, Note_off_c, 0, 71, 60
1, 43680, Note_off_c, 0, 69, 57
1, 43687, Control_c, 0, 64, 56
1, 43697, Note_off_c, 0, 74, 54
1, 43702, Control_c, 0, 64, 61
1, 43715, Note_on_c, 0, 73, 58
1, 43716, Control_c, 0, 64, 64
1, 43725, Note_on_c, 0, 76, 68
1, 43731, Control_c, 0, 64, 67
1, 43732, Note_on_c, 0, 62, 61
1, 43746, Note_off_c, 0, 73, 64
1, 43746, Control_c, 0, 64, 70
1, 43753, Note_off_c, 0, 76, 66
1, 43761, Control_c, 0, 64, 72
1, 43776, Control_c, 0, 64, 74
1, 43790, Control_c, 0, 64, 76
1, 43803, Note_off_c, 0, 62, 60
1, 43805, Control_c, 0, 64, 78
1, 43820, Control_c, 0, 64, 79
1, 43834, Note_on_c, 0, 73, 70
1, 43835, Control_c, 0, 64, 79
1, 43844, Note_on_c, 0, 71, 39
1, 43850, Control_c, 0, 64, 80
1, 43850, Note_on_c, 0, 76, 71
1, 43868, Note_off_c, 0, 73, 60
1, 43880, Control_c, 0, 64, 80
1, 43895, Control_c, 0, 64, 81
1, 43909, Control_c, 0, 64, 82
1, 43924, Control_c, 0, 64, 83
1, 43934, Note_off_c, 0, 76, 60
1, 43937, Note_on_c, 0, 78, 67
1, 43939, Control_c, 0, 64, 84
1, 43940, Note_on_c, 0, 62, 54
1, 43945, Note_on_c, 0, 74, 62
1, 43945, Note_off_c, 0, 71, 41
1, 43951, Note_off_c, 0, 54, 62
1, 43963, Note_off_c, 0, 74, 64
1, 43978, Note_off_c, 0, 78, 56
1, 43983, Control_c, 0, 64, 78
1, 43998, Control_c, 0, 64, 68
1, 44008, Note_off_c, 0, 62, 53
1, 44013, Control_c, 0, 64, 59
1, 44027, Control_c, 0, 64, 51
1, 44038, Note_on_c, 0, 69, 70
1, 44039, Note_on_c, 0, 55, 66
1, 44042, Control_c, 0, 64, 47
1, 44044, Note_on_c, 0, 78, 69
1, 44050, Note_on_c, 0, 74, 58
1, 44057, Control_c, 0, 64, 49
1, 44072, Control_c, 0, 64, 53
1, 44087, Control_c, 0, 64, 57
1, 44101, Control_c, 0, 64, 62
1, 44116, Control_c, 0, 64, 65
1, 44121, Note_off_c, 0, 74, 50
1, 44131, Control_c, 0, 64, 68
1, 44133, Note_off_c, 0, 69, 59
1, 44135, Note_on_c, 0, 79, 61
1, 44136, Note_on_c, 0, 76, 66
1, 44145, Control_c, 0, 64, 70
1, 44162, Note_off_c, 0, 76, 67
1, 44163, Note_on_c, 0, 62, 54
1, 44166, Note_off_c, 0, 78, 62
1, 44175, Control_c, 0, 64, 71
1, 44180, Note_off_c, 0, 79, 64
1, 44238, Note_off_c, 0, 62, 59
1, 44262, Note_on_c, 0, 79, 61
1, 44278, Note_on_c, 0, 76, 39
1, 44282, Note_on_c, 0, 71, 45
1, 44314, Note_off_c, 0, 76, 48
1, 44316, Control_c, 0, 64, 71
1, 44339, Note_off_c, 0, 71, 37
1, 44344, Note_on_c, 0, 78, 53
1, 44347, Control_c, 0, 64, 73
1, 44348, Note_off_c, 0, 55, 59
1, 44351, Note_off_c, 0, 79, 62
1, 44362, Control_c, 0, 64, 74
1, 44366, Note_on_c, 0, 62, 56
1, 44376, Note_off_c, 0, 78, 65
1, 44376, Control_c, 0, 64, 75
1, 44384, Note_on_c, 0, 81, 30
1, 44406, Control_c, 0, 64, 70
1, 44410, Note_off_c, 0, 62, 59
1, 44419, Note_off_c, 0, 81, 43
1, 44421, Control_c, 0, 64, 62
1, 44436, Control_c, 0, 64, 54
1, 44451, Control_c, 0, 64, 48
1, 44452, Note_on_c, 0, 78, 70
1, 44458, Note_on_c, 0, 57, 66
1, 44459, Note_on_c, 0, 69, 63
1, 44461, Note_on_c, 0, 81, 67
1, 44465, Control_c, 0, 64, 49
1, 44480, Control_c, 0, 64, 51
1, 44481, Note_off_c, 0, 78, 62
1, 44495, Control_c, 0, 64, 55
1, 44506, Note_off_c, 0, 69, 60
1, 44510, Control_c, 0, 64, 60
1, 44525, Control_c, 0, 64, 64
1, 44539, Control_c, 0, 64, 68
1, 44549, Note_off_c, 0, 81, 63
1, 44554, Control_c, 0, 64, 71
1, 44555, Note_on_c, 0, 83, 65
1, 44559, Note_on_c, 0, 79, 69
1, 44583, Note_off_c, 0, 79, 66
1, 44583, Control_c, 0, 64, 69
1, 44588, Note_off_c, 0, 83, 61
1, 44590, Note_on_c, 0, 62, 33
1, 44598, Control_c, 0, 64, 66
1, 44613, Control_c, 0, 64, 64
1, 44621, Note_off_c, 0, 62, 49
1, 44643, Control_c, 0, 64, 65
1, 44656, Note_on_c, 0, 79, 60
1, 44658, Control_c, 0, 64, 66
1, 44660, Note_on_c, 0, 71, 44
1, 44661, Note_on_c, 0, 83, 59
1, 44673, Control_c, 0, 64, 67
1, 44688, Control_c, 0, 64, 69
1, 44691, Note_off_c, 0, 79, 54
1, 44702, Note_off_c, 0, 71, 45
1, 44703, Control_c, 0, 64, 70
1, 44717, Control_c, 0, 64, 71
1, 44732, Control_c, 0, 64, 71
1, 44738, Note_off_c, 0, 57, 61
1, 44740, Note_on_c, 0, 81, 62
1, 44744, Note_on_c, 0, 62, 46
1, 44744, Note_off_c, 0, 83, 62
1, 44747, Control_c, 0, 64, 73
1, 44758, Note_on_c, 0, 85, 61
1, 44762, Control_c, 0, 64, 73
1, 44765, Note_off_c, 0, 81, 58
1, 44776, Control_c, 0, 64, 74
1, 44791, Control_c, 0, 64, 73
1, 44806, Control_c, 0, 64, 69
1, 44815, Note_off_c, 0, 85, 64
1, 44821, Control_c, 0, 64, 64
1, 44824, Note_off_c, 0, 62, 55
1, 44836, Control_c, 0, 64, 61
1, 44850, Control_c, 0, 64, 62
1, 44854, Note_on_c, 0, 69, 47
1, 44861, Note_on_c, 0, 81, 57
1, 44865, Control_c, 0, 64, 63
1, 44866, Note_on_c, 0, 59, 51
1, 44867, Note_on_c, 0, 85, 60
1, 44880, Control_c, 0, 64, 64
1, 44891, Note_off_c, 0, 69, 63
1, 44895, Control_c, 0, 64, 67
1, 44910, Control_c, 0, 64, 70
1, 44924, Control_c, 0, 64, 75
1, 44935, Note_off_c, 0, 81, 39
1, 44939, Control_c, 0, 64, 78
1, 44943, Note_off_c, 0, 59, 63
1, 44947, Note_on_c, 0, 62, 45
1, 44954, Control_c, 0, 64, 79
1, 44956, Note_on_c, 0, 86, 58
1, 44966, Note_on_c, 0, 83, 59
1, 44968, Control_c, 0, 64, 80
1, 44969, Note_off_c, 0, 85, 61
1, 44972, Note_off_c, 0, 62, 52
1, 44983, Control_c, 0, 64, 78
1, 45003, Note_off_c, 0, 83, 65
1, 45006, Control_c, 0, 64, 70
1, 45021, Control_c, 0, 64, 60
1, 45027, Note_off_c, 0, 86, 59
1, 45036, Control_c, 0, 64, 46
1, 45051, Control_c, 0, 64, 33
1, 45065, Control_c, 0, 64, 31
1, 45080, Note_on_c, 0, 43, 70
1, 45080, Control_c, 0, 64, 37
1, 45086, Note_on_c, 0, 59, 59
1, 45093, Note_on_c, 0, 50, 38
1, 45093, Note_on_c, 0, 83, 67
1, 45094, Note_on_c, 0, 86, 63
1, 45095, Control_c, 0, 64, 49
1, 45102, Note_off_c, 0, 43, 63
1, 45103, Note_on_c, 0, 79, 61
1, 45109, Control_c, 0, 64, 59
1, 45114, Note_off_c, 0, 83, 65
1, 45116, Note_off_c, 0, 59, 66
1, 45121, Note_off_c, 0, 50, 50
1, 45121, Note_off_c, 0, 86, 60
1, 45126, Control_c, 0, 64, 66
1, 45128, Note_off_c, 0, 79, 63
1, 45141, Control_c, 0, 64, 74
1, 45155, Control_c, 0, 64, 82
1, 45170, Control_c, 0, 64, 90
1, 45185, Control_c, 0, 64, 92
1, 45199, Control_c, 0, 64, 93
1, 45214, Control_c, 0, 64, 94
1, 45229, Control_c, 0, 64, 93
1, 45244, Control_c, 0, 64, 87
1, 45259, Control_c, 0, 64, 77
1, 45273, Control_c, 0, 64, 68
1, 45288, Control_c, 0, 64, 64
1, 45318, Control_c, 0, 64, 65
1, 45322, Note_on_c, 0, 86, 67
1, 45329, Note_on_c, 0, 67, 39
1, 45329, Note_on_c, 0, 79, 52
1, 45332, Note_on_c, 0, 83, 49
1, 45333, Control_c, 0, 64, 67
1, 45347, Control_c, 0, 64, 70
1, 45348, Note_on_c, 0, 74, 37
1, 45348, Note_off_c, 0, 86, 65
1, 45349, Note_off_c, 0, 79, 64
1, 45352, Note_off_c, 0, 83, 59
1, 45362, Control_c, 0, 64, 74
1, 45378, Control_c, 0, 64, 77
1, 45389, Note_off_c, 0, 74, 47
1, 45393, Note_off_c, 0, 67, 59
1, 45393, Control_c, 0, 64, 78
1, 45415, Note_on_c, 0, 71, 60
1, 45422, Control_c, 0, 64, 75
1, 45437, Control_c, 0, 64, 67
1, 45448, Note_off_c, 0, 71, 54
1, 45452, Control_c, 0, 64, 60
1, 45467, Control_c, 0, 64, 54
1, 45481, Control_c, 0, 64, 53
1, 45496, Control_c, 0, 64, 55
1, 45511, Control_c, 0, 64, 58
1, 45522, Note_on_c, 0, 86, 72
1, 45525, Control_c, 0, 64, 61
1, 45529, Note_on_c, 0, 66, 67
1, 45530, Note_on_c, 0, 79, 65
1, 45534, Note_on_c, 0, 83, 57
1, 45538, Note_on_c, 0, 74, 55
1, 45540, Control_c, 0, 64, 66
1, 45545, Note_off_c, 0, 86, 69
1, 45549, Note_off_c, 0, 79, 66
1, 45552, Note_off_c, 0, 83, 62
1, 45555, Control_c, 0, 64, 71
1, 45570, Control_c, 0, 64, 75
1, 45585, Control_c, 0, 64, 78
1, 45586, Note_off_c, 0, 74, 59
1, 45600, Control_c, 0, 64, 80
1, 45603, Note_off_c, 0, 66, 60
1, 45636, Note_on_c, 0, 71, 51
1, 45645, Control_c, 0, 64, 76
1, 45659, Note_off_c, 0, 71, 59
1, 45659, Control_c, 0, 64, 68
1, 45674, Control_c, 0, 64, 62
1, 45689, Control_c, 0, 64, 60
1, 45704, Control_c, 0, 64, 60
1, 45719, Control_c, 0, 64, 62
1, 45719, Control_c, 0, 67, 114
1, 45732, Note_on_c, 0, 71, 62
1, 45733, Control_c, 0, 64, 65
1, 45734, Note_on_c, 0, 86, 73
1, 45740, Note_on_c, 0, 79, 61
1, 45740, Note_on_c, 0, 83, 63
1, 45742, Note_on_c, 0, 74, 54
1, 45743, Note_on_c, 0, 64, 59
1, 45755, Control_c, 0, 64, 69
1, 45767, Note_off_c, 0, 83, 66
1, 45767, Note_off_c, 0, 86, 66
1, 45767, Note_off_c, 0, 79, 63
1, 45770, Control_c, 0, 64, 75
1, 45772, Note_off_c, 0, 74, 60
1, 45785, Control_c, 0, 64, 80
1, 45800, Control_c, 0, 64, 82
1, 45809, Note_off_c, 0, 71, 51
1, 45829, Control_c, 0, 64, 79
1, 45831, Note_off_c, 0, 64, 60
1, 45835, Note_on_c, 0, 79, 71
1, 45844, Note_on_c, 0, 67, 62
1, 45844, Control_c, 0, 64, 70
1, 45845, Note_on_c, 0, 83, 57
1, 45847, Note_on_c, 0, 74, 61
1, 45856, Note_on_c, 0, 86, 52
1, 45859, Control_c, 0, 64, 63
1, 45859, Control_c, 0, 67, 112
1, 45862, Note_off_c, 0, 79, 55
1, 45866, Note_off_c, 0, 83, 58
1, 45869, Note_off_c, 0, 74, 60
1, 45874, Control_c, 0, 64, 59
1, 45880, Note_off_c, 0, 86, 55
1, 45903, Note_off_c, 0, 67, 58
1, 45904, Control_c, 0, 64, 60
1, 45919, Control_c, 0, 64, 61
1, 45934, Control_c, 0, 64, 64
1, 45943, Note_on_c, 0, 62, 64
1, 45949, Note_on_c, 0, 71, 53
1, 45949, Note_on_c, 0, 86, 75
1, 45949, Control_c, 0, 64, 68
1, 45952, Note_on_c, 0, 74, 69
1, 45952, Note_on_c, 0, 79, 75
1, 45952, Note_on_c, 0, 83, 66
1, 45963, Control_c, 0, 64, 73
1, 45978, Control_c, 0, 64, 77
1, 45980, Note_off_c, 0, 83, 63
1, 45984, Note_off_c, 0, 86, 58
1, 45986, Note_off_c, 0, 74, 64
1, 45990, Note_off_c, 0, 71, 60
1, 45993, Note_off_c, 0, 79, 57
1, 45993, Control_c, 0, 64, 80
1, 46008, Control_c, 0, 64, 84
1, 46015, Note_off_c, 0, 62, 61
1, 46023, Control_c, 0, 64, 87
1, 46023, Control_c, 0, 67, 110
1, 46025, Note_on_c, 0, 67, 46
1, 46038, Control_c, 0, 64, 88
1, 46048, Note_off_c, 0, 67, 58
1, 46053, Control_c, 0, 67, 107
1, 46068, Control_c, 0, 64, 85
1, 46068, Control_c, 0, 67, 101
1, 46083, Control_c, 0, 64, 75
1, 46083, Control_c, 0, 67, 90
1, 46097, Control_c, 0, 64, 64
1, 46097, Control_c, 0, 67, 74
1, 46112, Control_c, 0, 64, 55
1, 46112, Control_c, 0, 67, 53
1, 46126, Control_c, 0, 64, 52
1, 46126, Control_c, 0, 67, 32
1, 46141, Note_on_c, 0, 67, 54
1, 46141, Control_c, 0, 64, 53
1, 46141, Control_c, 0, 67, 0
1, 46151, Note_on_c, 0, 87, 68
1, 46155, Control_c, 0, 64, 56
1, 46157, Note_on_c, 0, 75, 59
1, 46162, Note_on_c, 0, 79, 52
1, 46163, Note_on_c, 0, 60, 65
1, 46170, Control_c, 0, 64, 61
1, 46178, Note_on_c, 0, 84, 32
1, 46178, Note_off_c, 0, 75, 62
1, 46179, Note_off_c, 0, 87, 64
1, 46185, Control_c, 0, 64, 65
1, 46187, Note_off_c, 0, 79, 59
1, 46200, Control_c, 0, 64, 71
1, 46208, Note_off_c, 0, 67, 56
1, 46213, Note_off_c, 0, 84, 43
1, 46215, Control_c, 0, 64, 79
1, 46229, Control_c, 0, 64, 90
1, 46242, Note_off_c, 0, 60, 61
1, 46244, Control_c, 0, 64, 94
1, 46249, Note_on_c, 0, 63, 62
1, 46259, Control_c, 0, 64, 95
1, 46274, Control_c, 0, 64, 94
1, 46289, Control_c, 0, 64, 90
1, 46303, Control_c, 0, 64, 80
1, 46318, Control_c, 0, 64, 68
1, 46325, Note_off_c, 0, 63, 61
1, 46333, Control_c, 0, 64, 60
1, 46348, Control_c, 0, 64, 58
1, 46357, Note_on_c, 0, 58, 66
1, 46363, Control_c, 0, 64, 60
1, 46364, Note_on_c, 0, 75, 74
1, 46366, Note_on_c, 0, 67, 41
1, 46368, Note_on_c, 0, 87, 74
1, 46378, Control_c, 0, 64, 62
1, 46381, Note_on_c, 0, 79, 51
1, 46389, Note_off_c, 0, 75, 67
1, 46391, Note_on_c, 0, 84, 41
1, 46391, Note_off_c, 0, 87, 68
1, 46393, Control_c, 0, 64, 65
1, 46407, Note_off_c, 0, 79, 59
1, 46408, Control_c, 0, 64, 71
1, 46416, Note_off_c, 0, 67, 41
1, 46420, Note_off_c, 0, 84, 50
1, 46422, Control_c, 0, 64, 79
1, 46430, Note_on_c, 0, 61, 50
1, 46437, Control_c, 0, 64, 91
1, 46445, Note_off_c, 0, 58, 61
1, 46447, Note_on_c, 0, 63, 64
1, 46452, Control_c, 0, 64, 93
1, 46467, Control_c, 0, 64, 94
1, 46482, Control_c, 0, 64, 93
1, 46483, Note_off_c, 0, 61, 45
1, 46490, Note_on_c, 0, 60, 43
1, 46503, Control_c, 0, 64, 87
1, 46518, Control_c, 0, 64, 77
1, 46533, Control_c, 0, 64, 66
1, 46547, Note_off_c, 0, 60, 58
1, 46548, Control_c, 0, 64, 62
1, 46552, Note_off_c, 0, 63, 56
1, 46563, Control_c, 0, 64, 63
1, 46575, Note_on_c, 0, 56, 69
1, 46578, Control_c, 0, 64, 65
1, 46580, Note_on_c, 0, 75, 73
1, 46580, Note_on_c, 0, 87, 74
1, 46585, Note_on_c, 0, 67, 58
1, 46587, Note_on_c, 0, 84, 61
1, 46592, Control_c, 0, 64, 68
1, 46601, Note_on_c, 0, 79, 41
1, 46607, Note_off_c, 0, 87, 64
1, 46607, Control_c, 0, 64, 74
1, 46609, Note_off_c, 0, 84, 64
1, 46610, Note_off_c, 0, 75, 63
1, 46622, Control_c, 0, 64, 81
1, 46631, Note_off_c, 0, 79, 50
1, 46637, Control_c, 0, 64, 90
1, 46652, Control_c, 0, 64, 96
1, 46657, Poly_aftertouch_c, 0, 82, 0
1, 46667, Note_on_c, 0, 60, 56
1, 46670, Note_on_c, 0, 87, 76
1, 46674, Note_on_c, 0, 75, 68
1, 46676, Note_on_c, 0, 63, 68
1, 46679, Note_off_c, 0, 56, 55
1, 46682, Note_on_c, 0, 84, 74
1, 46682, Control_c, 0, 64, 90
1, 46683, Note_on_c, 0, 79, 64
1, 46697, Control_c, 0, 64, 78
1, 46698, Note_off_c, 0, 67, 37
1, 46706, Note_off_c, 0, 84, 56
1, 46706, Note_off_c, 0, 75, 62
1, 46707, Note_off_c, 0, 87, 52
1, 46712, Control_c, 0, 64, 65
1, 46713, Poly_aftertouch_c, 0, 82, 0
1, 46715, Note_off_c, 0, 79, 57
1, 46727, Control_c, 0, 64, 56
1, 46742, Control_c, 0, 64, 53
1, 46743, Note_off_c, 0, 60, 61
1, 46757, Control_c, 0, 64, 55
1, 46768, Note_off_c, 0, 63, 52
1, 46772, Control_c, 0, 64, 58
1, 46776, Note_on_c, 0, 55, 78
1, 46784, Note_on_c, 0, 67, 73
1, 46786, Note_on_c, 0, 87, 82
1, 46786, Control_c, 0, 64, 63
1, 46788, Note_on_c, 0, 75, 76
1, 46789, Note_on_c, 0, 84, 71
1, 46789, Note_on_c, 0, 79, 75
1, 46801, Control_c, 0, 64, 68
1, 46810, Note_off_c, 0, 75, 70
1, 46813, Note_off_c, 0, 79, 69
1, 46816, Note_off_c, 0, 84, 68
1, 46816, Control_c, 0, 64, 76
1, 46831, Control_c, 0, 64, 86
1, 46834, Note_off_c, 0, 87, 62
1, 46846, Note_off_c, 0, 55, 62
1, 46846, Control_c, 0, 64, 100
1, 46849, Note_off_c, 0, 67, 62
1, 46859, Note_on_c, 0, 60, 56
1, 46861, Control_c, 0, 64, 108
1, 46874, Note_on_c, 0, 63, 56
1, 46876, Control_c, 0, 64, 110
1, 46905, Control_c, 0, 64, 107
1, 46920, Control_c, 0, 64, 91
1, 46929, Note_off_c, 0, 60, 64
1, 46935, Control_c, 0, 64, 71
1, 46938, Note_off_c, 0, 63, 62
1, 46950, Control_c, 0, 64, 59
1, 46965, Control_c, 0, 64, 51
1, 46985, Note_on_c, 0, 66, 77
1, 46990, Note_on_c, 0, 54, 75
1, 46994, Control_c, 0, 64, 54
1, 46995, Note_on_c, 0, 85, 78
1, 46995, Note_on_c, 0, 76, 79
1, 46997, Note_on_c, 0, 82, 77
1, 47003, Note_on_c, 0, 88, 74
1, 47004, Note_on_c, 0, 89, 74
1, 47009, Control_c, 0, 64, 59
1, 47018, Note_off_c, 0, 76, 68
1, 47018, Note_off_c, 0, 82, 70
1, 47021, Note_off_c, 0, 89, 67
1, 47022, Note_on_c, 0, 77, 46
1, 47022, Note_off_c, 0, 85, 64
1, 47024, Control_c, 0, 64, 63
1, 47025, Note_off_c, 0, 88, 71
1, 47039, Control_c, 0, 64, 70
1, 47047, Note_off_c, 0, 66, 61
1, 47049, Note_off_c, 0, 77, 56
1, 47053, Control_c, 0, 64, 80
1, 47068, Control_c, 0, 64, 92
1, 47075, Note_off_c, 0, 54, 61
1, 47083, Control_c, 0, 64, 97
1, 47090, Note_on_c, 0, 61, 62
1, 47094, Note_on_c, 0, 58, 57
1, 47113, Control_c, 0, 64, 95
1, 47127, Control_c, 0, 64, 84
1, 47142, Control_c, 0, 64, 68
1, 47157, Control_c, 0, 64, 59
1, 47162, Note_off_c, 0, 61, 56
1, 47171, Control_c, 0, 64, 57
1, 47186, Control_c, 0, 64, 59
1, 47188, Note_off_c, 0, 58, 57
1, 47193, Note_on_c, 0, 52, 72
1, 47200, Note_on_c, 0, 64, 70
1, 47201, Control_c, 0, 64, 63
1, 47204, Note_on_c, 0, 88, 83
1, 47205, Note_on_c, 0, 76, 81
1, 47206, Note_on_c, 0, 82, 79
1, 47207, Note_on_c, 0, 85, 79
1, 47216, Control_c, 0, 64, 67
1, 47231, Note_off_c, 0, 82, 60
1, 47231, Control_c, 0, 64, 77
1, 47232, Note_off_c, 0, 88, 64
1, 47233, Note_off_c, 0, 76, 62
1, 47234, Note_off_c, 0, 85, 59
1, 47253, Control_c, 0, 64, 90
1, 47268, Control_c, 0, 64, 114
1, 47278, Note_off_c, 0, 52, 58
1, 47283, Control_c, 0, 64, 127
1, 47287, Note_on_c, 0, 58, 60
1, 47287, Note_on_c, 0, 61, 70
1, 47292, Note_off_c, 0, 64, 59
1, 47342, Control_c, 0, 64, 102
1, 47344, Note_off_c, 0, 58, 60
1, 47345, Note_off_c, 0, 61, 59
1, 47357, Control_c, 0, 64, 78
1, 47372, Control_c, 0, 64, 63
1, 47386, Control_c, 0, 64, 52
1, 47401, Control_c, 0, 64, 51
1, 47402, Note_on_c, 0, 50, 79
1, 47407, Note_on_c, 0, 62, 75
1, 47415, Note_on_c, 0, 90, 84
1, 47416, Control_c, 0, 64, 56
1, 47418, Note_on_c, 0, 78, 81
1, 47422, Note_on_c, 0, 81, 73
1, 47422, Note_on_c, 0, 86, 71
1, 47431, Control_c, 0, 64, 62
1, 47446, Control_c, 0, 64, 68
1, 47460, Control_c, 0, 64, 79
1, 47475, Control_c, 0, 64, 102
1, 47476, Note_off_c, 0, 50, 58
1, 47490, Control_c, 0, 64, 127
1, 47493, Note_off_c, 0, 78, 51
1, 47497, Note_off_c, 0, 90, 56
1, 47499, Note_on_c, 0, 54, 66
1, 47499, Note_on_c, 0, 57, 65
1, 47508, Note_off_c, 0, 62, 58
1, 47529, Note_off_c, 0, 81, 56
1, 47546, Note_off_c, 0, 86, 39
1, 47550, Control_c, 0, 64, 96
1, 47565, Note_off_c, 0, 54, 62
1, 47565, Control_c, 0, 64, 71
1, 47570, Note_off_c, 0, 57, 64
1, 47580, Control_c, 0, 64, 59
1, 47595, Control_c, 0, 64, 54
1, 47609, Control_c, 0, 64, 58
1, 47613, Note_on_c, 0, 61, 82
1, 47623, Note_on_c, 0, 78, 84
1, 47624, Note_on_c, 0, 90, 79
1, 47625, Control_c, 0, 64, 63
1, 47630, Note_on_c, 0, 49, 72
1, 47630, Note_on_c, 0, 81, 76
1, 47631, Note_on_c, 0, 86, 65
1, 47640, Control_c, 0, 64, 70
1, 47651, Note_off_c, 0, 78, 65
1, 47653, Note_off_c, 0, 81, 67
1, 47655, Control_c, 0, 64, 82
1, 47664, Note_off_c, 0, 86, 63
1, 47667, Note_on_c, 0, 87, 20
1, 47670, Control_c, 0, 64, 105
1, 47680, Note_off_c, 0, 90, 64
1, 47684, Control_c, 0, 64, 127
1, 47695, Note_off_c, 0, 61, 58
1, 47704, Note_off_c, 0, 87, 55
1, 47711, Note_on_c, 0, 54, 63
1, 47714, Note_on_c, 0, 57, 20
1, 47714, Note_off_c, 0, 49, 61
1, 47756, Note_off_c, 0, 57, 54
1, 47773, Control_c, 0, 64, 88
1, 47788, Control_c, 0, 64, 67
1, 47791, Note_off_c, 0, 54, 62
1, 47803, Control_c, 0, 64, 56
1, 47818, Control_c, 0, 64, 53
1, 47823, Note_on_c, 0, 48, 77
1, 47824, Note_on_c, 0, 60, 77
1, 47833, Control_c, 0, 64, 58
1, 47833, Note_on_c, 0, 87, 79
1, 47838, Note_on_c, 0, 79, 78
1, 47838, Note_on_c, 0, 84, 71
1, 47838, Note_on_c, 0, 91, 82
1, 47847, Control_c, 0, 64, 63
1, 47862, Control_c, 0, 64, 69
1, 47863, Note_off_c, 0, 84, 69
1, 47866, Note_off_c, 0, 79, 63
1, 47869, Note_off_c, 0, 91, 57
1, 47871, Note_off_c, 0, 87, 62
1, 47873, Note_on_c, 0, 85, 10
1, 47877, Control_c, 0, 64, 80
1, 47891, Note_off_c, 0, 48, 63
1, 47892, Control_c, 0, 64, 100
1, 47907, Control_c, 0, 64, 127
1, 47909, Note_on_c, 0, 55, 65
1, 47921, Note_off_c, 0, 85, 30
1, 47925, Note_on_c, 0, 87, 68
1, 47925, Note_on_c, 0, 79, 70
1, 47928, Note_on_c, 0, 91, 68
1, 47932, Note_on_c, 0, 84, 74
1, 47934, Note_off_c, 0, 60, 64
1, 47944, Note_on_c, 0, 51, 61
1, 47951, Control_c, 0, 64, 95
1, 47952, Note_on_c, 0, 56, 15
1, 47952, Note_off_c, 0, 56, 127
1, 47960, Note_off_c, 0, 84, 65
1, 47961, Note_off_c, 0, 91, 59
1, 47965, Note_off_c, 0, 79, 54
1, 47966, Control_c, 0, 64, 71
1, 47976, Note_off_c, 0, 87, 64
1, 47981, Control_c, 0, 64, 57
1, 48000, Note_off_c, 0, 55, 62
1, 48002, Control_c, 0, 64, 52
1, 48017, Note_off_c, 0, 51, 62
1, 48017, Control_c, 0, 64, 55
1, 48032, Control_c, 0, 64, 62
1, 48033, Note_on_c, 0, 58, 83
1, 48042, Note_on_c, 0, 87, 79
1, 48047, Control_c, 0, 64, 68
1, 48053, Note_on_c, 0, 84, 74
1, 48053, Note_on_c, 0, 55, 48
1, 48053, Note_on_c, 0, 91, 82
1, 48056, Note_on_c, 0, 79, 64
1, 48059, Note_on_c, 0, 46, 76
1, 48062, Control_c, 0, 64, 80
1, 48068, Note_off_c, 0, 84, 68
1, 48074, Note_off_c, 0, 79, 65
1, 48077, Control_c, 0, 64, 104
1, 48088, Note_off_c, 0, 91, 49
1, 48089, Note_off_c, 0, 87, 65
1, 48092, Control_c, 0, 64, 127
1, 48110, Note_off_c, 0, 58, 59
1, 48140, Note_on_c, 0, 51, 65
1, 48154, Note_off_c, 0, 55, 45
1, 48160, Note_off_c, 0, 46, 62
1, 48195, Control_c, 0, 64, 88
1, 48207, Note_off_c, 0, 51, 62
1, 48210, Control_c, 0, 64, 63
1, 48225, Control_c, 0, 64, 44
1, 48240, Control_c, 0, 64, 37
1, 48250, Note_on_c, 0, 45, 74
1, 48254, Note_on_c, 0, 54, 79
1, 48255, Control_c, 0, 64, 43
1, 48257, Note_on_c, 0, 57, 70
1, 48259, Note_on_c, 0, 93, 89
1, 48259, Note_on_c, 0, 90, 78
1, 48260, Note_on_c, 0, 50, 67
1, 48265, Note_on_c, 0, 86, 79
1, 48267, Note_on_c, 0, 81, 85
1, 48270, Control_c, 0, 64, 54
1, 48283, Note_off_c, 0, 57, 67
1, 48284, Note_off_c, 0, 45, 66
1, 48284, Note_off_c, 0, 54, 66
1, 48284, Control_c, 0, 64, 63
1, 48291, Note_off_c, 0, 50, 67
1, 48299, Control_c, 0, 64, 70
1, 48314, Control_c, 0, 64, 79
1, 48330, Control_c, 0, 64, 90
1, 48345, Control_c, 0, 64, 94
1, 48359, Control_c, 0, 64, 95
1, 48374, Control_c, 0, 64, 97
1, 48381, Note_off_c, 0, 93, 61
1, 48389, Control_c, 0, 64, 99
1, 48404, Control_c, 0, 64, 105
1, 48419, Control_c, 0, 64, 127
1, 48420, Note_off_c, 0, 81, 39
1, 48458, Note_off_c, 0, 86, 44
1, 48493, Control_c, 0, 64, 87
1, 48506, Note_off_c, 0, 90, 20
1, 48507, Control_c, 0, 64, 68
1, 48522, Control_c, 0, 64, 58
1, 48537, Control_c, 0, 64, 59
1, 48542, Note_on_c, 0, 26, 81
1, 48544, Note_on_c, 0, 38, 88
1, 48545, Note_on_c, 0, 90, 73
1, 48548, Note_on_c, 0, 86, 88
1, 48549, Note_on_c, 0, 93, 90
1, 48551, Note_on_c, 0, 81, 92
1, 48551, Control_c, 0, 64, 64
1, 48566, Note_off_c, 0, 26, 65
1, 48566, Control_c, 0, 64, 71
1, 48575, Note_off_c, 0, 38, 67
1, 48581, Note_on_c, 0, 87, 39
1, 48581, Note_off_c, 0, 87, 127
1, 48581, Control_c, 0, 64, 82
1, 48586, Note_off_c, 0, 86, 63
1, 48587, Note_off_c, 0, 93, 66
1, 48596, Control_c, 0, 64, 107
1, 48599, Note_off_c, 0, 90, 64
1, 48599, Note_off_c, 0, 81, 63
1, 48611, Control_c, 0, 64, 127
1, 48811, Control_c, 0, 64, 120
1, 48825, Control_c, 0, 64, 72
1, 48832, Note_on_c, 0, 70, 77
1, 48834, Note_on_c, 0, 86, 84
1, 48836, Note_on_c, 0, 61, 68
1, 48837, Note_on_c, 0, 74, 83
1, 48838, Note_on_c, 0, 82, 78
1, 48840, Control_c, 0, 64, 50
1, 48855, Note_on_c, 0, 67, 57
1, 48855, Control_c, 0, 64, 0
1, 48881, Note_off_c, 0, 86, 64
1, 48882, Note_off_c, 0, 74, 63
1, 48882, Note_off_c, 0, 82, 60
1, 48898, Note_off_c, 0, 70, 64
1, 48913, Note_off_c, 0, 67, 63
1, 48937, Note_on_c, 0, 86, 82
1, 48942, Note_on_c, 0, 74, 74
1, 48946, Note_on_c, 0, 82, 65
1, 48956, Note_off_c, 0, 61, 50
1, 48978, Note_off_c, 0, 82, 62
1, 48980, Note_off_c, 0, 74, 64
1, 48998, Note_off_c, 0, 86, 64
1, 49049, Note_on_c, 0, 66, 76
1, 49054, Note_on_c, 0, 86, 86
1, 49055, Note_on_c, 0, 69, 75
1, 49055, Note_on_c, 0, 81, 86
1, 49058, Note_on_c, 0, 74, 89
1, 49059, Note_on_c, 0, 62, 71
1, 49063, Control_c, 0, 64, 40
1, 49077, Control_c, 0, 64, 62
1, 49089, Note_off_c, 0, 74, 66
1, 49092, Note_off_c, 0, 81, 66
1, 49092, Control_c, 0, 64, 74
1, 49095, Note_off_c, 0, 69, 59
1, 49099, Note_off_c, 0, 86, 64
1, 49100, Note_off_c, 0, 62, 59
1, 49107, Control_c, 0, 64, 93
1, 49123, Control_c, 0, 64, 127
1, 49127, Note_off_c, 0, 66, 55
1, 49256, Control_c, 0, 64, 87
1, 49265, Note_on_c, 0, 68, 71
1, 49266, Note_on_c, 0, 59, 64
1, 49271, Control_c, 0, 64, 64
1, 49273, Note_on_c, 0, 74, 79
1, 49275, Note_on_c, 0, 86, 82
1, 49276, Note_on_c, 0, 80, 78
1, 49284, Note_on_c, 0, 65, 55
1, 49286, Control_c, 0, 64, 30
1, 49299, Note_on_c, 0, 66, 14
1, 49301, Control_c, 0, 64, 0
1, 49304, Note_off_c, 0, 68, 65
1, 49305, Note_off_c, 0, 80, 62
1, 49314, Note_off_c, 0, 86, 62
1, 49315, Note_off_c, 0, 74, 61
1, 49338, Note_off_c, 0, 59, 54
1, 49339, Note_off_c, 0, 65, 57
1, 49344, Note_off_c, 0, 66, 50
1, 49359, Note_on_c, 0, 86, 70
1, 49362, Note_on_c, 0, 74, 61
1, 49404, Note_off_c, 0, 74, 61
1, 49415, Note_off_c, 0, 86, 63
1, 49465, Note_on_c, 0, 60, 70
1, 49466, Note_on_c, 0, 64, 64
1, 49468, Note_on_c, 0, 67, 62
1, 49472, Note_on_c, 0, 79, 94
1, 49475, Note_on_c, 0, 86, 76
1, 49478, Control_c, 0, 64, 54
1, 49481, Note_on_c, 0, 74, 75
1, 49496, Note_off_c, 0, 60, 67
1, 49498, Note_off_c, 0, 64, 67
1, 49500, Control_c, 0, 64, 69
1, 49501, Note_off_c, 0, 86, 71
1, 49502, Note_off_c, 0, 67, 65
1, 49502, Note_off_c, 0, 79, 68
1, 49511, Note_off_c, 0, 74, 70
1, 49515, Control_c, 0, 64, 86
1, 49530, Control_c, 0, 64, 127
1, 49693, Control_c, 0, 64, 90
1, 49694, Note_on_c, 0, 70, 83
1, 49699, Note_on_c, 0, 54, 70
1, 49700, Note_on_c, 0, 64, 64
1, 49705, Note_on_c, 0, 42, 58
1, 49708, Control_c, 0, 64, 66
1, 49722, Control_c, 0, 64, 36
1, 49728, Note_off_c, 0, 54, 67
1, 49730, Note_off_c, 0, 64, 55
1, 49733, Note_off_c, 0, 42, 57
1, 49737, Control_c, 0, 64, 0
1, 49777, Note_off_c, 0, 70, 61
1, 49791, Note_on_c, 0, 73, 71
1, 49887, Note_on_c, 0, 47, 57
1, 49892, Note_on_c, 0, 59, 60
1, 49893, Note_on_c, 0, 74, 88
1, 49898, Note_on_c, 0, 54, 68
1, 49900, Control_c, 0, 64, 52
1, 49901, Note_on_c, 0, 62, 72
1, 49903, Note_on_c, 0, 71, 75
1, 49914, Note_off_c, 0, 73, 64
1, 49914, Note_off_c, 0, 74, 70
1, 49916, Control_c, 0, 64, 69
1, 49917, Note_off_c, 0, 47, 59
1, 49920, Note_off_c, 0, 62, 66
1, 49922, Note_off_c, 0, 59, 67
1, 49928, Note_off_c, 0, 71, 70
1, 49929, Note_off_c, 0, 54, 65
1, 49931, Control_c, 0, 64, 98
1, 49946, Control_c, 0, 64, 127
1, 50101, Note_on_c, 0, 56, 75
1, 50112, Note_on_c, 0, 66, 70
1, 50116, Note_on_c, 0, 39, 64
1, 50119, Note_on_c, 0, 44, 54
1, 50120, Note_on_c, 0, 60, 53
1, 50121, Note_on_c, 0, 51, 58
1, 50131, Note_off_c, 0, 56, 63
1, 50138, Control_c, 0, 64, 81
1, 50144, Note_off_c, 0, 60, 60
1, 50144, Note_off_c, 0, 66, 59
1, 50153, Note_off_c, 0, 51, 64
1, 50153, Control_c, 0, 64, 60
1, 50167, Note_off_c, 0, 39, 60
1, 50168, Note_off_c, 0, 44, 55
1, 50168, Control_c, 0, 64, 0
1, 50198, Note_on_c, 0, 66, 74
1, 50234, Note_off_c, 0, 66, 59
1, 50298, Note_on_c, 0, 40, 71
1, 50304, Note_on_c, 0, 52, 77
1, 50307, Note_on_c, 0, 59, 73
1, 50309, Note_on_c, 0, 66, 82
1, 50310, Note_on_c, 0, 47, 63
1, 50310, Note_on_c, 0, 55, 70
1, 50323, Control_c, 0, 64, 32
1, 50329, Note_off_c, 0, 59, 70
1, 50331, Note_off_c, 0, 52, 68
1, 50332, Note_off_c, 0, 40, 65
1, 50336, Note_off_c, 0, 55, 68
1, 50338, Note_off_c, 0, 47, 66
1, 50338, Control_c, 0, 64, 60
1, 50339, Note_on_c, 0, 61, 23
1, 50352, Note_off_c, 0, 66, 60
1, 50353, Control_c, 0, 64, 72
1, 50368, Control_c, 0, 64, 92
1, 50381, Note_off_c, 0, 61, 32
1, 50383, Control_c, 0, 64, 127
1, 50501, Control_c, 0, 64, 97
1, 50516, Control_c, 0, 64, 74
1, 50519, Note_on_c, 0, 52, 74
1, 50519, Note_on_c, 0, 58, 74
1, 50521, Note_on_c, 0, 37, 63
1, 50530, Control_c, 0, 64, 54
1, 50533, Note_on_c, 0, 42, 56
1, 50537, Note_on_c, 0, 66, 56
1, 50538, Note_on_c, 0, 49, 59
1, 50545, Note_off_c, 0, 52, 62
1, 50545, Control_c, 0, 64, 0
1, 50548, Note_off_c, 0, 58, 66
1, 50556, Note_off_c, 0, 66, 59
1, 50568, Note_off_c, 0, 49, 65
1, 50595, Note_off_c, 0, 37, 61
1, 50614, Note_on_c, 0, 66, 76
1, 50645, Note_off_c, 0, 66, 56
1, 50651, Note_off_c, 0, 42, 56
1, 50706, Note_on_c, 0, 50, 75
1, 50712, Note_on_c, 0, 38, 66
1, 50715, Note_on_c, 0, 45, 61
1, 50723, Note_on_c, 0, 66, 77
1, 50724, Control_c, 0, 64, 59
1, 50726, Note_on_c, 0, 57, 52
1, 50732, Note_on_c, 0, 54, 62
1, 50733, Note_off_c, 0, 50, 66
1, 50739, Note_off_c, 0, 45, 61
1, 50739, Control_c, 0, 64, 69
1, 50748, Note_off_c, 0, 38, 65
1, 50754, Control_c, 0, 64, 78
1, 50769, Control_c, 0, 64, 90
1, 50779, Note_off_c, 0, 66, 61
1, 50784, Control_c, 0, 64, 110
1, 50788, Note_off_c, 0, 54, 51
1, 50799, Control_c, 0, 64, 127
1, 50845, Note_off_c, 0, 57, 45
1, 50873, Control_c, 0, 64, 115
1, 50887, Control_c, 0, 64, 78
1, 50902, Control_c, 0, 64, 60
1, 50917, Control_c, 0, 64, 0
1, 50921, Note_on_c, 0, 41, 73
1, 50930, Note_on_c, 0, 57, 72
1, 50931, Note_on_c, 0, 29, 53
1, 50936, Note_on_c, 0, 51, 59
1, 50954, Note_on_c, 0, 28, 23
1, 50954, Note_off_c, 0, 41, 63
1, 50960, Note_off_c, 0, 29, 54
1, 50974, Note_off_c, 0, 51, 62
1, 50998, Control_c, 0, 67, 19
1, 51007, Note_off_c, 0, 28, 32
1, 51013, Control_c, 0, 67, 24
1, 51023, Note_off_c, 0, 57, 60
1, 51028, Control_c, 0, 67, 29
1, 51040, Note_on_c, 0, 60, 59
1, 51043, Control_c, 0, 67, 35
1, 51058, Control_c, 0, 67, 42
1, 51073, Control_c, 0, 67, 50
1, 51088, Control_c, 0, 67, 59
1, 51102, Control_c, 0, 67, 69
1, 51117, Control_c, 0, 67, 77
1, 51130, Note_on_c, 0, 50, 71
1, 51132, Control_c, 0, 64, 30
1, 51132, Control_c, 0, 67, 87
1, 51134, Note_on_c, 0, 46, 61
1, 51134, Note_on_c, 0, 62, 67
1, 51134, Note_off_c, 0, 60, 54
1, 51135, Note_on_c, 0, 34, 48
1, 51138, Note_on_c, 0, 41, 38
1, 51138, Note_on_c, 0, 58, 63
1, 51146, Control_c, 0, 64, 56
1, 51146, Control_c, 0, 67, 95
1, 51159, Note_off_c, 0, 50, 65
1, 51161, Control_c, 0, 64, 68
1, 51161, Control_c, 0, 67, 100
1, 51164, Note_off_c, 0, 46, 65
1, 51165, Note_off_c, 0, 34, 60
1, 51165, Note_off_c, 0, 62, 63
1, 51168, Note_off_c, 0, 41, 57
1, 51176, Control_c, 0, 64, 78
1, 51176, Control_c, 0, 67, 102
1, 51178, Note_off_c, 0, 58, 59
1, 51191, Control_c, 0, 64, 91
1, 51206, Control_c, 0, 64, 106
1, 51220, Control_c, 0, 64, 125
1, 51235, Control_c, 0, 64, 127
1, 51324, Control_c, 0, 64, 103
1, 51339, Control_c, 0, 64, 81
1, 51353, Control_c, 0, 64, 65
1, 51358, Note_on_c, 0, 37, 61
1, 51363, Note_on_c, 0, 55, 58
1, 51364, Note_on_c, 0, 51, 53
1, 51368, Control_c, 0, 64, 48
1, 51370, Note_on_c, 0, 49, 45
1, 51383, Control_c, 0, 64, 0
1, 51419, Note_off_c, 0, 55, 62
1, 51433, Note_off_c, 0, 49, 63
1, 51437, Note_on_c, 0, 58, 62
1, 51445, Note_off_c, 0, 37, 58
1, 51467, Note_on_c, 0, 39, 52
1, 51477, Note_off_c, 0, 51, 49
1, 51538, Note_off_c, 0, 39, 58
1, 51555, Note_off_c, 0, 58, 40
1, 51559, Note_on_c, 0, 63, 72
1, 51562, Note_on_c, 0, 36, 57
1, 51562, Note_on_c, 0, 48, 55
1, 51566, Note_on_c, 0, 56, 59
1, 51572, Note_on_c, 0, 51, 49
1, 51598, Note_off_c, 0, 56, 63
1, 51600, Note_off_c, 0, 51, 61
1, 51606, Note_off_c, 0, 48, 63
1, 51613, Note_off_c, 0, 36, 60
1, 51621, Control_c, 0, 67, 100
1, 51671, Note_on_c, 0, 39, 47
1, 51735, Note_off_c, 0, 39, 57
1, 51778, Note_on_c, 0, 46, 55
1, 51782, Note_on_c, 0, 55, 46
1, 51784, Note_on_c, 0, 61, 56
1, 51786, Note_on_c, 0, 51, 44
1, 51787, Note_on_c, 0, 34, 51
1, 51815, Note_off_c, 0, 51, 57
1, 51819, Note_off_c, 0, 55, 55
1, 51826, Note_off_c, 0, 61, 60
1, 51829, Note_off_c, 0, 46, 57
1, 51848, Note_off_c, 0, 34, 49
1, 51869, Note_on_c, 0, 39, 58
1, 51917, Note_off_c, 0, 39, 60
1, 51996, Note_on_c, 0, 60, 57
1, 51997, Note_on_c, 0, 32, 57
1, 52002, Note_on_c, 0, 56, 42
1, 52005, Note_on_c, 0, 51, 34
1, 52030, Note_off_c, 0, 56, 52
1, 52040, Note_off_c, 0, 51, 46
1, 52042, Note_off_c, 0, 60, 56
1, 52053, Poly_aftertouch_c, 0, 44, 127
1, 52065, Note_off_c, 0, 32, 59
1, 52092, Note_on_c, 0, 39, 42
1, 52098, Poly_aftertouch_c, 0, 44, 0
1, 52123, Note_off_c, 0, 39, 55
1, 52192, Note_on_c, 0, 56, 50
1, 52202, Note_off_c, 0, 63, 62
1, 52216, Note_on_c, 0, 38, 62
1, 52217, Note_on_c, 0, 52, 32
1, 52218, Note_on_c, 0, 50, 55
1, 52252, Note_off_c, 0, 56, 59
1, 52255, Note_off_c, 0, 52, 50
1, 52258, Note_off_c, 0, 50, 60
1, 52262, Note_off_c, 0, 38, 54
1, 52286, Note_on_c, 0, 59, 50
1, 52322, Note_on_c, 0, 40, 39
1, 52358, Note_off_c, 0, 40, 53
1, 52371, Note_off_c, 0, 59, 57
1, 52401, Note_on_c, 0, 64, 70
1, 52405, Note_on_c, 0, 52, 60
1, 52406, Note_on_c, 0, 36, 63
1, 52407, Note_on_c, 0, 57, 52
1, 52411, Note_on_c, 0, 48, 56
1, 52436, Note_off_c, 0, 52, 61
1, 52442, Note_off_c, 0, 57, 64
1, 52461, Note_off_c, 0, 36, 58
1, 52462, Note_off_c, 0, 48, 56
1, 52502, Note_on_c, 0, 40, 40
1, 52566, Note_off_c, 0, 40, 62
1, 52614, Note_on_c, 0, 47, 56
1, 52622, Note_on_c, 0, 62, 52
1, 52631, Note_on_c, 0, 35, 41
1, 52636, Note_on_c, 0, 52, 35
1, 52649, Note_on_c, 0, 56, 19
1, 52664, Note_off_c, 0, 47, 55
1, 52672, Note_off_c, 0, 35, 52
1, 52679, Note_off_c, 0, 52, 46
1, 52689, Note_off_c, 0, 62, 52
1, 52697, Note_on_c, 0, 40, 57
1, 52703, Note_off_c, 0, 56, 45
1, 52764, Note_off_c, 0, 40, 44
1, 52812, Note_on_c, 0, 33, 56
1, 52818, Note_on_c, 0, 60, 59
1, 52822, Control_c, 0, 64, 42
1, 52823, Note_on_c, 0, 52, 46
1, 52829, Note_on_c, 0, 45, 34
1, 52836, Control_c, 0, 64, 55
1, 52840, Note_off_c, 0, 64, 61
1, 52845, Note_on_c, 0, 57, 25
1, 52849, Note_off_c, 0, 52, 58
1, 52850, Note_off_c, 0, 60, 67
1, 52851, Control_c, 0, 64, 63
1, 52867, Control_c, 0, 64, 67
1, 52882, Control_c, 0, 64, 71
1, 52889, Note_off_c, 0, 57, 29
1, 52897, Control_c, 0, 64, 73
1, 52911, Control_c, 0, 64, 74
1, 52918, Note_off_c, 0, 45, 55
1, 52919, Note_on_c, 0, 40, 52
1, 52919, Note_off_c, 0, 33, 58
1, 52926, Control_c, 0, 64, 75
1, 52948, Note_off_c, 0, 40, 52
1, 52956, Control_c, 0, 64, 75
1, 53015, Control_c, 0, 64, 75
1, 53030, Control_c, 0, 64, 74
1, 53044, Note_on_c, 0, 60, 58
1, 53044, Control_c, 0, 64, 72
1, 53056, Note_on_c, 0, 56, 59
1, 53059, Control_c, 0, 64, 70
1, 53061, Note_on_c, 0, 42, 43
1, 53065, Note_on_c, 0, 52, 50
1, 53074, Control_c, 0, 64, 68
1, 53089, Control_c, 0, 64, 65
1, 53091, Note_on_c, 0, 44, 49
1, 53104, Control_c, 0, 64, 62
1, 53120, Control_c, 0, 64, 56
1, 53123, Note_off_c, 0, 60, 63
1, 53132, Note_on_c, 0, 64, 59
1, 53135, Control_c, 0, 64, 48
1, 53140, Note_off_c, 0, 52, 58
1, 53149, Control_c, 0, 64, 37
1, 53154, Note_off_c, 0, 42, 52
1, 53154, Note_off_c, 0, 56, 51
1, 53156, Note_off_c, 0, 44, 61
1, 53156, Note_on_c, 0, 48, 64
1, 53164, Control_c, 0, 64, 0
1, 53164, Control_c, 0, 67, 97
1, 53179, Control_c, 0, 67, 95
1, 53194, Control_c, 0, 67, 93
1, 53204, Note_off_c, 0, 48, 63
1, 53209, Control_c, 0, 67, 91
1, 53223, Control_c, 0, 67, 90
1, 53246, Control_c, 0, 67, 87
1, 53248, Note_on_c, 0, 68, 71
1, 53258, Note_off_c, 0, 64, 61
1, 53260, Note_on_c, 0, 56, 54
1, 53261, Control_c, 0, 64, 31
1, 53261, Control_c, 0, 67, 81
1, 53262, Note_on_c, 0, 61, 47
1, 53262, Note_on_c, 0, 65, 58
1, 53264, Note_on_c, 0, 41, 62
1, 53266, Note_on_c, 0, 44, 71
1, 53269, Note_on_c, 0, 53, 57
1, 53275, Control_c, 0, 64, 52
1, 53275, Control_c, 0, 67, 72
1, 53283, Note_off_c, 0, 56, 57
1, 53283, Note_off_c, 0, 65, 63
1, 53288, Note_off_c, 0, 68, 64
1, 53288, Note_off_c, 0, 61, 54
1, 53290, Control_c, 0, 64, 63
1, 53290, Control_c, 0, 67, 62
1, 53305, Control_c, 0, 64, 69
1, 53305, Control_c, 0, 67, 51
1, 53315, Note_off_c, 0, 41, 53
1, 53320, Control_c, 0, 64, 74
1, 53320, Control_c, 0, 67, 44
1, 53335, Control_c, 0, 64, 77
1, 53335, Control_c, 0, 67, 38
1, 53336, Note_off_c, 0, 44, 64
1, 53344, Note_off_c, 0, 53, 61
1, 53349, Control_c, 0, 64, 78
1, 53349, Control_c, 0, 67, 34
1, 53359, Note_on_c, 0, 49, 52
1, 53364, Control_c, 0, 64, 80
1, 53364, Control_c, 0, 67, 32
1, 53368, Poly_aftertouch_c, 0, 52, 0
1, 53379, Control_c, 0, 64, 81
1, 53379, Control_c, 0, 67, 30
1, 53386, Note_off_c, 0, 49, 58
1, 53394, Control_c, 0, 67, 28
1, 53409, Control_c, 0, 64, 81
1, 53409, Control_c, 0, 67, 25
1, 53423, Control_c, 0, 67, 21
1, 53438, Control_c, 0, 67, 19
1, 53453, Control_c, 0, 64, 81
1, 53453, Control_c, 0, 67, 0
1, 53467, Control_c, 0, 64, 80
1, 53469, Note_on_c, 0, 44, 58
1, 53481, Note_on_c, 0, 60, 66
1, 53482, Control_c, 0, 64, 78
1, 53487, Note_on_c, 0, 64, 64
1, 53487, Note_on_c, 0, 54, 30
1, 53497, Control_c, 0, 64, 75
1, 53512, Control_c, 0, 64, 69
1, 53514, Note_off_c, 0, 60, 63
1, 53525, Note_off_c, 0, 44, 0
1, 53525, Note_on_c, 0, 44, 18
1, 53526, Note_off_c, 0, 54, 50
1, 53527, Control_c, 0, 64, 65
1, 53541, Control_c, 0, 64, 59
1, 53556, Control_c, 0, 64, 52
1, 53558, Note_on_c, 0, 68, 78
1, 53571, Control_c, 0, 64, 40
1, 53573, Note_off_c, 0, 44, 61
1, 53575, Note_on_c, 0, 52, 52
1, 53586, Control_c, 0, 64, 0
1, 53593, Note_off_c, 0, 64, 50
1, 53657, Note_on_c, 0, 57, 68
1, 53660, Note_on_c, 0, 45, 77
1, 53666, Note_on_c, 0, 64, 58
1, 53668, Note_on_c, 0, 72, 70
1, 53670, Note_on_c, 0, 60, 65
1, 53672, Note_on_c, 0, 69, 72
1, 53673, Control_c, 0, 64, 37
1, 53684, Note_on_c, 0, 48, 67
1, 53687, Note_off_c, 0, 52, 61
1, 53687, Note_off_c, 0, 64, 63
1, 53688, Control_c, 0, 64, 57
1, 53690, Note_off_c, 0, 60, 66
1, 53696, Note_off_c, 0, 69, 69
1, 53699, Note_off_c, 0, 68, 58
1, 53703, Control_c, 0, 64, 68
1, 53713, Note_off_c, 0, 72, 63
1, 53718, Control_c, 0, 64, 75
1, 53726, Note_off_c, 0, 45, 62
1, 53732, Note_on_c, 0, 52, 58
1, 53732, Control_c, 0, 64, 80
1, 53742, Note_off_c, 0, 48, 64
1, 53747, Control_c, 0, 64, 81
1, 53762, Control_c, 0, 64, 82
1, 53768, Note_off_c, 0, 57, 62
1, 53774, Note_off_c, 0, 52, 63
1, 53821, Control_c, 0, 64, 81
1, 53851, Control_c, 0, 64, 80
1, 53866, Control_c, 0, 64, 79
1, 53872, Note_on_c, 0, 60, 74
1, 53874, Note_on_c, 0, 48, 64
1, 53881, Control_c, 0, 64, 76
1, 53882, Note_on_c, 0, 68, 83
1, 53887, Note_on_c, 0, 64, 69
1, 53893, Note_on_c, 0, 50, 58
1, 53896, Control_c, 0, 64, 72
1, 53911, Control_c, 0, 64, 68
1, 53917, Note_off_c, 0, 50, 59
1, 53926, Note_off_c, 0, 48, 65
1, 53926, Control_c, 0, 64, 63
1, 53941, Note_off_c, 0, 60, 49
1, 53941, Control_c, 0, 64, 58
1, 53953, Note_on_c, 0, 56, 72
1, 53956, Control_c, 0, 64, 52
1, 53970, Control_c, 0, 64, 46
1, 53972, Note_on_c, 0, 72, 73
1, 53987, Note_off_c, 0, 68, 62
1, 53993, Control_c, 0, 64, 38
1, 53994, Note_off_c, 0, 64, 56
1, 54008, Control_c, 0, 64, 0
1, 54054, Note_off_c, 0, 72, 61
1, 54087, Note_off_c, 0, 56, 57
1, 54092, Note_on_c, 0, 61, 65
1, 54093, Note_on_c, 0, 73, 83
1, 54095, Note_on_c, 0, 68, 82
1, 54097, Note_on_c, 0, 64, 71
1, 54098, Note_on_c, 0, 76, 79
1, 54101, Note_on_c, 0, 52, 63
1, 54108, Note_on_c, 0, 49, 65
1, 54113, Note_off_c, 0, 64, 69
1, 54118, Note_off_c, 0, 68, 67
1, 54126, Control_c, 0, 64, 46
1, 54136, Note_off_c, 0, 76, 59
1, 54141, Control_c, 0, 64, 61
1, 54147, Note_off_c, 0, 73, 64
1, 54156, Control_c, 0, 64, 67
1, 54170, Control_c, 0, 64, 71
1, 54185, Control_c, 0, 64, 74
1, 54192, Note_on_c, 0, 56, 66
1, 54194, Note_off_c, 0, 49, 63
1, 54195, Note_off_c, 0, 52, 62
1, 54196, Note_off_c, 0, 61, 57
1, 54200, Control_c, 0, 64, 75
1, 54215, Control_c, 0, 64, 77
1, 54224, Note_off_c, 0, 56, 64
1, 54230, Control_c, 0, 64, 77
1, 54274, Control_c, 0, 64, 77
1, 54289, Control_c, 0, 64, 75
1, 54304, Control_c, 0, 64, 72
1, 54313, Note_on_c, 0, 64, 74
1, 54314, Note_on_c, 0, 54, 69
1, 54316, Note_on_c, 0, 72, 81
1, 54318, Note_on_c, 0, 68, 80
1, 54319, Control_c, 0, 64, 65
1, 54333, Note_on_c, 0, 56, 53
1, 54334, Control_c, 0, 64, 56
1, 54349, Control_c, 0, 64, 39
1, 54363, Control_c, 0, 64, 0
1, 54389, Note_off_c, 0, 64, 48
1, 54396, Note_off_c, 0, 72, 59
1, 54400, Note_on_c, 0, 76, 77
1, 54403, Note_on_c, 0, 60, 60
1, 54413, Note_off_c, 0, 54, 63
1, 54417, Note_off_c, 0, 56, 57
1, 54431, Note_off_c, 0, 68, 61
1, 54465, Note_off_c, 0, 60, 64
1, 54526, Note_on_c, 0, 65, 77
1, 54528, Note_on_c, 0, 80, 87
1, 54530, Note_on_c, 0, 73, 81
1, 54531, Note_on_c, 0, 53, 68
1, 54531, Note_on_c, 0, 56, 69
1, 54531, Note_off_c, 0, 76, 34
1, 54535, Note_on_c, 0, 68, 83
1, 54539, Note_on_c, 0, 61, 78
1, 54544, Note_on_c, 0, 77, 71
1, 54585, Control_c, 0, 64, 54
1, 54600, Control_c, 0, 64, 66
1, 54614, Control_c, 0, 64, 79
1, 54629, Control_c, 0, 64, 97
1, 54636, Note_off_c, 0, 53, 61
1, 54644, Control_c, 0, 64, 127
1, 54659, Note_off_c, 0, 65, 56
1, 54668, Note_off_c, 0, 80, 55
1, 54670, Note_off_c, 0, 73, 60
1, 54671, Note_off_c, 0, 68, 59
1, 54689, Note_off_c, 0, 56, 57
1, 54741, Note_off_c, 0, 77, 58
1, 54747, Note_off_c, 0, 61, 58
1, 54778, Note_on_c, 0, 54, 73
1, 54781, Note_on_c, 0, 64, 68
1, 54781, Note_on_c, 0, 72, 79
1, 54784, Note_on_c, 0, 68, 80
1, 54799, Note_on_c, 0, 56, 65
1, 54857, Note_off_c, 0, 54, 59
1, 54860, Control_c, 0, 64, 98
1, 54870, Note_on_c, 0, 60, 77
1, 54870, Note_on_c, 0, 76, 82
1, 54872, Note_off_c, 0, 72, 61
1, 54875, Control_c, 0, 64, 72
1, 54876, Note_off_c, 0, 56, 58
1, 54888, Note_off_c, 0, 64, 60
1, 54890, Control_c, 0, 64, 51
1, 54905, Control_c, 0, 64, 0
1, 54906, Note_off_c, 0, 68, 60
1, 54912, Note_off_c, 0, 60, 62
1, 54976, Note_on_c, 0, 65, 87
1, 54979, Note_on_c, 0, 80, 88
1, 54982, Note_on_c, 0, 53, 69
1, 54982, Note_on_c, 0, 68, 83
1, 54983, Note_on_c, 0, 56, 69
1, 54983, Note_on_c, 0, 61, 78
1, 54983, Note_on_c, 0, 73, 84
1, 54990, Note_on_c, 0, 77, 76
1, 55016, Note_off_c, 0, 76, 61
1, 55023, Control_c, 0, 64, 36
1, 55037, Control_c, 0, 64, 55
1, 55052, Control_c, 0, 64, 65
1, 55067, Control_c, 0, 64, 72
1, 55082, Note_off_c, 0, 53, 59
1, 55082, Control_c, 0, 64, 82
1, 55086, Note_off_c, 0, 65, 57
1, 55097, Control_c, 0, 64, 95
1, 55111, Note_off_c, 0, 68, 50
1, 55112, Control_c, 0, 64, 122
1, 55114, Note_off_c, 0, 73, 57
1, 55115, Note_off_c, 0, 80, 54
1, 55127, Control_c, 0, 64, 127
1, 55132, Note_off_c, 0, 56, 60
1, 55165, Note_off_c, 0, 61, 60
1, 55188, Note_off_c, 0, 77, 57
1, 55199, Note_on_c, 0, 64, 76
1, 55202, Note_on_c, 0, 54, 79
1, 55203, Note_on_c, 0, 72, 79
1, 55207, Note_on_c, 0, 68, 79
1, 55219, Note_on_c, 0, 56, 67
1, 55231, Control_c, 0, 64, 117
1, 55246, Control_c, 0, 64, 92
1, 55261, Control_c, 0, 64, 73
1, 55276, Control_c, 0, 64, 57
1, 55276, Note_off_c, 0, 72, 63
1, 55290, Note_on_c, 0, 60, 70
1, 55291, Control_c, 0, 64, 0
1, 55297, Note_on_c, 0, 76, 77
1, 55307, Note_off_c, 0, 64, 59
1, 55310, Note_off_c, 0, 54, 60
1, 55324, Note_off_c, 0, 56, 51
1, 55324, Note_off_c, 0, 68, 61
1, 55329, Note_off_c, 0, 60, 65
1, 55410, Note_on_c, 0, 56, 64
1, 55416, Note_on_c, 0, 65, 72
1, 55417, Note_on_c, 0, 73, 73
1, 55419, Note_on_c, 0, 80, 80
1, 55420, Note_off_c, 0, 76, 32
1, 55422, Note_on_c, 0, 53, 60
1, 55423, Note_on_c, 0, 61, 70
1, 55427, Note_on_c, 0, 68, 68
1, 55429, Note_on_c, 0, 77, 65
1, 55438, Control_c, 0, 64, 38
1, 55453, Control_c, 0, 64, 56
1, 55468, Control_c, 0, 64, 65
1, 55490, Control_c, 0, 64, 74
1, 55505, Control_c, 0, 64, 100
1, 55521, Control_c, 0, 64, 127
1, 55535, Note_off_c, 0, 53, 54
1, 55562, Note_off_c, 0, 56, 61
1, 55568, Note_off_c, 0, 68, 58
1, 55574, Note_off_c, 0, 65, 57
1, 55574, Note_off_c, 0, 80, 59
1, 55595, Note_off_c, 0, 73, 58
1, 55595, Note_off_c, 0, 77, 62
1, 55623, Note_off_c, 0, 61, 0
1, 55625, Control_c, 0, 64, 118
1, 55636, Note_on_c, 0, 61, 55
1, 55640, Control_c, 0, 64, 74
1, 55643, Note_on_c, 0, 65, 80
1, 55648, Note_on_c, 0, 57, 76
1, 55650, Note_on_c, 0, 53, 77
1, 55654, Control_c, 0, 64, 55
1, 55656, Note_on_c, 0, 77, 65
1, 55656, Note_on_c, 0, 80, 83
1, 55661, Note_on_c, 0, 73, 67
1, 55663, Note_on_c, 0, 68, 79
1, 55669, Control_c, 0, 64, 40
1, 55684, Control_c, 0, 64, 49
1, 55699, Control_c, 0, 64, 62
1, 55714, Control_c, 0, 64, 75
1, 55729, Control_c, 0, 64, 127
1, 55787, Note_off_c, 0, 53, 59
1, 55802, Note_off_c, 0, 80, 61
1, 55806, Note_off_c, 0, 65, 62
1, 55806, Note_off_c, 0, 68, 58
1, 55820, Note_off_c, 0, 57, 63
1, 55827, Note_off_c, 0, 61, 59
1, 55828, Note_off_c, 0, 77, 63
1, 55842, Note_off_c, 0, 73, 57
1, 55861, Control_c, 0, 64, 79
1, 55868, Note_on_c, 0, 61, 67
1, 55872, Note_on_c, 0, 58, 78
1, 55873, Note_on_c, 0, 65, 83
1, 55876, Control_c, 0, 64, 61
1, 55877, Note_on_c, 0, 80, 88
1, 55880, Note_on_c, 0, 77, 64
1, 55887, Note_on_c, 0, 53, 73
1, 55887, Note_on_c, 0, 73, 61
1, 55887, Note_on_c, 0, 68, 82
1, 55891, Control_c, 0, 64, 55
1, 55906, Control_c, 0, 64, 65
1, 55921, Control_c, 0, 64, 78
1, 55935, Control_c, 0, 64, 127
1, 56009, Note_off_c, 0, 68, 58
1, 56011, Note_off_c, 0, 53, 54
1, 56017, Note_off_c, 0, 80, 57
1, 56027, Note_off_c, 0, 58, 56
1, 56035, Note_off_c, 0, 65, 57
1, 56054, Note_off_c, 0, 61, 56
1, 56070, Note_off_c, 0, 73, 56
1, 56084, Control_c, 0, 64, 71
1, 56094, Note_off_c, 0, 77, 0
1, 56096, Note_on_c, 0, 61, 63
1, 56099, Control_c, 0, 64, 44
1, 56102, Note_on_c, 0, 65, 84
1, 56103, Note_on_c, 0, 53, 74
1, 56105, Note_on_c, 0, 80, 94
1, 56106, Note_on_c, 0, 59, 71
1, 56110, Note_on_c, 0, 77, 49
1, 56110, Note_on_c, 0, 73, 66
1, 56112, Note_on_c, 0, 68, 89
1, 56113, Control_c, 0, 64, 43
1, 56128, Control_c, 0, 64, 61
1, 56139, Note_off_c, 0, 53, 63
1, 56143, Control_c, 0, 64, 81
1, 56152, Note_off_c, 0, 68, 65
1, 56158, Control_c, 0, 64, 127
1, 56180, Note_off_c, 0, 73, 63
1, 56182, Note_off_c, 0, 59, 62
1, 56186, Note_off_c, 0, 77, 63
1, 56188, Note_off_c, 0, 61, 60
1, 56200, Note_off_c, 0, 65, 61
1, 56207, Note_off_c, 0, 80, 65
1, 56447, Control_c, 0, 64, 102
1, 56462, Control_c, 0, 64, 53
1, 56469, Note_on_c, 0, 96, 91
1, 56473, Note_on_c, 0, 72, 92
1, 56474, Note_on_c, 0, 60, 83
1, 56477, Note_on_c, 0, 84, 97
1, 56477, Control_c, 0, 64, 0
1, 56581, Control_c, 0, 64, 45
1, 56596, Control_c, 0, 64, 81
1, 56609, Control_c, 0, 64, 127
1, 56633, Note_off_c, 0, 96, 65
1, 56650, Note_off_c, 0, 72, 63
1, 56680, Note_off_c, 0, 84, 64
1, 56689, Note_off_c, 0, 60, 64
1, 56930, Note_on_c, 0, 80, 80
1, 56933, Note_on_c, 0, 68, 82
1, 56934, Note_on_c, 0, 53, 70
1, 56934, Note_on_c, 0, 65, 77
1, 56936, Note_on_c, 0, 56, 73
1, 56939, Note_on_c, 0, 71, 75
1, 56941, Note_on_c, 0, 59, 62
1, 56941, Note_on_c, 0, 74, 67
1, 56942, Note_on_c, 0, 62, 69
1, 56943, Note_on_c, 0, 77, 60
1, 56989, Note_off_c, 0, 65, 62
1, 56993, Note_off_c, 0, 68, 61
1, 56999, Note_off_c, 0, 80, 63
1, 57000, Note_off_c, 0, 62, 60
1, 57000, Note_off_c, 0, 77, 63
1, 57013, Note_off_c, 0, 59, 62
1, 57016, Note_off_c, 0, 71, 63
1, 57017, Note_off_c, 0, 53, 63
1, 57019, Note_off_c, 0, 74, 61
1, 57030, Note_off_c, 0, 56, 60
1, 57391, Note_on_c, 0, 24, 83
1, 57395, Note_on_c, 0, 36, 86
1, 57398, Note_on_c, 0, 60, 79
1, 57400, Note_on_c, 0, 48, 83
1, 57403, Control_c, 0, 64, 61
1, 57418, Control_c, 0, 64, 0
1, 57462, Control_c, 0, 64, 50
1, 57477, Control_c, 0, 64, 70
1, 57492, Control_c, 0, 64, 127
1, 57528, Note_off_c, 0, 24, 61
1, 57568, Note_off_c, 0, 36, 61
1, 57574, Note_off_c, 0, 48, 63
1, 57578, Poly_aftertouch_c, 0, 27, 127
1, 57613, Note_off_c, 0, 60, 62
1, 57615, Poly_aftertouch_c, 0, 27, 0
1, 57850, Note_on_c, 0, 63, 82
1, 57851, Note_on_c, 0, 51, 79
1, 57854, Note_on_c, 0, 53, 84
1, 57856, Note_on_c, 0, 44, 74
1, 57856, Note_on_c, 0, 59, 72
1, 57869, Note_on_c, 0, 47, 67
1, 57890, Note_off_c, 0, 44, 66
1, 57894, Note_off_c, 0, 53, 63
1, 57908, Note_off_c, 0, 47, 63
1, 57915, Note_off_c, 0, 51, 60
1, 57923, Note_off_c, 0, 59, 56
1, 57932, Note_off_c, 0, 63, 64
1, 58271, Control_c, 0, 64, 83
1, 58286, Control_c, 0, 64, 0
1, 58290, Note_on_c, 0, 96, 96
1, 58295, Note_on_c, 0, 60, 83
1, 58295, Note_on_c, 0, 84, 100
1, 58298, Note_on_c, 0, 72, 91
1, 58360, Control_c, 0, 64, 54
1, 58374, Control_c, 0, 64, 81
1, 58389, Control_c, 0, 64, 127
1, 58397, Note_off_c, 0, 96, 64
1, 58430, Note_off_c, 0, 72, 62
1, 58442, Note_off_c, 0, 84, 64
1, 58459, Note_off_c, 0, 60, 64
1, 58743, Note_on_c, 0, 68, 86
1, 58743, Note_on_c, 0, 80, 85
1, 58746, Note_on_c, 0, 71, 72
1, 58747, Note_on_c, 0, 53, 70
1, 58747, Note_on_c, 0, 65, 76
1, 58749, Note_on_c, 0, 74, 65
1, 58752, Note_on_c, 0, 77, 62
1, 58753, Note_on_c, 0, 56, 69
1, 58757, Note_on_c, 0, 62, 60
1, 58758, Note_on_c, 0, 59, 58
1, 58778, Note_off_c, 0, 65, 64
1, 58783, Note_off_c, 0, 80, 65
1, 58787, Note_off_c, 0, 77, 61
1, 58789, Note_off_c, 0, 68, 62
1, 58790, Note_off_c, 0, 62, 65
1, 58808, Note_off_c, 0, 74, 64
1, 58809, Note_off_c, 0, 71, 63
1, 58812, Note_off_c, 0, 59, 61
1, 58829, Note_off_c, 0, 56, 62
1, 58829, Note_off_c, 0, 53, 61
1, 58857, Poly_aftertouch_c, 0, 63, 0
1, 59166, Note_on_c, 0, 24, 84
1, 59168, Control_c, 0, 64, 74
1, 59169, Note_on_c, 0, 36, 87
1, 59171, Note_on_c, 0, 60, 82
1, 59173, Note_on_c, 0, 48, 85
1, 59183, Control_c, 0, 64, 39
1, 59197, Control_c, 0, 64, 0
1, 59234, Control_c, 0, 64, 44
1, 59249, Control_c, 0, 64, 62
1, 59264, Control_c, 0, 64, 80
1, 59279, Control_c, 0, 64, 127
1, 59294, Note_off_c, 0, 24, 62
1, 59334, Note_off_c, 0, 36, 62
1, 59334, Note_off_c, 0, 48, 64
1, 59379, Note_off_c, 0, 60, 62
1, 59604, Note_on_c, 0, 51, 78
1, 59604, Note_on_c, 0, 63, 84
1, 59610, Note_on_c, 0, 44, 71
1, 59611, Note_on_c, 0, 53, 81
1, 59613, Note_on_c, 0, 59, 71
1, 59615, Note_on_c, 0, 47, 65
1, 59658, Note_off_c, 0, 53, 64
1, 59665, Note_off_c, 0, 59, 62
1, 59677, Note_off_c, 0, 63, 62
1, 59696, Note_off_c, 0, 47, 63
1, 59721, Note_off_c, 0, 44, 59
1, 59804, Note_off_c, 0, 51, 45
1, 60013, Control_c, 0, 64, 75
1, 60027, Control_c, 0, 64, 34
1, 60042, Control_c, 0, 64, 0
1, 60051, Note_on_c, 0, 40, 82
1, 60057, Note_on_c, 0, 52, 91
1, 60087, Control_c, 0, 64, 47
1, 60102, Control_c, 0, 64, 69
1, 60111, Note_off_c, 0, 40, 65
1, 60117, Control_c, 0, 64, 109
1, 60132, Control_c, 0, 64, 127
1, 60138, Note_off_c, 0, 52, 65
1, 60347, Note_on_c, 0, 84, 90
1, 60350, Note_on_c, 0, 80, 83
1, 60353, Note_on_c, 0, 64, 68
1, 60353, Note_on_c, 0, 68, 79
1, 60353, Note_on_c, 0, 76, 81
1, 60359, Note_on_c, 0, 56, 69
1, 60361, Note_on_c, 0, 62, 65
1, 60387, Note_off_c, 0, 68, 61
1, 60402, Note_off_c, 0, 64, 62
1, 60415, Note_off_c, 0, 62, 60
1, 60436, Note_off_c, 0, 56, 59
1, 60449, Note_off_c, 0, 76, 59
1, 60460, Note_off_c, 0, 80, 57
1, 60474, Note_on_c, 0, 86, 88
1, 60479, Note_off_c, 0, 84, 61
1, 60579, Note_on_c, 0, 82, 88
1, 60582, Note_off_c, 0, 86, 53
1, 60585, Note_on_c, 0, 74, 81
1, 60587, Note_on_c, 0, 80, 80
1, 60654, Note_off_c, 0, 74, 62
1, 60686, Note_on_c, 0, 84, 88
1, 60690, Note_off_c, 0, 80, 64
1, 60695, Note_off_c, 0, 82, 61
1, 60763, Control_c, 0, 64, 82
1, 60775, Note_on_c, 0, 24, 79
1, 60778, Control_c, 0, 64, 52
1, 60779, Note_off_c, 0, 84, 40
1, 60783, Note_on_c, 0, 36, 84
1, 60789, Note_on_c, 0, 80, 94
1, 60792, Control_c, 0, 64, 0
1, 60793, Note_on_c, 0, 75, 79
1, 60793, Note_on_c, 0, 72, 76
1, 60809, Note_off_c, 0, 24, 62
1, 60822, Control_c, 0, 64, 51
1, 60834, Note_off_c, 0, 36, 62
1, 60837, Control_c, 0, 64, 66
1, 60847, Note_off_c, 0, 72, 60
1, 60852, Control_c, 0, 64, 80
1, 60855, Note_off_c, 0, 75, 60
1, 60866, Control_c, 0, 64, 127
1, 60897, Note_on_c, 0, 82, 87
1, 60901, Note_off_c, 0, 80, 59
1, 60992, Note_off_c, 0, 82, 61
1, 60994, Note_on_c, 0, 51, 70
1, 60994, Note_on_c, 0, 56, 71
1, 60994, Note_on_c, 0, 70, 81
1, 60996, Note_on_c, 0, 75, 73
1, 61001, Note_on_c, 0, 79, 73
1, 61012, Note_on_c, 0, 44, 57
1, 61023, Note_off_c, 0, 56, 65
1, 61024, Note_off_c, 0, 51, 64
1, 61036, Note_on_c, 0, 78, 30
1, 61066, Note_off_c, 0, 44, 58
1, 61069, Note_off_c, 0, 70, 63
1, 61074, Note_off_c, 0, 78, 30
1, 61091, Note_on_c, 0, 80, 81
1, 61110, Note_off_c, 0, 79, 60
1, 61117, Note_off_c, 0, 75, 58
1, 61189, Note_on_c, 0, 77, 64
1, 61192, Note_on_c, 0, 68, 71
1, 61201, Note_off_c, 0, 80, 61
1, 61208, Note_on_c, 0, 75, 47
1, 61262, Note_off_c, 0, 68, 58
1, 61284, Note_off_c, 0, 75, 54
1, 61285, Note_on_c, 0, 79, 77
1, 61291, Note_off_c, 0, 77, 61
1, 61355, Control_c, 0, 64, 71
1, 61369, Note_off_c, 0, 79, 63
1, 61370, Control_c, 0, 64, 36
1, 61382, Note_on_c, 0, 40, 73
1, 61385, Control_c, 0, 64, 0
1, 61387, Note_on_c, 0, 52, 82
1, 61393, Note_on_c, 0, 76, 81
1, 61393, Note_on_c, 0, 68, 79
1, 61414, Control_c, 0, 64, 46
1, 61429, Control_c, 0, 64, 63
1, 61436, Note_off_c, 0, 40, 62
1, 61444, Control_c, 0, 64, 75
1, 61452, Note_off_c, 0, 68, 64
1, 61456, Note_off_c, 0, 52, 62
1, 61456, Note_off_c, 0, 76, 64
1, 61459, Control_c, 0, 64, 100
1, 61481, Control_c, 0, 64, 127
1, 61628, Note_on_c, 0, 50, 68
1, 61633, Note_on_c, 0, 56, 66
1, 61636, Note_on_c, 0, 72, 76
1, 61639, Note_on_c, 0, 64, 67
1, 61640, Note_on_c, 0, 68, 70
1, 61665, Note_off_c, 0, 56, 64
1, 61670, Note_off_c, 0, 50, 60
1, 61700, Note_off_c, 0, 68, 54
1, 61703, Note_off_c, 0, 64, 56
1, 61738, Note_on_c, 0, 74, 77
1, 61741, Note_off_c, 0, 72, 61
1, 61810, Note_off_c, 0, 74, 60
1, 61828, Note_on_c, 0, 70, 74
1, 61833, Note_on_c, 0, 62, 71
1, 61846, Note_on_c, 0, 68, 64
1, 61894, Note_off_c, 0, 62, 57
1, 61913, Note_off_c, 0, 68, 60
1, 61923, Note_on_c, 0, 72, 75
1, 61932, Note_off_c, 0, 70, 64
1, 62001, Control_c, 0, 64, 75
1, 62003, Note_off_c, 0, 72, 55
1, 62011, Note_on_c, 0, 24, 71
1, 62016, Control_c, 0, 64, 50
1, 62022, Note_on_c, 0, 36, 72
1, 62022, Note_on_c, 0, 68, 73
1, 62028, Note_on_c, 0, 60, 67
1, 62030, Control_c, 0, 64, 0
1, 62032, Note_on_c, 0, 63, 62
1, 62039, Note_off_c, 0, 24, 61
1, 62060, Control_c, 0, 64, 37
1, 62060, Note_off_c, 0, 36, 65
1, 62067, Note_off_c, 0, 60, 65
1, 62072, Note_off_c, 0, 63, 61
1, 62075, Control_c, 0, 64, 54
1, 62090, Control_c, 0, 64, 63
1, 62104, Control_c, 0, 64, 69
1, 62111, Note_off_c, 0, 68, 63
1, 62118, Note_on_c, 0, 70, 74
1, 62119, Control_c, 0, 64, 75
1, 62134, Control_c, 0, 64, 80
1, 62148, Control_c, 0, 64, 83
1, 62163, Control_c, 0, 64, 84
1, 62189, Note_off_c, 0, 70, 59
1, 62208, Control_c, 0, 64, 85
1, 62227, Note_on_c, 0, 63, 58
1, 62228, Note_on_c, 0, 44, 65
1, 62230, Control_c, 0, 64, 86
1, 62234, Note_on_c, 0, 58, 63
1, 62235, Note_on_c, 0, 51, 53
1, 62241, Note_on_c, 0, 67, 55
1, 62245, Control_c, 0, 64, 88
1, 62258, Note_off_c, 0, 44, 66
1, 62260, Control_c, 0, 64, 90
1, 62260, Note_off_c, 0, 51, 60
1, 62275, Control_c, 0, 64, 90
1, 62285, Note_off_c, 0, 58, 56
1, 62311, Note_off_c, 0, 63, 58
1, 62322, Note_on_c, 0, 68, 69
1, 62334, Note_off_c, 0, 67, 59
1, 62414, Note_on_c, 0, 65, 56
1, 62415, Note_on_c, 0, 56, 61
1, 62418, Note_on_c, 0, 63, 47
1, 62424, Note_off_c, 0, 68, 54
1, 62437, Control_c, 0, 67, 20
1, 62448, Note_off_c, 0, 56, 63
1, 62452, Control_c, 0, 67, 23
1, 62467, Control_c, 0, 67, 25
1, 62472, Note_off_c, 0, 65, 51
1, 62482, Control_c, 0, 64, 91
1, 62482, Control_c, 0, 67, 27
1, 62487, Note_off_c, 0, 63, 56
1, 62497, Control_c, 0, 64, 93
1, 62497, Control_c, 0, 67, 29
1, 62510, Note_on_c, 0, 67, 62
1, 62511, Control_c, 0, 64, 94
1, 62511, Control_c, 0, 67, 31
1, 62526, Control_c, 0, 64, 94
1, 62526, Control_c, 0, 67, 33
1, 62541, Control_c, 0, 64, 84
1, 62541, Control_c, 0, 67, 35
1, 62555, Control_c, 0, 64, 68
1, 62555, Control_c, 0, 67, 36
1, 62570, Control_c, 0, 64, 52
1, 62570, Control_c, 0, 67, 38
1, 62576, Note_off_c, 0, 67, 60
1, 62585, Control_c, 0, 64, 30
1, 62585, Control_c, 0, 67, 41
1, 62600, Control_c, 0, 67, 45
1, 62615, Note_on_c, 0, 24, 58
1, 62615, Control_c, 0, 64, 45
1, 62615, Control_c, 0, 67, 52
1, 62616, Note_on_c, 0, 55, 66
1, 62619, Note_on_c, 0, 64, 65
1, 62620, Note_on_c, 0, 36, 62
1, 62630, Control_c, 0, 64, 57
1, 62630, Control_c, 0, 67, 63
1, 62642, Note_off_c, 0, 55, 66
1, 62645, Note_off_c, 0, 64, 68
1, 62645, Control_c, 0, 64, 64
1, 62645, Control_c, 0, 67, 76
1, 62646, Note_off_c, 0, 24, 60
1, 62652, Note_off_c, 0, 36, 63
1, 62660, Control_c, 0, 64, 70
1, 62660, Control_c, 0, 67, 87
1, 62674, Control_c, 0, 64, 77
1, 62674, Control_c, 0, 67, 93
1, 62689, Control_c, 0, 64, 81
1, 62689, Control_c, 0, 67, 96
1, 62705, Control_c, 0, 64, 82
1, 62705, Control_c, 0, 67, 98
1, 62719, Control_c, 0, 64, 82
1, 62734, Control_c, 0, 64, 83
1, 62734, Control_c, 0, 67, 101
1, 62749, Control_c, 0, 67, 104
1, 62764, Control_c, 0, 67, 107
1, 62779, Control_c, 0, 64, 83
1, 62779, Control_c, 0, 67, 112
1, 62794, Control_c, 0, 67, 116
1, 62809, Control_c, 0, 64, 84
1, 62809, Control_c, 0, 67, 119
1, 62823, Control_c, 0, 64, 83
1, 62823, Control_c, 0, 67, 121
1, 62838, Control_c, 0, 64, 80
1, 62844, Note_on_c, 0, 43, 72
1, 62853, Control_c, 0, 64, 73
1, 62857, Note_on_c, 0, 64, 54
1, 62859, Note_on_c, 0, 60, 48
1, 62868, Control_c, 0, 64, 65
1, 62871, Note_off_c, 0, 43, 65
1, 62883, Control_c, 0, 64, 54
1, 62898, Note_off_c, 0, 60, 66
1, 62898, Control_c, 0, 64, 39
1, 62913, Control_c, 0, 64, 0
1, 62923, Note_off_c, 0, 64, 55
1, 62935, Note_on_c, 0, 43, 74
1, 62940, Note_on_c, 0, 55, 53
1, 62943, Note_on_c, 0, 67, 57
1, 62976, Note_off_c, 0, 43, 68
1, 62980, Note_off_c, 0, 55, 59
1, 62993, Control_c, 0, 67, 119
1, 63012, Note_off_c, 0, 67, 56
1, 63045, Note_on_c, 0, 48, 83
1, 63050, Note_on_c, 0, 64, 58
1, 63053, Note_on_c, 0, 60, 50
1, 63065, Note_off_c, 0, 48, 69
1, 63087, Note_off_c, 0, 60, 67
1, 63107, Note_off_c, 0, 64, 57
1, 63137, Note_on_c, 0, 67, 65
1, 63153, Note_on_c, 0, 57, 51
1, 63177, Note_off_c, 0, 57, 58
1, 63220, Note_off_c, 0, 67, 53
1, 63238, Note_on_c, 0, 64, 56
1, 63241, Note_on_c, 0, 50, 72
1, 63244, Note_on_c, 0, 52, 64
1, 63249, Note_on_c, 0, 60, 41
1, 63263, Note_off_c, 0, 52, 63
1, 63266, Note_off_c, 0, 50, 65
1, 63275, Note_off_c, 0, 60, 59
1, 63308, Note_off_c, 0, 64, 56
1, 63336, Note_on_c, 0, 67, 66
1, 63358, Note_on_c, 0, 59, 24
1, 63390, Note_off_c, 0, 59, 45
1, 63403, Note_off_c, 0, 67, 56
1, 63433, Note_on_c, 0, 64, 58
1, 63435, Note_on_c, 0, 52, 72
1, 63443, Note_on_c, 0, 60, 47
1, 63454, Note_off_c, 0, 52, 64
1, 63479, Note_off_c, 0, 60, 66
1, 63497, Note_off_c, 0, 64, 60
1, 63534, Note_on_c, 0, 67, 58
1, 63547, Note_on_c, 0, 59, 48
1, 63578, Note_off_c, 0, 59, 63
1, 63625, Note_off_c, 0, 67, 59
1, 63638, Note_on_c, 0, 53, 59
1, 63641, Note_on_c, 0, 64, 50
1, 63657, Note_on_c, 0, 62, 34
1, 63660, Note_off_c, 0, 53, 61
1, 63685, Note_off_c, 0, 62, 48
1, 63697, Note_off_c, 0, 64, 59
1, 63744, Note_on_c, 0, 67, 55
1, 63758, Note_on_c, 0, 60, 40
1, 63786, Note_off_c, 0, 60, 53
1, 63798, Note_off_c, 0, 67, 49
1, 63834, Note_on_c, 0, 55, 67
1, 63847, Note_on_c, 0, 64, 53
1, 63860, Note_on_c, 0, 60, 43
1, 63871, Note_off_c, 0, 55, 60
1, 63888, Note_off_c, 0, 60, 61
1, 63919, Note_off_c, 0, 64, 60
1, 63938, Note_on_c, 0, 67, 49
1, 63971, Note_off_c, 0, 67, 53
1, 64004, Poly_aftertouch_c, 0, 57, 127
1, 64025, Control_c, 0, 67, 121
1, 64039, Note_on_c, 0, 43, 47
1, 64040, Note_on_c, 0, 59, 51
1, 64040, Note_on_c, 0, 62, 55
1, 64045, Poly_aftertouch_c, 0, 57, 0
1, 64067, Note_off_c, 0, 43, 58
1, 64084, Note_off_c, 0, 59, 61
1, 64102, Note_off_c, 0, 62, 61
1, 64140, Note_on_c, 0, 65, 49
1, 64159, Note_on_c, 0, 55, 40
1, 64189, Note_off_c, 0, 55, 58
1, 64195, Note_off_c, 0, 65, 56
1, 64232, Control_c, 0, 67, 123
1, 64254, Note_on_c, 0, 36, 50
1, 64255, Note_on_c, 0, 52, 53
1, 64259, Note_on_c, 0, 64, 54
1, 64262, Control_c, 0, 64, 31
1, 64276, Note_on_c, 0, 43, 15
1, 64276, Control_c, 0, 64, 52
1, 64278, Note_on_c, 0, 60, 38
1, 64280, Note_off_c, 0, 52, 60
1, 64284, Note_off_c, 0, 36, 58
1, 64290, Note_off_c, 0, 64, 65
1, 64291, Control_c, 0, 64, 65
1, 64307, Control_c, 0, 64, 74
1, 64311, Note_off_c, 0, 60, 54
1, 64322, Note_off_c, 0, 43, 42
1, 64322, Control_c, 0, 64, 83
1, 64322, Control_c, 0, 67, 125
1, 64337, Control_c, 0, 64, 92
1, 64337, Control_c, 0, 67, 127
1, 64351, Control_c, 0, 64, 102
1, 64366, Control_c, 0, 64, 127
1, 64509, Note_on_c, 0, 60, 72
1, 64558, Note_off_c, 0, 60, 67
1, 64596, Note_on_c, 0, 60, 67
1, 64596, Control_c, 0, 64, 92
1, 64611, Control_c, 0, 64, 75
1, 64625, Control_c, 0, 64, 63
1, 64640, Control_c, 0, 64, 49
1, 64655, Control_c, 0, 64, 31
1, 64657, Note_off_c, 0, 60, 62
1, 64670, Control_c, 0, 64, 0
1, 64704, Note_on_c, 0, 60, 62
1, 64714, Control_c, 0, 67, 122
1, 64729, Control_c, 0, 67, 115
1, 64743, Control_c, 0, 67, 104
1, 64758, Control_c, 0, 67, 87
1, 64773, Control_c, 0, 67, 71
1, 64788, Control_c, 0, 67, 55
1, 64803, Control_c, 0, 67, 40
1, 64818, Control_c, 0, 67, 25
1, 64833, Control_c, 0, 67, 0
1, 65083, Control_c, 0, 64, 30
1, 65100, Control_c, 0, 64, 49
1, 65115, Control_c, 0, 64, 60
1, 65129, Control_c, 0, 64, 64
1, 65144, Control_c, 0, 64, 67
1, 65159, Control_c, 0, 64, 70
1, 65173, Control_c, 0, 64, 73
1, 65188, Control_c, 0, 64, 76
1, 65203, Control_c, 0, 64, 78
1, 65226, Control_c, 0, 64, 79
1, 65241, Control_c, 0, 64, 80
1, 65255, Control_c, 0, 64, 81
1, 65270, Control_c, 0, 64, 81
1, 65285, Control_c, 0, 64, 82
1, 65285, Control_c, 0, 67, 20
1, 65314, Control_c, 0, 67, 22
1, 65351, Note_off_c, 0, 60, 57
1, 65373, Control_c, 0, 67, 24
1, 65403, Control_c, 0, 64, 81
1, 65418, Control_c, 0, 64, 81
1, 65431, Note_on_c, 0, 60, 45
1, 65433, Control_c, 0, 64, 80
1, 65447, Control_c, 0, 64, 80
1, 65460, Note_off_c, 0, 60, 67
1, 65462, Control_c, 0, 64, 78
1, 65477, Control_c, 0, 64, 77
1, 65491, Control_c, 0, 64, 76
1, 65506, Control_c, 0, 64, 75
1, 65521, Control_c, 0, 64, 75
1, 65523, Note_on_c, 0, 60, 58
1, 65536, Control_c, 0, 64, 74
1, 65536, Control_c, 0, 67, 26
1, 65551, Control_c, 0, 64, 73
1, 65566, Control_c, 0, 64, 72
1, 65566, Control_c, 0, 67, 29
1, 65581, Control_c, 0, 64, 70
1, 65596, Control_c, 0, 64, 69
1, 65602, Note_off_c, 0, 60, 0
1, 65611, Control_c, 0, 64, 67
1, 65611, Control_c, 0, 67, 31
1, 65622, Note_on_c, 0, 60, 47
1, 65626, Control_c, 0, 64, 65
1, 65626, Control_c, 0, 67, 33
1, 65640, Control_c, 0, 64, 63
1, 65640, Control_c, 0, 67, 35
1, 65655, Control_c, 0, 64, 61
1, 65655, Control_c, 0, 67, 37
1, 65670, Control_c, 0, 64, 55
1, 65670, Control_c, 0, 67, 41
1, 65685, Control_c, 0, 64, 50
1, 65685, Control_c, 0, 67, 43
1, 65700, Control_c, 0, 64, 46
1, 65700, Control_c, 0, 67, 47
1, 65715, Control_c, 0, 64, 42
1, 65715, Control_c, 0, 67, 50
1, 65730, Control_c, 0, 64, 37
1, 65730, Control_c, 0, 67, 55
1, 65745, Control_c, 0, 64, 32
1, 65745, Control_c, 0, 67, 61
1, 65760, Control_c, 0, 64, 0
1, 65760, Control_c, 0, 67, 67
1, 65774, Control_c, 0, 67, 72
1, 65789, Control_c, 0, 67, 76
1, 65804, Control_c, 0, 67, 80
1, 65819, Control_c, 0, 67, 83
1, 65834, Control_c, 0, 67, 85
1, 65848, Control_c, 0, 67, 86
1, 65863, Control_c, 0, 67, 87
1, 65878, Control_c, 0, 67, 88
1, 65894, Control_c, 0, 67, 88
1, 65909, Control_c, 0, 67, 89
1, 65923, Control_c, 0, 67, 90
1, 65938, Control_c, 0, 67, 92
1, 65953, Control_c, 0, 67, 94
1, 65975, Control_c, 0, 67, 96
1, 65990, Control_c, 0, 64, 37
1, 65990, Control_c, 0, 67, 100
1, 66004, Control_c, 0, 64, 51
1, 66004, Control_c, 0, 67, 104
1, 66019, Control_c, 0, 64, 61
1, 66019, Control_c, 0, 67, 108
1, 66034, Control_c, 0, 64, 66
1, 66034, Control_c, 0, 67, 113
1, 66049, Control_c, 0, 64, 69
1, 66049, Control_c, 0, 67, 117
1, 66064, Control_c, 0, 64, 72
1, 66064, Control_c, 0, 67, 119
1, 66079, Control_c, 0, 64, 75
1, 66094, Control_c, 0, 64, 79
1, 66094, Control_c, 0, 67, 121
1, 66108, Control_c, 0, 64, 81
1, 66123, Control_c, 0, 64, 82
1, 66123, Control_c, 0, 67, 124
1, 66153, Control_c, 0, 67, 127
1, 66260, Note_off_c, 0, 60, 38
1, 66338, Note_on_c, 0, 60, 40
1, 66381, Note_off_c, 0, 60, 66
1, 66441, Note_on_c, 0, 60, 43
1, 66478, Control_c, 0, 64, 79
1, 66493, Control_c, 0, 64, 73
1, 66501, Note_off_c, 0, 60, 48
1, 66508, Control_c, 0, 64, 68
1, 66523, Control_c, 0, 64, 65
1, 66550, Note_on_c, 0, 60, 38
1, 66553, Control_c, 0, 64, 66
1, 66568, Control_c, 0, 64, 70
1, 66582, Control_c, 0, 64, 75
1, 66597, Control_c, 0, 64, 82
1, 66612, Control_c, 0, 64, 90
1, 66618, Note_off_c, 0, 60, 63
1, 66627, Control_c, 0, 64, 105
1, 66641, Control_c, 0, 64, 127
1, 66857, Control_c, 0, 64, 98
1, 66872, Control_c, 0, 64, 81
1, 66875, Note_on_c, 0, 72, 57
1, 66887, Control_c, 0, 64, 72
1, 66893, Note_on_c, 0, 67, 43
1, 66898, Note_on_c, 0, 60, 42
1, 66901, Control_c, 0, 64, 69
1, 66902, Note_on_c, 0, 64, 32
1, 66931, Control_c, 0, 64, 70
1, 66946, Control_c, 0, 64, 73
1, 66961, Control_c, 0, 64, 79
1, 66976, Control_c, 0, 64, 90
1, 66991, Control_c, 0, 64, 107
1, 67006, Control_c, 0, 64, 127
1, 67016, Note_off_c, 0, 60, 47
1, 67021, Note_off_c, 0, 67, 32
1, 67038, Note_off_c, 0, 64, 38
1, 67047, Note_off_c, 0, 72, 59
1, 67065, Control_c, 0, 64, 109
1, 67079, Control_c, 0, 64, 91
1, 67094, Control_c, 0, 64, 83
1, 67109, Note_on_c, 0, 59, 49
1, 67109, Control_c, 0, 64, 82
1, 67110, Note_on_c, 0, 72, 65
1, 67116, Note_on_c, 0, 60, 51
1, 67124, Control_c, 0, 64, 83
1, 67130, Note_on_c, 0, 67, 54
1, 67139, Control_c, 0, 64, 86
1, 67149, Note_on_c, 0, 64, 36
1, 67153, Control_c, 0, 64, 95
1, 67168, Control_c, 0, 64, 127
1, 67179, Note_off_c, 0, 64, 49
1, 67193, Note_off_c, 0, 67, 42
1, 67213, Note_off_c, 0, 60, 39
1, 67220, Note_off_c, 0, 72, 58
1, 67257, Control_c, 0, 64, 93
1, 67258, Note_off_c, 0, 59, 47
1, 67271, Control_c, 0, 64, 74
1, 67286, Control_c, 0, 64, 67
1, 67301, Note_on_c, 0, 72, 76
1, 67301, Control_c, 0, 64, 65
1, 67307, Note_on_c, 0, 57, 55
1, 67313, Note_on_c, 0, 67, 53
1, 67316, Control_c, 0, 64, 67
1, 67319, Note_on_c, 0, 60, 41
1, 67325, Note_on_c, 0, 64, 18
1, 67331, Control_c, 0, 64, 71
1, 67333, Note_off_c, 0, 67, 62
1, 67341, Note_off_c, 0, 57, 61
1, 67346, Note_off_c, 0, 72, 59
1, 67346, Control_c, 0, 64, 76
1, 67359, Note_off_c, 0, 60, 49
1, 67360, Control_c, 0, 64, 84
1, 67361, Note_off_c, 0, 64, 32
1, 67375, Control_c, 0, 64, 94
1, 67390, Control_c, 0, 64, 111
1, 67405, Control_c, 0, 64, 127
1, 67471, Control_c, 0, 64, 99
1, 67486, Control_c, 0, 64, 76
1, 67502, Control_c, 0, 64, 64
1, 67516, Note_on_c, 0, 72, 63
1, 67517, Control_c, 0, 64, 60
1, 67521, Note_on_c, 0, 55, 47
1, 67530, Note_on_c, 0, 60, 35
1, 67532, Control_c, 0, 64, 61
1, 67537, Note_on_c, 0, 63, 44
1, 67546, Note_off_c, 0, 55, 60
1, 67547, Control_c, 0, 64, 64
1, 67562, Control_c, 0, 64, 68
1, 67576, Control_c, 0, 64, 77
1, 67585, Note_off_c, 0, 63, 61
1, 67591, Control_c, 0, 64, 88
1, 67606, Control_c, 0, 64, 105
1, 67614, Note_on_c, 0, 71, 66
1, 67616, Note_off_c, 0, 60, 36
1, 67621, Control_c, 0, 64, 127
1, 67665, Control_c, 0, 64, 114
1, 67680, Control_c, 0, 64, 84
1, 67694, Control_c, 0, 64, 67
1, 67706, Note_off_c, 0, 72, 36
1, 67709, Control_c, 0, 64, 53
1, 67724, Control_c, 0, 64, 41
1, 67739, Control_c, 0, 64, 33
1, 67748, Note_off_c, 0, 71, 54
1, 67752, Note_on_c, 0, 69, 55
1, 67754, Control_c, 0, 64, 34
1, 67759, Note_on_c, 0, 50, 46
1, 67762, Note_on_c, 0, 54, 41
1, 67769, Control_c, 0, 64, 42
1, 67770, Note_on_c, 0, 62, 43
1, 67784, Control_c, 0, 64, 53
1, 67792, Note_off_c, 0, 50, 62
1, 67793, Note_off_c, 0, 54, 61
1, 67796, Note_off_c, 0, 62, 58
1, 67799, Control_c, 0, 64, 61
1, 67814, Control_c, 0, 64, 67
1, 67825, Poly_aftertouch_c, 0, 60, 0
1, 67828, Control_c, 0, 64, 75
1, 67842, Control_c, 0, 64, 83
1, 67857, Control_c, 0, 64, 94
1, 67872, Control_c, 0, 64, 106
1, 67886, Control_c, 0, 64, 127
1, 68005, Control_c, 0, 64, 107
1, 68020, Control_c, 0, 64, 79
1, 68025, Note_off_c, 0, 69, 35
1, 68030, Note_on_c, 0, 67, 44
1, 68035, Control_c, 0, 64, 64
1, 68037, Note_on_c, 0, 59, 45
1, 68041, Note_on_c, 0, 55, 42
1, 68049, Control_c, 0, 64, 47
1, 68055, Note_on_c, 0, 50, 38
1, 68061, Note_on_c, 0, 43, 39
1, 68064, Control_c, 0, 64, 34
1, 68079, Control_c, 0, 64, 0
1, 68109, Control_c, 0, 64, 29
1, 68121, Note_off_c, 0, 55, 60
1, 68124, Control_c, 0, 64, 41
1, 68135, Note_off_c, 0, 59, 58
1, 68138, Note_off_c, 0, 43, 61
1, 68138, Note_off_c, 0, 50, 60
1, 68138, Control_c, 0, 64, 55
1, 68153, Control_c, 0, 64, 66
1, 68162, Note_off_c, 0, 67, 61
1, 68168, Control_c, 0, 64, 75
1, 68183, Control_c, 0, 64, 86
1, 68198, Control_c, 0, 64, 96
1, 68219, Control_c, 0, 64, 105
1, 68234, Control_c, 0, 64, 115
1, 68249, Control_c, 0, 64, 119
1, 68384, Control_c, 0, 64, 117
1, 68398, Control_c, 0, 64, 112
1, 68413, Control_c, 0, 64, 108
1, 68428, Control_c, 0, 64, 104
1, 68443, Control_c, 0, 64, 100
1, 68458, Control_c, 0, 64, 95
1, 68472, Control_c, 0, 64, 91
1, 68487, Control_c, 0, 64, 87
1, 68502, Control_c, 0, 64, 83
1, 68517, Control_c, 0, 64, 80
1, 68532, Control_c, 0, 64, 78
1, 68547, Control_c, 0, 64, 76
1, 68562, Control_c, 0, 64, 71
1, 68577, Control_c, 0, 64, 67
1, 68591, Control_c, 0, 64, 62
1, 68606, Control_c, 0, 64, 58
1, 68621, Control_c, 0, 64, 54
1, 68635, Control_c, 0, 64, 50
1, 68650, Control_c, 0, 64, 45
1, 68665, Control_c, 0, 64, 37
1, 68680, Control_c, 0, 64, 30
1, 68695, Control_c, 0, 64, 0
1, 68734, Note_on_c, 0, 62, 51
1, 68746, Note_on_c, 0, 59, 41
1, 68753, Note_on_c, 0, 31, 45
1, 68755, Note_on_c, 0, 55, 38
1, 68760, Note_on_c, 0, 50, 35
1, 68770, Note_on_c, 0, 43, 29
1, 69118, Control_c, 0, 64, 32
1, 69133, Control_c, 0, 64, 45
1, 69147, Control_c, 0, 64, 56
1, 69162, Control_c, 0, 64, 63
1, 69177, Control_c, 0, 64, 66
1, 69192, Control_c, 0, 64, 70
1, 69207, Control_c, 0, 64, 73
1, 69221, Control_c, 0, 64, 77
1, 69236, Control_c, 0, 64, 80
1, 69251, Control_c, 0, 64, 82
1, 69265, Control_c, 0, 64, 84
1, 69280, Note_off_c, 0, 43, 53
1, 69280, Control_c, 0, 64, 85
1, 69295, Note_off_c, 0, 62, 59
1, 69295, Control_c, 0, 64, 86
1, 69298, Note_off_c, 0, 55, 62
1, 69305, Note_off_c, 0, 31, 58
1, 69306, Note_off_c, 0, 59, 60
1, 69310, Note_off_c, 0, 50, 49
1, 69355, Control_c, 0, 64, 84
1, 69370, Control_c, 0, 64, 79
1, 69384, Control_c, 0, 64, 73
1, 69399, Control_c, 0, 64, 67
1, 69405, Note_on_c, 0, 62, 65
1, 69409, Note_on_c, 0, 42, 57
1, 69409, Note_on_c, 0, 50, 62
1, 69411, Note_on_c, 0, 35, 56
1, 69414, Control_c, 0, 64, 61
1, 69423, Note_on_c, 0, 59, 45
1, 69429, Control_c, 0, 64, 56
1, 69430, Note_off_c, 0, 50, 62
1, 69435, Note_off_c, 0, 62, 65
1, 69437, Note_on_c, 0, 54, 18
1, 69441, Note_off_c, 0, 42, 64
1, 69444, Control_c, 0, 64, 50
1, 69451, Note_off_c, 0, 59, 55
1, 69453, Note_off_c, 0, 35, 58
1, 69458, Control_c, 0, 64, 45
1, 69473, Note_off_c, 0, 54, 31
1, 69473, Control_c, 0, 64, 40
1, 69488, Control_c, 0, 64, 32
1, 69503, Control_c, 0, 64, 0
1, 69606, Control_c, 0, 64, 31
1, 69617, Note_on_c, 0, 59, 58
1, 69619, Note_on_c, 0, 40, 48
1, 69621, Control_c, 0, 64, 48
1, 69626, Note_on_c, 0, 52, 50
1, 69626, Note_on_c, 0, 62, 60
1, 69634, Note_on_c, 0, 36, 42
1, 69636, Control_c, 0, 64, 57
1, 69651, Control_c, 0, 64, 58
1, 69665, Control_c, 0, 64, 55
1, 69680, Control_c, 0, 64, 51
1, 69695, Control_c, 0, 64, 45
1, 69717, Note_on_c, 0, 57, 61
1, 69718, Control_c, 0, 64, 40
1, 69718, Note_off_c, 0, 62, 58
1, 69719, Note_on_c, 0, 60, 63
1, 69726, Note_off_c, 0, 52, 60
1, 69731, Note_off_c, 0, 59, 62
1, 69733, Control_c, 0, 64, 32
1, 69747, Control_c, 0, 64, 0
1, 69748, Note_off_c, 0, 57, 65
1, 69750, Note_off_c, 0, 60, 66
1, 69770, Note_off_c, 0, 40, 52
1, 69797, Note_off_c, 0, 36, 55
1, 69805, Note_on_c, 0, 38, 56
1, 69814, Note_on_c, 0, 57, 67
1, 69817, Note_on_c, 0, 60, 70
1, 69827, Note_on_c, 0, 54, 60
1, 69832, Note_off_c, 0, 38, 59
1, 69838, Note_off_c, 0, 57, 65
1, 69843, Note_off_c, 0, 60, 70
1, 69857, Note_off_c, 0, 54, 64
1, 70020, Note_on_c, 0, 31, 70
1, 70021, Note_on_c, 0, 59, 65
1, 70022, Note_on_c, 0, 62, 72
1, 70023, Note_on_c, 0, 50, 63
1, 70025, Note_on_c, 0, 43, 65
1, 70028, Note_on_c, 0, 55, 59
1, 70053, Note_off_c, 0, 31, 63
1, 70053, Note_off_c, 0, 50, 64
1, 70055, Note_off_c, 0, 43, 65
1, 70059, Note_off_c, 0, 59, 62
1, 70060, Note_off_c, 0, 55, 65
1, 70061, Note_off_c, 0, 62, 63
1, 70228, Note_on_c, 0, 36, 69
1, 70230, Note_on_c, 0, 52, 73
1, 70231, Note_on_c, 0, 64, 72
1, 70232, Note_on_c, 0, 60, 68
1, 70235, Note_on_c, 0, 55, 62
1, 70244, Note_on_c, 0, 43, 51
1, 70257, Note_off_c, 0, 36, 64
1, 70258, Note_off_c, 0, 52, 67
1, 70264, Note_off_c, 0, 60, 66
1, 70264, Note_off_c, 0, 64, 60
1, 70264, Note_off_c, 0, 55, 67
1, 70267, Control_c, 0, 67, 114
1, 70273, Note_off_c, 0, 43, 53
1, 70281, Control_c, 0, 67, 95
1, 70296, Control_c, 0, 67, 76
1, 70311, Control_c, 0, 67, 60
1, 70326, Control_c, 0, 67, 48
1, 70341, Control_c, 0, 67, 37
1, 70355, Control_c, 0, 67, 29
1, 70370, Control_c, 0, 67, 21
1, 70385, Control_c, 0, 67, 0
1, 70472, Note_on_c, 0, 64, 66
1, 70475, Note_on_c, 0, 55, 55
1, 70475, Note_on_c, 0, 60, 56
1, 70478, Note_on_c, 0, 36, 54
1, 70483, Note_on_c, 0, 52, 45
1, 70499, Note_on_c, 0, 43, 43
1, 70556, Control_c, 0, 64, 33
1, 70570, Control_c, 0, 64, 42
1, 70585, Control_c, 0, 64, 52
1, 70600, Control_c, 0, 64, 58
1, 70614, Control_c, 0, 64, 62
1, 70629, Control_c, 0, 64, 65
1, 70644, Control_c, 0, 64, 69
1, 70659, Control_c, 0, 64, 75
1, 70674, Control_c, 0, 64, 81
1, 70685, Note_off_c, 0, 55, 62
1, 70690, Note_off_c, 0, 52, 61
1, 70690, Control_c, 0, 64, 88
1, 70705, Control_c, 0, 64, 94
1, 70706, Note_off_c, 0, 60, 64
1, 70708, Note_off_c, 0, 64, 61
1, 70719, Control_c, 0, 64, 100
1, 70734, Control_c, 0, 64, 105
1, 70745, Note_off_c, 0, 43, 60
1, 70749, Control_c, 0, 64, 108
1, 70764, Control_c, 0, 64, 111
1, 70777, Note_off_c, 0, 36, 52
1, 70779, Control_c, 0, 64, 114
1, 70793, Control_c, 0, 64, 119
1, 70808, Control_c, 0, 64, 127
1, 70986, Control_c, 0, 64, 99
1, 70992, Note_on_c, 0, 66, 72
1, 71001, Note_on_c, 0, 42, 49
1, 71001, Control_c, 0, 64, 83
1, 71003, Note_on_c, 0, 58, 51
1, 71004, Note_on_c, 0, 61, 55
1, 71006, Note_on_c, 0, 52, 46
1, 71007, Note_on_c, 0, 30, 51
1, 71016, Control_c, 0, 64, 72
1, 71031, Control_c, 0, 64, 64
1, 71045, Control_c, 0, 64, 55
1, 71055, Note_off_c, 0, 52, 0
1, 71055, Note_on_c, 0, 52, 5
1, 71060, Control_c, 0, 64, 47
1, 71075, Control_c, 0, 64, 38
1, 71090, Control_c, 0, 64, 0
1, 71216, Control_c, 0, 64, 44
1, 71231, Control_c, 0, 64, 57
1, 71245, Control_c, 0, 64, 64
1, 71260, Control_c, 0, 64, 69
1, 71275, Control_c, 0, 64, 74
1, 71290, Control_c, 0, 64, 79
1, 71305, Control_c, 0, 64, 86
1, 71319, Control_c, 0, 64, 92
1, 71334, Control_c, 0, 64, 95
1, 71349, Control_c, 0, 64, 98
1, 71364, Control_c, 0, 64, 100
1, 71379, Control_c, 0, 64, 103
1, 71379, Control_c, 0, 67, 19
1, 71408, Control_c, 0, 64, 106
1, 71433, Note_off_c, 0, 42, 60
1, 71438, Control_c, 0, 67, 21
1, 71439, Note_off_c, 0, 52, 40
1, 71514, Note_off_c, 0, 30, 63
1, 71519, Note_off_c, 0, 58, 50
1, 71524, Note_off_c, 0, 61, 35
1, 71537, Note_on_c, 0, 64, 50
1, 71587, Control_c, 0, 64, 102
1, 71602, Control_c, 0, 64, 90
1, 71607, Note_off_c, 0, 66, 36
1, 71616, Control_c, 0, 64, 79
1, 71618, Note_off_c, 0, 64, 55
1, 71620, Note_on_c, 0, 62, 58
1, 71624, Note_on_c, 0, 35, 52
1, 71624, Note_on_c, 0, 59, 48
1, 71627, Note_on_c, 0, 54, 51
1, 71629, Note_on_c, 0, 47, 50
1, 71631, Control_c, 0, 64, 68
1, 71631, Control_c, 0, 67, 23
1, 71646, Control_c, 0, 64, 59
1, 71655, Note_off_c, 0, 54, 57
1, 71660, Control_c, 0, 64, 49
1, 71660, Control_c, 0, 67, 26
1, 71661, Note_off_c, 0, 47, 61
1, 71675, Control_c, 0, 64, 40
1, 71675, Control_c, 0, 67, 29
1, 71684, Note_off_c, 0, 35, 58
1, 71685, Note_off_c, 0, 59, 55
1, 71685, Note_off_c, 0, 62, 52
1, 71690, Control_c, 0, 64, 29
1, 71690, Control_c, 0, 67, 32
1, 71705, Control_c, 0, 64, 0
1, 71705, Control_c, 0, 67, 36
1, 71720, Control_c, 0, 67, 42
1, 71734, Control_c, 0, 67, 49
1, 71749, Control_c, 0, 67, 57
1, 71764, Control_c, 0, 67, 65
1, 71779, Control_c, 0, 67, 70
1, 71794, Control_c, 0, 67, 71
1, 71838, Control_c, 0, 67, 72
1, 71868, Control_c, 0, 67, 72
1, 71874, Note_on_c, 0, 59, 42
1, 71882, Note_on_c, 0, 54, 48
1, 71882, Note_on_c, 0, 62, 59
1, 71891, Note_on_c, 0, 35, 45
1, 71895, Note_on_c, 0, 47, 40
1, 71897, Control_c, 0, 67, 73
1, 71912, Control_c, 0, 67, 75
1, 71927, Control_c, 0, 67, 78
1, 71942, Control_c, 0, 67, 80
1, 71964, Control_c, 0, 64, 33
1, 71964, Control_c, 0, 67, 82
1, 71979, Control_c, 0, 64, 50
1, 71979, Control_c, 0, 67, 83
1, 71993, Control_c, 0, 64, 60
1, 72008, Control_c, 0, 64, 65
1, 72008, Control_c, 0, 67, 84
1, 72023, Control_c, 0, 64, 68
1, 72038, Control_c, 0, 64, 73
1, 72038, Control_c, 0, 67, 84
1, 72053, Control_c, 0, 64, 79
1, 72053, Control_c, 0, 67, 85
1, 72067, Control_c, 0, 64, 83
1, 72082, Control_c, 0, 64, 86
1, 72097, Control_c, 0, 64, 90
1, 72106, Note_off_c, 0, 59, 54
1, 72111, Note_off_c, 0, 54, 57
1, 72112, Control_c, 0, 64, 94
1, 72112, Control_c, 0, 67, 85
1, 72115, Note_off_c, 0, 47, 58
1, 72127, Control_c, 0, 64, 98
1, 72132, Note_off_c, 0, 62, 63
1, 72142, Control_c, 0, 64, 103
1, 72157, Control_c, 0, 64, 110
1, 72157, Control_c, 0, 67, 86
1, 72172, Control_c, 0, 64, 118
1, 72186, Control_c, 0, 64, 127
1, 72216, Control_c, 0, 67, 87
1, 72231, Control_c, 0, 67, 90
1, 72246, Control_c, 0, 67, 93
1, 72260, Control_c, 0, 67, 94
1, 72275, Control_c, 0, 67, 95
1, 72321, Control_c, 0, 64, 106
1, 72336, Control_c, 0, 64, 86
1, 72350, Note_on_c, 0, 51, 59
1, 72350, Control_c, 0, 64, 69
1, 72353, Note_on_c, 0, 63, 66
1, 72357, Note_on_c, 0, 58, 56
1, 72360, Note_off_c, 0, 35, 26
1, 72364, Note_on_c, 0, 30, 49
1, 72365, Control_c, 0, 64, 57
1, 72372, Note_on_c, 0, 42, 36
1, 72377, Note_off_c, 0, 51, 59
1, 72380, Control_c, 0, 64, 40
1, 72392, Note_off_c, 0, 58, 65
1, 72395, Control_c, 0, 64, 0
1, 72407, Note_off_c, 0, 30, 59
1, 72410, Note_off_c, 0, 42, 48
1, 72410, Note_off_c, 0, 63, 55
1, 72646, Control_c, 0, 67, 94
1, 72660, Note_on_c, 0, 65, 57
1, 72661, Note_on_c, 0, 57, 43
1, 72666, Note_on_c, 0, 29, 44
1, 72666, Note_on_c, 0, 51, 48
1, 72672, Note_on_c, 0, 41, 36
1, 72728, Control_c, 0, 67, 94
1, 72743, Control_c, 0, 67, 93
1, 72787, Control_c, 0, 64, 37
1, 72802, Control_c, 0, 64, 52
1, 72816, Control_c, 0, 64, 61
1, 72831, Control_c, 0, 64, 66
1, 72846, Control_c, 0, 64, 71
1, 72861, Control_c, 0, 64, 78
1, 72876, Control_c, 0, 64, 90
1, 72890, Control_c, 0, 64, 113
1, 72905, Control_c, 0, 64, 127
1, 72905, Control_c, 0, 67, 93
1, 72955, Note_off_c, 0, 29, 54
1, 72956, Note_off_c, 0, 41, 50
1, 72977, Note_off_c, 0, 51, 53
1, 72979, Note_off_c, 0, 65, 56
1, 72992, Note_off_c, 0, 57, 56
1, 72997, Note_on_c, 0, 63, 61
1, 73027, Note_off_c, 0, 63, 66
1, 73039, Control_c, 0, 64, 104
1, 73054, Control_c, 0, 64, 77
1, 73054, Control_c, 0, 67, 92
1, 73069, Control_c, 0, 64, 62
1, 73085, Control_c, 0, 64, 44
1, 73097, Note_on_c, 0, 46, 60
1, 73097, Note_on_c, 0, 62, 58
1, 73100, Control_c, 0, 64, 0
1, 73102, Note_on_c, 0, 34, 45
1, 73102, Note_on_c, 0, 53, 48
1, 73117, Note_off_c, 0, 62, 61
1, 73122, Note_off_c, 0, 46, 59
1, 73128, Note_off_c, 0, 53, 54
1, 73132, Note_off_c, 0, 34, 57
1, 73188, Control_c, 0, 67, 92
1, 73278, Control_c, 0, 64, 29
1, 73278, Control_c, 0, 67, 91
1, 73292, Control_c, 0, 64, 50
1, 73299, Note_on_c, 0, 34, 41
1, 73299, Note_on_c, 0, 62, 65
1, 73302, Note_on_c, 0, 58, 50
1, 73307, Note_on_c, 0, 53, 49
1, 73307, Control_c, 0, 64, 60
1, 73322, Control_c, 0, 64, 65
1, 73325, Note_on_c, 0, 46, 5
1, 73327, Note_off_c, 0, 62, 52
1, 73331, Note_off_c, 0, 34, 59
1, 73334, Note_off_c, 0, 53, 58
1, 73337, Control_c, 0, 64, 69
1, 73337, Note_off_c, 0, 58, 62
1, 73352, Control_c, 0, 64, 72
1, 73367, Control_c, 0, 64, 75
1, 73376, Note_off_c, 0, 46, 38
1, 73381, Control_c, 0, 64, 78
1, 73396, Control_c, 0, 64, 81
1, 73411, Control_c, 0, 64, 82
1, 73425, Control_c, 0, 64, 82
1, 73440, Control_c, 0, 64, 81
1, 73462, Control_c, 0, 64, 76
1, 73477, Control_c, 0, 64, 67
1, 73492, Control_c, 0, 64, 55
1, 73496, Note_on_c, 0, 39, 63
1, 73499, Note_on_c, 0, 58, 55
1, 73506, Note_on_c, 0, 60, 60
1, 73507, Control_c, 0, 64, 32
1, 73510, Note_on_c, 0, 53, 61
1, 73522, Control_c, 0, 64, 0
1, 73542, Note_off_c, 0, 53, 64
1, 73543, Note_off_c, 0, 60, 65
1, 73545, Note_off_c, 0, 58, 58
1, 73558, Note_off_c, 0, 39, 63
1, 73580, Note_on_c, 0, 41, 62
1, 73611, Control_c, 0, 67, 91
1, 73626, Control_c, 0, 67, 90
1, 73646, Note_off_c, 0, 41, 63
1, 73679, Note_on_c, 0, 42, 76
1, 73686, Note_on_c, 0, 51, 68
1, 73686, Note_on_c, 0, 60, 66
1, 73700, Control_c, 0, 67, 89
1, 73705, Note_on_c, 0, 58, 30
1, 73709, Note_off_c, 0, 42, 69
1, 73714, Control_c, 0, 67, 88
1, 73715, Note_off_c, 0, 51, 66
1, 73729, Control_c, 0, 67, 88
1, 73735, Note_off_c, 0, 58, 48
1, 73744, Control_c, 0, 67, 87
1, 73792, Note_off_c, 0, 60, 34
1, 73883, Note_on_c, 0, 44, 72
1, 73883, Note_on_c, 0, 62, 51
1, 73887, Note_on_c, 0, 54, 57
1, 73902, Note_on_c, 0, 58, 28
1, 73916, Note_off_c, 0, 44, 67
1, 73918, Note_off_c, 0, 54, 64
1, 73939, Note_off_c, 0, 58, 47
1, 73960, Note_on_c, 0, 45, 72
1, 73984, Note_off_c, 0, 62, 32
1, 74013, Note_off_c, 0, 45, 62
1, 74060, Note_on_c, 0, 62, 63
1, 74064, Note_on_c, 0, 58, 59
1, 74064, Note_on_c, 0, 46, 90
1, 74067, Note_on_c, 0, 53, 66
1, 74091, Note_off_c, 0, 62, 65
1, 74097, Note_off_c, 0, 46, 67
1, 74099, Note_off_c, 0, 53, 64
1, 74121, Note_off_c, 0, 58, 57
1, 74267, Note_on_c, 0, 48, 84
1, 74276, Note_on_c, 0, 55, 56
1, 74282, Note_on_c, 0, 60, 55
1, 74284, Note_on_c, 0, 51, 57
1, 74298, Note_off_c, 0, 48, 67
1, 74303, Note_off_c, 0, 60, 61
1, 74309, Note_off_c, 0, 51, 61
1, 74315, Note_off_c, 0, 55, 62
1, 74467, Note_on_c, 0, 49, 79
1, 74480, Note_on_c, 0, 60, 57
1, 74482, Note_on_c, 0, 55, 57
1, 74493, Note_on_c, 0, 51, 41
1, 74506, Note_off_c, 0, 49, 60
1, 74524, Note_off_c, 0, 51, 54
1, 74563, Note_off_c, 0, 55, 46
1, 74575, Note_on_c, 0, 58, 55
1, 74580, Note_off_c, 0, 60, 62
1, 74611, Control_c, 0, 67, 88
1, 74682, Note_on_c, 0, 50, 61
1, 74682, Note_on_c, 0, 57, 58
1, 74684, Note_on_c, 0, 54, 52
1, 74716, Note_off_c, 0, 50, 62
1, 74720, Note_off_c, 0, 54, 63
1, 74720, Note_off_c, 0, 58, 29
1, 74733, Note_off_c, 0, 57, 60
1, 74920, Note_on_c, 0, 50, 54
1, 74932, Note_on_c, 0, 54, 50
1, 74932, Note_on_c, 0, 57, 52
1, 74965, Note_off_c, 0, 50, 63
1, 74969, Note_off_c, 0, 54, 63
1, 75004, Note_off_c, 0, 57, 46
1, 75064, Control_c, 0, 67, 87
1, 75205, Note_on_c, 0, 31, 52
1, 75209, Note_on_c, 0, 43, 49
1, 75214, Note_on_c, 0, 59, 31
1, 75217, Note_on_c, 0, 62, 45
1, 75221, Note_on_c, 0, 50, 43
1, 75239, Note_on_c, 0, 55, 33
1, 75249, Note_off_c, 0, 50, 58
1, 75260, Note_off_c, 0, 31, 55
1, 75262, Note_off_c, 0, 43, 60
1, 75266, Note_off_c, 0, 62, 54
1, 75277, Note_off_c, 0, 55, 61
1, 75289, Note_off_c, 0, 59, 49
1, 75479, Control_c, 0, 67, 87
1, 75555, Note_on_c, 0, 62, 47
1, 75564, Note_on_c, 0, 59, 36
1, 75570, Note_on_c, 0, 55, 40
1, 75574, Note_on_c, 0, 50, 42
1, 75577, Note_on_c, 0, 43, 35
1, 75578, Note_on_c, 0, 31, 42
1, 75767, Control_c, 0, 67, 87
1, 76005, Control_c, 0, 64, 31
1, 76020, Control_c, 0, 64, 37
1, 76034, Control_c, 0, 64, 51
1, 76049, Control_c, 0, 64, 60
1, 76064, Control_c, 0, 64, 66
1, 76080, Control_c, 0, 64, 74
1, 76080, Control_c, 0, 67, 88
1, 76094, Control_c, 0, 64, 85
1, 76094, Control_c, 0, 67, 88
1, 76104, Note_off_c, 0, 50, 60
1, 76109, Note_off_c, 0, 59, 63
1, 76109, Control_c, 0, 64, 102
1, 76115, Note_off_c, 0, 55, 62
1, 76122, Note_off_c, 0, 62, 60
1, 76124, Control_c, 0, 64, 127
1, 76190, Note_off_c, 0, 31, 51
1, 76198, Control_c, 0, 67, 89
1, 76218, Note_off_c, 0, 43, 41
1, 76227, Control_c, 0, 67, 89
1, 76288, Control_c, 0, 67, 89
1, 76303, Control_c, 0, 67, 88
1, 76345, Note_on_c, 0, 64, 59
1, 76350, Note_on_c, 0, 60, 50
1, 76355, Note_on_c, 0, 52, 46
1, 76357, Note_on_c, 0, 43, 43
1, 76360, Note_on_c, 0, 36, 49
1, 76376, Control_c, 0, 67, 88
1, 76406, Control_c, 0, 67, 87
1, 76430, Note_off_c, 0, 36, 57
1, 76432, Note_on_c, 0, 59, 61
1, 76436, Control_c, 0, 64, 95
1, 76437, Note_on_c, 0, 62, 64
1, 76452, Note_off_c, 0, 52, 57
1, 76458, Note_on_c, 0, 38, 62
1, 76458, Control_c, 0, 64, 81
1, 76459, Note_off_c, 0, 64, 52
1, 76467, Note_off_c, 0, 60, 57
1, 76472, Note_off_c, 0, 59, 65
1, 76473, Control_c, 0, 64, 69
1, 76483, Note_off_c, 0, 62, 61
1, 76488, Control_c, 0, 64, 59
1, 76488, Control_c, 0, 67, 87
1, 76503, Control_c, 0, 64, 46
1, 76503, Control_c, 0, 67, 86
1, 76518, Control_c, 0, 64, 34
1, 76530, Note_off_c, 0, 43, 0
1, 76532, Control_c, 0, 64, 32
1, 76544, Note_on_c, 0, 43, 41
1, 76547, Control_c, 0, 64, 40
1, 76548, Note_off_c, 0, 38, 57
1, 76548, Note_on_c, 0, 31, 62
1, 76548, Note_on_c, 0, 62, 70
1, 76553, Note_on_c, 0, 50, 69
1, 76556, Note_on_c, 0, 59, 60
1, 76562, Control_c, 0, 64, 49
1, 76577, Control_c, 0, 64, 55
1, 76582, Note_off_c, 0, 50, 65
1, 76585, Note_off_c, 0, 59, 66
1, 76588, Note_off_c, 0, 62, 62
1, 76591, Control_c, 0, 64, 60
1, 76600, Note_off_c, 0, 31, 58
1, 76606, Control_c, 0, 64, 64
1, 76612, Note_off_c, 0, 43, 60
1, 76621, Control_c, 0, 64, 68
1, 76621, Control_c, 0, 67, 87
1, 76636, Control_c, 0, 64, 70
1, 76651, Control_c, 0, 64, 69
1, 76665, Control_c, 0, 64, 68
1, 76680, Control_c, 0, 64, 64
1, 76695, Control_c, 0, 64, 61
1, 76695, Control_c, 0, 67, 86
1, 76710, Control_c, 0, 64, 58
1, 76724, Control_c, 0, 64, 56
1, 76739, Control_c, 0, 64, 54
1, 76747, Note_on_c, 0, 50, 69
1, 76747, Note_on_c, 0, 62, 72
1, 76750, Note_on_c, 0, 59, 61
1, 76754, Control_c, 0, 64, 53
1, 76760, Note_on_c, 0, 35, 66
1, 76762, Note_on_c, 0, 42, 58
1, 76769, Control_c, 0, 64, 50
1, 76773, Note_off_c, 0, 62, 66
1, 76774, Note_off_c, 0, 50, 65
1, 76780, Note_off_c, 0, 59, 65
1, 76783, Control_c, 0, 64, 48
1, 76783, Control_c, 0, 67, 85
1, 76789, Note_off_c, 0, 42, 64
1, 76798, Control_c, 0, 64, 45
1, 76798, Control_c, 0, 67, 84
1, 76813, Control_c, 0, 64, 43
1, 76813, Control_c, 0, 67, 83
1, 76828, Control_c, 0, 64, 41
1, 76828, Control_c, 0, 67, 82
1, 76843, Control_c, 0, 64, 39
1, 76843, Control_c, 0, 67, 81
1, 76858, Control_c, 0, 64, 38
1, 76858, Control_c, 0, 67, 79
1, 76872, Control_c, 0, 67, 73
1, 76887, Control_c, 0, 64, 38
1, 76887, Control_c, 0, 67, 63
1, 76888, Note_off_c, 0, 35, 48
1, 76902, Control_c, 0, 67, 50
1, 76917, Control_c, 0, 67, 34
1, 76932, Control_c, 0, 67, 0
1, 76949, Note_on_c, 0, 62, 75
1, 76952, Note_on_c, 0, 59, 73
1, 76960, Note_on_c, 0, 40, 50
1, 76962, Control_c, 0, 64, 38
1, 76962, Note_on_c, 0, 52, 54
1, 76991, Control_c, 0, 64, 39
1, 76992, Note_on_c, 0, 36, 44
1, 77011, Note_off_c, 0, 52, 51
1, 77041, Note_on_c, 0, 60, 70
1, 77049, Note_on_c, 0, 57, 59
1, 77050, Control_c, 0, 64, 38
1, 77060, Note_off_c, 0, 62, 57
1, 77062, Note_off_c, 0, 59, 61
1, 77074, Note_off_c, 0, 57, 64
1, 77086, Note_off_c, 0, 60, 63
1, 77094, Note_off_c, 0, 40, 49
1, 77111, Control_c, 0, 64, 38
1, 77123, Note_off_c, 0, 36, 56
1, 77126, Control_c, 0, 64, 40
1, 77138, Note_on_c, 0, 60, 70
1, 77140, Note_on_c, 0, 38, 73
1, 77141, Control_c, 0, 64, 41
1, 77145, Note_on_c, 0, 57, 70
1, 77147, Note_on_c, 0, 54, 74
1, 77155, Control_c, 0, 64, 40
1, 77170, Control_c, 0, 64, 37
1, 77171, Note_off_c, 0, 38, 68
1, 77173, Note_off_c, 0, 57, 65
1, 77175, Note_off_c, 0, 54, 68
1, 77177, Note_off_c, 0, 60, 66
1, 77185, Control_c, 0, 64, 34
1, 77206, Control_c, 0, 64, 0
1, 77356, Note_on_c, 0, 31, 71
1, 77359, Note_on_c, 0, 43, 65
1, 77361, Note_on_c, 0, 59, 59
1, 77361, Note_on_c, 0, 55, 61
1, 77362, Note_on_c, 0, 62, 69
1, 77364, Note_on_c, 0, 50, 55
1, 77385, Note_off_c, 0, 31, 64
1, 77389, Note_off_c, 0, 50, 61
1, 77389, Note_off_c, 0, 62, 67
1, 77391, Note_off_c, 0, 59, 64
1, 77391, Note_off_c, 0, 43, 65
1, 77392, Note_off_c, 0, 55, 65
1, 77603, Note_on_c, 0, 64, 66
1, 77603, Note_on_c, 0, 52, 60
1, 77604, Note_on_c, 0, 55, 57
1, 77609, Note_on_c, 0, 36, 57
1, 77609, Note_on_c, 0, 60, 57
1, 77613, Note_on_c, 0, 43, 51
1, 77634, Note_off_c, 0, 64, 60
1, 77636, Note_off_c, 0, 52, 65
1, 77639, Note_off_c, 0, 55, 64
1, 77640, Note_off_c, 0, 36, 62
1, 77640, Note_off_c, 0, 43, 58
1, 77642, Note_off_c, 0, 60, 66
1, 77909, Note_on_c, 0, 64, 58
1, 77911, Note_on_c, 0, 55, 56
1, 77919, Note_on_c, 0, 52, 46
1, 77919, Note_on_c, 0, 60, 47
1, 77925, Note_on_c, 0, 36, 47
1, 77928, Note_on_c, 0, 43, 46
1, 77970, Control_c, 0, 64, 29
1, 78015, Control_c, 0, 64, 31
1, 78029, Control_c, 0, 64, 32
1, 78044, Control_c, 0, 64, 34
1, 78059, Control_c, 0, 64, 35
1, 78074, Control_c, 0, 64, 37
1, 78089, Control_c, 0, 64, 40
1, 78104, Control_c, 0, 64, 43
1, 78119, Control_c, 0, 64, 50
1, 78133, Control_c, 0, 64, 57
1, 78148, Control_c, 0, 64, 62
1, 78163, Control_c, 0, 64, 67
1, 78178, Control_c, 0, 64, 73
1, 78193, Control_c, 0, 64, 82
1, 78208, Control_c, 0, 64, 96
1, 78222, Control_c, 0, 64, 127
1, 78278, Note_off_c, 0, 52, 61
1, 78298, Note_off_c, 0, 55, 62
1, 78319, Note_off_c, 0, 60, 62
1, 78333, Note_off_c, 0, 64, 62
1, 78342, Note_off_c, 0, 43, 61
1, 78345, Note_off_c, 0, 36, 41
1, 78519, Control_c, 0, 64, 79
1, 78532, Note_on_c, 0, 67, 71
1, 78534, Control_c, 0, 64, 66
1, 78537, Note_on_c, 0, 64, 62
1, 78540, Note_on_c, 0, 47, 48
1, 78543, Note_on_c, 0, 40, 50
1, 78544, Note_on_c, 0, 55, 59
1, 78548, Control_c, 0, 64, 61
1, 78550, Note_on_c, 0, 59, 46
1, 78563, Control_c, 0, 64, 63
1, 78578, Control_c, 0, 64, 67
1, 78584, Note_off_c, 0, 67, 65
1, 78593, Control_c, 0, 64, 71
1, 78608, Control_c, 0, 64, 77
1, 78618, Note_off_c, 0, 64, 64
1, 78622, Control_c, 0, 64, 89
1, 78633, Note_off_c, 0, 47, 58
1, 78637, Control_c, 0, 64, 108
1, 78652, Control_c, 0, 64, 127
1, 78654, Note_off_c, 0, 55, 0
1, 78654, Note_on_c, 0, 55, 30
1, 78658, Note_off_c, 0, 40, 52
1, 78662, Note_on_c, 0, 66, 84
1, 78673, Note_on_c, 0, 63, 64
1, 78678, Note_on_c, 0, 35, 44
1, 78683, Note_on_c, 0, 33, 52
1, 78723, Note_off_c, 0, 59, 43
1, 78724, Note_off_c, 0, 33, 55
1, 78726, Note_off_c, 0, 55, 55
1, 78741, Note_off_c, 0, 66, 63
1, 78755, Note_off_c, 0, 63, 56
1, 78780, Note_off_c, 0, 35, 47
1, 78822, Note_on_c, 0, 40, 53
1, 78822, Note_on_c, 0, 47, 63
1, 78828, Note_on_c, 0, 55, 73
1, 78828, Note_on_c, 0, 64, 62
1, 78828, Note_on_c, 0, 67, 78
1, 78832, Note_on_c, 0, 59, 60
1, 78839, Control_c, 0, 64, 85
1, 78853, Control_c, 0, 64, 66
1, 78868, Control_c, 0, 64, 49
1, 78883, Control_c, 0, 64, 0
1, 78897, Note_off_c, 0, 40, 0
1, 78935, Poly_aftertouch_c, 0, 40, 127
1, 78937, Note_on_c, 0, 40, 17
1, 78971, Control_c, 0, 64, 46
1, 78986, Control_c, 0, 64, 59
1, 79001, Control_c, 0, 64, 66
1, 79016, Control_c, 0, 64, 72
1, 79031, Control_c, 0, 64, 80
1, 79046, Control_c, 0, 64, 91
1, 79060, Control_c, 0, 64, 119
1, 79069, Note_off_c, 0, 40, 54
1, 79074, Note_off_c, 0, 47, 64
1, 79075, Control_c, 0, 64, 127
1, 79087, Note_off_c, 0, 59, 61
1, 79096, Note_off_c, 0, 55, 61
1, 79098, Note_off_c, 0, 67, 58
1, 79099, Note_off_c, 0, 64, 61
1, 79268, Control_c, 0, 64, 88
1, 79271, Note_on_c, 0, 38, 49
1, 79275, Note_on_c, 0, 65, 77
1, 79277, Note_on_c, 0, 69, 79
1, 79278, Note_on_c, 0, 62, 71
1, 79280, Note_on_c, 0, 50, 66
1, 79281, Note_on_c, 0, 57, 79
1, 79283, Control_c, 0, 64, 65
1, 79297, Control_c, 0, 64, 41
1, 79303, Note_off_c, 0, 38, 63
1, 79304, Note_off_c, 0, 62, 68
1, 79305, Note_off_c, 0, 57, 70
1, 79311, Note_off_c, 0, 50, 65
1, 79311, Note_off_c, 0, 65, 65
1, 79312, Note_off_c, 0, 69, 61
1, 79312, Control_c, 0, 64, 0
1, 79505, Poly_aftertouch_c, 0, 39, 0
1, 79513, Note_on_c, 0, 35, 53
1, 79518, Note_on_c, 0, 71, 83
1, 79521, Note_on_c, 0, 63, 72
1, 79523, Note_on_c, 0, 42, 57
1, 79523, Note_on_c, 0, 51, 65
1, 79525, Note_on_c, 0, 66, 66
1, 79529, Note_on_c, 0, 57, 63
1, 79543, Note_on_c, 0, 59, 53
1, 79618, Note_off_c, 0, 59, 0
1, 79618, Note_on_c, 0, 59, 16
1, 79706, Control_c, 0, 64, 40
1, 79720, Control_c, 0, 64, 55
1, 79735, Control_c, 0, 64, 61
1, 79750, Control_c, 0, 64, 66
1, 79765, Control_c, 0, 64, 72
1, 79780, Control_c, 0, 64, 81
1, 79794, Control_c, 0, 64, 97
1, 79809, Note_off_c, 0, 51, 57
1, 79809, Control_c, 0, 64, 127
1, 79970, Note_off_c, 0, 71, 60
1, 79973, Note_off_c, 0, 57, 56
1, 79988, Note_off_c, 0, 59, 48
1, 80012, Note_on_c, 0, 69, 68
1, 80033, Note_off_c, 0, 63, 61
1, 80044, Note_off_c, 0, 69, 64
1, 80046, Note_off_c, 0, 66, 57
1, 80099, Note_off_c, 0, 35, 35
1, 80105, Note_on_c, 0, 62, 72
1, 80105, Control_c, 0, 64, 80
1, 80107, Note_on_c, 0, 47, 76
1, 80107, Note_on_c, 0, 67, 80
1, 80110, Note_on_c, 0, 55, 73
1, 80111, Note_on_c, 0, 40, 67
1, 80119, Control_c, 0, 64, 63
1, 80126, Note_off_c, 0, 42, 38
1, 80133, Note_off_c, 0, 55, 58
1, 80134, Note_off_c, 0, 62, 64
1, 80134, Control_c, 0, 64, 43
1, 80140, Note_off_c, 0, 47, 65
1, 80149, Control_c, 0, 64, 0
1, 80151, Note_off_c, 0, 67, 62
1, 80154, Note_off_c, 0, 40, 62
1, 80318, Note_on_c, 0, 67, 77
1, 80321, Control_c, 0, 64, 50
1, 80322, Note_on_c, 0, 40, 61
1, 80322, Note_on_c, 0, 47, 58
1, 80323, Note_on_c, 0, 62, 60
1, 80328, Note_on_c, 0, 55, 60
1, 80336, Control_c, 0, 64, 60
1, 80350, Control_c, 0, 64, 65
1, 80351, Note_off_c, 0, 40, 65
1, 80354, Note_off_c, 0, 47, 65
1, 80361, Note_off_c, 0, 55, 66
1, 80365, Control_c, 0, 64, 68
1, 80369, Note_off_c, 0, 62, 61
1, 80370, Note_off_c, 0, 67, 64
1, 80380, Control_c, 0, 64, 71
1, 80395, Control_c, 0, 64, 75
1, 80410, Control_c, 0, 64, 78
1, 80424, Control_c, 0, 64, 77
1, 80439, Control_c, 0, 64, 71
1, 80454, Control_c, 0, 64, 60
1, 80469, Control_c, 0, 64, 40
1, 80484, Control_c, 0, 64, 0
1, 80506, Note_on_c, 0, 61, 71
1, 80509, Note_on_c, 0, 66, 71
1, 80509, Note_on_c, 0, 69, 75
1, 80515, Note_on_c, 0, 55, 60
1, 80515, Note_on_c, 0, 45, 63
1, 80517, Note_on_c, 0, 33, 52
1, 80528, Control_c, 0, 64, 31
1, 80538, Note_off_c, 0, 69, 64
1, 80542, Control_c, 0, 64, 48
1, 80545, Note_off_c, 0, 33, 53
1, 80547, Note_off_c, 0, 45, 64
1, 80557, Control_c, 0, 64, 59
1, 80560, Note_off_c, 0, 55, 45
1, 80573, Control_c, 0, 64, 63
1, 80588, Control_c, 0, 64, 64
1, 80602, Note_off_c, 0, 61, 41
1, 80614, Note_off_c, 0, 66, 58
1, 80616, Note_on_c, 0, 64, 52
1, 80617, Control_c, 0, 64, 64
1, 80632, Control_c, 0, 64, 62
1, 80647, Control_c, 0, 64, 60
1, 80662, Control_c, 0, 64, 55
1, 80676, Control_c, 0, 64, 49
1, 80691, Control_c, 0, 64, 41
1, 80706, Control_c, 0, 64, 0
1, 80741, Note_off_c, 0, 64, 26
1, 80745, Note_on_c, 0, 50, 50
1, 80745, Note_on_c, 0, 54, 58
1, 80748, Note_on_c, 0, 60, 54
1, 80748, Note_on_c, 0, 66, 68
1, 80752, Note_on_c, 0, 38, 47
1, 80763, Note_on_c, 0, 45, 40
1, 80855, Control_c, 0, 64, 46
1, 80869, Control_c, 0, 64, 58
1, 80884, Control_c, 0, 64, 64
1, 80899, Control_c, 0, 64, 66
1, 80909, Note_off_c, 0, 54, 53
1, 80914, Control_c, 0, 64, 70
1, 80929, Control_c, 0, 64, 74
1, 80950, Control_c, 0, 64, 80
1, 80965, Control_c, 0, 64, 86
1, 80980, Control_c, 0, 64, 92
1, 80995, Control_c, 0, 64, 98
1, 81010, Control_c, 0, 64, 103
1, 81025, Control_c, 0, 64, 107
1, 81040, Control_c, 0, 64, 110
1, 81055, Control_c, 0, 64, 112
1, 81092, Note_off_c, 0, 60, 30
1, 81130, Note_off_c, 0, 50, 34
1, 81293, Control_c, 0, 64, 107
1, 81293, Note_on_c, 0, 50, 29
1, 81294, Note_off_c, 0, 66, 55
1, 81299, Note_on_c, 0, 59, 38
1, 81302, Note_off_c, 0, 38, 40
1, 81306, Note_on_c, 0, 67, 50
1, 81307, Control_c, 0, 64, 99
1, 81309, Note_on_c, 0, 43, 43
1, 81322, Control_c, 0, 64, 87
1, 81329, Note_off_c, 0, 45, 41
1, 81337, Control_c, 0, 64, 77
1, 81352, Control_c, 0, 64, 67
1, 81366, Control_c, 0, 64, 59
1, 81381, Control_c, 0, 64, 46
1, 81396, Control_c, 0, 64, 0
1, 81618, Control_c, 0, 64, 45
1, 81633, Control_c, 0, 64, 56
1, 81648, Control_c, 0, 64, 62
1, 81663, Control_c, 0, 64, 65
1, 81675, Note_off_c, 0, 59, 57
1, 81678, Control_c, 0, 64, 69
1, 81699, Control_c, 0, 64, 76
1, 81714, Control_c, 0, 64, 88
1, 81729, Control_c, 0, 64, 101
1, 81734, Note_off_c, 0, 67, 63
1, 81744, Control_c, 0, 64, 127
1, 81766, Note_off_c, 0, 43, 63
1, 81775, Note_off_c, 0, 50, 51
1, 82173, Control_c, 0, 64, 114
1, 82188, Control_c, 0, 64, 94
1, 82201, Note_on_c, 0, 86, 60
1, 82202, Note_on_c, 0, 79, 62
1, 82202, Control_c, 0, 64, 80
1, 82211, Note_on_c, 0, 83, 51
1, 82217, Control_c, 0, 64, 67
1, 82224, Note_off_c, 0, 79, 64
1, 82231, Note_off_c, 0, 86, 56
1, 82232, Note_off_c, 0, 83, 61
1, 82232, Control_c, 0, 64, 56
1, 82247, Control_c, 0, 64, 39
1, 82262, Control_c, 0, 64, 0
1, 82293, Note_on_c, 0, 79, 68
1, 82297, Note_on_c, 0, 86, 58
1, 82313, Note_on_c, 0, 83, 46
1, 82313, Note_off_c, 0, 79, 68
1, 82319, Note_off_c, 0, 86, 57
1, 82337, Note_off_c, 0, 83, 57
1, 82402, Note_on_c, 0, 86, 69
1, 82403, Note_on_c, 0, 83, 75
1, 82408, Note_on_c, 0, 79, 62
1, 82410, Control_c, 0, 64, 46
1, 82417, Note_off_c, 0, 83, 69
1, 82424, Note_off_c, 0, 86, 67
1, 82425, Control_c, 0, 64, 60
1, 82427, Note_off_c, 0, 79, 64
1, 82447, Control_c, 0, 64, 65
1, 82462, Control_c, 0, 64, 69
1, 82477, Control_c, 0, 64, 72
1, 82491, Control_c, 0, 64, 76
1, 82506, Control_c, 0, 64, 80
1, 82521, Control_c, 0, 64, 84
1, 82536, Control_c, 0, 64, 87
1, 82551, Control_c, 0, 64, 88
1, 82566, Control_c, 0, 64, 88
1, 82581, Control_c, 0, 64, 89
1, 82631, Note_on_c, 0, 79, 71
1, 82638, Note_on_c, 0, 75, 60
1, 82639, Control_c, 0, 64, 88
1, 82641, Note_on_c, 0, 72, 59
1, 82654, Control_c, 0, 64, 87
1, 82664, Note_off_c, 0, 72, 64
1, 82670, Control_c, 0, 64, 83
1, 82670, Note_off_c, 0, 75, 65
1, 82671, Note_off_c, 0, 79, 58
1, 82685, Control_c, 0, 64, 77
1, 82700, Control_c, 0, 64, 71
1, 82713, Note_on_c, 0, 79, 72
1, 82715, Control_c, 0, 64, 65
1, 82727, Note_on_c, 0, 72, 74
1, 82728, Note_on_c, 0, 75, 72
1, 82730, Control_c, 0, 64, 60
1, 82744, Control_c, 0, 64, 53
1, 82748, Note_off_c, 0, 72, 66
1, 82754, Note_off_c, 0, 75, 67
1, 82759, Control_c, 0, 64, 44
1, 82766, Note_off_c, 0, 79, 64
1, 82774, Control_c, 0, 64, 30
1, 82789, Control_c, 0, 64, 0
1, 82825, Note_on_c, 0, 79, 72
1, 82833, Note_on_c, 0, 72, 62
1, 82833, Control_c, 0, 64, 34
1, 82836, Note_on_c, 0, 75, 64
1, 82848, Control_c, 0, 64, 48
1, 82849, Note_off_c, 0, 79, 71
1, 82862, Control_c, 0, 64, 60
1, 82864, Note_off_c, 0, 75, 66
1, 82867, Note_off_c, 0, 72, 59
1, 82877, Control_c, 0, 64, 66
1, 82892, Control_c, 0, 64, 70
1, 82907, Control_c, 0, 64, 74
1, 82907, Control_c, 0, 67, 21
1, 82922, Control_c, 0, 64, 76
1, 82922, Control_c, 0, 67, 23
1, 82936, Control_c, 0, 64, 78
1, 82951, Control_c, 0, 64, 80
1, 82951, Control_c, 0, 67, 25
1, 83070, Control_c, 0, 64, 79
1, 83072, Note_on_c, 0, 73, 57
1, 83073, Note_on_c, 0, 70, 55
1, 83079, Note_on_c, 0, 67, 48
1, 83085, Control_c, 0, 64, 76
1, 83099, Note_off_c, 0, 70, 59
1, 83100, Control_c, 0, 64, 70
1, 83100, Control_c, 0, 67, 27
1, 83105, Note_off_c, 0, 73, 64
1, 83110, Note_off_c, 0, 67, 55
1, 83114, Control_c, 0, 64, 64
1, 83129, Control_c, 0, 64, 59
1, 83144, Control_c, 0, 64, 52
1, 83159, Control_c, 0, 64, 46
1, 83166, Note_on_c, 0, 73, 56
1, 83174, Control_c, 0, 64, 38
1, 83174, Control_c, 0, 67, 30
1, 83174, Note_on_c, 0, 67, 35
1, 83179, Note_on_c, 0, 70, 49
1, 83196, Control_c, 0, 64, 0
1, 83196, Control_c, 0, 67, 35
1, 83209, Note_off_c, 0, 70, 59
1, 83210, Note_off_c, 0, 73, 60
1, 83211, Control_c, 0, 67, 39
1, 83214, Note_off_c, 0, 67, 53
1, 83225, Control_c, 0, 67, 44
1, 83240, Control_c, 0, 67, 50
1, 83255, Control_c, 0, 64, 33
1, 83255, Control_c, 0, 67, 56
1, 83270, Control_c, 0, 64, 44
1, 83270, Control_c, 0, 67, 62
1, 83284, Control_c, 0, 64, 57
1, 83284, Control_c, 0, 67, 70
1, 83299, Control_c, 0, 64, 65
1, 83299, Control_c, 0, 67, 76
1, 83300, Note_on_c, 0, 70, 54
1, 83300, Note_on_c, 0, 73, 60
1, 83307, Note_on_c, 0, 67, 61
1, 83314, Control_c, 0, 64, 72
1, 83314, Control_c, 0, 67, 81
1, 83329, Note_off_c, 0, 73, 66
1, 83329, Control_c, 0, 64, 77
1, 83329, Control_c, 0, 67, 86
1, 83330, Note_off_c, 0, 70, 65
1, 83335, Note_off_c, 0, 67, 68
1, 83344, Control_c, 0, 64, 81
1, 83344, Control_c, 0, 67, 90
1, 83359, Control_c, 0, 64, 84
1, 83359, Control_c, 0, 67, 94
1, 83374, Control_c, 0, 64, 88
1, 83374, Control_c, 0, 67, 98
1, 83389, Control_c, 0, 64, 90
1, 83389, Control_c, 0, 67, 102
1, 83404, Control_c, 0, 64, 90
1, 83404, Control_c, 0, 67, 104
1, 83448, Control_c, 0, 64, 90
1, 83463, Control_c, 0, 64, 89
1, 83478, Control_c, 0, 64, 88
1, 83493, Control_c, 0, 64, 87
1, 83508, Control_c, 0, 64, 85
1, 83523, Control_c, 0, 64, 83
1, 83538, Control_c, 0, 64, 81
1, 83553, Control_c, 0, 64, 79
1, 83568, Control_c, 0, 64, 77
1, 83583, Control_c, 0, 64, 75
1, 83597, Control_c, 0, 64, 74
1, 83612, Control_c, 0, 64, 72
1, 83618, Note_on_c, 0, 55, 59
1, 83626, Note_on_c, 0, 62, 50
1, 83627, Control_c, 0, 64, 71
1, 83635, Note_on_c, 0, 31, 49
1, 83635, Note_on_c, 0, 50, 46
1, 83639, Note_on_c, 0, 43, 39
1, 83642, Control_c, 0, 64, 69
1, 83643, Note_on_c, 0, 59, 38
1, 83657, Control_c, 0, 64, 68
1, 83663, Note_off_c, 0, 55, 56
1, 83666, Note_off_c, 0, 50, 55
1, 83667, Note_off_c, 0, 62, 59
1, 83669, Note_off_c, 0, 59, 54
1, 83671, Note_off_c, 0, 31, 62
1, 83672, Control_c, 0, 64, 66
1, 83673, Note_off_c, 0, 43, 51
1, 83686, Control_c, 0, 64, 64
1, 83701, Control_c, 0, 64, 62
1, 83716, Control_c, 0, 64, 60
1, 83731, Control_c, 0, 64, 58
1, 83746, Control_c, 0, 64, 57
1, 83752, Note_on_c, 0, 43, 58
1, 83752, Note_on_c, 0, 62, 56
1, 83755, Note_on_c, 0, 55, 50
1, 83757, Note_on_c, 0, 50, 53
1, 83759, Note_on_c, 0, 31, 58
1, 83759, Note_on_c, 0, 59, 40
1, 83760, Control_c, 0, 64, 55
1, 83775, Control_c, 0, 64, 54
1, 83786, Note_off_c, 0, 43, 58
1, 83787, Note_off_c, 0, 59, 57
1, 83788, Note_off_c, 0, 50, 55
1, 83790, Note_off_c, 0, 31, 60
1, 83790, Control_c, 0, 64, 52
1, 83791, Note_off_c, 0, 55, 60
1, 83795, Note_off_c, 0, 62, 56
1, 83805, Control_c, 0, 64, 50
1, 83820, Control_c, 0, 64, 47
1, 83834, Control_c, 0, 64, 45
1, 83849, Control_c, 0, 64, 42
1, 83864, Control_c, 0, 64, 39
1, 83879, Control_c, 0, 64, 36
1, 83893, Control_c, 0, 64, 32
1, 83893, Control_c, 0, 67, 102
1, 83908, Control_c, 0, 64, 0
1, 83914, Note_on_c, 0, 55, 47
1, 83914, Note_on_c, 0, 62, 58
1, 83919, Note_on_c, 0, 31, 43
1, 83919, Note_on_c, 0, 50, 46
1, 83922, Note_on_c, 0, 59, 39
1, 83928, Note_on_c, 0, 43, 45
1, 84064, Control_c, 0, 67, 100
1, 84093, Control_c, 0, 64, 29
1, 84108, Control_c, 0, 64, 32
1, 84123, Control_c, 0, 64, 33
1, 84138, Control_c, 0, 64, 34
1, 84153, Control_c, 0, 64, 35
1, 84167, Control_c, 0, 64, 36
1, 84182, Control_c, 0, 64, 36
1, 84197, Control_c, 0, 64, 37
1, 84212, Control_c, 0, 64, 38
1, 84226, Control_c, 0, 64, 39
1, 84241, Control_c, 0, 64, 41
1, 84256, Control_c, 0, 64, 44
1, 84272, Control_c, 0, 64, 48
1, 84287, Control_c, 0, 64, 53
1, 84302, Control_c, 0, 64, 59
1, 84316, Control_c, 0, 64, 62
1, 84331, Control_c, 0, 64, 64
1, 84346, Control_c, 0, 64, 66
1, 84361, Control_c, 0, 64, 69
1, 84372, Note_off_c, 0, 50, 54
1, 84376, Control_c, 0, 64, 71
1, 84379, Note_off_c, 0, 59, 63
1, 84384, Note_off_c, 0, 62, 61
1, 84385, Note_off_c, 0, 55, 58
1, 84390, Control_c, 0, 64, 73
1, 84405, Control_c, 0, 64, 75
1, 84420, Control_c, 0, 64, 77
1, 84435, Control_c, 0, 64, 78
1, 84465, Control_c, 0, 64, 78
1, 84489, Note_off_c, 0, 31, 49
1, 84513, Note_off_c, 0, 43, 41
1, 84598, Control_c, 0, 64, 78
1, 84628, Control_c, 0, 64, 77
1, 84628, Control_c, 0, 67, 98
1, 84630, Note_on_c, 0, 64, 56
1, 84635, Note_on_c, 0, 36, 49
1, 84636, Note_on_c, 0, 43, 47
1, 84639, Note_on_c, 0, 60, 51
1, 84642, Control_c, 0, 64, 76
1, 84654, Note_on_c, 0, 52, 33
1, 84657, Control_c, 0, 64, 75
1, 84672, Control_c, 0, 64, 72
1, 84694, Control_c, 0, 64, 67
1, 84707, Note_off_c, 0, 36, 59
1, 84709, Control_c, 0, 64, 61
1, 84718, Note_off_c, 0, 64, 58
1, 84724, Control_c, 0, 64, 53
1, 84724, Control_c, 0, 67, 96
1, 84726, Note_on_c, 0, 62, 60
1, 84729, Note_off_c, 0, 52, 37
1, 84730, Note_off_c, 0, 60, 59
1, 84732, Note_on_c, 0, 59, 56
1, 84739, Control_c, 0, 64, 42
1, 84740, Note_on_c, 0, 38, 56
1, 84754, Control_c, 0, 64, 0
1, 84754, Control_c, 0, 67, 95
1, 84759, Note_off_c, 0, 62, 63
1, 84763, Note_off_c, 0, 59, 65
1, 84770, Note_off_c, 0, 43, 35
1, 84798, Control_c, 0, 64, 33
1, 84813, Note_on_c, 0, 43, 50
1, 84813, Control_c, 0, 64, 44
1, 84816, Note_off_c, 0, 38, 58
1, 84817, Note_on_c, 0, 31, 64
1, 84828, Control_c, 0, 64, 53
1, 84832, Note_on_c, 0, 50, 62
1, 84832, Note_on_c, 0, 59, 61
1, 84841, Note_on_c, 0, 62, 51
1, 84842, Control_c, 0, 64, 60
1, 84849, Note_on_c, 0, 60, 45
1, 84849, Note_off_c, 0, 31, 63
1, 84850, Note_off_c, 0, 59, 64
1, 84853, Note_off_c, 0, 50, 62
1, 84854, Note_off_c, 0, 43, 63
1, 84857, Control_c, 0, 64, 64
1, 84865, Note_off_c, 0, 62, 57
1, 84872, Control_c, 0, 64, 66
1, 84875, Note_off_c, 0, 60, 59
1, 84887, Control_c, 0, 64, 68
1, 84902, Control_c, 0, 64, 69
1, 84946, Control_c, 0, 64, 69
1, 84961, Control_c, 0, 64, 67
1, 84976, Control_c, 0, 64, 65
1, 84990, Control_c, 0, 64, 62
1, 85005, Control_c, 0, 64, 58
1, 85017, Note_on_c, 0, 55, 65
1, 85020, Control_c, 0, 64, 55
1, 85022, Note_on_c, 0, 52, 57
1, 85025, Note_on_c, 0, 40, 61
1, 85032, Note_on_c, 0, 47, 57
1, 85035, Note_on_c, 0, 59, 57
1, 85035, Control_c, 0, 64, 52
1, 85049, Control_c, 0, 64, 50
1, 85065, Control_c, 0, 64, 47
1, 85074, Note_off_c, 0, 52, 57
1, 85080, Control_c, 0, 64, 43
1, 85093, Note_off_c, 0, 55, 59
1, 85095, Control_c, 0, 64, 38
1, 85095, Control_c, 0, 67, 95
1, 85109, Note_on_c, 0, 57, 60
1, 85110, Control_c, 0, 64, 33
1, 85124, Note_on_c, 0, 60, 66
1, 85125, Control_c, 0, 64, 30
1, 85125, Control_c, 0, 67, 94
1, 85139, Note_off_c, 0, 40, 55
1, 85139, Control_c, 0, 64, 0
1, 85146, Note_off_c, 0, 59, 64
1, 85147, Note_off_c, 0, 57, 65
1, 85150, Note_off_c, 0, 47, 45
1, 85154, Note_off_c, 0, 60, 67
1, 85169, Control_c, 0, 67, 94
1, 85210, Note_on_c, 0, 35, 67
1, 85210, Note_on_c, 0, 47, 57
1, 85210, Note_on_c, 0, 42, 71
1, 85210, Note_on_c, 0, 62, 76
1, 85213, Note_on_c, 0, 59, 62
1, 85213, Control_c, 0, 67, 93
1, 85214, Note_on_c, 0, 50, 71
1, 85237, Note_off_c, 0, 62, 62
1, 85238, Note_off_c, 0, 35, 63
1, 85240, Note_off_c, 0, 59, 66
1, 85240, Note_off_c, 0, 42, 64
1, 85241, Note_off_c, 0, 50, 67
1, 85242, Note_off_c, 0, 47, 65
1, 85258, Control_c, 0, 67, 93
1, 85413, Note_on_c, 0, 57, 74
1, 85415, Note_on_c, 0, 45, 65
1, 85416, Note_on_c, 0, 54, 72
1, 85417, Note_on_c, 0, 38, 69
1, 85439, Note_on_c, 0, 50, 46
1, 85450, Note_off_c, 0, 38, 65
1, 85452, Note_off_c, 0, 45, 65
1, 85454, Note_off_c, 0, 54, 66
1, 85455, Note_off_c, 0, 57, 62
1, 85463, Note_off_c, 0, 50, 57
1, 85472, Control_c, 0, 67, 92
1, 85622, Note_on_c, 0, 31, 63
1, 85630, Note_on_c, 0, 43, 59
1, 85630, Note_on_c, 0, 55, 67
1, 85633, Note_on_c, 0, 59, 54
1, 85636, Note_on_c, 0, 62, 61
1, 85642, Note_on_c, 0, 50, 49
1, 85657, Note_off_c, 0, 31, 61
1, 85658, Note_off_c, 0, 55, 67
1, 85658, Note_off_c, 0, 59, 63
1, 85663, Note_off_c, 0, 43, 65
1, 85665, Note_off_c, 0, 62, 64
1, 85667, Note_off_c, 0, 50, 57
1, 85857, Note_on_c, 0, 36, 60
1, 85859, Note_on_c, 0, 64, 62
1, 85864, Note_on_c, 0, 55, 54
1, 85866, Note_on_c, 0, 43, 45
1, 85869, Note_on_c, 0, 52, 49
1, 85877, Note_on_c, 0, 60, 39
1, 85885, Note_off_c, 0, 55, 62
1, 85887, Note_off_c, 0, 64, 67
1, 85889, Note_off_c, 0, 36, 63
1, 85895, Note_off_c, 0, 43, 51
1, 85896, Note_off_c, 0, 52, 55
1, 85905, Note_off_c, 0, 60, 51
1, 86143, Note_on_c, 0, 55, 50
1, 86146, Note_on_c, 0, 36, 51
1, 86149, Note_on_c, 0, 64, 53
1, 86155, Note_on_c, 0, 43, 38
1, 86156, Note_on_c, 0, 60, 45
1, 86167, Note_on_c, 0, 52, 35
1, 86170, Control_c, 0, 67, 92
1, 86192, Control_c, 0, 67, 91
1, 86207, Control_c, 0, 67, 90
1, 86222, Control_c, 0, 67, 89
1, 86236, Control_c, 0, 67, 88
1, 86251, Control_c, 0, 67, 83
1, 86266, Control_c, 0, 64, 29
1, 86266, Control_c, 0, 67, 76
1, 86281, Control_c, 0, 64, 31
1, 86281, Control_c, 0, 67, 69
1, 86295, Control_c, 0, 64, 35
1, 86295, Control_c, 0, 67, 62
1, 86310, Control_c, 0, 64, 39
1, 86310, Control_c, 0, 67, 53
1, 86325, Control_c, 0, 64, 44
1, 86325, Control_c, 0, 67, 45
1, 86340, Control_c, 0, 64, 50
1, 86340, Control_c, 0, 67, 35
1, 86355, Control_c, 0, 64, 55
1, 86355, Control_c, 0, 67, 26
1, 86370, Control_c, 0, 64, 58
1, 86370, Control_c, 0, 67, 0
1, 86385, Control_c, 0, 64, 60
1, 86399, Control_c, 0, 64, 62
1, 86414, Control_c, 0, 64, 63
1, 86429, Control_c, 0, 64, 65
1, 86444, Control_c, 0, 64, 66
1, 86459, Control_c, 0, 64, 68
1, 86474, Control_c, 0, 64, 72
1, 86488, Control_c, 0, 64, 75
1, 86503, Control_c, 0, 64, 79
1, 86507, Note_off_c, 0, 55, 61
1, 86517, Note_off_c, 0, 64, 60
1, 86518, Control_c, 0, 64, 80
1, 86522, Note_off_c, 0, 52, 39
1, 86528, Note_off_c, 0, 43, 59
1, 86531, Note_off_c, 0, 60, 60
1, 86533, Control_c, 0, 64, 77
1, 86548, Note_off_c, 0, 36, 60
1, 86548, Control_c, 0, 64, 70
1, 86562, Control_c, 0, 64, 65
1, 86577, Control_c, 0, 64, 62
1, 86593, Note_on_c, 0, 36, 51
1, 86596, Note_on_c, 0, 43, 53
1, 86598, Note_on_c, 0, 60, 55
1, 86599, Note_on_c, 0, 64, 61
1, 86606, Control_c, 0, 64, 63
1, 86621, Control_c, 0, 64, 64
1, 86636, Note_on_c, 0, 52, 18
1, 86636, Control_c, 0, 64, 66
1, 86651, Control_c, 0, 64, 68
1, 86667, Control_c, 0, 64, 69
1, 86668, Note_off_c, 0, 43, 59
1, 86682, Control_c, 0, 64, 70
1, 86683, Note_off_c, 0, 52, 29
1, 86695, Note_off_c, 0, 36, 55
1, 86697, Control_c, 0, 64, 71
1, 86704, Note_on_c, 0, 59, 66
1, 86718, Note_off_c, 0, 64, 54
1, 86725, Note_off_c, 0, 60, 56
1, 86761, Note_off_c, 0, 59, 62
1, 86785, Control_c, 0, 64, 69
1, 86800, Control_c, 0, 64, 66
1, 86815, Control_c, 0, 64, 62
1, 86830, Control_c, 0, 64, 57
1, 86844, Control_c, 0, 64, 50
1, 86858, Note_on_c, 0, 66, 71
1, 86859, Note_on_c, 0, 58, 56
1, 86859, Control_c, 0, 64, 40
1, 86863, Note_on_c, 0, 42, 54
1, 86864, Note_on_c, 0, 30, 58
1, 86874, Control_c, 0, 64, 0
1, 86880, Note_on_c, 0, 52, 13
1, 87000, Control_c, 0, 64, 46
1, 87015, Control_c, 0, 64, 59
1, 87030, Control_c, 0, 64, 66
1, 87030, Control_c, 0, 67, 19
1, 87044, Control_c, 0, 64, 72
1, 87059, Control_c, 0, 64, 79
1, 87059, Control_c, 0, 67, 22
1, 87074, Control_c, 0, 64, 86
1, 87089, Control_c, 0, 64, 95
1, 87104, Control_c, 0, 64, 105
1, 87118, Control_c, 0, 64, 111
1, 87133, Control_c, 0, 64, 117
1, 87148, Control_c, 0, 64, 125
1, 87162, Note_off_c, 0, 42, 62
1, 87163, Control_c, 0, 64, 127
1, 87166, Note_off_c, 0, 52, 41
1, 87203, Note_off_c, 0, 58, 58
1, 87210, Note_on_c, 0, 64, 56
1, 87223, Note_off_c, 0, 30, 62
1, 87234, Note_off_c, 0, 66, 51
1, 87237, Control_c, 0, 64, 114
1, 87252, Control_c, 0, 64, 92
1, 87267, Control_c, 0, 64, 74
1, 87282, Control_c, 0, 64, 60
1, 87291, Note_off_c, 0, 64, 64
1, 87297, Control_c, 0, 64, 32
1, 87299, Note_on_c, 0, 62, 58
1, 87303, Note_on_c, 0, 35, 57
1, 87306, Note_on_c, 0, 47, 33
1, 87309, Note_on_c, 0, 54, 60
1, 87311, Control_c, 0, 64, 0
1, 87324, Note_on_c, 0, 59, 40
1, 87338, Note_off_c, 0, 47, 53
1, 87338, Note_off_c, 0, 54, 63
1, 87348, Note_off_c, 0, 59, 54
1, 87350, Note_off_c, 0, 35, 58
1, 87354, Note_off_c, 0, 62, 54
1, 87490, Control_c, 0, 67, 24
1, 87583, Note_on_c, 0, 59, 38
1, 87594, Note_on_c, 0, 62, 56
1, 87595, Note_on_c, 0, 54, 48
1, 87596, Note_on_c, 0, 47, 37
1, 87602, Note_on_c, 0, 35, 37
1, 87720, Control_c, 0, 64, 32
1, 87735, Control_c, 0, 64, 47
1, 87749, Control_c, 0, 64, 57
1, 87764, Control_c, 0, 64, 63
1, 87779, Control_c, 0, 64, 66
1, 87793, Control_c, 0, 64, 71
1, 87808, Control_c, 0, 64, 77
1, 87823, Control_c, 0, 64, 85
1, 87835, Note_off_c, 0, 47, 57
1, 87838, Control_c, 0, 64, 94
1, 87851, Note_off_c, 0, 54, 60
1, 87853, Control_c, 0, 64, 107
1, 87867, Control_c, 0, 64, 127
1, 87881, Note_off_c, 0, 59, 38
1, 87884, Note_off_c, 0, 35, 55
1, 87886, Note_off_c, 0, 62, 61
1, 87985, Control_c, 0, 64, 109
1, 88000, Control_c, 0, 64, 77
1, 88015, Control_c, 0, 64, 60
1, 88021, Note_on_c, 0, 35, 61
1, 88024, Note_on_c, 0, 42, 59
1, 88024, Note_on_c, 0, 51, 61
1, 88024, Note_on_c, 0, 63, 66
1, 88025, Note_on_c, 0, 59, 48
1, 88030, Control_c, 0, 64, 34
1, 88045, Control_c, 0, 64, 0
1, 88049, Note_off_c, 0, 59, 62
1, 88051, Note_off_c, 0, 51, 64
1, 88052, Note_off_c, 0, 42, 61
1, 88054, Note_off_c, 0, 35, 64
1, 88056, Note_off_c, 0, 63, 61
1, 88220, Note_on_c, 0, 65, 72
1, 88225, Note_on_c, 0, 30, 60
1, 88226, Note_on_c, 0, 51, 61
1, 88228, Note_on_c, 0, 58, 59
1, 88236, Note_on_c, 0, 42, 46
1, 88249, Note_off_c, 0, 51, 64
1, 88259, Note_off_c, 0, 30, 63
1, 88261, Note_off_c, 0, 58, 65
1, 88269, Note_off_c, 0, 65, 59
1, 88270, Note_off_c, 0, 42, 53
1, 88400, Note_on_c, 0, 65, 71
1, 88401, Note_on_c, 0, 30, 60
1, 88402, Note_on_c, 0, 42, 61
1, 88416, Note_on_c, 0, 58, 58
1, 88416, Control_c, 0, 67, 22
1, 88421, Note_on_c, 0, 51, 42
1, 88453, Control_c, 0, 64, 50
1, 88468, Control_c, 0, 64, 57
1, 88481, Note_off_c, 0, 30, 58
1, 88483, Control_c, 0, 64, 60
1, 88483, Note_off_c, 0, 42, 63
1, 88498, Control_c, 0, 64, 60
1, 88499, Note_off_c, 0, 65, 59
1, 88505, Note_on_c, 0, 63, 72
1, 88528, Control_c, 0, 64, 59
1, 88528, Control_c, 0, 67, 20
1, 88530, Note_off_c, 0, 58, 63
1, 88531, Note_off_c, 0, 51, 50
1, 88543, Control_c, 0, 64, 54
1, 88557, Control_c, 0, 64, 43
1, 88568, Note_off_c, 0, 63, 63
1, 88572, Control_c, 0, 64, 0
1, 88585, Note_on_c, 0, 29, 72
1, 88595, Note_on_c, 0, 41, 75
1, 88603, Note_on_c, 0, 57, 67
1, 88604, Note_on_c, 0, 62, 74
1, 88605, Note_on_c, 0, 51, 66
1, 88620, Note_off_c, 0, 29, 66
1, 88629, Note_off_c, 0, 41, 65
1, 88632, Note_off_c, 0, 57, 66
1, 88637, Note_off_c, 0, 51, 65
1, 88649, Note_off_c, 0, 62, 59
1, 88794, Note_on_c, 0, 34, 61
1, 88796, Note_on_c, 0, 62, 74
1, 88800, Note_on_c, 0, 46, 72
1, 88801, Note_on_c, 0, 53, 68
1, 88804, Note_on_c, 0, 58, 67
1, 88809, Control_c, 0, 64, 40
1, 88823, Note_off_c, 0, 34, 61
1, 88824, Control_c, 0, 64, 54
1, 88832, Note_off_c, 0, 46, 65
1, 88833, Note_off_c, 0, 53, 63
1, 88839, Control_c, 0, 64, 59
1, 88844, Note_off_c, 0, 58, 59
1, 88854, Control_c, 0, 64, 61
1, 88856, Note_off_c, 0, 62, 60
1, 88869, Control_c, 0, 64, 62
1, 88883, Control_c, 0, 64, 63
1, 88898, Control_c, 0, 64, 64
1, 88913, Control_c, 0, 64, 64
1, 88943, Control_c, 0, 64, 63
1, 88957, Control_c, 0, 64, 61
1, 88972, Control_c, 0, 64, 55
1, 88987, Control_c, 0, 64, 41
1, 88993, Note_on_c, 0, 39, 71
1, 88999, Note_on_c, 0, 60, 63
1, 89002, Control_c, 0, 64, 0
1, 89005, Note_on_c, 0, 58, 62
1, 89010, Note_on_c, 0, 53, 60
1, 89044, Note_off_c, 0, 53, 63
1, 89055, Note_off_c, 0, 58, 54
1, 89061, Note_off_c, 0, 60, 64
1, 89072, Note_off_c, 0, 39, 63
1, 89083, Note_on_c, 0, 41, 71
1, 89164, Note_off_c, 0, 41, 59
1, 89190, Note_on_c, 0, 42, 81
1, 89190, Note_on_c, 0, 60, 68
1, 89200, Note_on_c, 0, 51, 64
1, 89218, Control_c, 0, 64, 31
1, 89232, Note_off_c, 0, 51, 64
1, 89232, Control_c, 0, 64, 29
1, 89235, Note_off_c, 0, 42, 62
1, 89237, Note_on_c, 0, 58, 12
1, 89247, Control_c, 0, 64, 0
1, 89287, Note_off_c, 0, 58, 39
1, 89312, Note_off_c, 0, 60, 39
1, 89396, Note_on_c, 0, 44, 67
1, 89400, Note_on_c, 0, 62, 53
1, 89408, Note_on_c, 0, 54, 47
1, 89412, Note_on_c, 0, 58, 32
1, 89433, Note_off_c, 0, 44, 66
1, 89437, Note_off_c, 0, 54, 60
1, 89462, Note_off_c, 0, 58, 46
1, 89469, Note_on_c, 0, 45, 71
1, 89526, Note_off_c, 0, 45, 62
1, 89551, Note_off_c, 0, 62, 0
1, 89566, Note_on_c, 0, 62, 38
1, 89573, Note_on_c, 0, 46, 80
1, 89576, Note_on_c, 0, 58, 59
1, 89578, Note_on_c, 0, 53, 62
1, 89608, Note_off_c, 0, 62, 62
1, 89610, Note_off_c, 0, 53, 64
1, 89619, Note_off_c, 0, 46, 60
1, 89644, Note_off_c, 0, 58, 42
1, 89774, Note_on_c, 0, 60, 57
1, 89777, Note_on_c, 0, 48, 68
1, 89781, Note_on_c, 0, 55, 48
1, 89804, Note_on_c, 0, 51, 38
1, 89816, Note_off_c, 0, 60, 58
1, 89821, Note_off_c, 0, 48, 58
1, 89831, Note_off_c, 0, 55, 60
1, 89834, Note_off_c, 0, 51, 55
1, 89991, Note_on_c, 0, 49, 65
1, 90003, Note_on_c, 0, 55, 41
1, 90009, Note_on_c, 0, 60, 35
1, 90014, Note_on_c, 0, 51, 15
1, 90031, Note_off_c, 0, 49, 60
1, 90059, Note_off_c, 0, 51, 44
1, 90080, Note_on_c, 0, 58, 55
1, 90094, Note_off_c, 0, 55, 38
1, 90102, Note_off_c, 0, 60, 44
1, 90165, Note_off_c, 0, 58, 59
1, 90206, Note_on_c, 0, 50, 48
1, 90213, Note_on_c, 0, 54, 41
1, 90217, Note_on_c, 0, 57, 47
1, 90243, Note_off_c, 0, 54, 55
1, 90247, Note_off_c, 0, 50, 54
1, 90268, Note_off_c, 0, 57, 46
1, 90336, Control_c, 0, 67, 22
1, 90454, Note_on_c, 0, 51, 56
1, 90454, Note_on_c, 0, 57, 49
1, 90466, Note_on_c, 0, 55, 48
1, 90486, Note_off_c, 0, 51, 64
1, 90494, Note_off_c, 0, 55, 59
1, 90514, Control_c, 0, 67, 24
1, 90534, Note_off_c, 0, 57, 62
1, 90778, Note_on_c, 0, 55, 38
1, 90785, Note_on_c, 0, 62, 43
1, 90794, Note_on_c, 0, 31, 56
1, 90795, Note_on_c, 0, 50, 43
1, 90796, Note_on_c, 0, 59, 35
1, 90803, Note_on_c, 0, 43, 44
1, 90829, Note_off_c, 0, 31, 63
1, 90830, Note_off_c, 0, 50, 54
1, 90835, Note_off_c, 0, 55, 56
1, 90835, Note_off_c, 0, 59, 52
1, 90839, Note_off_c, 0, 43, 54
1, 90839, Note_off_c, 0, 62, 56
1, 91135, Note_on_c, 0, 62, 47
1, 91138, Note_on_c, 0, 59, 39
1, 91144, Note_on_c, 0, 55, 40
1, 91151, Note_on_c, 0, 50, 41
1, 91160, Note_on_c, 0, 31, 35
1, 91171, Note_on_c, 0, 43, 29
1, 91628, Control_c, 0, 67, 22
1, 91642, Control_c, 0, 64, 41
1, 91657, Control_c, 0, 64, 56
1, 91672, Control_c, 0, 64, 65
1, 91682, Note_off_c, 0, 50, 56
1, 91685, Note_off_c, 0, 59, 63
1, 91687, Control_c, 0, 64, 73
1, 91691, Note_off_c, 0, 55, 63
1, 91701, Note_off_c, 0, 62, 60
1, 91701, Control_c, 0, 64, 81
1, 91716, Control_c, 0, 64, 90
1, 91731, Control_c, 0, 64, 100
1, 91746, Control_c, 0, 64, 114
1, 91760, Control_c, 0, 64, 127
1, 91807, Note_off_c, 0, 31, 40
1, 91807, Note_off_c, 0, 43, 42
1, 91908, Control_c, 0, 67, 20
1, 91931, Note_on_c, 0, 64, 55
1, 91934, Note_on_c, 0, 43, 43
1, 91938, Note_on_c, 0, 60, 44
1, 91939, Note_on_c, 0, 36, 47
1, 91941, Note_on_c, 0, 52, 40
1, 91983, Control_c, 0, 64, 115
1, 91998, Control_c, 0, 64, 104
1, 92012, Control_c, 0, 64, 94
1, 92016, Note_off_c, 0, 36, 58
1, 92018, Note_on_c, 0, 59, 64
1, 92019, Note_on_c, 0, 62, 55
1, 92022, Note_off_c, 0, 60, 58
1, 92024, Note_off_c, 0, 64, 55
1, 92027, Control_c, 0, 64, 82
1, 92029, Note_on_c, 0, 38, 56
1, 92035, Note_off_c, 0, 52, 47
1, 92042, Control_c, 0, 64, 71
1, 92042, Control_c, 0, 67, 0
1, 92049, Note_off_c, 0, 59, 64
1, 92055, Note_off_c, 0, 62, 63
1, 92057, Control_c, 0, 64, 62
1, 92072, Control_c, 0, 64, 49
1, 92084, Note_off_c, 0, 38, 54
1, 92087, Control_c, 0, 64, 40
1, 92096, Note_off_c, 0, 43, 0
1, 92101, Control_c, 0, 64, 35
1, 92116, Control_c, 0, 64, 36
1, 92117, Note_on_c, 0, 43, 23
1, 92117, Note_on_c, 0, 62, 79
1, 92123, Note_on_c, 0, 31, 56
1, 92126, Note_on_c, 0, 50, 60
1, 92127, Note_on_c, 0, 59, 52
1, 92131, Control_c, 0, 64, 42
1, 92145, Control_c, 0, 64, 48
1, 92155, Note_off_c, 0, 59, 65
1, 92156, Note_off_c, 0, 50, 63
1, 92156, Note_off_c, 0, 62, 60
1, 92159, Note_off_c, 0, 43, 61
1, 92160, Control_c, 0, 64, 53
1, 92162, Note_off_c, 0, 31, 60
1, 92182, Control_c, 0, 64, 57
1, 92197, Control_c, 0, 64, 59
1, 92212, Control_c, 0, 64, 58
1, 92242, Control_c, 0, 64, 58
1, 92257, Control_c, 0, 64, 57
1, 92272, Control_c, 0, 64, 56
1, 92287, Control_c, 0, 64, 56
1, 92302, Control_c, 0, 64, 55
1, 92317, Note_on_c, 0, 42, 64
1, 92317, Control_c, 0, 64, 54
1, 92320, Note_on_c, 0, 35, 65
1, 92320, Note_on_c, 0, 50, 63
1, 92321, Note_on_c, 0, 59, 62
1, 92321, Note_on_c, 0, 62, 70
1, 92331, Control_c, 0, 64, 53
1, 92346, Control_c, 0, 64, 51
1, 92347, Note_off_c, 0, 62, 66
1, 92349, Note_off_c, 0, 42, 64
1, 92349, Note_off_c, 0, 59, 66
1, 92350, Note_off_c, 0, 50, 64
1, 92361, Control_c, 0, 64, 50
1, 92376, Control_c, 0, 64, 49
1, 92384, Note_off_c, 0, 35, 57
1, 92391, Control_c, 0, 64, 48
1, 92406, Control_c, 0, 64, 47
1, 92421, Control_c, 0, 64, 46
1, 92436, Control_c, 0, 64, 44
1, 92451, Control_c, 0, 64, 43
1, 92465, Control_c, 0, 64, 42
1, 92480, Control_c, 0, 64, 40
1, 92495, Control_c, 0, 64, 39
1, 92510, Control_c, 0, 64, 37
1, 92511, Note_on_c, 0, 59, 67
1, 92512, Note_on_c, 0, 62, 73
1, 92519, Note_on_c, 0, 52, 56
1, 92522, Note_on_c, 0, 40, 49
1, 92525, Control_c, 0, 64, 36
1, 92528, Note_on_c, 0, 36, 52
1, 92539, Control_c, 0, 64, 34
1, 92554, Control_c, 0, 64, 33
1, 92583, Control_c, 0, 64, 29
1, 92594, Note_on_c, 0, 60, 64
1, 92598, Control_c, 0, 64, 0
1, 92606, Note_on_c, 0, 57, 50
1, 92610, Note_off_c, 0, 52, 60
1, 92610, Note_off_c, 0, 62, 60
1, 92614, Note_off_c, 0, 59, 61
1, 92630, Note_off_c, 0, 57, 58
1, 92631, Note_off_c, 0, 60, 62
1, 92643, Note_off_c, 0, 40, 52
1, 92686, Note_off_c, 0, 36, 61
1, 92698, Note_on_c, 0, 60, 63
1, 92699, Note_on_c, 0, 38, 69
1, 92699, Note_on_c, 0, 57, 60
1, 92700, Note_on_c, 0, 54, 64
1, 92721, Note_off_c, 0, 57, 62
1, 92725, Note_off_c, 0, 38, 65
1, 92727, Note_off_c, 0, 60, 68
1, 92729, Note_off_c, 0, 54, 65
1, 92896, Note_on_c, 0, 62, 74
1, 92900, Note_on_c, 0, 55, 65
1, 92903, Note_on_c, 0, 50, 65
1, 92904, Note_on_c, 0, 31, 65
1, 92905, Note_on_c, 0, 43, 65
1, 92910, Note_on_c, 0, 59, 44
1, 92935, Note_off_c, 0, 62, 60
1, 92940, Note_off_c, 0, 31, 60
1, 92942, Note_off_c, 0, 59, 59
1, 92943, Note_off_c, 0, 50, 65
1, 92945, Note_off_c, 0, 43, 65
1, 92950, Note_off_c, 0, 55, 61
1, 93107, Note_on_c, 0, 63, 77
1, 93113, Note_on_c, 0, 36, 68
1, 93115, Note_on_c, 0, 51, 72
1, 93117, Note_on_c, 0, 55, 66
1, 93119, Note_on_c, 0, 43, 59
1, 93120, Note_on_c, 0, 60, 57
1, 93142, Note_off_c, 0, 51, 67
1, 93145, Note_off_c, 0, 36, 63
1, 93145, Note_off_c, 0, 43, 58
1, 93161, Note_off_c, 0, 60, 59
1, 93169, Note_off_c, 0, 55, 60
1, 93176, Note_off_c, 0, 63, 60
1, 93360, Note_on_c, 0, 63, 71
1, 93366, Note_on_c, 0, 60, 62
1, 93367, Note_on_c, 0, 55, 59
1, 93372, Note_on_c, 0, 51, 62
1, 93376, Note_on_c, 0, 36, 60
1, 93376, Note_on_c, 0, 43, 59
1, 93452, Control_c, 0, 64, 38
1, 93467, Control_c, 0, 64, 48
1, 93481, Control_c, 0, 64, 55
1, 93496, Control_c, 0, 64, 60
1, 93511, Control_c, 0, 64, 63
1, 93525, Control_c, 0, 64, 66
1, 93540, Control_c, 0, 64, 69
1, 93555, Control_c, 0, 64, 73
1, 93570, Control_c, 0, 64, 78
1, 93585, Control_c, 0, 64, 83
1, 93599, Control_c, 0, 64, 88
1, 93614, Control_c, 0, 64, 95
1, 93629, Control_c, 0, 64, 106
1, 93640, Note_off_c, 0, 51, 61
1, 93644, Control_c, 0, 64, 127
1, 93649, Note_off_c, 0, 55, 49
1, 93662, Note_off_c, 0, 60, 64
1, 93678, Note_off_c, 0, 63, 63
1, 93716, Note_off_c, 0, 36, 60
1, 93722, Note_off_c, 0, 43, 62
1, 93860, Control_c, 0, 64, 88
1, 93875, Control_c, 0, 64, 65
1, 93890, Control_c, 0, 64, 53
1, 93893, Note_on_c, 0, 58, 70
1, 93897, Note_on_c, 0, 54, 67
1, 93899, Note_on_c, 0, 66, 72
1, 93899, Note_on_c, 0, 46, 62
1, 93902, Note_on_c, 0, 39, 63
1, 93904, Control_c, 0, 64, 50
1, 93905, Note_on_c, 0, 63, 64
1, 93919, Control_c, 0, 64, 55
1, 93934, Control_c, 0, 64, 60
1, 93948, Control_c, 0, 64, 64
1, 93952, Note_off_c, 0, 39, 53
1, 93963, Control_c, 0, 64, 69
1, 93978, Control_c, 0, 64, 77
1, 93985, Note_off_c, 0, 63, 62
1, 93989, Note_off_c, 0, 66, 62
1, 93993, Control_c, 0, 64, 85
1, 94003, Note_off_c, 0, 54, 57
1, 94008, Control_c, 0, 64, 91
1, 94022, Control_c, 0, 64, 97
1, 94025, Note_off_c, 0, 46, 33
1, 94026, Note_on_c, 0, 34, 70
1, 94037, Control_c, 0, 64, 104
1, 94039, Note_on_c, 0, 62, 66
1, 94040, Note_on_c, 0, 54, 44
1, 94041, Note_on_c, 0, 65, 78
1, 94051, Control_c, 0, 64, 113
1, 94066, Control_c, 0, 64, 127
1, 94069, Note_on_c, 0, 63, 14
1, 94107, Note_off_c, 0, 62, 59
1, 94108, Note_off_c, 0, 54, 56
1, 94111, Note_off_c, 0, 63, 55
1, 94114, Note_off_c, 0, 34, 52
1, 94114, Note_off_c, 0, 65, 59
1, 94117, Note_off_c, 0, 58, 54
1, 94141, Control_c, 0, 64, 113
1, 94155, Control_c, 0, 64, 94
1, 94170, Control_c, 0, 64, 76
1, 94183, Note_on_c, 0, 39, 70
1, 94183, Note_on_c, 0, 54, 71
1, 94185, Note_on_c, 0, 46, 68
1, 94185, Control_c, 0, 64, 65
1, 94186, Note_on_c, 0, 58, 66
1, 94188, Note_on_c, 0, 66, 76
1, 94190, Note_on_c, 0, 63, 75
1, 94200, Control_c, 0, 64, 56
1, 94215, Control_c, 0, 64, 47
1, 94229, Control_c, 0, 64, 38
1, 94244, Control_c, 0, 64, 0
1, 94392, Control_c, 0, 64, 42
1, 94407, Control_c, 0, 64, 53
1, 94429, Control_c, 0, 64, 59
1, 94444, Control_c, 0, 64, 62
1, 94459, Control_c, 0, 64, 64
1, 94474, Control_c, 0, 64, 67
1, 94488, Control_c, 0, 64, 70
1, 94503, Control_c, 0, 64, 73
1, 94518, Control_c, 0, 64, 76
1, 94533, Control_c, 0, 64, 80
1, 94547, Control_c, 0, 64, 85
1, 94562, Control_c, 0, 64, 90
1, 94577, Control_c, 0, 64, 93
1, 94592, Control_c, 0, 64, 94
1, 94607, Control_c, 0, 64, 95
1, 94609, Note_off_c, 0, 46, 61
1, 94611, Note_off_c, 0, 66, 59
1, 94612, Note_off_c, 0, 54, 61
1, 94621, Note_off_c, 0, 58, 62
1, 94624, Note_off_c, 0, 39, 57
1, 94633, Note_off_c, 0, 63, 61
1, 94710, Note_on_c, 0, 46, 79
1, 94712, Note_on_c, 0, 54, 76
1, 94713, Note_on_c, 0, 66, 80
1, 94714, Note_on_c, 0, 63, 60
1, 94722, Note_on_c, 0, 39, 71
1, 94724, Note_on_c, 0, 58, 59
1, 94726, Control_c, 0, 64, 94
1, 94736, Note_off_c, 0, 46, 66
1, 94741, Control_c, 0, 64, 94
1, 94752, Note_off_c, 0, 39, 64
1, 94770, Note_off_c, 0, 54, 55
1, 94770, Control_c, 0, 64, 93
1, 94772, Note_off_c, 0, 58, 56
1, 94774, Note_off_c, 0, 63, 62
1, 94800, Control_c, 0, 64, 92
1, 94815, Control_c, 0, 64, 88
1, 94830, Control_c, 0, 64, 77
1, 94834, Note_off_c, 0, 66, 53
1, 94844, Control_c, 0, 64, 64
1, 94859, Control_c, 0, 64, 42
1, 94874, Control_c, 0, 64, 0
1, 94928, Note_on_c, 0, 62, 68
1, 94934, Note_on_c, 0, 59, 64
1, 94935, Note_on_c, 0, 53, 66
1, 94936, Note_on_c, 0, 44, 76
1, 94939, Note_on_c, 0, 65, 71
1, 94941, Note_on_c, 0, 32, 74
1, 94964, Control_c, 0, 64, 47
1, 94968, Note_off_c, 0, 53, 64
1, 94978, Control_c, 0, 64, 55
1, 94986, Note_off_c, 0, 59, 63
1, 94993, Control_c, 0, 64, 54
1, 94994, Note_off_c, 0, 65, 65
1, 95005, Note_off_c, 0, 62, 62
1, 95008, Control_c, 0, 64, 45
1, 95008, Note_off_c, 0, 32, 54
1, 95009, Note_off_c, 0, 44, 57
1, 95021, Note_on_c, 0, 68, 73
1, 95023, Control_c, 0, 64, 0
1, 95101, Note_on_c, 0, 46, 76
1, 95104, Note_on_c, 0, 39, 78
1, 95109, Note_on_c, 0, 63, 77
1, 95111, Note_on_c, 0, 54, 78
1, 95114, Note_on_c, 0, 66, 73
1, 95120, Note_on_c, 0, 58, 65
1, 95125, Note_off_c, 0, 68, 55
1, 95131, Note_off_c, 0, 46, 66
1, 95135, Note_off_c, 0, 39, 64
1, 95135, Note_off_c, 0, 54, 69
1, 95149, Note_off_c, 0, 58, 67
1, 95162, Note_off_c, 0, 66, 57
1, 95163, Note_off_c, 0, 63, 62
1, 95306, Note_on_c, 0, 54, 87
1, 95311, Note_on_c, 0, 66, 73
1, 95314, Note_on_c, 0, 58, 66
1, 95318, Note_on_c, 0, 46, 71
1, 95320, Note_on_c, 0, 39, 73
1, 95325, Note_on_c, 0, 63, 50
1, 95331, Note_off_c, 0, 54, 67
1, 95339, Note_off_c, 0, 58, 67
1, 95345, Note_off_c, 0, 46, 65
1, 95346, Note_off_c, 0, 39, 65
1, 95354, Note_off_c, 0, 63, 63
1, 95362, Note_off_c, 0, 66, 63
1, 95511, Note_on_c, 0, 67, 83
1, 95515, Note_on_c, 0, 64, 67
1, 95516, Note_on_c, 0, 55, 75
1, 95516, Note_on_c, 0, 45, 70
1, 95516, Note_on_c, 0, 57, 72
1, 95526, Note_on_c, 0, 33, 55
1, 95533, Note_on_c, 0, 61, 45
1, 95540, Note_off_c, 0, 64, 69
1, 95542, Note_off_c, 0, 55, 68
1, 95545, Note_off_c, 0, 57, 63
1, 95546, Note_off_c, 0, 45, 64
1, 95551, Note_off_c, 0, 67, 63
1, 95555, Note_off_c, 0, 33, 61
1, 95561, Note_off_c, 0, 61, 53
1, 95755, Note_on_c, 0, 64, 62
1, 95755, Note_on_c, 0, 67, 72
1, 95763, Note_on_c, 0, 45, 58
1, 95763, Note_on_c, 0, 61, 62
1, 95765, Note_on_c, 0, 55, 54
1, 95768, Note_on_c, 0, 33, 57
1, 95769, Note_on_c, 0, 57, 58
1, 95890, Control_c, 0, 64, 33
1, 95905, Control_c, 0, 64, 47
1, 95926, Control_c, 0, 64, 57
1, 95941, Control_c, 0, 64, 63
1, 95956, Control_c, 0, 64, 66
1, 95971, Control_c, 0, 64, 72
1, 95986, Control_c, 0, 64, 80
1, 96001, Note_off_c, 0, 33, 60
1, 96001, Control_c, 0, 64, 89
1, 96016, Control_c, 0, 64, 100
1, 96016, Control_c, 0, 67, 20
1, 96026, Note_off_c, 0, 64, 56
1, 96031, Control_c, 0, 64, 116
1, 96031, Control_c, 0, 67, 22
1, 96044, Note_off_c, 0, 55, 60
1, 96046, Note_off_c, 0, 57, 57
1, 96046, Control_c, 0, 64, 127
1, 96049, Note_off_c, 0, 45, 62
1, 96058, Note_off_c, 0, 61, 59
1, 96061, Control_c, 0, 67, 25
1, 96075, Control_c, 0, 67, 27
1, 96090, Control_c, 0, 67, 29
1, 96105, Control_c, 0, 67, 31
1, 96119, Control_c, 0, 67, 34
1, 96134, Control_c, 0, 67, 36
1, 96149, Control_c, 0, 67, 37
1, 96164, Control_c, 0, 67, 38
1, 96208, Control_c, 0, 67, 39
1, 96254, Control_c, 0, 67, 39
1, 96269, Control_c, 0, 67, 40
1, 96297, Note_off_c, 0, 67, 54
1, 96312, Control_c, 0, 67, 42
1, 96327, Control_c, 0, 67, 46
1, 96341, Control_c, 0, 67, 50
1, 96356, Control_c, 0, 64, 107
1, 96356, Control_c, 0, 67, 53
1, 96371, Note_on_c, 0, 60, 46
1, 96371, Control_c, 0, 64, 81
1, 96371, Control_c, 0, 67, 56
1, 96380, Note_on_c, 0, 54, 45
1, 96385, Note_on_c, 0, 66, 55
1, 96386, Control_c, 0, 64, 66
1, 96386, Control_c, 0, 67, 60
1, 96388, Note_on_c, 0, 45, 35
1, 96391, Note_on_c, 0, 38, 45
1, 96395, Note_on_c, 0, 50, 40
1, 96401, Control_c, 0, 64, 54
1, 96401, Control_c, 0, 67, 64
1, 96408, Note_off_c, 0, 54, 60
1, 96415, Control_c, 0, 64, 41
1, 96415, Control_c, 0, 67, 68
1, 96429, Note_off_c, 0, 60, 50
1, 96430, Control_c, 0, 64, 30
1, 96430, Control_c, 0, 67, 72
1, 96445, Control_c, 0, 64, 0
1, 96445, Control_c, 0, 67, 76
1, 96460, Control_c, 0, 67, 79
1, 96475, Control_c, 0, 64, 34
1, 96475, Control_c, 0, 67, 82
1, 96490, Control_c, 0, 64, 43
1, 96490, Control_c, 0, 67, 84
1, 96496, Note_off_c, 0, 50, 53
1, 96499, Note_off_c, 0, 66, 60
1, 96505, Control_c, 0, 64, 54
1, 96505, Control_c, 0, 67, 86
1, 96520, Control_c, 0, 64, 62
1, 96520, Control_c, 0, 67, 89
1, 96535, Control_c, 0, 64, 67
1, 96535, Control_c, 0, 67, 92
1, 96538, Note_on_c, 0, 69, 40
1, 96549, Control_c, 0, 64, 71
1, 96549, Control_c, 0, 67, 95
1, 96564, Control_c, 0, 64, 75
1, 96564, Control_c, 0, 67, 98
1, 96579, Control_c, 0, 64, 78
1, 96594, Control_c, 0, 64, 80
1, 96594, Control_c, 0, 67, 101
1, 96609, Control_c, 0, 64, 83
1, 96623, Control_c, 0, 64, 86
1, 96638, Control_c, 0, 64, 88
1, 96638, Control_c, 0, 67, 103
1, 96653, Control_c, 0, 64, 90
1, 96704, Control_c, 0, 64, 90
1, 96719, Control_c, 0, 64, 88
1, 96723, Note_off_c, 0, 69, 35
1, 96731, Note_on_c, 0, 59, 41
1, 96731, Note_off_c, 0, 45, 37
1, 96733, Note_on_c, 0, 67, 44
1, 96734, Control_c, 0, 64, 82
1, 96746, Note_on_c, 0, 50, 32
1, 96749, Control_c, 0, 64, 73
1, 96761, Note_on_c, 0, 43, 25
1, 96764, Note_off_c, 0, 38, 32
1, 96764, Control_c, 0, 64, 63
1, 96779, Control_c, 0, 64, 52
1, 96794, Control_c, 0, 64, 34
1, 96809, Control_c, 0, 64, 0
1, 96912, Control_c, 0, 67, 101
1, 96956, Control_c, 0, 67, 98
1, 96986, Control_c, 0, 64, 33
1, 97001, Control_c, 0, 64, 44
1, 97001, Control_c, 0, 67, 96
1, 97015, Control_c, 0, 64, 52
1, 97015, Control_c, 0, 67, 94
1, 97030, Control_c, 0, 64, 58
1, 97030, Control_c, 0, 67, 93
1, 97046, Control_c, 0, 64, 62
1, 97046, Control_c, 0, 67, 91
1, 97047, Note_off_c, 0, 59, 63
1, 97061, Control_c, 0, 64, 66
1, 97061, Control_c, 0, 67, 90
1, 97076, Control_c, 0, 64, 69
1, 97076, Control_c, 0, 67, 89
1, 97091, Control_c, 0, 64, 72
1, 97091, Control_c, 0, 67, 88
1, 97105, Control_c, 0, 64, 77
1, 97105, Control_c, 0, 67, 84
1, 97120, Control_c, 0, 64, 82
1, 97120, Control_c, 0, 67, 78
1, 97135, Control_c, 0, 64, 87
1, 97135, Control_c, 0, 67, 69
1, 97150, Control_c, 0, 64, 95
1, 97150, Control_c, 0, 67, 60
1, 97165, Control_c, 0, 64, 105
1, 97165, Control_c, 0, 67, 50
1, 97179, Control_c, 0, 64, 127
1, 97179, Control_c, 0, 67, 40
1, 97194, Control_c, 0, 67, 31
1, 97196, Note_off_c, 0, 67, 55
1, 97209, Control_c, 0, 67, 22
1, 97224, Control_c, 0, 67, 0
1, 97361, Note_off_c, 0, 43, 41
1, 97378, Note_off_c, 0, 50, 47
1, 97809, Control_c, 0, 64, 87
1, 97823, Control_c, 0, 64, 65
1, 97840, Control_c, 0, 64, 43
1, 97840, Control_c, 0, 67, 21
1, 97855, Control_c, 0, 64, 0
1, 97855, Control_c, 0, 67, 28
1, 97869, Control_c, 0, 67, 34
1, 97884, Control_c, 0, 67, 43
1, 97899, Control_c, 0, 67, 54
1, 97913, Control_c, 0, 67, 68
1, 97928, Control_c, 0, 67, 83
1, 97943, Control_c, 0, 67, 93
1, 97958, Control_c, 0, 67, 104
1, 97973, Control_c, 0, 67, 111
1, 97988, Control_c, 0, 67, 120
1, 98002, Control_c, 0, 67, 127
1, 98137, Note_on_c, 0, 55, 48
1, 98144, Note_on_c, 0, 79, 52
1, 98146, Note_on_c, 0, 70, 36
1, 98150, Note_on_c, 0, 66, 26
1, 98155, Note_on_c, 0, 75, 27
1, 98175, Note_off_c, 0, 79, 60
1, 98180, Note_off_c, 0, 70, 48
1, 98193, Note_off_c, 0, 66, 54
1, 98198, Note_off_c, 0, 75, 41
1, 98225, Note_on_c, 0, 67, 43
1, 98231, Poly_aftertouch_c, 0, 63, 0
1, 98297, Note_off_c, 0, 67, 52
1, 98366, Note_on_c, 0, 71, 55
1, 98372, Note_on_c, 0, 65, 44
1, 98377, Note_on_c, 0, 62, 53
1, 98380, Note_on_c, 0, 74, 39
1, 98386, Note_off_c, 0, 71, 61
1, 98406, Note_off_c, 0, 74, 48
1, 98432, Note_off_c, 0, 62, 56
1, 98456, Note_off_c, 0, 65, 39
1, 98478, Note_on_c, 0, 67, 37
1, 98565, Note_off_c, 0, 67, 48
1, 98586, Note_on_c, 0, 79, 61
1, 98588, Note_on_c, 0, 70, 53
1, 98589, Note_on_c, 0, 75, 50
1, 98592, Note_on_c, 0, 66, 48
1, 98601, Note_on_c, 0, 63, 44
1, 98609, Note_off_c, 0, 70, 61
1, 98611, Note_off_c, 0, 75, 63
1, 98612, Note_off_c, 0, 79, 58
1, 98633, Note_off_c, 0, 63, 61
1, 98641, Note_off_c, 0, 66, 57
1, 98692, Note_on_c, 0, 67, 46
1, 98737, Note_off_c, 0, 67, 48
1, 98785, Note_on_c, 0, 71, 61
1, 98794, Note_on_c, 0, 74, 61
1, 98807, Note_on_c, 0, 65, 42
1, 98810, Note_on_c, 0, 62, 46
1, 98812, Note_off_c, 0, 71, 66
1, 98817, Note_off_c, 0, 74, 65
1, 98861, Note_off_c, 0, 62, 52
1, 98865, Note_off_c, 0, 65, 40
1, 98895, Note_on_c, 0, 67, 49
1, 98985, Note_off_c, 0, 67, 48
1, 99018, Note_on_c, 0, 86, 71
1, 99019, Note_on_c, 0, 83, 65
1, 99025, Note_on_c, 0, 79, 56
1, 99037, Note_off_c, 0, 83, 64
1, 99041, Note_off_c, 0, 86, 66
1, 99042, Note_on_c, 0, 63, 35
1, 99044, Note_on_c, 0, 66, 31
1, 99045, Note_off_c, 0, 79, 63
1, 99073, Note_off_c, 0, 63, 56
1, 99074, Note_off_c, 0, 66, 53
1, 99109, Note_on_c, 0, 83, 67
1, 99116, Note_on_c, 0, 79, 63
1, 99119, Note_on_c, 0, 86, 63
1, 99121, Note_on_c, 0, 67, 48
1, 99137, Note_off_c, 0, 79, 60
1, 99137, Note_off_c, 0, 83, 63
1, 99140, Note_off_c, 0, 86, 58
1, 99176, Note_off_c, 0, 67, 50
1, 99221, Note_on_c, 0, 86, 69
1, 99223, Note_on_c, 0, 79, 66
1, 99226, Note_on_c, 0, 83, 70
1, 99227, Note_on_c, 0, 65, 44
1, 99231, Note_on_c, 0, 62, 43
1, 99239, Note_off_c, 0, 86, 67
1, 99241, Note_off_c, 0, 79, 67
1, 99241, Note_off_c, 0, 83, 69
1, 99276, Note_off_c, 0, 62, 51
1, 99277, Note_off_c, 0, 65, 47
1, 99322, Note_on_c, 0, 67, 48
1, 99382, Note_off_c, 0, 67, 49
1, 99441, Note_on_c, 0, 75, 62
1, 99443, Note_on_c, 0, 66, 52
1, 99447, Note_on_c, 0, 63, 49
1, 99449, Note_on_c, 0, 79, 53
1, 99453, Note_on_c, 0, 70, 46
1, 99468, Note_off_c, 0, 75, 66
1, 99472, Note_off_c, 0, 79, 61
1, 99479, Note_off_c, 0, 70, 54
1, 99489, Note_off_c, 0, 63, 61
1, 99498, Note_off_c, 0, 66, 59
1, 99527, Note_on_c, 0, 75, 69
1, 99531, Note_on_c, 0, 67, 57
1, 99540, Note_on_c, 0, 70, 48
1, 99542, Note_on_c, 0, 79, 61
1, 99560, Note_off_c, 0, 79, 66
1, 99563, Note_off_c, 0, 70, 56
1, 99573, Note_off_c, 0, 75, 52
1, 99612, Note_off_c, 0, 55, 56
1, 99613, Note_off_c, 0, 67, 51
1, 99635, Note_on_c, 0, 79, 76
1, 99642, Note_on_c, 0, 74, 70
1, 99644, Note_on_c, 0, 62, 60
1, 99644, Note_on_c, 0, 71, 70
1, 99649, Note_on_c, 0, 65, 44
1, 99674, Note_off_c, 0, 74, 68
1, 99674, Note_off_c, 0, 79, 67
1, 99675, Note_off_c, 0, 71, 67
1, 99688, Note_off_c, 0, 65, 54
1, 99713, Note_off_c, 0, 62, 56
1, 99744, Note_on_c, 0, 67, 58
1, 99808, Note_off_c, 0, 67, 62
1, 99853, Note_on_c, 0, 65, 71
1, 99854, Note_on_c, 0, 73, 73
1, 99857, Note_on_c, 0, 69, 67
1, 99858, Note_on_c, 0, 55, 54
1, 99861, Note_on_c, 0, 79, 75
1, 99880, Note_on_c, 0, 61, 61
1, 99881, Note_off_c, 0, 69, 68
1, 99881, Note_off_c, 0, 79, 64
1, 99882, Note_off_c, 0, 73, 62
1, 99936, Note_off_c, 0, 61, 46
1, 99940, Note_off_c, 0, 65, 64
1, 99961, Note_on_c, 0, 67, 44
1, 100019, Note_off_c, 0, 67, 39
1, 100068, Note_on_c, 0, 64, 54
1, 100070, Note_on_c, 0, 70, 63
1, 100073, Note_on_c, 0, 72, 54
1, 100095, Note_off_c, 0, 72, 60
1, 100098, Note_off_c, 0, 70, 68
1, 100101, Note_on_c, 0, 60, 43
1, 100128, Note_off_c, 0, 60, 61
1, 100138, Note_off_c, 0, 64, 63
1, 100175, Note_on_c, 0, 67, 52
1, 100252, Note_off_c, 0, 67, 50
1, 100274, Note_on_c, 0, 61, 64
1, 100275, Note_on_c, 0, 79, 62
1, 100276, Note_on_c, 0, 73, 62
1, 100288, Note_on_c, 0, 65, 57
1, 100296, Note_on_c, 0, 69, 42
1, 100307, Note_off_c, 0, 79, 63
1, 100311, Note_off_c, 0, 73, 59
1, 100314, Note_off_c, 0, 61, 60
1, 100320, Note_off_c, 0, 65, 66
1, 100320, Note_off_c, 0, 69, 53
1, 100377, Note_on_c, 0, 67, 56
1, 100475, Note_off_c, 0, 67, 52
1, 100501, Note_on_c, 0, 70, 66
1, 100505, Note_on_c, 0, 72, 58
1, 100511, Note_on_c, 0, 64, 42
1, 100516, Note_on_c, 0, 60, 46
1, 100523, Note_off_c, 0, 72, 64
1, 100526, Note_off_c, 0, 70, 69
1, 100562, Note_off_c, 0, 64, 61
1, 100574, Note_off_c, 0, 60, 57
1, 100603, Note_on_c, 0, 67, 58
1, 100674, Note_off_c, 0, 67, 61
1, 100714, Note_on_c, 0, 82, 73
1, 100715, Note_on_c, 0, 62, 47
1, 100722, Note_on_c, 0, 86, 63
1, 100726, Note_on_c, 0, 65, 59
1, 100731, Note_on_c, 0, 79, 52
1, 100739, Note_off_c, 0, 82, 67
1, 100741, Note_off_c, 0, 86, 65
1, 100755, Note_off_c, 0, 79, 59
1, 100757, Note_off_c, 0, 65, 65
1, 100777, Note_off_c, 0, 62, 54
1, 100806, Note_on_c, 0, 86, 77
1, 100809, Note_on_c, 0, 67, 53
1, 100813, Note_on_c, 0, 82, 59
1, 100822, Note_on_c, 0, 79, 58
1, 100836, Note_off_c, 0, 82, 59
1, 100842, Note_off_c, 0, 79, 63
1, 100848, Note_off_c, 0, 86, 55
1, 100912, Note_on_c, 0, 79, 83
1, 100914, Note_on_c, 0, 82, 75
1, 100916, Note_on_c, 0, 86, 75
1, 100918, Note_on_c, 0, 64, 47
1, 100920, Note_off_c, 0, 67, 46
1, 100930, Note_on_c, 0, 60, 53
1, 100933, Note_off_c, 0, 79, 70
1, 100936, Note_off_c, 0, 86, 71
1, 100938, Note_off_c, 0, 82, 66
1, 100958, Note_off_c, 0, 64, 63
1, 100980, Note_off_c, 0, 60, 56
1, 101007, Note_on_c, 0, 67, 54
1, 101071, Note_off_c, 0, 67, 54
1, 101128, Note_on_c, 0, 69, 63
1, 101129, Note_on_c, 0, 74, 57
1, 101129, Note_on_c, 0, 79, 68
1, 101131, Note_on_c, 0, 62, 47
1, 101136, Note_on_c, 0, 65, 58
1, 101149, Note_off_c, 0, 74, 63
1, 101153, Note_off_c, 0, 69, 65
1, 101155, Note_off_c, 0, 79, 68
1, 101194, Note_off_c, 0, 65, 55
1, 101219, Note_on_c, 0, 69, 80
1, 101223, Note_on_c, 0, 67, 57
1, 101224, Note_off_c, 0, 62, 60
1, 101225, Note_on_c, 0, 79, 73
1, 101227, Note_on_c, 0, 74, 71
1, 101245, Note_off_c, 0, 69, 62
1, 101253, Note_off_c, 0, 74, 67
1, 101259, Note_off_c, 0, 79, 59
1, 101325, Note_on_c, 0, 64, 59
1, 101330, Note_off_c, 0, 67, 47
1, 101331, Note_on_c, 0, 70, 82
1, 101339, Note_on_c, 0, 60, 61
1, 101340, Note_on_c, 0, 74, 68
1, 101346, Note_on_c, 0, 79, 63
1, 101358, Note_off_c, 0, 70, 64
1, 101360, Note_off_c, 0, 74, 66
1, 101364, Note_off_c, 0, 79, 67
1, 101374, Note_off_c, 0, 64, 60
1, 101418, Note_off_c, 0, 60, 62
1, 101420, Note_off_c, 0, 55, 52
1, 101441, Note_on_c, 0, 67, 56
1, 101491, Note_off_c, 0, 67, 51
1, 101522, Note_on_c, 0, 55, 68
1, 101538, Note_on_c, 0, 69, 79
1, 101541, Note_on_c, 0, 63, 58
1, 101541, Note_on_c, 0, 75, 69
1, 101544, Note_on_c, 0, 79, 79
1, 101545, Note_on_c, 0, 59, 60
1, 101559, Note_off_c, 0, 69, 70
1, 101564, Note_off_c, 0, 75, 68
1, 101564, Note_off_c, 0, 79, 72
1, 101600, Note_off_c, 0, 59, 58
1, 101617, Note_off_c, 0, 63, 61
1, 101647, Note_on_c, 0, 67, 54
1, 101734, Note_off_c, 0, 67, 54
1, 101756, Note_on_c, 0, 58, 49
1, 101758, Note_on_c, 0, 70, 63
1, 101764, Note_on_c, 0, 63, 43
1, 101776, Note_off_c, 0, 70, 63
1, 101820, Note_off_c, 0, 63, 58
1, 101827, Note_off_c, 0, 58, 54
1, 101861, Note_on_c, 0, 67, 58
1, 101965, Note_off_c, 0, 67, 51
1, 101966, Note_on_c, 0, 63, 51
1, 101968, Note_on_c, 0, 75, 71
1, 101972, Note_on_c, 0, 69, 69
1, 101973, Note_on_c, 0, 79, 71
1, 101974, Note_on_c, 0, 59, 56
1, 101990, Note_off_c, 0, 69, 66
1, 101996, Note_off_c, 0, 75, 64
1, 101998, Note_off_c, 0, 79, 68
1, 102031, Note_off_c, 0, 59, 58
1, 102031, Note_off_c, 0, 63, 59
1, 102091, Note_on_c, 0, 67, 54
1, 102168, Note_off_c, 0, 67, 50
1, 102182, Note_on_c, 0, 70, 72
1, 102193, Note_on_c, 0, 58, 49
1, 102195, Note_on_c, 0, 63, 46
1, 102205, Note_off_c, 0, 70, 70
1, 102240, Note_off_c, 0, 58, 59
1, 102241, Note_off_c, 0, 63, 61
1, 102291, Note_on_c, 0, 67, 59
1, 102378, Note_off_c, 0, 67, 57
1, 102395, Note_on_c, 0, 59, 51
1, 102395, Note_on_c, 0, 86, 76
1, 102397, Note_on_c, 0, 63, 47
1, 102399, Note_on_c, 0, 82, 66
1, 102402, Note_on_c, 0, 79, 65
1, 102416, Note_off_c, 0, 82, 65
1, 102416, Note_off_c, 0, 86, 69
1, 102419, Note_off_c, 0, 79, 66
1, 102449, Note_off_c, 0, 63, 59
1, 102454, Note_off_c, 0, 59, 59
1, 102477, Note_on_c, 0, 79, 87
1, 102486, Note_on_c, 0, 82, 72
1, 102486, Note_on_c, 0, 86, 72
1, 102502, Note_on_c, 0, 67, 54
1, 102517, Note_off_c, 0, 82, 60
1, 102519, Note_off_c, 0, 86, 57
1, 102520, Note_off_c, 0, 79, 59
1, 102583, Note_on_c, 0, 79, 82
1, 102583, Note_on_c, 0, 86, 85
1, 102584, Note_on_c, 0, 63, 59
1, 102588, Note_off_c, 0, 67, 59
1, 102589, Note_on_c, 0, 82, 77
1, 102595, Note_on_c, 0, 58, 63
1, 102604, Note_off_c, 0, 79, 71
1, 102604, Note_off_c, 0, 86, 64
1, 102608, Note_off_c, 0, 82, 70
1, 102639, Note_off_c, 0, 63, 59
1, 102640, Note_off_c, 0, 58, 59
1, 102709, Note_on_c, 0, 67, 64
1, 102773, Note_off_c, 0, 67, 51
1, 102801, Note_on_c, 0, 69, 69
1, 102805, Note_on_c, 0, 75, 60
1, 102807, Note_on_c, 0, 63, 53
1, 102815, Note_on_c, 0, 59, 51
1, 102817, Note_on_c, 0, 79, 57
1, 102826, Note_off_c, 0, 69, 67
1, 102827, Note_off_c, 0, 75, 66
1, 102836, Note_off_c, 0, 79, 62
1, 102854, Note_off_c, 0, 59, 64
1, 102861, Note_off_c, 0, 63, 60
1, 102899, Note_on_c, 0, 69, 59
1, 102901, Note_on_c, 0, 67, 61
1, 102902, Note_on_c, 0, 75, 56
1, 102907, Note_on_c, 0, 79, 61
1, 102916, Note_off_c, 0, 69, 65
1, 102923, Note_off_c, 0, 75, 62
1, 102926, Note_off_c, 0, 79, 65
1, 102994, Note_off_c, 0, 67, 59
1, 102999, Note_on_c, 0, 63, 56
1, 102999, Note_on_c, 0, 75, 65
1, 103001, Note_on_c, 0, 70, 70
1, 103006, Note_on_c, 0, 79, 64
1, 103010, Note_on_c, 0, 58, 59
1, 103030, Note_off_c, 0, 70, 64
1, 103039, Note_off_c, 0, 75, 56
1, 103041, Note_off_c, 0, 79, 59
1, 103057, Note_off_c, 0, 55, 60
1, 103110, Note_off_c, 0, 63, 57
1, 103113, Note_off_c, 0, 58, 58
1, 103197, Note_on_c, 0, 67, 67
1, 103204, Note_on_c, 0, 55, 59
1, 103213, Note_on_c, 0, 70, 67
1, 103218, Note_on_c, 0, 79, 59
1, 103224, Note_on_c, 0, 75, 50
1, 103243, Note_off_c, 0, 79, 57
1, 103258, Note_off_c, 0, 67, 52
1, 103261, Note_off_c, 0, 55, 62
1, 103265, Note_off_c, 0, 75, 53
1, 103271, Note_off_c, 0, 70, 58
1, 103294, Note_on_c, 0, 63, 54
1, 103312, Note_on_c, 0, 60, 43
1, 103343, Note_off_c, 0, 60, 61
1, 103369, Note_off_c, 0, 63, 61
1, 103408, Note_on_c, 0, 65, 76
1, 103409, Note_on_c, 0, 53, 68
1, 103423, Note_on_c, 0, 68, 68
1, 103427, Note_on_c, 0, 72, 66
1, 103438, Note_off_c, 0, 53, 66
1, 103446, Note_off_c, 0, 65, 63
1, 103448, Note_off_c, 0, 68, 69
1, 103456, Note_off_c, 0, 72, 59
1, 103489, Note_on_c, 0, 62, 44
1, 103501, Note_on_c, 0, 58, 72
1, 103519, Note_off_c, 0, 62, 63
1, 103542, Note_off_c, 0, 58, 64
1, 103608, Note_on_c, 0, 63, 65
1, 103616, Note_on_c, 0, 51, 64
1, 103632, Note_on_c, 0, 75, 48
1, 103632, Note_on_c, 0, 70, 62
1, 103638, Control_c, 0, 67, 124
1, 103639, Note_on_c, 0, 79, 47
1, 103640, Note_off_c, 0, 63, 64
1, 103653, Control_c, 0, 67, 122
1, 103655, Note_off_c, 0, 51, 60
1, 103665, Note_off_c, 0, 79, 51
1, 103667, Control_c, 0, 67, 120
1, 103668, Note_off_c, 0, 70, 60
1, 103682, Control_c, 0, 67, 117
1, 103697, Control_c, 0, 67, 115
1, 103714, Note_on_c, 0, 56, 67
1, 103716, Note_off_c, 0, 75, 34
1, 103727, Control_c, 0, 67, 112
1, 103734, Poly_aftertouch_c, 0, 60, 0
1, 103744, Note_off_c, 0, 56, 65
1, 103809, Note_on_c, 0, 60, 65
1, 103814, Note_on_c, 0, 48, 57
1, 103820, Note_on_c, 0, 68, 61
1, 103823, Note_on_c, 0, 72, 54
1, 103843, Note_off_c, 0, 60, 65
1, 103844, Note_off_c, 0, 72, 57
1, 103844, Note_on_c, 0, 50, 29
1, 103848, Note_off_c, 0, 68, 66
1, 103849, Note_off_c, 0, 48, 65
1, 103882, Note_off_c, 0, 50, 32
1, 103897, Note_on_c, 0, 56, 71
1, 103909, Note_on_c, 0, 53, 64
1, 103953, Note_off_c, 0, 53, 60
1, 103962, Note_off_c, 0, 56, 62
1, 104023, Note_on_c, 0, 58, 71
1, 104023, Note_on_c, 0, 63, 64
1, 104030, Note_on_c, 0, 46, 61
1, 104031, Note_on_c, 0, 60, 51
1, 104044, Note_off_c, 0, 63, 65
1, 104051, Note_off_c, 0, 58, 65
1, 104052, Note_off_c, 0, 60, 63
1, 104055, Note_on_c, 0, 55, 41
1, 104057, Note_off_c, 0, 46, 65
1, 104088, Note_off_c, 0, 55, 33
1, 104106, Note_on_c, 0, 65, 71
1, 104112, Note_on_c, 0, 51, 68
1, 104124, Note_on_c, 0, 62, 48
1, 104127, Control_c, 0, 67, 110
1, 104149, Note_off_c, 0, 51, 65
1, 104153, Note_off_c, 0, 62, 60
1, 104178, Note_off_c, 0, 65, 62
1, 104208, Control_c, 0, 67, 108
1, 104211, Note_on_c, 0, 55, 71
1, 104223, Control_c, 0, 67, 103
1, 104224, Note_on_c, 0, 67, 67
1, 104227, Note_on_c, 0, 43, 65
1, 104228, Note_on_c, 0, 63, 50
1, 104239, Control_c, 0, 67, 97
1, 104247, Note_off_c, 0, 67, 67
1, 104250, Note_off_c, 0, 55, 61
1, 104252, Note_off_c, 0, 63, 59
1, 104254, Control_c, 0, 67, 92
1, 104259, Note_off_c, 0, 43, 64
1, 104269, Control_c, 0, 67, 87
1, 104283, Control_c, 0, 67, 83
1, 104298, Control_c, 0, 67, 81
1, 104302, Note_on_c, 0, 51, 63
1, 104313, Note_on_c, 0, 67, 64
1, 104313, Note_on_c, 0, 70, 84
1, 104313, Control_c, 0, 67, 81
1, 104324, Note_on_c, 0, 48, 59
1, 104328, Control_c, 0, 67, 80
1, 104342, Note_off_c, 0, 67, 67
1, 104343, Control_c, 0, 67, 80
1, 104349, Note_off_c, 0, 70, 61
1, 104357, Control_c, 0, 67, 79
1, 104361, Note_off_c, 0, 48, 64
1, 104372, Control_c, 0, 67, 76
1, 104374, Note_off_c, 0, 51, 56
1, 104387, Control_c, 0, 67, 71
1, 104402, Control_c, 0, 67, 64
1, 104403, Note_on_c, 0, 53, 78
1, 104404, Note_on_c, 0, 41, 76
1, 104409, Note_on_c, 0, 74, 76
1, 104416, Note_on_c, 0, 70, 47
1, 104416, Control_c, 0, 67, 57
1, 104431, Note_off_c, 0, 74, 70
1, 104431, Control_c, 0, 67, 47
1, 104437, Note_off_c, 0, 70, 55
1, 104445, Note_off_c, 0, 41, 60
1, 104446, Note_off_c, 0, 53, 59
1, 104446, Control_c, 0, 67, 37
1, 104461, Control_c, 0, 67, 27
1, 104476, Control_c, 0, 67, 0
1, 104492, Note_on_c, 0, 46, 62
1, 104498, Note_on_c, 0, 77, 70
1, 104501, Note_on_c, 0, 50, 26
1, 104505, Note_on_c, 0, 74, 65
1, 104526, Note_off_c, 0, 74, 61
1, 104532, Note_off_c, 0, 46, 65
1, 104532, Note_off_c, 0, 77, 57
1, 104541, Note_off_c, 0, 50, 40
1, 104595, Note_on_c, 0, 51, 44
1, 104597, Note_on_c, 0, 75, 73
1, 104599, Note_on_c, 0, 39, 64
1, 104605, Note_on_c, 0, 79, 72
1, 104625, Note_off_c, 0, 75, 63
1, 104634, Note_off_c, 0, 79, 64
1, 104640, Note_off_c, 0, 51, 54
1, 104646, Note_on_c, 0, 48, 62
1, 104668, Note_off_c, 0, 39, 57
1, 104707, Note_on_c, 0, 44, 59
1, 104714, Note_off_c, 0, 48, 60
1, 104757, Note_off_c, 0, 44, 64
1, 104800, Note_on_c, 0, 70, 68
1, 104801, Note_on_c, 0, 50, 68
1, 104801, Note_on_c, 0, 82, 69
1, 104813, Note_on_c, 0, 38, 58
1, 104817, Poly_aftertouch_c, 0, 77, 127
1, 104824, Note_off_c, 0, 70, 65
1, 104824, Note_off_c, 0, 82, 69
1, 104839, Poly_aftertouch_c, 0, 77, 0
1, 104842, Note_off_c, 0, 50, 50
1, 104845, Note_off_c, 0, 38, 64
1, 104869, Note_on_c, 0, 46, 61
1, 104940, Note_off_c, 0, 46, 61
1, 104992, Note_on_c, 0, 36, 67
1, 104998, Note_on_c, 0, 48, 65
1, 105000, Note_on_c, 0, 67, 72
1, 105021, Note_off_c, 0, 36, 60
1, 105022, Note_on_c, 0, 79, 42
1, 105025, Note_off_c, 0, 67, 68
1, 105044, Note_off_c, 0, 48, 59
1, 105054, Note_off_c, 0, 79, 46
1, 105076, Control_c, 0, 67, 19
1, 105094, Note_on_c, 0, 39, 57
1, 105105, Control_c, 0, 67, 21
1, 105138, Note_off_c, 0, 39, 60
1, 105165, Control_c, 0, 67, 23
1, 105209, Note_on_c, 0, 67, 65
1, 105211, Note_on_c, 0, 55, 62
1, 105220, Note_on_c, 0, 63, 48
1, 105221, Note_on_c, 0, 34, 51
1, 105224, Control_c, 0, 67, 25
1, 105228, Note_off_c, 0, 67, 65
1, 105230, Note_on_c, 0, 46, 44
1, 105232, Note_off_c, 0, 55, 64
1, 105245, Note_off_c, 0, 63, 55
1, 105261, Note_off_c, 0, 46, 60
1, 105265, Note_off_c, 0, 34, 56
1, 105315, Note_on_c, 0, 39, 48
1, 105358, Control_c, 0, 67, 27
1, 105367, Note_off_c, 0, 39, 57
1, 105402, Control_c, 0, 67, 29
1, 105420, Note_on_c, 0, 33, 65
1, 105421, Note_on_c, 0, 60, 56
1, 105427, Note_on_c, 0, 45, 61
1, 105430, Note_on_c, 0, 54, 51
1, 105431, Control_c, 0, 67, 33
1, 105446, Control_c, 0, 67, 34
1, 105455, Note_off_c, 0, 54, 60
1, 105458, Note_off_c, 0, 60, 62
1, 105461, Control_c, 0, 67, 35
1, 105474, Note_off_c, 0, 33, 58
1, 105474, Note_off_c, 0, 45, 62
1, 105491, Control_c, 0, 67, 35
1, 105533, Note_on_c, 0, 38, 53
1, 105574, Note_off_c, 0, 38, 63
1, 105628, Note_on_c, 0, 55, 69
1, 105635, Note_on_c, 0, 34, 58
1, 105635, Note_on_c, 0, 46, 58
1, 105635, Note_on_c, 0, 63, 57
1, 105647, Note_on_c, 0, 67, 45
1, 105663, Note_off_c, 0, 55, 67
1, 105672, Note_off_c, 0, 63, 64
1, 105678, Note_off_c, 0, 67, 54
1, 105695, Note_off_c, 0, 34, 59
1, 105720, Control_c, 0, 67, 36
1, 105741, Note_off_c, 0, 46, 54
1, 105751, Note_on_c, 0, 39, 52
1, 105815, Note_off_c, 0, 39, 53
1, 105853, Note_on_c, 0, 60, 67
1, 105857, Note_on_c, 0, 32, 56
1, 105857, Note_on_c, 0, 44, 59
1, 105857, Note_on_c, 0, 53, 55
1, 105881, Note_off_c, 0, 53, 58
1, 105881, Note_off_c, 0, 60, 68
1, 105893, Note_off_c, 0, 32, 62
1, 105904, Note_off_c, 0, 44, 61
1, 105947, Note_on_c, 0, 38, 60
1, 105997, Note_off_c, 0, 38, 63
1, 106060, Note_on_c, 0, 63, 61
1, 106062, Control_c, 0, 67, 35
1, 106064, Note_on_c, 0, 60, 64
1, 106076, Note_on_c, 0, 43, 55
1, 106092, Control_c, 0, 67, 35
1, 106094, Note_off_c, 0, 60, 64
1, 106107, Control_c, 0, 67, 34
1, 106129, Note_off_c, 0, 43, 60
1, 106130, Note_off_c, 0, 63, 47
1, 106157, Note_on_c, 0, 41, 53
1, 106157, Note_on_c, 0, 62, 55
1, 106171, Note_on_c, 0, 65, 43
1, 106204, Note_off_c, 0, 41, 57
1, 106211, Note_off_c, 0, 62, 54
1, 106240, Control_c, 0, 67, 35
1, 106255, Control_c, 0, 67, 35
1, 106256, Note_on_c, 0, 63, 56
1, 106258, Note_on_c, 0, 67, 66
1, 106270, Control_c, 0, 67, 36
1, 106277, Note_on_c, 0, 39, 50
1, 106277, Note_off_c, 0, 65, 27
1, 106285, Note_off_c, 0, 67, 69
1, 106285, Control_c, 0, 67, 36
1, 106289, Note_off_c, 0, 63, 66
1, 106307, Note_off_c, 0, 39, 55
1, 106315, Control_c, 0, 67, 37
1, 106329, Control_c, 0, 67, 37
1, 106359, Control_c, 0, 67, 38
1, 106363, Note_on_c, 0, 48, 54
1, 106373, Control_c, 0, 67, 39
1, 106388, Control_c, 0, 67, 44
1, 106410, Control_c, 0, 67, 50
1, 106419, Note_off_c, 0, 48, 58
1, 106425, Control_c, 0, 67, 54
1, 106440, Control_c, 0, 67, 58
1, 106455, Control_c, 0, 67, 62
1, 106470, Control_c, 0, 67, 65
1, 106482, Note_on_c, 0, 58, 56
1, 106485, Control_c, 0, 67, 68
1, 106486, Note_on_c, 0, 46, 50
1, 106487, Note_on_c, 0, 70, 47
1, 106500, Control_c, 0, 67, 71
1, 106506, Note_off_c, 0, 58, 62
1, 106510, Note_off_c, 0, 70, 59
1, 106515, Control_c, 0, 67, 74
1, 106529, Control_c, 0, 67, 75
1, 106533, Note_off_c, 0, 46, 58
1, 106544, Control_c, 0, 67, 77
1, 106559, Control_c, 0, 67, 77
1, 106570, Note_on_c, 0, 38, 56
1, 106603, Note_off_c, 0, 38, 63
1, 106698, Note_on_c, 0, 67, 65
1, 106699, Note_on_c, 0, 55, 59
1, 106703, Note_on_c, 0, 36, 52
1, 106706, Note_on_c, 0, 63, 50
1, 106723, Control_c, 0, 64, 29
1, 106727, Note_off_c, 0, 55, 63
1, 106732, Note_off_c, 0, 67, 61
1, 106732, Note_off_c, 0, 63, 62
1, 106738, Control_c, 0, 67, 77
1, 106745, Note_off_c, 0, 36, 60
1, 106752, Control_c, 0, 64, 0
1, 106752, Control_c, 0, 67, 76
1, 106782, Control_c, 0, 67, 76
1, 106804, Note_on_c, 0, 24, 61
1, 106811, Control_c, 0, 67, 75
1, 106841, Control_c, 0, 67, 75
1, 106856, Control_c, 0, 67, 74
1, 106875, Note_off_c, 0, 24, 56
1, 106900, Control_c, 0, 67, 74
1, 106911, Note_on_c, 0, 58, 62
1, 106914, Note_on_c, 0, 65, 57
1, 106915, Control_c, 0, 67, 73
1, 106917, Note_on_c, 0, 53, 48
1, 106920, Note_on_c, 0, 26, 57
1, 106930, Control_c, 0, 67, 72
1, 106945, Note_off_c, 0, 53, 55
1, 106947, Note_off_c, 0, 58, 61
1, 106958, Note_off_c, 0, 26, 64
1, 106997, Note_off_c, 0, 65, 30
1, 107004, Note_on_c, 0, 63, 61
1, 107011, Note_on_c, 0, 38, 51
1, 107046, Note_off_c, 0, 63, 62
1, 107077, Note_off_c, 0, 38, 62
1, 107110, Note_on_c, 0, 39, 62
1, 107114, Note_on_c, 0, 55, 60
1, 107117, Note_on_c, 0, 62, 68
1, 107120, Note_on_c, 0, 58, 62
1, 107142, Note_off_c, 0, 39, 63
1, 107142, Note_off_c, 0, 55, 59
1, 107176, Note_off_c, 0, 58, 51
1, 107181, Note_off_c, 0, 62, 60
1, 107206, Note_on_c, 0, 27, 73
1, 107218, Note_on_c, 0, 60, 69
1, 107274, Note_off_c, 0, 60, 62
1, 107283, Note_off_c, 0, 27, 61
1, 107293, Control_c, 0, 67, 72
1, 107308, Control_c, 0, 67, 71
1, 107317, Note_on_c, 0, 50, 60
1, 107317, Note_on_c, 0, 58, 71
1, 107322, Note_on_c, 0, 29, 62
1, 107322, Control_c, 0, 67, 70
1, 107331, Note_on_c, 0, 56, 50
1, 107337, Control_c, 0, 67, 69
1, 107339, Note_off_c, 0, 50, 61
1, 107349, Note_off_c, 0, 58, 66
1, 107352, Control_c, 0, 67, 68
1, 107355, Note_off_c, 0, 56, 58
1, 107367, Control_c, 0, 67, 67
1, 107374, Note_off_c, 0, 29, 64
1, 107382, Control_c, 0, 64, 29
1, 107397, Control_c, 0, 64, 0
1, 107424, Note_on_c, 0, 41, 52
1, 107471, Control_c, 0, 67, 66
1, 107486, Control_c, 0, 67, 65
1, 107499, Note_off_c, 0, 41, 60
1, 107501, Control_c, 0, 67, 63
1, 107516, Control_c, 0, 64, 36
1, 107516, Control_c, 0, 67, 59
1, 107524, Note_on_c, 0, 42, 70
1, 107528, Note_on_c, 0, 70, 72
1, 107531, Control_c, 0, 64, 48
1, 107531, Control_c, 0, 67, 52
1, 107533, Note_on_c, 0, 58, 70
1, 107537, Note_on_c, 0, 62, 63
1, 107546, Control_c, 0, 64, 54
1, 107546, Control_c, 0, 67, 41
1, 107557, Note_off_c, 0, 62, 61
1, 107558, Note_off_c, 0, 58, 67
1, 107560, Control_c, 0, 67, 27
1, 107561, Note_off_c, 0, 70, 64
1, 107564, Note_off_c, 0, 42, 64
1, 107575, Control_c, 0, 64, 52
1, 107575, Control_c, 0, 67, 0
1, 107590, Control_c, 0, 64, 50
1, 107605, Control_c, 0, 64, 48
1, 107620, Control_c, 0, 64, 45
1, 107623, Note_on_c, 0, 30, 70
1, 107634, Control_c, 0, 64, 43
1, 107649, Control_c, 0, 64, 41
1, 107664, Control_c, 0, 64, 39
1, 107668, Note_off_c, 0, 30, 61
1, 107679, Control_c, 0, 64, 38
1, 107694, Control_c, 0, 64, 37
1, 107737, Note_on_c, 0, 57, 70
1, 107738, Control_c, 0, 64, 37
1, 107746, Note_on_c, 0, 69, 66
1, 107747, Note_on_c, 0, 31, 69
1, 107750, Note_on_c, 0, 61, 52
1, 107752, Control_c, 0, 64, 36
1, 107767, Control_c, 0, 64, 36
1, 107776, Note_off_c, 0, 57, 60
1, 107781, Note_off_c, 0, 61, 56
1, 107782, Control_c, 0, 64, 34
1, 107793, Note_off_c, 0, 31, 61
1, 107797, Control_c, 0, 64, 33
1, 107806, Note_off_c, 0, 69, 49
1, 107812, Control_c, 0, 64, 32
1, 107826, Control_c, 0, 64, 30
1, 107835, Note_on_c, 0, 67, 68
1, 107841, Control_c, 0, 64, 0
1, 107849, Note_on_c, 0, 43, 58
1, 107863, Note_off_c, 0, 67, 65
1, 107895, Note_off_c, 0, 43, 63
1, 107941, Note_on_c, 0, 45, 66
1, 107942, Note_on_c, 0, 60, 74
1, 107951, Note_on_c, 0, 53, 65
1, 107954, Note_on_c, 0, 65, 72
1, 107967, Control_c, 0, 64, 40
1, 107968, Note_off_c, 0, 45, 65
1, 107982, Control_c, 0, 64, 51
1, 107983, Note_off_c, 0, 53, 64
1, 107995, Note_off_c, 0, 60, 61
1, 107997, Note_off_c, 0, 65, 64
1, 107997, Control_c, 0, 64, 55
1, 108012, Control_c, 0, 64, 55
1, 108026, Control_c, 0, 64, 51
1, 108030, Note_on_c, 0, 33, 67
1, 108040, Note_on_c, 0, 63, 81
1, 108041, Control_c, 0, 64, 43
1, 108056, Control_c, 0, 64, 0
1, 108101, Note_off_c, 0, 33, 64
1, 108113, Note_off_c, 0, 63, 62
1, 108139, Note_on_c, 0, 62, 76
1, 108141, Note_on_c, 0, 34, 69
1, 108145, Control_c, 0, 64, 37
1, 108146, Note_on_c, 0, 58, 62
1, 108160, Control_c, 0, 64, 49
1, 108162, Note_off_c, 0, 62, 68
1, 108170, Note_off_c, 0, 58, 65
1, 108175, Control_c, 0, 64, 56
1, 108190, Control_c, 0, 64, 59
1, 108205, Note_off_c, 0, 34, 62
1, 108235, Control_c, 0, 64, 58
1, 108239, Note_on_c, 0, 46, 76
1, 108249, Control_c, 0, 64, 56
1, 108264, Control_c, 0, 64, 51
1, 108279, Control_c, 0, 64, 45
1, 108294, Control_c, 0, 64, 40
1, 108300, Note_off_c, 0, 46, 63
1, 108309, Control_c, 0, 64, 39
1, 108324, Control_c, 0, 64, 42
1, 108339, Control_c, 0, 64, 46
1, 108348, Note_on_c, 0, 48, 76
1, 108348, Note_on_c, 0, 70, 79
1, 108353, Note_on_c, 0, 74, 84
1, 108354, Control_c, 0, 64, 51
1, 108355, Note_on_c, 0, 63, 78
1, 108369, Control_c, 0, 64, 55
1, 108375, Note_off_c, 0, 63, 71
1, 108383, Control_c, 0, 64, 58
1, 108384, Note_off_c, 0, 48, 66
1, 108386, Note_off_c, 0, 70, 59
1, 108386, Note_off_c, 0, 74, 61
1, 108398, Control_c, 0, 64, 59
1, 108413, Control_c, 0, 64, 58
1, 108428, Control_c, 0, 64, 55
1, 108443, Control_c, 0, 64, 49
1, 108457, Control_c, 0, 64, 40
1, 108458, Note_on_c, 0, 36, 66
1, 108472, Control_c, 0, 64, 33
1, 108487, Control_c, 0, 64, 30
1, 108502, Control_c, 0, 64, 33
1, 108517, Control_c, 0, 64, 39
1, 108527, Note_off_c, 0, 36, 58
1, 108531, Control_c, 0, 64, 45
1, 108546, Control_c, 0, 64, 51
1, 108559, Note_on_c, 0, 66, 76
1, 108561, Control_c, 0, 64, 54
1, 108562, Note_on_c, 0, 72, 74
1, 108565, Note_on_c, 0, 60, 63
1, 108565, Note_on_c, 0, 38, 61
1, 108575, Control_c, 0, 64, 54
1, 108590, Control_c, 0, 64, 54
1, 108594, Note_off_c, 0, 60, 68
1, 108605, Control_c, 0, 64, 53
1, 108606, Note_off_c, 0, 72, 57
1, 108611, Note_off_c, 0, 38, 64
1, 108620, Note_off_c, 0, 66, 61
1, 108620, Control_c, 0, 64, 52
1, 108635, Control_c, 0, 64, 50
1, 108657, Control_c, 0, 64, 47
1, 108664, Note_on_c, 0, 50, 63
1, 108664, Note_on_c, 0, 70, 79
1, 108672, Control_c, 0, 64, 45
1, 108687, Control_c, 0, 64, 44
1, 108702, Control_c, 0, 64, 46
1, 108717, Control_c, 0, 64, 49
1, 108720, Note_off_c, 0, 50, 60
1, 108729, Note_off_c, 0, 70, 64
1, 108731, Control_c, 0, 64, 52
1, 108746, Control_c, 0, 64, 55
1, 108761, Control_c, 0, 64, 57
1, 108765, Note_on_c, 0, 52, 68
1, 108770, Note_on_c, 0, 61, 71
1, 108770, Note_on_c, 0, 69, 81
1, 108775, Control_c, 0, 64, 56
1, 108790, Control_c, 0, 64, 54
1, 108793, Note_off_c, 0, 52, 65
1, 108795, Note_off_c, 0, 61, 70
1, 108805, Control_c, 0, 64, 50
1, 108820, Control_c, 0, 64, 44
1, 108835, Control_c, 0, 64, 37
1, 108849, Control_c, 0, 64, 29
1, 108852, Note_off_c, 0, 69, 38
1, 108856, Note_on_c, 0, 67, 82
1, 108863, Note_on_c, 0, 40, 70
1, 108864, Control_c, 0, 64, 0
1, 108908, Control_c, 0, 64, 33
1, 108917, Note_off_c, 0, 67, 64
1, 108923, Control_c, 0, 64, 42
1, 108934, Note_off_c, 0, 40, 62
1, 108938, Control_c, 0, 64, 51
1, 108953, Control_c, 0, 64, 57
1, 108967, Note_on_c, 0, 65, 94
1, 108968, Control_c, 0, 64, 60
1, 108974, Note_on_c, 0, 62, 76
1, 108975, Note_on_c, 0, 41, 53
1, 108983, Control_c, 0, 64, 62
1, 108995, Note_off_c, 0, 62, 70
1, 108998, Control_c, 0, 64, 64
1, 109009, Note_off_c, 0, 65, 65
1, 109013, Control_c, 0, 64, 66
1, 109022, Note_off_c, 0, 41, 61
1, 109028, Control_c, 0, 64, 68
1, 109043, Control_c, 0, 64, 71
1, 109049, Note_on_c, 0, 53, 58
1, 109058, Control_c, 0, 64, 75
1, 109072, Control_c, 0, 64, 77
1, 109087, Control_c, 0, 64, 78
1, 109090, Note_off_c, 0, 53, 61
1, 109102, Control_c, 0, 64, 77
1, 109117, Control_c, 0, 64, 69
1, 109132, Control_c, 0, 64, 60
1, 109147, Control_c, 0, 64, 50
1, 109162, Control_c, 0, 64, 43
1, 109177, Control_c, 0, 64, 43
1, 109191, Control_c, 0, 64, 47
1, 109194, Note_on_c, 0, 43, 65
1, 109197, Note_on_c, 0, 50, 64
1, 109205, Note_on_c, 0, 81, 97
1, 109206, Control_c, 0, 64, 54
1, 109209, Note_on_c, 0, 74, 90
1, 109212, Note_on_c, 0, 69, 80
1, 109217, Note_on_c, 0, 58, 73
1, 109221, Control_c, 0, 64, 61
1, 109236, Note_off_c, 0, 74, 65
1, 109236, Control_c, 0, 64, 66
1, 109242, Note_off_c, 0, 69, 65
1, 109251, Control_c, 0, 64, 70
1, 109257, Note_off_c, 0, 43, 58
1, 109265, Note_off_c, 0, 50, 61
1, 109266, Control_c, 0, 64, 75
1, 109272, Note_off_c, 0, 81, 58
1, 109280, Control_c, 0, 64, 78
1, 109289, Note_off_c, 0, 58, 63
1, 109295, Control_c, 0, 64, 82
1, 109310, Control_c, 0, 64, 87
1, 109324, Control_c, 0, 64, 88
1, 109339, Control_c, 0, 64, 87
1, 109354, Control_c, 0, 64, 79
1, 109369, Control_c, 0, 64, 67
1, 109384, Control_c, 0, 64, 58
1, 109406, Control_c, 0, 64, 53
1, 109419, Note_on_c, 0, 79, 91
1, 109421, Control_c, 0, 64, 54
1, 109425, Note_on_c, 0, 45, 66
1, 109425, Note_on_c, 0, 60, 78
1, 109427, Note_on_c, 0, 67, 73
1, 109429, Note_on_c, 0, 72, 70
1, 109431, Note_on_c, 0, 51, 72
1, 109436, Control_c, 0, 64, 58
1, 109443, Note_on_c, 0, 47, 53
1, 109445, Note_off_c, 0, 72, 67
1, 109449, Note_off_c, 0, 67, 71
1, 109451, Control_c, 0, 64, 61
1, 109451, Note_off_c, 0, 79, 64
1, 109464, Note_off_c, 0, 45, 63
1, 109466, Control_c, 0, 64, 65
1, 109471, Note_off_c, 0, 47, 57
1, 109480, Control_c, 0, 64, 70
1, 109486, Note_off_c, 0, 51, 63
1, 109495, Control_c, 0, 64, 75
1, 109510, Control_c, 0, 64, 78
1, 109516, Note_off_c, 0, 60, 64
1, 109522, Note_on_c, 0, 77, 88
1, 109524, Control_c, 0, 64, 80
1, 109532, Note_on_c, 0, 65, 67
1, 109539, Control_c, 0, 64, 80
1, 109551, Note_off_c, 0, 65, 66
1, 109554, Control_c, 0, 64, 72
1, 109568, Note_off_c, 0, 77, 62
1, 109569, Control_c, 0, 64, 61
1, 109584, Control_c, 0, 64, 46
1, 109598, Control_c, 0, 64, 37
1, 109605, Note_on_c, 0, 55, 70
1, 109610, Note_on_c, 0, 46, 46
1, 109613, Control_c, 0, 64, 41
1, 109617, Note_on_c, 0, 61, 77
1, 109628, Control_c, 0, 64, 50
1, 109631, Note_off_c, 0, 55, 68
1, 109635, Note_on_c, 0, 70, 80
1, 109638, Note_on_c, 0, 75, 80
1, 109639, Note_on_c, 0, 63, 77
1, 109640, Note_off_c, 0, 46, 57
1, 109643, Control_c, 0, 64, 58
1, 109658, Control_c, 0, 64, 64
1, 109660, Note_off_c, 0, 70, 63
1, 109661, Note_off_c, 0, 63, 71
1, 109669, Note_off_c, 0, 61, 63
1, 109672, Control_c, 0, 64, 71
1, 109683, Note_off_c, 0, 75, 65
1, 109687, Control_c, 0, 64, 79
1, 109702, Control_c, 0, 64, 89
1, 109717, Control_c, 0, 64, 99
1, 109722, Note_on_c, 0, 74, 92
1, 109731, Control_c, 0, 64, 101
1, 109735, Note_on_c, 0, 62, 72
1, 109740, Note_on_c, 0, 61, 51
1, 109746, Control_c, 0, 64, 96
1, 109758, Note_off_c, 0, 74, 66
1, 109761, Control_c, 0, 64, 77
1, 109776, Control_c, 0, 64, 62
1, 109785, Note_off_c, 0, 61, 53
1, 109791, Control_c, 0, 64, 48
1, 109806, Note_off_c, 0, 62, 59
1, 109806, Control_c, 0, 64, 47
1, 109821, Control_c, 0, 64, 55
1, 109832, Note_on_c, 0, 55, 72
1, 109834, Note_on_c, 0, 63, 88
1, 109836, Control_c, 0, 64, 62
1, 109839, Note_on_c, 0, 73, 91
1, 109846, Note_on_c, 0, 58, 72
1, 109846, Note_on_c, 0, 67, 66
1, 109851, Control_c, 0, 64, 68
1, 109854, Note_off_c, 0, 63, 71
1, 109857, Note_on_c, 0, 62, 21
1, 109858, Note_off_c, 0, 55, 68
1, 109866, Control_c, 0, 64, 78
1, 109870, Note_off_c, 0, 58, 67
1, 109870, Note_off_c, 0, 67, 69
1, 109871, Note_off_c, 0, 73, 66
1, 109881, Control_c, 0, 64, 87
1, 109895, Control_c, 0, 64, 93
1, 109901, Note_off_c, 0, 62, 27
1, 109910, Control_c, 0, 64, 95
1, 109925, Control_c, 0, 64, 97
1, 109955, Control_c, 0, 64, 100
1, 109999, Control_c, 0, 64, 102
1, 110154, Control_c, 0, 64, 97
1, 110169, Control_c, 0, 64, 79
1, 110172, Note_on_c, 0, 26, 92
1, 110172, Note_on_c, 0, 38, 93
1, 110184, Control_c, 0, 64, 62
1, 110199, Control_c, 0, 64, 41
1, 110214, Control_c, 0, 64, 0
1, 110318, Control_c, 0, 64, 31
1, 110411, Note_off_c, 0, 38, 57
1, 110421, Note_on_c, 0, 70, 80
1, 110422, Note_on_c, 0, 67, 78
1, 110422, Note_on_c, 0, 74, 82
1, 110427, Note_on_c, 0, 36, 65
1, 110436, Control_c, 0, 64, 0
1, 110443, Note_off_c, 0, 70, 69
1, 110447, Note_off_c, 0, 67, 65
1, 110459, Note_off_c, 0, 74, 63
1, 110477, Note_off_c, 0, 36, 61
1, 110521, Note_on_c, 0, 70, 76
1, 110524, Note_on_c, 0, 38, 68
1, 110526, Note_on_c, 0, 67, 63
1, 110526, Note_on_c, 0, 74, 69
1, 110545, Note_off_c, 0, 67, 66
1, 110545, Note_off_c, 0, 70, 66
1, 110551, Note_off_c, 0, 74, 65
1, 110605, Note_on_c, 0, 74, 90
1, 110607, Note_off_c, 0, 38, 57
1, 110610, Note_on_c, 0, 67, 82
1, 110613, Control_c, 0, 67, 19
1, 110616, Note_on_c, 0, 70, 83
1, 110625, Note_on_c, 0, 34, 59
1, 110627, Note_off_c, 0, 74, 67
1, 110630, Note_off_c, 0, 67, 73
1, 110636, Note_off_c, 0, 70, 72
1, 110643, Control_c, 0, 67, 22
1, 110713, Note_off_c, 0, 34, 55
1, 110723, Note_on_c, 0, 38, 64
1, 110733, Control_c, 0, 67, 24
1, 110777, Control_c, 0, 67, 26
1, 110800, Note_off_c, 0, 38, 53
1, 110830, Note_on_c, 0, 33, 66
1, 110837, Note_on_c, 0, 60, 69
1, 110841, Note_on_c, 0, 63, 65
1, 110843, Note_on_c, 0, 67, 60
1, 110847, Note_on_c, 0, 65, 64
1, 110858, Note_off_c, 0, 60, 68
1, 110861, Note_off_c, 0, 63, 64
1, 110863, Note_off_c, 0, 67, 63
1, 110869, Note_off_c, 0, 65, 61
1, 110883, Note_off_c, 0, 33, 60
1, 110925, Note_on_c, 0, 60, 75
1, 110926, Note_on_c, 0, 67, 84
1, 110929, Note_on_c, 0, 38, 67
1, 110932, Note_on_c, 0, 63, 70
1, 110959, Note_off_c, 0, 63, 68
1, 110966, Note_off_c, 0, 60, 64
1, 110968, Note_off_c, 0, 67, 64
1, 111007, Control_c, 0, 67, 28
1, 111025, Note_on_c, 0, 67, 83
1, 111028, Note_on_c, 0, 31, 69
1, 111031, Note_on_c, 0, 60, 78
1, 111032, Note_off_c, 0, 38, 52
1, 111034, Note_on_c, 0, 63, 83
1, 111048, Note_off_c, 0, 67, 66
1, 111052, Control_c, 0, 67, 30
1, 111052, Note_off_c, 0, 63, 71
1, 111053, Note_off_c, 0, 60, 70
1, 111087, Note_off_c, 0, 31, 62
1, 111126, Note_on_c, 0, 38, 62
1, 111185, Control_c, 0, 67, 32
1, 111200, Control_c, 0, 67, 32
1, 111229, Note_off_c, 0, 38, 57
1, 111242, Note_on_c, 0, 55, 75
1, 111244, Note_on_c, 0, 61, 75
1, 111248, Note_on_c, 0, 30, 62
1, 111251, Note_on_c, 0, 58, 61
1, 111267, Note_off_c, 0, 55, 69
1, 111268, Note_off_c, 0, 61, 69
1, 111273, Note_off_c, 0, 58, 64
1, 111309, Note_off_c, 0, 30, 58
1, 111322, Note_on_c, 0, 38, 63
1, 111333, Control_c, 0, 67, 33
1, 111335, Note_on_c, 0, 61, 79
1, 111338, Note_on_c, 0, 55, 60
1, 111341, Note_on_c, 0, 58, 67
1, 111348, Control_c, 0, 67, 33
1, 111363, Control_c, 0, 67, 34
1, 111368, Note_off_c, 0, 61, 62
1, 111370, Note_off_c, 0, 55, 64
1, 111371, Note_off_c, 0, 58, 67
1, 111377, Control_c, 0, 67, 34
1, 111392, Control_c, 0, 67, 35
1, 111407, Control_c, 0, 67, 36
1, 111423, Control_c, 0, 67, 38
1, 111425, Note_off_c, 0, 38, 54
1, 111433, Note_on_c, 0, 28, 67
1, 111433, Note_on_c, 0, 61, 90
1, 111434, Note_on_c, 0, 55, 78
1, 111438, Control_c, 0, 67, 40
1, 111445, Note_on_c, 0, 58, 63
1, 111453, Note_off_c, 0, 61, 71
1, 111453, Control_c, 0, 64, 29
1, 111453, Control_c, 0, 67, 42
1, 111459, Note_off_c, 0, 55, 69
1, 111466, Note_off_c, 0, 58, 64
1, 111467, Control_c, 0, 64, 37
1, 111467, Control_c, 0, 67, 44
1, 111482, Control_c, 0, 64, 44
1, 111482, Control_c, 0, 67, 44
1, 111497, Control_c, 0, 64, 48
1, 111497, Control_c, 0, 67, 45
1, 111503, Note_off_c, 0, 28, 63
1, 111512, Control_c, 0, 64, 50
1, 111539, Note_on_c, 0, 38, 67
1, 111541, Control_c, 0, 67, 45
1, 111571, Control_c, 0, 67, 46
1, 111617, Note_off_c, 0, 38, 56
1, 111627, Note_on_c, 0, 27, 59
1, 111682, Control_c, 0, 64, 50
1, 111731, Note_on_c, 0, 38, 59
1, 111749, Note_off_c, 0, 26, 58
1, 111771, Control_c, 0, 64, 49
1, 111773, Note_off_c, 0, 27, 64
1, 111786, Control_c, 0, 64, 48
1, 111786, Control_c, 0, 67, 46
1, 111788, Note_off_c, 0, 38, 58
1, 111800, Control_c, 0, 64, 44
1, 111800, Control_c, 0, 67, 47
1, 111815, Control_c, 0, 64, 35
1, 111830, Control_c, 0, 64, 0
1, 111845, Control_c, 0, 67, 47
1, 111847, Note_on_c, 0, 38, 63
1, 111854, Note_on_c, 0, 26, 63
1, 111860, Control_c, 0, 67, 48
1, 111874, Control_c, 0, 67, 50
1, 111889, Control_c, 0, 67, 52
1, 111904, Control_c, 0, 67, 54
1, 111919, Control_c, 0, 67, 56
1, 111934, Control_c, 0, 67, 57
1, 111949, Control_c, 0, 67, 59
1, 111964, Control_c, 0, 67, 61
1, 111979, Control_c, 0, 67, 63
1, 111993, Control_c, 0, 67, 64
1, 112008, Control_c, 0, 67, 65
1, 112035, Note_off_c, 0, 38, 57
1, 112038, Control_c, 0, 67, 66
1, 112052, Control_c, 0, 67, 66
1, 112067, Control_c, 0, 67, 67
1, 112073, Note_on_c, 0, 36, 52
1, 112075, Note_on_c, 0, 58, 63
1, 112082, Control_c, 0, 67, 67
1, 112087, Note_on_c, 0, 62, 48
1, 112107, Note_off_c, 0, 58, 66
1, 112110, Note_off_c, 0, 62, 59
1, 112123, Note_off_c, 0, 36, 60
1, 112156, Control_c, 0, 67, 68
1, 112163, Note_on_c, 0, 62, 58
1, 112165, Note_on_c, 0, 38, 57
1, 112169, Note_on_c, 0, 58, 63
1, 112186, Control_c, 0, 67, 68
1, 112199, Note_off_c, 0, 58, 64
1, 112201, Note_off_c, 0, 62, 63
1, 112216, Control_c, 0, 67, 69
1, 112231, Control_c, 0, 67, 69
1, 112252, Note_off_c, 0, 38, 59
1, 112261, Control_c, 0, 67, 71
1, 112264, Note_on_c, 0, 58, 75
1, 112266, Note_on_c, 0, 34, 50
1, 112273, Note_on_c, 0, 62, 58
1, 112276, Control_c, 0, 67, 72
1, 112286, Note_off_c, 0, 58, 70
1, 112290, Control_c, 0, 67, 73
1, 112295, Note_off_c, 0, 62, 60
1, 112335, Control_c, 0, 67, 74
1, 112341, Note_off_c, 0, 34, 51
1, 112364, Control_c, 0, 67, 74
1, 112378, Note_on_c, 0, 38, 50
1, 112417, Control_c, 0, 67, 75
1, 112446, Control_c, 0, 67, 75
1, 112471, Note_off_c, 0, 38, 54
1, 112497, Note_on_c, 0, 51, 54
1, 112506, Note_on_c, 0, 33, 43
1, 112509, Note_on_c, 0, 55, 36
1, 112525, Note_off_c, 0, 51, 56
1, 112549, Note_off_c, 0, 33, 61
1, 112555, Note_off_c, 0, 55, 0
1, 112566, Note_on_c, 0, 51, 62
1, 112571, Note_on_c, 0, 55, 42
1, 112599, Note_on_c, 0, 38, 50
1, 112619, Note_off_c, 0, 51, 57
1, 112623, Note_off_c, 0, 55, 60
1, 112667, Note_off_c, 0, 38, 49
1, 112684, Note_on_c, 0, 51, 66
1, 112684, Note_on_c, 0, 55, 59
1, 112697, Note_on_c, 0, 31, 52
1, 112717, Note_off_c, 0, 55, 65
1, 112718, Note_off_c, 0, 51, 66
1, 112751, Note_off_c, 0, 31, 58
1, 112798, Note_on_c, 0, 38, 53
1, 112846, Control_c, 0, 67, 75
1, 112875, Control_c, 0, 67, 74
1, 112891, Note_off_c, 0, 38, 56
1, 112905, Control_c, 0, 67, 74
1, 112906, Note_on_c, 0, 49, 67
1, 112913, Note_on_c, 0, 46, 66
1, 112920, Control_c, 0, 67, 73
1, 112926, Note_on_c, 0, 30, 42
1, 112945, Note_off_c, 0, 46, 64
1, 112947, Note_off_c, 0, 49, 59
1, 112969, Note_off_c, 0, 30, 59
1, 112994, Control_c, 0, 67, 73
1, 113000, Note_on_c, 0, 46, 67
1, 113002, Note_on_c, 0, 49, 52
1, 113011, Note_on_c, 0, 38, 50
1, 113047, Note_off_c, 0, 49, 59
1, 113049, Note_off_c, 0, 46, 57
1, 113085, Note_off_c, 0, 38, 47
1, 113110, Note_on_c, 0, 49, 54
1, 113113, Control_c, 0, 67, 72
1, 113115, Note_on_c, 0, 28, 53
1, 113117, Note_on_c, 0, 46, 44
1, 113148, Note_off_c, 0, 49, 65
1, 113153, Note_off_c, 0, 46, 61
1, 113176, Note_off_c, 0, 28, 60
1, 113195, Control_c, 0, 64, 32
1, 113225, Control_c, 0, 64, 32
1, 113229, Note_on_c, 0, 38, 53
1, 113259, Note_off_c, 0, 26, 43
1, 113298, Control_c, 0, 64, 30
1, 113298, Control_c, 0, 67, 72
1, 113307, Note_off_c, 0, 38, 56
1, 113313, Control_c, 0, 67, 71
1, 113329, Note_on_c, 0, 27, 49
1, 113343, Control_c, 0, 64, 0
1, 113343, Control_c, 0, 67, 71
1, 113372, Control_c, 0, 67, 70
1, 113425, Note_on_c, 0, 38, 46
1, 113449, Note_off_c, 0, 27, 53
1, 113476, Control_c, 0, 67, 71
1, 113535, Control_c, 0, 64, 39
1, 113541, Note_on_c, 0, 26, 50
1, 113550, Control_c, 0, 64, 50
1, 113554, Note_off_c, 0, 38, 56
1, 113564, Control_c, 0, 64, 58
1, 113570, Note_off_c, 0, 26, 51
1, 113579, Control_c, 0, 64, 62
1, 113594, Control_c, 0, 64, 64
1, 113609, Control_c, 0, 64, 65
1, 113624, Control_c, 0, 64, 65
1, 113624, Control_c, 0, 67, 70
1, 113639, Control_c, 0, 64, 66
1, 113654, Control_c, 0, 64, 66
1, 113669, Control_c, 0, 64, 67
1, 113713, Control_c, 0, 64, 66
1, 113728, Control_c, 0, 64, 62
1, 113743, Control_c, 0, 64, 57
1, 113758, Control_c, 0, 64, 50
1, 113772, Control_c, 0, 64, 43
1, 113772, Control_c, 0, 67, 70
1, 113782, Note_on_c, 0, 50, 51
1, 113785, Note_on_c, 0, 54, 49
1, 113787, Control_c, 0, 64, 33
1, 113797, Note_on_c, 0, 37, 48
1, 113802, Control_c, 0, 64, 0
1, 113810, Note_off_c, 0, 50, 60
1, 113828, Note_off_c, 0, 54, 60
1, 113831, Note_off_c, 0, 37, 61
1, 113899, Control_c, 0, 67, 69
1, 113904, Note_on_c, 0, 38, 42
1, 113963, Note_off_c, 0, 38, 53
1, 114003, Note_on_c, 0, 55, 53
1, 114009, Note_on_c, 0, 50, 49
1, 114011, Note_on_c, 0, 52, 32
1, 114012, Note_on_c, 0, 36, 46
1, 114018, Control_c, 0, 67, 69
1, 114034, Note_off_c, 0, 55, 64
1, 114036, Note_off_c, 0, 50, 54
1, 114046, Note_off_c, 0, 52, 47
1, 114047, Control_c, 0, 67, 68
1, 114072, Note_off_c, 0, 36, 54
1, 114107, Note_on_c, 0, 38, 43
1, 114193, Note_off_c, 0, 38, 52
1, 114208, Note_on_c, 0, 57, 51
1, 114211, Note_on_c, 0, 54, 41
1, 114215, Note_on_c, 0, 50, 31
1, 114217, Note_on_c, 0, 34, 48
1, 114233, Note_off_c, 0, 57, 57
1, 114239, Note_off_c, 0, 54, 55
1, 114252, Note_off_c, 0, 50, 41
1, 114265, Note_off_c, 0, 34, 58
1, 114331, Note_on_c, 0, 38, 39
1, 114381, Note_off_c, 0, 38, 52
1, 114419, Note_on_c, 0, 58, 61
1, 114423, Note_on_c, 0, 55, 44
1, 114425, Note_on_c, 0, 33, 50
1, 114432, Note_on_c, 0, 50, 41
1, 114433, Control_c, 0, 67, 68
1, 114447, Control_c, 0, 67, 67
1, 114449, Note_off_c, 0, 55, 55
1, 114451, Note_off_c, 0, 58, 64
1, 114462, Note_off_c, 0, 50, 49
1, 114480, Note_off_c, 0, 33, 55
1, 114518, Note_on_c, 0, 38, 42
1, 114587, Note_off_c, 0, 38, 54
1, 114620, Note_on_c, 0, 31, 51
1, 114623, Note_on_c, 0, 60, 63
1, 114628, Note_on_c, 0, 50, 55
1, 114632, Note_on_c, 0, 57, 45
1, 114653, Note_off_c, 0, 60, 66
1, 114658, Note_off_c, 0, 50, 60
1, 114669, Note_off_c, 0, 57, 53
1, 114678, Control_c, 0, 67, 67
1, 114684, Note_off_c, 0, 31, 61
1, 114730, Note_on_c, 0, 38, 45
1, 114797, Control_c, 0, 67, 66
1, 114812, Note_off_c, 0, 38, 51
1, 114835, Note_on_c, 0, 62, 59
1, 114836, Note_on_c, 0, 50, 49
1, 114837, Note_on_c, 0, 30, 61
1, 114841, Note_on_c, 0, 58, 55
1, 114862, Note_off_c, 0, 62, 63
1, 114862, Note_off_c, 0, 50, 55
1, 114881, Note_off_c, 0, 58, 63
1, 114896, Note_off_c, 0, 30, 56
1, 114938, Note_on_c, 0, 38, 26
1, 114975, Note_off_c, 0, 38, 43
1, 115030, Note_on_c, 0, 57, 26
1, 115037, Note_on_c, 0, 29, 51
1, 115061, Note_on_c, 0, 51, 40
1, 115067, Note_off_c, 0, 57, 52
1, 115070, Note_on_c, 0, 63, 41
1, 115092, Control_c, 0, 67, 66
1, 115093, Note_off_c, 0, 51, 48
1, 115105, Note_off_c, 0, 63, 55
1, 115106, Poly_aftertouch_c, 0, 61, 0
1, 115114, Note_off_c, 0, 29, 63
1, 115117, Note_on_c, 0, 39, 46
1, 115147, Note_off_c, 0, 39, 54
1, 115251, Note_on_c, 0, 22, 63
1, 115253, Note_on_c, 0, 53, 68
1, 115255, Note_on_c, 0, 65, 64
1, 115255, Control_c, 0, 64, 35
1, 115260, Note_on_c, 0, 58, 53
1, 115266, Note_on_c, 0, 62, 41
1, 115269, Note_on_c, 0, 34, 40
1, 115270, Control_c, 0, 64, 50
1, 115276, Note_off_c, 0, 65, 65
1, 115280, Note_off_c, 0, 22, 59
1, 115281, Note_off_c, 0, 53, 66
1, 115283, Note_off_c, 0, 58, 60
1, 115284, Control_c, 0, 64, 61
1, 115293, Note_off_c, 0, 62, 49
1, 115299, Control_c, 0, 64, 66
1, 115299, Control_c, 0, 67, 65
1, 115304, Note_off_c, 0, 34, 48
1, 115314, Control_c, 0, 64, 69
1, 115329, Control_c, 0, 64, 71
1, 115344, Control_c, 0, 64, 72
1, 115359, Control_c, 0, 64, 72
1, 115471, Control_c, 0, 64, 71
1, 115471, Control_c, 0, 67, 65
1, 115486, Control_c, 0, 64, 69
1, 115500, Note_on_c, 0, 46, 60
1, 115500, Control_c, 0, 64, 66
1, 115508, Note_on_c, 0, 58, 48
1, 115511, Note_on_c, 0, 62, 61
1, 115513, Note_on_c, 0, 53, 40
1, 115515, Control_c, 0, 64, 62
1, 115515, Control_c, 0, 67, 64
1, 115529, Note_on_c, 0, 34, 26
1, 115530, Note_on_c, 0, 50, 23
1, 115530, Control_c, 0, 64, 59
1, 115533, Note_off_c, 0, 46, 65
1, 115545, Control_c, 0, 64, 55
1, 115545, Control_c, 0, 67, 63
1, 115559, Note_off_c, 0, 34, 46
1, 115560, Control_c, 0, 64, 52
1, 115574, Control_c, 0, 64, 48
1, 115589, Control_c, 0, 64, 44
1, 115604, Control_c, 0, 64, 39
1, 115611, Note_on_c, 0, 46, 53
1, 115613, Note_on_c, 0, 34, 54
1, 115619, Control_c, 0, 64, 35
1, 115634, Control_c, 0, 64, 33
1, 115638, Note_off_c, 0, 46, 59
1, 115648, Control_c, 0, 64, 33
1, 115651, Note_off_c, 0, 34, 62
1, 115663, Control_c, 0, 64, 35
1, 115663, Control_c, 0, 67, 63
1, 115678, Control_c, 0, 64, 37
1, 115693, Control_c, 0, 64, 44
1, 115708, Note_on_c, 0, 32, 68
1, 115708, Control_c, 0, 64, 51
1, 115723, Control_c, 0, 64, 57
1, 115735, Note_on_c, 0, 44, 32
1, 115738, Control_c, 0, 64, 60
1, 115745, Note_off_c, 0, 32, 61
1, 115752, Control_c, 0, 64, 61
1, 115767, Control_c, 0, 64, 61
1, 115767, Control_c, 0, 67, 63
1, 115771, Note_off_c, 0, 62, 58
1, 115772, Note_off_c, 0, 44, 53
1, 115772, Note_off_c, 0, 53, 61
1, 115782, Control_c, 0, 64, 60
1, 115782, Control_c, 0, 67, 64
1, 115797, Control_c, 0, 64, 58
1, 115801, Note_off_c, 0, 50, 54
1, 115812, Control_c, 0, 64, 57
1, 115814, Note_on_c, 0, 34, 60
1, 115815, Note_on_c, 0, 46, 51
1, 115826, Control_c, 0, 64, 56
1, 115833, Note_off_c, 0, 58, 51
1, 115842, Note_off_c, 0, 46, 59
1, 115845, Note_off_c, 0, 34, 63
1, 115856, Control_c, 0, 64, 57
1, 115856, Control_c, 0, 67, 63
1, 115871, Control_c, 0, 67, 63
1, 115900, Control_c, 0, 67, 62
1, 115906, Note_on_c, 0, 51, 63
1, 115912, Note_on_c, 0, 60, 62
1, 115915, Note_on_c, 0, 48, 56
1, 115915, Control_c, 0, 64, 56
1, 115915, Control_c, 0, 67, 62
1, 115919, Note_on_c, 0, 30, 72
1, 115930, Control_c, 0, 64, 54
1, 115945, Control_c, 0, 64, 51
1, 115952, Note_on_c, 0, 58, 37
1, 115958, Note_off_c, 0, 30, 61
1, 115960, Control_c, 0, 64, 47
1, 115974, Control_c, 0, 64, 44
1, 115974, Control_c, 0, 67, 61
1, 115980, Note_off_c, 0, 48, 53
1, 115986, Note_off_c, 0, 60, 63
1, 115989, Control_c, 0, 64, 40
1, 116000, Note_off_c, 0, 51, 62
1, 116004, Control_c, 0, 64, 37
1, 116018, Control_c, 0, 64, 38
1, 116019, Note_on_c, 0, 44, 56
1, 116023, Note_on_c, 0, 32, 53
1, 116033, Control_c, 0, 64, 39
1, 116047, Note_off_c, 0, 44, 63
1, 116048, Control_c, 0, 64, 41
1, 116055, Note_off_c, 0, 32, 61
1, 116063, Control_c, 0, 64, 45
1, 116078, Control_c, 0, 64, 51
1, 116078, Control_c, 0, 67, 60
1, 116092, Control_c, 0, 64, 55
1, 116092, Control_c, 0, 67, 59
1, 116104, Note_on_c, 0, 62, 62
1, 116107, Note_on_c, 0, 29, 71
1, 116107, Note_on_c, 0, 50, 55
1, 116107, Note_on_c, 0, 53, 41
1, 116107, Control_c, 0, 64, 59
1, 116107, Control_c, 0, 67, 55
1, 116122, Control_c, 0, 64, 59
1, 116122, Control_c, 0, 67, 47
1, 116127, Note_on_c, 0, 41, 47
1, 116140, Note_off_c, 0, 50, 58
1, 116145, Control_c, 0, 64, 59
1, 116145, Control_c, 0, 67, 37
1, 116146, Note_off_c, 0, 62, 64
1, 116147, Note_off_c, 0, 53, 47
1, 116149, Note_off_c, 0, 58, 59
1, 116158, Note_off_c, 0, 29, 64
1, 116160, Control_c, 0, 64, 57
1, 116160, Control_c, 0, 67, 29
1, 116164, Note_off_c, 0, 41, 52
1, 116174, Control_c, 0, 64, 56
1, 116174, Control_c, 0, 67, 22
1, 116189, Control_c, 0, 64, 55
1, 116189, Control_c, 0, 67, 0
1, 116208, Note_on_c, 0, 42, 59
1, 116217, Note_on_c, 0, 30, 68
1, 116235, Control_c, 0, 64, 56
1, 116244, Note_off_c, 0, 42, 66
1, 116250, Control_c, 0, 64, 56
1, 116261, Note_off_c, 0, 30, 63
1, 116264, Control_c, 0, 64, 57
1, 116309, Control_c, 0, 64, 56
1, 116316, Note_on_c, 0, 27, 77
1, 116323, Control_c, 0, 64, 55
1, 116328, Note_on_c, 0, 63, 70
1, 116334, Note_on_c, 0, 58, 34
1, 116337, Note_on_c, 0, 51, 52
1, 116338, Control_c, 0, 64, 55
1, 116347, Note_on_c, 0, 60, 26
1, 116353, Note_on_c, 0, 39, 28
1, 116353, Control_c, 0, 64, 54
1, 116356, Note_off_c, 0, 27, 66
1, 116364, Note_off_c, 0, 51, 60
1, 116383, Control_c, 0, 64, 55
1, 116397, Note_off_c, 0, 39, 29
1, 116412, Control_c, 0, 64, 55
1, 116418, Note_on_c, 0, 41, 63
1, 116427, Note_off_c, 0, 63, 64
1, 116427, Control_c, 0, 64, 55
1, 116435, Note_on_c, 0, 29, 59
1, 116441, Control_c, 0, 64, 53
1, 116447, Note_off_c, 0, 41, 64
1, 116456, Control_c, 0, 64, 51
1, 116470, Note_off_c, 0, 29, 63
1, 116471, Control_c, 0, 64, 49
1, 116486, Control_c, 0, 64, 48
1, 116501, Control_c, 0, 64, 49
1, 116516, Control_c, 0, 64, 51
1, 116521, Note_off_c, 0, 58, 0
1, 116521, Note_on_c, 0, 58, 12
1, 116527, Note_on_c, 0, 38, 79
1, 116530, Note_on_c, 0, 62, 27
1, 116531, Control_c, 0, 64, 53
1, 116535, Note_on_c, 0, 26, 69
1, 116535, Note_on_c, 0, 65, 73
1, 116535, Note_off_c, 0, 60, 0
1, 116536, Note_on_c, 0, 53, 68
1, 116546, Control_c, 0, 64, 56
1, 116561, Note_off_c, 0, 38, 66
1, 116561, Control_c, 0, 64, 59
1, 116567, Note_off_c, 0, 26, 63
1, 116573, Poly_aftertouch_c, 0, 60, 127
1, 116576, Control_c, 0, 64, 61
1, 116590, Control_c, 0, 64, 59
1, 116594, Note_off_c, 0, 53, 54
1, 116598, Note_off_c, 0, 62, 54
1, 116605, Control_c, 0, 64, 56
1, 116606, Poly_aftertouch_c, 0, 60, 0
1, 116620, Control_c, 0, 64, 52
1, 116625, Note_on_c, 0, 38, 61
1, 116631, Note_on_c, 0, 26, 54
1, 116635, Control_c, 0, 64, 50
1, 116637, Note_off_c, 0, 65, 53
1, 116650, Control_c, 0, 64, 49
1, 116656, Note_off_c, 0, 38, 65
1, 116657, Note_off_c, 0, 26, 58
1, 116665, Control_c, 0, 64, 50
1, 116679, Control_c, 0, 64, 52
1, 116681, Note_off_c, 0, 58, 39
1, 116694, Control_c, 0, 64, 55
1, 116709, Control_c, 0, 64, 58
1, 116724, Note_on_c, 0, 53, 69
1, 116724, Control_c, 0, 64, 61
1, 116730, Note_on_c, 0, 63, 73
1, 116734, Note_on_c, 0, 36, 77
1, 116736, Note_on_c, 0, 24, 78
1, 116736, Note_on_c, 0, 65, 71
1, 116739, Control_c, 0, 64, 63
1, 116740, Note_on_c, 0, 57, 47
1, 116752, Note_off_c, 0, 53, 66
1, 116754, Control_c, 0, 64, 64
1, 116764, Note_off_c, 0, 63, 63
1, 116769, Note_off_c, 0, 57, 54
1, 116769, Control_c, 0, 64, 65
1, 116769, Note_off_c, 0, 65, 66
1, 116778, Note_off_c, 0, 24, 61
1, 116783, Control_c, 0, 64, 66
1, 116798, Control_c, 0, 64, 67
1, 116813, Control_c, 0, 64, 67
1, 116823, Note_off_c, 0, 36, 51
1, 116826, Note_on_c, 0, 29, 67
1, 116842, Control_c, 0, 64, 66
1, 116857, Control_c, 0, 64, 62
1, 116872, Control_c, 0, 64, 54
1, 116877, Note_off_c, 0, 29, 63
1, 116894, Control_c, 0, 64, 47
1, 116909, Control_c, 0, 64, 46
1, 116924, Control_c, 0, 64, 47
1, 116939, Control_c, 0, 64, 51
1, 116952, Note_on_c, 0, 62, 78
1, 116952, Note_on_c, 0, 70, 74
1, 116953, Note_on_c, 0, 74, 79
1, 116954, Control_c, 0, 64, 55
1, 116957, Note_on_c, 0, 22, 65
1, 116957, Note_on_c, 0, 65, 68
1, 116958, Note_on_c, 0, 34, 72
1, 116968, Control_c, 0, 64, 60
1, 116972, Note_off_c, 0, 74, 71
1, 116974, Note_off_c, 0, 62, 70
1, 116974, Note_off_c, 0, 70, 71
1, 116975, Note_off_c, 0, 65, 67
1, 116982, Note_off_c, 0, 34, 65
1, 116983, Control_c, 0, 64, 64
1, 116990, Note_off_c, 0, 22, 61
1, 116998, Control_c, 0, 64, 67
1, 117013, Control_c, 0, 64, 69
1, 117028, Control_c, 0, 64, 70
1, 117043, Control_c, 0, 64, 71
1, 117058, Control_c, 0, 64, 72
1, 117073, Control_c, 0, 64, 73
1, 117088, Control_c, 0, 64, 73
1, 117103, Control_c, 0, 64, 74
1, 117147, Control_c, 0, 64, 72
1, 117162, Control_c, 0, 64, 69
1, 117177, Control_c, 0, 64, 66
1, 117186, Note_on_c, 0, 46, 70
1, 117192, Control_c, 0, 64, 62
1, 117192, Note_on_c, 0, 58, 68
1, 117198, Note_on_c, 0, 62, 75
1, 117200, Note_on_c, 0, 34, 53
1, 117200, Note_on_c, 0, 53, 58
1, 117205, Note_on_c, 0, 50, 55
1, 117207, Control_c, 0, 64, 60
1, 117217, Note_off_c, 0, 46, 65
1, 117221, Control_c, 0, 64, 57
1, 117236, Control_c, 0, 64, 55
1, 117237, Note_off_c, 0, 34, 57
1, 117251, Control_c, 0, 64, 53
1, 117265, Control_c, 0, 64, 49
1, 117280, Control_c, 0, 64, 43
1, 117285, Note_on_c, 0, 46, 62
1, 117290, Note_on_c, 0, 34, 61
1, 117295, Control_c, 0, 64, 35
1, 117310, Control_c, 0, 64, 30
1, 117320, Note_off_c, 0, 46, 67
1, 117324, Note_off_c, 0, 34, 63
1, 117329, Note_off_c, 0, 53, 0
1, 117329, Note_on_c, 0, 53, 2
1, 117354, Control_c, 0, 64, 33
1, 117369, Control_c, 0, 64, 39
1, 117384, Control_c, 0, 64, 49
1, 117389, Note_on_c, 0, 32, 76
1, 117399, Control_c, 0, 64, 56
1, 117409, Note_on_c, 0, 44, 48
1, 117413, Control_c, 0, 64, 61
1, 117428, Control_c, 0, 64, 63
1, 117431, Note_off_c, 0, 32, 58
1, 117440, Note_off_c, 0, 44, 56
1, 117443, Control_c, 0, 64, 64
1, 117457, Control_c, 0, 64, 65
1, 117472, Control_c, 0, 64, 65
1, 117486, Note_on_c, 0, 46, 72
1, 117489, Note_on_c, 0, 34, 68
1, 117493, Note_off_c, 0, 62, 61
1, 117501, Note_off_c, 0, 50, 61
1, 117508, Note_off_c, 0, 53, 54
1, 117517, Note_off_c, 0, 46, 65
1, 117517, Control_c, 0, 64, 64
1, 117521, Note_off_c, 0, 34, 64
1, 117532, Control_c, 0, 64, 59
1, 117535, Note_off_c, 0, 58, 61
1, 117547, Control_c, 0, 64, 53
1, 117562, Control_c, 0, 64, 51
1, 117577, Control_c, 0, 64, 52
1, 117587, Note_on_c, 0, 51, 75
1, 117591, Control_c, 0, 64, 55
1, 117594, Note_on_c, 0, 60, 70
1, 117596, Note_on_c, 0, 30, 77
1, 117601, Note_on_c, 0, 48, 63
1, 117606, Control_c, 0, 64, 57
1, 117621, Control_c, 0, 64, 61
1, 117643, Control_c, 0, 64, 64
1, 117658, Control_c, 0, 64, 66
1, 117663, Note_off_c, 0, 30, 51
1, 117672, Control_c, 0, 64, 66
1, 117678, Poly_aftertouch_c, 0, 58, 127
1, 117682, Note_on_c, 0, 44, 63
1, 117684, Note_on_c, 0, 32, 66
1, 117687, Control_c, 0, 64, 64
1, 117688, Note_off_c, 0, 48, 60
1, 117702, Control_c, 0, 64, 59
1, 117704, Note_off_c, 0, 60, 63
1, 117710, Note_off_c, 0, 44, 66
1, 117716, Note_off_c, 0, 51, 63
1, 117717, Control_c, 0, 64, 52
1, 117722, Note_off_c, 0, 32, 60
1, 117732, Control_c, 0, 64, 46
1, 117747, Control_c, 0, 64, 44
1, 117762, Control_c, 0, 64, 45
1, 117776, Control_c, 0, 64, 48
1, 117789, Note_on_c, 0, 29, 75
1, 117791, Control_c, 0, 64, 53
1, 117797, Note_on_c, 0, 62, 76
1, 117806, Note_on_c, 0, 50, 62
1, 117806, Control_c, 0, 64, 58
1, 117810, Note_on_c, 0, 41, 44
1, 117822, Control_c, 0, 64, 62
1, 117825, Note_off_c, 0, 29, 66
1, 117829, Note_off_c, 0, 50, 62
1, 117836, Control_c, 0, 64, 65
1, 117838, Poly_aftertouch_c, 0, 58, 0
1, 117839, Note_off_c, 0, 62, 57
1, 117842, Note_off_c, 0, 41, 35
1, 117851, Control_c, 0, 64, 66
1, 117881, Control_c, 0, 64, 65
1, 117885, Note_on_c, 0, 42, 80
1, 117887, Note_on_c, 0, 30, 80
1, 117896, Control_c, 0, 64, 62
1, 117911, Control_c, 0, 64, 57
1, 117917, Note_off_c, 0, 42, 67
1, 117925, Control_c, 0, 64, 55
1, 117931, Note_off_c, 0, 30, 62
1, 117940, Control_c, 0, 64, 55
1, 117955, Control_c, 0, 64, 57
1, 117970, Control_c, 0, 64, 59
1, 117982, Note_on_c, 0, 60, 38
1, 117985, Control_c, 0, 64, 62
1, 117992, Note_on_c, 0, 27, 80
1, 117997, Note_on_c, 0, 58, 52
1, 118000, Control_c, 0, 64, 65
1, 118001, Note_on_c, 0, 63, 77
1, 118007, Note_on_c, 0, 51, 61
1, 118014, Control_c, 0, 64, 66
1, 118029, Control_c, 0, 64, 67
1, 118031, Note_off_c, 0, 27, 65
1, 118044, Control_c, 0, 64, 66
1, 118045, Note_off_c, 0, 51, 63
1, 118059, Control_c, 0, 64, 65
1, 118074, Control_c, 0, 64, 61
1, 118079, Note_on_c, 0, 41, 69
1, 118088, Control_c, 0, 64, 53
1, 118092, Note_off_c, 0, 63, 61
1, 118103, Control_c, 0, 64, 47
1, 118107, Note_off_c, 0, 41, 64
1, 118108, Poly_aftertouch_c, 0, 39, 0
1, 118118, Control_c, 0, 64, 42
1, 118133, Control_c, 0, 64, 40
1, 118148, Control_c, 0, 64, 42
1, 118162, Control_c, 0, 64, 47
1, 118177, Control_c, 0, 64, 53
1, 118179, Note_off_c, 0, 58, 0
1, 118179, Note_on_c, 0, 58, 19
1, 118186, Note_on_c, 0, 53, 71
1, 118188, Note_on_c, 0, 38, 78
1, 118188, Note_on_c, 0, 65, 72
1, 118191, Note_on_c, 0, 26, 74
1, 118192, Control_c, 0, 64, 60
1, 118206, Control_c, 0, 64, 65
1, 118215, Note_off_c, 0, 53, 67
1, 118221, Control_c, 0, 64, 68
1, 118222, Note_off_c, 0, 38, 66
1, 118224, Note_off_c, 0, 26, 65
1, 118228, Note_off_c, 0, 65, 60
1, 118236, Note_off_c, 0, 58, 63
1, 118236, Control_c, 0, 64, 69
1, 118239, Note_off_c, 0, 60, 42
1, 118251, Control_c, 0, 64, 68
1, 118266, Control_c, 0, 64, 63
1, 118280, Control_c, 0, 64, 56
1, 118288, Note_on_c, 0, 38, 66
1, 118289, Note_on_c, 0, 26, 74
1, 118295, Control_c, 0, 64, 54
1, 118310, Control_c, 0, 64, 55
1, 118320, Note_off_c, 0, 26, 64
1, 118320, Note_off_c, 0, 38, 59
1, 118325, Control_c, 0, 64, 57
1, 118340, Control_c, 0, 64, 59
1, 118355, Control_c, 0, 64, 62
1, 118370, Control_c, 0, 64, 65
1, 118392, Control_c, 0, 64, 68
1, 118393, Note_on_c, 0, 66, 75
1, 118393, Note_on_c, 0, 54, 67
1, 118395, Note_on_c, 0, 58, 65
1, 118406, Note_on_c, 0, 64, 58
1, 118407, Control_c, 0, 64, 69
1, 118411, Note_on_c, 0, 25, 76
1, 118416, Note_on_c, 0, 37, 57
1, 118421, Control_c, 0, 64, 70
1, 118423, Note_off_c, 0, 54, 65
1, 118423, Note_off_c, 0, 58, 66
1, 118435, Note_off_c, 0, 64, 66
1, 118445, Note_off_c, 0, 66, 62
1, 118452, Note_off_c, 0, 25, 59
1, 118452, Note_off_c, 0, 37, 64
1, 118494, Note_on_c, 0, 30, 65
1, 118510, Control_c, 0, 64, 66
1, 118525, Control_c, 0, 64, 57
1, 118540, Control_c, 0, 64, 35
1, 118555, Control_c, 0, 64, 0
1, 118578, Note_off_c, 0, 30, 41
1, 118602, Note_on_c, 0, 23, 75
1, 118608, Note_on_c, 0, 35, 87
1, 118610, Note_on_c, 0, 74, 85
1, 118614, Note_on_c, 0, 62, 80
1, 118617, Note_on_c, 0, 66, 77
1, 118618, Note_on_c, 0, 71, 79
1, 118626, Note_off_c, 0, 23, 64
1, 118630, Control_c, 0, 64, 45
1, 118637, Note_off_c, 0, 62, 68
1, 118638, Note_off_c, 0, 66, 68
1, 118639, Note_off_c, 0, 35, 66
1, 118641, Note_off_c, 0, 71, 68
1, 118644, Control_c, 0, 64, 61
1, 118646, Note_off_c, 0, 74, 62
1, 118659, Control_c, 0, 64, 67
1, 118674, Control_c, 0, 64, 70
1, 118689, Control_c, 0, 64, 73
1, 118704, Control_c, 0, 64, 73
1, 118718, Control_c, 0, 64, 74
1, 118861, Note_on_c, 0, 54, 74
1, 118868, Note_on_c, 0, 42, 49
1, 118868, Note_on_c, 0, 62, 66
1, 118869, Note_on_c, 0, 66, 68
1, 118874, Note_on_c, 0, 59, 58
1, 118879, Note_on_c, 0, 50, 57
1, 118888, Note_on_c, 0, 47, 49
1, 118892, Note_off_c, 0, 62, 59
1, 118893, Note_off_c, 0, 54, 64
1, 118896, Note_off_c, 0, 59, 60
1, 118897, Note_off_c, 0, 66, 67
1, 118898, Note_off_c, 0, 42, 54
1, 118909, Note_off_c, 0, 50, 53
1, 118919, Note_off_c, 0, 47, 48
1, 118941, Control_c, 0, 64, 73
1, 118944, Note_on_c, 0, 54, 71
1, 118947, Note_on_c, 0, 50, 65
1, 118952, Note_on_c, 0, 62, 76
1, 118956, Note_on_c, 0, 42, 67
1, 118956, Control_c, 0, 64, 70
1, 118959, Note_on_c, 0, 59, 66
1, 118963, Note_on_c, 0, 66, 67
1, 118971, Control_c, 0, 64, 64
1, 118972, Note_on_c, 0, 47, 37
1, 118985, Control_c, 0, 64, 52
1, 118986, Note_off_c, 0, 59, 68
1, 118989, Note_off_c, 0, 54, 61
1, 118990, Note_off_c, 0, 42, 64
1, 118991, Note_off_c, 0, 62, 58
1, 118996, Note_off_c, 0, 66, 53
1, 119000, Note_off_c, 0, 47, 56
1, 119000, Control_c, 0, 64, 44
1, 119015, Control_c, 0, 64, 42
1, 119029, Control_c, 0, 64, 46
1, 119044, Control_c, 0, 64, 52
1, 119058, Note_on_c, 0, 42, 62
1, 119058, Note_on_c, 0, 54, 73
1, 119059, Control_c, 0, 64, 58
1, 119064, Note_on_c, 0, 66, 77
1, 119069, Note_on_c, 0, 62, 60
1, 119073, Note_on_c, 0, 47, 63
1, 119074, Control_c, 0, 64, 63
1, 119079, Note_on_c, 0, 59, 59
1, 119089, Control_c, 0, 64, 67
1, 119094, Note_off_c, 0, 42, 64
1, 119103, Control_c, 0, 64, 71
1, 119105, Note_off_c, 0, 47, 67
1, 119118, Control_c, 0, 64, 75
1, 119120, Note_off_c, 0, 59, 60
1, 119127, Note_off_c, 0, 50, 57
1, 119141, Control_c, 0, 64, 79
1, 119142, Note_off_c, 0, 54, 46
1, 119149, Note_off_c, 0, 62, 60
1, 119156, Control_c, 0, 64, 83
1, 119171, Control_c, 0, 64, 85
1, 119173, Note_on_c, 0, 69, 62
1, 119182, Note_off_c, 0, 66, 61
1, 119191, Note_off_c, 0, 69, 64
1, 119200, Control_c, 0, 64, 80
1, 119215, Control_c, 0, 64, 70
1, 119230, Control_c, 0, 64, 62
1, 119244, Control_c, 0, 64, 55
1, 119259, Control_c, 0, 64, 55
1, 119274, Control_c, 0, 64, 57
1, 119282, Note_on_c, 0, 58, 53
1, 119285, Note_on_c, 0, 52, 56
1, 119289, Control_c, 0, 64, 61
1, 119296, Note_on_c, 0, 70, 69
1, 119304, Control_c, 0, 64, 65
1, 119305, Note_on_c, 0, 64, 43
1, 119318, Control_c, 0, 64, 72
1, 119333, Control_c, 0, 64, 81
1, 119345, Note_off_c, 0, 64, 50
1, 119348, Control_c, 0, 64, 90
1, 119361, Note_off_c, 0, 58, 37
1, 119362, Control_c, 0, 64, 93
1, 119371, Note_on_c, 0, 54, 62
1, 119392, Control_c, 0, 64, 87
1, 119403, Note_on_c, 0, 66, 48
1, 119408, Control_c, 0, 64, 74
1, 119413, Note_off_c, 0, 52, 35
1, 119423, Control_c, 0, 64, 65
1, 119428, Note_off_c, 0, 70, 38
1, 119431, Note_off_c, 0, 66, 58
1, 119438, Control_c, 0, 64, 59
1, 119453, Control_c, 0, 64, 58
1, 119455, Note_off_c, 0, 54, 58
1, 119467, Control_c, 0, 64, 60
1, 119479, Note_on_c, 0, 50, 64
1, 119480, Note_on_c, 0, 71, 82
1, 119482, Control_c, 0, 64, 64
1, 119488, Note_on_c, 0, 59, 55
1, 119497, Note_on_c, 0, 62, 56
1, 119497, Control_c, 0, 64, 68
1, 119512, Control_c, 0, 64, 75
1, 119523, Note_off_c, 0, 62, 62
1, 119527, Control_c, 0, 64, 82
1, 119530, Note_off_c, 0, 59, 62
1, 119531, Note_off_c, 0, 71, 64
1, 119541, Control_c, 0, 64, 87
1, 119550, Note_off_c, 0, 50, 60
1, 119556, Control_c, 0, 64, 88
1, 119565, Note_on_c, 0, 54, 67
1, 119571, Control_c, 0, 64, 85
1, 119577, Note_on_c, 0, 66, 54
1, 119586, Control_c, 0, 64, 71
1, 119601, Control_c, 0, 64, 60
1, 119616, Control_c, 0, 64, 50
1, 119625, Note_off_c, 0, 66, 59
1, 119631, Control_c, 0, 64, 49
1, 119645, Control_c, 0, 64, 53
1, 119647, Note_off_c, 0, 54, 54
1, 119660, Control_c, 0, 64, 58
1, 119666, Note_on_c, 0, 58, 63
1, 119669, Note_on_c, 0, 49, 72
1, 119675, Control_c, 0, 64, 64
1, 119678, Note_on_c, 0, 73, 83
1, 119684, Note_on_c, 0, 61, 69
1, 119690, Control_c, 0, 64, 71
1, 119694, Note_on_c, 0, 70, 59
1, 119705, Control_c, 0, 64, 80
1, 119720, Note_off_c, 0, 58, 61
1, 119720, Control_c, 0, 64, 91
1, 119723, Note_off_c, 0, 61, 56
1, 119734, Control_c, 0, 64, 97
1, 119759, Note_off_c, 0, 49, 62
1, 119765, Note_on_c, 0, 54, 71
1, 119778, Control_c, 0, 64, 81
1, 119785, Note_on_c, 0, 66, 64
1, 119788, Note_off_c, 0, 73, 58
1, 119793, Control_c, 0, 64, 67
1, 119808, Control_c, 0, 64, 56
1, 119823, Control_c, 0, 64, 52
1, 119838, Control_c, 0, 64, 54
1, 119839, Note_off_c, 0, 70, 56
1, 119842, Note_off_c, 0, 54, 61
1, 119852, Control_c, 0, 64, 58
1, 119861, Note_on_c, 0, 47, 72
1, 119864, Note_off_c, 0, 66, 60
1, 119867, Control_c, 0, 64, 62
1, 119869, Note_on_c, 0, 59, 70
1, 119873, Note_on_c, 0, 74, 85
1, 119890, Note_on_c, 0, 71, 72
1, 119890, Control_c, 0, 64, 67
1, 119890, Note_on_c, 0, 62, 71
1, 119905, Control_c, 0, 64, 74
1, 119920, Control_c, 0, 64, 81
1, 119927, Note_on_c, 0, 54, 57
1, 119932, Note_off_c, 0, 59, 63
1, 119934, Control_c, 0, 64, 89
1, 119935, Note_off_c, 0, 62, 57
1, 119944, Note_off_c, 0, 47, 63
1, 119949, Control_c, 0, 64, 96
1, 119964, Control_c, 0, 64, 100
1, 119965, Note_off_c, 0, 74, 50
1, 119970, Note_off_c, 0, 71, 59
1, 119972, Note_off_c, 0, 54, 62
1, 119982, Note_on_c, 0, 66, 64
1, 119993, Control_c, 0, 64, 86
1, 120002, Note_off_c, 0, 66, 66
1, 120008, Control_c, 0, 64, 69
1, 120023, Control_c, 0, 64, 58
1, 120038, Control_c, 0, 64, 54
1, 120053, Control_c, 0, 64, 55
1, 120067, Control_c, 0, 64, 60
1, 120082, Control_c, 0, 64, 64
1, 120084, Note_on_c, 0, 54, 83
1, 120090, Note_on_c, 0, 42, 75
1, 120091, Note_on_c, 0, 78, 86
1, 120097, Control_c, 0, 64, 69
1, 120100, Note_on_c, 0, 66, 59
1, 120108, Note_off_c, 0, 54, 70
1, 120112, Control_c, 0, 64, 75
1, 120114, Note_on_c, 0, 73, 68
1, 120119, Note_off_c, 0, 42, 65
1, 120127, Control_c, 0, 64, 80
1, 120141, Control_c, 0, 64, 83
1, 120142, Note_off_c, 0, 66, 58
1, 120156, Control_c, 0, 64, 86
1, 120171, Control_c, 0, 64, 91
1, 120177, Note_on_c, 0, 70, 73
1, 120185, Control_c, 0, 64, 98
1, 120191, Note_off_c, 0, 78, 61
1, 120201, Note_off_c, 0, 73, 62
1, 120205, Note_off_c, 0, 70, 64
1, 120231, Control_c, 0, 64, 88
1, 120246, Control_c, 0, 64, 70
1, 120261, Control_c, 0, 64, 57
1, 120276, Control_c, 0, 64, 47
1, 120290, Control_c, 0, 64, 49
1, 120305, Control_c, 0, 64, 54
1, 120312, Note_on_c, 0, 42, 89
1, 120313, Note_on_c, 0, 30, 73
1, 120316, Note_on_c, 0, 74, 90
1, 120319, Note_on_c, 0, 83, 94
1, 120320, Control_c, 0, 64, 60
1, 120322, Note_on_c, 0, 71, 82
1, 120328, Note_on_c, 0, 78, 69
1, 120334, Note_off_c, 0, 42, 68
1, 120335, Control_c, 0, 64, 65
1, 120336, Note_off_c, 0, 74, 70
1, 120340, Note_off_c, 0, 83, 66
1, 120340, Note_off_c, 0, 71, 73
1, 120341, Note_off_c, 0, 30, 64
1, 120349, Note_off_c, 0, 78, 66
1, 120350, Control_c, 0, 64, 70
1, 120364, Control_c, 0, 64, 73
1, 120379, Control_c, 0, 64, 75
1, 120394, Control_c, 0, 64, 76
1, 120409, Control_c, 0, 64, 76
1, 120423, Control_c, 0, 64, 77
1, 120558, Note_on_c, 0, 59, 70
1, 120561, Note_on_c, 0, 50, 72
1, 120569, Note_on_c, 0, 66, 74
1, 120572, Note_on_c, 0, 62, 70
1, 120581, Note_on_c, 0, 74, 62
1, 120584, Note_off_c, 0, 66, 67
1, 120587, Note_off_c, 0, 59, 65
1, 120587, Note_on_c, 0, 71, 44
1, 120588, Note_off_c, 0, 62, 65
1, 120590, Note_off_c, 0, 50, 67
1, 120603, Note_off_c, 0, 74, 59
1, 120615, Note_off_c, 0, 71, 55
1, 120616, Control_c, 0, 64, 78
1, 120638, Control_c, 0, 64, 78
1, 120653, Control_c, 0, 64, 77
1, 120656, Note_on_c, 0, 54, 17
1, 120656, Note_on_c, 0, 59, 62
1, 120658, Note_on_c, 0, 62, 78
1, 120662, Note_on_c, 0, 66, 62
1, 120667, Note_on_c, 0, 50, 56
1, 120668, Control_c, 0, 64, 71
1, 120669, Note_on_c, 0, 74, 75
1, 120680, Note_off_c, 0, 66, 64
1, 120683, Note_off_c, 0, 74, 69
1, 120683, Control_c, 0, 64, 60
1, 120683, Note_off_c, 0, 62, 64
1, 120689, Note_off_c, 0, 50, 59
1, 120689, Note_off_c, 0, 59, 65
1, 120694, Note_on_c, 0, 64, 36
1, 120694, Note_off_c, 0, 64, 127
1, 120694, Note_off_c, 0, 54, 59
1, 120698, Control_c, 0, 64, 51
1, 120710, Note_on_c, 0, 71, 8
1, 120713, Control_c, 0, 64, 49
1, 120728, Control_c, 0, 64, 53
1, 120742, Control_c, 0, 64, 58
1, 120754, Note_on_c, 0, 59, 73
1, 120757, Control_c, 0, 64, 62
1, 120757, Note_on_c, 0, 50, 66
1, 120760, Note_on_c, 0, 74, 67
1, 120763, Note_on_c, 0, 66, 70
1, 120769, Note_on_c, 0, 62, 75
1, 120769, Note_on_c, 0, 54, 64
1, 120772, Control_c, 0, 64, 67
1, 120787, Control_c, 0, 64, 75
1, 120802, Control_c, 0, 64, 82
1, 120811, Note_off_c, 0, 59, 62
1, 120816, Control_c, 0, 64, 87
1, 120825, Note_off_c, 0, 50, 56
1, 120826, Poly_aftertouch_c, 0, 72, 127
1, 120831, Control_c, 0, 64, 88
1, 120833, Note_off_c, 0, 62, 52
1, 120861, Note_on_c, 0, 57, 52
1, 120861, Control_c, 0, 64, 84
1, 120864, Note_off_c, 0, 74, 61
1, 120870, Note_on_c, 0, 69, 67
1, 120875, Poly_aftertouch_c, 0, 72, 0
1, 120876, Control_c, 0, 64, 72
1, 120889, Note_off_c, 0, 54, 55
1, 120890, Control_c, 0, 64, 63
1, 120894, Note_off_c, 0, 57, 54
1, 120895, Note_off_c, 0, 71, 44
1, 120899, Note_off_c, 0, 66, 60
1, 120905, Control_c, 0, 64, 58
1, 120907, Note_off_c, 0, 69, 61
1, 120934, Control_c, 0, 64, 60
1, 120949, Control_c, 0, 64, 63
1, 120961, Note_on_c, 0, 58, 64
1, 120964, Note_on_c, 0, 52, 51
1, 120964, Control_c, 0, 64, 67
1, 120979, Control_c, 0, 64, 74
1, 120980, Note_on_c, 0, 64, 48
1, 120981, Note_on_c, 0, 70, 76
1, 120994, Control_c, 0, 64, 81
1, 121010, Control_c, 0, 64, 87
1, 121020, Note_off_c, 0, 64, 51
1, 121025, Control_c, 0, 64, 92
1, 121035, Note_off_c, 0, 58, 61
1, 121039, Control_c, 0, 64, 96
1, 121045, Note_off_c, 0, 52, 58
1, 121063, Note_on_c, 0, 54, 54
1, 121084, Note_off_c, 0, 70, 54
1, 121084, Control_c, 0, 64, 85
1, 121087, Note_on_c, 0, 66, 49
1, 121099, Control_c, 0, 64, 70
1, 121112, Note_off_c, 0, 66, 56
1, 121113, Control_c, 0, 64, 60
1, 121128, Control_c, 0, 64, 53
1, 121143, Control_c, 0, 64, 52
1, 121147, Note_off_c, 0, 54, 43
1, 121158, Control_c, 0, 64, 55
1, 121162, Note_on_c, 0, 50, 63
1, 121163, Note_on_c, 0, 71, 81
1, 121171, Note_on_c, 0, 59, 62
1, 121173, Note_on_c, 0, 62, 71
1, 121173, Control_c, 0, 64, 59
1, 121187, Control_c, 0, 64, 63
1, 121200, Note_off_c, 0, 50, 60
1, 121202, Control_c, 0, 64, 68
1, 121207, Note_off_c, 0, 62, 65
1, 121209, Note_off_c, 0, 59, 63
1, 121217, Control_c, 0, 64, 76
1, 121224, Note_off_c, 0, 71, 62
1, 121231, Control_c, 0, 64, 87
1, 121246, Control_c, 0, 64, 99
1, 121250, Note_on_c, 0, 66, 60
1, 121259, Note_on_c, 0, 54, 69
1, 121261, Control_c, 0, 64, 105
1, 121276, Control_c, 0, 64, 102
1, 121291, Control_c, 0, 64, 85
1, 121306, Control_c, 0, 64, 67
1, 121312, Note_off_c, 0, 66, 61
1, 121320, Note_off_c, 0, 54, 61
1, 121321, Control_c, 0, 64, 54
1, 121336, Control_c, 0, 64, 48
1, 121351, Control_c, 0, 64, 49
1, 121351, Note_on_c, 0, 73, 87
1, 121359, Note_on_c, 0, 58, 61
1, 121359, Note_on_c, 0, 61, 68
1, 121365, Control_c, 0, 64, 56
1, 121365, Note_on_c, 0, 49, 67
1, 121371, Note_on_c, 0, 70, 57
1, 121387, Control_c, 0, 64, 63
1, 121402, Control_c, 0, 64, 72
1, 121415, Note_off_c, 0, 58, 62
1, 121417, Note_off_c, 0, 61, 58
1, 121417, Control_c, 0, 64, 88
1, 121431, Control_c, 0, 64, 127
1, 121447, Note_on_c, 0, 54, 71
1, 121451, Note_off_c, 0, 49, 58
1, 121467, Note_on_c, 0, 66, 64
1, 121474, Note_off_c, 0, 73, 59
1, 121476, Control_c, 0, 64, 110
1, 121491, Control_c, 0, 64, 80
1, 121506, Control_c, 0, 64, 63
1, 121518, Note_off_c, 0, 70, 45
1, 121520, Control_c, 0, 64, 54
1, 121525, Note_off_c, 0, 66, 57
1, 121526, Note_off_c, 0, 54, 54
1, 121535, Control_c, 0, 64, 55
1, 121550, Note_on_c, 0, 59, 68
1, 121550, Control_c, 0, 64, 60
1, 121552, Note_on_c, 0, 47, 60
1, 121554, Note_on_c, 0, 71, 75
1, 121556, Note_on_c, 0, 74, 79
1, 121558, Note_on_c, 0, 62, 74
1, 121565, Control_c, 0, 64, 66
1, 121580, Control_c, 0, 64, 76
1, 121595, Control_c, 0, 64, 91
1, 121606, Note_off_c, 0, 59, 64
1, 121608, Note_off_c, 0, 62, 62
1, 121609, Note_off_c, 0, 47, 64
1, 121610, Control_c, 0, 64, 127
1, 121624, Note_on_c, 0, 54, 31
1, 121626, Note_off_c, 0, 71, 63
1, 121634, Note_on_c, 0, 66, 54
1, 121641, Note_off_c, 0, 74, 64
1, 121657, Note_off_c, 0, 66, 57
1, 121658, Note_off_c, 0, 54, 52
1, 121669, Poly_aftertouch_c, 0, 48, 0
1, 121684, Control_c, 0, 64, 104
1, 121699, Control_c, 0, 64, 76
1, 121714, Control_c, 0, 64, 63
1, 121729, Control_c, 0, 64, 58
1, 121744, Control_c, 0, 64, 60
1, 121756, Note_on_c, 0, 50, 85
1, 121759, Control_c, 0, 64, 64
1, 121760, Note_on_c, 0, 81, 91
1, 121762, Note_on_c, 0, 38, 75
1, 121769, Note_on_c, 0, 69, 79
1, 121769, Note_on_c, 0, 78, 80
1, 121774, Control_c, 0, 64, 72
1, 121780, Note_off_c, 0, 50, 68
1, 121784, Note_off_c, 0, 38, 67
1, 121789, Control_c, 0, 64, 82
1, 121804, Control_c, 0, 64, 90
1, 121812, Note_off_c, 0, 69, 60
1, 121819, Control_c, 0, 64, 96
1, 121834, Control_c, 0, 64, 101
1, 121849, Control_c, 0, 64, 111
1, 121858, Note_on_c, 0, 74, 72
1, 121863, Control_c, 0, 64, 127
1, 121875, Note_off_c, 0, 81, 62
1, 121894, Note_off_c, 0, 78, 60
1, 121908, Control_c, 0, 64, 96
1, 121923, Control_c, 0, 64, 71
1, 121928, Note_off_c, 0, 74, 58
1, 121938, Control_c, 0, 64, 53
1, 121953, Control_c, 0, 64, 0
1, 121977, Note_on_c, 0, 31, 84
1, 121980, Note_on_c, 0, 43, 82
1, 121984, Note_on_c, 0, 79, 71
1, 121986, Note_on_c, 0, 38, 68
1, 121986, Note_on_c, 0, 70, 86
1, 121986, Note_on_c, 0, 82, 83
1, 121997, Control_c, 0, 64, 47
1, 122004, Note_off_c, 0, 43, 66
1, 122005, Note_off_c, 0, 31, 65
1, 122005, Note_off_c, 0, 82, 72
1, 122008, Note_off_c, 0, 79, 71
1, 122012, Control_c, 0, 64, 61
1, 122013, Note_off_c, 0, 70, 68
1, 122014, Note_off_c, 0, 38, 65
1, 122027, Control_c, 0, 64, 70
1, 122042, Control_c, 0, 64, 82
1, 122056, Control_c, 0, 64, 95
1, 122071, Control_c, 0, 64, 105
1, 122086, Control_c, 0, 64, 110
1, 122101, Control_c, 0, 64, 112
1, 122230, Note_on_c, 0, 58, 84
1, 122238, Note_on_c, 0, 70, 87
1, 122242, Control_c, 0, 64, 110
1, 122245, Note_on_c, 0, 50, 63
1, 122254, Note_off_c, 0, 58, 64
1, 122257, Note_on_c, 0, 67, 53
1, 122257, Note_on_c, 0, 62, 55
1, 122262, Note_off_c, 0, 70, 66
1, 122265, Note_off_c, 0, 50, 64
1, 122269, Note_on_c, 0, 55, 25
1, 122280, Note_off_c, 0, 62, 59
1, 122281, Note_off_c, 0, 67, 61
1, 122325, Note_on_c, 0, 70, 83
1, 122326, Note_off_c, 0, 55, 0
1, 122331, Note_on_c, 0, 58, 70
1, 122332, Note_on_c, 0, 50, 65
1, 122333, Note_on_c, 0, 67, 73
1, 122342, Note_on_c, 0, 62, 59
1, 122345, Control_c, 0, 64, 93
1, 122346, Note_on_c, 0, 55, 23
1, 122354, Note_off_c, 0, 50, 63
1, 122355, Note_off_c, 0, 58, 64
1, 122359, Note_off_c, 0, 67, 68
1, 122360, Note_off_c, 0, 62, 65
1, 122360, Control_c, 0, 64, 73
1, 122365, Note_off_c, 0, 70, 57
1, 122373, Note_off_c, 0, 55, 54
1, 122375, Control_c, 0, 64, 58
1, 122389, Control_c, 0, 64, 49
1, 122404, Control_c, 0, 64, 51
1, 122419, Note_on_c, 0, 70, 77
1, 122419, Control_c, 0, 64, 57
1, 122422, Note_on_c, 0, 55, 60
1, 122422, Note_on_c, 0, 58, 70
1, 122423, Note_on_c, 0, 62, 69
1, 122427, Note_on_c, 0, 50, 63
1, 122433, Note_on_c, 0, 67, 66
1, 122434, Control_c, 0, 64, 63
1, 122449, Control_c, 0, 64, 69
1, 122462, Note_off_c, 0, 62, 59
1, 122463, Control_c, 0, 64, 79
1, 122478, Control_c, 0, 64, 102
1, 122489, Note_off_c, 0, 50, 59
1, 122493, Control_c, 0, 64, 127
1, 122494, Note_off_c, 0, 67, 62
1, 122511, Note_on_c, 0, 74, 79
1, 122515, Note_on_c, 0, 62, 50
1, 122516, Note_off_c, 0, 58, 58
1, 122526, Note_off_c, 0, 70, 65
1, 122546, Note_off_c, 0, 62, 60
1, 122550, Note_off_c, 0, 55, 60
1, 122552, Control_c, 0, 64, 89
1, 122555, Note_off_c, 0, 74, 57
1, 122567, Control_c, 0, 64, 68
1, 122582, Control_c, 0, 64, 59
1, 122597, Control_c, 0, 64, 57
1, 122612, Control_c, 0, 64, 60
1, 122613, Note_on_c, 0, 58, 44
1, 122622, Note_on_c, 0, 70, 83
1, 122627, Note_on_c, 0, 53, 62
1, 122627, Control_c, 0, 64, 64
1, 122642, Note_on_c, 0, 65, 63
1, 122642, Control_c, 0, 64, 69
1, 122657, Control_c, 0, 64, 76
1, 122672, Control_c, 0, 64, 90
1, 122675, Note_off_c, 0, 58, 54
1, 122686, Control_c, 0, 64, 106
1, 122689, Note_off_c, 0, 65, 54
1, 122701, Control_c, 0, 64, 114
1, 122716, Note_on_c, 0, 67, 44
1, 122726, Note_on_c, 0, 55, 60
1, 122731, Control_c, 0, 64, 111
1, 122741, Note_off_c, 0, 53, 55
1, 122746, Control_c, 0, 64, 92
1, 122750, Note_off_c, 0, 67, 52
1, 122761, Control_c, 0, 64, 73
1, 122775, Control_c, 0, 64, 60
1, 122790, Control_c, 0, 64, 55
1, 122805, Control_c, 0, 64, 57
1, 122805, Note_off_c, 0, 55, 62
1, 122808, Note_on_c, 0, 52, 72
1, 122811, Note_on_c, 0, 72, 79
1, 122819, Note_on_c, 0, 60, 65
1, 122820, Note_on_c, 0, 64, 65
1, 122820, Control_c, 0, 64, 62
1, 122835, Control_c, 0, 64, 66
1, 122850, Control_c, 0, 64, 74
1, 122865, Control_c, 0, 64, 91
1, 122879, Note_off_c, 0, 64, 58
1, 122886, Control_c, 0, 64, 115
1, 122895, Note_off_c, 0, 60, 58
1, 122897, Note_off_c, 0, 52, 61
1, 122901, Control_c, 0, 64, 125
1, 122916, Control_c, 0, 64, 117
1, 122919, Note_on_c, 0, 55, 59
1, 122920, Note_off_c, 0, 72, 61
1, 122930, Note_on_c, 0, 67, 48
1, 122931, Control_c, 0, 64, 96
1, 122946, Control_c, 0, 64, 74
1, 122960, Control_c, 0, 64, 61
1, 122967, Note_off_c, 0, 67, 52
1, 122974, Note_off_c, 0, 70, 60
1, 122975, Control_c, 0, 64, 54
1, 122980, Note_off_c, 0, 55, 63
1, 122990, Control_c, 0, 64, 57
1, 123005, Control_c, 0, 64, 62
1, 123017, Note_on_c, 0, 73, 89
1, 123019, Note_on_c, 0, 61, 74
1, 123020, Control_c, 0, 64, 67
1, 123025, Note_on_c, 0, 63, 77
1, 123028, Note_on_c, 0, 70, 58
1, 123035, Control_c, 0, 64, 77
1, 123044, Note_on_c, 0, 51, 67
1, 123050, Control_c, 0, 64, 97
1, 123065, Control_c, 0, 64, 127
1, 123080, Note_off_c, 0, 63, 62
1, 123089, Note_off_c, 0, 61, 61
1, 123111, Note_on_c, 0, 55, 65
1, 123114, Note_off_c, 0, 51, 57
1, 123124, Control_c, 0, 64, 96
1, 123124, Note_on_c, 0, 67, 52
1, 123138, Control_c, 0, 64, 74
1, 123141, Note_off_c, 0, 73, 61
1, 123153, Control_c, 0, 64, 62
1, 123168, Control_c, 0, 64, 56
1, 123174, Note_off_c, 0, 67, 54
1, 123183, Control_c, 0, 64, 57
1, 123194, Note_off_c, 0, 55, 54
1, 123198, Control_c, 0, 64, 60
1, 123203, Note_off_c, 0, 70, 0
1, 123203, Note_on_c, 0, 70, 35
1, 123210, Note_on_c, 0, 74, 85
1, 123212, Note_on_c, 0, 50, 77
1, 123212, Control_c, 0, 64, 64
1, 123216, Note_on_c, 0, 58, 74
1, 123216, Note_on_c, 0, 62, 80
1, 123227, Control_c, 0, 64, 70
1, 123242, Control_c, 0, 64, 79
1, 123256, Control_c, 0, 64, 88
1, 123262, Note_on_c, 0, 55, 36
1, 123267, Note_off_c, 0, 58, 63
1, 123268, Note_off_c, 0, 62, 61
1, 123271, Control_c, 0, 64, 98
1, 123282, Note_on_c, 0, 67, 59
1, 123285, Note_off_c, 0, 50, 60
1, 123285, Control_c, 0, 64, 107
1, 123290, Note_off_c, 0, 55, 59
1, 123300, Control_c, 0, 64, 116
1, 123305, Note_off_c, 0, 70, 62
1, 123309, Note_off_c, 0, 67, 65
1, 123315, Note_off_c, 0, 74, 59
1, 123315, Control_c, 0, 64, 119
1, 123342, Poly_aftertouch_c, 0, 68, 0
1, 123345, Control_c, 0, 64, 110
1, 123360, Control_c, 0, 64, 89
1, 123375, Control_c, 0, 64, 68
1, 123389, Control_c, 0, 64, 59
1, 123405, Control_c, 0, 64, 55
1, 123420, Control_c, 0, 64, 58
1, 123425, Note_on_c, 0, 50, 85
1, 123427, Note_on_c, 0, 81, 90
1, 123433, Note_on_c, 0, 38, 77
1, 123434, Note_on_c, 0, 69, 80
1, 123434, Control_c, 0, 64, 62
1, 123447, Note_off_c, 0, 50, 71
1, 123448, Note_on_c, 0, 78, 66
1, 123449, Control_c, 0, 64, 66
1, 123456, Note_off_c, 0, 38, 65
1, 123464, Control_c, 0, 64, 73
1, 123479, Control_c, 0, 64, 82
1, 123485, Note_off_c, 0, 69, 61
1, 123487, Note_off_c, 0, 78, 0
1, 123494, Control_c, 0, 64, 91
1, 123509, Control_c, 0, 64, 99
1, 123524, Poly_aftertouch_c, 0, 78, 127
1, 123524, Control_c, 0, 64, 107
1, 123539, Note_on_c, 0, 74, 60
1, 123539, Control_c, 0, 64, 112
1, 123544, Note_off_c, 0, 81, 63
1, 123568, Control_c, 0, 64, 96
1, 123583, Control_c, 0, 64, 74
1, 123592, Note_off_c, 0, 74, 60
1, 123598, Control_c, 0, 64, 57
1, 123612, Poly_aftertouch_c, 0, 78, 0
1, 123613, Control_c, 0, 64, 33
1, 123634, Control_c, 0, 64, 0
1, 123655, Note_on_c, 0, 82, 91
1, 123656, Note_on_c, 0, 31, 84
1, 123657, Note_on_c, 0, 43, 80
1, 123660, Note_on_c, 0, 70, 92
1, 123662, Note_on_c, 0, 79, 84
1, 123663, Note_on_c, 0, 38, 71
1, 123664, Control_c, 0, 64, 30
1, 123679, Note_off_c, 0, 31, 66
1, 123679, Control_c, 0, 64, 48
1, 123681, Note_off_c, 0, 43, 67
1, 123682, Note_off_c, 0, 79, 70
1, 123687, Note_off_c, 0, 70, 62
1, 123689, Note_off_c, 0, 38, 65
1, 123694, Note_off_c, 0, 82, 64
1, 123694, Control_c, 0, 64, 61
1, 123708, Control_c, 0, 64, 69
1, 123723, Control_c, 0, 64, 75
1, 123738, Control_c, 0, 64, 80
1, 123753, Control_c, 0, 64, 82
1, 123768, Control_c, 0, 64, 83
1, 123783, Control_c, 0, 64, 84
1, 123907, Note_on_c, 0, 58, 76
1, 123916, Note_on_c, 0, 70, 90
1, 123923, Note_on_c, 0, 50, 51
1, 123933, Note_on_c, 0, 62, 61
1, 123933, Note_off_c, 0, 58, 66
1, 123941, Note_off_c, 0, 70, 66
1, 123946, Note_on_c, 0, 67, 32
1, 123950, Note_off_c, 0, 50, 57
1, 123954, Note_off_c, 0, 62, 60
1, 123975, Control_c, 0, 64, 84
1, 123977, Note_off_c, 0, 67, 49
1, 123990, Control_c, 0, 64, 85
1, 123998, Note_on_c, 0, 58, 70
1, 123998, Poly_aftertouch_c, 0, 55, 127
1, 124006, Control_c, 0, 64, 85
1, 124008, Note_on_c, 0, 70, 87
1, 124012, Note_on_c, 0, 50, 60
1, 124014, Note_on_c, 0, 67, 62
1, 124015, Note_on_c, 0, 62, 70
1, 124021, Control_c, 0, 64, 85
1, 124033, Note_off_c, 0, 58, 59
1, 124035, Note_off_c, 0, 50, 60
1, 124035, Control_c, 0, 64, 77
1, 124042, Note_off_c, 0, 62, 66
1, 124045, Note_off_c, 0, 67, 65
1, 124050, Control_c, 0, 64, 66
1, 124056, Poly_aftertouch_c, 0, 55, 0
1, 124057, Note_off_c, 0, 70, 62
1, 124065, Control_c, 0, 64, 56
1, 124080, Control_c, 0, 64, 54
1, 124095, Control_c, 0, 64, 57
1, 124108, Note_on_c, 0, 70, 81
1, 124109, Control_c, 0, 64, 62
1, 124111, Note_on_c, 0, 50, 66
1, 124113, Note_on_c, 0, 58, 78
1, 124114, Note_on_c, 0, 55, 60
1, 124123, Note_on_c, 0, 67, 73
1, 124124, Control_c, 0, 64, 66
1, 124129, Note_on_c, 0, 62, 68
1, 124139, Control_c, 0, 64, 72
1, 124153, Control_c, 0, 64, 81
1, 124159, Note_off_c, 0, 62, 62
1, 124168, Control_c, 0, 64, 95
1, 124183, Control_c, 0, 64, 107
1, 124185, Note_off_c, 0, 67, 56
1, 124199, Control_c, 0, 64, 109
1, 124203, Note_off_c, 0, 50, 52
1, 124203, Note_off_c, 0, 58, 48
1, 124206, Note_on_c, 0, 74, 81
1, 124218, Note_on_c, 0, 62, 62
1, 124222, Note_off_c, 0, 70, 64
1, 124229, Control_c, 0, 64, 103
1, 124244, Control_c, 0, 64, 87
1, 124252, Note_off_c, 0, 62, 60
1, 124257, Note_off_c, 0, 74, 62
1, 124257, Note_off_c, 0, 55, 61
1, 124258, Control_c, 0, 64, 69
1, 124273, Control_c, 0, 64, 60
1, 124288, Control_c, 0, 64, 58
1, 124303, Control_c, 0, 64, 61
1, 124311, Note_on_c, 0, 58, 51
1, 124311, Note_on_c, 0, 70, 90
1, 124318, Control_c, 0, 64, 65
1, 124324, Note_on_c, 0, 53, 62
1, 124325, Note_on_c, 0, 65, 74
1, 124332, Control_c, 0, 64, 69
1, 124347, Control_c, 0, 64, 76
1, 124362, Control_c, 0, 64, 88
1, 124384, Control_c, 0, 64, 98
1, 124390, Note_off_c, 0, 65, 51
1, 124402, Note_off_c, 0, 58, 57
1, 124413, Note_on_c, 0, 55, 58
1, 124421, Note_on_c, 0, 67, 51
1, 124429, Control_c, 0, 64, 92
1, 124435, Note_off_c, 0, 53, 59
1, 124444, Control_c, 0, 64, 77
1, 124455, Note_off_c, 0, 67, 60
1, 124458, Control_c, 0, 64, 64
1, 124473, Control_c, 0, 64, 56
1, 124488, Control_c, 0, 64, 57
1, 124499, Note_on_c, 0, 72, 88
1, 124503, Note_off_c, 0, 55, 58
1, 124503, Control_c, 0, 64, 60
1, 124504, Note_on_c, 0, 52, 67
1, 124504, Note_on_c, 0, 64, 72
1, 124513, Note_on_c, 0, 60, 58
1, 124518, Control_c, 0, 64, 64
1, 124532, Control_c, 0, 64, 71
1, 124547, Control_c, 0, 64, 81
1, 124559, Note_off_c, 0, 64, 56
1, 124562, Control_c, 0, 64, 101
1, 124576, Control_c, 0, 64, 111
1, 124579, Note_on_c, 0, 55, 54
1, 124585, Note_off_c, 0, 52, 62
1, 124585, Note_off_c, 0, 60, 60
1, 124595, Note_off_c, 0, 72, 62
1, 124606, Control_c, 0, 64, 100
1, 124608, Note_on_c, 0, 67, 48
1, 124621, Control_c, 0, 64, 82
1, 124636, Control_c, 0, 64, 67
1, 124647, Note_off_c, 0, 67, 53
1, 124650, Control_c, 0, 64, 59
1, 124656, Note_off_c, 0, 70, 60
1, 124656, Note_off_c, 0, 55, 64
1, 124665, Control_c, 0, 64, 58
1, 124680, Control_c, 0, 64, 62
1, 124692, Note_on_c, 0, 73, 90
1, 124693, Note_on_c, 0, 61, 75
1, 124695, Control_c, 0, 64, 67
1, 124697, Note_on_c, 0, 63, 80
1, 124702, Note_on_c, 0, 70, 54
1, 124705, Note_on_c, 0, 51, 70
1, 124710, Control_c, 0, 64, 75
1, 124725, Control_c, 0, 64, 91
1, 124740, Control_c, 0, 64, 127
1, 124767, Note_off_c, 0, 63, 60
1, 124784, Note_off_c, 0, 61, 60
1, 124788, Note_on_c, 0, 55, 65
1, 124793, Note_off_c, 0, 51, 56
1, 124805, Note_on_c, 0, 67, 57
1, 124825, Note_off_c, 0, 73, 58
1, 124828, Control_c, 0, 64, 77
1, 124843, Control_c, 0, 64, 59
1, 124851, Note_off_c, 0, 67, 57
1, 124857, Control_c, 0, 64, 39
1, 124858, Note_off_c, 0, 55, 60
1, 124872, Control_c, 0, 64, 35
1, 124881, Note_off_c, 0, 70, 0
1, 124881, Note_on_c, 0, 70, 25
1, 124887, Note_on_c, 0, 74, 89
1, 124887, Control_c, 0, 64, 42
1, 124890, Note_on_c, 0, 50, 77
1, 124893, Note_on_c, 0, 62, 80
1, 124894, Note_on_c, 0, 58, 74
1, 124901, Control_c, 0, 64, 53
1, 124916, Control_c, 0, 64, 63
1, 124931, Control_c, 0, 64, 72
1, 124946, Control_c, 0, 64, 88
1, 124960, Note_off_c, 0, 58, 63
1, 124961, Control_c, 0, 64, 127
1, 124963, Note_off_c, 0, 62, 50
1, 124964, Note_on_c, 0, 55, 57
1, 124969, Note_off_c, 0, 50, 60
1, 124981, Note_on_c, 0, 67, 65
1, 124993, Note_off_c, 0, 55, 63
1, 125016, Note_off_c, 0, 67, 65
1, 125018, Note_off_c, 0, 74, 57
1, 125026, Note_off_c, 0, 70, 56
1, 125066, Control_c, 0, 64, 77
1, 125080, Control_c, 0, 64, 62
1, 125095, Control_c, 0, 64, 57
1, 125110, Control_c, 0, 64, 59
1, 125130, Note_on_c, 0, 46, 89
1, 125130, Note_on_c, 0, 77, 86
1, 125132, Control_c, 0, 64, 65
1, 125136, Note_on_c, 0, 34, 80
1, 125136, Note_on_c, 0, 74, 79
1, 125137, Note_on_c, 0, 65, 80
1, 125147, Control_c, 0, 64, 72
1, 125156, Note_off_c, 0, 46, 68
1, 125160, Note_off_c, 0, 34, 65
1, 125162, Control_c, 0, 64, 86
1, 125177, Control_c, 0, 64, 102
1, 125192, Control_c, 0, 64, 127
1, 125237, Note_on_c, 0, 70, 76
1, 125241, Note_off_c, 0, 65, 50
1, 125280, Note_off_c, 0, 77, 57
1, 125280, Note_off_c, 0, 74, 59
1, 125310, Control_c, 0, 64, 90
1, 125324, Control_c, 0, 64, 62
1, 125339, Control_c, 0, 64, 0
1, 125363, Note_off_c, 0, 70, 38
1, 125403, Note_on_c, 0, 27, 88
1, 125403, Note_on_c, 0, 75, 77
1, 125404, Note_on_c, 0, 79, 90
1, 125406, Note_on_c, 0, 39, 94
1, 125408, Note_on_c, 0, 67, 78
1, 125414, Control_c, 0, 64, 49
1, 125428, Control_c, 0, 64, 69
1, 125429, Note_off_c, 0, 27, 68
1, 125429, Note_off_c, 0, 39, 71
1, 125443, Control_c, 0, 64, 89
1, 125458, Control_c, 0, 64, 127
1, 125466, Note_off_c, 0, 67, 63
1, 125524, Note_off_c, 0, 79, 65
1, 125525, Note_off_c, 0, 75, 63
1, 125755, Note_on_c, 0, 91, 88
1, 125758, Note_on_c, 0, 46, 72
1, 125758, Note_on_c, 0, 87, 80
1, 125760, Note_on_c, 0, 58, 75
1, 125818, Note_off_c, 0, 87, 62
1, 125823, Note_off_c, 0, 46, 60
1, 125826, Note_off_c, 0, 58, 61
1, 125908, Note_on_c, 0, 94, 83
1, 125910, Note_on_c, 0, 58, 79
1, 125928, Note_on_c, 0, 82, 77
1, 125929, Note_on_c, 0, 46, 52
1, 125938, Note_off_c, 0, 58, 59
1, 125942, Note_off_c, 0, 91, 27
1, 125965, Note_off_c, 0, 46, 55
1, 125987, Note_off_c, 0, 82, 52
1, 126014, Control_c, 0, 64, 113
1, 126028, Control_c, 0, 64, 71
1, 126043, Control_c, 0, 64, 48
1, 126045, Note_on_c, 0, 63, 84
1, 126046, Note_off_c, 0, 94, 40
1, 126048, Note_on_c, 0, 60, 72
1, 126049, Note_on_c, 0, 51, 76
1, 126050, Note_on_c, 0, 87, 81
1, 126052, Note_on_c, 0, 91, 71
1, 126054, Note_on_c, 0, 56, 70
1, 126058, Control_c, 0, 64, 31
1, 126073, Control_c, 0, 64, 54
1, 126088, Control_c, 0, 64, 67
1, 126102, Control_c, 0, 64, 76
1, 126117, Control_c, 0, 64, 112
1, 126132, Note_off_c, 0, 87, 59
1, 126132, Control_c, 0, 64, 127
1, 126141, Note_off_c, 0, 60, 64
1, 126144, Note_off_c, 0, 56, 61
1, 126149, Note_off_c, 0, 51, 57
1, 126150, Note_off_c, 0, 63, 59
1, 126159, Note_on_c, 0, 94, 80
1, 126168, Note_off_c, 0, 91, 62
1, 126171, Note_on_c, 0, 82, 72
1, 126236, Control_c, 0, 64, 120
1, 126242, Note_off_c, 0, 82, 55
1, 126243, Note_on_c, 0, 65, 83
1, 126246, Note_on_c, 0, 53, 74
1, 126248, Note_on_c, 0, 58, 75
1, 126248, Note_on_c, 0, 62, 72
1, 126249, Note_on_c, 0, 86, 72
1, 126251, Note_off_c, 0, 94, 65
1, 126251, Control_c, 0, 64, 109
1, 126252, Note_on_c, 0, 89, 75
1, 126266, Control_c, 0, 64, 114
1, 126280, Control_c, 0, 64, 127
1, 126305, Note_off_c, 0, 86, 63
1, 126319, Note_off_c, 0, 53, 60
1, 126331, Note_off_c, 0, 62, 61
1, 126337, Note_off_c, 0, 58, 60
1, 126341, Note_on_c, 0, 94, 75
1, 126341, Note_off_c, 0, 89, 63
1, 126341, Note_on_c, 0, 82, 75
1, 126344, Note_off_c, 0, 65, 56
1, 126363, Note_off_c, 0, 82, 69
1, 126364, Note_off_c, 0, 94, 69
1, 126399, Control_c, 0, 64, 92
1, 126414, Control_c, 0, 64, 79
1, 126427, Note_on_c, 0, 60, 69
1, 126427, Note_on_c, 0, 63, 72
1, 126428, Control_c, 0, 64, 77
1, 126429, Note_on_c, 0, 67, 74
1, 126433, Note_on_c, 0, 55, 73
1, 126443, Control_c, 0, 64, 81
1, 126445, Note_on_c, 0, 84, 80
1, 126448, Note_on_c, 0, 87, 82
1, 126458, Control_c, 0, 64, 98
1, 126466, Note_off_c, 0, 67, 61
1, 126472, Control_c, 0, 64, 127
1, 126475, Note_off_c, 0, 60, 63
1, 126478, Note_off_c, 0, 63, 61
1, 126490, Note_off_c, 0, 55, 62
1, 126493, Note_off_c, 0, 84, 60
1, 126528, Note_off_c, 0, 87, 64
1, 126554, Note_on_c, 0, 91, 59
1, 126562, Note_on_c, 0, 79, 57
1, 126574, Note_off_c, 0, 91, 61
1, 126575, Note_on_c, 0, 93, 20
1, 126586, Note_off_c, 0, 79, 60
1, 126592, Control_c, 0, 64, 109
1, 126607, Control_c, 0, 64, 100
1, 126628, Note_off_c, 0, 93, 32
1, 126636, Note_on_c, 0, 58, 73
1, 126645, Control_c, 0, 64, 104
1, 126649, Note_on_c, 0, 46, 57
1, 126651, Note_on_c, 0, 82, 83
1, 126659, Control_c, 0, 64, 127
1, 126660, Note_on_c, 0, 79, 69
1, 126664, Note_off_c, 0, 58, 63
1, 126672, Note_off_c, 0, 46, 61
1, 126684, Note_off_c, 0, 79, 68
1, 126725, Note_off_c, 0, 82, 62
1, 126732, Note_on_c, 0, 58, 65
1, 126733, Note_on_c, 0, 46, 69
1, 126746, Note_on_c, 0, 88, 62
1, 126746, Note_on_c, 0, 86, 69
1, 126752, Note_on_c, 0, 74, 52
1, 126757, Note_off_c, 0, 58, 71
1, 126761, Note_off_c, 0, 46, 66
1, 126773, Note_off_c, 0, 88, 67
1, 126775, Note_off_c, 0, 74, 58
1, 126777, Control_c, 0, 64, 96
1, 126788, Note_off_c, 0, 86, 55
1, 126792, Control_c, 0, 64, 72
1, 126807, Control_c, 0, 64, 60
1, 126809, Poly_aftertouch_c, 0, 76, 0
1, 126822, Control_c, 0, 64, 58
1, 126834, Note_on_c, 0, 75, 75
1, 126834, Note_on_c, 0, 79, 70
1, 126837, Note_on_c, 0, 60, 83
1, 126837, Control_c, 0, 64, 63
1, 126841, Note_on_c, 0, 51, 74
1, 126847, Note_on_c, 0, 48, 66
1, 126851, Control_c, 0, 64, 73
1, 126866, Control_c, 0, 64, 89
1, 126874, Note_on_c, 0, 55, 36
1, 126881, Control_c, 0, 64, 127
1, 126883, Note_off_c, 0, 48, 62
1, 126888, Note_off_c, 0, 79, 63
1, 126895, Note_off_c, 0, 60, 58
1, 126907, Note_off_c, 0, 75, 61
1, 126910, Note_off_c, 0, 55, 45
1, 126913, Note_off_c, 0, 51, 56
1, 126925, Note_on_c, 0, 76, 72
1, 126927, Note_on_c, 0, 84, 80
1, 126970, Control_c, 0, 64, 102
1, 126971, Note_off_c, 0, 76, 60
1, 126984, Control_c, 0, 64, 72
1, 126987, Note_off_c, 0, 84, 59
1, 127000, Control_c, 0, 64, 59
1, 127015, Control_c, 0, 64, 57
1, 127017, Note_on_c, 0, 62, 78
1, 127019, Note_on_c, 0, 77, 73
1, 127023, Note_on_c, 0, 50, 68
1, 127023, Note_on_c, 0, 58, 71
1, 127030, Control_c, 0, 64, 63
1, 127031, Note_on_c, 0, 53, 56
1, 127038, Note_on_c, 0, 80, 81
1, 127038, Note_off_c, 0, 62, 70
1, 127044, Control_c, 0, 64, 71
1, 127048, Note_off_c, 0, 58, 67
1, 127054, Note_off_c, 0, 50, 67
1, 127056, Note_off_c, 0, 53, 61
1, 127059, Control_c, 0, 64, 88
1, 127072, Note_off_c, 0, 77, 65
1, 127074, Control_c, 0, 64, 127
1, 127119, Note_on_c, 0, 82, 80
1, 127153, Note_on_c, 0, 70, 52
1, 127157, Note_off_c, 0, 80, 60
1, 127175, Note_off_c, 0, 70, 58
1, 127193, Control_c, 0, 64, 84
1, 127202, Note_off_c, 0, 82, 61
1, 127208, Control_c, 0, 64, 60
1, 127223, Control_c, 0, 64, 29
1, 127238, Control_c, 0, 64, 0
1, 127241, Note_on_c, 0, 39, 92
1, 127243, Note_on_c, 0, 27, 80
1, 127246, Note_on_c, 0, 79, 80
1, 127252, Control_c, 0, 64, 32
1, 127253, Note_on_c, 0, 75, 67
1, 127265, Note_off_c, 0, 39, 70
1, 127265, Note_off_c, 0, 27, 66
1, 127267, Control_c, 0, 64, 51
1, 127282, Control_c, 0, 64, 62
1, 127296, Control_c, 0, 64, 72
1, 127311, Control_c, 0, 64, 83
1, 127326, Control_c, 0, 64, 93
1, 127341, Control_c, 0, 64, 95
1, 127356, Control_c, 0, 64, 96
1, 127384, Note_off_c, 0, 75, 55
1, 127448, Note_off_c, 0, 79, 0
1, 127448, Note_on_c, 0, 79, 44
1, 127452, Note_on_c, 0, 75, 60
1, 127457, Note_on_c, 0, 46, 74
1, 127483, Note_off_c, 0, 46, 65
1, 127542, Control_c, 0, 64, 106
1, 127543, Note_off_c, 0, 75, 50
1, 127548, Note_on_c, 0, 46, 70
1, 127557, Note_on_c, 0, 70, 67
1, 127557, Control_c, 0, 64, 127
1, 127564, Note_on_c, 0, 82, 78
1, 127580, Note_off_c, 0, 79, 63
1, 127604, Note_off_c, 0, 70, 61
1, 127616, Control_c, 0, 64, 86
1, 127622, Note_off_c, 0, 46, 62
1, 127630, Note_off_c, 0, 82, 61
1, 127631, Control_c, 0, 64, 64
1, 127646, Control_c, 0, 64, 51
1, 127652, Note_on_c, 0, 51, 80
1, 127655, Note_on_c, 0, 74, 62
1, 127657, Note_on_c, 0, 77, 60
1, 127675, Control_c, 0, 64, 58
1, 127690, Control_c, 0, 64, 64
1, 127693, Note_off_c, 0, 74, 64
1, 127705, Control_c, 0, 64, 71
1, 127716, Note_off_c, 0, 77, 58
1, 127719, Control_c, 0, 64, 84
1, 127734, Control_c, 0, 64, 107
1, 127738, Note_on_c, 0, 79, 83
1, 127749, Control_c, 0, 64, 127
1, 127757, Note_on_c, 0, 67, 54
1, 127765, Note_off_c, 0, 51, 49
1, 127778, Note_off_c, 0, 67, 64
1, 127784, Note_off_c, 0, 79, 62
1, 127793, Control_c, 0, 64, 89
1, 127808, Control_c, 0, 64, 70
1, 127823, Control_c, 0, 64, 61
1, 127831, Note_on_c, 0, 46, 71
1, 127834, Note_on_c, 0, 53, 74
1, 127838, Control_c, 0, 64, 59
1, 127843, Note_on_c, 0, 75, 69
1, 127846, Note_on_c, 0, 72, 51
1, 127853, Control_c, 0, 64, 64
1, 127867, Control_c, 0, 64, 71
1, 127881, Note_off_c, 0, 72, 65
1, 127882, Control_c, 0, 64, 81
1, 127897, Control_c, 0, 64, 97
1, 127912, Control_c, 0, 64, 127
1, 127919, Note_off_c, 0, 75, 63
1, 127936, Note_on_c, 0, 67, 66
1, 127938, Poly_aftertouch_c, 0, 71, 0
1, 127947, Note_on_c, 0, 79, 44
1, 127956, Control_c, 0, 64, 105
1, 127963, Note_off_c, 0, 67, 69
1, 127971, Control_c, 0, 64, 77
1, 127976, Note_off_c, 0, 53, 59
1, 127978, Note_off_c, 0, 79, 59
1, 127986, Control_c, 0, 64, 62
1, 127990, Note_off_c, 0, 46, 61
1, 128001, Control_c, 0, 64, 54
1, 128016, Control_c, 0, 64, 55
1, 128019, Note_on_c, 0, 55, 79
1, 128025, Note_on_c, 0, 51, 72
1, 128031, Control_c, 0, 64, 59
1, 128031, Note_on_c, 0, 70, 76
1, 128034, Note_on_c, 0, 67, 72
1, 128045, Control_c, 0, 64, 65
1, 128060, Control_c, 0, 64, 73
1, 128072, Note_off_c, 0, 67, 62
1, 128075, Control_c, 0, 64, 85
1, 128090, Control_c, 0, 64, 100
1, 128100, Note_off_c, 0, 51, 60
1, 128105, Note_off_c, 0, 70, 62
1, 128105, Control_c, 0, 64, 111
1, 128125, Note_on_c, 0, 74, 79
1, 128139, Note_on_c, 0, 62, 71
1, 128141, Control_c, 0, 64, 100
1, 128156, Control_c, 0, 64, 76
1, 128170, Note_off_c, 0, 62, 65
1, 128171, Note_off_c, 0, 74, 63
1, 128171, Control_c, 0, 64, 62
1, 128186, Control_c, 0, 64, 53
1, 128191, Note_off_c, 0, 55, 61
1, 128202, Control_c, 0, 64, 54
1, 128216, Note_on_c, 0, 56, 81
1, 128217, Control_c, 0, 64, 58
1, 128231, Control_c, 0, 64, 62
1, 128232, Note_on_c, 0, 67, 64
1, 128233, Note_on_c, 0, 63, 71
1, 128242, Note_off_c, 0, 56, 67
1, 128246, Control_c, 0, 64, 68
1, 128261, Control_c, 0, 64, 77
1, 128276, Control_c, 0, 64, 84
1, 128291, Control_c, 0, 64, 86
1, 128296, Note_off_c, 0, 63, 60
1, 128301, Note_off_c, 0, 67, 63
1, 128302, Note_on_c, 0, 56, 79
1, 128305, Control_c, 0, 64, 84
1, 128318, Note_on_c, 0, 72, 80
1, 128320, Control_c, 0, 64, 73
1, 128326, Note_on_c, 0, 60, 70
1, 128335, Control_c, 0, 64, 60
1, 128350, Control_c, 0, 64, 44
1, 128355, Note_off_c, 0, 60, 65
1, 128365, Control_c, 0, 64, 42
1, 128377, Note_off_c, 0, 56, 61
1, 128380, Control_c, 0, 64, 45
1, 128394, Note_off_c, 0, 72, 61
1, 128394, Control_c, 0, 64, 53
1, 128409, Control_c, 0, 64, 60
1, 128410, Note_on_c, 0, 58, 80
1, 128412, Note_on_c, 0, 63, 69
1, 128424, Control_c, 0, 64, 66
1, 128425, Note_on_c, 0, 67, 58
1, 128433, Note_off_c, 0, 58, 70
1, 128439, Control_c, 0, 64, 70
1, 128454, Control_c, 0, 64, 70
1, 128466, Note_off_c, 0, 63, 62
1, 128467, Note_on_c, 0, 68, 8
1, 128468, Control_c, 0, 64, 69
1, 128483, Control_c, 0, 64, 69
1, 128484, Note_off_c, 0, 67, 65
1, 128498, Control_c, 0, 64, 68
1, 128502, Note_on_c, 0, 62, 70
1, 128513, Note_on_c, 0, 70, 68
1, 128513, Control_c, 0, 64, 67
1, 128515, Note_off_c, 0, 68, 27
1, 128528, Control_c, 0, 64, 66
1, 128536, Note_off_c, 0, 62, 65
1, 128542, Control_c, 0, 64, 64
1, 128545, Note_off_c, 0, 70, 53
1, 128557, Control_c, 0, 64, 63
1, 128572, Control_c, 0, 64, 61
1, 128587, Control_c, 0, 64, 58
1, 128593, Note_on_c, 0, 62, 66
1, 128596, Note_on_c, 0, 46, 79
1, 128602, Control_c, 0, 64, 55
1, 128616, Control_c, 0, 64, 51
1, 128623, Note_on_c, 0, 65, 51
1, 128631, Control_c, 0, 64, 45
1, 128646, Control_c, 0, 64, 34
1, 128661, Note_off_c, 0, 46, 60
1, 128661, Control_c, 0, 64, 0
1, 128663, Note_off_c, 0, 62, 63
1, 128666, Note_off_c, 0, 65, 59
1, 128696, Note_on_c, 0, 68, 72
1, 128703, Note_on_c, 0, 56, 66
1, 128724, Note_off_c, 0, 68, 62
1, 128733, Note_off_c, 0, 56, 63
1, 128794, Control_c, 0, 64, 31
1, 128798, Note_on_c, 0, 46, 74
1, 128803, Note_on_c, 0, 39, 67
1, 128806, Note_on_c, 0, 55, 58
1, 128809, Note_on_c, 0, 63, 61
1, 128809, Control_c, 0, 64, 54
1, 128810, Note_on_c, 0, 67, 61
1, 128821, Note_off_c, 0, 46, 67
1, 128824, Control_c, 0, 64, 66
1, 128826, Note_off_c, 0, 55, 61
1, 128829, Note_off_c, 0, 67, 63
1, 128831, Note_off_c, 0, 39, 64
1, 128831, Note_off_c, 0, 63, 65
1, 128839, Control_c, 0, 64, 75
1, 128853, Control_c, 0, 64, 84
1, 128875, Control_c, 0, 64, 98
1, 128890, Control_c, 0, 64, 127
1, 128994, Control_c, 0, 64, 112
1, 129010, Control_c, 0, 64, 78
1, 129025, Control_c, 0, 64, 61
1, 129040, Control_c, 0, 64, 45
1, 129054, Control_c, 0, 64, 0
1, 129058, Note_on_c, 0, 47, 60
1, 129060, Note_on_c, 0, 56, 62
1, 129067, Note_on_c, 0, 53, 49
1, 129110, Note_off_c, 0, 53, 59
1, 129113, Control_c, 0, 67, 19
1, 129128, Control_c, 0, 67, 22
1, 129143, Control_c, 0, 67, 24
1, 129149, Note_off_c, 0, 56, 60
1, 129161, Note_on_c, 0, 62, 52
1, 129163, Note_off_c, 0, 47, 43
1, 129172, Control_c, 0, 67, 26
1, 129202, Control_c, 0, 67, 29
1, 129208, Note_off_c, 0, 62, 60
1, 129217, Control_c, 0, 67, 33
1, 129232, Control_c, 0, 67, 36
1, 129247, Control_c, 0, 67, 39
1, 129262, Control_c, 0, 67, 40
1, 129264, Note_on_c, 0, 46, 47
1, 129271, Note_on_c, 0, 39, 44
1, 129271, Note_on_c, 0, 58, 51
1, 129277, Control_c, 0, 67, 40
1, 129292, Control_c, 0, 64, 31
1, 129301, Note_off_c, 0, 46, 59
1, 129307, Control_c, 0, 64, 33
1, 129308, Note_off_c, 0, 39, 55
1, 129321, Control_c, 0, 64, 34
1, 129329, Note_off_c, 0, 58, 62
1, 129351, Control_c, 0, 64, 34
1, 129351, Control_c, 0, 67, 40
1, 129358, Note_on_c, 0, 63, 58
1, 129391, Note_off_c, 0, 63, 65
1, 129426, Control_c, 0, 64, 33
1, 129440, Control_c, 0, 67, 39
1, 129451, Note_on_c, 0, 35, 55
1, 129455, Control_c, 0, 67, 39
1, 129470, Note_on_c, 0, 57, 56
1, 129476, Note_on_c, 0, 63, 61
1, 129482, Note_on_c, 0, 47, 31
1, 129485, Control_c, 0, 67, 38
1, 129510, Note_off_c, 0, 57, 62
1, 129531, Note_off_c, 0, 47, 48
1, 129533, Note_off_c, 0, 63, 55
1, 129544, Control_c, 0, 64, 33
1, 129553, Note_off_c, 0, 35, 56
1, 129569, Note_on_c, 0, 66, 53
1, 129573, Control_c, 0, 64, 32
1, 129573, Control_c, 0, 67, 38
1, 129588, Control_c, 0, 64, 32
1, 129588, Control_c, 0, 67, 37
1, 129626, Note_off_c, 0, 66, 55
1, 129640, Control_c, 0, 64, 32
1, 129655, Control_c, 0, 64, 35
1, 129661, Note_on_c, 0, 47, 52
1, 129670, Note_on_c, 0, 40, 51
1, 129670, Control_c, 0, 64, 42
1, 129670, Control_c, 0, 67, 37
1, 129672, Note_on_c, 0, 55, 56
1, 129678, Note_on_c, 0, 64, 52
1, 129685, Control_c, 0, 64, 51
1, 129685, Control_c, 0, 67, 36
1, 129699, Control_c, 0, 64, 59
1, 129699, Control_c, 0, 67, 36
1, 129712, Note_off_c, 0, 55, 62
1, 129714, Control_c, 0, 64, 62
1, 129714, Control_c, 0, 67, 35
1, 129717, Note_off_c, 0, 40, 60
1, 129729, Control_c, 0, 64, 63
1, 129753, Note_off_c, 0, 64, 54
1, 129766, Note_off_c, 0, 47, 50
1, 129773, Control_c, 0, 64, 62
1, 129784, Note_on_c, 0, 67, 41
1, 129788, Control_c, 0, 64, 62
1, 129804, Control_c, 0, 64, 61
1, 129813, Note_off_c, 0, 67, 47
1, 129819, Control_c, 0, 64, 60
1, 129834, Control_c, 0, 64, 60
1, 129849, Control_c, 0, 64, 59
1, 129864, Control_c, 0, 64, 59
1, 129871, Note_on_c, 0, 46, 69
1, 129878, Control_c, 0, 64, 58
1, 129878, Control_c, 0, 67, 35
1, 129879, Note_on_c, 0, 55, 74
1, 129886, Note_on_c, 0, 52, 64
1, 129893, Control_c, 0, 67, 34
1, 129908, Control_c, 0, 64, 58
1, 129908, Control_c, 0, 67, 34
1, 129922, Control_c, 0, 64, 57
1, 129922, Control_c, 0, 67, 33
1, 129926, Note_off_c, 0, 52, 61
1, 129937, Control_c, 0, 64, 56
1, 129939, Note_off_c, 0, 55, 60
1, 129942, Note_off_c, 0, 46, 52
1, 129952, Control_c, 0, 64, 53
1, 129952, Control_c, 0, 67, 33
1, 129967, Control_c, 0, 64, 51
1, 129967, Control_c, 0, 67, 32
1, 129974, Note_on_c, 0, 61, 64
1, 129982, Control_c, 0, 64, 47
1, 129995, Control_c, 0, 64, 44
1, 129995, Control_c, 0, 67, 32
1, 130010, Control_c, 0, 64, 40
1, 130025, Control_c, 0, 64, 37
1, 130040, Control_c, 0, 64, 39
1, 130055, Control_c, 0, 64, 43
1, 130064, Note_on_c, 0, 38, 64
1, 130070, Control_c, 0, 64, 48
1, 130081, Note_on_c, 0, 57, 58
1, 130082, Note_on_c, 0, 45, 52
1, 130085, Control_c, 0, 64, 53
1, 130097, Note_on_c, 0, 54, 50
1, 130100, Control_c, 0, 64, 58
1, 130107, Note_off_c, 0, 38, 64
1, 130108, Note_off_c, 0, 61, 36
1, 130113, Note_off_c, 0, 45, 64
1, 130114, Control_c, 0, 64, 61
1, 130144, Control_c, 0, 64, 61
1, 130146, Note_off_c, 0, 57, 62
1, 130159, Note_off_c, 0, 54, 62
1, 130159, Control_c, 0, 64, 59
1, 130168, Note_on_c, 0, 62, 67
1, 130174, Control_c, 0, 64, 56
1, 130188, Control_c, 0, 64, 53
1, 130196, Note_off_c, 0, 62, 66
1, 130203, Control_c, 0, 64, 51
1, 130218, Control_c, 0, 64, 50
1, 130270, Note_on_c, 0, 34, 62
1, 130271, Note_on_c, 0, 53, 65
1, 130271, Note_on_c, 0, 62, 71
1, 130279, Note_on_c, 0, 46, 56
1, 130287, Note_on_c, 0, 56, 53
1, 130304, Note_off_c, 0, 53, 64
1, 130321, Control_c, 0, 64, 49
1, 130331, Note_off_c, 0, 34, 54
1, 130332, Note_off_c, 0, 56, 61
1, 130336, Control_c, 0, 64, 48
1, 130341, Note_off_c, 0, 46, 48
1, 130351, Control_c, 0, 64, 46
1, 130358, Note_off_c, 0, 62, 62
1, 130374, Control_c, 0, 64, 44
1, 130381, Note_on_c, 0, 65, 65
1, 130389, Control_c, 0, 64, 42
1, 130403, Control_c, 0, 64, 40
1, 130418, Control_c, 0, 64, 38
1, 130433, Control_c, 0, 64, 37
1, 130433, Control_c, 0, 67, 30
1, 130435, Note_off_c, 0, 65, 64
1, 130462, Control_c, 0, 64, 39
1, 130476, Note_on_c, 0, 58, 71
1, 130477, Note_on_c, 0, 46, 67
1, 130477, Control_c, 0, 64, 43
1, 130481, Note_on_c, 0, 39, 67
1, 130483, Note_on_c, 0, 55, 54
1, 130492, Control_c, 0, 64, 50
1, 130493, Note_on_c, 0, 63, 54
1, 130507, Control_c, 0, 64, 58
1, 130507, Control_c, 0, 67, 28
1, 130517, Note_off_c, 0, 39, 63
1, 130520, Note_off_c, 0, 46, 64
1, 130521, Note_off_c, 0, 55, 56
1, 130521, Control_c, 0, 64, 62
1, 130536, Control_c, 0, 64, 64
1, 130548, Note_off_c, 0, 58, 62
1, 130580, Note_on_c, 0, 67, 70
1, 130581, Control_c, 0, 64, 63
1, 130589, Note_off_c, 0, 63, 64
1, 130597, Control_c, 0, 64, 62
1, 130598, Note_off_c, 0, 67, 67
1, 130612, Control_c, 0, 64, 60
1, 130626, Control_c, 0, 64, 59
1, 130641, Control_c, 0, 64, 57
1, 130656, Control_c, 0, 64, 56
1, 130670, Control_c, 0, 64, 56
1, 130685, Control_c, 0, 64, 55
1, 130692, Note_on_c, 0, 50, 65
1, 130692, Note_on_c, 0, 53, 68
1, 130700, Control_c, 0, 64, 53
1, 130702, Note_on_c, 0, 47, 65
1, 130715, Control_c, 0, 64, 51
1, 130715, Control_c, 0, 67, 26
1, 130727, Note_off_c, 0, 50, 64
1, 130730, Control_c, 0, 64, 50
1, 130744, Control_c, 0, 64, 49
1, 130759, Control_c, 0, 67, 24
1, 130761, Note_off_c, 0, 53, 57
1, 130774, Control_c, 0, 64, 49
1, 130778, Note_on_c, 0, 56, 63
1, 130791, Note_off_c, 0, 47, 50
1, 130804, Control_c, 0, 64, 48
1, 130818, Control_c, 0, 64, 47
1, 130833, Control_c, 0, 64, 47
1, 130863, Control_c, 0, 64, 48
1, 130878, Control_c, 0, 64, 50
1, 130885, Note_on_c, 0, 55, 69
1, 130886, Note_on_c, 0, 46, 65
1, 130890, Note_on_c, 0, 51, 64
1, 130892, Control_c, 0, 64, 53
1, 130907, Control_c, 0, 64, 57
1, 130922, Control_c, 0, 64, 61
1, 130930, Note_off_c, 0, 46, 61
1, 130937, Control_c, 0, 64, 64
1, 130945, Note_off_c, 0, 51, 60
1, 130952, Control_c, 0, 64, 64
1, 130970, Note_off_c, 0, 56, 20
1, 130973, Note_off_c, 0, 55, 64
1, 130982, Control_c, 0, 64, 64
1, 130983, Note_on_c, 0, 58, 58
1, 130997, Control_c, 0, 64, 63
1, 131011, Note_off_c, 0, 58, 64
1, 131011, Control_c, 0, 64, 61
1, 131026, Control_c, 0, 64, 58
1, 131041, Control_c, 0, 64, 57
1, 131056, Control_c, 0, 64, 56
1, 131078, Note_on_c, 0, 47, 61
1, 131083, Note_on_c, 0, 39, 57
1, 131089, Note_on_c, 0, 53, 64
1, 131089, Note_on_c, 0, 56, 70
1, 131098, Note_on_c, 0, 62, 55
1, 131128, Note_on_c, 0, 60, 49
1, 131128, Note_off_c, 0, 53, 64
1, 131137, Control_c, 0, 64, 56
1, 131142, Note_off_c, 0, 39, 53
1, 131152, Control_c, 0, 64, 55
1, 131155, Note_off_c, 0, 60, 36
1, 131155, Note_off_c, 0, 56, 56
1, 131167, Control_c, 0, 64, 52
1, 131170, Note_off_c, 0, 47, 47
1, 131182, Control_c, 0, 64, 50
1, 131190, Note_off_c, 0, 62, 60
1, 131196, Control_c, 0, 64, 48
1, 131205, Note_on_c, 0, 65, 74
1, 131211, Control_c, 0, 64, 47
1, 131241, Control_c, 0, 64, 48
1, 131253, Note_off_c, 0, 65, 64
1, 131256, Control_c, 0, 64, 49
1, 131256, Control_c, 0, 67, 22
1, 131270, Control_c, 0, 64, 51
1, 131285, Control_c, 0, 64, 53
1, 131285, Control_c, 0, 67, 19
1, 131291, Note_on_c, 0, 39, 60
1, 131293, Note_on_c, 0, 46, 70
1, 131300, Control_c, 0, 64, 56
1, 131300, Control_c, 0, 67, 0
1, 131305, Note_on_c, 0, 55, 60
1, 131306, Note_on_c, 0, 58, 65
1, 131309, Note_on_c, 0, 63, 72
1, 131315, Control_c, 0, 64, 58
1, 131330, Control_c, 0, 64, 59
1, 131340, Note_off_c, 0, 55, 65
1, 131348, Note_off_c, 0, 58, 59
1, 131351, Note_off_c, 0, 46, 61
1, 131352, Note_off_c, 0, 39, 58
1, 131359, Control_c, 0, 64, 58
1, 131374, Control_c, 0, 64, 57
1, 131390, Control_c, 0, 64, 56
1, 131395, Note_on_c, 0, 67, 72
1, 131398, Note_off_c, 0, 63, 64
1, 131405, Control_c, 0, 64, 54
1, 131420, Control_c, 0, 64, 53
1, 131443, Note_off_c, 0, 67, 63
1, 131486, Note_on_c, 0, 36, 65
1, 131486, Note_on_c, 0, 48, 69
1, 131495, Note_on_c, 0, 66, 76
1, 131498, Note_on_c, 0, 57, 69
1, 131504, Note_on_c, 0, 63, 62
1, 131508, Control_c, 0, 64, 53
1, 131523, Control_c, 0, 64, 52
1, 131524, Note_off_c, 0, 36, 61
1, 131527, Note_off_c, 0, 48, 61
1, 131538, Control_c, 0, 64, 50
1, 131542, Note_off_c, 0, 57, 63
1, 131553, Control_c, 0, 64, 48
1, 131567, Control_c, 0, 64, 46
1, 131582, Control_c, 0, 64, 45
1, 131583, Note_off_c, 0, 66, 64
1, 131590, Note_on_c, 0, 69, 64
1, 131597, Control_c, 0, 64, 44
1, 131608, Note_off_c, 0, 63, 49
1, 131612, Control_c, 0, 64, 43
1, 131641, Control_c, 0, 64, 44
1, 131651, Note_off_c, 0, 69, 61
1, 131656, Control_c, 0, 64, 45
1, 131671, Control_c, 0, 64, 47
1, 131686, Control_c, 0, 64, 50
1, 131691, Note_on_c, 0, 62, 69
1, 131691, Note_on_c, 0, 46, 71
1, 131691, Note_on_c, 0, 58, 72
1, 131700, Note_on_c, 0, 34, 56
1, 131700, Control_c, 0, 64, 54
1, 131706, Note_on_c, 0, 67, 61
1, 131715, Control_c, 0, 64, 59
1, 131721, Note_off_c, 0, 46, 65
1, 131730, Note_off_c, 0, 34, 62
1, 131730, Control_c, 0, 64, 63
1, 131745, Control_c, 0, 64, 65
1, 131760, Control_c, 0, 64, 66
1, 131766, Note_off_c, 0, 58, 63
1, 131775, Control_c, 0, 64, 67
1, 131790, Note_off_c, 0, 62, 63
1, 131790, Control_c, 0, 64, 68
1, 131799, Note_on_c, 0, 70, 82
1, 131805, Control_c, 0, 64, 68
1, 131814, Note_off_c, 0, 67, 64
1, 131833, Note_off_c, 0, 70, 63
1, 131886, Control_c, 0, 64, 68
1, 131915, Control_c, 0, 64, 67
1, 131920, Note_on_c, 0, 31, 67
1, 131924, Note_on_c, 0, 43, 67
1, 131930, Control_c, 0, 64, 67
1, 131941, Note_on_c, 0, 70, 94
1, 131945, Control_c, 0, 64, 66
1, 131947, Note_on_c, 0, 64, 69
1, 131953, Note_off_c, 0, 43, 65
1, 131960, Note_off_c, 0, 31, 62
1, 131992, Note_off_c, 0, 64, 61
1, 132046, Note_on_c, 0, 73, 78
1, 132049, Note_off_c, 0, 70, 61
1, 132064, Control_c, 0, 64, 62
1, 132079, Control_c, 0, 64, 51
1, 132093, Control_c, 0, 64, 0
1, 132144, Note_off_c, 0, 73, 63
1, 132157, Note_on_c, 0, 26, 72
1, 132162, Note_on_c, 0, 38, 83
1, 132166, Note_on_c, 0, 78, 90
1, 132167, Control_c, 0, 64, 33
1, 132170, Note_on_c, 0, 66, 81
1, 132171, Note_on_c, 0, 74, 83
1, 132182, Note_off_c, 0, 26, 63
1, 132182, Control_c, 0, 64, 56
1, 132190, Note_off_c, 0, 66, 70
1, 132191, Note_off_c, 0, 38, 70
1, 132198, Control_c, 0, 64, 69
1, 132205, Note_off_c, 0, 78, 67
1, 132209, Note_off_c, 0, 74, 61
1, 132213, Control_c, 0, 64, 82
1, 132228, Control_c, 0, 64, 111
1, 132243, Control_c, 0, 64, 127
1, 132454, Note_on_c, 0, 69, 72
1, 132457, Note_on_c, 0, 63, 70
1, 132457, Note_on_c, 0, 72, 77
1, 132461, Note_on_c, 0, 98, 83
1, 132466, Note_on_c, 0, 93, 73
1, 132469, Note_on_c, 0, 86, 69
1, 132487, Note_off_c, 0, 93, 70
1, 132495, Control_c, 0, 64, 90
1, 132496, Note_off_c, 0, 86, 67
1, 132504, Note_off_c, 0, 69, 62
1, 132505, Note_off_c, 0, 98, 66
1, 132509, Control_c, 0, 64, 72
1, 132512, Note_off_c, 0, 72, 60
1, 132524, Control_c, 0, 64, 60
1, 132539, Control_c, 0, 64, 39
1, 132546, Note_off_c, 0, 63, 60
1, 132553, Note_on_c, 0, 98, 76
1, 132554, Control_c, 0, 64, 0
1, 132568, Note_on_c, 0, 86, 75
1, 132592, Note_off_c, 0, 86, 66
1, 132605, Note_off_c, 0, 98, 65
1, 132669, Note_on_c, 0, 68, 84
1, 132670, Note_on_c, 0, 92, 92
1, 132672, Note_on_c, 0, 64, 67
1, 132673, Note_on_c, 0, 98, 79
1, 132674, Note_on_c, 0, 95, 81
1, 132677, Note_on_c, 0, 71, 73
1, 132680, Control_c, 0, 64, 47
1, 132684, Note_on_c, 0, 86, 75
1, 132692, Note_off_c, 0, 98, 72
1, 132694, Note_off_c, 0, 92, 66
1, 132695, Control_c, 0, 64, 63
1, 132699, Note_off_c, 0, 95, 65
1, 132702, Note_off_c, 0, 71, 63
1, 132703, Note_off_c, 0, 86, 67
1, 132710, Control_c, 0, 64, 70
1, 132716, Note_off_c, 0, 64, 61
1, 132719, Note_off_c, 0, 68, 65
1, 132724, Control_c, 0, 64, 76
1, 132739, Control_c, 0, 64, 80
1, 132754, Control_c, 0, 64, 81
1, 132769, Control_c, 0, 64, 83
1, 132784, Control_c, 0, 64, 84
1, 132798, Control_c, 0, 64, 84
1, 132813, Control_c, 0, 64, 84
1, 132828, Control_c, 0, 64, 82
1, 132842, Control_c, 0, 64, 75
1, 132857, Control_c, 0, 64, 65
1, 132872, Control_c, 0, 64, 54
1, 132887, Control_c, 0, 64, 29
1, 132894, Note_on_c, 0, 74, 74
1, 132896, Note_on_c, 0, 86, 77
1, 132896, Note_on_c, 0, 67, 56
1, 132899, Note_on_c, 0, 70, 58
1, 132899, Note_on_c, 0, 82, 63
1, 132901, Note_on_c, 0, 61, 60
1, 132902, Control_c, 0, 64, 0
1, 132923, Note_off_c, 0, 86, 61
1, 132924, Note_off_c, 0, 74, 59
1, 132924, Note_off_c, 0, 82, 65
1, 132929, Note_off_c, 0, 67, 65
1, 132931, Note_off_c, 0, 70, 67
1, 132988, Note_on_c, 0, 86, 78
1, 132990, Note_on_c, 0, 74, 74
1, 132992, Note_off_c, 0, 61, 55
1, 133030, Note_off_c, 0, 74, 60
1, 133042, Note_off_c, 0, 86, 64
1, 133085, Note_on_c, 0, 62, 69
1, 133086, Note_on_c, 0, 69, 68
1, 133086, Note_on_c, 0, 66, 60
1, 133086, Note_on_c, 0, 81, 86
1, 133089, Note_on_c, 0, 86, 83
1, 133095, Control_c, 0, 64, 30
1, 133098, Note_on_c, 0, 74, 68
1, 133110, Control_c, 0, 64, 59
1, 133114, Note_off_c, 0, 81, 66
1, 133116, Note_off_c, 0, 69, 63
1, 133119, Note_off_c, 0, 74, 67
1, 133125, Control_c, 0, 64, 69
1, 133128, Note_off_c, 0, 62, 62
1, 133132, Note_off_c, 0, 86, 65
1, 133135, Note_off_c, 0, 66, 57
1, 133140, Control_c, 0, 64, 79
1, 133155, Control_c, 0, 64, 87
1, 133170, Control_c, 0, 64, 93
1, 133185, Control_c, 0, 64, 98
1, 133244, Control_c, 0, 64, 89
1, 133258, Control_c, 0, 64, 75
1, 133273, Control_c, 0, 64, 62
1, 133288, Control_c, 0, 64, 40
1, 133298, Note_on_c, 0, 59, 65
1, 133300, Note_on_c, 0, 68, 64
1, 133303, Control_c, 0, 64, 0
1, 133307, Note_on_c, 0, 65, 58
1, 133309, Note_on_c, 0, 98, 88
1, 133310, Note_on_c, 0, 86, 76
1, 133312, Note_on_c, 0, 92, 79
1, 133334, Note_off_c, 0, 92, 68
1, 133335, Note_off_c, 0, 86, 63
1, 133339, Note_off_c, 0, 68, 60
1, 133348, Note_off_c, 0, 98, 62
1, 133370, Note_off_c, 0, 65, 57
1, 133393, Note_off_c, 0, 59, 57
1, 133393, Note_on_c, 0, 98, 62
1, 133405, Note_on_c, 0, 86, 69
1, 133434, Note_off_c, 0, 86, 63
1, 133435, Note_on_c, 0, 92, 30
1, 133443, Note_off_c, 0, 98, 65
1, 133474, Note_off_c, 0, 92, 32
1, 133488, Control_c, 0, 64, 31
1, 133494, Note_on_c, 0, 98, 81
1, 133496, Note_on_c, 0, 64, 67
1, 133498, Note_on_c, 0, 67, 69
1, 133498, Note_on_c, 0, 91, 94
1, 133498, Note_on_c, 0, 60, 73
1, 133503, Control_c, 0, 64, 58
1, 133506, Note_on_c, 0, 86, 79
1, 133518, Control_c, 0, 64, 67
1, 133524, Note_off_c, 0, 91, 67
1, 133528, Note_off_c, 0, 86, 68
1, 133533, Note_off_c, 0, 64, 65
1, 133533, Note_off_c, 0, 67, 64
1, 133533, Note_off_c, 0, 98, 65
1, 133533, Control_c, 0, 64, 75
1, 133542, Note_off_c, 0, 60, 63
1, 133547, Control_c, 0, 64, 81
1, 133562, Control_c, 0, 64, 84
1, 133577, Control_c, 0, 64, 85
1, 133636, Control_c, 0, 64, 84
1, 133651, Control_c, 0, 64, 82
1, 133665, Control_c, 0, 64, 77
1, 133680, Control_c, 0, 64, 71
1, 133695, Control_c, 0, 64, 64
1, 133710, Control_c, 0, 64, 57
1, 133715, Note_on_c, 0, 63, 61
1, 133719, Note_on_c, 0, 74, 81
1, 133720, Note_on_c, 0, 57, 63
1, 133723, Note_on_c, 0, 86, 80
1, 133725, Note_on_c, 0, 66, 54
1, 133725, Control_c, 0, 64, 43
1, 133727, Note_on_c, 0, 78, 73
1, 133739, Note_off_c, 0, 74, 69
1, 133739, Control_c, 0, 64, 0
1, 133742, Note_off_c, 0, 78, 68
1, 133745, Note_off_c, 0, 86, 64
1, 133754, Note_off_c, 0, 66, 63
1, 133795, Note_off_c, 0, 57, 59
1, 133802, Note_on_c, 0, 86, 75
1, 133806, Note_on_c, 0, 74, 74
1, 133832, Note_off_c, 0, 63, 62
1, 133846, Note_off_c, 0, 74, 62
1, 133852, Note_off_c, 0, 86, 64
1, 133904, Note_on_c, 0, 65, 72
1, 133906, Note_on_c, 0, 62, 69
1, 133906, Note_on_c, 0, 58, 74
1, 133909, Note_on_c, 0, 86, 81
1, 133912, Note_on_c, 0, 74, 81
1, 133912, Note_on_c, 0, 77, 81
1, 133918, Control_c, 0, 64, 42
1, 133930, Note_off_c, 0, 77, 73
1, 133931, Note_off_c, 0, 86, 68
1, 133931, Note_off_c, 0, 65, 67
1, 133933, Note_off_c, 0, 74, 70
1, 133933, Note_off_c, 0, 62, 67
1, 133933, Control_c, 0, 64, 62
1, 133936, Note_off_c, 0, 58, 68
1, 133948, Control_c, 0, 64, 69
1, 133962, Control_c, 0, 64, 73
1, 133977, Control_c, 0, 64, 75
1, 133992, Control_c, 0, 64, 78
1, 134006, Control_c, 0, 64, 80
1, 134021, Control_c, 0, 64, 82
1, 134051, Control_c, 0, 64, 81
1, 134066, Control_c, 0, 64, 77
1, 134080, Control_c, 0, 64, 69
1, 134095, Control_c, 0, 64, 61
1, 134118, Control_c, 0, 64, 50
1, 134121, Note_on_c, 0, 74, 84
1, 134122, Note_on_c, 0, 46, 74
1, 134128, Note_on_c, 0, 58, 62
1, 134130, Note_on_c, 0, 62, 67
1, 134133, Control_c, 0, 64, 36
1, 134133, Note_on_c, 0, 67, 59
1, 134140, Note_off_c, 0, 74, 72
1, 134148, Control_c, 0, 64, 0
1, 134154, Note_off_c, 0, 67, 63
1, 134155, Note_off_c, 0, 62, 68
1, 134171, Note_off_c, 0, 58, 58
1, 134211, Note_on_c, 0, 50, 63
1, 134211, Note_off_c, 0, 46, 58
1, 134277, Note_off_c, 0, 50, 63
1, 134326, Note_on_c, 0, 57, 76
1, 134327, Note_on_c, 0, 73, 72
1, 134328, Note_on_c, 0, 61, 74
1, 134329, Note_on_c, 0, 45, 75
1, 134331, Note_on_c, 0, 66, 66
1, 134349, Note_off_c, 0, 73, 73
1, 134350, Note_off_c, 0, 66, 65
1, 134353, Note_off_c, 0, 61, 68
1, 134380, Note_off_c, 0, 45, 61
1, 134387, Note_off_c, 0, 57, 59
1, 134415, Note_on_c, 0, 49, 64
1, 134484, Note_off_c, 0, 49, 64
1, 134533, Note_on_c, 0, 58, 66
1, 134533, Note_on_c, 0, 63, 65
1, 134533, Note_on_c, 0, 70, 69
1, 134538, Note_on_c, 0, 43, 63
1, 134541, Note_on_c, 0, 55, 60
1, 134555, Note_off_c, 0, 70, 67
1, 134562, Note_off_c, 0, 63, 67
1, 134564, Note_off_c, 0, 58, 65
1, 134577, Control_c, 0, 64, 29
1, 134605, Note_off_c, 0, 55, 56
1, 134606, Note_off_c, 0, 43, 60
1, 134616, Note_on_c, 0, 58, 56
1, 134620, Note_on_c, 0, 70, 71
1, 134623, Note_on_c, 0, 46, 63
1, 134647, Note_on_c, 0, 63, 25
1, 134647, Note_off_c, 0, 58, 65
1, 134652, Control_c, 0, 64, 0
1, 134657, Note_off_c, 0, 70, 60
1, 134681, Note_off_c, 0, 46, 62
1, 134687, Note_off_c, 0, 63, 45
1, 134720, Note_on_c, 0, 57, 74
1, 134725, Note_on_c, 0, 54, 72
1, 134726, Note_on_c, 0, 69, 65
1, 134728, Note_on_c, 0, 42, 78
1, 134730, Note_on_c, 0, 62, 59
1, 134756, Note_off_c, 0, 69, 62
1, 134756, Note_off_c, 0, 57, 62
1, 134762, Note_off_c, 0, 62, 65
1, 134790, Note_off_c, 0, 42, 63
1, 134790, Note_off_c, 0, 54, 60
1, 134814, Note_on_c, 0, 45, 63
1, 134867, Control_c, 0, 64, 29
1, 134875, Note_off_c, 0, 45, 62
1, 134922, Note_on_c, 0, 51, 65
1, 134927, Note_on_c, 0, 61, 58
1, 134929, Note_on_c, 0, 55, 42
1, 134933, Note_on_c, 0, 67, 54
1, 134946, Note_on_c, 0, 39, 62
1, 134956, Control_c, 0, 64, 31
1, 134958, Note_off_c, 0, 55, 50
1, 134959, Note_off_c, 0, 61, 64
1, 134962, Note_off_c, 0, 67, 66
1, 134985, Note_off_c, 0, 51, 61
1, 134990, Note_off_c, 0, 39, 59
1, 135015, Control_c, 0, 64, 29
1, 135019, Note_on_c, 0, 43, 59
1, 135030, Control_c, 0, 64, 0
1, 135117, Note_off_c, 0, 43, 46
1, 135119, Control_c, 0, 64, 35
1, 135125, Note_on_c, 0, 74, 85
1, 135126, Note_on_c, 0, 66, 83
1, 135127, Note_on_c, 0, 38, 73
1, 135130, Note_on_c, 0, 50, 79
1, 135133, Note_on_c, 0, 42, 67
1, 135133, Note_on_c, 0, 62, 70
1, 135134, Control_c, 0, 64, 53
1, 135146, Note_off_c, 0, 66, 71
1, 135149, Control_c, 0, 64, 63
1, 135154, Note_off_c, 0, 50, 69
1, 135154, Note_off_c, 0, 62, 65
1, 135155, Note_off_c, 0, 38, 65
1, 135158, Note_off_c, 0, 42, 65
1, 135163, Control_c, 0, 64, 71
1, 135164, Note_off_c, 0, 74, 62
1, 135178, Control_c, 0, 64, 77
1, 135193, Control_c, 0, 64, 80
1, 135267, Control_c, 0, 64, 78
1, 135282, Control_c, 0, 64, 76
1, 135297, Control_c, 0, 64, 72
1, 135311, Control_c, 0, 64, 69
1, 135326, Control_c, 0, 64, 65
1, 135341, Control_c, 0, 64, 62
1, 135355, Note_on_c, 0, 86, 84
1, 135355, Control_c, 0, 64, 58
1, 135358, Note_on_c, 0, 69, 60
1, 135358, Note_on_c, 0, 74, 74
1, 135358, Note_on_c, 0, 81, 73
1, 135361, Note_on_c, 0, 65, 55
1, 135364, Note_on_c, 0, 58, 55
1, 135370, Control_c, 0, 64, 55
1, 135381, Note_off_c, 0, 69, 62
1, 135382, Note_off_c, 0, 74, 69
1, 135382, Note_off_c, 0, 81, 69
1, 135384, Note_off_c, 0, 86, 65
1, 135385, Note_off_c, 0, 65, 63
1, 135387, Control_c, 0, 64, 51
1, 135392, Note_off_c, 0, 58, 55
1, 135402, Control_c, 0, 64, 48
1, 135416, Control_c, 0, 64, 45
1, 135431, Control_c, 0, 64, 39
1, 135446, Control_c, 0, 64, 34
1, 135451, Note_on_c, 0, 86, 82
1, 135455, Note_on_c, 0, 74, 67
1, 135460, Control_c, 0, 64, 0
1, 135465, Note_on_c, 0, 81, 51
1, 135482, Note_off_c, 0, 74, 58
1, 135491, Note_off_c, 0, 81, 55
1, 135499, Note_off_c, 0, 86, 58
1, 135520, Control_c, 0, 64, 33
1, 135534, Control_c, 0, 64, 44
1, 135547, Note_on_c, 0, 86, 80
1, 135549, Note_on_c, 0, 67, 67
1, 135549, Control_c, 0, 64, 57
1, 135551, Note_on_c, 0, 63, 73
1, 135551, Note_on_c, 0, 74, 87
1, 135554, Note_on_c, 0, 79, 89
1, 135564, Control_c, 0, 64, 66
1, 135572, Note_off_c, 0, 79, 74
1, 135575, Note_off_c, 0, 67, 68
1, 135575, Note_off_c, 0, 86, 66
1, 135575, Note_off_c, 0, 63, 69
1, 135578, Note_off_c, 0, 74, 66
1, 135578, Control_c, 0, 64, 74
1, 135593, Control_c, 0, 64, 79
1, 135616, Control_c, 0, 64, 80
1, 135690, Control_c, 0, 64, 79
1, 135705, Control_c, 0, 64, 78
1, 135720, Control_c, 0, 64, 75
1, 135734, Control_c, 0, 64, 71
1, 135749, Control_c, 0, 64, 67
1, 135763, Note_on_c, 0, 51, 75
1, 135764, Control_c, 0, 64, 62
1, 135767, Note_on_c, 0, 41, 72
1, 135778, Note_on_c, 0, 62, 71
1, 135779, Control_c, 0, 64, 56
1, 135783, Note_on_c, 0, 74, 65
1, 135786, Note_on_c, 0, 57, 46
1, 135793, Note_off_c, 0, 51, 63
1, 135793, Control_c, 0, 64, 51
1, 135796, Note_off_c, 0, 41, 63
1, 135803, Note_off_c, 0, 74, 63
1, 135805, Note_off_c, 0, 62, 66
1, 135808, Control_c, 0, 64, 47
1, 135816, Note_off_c, 0, 57, 57
1, 135823, Control_c, 0, 64, 39
1, 135838, Control_c, 0, 64, 0
1, 135863, Note_on_c, 0, 74, 84
1, 135864, Note_on_c, 0, 62, 76
1, 135889, Note_off_c, 0, 62, 68
1, 135891, Note_off_c, 0, 74, 58
1, 135955, Note_on_c, 0, 58, 80
1, 135956, Note_on_c, 0, 53, 69
1, 135957, Control_c, 0, 64, 34
1, 135957, Note_on_c, 0, 46, 75
1, 135964, Note_on_c, 0, 74, 84
1, 135966, Note_on_c, 0, 62, 74
1, 135967, Note_on_c, 0, 65, 68
1, 135972, Control_c, 0, 64, 55
1, 135977, Note_off_c, 0, 58, 72
1, 135981, Note_off_c, 0, 46, 66
1, 135981, Note_off_c, 0, 53, 66
1, 135983, Note_off_c, 0, 74, 68
1, 135985, Note_off_c, 0, 62, 66
1, 135985, Note_off_c, 0, 65, 66
1, 135986, Control_c, 0, 64, 64
1, 136001, Control_c, 0, 64, 67
1, 136016, Control_c, 0, 64, 68
1, 136060, Control_c, 0, 64, 69
1, 136075, Control_c, 0, 64, 68
1, 136090, Control_c, 0, 64, 67
1, 136105, Control_c, 0, 64, 64
1, 136120, Control_c, 0, 64, 60
1, 136134, Control_c, 0, 64, 54
1, 136149, Control_c, 0, 64, 49
1, 136161, Note_on_c, 0, 42, 63
1, 136162, Note_on_c, 0, 54, 64
1, 136164, Control_c, 0, 64, 45
1, 136166, Note_on_c, 0, 63, 73
1, 136167, Note_on_c, 0, 58, 71
1, 136180, Control_c, 0, 64, 43
1, 136195, Control_c, 0, 64, 43
1, 136200, Note_off_c, 0, 58, 65
1, 136204, Note_off_c, 0, 54, 60
1, 136224, Control_c, 0, 64, 42
1, 136225, Note_off_c, 0, 42, 57
1, 136233, Note_off_c, 0, 63, 60
1, 136239, Control_c, 0, 64, 39
1, 136254, Control_c, 0, 64, 36
1, 136261, Note_on_c, 0, 46, 58
1, 136269, Control_c, 0, 64, 33
1, 136283, Control_c, 0, 64, 32
1, 136328, Control_c, 0, 64, 32
1, 136343, Control_c, 0, 64, 33
1, 136344, Note_off_c, 0, 46, 63
1, 136365, Control_c, 0, 64, 34
1, 136376, Note_on_c, 0, 41, 61
1, 136377, Note_on_c, 0, 56, 61
1, 136378, Note_on_c, 0, 53, 61
1, 136379, Note_on_c, 0, 65, 57
1, 136380, Control_c, 0, 64, 35
1, 136384, Note_on_c, 0, 59, 44
1, 136395, Control_c, 0, 64, 35
1, 136395, Note_on_c, 0, 62, 37
1, 136402, Note_off_c, 0, 56, 63
1, 136402, Note_off_c, 0, 65, 61
1, 136409, Control_c, 0, 64, 36
1, 136410, Note_off_c, 0, 59, 57
1, 136416, Note_off_c, 0, 53, 62
1, 136424, Note_off_c, 0, 62, 48
1, 136424, Control_c, 0, 64, 36
1, 136425, Note_off_c, 0, 41, 59
1, 136454, Control_c, 0, 64, 37
1, 136462, Note_on_c, 0, 44, 59
1, 136484, Control_c, 0, 64, 37
1, 136505, Note_off_c, 0, 44, 65
1, 136513, Control_c, 0, 64, 38
1, 136528, Control_c, 0, 64, 39
1, 136543, Control_c, 0, 64, 39
1, 136557, Control_c, 0, 64, 40
1, 136570, Note_on_c, 0, 51, 56
1, 136578, Note_on_c, 0, 66, 70
1, 136579, Note_on_c, 0, 58, 68
1, 136580, Note_on_c, 0, 39, 61
1, 136582, Note_on_c, 0, 63, 60
1, 136603, Note_off_c, 0, 63, 63
1, 136604, Note_off_c, 0, 66, 67
1, 136607, Note_off_c, 0, 58, 66
1, 136616, Control_c, 0, 64, 39
1, 136626, Note_off_c, 0, 51, 52
1, 136631, Control_c, 0, 64, 39
1, 136635, Note_off_c, 0, 39, 52
1, 136646, Control_c, 0, 64, 38
1, 136659, Note_on_c, 0, 42, 60
1, 136661, Control_c, 0, 64, 37
1, 136663, Note_on_c, 0, 58, 62
1, 136676, Control_c, 0, 64, 37
1, 136681, Note_on_c, 0, 63, 50
1, 136687, Note_off_c, 0, 58, 65
1, 136690, Control_c, 0, 64, 36
1, 136698, Note_on_c, 0, 66, 36
1, 136705, Control_c, 0, 64, 35
1, 136706, Note_off_c, 0, 63, 59
1, 136720, Control_c, 0, 64, 35
1, 136729, Note_off_c, 0, 66, 35
1, 136734, Note_off_c, 0, 42, 63
1, 136735, Control_c, 0, 64, 34
1, 136750, Control_c, 0, 64, 33
1, 136757, Note_on_c, 0, 50, 76
1, 136759, Note_on_c, 0, 38, 76
1, 136765, Control_c, 0, 64, 33
1, 136767, Note_on_c, 0, 57, 76
1, 136774, Note_on_c, 0, 69, 67
1, 136779, Note_on_c, 0, 62, 49
1, 136780, Control_c, 0, 64, 32
1, 136792, Note_off_c, 0, 57, 68
1, 136795, Control_c, 0, 64, 32
1, 136799, Note_off_c, 0, 69, 64
1, 136801, Note_off_c, 0, 50, 59
1, 136806, Note_off_c, 0, 38, 60
1, 136815, Note_off_c, 0, 62, 54
1, 136846, Note_on_c, 0, 42, 69
1, 136884, Control_c, 0, 64, 32
1, 136899, Control_c, 0, 64, 33
1, 136914, Control_c, 0, 64, 34
1, 136918, Note_off_c, 0, 42, 63
1, 136928, Control_c, 0, 64, 34
1, 136943, Control_c, 0, 64, 35
1, 136962, Note_on_c, 0, 37, 62
1, 136965, Note_on_c, 0, 49, 58
1, 136965, Note_on_c, 0, 58, 67
1, 136965, Note_on_c, 0, 70, 68
1, 136970, Note_on_c, 0, 64, 37
1, 136973, Control_c, 0, 64, 35
1, 136988, Control_c, 0, 64, 36
1, 136991, Note_off_c, 0, 58, 67
1, 136997, Note_off_c, 0, 64, 56
1, 137003, Control_c, 0, 64, 36
1, 137007, Note_off_c, 0, 70, 57
1, 137019, Note_off_c, 0, 49, 56
1, 137033, Control_c, 0, 64, 36
1, 137034, Note_off_c, 0, 37, 55
1, 137048, Control_c, 0, 64, 35
1, 137056, Note_on_c, 0, 42, 50
1, 137063, Control_c, 0, 64, 34
1, 137078, Control_c, 0, 64, 32
1, 137114, Control_c, 0, 64, 29
1, 137129, Control_c, 0, 64, 0
1, 137153, Note_off_c, 0, 42, 58
1, 137159, Control_c, 0, 64, 31
1, 137174, Control_c, 0, 64, 36
1, 137177, Note_on_c, 0, 46, 66
1, 137179, Note_on_c, 0, 74, 74
1, 137179, Note_on_c, 0, 41, 53
1, 137180, Note_on_c, 0, 62, 73
1, 137188, Note_on_c, 0, 34, 42
1, 137188, Note_on_c, 0, 70, 59
1, 137188, Control_c, 0, 64, 47
1, 137191, Note_on_c, 0, 65, 45
1, 137196, Note_off_c, 0, 74, 66
1, 137202, Note_off_c, 0, 46, 65
1, 137203, Control_c, 0, 64, 59
1, 137205, Note_off_c, 0, 62, 68
1, 137206, Note_off_c, 0, 41, 51
1, 137207, Note_off_c, 0, 70, 62
1, 137218, Control_c, 0, 64, 68
1, 137220, Note_off_c, 0, 65, 34
1, 137223, Note_off_c, 0, 34, 49
1, 137233, Control_c, 0, 64, 76
1, 137248, Control_c, 0, 64, 86
1, 137263, Control_c, 0, 64, 97
1, 137278, Control_c, 0, 64, 106
1, 137337, Control_c, 0, 64, 95
1, 137352, Control_c, 0, 64, 80
1, 137366, Control_c, 0, 64, 67
1, 137381, Control_c, 0, 64, 57
1, 137396, Control_c, 0, 64, 47
1, 137411, Note_on_c, 0, 44, 64
1, 137411, Control_c, 0, 64, 37
1, 137413, Note_on_c, 0, 60, 67
1, 137414, Note_on_c, 0, 62, 68
1, 137426, Control_c, 0, 64, 0
1, 137436, Note_off_c, 0, 62, 64
1, 137442, Note_off_c, 0, 60, 64
1, 137462, Note_off_c, 0, 44, 60
1, 137492, Note_on_c, 0, 60, 57
1, 137496, Note_on_c, 0, 62, 62
1, 137498, Note_on_c, 0, 51, 63
1, 137524, Note_off_c, 0, 60, 62
1, 137540, Note_off_c, 0, 62, 58
1, 137543, Note_off_c, 0, 51, 60
1, 137602, Note_on_c, 0, 58, 58
1, 137603, Note_on_c, 0, 62, 63
1, 137610, Note_on_c, 0, 50, 48
1, 137637, Note_off_c, 0, 50, 58
1, 137652, Note_off_c, 0, 58, 53
1, 137708, Note_on_c, 0, 43, 55
1, 137754, Note_off_c, 0, 43, 61
1, 137793, Note_on_c, 0, 41, 62
1, 137795, Note_on_c, 0, 57, 56
1, 137830, Note_off_c, 0, 57, 63
1, 137857, Note_off_c, 0, 41, 60
1, 137916, Note_on_c, 0, 48, 61
1, 137942, Note_off_c, 0, 48, 64
1, 137967, Control_c, 0, 64, 33
1, 137981, Control_c, 0, 64, 42
1, 137996, Control_c, 0, 64, 53
1, 137998, Note_on_c, 0, 46, 66
1, 138011, Control_c, 0, 64, 61
1, 138023, Note_on_c, 0, 55, 34
1, 138026, Control_c, 0, 64, 64
1, 138029, Note_off_c, 0, 46, 64
1, 138036, Note_off_c, 0, 62, 62
1, 138041, Control_c, 0, 64, 65
1, 138055, Note_off_c, 0, 55, 33
1, 138097, Note_on_c, 0, 39, 61
1, 138167, Note_off_c, 0, 39, 61
1, 138175, Control_c, 0, 64, 65
1, 138189, Control_c, 0, 64, 64
1, 138200, Note_on_c, 0, 38, 62
1, 138204, Control_c, 0, 64, 64
1, 138207, Note_on_c, 0, 54, 66
1, 138210, Note_on_c, 0, 62, 54
1, 138210, Note_on_c, 0, 66, 63
1, 138219, Control_c, 0, 64, 62
1, 138233, Control_c, 0, 64, 61
1, 138234, Note_off_c, 0, 62, 62
1, 138237, Note_off_c, 0, 54, 64
1, 138238, Note_off_c, 0, 66, 66
1, 138248, Control_c, 0, 64, 59
1, 138254, Note_off_c, 0, 38, 61
1, 138262, Control_c, 0, 64, 56
1, 138277, Control_c, 0, 64, 53
1, 138292, Note_on_c, 0, 66, 69
1, 138292, Control_c, 0, 64, 51
1, 138306, Note_on_c, 0, 54, 59
1, 138307, Control_c, 0, 64, 49
1, 138309, Note_on_c, 0, 45, 54
1, 138322, Control_c, 0, 64, 48
1, 138327, Note_off_c, 0, 54, 60
1, 138335, Note_off_c, 0, 45, 55
1, 138336, Note_off_c, 0, 66, 52
1, 138395, Note_on_c, 0, 54, 75
1, 138400, Note_on_c, 0, 61, 60
1, 138401, Note_on_c, 0, 66, 56
1, 138411, Note_on_c, 0, 45, 51
1, 138438, Note_off_c, 0, 45, 58
1, 138442, Note_off_c, 0, 54, 60
1, 138470, Note_off_c, 0, 61, 62
1, 138493, Note_on_c, 0, 37, 62
1, 138543, Note_off_c, 0, 37, 63
1, 138595, Note_on_c, 0, 59, 60
1, 138611, Control_c, 0, 64, 48
1, 138621, Note_on_c, 0, 35, 61
1, 138624, Note_on_c, 0, 50, 53
1, 138641, Control_c, 0, 64, 47
1, 138650, Note_off_c, 0, 50, 57
1, 138656, Control_c, 0, 64, 47
1, 138667, Note_off_c, 0, 35, 59
1, 138671, Control_c, 0, 64, 46
1, 138685, Note_on_c, 0, 42, 68
1, 138685, Control_c, 0, 64, 46
1, 138686, Note_off_c, 0, 59, 61
1, 138700, Control_c, 0, 64, 45
1, 138715, Control_c, 0, 64, 43
1, 138726, Note_off_c, 0, 42, 63
1, 138730, Control_c, 0, 64, 41
1, 138745, Control_c, 0, 64, 39
1, 138759, Control_c, 0, 64, 38
1, 138774, Control_c, 0, 64, 40
1, 138789, Control_c, 0, 64, 44
1, 138801, Note_on_c, 0, 42, 63
1, 138803, Note_on_c, 0, 57, 72
1, 138804, Control_c, 0, 64, 50
1, 138807, Note_on_c, 0, 49, 67
1, 138811, Note_on_c, 0, 63, 30
1, 138819, Control_c, 0, 64, 57
1, 138834, Control_c, 0, 64, 63
1, 138837, Note_off_c, 0, 49, 65
1, 138848, Control_c, 0, 64, 67
1, 138849, Note_off_c, 0, 63, 43
1, 138850, Note_off_c, 0, 42, 58
1, 138857, Note_off_c, 0, 57, 64
1, 138863, Control_c, 0, 64, 70
1, 138878, Control_c, 0, 64, 73
1, 138892, Note_on_c, 0, 33, 65
1, 138893, Control_c, 0, 64, 76
1, 138896, Note_off_c, 0, 66, 58
1, 138908, Control_c, 0, 64, 78
1, 138923, Control_c, 0, 64, 79
1, 138937, Control_c, 0, 64, 79
1, 138939, Note_off_c, 0, 33, 61
1, 138980, Note_on_c, 0, 42, 68
1, 138981, Control_c, 0, 64, 79
1, 138996, Control_c, 0, 64, 78
1, 139010, Control_c, 0, 64, 75
1, 139022, Note_on_c, 0, 69, 73
1, 139023, Note_on_c, 0, 61, 73
1, 139025, Control_c, 0, 64, 71
1, 139034, Note_off_c, 0, 42, 63
1, 139038, Note_on_c, 0, 57, 52
1, 139040, Control_c, 0, 64, 68
1, 139048, Note_off_c, 0, 69, 65
1, 139048, Note_off_c, 0, 61, 68
1, 139055, Control_c, 0, 64, 64
1, 139060, Note_off_c, 0, 57, 60
1, 139070, Control_c, 0, 64, 61
1, 139084, Control_c, 0, 64, 58
1, 139095, Note_on_c, 0, 51, 64
1, 139099, Control_c, 0, 64, 52
1, 139114, Note_on_c, 0, 69, 72
1, 139114, Control_c, 0, 64, 44
1, 139129, Control_c, 0, 64, 33
1, 139132, Note_on_c, 0, 57, 46
1, 139144, Control_c, 0, 64, 0
1, 139147, Note_off_c, 0, 51, 54
1, 139150, Note_off_c, 0, 69, 61
1, 139164, Note_off_c, 0, 57, 56
1, 139188, Note_on_c, 0, 50, 61
1, 139203, Control_c, 0, 64, 36
1, 139209, Note_on_c, 0, 62, 81
1, 139214, Note_on_c, 0, 69, 80
1, 139218, Control_c, 0, 64, 49
1, 139233, Control_c, 0, 64, 59
1, 139236, Note_on_c, 0, 57, 45
1, 139248, Note_off_c, 0, 50, 61
1, 139248, Control_c, 0, 64, 64
1, 139252, Note_off_c, 0, 62, 60
1, 139263, Control_c, 0, 64, 68
1, 139265, Note_off_c, 0, 57, 54
1, 139272, Note_off_c, 0, 69, 63
1, 139277, Control_c, 0, 64, 70
1, 139292, Control_c, 0, 64, 71
1, 139294, Note_on_c, 0, 42, 71
1, 139307, Control_c, 0, 64, 72
1, 139342, Note_off_c, 0, 42, 62
1, 139358, Control_c, 0, 64, 71
1, 139373, Control_c, 0, 64, 71
1, 139389, Control_c, 0, 64, 69
1, 139404, Control_c, 0, 64, 68
1, 139419, Control_c, 0, 64, 65
1, 139425, Note_on_c, 0, 70, 85
1, 139427, Note_on_c, 0, 51, 66
1, 139430, Note_on_c, 0, 60, 71
1, 139433, Control_c, 0, 64, 64
1, 139434, Note_on_c, 0, 66, 59
1, 139448, Control_c, 0, 64, 62
1, 139454, Note_off_c, 0, 66, 63
1, 139458, Note_off_c, 0, 70, 60
1, 139459, Note_off_c, 0, 60, 67
1, 139463, Control_c, 0, 64, 61
1, 139478, Control_c, 0, 64, 58
1, 139491, Note_off_c, 0, 51, 62
1, 139493, Control_c, 0, 64, 55
1, 139507, Control_c, 0, 64, 49
1, 139522, Control_c, 0, 64, 42
1, 139527, Note_on_c, 0, 60, 63
1, 139537, Control_c, 0, 64, 31
1, 139541, Note_on_c, 0, 70, 59
1, 139552, Control_c, 0, 64, 0
1, 139561, Note_on_c, 0, 66, 10
1, 139561, Note_off_c, 0, 66, 127
1, 139561, Note_off_c, 0, 70, 61
1, 139594, Note_off_c, 0, 60, 62
1, 139620, Note_on_c, 0, 70, 89
1, 139626, Note_on_c, 0, 65, 74
1, 139626, Control_c, 0, 64, 34
1, 139641, Note_on_c, 0, 58, 71
1, 139641, Control_c, 0, 64, 50
1, 139650, Note_off_c, 0, 65, 69
1, 139656, Control_c, 0, 64, 61
1, 139661, Note_off_c, 0, 70, 63
1, 139671, Control_c, 0, 64, 66
1, 139686, Control_c, 0, 64, 69
1, 139700, Control_c, 0, 64, 71
1, 139715, Control_c, 0, 64, 72
1, 139731, Control_c, 0, 64, 73
1, 139737, Note_on_c, 0, 50, 71
1, 139737, Note_off_c, 0, 58, 61
1, 139746, Control_c, 0, 64, 73
1, 139802, Note_off_c, 0, 50, 60
1, 139805, Control_c, 0, 64, 72
1, 139820, Control_c, 0, 64, 70
1, 139832, Note_on_c, 0, 56, 76
1, 139834, Control_c, 0, 64, 66
1, 139843, Note_on_c, 0, 79, 86
1, 139846, Note_on_c, 0, 71, 72
1, 139849, Control_c, 0, 64, 63
1, 139851, Note_on_c, 0, 67, 66
1, 139862, Note_off_c, 0, 71, 69
1, 139864, Control_c, 0, 64, 58
1, 139869, Note_off_c, 0, 67, 66
1, 139879, Control_c, 0, 64, 53
1, 139880, Note_off_c, 0, 79, 64
1, 139894, Control_c, 0, 64, 48
1, 139896, Note_off_c, 0, 56, 62
1, 139908, Control_c, 0, 64, 42
1, 139923, Control_c, 0, 64, 33
1, 139930, Note_on_c, 0, 67, 76
1, 139937, Note_on_c, 0, 79, 74
1, 139938, Control_c, 0, 64, 0
1, 139939, Note_on_c, 0, 65, 72
1, 139958, Note_off_c, 0, 67, 64
1, 139974, Note_off_c, 0, 79, 66
1, 140011, Note_off_c, 0, 65, 60
1, 140026, Control_c, 0, 64, 29
1, 140029, Note_on_c, 0, 79, 83
1, 140033, Note_on_c, 0, 72, 83
1, 140040, Note_on_c, 0, 63, 74
1, 140041, Control_c, 0, 64, 48
1, 140053, Note_off_c, 0, 72, 70
1, 140056, Control_c, 0, 64, 62
1, 140071, Control_c, 0, 64, 68
1, 140073, Note_off_c, 0, 79, 68
1, 140086, Control_c, 0, 64, 73
1, 140108, Control_c, 0, 64, 80
1, 140123, Control_c, 0, 64, 85
1, 140138, Control_c, 0, 64, 87
1, 140142, Note_off_c, 0, 63, 42
1, 140142, Note_on_c, 0, 55, 72
1, 140153, Control_c, 0, 64, 89
1, 140167, Control_c, 0, 64, 90
1, 140179, Note_off_c, 0, 55, 57
1, 140213, Control_c, 0, 64, 89
1, 140228, Control_c, 0, 64, 84
1, 140243, Control_c, 0, 64, 73
1, 140257, Control_c, 0, 64, 60
1, 140263, Note_on_c, 0, 60, 70
1, 140264, Note_on_c, 0, 67, 75
1, 140264, Note_on_c, 0, 86, 85
1, 140264, Note_on_c, 0, 79, 82
1, 140264, Note_on_c, 0, 82, 85
1, 140267, Note_on_c, 0, 63, 71
1, 140267, Note_on_c, 0, 74, 77
1, 140272, Control_c, 0, 64, 33
1, 140284, Note_off_c, 0, 79, 74
1, 140286, Note_off_c, 0, 82, 67
1, 140287, Control_c, 0, 64, 0
1, 140288, Note_off_c, 0, 74, 70
1, 140288, Note_off_c, 0, 86, 63
1, 140296, Note_off_c, 0, 60, 66
1, 140297, Note_off_c, 0, 63, 64
1, 140300, Note_off_c, 0, 67, 64
1, 140354, Note_on_c, 0, 63, 84
1, 140358, Note_on_c, 0, 86, 83
1, 140359, Note_on_c, 0, 74, 77
1, 140359, Note_on_c, 0, 79, 79
1, 140359, Note_on_c, 0, 82, 85
1, 140361, Note_on_c, 0, 60, 69
1, 140363, Note_on_c, 0, 67, 55
1, 140385, Note_off_c, 0, 79, 65
1, 140388, Note_off_c, 0, 63, 63
1, 140389, Note_off_c, 0, 60, 65
1, 140395, Note_off_c, 0, 67, 64
1, 140396, Note_off_c, 0, 74, 62
1, 140403, Note_off_c, 0, 86, 54
1, 140409, Note_off_c, 0, 82, 63
1, 140467, Note_on_c, 0, 67, 84
1, 140467, Note_on_c, 0, 82, 90
1, 140470, Note_on_c, 0, 60, 79
1, 140470, Note_on_c, 0, 74, 89
1, 140471, Note_on_c, 0, 86, 86
1, 140475, Note_on_c, 0, 79, 85
1, 140476, Note_on_c, 0, 63, 82
1, 140479, Control_c, 0, 64, 60
1, 140494, Control_c, 0, 64, 81
1, 140500, Note_off_c, 0, 63, 62
1, 140504, Note_off_c, 0, 79, 63
1, 140507, Note_off_c, 0, 67, 63
1, 140507, Note_off_c, 0, 86, 63
1, 140509, Control_c, 0, 64, 127
1, 140512, Note_off_c, 0, 74, 64
1, 140515, Note_off_c, 0, 60, 63
1, 140523, Note_off_c, 0, 82, 62
1, 140701, Note_on_c, 0, 64, 76
1, 140703, Note_on_c, 0, 61, 74
1, 140703, Note_on_c, 0, 67, 75
1, 140704, Note_on_c, 0, 79, 83
1, 140707, Note_on_c, 0, 57, 72
1, 140709, Note_on_c, 0, 73, 72
1, 140711, Note_on_c, 0, 76, 69
1, 140728, Note_off_c, 0, 76, 66
1, 140729, Note_off_c, 0, 61, 65
1, 140729, Note_off_c, 0, 73, 66
1, 140731, Note_off_c, 0, 64, 59
1, 140731, Note_off_c, 0, 67, 68
1, 140733, Note_off_c, 0, 57, 67
1, 140740, Note_off_c, 0, 79, 57
1, 140760, Control_c, 0, 64, 83
1, 140774, Note_on_c, 0, 64, 53
1, 140774, Control_c, 0, 64, 61
1, 140775, Note_on_c, 0, 79, 65
1, 140776, Note_on_c, 0, 61, 73
1, 140782, Note_on_c, 0, 67, 73
1, 140784, Note_on_c, 0, 57, 66
1, 140787, Note_on_c, 0, 76, 83
1, 140789, Control_c, 0, 64, 0
1, 140790, Note_on_c, 0, 73, 78
1, 140807, Note_off_c, 0, 57, 65
1, 140813, Note_off_c, 0, 64, 54
1, 140815, Note_off_c, 0, 61, 61
1, 140825, Note_off_c, 0, 73, 58
1, 140828, Note_off_c, 0, 67, 61
1, 140828, Note_off_c, 0, 79, 66
1, 140841, Note_off_c, 0, 76, 61
1, 140881, Note_on_c, 0, 57, 84
1, 140882, Note_on_c, 0, 64, 82
1, 140886, Control_c, 0, 64, 50
1, 140891, Note_on_c, 0, 67, 84
1, 140893, Note_on_c, 0, 61, 77
1, 140895, Note_on_c, 0, 73, 88
1, 140895, Note_on_c, 0, 79, 81
1, 140898, Note_on_c, 0, 76, 65
1, 140900, Control_c, 0, 64, 69
1, 140908, Note_off_c, 0, 64, 67
1, 140914, Note_off_c, 0, 79, 72
1, 140915, Control_c, 0, 64, 86
1, 140916, Note_off_c, 0, 61, 69
1, 140923, Note_off_c, 0, 76, 67
1, 140923, Note_off_c, 0, 57, 63
1, 140927, Note_off_c, 0, 73, 65
1, 140930, Control_c, 0, 64, 127
1, 140932, Note_off_c, 0, 67, 64
1, 141120, Note_on_c, 0, 38, 78
1, 141120, Note_on_c, 0, 50, 79
1, 141120, Note_on_c, 0, 54, 80
1, 141121, Note_on_c, 0, 45, 74
1, 141122, Note_on_c, 0, 62, 74
1, 141138, Control_c, 0, 64, 87
1, 141141, Note_off_c, 0, 54, 65
1, 141146, Note_off_c, 0, 62, 69
1, 141147, Note_off_c, 0, 45, 66
1, 141147, Note_off_c, 0, 38, 66
1, 141147, Note_off_c, 0, 50, 64
1, 141153, Control_c, 0, 64, 66
1, 141168, Control_c, 0, 64, 41
1, 141183, Control_c, 0, 64, 0
1, 141197, Note_on_c, 0, 50, 67
1, 141197, Note_on_c, 0, 62, 80
1, 141197, Note_on_c, 0, 54, 86
1, 141201, Note_on_c, 0, 45, 81
1, 141209, Note_on_c, 0, 38, 69
1, 141229, Note_off_c, 0, 50, 63
1, 141230, Note_off_c, 0, 45, 67
1, 141241, Note_off_c, 0, 38, 64
1, 141247, Note_off_c, 0, 54, 62
1, 141248, Note_off_c, 0, 62, 61
1, 141297, Note_on_c, 0, 62, 87
1, 141302, Note_on_c, 0, 50, 79
1, 141302, Control_c, 0, 64, 57
1, 141302, Note_on_c, 0, 54, 76
1, 141305, Note_on_c, 0, 45, 77
1, 141305, Note_on_c, 0, 38, 77
1, 141317, Control_c, 0, 64, 71
1, 141325, Note_off_c, 0, 54, 67
1, 141326, Note_off_c, 0, 45, 67
1, 141326, Note_off_c, 0, 50, 66
1, 141331, Control_c, 0, 64, 90
1, 141336, Note_off_c, 0, 38, 65
1, 141341, Note_off_c, 0, 62, 65
1, 141346, Control_c, 0, 64, 127
1, 141538, Note_on_c, 0, 66, 85
1, 141545, Note_on_c, 0, 75, 85
1, 141548, Note_on_c, 0, 56, 73
1, 141548, Note_on_c, 0, 87, 89
1, 141549, Note_on_c, 0, 63, 66
1, 141556, Note_on_c, 0, 60, 55
1, 141558, Note_on_c, 0, 80, 62
1, 141571, Note_off_c, 0, 75, 63
1, 141576, Note_off_c, 0, 56, 65
1, 141576, Note_off_c, 0, 80, 65
1, 141576, Note_off_c, 0, 87, 58
1, 141579, Note_off_c, 0, 63, 66
1, 141588, Note_off_c, 0, 60, 66
1, 141597, Note_off_c, 0, 66, 60
1, 141611, Note_on_c, 0, 82, 3
1, 141628, Note_on_c, 0, 66, 75
1, 141635, Control_c, 0, 64, 84
1, 141636, Poly_aftertouch_c, 0, 84, 127
1, 141636, Note_on_c, 0, 63, 78
1, 141636, Note_on_c, 0, 75, 86
1, 141637, Note_on_c, 0, 87, 78
1, 141643, Note_on_c, 0, 84, 16
1, 141644, Note_on_c, 0, 80, 82
1, 141647, Note_on_c, 0, 56, 68
1, 141650, Note_off_c, 0, 82, 40
1, 141650, Control_c, 0, 64, 60
1, 141654, Note_on_c, 0, 60, 60
1, 141663, Note_off_c, 0, 56, 66
1, 141665, Control_c, 0, 64, 0
1, 141667, Note_off_c, 0, 80, 64
1, 141676, Note_off_c, 0, 87, 52
1, 141680, Note_off_c, 0, 63, 58
1, 141680, Note_off_c, 0, 66, 61
1, 141686, Note_off_c, 0, 60, 65
1, 141686, Note_off_c, 0, 75, 62
1, 141689, Note_off_c, 0, 84, 62
1, 141723, Control_c, 0, 64, 47
1, 141725, Note_on_c, 0, 75, 83
1, 141727, Note_on_c, 0, 66, 79
1, 141728, Note_on_c, 0, 63, 83
1, 141730, Note_on_c, 0, 87, 85
1, 141731, Note_on_c, 0, 84, 78
1, 141733, Note_on_c, 0, 80, 86
1, 141737, Note_on_c, 0, 60, 75
1, 141738, Control_c, 0, 64, 64
1, 141741, Note_on_c, 0, 56, 64
1, 141753, Note_off_c, 0, 80, 68
1, 141753, Control_c, 0, 64, 80
1, 141757, Note_off_c, 0, 87, 66
1, 141763, Note_off_c, 0, 84, 64
1, 141768, Control_c, 0, 64, 127
1, 141771, Note_off_c, 0, 75, 63
1, 141774, Note_off_c, 0, 56, 62
1, 141776, Note_off_c, 0, 66, 62
1, 141779, Note_off_c, 0, 60, 62
1, 141779, Note_off_c, 0, 63, 63
1, 141830, Poly_aftertouch_c, 0, 82, 0
1, 141939, Note_on_c, 0, 67, 79
1, 141940, Note_on_c, 0, 64, 78
1, 141946, Note_on_c, 0, 61, 74
1, 141951, Note_on_c, 0, 79, 71
1, 141952, Note_on_c, 0, 57, 66
1, 141953, Note_on_c, 0, 73, 56
1, 141957, Note_on_c, 0, 76, 51
1, 141966, Note_off_c, 0, 67, 66
1, 141970, Note_off_c, 0, 61, 68
1, 141971, Note_off_c, 0, 79, 68
1, 141975, Note_off_c, 0, 57, 65
1, 141975, Note_off_c, 0, 73, 62
1, 141977, Note_off_c, 0, 64, 62
1, 141977, Control_c, 0, 64, 79
1, 141981, Note_off_c, 0, 76, 58
1, 141984, Note_on_c, 0, 62, 31
1, 141992, Control_c, 0, 64, 60
1, 142007, Control_c, 0, 64, 0
1, 142015, Note_on_c, 0, 67, 82
1, 142022, Note_on_c, 0, 79, 80
1, 142023, Note_off_c, 0, 62, 35
1, 142025, Note_on_c, 0, 64, 70
1, 142026, Note_on_c, 0, 76, 75
1, 142031, Note_on_c, 0, 73, 74
1, 142035, Note_on_c, 0, 57, 76
1, 142040, Note_on_c, 0, 61, 74
1, 142045, Note_off_c, 0, 79, 67
1, 142053, Note_off_c, 0, 73, 70
1, 142055, Note_off_c, 0, 76, 63
1, 142059, Note_off_c, 0, 67, 62
1, 142063, Note_off_c, 0, 57, 63
1, 142065, Note_off_c, 0, 61, 68
1, 142081, Control_c, 0, 64, 35
1, 142096, Control_c, 0, 64, 59
1, 142110, Note_on_c, 0, 67, 83
1, 142110, Control_c, 0, 64, 73
1, 142112, Note_on_c, 0, 57, 77
1, 142113, Note_on_c, 0, 73, 100
1, 142116, Note_on_c, 0, 76, 84
1, 142116, Note_on_c, 0, 79, 87
1, 142122, Note_on_c, 0, 61, 80
1, 142125, Control_c, 0, 64, 95
1, 142133, Note_off_c, 0, 79, 75
1, 142136, Note_off_c, 0, 76, 70
1, 142138, Note_off_c, 0, 57, 66
1, 142138, Note_off_c, 0, 64, 65
1, 142139, Note_off_c, 0, 73, 63
1, 142140, Control_c, 0, 64, 127
1, 142142, Note_off_c, 0, 67, 65
1, 142142, Note_off_c, 0, 61, 69
1, 142326, Note_on_c, 0, 38, 79
1, 142327, Note_on_c, 0, 50, 79
1, 142329, Note_on_c, 0, 45, 75
1, 142330, Note_on_c, 0, 54, 83
1, 142336, Note_on_c, 0, 62, 68
1, 142354, Control_c, 0, 64, 92
1, 142360, Note_off_c, 0, 54, 70
1, 142362, Note_off_c, 0, 38, 66
1, 142362, Note_off_c, 0, 45, 66
1, 142362, Note_off_c, 0, 50, 65
1, 142366, Note_off_c, 0, 62, 61
1, 142369, Control_c, 0, 64, 70
1, 142375, Note_on_c, 0, 60, 29
1, 142375, Note_off_c, 0, 60, 127
1, 142384, Control_c, 0, 64, 53
1, 142399, Control_c, 0, 64, 0
1, 142420, Note_on_c, 0, 45, 78
1, 142421, Note_on_c, 0, 50, 72
1, 142421, Note_on_c, 0, 54, 94
1, 142426, Note_on_c, 0, 38, 72
1, 142426, Note_on_c, 0, 62, 78
1, 142452, Note_off_c, 0, 38, 65
1, 142452, Note_off_c, 0, 50, 62
1, 142454, Note_off_c, 0, 45, 64
1, 142461, Note_off_c, 0, 62, 57
1, 142468, Note_off_c, 0, 54, 62
1, 142517, Note_on_c, 0, 38, 83
1, 142518, Note_on_c, 0, 62, 83
1, 142518, Control_c, 0, 64, 55
1, 142518, Note_on_c, 0, 45, 83
1, 142519, Note_on_c, 0, 54, 83
1, 142522, Note_on_c, 0, 50, 77
1, 142533, Control_c, 0, 64, 67
1, 142547, Control_c, 0, 64, 79
1, 142548, Note_off_c, 0, 38, 67
1, 142548, Note_off_c, 0, 54, 67
1, 142552, Note_off_c, 0, 45, 65
1, 142560, Note_off_c, 0, 50, 58
1, 142562, Control_c, 0, 64, 98
1, 142572, Note_off_c, 0, 62, 64
1, 142578, Control_c, 0, 64, 127
1, 142884, Note_on_c, 0, 63, 26
1, 142922, Note_on_c, 0, 89, 86
1, 142922, Note_off_c, 0, 63, 46
1, 142926, Note_on_c, 0, 77, 79
1, 142932, Note_on_c, 0, 86, 76
1, 142933, Control_c, 0, 64, 98
1, 142935, Note_on_c, 0, 68, 77
1, 142935, Note_on_c, 0, 82, 72
1, 142938, Note_on_c, 0, 58, 68
1, 142948, Control_c, 0, 64, 69
1, 142956, Note_on_c, 0, 65, 62
1, 142957, Note_off_c, 0, 86, 67
1, 142958, Note_off_c, 0, 82, 69
1, 142963, Control_c, 0, 64, 53
1, 142965, Note_off_c, 0, 77, 62
1, 142968, Note_off_c, 0, 89, 65
1, 142977, Control_c, 0, 64, 38
1, 142992, Control_c, 0, 64, 32
1, 142995, Note_off_c, 0, 58, 61
1, 143010, Note_on_c, 0, 89, 82
1, 143019, Note_on_c, 0, 77, 78
1, 143019, Note_on_c, 0, 86, 88
1, 143021, Note_on_c, 0, 82, 90
1, 143028, Note_on_c, 0, 62, 48
1, 143041, Note_off_c, 0, 82, 64
1, 143047, Note_off_c, 0, 77, 64
1, 143052, Note_off_c, 0, 86, 61
1, 143052, Control_c, 0, 64, 34
1, 143056, Note_off_c, 0, 89, 65
1, 143066, Control_c, 0, 64, 41
1, 143071, Note_off_c, 0, 65, 60
1, 143080, Note_off_c, 0, 68, 24
1, 143081, Control_c, 0, 64, 53
1, 143103, Control_c, 0, 64, 66
1, 143109, Note_off_c, 0, 62, 0
1, 143114, Note_on_c, 0, 89, 87
1, 143115, Note_on_c, 0, 65, 57
1, 143118, Control_c, 0, 64, 80
1, 143120, Note_on_c, 0, 77, 92
1, 143120, Note_on_c, 0, 86, 88
1, 143122, Note_on_c, 0, 68, 70
1, 143122, Note_on_c, 0, 82, 95
1, 143123, Note_on_c, 0, 58, 84
1, 143126, Note_on_c, 0, 62, 41
1, 143133, Control_c, 0, 64, 112
1, 143145, Note_off_c, 0, 82, 63
1, 143148, Control_c, 0, 64, 127
1, 143150, Note_off_c, 0, 68, 69
1, 143153, Note_off_c, 0, 89, 66
1, 143154, Note_off_c, 0, 86, 62
1, 143156, Note_off_c, 0, 77, 63
1, 143157, Note_off_c, 0, 62, 64
1, 143165, Note_off_c, 0, 65, 63
1, 143183, Note_off_c, 0, 58, 64
1, 143312, Note_on_c, 0, 63, 24
1, 143341, Note_on_c, 0, 64, 72
1, 143353, Note_off_c, 0, 63, 52
1, 143356, Note_on_c, 0, 67, 81
1, 143362, Note_on_c, 0, 79, 76
1, 143362, Note_on_c, 0, 73, 71
1, 143363, Note_on_c, 0, 76, 72
1, 143370, Note_on_c, 0, 57, 42
1, 143371, Note_off_c, 0, 64, 65
1, 143377, Note_off_c, 0, 67, 69
1, 143380, Note_off_c, 0, 73, 67
1, 143380, Note_off_c, 0, 76, 66
1, 143385, Note_on_c, 0, 55, 22
1, 143385, Note_off_c, 0, 79, 68
1, 143400, Note_off_c, 0, 57, 52
1, 143415, Control_c, 0, 64, 86
1, 143420, Note_on_c, 0, 61, 14
1, 143421, Note_on_c, 0, 64, 77
1, 143424, Note_off_c, 0, 55, 40
1, 143427, Note_on_c, 0, 57, 70
1, 143429, Note_on_c, 0, 67, 90
1, 143430, Control_c, 0, 64, 67
1, 143436, Note_on_c, 0, 76, 87
1, 143439, Note_on_c, 0, 73, 81
1, 143445, Control_c, 0, 64, 57
1, 143448, Poly_aftertouch_c, 0, 79, 127
1, 143460, Control_c, 0, 64, 55
1, 143467, Poly_aftertouch_c, 0, 79, 0
1, 143469, Note_off_c, 0, 73, 58
1, 143470, Note_off_c, 0, 64, 63
1, 143475, Note_off_c, 0, 57, 59
1, 143475, Note_off_c, 0, 76, 57
1, 143475, Control_c, 0, 64, 60
1, 143479, Note_off_c, 0, 61, 62
1, 143479, Note_off_c, 0, 67, 64
1, 143490, Control_c, 0, 64, 66
1, 143505, Control_c, 0, 64, 71
1, 143519, Control_c, 0, 64, 82
1, 143530, Note_on_c, 0, 67, 90
1, 143532, Note_on_c, 0, 79, 93
1, 143534, Note_on_c, 0, 73, 93
1, 143534, Control_c, 0, 64, 99
1, 143534, Note_on_c, 0, 64, 71
1, 143534, Note_on_c, 0, 76, 88
1, 143537, Note_on_c, 0, 57, 81
1, 143538, Note_on_c, 0, 61, 70
1, 143549, Control_c, 0, 64, 127
1, 143550, Note_off_c, 0, 79, 69
1, 143553, Note_off_c, 0, 64, 66
1, 143559, Note_off_c, 0, 57, 70
1, 143561, Note_off_c, 0, 76, 65
1, 143564, Note_off_c, 0, 61, 65
1, 143565, Note_off_c, 0, 73, 62
1, 143568, Note_off_c, 0, 67, 62
1, 143755, Note_on_c, 0, 50, 78
1, 143758, Note_on_c, 0, 38, 71
1, 143760, Note_on_c, 0, 54, 84
1, 143763, Note_on_c, 0, 62, 75
1, 143764, Note_on_c, 0, 45, 71
1, 143783, Note_off_c, 0, 54, 70
1, 143791, Note_off_c, 0, 62, 65
1, 143793, Note_off_c, 0, 45, 65
1, 143799, Note_off_c, 0, 38, 58
1, 143812, Note_off_c, 0, 50, 0
1, 143815, Control_c, 0, 64, 104
1, 143830, Control_c, 0, 64, 84
1, 143847, Note_on_c, 0, 62, 76
1, 143849, Note_on_c, 0, 38, 69
1, 143853, Control_c, 0, 64, 69
1, 143853, Note_on_c, 0, 54, 84
1, 143854, Note_on_c, 0, 45, 83
1, 143854, Note_on_c, 0, 50, 18
1, 143868, Control_c, 0, 64, 58
1, 143876, Note_off_c, 0, 54, 65
1, 143882, Control_c, 0, 64, 45
1, 143883, Note_off_c, 0, 45, 66
1, 143895, Note_off_c, 0, 38, 62
1, 143895, Note_off_c, 0, 50, 63
1, 143897, Control_c, 0, 64, 40
1, 143900, Note_off_c, 0, 62, 62
1, 143912, Control_c, 0, 64, 43
1, 143926, Control_c, 0, 64, 51
1, 143941, Control_c, 0, 64, 58
1, 143943, Note_on_c, 0, 62, 77
1, 143949, Note_on_c, 0, 54, 90
1, 143952, Note_on_c, 0, 45, 84
1, 143956, Note_on_c, 0, 50, 77
1, 143956, Control_c, 0, 64, 64
1, 143958, Note_on_c, 0, 38, 67
1, 143971, Control_c, 0, 64, 75
1, 143974, Note_off_c, 0, 54, 69
1, 143981, Note_off_c, 0, 38, 64
1, 143985, Note_off_c, 0, 45, 65
1, 143986, Control_c, 0, 64, 98
1, 144000, Control_c, 0, 64, 127
1, 144001, Note_off_c, 0, 50, 61
1, 144002, Note_off_c, 0, 62, 64
1, 144194, Control_c, 0, 64, 84
1, 144209, Control_c, 0, 64, 67
1, 144223, Control_c, 0, 64, 63
1, 144223, Note_on_c, 0, 66, 85
1, 144226, Note_on_c, 0, 78, 98
1, 144226, Note_on_c, 0, 90, 94
1, 144231, Note_on_c, 0, 54, 73
1, 144238, Control_c, 0, 64, 69
1, 144253, Control_c, 0, 64, 82
1, 144254, Note_off_c, 0, 54, 70
1, 144263, Note_off_c, 0, 78, 67
1, 144268, Control_c, 0, 64, 127
1, 144268, Note_off_c, 0, 90, 66
1, 144276, Note_off_c, 0, 66, 58
1, 144470, Note_on_c, 0, 70, 66
1, 144478, Note_on_c, 0, 62, 69
1, 144479, Note_on_c, 0, 64, 68
1, 144485, Note_on_c, 0, 76, 82
1, 144487, Note_on_c, 0, 86, 91
1, 144488, Note_on_c, 0, 82, 80
1, 144494, Note_on_c, 0, 74, 73
1, 144496, Note_off_c, 0, 70, 69
1, 144506, Note_off_c, 0, 62, 65
1, 144506, Note_off_c, 0, 64, 68
1, 144507, Note_off_c, 0, 86, 67
1, 144507, Note_off_c, 0, 76, 70
1, 144507, Note_off_c, 0, 82, 71
1, 144519, Note_off_c, 0, 74, 67
1, 144689, Control_c, 0, 64, 85
1, 144704, Control_c, 0, 64, 69
1, 144706, Note_on_c, 0, 50, 77
1, 144712, Note_on_c, 0, 62, 78
1, 144712, Note_on_c, 0, 74, 96
1, 144719, Control_c, 0, 64, 68
1, 144734, Control_c, 0, 64, 83
1, 144748, Control_c, 0, 64, 127
1, 144772, Note_off_c, 0, 50, 57
1, 144773, Note_off_c, 0, 74, 61
1, 144787, Note_off_c, 0, 62, 60
1, 144908, Note_on_c, 0, 58, 71
1, 144908, Note_on_c, 0, 82, 83
1, 144909, Note_on_c, 0, 65, 74
1, 144915, Note_on_c, 0, 77, 68
1, 144918, Note_on_c, 0, 53, 54
1, 144924, Note_on_c, 0, 70, 68
1, 144928, Note_off_c, 0, 65, 67
1, 144941, Note_off_c, 0, 77, 65
1, 144950, Note_off_c, 0, 82, 63
1, 144953, Note_off_c, 0, 58, 62
1, 144953, Note_off_c, 0, 70, 67
1, 144962, Note_off_c, 0, 53, 63
1, 145061, Control_c, 0, 64, 84
1, 145076, Control_c, 0, 64, 69
1, 145090, Control_c, 0, 64, 73
1, 145105, Note_on_c, 0, 54, 77
1, 145105, Control_c, 0, 64, 103
1, 145107, Note_on_c, 0, 66, 90
1, 145110, Note_on_c, 0, 78, 88
1, 145116, Note_on_c, 0, 42, 49
1, 145120, Control_c, 0, 64, 127
1, 145136, Note_off_c, 0, 78, 65
1, 145147, Note_off_c, 0, 42, 58
1, 145150, Note_off_c, 0, 66, 63
1, 145155, Note_off_c, 0, 54, 59
1, 145300, Note_on_c, 0, 52, 71
1, 145303, Note_on_c, 0, 70, 77
1, 145305, Note_on_c, 0, 74, 83
1, 145306, Note_on_c, 0, 58, 59
1, 145307, Note_on_c, 0, 64, 69
1, 145308, Note_on_c, 0, 50, 60
1, 145310, Note_on_c, 0, 62, 73
1, 145328, Note_off_c, 0, 52, 67
1, 145328, Note_off_c, 0, 74, 67
1, 145330, Note_off_c, 0, 64, 63
1, 145332, Note_off_c, 0, 58, 60
1, 145335, Note_off_c, 0, 70, 63
1, 145336, Note_off_c, 0, 50, 64
1, 145338, Note_off_c, 0, 62, 67
1, 145484, Control_c, 0, 64, 84
1, 145498, Control_c, 0, 64, 75
1, 145499, Note_on_c, 0, 38, 74
1, 145499, Note_on_c, 0, 62, 92
1, 145501, Note_on_c, 0, 50, 70
1, 145513, Control_c, 0, 64, 81
1, 145528, Control_c, 0, 64, 127
1, 145567, Note_off_c, 0, 62, 61
1, 145576, Note_off_c, 0, 38, 59
1, 145579, Note_off_c, 0, 50, 54
1, 145691, Note_on_c, 0, 70, 78
1, 145692, Note_on_c, 0, 53, 75
1, 145694, Note_on_c, 0, 46, 69
1, 145699, Note_on_c, 0, 65, 64
1, 145703, Note_on_c, 0, 41, 57
1, 145712, Note_on_c, 0, 58, 64
1, 145719, Note_off_c, 0, 53, 67
1, 145734, Note_off_c, 0, 65, 63
1, 145738, Note_off_c, 0, 46, 63
1, 145738, Note_off_c, 0, 70, 61
1, 145739, Note_off_c, 0, 58, 68
1, 145746, Note_off_c, 0, 41, 63
1, 145855, Control_c, 0, 64, 90
1, 145869, Control_c, 0, 64, 59
1, 145881, Note_on_c, 0, 42, 86
1, 145884, Control_c, 0, 64, 43
1, 145886, Note_on_c, 0, 30, 82
1, 145892, Note_on_c, 0, 54, 91
1, 145898, Note_on_c, 0, 66, 79
1, 145899, Control_c, 0, 64, 62
1, 145911, Note_off_c, 0, 30, 65
1, 145913, Control_c, 0, 64, 83
1, 145927, Note_off_c, 0, 66, 65
1, 145928, Control_c, 0, 64, 127
1, 145936, Note_off_c, 0, 42, 62
1, 145943, Note_off_c, 0, 54, 63
1, 146049, Poly_aftertouch_c, 0, 39, 0
1, 146080, Poly_aftertouch_c, 0, 39, 0
1, 146106, Note_on_c, 0, 62, 78
1, 146109, Note_on_c, 0, 58, 73
1, 146110, Note_on_c, 0, 46, 76
1, 146113, Note_on_c, 0, 38, 66
1, 146115, Note_on_c, 0, 50, 71
1, 146138, Note_off_c, 0, 38, 65
1, 146143, Note_off_c, 0, 46, 62
1, 146143, Note_off_c, 0, 50, 64
1, 146155, Note_off_c, 0, 62, 63
1, 146158, Note_off_c, 0, 58, 60
1, 146277, Control_c, 0, 64, 93
1, 146292, Control_c, 0, 64, 97
1, 146307, Control_c, 0, 64, 127
1, 146310, Note_on_c, 0, 54, 91
1, 146316, Note_on_c, 0, 78, 94
1, 146319, Note_on_c, 0, 42, 70
1, 146319, Note_on_c, 0, 66, 81
1, 146334, Note_on_c, 0, 68, 60
1, 146343, Note_off_c, 0, 42, 69
1, 146354, Note_off_c, 0, 66, 62
1, 146354, Note_off_c, 0, 78, 64
1, 146356, Note_off_c, 0, 68, 61
1, 146373, Note_off_c, 0, 54, 56
1, 146517, Note_on_c, 0, 74, 83
1, 146521, Note_on_c, 0, 58, 77
1, 146521, Note_on_c, 0, 62, 72
1, 146524, Note_on_c, 0, 70, 78
1, 146527, Note_on_c, 0, 50, 64
1, 146546, Note_off_c, 0, 62, 68
1, 146549, Note_off_c, 0, 70, 66
1, 146552, Note_off_c, 0, 50, 64
1, 146557, Note_off_c, 0, 74, 65
1, 146569, Note_off_c, 0, 58, 53
1, 146719, Note_on_c, 0, 66, 84
1, 146721, Note_on_c, 0, 78, 94
1, 146723, Note_on_c, 0, 90, 100
1, 146727, Note_on_c, 0, 54, 72
1, 146757, Note_off_c, 0, 78, 67
1, 146757, Note_off_c, 0, 90, 67
1, 146778, Note_off_c, 0, 54, 62
1, 146810, Note_off_c, 0, 66, 55
1, 146933, Note_on_c, 0, 86, 89
1, 146934, Note_on_c, 0, 74, 84
1, 146934, Note_on_c, 0, 82, 89
1, 146942, Note_on_c, 0, 62, 70
1, 146942, Note_on_c, 0, 70, 83
1, 146953, Note_off_c, 0, 74, 71
1, 146962, Note_off_c, 0, 82, 59
1, 146965, Note_off_c, 0, 62, 69
1, 146969, Note_off_c, 0, 86, 65
1, 146995, Note_off_c, 0, 70, 62
1, 147170, Note_on_c, 0, 90, 103
1, 147170, Note_on_c, 0, 102, 100
1, 147171, Note_on_c, 0, 78, 88
1, 147185, Note_on_c, 0, 66, 68
1, 147204, Note_off_c, 0, 102, 66
1, 147207, Note_off_c, 0, 90, 67
1, 147215, Note_off_c, 0, 66, 64
1, 147219, Note_off_c, 0, 78, 59
1, 147401, Note_on_c, 0, 94, 81
1, 147401, Note_on_c, 0, 98, 95
1, 147405, Note_on_c, 0, 74, 76
1, 147405, Note_on_c, 0, 82, 83
1, 147409, Note_on_c, 0, 86, 93
1, 147423, Note_off_c, 0, 82, 71
1, 147433, Note_off_c, 0, 74, 65
1, 147610, Note_off_c, 0, 86, 58
1, 147621, Note_off_c, 0, 98, 57
1, 147714, Note_on_c, 0, 98, 92
1, 147714, Note_off_c, 0, 94, 0
1, 147716, Note_on_c, 0, 86, 87
1, 147720, Note_on_c, 0, 38, 78
1, 147722, Note_on_c, 0, 26, 76
1, 147756, Note_off_c, 0, 26, 62
1, 147764, Note_off_c, 0, 38, 61
1, 147766, Note_off_c, 0, 86, 63
1, 147772, Poly_aftertouch_c, 0, 94, 0
1, 147774, Note_off_c, 0, 98, 61
1, 147775, Control_c, 0, 64, 87
1, 147790, Control_c, 0, 64, 64
1, 147805, Control_c, 0, 64, 30
1, 147809, Note_on_c, 0, 98, 73
1, 147814, Note_on_c, 0, 26, 81
1, 147815, Note_on_c, 0, 38, 68
1, 147815, Note_on_c, 0, 86, 81
1, 147819, Control_c, 0, 64, 0
1, 147857, Note_off_c, 0, 26, 63
1, 147864, Note_off_c, 0, 38, 64
1, 147872, Note_off_c, 0, 86, 64
1, 147875, Note_off_c, 0, 98, 64
1, 147929, Note_on_c, 0, 26, 82
1, 147931, Note_on_c, 0, 38, 87
1, 147931, Note_on_c, 0, 98, 80
1, 147933, Note_on_c, 0, 86, 88
1, 147938, Control_c, 0, 64, 51
1, 147953, Note_off_c, 0, 26, 64
1, 147953, Control_c, 0, 64, 70
1, 147967, Control_c, 0, 64, 87
1, 147973, Note_off_c, 0, 98, 66
1, 147975, Note_off_c, 0, 38, 64
1, 147982, Control_c, 0, 64, 127
1, 148068, Note_off_c, 0, 86, 61
1, 148150, Note_on_c, 0, 57, 86
1, 148152, Note_on_c, 0, 88, 71
1, 148152, Note_on_c, 0, 91, 74
1, 148159, Note_on_c, 0, 45, 72
1, 148181, Note_off_c, 0, 57, 64
1, 148186, Note_off_c, 0, 45, 66
1, 148208, Note_off_c, 0, 88, 62
1, 148241, Note_off_c, 0, 91, 62
1, 148256, Note_on_c, 0, 93, 80
1, 148258, Note_on_c, 0, 45, 63
1, 148261, Note_on_c, 0, 57, 73
1, 148266, Note_on_c, 0, 81, 64
1, 148284, Note_off_c, 0, 45, 66
1, 148294, Note_off_c, 0, 57, 65
1, 148316, Note_off_c, 0, 81, 52
1, 148346, Control_c, 0, 64, 112
1, 148356, Note_off_c, 0, 93, 56
1, 148361, Control_c, 0, 64, 82
1, 148376, Control_c, 0, 64, 70
1, 148386, Note_on_c, 0, 86, 64
1, 148390, Note_on_c, 0, 90, 82
1, 148390, Control_c, 0, 64, 69
1, 148392, Note_on_c, 0, 50, 79
1, 148393, Note_on_c, 0, 62, 82
1, 148395, Note_on_c, 0, 59, 69
1, 148400, Note_on_c, 0, 55, 66
1, 148405, Control_c, 0, 64, 75
1, 148420, Control_c, 0, 64, 87
1, 148435, Control_c, 0, 64, 127
1, 148437, Note_off_c, 0, 86, 63
1, 148443, Note_off_c, 0, 59, 0
1, 148480, Note_off_c, 0, 90, 63
1, 148480, Poly_aftertouch_c, 0, 59, 127
1, 148481, Note_off_c, 0, 50, 58
1, 148490, Note_on_c, 0, 93, 63
1, 148495, Note_off_c, 0, 55, 61
1, 148496, Poly_aftertouch_c, 0, 59, 0
1, 148500, Note_on_c, 0, 81, 59
1, 148506, Note_off_c, 0, 62, 60
1, 148509, Note_off_c, 0, 93, 63
1, 148518, Note_off_c, 0, 81, 64
1, 148539, Control_c, 0, 64, 89
1, 148554, Control_c, 0, 64, 73
1, 148569, Control_c, 0, 64, 67
1, 148584, Control_c, 0, 64, 71
1, 148587, Note_on_c, 0, 64, 79
1, 148590, Note_on_c, 0, 52, 74
1, 148594, Note_on_c, 0, 86, 77
1, 148596, Note_on_c, 0, 55, 70
1, 148597, Note_on_c, 0, 83, 74
1, 148598, Control_c, 0, 64, 80
1, 148613, Control_c, 0, 64, 97
1, 148621, Note_off_c, 0, 52, 62
1, 148628, Note_on_c, 0, 84, 42
1, 148628, Note_off_c, 0, 84, 127
1, 148628, Control_c, 0, 64, 127
1, 148629, Note_off_c, 0, 83, 64
1, 148632, Note_off_c, 0, 55, 63
1, 148646, Note_off_c, 0, 64, 60
1, 148662, Note_off_c, 0, 86, 64
1, 148689, Note_on_c, 0, 88, 71
1, 148719, Note_off_c, 0, 88, 63
1, 148730, Control_c, 0, 64, 101
1, 148745, Control_c, 0, 64, 76
1, 148760, Control_c, 0, 64, 65
1, 148765, Poly_aftertouch_c, 0, 76, 0
1, 148775, Control_c, 0, 64, 63
1, 148776, Note_on_c, 0, 66, 85
1, 148779, Note_on_c, 0, 62, 78
1, 148781, Note_on_c, 0, 54, 76
1, 148786, Note_on_c, 0, 78, 77
1, 148790, Control_c, 0, 64, 69
1, 148798, Note_on_c, 0, 81, 43
1, 148805, Note_on_c, 0, 63, 49
1, 148805, Note_off_c, 0, 63, 127
1, 148805, Control_c, 0, 64, 78
1, 148820, Control_c, 0, 64, 92
1, 148827, Note_off_c, 0, 81, 55
1, 148830, Note_on_c, 0, 79, 34
1, 148834, Control_c, 0, 64, 127
1, 148837, Note_off_c, 0, 66, 60
1, 148840, Note_off_c, 0, 78, 62
1, 148845, Note_off_c, 0, 54, 61
1, 148850, Note_off_c, 0, 62, 60
1, 148868, Note_off_c, 0, 79, 44
1, 148876, Note_on_c, 0, 86, 63
1, 148877, Note_on_c, 0, 84, 73
1, 148892, Note_on_c, 0, 74, 47
1, 148903, Note_off_c, 0, 84, 66
1, 148903, Note_off_c, 0, 86, 65
1, 148908, Control_c, 0, 64, 100
1, 148919, Note_off_c, 0, 74, 55
1, 148923, Control_c, 0, 64, 71
1, 148938, Control_c, 0, 64, 58
1, 148953, Control_c, 0, 64, 53
1, 148963, Note_on_c, 0, 67, 83
1, 148965, Note_on_c, 0, 79, 85
1, 148966, Note_on_c, 0, 55, 73
1, 148969, Control_c, 0, 64, 59
1, 148969, Note_on_c, 0, 59, 67
1, 148972, Note_on_c, 0, 76, 81
1, 148984, Control_c, 0, 64, 67
1, 148998, Note_off_c, 0, 55, 64
1, 148998, Control_c, 0, 64, 81
1, 149013, Control_c, 0, 64, 127
1, 149014, Note_off_c, 0, 67, 64
1, 149015, Note_off_c, 0, 76, 60
1, 149020, Note_off_c, 0, 59, 61
1, 149043, Note_off_c, 0, 79, 64
1, 149076, Note_on_c, 0, 81, 72
1, 149091, Note_on_c, 0, 69, 60
1, 149094, Control_c, 0, 64, 87
1, 149109, Control_c, 0, 64, 66
1, 149110, Note_off_c, 0, 69, 63
1, 149124, Control_c, 0, 64, 55
1, 149139, Control_c, 0, 64, 57
1, 149153, Note_on_c, 0, 66, 80
1, 149153, Control_c, 0, 64, 64
1, 149155, Note_on_c, 0, 69, 77
1, 149159, Note_on_c, 0, 57, 72
1, 149164, Note_on_c, 0, 78, 86
1, 149166, Note_off_c, 0, 81, 56
1, 149168, Control_c, 0, 64, 75
1, 149173, Note_on_c, 0, 74, 62
1, 149174, Note_off_c, 0, 69, 71
1, 149177, Note_off_c, 0, 66, 67
1, 149183, Control_c, 0, 64, 125
1, 149191, Note_off_c, 0, 57, 65
1, 149198, Control_c, 0, 64, 127
1, 149205, Note_off_c, 0, 74, 66
1, 149253, Note_off_c, 0, 78, 64
1, 149258, Note_on_c, 0, 81, 80
1, 149263, Note_on_c, 0, 69, 64
1, 149287, Control_c, 0, 64, 94
1, 149288, Note_off_c, 0, 69, 53
1, 149302, Control_c, 0, 64, 78
1, 149317, Control_c, 0, 64, 73
1, 149332, Control_c, 0, 64, 77
1, 149341, Note_on_c, 0, 57, 89
1, 149342, Note_on_c, 0, 45, 82
1, 149345, Note_off_c, 0, 81, 40
1, 149346, Control_c, 0, 64, 93
1, 149351, Note_on_c, 0, 79, 90
1, 149353, Note_on_c, 0, 76, 79
1, 149361, Control_c, 0, 64, 127
1, 149368, Note_off_c, 0, 57, 65
1, 149374, Note_off_c, 0, 45, 65
1, 149402, Note_off_c, 0, 76, 62
1, 149434, Note_off_c, 0, 79, 61
1, 149451, Note_on_c, 0, 81, 77
1, 149461, Note_on_c, 0, 69, 55
1, 149496, Note_off_c, 0, 69, 58
1, 149510, Control_c, 0, 64, 89
1, 149525, Control_c, 0, 64, 63
1, 149539, Control_c, 0, 64, 35
1, 149553, Note_on_c, 0, 78, 85
1, 149554, Note_on_c, 0, 26, 90
1, 149554, Control_c, 0, 64, 0
1, 149558, Note_on_c, 0, 38, 87
1, 149562, Note_on_c, 0, 74, 74
1, 149569, Control_c, 0, 64, 48
1, 149579, Note_off_c, 0, 26, 69
1, 149583, Note_off_c, 0, 81, 33
1, 149583, Control_c, 0, 64, 64
1, 149587, Note_off_c, 0, 38, 67
1, 149598, Control_c, 0, 64, 75
1, 149601, Note_on_c, 0, 36, 21
1, 149613, Control_c, 0, 64, 98
1, 149628, Control_c, 0, 64, 127
1, 149647, Note_off_c, 0, 36, 50
1, 149678, Note_off_c, 0, 74, 62
1, 149714, Note_off_c, 0, 78, 63
1, 149765, Note_on_c, 0, 45, 83
1, 149779, Note_on_c, 0, 79, 79
1, 149790, Note_off_c, 0, 45, 68
1, 149797, Note_on_c, 0, 76, 56
1, 149831, Note_off_c, 0, 76, 58
1, 149869, Note_on_c, 0, 45, 75
1, 149887, Note_on_c, 0, 81, 81
1, 149890, Note_on_c, 0, 69, 57
1, 149893, Note_off_c, 0, 79, 66
1, 149912, Note_off_c, 0, 69, 59
1, 149918, Control_c, 0, 64, 88
1, 149919, Note_off_c, 0, 45, 62
1, 149933, Control_c, 0, 64, 69
1, 149948, Note_off_c, 0, 81, 61
1, 149948, Control_c, 0, 64, 59
1, 149962, Control_c, 0, 64, 60
1, 149972, Note_on_c, 0, 50, 87
1, 149977, Control_c, 0, 64, 67
1, 149980, Note_on_c, 0, 78, 85
1, 149990, Note_on_c, 0, 74, 56
1, 149992, Control_c, 0, 64, 75
1, 150007, Control_c, 0, 64, 86
1, 150011, Note_off_c, 0, 74, 61
1, 150021, Control_c, 0, 64, 106
1, 150036, Control_c, 0, 64, 127
1, 150067, Note_off_c, 0, 78, 61
1, 150070, Note_on_c, 0, 69, 64
1, 150072, Note_off_c, 0, 50, 55
1, 150094, Note_off_c, 0, 69, 65
1, 150110, Control_c, 0, 64, 100
1, 150125, Control_c, 0, 64, 77
1, 150140, Control_c, 0, 64, 67
1, 150155, Control_c, 0, 64, 64
1, 150161, Note_on_c, 0, 45, 72
1, 150164, Note_on_c, 0, 52, 83
1, 150169, Note_on_c, 0, 71, 74
1, 150169, Note_on_c, 0, 74, 79
1, 150170, Control_c, 0, 64, 68
1, 150185, Control_c, 0, 64, 74
1, 150200, Control_c, 0, 64, 81
1, 150214, Control_c, 0, 64, 92
1, 150215, Note_off_c, 0, 71, 61
1, 150229, Control_c, 0, 64, 108
1, 150240, Note_off_c, 0, 74, 61
1, 150244, Control_c, 0, 64, 127
1, 150259, Note_on_c, 0, 76, 80
1, 150288, Control_c, 0, 64, 91
1, 150291, Note_off_c, 0, 45, 60
1, 150302, Note_off_c, 0, 52, 63
1, 150303, Control_c, 0, 64, 71
1, 150306, Note_on_c, 0, 64, 16
1, 150308, Note_off_c, 0, 76, 60
1, 150318, Control_c, 0, 64, 58
1, 150333, Control_c, 0, 64, 48
1, 150342, Note_off_c, 0, 64, 31
1, 150348, Control_c, 0, 64, 48
1, 150349, Note_on_c, 0, 54, 81
1, 150350, Note_on_c, 0, 50, 81
1, 150361, Note_on_c, 0, 66, 72
1, 150362, Control_c, 0, 64, 54
1, 150370, Note_on_c, 0, 69, 58
1, 150377, Control_c, 0, 64, 60
1, 150392, Control_c, 0, 64, 65
1, 150406, Note_off_c, 0, 54, 61
1, 150406, Control_c, 0, 64, 73
1, 150414, Note_off_c, 0, 69, 52
1, 150418, Note_off_c, 0, 66, 62
1, 150421, Control_c, 0, 64, 87
1, 150436, Control_c, 0, 64, 107
1, 150451, Control_c, 0, 64, 127
1, 150453, Note_on_c, 0, 74, 69
1, 150466, Control_c, 0, 64, 110
1, 150479, Note_off_c, 0, 74, 67
1, 150481, Control_c, 0, 64, 86
1, 150495, Control_c, 0, 64, 68
1, 150510, Control_c, 0, 64, 55
1, 150525, Control_c, 0, 64, 44
1, 150529, Note_on_c, 0, 45, 74
1, 150534, Poly_aftertouch_c, 0, 62, 0
1, 150534, Note_on_c, 0, 52, 75
1, 150535, Note_on_c, 0, 55, 77
1, 150536, Note_off_c, 0, 50, 35
1, 150551, Note_on_c, 0, 64, 65
1, 150552, Note_on_c, 0, 67, 70
1, 150556, Control_c, 0, 64, 52
1, 150571, Control_c, 0, 64, 63
1, 150593, Control_c, 0, 64, 73
1, 150597, Note_off_c, 0, 64, 61
1, 150608, Control_c, 0, 64, 91
1, 150623, Control_c, 0, 64, 127
1, 150637, Note_off_c, 0, 67, 58
1, 150647, Note_off_c, 0, 55, 56
1, 150649, Note_on_c, 0, 69, 71
1, 150657, Note_off_c, 0, 52, 55
1, 150661, Note_on_c, 0, 57, 61
1, 150667, Control_c, 0, 64, 114
1, 150669, Note_off_c, 0, 45, 37
1, 150682, Control_c, 0, 64, 73
1, 150685, Note_off_c, 0, 57, 60
1, 150697, Control_c, 0, 64, 58
1, 150699, Note_off_c, 0, 69, 51
1, 150711, Control_c, 0, 64, 50
1, 150726, Control_c, 0, 64, 53
1, 150737, Note_on_c, 0, 62, 64
1, 150739, Note_on_c, 0, 66, 77
1, 150741, Control_c, 0, 64, 60
1, 150742, Note_on_c, 0, 54, 78
1, 150745, Note_on_c, 0, 57, 77
1, 150756, Control_c, 0, 64, 69
1, 150771, Control_c, 0, 64, 93
1, 150777, Note_off_c, 0, 62, 62
1, 150784, Note_off_c, 0, 57, 59
1, 150785, Control_c, 0, 64, 127
1, 150825, Note_off_c, 0, 66, 63
1, 150830, Note_off_c, 0, 54, 59
1, 150833, Note_on_c, 0, 69, 75
1, 150844, Control_c, 0, 64, 88
1, 150851, Note_on_c, 0, 57, 52
1, 150859, Control_c, 0, 64, 65
1, 150871, Note_off_c, 0, 57, 64
1, 150874, Control_c, 0, 64, 48
1, 150889, Note_off_c, 0, 69, 58
1, 150889, Control_c, 0, 64, 47
1, 150904, Control_c, 0, 64, 56
1, 150918, Control_c, 0, 64, 64
1, 150926, Note_on_c, 0, 45, 76
1, 150933, Control_c, 0, 64, 74
1, 150935, Note_on_c, 0, 64, 66
1, 150936, Note_on_c, 0, 67, 75
1, 150948, Control_c, 0, 64, 93
1, 150963, Note_off_c, 0, 45, 62
1, 150963, Control_c, 0, 64, 127
1, 150984, Note_off_c, 0, 64, 58
1, 151006, Note_off_c, 0, 67, 59
1, 151030, Note_on_c, 0, 69, 64
1, 151037, Note_on_c, 0, 57, 64
1, 151067, Control_c, 0, 64, 79
1, 151079, Note_off_c, 0, 57, 61
1, 151082, Control_c, 0, 64, 54
1, 151097, Control_c, 0, 64, 0
1, 151130, Note_on_c, 0, 38, 71
1, 151130, Note_on_c, 0, 45, 74
1, 151132, Note_on_c, 0, 66, 82
1, 151132, Note_off_c, 0, 69, 35
1, 151134, Note_on_c, 0, 50, 58
1, 151138, Note_on_c, 0, 62, 73
1, 151141, Control_c, 0, 64, 47
1, 151155, Control_c, 0, 64, 64
1, 151160, Note_off_c, 0, 50, 63
1, 151160, Note_off_c, 0, 62, 69
1, 151163, Note_off_c, 0, 45, 64
1, 151170, Note_off_c, 0, 38, 58
1, 151170, Control_c, 0, 64, 78
1, 151181, Note_off_c, 0, 66, 59
1, 151185, Control_c, 0, 64, 95
1, 151200, Control_c, 0, 64, 115
1, 151215, Control_c, 0, 64, 127
1, 151289, Control_c, 0, 64, 119
1, 151318, Control_c, 0, 64, 117
1, 151362, Note_on_c, 0, 38, 58
1, 151362, Note_on_c, 0, 52, 71
1, 151368, Note_on_c, 0, 45, 56
1, 151399, Note_off_c, 0, 52, 61
1, 151413, Note_off_c, 0, 45, 55
1, 151440, Note_off_c, 0, 38, 45
1, 151443, Note_on_c, 0, 50, 67
1, 151446, Control_c, 0, 64, 119
1, 151447, Note_on_c, 0, 57, 75
1, 151460, Control_c, 0, 64, 122
1, 151475, Control_c, 0, 64, 115
1, 151490, Control_c, 0, 64, 89
1, 151491, Note_off_c, 0, 50, 51
1, 151505, Control_c, 0, 64, 70
1, 151520, Control_c, 0, 64, 58
1, 151534, Control_c, 0, 64, 55
1, 151547, Note_on_c, 0, 62, 80
1, 151549, Note_on_c, 0, 45, 72
1, 151549, Control_c, 0, 64, 62
1, 151559, Note_on_c, 0, 38, 60
1, 151564, Note_off_c, 0, 57, 60
1, 151564, Control_c, 0, 64, 69
1, 151576, Note_off_c, 0, 45, 65
1, 151579, Control_c, 0, 64, 75
1, 151586, Note_off_c, 0, 38, 63
1, 151593, Control_c, 0, 64, 84
1, 151608, Control_c, 0, 64, 95
1, 151623, Control_c, 0, 64, 103
1, 151628, Note_on_c, 0, 54, 73
1, 151652, Note_off_c, 0, 54, 67
1, 151672, Note_off_c, 0, 62, 60
1, 151741, Note_on_c, 0, 50, 73
1, 151742, Note_on_c, 0, 57, 67
1, 151745, Note_on_c, 0, 64, 76
1, 151786, Control_c, 0, 64, 106
1, 151791, Note_off_c, 0, 64, 57
1, 151798, Note_off_c, 0, 50, 61
1, 151800, Control_c, 0, 64, 110
1, 151808, Note_off_c, 0, 57, 57
1, 151815, Control_c, 0, 64, 119
1, 151829, Note_on_c, 0, 62, 61
1, 151830, Note_on_c, 0, 69, 73
1, 151830, Control_c, 0, 64, 125
1, 151845, Control_c, 0, 64, 119
1, 151860, Control_c, 0, 64, 95
1, 151872, Note_off_c, 0, 62, 55
1, 151875, Control_c, 0, 64, 80
1, 151890, Control_c, 0, 64, 70
1, 151905, Control_c, 0, 64, 67
1, 151920, Control_c, 0, 64, 70
1, 151920, Note_on_c, 0, 57, 80
1, 151921, Note_on_c, 0, 50, 68
1, 151926, Note_on_c, 0, 74, 84
1, 151934, Control_c, 0, 64, 75
1, 151938, Note_off_c, 0, 69, 48
1, 151944, Note_off_c, 0, 50, 66
1, 151948, Note_off_c, 0, 57, 66
1, 151949, Control_c, 0, 64, 83
1, 151964, Control_c, 0, 64, 98
1, 151978, Control_c, 0, 64, 127
1, 152019, Note_on_c, 0, 66, 73
1, 152044, Note_off_c, 0, 66, 68
1, 152061, Note_off_c, 0, 74, 60
1, 152132, Note_on_c, 0, 62, 71
1, 152133, Note_on_c, 0, 76, 87
1, 152139, Note_on_c, 0, 69, 60
1, 152173, Note_off_c, 0, 76, 67
1, 152187, Note_off_c, 0, 69, 58
1, 152188, Note_off_c, 0, 62, 62
1, 152211, Note_on_c, 0, 74, 76
1, 152219, Note_on_c, 0, 81, 83
1, 152318, Note_on_c, 0, 62, 66
1, 152320, Note_on_c, 0, 86, 91
1, 152322, Note_on_c, 0, 69, 69
1, 152324, Note_off_c, 0, 74, 36
1, 152340, Note_off_c, 0, 81, 46
1, 152347, Note_off_c, 0, 62, 65
1, 152349, Note_off_c, 0, 69, 64
1, 152413, Note_on_c, 0, 78, 71
1, 152436, Note_off_c, 0, 78, 69
1, 152448, Note_off_c, 0, 86, 62
1, 152512, Note_on_c, 0, 88, 85
1, 152513, Note_on_c, 0, 74, 70
1, 152567, Note_off_c, 0, 88, 64
1, 152592, Note_on_c, 0, 93, 78
1, 152609, Note_on_c, 0, 81, 71
1, 152619, Note_off_c, 0, 74, 56
1, 152678, Note_off_c, 0, 93, 59
1, 152694, Note_on_c, 0, 98, 94
1, 152698, Note_on_c, 0, 90, 100
1, 152701, Note_on_c, 0, 86, 92
1, 152701, Note_on_c, 0, 74, 79
1, 152708, Note_off_c, 0, 81, 39
1, 152719, Note_off_c, 0, 86, 71
1, 152722, Note_off_c, 0, 74, 70
1, 152727, Note_on_c, 0, 93, 9
1, 152730, Note_off_c, 0, 90, 64
1, 152731, Note_off_c, 0, 98, 68
1, 152779, Note_off_c, 0, 93, 52
1, 153135, Note_on_c, 0, 26, 64
1, 153135, Note_on_c, 0, 50, 83
1, 153137, Note_on_c, 0, 62, 77
1, 153140, Note_on_c, 0, 38, 75
1, 153166, Note_off_c, 0, 26, 62
1, 153168, Note_off_c, 0, 50, 62
1, 153168, Note_off_c, 0, 38, 64
1, 153173, Note_off_c, 0, 62, 60
1, 153226, Note_on_c, 0, 38, 79
1, 153228, Note_on_c, 0, 50, 79
1, 153228, Note_on_c, 0, 62, 77
1, 153232, Note_on_c, 0, 26, 74
1, 153253, Note_off_c, 0, 38, 66
1, 153255, Note_off_c, 0, 50, 65
1, 153257, Note_off_c, 0, 62, 67
1, 153262, Note_off_c, 0, 26, 62
1, 153324, Note_on_c, 0, 38, 70
1, 153326, Note_on_c, 0, 50, 85
1, 153330, Note_on_c, 0, 62, 85
1, 153334, Note_on_c, 0, 26, 77
1, 153360, Note_off_c, 0, 62, 60
1, 153361, Note_off_c, 0, 50, 58
1, 153365, Note_off_c, 0, 38, 60
1, 153367, Note_off_c, 0, 26, 62
1, 153410, Note_on_c, 0, 62, 83
1, 153413, Note_on_c, 0, 38, 62
1, 153413, Note_on_c, 0, 50, 75
1, 153423, Note_on_c, 0, 26, 73
1, 153454, Note_off_c, 0, 26, 63
1, 153454, Note_off_c, 0, 62, 65
1, 153455, Note_off_c, 0, 50, 61
1, 153467, Note_off_c, 0, 38, 61
1, 153517, Note_on_c, 0, 26, 81
1, 153517, Note_on_c, 0, 50, 86
1, 153519, Note_on_c, 0, 62, 91
1, 153538, Note_off_c, 0, 62, 71
1, 153544, Note_on_c, 0, 38, 32
1, 153544, Note_off_c, 0, 26, 64
1, 153544, Note_off_c, 0, 50, 65
1, 153568, Note_off_c, 0, 38, 62
1, 153720, Control_c, 0, 64, 99
1, 153735, Control_c, 0, 64, 60
1, 153750, Control_c, 0, 64, 0
1, 153750, End_track
0, 0, End_of_file
